<svg width="256" height="256" xmlns="http://www.w3.org/2000/svg"><script> 
var tempColor;
function hoverPath(evt){
obj = evt.target;
tempColor = obj.getAttribute("fill");
obj.setAttribute("fill","red");
//alert(tempColor);
//obj.setAttribute("stroke","red");}
function recoverPath(evt){
obj = evt.target;
obj.setAttribute("fill", tempColor);
//obj.setAttribute("stroke", tempColor);
}</script><path onmouseover="hoverPath(evt)" onmouseout="recoverPath(evt)" fill="rgb(243,241,232)" d="M  0,104l 0,48 6,0 1,-1 5,0 0,-4 -1,-1 0,-2 -1,-1 -1,0 -1,-1 0,-3 1,-1 40,0 0,-10 1,-1 0,-6 -1,-1 0,-5 1,-1 3,0 1,1 0,1 9,0 0,-2 -1,-1 0,-12 -1,-1 0,-1 -3,0 -1,-1 0,-2 -2,0 -1,1 -2,0 -1,-1 0,-2 -1,-1 -1,-1 0,-1 -2,0 -1,-1 -1,-1 -1,-1 -1,1 -2,0 -1,-1 -1,-1 0,-1 -2,0 -1,-1 -36,0Z"/>
<path onmouseover="hoverPath(evt)" onmouseout="recoverPath(evt)" fill="rgb(240,238,228)" d="M  67,43l 0,-11 -8,0 -1,-1 -22,0 -1,1 0,2 1,1 0,2 -1,1 -3,0 -1,-1 0,-5 -17,0 -1,-1 -13,0 0,27 2,0 1,1 1,1 4,0 0,-1 1,-1 7,0 1,1 8,0 0,-3 1,-1 4,0 1,1 0,3 1,1 1,0 1,-1 1,0 1,-1 3,0 1,1 28,0 0,-5 -1,-1Z"/>
<path onmouseover="hoverPath(evt)" onmouseout="recoverPath(evt)" fill="rgb(237,233,220)" d="M  62,164l 0,-1 -1,0 -1,-1 -9,0 -1,1 0,0 -1,1 0,5 1,0 1,1 10,0 1,-1Z"/>
<path onmouseover="hoverPath(evt)" onmouseout="recoverPath(evt)" fill="rgb(240,239,229)" d="M  169,147l -1,1 0,11 1,1 0,4 44,0 1,-1 33,0 0,-4 -16,0 -1,-1 0,-2 1,-1 14,0 0,-16 1,-1 -1,0 -1,-1 0,-2 -16,0 0,11 -1,1 -2,0 -1,-1 0,-11 -33,0 -1,1 -1,0 -1,1 -2,0 -1,-1 -1,1 -1,0 -1,1 -1,0 -1,1 -1,0 -1,1 0,2 -1,1 -1,0 -1,1 -1,0 -1,1 -1,0 -1,1 -1,0 -1,1 59,1 0,3 1,1 0,0 -1,-4 -59,-1 61,5 0,0 -61,-5 60,-8 0,0 -60,8Z"/>
<path onmouseover="hoverPath(evt)" onmouseout="recoverPath(evt)" fill="rgb(239,238,229)" d="M  202,125l 0,0 -1,1 0,2 -1,1 -1,1 0,1 44,0 1,-1 0,-8 1,-1 -1,0 -1,-1 0,-27 -31,0 -1,-1 0,-2 1,-1 32,0 0,-14 -1,0 0,4 -1,1 -28,0 -1,-1 -5,0 0,10 3,0 -9,36 8,-32 -1,1 -1,0 0,16 1,1 0,10 -1,1 -2,0 -1,1 -1,1 -1,1 7,-32 -8,32Z"/>
<path onmouseover="hoverPath(evt)" onmouseout="recoverPath(evt)" fill="rgb(207,218,228)" d="M  248,124l 0,4 1,1 0,10 -1,1 -1,0 0,16 -1,1 2,0 1,1 0,4 2,0 0,-16 1,-1 0,-1 -1,-1 0,-37 -1,-1 0,-3 -1,-1 0,-9 -1,-1 0,-17 -1,-1 -33,0 0,2 -1,1 -3,0 -1,1 -2,0 -1,-1 0,-2 -1,0 0,9 1,1 0,2 -1,1 0,15 -1,1 -6,0 5,1 1,0 1,1 0,1 1,1 0,-14 1,-1 1,0 1,-1 -2,0 -1,-1 0,-3 42,37 -42,-46 0,-1 8,0 1,1 26,0 1,-1 0,0 -1,-1 0,-2 -35,4 42,46 -2,-50 0,16 -1,1 0,28 2,0 1,1 0,3 -2,-49 2,50 -4,-33 4,33Z"/>
<path onmouseover="hoverPath(evt)" onmouseout="recoverPath(evt)" fill="rgb(203,216,226)" d="M  251,228l 0,10 1,1 0,16 3,0 0,-39 -2,0 -1,-1 -1,0Z"/>
<path onmouseover="hoverPath(evt)" onmouseout="recoverPath(evt)" fill="rgb(241,239,231)" d="M  1,0l -1,0 0,24 16,0 1,1 28,0 1,-1 21,0 0,-1 -23,0 -1,-1 0,-2 1,-1 24,0 -6,-1 0,-1 -1,-1 0,-16Z"/>
<path onmouseover="hoverPath(evt)" onmouseout="recoverPath(evt)" fill="rgb(176,201,238)" d="M  37,209l -1,0 -1,1 -1,0 -1,1 -1,0 -1,1 -3,0 -1,1 -5,0 -1,-1 0,-2 1,-1 0,-1 -2,2 -1,0 -1,1 -6,0 -1,1 -6,0 0,1 -1,1 0,1 -1,1 1,0 1,1 5,0 1,-1 6,0 1,-1 4,0 1,-1 7,0 1,-1 1,0 1,-1 1,0 1,-1 1,0 1,-1 0,-1 1,-1 1,1 6,0 1,-1 1,0 1,-1 2,0 0,-1 1,-1 1,0 1,-1 2,0 1,-1 -1,0 -3,1 -2,1 -2,0 -1,1 -4,0 -1,1 -2,0 -1,1 -1,0 -1,1Z"/>
<path onmouseover="hoverPath(evt)" onmouseout="recoverPath(evt)" fill="rgb(242,240,231)" d="M  43,73l -4,0 -1,-1 0,-1 -3,0 0,1 -1,1 -21,0 -1,-1 -12,0 0,11 37,0 1,1 2,0 1,1 0,1 1,1 1,-1 2,0 1,1 1,1 1,1 2,0 1,1 0,1 1,1 1,1 1,0 1,1 3,0 1,1 3,0 1,-1 2,0 1,1 5,0 0,-7 -1,-1 0,-13 -1,-1Z"/>
<path onmouseover="hoverPath(evt)" onmouseout="recoverPath(evt)" fill="rgb(248,246,241)" d="M  63,97l -4,0 4,1 0,1 1,1 0,12 1,1 0,4 -1,1 -11,0 -1,-1 0,-1 -1,0 0,3 1,1 0,8 -1,1 0,10 -1,1 -40,0 0,1 1,0 1,1 1,1 0,2 1,1 0,6 -1,1 -5,0 -1,1 -7,0 0,37 1,0 1,-1 0,-1 1,-1 0,-1 1,-1 5,0 1,-1 8,0 1,1 0,5 1,0 1,-1 0,0 -1,-1 0,-5 1,-1 0,-2 1,-1 1,0 1,-1 2,0 1,1 0,9 -1,1 -1,0 2,-11 1,-1 16,0 1,1 0,1 1,1 0,1 17,0 1,1 0,-1 1,-1 0,-8 1,-1 1,0 1,-1 2,0 1,1 1,0 1,1 1,0 -1,-1 0,-2 1,-1 -1,-1 0,-10 -1,-1 0,-2 1,-1 1,0 0,-3 -4,0 -1,-1 -1,0 -1,1 -9,0 -1,1 -5,0 -1,-1 -1,-1 0,0 -1,1 -1,0 -1,1 -9,0 -1,1 -21,0 -1,-1 0,-1 48,-54 -18,80 -1,0 2,-1 -1,1 18,-80 -36,81 -2,0 -5,5 -1,1 -1,0 2,6 0,0 -17,-5 -1,-1 0,-2 -1,-1 0,-19 1,-1 1,0 0,-1 1,-1 14,0 1,-1 27,0 1,1 0,10 -1,1 0,4 -19,4 36,-81 -16,73 1,1 1,0 1,1 12,0 -15,-2 16,-73 0,74 1,-1 0,-8 -1,-1 0,-64 -1,64 -1,-1 1,1 1,-64 -3,63 -10,0 -1,1 -1,1 12,-2 3,-63 -49,48 0,-3 1,-1 34,0 1,1 0,6 1,-5 0,-3 -37,5 49,-48 -9,23 9,0 1,1 0,19 1,1 0,-19 1,-1 1,-1 5,0 0,-2 -1,-1 0,-19 1,-1 -7,0 -11,23 9,-23Z"/>
<path onmouseover="hoverPath(evt)" onmouseout="recoverPath(evt)" fill="rgb(239,239,233)" d="M  86,93l 0,0 1,1 0,7 -1,1 0,11 1,1 0,24 -1,1 0,2 1,1 0,24 39,0 1,-1 1,0 0,-3 -1,-1 -10,0 -1,-1 0,-2 -19,0 -1,-1 0,-7 1,-1 9,0 0,-3 1,-1 4,0 1,1 5,0 0,-1 -1,-1 -1,0 -1,-1 0,-1 -1,-1 -1,-1 0,-6 1,-1 -1,-1 0,-2 1,-1 1,-1 0,-1 1,-1 2,0 1,-1 1,-1 0,-1 1,-1 1,-1 1,-1 1,-1 0,-1 1,-1 2,-2 1,-1 0,-2 1,-1 1,-1 3,0 1,1 2,0 1,-1 1,0 0,-2 1,-1 1,0 1,-1 3,0 1,1 4,0 1,-1 2,0 1,-1 4,0 1,-1 4,0 1,-1 7,0 1,-1 26,0 1,-1 6,0 0,-15 1,-1 -1,-1 0,-9 -4,0 -1,-1 -34,0 0,1 -1,1 -7,0 -1,1 -2,0 -1,1 -7,0 -1,-1 -8,0 -1,-1 0,-2 -3,0 -1,-1 0,-1 -2,0 -1,1 -9,0 -1,-1 -7,0 -1,1 -25,0 0,8 1,1 0,11 98,8 -12,0 13,-1 -1,1 -98,-8 78,9 -4,0 -1,-1 -1,0 -1,1 -10,0 -1,-1 -1,-1 -1,-1 -1,-1 -1,-1 -1,-1 0,-2 1,-1 1,-1 1,-1 7,0 1,-1 4,0 1,-1 15,0 1,-1 12,0 1,1 1,1 1,1 0,4 -1,1 0,1 -1,1 -22,4 -78,-9 39,18 0,1 -1,1 -1,0 -1,1 -5,0 -1,-1 0,-3 1,-1 0,-2 -7,0 0,1 1,0 1,1 0,1 1,1 0,1 1,0 1,1 0,4 -1,1 0,2 -1,1 0,2 -1,1 -1,1 -2,0 -1,-1 0,-5 1,-1 0,-1 -1,-1 0,-1 -14,0 -1,-1 0,-3 -1,-1 0,-1 -1,-1 0,-2 1,-1 6,0 1,-1 6,0 1,-1 8,0 1,-1 11,0 1,1 0,3 -1,1 -1,1 0,3 -39,-18Z"/>
<path onmouseover="hoverPath(evt)" onmouseout="recoverPath(evt)" fill="rgb(173,199,237)" d="M  117,189l -2,0 -1,1 2,0 2,-1 3,0 1,-1 5,0 1,-1 3,0 1,-1 15,0 1,-1 1,0 1,-1 1,0 1,-1 2,0 1,-1 1,0 1,-1 6,0 1,1 0,2 1,1 0,11 1,-9 0,-1 1,-1 3,0 1,-1 16,0 1,1 4,0 0,-1 -24,0 -1,-1 0,-6 1,-1 0,-1 -1,-1 -4,0 0,3 -1,1 -2,0 -1,1 -2,0 -1,1 -3,0 -1,1 -1,0 -1,1 -1,1 -3,0 -1,1 -3,0 -1,1 -7,0 -17,4 14,-3 -2,0 -2,1 -3,0 -3,1 -2,0 12,-2 -14,3Z"/>
<path onmouseover="hoverPath(evt)" onmouseout="recoverPath(evt)" fill="rgb(238,239,235)" d="M  123,9l 0,2 -1,1 3,0 1,1 0,8 1,1 0,2 2,0 1,1 1,0 1,1 10,0 1,-1 25,0 1,-1 22,0 0,-1 -23,0 0,-5 -1,-1 0,-6 1,-1 0,-2 -1,-1 0,-7 -63,0 0,8 18,0 1,1Z"/>
<path onmouseover="hoverPath(evt)" onmouseout="recoverPath(evt)" fill="rgb(243,242,235)" d="M  171,0l -2,0 0,6 1,1 0,4 -1,1 0,4 1,1 0,5 16,0 1,-1 5,0 1,1 0,2 1,0 1,-1 5,0 1,-1 7,0 0,-1 1,-1 31,0 1,-1 1,0 0,-19Z"/>
<path onmouseover="hoverPath(evt)" onmouseout="recoverPath(evt)" fill="rgb(253,253,252)" d="M  194,221l -15,0 -1,-1 -6,0 -1,-1 -1,0 1,1 7,1 16,1 0,-1 2,-2 1,1 0,-17 -1,-1 0,-16 1,-1 0,-1 -1,-1 0,-14 1,-1 1,-1 20,0 1,-1 33,0 1,1 0,4 1,1 0,42 1,0 0,-117 -2,0 -1,-1 0,-22 -2,0 0,16 1,1 0,9 1,1 0,3 1,1 0,37 1,1 0,3 -1,1 0,16 -1,1 -3,0 -1,1 -33,0 -1,1 -46,0 -1,-1 0,-4 -1,-1 0,-13 3,-3 -1,0 -1,1 -1,0 -1,1 -1,0 -1,1 2,0 1,-1 0,0 4,-2 1,-1 1,0 1,-1 1,0 1,-1 1,0 -10,20 0,4 -1,1 -1,0 -1,1 -32,0 -1,-1 0,-14 1,-1 0,0 1,-1 -5,0 2,1 1,0 -1,7 -1,1 -7,0 8,1 0,7 -1,0 -1,1 -41,0 0,2 1,-1 47,0 1,-1 30,0 1,-1 26,0 1,1 1,0 1,1 0,14 -1,1 0,2 -1,1 0,1 1,0 1,1 0,17 1,1 0,12 -2,2 3,0 0,14 -1,1 0,19 2,0 0,-4 -1,-1 0,-29 -3,0 0,14 -3,-48 -4,0 -1,-1 -14,0 -1,1 -3,0 0,1 -1,1 0,7 1,1 0,18 1,1 0,-12 -1,-8 0,-7 1,-1 3,-1 14,0 8,38Z"/>
<path onmouseover="hoverPath(evt)" onmouseout="recoverPath(evt)" fill="rgb(177,200,228)" d="M  199,183l 0,2 46,0 1,-1 -46,0 -1,-1Z"/>
<path onmouseover="hoverPath(evt)" onmouseout="recoverPath(evt)" fill="rgb(253,253,252)" d="M  226,133l -28,0 -1,-1 0,-2 -1,-1 -1,1 -1,0 -1,1 -1,1 -1,0 0,1 54,0 1,1 0,2 1,0 0,-6 -1,-1 0,2 -2,2Z"/>
<path onmouseover="hoverPath(evt)" onmouseout="recoverPath(evt)" fill="rgb(246,245,238)" d="M  247,1l 0,7 1,1 0,36 1,1 0,2 -1,1 0,3 1,1 0,8 4,0 1,-1 1,0 0,-60 -7,0 -1,1Z"/>
<path onmouseover="hoverPath(evt)" onmouseout="recoverPath(evt)" fill="rgb(243,241,233)" d="M  0,230l 0,25 66,0 0,-25 -1,-1 0,-2 1,-1 -1,-1 -5,0 -1,-1 -25,0 -1,-1 -3,0 -1,1 -12,0 -1,1 -16,0Z"/>
<path onmouseover="hoverPath(evt)" onmouseout="recoverPath(evt)" fill="rgb(239,237,225)" d="M  41,150l 5,0 1,-1 1,0 0,-6 -32,0 0,6 1,1 0,1 19,0 1,-1Z"/>
<path onmouseover="hoverPath(evt)" onmouseout="recoverPath(evt)" fill="rgb(239,237,225)" d="M  67,142l 0,3 -1,1 -2,0 -1,-1 0,-3 -1,-1 0,-19 -7,0 0,1 -1,1 0,6 -1,1 0,13 -1,1 0,4 1,1 3,0 1,-1 9,0 1,-1 3,0 1,1 1,0 0,-25 -1,-1 0,-1 -3,0 -1,1 0,0 -1,1 0,13 1,1Z"/>
<path onmouseover="hoverPath(evt)" onmouseout="recoverPath(evt)" fill="rgb(243,242,235)" d="M  87,174l 0,13 1,1 0,38 1,1 0,28 80,0 0,-2 1,-1 0,-1 -3,0 -1,-1 0,-2 1,-1 1,0 1,-1 -1,-1 0,-6 -1,-1 0,-10 -1,-1 0,-6 -1,-1 0,-4 1,-1 0,-17 -2,0 -1,-1 0,-11 -1,-1 0,-2 -4,0 -1,1 -1,0 -1,1 -2,0 -1,1 -1,0 -1,1 -1,0 -1,1 -15,0 -1,1 -3,0 -1,1 -5,0 -1,1 -4,0 -1,1 -4,0 -1,-1 0,-2 1,-1 1,-1 3,0 1,-1 4,0 1,-1 4,0 1,-1 4,0 1,-1 7,0 1,-1 3,0 1,-1 3,0 1,-1 1,-1 1,0 1,-1 3,0 1,-1 2,0 1,-1 2,0 0,-3 1,-1 6,0 1,1 1,1 0,3 -1,1 0,4 24,0 0,-12 -1,0 -1,-1 -24,0 -1,1 -30,0 -1,1 -47,0 -1,1Z"/>
<path onmouseover="hoverPath(evt)" onmouseout="recoverPath(evt)" fill="rgb(233,232,224)" d="M  106,14l -10,0 -1,-1 0,-2 1,-1 25,0 -19,-1 0,-9 -18,0 0,5 -1,1 0,12 1,1 0,5 -1,1 -1,1 0,2 1,0 1,1 0,3 1,1 23,0 1,-1 0,0 1,-1 0,-4 1,-1 1,-1 13,0 0,-2 -1,-1 0,-8Z"/>
<path onmouseover="hoverPath(evt)" onmouseout="recoverPath(evt)" fill="rgb(171,198,238)" d="M  144,94l 0,0 -1,1 1,1 1,1 1,1 1,1 1,1 8,0 1,-1 3,0 1,1 9,0 1,-1 12,0 0,-1 1,-1 1,-1 0,-1 1,-1 0,-2 -1,-1 0,0 -1,-1 -10,0 -1,1 -15,0 -1,1 -4,0 -1,1 -7,0 -1,1Z"/>
<path onmouseover="hoverPath(evt)" onmouseout="recoverPath(evt)" fill="rgb(171,198,238)" d="M  163,134l 0,2 2,0 1,-1 1,0 1,-1 1,0 1,-1 2,0 1,-1 1,0 1,-1 1,0 1,-1 1,-1 1,0 1,-1 2,0 1,-1 1,0 0,-1 1,-1 0,-3 -1,-1 0,0 -1,-1 -1,-1 -2,0 -1,-1 -11,0 -1,1 -5,0 -1,1 -3,0 -1,1 -1,0 0,1 1,1 2,0 1,-1 0,0 1,-1 4,0 1,1 1,-1 3,0 1,-1 7,0 1,1 1,0 1,1 0,2 -1,1 -1,1 -1,0 -1,1 -1,0 -1,1 -1,0 -1,1 -1,1 -1,0 -1,1 -1,0 -1,1 -2,0 -1,1 -1,0 -1,1Z"/>
<path onmouseover="hoverPath(evt)" onmouseout="recoverPath(evt)" fill="rgb(243,242,234)" d="M  172,222l -1,0 0,2 1,1 0,2 1,1 0,10 1,1 0,1 1,1 0,8 1,-1 1,0 1,-1 1,0 1,-1 1,0 1,-1 2,0 1,-1 1,0 1,-1 1,0 1,-1 5,0 0,-5 -1,0 -1,-1 0,-13 -15,0 -1,-1Z"/>
<path onmouseover="hoverPath(evt)" onmouseout="recoverPath(evt)" fill="rgb(236,238,234)" d="M  230,142l 0,8 13,0 0,-9 -12,0 -1,1Z"/>
<path onmouseover="hoverPath(evt)" onmouseout="recoverPath(evt)" fill="rgb(241,241,235)" d="M  248,200l 0,-15 -1,1 0,0 -1,1 -48,0 0,14 1,1 0,47 1,1 0,5 50,0 0,-15 -1,-1 0,-26 -1,-1Z"/>
<path onmouseover="hoverPath(evt)" onmouseout="recoverPath(evt)" fill="rgb(181,198,214)" d="M  241,22l -31,0 27,1 3,0 1,-1 3,3 0,10 1,1 0,25 -1,1 2,0 1,-1 0,-7 -1,-1 0,-5 1,-1 -1,-1 0,-36 -1,-1 0,-9 -1,0 0,25 -3,-3Z"/>
<path onmouseover="hoverPath(evt)" onmouseout="recoverPath(evt)" fill="rgb(175,199,234)" d="M  0,27l 0,2 14,0 1,1 17,0 1,1 0,5 1,0 0,-6 1,-1 24,0 1,1 8,0 0,-3 -1,-1 -20,0 -1,1 -30,0 -1,-1 -14,0 -1,1Z"/>
<path onmouseover="hoverPath(evt)" onmouseout="recoverPath(evt)" fill="rgb(248,233,130)" d="M  0,63l 0,7 13,0 1,1 19,0 0,-1 1,-1 5,0 1,1 0,1 30,0 1,1 1,1 0,13 1,1 0,8 1,1 0,2 -1,1 0,17 1,1 0,4 -1,1 1,1 0,26 1,0 1,1 0,5 -1,1 -1,0 1,1 0,10 1,1 0,2 -1,1 1,1 0,2 -1,1 0,22 1,1 0,33 1,1 0,23 10,0 0,-27 -1,-1 0,-38 -1,-1 0,-16 -1,-1 0,-4 1,-1 0,-23 -1,-1 0,-4 1,-1 0,-22 -1,-1 0,-13 1,-1 0,-5 -1,-1 0,-11 -1,-1 0,-10 1,-1 25,0 1,-1 9,0 1,1 7,0 1,-1 4,0 1,1 0,1 3,0 1,1 0,2 8,0 1,1 5,0 1,-1 2,0 1,-1 7,0 0,-1 1,-1 36,0 1,1 3,0 1,-1 3,0 1,1 0,2 1,-1 3,0 0,-2 1,-1 35,0 1,1 4,0 1,1 0,22 1,0 0,-33 -1,1 -6,0 -1,1 -27,0 -1,-1 -2,0 -1,-1 -55,0 -1,-1 -1,0 -1,1 -2,0 -1,1 -2,0 -1,-1 -1,0 -1,-1 -66,0 -1,-1 -1,-1 0,-2 -1,-1 0,-16 -1,-1 0,-6 1,-1 1,0 0,-2 -1,0 -1,-1 0,-4 1,-1 1,-1 0,-3 -1,-1 0,-14 1,-1 0,-4 -19,0 0,15 1,1 0,1 5,0 1,1 0,2 -1,1 -24,0 24,1 0,3 1,1 0,5 -1,1 0,20 1,1 0,7 -1,1 -30,0 -1,-1 -1,0 -1,1 -1,0 -1,1 -3,0 -1,-1 -1,-1 0,-3 -2,0 0,3 -1,1 -10,0 -1,-1 -5,0 0,1 -1,1 -6,0 -1,-1 -1,-1 -1,0Z"/>
<path onmouseover="hoverPath(evt)" onmouseout="recoverPath(evt)" fill="rgb(241,240,233)" d="M  1,218l -1,0 0,5 15,0 1,-1 12,0 1,-1 5,0 1,1 25,0 1,1 5,0 1,1 1,1 0,2 -1,1 1,1 0,26 7,0 0,-22 -1,-1 0,-33 -1,-1 0,-23 -1,0 -1,-1 -1,0 -1,-1 -1,1 -1,0 0,8 -1,1 0,1 -1,1 -2,0 -1,-1 -17,0 -1,-1 0,-1 -1,-1 0,-1 -14,0 0,11 -1,1 -4,0 -1,-1 0,-2 1,-1 1,0 0,-7 -1,1 -1,0 0,2 -1,1 0,3 1,0 -22,30 2,0 1,1 7,0 1,-1 6,0 1,-1 4,0 1,-1 7,0 1,-1 1,0 1,-1 1,0 1,-1 1,0 1,-1 1,0 1,-1 6,0 1,-1 1,0 1,-1 2,0 1,-1 0,0 -50,10 -1,0 52,-11 -1,0 2,-1 2,0 1,-1 1,0 1,-1 0,0 -6,3 -52,11 58,-15 0,-1 -1,-1 1,2 -58,15 56,-17 -3,0 -1,1 -2,0 -1,1 -3,0 -1,1 -4,0 -1,1 -2,0 -1,1 -1,0 -1,1 -1,0 -1,1 -1,0 -1,1 -1,0 -1,1 -3,0 -1,1 -1,0 -1,-1 0,0 -1,1 1,0 0,-4 33,-6 -56,17 20,-25 -3,0 -1,-1 0,-5 -6,0 -1,1 -5,0 0,1 -1,1 0,1 -1,1 -1,1 -2,0 0,21 2,0 0,-1 1,-1 0,-1 1,-1 6,0 1,-1 6,0 1,-1 2,0 0,-1 1,-1 1,0 -1,-13 -20,25Z"/>
<path onmouseover="hoverPath(evt)" onmouseout="recoverPath(evt)" fill="rgb(241,239,230)" d="M  5,162l -1,1 -1,0 0,17 1,1 0,2 1,1 3,0 1,-1 7,0 1,-1 1,0 1,-1 0,-2 1,-1 1,0 1,-1 1,0 1,-1 18,0 1,-1 1,0 0,-6 1,-1 0,-8 -25,0 -1,1 -13,0 -1,1Z"/>
<path onmouseover="hoverPath(evt)" onmouseout="recoverPath(evt)" fill="rgb(174,200,238)" d="M  97,107l -4,0 1,1 0,1 1,1 0,3 14,0 1,1 0,1 1,1 0,3 1,0 0,-2 1,-1 0,-2 -1,0 -1,-1 0,-1 -1,-1 0,-1 -1,0 -1,-1 0,-3 1,-1 9,0 1,1 0,4 -1,1 0,1 3,0 1,-1 1,0 0,-4 1,-1 1,-1 0,-1 -9,0 -19,3 11,-2 -1,0 -1,1 -6,0 -1,1 -1,0 10,-2 -11,2 14,13 -1,0 0,3 1,-1 0,-2 -14,-13Z"/>
<path onmouseover="hoverPath(evt)" onmouseout="recoverPath(evt)" fill="rgb(242,240,231)" d="M  114,38l -1,0 0,4 -1,1 0,5 -1,1 -2,0 -1,-1 0,-11 -17,0 0,8 1,1 0,2 -1,1 -3,0 -1,-1 0,-1 -1,-1 0,-3 1,-1 0,-2 -4,0 0,15 1,1 0,2 1,1 66,0 1,1 1,0 1,1 0,-7 1,-1 0,-2 -2,0 0,4 -1,1 -2,0 -1,-1 -1,-1 0,-3 -1,-1 0,-1 -2,-2 0,-3 -1,-1 0,-2 -1,-1 0,-3 -28,0 -1,1Z"/>
<path onmouseover="hoverPath(evt)" onmouseout="recoverPath(evt)" fill="rgb(247,246,241)" d="M  121,27l -8,0 -1,1 0,4 -1,1 -1,1 -1,1 -25,0 -1,-1 -1,0 0,4 6,0 1,1 0,4 -1,1 0,1 1,1 0,1 1,0 -1,-2 0,-9 32,-9 -11,9 0,11 1,-6 0,-4 -1,-1 11,-9 -8,9 1,-1 30,0 1,1 0,3 1,1 0,2 1,1 0,3 1,1 1,1 0,1 1,1 0,3 1,1 0,-4 1,-1 4,0 1,1 0,4 -1,1 0,5 1,0 0,-5 1,-5 0,-1 1,-1 1,-1 7,0 -5,-1 0,-9 1,-1 0,-1 1,-1 -6,0 -1,1 -8,0 -1,-1 -5,0 -30,2 8,-9 10,7 0,-1 -1,-1 0,-5 -1,0 -1,-1 -1,0 -1,1 -3,0 8,7 -10,-7Z"/>
<path onmouseover="hoverPath(evt)" onmouseout="recoverPath(evt)" fill="rgb(171,198,238)" d="M  124,135l 0,3 3,0 1,1 2,0 1,1 11,0 1,1 4,0 1,-1 3,0 1,-1 4,0 1,-1 2,0 0,-3 -4,0 -1,1 -5,0 -1,1 -4,0 -1,-1 -1,0 -1,-1 0,-5 1,-1 1,0 1,-1 1,0 1,-1 2,0 1,-1 2,0 1,-1 1,0 0,-1 -1,-1 0,-1 -2,0 -1,1 -2,0 -1,1 -1,0 -1,1 -1,0 -1,1 -1,0 -1,1 -1,0 -1,1 -1,0 -1,1 -1,0 -1,1 -1,0 -1,1 -1,1 -2,0 -1,1 -1,0 -1,1 -1,0 -1,1Z"/>
<path onmouseover="hoverPath(evt)" onmouseout="recoverPath(evt)" fill="rgb(242,241,232)" d="M  148,143l -6,0 -1,-1 -11,0 -1,-1 -2,0 -1,-1 -3,0 -1,-1 0,-6 1,-1 2,0 1,-1 1,0 1,-1 2,0 1,-1 1,-1 1,0 1,-1 1,0 1,-1 1,0 1,-1 1,0 1,-1 1,0 1,-1 1,0 1,-1 1,0 1,-1 2,0 1,-1 4,0 1,1 0,-1 1,-1 1,0 1,-1 3,0 1,-1 5,0 1,-1 13,0 1,1 2,0 1,1 1,1 1,1 1,1 0,5 -1,1 0,1 -1,1 -1,0 -1,1 -2,0 -1,1 -1,0 -1,1 -1,1 -1,0 -1,1 -1,0 -1,1 -2,0 -1,1 -1,0 -1,1 -1,0 -1,1 -4,0 -1,-1 0,-4 2,-2 1,0 1,-1 2,0 1,-1 1,0 1,-1 1,0 1,-1 1,-1 1,0 1,-1 1,0 1,-1 1,0 1,-1 -1,0 -1,-1 -5,0 -1,1 -3,0 -1,1 -2,0 -1,-1 -2,0 -1,1 -1,1 -4,0 -1,-1 0,2 -1,1 -1,0 -1,1 -2,0 -1,1 -2,0 -1,1 -1,0 -1,1 -1,0 0,3 1,0 1,1 2,0 1,-1 5,0 1,-1 6,0 -12,10 13,-5 0,1 -1,1 -2,0 -1,1 -4,0 -1,1 -3,0 12,-4 -13,5 30,-6 1,0 1,-1 1,0 1,-1 1,0 1,-1 1,0 1,-1 2,0 1,1 0,-3 1,-1 1,0 1,-1 1,-1 1,0 1,-1 1,0 1,-1 1,-1 1,0 1,-1 1,-1 1,0 1,-1 1,-1 1,-1 2,0 0,-8 -2,0 -1,-1 0,-3 -1,-1 0,-1 -1,0 -1,-1 -4,0 -1,-1 -25,0 -1,1 -7,0 -1,1 -4,0 -1,1 -4,0 -1,1 -2,0 -1,1 -6,0 -1,-1 -1,0 -1,1 -1,0 0,2 -1,1 -1,0 -1,1 -4,0 -1,-1 -1,0 -1,1 0,2 -1,1 -1,1 -1,1 -1,1 0,1 -1,1 -1,1 -1,1 -1,1 0,1 -1,1 -1,1 -1,1 0,1 -1,1 -2,0 -1,1 1,1 0,2 -1,1 0,4 1,1 1,1 0,1 1,0 1,1 1,1 0,3 -1,1 -7,0 -1,-1 -2,0 0,3 -1,1 -9,0 0,5 19,0 1,1 0,2 1,0 0,-1 1,-1 7,0 1,-1 0,-3 -1,-1 -1,0 -1,-1 0,-2 1,-1 17,0 1,1 0,2 -1,1 -10,0 -1,1 0,12 30,0 1,-1 1,0 0,-15 -5,0 -1,-1 0,-2 1,-1 3,0 1,-1 1,0 1,-1 1,0 1,-1 2,0 1,-1 1,0 1,-1 1,0 1,-1 2,0 1,-1 1,-1 -30,6Z"/>
<path onmouseover="hoverPath(evt)" onmouseout="recoverPath(evt)" fill="rgb(242,240,231)" d="M  161,49l 0,0 -1,1 0,1 -1,1 0,7 2,0 1,1 54,0 0,-9 -12,0 -1,-1 -5,0 -1,1 -6,0 -1,1 -7,0 -1,-1 -12,0 -1,-1 -1,0 -1,-1Z"/>
<path onmouseover="hoverPath(evt)" onmouseout="recoverPath(evt)" fill="rgb(241,239,229)" d="M  170,191l 0,11 1,1 0,14 1,0 1,1 6,0 1,1 13,0 1,-1 0,-10 -1,-1 0,-17 -1,0 -1,-1 -20,0 -1,1Z"/>
<path onmouseover="hoverPath(evt)" onmouseout="recoverPath(evt)" fill="rgb(184,205,235)" d="M  172,251l 0,2 -1,1 0,1 23,0 0,-11 -4,0 -1,1 -1,0 -1,1 -1,0 -1,1 -2,0 -1,1 -1,0 -1,1 -1,0 -1,1 -1,0 -1,1 -2,0 -1,-1 -1,1 1,-3 0,-6 -1,-1 0,-1 -1,-1 0,-10 -1,-1 0,-2 -1,-1 0,-4 -1,-1 0,-1 -1,-1 0,1 1,2 0,5 1,1 0,10 1,1 0,6 1,1 0,2 -1,1 -1,1 2,0 2,-1 -1,3Z"/>
<path onmouseover="hoverPath(evt)" onmouseout="recoverPath(evt)" fill="rgb(242,240,230)" d="M  191,49l 5,0 1,-1 6,0 1,-1 10,0 0,-1 1,-1 0,-16 -1,-1 0,-1 -13,0 0,1 -1,1 -2,0 -1,-1 0,-3 -1,0 -1,1 -25,0 -1,1 -25,0 -1,1 -11,0 0,3 1,1 0,1 8,0 1,-1 7,0 1,1 6,0 1,-1 12,0 1,1 0,2 -1,1 -4,0 0,1 -1,1 0,7 4,0 1,1 0,2 1,0 1,1 12,0 1,1 5,0 1,-1Z"/>
<path onmouseover="hoverPath(evt)" onmouseout="recoverPath(evt)" fill="rgb(243,242,233)" d="M  200,171l 0,10 1,1 46,0 1,1 0,-15 -28,0 -1,1 -16,0 0,1 -1,1Z"/>
<path onmouseover="hoverPath(evt)" onmouseout="recoverPath(evt)" fill="rgb(253,253,253)" d="M  237,28l 0,-1 -1,-1 0,-1 -1,-1 -33,0 -1,1 -2,0 0,2 3,-2 13,0 1,1 0,1 1,1 0,18 -1,1 0,1 -1,1 2,0 1,1 0,-1 1,-1 0,0 1,-1 5,0 -5,-1 -1,0 -1,-1 0,-5 19,-12 -19,-3Z"/>
<path onmouseover="hoverPath(evt)" onmouseout="recoverPath(evt)" fill="rgb(242,240,230)" d="M  239,27l 0,13 -1,1 -2,0 -1,-1 0,-11 -1,-1 0,-1 -4,0 -1,-1 -1,1 -9,0 0,11 1,1 0,5 1,0 1,1 4,0 1,1 0,2 -1,1 -5,0 -1,1 0,10 23,0 0,-23 -1,-1 0,-10 -1,-1 -3,0 1,1Z"/>
<path onmouseover="hoverPath(evt)" onmouseout="recoverPath(evt)" fill="rgb(177,200,230)" d="M  250,191l 0,20 1,1 0,1 1,0 0,-40 -1,-1 0,-4 -1,0Z"/>
</svg>