<svg width="256" height="256" xmlns="http://www.w3.org/2000/svg"><script> 
var tempColor;
function hoverPath(evt){
obj = evt.target;
tempColor = obj.getAttribute("fill");
obj.setAttribute("fill","red");
//alert(tempColor);
//obj.setAttribute("stroke","red");}
function recoverPath(evt){
obj = evt.target;
obj.setAttribute("fill", tempColor);
//obj.setAttribute("stroke", tempColor);
}</script><path onmouseover="hoverPath(evt)" onmouseout="recoverPath(evt)" fill="rgb(244,243,235)" d="M  0,34l 0,101 49,0 1,1 23,0 0,-30 1,-1 0,-7 1,-1 0,-9 1,-1 2,0 0,-8 -1,-1 0,-10 1,-1 0,-11 1,-1 0,-10 -1,0 -1,-1 -10,0 -1,-1 -4,0 -1,-1 -3,0 -1,-1 -3,0 -1,-1 -3,0 -1,-1 0,-2 -2,0 -1,1 -5,0 -1,-1 -3,0 -1,-1 -3,0 -1,-1 0,-2 -3,0 -1,1 -6,0 -1,-1 0,-2 -10,0 -1,-1 -10,0Z"/>
<path onmouseover="hoverPath(evt)" onmouseout="recoverPath(evt)" fill="rgb(253,253,252)" d="M  42,252l 0,3 1,0 0,-2 1,-1 9,0 1,-1 7,0 1,-1 7,0 1,-1 8,0 1,-1 7,0 1,-1 2,0 2,-2 0,-2 1,-1 0,-11 -1,-1 0,-2 -1,-1 0,-3 1,-1 -2,0 -1,-1 -1,-1 0,-2 1,-1 -1,-1 -1,0 -1,-1 0,-2 -1,-1 -2,0 -1,-1 -1,-1 0,-2 -1,-1 0,-5 -1,-1 0,-30 -1,-1 0,-28 1,-1 77,0 1,1 0,1 1,1 0,2 -1,1 0,2 -1,1 0,4 -1,1 0,3 -1,1 0,1 -1,1 0,2 -1,1 -1,1 0,1 -1,1 0,1 -1,1 -1,1 -1,1 0,1 -1,1 -1,1 -1,1 -1,1 0,1 -2,2 -1,1 0,1 -1,1 -1,1 0,1 -1,1 -1,1 0,1 -1,1 0,1 -1,1 0,1 -1,1 0,2 -1,1 0,1 -1,1 0,2 -1,1 0,1 -3,3 -1,0 -1,1 -14,0 -1,1 -1,0 -1,1 0,1 -1,1 0,1 -1,1 0,6 1,1 0,7 1,1 0,6 1,0 0,-9 -1,-1 0,-3 1,-1 2,0 1,1 1,1 1,0 0,-1 -1,-1 -1,0 1,1 -3,-2 0,-7 1,-1 1,-1 12,0 1,-1 2,0 1,-1 1,0 1,-1 1,-1 1,-1 1,-1 0,-1 1,-1 0,-2 1,-1 0,-1 1,-1 0,-2 1,-1 0,-1 1,-1 0,-1 1,-1 0,-1 1,-1 1,-1 0,-1 1,-1 1,-1 0,-1 1,-1 1,-1 1,-1 0,-1 1,-1 1,-1 1,-1 1,-1 0,-1 1,-1 1,-1 0,-1 1,-1 1,-1 0,-1 1,-1 0,-1 1,-1 0,-1 1,-1 0,-1 1,-1 0,-3 1,-1 0,-4 1,-1 0,-7 1,-1 1,0 1,-1 33,0 1,1 1,1 0,1 1,1 0,5 1,1 0,2 1,1 0,4 -1,1 0,2 -1,1 0,1 -1,1 0,1 -1,1 0,1 -1,1 -1,1 0,1 -1,1 0,1 -1,1 0,1 -1,1 0,2 -1,1 0,6 -1,1 0,11 -1,1 0,10 -1,1 0,11 -1,1 0,1 1,1 0,2 1,1 0,1 1,1 1,1 1,1 1,1 1,1 1,1 1,1 1,1 1,0 1,1 1,1 1,0 1,1 1,1 1,1 1,0 1,1 1,1 1,1 1,1 1,1 1,1 0,1 1,1 0,7 1,0 0,-2 1,-1 0,-4 1,-1 0,-1 -1,-1 0,-1 -1,-1 -3,0 -1,-1 -1,-1 -1,-1 -1,-1 0,-1 -2,0 -1,-1 -1,-1 -1,0 -1,-1 -1,-1 -1,0 -1,-1 -1,-1 0,-1 -1,0 -1,-1 -1,-1 -1,-1 -1,-1 0,-2 1,-1 -2,0 -1,-1 0,-8 1,-1 0,-10 1,-1 0,-10 1,-1 0,-10 1,-1 0,-4 1,-1 2,0 -1,-1 0,-2 1,-1 2,0 0,-1 1,-1 -1,-1 0,-2 1,-1 0,-1 1,-1 0,-1 1,-1 0,-1 1,-1 0,-3 1,-1 0,-1 1,-1 2,0 1,-1 -1,-1 0,-3 1,-1 0,-2 1,-1 0,-1 1,-1 47,0 0,-4 -94,0 -1,-1 0,-10 -1,0 0,4 -1,1 0,4 -1,1 -1,1 -13,0 -1,-1 -64,0 -1,-1 0,-1 -1,-1 -1,-1 0,3 -1,1 -25,0 -1,-1 -48,0 0,4 70,0 1,1 3,0 1,1 0,3 1,1 0,27 1,1 0,28 1,1 0,5 1,1 0,1 1,1 0,1 1,1 1,1 0,2 1,0 1,1 1,1 1,1 0,1 1,1 0,1 1,1 0,1 1,1 0,1 1,1 0,2 1,1 0,11 -1,1 0,1 -1,1 -1,1 -2,0 -1,1 -6,0 -1,1 -8,0 -1,1 -8,0 -1,1 -8,0 -1,1 -8,0 -1,1 118,-125 1,0 0,-5 1,-1 0,-6 1,-1 0,-5 1,-1 0,-6 1,-1 0,-5 1,-1 0,-5 1,-1 0,-6 1,-1 0,-5 1,-1 0,-6 1,-1 0,-5 1,-1 0,-5 1,-1 0,-6 1,-1 0,-5 1,-1 0,-5 1,-1 0,-1 1,-1 4,0 -4,-1 0,-8 1,-1 0,-6 1,-1 0,-8 1,-1 0,-6 1,-1 0,-3 -1,0 0,2 -1,1 0,7 -1,1 0,7 -1,1 0,6 -1,1 0,5 -1,1 0,5 -1,1 0,5 -1,1 0,6 -1,1 0,5 -1,1 0,6 -1,1 0,5 -1,1 0,5 -1,1 0,6 -1,1 0,5 -1,1 0,6 -1,1 0,5 -1,1 0,5 -1,1 0,6 -1,1 0,5 -1,1 0,6 -118,125Z"/>
<path onmouseover="hoverPath(evt)" onmouseout="recoverPath(evt)" fill="rgb(241,240,229)" d="M  79,146l 0,24 1,1 0,30 1,1 0,5 1,1 0,2 1,1 2,0 1,1 1,1 0,2 1,0 1,1 1,1 0,2 -1,1 1,1 2,0 1,1 0,2 -1,1 0,1 1,1 0,2 1,1 0,13 -1,1 0,2 -1,1 -1,1 -1,1 -2,0 -1,1 -7,0 -1,1 -8,0 -1,1 -7,0 -1,1 -7,0 -1,1 -9,0 0,1 46,0 0,-3 1,-1 0,-2 1,-1 0,-1 -1,1 -13,-102 15,99 0,-1 1,-2 0,-15 1,-1 0,-11 1,-1 0,-11 1,-1 0,-11 1,-1 0,-11 1,-1 0,-11 1,-1 0,-11 1,-1 0,-2 1,-1 1,-1 1,-1 1,-1 1,-1 0,-1 1,-1 19,0 1,1 25,0 1,1 1,-1 -1,-1 0,-1 -75,0 0,1 15,100 -15,-99Z"/>
<path onmouseover="hoverPath(evt)" onmouseout="recoverPath(evt)" fill="rgb(187,214,141)" d="M  109,148l -5,5 0,2 -1,1 0,11 -1,1 0,11 -1,1 0,11 -1,1 0,11 -1,1 0,11 -1,1 0,11 -1,1 0,15 -1,1 0,2 -1,1 0,2 -1,1 0,2 -1,1 0,2 35,0 0,-4 1,-1 0,-5 1,-1 0,-5 -5,0 -1,1 0,4 -1,1 -1,1 -1,0 -1,1 -9,0 -1,-1 -2,0 -1,-1 -1,-1 -1,-1 0,-15 -1,-1 0,-7 -1,-1 0,-8 1,-1 0,-1 1,-1 0,-1 1,-1 1,-1 1,0 1,-1 14,0 1,-1 1,0 1,-1 1,-1 0,-1 1,-1 0,-2 1,-1 0,-1 1,-1 0,-2 1,-1 0,-1 1,-1 0,-1 1,-1 0,-1 1,-1 1,-1 0,-1 1,-1 1,-1 0,-1 1,-1 1,-1 1,-1 0,-1 1,-1 3,-3 0,-1 1,-1 1,-1 1,-1 0,-1 1,-1 0,-1 1,-1 1,-1 0,-2 1,-1 0,-1 1,-1 0,-3 1,-1 0,-4 1,-1 -1,0 -1,-1 -25,0 -1,-1 -16,0 -1,1Z"/>
<path onmouseover="hoverPath(evt)" onmouseout="recoverPath(evt)" fill="rgb(237,236,220)" d="M  167,147l 17,0 1,1 5,0 1,1 0,1 1,1 0,1 1,1 0,7 -1,1 0,8 -1,1 1,0 1,-2 0,0 1,-1 0,-1 1,-1 0,-1 1,-1 0,-1 1,-1 0,-2 1,-1 0,-2 -1,-1 0,-2 -1,-1 0,-5 -1,-1 0,-1 -1,-1 -31,0 -1,1 -1,0 0,2Z"/>
<path onmouseover="hoverPath(evt)" onmouseout="recoverPath(evt)" fill="rgb(188,214,142)" d="M  166,230l -2,0 0,1 -1,1 0,8 1,1 0,5 -1,1 1,1 0,7 45,0 0,-6 -1,-1 0,-1 -1,-1 -1,-1 -1,-1 -1,-1 -1,-1 -1,0 -1,-1 -1,-1 -1,-1 -1,0 -1,-1 -1,-1 -1,0 -1,-1 -1,-1 -1,-1 -1,-1 -1,-1 -1,-1 -1,-1 -1,-1 -1,-1 0,-1 -1,-1 0,-2 -1,-1 0,-3 1,-1 0,-11 1,-1 0,-10 1,-1 0,-11 1,-1 0,-6 1,-1 0,-2 1,-1 0,-1 1,-1 -1,0 -1,-1 0,-2 1,-1 0,-8 1,-1 0,-5 -1,-1 0,-1 -1,-1 0,-1 -5,0 -1,-1 -22,0 0,3 -1,1 0,4 -1,1 0,3 -1,1 0,1 -1,1 0,1 -1,1 0,1 -1,1 0,1 -1,1 -1,1 0,1 -1,1 -1,1 0,1 -1,1 -2,2 -1,1 0,1 -1,1 -1,1 -1,1 0,1 -1,1 -1,1 0,1 -1,1 -1,1 0,1 -1,1 0,1 -1,1 0,1 -1,1 0,2 -1,1 0,1 -1,1 0,2 -1,1 0,1 -1,1 -1,1 -1,1 -1,1 -1,1 -1,0 -1,1 -2,0 -1,1 -12,0 -1,1 0,5 2,0 1,1 1,1 0,1 2,0 1,1 1,1 1,1 1,1 1,1 0,1 1,1 0,4 1,1 0,2 5,0 1,-1 1,0 0,-3 1,-1 0,-3 1,-1 1,-1 1,0 0,-17 1,-1 0,-1 1,-1 1,-1 1,-1 0,-3 1,-1 0,-1 1,-1 1,-1 1,-1 1,0 2,-2 1,0 1,-1 1,0 0,-1 1,-1 0,-1 1,-1 1,-1 1,-1 1,0 0,-1 2,-2 1,-1 4,0 1,1 0,1 1,0 1,1 1,1 1,1 0,1 1,1 0,6 -1,1 -1,1 -1,1 -1,0 1,1 0,1 1,1 1,1 0,7 1,0 1,1 1,0 1,1 1,0 1,1 0,1 1,1 0,8 -1,1 -1,1 0,2 -1,1 -1,0 0,1 -1,1 -1,1 -1,1Z"/>
<path onmouseover="hoverPath(evt)" onmouseout="recoverPath(evt)" fill="rgb(244,243,235)" d="M  177,39l 0,0 -1,1 0,5 -1,1 0,5 -1,1 0,6 -1,1 0,5 -1,1 0,5 -1,1 0,6 -1,1 0,5 -1,1 0,6 -1,1 0,5 -1,1 0,5 -1,1 0,6 -1,1 0,5 -1,1 0,6 -1,1 0,5 -1,1 0,8 93,0 0,-137 -41,0 0,2 -1,1 0,2 1,1 0,2 1,1 0,2 -1,1 -1,1 -4,0 -1,-1 -1,0 0,1 -1,1 -1,0 -1,1 0,4 -2,2 -1,1 -1,1 -1,1 -2,2 -1,1 -2,0 -1,-1 0,-1 -8,0 -1,1 0,4 -1,1 -2,0 -1,-1 0,-1 -1,0 -1,-1 0,6 3,0 1,1 0,2 -1,1 -3,0 -1,1Z"/>
<path onmouseover="hoverPath(evt)" onmouseout="recoverPath(evt)" fill="rgb(244,243,235)" d="M  0,1l 0,27 11,0 1,1 10,0 1,1 0,2 4,0 1,-1 5,0 1,1 0,2 3,0 1,1 3,0 1,1 3,0 1,-1 4,0 1,1 0,2 3,0 1,1 3,0 1,1 3,0 1,1 4,0 1,1 10,0 1,1 1,0 1,1 0,11 1,-11 0,-10 -1,-1 0,-4 1,-1 0,-6 1,-1 0,-8 1,-1 0,-12 -83,0 -1,1Z"/>
<path onmouseover="hoverPath(evt)" onmouseout="recoverPath(evt)" fill="rgb(187,214,141)" d="M  1,220l -1,0 0,35 27,0 0,-1 -1,-1 0,0 -1,-1 -1,-1 -1,-1 -1,-1 0,-2 -1,-1 0,-7 -1,-1 0,-7 -1,-1 0,-8 -1,-1 0,-7 -1,-1 0,-7 -1,-1 0,-8 -1,-1 0,-4 -1,0 -1,-1 -1,-1 -1,0 -1,-1 -1,0 -1,-1 -1,1 -7,0 0,13 3,0 1,-1 2,0 1,-1 4,0 1,1 1,1 1,0 1,1 0,2 1,1 0,4 -1,1 0,1 -1,1 -1,1 -1,1 -2,0 0,1 -1,1 -1,0 -1,1 -1,0 -1,1 -1,0 -1,1Z"/>
<path onmouseover="hoverPath(evt)" onmouseout="recoverPath(evt)" fill="rgb(217,229,213)" d="M  7,203l -2,0 -1,1 -4,0 0,14 2,0 1,-1 1,0 1,-1 1,0 1,-1 1,0 0,-1 1,-1 2,0 1,-1 1,-1 0,-1 1,-1 0,-2 -1,-1 0,-2 -1,0 -1,-1 -1,-1 -2,0 -1,1Z"/>
<path onmouseover="hoverPath(evt)" onmouseout="recoverPath(evt)" fill="rgb(243,242,235)" d="M  24,246l 0,2 1,1 1,1 1,1 1,1 1,1 0,2 11,0 0,-5 1,-1 9,0 1,-1 8,0 1,-1 8,0 1,-1 8,0 1,-1 6,0 1,-1 2,0 1,-1 0,-1 1,-1 0,-9 -1,-1 0,-2 -1,-1 0,-1 -1,-1 0,-1 -1,-1 0,-1 -1,-1 0,-1 -1,-1 -1,-1 -1,0 -1,-1 0,-2 -1,-1 -1,-1 0,-1 -1,-1 0,-1 -1,-1 0,-5 -1,-1 0,-28 -1,-1 0,-27 -1,-1 0,-3 -3,0 -1,-1 -69,0 0,44 6,0 1,-1 2,0 1,1 1,0 1,1 1,0 1,1 1,1 1,0 1,1 0,4 1,1 0,8 1,1 0,7 1,1 0,7 1,1 0,8 1,1 0,7 1,1 0,7 1,1Z"/>
<path onmouseover="hoverPath(evt)" onmouseout="recoverPath(evt)" fill="rgb(244,243,235)" d="M  90,0l -4,0 0,13 -1,1 0,8 -1,1 0,6 -1,1 0,2 1,1 0,12 -1,1 0,10 -1,1 -2,0 0,11 -1,1 0,8 1,1 0,10 -1,1 -2,0 0,9 -1,1 0,6 1,1 0,27 1,1 1,1 0,1 64,0 1,1 11,0 1,-1 0,-4 1,-1 0,-4 1,-1 0,-6 1,-1 0,-5 1,-1 0,-6 1,-1 0,-5 1,-1 0,-5 1,-1 0,-6 1,-1 0,-5 1,-1 0,-6 1,-1 0,-5 1,-1 0,-5 1,-1 0,-6 1,-1 0,-5 1,-1 0,-6 1,-1 0,-5 1,-1 0,-5 1,-1 0,-5 1,-1 0,-6 1,-1 0,-7 1,-1 0,-7 1,-1 0,-1Z"/>
<path onmouseover="hoverPath(evt)" onmouseout="recoverPath(evt)" fill="rgb(231,239,214)" d="M  107,237l 0,5 1,1 1,1 2,0 1,1 7,0 1,-1 1,0 1,-1 0,-4 1,-1 1,-1 7,0 1,1 0,7 -1,1 0,5 -1,1 0,3 2,0 0,-7 1,-1 0,-6 1,-1 0,-7 1,-1 0,-4 1,-1 0,-1 -1,0 -1,1 0,3 -1,1 0,3 -1,1 -1,0 -1,1 -7,0 -1,-1 0,-2 -1,-1 0,-4 -1,-1 0,-1 -1,-1 -1,-1 -1,-1 -1,-1 -1,0 -1,1 -3,0 -1,-1 -1,-1 0,1 1,1 0,11 -1,1 -2,0Z"/>
<path onmouseover="hoverPath(evt)" onmouseout="recoverPath(evt)" fill="rgb(181,207,185)" d="M  146,199l 0,0 -1,1 0,2 -1,1 0,2 -2,2 -1,1 -1,1 0,16 -1,1 -1,0 0,2 -1,1 0,4 -1,1 0,7 -1,1 0,6 -1,1 0,6 25,0 0,-4 -1,-1 0,-7 -1,-1 0,-11 1,-1 0,-1 1,-1 2,-2 1,0 1,-1 1,-1 1,0 0,-1 1,-1 1,-1 0,-2 1,-1 0,-2 -1,-1 0,-1 -1,0 -1,-1 -1,0 -1,-1 -1,-1 -1,-1 0,-1 -1,-1 0,-3 1,-1 0,-1 -1,-1 0,0 -1,-1 -1,-1 0,-1 -1,-1 0,-2 1,-1 0,-1 1,-1 1,-1 1,0 1,-1 0,-1 -1,-1 0,0 -1,-1 0,-1 -2,0 0,1 -2,2 -1,1 0,1 -1,1 -1,0 0,1 -1,1 -1,1 -1,0 -1,1 -1,0 -2,2Z"/>
<path onmouseover="hoverPath(evt)" onmouseout="recoverPath(evt)" fill="rgb(253,253,253)" d="M  163,193l 0,0 -1,1 -1,0 -1,1 0,1 -1,1 1,1 0,1 1,1 1,1 1,1 0,3 -1,1 0,1 1,1 0,1 1,1 1,1 1,0 1,1 1,0 1,1 0,1 1,1 0,4 -1,1 0,2 -2,2 0,1 -1,1 -1,0 -2,2 -1,0 -2,2 0,1 -1,1 0,9 1,1 0,7 1,1 0,5 1,0 0,-6 -1,-1 0,-2 1,-1 0,-3 -1,-1 0,-10 1,-1 0,-1 -1,1 0,0 2,-37 1,35 1,0 1,-1 1,-1 -2,1 0,0 3,-3 1,0 0,-1 1,-2 1,-1 0,-6 -1,-1 0,-1 -1,0 -1,-1 -1,0 -1,-1 -1,0 -1,-1 0,-7 -1,-1 -1,-1 0,-1 -1,-1 0,-2 1,-1 1,0 1,-1 1,-1 0,-4 -1,-1 0,-1 -1,-1 -1,-1 -1,0 -1,-1 0,-1 -2,0 -1,1 0,0 -1,1 0,1 -1,1 -1,0 -1,1 -1,1 0,1 -1,1 0,1 -1,1 -1,0 -1,1 -1,0 -1,1 -1,1 -1,0 -2,2 0,1 -1,1 0,3 -1,1 -2,2 0,1 -1,1 0,16 1,0 0,-16 1,-1 1,-1 1,-1 1,-1 0,-2 1,-1 0,-2 1,-1 0,-1 -1,1 21,30 -1,-35 -12,0 1,-2 1,0 0,-1 1,-1 1,-1 1,-1 -2,1 -1,1 4,-4 3,0 2,1 0,1 1,1 0,0 1,1 0,3 -1,-5 0,7 -2,1 -1,2 0,0 1,2 0,0 -10,-6Z"/>
<path onmouseover="hoverPath(evt)" onmouseout="recoverPath(evt)" fill="rgb(240,239,229)" d="M  183,0l -1,0 0,4 -1,1 0,6 -1,1 0,8 -1,1 0,5 1,1 1,0 1,1 0,-3 2,-2 10,0 1,1 0,1 1,-1 1,-1 1,-1 1,-1 1,-1 2,-2 0,-4 1,-1 1,-1 1,0 0,-1 1,-1 3,0 1,1 2,0 1,-1 -1,-1 0,-2 -1,-1 0,-4 1,-1 0,-1Z"/>
<path onmouseover="hoverPath(evt)" onmouseout="recoverPath(evt)" fill="rgb(244,243,235)" d="M  209,146l 0,0 -1,1 0,2 -1,1 0,1 1,1 0,2 -1,1 -1,1 -2,0 0,1 -1,1 0,3 -1,1 0,1 -1,1 0,1 -1,1 0,1 -1,1 1,1 0,2 -1,1 0,1 -1,1 -2,0 1,1 0,2 -1,1 -2,0 0,4 -1,1 0,10 -1,1 0,10 -1,1 0,10 -1,1 0,6 2,0 1,1 0,2 -1,1 1,1 0,0 1,1 1,1 1,0 1,1 0,1 1,1 1,0 1,1 1,1 1,0 1,1 1,1 2,0 1,1 0,1 1,1 1,1 1,1 3,0 1,1 1,1 0,1 1,1 0,3 -1,1 0,4 -1,1 0,1 41,0 0,-110 -45,0 -1,1Z"/>
</svg>