<svg width="256" height="256" xmlns="http://www.w3.org/2000/svg"><script> 
var tempColor;
function hoverPath(evt){
obj = evt.target;
tempColor = obj.getAttribute("fill");
obj.setAttribute("fill","red");
//alert(tempColor);
//obj.setAttribute("stroke","red");}
function recoverPath(evt){
obj = evt.target;
obj.setAttribute("fill", tempColor);
//obj.setAttribute("stroke", tempColor);
}</script><path onmouseover="hoverPath(evt)" onmouseout="recoverPath(evt)" fill="rgb(241,240,228)" d="M  0,196l 0,20 2,0 1,1 1,0 1,1 2,0 1,-1 0,-2 1,-1 0,-2 1,-1 0,-2 1,-1 0,-2 1,-1 0,-3 1,-1 0,-3 -1,0 -1,-1 -2,0 -1,-1 -1,0 -1,-1 -2,0 -1,-1 -1,0 -1,-1 -1,0Z"/>
<path onmouseover="hoverPath(evt)" onmouseout="recoverPath(evt)" fill="rgb(243,243,236)" d="M  101,40l 0,2 -1,1 -1,0 0,7 1,1 0,8 1,1 0,9 1,1 0,2 23,0 1,1 28,0 1,1 39,0 1,1 5,0 1,1 1,0 1,1 1,1 3,0 1,1 0,2 8,0 1,-1 1,0 0,-3 1,-1 0,-1 1,-1 1,-1 1,-1 1,-1 2,0 1,-1 3,0 1,-1 7,0 1,1 1,1 0,1 1,1 1,1 2,0 1,1 11,0 0,-37 -10,0 -1,-1 -1,1 0,1 -1,1 -1,0 -1,1 -12,0 -1,1 -1,0 0,2 -1,1 -1,1 -8,0 -1,-1 -1,-1 0,-5 1,-1 1,-1 -4,0 -1,-1 -2,0 -1,-1 0,-2 -1,2 -9,0 -1,-1 -4,0 -1,-1 -5,0 -1,-1 -5,0 -1,-1 -5,0 -1,-1 -5,0 -1,-1 -4,0 -1,-1 -5,0 -1,-1 -5,0 -1,-1 -10,0 -1,-1 -10,0 -1,-1 -14,0 -1,-1 -3,0 -1,-1 -3,0 -1,-1 -7,0 -1,-1 -2,0 0,1 1,1 0,8 1,1 0,7 1,0 1,1 1,1Z"/>
<path onmouseover="hoverPath(evt)" onmouseout="recoverPath(evt)" fill="rgb(242,240,231)" d="M  0,5l 0,46 2,0 1,1 2,0 1,1 1,0 1,1 2,0 1,1 2,0 1,1 1,0 1,-1 4,0 1,1 2,0 0,-1 1,-1 0,-4 -1,-1 0,-1 -2,0 -1,-1 -1,0 -1,-1 -1,0 -1,-1 0,-2 1,-1 2,0 1,1 2,0 1,1 1,0 0,-2 1,-1 0,-6 1,-1 0,-3 -2,0 -1,-1 0,-2 1,-1 2,0 1,-1 0,-1 -1,-1 -2,0 -1,-1 -1,0 -1,-1 -1,1 0,2 -1,1 -3,0 -1,-1 -1,-1 0,-3 -1,-1 0,-2 1,-1 -2,0 -1,-1 0,-2 1,-1 7,0 1,1 6,0 1,1 3,0 1,1 1,0 1,1 1,1 0,2 -1,1 0,5 -1,1 0,10 -1,1 0,9 -1,1 0,10 -1,1 0,8 -1,1 0,18 1,0 1,1 0,2 2,0 1,-1 4,0 0,-7 1,-1 0,-18 1,-1 0,-11 1,-1 0,-10 1,-1 0,-8 1,-1 0,-7 1,-1 0,-1 1,-1 1,-1 0,-1 1,-1 0,-1 -1,-1 -1,-1 -1,0 -1,-1 -3,0 -1,-1 -2,0 -1,-1 -1,-1 -3,0 -1,1 -3,0 -1,-1 -3,0 -1,-1 -3,0 -1,-1 -3,0 -1,-1 -4,0 -1,-1 -5,0 -1,-1 -2,0 -1,1 11,21 1,1 0,2 -1,1 0,1 -1,1 -2,0 -1,-1 0,-2 1,-1 0,-1 1,-1 2,0 -11,-21Z"/>
<path onmouseover="hoverPath(evt)" onmouseout="recoverPath(evt)" fill="rgb(242,241,231)" d="M  14,240l -1,0 0,6 1,1 0,8 9,0 0,-7 -1,-1 0,-7 -1,-1 -3,0 -1,1Z"/>
<path onmouseover="hoverPath(evt)" onmouseout="recoverPath(evt)" fill="rgb(235,237,234)" d="M  82,153l -1,0 0,3 -1,1 0,3 -1,1 0,3 -1,1 0,1 -1,1 0,1 -1,1 0,2 -1,1 0,1 -1,1 0,1 -1,1 0,2 -1,1 0,1 -1,1 0,1 -1,1 0,1 -1,1 0,1 1,1 3,0 1,1 2,0 1,1 2,0 0,-4 1,-1 0,-12 1,-1 0,-12 1,-1Z"/>
<path onmouseover="hoverPath(evt)" onmouseout="recoverPath(evt)" fill="rgb(240,238,228)" d="M  87,204l 0,0 -1,1 0,5 -1,1 -2,0 -1,-1 0,-10 1,-1 0,-7 1,-1 0,-1 1,-1 0,-8 1,-1 0,-11 1,-1 0,-12 1,-1 0,-12 1,-1 0,-10 1,-1 0,-8 1,-1 0,-7 1,-1 0,-8 1,-1 0,-6 1,-1 0,-7 1,-1 0,-3 -1,0 -1,1 0,6 -1,1 0,2 -1,1 0,3 -1,1 0,2 -1,1 0,2 -1,1 0,4 -1,1 0,8 -1,1 0,6 1,1 0,6 1,1 0,3 -2,2 -1,1 -1,1 0,1 -1,1 0,3 -1,1 0,2 1,0 1,1 0,7 -1,1 0,12 -1,1 0,12 -1,1 0,4 -1,1 -4,0 -1,-1 -1,0 -1,1 -4,0 -1,1 -1,1 0,4 -1,1 0,3 -1,1 0,3 -1,1 0,1 1,1 0,1 1,1 0,1 1,1 1,1 1,1 1,1 1,0 1,1 2,0 1,1 3,0 1,1 1,0 0,-2 1,-1 2,0 1,1 0,7 -1,1 0,6 1,-1 5,0 1,1 7,0 1,1 8,0 1,1 10,0 1,1 3,0 1,1 0,1 7,0 1,1 0,15 -1,1 -1,1 -1,1 0,1 33,0 0,-6 1,-1 0,-10 1,-1 0,-6 1,-1 0,-6 1,-1 0,-7 -1,0 -1,-1 -3,0 0,5 -1,1 -2,0 -1,-1 0,-6 -2,0 -1,-1 -5,0 -1,-1 -4,0 -1,-1 -5,0 -1,-1 -5,0 -1,-1 -5,0 -1,-1 -4,0 -1,-1 -5,0 -1,-1 -5,0 -1,-1 -6,0 -1,-1 -5,0 -1,-1 -5,0 -1,1Z"/>
<path onmouseover="hoverPath(evt)" onmouseout="recoverPath(evt)" fill="rgb(242,241,233)" d="M  95,140l 0,0 -1,1 0,4 -1,1 0,12 -1,1 0,12 -1,1 0,4 -1,1 0,6 -1,1 0,6 -1,1 0,6 2,0 1,1 5,0 1,1 5,0 1,1 5,0 1,1 5,0 1,1 5,0 1,1 5,0 1,1 4,0 1,1 5,0 1,1 5,0 1,1 5,0 1,1 5,0 1,1 4,0 1,1 6,0 1,1 5,0 1,1 5,0 1,1 6,0 1,1 6,0 1,1 6,0 1,1 5,0 1,1 5,0 1,1 5,0 1,1 4,0 1,1 5,0 1,1 4,0 1,1 14,0 1,-1 2,0 1,-1 2,0 0,-69 -9,0 -1,-1 -6,0 -1,1 -10,0 -1,-1 -9,0 -1,-1 -1,0 -1,-1 0,-1 -9,0 -1,-1 0,-2 -9,0 0,2 -1,1 -9,0 -1,1 -11,0 -1,-1 0,-2 1,-1 -3,0 -1,-1 -7,0 -1,1 -12,0 -1,-1 -10,0 -1,-1 0,-1 -2,0 -1,-1 -7,0 -1,1 -3,0 -1,-1 0,-1 -6,0 -1,-1 0,-8 -1,8 -13,0 -1,1 -5,0 -1,1 27,4 1,1 2,0 1,1 2,0 1,1 2,0 1,1 2,0 1,1 2,0 1,1 2,0 1,1 2,0 1,1 3,0 1,1 2,0 1,1 1,0 1,1 3,0 1,1 1,0 1,1 3,0 1,1 2,0 1,1 2,0 1,1 2,0 1,1 2,0 1,1 2,0 1,1 2,0 1,1 2,0 1,1 2,0 1,1 1,0 1,1 0,11 -1,1 0,8 -1,1 0,8 -1,1 0,4 -1,1 -9,0 -1,-1 -12,0 -1,-1 -9,0 -1,-1 -10,0 -1,-1 -10,0 -1,-1 -11,0 -1,-1 -6,0 -1,-1 0,-11 1,-1 0,-10 1,-1 0,-9 1,-1 0,-8 1,-1 0,-8 1,-1 1,-1 2,0 1,1 2,0 -27,-4 94,57 1,-1 0,-8 1,-1 0,-7 1,-1 0,-8 1,-1 0,-1 1,-1 2,0 1,1 1,0 1,1 2,0 1,1 2,0 1,1 2,0 1,1 2,0 1,1 2,0 1,1 2,0 1,1 2,0 1,1 2,0 1,1 2,0 1,1 2,0 1,1 1,0 1,1 3,0 1,1 1,0 1,1 2,0 1,1 1,0 1,1 0,10 -1,1 0,8 -1,1 0,1 -1,1 -11,0 -1,-1 -10,0 -1,-1 -11,0 -1,-1 -11,0 -1,-1 -2,0 -1,-1 0,-5 -94,-57Z"/>
<path onmouseover="hoverPath(evt)" onmouseout="recoverPath(evt)" fill="rgb(170,196,234)" d="M  107,19l 0,0 1,1 3,0 1,1 3,0 1,1 14,0 1,1 10,0 1,1 10,0 1,1 5,0 1,1 5,0 1,1 4,0 1,1 5,0 1,1 5,0 1,1 5,0 1,1 5,0 1,1 4,0 1,1 7,0 0,-1 1,-1 0,-3 -2,0 -1,-1 -5,0 -1,-1 -5,0 -1,-1 -5,0 -1,-1 -5,0 -1,-1 -5,0 -1,-1 -5,0 -1,-1 -4,0 -1,-1 -5,0 -1,-1 -6,0 -1,-1 -5,0 -1,-1 -5,0 -1,-1 -4,0 -1,-1 -7,0 -1,-1 -5,0 -1,-1 -7,0 -1,-1 -5,0 -1,-1 -6,0 -1,-1 -4,0 0,6 1,0 1,1 0,1 3,0 1,1Z"/>
<path onmouseover="hoverPath(evt)" onmouseout="recoverPath(evt)" fill="rgb(236,238,234)" d="M  118,145l 0,0 -1,1 0,8 -1,1 0,8 -1,1 0,9 -1,1 0,10 -1,1 0,9 6,0 1,1 11,0 1,1 10,0 1,1 10,0 1,1 9,0 1,1 12,0 1,1 7,0 0,-4 1,-1 0,-8 1,-1 0,-8 1,-1 0,-9 -1,0 -1,-1 -2,0 -1,-1 -2,0 -1,-1 -2,0 -1,-1 -2,0 -1,-1 -2,0 -1,-1 -2,0 -1,-1 -2,0 -1,-1 -2,0 -1,-1 -3,0 -1,-1 -1,0 -1,-1 -3,0 -1,-1 -1,0 -1,-1 -2,0 -1,-1 -3,0 -1,-1 -2,0 -1,-1 -2,0 -1,-1 -2,0 -1,-1 -2,0 -1,-1 -2,0 -1,-1 -2,0 -1,-1 -2,0 -1,-1 -2,0 -1,-1Z"/>
<path onmouseover="hoverPath(evt)" onmouseout="recoverPath(evt)" fill="rgb(171,197,237)" d="M  179,237l 2,0 1,1 2,0 0,-1 1,-1 1,-1 2,0 1,1 1,0 1,1 1,1 0,2 1,1 0,1 2,0 1,1 5,0 0,-1 -1,0 -1,-1 -1,0 -1,-1 -1,0 -1,-1 0,-7 1,-1 0,-5 -2,0 -1,-1 -6,0 -1,-1 -2,0 -1,1 0,9 -1,1 -1,1 -1,0 -1,1 -1,-1 -7,0 -1,-1 0,1 4,1 3,0 1,-1 1,1Z"/>
<path onmouseover="hoverPath(evt)" onmouseout="recoverPath(evt)" fill="rgb(242,241,233)" d="M  192,244l 0,0 -1,-1 0,-1 -1,-1 0,-2 -1,-1 -1,0 -1,-1 -1,1 0,1 -1,1 -4,0 -1,-1 -7,0 -1,-1 -3,0 -1,-1 0,-3 1,-1 2,0 1,1 8,0 1,-1 0,-9 1,-1 1,-1 4,0 1,1 6,0 1,1 2,0 1,1 0,7 -1,1 0,5 1,0 1,1 1,0 1,1 1,0 1,1 0,3 -1,1 -7,0 -1,-1 -2,0 -24,-12 0,-6 1,-1 -1,7 24,12 -23,-20 0,-4 1,-1 -1,5 23,20 -22,-26 1,-1 6,0 -7,1 22,26 -14,-26 6,0 1,1 -7,-1 14,26 -25,-8 0,5 -1,1 0,10 -1,1 0,2 44,0 0,-4 1,-1 0,-5 1,-1 11,0 1,1 6,0 1,1 0,9 25,0 0,-29 -3,0 -1,1 -3,0 -1,1 -6,0 -1,-1 -7,0 -1,-1 -5,0 -1,-1 -4,0 -1,-1 -5,0 -1,-1 -4,0 -1,-1 -6,0 -1,-1 -5,0 -1,-1 -5,0 -1,-1 -4,0 -20,17 25,8Z"/>
<path onmouseover="hoverPath(evt)" onmouseout="recoverPath(evt)" fill="rgb(172,198,237)" d="M  215,1l 0,0 1,1 3,0 1,1 2,0 1,1 3,0 1,1 2,0 1,1 3,0 1,1 2,0 1,1 3,0 1,1 2,0 1,1 3,0 1,1 2,0 2,-2 3,0 0,-4 -2,0 -1,1 -2,0 -1,1 -6,0 -1,-1 -2,0 -1,-1 -3,0 -1,-1 -2,0 -1,-1 -3,0 -1,-1 0,-2 -12,0 -1,1 -1,-1 -4,0 3,1 1,0 0,-1 1,1Z"/>
<path onmouseover="hoverPath(evt)" onmouseout="recoverPath(evt)" fill="rgb(245,244,237)" d="M  233,1l 0,0 1,1 2,0 1,1 3,0 1,1 2,0 1,1 4,0 1,-1 2,0 1,-1 3,0 0,-3 -21,0 -1,1 -1,-1 -2,0 0,1 2,0 0,-1 1,1Z"/>
<path onmouseover="hoverPath(evt)" onmouseout="recoverPath(evt)" fill="rgb(170,197,238)" d="M  253,21l -2,0 -1,-1 0,-2 1,-1 -1,-1 -14,0 -1,-1 -1,0 -1,-1 -2,0 -1,-1 -1,0 -1,-1 -1,0 -1,-1 -2,0 -1,-1 -2,0 -1,-1 -3,0 -1,-1 -3,0 -1,-1 -3,0 -1,-1 -3,0 -1,-1 -1,0 -1,-1 -1,0 -1,-1 -1,-1 0,-2 -28,0 0,1 3,0 1,1 3,0 1,1 2,0 1,1 3,0 1,1 3,0 1,1 2,0 1,1 3,0 1,1 3,0 1,1 3,0 1,1 2,0 1,1 3,0 1,1 2,0 1,1 3,0 1,1 2,0 1,1 3,0 1,1 3,0 1,1 3,0 1,1 1,0 1,1 4,0 1,1 3,0 1,1 4,0 1,1 1,0 1,1 1,0 1,1 1,0 0,-4 -1,0 -1,1Z"/>
<path onmouseover="hoverPath(evt)" onmouseout="recoverPath(evt)" fill="rgb(253,253,253)" d="M  0,78l 0,3 2,0 1,1 2,0 1,1 1,0 1,1 2,0 1,1 1,0 1,1 2,0 1,1 2,0 1,1 1,0 1,1 1,0 1,1 3,0 0,-22 -1,15 0,1 -1,1 -3,0 -1,-1 -2,0 -1,-1 -2,0 -1,-1 -1,0 -1,-1 -2,0 -1,-1 -1,0 -1,-1 -2,0 -1,-1 -2,0 -1,-1 -1,1Z"/>
<path onmouseover="hoverPath(evt)" onmouseout="recoverPath(evt)" fill="rgb(241,240,232)" d="M  0,86l 0,99 2,0 1,1 1,0 1,1 2,0 1,1 2,0 1,1 1,0 1,1 2,0 0,-1 1,-1 0,-2 1,-1 0,-2 1,-1 0,-2 1,-1 0,-4 1,-1 0,-9 1,-1 0,-14 1,-1 0,-23 1,-1 0,-2 1,-1 3,0 1,1 0,-10 1,-1 2,0 1,-1 0,-1 -5,0 -1,-1 0,-17 -4,0 -1,-1 -1,0 -1,-1 -1,0 -1,-1 -2,0 -1,-1 -2,0 -1,-1 -1,0 -1,-1 -2,0 -1,-1 -1,0 -1,-1 -2,0 -1,-1 -1,0Z"/>
<path onmouseover="hoverPath(evt)" onmouseout="recoverPath(evt)" fill="rgb(241,240,229)" d="M  1,222l -1,0 0,33 9,0 0,-4 -1,-1 0,-10 -1,-1 0,-4 -1,-1 0,-3 -1,-1 0,-6 -1,-1 -2,0 -1,-1Z"/>
<path onmouseover="hoverPath(evt)" onmouseout="recoverPath(evt)" fill="rgb(170,196,236)" d="M  12,230l 0,4 1,1 0,3 3,0 1,-1 5,0 1,1 1,1 0,7 1,1 0,8 34,0 0,-15 1,-1 0,-6 1,-1 0,-4 1,-1 0,-4 1,-1 8,0 1,1 3,0 1,1 3,0 0,-4 -1,0 -1,-1 -3,0 -1,-1 -2,0 -1,-1 -1,0 -1,-1 -1,-1 -1,-1 -1,-1 -1,-1 0,-1 -1,-1 0,-1 -1,-1 0,-3 1,-1 0,-3 1,-1 0,-3 1,-1 0,-4 1,-1 1,-1 1,-1 4,0 -4,-1 0,0 -1,-1 0,-3 1,-1 0,-1 1,-1 0,-1 1,-1 0,-1 1,-1 0,-2 1,-1 0,-1 1,-1 0,-1 1,-1 0,-2 1,-1 0,-1 1,-1 0,-1 1,-1 0,-3 1,-1 0,-3 1,-1 0,-3 1,-1 0,-3 1,-1 0,-3 1,-1 0,-1 1,-1 1,-1 1,-1 1,-1 0,-1 -1,-1 0,-6 -1,-1 0,-8 1,-1 0,-8 1,-1 0,-4 1,-1 0,-2 1,-1 0,-2 1,-1 0,-3 1,-1 0,-2 1,-1 0,-6 1,-1 1,-1 2,0 0,-7 1,-1 0,-9 -1,-1 0,-8 -1,-1 0,-9 -1,-1 0,-9 -1,-1 0,-5 -1,-1 0,-14 -1,-1 0,-7 -1,-1 -6,0 -1,-1 -4,0 -1,1 -3,0 -1,-1 -2,0 -1,-1 -2,0 -1,-1 -1,-1 -1,-1 0,-1 -1,-1 0,-2 -64,0 0,2 4,0 1,1 5,0 1,1 4,0 1,1 3,0 1,1 3,0 1,1 3,0 1,1 1,0 1,-1 5,0 1,1 1,1 2,0 1,1 3,0 1,1 1,0 1,1 1,1 1,1 0,3 -1,1 0,1 -1,1 -1,1 0,1 -1,1 0,7 -1,1 0,8 -1,1 0,10 -1,1 0,11 -1,1 0,18 -1,1 0,33 -1,1 0,25 -1,1 0,32 -1,1 0,4 -1,1 0,2 -1,1 0,2 -1,1 0,2 -1,1 0,2 -1,1 0,2 -1,1 0,2 -1,1 0,2 -1,1 0,2 -1,1 0,2 -1,1 0,2 -1,1 0,3 -1,1 0,2 -1,1 0,2 -1,1 0,2 -1,1 0,2 -1,1 0,2 -1,1 -1,1 -3,0 -1,-1 -1,0 -1,1Z"/>
<path onmouseover="hoverPath(evt)" onmouseout="recoverPath(evt)" fill="rgb(243,242,234)" d="M  81,227l 0,-4 1,-1 0,-5 -1,3 0,2 -1,4 1,1 -6,-1 -1,-1 -3,0 -1,-1 -6,0 0,4 -1,1 0,4 -1,1 0,6 -1,1 0,14 16,0 0,-3 2,-2 5,0 -1,-1 0,-8 1,-1 0,-7 1,-1 1,-1 -1,0 -1,1 -2,0 -7,-6 6,1 -5,-1 5,1Z"/>
<path onmouseover="hoverPath(evt)" onmouseout="recoverPath(evt)" fill="rgb(249,250,249)" d="M  87,183l 0,0 1,-1 0,-6 1,-1 0,-4 1,-1 0,-12 1,-1 0,-12 1,-1 0,-4 1,-1 0,-1 1,-1 6,0 -7,-1 0,-11 1,-1 0,-8 1,-1 0,-7 1,-1 0,-7 1,-1 0,-7 1,-1 0,-7 1,-1 0,-7 1,-1 0,-4 -1,-1 0,-9 -1,-1 0,-8 -1,-1 0,-9 1,-1 0,-1 -1,0 -1,-1 0,-7 -1,-1 0,-8 -1,-1 0,-4 -1,0 0,13 1,1 0,5 1,1 0,9 1,1 0,9 1,1 0,8 1,1 0,11 -1,1 0,12 -1,1 0,7 -1,1 0,6 -1,1 0,8 -1,1 0,7 -1,1 0,8 -1,1 0,10 -1,1 0,12 -1,1 0,12 -1,1 0,5 1,-5 0,0 1,-13 1,-13 -4,39Z"/>
<path onmouseover="hoverPath(evt)" onmouseout="recoverPath(evt)" fill="rgb(243,242,234)" d="M  103,77l -2,0 0,7 -1,1 0,7 -1,1 0,7 -1,1 0,7 -1,1 0,7 -1,1 0,8 -1,1 0,9 6,0 1,1 12,0 0,-7 1,-1 0,-8 1,-1 0,-7 -1,-1 0,-9 1,-1 19,0 0,-2 1,-1 11,0 2,2 0,6 1,0 1,1 8,0 1,1 0,1 1,0 1,1 9,0 1,1 8,0 1,1 9,0 1,1 7,0 1,-1 7,0 1,1 2,0 1,1 0,3 7,0 1,-1 8,0 1,-1 7,0 1,1 10,0 1,1 0,1 2,0 1,1 6,0 0,-40 -7,0 -1,1 -24,0 -1,1 -2,0 -1,1 -1,0 -1,1 -10,0 -1,-1 -4,0 -1,-1 -2,0 -1,-1 -13,0 -1,-1 -17,0 -1,-1 -32,0 -1,-1Z"/>
<path onmouseover="hoverPath(evt)" onmouseout="recoverPath(evt)" fill="rgb(227,227,224)" d="M  162,18l 2,0 1,1 4,0 1,1 5,0 1,1 5,0 1,1 5,0 1,1 5,0 1,1 5,0 1,1 5,0 1,1 2,0 1,1 0,4 1,-3 0,0 1,-1 3,0 1,1 6,0 1,1 2,0 1,1 1,0 1,-1 3,0 1,1 5,0 1,1 4,0 1,1 5,0 1,1 4,0 1,1 2,0 0,-8 -2,0 -1,-1 -1,0 -1,-1 -1,0 -1,-1 -4,0 -1,-1 -3,0 -1,-1 -4,0 -1,-1 -1,0 -1,-1 -3,0 -1,-1 -3,0 -1,-1 -3,0 -1,-1 -2,0 -1,-1 -3,0 -1,-1 -2,0 -1,-1 -3,0 -1,-1 -2,0 -1,-1 -3,0 -1,-1 -3,0 -1,-1 -3,0 -1,-1 -2,0 -1,-1 -3,0 -1,-1 -3,0 -1,-1 -2,0 -1,-1 -3,0 -1,-1 -3,0 -1,-1 0,-2 -31,0 0,1 4,0 1,1 5,0 1,1 3,0 1,1 3,0 1,1 3,0 1,1 4,0 1,1 3,0 1,1 4,0 1,1 3,0 1,1 3,0 1,1 2,0 1,1 4,0 1,1 2,0 1,1 3,0 1,1 4,0 1,1 2,0 1,1 3,0 1,1 0,2 -1,1 -6,0 -1,-1 -5,0 -1,-1 -6,0 -1,-1 -3,0 -1,-1 -5,0 -1,-1 -4,0 -1,-1 -6,0 -1,-1 -4,0 -1,-1 -3,0 -1,-1 -7,0 -1,-1 -4,0 -1,-1 -5,0 -1,-1 -5,0 -1,-1 -5,0 -1,-1 -6,0 -1,-1 -5,0 -1,-1 -5,0 -1,-1 -5,0 -1,-1 -3,0 -1,1 -5,0 -1,-1 -5,0 -1,-1 0,-2 -20,0 0,1 1,1 0,1 1,1 1,1 2,0 1,1 2,0 1,1 1,0 1,-1 6,0 1,1 6,0 1,1 1,1 0,0 1,-1 6,0 1,1 6,0 1,1 5,0 1,1 7,0 1,1 5,0 1,1 7,0 1,1 4,0 1,1 5,0 1,1 5,0 1,1 6,0 1,1Z"/>
<path onmouseover="hoverPath(evt)" onmouseout="recoverPath(evt)" fill="rgb(236,238,234)" d="M  196,171l -1,0 -1,1 0,8 -1,1 0,7 -1,1 0,8 -1,1 0,3 2,0 1,1 11,0 1,1 11,0 1,1 10,0 1,1 9,0 0,-1 1,-1 0,-8 1,-1 0,-8 -1,0 -1,-1 -2,0 -1,-1 -1,0 -1,-1 -3,0 -1,-1 -1,0 -1,-1 -2,0 -1,-1 -2,0 -1,-1 -2,0 -1,-1 -2,0 -1,-1 -2,0 -1,-1 -2,0 -1,-1 -2,0 -1,-1 -2,0 -1,-1 -2,0 -1,-1 -2,0 -1,-1Z"/>
<path onmouseover="hoverPath(evt)" onmouseout="recoverPath(evt)" fill="rgb(234,236,231)" d="M  197,134l -1,0 0,8 10,0 1,1 0,2 9,0 1,1 0,1 1,0 1,1 9,0 1,1 8,0 1,-1 7,0 1,-1 1,0 0,-10 -10,0 -1,-1 -13,0 -1,-1 -12,0 -1,-1Z"/>
<path onmouseover="hoverPath(evt)" onmouseout="recoverPath(evt)" fill="rgb(236,238,234)" d="M  212,246l 0,5 -1,1 0,3 17,0 0,-8 -6,0 -1,-1Z"/>
<path onmouseover="hoverPath(evt)" onmouseout="recoverPath(evt)" fill="rgb(170,197,238)" d="M  223,74l -1,1 -1,1 0,1 -1,1 0,1 1,0 1,-1 24,0 1,-1 -4,0 -1,-1 -2,0 -1,-1 -1,-1 -1,-1 0,-1 -1,-1 -5,0 -1,1 -3,0 -1,1 -2,0 -1,1Z"/>
<path onmouseover="hoverPath(evt)" onmouseout="recoverPath(evt)" fill="rgb(242,241,231)" d="M  0,55l 0,20 2,0 1,1 2,0 1,1 2,0 1,1 1,0 1,1 2,0 1,1 1,0 1,1 2,0 1,1 2,0 1,1 1,0 0,-1 1,-1 0,-14 1,-1 0,-4 -1,0 -1,-1 -2,0 -1,-1 -2,0 -1,-1 -1,0 -1,-1 -2,0 -1,-1 -2,0 -1,-1 -2,0 -1,-1 -1,0 -1,-1 -2,0 -1,-1 -1,0Z"/>
<path onmouseover="hoverPath(evt)" onmouseout="recoverPath(evt)" fill="rgb(254,254,254)" d="M  0,219l 0,1 2,0 1,1 2,0 1,1 1,1 0,6 1,1 0,3 1,1 0,4 1,1 0,10 1,1 0,5 1,0 0,-7 -1,-1 0,-11 -1,-1 0,-4 -1,-1 0,-8 1,-1 0,-2 1,-1 0,-2 1,-1 0,-2 1,-1 0,-2 1,-1 0,-2 1,-1 0,-3 1,-1 0,-3 1,-1 0,-2 1,-1 0,-5 1,-1 0,-2 1,-1 0,-2 1,-1 0,-2 1,-1 0,-4 1,-1 0,-8 1,-1 0,-13 1,-1 0,-25 1,-1 0,-2 -1,0 0,2 -1,1 0,23 -1,1 0,14 -1,1 0,9 -1,1 0,4 -1,1 0,2 -1,1 0,2 -1,1 0,2 -1,1 0,1 -1,1 -4,0 -1,-1 -1,0 -1,-1 -2,0 -1,-1 -2,0 -1,-1 -1,0 -1,-1 -1,0 0,4 2,0 1,1 1,0 1,1 2,0 1,1 1,0 1,1 2,0 1,1 1,0 1,1 0,5 -1,1 0,3 -1,1 0,2 -1,1 0,2 -1,1 0,2 -1,1 0,2 -1,1 -1,1 -4,0 -1,-1 -1,0 -1,-1 -1,1Z"/>
<path onmouseover="hoverPath(evt)" onmouseout="recoverPath(evt)" fill="rgb(251,250,248)" d="M  23,59l 1,0 1,1 1,0 1,1 0,-3 1,-1 0,-10 1,-1 0,-9 1,-1 0,-10 1,-1 0,-5 1,-1 -1,-1 -1,0 -1,-1 -3,0 -1,-1 -6,0 -1,-1 -5,0 3,1 0,2 -1,1 1,1 0,3 1,1 1,0 0,-2 1,-1 1,-1 2,0 1,1 1,0 1,1 2,0 1,1 1,1 0,3 -1,1 -1,1 -2,0 3,1 0,5 -1,1 0,6 -1,1 0,2 -1,1 0,2 1,1 0,6 -1,1 0,1 -1,1 -1,1 1,-13 -2,0 -1,-1 -1,0 4,1 -1,13 -2,-1 -1,0 -1,-1 -2,0 2,1 0,0 8,6Z"/>
<path onmouseover="hoverPath(evt)" onmouseout="recoverPath(evt)" fill="rgb(238,238,228)" d="M  30,115l 0,12 -1,1 -2,0 0,25 -1,1 0,13 -1,1 0,8 -1,1 0,4 -1,1 0,2 -1,1 0,2 -1,1 0,2 -1,1 0,5 -1,1 0,2 -1,1 0,3 -1,1 0,3 -1,1 0,2 -1,1 0,2 -1,1 0,2 -1,1 0,2 -1,1 0,2 -1,1 0,4 4,0 1,1 1,0 1,-1 0,-2 1,-1 0,-2 1,-1 0,-2 1,-1 0,-2 1,-1 0,-2 1,-1 0,-3 1,-1 0,-2 1,-1 0,-2 1,-1 0,-2 1,-1 0,-2 1,-1 0,-2 1,-1 0,-2 1,-1 0,-2 1,-1 0,-2 1,-1 0,-2 1,-1 0,-2 1,-1 0,-4 1,-1 0,-32 1,-1 0,-25 1,-1 0,-24 -3,0 -1,1 -4,0 -1,-1 0,18 5,0 1,1 0,3 -1,1 -1,1 -1,0 -1,1Z"/>
<path onmouseover="hoverPath(evt)" onmouseout="recoverPath(evt)" fill="rgb(253,253,253)" d="M  85,199l 0,1 -1,1 0,8 1,-6 0,-1 1,-1 8,0 1,1 5,0 1,1 6,0 1,1 5,0 1,1 5,0 1,1 4,0 1,1 5,0 1,1 5,0 1,1 5,0 1,1 4,0 1,1 5,0 1,1 2,0 1,1 0,6 1,-6 5,0 1,1 1,0 1,1 0,9 -1,1 0,6 -1,1 0,6 -1,1 0,10 -1,1 0,5 1,0 0,-3 1,-1 0,-10 1,-1 0,-5 1,-1 0,-9 1,-1 0,-5 1,-1 0,-2 1,-1 9,0 0,-1 -5,0 -1,-1 -5,0 -1,-1 -6,0 -1,-1 -4,0 -1,-1 -5,0 -1,-1 -5,0 -1,-1 -5,0 -1,-1 -5,0 -1,-1 -4,0 -1,-1 -5,0 -1,-1 -5,0 -1,-1 -5,0 -1,-1 -5,0 -1,-1 -5,0 -1,-1 -5,0 -1,-1 -2,0 -1,-1 -1,1 94,16 0,1 6,0 1,1 6,0 1,1 5,0 1,1 5,0 1,1 6,0 1,1 4,0 1,1 5,0 1,1 4,0 1,1 5,0 1,1 7,0 1,1 4,0 1,-1 3,0 1,-1 4,0 0,-2 -1,0 -1,1 -2,0 -1,1 -16,0 -1,-1 -4,0 -1,-1 -5,0 -1,-1 -4,0 -1,-1 -5,0 -1,-1 -5,0 -1,-1 -5,0 -1,-1 -6,0 -1,-1 -6,0 -1,-1 -6,0 -94,-16 0,-3 1,0 0,-5 -1,2Z"/>
<path onmouseover="hoverPath(evt)" onmouseout="recoverPath(evt)" fill="rgb(242,241,233)" d="M  124,103l -7,0 0,7 1,1 0,9 -1,1 0,7 1,1 0,8 6,0 1,1 0,1 1,0 1,-1 9,0 1,1 2,0 1,1 0,1 10,0 1,1 10,0 1,-1 9,0 1,1 10,0 1,1 0,2 -1,1 2,0 1,-1 9,0 0,-12 1,-1 15,0 1,1 12,0 1,1 13,0 1,1 10,0 1,1 0,12 -1,1 7,0 0,-28 -7,0 -1,-1 -2,0 -1,-1 0,-1 -10,0 -1,-1 -5,0 -1,1 -8,0 -1,1 -9,0 -1,-1 0,-3 -2,0 -1,-1 -5,0 -1,1 -9,0 -1,-1 -9,0 -1,-1 -8,0 -1,-1 -9,0 -1,-1 -1,0 -1,-1 0,-1 -8,0 -1,-1 -1,0 -1,-1 0,-6 -1,-1 -9,0 0,2 -1,1Z"/>
<path onmouseover="hoverPath(evt)" onmouseout="recoverPath(evt)" fill="rgb(171,197,237)" d="M  125,75l 0,0 -1,-1 -22,0 0,1 32,0 1,1 32,0 1,1 17,0 1,1 13,0 1,1 2,0 1,1 3,0 -5,-2 -1,0 -1,-1 -5,0 -1,-1 -25,0 -34,-1Z"/>
<path onmouseover="hoverPath(evt)" onmouseout="recoverPath(evt)" fill="rgb(238,235,225)" d="M  128,243l 0,-6 -7,0 -1,-1 0,-1 -1,1 -2,0 -1,-1 0,-1 -10,0 -1,-1 -8,0 -1,-1 -6,0 -1,1 -2,0 -1,1 0,7 -1,1 0,6 1,1 0,2 -1,1 -5,0 -1,1 0,2 46,0 0,-2 3,-3Z"/>
<path onmouseover="hoverPath(evt)" onmouseout="recoverPath(evt)" fill="rgb(172,198,237)" d="M  186,15l 0,0 1,1 3,0 1,1 6,0 1,1 5,0 1,1 4,0 -4,-1 0,0 -3,-1 -3,0 -2,-1 -3,0 -1,-1 -2,0 -1,-1 -2,0 -1,1 -2,-2 -2,0 -1,-1 -3,0 -1,-1 -3,0 -1,-1 -4,0 -1,-1 -3,0 -1,-1 -4,0 -1,-1 -3,0 -1,-1 -3,0 -1,-1 -3,0 -1,-1 -5,0 -1,-1 -4,0 -1,-1 0,-2 -48,0 0,1 5,0 1,1 3,0 1,-1 5,0 1,1 5,0 1,1 5,0 1,1 5,0 1,1 6,0 1,1 5,0 1,1 5,0 1,1 5,0 1,1 4,0 1,1 7,0 1,1 3,0 1,1 4,0 1,1 6,0 1,1 4,0 1,1 3,0 0,-2 2,2Z"/>
<path onmouseover="hoverPath(evt)" onmouseout="recoverPath(evt)" fill="rgb(176,201,237)" d="M  245,35l 1,1 9,0 -4,-1 -4,0 -1,-1 -1,1 -3,1 -1,-2 -1,-1 -4,0 -1,-1 -5,0 -1,-1 -1,0 -1,1 -3,0 -1,-1 -2,0 -1,-1 -6,0 -1,-1 -1,0 -1,1 0,2 -1,1 0,1 2,0 1,1 7,0 1,1 0,2 -1,1 -3,0 -1,1 0,3 1,1 6,0 1,-1 0,-2 1,-1 1,0 1,-1 12,0 1,-1 1,0 0,-1 1,-1 3,-1Z"/>
<path onmouseover="hoverPath(evt)" onmouseout="recoverPath(evt)" fill="rgb(244,243,237)" d="M  254,11l -1,0 -1,1 -1,1 -4,0 -1,-1 -3,0 -1,-1 -2,0 -1,-1 -3,0 -1,-1 -2,0 -1,-1 -3,0 -1,-1 -2,0 -1,-1 -3,0 -1,-1 -2,0 -1,-1 -3,0 -1,-1 -2,0 -1,-1 -2,0 -1,-1 0,-1 -7,0 0,1 1,1 1,0 1,1 1,0 1,1 3,0 1,1 3,0 1,1 3,0 1,1 3,0 1,1 2,0 1,1 2,0 1,1 1,0 1,1 1,0 1,1 2,0 1,1 1,0 1,1 14,0 1,1 1,1 0,2 2,0 0,-6 -1,-1Z"/>
</svg>