<svg width="256" height="256" xmlns="http://www.w3.org/2000/svg"><script> 
var tempColor;
function hoverPath(evt){
obj = evt.target;
tempColor = obj.getAttribute("fill");
obj.setAttribute("fill","red");
//alert(tempColor);
//obj.setAttribute("stroke","red");}
function recoverPath(evt){
obj = evt.target;
obj.setAttribute("fill", tempColor);
//obj.setAttribute("stroke", tempColor);
}</script><path onmouseover="hoverPath(evt)" onmouseout="recoverPath(evt)" fill="rgb(239,237,230)" d="M  59,12l -1,1 -1,1 -1,1 0,1 1,1 0,3 1,1 0,2 1,1 0,1 1,1 0,1 1,1 0,1 1,1 0,1 1,1 0,1 1,1 0,1 1,1 0,1 1,1 0,1 1,1 0,1 1,1 0,1 1,1 0,2 1,1 1,-1 0,0 1,-1 2,0 1,-1 1,0 1,-1 4,0 1,1 0,2 1,1 0,2 -1,1 0,8 1,0 1,-1 0,-1 1,-1 1,0 0,-1 3,-3 2,0 1,1 0,-5 1,-1 2,0 1,1 0,-4 1,-1 1,0 1,-1 1,-1 3,-3 0,-1 1,-1 1,0 1,-1 1,-1 1,-1 0,-1 -2,0 -1,-1 -11,0 -1,-1 0,-1 -1,-1 -2,0 -1,1 -3,0 -1,-1 -1,0 -1,-1 -1,0 -1,-1 -1,0 -1,-1 -1,-1 0,-1 -2,0 -1,-1 -1,-1 -1,-1 -2,-2 -1,-1 0,-1 -1,0 -1,-1 -1,0 -1,-1 -1,0 -1,-1 -1,0 -1,-1 -2,0 -1,1Z"/>
<path onmouseover="hoverPath(evt)" onmouseout="recoverPath(evt)" fill="rgb(236,238,234)" d="M  68,220l 0,6 -1,1 0,15 -1,1 0,8 4,0 1,1 20,0 0,-12 1,-1 0,-15 1,-1 0,-2 -3,0 -1,-1 -18,0 -1,-1 -1,1Z"/>
<path onmouseover="hoverPath(evt)" onmouseout="recoverPath(evt)" fill="rgb(244,243,235)" d="M  147,8l 0,-1 1,-1 0,-4 1,-1 0,-1 -6,0 0,5 -1,1 0,2 -1,1 0,3 -1,1 0,2 -1,1 0,2 -1,1 0,3 -1,1 0,2 -1,1 2,0 1,-1 3,0 1,1 7,0 1,1 6,0 1,1 7,0 1,1 6,0 1,1 7,0 1,1 6,0 1,1 7,0 1,1 7,0 1,1 6,0 1,1 7,0 1,1 5,0 1,1 5,0 0,-3 1,-1 0,-2 1,-1 0,-3 1,-1 0,-2 1,-1 0,-3 1,-1 0,-3 1,-1 0,-3 1,-1 0,-3 1,-1 0,-3 1,-1 0,-3 -72,0 0,8 -1,1 0,7 -1,1 0,4 -1,1 -8,0 -1,-1 -7,0 -1,-1 -1,-1 0,-3 1,-1 0,-7 48,21 -1,-1 -7,0 -1,-1 -7,0 -1,-1 -3,0 -1,-1 0,-5 1,-1 0,-5 1,-1 0,-5 1,-1 1,-1 7,0 1,1 7,0 1,1 7,0 1,1 2,0 1,1 0,8 -1,1 0,5 -1,1 0,3 -1,1 -7,0 -48,-21Z"/>
<path onmouseover="hoverPath(evt)" onmouseout="recoverPath(evt)" fill="rgb(236,238,234)" d="M  149,40l 0,0 -1,1 0,6 -1,1 0,8 1,1 16,0 0,-3 1,-1 0,-7 1,-1 0,-3 -1,0 -1,-1 -10,0 -1,-1Z"/>
<path onmouseover="hoverPath(evt)" onmouseout="recoverPath(evt)" fill="rgb(235,237,233)" d="M  150,148l 0,4 -1,1 0,6 -1,1 0,5 -1,1 0,1 2,0 1,1 8,0 1,-1 0,-6 1,-1 0,-7 1,-1 0,-2 -1,0 -1,-1 0,-2 -1,2 -5,0 -1,-1Z"/>
<path onmouseover="hoverPath(evt)" onmouseout="recoverPath(evt)" fill="rgb(236,238,234)" d="M  179,8l -1,1 0,5 -1,1 0,5 -1,1 0,3 3,0 1,1 7,0 1,1 7,0 1,1 5,0 0,-3 1,-1 0,-5 1,-1 0,-6 -2,0 -1,-1 -7,0 -1,-1 -7,0 -1,-1Z"/>
<path onmouseover="hoverPath(evt)" onmouseout="recoverPath(evt)" fill="rgb(243,242,235)" d="M  239,73l 0,0 -1,1 0,6 -1,1 0,1 -1,1 -8,0 -1,-1 0,-8 1,-1 0,-3 -1,0 -1,-1 -7,0 -1,-1 0,-9 1,-1 0,-6 1,-1 0,-1 1,-1 5,0 1,1 10,0 1,1 2,0 1,1 0,8 -1,1 0,6 -1,1 0,5 1,-24 -1,-1 -8,0 -1,-1 -5,0 -1,-1 -6,0 -1,-1 -7,0 -1,-1 -6,0 -1,-1 -7,0 -1,-1 -6,0 -1,-1 -7,0 -1,-1 -6,0 -1,-1 -7,0 -1,-1 -6,0 -1,-1 -7,0 -1,-1 -6,0 -1,-1 -6,0 -1,1 -2,0 -1,-1 0,-1 -4,0 -1,-1 -7,0 -1,-1 -7,0 -1,-1 -1,0 0,2 -4,4 -1,0 0,1 -1,1 -1,1 -1,1 -1,1 -1,1 -1,1 -1,0 0,13 -1,1 -2,0 -1,-1 0,-9 -1,10 -2,0 -1,-1 0,-4 -1,1 0,0 -1,1 0,1 -1,1 -1,0 0,1 -1,1 -1,1 -3,0 -1,-1 0,-10 1,-1 -1,-1 0,-2 -2,0 -1,1 -1,0 -1,1 -2,0 -1,1 -1,1 -2,0 -1,-1 2,2 0,1 3,0 1,1 0,1 1,1 0,1 1,1 0,4 1,0 1,1 1,1 0,3 1,1 0,2 1,1 0,1 1,1 0,1 1,1 0,1 1,1 0,1 1,1 0,2 1,1 0,1 1,1 0,1 1,1 0,1 1,1 0,1 1,1 0,3 1,0 1,1 1,0 0,-2 1,-1 4,0 1,1 0,3 6,0 1,1 3,0 1,-1 4,0 1,1 0,1 1,0 1,1 7,0 1,1 4,0 1,-1 4,0 1,1 0,1 1,0 1,1 6,0 1,-1 6,0 1,1 3,0 1,1 0,1 1,0 1,1 7,0 1,1 4,0 1,-1 3,0 1,1 0,1 2,0 1,1 7,0 1,1 1,0 0,-1 1,-1 2,0 1,1 3,0 1,1 0,1 1,0 1,1 7,0 1,1 5,0 1,-1 2,0 0,-1 1,-1 3,0 1,1 5,0 1,1 1,1 0,3 2,0 0,-1 1,-1 2,0 1,1 3,0 1,1 0,1 1,-1 2,0 1,1 0,1 3,0 1,-1 6,0 1,1 2,0 0,-1 1,-1 3,0 0,-62 -8,0 -1,-1 -6,0 -1,24 -107,-36 1,1 8,0 1,1 1,0 1,1 0,11 -1,1 0,5 -1,1 -1,1 -5,0 -1,-1 -9,0 -1,-1 -2,0 -1,-1 0,-4 1,-1 0,-6 1,-1 0,-5 2,-2 6,0 107,36 -94,-21 0,-5 1,-1 0,-6 1,-1 1,-1 6,0 1,1 9,0 -19,13 94,21 -94,-20 0,4 1,1 1,1 -2,-6 94,20 -91,-14 17,0 1,-1 0,0 -18,1 91,14 -73,-16 0,-2 1,-1 -1,3 73,16 -73,-33 1,0 1,1 0,5 -1,1 0,5 -1,-12 73,33Z"/>
<path onmouseover="hoverPath(evt)" onmouseout="recoverPath(evt)" fill="rgb(245,244,237)" d="M  0,1l 0,4 4,0 1,1 6,0 1,1 16,0 1,-1 4,0 0,-2 -1,-1 0,-3 -31,0 -1,1Z"/>
<path onmouseover="hoverPath(evt)" onmouseout="recoverPath(evt)" fill="rgb(246,235,145)" d="M  0,9l 0,4 4,0 1,1 6,0 1,1 4,0 1,1 0,8 1,-4 0,-4 1,-1 8,0 1,-1 13,0 1,1 1,1 3,0 1,1 0,3 -1,1 0,1 1,1 0,2 1,1 0,1 1,1 0,1 1,1 0,1 1,1 0,1 1,1 0,1 1,1 0,2 1,1 0,1 1,1 0,1 1,1 0,1 1,1 0,1 1,1 0,1 1,1 0,1 1,1 0,1 1,1 0,1 1,1 0,2 -1,1 0,2 3,0 1,1 0,2 1,1 0,1 1,1 0,-1 -1,-2 0,-6 1,-1 2,0 0,-1 -1,-1 0,-3 -1,-1 -1,-1 0,-2 1,-1 0,-1 -1,-1 0,-1 -1,-1 0,-1 -1,-1 0,-1 -1,-1 0,-1 -1,-1 0,-1 -1,-1 0,-1 -1,-1 0,-1 -1,-1 0,-1 -1,-1 0,-1 -1,-1 0,-1 -1,-1 0,-2 -1,-1 0,-3 -1,-1 0,-3 1,-1 1,-1 1,-1 0,-1 1,-1 5,0 1,1 1,0 1,1 1,0 1,1 1,0 1,1 1,0 1,1 0,1 1,1 2,2 1,1 1,1 2,0 1,1 0,1 1,1 1,0 1,1 1,0 1,1 1,0 1,1 1,0 1,-1 4,0 1,1 0,-2 1,-1 0,-2 -5,0 -1,-1 -2,0 -1,-1 -1,0 -1,-1 -1,0 -1,-1 -2,0 -1,-1 0,-2 -1,-1 -1,-1 -2,-2 -1,-1 -1,-1 -1,0 -1,-1 -1,-1 -1,0 -1,-1 -2,0 -1,-1 -2,0 -1,-1 -4,0 -1,-1 0,-2 -23,0 0,2 1,1 0,4 -1,1 -4,0 -1,1 -18,0 -1,-1 -6,0 -1,-1 -3,0Z"/>
<path onmouseover="hoverPath(evt)" onmouseout="recoverPath(evt)" fill="rgb(243,242,235)" d="M  0,117l 0,86 8,0 1,1 20,0 1,1 27,0 1,1 20,0 1,1 20,0 1,1 33,0 1,1 1,0 0,-3 -1,-1 0,-1 -1,-1 0,-1 -1,-1 0,-1 -1,-1 0,-1 -1,-1 0,-1 -1,-1 0,-1 -1,-1 0,-1 -1,-1 0,-1 -1,-1 0,-1 -1,-1 0,-1 -1,-1 0,-1 -1,-1 0,-1 -1,-1 0,-1 -1,-1 0,-1 -1,-1 0,-1 -1,-1 0,-1 -1,-1 -1,-1 0,-1 -1,-1 0,-1 -1,-1 0,-1 -1,-1 0,-1 -1,-1 0,-1 -1,-1 0,-1 -1,-1 -1,-1 0,-1 -1,-1 0,-1 -1,-1 0,-1 -1,-1 0,-1 -1,-1 0,-1 -1,-1 0,-1 -1,-1 0,-1 -1,-1 0,-1 -1,-1 -1,-1 0,-1 -1,-1 0,-1 -1,-1 0,-1 -1,-1 0,-1 -1,-1 0,-1 -1,-1 0,-1 -1,-1 0,-1 -1,-1 0,-1 -1,-1 0,-1 -1,-1 0,-1 -1,-1 0,-1 -1,-1 0,-1 -1,-1 0,-1 -1,-1 0,-1 -1,-1 0,-2 -1,-1 0,-1 -1,-1 0,-1 -1,-1 0,-1 -1,-1 0,-1 -1,-1 0,-1 -1,-1 0,-1 -1,-1 0,-1 -1,-1 0,-1 -1,-1 0,-1 -1,-1 0,-2 -2,0 -1,-1 0,-3 -3,0 -1,-1 -4,0 0,2 -1,1 -11,0 -1,-1 0,-2 -11,0 -1,-1 -5,0 -1,-1 -1,0 -1,-1 0,-1 -1,2 -2,0 -1,-1 0,-1 -1,-1 -2,0 0,1 -1,1 -3,0 -1,-1 -5,0 -1,-1 -5,0 -1,-1 -3,0 -1,-1 0,-1 -1,0 -1,1 -3,0Z"/>
<path onmouseover="hoverPath(evt)" onmouseout="recoverPath(evt)" fill="rgb(238,237,230)" d="M  132,118l 0,0 -1,1 -2,0 0,3 -1,1 -2,0 0,3 2,0 1,1 0,3 1,1 0,4 3,0 1,1 5,0 1,1 6,0 1,1 8,0 0,-3 1,-1 2,0 0,-4 1,-1 0,-4 1,-1 0,-3 -1,-1 0,-5 1,-1 2,0 1,-1 -2,0 -1,-1 -4,0 0,2 -1,1 -6,0 -1,-1 0,-2 -1,-1 0,-1 -5,0 -1,-1 -5,0 -1,-1 -3,0 1,1 0,4 -1,1Z"/>
<path onmouseover="hoverPath(evt)" onmouseout="recoverPath(evt)" fill="rgb(243,242,234)" d="M  149,205l 0,1 1,1 0,1 1,1 0,1 1,1 0,1 1,1 0,1 1,1 0,1 1,1 0,1 1,1 0,1 1,1 0,1 1,1 0,1 1,1 0,1 1,1 0,1 1,1 0,1 1,1 0,1 1,1 0,1 1,1 0,1 1,1 0,1 1,1 0,1 1,1 0,1 1,1 0,1 1,1 0,1 1,1 0,1 1,1 0,1 1,1 0,1 1,1 0,2 29,0 0,-3 1,-1 0,-6 1,-1 0,-6 1,-1 0,-8 1,-1 0,-11 1,-1 0,-17 -1,-1 0,-4 1,-1 0,-6 1,-1 0,-6 1,-1 0,-4 1,-1 3,0 1,1 0,6 -1,1 0,7 -1,1 0,2 1,1 4,0 1,1 9,0 1,1 10,0 1,1 9,0 1,1 6,0 0,-83 -2,0 0,1 -1,1 -4,0 -1,-1 -4,0 -1,1 -5,0 -1,-1 -3,0 -1,-1 0,-1 -3,0 -1,-1 0,1 -1,1 -4,0 -1,-1 0,-3 -1,-1 -5,0 -1,-1 -1,0 0,1 -1,1 -2,0 -1,1 -7,0 -1,-1 -7,0 -1,-1 -1,0 -1,-1 0,-1 -3,0 -1,-1 0,1 -1,1 -3,0 -1,-1 -7,0 -1,-1 -2,0 -1,-1 0,-1 -1,0 -1,1 -6,0 -1,-1 -7,0 -1,-1 -1,0 -1,-1 0,-1 -3,0 -1,-1 -4,0 -1,1 -8,0 -1,-1 -1,0 -1,-1 0,-1 -2,0 -1,1 -6,0 -1,-1 -7,0 -1,-1 -1,0 -1,-1 0,-1 -2,0 -1,1 -5,0 -1,-1 -6,0 -1,-1 0,-3 -2,0 0,2 -1,1 -1,0 0,1 1,1 0,1 1,1 0,1 1,1 0,1 1,1 0,1 1,1 0,2 1,1 0,1 1,1 0,1 1,1 0,1 1,1 0,1 1,1 0,1 1,1 0,1 1,1 0,1 1,1 0,1 1,1 0,1 1,1 0,1 1,1 0,1 1,1 0,1 1,1 1,0 1,1 0,-3 1,-1 1,0 1,-1 3,0 1,-1 2,0 1,1 0,3 1,1 0,1 1,1 1,0 0,-2 1,-1 0,-2 -2,0 -1,-1 0,-5 1,-1 2,0 0,-3 1,-1 2,0 0,-4 1,-1 0,-2 -1,-1 0,-2 1,-1 5,0 1,1 5,0 1,1 5,0 1,1 0,1 1,1 0,2 4,0 0,-2 1,-1 6,0 1,1 4,0 1,1 0,1 1,0 1,1 0,2 4,0 0,-2 1,-1 6,0 1,1 6,0 1,1 2,0 1,1 0,8 -1,1 0,2 -1,1 -1,0 0,1 -1,1 -2,0 0,2 1,1 0,5 -1,1 0,3 -1,1 0,2 -1,1 2,0 1,1 4,0 1,1 0,3 -1,1 -6,0 -1,-1 -4,0 -1,-1 -5,0 -1,-1 -5,0 -1,-1 -5,0 2,1 0,4 -1,1 0,7 -1,1 0,6 -1,1 -1,1 -10,0 -1,-1 -2,0 -1,-1 0,-3 1,-1 0,-5 1,-1 0,-6 1,-1 0,-4 1,-1 -3,0 -1,-1 -5,0 -1,-1 -5,0 -1,-1 -4,0 -1,-1 -4,0 -1,-1 -7,0 1,1 0,1 1,1 0,1 1,1 0,1 1,1 0,1 1,1 0,1 1,1 0,1 1,1 0,1 1,1 0,1 1,1 0,1 1,1 0,1 1,1 1,1 0,1 1,1 0,1 2,2 0,1 1,1 0,1 1,1 0,1 1,1 0,1 1,1 0,1 1,1 0,1 1,1 0,1 1,1 0,1 1,1 0,1 1,1 0,1 1,1 0,1 1,1 0,1 1,1 0,1 1,1 0,2 1,1 0,1 3,0 1,1Z"/>
<path onmouseover="hoverPath(evt)" onmouseout="recoverPath(evt)" fill="rgb(236,238,234)" d="M  151,1l 0,1 -1,1 0,4 -1,1 0,8 -1,1 0,1 1,1 7,0 1,1 6,0 0,-4 1,-1 0,-7 1,-1 0,-7 -13,0 -1,1Z"/>
<path onmouseover="hoverPath(evt)" onmouseout="recoverPath(evt)" fill="rgb(249,249,244)" d="M  156,140l -10,0 -1,-1 -6,0 -1,-1 -5,0 -1,-1 -3,0 -1,-1 0,-4 -1,3 -3,0 -1,-1 -1,-1 0,-1 -1,-1 0,-3 -1,1 -3,0 -1,1 -1,0 0,5 -1,1 -1,0 0,2 1,1 10,0 1,1 4,0 1,1 4,0 1,1 5,0 1,1 5,0 1,1 6,0 1,1 0,2 3,0 0,-1 1,-1 2,0 1,1 6,0 1,1 5,0 1,1 5,0 1,1 4,0 1,1 4,0 0,-1 -4,0 -1,-1 -4,0 -3,-1 0,-2 1,-1 4,0 0,-1 -5,1 -4,0 -1,-1 -6,0 -1,-1 -4,0 -1,-1 -2,0 -1,-1Z"/>
<path onmouseover="hoverPath(evt)" onmouseout="recoverPath(evt)" fill="rgb(240,239,230)" d="M  163,116l -2,0 0,3 1,1 0,5 -1,1 0,4 -1,1 0,4 -1,1 0,3 2,0 1,1 4,0 1,1 6,0 1,1 6,0 1,-1 2,0 0,-3 1,-1 0,-3 -1,-1 0,-4 1,-1 2,0 0,-1 1,-1 1,0 0,-2 1,-1 0,-6 -2,0 -1,-1 -6,0 -1,-1 -4,0 0,2 -1,1 -6,0 -1,-1 0,-2 -3,0 -1,1Z"/>
<path onmouseover="hoverPath(evt)" onmouseout="recoverPath(evt)" fill="rgb(254,254,254)" d="M  211,177l 0,3 -1,1 0,6 -1,1 0,6 -1,1 0,2 1,1 0,19 -1,1 0,11 -1,1 0,8 -1,1 0,6 -1,1 0,6 -1,1 0,2 3,0 0,-1 -1,-1 0,-6 1,-1 0,-6 1,-1 0,-8 1,-1 0,-11 1,-1 0,-20 1,-1 14,0 1,1 10,0 1,1 10,0 1,1 7,0 0,-1 -7,0 -1,-1 -9,0 -1,-1 -10,0 -1,-1 -9,0 -1,-1 -4,0 -1,-1 -1,-1 0,-4 1,-1 0,-7 1,-1 0,-2 -1,-1 1,-1Z"/>
<path onmouseover="hoverPath(evt)" onmouseout="recoverPath(evt)" fill="rgb(241,239,229)" d="M  212,201l 0,18 -1,1 0,11 -1,1 0,8 -1,1 0,6 -1,1 0,4 1,1 0,2 39,0 0,-6 -1,-1 0,-10 1,-1 2,0 0,-4 -1,-1 0,-7 1,-1 2,0 0,-8 -1,-1 0,-10 1,-1 3,0 0,-2 -8,0 -1,-1 -10,0 -1,-1 -10,0 -1,-1 -12,0 0,2 34,3 1,1 0,14 -1,1 -1,0 -1,1 -2,0 -1,-1 -12,0 -1,-1 -1,-1 0,-12 1,-1 1,-1 17,0 -34,-3Z"/>
<path onmouseover="hoverPath(evt)" onmouseout="recoverPath(evt)" fill="rgb(244,244,236)" d="M  246,0l -5,0 0,4 -1,1 0,3 -1,1 0,3 -1,1 0,3 -1,1 0,3 -1,1 0,3 -1,1 0,2 -1,1 0,3 -1,1 0,2 -1,1 0,3 8,0 1,1 6,0 1,1 5,0 1,1 1,0 0,-41Z"/>
<path onmouseover="hoverPath(evt)" onmouseout="recoverPath(evt)" fill="rgb(254,254,254)" d="M  1,206l 5,0 1,1 19,0 1,1 26,0 1,1 21,0 1,1 21,0 1,1 31,0 1,1 9,0 -1,-1 0,0 -1,-1 -1,1 -3,0 -1,-1 -33,0 -1,-1 -20,0 -1,-1 -20,0 -1,-1 -27,0 -1,-1 -20,0 -1,-1 -5,0 -1,1 -1,-1Z"/>
<path onmouseover="hoverPath(evt)" onmouseout="recoverPath(evt)" fill="rgb(247,236,139)" d="M  69,58l -1,0 0,5 1,1 0,4 -1,1 0,2 1,1 1,1 1,1 0,1 1,1 0,1 1,1 0,1 1,1 0,1 1,1 0,1 1,1 0,5 2,0 1,1 0,2 1,1 0,1 1,1 0,1 1,1 0,1 1,1 0,1 1,1 0,1 1,1 0,1 1,1 0,1 1,1 0,1 1,1 0,1 1,1 0,2 1,1 0,1 1,1 0,1 1,1 0,1 1,1 0,1 1,1 0,1 1,1 0,1 1,1 0,1 1,1 0,1 1,1 0,1 1,1 0,1 1,1 0,1 1,1 0,1 1,1 0,1 1,1 0,1 1,1 1,1 0,1 1,1 0,1 1,1 0,1 1,1 0,1 1,1 0,1 1,1 0,1 1,1 0,1 1,1 0,1 1,1 1,1 0,1 1,1 0,1 1,1 0,1 1,1 0,1 1,1 0,1 1,1 0,1 1,1 1,1 0,1 1,1 0,1 1,1 0,1 1,1 0,1 1,1 0,1 1,1 0,1 1,1 0,1 1,1 0,1 1,1 0,1 1,1 0,1 1,1 0,1 1,1 0,1 1,1 0,1 1,1 0,1 1,1 0,1 1,1 0,1 1,1 0,3 1,0 1,1 1,1 1,1 0,4 1,1 0,1 1,1 0,1 1,1 0,1 1,1 0,1 1,1 0,1 1,1 0,1 1,1 0,1 1,1 0,1 1,1 0,1 1,1 0,1 1,1 0,1 1,1 0,1 1,1 0,1 1,1 0,1 1,1 0,1 1,1 0,1 1,1 0,1 1,1 1,1 0,1 1,1 0,2 10,0 0,-1 -1,-1 0,-1 -1,-1 0,-1 -1,-1 0,-1 -1,-1 0,-1 -1,-1 0,-1 -1,-1 0,-1 -1,-1 0,-1 -1,-1 0,-1 -1,-1 0,-1 -1,-1 0,-1 -1,-1 0,-1 -1,-1 0,-1 -1,-1 0,-1 -1,-1 0,-1 -1,-1 0,-1 -1,-1 0,-1 -1,-1 0,-1 -1,-1 0,-1 -1,-1 0,-1 -1,-1 0,-1 -1,-1 0,-1 -1,-1 0,-1 -1,-1 0,-1 -1,-1 0,-7 -3,0 -1,-1 0,-1 -1,-1 0,-2 -1,-1 0,-1 -1,-1 0,-1 -1,-1 0,-1 -1,-1 0,-1 -1,-1 0,-1 -1,-1 0,-1 -1,-1 0,-1 -1,-1 0,-1 -1,-1 0,-1 -1,-1 0,-1 -1,-1 0,-1 -1,-1 0,-1 -1,-1 0,-1 -1,-1 -1,-1 0,-1 -1,-1 0,-1 -1,-1 -1,-1 0,-1 -1,-1 0,-1 -1,-1 0,-1 -1,-1 0,-1 -1,-1 0,-1 -1,-1 0,-1 -1,-1 0,-1 -1,-1 0,-1 -1,-1 0,-1 -1,-1 0,-1 -1,-1 0,-1 -1,0 -1,-1 -1,-1 0,-6 -1,0 -1,-1 -1,-1 0,-1 -1,-1 0,-1 -1,-1 0,-1 -1,-1 0,-1 -1,-1 0,-1 -1,-1 0,-1 -1,-1 0,-1 -1,-1 0,-1 -1,-1 0,-1 -1,-1 0,-1 -1,-1 0,-1 -1,-1 0,-1 -1,-1 0,-2 -1,-1 0,-1 -1,-1 0,-1 -1,-1 0,-1 -1,-1 0,-1 -1,-1 0,-2 -1,-1 -1,0 -1,-1 0,-3 -1,-1 0,-1 -1,-1 0,-1 -1,-1 0,-1 -1,-1 0,-1 -1,-1 0,-2 -1,-1 0,-1 -1,-1 0,-1 -1,-1 0,-1 -1,-1 0,-1 -1,-1 0,-2 -1,-1 0,-3 -1,-1 -1,0 -1,-1 0,-4 -1,-1 0,-1 -1,-1 0,-1 -2,0 1,1 0,3 -1,1Z"/>
<path onmouseover="hoverPath(evt)" onmouseout="recoverPath(evt)" fill="rgb(243,242,234)" d="M  112,15l 3,0 0,-11 1,-1 1,0 1,-1 0,-2 -59,0 0,1 4,0 1,1 2,0 1,1 2,0 1,1 1,0 1,1 1,1 1,0 1,1 1,1 1,1 1,1 1,1 1,1 1,1 0,2 2,0 1,1 1,0 1,1 1,0 1,1 2,0 1,1 5,0 1,1 3,0 0,-1 1,-1 1,-1 2,-2Z"/>
<path onmouseover="hoverPath(evt)" onmouseout="recoverPath(evt)" fill="rgb(236,238,234)" d="M  230,206l 0,0 -1,1 0,10 1,1 12,0 1,1 1,-1 1,0 0,-12Z"/>
<path onmouseover="hoverPath(evt)" onmouseout="recoverPath(evt)" fill="rgb(243,242,235)" d="M  16,79l 1,1 5,0 1,1 1,0 0,-1 1,-1 4,0 1,1 1,1 0,1 1,-2 2,0 1,1 0,1 1,0 1,1 5,0 1,1 11,0 1,1 0,2 9,0 0,-2 1,-1 6,0 1,1 2,0 -1,-1 0,-1 -1,-1 0,-1 -1,-1 0,-1 -1,-1 0,-1 -1,-1 0,-1 -1,-1 -1,-1 -1,-1 0,-3 -1,-1 0,-1 -1,-1 0,-1 -1,-1 0,-2 -3,0 -1,-1 0,-4 1,-1 -1,-1 0,-1 -1,-1 0,-1 -1,-1 0,-1 -1,-1 0,-1 -1,-1 0,-1 -1,-1 0,-1 -1,-1 0,-1 -1,-1 0,-1 -1,-1 0,-2 -1,-1 0,-1 -1,-1 0,-1 -1,-1 0,-1 -1,-1 0,-1 -1,-1 0,-1 -1,-1 0,-2 -1,-1 0,-3 1,-1 0,-1 -3,0 -1,-1 -1,-1 -11,0 -1,1 -8,0 0,4 -1,1 0,3 -1,1 -2,0 -1,-1 0,-8 -4,0 -1,-1 -6,0 -1,-1 -3,0 0,62 2,0 1,-1 3,0 1,1 0,1 3,0 1,1Z"/>
<path onmouseover="hoverPath(evt)" onmouseout="recoverPath(evt)" fill="rgb(242,242,234)" d="M  33,210l -7,0 -1,-1 -19,0 -1,-1 -5,0 0,47 159,0 0,-1 -1,-1 0,-1 -1,-1 -1,-1 0,-1 -1,-1 0,-1 -1,-1 0,-1 -1,-1 0,-1 -1,-1 0,-1 -1,-1 0,-1 -1,-1 0,-1 -1,-1 0,-1 -1,-1 0,-1 -1,-1 0,-1 -1,-1 0,-1 -1,-1 0,-1 -1,-1 0,-1 -1,-1 0,-1 -1,-1 0,-1 -1,-1 0,-1 -1,-1 0,-1 -1,-1 0,-2 -10,0 -1,-1 -31,0 -1,-1 -21,0 -1,-1 -21,0 -1,-1 -19,0 59,44 -22,0 -1,-1 -4,0 -1,-1 0,-10 1,-1 0,-15 1,-1 0,-6 1,-1 1,0 1,-1 2,0 1,1 18,0 1,1 3,0 1,1 0,4 -1,1 0,15 -1,1 0,12 -1,1 -59,-44Z"/>
<path onmouseover="hoverPath(evt)" onmouseout="recoverPath(evt)" fill="rgb(232,232,224)" d="M  104,18l 0,0 -1,1 -1,1 3,0 1,1 6,0 1,1 7,0 1,1 6,0 1,1 7,0 0,-2 1,-1 0,-3 1,-1 0,-2 1,-1 0,-2 1,-1 0,-3 1,-1 0,-2 1,-1 0,-4 -21,0 0,3 -1,1 -1,1 -1,0 0,11 -1,1 -11,0 -1,1Z"/>
<path onmouseover="hoverPath(evt)" onmouseout="recoverPath(evt)" fill="rgb(241,230,139)" d="M  114,24l -2,0 -1,-1 -6,0 -1,-1 -7,0 0,2 -1,1 0,2 -1,1 11,0 1,1 5,0 1,1 7,0 1,1 7,0 1,1 4,0 1,1 0,1 1,-1 8,0 1,1 6,0 1,1 7,0 1,1 6,0 1,1 7,0 1,1 6,0 1,1 7,0 1,1 6,0 1,1 7,0 1,1 6,0 1,1 7,0 1,1 6,0 1,1 5,0 1,1 8,0 1,1 6,0 1,1 7,0 0,-5 -2,0 -1,-1 -5,0 -1,-1 -6,0 -1,-1 -8,0 -1,-1 -6,0 -1,-1 -5,0 -1,-1 -7,0 -1,-1 -6,0 -1,-1 -7,0 -1,-1 -7,0 -1,-1 -6,0 -1,-1 -7,0 -1,-1 -6,0 -1,-1 -7,0 -1,-1 -6,0 -1,-1 -7,0 -1,-1 -1,0 -1,1 -4,0 -1,-1 0,-1 -7,0 -1,-1 -6,0 -1,-1Z"/>
<path onmouseover="hoverPath(evt)" onmouseout="recoverPath(evt)" fill="rgb(236,238,234)" d="M  127,39l 0,0 -1,1 0,5 -1,1 0,6 -1,1 0,2 2,0 1,1 9,0 1,1 3,0 1,-1 0,-5 1,-1 0,-9 -1,0 -1,-1 -8,0 -1,-1Z"/>
<path onmouseover="hoverPath(evt)" onmouseout="recoverPath(evt)" fill="rgb(236,238,234)" d="M  222,51l 0,1 -1,1 0,6 -1,1 0,7 7,0 1,1 1,0 1,1 0,5 -1,1 0,6 6,0 0,-1 1,-1 0,-6 1,-1 0,-5 1,-1 0,-6 1,-1 0,-6 -2,0 -1,-1 -10,0 -1,-1Z"/>
<path onmouseover="hoverPath(evt)" onmouseout="recoverPath(evt)" fill="rgb(236,234,224)" d="M  250,251l 0,4 5,0 0,-49 -2,0 0,8 1,1 0,10 -1,1 -2,0 0,5 1,1 0,6 -1,1 -2,0 0,8 1,1Z"/>
</svg>