<svg width="256" height="256" xmlns="http://www.w3.org/2000/svg"><script> 
var tempColor;
function hoverPath(evt){
obj = evt.target;
tempColor = obj.getAttribute("fill");
obj.setAttribute("fill","red");
//alert(tempColor);
//obj.setAttribute("stroke","red");}
function recoverPath(evt){
obj = evt.target;
obj.setAttribute("fill", tempColor);
//obj.setAttribute("stroke", tempColor);
}</script><path onmouseover="hoverPath(evt)" onmouseout="recoverPath(evt)" fill="rgb(173,199,238)" d="M  4,196l -1,0 0,1 -1,1 -2,0 0,13 3,0 1,1 1,0 1,1 2,0 1,1 1,0 1,1 2,0 1,1 1,0 1,1 2,0 1,1 1,0 1,1 2,0 1,1 2,0 1,1 2,0 1,1 1,0 1,-1 1,0 0,-1 1,-1 0,-1 1,-1 0,-2 -1,-1 0,-2 1,-1 2,0 1,-1 1,-1 2,0 0,-1 1,-1 0,-1 1,-1 0,-2 -2,0 -1,-1 -3,0 -1,-1 -3,0 -1,-1 -3,0 -1,-1 -3,0 -1,-1 -3,0 -1,-1 -3,0 -1,-1 -2,0 -1,-1 -3,0 -1,-1 -2,0 -1,1 -1,0 -1,1Z"/>
<path onmouseover="hoverPath(evt)" onmouseout="recoverPath(evt)" fill="rgb(242,241,231)" d="M  66,187l -1,0 0,8 -1,1 1,1 0,1 18,0 1,1 22,0 1,1 13,0 0,-1 1,-1 0,-3 1,-1 0,-6 -37,0 -1,-1Z"/>
<path onmouseover="hoverPath(evt)" onmouseout="recoverPath(evt)" fill="rgb(242,240,231)" d="M  65,203l -1,1 0,3 3,0 1,1 3,0 1,1 4,0 1,1 2,0 1,1 2,0 1,1 2,0 1,1 2,0 1,1 1,0 1,1 2,0 1,1 2,0 1,1 2,0 1,1 1,0 1,1 2,0 1,1 2,0 1,1 1,0 1,1 2,0 1,1 3,0 1,1 0,-2 1,-1 0,-6 1,-1 0,-6 1,-1 0,-2 -1,0 -1,-1 -16,0 -1,-1 -22,0 -1,-1 -12,0 -1,1Z"/>
<path onmouseover="hoverPath(evt)" onmouseout="recoverPath(evt)" fill="rgb(244,243,237)" d="M  78,20l 0,5 -1,1 0,8 -1,1 0,10 -1,1 0,11 -1,1 0,13 -1,1 0,14 -1,1 0,14 -1,1 0,16 -1,1 0,11 19,0 -1,-1 0,-18 -1,-1 0,-11 -1,-1 0,-4 1,-1 0,-18 -1,-1 0,-6 -1,-1 0,-11 1,-1 0,-11 1,-1 0,-2 1,-1 0,-2 1,-1 0,-2 1,-1 0,-1 1,-1 0,-2 1,-1 -1,-1 -1,-1 -3,0 -1,-1 -1,0 -1,-1 0,-2 -1,-1 0,-1 -1,0 -1,-1Z"/>
<path onmouseover="hoverPath(evt)" onmouseout="recoverPath(evt)" fill="rgb(173,199,238)" d="M  80,17l 0,1 2,0 1,1 1,0 1,1 0,1 1,1 0,2 1,0 1,1 3,0 1,1 1,1 1,1 0,2 -1,1 0,2 -1,1 0,1 -1,1 0,2 -1,1 0,2 -1,1 0,2 -1,1 0,11 -1,1 0,9 1,1 0,6 1,1 0,20 -1,1 0,2 1,1 0,11 1,1 0,18 1,1 0,2 3,0 0,-21 -1,-1 0,-7 1,-1 0,-11 1,-1 0,-1 -1,-1 0,-3 1,-1 0,-1 -1,-1 -1,-1 0,-14 1,-1 0,-13 1,-1 0,-5 1,-1 0,-2 1,-1 0,-2 1,-1 0,-1 1,-1 0,-1 1,-1 0,-2 1,-1 1,-1 1,-1 2,0 1,1 2,0 1,1 2,0 1,1 3,0 1,1 2,0 1,1 3,0 1,1 3,0 1,1 2,0 1,1 1,1 0,2 -1,1 0,2 -1,1 0,2 -1,1 0,1 -1,1 0,1 -1,1 0,5 1,1 0,3 1,1 0,2 1,1 0,1 1,1 1,1 0,1 1,1 0,1 1,1 0,1 1,1 0,8 -1,1 0,5 -1,1 0,1 5,0 1,1 1,-1 20,0 0,-16 1,-1 0,-29 -1,-1 0,-3 1,-1 0,-3 1,-1 1,-1 4,0 1,1 1,1 1,1 4,0 1,1 3,0 1,1 1,-1 1,-1 0,-10 1,-1 0,-26 -13,0 0,5 -1,1 0,2 1,1 3,0 1,1 5,0 1,1 0,10 -1,1 0,8 -1,1 0,2 -1,1 -1,1 -4,0 -1,-1 -2,0 -87,-17 83,16 -2,0 -1,-1 0,-32 -2,0 0,30 -1,1 -1,1 -2,0 -1,-1 0,-1 -2,0 -1,-1 -1,0 -1,1 -5,0 -1,-1 -5,0 -2,-2 0,-5 1,-1 0,-16 1,-1 0,-4 -57,0 0,10 -1,1 0,2 -1,1 0,2 1,0 84,17 -83,-16 78,22 0,17 -1,1 0,1 -1,1 0,7 1,1 0,20 -1,1 -17,0 -1,-1 0,-1 -1,-1 0,-11 -1,-1 0,-17 -1,-1 -1,-1 -1,-1 -1,0 -1,-1 0,-4 1,-1 0,-1 1,-1 2,0 0,-1 1,-1 0,-1 1,-1 0,-1 1,-1 0,-1 1,-1 0,-3 1,-1 9,0 1,1 5,0 1,1 1,1 0,1 1,1 0,1 -78,-22Z"/>
<path onmouseover="hoverPath(evt)" onmouseout="recoverPath(evt)" fill="rgb(244,243,237)" d="M  96,160l -1,1 0,2 1,1 0,2 -1,1 0,4 -1,1 -1,1 1,1 1,0 1,1 2,0 1,1 2,0 1,-1 1,0 0,-2 1,-1 0,-11 -1,-1 -1,0 -1,-1 -4,0 -1,1Z"/>
<path onmouseover="hoverPath(evt)" onmouseout="recoverPath(evt)" fill="rgb(243,242,233)" d="M  99,92l 0,8 -1,1 0,10 1,1 0,2 1,0 1,-1 12,0 1,1 15,0 1,-1 0,-2 -1,-1 0,-3 -1,-1 0,-8 1,-1 0,-2 -2,0 -1,-1 -4,0 -1,-1 -5,0 -1,-1 0,-2 -4,0 -1,1 -6,0 -1,-1 -4,0Z"/>
<path onmouseover="hoverPath(evt)" onmouseout="recoverPath(evt)" fill="rgb(243,242,234)" d="M  161,120l 0,9 25,0 0,-9 -14,0 -1,-1 -9,0 -1,1Z"/>
<path onmouseover="hoverPath(evt)" onmouseout="recoverPath(evt)" fill="rgb(178,203,209)" d="M  235,188l -2,2 -1,1 -1,0 0,1 -1,1 -1,1 8,0 1,1 17,0 0,-9 -17,0 -1,1 -1,0 -1,1Z"/>
<path onmouseover="hoverPath(evt)" onmouseout="recoverPath(evt)" fill="rgb(245,244,237)" d="M  240,4l 0,2 1,1 0,12 -1,1 0,5 -1,1 0,4 -1,1 0,2 -1,1 0,2 -1,1 19,0 0,-37 -32,0 0,1 10,0 1,1 5,0 1,1Z"/>
<path onmouseover="hoverPath(evt)" onmouseout="recoverPath(evt)" fill="rgb(241,239,231)" d="M  240,44l -1,-1 -2,0 0,8 1,0 1,1 0,2 1,1 0,4 -1,1 0,3 -1,1 -2,0 0,2 -1,1 0,2 1,1 0,4 -1,1 0,2 -1,1 -2,0 0,2 1,1 0,3 1,0 1,1 0,11 -1,1 0,5 1,1 0,7 -1,1 0,6 -1,1 0,3 -1,1 2,-1 2,0 1,-1 5,0 1,1 1,0 2,-2 1,-1 0,-1 1,-1 0,-1 1,-1 1,-1 0,-1 1,-1 4,0 0,-68 -11,0 -1,1Z"/>
<path onmouseover="hoverPath(evt)" onmouseout="recoverPath(evt)" fill="rgb(244,235,151)" d="M  0,137l 0,6 18,0 1,-1 26,0 1,-1 14,0 1,-1 3,0 1,1 18,0 1,-1 6,0 1,-1 3,0 1,1 35,0 1,1 0,0 1,-1 23,0 1,1 0,6 1,0 1,-1 0,-2 1,-1 0,-2 1,-1 32,0 1,-1 22,0 1,-1 4,0 1,1 6,0 1,1 1,0 1,1 1,-1 1,0 0,-1 1,-1 3,0 1,1 0,3 -1,1 0,2 2,0 0,-1 1,-1 2,0 0,-1 1,-1 5,0 1,-1 7,0 0,-11 -8,0 -1,1 -23,0 0,1 -1,1 -16,0 -1,-1 0,-1 -2,0 -1,1 -11,0 -1,1 -3,0 -1,-1 -25,0 0,1 -1,1 -4,0 -1,-1 0,-1 -5,0 -1,-1 -5,0 -1,-1 0,-3 -1,-1 -7,0 -1,-1 -1,0 -1,1 0,1 -1,1 -1,0 -1,1 -3,0 -1,-1 -1,1 -2,0 -1,-1 -1,-1 0,-2 -1,-1 0,-1 -3,0 -1,1 -4,0 -1,-1 -1,0 -1,-1 -4,0 0,1 -1,1 0,2 1,1 0,0 1,1 1,1 4,0 1,1 0,2 -1,1 -9,0 -1,1 -2,0 -1,-1 0,-15 1,-1 -1,-1 0,-2 -1,-1 0,-12 1,-1 0,-10 1,-1 5,0 -2,-1 0,0 -5,4 0,8 -1,4 0,5 1,5 0,19 -1,1 -5,0 -1,-1 -20,0 -1,-1 0,-13 1,-1 0,-16 1,-1 0,-14 1,-1 0,-14 1,-1 0,-13 1,-1 0,-11 1,-1 0,-10 1,-1 0,-8 1,-1 0,-11 1,-1 0,-2 1,-1 0,-9 -9,0 0,13 -1,1 0,12 -1,1 0,6 -1,1 -2,0 0,7 1,0 1,1 0,3 -1,1 -2,0 0,4 1,0 1,1 0,6 -1,1 -2,0 0,4 1,0 1,1 0,9 -1,1 -2,0 0,4 1,0 1,1 0,9 -1,1 -2,0 0,11 -1,1 0,14 -1,1 0,13 -1,1 -1,1 -1,1 -2,0 -1,1 -13,0 -1,1 -8,0 0,2 -1,1 -6,0 -1,-1 -1,0 -1,1 -19,0 -1,1Z"/>
<path onmouseover="hoverPath(evt)" onmouseout="recoverPath(evt)" fill="rgb(241,240,230)" d="M  2,145l -2,0 0,1 11,0 1,1 0,5 1,-6 6,0 1,-1 14,0 1,-1 13,0 1,1 0,0 1,-1 5,0 1,1 1,1 0,4 -1,1 0,4 -1,1 0,7 1,0 1,1 2,0 1,1 0,-22 -13,0 2,1 0,0 -47,1 32,-1 -14,0 -1,1 -16,0 9,1 0,0 22,-2 -32,1Z"/>
<path onmouseover="hoverPath(evt)" onmouseout="recoverPath(evt)" fill="rgb(243,242,235)" d="M  29,197l 0,0 1,1 3,0 1,1 3,0 1,1 3,0 1,1 2,0 1,1 1,0 0,-1 1,-1 -5,0 -1,-1 -3,0 -1,-1 -3,0 -1,-1 -2,0 -1,-1 -1,1 -3,-2 -3,0 -1,-1 -2,0 -1,-1 -3,0 -1,-1 -3,0 -1,-1 -2,0 -1,-1 0,-2 1,-1 0,-1 1,-1 1,0 1,-1 4,0 -4,-1 -3,0 -1,-1 -1,-1 -2,0 4,3 0,1 -1,2 -1,1 -1,1 -1,1 -1,1 -1,1 -1,1 -2,0 0,3 1,0 0,-1 1,-1 1,0 1,-1 1,0 1,-1 4,0 1,1 3,0 1,1 2,0 1,1 3,0 1,1 3,0 1,-1 3,2Z"/>
<path onmouseover="hoverPath(evt)" onmouseout="recoverPath(evt)" fill="rgb(179,202,236)" d="M  48,208l -1,1 0,1 -1,1 -1,1 0,1 -1,1 -1,0 0,2 -1,1 -1,1 -1,1 0,1 -1,1 0,2 -1,1 0,3 -1,1 0,3 -1,1 0,3 -1,1 -1,0 0,1 -1,1 0,1 -1,1 0,2 -1,1 0,2 -1,1 0,2 -1,1 -1,0 0,1 -1,1 -1,1 0,1 -1,1 -1,1 34,0 0,-19 1,-1 0,-2 -1,-1 0,-20 1,-1 -1,-1 0,-2 1,-1 0,-4 -1,-1 -1,0 -1,1 -1,0 -1,1 -4,0 0,1 -1,1 0,1 -1,1Z"/>
<path onmouseover="hoverPath(evt)" onmouseout="recoverPath(evt)" fill="rgb(244,243,236)" d="M  103,33l 0,0 -1,1 0,2 -1,1 0,1 -1,1 0,1 -1,1 0,2 -1,1 0,2 -1,1 0,5 -1,1 0,13 -1,1 0,12 1,1 1,1 0,3 -1,1 0,1 3,0 1,-1 2,0 1,1 1,0 1,1 0,2 4,0 1,-1 6,0 1,1 0,2 4,0 1,-1 8,0 0,-2 1,-1 0,-5 1,-1 0,-6 -1,-1 0,-1 -1,-1 0,-1 -1,-1 0,-1 -1,-1 -1,-1 0,-1 -1,-1 0,-2 -1,-1 0,-3 -1,-1 0,-7 1,-1 0,-1 1,-1 0,-1 1,-1 0,-2 1,-1 0,-2 1,-1 -1,-1 -2,0 -1,-1 -3,0 -1,-1 -3,0 -1,-1 -2,0 -1,-1 -3,0 -1,-1 -2,0 -1,-1 -2,0 -1,-1 -1,1Z"/>
<path onmouseover="hoverPath(evt)" onmouseout="recoverPath(evt)" fill="rgb(172,198,237)" d="M  131,97l 0,1 -1,1 0,6 1,1 0,3 1,1 0,4 -1,1 -1,1 -17,0 -1,-1 -10,0 -1,1 -1,0 1,1 53,0 1,1 1,1 0,10 1,1 0,1 2,0 0,-13 1,-1 12,0 1,1 13,0 -2,-1 -11,0 -14,-1 0,-20 -2,0 0,9 -1,1 0,9 -1,1 -1,0 -23,-19 19,19 -14,0 -1,-1 0,-1 -1,-1 0,-15 1,-1 0,-1 -4,0 19,20 -19,-19Z"/>
<path onmouseover="hoverPath(evt)" onmouseout="recoverPath(evt)" fill="rgb(243,242,234)" d="M  137,97l 0,1 -1,1 0,13 1,1 0,1 14,0 1,1 1,-1 1,0 0,-9 1,-1 0,-9 -18,0Z"/>
<path onmouseover="hoverPath(evt)" onmouseout="recoverPath(evt)" fill="rgb(174,200,238)" d="M  139,1l 0,4 -1,1 0,16 -1,1 0,3 1,1 5,0 1,1 3,0 1,-1 3,0 1,1 2,0 1,1 1,0 0,-29 -16,0 -1,1Z"/>
<path onmouseover="hoverPath(evt)" onmouseout="recoverPath(evt)" fill="rgb(245,244,237)" d="M  162,1l 0,30 2,0 1,1 5,0 1,1 2,0 1,-1 0,-2 1,-1 0,-8 1,-1 0,-8 -5,0 -1,-1 -3,0 -1,-1 -1,-1 0,-4 1,-1 0,-4 -3,0 -1,1Z"/>
<path onmouseover="hoverPath(evt)" onmouseout="recoverPath(evt)" fill="rgb(244,242,234)" d="M  162,37l 0,3 -1,1 0,1 1,1 0,31 -1,1 0,16 23,0 1,-1 1,0 0,-13 1,-1 0,-2 -1,-1 0,-2 1,-1 2,0 1,-1 1,-1 1,0 1,-1 1,-1 1,-1 0,-1 1,-1 2,0 1,-1 0,-1 1,-1 0,-1 1,-1 0,-7 1,-1 0,-6 1,-1 0,-5 1,-1 0,-6 1,-1 0,-7 1,-1 0,-5 1,-1 0,-5 1,-1 0,-10 -25,0 0,27 -1,1 0,10 -1,1 -1,1 -1,1 -2,0 -1,-1 -3,0 -1,-1 -4,0 -1,-1 -1,-1 -1,-1 -2,0 -1,1Z"/>
<path onmouseover="hoverPath(evt)" onmouseout="recoverPath(evt)" fill="rgb(242,242,232)" d="M  192,120l -1,0 0,9 10,0 1,-1 4,0 1,-1 0,-2 1,-1 0,-2 1,-1 0,-1Z"/>
<path onmouseover="hoverPath(evt)" onmouseout="recoverPath(evt)" fill="rgb(253,253,252)" d="M  194,69l -1,1 -1,0 -1,1 -1,1 -2,0 1,1 0,4 -1,1 0,13 -1,1 -1,0 -1,1 -25,0 -1,-1 -19,0 -1,1 -2,0 -1,-1 -13,0 5,1 2,0 1,1 4,0 1,-1 0,0 58,-24 -48,24 10,0 1,1 2,0 0,-1 27,1 1,0 1,1 0,10 1,1 0,2 -1,1 0,21 1,0 0,-11 1,-1 -1,-1 0,-7 1,-1 0,-5 -1,-1 0,-6 1,-1 0,-12 -1,-1 0,-3 1,-1 0,-4 1,-1 2,0 0,-1 1,-1 1,0 1,-1 0,-1 1,-1 0,-1 1,-1 1,-1 1,-1 1,0 0,-1 1,-1 1,-1 0,-2 1,-1 0,-6 1,-1 0,-6 1,-1 0,-6 1,-1 0,-6 1,-1 0,-7 1,-1 0,-5 1,-1 0,-5 1,-1 0,-7 1,-1 0,-3 -2,0 0,11 -1,1 0,5 -1,1 0,5 -1,1 0,7 -1,1 0,6 -1,1 0,5 -1,1 0,6 -1,1 0,7 -1,1 0,1 -1,1 0,1 -1,1 -1,1 -2,0 0,1 -1,1 -1,1 -49,25 48,-24Z"/>
<path onmouseover="hoverPath(evt)" onmouseout="recoverPath(evt)" fill="rgb(243,242,234)" d="M  197,73l -1,1 -1,0 0,1 -1,1 -2,0 0,4 -1,1 0,1 1,1 0,14 -1,1 0,4 1,1 0,7 -1,1 0,5 19,0 1,-1 0,0 1,-1 0,-2 1,-1 0,-2 1,-1 0,-2 1,-1 0,-2 1,-1 0,-1 1,-1 0,-8 1,-1 0,-2 1,-1 0,-1 1,-1 0,-1 1,-1 0,-2 1,-1 0,-2 1,-1 0,-2 1,-1 0,-2 1,-1 0,-2 1,-1 0,-1 1,-1 0,-2 1,-1 0,-2 1,-1 0,-4 1,-1 0,-6 1,-1 0,-5 -1,-1 0,-6 1,-1 0,-4 1,-1 0,-14 1,-1 0,-5 1,-1 -1,-1 0,-3 -1,-1 0,-2 -10,0 -1,-1 0,-2 -7,0 0,4 -1,1 0,7 -1,1 0,5 -1,1 0,5 -1,1 0,7 -1,1 0,6 -1,1 0,6 -1,1 0,6 -1,1 0,6 -1,1 0,2 -1,1 -1,1 0,1 -1,1 -1,0 -1,1 -1,1 0,1 -1,1 0,1 -1,1Z"/>
<path onmouseover="hoverPath(evt)" onmouseout="recoverPath(evt)" fill="rgb(242,241,233)" d="M  227,89l 0,1 -1,1 0,2 -1,1 0,2 -1,1 0,3 -1,1 0,2 -1,1 0,2 -1,1 0,1 -1,1 0,4 -1,1 0,2 -1,1 0,2 -1,1 0,2 -1,1 0,1 -1,1 0,3 30,0 0,-3 -2,0 -1,-1 0,-1 -1,-1 -3,0 -1,1 -3,0 -1,1 -2,0 -1,-1 0,-2 1,-1 0,-3 1,-1 0,-6 1,-1 0,-5 -1,-1 0,-7 1,-1 0,-9 -1,0 -1,-1 0,-3 -1,-1 0,-4 1,-1 -1,0 -1,3 0,3 -1,1 0,3 -1,1Z"/>
<path onmouseover="hoverPath(evt)" onmouseout="recoverPath(evt)" fill="rgb(189,214,144)" d="M  240,160l 0,0 -1,1 0,10 -1,1 -1,1 0,2 1,0 1,-1 5,0 1,-1 10,0 0,-5 -11,0 -1,-1 0,-1 -1,-1 0,-3 2,-2Z"/>
<path onmouseover="hoverPath(evt)" onmouseout="recoverPath(evt)" fill="rgb(197,210,228)" d="M  252,113l 0,1 -1,1 -1,1 0,1 -1,1 0,1 -1,1 -1,1 -1,1 -1,1 1,0 1,1 0,3 8,0 0,-14Z"/>
<path onmouseover="hoverPath(evt)" onmouseout="recoverPath(evt)" fill="rgb(238,235,222)" d="M  252,205l 0,-1 1,-1 2,0 0,-1 -2,0 -1,-1 0,-1 -11,0 -1,-1 -7,0 -1,1 0,6 6,0 1,1 10,0 1,-1 1,0 1,-1Z"/>
<path onmouseover="hoverPath(evt)" onmouseout="recoverPath(evt)" fill="rgb(244,243,236)" d="M  0,50l 0,21 2,0 0,-2 1,-1 1,-1 0,-1 1,-1 0,-1 1,-1 0,-3 -1,-1 0,-2 -1,-1 0,-1 -1,-1 0,-1 -1,-1 0,-2 -1,-1 -1,1 0,-3Z"/>
<path onmouseover="hoverPath(evt)" onmouseout="recoverPath(evt)" fill="rgb(238,239,236)" d="M  0,214l 0,41 22,0 0,-1 2,-2 0,-1 2,-2 0,-1 1,-1 1,0 0,-2 1,-1 0,-2 1,-1 0,-2 1,-1 0,-1 1,-1 -1,-1 0,-4 1,-1 0,-2 1,-1 0,-4 -1,1 -3,0 -1,-1 -2,0 -1,-1 -2,0 -1,-1 -2,0 -1,-1 -1,0 -1,-1 -2,0 -1,-1 -1,0 -1,-1 -2,0 -1,-1 -1,0 -1,-1 -2,0 -1,-1 -1,0 -1,-1 -1,0 -1,1Z"/>
<path onmouseover="hoverPath(evt)" onmouseout="recoverPath(evt)" fill="rgb(229,236,243)" d="M  5,78l 0,0 1,-1 0,-4 -6,0 0,38 1,0 0,-10 1,-1 0,-6 1,-1 0,-5 1,-1 0,-7 1,-1Z"/>
<path onmouseover="hoverPath(evt)" onmouseout="recoverPath(evt)" fill="rgb(176,200,237)" d="M  16,166l -1,0 0,1 -1,1 0,2 -1,1 0,1 -1,1 0,1 -1,1 0,1 -1,1 -2,0 0,1 -1,1 1,0 1,1 0,0 1,1 3,0 1,1 3,0 1,1 0,2 -1,1 -4,0 -1,1 -1,0 0,1 -1,1 2,0 1,1 3,0 1,1 3,0 1,1 2,0 1,1 3,0 1,1 3,0 1,1 2,0 1,1 3,0 1,1 3,0 1,1 15,0 1,-1 0,-14 1,-1 0,-1 -1,-1 0,-7 1,-1 0,-1 -3,0 -1,-1 -1,0 -1,1 -4,0 -1,-1 -2,0 -1,-1 -3,0 -1,-1 -9,0 -1,-1 -6,0 -1,-1Z"/>
<path onmouseover="hoverPath(evt)" onmouseout="recoverPath(evt)" fill="rgb(176,201,237)" d="M  65,210l 0,2 -1,1 0,1 1,1 0,9 -1,1 0,15 2,0 1,1 3,0 1,1 3,0 1,1 2,0 1,1 4,0 1,1 2,0 1,1 2,0 1,1 4,0 1,1 2,0 -1,-1 0,-2 1,-1 0,-5 1,-1 0,-4 1,-1 0,-6 -1,-1 -2,0 -1,-1 0,-2 1,-1 4,0 1,1 2,0 1,1 2,0 1,1 2,0 1,1 1,0 1,1 1,0 1,1 0,1 2,0 0,-1 1,-1 0,-1 -1,-1 -3,0 -1,-1 -2,0 -1,-1 -1,0 -1,-1 -2,0 -1,-1 -2,0 -1,-1 -1,0 -1,-1 -2,0 -1,-1 -2,0 -1,-1 -2,0 -1,-1 -1,0 -1,-1 -2,0 -1,-1 -2,0 -1,-1 -2,0 -1,-1 -2,0 -1,-1 -4,0 -1,-1 -3,0 -1,-1 -1,1Z"/>
<path onmouseover="hoverPath(evt)" onmouseout="recoverPath(evt)" fill="rgb(172,198,238)" d="M  98,178l 0,0 -1,-1 -2,0 -1,-1 -1,0 -1,-1 -1,-1 0,-2 1,-1 1,-1 0,-4 1,-1 -1,-1 0,-4 1,-1 0,-1 1,-1 7,0 1,1 1,0 1,1 1,1 0,12 1,-1 0,-2 1,-1 0,-2 1,-1 0,-8 -1,-1 0,-1 -1,0 -1,-1 -10,0 -1,-1 -1,-1 -1,-1 0,-10 -1,0 0,13 -1,1 0,3 1,1 0,9 -1,1 -2,0 0,1 -1,1 -1,1 -2,0 -1,-1 -5,0 -1,-1 -3,0 0,1 -1,1 1,0 1,1 3,0 1,1 3,0 1,1 3,0 1,1 3,0 1,1 2,0 1,1 3,0 1,1 2,0 1,1 1,0 1,1 2,0 1,1 0,3 -1,1 -6,0 -1,-1 -34,0 21,1 36,0 0,-2 -3,0 -1,-1 -2,0 -1,-1 -2,0 -1,-1 -2,0 -1,-1 -1,0 -1,-1 -1,-1 0,-2 -1,-1 0,1 -1,1 -1,0 -1,1 -2,0 -1,1 -1,-1Z"/>
<path onmouseover="hoverPath(evt)" onmouseout="recoverPath(evt)" fill="rgb(244,247,251)" d="M  123,199l 0,0 -1,1 0,1 -1,1 -15,0 -1,-1 -22,0 -1,-1 -18,0 -1,-1 0,-1 -1,-1 0,-2 1,-1 0,-18 1,-1 2,0 1,1 1,-1 1,-1 0,-1 1,-1 0,-1 1,-1 0,-4 -1,0 -1,-1 -5,0 -1,-1 0,-22 -1,0 0,24 -1,1 0,2 1,1 0,3 -1,1 0,5 1,1 0,3 -1,1 0,14 -1,1 -1,1 0,0 1,1 1,1 0,6 -1,1 1,1 0,2 -1,1 0,18 1,1 0,4 -1,1 0,18 1,0 0,-9 1,-1 0,-21 1,-1 0,-7 -1,-1 0,-3 1,-1 0,-2 -1,-1 0,-5 1,-1 0,-2 -3,0 1,9 62,-10 -43,2 2,0 21,1 2,0 15,1 1,0 1,1 0,-1 1,-1 0,-2 -1,2 1,-6 -66,4 -8,0 0,1 -1,1 0,1 -1,1 0,1 -1,1 -1,0 -1,1 0,1 -1,1 0,1 -1,1 -2,0 -1,1 -1,1 -2,0 1,1 0,4 -1,1 0,1 -1,1 0,7 -1,1 0,2 -1,1 0,2 1,0 0,-2 1,-2 0,-1 1,-3 0,-3 1,-1 0,-2 1,-1 0,-1 1,-1 1,-1 1,-1 0,-2 1,-1 1,0 0,-1 1,-1 1,-1 0,-1 1,-1 1,-1 -2,1 -1,2 36,-8 43,-2 -75,5 1,-2 4,0 1,-1 1,0 -7,3 75,-5Z"/>
<path onmouseover="hoverPath(evt)" onmouseout="recoverPath(evt)" fill="rgb(171,198,238)" d="M  135,122l 0,0 1,1 7,0 1,1 1,1 0,3 4,0 0,-3 1,-1 0,-3 -14,0 -1,1 -1,-1 -6,0 -1,1 0,2 -1,1 1,1 1,0 1,-1 1,0 0,-1 1,-1 1,-1 1,0 1,-1 1,1Z"/>
<path onmouseover="hoverPath(evt)" onmouseout="recoverPath(evt)" fill="rgb(176,201,238)" d="M  138,58l 0,14 1,1 0,11 1,1 0,1 15,0 0,-18 -1,-1 0,-9 1,-1 0,-1 1,-1 0,-16 -1,-1 0,-1 -1,-1 -5,0 -1,-1 -7,0 0,3 -1,1 0,1 -1,1 0,1 -1,1 0,1 -1,1 0,1 -1,1 -2,0 0,1 -1,1 0,2 1,0 1,1 1,1 1,1 1,1Z"/>
<path onmouseover="hoverPath(evt)" onmouseout="recoverPath(evt)" fill="rgb(180,204,216)" d="M  151,186l -7,0 -1,1 -2,0 -1,1 -4,0 -1,-1 -3,0 -1,-1 -2,0 -1,-1 0,1 -1,1 1,1 3,0 1,1 10,0 1,-1 4,0 1,-1 2,0 1,-1 1,1 2,0 1,1 1,1 0,41 -1,1 0,0 1,1 0,17 -1,1 -6,0 7,1 0,4 45,0 0,-3 1,-1 0,-2 -6,0 -1,-1 -1,0 -1,-1 -1,-1 -2,0 -1,-1 -3,0 -1,-1 0,-1 -1,0 -1,1 0,0 -1,1 -1,1 -1,1 -1,0 0,3 -1,1 -1,1 -8,0 -1,1 -5,0 -1,-1 -3,0 -1,-1 -1,-1 -1,0 -4,-63 -1,-1 6,51 0,-4 1,-1 0,-1 -1,-1 0,-5 1,-1 1,-1 2,0 1,1 2,0 1,1 3,0 1,1 1,0 0,-1 -1,-1 0,-6 1,-1 0,-4 1,-1 0,-5 1,-1 0,-2 -2,6 -6,0 -1,-1 -2,0 -1,-1 0,-16 1,-1 13,0 1,1 1,0 1,-1 11,0 1,1 0,2 1,1 0,2 -1,1 0,3 -1,1 -2,0 0,2 -1,1 0,1 -1,1 0,2 -1,1 0,2 -1,1 0,6 1,1 0,4 1,1 2,0 1,1 2,0 1,1 1,0 1,1 0,4 -1,1 0,1 -1,1 0,1 -1,1 0,1 -1,1 -1,1 0,1 14,0 0,-8 1,-1 0,-10 1,-1 0,-1 1,-1 0,-1 1,-1 1,0 1,-1 2,0 1,1 0,-6 1,-1 0,-2 1,-1 0,-1 1,-1 1,-1 0,-1 1,-1 1,-1 1,0 0,-2 1,-1 1,-1 1,-1 1,-1 0,-1 1,-1 1,0 0,-1 1,-1 1,-1 1,-1 1,-1 2,0 0,-1 1,-1 0,-1 1,-1 0,-5 -1,-1 0,-2 -1,-1 0,-2 -1,-1 0,-5 1,-1 0,-1 1,-1 1,-1 0,-6 1,-1 1,-1 1,0 0,-5 -1,0 -1,-1 -1,1 0,1 -1,1 -1,0 0,4 -1,1 0,2 -1,1 -1,1 -17,0 -1,-1 -6,0 0,2 -1,1 0,17 -1,1 0,1 -1,1 -1,0 -1,1 -3,0 -1,1 -2,0 -1,1 -28,0 -1,-1 -2,0 -1,-1 0,-2 -1,-1 0,-13 1,-1 0,-14 -1,0 0,2 -1,1 0,23 -1,1 0,3 -1,1 -1,1 -1,0 5,52 -6,-51 24,7 0,0 -24,-7 8,46 22,0 1,1 3,0 0,-2 1,-1 -1,-1 -3,0 0,1 -1,1 -1,0 -21,1 -8,-46Z"/>
<path onmouseover="hoverPath(evt)" onmouseout="recoverPath(evt)" fill="rgb(242,242,236)" d="M  160,158l 0,10 -1,1 0,11 1,1 0,2 2,0 1,1 26,0 1,-1 2,0 1,-1 3,0 1,-1 1,0 0,-1 1,-1 0,-17 1,-1 0,-2 1,-1 8,0 1,1 15,0 1,-1 0,-2 1,-1 0,-1 -1,0 -1,1 -2,0 -1,-1 0,-3 1,-1 1,0 0,-1 -4,0 -1,1 -3,0 -1,-1 0,-8 -21,0 -1,1 -32,0 0,2 -1,1 0,2 -1,1 -1,1 -3,0 -1,-1 0,-6 -21,0 0,3 -1,1 -2,0 0,5 1,1 0,8 -1,1 0,6 -1,1 0,7 -1,1 0,5 -1,1 -2,0 0,1 -1,1 0,10 1,-7 0,-1 1,-1 0,-1 1,-1 2,0 1,1 2,0 1,1 3,0 1,1 2,0 1,-1 2,0 1,-1 7,0 1,-1 1,0 1,-1 0,-3 1,-1 0,-23 1,-1 0,-2 1,-1 3,0 1,1Z"/>
<path onmouseover="hoverPath(evt)" onmouseout="recoverPath(evt)" fill="rgb(172,199,238)" d="M  177,194l 0,1 -1,1 -2,0 -1,-1 0,-2 -11,0 0,14 2,0 1,1 4,0 0,-2 1,-1 0,-2 1,-1 2,0 1,1 0,4 -1,1 0,5 -1,1 0,4 -1,1 0,2 2,0 1,1 4,0 1,-1 0,-1 1,-1 0,-7 1,-1 0,-2 1,-1 0,-2 1,-1 0,-1 1,-1 0,-2 1,-1 2,0 0,-3 1,-1 -1,-1 0,-2 -9,0 -1,1Z"/>
<path onmouseover="hoverPath(evt)" onmouseout="recoverPath(evt)" fill="rgb(242,240,232)" d="M  213,247l 0,0 1,-1 0,-2 2,-2 0,-1 -3,0 -1,-1 0,-2 1,-1 0,-5 1,-1 0,-12 -1,-1 0,0 -1,-1 0,1 -1,1 -2,0 -1,-1 -1,1 -1,0 0,1 -1,1 0,1 -1,1 0,10 -1,1 0,8 -1,1 -15,0 4,1 2,0 1,1 1,1 1,0 1,1 6,0 1,1 0,4 -1,1 0,2 10,0 0,-2 -1,-1 0,-4 1,-1Z"/>
<path onmouseover="hoverPath(evt)" onmouseout="recoverPath(evt)" fill="rgb(182,208,181)" d="M  219,233l -1,0 0,3 -1,1 0,1 -1,1 1,0 1,1 0,3 -1,1 -1,1 0,2 -1,1 -1,1 0,2 1,1 0,3 18,0 0,-2 1,-1 1,0 1,-1 1,0 1,-1 1,0 1,-1 2,0 1,-1 3,0 1,-1 1,0 1,-1 0,-1 1,-1 0,-10 -23,0 -1,-1Z"/>
<path onmouseover="hoverPath(evt)" onmouseout="recoverPath(evt)" fill="rgb(176,200,233)" d="M  232,38l 0,4 1,1 0,7 -1,1 0,6 -1,1 0,4 -1,1 0,2 -1,1 0,2 -1,1 0,1 -1,1 0,2 -1,1 0,2 -1,1 0,2 -1,1 0,2 -1,1 0,2 -1,1 0,1 -1,1 0,1 -1,1 0,2 -1,1 0,8 -1,1 0,1 -1,1 0,2 -1,1 0,2 -1,1 0,2 -1,1 0,2 -1,1 -1,1 -1,1 0,4 -1,1 0,2 -1,1 0,2 -1,1 -1,1 14,0 -8,-1 0,-5 1,-1 0,-1 1,-1 0,-2 1,-1 0,-2 1,-1 0,-2 1,-1 0,-4 1,-1 0,-1 1,-1 0,-2 1,-1 0,-2 1,-1 0,-3 1,-1 0,-2 1,-1 0,-2 1,-1 0,-3 1,-1 0,-3 1,-1 0,-3 1,-1 0,-2 1,-1 3,0 1,1 0,-1 1,-1 0,-2 -1,-1 0,-4 1,-1 0,-2 1,-1 2,0 0,-3 1,-1 0,-2 -1,-1 0,-2 -1,0 -1,-1 0,-10 1,-1 4,0 1,1 1,0 1,-1 12,0 0,-2 -20,0 -1,-1 0,-2 1,-1 0,-2 1,-1 0,-2 1,-1 0,-4 1,-1 0,-5 1,-1 0,-10 -1,-1 0,-3 -4,0 1,1 0,3 1,1 0,2 -1,1 0,5 -1,1 0,14 -1,1 0,4 -1,1 -22,80 0,0 22,-80Z"/>
<path onmouseover="hoverPath(evt)" onmouseout="recoverPath(evt)" fill="rgb(177,201,238)" d="M  0,167l 0,24 1,0 1,-1 1,-1 4,-4 0,-1 -1,-1 -2,0 -1,-1 0,-2 1,-1 1,0 0,-1 1,-1 0,-1 1,-1 2,0 0,-1 1,-1 0,-1 1,-1 0,-1 1,-1 0,-2 1,-1 0,-1 1,-1 12,0 1,1 6,0 1,1 9,0 1,1 3,0 1,1 2,0 1,1 2,0 1,-1 3,0 1,1 1,0 0,-2 -1,-1 -2,0 -1,-1 -1,0 -1,-1 0,-9 1,-1 0,-4 1,-1 0,-2 -1,-1 -3,0 0,15 -1,1 -1,1 -5,0 -1,-1 0,-2 1,-1 3,0 0,-13 -11,0 -1,1 -14,0 -1,1 -6,0 0,5 -1,1 -2,0 -1,-1 0,-5 -10,0Z"/>
<path onmouseover="hoverPath(evt)" onmouseout="recoverPath(evt)" fill="rgb(242,242,236)" d="M  7,35l 0,5 1,1 0,6 1,1 0,2 1,1 0,1 1,1 1,1 1,1 0,1 1,1 0,6 1,1 0,3 -1,1 0,1 -1,1 -3,3 -1,1 -1,0 0,4 -1,1 0,1 -1,1 0,7 -1,1 0,5 -1,1 0,6 -1,1 0,10 -1,1 -2,0 0,21 2,0 0,-1 1,-1 1,-1 17,0 1,-1 2,0 0,-2 1,-1 0,-2 -1,-1 0,0 -1,-1 -1,-1 -1,-1 -4,0 -2,-2 -1,-1 0,-6 1,-1 2,0 1,1 0,4 1,1 3,0 1,-1 0,0 1,-1 1,0 1,-1 3,0 1,1 0,10 -1,1 0,2 1,0 1,1 3,0 1,-1 12,0 1,-1 1,0 0,-1 1,-1 0,-8 1,-1 0,-10 1,-1 0,-11 1,-1 0,-10 1,-1 0,-8 -2,0 -1,1 -1,0 -1,1 -9,0 -1,-1 -2,0 -1,-1 -1,-1 -1,-1 0,-1 -1,-1 0,-7 2,-2 1,0 1,-1 1,0 1,-1 2,0 1,-1 1,-1 0,-3 1,-1 0,-7 1,-1 0,-1 1,-1 3,0 1,1 1,1 1,1 0,1 1,1 1,1 0,1 1,1 0,1 1,1 0,-20 -4,0 -1,-1 -9,0 -1,-1 -3,0 -1,-1 0,2 -1,1 0,2 -1,1 -1,1 -5,0 -1,-1 -10,0 -1,-1 -8,0 -1,-1 -1,1Z"/>
<path onmouseover="hoverPath(evt)" onmouseout="recoverPath(evt)" fill="rgb(178,202,238)" d="M  35,24l 0,0 1,-1 0,-8 1,-1 0,-8 1,-1 2,0 0,-3 1,-1 4,0 1,1 3,0 1,1 2,0 1,1 2,0 1,1 1,0 0,-1 -1,-1 -2,0 -1,-1 -1,0 -1,-1 0,-1 -51,0 0,45 2,0 1,1 0,2 1,1 0,2 1,1 0,1 1,1 0,1 1,1 0,2 1,1 0,5 -1,1 0,1 -1,1 0,1 -2,2 0,1 3,0 1,1 1,-1 0,0 1,-1 1,-1 1,-1 0,-1 1,-1 0,-1 -1,-1 0,-6 -1,-1 0,-1 -1,-1 -1,-1 -1,-1 0,-1 -1,-1 0,-2 -1,-1 0,-6 -1,-1 0,-5 -1,-1 0,-2 1,-1 4,0 1,1 8,0 1,1 10,0 1,1 3,0 1,-1 0,-2 1,-1Z"/>
<path onmouseover="hoverPath(evt)" onmouseout="recoverPath(evt)" fill="rgb(174,199,235)" d="M  58,7l -3,0 -1,-1 -2,0 -1,-1 -2,0 -1,-1 -3,0 -1,-1 -2,0 0,3 -1,1 -2,0 0,8 -1,1 0,7 1,1 0,5 3,0 1,1 9,0 1,1 4,0 1,1 0,33 -1,1 -2,0 -1,-1 0,-11 -1,-1 0,-1 -1,-1 0,-1 -1,-1 -1,-1 0,-1 -1,-1 -1,-1 -1,0 0,1 -1,1 0,7 -1,1 0,3 -1,1 -2,2 -2,0 -1,1 -1,0 -1,1 -1,0 -1,1 0,5 1,1 0,1 1,1 1,1 2,0 1,1 7,0 1,-1 1,0 1,-1 4,0 1,1 0,10 -1,1 0,10 -1,1 0,11 -1,1 0,10 -1,1 0,8 -1,1 0,1 -1,1 -1,0 -1,1 -12,0 -1,1 -5,0 -1,-1 -1,0 -1,-1 -1,0 0,2 -1,1 -2,0 -1,1 -17,0 -1,1 15,0 4,-1 1,1 4,0 0,-2 1,-1 29,-124 -9,123 2,0 1,-1 2,0 1,-1 1,-1 0,-13 1,-1 0,-14 1,-1 0,-11 1,-1 2,0 0,-7 -1,0 -1,-1 0,-6 1,-1 2,0 0,-7 -1,0 -1,-1 0,-6 1,-1 2,0 0,-4 -1,0 -1,-1 0,-6 1,-1 2,0 0,-1 -1,0 -1,-1 0,-9 1,-1 2,0 0,-6 1,-1 0,-12 1,-1 0,-12 -14,0 2,1 2,0 1,1 1,1 0,3 -10,124 9,-123 -31,118 1,-1 0,-8 -1,0 -1,1 -1,0 -1,1 -1,1 -5,0 -1,-1 -1,-1 0,-4 7,7 1,1 1,1 1,1 1,1 0,1 31,-118Z"/>
<path onmouseover="hoverPath(evt)" onmouseout="recoverPath(evt)" fill="rgb(244,243,235)" d="M  65,179l 0,4 35,0 1,1 4,0 0,-1 -2,0 -1,-1 -1,0 -1,-1 -2,0 -1,-1 -3,0 -1,-1 -2,0 -1,-1 -3,0 -1,-1 -3,0 -1,-1 -3,0 -1,-1 -3,0 -1,-1 -1,0 -1,-1 0,-1 -1,2 0,1 -1,1 -1,1 -1,1 -2,0 -1,1Z"/>
<path onmouseover="hoverPath(evt)" onmouseout="recoverPath(evt)" fill="rgb(243,242,234)" d="M  66,243l 0,0 -1,-1 -1,0 0,4 -1,1 0,8 50,0 0,-6 1,-1 0,-7 1,-1 -1,-1 0,-2 1,-1 0,-5 -3,0 -1,-1 0,-1 -1,0 -1,-1 -1,0 -1,-1 -2,0 -1,-1 -2,0 -1,-1 -2,0 -1,-1 -2,0 4,2 0,8 -1,1 0,4 -1,1 0,5 -1,1 1,1 0,2 -1,1 -4,0 -1,-1 -4,0 -1,-1 -2,0 -1,-1 -2,0 -1,-1 -4,0 -1,-1 -2,0 -1,-1 -3,0 -1,-1Z"/>
<path onmouseover="hoverPath(evt)" onmouseout="recoverPath(evt)" fill="rgb(244,242,234)" d="M  68,143l -3,0 0,20 5,0 1,1 1,0 1,1 0,5 1,-2 5,0 1,1 5,0 1,1 1,-1 0,-1 1,-1 2,0 0,-7 -1,-1 0,-5 1,-1 0,-11 -5,0 -1,1Z"/>
<path onmouseover="hoverPath(evt)" onmouseout="recoverPath(evt)" fill="rgb(244,243,235)" d="M  95,143l 0,7 1,1 1,1 10,0 1,1 1,0 1,1 0,1 1,1 0,10 -1,1 0,2 -1,1 0,2 -1,1 -1,1 1,1 0,2 1,1 1,0 1,1 2,0 1,1 2,0 1,1 2,0 1,1 3,0 0,-1 1,-1 2,0 0,-5 1,-1 0,-7 1,-1 0,-6 1,-1 0,-6 -1,-1 0,-7 1,-1 0,-2 -33,0 -1,1Z"/>
<path onmouseover="hoverPath(evt)" onmouseout="recoverPath(evt)" fill="rgb(238,239,234)" d="M  117,241l 0,0 -1,1 0,7 -1,1 0,5 39,0 0,-3 -6,0 -1,-1 0,-2 1,-1 6,0 0,-15 -9,0 -1,-1 0,-2 -9,0 -1,1 -3,0 -1,-1 -3,0 -1,-1 -6,0 -1,-1 0,-5 -1,3 0,2 -1,1 0,8 -1,1 1,1Z"/>
<path onmouseover="hoverPath(evt)" onmouseout="recoverPath(evt)" fill="rgb(244,243,235)" d="M  127,190l 0,0 -1,-1 0,6 -1,1 0,7 -1,1 0,4 -1,1 -2,0 0,6 -1,1 0,5 1,1 0,5 6,0 1,1 3,0 1,1 1,0 1,-1 11,0 1,1 8,0 0,-39 -1,-1 -4,0 -1,1 -4,0 -1,1 -12,0 -1,-1Z"/>
<path onmouseover="hoverPath(evt)" onmouseout="recoverPath(evt)" fill="rgb(242,241,233)" d="M  151,119l 0,0 1,1 0,5 -1,1 0,3 3,0 0,-9 -1,-1 -53,0 -1,-1 0,13 1,-1 9,0 -5,-1 0,0 -1,-1 -1,-1 -1,-1 0,-4 1,-1 0,-1 25,-1 24,0 -41,1 1,0 1,1 2,0 1,-1 5,0 1,1 0,1 1,1 0,2 1,1 1,-1 0,-1 1,-1 0,-2 1,-1 -16,0 41,-1Z"/>
<path onmouseover="hoverPath(evt)" onmouseout="recoverPath(evt)" fill="rgb(244,243,237)" d="M  159,235l 0,3 -1,1 0,9 1,1 1,1 3,0 1,1 3,0 1,-1 8,0 1,-1 0,-3 1,-1 1,0 1,-1 2,-2 1,-1 2,0 0,-2 1,-1 1,-1 0,-1 1,-1 0,-1 1,-1 0,-1 1,-1 0,-2 -1,0 -1,-1 -1,0 1,1 0,2 -1,1 0,2 -1,1 -5,0 -1,-1 -20,0 -1,1Z"/>
<path onmouseover="hoverPath(evt)" onmouseout="recoverPath(evt)" fill="rgb(232,235,237)" d="M  172,227l -1,1 -3,0 -1,-1 -3,0 -1,-1 -2,0 -1,-1 -1,1 0,3 1,1 18,0 1,-1 1,0 0,-1 1,-1 4,0 -3,-1 0,0 -1,-1 0,-4 -1,2 0,0 -1,1 -6,0 -1,-1 -1,0 1,1Z"/>
<path onmouseover="hoverPath(evt)" onmouseout="recoverPath(evt)" fill="rgb(243,241,232)" d="M  181,95l -20,0 0,20 24,0 1,1 0,-8 1,-1 -1,-1 0,-10 -1,0 -1,-1Z"/>
<path onmouseover="hoverPath(evt)" onmouseout="recoverPath(evt)" fill="rgb(245,243,236)" d="M  215,235l 0,2 1,-2 0,-3 1,-1 10,0 1,1 23,0 1,1 0,12 -1,1 0,1 -1,1 -1,1 -1,0 -1,1 -3,0 -1,1 -2,0 -1,1 -1,0 -1,1 -1,0 -1,1 -1,0 0,1 20,0 0,-50 -1,0 0,2 -1,1 -2,0 -1,1 -12,0 -1,-1 -6,0 -1,-1 0,-8 1,-1 1,-1 9,0 1,1 11,0 1,1 0,1 1,0 0,-3 -13,0 -27,38 37,-4 -21,0 -3,-3 0,-2 1,-1 0,-5 1,-1 20,0 1,1 1,0 1,1 0,9 -1,1 -37,4 1,-5 0,-12 -1,-1 -1,-1 -1,-1 0,0 3,15 -1,5 -3,-21 0,-2 1,-1 -1,3 3,21 0,-1 15,-38 -2,0 -1,-1 0,-2 1,-1 1,-1 0,-1 -1,0 -1,1 0,0 -2,2 0,1 -1,1 -1,0 0,1 -1,1 -2,2 -1,1 0,2 -1,1 -1,0 -1,1 0,1 -1,1 -1,1 0,1 -1,1 2,24Z"/>
<path onmouseover="hoverPath(evt)" onmouseout="recoverPath(evt)" fill="rgb(238,235,222)" d="M  231,223l 0,3 -1,1 1,1 1,1 19,0 0,-7 -1,0 -1,-1 -18,0Z"/>
<path onmouseover="hoverPath(evt)" onmouseout="recoverPath(evt)" fill="rgb(250,249,246)" d="M  233,147l 0,0 1,1 1,0 1,1 3,0 0,-1 -1,-1 -3,0 -1,-1 -1,1 1,-3 0,-2 1,-1 0,-1 -1,0 0,1 -1,1 -1,0 -1,1 -2,0 -1,-1 -1,0 -1,-1 -6,0 -1,-1 -2,0 0,8 1,0 1,-1 6,0 1,1 0,3 -1,1 2,0 0,-1 1,-1 1,0 0,-1 1,-1 1,-1 3,-3 -1,3Z"/>
<path onmouseover="hoverPath(evt)" onmouseout="recoverPath(evt)" fill="rgb(234,239,219)" d="M  237,151l -1,0 0,5 -1,1 -1,0 -1,1 0,6 -1,1 -1,1 0,1 -1,1 0,3 1,1 0,2 1,1 0,2 1,1 0,7 -1,1 0,1 -1,1 0,1 1,-1 0,0 1,-1 0,-1 1,-6 0,-1 1,-1 1,0 1,-1 6,0 1,-1 11,0 0,-1 -9,0 -3,1 -3,0 -4,1 -1,-1 0,-4 1,-1 1,-1 0,-10 1,-1 1,-1 6,0 1,1 0,2 -1,1 -1,1 0,1 1,1 0,1 10,0 0,-24 -6,0 -1,1 -5,0 0,1 -1,1 -2,0 0,1 1,1 0,3 -1,1Z"/>
<path onmouseover="hoverPath(evt)" onmouseout="recoverPath(evt)" fill="rgb(240,238,228)" d="M  242,179l -4,0 -1,1 -1,0 0,1 -1,1 0,3 1,0 1,-1 18,0 0,-6 -10,0 -1,1Z"/>
</svg>