<svg width="256" height="256" xmlns="http://www.w3.org/2000/svg"><script> 
var tempColor;
function hoverPath(evt){
obj = evt.target;
tempColor = obj.getAttribute("fill");
obj.setAttribute("fill","red");
//alert(tempColor);
//obj.setAttribute("stroke","red");}
function recoverPath(evt){
obj = evt.target;
obj.setAttribute("fill", tempColor);
//obj.setAttribute("stroke", tempColor);
}</script><path onmouseover="hoverPath(evt)" onmouseout="recoverPath(evt)" fill="rgb(247,236,139)" d="M  42,108l -2,0 0,2 1,1 0,9 1,1 0,37 -1,1 0,64 -1,1 0,23 1,1 0,7 4,0 0,-53 1,-1 0,-19 -1,-1 0,-3 1,-1 0,-36 1,-1 0,-6 1,-1 0,-3 -1,0 -1,-1 0,-2 1,-1 0,-1 -1,-1 0,-6 -1,-1 0,-10 -1,1Z"/>
<path onmouseover="hoverPath(evt)" onmouseout="recoverPath(evt)" fill="rgb(242,242,236)" d="M  49,136l 0,5 -1,1 0,36 -1,1 0,1 1,1 0,21 -1,1 0,52 109,0 0,-2 -1,-1 0,-2 -1,-1 0,-2 -1,-1 0,-2 -1,-1 0,-5 1,-1 0,-1 -1,-1 -1,0 -1,-1 -1,0 -1,-1 -1,-1 -1,-1 -1,-1 -1,-1 0,-1 -1,-1 0,-1 -1,-1 0,-1 -1,-1 0,-2 -1,-1 0,-2 -1,-1 0,-1 -1,-1 0,-1 -1,-1 0,-2 -1,-1 0,-1 -1,-1 0,-1 -1,-1 0,-7 1,-1 1,-1 4,0 1,-1 -1,0 -1,-1 0,-5 -1,-1 0,-1 -1,0 -1,-1 -1,0 -1,-1 -1,-1 -1,0 -1,-1 -1,-1 -1,-1 -1,-1 0,-1 -1,-1 -2,-2 -1,-1 0,-1 -1,-1 -1,-1 0,-1 -1,-1 -1,-1 0,-1 -1,-1 -1,-1 0,-1 -1,-1 -1,-1 0,-1 -1,-1 -1,-1 -2,-2 -1,-1 0,-1 -1,0 -1,-1 -2,0 -1,-1 -1,-1 -2,-2 0,-1 -1,-1 0,-3 -1,-1 0,-1 -4,0 -1,-1 -4,0 -1,-1 -3,0 -1,-1 -3,0 -1,-1 -6,0 -1,-1 -4,0 -1,-1 -3,0 -1,-1 -1,0 -1,-1 -9,0 -1,-1 -3,0 -1,-1 -1,0 -1,1 34,110 -3,0 -1,-1 -1,0 -1,-1 0,-8 -1,-1 0,-10 -1,-1 0,-1 -1,-1 -7,0 -1,-1 -8,0 -1,-1 -1,-1 0,-5 1,-1 1,-1 3,0 1,1 10,0 1,1 2,0 1,1 0,1 10,0 1,1 13,0 1,1 10,0 1,1 0,2 -1,1 -11,0 1,1 0,11 -1,1 0,1 1,1 0,7 -1,1 -16,0 -1,1 -34,-110 28,68 -1,-1 -2,0 -1,-1 0,-4 1,-1 0,-11 1,-1 0,-6 1,-1 1,-1 8,0 1,1 9,0 1,1 0,24 -1,1 -18,0 -28,-68Z"/>
<path onmouseover="hoverPath(evt)" onmouseout="recoverPath(evt)" fill="rgb(247,236,139)" d="M  82,46l -5,0 -1,1 -5,0 0,9 -1,1 4,0 1,-1 8,0 1,-1 9,0 0,-1 1,-1 5,0 1,-1 5,0 1,1 9,0 1,-1 10,0 1,-1 10,0 1,-1 10,0 1,-1 9,0 1,-1 10,0 1,-1 10,0 1,-1 5,0 0,-1 1,-1 5,0 1,1 1,-1 3,0 1,1 1,-1 5,0 0,-1 1,-1 1,0 1,-1 2,0 1,1 2,0 1,-1 4,0 1,-1 3,0 1,-1 3,0 1,-1 2,0 1,-1 2,0 1,-1 3,0 1,-1 2,0 1,-1 2,0 1,-1 2,0 1,-1 2,0 1,-1 1,0 1,-1 2,0 1,-1 2,0 0,-10 -3,0 -1,1 -1,0 -1,1 -1,0 -1,1 -2,0 -1,1 -2,0 -1,1 -2,0 -1,1 -2,0 -1,1 -2,0 -1,1 -2,0 -1,1 -3,0 -1,1 -2,0 -1,1 -3,0 -1,1 -3,0 -1,1 -3,0 -1,1 -4,0 0,1 -1,1 -2,0 -1,1 -2,0 -1,-1 -7,0 -1,-1 0,-1 -1,-1 0,-1 1,4 0,2 -1,1 -11,0 -1,-1 -4,0 -1,1 -9,0 -1,1 -10,0 -1,1 -9,0 -1,1 -10,0 -1,1 -10,0 -1,1 -10,0 0,2 -1,1 -14,0 -1,-1 0,-1 -1,1 -5,0 -1,1Z"/>
<path onmouseover="hoverPath(evt)" onmouseout="recoverPath(evt)" fill="rgb(172,199,236)" d="M  95,56l 0,8 1,1 0,4 1,1 0,13 1,1 0,2 1,1 0,1 1,1 0,7 1,1 0,13 1,1 0,8 -1,1 -3,0 -1,-1 -2,0 -1,1 -7,0 0,6 1,1 0,6 1,1 0,1 3,0 1,1 5,0 1,1 1,0 0,-10 1,-1 2,0 1,1 0,10 1,1 5,0 0,-4 -1,-1 0,-3 -1,-1 0,-5 -1,-1 0,-2 -1,-1 0,-3 -1,-1 0,-5 1,-1 0,-3 -1,-1 0,-2 -1,-1 0,-9 1,-1 1,-1 4,0 1,-1 4,0 1,-1 2,0 1,-1 3,0 1,-1 2,0 1,-1 3,0 1,-1 2,0 1,-1 3,0 1,-1 3,0 1,-1 2,0 1,-1 3,0 1,-1 5,0 1,1 0,1 1,1 0,2 1,1 1,-1 4,0 1,-1 4,0 1,1 0,4 1,1 0,2 1,1 0,2 1,1 0,2 1,1 3,0 1,-1 3,0 1,-1 2,0 0,-2 -1,-1 0,-2 -1,-1 0,-2 -1,-1 0,-2 -1,-1 -2,0 -1,1 -5,0 -1,-1 0,-2 1,-1 3,0 1,-1 4,0 0,-3 -1,-1 0,-2 1,-1 1,0 1,-1 2,0 1,-1 9,0 1,-1 1,0 1,-1 2,0 1,-1 1,0 1,-1 1,0 1,-1 0,-1 -1,-1 0,-1 -1,-1 0,-2 -1,-1 0,-2 -1,-1 0,-1 -1,-1 0,-1 -1,-1 0,-2 -1,-1 0,-1 -1,-1 0,-2 -1,0 -1,-1 -3,0 0,1 -1,1 1,1 0,0 1,1 0,1 1,1 0,2 1,1 0,3 1,1 0,1 1,1 0,2 1,1 0,1 1,1 0,2 -1,1 -1,0 -1,1 -3,0 -1,1 -2,0 -1,1 -3,0 -1,1 -3,0 -1,1 -3,0 -1,1 -3,0 -1,1 -2,0 -1,1 -3,0 -1,1 -2,0 -1,1 -2,0 -1,1 -13,0 -1,1 -2,0 -1,1 -3,0 -1,1 -3,0 -1,1 -2,0 -1,1 -3,0 -1,1 -2,0 -1,1 -3,0 -1,1 -3,0 -1,1 -2,0 -1,1 -4,0 -1,-1 0,-3 -1,-1 0,-10 -1,-1 0,-5 -1,-1 0,-4 1,-1 0,-2 1,-1 2,0 1,-1 3,0 0,-1 -1,0 -1,-1 -5,0 -1,-1 -1,-1 0,-1 -1,1 -4,0 -1,1Z"/>
<path onmouseover="hoverPath(evt)" onmouseout="recoverPath(evt)" fill="rgb(244,243,236)" d="M  115,143l -1,0 0,1 1,1 0,0 1,1 0,1 1,1 0,1 1,1 0,1 1,1 1,1 0,1 1,1 0,1 1,1 0,1 1,1 1,1 0,1 1,1 0,1 1,1 1,1 0,1 1,1 1,1 1,1 1,1 1,1 1,1 1,1 1,1 0,1 1,1 1,1 1,1 1,1 0,1 1,1 1,1 1,1 0,1 1,1 0,1 1,1 0,1 1,0 1,-1 1,0 1,-1 1,0 1,-1 1,0 1,-1 1,0 1,-1 2,0 1,-1 2,0 1,-1 21,0 1,-1 2,0 1,-1 5,0 1,-1 5,0 1,-1 2,0 1,-1 1,0 0,-1 -1,-1 0,0 -1,-1 0,-1 -1,0 -1,-1 0,-1 -1,-1 0,-1 -1,-1 -1,-1 0,-1 -1,-1 0,-2 1,-1 -1,-1 -2,0 -1,-1 0,-1 -1,-1 -1,-1 0,-1 -1,-1 -1,-1 -1,-1 0,-1 -1,-1 0,-1 -1,-1 -1,-1 0,-1 -1,-1 -1,-1 0,-1 -1,-1 -1,-1 0,-1 -1,-1 0,-1 -1,-1 -1,0 -1,-1 0,-2 -1,-1 -1,-1 0,-1 -1,-1 -6,0 -1,-1 -2,0 0,2 -1,1 -4,0 -1,-1 -2,0 -1,1 -3,0 -1,1 -3,0 0,2 -1,1 -4,0 -1,-1 -2,0 -1,1 -3,0 -1,1 -3,0 0,2 -1,1 -4,0 -1,-1 -4,0 0,2 -1,1 -3,0 -1,1Z"/>
<path onmouseover="hoverPath(evt)" onmouseout="recoverPath(evt)" fill="rgb(170,198,238)" d="M  136,200l 0,5 1,1 0,1 1,1 0,1 1,1 0,2 1,1 0,1 1,1 0,1 1,1 0,2 1,1 0,2 1,1 0,1 1,1 0,1 1,1 0,1 1,1 1,1 1,1 1,1 1,0 1,1 1,0 1,1 1,1 0,2 1,1 1,1 1,0 1,1 1,0 1,1 11,0 1,-1 6,0 1,-1 5,0 1,-1 5,0 1,-1 13,0 1,-1 5,0 1,1 4,0 1,1 3,0 1,1 5,0 1,1 0,1 1,1 1,0 1,1 3,0 0,-2 1,-1 2,0 1,1 0,5 2,0 1,1 0,3 -1,1 -1,1 -1,1 0,2 18,0 0,-3 -3,0 -1,-1 -2,0 -1,-1 -1,-1 -4,0 -1,-1 0,-6 1,-1 0,-3 1,-1 0,-2 1,-1 0,-2 1,-1 0,-2 -1,-1 0,0 -1,-1 -1,0 -1,-1 0,1 -1,1 -2,0 -1,-1 0,-3 1,-1 -2,0 -1,1 -3,0 0,2 -1,1 -2,0 -1,-1 0,-3 -1,0 -1,-1 -2,0 -1,1 -5,0 -1,1 -2,0 -1,1 0,3 -1,1 0,1 -2,2 -1,1 -9,0 -1,-1 -1,-1 -1,-1 -1,-1 0,-1 -1,-1 -1,-1 -1,0 -1,-1 -1,0 -1,-1 -1,0 -1,-1 -1,0 -1,-1 -1,-1 0,-2 1,-1 1,-1 0,-1 1,-1 0,-1 1,-1 0,-1 -1,-1 0,-2 -1,-1 0,-1 -1,-1 0,-2 -1,-1 0,-1 -1,-1 0,-1 -1,-1 -6,0 -1,-1 -4,0 -1,-1 -1,0 -1,-1 -1,-1 -1,-1 -1,-1 -1,-1 -7,0 -1,1 -4,0 -1,1 -1,0 -1,1 -1,1 -1,1 -3,0 -1,1 -4,0 -1,1 -4,0 -1,1Z"/>
<path onmouseover="hoverPath(evt)" onmouseout="recoverPath(evt)" fill="rgb(242,241,236)" d="M  171,188l -1,0 -1,1 -3,0 -1,-1 -4,0 -1,1 -2,0 -1,1 -2,0 -1,1 -1,0 0,1 2,-1 3,0 1,-1 9,0 1,1 1,1 1,1 1,1 1,1 1,0 1,1 4,0 1,1 6,0 1,1 1,1 0,1 1,1 0,1 1,1 0,2 1,1 0,1 1,1 0,2 1,1 0,3 -1,1 0,1 -1,1 0,1 -1,1 -1,1 1,1 1,0 1,1 1,0 1,1 1,0 1,1 1,0 1,1 1,1 1,1 0,1 1,1 1,1 1,1 7,0 1,-1 0,0 1,-1 0,-1 1,-1 0,-3 1,-1 1,-1 2,0 1,-1 5,0 1,-1 4,0 1,1 1,0 1,1 0,3 1,-3 3,0 1,-1 4,0 1,1 0,2 -1,1 0,1 2,-2 1,0 1,1 1,0 1,1 1,1 1,1 0,4 -1,1 0,2 -1,1 0,2 -1,1 0,3 -1,1 0,4 4,0 1,1 1,1 2,0 1,1 2,0 0,-33 -7,0 -1,1 -5,0 -1,1 -3,0 -1,-1 -1,-1 0,-1 -1,-1 0,-5 -1,-1 0,-3 -1,-1 0,-4 1,-1 1,-1 3,0 1,-1 3,0 1,-1 3,0 1,-1 8,0 0,-29 -1,0 -1,1 -2,0 -1,1 -3,0 -1,1 -4,0 -1,1 -4,0 -1,1 -1,0 -1,1 -2,0 -1,1 -3,0 -1,1 -2,0 -1,1 -3,0 -1,1 -2,0 -1,1 -4,0 -1,1 -3,0 0,1 5,0 1,1 0,2 -1,1 -7,0 -1,-1 -1,-1 0,-1 -1,-1 0,1 -1,1 -2,0 -1,1 -2,0 -1,1 -2,0 -1,1 -4,0 -1,1 -2,0 -1,1 -2,0 -1,1 -2,0 -1,1 -4,0 -1,-1Z"/>
<path onmouseover="hoverPath(evt)" onmouseout="recoverPath(evt)" fill="rgb(241,240,234)" d="M  194,152l -3,0 0,2 -1,1 1,1 2,0 1,1 0,1 1,1 1,1 0,2 -1,1 1,1 0,1 1,1 1,1 0,1 1,1 0,1 1,0 1,1 0,1 1,1 1,1 0,2 1,1 0,1 1,0 1,1 1,1 0,1 1,1 5,0 -6,-3 0,-1 1,-1 3,0 1,-1 4,0 1,-1 2,0 1,-1 3,0 1,-1 2,0 1,-1 3,0 1,-1 2,0 1,-1 1,0 1,-1 4,0 1,-1 4,0 1,-1 3,0 1,-1 2,0 1,-1 2,0 0,-16 -4,0 -1,-1 -1,-1 0,-2 1,-1 -1,-1 -2,0 -1,-1 0,-1 -1,-1 -1,-1 -1,-1 0,-1 -1,-1 -1,-1 0,-1 -1,-1 -1,-1 0,-1 -1,-1 -1,-1 0,-1 -1,-1 0,-2 1,-1 -1,-1 -2,0 -1,-1 -1,-1 0,-2 1,-1 -1,-1 0,0 -1,-1 0,-1 -1,0 -1,1 -4,0 -1,1 -6,0 -1,1 -4,0 -1,-1 -2,0 0,2 -1,1 -4,0 -1,-1 -2,0 -1,1 -3,0 -1,1 4,0 1,1 1,0 1,1 0,1 1,1 0,1 1,1 1,1 0,1 1,1 1,1 0,1 1,1 1,1 0,1 1,1 1,1 0,1 1,1 1,1 0,1 1,1 0,1 1,1 0,2 -1,1 -1,1 -5,0 -1,1 -3,0 -1,1 -6,0 -1,-1 0,1 -1,1 -2,0 -1,1 53,0 1,1 0,2 -1,1 -2,0 -1,-1 0,-2 1,-1Z"/>
<path onmouseover="hoverPath(evt)" onmouseout="recoverPath(evt)" fill="rgb(244,243,237)" d="M  212,44l -2,0 1,1 0,2 1,1 0,1 1,1 0,1 1,1 0,1 1,1 0,1 1,1 3,0 1,-1 1,0 1,-1 2,0 0,-4 1,-1 2,0 1,-1 1,0 1,-1 2,0 1,-1 1,0 1,-1 2,0 1,-1 4,0 1,1 0,1 1,-1 1,0 0,-3 1,-1 2,0 1,-1 1,0 1,-1 4,0 0,-8 -1,0 -1,1 -2,0 -1,1 -1,0 -1,1 -2,0 -1,1 -2,0 -1,1 -2,0 -1,1 -2,0 -1,1 -3,0 -1,1 -2,0 -1,1 -2,0 -1,1 -3,0 -1,1 -3,0 -1,1 -4,0 -1,1Z"/>
<path onmouseover="hoverPath(evt)" onmouseout="recoverPath(evt)" fill="rgb(195,213,237)" d="M  0,21l 0,5 3,0 1,1 0,-1 1,-1 1,0 1,-1 4,0 0,-15 -1,-1 0,-8 -10,0Z"/>
<path onmouseover="hoverPath(evt)" onmouseout="recoverPath(evt)" fill="rgb(244,243,237)" d="M  21,1l 0,1 1,1 0,21 1,1 0,6 1,1 0,6 1,1 0,5 1,1 0,2 1,1 0,2 1,1 3,0 0,-1 -1,-1 0,-12 -1,-1 0,-10 -1,-1 0,-10 -1,-1 0,-10 -1,-1 0,-3 -4,0 -1,1Z"/>
<path onmouseover="hoverPath(evt)" onmouseout="recoverPath(evt)" fill="rgb(172,197,230)" d="M  29,217l 0,0 1,1 1,1 0,3 -1,1 0,6 -1,1 0,2 -1,1 0,4 -1,1 0,4 -1,1 0,3 1,0 2,2 1,1 0,6 9,0 0,-6 -1,-1 0,-25 1,-1 0,-64 1,-1 0,-35 -1,-1 0,-9 -1,-1 0,-9 -1,-1 0,-9 -1,-1 0,-12 -1,-1 -1,0 -1,-1 -1,-1 0,-5 -1,-1 0,-4 -1,-1 0,-1 -1,-1 0,-1 -7,0 0,5 1,1 0,3 1,1 0,4 1,1 0,4 1,1 0,4 1,1 0,5 1,1 0,3 1,1 0,5 1,1 0,6 1,1 0,4 1,1 0,13 -1,1 -1,1 -6,0 -1,-1 -3,0 -1,-1 -1,0 -1,-1 -2,0 -1,-1 -3,0 -1,-1 -1,0 -1,-1 -1,-1 -2,0 -1,-1 -4,0 0,2 4,0 1,1 1,0 1,1 1,1 0,2 9,0 1,1 5,0 6,87 -4,-86 4,0 1,1 1,1 0,22 1,1 0,7 1,1 0,31 -1,1 0,3 1,1 0,3 -1,1 0,7 -1,1 -2,0 -1,-1 -2,0 -1,-1 -1,0 -1,-1 0,-1 -1,-1 0,-3 1,-1 1,-1 0,-4 -3,0 -1,-1 0,-2 -1,-1 0,-9 1,-1 1,-1 0,-1 1,-1 0,-1 1,-1 2,-2 -12,0 0,9 1,1 0,1 1,1 1,1 0,2 1,1 0,2 2,0 6,-64 4,86 -9,-19 0,4 1,1 0,4 -1,1 0,1 1,1 2,0 2,2 0,3 -1,1 -4,0 -1,1 -11,0 1,1 3,0 8,-1 8,0 -8,-19 9,19Z"/>
<path onmouseover="hoverPath(evt)" onmouseout="recoverPath(evt)" fill="rgb(236,238,234)" d="M  40,21l 0,2 -1,1 -1,0 0,1 1,1 0,2 19,0 1,-1 2,0 0,-12 -1,-1 0,-5 -10,0 -1,1 -1,0 0,9 -1,1 -1,0 -1,1Z"/>
<path onmouseover="hoverPath(evt)" onmouseout="recoverPath(evt)" fill="rgb(242,241,233)" d="M  47,109l 0,7 1,1 0,6 1,1 0,2 2,0 1,1 3,0 1,1 3,0 1,1 3,0 1,1 3,0 1,1 3,0 1,1 4,0 1,1 3,0 1,1 3,0 1,1 2,0 -1,-1 0,-6 -1,-1 0,-8 1,-1 7,0 1,-1 4,0 1,1 1,0 0,-6 -1,-1 0,-13 -1,-1 0,-7 -1,-1 0,-1 -1,-1 0,-2 -1,-1 0,-13 -1,-1 0,-4 -1,-1 0,-8 -8,0 -1,1 -8,0 -1,1 -9,0 -1,-1 -5,0 0,1 -1,1 -7,0 -1,1 -9,0 0,8 -1,1 0,5 2,0 1,1 0,9 1,1 0,11 1,1 0,5 -1,1 0,1 1,0 1,1Z"/>
<path onmouseover="hoverPath(evt)" onmouseout="recoverPath(evt)" fill="rgb(172,199,238)" d="M  79,237l 0,6 1,0 1,1 1,0 1,-1 16,0 0,-5 -1,-1 0,-3 1,-1 0,-5 -21,0 0,6 1,1Z"/>
<path onmouseover="hoverPath(evt)" onmouseout="recoverPath(evt)" fill="rgb(245,244,237)" d="M  95,1l 0,0 1,1 0,1 1,1 1,1 10,0 1,-1 3,0 1,-1 2,0 1,-1 2,0 1,-1 2,0 0,-1 -25,0 -1,1Z"/>
<path onmouseover="hoverPath(evt)" onmouseout="recoverPath(evt)" fill="rgb(173,196,229)" d="M  118,4l -1,0 -1,1 -2,0 -1,1 -3,0 -1,1 -12,0 -1,-1 -1,-1 -1,-1 0,-1 -1,-1 0,-2 -6,0 0,2 1,1 0,1 1,1 0,1 1,1 0,1 1,1 1,1 0,1 1,1 0,1 1,1 0,4 -1,1 -1,1 -1,0 0,2 1,1 0,5 1,0 1,1 0,13 1,0 1,1 0,1 12,0 -5,-1 0,-1 -1,-1 0,-7 -1,-1 0,-2 -1,-1 0,-3 -1,-1 0,-10 1,-1 1,-1 1,-1 2,0 1,-1 3,0 1,-1 5,0 1,-1 2,0 1,1 1,1 4,0 0,-5 1,-1 1,0 1,-1 1,-1 1,-1 1,0 1,-1 1,0 1,-1 1,0 1,-1 -11,0 0,2 -1,1 -2,0 -1,1Z"/>
<path onmouseover="hoverPath(evt)" onmouseout="recoverPath(evt)" fill="rgb(243,242,233)" d="M  181,0l -2,0 0,2 -1,1 0,1 1,1 0,1 2,0 1,1 0,1 1,1 0,1 1,1 0,2 1,1 0,1 1,1 0,1 1,1 0,2 1,1 0,1 1,1 0,2 1,1 0,1 1,1 0,1 1,1 0,1 1,1 0,1 6,0 -1,-1 0,-3 -1,-1 0,-5 -1,-1 0,-2 -1,-1 0,-5 -1,-1 0,-3 -1,-1 0,-3 -1,-1 0,-5Z"/>
<path onmouseover="hoverPath(evt)" onmouseout="recoverPath(evt)" fill="rgb(170,198,236)" d="M  194,1l 0,3 1,1 0,3 1,1 0,3 1,1 0,5 1,1 0,2 1,1 0,5 1,1 0,3 1,1 0,2 1,-1 2,0 0,-3 -1,-1 0,-2 -1,-1 0,-2 -1,-1 0,-2 -1,-1 0,-2 -1,-1 0,-5 -1,-1 0,-3 -1,-1 0,-2 -1,-1 0,-3 1,-1 -2,0 -1,1Z"/>
<path onmouseover="hoverPath(evt)" onmouseout="recoverPath(evt)" fill="rgb(242,241,232)" d="M  0,202l 0,30 10,0 1,-1 13,0 1,1 0,3 -1,1 2,0 0,-4 1,-1 0,-2 1,-1 0,-6 1,-1 0,-1 -1,-1 -14,0 -1,1 -5,0 -1,-1 -1,-1 0,-2 1,-1 11,0 1,-1 4,0 0,-1 -1,-1 -2,0 -1,-1 -1,-1 0,-3 1,-1 0,-2 -1,-1 0,-6 -2,0 -1,-1 0,-2 -15,0Z"/>
<path onmouseover="hoverPath(evt)" onmouseout="recoverPath(evt)" fill="rgb(241,240,234)" d="M  23,127l 1,0 1,1 4,0 1,-1 0,-11 -1,-1 0,-4 -1,-1 0,-6 -1,-1 0,-5 -1,-1 0,-3 -1,-1 0,-5 -1,-1 0,-4 -1,-1 0,-4 -1,-1 0,-4 -1,-1 0,-3 -1,-1 0,-4 -3,0 -1,1 -8,0 -1,1 -7,0 0,54 5,0 1,1 2,0 1,1 1,1 1,0 1,1 3,0 1,1 2,0 1,1 1,0 1,1Z"/>
<path onmouseover="hoverPath(evt)" onmouseout="recoverPath(evt)" fill="rgb(244,243,236)" d="M  21,186l 0,7 1,1 0,2 3,0 1,1 0,6 -1,1 -1,1 0,1 1,1 0,1 1,0 1,1 2,0 1,1 0,-7 1,-1 0,-1 -1,-1 0,-5 1,-1 0,-29 -1,-1 0,-7 -1,-1 0,-22 -1,-1 -4,0 -1,-1 -6,0 -1,-1 -9,0 -1,-1 0,-2 -1,-1 -1,0 -1,-1 -3,0 0,66 14,0 0,-1 -1,-1 0,0 -1,-1 0,-1 -1,-1 0,-11 1,-1 14,0 1,1 0,2 -1,1 -1,1 -1,1 0,1 -1,1 0,1 -1,1 -1,1Z"/>
<path onmouseover="hoverPath(evt)" onmouseout="recoverPath(evt)" fill="rgb(242,242,235)" d="M  39,30l 0,6 1,1 0,9 1,1 0,3 1,-1 4,0 0,-2 -1,-1 0,-13 1,-1 5,0 1,-1 10,0 1,1 0,4 1,1 0,7 1,1 0,1 4,0 1,-1 5,0 1,-1 10,0 1,-1 5,0 0,-13 -1,0 -1,-1 0,-5 -1,-1 0,-4 1,-1 1,0 1,-1 0,-2 -1,-1 0,-1 -1,-1 0,-1 -1,-1 -1,-1 0,-1 -1,-1 0,-1 -1,-1 0,-1 -1,-1 0,-3 -49,0 0,4 1,1 0,9 1,1 0,7 1,-3 5,0 1,-1 1,0 0,-9 1,-1 1,0 1,-1 12,0 1,1 0,5 1,1 0,14 -1,1 -2,0 -1,1Z"/>
<path onmouseover="hoverPath(evt)" onmouseout="recoverPath(evt)" fill="rgb(236,238,234)" d="M  47,34l 0,11 1,1 0,2 6,0 1,-1 4,0 1,-1 3,0 -1,-1 0,-7 -1,-1 0,-4 -8,0 -1,1Z"/>
<path onmouseover="hoverPath(evt)" onmouseout="recoverPath(evt)" fill="rgb(171,198,237)" d="M  141,190l 0,4 5,0 1,1 2,0 1,-1 0,0 1,-1 0,-3 1,-1 1,0 1,-1 2,0 1,-1 2,0 1,-1 6,0 1,1 1,0 1,-1 7,0 1,1 2,0 1,-1 2,0 1,-1 2,0 1,-1 2,0 1,-1 4,0 1,-1 2,0 1,-1 2,0 1,-1 2,0 0,-2 -1,0 -1,1 -2,0 -1,1 -5,0 -1,1 -5,0 -1,1 -2,0 -1,1 -21,0 -1,1 -2,0 -1,1 -2,0 -1,1 -1,0 -1,1 -1,0 -1,1 -1,0 -1,1 -1,0 -1,1 -3,0 -1,-1 -1,1 0,-4 -1,-1 0,-1 -1,-1 -1,-1 -1,-1 0,-1 -1,-1 -1,-1 -1,-1 -1,-1 0,-1 -5,-5 -1,-1 -1,-1 -1,-1 0,-1 -1,-1 -1,-1 0,-1 -1,-1 0,-1 -1,-1 -1,-1 0,-1 -1,-1 0,-1 -1,-1 0,-1 -1,-1 -1,-1 0,-1 -1,-1 0,-1 -1,-1 0,-1 -1,-1 -1,-1 0,-2 -12,0 -1,-1 -5,0 -1,-1 -4,0 4,1 5,1 1,0 4,1 0,1 1,1 0,3 1,1 0,1 1,1 1,1 1,1 2,0 1,1 1,0 1,1 0,1 1,1 1,1 1,1 1,1 1,1 0,1 1,1 1,1 0,1 1,1 1,1 0,1 1,1 1,1 0,1 1,1 1,1 0,1 1,1 1,1 1,1 1,1 0,1 1,1 1,1 1,1 1,0 1,1 1,1 1,0 1,1 1,0 1,1 1,0Z"/>
<path onmouseover="hoverPath(evt)" onmouseout="recoverPath(evt)" fill="rgb(186,206,233)" d="M  149,10l 0,0 1,1 0,1 1,1 0,2 1,0 1,1 6,0 1,-1 2,0 1,-1 1,0 1,-1 1,0 1,-1 4,0 1,1 1,0 1,1 0,3 1,1 0,2 1,1 0,1 1,1 0,1 1,1 0,2 1,1 0,7 1,1 9,0 0,-2 -1,-1 0,-3 1,-1 -1,-1 0,-1 -1,-1 0,-2 -1,-1 0,-1 -1,-1 0,-2 -1,-1 0,-1 -1,-1 0,-1 -1,-1 0,-2 -1,-1 0,-1 -1,-1 0,-1 -2,0 -1,-1 0,-1 -1,-1 0,-3 1,-1 0,-1 -5,0 0,5 -1,1 -2,0 0,1 -1,1 -1,1 -1,0 -1,1 -2,0 -1,1 -1,0 -1,1 -1,0 -1,1 -3,0 -1,-1 -2,-2 -1,-1 -1,0 -1,1Z"/>
<path onmouseover="hoverPath(evt)" onmouseout="recoverPath(evt)" fill="rgb(183,206,238)" d="M  194,123l -1,0 -1,-1 -2,0 -1,1 -3,0 -1,1 -3,0 -1,1 -3,0 -1,1 -4,0 -1,1 -2,0 -1,1 3,0 1,1 1,1 0,1 1,1 1,1 0,2 1,0 1,1 1,1 0,1 1,1 0,1 1,1 1,1 0,1 1,1 1,1 0,1 1,1 1,1 0,1 1,1 0,1 1,1 1,1 0,-2 1,-1 3,0 1,-1 2,0 0,-1 1,-1 2,0 1,1 4,0 1,-1 3,0 1,-1 5,0 1,-1 -1,-1 0,-1 -1,-1 0,-1 -1,-1 -1,-1 0,-1 -1,-1 -1,-1 0,-1 -1,-1 -1,-1 0,-1 -1,-1 -1,-1 0,-1 -1,-1 -1,-1 0,-1 -1,-1 0,-1 -1,0 -1,-1Z"/>
<path onmouseover="hoverPath(evt)" onmouseout="recoverPath(evt)" fill="rgb(244,243,236)" d="M  198,2l 0,1 1,1 0,2 1,1 0,3 1,1 0,5 1,1 0,2 1,1 0,2 1,1 0,2 1,1 0,2 1,1 0,2 3,0 1,-1 3,0 1,-1 3,0 1,-1 3,0 1,-1 2,0 1,-1 3,0 1,-1 2,0 1,-1 2,0 1,-1 2,0 1,-1 2,0 1,-1 2,0 1,-1 2,0 1,-1 1,0 1,-1 1,0 1,-1 4,0 0,-17 -56,0 0,1 -1,1Z"/>
<path onmouseover="hoverPath(evt)" onmouseout="recoverPath(evt)" fill="rgb(241,240,229)" d="M  202,46l -2,0 -1,1 0,1 1,1 0,1 1,1 0,2 1,1 0,1 1,1 0,2 1,1 0,1 1,1 0,2 1,1 2,0 1,-1 0,-8 -1,-1 0,-1 -1,-1 0,-1 -1,-1 0,-1 -1,-1 0,-1 -1,-1Z"/>
<path onmouseover="hoverPath(evt)" onmouseout="recoverPath(evt)" fill="rgb(237,238,234)" d="M  229,58l 0,0 1,1 0,1 1,1 0,1 1,1 0,1 1,1 1,1 0,1 1,1 0,1 1,1 0,1 1,1 0,3 -1,1 0,1 1,0 1,1 1,-1 0,-1 1,-1 1,0 1,-1 2,0 1,-1 1,0 1,-1 2,0 1,-1 1,0 1,-1 3,0 0,-21 -3,0 -1,1 -1,0 -1,1 -1,0 -1,1 -1,0 -1,1 -2,0 -1,1 -2,0 -1,1 -1,0 -1,1 -3,0 -1,1 -3,0 -1,1Z"/>
<path onmouseover="hoverPath(evt)" onmouseout="recoverPath(evt)" fill="rgb(175,201,237)" d="M  235,202l 0,2 1,1 0,3 1,1 0,5 1,1 0,1 1,1 1,0 1,-1 5,0 1,-1 8,0 0,-17 -7,0 -1,1 -3,0 -1,1 -3,0 -1,1 -3,0 -1,1Z"/>
<path onmouseover="hoverPath(evt)" onmouseout="recoverPath(evt)" fill="rgb(244,234,140)" d="M  0,59l 0,5 6,0 1,-1 8,0 1,-1 4,0 0,-1 1,-1 9,0 1,1 0,1 1,1 0,1 1,1 0,4 1,1 0,5 1,1 1,0 1,1 1,1 0,12 1,1 0,9 1,1 0,5 3,0 0,-3 1,-1 0,-3 -1,-1 0,-11 -1,-1 0,-9 -2,0 -1,-1 0,-7 1,-1 0,-8 1,-1 9,0 1,-1 7,0 0,-1 1,-1 6,0 1,-1 3,0 0,-7 -8,0 -1,1 -4,0 -1,1 -7,0 -1,1 -4,0 -1,1 -2,0 -1,-1 0,-3 -1,-1 0,-9 -1,-1 0,-10 -1,-1 0,-10 -1,-1 0,-9 -1,-1 0,-5 -6,0 0,2 1,1 0,10 1,1 0,10 1,1 0,10 1,1 0,12 1,1 0,3 -1,1 -4,0 0,1 -1,1 -4,0 -1,1 -4,0 -1,-1 -5,0 -1,1 -8,0 -1,1 -2,0Z"/>
<path onmouseover="hoverPath(evt)" onmouseout="recoverPath(evt)" fill="rgb(244,244,236)" d="M  0,239l 0,16 28,0 0,-5 -1,-1 0,0 -1,-1 -1,0 -1,-1 0,-5 1,-1 0,-3 -6,0 -1,-1 0,-2 1,-1 4,0 0,-1 -11,0 -1,1 -11,0Z"/>
<path onmouseover="hoverPath(evt)" onmouseout="recoverPath(evt)" fill="rgb(178,203,237)" d="M  6,27l 0,3 -1,1 -2,0 -1,-1 0,-2 -2,0 0,27 1,0 1,-1 8,0 1,-1 7,0 1,1 2,0 1,-1 4,0 0,-1 -1,-1 0,-2 -1,-1 0,-2 -1,-1 0,-5 -1,-1 0,-6 -1,-1 0,-6 -1,-1 0,-21 -1,-1 0,-3 -7,0 0,7 1,1 0,17 -1,1 -4,0 -1,1Z"/>
<path onmouseover="hoverPath(evt)" onmouseout="recoverPath(evt)" fill="rgb(226,234,245)" d="M  61,131l -2,0 -1,-1 -3,0 -1,-1 -3,0 -1,-1 -2,0 2,1 0,4 2,0 1,1 3,0 1,1 9,0 1,1 1,0 1,1 3,0 1,1 4,0 1,1 6,0 1,1 2,0 1,-1 6,0 1,1 5,0 1,1 13,0 1,-1 -11,0 -1,-1 -1,-1 0,-10 -1,11 -3,0 -1,-1 -5,0 -1,-1 -7,0 -1,-1 -3,0 -1,-1 -3,0 -1,-1 -4,0 -1,-1 -3,0 -1,-1 -3,0 -1,-1Z"/>
<path onmouseover="hoverPath(evt)" onmouseout="recoverPath(evt)" fill="rgb(236,238,234)" d="M  78,179l -1,1 0,6 -1,1 0,11 -1,1 0,2 2,0 1,1 16,0 0,-22 -9,0 -1,-1Z"/>
<path onmouseover="hoverPath(evt)" onmouseout="recoverPath(evt)" fill="rgb(193,212,239)" d="M  91,219l -5,0 -1,-1 -10,0 -1,-1 0,-1 -2,0 -1,-1 -10,0 -1,-1 -1,0 -1,1 0,3 1,1 8,0 1,1 7,0 1,1 1,1 0,1 1,1 0,2 21,0 0,-2 -1,-1 0,-2 1,-1 0,-1 -8,0 9,1 0,0 -9,-1Z"/>
<path onmouseover="hoverPath(evt)" onmouseout="recoverPath(evt)" fill="rgb(244,243,236)" d="M  105,63l 0,1 -1,1 0,2 1,1 0,5 1,1 0,10 1,1 0,3 2,0 1,-1 2,0 1,-1 3,0 1,-1 3,0 1,-1 2,0 1,-1 3,0 1,-1 2,0 1,-1 3,0 1,-1 3,0 1,-1 2,0 1,-1 13,0 1,-1 2,0 1,-1 2,0 1,-1 3,0 1,-1 2,0 1,-1 3,0 1,-1 3,0 1,-1 3,0 1,-1 3,0 1,-1 2,0 1,-1 3,0 1,-1 1,0 -1,-1 0,-1 -1,-1 0,-2 -1,-1 0,-1 -1,-1 0,-3 -1,-1 0,-2 -1,-1 0,-1 -1,-1 -1,-1 0,-1 -3,0 -1,1 -10,0 -1,1 -10,0 -1,1 -9,0 -1,1 -10,0 -1,1 -10,0 -1,1 -10,0 -1,1 -11,0 -1,-1 -1,0 1,1 0,0 6,1 1,0 1,1 0,3 -1,1 -3,0 -1,1 -1,0 -1,1Z"/>
<path onmouseover="hoverPath(evt)" onmouseout="recoverPath(evt)" fill="rgb(244,243,235)" d="M  106,95l 0,7 1,1 0,2 1,1 0,5 -1,1 0,3 1,1 0,3 1,1 0,2 1,1 0,5 1,1 0,3 1,1 0,5 6,0 1,-1 6,0 1,1 2,0 0,-2 1,-1 3,0 1,-1 3,0 1,-1 4,0 1,1 2,0 0,-2 1,-1 3,0 1,-1 3,0 1,-1 4,0 1,1 2,0 0,-2 1,-1 3,0 1,-1 3,0 1,-1 2,0 1,-1 4,0 1,-1 3,0 1,-1 3,0 1,-1 3,0 1,-1 3,0 1,-1 3,0 1,-1 3,0 1,-1 4,0 1,1 2,0 0,-2 1,-1 4,0 1,1 2,0 0,-2 1,-1 2,0 0,-2 -1,-1 0,-2 -1,-1 0,-1 -1,-1 0,-2 -1,-1 0,-1 -1,-1 0,-2 -1,-1 0,-1 -1,-1 0,-2 -1,-1 0,-1 -1,-1 0,-1 -1,-1 0,-2 -1,-1 0,-1 -1,-1 0,-2 -1,-1 0,-1 -1,-1 0,-2 -1,-1 0,-1 -1,-1 0,-2 -1,-1 -1,1 -1,0 -1,1 -1,0 -1,1 -2,0 -1,1 -1,0 -1,1 -9,0 -1,1 -2,0 -1,1 -1,0 1,1 0,5 -1,1 1,1 1,1 0,2 1,1 0,2 1,1 0,2 1,1 0,4 -1,1 -2,0 -1,1 -3,0 -1,1 -5,0 -1,-1 -1,-1 0,-2 -1,-1 0,-2 -1,-1 0,-2 -1,-1 0,-4 -2,0 -1,1 -4,0 -1,1 -2,0 -1,-1 -1,-1 0,-2 -1,-1 0,-1 -3,0 -1,1 -3,0 -1,1 -2,0 -1,1 -3,0 -1,1 -3,0 -1,1 -2,0 -1,1 -3,0 -1,1 -2,0 -1,1 -3,0 -1,1 -2,0 -1,1 -4,0 -1,1 -4,0 -1,1Z"/>
<path onmouseover="hoverPath(evt)" onmouseout="recoverPath(evt)" fill="rgb(239,239,233)" d="M  168,36l 4,0 1,-1 4,0 0,-6 -1,-1 0,-2 -1,-1 0,-1 -1,-1 0,-1 -1,-1 0,-2 -1,-1 0,-3 -1,0 -1,-1 -2,0 -1,1 -1,0 -1,1 -1,0 -1,1 -2,0 -1,1 -8,0 -1,-1 -1,0 -1,-1 0,-2 -1,-1 0,-1 -1,-1 0,-3 1,-1 4,0 1,1 1,1 1,1 1,1 1,0 1,-1 1,0 1,-1 1,0 1,-1 2,0 1,-1 1,0 1,-1 0,-1 1,-1 2,0 0,-4 -34,0 0,1 -1,1 -1,1 -1,0 -1,1 -1,0 -1,1 -1,0 -1,1 -1,1 -1,1 -1,0 0,5 -1,1 -6,0 -1,-1 -1,-1 -1,1 -5,0 -1,1 -3,0 -1,1 -2,0 -1,1 -1,1 0,8 1,1 0,3 1,1 0,2 1,1 0,7 1,1 0,1 3,0 1,-1 10,0 1,-1 10,0 1,-1 10,0 1,-1 9,0 1,-1 10,0 1,-1Z"/>
<path onmouseover="hoverPath(evt)" onmouseout="recoverPath(evt)" fill="rgb(238,240,237)" d="M  174,242l -1,1 -13,0 -1,-1 -1,0 -1,-1 -1,0 -1,-1 -1,-1 0,3 1,1 0,2 1,1 0,2 1,1 0,2 1,1 0,3 77,0 0,-3 1,-1 1,-1 1,-1 0,-1 -2,0 -1,-1 0,-5 -1,3 -5,0 -1,-1 -1,0 -1,-1 -1,-1 0,-1 -5,0 -1,-1 -3,0 -1,-1 -4,0 -1,-1 -3,0 -1,1 -13,0 -1,1 -5,0 -1,1 -5,0 -1,1Z"/>
<path onmouseover="hoverPath(evt)" onmouseout="recoverPath(evt)" fill="rgb(178,202,232)" d="M  211,55l 0,9 -1,1 -1,1 -2,0 1,1 0,2 1,1 0,2 1,1 0,2 1,1 0,1 1,1 2,0 1,-1 0,0 1,-1 3,0 1,-1 1,0 0,-1 -1,-1 -1,0 -1,-1 -1,0 -1,-1 0,-1 -1,-1 -1,-1 0,-2 -1,-1 0,-4 1,-1 1,0 1,-1 1,0 1,-1 -3,0 -1,-1 -1,-1 0,-1 -1,-1 -1,1 0,-4 -1,-1 0,-1 -1,-1 0,-2 -1,-1 0,-2 -1,1 -1,0 0,1 1,1 0,1 1,1 0,1 1,1 0,1 1,1 1,0Z"/>
<path onmouseover="hoverPath(evt)" onmouseout="recoverPath(evt)" fill="rgb(244,242,234)" d="M  215,82l -2,0 1,1 0,2 1,1 0,1 1,1 0,2 1,1 0,1 1,1 0,2 1,1 0,1 1,1 0,2 1,1 0,1 1,1 0,1 1,1 0,2 1,1 0,1 1,1 0,1 1,0 1,1 2,0 1,1 2,0 1,1 0,1 1,1 1,1 0,2 -1,1 1,1 2,0 1,1 1,1 0,2 -1,1 1,1 0,1 1,1 1,1 0,1 1,1 1,1 0,1 1,1 1,1 0,1 2,2 2,0 1,1 0,1 1,1 1,1 0,2 -1,1 1,1 3,0 0,-18 -3,0 -2,-2 0,-1 -1,-1 -1,-1 -1,-1 0,-1 -1,-1 -1,-1 -1,-1 0,-1 -1,-1 -1,-1 0,-2 1,-1 1,-1 3,0 1,-1 7,0 0,-8 -2,0 -1,-1 -1,-1 -1,-1 -1,-1 -1,0 -1,-1 -1,-1 -1,-1 -1,-1 -1,-1 -1,-1 0,-1 -1,0 -1,-1 -1,-1 -1,-1 -1,-1 -1,-1 -1,0 -1,-1 -1,-1 -1,0 -1,-1 -1,0 -1,-1 -5,0 -1,-1 -1,-1 0,-3 1,-1 1,-1 6,0 1,1 2,2 1,0 1,1 2,0 1,1 0,1 1,0 1,1 1,1 1,1 1,1 1,1 0,1 1,0 1,1 3,0 1,1 0,2 1,0 1,1 1,1 1,1 1,0 0,-23 -2,0 -1,1 -1,0 -1,1 -2,0 -1,1 -1,0 -1,1 -2,0 -1,1 -1,0 0,1 -1,1 -1,1 -1,0 -23,2 21,-3 -1,0 -1,-1 -1,-1 0,-2 1,-1 1,0 0,-1 -1,-1 0,-1 -1,-1 0,-1 -1,-1 0,-1 -1,-1 -1,-1 0,-1 -1,-1 0,-1 -1,-1 0,-1 -1,-1 0,-1 -2,0 -1,1 -3,0 -1,1 -1,0 -1,1 -1,0 -1,1 -1,0 0,2 1,1 0,2 1,1 1,1 0,1 1,0 1,1 1,0 1,1 1,1 0,3 13,3 -21,3 6,-5 -1,1 -3,0 -1,1 0,2 5,-4 -6,5Z"/>
<path onmouseover="hoverPath(evt)" onmouseout="recoverPath(evt)" fill="rgb(254,254,254)" d="M  220,115l 3,0 1,-1 4,0 -3,-1 -1,0 -1,-1 0,-1 -1,-1 0,-1 -1,-1 0,-2 -1,-1 0,-1 -1,-1 0,-1 -1,-1 0,-2 -1,-1 0,-1 -1,-1 0,-2 -1,-1 0,-1 -1,-1 0,-2 -1,-1 0,-1 -1,-1 0,-2 -1,-1 0,-2 1,-1 -1,0 -1,-1 0,0 -1,-1 0,-1 -1,-1 0,-2 -1,-1 0,-2 -1,-1 0,-2 -1,-1 0,-1 -1,-1 -1,-1 0,-2 -1,-1 0,-1 -1,-1 0,-2 -1,-1 0,-1 -1,-1 0,-2 -1,-1 0,-1 -1,-1 0,-2 -1,-1 -1,0 0,2 1,1 0,1 1,1 0,2 1,1 0,1 1,1 0,1 1,1 0,2 1,1 0,2 1,1 0,1 1,1 0,2 1,1 1,1 0,2 1,1 0,1 1,1 0,2 1,1 0,1 1,1 0,2 1,1 0,1 1,1 0,2 1,1 0,1 1,1 0,1 1,1 0,2 1,1 0,1 1,1 0,2 1,1 0,1 1,1 0,2 1,1 0,1 1,1 0,2 1,1 0,4 -1,1Z"/>
<path onmouseover="hoverPath(evt)" onmouseout="recoverPath(evt)" fill="rgb(190,210,236)" d="M  226,55l 0,0 -1,1 2,0 1,-1 4,0 1,-1 3,0 1,-1 1,0 1,-1 2,0 1,-1 2,0 1,-1 1,0 1,-1 1,0 1,-1 1,0 1,-1 4,0 0,-6 -3,0 -1,1 -1,0 -1,1 -2,0 0,3 -1,1 -1,0 -1,1 -2,0 -1,-1 0,-1 -2,0 -1,1 -2,0 -1,1 -1,0 -1,1 -2,0 -1,1 -1,0 -1,1 -2,0 0,4 -2,1 -1,0 -1,1 1,0 1,-1 2,-1Z"/>
<path onmouseover="hoverPath(evt)" onmouseout="recoverPath(evt)" fill="rgb(174,199,235)" d="M  244,91l 0,1 1,1 1,1 1,1 1,1 1,1 1,0 1,1 1,1 1,1 1,1 1,0 0,-4 -2,0 -1,-1 -1,-1 -1,-1 -1,0 -1,-1 0,-2 -4,0 -1,-1 -1,-1 0,1 -1,-1 1,-1 0,0 -1,-1 0,0 -1,-1 -1,-1 -1,-1 -1,0 -1,-1 0,-1 -2,0 -1,-1 -1,0 -1,-1 -1,-1 -1,-1 -4,0 -1,1 0,1 1,1 5,0 1,1 1,0 1,1 1,0 1,1 1,1 1,0 1,1 1,1 1,1 1,0 -1,-1 -1,-1 -1,-1 -2,-1 -3,-2 -2,-1 12,9 1,1Z"/>
<path onmouseover="hoverPath(evt)" onmouseout="recoverPath(evt)" fill="rgb(170,198,238)" d="M  244,115l 0,0 1,1 1,1 0,1 1,1 1,1 1,1 0,1 1,1 1,1 1,1 0,1 1,1 2,0 0,-14 -6,0 -1,1 -3,0 -1,1Z"/>
</svg>