<svg width="256" height="256" xmlns="http://www.w3.org/2000/svg"><script> 
var tempColor;
function hoverPath(evt){
obj = evt.target;
tempColor = obj.getAttribute("fill");
obj.setAttribute("fill","red");
//alert(tempColor);
//obj.setAttribute("stroke","red");}
function recoverPath(evt){
obj = evt.target;
obj.setAttribute("fill", tempColor);
//obj.setAttribute("stroke", tempColor);
}</script><path onmouseover="hoverPath(evt)" onmouseout="recoverPath(evt)" fill="rgb(248,236,138)" d="M  0,192l 0,3 3,0 1,-1 8,0 1,-1 8,0 1,-1 9,0 1,-1 7,0 1,-1 8,0 1,-1 7,0 1,-1 7,0 1,-1 8,0 1,-1 8,0 1,-1 8,0 1,-1 8,0 1,-1 8,0 1,-1 8,0 1,-1 7,0 1,-1 8,0 1,-1 7,0 1,-1 8,0 1,-1 8,0 1,-1 7,0 1,-1 8,0 1,-1 7,0 1,-1 8,0 1,-1 7,0 1,-1 8,0 1,-1 7,0 1,-1 10,0 1,-1 4,0 1,-1 7,0 1,-1 10,0 0,-5 -4,0 -1,1 -8,0 -1,1 -8,0 -1,1 -6,0 -1,1 -7,0 -1,1 -8,0 -1,1 -7,0 -1,1 -8,0 -1,1 -7,0 -1,1 -9,0 -1,1 -6,0 -1,1 -8,0 -1,1 -7,0 -1,1 -8,0 -1,1 -7,0 -1,1 -8,0 -1,1 -8,0 -1,1 -7,0 -1,1 -8,0 -1,1 -8,0 -1,1 -8,0 -1,1 -8,0 -1,1 -8,0 -1,1 -7,0 -1,1 -8,0 -1,1 -7,0 -1,1 -8,0 -1,1 -7,0 0,1 -1,1 -4,0 -1,-1 -5,0 -1,1 -8,0Z"/>
<path onmouseover="hoverPath(evt)" onmouseout="recoverPath(evt)" fill="rgb(248,248,242)" d="M  0,230l 0,1 5,0 1,1 0,2 1,1 0,2 1,1 0,2 1,1 0,2 1,1 0,2 1,1 0,1 1,1 0,1 1,1 0,1 1,1 0,2 2,0 0,-1 -1,-1 0,0 -1,-1 0,-1 -1,-1 0,-1 -1,-1 0,-2 -1,-1 0,-1 -1,-1 0,-2 -1,-1 0,-2 -1,-1 0,-3 -1,-1 0,-6 -1,-1 0,-4 -1,-1 0,-5 -1,-1 0,-5 -1,-1 0,-8 -1,-1 0,-3 -2,0Z"/>
<path onmouseover="hoverPath(evt)" onmouseout="recoverPath(evt)" fill="rgb(244,243,236)" d="M  6,203l -1,0 0,5 1,1 0,5 1,1 0,5 1,1 0,4 1,1 0,6 1,1 0,3 1,1 0,2 1,1 0,2 1,1 0,1 1,1 0,2 1,1 0,1 1,1 0,1 1,1 1,1 0,2 77,0 0,-2 -1,-1 0,-2 -1,-1 0,-1 -1,-1 0,-1 -1,-1 0,-2 -1,-1 0,-1 -1,-1 0,-1 -1,-1 0,-1 -1,-1 0,-2 -1,-1 0,-1 -1,-1 0,-1 -1,-1 0,-2 -1,-1 0,-1 -1,-1 0,-1 -1,-1 0,-2 -1,-1 0,-1 -1,-1 0,-1 -1,-1 0,-1 -1,-1 0,-2 -1,-1 0,-1 -1,-1 0,-1 -1,-1 0,-2 -1,-1 0,-1 -1,-1 0,-2 -1,-1 0,-2 -10,0 -1,1 -7,0 -1,1 -8,0 -1,1 -7,0 -1,1 -8,0 -1,1 -7,0 -1,1 -4,0 -1,1Z"/>
<path onmouseover="hoverPath(evt)" onmouseout="recoverPath(evt)" fill="rgb(244,243,235)" d="M  158,248l 0,0 -1,-1 -1,0 -1,1 -2,0 0,2 1,1 0,1 1,1 0,2 79,0 0,-2 1,-1 1,-1 1,-1 1,-1 1,0 1,-1 1,-1 1,-1 1,-1 1,-1 1,-1 1,-1 1,-1 1,-1 1,-1 1,-1 1,0 1,-1 1,-1 2,0 0,-10 -2,0 -1,-1 0,-1 -8,0 -1,1 -6,0 -1,1 -6,0 -1,1 -8,0 -1,-1 -3,0 0,2 -1,1 -3,0 -1,-1 -2,0 -1,1 -1,0 -1,1 -1,0 0,2 -1,1 -3,0 -1,-1 -2,0 -1,1 -1,0 -1,1 -2,0 0,2 -1,1 -3,0 -1,-1 -1,0 -1,1 -2,0 -1,1 -1,0 -1,1 -2,0 -1,1 -4,0 -1,1 -1,1 -2,0 -1,1 -2,0 -1,1 -2,0 -1,1 -2,0 0,2 -1,1Z"/>
<path onmouseover="hoverPath(evt)" onmouseout="recoverPath(evt)" fill="rgb(174,198,227)" d="M  237,170l -1,0 0,1 1,1 0,1 1,1 3,0 1,-1 8,0 1,-1 4,0 0,-4 -9,0 -1,1 -7,0 -1,1Z"/>
<path onmouseover="hoverPath(evt)" onmouseout="recoverPath(evt)" fill="rgb(202,217,237)" d="M  236,254l 0,1 19,0 0,-17 -1,0 -1,1 0,0 -1,1 -1,0 -1,1 -2,2 -1,1 -5,5 -1,1 -1,1 -1,0 -1,1 -2,2Z"/>
<path onmouseover="hoverPath(evt)" onmouseout="recoverPath(evt)" fill="rgb(171,198,237)" d="M  0,149l 0,1 5,0 1,-1 9,0 1,1 0,26 -1,1 0,10 1,1 2,0 0,-12 1,-1 0,-9 1,-1 0,-10 1,-1 0,-12 1,-1 0,-15 1,-1 0,-5 -4,0 0,10 -1,1 0,10 -1,1 0,1 -1,1 -1,1 -1,0 -1,1 -1,0 -1,1 -4,0 -1,1 -5,0 -1,1Z"/>
<path onmouseover="hoverPath(evt)" onmouseout="recoverPath(evt)" fill="rgb(244,243,235)" d="M  0,1l 0,45 3,0 1,-1 1,-1 0,-1 2,-2 1,-1 0,-1 1,-1 1,-1 1,-1 0,-1 1,-1 1,-1 1,-1 0,-1 1,-1 1,-1 1,-1 0,-2 1,-1 1,0 1,-1 1,-1 0,-4 1,-1 1,-1 1,0 0,-2 1,-1 1,-1 1,0 1,-1 1,0 1,-1 0,-2 1,-1 1,0 1,-1 1,-1 0,-1 1,-1 1,-1 1,-1 0,-2 -36,0 -1,1Z"/>
<path onmouseover="hoverPath(evt)" onmouseout="recoverPath(evt)" fill="rgb(241,241,235)" d="M  0,61l 0,85 5,0 1,-1 4,0 1,-1 1,0 1,-1 1,0 1,-1 0,-1 1,-1 0,-10 1,-1 0,-10 1,-1 5,0 0,-6 1,-1 0,-1 -5,0 -1,-1 0,-4 1,-1 0,-4 1,-1 0,-5 1,-1 0,-2 1,-1 0,-3 1,-1 0,-12 1,-1 0,-5 -1,-1 0,-1 -1,-1 -1,-1 -1,0 -1,-1 -5,0 -1,-1 -4,0 -1,-1 -3,0 -1,-1 -3,0 -1,1Z"/>
<path onmouseover="hoverPath(evt)" onmouseout="recoverPath(evt)" fill="rgb(244,243,237)" d="M  0,153l 0,35 7,0 1,-1 5,0 0,-11 1,-1 0,-24 -7,0 -1,1 -5,0 -1,1Z"/>
<path onmouseover="hoverPath(evt)" onmouseout="recoverPath(evt)" fill="rgb(241,240,229)" d="M  0,235l 0,20 12,0 0,-1 -1,-1 0,-1 -1,-1 0,-1 -1,-1 0,-1 -1,-1 0,-2 -1,-1 0,-2 -1,-1 0,-2 -1,-1 0,-2 -1,-1 0,-2 -4,0Z"/>
<path onmouseover="hoverPath(evt)" onmouseout="recoverPath(evt)" fill="rgb(173,198,229)" d="M  4,197l 0,2 1,1 0,1 7,0 1,-1 4,0 1,-1 7,0 1,-1 8,0 1,-1 7,0 1,-1 8,0 1,-1 7,0 1,-1 12,0 1,1 0,2 1,1 0,2 1,1 0,1 1,1 0,2 1,1 0,1 1,1 0,1 1,1 0,2 1,1 0,1 1,1 0,1 1,1 0,1 1,1 0,2 1,1 0,1 1,1 0,1 1,1 0,2 1,1 0,1 1,1 0,1 1,1 0,2 1,1 0,1 1,1 0,1 1,1 0,1 1,1 0,2 1,1 0,1 1,1 0,1 1,1 0,2 1,1 0,3 4,0 0,-1 -1,-1 0,-2 -1,-1 0,-1 -1,-1 0,-1 -1,-1 0,-2 -1,-1 0,-1 -1,-1 0,-1 -1,-1 0,-1 -1,-1 0,-2 -1,-1 0,-1 -1,-1 0,-1 -1,-1 0,-1 -1,-1 0,-2 -1,-1 0,-1 -1,-1 0,-1 -1,-1 0,-2 -1,-1 0,-1 -1,-1 0,-1 -1,-1 0,-1 -1,-1 0,-2 -1,-1 0,-1 -1,-1 0,-1 -1,-1 0,-2 -1,-1 0,-1 -1,-1 0,-1 -1,-1 0,-4 1,-1 1,-1 8,0 1,-1 8,0 1,-1 7,0 1,-1 8,0 1,-1 8,0 1,-1 8,0 1,-1 8,0 1,-1 7,0 1,-1 8,0 1,-1 8,0 1,-1 8,0 1,-1 6,0 1,-1 7,0 1,-1 8,0 1,-1 8,0 1,-1 7,0 1,-1 8,0 1,-1 6,0 0,-1 -1,-1 0,-2 -8,0 -1,1 -7,0 -1,1 -8,0 -1,1 -7,0 -1,1 -8,0 -1,1 -7,0 -1,1 -8,0 -1,1 -7,0 -1,1 -8,0 -1,1 -8,0 -1,1 -7,0 -1,1 -8,0 -1,1 -7,0 -1,1 -8,0 -1,1 -8,0 -1,1 -8,0 -1,1 -8,0 -1,1 -8,0 -1,1 -8,0 -1,1 -7,0 -1,1 -7,0 -1,1 -8,0 -1,1 -7,0 -1,1 -9,0 -1,1 -8,0 -1,1 -8,0 -1,1Z"/>
<path onmouseover="hoverPath(evt)" onmouseout="recoverPath(evt)" fill="rgb(244,243,236)" d="M  25,115l 0,11 -1,1 0,15 -1,1 0,12 -1,1 0,10 -1,1 0,9 -1,1 0,9 6,0 1,-1 8,0 1,-1 7,0 1,-1 8,0 1,-1 7,0 1,-1 8,0 1,-1 8,0 1,-1 8,0 1,-1 8,0 1,-1 8,0 1,-1 7,0 1,-1 8,0 1,-1 8,0 1,-1 7,0 1,-1 8,0 1,-1 7,0 1,-1 8,0 1,-1 6,0 1,-1 9,0 1,-1 7,0 1,-1 8,0 1,-1 7,0 1,-1 8,0 1,-1 7,0 1,-1 6,0 1,-1 8,0 1,-1 8,0 1,-1 5,0 0,-115 -3,0 -1,1 -3,0 -1,1 -3,0 -1,1 -2,0 -1,1 -2,0 -1,1 -4,0 -1,1 -23,0 -1,-1 -13,0 -1,-1 -2,0 -1,-1 -2,0 -1,-1 -2,0 -1,-1 -2,0 -1,-1 -2,0 -1,-1 -2,0 -1,-1 -2,0 -1,-1 -3,0 -1,-1 -3,0 -1,-1 -3,0 -1,-1 -8,0 -1,-1 -9,0 -1,-1 -15,0 -1,-1 -2,0 -1,1 -1,0 -1,1 0,3 -1,1 -1,1 0,1 -2,2 -1,1 -1,0 -1,1 -1,1 -1,0 -1,1 -1,1 -1,0 -1,1 -1,0 -2,2 -2,0 -1,1 -2,0 -1,1 -3,0 -1,1 -1,0 -1,1 -6,0 -1,1 -4,0 -1,1 -2,0 -1,1 -17,0 -1,-1 -4,0 -1,-1 -3,0 -1,-1 -2,0 -1,-1 -4,0 -1,-1 -1,0 -1,1 -4,0 -1,1 -2,2 0,1 -1,1 0,1 -1,1 0,4 -1,1 0,6 -1,1 0,5 -1,1 0,6 -1,1 0,7 -1,1 0,7 -1,1 0,8 -1,1Z"/>
<path onmouseover="hoverPath(evt)" onmouseout="recoverPath(evt)" fill="rgb(250,250,245)" d="M  41,1l 0,-1 -2,0 0,3 -2,2 -1,1 0,1 -1,1 -1,1 -1,1 -1,0 0,2 -1,1 -1,1 -1,0 -1,1 -1,0 -1,1 0,2 -1,1 -1,0 -1,1 0,4 -1,1 -1,1 -1,1 -1,0 0,2 -2,2 -1,1 0,1 -1,1 -1,1 -1,1 0,1 -1,1 -1,1 -1,1 0,1 -1,1 -1,1 -1,1 0,1 -2,2 -1,1 -4,0 0,7 1,0 1,-1 0,-1 1,-1 0,-1 1,-1 1,-1 1,0 1,-1 1,0 1,-1 0,-2 1,-1 1,0 1,-1 0,-2 1,-1 1,0 1,-1 0,-4 1,-1 1,-1 1,-1 0,-1 3,-3 1,0 0,-2 1,-1 1,-1 1,-1 0,-1 1,-1 2,-2 1,0 0,-2 1,-1 1,-1 1,0 0,-2 1,-1 1,-1 1,-1 0,-1 1,-1 1,-1 1,-1 0,-1 1,-1 1,-1 1,-1Z"/>
<path onmouseover="hoverPath(evt)" onmouseout="recoverPath(evt)" fill="rgb(173,198,235)" d="M  68,56l -7,0 -1,-1 -3,0 -1,-1 -2,0 -1,-1 -2,0 -1,-1 -5,0 -1,-1 -4,0 -1,1 -4,0 -1,1 -1,0 -1,1 -1,1 -2,2 -1,0 -1,1 -12,0 -1,-1 -5,0 -1,-1 -5,0 -1,1 -2,0 0,1 5,0 1,1 3,0 1,1 4,0 1,1 5,0 1,1 1,0 1,1 1,1 1,1 0,1 1,1 0,7 -1,1 0,12 -1,1 0,3 -1,1 0,2 -1,1 0,5 -1,1 0,4 -1,1 0,2 4,0 0,-5 1,-1 0,-7 1,-1 0,-7 1,-1 0,-6 1,-1 0,-5 1,-1 0,-6 1,-1 0,-4 1,-1 0,-1 1,-1 0,-1 1,-1 1,-1 1,-1 1,-1 4,0 1,-1 3,0 1,1 4,0 1,1 2,0 1,1 3,0 1,1 4,0 1,1 12,0 0,-2Z"/>
<path onmouseover="hoverPath(evt)" onmouseout="recoverPath(evt)" fill="rgb(244,243,236)" d="M  78,195l 0,2 1,1 0,1 1,1 0,1 1,1 0,2 1,1 0,1 1,1 0,1 1,1 0,2 1,1 0,1 1,1 0,1 1,1 0,1 1,1 0,2 1,1 0,1 1,1 0,1 1,1 0,2 1,1 0,1 1,1 0,1 1,1 0,1 1,1 0,2 1,1 0,1 1,1 0,1 1,1 0,1 1,1 0,2 1,1 0,1 1,1 0,1 1,1 0,2 1,1 0,2 50,0 0,-1 -1,-1 0,-1 -1,-1 0,-4 1,-1 2,0 1,-1 3,0 1,1 1,0 0,-2 1,-1 2,0 1,-1 2,0 1,-1 2,0 1,-1 2,0 2,-2 4,0 1,-1 2,0 1,-1 1,0 1,-1 2,0 1,-1 3,0 1,1 1,0 0,-2 1,-1 2,0 1,-1 1,0 1,-1 4,0 1,1 1,0 0,-2 1,-1 1,0 1,-1 1,0 1,-1 4,0 1,1 1,0 0,-2 1,-1 5,0 1,1 6,0 1,-1 6,0 1,-1 6,0 0,-2 1,-1 5,0 1,-1 1,0 -1,-1 0,-1 -1,-1 0,-2 -1,-1 0,-1 -2,0 -1,-1 0,-2 1,-1 0,-1 -2,0 -1,-1 0,-2 1,-1 0,-1 -1,-1 0,-1 -1,-1 0,-1 -1,-1 0,-2 -2,0 -1,-1 0,-2 1,-1 0,-1 -2,0 -1,-1 0,-2 1,-1 0,-1 -1,-1 0,-1 -1,-1 0,-1 -1,-1 0,-2 -1,-1 -6,0 -1,1 -8,0 -1,1 -7,0 -1,1 -8,0 -1,1 -8,0 -1,1 -7,0 -1,1 -6,0 -1,1 -8,0 -1,1 -8,0 -1,1 -8,0 -1,1 -7,0 -1,1 -8,0 -1,1 -8,0 -1,1 -8,0 -1,1 -8,0 -1,1 -7,0 -1,1 -8,0 -1,1 -8,0 -1,1Z"/>
<path onmouseover="hoverPath(evt)" onmouseout="recoverPath(evt)" fill="rgb(223,226,226)" d="M  97,34l 0,0 -1,-1 -3,0 -1,-1 -4,0 0,1 -1,1 0,10 1,1 0,4 -1,1 0,3 -1,1 -4,0 -1,1 -5,0 0,3 1,0 1,-1 2,0 1,-1 4,0 1,-1 6,0 1,-1 1,0 0,-2 1,-1 1,0 1,-1 1,-1 1,0 1,-1 1,0 1,-1 1,0 1,-1 1,0 1,-1 1,-1 1,0 2,-2 1,0 1,-1 0,-1 1,-1 0,-2 -1,0 -1,-1 -3,0 -1,-1 -5,0 -1,-1Z"/>
<path onmouseover="hoverPath(evt)" onmouseout="recoverPath(evt)" fill="rgb(170,197,236)" d="M  107,47l -1,1 -1,0 -1,1 -1,0 -1,1 -1,0 -1,1 -1,0 -1,1 -1,1 1,0 1,-1 2,0 1,-1 2,0 1,-1 1,-1 1,0 1,-1 -1,-1 2,-1 0,0 1,1 0,0 1,-1 1,0 1,-1 1,-1 1,0 1,-1 1,-1 0,-1 1,-1 1,-1 0,-3 1,-1 1,-1 1,0 1,-1 4,0 1,1 15,0 1,1 9,0 1,1 8,0 1,1 3,0 1,1 3,0 1,1 3,0 1,1 2,0 1,1 2,0 1,1 2,0 1,1 2,0 1,1 2,0 1,1 2,0 1,1 2,0 1,1 13,0 1,1 21,0 1,-1 4,0 1,-1 2,0 1,-1 2,0 1,-1 3,0 1,-1 3,0 1,-1 4,0 0,-4 -4,0 -1,1 -4,0 -1,1 -3,0 -1,1 -4,0 -1,1 -9,0 -1,1 -3,0 -1,-1 -14,0 -1,-1 -5,0 -1,-1 -3,0 -1,-1 -3,0 -1,-1 -2,0 -1,-1 -1,0 -1,-1 -1,0 -1,-1 -2,0 -1,-1 -1,0 -1,-1 -2,0 -1,-1 -1,0 -1,-1 -1,0 -1,-1 -2,0 -1,-1 -1,0 -1,-1 -1,-1 0,-5 1,-1 0,-3 1,-1 0,-2 1,-1 0,-2 1,-1 0,-3 1,-1 0,-2 1,-1 0,-2 1,-1 0,-1 -3,0 0,4 -1,1 0,3 -1,1 0,2 -1,1 0,2 -1,1 0,3 -1,1 0,2 -1,1 0,2 -1,1 -1,1 -7,0 -1,1 -25,0 -1,-1 -6,0 -1,-1 -5,0 -1,-1 -6,0 -1,-1 -5,0 -1,-1 -10,0 -1,-1 -8,0 -1,-1 -8,0 -1,-1 -3,0 -1,-1 -5,0 0,1 -1,1 0,1 -1,1 0,3 1,1 3,0 1,1 5,0 1,1 5,0 1,1 5,0 1,1 6,0 1,1 3,0 1,1 4,0 1,1 5,0 1,1 3,0 1,1 1,0 1,1 0,4 -1,1 0,1 -1,1 -1,1 -1,0 -1,1 -1,1 -2,1Z"/>
<path onmouseover="hoverPath(evt)" onmouseout="recoverPath(evt)" fill="rgb(243,242,235)" d="M  111,21l 0,0 1,1 6,0 1,1 5,0 1,1 6,0 1,1 23,0 1,-1 7,0 1,-1 0,-2 1,-1 0,-2 1,-1 0,-3 1,-1 0,-2 1,-1 0,-2 1,-1 0,-3 1,-1 0,-3 -127,0 0,3 -1,1 -1,1 -1,1 0,1 -1,1 -2,2 0,1 -3,3 0,2 -1,1 -1,0 -1,1 0,2 -1,1 -1,0 -1,1 -1,1 0,1 -1,1 -1,1 -1,1 0,2 -1,1 -1,0 -1,1 -1,1 0,1 -1,1 -2,2 0,4 -1,1 -1,1 -1,0 0,2 -1,1 -1,1 -1,0 0,2 -1,1 -1,1 -1,0 -1,1 -1,0 -1,1 0,1 -1,1 5,0 1,1 5,0 1,1 10,0 1,-1 1,0 1,-1 1,-1 1,-1 1,-1 1,0 1,-1 4,0 1,-1 6,0 1,1 5,0 1,1 2,0 1,1 2,0 1,1 3,0 1,1 12,0 1,-1 5,0 1,-1 4,0 0,-3 1,-1 0,-2 -1,-1 0,-12 1,-1 -1,-1 -5,0 -1,-1 -5,0 -1,-1 -5,0 -1,-1 -3,0 -1,-1 -1,-1 0,-5 1,-1 0,-1 1,-1 0,-1 1,-1 7,0 1,1 3,0 1,1 8,0 1,1 8,0 1,1 10,0 1,1Z"/>
<path onmouseover="hoverPath(evt)" onmouseout="recoverPath(evt)" fill="rgb(244,243,237)" d="M  177,1l 0,1 -1,1 0,2 -1,1 0,2 -1,1 0,3 -1,1 0,2 -1,1 0,2 -1,1 0,3 -1,1 0,3 1,1 1,0 1,1 2,0 1,1 1,0 1,1 1,0 1,1 2,0 1,1 1,0 1,1 2,0 1,1 1,0 1,1 1,0 1,1 2,0 1,1 3,0 1,1 3,0 1,1 5,0 1,1 14,0 1,1 1,0 1,-1 9,0 1,-1 4,0 1,-1 3,0 1,-1 4,0 1,-1 5,0 0,-36 -77,0 -1,1Z"/>
<path onmouseover="hoverPath(evt)" onmouseout="recoverPath(evt)" fill="rgb(252,252,250)" d="M  232,171l 0,1 1,1 0,2 1,1 1,1 0,2 1,1 0,1 1,1 0,1 1,1 0,3 -1,1 2,0 1,1 0,3 -1,1 2,0 1,1 0,2 1,1 0,1 1,1 0,1 1,1 0,3 -1,1 2,0 1,1 0,3 -1,1 2,0 1,1 0,1 1,1 0,2 1,1 0,1 1,1 0,2 -1,1 -1,0 -1,1 4,0 1,1 0,1 1,0 0,-6 -2,0 -1,-1 0,-2 -1,-1 0,-1 -1,-1 0,-2 -1,-1 0,-1 -1,-1 0,-1 -1,-1 0,-2 -1,-1 0,-1 -1,-1 0,-2 -1,-1 0,-1 -1,-1 0,-2 -1,-1 0,-1 -1,-1 0,-1 -1,-1 0,-2 -1,-1 0,-1 -1,-1 0,-2 -1,-1 0,-1 -1,-1 0,-3 -1,-1 0,-1 -1,-1 0,-2 -1,0 -1,1Z"/>
<path onmouseover="hoverPath(evt)" onmouseout="recoverPath(evt)" fill="rgb(242,241,232)" d="M  240,176l -2,0 0,1 1,1 0,1 1,1 0,2 1,1 0,1 1,1 0,2 1,1 0,1 1,1 0,1 1,1 0,2 1,1 0,1 1,1 0,2 1,1 0,1 1,1 0,2 1,1 0,1 1,1 0,1 1,1 0,2 1,1 0,1 1,1 0,2 1,0 0,-42 -3,0 -1,1 -8,0 -1,1Z"/>
</svg>