<svg width="256" height="256" xmlns="http://www.w3.org/2000/svg"><script> 
var tempColor;
function hoverPath(evt){
obj = evt.target;
tempColor = obj.getAttribute("fill");
obj.setAttribute("fill","red");
//alert(tempColor);
//obj.setAttribute("stroke","red");}
function recoverPath(evt){
obj = evt.target;
obj.setAttribute("fill", tempColor);
//obj.setAttribute("stroke", tempColor);
}</script><path onmouseover="hoverPath(evt)" onmouseout="recoverPath(evt)" fill="rgb(171,198,237)" d="M  0,14l 0,5 9,0 1,-1 11,0 1,-1 11,0 1,-1 10,0 1,-1 9,0 1,-1 10,0 1,-1 13,0 1,-1 11,0 1,-1 10,0 1,-1 11,0 1,-1 8,0 1,-1 12,0 1,-1 11,0 1,-1 10,0 1,-1 10,0 1,-1 11,0 1,-1 11,0 1,-1 12,0 1,-1 3,0 0,-1 -83,0 0,2 -1,1 -8,0 -1,1 -12,0 -1,1 -12,0 -1,1 -11,0 -1,1 -11,0 -1,1 -11,0 -1,1 -12,0 -1,1 -11,0 -1,1 -11,0 -1,1 -10,0 -1,1 -7,0 -1,1Z"/>
<path onmouseover="hoverPath(evt)" onmouseout="recoverPath(evt)" fill="rgb(244,243,235)" d="M  0,144l 0,40 5,0 1,-1 9,0 1,-1 1,0 1,-1 0,-23 1,-1 0,-2 -1,0 -1,-1 -1,-1 0,-5 1,-1 0,-5 -1,0 -1,-1 -6,0 -1,1 -8,0Z"/>
<path onmouseover="hoverPath(evt)" onmouseout="recoverPath(evt)" fill="rgb(244,243,237)" d="M  0,190l 0,65 13,0 0,-5 1,-1 0,-15 1,-1 0,-15 1,-1 0,-14 1,-1 0,-13 -1,-1 -5,0 -1,1 -9,0 -1,1Z"/>
<path onmouseover="hoverPath(evt)" onmouseout="recoverPath(evt)" fill="rgb(244,243,234)" d="M  24,158l 0,12 -1,1 0,22 1,1 1,1 10,0 1,1 1,0 1,-1 11,0 1,-1 4,0 1,-1 3,0 1,-1 4,0 1,-1 3,0 1,-1 4,0 1,-1 4,0 1,-1 4,0 1,-1 4,0 1,-1 4,0 1,-1 4,0 1,-1 4,0 1,-1 4,0 1,-1 4,0 1,-1 3,0 1,-1 3,0 1,-1 3,0 1,-1 3,0 1,-1 2,0 1,-1 3,0 1,-1 3,0 1,-1 2,0 1,-1 3,0 1,-1 3,0 1,-1 2,0 1,-1 3,0 1,-1 2,0 0,-8 -8,0 -1,1 -8,0 -1,1 -9,0 -1,-1 -17,0 -1,-1 -15,0 -1,-1 -17,0 -1,-1 -17,0 -1,-1 -17,0 -1,-1 -12,0 -1,-1 -7,0Z"/>
<path onmouseover="hoverPath(evt)" onmouseout="recoverPath(evt)" fill="rgb(242,242,235)" d="M  27,115l -1,0 0,2 -1,1 0,1 -1,1 -2,0 0,5 1,1 0,1 1,1 0,4 -1,1 0,14 1,0 1,1 0,3 9,0 1,1 12,0 1,1 17,0 1,1 4,0 1,-1 1,0 0,-3 1,-1 2,0 1,1 0,2 1,1 0,1 6,0 1,1 17,0 1,1 15,0 1,1 31,0 1,-1 7,0 1,-1 4,0 0,-3 1,-1 0,-1 1,-1 0,-1 1,-1 0,-2 1,-1 -1,-1 0,-2 -1,0 -1,-1 0,-1 -1,-1 -1,-1 -1,-1 0,-3 1,-1 -1,-1 0,-1 -1,-1 -1,-1 -1,0 -1,1 -2,0 -1,-1 -1,-1 -1,-1 -1,-1 -1,0 -1,-1 -1,-1 -1,-1 -1,0 -1,-1 -1,-1 -1,0 -1,-1 -1,-1 -1,0 -1,-1 -1,-1 -1,0 -1,-1 -1,-1 -1,0 -1,-1 -1,-1 -1,0 -1,-1 -1,0 -1,-1 -1,-1 -1,0 -1,-1 -1,0 -1,-1 -1,0 -1,-1 -1,-1 -1,0 -1,-1 -1,0 -1,-1 -1,0 -1,-1 -1,-1 -1,0 -1,-1 -1,0 -1,-1 -1,0 -1,-1 -1,-1 -1,0 -1,-1 -1,0 -1,-1 -1,0 -1,-1 0,-3 -1,-1 -10,0 -1,1 -9,0 -1,1 -7,0 -1,1 -5,0 -1,1 -3,0 0,8 -1,1 -1,0 -1,1 -17,0 0,2 -1,1 -1,1 -1,1 -1,0 -1,1 -1,0 0,1 -1,1 -1,1 -1,0 -1,1 -2,0 -1,1Z"/>
<path onmouseover="hoverPath(evt)" onmouseout="recoverPath(evt)" fill="rgb(170,198,238)" d="M  41,248l 0,0 -1,1 0,1 -1,1 0,2 -1,1 0,1 28,0 -1,-1 -1,0 -1,-1 -1,0 -1,-1 -1,0 -1,-1 -2,0 -1,-1 -2,0 -1,-1 -2,0 -1,-1 -3,0 -1,-1 -4,0 -1,1Z"/>
<path onmouseover="hoverPath(evt)" onmouseout="recoverPath(evt)" fill="rgb(243,242,235)" d="M  43,97l 0,1 4,0 1,1 0,2 -1,1 9,0 1,-1 1,0 0,-8 1,-1 3,0 1,-1 5,0 1,-1 7,0 1,-1 9,0 1,-1 12,0 1,1 1,1 1,0 1,1 1,0 1,1 3,0 1,1 1,0 1,1 1,0 1,1 1,1 1,0 1,1 1,0 1,1 1,0 1,1 1,1 1,0 1,1 1,0 1,1 1,1 1,0 1,1 1,0 1,1 1,0 1,1 1,1 1,0 1,1 1,0 1,1 1,1 1,0 1,1 1,0 1,1 1,1 1,0 1,1 1,1 1,0 1,1 1,1 1,1 1,1 1,1 1,0 1,1 1,1 1,1 1,1 1,1 0,1 1,0 1,1 1,1 1,1 0,1 1,1 0,1 1,0 1,1 1,1 1,1 0,2 1,0 1,1 0,1 1,1 0,1 1,1 1,1 1,1 2,0 1,-1 3,0 1,-1 2,0 1,-1 2,0 1,-1 3,0 1,-1 2,0 1,-1 2,0 1,-1 2,0 1,-1 3,0 1,-1 2,0 1,-1 2,0 1,-1 2,0 1,-1 3,0 0,-3 -1,-1 0,-6 -1,-1 0,-6 -1,-1 0,-5 -1,-1 0,-6 -1,-1 0,-6 -1,-1 0,-8 -1,-1 0,-56 1,-1 0,-2 1,-1 0,-3 1,-1 0,-2 1,-1 0,-3 1,-1 0,-4 -1,-1 0,-6 -3,0 -1,1 -12,0 -1,1 -11,0 -1,1 -11,0 -1,1 -10,0 -1,1 -10,0 -1,1 -11,0 -1,1 -12,0 -1,1 -8,0 -1,1 -11,0 -1,1 -10,0 -1,1 -11,0 -1,1 -13,0 -1,1 -10,0 -1,1 -9,0 -1,1 -10,0 -1,1 -11,0 -1,1 -11,0 -1,1 -10,0 0,116 17,0 0,-4 -1,-1 0,-3 1,-1 0,-1 1,-1 0,-5 -1,-1 -1,-1 -2,0 -1,-1 0,-3 1,-1 5,0 0,-2 1,-1 1,0 1,-1 0,-2 1,-1 0,-3 -1,-1 0,-1 -1,0 -1,-1 0,-2 1,-1 6,0 1,-1 1,-1 6,0 1,-1 3,0 1,1 2,0 1,1Z"/>
<path onmouseover="hoverPath(evt)" onmouseout="recoverPath(evt)" fill="rgb(243,242,233)" d="M  222,135l -1,0 0,10 1,1 0,8 1,0 1,1 1,-1 30,0 0,-1 -2,0 -1,-1 0,-5 -1,-1 0,-7 1,-1 0,-9 -1,-1 0,-1 -3,0 -1,1 -3,0 -1,1 -2,0 -1,1 -3,0 -1,1 -2,0 -1,1 -2,0 -1,1 -1,0 -1,1 -3,0 -1,1Z"/>
<path onmouseover="hoverPath(evt)" onmouseout="recoverPath(evt)" fill="rgb(244,243,237)" d="M  243,254l -2,0 0,1 14,0 0,-72 -1,0 -1,1 0,1 -2,2 0,1 -1,1 0,3 -1,1 0,11 1,1 0,19 1,1 0,22 -1,1 0,1 -1,1 -1,1 -1,1 -1,0 -1,1 -1,0 -1,1Z"/>
<path onmouseover="hoverPath(evt)" onmouseout="recoverPath(evt)" fill="rgb(244,243,237)" d="M  0,1l 0,10 7,0 1,-1 10,0 1,-1 11,0 1,-1 11,0 1,-1 12,0 1,-1 11,0 1,-1 11,0 1,-1 11,0 1,-1 12,0 1,-1 12,0 1,-1 8,0 0,-1 -125,0 -1,1Z"/>
<path onmouseover="hoverPath(evt)" onmouseout="recoverPath(evt)" fill="rgb(253,253,253)" d="M  18,131l 1,1 0,6 -1,1 -18,0 0,1 18,0 1,1 0,7 -1,1 0,3 1,1 1,0 1,1 11,0 1,1 12,0 1,1 17,0 1,1 17,0 1,1 17,0 1,1 15,0 1,1 17,0 1,1 7,0 1,-1 8,0 1,-1 12,0 1,-1 5,0 1,-1 10,0 1,-1 10,0 1,-1 7,0 1,-1 5,0 1,-1 5,0 1,-1 5,0 1,1 1,1 0,11 1,1 0,53 -1,1 0,24 -1,1 0,10 1,0 0,-8 1,-1 0,-23 1,-1 0,-27 1,-1 0,-6 -1,-1 0,-23 -1,-1 0,-4 1,-1 1,-1 0,-1 -1,0 -1,-1 0,-8 -1,-1 0,-14 -1,-1 0,-3 -1,-1 0,-6 -1,-1 0,-6 -1,-1 0,-6 -1,-1 0,-6 -1,-1 0,-6 -1,-1 0,-7 -1,-1 0,-53 1,-1 0,-3 1,-1 0,-2 1,-1 0,-3 1,-1 0,-3 1,-1 0,-7 -1,-1 0,-7 -2,0 0,1 1,1 0,6 1,1 0,6 -1,1 0,3 -1,1 0,2 -1,1 0,3 -1,1 0,2 -1,1 0,54 1,1 0,8 1,1 0,6 1,1 0,6 1,1 0,5 1,1 0,6 1,1 0,6 1,1 0,8 1,1 0,12 -1,1 -1,0 -1,1 -4,0 -1,1 -5,0 -1,1 -5,0 -1,1 -7,0 -1,1 -9,0 -1,1 -16,0 -1,1 -4,0 -1,1 -7,0 -1,1 -33,0 -1,-1 -15,0 -1,-1 -17,0 -1,-1 -6,0 -1,-1 0,-1 -1,-1 0,1 -1,1 -1,0 -1,1 -6,0 -1,-1 -17,0 -1,-1 -12,0 -1,-1 -9,0 -1,-1 0,-3 -1,0 -1,-1 0,-16 1,-1 0,-2 -1,-1 0,-1 -1,0 -1,1 0,1 -1,1 0,1 205,26 7,0 1,-1 -5,0 -3,1 -205,-26Z"/>
<path onmouseover="hoverPath(evt)" onmouseout="recoverPath(evt)" fill="rgb(205,212,219)" d="M  24,101l 0,1 1,1 0,5 -1,1 0,2 -1,1 -1,1 -1,0 0,2 -1,1 -5,0 0,1 2,0 1,1 1,1 1,1 0,-1 1,-1 2,0 0,-1 1,-1 0,-2 1,-1 1,0 1,-1 2,0 1,-1 1,0 1,-1 0,-1 1,-1 1,0 1,-1 1,0 1,-1 1,-1 0,-2 1,-1 6,0 0,-1 1,-1 -4,0 -1,-1 0,-1 -2,0 -1,-1 -1,0 -1,1 -6,0 -1,1 -1,1 -3,0 -1,1 -1,-1 0,0 1,1Z"/>
<path onmouseover="hoverPath(evt)" onmouseout="recoverPath(evt)" fill="rgb(244,243,236)" d="M  24,205l 0,0 -1,1 0,2 -1,1 0,6 -1,1 0,13 -1,1 0,22 -1,1 0,2 17,0 0,-2 1,-1 0,-2 1,-1 0,-1 1,-1 0,-1 1,-1 7,0 1,1 3,0 1,1 2,0 1,1 2,0 1,1 2,0 1,1 1,0 1,1 1,0 1,1 1,0 2,2 0,1 148,0 0,-11 1,-1 0,-24 1,-1 0,-51 -1,-1 0,-11 -1,-1 -3,0 -1,1 -5,0 -1,1 -5,0 -1,1 -7,0 -1,1 -10,0 -1,1 -10,0 -1,1 -5,0 1,1 0,2 1,1 0,3 1,1 0,2 -1,1 -1,1 -1,1 -1,0 -1,1 -2,0 -1,1 -1,0 -1,1 -3,0 -1,1 -3,0 -1,1 -2,0 -1,1 -3,0 -1,1 -2,0 -1,1 -3,0 -1,1 -3,0 -1,1 -3,0 -1,1 -4,0 -1,1 -3,0 -1,1 -4,0 -1,1 -3,0 -1,1 -4,0 -1,1 -3,0 -1,1 -4,0 -1,1 -4,0 -1,1 -4,0 -1,1 -4,0 -1,1 -4,0 -1,1 -3,0 -1,1 -4,0 -1,1 -4,0 -1,1 -4,0 -1,1 -7,0 -1,1 -8,0 -1,1 -4,0 -1,1 -4,0 -1,1 -3,0 -1,1 -1,0 -1,1 104,44 -2,0 -1,-1 0,-2 1,-1 2,0 1,1 0,2 -1,1 -104,-44 75,-5 2,0 1,1 0,1 1,1 0,2 -1,1 -2,0 -1,-1 0,-1 -1,-1 0,-2 1,-1 -75,5 97,33 -2,0 -1,-1 0,-2 1,-1 2,0 1,1 0,2 -1,1 -97,-33 85,12 1,0 1,1 0,2 -1,1 -2,0 -1,-1 0,-2 1,-1 1,0 -85,-12Z"/>
<path onmouseover="hoverPath(evt)" onmouseout="recoverPath(evt)" fill="rgb(170,198,237)" d="M  88,189l -4,0 -1,1 -4,0 -1,1 -4,0 -1,1 -4,0 -1,1 -3,0 -1,1 -4,0 -1,1 -3,0 -1,1 -4,0 -1,1 -11,0 -1,1 -3,0 -1,-1 -10,0 -1,-1 -1,-1 -1,-1 0,-24 1,-1 0,-13 -1,0 0,2 -1,1 0,23 -1,1 -1,1 -1,0 -1,1 -9,0 -1,1 -6,0 0,1 9,0 1,-1 7,0 1,1 1,1 0,15 -1,1 0,14 -1,1 0,15 -1,1 0,15 -1,1 0,4 2,0 0,-3 1,-1 0,-22 1,-1 0,-13 1,-1 0,-6 1,-1 0,-2 2,-2 1,-1 1,0 1,-1 3,0 1,-1 4,0 1,-1 4,0 1,-1 -1,0 49,-9 -37,8 5,0 1,-1 4,0 1,-1 4,0 1,-1 4,0 1,-1 3,0 1,-1 4,0 1,-1 4,0 1,-1 4,0 1,-1 4,0 1,-1 4,0 1,-1 3,0 1,-1 4,0 1,-1 3,0 1,-1 4,0 1,-1 3,0 1,-1 4,0 1,-1 3,0 1,-1 3,0 1,-1 3,0 1,-1 2,0 1,-1 3,0 1,-1 2,0 1,-1 3,0 1,-1 3,0 1,-1 1,0 1,-1 2,0 1,-1 1,0 2,-2 -1,-1 0,-3 -1,-1 0,-2 -1,-1 -1,0 0,9 -1,1 -2,0 -1,1 -3,0 -1,1 -2,0 -1,1 -3,0 -1,1 -3,0 -1,1 -2,0 -1,1 -3,0 -1,1 -3,0 -1,1 -2,0 -1,1 -3,0 -1,1 -3,0 -1,1 -3,0 -1,1 -3,0 -1,1 -4,0 -1,1 -4,0 -1,1 -4,0 -1,1 -4,0 -1,1 -4,0 -38,9 37,-8Z"/>
<path onmouseover="hoverPath(evt)" onmouseout="recoverPath(evt)" fill="rgb(170,198,238)" d="M  120,103l 0,0 1,1 1,1 1,0 1,1 1,0 1,1 1,0 1,1 1,1 1,0 1,1 1,0 1,1 1,1 1,0 1,1 1,1 1,0 1,1 1,1 1,0 1,1 1,1 1,0 1,1 1,1 1,0 2,2 1,1 1,0 1,1 1,1 1,1 1,1 1,-1 -1,-1 0,0 -1,-1 -1,-1 -1,-1 -1,0 -1,-1 -1,-1 -1,-1 -1,-1 -1,-1 -1,0 -1,-1 -1,-1 -1,0 -1,-1 -1,-1 -1,0 -1,-1 -1,0 -1,-1 -1,-1 -1,0 -1,-1 -1,0 -1,-1 -1,-1 -1,0 -1,-1 -1,0 -1,-1 -1,0 -1,-1 -1,-1 -1,0 -1,-1 -1,1 -1,0 -1,-1 0,0 1,-1 0,0 -1,-1 -1,0 -1,-1 -1,0 -1,-1 -1,0 -1,-1 -1,-1 -1,0 -1,-1 -1,0 -1,-1 -3,0 -1,-1 -1,0 -1,-1 0,1 2,1 2,1 1,0 1,1 1,1 1,0 1,1 1,0 1,1 1,0 1,1 1,1 1,0 1,1 -3,-3 -2,-1 7,5Z"/>
<path onmouseover="hoverPath(evt)" onmouseout="recoverPath(evt)" fill="rgb(170,198,237)" d="M  168,143l 0,2 -1,1 0,2 -1,1 0,1 -1,1 0,1 -1,1 0,1 1,0 0,-1 1,-1 0,-1 1,-1 1,0 1,-1 1,0 1,-1 4,0 1,-1 3,0 1,-1 3,0 1,-1 3,0 1,-1 2,0 1,-1 3,0 1,-1 2,0 1,-1 2,0 1,-1 2,0 1,-1 2,0 1,-1 2,0 1,-1 2,0 1,-1 2,0 0,-2 -2,0 -1,1 -2,0 -1,1 -2,0 -1,1 -2,0 -1,1 -3,0 -1,1 -2,0 -1,1 -2,0 -1,1 -2,0 -1,1 -3,0 -1,1 -2,0 -1,1 -2,0 -1,1 -3,0 -1,1 -4,0 -1,-1 -1,-1 -1,-1 -1,0 -1,-1 1,-1 0,0 -1,-1 0,-1 -1,0 -1,-1 0,-2 -1,-1 -1,-1 -1,0 0,1 1,1 1,1 0,-1 -1,-1 2,4 2,2 0,1 1,1Z"/>
<path onmouseover="hoverPath(evt)" onmouseout="recoverPath(evt)" fill="rgb(240,239,227)" d="M  171,151l -1,0 -1,1 -1,0 0,1 -1,1 12,0 1,-1 9,0 1,-1 7,0 1,-1 5,0 1,-1 5,0 1,-1 4,0 1,-1 1,0 0,-10 -2,0 -1,1 -2,0 -1,1 -2,0 -1,1 -2,0 -1,1 -2,0 -1,1 -2,0 -1,1 -2,0 -1,1 -3,0 -1,1 -2,0 -1,1 -3,0 -1,1 -3,0 -1,1 -3,0 -1,1 -4,0 -1,1Z"/>
<path onmouseover="hoverPath(evt)" onmouseout="recoverPath(evt)" fill="rgb(243,243,235)" d="M  217,3l 0,3 1,1 0,9 -1,1 0,3 -1,1 0,3 -1,1 0,2 -1,1 0,3 -1,1 0,51 1,1 0,7 1,1 0,6 1,1 0,6 1,1 0,6 1,1 0,6 1,1 0,6 1,1 0,3 1,-1 3,0 1,-1 2,0 1,-1 2,0 1,-1 2,0 1,-1 3,0 1,-1 2,0 1,-1 2,0 1,-1 2,0 1,-1 2,0 1,-1 2,0 1,-1 2,0 0,-119 -38,0Z"/>
<path onmouseover="hoverPath(evt)" onmouseout="recoverPath(evt)" fill="rgb(243,242,234)" d="M  223,159l -1,1 0,2 1,1 0,23 1,1 0,8 -1,1 0,27 -1,1 0,23 -1,1 0,7 9,0 0,-2 1,-1 1,-1 1,0 1,-1 1,-1 1,0 1,-1 1,0 1,-1 1,0 1,-1 1,0 1,-1 1,-1 1,-1 1,-1 0,-5 1,-1 0,-2 -1,-1 0,-18 -1,-1 0,-24 1,-1 0,-3 1,-1 0,-1 1,-1 0,-1 1,-1 0,-1 1,-1 0,-1 1,-1 1,-1 1,-1 1,-1 1,0 0,-16 -23,0 -1,1Z"/>
<path onmouseover="hoverPath(evt)" onmouseout="recoverPath(evt)" fill="rgb(173,199,238)" d="M  251,181l 0,1 -1,1 0,1 -1,1 0,1 -1,1 0,3 -1,1 0,22 1,1 0,18 1,1 0,4 -1,1 0,5 -1,1 -3,3 -1,1 -1,0 -1,1 -1,0 -1,1 -1,0 -1,1 -1,0 -1,1 -1,1 -1,0 -1,1 0,1 7,0 0,-2 1,-1 2,0 1,-1 1,0 1,-1 1,0 1,-1 1,-1 0,-1 1,-1 0,-8 2,-57 -2,51 0,-6 -1,-13 0,-22 1,-4 1,-2 1,-1 0,-1 1,-1 1,-1 2,0 0,-5 -1,1 0,0 -1,1 -1,1 0,1 -3,52 2,-51Z"/>
<path onmouseover="hoverPath(evt)" onmouseout="recoverPath(evt)" fill="rgb(172,199,237)" d="M  254,147l 0,4 1,0 0,-3 -1,-1 1,-3 0,-23 -1,0 -1,1 -2,0 -1,1 -2,0 -1,1 -2,0 -1,1 -2,0 -1,1 -2,0 -1,1 -3,0 -1,1 -2,0 -1,1 -2,0 -1,1 -2,0 -1,1 -3,0 -1,1 0,1 2,0 1,-1 3,0 1,-1 1,0 1,-1 2,0 1,-1 2,0 1,-1 3,0 1,-1 2,0 1,-1 3,0 1,-1 5,0 1,1 0,1 1,1 0,11 -1,1 0,3 2,1 -1,3Z"/>
</svg>