<svg width="256" height="256" xmlns="http://www.w3.org/2000/svg"><script> 
var tempColor;
function hoverPath(evt){
obj = evt.target;
tempColor = obj.getAttribute("fill");
obj.setAttribute("fill","red");
//alert(tempColor);
//obj.setAttribute("stroke","red");}
function recoverPath(evt){
obj = evt.target;
obj.setAttribute("fill", tempColor);
//obj.setAttribute("stroke", tempColor);
}</script><path onmouseover="hoverPath(evt)" onmouseout="recoverPath(evt)" fill="rgb(169,197,237)" d="M  0,140l 0,14 10,0 1,-1 13,0 1,-1 29,0 1,-1 11,0 1,-1 2,0 1,1 1,0 1,1 1,1 1,0 1,1 1,1 1,1 1,1 1,1 1,1 1,1 1,1 1,1 0,1 1,1 1,1 1,1 1,1 0,1 1,1 1,1 0,1 1,1 1,1 1,1 0,1 1,1 1,1 0,1 1,1 1,1 0,1 1,1 1,1 0,1 1,1 0,1 1,1 0,1 1,1 0,1 1,1 0,2 1,1 0,2 1,1 0,2 1,1 0,2 1,1 0,2 1,1 0,2 1,1 0,1 1,1 0,2 1,1 0,2 1,1 0,2 1,1 0,2 1,1 0,3 1,1 0,2 -1,1 0,12 -1,1 0,3 -1,1 0,4 -1,1 0,3 27,0 0,-13 1,-1 0,-3 1,-1 1,-1 4,0 1,1 3,0 1,1 1,0 0,-6 -1,0 -1,-1 -3,0 -1,-1 -4,0 -1,-1 -1,0 -1,-1 -1,-1 0,-6 -1,-1 0,-9 -1,-1 0,-4 1,-1 1,-1 3,0 1,1 2,0 1,1 1,1 0,-2 1,-1 0,-1 1,-1 1,-1 6,0 1,-1 13,0 1,1 9,0 2,-2 1,0 1,-1 34,0 1,1 17,0 1,1 0,1 1,1 4,0 1,-1 4,0 0,-3 -1,-1 0,-2 -14,0 -1,-1 -11,0 -1,-1 -24,0 -1,-1 -7,0 -1,1 0,1 -1,1 -1,1 -11,0 -1,1 -12,0 -1,1 -15,0 -1,1 -8,0 -1,-1 -1,0 -1,-1 0,-2 -1,-1 0,-2 -1,-1 0,-2 -1,-1 0,-2 -1,-1 0,-2 -1,-1 0,-2 -1,-1 0,-2 -1,-1 0,-2 -1,-1 0,-1 -1,-1 0,-1 -1,-1 0,-1 -1,-1 0,-4 -1,-1 0,-11 1,-1 4,0 1,-1 0,-3 1,-1 0,-1 1,-1 1,0 1,-1 25,0 1,-1 4,0 1,-1 5,0 1,1 69,0 1,1 7,0 1,-1 2,0 0,-3 -1,0 -1,-1 -75,0 -1,1 -4,0 -1,1 -2,0 -1,-1 -1,0 -1,-1 -13,0 -1,-1 -29,0 -1,1 -5,0 -1,-1 -8,0 -1,-1 -1,-1 -1,-1 -1,-1 0,-1 -1,-1 0,-1 -1,-1 0,-3 1,-1 -1,-1 -1,-1 -1,1 -7,0 -1,-1 -1,0 -1,-1 -1,-1 -1,-1 -1,-1 -1,-1 -1,-1 0,-1 -1,-1 -1,-1 -1,-1 -1,-1 -1,-1 -1,-1 0,-1 -1,-1 -1,-1 -1,-1 -1,-1 -1,-1 0,-1 -1,-1 -1,-1 -1,-1 0,-2 -1,-1 0,-6 -1,-1 0,-3 -1,-1 0,-4 -1,-1 0,-1 -1,-1 -1,-1 0,-2 -1,-1 0,-3 1,-1 0,-4 1,-1 0,-4 1,-1 0,-2 1,-1 0,-2 1,-1 1,0 0,-2 1,-1 1,-1 0,-1 1,-1 0,-1 1,-1 1,-1 1,-1 1,-1 1,-1 1,-1 1,0 1,-1 6,0 0,-1 -4,0 -1,-1 0,-4 1,-1 0,-1 1,-1 0,-2 1,-1 0,-4 1,-1 0,-7 1,-1 0,-3 -1,-1 0,-2 -1,-1 0,-1 -1,-1 0,-1 -1,-1 0,-1 -1,-1 0,-2 -32,0 0,10 1,1 0,3 1,1 0,3 1,1 0,5 -1,1 0,1 -1,1 0,1 -1,1 0,1 -1,1 0,1 -1,1 0,1 -1,1 0,2 -2,2 -1,0 -1,1 -3,0 -1,1 -2,0 -1,1 -2,0 -1,1 -4,0 -1,-1 -8,0 -1,-1 -3,0 -1,-1 -1,0 -1,-1 -1,-1 -1,-1 -1,0 0,3 2,0 1,1 1,0 1,1 3,0 1,1 7,0 1,1 6,0 1,-1 2,0 1,-1 3,0 1,1 0,2 -1,1 0,3 -1,1 0,23 -1,1 0,3 -1,1 0,3 -1,1 0,9 1,1 0,2 1,1 0,3 1,1 0,1 1,0 1,1 1,1 2,0 1,1 1,1 0,3 1,1 1,1 0,1 1,1 0,1 1,1 0,1 1,1 0,1 1,1 0,1 1,1 0,1 1,1 1,1 1,0 1,1 1,1 1,0 1,1 1,1 1,1 1,1 1,1 0,4 -1,1 -1,0 -1,1 -1,0 -1,1 -10,0 -1,1 -15,0 -1,1 -15,0 -1,1 -5,0 -1,1Z"/>
<path onmouseover="hoverPath(evt)" onmouseout="recoverPath(evt)" fill="rgb(243,241,232)" d="M  0,190l 0,39 4,0 1,1 3,0 1,1 2,0 1,1 3,0 1,1 3,0 1,1 2,0 1,1 4,0 1,1 2,0 1,1 2,0 1,1 3,0 1,1 3,0 1,1 1,0 0,-2 1,-1 -2,0 -1,-1 -1,0 -1,-1 -1,-1 0,-6 1,-1 2,0 1,1 0,3 1,1 1,0 1,1 5,0 1,1 4,0 0,-6 1,-1 0,-18 1,-1 2,0 1,1 0,18 2,0 1,1 8,0 1,-1 0,-2 1,-1 0,-7 -1,-1 0,-5 -1,-1 0,-13 -1,-1 0,-8 -1,-1 -17,0 -1,1 -28,0 -1,-1 -15,0 -1,1 -6,0Z"/>
<path onmouseover="hoverPath(evt)" onmouseout="recoverPath(evt)" fill="rgb(243,242,234)" d="M  58,66l 0,0 -1,1 0,4 -1,1 0,1 1,1 0,2 1,1 1,1 0,1 1,1 0,4 1,1 0,3 1,1 0,6 1,1 0,2 1,1 1,1 1,1 0,1 1,1 1,1 1,1 1,1 1,1 0,1 1,1 1,1 1,1 1,1 1,1 1,1 0,1 1,1 1,1 1,1 1,1 1,1 1,0 1,1 5,0 1,-1 2,0 1,1 1,1 1,1 0,2 -1,1 0,1 1,1 0,1 1,1 0,1 1,1 1,1 1,1 8,0 1,1 3,0 1,-1 31,0 1,1 13,0 1,1 1,0 1,1 1,-1 4,0 1,-1 76,0 0,-5 -1,-1 0,-1 -5,0 -1,-1 -83,0 -1,-1 0,-5 -1,-1 0,-15 -1,-1 0,-16 -1,-1 0,-14 -1,-1 0,-12 -1,-1 0,-14 -1,-1 0,-5 -43,0 -1,1 -1,0 0,1 -1,1 -27,0 -1,1 -1,0 -1,1 -1,1 -1,1 -1,1 -1,1 0,1 -1,1 0,1 -1,1 -1,1 0,2 -1,1 -1,0 0,2 -1,1 0,2 -1,1 0,4 15,28 -1,-1 0,-1 -1,-1 0,-6 1,-1 1,-1 41,0 1,1 0,8 -1,1 -1,1 -40,0 -15,-28Z"/>
<path onmouseover="hoverPath(evt)" onmouseout="recoverPath(evt)" fill="rgb(243,242,233)" d="M  92,252l 0,3 16,0 0,-4 1,-1 0,-4 1,-1 0,-3 1,-1 0,-12 1,-1 -1,-1 0,-3 -1,-1 0,-2 -1,-1 0,-2 -1,-1 0,-2 -1,-1 0,-2 -1,-1 0,-1 -1,-1 0,-2 -1,-1 0,-2 -1,-1 0,-2 -1,-1 0,-2 -1,-1 0,-2 -1,-1 0,-2 -1,-1 0,-1 -1,-1 0,-1 -1,-1 0,-1 -1,-1 0,-1 -1,-1 -1,-1 0,-1 -1,-1 -1,-1 0,-1 -1,-1 -1,-1 0,-1 -1,-1 -1,-1 -1,-1 0,-1 -1,-1 -1,-1 0,-1 -1,-1 -1,-1 -1,-1 -1,-1 0,-1 -1,-1 -1,-1 -1,-1 -1,-1 -1,-1 -1,-1 -1,-1 -1,-1 -1,0 -1,-1 -1,-1 -1,0 -1,-1 -1,1 -11,0 -1,1 -9,0 0,1 1,1 2,2 1,1 4,4 1,1 1,1 1,1 0,5 1,1 0,6 -1,1 -1,1 -23,0 0,3 7,0 1,-1 31,0 1,1 1,1 1,1 0,8 1,1 0,14 1,1 0,4 1,1 0,14 -1,1 0,5 1,1 1,0 1,-1 0,-4 1,-1 1,-1 2,0 1,1 1,1 0,5 -1,1 0,4 -1,1 -2,0 -1,-1 -4,0 -1,1 0,3 1,0 1,1 1,0 1,1 1,0 1,1 3,0 1,1 1,0 1,1 1,1 2,0 1,1Z"/>
<path onmouseover="hoverPath(evt)" onmouseout="recoverPath(evt)" fill="rgb(243,242,236)" d="M  140,246l -1,0 0,9 57,0 0,-19 1,-1 21,0 1,-1 4,0 1,1 1,1 0,6 1,1 0,12 22,0 0,-11 1,-1 2,0 0,-8 -1,0 -1,-1 0,-6 1,-1 0,-4 -3,0 -1,-1 0,-8 -1,-1 0,-10 -4,0 -1,1 -6,0 -1,-1 -1,-1 0,-1 -9,0 0,8 1,1 0,12 1,1 0,8 -1,1 -19,0 -1,1 -6,0 -1,-1 -1,0 -1,-1 0,-18 -1,-1 0,-12 -3,0 0,5 1,1 0,26 -1,1 -18,0 -1,-1 0,-11 -1,-1 -1,-1 -4,0 -1,1 -5,0 -1,-1 -1,0 -1,-1 0,-8 -1,-1 0,-7 -1,0 -1,1 -1,0 0,3 1,1 0,9 -1,1 -16,0 0,2 16,0 1,1 1,1 0,1 12,0 1,1 0,23 -1,1 -22,0 -1,-1Z"/>
<path onmouseover="hoverPath(evt)" onmouseout="recoverPath(evt)" fill="rgb(235,235,226)" d="M  250,34l 0,6 -1,1 -1,0 -1,1 0,6 1,0 1,1 0,1 1,1 5,0 0,-22 -5,0Z"/>
<path onmouseover="hoverPath(evt)" onmouseout="recoverPath(evt)" fill="rgb(244,243,237)" d="M  0,1l 0,34 2,0 1,1 1,1 1,1 1,0 1,1 3,0 1,1 8,0 1,1 2,0 1,-1 2,0 1,-1 2,0 1,-1 3,0 1,-1 1,0 1,-1 0,-2 1,-1 0,-1 1,-1 0,-1 1,-1 0,-1 1,-1 0,-1 1,-1 0,-1 1,-1 0,-3 -1,-1 0,-3 -1,-1 0,-3 -1,-1 0,-11 -37,0 -1,1Z"/>
<path onmouseover="hoverPath(evt)" onmouseout="recoverPath(evt)" fill="rgb(242,241,234)" d="M  0,127l 0,10 5,0 1,-1 15,0 1,-1 15,0 1,-1 10,0 1,-1 1,0 1,-1 1,0 0,-2 -1,-1 0,0 -1,-1 -1,-1 -1,-1 -1,0 -1,-1 -1,-1 -1,0 -1,-1 -1,-1 -1,-1 0,-1 -1,-1 0,-1 -1,-1 0,-1 -1,-1 0,-1 -1,-1 0,-1 -1,-1 0,-1 -1,-1 -1,-1 0,-3 -1,-1 -2,0 -1,-1 -1,-1 -1,0 -1,-1 0,-1 -1,-1 0,-3 -1,-1 0,-2 -1,-1 0,-11 1,-1 0,-3 1,-1 0,-3 1,-1 0,-23 1,-1 0,-3 1,-1 -1,0 -1,1 -2,0 -1,1 -8,0 -1,-1 -7,0 -1,-1 -3,0 -1,-1 -1,0 -1,-1 -1,0Z"/>
<path onmouseover="hoverPath(evt)" onmouseout="recoverPath(evt)" fill="rgb(243,242,234)" d="M  0,157l 0,26 2,0 1,-1 24,0 -5,-1 0,-2 -1,-1 0,-18 -1,-1 0,-4 -8,0 -1,1 -10,0 -1,1Z"/>
<path onmouseover="hoverPath(evt)" onmouseout="recoverPath(evt)" fill="rgb(248,238,149)" d="M  0,233l 0,7 3,0 1,1 3,0 1,1 2,0 1,1 3,0 1,1 2,0 1,1 3,0 1,1 3,0 1,1 0,5 -1,1 0,2 61,0 0,-1 -2,0 -1,-1 -2,0 -1,-1 -1,0 -1,-1 -2,0 -1,1 -3,0 -1,-1 -1,-1 0,-1 -1,-1 -2,0 -1,-1 -4,0 -1,-1 -9,0 -1,-1 -1,-1 -2,0 -1,-1 -3,0 -1,-1 -2,0 -1,-1 -3,0 -1,-1 -3,0 -1,-1 -2,0 -1,-1 -2,0 -1,-1 -4,0 -1,-1 -2,0 -1,-1 -3,0 -1,-1 -3,0 -1,-1 -2,0 -1,-1 -3,0 -1,-1 -3,0Z"/>
<path onmouseover="hoverPath(evt)" onmouseout="recoverPath(evt)" fill="rgb(244,243,235)" d="M  0,243l 0,12 23,0 0,-3 1,-1 0,-3 -3,0 -1,-1 -3,0 -1,-1 -2,0 -1,-1 -3,0 -1,-1 -2,0 -1,-1 -3,0 -1,-1 -1,0 -1,1Z"/>
<path onmouseover="hoverPath(evt)" onmouseout="recoverPath(evt)" fill="rgb(236,238,233)" d="M  24,155l -2,0 0,3 1,1 0,18 1,1 0,2 4,0 1,1 0,2 2,0 0,-4 1,-1 23,0 1,-1 0,-4 -1,-1 0,-5 -1,-1 -1,-1 -1,-1 -1,-1 -1,-1 -1,-1 -1,-1 -1,-1 -1,-1 -1,-1 -1,-1 0,-2 -18,0 -1,1Z"/>
<path onmouseover="hoverPath(evt)" onmouseout="recoverPath(evt)" fill="rgb(253,253,252)" d="M  57,229l 0,6 -1,1 -6,0 -1,-1 -5,0 -1,-1 -1,0 -1,-1 -1,-1 0,1 1,1 0,0 -1,-3 0,-2 3,6 5,1 0,2 -1,1 -2,0 0,2 3,0 1,1 2,0 1,1 1,1 9,0 1,1 4,0 1,1 2,0 1,1 1,1 0,1 1,1 1,0 1,-1 4,0 1,1 1,0 1,1 2,0 1,1 2,0 1,1 0,2 2,0 0,-3 -2,0 -1,-1 -1,-1 -1,0 -1,-1 -3,0 -1,-1 -1,0 -1,-1 -1,0 -1,-1 -1,0 -1,-1 0,-5 1,-1 1,-1 6,0 1,1 0,-4 1,-1 0,-3 -1,-1 0,0 -1,1 0,4 -1,1 -1,1 -3,0 -1,-1 -1,-1 0,-7 1,-1 0,-12 -1,-1 0,-4 -1,-1 0,-14 -1,-1 0,-8 -1,-1 -1,-1 -29,0 -1,1 -13,0 -1,-1 -23,0 -1,1 -3,0 0,1 5,0 1,-1 17,0 1,1 26,0 1,-1 19,0 1,1 1,1 0,8 1,1 0,13 1,1 0,5 1,1 0,9 -1,1 0,2 -1,1 -1,1 0,0 1,1 0,1 1,1 0,3 -1,1 0,6 -1,1 -7,0 -1,-1 -3,0 -1,-1 -3,0 -1,-1 0,-3 1,-1 0,-8 1,1 12,0 -9,-1 -2,0 -1,1 -1,-1Z"/>
<path onmouseover="hoverPath(evt)" onmouseout="recoverPath(evt)" fill="rgb(236,234,218)" d="M  71,239l 0,-3 1,-1 0,-1 -1,-1 0,-1 -12,0 0,6 -1,1 0,1 3,0 1,1 3,0 1,1 5,0Z"/>
<path onmouseover="hoverPath(evt)" onmouseout="recoverPath(evt)" fill="rgb(236,238,234)" d="M  74,85l 0,0 -1,1 0,4 1,1 0,1 38,0 1,-1 0,-6Z"/>
<path onmouseover="hoverPath(evt)" onmouseout="recoverPath(evt)" fill="rgb(238,237,229)" d="M  74,1l 1,1 0,1 1,1 0,1 1,1 0,1 1,1 0,2 1,1 0,5 -1,1 0,7 -1,1 0,4 -1,1 0,2 -1,1 0,1 -1,1 0,2 20,0 1,-1 2,0 0,-1 1,-1 47,0 0,-2 -1,-1 0,-1 -1,-1 -17,0 -1,-1 0,-2 1,-1 16,0 1,-1 1,0 0,-10 -7,0 -1,-1 0,-3 1,-1 6,0 0,-1 1,-1 0,-1 -1,-1 0,-5 -68,0 -1,1Z"/>
<path onmouseover="hoverPath(evt)" onmouseout="recoverPath(evt)" fill="rgb(178,200,230)" d="M  99,37l 0,0 -1,1 2,0 1,-1 44,0 0,-1 -45,0 -1,1 -3,3 0,0 -1,-1 -16,0 0,1 17,0 3,-3Z"/>
<path onmouseover="hoverPath(evt)" onmouseout="recoverPath(evt)" fill="rgb(236,238,234)" d="M  136,207l 0,2 1,1 0,5 15,0 0,-7 -1,-1 0,-4 -3,0 -1,1 0,1 -1,1 0,2 -1,1 -2,0 -1,-1 -1,-1 -2,0 -1,-1 -1,0 -1,1Z"/>
<path onmouseover="hoverPath(evt)" onmouseout="recoverPath(evt)" fill="rgb(252,252,250)" d="M  143,27l 1,0 1,1 0,0 1,1 0,1 1,1 0,12 1,1 0,14 1,1 0,12 1,1 0,14 1,1 0,16 1,1 0,15 1,1 0,5 83,0 1,1 5,0 0,-1 1,-1 -86,0 -1,-1 -1,0 -1,-1 0,-3 -1,-1 0,-16 -1,-1 0,-15 -1,-1 0,-14 -1,-1 0,-12 -1,-1 0,-18 -1,-1 0,-9 1,-1 1,0 1,-1 3,0 1,1 20,0 1,1 1,1 0,7 -1,1 0,0 -1,1 -14,0 -1,-1 -3,0 -1,1 -2,0 -1,1 0,7 37,0 -11,-1 0,0 -1,-1 0,-4 -1,-1 0,-2 -34,-11 34,2 1,-1 14,0 1,-1 43,0 0,-1 -87,0 -1,-1 0,-15 -1,-1 0,-9 -2,0 0,4 1,1 0,3 -1,1 0,1 -1,1 -6,0 0,1 7,0 1,1 0,12 -1,1 -1,0 33,3 -34,-2Z"/>
<path onmouseover="hoverPath(evt)" onmouseout="recoverPath(evt)" fill="rgb(236,238,234)" d="M  140,239l 0,3 -1,1 0,1 6,0 1,1 20,0 0,-21 -12,0 -1,-1 0,-1 -1,-1 -14,0 0,5 1,1 1,0 1,1 4,0 1,1 3,0 1,1 1,0 1,1 0,8 -1,1 -3,0 -1,-1 -3,0 -1,-1 -2,0 -1,1Z"/>
<path onmouseover="hoverPath(evt)" onmouseout="recoverPath(evt)" fill="rgb(235,236,230)" d="M  154,0l -5,0 0,8 1,1 0,15 2,0 0,-10 1,-1 67,0 1,1 0,8 8,0 0,-7 -1,-1 0,-2 1,-1 3,0 0,-9 1,-1 0,-1Z"/>
<path onmouseover="hoverPath(evt)" onmouseout="recoverPath(evt)" fill="rgb(241,240,229)" d="M  155,15l -1,0 0,9 81,0 0,-6 1,-1 0,-4 -6,0 1,1 0,9 -76,-8 64,8 0,-8 -63,0 63,8 -64,-8Z"/>
<path onmouseover="hoverPath(evt)" onmouseout="recoverPath(evt)" fill="rgb(228,233,231)" d="M  156,55l 0,15 -1,1 -2,0 0,13 1,1 0,15 1,1 0,16 12,0 0,-62 -1,-1 -9,0 -1,1Z"/>
<path onmouseover="hoverPath(evt)" onmouseout="recoverPath(evt)" fill="rgb(242,241,232)" d="M  158,119l -2,0 0,2 1,0 1,1 76,0 0,-1 1,-1 6,0 0,-9 -1,-1 0,-8 1,-1 0,-1 1,-1 0,-3 -1,0 -1,-1 0,-6 1,-1 0,-7 -1,0 -1,-1 0,-8 1,-1 0,-4 -1,0 -1,-1 0,-5 1,-1 0,-3 -1,0 -1,-1 0,-9 1,-1 0,-6 -1,0 -1,-1 0,-6 1,-1 0,-3 -43,0 -1,1 -14,0 0,9 1,1 0,4 1,1 10,0 1,1 0,2 -1,1 -39,0 -1,-1 0,-9 1,-1 0,0 1,-1 2,0 1,-1 5,0 1,1 12,0 1,-1 0,-5 -1,-1 -20,0 -1,-1 -1,0 -1,1 -1,0 0,7 1,1 0,0 7,81 -7,-70 0,7 1,1 0,12 2,0 0,-15 1,-1 1,-1 11,0 1,1 1,1 0,64 -1,1 -9,0 -8,-70 7,70 12,-3 0,-16 1,-1 1,-1 39,0 1,1 0,13 1,1 0,3 -1,1 0,1 -1,1 -39,0 -1,-1 0,-1 -1,-1 -12,3 12,-26 0,-39 1,-1 1,-1 36,0 1,1 0,39 -1,1 -1,1 -36,0 -1,-1 -12,26Z"/>
<path onmouseover="hoverPath(evt)" onmouseout="recoverPath(evt)" fill="rgb(236,238,234)" d="M  158,203l 0,5 1,1 0,8 1,0 1,1 3,0 1,-1 6,0 1,1 1,1 1,1 0,11 16,0 0,-24 -1,-1 0,-6 -7,0 -1,1 -1,0 -1,1 -1,1 -11,0 -1,-1 -7,0 -1,1Z"/>
<path onmouseover="hoverPath(evt)" onmouseout="recoverPath(evt)" fill="rgb(236,238,234)" d="M  172,55l 0,37 34,0 1,-1 0,-37 -34,0 -1,1Z"/>
<path onmouseover="hoverPath(evt)" onmouseout="recoverPath(evt)" fill="rgb(236,238,234)" d="M  172,101l 0,14 1,1 0,1 37,0 0,-1 1,-1 0,-1 -1,-1 0,-13 -37,0 -1,1Z"/>
<path onmouseover="hoverPath(evt)" onmouseout="recoverPath(evt)" fill="rgb(235,237,234)" d="M  196,201l 0,10 1,1 0,18 1,0 1,1 4,0 1,-1 19,0 0,-6 -1,-1 0,-12 -1,-1 0,-9 -6,0 -1,-1 -17,0 -1,1Z"/>
<path onmouseover="hoverPath(evt)" onmouseout="recoverPath(evt)" fill="rgb(243,243,236)" d="M  202,191l 15,0 1,1 11,0 1,1 14,0 1,1 0,2 1,1 0,4 1,0 0,-2 1,-1 0,-8 -1,0 -1,-1 0,-7 1,-1 0,-7 -1,0 -1,-1 0,-5 1,-1 0,-6 -2,0 -1,-1 0,-5 1,-1 1,0 0,-3 -2,0 -1,-1 0,-3 1,-1 0,-3 -1,1 -9,0 -1,-1 -69,0 -1,-1 -3,0 -1,1 -4,0 -1,1 -25,0 -1,1 -1,0 0,1 -1,1 0,3 -1,1 -1,1 -4,0 0,9 1,1 0,4 1,1 0,1 1,1 0,1 1,1 0,1 1,1 0,2 1,1 0,2 1,1 0,2 1,1 0,2 1,1 0,2 1,1 0,2 1,1 0,2 1,1 0,2 1,0 1,1 6,0 1,-1 15,0 1,-1 12,0 1,-1 11,0 1,-1 0,-1 1,-1 1,-1 9,0 1,1 9,0 10,-1 -2,0 -1,-1 -1,-1 0,-12 -1,-1 0,-10 1,-1 1,-1 8,0 1,1 0,24 -1,1 -4,0 -1,1 -10,1Z"/>
<path onmouseover="hoverPath(evt)" onmouseout="recoverPath(evt)" fill="rgb(236,238,234)" d="M  198,237l 0,18 26,0 0,-11 -1,-1 0,-6 -1,-1 -2,0 -1,1Z"/>
<path onmouseover="hoverPath(evt)" onmouseout="recoverPath(evt)" fill="rgb(236,238,234)" d="M  210,165l 0,0 -1,1 0,8 1,1 0,12 1,1 1,-1 4,0 0,-22Z"/>
<path onmouseover="hoverPath(evt)" onmouseout="recoverPath(evt)" fill="rgb(253,243,146)" d="M  236,0l -1,0 0,2 -1,1 0,8 3,0 1,1 0,6 -1,1 0,5 1,1 0,2 1,1 0,5 -1,1 0,4 1,0 1,1 0,8 -1,1 0,7 1,0 1,1 0,5 -1,1 0,3 1,0 1,1 0,6 -1,1 0,6 1,0 1,1 0,9 -1,1 0,4 1,0 1,1 0,5 -1,1 0,1 -1,1 0,6 1,1 0,11 -1,1 2,0 1,1 0,2 -1,1 0,1 -1,1 1,1 0,7 1,0 1,1 0,5 -1,1 0,4 -1,1 0,1 2,0 1,1 0,5 -1,1 -1,0 0,3 2,0 1,1 0,8 -1,1 0,3 1,0 1,1 0,9 -1,1 0,5 1,0 1,1 0,10 -1,1 0,2 -1,1 -1,0 0,9 1,1 0,8 3,0 1,1 0,6 -1,1 0,4 1,0 1,1 0,10 -1,1 -2,0 0,10 5,0 0,-110 -2,0 -1,-1 0,-6 -1,-1 0,-10 1,-1 -1,-1 0,-3 1,-1 -1,0 -1,-1 0,-9 1,-1 0,-4 -1,0 -1,-1 0,-9 1,-1 0,-3 -1,0 -1,-1 0,-9 1,-1 1,0 -2,-1 0,-4 -1,-1 0,-8 1,-1 0,-4 -1,0 -1,-1 0,-10 1,-1 -1,0 -1,-1 0,-8 1,-1 0,-3 -1,0 -1,-1 0,-11 1,-1 -1,0 -1,-1 0,-8 1,-1 0,-3 -1,0 -1,-1 0,-7 1,-1 0,-2Z"/>
<path onmouseover="hoverPath(evt)" onmouseout="recoverPath(evt)" fill="rgb(242,241,229)" d="M  246,0l -1,0 0,3 -1,1 0,5 1,0 1,1 0,5 -1,1 0,6 1,0 1,1 0,2 -1,1 0,9 1,0 1,1 0,-8 1,-1 6,0 0,-27Z"/>
<path onmouseover="hoverPath(evt)" onmouseout="recoverPath(evt)" fill="rgb(237,237,223)" d="M  251,101l 0,3 1,0 1,1 0,6 -1,1 0,7 1,0 1,1 0,2 -1,1 0,1 1,1 0,2 -1,1 0,8 1,1 0,6 1,0 0,-90 -6,0 -1,-1 0,8 1,0 1,1 0,6 -1,1 0,6 1,1 0,4 1,0 1,1 0,2 -1,1 -1,0 0,7 1,0 1,1 0,5 -1,1Z"/>
</svg>