<svg width="256" height="256" xmlns="http://www.w3.org/2000/svg"><script> 
var tempColor;
function hoverPath(evt){
obj = evt.target;
tempColor = obj.getAttribute("fill");
obj.setAttribute("fill","red");
//alert(tempColor);
//obj.setAttribute("stroke","red");}
function recoverPath(evt){
obj = evt.target;
obj.setAttribute("fill", tempColor);
//obj.setAttribute("stroke", tempColor);
}</script><path onmouseover="hoverPath(evt)" onmouseout="recoverPath(evt)" fill="rgb(243,243,234)" d="M  0,218l 0,37 57,0 0,-9 -1,-1 0,-2 -1,-1 0,-1 -1,-1 0,-2 -1,-1 -1,-1 0,-1 -1,-1 -1,0 -1,-1 0,-2 -1,-1 -1,-1 -1,0 -1,-1 0,-1 -1,0 -1,-1 -2,0 -1,-1 -3,0 -1,-1 -3,0 -1,-1 -4,0 -1,-1 -3,0 -1,-1 -4,0 -1,-1 -3,0 -1,-1 -2,0 -1,-1 -4,0 -1,-1 -3,0 -1,-1 -2,0Z"/>
<path onmouseover="hoverPath(evt)" onmouseout="recoverPath(evt)" fill="rgb(243,242,233)" d="M  56,194l 0,1 -1,1 0,5 -1,1 0,4 -1,1 0,4 -1,1 0,4 -1,1 0,5 -1,1 0,1 1,1 1,1 0,1 1,1 1,1 1,1 0,1 1,1 1,1 1,1 0,1 1,1 0,1 1,1 0,1 1,1 0,2 1,1 0,8 1,1 0,3 12,0 0,-6 1,-1 0,-2 1,-1 0,-3 1,-1 0,-2 1,-1 0,-2 1,-1 0,-1 1,-1 0,-1 1,-1 0,-1 -3,0 -1,-1 0,-2 1,-1 2,-2 1,-1 2,0 1,-1 0,-1 1,-1 0,-1 1,-1 0,-2 1,-1 0,-1 1,-1 0,-1 1,-1 0,-1 1,-1 0,-1 1,-1 0,-1 1,-1 0,-1 1,-1 0,-1 1,-1 0,-1 1,-1 0,-2 1,-1 0,-1 1,-1 0,-2 1,-1 -4,0 -1,-1 -4,0 -1,1 -7,0 -1,1 -24,0 -1,1Z"/>
<path onmouseover="hoverPath(evt)" onmouseout="recoverPath(evt)" fill="rgb(248,237,148)" d="M  81,238l 0,1 -1,1 0,2 -1,1 0,3 -1,1 0,2 -1,1 0,5 14,0 0,-3 1,-1 2,0 0,-1 1,-1 -1,-1 0,-3 1,-1 0,-1 1,-1 0,-1 1,-1 0,-1 1,-1 0,-1 1,-1 0,-2 -1,-1 -3,0 -1,-1 -1,-1 -1,-1 0,-2 1,-1 1,0 0,-2 1,-1 0,-1 1,-1 1,-1 0,-1 1,-1 0,-2 1,-1 0,-1 1,-1 0,-1 1,-1 -1,-1 0,-2 1,-1 0,-1 1,-1 2,0 0,-2 1,-1 0,-1 1,-1 0,-2 1,-1 0,-1 1,-1 0,-2 1,-1 0,-1 1,-1 0,-2 1,-1 0,-1 1,-1 0,-2 1,-1 0,-2 1,-1 0,-2 1,-1 0,-3 1,-1 0,-3 1,-1 0,-3 1,-1 0,-4 1,-1 0,-3 1,-1 0,-3 1,-1 0,-2 1,-1 11,0 0,-1 -12,0 -1,-1 -1,-1 0,-2 1,-1 2,0 0,-17 1,-1 0,-35 -1,1 -1,0 -1,1 -2,0 -1,-1 -1,0 -1,-1 -3,0 3,1 0,25 -1,1 0,21 -1,1 0,7 -1,1 0,7 -1,1 0,4 -1,1 0,3 -1,1 0,2 -1,1 0,3 -1,1 0,2 -1,1 0,1 -1,1 0,1 1,1 0,1 1,1 0,2 -1,1 -2,0 0,4 -1,1 -1,1 -6,0 5,1 0,2 -1,1 0,2 -1,1 0,1 -1,1 0,2 -1,1 0,1 -1,1 0,1 -1,1 0,1 -1,1 0,1 -1,1 0,1 -1,1 0,1 -1,1 0,1 -1,1 0,1 -1,1 0,2 -1,1 0,1 -1,1 0,1 -1,1 -1,1 -2,0 -1,1 -1,1 -1,1 3,0 1,1 0,3 -1,1 0,1 -1,1 0,1 -1,1Z"/>
<path onmouseover="hoverPath(evt)" onmouseout="recoverPath(evt)" fill="rgb(244,243,236)" d="M  107,211l -1,1 0,1 -1,1 0,2 -1,1 -2,0 -1,-1 0,1 -1,1 0,2 -1,1 0,1 -1,1 -1,1 0,1 -1,1 0,2 -1,1 -1,0 1,1 0,0 1,1 3,0 1,1 1,1 0,4 -1,1 0,1 -1,1 0,1 -1,1 0,1 -1,1 0,1 -1,1 0,1 1,1 0,2 -1,1 0,1 -1,1 -2,0 0,2 162,0 0,-119 -6,0 -1,1 -2,0 -1,-1 0,-2 -3,0 0,1 -1,1 0,2 -1,1 0,4 -1,1 0,6 -1,1 -9,0 -1,-1 -22,0 -1,-1 -28,0 -1,1 -1,0 0,42 -1,1 -2,0 0,4 -1,1 0,4 -1,1 0,3 -1,1 -1,1 -1,1 -1,1 -1,0 -2,2 -3,0 -1,1 -4,0 0,1 1,1 0,2 -1,1 -14,0 -1,-1 0,-2 1,-1 0,-1 -9,0 -1,-1 -6,0 -1,1 -6,0 -1,-1 0,-2 -4,0 -1,-1 -3,0 -1,1 -1,1Z"/>
<path onmouseover="hoverPath(evt)" onmouseout="recoverPath(evt)" fill="rgb(236,238,235)" d="M  126,104l -1,0 0,3 12,0 1,-1 1,0 0,-4 -1,-1 0,-7 -7,0 0,8 -1,1 -1,0 -1,1Z"/>
<path onmouseover="hoverPath(evt)" onmouseout="recoverPath(evt)" fill="rgb(243,241,234)" d="M  0,1l 0,39 3,0 1,1 5,0 1,1 0,2 4,0 1,1 6,0 1,1 5,0 1,-1 6,0 1,1 0,2 5,0 1,1 5,0 1,1 5,0 1,1 4,0 1,-1 7,0 1,1 4,0 1,1 0,4 5,0 0,-1 1,-1 2,0 1,1 7,0 1,1 7,0 1,1 4,0 0,-6 1,-1 2,0 0,-15 1,-1 2,0 0,-1 1,-1 1,0 0,-4 -1,-1 0,-5 -1,-1 0,-10 -1,-1 0,-10 -104,0 -1,1Z"/>
<path onmouseover="hoverPath(evt)" onmouseout="recoverPath(evt)" fill="rgb(242,241,234)" d="M  0,47l 0,38 3,0 1,-1 8,0 1,1 1,-1 3,0 1,-1 2,0 1,1 2,0 1,-1 5,0 1,1 1,-1 1,-1 17,0 1,-1 12,0 1,1 2,0 0,-1 1,-1 6,0 1,-1 4,0 1,1 0,-1 1,-1 2,0 1,1 1,0 1,-1 4,0 1,1 1,-1 1,-1 2,0 1,1 1,0 1,-1 6,0 1,-1 2,0 1,1 1,0 1,-1 4,0 0,-12 -1,-1 0,-9 -1,-1 0,-7 -1,-1 0,-8 -1,-1 0,-2 -1,2 -2,0 0,15 -1,1 -2,0 0,6 -1,1 -6,0 -1,-1 -7,0 -1,-1 -7,0 -1,-1 0,1 -1,1 -7,0 -1,-1 0,-4 -4,0 -1,-1 -5,0 -1,1 -6,0 -1,-1 -5,0 -1,-1 -5,0 -1,-1 -5,0 -1,-1 0,-2 -4,0 -1,1 -7,0 -1,-1 -6,0 -1,-1 -4,0 -1,-1 0,-2 -5,0 -1,-1 -2,0Z"/>
<path onmouseover="hoverPath(evt)" onmouseout="recoverPath(evt)" fill="rgb(254,254,254)" d="M  1,213l -1,0 0,1 3,0 1,1 3,0 1,1 4,0 1,1 2,0 1,1 3,0 1,1 4,0 1,1 3,0 1,1 4,0 1,1 3,0 1,1 3,0 1,1 2,0 1,1 1,0 1,1 0,1 1,0 1,1 1,1 1,1 0,2 1,0 1,1 1,1 0,1 1,1 1,1 0,2 1,1 0,1 1,1 0,2 1,1 0,10 2,0 0,-2 -1,-1 0,-8 -1,-1 0,-2 -1,-1 0,-1 -1,-1 0,-1 -1,-1 0,-1 -1,-1 -1,-1 -1,-1 0,-1 -1,-1 -1,-1 -1,-1 0,-1 -2,-2 0,-3 1,-1 0,-5 1,-1 0,-4 1,-1 0,-4 1,-1 0,-4 1,-1 0,-5 1,-1 0,-2 1,-1 1,-1 24,0 1,-1 7,0 1,-1 5,0 1,-1 6,0 1,-1 0,-1 -1,0 -1,1 -5,0 -1,1 -6,0 -1,1 -6,0 -1,1 -25,0 -1,1 -1,1 0,3 -1,1 0,4 -1,1 0,4 -1,1 0,4 -1,1 0,4 -1,1 0,6 -1,1 -1,1 -3,0 -1,-1 -3,0 -1,-1 -4,0 -1,-1 -3,0 -1,-1 -4,0 -1,-1 -2,0 -1,-1 -4,0 -1,-1 -3,0 -1,-1 -3,0 -1,-1 -4,0 -1,-1Z"/>
<path onmouseover="hoverPath(evt)" onmouseout="recoverPath(evt)" fill="rgb(244,243,236)" d="M  24,110l 0,0 -1,-1 0,-5 -1,-1 0,-1 -1,0 -1,-1 0,-1 -4,0 -1,-1 -1,0 -1,1 -13,0 0,111 4,0 1,1 4,0 1,1 3,0 1,1 3,0 1,1 4,0 1,1 2,0 1,1 4,0 1,1 3,0 1,1 4,0 1,1 3,0 1,1 1,0 1,-1 0,-6 1,-1 0,-4 1,-1 0,-4 1,-1 0,-4 1,-1 0,-4 1,-1 0,-3 1,-1 1,-1 1,-1 25,0 1,-1 6,0 1,-1 6,0 1,-1 5,0 1,-1 2,0 0,-1 1,-1 2,0 -1,-1 0,-1 -1,-1 0,-3 1,-1 0,-1 1,-1 0,-2 1,-1 0,-3 1,-1 0,-2 1,-1 0,-3 1,-1 0,-4 1,-1 0,-7 1,-1 0,-7 1,-1 0,-21 1,-1 0,-23 -2,0 -1,-1 -1,1 0,0 -1,1 -2,0 -1,-1 -1,0 -1,1 -4,0 -1,-1 -1,1 -1,1 -2,0 -1,-1 -1,0 -1,1 -11,0 -1,-1 -3,0 0,1 -1,1 -6,0 -1,-1 -2,0 -1,1 -1,0 -1,1 -5,0 -1,-1 -3,0 -1,1 -3,0 -1,1 -3,0 -1,1 -2,0 0,2 -1,1 -2,0 0,2 -1,1 -5,0 0,5 -1,1Z"/>
<path onmouseover="hoverPath(evt)" onmouseout="recoverPath(evt)" fill="rgb(215,212,213)" d="M  25,99l -3,0 0,1 1,0 1,1 0,1 1,1 0,5 7,0 0,-5 1,-1 5,0 0,-2 1,-1 2,0 0,-1 -10,0 -1,1Z"/>
<path onmouseover="hoverPath(evt)" onmouseout="recoverPath(evt)" fill="rgb(183,143,236)" d="M  47,84l -14,0 -1,1 -1,1 -2,0 -1,-1 -3,0 -1,1 -4,0 -1,-1 -1,1 -3,0 -1,1 -2,0 -1,-1 -6,0 -1,1 -4,0 0,11 12,0 1,-1 3,0 1,1 3,0 1,-1 8,0 1,-1 14,0 1,-1 3,0 1,-1 3,0 1,-1 5,0 1,1 3,0 1,-1 1,0 1,-1 4,0 1,1 4,0 0,-1 1,-1 5,0 1,1 9,0 1,-1 3,0 1,1 1,-1 1,-1 2,0 1,1 2,0 1,-1 3,0 1,1 1,-1 1,-1 1,0 1,-1 5,0 1,1 1,0 1,1 1,-1 1,0 1,-1 1,0 1,-1 2,0 1,1 4,0 0,-1 1,-1 4,0 1,1 2,0 1,-1 2,0 1,1 1,0 1,-1 5,0 0,-1 1,-1 4,0 1,1 3,0 0,-1 1,-1 4,0 1,1 4,0 0,-1 1,-1 3,0 1,1 3,0 0,-1 1,-1 4,0 1,1 3,0 0,-1 1,-1 3,0 1,1 3,0 0,-1 1,-1 3,0 1,1 3,0 0,-1 1,-1 3,0 1,1 3,0 0,-1 1,-1 3,0 1,1 6,0 1,-1 5,0 0,-1 1,-1 3,0 1,1 2,0 0,-1 1,-1 3,0 1,1 5,0 1,1 1,1 2,0 1,-1 6,0 0,-14 -5,0 -1,1 -3,0 0,1 -1,1 -3,0 -1,-1 -2,0 0,1 -1,1 -3,0 -1,-1 -2,0 0,1 -1,1 -4,0 -1,-1 -3,0 0,1 -1,1 -3,0 -1,-1 -2,0 -1,1 -1,0 -1,1 -3,0 -1,-1 -7,0 -1,1 -4,0 0,1 -1,1 -3,0 -1,-1 -3,0 0,1 -1,1 -3,0 -1,-1 -3,0 0,1 -1,1 -3,0 -1,-1 -3,0 0,1 -1,1 -3,0 -1,-1 -3,0 0,1 -1,1 -4,0 -1,-1 -3,0 0,1 -1,1 -4,0 -1,-1 -4,0 0,1 -1,1 -4,0 -1,-1 -2,0 -1,1 -1,0 -1,1 -4,0 -1,-1 -2,0 -1,1 -4,0 -1,1 -2,0 -1,-1 -1,0 -1,-1 -3,0 -1,1 -4,0 -1,1 -3,0 -1,-1 -1,1 -6,0 -1,1 -3,0 -1,-1 -1,1 -1,1 -2,0 -1,-1 -2,0 -1,1 -3,0 -1,-1 0,1 -1,1 -2,0 -1,-1 -2,0 -1,1 -6,0 0,1 -1,1 -4,0 -1,-1 -10,0 -1,1Z"/>
<path onmouseover="hoverPath(evt)" onmouseout="recoverPath(evt)" fill="rgb(242,231,140)" d="M  108,0l -1,0 0,9 1,1 0,10 1,1 0,5 1,1 0,8 1,1 0,8 1,1 0,7 1,1 0,9 1,1 0,12 4,0 1,1 1,0 1,1 1,-1 1,0 0,-3 -1,-1 0,-12 -1,-1 0,-8 -1,-1 0,-8 -1,-1 0,-8 -1,-1 0,-8 -1,-1 0,-9 -2,0 -1,-1 0,-2 1,-1 1,0 0,-5 -1,-1 0,-4Z"/>
<path onmouseover="hoverPath(evt)" onmouseout="recoverPath(evt)" fill="rgb(244,243,236)" d="M  118,5l 0,6 -1,1 1,0 1,1 0,9 1,1 0,8 1,1 0,8 1,1 0,8 1,1 0,8 1,1 0,12 1,1 0,4 1,0 1,-1 4,0 1,1 2,0 1,-1 1,0 1,-1 4,0 1,1 2,0 0,-1 1,-1 6,0 1,1 2,0 0,-1 1,-1 5,0 1,1 2,0 0,-1 1,-1 5,0 1,1 1,0 0,-1 1,-1 5,0 1,1 1,0 0,-1 1,-1 5,0 1,1 1,0 0,-1 1,-1 5,0 1,1 1,0 0,-1 1,-1 4,0 1,-1 9,0 1,1 1,0 1,-1 1,0 1,-1 4,0 1,1 1,0 0,-1 1,-1 5,0 1,1 2,0 0,-1 1,-1 4,0 1,1 1,0 0,-1 1,-1 4,0 1,1 1,0 0,-1 1,-1 3,0 1,-1 6,0 0,-60 -138,0 0,3 1,1Z"/>
<path onmouseover="hoverPath(evt)" onmouseout="recoverPath(evt)" fill="rgb(244,242,234)" d="M  123,153l 0,0 -1,1 0,3 -1,1 0,3 -1,1 0,4 -1,1 0,3 -1,1 0,3 -1,1 0,3 -1,1 0,2 -1,1 0,2 -1,1 0,2 -1,1 0,1 -1,1 0,2 -1,1 0,1 -1,1 0,2 -1,1 0,1 -1,1 0,2 -1,1 0,1 -1,1 0,2 -1,1 2,0 1,-1 5,0 1,1 4,0 1,1 0,2 4,0 1,-1 8,0 1,1 9,0 1,1 0,3 -1,1 12,0 -1,-1 0,-3 1,-1 4,0 1,-1 3,0 1,-1 1,-1 1,0 1,-1 1,-1 1,-1 0,-3 1,-1 0,-4 1,-1 0,-4 1,-1 0,-39 -1,-1 0,-1 -30,0 -1,1 -16,0 0,2 -18,56 -1,-1 -1,0 0,1 -1,1 1,1 0,2 -1,1 1,1 0,-1 1,-2 0,-1 1,-1 0,-1 18,-56Z"/>
<path onmouseover="hoverPath(evt)" onmouseout="recoverPath(evt)" fill="rgb(243,242,235)" d="M  124,131l 0,13 -1,1 -2,0 1,1 0,0 1,1 3,0 1,-1 38,0 1,-1 4,0 1,-1 0,-3 1,-1 0,-4 1,-1 2,0 0,-4 -1,-1 0,-13 1,-1 4,0 1,-1 42,0 1,1 29,0 1,1 2,0 0,-39 -5,0 -1,1 -4,0 -1,-1 -1,-1 -5,0 -1,-1 -1,0 0,1 -1,1 -4,0 -1,-1 -1,0 0,1 -1,1 -5,0 -1,1 -8,0 -1,-1 -1,0 0,1 -1,1 -5,0 -1,-1 -1,0 0,1 -1,1 -5,0 -1,-1 -1,0 0,1 -1,1 -5,0 -1,-1 -1,0 0,1 -1,1 -5,0 -1,-1 -2,0 0,1 -1,1 -5,0 -1,-1 -1,0 0,1 -1,1 -6,0 -1,-1 -2,0 0,1 -1,1 -5,0 -1,-1 -2,0 0,1 -1,1 -5,0 -1,1 -3,0 -1,-1 -1,1 -4,0 -1,-1 -2,0 0,1 -1,1 -6,0 -1,-1 0,13 2,0 1,-1 1,0 0,-8 1,-1 9,0 1,1 0,7 1,1 0,6 -1,1 -1,0 -1,1 -13,0 0,17 -1,1Z"/>
<path onmouseover="hoverPath(evt)" onmouseout="recoverPath(evt)" fill="rgb(243,241,232)" d="M  180,118l -4,0 0,11 1,1 0,6 -1,1 0,8 34,0 1,1 18,0 1,1 0,2 7,0 0,-6 1,-1 0,-4 1,-1 0,-2 1,-1 0,-1 1,-1 5,0 1,1 1,0 1,1 6,0 0,-15 -3,0 -1,-1 -29,0 -1,-1 -40,0 -1,1Z"/>
<path onmouseover="hoverPath(evt)" onmouseout="recoverPath(evt)" fill="rgb(254,254,254)" d="M  206,147l 1,1 21,0 -19,-1 -3,0 -32,1 0,0 -1,1 0,0 1,-1 32,-1 -33,-3 1,0 0,-7 -1,5 0,2 33,3 -39,0 -1,1 -31,0 0,1 3,0 35,5Z"/>
</svg>