<svg width="256" height="256" xmlns="http://www.w3.org/2000/svg"><script> 
var tempColor;
function hoverPath(evt){
obj = evt.target;
tempColor = obj.getAttribute("fill");
obj.setAttribute("fill","red");
//alert(tempColor);
//obj.setAttribute("stroke","red");}
function recoverPath(evt){
obj = evt.target;
obj.setAttribute("fill", tempColor);
//obj.setAttribute("stroke", tempColor);
}</script><path onmouseover="hoverPath(evt)" onmouseout="recoverPath(evt)" fill="rgb(241,239,229)" d="M  25,243l 0,0 -1,1 -1,1 -1,1 -1,1 -1,1 -1,1 -1,1 -1,1 -1,1 -1,1 -1,1 0,1 70,0 0,-3 1,-1 0,-2 1,-1 1,-1 1,-1 1,0 1,-1 3,0 1,-1 4,0 1,1 7,0 1,1 9,0 1,1 9,0 1,1 9,0 1,1 9,0 1,1 9,0 1,-1 4,0 0,-2 -10,0 -1,-1 -9,0 -1,-1 -9,0 -1,-1 -10,0 -1,-1 -13,0 -1,-1 -9,0 -1,-1 -12,0 -1,-1 -12,0 -1,-1 -21,0 -1,1 -16,0 -1,1 -2,0 -1,1 -1,0 -1,1Z"/>
<path onmouseover="hoverPath(evt)" onmouseout="recoverPath(evt)" fill="rgb(227,223,209)" d="M  71,116l -35,0 9,1 0,1 25,0 0,-1 1,-1Z"/>
<path onmouseover="hoverPath(evt)" onmouseout="recoverPath(evt)" fill="rgb(252,252,249)" d="M  90,248l -1,0 -1,1 -1,1 0,2 -1,1 0,2 2,0 0,-4 2,-2 0,-1 2,-1 0,0 1,1 12,0 1,1 9,0 1,1 9,0 1,1 9,0 1,1 9,0 1,1 0,2 17,0 0,-2 -6,0 -1,-1 -10,0 -1,-1 -9,0 -1,-1 -9,0 -1,-1 -9,0 -1,-1 -9,0 -1,-1 -7,0 -1,-1 -2,0 -1,1 -2,0 -2,1Z"/>
<path onmouseover="hoverPath(evt)" onmouseout="recoverPath(evt)" fill="rgb(254,254,254)" d="M  174,228l 0,3 3,0 1,1 11,0 1,1 9,0 1,1 10,0 1,1 8,0 1,1 10,0 1,1 10,0 1,1 13,0 0,-4 -12,0 -1,-1 -11,0 -1,-1 -10,0 -1,-1 -9,0 -1,-1 -10,0 -1,-1 -10,0 -1,-1 -8,0 -1,-1 -3,0 -1,1Z"/>
<path onmouseover="hoverPath(evt)" onmouseout="recoverPath(evt)" fill="rgb(240,239,229)" d="M  176,104l 0,37 10,0 1,-1 6,0 1,1 5,0 1,-1 39,0 1,-1 1,-1 2,0 1,1 0,1 11,0 0,-11 -16,0 -1,-1 0,-1 -20,0 -1,-1 0,-17 -1,-1 0,-3 1,-1 1,0 0,-3 1,-1 33,0 0,-7 -3,0 -1,-1 0,-2 1,-1 6,0 0,-16 -35,0 -1,-1 -43,0 0,24 3,0 1,1 0,-12 1,-1 2,0 1,1 0,2 1,1 1,1 0,2 -1,1 -1,0 0,5 1,1 0,2 -1,1 0,2 -1,1Z"/>
<path onmouseover="hoverPath(evt)" onmouseout="recoverPath(evt)" fill="rgb(244,243,235)" d="M  176,172l 0,51 3,0 1,1 0,2 8,0 1,1 10,0 1,1 10,0 1,1 9,0 1,1 10,0 1,1 11,0 1,1 11,0 0,-82 -39,0 0,6 1,1 0,10 -1,1 0,14 -1,1 -1,0 -1,1 -6,0 -1,-1 0,-1 -8,0 -1,1 -17,0 -1,-1 0,-13 -3,0Z"/>
<path onmouseover="hoverPath(evt)" onmouseout="recoverPath(evt)" fill="rgb(238,236,225)" d="M  178,149l -2,0 0,14 4,0 1,1 0,2 -1,1 -5,0 6,1 0,13 15,0 1,-1 10,0 1,1 0,1 4,0 1,-1 1,0 0,-14 1,-1 0,-8 -1,-1 0,-8 1,-1 -2,0 -1,1 -24,0 -1,-1 -7,0 -1,1Z"/>
<path onmouseover="hoverPath(evt)" onmouseout="recoverPath(evt)" fill="rgb(241,240,231)" d="M  219,108l 0,17 20,0 1,1 0,1 15,0 0,-21 -31,0 -1,-1 0,-1 -3,0 0,1 -1,1 -1,0 0,1 1,1Z"/>
<path onmouseover="hoverPath(evt)" onmouseout="recoverPath(evt)" fill="rgb(192,215,150)" d="M  0,1l 0,8 4,0 1,1 1,0 1,-1 4,0 1,1 1,0 1,1 0,2 2,0 1,1 3,0 1,1 1,0 1,-1 6,0 0,-1 1,-1 0,-1 1,-1 -1,-1 0,-3 1,-1 0,-1 1,-1 0,-1 1,-1 0,-1 -32,0 -1,1Z"/>
<path onmouseover="hoverPath(evt)" onmouseout="recoverPath(evt)" fill="rgb(241,239,230)" d="M  0,13l 0,75 1,0 0,-1 1,-1 0,-3 1,-1 0,-1 1,-1 1,-1 0,-1 1,-1 0,-1 1,-1 0,-3 1,-1 1,-1 0,-1 1,-1 0,-1 1,-1 0,-3 1,-1 1,-1 0,-1 1,-1 0,-1 1,-1 0,-1 1,-1 0,-3 1,-1 1,-1 0,-1 1,-1 0,-1 1,-1 0,-1 1,-1 0,-3 2,-2 0,-1 1,-1 0,-1 1,-1 0,-1 1,-1 0,-2 1,-1 0,-1 1,-1 0,-1 1,-1 0,-1 1,-1 0,-3 1,-1 1,-1 0,-1 1,-1 0,-1 1,-1 0,-2 1,-1 0,-1 1,-1 0,-1 1,-1 0,-1 1,-1 0,-2 1,-1 0,-1 1,-1 0,-1 -5,0 0,2 -1,1 0,1 -1,1 0,1 -1,1 0,1 1,1 0,2 -1,1 0,1 -1,1 0,1 -1,1 -6,0 -1,1 -3,0 -1,-1 -3,0 -1,-1 -2,0 -1,-1 0,-2 -1,0 -1,-1 -2,0 -1,1 -3,0 -1,-1 -3,0Z"/>
<path onmouseover="hoverPath(evt)" onmouseout="recoverPath(evt)" fill="rgb(254,254,254)" d="M  0,213l 0,3 14,0 1,1 11,0 1,1 9,0 1,1 9,0 1,1 7,0 1,1 14,0 1,1 11,0 1,1 9,0 1,1 9,0 1,1 11,0 1,1 11,0 1,1 10,0 1,1 10,0 1,1 9,0 1,1 4,0 0,-4 -4,0 -1,-1 -10,0 -1,-1 -10,0 -1,-1 -10,0 -1,-1 -11,0 -1,-1 -11,0 -1,-1 -10,0 -1,-1 -10,0 -1,-1 -12,0 -1,-1 -10,0 -1,-1 -8,0 -1,-1 -9,0 -1,-1 -11,0 -1,-1 -16,0 -1,-1 -5,0 -1,1Z"/>
<path onmouseover="hoverPath(evt)" onmouseout="recoverPath(evt)" fill="rgb(236,235,226)" d="M  30,99l -10,0 -1,-1 0,-1 -2,0 -1,-1 0,1 -1,1 0,1 -1,1 0,1 -1,1 0,1 -1,1 0,1 -1,1 -1,0 0,2 -1,1 -1,0 0,6 -1,1 -1,0 0,2 -1,1 3,0 2,2 0,1 5,0 1,1 0,5 1,0 0,-4 -1,-2 0,-2 1,-1 16,0 0,-1 1,-1 0,-2 1,-1 60,0 0,-14 -1,0 -1,-1Z"/>
<path onmouseover="hoverPath(evt)" onmouseout="recoverPath(evt)" fill="rgb(171,198,238)" d="M  42,1l 0,1 -1,1 0,1 -1,1 0,2 -1,1 0,1 -1,1 0,1 -1,1 0,1 -1,1 0,2 -1,1 0,1 -1,1 0,1 -1,1 -1,1 0,3 -1,1 0,1 -1,1 0,1 -1,1 0,1 -1,1 0,2 -1,1 0,1 -1,1 0,1 -1,1 0,1 -1,1 -1,1 0,3 -1,1 0,1 -1,1 0,1 -1,1 0,1 -1,1 -1,1 0,3 -1,1 0,1 -1,1 0,1 -1,1 0,1 -1,1 -1,1 0,3 -1,1 0,1 -1,1 0,1 -1,1 -1,1 0,3 -1,1 0,1 -1,1 0,1 -2,2 0,1 -1,1 0,3 -1,1 0,1 -1,1 -2,0 0,20 1,0 0,-1 1,-1 0,-2 1,-1 0,-1 1,-1 0,-1 1,-1 0,-1 1,-1 0,-2 1,-1 0,-1 1,-1 1,-1 0,-1 1,-1 0,-2 1,-1 0,-2 1,-1 1,-1 0,-2 1,-1 1,-1 0,-1 1,-1 0,-2 1,-1 0,-2 1,-1 0,-1 1,-1 0,-1 1,-1 0,-1 1,-1 0,-1 1,-1 0,-1 1,-1 0,-2 1,-1 0,-1 1,-1 0,-1 1,-1 0,-1 1,-1 0,-1 1,-1 0,-1 1,-1 0,-2 1,-1 0,-1 1,-1 0,-1 1,-1 0,-1 1,-1 0,-1 1,-1 0,-1 1,-1 0,-2 1,-1 0,-1 1,-1 0,-1 1,-1 0,-1 1,-1 0,-1 1,-1 0,-2 1,-1 0,-2 1,-1 1,-1 0,-1 1,-1 0,-1 1,-1 0,-3 1,-1 0,-1 1,-1 1,-1 0,-3 1,-1 1,-1 0,-2 -7,0 -1,1Z"/>
<path onmouseover="hoverPath(evt)" onmouseout="recoverPath(evt)" fill="rgb(242,241,233)" d="M  47,32l -1,0 0,1 -1,1 0,1 -1,1 0,1 -1,1 0,1 -1,1 1,1 0,2 -1,1 0,1 -1,1 -2,0 0,1 -1,1 0,1 -1,1 0,2 -1,1 0,1 -1,1 1,1 0,2 -1,1 -2,0 0,1 -1,1 0,1 -1,1 0,1 -1,1 0,2 -1,1 0,1 -1,1 1,1 0,2 -1,1 -2,0 0,1 -1,1 0,1 -1,1 0,2 -1,1 0,1 -1,1 1,1 4,0 0,-1 1,-1 0,-1 1,-1 1,0 0,-1 1,-1 30,0 0,-3 1,-1 1,0 0,-1 -1,-1 0,-1 -1,-1 0,-1 -1,-1 0,-1 -1,-1 0,-5 1,-1 3,0 0,-3 1,-1 5,0 0,-4 1,-1 2,0 1,-1 1,0 0,-5 1,-1 1,-1 0,-2 -2,0 -1,-1 -2,0 -1,-1 0,-2 -2,0 -1,-1 -2,0 -1,-1 -2,0 -1,-1 -2,0 -1,-1 -2,0 -1,-1 -2,0 -1,-1 -1,0 -1,1Z"/>
<path onmouseover="hoverPath(evt)" onmouseout="recoverPath(evt)" fill="rgb(250,250,246)" d="M  56,0l -4,0 0,3 -1,1 -1,1 0,3 -1,1 -1,1 0,1 -1,1 0,3 -1,1 0,1 -1,1 0,1 -2,2 0,2 -1,1 0,2 -1,1 0,1 -1,1 0,1 -1,1 0,1 -1,1 0,1 -1,1 0,2 -1,1 0,1 -1,1 0,1 -1,1 0,1 -1,1 0,1 -1,1 0,1 -1,1 0,2 -1,1 0,1 -1,1 0,1 -1,1 0,1 -1,1 0,1 -1,1 0,1 -1,1 0,2 -1,1 0,1 -1,1 0,1 -1,1 0,1 -1,1 0,1 -1,1 0,1 -1,1 0,2 -1,1 0,2 -1,1 0,1 -1,1 -1,1 0,2 -2,2 0,2 -1,1 0,2 -1,1 1,1 0,3 -1,1 0,1 -1,1 0,2 -1,1 0,1 1,0 0,-1 1,-1 0,-1 1,-1 0,-1 1,-1 0,-1 1,-1 0,-1 1,-1 0,-2 1,-1 0,-1 1,-1 0,-1 1,-1 0,-1 1,-1 0,-1 1,-1 0,-1 1,-1 0,-1 1,-1 0,-2 1,-1 0,-1 1,-1 0,-1 1,-1 2,0 -1,-1 0,-2 1,-1 0,-1 1,-1 0,-2 1,-1 0,-1 1,-1 0,-1 1,-1 0,-1 1,-1 2,0 -1,-1 0,-2 1,-1 0,-1 1,-1 0,-2 1,-1 0,-1 1,-1 0,-1 1,-1 2,0 0,-1 1,-1 -1,-1 0,-2 1,-1 0,-1 1,-1 0,-1 1,-1 0,-1 1,-1 0,-1 1,-1 4,0 1,-1 3,0 1,1 2,0 1,1 2,0 1,1 2,0 1,1 2,0 1,1 2,0 1,1 2,0 1,1 0,2 2,0 1,1 1,0 1,-1 3,0 0,-2 1,-1 2,0 1,-1 -2,0 -1,-1 -2,0 -1,-1 0,-2 -1,1 -3,0 -1,-1 -2,0 -1,-1 -2,0 -1,-1 -1,0 -1,-1 -2,0 -1,-1 -2,0 -1,-1 0,-2 -1,1 -3,0 -1,-1 -2,0 -1,-1 -1,-1 0,-2 1,-1 0,-1 1,-1 0,-1 1,-1 2,0 -1,-1 0,-3 1,-1 2,0 -1,-1 0,-2 1,-1 7,0 1,-1 51,0 1,-1 1,-1 3,0 1,1 1,1 39,0 0,-1 1,-1 0,-2Z"/>
<path onmouseover="hoverPath(evt)" onmouseout="recoverPath(evt)" fill="rgb(243,242,233)" d="M  59,9l 0,1 -1,1 -2,0 0,1 1,1 0,2 -1,1 -2,0 0,1 -1,1 0,1 -1,1 1,1 2,0 1,1 1,0 1,-1 2,0 1,1 0,2 2,0 1,1 2,0 1,1 1,0 1,1 2,0 1,1 2,0 1,1 1,0 1,-1 2,0 1,1 0,2 2,0 1,1 1,0 1,-1 4,0 0,-2 1,-1 2,0 0,-1 2,-2 0,-1 1,-1 6,0 0,-5 1,-1 1,-1 1,-1 1,-1 1,-1 1,-1 1,0 1,-1 3,0 1,1 0,1 1,1 0,1 1,1 1,-1 0,-2 -1,-1 0,-4 -39,0 -1,-1 0,-1 -9,0 -1,1 -7,0 1,1Z"/>
<path onmouseover="hoverPath(evt)" onmouseout="recoverPath(evt)" fill="rgb(239,238,231)" d="M  106,39l 1,1 3,0 1,1 2,0 1,1 2,0 1,1 2,0 1,1 2,0 1,1 2,0 1,1 2,0 1,1 2,0 1,1 2,0 1,1 2,0 1,1 2,0 1,1 2,0 1,1 3,0 1,1 2,0 1,1 2,0 1,1 2,0 1,1 1,0 1,-1 2,0 0,-47 -44,0 0,3 1,1 0,4 -1,1 -1,1 -2,0 -1,-1 -1,-1 0,-1 -1,-1 0,-1 -1,0 -1,1 -1,0 -1,1 -1,1 -1,1 -1,1 -1,1 0,5 -1,1 -6,0 0,1 -1,1 -1,1 0,1 -1,1 -2,0 0,2 -1,1 -4,0 0,2 -2,2 -2,0 0,2 -1,1 -3,0 0,3 3,0 1,1 0,1 1,1 0,3 -1,1 0,8 1,0 1,-1 1,-1 3,-3 0,-1 1,-1 1,-1 1,-1 1,0 0,-3 1,-1 2,0 1,1 1,0 1,1 3,0 -2,-1 -1,0 -1,-1 0,-2 1,-1 1,-1 0,-2 1,-1 3,0 1,1Z"/>
<path onmouseover="hoverPath(evt)" onmouseout="recoverPath(evt)" fill="rgb(247,236,141)" d="M  165,1l 0,2 -1,1 0,1 -1,1 0,50 -1,1 1,0 1,1 0,0 1,1 0,6 -1,1 -1,1 0,11 1,1 0,62 1,1 0,4 -1,1 0,1 -1,1 1,1 0,69 -1,1 0,4 1,1 0,6 1,1 0,11 -1,1 0,2 -1,1 0,3 -1,1 2,0 1,1 0,3 7,0 0,-18 1,-1 0,-3 -1,-1 0,-6 1,-1 5,0 -4,-1 0,-55 -1,-1 0,-2 1,-1 0,-16 -1,-1 0,-6 1,-1 0,-38 1,-1 7,0 0,-2 1,-1 -1,-1 0,-7 1,-1 0,-1 -1,-1 0,2 2,0 -3,9 -2,0 -1,-1 -3,0 -1,-1 0,-26 1,-1 45,0 1,1 34,0 0,-11 -80,0 -1,-1 -1,-1 0,-50 1,-1 -1,-1 0,-1 -1,-1 0,-4 -6,0 -1,1 10,164 -10,-164 -3,5 -40,0 -1,-1 -1,-1 -1,0 -1,1 -1,1 45,0 3,-5Z"/>
<path onmouseover="hoverPath(evt)" onmouseout="recoverPath(evt)" fill="rgb(253,253,253)" d="M  174,1l 0,2 1,1 0,1 3,0 1,-1 76,0 0,-4 -80,0 -1,1Z"/>
<path onmouseover="hoverPath(evt)" onmouseout="recoverPath(evt)" fill="rgb(244,243,235)" d="M  175,9l 0,48 1,1 79,0 0,-52 -75,0 -1,1 -3,0 0,1 -1,1 29,38 -5,0 -1,-1 -1,0 -1,-1 0,-12 1,-1 11,0 1,1 0,12 -1,1 -3,0 -1,1 -29,-38Z"/>
<path onmouseover="hoverPath(evt)" onmouseout="recoverPath(evt)" fill="rgb(233,230,218)" d="M  254,93l 0,8 -1,1 -33,0 5,1 0,1 30,0 0,-10 -1,-1 1,-1 0,-1 -5,0 4,1Z"/>
<path onmouseover="hoverPath(evt)" onmouseout="recoverPath(evt)" fill="rgb(243,242,235)" d="M  0,190l 0,20 7,0 1,1 16,0 1,1 11,0 1,1 9,0 1,1 8,0 1,1 10,0 1,1 12,0 1,1 10,0 1,1 10,0 1,1 11,0 1,1 11,0 1,1 10,0 1,1 10,0 1,1 10,0 1,1 2,0 0,-5 1,-1 0,-67 -1,-1 0,-1 -26,0 -1,-1 -37,0 -1,1 -74,0 -1,-1 -21,0 0,13 4,0 1,1 1,1 2,0 0,-7 1,-1 8,0 1,1 1,1 0,12 4,0 1,1 0,7 -1,1 0,6 -1,1 0,3 -1,1 -20,0 -1,1Z"/>
<path onmouseover="hoverPath(evt)" onmouseout="recoverPath(evt)" fill="rgb(174,199,238)" d="M  10,158l 0,6 -1,1 -4,0 -1,-1 -1,-1 -3,0 0,24 20,0 0,-3 1,-1 0,-6 1,-1 0,-5 -4,0 -1,-1 0,-12 -1,-1 -5,0 -1,1Z"/>
<path onmouseover="hoverPath(evt)" onmouseout="recoverPath(evt)" fill="rgb(240,240,230)" d="M  42,141l 51,0 1,-1 1,0 0,-19 -1,-1 -50,0 -1,-1 0,-1 -7,0 -1,1 0,1 -1,1 -16,0 0,1 1,1 0,6 -1,1 -3,0 -1,-1 0,-5 -5,0 -1,-1 0,-1 -1,-1 -3,0 -1,-1 0,-2 1,-1 0,-2 1,-1 1,0 0,-6 1,-1 1,0 0,-1 -1,-1 0,-3 1,-1 0,-2 1,-1 0,-1 1,-1 0,-1 -1,1 0,0 -1,2 -1,3 -1,2 0,1 -1,1 0,1 -1,1 0,2 -1,1 0,1 -1,1 -2,0 0,29 14,0 1,1 16,0 1,-1Z"/>
<path onmouseover="hoverPath(evt)" onmouseout="recoverPath(evt)" fill="rgb(237,235,228)" d="M  64,70l 0,1 1,1 0,3 -1,1 -1,0 0,2 27,0 1,-1 4,0 1,-1 1,-1 0,-2 1,-1 2,0 0,-1 1,-1 0,-1 1,-1 0,-2 1,-1 0,-1 1,-1 0,-2 1,-1 0,-1 1,-1 0,-2 1,-1 0,-1 1,-1 0,-1 -1,-1 0,-1 -1,-1 -1,0 -1,1 -2,0 -1,-1 -4,0 -1,-1 -1,0 -1,-1 0,3 -1,1 -1,0 -1,1 -1,1 0,1 -1,1 -1,1 -1,1 -1,1 -2,2 -3,0 -1,-1 0,-10 1,-1 0,-1 -1,-1 0,-1 -3,0 -1,1 0,5 -1,1 -1,0 -1,1 -2,0 0,4 -1,1 -5,0 0,3 -1,1 -3,0 0,3 1,1 0,1 1,1 0,1 1,1Z"/>
<path onmouseover="hoverPath(evt)" onmouseout="recoverPath(evt)" fill="rgb(236,234,222)" d="M  99,102l 0,14 27,0 1,1 0,2 -1,1 -27,0 0,20 1,1 62,0 -35,-21 31,0 1,-1 1,-1 2,0 0,-19 -1,0 -1,1 -3,0 -1,-1 -56,0 -1,1Z"/>
<path onmouseover="hoverPath(evt)" onmouseout="recoverPath(evt)" fill="rgb(245,244,237)" d="M  101,122l 0,17 61,0 0,-19 -1,0 -1,1 0,0 -1,1Z"/>
<path onmouseover="hoverPath(evt)" onmouseout="recoverPath(evt)" fill="rgb(241,239,230)" d="M  110,54l 0,0 -1,1 0,1 -1,1 0,2 -1,1 0,1 -1,1 0,2 -1,1 0,1 -1,1 0,2 -1,1 0,1 -1,1 0,1 -1,1 0,3 16,0 1,1 6,0 0,-1 1,-1 31,0 1,1 0,2 1,1 0,3 1,0 1,1 0,10 1,1 0,2 1,0 0,-17 -1,-1 0,-12 -1,0 -1,-1 -2,0 -1,-1 -2,0 -1,1 -2,0 -1,-1 0,-2 -2,0 -1,-1 -2,0 -1,-1 -2,0 -1,-1 -2,0 -1,-1 -3,0 -1,-1 -2,0 -1,-1 -2,0 -1,-1 -2,0 -1,-1 -2,0 -1,-1 -2,0 -1,-1 -2,0 -1,-1 -2,0 -1,-1 -2,0 -1,1Z"/>
<path onmouseover="hoverPath(evt)" onmouseout="recoverPath(evt)" fill="rgb(237,236,220)" d="M  138,254l -3,0 -1,-1 -9,0 -1,-1 -9,0 -1,-1 -9,0 -1,-1 -11,0 -1,1 -1,0 -1,1 0,3 47,0 1,-1 1,1 5,0 0,-1 -4,0 -1,1 -1,-1Z"/>
<path onmouseover="hoverPath(evt)" onmouseout="recoverPath(evt)" fill="rgb(252,252,251)" d="M  150,56l 0,0 -1,-1 -2,0 -1,-1 -3,0 -1,-1 -2,0 -1,-1 -2,0 -1,-1 -2,0 -1,-1 -2,0 -1,-1 -2,0 -1,-1 -2,0 -1,-1 -2,0 -1,-1 -2,0 -1,-1 -2,0 -1,-1 -2,0 -1,-1 -2,0 -1,-1 -3,0 -1,-1 -2,0 -1,-1 -1,0 0,2 -1,1 -1,1 1,0 1,1 1,0 1,1 0,2 1,-1 3,0 1,1 1,1 5,0 1,1 2,0 1,1 2,0 1,1 2,0 1,1 2,0 1,1 2,0 1,1 2,0 1,1 2,0 1,1 3,0 1,1 2,0 1,1 2,0 1,1 2,0 1,1 2,0 1,1 0,2 1,-1 4,0 1,1 2,0 1,1 1,0 1,-1 0,-4 -1,-1 -3,0 -1,-1 -2,0 -1,-1 -2,0 -1,-1Z"/>
<path onmouseover="hoverPath(evt)" onmouseout="recoverPath(evt)" fill="rgb(236,235,217)" d="M  159,234l 0,0 1,1 3,0 0,-2 -1,-1 -5,0 -1,-1 -9,0 -1,-1 -10,0 -1,-1 -10,0 -1,-1 -11,0 -1,-1 -11,0 -1,-1 -9,0 -1,-1 -9,0 -1,-1 -11,0 -1,-1 -14,0 -1,-1 -7,0 -1,-1 -9,0 -1,-1 -9,0 -1,-1 -11,0 -1,-1 -13,0 0,2 2,0 1,1 10,0 1,1 10,0 1,1 10,0 1,1 10,0 1,1 10,0 1,1 11,0 1,1 9,0 1,1 7,0 1,1 7,0 1,1 12,0 1,1 12,0 1,1 12,0 1,1 11,0 1,1Z"/>
<path onmouseover="hoverPath(evt)" onmouseout="recoverPath(evt)" fill="rgb(172,198,236)" d="M  176,238l -2,0 0,17 1,-11 10,0 1,1 10,0 1,1 11,0 1,1 10,0 1,1 11,0 1,1 10,0 1,1 12,0 0,-6 -7,0 -1,-1 -11,0 -1,-1 -12,0 -1,-1 -12,0 -1,-1 -10,0 -1,-1 -13,0 -1,-1Z"/>
<path onmouseover="hoverPath(evt)" onmouseout="recoverPath(evt)" fill="rgb(236,238,234)" d="M  198,34l 0,10 1,0 1,1 3,0 1,-1 3,0 0,-10Z"/>
<path onmouseover="hoverPath(evt)" onmouseout="recoverPath(evt)" fill="rgb(253,253,253)" d="M  1,143l -1,0 0,3 22,0 1,1 72,0 1,-1 39,0 1,1 26,0 0,-1 1,-1 0,-2 -64,0 -1,-1 -1,-1 0,-22 1,-1 27,0 -28,-1 0,-18 1,-1 1,-1 -1,0 -1,-1 0,-15 1,-1 0,0 1,-1 11,0 -11,-1 0,-4 -1,3 0,0 -1,1 -1,1 -2,0 3,1 0,-1 -1,18 -1,0 0,1 2,0 0,-1 60,0 1,1 1,0 0,-2 -1,-1 0,2 -62,19 0,1 -1,1 -23,0 24,1 0,0 1,-1 -1,0 0,24 -1,0 -1,1 -61,0 -1,1 -18,0 -1,-1Z"/>
<path onmouseover="hoverPath(evt)" onmouseout="recoverPath(evt)" fill="rgb(172,198,237)" d="M  0,223l 0,6 4,0 1,1 9,0 1,1 10,0 1,1 11,0 1,1 8,0 1,1 21,0 1,1 13,0 1,1 11,0 1,1 11,0 1,1 11,0 1,1 11,0 1,1 12,0 1,1 5,0 1,1 13,0 0,-5 -4,0 -1,-1 -12,0 -1,-1 -11,0 -1,-1 -12,0 -1,-1 -12,0 -1,-1 -12,0 -1,-1 -7,0 -1,-1 -7,0 -1,-1 -9,0 -1,-1 -11,0 -1,-1 -10,0 -1,-1 -10,0 -1,-1 -10,0 -1,-1 -10,0 -1,-1 -10,0 -1,-1 -1,1Z"/>
<path onmouseover="hoverPath(evt)" onmouseout="recoverPath(evt)" fill="rgb(243,242,233)" d="M  41,235l -4,0 -1,-1 -11,0 -1,-1 -10,0 -1,-1 -9,0 -1,-1 -3,0 0,24 8,0 0,-2 2,-2 1,-1 4,-4 1,-1 4,-4 1,-1 1,-1 1,0 1,-1 1,0 1,-1 1,0 1,-1 12,0 1,-1 1,1 2,0 1,-1 -3,0 0,1 -1,-1Z"/>
<path onmouseover="hoverPath(evt)" onmouseout="recoverPath(evt)" fill="rgb(236,234,224)" d="M  44,80l -12,0 0,1 -1,1 -1,0 0,1 -1,1 0,1 -1,1 -6,0 -1,-1 0,1 -1,1 0,1 -1,1 0,1 -1,1 0,1 -1,1 0,1 1,1 2,0 1,1 0,1 72,0 0,-1 1,-1 1,0 0,-14 -2,0 -1,-1 0,-1 -1,1Z"/>
<path onmouseover="hoverPath(evt)" onmouseout="recoverPath(evt)" fill="rgb(253,253,252)" d="M  89,239l 7,0 1,1 9,0 1,1 13,0 1,1 10,0 1,1 9,0 1,1 9,0 1,1 10,0 0,-1 -10,0 -4,-1 -5,0 -1,-1 -10,0 10,1 -13,-2 -8,0 -4,-1 -10,0 -2,-1 -8,0 -4,-1 -3,0 -1,1 -4,0 -1,-1 -2,0 -1,-1 -13,0 -1,-1 -20,0 -1,1 -1,1 -16,0 -1,1 -1,0 -1,1 -1,0 -1,1 -1,0 -1,1 -1,1 -1,1 -1,1 -1,1 -1,1 -1,1 -1,1 -1,1 -1,1 -1,1 -1,1 -1,1 0,1 2,0 0,-2 1,-1 1,-1 1,-1 1,-1 1,-1 1,-1 1,-1 1,-1 1,-1 1,-1 1,-1 62,-3 4,0 -36,-2 14,0 4,1 10,0 3,1Z"/>
<path onmouseover="hoverPath(evt)" onmouseout="recoverPath(evt)" fill="rgb(240,238,229)" d="M  99,83l 0,12 57,0 0,-1 1,-1 1,0 0,-8 -1,0 -1,-1 0,-3 -1,-1 0,-2 -29,0 0,1 -1,1 -8,0 -1,-1 -4,0 0,1 -1,1 -11,0 -1,1Z"/>
<path onmouseover="hoverPath(evt)" onmouseout="recoverPath(evt)" fill="rgb(254,254,254)" d="M  175,143l 0,4 3,0 1,-1 9,0 1,1 22,0 1,-1 43,0 0,-4 -12,0 -1,-1 0,-1 -1,1 -1,1 -39,0 -1,1 -7,0 -1,-1 -4,0 -1,1Z"/>
<path onmouseover="hoverPath(evt)" onmouseout="recoverPath(evt)" fill="rgb(244,243,237)" d="M  176,247l 0,8 79,0 0,-3 -13,0 -1,-1 -10,0 -1,-1 -11,0 -1,-1 -10,0 -1,-1 -11,0 -1,-1 -10,0 -1,-1 -7,0 -1,1Z"/>
<path onmouseover="hoverPath(evt)" onmouseout="recoverPath(evt)" fill="rgb(233,232,212)" d="M  234,239l -4,0 -1,-1 -10,0 -1,-1 -8,0 -1,-1 -10,0 -1,-1 -9,0 -1,-1 -11,0 -1,-1 -1,0 0,3 10,0 1,1 13,0 1,1 10,0 1,1 12,0 1,1 9,0 1,-1 1,1 1,0 1,1 11,0 1,1 6,0 0,-2 -14,0 -1,-1 -4,0 -1,1 -1,-1Z"/>
</svg>