<svg width="256" height="256" xmlns="http://www.w3.org/2000/svg"><script> 
var tempColor;
function hoverPath(evt){
obj = evt.target;
tempColor = obj.getAttribute("fill");
obj.setAttribute("fill","red");
//alert(tempColor);
//obj.setAttribute("stroke","red");}
function recoverPath(evt){
obj = evt.target;
obj.setAttribute("fill", tempColor);
//obj.setAttribute("stroke", tempColor);
}</script><path onmouseover="hoverPath(evt)" onmouseout="recoverPath(evt)" fill="rgb(244,243,236)" d="M  0,176l 0,79 23,0 0,-3 1,-1 0,-3 1,-1 0,-2 1,-1 0,-3 1,-1 0,-3 1,-1 0,-1 1,-1 0,-2 1,-1 0,-2 1,-1 0,-2 1,-1 0,-1 -1,0 -1,-1 -4,0 -1,-1 -4,0 -1,-1 0,-4 1,-1 0,-3 1,-1 0,-3 1,-1 0,-3 1,-1 0,-1 1,-1 7,0 1,1 4,0 1,1 1,0 0,-2 1,-1 0,-2 1,-1 0,-2 1,-1 0,-2 1,-1 0,-2 1,-1 0,-2 1,-1 0,-2 1,-1 0,-2 1,-1 -3,0 -1,-1 -5,0 -1,-1 -5,0 -1,-1 -6,0 -1,-1 -6,0 -1,-1 -7,0 -1,-1 -7,0 -1,-1 -1,0Z"/>
<path onmouseover="hoverPath(evt)" onmouseout="recoverPath(evt)" fill="rgb(236,238,234)" d="M  26,204l 0,1 -1,1 0,3 -1,1 0,3 -1,1 0,3 -1,1 0,2 4,0 1,1 4,0 1,1 1,-1 0,-2 1,-1 0,-1 1,-1 0,-2 1,-1 0,-2 1,-1 0,-2 1,-1 0,-1 -1,0 -1,-1 -4,0 -1,-1Z"/>
<path onmouseover="hoverPath(evt)" onmouseout="recoverPath(evt)" fill="rgb(239,238,228)" d="M  31,52l 0,3 -1,1 -2,0 0,4 1,1 0,8 1,0 1,1 4,0 1,1 4,0 1,1 1,1 0,5 -1,1 1,0 1,1 0,9 1,0 1,1 0,2 1,1 2,0 0,-5 1,-1 2,0 1,1 3,0 1,-1 3,0 1,-1 3,0 1,1 1,0 0,-2 -2,0 -1,-1 0,-1 -1,-1 -2,0 -1,-1 0,-1 -1,0 -1,-1 -1,-1 -1,0 -1,-1 0,-2 1,-1 5,0 1,1 4,0 1,1 0,-22 1,-1 0,-1 -1,0 -1,-1 -1,0 -1,-1 -26,0 -1,-1 -2,0 -1,1 -1,0Z"/>
<path onmouseover="hoverPath(evt)" onmouseout="recoverPath(evt)" fill="rgb(243,242,235)" d="M  77,100l 0,12 -1,1 0,8 -1,1 0,5 -1,1 0,6 1,0 1,1 0,2 -1,1 -2,0 0,1 -1,1 0,4 -1,1 0,6 1,0 1,1 5,0 1,1 4,0 1,1 5,0 1,1 4,0 1,1 4,0 1,1 5,0 1,1 4,0 1,1 5,0 1,1 5,0 1,1 3,0 1,1 5,0 1,1 2,0 -1,-1 -1,0 -2,-1 -4,0 -1,-1 -1,0 -1,-1 -1,-1 0,-2 1,-1 1,0 1,-1 0,-2 1,-1 0,-3 1,-1 0,-3 1,-1 0,-3 1,-1 0,-4 1,-1 0,-2 1,-1 0,-3 1,-1 0,-4 1,-1 0,-4 1,-1 0,-3 1,-1 0,-5 1,-1 0,-3 1,-1 0,-3 -1,-1 0,-2 -3,0 -1,-1 -4,0 -1,-1 -5,0 -1,-1 -5,0 -1,-1 -5,0 -1,-1 -5,0 -1,-1 -5,0 -1,-1 -6,0 -1,-1 -5,0 -1,-1 -6,0 -1,-1 -1,0 0,13 30,52 -1,-1 0,-2 1,-1 2,0 1,1 0,2 -1,1 -2,0 -30,-52 13,45 -1,-1 0,-2 1,-1 2,0 1,1 0,2 -1,1 -2,0 -13,-45Z"/>
<path onmouseover="hoverPath(evt)" onmouseout="recoverPath(evt)" fill="rgb(244,242,234)" d="M  0,1l 0,64 5,0 1,1 6,0 1,1 4,0 1,1 6,0 0,-1 1,-1 0,-5 1,-1 0,-5 1,-1 0,-4 -1,-1 -3,0 -1,1 -9,0 -1,-1 -1,-1 0,-16 1,-1 0,-1 1,-1 3,0 1,-1 33,0 1,1 6,0 1,1 1,1 1,1 0,6 -1,1 0,5 1,1 0,1 3,0 1,1 1,0 0,-13 1,-1 0,-33 -65,0 -1,1Z"/>
<path onmouseover="hoverPath(evt)" onmouseout="recoverPath(evt)" fill="rgb(190,208,235)" d="M  0,141l 0,6 7,0 1,1 5,0 1,1 5,0 1,1 5,0 1,1 5,0 1,1 5,0 1,1 4,0 1,1 5,0 1,1 5,0 1,1 2,0 1,-1 0,-2 1,-1 0,-1 1,-1 0,-1 -1,-1 0,-2 -5,0 -1,-1 -5,0 -1,-1 -4,0 -1,-1 -5,0 -1,-1 -5,0 -1,-1 -5,0 -1,-1 -4,0 -1,-1 -5,0 -1,-1 -5,0 -1,-1 -4,0 -1,-1 -2,0Z"/>
<path onmouseover="hoverPath(evt)" onmouseout="recoverPath(evt)" fill="rgb(243,242,234)" d="M  1,149l -1,0 0,19 4,0 1,1 7,0 1,1 6,0 1,1 6,0 1,1 6,0 1,1 6,0 1,1 4,0 1,-1 3,0 1,-1 0,-2 1,-1 0,-1 1,-1 0,-2 1,-1 0,-1 1,-1 0,-2 1,-1 0,-1 -1,0 -1,-1 -5,0 -1,-1 -5,0 -1,-1 -4,0 -1,-1 -5,0 -1,-1 -5,0 -1,-1 -5,0 -1,-1 -5,0 -1,-1 -5,0 -1,-1Z"/>
<path onmouseover="hoverPath(evt)" onmouseout="recoverPath(evt)" fill="rgb(241,240,229)" d="M  43,229l 0,1 -1,1 0,2 -1,1 0,2 -1,1 0,2 2,0 1,1 2,0 1,1 3,0 1,1 3,0 1,1 2,0 1,1 4,0 1,1 2,0 1,1 2,0 1,1 3,0 1,1 2,0 1,1 4,0 1,1 3,0 1,-1 0,-2 1,-1 0,-2 -1,-1 0,-3 1,-1 1,0 1,-1 0,-4 -2,0 -1,-1 -4,0 -1,-1 -4,0 -1,-1 -5,0 -1,-1 -7,0 -1,-1 -5,0 -1,-1 -6,0 -1,-1 -3,0 0,1 -1,1Z"/>
<path onmouseover="hoverPath(evt)" onmouseout="recoverPath(evt)" fill="rgb(247,236,140)" d="M  69,77l -2,0 -1,1 -2,0 -1,-1 -4,0 -1,-1 -3,0 2,1 0,0 1,1 1,0 1,1 0,1 2,0 1,1 1,1 0,1 2,0 1,1 0,29 -1,1 0,7 -1,1 0,4 -1,1 0,3 -1,1 0,4 -1,1 0,7 -1,1 0,3 1,1 0,3 -1,1 0,1 -1,1 0,2 -2,2 -1,0 0,2 -1,1 0,2 -1,1 0,1 -1,1 0,2 -1,1 0,1 -1,1 0,2 -1,1 -1,1 -3,0 4,1 0,3 -1,1 0,1 -1,1 -1,0 0,2 -1,1 0,2 -1,1 0,2 -1,1 0,2 -1,1 0,2 -1,1 0,2 -1,1 0,2 -1,1 0,2 -1,1 0,2 -1,1 0,2 -1,1 0,2 -1,1 0,2 -1,1 0,1 -1,1 0,2 -1,1 0,3 -1,1 0,2 -1,1 0,2 -1,1 0,2 -1,1 0,1 -1,1 0,3 -1,1 0,3 -1,1 0,2 -1,1 0,3 -1,1 0,2 8,0 0,-2 1,-1 0,-3 1,-1 0,-2 1,-1 0,-5 1,-1 1,0 0,-3 1,-1 0,-2 1,-1 0,-2 1,-1 0,-1 1,-1 0,-4 1,-1 6,0 -5,-1 0,-3 1,-1 0,-2 1,-1 0,-2 1,-1 0,-2 1,-1 0,-2 1,-1 0,-2 1,-1 0,-1 1,-1 0,-2 1,-1 0,-2 1,-1 0,-2 1,-1 0,-2 1,-1 0,-2 1,-1 0,-2 1,-1 1,-1 0,0 -1,-1 0,-3 1,-1 5,0 -3,-1 0,-4 1,-1 0,-1 1,-1 0,-2 1,-1 0,-2 1,-1 0,-2 1,-1 0,-5 1,-1 0,-2 1,-1 2,0 0,-6 1,-1 0,-4 1,-1 0,-1 1,-1 2,0 -2,-1 0,-8 1,-1 0,-5 1,-1 0,-8 1,-1 0,-25 1,-1 3,0 1,1 6,0 1,1 5,0 1,1 6,0 1,1 5,0 1,1 5,0 1,1 5,0 1,1 5,0 1,1 5,0 1,1 4,0 1,1 3,0 1,1 0,0 1,-1 3,0 1,1 0,4 1,-3 6,0 1,1 5,0 1,1 4,0 1,1 5,0 1,1 6,0 1,1 6,0 1,1 6,0 1,1 5,0 1,1 6,0 1,1 5,0 1,-1 2,0 1,1 3,0 1,1 0,1 6,0 1,1 6,0 1,1 5,0 1,1 5,0 1,1 6,0 1,1 6,0 0,-6 -3,0 -1,-1 0,-1 -3,0 -1,-1 -6,0 -1,-1 -5,0 -1,-1 -6,0 -1,-1 -6,0 -1,-1 -4,0 -1,-1 -7,0 -1,-1 -6,0 -1,-1 -6,0 -1,-1 -6,0 -1,-1 -6,0 -1,-1 -5,0 -1,-1 -6,0 -1,-1 -5,0 -1,-1 -5,0 -1,-1 -4,0 -1,-1 -3,0 -1,1 -3,0 -1,-1 0,-1 -3,0 -1,-1 -4,0 -1,-1 -4,0 -1,-1 -4,0 -1,-1 -5,0 -1,-1 -6,0 -1,-1 -5,0 -1,-1 -5,0 -1,-1 -5,0 -1,-1 -5,0 -1,-1 -4,0 -1,1 -5,0 -1,-1 -1,-1 0,-3 -1,1 0,0 -2,2Z"/>
<path onmouseover="hoverPath(evt)" onmouseout="recoverPath(evt)" fill="rgb(242,231,140)" d="M  75,73l 0,3 1,1 3,0 -4,-5 0,-22 -1,0 -1,-1 0,-20 1,-1 2,0 0,-28 -8,0 0,34 -1,1 0,13 -1,1 -2,0 2,1 1,0 1,1 0,3 -1,1 0,20 2,0 1,-1 0,0 5,-5Z"/>
<path onmouseover="hoverPath(evt)" onmouseout="recoverPath(evt)" fill="rgb(254,254,254)" d="M  142,97l -1,0 0,2 -1,1 0,4 -1,1 0,3 -1,1 0,5 -1,1 0,3 -1,1 0,4 -1,1 0,4 -1,1 0,3 -1,1 0,2 -1,1 0,4 -1,1 0,3 -1,1 0,3 -1,1 0,3 -1,1 0,2 -1,1 -1,1 -1,0 1,1 1,0 1,1 3,0 -1,-1 0,0 -1,-1 0,-3 1,-1 0,-3 1,-1 0,-4 1,-1 0,-2 1,-1 0,-4 1,-1 0,-3 1,-1 0,-3 1,-1 0,-4 1,-1 0,-3 1,-1 0,-4 1,-1 0,-4 1,-1 0,-3 1,-1 0,-4 1,-1Z"/>
<path onmouseover="hoverPath(evt)" onmouseout="recoverPath(evt)" fill="rgb(254,254,254)" d="M  157,1l 0,4 -1,1 0,9 -1,1 0,10 -1,1 0,7 -1,1 0,4 -1,1 0,4 -1,1 0,4 -1,1 0,4 -1,1 0,5 -1,1 0,4 -1,1 0,4 -1,1 0,4 -1,1 0,4 -1,1 0,3 -1,1 0,3 1,0 1,-1 0,-6 1,-1 0,-4 1,-1 0,-4 1,-1 0,-4 1,-1 0,-4 1,-1 0,-4 1,-1 0,-4 1,-1 0,-4 1,-1 0,-5 1,-1 0,-4 1,-1 0,-6 1,-1 0,-10 1,-1 0,-9 1,-1 0,-4 -1,-1 1,-1Z"/>
<path onmouseover="hoverPath(evt)" onmouseout="recoverPath(evt)" fill="rgb(254,254,254)" d="M  195,169l 0,0 1,1 3,0 1,1 5,0 1,1 5,0 1,1 5,0 1,1 5,0 1,1 5,0 1,1 4,0 1,1 5,0 1,1 5,0 1,1 5,0 1,1 2,0 0,-2 -7,0 -1,-1 -5,0 -1,-1 -5,0 -1,-1 -5,0 -1,-1 -5,0 -1,-1 -5,0 -1,-1 -4,0 -1,-1 -5,0 -1,-1 -3,0 -1,-1 -1,0 -1,-1 0,-6 -1,0 0,4 -1,1 0,1 -1,1 -7,0 -1,-1 -6,0 6,1 6,0 6,-13 1,0 0,-2 1,-1 0,-11 1,-1 0,-5 1,-1 0,-3 1,-1 0,-3 1,-1 0,-2 1,-1 0,-2 1,-1 0,-2 1,-1 0,-1 1,-1 0,-2 1,-1 0,-2 1,-1 0,-1 1,-1 -2,0 0,2 -1,1 0,1 -1,1 0,2 -1,1 0,2 -1,1 0,1 -1,1 0,2 -1,1 0,2 -1,1 0,3 -1,1 0,3 -1,1 0,5 -1,1 0,11 -1,1 0,3 -6,13Z"/>
<path onmouseover="hoverPath(evt)" onmouseout="recoverPath(evt)" fill="rgb(244,243,236)" d="M  205,39l 1,0 1,1 1,0 1,1 0,12 -1,1 -15,0 -1,-1 0,-11 1,-1 1,-1 5,0 1,-1 5,0 29,41 3,0 1,1 6,0 1,1 5,0 1,1 0,8 -1,1 0,5 -1,1 0,5 3,0 1,1 0,1 2,0 0,-105 -95,0 0,7 -1,1 0,9 -1,1 0,10 -1,1 0,6 -1,1 0,4 -1,1 0,5 -1,1 0,4 -1,1 0,4 -1,1 0,4 -1,1 0,4 -1,1 0,4 -1,1 0,4 -1,1 0,4 -1,1 0,5 3,0 1,1 4,0 1,1 5,0 1,1 5,0 1,1 6,0 1,1 5,0 1,1 6,0 1,1 6,0 1,1 6,0 1,1 6,0 1,1 7,0 1,1 4,0 1,1 6,0 1,1 0,-2 1,-1 0,-5 1,-1 0,-4 1,-1 0,-4 1,-1 1,-1 -29,-41Z"/>
<path onmouseover="hoverPath(evt)" onmouseout="recoverPath(evt)" fill="rgb(242,241,234)" d="M  213,117l -1,1 0,1 -1,1 0,2 -1,1 0,2 -1,1 0,2 -1,1 0,3 -1,1 0,3 -1,1 0,5 -1,1 0,11 -1,1 0,3 -1,1 0,3 -1,1 0,4 1,0 1,1 3,0 1,1 5,0 1,1 4,0 1,1 5,0 1,1 5,0 1,1 5,0 1,1 5,0 1,1 5,0 1,1 6,0 0,-61 -7,0 -1,-1 -6,0 -1,-1 -5,0 -1,-1 -5,0 -1,-1 -6,0 -1,-1 -6,0 0,1 -1,1 0,2 -1,1Z"/>
<path onmouseover="hoverPath(evt)" onmouseout="recoverPath(evt)" fill="rgb(241,240,229)" d="M  38,246l -1,1 0,2 -1,1 0,3 -1,1 0,1 42,0 0,-1 -4,0 -1,-1 -2,0 -1,-1 -3,0 -1,-1 -3,0 -1,-1 -2,0 -1,-1 -3,0 -1,-1 -3,0 -1,-1 -2,0 -1,-1 -3,0 -1,-1 -3,0 -1,-1 -1,0Z"/>
<path onmouseover="hoverPath(evt)" onmouseout="recoverPath(evt)" fill="rgb(240,238,227)" d="M  55,42l 0,-9 -10,0 -1,-1 -10,0 -1,1 0,3 -1,1 0,8 8,0 1,1 13,0 1,-1Z"/>
<path onmouseover="hoverPath(evt)" onmouseout="recoverPath(evt)" fill="rgb(254,254,254)" d="M  60,178l -1,0 0,1 4,0 1,1 3,0 1,1 4,0 1,1 6,0 1,1 7,0 1,1 1,1 0,2 -1,1 0,4 1,0 0,-3 1,-1 0,-2 1,-1 1,-1 4,0 0,-1 -5,0 -1,-1 -9,0 -1,-1 -6,0 -1,-1 -5,0 -1,-1 -3,0 -1,-1 -3,0 37,7 7,0 1,1 7,0 1,1 4,0 0,-1 -4,0 -1,-1 -7,0 -1,-1 -6,0 -1,1 -37,-7Z"/>
<path onmouseover="hoverPath(evt)" onmouseout="recoverPath(evt)" fill="rgb(178,201,233)" d="M  68,154l 0,0 -1,1 0,3 5,0 1,1 6,0 1,1 5,0 1,1 5,0 1,1 6,0 1,1 5,0 1,1 5,0 1,1 5,0 1,1 6,0 1,1 5,0 1,1 5,0 1,1 6,0 1,1 5,0 1,1 5,0 1,1 6,0 1,1 5,0 1,1 5,0 1,1 5,0 1,1 6,0 1,1 5,0 1,1 5,0 1,1 6,0 1,1 5,0 1,1 5,0 1,1 6,0 1,1 5,0 1,1 6,0 1,1 5,0 1,1 11,0 0,-4 -3,0 -1,-1 -5,0 -1,-1 -5,0 -1,-1 -5,0 -1,-1 -4,0 -1,-1 -5,0 -1,-1 -5,0 -1,-1 -5,0 -1,-1 -5,0 -1,-1 -5,0 -1,-1 -2,0 -1,1 0,0 -1,1 -8,0 -1,-1 -6,0 -1,-1 -5,0 -1,-1 -4,0 -1,-1 -6,0 -1,-1 -5,0 -1,-1 -6,0 -1,-1 -1,-1 0,-1 -1,-1 0,-2 -5,0 -1,-1 -3,0 1,1 0,2 -1,1 -4,0 -1,-1 -5,0 -1,-1 -3,0 -1,-1 -5,0 -1,-1 -5,0 -1,-1 -4,0 -1,-1 -5,0 -1,-1 -4,0 -1,-1 -4,0 -1,-1 -5,0 -1,-1 -4,0 -1,-1 -5,0 -1,-1 -1,0 -1,-1 -1,0Z"/>
<path onmouseover="hoverPath(evt)" onmouseout="recoverPath(evt)" fill="rgb(252,252,250)" d="M  88,254l 0,0 -1,-1 0,-5 1,-1 0,-3 1,-1 0,-2 1,-1 0,-3 1,-1 0,-6 -1,-1 -2,0 -1,1 -5,0 -1,-1 -5,0 -1,-1 -5,0 -1,-1 -6,0 -1,-1 -6,0 -1,-1 -5,0 -1,-1 -5,0 0,1 4,0 1,1 6,0 1,1 5,0 1,1 7,0 1,1 5,0 1,1 4,0 1,1 4,0 1,1 2,0 1,1 0,6 -1,1 -1,1 -1,0 0,1 1,1 0,4 -1,1 0,2 -1,1 -1,1 -5,0 -1,-1 -4,0 -1,-1 -2,0 -1,-1 -3,0 -1,-1 -2,0 -1,-1 -2,0 -1,-1 -4,0 -1,-1 -2,0 -1,-1 -3,0 -1,-1 -3,0 -1,-1 -2,0 -1,-1 -3,0 0,1 2,0 1,1 3,0 1,1 3,0 1,1 2,0 1,1 3,0 1,1 3,0 1,1 2,0 1,1 3,0 1,1 3,0 1,1 2,0 1,1 4,0 1,1 0,2 8,0 1,-1 1,1 2,0 0,-1Z"/>
<path onmouseover="hoverPath(evt)" onmouseout="recoverPath(evt)" fill="rgb(241,240,232)" d="M  95,59l 0,0 1,-1 1,-1 4,0 1,1 5,0 1,1 6,0 1,1 1,0 1,1 0,3 -1,1 0,4 -1,1 0,4 -1,1 -1,1 -3,0 -1,-1 -5,0 -1,-1 -6,0 -1,-1 -2,0 -1,-1 0,-5 1,-1 0,-4 1,-1 0,-2 -3,18 1,1 5,0 1,1 5,0 1,1 5,0 1,1 6,0 1,1 5,0 1,1 4,0 1,1 4,0 1,1 4,0 1,1 2,0 0,-2 1,-1 0,-3 1,-1 0,-4 1,-1 0,-4 1,-1 0,-4 1,-1 0,-4 1,-1 0,-5 1,-1 0,-4 1,-1 0,-4 1,-1 0,-4 1,-1 0,-4 1,-1 0,-7 1,-1 0,-10 1,-1 0,-9 1,-1 0,-4 -77,0 0,29 -1,1 -2,0 0,18 1,0 1,1 0,26 3,0 1,1 5,0 1,1 5,0 3,-18Z"/>
<path onmouseover="hoverPath(evt)" onmouseout="recoverPath(evt)" fill="rgb(241,241,233)" d="M  143,106l -1,1 0,3 -1,1 0,4 -1,1 0,4 -1,1 0,3 -1,1 0,4 -1,1 0,3 -1,1 0,3 -1,1 0,4 -1,1 0,2 -1,1 0,4 -1,1 0,3 -1,1 0,1 1,1 1,1 0,2 1,0 1,-1 5,0 1,1 5,0 1,1 0,2 1,1 0,1 1,1 6,0 1,1 5,0 1,1 6,0 1,1 4,0 1,1 5,0 1,1 6,0 1,1 6,0 1,-1 -6,0 -1,-1 -5,0 -1,-1 0,-2 1,-1 8,0 1,1 5,0 0,-1 1,-1 0,-4 1,-1 0,-3 1,-1 0,-4 1,-1 0,-11 1,-1 0,-5 1,-1 0,-3 1,-1 0,-3 1,-1 0,-2 1,-1 0,-2 1,-1 0,-1 1,-1 0,-2 1,-1 0,-2 1,-1 0,-1 1,-1 0,-2 -1,1 -7,0 -1,-1 -6,0 -1,-1 -5,0 -1,-1 -6,0 -1,-1 -6,0 -1,-1 -6,0 -1,-1 -5,0 -1,-1 -4,0 -1,-1 -5,0 -1,-1 -4,0 0,2 -1,1 -2,0Z"/>
<path onmouseover="hoverPath(evt)" onmouseout="recoverPath(evt)" fill="rgb(236,238,234)" d="M  195,42l 0,0 -1,1 0,9 13,0 0,-10 -1,0 -1,-1 -4,0 -1,1Z"/>
<path onmouseover="hoverPath(evt)" onmouseout="recoverPath(evt)" fill="rgb(236,238,233)" d="M  225,194l 0,3 -1,1 0,4 -1,1 0,2 1,0 1,1 5,0 1,1 5,0 1,1 0,1 1,1 0,2 1,-2 0,-1 -1,-1 0,-2 1,-1 2,0 0,-1 1,-1 0,-2 -1,0 -1,-1 -1,-1 0,-1 -1,-1 0,-1 -1,0 -1,-1 -7,0 -1,-1Z"/>
<path onmouseover="hoverPath(evt)" onmouseout="recoverPath(evt)" fill="rgb(247,247,242)" d="M  1,67l -1,0 0,58 1,0 0,-3 1,-1 0,-3 1,-1 0,-7 1,-1 1,0 0,-3 1,-1 0,-3 1,-1 0,-3 1,-1 0,-4 1,-1 0,-4 1,-1 0,-5 1,-1 0,-5 1,-1 0,-1 1,-1 7,0 1,1 6,0 1,1 4,0 1,1 5,0 1,1 1,0 0,-3 -1,-1 -4,0 -1,-1 -4,0 -1,-1 -1,0 -1,-1 0,-8 -1,6 0,1 -1,1 -8,0 -1,-1 -4,0 -1,-1 -6,0 -1,-1Z"/>
<path onmouseover="hoverPath(evt)" onmouseout="recoverPath(evt)" fill="rgb(254,254,254)" d="M  1,171l 1,0 1,1 7,0 1,1 7,0 1,1 6,0 1,1 6,0 1,1 5,0 1,1 5,0 1,1 4,0 0,-1 -3,0 -1,-1 -5,0 -1,-1 -6,0 -1,-1 -6,0 -1,-1 -6,0 -1,-1 -6,0 -1,-1 -7,0 -1,-1 -1,0 -1,1Z"/>
<path onmouseover="hoverPath(evt)" onmouseout="recoverPath(evt)" fill="rgb(238,238,231)" d="M  5,118l 0,0 -1,1 0,3 -1,1 0,3 -1,1 -2,0 0,7 3,0 1,1 4,0 1,1 5,0 1,1 5,0 1,1 4,0 1,1 5,0 1,1 5,0 1,1 5,0 1,1 4,0 1,1 5,0 1,1 4,0 0,-1 1,-1 0,-7 1,-1 0,-4 1,-1 0,-3 1,-1 0,-4 1,-1 0,-7 1,-1 0,-23 -2,0 -1,-1 -1,0 -1,1 -3,0 -1,1 -5,0 -1,-1 0,5 -1,1 -4,0 -1,-1 -1,-1 0,-2 -1,0 -1,-1 0,-9 -3,0 -1,-1 0,-2 -5,0 -1,-1 -4,0 -1,-1 -6,0 -1,-1 -5,0 0,1 -1,1 0,5 -1,1 0,5 -1,1 0,4 -1,1 0,4 -1,1 0,3 -1,1 0,3 -1,1 0,3 -1,1 -1,0Z"/>
<path onmouseover="hoverPath(evt)" onmouseout="recoverPath(evt)" fill="rgb(254,254,254)" d="M  17,31l 3,0 1,-1 8,0 1,1 0,14 -1,1 -1,1 0,1 1,1 0,5 1,-6 1,0 1,-1 4,0 1,1 25,0 -4,-1 0,-1 -1,-1 0,-7 1,-1 0,-4 -1,-1 -1,-1 -6,0 -1,-1 -19,0 1,2 0,0 1,-1 -1,2 0,2 15,-4 3,0 8,2 0,13 -1,1 -25,0 -1,-1 0,0 -1,2 0,0 -2,-1 -8,0 -1,1 -2,0 -1,-1 -1,0 -1,-1 0,1 1,1 1,0 -2,-3 0,-12 6,15 2,0 -1,-18 -2,0 -1,1Z"/>
<path onmouseover="hoverPath(evt)" onmouseout="recoverPath(evt)" fill="rgb(239,236,224)" d="M  15,35l 0,10 1,0 1,1 1,-1 9,0 1,-1 0,-12 -6,0 -1,1 -6,0Z"/>
<path onmouseover="hoverPath(evt)" onmouseout="recoverPath(evt)" fill="rgb(244,243,236)" d="M  59,183l 0,0 -1,1 0,2 -1,1 0,2 -1,1 0,2 -1,1 0,2 -1,1 0,2 -1,1 0,2 -1,1 0,1 -1,1 0,2 -1,1 0,2 -1,1 0,2 -1,1 0,2 -1,1 0,2 -1,1 0,1 4,0 1,1 0,2 5,0 1,1 6,0 1,1 6,0 1,1 5,0 1,1 5,0 1,1 3,0 1,-1 4,0 1,1 1,1 0,8 -1,1 0,3 -1,1 0,2 -1,1 0,3 -1,1 0,3 3,0 1,1 0,2 162,0 0,-67 -12,0 -1,-1 -5,0 -1,-1 -6,0 -1,-1 -5,0 -1,-1 -6,0 -1,-1 -5,0 -1,-1 -5,0 -1,-1 -6,0 -1,-1 -5,0 -1,-1 -5,0 -1,-1 -6,0 -1,-1 -5,0 -1,-1 -5,0 -1,-1 -5,0 -1,-1 -6,0 -1,-1 -5,0 -1,-1 -5,0 -1,-1 -6,0 -1,-1 -5,0 -1,-1 -5,0 -1,-1 -6,0 -1,-1 -5,0 -1,-1 -5,0 -1,-1 -5,0 -1,-1 -6,0 -1,-1 -5,0 -1,-1 -5,0 -1,-1 -6,0 -1,-1 -4,0 -1,1 0,2 -1,1 0,2 -1,1 0,2 -1,1 0,1 -1,1 0,2 2,0 1,1 0,2 3,0 1,1 5,0 1,1 6,0 1,1 9,0 1,1 5,0 1,1 7,0 1,1 7,0 1,1 4,0 1,1 0,3 -1,1 -6,0 -1,-1 -7,0 -1,-1 -7,0 -1,-1 -2,0 -1,1 0,2 -1,1 0,3 -1,1 -3,0 -1,-1 0,-6 1,-1 -1,-1 -7,0 -1,-1 -6,0 -1,-1 -4,0 -1,-1 -2,0 -1,1 -4,0 170,9 1,1 7,0 1,1 1,0 1,1 0,1 1,1 0,1 1,1 1,0 1,1 0,4 -1,1 0,1 -1,1 -2,0 1,1 0,3 -1,1 0,1 -1,1 0,1 -1,1 -2,0 -1,-1 0,-2 1,-1 0,-1 -1,-1 0,-1 -5,0 -1,-1 -5,0 -1,-1 -1,0 -1,-1 0,-4 1,-1 0,-4 1,-1 0,-3 1,-1 5,0 -170,-9 172,41 1,1 0,2 -1,1 -2,0 -1,-1 0,-2 1,-1 2,0 -172,-41 122,47 -3,0 -1,-1 -5,0 -1,-1 -4,0 -1,-1 -4,0 -1,-1 -1,-1 0,-3 1,-1 0,-2 1,-1 1,-1 3,0 1,1 5,0 1,1 4,0 1,1 4,0 1,1 0,6 -1,1 0,1 -1,1 -122,-47Z"/>
<path onmouseover="hoverPath(evt)" onmouseout="recoverPath(evt)" fill="rgb(236,238,234)" d="M  98,59l -1,1 0,2 -1,1 0,4 -1,1 0,3 2,0 1,1 6,0 1,1 5,0 1,1 1,0 1,-1 0,-4 1,-1 0,-4 1,-1 0,-1 -1,0 -1,-1 -6,0 -1,-1 -5,0 -1,-1Z"/>
<path onmouseover="hoverPath(evt)" onmouseout="recoverPath(evt)" fill="rgb(236,238,234)" d="M  164,219l 0,0 -1,1 0,2 -1,1 0,1 1,1 4,0 1,1 4,0 1,1 5,0 1,1 1,0 0,-1 1,-1 0,-4 -4,0 -1,-1 -4,0 -1,-1 -5,0 -1,-1Z"/>
<path onmouseover="hoverPath(evt)" onmouseout="recoverPath(evt)" fill="rgb(236,238,234)" d="M  234,83l 0,4 -1,1 0,4 -1,1 0,5 -1,1 0,1 4,0 1,1 5,0 1,1 5,0 0,-5 1,-1 0,-5 1,-1 0,-6 -5,0 -1,-1 -6,0 -1,-1 -1,0 -1,1Z"/>
</svg>