<svg width="256" height="256" xmlns="http://www.w3.org/2000/svg"><script> 
var tempColor;
function hoverPath(evt){
obj = evt.target;
tempColor = obj.getAttribute("fill");
obj.setAttribute("fill","red");
//alert(tempColor);
//obj.setAttribute("stroke","red");}
function recoverPath(evt){
obj = evt.target;
obj.setAttribute("fill", tempColor);
//obj.setAttribute("stroke", tempColor);
}</script><path onmouseover="hoverPath(evt)" onmouseout="recoverPath(evt)" fill="rgb(244,243,235)" d="M  0,130l 0,62 1,0 1,1 1,1 1,1 0,1 1,1 2,2 1,1 4,0 1,-1 4,0 1,-1 4,0 1,-1 3,0 1,-1 1,0 1,-1 1,0 1,-1 1,-1 3,0 1,-1 3,0 1,-1 2,0 1,-1 1,-1 2,0 1,-1 3,0 1,-1 5,0 1,-1 2,0 1,-1 2,0 1,-1 7,0 1,1 0,2 1,1 0,4 1,1 0,-4 -1,-2 0,-12 -1,-1 0,-20 -1,-1 0,-15 -1,-1 0,-12 -1,0 -1,-1 -3,0 -1,1 -21,0 -1,1 -16,0 -1,-1 0,-2 1,-1 0,-1 -7,0 0,1 1,1 0,2 1,0 1,1 0,2 -1,1 -1,0 -1,1 -3,0 -1,-1 -3,0 -1,-1 0,-1 -1,-1 0,-2 -1,-1 0,-1 -8,0Z"/>
<path onmouseover="hoverPath(evt)" onmouseout="recoverPath(evt)" fill="rgb(174,200,237)" d="M  0,196l 0,17 2,0 1,1 0,1 1,1 1,1 0,1 1,1 1,1 1,1 0,1 1,1 1,1 0,1 1,1 1,1 1,1 0,1 1,1 1,1 0,1 1,1 0,1 1,1 0,1 1,1 1,1 0,1 1,1 0,1 1,1 0,1 1,1 1,1 0,1 1,1 0,1 1,1 1,1 0,1 1,1 0,3 12,0 0,-1 -1,0 -1,-1 0,-1 -1,-1 0,-1 -1,-1 -1,-1 0,-1 -1,-1 -1,-1 0,-1 -1,-1 -1,-1 0,-1 -2,-2 0,-1 -1,-1 -1,-1 0,-1 -1,-1 0,-1 -1,-1 -1,-1 -1,-1 0,-2 1,-1 2,0 1,1 1,-1 2,0 1,-1 2,0 1,-1 1,0 1,-1 2,0 1,-1 2,0 1,-1 1,0 1,-1 2,0 0,-1 -1,-1 0,-1 -1,-1 0,-2 -1,-1 0,-1 -1,-1 0,-1 -1,-1 -1,0 -1,-1 0,-3 -1,-1 0,-3 1,-1 2,0 1,-1 2,0 1,-1 1,0 1,-1 2,0 1,-1 3,0 1,-1 3,0 1,-1 4,0 1,-1 4,0 1,-1 2,0 1,-1 0,-3 -1,-1 0,-2 -5,0 -1,1 -2,0 -1,1 -2,0 -1,1 -5,0 -1,1 -3,0 -1,1 -2,0 -2,2 -2,0 -1,1 -3,0 -1,1 -3,0 -1,1 -1,1 -1,0 -1,1 -1,0 -1,1 -3,0 -1,1 -4,0 -1,1 -4,0 -1,1 -6,0 -2,-2 -1,-1 -1,-1 -1,-1 0,-1 -1,-1 -1,1Z"/>
<path onmouseover="hoverPath(evt)" onmouseout="recoverPath(evt)" fill="rgb(244,243,237)" d="M  13,11l 0,0 -1,-1 -1,-1 -1,-1 -1,-1 -1,-1 -1,0 -1,-1 -1,-1 -1,-1 -1,-1 -1,-1 0,-1 -2,0 0,16 2,0 1,1 1,1 1,1 -1,-2 0,-1 1,-1 1,-1 1,0 1,-1 1,-1 1,0 1,-1 2,0 4,3 0,1 1,0 -1,-1 -4,-3Z"/>
<path onmouseover="hoverPath(evt)" onmouseout="recoverPath(evt)" fill="rgb(244,242,232)" d="M  27,230l -2,0 -1,-1 2,2 1,1 0,1 1,1 0,1 1,1 1,1 0,1 1,1 1,1 0,1 1,1 1,1 0,1 1,1 1,1 0,1 1,1 1,1 0,1 1,1 0,1 1,0 1,1 0,2 35,0 0,-10 -1,-1 0,-22 -1,-1 0,-16 -2,0 -1,-1 0,-10 -1,1 -2,0 -1,1 -4,0 -1,1 -4,0 -1,1 -3,0 -1,1 -3,0 -1,1 -2,0 -1,1 -1,0 -1,1 -2,0 -1,1 -2,0 0,1 1,1 0,3 1,0 1,1 1,1 0,1 1,1 0,1 1,1 0,2 1,1 0,1 1,1 0,3 -1,1 -2,0 -1,1 -1,0 -1,1 -2,0 -1,1 -2,0 -1,1 -1,0 -1,1 -2,0 -1,1 -2,0 -1,1Z"/>
<path onmouseover="hoverPath(evt)" onmouseout="recoverPath(evt)" fill="rgb(237,237,222)" d="M  34,32l -3,0 -1,-1 -3,0 3,1 0,2 11,0 1,-1 16,0 1,-1 2,0 0,-3 -1,-1 0,-3 -1,2 -5,0 -1,1 -1,1 -4,0 -1,-1 -6,0 -1,-1 -3,0 0,3 -1,1 -1,0 -1,1Z"/>
<path onmouseover="hoverPath(evt)" onmouseout="recoverPath(evt)" fill="rgb(253,253,253)" d="M  61,50l 0,4 -1,1 -1,1 2,0 0,-1 -3,1 -7,0 -1,-1 0,-1 -1,2 1,0 12,-6 7,0 0,-5 -1,-1 0,-7 1,-1 1,0 1,-1 14,0 0,-1 -16,0 -1,-1 0,-1 -1,-1 0,-2 -1,-1 0,-5 -1,-1 0,-5 -1,-1 0,-7 -1,-1 0,-8 -4,0 0,9 1,1 0,5 1,1 0,5 1,1 0,5 1,1 0,5 -1,1 -2,0 -1,1 -16,0 -1,1 -30,0 -1,1 -11,0 0,2 4,0 1,-1 22,0 1,-1 24,0 1,-1 9,0 1,1 1,1 0,9 1,3Z"/>
<path onmouseover="hoverPath(evt)" onmouseout="recoverPath(evt)" fill="rgb(240,240,234)" d="M  75,60l -1,0 0,2 1,1 0,10 -1,1 0,20 1,1 0,15 1,1 0,6 18,0 1,-1 8,0 -1,-1 0,-2 -1,-1 -14,0 -1,-1 0,-21 1,-1 -1,-1 0,0 -1,-1 0,-3 1,-1 3,0 1,1 0,1 1,1 1,0 1,1 1,1 1,0 1,1 1,1 1,1 1,1 1,1 1,1 0,1 1,0 1,1 1,1 0,1 1,1 0,1 1,1 0,1 1,1 0,1 1,1 0,1 1,1 0,1 1,1 0,2 1,1 1,1 0,3 1,0 1,-1 18,0 1,-1 21,0 1,-1 17,0 1,-1 2,0 0,-5 -1,-1 0,-15 -1,-1 0,-6 1,-1 1,-1 2,0 1,1 1,1 0,19 1,1 0,6 1,1 0,1 15,0 1,-1 9,0 -1,-1 0,-3 -1,-1 0,-3 -1,-1 0,-4 -1,-1 0,-4 -1,-1 0,-5 -1,-1 0,-3 -1,-1 0,-2 -1,-1 0,-2 -1,-1 0,-1 -1,-1 0,-1 -9,0 -1,1 -2,0 -1,1 -1,0 -1,1 -5,0 -1,-1 -2,0 -1,-1 -4,0 -1,1 -8,0 -1,1 -25,0 -1,1 -11,0 -1,-1 0,-2 1,-1 1,-1 -2,1 0,0 -1,2 -5,0 -1,-1 0,-3 1,-1 1,-1 3,0 1,-1 1,0 1,-1 1,-1 6,0 1,1 1,1 1,-1 1,0 1,-1 1,0 1,-1 1,-1 1,-1 2,0 1,-1 1,0 1,-1 2,0 1,-1 5,0 1,-1 1,-1 5,0 1,1 1,-1 1,0 1,-1 1,0 1,-1 2,0 4,4 0,1 1,1 2,0 1,-1 4,0 1,1 1,1 1,1 1,1 3,0 1,-1 3,0 1,-1 2,0 1,-1 4,0 1,1 1,1 0,1 1,1 0,1 1,1 1,1 1,1 0,1 1,1 0,1 4,0 1,-1 5,0 1,-1 3,0 0,-1 -1,0 -1,-1 0,-1 -1,-1 0,-1 -1,-1 0,-3 1,-1 1,-1 2,0 1,1 2,0 1,1 4,0 0,-3 1,-1 2,-2 7,0 0,-2 1,-1 1,0 1,-1 1,0 1,-1 8,0 1,1 2,0 0,-1 1,-1 1,-1 2,0 0,-6 -5,0 -1,1 -3,0 -1,1 -2,0 -1,1 -1,0 -1,1 -2,0 -1,1 -2,0 -1,1 -2,0 -1,1 -2,0 -1,1 -2,0 -1,1 -1,0 -1,1 -2,0 -1,1 -2,0 -1,-1 -1,-1 0,-1 -1,-1 0,-1 -2,0 -1,-1 0,-2 1,-1 0,-1 1,-1 1,-1 3,0 1,1 2,0 1,-1 0,0 1,-1 1,0 1,-1 1,-1 1,0 1,-1 8,0 1,-1 5,0 1,1 0,1 1,1 3,0 1,-1 0,0 1,-1 1,-1 1,-1 1,0 1,-1 2,0 0,-5 -11,0 -1,1 -6,0 -1,-1 -4,0 -1,1 -20,0 -1,1 -23,0 -1,1 -22,0 -1,1 -21,0 -1,1 -21,0 8,1 0,17 1,1 0,2 -1,1 -1,1 -1,1 -12,0 -1,-1 -1,-1 -14,0 0,1 -1,1 0,1 -2,2 -14,0 -1,-1 0,-1Z"/>
<path onmouseover="hoverPath(evt)" onmouseout="recoverPath(evt)" fill="rgb(236,238,234)" d="M  88,92l 0,18 12,0 -1,-1 0,0 -1,-1 0,-1 -1,-1 0,-1 -1,-1 -1,-1 0,-5 -1,-1 0,-1 -1,-1 -1,-1 -1,-1 -1,-1 -1,-1 -1,1Z"/>
<path onmouseover="hoverPath(evt)" onmouseout="recoverPath(evt)" fill="rgb(222,223,218)" d="M  96,37l 0,-1 -1,0 -1,1 -7,0 0,6 -1,1 -2,0 -1,-1 -1,-1 0,-3 -2,0 0,1 -1,1 -1,1 0,1 3,0 1,1 0,16 1,0 0,-2 1,-1 1,-1 1,-1 1,-1 1,-1 1,-1 0,-1 1,-1 1,-1 1,0 0,-1 1,-1 0,-2 1,-1 2,0 0,-1 1,-1 1,0 1,-1 1,-1 1,0 0,-1 1,-1 -5,0 -1,-1Z"/>
<path onmouseover="hoverPath(evt)" onmouseout="recoverPath(evt)" fill="rgb(235,237,233)" d="M  103,40l 0,1 -1,1 -1,0 -1,1 -1,1 -1,0 0,1 -1,1 -2,0 0,2 -1,1 0,1 -1,1 -1,0 -1,1 0,1 -1,1 -1,1 -1,1 -1,1 -2,2 0,1 9,0 1,-1 0,-1 1,-1 0,-1 1,-1 16,0 1,1 1,1 10,0 1,-1 1,-1 -1,-1 0,-17 -7,0 -1,-1 0,1 -1,1 -13,0 0,1 -1,1Z"/>
<path onmouseover="hoverPath(evt)" onmouseout="recoverPath(evt)" fill="rgb(240,239,230)" d="M  116,26l 0,2 -1,1 -2,0 0,5 3,0 0,-3 1,-1 19,0 1,-1 22,0 1,-1 22,0 1,-1 23,0 1,-1 21,0 1,-1 16,0 1,-1 9,0 0,-6 -2,0 -1,1 -14,0 -1,1 -14,0 -1,1 -14,0 -1,1 -14,0 -1,1 -13,0 -1,1 -27,0 -1,-1 -1,-1 0,-4 1,-1 0,-2 1,-1 0,-1 1,-1 0,-1 1,-1 0,-2 1,-1 0,-1 1,-1 0,-2 1,-1 0,-2 -45,0 0,7 1,0 0,-2 1,-1 1,0 1,-1 2,0 1,1 0,10 -1,1 0,7 -1,1Z"/>
<path onmouseover="hoverPath(evt)" onmouseout="recoverPath(evt)" fill="rgb(171,198,238)" d="M  118,248l -1,0 0,1 -1,1 0,1 1,1 10,0 0,-2 1,-1 5,0 1,-1 2,0 1,-1 1,-1 1,-1 1,0 1,-1 1,-1 5,0 1,-1 2,0 0,-1 1,-1 1,-1 0,-3 -1,-1 0,-1 -1,-1 0,-1 -1,-1 -1,-1 -1,-1 -1,-1 -1,-1 0,-1 -1,-1 0,-4 1,-1 1,-1 1,0 1,-1 1,0 2,-2 1,0 1,-1 1,0 1,-1 1,-1 1,0 0,-1 1,-1 1,-1 1,0 1,-1 1,0 1,-1 1,0 1,-1 1,0 0,-2 1,-1 1,-1 -1,-1 0,-2 1,-1 1,-1 1,0 0,-3 1,-1 2,0 1,1 0,3 1,1 1,1 1,1 1,1 1,1 1,0 0,-2 1,-1 1,-1 1,0 1,-1 -1,-1 0,0 -1,-1 -1,-1 -1,-1 -1,-1 -1,-1 -1,0 -1,-1 0,-3 1,-1 1,-1 1,-1 0,-2 1,-1 0,-1 -1,-1 0,0 -1,-1 0,-2 1,-1 1,-1 4,0 1,-1 1,0 1,-1 1,0 1,-1 1,0 0,-1 1,-1 1,-1 1,-1 1,0 1,-1 1,0 1,-1 2,0 1,-1 1,0 1,-1 2,0 1,-1 1,0 1,-1 3,0 1,-1 2,0 1,-1 4,0 1,-1 1,0 0,-4 -1,-1 0,-9 -1,-1 0,-2 -1,-1 0,-4 -1,-1 0,-3 -1,-1 0,-6 -1,-1 0,-3 -1,-1 0,-3 -1,-1 -2,0 0,10 1,1 0,6 1,1 0,2 1,1 0,2 1,1 0,4 -1,1 -1,0 -1,1 -2,0 -1,1 -1,0 -1,1 -2,0 -1,1 -2,0 -1,1 -1,0 0,1 1,1 0,1 1,1 0,1 1,1 0,4 -1,1 -1,0 -1,1 -1,0 -1,1 -3,0 -1,1 -3,0 -1,1 -1,0 -1,1 -1,1 -3,0 -1,1 -3,0 -1,1 -3,0 -3,-3 -1,-1 0,2 -1,1 -1,0 -1,1 -1,1 -1,1 -1,1 0,1 -1,1 -1,1 -1,1 0,1 -1,1 -1,1 -3,3 -1,1 0,1 -1,1 -1,1 0,1 -1,1 -1,1 -1,1 0,1 -1,1 -1,1 -1,1 -1,0 -1,1 -4,0 -1,1 -2,0 -1,-1 -1,0 -1,-1 -1,-1 -1,-1 -1,-1 -1,-1 -1,-1 -1,-1 0,-1 -1,0 -1,-1 -1,-1 -1,-1 -1,-1 -1,-1 -1,-1 -1,-1 -1,-1 -1,-1 -1,-1 -1,-1 -1,-1 -1,0 -1,-1 -1,-1 -1,-1 0,-4 1,-1 0,-1 1,-1 0,-1 1,-1 1,-1 3,-3 1,-1 1,0 1,-1 2,-2 1,-1 1,-1 1,0 1,-1 3,0 4,-4 1,-1 1,0 1,-1 2,0 1,1 1,0 1,1 1,1 1,1 1,1 1,1 0,1 1,1 1,1 1,1 1,1 1,1 1,1 1,1 1,1 1,1 1,1 1,1 1,1 1,1 1,0 1,-1 0,0 1,-1 1,-1 1,-1 3,0 1,1 1,1 0,0 -4,-3 0,-1 -1,0 -1,-1 -1,-1 -1,-1 -1,-1 -1,-1 -1,-1 -1,-1 -3,-3 -1,-1 -1,-1 -1,-1 -1,-1 -1,-1 -1,-1 -3,-3 -1,-1 -1,-1 -1,-1 -6,0 -1,1 -1,0 -3,3 -1,1 -4,0 -1,-1 0,-1 -1,-1 0,-1 -1,-1 0,-1 -1,-1 -1,-1 0,-1 -1,-1 -1,-1 0,-1 -1,-1 0,-1 -1,-1 -1,-1 0,-1 -1,0 -1,-1 -1,-1 -1,0 -1,-1 -1,-1 0,-2 -1,0 0,4 1,1 0,2 1,1 0,1 1,1 1,1 0,1 1,1 0,1 1,1 0,1 1,1 0,1 1,1 0,2 1,1 0,3 -1,1 0,1 -1,1 -2,2 -1,1 0,1 -1,1 -1,1 0,3 -1,1 -1,1 -2,2 -1,0 -1,1 -1,1 -1,0 -1,1 -2,0 -1,1 -1,0 -1,1 -2,0 0,1 -1,1 0,1 -1,1 0,1 -1,1 -2,2 -1,1 -2,0 -1,1 -1,1 -1,0 -1,1 -1,0 -1,1 -1,0 0,1 -1,1 0,3 1,0 1,1 1,-1 1,0 1,-1 1,0 1,-1 2,0 1,-1 2,0 1,-1 8,0 1,1 1,0 1,-1 2,0 1,1 1,0 1,1 1,1 1,1 1,1 0,1 1,1 1,0 1,1 1,0 1,1 0,3 -1,1 -2,0 -1,1 -1,0 -1,1 -2,0 -1,1 -1,0 -1,1 -1,0 -1,1 -2,2 -1,1 -1,0 -1,1 -2,0 -1,1 -1,0 -1,1 -1,0 -1,1 -1,0 -1,1 -1,0 -1,1 0,1 1,1 0,0 1,1 0,1 1,1 1,1 1,1 1,1 0,3 1,1 0,1 1,1 0,2 1,1 0,1 3,0 1,-1 2,0 1,-1 1,0 1,-1 1,0 1,-1 2,0 1,-1 1,0 1,-1 2,0 1,-1 1,0 1,-1 2,0 1,-1 1,0 1,-1 1,0 1,-1 3,0 1,1 0,1 1,1 0,1 1,1 0,1 1,1 0,1 1,1 1,1 0,1 1,1 1,1 0,1 1,1 0,1 1,1 0,3 -2,2 -1,1 -1,1 -1,1 -1,1 -1,0 -1,1 -1,0 -1,1 -2,0 -1,1 -1,0 -1,1 -1,0 -1,1 -1,0 -1,1 -1,0 -1,1Z"/>
<path onmouseover="hoverPath(evt)" onmouseout="recoverPath(evt)" fill="rgb(244,243,237)" d="M  129,156l -1,0 -1,1 -1,1 -1,1 -1,1 -1,1 -1,0 -1,1 -3,3 -1,1 0,1 -1,1 0,1 -1,1 0,2 2,2 1,0 1,1 1,1 1,1 1,1 1,1 1,1 1,1 1,1 1,1 1,1 1,1 1,1 1,0 -1,-1 0,-2 1,-1 1,-1 1,0 1,-1 1,0 1,-1 1,-1 1,-1 1,0 1,-1 4,0 1,1 1,1 1,0 1,1 1,0 1,1 1,1 0,1 1,1 0,4 -1,1 -1,1 -1,1 0,0 -1,1 1,0 -1,1 -1,0 -1,1 1,0 -2,1 -7,0 -1,-1 -1,-1 -1,-1 -1,-1 -1,-1 0,-1 -1,0 8,7 0,0 13,-10 0,0 1,-1 0,-1 1,-1 2,-2 1,-1 1,-1 1,-1 0,-1 1,-1 1,-1 1,-1 0,-1 1,-1 1,-1 1,-1 1,-1 1,-1 1,0 0,-1 -1,-1 -1,0 -1,1 0,0 -3,3 -3,0 -1,-1 -1,-1 -1,-1 -1,-1 -1,-1 -1,-1 -1,-1 -1,-1 -1,-1 -1,-1 -1,-1 -1,-1 -1,-1 -1,-1 0,-1 -1,-1 -1,-1 -1,-1 -1,-1 -1,0 -1,-1 -1,1 -1,0 -1,1 -1,1 -1,1 -1,1 -1,1 -3,0 -1,1Z"/>
<path onmouseover="hoverPath(evt)" onmouseout="recoverPath(evt)" fill="rgb(248,236,139)" d="M  128,254l -12,0 -1,-1 -28,0 0,2 40,0 1,-1 1,1 126,0 0,-9 -3,0 -1,1 -18,0 0,1 -1,1 -3,0 -1,-1 -22,0 -1,1 -21,0 -1,1 -19,0 -1,1 -20,0 -1,1 -8,0 -1,-1 -4,0 0,4 -1,-1Z"/>
<path onmouseover="hoverPath(evt)" onmouseout="recoverPath(evt)" fill="rgb(171,198,238)" d="M  132,184l 0,0 1,1 0,1 1,0 1,1 0,1 1,1 1,1 1,1 1,1 5,0 1,-1 1,-1 4,-4 0,-2 -1,-1 0,-1 -1,-1 -1,0 -1,-1 -1,0 -1,-1 -1,-1 -2,0 -1,1 -1,0 -1,1 -1,1 -1,1 -1,0 -1,1 -1,0 -1,1Z"/>
<path onmouseover="hoverPath(evt)" onmouseout="recoverPath(evt)" fill="rgb(243,242,234)" d="M  226,116l -1,0 0,3 1,1 0,15 1,1 0,13 1,1 0,15 1,1 0,17 1,1 0,16 1,1 0,11 1,1 0,9 1,1 0,22 17,0 1,-1 4,0 0,-130 -7,0 -1,1 -20,0 -1,1Z"/>
<path onmouseover="hoverPath(evt)" onmouseout="recoverPath(evt)" fill="rgb(239,239,231)" d="M  0,43l 0,12 2,0 1,-1 14,0 1,1 2,0 1,-1 0,-10 -2,0 -1,-1 0,-1 -10,0 -1,-1 0,-1 -1,0 -1,1 -5,0Z"/>
<path onmouseover="hoverPath(evt)" onmouseout="recoverPath(evt)" fill="rgb(244,243,234)" d="M  0,217l 0,38 25,0 0,-2 -1,-1 0,-1 -1,-1 -1,-1 0,-1 -1,-1 0,-1 -1,-1 -1,-1 0,-1 -1,-1 0,-1 -1,-1 0,-1 -1,-1 -1,-1 0,-1 -1,-1 0,-1 -1,-1 0,-1 -1,-1 -1,-1 0,-1 -1,-1 -2,-2 0,-1 -1,-1 -1,-1 0,-1 -1,-1 -1,-1 -1,-1 0,-1 -1,-1 -1,-1 -1,1Z"/>
<path onmouseover="hoverPath(evt)" onmouseout="recoverPath(evt)" fill="rgb(180,203,237)" d="M  5,1l 1,1 1,1 1,1 1,0 1,1 1,1 1,1 1,1 1,1 1,0 1,1 1,1 1,1 1,1 1,1 0,2 -1,1 -3,0 -1,-1 0,-1 -1,-1 -1,-1 -1,0 -1,1 -1,0 -1,1 -1,1 -1,0 -1,1 1,1 0,2 -1,1 -2,0 -1,-1 -1,-1 -1,-1 -1,0 0,17 10,0 1,-1 17,0 0,-1 -2,0 -1,-1 0,-2 1,-1 5,0 1,1 1,0 1,-1 1,0 0,-3 1,-1 5,0 1,1 6,0 1,1 2,0 1,-1 0,-3 -10,0 -1,-1 -4,0 -1,-1 -1,-1 -2,0 -1,-1 -1,0 -1,-1 -1,-1 -1,-1 -1,0 -1,-1 -1,-1 -1,-1 -1,-1 -1,-1 -1,-1 -1,0 -1,-1 -1,-1 0,-3 1,-1 1,-1 3,0 1,1 1,0 1,1 1,0 1,1 1,0 0,-2 1,-1 1,0 0,-1 1,-1 0,-1 -26,0 -1,1Z"/>
<path onmouseover="hoverPath(evt)" onmouseout="recoverPath(evt)" fill="rgb(253,253,252)" d="M  29,121l -2,0 0,2 -1,1 14,0 1,-1 21,0 1,-1 5,0 1,1 1,0 1,1 0,12 1,1 0,15 1,1 0,20 1,1 0,13 1,1 0,15 1,1 0,16 1,1 0,22 1,1 0,11 5,0 0,-1 -1,-1 0,-10 -1,-1 0,-14 -1,-1 0,-17 -1,-1 0,-16 -1,-1 0,-6 1,-1 0,-3 -1,-1 0,-2 -1,-1 0,-24 -1,-1 0,-11 -1,-1 0,-14 -1,-1 0,-3 1,-1 1,-1 2,0 1,-1 18,0 1,-1 18,0 1,-1 18,0 1,-1 21,0 1,-1 21,0 1,-1 20,0 1,-1 8,0 1,1 2,0 1,-1 8,0 1,1 0,7 1,1 0,14 1,1 0,16 1,1 0,13 1,1 0,16 1,1 0,16 1,1 0,11 1,1 0,13 1,1 0,18 1,0 0,-23 -1,-1 0,-9 -1,-1 0,-11 -1,-1 0,-16 -1,-1 0,-17 -1,-1 0,-15 -1,-1 0,-13 -1,-1 0,-15 -1,-1 0,-5 1,-1 1,0 1,-1 20,0 1,-1 8,0 0,-1 -6,0 -1,-1 0,-4 1,-1 2,0 0,-11 -1,10 -1,0 -1,1 -8,0 0,1 -1,1 -2,0 -1,-1 -14,0 12,1 0,0 1,1 0,2 -1,1 -1,1 -14,0 -1,1 -5,0 -1,-1 -4,0 -1,1 -9,0 -1,1 -17,0 -1,-1 0,-1 -1,-1 0,-6 -1,-1 0,-19 -1,-1 -1,1 0,4 1,1 0,15 1,1 0,7 -1,1 -2,0 -1,1 -17,0 -1,1 -21,0 -1,1 -18,0 -1,1 -3,0 -1,-1 -3,0 -1,1 -10,0 -1,1 -20,0 -1,-1 0,-6 -1,-1 0,-15 -1,-1 0,-20 -1,1 0,0 -2,2 -1,0 0,12 1,1 0,14 1,1 0,10 -1,1 0,1 -1,1 -10,0 -1,1 -20,0 -1,1Z"/>
<path onmouseover="hoverPath(evt)" onmouseout="recoverPath(evt)" fill="rgb(241,239,229)" d="M  32,5l -1,0 0,2 -1,1 -3,0 -1,-1 -1,0 -1,-1 -1,0 -1,-1 -1,0 -1,1 0,1 1,1 1,0 1,1 1,1 1,1 1,1 1,1 1,1 1,0 1,1 1,1 1,1 1,0 1,1 1,0 0,-7 1,-1 1,-1 -1,-1 0,-2 1,-1 -1,-1 0,-2 1,-1 0,-1 -3,0 0,2 -1,1 0,1 -1,1Z"/>
<path onmouseover="hoverPath(evt)" onmouseout="recoverPath(evt)" fill="rgb(238,237,228)" d="M  48,118l 8,0 1,-1 10,0 0,-1 1,-1 0,-8 -1,-1 0,-14 -1,-1 0,-14 1,-1 1,0 2,-2 1,-1 1,0 1,-1 0,-8 -1,-1 0,-4 1,-1 7,0 0,-13 -3,0 -1,-1 0,-3 1,-1 1,-1 0,-1 1,-1 4,0 1,1 0,3 1,1 0,-5 -13,0 -1,1 -1,0 0,5 1,1 0,7 -1,1 -7,0 0,5 -1,1 -15,0 -1,-1 0,-2 1,-1 1,0 0,-1 1,-1 2,0 1,1 0,1 6,0 1,-1 0,-5 1,-1 2,0 0,-8 -1,-1 -7,0 -1,1 -24,0 -1,1 -19,0 11,1 0,1 2,0 1,1 0,12 -1,1 -1,1 -4,0 -1,-1 -12,0 -1,1 -3,0 0,63 9,0 1,1 0,1 1,1 0,2 1,1 0,1 3,0 1,1 1,0 1,-1 1,0 -2,-1 0,-2 -1,-1 0,-3 1,-1 18,0 1,-1Z"/>
<path onmouseover="hoverPath(evt)" onmouseout="recoverPath(evt)" fill="rgb(236,237,231)" d="M  39,9l 0,1 -1,1 -1,1 0,7 1,1 4,0 1,1 10,0 1,1 0,3 4,0 0,-1 1,-1 1,0 -1,-1 0,-5 -1,-1 0,-5 -1,-1 0,-10 -18,0 0,2 -1,1 1,1 0,2 -1,1 1,1Z"/>
<path onmouseover="hoverPath(evt)" onmouseout="recoverPath(evt)" fill="rgb(239,239,229)" d="M  66,0l -1,0 0,7 1,1 0,7 1,1 0,5 1,1 0,5 1,1 0,2 1,1 0,1 16,0 1,1 0,2 6,0 1,-1 3,0 1,1 0,1 18,0 -5,-1 0,-7 1,-1 2,0 0,-5 1,-1 0,-7 1,-1 0,-8 -1,1 -1,0 0,2 -1,1 -3,0 -1,-1 0,-8Z"/>
<path onmouseover="hoverPath(evt)" onmouseout="recoverPath(evt)" fill="rgb(243,242,233)" d="M  77,126l 0,14 1,1 0,11 1,1 0,24 1,1 0,2 1,-2 1,0 1,-1 1,0 1,-1 1,0 1,-1 1,-1 2,0 1,-1 1,-1 1,-1 0,-1 1,-1 0,-1 1,-1 0,-1 1,-1 2,0 1,-1 1,0 1,-1 2,0 1,-1 1,0 1,-1 1,-1 1,0 1,-1 1,-1 1,-1 0,-3 1,-1 1,-1 0,-1 1,-1 1,-1 1,-1 1,-1 0,-1 1,-1 0,-1 -1,-1 0,-2 -1,-1 0,-1 -1,-1 0,-1 -1,-1 0,-1 -1,-1 0,-1 -1,-1 -1,-1 0,-1 -1,-1 0,-2 -1,-1 0,-5 -10,0 -1,1 -18,0 -1,1 -2,0 -1,1 0,1 1,1Z"/>
<path onmouseover="hoverPath(evt)" onmouseout="recoverPath(evt)" fill="rgb(244,243,235)" d="M  82,188l 0,0 -1,-1 -1,0 0,4 1,1 0,16 1,1 0,17 1,1 0,14 1,1 0,10 1,1 0,-1 1,-1 28,0 0,-2 1,-1 0,-1 1,-1 1,0 1,-1 1,0 1,-1 1,0 1,-1 1,0 1,-1 1,0 1,-1 2,0 1,-1 1,0 1,-1 1,0 1,-1 1,-1 3,-3 0,-1 -1,-1 0,-1 -1,-1 0,-1 -1,-1 -1,-1 0,-1 -1,-1 -1,-1 0,-1 -1,-1 0,-1 -1,-1 0,-1 -1,-1 0,-1 -1,0 -1,1 -1,0 -1,1 -1,0 -1,1 -2,0 -1,1 -1,0 -1,1 -2,0 -1,1 -1,0 -1,1 -2,0 -1,1 -1,0 -1,1 -1,0 -1,1 -2,0 -1,1 -5,0 -1,-1 0,-1 -1,-1 0,-2 -1,-1 0,-1 -1,-1 0,-3 -1,-1 -1,-1 -1,-1 -1,-1 0,-1 -1,-1 -1,-1 0,-3 1,-1 1,-1 1,0 1,-1 1,0 1,-1 1,0 1,-1 1,0 1,-1 2,0 1,-1 1,0 1,-1 1,-1 1,-1 1,-1 1,0 1,-1 1,0 1,-1 2,0 1,-1 1,0 1,-1 2,0 0,-1 -1,0 -1,-1 -1,0 -1,-1 -1,-1 0,-1 -1,-1 -1,-1 -1,-1 -1,0 -1,-1 -1,1 -3,0 -1,-1 -6,0 -1,1 -2,0 -1,1 -2,0 -1,1 -1,0 -1,1 -1,0 -1,1Z"/>
<path onmouseover="hoverPath(evt)" onmouseout="recoverPath(evt)" fill="rgb(171,198,238)" d="M  90,89l 0,0 1,1 1,1 1,1 1,1 1,1 1,1 0,1 1,1 0,5 1,1 1,1 0,1 1,1 0,1 1,1 1,1 0,1 1,1 1,1 0,2 1,1 0,1 1,-1 4,0 0,-1 -1,-1 0,0 -1,-1 0,-2 -1,-1 0,-1 -1,-1 0,-1 -1,-1 0,-1 -1,-1 0,-1 -1,-1 0,-1 -1,-1 0,-1 -1,-1 -1,0 -1,-1 0,-1 -1,-1 -1,-1 -1,-1 -1,-1 -1,-1 -1,0 -1,-1 -1,-1 -1,1 -1,-1 0,-1 -1,-1 0,1 -1,-1 1,-1 -1,0 2,3 1,1Z"/>
<path onmouseover="hoverPath(evt)" onmouseout="recoverPath(evt)" fill="rgb(243,242,235)" d="M  116,123l 0,0 1,1 1,1 1,0 1,1 0,1 1,1 1,1 0,1 1,1 0,1 1,1 1,1 0,1 1,1 1,1 0,1 1,1 0,1 1,1 0,1 2,0 1,-1 0,0 1,-1 1,-1 1,-1 1,0 1,-1 8,0 1,1 1,1 1,1 1,1 1,1 1,1 1,1 1,1 1,1 1,1 1,1 1,1 1,1 1,1 1,1 1,1 1,1 1,1 1,1 1,1 1,1 1,1 1,0 1,1 0,1 1,0 1,1 1,1 1,1 0,1 1,1 1,1 1,1 1,0 1,-1 3,0 1,-1 3,0 1,-1 1,-1 1,0 1,-1 3,0 1,-1 3,0 1,-1 1,0 1,-1 1,0 0,-2 -1,-1 0,-1 -1,-1 0,-1 -1,-1 0,-3 1,-1 1,0 1,-1 2,0 1,-1 2,0 1,-1 1,0 1,-1 2,0 1,-1 1,0 0,-2 -1,-1 0,-2 -1,-1 0,-2 -1,-1 0,-6 -1,-1 0,-12 -6,0 -1,1 -20,0 -1,1 -21,0 -1,1 -21,0 -1,1 -18,0 -1,1 -3,0 0,1 1,1Z"/>
<path onmouseover="hoverPath(evt)" onmouseout="recoverPath(evt)" fill="rgb(253,253,253)" d="M  118,33l 22,0 1,-1 21,0 1,-1 22,0 1,-1 23,0 1,-1 20,0 1,-1 6,0 1,1 4,0 1,-1 12,0 0,-2 -8,0 -1,1 -16,0 -1,1 -21,0 -1,1 -23,0 -1,1 -22,0 -1,1 -22,0 -1,1 -18,0 -1,1Z"/>
<path onmouseover="hoverPath(evt)" onmouseout="recoverPath(evt)" fill="rgb(244,243,235)" d="M  138,249l 0,0 -1,1 4,0 1,-1 20,0 1,-1 19,0 1,-1 21,0 1,-1 23,0 0,-16 -1,-1 0,-13 -1,-1 0,-11 -1,-1 0,-16 -1,-1 0,-16 -1,-1 0,-13 -1,-1 0,-16 -1,-1 0,-14 -1,-1 0,-7 -6,0 1,1 0,3 1,1 0,3 1,1 0,6 1,1 0,3 1,1 0,4 1,1 0,2 1,1 0,9 -83,96 84,-93 0,4 -1,1 -1,0 -1,1 -4,0 -1,1 -2,0 -1,1 -3,0 -1,1 -1,0 -1,1 -2,0 -1,1 -1,0 -1,1 -2,0 -1,1 -1,0 -1,1 -1,0 -1,1 -1,1 0,1 -1,1 -1,0 -1,1 -1,0 -1,1 -1,0 0,1 1,1 0,0 1,1 1,1 1,1 1,1 1,1 1,1 1,1 1,1 1,0 1,1 1,1 0,4 1,1 0,1 1,1 1,1 1,1 1,1 1,1 1,0 1,1 4,0 1,1 1,1 1,1 0,1 1,1 0,2 -1,1 -1,1 -1,0 -1,1 -1,1 -3,0 0,1 -1,1 -1,1 -2,2 -1,0 -2,2 -1,1 -1,0 -1,1 -3,0 -1,-1 -1,-1 0,-3 -4,0 0,2 -1,1 -1,1 -1,0 -1,1 -1,1 -1,1 -2,0 -1,-1 -1,-1 -1,-1 2,3 0,2 -1,1 -1,0 -1,1 -1,1 -1,1 -1,0 -1,1 -2,0 -1,-1 -1,-1 -1,-1 -1,-1 -1,-1 -1,-1 -1,-1 -1,-1 -1,-1 -1,-1 -1,-1 -1,-1 0,-2 -1,1 0,0 -1,1 -1,0 -1,1 -1,0 -1,1 -1,1 -1,0 -1,1 -1,0 -1,1 0,2 1,1 0,1 1,1 1,1 1,1 1,1 1,1 0,1 1,1 0,1 1,1 0,5 -1,1 -1,1 0,1 -1,1 -2,0 -1,1 -5,0 -1,1 -1,1 -1,0 -1,1 83,-92 -84,93 53,-35 1,0 1,-1 -2,1 -53,35Z"/>
<path onmouseover="hoverPath(evt)" onmouseout="recoverPath(evt)" fill="rgb(171,198,238)" d="M  159,0l -1,0 0,3 -1,1 0,2 -1,1 0,1 -1,1 0,2 -1,1 0,1 -1,1 0,1 -1,1 0,2 -1,1 0,2 1,1 25,0 1,-1 13,0 1,-1 14,0 1,-1 14,0 1,-1 14,0 1,-1 14,0 1,-1 3,0 0,-8 -9,0 -1,1 -13,0 -1,1 -13,0 -1,1 -12,0 -1,1 -13,0 -1,1 -12,0 -1,1 -10,0 -1,-1 0,-4 1,-1 0,-2 1,-1 0,-1 1,-1 0,-3Z"/>
<path onmouseover="hoverPath(evt)" onmouseout="recoverPath(evt)" fill="rgb(244,243,236)" d="M  172,0l -1,0 0,4 -1,1 0,1 -1,1 0,2 -1,1 0,2 8,0 1,-1 12,0 1,-1 13,0 1,-1 12,0 1,-1 13,0 1,-1 13,0 1,-1 10,0 0,-6Z"/>
<path onmouseover="hoverPath(evt)" onmouseout="recoverPath(evt)" fill="rgb(178,202,238)" d="M  182,203l 0,1 -1,1 -3,0 -1,-1 -1,-1 -1,-1 -1,-1 -1,-1 -1,-1 0,0 -1,1 -1,0 -1,1 1,1 0,2 -2,2 0,2 -1,1 -1,0 -1,1 -1,0 -1,1 -1,0 -1,1 -1,0 -1,1 0,3 1,1 0,0 1,1 1,1 1,1 1,1 1,1 1,1 1,1 1,1 1,1 1,1 1,-1 1,0 1,-1 1,-1 1,-1 1,0 0,-1 -1,-1 0,0 -1,-1 0,-2 1,-1 2,0 1,1 1,1 1,1 1,-1 1,-1 1,-1 1,0 1,-1 0,-2 1,-1 3,0 1,-1 1,0 1,-1 2,0 1,1 0,2 -1,1 -1,1 0,1 1,1 1,0 1,-1 1,0 1,-1 1,-1 1,-1 1,0 1,-1 1,-1 1,-1 0,-1 1,-1 3,0 1,-1 1,-1 1,0 1,-1 -1,-1 0,-1 -1,-1 -1,-1 -4,0 -1,-1 -1,0 -1,-1 -1,-1 -1,-1 -1,-1 -1,-1 -1,-1 0,-1 -1,-1 0,-4 -1,-1 -1,0 -1,-1 -1,-1 -1,-1 -1,-1 -1,-1 -1,-1 -1,-1 -1,-1 -1,-1 -1,-1 0,-1 -3,0 -1,1 0,0 1,1 0,0 1,1 0,3 -1,1 0,2 -1,1 -1,1 -1,1 0,1 1,0 1,1 1,1 1,1 1,1 1,1 1,1 1,1 0,2 -1,1 -1,1 -1,0 -1,1Z"/>
<path onmouseover="hoverPath(evt)" onmouseout="recoverPath(evt)" fill="rgb(173,199,238)" d="M  199,70l 0,0 -1,-1 -1,-1 0,-1 -1,-1 0,-1 -1,-1 -2,0 -1,1 -2,0 -1,1 -3,0 -1,1 -5,0 -2,-2 -1,-1 -1,-1 -2,0 -1,1 -4,0 -1,-1 -1,-1 0,-1 -1,-1 -1,-1 -1,-1 -1,1 -1,0 -1,1 -1,0 -1,1 -2,0 -1,-1 -3,0 -1,1 -1,1 -5,0 -1,1 -2,0 -1,1 -1,0 -1,1 -2,0 -1,1 -1,1 -1,1 -1,0 -1,1 -1,0 -1,1 -2,0 -1,-1 -1,-1 -4,0 -1,1 -1,1 -1,0 -1,1 -3,0 -1,1 0,1 3,0 0,-1 2,-1 2,-1 1,0 1,1 0,2 -2,2 9,0 1,-1 25,0 1,-1 8,0 1,-1 6,0 1,1 2,0 1,1 3,0 1,-1 1,0 1,-1 2,0 1,-1 11,0 1,1 0,1 1,1 0,1 1,1 0,2 1,1 0,2 1,1 0,3 1,1 0,5 1,1 0,4 1,1 0,4 1,1 0,3 1,1 0,3 1,1 4,0 -1,-1 0,-5 -1,-1 0,-4 -1,-1 0,-5 -1,-1 0,-4 -1,-1 0,-9 1,-1 1,-1 3,0 1,-1 1,-1 3,0 1,-1 2,0 1,-1 3,0 1,-1 3,0 1,-1 2,0 1,-1 4,0 1,1 1,1 1,0 1,-1 15,0 0,-19 -1,0 -1,1 0,1 -1,1 -4,0 -1,-1 -6,0 -1,1 -1,0 -1,1 -1,0 0,2 -1,1 -7,0 -1,1 -1,1 0,3 -1,1 -6,0 -1,-1 -2,0 -1,-1 -1,1 0,1 1,1 0,1 1,1 0,1 1,0 1,1 0,3 -20,-2 18,3 -2,0 -2,1 -4,0 -1,1 -6,0 -1,-1 0,-1 -1,-1 0,-1 17,2 -18,-3Z"/>
<path onmouseover="hoverPath(evt)" onmouseout="recoverPath(evt)" fill="rgb(171,198,238)" d="M  215,45l 0,1 -1,1 2,0 1,1 0,1 1,1 0,1 1,1 1,-1 2,0 1,-1 1,0 1,-1 2,0 1,-1 2,0 1,-1 2,0 1,-1 2,0 1,-1 2,0 1,-1 1,0 1,-1 2,0 1,-1 3,0 1,-1 6,0 0,-4 -1,0 -1,1 -1,0 -1,1 -1,1 -35,5 1,-1 0,0 -1,1 27,-4 -1,-1 0,-1 -3,0 -1,1 -8,0 -1,1 -1,0 -1,1 -1,1 -1,0 -1,1 -1,1 -2,0 22,-4 -27,4Z"/>
<path onmouseover="hoverPath(evt)" onmouseout="recoverPath(evt)" fill="rgb(238,236,226)" d="M  213,78l -3,0 -1,1 0,7 1,1 0,4 1,1 0,5 1,1 0,4 1,1 0,5 1,1 0,2 3,0 1,-1 14,0 1,-1 -1,-1 -11,0 -1,-1 0,-2 1,-1 16,0 1,1 0,-1 1,-1 8,0 1,-1 1,0 0,-9 1,-1 2,0 1,1 0,13 -1,1 -2,0 0,2 5,0 0,-37 -14,0 -1,1 -3,0 -1,-1 -1,-1 -2,0 -1,1 -2,0 -1,1 -3,0 -1,1 -3,0 -1,1 -2,0 -1,1 -3,0 -1,1 -1,1Z"/>
</svg>