<svg width="256" height="256" xmlns="http://www.w3.org/2000/svg"><script> 
var tempColor;
function hoverPath(evt){
obj = evt.target;
tempColor = obj.getAttribute("fill");
obj.setAttribute("fill","red");
//alert(tempColor);
//obj.setAttribute("stroke","red");}
function recoverPath(evt){
obj = evt.target;
obj.setAttribute("fill", tempColor);
//obj.setAttribute("stroke", tempColor);
}</script><path onmouseover="hoverPath(evt)" onmouseout="recoverPath(evt)" fill="rgb(243,242,236)" d="M  0,74l 0,25 1,0 1,-1 11,0 1,1 1,1 0,0 1,-1 1,-1 7,0 1,1 2,0 1,1 0,5 1,-6 0,0 1,-1 3,0 1,1 2,0 1,-1 2,0 0,-4 1,-1 0,-6 -2,0 -1,-1 -2,0 -1,-1 -1,0 -1,-1 -2,0 -1,-1 -1,0 -1,-1 -1,-1 -1,0 -1,-1 -1,0 -1,-1 -1,0 -1,-1 -1,0 -1,-1 -1,0 -1,-1 -1,0 -1,-1 -1,0 -1,-1 -3,0 -1,-1 -7,0 -1,1Z"/>
<path onmouseover="hoverPath(evt)" onmouseout="recoverPath(evt)" fill="rgb(243,242,233)" d="M  0,210l 0,16 3,0 1,1 1,-1 26,0 0,-15 -1,-1 0,-2 -30,0Z"/>
<path onmouseover="hoverPath(evt)" onmouseout="recoverPath(evt)" fill="rgb(205,219,235)" d="M  4,234l -4,0 0,21 8,0 0,-3 -1,-1 0,-10 -1,-1 0,-5 1,-1 -1,0 -1,-1 -1,1 29,0 1,1 0,6 1,1 0,13 7,0 0,-2 -1,-1 0,-6 -1,-1 0,-9 -1,-1 0,-2 -4,0 -1,1Z"/>
<path onmouseover="hoverPath(evt)" onmouseout="recoverPath(evt)" fill="rgb(242,241,231)" d="M  43,159l 0,0 -1,-1 0,16 10,0 1,1 0,3 1,-1 6,0 1,-1 3,0 -1,-1 0,-2 1,-1 0,-7 -1,-1 -3,0 -1,-1 -1,0 -1,-1 -3,0 -1,-1 -2,0 -1,-1 -2,0 -1,-1Z"/>
<path onmouseover="hoverPath(evt)" onmouseout="recoverPath(evt)" fill="rgb(177,202,238)" d="M  45,229l 0,2 19,0 1,1 1,1 0,16 -1,1 -11,0 -1,-1 0,-5 -5,0 -1,-1 0,-1 -1,-1 0,1 1,2 0,5 1,1 0,5 35,0 0,-23 1,-1 27,0 1,1 0,3 -1,1 0,6 -1,1 -2,0 -1,-1 0,-7 -6,0 0,20 154,0 0,-1 -2,0 -1,-1 -1,0 -1,-1 -1,-1 -1,-1 -2,0 -1,-1 -1,0 -1,-1 -2,0 -1,-1 -1,0 -1,-1 -2,0 -1,-1 -2,0 -1,-1 -1,0 -1,-1 -2,0 -1,-1 -2,0 -1,-1 -3,0 -1,-1 -5,0 -1,-1 -3,0 -1,-1 -1,-1 0,-3 1,-1 0,-1 -2,0 -1,-1 -1,0 -1,-1 -4,0 -1,-1 -3,0 -1,-1 -3,0 -1,-1 -3,0 -1,-1 -3,0 -1,-1 -3,0 -1,-1 -3,0 3,1 0,6 1,1 0,9 -1,1 -5,0 -1,-1 -1,0 -1,-1 0,-14 -1,0 -1,-1 -3,0 -1,-1 -11,0 -1,-1 -2,0 -1,-1 0,-1 -1,-1 0,-1 -1,0 -1,-1 -5,0 -1,-1 -4,0 0,2 -1,1 0,2 -1,1 -1,1 -2,0 -1,1 -28,0 -1,1 -26,0 -1,-1 0,-1 -1,-1 0,-10 -1,-1 0,-1 -7,0 -1,-1 -17,0 -1,-1 -6,0 0,6 1,1 0,9 1,1 0,2 1,1Z"/>
<path onmouseover="hoverPath(evt)" onmouseout="recoverPath(evt)" fill="rgb(242,241,232)" d="M  76,190l -1,1 0,8 -1,1 0,2 23,0 1,-1 5,0 0,-6 -15,0 -1,-1 0,-5 -1,-1 -1,0 -1,-1 -1,-1 0,-1 -1,1 0,0 -1,1 -1,0 -1,1 -1,0 -1,1 -1,1Z"/>
<path onmouseover="hoverPath(evt)" onmouseout="recoverPath(evt)" fill="rgb(244,243,237)" d="M  85,234l 0,21 14,0 0,-21 1,-1 8,0 1,1 0,7 1,-7 0,-1 -24,0 -1,1Z"/>
<path onmouseover="hoverPath(evt)" onmouseout="recoverPath(evt)" fill="rgb(181,204,238)" d="M  105,196l 0,5 9,0 0,-22 -1,-1 0,0 -1,-1 -1,-1 -3,-3 -1,-1 -1,-1 0,-2 -1,-1 -1,-1 -1,0 -1,-1 -1,0 -1,-1 -1,-1 -1,-1 0,-1 -1,-1 0,-2 1,-1 -1,-1 0,-1 -1,-1 0,-1 -1,2 -8,0 -1,-1 -1,0 0,26 -1,1 0,1 1,1 0,1 1,1 1,0 1,1 1,1 0,5 15,0 1,1 0,2 -19,-42 0,-14 1,-1 0,0 1,-1 2,0 -1,-1 0,0 -1,-1 0,-1 -1,-1 0,2 -1,1 0,17 19,42Z"/>
<path onmouseover="hoverPath(evt)" onmouseout="recoverPath(evt)" fill="rgb(174,199,237)" d="M  0,57l 0,14 9,0 1,1 3,0 1,1 1,0 1,1 1,0 1,1 1,0 1,1 1,0 1,1 1,0 1,1 1,0 1,1 1,0 1,1 1,1 1,0 1,1 2,0 1,1 1,0 1,1 2,0 1,1 0,-6 1,-1 0,-20 1,-1 0,-6 -1,-1 -2,0 -1,-1 -1,0 -1,-1 0,1 -1,1 0,0 -1,1 0,1 -1,1 -1,1 0,1 -1,1 0,1 -1,1 -1,1 0,1 -1,1 -1,1 0,4 -1,1 -2,0 -1,-1 -1,-1 -1,0 -1,-1 -1,0 -1,-1 -1,0 -1,-1 -1,0 -1,-1 -1,0 -1,-1 -1,0 -1,-1 -1,0 -1,-1 -2,0 -1,-1 -1,0 -1,-1 -1,0 -1,1Z"/>
<path onmouseover="hoverPath(evt)" onmouseout="recoverPath(evt)" fill="rgb(253,253,253)" d="M  0,205l 0,1 31,0 1,1 4,0 1,1 0,2 1,1 0,6 1,1 0,5 1,1 0,7 1,1 0,2 1,1 0,9 1,1 0,6 1,1 0,3 2,0 0,-4 -1,-1 0,-6 -1,-1 0,-5 -1,-1 0,-7 -1,-1 0,-2 -1,-1 0,-9 -1,-1 0,-8 1,-1 8,0 1,1 17,0 1,1 24,0 1,1 16,0 1,1 10,0 1,1 7,0 1,1 5,0 1,1 2,0 1,1 5,0 1,1 5,0 1,1 8,0 1,1 4,0 1,1 3,0 1,1 3,0 1,1 4,0 1,1 4,0 1,1 3,0 1,1 3,0 1,1 3,0 1,1 3,0 1,1 3,0 1,1 4,0 1,1 1,0 1,1 5,0 1,1 3,0 1,1 2,0 1,1 3,0 1,1 2,0 1,1 2,0 1,1 2,0 1,1 1,0 1,1 2,0 1,1 2,0 1,1 1,0 1,1 2,0 1,1 2,0 1,1 1,0 1,1 2,0 0,-2 -4,0 -1,-1 -1,0 -1,-1 -2,0 -1,-1 -2,0 -1,-1 -1,0 -1,-1 -2,0 -1,-1 -2,0 -1,-1 -1,0 -1,-1 -3,0 -1,-1 -2,0 -1,-1 -3,0 -1,-1 -2,0 -1,-1 -2,0 -1,-1 -2,0 -1,-1 -2,0 -1,-1 -5,0 -1,-1 -1,0 -1,-1 -3,0 -1,-1 -3,0 -1,-1 -2,0 -1,-1 -3,0 -1,-1 -4,0 -1,-1 -3,0 -1,-1 -5,0 -1,-1 -6,0 -1,-1 -5,0 -1,-1 -4,0 -1,-1 -2,0 -1,-1 -5,0 -1,-1 -8,0 -1,-1 -5,0 -1,-1 -8,0 -1,-1 -9,0 -1,-1 -13,0 -1,-1 -13,0 -1,-1 0,-2 1,-1 22,0 1,-1 33,0 1,1 8,0 1,-1 3,0 1,1 6,0 1,1 9,0 1,1 17,0 1,1 9,0 -9,-1 0,0 -12,-1 -6,0 -2,-1 -2,0 -1,-1 -8,0 -1,-1 -7,0 -1,-1 0,-5 -1,-1 0,7 -8,0 -139,3 105,-2 -6,0 -17,1 -9,0 -1,-1 -4,0 -1,1 -21,0 -1,-1 -5,0 -1,-1 0,-1 -1,-1 0,-5 1,-1 0,-9 1,-1 0,-5 1,-1 10,0 0,-2 -10,0 -1,-1 0,-18 1,-1 0,-17 1,-1 0,-6 -1,-1 0,-2 1,-1 0,-17 1,-1 0,-21 1,-1 0,-30 1,-1 0,-21 1,-1 0,-17 1,-1 0,-17 -1,0 0,15 -1,1 0,17 -1,1 0,16 -1,1 0,7 -1,1 0,20 -1,1 0,5 1,1 0,8 -1,1 0,12 -1,1 0,22 -1,1 0,25 -1,1 1,1 0,12 -1,1 0,22 -1,1 0,2 -1,1 -2,0 -1,-1 1,2 1,1 0,0 1,1 0,4 -1,1 -30,0 -1,-1 -4,0 105,-1 -105,2Z"/>
<path onmouseover="hoverPath(evt)" onmouseout="recoverPath(evt)" fill="rgb(244,243,235)" d="M  0,33l 0,21 3,0 1,1 1,0 1,1 2,0 1,1 1,0 1,1 1,0 1,1 1,0 1,1 1,0 1,1 1,0 1,1 1,0 1,1 1,0 1,1 1,1 0,-4 1,-1 1,-1 0,-1 1,-1 1,-1 0,-1 1,-1 0,-1 1,-1 1,-1 0,-1 1,-1 1,-1 0,-1 1,-1 2,0 1,1 1,0 1,1 2,0 1,1 0,-16 1,-1 0,-17 1,-1 0,-14 -23,0 0,3 -1,1 0,7 -1,1 0,1 -1,1 -3,0 -1,-1 -1,0 -1,-1 0,1 -1,-1 -1,0 -1,-1 -1,0 9,4 1,0 1,1 0,8 -1,1 0,7 -1,1 0,4 -1,1 -2,0 -1,-1 -1,0 -1,-1 -2,0 -1,-1 -1,0 -1,-1 -2,0 -1,-1 -1,0 -1,-1 -1,1Z"/>
<path onmouseover="hoverPath(evt)" onmouseout="recoverPath(evt)" fill="rgb(175,200,238)" d="M  0,11l 0,19 2,0 1,1 1,0 1,1 2,0 1,1 1,0 1,1 2,0 1,1 1,0 1,1 0,-4 1,-1 0,-7 1,-1 0,-6 -1,0 -1,-1 -1,0 -1,-1 -2,0 -1,-1 -1,0 -1,-1 -1,0 -1,-1 0,-2 1,-1 3,0 1,1 2,0 1,1 1,0 1,1 1,0 0,-1 1,-1 0,-7 1,-1 0,-2 -19,0Z"/>
<path onmouseover="hoverPath(evt)" onmouseout="recoverPath(evt)" fill="rgb(244,243,237)" d="M  0,141l 0,15 5,0 1,-1 2,0 1,-1 2,0 1,-1 1,-1 1,0 1,-1 1,0 1,-1 1,-1 1,-1 2,-2 1,0 1,-1 1,-1 1,-1 1,-1 0,-1 1,-1 0,-7 -1,7 -25,0 -1,1Z"/>
<path onmouseover="hoverPath(evt)" onmouseout="recoverPath(evt)" fill="rgb(242,241,231)" d="M  0,165l 0,37 5,0 1,1 28,0 0,-2 -1,-1 0,0 -1,-1 0,-1 -1,-1 0,-2 1,-1 2,0 1,1 0,-2 1,-1 0,-22 1,-1 0,-10 -1,3 0,7 -1,2 -6,0 -1,1 -10,0 -1,1 -6,0 -1,-1 0,-4 -1,-1 0,-5 -1,1 -3,0 -1,1 -3,0 -1,1Z"/>
<path onmouseover="hoverPath(evt)" onmouseout="recoverPath(evt)" fill="rgb(171,198,238)" d="M  8,237l 0,2 1,1 0,10 1,1 0,4 23,0 0,-12 -1,-1 0,-6 -23,0 -1,1Z"/>
<path onmouseover="hoverPath(evt)" onmouseout="recoverPath(evt)" fill="rgb(178,202,237)" d="M  25,132l 0,0 1,-1 2,0 1,1 0,9 -1,1 0,1 -1,1 -1,1 -1,1 -1,1 -1,1 -1,0 -1,1 -1,1 -1,1 -1,1 -1,1 -1,0 -1,1 -1,0 -1,1 -1,1 -2,0 -1,1 -2,0 -1,1 -6,0 0,4 3,0 1,-1 3,0 1,-1 2,0 1,1 0,5 1,1 0,4 4,0 1,-1 10,0 1,-1 6,0 0,-8 1,-1 0,-2 1,-1 0,-1 1,-1 0,-25 1,-1 0,-22 1,-1 0,-6 -1,0 -1,1 -4,0 -1,-1 -1,0 -1,1 0,5 -1,1 -2,0 -1,-1 0,-5 -2,0 -1,-1 -5,0 -1,1 0,4 -1,1 -2,0 -1,-1 0,-4 -1,-1 -9,0 -1,1 -2,0 0,37 25,0Z"/>
<path onmouseover="hoverPath(evt)" onmouseout="recoverPath(evt)" fill="rgb(172,198,236)" d="M  33,227l 0,0 -1,1 -26,0 -1,1 -2,0 -1,-1 -2,0 0,4 3,0 0,-1 1,-1 2,0 1,1 0,1 26,0 1,-1 4,0 0,-6 -1,-1 0,-5 -1,-1 0,-6 -1,-1 0,-2 -3,0 1,1Z"/>
<path onmouseover="hoverPath(evt)" onmouseout="recoverPath(evt)" fill="rgb(171,198,238)" d="M  42,181l 0,3 10,0 1,1 8,0 1,1 2,0 1,1 1,0 1,1 0,4 1,1 0,8 4,0 0,-2 1,-1 0,-8 1,-1 0,-1 1,-1 1,0 1,-1 1,0 1,-1 1,0 2,-2 0,-2 1,-1 0,-26 1,-1 0,-17 1,-1 0,-3 1,-1 2,0 1,1 0,1 1,1 0,1 1,1 1,1 0,2 -1,1 -2,0 -1,1 0,13 6,0 0,-1 1,-1 2,0 1,1 0,1 1,1 0,1 1,1 0,2 -1,1 1,1 0,1 1,1 1,1 1,0 1,1 1,0 1,1 1,1 1,1 1,0 1,1 1,1 1,1 1,1 2,2 1,1 1,1 1,1 1,0 1,1 1,1 1,0 1,1 1,0 1,1 1,0 1,1 2,0 1,1 1,0 1,1 1,0 1,1 1,0 1,1 1,1 0,3 1,1 0,6 1,1 0,2 7,0 0,-3 -1,-1 0,-9 1,-1 2,0 1,1 0,7 1,1 0,5 7,0 1,1 8,0 1,1 1,0 0,-3 -1,-1 0,-11 1,-1 4,0 1,1 2,0 1,1 2,0 1,1 3,0 1,1 2,0 1,1 2,0 1,1 1,0 1,1 2,0 1,1 1,0 1,1 1,0 1,1 2,0 1,1 2,0 1,1 2,0 1,1 1,1 1,1 0,6 4,0 1,1 1,0 1,1 1,0 1,-1 0,0 1,-1 1,0 1,-1 7,0 1,1 1,0 1,1 1,0 1,1 1,0 1,1 2,0 1,1 1,0 1,1 1,0 1,1 1,0 1,1 2,0 1,1 5,0 1,1 2,0 0,-216 -163,0 0,2 -1,1 0,1 -1,1 0,4 -1,1 0,4 -1,1 0,2 -1,1 0,2 -1,1 0,4 -1,1 0,4 -1,1 0,13 1,1 0,3 -1,1 0,9 -1,1 0,5 -1,1 0,9 1,1 0,3 1,1 0,1 1,1 0,11 1,1 0,2 1,1 0,2 -1,1 -3,0 -1,-1 -1,-1 -1,0 -1,-1 -1,-1 -1,0 -1,-1 -1,-1 -1,0 -1,-1 -1,-1 -1,-1 -1,-1 0,-1 -1,-1 -1,-1 -1,-1 -1,-1 0,-2 -1,-1 0,-7 -1,-1 0,-51 -1,-1 0,-4 1,-1 0,-16 -7,0 0,61 -1,1 0,8 -1,1 0,1 -1,1 -1,1 -4,0 -1,-1 0,-2 1,-1 2,0 0,-1 1,-1 0,-5 -1,-1 -1,0 -1,-1 0,1 -1,1 -2,0 0,26 -1,1 0,21 -1,1 0,17 -1,1 1,1 0,8 -1,1 0,16 1,1 4,0 1,1 2,0 1,1 2,0 1,1 3,0 1,1 1,0 1,1 3,0 1,1 1,1 0,9 -1,1 1,1 0,2 -1,1 -3,0 -1,1 -6,0 -1,1 -11,0 -1,1Z"/>
<path onmouseover="hoverPath(evt)" onmouseout="recoverPath(evt)" fill="rgb(241,240,228)" d="M  42,186l -1,0 0,9 -1,1 0,3 1,1 0,1 5,0 1,1 0,-1 1,-1 0,-10 1,-1 0,-1 1,-1 3,0 -2,-1Z"/>
<path onmouseover="hoverPath(evt)" onmouseout="recoverPath(evt)" fill="rgb(244,243,236)" d="M  45,235l 0,1 2,0 1,1 0,3 1,1 0,1 5,0 1,1 0,5 9,0 0,-14 -1,-1 -18,0Z"/>
<path onmouseover="hoverPath(evt)" onmouseout="recoverPath(evt)" fill="rgb(238,238,232)" d="M  51,189l 0,1 -1,1 0,10 -1,1 17,0 0,-8 -1,-1 0,-4 -1,0 -1,-1 -2,0 -1,-1 -5,0 0,1 -1,1Z"/>
<path onmouseover="hoverPath(evt)" onmouseout="recoverPath(evt)" fill="rgb(240,239,229)" d="M  51,0l -2,0 0,18 -1,1 0,17 -1,1 0,21 -1,1 0,2 1,0 0,-1 1,-1 2,0 1,1 1,0 1,1 1,1 0,7 -1,1 0,1 -1,1 -2,0 4,-11 1,-1 0,-60Z"/>
<path onmouseover="hoverPath(evt)" onmouseout="recoverPath(evt)" fill="rgb(244,243,237)" d="M  66,1l 0,16 -1,1 0,2 1,1 0,51 1,1 0,7 1,1 0,2 1,1 1,1 1,1 1,1 0,1 1,1 1,1 1,1 1,0 1,1 1,1 1,0 1,1 1,1 1,0 1,1 1,1 1,0 -1,-1 0,-2 -1,-1 0,-11 -1,-1 0,-1 -1,-1 0,-3 -1,-1 0,-11 1,-1 0,-5 1,-1 0,-9 1,-1 0,-1 -1,-1 0,-15 1,-1 0,-4 1,-1 0,-4 1,-1 0,-2 1,-1 0,-2 1,-1 0,-4 1,-1 0,-4 1,-1 0,-1 1,-1 0,-1 -23,0 -1,1Z"/>
<path onmouseover="hoverPath(evt)" onmouseout="recoverPath(evt)" fill="rgb(242,241,231)" d="M  77,213l 0,9 1,1 0,1 24,0 1,-1 28,0 1,-1 2,0 1,-1 0,-2 1,-1 0,-2 -2,0 -1,-1 -5,0 -1,-1 -7,0 -1,-1 -10,0 -1,-1 -16,0 -1,-1 -15,0 1,1Z"/>
<path onmouseover="hoverPath(evt)" onmouseout="recoverPath(evt)" fill="rgb(243,242,234)" d="M  117,201l 20,0 0,-2 -1,-1 0,-6 -1,-1 0,-3 -1,-1 -1,0 -1,-1 -1,0 -1,-1 -1,0 -1,-1 -2,0 -1,-1 -1,0 -1,-1 -1,0 -1,-1 -1,0 -1,-1 -1,-1 -1,0 -1,-1 -1,-1 -1,-1 -1,-1 -1,-1 -1,-1 -1,-1 -1,-1 -1,-1 8,9 0,21 1,1Z"/>
<path onmouseover="hoverPath(evt)" onmouseout="recoverPath(evt)" fill="rgb(228,225,200)" d="M  133,205l -26,0 -1,1 -22,0 14,1 13,0 1,1 9,0 1,1 8,0 1,1 5,0 1,1 2,0 -1,-1 0,-5Z"/>
<path onmouseover="hoverPath(evt)" onmouseout="recoverPath(evt)" fill="rgb(239,238,228)" d="M  172,223l -1,0 -1,-1 -3,0 -1,-1 -3,0 -1,-1 -4,0 -1,-1 -5,0 1,1 0,1 2,0 1,1 10,0 6,1 -2,0 2,1 1,0 1,1 0,14 1,0 1,1 3,0 0,-7 -1,-1 0,-6 -2,0 -1,-1 0,-2Z"/>
<path onmouseover="hoverPath(evt)" onmouseout="recoverPath(evt)" fill="rgb(243,241,233)" d="M  175,203l 2,0 1,1 11,0 1,1 8,0 1,1 7,0 1,1 0,-5 -1,-1 0,0 -1,-1 -2,0 -1,-1 -2,0 -1,-1 -2,0 -1,-1 -1,0 -1,-1 -1,0 -1,-1 -2,0 -1,-1 -1,0 -1,-1 -2,0 -1,-1 -2,0 -1,-1 -3,0 -1,-1 -2,0 -1,-1 -2,0 -1,-1 -2,0 0,9 1,1 0,5Z"/>
<path onmouseover="hoverPath(evt)" onmouseout="recoverPath(evt)" fill="rgb(192,210,233)" d="M  215,211l 0,0 -1,-1 -1,0 -1,-1 -6,0 -1,-1 -6,0 -1,1 -11,0 -1,-1 -17,0 -1,-1 -9,0 -1,-1 -6,0 -1,-1 -1,0 -1,1 -9,0 0,3 1,1 0,1 4,0 1,1 5,0 1,1 2,0 1,1 4,0 1,1 5,0 1,1 6,0 1,1 5,0 1,1 3,0 1,1 4,0 1,1 3,0 1,1 2,0 1,1 3,0 1,1 3,0 1,1 1,0 1,1 5,0 1,1 2,0 1,1 1,0 -1,-1 0,-2 1,-1 0,-2 1,-1 0,-2 1,-1 0,-2 1,-1 3,0 -2,-1 -1,0 -1,-1 0,-1Z"/>
<path onmouseover="hoverPath(evt)" onmouseout="recoverPath(evt)" fill="rgb(242,240,230)" d="M  247,229l -1,1 -2,0 -1,-1 0,-2 1,-1 2,0 1,1 0,2 8,-4 0,-7 -3,0 -1,-1 -5,0 -1,-1 -2,0 -1,-1 -1,0 -1,-1 -1,0 -1,-1 -1,0 -1,-1 -2,0 -1,-1 -1,0 -1,-1 -1,0 -1,-1 -1,0 -1,-1 -5,0 -1,1 -1,0 -1,1 0,1 1,0 1,1 1,0 1,1 0,2 -1,1 -3,0 0,2 -1,1 0,2 -1,1 0,2 -1,1 1,1 0,2 2,0 1,1 2,0 1,1 3,0 1,1 2,0 1,1 3,0 1,1 1,0 1,1 2,0 1,1 2,0 1,1 1,0 1,1 2,0 1,1 2,0 1,1 1,0 1,1 3,0 0,-15 -8,4 -5,-4 0,-1 -1,-1 0,0 1,2 5,4 -7,-6 -1,-1 0,0 1,1 7,6 -9,-7 -1,0 -1,1 0,0 -1,-1 0,0 -1,1 -2,0 -1,-1 0,-2 1,-1 2,0 1,1 0,1 3,1 9,7 -11,-5 0,1 1,1 0,0 -1,-2 11,5 -9,-3 0,0 1,1 -1,-1 9,3 -7,-2 0,0 7,2Z"/>
<path onmouseover="hoverPath(evt)" onmouseout="recoverPath(evt)" fill="rgb(240,239,226)" d="M  251,245l -1,0 -1,-1 -2,0 -1,-1 -2,0 -1,-1 -1,0 -1,-1 -2,0 -1,-1 -2,0 -1,-1 -1,0 -1,-1 -2,0 -1,-1 -2,0 -1,-1 -2,0 -1,-1 -3,0 -1,-1 -2,0 -1,-1 -3,0 -1,-1 -1,0 0,2 -1,1 0,1 1,1 3,0 1,1 5,0 1,1 3,0 1,1 2,0 1,1 2,0 1,1 1,0 1,1 2,0 1,1 2,0 1,1 1,0 1,1 2,0 1,1 1,0 1,1 2,0 1,1 1,1 1,1 1,0 1,1 1,0 0,-6 -3,0 -1,-1Z"/>
</svg>