<svg width="256" height="256" xmlns="http://www.w3.org/2000/svg"><script> 
var tempColor;
function hoverPath(evt){
obj = evt.target;
tempColor = obj.getAttribute("fill");
obj.setAttribute("fill","red");
//alert(tempColor);
//obj.setAttribute("stroke","red");}
function recoverPath(evt){
obj = evt.target;
obj.setAttribute("fill", tempColor);
//obj.setAttribute("stroke", tempColor);
}</script><path onmouseover="hoverPath(evt)" onmouseout="recoverPath(evt)" fill="rgb(243,243,238)" d="M  19,63l 1,-1 -1,0 0,4 -1,1 0,0 -1,1 -4,0 -1,-1 -7,0 -1,-1 -1,-1 0,-4 1,-1 0,-3 1,-1 0,0 -1,-1 0,-7 1,-1 0,-10 -1,2 0,0 -1,1 -3,0 0,44 1,0 0,-4 1,-1 0,-6 1,-1 0,-3 1,-1 8,0 7,-5 -2,6 0,6 -1,1 0,4 -1,1 0,4 -1,1 0,4 -1,1 0,4 1,0 0,-4 1,-1 0,-4 1,-1 10,0 1,1 0,9 1,-9 1,-1 1,-1 -10,0 -1,-1 -1,-1 0,-8 1,-1 0,-4 1,-1 10,0 1,1 15,0 1,1 0,8 -1,1 0,3 -1,1 0,1 -1,1 -5,0 5,1 0,9 -1,1 0,5 1,-1 7,0 1,-1 0,-2 1,-1 0,-7 1,-1 0,-7 1,-1 0,-7 1,-1 0,-4 -1,-1 -26,0 -1,-1 0,-11 -1,12 1,0 -11,2 2,-6Z"/>
<path onmouseover="hoverPath(evt)" onmouseout="recoverPath(evt)" fill="rgb(243,243,238)" d="M  65,68l 0,7 -1,1 0,12 -1,1 0,7 -1,1 0,2 1,1 59,0 1,1 20,0 1,-1 13,0 0,-17 -1,0 -1,-1 0,-1 -1,-1 0,-12 -2,0 -1,1 -4,0 -1,-1 0,0 -1,1 -1,0 -1,1 -4,0 -1,-1 -3,0 -1,-1 0,-22 -1,-1 0,-8 1,-1 2,0 1,-1 8,0 1,1 0,31 1,-31 4,0 1,-1 -16,0 -1,-1 -10,0 -1,-1 -5,0 -1,-1 -5,0 4,1 0,0 1,1 0,25 -1,1 0,7 -1,1 -1,1 -30,0 -1,-1 -16,0 -1,-1 0,-1 -1,-1 0,2 -1,1Z"/>
<path onmouseover="hoverPath(evt)" onmouseout="recoverPath(evt)" fill="rgb(178,202,238)" d="M  105,188l 0,0 -1,1 0,12 -1,1 5,0 1,1 7,0 1,1 6,0 1,1 11,0 1,1 11,0 1,1 7,0 1,1 1,1 0,4 1,-1 0,-3 1,-1 0,-4 -1,-1 0,-7 -1,0 -1,-1 -4,0 -1,-1 -5,0 -1,-1 -4,0 -1,-1 -5,0 -1,-1 -5,0 -1,-1 -5,0 -1,-1 -4,0 -1,-1 -6,0 -1,-1 -4,0 -1,1 51,26 0,2 -1,1 0,3 -1,1 0,3 1,-2 0,-1 1,-4 1,-2 -1,-1 -51,-26Z"/>
<path onmouseover="hoverPath(evt)" onmouseout="recoverPath(evt)" fill="rgb(171,198,239)" d="M  225,156l 0,6 14,0 0,-6Z"/>
<path onmouseover="hoverPath(evt)" onmouseout="recoverPath(evt)" fill="rgb(243,243,238)" d="M  0,109l 0,12 6,0 1,1 1,0 1,1 0,1 22,0 1,1 1,-1 5,0 0,-1 -1,-1 0,-10 1,-1 1,-1 6,0 -3,-1 -27,0 -1,-1 -13,0 -1,1Z"/>
<path onmouseover="hoverPath(evt)" onmouseout="recoverPath(evt)" fill="rgb(171,198,238)" d="M  29,29l 0,3 -1,1 0,4 -1,1 0,6 1,1 22,0 0,-8 1,-1 0,-6 -1,0 -1,-1 -17,0 -1,-1 -1,0 -1,1Z"/>
<path onmouseover="hoverPath(evt)" onmouseout="recoverPath(evt)" fill="rgb(176,201,238)" d="M  45,249l -3,0 -1,1 -1,1 1,1 0,3 40,0 0,-3 1,-1 0,-2 -1,-1 0,-9 -3,0 -1,-1 -6,0 -1,-1 -4,0 -1,-1 -4,0 -1,-1 -5,0 -1,1 0,0 -1,1 1,1 0,3 -1,1 0,1 -1,1 -1,0 -1,1 -1,1 -1,1 -1,0 -1,1 -1,1Z"/>
<path onmouseover="hoverPath(evt)" onmouseout="recoverPath(evt)" fill="rgb(171,198,238)" d="M  68,1l 0,2 -1,1 0,3 -1,1 0,4 -1,1 0,6 4,0 1,-1 1,0 0,-3 1,-1 0,-8 1,-1 0,-5 -4,0 -1,1Z"/>
<path onmouseover="hoverPath(evt)" onmouseout="recoverPath(evt)" fill="rgb(171,198,238)" d="M  78,0l -1,0 0,6 12,0 1,1 7,0 1,-1 4,0 0,-2 1,-1 0,-3Z"/>
<path onmouseover="hoverPath(evt)" onmouseout="recoverPath(evt)" fill="rgb(171,198,238)" d="M  103,33l 0,8 -1,1 0,10 -1,1 0,14 13,0 1,-1 0,-7 1,-1 0,-23 -1,-1 -3,0 -1,-1Z"/>
<path onmouseover="hoverPath(evt)" onmouseout="recoverPath(evt)" fill="rgb(173,199,238)" d="M  104,205l 0,6 -1,1 0,4 4,0 1,1 0,2 6,0 1,1 5,0 1,1 6,0 1,1 5,0 1,1 3,0 1,1 3,0 1,1 1,0 1,-1 3,0 1,1 3,0 1,-1 0,-4 1,-1 0,-3 1,-1 0,-2 1,-1 0,-2 -1,-1 -7,0 -1,-1 -11,0 -1,-1 -11,0 -1,-1 -6,0 -1,-1 -7,0 -1,-1 -2,0 -1,1Z"/>
<path onmouseover="hoverPath(evt)" onmouseout="recoverPath(evt)" fill="rgb(171,198,239)" d="M  108,1l 0,6 25,0 0,-7 -24,0 -1,1Z"/>
<path onmouseover="hoverPath(evt)" onmouseout="recoverPath(evt)" fill="rgb(173,199,238)" d="M  142,241l 0,4 -1,1 1,1 1,1 1,0 1,1 2,0 1,1 2,0 1,1 1,0 1,1 1,1 0,2 79,0 0,-1 -2,0 -1,-1 -2,0 -1,-1 -1,0 -1,-1 -1,-1 -5,0 -1,-1 -5,0 -1,-1 -5,0 -1,-1 -1,0 -1,-1 -1,-1 0,-4 -6,0 -1,-1 -7,0 -1,-1 -3,0 -1,-1 -1,0 -1,-1 0,-4 1,-1 0,-3 1,-1 0,-9 1,-1 3,0 1,1 1,1 14,0 1,1 10,0 1,1 8,0 1,1 4,0 0,-6 -1,-1 0,-2 -1,-1 -1,0 -1,-1 -6,0 -1,-1 -7,0 -1,-1 -12,0 -1,-1 0,-2 1,-1 10,0 0,-3 1,-1 -1,-1 0,-1 -8,0 -1,-1 -9,0 0,3 -1,1 -2,0 -1,-1 0,-5 1,-1 0,-1 1,-1 0,-1 1,-1 0,-1 1,-1 1,-1 1,-1 1,-1 1,0 1,-1 2,0 1,-1 17,0 1,1 1,0 1,-1 0,0 1,-1 3,0 1,1 1,1 11,0 1,1 7,0 1,1 7,0 1,1 3,0 0,-3 -2,0 -1,-1 -8,0 -1,-1 -8,0 -1,-1 -10,0 -1,1 0,0 -81,57 77,-58 0,-1 -1,-1 -9,0 -1,-1 -8,0 -1,-1 -1,-1 -1,-1 0,-4 1,-1 0,-2 1,-1 0,-2 1,-1 1,-1 0,-2 1,-1 0,-1 1,-1 0,-1 1,-1 2,0 1,1 0,3 14,0 0,-5 -1,-1 -10,0 -1,-1 0,-2 1,-1 28,0 1,-1 1,-1 0,-6 1,-1 2,0 1,1 0,8 -1,1 0,12 1,1 0,2 1,1 7,0 1,-1 2,0 0,-2 -5,0 -1,-1 -1,0 -1,-1 0,-1 -1,-1 0,-27 1,-1 0,-19 1,-1 0,-10 1,-1 1,-1 5,0 0,-4 -19,0 -1,-1 -1,0 -1,-1 -1,-1 0,-1 -1,-1 0,-9 -1,-1 0,-5 1,-1 0,-10 -1,-1 0,-4 -1,-1 0,-5 -1,-1 0,-6 -1,-1 0,-4 1,-1 1,-1 -1,-1 -1,-1 -1,-1 0,-1 -1,-1 0,-1 -1,-1 0,-11 1,-1 1,-1 1,0 1,-1 0,-5 -1,-1 0,-15 -90,0 0,21 -1,1 -2,0 -1,-1 0,-10 -8,0 0,3 -1,1 -2,0 -1,-1 0,-3 -8,0 -1,1 -3,0 -1,-1 -30,0 0,1 -1,1 0,6 13,0 1,1 16,0 0,-2 1,-1 2,0 1,1 0,6 -1,1 -11,0 -1,-1 -16,0 -1,-1 -8,0 -1,-1 -1,1 -16,0 -1,-1 -7,0 -1,-1 0,-2 1,-1 9,0 1,1 2,0 1,-1 1,-1 0,-4 -1,0 -1,-1 -13,0 -1,-1 -7,0 0,8 -1,1 -6,0 -1,1 -1,0 0,2 1,0 1,1 18,0 1,1 4,0 1,1 0,11 -1,1 0,8 2,0 1,1 0,2 -1,1 -10,0 -1,-1 -14,0 0,5 -1,1 0,10 26,0 1,1 1,1 0,6 -1,1 0,7 -1,1 0,7 -1,1 0,7 -1,1 0,2 -1,1 -1,1 -7,0 -1,1 -2,0 -1,-1 0,-7 1,-1 0,-7 -4,0 -1,-1 -6,0 -1,1 0,0 -1,1 0,8 -1,1 -2,0 -1,-1 0,-9 -8,0 0,4 -1,1 0,4 -1,1 -3,0 -1,-1 0,-6 1,-1 0,-4 1,-1 0,-4 1,-1 0,-4 1,-1 0,-4 -10,0 0,3 -1,1 0,6 -1,1 0,4 -1,1 -2,0 0,20 15,0 1,1 27,0 1,1 10,0 1,-1 4,0 1,-1 99,0 1,-1 11,0 1,-1 8,0 1,-1 8,0 1,-1 7,0 1,-1 7,0 1,1 1,1 0,1 1,1 0,4 -1,1 0,3 -1,1 0,2 -1,1 0,1 -1,1 0,1 -1,1 0,1 -1,1 0,1 -1,1 0,1 -1,1 0,1 -1,1 0,1 -1,1 0,1 -1,1 0,1 -1,1 0,1 -1,1 0,1 -1,1 0,1 -1,1 -1,0 -1,1 -13,0 -1,-1 -3,0 -1,-1 -1,0 -2,-2 0,-6 -1,-1 0,-3 -1,-1 0,-2 -1,-1 0,-1 -6,0 -1,1 0,1 1,1 0,2 1,1 0,1 1,1 0,1 1,1 0,2 1,1 1,0 1,1 0,3 -1,1 -29,0 0,1 3,0 1,1 23,0 1,1 1,0 1,1 1,0 1,1 1,1 0,1 1,1 0,2 1,1 0,2 1,1 0,3 1,1 0,7 1,1 0,6 -1,1 -1,1 -3,0 -1,1 -16,0 -1,-1 -15,0 -1,-1 -10,0 -1,1 0,0 -1,1 -1,1 -2,0 3,1 1,1 0,4 2,0 1,1 4,0 1,1 5,0 1,1 4,0 1,1 4,0 1,1 4,0 1,1 4,0 1,1 3,0 1,1 0,8 -1,1 0,3 -1,1 0,5 -1,1 0,3 -1,1 0,2 -1,1 0,1 -1,1 0,4 -1,1 0,1 -1,1 0,4 -1,1 0,2 -1,1 0,2 -1,1 0,1 -1,1 -1,1 -1,1 -3,0 -1,-1 -2,0 76,-57 -77,58 56,-142 -11,0 -1,1 -3,0 -1,1 -11,0 -1,-1 0,-11 -3,0 -1,1 -7,0 0,11 -1,1 -13,0 -1,1 -22,0 -1,-1 -59,0 -1,-1 -1,-1 0,-4 1,-1 0,-7 1,-1 0,-12 1,-1 0,-7 1,-1 0,-6 1,-1 0,-5 1,-1 0,-5 1,-1 0,-15 1,-1 0,-2 1,-1 1,-1 2,0 1,1 11,0 1,1 15,0 1,1 0,10 1,-10 2,0 1,1 6,0 1,-1 7,0 1,1 5,0 1,1 10,0 1,1 22,0 1,1 9,0 1,1 8,0 1,1 8,0 1,1 9,0 1,1 4,0 1,1 1,0 1,1 1,1 0,1 1,1 1,1 0,2 1,1 0,3 1,1 0,3 1,1 0,5 1,1 0,3 -1,1 0,6 1,1 0,8 1,1 0,10 -1,1 -2,0 -1,1 -1,0 0,2 -1,1 -2,0 -1,1 -1,0 -1,1 -3,0 -1,1 -56,142 27,-209 -4,0 -1,-1 -8,0 -1,-1 -9,0 -1,-1 -1,0 -1,-1 -1,-1 -1,-1 0,-2 1,-1 3,0 1,1 16,0 0,-5 1,-1 0,-11 1,-1 2,0 0,-1 1,-1 9,0 1,1 15,0 1,1 7,0 1,1 0,1 1,1 0,6 1,1 0,2 -1,1 -1,1 1,0 1,1 0,10 -1,1 -1,1 -4,0 -1,-1 -3,0 -1,-1 -2,0 -1,1 -20,0 -27,209 95,-199 18,0 0,-14 -8,0 0,9 1,1 0,2 -1,1 -9,0 -1,1 -95,199Z"/>
<path onmouseover="hoverPath(evt)" onmouseout="recoverPath(evt)" fill="rgb(243,243,238)" d="M  166,37l 0,2 1,1 0,17 1,1 0,5 -2,2 -1,1 1,0 1,-1 7,0 1,-1 6,0 1,-1 8,0 1,-1 9,0 1,-1 7,0 1,-1 0,-4 -1,-1 0,-3 -1,-1 0,-3 -1,-1 0,-2 -1,-1 -1,-1 0,-1 -1,-1 -1,0 -1,-1 -4,0 -1,-1 -9,0 -1,-1 -8,0 -1,-1 -8,0 -1,-1 -1,0 -1,1 -1,-1 1,1Z"/>
<path onmouseover="hoverPath(evt)" onmouseout="recoverPath(evt)" fill="rgb(179,203,238)" d="M  209,223l -5,0 -1,-1 -14,0 -1,-1 -1,-1 -1,0 0,9 -1,1 0,3 -1,1 0,2 1,0 1,1 3,0 1,1 7,0 1,1 6,0 1,1 0,4 1,1 1,0 1,1 5,0 1,1 5,0 1,1 5,0 1,1 1,1 1,0 1,1 2,0 1,1 2,0 1,1 0,2 5,0 0,-2 1,-1 1,0 1,-1 0,-1 1,-1 0,-4 1,-1 -4,0 -1,1 -6,0 -1,-1 0,-4 -2,0 -1,-1 0,-11 1,-1 1,0 -1,-1 0,-1 -7,0 -1,-1 -8,0 -1,-1Z"/>
<path onmouseover="hoverPath(evt)" onmouseout="recoverPath(evt)" fill="rgb(236,239,238)" d="M  212,164l -6,0 -1,-1 0,-3 -1,2 0,1 -1,1 0,2 -1,1 -1,1 0,2 -1,1 0,2 -1,1 0,2 1,1 0,0 1,1 8,0 1,1 9,0 1,1 1,1 0,1 1,0 1,-1 12,0 1,1 8,0 1,1 8,0 1,1 1,0 0,-14 -1,0 -1,1 -9,0 -1,-1 -1,-1 0,-2 -1,-1 0,-14 1,-1 0,-6 -2,8 -1,1 -28,0 11,1 0,0 1,1 0,7 -1,1 -10,0 11,-9 17,-1 0,0 -17,1 -11,9Z"/>
<path onmouseover="hoverPath(evt)" onmouseout="recoverPath(evt)" fill="rgb(243,243,238)" d="M  226,25l 0,9 1,1 0,1 1,1 0,1 1,1 1,1 6,0 1,-1 9,0 -1,-1 0,-11 1,-1 9,0 0,-1 -8,0 -1,-1 0,-1 -1,-1 0,-14 -1,-1 0,-7 -15,0 0,14 1,1 0,7 -1,1 -1,1 -1,0 -1,1Z"/>
<path onmouseover="hoverPath(evt)" onmouseout="recoverPath(evt)" fill="rgb(244,243,238)" d="M  229,45l 0,2 1,1 0,6 1,1 0,5 1,1 0,4 1,1 0,12 -1,1 0,3 1,1 0,9 1,1 0,1 1,1 1,0 1,1 18,0 0,-52 -25,0 -1,1Z"/>
<path onmouseover="hoverPath(evt)" onmouseout="recoverPath(evt)" fill="rgb(171,198,239)" d="M  246,1l 0,5 1,1 0,14 1,1 0,1 7,0 0,-23 -8,0 -1,1Z"/>
<path onmouseover="hoverPath(evt)" onmouseout="recoverPath(evt)" fill="rgb(243,243,238)" d="M  250,105l 0,10 -1,1 0,19 -1,1 0,25 1,1 0,1 1,0 1,1 4,0 0,-60 -4,0 -1,1Z"/>
<path onmouseover="hoverPath(evt)" onmouseout="recoverPath(evt)" fill="rgb(174,200,238)" d="M  0,18l 0,20 2,0 1,-1 0,-1 1,-1 2,0 1,1 0,12 -1,1 0,5 2,0 1,1 0,2 -1,1 -2,0 0,3 -1,1 0,2 1,1 7,0 1,1 2,0 1,-1 0,-4 1,-1 3,0 1,1 0,2 -1,1 0,2 4,0 1,-1 0,-11 1,-1 0,-4 -4,0 -1,-1 -1,-1 0,-5 1,-1 0,-4 1,-1 0,-5 1,-1 -1,-1 0,-3 1,-1 0,-5 -2,0 -1,-1 -9,0 -1,-1 -6,0 -1,-1 -3,0 -1,1Z"/>
<path onmouseover="hoverPath(evt)" onmouseout="recoverPath(evt)" fill="rgb(243,243,238)" d="M  19,142l 0,0 -1,1 0,3 -1,1 0,4 -1,1 0,5 -1,1 0,5 -1,1 0,1 -1,1 32,0 1,1 4,0 0,-3 1,-1 0,-5 1,-1 0,-2 1,-1 1,-1 0,-7 1,-1 0,-1 -1,-1 0,-1 -26,0 -1,-1 -7,0 -1,1Z"/>
<path onmouseover="hoverPath(evt)" onmouseout="recoverPath(evt)" fill="rgb(174,199,238)" d="M  69,125l -18,0 0,3 -1,1 0,7 -1,1 -18,0 -1,-1 0,-1 -14,0 -1,-1 0,1 -1,1 0,0 -1,1 -5,0 -1,-1 0,-1 -7,0 0,4 5,0 1,1 6,0 1,1 4,0 0,-1 1,-1 10,0 1,1 48,0 1,1 4,0 1,1 3,0 1,1 6,0 1,-1 41,0 0,-1 -5,0 -1,-1 -47,0 -1,-1 0,-2 1,-1 31,0 0,-8 -1,-1 0,-2 -1,-1 -23,0 -1,1 -5,0 0,8 -1,1 -2,0 -1,-1 0,-8Z"/>
<path onmouseover="hoverPath(evt)" onmouseout="recoverPath(evt)" fill="rgb(202,217,238)" d="M  84,229l 0,0 -1,-1 0,-2 -1,-1 -1,-1 -1,-1 -1,-1 -1,-1 -1,-1 -6,0 -1,1 -6,0 -1,-1 0,1 2,1 1,0 1,1 3,0 1,1 1,0 1,1 1,0 1,1 0,3 -1,1 0,3 -1,1 -3,0 -1,-1 -4,0 -1,-1 -3,0 -1,-1 -1,0 -1,1 -1,0 -1,1 5,0 1,1 4,0 1,1 4,0 1,1 6,0 1,1 3,0 1,1 0,9 1,-10 4,0 1,1 4,0 1,1 3,0 1,1 2,0 1,1 4,0 1,-1 0,-8 1,-1 -2,0 -1,-1 -4,0 -1,-1 -6,0 -1,-1 -3,0 -1,1Z"/>
<path onmouseover="hoverPath(evt)" onmouseout="recoverPath(evt)" fill="rgb(241,242,238)" d="M  185,28l 0,0 -1,1 -2,0 -1,1 -6,0 -1,-1 -2,0 -1,-1 -2,0 -1,-1 -1,0 -1,-1 -1,0 -1,-1 -1,1 -18,0 -1,-1 -1,0 1,1 0,0 1,1 1,0 1,1 9,0 1,1 8,0 1,1 8,0 11,-2 -3,2 6,0 -3,-1 0,-7 1,-1 0,-1 -2,0 -1,-1 -12,0 14,2Z"/>
<path onmouseover="hoverPath(evt)" onmouseout="recoverPath(evt)" fill="rgb(177,201,238)" d="M  187,65l -4,0 -1,1 -6,0 -1,1 -7,0 -1,1 -6,0 -1,1 -4,0 0,10 1,1 0,1 1,0 1,1 0,6 6,0 1,-1 5,0 1,1 0,11 9,0 1,-1 3,0 1,-1 11,0 1,-1 3,0 1,-1 1,0 1,-1 2,0 0,-2 1,-1 1,0 1,-1 2,0 0,-8 -1,-1 0,-8 -1,-1 0,-8 1,-1 0,-1 -1,1 -7,0 -1,1 -9,0 -1,1Z"/>
<path onmouseover="hoverPath(evt)" onmouseout="recoverPath(evt)" fill="rgb(243,243,238)" d="M  193,190l -2,2 0,1 -1,1 0,1 -1,1 0,1 -1,1 0,3 2,-4 10,0 1,1 8,0 1,1 0,1 1,1 0,2 -1,1 0,3 -1,1 2,0 1,1 7,0 1,1 6,0 1,1 1,0 1,1 1,0 1,-1 9,0 1,1 7,0 1,1 0,12 -1,1 0,1 1,1 1,1 1,0 1,1 0,1 1,1 0,3 1,1 0,3 1,0 0,-48 -4,0 -1,-1 -7,0 -1,-1 -7,0 -1,-1 -11,0 -1,-1 -1,-1 -1,0 -1,1 0,0 -1,1 -3,0 -1,-1 -15,0 -1,1 -2,0 -1,1 -1,0 -1,1Z"/>
<path onmouseover="hoverPath(evt)" onmouseout="recoverPath(evt)" fill="rgb(175,200,238)" d="M  232,213l -1,1 -1,0 0,1 1,1 0,7 1,0 1,1 0,1 1,1 0,2 -1,1 -1,0 0,9 2,0 1,1 0,4 4,0 1,-1 6,0 1,1 0,2 -1,1 0,4 -1,1 0,1 -1,1 -1,1 -1,0 0,1 13,0 0,-14 -2,0 -1,-1 0,-3 -1,-1 0,-3 -1,-1 0,-1 -1,0 -1,-1 -1,-1 -1,-1 0,-3 1,-1 0,-10 -7,0 -1,-1Z"/>
<path onmouseover="hoverPath(evt)" onmouseout="recoverPath(evt)" fill="rgb(243,243,238)" d="M  0,7l 0,8 5,0 1,1 6,0 1,1 9,0 1,1 2,0 1,1 0,7 -1,1 0,1 1,1 0,2 -1,1 0,5 -1,1 0,4 -1,1 0,3 1,1 4,0 1,1 0,5 1,-6 16,0 1,1 8,0 -3,-1 0,-9 -1,9 -22,0 -3,-1 -1,-1 0,-7 -25,-31 26,25 0,0 1,-1 0,-3 1,-1 1,-1 0,-1 -1,0 -1,-1 0,-4 1,-1 1,0 1,-1 6,0 0,-8 1,-1 9,0 1,1 13,0 1,1 1,0 1,1 0,6 -1,1 -1,1 -1,1 -4,0 -1,-1 -7,0 13,1 9,0 1,-1 2,0 1,1 8,0 1,1 16,0 1,1 9,0 0,-4 -1,3 -8,0 -11,-1 -6,0 -8,-1 0,-8 1,-1 0,-1 1,-1 32,0 1,1 1,0 1,-1 10,0 1,1 0,0 1,-1 10,0 1,1 0,-10 -12,9 0,4 -12,-4 -1,0 -4,-1 0,-8 -1,0 0,4 -1,1 0,2 -1,1 -4,0 -73,24 -26,-25 84,1 -8,0 -1,-1 -1,0 0,8 -1,1 0,3 11,-11 -84,-1 63,12 0,0 1,-8 0,-4 1,-1 0,-3 1,-1 0,-2 -38,0 0,2 -1,1 0,1 -1,1 -11,0 9,1 2,0 1,1 0,4 -1,1 -4,0 -1,-1 -2,0 -1,-1 -3,0 -1,-1 -3,0 -1,-1 -3,0 -1,-1 -3,0 -1,-1 -2,0 63,13 -63,-12 30,19 2,0 1,1 17,0 1,1 1,0 1,1 0,-2 -2,0 -3,-1 -18,0 -30,-19Z"/>
<path onmouseover="hoverPath(evt)" onmouseout="recoverPath(evt)" fill="rgb(174,200,238)" d="M  0,167l 0,23 2,0 1,1 7,0 1,1 7,0 0,-2 1,-1 0,-4 1,-1 2,0 1,1 0,7 -1,1 0,5 -1,1 -1,0 0,2 -1,1 0,3 1,1 0,2 4,0 1,1 6,0 1,1 0,2 10,0 1,1 7,0 0,-2 1,-1 2,0 0,-1 1,-1 0,-1 1,-1 0,-9 1,-1 6,0 1,-1 0,-1 1,-1 0,-7 1,-1 0,-5 1,-1 1,-1 1,-1 25,0 1,1 6,0 3,3 5,0 1,1 9,0 0,-3 1,-1 0,-4 -1,-1 -4,0 -1,-1 -21,0 -1,-1 -18,0 -1,-1 -13,0 -1,-1 0,-5 1,-1 0,-8 1,-1 0,-1 1,-1 0,-2 1,-1 0,-5 -5,0 0,2 -1,1 0,7 -1,1 -1,1 0,2 -1,1 0,5 -1,1 0,3 -1,1 -6,0 -1,-1 -39,0 -1,-1 0,-2 1,-1 7,0 0,-1 1,-1 0,-5 1,-1 0,-5 1,-1 0,-4 1,-1 0,-2 -4,0 -1,-1 -6,0 -1,-1 -4,0Z"/>
<path onmouseover="hoverPath(evt)" onmouseout="recoverPath(evt)" fill="rgb(174,199,238)" d="M  15,7l -1,0 -1,-1 0,-2 1,-1 11,0 0,-1 1,-1 0,-1 -26,0 0,4 3,0 1,1 3,0 1,1 3,0 1,1 3,0 1,1 3,0 1,1 2,0 1,1 2,0 0,-2 -2,0 -1,-1 -5,0 -1,1 -1,-1Z"/>
<path onmouseover="hoverPath(evt)" onmouseout="recoverPath(evt)" fill="rgb(175,200,238)" d="M  17,126l -9,0 -1,-1 0,-1 -1,0 -1,-1 -5,0 0,10 8,0 1,1 0,1 3,0 1,-1 0,-6 1,-1 2,0 1,-1 13,0 1,1 -13,-1 -1,0 15,1 1,0 1,-1 5,0 1,-1 0,0 -8,2 -15,-1 23,-2 0,-2 -1,-1 0,-8 1,-1 0,12 -23,2 0,7 14,0 1,1 0,1 16,0 0,-7 1,-1 0,-5 1,-1 14,0 0,-7 -17,0 -1,-1 -1,-1 -2,0 -26,17Z"/>
<path onmouseover="hoverPath(evt)" onmouseout="recoverPath(evt)" fill="rgb(172,198,238)" d="M  21,71l 0,3 -1,1 0,6 1,1 17,0 1,1 4,0 0,-1 1,-1 0,-3 1,-1 0,-6 -15,0 -1,-1 -7,0 -1,1Z"/>
<path onmouseover="hoverPath(evt)" onmouseout="recoverPath(evt)" fill="rgb(178,202,238)" d="M  24,218l -2,0 -1,-1 -4,0 -1,-1 -3,0 -1,-1 -1,-1 -1,0 -1,-1 0,-3 1,-1 8,0 0,-2 -1,-1 0,-5 1,-1 0,-2 1,-1 1,0 0,-5 1,-1 0,-5 -1,5 -1,3 -9,0 -1,-1 -7,0 -1,-1 -1,0 0,52 5,0 1,1 3,0 1,1 3,0 1,1 3,0 1,1 3,0 1,1 1,1 0,1 4,0 0,-2 1,-1 1,-1 1,-1 0,-1 1,-1 1,0 1,-1 1,-1 0,-1 1,-1 1,-1 1,-1 -1,-1 0,-2 1,-1 1,-1 2,0 1,-1 1,-1 0,-1 1,-1 1,-1 0,-1 2,-2 0,-1 1,-1 0,-1 1,-1 0,-2 -1,-1 -2,0 -1,-1 -8,0 -1,1Z"/>
<path onmouseover="hoverPath(evt)" onmouseout="recoverPath(evt)" fill="rgb(176,201,238)" d="M  32,247l 0,0 -1,1 -1,1 -1,1 0,2 -1,1 -6,0 -1,-1 0,-1 -1,-1 -3,0 -1,-1 -3,0 -1,-1 -3,0 -1,-1 -3,0 -1,-1 -4,0 0,9 39,0 0,-2 -1,-1 0,-2 1,-1 1,-1 1,-1 3,0 1,-1 1,-1 1,0 1,-1 1,-1 1,-1 1,0 0,-1 1,-1 0,-1 -1,-1 0,-2 1,-1 1,-1 1,-1 0,-1 1,-1 1,-1 1,0 1,-1 3,0 1,1 3,0 1,1 4,0 1,1 1,0 0,-3 1,-1 0,-1 -1,0 -1,-1 -1,0 -1,-1 -3,0 -1,-1 -1,0 -1,-1 -1,0 -1,-1 0,-3 1,-1 0,-2 1,-1 0,-3 1,-1 0,-3 1,-1 0,-2 -1,-1 0,-5 -1,0 -1,-1 -5,0 0,9 -1,1 0,1 -1,1 0,1 -1,1 -2,0 0,2 -1,1 -9,0 -1,-1 -10,0 -1,-1 0,-2 -6,0 -1,-1 -3,0 -1,1 -8,0 0,1 1,0 1,1 1,1 3,0 1,1 4,0 1,1 11,0 1,-1 6,0 -9,32 14,-31 2,0 2,2 0,4 -1,1 0,1 -1,1 0,1 -1,1 -1,1 0,1 -1,1 -1,1 0,1 -1,1 -1,1 -1,1 -2,0 -1,1 1,1 0,2 -1,1 -1,1 -1,1 0,1 -1,1 -1,1 -1,1 -1,0 14,-30 -14,31Z"/>
<path onmouseover="hoverPath(evt)" onmouseout="recoverPath(evt)" fill="rgb(241,242,238)" d="M  47,111l 0,0 1,1 17,0 1,1 0,9 -1,1 14,0 1,1 0,8 1,-9 5,0 1,-1 25,0 1,1 1,1 0,2 1,1 0,10 -1,1 16,0 1,1 34,0 0,-1 -1,0 -1,-1 -1,-1 0,-2 -1,-1 0,-1 -1,-1 0,-1 -1,-1 0,-2 -1,-1 0,-3 1,-1 1,-1 8,0 1,1 0,1 1,1 0,2 1,1 0,3 1,1 0,6 1,1 1,0 1,1 3,0 1,1 11,0 1,-1 1,0 0,-1 1,-1 0,-1 1,-1 0,-1 1,-1 0,-1 1,-1 0,-1 1,-1 0,-1 1,-1 0,-1 1,-1 0,-1 1,-1 0,-1 1,-1 0,-1 1,-1 0,-1 1,-1 0,-1 1,-1 0,-2 1,-1 0,-3 1,-1 0,-2 -1,-1 0,-1 -1,-1 -5,0 -1,1 -7,0 -1,1 -8,0 -1,1 -8,0 -1,1 -11,0 -1,1 -99,0 -1,1 -4,0 -1,1 -7,0 -1,1Z"/>
<path onmouseover="hoverPath(evt)" onmouseout="recoverPath(evt)" fill="rgb(243,243,238)" d="M  62,155l -1,1 0,8 -1,1 0,3 13,0 1,1 18,0 1,1 21,0 1,1 4,0 1,1 1,1 0,2 1,0 1,-1 0,0 1,-1 1,-1 12,0 1,1 15,0 1,1 14,0 1,-1 3,0 1,-1 0,-4 -1,-1 0,-7 -1,-1 0,-3 -1,-1 0,-2 -1,-1 0,-2 -1,-1 0,-1 -1,-1 -1,0 -1,-1 -1,0 -1,-1 -23,0 -1,-1 -44,0 -1,1 -8,0 -1,-1 -3,0 -1,-1 -4,0 -1,-1 -20,0 8,1 0,7 -1,1 0,2 -1,1Z"/>
<path onmouseover="hoverPath(evt)" onmouseout="recoverPath(evt)" fill="rgb(243,243,238)" d="M  71,179l -2,0 -1,1 -1,1 0,5 -1,1 0,7 -1,1 0,1 -1,1 1,0 1,1 0,-2 1,-1 0,-8 -1,8 2,-12 0,-2 1,-1 1,0 1,-1 4,1 13,0 1,1 10,0 1,1 1,1 1,0 1,1 0,3 1,-2 7,0 1,1 6,0 1,1 4,0 1,1 5,0 1,1 5,0 1,1 5,0 1,1 4,0 1,1 5,0 1,1 4,0 1,1 1,0 1,1 0,7 1,-4 0,-6 -3,0 -1,-1 -4,0 -1,-1 -4,0 -1,-1 -4,0 -1,-1 -4,0 -1,-1 -5,0 -1,-1 -4,0 -1,-1 -2,0 -1,-1 0,-4 -1,-1 -1,0 -1,1 0,3 -1,1 -11,0 -1,-1 -4,0 -28,-3 -4,-1 30,3 -1,-1 -1,-1 -6,0 -1,-1 -16,0 25,3 -30,-3Z"/>
<path onmouseover="hoverPath(evt)" onmouseout="recoverPath(evt)" fill="rgb(171,198,238)" d="M  70,183l 0,1 -1,1 0,11 -1,1 0,7 -1,1 0,3 -1,1 0,3 -1,1 0,3 -1,1 0,1 1,1 4,0 1,-1 8,0 1,1 1,1 1,1 1,1 1,1 1,1 1,1 0,2 2,0 1,-1 5,0 1,1 6,0 1,1 4,0 1,1 9,0 1,1 4,0 1,1 3,0 1,1 4,0 1,1 4,0 1,1 3,0 1,1 2,0 1,1 3,0 1,-1 1,0 1,-1 0,-3 -1,-1 0,-1 -1,0 -1,-1 -1,0 -1,-1 -2,0 -1,-1 -3,0 -1,-1 -3,0 -1,-1 -5,0 -1,-1 -6,0 -1,-1 -5,0 -1,-1 -6,0 -1,-1 0,-2 -4,0 -1,-1 0,-6 1,-1 0,-6 -1,-1 0,-2 1,-1 0,-11 -1,-1 0,-3 -1,0 -1,-1 -1,-1 -10,0 -1,-1 -16,0 -1,1Z"/>
<path onmouseover="hoverPath(evt)" onmouseout="recoverPath(evt)" fill="rgb(181,204,238)" d="M  84,251l 0,1 -1,1 0,2 69,0 0,-1 -1,-1 -1,0 -1,-1 -2,0 -1,-1 -2,0 -1,-1 -1,0 -1,-1 -1,-1 -1,-1 0,-2 1,-1 0,-4 1,-1 1,-1 4,0 1,1 1,0 1,-1 0,0 1,-1 0,-1 1,-1 0,-2 1,-1 0,-2 1,-1 0,-3 -1,1 -5,0 -1,-1 -1,0 4,2 0,1 1,1 0,5 -2,2 -1,0 0,1 2,-1 -65,14 57,-13 -1,-1 -2,0 -1,-1 -3,0 -1,-1 -4,0 -1,-1 -4,0 -1,-1 -3,0 -1,-1 -3,0 -1,1 -7,0 0,8 -1,1 -1,1 -6,0 -1,-1 -2,0 -1,-1 -3,0 -1,-1 -4,0 -1,-1 -2,0 0,9 -1,1 0,1 57,-12 -57,13Z"/>
<path onmouseover="hoverPath(evt)" onmouseout="recoverPath(evt)" fill="rgb(176,201,238)" d="M  88,31l -4,0 -1,-1 -11,0 -1,-1 -1,1 0,2 -1,1 0,15 -1,1 0,5 -1,1 0,4 1,1 0,4 1,1 0,1 16,0 1,1 13,0 0,-15 1,-1 0,-9 -1,-1 0,-10Z"/>
<path onmouseover="hoverPath(evt)" onmouseout="recoverPath(evt)" fill="rgb(171,198,238)" d="M  135,39l 0,5 1,1 0,22 3,0 1,1 2,0 1,-1 1,0 0,-30 -6,0 -1,1 -1,0 -1,1Z"/>
<path onmouseover="hoverPath(evt)" onmouseout="recoverPath(evt)" fill="rgb(171,198,238)" d="M  148,39l 0,28 2,0 1,-1 2,0 1,-1 5,0 1,-1 4,0 2,-2 0,-3 -1,-1 0,-17 -1,-1 0,-2 -5,0 -1,-1 -5,0 -1,1 -3,0 -1,1Z"/>
<path onmouseover="hoverPath(evt)" onmouseout="recoverPath(evt)" fill="rgb(172,199,238)" d="M  168,7l -1,1 -2,0 0,11 -1,1 0,3 1,0 1,1 1,0 1,1 1,0 1,1 2,0 1,1 2,0 1,1 4,0 1,-1 2,0 0,-5 -1,-1 -12,0 -1,-1 0,-2 1,-1 14,0 1,1 2,0 1,1 0,3 -1,1 0,5 2,0 1,1 3,0 1,1 3,0 1,1 2,0 1,-1 0,-8 -10,0 -1,-1 0,-2 1,-1 9,0 1,-1 -1,-1 0,-6 -1,-1 0,-1 -7,0 -1,-1 -15,0 -1,-1 -6,0 -1,1Z"/>
</svg>