<svg width="256" height="256" xmlns="http://www.w3.org/2000/svg"><script> 
var tempColor;
function hoverPath(evt){
obj = evt.target;
tempColor = obj.getAttribute("fill");
obj.setAttribute("fill","red");
//alert(tempColor);
//obj.setAttribute("stroke","red");}
function recoverPath(evt){
obj = evt.target;
obj.setAttribute("fill", tempColor);
//obj.setAttribute("stroke", tempColor);
}</script><path onmouseover="hoverPath(evt)" onmouseout="recoverPath(evt)" fill="rgb(172,198,238)" d="M  0,232l 0,23 161,0 0,-1 -1,-1 0,0 -1,-1 -5,0 -1,-1 -6,0 -1,-1 -5,0 -1,-1 -7,0 -1,-1 -5,0 -1,-1 -3,0 -1,-1 -1,-1 0,-5 1,-1 1,-1 1,-1 1,-1 1,-1 1,0 1,-1 1,-1 1,-1 1,0 2,-2 1,0 0,-1 1,-1 1,0 1,-1 1,0 0,-1 1,-1 0,-1 1,-1 1,-1 1,0 1,-1 1,-1 1,0 1,-1 -1,-1 0,0 -1,-1 0,-4 1,-1 0,-2 1,-1 0,-2 1,-1 2,-2 0,-1 1,-1 1,-1 1,-1 0,-1 1,-1 0,-1 1,-1 1,-1 0,-1 1,-1 0,-1 1,-1 0,-1 1,-1 1,-1 0,-1 1,-1 0,-2 1,-1 0,-1 1,-1 0,-2 1,-1 0,-1 1,-1 0,-1 1,-1 0,-1 1,-1 1,-1 0,-1 1,-1 1,-1 0,-1 1,-1 1,-1 1,-1 3,0 1,1 0,1 1,1 1,0 1,1 2,0 1,1 1,0 1,1 2,0 1,1 1,0 1,1 1,0 1,1 1,0 1,-1 1,-1 0,-1 1,-1 0,-1 2,-2 0,-1 1,-1 0,-1 1,-1 1,-1 0,-1 1,-1 0,-2 -2,0 -1,-1 -4,0 -1,-1 0,-2 1,-1 6,0 1,1 3,0 1,1 2,0 1,1 2,0 1,1 2,0 1,1 2,0 1,1 2,0 1,1 2,0 1,1 2,0 1,1 2,0 1,1 2,0 1,1 1,1 0,1 1,1 0,2 1,1 0,1 1,1 0,1 1,1 0,2 1,1 0,1 1,1 1,1 1,1 1,1 1,1 1,1 1,0 1,1 1,1 1,0 1,1 1,0 1,1 2,0 1,1 1,0 0,-4 -2,0 -1,-1 -2,-2 -1,-1 -1,-1 -1,-1 -1,-1 0,-1 -1,-1 0,-1 -1,-1 0,-1 -1,-1 0,-1 -1,-1 0,-1 -1,-1 0,-2 -1,-1 0,-2 -1,-1 -1,-1 -1,0 -1,-1 -1,0 -1,-1 -1,0 -1,-1 -2,0 -1,-1 -1,0 -1,-1 -2,0 -1,-1 -2,0 -1,-1 -2,0 -1,-1 -2,0 -1,-1 -2,0 -1,-1 -13,0 -1,-1 -1,0 -1,-1 0,-4 1,-1 1,-1 1,0 1,-1 2,0 1,-1 5,0 1,-1 6,0 1,-1 3,0 1,-1 1,0 1,-1 2,0 1,-1 2,0 1,-1 1,0 1,-1 2,0 1,-1 1,0 1,-1 1,-1 1,0 1,-1 1,-1 1,0 1,-1 1,0 1,-1 1,0 1,-1 1,0 1,-1 1,0 1,-1 2,-2 1,0 1,-1 2,0 0,-12 -1,0 -1,1 0,0 -1,1 -5,0 -1,-1 -1,-1 -1,-1 0,-1 -1,-1 0,-1 -1,-1 -1,-1 0,-1 -1,-1 -1,-1 0,-1 -1,-1 0,-1 -1,1 -1,0 -1,1 -1,1 -1,1 -1,1 0,1 2,0 1,1 1,1 0,1 2,2 0,2 1,0 1,1 1,1 0,1 1,1 1,1 0,1 1,1 0,2 -1,1 0,1 -1,1 -2,0 0,2 -1,1 -2,0 -1,-1 -1,0 -1,1 -2,0 -1,1 -1,0 0,2 -1,1 -1,0 -1,1 -1,0 -1,1 -2,0 -1,1 -1,0 0,1 -1,1 -1,0 -1,1 -10,0 -1,-1 -2,0 -1,-1 -1,0 -1,-1 -1,-1 -1,-1 0,-1 -1,-1 -1,-1 -1,-1 0,-1 -1,-1 -1,-1 -1,-1 0,-2 -1,-1 -1,-1 0,-6 1,-1 0,-1 1,-1 0,-1 1,-1 1,-1 1,-1 0,-1 1,-1 1,-1 1,-1 1,-1 0,-1 1,-1 1,-1 1,-1 0,-1 1,-1 1,-1 1,-1 0,-1 1,-1 1,-1 1,-1 0,-1 1,-1 2,-2 0,-1 2,-2 1,-1 1,-1 1,0 0,-1 5,-5 1,-1 2,-2 1,0 2,-2 1,-1 1,0 1,-1 1,-1 1,0 1,-1 1,-1 2,0 1,-1 1,0 1,-1 3,0 1,1 3,0 1,1 1,1 1,1 2,0 1,1 1,0 0,-65 -255,0 0,198 17,0 1,1 4,0 1,1 1,0 1,1 1,1 1,1 1,0 1,1 1,0 1,1 5,0 1,1 0,2 -1,1 -4,0 -1,1 -1,1 0,2 1,1 0,2 -1,1 -3,0 -1,1 -1,1 -1,1 0,1 -1,1 -1,1 0,1 -1,1 0,1 -1,1 -1,1 0,1 -1,1 -1,1 -1,1 0,2 1,0 1,1 1,0 1,1 0,2 1,-1 4,0 0,-1 1,-1 1,-1 0,-1 1,-1 1,-1 0,-1 1,-1 1,-1 1,-1 2,0 1,-1 1,-1 0,-1 1,-1 1,-1 0,-1 1,-1 1,-1 -1,-1 0,-2 1,-1 1,-1 0,-1 1,-1 1,-1 1,-1 2,0 1,-1 1,-1 0,-1 1,-1 6,0 1,-1 8,0 1,-1 2,0 1,-1 2,0 1,-1 2,0 1,-1 9,0 1,1 1,0 0,-2 1,-1 1,-1 1,0 1,-1 1,0 2,-2 1,0 1,-1 8,0 1,1 1,1 1,1 1,1 0,3 -1,1 -1,0 0,1 -1,1 -1,1 -1,0 -1,1 -1,1 -1,1 0,1 -1,1 -1,0 -1,1 -1,1 -2,2 0,3 -1,1 -1,0 -1,1 -1,1 -1,1 0,1 -1,1 0,1 -1,1 0,1 -1,1 -1,1 0,1 -1,1 0,2 -1,1 0,1 6,0 1,1 0,2 -1,1 -8,0 -1,1 -1,1 -1,1 -1,0 0,1 -1,1 -1,1 -1,1 -1,1 0,1 -1,1 -1,1 -1,1 -3,0 -1,1 -10,0 -1,-1 -2,0 -1,-1 -3,0 -1,-1 -3,0 -1,-1 -3,0 -1,-1 -2,0 -1,-1 -2,0 -1,-1 -3,0 -1,-1 -2,0 -1,-1 -2,0 -1,-1 -1,0 -1,-1 0,-1 -4,0 -1,-1 -1,0 -1,-1 -1,-1 -1,0 -1,-1 -2,0 -1,-1 -1,-1 -1,0 -1,-1 -1,0 -1,-1 -1,0 -1,1 165,-69 -1,1 -1,1 0,1 -1,1 0,1 -1,1 0,1 -1,1 -1,1 0,1 -1,1 0,1 -1,1 0,2 -1,1 0,1 -2,2 -1,1 -2,0 -1,1 -1,1 0,1 -1,1 -1,1 -2,2 -2,0 -1,-1 -1,-1 -1,-1 -1,-1 -1,-1 -1,-1 0,-1 -1,-1 -1,-1 -1,-1 -1,-1 -1,-1 -1,0 -1,-1 0,-1 -1,0 -1,-1 0,-1 -1,-1 -1,-1 0,-14 -1,-1 0,-4 -1,-1 0,-1 -1,-1 -2,0 -1,-1 -1,-1 0,-3 -1,-1 0,-5 1,-1 2,-2 1,-1 1,0 1,-1 1,-1 1,0 1,-1 1,-1 1,0 1,-1 1,0 2,-2 1,0 1,-1 1,0 1,-1 2,0 1,-1 4,0 1,1 1,0 1,-1 0,0 1,-1 4,0 1,1 2,0 1,1 0,2 4,0 1,-1 5,0 1,1 1,0 1,1 1,0 1,1 1,1 1,0 1,1 1,1 0,1 1,1 1,1 1,1 0,5 -1,1 0,2 -1,1 -1,1 0,1 -1,1 -1,1 -2,0 -1,1 0,1 -1,1 -1,1 0,1 -1,1 -1,1 -1,1 -1,0 0,2 1,1 0,2 -165,69Z"/>
<path onmouseover="hoverPath(evt)" onmouseout="recoverPath(evt)" fill="rgb(188,209,238)" d="M  67,206l -1,0 -1,1 -8,0 8,1 0,0 1,1 0,5 -1,1 0,1 -1,1 0,1 -1,1 0,1 -1,1 0,1 -1,1 0,1 -1,1 0,1 -1,1 0,1 -1,1 0,1 -1,1 0,1 -1,1 0,1 -1,1 0,1 -1,1 0,2 -1,1 0,1 -1,1 0,1 -1,1 -1,1 -6,0 -1,-1 -1,0 -1,-1 -2,0 -1,-1 -2,0 -1,-1 -1,0 -1,-1 -1,0 -1,-1 -1,-1 0,-5 1,-1 0,-1 1,-1 1,-1 -4,5 0,1 -1,1 -1,1 0,1 -1,1 -4,0 2,1 2,0 1,1 2,0 1,1 3,0 1,1 2,0 1,1 2,0 1,1 3,0 1,1 3,0 1,1 3,0 1,1 2,0 1,1 8,0 1,-1 3,0 1,-1 1,-1 0,-1 1,-1 1,-1 1,-1 1,-1 0,-1 1,-1 1,0 1,-1 2,-2 8,0 -7,-1 0,-3 1,-1 0,-2 1,-1 0,-1 1,-1 1,-1 0,-1 1,-1 0,-1 1,-1 0,-1 1,-1 1,-1 1,-1 1,-1 1,0 0,-3 1,-1 1,-1 1,-1 1,-1 1,-1 1,0 0,-1 1,-1 1,-1 1,-1 1,-1 1,0 1,-1 0,-1 1,-1 1,0 0,-1 -1,-1 0,0 -1,-1 -1,-1 -6,0 -1,1 -1,0 -1,1 -1,1 -1,0 -1,1 -1,0 -1,1 0,2 -1,1 -3,0 -1,-1 -7,0 -1,1 -2,0 -1,1 -2,0 -1,1Z"/>
<path onmouseover="hoverPath(evt)" onmouseout="recoverPath(evt)" fill="rgb(171,198,238)" d="M  126,146l -2,0 0,2 1,1 0,0 1,1 0,1 1,1 0,4 1,1 0,14 1,1 1,1 0,1 1,0 1,1 0,1 1,0 1,1 1,1 1,1 1,1 1,1 1,1 0,1 1,1 1,1 1,1 1,1 1,1 1,-1 0,0 1,-1 1,-1 0,-1 1,-1 1,-1 1,-1 0,-1 1,-1 1,-1 0,-1 1,-1 0,-3 -1,0 -1,-1 -1,-1 -1,-1 -1,-1 -1,-1 0,-2 -1,0 -1,-1 -1,-1 -1,-1 -1,-1 -1,-1 0,-1 -1,-1 -1,-1 -1,-1 -1,-1 0,-1 -1,-1 -1,-1 -1,-1 0,-1 -1,-1 -1,-1 -1,-1 0,-1 -1,-1 -1,-1 -2,0 -1,1Z"/>
<path onmouseover="hoverPath(evt)" onmouseout="recoverPath(evt)" fill="rgb(178,202,238)" d="M  135,138l 0,0 -1,1 -1,1 -1,1 0,2 -1,1 1,1 1,1 0,1 1,1 1,1 1,1 0,1 1,1 1,1 1,1 0,1 1,1 1,1 1,1 1,1 0,1 1,1 1,1 1,1 1,1 1,0 1,1 0,2 1,1 1,1 1,1 1,1 1,0 1,1 0,5 -1,1 0,1 -1,1 -1,1 4,-7 0,-1 1,-1 0,-1 1,-1 1,-1 0,-1 1,-1 0,-1 1,-1 0,-1 1,-1 1,-1 -1,-1 0,-4 1,-1 1,0 1,-1 1,-1 0,-1 1,-1 1,-1 0,-1 1,-1 1,-1 2,0 1,-1 0,-1 1,-1 1,-1 0,-2 1,-1 0,-3 -1,-1 0,0 -1,-1 -1,-1 0,-1 -1,-1 -1,0 -1,-1 -1,-1 -1,0 -1,-1 -1,0 -1,-1 -3,0 -1,1 -6,0 -1,-1 -4,0 -1,1 -3,0 0,1 -1,1 -1,1 -1,1 -2,0 -1,1 -1,0 -1,1 -1,1 -1,0 -1,1Z"/>
<path onmouseover="hoverPath(evt)" onmouseout="recoverPath(evt)" fill="rgb(242,242,234)" d="M  220,192l 0,0 -1,1 0,1 -1,1 0,1 -1,1 0,1 -1,1 0,1 -1,1 0,1 1,0 1,1 1,0 1,1 2,0 1,1 2,0 1,1 2,0 1,1 2,0 1,1 2,0 1,1 1,1 5,0 1,1 2,0 1,1 2,0 1,1 2,0 1,1 2,0 1,1 2,0 0,-14 -3,0 -1,-1 -2,0 -1,-1 -1,0 -1,-1 -2,0 -1,-1 -2,0 -1,-1 -1,0 -1,-1 -2,0 -1,-1 -2,0 -1,-1 -1,0 -1,-1 -2,0 -1,-1 -2,0 -1,-1 -2,0 -1,-1 -1,1Z"/>
<path onmouseover="hoverPath(evt)" onmouseout="recoverPath(evt)" fill="rgb(178,202,238)" d="M  220,79l 0,0 -1,1 -1,0 -1,1 -1,1 -1,1 0,1 -1,1 -1,1 -1,1 0,1 -2,2 -1,1 0,1 -1,1 -1,1 -1,1 0,1 -3,3 0,1 -1,1 -1,1 -1,1 -1,1 0,1 -1,1 -1,1 -1,1 0,1 -1,1 0,1 -1,1 0,4 1,1 0,0 1,1 0,2 1,1 1,1 1,1 0,1 1,1 1,1 1,1 0,1 1,1 1,1 1,0 1,1 2,0 1,1 8,0 1,-1 1,0 0,-1 1,-1 1,0 1,-1 2,0 1,-1 1,0 1,-1 1,0 0,-2 1,-1 1,0 1,-1 2,0 1,-1 3,0 1,1 0,-2 1,-1 2,0 0,-1 1,-1 -1,-1 0,-1 -1,-1 -1,-1 0,-1 -1,-1 -1,0 -1,-1 0,-2 -1,-1 -1,-1 0,-1 -1,-1 -2,0 -1,-1 0,-3 1,-1 3,-3 1,-1 1,0 1,-1 2,0 1,1 0,1 1,1 0,1 1,1 1,1 0,1 1,1 1,1 0,1 1,1 0,1 1,1 1,1 3,0 1,-1 0,0 1,-1 2,0 0,-39 -2,0 -1,-1 -2,0 -1,-1 -1,-1 -1,-1 -3,0 -1,-1 -1,0 -1,1 -1,0 -1,1 -2,0 -1,1 -1,1 -1,0 -1,1 -1,1 -1,0 -1,1 -1,1 -1,1 -1,0 -1,1 -1,1 -1,1 -1,1 -1,1 -1,1 -1,1Z"/>
<path onmouseover="hoverPath(evt)" onmouseout="recoverPath(evt)" fill="rgb(174,200,239)" d="M  236,229l 0,0 -1,-1 -4,0 -1,-1 -3,0 -1,-1 -2,0 -1,-1 -5,0 -1,-1 -1,0 -1,-1 -2,0 -1,-1 -2,0 -1,-1 -4,0 -1,-1 0,0 -1,1 0,1 -1,1 0,1 -1,1 0,1 -1,1 0,1 -1,1 0,1 -1,1 0,1 -1,1 0,1 -1,1 2,0 1,1 3,0 1,1 2,0 1,1 7,0 1,1 1,1 2,0 1,1 3,0 1,1 3,0 1,1 3,0 1,1 3,0 1,1 3,0 1,1 3,0 1,1 4,0 1,1 1,0 1,1 2,0 1,1 3,0 0,-17 -5,0 -1,-1 -2,0 -1,-1 -2,0 -1,-1 -2,0 -1,-1Z"/>
<path onmouseover="hoverPath(evt)" onmouseout="recoverPath(evt)" fill="rgb(187,208,238)" d="M  5,200l -5,0 0,28 1,0 1,1 1,0 1,1 1,0 1,1 1,0 1,1 1,1 2,0 1,1 1,0 2,2 1,0 1,1 1,0 -4,-3 0,-3 2,-2 1,-1 0,-1 1,-1 1,-1 0,-1 1,-1 0,-1 1,-1 1,-1 0,-1 1,-1 1,-1 2,-2 3,0 -1,-1 0,-4 1,-1 1,-1 1,-1 -1,0 -1,-1 -1,0 -1,-1 -1,0 -1,-1 -1,-1 -1,-1 -1,0 -1,-1 -4,0 -1,-1Z"/>
<path onmouseover="hoverPath(evt)" onmouseout="recoverPath(evt)" fill="rgb(171,198,238)" d="M  50,209l 0,0 -1,1 -1,1 -1,1 -2,0 -1,1 -1,1 0,1 -1,1 -1,1 1,1 0,2 -1,1 -1,1 0,1 -1,1 -1,1 0,1 -1,1 -1,1 -1,1 0,1 -1,1 -1,1 0,1 -1,1 0,3 1,1 1,0 1,1 1,0 1,1 2,0 1,1 2,0 1,1 1,0 1,1 4,0 1,-1 0,-1 1,-1 0,-1 1,-1 0,-2 1,-1 0,-1 1,-1 0,-1 1,-1 0,-1 1,-1 0,-1 1,-1 0,-1 1,-1 0,-1 1,-1 0,-1 1,-1 0,-1 1,-1 0,-1 1,-1 0,-1 1,-1 0,-1 1,-1 0,-3 -1,-1 -7,0 -1,-1 -4,0 -1,1Z"/>
<path onmouseover="hoverPath(evt)" onmouseout="recoverPath(evt)" fill="rgb(177,202,238)" d="M  146,222l -1,0 -1,1 -1,1 -1,0 -1,1 0,1 -1,1 0,1 -1,1 -1,0 -1,1 -1,0 0,1 -1,1 -1,0 -1,1 -1,1 -1,0 -1,1 -1,1 -1,1 -1,0 -1,1 -1,1 -1,1 -1,1 0,3 1,1 3,0 1,1 5,0 1,1 7,0 1,1 5,0 1,1 5,0 1,-1 7,0 1,-1 1,-1 1,0 1,-1 0,-3 1,-1 0,-1 1,-1 0,-1 1,-1 0,-1 1,-1 0,-1 1,-1 0,-1 1,-1 0,-2 -1,0 -1,-1 -1,0 -1,-1 0,-2 1,-1 3,0 1,1 2,0 0,-1 1,-1 0,-1 1,-1 0,-4 1,-1 1,0 0,-1 1,-1 0,-1 1,-1 0,-2 -1,-1 -1,0 -1,-1 -1,0 -1,-1 -1,0 -1,-1 -1,0 -1,-1 -2,0 -1,-1 -1,0 -1,-1 -1,0 -1,-1 -1,0 -1,-1 -2,0 -1,-1 -5,0 0,1 -1,1 -1,1 -1,1 0,1 -2,2 -1,1 0,2 -1,1 0,2 -1,1 0,2 1,1 0,0 1,1 0,2 -1,1 -1,1Z"/>
<path onmouseover="hoverPath(evt)" onmouseout="recoverPath(evt)" fill="rgb(243,243,237)" d="M  149,127l 5,0 -3,-1 -2,0 0,1 -8,0 -1,1 -2,0 -1,1 -1,0 -1,1 -1,0 -1,1 -1,1 -1,0 -1,1 -1,0 -1,1 -1,1 -1,0 -1,1 -1,1 -1,0 -1,1 -1,1 -1,1 0,3 1,1 0,3 1,1 0,-3 1,-1 2,0 1,-1 3,0 1,-1 0,-2 1,-1 1,-1 1,-1 1,-1 1,-1 1,0 1,-1 1,-1 1,0 1,-1 2,0 1,-1 1,-1 -1,-3Z"/>
<path onmouseover="hoverPath(evt)" onmouseout="recoverPath(evt)" fill="rgb(243,243,235)" d="M  169,249l 0,0 -1,1 0,1 -1,1 0,1 -1,1 0,1 89,0 0,-3 -4,0 -1,-1 -2,0 -1,-1 -1,0 -1,-1 -4,0 -1,-1 -3,0 -1,-1 -3,0 -1,-1 -3,0 -1,-1 -3,0 -1,-1 -3,0 -1,-1 -3,0 -1,-1 -2,0 -1,-1 -1,-1 -7,0 -1,-1 -2,0 -1,-1 -3,0 -1,-1 -2,0 1,1 0,2 -1,1 0,1 -1,1 0,1 -1,1 0,2 -1,1 -1,1 -8,0 -1,-1 -2,0 -1,-1 -5,0 -1,-1 -1,1 -2,0 -1,1Z"/>
<path onmouseover="hoverPath(evt)" onmouseout="recoverPath(evt)" fill="rgb(243,243,236)" d="M  172,167l 0,0 -1,1 0,1 -1,1 -1,1 0,1 -1,1 -1,1 0,1 -1,1 0,1 -1,1 0,1 -1,1 0,2 -1,1 0,1 -1,1 0,2 -1,1 0,1 -1,1 -1,1 0,1 -1,1 0,1 -1,1 0,1 -1,1 -1,1 5,0 1,1 2,0 1,1 1,0 1,1 1,0 1,1 1,0 1,1 2,0 1,1 1,0 1,1 1,0 1,1 1,0 1,1 1,0 1,1 1,1 0,4 -1,1 0,1 -1,1 0,1 -1,1 -1,0 0,4 -1,1 0,1 -1,1 0,1 -1,1 -4,0 -1,-1 -1,0 4,2 0,4 -1,1 0,1 -1,1 0,1 -1,1 0,1 -1,1 0,1 -1,1 0,1 -1,1 0,3 -1,1 -1,1 -1,0 -1,1 -1,1 -7,0 6,1 0,0 1,1 1,1 0,2 1,0 0,-2 1,-1 0,-1 1,-1 0,-1 1,-1 0,-1 1,-1 1,-1 2,0 1,-1 2,0 1,1 5,0 1,1 2,0 1,1 6,0 1,-1 0,-1 -1,-1 0,-2 1,-1 0,-1 1,-1 0,-1 1,-1 0,-1 1,-1 0,-1 1,-1 0,-1 1,-1 0,-1 1,-1 0,-1 1,-1 0,-1 1,-1 0,-1 1,-1 0,-1 1,-1 0,-1 1,-1 0,-1 1,-1 0,-1 1,-1 0,-1 1,-1 0,-1 1,-1 0,-1 1,-1 0,-1 1,-1 2,0 1,-1 0,-1 1,-1 0,-1 1,-1 0,-2 1,-1 0,-1 1,-1 0,-1 1,-1 0,-1 1,-1 0,-1 1,-1 0,-1 -1,-1 0,-2 1,-1 2,0 1,1 1,0 1,1 2,0 1,1 2,0 1,1 2,0 1,1 1,0 1,1 2,0 1,1 2,0 1,1 1,0 1,1 2,0 1,1 2,0 1,1 1,0 1,1 2,0 1,1 2,0 0,-9 -2,0 -1,-1 -2,0 -1,-1 -1,0 -1,-1 -1,0 -1,-1 -1,-1 -1,0 -1,-1 -1,-1 -1,-1 -1,-1 -1,-1 -1,-1 -1,-1 0,-1 -1,-1 0,-2 -1,-1 0,-1 -1,-1 0,-1 -1,-1 0,-2 -1,-1 0,-1 -1,-1 -2,0 -1,-1 -2,0 -1,-1 -2,0 -1,-1 -2,0 -1,-1 -2,0 -1,-1 -2,0 -1,-1 -2,0 -1,-1 -2,0 -1,-1 -2,0 -1,-1 -3,0 -1,-1 -4,0 8,2 0,4 -1,1 0,1 -1,1 -1,1 0,1 -1,1 0,1 -1,1 -1,1 0,1 -1,1 0,1 -1,1 -1,1 -1,1 -3,0 -1,-1 -1,0 -1,-1 -1,0 -1,-1 -2,0 -1,-1 -1,0 -1,-1 -2,0 -1,-1 -1,0 -1,-1 -1,-1 0,-1 -1,0 -1,1Z"/>
<path onmouseover="hoverPath(evt)" onmouseout="recoverPath(evt)" fill="rgb(236,239,237)" d="M  198,145l 0,2 1,0 1,1 13,0 1,1 2,0 1,1 2,0 1,1 2,0 1,1 2,0 1,1 2,0 1,1 1,0 1,1 2,0 1,1 1,0 1,1 1,0 1,1 1,0 1,1 1,1 1,1 0,2 1,1 0,2 1,1 0,1 1,1 0,1 1,1 0,1 1,1 0,1 1,1 0,1 1,1 1,1 1,1 1,1 1,1 1,1 1,0 0,-60 -1,0 -1,1 -1,0 -1,1 -1,1 -1,1 -1,0 -1,1 -1,0 -1,1 -1,0 -1,1 -1,0 -1,1 -1,0 -1,1 -1,1 -1,0 -1,1 -1,1 -1,0 -1,1 -2,0 -1,1 -1,0 -1,1 -2,0 -1,1 -2,0 -1,1 -1,0 -1,1 -3,0 -1,1 -6,0 -1,1 -5,0 -1,1 -2,0 -1,1 -1,0 -1,1Z"/>
<path onmouseover="hoverPath(evt)" onmouseout="recoverPath(evt)" fill="rgb(175,200,238)" d="M  237,212l -3,0 -1,-1 -1,-1 -2,0 -1,-1 -2,0 -1,-1 -2,0 -1,-1 -2,0 -1,-1 -2,0 -1,-1 -1,0 -1,-1 -1,0 0,1 -1,1 0,1 -1,1 -1,1 -2,0 0,1 -1,1 0,1 -1,1 2,0 1,1 1,1 2,0 1,1 2,0 1,1 2,0 1,1 2,0 1,1 4,0 1,1 4,0 1,1 1,0 1,1 2,0 1,1 2,0 1,1 2,0 1,1 3,0 1,1 2,0 1,1 4,0 0,-10 -3,0 -1,-1 -2,0 -1,-1 -2,0 -1,-1 -2,0 -1,-1 -2,0 -1,-1Z"/>
<path onmouseover="hoverPath(evt)" onmouseout="recoverPath(evt)" fill="rgb(243,243,235)" d="M  247,229l 0,0 1,1 2,0 1,1 4,0 0,-2 -5,0 -1,-1 -1,0 -1,1 -1,-2 -3,0 -1,-1 -2,0 -1,-1 -2,0 -1,-1 -2,0 -1,-1 -1,0 -1,-1 -4,0 -1,-1 -4,0 -1,-1 -2,0 -1,-1 -2,0 -1,-1 -2,0 -1,-1 -2,0 -1,-1 -1,-1 -2,0 0,1 -1,1 1,1 0,1 4,0 1,1 2,0 1,1 2,0 1,1 1,0 1,1 5,0 1,1 2,0 1,1 3,0 1,1 4,0 1,1 4,0 1,1 2,0 1,1 1,-2 1,2Z"/>
</svg>