<svg width="256" height="256" xmlns="http://www.w3.org/2000/svg"><script> 
var tempColor;
function hoverPath(evt){
obj = evt.target;
tempColor = obj.getAttribute("fill");
obj.setAttribute("fill","red");
//alert(tempColor);
//obj.setAttribute("stroke","red");}
function recoverPath(evt){
obj = evt.target;
obj.setAttribute("fill", tempColor);
//obj.setAttribute("stroke", tempColor);
}</script><path onmouseover="hoverPath(evt)" onmouseout="recoverPath(evt)" fill="rgb(253,253,253)" d="M  0,44l 0,1 2,0 1,-1 1,0 1,-1 2,0 1,-1 1,0 1,-1 3,0 1,-1 2,0 1,-1 1,-1 2,0 1,-1 2,0 1,-1 2,0 1,-1 2,0 1,-1 2,0 1,-1 2,0 1,-1 2,0 1,-1 2,0 1,-1 2,0 1,-1 2,0 1,-1 2,0 1,-1 3,0 1,1 0,-1 1,-1 1,0 1,-1 2,0 1,-1 2,0 1,-1 1,0 1,-1 2,0 1,-1 2,0 1,-1 2,0 1,-1 2,0 1,-1 1,0 1,-1 3,0 1,-1 2,0 1,-1 2,0 1,-1 4,0 1,-1 2,0 1,-1 2,0 1,-1 1,-1 2,0 1,-1 2,0 1,-1 2,0 1,-1 1,0 1,-1 2,0 1,-1 2,0 1,-1 1,0 1,-1 2,0 1,-1 2,0 1,-1 2,0 0,-1 -8,0 0,1 -1,1 -1,0 -1,1 -1,0 -1,1 -2,0 -1,1 -2,0 -1,1 -1,0 -1,1 -2,0 -1,1 -2,0 -1,1 -1,1 -3,0 -1,1 -2,0 -1,1 -1,0 -1,1 -4,0 -1,1 -2,0 -1,1 -2,0 -1,1 -3,0 -1,1 -1,0 -1,1 -3,0 -1,1 -1,1 -2,0 -1,1 -4,0 -1,-1 0,-4 -1,-1 0,-3 -1,-1 0,-8 -1,-1 0,-2 -2,0 0,2 1,1 0,6 1,1 0,3 1,1 0,3 1,1 0,4 -1,1 -2,0 -1,1 -2,0 -1,1 -2,0 -1,1 -2,0 -1,1 -2,0 -1,1 -2,0 -1,1 -2,0 -1,1 -3,0 -1,1 -1,0 -1,1 -2,0 -1,1 -2,0 -1,1 -2,0 -1,1 -1,0 -1,1 -2,0 -1,1 -1,0 -1,1 -2,0 -1,1 -3,0 -1,1 -1,0 -1,1 -2,0 -1,1 -2,0 -1,1 -1,0 -1,1Z"/>
<path onmouseover="hoverPath(evt)" onmouseout="recoverPath(evt)" fill="rgb(243,242,234)" d="M  0,148l 0,8 5,0 1,-1 4,0 1,-1 4,0 1,-1 3,0 1,-1 4,0 1,-1 4,0 1,-1 3,0 1,-1 4,0 1,-1 5,0 1,1 3,0 0,-2 1,-1 3,0 1,-1 2,0 0,-4 1,-1 1,-1 -3,0 -1,-1 -1,-1 0,-2 -1,-1 0,-2 -1,-1 0,-2 -1,-1 0,-2 -1,-1 0,-4 -1,2 0,0 -1,1 -1,0 -1,1 -1,1 -1,0 -1,1 -1,1 -1,0 -1,1 -1,1 -1,1 -1,0 -1,1 -1,1 -1,1 -1,1 -1,0 -1,1 -1,1 -1,0 -1,1 -1,1 -1,1 -1,1 -1,1 -1,0 -1,1 -2,0 -1,1 -3,0 -1,1 -3,0 -1,1 -3,0 -1,1 -4,0 -1,1Z"/>
<path onmouseover="hoverPath(evt)" onmouseout="recoverPath(evt)" fill="rgb(171,198,238)" d="M  106,16l 0,1 1,1 0,1 1,1 0,2 1,1 0,4 -1,1 0,2 5,0 1,-1 3,0 1,-1 5,0 1,1 0,1 1,1 0,2 1,1 0,5 -1,1 0,1 1,1 0,3 -1,1 -4,0 -1,1 -1,0 0,4 -1,1 -1,1 -2,0 0,1 1,1 0,1 1,1 0,2 1,1 0,1 2,0 1,-1 1,0 1,-1 2,0 1,-1 2,0 1,-1 2,0 1,-1 2,0 1,-1 2,0 1,1 0,-1 -1,-1 0,-5 2,-2 2,0 1,-1 2,0 1,-1 1,0 0,-3 -1,-1 0,-6 -1,0 -1,1 -6,0 -1,-1 0,-4 -1,-1 0,-2 -1,-1 0,-2 -1,-1 0,-3 -1,-1 0,-2 -1,-1 0,-3 -1,-1 0,-3 -2,0 -1,1 -5,0 -1,1 -7,0 -1,1 -2,0 -1,1 -1,1 -2,0 -1,1Z"/>
<path onmouseover="hoverPath(evt)" onmouseout="recoverPath(evt)" fill="rgb(239,239,234)" d="M  160,75l -1,0 0,6 1,1 0,7 -1,1 0,6 1,1 0,5 1,-6 5,0 1,-1 3,0 1,-1 4,0 1,-1 3,0 1,-1 3,0 0,-4 -1,-1 0,-4 2,-2 1,0 1,-1 2,0 1,1 1,0 1,-1 1,0 0,-2 1,-1 2,0 1,1 1,0 1,-1 1,0 1,-1 1,0 1,-1 0,-2 1,-1 0,-6 -1,-1 0,-3 -2,0 -1,-1 -1,-1 0,-4 1,-1 -1,0 -1,5 0,1 -1,1 -2,0 -1,1 -2,0 -1,1 -3,0 -1,1 -2,0 -1,1 -3,0 -1,1 -2,0 -1,1 -3,0 -1,1 -2,0 0,2 -1,1 -2,0 -1,1 -3,0 -1,1 -1,0 -1,1Z"/>
<path onmouseover="hoverPath(evt)" onmouseout="recoverPath(evt)" fill="rgb(244,243,237)" d="M  200,236l -1,0 -1,1 0,4 1,1 0,2 1,1 0,2 1,1 0,2 1,1 0,1 1,1 0,2 19,0 0,-2 1,-1 1,0 1,-1 1,0 1,-1 1,0 0,-3 -1,-1 0,-2 -1,-1 0,-3 1,-1 4,0 0,-4 -1,-1 0,-5 1,-1 3,0 1,-1 2,0 1,-1 3,0 1,-1 3,0 -4,-1 -3,0 -1,1 -1,0 -1,1 -6,0 -1,1 -2,0 -1,1 -1,0 -1,1 -2,0 -1,1 -3,0 -1,1 -2,0 -1,1 -2,0 -1,1 -2,0 -1,1 -2,0 -1,1 -3,0 -1,1Z"/>
<path onmouseover="hoverPath(evt)" onmouseout="recoverPath(evt)" fill="rgb(244,243,237)" d="M  235,240l 0,2 1,1 0,5 1,1 0,1 1,1 0,4 17,0 0,-16 -1,0 -1,-1 0,-1 -1,-1 0,-3 -1,2 -1,0 -1,1 -3,0 -1,1 -2,0 -1,1 -2,0 -1,1 -3,0 -1,1Z"/>
<path onmouseover="hoverPath(evt)" onmouseout="recoverPath(evt)" fill="rgb(172,198,237)" d="M  0,17l 0,24 1,0 1,-1 2,0 1,-1 2,0 1,-1 1,0 1,-1 1,0 0,-2 -1,-1 0,-1 -1,-1 0,-1 -1,-1 0,-1 -1,-1 0,-1 -1,-1 0,-1 -1,-1 0,-1 -1,-1 0,-1 -1,-1 0,-1 -1,-1 0,-1 -1,-1 -1,1Z"/>
<path onmouseover="hoverPath(evt)" onmouseout="recoverPath(evt)" fill="rgb(244,243,237)" d="M  0,109l 0,30 4,0 1,-1 3,0 1,-1 4,0 1,-1 1,0 1,-1 1,0 1,-1 1,0 2,-2 1,-1 1,0 1,-1 1,-1 1,-1 1,0 1,-1 1,-1 1,0 1,-1 1,-1 1,0 1,-1 1,-1 1,0 1,-1 1,0 1,-1 1,-1 1,-1 1,-1 1,-1 1,-1 1,-1 1,-1 1,-1 1,-1 1,-1 -2,0 -1,-1 -1,-1 0,-1 -1,-1 0,-1 -1,-1 0,-2 -1,0 -1,-1 0,-1 -1,-1 0,-5 -1,-1 -1,0 0,3 -1,1 -1,1 -1,0 -1,1 -1,0 -1,1 -1,0 -1,1 -1,0 -1,1 -1,0 -1,1 -1,1 -1,0 -1,1 -1,0 -1,1 -6,0 -2,-2 0,2 -1,1 -4,0 -1,1 -6,0 -1,1Z"/>
<path onmouseover="hoverPath(evt)" onmouseout="recoverPath(evt)" fill="rgb(244,243,237)" d="M  0,201l 0,37 4,0 1,-1 12,0 1,1 8,0 1,-1 1,-1 1,-1 1,-1 0,-1 1,-1 0,-2 1,-1 0,-4 1,-1 0,-4 1,-1 0,-5 1,-1 0,-11 -1,-1 0,-3 -1,-1 -1,-1 -3,0 -1,-1 -6,0 -1,1 -3,0 -1,1 -3,0 -1,1 -4,0 -1,1 -3,0 -1,1 -3,0 -1,1Z"/>
<path onmouseover="hoverPath(evt)" onmouseout="recoverPath(evt)" fill="rgb(173,199,238)" d="M  0,241l 0,14 99,0 0,-2 1,-1 0,-2 -1,-1 -2,0 -1,-1 -4,0 -1,-1 -1,0 -1,-1 -2,0 -1,-1 -2,0 -1,-1 -1,0 -1,-1 -1,0 -1,-1 -1,0 -1,-1 -5,0 -1,-1 -9,0 -1,-1 0,-2 1,-1 3,0 1,-1 0,-3 1,-1 0,-2 -1,-1 0,-7 -1,-1 -1,-1 0,-8 -1,-1 0,-4 1,-1 2,0 1,1 1,1 2,0 1,1 3,0 1,1 3,0 1,1 3,0 1,1 2,0 1,1 3,0 0,-1 1,-1 0,-2 -1,0 -1,-1 -6,0 -1,-1 0,-2 1,-1 8,0 0,-16 -1,-1 0,-12 -1,-1 0,-1 -2,0 -1,1 -5,0 -1,-1 0,-1 -3,0 -1,-1 -1,-1 -1,-1 0,-1 -1,-1 -1,-1 0,-1 -1,-1 -1,-1 0,-1 -1,-1 0,-1 -1,-1 0,-2 -1,-1 0,-1 -1,-1 0,-2 -1,-1 0,-2 -1,0 -1,1 -2,0 0,3 1,1 0,3 1,1 0,2 1,1 0,1 1,1 0,2 1,1 1,1 1,1 0,1 1,1 0,2 1,1 0,2 1,1 0,1 1,1 0,4 -1,1 0,2 -1,1 -1,1 -1,1 0,1 -1,1 -1,1 -1,1 -1,1 -1,1 -13,0 -1,-1 -3,0 -1,-1 -1,0 -1,-1 -5,0 -1,-1 -6,0 -1,-1 -1,-1 0,-3 1,-1 5,0 1,-1 8,0 1,-1 0,-1 -4,0 -1,1 -11,0 -1,-1 -1,0 -1,1 -1,1 -1,0 0,7 -1,1 -1,0 -1,1 -5,0 -1,1 -1,0 -1,1 -2,0 -1,1 -5,0 -1,1 -3,0 0,3 3,0 1,-1 3,0 1,-1 4,0 1,-1 3,0 1,-1 3,0 1,-1 8,0 1,1 3,0 1,1 1,1 1,1 0,3 1,1 0,13 -1,1 0,5 -1,1 0,4 -1,1 0,4 -1,1 0,2 -1,1 0,1 -1,1 -1,1 -1,1 -1,1 -1,1 -10,0 -1,-1 -10,0 -1,1 -4,0 -1,1Z"/>
<path onmouseover="hoverPath(evt)" onmouseout="recoverPath(evt)" fill="rgb(176,201,238)" d="M  7,85l -1,0 -1,1 -5,0 0,20 6,0 1,-1 4,0 0,-4 1,-1 2,0 1,1 0,2 1,1 4,0 1,-1 1,0 1,-1 1,0 1,-1 1,-1 1,0 1,-1 1,0 1,-1 1,0 1,-1 1,0 1,-1 1,0 1,-1 0,-2 -1,0 -1,-1 -1,-1 -1,-1 0,-2 -1,-1 0,-1 -1,0 -1,-1 0,-1 -1,-1 -1,0 -1,1 -3,0 -1,-1 0,-3 -4,0 -1,1 -3,0 0,2 -1,1 -4,0 -1,1Z"/>
<path onmouseover="hoverPath(evt)" onmouseout="recoverPath(evt)" fill="rgb(244,243,236)" d="M  99,28l 0,-1 -1,-1 0,-1 -1,-1 0,-2 -1,-1 0,-1 -1,-1 0,-1 -1,-1 0,-1 -3,0 -1,1 -2,0 -1,1 -2,0 -1,1 -3,0 -1,1 -1,0 -1,1 -2,0 -1,1 -2,0 -1,1 -2,0 -1,1 -2,0 -1,1 -1,0 -1,1 -2,0 -1,1 -2,0 0,1 1,1 0,2 1,1 0,2 1,1 0,1 1,1 0,1 1,1 0,1 1,1 0,2 1,1 0,1 1,1 0,1 1,1 0,2 1,1 0,1 1,1 0,1 1,1 0,2 1,1 0,2 1,1 0,1 1,1 0,1 1,1 0,1 1,1 0,1 1,1 0,2 1,1 0,2 1,1 0,1 1,1 0,3 1,1 0,1 1,0 1,1 2,0 1,-1 2,0 1,-1 2,0 1,-1 1,0 1,-1 1,-1 1,0 1,-1 1,-1 1,-1 1,-1 1,-1 1,0 1,-1 1,0 1,-1 1,0 1,-1 1,0 1,-1 -1,-1 0,-2 -1,-1 0,-3 -1,-1 0,-3 -1,-1 0,-3 -1,-1 0,-3 -1,-1 0,-3 -1,-1 0,-4 -1,-1 0,-6 -1,-1 0,-4 -1,-1Z"/>
<path onmouseover="hoverPath(evt)" onmouseout="recoverPath(evt)" fill="rgb(171,198,238)" d="M  94,189l 0,15 1,1 1,1 34,0 1,-1 2,0 0,-1 1,-1 0,-3 -1,-1 0,-12 -11,0 -1,1 -26,0 -1,1Z"/>
<path onmouseover="hoverPath(evt)" onmouseout="recoverPath(evt)" fill="rgb(187,207,234)" d="M  100,0l -39,0 0,1 1,1 0,8 1,1 0,3 1,1 0,4 2,0 1,-1 2,0 1,-1 1,-1 3,0 1,-1 1,0 1,-1 3,0 1,-1 2,0 1,-1 2,0 1,-1 4,0 1,-1 1,0 1,-1 2,0 1,-1 3,0 1,-1 1,-1 2,0 1,-1 2,0 1,-1 1,0 1,-1 2,0 1,-1 2,0 1,-1 1,0 1,-1Z"/>
<path onmouseover="hoverPath(evt)" onmouseout="recoverPath(evt)" fill="rgb(244,243,237)" d="M  109,33l 0,4 1,1 0,5 1,1 0,4 1,1 0,2 1,1 0,2 1,-3 2,0 1,-1 0,-4 1,-1 1,0 1,-1 4,0 0,-1 -1,-1 0,-3 1,-1 0,-3 -1,-1 0,-2 -1,-1 0,-1 -3,0 -1,1 -3,0 -1,1 -4,0 -1,1Z"/>
<path onmouseover="hoverPath(evt)" onmouseout="recoverPath(evt)" fill="rgb(244,242,235)" d="M  125,69l 0,0 -1,1 0,4 1,1 0,4 1,1 0,4 1,1 0,7 1,1 0,5 1,1 0,3 1,1 0,3 1,1 0,3 1,1 0,5 1,1 0,7 1,1 0,2 5,0 1,-1 3,0 1,-1 4,0 1,-1 3,0 1,-1 4,0 1,-1 2,0 0,-1 1,-1 0,-1 -1,-1 0,-8 1,-1 0,-5 -2,0 -1,-1 0,-5 -1,-1 0,-8 1,-1 0,-5 -2,0 -1,-1 0,-6 -1,-1 0,-1 -1,-1 0,-3 -1,-1 0,-6 -1,-1 0,-4 -1,1 -2,0 -1,1 -1,0 -1,1 -2,0 -1,1 -1,0 -1,1 -2,0 -1,1 -1,0 -1,1 -2,0 -1,1 -2,0 -1,1 -1,0 -1,1 -1,0 -1,1Z"/>
<path onmouseover="hoverPath(evt)" onmouseout="recoverPath(evt)" fill="rgb(241,241,237)" d="M  136,205l 1,0 0,-1 1,-1 0,-3 -1,-1 0,-5 -1,-1 0,-3 -1,-1 0,-4 1,-1 0,-8 1,-1 0,-1 -2,3 -2,0 0,1 -1,1 1,1 0,4 -1,1 2,0 2,20 -1,-15 0,8 1,1 0,5 -1,1 0,1 -1,1 -2,0 -1,1 1,0 -1,1 -1,-1 -35,0 -1,-1 -1,-1 -1,-1 0,-18 1,-1 -1,0 -1,-1 0,-11 3,12 26,0 -29,19 -8,0 7,1 1,0 1,1 0,1 2,0 -2,-2 38,3 5,-19 1,15Z"/>
<path onmouseover="hoverPath(evt)" onmouseout="recoverPath(evt)" fill="rgb(244,243,236)" d="M  137,133l 0,2 1,1 0,2 1,1 0,2 1,1 0,2 1,1 0,3 1,1 0,3 1,1 0,1 1,1 0,1 1,1 0,1 1,1 0,1 1,1 0,11 -1,1 0,4 -1,1 0,12 1,1 0,18 1,1 1,1 9,0 1,-1 4,0 1,1 3,0 1,-1 10,0 1,-1 5,0 1,-1 6,0 0,-1 1,-1 0,-1 -1,-1 0,-3 -1,4 0,0 -1,1 -7,0 -1,1 -4,0 -1,-1 -1,-1 0,-6 -1,-1 0,-7 -1,-1 0,-9 1,-1 2,0 1,-1 11,0 1,1 0,-2 1,-1 4,0 1,-1 7,0 1,-1 5,0 1,-1 4,0 0,-10 1,-1 2,0 0,-1 1,-1 0,-2 -2,0 -1,-1 0,-5 1,-1 0,-2 1,-1 0,-1 -1,-1 0,-1 -2,0 -1,-1 0,-3 -1,-1 0,-9 1,-1 0,-3 -1,-1 0,-2 -1,3 0,0 -1,1 -2,0 -1,1 -5,0 -1,1 -4,0 0,2 -1,1 -6,0 -1,-1 -1,0 -1,1 0,0 -1,1 -2,0 -1,1 -3,0 0,2 -1,1 -4,0 -1,-1 -6,0 -1,-1 0,-5 -2,0 -1,-1 0,-5 -4,0 -1,-1 -3,0 -1,1 -3,0 -1,1 -4,0 -1,1 -3,0 0,2 -1,1 -4,0 1,1 0,1 74,14 1,0 1,1 0,3 -1,1 -3,0 -1,1 -3,0 -1,1 -3,0 -1,1 -4,0 -1,1 -3,0 -1,1 -3,0 -1,1 -2,0 -1,1 -3,0 -1,1 -2,0 -1,1 -5,0 -1,-1 -1,0 -1,-1 -1,-1 0,-2 1,-1 5,0 1,-1 2,0 1,-1 2,0 1,-1 1,0 1,-1 1,0 1,-1 1,-1 3,0 1,1 1,0 1,-1 5,0 1,-1 10,0 1,-1 2,0 -74,-14Z"/>
<path onmouseover="hoverPath(evt)" onmouseout="recoverPath(evt)" fill="rgb(242,242,237)" d="M  166,241l 0,2 -1,1 -2,0 -1,-1 0,-1 -1,-1 -6,0 -1,1 -12,0 -1,1 -4,0 0,8 1,1 6,0 1,-1 6,0 1,-1 9,0 1,1 4,0 1,1 0,3 26,0 0,-3 -1,-1 0,-1 -1,-1 0,-1 -1,-1 0,-2 -1,-1 0,-4 -1,-1 0,-2 -8,0 -1,1 -4,0 -1,1 -4,0 -1,1 -2,0 -1,1Z"/>
<path onmouseover="hoverPath(evt)" onmouseout="recoverPath(evt)" fill="rgb(244,243,235)" d="M  208,1l 0,1 1,1 0,1 1,1 0,3 1,1 0,2 1,1 0,2 1,1 0,9 1,1 0,3 1,1 0,1 1,1 0,1 1,1 0,2 1,1 0,3 1,1 0,8 1,1 0,16 -1,1 0,9 1,1 3,0 1,-1 7,0 1,-1 5,0 0,-3 1,-1 0,-6 1,-1 2,0 0,-10 -1,-1 0,-4 1,-1 0,-3 1,-1 0,-1 1,-1 0,-3 1,-1 0,-2 1,-1 0,-2 1,-1 0,-2 1,-1 0,-2 1,-1 0,-2 1,-1 2,0 0,-4 1,-1 3,0 0,-3 -2,0 -1,-1 -1,0 -1,-1 -1,-1 -1,0 -1,1 -2,0 -1,-1 0,-1 -1,-1 -1,-1 -1,-1 -1,-1 -1,0 -1,-1 -1,-1 -1,-1 -1,0 -1,-1 0,-2 -25,0 -1,1Z"/>
<path onmouseover="hoverPath(evt)" onmouseout="recoverPath(evt)" fill="rgb(244,243,235)" d="M  248,189l 0,1 -1,1 -1,0 -1,1 -1,0 0,2 1,1 0,4 1,1 0,2 1,1 0,2 1,1 1,1 0,1 1,1 1,1 1,1 1,0 1,1 1,0 0,-50 -1,0 -1,-1 0,-1 -1,-1 -1,0 -1,1 -1,0 -1,1 -2,0 -1,1 -1,0 -1,1 -2,0 -1,1 -2,0 1,1 0,3 1,1 0,5 1,1 0,5 1,1 0,7 1,-1 4,0 1,1Z"/>
<path onmouseover="hoverPath(evt)" onmouseout="recoverPath(evt)" fill="rgb(176,201,238)" d="M  1,141l -1,0 0,4 4,0 1,-1 3,0 1,-1 3,0 1,-1 3,0 1,-1 2,0 1,-1 1,0 1,-1 1,-1 1,-1 1,-1 1,-1 1,0 2,-2 1,0 4,-4 1,0 1,-1 1,-1 1,-1 1,0 1,-1 1,-1 1,0 1,-1 1,-1 1,0 1,-1 0,-1 1,-1 2,0 1,1 0,4 1,1 0,2 1,1 0,2 1,1 0,2 1,1 0,2 1,1 3,0 1,1 0,2 -1,1 -1,1 0,2 1,0 1,-1 4,0 1,-1 0,-1 1,-1 1,-1 0,-1 1,-1 1,-1 0,-1 1,-1 0,-1 1,-1 1,-1 0,-1 1,-1 0,-1 1,-1 0,-1 1,-1 2,-2 1,-1 0,-1 1,-1 1,-1 5,-5 1,0 1,-1 1,-1 1,0 1,-1 1,0 1,-1 1,-1 0,-3 1,-1 2,0 1,1 0,4 1,1 0,12 4,0 1,-1 11,0 1,-1 10,0 0,-3 1,-1 2,0 1,1 0,5 1,1 0,4 1,0 1,-1 1,0 0,-1 -1,-1 0,-7 -1,-1 0,-5 -1,-1 0,-3 -1,-1 0,-3 -1,-1 0,-3 -1,-1 0,-5 -1,-1 0,-7 -1,-1 0,-4 -1,-1 0,-4 -1,-1 0,-6 1,-1 1,-1 1,-1 1,0 1,-1 1,0 1,-1 2,0 1,-1 2,0 1,-1 1,0 1,-1 2,0 1,-1 1,0 1,-1 2,0 1,-1 1,0 1,-1 2,0 1,-1 0,-2 -2,0 -1,1 -2,0 -1,1 -1,0 -1,1 -2,0 -1,1 -2,0 -1,-1 -1,1 -2,0 -1,1 -2,0 -1,1 -2,0 -1,1 -2,0 -1,1 -1,0 -1,1 -4,0 -1,-1 0,-1 -1,-1 0,-2 -1,-1 0,-1 -2,0 -1,-1 0,-2 -1,-1 0,-2 -1,-1 0,-4 -1,-1 0,-5 -1,-1 0,-6 -1,-1 0,-4 1,-1 0,-2 -1,-1 0,-2 -1,-1 0,-1 -1,-1 0,-4 1,-1 3,0 1,-1 1,-1 2,0 0,-2 -1,1 -2,0 -1,1 -2,0 -1,1 -2,0 -1,1 -1,1 -2,0 -1,1 -2,0 0,1 1,1 0,1 1,1 0,1 1,1 0,2 1,1 0,1 1,1 0,1 1,1 0,4 1,1 0,6 1,1 0,4 1,1 0,3 1,1 0,3 1,1 0,3 1,1 0,3 1,1 0,3 1,1 0,2 1,1 0,2 -1,1 -1,1 -1,0 -1,1 -1,0 -1,1 -1,0 -1,1 -1,0 -2,2 -1,1 -1,1 -1,1 -1,0 -1,1 -1,1 -1,0 -1,1 -2,0 -1,1 -2,0 -1,1 -4,0 -1,-1 -1,0 -1,-1 0,1 -1,1 1,1 0,2 -1,1 -2,2 -1,0 -1,1 -1,1 -1,0 -1,1 -1,1 -1,0 -1,1 -1,0 -2,2 -2,0 -1,-1 -1,-1 0,1 -1,1 -1,0 0,2 -1,1 -1,1 0,2 -1,1 -1,1 -1,0 -1,1 -1,1 -1,1 0,2 -1,1 -2,2 -1,1 -2,2 -1,1 -2,2 -1,1 -2,2 -1,0 -1,1 -1,0 -1,1 -1,1 -1,0 -1,1 -1,1 -1,0 -2,2 -1,0 -2,2 -1,1 -1,0 -1,1 -1,1 -1,1 -1,0 -1,1 -1,0 -1,1 -1,0 -1,1 -4,0 -1,1 -3,0 -1,1Z"/>
<path onmouseover="hoverPath(evt)" onmouseout="recoverPath(evt)" fill="rgb(244,243,237)" d="M  2,182l 0,1 1,1 0,6 1,1 0,1 4,0 1,-1 2,0 1,-1 1,0 1,-1 5,0 1,-1 1,0 0,-7 1,-1 1,0 1,-1 0,-7 -1,-1 -1,0 -1,1 -3,0 -1,1 -2,0 -1,1 -1,0 0,5 -1,1 -1,0 -1,1 -7,0 -1,1Z"/>
<path onmouseover="hoverPath(evt)" onmouseout="recoverPath(evt)" fill="rgb(176,200,237)" d="M  11,0l -11,0 0,5 1,0 1,-1 0,0 1,-1 1,0 1,-1 1,0 1,-1 2,0 1,1 0,2 -1,1 0,2 1,1 0,1 1,1 0,1 1,1 0,1 1,1 0,1 1,1 0,1 1,1 0,1 1,1 1,1 0,1 1,1 0,1 1,1 0,1 1,1 0,1 1,1 0,1 1,1 0,1 1,1 1,-1 2,0 1,-1 2,0 1,-1 2,0 1,-1 1,0 1,-1 3,0 1,-1 2,0 1,-1 2,0 1,-1 2,0 1,-1 2,0 1,-1 2,0 1,-1 2,0 1,-1 2,0 0,-2 -1,-1 0,-3 -1,-1 0,-3 -1,-1 0,-6 -1,-1 0,-3Z"/>
<path onmouseover="hoverPath(evt)" onmouseout="recoverPath(evt)" fill="rgb(245,244,237)" d="M  30,186l 0,0 1,1 6,0 1,1 5,0 1,1 1,0 1,1 3,0 1,1 11,0 1,-1 0,0 1,-1 1,-1 1,-1 0,-1 1,-1 1,-1 1,-1 0,-2 1,-1 0,-2 -1,-1 0,-1 -1,-1 0,-2 -1,-1 0,-2 -1,-1 0,-1 -1,-1 -2,-2 0,-2 -1,-1 0,-1 -1,-1 0,-2 -1,-1 0,-3 -1,-1 0,-4 -5,0 -1,-1 -2,0 0,2 -1,1 -5,0 -1,-1 -3,0 -1,1 -4,0 -1,1 -3,0 -1,1 -4,0 -1,1 -4,0 -1,1 -3,0 -1,1 -4,0 -1,1 -4,0 -1,1 -6,0 0,1 4,0 3,-1 2,0 3,-1 2,0 3,-1 1,0 3,-1 2,0 3,-1 2,0 3,-1 1,0 3,-1 2,0 1,1 0,3 1,1 0,5 1,1 0,4 1,1 0,5 1,1 0,2 1,1 0,1 2,0 1,1 0,3 -2,2 -8,0 -1,1 -4,0 -1,1Z"/>
<path onmouseover="hoverPath(evt)" onmouseout="recoverPath(evt)" fill="rgb(180,203,237)" d="M  58,32l 0,-2 -1,-1 0,-1 -1,2 -2,0 -1,-1 -1,0 -1,1 -2,0 -1,1 -2,0 -1,1 -2,0 -1,1 -2,0 -1,1 -2,0 -1,1 -2,0 -1,1 -2,0 -1,1 -2,0 -1,1 -2,0 -1,1 -2,0 -1,1 -2,0 -1,1 -1,1 -2,0 -1,1 -3,0 -1,1 -1,0 -1,1 -2,0 -1,1 -1,0 -1,1 -3,0 0,37 4,0 1,-1 2,0 1,-1 4,0 0,-2 1,-1 3,0 1,-1 6,0 1,1 0,3 1,0 1,-1 3,0 1,1 1,1 0,1 1,0 1,1 0,1 1,1 0,2 1,1 1,1 4,0 1,1 1,1 0,5 1,1 0,1 1,0 1,1 0,2 1,1 0,1 1,1 0,1 1,1 1,0 1,-1 0,0 1,-1 1,-1 1,-1 1,0 1,-1 0,-2 1,-1 1,-1 0,-2 1,-1 1,0 0,-1 1,-1 2,0 1,1 1,1 1,-1 0,0 1,-1 1,0 1,-1 1,0 2,-2 1,0 1,-1 1,-1 1,0 1,-1 1,-1 -1,-1 0,-2 1,-1 0,-2 1,-1 0,-2 -1,-1 0,-1 -1,-1 0,-2 -1,-1 0,-2 -1,-1 0,-1 -1,-1 0,-1 -1,-1 0,-1 -1,-1 0,-1 -1,-1 0,-2 -1,-1 0,-2 -1,-1 0,-1 -1,-1 0,-1 -1,-1 0,-2 -1,-1 0,-1 -1,-1 0,-1 -1,-1 0,-2 -1,-1 0,-1 -1,-1 0,-1 -1,-1 0,-1 -1,-1 0,-2 -1,-1Z"/>
<path onmouseover="hoverPath(evt)" onmouseout="recoverPath(evt)" fill="rgb(243,242,234)" d="M  83,118l -2,2 -1,1 -1,1 0,1 -2,2 -1,1 -1,1 0,1 -1,1 0,1 -1,1 0,1 -1,1 -1,1 0,1 -1,1 0,1 -1,1 -1,1 0,1 -1,1 -1,1 4,0 1,-1 4,0 1,-1 3,0 1,-1 2,0 1,-1 3,0 1,-1 4,0 1,-1 4,0 1,-1 4,0 1,-1 3,0 1,-1 4,0 1,-1 4,0 1,-1 4,0 1,-1 3,0 1,-1 2,0 0,-4 -1,-1 0,-5 -1,4 -10,0 -1,1 -11,0 -1,1 -6,0 -1,-1 0,-12 -1,-1 0,-4 -1,4 0,0 -1,1 -1,1 -1,0 -1,1 -1,0 -1,1 -1,1 -1,0 -2,2Z"/>
<path onmouseover="hoverPath(evt)" onmouseout="recoverPath(evt)" fill="rgb(236,238,235)" d="M  111,242l 0,5 1,1 7,0 1,-1 9,0 0,-2 -1,-1 0,-3 1,-1 -7,0 -1,1 -8,0 -1,1Z"/>
<path onmouseover="hoverPath(evt)" onmouseout="recoverPath(evt)" fill="rgb(241,240,229)" d="M  120,6l 0,0 -1,1 -2,0 -1,1 -2,0 0,2 6,0 1,-1 5,0 1,-1 4,0 1,1 0,3 1,1 0,3 1,1 0,2 1,1 0,3 1,1 0,2 1,1 0,2 1,1 0,4 4,0 1,-1 3,0 1,1 0,-8 -1,-1 0,-6 -1,-1 0,-6 -1,-1 0,-7 -1,-1 0,-3 -12,0 0,2 -1,1 -2,0 -1,1 -2,0 -1,1 -2,0 -1,1 -1,0 28,28 -1,1 0,5 1,1 0,5 -1,1 -1,0 -1,1 -2,0 -1,1 -2,0 -1,1 0,3 1,1 0,1 1,0 1,-1 1,0 1,-1 2,0 1,-1 3,0 0,-4 -1,-1 0,-5 -1,-8 -28,-28 28,34 -28,-34Z"/>
<path onmouseover="hoverPath(evt)" onmouseout="recoverPath(evt)" fill="rgb(254,254,254)" d="M  162,71l -5,0 -1,-1 0,-2 -1,-1 0,-6 -1,-1 0,-9 -1,-1 0,-7 -1,-1 0,-7 -1,-1 0,-6 -1,-1 0,-6 -1,-1 0,-6 -1,-1 0,-7 -1,-1 0,-5 -2,0 0,2 1,1 0,7 1,1 0,6 1,1 0,6 1,1 0,7 1,1 0,7 1,1 0,5 1,1 0,9 1,1 0,4 1,1 0,6 1,1 0,3 1,1 0,1 1,1 0,-1 1,-1 1,0 1,-1 1,0 1,-1Z"/>
<path onmouseover="hoverPath(evt)" onmouseout="recoverPath(evt)" fill="rgb(172,198,238)" d="M  184,233l -1,0 -1,1 -2,0 -1,1 -5,0 -1,1 -1,0 -1,1 -8,0 -1,1 -4,0 -1,1 -4,0 -1,1 1,0 5,-1 4,0 1,1 1,1 0,-1 1,-1 1,-1 2,0 16,-5 -8,3 2,0 2,-1 9,0 1,1 0,2 1,1 0,4 1,1 0,2 1,1 0,1 1,1 0,1 1,1 0,4 6,0 0,-1 -1,-1 0,-1 -1,-1 0,-2 -1,-1 0,-2 -1,-1 0,-2 -1,-1 0,-6 1,-1 1,-1 1,0 1,-1 3,0 1,-1 2,0 1,-1 2,0 1,-1 2,0 1,-1 2,0 1,-1 3,0 1,-1 2,0 1,-1 1,0 1,-1 2,0 1,-1 6,0 1,-1 1,0 1,-1 5,0 1,1 3,0 1,1 0,2 -1,1 -3,0 -1,1 -3,0 -1,1 -2,0 -1,1 -3,0 0,3 1,1 0,6 -1,1 -4,0 0,1 1,1 0,2 1,1 0,5 -1,1 -1,0 -1,1 -1,0 -1,1 -1,0 0,1 12,0 0,-3 -1,-1 0,-1 -1,-1 0,-5 -1,-1 0,-2 -57,-5 8,-3 50,5 1,-1 3,0 1,-1 2,0 1,-1 2,0 1,-1 3,0 1,-1 1,0 0,-1 1,-1 2,0 1,1 0,3 1,1 0,-22 -2,0 -1,-1 -1,0 -1,-1 -1,-1 -1,-1 -1,-1 0,-1 -1,-1 -1,-1 0,-2 -1,-1 0,-2 -1,-1 0,-4 -1,-1 0,-2 -1,0 -1,1 -1,0 0,12 1,1 0,6 -2,2 -1,0 -1,1 -1,0 -1,1 -1,0 -1,1 -1,0 -1,1 -1,0 -1,1 -1,0 -1,1 -4,0 -1,-1 0,-1 -1,-1 0,-5 -1,-1 0,-6 -1,-1 0,-3 -3,0 0,3 1,1 0,6 1,1 0,5 1,1 0,4 -1,1 -1,1 -2,0 -1,1 -2,0 -1,1 -2,0 -1,1 -2,0 -1,1 -2,0 -1,1 -5,0 -1,-1 -1,-1 0,-11 1,-1 0,-4 -1,0 0,4 -1,3 0,9 -1,1 0,1 -1,1 -1,0 -1,1 -3,0 -1,1 49,5 -50,-5Z"/>
<path onmouseover="hoverPath(evt)" onmouseout="recoverPath(evt)" fill="rgb(243,241,232)" d="M  190,87l 2,0 1,-1 3,0 1,-1 2,0 1,-1 2,0 1,-1 3,0 1,-1 3,0 1,-1 1,0 0,-1 1,-1 0,-4 -1,-1 0,-28 -1,-1 0,-1 -1,-1 -1,-1 -1,-1 -1,-1 -5,0 -1,1 -2,0 -1,1 -2,0 -1,1 -2,0 -1,1 -2,0 -1,1 -2,0 -1,1 -2,0 -1,1 -2,0 -1,1 -2,0 -1,1 -2,0 -1,1 -2,0 -1,1 -2,0 -1,1 -2,0 -1,1 -2,0 -1,1 -2,0 -1,1 -3,0 0,4 1,1 0,6 1,1 0,2 6,0 1,-1 3,0 1,-1 2,0 1,-1 3,0 1,-1 2,0 1,-1 3,0 1,-1 2,0 1,-1 3,0 1,-1 2,0 1,-1 2,0 0,-1 1,-1 0,-4 1,-1 3,0 1,1 0,2 -1,1 0,2 1,1 2,0 1,1 0,3 1,1 0,8 -1,1 0,2 -1,1 -1,1 -1,0 -1,1 -1,0 -1,1 -2,0 -1,1 -1,0 -1,1 -1,0 -1,1 -3,0 -1,-1 0,6 1,-1Z"/>
<path onmouseover="hoverPath(evt)" onmouseout="recoverPath(evt)" fill="rgb(171,198,238)" d="M  209,150l -10,0 -1,1 -5,0 -1,1 -3,0 -1,-1 -1,0 -1,1 -1,1 -1,0 -1,1 -1,0 -1,1 -2,0 -1,1 -2,0 -1,1 -5,0 1,1 1,0 1,1 3,0 1,-1 2,0 1,-1 3,0 1,-1 2,0 1,-1 3,0 1,-1 3,0 1,-1 4,0 1,-1 3,0 1,-1 3,0 2,-1 2,0 0,-1Z"/>
<path onmouseover="hoverPath(evt)" onmouseout="recoverPath(evt)" fill="rgb(176,201,238)" d="M  222,146l -1,0 -1,1 -1,0 -1,1 -1,0 0,1 1,0 1,-1 4,0 1,1 1,0 1,1 0,1 1,1 0,1 1,1 0,1 1,1 0,2 1,1 0,2 1,1 0,2 1,1 0,2 1,1 0,3 1,1 0,3 1,1 0,3 1,1 0,4 1,1 0,3 1,1 0,2 -1,1 2,0 1,-1 2,0 1,-1 1,0 1,-1 -1,0 -2,1 -1,0 -1,-1 0,-7 -1,-1 0,-5 -1,-1 0,-5 -1,-1 0,-3 -1,-1 0,-2 1,-1 2,0 1,-1 2,0 1,-1 1,0 1,-1 2,0 1,-1 1,0 1,-1 3,0 1,1 1,1 0,-22 -3,0 -1,1 -1,0 -1,1 -2,0 -1,1 -2,0 -1,1 -1,0 -1,1 -3,0 -1,1 -6,0 -1,-1 0,-1 -1,-1 0,-1 -1,-1 0,-2 -1,-1 0,-5 -1,-1 0,-2 -1,-1 0,-3 -1,-1 0,-5 -1,-1 0,-5 -1,-1 0,-3 -1,-1 0,-4 -2,0 0,4 1,1 0,5 1,1 0,4 1,1 0,5 1,1 0,5 1,1 0,4 1,1 0,8 -1,1 -1,1 -1,1Z"/>
<path onmouseover="hoverPath(evt)" onmouseout="recoverPath(evt)" fill="rgb(248,248,242)" d="M  245,0l -9,0 0,1 1,0 1,1 1,1 1,1 1,0 1,1 1,1 1,1 1,1 1,1 0,1 1,-1 3,0 1,1 1,1 1,0 1,1 1,0 0,-12Z"/>
<path onmouseover="hoverPath(evt)" onmouseout="recoverPath(evt)" fill="rgb(243,242,234)" d="M  255,25l 0,-6 -2,0 0,4 -1,1 -2,0 0,2 -1,1 0,2 -1,1 0,2 -1,1 0,2 -1,1 0,2 -1,1 0,3 -1,1 0,1 -1,1 0,3 -1,1 0,2 1,1 0,12 -1,1 -2,0 0,5 1,1 0,5 7,0 1,1 1,0 1,1 1,0 1,1 2,0Z"/>
<path onmouseover="hoverPath(evt)" onmouseout="recoverPath(evt)" fill="rgb(172,198,238)" d="M  0,163l 0,30 2,0 0,-1 -1,-1 0,-6 -1,-22 0,-1 1,-1 4,0 -5,1 0,1 6,-3 0,0 -6,3 2,16 7,0 1,-1 1,0 0,-5 1,-1 1,0 1,-1 2,0 1,-1 3,0 1,-1 3,0 1,1 1,1 0,7 2,0 1,1 9,0 1,-1 2,0 -1,-1 0,-2 -1,-1 0,-5 -1,-1 0,-4 -1,-1 0,-5 -1,-1 0,-3 -2,0 -1,1 -3,0 -1,1 -4,0 -1,1 -4,0 -1,1 -3,0 -1,1 -4,0 -1,1 -1,0 -7,19 -2,-16Z"/>
<path onmouseover="hoverPath(evt)" onmouseout="recoverPath(evt)" fill="rgb(243,243,235)" d="M  18,35l 0,0 1,-1 2,0 -1,-1 0,-1 -1,-1 0,-1 -1,-1 0,-1 -1,-1 0,-1 -1,-1 0,-1 -1,-1 0,-1 -1,-1 -1,-1 0,-1 -1,-1 0,-1 -1,-1 0,-1 -1,-1 0,-1 -1,-1 0,-1 -1,-1 0,-1 -1,-1 0,-4 1,-1 -2,1 0,0 -1,1 -1,0 -1,1 -1,1 -2,0 0,5 1,0 1,1 1,1 0,1 1,1 0,1 1,1 0,1 1,1 0,1 1,1 0,1 1,1 0,1 1,1 0,1 1,1 0,1 1,1 0,1 1,1 0,1 1,1 0,3 1,-1 2,0 1,-1Z"/>
<path onmouseover="hoverPath(evt)" onmouseout="recoverPath(evt)" fill="rgb(173,199,238)" d="M  92,172l 0,0 1,1 0,11 27,0 1,-1 10,0 0,-2 -1,-1 0,-2 1,-1 0,-1 1,-1 2,0 1,-1 0,-1 1,-1 0,-4 -13,0 -1,1 -16,0 0,12 -1,1 -2,0 -1,-1 0,-22 -3,0 -1,-1 0,-2 1,-1 3,0 0,-8 -1,0 -1,1 -4,0 -1,1 -5,0 -1,1 -2,0 -1,1 -4,0 -1,1 -4,0 -1,1 -4,0 -1,-1 -1,0 0,3 -1,1 0,1 1,1 0,1 1,1 0,1 1,1 1,1 0,1 1,1 1,1 0,1 1,1 1,1 3,0 1,1 0,1 3,0 1,-1 4,0 1,1 0,1Z"/>
<path onmouseover="hoverPath(evt)" onmouseout="recoverPath(evt)" fill="rgb(179,202,238)" d="M  93,211l 0,2 4,0 1,1 10,0 1,-1 22,0 1,1 0,22 -1,1 0,4 -1,1 0,1 1,1 0,5 1,1 0,5 33,0 0,-2 -4,0 -1,-1 -7,0 -1,1 -6,0 -1,1 -8,0 -1,-1 -1,-1 0,-10 1,-1 0,-1 -1,-1 0,-5 1,-1 0,-3 1,-1 0,-4 1,-1 0,-3 1,-1 1,-1 1,-1 1,-1 1,-1 1,0 1,-1 9,0 1,-1 13,0 1,-1 11,0 1,-1 5,0 1,-1 2,0 0,-1 -4,0 -1,1 -5,0 -1,1 -10,0 -1,1 -5,0 -1,-1 -2,0 -1,1 -11,0 -1,-1 -1,-1 -1,-1 0,-18 -1,-1 0,-14 1,-1 0,-4 1,-1 0,-9 -1,-1 0,-1 -1,-1 0,-1 -1,-1 0,-1 -1,-1 0,-1 -1,-1 0,-3 -1,-1 0,-3 -1,-1 0,-2 -1,-1 0,-2 -1,-1 0,-2 -1,-1 0,-3 -5,0 0,4 1,1 0,3 -1,1 -2,0 -1,-1 -6,0 -1,-1 0,-2 1,-1 5,0 0,-2 -5,0 -1,1 -4,0 -1,1 -4,0 -1,1 -4,0 -1,1 -3,0 -1,1 -4,0 -1,1 -4,0 -1,1 -4,0 -1,1 -2,0 -1,1 -3,0 -1,1 -3,0 -1,1 -4,0 -1,1 -4,0 0,2 1,1 0,2 1,1 0,-2 1,-1 3,0 1,1 2,0 1,-1 4,0 1,-1 4,0 1,-1 2,0 1,-1 5,0 1,-1 4,0 1,-1 3,0 1,1 0,10 -1,1 0,0 1,1 0,22 1,-13 16,0 1,-1 15,0 1,1 0,5 1,1 0,3 -1,1 0,8 -1,1 0,2 1,1 0,3 1,1 0,5 1,1 0,5 -1,1 0,1 -1,1 -1,0 -2,2 -1,0 -1,1 -1,1 -3,0 -1,-1 -34,0 -1,1 44,30 0,0 -44,-30Z"/>
<path onmouseover="hoverPath(evt)" onmouseout="recoverPath(evt)" fill="rgb(250,251,250)" d="M  108,135l -1,0 -1,1 -3,0 -1,1 -4,0 -1,1 -4,0 -1,1 -4,0 -1,1 -3,0 -1,1 -2,0 -1,1 -3,0 -1,1 -4,0 -1,1 -6,0 -1,1 -4,0 -1,1 -2,0 -1,1 5,0 1,-1 2,0 1,-1 4,0 39,-10 -24,6 1,0 3,-1 2,0 3,-1 2,0 3,-1 2,0 3,-1 1,0 3,-1 2,0 1,-1 4,0 1,-1 4,0 1,-1 7,0 1,1 0,-2 1,-1 5,0 0,-1 1,-1 -3,0 -1,1 -2,0 -1,1 -2,0 -1,1 -3,0 -38,9 24,-6 5,-1 -1,0 -3,1 19,1 0,2 -1,1 1,0 1,1Z"/>
<path onmouseover="hoverPath(evt)" onmouseout="recoverPath(evt)" fill="rgb(244,243,236)" d="M  123,238l 6,0 0,-2 1,-1 0,-20 -20,0 -1,1 -12,0 -1,-1 -4,0 -1,-1 -6,0 -1,-1 -2,0 -1,-1 -3,0 -1,-1 -3,0 -1,-1 -3,0 -1,-1 -2,0 -1,-1 -1,-1 0,2 1,1 0,8 1,1 1,1 0,7 1,1 0,4 -1,1 0,3 -1,1 -1,1 6,0 1,1 5,0 1,1 1,0 1,1 1,0 1,1 1,0 1,1 2,0 1,1 2,0 1,1 1,0 1,1 4,0 1,1 2,0 1,1 1,1 0,4 -1,1 0,1 29,0 0,-4 -1,-1 0,-1 -8,0 -1,1 -9,0 -1,-1 -1,-1 0,-7 1,-1 1,0 1,-1 8,0 1,-1 2,0 -32,-25 0,0 32,25Z"/>
<path onmouseover="hoverPath(evt)" onmouseout="recoverPath(evt)" fill="rgb(244,242,234)" d="M  143,219l 0,0 -1,1 -1,1 -1,1 0,3 -1,1 0,4 -1,1 0,3 -1,1 0,3 1,1 2,0 1,-1 10,0 1,-1 1,0 0,-2 1,-1 3,0 1,-1 3,0 1,-1 1,-1 2,0 1,-1 1,0 1,-1 5,0 1,1 4,0 1,-1 3,0 1,-1 1,0 1,-1 1,0 1,-1 1,0 0,-4 1,-1 0,-8 -1,0 -1,1 -5,0 -1,1 -11,0 -1,1 -13,0 -1,1 -9,0 -1,1 -1,0 -1,1Z"/>
<path onmouseover="hoverPath(evt)" onmouseout="recoverPath(evt)" fill="rgb(177,202,238)" d="M  156,51l 0,2 2,0 1,-1 2,0 1,-1 2,0 1,-1 2,0 1,-1 2,0 1,-1 2,0 1,-1 2,0 1,-1 2,0 1,-1 2,0 1,-1 2,0 1,-1 2,0 1,-1 2,0 1,-1 2,0 1,-1 2,0 1,-1 2,0 1,-1 7,0 1,1 1,1 1,1 1,1 1,1 0,1 1,1 0,28 1,1 0,6 -1,1 0,1 -1,1 -1,0 -1,1 -3,0 -1,1 -3,0 -1,1 -2,0 -1,1 -2,0 -1,1 -3,0 -1,1 -4,0 1,1 0,0 1,1 1,1 1,-1 4,0 1,1 1,0 1,1 0,1 6,0 1,-1 1,0 1,-1 2,0 1,-1 4,0 1,1 0,2 1,1 0,2 2,0 0,-6 -1,-1 0,-10 1,-1 16,0 0,-3 -3,0 -1,1 -7,0 -1,1 -5,0 -1,-1 -1,-1 0,-11 1,-1 0,-14 -1,-1 0,-8 -1,-1 0,-3 -1,-1 0,-2 -1,-1 0,-1 -1,-1 0,-1 -1,-1 0,-3 -1,-1 0,-9 -1,-1 0,-2 -1,-1 0,-2 -1,-1 0,-3 -1,-1 0,-1 -1,-1 0,-3 -57,0 0,4 1,1 0,4 5,0 1,-1 4,0 1,-1 5,0 1,-1 8,0 1,1 1,0 1,1 0,3 1,1 0,1 3,0 1,-1 3,0 1,-1 3,0 1,-1 3,0 1,-1 4,0 1,1 1,0 1,1 0,2 3,0 1,1 0,2 1,1 1,1 0,5 1,1 0,2 -1,1 0,1 -1,1 0,1 -2,2 -1,0 -1,1 -1,1 -1,0 -1,1 -2,0 -1,1 -2,0 -1,1 -1,0 -1,1 -2,0 -1,1 -2,0 -1,1 -3,0 -1,-1 0,-3 -1,-1 0,-1 -2,0 -1,-1 0,-2 -1,-1 0,-2 -1,-1 0,-1 -3,0 -1,1 -3,0 -1,1 -3,0 -1,1 -3,0 -1,1 -3,0 -1,1 -3,0 0,2 1,1 0,7 1,1 0,7 1,1Z"/>
<path onmouseover="hoverPath(evt)" onmouseout="recoverPath(evt)" fill="rgb(243,242,234)" d="M  163,98l -1,0 0,4 1,1 0,7 -1,1 0,6 1,1 0,3 -1,1 0,1 -1,1 2,0 1,1 0,5 2,0 1,1 0,5 6,0 1,1 2,0 0,-2 1,-1 3,0 1,-1 2,0 1,-1 1,-1 3,0 1,1 4,0 0,-2 1,-1 4,0 1,-1 5,0 1,-1 2,0 1,-1 0,-2 1,-1 2,0 1,1 0,2 1,1 0,5 -1,1 0,7 1,1 0,3 2,0 1,1 0,1 1,0 1,-1 1,0 1,-1 1,0 1,-1 1,-1 0,-6 -1,-1 0,-4 -1,-1 0,-5 -1,-1 0,-5 -1,-1 0,-4 -1,-1 0,-5 -1,-1 0,-6 1,-1 3,0 1,-1 15,0 1,-1 1,-1 0,-7 -1,-1 0,-6 1,-1 0,-10 -1,4 0,4 -1,1 -16,0 0,8 1,1 0,8 -1,1 -4,0 -1,-1 0,-2 -1,-1 0,-2 -2,0 -1,1 -2,0 -1,1 -1,0 -1,1 -8,0 -1,-1 0,-1 -1,0 -1,-1 -2,0 -1,1 -2,0 -1,-1 -1,-1 -1,-1 -1,-1 -1,0 -1,-1 0,4 -1,1 -3,0 -1,1 -3,0 -1,1 -4,0 -1,1 -3,0 -1,1 -4,0 22,-11 0,-4 -1,1 0,2 1,1 -22,11Z"/>
<path onmouseover="hoverPath(evt)" onmouseout="recoverPath(evt)" fill="rgb(172,198,238)" d="M  179,27l 0,2 1,1 0,2 1,0 0,-1 1,-1 2,0 1,-1 4,0 1,-1 3,0 1,-1 3,0 1,-1 3,0 1,-1 2,0 0,-1 -4,0 -1,-1 0,-2 1,-1 4,0 -2,-1 -1,0 -1,-1 0,-6 -1,0 -1,-1 -2,0 -1,1 -3,0 -1,1 -3,0 -1,1 -3,0 -1,1 -5,0 -1,-1 0,-1 -1,-1 0,-3 -1,0 -1,-1 -6,0 -1,1 -5,0 -1,1 -4,0 -1,1 -6,0 0,1 1,1 0,6 1,1 0,6 1,1 0,2 2,0 1,-1 3,0 1,-1 3,0 1,-1 3,0 1,-1 3,0 1,-1 5,0 1,1 0,1 1,1Z"/>
<path onmouseover="hoverPath(evt)" onmouseout="recoverPath(evt)" fill="rgb(174,199,238)" d="M  199,178l -4,0 -1,1 -4,0 0,8 -1,1 -2,0 -1,-1 0,-6 -9,0 -1,1 -2,0 0,7 1,1 0,7 1,1 0,6 1,1 2,0 1,-1 7,0 1,-1 0,-3 1,-1 2,0 1,1 0,3 1,-1 1,0 1,-1 3,0 1,-1 2,0 1,-1 1,0 1,-1 2,0 1,-1 2,0 1,-1 1,0 1,-1 3,0 0,-1 -1,-1 0,-1 -1,-1 0,-6 -1,-1 0,-3 -1,-1 0,-4 -2,0 -1,1 -5,0 -1,1Z"/>
<path onmouseover="hoverPath(evt)" onmouseout="recoverPath(evt)" fill="rgb(244,243,237)" d="M  203,15l -1,0 0,2 1,0 1,1 1,0 1,1 0,2 -1,1 -4,0 5,1 0,3 -1,1 1,0 -1,1 -1,-1 -1,0 -1,1 -3,0 -1,1 -3,0 -1,1 -3,0 -1,1 -4,0 -1,1 -2,0 0,2 1,1 0,3 1,0 1,-1 2,0 1,-1 2,0 1,-1 1,0 1,-1 2,0 1,-1 2,0 1,-1 1,0 1,-1 1,-1 1,0 1,-1 -2,-14 4,10 -1,-3 -2,-5 0,-2 3,10 -4,-10Z"/>
<path onmouseover="hoverPath(evt)" onmouseout="recoverPath(evt)" fill="rgb(252,251,250)" d="M  217,195l 0,1 -1,1 2,0 1,-1 2,0 1,-1 -3,0 -1,-1 -1,1 -3,3 0,0 -1,-1 0,0 -1,1 -1,0 -1,1 -2,0 -1,1 -2,0 -1,1 -1,0 -1,1 -2,0 -1,1 -3,0 -1,1 -1,0 -1,1 0,2 -1,1 0,1 -1,1 0,12 -1,1 0,4 -1,1 -1,0 -1,1 -1,0 -1,1 -1,0 -1,1 -3,0 -1,1 -6,0 -1,-1 -3,0 -1,1 -1,0 -1,1 -2,0 -1,1 -1,1 -3,0 -1,1 -3,0 0,1 1,0 3,-1 2,0 2,-1 7,0 1,-1 1,0 1,-1 5,0 36,-35 3,-3 -37,37 1,0 3,-1 2,-1 2,0 1,-1 1,0 0,-1 1,-1 0,-4 -3,6 4,-12 0,-7 1,-2 1,-3 2,-1 1,0 3,-1 1,0 2,-1 1,0 1,-1 1,0 2,-1 1,0 4,-2 3,-7 0,-4 -1,-1 0,-4 -1,-1 0,-16 -1,11 0,3 1,3 0,1 1,4Z"/>
<path onmouseover="hoverPath(evt)" onmouseout="recoverPath(evt)" fill="rgb(243,242,234)" d="M  219,151l -3,0 0,2 -1,1 0,3 2,0 1,1 0,4 -1,1 0,1 -1,1 0,15 1,1 0,4 1,1 0,4 1,1 0,1 1,1 6,0 1,1 0,2 -1,1 -3,0 -1,1 -2,0 -1,1 -2,0 -1,1 -3,0 -1,1 -1,0 -1,1 -2,0 -1,1 -1,0 -1,1 -2,0 -1,1 -3,0 -1,1 -2,0 -1,1 0,2 -1,1 2,0 1,1 0,6 -1,1 0,9 1,1 3,0 1,-1 2,0 1,-1 2,0 1,-1 2,0 1,-1 2,0 1,-1 2,0 1,-1 0,-2 -1,-1 0,-5 -1,-1 0,-6 -1,-1 0,-5 6,-50 -2,49 2,0 1,1 0,3 1,1 0,6 1,1 0,5 1,1 0,1 2,0 1,-1 1,0 1,-1 1,0 1,-1 1,0 1,-1 1,0 1,-1 1,0 1,-1 1,0 1,-1 0,-4 -1,-1 0,-13 -3,0 -1,-1 0,-2 1,-1 2,0 -1,-1 0,-3 -1,-1 0,-4 -1,-1 0,-3 -1,-1 0,-3 -1,-1 0,-3 -1,-1 0,-2 -1,-1 0,-2 -1,-1 0,-2 -1,-1 0,-2 -1,-1 0,-1 -1,-1 0,-1 -1,-1 0,-1 -1,0 -1,-1 -2,0 -3,50 2,-49Z"/>
<path onmouseover="hoverPath(evt)" onmouseout="recoverPath(evt)" fill="rgb(241,241,236)" d="M  223,103l 0,2 1,1 0,3 1,1 0,5 1,1 0,5 1,1 0,3 1,1 0,2 1,1 0,5 1,1 0,2 1,1 0,1 1,1 0,1 4,0 1,-1 3,0 1,-1 1,0 1,-1 2,0 1,-1 2,0 1,-1 1,0 1,-1 4,0 0,-54 -3,0 -1,-1 -1,0 -1,-1 -1,0 -1,-1 -6,0 0,5 -1,1 0,4 1,1 0,9 -1,1 -1,1 -1,1 -15,0Z"/>
</svg>