<svg width="256" height="256" xmlns="http://www.w3.org/2000/svg"><script> 
var tempColor;
function hoverPath(evt){
obj = evt.target;
tempColor = obj.getAttribute("fill");
obj.setAttribute("fill","red");
//alert(tempColor);
//obj.setAttribute("stroke","red");}
function recoverPath(evt){
obj = evt.target;
obj.setAttribute("fill", tempColor);
//obj.setAttribute("stroke", tempColor);
}</script><path onmouseover="hoverPath(evt)" onmouseout="recoverPath(evt)" fill="rgb(253,253,253)" d="M  1,10l 25,0 1,1 0,53 -1,1 21,0 1,-1 26,0 1,-1 31,0 1,-1 34,0 1,-1 27,0 0,-1 -20,0 -8,1 -1,-1 -4,0 -1,1 -8,0 -1,-1 0,-1 -1,-1 0,-5 1,-1 0,-42 1,-1 0,-5 -1,-1 0,-3 -1,0 0,4 -1,1 -1,0 -1,1 -24,0 -1,1 -34,0 -1,1 -32,0 -1,-1 -1,-1 0,-6 -3,0 0,8 -1,1 -22,0 -1,1 31,-1 35,0 1,1 1,-1 1,0 1,-1 7,0 1,1 1,1 1,0 0,-1 1,-1 19,0 1,-1 22,0 1,1 0,39 -1,1 0,12 -1,1 -1,0 -90,-52 -31,1 29,0 -1,1 -1,1 0,50 1,1 0,1 2,-54 -30,0 105,52 -17,0 -15,1 -8,0 -19,1 -4,0 -18,1 -6,0 -19,-56 0,1 106,52 -105,-52Z"/>
<path onmouseover="hoverPath(evt)" onmouseout="recoverPath(evt)" fill="rgb(254,243,141)" d="M  0,68l 0,6 25,0 1,-1 40,0 1,-1 27,0 1,-1 31,0 1,-1 28,0 1,-1 29,0 1,-1 27,0 1,-1 41,0 0,-7 -5,0 -1,1 -38,0 -1,1 -37,0 -1,1 -29,0 -1,1 -34,0 -1,1 -31,0 -1,1 -26,0 -1,1 -30,0 -1,-1 -3,0 -1,-1 0,-1 -13,0Z"/>
<path onmouseover="hoverPath(evt)" onmouseout="recoverPath(evt)" fill="rgb(243,242,233)" d="M  0,146l 0,46 5,0 1,1 1,0 1,1 1,-1 0,0 1,-1 4,0 1,1 3,0 1,-1 0,-4 1,-1 1,-1 3,0 1,1 0,7 1,-1 0,-47 -1,-1 0,-1 -1,-1 -8,0 -1,1 -15,0 0,2 24,49 0,6 1,-1 0,-4 -1,-1 -24,-49Z"/>
<path onmouseover="hoverPath(evt)" onmouseout="recoverPath(evt)" fill="rgb(243,242,235)" d="M  0,212l 0,32 4,0 1,1 4,0 1,1 1,0 1,1 1,0 1,1 1,0 1,1 1,1 0,1 1,1 0,1 1,1 0,1 5,0 0,-3 1,-1 0,-2 -2,0 -1,-1 -2,0 -1,-1 -1,0 -1,-1 -2,0 -1,-1 -1,0 -1,-1 -1,-1 0,-3 1,-1 0,-2 1,-1 0,-1 1,-1 4,0 1,1 0,2 1,1 1,1 1,0 1,1 1,0 1,1 1,0 0,-2 2,-2 2,0 1,-1 0,-1 1,-1 0,-1 1,-1 0,-2 1,-1 1,-1 1,-1 0,-1 1,-1 0,-1 1,-1 0,-1 1,-1 0,-1 1,-1 0,-2 1,-1 0,-1 1,-1 0,-1 1,-1 0,-1 1,-1 0,-1 1,-1 1,-1 0,-1 1,-1 0,-1 1,-1 0,-1 1,-1 0,-2 1,-1 0,-1 1,-1 0,-2 1,-1 0,-2 1,-1 0,-1 1,-1 0,-2 1,-1 0,-2 -3,0 -1,1 0,0 -1,1 -1,1 0,1 -1,1 -1,1 -1,1 -1,1 -1,1 -2,0 -1,-1 -1,-1 0,-2 1,-1 0,-1 1,-1 -3,5 0,1 -1,1 -1,1 0,1 -1,1 0,1 -1,1 -1,1 0,1 -1,1 -1,1 -2,0 0,4 -1,1 -2,0 -1,1 -1,0 -1,1 -3,0 -1,1 -20,0Z"/>
<path onmouseover="hoverPath(evt)" onmouseout="recoverPath(evt)" fill="rgb(241,240,231)" d="M  30,14l 0,47 1,1 0,1 10,0 1,-1 22,0 1,-1 22,0 1,-1 32,0 1,-1 1,0 0,-12 1,-1 0,-37 -20,0 -1,1 -19,0 0,1 -1,1 -3,0 -1,-1 -1,-1 -5,0 -1,1 -1,0 0,9 -1,1 -2,0 -1,-1 0,-9 -33,0 -1,1 -1,0 -1,1Z"/>
<path onmouseover="hoverPath(evt)" onmouseout="recoverPath(evt)" fill="rgb(171,198,238)" d="M  54,244l -1,0 -1,1 0,4 1,1 3,0 1,1 6,0 1,1 2,0 1,1 0,2 14,0 0,-11 -1,-1 0,-1 -10,0 -1,1 -14,0 -1,1Z"/>
<path onmouseover="hoverPath(evt)" onmouseout="recoverPath(evt)" fill="rgb(176,201,237)" d="M  67,122l 0,0 -1,-1 -1,-1 0,-2 1,-1 2,0 1,1 14,0 1,-1 3,0 0,-19 -1,0 -1,-1 -4,0 -1,-1 0,-2 1,-1 4,0 0,-5 -1,-1 0,-2 1,-1 0,-1 -12,0 -1,-1 -3,0 -1,1 -4,0 -1,1 -3,0 -1,1 -1,1 -2,0 -1,1 -2,0 0,1 -1,1 0,1 -1,1 1,1 0,3 1,1 0,1 1,1 0,2 1,1 0,2 1,1 0,1 1,1 0,1 1,1 0,1 1,1 0,1 1,1 0,3 -1,1 -2,0 -1,-1 -1,-1 0,-1 -1,-1 -1,-1 0,-1 -1,-1 -1,-1 0,-1 -1,-1 0,-1 -1,-1 0,-1 -1,0 -1,-1 0,-8 -1,-1 0,-4 -1,-1 0,-1 -1,-1 -2,0 -1,-1 -8,0 -1,-1 0,-2 1,-1 8,0 1,-1 8,0 1,-1 4,0 1,-1 -25,0 0,2 -1,1 0,4 1,1 0,23 -1,1 0,3 1,1 0,24 1,1 0,3 -1,1 0,5 1,0 1,1 1,1 0,1 1,0 1,1 1,0 0,-1 -1,-1 0,-1 -2,-2 0,-3 2,-2 2,0 1,-1 0,-1 1,-1 0,-2 -1,-1 0,-1 -1,-1 0,-1 -1,-1 0,-1 -1,-1 0,-2 -1,-1 0,-3 1,-1 1,-1 1,-1 0,-3 1,-1 2,0 1,1 1,1 0,1 1,1 0,1 1,1 0,1 1,1 0,1 1,0 1,1 0,1 1,1 0,1 1,1 0,1 1,1 0,1 1,1 0,1 1,1 0,1 1,1 0,1 1,1 0,1 1,1 1,1 0,2 1,1 1,1 0,1 1,1 3,0 1,-1 2,0 0,-1 1,-1 1,0 1,-1 3,0 0,-3 1,-1 1,-1 3,0 1,-1 6,0 1,-1 2,0 0,-7 -1,-1 0,-9 -6,0 -1,1 -1,0 -1,1 -2,0 -1,-1 -2,0 -1,-1Z"/>
<path onmouseover="hoverPath(evt)" onmouseout="recoverPath(evt)" fill="rgb(171,198,237)" d="M  67,206l 0,1 -1,1 0,2 -1,1 0,1 -1,1 0,1 -1,1 0,2 -1,1 0,1 -1,1 0,1 -1,1 -1,1 0,1 -1,1 0,1 -1,1 0,1 -1,1 0,1 -1,1 0,1 -1,1 0,1 -1,1 0,1 -1,1 0,1 1,1 15,0 1,-1 10,0 0,-18 -1,-1 0,-12 -1,-1 -1,-1 -8,0 -1,1Z"/>
<path onmouseover="hoverPath(evt)" onmouseout="recoverPath(evt)" fill="rgb(247,247,242)" d="M  75,158l 0,0 -1,1 -1,1 0,1 -1,1 0,20 -1,1 0,3 -1,1 0,3 -1,1 0,1 -1,1 0,2 -1,1 0,1 -1,1 0,2 -1,1 0,1 -1,1 0,1 -1,1 0,2 -1,1 0,1 -1,1 0,2 -1,1 0,1 -1,1 0,1 -1,1 0,1 -1,1 0,1 -1,1 0,1 -1,1 0,1 -1,1 0,1 -1,1 0,1 -1,1 0,1 -1,1 0,1 -1,1 0,1 -1,1 0,1 -1,1 0,1 -1,1 0,1 -1,1 0,1 -1,1 -1,1 0,1 -1,1 0,1 -1,1 0,1 -1,1 0,1 -1,1 0,1 -1,1 0,1 2,0 0,-3 1,-1 0,-1 1,-1 1,-1 0,-1 1,-1 2,0 -1,-1 0,-2 1,-1 0,-1 1,-1 0,-1 1,-1 1,0 0,-2 1,-1 0,-1 1,-1 0,-1 1,-1 0,-1 1,-1 0,-1 1,-1 0,-1 1,-1 0,-1 1,-1 0,-1 1,-1 1,-1 0,-1 1,-1 0,-1 1,-1 0,-2 1,-1 0,-1 1,-1 0,-1 1,-1 0,-2 1,-1 0,-1 1,-1 0,-3 1,-1 2,0 -1,-1 0,-3 1,-1 0,-1 1,-1 2,0 -1,-1 0,-4 1,-1 0,-4 1,-1 0,-12 1,-1 0,-6 1,-1 0,-1 2,-2 2,0 1,-1 37,0 1,1 5,0 1,-1 4,0 1,1 6,0 1,-1 3,0 1,1 0,1 62,0 1,1 18,0 0,-1 1,-1 14,0 1,-1 5,0 1,1 1,0 0,-3 -35,0 -1,1 -6,0 -1,-1 -10,0 -1,1 -15,0 -1,-1 -33,0 -1,-1 0,-2 -1,-1 0,-1 -7,0 0,1 -1,1 -4,0 0,2 -1,1 -31,0 -1,1 -2,0 -1,-1 -12,0 -1,1 -2,0 -1,1Z"/>
<path onmouseover="hoverPath(evt)" onmouseout="recoverPath(evt)" fill="rgb(171,198,238)" d="M  121,230l -1,0 0,1 -1,1 -1,1 0,1 -1,1 -1,1 0,3 1,1 0,5 -1,1 0,2 -1,1 0,3 1,1 0,2 62,0 -1,-1 0,-1 -2,0 -1,-1 0,-2 1,-1 1,-1 1,0 1,-1 2,0 1,-1 1,0 0,-1 1,-1 0,-1 1,-1 1,-1 0,-1 -1,-1 -1,0 -1,-1 -1,-1 -1,-1 -1,-1 -1,0 -1,-1 -1,-1 -1,-1 -1,-1 -1,0 -1,-1 -1,-1 -1,-1 -1,-1 -1,-1 0,-1 -1,0 -1,-1 -1,0 -1,-1 -3,0 -1,1 -1,0 -1,1 -2,0 -1,1 -8,0 -1,1 -11,0 -1,1 -10,0 -1,1 -1,0 -1,1Z"/>
<path onmouseover="hoverPath(evt)" onmouseout="recoverPath(evt)" fill="rgb(178,202,237)" d="M  142,152l 0,2 10,0 -3,-1 0,-6 -1,-1 0,-19 -1,-1 0,-16 1,-1 0,-2 1,-1 0,-2 1,-1 0,-1 1,-1 0,-14 1,-1 0,-4 1,-1 0,-3 1,-1 0,-3 -3,0 -1,1 -22,0 -1,1 -1,0 0,1 -1,1 0,3 -1,1 0,2 -1,1 8,0 1,1 0,3 1,1 0,11 -1,1 0,3 3,0 1,1 6,0 1,1 0,12 -1,1 -10,0 0,1 -1,1 -14,0 0,3 -1,1 -2,0 -1,-1 0,-3 -17,0 0,10 -1,1 -2,0 -1,-1 0,-10 -2,0 0,9 -1,1 0,8 -1,1 -2,0 -1,1 -6,0 -1,1 -3,0 -1,1 0,3 -1,1 -3,0 -1,1 -1,0 0,1 6,-2 6,0 1,-1 5,0 1,1 1,1 0,5 4,0 1,1 1,-1 31,0 0,-2 1,-1 4,0 0,-1 1,-1 9,0 1,1 0,1 1,1Z"/>
<path onmouseover="hoverPath(evt)" onmouseout="recoverPath(evt)" fill="rgb(242,241,233)" d="M  150,130l 0,15 1,1 0,6 2,0 1,1 0,1 2,0 0,-1 1,-1 15,0 -2,-1 -2,0 -1,-1 0,-7 -1,-1 0,-17 -1,-1 0,-15 1,-1 3,0 1,1 0,12 1,1 0,5 12,0 1,-1 15,0 1,-1 1,0 1,-1 0,-3 -1,-1 0,-18 -1,-1 0,-19 -1,-1 0,-8 -1,0 -1,-1 -6,0 -1,1 -28,0 -1,1 -5,0 0,4 -1,1 0,3 -1,1 0,4 -1,1 0,14 -1,1 0,1 -1,1 0,2 -1,1 0,2 -1,1 0,14 1,1Z"/>
<path onmouseover="hoverPath(evt)" onmouseout="recoverPath(evt)" fill="rgb(241,241,234)" d="M  172,133l -1,0 0,6 1,1 0,10 1,0 1,1 0,2 -1,1 2,0 1,1 13,0 1,-1 12,0 1,1 4,0 1,-1 37,0 1,1 0,33 1,0 1,1 7,0 0,-118 -31,0 -1,1 -18,0 0,1 -1,1 0,4 1,1 0,18 1,1 0,18 1,1 0,20 1,1 0,8 -1,1 -3,0 -1,-1 0,-4 -1,-1 0,-10 -15,0 -1,1 -13,0 -1,1Z"/>
<path onmouseover="hoverPath(evt)" onmouseout="recoverPath(evt)" fill="rgb(245,244,237)" d="M  229,246l -1,0 0,1 -1,1 0,3 -1,1 0,3 13,0 0,-9Z"/>
<path onmouseover="hoverPath(evt)" onmouseout="recoverPath(evt)" fill="rgb(242,240,230)" d="M  230,39l -1,1 0,9 1,1 0,6 1,1 3,0 1,-1 20,0 0,-19 -11,0 -1,1 -12,0 -1,1Z"/>
<path onmouseover="hoverPath(evt)" onmouseout="recoverPath(evt)" fill="rgb(244,243,236)" d="M  246,202l -1,0 0,38 -1,1 1,1 0,13 10,0 0,-54 -8,0 -1,1Z"/>
<path onmouseover="hoverPath(evt)" onmouseout="recoverPath(evt)" fill="rgb(240,240,228)" d="M  0,1l 0,6 23,0 0,-7 -22,0 -1,1Z"/>
<path onmouseover="hoverPath(evt)" onmouseout="recoverPath(evt)" fill="rgb(243,242,232)" d="M  0,15l 0,47 14,0 1,1 0,1 1,-1 9,0 0,-51 -25,0Z"/>
<path onmouseover="hoverPath(evt)" onmouseout="recoverPath(evt)" fill="rgb(243,242,233)" d="M  0,81l 0,58 8,0 1,-1 16,0 0,-60 -25,0Z"/>
<path onmouseover="hoverPath(evt)" onmouseout="recoverPath(evt)" fill="rgb(184,205,232)" d="M  0,195l 0,9 13,0 1,-1 6,0 1,-1 1,0 0,-8 1,-1 0,-5 -1,0 -1,1 0,4 -1,1 -1,1 -5,0 -1,-1 -2,0 -1,1 0,0 -1,1 -2,0 -1,-1 -1,0 -1,-1 -3,0 -1,1Z"/>
<path onmouseover="hoverPath(evt)" onmouseout="recoverPath(evt)" fill="rgb(171,198,238)" d="M  0,247l 0,8 17,0 -1,-1 0,-1 -1,-1 0,-1 -1,-1 -1,0 -1,-1 -1,0 -1,-1 -1,0 -1,-1 -4,0 -1,-1 -2,0 -1,1Z"/>
<path onmouseover="hoverPath(evt)" onmouseout="recoverPath(evt)" fill="rgb(239,238,224)" d="M  31,0l -1,0 0,5 1,1 30,0 1,-1 34,0 1,-1 24,0 1,-1 1,0 0,-3Z"/>
<path onmouseover="hoverPath(evt)" onmouseout="recoverPath(evt)" fill="rgb(244,243,237)" d="M  41,142l 0,1 2,0 1,1 0,-2 1,-1 1,0 1,-1 3,0 1,1 1,1 1,1 0,1 1,1 1,1 0,-1 -1,-1 -1,-2 -1,-1 0,-1 -1,-1 0,-1 -1,-1 0,-1 -1,-1 0,-1 -1,-1 0,-1 -1,-1 0,-1 -1,-1 0,-1 -1,0 -1,-1 0,-1 -1,-1 0,-1 -1,-1 0,-1 -1,-1 0,-1 -1,-1 0,3 -1,1 -2,2 0,1 1,1 0,2 1,1 0,1 1,1 0,1 1,1 0,1 1,1 0,4 -1,1Z"/>
<path onmouseover="hoverPath(evt)" onmouseout="recoverPath(evt)" fill="rgb(176,201,238)" d="M  47,143l -1,0 0,2 -1,1 -2,0 -1,-1 -2,0 0,3 1,1 0,1 1,1 1,1 1,1 0,1 1,1 1,1 1,1 1,1 1,1 0,1 1,1 1,1 1,1 1,1 0,1 1,1 2,0 1,-1 0,-1 1,-1 3,0 0,-2 -1,-1 0,-1 -1,-1 -1,-1 0,-1 -1,-1 0,-1 -1,-1 0,-1 -1,-1 -1,-1 0,-2 -1,-1 -1,-1 -1,-1 0,-1 -1,-1 -1,-1 -1,0 -1,1Z"/>
<path onmouseover="hoverPath(evt)" onmouseout="recoverPath(evt)" fill="rgb(242,241,231)" d="M  49,247l 0,0 -1,1 -2,0 0,1 -1,1 -1,1 0,1 -1,1 0,2 22,0 0,-1 -2,0 -1,-1 -6,0 -1,-1 -3,0 -1,-1 -1,-1 0,-2 -1,-1 1,-1 0,-2 1,-1 1,-1 1,0 1,-1 -2,0 -1,-1 -1,0 0,1 -1,1 0,1 -1,1 1,1 1,1 -1,1Z"/>
<path onmouseover="hoverPath(evt)" onmouseout="recoverPath(evt)" fill="rgb(241,240,232)" d="M  53,107l 0,0 1,1 1,1 0,1 1,1 1,1 0,1 1,1 0,-1 -1,-2 -1,-1 0,-1 -1,-1 0,-1 -1,-1 -1,1 -2,-4 0,-1 1,-1 0,-2 -1,-1 0,-1 -1,-1 0,-3 -1,-1 0,-2 1,-1 0,-1 1,-1 0,-1 1,-1 2,0 1,-1 2,0 1,-1 1,-1 3,0 1,-1 4,0 1,-1 5,0 1,1 12,0 1,1 0,3 -1,1 1,1 0,7 -1,1 0,0 1,1 1,0 1,1 0,-9 1,-1 -1,-1 0,-2 1,-1 0,-2 1,-1 -1,0 -1,-1 -3,0 -1,-1 0,-1 -24,0 0,2 -1,1 -3,0 -1,1 -4,0 -1,1 -8,0 -1,1 -8,0 9,1 2,0 1,1 1,1 0,1 1,1 0,4 1,1 0,8 1,0 1,2 2,4Z"/>
<path onmouseover="hoverPath(evt)" onmouseout="recoverPath(evt)" fill="rgb(253,253,253)" d="M  59,75l -32,0 -1,1 -26,0 27,1 0,62 -1,1 -16,0 -1,1 -9,0 0,1 14,0 1,-1 10,0 1,1 1,1 0,1 1,1 0,49 -1,1 0,6 -1,1 -1,1 -1,0 -1,1 -1,0 -1,1 -6,0 -1,1 -14,0 0,1 19,0 1,-1 3,0 1,-1 1,0 1,-1 2,0 0,-4 1,-1 0,-57 1,-1 0,-1 -1,-1 0,-24 -1,-1 0,-5 1,-1 0,-21 -1,-1 0,-6 1,-1 0,-2 1,-1 28,0 1,-1 36,0 1,-1 24,0 1,1 0,5 -1,1 0,2 -1,1 0,1 -1,1 -1,0 -1,1 -5,0 -1,1 -1,0 0,1 -1,1 0,6 1,1 1,0 0,-6 1,-1 1,-1 5,0 1,-1 1,0 1,-1 1,-1 0,-2 1,-1 0,-2 1,-1 0,-3 1,-1 0,-1 1,-1 1,0 1,-1 22,0 1,-1 10,0 1,-1 28,0 1,-1 8,0 1,1 1,0 1,1 0,8 1,1 0,19 1,1 0,18 1,1 0,5 -1,1 -1,1 -1,0 -1,1 -15,0 -1,1 -14,0 -1,-1 0,-5 -1,-1 0,-12 -1,0 0,13 1,1 0,17 1,1 0,7 1,0 0,-8 -1,-1 0,-8 1,-1 1,0 1,-1 13,0 1,-1 17,0 1,1 0,10 1,1 0,4 1,0 0,-6 -1,-1 0,-20 -1,-1 0,-18 -1,-1 0,-18 -1,-1 0,-6 1,-1 0,-1 1,-1 -5,0 -139,5 -1,0 130,-5 -2,0 -27,1 -3,0 -8,1 -21,0 -2,1 -30,0 -1,1 -27,0 121,-4 -130,5 155,-5 8,0 1,-1 -8,0 -1,1 -155,5Z"/>
<path onmouseover="hoverPath(evt)" onmouseout="recoverPath(evt)" fill="rgb(173,199,237)" d="M  59,169l -1,1 -1,0 0,1 -1,1 -1,1 -2,0 -3,3 -1,1 0,1 -1,1 -1,1 0,1 -1,1 -1,1 -2,0 1,1 0,2 -1,1 0,1 -1,1 1,1 0,0 1,-1 0,0 1,-1 1,-1 1,-1 0,-1 3,-3 1,-1 5,0 1,1 0,4 -1,1 0,2 -1,1 0,1 -1,1 0,2 -1,1 0,2 -1,1 0,1 -1,1 0,2 -1,1 0,1 -1,1 0,1 -1,1 0,1 -1,1 -1,1 0,1 -1,1 0,1 -1,1 0,1 -1,1 0,1 -1,1 0,2 -1,1 0,1 -1,1 0,1 -1,1 0,1 -1,1 0,1 -3,3 0,2 -1,1 0,1 -1,1 0,1 -1,1 -1,1 -2,0 -1,1 0,2 -1,1 -3,0 -1,-1 -1,0 -1,-1 -1,0 -1,-1 -1,-1 -1,-1 0,-2 -2,0 0,1 -1,1 0,2 -1,1 0,1 1,1 1,0 1,1 2,0 1,1 1,0 1,1 2,0 1,1 2,0 1,1 0,4 -1,1 0,2 6,0 0,-2 1,-1 1,0 1,-1 0,-1 1,-1 0,-2 -1,-1 0,-4 1,-1 0,-1 1,-1 0,-2 1,-1 0,-1 1,-1 0,-2 1,-1 0,-2 1,-1 1,-1 1,-1 1,0 1,-1 1,-1 1,-1 0,-1 1,-1 0,-1 1,-1 0,-1 1,-1 0,-2 1,-1 0,-1 1,-1 -1,-1 0,0 -1,-1 0,-2 1,-1 0,-1 1,-1 0,-1 1,-1 1,-1 0,-1 1,-1 0,-2 1,-1 0,-1 1,-1 0,-2 1,-1 0,-1 1,-1 0,-2 1,-1 0,-2 1,-1 0,-2 1,-1 0,-7 1,-1 0,-1 1,-1 1,-1 3,0 1,-1 1,0 0,-8 1,-1 0,-1 1,-1 1,-1 1,-1 1,-1 2,0 1,-1 8,0 0,-4 -1,-1 -3,0 -1,1 -10,0 -1,1 -1,1 -1,0 -1,1 -1,0 -1,1 -3,0 1,1 0,1 1,1 0,1 1,1 0,1 1,1 1,1 0,4 -1,1 -4,0 -1,1 -1,0 -1,1 -17,13 0,-2 -1,-1 -2,0 -1,-1 -5,0 0,1 -1,1 -1,0 0,19 1,-1 0,-1 1,-1 1,-1 0,-1 1,-1 0,-1 1,-1 1,-1 0,-1 1,-1 0,-1 1,-1 0,-1 1,-1 1,-1 1,-1 17,-13Z"/>
<path onmouseover="hoverPath(evt)" onmouseout="recoverPath(evt)" fill="rgb(240,239,227)" d="M  62,203l 0,-1 1,-1 0,-1 1,-1 0,-2 1,-1 0,-1 1,-1 0,-2 1,-1 0,-1 1,-1 0,-3 1,-1 0,-3 1,-1 0,-10 -1,1 -3,0 -1,1 0,1 -1,1 0,7 -1,1 0,2 -1,1 0,2 -1,1 0,2 -1,1 0,1 -1,1 0,2 -1,1 0,1 -1,1 0,2 -1,1 0,1 -1,1 -1,1 0,1 -1,1 0,1 -1,1 1,1 0,0 1,1 0,2 -1,1 0,1 -1,1 0,2 -1,1 0,1 -1,1 0,1 -1,1 0,1 -1,1 -1,1 -1,1 -1,1 -1,0 -1,1 -1,1 0,2 -1,1 0,2 -1,1 0,1 -1,1 0,2 -1,1 0,1 -1,1 0,2 1,1 0,4 -1,1 0,1 -1,1 -1,1 -1,0 0,1 3,0 0,-2 1,-1 0,-1 1,-1 0,-1 1,-1 0,-1 1,-1 0,-1 1,-1 0,-1 1,-1 1,-1 0,-1 1,-1 0,-1 1,-1 0,-1 1,-1 0,-1 1,-1 0,-1 1,-1 0,-1 1,-1 0,-1 1,-1 0,-1 1,-1 0,-1 1,-1 0,-1 1,-1 0,-1 1,-1 0,-1 1,-1 0,-1 1,-1 0,-1 1,-1 0,-1 1,-1 0,-2 1,-1 0,-1 1,-1 0,-2 1,-1Z"/>
<path onmouseover="hoverPath(evt)" onmouseout="recoverPath(evt)" fill="rgb(242,241,234)" d="M  63,163l 0,1 -1,1 3,0 0,-2 -1,-1 -1,1 -4,2 0,1 -2,2 -4,0 -1,-1 -1,-1 0,-1 -1,-1 -1,-1 -2,-2 0,-1 -2,-2 -1,-1 -1,-1 -1,-1 0,-1 -1,-1 -1,-1 -1,-1 0,-1 -1,-1 0,-5 -1,0 -1,1 0,1 1,1 0,0 2,5 0,1 -1,1 -3,0 -1,-1 -1,0 -1,-1 0,-1 -1,-1 0,28 1,-2 7,0 1,1 2,0 1,1 1,1 0,2 1,-1 0,-1 1,-1 1,-1 0,-1 1,-1 1,-1 1,-1 1,-1 1,-1 2,0 1,-1 0,-1 4,-4 4,-2 -2,-6 0,-1 -1,-1 0,-2 1,-1 3,0 1,-1 1,0 -6,1 -1,0 -1,-1 -1,-1 0,-1 -1,-1 0,1 2,3 1,1 0,1 2,3 2,6Z"/>
<path onmouseover="hoverPath(evt)" onmouseout="recoverPath(evt)" fill="rgb(244,243,236)" d="M  77,170l -1,0 -1,1 0,12 -1,1 0,4 -1,1 0,2 1,1 0,2 -1,1 -2,0 0,1 -1,1 0,1 1,1 0,2 -1,1 -2,0 0,1 9,0 1,1 1,1 1,1 0,12 1,1 0,20 -1,1 1,0 1,1 0,1 1,1 0,12 2,0 0,-5 1,-1 0,-1 2,-2 8,0 1,-1 1,0 1,-1 1,-1 0,-1 1,-1 -1,-1 0,-1 -1,-1 -13,0 -1,-1 0,-10 -1,-1 0,-12 -1,-1 0,-8 1,-1 0,-2 -1,-1 0,-13 1,-1 1,0 1,-1 21,0 1,1 1,1 0,2 1,1 0,10 -1,1 0,1 1,1 0,7 1,1 0,9 1,1 0,7 1,1 0,11 1,1 0,4 -1,1 0,8 1,0 0,-8 1,-3 0,-3 -1,-1 0,-5 1,-1 1,-1 0,-1 1,-1 1,-1 0,-1 1,-1 1,0 1,-1 1,0 1,-1 10,0 1,-1 -1,0 -11,1 -6,0 -1,-1 -1,-1 0,-3 1,-1 0,-7 -1,-1 -1,0 -1,-1 -1,-1 0,1 -34,-41 33,33 0,-1 1,-1 1,-1 0,-1 1,-1 0,-2 -1,-1 -1,-1 0,-4 1,-1 1,-1 6,0 1,-1 2,0 1,-1 2,0 1,-1 14,0 1,1 3,0 1,1 1,1 0,1 1,1 0,-5 1,-1 1,-1 1,-1 2,0 1,-1 3,0 1,-1 1,-1 2,-2 12,0 1,1 1,1 1,0 1,-1 0,-1 1,-1 1,0 1,-1 10,0 1,1 1,0 1,-1 0,-1 1,-1 1,0 1,-1 1,-1 1,0 1,-1 1,0 1,-1 0,-6 1,-1 -61,0 -1,1 -4,0 -1,1 -4,0 -1,1 -4,0 -1,1 -5,0 -1,1 -6,0 -1,1 -12,0 -1,1 -11,0 -1,1 -8,0 32,33 -33,-33Z"/>
<path onmouseover="hoverPath(evt)" onmouseout="recoverPath(evt)" fill="rgb(171,198,238)" d="M  89,248l 0,0 -1,1 0,1 -1,1 0,4 24,0 0,-9 1,-1 0,-2 -1,-1 0,-11 -1,-1 0,-7 -1,-1 0,-9 -1,-1 0,-7 -1,-1 0,-3 1,-1 0,-8 -1,-1 0,-2 -1,-1 -19,0 -1,1 -1,0 0,11 1,1 0,4 -1,1 0,6 1,1 0,12 1,1 0,10 13,0 2,2 0,1 1,1 0,2 -1,1 0,1 -1,1 -1,1 -1,1 -1,0 -1,1Z"/>
<path onmouseover="hoverPath(evt)" onmouseout="recoverPath(evt)" fill="rgb(182,204,236)" d="M  92,88l -1,1 0,23 -1,1 -1,0 0,5 -1,1 -3,0 -1,1 -16,0 -1,-1 6,2 2,0 1,1 1,-1 -1,0 9,-1 2,0 1,1 0,9 1,-10 4,0 1,1 0,0 1,-1 19,0 1,1 0,3 -4,-5 0,-14 -1,-1 0,-5 -2,0 -1,-1 -1,-1 0,-8 1,-1 0,-1 1,-1 1,0 1,-1 5,0 1,-1 1,0 0,-1 1,-1 0,-2 1,-1 0,-3 -22,0 -1,1 -9,0 4,1 1,0 1,1 0,2 -1,1 0,2 -1,1 1,1Z"/>
<path onmouseover="hoverPath(evt)" onmouseout="recoverPath(evt)" fill="rgb(176,201,237)" d="M  113,105l 0,13 3,0 1,1 0,1 13,0 0,-1 1,-1 10,0 0,-10 -6,0 -1,-1 -3,0 -1,-1 0,-5 1,-1 0,-9 -1,-1 0,-3 -7,0 -1,1 0,0 -1,1 -1,1 -1,0 -1,1 -5,0 -1,1 0,11 1,1Z"/>
<path onmouseover="hoverPath(evt)" onmouseout="recoverPath(evt)" fill="rgb(171,198,238)" d="M  113,191l 0,2 1,1 1,1 0,4 -1,1 0,1 -1,1 -1,1 0,5 1,1 1,1 1,0 1,1 1,1 0,9 -1,1 0,1 1,1 14,0 1,-1 14,0 1,1 7,0 1,-1 2,0 1,-1 1,0 0,-2 1,-1 0,-1 -1,-1 0,-5 -1,-1 0,-1 -1,-1 0,-1 -1,-1 -1,-1 0,-1 -1,-1 -1,-1 0,-1 -1,-1 -1,-1 0,-1 -1,-1 -1,-1 0,-1 -1,-1 -1,-1 -1,-1 0,-1 -1,-1 -1,-1 0,-1 -1,-1 -3,0 -1,-1 -12,0 -1,1 -2,0 -1,1 -2,0 -1,1 -6,0 -1,1Z"/>
<path onmouseover="hoverPath(evt)" onmouseout="recoverPath(evt)" fill="rgb(232,232,213)" d="M  130,59l 1,0 -1,-1 0,-2 1,-1 0,-3 -1,-1 0,-47 -1,-1 0,-3 -1,0 0,2 1,2 0,6 -1,1 0,42 -1,1 0,3 1,1 0,1Z"/>
<path onmouseover="hoverPath(evt)" onmouseout="recoverPath(evt)" fill="rgb(171,198,238)" d="M  131,1l 0,1 1,1 0,47 1,1 0,5 -1,1 1,1 0,1 1,0 1,-1 5,0 0,-8 -1,-1 0,-8 -1,-1 0,-2 1,-1 0,-26 -1,-1 0,-10 -6,0 -1,1Z"/>
<path onmouseover="hoverPath(evt)" onmouseout="recoverPath(evt)" fill="rgb(184,204,229)" d="M  133,161l -5,0 -1,-1 -2,0 -1,1 -7,0 -1,-1 -35,0 -1,1 -2,0 -1,1 0,1 -1,1 0,4 9,0 1,-1 11,0 1,-1 12,0 1,-1 6,0 1,-1 5,0 1,-1 4,0 1,-1 3,0 1,-1 5,0 0,-1 -1,0 -3,1Z"/>
<path onmouseover="hoverPath(evt)" onmouseout="recoverPath(evt)" fill="rgb(243,242,234)" d="M  140,1l 0,8 1,1 0,28 -1,1 1,1 0,8 1,1 0,10 5,0 1,-1 56,0 1,-1 18,0 1,-1 1,0 0,-32 -1,0 -1,-1 -11,0 -1,1 -29,0 -1,-1 -1,0 -1,-1 0,-14 -1,-1 0,-2 1,-1 0,-4 -38,0 -1,1Z"/>
<path onmouseover="hoverPath(evt)" onmouseout="recoverPath(evt)" fill="rgb(171,198,238)" d="M  150,185l 0,0 -1,1 0,5 -1,1 1,1 1,1 1,1 0,1 1,1 1,1 0,1 1,1 1,1 0,1 1,1 1,1 0,1 1,1 1,1 0,1 1,1 0,1 1,1 0,5 1,1 0,3 -1,1 4,0 1,1 1,0 1,1 1,0 1,1 0,1 1,1 1,1 1,1 1,1 1,0 1,1 1,1 1,1 1,1 1,0 1,1 1,1 1,1 1,1 1,0 1,1 2,0 1,1 5,0 1,1 0,2 2,0 1,1 0,12 26,0 0,-4 1,-1 0,-3 1,-1 0,-3 1,-1 0,-3 1,-1 0,-5 1,-1 0,-1 1,-1 6,0 0,-1 1,-1 0,-19 1,-1 0,-41 1,-1 3,0 1,1 0,8 -1,1 0,14 2,0 0,-29 -2,0 -1,-1 -3,0 -1,1 -14,0 0,1 -1,1 -19,0 -1,1 0,6 -1,1 -1,1 -1,0 -1,1 -1,0 -1,1 -1,1 -1,0 0,1 -1,1 -1,1 -3,0 -1,-1 -8,0 -1,1 -1,0 0,1 -1,1 -1,1 -3,0 -1,-1 -1,-1 -10,0 -1,1 0,0 -3,3 -3,0 -1,1 -2,0 -1,1Z"/>
<path onmouseover="hoverPath(evt)" onmouseout="recoverPath(evt)" fill="rgb(197,214,238)" d="M  188,241l 0,0 -1,-1 0,2 -1,1 -1,1 0,1 -1,1 0,1 -1,1 -1,0 -1,1 -2,0 -1,1 -1,0 -1,1 2,0 1,1 0,1 1,1 0,1 16,0 0,-11 -2,0 -1,-1 0,-2Z"/>
<path onmouseover="hoverPath(evt)" onmouseout="recoverPath(evt)" fill="rgb(240,237,226)" d="M  202,19l 0,-10 -1,0 -1,-1 -15,0 -1,1 -1,0 0,10Z"/>
<path onmouseover="hoverPath(evt)" onmouseout="recoverPath(evt)" fill="rgb(239,237,225)" d="M  206,1l 0,3 45,0 0,-4 -44,0 -1,1Z"/>
<path onmouseover="hoverPath(evt)" onmouseout="recoverPath(evt)" fill="rgb(240,237,226)" d="M  214,19l 10,0 0,-1 1,-1 0,-7 -1,-1 -10,0 -1,-1 -4,0 -1,1 -1,0 -1,1 0,4 1,1 0,4Z"/>
<path onmouseover="hoverPath(evt)" onmouseout="recoverPath(evt)" fill="rgb(241,239,229)" d="M  229,11l 0,22 1,1 7,0 1,-1 17,0 0,-25 -25,0 -1,1Z"/>
<path onmouseover="hoverPath(evt)" onmouseout="recoverPath(evt)" fill="rgb(222,232,207)" d="M  231,233l 0,0 -1,1 0,5 -1,1 0,3 -1,1 11,0 0,-2 1,-1 0,-1 -1,-1 0,-8 1,-1 0,-37 1,-1 -1,-1 0,-16 1,-1 0,-6 -1,0 0,24 4,0 1,1 0,7 1,-1 9,0 0,-8 -8,0 -1,-1 0,1 -1,1 0,0 -14,41 8,-23 0,19 -1,1 0,1 -1,1 -6,0 8,-22 -8,23Z"/>
<path onmouseover="hoverPath(evt)" onmouseout="recoverPath(evt)" fill="rgb(171,198,238)" d="M  241,243l 0,12 2,0 0,-12 -1,-1 -1,1 1,-3 1,-1 0,-45 -1,0 0,37 -1,1 0,6 1,1 0,1 -1,3Z"/>
<path onmouseover="hoverPath(evt)" onmouseout="recoverPath(evt)" fill="rgb(251,251,248)" d="M  243,35l -4,0 -1,1 -9,0 -1,-1 -1,-1 0,23 -1,1 -1,0 -1,1 -18,0 -1,1 -34,0 0,1 35,-1 3,0 16,-1 23,0 1,-1 -20,0 -1,-1 0,-6 15,-16 -1,1 -15,-4 0,-24 1,-1 1,-1 -24,0 -1,-1 0,-5 -23,0 0,5 -1,1 1,1 0,14 1,0 1,1 27,0 1,-1 13,0 1,1 1,0 0,-2 -1,1 1,-2 -16,2 -4,0 -1,-1 0,-4 -1,-1 0,-6 1,-1 0,0 1,-1 1,0 35,29 1,-1 -39,-16 0,1 -1,1 -20,0 21,-2 39,16 -28,-28 10,0 1,1 4,-2 25,0 0,-6 -2,0 0,5 -38,2 28,28 -42,-29 0,0 42,29Z"/>
</svg>