<svg width="256" height="256" xmlns="http://www.w3.org/2000/svg"><script> 
var tempColor;
function hoverPath(evt){
obj = evt.target;
tempColor = obj.getAttribute("fill");
obj.setAttribute("fill","red");
//alert(tempColor);
//obj.setAttribute("stroke","red");}
function recoverPath(evt){
obj = evt.target;
obj.setAttribute("fill", tempColor);
//obj.setAttribute("stroke", tempColor);
}</script><path onmouseover="hoverPath(evt)" onmouseout="recoverPath(evt)" fill="rgb(250,241,146)" d="M  0,240l 0,8 4,0 1,-1 6,0 1,-1 5,0 1,-1 6,0 1,-1 6,0 1,-1 6,0 1,-1 4,0 1,-1 3,0 0,-2 1,-1 4,0 1,-1 6,0 1,-1 5,0 1,1 0,-1 1,-1 5,0 1,1 0,-1 1,-1 6,0 1,-1 5,0 1,-1 6,0 1,-1 5,0 1,-1 7,0 1,1 0,1 1,1 7,0 1,-1 5,0 1,-1 6,0 1,-1 5,0 1,-1 4,0 0,-1 1,-1 3,0 1,1 3,0 1,-1 4,0 1,1 2,0 1,1 3,0 0,-2 1,-1 3,0 1,-1 8,0 0,-2 1,-1 1,0 1,-1 5,0 1,-1 5,0 1,-1 7,0 1,1 1,0 0,-1 1,-1 3,0 1,1 1,0 1,1 1,-1 1,0 1,-1 7,0 1,-1 7,0 1,-1 7,0 1,-1 6,0 1,1 0,-1 1,-1 6,0 1,-1 6,0 1,-1 2,0 0,-14 -7,0 -1,1 -5,0 -1,1 -6,0 -1,1 -6,0 -1,1 -14,0 -1,1 -7,0 0,2 -1,1 -6,0 -1,1 -1,0 -1,1 -2,0 -1,-1 -2,0 -1,-1 0,-1 -6,0 -1,1 -6,0 -1,1 -5,0 -1,1 -6,0 -1,1 -5,0 -1,1 -6,0 -1,1 -2,0 0,2 -1,1 -4,0 -1,1 -5,0 -1,1 -5,0 -1,1 0,2 -1,1 -3,0 -1,1 -4,0 -1,1 -5,0 -1,1 -6,0 -1,1 -6,0 -1,1 -6,0 -1,1 -5,0 -1,1 -4,0 -1,1 -6,0 -1,1 -7,0 -1,1 -7,0 -1,1 -5,0 -1,1 -4,0 -1,1 -6,0 -1,1 -6,0 -1,1 -4,0 -1,1 -6,0 -1,1 -5,0 -1,-1 0,-1 -2,0 -1,1 -5,0 -1,1 -6,0Z"/>
<path onmouseover="hoverPath(evt)" onmouseout="recoverPath(evt)" fill="rgb(244,243,237)" d="M  32,44l 0,2 1,1 0,6 1,1 0,2 14,0 1,-1 3,0 1,1 1,1 0,-7 -1,-1 0,-5 -4,0 -1,-1 -15,0 -1,1Z"/>
<path onmouseover="hoverPath(evt)" onmouseout="recoverPath(evt)" fill="rgb(242,242,235)" d="M  119,212l -6,0 -1,1 -7,0 -1,-1 -1,-1 0,-3 -1,-1 0,-3 -1,-1 0,-3 -1,-1 0,-6 1,-1 10,0 1,1 1,0 1,1 0,9 1,1 0,1 1,0 1,1 1,0 1,1 1,0 1,1 0,2 -1,1 -1,1 -9,2 6,0 1,-1 6,0 1,-1 5,0 1,-1 5,0 1,-1 5,0 0,-7 1,-1 0,-14 1,-1 0,-13 1,-1 -1,-1 0,-1 -43,0 -1,-1 0,-1 -1,-1 0,-5 -1,-1 0,-9 -1,-1 0,-8 -7,0 -1,-1 -7,0 -1,1 -14,0 -1,-1 0,-1 -1,0 0,17 -1,1 -1,0 -1,1 -3,0 2,1 1,0 1,1 0,33 1,-1 3,0 1,1 0,6 1,1 0,18 2,0 1,-1 6,0 1,-1 5,0 1,-1 6,0 1,-1 5,0 1,-1 6,0 1,-1 5,0 1,-1 9,-2 -16,-22 -6,0 -1,-1 -1,-1 0,-2 -1,-1 0,-5 -1,-1 0,-3 1,-1 1,0 1,-1 16,0 1,1 0,13 -1,1 -8,0 -1,1 16,22Z"/>
<path onmouseover="hoverPath(evt)" onmouseout="recoverPath(evt)" fill="rgb(243,242,235)" d="M  141,20l 0,1 -1,1 0,1 -1,1 0,8 1,0 1,1 0,1 1,1 0,9 -1,1 0,11 -1,1 0,2 -1,1 0,1 -1,1 0,1 -1,1 0,2 -1,1 0,4 -1,1 0,5 -1,1 0,5 -1,1 0,6 -1,1 6,0 1,-1 3,0 0,-6 1,-1 4,0 1,1 1,-1 2,0 1,1 1,0 1,1 1,1 0,6 17,0 1,-1 -9,0 -1,-1 -1,-1 0,-4 1,-1 0,-3 1,-1 0,-2 1,-1 0,-3 1,-1 0,-2 1,-1 0,-2 1,-1 0,-2 1,-1 0,-2 1,-1 0,-3 -1,-1 0,-1 -1,-1 0,-5 2,-2 1,-1 1,-1 1,0 1,-1 9,0 1,1 1,0 1,1 3,0 1,1 1,1 1,1 1,1 2,0 -4,-3 0,0 -1,-1 0,-1 -1,-1 0,-7 -1,-1 0,-4 -1,-1 0,-4 1,-1 0,-3 -1,-1 0,-2 -1,-1 0,-2 -1,-1 0,-3 1,-1 1,-1 1,-1 2,0 1,1 0,4 1,1 0,2 1,1 0,6 1,1 0,14 1,1 0,1 1,1 1,1 1,1 1,1 1,1 1,1 0,1 1,0 1,1 1,1 0,1 1,1 1,1 0,1 1,1 0,1 1,1 0,3 12,0 1,1 1,0 1,1 0,6 -1,1 -1,0 0,6 1,1 0,14 -1,1 -1,1 7,0 1,1 7,0 1,1 0,3 1,1 0,2 1,1 0,2 -1,1 -1,1 -6,0 -1,-1 0,-5 -1,0 0,5 1,1 0,10 -1,1 0,8 1,1 2,0 1,1 3,0 1,1 3,0 1,1 1,1 0,-2 1,-1 0,-1 1,-1 0,-2 1,-1 0,-1 -1,-1 0,0 -1,-1 -1,-1 0,-2 1,-1 0,-1 1,-1 0,-1 1,-1 2,0 1,1 -1,-2 0,-1 -1,-1 0,-3 -1,-1 0,-2 -1,-1 0,-3 -1,-1 0,-7 -2,0 -1,-1 -1,0 -1,-1 -1,-1 0,-3 2,-2 0,-1 1,-1 0,-2 -2,0 -1,-1 0,-2 -1,-1 0,-2 -1,-1 0,-2 -1,-1 0,-3 -1,-1 0,-2 -1,-1 0,-2 -1,-1 0,-3 1,-1 -1,-1 0,-3 -4,0 -1,-1 -2,0 -1,-1 0,-2 -1,-1 0,-2 -1,-1 0,-4 -1,-1 0,-1 -1,-1 0,-4 -1,-1 0,-1 -1,-1 0,-3 -1,-1 0,-3 -1,-1 0,-4 1,-1 2,0 1,1 0,-1 1,-1 0,-1 -1,-1 0,-2 -2,0 -1,-1 0,-3 -1,-1 -55,0 0,14 -1,1 -2,0 -1,-1 0,-15 -1,-1 -10,0 0,2 1,1 0,3 4,0 1,1 0,1 1,1 0,4 -1,1 -1,1 -7,0 -1,1 62,73 -1,-1 -5,0 5,1Z"/>
<path onmouseover="hoverPath(evt)" onmouseout="recoverPath(evt)" fill="rgb(244,243,237)" d="M  243,216l -3,0 0,1 4,0 -1,-1 3,0 1,-1 6,0 1,-1 1,1 0,40 -1,0 -8,-39 -3,0 2,4 0,3 1,0 1,1 1,1 0,1 1,1 0,4 -1,1 0,5 -1,1 0,5 1,1 0,0 1,1 1,1 0,9 1,0 -6,-35 -2,-4Z"/>
<path onmouseover="hoverPath(evt)" onmouseout="recoverPath(evt)" fill="rgb(243,242,234)" d="M  0,189l 0,42 3,0 1,-1 5,0 1,-1 5,0 1,-1 5,0 1,-1 5,0 1,-1 3,0 0,-5 1,-1 0,-2 -1,-1 0,-2 -1,-1 0,-3 -2,0 -1,-1 0,-2 -1,-1 0,-2 -1,-1 0,-3 -1,-1 0,-3 -1,-1 0,-4 1,-1 0,-3 1,-1 0,-5 -1,0 -1,1 -1,0 -1,1 -4,0 -1,1 -3,0 -1,1 -4,0 -1,1 -3,0 -1,1 -2,0 -1,1Z"/>
<path onmouseover="hoverPath(evt)" onmouseout="recoverPath(evt)" fill="rgb(169,196,235)" d="M  0,117l 0,69 2,0 1,-1 3,0 1,-1 4,0 1,-1 3,0 1,-1 4,0 1,-1 1,0 1,-1 3,0 1,1 0,1 2,0 1,-1 5,0 1,-1 3,0 1,-1 2,0 1,-1 1,0 1,-1 0,-3 -1,-1 0,-3 1,-1 1,-1 1,-1 1,-1 9,0 1,-1 0,-2 -1,0 -1,-1 0,-2 1,-1 3,0 1,-1 1,0 0,-32 -1,-1 0,-2 -13,0 -1,-1 0,-6 1,-1 2,0 1,1 0,1 1,1 0,1 8,0 1,-1 1,0 0,-16 -1,-1 0,-3 1,-1 0,-3 -1,-1 0,-7 -4,0 -1,-1 -10,0 -1,1 -4,0 1,1 0,3 1,1 0,1 1,1 1,1 0,2 13,0 1,1 0,2 -1,1 -12,0 0,5 -1,1 -2,0 -1,-1 0,-1 -1,-1 0,-4 -1,0 -1,-1 0,-1 -1,-1 0,-2 -1,-1 0,-6 -9,0 -1,1 -4,0 -1,1 -1,0 -1,1 -11,0 -1,-1 0,-2 1,-1 8,0 1,-1 0,-1 -4,0 -1,-1 0,-2 1,-1 1,0 0,-10 -6,0 0,3 -1,1 -3,0 -1,-1 0,-2 -1,0 -1,-1 -2,0Z"/>
<path onmouseover="hoverPath(evt)" onmouseout="recoverPath(evt)" fill="rgb(244,243,236)" d="M  27,185l 0,3 -1,1 0,3 -1,1 0,2 1,1 0,3 1,1 0,3 1,1 0,2 1,1 0,2 2,0 1,1 0,3 1,1 0,2 1,1 0,3 1,1 0,3 1,1 2,0 1,-1 5,0 1,-1 5,0 1,-1 8,0 1,-1 0,-57 -1,3 0,0 -1,1 -9,0 -1,1 -1,1 -1,1 0,1 1,1 0,5 -1,1 -1,1 -1,0 -1,1 -2,0 -1,1 -3,0 -1,1 -5,0 -1,1 -2,0 -1,1Z"/>
<path onmouseover="hoverPath(evt)" onmouseout="recoverPath(evt)" fill="rgb(240,240,234)" d="M  68,239l 0,0 -1,1 -2,0 -1,-1 0,-1 -3,0 -1,1 -6,0 5,1 0,1 1,1 0,13 95,0 0,-3 1,-1 0,-4 -1,-1 0,-6 1,-1 0,-4 -1,-1 0,-4 -2,0 -1,-1 -2,0 -1,1 -5,0 -1,-1 -1,0 0,1 -1,1 -4,0 -1,1 -5,0 -1,1 -6,0 -1,1 -5,0 -1,1 -9,0 -1,-1 -1,-1 0,-1 -5,0 -1,1 -5,0 -1,1 -6,0 -1,1 -5,0 -1,1 -6,0 0,1 -1,1 -2,0 -1,-1 -3,0Z"/>
<path onmouseover="hoverPath(evt)" onmouseout="recoverPath(evt)" fill="rgb(170,198,238)" d="M  96,177l -1,0 0,1 1,1 0,5 1,1 0,2 1,1 4,0 1,-1 8,0 0,-11 -14,0 -1,1Z"/>
<path onmouseover="hoverPath(evt)" onmouseout="recoverPath(evt)" fill="rgb(253,253,253)" d="M  108,169l 36,0 1,1 0,1 1,1 0,2 -1,1 0,13 -1,1 0,14 -1,1 0,7 -1,1 3,0 0,-1 -1,-1 0,-4 1,-1 0,-14 1,-1 0,-14 1,-1 0,-7 -21,0 -18,1 11,-1Z"/>
<path onmouseover="hoverPath(evt)" onmouseout="recoverPath(evt)" fill="rgb(176,201,235)" d="M  140,113l 0,1 1,1 0,2 1,1 0,3 1,0 1,1 2,0 1,1 3,0 1,1 4,0 0,-2 -1,-1 0,-4 -1,-1 0,-2 1,-1 0,-2 -1,-1 -1,-1 0,-3 -1,-1 0,-2 -1,-1 0,-2 -1,-1 0,-2 -1,-1 0,-1 -3,0 0,4 -1,1 -9,0 0,1 1,1 0,1 1,1 0,2 1,1 0,1 1,1 0,2 1,1Z"/>
<path onmouseover="hoverPath(evt)" onmouseout="recoverPath(evt)" fill="rgb(241,239,230)" d="M  157,233l 0,0 1,1 0,6 -1,1 0,4 1,1 0,6 -1,1 0,2 50,0 0,-1 -7,0 -1,-1 0,-2 1,-1 7,0 1,-1 0,-2 -1,-1 0,-6 1,-1 0,-2 -1,-1 0,-5 -1,0 -1,-1 -1,-1 0,-3 -8,0 -1,1 -8,0 -1,1 -8,0 -1,-1 0,1 -1,1 -7,0 -1,1 -6,0 -1,1 -4,0Z"/>
<path onmouseover="hoverPath(evt)" onmouseout="recoverPath(evt)" fill="rgb(170,198,238)" d="M  172,49l -1,1 -1,1 0,3 1,1 0,1 1,1 0,5 -1,1 0,2 -1,1 0,2 -1,1 0,2 -1,1 0,2 -1,1 0,3 -1,1 0,2 -1,1 0,3 -1,1 0,2 1,1 31,0 1,1 6,0 1,1 6,0 1,1 8,0 1,-1 0,-12 -1,-1 0,-8 1,-1 1,0 0,-4 -1,0 -1,-1 -12,0 -1,-1 0,-3 -1,-1 0,-1 -1,-1 0,-1 -1,-1 -1,-1 0,-1 -1,-1 -1,0 -1,-1 0,-1 -1,-1 -1,-1 -1,-1 -1,-1 -1,-1 -1,-1 0,-1 -1,-1 0,-14 -1,-1 0,-6 -1,-1 0,-2 -1,-1 0,-4 -2,2 0,1 1,1 0,2 1,1 0,2 1,1 0,5 -1,1 0,2 1,1 0,4 1,1 0,7 1,1 0,1 1,1 0,1 1,1 2,0 1,1 0,2 -1,1 -4,0 -1,-1 -1,-1 -1,-1 -1,-1 -3,0 -1,-1 -1,0 -1,-1 -7,0 -1,1 -1,0 -1,1Z"/>
<path onmouseover="hoverPath(evt)" onmouseout="recoverPath(evt)" fill="rgb(242,241,232)" d="M  193,140l -1,0 -1,1 0,2 -1,1 0,2 -1,1 0,1 3,0 1,1 1,1 0,1 9,0 1,1 0,4 -1,1 1,1 9,0 1,1 30,0 1,1 10,0 0,-4 -2,0 -1,-1 -2,0 -1,-1 -2,0 -1,-1 -2,0 -1,-1 -2,0 -1,-1 -1,0 -1,-1 0,-1 -3,0 -1,-1 -1,0 -1,-1 -1,-1 -5,0 -1,-1 -6,0 -1,-1 -3,0 -1,-1 -3,0 0,4 -1,1 -1,1 -2,0 -1,-1 0,-6 -1,-1 -6,0 -1,-1Z"/>
<path onmouseover="hoverPath(evt)" onmouseout="recoverPath(evt)" fill="rgb(254,254,254)" d="M  206,161l 5,0 1,1 27,0 1,1 15,0 0,-1 -11,0 -1,-1 -30,0 -1,-1 -5,0 -1,1Z"/>
<path onmouseover="hoverPath(evt)" onmouseout="recoverPath(evt)" fill="rgb(243,241,233)" d="M  207,221l -1,0 -1,1 -2,0 -1,-1 -1,0 -1,-1 -1,0 0,1 -1,1 -3,0 -1,-1 -5,0 -1,1 -5,0 -1,1 -5,0 -1,1 -1,0 0,2 -1,1 -8,0 -1,1 2,0 8,-1 1,-2 2,0 1,1 6,0 1,-1 8,0 1,-1 10,0 1,1 0,3 1,1 1,0 1,1 0,5 1,1 0,4 -1,1 0,4 1,1 0,4 -1,1 -1,1 0,0 1,1 0,2 34,0 0,-2 -1,-1 0,-1 -1,-1 0,-1 -1,-1 -1,-1 0,-2 -1,-1 0,-4 1,-1 0,-1 1,-1 0,-2 1,-1 0,-6 -1,-1 0,-2 -1,-1 -1,-1 0,-1 -1,-1 -1,-1 0,-3 -4,0 -1,1 -7,0 -1,1 -7,0 -1,1 -7,0 -1,1Z"/>
<path onmouseover="hoverPath(evt)" onmouseout="recoverPath(evt)" fill="rgb(247,235,139)" d="M  217,1l 0,2 -1,1 0,1 1,1 0,3 2,0 1,1 0,2 1,1 0,3 -1,1 0,1 -1,1 -2,0 -1,-1 0,2 1,1 0,3 1,1 0,3 1,1 0,1 1,1 0,4 1,1 0,1 1,1 0,4 1,1 0,2 1,1 0,2 2,0 1,1 4,0 1,1 0,3 1,1 0,2 -1,1 0,1 1,1 0,2 1,1 0,2 1,1 0,3 1,1 0,2 1,1 0,2 1,1 0,2 2,0 1,1 0,4 -1,1 0,1 -1,1 -1,1 0,1 1,1 1,0 1,1 2,0 1,1 0,7 1,1 0,3 1,1 0,2 1,1 0,3 1,1 0,2 1,1 0,2 -1,1 0,1 1,1 0,3 1,1 0,2 1,1 0,3 1,1 0,4 3,0 0,-49 -2,0 -1,-1 0,-2 -1,-1 0,-2 -1,-1 0,-2 -1,-1 0,-3 -1,-1 0,-2 -1,-1 0,-2 -1,-1 0,-3 -1,-1 0,-2 -1,-1 0,-2 -1,-1 0,-3 -1,-1 0,-2 -1,-1 0,-3 -1,-1 0,-2 -1,-1 0,-3 -1,-1 0,-2 -1,-1 0,-2 1,-1 0,-3 -2,0 -1,-1 0,-7 -1,-1 0,-3 -1,-1 0,-2 -1,-1 0,-3 -1,-1 0,-2 -1,-1 0,-3 -12,0 -1,1 -2,3 0,0 2,-3Z"/>
<path onmouseover="hoverPath(evt)" onmouseout="recoverPath(evt)" fill="rgb(225,231,233)" d="M  0,6l 0,13 2,0 1,1 1,1 1,0 1,1 1,0 1,1 1,0 1,1 2,0 1,1 2,0 -2,-1 -1,-1 -1,0 -1,-1 -1,0 -1,-1 -1,0 -1,-1 -1,-1 0,-1 -1,-1 0,-6 -1,0 -1,-1 0,-2 1,-1 3,0 1,-1 32,0 1,-1 29,0 1,1 0,1 1,1 0,-2 1,-1 2,0 1,-1 29,0 1,-1 12,0 1,-1 1,0 0,-2 -119,0Z"/>
<path onmouseover="hoverPath(evt)" onmouseout="recoverPath(evt)" fill="rgb(171,198,238)" d="M  0,50l 0,16 4,0 0,-33 -1,-1 0,-4 -3,0Z"/>
<path onmouseover="hoverPath(evt)" onmouseout="recoverPath(evt)" fill="rgb(174,199,230)" d="M  0,234l 0,1 5,0 1,-1 5,0 1,-1 5,0 1,-1 6,0 1,-1 5,0 1,-1 1,0 0,-1 -1,-1 -2,0 -1,1 -5,0 -1,1 -5,0 -1,1 -5,0 -1,1 -5,0 -1,1 -3,0 -1,1Z"/>
<path onmouseover="hoverPath(evt)" onmouseout="recoverPath(evt)" fill="rgb(170,198,238)" d="M  8,50l 0,15 1,1 5,0 0,-16 1,-1 -6,0 -1,1Z"/>
<path onmouseover="hoverPath(evt)" onmouseout="recoverPath(evt)" fill="rgb(240,240,236)" d="M  27,51l 0,-4 -1,-1 0,-10 -1,-1 0,-2 -1,-1 0,-1 -1,-1 -2,0 -1,-1 -1,0 -1,-1 -2,0 -1,-1 -3,0 -1,-1 -2,0 -1,-1 -1,0 -1,-1 -1,0 -1,-1 -1,0 -1,-1 -1,-1 -1,0 0,5 4,0 1,1 0,4 1,1 0,35 -1,1 -5,0 4,1 1,0 1,1 0,2 1,0 0,-3 1,-1 8,0 0,-17 1,17 0,13 -1,1 3,0 1,1 0,3 -1,1 -1,1 1,0 1,-1 1,0 1,-1 4,0 1,-1 11,0 1,1 0,-9 1,-1 -3,0 -1,1 0,3 -1,1 -9,0 -1,1 -5,0 7,-31 12,36 0,5 1,1 0,2 1,1 0,1 1,0 1,1 0,4 1,1 0,-4 1,-1 -1,0 -1,-1 0,-2 -1,-1 -1,-1 0,-1 -1,-1 0,-3 -1,-1 -12,-36 -20,16 0,-20 9,0 1,1 0,1 4,0 1,1 4,0 -19,17 20,-16Z"/>
<path onmouseover="hoverPath(evt)" onmouseout="recoverPath(evt)" fill="rgb(241,240,229)" d="M  29,246l -3,0 -1,1 -6,0 -1,1 -5,0 -1,1 -6,0 -1,1 -5,0 0,5 58,0 0,-12 -1,-1 0,-1 -4,0 -1,-1 -3,0 0,2 -1,1 -3,0 -1,1 -4,0 -1,1 -6,0 -1,1Z"/>
<path onmouseover="hoverPath(evt)" onmouseout="recoverPath(evt)" fill="rgb(242,241,233)" d="M  33,10l 0,1 1,1 0,3 -1,1 0,1 -1,1 0,1 -1,1 0,2 -1,1 0,1 -1,1 0,5 1,1 0,7 19,0 1,1 10,0 1,1 0,-4 1,-1 0,-8 1,-1 1,-1 7,0 0,-4 1,-1 2,0 1,1 0,3 15,0 1,1 0,3 1,-4 2,0 0,-1 -1,0 -1,-1 -1,0 -1,-1 -1,-1 0,-3 -1,-1 0,-8 1,-1 8,0 1,1 0,2 1,1 0,1 -1,-5 1,-1 17,0 0,-1 -10,0 -8,1 -22,0 -1,1 -2,0 0,7 -1,1 -2,0 -1,-1 0,-5 -1,-1 0,-1 -27,0 -1,1 -7,0Z"/>
<path onmouseover="hoverPath(evt)" onmouseout="recoverPath(evt)" fill="rgb(227,229,229)" d="M  45,75l 0,0 -1,1 -2,0 0,1 -1,1 0,6 3,0 1,-1 12,0 1,1 3,0 0,-3 -1,-1 0,0 -1,-1 0,-3 -1,-1 0,-1 -3,0 -1,1Z"/>
<path onmouseover="hoverPath(evt)" onmouseout="recoverPath(evt)" fill="rgb(178,199,222)" d="M  103,218l -5,0 -1,1 -5,0 -1,1 -6,0 -1,1 -5,0 -1,1 -6,0 -1,1 5,0 3,-1 4,0 2,-1 5,0 2,-1 4,0 2,-1 4,0 1,-1 6,0 1,-1 6,0 1,-1 7,0 1,-1 3,0 1,-1 5,0 1,-1 5,0 0,-1 -3,0 -3,1 -3,0 -3,1 -3,0 -1,1 -6,0 -2,1 -5,0 -2,1 -1,1Z"/>
<path onmouseover="hoverPath(evt)" onmouseout="recoverPath(evt)" fill="rgb(251,251,248)" d="M  121,2l 0,0 1,1 1,0 1,1 9,0 1,-1 8,0 1,-1 12,0 1,1 1,1 1,0 0,-1 1,-1 56,0 0,-2 -94,0 0,2 36,3 -36,-3Z"/>
<path onmouseover="hoverPath(evt)" onmouseout="recoverPath(evt)" fill="rgb(187,207,233)" d="M  149,133l 0,0 -1,-1 -1,0 -1,-1 -1,0 0,4 1,1 0,13 1,1 4,0 1,-1 7,0 1,-1 4,0 1,-1 9,0 1,-1 9,0 0,-1 1,-1 1,-1 0,-3 1,-1 0,-1 -3,0 -1,-1 0,-2 -3,0 -1,-1 -4,0 -1,-1 -6,0 -1,-1 -4,0 -1,-1 -6,0 0,1 -1,1Z"/>
<path onmouseover="hoverPath(evt)" onmouseout="recoverPath(evt)" fill="rgb(242,242,234)" d="M  150,169l -1,0 0,7 -1,1 0,14 -1,1 0,14 -1,1 0,2 2,0 1,-1 6,0 1,-1 5,0 1,-1 6,0 1,-1 5,0 1,-1 6,0 1,-1 8,0 1,1 0,1 2,0 1,1 1,-1 1,0 1,-1 6,0 0,-2 1,-1 7,0 1,-1 14,0 1,-1 6,0 1,-1 6,0 1,-1 5,0 1,-1 8,0 0,-31 -16,0 -1,-1 -27,0 -1,-1 -6,0 -1,-1 0,-2 -1,-1 -1,-1 0,-1 -2,0 0,2 -1,1 0,2 -1,1 -4,0 -1,-1 -1,-1 0,1 -1,1 -1,1 -1,1 -1,0 -1,1 -1,0 -1,1 -2,0 -1,1 -9,0 -1,1 -9,0 -1,-1 0,0 -1,1 -7,0 -1,-1 -1,1Z"/>
<path onmouseover="hoverPath(evt)" onmouseout="recoverPath(evt)" fill="rgb(242,241,233)" d="M  168,110l 0,3 4,0 1,1 0,2 1,1 0,2 1,1 0,4 1,1 1,1 2,0 1,1 4,0 1,1 7,0 1,1 0,3 -1,1 -3,0 -1,-1 -6,0 -1,1 3,0 1,1 4,0 -21,-24 17,16 -1,-1 -6,0 -1,-1 -1,-1 0,1 1,1 8,1 -17,-16 6,4 0,-2 -2,0 -1,-1 -1,-1 -1,-1 0,-4 -1,-1 -1,1 0,1 1,1 0,2 6,5 -6,-4 19,16 0,0 9,7Z"/>
<path onmouseover="hoverPath(evt)" onmouseout="recoverPath(evt)" fill="rgb(244,243,234)" d="M  247,142l 0,2 -1,1 0,1 1,1 1,0 1,1 1,0 1,1 2,0 1,1 1,0 0,-16 -2,0 0,2 -1,1 0,2 -1,1 -1,1 -2,0 -1,1Z"/>
<path onmouseover="hoverPath(evt)" onmouseout="recoverPath(evt)" fill="rgb(245,244,237)" d="M  250,38l 0,1 1,1 0,3 1,1 0,2 1,1 0,2 1,1 0,3 1,0 0,-29 -11,0 -1,-1 -6,0 0,1 2,0 1,1 10,0 1,1 0,2 -1,1 -2,0 0,3 1,1 0,3 1,1Z"/>
<path onmouseover="hoverPath(evt)" onmouseout="recoverPath(evt)" fill="rgb(242,241,232)" d="M  6,11l 0,5 1,1 0,1 1,1 1,0 1,1 1,0 1,1 1,0 1,1 1,1 1,0 1,1 6,0 1,-1 0,-1 1,-1 0,-2 1,-1 0,-1 1,-1 1,0 0,-3 1,-1 0,-4 -21,0 -1,1 -3,0 2,1Z"/>
<path onmouseover="hoverPath(evt)" onmouseout="recoverPath(evt)" fill="rgb(174,199,235)" d="M  27,31l 0,-7 1,-1 0,-1 1,-1 0,-2 1,-1 0,-1 1,-1 0,-1 1,-1 0,-1 -1,-1 0,1 -1,1 0,2 1,-2 -2,4 -1,0 0,1 -1,1 0,2 -1,1 0,1 -1,1 -1,1 -7,0 3,1 1,0 1,1 2,0 1,1 1,1 1,1 0,3 1,1 0,10 1,1 0,11 -1,1 -2,0 -1,-1 0,-5 -4,0 -1,-1 -2,0 0,15 1,1 0,13 5,0 1,-1 9,0 0,-3 1,-1 1,-1 7,0 1,-1 9,0 1,-1 5,0 1,1 0,1 1,1 0,3 1,1 3,0 1,1 0,4 1,1 0,14 2,0 1,1 2,0 1,1 2,0 1,1 2,0 1,1 1,0 1,1 -1,-2 0,0 -1,-1 0,-1 -1,-1 0,-10 -1,-1 0,-3 1,-1 -1,-1 0,-6 1,-1 0,-2 -1,-1 0,-5 -1,-1 0,-5 -1,-1 0,-4 -1,-1 0,-4 -1,-1 0,-4 -1,-1 0,-10 -1,-1 0,-8 -6,0 -1,1 0,8 -1,1 0,4 -1,1 -2,0 -1,-1 -10,0 -1,-1 -19,0 2,2 0,0 1,-1 16,0 -18,2 0,4 1,1 0,6 1,1 0,2 1,1 0,0 -6,-26 0,-1 7,27 15,0 1,-1 1,0 1,1 -18,0 -7,-27 23,11 4,0 1,1 0,5 1,1 0,11 -1,1 -2,0 -3,-19 -23,-11 1,3 0,0 -1,-3Z"/>
<path onmouseover="hoverPath(evt)" onmouseout="recoverPath(evt)" fill="rgb(253,253,253)" d="M  43,231l -7,0 -1,-1 0,-3 -1,-1 -1,-1 0,2 1,1 0,3 -1,1 6,0 4,-1 3,-1 0,1 1,-1 4,0 1,-1 5,0 1,-1 7,0 1,-1 7,0 1,-1 6,0 1,-1 4,0 1,-1 5,0 1,-1 6,0 1,-1 6,0 1,-1 6,0 1,-1 5,0 1,-1 4,0 1,-1 3,0 0,-1 -1,0 -3,1 -5,0 -1,1 -6,0 -1,1 -6,0 -1,1 -5,0 -1,1 -5,0 -1,1 -6,0 -1,1 -6,0 -1,1 -9,0 -1,-1 0,-1 -1,-1 0,-18 -1,-1 0,-6 -1,0 0,21 1,1 0,7 -1,1 1,0 -19,3 -3,1 14,-3 -2,0 -4,1 -1,0 -21,4 -3,0 -1,1 -6,0 -1,1 2,0 6,-1Z"/>
<path onmouseover="hoverPath(evt)" onmouseout="recoverPath(evt)" fill="rgb(177,200,224)" d="M  61,223l -1,1 -8,0 -1,1 -5,0 -1,1 -5,0 -1,1 -2,0 0,2 5,0 1,-1 5,0 1,-1 4,0 1,-1 4,0 1,-1 4,0 0,-5 -1,-1 0,3 -1,1Z"/>
<path onmouseover="hoverPath(evt)" onmouseout="recoverPath(evt)" fill="rgb(244,242,235)" d="M  63,99l 0,1 1,1 0,18 -1,1 -1,0 -1,1 -10,0 -1,-1 0,-1 -1,-1 0,3 13,0 1,1 0,2 1,1 0,15 1,0 1,-1 0,0 1,-1 12,0 1,-1 7,0 1,1 8,0 0,-5 1,-1 2,0 1,1 0,5 37,0 0,-1 1,-1 0,-1 -1,-1 0,0 -1,-1 -1,0 -1,-1 -1,-1 0,-2 -2,0 -1,-1 -2,0 -1,-1 0,-2 1,-1 5,0 -1,-1 -4,0 -1,-1 -2,0 -1,-1 -3,0 -1,-1 -1,0 -1,-1 -1,-1 -4,0 -1,-1 -1,-1 -3,0 -1,-1 -2,0 -1,-1 -1,0 -1,-1 -1,-1 0,-15 1,-1 0,-1 -1,0 0,1 -1,9 0,5 -1,1 -5,0 -1,-1 -1,-1 -1,0 -1,-1 -1,-1 -1,-1 -4,0 -1,-1 -1,1 -2,0 -1,-1 -1,0 -1,-1 -2,0 -1,-1 -2,0 -1,-1 -2,0 -1,-1 -2,0 -1,-1 0,-14 -1,-1 0,-4 -1,0 0,11 1,1 0,5 -1,1 39,16 2,0 1,1 1,0 1,1 1,0 1,1 0,2 -1,1 -2,0 -1,-1 -1,0 -1,-1 -1,0 -1,-1 0,-2 1,-1 -39,-16Z"/>
<path onmouseover="hoverPath(evt)" onmouseout="recoverPath(evt)" fill="rgb(178,202,237)" d="M  83,84l -1,1 0,4 1,1 0,6 1,1 0,2 1,1 1,1 1,1 1,1 0,1 1,0 1,1 1,1 1,1 1,0 1,1 1,1 3,0 0,-5 1,-1 0,-9 1,-1 3,0 1,1 0,2 8,0 1,-1 1,-1 0,-2 2,-2 9,0 -9,-1 0,-9 -1,9 -11,0 -1,-1 0,-4 -2,0 -1,-1 0,-3 1,-1 0,-14 -9,0 0,6 -1,1 0,1 -1,1 -7,0Z"/>
<path onmouseover="hoverPath(evt)" onmouseout="recoverPath(evt)" fill="rgb(210,218,226)" d="M  92,47l 13,0 1,1 1,0 0,-2 -1,-1 0,-5 -1,-1 0,-3 -1,-1 0,-3 -1,-1 0,3 1,2 0,2 1,2 0,2 1,4 0,1 -14,-1 0,1 -9,0 -1,-1 0,-3 -1,2 -4,0 -1,-1 0,-1 -2,0 0,2 1,1 0,4 1,1 0,4 1,1 0,4 1,1 0,5 2,0 0,-1 -1,-1 0,-5 -1,-1 0,-5 -1,-1 0,-2 1,-1 2,0 0,-1 1,-1Z"/>
<path onmouseover="hoverPath(evt)" onmouseout="recoverPath(evt)" fill="rgb(244,245,244)" d="M  91,63l -1,0 0,7 -1,1 -1,1 -7,0 -1,-1 0,-3 -1,0 0,4 1,1 0,4 -1,1 0,4 1,1 0,2 -1,1 0,1 1,1 0,10 1,1 0,1 1,1 0,1 1,1 1,0 1,1 1,0 -1,-1 -1,-1 0,0 -1,-1 -1,-1 0,-2 -1,-1 0,1 2,4 -3,-15 0,-1 1,-3 0,-10 -1,-1 0,0 11,-9 11,0 1,1 0,16 -1,1 0,1 1,0 0,-1 1,-5 0,-15 1,-1 2,0 1,-1 2,0 0,-1 -1,0 -1,-1 -1,-1 -1,-1 -3,0 -1,-1 -1,0 3,2 0,4 -2,3 -11,0 12,-1Z"/>
<path onmouseover="hoverPath(evt)" onmouseout="recoverPath(evt)" fill="rgb(170,198,238)" d="M  102,195l 0,3 1,1 0,3 1,1 0,3 1,1 0,3 1,1 5,0 1,-1 6,0 1,-1 -1,0 -1,-1 -1,0 -1,-1 -1,0 -1,-1 0,-1 -1,-1 0,-9 -1,0 -1,-1 -7,0 -1,1Z"/>
<path onmouseover="hoverPath(evt)" onmouseout="recoverPath(evt)" fill="rgb(176,200,235)" d="M  103,99l 0,12 1,1 1,0 1,1 2,0 1,1 3,0 1,1 1,1 4,0 1,1 1,1 1,0 1,1 3,0 1,1 2,0 1,1 4,0 1,1 1,1 0,1 1,1 2,0 0,-1 -1,-1 0,-2 -1,-1 0,-2 -1,-1 0,-2 -1,-1 0,-2 -1,-1 0,-1 -1,-1 0,-2 -1,-1 0,-2 -1,-1 0,-1 -1,-1 0,-7 1,-1 0,-3 1,-1 0,-6 1,-1 0,-5 1,-1 0,-5 1,-1 0,-4 1,-1 0,-2 1,-1 0,-1 1,-1 0,-1 1,-1 0,-2 1,-1 0,-11 1,-1 0,-7 -1,-1 0,-1 -1,0 0,1 1,1 0,2 -1,1 0,3 -1,1 -1,1 -6,0 -1,-1 -1,-1 0,-2 -1,-1 0,-16 -8,0 -1,-1 0,-5 -1,-1 0,-1 -1,0 1,2 0,2 -1,1 -6,0 0,1 -1,1 -2,0 0,1 -1,1 -4,0 -1,-1 0,-3 -2,0 -1,-1 0,-5 -1,-1 0,-1 -1,-1 0,-2 -6,0 0,6 1,1 0,3 1,1 1,0 1,1 1,0 1,1 0,3 -1,1 -2,0 0,3 -1,1 -2,0 -1,-1 0,-3 -15,0 -1,-1 0,9 1,1 0,6 3,0 1,1 0,1 2,0 0,-1 1,-1 2,0 1,1 0,3 6,0 0,-3 1,-1 2,0 1,1 0,3 10,0 0,-1 -1,-1 0,-3 -1,-1 0,-3 -1,-1 0,-6 1,-1 2,0 1,1 0,1 1,1 0,3 1,1 0,3 1,1 0,5 1,1 0,4 -1,1 -3,0 -1,-1 -22,0 0,1 -1,1 -2,0 1,1 0,5 1,1 0,5 1,1 0,6 5,0 1,-1 0,-7 1,-1 12,0 1,-1 0,-3 -1,-1 -1,0 -1,-1 0,-2 1,-1 3,0 1,1 3,0 1,1 1,1 1,1 1,0 1,1 0,3 -1,1 -2,0 -1,1 -2,0 0,3 -1,1 0,7 1,1 0,3 -1,1 0,9 9,0 0,-8 1,-1 2,0 1,1 0,9 8,0 1,1 0,2 -1,1 -9,0 -1,1 0,2 -1,1 -1,1 -1,1 -9,0 -1,1Z"/>
<path onmouseover="hoverPath(evt)" onmouseout="recoverPath(evt)" fill="rgb(171,196,231)" d="M  118,7l -1,1 -17,0 0,1 1,1 0,3 -1,1 0,4 2,0 1,1 0,3 2,0 0,-1 1,-1 2,0 0,-1 1,-1 6,0 0,-1 -1,-1 0,-2 1,-1 3,0 1,1 0,1 1,1 0,5 9,0 1,-1 4,0 1,1 0,8 1,1 0,1 1,1 0,-9 1,-1 0,-1 1,-1 0,-2 1,-1 8,0 1,-1 0,-2 -1,-1 0,-1 -4,0 -1,-1 0,-3 -1,-1 0,-2 -7,0 -1,1 -11,0 -1,-1 -1,0 -1,-1 -1,0 -1,1Z"/>
<path onmouseover="hoverPath(evt)" onmouseout="recoverPath(evt)" fill="rgb(244,243,237)" d="M  130,23l -1,0 0,15 1,1 0,2 1,1 4,0 1,-1 0,-3 1,-1 -1,-1 0,-2 -1,-1 -1,-1 0,-1 -1,-1 0,-8 -2,0 -1,1Z"/>
<path onmouseover="hoverPath(evt)" onmouseout="recoverPath(evt)" fill="rgb(176,201,235)" d="M  131,155l 0,5 1,1 0,1 5,0 1,-1 5,0 0,-4 -1,-1 0,-7 -1,-1 0,-8 -1,-1 0,-6 -1,-1 0,-1 -1,0 -1,-1 -2,0 1,1 1,0 1,1 1,1 0,6 -1,1 -37,0 0,2 5,0 1,1 1,1 0,2 1,1 0,1 1,1 0,2 1,1 0,1 1,1 4,0 1,1 5,0 1,-1 2,0 0,-1 -1,-1 0,-3 1,-1 2,0 1,1 0,1 1,1 0,3 1,0 1,1Z"/>
<path onmouseover="hoverPath(evt)" onmouseout="recoverPath(evt)" fill="rgb(173,199,237)" d="M  155,94l -1,0 -1,-1 0,1 1,1 0,1 1,1 0,2 1,1 0,2 1,1 0,2 1,1 0,2 1,1 0,1 1,1 0,3 1,1 0,1 1,1 0,4 1,1 0,4 3,0 1,1 5,0 1,1 3,0 1,1 0,2 -1,1 3,0 1,-1 0,0 1,-1 8,0 1,1 1,0 0,-1 -1,0 -7,-1 -4,0 -1,-1 -1,0 -22,-34 -3,-1 1,-1 0,-5 -1,-1 -1,0 -1,-1 -1,1 -2,0 -1,-1 -2,0 0,4 3,0 1,1 3,0 1,1 0,2 3,1 0,0 18,31 0,-4 -1,-1 0,-2 -1,-1 0,-2 -4,0 -1,-1 0,-6 -1,-1 0,-3 1,-1 1,-1 2,0 1,1 1,1 0,4 1,1 1,1 2,0 1,1 0,6 1,1 0,3 1,1 1,1 6,0 1,1 2,0 1,1 1,1 4,0 1,1 0,4 3,0 1,1 0,2 -1,1 -7,0 1,1 0,2 7,0 1,1 6,0 1,1 1,1 0,6 1,-1 0,-4 1,-1 5,0 1,1 3,0 1,1 6,0 1,1 5,0 1,1 1,1 1,0 1,1 3,0 1,1 0,1 1,0 1,1 2,0 1,1 2,0 1,1 2,0 1,1 2,0 1,1 1,0 0,-2 -2,0 -1,-1 -2,0 -1,-1 -1,0 -1,-1 -1,0 -1,-1 -1,-1 0,-3 1,-1 -1,-1 0,-2 1,-1 4,0 1,-1 0,-2 1,-1 0,-1 -1,-1 0,-4 -1,-1 0,-3 -1,-1 0,-2 -1,-1 0,-3 -1,-1 0,-2 -1,-1 0,1 -1,1 0,1 -1,1 1,1 0,0 1,1 1,1 0,3 -1,1 0,2 -1,1 0,1 -1,1 0,3 -1,1 -2,0 -1,-1 0,-1 -1,-1 -3,0 -1,-1 -3,0 -1,-1 -2,0 -1,-1 -1,-1 0,-10 1,-1 0,-8 -1,-1 0,-7 1,-1 3,0 1,1 0,5 4,0 1,-1 0,0 -1,-1 0,-2 -1,-1 0,-3 -7,0 -1,-1 -17,0 -1,-1 -7,0 -1,-1 -4,0 -1,-1 -21,0 -1,1 -14,0 14,31 -18,-31Z"/>
<path onmouseover="hoverPath(evt)" onmouseout="recoverPath(evt)" fill="rgb(240,241,239)" d="M  158,115l 0,-3 -1,-1 0,-1 -1,-1 0,-2 -1,-1 0,-2 -1,-1 0,-2 -1,-1 0,-2 -1,-1 0,-1 -1,-1 -1,-1 0,-2 -3,0 -1,-1 -2,0 -1,1 -3,0 -1,1 -7,0 0,1 -1,1 0,5 1,1 0,1 1,1 0,2 1,1 0,2 1,1 0,1 1,1 0,2 1,1 0,2 1,1 0,2 1,1 0,2 1,1 0,3 -1,1 -4,0 -1,-1 -5,0 3,1 2,0 1,1 3,0 1,1 1,0 1,1 0,1 1,1 0,6 1,1 0,8 1,1 0,7 1,1 0,6 -1,1 -5,0 -1,1 -7,0 -1,-1 0,-1 -1,-1 0,-5 -1,0 -1,-1 0,-3 -1,-1 0,5 -2,0 -1,1 -7,0 -1,-1 -4,0 -1,-1 -1,-1 0,-1 -1,-1 0,-2 -1,-1 0,-1 -1,-1 0,-2 -1,-1 -5,0 -1,-1 0,-3 -1,-1 0,-5 -1,6 -10,0 -1,-1 -5,0 -1,1 -12,0 -1,1 0,1 12,0 1,-1 9,0 1,1 7,0 1,1 0,8 1,1 0,9 1,1 0,5 7,0 1,-1 12,0 1,1 3,0 1,-1 22,0 1,-1 0,-1 -1,-1 0,-3 -1,-1 0,-4 1,-1 1,-1 6,0 1,-1 3,0 1,-1 9,0 1,-1 3,0 1,1 0,2 1,0 0,-2 1,-1 9,0 1,-1 1,0 1,-1 0,-2 1,-1 0,-2 1,-1 0,-2 1,-1 0,-2 -1,-1 -4,0 4,1 0,2 -1,2 0,1 -1,3 -1,1 0,1 -1,1 -9,0 -1,1 -9,0 -1,1 -4,0 -3,-35 0,36 -5,0 -1,1 -6,0 -1,-1 13,0 0,-36 -14,32 0,-10 -1,-1 0,-6 1,-1 3,0 1,1 1,0 1,1 4,0 0,-1 1,-1 8,0 1,1 4,0 1,1 5,0 1,-1 -3,0 -1,-1 -5,0 -1,-1 -3,0 -1,-1 0,-4 -1,-1 0,-4 -1,-1 0,-1 -15,31 14,-32 -17,8 -1,-1 0,-3 -1,-1 0,-2 -1,-1 0,-2 -1,-1 0,-2 -1,-1 0,-1 -1,-1 0,-2 -1,-1 0,-1 -1,-1 0,-3 1,-1 9,0 0,-4 1,-1 5,0 -8,30 17,-8 -16,8 0,0 1,1 -1,-1 16,-8 -8,-20 1,1 0,2 1,1 0,2 1,1 0,2 1,1 0,3 1,1 1,1 0,1 -6,-16 8,20 -3,0 1,2 0,3 1,1 0,4 -1,1 -6,0 -1,-1 -3,0 -1,-1 10,-9Z"/>
<path onmouseover="hoverPath(evt)" onmouseout="recoverPath(evt)" fill="rgb(174,200,236)" d="M  190,150l -2,0 -1,1 -1,0 -1,1 -9,0 0,2 -1,1 -3,0 -1,-1 0,-2 -1,0 -1,1 -9,0 -1,1 -3,0 -1,1 -6,0 -1,1 0,2 1,1 0,3 1,1 0,3 -1,1 1,0 1,-1 2,0 1,1 5,0 0,-10 1,-1 2,0 1,1 0,10 7,0 1,-1 9,0 1,-1 2,0 1,-1 1,0 1,-1 1,0 1,-1 1,-1 0,-1 1,-1 2,0 1,1 1,1 2,0 0,-2 1,-1 0,-2 1,-1 4,0 0,-2 -9,0 -1,-1 0,-1 -1,-1Z"/>
<path onmouseover="hoverPath(evt)" onmouseout="recoverPath(evt)" fill="rgb(217,227,235)" d="M  233,3l 0,2 1,1 0,3 1,1 0,2 1,1 0,3 1,1 0,4 6,0 0,-4 1,-1 0,-7 1,-1 0,-1 1,-1 0,-1 1,-1 0,-1 1,-1 1,-1 1,-1 -18,0 0,2 1,1Z"/>
<path onmouseover="hoverPath(evt)" onmouseout="recoverPath(evt)" fill="rgb(170,198,238)" d="M  239,219l 0,0 -1,-1 0,1 1,1 0,0 1,1 0,1 1,1 1,1 0,2 1,1 0,8 -1,1 0,2 -1,1 0,1 -1,1 0,2 1,1 0,2 1,1 1,1 0,1 1,1 0,1 1,1 0,3 3,0 0,-8 -1,-1 0,0 -1,-1 -1,-1 0,-7 1,-1 0,-5 1,-1 0,-2 -1,-1 0,-1 -1,-1 -1,0 -1,-1 0,-5Z"/>
<path onmouseover="hoverPath(evt)" onmouseout="recoverPath(evt)" fill="rgb(243,242,233)" d="M  250,3l 0,0 -1,1 0,1 -1,1 0,1 -1,1 0,1 -1,1 0,7 -1,1 0,4 10,0 0,-20 -4,0 -1,1Z"/>
<path onmouseover="hoverPath(evt)" onmouseout="recoverPath(evt)" fill="rgb(180,201,227)" d="M  252,75l 0,0 1,1 0,2 1,1 0,2 1,0 0,-26 -2,0 -1,-1 0,-3 -1,-1 0,-2 -1,-1 0,-2 -1,-1 0,-3 -1,-1 0,-2 -1,-1 0,-3 -1,-1 0,-5 1,-1 -7,0 0,3 -1,1 1,1 0,2 1,1 0,3 1,1 0,2 1,1 0,3 1,1 0,2 1,1 0,3 1,1 0,2 1,1 0,2 1,1 0,3 1,1 0,2 1,1 0,2 1,1 0,3 1,1Z"/>
</svg>