<svg width="256" height="256" xmlns="http://www.w3.org/2000/svg"><script> 
var tempColor;
function hoverPath(evt){
obj = evt.target;
tempColor = obj.getAttribute("fill");
obj.setAttribute("fill","red");
//alert(tempColor);
//obj.setAttribute("stroke","red");}
function recoverPath(evt){
obj = evt.target;
obj.setAttribute("fill", tempColor);
//obj.setAttribute("stroke", tempColor);
}</script><path onmouseover="hoverPath(evt)" onmouseout="recoverPath(evt)" fill="rgb(242,241,233)" d="M  43,196l 0,0 -1,1 0,2 -1,1 0,2 -1,1 0,11 -1,1 0,3 -1,1 0,1 1,1 0,2 1,0 1,-1 9,0 1,-1 2,0 1,-1 4,0 1,-1 9,0 1,-1 4,0 1,-1 5,0 1,-1 5,0 1,-1 5,0 1,-1 6,0 1,-1 11,0 1,-1 8,0 1,-1 8,0 1,-1 7,0 2,-2 8,0 1,-1 6,0 1,-1 5,0 1,1 3,0 1,-1 10,0 1,1 1,0 1,1 0,1 2,0 1,-1 2,0 1,1 0,2 -1,1 0,11 1,0 1,1 0,3 1,0 1,1 17,0 1,1 0,-2 -1,-1 0,-3 -1,-1 0,-2 -1,-1 0,-3 1,-1 0,-1 -1,-1 -1,0 -1,-1 0,-2 1,-1 0,-1 -2,0 -1,-1 0,-4 -1,-1 0,-2 1,-1 0,-2 -2,0 -1,-1 0,-3 1,-1 0,-1 -1,-1 0,-3 -2,0 -1,-1 0,-3 1,-1 0,-1 -1,0 -1,-1 -1,-1 0,-2 -1,-1 0,-3 1,-1 0,-1 -1,0 -1,-1 -1,-1 0,-2 -1,-1 0,-2 -1,-1 0,-3 -1,-1 0,-2 1,-1 0,-2 -2,0 -1,-1 0,-3 -1,-1 0,-2 1,-1 0,-2 -1,-1 0,-3 1,-1 -1,0 -1,-1 -1,0 -1,-1 -1,-1 0,-2 -1,-1 0,-3 -1,-1 0,-2 -1,-1 0,-2 -1,-1 0,-3 -1,-1 0,-2 -1,-1 0,-2 -1,-1 0,-2 -1,-1 0,-2 -1,-1 0,-3 1,-1 -1,-1 -1,0 -1,-1 -3,0 -1,1 -1,0 -1,1 -2,0 -1,1 -1,0 -1,1 -1,0 -1,1 -2,0 -1,1 -2,0 -1,1 -1,0 -1,1 -2,0 -1,1 -2,0 -1,1 -1,0 -1,1 -2,0 -1,1 -1,0 -1,1 -2,0 -1,1 -1,0 -1,1 -1,0 -1,1 -1,0 -1,1 -1,0 -1,1 -1,0 -1,1 -1,0 0,2 1,1 0,2 1,1 0,2 1,1 0,2 1,1 0,2 1,1 0,2 1,1 0,2 2,0 1,1 0,2 -1,1 0,1 1,1 0,2 4,0 1,1 1,1 1,1 0,1 1,1 0,3 4,0 1,-1 2,0 0,-5 1,-1 2,0 1,1 0,2 1,1 0,4 -1,1 -1,1 -3,0 -1,1 0,1 -1,1 -2,0 -1,-1 -4,0 -1,1 0,1 1,1 0,2 1,1 0,2 1,1 0,2 1,1 0,2 1,1 0,6 -1,1 0,1 -1,1 -1,1 -9,0 -1,1 -12,0 -1,1 -8,0 -1,1 -9,0 -1,1 -10,0 -1,1 -6,0 -1,1 -6,0 -1,1 -13,0 -1,-1 -1,-1 0,-1 -1,-1 -1,-1 0,-22 -1,-1 0,-5 -1,1 0,5 1,1 0,13 -1,1 0,5 -1,1 0,2 -1,1 0,2 -1,1 -1,0 0,3 114,-91 6,0 1,1 1,1 0,2 1,1 0,2 1,1 0,2 1,1 0,2 1,1 0,2 1,1 0,3 1,1 0,2 1,1 0,2 1,1 0,2 1,1 0,3 1,1 0,2 1,1 0,2 1,1 0,3 1,1 0,2 1,1 0,2 1,1 0,3 1,1 0,2 1,1 0,3 1,1 0,2 1,1 0,3 1,1 0,2 1,1 0,4 -1,1 -1,1 -3,0 -1,-1 0,-1 -1,-1 0,-1 -1,-1 0,-2 -1,-1 0,-2 -1,-1 0,-3 -1,-1 0,-2 -1,-1 0,-2 -1,-1 0,-2 -1,-1 0,-2 -1,-1 0,-2 -1,-1 0,-2 -1,-1 0,-2 -1,-1 0,-2 -1,-1 0,-2 -1,-1 0,-1 -1,-1 0,-2 -1,-1 0,-2 -1,-1 0,-2 -1,-1 0,-2 -1,-1 0,-2 -1,-1 0,-3 -1,-1 0,-2 -1,-1 0,-2 -1,-1 0,-2 -1,-1 0,-4 1,-1 -114,91Z"/>
<path onmouseover="hoverPath(evt)" onmouseout="recoverPath(evt)" fill="rgb(243,242,234)" d="M  36,126l 0,0 1,1 0,2 1,1 1,1 1,0 1,1 0,2 1,1 0,1 1,1 1,1 7,0 1,-1 5,0 1,-1 3,0 1,-1 3,0 1,-1 4,0 1,-1 3,0 1,-1 2,0 1,-1 2,0 1,-1 2,0 1,-1 1,0 1,-1 2,0 1,-1 1,0 1,-1 1,0 1,-1 1,0 1,-1 1,0 1,-1 1,0 1,-1 1,0 1,-1 2,0 1,-1 1,0 1,-1 1,0 1,-1 1,0 1,-1 -1,-1 0,-2 -1,-1 0,-2 -1,-1 0,-2 -1,-1 0,-2 -1,-1 0,-1 -1,-1 0,-2 -1,-1 0,-2 -1,-1 0,-2 -1,-1 0,-2 -1,-1 0,-2 -1,-1 0,-1 -1,-1 0,-2 -1,-1 0,-1 -1,-1 0,-2 -1,-1 0,-1 -1,-1 0,-1 -1,-1 0,-2 -1,-1 0,-1 -1,-1 0,-1 -1,-1 0,-2 -1,-1 0,-1 -1,-1 -1,-1 -1,-1 -1,0 -1,-1 -4,0 -1,1 -2,0 -1,1 -2,0 -1,1 -1,0 -1,1 -2,0 -1,1 -2,0 -1,1 -1,0 -1,1 -2,0 -1,1 -1,0 -1,1 -2,0 -1,1 -1,0 -1,1 -2,0 -1,1 -2,0 -1,1 -1,0 -1,1 -3,0 -1,1 -1,0 -1,1 -2,0 -1,1 -2,0 -1,1 -1,0 -1,1 -2,0 -1,1 -2,0 -1,1 -2,0 -1,1 -1,0 -1,1 -2,0 -1,1 -1,0 -1,1 -1,0 -1,1 -2,0 -1,1 -1,0 -1,1 -1,0 -1,1 -1,0 0,1 -1,1 -1,0 0,3 1,1 0,0 1,1 1,1 1,1 1,1 1,1 1,1 1,0 1,1 1,1 1,1 1,1 1,1 1,1 1,1 1,1 1,1 1,1 1,1 0,1 1,1 1,1 1,1 1,0 1,1 0,2 1,1 1,1 1,1 1,0 1,1 0,2 3,3Z"/>
<path onmouseover="hoverPath(evt)" onmouseout="recoverPath(evt)" fill="rgb(171,198,238)" d="M  158,108l 0,1 1,1 0,2 1,1 0,2 1,1 0,2 1,1 0,3 1,1 0,2 1,1 0,2 1,1 0,2 1,1 0,2 1,1 0,2 1,1 0,1 1,1 0,2 1,1 0,2 1,1 0,2 1,1 0,2 1,1 0,2 1,1 0,2 1,1 0,2 1,1 0,2 1,1 0,2 1,1 0,3 1,1 0,2 1,1 0,2 1,1 0,1 1,1 0,1 1,0 1,-1 0,-2 -1,-1 0,-2 -1,-1 0,-3 -1,-1 0,-2 -1,-1 0,-3 -1,-1 0,-2 -1,-1 0,-3 -1,-1 0,-2 -1,-1 0,-2 -1,-1 0,-3 -1,-1 0,-2 -1,-1 0,-2 -1,-1 0,-3 -1,-1 0,-2 -1,-1 0,-2 -1,-1 0,-2 -1,-1 0,-3 -1,-1 0,-2 -1,-1 0,-2 -1,-1 0,-2 -1,-1 0,-2 -1,-1 0,-2 -1,-1 -3,0 -1,1Z"/>
<path onmouseover="hoverPath(evt)" onmouseout="recoverPath(evt)" fill="rgb(253,253,253)" d="M  180,92l 0,0 1,1 1,1 0,5 1,-1 0,-1 1,-1 1,-1 1,-1 2,0 1,1 0,-1 1,-1 0,-1 1,-1 1,-1 3,0 1,-1 3,0 1,-1 2,0 1,-1 3,0 1,-1 3,0 1,-1 3,0 1,-1 4,0 1,-1 3,0 1,-1 4,0 1,-1 3,0 1,-1 4,0 1,-1 4,0 1,-1 3,0 1,-1 4,0 1,-1 3,0 0,-1 -3,0 -1,1 -4,0 -1,1 -4,0 -1,1 -4,0 -1,1 -3,0 -1,1 -3,0 -1,1 -4,0 -1,1 -3,0 -1,1 -4,0 -1,1 -3,0 -1,1 -3,0 -1,1 -4,0 -1,1 -2,0 -1,1 -2,0 -1,1 -4,0 -1,1 -3,0 -1,1 -5,0 -1,1Z"/>
<path onmouseover="hoverPath(evt)" onmouseout="recoverPath(evt)" fill="rgb(236,238,235)" d="M  2,49l -2,0 0,3 2,0 1,-1 1,0 1,-1 2,0 1,-1 2,0 1,-1 1,0 1,-1 2,0 1,-1 2,0 1,-1 1,0 1,-1 2,0 0,-4 -1,1 -2,0 -1,1 -2,0 -1,1 -1,0 -1,1 -1,0 -1,1 -2,0 -1,1 -1,0 -1,1 -1,0 -1,1 -2,0 -1,1Z"/>
<path onmouseover="hoverPath(evt)" onmouseout="recoverPath(evt)" fill="rgb(243,243,236)" d="M  2,229l -2,0 0,26 29,0 0,-4 1,-1 0,-3 1,-1 0,-1 1,-1 0,-4 1,-1 0,-5 -1,-1 0,-3 -1,-1 0,-9 -1,-1 0,-2 1,-1 1,-1 1,-1 -2,1 -6,0 -1,1 -10,0 -1,-1 0,-2 1,-1 0,-1 -1,-1 0,-3 -1,-1 0,-4 1,-1 2,0 1,-1 14,0 1,-1 4,0 0,-1 1,-1 0,-1 1,-1 0,-1 1,-1 0,-1 1,-1 0,-2 1,-1 0,-3 1,-1 0,-5 1,-1 0,-3 -1,-1 0,-11 -1,-1 0,-1 -1,-1 -5,0 -1,-1 0,-7 1,-1 -1,-1 0,0 -1,1 -1,0 0,6 -1,1 -1,1 -6,0 -1,1 -4,0 -1,1 -2,0 0,1 -1,1 -2,0 1,1 0,1 1,1 0,2 -1,1 -2,0 -1,1 -4,0 -1,1 -1,1 -1,0 -1,1 -2,0 0,21 7,0 1,1 1,1 0,3 1,1 0,6 1,1 0,7 -1,1 -3,0 -1,1 4,0 1,1 1,1 0,2 3,0 1,1 0,4 -1,1 -1,0 -1,1 -2,0 -1,1 -5,0 -1,1Z"/>
<path onmouseover="hoverPath(evt)" onmouseout="recoverPath(evt)" fill="rgb(173,199,238)" d="M  0,205l 0,9 5,0 1,-1 3,0 0,-5 -1,-1 0,-6 -1,-1 0,-3 -1,-1 -6,0Z"/>
<path onmouseover="hoverPath(evt)" onmouseout="recoverPath(evt)" fill="rgb(243,242,232)" d="M  9,0l -9,0 0,15 2,0 1,-1 1,0 1,-1 2,0 1,-1 6,0 0,-2 1,-1 2,0 1,-1 1,0 1,-1 1,0 1,-1 2,0 1,-1 1,0 1,-1 2,0 1,-1 1,0 1,-1 2,0 1,-1 1,0 0,-1Z"/>
<path onmouseover="hoverPath(evt)" onmouseout="recoverPath(evt)" fill="rgb(242,241,233)" d="M  85,185l 2,0 1,-1 9,0 1,-1 10,0 1,-1 11,0 1,-1 8,0 0,-4 1,-1 0,-1 -1,-1 0,-2 -1,-1 0,-2 -1,-1 0,-1 -1,-1 0,-2 -1,-1 0,-2 -1,-1 0,-2 -1,-1 0,-2 -1,-1 0,-2 -1,-1 0,-2 -1,-1 0,-2 -1,-1 0,-2 -1,-1 0,-2 -1,-1 0,-2 -1,-1 0,-2 -1,-1 0,-2 -1,-1 0,-2 -1,-1 0,-1 -1,-1 0,-2 -2,0 -1,1 -1,0 -1,1 -1,0 -1,1 -1,0 -1,1 -1,0 -1,1 -1,0 -1,1 -2,0 -1,1 -1,0 -1,1 -1,0 -1,1 -1,0 -1,1 -1,0 -1,1 -1,0 -1,1 -2,0 -1,1 -2,0 -1,1 -3,0 -1,1 -3,0 -1,1 -3,0 -1,1 -4,0 -1,1 -3,0 -1,1 -5,0 -1,1 -4,0 -1,1 -1,0 1,1 0,1 1,1 0,1 1,1 0,1 1,1 0,2 1,1 0,2 1,1 0,5 1,1 0,22 1,1 0,1 1,0 1,1 6,0 1,-1 6,0 1,-1 7,0 1,-1Z"/>
<path onmouseover="hoverPath(evt)" onmouseout="recoverPath(evt)" fill="rgb(242,241,235)" d="M  89,255l 95,0 0,-1 -1,-1 0,-1 -1,-1 -1,-1 0,-4 -1,-1 0,-2 -5,0 -1,1 -11,0 -1,1 -8,0 -1,-1 -1,-1 0,-1 -1,-1 0,-3 1,-1 -4,0 -1,1 -1,0 1,1 0,7 -1,1 -4,0 -1,-1 -1,-1 0,-3 -1,-1 0,-3 -26,0 -1,-1 0,1 -1,1 -18,0 -1,-1 -1,-1 0,-2 -1,-1 0,-1 -1,1 -1,0 -1,1 -11,0 -1,1 0,12 -1,1 -1,1 -3,3 -1,1 -5,0 -1,-1 0,-17 1,-1 -8,0 7,19 0,1Z"/>
<path onmouseover="hoverPath(evt)" onmouseout="recoverPath(evt)" fill="rgb(241,239,229)" d="M  106,77l 0,2 1,1 0,1 1,1 14,0 1,1 0,2 -1,1 -11,0 -1,1 0,1 1,1 0,1 1,1 1,0 1,1 9,0 0,-4 1,-1 2,0 1,1 0,6 2,0 1,-1 5,0 1,-1 3,0 1,-1 4,0 1,-1 5,0 1,1 2,0 1,1 1,0 1,1 1,1 0,2 1,1 1,0 1,-1 1,0 0,-2 1,-1 0,-2 -1,-1 0,-2 -1,-1 0,-2 -1,-1 0,-1 -1,-1 0,-2 -1,-1 0,-1 -1,-1 0,-2 -1,-1 0,-1 -1,1 -2,0 -1,-1 -1,-1 0,-1 -1,-1 -1,-1 -1,-1 0,-1 -1,-1 -2,0 -1,-1 -1,-1 0,-1 -1,0 -1,-1 -2,0 -1,-1 -12,0 -1,1 -23,0 16,1 0,0 1,1 0,7 -1,1 0,1 -1,1 -4,0 -1,1 -5,0Z"/>
<path onmouseover="hoverPath(evt)" onmouseout="recoverPath(evt)" fill="rgb(250,236,136)" d="M  121,0l -2,0 0,1 1,1 1,1 0,1 1,1 1,1 0,1 1,1 0,1 1,1 1,1 0,1 1,1 1,1 0,1 1,1 0,1 1,1 1,1 0,1 1,1 0,1 1,1 0,1 1,1 0,1 1,1 0,1 1,1 0,1 1,1 0,1 1,1 1,1 0,1 1,1 0,1 1,1 0,1 1,1 0,2 1,1 1,1 0,1 1,1 0,1 1,1 0,1 1,0 1,1 0,1 1,0 1,1 0,3 -1,1 1,1 1,1 1,1 2,2 0,2 -1,1 -3,0 -1,-1 -2,0 -1,-1 1,2 0,0 1,1 0,0 1,1 0,1 1,1 1,1 1,1 0,1 1,1 1,-1 2,0 1,1 0,1 1,1 0,2 1,1 0,1 1,1 0,2 1,1 0,1 1,1 0,2 1,1 0,2 1,1 0,3 2,0 1,1 0,1 1,1 0,2 1,1 0,2 1,1 0,2 -1,1 0,1 1,1 0,2 1,1 0,2 1,1 0,2 1,1 0,2 1,1 0,3 1,1 0,2 1,1 0,2 1,1 0,3 1,1 0,2 1,1 1,0 1,1 1,0 1,1 0,2 -1,1 0,1 1,1 0,4 -1,1 1,1 0,3 2,0 1,1 0,4 -1,1 1,1 0,3 1,1 0,2 1,1 0,2 1,1 1,0 1,1 0,3 -1,1 0,1 1,1 0,2 1,1 1,0 1,1 0,3 -1,1 0,1 2,0 1,1 0,3 1,1 0,3 -1,1 0,1 2,0 1,1 0,4 -1,1 1,1 0,4 2,0 1,1 0,3 -1,1 1,0 1,1 0,0 1,1 0,3 -1,1 0,1 1,1 0,2 1,1 0,3 1,1 0,3 1,-2 2,0 1,1 0,5 -1,1 -1,0 0,1 1,1 0,2 1,1 1,0 1,1 0,3 -1,1 0,1 1,1 0,2 1,1 0,2 1,1 0,3 15,0 0,-2 -1,-1 0,-3 -1,-1 0,-2 -1,-1 0,-3 -1,-1 0,-3 -1,-1 0,-1 -1,-1 0,-4 -1,-1 0,-2 -1,-1 0,-3 -1,-1 0,-2 -1,-1 0,-3 -1,-1 0,-2 -1,-1 0,-3 -1,-1 0,-2 -1,0 -1,-1 -1,-1 0,-3 -1,-1 0,-3 2,-2 1,-1 0,-1 -1,-1 0,-3 -1,-1 0,-2 -1,-1 0,-2 -1,-1 0,-3 -1,-1 0,-3 -1,-1 0,-2 -1,-1 0,-2 -1,-1 0,-3 -1,-1 0,-2 -1,-1 0,-2 -1,-1 0,-3 -1,-1 0,-2 -1,-1 0,-2 -1,-1 0,-3 -1,-1 0,-2 -1,-1 0,-2 -1,-1 0,-4 -1,-1 0,-3 -1,-1 0,-3 -1,1 -3,0 -1,-1 0,-1 -1,-1 0,-1 -1,-1 0,-2 -1,-1 0,-2 -1,-1 0,-2 -1,-1 0,-2 -1,-1 0,-2 -1,-1 0,-2 -1,-1 0,-3 -1,-1 -1,0 -1,-1 0,-5 -1,-1 -1,-1 0,-5 -1,-1 0,-1 -1,-1 0,-2 -1,-1 0,-2 -1,-1 0,-1 -1,-1 0,-2 -1,-1 0,-2 -1,-1 0,-1 -1,-1 0,-2 -1,-1 0,-1 -1,-1 0,-2 -1,-1 0,-1 -1,-1 0,-1 -1,-1 0,-2 -1,-1 0,-1 -1,-1 0,-1 -1,-1 0,-1 -1,-1 0,-1 -1,-1 0,-1 -1,-1 0,-1 -1,-1 0,-1 -1,-1 0,-1 -1,-1 0,-1 -1,-1 0,-1 -1,-1 0,-1 -1,-1 0,-1 -1,-1 0,-1 -1,-1 0,-1 -1,-1 -1,-1 0,-1 -1,-1 0,-1 -1,-1 0,-1 -1,-1 0,-1 -1,-1 0,-1 -1,-1 0,-1 -1,-1 0,-1 -1,-1 -1,-1 0,-1 -1,-1 -1,-1 0,-1 -1,0 -1,-1 0,-2 -1,-1 0,-2Z"/>
<path onmouseover="hoverPath(evt)" onmouseout="recoverPath(evt)" fill="rgb(244,243,236)" d="M  138,1l 0,0 1,1 0,2 1,0 1,1 0,1 1,1 1,1 0,1 1,1 1,1 0,1 1,1 0,1 1,1 0,1 1,1 0,1 1,1 0,1 1,1 0,1 1,1 0,1 1,1 1,1 0,1 1,1 0,1 1,1 0,1 1,1 0,1 1,1 0,1 1,1 0,1 1,1 0,1 1,1 0,1 1,1 0,1 1,1 0,1 1,1 0,1 1,1 0,1 1,1 0,1 1,1 0,1 1,1 0,2 1,1 0,1 1,1 0,1 1,1 0,2 1,1 0,1 1,1 0,2 1,1 0,1 1,1 0,2 1,1 0,2 1,1 0,1 1,1 0,2 1,1 0,2 1,1 0,1 1,1 0,2 5,0 1,-1 3,0 1,-1 4,0 1,-1 2,0 1,-1 2,0 1,-1 4,0 1,-1 3,0 1,-1 3,0 1,-1 4,0 1,-1 3,0 1,-1 4,0 1,-1 3,0 1,-1 3,0 1,-1 4,0 1,-1 4,0 1,-1 4,0 1,-1 4,0 0,-73 -116,0 -1,1Z"/>
<path onmouseover="hoverPath(evt)" onmouseout="recoverPath(evt)" fill="rgb(244,243,236)" d="M  0,30l 0,10 2,0 1,-1 1,0 1,-1 2,0 1,-1 1,0 1,-1 2,0 1,-1 1,0 1,-1 2,0 1,-1 1,0 1,-1 2,0 1,-1 1,0 1,-1 2,0 1,-1 1,0 1,-1 1,0 1,-1 2,0 1,-1 1,0 1,-1 1,0 1,-1 2,0 1,-1 2,0 1,-1 1,0 1,-1 2,0 1,-1 1,0 1,-1 2,0 1,-1 2,0 1,-1 1,0 1,-1 2,0 1,-1 2,0 1,-1 1,0 1,-1 2,0 1,-1 1,0 1,-1 2,0 1,-1 2,0 1,-1 3,0 1,-1 11,0 1,1 5,0 1,-1 1,-1 1,-1 1,-1 1,-1 1,-1 1,-1 1,-1 0,-1 -41,0 0,2 -1,1 -1,0 -1,1 -2,0 -1,1 -1,0 -1,1 -2,0 -1,1 -1,0 -1,1 -1,0 -1,1 -2,0 -1,1 -1,0 -1,1 -2,0 -1,1 -1,0 -1,1 -2,0 -1,1 -1,0 -1,1 -1,0 -1,1 -2,0 -1,1 -1,0 -1,1 -2,0 -1,1 -1,0 -1,1 -1,0 -1,1 -2,0 -1,1 -1,0 -1,1 -1,0 -1,1 -1,0 -1,1 -2,0 -1,1 -2,0 -1,1 -1,0 -1,1 -1,0 -1,1 -3,0 -1,1Z"/>
<path onmouseover="hoverPath(evt)" onmouseout="recoverPath(evt)" fill="rgb(236,237,233)" d="M  12,146l 0,0 1,-1 0,-2 -1,-1 -1,-1 -1,-1 0,-1 -1,-1 -1,-1 -1,-1 -1,-1 0,-2 1,-1 1,0 2,-2 1,-1 1,0 1,-1 1,0 -1,-1 0,0 -1,-1 0,-1 -1,-1 -1,-1 -1,1 -1,0 -1,1 -2,0 -1,1 -1,0 -1,1 -2,0 0,44 1,0 0,-2 1,-1 1,-1 2,0 1,1 3,0 1,-1 2,0 -1,-1 0,-1 -1,-1 0,-2 1,-1 2,0 0,-1 1,-1 2,0 1,-1 4,0 1,-1 6,0 1,-1 0,-5 -1,-1 0,-1 -1,-1 0,-1 -4,0 -1,1 -3,0 -1,1 -5,0 -1,-1Z"/>
<path onmouseover="hoverPath(evt)" onmouseout="recoverPath(evt)" fill="rgb(178,202,237)" d="M  19,143l 2,0 1,-1 6,0 1,-1 3,0 1,-1 1,0 -2,-1 0,0 -1,-1 -1,0 -1,-1 -2,-2 -1,0 -2,-2 -1,-1 -1,-1 -1,-1 -1,-1 0,-1 -1,-1 -2,-2 -1,-1 0,-1 -1,-1 0,-1 -2,-2 0,-1 -1,-1 -1,-1 -1,-1 -1,-1 0,-1 -1,-1 -1,-1 -1,0 -1,-1 0,-2 -1,-1 0,-1 -1,-1 0,-1 -1,-1 -1,-1 -1,0 0,23 1,0 1,-1 1,0 1,-1 2,0 1,-1 1,0 1,-1 2,0 1,1 1,1 1,1 0,1 1,1 1,1 0,2 -1,1 -1,0 -1,1 -1,0 -2,2 -1,1 -1,0 1,1 0,0 1,1 1,1 1,1 0,1 1,1 1,1 1,1 0,1 1,1 1,-1Z"/>
<path onmouseover="hoverPath(evt)" onmouseout="recoverPath(evt)" fill="rgb(174,200,238)" d="M  33,222l 0,6 1,1 0,3 1,1 0,7 -1,1 0,4 -1,1 0,1 -1,1 0,3 -1,1 0,3 30,0 0,-18 -6,0 -1,-1 0,-2 1,-1 16,0 1,1 0,2 -1,1 -6,0 0,15 3,0 1,-1 1,-1 1,-1 1,-1 1,-1 0,-12 1,-1 1,-1 11,0 1,-1 1,0 1,-1 2,0 1,1 0,1 1,1 0,2 1,1 16,0 0,-1 1,-1 2,0 1,1 23,0 0,-1 -1,-1 0,-4 -1,-1 0,-2 -1,-1 0,-1 -10,0 -1,-1 0,-2 1,-1 9,0 0,-7 1,-1 0,-1 -4,0 -1,1 -8,0 -1,1 -8,0 -1,1 -11,0 -1,1 -6,0 -1,1 -5,0 -1,1 -5,0 -1,1 -5,0 -1,1 -4,0 -1,1 -9,0 -1,1 -4,0 -1,1 -2,0 -1,1 -9,0 -1,1 -3,0 -1,-1 0,-2 -1,-1 0,-3 1,-1 0,-3 1,-1 0,-11 1,-1 0,-2 1,-1 0,-2 1,-1 0,-3 1,-1 1,0 0,-2 1,-1 0,-2 1,-1 0,-5 1,-1 0,-11 -1,-1 0,-6 -1,-1 -1,-1 0,-2 1,-1 0,-1 -1,-1 -1,-1 -2,0 -1,-1 0,-1 -1,0 -1,1 -1,0 -1,1 0,5 5,0 2,2 0,1 1,1 0,11 1,1 0,5 -1,1 0,5 -1,1 0,3 -1,1 0,1 -8,31 7,-29 0,1 -1,1 0,1 -1,1 0,1 -1,1 0,1 -1,1 -4,0 -1,1 -14,0 -1,1 -2,0 0,2 1,1 0,3 1,1 0,3 -1,1 8,0 1,-1 7,0 1,-1 2,0 1,1 0,2 -1,1 -1,1 -1,1 1,1 0,2 7,-28 -7,29Z"/>
<path onmouseover="hoverPath(evt)" onmouseout="recoverPath(evt)" fill="rgb(251,250,248)" d="M  61,190l -5,0 -1,-1 -1,0 -1,-1 0,2 1,1 6,0 1,-1 -10,-3 1,-1 0,-22 -1,-1 0,-5 -1,-1 0,-2 -1,-1 0,-2 -1,-1 0,-1 -1,-1 0,-1 -1,-1 0,-1 -1,-1 0,-2 1,-1 1,0 1,-1 4,0 1,-1 5,0 1,-1 3,0 1,-1 4,0 1,-1 3,0 1,-1 3,0 1,-1 3,0 1,-1 2,0 1,-1 2,0 1,-1 1,0 1,-1 1,0 1,-1 1,0 1,-1 1,0 1,-1 1,0 1,-1 2,0 1,-1 1,0 1,-1 1,0 1,-1 1,0 1,-1 1,0 1,-1 1,0 1,-1 4,0 1,1 0,2 1,1 0,1 1,1 0,2 1,1 0,2 1,1 0,2 1,1 0,2 1,1 0,2 1,1 0,2 1,1 0,2 1,1 0,2 1,1 0,2 1,1 0,2 1,1 0,2 1,1 0,2 1,1 0,2 1,1 0,1 1,1 0,2 1,1 0,2 1,1 0,3 -1,1 0,4 -1,1 -8,0 -1,1 -11,0 -1,1 -10,0 -1,1 -9,0 -1,1 -8,0 -1,1 -7,0 -1,1 -6,0 -1,1 -1,0 0,1 2,0 1,-1 6,0 1,-1 6,0 1,-1 10,0 1,-1 9,0 1,-1 8,0 1,-1 12,0 1,-1 9,0 1,-1 0,-1 1,-1 0,-4 -1,-1 0,-2 -1,-1 0,-2 -1,-1 0,-2 -1,-1 0,-2 -1,-1 0,-3 1,-1 1,-1 6,0 1,1 0,-1 1,-1 1,-1 3,0 1,-1 0,-2 -1,-1 0,3 -5,2 -5,0 -1,-1 0,-3 -1,-1 0,-1 -1,-1 -1,-1 -4,0 -1,-1 0,-2 -1,-1 0,-3 1,-1 -2,0 -1,-1 0,-2 -1,-1 0,-2 -1,-1 0,-2 -1,-1 0,-2 -1,-1 0,-2 -1,-1 0,-2 -1,-1 0,-4 1,-1 1,0 1,-1 1,0 1,-1 1,0 1,-1 1,0 1,-1 1,0 1,-1 1,0 1,-1 2,0 1,-1 1,0 1,-1 2,0 1,-1 1,0 1,-1 2,0 1,-1 2,0 1,-1 1,0 1,-1 2,0 1,-1 2,0 1,-1 1,0 1,-1 1,0 1,-1 2,0 1,-1 1,0 1,-1 5,0 0,-2 -1,-1 0,-1 -2,0 0,2 -1,1 -1,0 -1,1 -3,0 -1,-1 -1,-1 1,2 0,1 -1,1 -1,0 -1,1 -2,0 -1,1 -2,0 -1,1 -1,0 -1,1 -2,0 -1,1 -2,0 -1,1 -1,0 -1,1 -2,0 -1,1 -2,0 -1,1 -1,0 -1,1 -1,0 -1,1 -1,0 -1,1 -1,0 -1,1 -1,0 -1,1 -1,0 -1,1 -1,0 -1,1 -3,0 -1,-1 0,-1 -1,-1 0,-2 -1,-1 0,-2 -1,-1 0,-1 -1,-1 0,-2 -1,-1 0,-2 -1,-1 0,-2 -1,-1 0,-4 1,-1 3,0 -1,-1 0,-1 -1,-1 0,-3 1,-1 1,-1 -3,0 -1,-1 -1,-1 0,-1 -1,-1 0,-6 1,-1 5,0 1,-1 4,0 0,-1 1,-1 0,-5 -1,-1 -15,0 -1,-1 -1,1 -3,0 -1,-1 0,-1 -1,0 -1,-1 -1,-1 0,-1 -1,-1 -1,-1 -1,-1 -1,0 -1,-1 -1,0 -1,-1 -2,0 -1,1 -3,0 -1,1 -2,0 -1,1 -2,0 -1,1 -1,0 -1,1 -2,0 -1,1 -2,0 -1,1 -2,0 -1,-1 0,2 -1,1 -2,0 -1,1 -2,0 -1,1 -1,0 -1,1 -3,0 -1,-1 0,2 -1,1 -2,0 -1,1 -2,0 -1,1 -2,0 -1,1 -3,0 -1,-1 0,2 -1,1 -2,0 -1,1 -2,0 -1,1 -3,0 -1,-1 0,2 -1,1 -2,0 -1,1 -1,0 -1,1 -3,0 -1,-1 0,2 -1,1 -1,0 -1,1 -1,0 -1,1 -3,0 -1,-1 0,2 -1,1 -2,0 0,10 2,0 1,1 0,1 1,1 1,0 1,1 0,1 1,0 1,1 1,1 1,1 1,1 1,1 1,1 1,1 0,1 1,0 1,1 0,1 1,0 2,2 1,1 1,1 0,2 1,0 1,1 1,1 2,2 0,1 1,1 0,1 1,0 1,1 1,1 1,1 1,1 0,2 1,0 1,1 1,1 1,1 1,1 0,2 -1,1 2,0 1,1 1,1 0,3 -1,1 -1,0 -1,1 -2,0 -1,-1 -1,1 -3,0 -1,1 -6,0 -1,1 -4,0 -1,1 -1,0 -1,1 2,0 1,-1 3,0 2,-1 5,0 1,1 0,1 1,1 0,1 1,0 1,-1 2,0 1,1 1,1 1,-1 3,0 1,1 0,1 2,0 1,1 1,1 1,1 0,3 -1,1 1,1 1,-1 2,0 1,1 0,5 1,1 0,22 10,3 -20,-52 -1,-1 0,-1 -1,-1 0,-2 -1,0 -1,-1 -1,-1 -1,-1 0,-2 -1,0 -1,-1 -1,-1 -2,-2 0,-2 -1,0 -1,-1 -2,-2 -1,-1 0,-2 -1,0 -1,-1 -1,-1 -1,-1 -1,-1 0,-1 -1,-1 -1,-1 -1,-1 -1,-1 -1,-1 -2,-2 -1,-1 -1,-1 -1,-1 -1,0 -1,-1 -1,-1 -1,-1 -1,-1 -1,-1 -1,-1 -1,-1 -1,-1 0,-5 1,-1 1,0 0,-1 1,-1 1,0 1,-1 1,0 1,-1 1,0 1,-1 2,0 1,-1 1,0 1,-1 1,0 1,-1 2,0 1,-1 1,0 1,-1 2,0 1,-1 2,0 1,-1 2,0 1,-1 1,0 1,-1 2,0 1,-1 2,0 1,-1 1,0 1,-1 3,0 1,-1 1,0 1,-1 2,0 1,-1 2,0 1,-1 1,0 1,-1 2,0 1,-1 1,0 1,-1 2,0 1,-1 1,0 1,-1 2,0 1,-1 2,0 1,-1 1,0 1,-1 2,0 1,-1 2,0 1,-1 6,0 1,1 1,0 1,1 1,1 1,1 1,1 0,1 1,1 0,2 1,1 0,1 1,1 0,1 1,1 0,2 1,1 0,1 1,1 0,1 1,1 0,2 1,1 0,1 1,1 0,2 1,1 0,1 1,1 0,2 1,1 0,2 1,1 0,2 1,1 0,2 1,1 0,2 1,1 0,1 1,1 0,2 1,1 0,2 1,1 0,2 1,1 0,2 1,1 0,2 -1,1 -1,1 -1,0 -1,1 -1,0 -1,1 -1,0 -1,1 -2,0 -1,1 -1,0 -1,1 -1,0 -1,1 -1,0 -1,1 -1,0 -1,1 -1,0 -1,1 -1,0 -1,1 -2,0 -1,1 -1,0 -1,1 -2,0 -1,1 -2,0 -1,1 -2,0 -1,1 -3,0 -1,1 -4,0 -1,1 -3,0 -1,1 -3,0 -1,1 -5,0 -1,1 -9,0 -1,-1 -1,-1 20,52 50,-97 0,1 4,0 1,1 8,0 1,-1 0,-5 -1,5 -8,0 -4,-1 -1,0 -50,97Z"/>
<path onmouseover="hoverPath(evt)" onmouseout="recoverPath(evt)" fill="rgb(253,253,253)" d="M  122,58l 2,0 1,1 13,0 1,1 2,0 1,1 1,0 1,1 0,1 1,1 -1,-3 1,-1 2,0 1,1 2,0 1,1 1,0 -1,-1 0,0 -1,-1 -1,-1 -1,-1 -1,-1 0,-2 1,-1 0,-1 -1,0 -1,1 0,0 -1,1 -4,0 -1,-1 -1,-1 0,1 -1,1 -1,0 -1,1 -9,0 -1,1 -3,0 -1,1Z"/>
<path onmouseover="hoverPath(evt)" onmouseout="recoverPath(evt)" fill="rgb(172,198,237)" d="M  124,97l -9,0 -1,-1 -3,0 1,1 0,1 2,0 1,1 10,0 1,-1 11,0 1,-1 3,0 1,-1 5,0 1,1 3,0 1,-1 1,0 1,-1 1,0 -1,-1 -1,0 -1,-1 -2,0 -1,-1 -3,0 -1,1 -4,0 -1,1 -3,0 -1,1 -5,0 -1,1 -4,0 -1,1Z"/>
<path onmouseover="hoverPath(evt)" onmouseout="recoverPath(evt)" fill="rgb(184,205,235)" d="M  160,223l 0,0 1,1 1,0 1,1 1,0 1,1 6,0 1,-1 1,0 1,-1 1,0 1,-1 0,-1 1,-1 0,-6 -1,-1 0,0 -1,-1 -1,0 -1,-1 0,-1 -9,0 -1,1 -1,0 -1,1 -1,0 0,1 -1,1 0,1 -1,1 0,2 1,1 0,2 1,1Z"/>
<path onmouseover="hoverPath(evt)" onmouseout="recoverPath(evt)" fill="rgb(242,241,231)" d="M  185,234l 0,4 1,1 0,5 1,1 0,4 1,1 0,2 1,1 0,2 23,0 0,-2 -1,-1 0,-2 -1,-1 0,-2 -1,-1 0,-3 1,-1 0,-1 -1,0 -1,-1 -1,-1 0,-2 -1,-1 0,-2 -1,0 -1,-1 -5,0 -1,-1 -14,0 1,1Z"/>
<path onmouseover="hoverPath(evt)" onmouseout="recoverPath(evt)" fill="rgb(254,254,254)" d="M  195,115l 0,2 1,1 0,2 1,1 0,4 1,1 0,3 1,1 0,3 1,1 0,4 1,1 0,2 1,1 0,2 1,1 0,3 1,1 0,2 1,1 0,2 1,1 0,3 1,1 0,2 1,1 0,2 1,1 0,3 1,1 0,2 1,1 0,2 1,1 0,3 1,1 0,3 1,1 0,2 1,1 0,2 1,1 0,3 1,1 0,2 1,1 0,3 1,1 0,2 1,1 0,2 1,0 0,-3 -1,-1 0,-2 -1,-1 0,-3 -1,-1 0,-2 -1,-1 0,-2 -1,-1 0,-3 -1,-1 0,-2 -1,-1 0,-2 -1,-1 0,-3 -1,-1 0,-2 -1,-1 0,-3 -1,-1 0,-2 -1,-1 0,-2 -1,-1 0,-3 -1,-1 0,-2 -1,-1 0,-2 -1,-1 0,-3 -1,-1 0,-2 -1,-1 0,-3 -1,-1 0,-2 -1,-1 0,-3 -1,-1 0,-3 -1,-1 0,-4 -1,-1 0,-3 -1,-1 0,-3 -1,-1 -1,-1Z"/>
<path onmouseover="hoverPath(evt)" onmouseout="recoverPath(evt)" fill="rgb(171,198,238)" d="M  0,43l 0,4 1,0 1,-1 2,0 1,-1 1,0 1,-1 1,0 1,-1 2,0 1,-1 1,0 1,-1 1,0 1,-1 2,0 1,-1 2,0 1,-1 2,0 1,-1 2,0 1,-1 2,0 1,-1 1,0 1,-1 2,0 1,-1 1,0 1,-1 1,0 1,-1 1,0 1,-1 1,0 1,-1 2,0 1,-1 1,0 1,-1 1,0 1,-1 2,0 1,-1 1,0 1,-1 1,0 1,-1 2,0 1,-1 1,0 1,-1 2,0 1,-1 1,0 1,-1 1,0 1,-1 2,0 1,-1 1,0 1,-1 2,0 1,-1 1,0 1,-1 2,0 1,-1 2,0 1,-1 4,0 1,-1 12,0 1,-1 2,0 1,-1 2,-2 1,-1 1,-1 1,-1 0,-1 1,-1 1,-1 0,-1 -4,0 0,2 -1,1 -1,1 -1,1 -1,1 -1,1 -1,1 -1,1 -1,1 1,0 -103,33 93,-33 -9,0 -1,1 -3,0 -1,1 -2,0 -1,1 -2,0 -1,1 -1,0 -1,1 -2,0 -1,1 -1,0 -1,1 -2,0 -1,1 -2,0 -1,1 -1,0 -1,1 -2,0 -1,1 -2,0 -1,1 -1,0 -1,1 -2,0 -1,1 -1,0 -1,1 -2,0 -1,1 -2,0 -1,1 -1,0 -1,1 -1,0 -1,1 -2,0 -1,1 -1,0 -1,1 -1,0 -1,1 -2,0 -1,1 -1,0 -1,1 -2,0 -1,1 -1,0 -1,1 -2,0 -1,1 -1,0 -1,1 -2,0 -1,1 -1,0 -1,1 -2,0 -1,1 -1,0 -1,1 -3,0 93,-32 -93,33Z"/>
<path onmouseover="hoverPath(evt)" onmouseout="recoverPath(evt)" fill="rgb(171,198,238)" d="M  0,219l 0,8 3,0 1,-1 5,0 1,-1 2,0 1,-1 1,0 0,-2 -3,0 -1,-1 0,-2 -1,-1 -8,0 -1,1Z"/>
<path onmouseover="hoverPath(evt)" onmouseout="recoverPath(evt)" fill="rgb(250,238,139)" d="M  0,19l 0,8 3,0 1,-1 1,0 1,-1 1,0 1,-1 2,0 1,-1 2,0 1,-1 1,0 1,-1 1,0 1,-1 1,0 1,-1 2,0 1,-1 1,0 1,-1 1,0 1,-1 2,0 1,-1 1,0 1,-1 2,0 1,-1 1,0 1,-1 1,0 1,-1 2,0 1,-1 1,0 1,-1 2,0 1,-1 1,0 1,-1 2,0 1,-1 1,0 1,-1 1,0 1,-1 2,0 1,-1 1,0 1,-1 2,0 1,-1 1,0 0,-1 -27,0 0,2 -1,1 -1,0 -1,1 -2,0 -1,1 -1,0 -1,1 -2,0 -1,1 -1,0 -1,1 -2,0 -1,1 -1,0 -1,1 -1,0 -1,1 -2,0 0,2 -1,1 -6,0 -1,1 -2,0 -1,1 -1,0 -1,1 -3,0Z"/>
<path onmouseover="hoverPath(evt)" onmouseout="recoverPath(evt)" fill="rgb(239,238,226)" d="M  7,103l -1,-1 -1,0 -1,-1 0,1 1,1 0,1 1,1 0,1 1,1 0,2 1,0 2,2 1,1 0,1 1,1 1,1 1,1 1,1 0,1 1,1 1,1 0,1 1,1 0,1 1,1 1,1 1,1 1,1 0,1 2,2 1,1 1,1 1,1 1,0 1,1 1,1 1,1 1,0 1,1 1,1 1,0 1,1 0,2 1,-1 1,0 0,-1 -1,-1 -1,0 -2,-1 0,-2 1,-1 -1,-1 0,0 -2,-2 -1,0 -1,-1 0,-2 -1,-1 -2,-2 -1,0 -1,-1 0,-1 -1,-1 0,-1 -1,-1 -1,-1 -1,-1 -1,0 -1,-1 0,-2 -2,-2 -1,-1 -1,0 -1,-1 0,-1 -1,0 -1,-1 0,-1 -1,-1 -1,-1 -1,-1 -1,-1 -1,-1 -4,-2 1,-1 -1,0 -1,-1 -1,-1 0,-1 -1,0 0,3 2,0 1,1 4,2Z"/>
<path onmouseover="hoverPath(evt)" onmouseout="recoverPath(evt)" fill="rgb(243,243,235)" d="M  48,63l 0,0 1,1 1,0 1,-1 1,0 1,-1 2,0 1,-1 2,0 0,-2 1,-1 2,0 1,1 1,-1 2,0 1,-1 2,0 1,-1 1,0 1,-1 2,0 1,-1 2,0 1,-1 3,0 1,-1 4,0 1,1 1,0 1,1 1,0 1,1 1,1 1,1 1,1 0,1 1,1 1,0 1,1 0,1 1,0 1,-1 1,0 1,-1 23,0 -3,-1 0,-3 1,-1 4,0 1,-1 9,0 1,-1 1,0 0,-3 1,-1 2,0 1,1 0,2 1,1 2,0 1,-1 1,-1 -1,0 -1,-1 0,-1 -1,-1 0,-1 -1,-1 0,-1 -1,-1 -1,-1 0,-2 -1,-1 0,-1 -1,-1 0,-1 -1,-1 0,-1 -1,-1 -1,-1 0,-1 -1,-1 0,-1 -1,-1 0,-1 -1,-1 0,-1 -1,-1 0,-1 -1,-1 0,-1 -1,-1 0,-1 -1,-1 -1,-1 0,-1 -1,-1 0,-1 -1,-1 -1,-1 0,-1 -1,-1 -1,-1 0,-1 -1,-1 0,-1 -1,-1 -1,-1 0,-1 -1,-1 -1,-1 0,-2 -1,0 0,2 -1,1 -1,1 0,1 -1,1 -1,1 -1,1 -1,1 -1,1 -1,1 -1,1 -2,0 -1,1 -12,0 -1,1 -4,0 -1,1 -2,0 -1,1 -2,0 -1,1 -1,0 -1,1 -2,0 -1,1 -1,0 -1,1 -2,0 -1,1 -1,0 -1,1 -1,0 -1,1 -2,0 -1,1 -1,0 -1,1 -2,0 -1,1 -1,0 -1,1 -1,0 -1,1 -2,0 -1,1 -1,0 -1,1 -1,0 -1,1 -2,0 -1,1 -1,0 -1,1 -1,0 -1,1 -1,0 -1,1 -1,0 -1,1 -2,0 -1,1 -1,0 -1,1 -2,0 -1,1 -2,0 -1,1 0,5 -1,1 -2,0 -1,1 -1,0 -1,1 -2,0 -1,1 -2,0 -1,1 -1,0 -1,1 -2,0 -1,1 -2,0 -1,1 -1,0 -1,1 -3,0 0,29 1,0 0,-2 1,-1 2,0 1,1 1,0 1,-1 1,0 1,-1 1,0 0,-2 1,-1 2,0 1,1 1,0 1,-1 1,0 1,-1 2,0 0,-2 1,-1 2,0 1,1 1,0 1,-1 2,0 1,-1 2,0 0,-2 1,-1 2,0 1,1 1,0 1,-1 2,0 1,-1 2,0 1,-1 2,0 0,-2 1,-1Z"/>
<path onmouseover="hoverPath(evt)" onmouseout="recoverPath(evt)" fill="rgb(177,201,237)" d="M  138,211l 0,0 -1,1 -1,0 0,2 -1,1 0,7 -1,1 1,0 1,1 0,1 1,1 0,2 1,1 0,4 1,1 0,2 1,0 1,1 0,3 1,1 0,3 1,1 2,0 0,-5 -1,-1 0,-2 1,-1 1,0 1,-1 28,0 1,1 0,2 -1,1 -22,0 0,1 1,1 0,1 1,1 6,0 1,-1 11,0 1,-1 7,0 1,1 0,2 1,1 0,4 1,1 1,1 0,1 1,1 0,2 1,0 0,-1 -1,-2 0,-1 -1,-1 0,-4 -1,-1 0,-5 -1,-1 0,-5 -1,-1 -16,0 -1,1 -2,0 -1,-1 -2,0 -1,-1 0,-3 -1,0 -1,-1 -1,-1 -1,-1 -1,-1 0,-2 -1,-1 0,-8 1,-1 0,-1 1,-1 1,0 0,-1 2,-2 -3,0 -1,1 -6,0 -1,1 -8,0 -1,1Z"/>
<path onmouseover="hoverPath(evt)" onmouseout="recoverPath(evt)" fill="rgb(240,239,227)" d="M  151,99l -4,0 -1,-1 -3,0 -1,1 -3,0 -1,1 -11,0 -1,1 -12,0 -1,-1 -2,0 -1,-1 0,3 1,1 0,2 1,1 0,1 1,1 0,2 1,1 0,2 1,1 0,1 1,0 1,-1 1,0 1,-1 1,0 1,-1 1,0 1,-1 1,0 1,-1 1,0 1,-1 1,0 1,-1 1,0 1,-1 2,0 1,-1 2,0 1,-1 1,0 1,-1 2,0 1,-1 2,0 1,-1 1,0 1,-1 2,0 1,-1 1,-1 -42,0 1,-1 0,0 -1,-1 0,-3 -1,0 0,2 1,2 0,1 45,0 -1,-1 0,1Z"/>
<path onmouseover="hoverPath(evt)" onmouseout="recoverPath(evt)" fill="rgb(252,252,251)" d="M  178,223l 0,1 -1,1 -1,1 -1,0 -1,1 -1,0 -1,1 -8,0 -1,-1 -1,0 -1,-1 -1,0 -1,-1 -1,-1 -1,-1 0,-2 -1,-1 0,-4 1,-1 0,-1 1,-1 0,-1 1,-1 -1,0 1,-1 1,1 1,-1 1,0 1,-1 11,0 1,1 0,1 1,0 1,1 0,0 1,1 1,1 0,8 -1,1 2,-8 0,-4 1,-1 -2,1 -2,0 -4,-3 -8,0 -3,1 -2,0 0,1 -3,3 -1,0 0,1 -1,1 0,6 1,1 0,2 1,1 1,1 1,1 1,0 1,1 0,3 2,0 1,1 1,-1 17,0 1,-1 16,0 1,1 5,0 1,1 2,0 0,-3 -1,2 -1,0 -4,-1 -2,0 -16,-1 -1,0 -1,-1 0,-3 -1,0 -1,-1 0,-9 -2,8Z"/>
<path onmouseover="hoverPath(evt)" onmouseout="recoverPath(evt)" fill="rgb(242,242,235)" d="M  229,247l 0,0 1,1 0,3 1,1 0,3 14,0 0,-2 1,-1 1,-1 0,-7 1,-1 0,-9 1,-1 -1,-1 0,-1 -1,-1 -1,-1 0,-7 1,-1 0,-6 1,-1 0,-4 1,-1 0,-4 1,-1 0,-3 -1,-1 0,-5 1,-1 0,-15 -1,-1 0,-8 -1,-1 0,-6 1,-1 0,-21 -1,-1 0,-16 1,-1 0,-1 -1,-1 0,-1 -1,-1 0,-10 1,-1 1,-1 6,0 0,-29 -2,0 -1,1 -4,0 -1,1 -3,0 -1,1 -4,0 -1,1 -4,0 -1,1 -3,0 -1,1 -4,0 -1,1 -3,0 -1,1 -4,0 -1,1 -3,0 -1,1 -3,0 -1,1 -3,0 -1,1 -2,0 -1,1 -3,0 -1,1 -3,0 -1,1 0,1 -1,1 0,1 -1,1 -2,0 -1,-1 -1,1 0,0 -1,1 0,1 -1,1 1,1 0,3 1,1 0,2 1,1 0,2 1,1 0,2 1,1 0,2 1,1 0,2 1,1 0,2 1,1 0,1 1,1 0,1 1,0 1,-1 0,-3 -1,-1 0,-2 -1,-1 0,-4 -1,-1 0,-4 1,-1 2,0 1,1 0,2 1,1 0,2 1,1 1,1 0,3 1,1 0,3 1,1 0,4 1,1 0,3 1,1 0,3 1,1 0,2 1,1 0,3 1,1 0,2 1,1 0,3 1,1 0,2 1,1 0,2 1,1 0,3 1,1 0,2 1,1 0,2 1,1 0,3 1,1 0,2 1,1 0,3 1,1 0,2 1,1 0,2 1,1 0,3 1,1 0,2 1,1 0,2 1,1 0,3 1,1 0,2 1,1 0,5 -1,1 -3,0 -1,-1 0,2 1,1 0,3 1,1 0,2 1,1 0,3 1,1 0,2 1,1 0,3 1,1 0,2 1,1 0,4 1,1 0,1 1,1 0,3 1,1 0,3 1,1 0,2 -11,-42 0,-1 -1,-1 0,-2 -1,-1 0,-3 -1,1 0,0 -1,1 0,1 1,1 0,3 1,1 2,0 11,42Z"/>
<path onmouseover="hoverPath(evt)" onmouseout="recoverPath(evt)" fill="rgb(186,207,238)" d="M  255,221l 0,-112 -5,0 -1,1 0,8 1,1 0,1 1,1 0,3 -1,1 0,14 1,1 0,23 -1,1 0,4 1,1 0,8 1,1 0,17 -1,1 0,3 1,1 0,5 -1,1 0,4 -1,1 0,4 -1,1 0,6 -1,1 0,5 1,1 1,1 0,1 1,1 0,2 -1,1 0,9 -1,1 0,7 -1,1 -1,1 0,1 8,0Z"/>
</svg>