<svg width="256" height="256" xmlns="http://www.w3.org/2000/svg"><script> 
var tempColor;
function hoverPath(evt){
obj = evt.target;
tempColor = obj.getAttribute("fill");
obj.setAttribute("fill","red");
//alert(tempColor);
//obj.setAttribute("stroke","red");}
function recoverPath(evt){
obj = evt.target;
obj.setAttribute("fill", tempColor);
//obj.setAttribute("stroke", tempColor);
}</script><path onmouseover="hoverPath(evt)" onmouseout="recoverPath(evt)" fill="rgb(245,199,114)" d="M  0,156l 0,7 2,0 1,1 1,-1 2,0 0,-1 1,-1 1,0 0,-2 1,-1 1,0 1,-1 1,0 1,-1 1,-1 2,0 1,1 0,-2 1,-1 1,0 1,-1 1,0 1,-1 1,-1 2,0 1,1 0,-2 1,-1 3,0 1,1 0,-3 1,-1 2,0 1,1 0,-2 1,-1 3,0 1,1 1,-1 1,0 1,-1 1,0 0,-3 1,-1 2,0 1,1 0,-1 1,-1 2,0 1,1 1,-1 1,-1 0,-2 1,-1 1,0 1,-1 1,0 1,-1 1,0 1,-1 2,0 1,1 0,-2 1,-1 1,0 1,-1 1,-1 1,0 1,-1 1,0 1,-1 2,0 1,1 0,-1 1,-1 0,0 1,-1 1,0 1,-1 2,0 1,-1 1,0 1,-1 2,0 1,-1 3,0 1,1 2,0 1,-1 0,-1 2,-2 2,0 1,-1 4,0 1,1 0,1 1,-1 0,-1 1,-1 1,0 1,-1 3,0 1,1 0,1 1,0 1,-1 4,0 1,-1 4,0 1,-1 0,-1 1,-1 2,0 1,1 0,1 1,0 1,-1 1,0 1,-1 3,0 1,1 1,0 1,-1 1,0 1,-1 3,0 1,1 1,0 1,-1 5,0 1,1 1,1 0,2 -1,1 0,1 -1,1 3,0 1,1 0,1 1,1 0,1 1,1 0,1 1,0 -1,-2 0,-1 -1,-1 0,-3 -1,-1 0,-4 1,-1 2,0 1,-1 4,0 1,-1 1,-1 6,0 1,1 7,0 1,1 13,0 1,-1 9,0 1,-1 1,-1 6,0 1,1 7,0 1,-1 2,0 1,1 1,1 4,0 1,-1 10,0 1,-1 1,-1 6,0 1,1 7,0 0,-9 -2,0 -1,-1 -7,0 -1,1 -10,0 -1,1 -1,1 -6,0 -1,-1 -11,0 -1,1 -2,0 -1,-1 0,-4 -1,-1 -1,-1 -2,-2 0,-1 -1,-1 -1,1 0,0 1,1 0,0 1,1 1,1 1,1 1,1 0,2 -1,1 -3,0 -1,1 -6,0 -1,1 -1,1 -3,0 -1,-1 -4,0 -1,-1 -8,0 -1,1 -5,0 -1,1 -1,1 -4,0 -1,-1 -6,0 -1,-1 -5,0 -1,1 -4,0 -1,-1 -1,-1 -1,-1 0,2 -1,1 -2,0 -1,1 -1,0 0,1 -1,1 -2,0 -1,1 -7,0 -1,-1 0,-3 -2,0 -1,1 -3,0 -1,1 -2,0 -1,1 -3,0 -1,-1 -1,0 0,1 -1,1 -1,1 -1,1 -1,0 0,1 -1,1 -1,0 -1,1 -3,0 -1,1 -3,0 -1,1 -3,0 -1,-1 0,-1 -1,1 0,1 -1,1 -1,1 -2,0 -1,-1 0,-1 -1,1 0,1 -1,1 -1,1 -2,0 -1,1 -2,0 -1,-1 0,1 -1,1 0,0 -1,1 -2,0 -1,-1 -2,0 0,2 -1,1 -1,1 -1,0 -1,1 -2,0 -1,-1 0,1 -1,1 -1,1 -2,0 -1,-1 -1,1 -1,0 0,1 -1,1 -1,0 0,1 -1,1 -1,0 -1,1 -1,1 -2,0 -1,-1 -1,1 -1,0 0,2 -1,1 -2,0 -1,-1 -1,1 -1,0 0,2 -1,1 -1,0 -1,1 -1,1 -2,0 -1,-1 0,2 -1,1 -1,0 -1,1 -3,0 -1,-1 0,1 -1,1 -1,0 0,2 -1,1 -1,0 -1,1 -3,0 -1,-1 0,3 -1,1 -1,0 -1,1 -1,0 -1,1 -3,0 -1,-1 0,3 -1,1 -2,0 -1,-1 0,2 -1,1 -3,0 -1,-1 -1,0 0,3 149,-41 -1,0 -1,1 1,0 1,-1 -149,41Z"/>
<path onmouseover="hoverPath(evt)" onmouseout="recoverPath(evt)" fill="rgb(170,198,238)" d="M  0,172l 0,50 5,0 1,1 1,1 0,1 1,1 0,2 1,1 0,2 1,1 0,2 1,1 0,3 1,1 0,2 1,1 0,2 1,1 0,2 1,1 0,2 1,1 0,4 5,0 0,-1 -1,-1 0,-3 -1,-1 0,-3 -1,-1 0,-2 -1,-1 0,-3 -1,-1 0,-2 -1,-1 0,-2 -1,-1 0,-3 -1,-1 0,-2 -1,-1 0,-2 -1,-1 0,-3 -1,-1 0,-5 -1,-1 0,-5 -1,-1 0,-4 -1,-1 0,-3 -1,-1 0,-4 -1,-1 0,-4 -1,-1 0,-8 1,-1 1,0 1,-1 8,0 1,1 23,0 1,1 3,0 1,1 2,0 1,1 1,0 1,1 3,0 1,1 11,0 0,-2 -10,0 -1,-1 -2,0 -1,-1 -2,0 -1,-1 -1,0 -1,-1 -2,0 -1,-1 -24,0 -1,-1 -8,0 -1,-1 -4,0 -1,-1 -1,-1 -1,-1 -1,1Z"/>
<path onmouseover="hoverPath(evt)" onmouseout="recoverPath(evt)" fill="rgb(244,243,236)" d="M  69,195l 0,-1 -1,-1 0,-2 -1,-1 0,-2 -1,-1 -1,-1 -1,-1 -12,0 -1,-1 -3,0 -1,-1 -1,0 -1,-1 -2,0 -1,-1 -3,0 -1,-1 -23,0 -1,-1 -6,0 -1,1 -1,0 0,6 1,1 0,4 1,1 0,4 1,1 0,3 1,1 0,4 1,1 0,5 1,1 0,5 1,1 0,3 1,1 0,2 1,1 0,2 1,1 0,3 1,1 0,2 1,1 0,2 1,1 0,3 1,1 0,2 1,1 0,3 1,1 0,3 1,1 0,2 232,0 0,-50 -3,0 -1,1 -1,0 -1,1 -1,0 -1,1 -1,0 -1,1 -2,0 0,1 -1,1 -1,0 -1,1 -1,0 -1,1 -1,0 -1,1 -1,0 -1,1 -1,0 -1,1 -1,0 -1,1 -1,0 -1,1 -1,0 -1,1 -1,0 -1,1 -1,0 -1,1 -1,0 -1,1 -1,0 -1,1 -1,0 -1,1 -1,0 -1,1 -1,0 -1,1 -1,0 -1,1 -1,0 -1,1 -1,0 -1,1 -1,0 -1,1 -1,0 -1,1 -1,0 -1,1 -1,0 -1,1 -1,0 -1,1 -1,0 -1,1 -1,0 -1,1 -1,1 -1,0 -1,1 -1,0 -1,1 -1,0 -1,1 -1,0 -1,1 -1,0 -1,1 -2,0 -1,1 -3,0 -1,1 -2,0 -1,1 -3,0 -1,1 -2,0 -1,1 -2,0 -1,1 -2,0 -1,1 -2,0 -1,1 -2,0 -1,1 -3,0 -1,1 -5,0 -1,1 -8,0 -1,-1 -1,0 -1,-1 -1,-1 -1,0 -1,-1 -1,0 -1,-1 -1,0 -1,-1 -1,-1 -1,0 -1,-1 -1,-1 -1,0 -1,-1 -1,-1 -1,0 -1,-1 -1,-1 -1,0 -1,-1 -1,-1 -1,0 -1,-1 -1,-1 -1,0 -1,-1 -1,0 -1,-1 -1,-1 -1,0 -1,-1 -1,-1 -1,0 -1,-1 -1,-1 -2,0 -1,-1 -2,0 -1,-1 -2,0 -1,-1 -1,0 -1,-1 -1,-1 -1,-1 -1,-1 -1,-1 -1,-1 -1,-1 0,-1 -1,-1 0,-1 -1,-1 0,-1 -1,-1 0,-1 -1,-1 -1,-1 0,-1 -1,-1 0,-1 -1,-1 0,-1 -1,-1 0,-2 -1,-1 0,-1 -1,-1 0,-2 -1,-1Z"/>
<path onmouseover="hoverPath(evt)" onmouseout="recoverPath(evt)" fill="rgb(242,242,237)" d="M  135,44l 1,1 1,1 1,1 1,0 1,1 1,1 1,1 1,1 1,1 1,0 1,1 2,2 1,0 1,1 0,1 1,0 2,2 1,-1 3,0 1,1 0,2 -1,1 0,1 1,1 0,1 2,2 1,1 4,0 1,-1 1,0 1,-1 1,0 1,-1 1,0 2,-2 1,-1 1,-1 0,-3 -1,-1 0,-2 1,-1 2,0 1,1 1,0 1,1 2,0 1,-1 0,-2 1,-1 2,-2 1,-1 1,-1 1,0 1,-1 2,-2 1,-1 1,-1 1,0 1,-1 2,-2 0,-9 -1,-1 0,-1 -1,0 -1,1 -3,0 -1,1 -4,0 -1,1 -3,0 -1,1 -3,0 -1,1 -3,0 -1,1 -4,0 -1,1 -4,0 -1,1 -5,0 -1,1 -4,0 -1,1 -3,0 -1,1 -3,0 -1,1 -3,0 -1,1 -3,0 -1,1 -1,0 -1,1Z"/>
<path onmouseover="hoverPath(evt)" onmouseout="recoverPath(evt)" fill="rgb(243,242,236)" d="M  193,68l 0,1 1,1 0,1 1,1 0,1 1,1 0,1 1,1 0,2 -1,1 0,1 1,1 1,0 1,1 1,1 1,0 1,1 0,1 1,0 1,-1 2,0 1,1 1,1 0,1 1,1 1,1 1,1 1,1 0,4 1,-1 13,0 1,1 4,0 1,-1 1,-1 10,0 1,-1 6,0 -1,-1 0,0 -1,-1 -1,-1 -1,-1 -1,-1 -1,-1 -1,0 -1,-1 -1,-1 -2,-2 -1,0 -1,-1 -1,0 -1,-1 -1,0 -1,-1 -1,0 -1,-1 -1,0 -1,-1 -1,0 -1,-1 -1,0 -1,-1 -1,0 -1,-1 -2,0 -1,-1 -1,0 -1,-1 -1,0 -1,-1 -2,0 -1,-1 -2,0 -1,-1 -2,0 -1,-1 -3,0 -1,-1 -9,0 -1,1Z"/>
<path onmouseover="hoverPath(evt)" onmouseout="recoverPath(evt)" fill="rgb(237,239,236)" d="M  227,108l -4,0 -1,-1 -1,-1 0,1 1,1 0,1 1,1 0,3 1,1 0,7 -1,1 -1,1 3,0 1,1 1,1 1,0 1,1 0,2 1,1 1,1 1,1 1,1 1,1 1,1 1,1 1,1 1,1 0,1 1,1 0,2 1,1 1,1 0,1 1,1 1,1 0,1 1,1 0,1 1,1 0,2 1,1 1,1 0,2 1,0 1,1 0,2 1,1 1,0 1,1 0,2 1,1 1,1 1,1 0,-60 -8,0 -1,-1 -4,0 -1,1 0,0 -1,1 -10,0 -1,1Z"/>
<path onmouseover="hoverPath(evt)" onmouseout="recoverPath(evt)" fill="rgb(244,243,237)" d="M  1,224l -1,0 0,31 14,0 0,-3 -1,-1 0,-2 -1,-1 0,-2 -1,-1 0,-2 -1,-1 0,-2 -1,-1 0,-3 -1,-1 0,-2 -1,-1 0,-2 -1,-1 0,-2 -1,-1 0,-1 -1,-1Z"/>
<path onmouseover="hoverPath(evt)" onmouseout="recoverPath(evt)" fill="rgb(219,220,216)" d="M  61,60l -1,0 0,1 1,1 0,4 9,0 1,1 3,0 1,-1 1,0 0,-1 1,-1 0,-1 1,-1 0,-1 -13,0 -1,-1Z"/>
<path onmouseover="hoverPath(evt)" onmouseout="recoverPath(evt)" fill="rgb(238,237,231)" d="M  90,93l -1,1 -1,0 -1,1 1,1 1,0 1,1 0,1 1,1 0,1 1,1 0,2 -1,1 1,1 0,2 -1,1 0,1 1,-1 1,-2 1,-1 2,0 1,1 0,1 1,0 1,-1 3,0 1,-1 3,0 1,-1 1,0 0,-1 1,-1 1,0 1,-1 1,-1 0,-1 1,-1 3,0 1,1 1,0 1,-1 2,0 1,-1 3,0 1,-1 2,0 1,-1 2,0 1,1 0,2 -1,1 0,1 5,0 1,-1 2,0 0,-1 1,-1 1,0 1,-1 2,0 0,-1 -1,-1 0,-2 -1,-1 0,-3 1,-1 1,-1 0,-15 -1,10 -2,0 -1,1 -1,1 -4,0 -1,-1 -1,-1 -3,0 -1,-1 -14,0 -1,1 -3,0 -1,1 -2,0 -1,1 -2,0 -1,1 -1,0 -1,1 -1,0 -1,1 -1,0 -1,1 -1,0 -1,1 -1,0 -1,1 -1,0 -1,1 -1,1 -1,0Z"/>
<path onmouseover="hoverPath(evt)" onmouseout="recoverPath(evt)" fill="rgb(245,244,237)" d="M  192,53l -1,1 -1,1 -1,1 -1,1 0,2 2,0 1,1 10,0 1,1 4,0 0,-2 -1,-1 0,0 -1,-1 -1,-1 0,-1 -1,-1 -1,-1 0,-1 -1,-1 0,-2 -2,0 -2,2 -1,0 -1,1 -1,0 -1,1Z"/>
<path onmouseover="hoverPath(evt)" onmouseout="recoverPath(evt)" fill="rgb(241,241,235)" d="M  79,65l 0,0 -1,1 0,5 -1,1 -1,1 0,2 1,1 1,1 1,1 1,0 1,1 1,0 1,1 3,0 0,-2 1,-1 2,0 1,1 2,0 1,-1 2,0 1,-1 1,0 1,-1 2,0 0,-2 1,-1 2,0 1,-1 2,0 1,-1 3,0 1,1 1,0 0,-2 1,-1 2,0 1,-1 3,0 1,-1 5,0 1,1 3,0 0,-2 1,-1 5,0 1,1 7,0 1,1 0,1 1,1 0,1 1,1 0,15 1,0 0,-1 1,-1 1,-1 0,-3 1,-1 2,0 1,-1 1,-1 2,0 0,-1 1,-1 1,-1 0,-3 1,-1 -1,-1 0,0 -1,-1 -1,-1 0,-1 -1,-1 0,-3 1,-1 -1,0 -1,1 -2,0 -1,-1 -1,-1 -1,0 -1,-1 0,-1 -1,0 -1,-1 -1,-1 -1,-1 -1,0 -1,-1 -1,-1 -1,-1 -1,-1 -1,-1 -1,0 -1,-1 -1,-1 -1,-1 -1,-1 -1,1 -2,0 -1,-1 -1,0 -1,1 -2,0 -1,1 -2,0 -1,1 -2,0 -1,1 -2,0 -1,1 -2,0 -1,1 -2,0 -1,1 -2,0 -1,1 -2,0 -1,1 -1,0 -1,1 -2,0 -1,1 -1,0 -1,1 -1,0 -1,1 -2,0 -1,1 -1,0 -1,1 -1,0 -1,1 -7,0 0,2 -1,1Z"/>
<path onmouseover="hoverPath(evt)" onmouseout="recoverPath(evt)" fill="rgb(244,243,237)" d="M  107,226l 0,0 -1,1 1,1 1,0 1,1 1,0 1,1 1,1 1,0 1,1 1,1 1,1 1,0 1,1 1,1 1,0 1,1 1,1 1,0 1,1 1,1 1,0 1,1 1,0 1,1 1,0 1,1 1,0 1,1 1,0 1,1 14,0 1,-1 3,0 1,-1 3,0 1,-1 2,0 1,-1 3,0 1,-1 2,0 1,-1 2,0 1,-1 3,0 1,-1 2,0 1,-1 1,0 1,-1 1,0 1,-1 1,0 1,-1 2,0 1,-1 1,0 1,-1 1,0 1,-1 2,0 1,-1 1,0 0,-1 1,-1 1,0 1,-1 1,0 1,-1 1,0 1,-1 1,0 1,-1 1,0 1,-1 1,0 1,-1 1,-1 1,0 1,-1 1,0 1,-1 1,0 1,-1 1,0 1,-1 2,0 1,-1 1,0 1,-1 1,0 1,-1 1,0 1,-1 1,0 1,-1 1,0 1,-1 1,0 1,-1 1,0 1,-1 1,0 1,-1 1,0 1,-1 1,0 1,-1 1,0 1,-1 2,0 1,-1 1,0 1,-1 1,0 1,-1 1,-1 2,0 1,-1 2,0 0,-31 -1,0 -1,-1 -1,-1 -1,-1 -1,-1 0,-2 -1,0 -1,-1 -1,-1 0,-2 -1,0 -1,-1 0,-2 -1,-1 -1,-1 0,-2 -1,-1 0,-1 -1,-1 0,-1 -1,-1 -1,-1 0,-1 -1,-1 -1,-1 0,-2 -1,-1 0,-1 -1,-1 -1,-1 -1,-1 -1,-1 -1,-1 -1,-1 -1,-1 -1,-1 -1,-1 0,-2 -1,0 -1,-1 -1,-1 -2,0 -1,1 -1,0 0,1 -1,1 -1,0 -1,1 -1,1 -1,0 -1,1 -1,1 -1,0 -1,1 -1,0 -1,1 -1,0 -1,1 -1,0 -1,1 -1,1 -1,0 -1,1 -1,1 -1,1 -1,1 -1,1 -1,1 -1,0 -1,1 -1,0 0,1 -1,1 -2,0 0,1 -1,1 -2,0 -1,1 -1,0 -1,1 -1,0 -1,1 -1,0 -1,1 -1,0 -1,1 -1,0 0,5 1,1 0,12 -1,1 0,3 -1,1 0,3 -1,1 0,1 -1,1 0,1 -1,1 0,1 -1,1 -1,1 -1,1 0,1 -3,3 0,1 -1,1 -1,1 0,1 -1,1 0,1 -1,1 -1,1 0,1 -1,1 0,1 -1,1 -1,1 0,1 -1,1 0,1 -1,1 -1,1 -1,0 -1,1 -1,1 -1,0 -1,1 -2,0 -1,1 -2,0 -1,1 -2,0 -1,1 -1,0 -1,1 -2,0 -1,1 -3,0 -1,1 -3,0 -1,1 -7,0 -1,1 -3,0 -1,1 -2,0 -1,1 -2,0 -1,1 -2,0 -1,1 -1,0 -1,1Z"/>
<path onmouseover="hoverPath(evt)" onmouseout="recoverPath(evt)" fill="rgb(244,243,236)" d="M  148,90l 0,0 -1,1 0,1 1,1 0,1 2,2 2,0 1,-1 7,0 1,1 6,0 1,1 2,0 2,-2 5,0 1,-1 10,0 1,1 4,0 1,1 1,0 1,-1 1,-1 6,0 1,-1 3,0 -1,-1 0,0 -1,-1 -1,-1 -1,-1 -1,-1 0,-1 -1,0 -1,-1 0,-1 -1,0 -1,-1 -1,-1 -1,0 -1,-1 -1,-1 0,-1 -1,0 -1,-1 0,-2 -1,0 -1,-1 0,-1 -1,-1 -1,-1 0,-1 -1,-1 -1,-1 -1,-1 -2,0 -1,-1 -3,0 -1,1 -2,0 -1,1 -2,0 -1,1 -1,0 -2,2 -1,0 -1,1 -1,1 -1,0 -1,1 -1,0 -1,1 -1,1 -1,1 -1,1 -1,0 0,1 -1,1 -1,1 -1,0 0,1 -1,1 -1,1 -1,1 -1,1 -1,0 -2,2Z"/>
<path onmouseover="hoverPath(evt)" onmouseout="recoverPath(evt)" fill="rgb(242,241,236)" d="M  158,110l -1,0 0,2 1,1 0,3 1,1 0,2 1,1 0,2 -1,1 1,1 0,1 1,1 1,1 0,1 1,1 1,1 0,1 1,1 1,1 0,1 1,1 1,1 0,2 1,1 2,0 1,1 0,1 1,1 1,1 0,1 1,1 0,1 1,1 0,1 2,0 1,-1 4,0 1,1 1,-1 1,0 1,-1 2,0 0,-1 1,-1 2,0 0,-1 1,-1 1,0 1,-1 1,0 1,-1 2,-2 1,-1 1,-1 1,-1 1,0 1,-1 1,-1 1,0 1,-1 1,0 1,-1 1,0 1,-1 1,0 1,-1 1,-1 1,0 1,-1 1,-1 1,0 0,-1 1,-1 1,0 0,-2 1,-1 1,-1 0,-5 -1,-1 0,-3 -1,-1 0,-1 -1,-1 0,-1 -8,0 -1,-1 -4,0 -1,1 0,0 -1,1 -9,0 -1,1 -15,0 -1,-1 -7,0 -1,-1 -4,0 -1,1 -1,1 -4,0 -1,1Z"/>
<path onmouseover="hoverPath(evt)" onmouseout="recoverPath(evt)" fill="rgb(169,196,236)" d="M  173,66l 0,0 -1,1 -1,0 -1,1 -1,0 -1,1 -1,0 -1,1 -5,0 -1,1 0,3 -1,1 -1,1 0,1 -1,1 -2,0 -1,1 -1,1 -2,0 0,3 -1,1 -1,1 0,1 -1,1 -2,0 -1,1 -1,1 0,1 1,0 1,-1 1,-1 -1,0 -1,1 5,-3 2,-2 1,-1 0,-1 1,-1 1,0 1,-1 0,-1 17,-13 -13,10 1,-1 1,-1 1,0 1,-1 1,0 1,-1 1,-1 1,0 1,-1 1,-1 1,0 1,-1 2,0 1,-1 2,0 1,-1 5,0 1,1 2,0 1,1 1,1 1,1 1,1 0,1 1,1 1,1 0,1 1,0 1,1 0,2 1,-1 0,0 -1,-2 0,0 -1,-1 0,-1 -1,-1 0,-1 -1,-1 0,-4 1,-1 12,0 1,1 3,0 1,1 2,0 1,1 2,0 1,1 2,0 1,1 1,0 1,1 1,0 1,1 2,0 1,1 1,0 1,1 1,0 1,1 1,0 1,1 1,0 1,1 1,0 1,1 1,0 1,1 1,0 1,1 1,0 1,1 1,1 1,1 1,1 1,0 1,1 1,1 1,1 1,1 1,1 1,1 1,1 0,1 1,0 1,1 1,0 0,-7 -2,0 -1,-1 -1,0 -1,-1 -1,-1 -1,-1 -1,-1 -1,0 -1,-1 -1,-1 -1,-1 -1,0 -1,-1 -1,-1 -1,0 -1,-1 -1,-1 -1,0 -1,-1 -1,-1 -1,-1 -1,-1 -2,-2 -1,0 -1,-1 -1,-1 -1,-1 -1,-1 -1,-1 -1,-1 -1,-1 0,-1 -1,-1 0,-1 -1,-1 0,-3 -1,-1 0,-17 1,-1 0,-9 1,-1 0,-1 1,-1 5,0 1,-1 16,0 1,1 10,0 0,-23 -255,0 0,84 2,0 0,-4 1,-1 2,0 0,-1 -1,-1 0,-3 2,-2 0,-1 1,-1 1,-1 1,-1 1,-1 1,-1 1,-1 1,0 1,-1 1,0 1,-1 1,-1 2,0 1,-1 4,0 1,-1 6,0 1,-1 7,0 1,-1 7,0 1,-1 10,0 1,1 6,0 1,1 20,0 1,-1 1,0 1,-1 1,0 1,-1 2,0 1,-1 1,0 1,-1 1,0 1,-1 2,0 1,-1 1,0 1,-1 2,0 1,-1 2,0 1,-1 2,0 1,-1 2,0 1,-1 2,0 1,-1 2,0 1,-1 2,0 1,-1 2,0 1,-1 3,0 1,1 1,-1 0,-1 1,-1 3,0 1,-1 3,0 1,-1 3,0 1,-1 3,0 1,-1 3,0 1,-1 4,0 1,-1 5,0 1,-1 4,0 1,-1 4,0 1,-1 3,0 1,-1 3,0 1,-1 3,0 1,-1 4,0 1,-1 3,0 1,-1 3,0 1,1 0,1 1,1 0,11 -1,1 -1,1 -2,2 -1,0 -1,1 -1,1 -1,1 -1,1 -1,1 -1,0 -1,1 -1,1 -1,1 -1,1 0,2 -1,1 -1,1 -4,0 -1,-1 -1,0 -1,-1 1,2 0,4 -1,1 -1,1 -1,1 -14,11 13,-10 13,-9 0,-1 1,-1 2,-2 1,-1 1,-1 1,-1 1,0 1,-1 1,0 1,-1 1,-1 4,0 1,1 0,2 1,1 0,1 1,1 1,1 0,1 1,1 1,1 1,1 0,4 -1,1 -6,0 -1,-1 -10,0 -1,-1 -2,0 -1,-1 0,-3 -13,9Z"/>
<path onmouseover="hoverPath(evt)" onmouseout="recoverPath(evt)" fill="rgb(244,243,237)" d="M  223,26l -1,1 0,9 -1,1 0,15 1,1 0,3 1,1 0,1 1,1 0,1 1,1 1,1 1,1 1,1 1,1 1,1 1,0 1,1 1,1 1,1 3,3 1,0 1,1 1,1 1,0 1,1 1,1 1,0 1,1 1,1 1,1 1,0 1,1 1,1 1,1 1,1 1,0 1,1 1,0 0,-59 -11,0 -1,-1 -14,0 -1,1 -4,0 -1,1Z"/>
<path onmouseover="hoverPath(evt)" onmouseout="recoverPath(evt)" fill="rgb(239,237,229)" d="M  0,91l 0,60 2,0 1,1 1,0 0,-2 1,-1 2,0 1,1 0,-3 1,-1 2,0 1,1 1,0 1,-1 1,0 1,-1 1,0 0,-3 1,-1 2,0 1,1 1,0 1,-1 1,0 0,-2 1,-1 1,0 0,-1 1,-1 2,0 1,1 1,0 1,-1 1,0 0,-2 1,-1 2,0 1,1 1,-1 0,0 1,-1 1,0 0,-2 1,-1 1,0 1,-1 2,0 1,1 0,-2 1,-1 1,0 1,-1 2,0 1,1 1,-1 0,0 1,-1 1,0 0,-1 -1,0 -1,-1 -1,-1 -1,-1 -1,-1 0,-1 -1,-1 -1,-1 -1,-1 -1,-1 -1,0 -1,-1 0,-2 -1,-1 -1,-1 -1,-1 0,-1 -8,0 -1,-1 0,-2 1,-1 1,-1 4,0 0,-2 1,-1 2,0 0,-2 -3,0 -1,-1 0,-5 -1,-1 -2,0 -1,1 -6,0 0,2 1,0 1,1 1,1 0,4 -1,1 -7,0 2,1 0,2 1,1 0,2 -1,1 -1,1 -6,0 -1,-1 -2,0 -1,1 -2,0 -1,-1 0,0 -1,1 -2,0 -1,-1 0,-2 -1,-1 0,-8 1,-1 0,-5 -2,0 -1,-1 0,-1 -1,-1 0,-1 -2,0Z"/>
<path onmouseover="hoverPath(evt)" onmouseout="recoverPath(evt)" fill="rgb(242,241,234)" d="M  2,167l 0,1 1,1 0,1 1,1 1,1 4,0 1,1 8,0 1,1 24,0 1,1 2,0 1,1 1,0 1,1 2,0 1,1 2,0 1,1 10,0 1,1 2,0 1,1 1,1 1,1 1,1 1,1 0,2 1,1 0,2 1,1 0,2 1,1 0,2 1,1 0,1 1,1 0,1 1,1 0,1 1,1 0,1 1,1 0,1 1,1 0,1 1,1 0,2 1,1 0,1 1,1 0,1 1,1 0,1 1,1 1,0 1,1 1,0 1,1 1,0 1,1 8,0 1,-1 1,0 1,-1 1,0 1,-1 2,0 1,-1 2,0 1,-1 1,0 1,-1 2,0 1,-1 1,0 1,-1 2,0 1,-1 3,0 1,-1 2,0 1,-1 0,-8 -1,-1 0,-1 -1,-1 0,-2 -1,-1 0,-3 -1,-1 0,-4 -1,-1 0,-3 1,-1 -1,-1 0,-1 -1,-1 0,-1 -1,0 -1,-1 0,-2 -1,-1 -1,0 -1,-1 0,-2 -1,-1 -1,-1 -1,0 -1,-1 0,-1 -1,-1 -1,-1 0,-1 -1,0 -1,-1 0,-1 -1,-1 0,-1 -1,0 -1,-1 0,-1 -1,-1 0,-1 -1,-1 -1,-1 -1,-1 0,-1 -1,-1 0,-1 -1,-1 -1,-1 0,-1 -1,-1 0,-5 1,-1 1,0 1,-1 1,0 1,-1 1,0 1,-1 1,0 1,-1 2,0 1,-1 3,0 1,-1 5,0 1,-1 2,0 1,-1 2,0 1,-1 1,-1 1,0 0,-1 1,-1 2,0 1,-1 6,-6 1,-1 2,-2 1,-1 1,0 1,-1 0,-2 1,-1 1,-1 3,0 0,-1 1,-1 -1,-1 -3,0 -1,1 -3,0 -1,-1 -1,0 -1,1 -1,0 -1,1 -3,0 -1,-1 -1,0 -1,1 -1,0 -1,1 -3,0 -1,-1 0,0 -2,2 -4,0 -1,1 -4,0 -1,1 -3,0 -1,-1 0,-1 -1,0 -1,1 -1,0 0,1 -1,1 -1,1 -2,0 -1,-1 0,-1 -2,0 -1,1 -2,0 -1,1 0,1 -1,1 -1,1 -4,0 -1,-1 -1,0 -1,1 -2,0 -1,1 -1,0 -1,1 -2,0 -1,1 -1,0 -1,1 0,2 -1,1 -2,0 -1,-1 0,-1 -1,1 -1,0 -1,1 -1,0 -1,1 -1,1 -1,0 0,2 -1,1 -2,0 -1,-1 -1,1 -1,0 -1,1 -1,0 -1,1 -1,0 0,2 -1,1 -2,2 -2,0 -1,-1 0,2 -1,1 -2,0 -1,-1 0,2 -1,1 -1,0 -1,1 -1,0 -1,1 -2,0 -1,-1 -1,0 0,2 -1,1 -2,0 -1,-1 0,3 -1,1 -2,0 -1,-1 -1,0 0,2 -1,1 -2,0 -1,-1 -1,1 0,0 -1,1 -1,0 -1,1 -1,0 0,2 -1,1 -2,0 -1,-1 -1,1 0,0 -1,1 -1,0 -1,1 -1,0 0,2 -1,1 -1,0 0,1 -1,1 -2,0 -1,1 -1,0 -1,1 -1,-1 0,-1 -1,0 0,1 1,0 1,1 65,-31 1,-1 2,0 1,1 0,1 1,1 0,2 -1,1 -2,0 -1,-1 0,-1 -1,-1 0,-2 -65,31 72,-21 2,0 1,1 0,1 1,1 0,1 1,1 0,2 -1,1 -2,0 -1,-1 0,-1 -1,-1 0,-1 -1,-1 0,-2 1,-1 -72,21 77,-12 2,0 1,1 0,1 1,1 0,2 -1,1 -2,0 -1,-1 0,-1 -1,-1 0,-2 1,-1 -77,12 81,-5 2,0 1,1 0,2 -1,1 -2,0 -1,-1 0,-2 1,-1 -81,5 86,0 1,1 0,2 -1,1 -2,0 -1,-1 0,-2 1,-1 -84,0 87,5 2,0 1,1 0,2 -1,1 -2,0 -1,-1 0,-2 1,-1 -87,-5 90,10 2,0 1,1 0,1 1,1 0,1 1,1 0,2 -1,1 -2,0 -1,-1 0,-1 -1,-1 0,-1 -1,-1 0,-2 1,-1 -90,-10Z"/>
<path onmouseover="hoverPath(evt)" onmouseout="recoverPath(evt)" fill="rgb(237,237,232)" d="M  8,89l 0,7 -1,1 0,6 1,1 0,-1 1,-1 2,0 1,1 0,3 1,-1 4,0 1,1 4,0 1,-1 -1,-1 0,-2 -1,0 -1,-1 0,-2 1,-1 7,0 0,-2 -1,-1 -1,0 -1,-1 0,-4 1,-1 6,0 1,-1 4,0 1,1 1,1 0,5 3,0 1,1 0,4 -1,1 -2,0 0,2 -1,1 -4,0 -1,1 8,0 1,1 0,1 1,1 1,1 1,1 0,2 1,0 1,1 1,1 1,1 1,1 1,1 0,1 1,1 1,1 1,1 1,0 1,1 0,-1 1,-1 1,0 1,-1 2,0 1,1 1,-1 0,-2 1,-1 2,0 1,1 0,1 1,-1 1,0 1,-1 0,-2 1,-1 4,0 1,1 1,-1 0,-1 1,-1 2,0 1,1 1,-1 2,0 1,-1 0,-1 1,-1 1,-1 1,0 1,-1 -1,-1 0,-1 -1,-1 0,-2 1,-1 -1,-1 0,-1 -1,0 -1,-1 -1,-1 0,-2 -1,0 -1,1 -1,0 -1,1 -1,0 -1,1 -1,0 -1,1 -1,0 -1,1 -6,0 -1,-1 0,-1 -2,0 -1,-1 0,-1 -1,-1 -1,-1 -1,0 -1,-1 0,-7 -1,-1 0,-2 -1,-1 -1,-1 -1,0 -1,-1 -1,-1 -1,0 -1,-1 -3,0 -1,-1 0,-1 -2,-2 -6,0 -1,-1 0,-4 -6,0 0,2 -1,1 -4,0 -1,-1 -1,0 -1,1 -2,0 0,2 -1,1 -3,0 -1,-1 -2,0 -1,1 -1,0 -1,1 -2,0 -1,1 -2,0 0,2 -1,1 -1,0 0,1 -1,1 -2,0 0,5 1,1 0,1 2,0 1,1 32,-22 -32,22Z"/>
<path onmouseover="hoverPath(evt)" onmouseout="recoverPath(evt)" fill="rgb(242,240,232)" d="M  48,71l 0,0 1,1 1,1 1,1 0,1 3,0 1,1 1,0 1,1 1,1 1,0 1,1 1,1 1,1 0,2 1,1 0,7 1,0 1,1 1,1 1,1 0,1 2,0 1,1 0,1 4,0 1,-1 1,0 1,-1 1,0 1,-1 1,0 1,-1 1,0 1,-1 1,0 1,-1 2,0 1,1 0,-2 1,-1 1,0 1,-1 1,-1 1,0 1,-1 1,0 1,-1 1,0 1,-1 1,0 1,-1 1,0 1,-1 1,0 1,-1 2,0 1,-1 2,0 1,-1 3,0 1,-1 16,0 1,1 3,0 1,1 1,1 2,0 1,-1 0,0 1,-1 2,0 0,-9 1,-1 -1,-1 0,-1 -7,0 -1,-1 -3,0 0,2 -1,1 -5,0 -1,-1 -3,0 -1,1 -3,0 -1,1 -2,0 0,2 -1,1 -3,0 -1,-1 -1,0 -1,1 -2,0 -1,1 -2,0 0,2 -1,1 -2,0 -1,1 -1,0 -1,1 -2,0 -1,1 -4,0 -1,-1 0,2 -1,1 -5,0 -1,-1 -1,0 -1,-1 -1,0 -1,-1 -1,-1 -1,-1 -1,-1 0,-1 -1,-1 0,-2 1,-1 1,0 1,-1 0,-2 -1,1 -5,0 -1,-1 -9,0 -1,-1 0,-4 -1,-1 0,-2 -1,-1 -8,0 -1,1 -7,0 -1,1 -7,0 -1,1 -6,0 -1,1 -4,0 -1,1 -2,0 -1,1 -1,1 -1,0 -1,1 -1,0 -1,1 -1,1 -1,1 -1,1 -1,1 0,1 -2,2 0,1 1,1 0,-2 1,-1 2,0 1,-1 2,0 1,-1 1,0 1,-1 4,0 1,1 1,0 0,-2 1,-1 2,0 1,-1 3,0 1,1 2,0 0,-2 1,-1 5,0 1,-1 18,0 1,1 0,2 -1,1 -15,0 0,2Z"/>
<path onmouseover="hoverPath(evt)" onmouseout="recoverPath(evt)" fill="rgb(170,198,238)" d="M  66,183l 0,1 1,1 1,1 1,1 0,2 1,1 0,2 1,1 0,2 1,1 0,2 1,1 0,1 1,1 0,2 1,1 0,1 1,1 0,1 1,1 0,1 1,1 1,1 0,1 1,1 0,1 1,1 0,1 1,1 0,1 1,1 1,1 1,1 1,1 1,1 1,1 1,0 1,1 2,0 1,1 2,0 1,1 2,0 1,1 1,1 1,0 1,1 1,1 1,0 1,1 1,1 1,0 1,1 1,0 1,1 1,1 1,0 1,1 1,1 1,0 1,1 1,1 1,0 1,1 1,1 1,0 1,1 1,1 1,0 1,1 1,1 1,0 1,1 1,0 1,1 1,0 1,1 1,1 1,0 1,1 6,0 1,-1 5,0 1,-1 3,0 1,-1 2,0 1,-1 2,0 1,-1 2,0 1,-1 2,0 1,-1 2,0 1,-1 3,0 1,-1 2,0 1,-1 3,0 1,-1 2,0 1,-1 1,0 1,-1 1,0 1,-1 1,0 1,-1 1,0 1,-1 1,0 1,-1 1,-1 1,0 1,-1 1,0 1,-1 1,0 1,-1 1,0 1,-1 1,0 1,-1 1,0 1,-1 1,0 1,-1 1,0 1,-1 1,0 1,-1 1,0 1,-1 1,0 1,-1 1,0 1,-1 1,0 1,-1 1,0 1,-1 1,0 1,-1 1,0 1,-1 1,0 1,-1 1,0 1,-1 1,0 1,-1 1,0 1,-1 1,0 1,-1 1,0 1,-1 1,0 1,-1 1,0 1,-1 1,0 0,-1 1,-1 2,0 1,-1 1,0 1,-1 1,0 1,-1 1,0 1,-1 4,0 0,-2 -1,0 -1,1 -2,0 -1,1 -184,-20 172,26 -1,0 -1,1 -1,0 -1,1 -1,0 -1,1 -1,0 -1,1 -1,0 -1,1 -1,0 -1,1 -1,0 -1,1 -1,0 -1,1 -1,0 -1,1 -2,0 -1,1 -1,0 -1,1 -1,0 -1,1 -1,0 -1,1 -1,0 -1,1 -1,1 -1,0 -1,1 -1,0 -1,1 -1,0 -1,1 -1,0 -1,1 -1,0 -1,1 -1,0 0,1 2,-1 2,-1 2,-1 2,-1 2,-1 2,-1 29,-15 -172,-26 129,48 -2,1 -1,0 -1,1 -1,0 -1,1 -1,0 -1,1 -2,0 -1,1 -1,0 -1,1 -1,0 -1,1 -1,0 -1,1 -2,0 -1,1 -3,0 -1,1 -2,0 -1,1 -2,0 -1,1 -3,0 -1,1 -2,0 -1,1 -3,0 -1,1 -3,0 -1,1 -16,0 -1,-1 -1,0 -1,-1 -1,0 -1,-1 -1,0 -1,-1 -1,0 -1,-1 -1,0 -1,-1 -1,-1 -1,0 -1,-1 -1,-1 -1,0 -1,-1 -1,-1 -1,0 -1,-1 -1,-1 -1,-1 -1,0 -1,-1 -1,-1 -1,0 -1,-1 -1,0 -1,-1 -1,-1 0,-2 1,-1 1,-1 1,-1 1,0 1,-1 2,0 1,-1 2,0 1,-1 2,0 1,-1 3,0 1,-1 7,0 1,-1 3,0 1,-1 3,0 1,-1 2,0 1,-1 1,0 1,-1 2,0 1,-1 2,0 1,-1 2,0 1,-1 1,0 1,-1 1,-1 1,0 1,-1 0,-1 1,-1 0,-1 1,-1 1,-1 0,-1 1,-1 0,-1 1,-1 1,-1 0,-1 1,-1 0,-1 1,-1 1,-1 0,-1 1,-1 1,-1 1,-1 0,-1 1,-1 1,-1 1,-1 0,-1 1,-1 0,-1 1,-1 0,-1 1,-1 0,-3 1,-1 0,-3 1,-1 0,-10 -1,-1 0,-7 1,-1 1,0 1,-1 1,0 1,-1 -1,0 -2,1 -3,0 -1,-1 0,-1 -1,-1 0,-1 -1,-1 0,-1 -1,-1 -1,-1 0,1 1,1 0,1 1,1 0,2 1,1 0,1 1,1 0,3 1,1 0,3 20,73 -129,-48 110,-21 0,7 -1,1 0,2 -1,1 0,1 -1,1 0,1 -1,1 0,1 -1,1 0,1 -1,1 0,2 -1,1 0,1 -1,1 0,1 -1,1 -1,1 -1,1 0,1 -1,1 -1,1 0,1 -1,1 -1,1 -1,1 0,1 -1,1 -1,1 0,1 -1,1 -1,1 0,1 -1,1 -1,1 -1,1 -1,0 -1,1 -3,0 -1,1 -3,0 -1,1 -3,0 -1,1 -2,0 -1,-1 -1,-1 0,-2 -1,-1 0,-5 -1,-1 0,-1 -1,-1 -1,-1 0,-1 -1,-1 -1,-1 0,-1 -1,-1 0,-4 -1,-1 0,-2 -1,0 0,1 1,2 0,3 1,2 0,2 1,1 0,2 1,1 0,1 1,1 0,10 -1,1 -1,1 -2,0 -1,1 -3,0 -1,1 -2,0 -1,1 -1,0 -1,1 -2,0 -1,1 -1,0 -1,1 -2,0 -1,1 -2,0 -1,1 -1,0 -1,1 -1,0 -1,1 -10,0 -1,-1 -1,0 -1,-1 -1,0 -1,-1 -1,0 -1,-1 -1,-1 0,-1 -1,-1 0,-1 -1,-1 0,-1 -1,-1 0,-2 -1,-1 0,-1 -1,-1 0,-1 -1,-1 0,-1 -1,-1 0,-1 -1,-1 0,-1 -1,-1 0,-1 -1,-1 0,-2 -1,-1 0,-2 -1,-1 0,-2 -1,-1 0,-2 -1,-1 -1,-1 -1,-1 -1,-1 -1,0 110,-20 -110,21Z"/>
<path onmouseover="hoverPath(evt)" onmouseout="recoverPath(evt)" fill="rgb(244,243,237)" d="M  102,143l -1,0 0,3 1,1 0,1 1,1 1,1 0,1 1,1 0,1 1,1 1,1 1,1 0,1 1,1 0,1 1,0 1,1 0,1 1,1 0,1 1,0 1,1 0,1 1,1 1,1 0,1 1,0 1,1 1,1 1,1 0,2 1,0 1,1 1,1 0,2 1,0 1,1 0,1 1,1 0,1 1,1 0,1 1,0 1,1 0,2 1,1 0,4 1,1 0,1 1,1 1,1 0,1 1,1 1,1 0,1 1,1 0,5 1,1 0,2 1,1 1,-1 3,0 1,-1 3,0 1,-1 3,0 1,-1 1,0 1,-1 1,-1 0,-1 1,-1 1,-1 0,-1 1,-1 1,-1 0,-1 1,-1 2,-2 0,-1 2,-2 0,-1 1,-1 1,-1 1,-1 0,-1 1,-1 0,-1 1,-1 0,-2 1,-1 0,-1 1,-1 0,-1 1,-1 0,-1 1,-1 0,-1 1,-1 0,-2 1,-1 0,-8 -1,-1 0,-3 -1,-1 0,-3 -1,-1 0,-1 -1,-1 0,-2 -1,-1 0,-1 -1,-1 0,-3 -1,-1 -1,-1 0,-2 -1,-1 -1,-1 0,-1 -1,-1 -1,-1 0,-1 -1,-1 -1,-1 0,-1 -1,-1 -1,-1 0,-1 -1,-1 0,-1 -1,0 -1,-1 0,-1 -1,-1 0,-1 -1,-1 0,-1 -3,0 -1,1 -2,0 -2,2 -1,0 -1,1 -1,1 -1,1 -1,1 -1,1 -1,1 -1,1 -1,1 -1,1 -1,1 -1,1 -2,0 0,1 -1,1 -1,0 -1,1 -1,1 -2,0 -1,1 -2,0 -1,1 -5,0 -1,1 -3,0 -1,1 -2,0 -1,1 -1,0 -1,1 -1,0 -1,1 -1,0 -1,1Z"/>
</svg>