<svg width="256" height="256" xmlns="http://www.w3.org/2000/svg"><script> 
var tempColor;
function hoverPath(evt){
obj = evt.target;
tempColor = obj.getAttribute("fill");
obj.setAttribute("fill","red");
//alert(tempColor);
//obj.setAttribute("stroke","red");}
function recoverPath(evt){
obj = evt.target;
obj.setAttribute("fill", tempColor);
//obj.setAttribute("stroke", tempColor);
}</script><path onmouseover="hoverPath(evt)" onmouseout="recoverPath(evt)" fill="rgb(170,198,237)" d="M  0,124l 0,39 2,0 1,-1 8,0 1,-1 5,0 0,-1 1,-1 1,0 1,-1 1,0 0,-1 1,-1 1,-1 1,0 1,-1 1,0 1,-1 1,-1 1,0 1,-1 1,0 1,-1 1,0 1,-1 1,0 1,-1 1,0 1,-1 1,0 1,-1 1,0 1,-1 1,0 1,-1 1,0 1,-1 1,0 1,-1 1,0 1,-1 1,0 1,-1 1,0 1,-1 1,0 1,-1 1,0 1,-1 1,-1 1,0 1,-1 1,0 1,-1 1,0 1,-1 1,0 1,-1 1,0 0,-1 1,-1 0,-2 -1,-1 0,0 -1,1 -1,0 -1,1 -1,0 -1,1 -1,0 -1,1 -2,0 -1,1 -1,0 -1,1 -1,0 -1,1 -1,0 -1,1 -1,0 -1,1 -1,0 -1,1 -1,0 -1,1 -1,0 -1,1 -1,0 -1,1 -1,0 -1,1 -1,0 -1,1 -1,0 -1,1 -1,0 -1,1 -1,0 -1,1 -1,0 -1,1 -2,0 -1,1 -1,0 -1,1 -2,0 -1,1 -2,0 -1,1 -2,0 -1,1 -2,0 -1,1 -5,0 -1,-1 -1,-1 0,-3 -1,-1 0,-6 -1,-1 0,-6 -1,-1 0,-4 1,-1 0,-2 -1,0 -1,-1 -1,-1 -1,1Z"/>
<path onmouseover="hoverPath(evt)" onmouseout="recoverPath(evt)" fill="rgb(239,239,233)" d="M  105,43l 0,0 1,1 9,0 1,1 2,0 1,1 2,0 1,1 5,0 1,1 0,2 -1,1 -11,0 -1,1 11,0 1,1 2,0 1,1 0,1 1,1 0,-1 -1,-2 -1,-1 0,-4 1,-1 1,0 1,-1 1,-1 0,-3 1,-1 0,-1 1,-1 0,-6 1,-1 1,0 1,-1 2,0 0,-1 1,-1 0,-1 1,-1 0,-2 1,-1 1,0 0,-1 1,-1 -1,-1 0,-2 -1,-1 0,-2 1,-1 1,0 1,-1 1,-1 1,0 1,-1 2,0 1,-1 1,0 1,-1 1,-1 4,0 1,1 0,-1 1,-1 1,0 0,-2 1,-1 1,0 1,-1 1,-1 1,0 1,-1 1,0 1,-1 1,0 0,-1 -4,0 0,1 -1,1 -1,1 -1,0 -1,1 -1,0 -1,1 -1,0 -1,1 -1,0 -1,1 -1,0 -1,1 -1,0 0,1 -1,1 -2,0 -1,1 -1,0 -1,1 -1,0 -1,1 -1,0 -1,1 -1,0 -1,1 0,5 -1,1 -6,0 -1,-1 -5,0 -1,-1 -3,0 -1,1 -1,0 -1,1 0,1 -1,1 -1,1 -2,0 -1,-1 0,-3 -3,0 -1,-1 -1,0 -1,1 -4,0 -1,1 -1,1 -1,1 -4,0 0,7 -1,1 -1,0 0,5 1,1 0,3 1,1 0,2Z"/>
<path onmouseover="hoverPath(evt)" onmouseout="recoverPath(evt)" fill="rgb(243,241,233)" d="M  115,76l -1,0 0,3 4,0 1,-1 3,0 1,-1 4,0 1,-1 4,0 1,-1 2,0 0,-4 1,-1 2,0 1,1 0,2 1,1 1,-1 7,0 1,1 0,-1 -1,-1 0,-2 -1,-1 0,-1 -1,-1 0,-1 -1,-1 0,-2 -1,0 -1,-1 -1,-1 0,-1 -1,-1 0,-1 -1,-1 -1,0 -1,-1 -2,0 -1,-1 -2,0 0,3 -1,1 -2,0 -1,-1 0,-1 -1,-1 0,-1 -2,0 -1,-1 -14,0 -1,-1 0,-2 1,-1 3,0 -2,-1 -9,0 0,3 4,0 1,1 0,2 -1,1 -1,0 -1,1 1,1 0,1 1,1 0,1 1,1 0,1 1,1 0,2 1,1 0,1 1,1 0,2 1,1 1,-1 3,0 1,1 0,2 -2,2Z"/>
<path onmouseover="hoverPath(evt)" onmouseout="recoverPath(evt)" fill="rgb(172,199,237)" d="M  115,90l 0,2 1,1 0,1 1,1 0,2 1,1 0,1 1,1 0,2 1,1 0,3 1,1 0,1 1,0 0,-2 1,-1 2,0 1,1 0,2 3,0 1,-1 1,0 1,-1 1,0 1,-1 3,0 1,1 0,2 1,1 2,0 1,1 1,1 0,1 1,1 0,1 1,1 1,1 0,3 1,0 1,-1 1,0 0,-2 1,-1 1,-1 1,0 1,-1 1,0 1,-1 2,0 1,1 1,-1 1,0 0,-2 1,-1 1,0 0,-1 -2,-2 0,-1 -1,-1 -1,-1 0,-1 -1,-1 -1,-1 -1,-1 0,-1 -1,-1 -1,-1 0,-1 -1,-1 0,-1 -2,-2 0,-2 -1,0 -1,-1 -1,-1 -3,0 -1,1 -3,0 0,3 -1,1 -2,0 -1,-1 0,-1 -1,-1 -1,-1 0,-2 1,-1 1,-1 0,-6 -1,-1 -1,0 -1,1 -4,0 -1,1 -4,0 -1,1 -3,0 -1,1 -6,0 -1,-1 0,-5 1,-1 -2,0 -1,-1 -1,-1 0,-2 -1,-1 0,-1 -1,-1 0,-2 -1,-1 0,-1 -1,-1 0,-1 -1,-1 0,-1 -1,-1 0,2 1,1 0,2 1,1 0,1 1,1 0,2 1,1 0,1 1,1 0,2 1,1 0,2 1,1 0,1 1,1 0,2 1,1 0,1 1,1 0,2 1,1 0,2 1,1 -1,-16 0,0 1,-1 -1,0 0,1 1,16Z"/>
<path onmouseover="hoverPath(evt)" onmouseout="recoverPath(evt)" fill="rgb(175,201,237)" d="M  186,176l 0,0 -1,1 -7,0 -1,1 -3,0 0,1 1,1 0,5 1,1 0,6 1,1 0,4 1,1 0,7 1,1 0,5 12,0 0,-3 1,-1 0,-5 1,-1 4,0 1,-1 12,0 1,1 2,0 1,1 1,0 1,-1 2,0 1,1 0,8 20,0 1,1 3,0 -3,-1 -1,-1 0,-4 -1,-1 0,-3 -1,-1 0,-2 -1,-1 0,-3 -1,-1 0,-4 1,-1 1,-1 -1,0 -1,-1 -1,-1 0,-3 -1,-1 -1,0 -1,1 -2,0 -1,1 -3,0 -1,1 -2,0 -1,1 -2,0 0,2 -1,1 -5,0 -1,-1 0,-13 1,-1 0,-1 1,-1 0,-6 -1,6 -4,0 -1,1 -4,0 -1,-1 0,-6 -2,0 -1,-1 0,-5 -1,-1 0,-3 1,-1 1,0 1,-1 1,0 1,-1 2,0 1,-1 3,0 0,-3 -1,0 -1,1 -2,0 -1,1 -1,0 -1,1 -2,0 -1,1 -3,0 -1,1 -2,0 0,1 1,0 1,1 0,2 -1,1 -4,0 -1,-1 0,-3 -1,-1 -1,-1 -1,1 -2,0 -1,1 -2,0 -1,1 -1,0 0,17 5,0 1,1Z"/>
<path onmouseover="hoverPath(evt)" onmouseout="recoverPath(evt)" fill="rgb(174,200,236)" d="M  0,193l 0,11 5,0 1,1 2,0 1,1 1,0 1,1 1,1 1,1 1,1 1,1 1,-1 2,0 1,1 1,1 1,1 1,0 1,1 1,1 1,1 1,0 1,1 1,1 3,0 1,-1 5,0 1,1 33,0 1,1 9,0 1,1 6,0 1,1 0,1 1,1 0,4 1,1 1,1 1,1 0,1 1,0 0,-2 -1,-1 0,-5 -1,-1 0,-3 -1,-1 0,-3 -9,0 -1,-1 -13,0 -1,-1 -15,0 -1,-1 -15,0 -1,-1 -3,0 -1,-1 -2,0 -1,-1 -1,0 -1,-1 -1,-1 -1,-1 -1,0 -1,-1 -1,-1 -1,-1 -1,-1 -1,-1 -1,-1 -1,-1 -1,-1 -1,-1 -1,-1 -1,-1 -1,-1 -1,-1 -1,0 -1,-1 -7,0 -1,1Z"/>
<path onmouseover="hoverPath(evt)" onmouseout="recoverPath(evt)" fill="rgb(244,243,236)" d="M  0,253l 0,2 98,0 0,-3 -1,-1 0,-3 -1,-1 0,-3 -1,-1 0,-3 -1,-1 0,-3 -1,-1 0,-2 -1,0 -1,-1 0,-1 -1,-1 -1,-1 -1,-1 0,-4 -1,-1 0,-1 -6,0 -1,-1 -9,0 -1,-1 -33,0 -1,-1 -3,0 -1,1 -5,0 -1,-1 -1,-1 -1,0 -1,-1 -1,-1 -1,-1 -1,0 -1,-1 -1,-1 -1,-1 0,1 1,1 0,1 1,1 1,0 1,1 1,1 1,1 1,1 1,0 1,1 1,1 1,0 1,-1 25,0 1,1 1,0 1,1 0,1 1,1 0,10 -1,1 -2,0 -1,1 -3,0 -1,1 1,1 0,2 -1,1 1,0 1,1 0,1 1,1 0,2 -1,1 -1,1 -8,0 -1,-1 -5,0 -1,1 -1,1 -1,0 -1,1 -2,0 -1,-1 0,-1 -1,-1 0,-2 -4,0 -1,-1 -1,1 -2,0 -1,1 -2,0 -1,1 -2,0 -1,1 -2,0 -1,1 -2,0 -1,1 -3,0 -1,1 -3,0 -1,1Z"/>
<path onmouseover="hoverPath(evt)" onmouseout="recoverPath(evt)" fill="rgb(201,216,236)" d="M  5,76l 0,-2 1,-1 0,-4 1,-1 0,-4 1,-1 0,-3 1,-1 -9,0 0,41 2,0 0,-3 -1,-1 0,-2 1,-1 2,0 1,1 1,1 4,0 1,1 8,0 1,1 2,0 1,-1 14,0 0,-3 -6,0 -1,-1 -27,0 -1,-1 0,-4 1,-1 0,-3 1,-1 0,-3 1,-1 0,-2 15,-17 0,0 1,1 37,0 -31,-1 -7,0 -15,17Z"/>
<path onmouseover="hoverPath(evt)" onmouseout="recoverPath(evt)" fill="rgb(171,198,237)" d="M  4,169l 0,2 1,1 0,3 1,1 2,0 1,1 1,1 1,1 0,1 1,1 0,3 1,1 0,1 1,1 4,0 0,-2 -1,-1 0,-1 -1,-1 0,-1 -1,-1 0,-1 -1,-1 0,-2 -1,-1 0,-2 -1,-1 0,-5 -3,0 -1,1 -3,0 -1,1Z"/>
<path onmouseover="hoverPath(evt)" onmouseout="recoverPath(evt)" fill="rgb(243,243,237)" d="M  7,1l 0,2 1,1 0,4 1,1 0,4 1,1 0,16 1,1 0,5 1,1 2,0 1,1 5,0 1,1 9,0 1,-1 14,0 1,-1 7,0 1,1 10,0 0,-5 -1,-1 0,-9 -1,-1 0,-7 -1,-1 0,-4 -1,-1 0,-4 -1,-1 0,-4 -51,0 -1,1Z"/>
<path onmouseover="hoverPath(evt)" onmouseout="recoverPath(evt)" fill="rgb(244,233,139)" d="M  72,61l 0,0 -1,1 0,4 -1,1 0,9 1,1 0,9 1,1 0,4 1,0 1,1 0,9 1,1 0,8 1,1 0,8 1,1 0,7 1,1 0,6 1,1 0,5 1,1 0,6 1,1 0,8 -1,1 1,0 1,1 0,2 1,1 0,4 1,1 0,5 1,1 0,4 1,1 0,6 1,1 0,5 1,1 0,6 1,1 0,6 1,1 0,4 1,1 0,4 1,0 1,1 0,3 1,1 0,3 1,1 0,5 1,1 0,4 -1,1 0,1 1,1 0,3 1,1 0,3 1,1 0,3 1,1 0,3 1,1 0,4 6,0 0,-4 -1,-1 0,-3 -1,-1 0,-3 -1,-1 0,-2 -1,-1 0,-4 -1,-1 0,-4 -1,-1 0,-5 -1,0 -1,-1 -1,-1 0,-4 -1,-1 0,-2 1,-1 0,-4 -1,-1 0,-6 -1,-1 0,-5 -1,-1 0,-5 -1,-1 0,-5 -1,-1 0,-6 -1,-1 0,-4 -1,-1 0,-5 -1,-1 0,-4 -1,-1 0,-5 -1,-1 0,-6 -1,-1 0,-5 -1,-1 0,-6 -1,-1 0,-6 -1,-1 0,-7 -1,-1 0,-8 -1,-1 0,-8 -1,-1 0,-13 1,-1 0,-1 -1,-1 0,-11 -1,-1 0,-10 -1,-1 0,-5 -1,-1 0,-14 -2,0 -1,-1 0,-5 1,-1 0,-7 -1,-1 0,-8 -1,-1 0,-6 -1,-1 0,-4 -1,-1 0,-4 -1,-1 0,-2 -9,0 0,3 1,1 0,4 1,1 0,4 1,1 0,7 1,1 0,9 1,1 0,7 1,0 1,1 0,2 -1,1 0,2 1,0 1,1 0,5 -1,1 -1,0 0,1 1,1 0,2 3,0 1,1Z"/>
<path onmouseover="hoverPath(evt)" onmouseout="recoverPath(evt)" fill="rgb(244,243,236)" d="M  72,1l 0,0 1,1 0,4 1,1 0,4 1,1 0,6 1,1 0,8 1,1 0,8 1,1 0,1 4,0 0,-2 1,-1 1,0 2,-2 0,-1 1,-1 2,0 0,-4 -1,-1 0,-1 -1,-1 0,-3 -1,-1 -1,-1 0,-1 -1,-1 0,-2 -1,-1 0,-1 -1,-1 0,-2 -1,-1 0,-1 -1,-1 0,-2 -1,-1 0,-1 -1,-1 0,-2 -5,0 -1,1Z"/>
<path onmouseover="hoverPath(evt)" onmouseout="recoverPath(evt)" fill="rgb(243,243,236)" d="M  81,65l 0,8 1,1 0,11 1,1 0,3 -1,1 0,11 1,1 0,8 1,1 0,8 1,1 0,7 1,1 0,6 1,1 0,6 1,1 0,5 1,1 0,6 1,1 0,5 1,1 0,4 1,1 0,5 1,1 0,4 1,1 0,6 1,1 0,5 1,1 0,5 1,1 0,5 1,1 0,6 1,1 0,5 1,1 7,0 1,1 10,0 1,-1 15,0 1,-1 19,0 1,-1 2,0 1,-1 1,-1 0,-2 1,-1 0,-1 -2,0 -1,-1 0,-1 -1,-1 0,-2 -1,-1 0,-1 -1,-1 0,-2 -1,-1 0,-1 -1,-1 0,-2 -1,-1 0,-1 -1,-1 0,-2 -1,-1 0,-1 -1,-1 0,-2 -1,-1 0,-1 -1,-1 -9,0 -1,-1 -10,0 -1,-1 -5,0 -1,-1 0,-10 -5,0 4,11 -4,0 -1,-1 -8,0 -1,-1 -1,0 -1,-1 0,-4 1,-1 0,-3 1,-1 8,0 -7,-1 0,-4 1,-1 1,-1 1,-1 1,-1 1,-1 2,-2 1,0 2,-2 1,-1 1,0 1,-1 0,-1 1,-1 3,0 -3,-1 -1,0 -1,-1 0,-1 -1,0 -1,-1 -3,0 -1,-1 0,-1 -1,-1 -1,-1 -3,-3 -1,-1 0,-4 1,-1 1,-1 0,-1 1,-1 -1,-1 0,-9 1,-1 3,0 1,1 0,1 1,1 4,0 1,-1 5,0 -1,-1 0,-1 -1,-1 0,-2 -1,-1 0,-2 -1,-1 0,-1 -1,-1 0,-3 -1,-1 0,-2 -1,-1 0,-1 -1,-1 0,-2 -1,-1 0,-1 -1,-1 0,-2 -1,-1 0,-2 -1,-1 0,-2 -1,-1 0,-1 -1,-1 0,-2 -1,-1 0,-1 -1,-1 0,-2 -1,-1 0,-2 -1,-1 0,-1 -1,-1 0,-2 -1,-1 0,-1 -1,-1 0,-2 -1,-1 0,-4 1,-1 1,0 1,-1 1,-1 -6,0 -1,-1 0,-3 -1,-1 0,-1 -1,-1 -1,0 -1,-1 -5,0 -1,-1 -6,0 -1,-1 -2,0 0,12 1,1 0,5 1,1Z"/>
<path onmouseover="hoverPath(evt)" onmouseout="recoverPath(evt)" fill="rgb(244,243,237)" d="M  84,1l 0,0 1,1 0,2 1,1 0,1 1,1 0,1 1,1 0,2 1,1 0,2 1,1 0,2 1,1 0,1 1,1 0,3 1,1 2,0 0,-5 1,-1 0,-1 1,-1 0,-1 1,-1 0,-3 1,-1 0,-6 1,-1 0,-3 -15,0 -1,1Z"/>
<path onmouseover="hoverPath(evt)" onmouseout="recoverPath(evt)" fill="rgb(242,242,236)" d="M  104,234l 0,4 1,1 0,2 1,1 0,3 1,1 0,3 1,1 0,5 41,0 0,-8 1,-1 0,-21 1,-1 1,0 1,-1 5,0 -4,-1 -2,0 -1,1 -9,0 -1,1 -39,0 0,4 1,1 0,4 1,1Z"/>
<path onmouseover="hoverPath(evt)" onmouseout="recoverPath(evt)" fill="rgb(176,201,237)" d="M  122,149l -2,0 0,1 -1,1 -1,1 -1,0 -1,1 -1,1 -1,1 -1,0 -1,1 -4,4 -1,1 0,2 6,0 1,1 6,0 1,1 6,0 1,1 0,1 1,1 6,0 1,1 5,0 1,-1 2,0 1,1 1,1 1,0 1,-1 0,-2 -1,-1 0,-3 2,-2 -1,0 -1,-1 -4,0 -1,-1 0,-2 1,-1 0,-1 -1,-1 0,-2 -1,-1 0,-2 -1,-1 0,-4 1,-1 7,0 1,-1 8,0 1,1 0,-1 1,-1 5,0 0,-2 1,-1 1,0 1,-1 0,-1 1,-1 1,0 1,-1 3,0 1,-1 3,0 1,-1 1,0 1,-1 -1,-1 -6,0 -1,-1 -1,0 -1,1 -3,0 -1,1 -1,1 -1,0 -1,1 -1,1 -1,1 -1,0 -1,1 -3,0 -1,-1 -2,0 -1,-1 -1,-1 0,-1 -1,-1 0,-1 -1,-1 -1,-1 0,-1 -1,-1 -3,0 -1,1 -3,0 -1,1 -3,0 -1,-1 -2,0 -1,-1 -1,-1 0,-1 -1,-1 0,-1 -1,-1 0,-2 -1,-1 0,-1 -1,0 -1,-1 -1,-1 0,-5 -1,-1 0,-2 -1,3 -1,0 0,1 1,1 0,2 1,1 0,1 1,1 0,2 -1,1 -5,0 -1,1 -6,0 -1,-1 -1,-1 0,-1 -1,0 0,7 1,1 0,2 -1,1 0,1 -1,1 -1,1 0,2 1,1 1,1 1,1 1,1 1,1 1,1 0,1 3,0 1,1 1,0 1,1 0,1 1,0 1,1 2,0 1,1 0,2 -1,1 35,0 -1,1 -3,0 4,-1Z"/>
<path onmouseover="hoverPath(evt)" onmouseout="recoverPath(evt)" fill="rgb(170,198,238)" d="M  164,33l -1,0 0,2 1,1 0,1 1,1 0,2 1,1 0,2 1,1 0,3 1,1 0,5 1,1 4,0 1,1 4,0 1,1 3,0 1,1 4,0 1,1 4,0 1,1 4,0 1,1 0,-3 -1,-1 0,-2 -1,-1 0,-2 -1,-1 0,-1 -1,-1 0,-4 -1,-1 0,-3 -1,-1 0,-3 -1,-1 0,-4 -3,0 -1,1 -11,0 -1,1Z"/>
<path onmouseover="hoverPath(evt)" onmouseout="recoverPath(evt)" fill="rgb(243,242,235)" d="M  170,137l -1,0 0,1 -1,1 -1,1 2,0 1,1 0,11 1,1 0,1 6,0 1,1 0,10 -1,1 -5,0 -1,-1 -2,0 2,1 0,-3 6,4 1,1 0,7 6,0 0,-1 -5,0 -1,-7 0,-13 1,-1 1,0 1,-1 2,0 1,-1 2,0 1,-1 2,0 1,1 1,1 1,1 0,-1 1,-1 2,0 1,-1 3,0 1,-1 2,0 1,-1 1,0 1,-1 2,0 1,-1 2,0 1,-1 1,0 1,-1 3,0 1,-1 1,0 1,-1 2,0 1,-1 2,0 1,-1 2,0 1,-1 3,0 1,-1 1,-1 3,0 1,-1 2,0 2,-2 3,0 1,-1 1,0 1,-1 0,-1 -1,-1 0,-1 -1,-1 0,-1 -1,-1 -2,0 -1,-1 -1,0 -1,1 -1,0 0,2 -1,1 -1,0 -1,1 -2,0 -1,1 -4,0 -1,-1 0,2 -1,1 -1,0 -1,1 -2,0 -1,1 -4,0 -1,-1 0,2 -1,1 -1,0 -1,1 -2,0 -1,1 -2,0 -1,1 -2,0 -1,1 -4,0 -1,-1 -1,-1 0,-1 -1,-1 0,-1 -1,-1 0,-1 -1,-1 0,-1 -1,-1 0,-2 -6,0 -1,-1 -2,0 -1,1 -3,0 1,1 0,2 -1,1 -1,1 -1,0 -1,1 -3,0 -1,1 -3,0 -1,1 22,18 0,1 2,0 -2,-1 -22,-18Z"/>
<path onmouseover="hoverPath(evt)" onmouseout="recoverPath(evt)" fill="rgb(172,199,238)" d="M  218,154l 0,0 -1,-1 0,-1 -1,-1 0,-1 -1,-1 0,-2 1,-1 -2,0 -1,1 -1,0 0,5 -1,1 -3,0 -1,1 -2,0 -1,1 -1,0 -1,1 -1,0 0,1 1,1 0,5 2,0 1,1 0,6 2,0 1,-1 4,0 0,-5 1,-1 2,0 1,1 0,8 -1,1 0,1 -1,1 0,11 3,0 0,-2 1,-1 2,0 1,-1 2,0 1,-1 3,0 1,-1 2,0 1,-1 3,0 1,1 1,1 0,3 1,1 3,0 1,1 0,2 -1,1 -2,0 -1,1 0,2 1,1 0,3 1,1 0,2 1,1 0,3 1,1 0,4 1,1 1,0 1,-1 3,0 1,-1 2,0 1,-1 4,0 0,-22 -1,0 -1,1 -2,0 -1,-1 0,-3 -1,-1 0,-2 -1,-1 0,-1 -1,-1 -1,-1 0,-1 -1,-1 0,-1 -1,-1 0,-1 -1,-1 -1,-1 0,-1 -1,-1 0,-1 -1,-1 0,-1 -1,-1 0,-2 -1,-1 0,-1 -1,-1 0,-1 -1,-1 0,-1 -1,-1 -1,-1 0,-1 -1,-1 0,-1 -4,0 -1,1 -2,0 -1,1 -2,0 0,3 -1,1Z"/>
<path onmouseover="hoverPath(evt)" onmouseout="recoverPath(evt)" fill="rgb(244,243,235)" d="M  227,1l 0,2 1,1 0,3 1,1 0,2 1,1 0,3 2,0 1,-1 2,0 1,-1 3,0 1,-1 2,0 1,-1 2,0 1,-1 3,0 1,-1 2,0 -1,-1 0,-1 -1,-1 0,-1 -1,-1 0,-3 -21,0 -1,1Z"/>
<path onmouseover="hoverPath(evt)" onmouseout="recoverPath(evt)" fill="rgb(244,243,237)" d="M  245,73l 0,4 -1,1 0,4 -1,1 0,1 1,1 9,0 1,1 1,0 0,-14 -9,0 -1,1Z"/>
<path onmouseover="hoverPath(evt)" onmouseout="recoverPath(evt)" fill="rgb(244,243,236)" d="M  0,170l 0,20 9,0 1,1 1,0 1,1 1,1 1,1 1,1 1,1 1,1 1,1 1,1 1,1 1,1 1,1 1,1 1,1 1,0 1,1 1,1 1,1 1,0 1,1 2,0 1,1 3,0 1,1 15,0 1,1 15,0 1,1 13,0 1,1 6,0 0,-3 -1,-1 0,-4 -1,-1 0,-6 -1,-1 0,-6 -1,-1 0,-5 -1,-1 0,-6 -1,-1 0,-4 -1,-1 0,-5 -1,-1 0,-4 -1,-1 0,-2 -7,0 -1,1 -8,0 -1,-1 -5,0 -1,1 -8,0 -1,1 -8,0 0,2 -1,1 -8,0 -1,1 -8,0 -1,1 -7,0 0,5 1,1 0,2 1,1 0,2 1,1 0,1 1,1 0,1 1,1 0,1 1,1 0,4 -1,1 -6,0 -1,-1 -1,-1 0,-1 -1,-1 0,-3 -1,-1 0,-1 -1,-1 -1,-1 -2,0 -1,-1 -1,-1 0,-3 -1,-1 0,-4 -2,0Z"/>
<path onmouseover="hoverPath(evt)" onmouseout="recoverPath(evt)" fill="rgb(243,241,233)" d="M  1,49l -1,0 0,8 7,0 0,-4 1,-1 0,-2 1,-1 0,-5 -1,-1 -3,0 0,1 -1,1 0,2 -1,1 -1,1Z"/>
<path onmouseover="hoverPath(evt)" onmouseout="recoverPath(evt)" fill="rgb(241,241,233)" d="M  17,46l 0,0 -1,1 0,1 -1,1 0,1 -1,1 -1,0 0,1 -1,1 0,3 -1,1 17,0 1,1 5,0 0,-1 1,-1 29,0 1,1 0,3 2,0 1,1 0,2 1,0 0,-2 1,-1 0,-2 -3,0 -1,-1 0,-2 -1,-1 0,-3 1,-1 1,0 0,-3 -1,0 -1,-1 0,-3 -15,0 -1,1 -9,0 -1,1 -21,0 -1,1Z"/>
<path onmouseover="hoverPath(evt)" onmouseout="recoverPath(evt)" fill="rgb(240,239,231)" d="M  53,93l 7,0 1,-1 6,0 1,-1 2,0 0,-3 -1,-1 0,-9 -1,-1 0,-11 1,-1 -2,0 -1,-1 0,-2 -2,0 -1,-1 0,-3 -27,0 24,1 0,2 -1,1 -39,0 -1,-1 -9,0 0,3 -1,1 0,4 -1,1 0,4 -1,1 0,4 -1,1 0,3 -1,1 0,3 -1,1 0,2 27,0 1,1 6,0 1,1 0,4 1,1 0,3 7,0 1,-1 6,0 -2,-1 0,-4 1,-1Z"/>
<path onmouseover="hoverPath(evt)" onmouseout="recoverPath(evt)" fill="rgb(178,203,237)" d="M  99,218l 0,3 1,1 40,0 1,-1 9,0 1,-1 4,0 1,1 3,0 1,1 0,2 -1,1 -5,0 -1,1 -1,0 0,21 -1,1 0,7 13,0 0,-6 -1,0 -1,-1 0,-19 1,-1 -1,-1 0,-4 1,-1 2,0 0,-1 1,-1 30,0 1,1 5,0 1,1 1,1 1,1 0,2 1,-3 0,-1 1,-1 18,0 1,1 0,3 1,-4 0,0 1,-1 5,0 1,-1 2,0 1,1 3,0 1,-1 7,0 1,1 0,1 1,1 0,2 2,0 1,1 0,2 1,1 1,0 0,-20 -3,0 -1,1 -2,0 -1,1 -3,0 0,2 -1,1 -5,0 -1,-1 -20,0 -1,-1 0,-8 -1,1 -3,0 -1,-1 -2,0 -1,-1 -10,0 -1,1 -4,0 0,5 -1,1 0,3 -1,1 -14,0 -1,-1 0,-5 -1,-1 0,-7 -1,-1 0,-4 -1,-1 0,-6 -1,-1 0,-5 -1,-1 0,-3 1,-1 -8,0 -1,-1 0,1 -1,1 -9,0 -1,1 -1,0 0,2 1,1 0,2 1,1 0,1 1,1 0,2 1,1 0,1 1,1 0,2 1,1 0,1 1,1 1,1 0,3 1,1 0,1 1,1 0,6 -1,1 0,2 -1,1 -1,1 -1,1 -2,0 -1,1 -19,0 -1,1 -15,0 -1,1 -12,0 -1,-1 -6,0 -1,1Z"/>
<path onmouseover="hoverPath(evt)" onmouseout="recoverPath(evt)" fill="rgb(186,205,231)" d="M  124,0l -22,0 0,4 -1,1 0,6 -1,1 0,3 -1,1 0,1 -1,1 0,1 -1,1 0,5 -1,1 -4,0 -1,-1 -1,-1 0,-3 -1,-1 0,-1 -1,-1 0,-2 -1,-1 0,-2 -1,-1 0,-2 -1,-1 0,-1 -1,-1 0,-1 -1,-1 0,-2 -1,-1 0,-2 -2,0 0,1 1,1 0,1 1,1 0,2 1,1 0,1 1,1 0,2 1,1 0,1 1,1 0,2 1,1 0,1 1,1 -1,-3 0,0 -1,-3 38,-13 -33,26 0,6 -1,1 -2,0 0,1 -1,1 -1,1 -1,1 -1,0 0,2 -1,1 -6,0 -1,-1 0,2 2,0 1,1 3,0 1,1 6,0 1,1 5,0 1,1 1,0 1,1 1,1 0,1 1,1 0,3 1,0 0,-4 1,-1 11,0 1,1 1,0 1,1 10,0 -6,-1 -2,0 -1,-1 -2,0 -1,-1 -9,0 -1,-1 -5,0 -1,-1 0,-2 -1,-1 0,-3 -1,-1 0,-7 1,-1 1,0 0,-7 1,-1 4,0 1,-1 1,-1 1,-1 4,0 1,-1 3,0 1,1 3,0 1,1 0,3 1,-1 0,-1 1,-1 1,-1 1,0 1,-1 5,0 1,1 5,0 1,1 4,0 0,-5 1,-1 1,-1 1,0 1,-1 1,0 1,-1 1,0 1,-1 1,0 1,-1 2,0 0,-1 1,-1 1,0 1,-1 1,0 1,-1 1,0 1,-1 1,0 1,-1 1,0 1,-1 1,0 1,-1 -40,0 -34,26 33,-26Z"/>
<path onmouseover="hoverPath(evt)" onmouseout="recoverPath(evt)" fill="rgb(244,243,236)" d="M  155,58l -2,0 0,3 1,1 0,1 1,1 0,1 1,1 0,1 1,1 0,1 1,1 0,3 1,1 1,0 1,1 1,0 1,1 1,0 1,1 1,1 1,0 1,1 1,1 1,0 1,1 1,0 1,1 1,1 1,0 1,1 1,1 1,0 1,1 1,0 1,1 1,0 1,1 1,0 1,1 1,0 1,1 1,0 1,1 1,0 1,1 1,0 1,1 2,0 1,1 3,0 1,1 8,0 1,-1 2,0 1,-1 4,0 1,-1 3,0 1,-1 3,0 1,-1 3,0 1,-1 2,0 1,-1 2,0 1,-1 1,0 1,-1 1,-1 0,-5 1,-1 0,-4 1,-1 0,-3 -5,0 -1,-1 -2,0 -1,-1 -5,0 -1,-1 -4,0 -1,-1 -3,0 -1,-1 -4,0 -1,-1 -3,0 -1,-1 -4,0 -1,-1 -1,-1 0,-2 1,-1 0,-5 -1,-1 0,-3 -1,-1 0,-4 -1,-1 0,-1 -1,-1 0,-1 -1,-1 0,-2 -1,-1 0,-3 -1,0 -1,-1 -1,-1 0,-4 -1,-1 0,-2 -1,-1 0,-2 -1,-1 0,-2 -1,-1 0,-2 -1,-1 0,-3 1,-1 0,-1 1,-1 -2,0 -1,-1 0,-4 1,-1 1,-1 1,0 1,-1 1,0 0,-1 -10,0 0,2 1,1 0,2 1,1 0,2 1,1 0,2 1,1 0,2 1,1 0,2 1,1 0,2 1,1 0,2 1,1 0,3 1,1 0,1 1,0 -37,29 38,-25 0,1 1,1 0,3 1,1 0,3 1,1 0,4 1,1 0,1 1,1 0,2 1,1 0,2 1,1 0,5 -1,1 -2,0 -1,-1 -4,0 -1,-1 -4,0 -1,-1 -4,0 -1,-1 -3,0 -1,-1 -4,0 -1,-1 -4,0 -1,-1 -1,-1 0,-5 -1,-1 0,-3 -1,-1 0,-2 -1,-1 0,-2 -1,-1 0,-1 -1,0 -1,1 -7,0 -1,-1 -1,0 -1,-1 -2,0 -1,-1 -3,0 -1,-1 -2,0 -1,-1 -1,0 -1,1 -1,0 0,6 -1,1 0,1 -1,1 0,2 3,0 1,1 1,1 0,1 1,1 1,0 1,1 1,0 1,1 1,0 1,1 1,1 1,1 6,0 1,1 0,2 37,-24 -38,25Z"/>
<path onmouseover="hoverPath(evt)" onmouseout="recoverPath(evt)" fill="rgb(175,201,237)" d="M  166,250l 0,5 52,0 0,-2 1,-1 0,-1 1,-1 0,-1 1,-1 0,-1 1,-1 0,-1 1,-1 0,-1 1,-1 0,-1 1,-1 0,-1 1,-1 0,-2 1,-1 0,-2 1,-1 0,-1 1,-1 -2,0 0,1 -1,1 -3,0 0,1 -1,1 0,2 -1,1 0,1 -1,1 1,1 0,3 -1,1 -2,0 1,1 0,2 -1,1 -2,0 -1,1 -1,1 0,2 -1,1 -2,0 -1,-1 -11,0 -1,-1 0,-2 1,-1 0,-1 -1,-1 0,-4 1,-1 0,-3 1,-1 0,-3 1,-1 0,-2 1,-1 0,-3 1,-1 0,-1 -1,-1 -1,-1 -4,0 -1,1 -6,0 0,3 -1,1 -2,0 -1,-1 0,-3 -5,0 0,2 -1,1 0,2 -1,1 0,2 -1,1 0,1 -1,1 -3,0 -1,-1 -1,-1 0,-1 -1,-1 0,-1 -1,-1 -1,-1 0,-1 -1,-1 -1,-1 -1,-1 -2,0 0,2 1,1 0,2 -1,1 0,17 1,0 1,1Z"/>
<path onmouseover="hoverPath(evt)" onmouseout="recoverPath(evt)" fill="rgb(240,240,235)" d="M  198,133l 0,1 1,1 0,1 1,1 0,1 1,1 2,0 1,-1 2,0 1,-1 2,0 1,-1 2,0 1,-1 1,0 0,-2 1,-1 2,0 1,1 2,0 1,-1 2,0 1,-1 1,0 0,-2 1,-1 2,0 1,1 2,0 1,-1 2,0 1,-1 1,0 0,-2 1,-1 1,0 1,-1 3,0 1,1 2,0 1,1 1,1 0,1 1,1 0,1 1,1 0,2 1,1 1,0 1,1 0,1 1,1 0,1 1,1 0,1 1,0 0,-47 -3,0 -1,-1 -9,0 -1,1 -4,0 -1,1 -2,0 -1,1 -2,0 -1,1 -3,0 -1,1 -2,0 -1,1 -2,0 -1,1 -2,0 -1,1 -2,0 -1,1 -1,0 -1,1 -3,0 -1,1 -6,0 -1,-1 -3,0 -1,-1 -2,0 -1,-1 -1,0 -1,-1 -2,0 -1,-1 -1,0 -1,-1 -1,0 -1,-1 -1,0 -1,-1 -1,0 -1,-1 -1,0 -1,-1 -1,0 -1,-1 -1,0 -1,-1 -1,0 -1,-1 -1,0 -1,-1 -1,-1 -1,0 -1,-1 -1,0 -1,-1 -1,-1 -1,0 -1,-1 -1,-1 -1,0 -1,-1 -2,0 -1,-1 -1,-1 -11,0 -1,-1 -4,0 -1,-1 0,-1 -1,-1 -1,-1 0,2 1,1 0,8 -1,1 -1,1 1,1 1,1 0,-2 1,-1 3,0 1,-1 5,0 1,1 1,1 1,0 1,1 0,2 1,1 1,1 0,1 1,1 0,1 1,1 1,1 0,1 1,1 1,1 1,1 0,1 1,1 1,1 0,1 1,1 1,1 0,3 1,-1 1,-1 1,-1 1,0 1,-1 4,0 1,1 0,1 1,1 1,1 1,0 1,-1 4,0 1,1 1,1 1,1 2,0 1,1 0,1 1,1 0,1 1,1 0,2 1,1 0,1 1,1 0,1 1,1 0,1 1,1 0,1 1,0 1,1 0,2 1,1 0,1 1,1 -35,-22 -1,0 0,1 1,-1 35,22 -44,-43 1,0 1,-1 0,0 -2,1 44,43 -42,-45 0,-1 -1,-1 0,0 1,2 42,45 -44,-47 -1,0 -1,1 0,0 2,-1 44,47 -17,-27 -1,0 -1,-1 -1,0 -1,-1 0,-2 1,-1 2,0 1,1 1,0 1,1 0,2 -1,1 -1,0 17,27 -22,-32 -1,1 -2,0 -1,-1 0,-2 1,-1 2,0 1,1 0,2 22,32 -35,-37 -1,-1 0,-2 1,-1 2,0 1,1 0,2 -1,1 -2,0 35,37Z"/>
<path onmouseover="hoverPath(evt)" onmouseout="recoverPath(evt)" fill="rgb(170,198,238)" d="M  0,207l 0,43 3,0 1,-1 3,0 1,-1 2,0 1,-1 2,0 1,-1 2,0 1,-1 2,0 1,-1 2,0 1,-1 2,0 1,1 4,0 1,1 0,2 1,1 0,1 1,-1 1,0 1,-1 1,-1 7,0 1,1 6,0 1,-1 -1,-1 0,-1 -6,0 -1,-1 0,-2 1,-1 5,0 -1,-1 0,-2 1,-1 1,-1 3,0 1,-1 2,0 0,-8 -1,-1 0,-1 -1,0 -1,-1 -23,0 -1,1 -3,0 -1,-1 -1,-1 -1,0 -1,-1 -1,-1 -1,-1 -1,-1 -1,0 -1,-1 -1,-1 0,-1 -1,-1 0,-1 -1,0 -1,-1 -1,-1 -1,-1 -1,-1 -1,-1 -1,0 -1,-1 -2,0 -1,-1 -3,0 -1,1Z"/>
<path onmouseover="hoverPath(evt)" onmouseout="recoverPath(evt)" fill="rgb(180,204,237)" d="M  11,51l 0,-1 1,-1 1,0 0,-1 1,-1 0,-1 1,-1 2,-2 21,0 1,-1 9,0 1,-1 17,0 -2,-1 -11,0 -1,-1 -5,0 -1,1 -14,0 -1,1 -11,0 -1,-1 -5,0 -1,-1 -2,0 -1,-1 -1,-1 0,-5 -1,-1 0,-16 -1,-1 0,-4 -1,-1 0,-4 -1,-1 0,-4 -5,0 0,47 1,0 1,-1 0,-2 1,-1 0,-1 1,-1 5,0 1,1 1,1 0,8 -1,0 0,2 -1,1 0,3 1,-2 0,-4Z"/>
<path onmouseover="hoverPath(evt)" onmouseout="recoverPath(evt)" fill="rgb(242,241,234)" d="M  23,159l -1,1 -1,0 -1,1 -1,0 0,1 -1,1 -5,0 -1,1 -8,0 -1,1 -3,0 0,1 7,0 1,-1 4,0 1,-1 7,0 1,-1 8,0 1,-1 8,0 0,-2 1,-1 8,0 1,-1 8,0 1,-1 7,0 1,1 6,0 0,-2 1,-1 7,0 0,-6 -1,-1 0,-6 -1,-1 0,-5 -1,-1 0,-6 -1,-1 0,-7 -1,-1 0,-8 -1,-1 0,-8 -1,-1 0,-9 -3,0 -1,1 -6,0 -1,1 -7,0 0,2 1,0 1,1 0,2 -1,1 -6,0 -1,1 -9,0 -1,-1 0,-3 -14,0 -1,1 -4,0 -1,-1 -8,0 -1,-1 -4,0 -1,-1 -1,-1 1,2 0,4 -1,1 -3,0 0,18 2,0 1,1 0,1 1,1 1,0 1,1 0,4 -1,1 0,2 1,1 0,6 1,1 0,6 1,1 0,3 1,1 3,0 1,-1 2,0 1,-1 2,0 1,-1 2,0 1,-1 2,0 1,-1 1,0 1,-1 2,0 1,-1 1,0 1,-1 1,0 1,-1 1,0 1,-1 1,0 1,-1 1,0 1,-1 1,0 1,-1 1,0 1,-1 1,0 1,-1 1,0 1,-1 1,0 1,-1 1,0 1,-1 1,0 1,-1 1,0 1,-1 1,0 1,-1 2,0 1,-1 1,0 1,-1 1,0 1,-1 1,0 1,-1 2,0 1,1 1,1 0,4 -1,1 0,1 -1,1 -1,0 -1,1 -1,0 -1,1 -1,0 -1,1 -1,0 -1,1 -1,0 -2,2 -1,0 -1,1 -1,0 -1,1 -1,0 -1,1 -1,0 -1,1 -1,0 -1,1 -1,0 -1,1 -1,0 -1,1 -1,0 -1,1 -1,0 -1,1 -1,0 -1,1 -1,0 -1,1 -1,0 -1,1 -1,0 -1,1 -1,0 -1,1 -1,0 -2,2 -1,0 -1,1 -1,0 -1,1Z"/>
<path onmouseover="hoverPath(evt)" onmouseout="recoverPath(evt)" fill="rgb(170,198,238)" d="M  106,167l -1,0 0,3 -1,1 0,2 1,0 1,1 8,0 1,1 2,0 0,-7 -4,0 -1,-1Z"/>
<path onmouseover="hoverPath(evt)" onmouseout="recoverPath(evt)" fill="rgb(173,199,237)" d="M  144,151l 0,2 1,1 0,3 -1,1 4,0 1,1 3,0 1,1 0,2 -1,1 -2,0 -1,1 0,1 1,1 0,4 -1,1 -1,1 -3,0 -1,-1 -1,-1 -1,1 -7,0 -1,-1 -6,0 -1,-1 -1,-1 0,-1 -5,0 0,8 5,0 1,1 10,0 1,1 9,0 1,1 1,1 0,1 1,1 0,2 1,1 0,1 1,1 0,2 1,1 0,1 1,1 0,2 1,1 0,1 1,1 0,2 1,1 0,1 1,1 0,2 1,1 0,1 1,0 0,-1 -1,-1 0,-1 -1,-2 0,-2 -1,-1 0,1 -1,-3 -1,-2 0,-1 -1,-2 -1,-2 0,-1 -1,-2 -1,-2 0,-1 -1,-2 0,-3 1,-1 1,0 1,-1 9,0 0,-9 1,-1 2,0 1,1 0,8 10,0 0,-5 -1,-1 -5,0 -1,-1 -1,0 -1,-1 0,-2 1,-1 1,0 0,-1 1,-1 2,0 1,1 0,2 3,0 0,-8 -6,0 -1,-1 0,-1 -1,-1 0,-11 -2,0 -1,1 -5,0 0,5 1,1 0,2 -1,1 -7,0 -1,-1 0,-2 1,-1 3,0 0,-4 -6,0 -1,1 -7,0 0,2 1,1 0,2 1,1Z"/>
<path onmouseover="hoverPath(evt)" onmouseout="recoverPath(evt)" fill="rgb(175,201,237)" d="M  151,119l 0,0 -1,1 -1,0 -1,1 -3,0 -1,-1 0,-3 -1,-1 -1,-1 0,-1 -1,-1 0,-1 -1,-1 -2,0 -2,-2 0,-2 -1,0 -1,1 -1,0 -1,1 -1,0 -1,1 -3,0 0,4 1,1 1,0 1,1 0,1 1,1 0,2 1,1 0,1 1,1 0,1 1,1 2,0 1,1 1,0 1,-1 3,0 1,-1 5,0 1,1 1,1 0,1 1,1 1,1 0,1 1,1 0,1 1,1 2,0 1,1 1,0 1,-1 1,0 1,-1 1,-1 1,-1 1,0 1,-1 1,-1 3,0 1,-1 3,0 1,1 5,0 1,-1 3,0 1,-1 4,0 1,1 3,0 -1,-1 0,-1 -1,-1 0,-1 -1,-1 0,-1 -1,-1 0,-2 -1,-1 0,-1 -1,-1 0,-1 -2,0 -1,-1 -1,-1 -1,-1 -2,0 -1,1 -3,0 -1,-1 -1,-1 -1,-1 0,-1 -2,0 -1,1 -1,0 -2,2 -1,1 -1,1 -1,1 -3,0 -1,1 -2,0 -1,-1 -1,1 -1,0 -1,1 -1,0 -1,1Z"/>
<path onmouseover="hoverPath(evt)" onmouseout="recoverPath(evt)" fill="rgb(243,243,237)" d="M  169,222l -2,0 1,1 0,0 1,1 1,1 1,1 0,1 1,1 1,1 0,1 1,1 0,1 1,1 1,0 0,-1 1,-1 0,-2 1,-1 0,-2 1,-1 0,-2 1,-1 7,0 1,1 0,3 1,-4Z"/>
<path onmouseover="hoverPath(evt)" onmouseout="recoverPath(evt)" fill="rgb(176,201,237)" d="M  173,2l 0,0 -1,1 -1,0 -1,1 -1,0 -1,1 -1,0 -1,1 -1,1 -1,0 0,2 -1,1 -1,0 0,2 -1,1 -2,0 -1,-1 0,-1 -2,0 -1,1 0,0 -1,1 -1,0 -1,1 -2,0 -1,1 -1,0 -2,2 -1,0 1,1 0,2 1,1 0,2 -1,1 0,1 -1,1 -1,0 0,2 -1,1 0,1 -1,1 0,1 2,0 1,1 3,0 1,1 2,0 1,1 1,0 1,1 5,0 1,-1 1,0 0,-3 1,-1 12,0 1,-1 11,0 1,-1 2,0 -1,-1 0,-3 -1,-1 0,-2 -1,-1 0,-2 -1,-1 0,-2 -1,-1 0,-2 -1,-1 0,-2 -1,-1 0,-2 -1,-1 0,-2 -1,-1 0,-3 -7,0Z"/>
<path onmouseover="hoverPath(evt)" onmouseout="recoverPath(evt)" fill="rgb(171,198,237)" d="M  190,95l 0,0 1,1 2,0 1,1 1,0 1,1 2,0 1,1 3,0 1,1 4,0 1,-1 3,0 1,-1 1,0 1,-1 2,0 1,-1 2,0 1,-1 2,0 1,-1 2,0 1,-1 3,0 1,-1 2,0 1,-1 2,0 1,-1 4,0 1,-1 11,0 1,1 2,0 0,-2 -2,0 -1,-1 -9,0 -1,-1 -1,-1 0,-3 1,-1 0,-4 1,-1 0,-5 1,-1 11,0 0,-8 -9,0 0,6 -1,1 -2,0 0,1 -1,1 0,4 -1,1 0,4 -1,1 0,5 -1,1 -1,1 -1,1 -1,0 -1,1 -2,0 -1,1 -2,0 -1,1 -3,0 -1,1 -3,0 -1,1 -3,0 -1,1 -4,0 -1,1 -2,0 -1,1 -10,0 -1,-1 -3,0 -1,-1 -2,0 -1,-1 -1,1 -1,0 -1,-1 0,0 1,-1 -1,0 -1,-1 -1,0 -1,-1 -1,0 -1,-1 -1,0 -1,-1 -1,0 -1,-1 -1,0 -1,-1 -1,0 -1,-1 -1,-1 -1,0 -1,-1 -1,-1 -1,0 -1,-1 -1,0 -1,-1 -1,-1 -1,0 -1,-1 -1,-1 -1,0 -1,-1 -1,0 -1,-1 -1,0 -1,-1 -1,-1 0,-3 -1,-1 0,-1 -1,-1 0,-1 -1,-1 0,-1 -1,-1 0,-1 -1,-1 0,-5 1,-1 -4,0 -1,-1 -1,-1 -1,-1 -1,0 -1,-1 -1,0 -1,-1 -1,0 -1,-1 -1,-1 0,-1 -1,-1 -3,0 -1,1 0,0 -1,1 -1,0 0,2 1,1 0,1 4,0 1,1 2,0 1,1 1,0 1,1 1,1 0,1 1,1 0,1 1,1 1,0 1,1 0,2 1,1 0,1 1,1 0,1 1,1 0,2 1,1 0,3 -1,1 -2,0 -1,-1 -5,0 -1,1 4,0 1,1 11,0 1,1 1,1 2,0 1,1 1,0 1,1 1,1 1,0 1,1 1,1 1,0 1,1 1,0 1,1 1,1 1,0 1,1 1,0 1,1 1,0 1,1 1,0 1,1 1,0 1,1 1,0 1,1 1,0 1,1 0,-1 -2,-1 -2,-1 -2,-1 -2,-1 -2,-1 -2,-1 -3,-2 17,10Z"/>
<path onmouseover="hoverPath(evt)" onmouseout="recoverPath(evt)" fill="rgb(171,198,237)" d="M  192,11l -1,0 0,1 -1,1 0,1 1,1 0,2 1,1 0,2 1,1 0,2 1,1 0,2 1,1 0,4 1,1 1,0 1,1 0,3 1,1 0,2 1,1 0,1 1,1 0,1 3,0 1,-1 3,0 1,-1 3,0 1,-1 3,0 1,-1 3,0 1,1 2,0 0,-2 1,-1 3,0 0,-2 -1,-1 0,-2 -1,-1 0,-1 -5,0 -1,-1 0,-2 1,-1 2,0 1,-1 0,-2 -1,-1 0,-2 -1,-1 0,-2 -1,-1 0,-2 -1,-1 0,-3 -1,-1 0,-2 -1,-1 0,-1 -2,0 -1,1 -4,0 -1,1 -3,0 -1,1 -4,0 -1,1 -3,0 -1,1 -3,0 -1,1Z"/>
<path onmouseover="hoverPath(evt)" onmouseout="recoverPath(evt)" fill="rgb(180,204,237)" d="M  202,47l 0,1 1,1 0,3 1,1 0,7 -1,1 1,1 4,0 1,1 3,0 1,1 4,0 1,1 3,0 1,1 4,0 1,1 5,0 1,1 2,0 1,1 5,0 0,-1 1,-1 2,0 0,-6 1,-1 10,0 0,-60 -4,0 0,2 1,1 0,1 1,1 0,1 1,1 0,2 -1,1 -2,0 -1,1 -3,0 -1,1 -2,0 -1,1 -2,0 -1,1 -3,0 -1,1 -2,0 -1,1 -4,0 -1,-1 0,-3 -1,-1 0,-2 -1,-1 0,-3 -1,-1 0,-4 -31,0 0,2 -1,1 -1,0 -1,1 -1,0 -1,1 0,2 3,0 1,1 2,0 1,-1 3,0 1,-1 4,0 1,-1 3,0 1,-1 4,0 1,-1 4,0 1,1 0,1 1,1 0,2 1,1 0,3 1,1 0,2 1,1 0,2 1,1 0,2 1,1 0,4 -1,1 -1,1 3,0 1,1 0,1 1,1 0,2 1,1 0,4 -1,1 -3,0 0,2 -1,1 -4,0 -1,-1 -1,0 -1,1 -3,0 -1,1 -3,0 -1,1 -3,0 -1,1 -3,0Z"/>
<path onmouseover="hoverPath(evt)" onmouseout="recoverPath(evt)" fill="rgb(172,199,237)" d="M  228,223l 0,3 -1,1 -2,0 -1,-1 0,-3 -16,0 0,1 -1,1 0,2 -1,1 -2,0 0,3 -1,1 0,2 -1,1 0,3 -1,1 0,3 -1,1 0,2 1,1 0,3 -1,1 11,0 1,1 0,-2 1,-1 1,-1 1,-1 2,0 -1,-1 0,-2 1,-1 2,0 0,-1 -1,-1 0,-2 1,-1 0,-1 1,-1 0,-2 1,-1 0,-1 1,-1 3,0 0,-1 1,-1 19,0 1,-1 3,0 0,-1 -1,-1 0,-2 -1,-1 0,-1 -5,0 -1,1 -5,0 -1,-1 -1,1 -5,0 -1,1Z"/>
<path onmouseover="hoverPath(evt)" onmouseout="recoverPath(evt)" fill="rgb(236,238,237)" d="M  231,231l 0,0 -1,1 0,1 -1,1 0,2 -1,1 0,2 -1,1 0,1 -1,1 0,1 -1,1 0,1 -1,1 0,1 -1,1 0,1 -1,1 0,1 -1,1 0,1 -1,1 0,1 35,0 0,-25 -2,0 -1,-1 -1,-1 0,-2 -1,3 -3,0 -1,1 -14,0 -1,1Z"/>
<path onmouseover="hoverPath(evt)" onmouseout="recoverPath(evt)" fill="rgb(240,240,236)" d="M  232,141l -3,0 -1,1 -2,0 -1,1 -2,0 -1,1 -2,0 -1,1 -1,0 0,2 -1,1 1,1 0,1 1,1 0,1 2,0 0,-3 1,-1 2,0 1,-1 2,0 1,-1 6,0 1,1 0,1 1,1 0,1 1,1 1,1 0,1 1,1 0,1 1,1 0,1 1,1 0,2 1,1 0,1 1,1 0,1 1,1 0,1 1,1 1,1 0,1 1,1 0,1 1,1 0,1 1,1 1,1 0,1 1,1 0,2 1,1 0,3 1,-1 2,0 0,-41 -2,0 -1,-1 0,-1 -1,-1 0,-1 -1,-1 0,-1 -1,0 -1,-1 -1,1 -1,0 -1,1 -3,0 -2,2 -2,0 -1,1 -3,0 -2,2Z"/>
</svg>