<svg width="256" height="256" xmlns="http://www.w3.org/2000/svg"><script> 
var tempColor;
function hoverPath(evt){
obj = evt.target;
tempColor = obj.getAttribute("fill");
obj.setAttribute("fill","red");
//alert(tempColor);
//obj.setAttribute("stroke","red");}
function recoverPath(evt){
obj = evt.target;
obj.setAttribute("fill", tempColor);
//obj.setAttribute("stroke", tempColor);
}</script><path onmouseover="hoverPath(evt)" onmouseout="recoverPath(evt)" fill="rgb(246,236,139)" d="M  0,148l 0,7 8,0 1,1 8,0 1,1 9,0 1,1 1,1 0,-1 1,-1 5,0 1,1 1,1 9,0 1,1 9,0 1,1 9,0 1,1 8,0 1,1 7,0 1,1 8,0 1,1 8,0 1,1 6,0 1,1 9,0 1,1 6,0 1,1 10,0 1,1 7,0 1,1 11,0 1,1 7,0 1,1 6,0 1,1 7,0 1,1 7,0 1,1 5,0 1,1 7,0 1,1 4,0 1,1 4,0 1,1 1,1 0,44 1,1 0,5 -1,1 -4,0 3,1 0,22 12,0 0,-2 -4,0 -1,-1 0,-3 1,-1 1,0 0,-1 -1,-1 0,-3 1,-1 0,-60 1,-1 2,0 1,1 4,0 1,1 4,0 1,1 4,0 1,1 3,0 1,1 4,0 1,1 2,0 1,-1 3,0 0,-7 -3,0 -1,-1 -3,0 -1,-1 -4,0 -1,-1 -3,0 -1,-1 -4,0 -1,-1 -4,0 -1,-1 -4,0 -1,-1 -1,0 -1,-1 0,-15 1,-1 0,-50 1,-1 0,-3 -1,-1 0,-10 1,-1 0,-3 -1,0 -1,-1 0,-2 1,-1 1,0 0,-29 1,-1 31,0 0,-10 -28,0 -1,1 -2,0 -1,-1 0,-42 -8,0 0,41 -1,1 -1,1 -43,0 -1,1 -38,0 -1,1 -29,0 -1,1 -33,0 0,2 -1,1 -8,0 -1,-1 -4,0 -1,-1 -3,0 -1,1 -13,0 -1,1 -12,0 -1,1 -11,0 -1,1 -9,0 0,10 4,0 1,-1 12,0 1,-1 16,0 0,-1 1,-1 6,0 1,1 0,25 1,-25 0,0 1,-1 5,0 1,-1 1,0 1,-1 4,0 1,1 9,0 1,1 1,-1 19,0 1,-1 30,0 1,1 0,-2 1,-1 7,0 1,1 29,0 1,-1 55,0 1,1 0,55 1,1 0,3 -1,1 0,24 -1,1 0,30 -1,1 -5,0 -1,-1 -5,0 -1,-1 -4,0 -1,-1 -8,0 -1,-1 -6,0 -1,-1 -8,0 -1,-1 -7,0 -1,-1 -8,0 -1,-1 -8,0 -1,-1 -9,0 -1,-1 -4,0 -1,1 -6,0 -1,-1 -1,0 -1,-1 -4,0 -1,-1 -5,0 -1,-1 -10,0 -1,-1 -7,0 -1,-1 -8,0 -1,-1 -8,0 -1,-1 -7,0 -1,-1 -8,0 -1,-1 -8,0 -1,-1 -6,0 -1,-1 -1,1 -1,0 -1,1 -2,0 -1,-1 -4,0 -1,-1 -1,0 -1,-1 -8,0 -1,-1 -8,0 -1,-1 -8,0 0,2 120,10 0,0 -120,-10Z"/>
<path onmouseover="hoverPath(evt)" onmouseout="recoverPath(evt)" fill="rgb(243,242,234)" d="M  1,198l -1,0 0,57 16,0 0,-3 1,-1 0,-5 1,-1 0,-7 1,-1 0,-6 1,-1 0,-6 1,-1 0,-6 1,-1 0,-6 1,-1 0,-6 1,-1 0,-6 1,-1 0,-7 1,-1 0,-6 1,-1 0,-7 1,-1 0,-6 -1,-1 0,-5 -1,-1 -9,0 -1,-1 -8,0 -1,-1 -7,0 0,28 1,0 1,-1 5,0 1,1 7,0 1,1 2,0 1,1 0,3 -1,1 -1,1 -1,1 -1,1 -1,1 -1,1 -1,1 -1,1 -1,1 -6,0 -1,-1Z"/>
<path onmouseover="hoverPath(evt)" onmouseout="recoverPath(evt)" fill="rgb(236,238,234)" d="M  3,186l 0,0 -1,1 -2,0 0,9 4,0 1,1 4,0 1,-1 1,-1 1,-1 1,-1 1,-1 2,-2 1,-1 0,-1 -2,0 -1,-1 -7,0 -1,-1Z"/>
<path onmouseover="hoverPath(evt)" onmouseout="recoverPath(evt)" fill="rgb(236,238,234)" d="M  4,78l -1,1 0,5 1,1 0,4 6,0 1,-1 6,0 0,-9 -1,-1 0,-1 -3,0 -1,1Z"/>
<path onmouseover="hoverPath(evt)" onmouseout="recoverPath(evt)" fill="rgb(254,254,254)" d="M  10,124l 2,0 1,1 16,0 1,1 2,0 1,1 0,20 -1,1 2,0 1,1 1,-1 1,0 0,-15 1,-1 0,-24 1,-1 0,-23 1,-1 0,-24 -4,0 0,16 -1,1 0,25 -1,1 0,19 -1,1 0,1 -1,1 -18,0 -1,-1 -2,0 -1,1Z"/>
<path onmouseover="hoverPath(evt)" onmouseout="recoverPath(evt)" fill="rgb(243,242,233)" d="M  14,90l -2,0 -1,1 -8,0 -1,-1 0,-4 -1,-1 0,-7 1,-1 1,-1 8,0 1,-1 5,0 1,1 0,1 1,1 0,11 -1,1 -4,0 -14,-13 0,67 9,0 1,1 8,0 1,1 8,0 1,1 1,0 1,1 0,-1 1,-1 0,-18 -2,0 -1,-1 -16,0 -1,-1 -2,0 -1,-1 0,-3 1,-1 5,0 1,1 16,0 0,-1 1,-1 0,-19 1,-1 0,-25 1,-1 0,-13 -15,0 -1,1 -12,0 -1,1 -5,0 0,14 14,13Z"/>
<path onmouseover="hoverPath(evt)" onmouseout="recoverPath(evt)" fill="rgb(244,243,236)" d="M  44,60l 0,24 -1,1 -2,0 0,23 -1,1 0,24 -1,1 0,13 1,0 1,1 6,0 1,1 8,0 1,1 8,0 1,1 7,0 1,1 8,0 1,1 8,0 1,1 7,0 1,1 10,0 1,1 5,0 1,1 1,0 0,-44 1,-1 2,0 0,-32 -1,-1 0,-2 -2,0 -1,-1 0,-19 -28,0 -1,1 -19,0 -1,1 -2,0 -1,-1 -9,0 -1,-1 -2,0 -1,1 -1,0 -1,1 -5,0 -1,1Z"/>
<path onmouseover="hoverPath(evt)" onmouseout="recoverPath(evt)" fill="rgb(244,243,236)" d="M  118,255l 92,0 0,-21 -2,0 -1,-1 0,-2 1,-1 4,0 0,-3 -1,-1 0,-44 -1,-1 -4,0 -1,-1 -4,0 -1,-1 -7,0 -1,-1 -5,0 -1,-1 -7,0 -1,-1 -7,0 -1,-1 -6,0 -1,-1 -7,0 -1,-1 -11,0 -1,-1 -7,0 -1,-1 -10,0 -1,-1 -6,0 -1,-1 -9,0 -1,-1 -6,0 -1,-1 -8,0 -1,-1 -8,0 -1,-1 -7,0 -1,-1 -8,0 -1,-1 -9,0 -1,-1 -9,0 -1,-1 -8,0 0,8 -1,1 0,6 -1,1 0,6 -1,1 0,7 -1,1 0,5 -1,1 0,7 -1,1 0,6 -1,1 0,7 -1,1 0,7 -1,1 0,5 -1,1 0,7 -1,1 0,6 -1,1 0,5Z"/>
<path onmouseover="hoverPath(evt)" onmouseout="recoverPath(evt)" fill="rgb(254,254,254)" d="M  121,56l 0,19 1,1 0,2 1,1 0,34 -1,1 0,44 1,0 1,1 2,0 0,-26 -1,-1 0,-19 -1,-1 0,-32 1,-1 0,-3 1,-1 0,-20 -4,0 -1,1Z"/>
<path onmouseover="hoverPath(evt)" onmouseout="recoverPath(evt)" fill="rgb(244,243,235)" d="M  156,56l -28,0 0,20 -1,1 0,3 -1,1 0,30 1,1 0,19 1,1 0,27 1,-1 6,0 1,1 9,0 1,1 8,0 1,1 8,0 1,1 7,0 1,1 8,0 1,1 6,0 1,1 8,0 1,1 4,0 1,1 5,0 1,1 3,0 0,-30 1,-1 0,-24 1,-1 0,-1 -1,-1 0,-55 -53,0 -1,1Z"/>
<path onmouseover="hoverPath(evt)" onmouseout="recoverPath(evt)" fill="rgb(244,243,235)" d="M  224,184l 0,0 -1,-1 0,60 -1,1 0,1 1,1 0,3 -1,1 -1,0 0,1 4,0 1,1 0,3 29,0 0,-67 -2,0 -1,1 -4,0 -1,-1 -4,0 -1,-1 -3,0 -1,-1 -4,0 -1,-1 -4,0 -1,-1Z"/>
<path onmouseover="hoverPath(evt)" onmouseout="recoverPath(evt)" fill="rgb(243,242,234)" d="M  225,88l 0,2 -1,1 0,8 1,1 0,5 -1,1 0,50 -1,1 0,13 1,0 1,1 4,0 1,1 4,0 1,1 4,0 1,1 3,0 1,1 4,0 1,1 3,0 1,1 2,0 0,-24 -5,0 -1,1 -5,0 -1,-1 -2,0 -1,-1 0,-1 -1,-1 0,-13 -1,-1 0,-2 1,-1 0,-31 1,-1 0,-13 -1,-1 0,-1 -14,0Z"/>
<path onmouseover="hoverPath(evt)" onmouseout="recoverPath(evt)" fill="rgb(236,238,234)" d="M  239,54l 0,21 16,0 0,-21Z"/>
<path onmouseover="hoverPath(evt)" onmouseout="recoverPath(evt)" fill="rgb(244,243,236)" d="M  0,1l 0,48 8,0 1,-1 11,0 1,-1 12,0 1,-1 13,0 1,-1 4,0 0,-3 -1,-1 0,-4 -1,-1 0,-3 -1,-1 0,-4 -1,-1 0,-4 -1,-1 0,-4 -1,-1 0,-4 -1,-1 0,-3 -1,-1 0,-4 -1,-1 0,-3 -42,0 -1,1Z"/>
<path onmouseover="hoverPath(evt)" onmouseout="recoverPath(evt)" fill="rgb(254,254,254)" d="M  32,159l -1,0 0,6 -1,1 0,7 -1,1 0,7 -1,1 0,6 -1,1 0,7 -1,1 0,6 -1,1 0,6 -1,1 0,6 -1,1 0,6 -1,1 0,6 -1,1 0,6 -1,1 0,7 -1,1 0,5 -1,1 0,2 5,0 0,-6 1,-1 0,-6 1,-1 0,-7 1,-1 0,-5 1,-1 0,-7 1,-1 0,-7 1,-1 0,-6 1,-1 0,-7 1,-1 0,-5 1,-1 0,-7 1,-1 0,-6 1,-1 0,-6 1,-1 0,-8 -1,-1Z"/>
<path onmouseover="hoverPath(evt)" onmouseout="recoverPath(evt)" fill="rgb(254,254,254)" d="M  46,1l 0,-1 -1,0 0,2 1,1 0,4 1,1 0,3 1,1 0,4 1,1 0,4 1,1 0,4 1,1 0,4 1,1 0,3 1,1 0,4 1,1 0,5 2,0 0,-2 -1,-1 0,-3 -1,-1 0,-4 -1,-1 0,-3 -1,-1 0,-4 -1,-1 0,-3 -1,-1 0,-4 -1,-1 0,-4 -1,-1 0,-4 -1,-1 0,-3 -1,-1Z"/>
<path onmouseover="hoverPath(evt)" onmouseout="recoverPath(evt)" fill="rgb(244,243,236)" d="M  50,0l -2,0 0,1 1,1 0,3 1,1 0,4 1,1 0,4 1,1 0,4 1,1 0,3 1,1 0,4 1,1 0,3 1,1 0,4 1,1 0,3 1,1 0,3 1,1 6,0 0,-2 1,-1 33,0 1,-1 29,0 1,-1 38,0 1,-1 43,0 1,-1 0,-40Z"/>
<path onmouseover="hoverPath(evt)" onmouseout="recoverPath(evt)" fill="rgb(245,244,237)" d="M  225,1l 0,40 1,-1 29,0 0,-40 -29,0 -1,1Z"/>
<path onmouseover="hoverPath(evt)" onmouseout="recoverPath(evt)" fill="rgb(244,242,234)" d="M  242,87l 0,15 -1,1 0,31 -1,1 1,1 0,13 1,1 0,1 2,0 1,1 3,0 1,-1 6,0 0,-74 -17,0 -1,-1 0,-22 -12,0 0,29 -1,1 16,0 1,1 0,1 1,1Z"/>
</svg>