<svg width="256" height="256" xmlns="http://www.w3.org/2000/svg"><script> 
var tempColor;
function hoverPath(evt){
obj = evt.target;
tempColor = obj.getAttribute("fill");
obj.setAttribute("fill","red");
//alert(tempColor);
//obj.setAttribute("stroke","red");}
function recoverPath(evt){
obj = evt.target;
obj.setAttribute("fill", tempColor);
//obj.setAttribute("stroke", tempColor);
}</script><path onmouseover="hoverPath(evt)" onmouseout="recoverPath(evt)" fill="rgb(244,243,236)" d="M  0,1l 0,28 1,0 1,-1 4,0 1,-1 3,0 1,-1 4,0 1,-1 4,0 1,-1 4,0 1,-1 4,0 1,-1 3,0 1,-1 4,0 1,-1 4,0 1,-1 4,0 1,-1 3,0 1,-1 4,0 1,-1 4,0 1,-1 4,0 1,-1 4,0 1,-1 3,0 1,-1 4,0 1,-1 4,0 1,-1 4,0 1,-1 2,0 0,-2 -1,-1 0,-3 1,-1 0,-2 -94,0 -1,1Z"/>
<path onmouseover="hoverPath(evt)" onmouseout="recoverPath(evt)" fill="rgb(173,199,238)" d="M  1,161l 0,-7 -1,0 0,6 1,1 -1,3 0,71 1,0 1,-1 7,0 1,-1 8,0 1,-1 8,0 1,-1 8,0 1,-1 7,0 1,-1 8,0 1,-1 7,0 1,-1 6,0 0,-4 -2,0 -1,1 -8,0 -1,1 -8,0 -1,1 -7,0 -1,1 -8,0 -1,1 -8,0 -1,1 -7,0 -1,1 -6,0 -1,-1 -1,-1 0,-6 -1,-1 0,-19 -1,-1 0,-19 -1,-1 0,-16 -2,-1 1,-3Z"/>
<path onmouseover="hoverPath(evt)" onmouseout="recoverPath(evt)" fill="rgb(243,243,235)" d="M  0,41l 0,106 9,0 1,-1 24,0 1,-1 26,0 1,-1 2,0 0,-2 1,-1 0,-3 1,-1 0,-2 1,-1 0,-2 1,-1 0,-2 1,-1 0,-3 1,-1 0,-2 1,-1 0,-3 1,-1 0,-2 1,-1 0,-3 1,-1 0,-2 1,-1 0,-2 -1,-1 0,-3 1,-1 2,0 0,-3 1,-1 0,-3 1,-1 0,-2 1,-1 0,-3 1,-1 0,-1 -1,-1 0,-3 1,-1 2,0 0,-3 1,-1 0,-2 1,-1 0,-2 1,-1 0,-2 1,-1 0,-2 1,-1 0,-3 1,-1 0,-2 1,-1 0,-2 1,-1 0,-2 1,-1 0,-2 1,-1 0,-2 1,-1 0,-2 1,-1 0,-2 1,-1 0,-3 1,-1 0,-2 1,-1 0,-3 1,-1 0,-2 1,-1 0,-5 -6,0 -1,1 -4,0 -1,1 -3,0 -1,1 -5,0 -1,1 -3,0 -1,1 -4,0 -1,1 -2,0 -1,1 -4,0 -1,1 -3,0 -1,1 -3,0 -1,1 -4,0 -1,1 -5,0 -1,1 -5,0 -1,1 -4,0 -1,1 -4,0 -1,1 -4,0 -1,1 -4,0 -1,1 -4,0 -1,1 -3,0 -1,1 -2,0 -1,1 -4,0Z"/>
<path onmouseover="hoverPath(evt)" onmouseout="recoverPath(evt)" fill="rgb(253,253,252)" d="M  2,149l -2,0 0,3 5,0 1,-1 21,0 1,-1 27,0 1,-1 6,0 1,1 1,0 1,1 0,15 1,1 0,11 1,1 0,11 1,1 0,15 1,1 0,9 1,1 0,10 1,1 0,7 1,1 0,12 1,1 0,6 3,0 0,-7 -1,-1 0,-11 -1,-1 0,-13 -1,-1 0,-4 -1,-1 0,-8 -1,-1 0,-16 -1,-1 0,-11 -1,-1 0,-10 -1,-1 0,-19 1,-1 0,-3 -1,-1 0,-3 1,-1 0,-3 1,-1 0,-2 1,-1 0,-2 1,-1 2,0 -1,-1 0,-5 1,-1 0,-2 1,-1 0,-3 1,-1 0,-2 1,-1 0,-3 1,-1 0,-3 1,-1 0,-2 1,-1 0,-3 1,-1 0,-2 1,-1 0,-3 1,-1 0,-3 1,-1 0,-2 1,-1 0,-2 1,-1 0,-2 1,-1 0,-2 1,-1 0,-3 1,-1 2,0 0,-1 -1,-1 0,-3 1,-1 0,-2 1,-1 0,-3 1,-1 0,-2 1,-1 0,-2 1,-1 0,-2 1,-1 2,0 -1,-1 0,-3 1,-1 0,-3 1,-1 0,-2 1,-1 0,-3 1,-1 0,-2 1,-1 0,-3 1,-1 0,-3 1,-1 0,-1 -1,-1 0,-4 -1,-1 0,-4 -1,-1 -1,-1 0,-2 -1,-1 0,-3 1,-1 0,-1 -3,0 0,3 -1,1 0,1 1,1 0,3 1,0 1,1 1,1 0,2 -1,1 -1,1 -2,0 -1,1 -4,0 -1,1 -4,0 -1,1 -4,0 -1,1 -4,0 -1,1 -4,0 -1,1 -3,0 -1,1 -2,0 -1,1 -3,0 -1,1 -3,0 -1,1 -3,0 -1,1 -5,0 -1,1 -7,0 -1,1 -4,0 -1,1 -4,0 -1,1 -5,0 -1,1 -4,0 -1,1 -4,0 -1,1 -2,0 -1,1 -3,0 -1,1 -4,0 0,2 3,0 1,-1 2,0 1,-1 3,0 1,-1 4,0 1,-1 4,0 1,-1 4,0 1,-1 4,0 1,-1 4,0 1,-1 5,0 1,-1 5,0 1,-1 4,0 1,-1 3,0 1,-1 3,0 1,-1 4,0 1,-1 2,0 1,-1 4,0 1,-1 3,0 1,-1 5,0 1,-1 3,0 1,-1 4,0 1,-1 8,0 1,1 0,7 -1,1 0,2 -1,1 0,3 -1,1 0,2 -1,1 0,3 -1,1 0,2 -1,1 0,2 -1,1 0,2 -1,1 0,2 -1,1 0,2 -1,1 0,2 -1,1 0,2 -1,1 0,3 -1,1 0,2 -1,1 0,2 -1,1 0,2 -1,1 0,2 -1,1 0,3 -1,1 -2,0 0,1 1,1 0,3 -1,1 0,3 -1,1 0,2 -1,1 0,3 -1,1 0,3 -1,1 -2,0 0,1 1,1 0,4 -1,1 0,2 -1,1 0,3 -1,1 0,2 -1,1 0,3 -1,1 0,2 -1,1 0,3 -1,1 0,2 -1,1 0,2 -1,1 0,2 -1,1 0,3 -1,1 0,2 -1,1 -2,0 -1,1 -26,0 -1,1 -24,0 -1,1Z"/>
<path onmouseover="hoverPath(evt)" onmouseout="recoverPath(evt)" fill="rgb(244,243,236)" d="M  2,237l -2,0 0,18 71,0 0,-5 -1,-1 0,-12 -1,-1 0,-7 -6,0 -1,1 -7,0 -1,1 -8,0 -1,1 -7,0 -1,1 -8,0 -1,1 -8,0 -1,1 -8,0 -1,1 -7,0 -1,1Z"/>
<path onmouseover="hoverPath(evt)" onmouseout="recoverPath(evt)" fill="rgb(244,243,235)" d="M  3,156l 0,4 1,1 0,19 1,1 0,19 1,1 0,19 1,1 0,6 1,1 4,0 1,-1 7,0 1,-1 8,0 1,-1 8,0 1,-1 7,0 1,-1 8,0 1,-1 8,0 1,-1 3,0 0,-3 -1,-1 0,-9 -1,-1 0,-15 -1,-1 0,-11 -1,-1 0,-11 -1,-1 0,-15 -1,0 -1,-1 -4,0 -1,1 -27,0 -1,1 -21,0 -1,1 -3,0Z"/>
<path onmouseover="hoverPath(evt)" onmouseout="recoverPath(evt)" fill="rgb(172,198,238)" d="M  77,222l -1,0 0,3 3,0 1,-1 3,0 1,-1 2,0 1,-1 3,0 1,-1 2,0 1,-1 3,0 1,-1 4,0 1,-1 6,0 1,-1 7,0 1,-1 6,0 1,-1 6,0 1,-1 4,0 1,-1 3,0 1,-1 2,0 1,-1 1,0 1,-1 1,0 1,-1 1,0 1,-1 1,0 1,-1 1,0 1,-1 1,0 1,-1 1,0 1,-1 1,0 1,-1 1,-1 1,0 1,-1 1,0 1,-1 1,-1 1,-1 1,-1 1,0 1,-1 4,-4 1,0 1,-1 1,-1 1,-1 1,-1 1,-1 1,0 1,-1 1,-1 1,-1 1,0 1,-1 1,-1 1,0 1,-1 1,-1 1,0 1,-1 1,0 1,-1 1,0 1,-1 1,0 1,-1 5,0 1,-1 10,0 1,1 1,0 1,1 2,0 1,1 1,1 1,0 1,1 0,1 1,1 1,1 0,7 1,1 0,22 1,1 0,13 1,1 0,13 1,1 0,13 6,0 0,-7 -1,-1 0,-14 -1,-1 0,-15 -1,-1 0,-15 -1,-1 0,-11 -1,-1 0,-14 -1,-1 0,-11 1,-1 1,-1 1,-1 2,0 1,-1 9,0 1,-1 7,0 1,-1 2,0 0,-12 -1,0 -1,1 -1,0 -1,1 -2,0 -1,1 0,1 -1,1 0,7 -170,66 167,-65 -13,0 -1,-1 -1,-1 0,-7 -1,-1 0,-7 -1,-1 0,-10 -1,-1 0,-12 -1,-1 0,-12 -1,-1 0,-17 -1,-1 0,-15 -1,-1 0,-12 -1,-1 0,-12 -1,-1 0,-8 -1,-1 0,-21 -1,-1 0,-11 -6,0 0,13 1,1 0,12 1,1 0,9 1,1 0,11 1,1 0,18 1,1 0,6 1,1 0,13 1,1 0,12 1,1 0,17 1,1 0,20 1,1 0,11 1,1 0,10 1,1 0,6 -1,1 -1,1 -19,0 -1,1 -5,0 -1,1 -2,0 -1,1 -1,0 -1,1 -1,0 -1,1 -1,1 -1,0 -1,1 -1,0 -1,1 -1,1 -1,0 -1,1 -1,1 -1,0 -1,1 -1,1 -1,0 -1,1 -1,1 -1,1 -1,0 -1,1 -1,1 -1,1 -1,1 -1,1 -1,1 -1,0 -1,1 -1,1 -1,1 -1,1 -1,1 -1,0 -1,1 -1,1 -1,0 -1,1 -1,1 -2,0 -1,1 -1,0 -1,1 -1,0 -1,1 -1,0 -1,1 -1,0 -1,1 -1,0 -1,1 -2,0 -1,1 -2,0 -1,1 -5,0 -1,1 -5,0 -1,1 -8,0 -1,1 -7,0 -1,1 -4,0 -1,1 -3,0 -1,1 -3,0 -1,1 -3,0 -1,1 -3,0 -1,1 -3,0 -1,1 -3,0 166,-64 -167,65Z"/>
<path onmouseover="hoverPath(evt)" onmouseout="recoverPath(evt)" fill="rgb(244,243,236)" d="M  77,227l -1,0 0,7 1,1 0,11 1,1 0,8 149,0 0,-12 -1,-1 0,-13 -1,-1 0,-13 -1,-1 0,-22 -1,-1 0,-7 -1,-1 -1,-1 0,-1 -1,0 -1,-1 -1,-1 -2,0 -1,-1 -1,0 -1,-1 -8,0 -1,1 -5,0 -1,1 -1,0 -1,1 -1,0 -1,1 -1,0 -1,1 -1,0 -1,1 -1,1 -1,0 -1,1 -1,1 -1,0 -1,1 -1,1 -1,1 -1,0 -1,1 -1,1 -1,1 -1,1 -1,1 -1,0 -1,1 -1,1 -1,1 -1,1 -1,1 -1,0 -1,1 -1,1 -1,1 -1,1 -1,0 -1,1 -1,0 -1,1 -1,1 -1,0 -1,1 -1,0 -1,1 -1,0 -1,1 -1,0 -1,1 -1,0 -1,1 -1,0 -1,1 -1,0 -1,1 -1,0 -1,1 -2,0 -1,1 -3,0 -1,1 -4,0 -1,1 -6,0 -1,1 -6,0 -1,1 -7,0 -1,1 -6,0 -1,1 -4,0 -1,1 -3,0 -1,1 -2,0 -1,1 -3,0 -1,1 -2,0 -1,1 -3,0 -1,1Z"/>
<path onmouseover="hoverPath(evt)" onmouseout="recoverPath(evt)" fill="rgb(182,203,228)" d="M  93,12l -4,0 -1,1 -4,0 -1,1 -4,0 -1,1 -3,0 -1,1 -4,0 -1,1 -4,0 -1,1 -4,0 -1,1 -4,0 -1,1 -3,0 -1,1 -4,0 -1,1 -4,0 -1,1 -4,0 -1,1 -3,0 -1,1 -4,0 -1,1 -4,0 -1,1 -4,0 -1,1 -4,0 -1,1 -3,0 -1,1 -4,0 -1,1 -2,0 0,2 3,0 1,-1 3,0 1,-1 2,0 1,-1 4,0 1,-1 4,0 1,-1 5,0 1,-1 4,0 1,-1 4,0 1,-1 7,0 1,-1 5,0 1,-1 3,0 1,-1 3,0 1,-1 3,0 1,-1 2,0 1,-1 3,0 1,-1 4,0 1,-1 4,0 1,-1 4,0 1,-1 4,0 1,-1 4,0 1,-1 2,0 1,-1 -1,-1 -3,0 -1,1Z"/>
<path onmouseover="hoverPath(evt)" onmouseout="recoverPath(evt)" fill="rgb(222,229,236)" d="M  102,1l 0,1 -1,1 0,1 1,1 0,2 1,1 1,1 0,1 2,0 1,-1 4,0 1,-1 4,0 1,-1 4,0 1,-1 4,0 1,-1 4,0 1,-1 4,0 1,-1 4,0 1,-1 4,0 1,-1 4,0 1,-1 -49,0 -1,1Z"/>
<path onmouseover="hoverPath(evt)" onmouseout="recoverPath(evt)" fill="rgb(244,243,236)" d="M  105,12l -1,0 0,1 1,1 0,4 1,1 0,3 -1,1 0,3 -1,1 0,3 -1,1 0,2 -1,1 0,3 -1,1 0,2 -1,1 0,3 -1,1 0,1 1,1 0,2 -1,1 -2,0 0,2 -1,1 0,2 -1,1 0,2 -1,1 0,3 -1,1 0,2 -1,1 0,1 1,1 0,3 -1,1 -2,0 0,3 -1,1 0,2 -1,1 0,2 -1,1 0,2 -1,1 0,2 -1,1 0,3 -1,1 0,3 -1,1 0,2 -1,1 0,3 -1,1 0,2 -1,1 0,3 -1,1 0,3 -1,1 0,2 -1,1 0,3 -1,1 0,2 -1,1 0,3 1,1 0,2 -1,1 -2,0 0,2 -1,1 0,2 -1,1 0,3 -1,1 0,1 1,1 0,5 -1,1 0,17 1,1 0,10 1,1 0,11 1,1 0,16 1,1 0,8 1,1 0,4 1,0 1,-1 3,0 1,-1 3,0 1,-1 3,0 1,-1 3,0 1,-1 3,0 1,-1 3,0 1,-1 4,0 1,-1 7,0 1,-1 8,0 1,-1 5,0 1,-1 5,0 1,-1 2,0 1,-1 2,0 1,-1 1,0 1,-1 1,0 1,-1 1,0 1,-1 1,0 1,-1 1,0 1,-1 2,0 1,-1 1,-1 1,0 1,-1 1,-1 1,0 1,-1 1,-1 2,-2 1,-1 1,0 1,-1 1,-1 1,-1 2,-2 1,-1 1,0 1,-1 1,-1 1,-1 1,0 1,-1 1,-1 1,0 1,-1 1,-1 1,0 1,-1 1,-1 1,0 1,-1 1,0 1,-1 1,-1 1,0 1,-1 1,0 1,-1 2,0 1,-1 5,0 1,-1 19,0 1,-1 0,-4 -1,-1 0,-10 -1,-1 0,-11 -1,-1 0,-20 -1,-1 0,-17 -1,-1 0,-12 -1,-1 0,-13 -1,-1 0,-6 -1,-1 0,-18 -1,-1 0,-11 -1,-1 0,-9 -1,-1 0,-12 -1,-1 0,-14 -53,0 0,1 -1,1 -3,0 -1,1 -4,0 -1,1 -4,0 -1,1 -4,0 -1,1 -4,0 -1,1 -4,0 -1,1 -4,0 -1,1 -4,0 -1,1 -4,0 -1,1 -4,0 -1,1Z"/>
<path onmouseover="hoverPath(evt)" onmouseout="recoverPath(evt)" fill="rgb(244,243,237)" d="M  220,1l 0,9 1,1 0,21 1,1 0,8 1,1 0,12 1,1 0,12 1,1 0,15 1,1 0,17 1,1 0,12 1,1 0,12 1,1 0,10 1,1 0,7 1,1 0,7 1,1 13,0 0,-7 1,-1 0,-1 1,-1 1,-1 2,0 1,-1 1,0 1,-1 2,0 0,-142 -34,0 -1,1Z"/>
<path onmouseover="hoverPath(evt)" onmouseout="recoverPath(evt)" fill="rgb(244,243,237)" d="M  232,162l -1,1 0,9 1,1 0,14 1,1 0,11 1,1 0,15 1,1 0,15 1,1 0,14 1,1 0,8 18,0 0,-97 -1,0 -1,1 -7,0 -1,1 -9,0 -1,1 -2,0 -1,1Z"/>
</svg>