<svg width="256" height="256" xmlns="http://www.w3.org/2000/svg"><script> 
var tempColor;
function hoverPath(evt){
obj = evt.target;
tempColor = obj.getAttribute("fill");
obj.setAttribute("fill","red");
//alert(tempColor);
//obj.setAttribute("stroke","red");}
function recoverPath(evt){
obj = evt.target;
obj.setAttribute("fill", tempColor);
//obj.setAttribute("stroke", tempColor);
}</script><path onmouseover="hoverPath(evt)" onmouseout="recoverPath(evt)" fill="rgb(253,253,252)" d="M  1,68l 46,0 1,-1 5,0 1,-1 2,0 -1,-1 0,-3 1,-1 0,-1 1,-1 0,-1 1,-1 0,-2 1,-1 2,0 -1,-1 0,-3 1,-1 0,-1 1,-1 0,-1 1,-1 0,-2 1,-1 2,0 -1,-1 0,-3 1,-1 0,-1 1,-1 1,-1 0,-2 1,-1 0,-2 1,-1 0,-2 1,-1 0,-1 1,-1 0,-1 1,-1 0,-2 1,-1 0,-1 1,-1 0,-1 1,-1 0,-2 1,-1 0,-1 1,-1 0,-2 1,-1 0,-1 1,-1 0,-2 1,-1 0,-1 -2,0 0,3 -1,1 0,1 -1,1 0,2 -1,1 0,1 -1,1 0,2 -1,1 0,1 -1,1 0,1 -1,1 0,2 -1,1 0,1 -1,1 0,2 -1,1 0,1 -1,1 0,1 -1,1 0,2 -1,1 -1,1 0,2 -1,1 0,2 -1,1 0,1 -1,1 0,2 -1,1 0,1 -1,1 0,2 -1,1 0,1 -1,1 0,1 -1,1 0,2 -1,1 0,1 -1,1 0,2 -1,1 0,1 -1,1 -1,0 0,1 -1,1 -3,0 -1,1 -45,0 -1,1 -1,-1Z"/>
<path onmouseover="hoverPath(evt)" onmouseout="recoverPath(evt)" fill="rgb(244,243,236)" d="M  0,1l 0,30 3,0 1,1 1,0 1,1 1,0 1,1 2,0 1,1 2,0 1,1 11,0 1,-1 1,0 1,-1 1,-1 1,-1 1,-1 1,-1 1,-1 1,-1 11,0 1,1 1,0 1,1 1,1 1,0 1,1 1,0 1,1 5,0 1,-1 5,0 1,-1 0,-2 1,-1 0,-1 1,-1 0,-1 1,-1 0,-2 1,-1 0,-1 1,-1 0,-2 1,-1 0,-1 1,-1 0,-1 1,-1 0,-2 1,-1 0,-1 1,-1 0,-2 1,-1 0,-1 1,-1 0,-2 -76,0 -1,1Z"/>
<path onmouseover="hoverPath(evt)" onmouseout="recoverPath(evt)" fill="rgb(171,198,238)" d="M  0,34l 0,2 2,0 1,1 1,0 1,1 2,0 1,1 5,0 1,1 12,0 1,-1 1,0 1,-1 1,0 1,-1 1,-1 1,0 1,-1 1,0 1,-1 2,0 1,-1 5,0 1,1 1,0 1,1 1,0 1,1 1,0 1,1 1,0 1,1 4,0 1,-1 1,0 1,-1 2,0 1,-1 0,-1 -3,0 -1,1 -7,0 -1,-1 -1,0 -1,-1 -1,0 -1,-1 -1,-1 -1,0 -1,-1 -9,0 -1,1 -1,1 -1,1 -3,3 -1,1 -1,0 -1,1 -13,0 -1,-1 -2,0 -1,-1 -2,0 -1,-1 -1,0 -1,-1 -1,0 -1,-1 -1,0 -1,1Z"/>
<path onmouseover="hoverPath(evt)" onmouseout="recoverPath(evt)" fill="rgb(243,242,234)" d="M  0,39l 0,26 46,0 1,-1 3,0 0,-1 1,-1 1,0 0,-1 1,-1 0,-2 1,-1 0,-1 1,-1 0,-2 1,-1 0,-1 1,-1 0,-1 1,-1 0,-2 1,-1 0,-1 1,-1 0,-2 1,-1 0,-1 1,-1 -1,0 -1,1 -1,0 -1,1 -6,0 -1,-1 -1,0 -1,-1 -1,0 -1,-1 -1,0 -1,-1 -1,0 -1,-1 -3,0 -1,1 -2,0 -1,1 -1,0 -1,1 -1,0 -1,1 -1,1 -1,0 -1,1 -1,0 -1,1 -14,0 -1,-1 -5,0 -1,-1 -2,0 -1,-1 -1,0 -1,-1 -1,1Z"/>
<path onmouseover="hoverPath(evt)" onmouseout="recoverPath(evt)" fill="rgb(244,243,236)" d="M  0,73l 0,60 11,0 1,1 3,0 1,1 5,0 1,1 5,0 1,1 7,0 1,1 4,0 1,1 4,0 1,1 4,0 1,1 5,0 1,1 3,0 1,-1 15,0 1,-1 16,0 1,-1 1,0 0,-1 1,-1 0,-2 1,-1 0,-2 1,-1 0,-2 1,-1 0,-3 1,-1 0,-6 1,-1 0,-28 1,-1 0,-16 1,-1 0,-10 1,-1 0,-6 1,-1 0,-7 -6,0 -1,1 -2,0 -1,1 -2,0 -1,1 -7,0 -1,-1 -1,0 -1,-1 -1,-1 -1,-1 0,-1 -1,-1 -1,-1 0,-1 -1,-1 -1,-1 -1,0 -1,-1 -1,0 -1,-1 -2,0 -1,-1 -1,1 0,1 -1,1 0,1 1,1 0,2 -1,1 -2,0 0,2 -1,1 0,1 -1,1 0,1 -1,1 0,1 1,1 0,2 -1,1 -2,0 0,2 -1,1 0,1 -1,1 0,1 -1,1 0,1 1,1 0,2 -1,1 -2,0 -1,1 -5,0 -1,1 -48,0Z"/>
<path onmouseover="hoverPath(evt)" onmouseout="recoverPath(evt)" fill="rgb(244,243,237)" d="M  0,140l 0,61 1,0 1,-1 2,0 1,-1 2,0 1,-1 3,0 1,-1 2,0 1,-1 4,0 1,-1 1,0 1,-1 1,-1 2,-2 2,0 1,-1 2,0 1,1 7,0 1,-1 1,0 1,-1 1,-1 1,-1 1,-1 1,0 1,-1 4,0 1,1 3,0 1,-1 1,0 1,-1 0,-1 1,-1 2,-2 0,-1 1,-1 1,-1 1,-1 1,-1 1,-1 2,0 1,-1 15,0 1,-1 1,0 1,-1 0,-1 1,-1 0,-1 2,-2 0,-1 1,-1 0,-2 1,-1 0,-3 1,-1 0,-4 1,-1 0,-6 -1,-1 -5,0 -1,1 -16,0 -1,1 -20,0 -1,-1 -5,0 -1,-1 -5,0 -1,-1 -5,0 -1,-1 -4,0 -1,-1 -4,0 -1,-1 -3,0 -1,-1 -4,0 -1,-1 -10,0 -1,1Z"/>
<path onmouseover="hoverPath(evt)" onmouseout="recoverPath(evt)" fill="rgb(244,243,236)" d="M  0,239l 0,16 79,0 0,-4 1,-1 0,-4 1,-1 0,-3 1,-1 0,-3 1,-1 0,-4 1,-1 0,-3 1,-1 0,-3 1,-1 0,-6 1,-1 0,-34 -1,-1 0,-3 -1,-1 -10,0 -1,1 -2,0 -1,1 -1,0 -1,1 -1,0 -1,1 -1,1 0,1 -1,1 -1,1 0,1 -3,3 -1,0 -1,1 -12,0 -2,2 0,1 -1,1 -1,1 -1,0 -1,1 -7,0 -1,-1 -4,0 -1,1 0,0 -1,1 -1,0 -1,1 -1,1 -1,0 -1,1 -2,0 -1,1 -4,0 -1,1 -2,0 -1,1 -3,0 -1,1 -2,0 -1,1 -4,0Z"/>
<path onmouseover="hoverPath(evt)" onmouseout="recoverPath(evt)" fill="rgb(171,198,238)" d="M  83,175l -14,0 -1,1 -2,0 -1,1 -1,1 -1,1 -1,1 0,1 -1,1 -1,1 -1,1 0,1 -1,1 -1,1 -1,0 -1,1 -5,0 -1,-1 -2,0 -1,1 -1,0 -1,1 -1,1 -1,1 -1,1 -1,0 -1,1 -9,0 -1,-1 -1,1 -2,0 -1,1 -1,1 -1,1 -1,1 -1,0 -1,1 -4,0 -1,1 -2,0 -1,1 -3,0 -1,1 -2,0 -1,1 -2,0 -1,1 -2,0 0,1 3,0 1,-1 2,0 1,-1 3,0 1,-1 2,0 1,-1 4,0 1,-1 2,0 1,-1 1,0 1,-1 1,-1 1,0 1,-1 1,-1 6,0 1,1 5,0 1,-1 1,0 1,-1 0,-1 1,-1 1,-1 1,-1 12,0 1,-1 1,0 1,-1 1,-1 0,-1 1,-1 1,-1 0,-1 1,-1 1,-1 1,-1 1,0 1,-1 1,0 1,-1 2,0 1,-1 8,0 1,-1 1,1 2,0 1,1 1,1 0,3 1,1 0,36 -1,1 0,6 -1,1 0,3 -1,1 0,3 -1,1 0,4 -1,1 0,3 -1,1 0,3 -1,1 0,4 -1,1 0,3 13,0 0,-5 1,-1 0,-4 1,-1 0,-3 1,-1 0,-4 1,-1 0,-6 1,-1 0,-10 1,-1 0,-30 1,-1 0,-6 1,-1 0,-4 1,-1 0,-5 1,-1 0,-5 1,-1 0,-4 1,-1 0,-4 1,-1 0,-2 1,-1 0,-1 2,-2 1,-1 1,0 1,-1 8,0 1,1 4,0 1,-1 2,0 1,-1 1,0 1,-1 9,0 1,1 7,0 1,-1 1,0 1,-1 6,0 1,1 1,1 2,0 1,1 7,0 1,-1 1,0 1,-1 1,-1 1,0 1,-1 1,-1 0,-1 1,-1 0,-3 1,-1 1,-1 2,0 1,-1 7,0 1,-1 2,0 1,-1 1,-1 1,0 1,-1 1,-1 1,0 1,-1 2,0 1,-1 5,0 1,-1 5,0 1,-1 2,0 1,-1 1,0 1,-1 1,-1 1,0 1,-1 1,-1 1,-1 0,-1 1,-1 1,-1 1,-1 3,0 1,1 1,0 1,1 1,1 1,1 0,1 1,1 0,1 1,1 0,1 1,1 0,2 1,1 0,2 1,1 0,1 1,1 0,2 1,1 0,2 1,1 0,2 1,1 0,1 1,1 0,2 1,1 0,2 1,1 0,1 1,1 0,2 1,1 0,2 1,1 0,2 1,1 0,1 1,1 0,2 1,1 0,2 1,1 0,-11 -2,0 -1,-1 0,-2 -1,-1 0,-1 -1,-1 0,-1 -1,-1 0,-2 -1,-1 0,-2 -1,-1 0,-2 -1,-1 0,-2 -1,-1 0,-2 -1,-1 0,-2 -1,-1 0,-2 -1,-1 0,-2 -1,-1 0,-1 -1,-1 0,-2 -1,-1 0,-1 -1,-1 0,-1 -1,-1 -1,-1 -1,-1 -1,-1 -1,0 -1,-1 -4,0 -1,1 0,0 -1,1 -1,1 -1,1 -1,1 -1,1 -1,1 -1,0 -1,1 -1,1 -1,1 -1,0 -1,1 -1,0 -1,1 -7,0 -1,1 -4,0 -1,1 -1,0 -1,1 -1,0 -1,1 0,1 1,-1 2,-1 -115,51 -1,-1 111,-47 -1,0 -1,1 -1,0 -1,1 -10,0 -1,1 -1,0 -1,1 -1,0 0,1 -1,1 0,5 -1,1 -1,0 -1,1 -2,0 -1,1 -9,0 -1,-1 35,-13 -111,47 73,-35 -2,0 -1,-1 -1,0 -1,1 -2,0 -1,1 -8,0 -1,-1 -8,0 -1,1 -1,0 -1,1 -1,1 -10,0 -1,-1 -3,0 -1,-1 -1,-1 -1,-1 0,-2 1,-1 0,-5 1,-1 0,-3 1,-1 0,-20 1,-1 0,-24 1,-1 0,-9 1,-1 0,-4 1,-1 0,-4 1,-1 0,-2 1,-1 0,-1 1,-1 0,-1 1,-1 1,-1 0,-1 1,-1 0,-1 1,-1 1,-1 1,-1 1,-1 0,-1 1,-1 1,-1 1,-1 1,-1 0,-1 1,-1 1,-1 1,-1 1,-1 0,-1 1,-1 1,-1 1,-1 1,-1 0,-1 1,-1 1,-1 1,-1 1,-1 0,-1 1,-1 1,-1 1,-1 1,-1 0,-1 1,-1 1,-1 1,-1 1,-1 0,-1 1,-1 1,-1 1,-1 1,-1 0,-1 1,-1 1,-1 1,-1 1,-1 0,-1 1,-1 1,-1 1,-1 0,-1 -14,0 0,2 -1,1 0,1 -1,1 -1,1 -1,1 -1,1 -1,1 -1,1 -1,1 0,1 -1,1 -1,1 -2,2 -1,1 -1,1 -1,1 -1,1 0,1 -1,1 -4,4 -1,1 -1,1 -1,1 0,1 -1,1 -1,1 -1,1 -1,1 -1,1 -1,1 -1,1 -1,1 -1,1 -1,1 -1,1 -7,0 -1,-1 -5,0 -1,1 -1,0 -1,1 -3,0 -1,1 -3,0 -1,-1 -2,0 -1,-1 -1,-1 -1,0 -1,-1 -1,-1 0,-1 -1,0 -1,-1 -1,-1 -1,-1 -2,0 -1,-1 -2,0 -1,-1 -1,0 -1,1 0,1 1,1 2,0 1,1 1,0 1,1 1,0 1,1 1,1 1,1 0,1 1,1 1,1 0,1 1,1 1,1 1,0 1,1 5,0 1,-1 2,0 1,-1 2,0 1,-1 8,0 1,1 0,9 -1,1 0,6 -1,1 0,10 -1,1 0,16 -1,1 0,28 -1,1 0,6 -1,1 0,3 -1,1 0,2 -1,1 0,2 -1,1 0,2 -1,1 0,1 -1,1 -1,0 -1,1 -16,0 -1,1 -15,0 -1,1 -5,0 -1,-1 -5,0 -1,-1 -4,0 -1,-1 -4,0 -1,-1 -4,0 -1,-1 -7,0 -1,-1 -5,0 -1,-1 -5,0 -1,-1 -3,0 -1,-1 -10,0 0,2 12,0 1,1 4,0 1,1 3,0 1,1 4,0 1,1 4,0 1,1 5,0 1,1 5,0 1,1 5,0 1,1 18,0 1,-1 16,0 1,-1 7,0 1,1 1,1 0,8 -1,1 0,4 -1,1 0,3 -1,1 0,2 -1,1 0,1 -1,1 -1,1 0,1 -1,1 0,1 -1,1 -1,1 -1,0 -1,1 72,-35 -73,35Z"/>
<path onmouseover="hoverPath(evt)" onmouseout="recoverPath(evt)" fill="rgb(244,243,236)" d="M  84,0l -1,0 0,2 -1,1 0,2 -1,1 0,1 -1,1 0,2 -1,1 0,1 -1,1 0,2 -1,1 0,1 -1,1 0,1 -1,1 0,2 -1,1 0,1 -1,1 0,1 -1,1 0,2 -1,1 2,0 1,1 2,0 1,1 2,0 2,2 1,1 1,0 1,1 0,1 1,1 1,0 1,1 1,1 2,0 1,1 1,0 1,-1 3,0 1,-1 1,0 1,-1 7,0 1,1 5,0 1,-1 1,-1 1,-1 1,-1 1,-1 1,-1 1,-1 1,-1 1,-1 1,-1 0,-1 1,-1 1,-1 1,-1 2,-2 1,-1 1,-1 1,-1 0,-1 1,-1 1,-1 1,-1 1,-1 1,-1 1,-1 1,-1 1,-1 0,-1 1,-1 1,-1 2,-2 1,-1 2,-2 0,-1 1,-1 0,-1Z"/>
<path onmouseover="hoverPath(evt)" onmouseout="recoverPath(evt)" fill="rgb(244,243,236)" d="M  111,148l 0,0 -1,1 0,1 -1,1 0,2 -1,1 0,4 -1,1 0,4 -1,1 0,5 -1,1 0,5 -1,1 0,4 -1,1 0,6 -1,1 0,30 -1,1 0,10 -1,1 0,6 -1,1 0,4 -1,1 0,3 -1,1 0,4 -1,1 0,4 71,0 0,-5 -1,-1 0,-5 1,-1 0,-4 1,-1 0,-5 1,-1 0,-4 1,-1 0,-1 -1,-1 0,-1 -1,0 -1,-1 -1,0 -1,-1 0,-2 1,-1 3,0 1,1 1,0 1,1 1,0 1,1 0,1 1,1 1,0 1,1 2,0 1,1 0,2 1,0 1,1 1,0 1,1 2,0 1,-1 2,0 1,1 1,1 0,5 3,0 1,-1 0,0 1,-1 3,0 1,1 4,0 1,1 0,2 1,0 1,1 2,0 1,1 1,0 1,1 0,1 4,0 1,-1 10,0 1,-1 10,0 1,1 0,3 1,1 1,0 1,1 1,0 1,-1 11,0 0,-76 -1,0 -1,-1 0,-1 -1,-1 0,-2 -1,-1 0,-2 -1,-1 0,-1 -1,-1 0,-2 -1,-1 0,-2 -1,-1 0,-2 -1,-1 0,-1 -1,-1 0,-2 -1,-1 0,-2 -1,-1 0,-1 -1,-1 0,-2 -1,-1 0,-2 -1,-1 0,-2 -1,-1 0,-1 -1,-1 0,-2 -1,-1 0,-2 -1,-1 0,-1 -1,-1 0,-1 -1,-1 0,-1 -1,-1 -1,-1 -1,0 -1,-1 -1,0 -1,1 0,0 -1,1 0,1 -1,1 -1,1 -2,2 -1,0 -1,1 -1,1 -1,0 -1,1 -2,0 -1,1 -5,0 -1,1 -5,0 -1,1 -2,0 -1,1 -1,0 -1,1 -1,1 -1,0 -1,1 -1,1 -2,0 -1,1 -7,0 -1,1 -2,0 -1,1 0,3 -1,1 0,1 -1,1 -1,1 -1,1 -1,0 -2,2 -1,0 -1,1 -9,0 -1,-1 -2,0 -1,-1 -1,-1 -4,0 -1,1 -1,0 -1,1 -9,0 -1,-1 -7,0 -1,1 -1,0 -1,1 -2,0 -1,1 -6,0 -1,-1 -6,0 -1,1 -1,0 -1,1Z"/>
<path onmouseover="hoverPath(evt)" onmouseout="recoverPath(evt)" fill="rgb(244,243,237)" d="M  165,0l -1,0 0,2 -1,1 -1,1 -1,1 0,1 -1,1 -1,1 -2,2 0,1 -1,1 -1,1 -1,1 -1,1 0,1 -1,1 -1,1 -1,1 -1,1 0,1 -1,1 -1,1 -1,1 -1,1 0,1 -1,1 -1,1 -1,1 -1,1 0,1 -1,1 -1,1 -2,2 0,1 -2,2 -1,1 -1,1 0,1 -1,1 -1,1 -1,1 -1,1 0,1 -1,1 -1,1 -1,1 -1,1 0,1 -1,1 0,1 -2,2 0,1 -1,1 0,1 -1,1 0,2 -1,1 0,4 -1,1 0,4 -1,1 0,9 -1,1 0,24 -1,1 0,20 -1,1 0,3 -1,1 0,5 -1,1 1,1 0,0 1,1 3,0 1,1 8,0 1,-1 1,-1 1,0 1,-1 10,0 1,1 6,0 1,-1 2,0 1,-1 3,0 1,1 2,0 1,1 2,0 1,1 7,0 1,-1 2,0 1,-1 1,0 0,-5 1,-1 0,-1 1,-1 1,0 1,-1 1,0 1,-1 10,0 1,-1 1,0 1,-1 2,0 0,-1 1,-1 1,-1 1,0 1,-1 1,0 1,-1 4,0 1,-1 7,0 1,-1 1,0 1,-1 1,0 1,-1 1,-1 1,-1 1,0 1,-1 4,-4 1,-1 1,-1 6,0 1,1 1,0 1,1 1,1 1,1 1,1 1,1 0,1 1,1 0,1 1,1 0,2 1,1 0,1 1,1 0,2 1,1 0,2 1,1 0,2 1,1 0,2 1,1 0,2 1,1 0,2 1,1 0,2 1,1 0,2 1,1 0,1 1,1 0,1 1,1 0,2 1,0 0,-153Z"/>
<path onmouseover="hoverPath(evt)" onmouseout="recoverPath(evt)" fill="rgb(244,242,234)" d="M  172,228l 0,0 -1,1 0,4 -1,1 0,5 -1,1 0,4 -1,1 0,3 1,1 0,6 86,0 0,-8 -10,0 -1,1 -3,0 -1,-1 -1,0 -1,-1 -1,-1 0,-3 -8,0 -1,1 -10,0 -1,1 -6,0 -1,-1 0,-1 -1,0 -1,-1 -2,0 -1,-1 -1,0 -1,-1 0,-2 -4,0 -1,-1 -1,0 -2,2 -5,0 -1,-1 0,-5 -1,-1 -1,1 -4,0 -1,-1 -1,0 -1,-1 -1,0 -1,-1 0,-2 -2,0 -1,-1 -1,0 -1,-1 -1,-1 0,-1 -1,0 -1,-1 -1,0 -1,-1 -1,0 4,3 0,0 1,1Z"/>
</svg>