<svg width="256" height="256" xmlns="http://www.w3.org/2000/svg"><script> 
var tempColor;
function hoverPath(evt){
obj = evt.target;
tempColor = obj.getAttribute("fill");
obj.setAttribute("fill","red");
//alert(tempColor);
//obj.setAttribute("stroke","red");}
function recoverPath(evt){
obj = evt.target;
obj.setAttribute("fill", tempColor);
//obj.setAttribute("stroke", tempColor);
}</script><path onmouseover="hoverPath(evt)" onmouseout="recoverPath(evt)" fill="rgb(241,240,230)" d="M  0,24l 0,32 2,0 1,1 0,1 1,1 3,0 1,-1 2,0 1,1 0,-2 1,-1 1,0 1,-1 1,0 1,-1 2,0 1,-1 1,0 1,-1 2,0 1,1 0,-2 1,-1 4,0 1,-1 -1,-1 0,-2 -1,-1 -3,0 -1,-1 -1,-1 0,-1 -1,-1 0,-10 1,-1 1,0 1,-1 2,0 1,-1 17,0 1,-1 15,0 0,-2 -1,-1 0,-1 -1,-1 -2,0 -1,-1 -56,0Z"/>
<path onmouseover="hoverPath(evt)" onmouseout="recoverPath(evt)" fill="rgb(236,232,218)" d="M  30,228l 6,0 1,-1 16,0 1,1 13,0 1,-1 0,-2 -12,0 -1,-1 -16,0 -1,-1 0,-2 1,-1 28,0 0,-2 -1,0 -1,-1 -37,0 -1,1 -1,0 0,10Z"/>
<path onmouseover="hoverPath(evt)" onmouseout="recoverPath(evt)" fill="rgb(242,241,231)" d="M  36,164l 1,1 1,1 0,2 1,1 1,1 1,0 1,1 0,1 1,1 1,1 3,3 1,1 1,1 1,1 1,0 1,1 1,1 1,1 1,0 1,1 0,1 7,0 1,-1 15,0 1,1 34,0 1,1 3,0 0,-1 1,-1 0,-24 -1,-1 0,0 -1,1 0,12 -1,1 0,7 -1,1 -2,0 -1,-1 -16,0 -1,-1 -1,0 -1,-1 0,-2 -2,0 -1,-1 0,-4 -1,-1 0,-2 -1,-1 0,-1 -1,-1 0,-2 -1,-1 0,-3 1,-1 -1,-1 0,-9 -1,-1 0,-1 -2,0 -1,1 -2,0 -1,-1 0,-2 1,-1 0,-1 -1,-1 0,-2 1,-1 0,-1 1,-1 0,-1 -1,-1 -1,0 -1,-1 -5,0 -1,1 0,0 -1,1 0,1 -1,1 -1,1 -1,1 0,1 -1,1 -1,1 -1,0 0,1 -1,1 -2,0 0,1 -1,1 -1,1 -1,1 -2,0 0,1 -3,3 -1,0 -1,1 -1,0 -1,1 -1,1 -4,0 -1,-1 -2,0 -1,1 0,2 -1,1 -2,0 -1,1 0,4 -1,1Z"/>
<path onmouseover="hoverPath(evt)" onmouseout="recoverPath(evt)" fill="rgb(242,241,232)" d="M  61,192l 0,3 -1,1 -3,0 -1,-1 0,-2 -1,-1 -3,0 -1,1 -1,0 -1,1 -1,0 0,4 8,0 1,1 5,0 1,1 0,-1 1,-1 1,0 1,-1 13,0 1,-1 4,0 1,1 1,0 1,1 0,1 1,1 0,10 2,0 1,1 0,13 -1,1 0,24 -1,1 0,5 29,0 0,-37 1,-1 0,-24 -1,-1 0,-1 -5,0 -1,-1 -36,0 -1,-1 -8,0 -1,1 -6,0 0,1 1,1Z"/>
<path onmouseover="hoverPath(evt)" onmouseout="recoverPath(evt)" fill="rgb(243,241,232)" d="M  71,42l 0,3 -1,1 4,0 1,1 0,1 1,1 0,3 -1,1 0,2 1,1 0,-2 1,-1 4,0 1,1 31,0 1,-1 0,-1 -1,-1 0,-1 -1,-1 0,-2 -1,-1 0,-2 -1,-1 0,-1 -1,-1 0,-2 -1,-1 0,-2 -1,-1 0,-1 -1,-1 0,-1 -1,-1 0,-1 -1,-1 0,-2 -1,-1 0,-1 -1,-1 0,-1 -1,-1 0,-1 -1,-1 0,-1 -1,-1 0,-1 -1,-1 0,-1 -1,-1 0,-1 -1,-1 -1,-1 -1,1 -1,0 -1,1 -1,0 -1,1 -1,0 -1,1 -2,0 -1,1 -2,0 -1,1 -2,0 -1,1 -3,0 -1,1 -3,0 -1,1 -4,0 -1,1 -2,0 0,3 -1,1 0,3 -1,1 -15,0 -1,1 5,0 12,-1 1,1 1,0 1,1 1,1 0,1 1,1 0,2 1,1 0,2 1,1 0,1 1,1 -4,4 -1,0 -1,1 -8,0 -1,1 -4,0 4,1 0,1 1,1 0,14 1,-2 0,0 -1,-13 0,-1 1,-1 -1,0 9,-1 1,-1 4,-4Z"/>
<path onmouseover="hoverPath(evt)" onmouseout="recoverPath(evt)" fill="rgb(254,254,254)" d="M  176,80l -1,0 0,1 23,0 1,1 15,0 1,-1 33,0 1,1 6,0 0,-2 -2,0 -1,-1 -1,-1 0,-24 1,-1 0,-53 -1,0 0,47 -1,1 0,31 -1,1Z"/>
<path onmouseover="hoverPath(evt)" onmouseout="recoverPath(evt)" fill="rgb(244,243,235)" d="M  193,179l 0,0 -1,-1 0,77 63,0 0,-76Z"/>
<path onmouseover="hoverPath(evt)" onmouseout="recoverPath(evt)" fill="rgb(243,242,233)" d="M  0,1l 0,15 17,0 1,-1 6,0 1,1 38,0 1,-1 5,0 1,-1 3,0 1,-1 2,0 1,-1 3,0 1,-1 2,0 1,-1 1,0 1,-1 1,0 1,-1 2,0 1,-1 0,-2 1,-1 2,0 1,1 1,-1 1,0 2,-2 1,0 1,-1 0,-1 -100,0 -1,1Z"/>
<path onmouseover="hoverPath(evt)" onmouseout="recoverPath(evt)" fill="rgb(243,241,233)" d="M  0,101l 0,12 1,0 0,-1 1,-1 2,0 1,-1 1,0 1,-1 1,-1 1,0 1,-1 1,-1 1,0 1,-1 0,-2 1,-1 1,-1 2,0 1,1 1,-1 0,0 1,-1 1,-1 1,0 1,-1 0,-2 1,-1 1,-1 4,0 1,-1 0,-2 1,-1 1,-1 2,0 0,-1 1,-1 2,0 1,1 1,-1 1,0 1,-1 2,0 0,-2 1,-1 2,0 1,1 1,0 1,-1 3,0 1,-1 3,0 1,-1 8,0 1,-1 13,0 0,-7 1,-1 0,-5 -1,-1 0,-2 -1,-1 0,-3 -1,-1 0,-1 -2,0 -1,-1 -1,-1 0,-4 1,-1 0,-1 -1,-1 0,-1 -5,0 -1,1 -6,0 -1,1 -1,0 0,11 1,1 0,2 -1,1 0,1 -1,1 -4,0 -1,1 -14,0 -1,-1 -1,0 -1,-1 -1,-1 0,-13 1,-1 1,0 1,-1 -3,0 -1,-1 -1,-1 -1,-1 -1,0 1,1 0,2 -1,1 -1,1 -4,0 0,2 -1,1 -1,0 -1,1 -2,0 -1,-1 -1,1 -2,0 -1,1 -1,0 -1,1 -1,0 0,2 -1,1 -1,0 -1,1 -2,0 -1,-1 -4,0 -1,-1 -1,-1 0,-1 -1,0Z"/>
<path onmouseover="hoverPath(evt)" onmouseout="recoverPath(evt)" fill="rgb(245,243,235)" d="M  22,253l -14,0 -1,1 0,1 39,0 0,-2 -2,0 -1,1 -2,0 -1,-1Z"/>
<path onmouseover="hoverPath(evt)" onmouseout="recoverPath(evt)" fill="rgb(241,239,229)" d="M  66,200l -1,0 0,1 1,1 0,1 1,1 1,1 0,1 1,1 0,2 1,1 0,3 1,1 0,5 1,1 0,6 1,1 0,8 1,0 1,1 10,0 1,-1 0,-15 1,-1 0,-7 -1,-1 0,-10 -1,-1 0,-1 -1,0 -1,-1 -2,0 -1,1 -13,0 -1,1Z"/>
<path onmouseover="hoverPath(evt)" onmouseout="recoverPath(evt)" fill="rgb(171,198,238)" d="M  116,1l 1,1 0,2 1,1 0,2 1,1 0,2 1,1 0,1 1,1 0,2 1,1 0,2 1,1 0,1 1,1 0,2 1,1 0,2 1,1 0,1 1,1 0,2 1,1 0,2 1,1 0,2 1,1 0,1 1,1 0,2 1,1 0,2 1,1 0,2 1,1 0,2 1,1 0,2 1,1 0,2 1,1 0,2 1,1 0,3 1,1 0,4 1,1 0,4 1,1 0,6 1,1 0,41 -1,1 0,64 -1,1 0,58 -1,1 0,7 4,0 0,-38 1,-1 0,-38 1,-1 0,-59 1,-1 0,-30 -1,-1 0,-6 -1,-1 0,-3 -1,-1 0,-5 -1,-1 0,-5 -1,-1 0,-4 -1,-1 0,-3 -1,-1 0,-2 -1,-1 0,-2 -1,-1 0,-2 -1,-1 0,-1 -1,-1 0,-2 -1,-1 0,-2 -1,-1 0,-2 -1,-1 0,-2 -1,-1 0,-1 -1,-1 0,-2 -1,-1 0,-2 -1,-1 0,-2 -1,-1 0,-2 -1,-1 0,-1 -1,-1 0,-2 -1,-1 0,-2 -1,-1 0,-2 -1,-1 0,-2 -1,-1 0,-3 -4,0 -1,1Z"/>
<path onmouseover="hoverPath(evt)" onmouseout="recoverPath(evt)" fill="rgb(244,243,236)" d="M  123,1l 0,1 1,1 0,2 1,1 0,2 1,1 0,2 1,1 0,2 1,1 0,1 1,1 0,2 1,1 0,2 1,1 0,2 1,1 0,2 1,1 0,1 1,1 0,2 1,1 0,2 1,1 0,2 1,1 0,2 1,1 0,1 1,1 0,2 1,1 0,2 1,1 0,2 1,1 0,3 1,1 0,4 1,1 0,5 1,1 0,5 1,1 0,3 1,1 0,6 1,1 0,32 -1,1 0,59 -1,1 0,38 -1,1 0,37 14,0 0,-131 1,-1 0,-14 -1,-1 0,-7 1,-1 0,-15 -1,-1 0,-16 -1,-1 0,-5 -1,-1 0,-4 -1,-1 0,-2 -1,-1 0,-4 -1,-1 0,-3 -1,-1 0,-1 -1,-1 0,-2 -1,-1 0,-2 -1,-1 0,-2 -1,-1 0,-2 -1,-1 0,-2 -1,-1 0,-1 -1,-1 0,-2 -1,-1 0,-2 -1,-1 0,-1 -1,-1 0,-2 -1,-1 0,-1 -1,-1 0,-2 -1,-1 0,-1 -1,-1 0,-2 -1,-1 0,-1 -1,-1 0,-2 -13,0 -1,1Z"/>
<path onmouseover="hoverPath(evt)" onmouseout="recoverPath(evt)" fill="rgb(244,243,235)" d="M  153,1l 1,1 0,1 1,1 1,1 0,1 1,1 0,1 1,1 1,1 0,1 1,1 0,1 1,1 0,1 1,1 0,2 1,1 0,1 1,1 0,2 1,1 0,2 1,1 0,2 1,1 0,2 1,1 0,2 1,1 0,2 1,1 0,2 1,1 0,2 1,1 0,3 1,1 0,3 1,1 0,6 1,1 0,6 1,1 0,11 72,0 0,-31 1,-1 0,-46 -95,0 -1,1Z"/>
<path onmouseover="hoverPath(evt)" onmouseout="recoverPath(evt)" fill="rgb(242,241,233)" d="M  176,85l 0,15 1,1 0,96 -1,1 0,57 12,0 0,-110 1,-1 2,0 1,1 0,-15 -2,0 -1,-1 0,-4 1,-1 1,0 1,-1 1,0 1,-1 61,0 0,-38 -7,0 -1,-1 -31,0 -1,1 -17,0 -1,-1 -21,0Z"/>
<path onmouseover="hoverPath(evt)" onmouseout="recoverPath(evt)" fill="rgb(233,229,218)" d="M  231,177l 24,0 0,-2 -61,0 0,2Z"/>
<path onmouseover="hoverPath(evt)" onmouseout="recoverPath(evt)" fill="rgb(242,241,232)" d="M  0,122l 0,13 2,0 1,1 1,0 1,1 0,1 1,1 2,2 1,1 4,4 1,0 1,1 1,0 1,1 0,1 1,1 1,1 1,1 1,1 1,1 1,1 1,1 1,1 2,0 1,1 0,1 3,0 1,-1 2,0 0,-2 1,-1 2,0 1,1 1,0 0,-1 -1,-1 0,-2 -1,0 -1,-1 -1,-1 -1,-1 -3,0 -1,-1 0,-2 1,-1 -1,-1 0,-1 -1,-1 0,-1 -1,-1 0,-12 1,-1 0,-24 -1,0 -1,-1 -1,1 -1,0 -1,1 0,2 -1,1 -1,1 -4,0 -1,1 -1,1 -1,0 -1,1 -1,1 -1,0 -1,1 -1,1 -1,0 -2,2 0,2 -1,1 -2,0 -1,-1 -1,1 -2,0Z"/>
<path onmouseover="hoverPath(evt)" onmouseout="recoverPath(evt)" fill="rgb(243,242,233)" d="M  0,174l 0,47 1,0 1,-1 1,0 0,-1 1,-1 2,0 1,-1 1,-1 1,-1 1,0 1,-1 1,-1 1,-1 1,0 1,-1 1,-1 0,-1 1,-1 0,-1 1,-1 1,-1 4,0 1,-1 0,-1 1,-1 2,0 1,-1 1,-1 1,-1 1,0 1,-1 1,-1 1,-1 1,0 1,-1 1,-1 1,-1 1,0 1,-1 0,-2 1,-1 2,0 1,1 0,-2 1,-1 2,0 1,1 1,-1 1,0 -2,-2 -1,-1 -1,-1 -1,-1 -1,-1 -2,-2 -1,0 -2,-2 -1,0 -1,-1 0,-1 -1,-1 -1,-1 -2,-2 -1,-1 -1,-1 -1,-1 -1,0 -1,-1 -2,-2 -3,0 -1,1 -4,0 -1,-1 0,-2 1,-1 1,0 1,-1 2,0 -1,-1 0,0 -1,-1 -1,-1 -1,-1 -1,-1 -1,-1 -1,-1 -2,0 -1,-1 0,-1 -1,-1 -1,-1 -1,-1 -1,-1 -1,-1 -1,-1 -1,0 -1,-1 -1,-1 -1,-1 -1,-1 -1,0Z"/>
<path onmouseover="hoverPath(evt)" onmouseout="recoverPath(evt)" fill="rgb(238,235,221)" d="M  12,222l 9,0 0,-1 1,-1 0,-4 1,-1 0,-1 2,-2 1,0 0,-1 1,-1 3,0 1,1 1,1 0,1 33,0 1,-1 0,-2 1,-1 0,-1 -1,-1 0,-1 -1,-1 -1,-1 0,-1 -2,0 -1,-1 0,-1 -5,0 -1,-1 -8,0 -1,-1 0,-4 -1,1 -1,0 -1,1 -1,0 0,1 -1,1 -2,0 -1,1 -1,1 -1,1 -1,0 -1,1 -2,2 -1,0 0,1 -1,1 -1,0 0,1 -1,1 -2,0 -1,1 -1,1 -1,0 0,1 -1,1 -1,0 0,1 -1,1 0,1 -2,2 -4,0 -2,2 0,2 -1,1 -1,-1 -1,0 0,1 -1,1 -1,0 -2,2 -1,0 -1,1 -1,1 -2,0 0,11 2,0 1,1 8,0 0,-2 1,-1 8,0 1,-1 1,-1 0,-8 -1,-1 -9,0 -1,-1 0,-2 1,-1Z"/>
<path onmouseover="hoverPath(evt)" onmouseout="recoverPath(evt)" fill="rgb(241,239,229)" d="M  24,34l 0,6 1,1 0,1 1,1 3,0 1,1 1,1 2,0 1,1 1,1 1,1 7,0 1,1 0,2 -1,1 -4,0 -1,1 -1,0 0,11 1,1 1,0 1,1 12,0 1,-1 2,0 0,-13 -1,-1 0,-1 -3,0 -1,-1 0,-2 1,-1 4,0 1,-1 8,0 1,-1 4,0 0,-1 -1,-1 0,-1 -1,-1 0,-2 -1,-1 0,-2 -1,-1 0,-1 -1,-1 -1,0 -1,-1 -9,0 -1,1 -24,0 -1,-1 -1,0 -1,1 -1,0Z"/>
<path onmouseover="hoverPath(evt)" onmouseout="recoverPath(evt)" fill="rgb(243,242,234)" d="M  35,102l 0,0 -1,1 -1,1 -2,0 0,24 -1,1 0,10 1,1 0,1 1,1 0,1 1,1 0,2 -1,1 3,0 1,1 1,1 1,1 1,0 1,1 1,0 1,1 3,0 1,1 2,0 1,-1 0,0 1,-1 1,0 1,-1 1,0 1,-1 1,-1 0,-1 1,-1 2,0 1,-1 1,-1 0,-1 1,-1 2,0 0,-1 1,-1 1,0 1,-1 0,-1 1,-1 1,-1 1,-1 0,-1 1,-1 1,-1 1,-1 0,-2 1,-1 1,0 0,-2 1,-1 1,-1 0,-2 1,-1 0,-1 1,-1 0,-1 1,-1 0,-1 1,-1 0,-3 1,-1 0,-3 1,-1 0,-15 -1,-1 0,-1 -22,0 -1,-1 0,-2 1,-1 9,0 -11,4 -6,0 -1,1 -1,0 -1,1 -1,0 -1,1 -1,1 -1,0 -1,1 -1,1 -1,0 -1,1 -1,0 -1,1 -1,1 -1,0 0,2 -1,1Z"/>
<path onmouseover="hoverPath(evt)" onmouseout="recoverPath(evt)" fill="rgb(253,253,253)" d="M  69,230l 0,0 1,1 0,1 1,1 0,3 -1,1 -1,1 0,2 1,1 0,1 1,-2 0,-1 1,-1 14,0 1,1 0,16 1,-7 0,-24 1,-1 0,-11 -1,9 0,2 -1,14 0,1 -14,-1 -2,0 -1,3 -2,-2 -7,0 10,-6 0,-4 -1,-1 0,-6 -1,-1 0,-5 -1,-1 0,-3 -1,3 0,0 -1,1 -35,0 -1,-1 0,-1 -1,-1 -1,0 0,1 -1,1 -1,0 -1,1 0,1 -1,1 0,4 -1,1 0,1 -1,1 -9,0 10,1 1,1 0,10 -1,1 -1,1 -1,1 1,0 1,-1 7,0 -5,-1 -1,0 -4,2 -7,0 12,-7 0,0 1,-1 1,0 1,-1 10,0 1,-1 3,0 1,1 26,0 -24,-1 -7,0 -11,1 -2,0 -1,-5 0,-3 -1,2 0,0 3,-8 0,0 1,-1 -1,0 41,1 1,0 -1,-1 2,6 -1,1 -28,0 17,1 12,0 1,5Z"/>
<path onmouseover="hoverPath(evt)" onmouseout="recoverPath(evt)" fill="rgb(242,241,232)" d="M  105,6l 0,0 -1,1 -1,0 0,1 1,1 0,1 1,1 0,1 1,1 0,1 1,1 1,1 0,1 1,1 0,2 1,1 0,1 1,1 0,1 1,1 0,1 2,0 1,1 0,2 -1,1 1,1 0,2 1,1 0,2 2,0 1,1 0,2 -1,1 0,1 1,1 0,2 1,1 0,2 2,0 1,1 0,2 -1,1 0,1 1,1 0,2 1,1 0,3 1,1 0,3 1,1 0,5 1,1 0,8 1,1 0,44 -1,1 0,59 -1,1 0,1 1,1 0,5 -1,1 0,63 11,0 0,-8 1,-1 0,-58 1,-1 0,-64 1,-1 0,-39 -1,-1 0,-6 -1,-1 0,-4 -1,-1 0,-4 -1,-1 0,-3 -1,-1 0,-2 -1,-1 0,-2 -1,-1 0,-2 -1,-1 0,-2 -1,-1 0,-2 -1,-1 0,-2 -1,-1 0,-2 -1,-1 0,-1 -1,-1 0,-2 -1,-1 0,-2 -1,-1 0,-2 -1,-1 0,-1 -1,-1 0,-2 -1,-1 0,-2 -1,-1 0,-1 -1,-1 0,-2 -1,-1 0,-2 -1,-1 0,-1 -1,-1 0,-2 -1,-1 0,-2 -1,-1 0,-2 -1,-1 0,-2 -5,0 0,2 -1,1 -1,1 -1,0 -1,1Z"/>
<path onmouseover="hoverPath(evt)" onmouseout="recoverPath(evt)" fill="rgb(231,231,208)" d="M  254,26l 0,28 -1,1 0,22 1,1 1,0 0,-51 -1,-1 1,-1 0,-25 -1,0 0,24 1,1 -1,1Z"/>
<path onmouseover="hoverPath(evt)" onmouseout="recoverPath(evt)" fill="rgb(253,253,252)" d="M  2,223l -2,0 0,3 1,0 1,-1 0,0 1,-1 -1,-1 3,-2 1,1 1,0 0,-1 1,-1 2,0 0,-1 1,-1 1,-1 1,-1 4,0 1,-1 0,-1 1,-1 0,-1 1,-1 1,0 0,-1 1,-1 1,0 1,-1 1,-1 2,0 0,-1 1,-1 1,0 0,-1 1,-1 1,0 1,-1 1,-1 1,-1 1,0 1,-1 1,-1 1,-1 2,0 0,-1 1,-1 1,0 1,-1 1,0 1,-1 1,0 1,-1 1,0 1,-1 1,0 1,-1 5,0 1,1 1,1 0,2 1,0 0,-1 -1,-2 0,-2 1,-1 6,0 1,-1 10,0 1,1 36,0 1,1 5,0 1,1 0,1 1,1 0,26 -1,1 0,36 4,0 0,-64 1,-1 0,-3 -1,-1 0,-3 1,-1 0,-59 1,-1 0,-42 -1,-1 0,-8 -1,-1 0,-5 -1,-1 0,-3 -1,-1 0,-3 -1,-1 0,-2 -1,-1 0,-3 1,-1 -2,0 -1,-1 0,-2 -1,-1 0,-2 -1,-1 0,-3 1,-1 -2,0 -1,-1 0,-2 -1,-1 0,-2 -1,-1 0,-2 1,-1 -2,0 -1,-1 0,-1 -1,-1 0,-1 -1,-1 0,-1 -1,-1 0,-2 -1,-1 0,-1 -1,-1 -1,-1 0,-1 -1,-1 0,-1 -1,-1 0,-1 -1,-1 0,-3 1,-1 1,0 0,-1 1,-1 1,-1 1,0 1,-1 0,-1 -4,0 0,2 -1,1 -1,1 -1,0 -1,1 -1,1 -1,0 -1,1 -2,0 -1,-1 0,2 -1,1 -1,1 -2,0 -1,1 -1,0 -1,1 -1,0 -1,1 -2,0 -1,1 -3,0 -1,1 -2,0 -1,1 -3,0 -1,1 -5,0 -1,1 -40,0 -1,-1 -4,0 -1,1 -18,0 0,1 57,0 1,1 2,0 1,1 1,1 0,-2 1,-1 2,0 1,-1 4,0 1,-1 3,0 1,-1 3,0 1,-1 2,0 1,-1 2,0 1,-1 2,0 1,-1 1,0 1,-1 1,0 1,-1 1,0 1,-1 2,0 1,1 1,1 1,1 0,1 1,1 0,1 1,1 0,1 1,1 0,1 1,1 0,1 1,1 0,1 1,1 0,1 1,1 0,2 1,1 0,1 1,1 0,1 1,1 0,1 1,1 0,2 1,1 0,2 1,1 0,1 1,1 0,2 1,1 0,2 1,1 0,1 1,1 0,3 -1,1 -1,1 2,0 1,1 1,1 0,1 1,1 0,4 1,1 0,5 -1,1 -1,0 -1,1 -24,0 -1,-1 -8,0 1,1 34,0 1,1 1,1 0,2 1,1 0,3 -1,1 -1,1 -1,1 -5,0 -1,-1 -28,0 -1,-1 -1,0 -1,-1 0,-2 -1,-1 0,4 -1,1 -13,0 -1,1 -8,0 -1,1 -3,0 -1,1 -3,0 -1,1 -3,0 -1,-1 0,2 -1,1 -2,0 -1,1 -1,0 -1,1 -2,0 -1,-1 0,1 -1,1 -2,0 -1,1 0,2 -1,1 -1,1 -4,0 -1,1 0,2 -1,1 -1,1 -1,0 -1,1 -2,2 -2,0 -1,-1 -1,1 0,2 -1,1 -1,1 -1,0 -1,1 -1,1 -1,0 -1,1 -1,1 -1,0 -1,1 -2,0 0,1 -1,1 -2,0 0,2 1,0 1,-1 2,0 1,1 0,-2 1,-1 1,-1 1,-1 1,0 1,-1 1,-1 1,0 1,-1 1,-1 1,0 1,-1 1,-1 4,0 1,-1 0,-2 1,-1 1,-1 1,0 1,-1 2,0 1,1 1,0 1,1 1,0 1,-1 0,0 1,-1 0,-2 1,-1 1,0 1,-1 1,-1 1,0 1,-1 1,0 1,-1 1,-1 1,0 1,-1 1,-1 1,0 1,-1 1,0 1,-1 6,0 0,-3 -51,136 -3,2 56,-139 11,0 1,1 0,2 -1,1 13,0 1,1 0,1 1,1 0,-1 -1,-2 0,-3 1,-1 1,-1 23,0 1,1 11,0 1,1 0,1 1,1 0,44 -1,1 0,23 -1,1 -4,0 -1,1 0,9 -1,1 0,12 1,-8 0,-4 1,-9 1,-1 2,0 1,1 1,1 0,26 -1,1 0,1 -1,1 -5,0 -1,-1 -34,0 -1,-1 -13,0 -1,1 -9,0 -1,-1 0,-1 -1,0 -1,-1 -1,-1 -1,-1 -1,0 -1,-1 -1,-1 -4,-4 -1,-1 -1,-1 -1,-1 0,-1 -1,0 -1,-1 -1,-1 -1,-1 0,-2 -1,-1 -1,-1 0,-2 1,-1 0,-2 -2,0 -1,1 -5,0 -1,-1 0,-1 -2,0 -1,-1 -1,-1 -1,-1 -1,-1 -1,-1 -2,-2 -1,-1 -1,-1 0,-1 -1,0 -1,-1 -1,0 -1,-1 -1,-1 -2,-2 -1,-1 -1,-1 -1,-1 -1,-1 -1,-1 0,-1 -1,0 -1,-1 -1,0 0,3 2,0 1,1 2,2 1,1 1,0 1,1 1,1 1,1 1,1 1,1 1,1 1,1 0,1 2,0 1,1 1,1 1,1 1,1 1,1 1,1 1,1 1,1 0,2 -1,1 -2,0 -1,1 1,0 3,-1 3,0 1,1 1,1 1,1 1,0 1,1 1,1 1,1 1,1 1,1 1,1 1,1 1,1 0,1 1,0 1,1 1,1 1,0 1,1 1,1 1,1 1,1 1,1 1,1 1,1 1,1 1,1 0,2 -1,1 -1,0 -1,1 -2,0 -1,-1 0,2 -1,1 -2,0 -1,-1 0,2 -1,1 -1,1 -1,0 -1,1 -1,1 -1,1 -1,0 -1,1 -1,1 -1,1 -1,0 -2,2 -1,1 -2,0 0,1 -2,2 -4,0 -1,1 0,1 -1,1 0,1 -1,1 -1,1 -1,1 -1,0 -1,1 -1,1 -1,1 -1,0 -1,1 -1,1 -1,1 -2,0 53,-136 -56,139Z"/>
<path onmouseover="hoverPath(evt)" onmouseout="recoverPath(evt)" fill="rgb(241,238,228)" d="M  30,251l 11,0 1,1 1,-1 4,0 1,1 0,3 37,0 0,-15 -12,0 0,1 -1,1 0,1 -1,1 -2,0 -1,-1 0,-1 -1,-1 0,-1 -7,0 -1,-1 0,-2 1,-1 8,0 1,-1 0,-1 -1,-1 0,-1 -26,0 -1,-1 -1,0 -1,1 -10,0 -1,1 -1,0 -1,1 0,1 1,1 4,0 1,1 0,2 -1,1 -7,0 -1,1 -10,0 -1,1 -10,0 -1,-1 -1,0 0,14 5,0 0,-2 1,-1 1,-1 23,0 18,-1 -1,-1 0,-2 1,-1 2,0 1,1 0,2 -1,1 -2,0 -18,1Z"/>
<path onmouseover="hoverPath(evt)" onmouseout="recoverPath(evt)" fill="rgb(239,237,224)" d="M  78,55l 0,1 1,1 0,1 1,1 0,3 1,1 0,2 1,1 0,6 1,1 0,3 1,1 0,2 1,0 1,1 28,0 1,1 3,0 1,-1 0,0 1,-1 0,-1 -1,-1 0,-2 -1,-1 -34,0 -6,-19 5,14 10,0 1,1 22,0 1,-1 1,0 0,-3 -1,-1 0,-4 -1,-1 0,-1 -1,-1 -34,0 -1,-1 0,-2 -1,0 1,3 3,11 -5,-14Z"/>
<path onmouseover="hoverPath(evt)" onmouseout="recoverPath(evt)" fill="rgb(243,242,232)" d="M  85,87l 0,1 1,1 0,19 -1,1 -2,0 0,3 -1,1 0,3 -1,1 0,1 -1,1 0,1 -1,1 0,1 -1,1 0,2 -1,1 -1,1 0,2 -1,1 -1,0 0,1 5,0 1,1 1,0 1,1 1,1 0,2 1,-1 0,0 1,-1 2,0 1,1 1,0 1,1 1,-1 2,0 1,1 0,2 1,1 1,1 1,0 1,1 1,1 1,1 1,1 0,1 1,0 1,1 1,1 1,1 1,1 1,1 1,1 1,0 1,1 1,1 1,1 1,-1 2,0 1,1 3,0 0,-23 1,-1 0,-42 -1,-1 0,-1 -11,0 -1,-1 -21,0 -1,1Z"/>
<path onmouseover="hoverPath(evt)" onmouseout="recoverPath(evt)" fill="rgb(242,240,231)" d="M  85,137l 0,0 -1,1 0,1 -1,1 0,1 -1,1 0,1 1,1 3,0 1,1 0,1 1,1 0,9 1,1 0,2 -1,1 0,1 1,1 0,2 1,1 0,1 1,1 0,2 1,1 0,4 2,0 1,1 0,2 1,0 1,1 15,0 0,-12 1,-1 0,-8 -1,-1 -1,0 -3,-3 -1,0 -1,-1 -1,-1 -1,-1 -1,-1 -1,-1 -1,-1 -1,0 -1,-1 0,-1 -1,-1 -1,-1 -1,-1 -1,0 -1,-1 -1,-1 -1,-1 -1,0 -1,-1 -1,0 -1,-1 -1,0 -1,-1 -1,1Z"/>
<path onmouseover="hoverPath(evt)" onmouseout="recoverPath(evt)" fill="rgb(243,233,139)" d="M  174,98l 0,-15 -1,-1 0,-3 1,-1 0,-10 -1,-1 0,-6 -1,-1 0,-6 -1,-1 0,-3 -1,-1 0,-3 -1,-1 0,-2 -1,-1 0,-2 -1,-1 0,-2 -1,-1 0,-2 -1,-1 0,-2 -1,-1 0,-2 -1,-1 0,-2 -1,-1 0,-2 -1,-1 0,-1 -1,-1 0,-2 -1,-1 0,-1 -1,-1 0,-1 -1,-1 0,-1 -1,-1 -1,-1 0,-1 -1,-1 0,-1 -1,-1 -1,-1 0,-1 -1,-1 0,-2 -12,0 0,1 1,1 0,1 1,1 0,2 1,1 0,1 1,1 0,2 1,1 0,1 1,1 0,2 1,1 0,1 1,1 0,2 1,1 0,2 1,1 0,1 1,1 0,2 1,1 0,2 1,1 0,2 1,1 0,2 1,1 0,2 1,1 0,1 1,1 0,3 1,1 0,4 1,1 0,2 1,1 0,4 1,1 0,5 1,1 0,16 1,1 0,17 -1,1 0,5 1,1 0,16 -1,1 0,130 13,0 0,-58 1,-1 0,-94 -1,-1Z"/>
<path onmouseover="hoverPath(evt)" onmouseout="recoverPath(evt)" fill="rgb(254,254,254)" d="M  190,175l 0,80 1,-79 -1,-1Z"/>
<path onmouseover="hoverPath(evt)" onmouseout="recoverPath(evt)" fill="rgb(243,242,234)" d="M  193,128l 0,0 1,1 0,44 61,0 0,-49 -60,0 -1,1 -1,0 -1,1 -1,0 0,2Z"/>
</svg>