<svg width="256" height="256" xmlns="http://www.w3.org/2000/svg"><script> 
var tempColor;
function hoverPath(evt){
obj = evt.target;
tempColor = obj.getAttribute("fill");
obj.setAttribute("fill","red");
//alert(tempColor);
//obj.setAttribute("stroke","red");}
function recoverPath(evt){
obj = evt.target;
obj.setAttribute("fill", tempColor);
//obj.setAttribute("stroke", tempColor);
}</script><path onmouseover="hoverPath(evt)" onmouseout="recoverPath(evt)" fill="rgb(244,243,236)" d="M  0,184l 0,71 72,0 0,-7 -1,-1 0,-2 -1,-1 -1,-1 -1,-1 -1,0 -1,-1 -3,0 -1,-1 -2,0 -1,-1 -2,0 -1,-1 -3,0 -1,-1 -3,0 -1,-1 -9,0 -1,-1 -4,0 -1,-1 -1,0 -1,-1 -2,0 -1,-1 -1,-1 -1,-1 -1,-1 -1,-1 0,-1 -1,-1 0,-3 -1,-1 0,-8 -1,-1 0,-10 1,-1 0,-5 -1,-1 0,-7 -1,-1 0,-2 -1,-1 -1,-1 -10,0 -1,-1 -6,0 -1,1Z"/>
<path onmouseover="hoverPath(evt)" onmouseout="recoverPath(evt)" fill="rgb(170,198,237)" d="M  4,148l 0,1 -1,1 0,1 -1,1 -2,0 0,29 8,0 1,1 10,0 1,1 1,1 1,1 0,2 1,1 0,7 1,1 0,7 -1,1 0,8 1,1 0,8 1,1 0,3 1,1 0,1 3,3 1,1 2,0 1,1 1,0 1,1 4,0 1,1 9,0 1,1 3,0 1,1 3,0 1,1 2,0 1,1 2,0 1,1 3,0 1,1 1,0 1,1 1,1 1,1 1,1 0,2 1,1 0,8 6,0 0,-16 -1,-1 0,-2 -1,-1 0,-1 -1,-1 -1,-1 -4,0 -1,-1 -2,0 -1,-1 -1,0 -1,-1 -2,0 -1,-1 -1,0 -1,-1 -1,0 -1,-1 -1,0 -1,-1 -1,-1 -1,-1 -1,0 -1,-1 0,-1 -1,-1 -1,-1 -1,-1 -1,-1 -1,-1 0,-1 -1,-1 -1,-1 0,-1 -1,-1 0,-1 -1,-1 0,-1 -1,-1 0,-3 -1,-1 0,-12 1,-1 0,-3 1,-1 0,-1 1,-1 0,-1 1,-1 1,-1 0,-1 1,-1 1,-1 1,-1 1,-1 1,-1 1,-1 1,-1 1,-1 1,-1 1,0 1,-1 1,0 1,-1 1,0 1,-1 1,0 1,-1 1,0 1,-1 3,0 1,-1 3,0 1,-1 3,0 1,-1 9,0 1,1 3,0 1,1 2,0 1,1 2,0 1,1 2,0 1,1 1,0 1,1 1,0 1,1 1,1 1,0 1,1 1,1 1,1 1,1 1,0 1,1 1,1 0,1 1,1 1,1 1,1 1,1 0,1 1,1 0,2 1,1 0,1 1,1 0,3 1,1 0,8 1,1 5,0 0,-9 -1,-1 0,-3 -1,-1 0,-2 -1,-1 0,-2 -1,-1 0,-2 1,-1 24,0 1,1 1,0 -1,-1 0,-1 -2,0 -1,-1 -26,0 -1,-1 -1,-1 -1,-1 -1,-1 -1,-1 -1,-1 -1,-1 -1,-1 -1,0 -1,-1 -1,-1 -1,0 -1,-1 -1,-1 -1,0 -1,-1 -1,0 -1,-1 -1,0 -1,-1 -2,0 -1,-1 -3,0 -1,-1 -8,0 -1,-1 -23,0 -1,1 -7,0 -1,1 -3,0 -1,1 -3,0 -1,1 -3,0 -1,1 -2,0 -1,1 -2,0 -1,1 -2,0 -1,1 -2,0 -1,1 -2,0 -1,1 -4,0 -1,-1 -1,-1 0,-3 1,-1 1,-1 1,0 1,-1 1,-1 1,0 1,-1 1,-1 1,0 1,-1 1,-1 1,0 1,-1 1,-1 0,-2 1,-1 0,-2 -1,-1 0,-1 -1,-1 -1,0 -1,-1 -1,-1 -1,0 -1,-1 -1,-1 -14,0 -1,1 -1,0 -1,1 -1,0 -1,1 -1,1 -1,1 -1,0 -1,1Z"/>
<path onmouseover="hoverPath(evt)" onmouseout="recoverPath(evt)" fill="rgb(239,238,227)" d="M  19,122l 0,2 64,0 -13,-1 0,-2 -13,0 -1,-1 -1,0 -1,-1 -2,0 -1,-1 0,-29 -1,0 0,5 -1,1 -4,0 -1,-1 0,-1 -1,-1 0,-1 -1,0 -1,-1 0,-1 -5,0 -1,-1 0,-1 -35,0 0,9 26,0 1,1 1,0 1,-1 6,0 1,-1 6,0 1,1 0,4 -1,1 -1,1 -1,0 0,1 -1,1 -6,0 0,9 -1,1 0,5 -1,1 -1,1 -1,0 -1,1Z"/>
<path onmouseover="hoverPath(evt)" onmouseout="recoverPath(evt)" fill="rgb(242,231,136)" d="M  63,56l -63,0 0,6 16,0 1,1 5,0 1,1 61,0 0,-6 -14,0 -1,-1 0,-1Z"/>
<path onmouseover="hoverPath(evt)" onmouseout="recoverPath(evt)" fill="rgb(239,238,227)" d="M  77,122l 7,0 0,-52 1,-1 0,-3 -63,0 -1,-1 0,5 2,0 1,1 17,0 1,1 0,2 -1,1 -25,0 -1,-1 -15,0 0,11 36,0 1,1 0,1 5,0 1,1 0,1 1,0 1,1 0,1 1,1 0,1 2,0 0,-5 1,-1 3,0 1,1 0,29 1,-23 3,0 1,1 0,9 16,0 1,1 1,0 1,1 1,1 1,1 0,9 -1,1 0,1 -1,1 -1,0 -1,1 -3,0 0,1Z"/>
<path onmouseover="hoverPath(evt)" onmouseout="recoverPath(evt)" fill="rgb(246,235,141)" d="M  88,56l -2,0 -1,-1 -3,0 -1,1 4,0 1,1 0,6 3,0 1,1 36,0 1,-1 51,0 0,-1 1,-1 2,0 1,1 11,0 1,1 0,72 1,-72 23,0 1,-1 36,0 0,-8 -35,0 -1,1 -24,0 -1,-1 0,-9 -1,-1 0,-3 1,-1 1,0 0,-11 -1,0 -1,-1 0,-20 1,-1 1,0 0,-7 -7,0 0,46 -1,1 0,8 -1,1 -7,0 -1,-1 -74,0 -1,1 -12,0 -1,-1 0,0 -1,1 -1,0 -3,-2 0,0 3,2Z"/>
<path onmouseover="hoverPath(evt)" onmouseout="recoverPath(evt)" fill="rgb(241,240,228)" d="M  89,102l 0,22 1,0 1,1 2,0 1,1 4,0 1,1 3,0 1,1 2,0 1,1 2,0 1,1 2,0 1,-1 2,0 1,1 0,2 1,0 1,1 1,0 1,1 1,-1 2,0 1,1 0,2 1,1 1,0 1,1 1,1 2,0 1,1 0,1 1,1 1,1 2,0 1,1 0,1 1,1 1,0 1,1 1,0 1,-1 0,0 2,-2 1,-1 1,-1 0,-2 1,-1 1,0 0,-1 -1,-1 0,0 -1,-1 -1,0 -1,-1 -1,-1 -1,-1 -1,0 -1,-1 -1,-1 -4,0 -1,-1 0,-2 -1,-1 -1,0 -1,-1 -1,0 -1,-1 -2,0 -1,-1 -1,0 -1,-1 -1,-1 -1,0 -1,-1 -1,1 -2,0 -1,-1 0,-2 -1,-1 -1,-1 -1,-1 0,-1 -1,-1 0,-2 -1,-1 0,-20 -1,-1 0,-1 -3,0 0,2 1,1 0,6 -1,1 -1,1 -2,0 -1,1 -4,0 -1,-1 -8,0Z"/>
<path onmouseover="hoverPath(evt)" onmouseout="recoverPath(evt)" fill="rgb(243,242,234)" d="M  92,66l -2,0 0,9 -1,1 0,5 1,1 0,1 13,0 1,1 16,0 1,-1 31,0 1,1 1,0 1,1 1,0 1,1 0,1 1,1 0,29 -1,1 0,12 -1,1 0,2 1,1 0,2 -1,1 0,2 -1,1 -2,0 -1,1 -1,1 -1,1 -1,1 -1,1 -1,1 -1,1 0,1 -3,3 0,1 1,1 0,0 1,1 0,1 1,1 1,1 0,1 1,1 2,0 1,1 0,2 -1,1 1,1 0,1 1,1 1,1 0,1 1,1 0,2 1,1 0,2 1,1 0,1 1,-1 13,0 1,1 6,0 0,-23 1,-1 0,-87 -50,0 -1,1Z"/>
<path onmouseover="hoverPath(evt)" onmouseout="recoverPath(evt)" fill="rgb(180,202,230)" d="M  157,178l 0,2 19,0 1,1 1,0 1,1 0,30 1,0 1,1 5,0 0,-95 -1,-1 0,-16 1,-1 0,-36 -5,0 -1,-1 0,90 -1,1 0,23 -1,1 -8,0 -1,-1 -11,0 -1,1Z"/>
<path onmouseover="hoverPath(evt)" onmouseout="recoverPath(evt)" fill="rgb(170,198,237)" d="M  179,220l 0,35 4,0 0,-6 1,-1 1,0 -2,-1 0,-28 -3,0 -1,1Z"/>
<path onmouseover="hoverPath(evt)" onmouseout="recoverPath(evt)" fill="rgb(244,242,234)" d="M  195,14l 0,13 1,0 1,1 0,12 58,0 0,-29 -11,0 -1,1 -48,0Z"/>
<path onmouseover="hoverPath(evt)" onmouseout="recoverPath(evt)" fill="rgb(237,237,221)" d="M  200,251l -1,1 0,3 56,0 0,-3 -19,0 -1,-1 -18,0 -1,-1 -15,0 -1,1Z"/>
<path onmouseover="hoverPath(evt)" onmouseout="recoverPath(evt)" fill="rgb(171,198,237)" d="M  211,180l 0,0 1,1 33,0 1,-1 9,0 0,-2 -10,0 -1,1 -32,0 -1,1 -1,-1 -16,0 0,1 15,0 1,-1 1,1Z"/>
<path onmouseover="hoverPath(evt)" onmouseout="recoverPath(evt)" fill="rgb(170,198,237)" d="M  0,45l 0,1 75,0 0,-3 -20,0 -1,1 -53,0 -1,1Z"/>
<path onmouseover="hoverPath(evt)" onmouseout="recoverPath(evt)" fill="rgb(244,243,236)" d="M  0,1l 0,41 53,0 1,-1 24,0 1,1 1,0 1,-1 4,0 0,-41 -84,0 -1,1Z"/>
<path onmouseover="hoverPath(evt)" onmouseout="recoverPath(evt)" fill="rgb(242,239,221)" d="M  0,67l 0,5 16,0 1,1 23,0 -18,-1 -2,0 -1,-1 0,-6 -3,0 -1,-1 -15,0Z"/>
<path onmouseover="hoverPath(evt)" onmouseout="recoverPath(evt)" fill="rgb(244,243,236)" d="M  22,165l 0,1 1,1 2,0 1,-1 2,0 1,-1 2,0 1,-1 2,0 1,-1 2,0 1,-1 2,0 1,-1 3,0 1,-1 3,0 1,-1 3,0 1,-1 7,0 1,-1 23,0 0,-2 1,-1 -1,-1 0,-23 -1,1 -83,0 0,19 1,0 0,-1 1,-1 0,-1 1,-1 1,-1 1,0 1,-1 1,-1 1,-1 1,0 1,-1 1,0 1,-1 16,0 1,1 1,1 1,0 1,1 1,1 1,0 1,1 1,1 0,1 1,1 0,4 -1,1 0,2 -1,1 -1,1 -1,1 -1,0 -1,1 -1,1 -1,0 -2,2 -1,0 -1,1 -1,1 -1,0 -1,1Z"/>
<path onmouseover="hoverPath(evt)" onmouseout="recoverPath(evt)" fill="rgb(231,229,215)" d="M  30,113l 1,-1 0,-9 1,-1 6,0 0,-1 1,-1 1,0 1,-1 0,-2 -4,0 -1,1 -6,0 -1,1 -3,0 -1,-1 -25,0 0,31 82,0 -65,-1 0,-7 1,-1 9,0 1,-1 1,0 1,-1Z"/>
<path onmouseover="hoverPath(evt)" onmouseout="recoverPath(evt)" fill="rgb(244,243,236)" d="M  55,175l -3,3 -1,1 -2,2 0,1 -1,1 -1,1 0,1 -1,1 0,1 -1,1 0,3 -1,1 0,10 1,1 0,3 1,1 0,1 1,1 0,1 1,1 0,1 1,1 1,1 0,1 1,1 1,1 1,1 1,1 1,1 0,1 1,0 1,1 1,1 1,1 1,0 1,1 1,0 1,1 1,0 1,1 2,0 1,1 1,0 1,1 2,0 1,1 4,0 1,1 1,1 1,1 0,1 1,1 0,2 1,1 0,17 39,0 0,-2 1,-1 1,0 1,-1 1,-1 0,-2 1,-1 1,-1 1,-1 1,-1 3,0 0,-2 1,-1 5,-5 1,-1 2,-2 0,-1 2,-2 1,-1 1,0 0,-2 1,-1 2,0 1,-1 0,-1 1,-1 0,-2 1,-1 0,-3 1,-1 0,-1 -1,-1 -1,0 -1,-1 0,-2 1,-1 1,0 1,-1 1,0 0,-1 1,-1 0,-14 -1,-1 0,-6 -1,-1 0,-3 -3,0 -1,-1 -22,0 1,1 0,2 1,1 0,2 1,1 0,3 1,1 0,11 -1,1 -7,0 -1,-1 -1,-1 0,-8 -1,-1 0,-3 -1,-1 0,-1 -1,-1 0,-2 -1,-1 0,-1 -1,-1 -1,-1 -1,-1 -1,-1 0,-1 -1,-1 -1,0 -1,-1 -1,-1 -1,-1 -1,-1 -1,0 -1,-1 -1,-1 -1,0 -1,-1 -1,0 -1,-1 -2,0 -1,-1 -2,0 -1,-1 -2,0 -1,-1 -3,0 -1,-1 -7,0 -1,1 -3,0 -1,1 -3,0 -1,1 -3,0 -1,1 -1,0 -1,1 -1,0 -1,1 -1,0 -1,1 -1,0 -1,1 -1,0 -1,1 -1,1Z"/>
<path onmouseover="hoverPath(evt)" onmouseout="recoverPath(evt)" fill="rgb(238,235,221)" d="M  58,111l 0,1 -1,1 0,2 1,1 1,0 1,1 14,0 0,-8 -12,0 -1,-1 -1,0 -1,1 -1,0Z"/>
<path onmouseover="hoverPath(evt)" onmouseout="recoverPath(evt)" fill="rgb(242,241,233)" d="M  68,54l 12,0 1,-1 2,0 0,-5 -83,0 0,6Z"/>
<path onmouseover="hoverPath(evt)" onmouseout="recoverPath(evt)" fill="rgb(254,254,254)" d="M  76,117l 0,1 1,-2 0,-7 -1,-1 0,0 -1,-1 -1,0 -1,-1 -16,0 -1,-1 0,-9 -1,0 0,21 1,1 1,0 1,1 16,0 -16,-1 -2,-1 0,-9 1,-1 16,0 3,2Z"/>
<path onmouseover="hoverPath(evt)" onmouseout="recoverPath(evt)" fill="rgb(243,242,234)" d="M  86,157l 0,0 1,1 8,0 1,1 3,0 1,1 2,0 1,1 1,0 1,1 1,0 1,1 1,0 1,1 1,1 1,0 1,1 1,1 1,0 1,1 1,1 1,1 1,1 1,1 1,1 1,1 1,1 26,0 1,1 1,0 0,-1 -1,-1 0,-2 -2,0 -1,-1 0,-2 1,-1 -1,-1 0,-1 -1,-1 -2,0 -1,-1 0,-2 1,-1 -1,-1 0,0 -1,-1 0,-1 -1,-1 -1,-1 -1,0 -1,-1 0,-1 -3,0 -1,-1 -1,-1 -1,-1 0,-1 -1,-1 0,-1 -1,-1 -1,-1 -2,0 -1,-1 0,-1 -1,-1 -1,0 -1,-1 -1,-1 -1,0 -1,-1 -1,0 -1,-1 -1,-1 -1,0 -1,-1 -2,0 -1,-1 -1,0 -1,-1 -2,0 -1,-1 -2,0 -1,-1 -3,0 -1,-1 -2,0 -1,-1 -4,0 -1,-1 -2,0 0,1 -1,1 0,21 -1,1 0,1 -1,1Z"/>
<path onmouseover="hoverPath(evt)" onmouseout="recoverPath(evt)" fill="rgb(228,232,231)" d="M  91,38l -1,-1 0,-5 -1,0 -1,-1 0,-31 -1,0 0,42 -1,1 -4,0 -1,1 -3,0 -1,-1 0,3 9,0 1,1 0,7 1,0 0,-12 1,-1 4,0 0,-2 -1,-1Z"/>
<path onmouseover="hoverPath(evt)" onmouseout="recoverPath(evt)" fill="rgb(244,243,236)" d="M  92,51l 0,3 10,0 1,-1 75,0 0,-6 -1,-1 -19,0 -1,1 -65,0Z"/>
<path onmouseover="hoverPath(evt)" onmouseout="recoverPath(evt)" fill="rgb(241,240,233)" d="M  110,41l 67,0 1,-1 0,-40 -88,0 0,30 1,0 1,1 0,5 1,0 1,1 1,1 0,3Z"/>
<path onmouseover="hoverPath(evt)" onmouseout="recoverPath(evt)" fill="rgb(242,241,231)" d="M  115,91l 0,18 1,1 0,2 1,1 1,1 1,1 1,1 1,0 1,1 1,-1 2,0 1,1 0,2 1,0 1,1 1,0 1,1 1,0 1,1 1,0 1,1 1,-1 2,0 1,1 1,1 0,2 1,1 4,0 1,1 1,1 0,2 1,1 1,1 2,0 0,-1 1,-1 0,-3 1,-1 0,-12 1,-1 0,-24 -1,-1 -1,0 -1,-1 -20,0 -1,1 -13,0 -1,1Z"/>
<path onmouseover="hoverPath(evt)" onmouseout="recoverPath(evt)" fill="rgb(252,251,249)" d="M  125,253l -1,1 -1,0 0,1 6,0 0,-4 1,-1 1,0 1,-1 1,-1 1,0 1,-1 0,-1 1,-1 1,-1 6,-6 1,-1 3,0 0,-4 1,-1 1,-1 0,-1 1,-1 1,-1 0,-1 1,-1 0,-1 1,-1 0,-1 1,-1 0,-3 1,-1 0,-2 1,-1 1,-1 4,0 1,1 5,0 1,1 10,0 1,1 5,0 1,1 0,28 1,0 1,1 0,2 -1,1 -1,0 0,5 12,0 0,-4 1,-1 0,-1 1,-1 18,0 1,1 18,0 1,1 18,0 0,-1 -17,0 -1,-1 -15,0 -1,-1 -28,0 -1,-1 0,-1 -1,-1 0,-18 1,-1 0,-7 1,-1 62,0 0,-1 -61,0 -1,-1 0,-1 -1,-1 0,-41 1,-1 2,0 1,1 0,-1 1,1 1,0 -5,-2 -1,-1 0,-29 1,-1 62,0 0,-1 -25,0 -1,-1 -7,0 -1,1 -26,0 -1,-1 -1,0 -1,-1 0,-72 -4,0 0,37 -1,1 0,14 1,1 0,97 -1,1 -7,0 -1,-1 -1,1 -6,0 -1,-1 -8,0 -1,-1 -4,0 -1,-1 0,-21 -1,-1 0,-6 1,-1 0,-1 -1,0 -1,-1 0,-3 -1,-1 0,-1 -1,-1 0,-2 -1,-1 0,-2 -1,-1 0,-1 -1,-1 -1,-1 0,-1 -1,-1 0,-2 1,-1 -2,0 -1,-1 -1,-1 0,-1 -1,-1 -1,-1 0,-1 -1,-1 -1,-1 0,-3 1,-1 1,-1 1,-1 0,-1 1,-1 1,-1 1,-1 3,-3 1,-1 1,-1 2,0 0,-2 1,-1 -1,-1 0,-4 1,-1 0,-12 1,-1 0,-27 -1,-1 0,-1 -1,0 -1,-1 -1,0 -1,-1 -29,0 -1,1 -18,0 -1,-1 -13,0 -1,-1 0,-1 -1,-1 0,-7 1,-1 0,-9 -1,0 0,5 -1,1 0,52 -1,1 0,1 -1,1 -65,0 0,1 64,0 1,1 1,0 1,1 0,23 1,-22 0,-1 1,-1 4,0 0,-1 -2,0 -1,-1 -1,0 -1,-1 0,-26 1,-1 10,0 1,1 2,0 1,-1 2,0 1,-1 0,-4 -1,-1 0,-4 1,-1 5,0 1,1 0,1 1,1 0,20 1,1 0,2 1,1 0,1 1,1 1,1 1,1 0,2 1,-1 2,0 1,1 1,0 1,1 1,1 1,0 1,1 2,0 1,1 1,0 1,1 1,0 1,1 1,1 0,2 4,0 1,1 1,1 1,0 1,1 1,1 1,1 1,0 1,1 1,1 1,1 0,3 -1,1 -1,0 0,2 -1,1 -1,1 -1,1 -1,1 -1,1 -1,1 -3,0 -1,-1 -1,0 -1,-1 -1,-1 0,-1 -2,0 -1,-1 -1,-1 -1,-1 0,-1 -2,0 -1,-1 -1,-1 -1,0 -1,-1 -1,-1 0,-2 -1,1 -2,0 -1,-1 -1,0 -1,-1 -1,0 -1,-1 0,-2 -1,1 -4,0 -1,-1 -2,0 -1,-1 -2,0 -1,-1 -3,0 -1,-1 -4,0 0,1 4,0 1,1 2,0 1,1 3,0 1,1 2,0 1,1 2,0 1,1 1,0 1,1 2,0 1,1 1,0 1,1 1,1 1,0 1,1 1,0 1,1 1,1 1,0 1,1 1,1 0,1 2,0 3,3 0,1 1,1 0,1 1,1 1,1 3,0 1,1 0,1 1,0 1,1 1,1 1,1 0,1 1,1 1,1 0,2 -1,1 2,0 1,1 1,1 0,1 1,1 0,2 -1,1 2,0 1,1 0,2 1,1 0,4 1,1 0,1 1,1 0,3 1,1 0,6 1,1 0,16 -1,1 0,1 -1,1 -1,0 -1,1 -1,0 2,1 0,0 1,1 0,3 -1,1 0,3 -1,1 0,2 -1,1 0,1 -1,1 -1,1 -2,0 0,2 -1,1 -1,0 -1,1 -1,1 0,1 -1,1 -1,1 -1,1 -1,1 -1,1 -1,1 -1,1 -1,1 -1,1 0,2 -1,1 -3,0 -1,1 -1,1 -1,1 0,2 -1,1 -1,1 23,-118 -1,0 -1,-1 -1,-1 -1,-1 0,-2 -1,-1 -4,0 -1,-1 -1,-1 0,-2 -1,-1 -1,1 -2,0 -1,-1 -1,0 -1,-1 -1,0 -1,-1 -1,0 -1,-1 -1,0 -1,-1 0,-2 -1,1 -2,0 -1,-1 -1,0 -1,-1 -1,-1 -1,-1 -1,-1 -1,-1 0,-2 -1,-1 0,-21 1,-1 1,-1 13,0 1,-1 22,0 1,1 1,0 1,1 1,1 0,26 -1,1 0,12 -1,1 0,3 -1,1 0,1 -1,1 -3,0 -23,118Z"/>
<path onmouseover="hoverPath(evt)" onmouseout="recoverPath(evt)" fill="rgb(240,238,226)" d="M  151,232l -1,1 -1,1 0,4 -1,1 -3,0 -6,6 -1,1 -1,1 0,1 -1,1 -1,1 -1,0 -1,1 -1,1 -1,0 0,3 46,0 0,-37 -10,0 -1,-1 -5,0 -1,-1 -2,0 -1,1 0,2 -1,1 0,3 -1,1 0,1 -1,1 0,1 -1,1 0,1 -2,2 0,1 24,18 0,2 -1,1 -2,0 -1,-1 0,-2 1,-1 2,0 1,1 -24,-18Z"/>
<path onmouseover="hoverPath(evt)" onmouseout="recoverPath(evt)" fill="rgb(242,242,232)" d="M  159,183l 0,1 -1,1 0,4 1,1 0,21 4,0 1,1 8,0 1,1 4,0 0,-30 -1,0 -1,-1 -15,0 -1,1Z"/>
<path onmouseover="hoverPath(evt)" onmouseout="recoverPath(evt)" fill="rgb(175,199,228)" d="M  178,43l -88,0 0,2 66,0 1,-1 20,0 1,-1 1,-1 0,3 1,1 0,8 5,0 0,-8 1,-1 0,-45 -6,0 0,41 -2,2Z"/>
<path onmouseover="hoverPath(evt)" onmouseout="recoverPath(evt)" fill="rgb(254,254,254)" d="M  196,9l -1,0 0,1 47,0 1,-1 12,0 0,-1 -32,0 -1,1Z"/>
<path onmouseover="hoverPath(evt)" onmouseout="recoverPath(evt)" fill="rgb(172,199,237)" d="M  195,43l 0,0 1,1 55,0 1,-1 3,0 0,-1 -59,0 -1,1Z"/>
<path onmouseover="hoverPath(evt)" onmouseout="recoverPath(evt)" fill="rgb(244,243,236)" d="M  196,65l 0,71 24,0 1,-1 9,0 1,1 24,0 0,-72 -35,0 -1,1Z"/>
<path onmouseover="hoverPath(evt)" onmouseout="recoverPath(evt)" fill="rgb(243,242,233)" d="M  194,143l 0,25 1,1 2,0 1,1 1,0 1,1 0,2 -1,1 -4,0 -1,-1 0,4 49,0 1,-1 11,0 0,-35 -61,0Z"/>
<path onmouseover="hoverPath(evt)" onmouseout="recoverPath(evt)" fill="rgb(243,242,233)" d="M  195,182l -1,0 0,30 1,1 0,1 60,0 0,-32 -8,0 -1,1 -35,0 -1,-1Z"/>
<path onmouseover="hoverPath(evt)" onmouseout="recoverPath(evt)" fill="rgb(242,241,231)" d="M  194,221l 0,5 -1,1 0,16 1,1 0,1 28,0 1,1 15,0 1,1 16,0 0,-28 -61,0Z"/>
<path onmouseover="hoverPath(evt)" onmouseout="recoverPath(evt)" fill="rgb(241,240,229)" d="M  197,1l 0,6 24,0 1,-1 33,0 0,-6 -57,0 -1,1Z"/>
<path onmouseover="hoverPath(evt)" onmouseout="recoverPath(evt)" fill="rgb(244,243,237)" d="M  196,47l 0,6 22,0 1,-1 36,0 0,-7 -2,0 -1,1 -55,0 -1,1Z"/>
</svg>