<svg width="256" height="256" xmlns="http://www.w3.org/2000/svg"><script> 
var tempColor;
function hoverPath(evt){
obj = evt.target;
tempColor = obj.getAttribute("fill");
obj.setAttribute("fill","red");
//alert(tempColor);
//obj.setAttribute("stroke","red");}
function recoverPath(evt){
obj = evt.target;
obj.setAttribute("fill", tempColor);
//obj.setAttribute("stroke", tempColor);
}</script><path onmouseover="hoverPath(evt)" onmouseout="recoverPath(evt)" fill="rgb(244,243,236)" d="M  0,174l 0,81 52,0 0,-1 -1,-1 0,-1 -1,-1 -1,-1 -1,-1 -1,-1 -1,-1 0,-1 -1,-1 -1,-1 -1,-1 -1,-1 -1,-1 -1,-1 0,-1 -1,-1 -1,-1 -1,-1 0,-1 -1,-1 -1,-1 0,-1 -1,-1 0,-1 -1,-1 0,-1 -1,-1 0,-1 -1,-1 0,-1 -1,-1 0,-2 -1,-1 0,-1 -1,-1 0,-1 -1,-1 0,-1 -1,-1 0,-2 -1,-1 0,-1 -1,-1 0,-1 -1,-1 0,-1 -1,-1 0,-1 -1,-1 0,-1 -1,-1 0,-2 -1,-1 0,-1 -1,-1 0,-1 -1,-1 0,-1 -1,-1 0,-1 -1,-1 0,-2 -1,-1 0,-1 -1,-1 0,-1 -1,-1 0,-1 -1,-1 0,-1 -1,-1 0,-1 -1,-1 0,-1 -1,-1 0,-1 -1,-1 0,-3 -1,1 -2,0 -1,1 -3,0Z"/>
<path onmouseover="hoverPath(evt)" onmouseout="recoverPath(evt)" fill="rgb(244,243,236)" d="M  108,60l 0,0 -1,1 0,4 -1,1 0,7 -1,1 0,5 -1,1 0,6 -1,1 0,7 -1,1 0,5 -1,1 0,6 -1,1 0,8 -1,1 0,16 -1,1 0,8 1,1 0,1 12,0 1,-1 2,0 1,-1 8,0 1,1 8,0 1,-1 14,0 1,-1 1,0 1,-1 0,-33 1,-1 3,0 1,1 0,30 -1,1 0,2 1,1 19,0 1,-1 27,0 1,-1 5,0 1,-1 0,-3 -1,-1 0,-10 -1,-1 0,-10 -1,-1 0,-10 -1,-1 0,-9 -1,-1 0,-7 -1,-1 0,-7 -1,-1 0,-9 -1,-1 0,-10 -1,-1 0,-10 -1,-1 0,-11 -1,-1 0,-12 -1,-1 0,-12 -1,-1 0,-5 -109,0 0,2 1,1 0,1 2,0 1,1 0,1 1,1 0,2 -1,1 1,1 0,2 1,1 0,1 1,1 0,1 1,1 0,1 2,0 1,1 0,2 -1,1 1,1 0,1 1,1 0,2 1,1 0,1 1,1 0,1 2,0 1,1 0,2 -1,1 0,1 2,0 1,1 0,2 -1,1 0,1 1,1 0,1 1,1 0,2 1,1 0,6 1,-1 2,0 1,1 0,2 -1,1 -1,1 -1,0 -1,1 0,1 11,-11 0,-2 1,-1 2,0 1,1 0,2 -1,1 -2,0 -1,-1 -11,11Z"/>
<path onmouseover="hoverPath(evt)" onmouseout="recoverPath(evt)" fill="rgb(245,244,237)" d="M  0,1l 0,25 2,0 0,-1 1,-1 2,0 0,-1 1,-1 2,0 0,-1 1,-1 2,0 0,-1 1,-1 2,0 0,-1 1,-1 2,0 0,-1 1,-1 2,0 0,-1 1,-1 2,0 0,-1 1,-1 2,0 0,-1 1,-1 2,0 0,-1 1,-1 2,0 0,-1 1,-1 2,0 0,-1 1,-1 2,0 0,-2 -37,0 -1,1Z"/>
<path onmouseover="hoverPath(evt)" onmouseout="recoverPath(evt)" fill="rgb(183,143,237)" d="M  0,31l 0,12 1,0 0,-1 1,-1 2,0 0,-1 1,-1 2,0 0,-1 1,-1 2,0 0,-1 1,-1 2,0 0,-1 1,-1 2,0 0,-1 1,-1 2,0 0,-1 1,-1 2,0 0,-1 1,-1 2,0 0,-1 1,-1 2,0 0,-1 1,-1 2,0 0,-1 1,-1 2,0 0,-1 1,-1 2,0 0,-1 1,-1 2,0 0,-1 1,-1 2,0 0,-1 1,-1 2,0 0,-1 1,-1 2,0 0,-1 1,-1 2,0 0,-1 1,-1 2,0 0,-1 1,-1 2,0 0,-1 1,-1 2,0 0,-1 1,-1 2,0 0,-1 -24,0 0,3 -1,1 -2,0 0,1 -1,1 -2,0 0,1 -1,1 -2,0 0,1 -1,1 -2,0 0,1 -1,1 -2,0 0,1 -1,1 -2,0 0,1 -1,1 -2,0 0,1 -1,1 -2,0 0,1 -1,1 -2,0 0,1 -1,1 -2,0 0,1 -1,1 -2,0 0,1 -1,1 -2,0 0,1 -1,1 -3,0Z"/>
<path onmouseover="hoverPath(evt)" onmouseout="recoverPath(evt)" fill="rgb(175,200,238)" d="M  0,149l 0,16 1,0 1,-1 2,0 1,1 1,-1 1,0 1,-1 -1,-1 0,-1 -1,-1 0,-4 1,-1 1,0 1,-1 11,0 1,-1 16,0 1,-1 17,0 1,-1 15,0 1,-1 16,0 1,-1 4,0 0,-2 -12,0 -1,1 -13,0 -1,1 -16,0 -1,1 -15,0 -1,1 -16,0 -1,1 -5,0 -1,-1 -6,0 -1,-1 -1,-1 -1,-1 -1,1Z"/>
<path onmouseover="hoverPath(evt)" onmouseout="recoverPath(evt)" fill="rgb(244,243,236)" d="M  2,45l -2,0 0,101 2,0 1,1 1,1 1,1 6,0 1,1 3,0 1,-1 16,0 1,-1 15,0 1,-1 16,0 1,-1 13,0 1,-1 13,0 0,-15 1,-1 0,-15 1,-1 0,-8 1,-1 0,-5 1,-1 0,-6 1,-1 0,-6 1,-1 0,-6 1,-1 0,-6 1,-1 0,-6 1,-1 0,-9 1,-1 0,-2 -1,-1 0,-2 -1,-1 0,-2 -2,0 -1,-1 0,-2 1,-1 0,-1 -1,-1 0,-1 -1,-1 0,-1 -1,-1 0,-2 -1,-1 0,-1 -1,-1 0,-1 -2,0 -1,-1 0,-2 1,-1 -1,-1 0,-1 -1,-1 0,-2 -1,-1 0,-1 -1,-1 0,-1 -1,-1 0,-1 -2,0 -1,-1 0,-2 1,-1 -1,-1 0,-2 -1,-1 0,-1 -1,-1 0,-1 -1,-1 0,-2 -15,0 0,2 -1,1 -2,0 0,1 -1,1 -2,0 0,1 -1,1 -2,0 0,1 -1,1 -2,0 0,1 -1,1 -2,0 0,1 -1,1 -2,0 0,1 -1,1 -2,0 0,1 -1,1 -2,0 0,1 -1,1 -2,0 0,1 -1,1 -2,0 0,1 -1,1 -2,0 0,1 -1,1 -2,0 0,1 -1,1 -2,0 0,1 -1,1 -2,0 0,1 -1,1 -2,0 0,1 -1,1 -2,0 0,1 -1,1 -2,0 0,1 -1,1 -2,0 0,1 -1,1 -2,0 0,1 -1,1 -2,0 0,1 -1,1 -2,0 0,1 -1,1Z"/>
<path onmouseover="hoverPath(evt)" onmouseout="recoverPath(evt)" fill="rgb(252,252,251)" d="M  3,169l 2,0 1,-1 4,0 0,-1 1,-1 3,0 1,1 0,-2 1,-1 2,0 1,-1 2,0 1,-1 29,0 1,1 1,0 1,1 1,1 0,3 1,1 0,-1 -1,-4 1,-1 0,0 1,-1 4,0 1,1 24,0 1,-1 3,0 1,1 0,-2 1,-1 1,-1 2,0 1,1 0,-3 1,-1 0,-12 -1,-1 0,-10 1,-1 0,-16 1,-1 0,-8 1,-1 0,-6 1,-1 0,-5 1,-1 0,-7 1,-1 0,-6 1,-1 0,-5 1,-1 0,-7 1,-1 0,-4 1,-1 0,-1 1,-1 1,-1 -1,0 -1,-1 0,-6 -1,-1 0,-2 -1,-1 0,-1 -1,-1 0,-3 1,-1 -2,0 -1,-1 0,-3 1,-1 -2,0 -1,-1 0,-1 -1,-1 0,-1 -1,-1 0,-2 -1,-1 0,-1 -1,-1 0,-2 1,-1 -2,0 -1,-1 0,-1 -1,-1 0,-1 -1,-1 0,-1 -1,-1 0,-2 -1,-1 0,-2 1,-1 -1,-1 0,-1 -2,0 -1,-1 0,-1 -1,-1 0,-3 -2,0 0,1 1,1 0,1 1,1 0,1 1,1 0,2 1,1 0,2 -1,1 2,0 1,1 0,1 1,1 0,1 1,1 0,1 1,1 0,2 1,1 0,1 1,1 0,2 -1,1 2,0 1,1 0,1 1,1 0,1 1,1 0,2 1,1 0,1 1,1 0,1 1,1 0,3 -1,1 2,0 1,1 0,2 1,1 0,2 1,1 0,4 -1,1 0,9 -1,1 0,6 -1,1 0,6 -1,1 0,6 -1,1 0,6 -1,1 0,6 -1,1 0,5 -1,1 0,8 -1,1 0,15 -1,1 0,18 1,1 0,5 -1,1 0,1 -1,1 -1,0 -1,1 -1,0 -1,1 -1,0 -1,1 -1,0 -1,1 -23,0 -1,-1 -40,0 -1,1 -3,0 -1,1 -1,0 -1,1 -2,0 -1,1 -3,0 -1,1 -1,0 -1,1 -2,0 -1,-1 -1,1 -2,0 0,3 2,0 1,-1Z"/>
<path onmouseover="hoverPath(evt)" onmouseout="recoverPath(evt)" fill="rgb(240,239,226)" d="M  9,157l -1,0 0,2 1,1 0,1 1,1 0,1 1,0 1,-1 2,0 1,-1 1,0 1,-1 3,0 1,-1 42,0 1,1 21,0 1,-1 1,0 1,-1 1,0 1,-1 1,0 1,-1 1,0 0,-1 1,-1 0,-3 -4,0 -1,1 -16,0 -1,1 -15,0 -1,1 -17,0 -1,1 -16,0 -1,1 -11,0 -1,1Z"/>
<path onmouseover="hoverPath(evt)" onmouseout="recoverPath(evt)" fill="rgb(171,198,238)" d="M  9,171l 0,1 1,1 0,1 1,1 0,1 1,1 0,1 1,1 0,1 1,1 0,1 1,1 0,1 1,1 0,1 1,1 0,2 1,1 0,1 1,1 0,1 1,1 0,1 1,1 0,1 1,1 0,2 1,1 0,1 1,1 0,1 1,1 0,1 1,1 0,1 1,1 0,1 1,1 0,2 1,1 0,1 1,1 0,1 1,1 0,1 1,1 0,2 1,1 0,1 1,1 0,1 1,1 0,1 1,1 0,1 1,1 0,1 1,1 1,1 0,1 1,1 1,1 1,1 0,1 1,1 1,1 4,4 0,1 1,1 1,1 1,1 1,1 1,1 0,1 1,1 0,2 4,0 0,-1 -1,-1 0,0 -1,-1 0,-1 -1,-1 -1,-1 -1,-1 -1,-1 0,-1 -1,-1 -1,-1 -1,-1 -1,-1 -1,-1 0,-1 -1,-1 -1,-1 -1,-1 -1,-1 0,-1 -1,-1 -1,-1 -1,-1 -1,-1 0,-1 -1,-1 0,-1 -1,-1 0,-1 -1,-1 0,-1 -1,-1 0,-1 -1,-1 0,-1 -1,-1 0,-2 -1,-1 0,-1 -1,-1 0,-1 -1,-1 0,-2 -1,-1 0,-1 -1,-1 0,-1 -1,-1 0,-2 -1,-1 0,-1 -1,-1 0,-1 -1,-1 0,-1 -1,-1 0,-2 -1,-1 0,-1 -1,-1 0,-1 -1,-1 0,-1 -1,-1 0,-1 -1,-1 0,-1 -1,-1 0,-1 -1,-1 0,-1 -1,-1 0,-1 -1,-1 0,-1 -1,-1 0,-1 -1,-1 0,-2 -1,-1 -1,0 -1,1Z"/>
<path onmouseover="hoverPath(evt)" onmouseout="recoverPath(evt)" fill="rgb(244,243,235)" d="M  15,169l -1,0 -1,-1 -1,0 1,1 0,0 1,1 0,2 1,1 0,1 1,1 0,1 1,1 0,1 1,1 0,1 1,1 0,1 1,1 0,1 1,1 0,1 1,1 0,1 1,1 0,1 1,1 0,1 1,1 0,2 1,1 0,1 1,1 0,1 1,1 0,1 1,1 0,2 1,1 0,1 1,1 0,1 1,1 0,2 1,1 0,1 1,1 0,1 1,1 0,2 1,1 0,1 1,1 0,1 1,1 0,1 1,1 0,1 1,1 0,1 1,1 0,1 1,1 1,1 1,1 1,1 0,1 1,1 1,1 1,1 1,1 0,1 2,2 1,1 1,1 1,1 0,1 1,1 1,1 1,1 1,1 0,1 1,1 1,1 0,2 28,0 0,-1 -2,0 -1,-1 -1,1 -5,0 -1,-1 -1,-1 0,-2 1,-1 0,-2 1,-1 0,-3 1,-1 2,0 0,-2 1,-1 0,-2 1,-1 -4,0 -1,-1 0,-5 1,-1 0,-1 1,-1 0,-3 1,-1 1,-1 2,0 0,-1 -1,-1 0,-3 1,-1 0,-1 1,-1 0,-1 1,-1 0,-2 1,-1 0,-2 1,-1 0,-5 -1,-1 -1,-1 -1,1 -2,0 -1,-1 -1,-1 -2,0 -1,-1 0,-1 -1,-1 -1,-1 -1,0 -1,-1 -1,-1 -1,-1 -1,0 -1,-1 -1,-1 0,-2 -1,-1 -1,1 -2,0 -1,-1 -1,0 -1,-1 0,-2 -1,-1 -1,-1 -2,0 -1,-1 0,-1 -1,-1 0,-3 1,-1 -2,0 -1,-1 0,-2 -1,-1 -1,-1 0,-3 -1,-1 -1,0 -1,-1 -27,0 -1,1 -2,0 -1,1 -2,0 0,2 -1,1Z"/>
<path onmouseover="hoverPath(evt)" onmouseout="recoverPath(evt)" fill="rgb(243,242,234)" d="M  58,167l 0,3 -1,1 0,1 2,0 1,1 0,2 -1,1 0,1 1,1 0,1 2,0 1,1 1,1 1,1 1,0 1,1 1,0 1,1 1,0 1,1 1,1 0,2 1,1 1,0 1,1 1,1 1,1 1,0 1,1 1,1 1,1 0,1 2,0 2,2 1,-1 2,0 1,1 1,1 1,1 0,7 -1,1 0,2 -1,1 0,1 1,1 0,2 -1,1 -2,0 0,1 -1,1 0,1 1,1 0,3 -1,1 -2,0 -1,1 0,3 -1,1 0,1 -1,1 0,3 4,0 1,-1 0,-1 1,-1 1,-1 1,-1 0,-1 2,-2 0,-1 1,-1 1,-1 0,-1 1,-1 0,-1 1,-1 1,-1 0,-1 1,-1 0,-1 1,-1 1,-1 0,-1 1,-1 1,-1 0,-1 1,-1 1,-1 0,-1 1,-1 1,-1 0,-1 1,-1 0,-1 1,-1 0,-1 1,-1 0,-1 1,-1 0,-4 1,-1 0,-3 -1,-1 0,-8 -1,-1 0,-5 -1,-1 0,-7 1,-1 0,-2 1,-1 0,-2 1,-1 0,-2 1,-1 0,-2 1,-1 0,-1 -1,-1 -3,0 -1,1 -8,0 0,6 -1,1 0,3 -1,1 -2,0 -1,-1 -1,1 0,2 -1,1 -2,0 -1,-1 -1,0 -1,1 -26,0 -1,-1 -2,0 -1,1 0,1 1,1Z"/>
<path onmouseover="hoverPath(evt)" onmouseout="recoverPath(evt)" fill="rgb(171,198,238)" d="M  100,146l -1,0 0,3 7,0 1,-1 5,0 1,1 1,1 0,3 -1,1 0,2 -1,1 0,2 -1,1 0,2 -1,1 0,2 -1,1 0,5 1,1 0,5 1,1 0,8 1,1 0,5 -1,1 0,4 -1,1 0,1 -1,1 0,1 -1,1 0,1 -1,1 0,1 -1,1 -1,1 0,1 -1,1 -1,1 0,1 -2,2 0,1 -2,2 0,1 -1,1 0,1 -2,2 0,1 -1,1 0,1 -1,1 -1,1 0,1 -1,1 -1,1 0,1 -1,1 -2,2 0,1 -1,1 -1,1 0,1 -1,1 0,2 -1,1 0,2 -1,1 -2,0 0,3 -1,1 0,2 -1,1 1,1 3,0 1,-1 2,0 1,1 2,0 1,1 0,2 6,0 0,-1 -1,0 -1,-1 -1,-1 -1,0 -1,-1 -1,-1 -1,0 -1,-1 -1,-1 0,-5 1,-1 0,-1 2,-2 0,-1 2,-2 1,-1 0,-1 1,-1 1,-1 1,-1 0,-1 1,-1 1,-1 0,-1 1,-1 2,-2 0,-1 2,-2 1,-1 0,-1 1,-1 1,-1 1,-1 0,-1 1,-1 1,-1 1,-1 0,-1 1,-1 1,-1 1,-1 0,-1 1,-1 1,-1 0,-1 1,-1 0,-1 1,-1 0,-2 1,-1 0,-3 1,-1 0,-16 1,-1 0,-25 1,-1 0,-1 1,-1 1,-1 1,0 1,-1 30,0 1,-1 9,0 1,-1 7,0 1,-1 8,0 1,-1 5,0 0,-1 -12,0 -1,1 -21,0 -1,-1 -1,-1 0,0 -1,1 -1,1 -1,0 -1,1 -14,0 -1,1 -10,0 -1,-1 -6,0 -1,1 -2,0 -1,1 -12,0 52,-9 1,-1 0,-28 -1,0 0,29 -52,9Z"/>
<path onmouseover="hoverPath(evt)" onmouseout="recoverPath(evt)" fill="rgb(244,243,237)" d="M  123,151l 0,1 -1,1 0,25 -1,1 0,16 -1,1 0,3 -1,1 0,2 -1,1 0,1 -1,1 0,1 -1,1 -1,1 0,1 -1,1 -1,1 -1,1 0,1 -1,1 -1,1 -1,1 0,1 -1,1 -2,2 0,1 -2,2 -1,1 0,1 -1,1 -1,1 -1,1 0,1 -1,1 -1,1 0,1 -1,1 -1,1 -1,1 0,1 -1,1 -1,1 -1,1 0,1 -1,1 -1,1 0,1 -1,1 0,3 1,1 1,0 1,1 1,1 1,0 1,1 1,1 1,0 1,1 0,2 122,0 0,-2 -1,-1 0,-9 -1,-1 0,-10 -1,-1 0,-11 -1,-1 0,-11 -1,-1 0,-10 -1,-1 0,-10 -1,-1 0,-10 -1,-1 0,-11 -1,-1 0,-9 -1,-1 0,-5 -1,-1 0,-2 -16,0 -1,1 -8,0 -1,1 -8,0 -1,1 -7,0 -1,1 -9,0 -1,1 -30,0 -1,1 -1,0 -1,1Z"/>
<path onmouseover="hoverPath(evt)" onmouseout="recoverPath(evt)" fill="rgb(171,198,238)" d="M  198,1l 0,3 1,1 0,12 1,1 0,12 1,1 0,11 1,1 0,10 1,1 0,10 1,1 0,9 1,1 0,7 1,1 0,7 1,1 0,9 1,1 0,10 1,1 0,10 1,1 0,10 1,1 0,5 -1,1 -1,1 -5,0 -1,1 -13,0 0,1 1,0 13,-1 6,0 1,1 0,2 1,1 0,5 1,1 0,9 1,1 0,11 1,1 0,10 1,1 0,10 1,1 0,10 1,1 0,11 1,1 0,11 1,1 0,10 1,1 0,9 1,1 0,3 12,0 0,-1 -1,-1 0,-10 -1,-1 0,-10 -1,-1 0,-9 -1,-1 0,-10 -1,-1 0,-10 -1,-1 0,-10 -1,-1 0,-11 -1,-1 0,-10 -1,-1 0,-10 -1,-1 0,-10 -1,-1 0,-10 -1,-1 0,-9 -1,-1 0,-10 -1,-1 0,-10 -1,-1 0,-9 -1,-1 0,-10 -1,-1 0,-10 -1,-1 0,-3 1,-1 1,-1 6,0 1,-1 12,0 1,-1 13,0 1,-1 3,0 0,-1 -10,0 -1,1 -19,0 -1,1 -6,0 -1,-1 -1,-1 0,-1 -1,-1 0,-10 -1,-1 0,-10 -1,-1 0,-13 -1,-1 0,-10 -1,-1 0,-10 -12,0 -1,1Z"/>
<path onmouseover="hoverPath(evt)" onmouseout="recoverPath(evt)" fill="rgb(244,243,237)" d="M  213,1l 0,8 1,1 0,10 1,1 0,13 1,1 0,10 1,1 0,10 1,1 0,1 1,1 4,0 1,-1 19,0 1,-1 11,0 0,-57 -41,0 -1,1Z"/>
<path onmouseover="hoverPath(evt)" onmouseout="recoverPath(evt)" fill="rgb(244,243,236)" d="M  219,65l 0,0 -1,1 0,1 1,1 0,10 1,1 0,10 1,1 0,9 1,1 0,10 1,1 0,10 1,1 0,9 1,1 0,10 1,1 0,10 1,1 0,10 1,1 0,10 1,1 0,11 1,1 0,10 1,1 0,10 1,1 0,10 1,1 0,9 1,1 0,10 1,1 0,10 1,1 0,2 19,0 0,-193 -2,0 -1,1 -13,0 -1,1 -12,0 -1,1Z"/>
</svg>