<svg width="256" height="256" xmlns="http://www.w3.org/2000/svg"><script> 
var tempColor;
function hoverPath(evt){
obj = evt.target;
tempColor = obj.getAttribute("fill");
obj.setAttribute("fill","red");
//alert(tempColor);
//obj.setAttribute("stroke","red");}
function recoverPath(evt){
obj = evt.target;
obj.setAttribute("fill", tempColor);
//obj.setAttribute("stroke", tempColor);
}</script><path onmouseover="hoverPath(evt)" onmouseout="recoverPath(evt)" fill="rgb(244,243,236)" d="M  146,220l 0,3 1,1 0,1 1,1 0,2 1,1 0,2 1,1 0,2 1,1 0,1 1,1 0,11 -1,1 0,2 -1,1 0,1 -1,1 0,1 26,0 0,-1 -1,-1 0,-2 -2,0 -1,-1 0,-3 -1,-1 0,-3 -1,-1 0,-3 1,-1 1,-1 2,0 1,1 2,0 0,-2 1,-1 3,0 1,1 2,0 0,-2 1,-1 4,0 1,1 2,0 0,-2 1,-1 2,0 1,-1 3,0 1,-1 1,0 1,-1 5,0 0,-6 -1,-1 -1,0 -1,-1 -1,-1 0,-1 -1,-1 0,-5 -1,-1 0,-1 -1,-1 -1,-1 0,-3 1,-1 0,-1 1,-1 1,-1 0,-1 -1,-1 0,0 -1,-1 -1,0 -1,1 -1,0 0,1 -1,1 -1,1 -1,1 -1,1 -1,1 -1,0 -1,1 -1,0 -1,1 -2,0 -1,1 -3,0 -1,1 -5,0 -1,1 -2,0 -1,1 -2,0 -1,1 -2,0 -1,1 -2,0 -1,1 -4,0 -1,1 -1,1 -1,0 -1,1 -2,0 -1,1 -2,0 -1,1 -1,0 -1,1Z"/>
<path onmouseover="hoverPath(evt)" onmouseout="recoverPath(evt)" fill="rgb(242,242,234)" d="M  0,1l 0,34 38,0 1,-1 10,0 1,-1 11,0 1,-1 10,0 1,-1 11,0 1,-1 1,0 0,-3 1,-1 0,-6 -1,-1 0,-7 -1,-1 0,-4 -1,-1 0,-6 -83,0 -1,1Z"/>
<path onmouseover="hoverPath(evt)" onmouseout="recoverPath(evt)" fill="rgb(253,253,253)" d="M  1,37l -1,0 0,1 14,0 1,1 1,1 0,3 1,-4 1,0 1,-1 7,0 1,1 2,0 1,1 0,1 1,1 0,-3 1,-1 8,0 1,-1 10,0 1,-1 10,0 1,-1 11,0 1,-1 13,0 0,-2 -2,0 -1,1 -11,0 -1,1 -10,0 -1,1 -11,0 -1,1 -10,0 -1,1Z"/>
<path onmouseover="hoverPath(evt)" onmouseout="recoverPath(evt)" fill="rgb(240,240,232)" d="M  24,110l -1,-1 0,-4 -1,-1 0,-2 -1,0 -1,-1 0,-2 1,-1 7,0 0,-4 1,-1 2,0 1,-1 6,0 1,1 0,2 3,0 1,1 0,5 -1,1 -2,0 0,1 -1,1 -5,0 0,9 -1,1 -5,0 -1,-1 0,-3 -3,0 2,16 4,0 1,-1 8,0 1,-1 7,0 1,-1 7,0 1,-1 6,0 1,-1 7,0 1,-1 6,0 1,-1 7,0 1,-1 5,0 1,-1 5,0 0,-6 -1,-1 0,-9 -1,-1 0,-6 -1,0 -1,-1 0,-3 1,-1 0,-6 -1,-1 0,-6 -1,0 -1,-1 0,-2 -1,0 -1,-1 -1,-1 0,-8 1,-1 0,-8 -1,-1 0,-3 1,-1 1,0 0,-6 -1,-1 0,-6 -13,0 -1,1 -11,0 -1,1 -10,0 -1,1 -10,0 -1,1 -8,0 0,7 -1,1 -2,0 -1,-1 0,-4 -1,-1 0,-1 -2,0 -1,-1 -5,0 -1,1 -1,0 0,3 -1,1 -2,0 -1,-1 0,-3 -1,-1 -13,0 0,89 2,0 1,-1 10,0 1,-1 8,0 1,-1 3,0 -2,-16Z"/>
<path onmouseover="hoverPath(evt)" onmouseout="recoverPath(evt)" fill="rgb(236,238,234)" d="M  18,177l 0,24 4,0 1,1 0,7 1,1 13,0 1,-1 0,-29 1,-1 1,0 0,-1 -2,0 -1,-1Z"/>
<path onmouseover="hoverPath(evt)" onmouseout="recoverPath(evt)" fill="rgb(243,241,234)" d="M  104,39l 0,9 1,1 0,13 1,1 0,8 -1,1 7,0 0,-9 1,-1 0,-1 1,-1 1,-1 1,-1 1,0 1,-1 3,0 1,-1 3,0 1,-1 2,0 1,-1 1,0 1,-1 1,-1 1,-1 0,-2 1,-1 0,-5 1,-1 0,-8 1,-1 0,-5 -13,0 -1,-1 -3,0 -1,-1 0,-2 -9,0 -1,1 -5,0 -1,-1 0,-6 -1,0 0,8 1,0 1,1 0,11 1,1Z"/>
<path onmouseover="hoverPath(evt)" onmouseout="recoverPath(evt)" fill="rgb(170,198,237)" d="M  116,61l -1,1 0,1 -1,1 0,7 4,0 0,-1 1,-1 0,-4 1,-1 1,-1 1,0 1,-1 3,0 1,-1 2,0 1,-1 2,0 1,-1 1,0 2,-2 1,0 1,-1 0,-2 1,-1 0,-3 1,-1 0,-6 1,-1 0,-16 -3,0 0,8 -1,1 0,8 -1,1 0,5 -1,1 0,2 -1,1 -2,2 -1,1 -1,0 -1,1 -2,0 -1,1 -3,0 -1,1 -3,0 -1,1 -1,0 -1,1Z"/>
<path onmouseover="hoverPath(evt)" onmouseout="recoverPath(evt)" fill="rgb(243,242,234)" d="M  121,77l 0,9 1,1 0,7 1,1 0,2 1,1 1,1 1,1 1,1 2,0 1,1 1,0 1,-1 1,0 0,-1 1,-1 0,-3 1,-1 0,-6 -1,-1 0,-2 1,-1 0,-1 1,-1 2,0 1,1 0,8 1,0 1,1 18,0 0,-3 -1,-1 0,-1 -1,-1 0,-3 1,-1 2,0 1,1 1,1 0,1 1,1 0,4 1,1 0,3 2,0 1,-1 3,0 1,-1 7,0 1,1 2,0 1,1 1,1 1,1 1,1 0,3 1,1 0,7 1,1 2,0 1,-1 1,0 1,-1 3,-3 1,-1 2,0 1,-1 2,0 1,-1 6,0 1,1 1,0 1,1 1,0 1,1 0,1 1,1 1,1 1,1 1,1 1,1 2,0 1,-1 2,0 1,-1 2,0 1,-1 1,0 1,-1 2,0 1,-1 6,0 1,1 2,0 1,1 13,0 0,-48 -12,0 -1,-1 -8,0 -1,-1 -22,0 -1,-1 -3,0 -1,-1 -1,0 -1,-1 -1,0 -1,-1 -1,1 -2,0 -1,-1 -1,0 -1,-1 -1,-1 -1,-1 -1,-1 -1,0 -1,-1 -1,-1 -1,0 -1,1 0,1 -1,1 -2,0 -1,-1 0,-2 1,-1 0,-2 -1,0 -1,-1 0,-1 -1,-1 -1,0 -1,-1 -1,0 -1,1 -5,0 0,2 1,1 0,2 -1,1 -2,0 0,3 -1,1 -4,0 -1,-1 0,-3 -1,0 -1,-1 -1,0 -1,-1 0,-2 1,-1 5,0 0,-1 1,-1 0,-1 1,-1 0,-4 -1,-1 0,-1 -1,0 -1,-1 -1,0 -1,-1 -1,0 -1,-1 -2,0 -1,-1 -1,0 -1,-1 -1,0 -1,-1 -3,0 -1,-1 -8,0 0,17 -1,1 0,6 -1,1 0,3 -1,1 0,2 -1,1 -1,1 -1,0 -1,1 -1,1 -1,0 -1,1 -2,0 -1,1 -2,0 -1,1 -3,0 -1,1 -1,0 -1,1 0,4 -1,1 0,1 -1,1 -5,0 -1,1 -7,0 0,1 1,1 0,7 1,1 0,3 1,1 1,0 1,1 0,2 1,1 0,3 1,1 0,4 -1,1 -3,3 0,10 -1,1 0,2 17,0 1,-1 9,0 0,-2 -1,-1 0,-4 -1,-1 0,-1 -10,0 -1,-1 -1,0 -1,-1 -1,0 -1,-1 -1,-1 -1,-1 0,-2 -1,-1 -1,-1 0,-5 -1,-1 0,-16 1,-1 6,0 1,1Z"/>
<path onmouseover="hoverPath(evt)" onmouseout="recoverPath(evt)" fill="rgb(170,198,237)" d="M  127,169l -1,1 -1,1 0,1 -1,1 0,2 -1,1 0,3 -1,1 0,3 -1,1 0,2 1,1 0,22 1,1 0,1 1,1 1,1 1,1 1,1 1,1 1,1 1,0 1,1 2,0 1,1 1,0 1,1 1,0 1,1 1,1 1,1 0,1 1,1 0,1 1,1 0,2 1,1 0,2 1,1 0,3 1,1 0,3 1,1 0,6 -1,1 0,3 -1,1 0,3 3,0 0,-2 1,-1 0,-1 1,-1 0,-2 1,-1 0,-9 -1,-1 0,-1 -1,-1 0,-2 -1,-1 0,-2 -1,-1 0,-2 -1,-1 0,-1 -1,-1 0,-6 1,-1 2,0 1,-1 2,0 1,-1 2,0 1,-1 1,0 1,-1 1,-1 4,0 1,-1 2,0 1,-1 2,0 1,-1 2,0 1,-1 2,0 1,-1 5,0 1,-1 3,0 1,-1 2,0 1,-1 1,0 1,-1 1,0 1,-1 1,-1 1,-1 1,-1 0,-1 1,-1 1,0 1,-1 3,0 0,-1 -6,0 -1,1 0,0 -1,1 0,1 -1,1 -1,1 0,1 -1,1 -1,0 -1,1 -1,1 2,-1 2,-1 -63,-33 74,28 1,1 1,1 0,3 -1,1 -1,1 0,1 -1,1 0,1 1,1 1,1 0,-3 1,-1 1,-1 0,-2 -3,-5 -74,-28 53,36 -1,0 -1,1 -4,0 -1,1 -2,0 -1,1 -2,0 -1,1 -2,0 -1,1 -2,0 -1,1 -2,0 20,-5 1,-1 -53,-36 22,46 -3,0 -1,1 -8,0 -1,-1 -2,0 -1,-1 -1,0 -1,-1 -1,-1 -1,-1 -1,-1 0,-1 -1,-1 0,-1 -1,-1 0,-24 1,-1 0,-2 1,-1 0,-2 1,-1 0,-1 1,-1 1,-1 1,-1 3,0 1,-1 2,0 1,-1 2,0 1,-1 3,-3 1,-1 0,-1 1,-1 0,-3 1,-1 0,-13 -1,-1 0,-4 -1,-1 0,-4 -1,-1 0,-3 -1,-1 0,-2 -1,-1 0,-3 -1,-1 0,-1 -4,0 1,1 0,2 1,1 0,3 1,1 0,3 1,1 0,2 1,1 0,2 1,1 0,4 1,1 0,8 -1,1 0,3 -1,1 0,2 -1,1 0,1 -1,1 -1,1 -1,1 -1,1 -1,0 -1,1 -1,0 -1,1 -6,0 21,47 -22,-46Z"/>
<path onmouseover="hoverPath(evt)" onmouseout="recoverPath(evt)" fill="rgb(242,241,231)" d="M  140,101l 0,0 -1,1 0,2 1,1 0,3 1,1 0,7 12,0 0,-9 1,-1 0,-2 1,-1 1,0 0,-2 -7,0 -1,-1 -7,0 -1,1Z"/>
<path onmouseover="hoverPath(evt)" onmouseout="recoverPath(evt)" fill="rgb(243,242,234)" d="M  189,0l -2,0 0,2 1,1 0,17 1,1 0,5 2,0 1,-1 16,0 1,1 1,0 1,1 1,0 1,1 40,0 1,1 1,0 0,-29Z"/>
<path onmouseover="hoverPath(evt)" onmouseout="recoverPath(evt)" fill="rgb(241,240,228)" d="M  0,174l 0,81 13,0 0,-2 -1,-1 0,-7 -1,-1 0,-6 -1,-1 0,-6 -1,-1 0,-6 -1,-1 0,-6 -1,-1 0,-7 -1,-1 0,-7 -1,-1 0,-9 -1,-1 0,-8 -1,-1 0,-9 -1,-1 0,-7 -1,-1 0,-10 -1,0Z"/>
<path onmouseover="hoverPath(evt)" onmouseout="recoverPath(evt)" fill="rgb(252,252,249)" d="M  2,138l -2,0 0,13 2,0 1,1 0,10 1,1 0,7 1,1 0,9 1,1 0,8 1,1 0,9 1,1 0,7 1,1 0,7 1,1 0,6 1,1 0,6 1,1 0,6 1,1 0,6 1,1 0,7 1,1 0,3 1,0 0,-4 -1,-1 0,-6 -1,-1 0,-7 -1,-1 0,-6 -1,-1 0,-6 -1,-1 0,-6 -1,-1 0,-7 -1,-1 0,-7 -1,-1 0,-9 -1,-1 0,-8 -1,-1 0,-9 -1,-1 0,-8 -1,-1 0,-8 -1,-1 0,-12 -1,-1Z"/>
<path onmouseover="hoverPath(evt)" onmouseout="recoverPath(evt)" fill="rgb(241,240,231)" d="M  37,246l -10,0 -1,1 -3,0 -1,-1 -1,0 -1,-1 0,-3 1,-1 5,0 0,-1 1,-1 0,-2 -1,-1 0,-12 1,-1 10,0 1,1 1,1 0,20 -1,1 -1,0 -20,-3 0,6 1,1 0,5 81,0 0,-26 1,-1 0,-10 -1,0 -1,-1 0,-11 1,-1 0,0 -1,-1 0,22 -1,1 -2,0 -1,-1 0,-1 -1,0 -1,-1 0,-3 1,-1 1,0 0,-16 -1,0 -1,-1 -4,0 -1,-1 0,-2 -18,0 -1,-1 0,-21 -2,0 -1,-1 0,-20 1,-1 1,0 1,-1 0,-9 -1,0 -1,-1 -1,-1 0,-6 -1,-1 0,-5 -7,0 -1,1 -7,0 -1,1 -8,0 -1,1 -8,0 -1,1 -7,0 -1,1 -8,0 -1,1 -7,0 -1,-1 0,13 1,1 0,8 1,1 0,8 1,1 0,9 1,1 0,8 1,1 0,9 1,1 0,7 1,1 0,7 1,1 0,6 1,1 0,6 1,1 0,6 1,1 0,7 1,1 20,3 -21,-44 0,-26 1,-1 21,0 1,1 2,0 1,1 0,3 -1,1 -1,0 0,29 -1,1 -1,1 -15,0 -1,-1 -1,-1 0,-7 -4,0 -1,-1 21,44Z"/>
<path onmouseover="hoverPath(evt)" onmouseout="recoverPath(evt)" fill="rgb(248,235,141)" d="M  92,46l 0,4 -1,1 -1,0 0,1 1,1 0,10 -1,1 0,6 1,1 1,0 1,1 0,2 1,0 1,1 0,6 1,1 0,8 -1,1 0,1 1,0 1,1 0,6 1,1 0,9 1,1 0,8 -1,1 -5,0 -1,1 -5,0 -1,1 -7,0 -1,1 -6,0 -1,1 -7,0 -1,1 -6,0 -1,1 -7,0 -1,1 -7,0 -1,1 -8,0 -1,1 -7,0 -1,1 -8,0 -1,1 -10,0 -1,1 -3,0 0,5 3,0 1,-1 2,0 1,1 5,0 1,-1 8,0 1,-1 7,0 1,-1 8,0 1,-1 8,0 1,-1 7,0 1,-1 9,0 1,1 0,-1 1,-1 2,0 1,-1 7,0 1,-1 6,0 1,-1 2,0 1,1 0,4 7,0 1,1 2,0 1,1 0,15 1,1 0,15 1,1 0,15 1,1 0,18 -1,1 -1,0 -1,1 -7,0 2,1 1,0 1,1 0,18 -1,1 -1,0 0,1 1,0 1,1 0,-22 4,0 0,1 1,1 0,2 -1,1 0,9 1,0 1,1 0,12 -1,1 0,25 17,0 0,-1 -1,-1 0,-44 -1,-1 0,-3 -2,0 -1,-1 0,-7 1,-1 0,-8 -1,-1 0,-25 -1,-1 0,-3 -1,0 -1,-1 0,-14 1,-1 0,-2 -1,0 -1,-1 0,-9 1,-1 0,-7 -2,0 -1,-1 0,-2 -1,-1 0,-4 1,-1 0,-10 1,-1 1,-1 1,-1 1,-1 0,-2 -1,-1 0,-3 -1,-1 0,-2 -1,0 -1,-1 -1,-1 0,-3 -1,-1 0,-7 -1,-1 0,-2 -1,-1 0,-2 1,-1 0,-6 -1,-1 0,-13 -1,-1 0,-9 -1,-1 0,-11 -1,0 -1,-1 0,-13 -1,-1 0,-2 1,-1 0,-1 -1,-1 0,-2 -1,-1 0,-3 1,-1 1,0 0,-1 -13,0 0,5 1,1 0,4 1,1 0,7 1,1 0,8 -1,1 0,2 1,0 1,1 0,3 1,1 0,6 1,1Z"/>
<path onmouseover="hoverPath(evt)" onmouseout="recoverPath(evt)" fill="rgb(225,227,224)" d="M  104,17l 0,6 3,0 1,-1 11,0 1,1 0,2 3,0 1,1 12,0 -11,-1 0,-3 1,-1 8,0 1,-1 4,0 0,-1 -1,-1 0,-1 -1,-1 0,-1 -1,-1 0,-2 -1,-1 0,-1 -1,-1 0,-2 -1,-1 0,-2 -1,-1 0,-3 -31,0 0,2 -1,1 -1,0 0,1 1,1 0,2 1,1 0,3 -1,1 1,1 0,3 2,0 1,1Z"/>
<path onmouseover="hoverPath(evt)" onmouseout="recoverPath(evt)" fill="rgb(172,198,235)" d="M  115,78l 0,13 1,1 0,5 1,1 1,1 0,2 1,1 1,1 1,0 1,1 1,0 1,1 10,0 1,1 0,1 1,1 0,4 1,1 0,3 2,0 0,-6 -1,-1 0,-3 -1,-1 0,-4 1,-1 0,-1 1,-1 -2,0 -1,-1 0,3 -1,1 0,1 -1,1 -1,0 -1,1 -3,0 -1,-1 -2,0 -1,-1 -1,-1 -1,-1 -1,-1 -1,-1 0,-2 -1,-1 0,-7 -1,-1 0,-10 -3,0 -1,1 34,20 0,0 1,1 7,0 1,1 0,2 1,-1 0,-3 -10,0 -34,-20Z"/>
<path onmouseover="hoverPath(evt)" onmouseout="recoverPath(evt)" fill="rgb(243,242,235)" d="M  140,136l 0,-1 -1,-1 0,-3 -1,-1 0,-3 -1,-1 0,-2 -1,-1 0,-2 -7,0 -1,1 -16,0 0,8 -1,1 0,7 1,0 1,1 0,4 -1,1 0,12 1,0 1,1 0,3 1,1 0,25 1,1 0,10 -1,1 0,5 2,0 1,1 0,3 1,1 0,44 1,1 0,2 22,0 0,-4 1,-1 0,-3 1,-1 0,-4 -1,-1 0,-3 -1,-1 0,-3 -1,-1 0,-2 -1,-1 0,-2 -1,-1 0,-1 -1,-1 0,-1 -1,-1 -1,-1 -1,0 -1,-1 -1,0 -1,-1 -2,0 -1,-1 -1,0 -1,-1 -1,-1 -1,-1 -1,-1 -1,-1 -1,-1 -1,-1 0,-1 -1,-1 0,-22 -1,-1 0,-4 1,-1 0,-3 1,-1 0,-3 1,-1 0,-2 1,-1 0,-1 1,-1 1,-1 1,-1 1,-1 6,0 1,-1 1,0 1,-1 1,0 1,-1 1,-1 1,-1 0,-1 1,-1 0,-2 1,-1 0,-3 1,-1 0,-6 -1,-1 0,-4 -1,-1 0,-2 -1,-1Z"/>
<path onmouseover="hoverPath(evt)" onmouseout="recoverPath(evt)" fill="rgb(244,243,236)" d="M  132,174l -1,1 0,1 -1,1 0,2 -1,1 0,2 -1,1 0,22 1,1 0,1 1,1 0,1 1,1 1,1 1,1 1,0 1,1 2,0 1,1 6,0 1,-1 3,0 1,-1 2,0 1,-1 2,0 1,-1 2,0 1,-1 2,0 1,-1 2,0 1,-1 2,0 1,-1 2,0 1,-1 2,0 1,-1 4,0 1,-1 6,0 1,-1 1,-1 1,-1 1,0 0,-1 1,-1 1,-1 0,-1 1,-1 1,-1 1,-1 8,0 1,1 0,-3 -1,-1 0,-4 -1,-1 0,-4 -1,-1 0,-5 -1,-1 0,-4 -1,-1 0,-5 -1,-1 0,-5 -1,-1 0,-4 -1,-1 0,-3 -1,-1 0,-4 -1,-1 0,-5 1,-1 0,-4 -1,-1 0,-9 -2,0 -1,-1 -1,0 -1,-1 -4,0 -1,1 -30,0 -1,-1 -7,0 0,1 1,1 0,3 1,1 0,2 1,1 0,3 1,1 0,4 1,1 0,4 1,1 0,15 -1,1 0,3 -1,1 0,1 -1,1 -3,3 -1,1 -1,1 -2,0 -1,1 -2,0 -1,1 -3,0 -1,1Z"/>
<path onmouseover="hoverPath(evt)" onmouseout="recoverPath(evt)" fill="rgb(252,252,250)" d="M  137,94l 0,1 1,1 22,0 1,1 0,5 -1,1 -1,1 -1,0 -1,1 -1,0 0,2 -1,1 0,9 -1,1 -27,0 -1,1 -17,0 0,1 18,0 1,-1 9,0 1,1 4,0 1,-1 9,0 1,1 28,0 1,-1 6,0 1,1 1,0 1,1 0,-1 -2,-1 -23,0 -1,-1 -1,0 -1,-1 0,-6 1,-1 0,-1 1,-1 1,-1 0,-3 -1,-1 -1,0 -1,-1 0,-5 -1,-1 0,-3 -1,-1 0,-4 -1,-1 0,-1 -1,-1 0,1 1,2 1,5 0,1 -1,1 -20,0 -1,-1 -2,0 0,-9 -1,2Z"/>
<path onmouseover="hoverPath(evt)" onmouseout="recoverPath(evt)" fill="rgb(241,239,229)" d="M  155,0l -21,0 0,2 1,1 0,2 1,1 0,2 1,1 0,1 1,1 0,2 1,1 0,1 1,1 0,1 1,1 0,3 11,0 1,-1 0,-5 1,-1 2,0 1,1 0,1 1,1 2,0 1,1 2,0 1,1 0,2 -1,1 -5,0 1,1 0,0 1,1 2,0 1,1 2,0 1,1 1,-1 2,0 1,1 0,2 1,0 1,1 2,0 1,-1 2,0 1,1 4,0 1,-1 1,0 0,-4 -1,0 -1,-1 -1,-1 0,-15 -1,-1 0,-1 -1,0 -1,-1 -2,0 -1,-1 -4,0 -1,-1 0,-2Z"/>
<path onmouseover="hoverPath(evt)" onmouseout="recoverPath(evt)" fill="rgb(243,242,234)" d="M  174,240l -1,0 -1,-1 -1,1 0,1 1,1 0,3 1,1 0,3 2,0 1,1 0,2 1,1 0,2 78,0 0,-3 -3,0 -1,1 -5,0 -1,-1 -2,0 0,1 -1,1 -4,0 -1,-1 -1,0 -1,-1 -1,0 -1,-1 0,-9 1,-1 17,0 -2,-1 -6,0 -1,-1 -4,0 -1,-1 -4,0 -1,-1 -4,0 -1,-1 -10,0 0,6 -1,1 -2,0 -1,-1 0,-1 -1,-1 -1,0 -1,-1 -1,-1 -1,0 -1,-1 -1,-1 -1,-1 0,-2 -6,0 -1,-1 -2,0 -1,1 -2,0 0,2 -1,1 -4,0 -1,-1 -2,0 0,2 -1,1 -4,0 -1,-1 -1,0 0,2 -1,1Z"/>
<path onmouseover="hoverPath(evt)" onmouseout="recoverPath(evt)" fill="rgb(236,238,234)" d="M  22,243l 0,1 1,0 1,1 1,0 1,-1 11,0 0,-18 -1,-1 -8,0 0,10 1,1 0,4 -1,1 0,1 -1,1Z"/>
<path onmouseover="hoverPath(evt)" onmouseout="recoverPath(evt)" fill="rgb(214,215,211)" d="M  37,95l 0,-1 -4,0 -1,1 -2,0 0,4 -1,1 -7,0 2,1 0,2 1,1 0,4 3,0 1,1 0,3 3,0 0,-9 1,-1 5,0 0,-1 1,-1 2,0 0,-3 -3,0 -1,-1Z"/>
<path onmouseover="hoverPath(evt)" onmouseout="recoverPath(evt)" fill="rgb(242,241,233)" d="M  70,131l -2,0 0,6 -1,1 0,5 1,1 1,0 1,1 0,11 -1,1 -1,1 -1,0 0,18 2,0 1,1 0,21 18,0 1,1 0,2 1,0 0,-1 1,-1 7,0 1,-1 1,0 0,-16 -1,-1 0,-15 -1,-1 0,-15 -1,-1 0,-15 -2,0 -1,-1 -7,0 -1,-1 0,-4 -1,1 -6,0 -1,1 -7,0 -1,1Z"/>
<path onmouseover="hoverPath(evt)" onmouseout="recoverPath(evt)" fill="rgb(242,241,232)" d="M  185,34l -1,0 0,3 1,1 4,0 1,1 1,1 0,2 1,1 1,1 0,1 1,1 1,1 0,2 1,1 1,1 1,1 1,0 1,1 1,-1 2,0 1,1 1,0 1,1 1,0 1,1 3,0 1,1 22,0 1,1 8,0 1,1 11,0 0,-23 -2,0 -1,-1 -1,0 -1,-1 -35,0 -1,1 -2,0 -1,-1 -1,0 -1,-1 -1,0 -1,-1 -1,0 -1,-1 -10,0 -1,1 -3,0 -1,1 -2,0 -1,1 -1,0 -1,1Z"/>
<path onmouseover="hoverPath(evt)" onmouseout="recoverPath(evt)" fill="rgb(252,252,251)" d="M  187,46l 4,0 1,1 1,1 -2,-3 0,0 -1,-1 0,0 -1,-1 0,-2 -1,-1 -4,0 -2,-2 0,-5 1,-1 1,0 1,-1 1,0 1,-1 2,0 1,-1 3,0 1,-1 12,0 1,1 1,0 1,1 1,0 1,1 1,0 1,1 1,-1 37,0 1,1 1,0 1,1 1,0 0,-2 -2,0 -1,-1 -40,0 -1,-1 -1,0 -1,-1 -1,0 -1,-1 -14,0 -1,1 -4,0 -1,-1 0,-5 -1,-1 0,-17 -1,-1 0,-3 -13,0 0,1 4,0 1,1 2,0 1,1 1,0 1,1 0,1 1,1 0,15 1,1 1,0 1,1 0,6 -1,1 -1,0 -1,1 -6,0 -1,-1 -1,1 -4,0 -1,-1 -1,0 -1,-1 0,-2 -1,1 -2,0 -1,-1 -2,0 -1,-1 -2,0 -1,-1 -2,-2 0,-2 1,-1 5,0 -3,-1 -2,0 -1,-1 -1,-1 0,4 -1,1 -1,1 -13,0 -1,-1 -3,0 -1,1 -8,0 0,1 25,0 1,1 3,0 1,1 1,0 1,1 1,0 1,1 2,0 1,1 1,0 1,1 1,0 1,1 1,0 1,1 0,1 1,1 0,6 6,0 1,-1 3,0 1,1 1,0 1,1 1,1 0,1 1,0 1,1 0,2 -16,-5 -1,0 0,1 -1,1 0,1 -1,1 -5,0 2,1 1,0 1,1 0,3 2,0 0,-3 1,-1 2,0 -1,-1 0,-4 16,5Z"/>
<path onmouseover="hoverPath(evt)" onmouseout="recoverPath(evt)" fill="rgb(244,243,236)" d="M  192,115l -1,1 -8,0 -1,-1 0,-1 -1,-1 -1,-1 0,-1 -1,-1 0,-7 -1,-1 0,-1 -1,-1 -1,-1 -6,0 -1,1 -4,0 0,1 1,0 1,1 1,1 0,5 -1,1 -1,1 0,1 -1,1 0,4 1,0 1,1 23,0 1,1 1,0 1,1 0,2 1,1 0,9 1,1 0,6 -1,1 0,3 1,1 0,4 1,1 0,3 1,1 0,4 1,1 0,5 1,1 0,5 1,1 0,4 1,1 0,5 1,1 0,4 1,1 0,4 2,0 1,1 0,3 1,1 0,3 1,1 0,4 1,1 0,4 1,1 0,4 1,1 0,3 1,1 0,2 1,1 0,2 1,1 0,4 1,1 0,3 1,0 1,-1 9,0 1,1 3,0 1,1 5,0 1,1 4,0 1,1 7,0 1,1 5,0 0,-121 -20,0 -1,1 -5,0 -1,1 -9,0 -1,1 -2,0 -1,-1 -2,0 -1,-1 -1,-1 -1,-1 -1,-1 0,-1 -1,-1 -1,-1 -1,-1 -2,0 -1,1 -2,0 -1,1 -1,1 -1,0 -1,1 -1,0 -1,1 -1,1 -1,0 -1,1Z"/>
<path onmouseover="hoverPath(evt)" onmouseout="recoverPath(evt)" fill="rgb(170,198,238)" d="M  196,107l 0,0 -1,1 -1,1 -1,1 -1,1 -1,0 -1,1 -4,0 -1,-1 -1,-1 0,-7 -1,-1 0,-3 -1,-1 -1,-1 -1,-1 -2,0 -1,-1 -5,0 -1,1 -3,0 -1,1 -2,0 0,1 3,0 1,-1 8,0 1,1 1,1 1,1 0,1 1,1 0,7 1,1 0,1 1,1 1,1 0,1 6,0 1,-1 0,0 1,-1 1,0 1,-1 1,-1 1,0 1,-1 1,0 1,-1 1,-1 2,0 1,-1 4,0 1,1 1,1 1,1 1,1 0,1 1,1 1,1 1,1 2,0 1,1 1,-1 9,0 1,-1 5,0 1,-1 21,0 0,-2 -14,0 -1,-1 -2,0 -1,-1 -4,0 -1,1 -2,0 -1,1 -1,0 -1,1 -2,0 -1,1 -2,0 -1,1 -4,0 -1,-1 -1,-1 -1,-1 -1,-1 -1,-1 -1,-1 0,-1 -1,0 -1,-1 -1,0 -1,-1 -4,0 -1,1 -2,0 -1,1 -2,0 -1,1Z"/>
<path onmouseover="hoverPath(evt)" onmouseout="recoverPath(evt)" fill="rgb(205,220,239)" d="M  203,215l 0,1 1,1 0,1 1,1 1,0 1,1 1,1 0,8 -1,1 -5,0 -1,1 5,0 1,1 0,2 1,1 1,1 1,0 1,1 1,1 1,0 1,1 1,1 0,-5 1,-1 12,0 1,1 4,0 1,1 4,0 1,1 4,0 1,1 6,0 1,1 4,0 0,-2 -6,0 -1,-1 -7,0 -1,-1 -4,0 -1,-1 -5,0 -1,-1 -3,0 -1,-1 -7,0 -1,1 -3,0 -1,-1 0,-3 -1,-1 0,-4 -1,-1 0,-2 -1,-1 0,-2 -1,-1 0,-3 -1,-1 0,-4 -1,-1 0,-4 -1,-1 0,-4 -1,-1 0,-3 -1,-1 0,2 1,3 0,1 1,4 0,1 -1,1 -1,1 0,4 -1,1Z"/>
<path onmouseover="hoverPath(evt)" onmouseout="recoverPath(evt)" fill="rgb(236,238,234)" d="M  235,243l 0,7 1,0 1,1 1,0 1,1 2,0 0,-1 1,-1 4,0 1,1 3,0 1,-1 4,0 0,-9 -2,0 0,1 -1,1Z"/>
</svg>