<svg width="256" height="256" xmlns="http://www.w3.org/2000/svg"><script> 
var tempColor;
function hoverPath(evt){
obj = evt.target;
tempColor = obj.getAttribute("fill");
obj.setAttribute("fill","red");
//alert(tempColor);
//obj.setAttribute("stroke","red");}
function recoverPath(evt){
obj = evt.target;
obj.setAttribute("fill", tempColor);
//obj.setAttribute("stroke", tempColor);
}</script><path onmouseover="hoverPath(evt)" onmouseout="recoverPath(evt)" fill="rgb(171,198,238)" d="M  0,208l 0,6 3,0 1,1 1,0 1,1 1,1 1,1 1,1 1,1 0,2 1,1 0,1 1,1 0,2 1,1 0,17 1,1 0,9 7,0 0,-13 1,-1 0,-8 -1,-1 0,-2 -1,-1 0,-2 -1,-1 0,-2 -1,-1 -1,-1 -1,-1 0,-1 -1,-1 0,-1 -1,-1 -1,-1 0,-1 -1,0 -1,-1 -1,-1 -1,-1 -1,0 -1,-1 -1,-1 -1,0 -1,-1 -1,0 -1,-1 -1,-1 -1,1Z"/>
<path onmouseover="hoverPath(evt)" onmouseout="recoverPath(evt)" fill="rgb(243,242,235)" d="M  116,25l 0,-2 -1,-1 -1,-1 0,-1 -2,0 -1,-1 -1,-1 0,-1 -2,0 -1,-1 -1,-1 -1,0 -1,-1 -1,-1 -1,-1 -1,1 -2,0 -1,-1 -1,-1 -1,-1 -1,0 -1,-1 -1,-1 0,-2 -1,-1 -1,-1 -1,0 -1,-1 -1,0 -1,1 -6,0 -1,-1 0,-3 -21,0 0,1 1,1 0,2 1,1 0,7 -1,1 0,1 1,1 0,1 1,1 0,1 1,1 0,1 1,1 0,1 1,1 0,1 1,1 0,1 1,1 0,1 1,1 0,1 1,1 0,1 1,1 0,1 1,1 0,1 1,1 0,3 -1,1 5,0 1,1 0,1 1,1 0,1 1,1 0,1 1,1 0,2 -1,1 1,1 0,1 1,0 1,1 1,1 1,0 1,1 1,1 1,0 1,1 1,1 1,0 1,1 1,1 1,0 1,1 1,1 1,0 1,1 1,1 1,1 1,0 1,1 1,1 1,0 1,1 1,1 1,1 1,0 1,1 1,1 1,0 1,1 1,1 1,-1 2,0 1,1 1,1 1,1 1,0 1,1 1,1 0,2 1,1 1,-1 2,0 1,1 1,1 1,1 1,0 1,1 1,1 0,2 1,1 1,1 1,0 1,1 1,1 1,0 1,1 1,1 1,0 1,1 1,1 1,0 1,1 1,1 1,0 1,1 1,1 1,0 1,1 1,1 8,0 1,-1 1,0 1,-1 1,0 1,-1 0,-2 1,-1 1,-1 1,-1 2,0 1,-1 0,-1 1,-1 0,-1 -1,-1 0,-2 1,-1 2,0 0,-1 1,-1 0,-1 1,-1 0,-2 1,-1 0,-2 1,-1 0,-1 -1,-1 0,-3 1,-1 2,0 0,-2 1,-1 0,-1 1,-1 0,-2 1,-1 0,-1 1,-1 0,-2 -1,-1 0,-3 1,-1 2,0 1,-1 0,-2 1,-1 0,-2 1,-1 0,-3 1,-1 0,-3 -1,0 -1,1 -2,0 -1,1 -5,0 -1,-1 0,-2 -3,0 -1,1 -6,0 -1,-1 -4,0 -1,-1 0,-2 -2,0 -1,-1 -6,0 -1,-1 -4,0 -1,-1 -2,0 -1,1 0,4 -1,1 0,1 -1,1 -3,0 -1,-1 -1,-1 0,-1 -2,0 -1,-1 -1,-1 -1,0 -1,-1 -1,-1 -1,-1 -1,1 -2,0 -1,-1 -1,-1 -1,-1 -1,0 -1,-1 -1,-1 -1,0 -1,-1 -1,-1 -1,-1Z"/>
<path onmouseover="hoverPath(evt)" onmouseout="recoverPath(evt)" fill="rgb(245,244,237)" d="M  253,24l -1,1 0,1 -1,1 0,1 -1,1 0,1 -1,1 0,1 -1,1 0,1 -1,1 0,1 -1,1 -1,1 0,1 -1,1 0,1 -1,1 0,1 -1,1 0,1 -1,1 0,1 -1,1 -1,1 0,1 -1,1 0,1 -1,1 0,1 -1,1 0,1 -1,1 0,1 -1,1 0,1 -1,1 -1,1 0,1 -1,1 0,1 -1,1 0,1 -1,1 0,2 -1,1 0,1 -1,1 -1,1 0,1 -1,1 0,3 1,1 1,0 1,1 1,0 1,1 1,1 1,1 1,1 1,1 1,1 1,0 1,1 0,1 1,1 1,1 0,1 1,1 0,1 1,1 0,1 1,1 1,1 1,1 0,1 1,1 1,1 1,1 0,1 1,1 1,1 0,1 1,1 1,1 1,1 0,1 1,1 1,1 0,1 1,0 0,-92 -1,0 0,1 -1,1Z"/>
<path onmouseover="hoverPath(evt)" onmouseout="recoverPath(evt)" fill="rgb(243,242,235)" d="M  0,169l 0,36 2,0 1,1 1,1 1,0 1,1 1,0 1,1 1,1 1,0 1,1 1,1 1,1 1,0 1,1 0,1 1,1 1,1 0,1 1,1 0,1 1,1 2,2 0,2 1,1 0,2 1,1 0,2 1,1 0,10 -1,1 0,12 53,0 0,-1 -1,-1 0,-1 -1,-1 0,-1 -1,-1 0,-1 -1,-1 0,-1 -1,-1 0,-1 -1,-1 0,-1 -1,-1 0,-1 -1,-1 0,-1 -1,-1 0,-1 -1,-1 0,-1 -1,-1 0,-1 -1,-1 0,-1 -1,-1 0,-1 -1,-1 -1,-1 0,-1 -1,-1 0,-1 -1,-1 0,-1 -1,-1 0,-1 -1,-1 0,-1 -1,-1 0,-1 -1,-1 0,-1 -1,-1 0,-1 -1,-1 -3,0 -1,1 -2,0 -1,1 -1,0 -1,1 -2,0 -1,1 -2,0 -1,1 1,1 0,5 -1,1 -2,0 -1,-1 -1,-1 0,-1 -1,-1 0,-1 -1,-1 0,-1 -1,-1 0,-1 -1,-1 0,-1 -1,-1 0,-1 -1,-1 0,-2 -1,-1 0,-1 -1,-1 0,-1 -1,-1 0,-1 -1,-1 0,-1 -1,-1 0,-3 1,-1 1,-1 2,0 1,1 0,1 1,1 0,2 1,1 0,1 1,1 0,1 1,1 0,1 1,1 0,1 1,1 0,1 1,1 0,1 1,1 1,-1 1,0 1,-1 2,0 1,-1 2,0 1,-1 1,0 1,-1 2,0 1,-1 0,-1 -1,-1 0,-1 -1,-1 0,-1 -1,-1 0,-1 -1,-1 0,-1 -1,-1 0,-1 -1,-1 0,-4 -1,-1 0,-1 -1,-1 0,-3 1,-1 3,0 1,1 1,1 0,1 1,1 1,0 1,1 0,1 1,1 0,1 1,1 0,1 1,1 0,1 1,1 0,1 1,1 0,1 1,1 0,1 1,1 0,1 1,1 0,1 1,1 0,1 1,1 0,1 1,1 0,1 1,1 0,1 1,1 0,1 1,1 0,1 1,1 0,1 1,1 0,1 1,1 0,1 1,1 0,1 1,1 0,1 1,1 0,1 1,1 1,0 1,1 1,0 1,-1 3,0 1,1 2,0 1,-1 1,0 1,-1 1,0 0,-2 1,-1 1,0 1,-1 2,0 1,1 1,0 0,-2 1,-1 2,0 1,1 1,0 1,-1 2,0 1,-1 0,-2 1,-1 3,0 1,1 1,0 1,-1 1,0 1,-1 1,0 0,-2 -1,0 -1,-1 -1,-1 0,-1 -1,-1 -1,-1 -1,0 -1,-1 0,-3 -1,0 -1,-1 0,-1 -1,0 -1,-1 0,-1 -1,-1 0,-1 -1,0 -1,-1 0,-2 -4,0 -1,-1 -1,-1 -1,0 -1,-1 -1,-1 -1,0 -1,-1 -1,-1 -1,-1 0,-1 -1,-1 0,-1 -1,-1 -1,-1 0,-1 -1,-1 0,-1 -1,-1 -1,-1 0,-1 -1,-1 0,-1 -1,-1 0,-1 -1,-1 -1,0 -1,-1 -1,-1 -1,-1 0,-1 -1,-1 -1,-1 -1,0 -1,-1 -1,0 -1,-1 -2,0 -1,-1 -13,0 -1,1 -14,0 -1,1 -13,0 -1,1 -13,0 -1,1 -5,0 -1,1Z"/>
<path onmouseover="hoverPath(evt)" onmouseout="recoverPath(evt)" fill="rgb(245,244,237)" d="M  0,217l 0,38 12,0 0,-8 -1,-1 0,-17 -1,-1 0,-2 -1,-1 0,-1 -1,-1 0,-2 -1,-1 -1,-1 -1,-1 -1,-1 -1,0 -1,-1 -1,0 -1,1Z"/>
<path onmouseover="hoverPath(evt)" onmouseout="recoverPath(evt)" fill="rgb(189,209,238)" d="M  7,5l 1,0 1,-1 2,0 1,-1 3,0 1,-1 1,0 0,-2 -17,0 0,40 2,0 1,-1 2,0 1,-1 1,0 1,-1 0,-1 1,-1 -1,-1 0,-1 -1,-1 0,-1 -1,-1 0,-1 -1,-1 0,-1 -1,-1 0,-2 -1,-1 0,-1 -1,-1 0,-5 -1,-1 0,-5 1,-1 1,-1 1,-1 1,-1 1,0 1,-1Z"/>
<path onmouseover="hoverPath(evt)" onmouseout="recoverPath(evt)" fill="rgb(243,242,233)" d="M  31,0l -2,0 0,15 -1,1 0,17 -1,1 0,17 -1,1 0,13 3,0 1,1 0,-3 1,-1 0,-3 1,-1 0,-2 1,-1 1,0 1,-1 2,0 1,-1 2,0 1,1 1,0 1,-1 1,0 0,-2 1,-1 1,0 1,-1 1,0 1,-1 2,0 1,-1 1,0 1,-1 1,0 1,-1 2,0 1,-1 1,0 1,-1 1,0 1,-1 2,0 1,-1 1,0 1,-1 1,0 1,-1 0,-1 -1,-1 0,-1 -1,-1 0,-1 -1,-1 0,-1 -1,-1 0,-1 -1,-1 0,-1 -1,-1 0,-1 -1,-1 0,-1 -1,-1 0,-1 -1,-1 0,-1 -1,-1 0,-1 -1,-1 0,-1 -1,-1 0,-3 1,-1 0,-5 -1,-1 0,-2 -1,-1 0,-2Z"/>
<path onmouseover="hoverPath(evt)" onmouseout="recoverPath(evt)" fill="rgb(243,241,233)" d="M  93,0l -11,0 0,2 4,0 1,-1 3,0 1,1 1,0 1,1 1,1 1,1 1,0 1,1 1,1 1,0 1,1 1,1 1,1 1,0 1,1 1,1 1,1 1,0 1,1 1,1 2,0 1,1 0,1 1,1 2,0 1,1 0,1 1,1 1,1 1,0 1,1 1,1 1,1 1,0 1,1 1,1 0,2 1,1 1,1 1,-1 2,0 3,3 1,0 1,1 1,1 2,0 1,1 0,1 1,1 1,0 0,-1 1,-1 0,-4 1,-1 1,-1 4,0 1,1 4,0 1,1 2,0 0,-4 -1,-1 0,-1 -1,-1 -2,0 -1,-1 -4,0 -1,-1 -1,0 -1,-1 -1,0 -1,-1 -1,-1 -2,0 -1,-1 -1,0 -1,-1 -2,0 -1,-1 -1,-1 0,-1 -1,-1 -1,-1 -1,-1 -1,0 -1,-1 -4,0 -1,-1 -1,0 -1,-1 -1,0 -1,-1 -1,0 -1,-1 -1,-1 -1,0 -1,-1 -1,0 -1,-1 -1,0 -1,-1 -1,0 -1,-1 -1,-1 0,-1Z"/>
<path onmouseover="hoverPath(evt)" onmouseout="recoverPath(evt)" fill="rgb(244,243,237)" d="M  118,1l 0,0 1,1 1,0 1,1 1,1 1,0 1,1 9,0 1,1 1,1 0,2 1,1 0,3 1,0 1,1 1,0 1,1 5,0 1,1 1,0 1,1 1,0 1,1 1,0 1,1 1,0 1,1 2,0 0,-1 1,-1 0,-13 1,-1 0,-4 -39,0 -1,1 -1,-1 0,0 1,1Z"/>
<path onmouseover="hoverPath(evt)" onmouseout="recoverPath(evt)" fill="rgb(244,243,235)" d="M  165,1l 0,11 -1,1 0,9 -1,1 0,2 -1,1 0,3 -1,1 0,3 2,0 1,1 0,2 4,0 1,1 4,0 1,-1 5,0 1,1 0,2 3,0 1,-1 2,0 1,-1 3,0 0,-2 1,-1 0,-1 1,-1 0,-2 1,-1 0,-1 1,-1 0,-2 1,-1 0,-1 1,-1 0,-1 1,-1 0,-1 -1,-1 0,-2 1,-1 0,-1 1,-1 0,-1 1,-1 0,-1 1,-1 2,0 1,-1 0,-1 1,-1 0,-1 -1,-1 0,-4 -37,0 -1,1Z"/>
<path onmouseover="hoverPath(evt)" onmouseout="recoverPath(evt)" fill="rgb(171,198,238)" d="M  0,142l 0,24 5,0 1,-1 13,0 1,-1 13,0 1,-1 14,0 1,-1 15,0 1,1 2,0 1,1 1,0 1,1 1,0 1,1 1,1 1,1 0,1 1,1 1,1 1,0 1,1 1,1 0,1 1,1 0,1 1,1 0,1 1,1 1,1 0,1 1,1 0,1 1,1 1,1 0,1 1,1 0,1 1,1 1,1 1,0 1,1 1,1 1,0 1,1 1,1 1,0 -1,-1 0,-1 -1,0 -1,-1 0,-1 -1,-1 -1,-1 0,-1 -1,-1 -1,-1 -1,-1 -1,-1 -1,-1 0,-1 -1,-1 0,-1 -1,-1 -1,-1 -1,-1 0,-2 -1,0 -1,-1 0,-4 1,-1 1,-1 1,0 1,-1 4,0 1,-1 7,0 1,-1 5,0 1,-1 4,0 1,-1 3,0 1,-1 4,0 1,-1 4,0 1,-1 3,0 1,-1 3,0 1,-1 2,0 1,-1 6,0 1,1 3,0 1,1 2,0 1,1 2,0 1,1 1,1 0,3 -1,1 -1,1 -1,1 -1,1 0,3 1,1 0,0 1,1 1,0 1,1 0,1 1,0 1,1 1,0 1,1 1,0 1,1 0,1 1,1 1,1 1,1 1,1 1,1 1,1 1,0 1,1 1,1 1,0 -1,-1 0,-1 -1,-1 0,0 -1,-1 -1,-1 -1,-1 -1,-1 -1,-1 0,-1 -1,-1 -1,0 -1,-1 -1,0 -1,-1 -1,0 -1,-1 -1,0 -1,-1 -1,-1 0,-2 1,-1 1,-1 1,-1 1,0 1,-1 1,-1 1,-1 0,-3 -1,-1 0,0 -1,-1 -1,-1 -1,0 -1,-1 -1,-1 -1,0 -1,-1 -1,-1 0,-3 1,-1 1,0 2,-2 1,-1 1,0 1,-1 2,-2 1,0 1,-1 1,-1 1,-1 1,0 1,-1 1,-1 1,-1 1,0 1,-1 1,-1 1,-1 1,0 1,-1 1,-1 1,-1 1,0 2,-2 1,0 1,-1 2,0 1,-1 1,0 1,-1 1,-1 1,0 1,-1 1,-1 1,-1 1,-1 1,-1 1,-1 1,0 1,-1 1,-1 1,-1 1,-1 1,-1 1,-1 1,0 1,-1 0,-1 1,-1 0,-1 1,-1 0,-1 1,-1 1,-1 0,-1 1,-1 0,-1 1,-1 0,-1 1,-1 0,-1 1,-1 0,-1 1,-1 1,-1 0,-1 1,-1 0,-1 1,-1 1,-1 1,-1 1,-1 1,-1 1,-1 1,-1 1,0 1,-1 1,-1 4,0 1,1 1,0 1,1 1,1 1,1 2,2 1,1 1,1 0,1 1,1 1,1 0,1 1,1 1,1 0,1 1,1 1,1 0,1 1,1 1,1 0,1 1,1 0,1 1,1 1,1 0,1 1,1 1,1 0,1 1,1 1,1 1,1 0,1 1,1 1,1 1,1 1,1 0,1 1,0 0,-5 -2,0 -1,-1 0,-1 -1,-1 -1,-1 0,-1 -1,-1 -1,-1 -1,-1 0,-1 -1,-1 -1,-1 0,-1 -1,-1 -1,-1 -1,-1 0,-1 -1,-1 -1,-1 -1,-1 0,-1 -1,-1 0,-1 -1,-1 0,-1 -1,-1 -1,-1 0,-1 -1,0 -1,-1 -1,-1 -1,-1 -1,-1 -1,-1 -1,-1 -1,0 -1,-1 -1,0 -1,-1 -1,-1 0,-5 1,-1 0,-1 1,-1 1,-1 0,-1 1,-1 0,-2 1,-1 0,-1 1,-1 0,-1 1,-1 0,-1 1,-1 1,-1 0,-1 1,-1 0,-1 1,-1 0,-1 1,-1 0,-1 1,-1 0,-1 1,-1 0,-1 1,-1 1,-1 0,-1 1,-1 0,-1 1,-1 0,-1 1,-1 0,-1 1,-1 0,-1 1,-1 1,-1 0,-1 1,-1 0,-1 1,-1 0,-1 1,-1 0,-1 1,-1 0,-1 1,-1 0,-1 1,-1 1,-1 0,-1 1,-1 2,0 0,-20 -14,0 0,3 -1,1 0,1 -1,1 -1,1 0,1 -1,1 0,1 -2,2 0,2 -1,1 0,1 -1,1 0,2 -1,1 0,1 -1,1 0,2 -1,1 -1,1 0,1 -1,1 0,1 -1,1 -1,1 0,1 -1,1 -1,1 0,1 -1,1 0,1 -1,1 -1,1 0,1 -1,1 0,1 -1,1 -1,1 0,1 -1,1 0,1 -1,1 -1,1 0,1 -1,1 -1,1 0,1 -1,1 0,2 -1,1 0,1 -1,1 0,1 -1,1 0,2 -1,1 0,1 -1,1 0,1 -1,1 0,1 -1,1 0,2 -1,1 0,1 -1,1 0,1 -1,1 0,2 -1,1 0,1 -1,1 0,1 -1,1 -1,1 0,1 -1,1 -1,1 0,1 -1,1 -1,1 0,1 -1,1 -1,1 0,1 -1,1 -1,1 0,1 -1,1 -1,1 -1,1 0,1 -1,1 -1,1 0,1 -1,1 -1,1 0,1 -1,1 -1,1 0,1 -1,1 -1,1 -1,0 -1,1 -1,1 -1,1 -1,0 -1,1 -1,0 -1,1 -1,1 -1,0 -1,1 -1,0 -1,1 -1,1 -1,0 -1,1 -1,0 -1,1 -1,1 -1,0 -1,1 -1,0 -1,1 -1,1 -1,0 -1,1 -1,0 -1,1 -2,0 -1,1 -1,0 -1,1 -1,0 -1,1 -2,0 -1,1 -2,0 -1,1 -2,0 -1,1 -5,0 -1,-1 -2,0 -1,-1 -3,0 -1,-1 -2,0 -1,-1 -2,0 -1,-1 -2,0 -1,-1 -2,0 -1,-1 -2,0 -1,-1 -2,0 -1,-1 -2,0 -1,-1 -2,0 -1,-1 -11,0 -1,-1 -12,0 -1,1 -3,0 -1,1 -2,0 -1,1 -3,0 -1,1 -3,0 -1,1 -2,0 -1,1 -3,0 -1,1 -2,0 -1,1 -1,1 0,1 -1,1 -1,1 -1,1 -1,1 0,1 -1,1 -3,3 -1,1 -8,0 -1,1 -8,0 -1,1 -6,0 -1,1 -8,0 -1,-1 -1,-1 0,-1 -1,-1 0,-2 -1,0 -1,1Z"/>
<path onmouseover="hoverPath(evt)" onmouseout="recoverPath(evt)" fill="rgb(244,243,235)" d="M  4,142l 1,1 0,1 1,1 6,0 1,-1 6,0 1,-1 8,0 1,-1 8,0 1,-1 1,-1 1,-1 1,-1 0,-1 1,-1 1,-1 1,-1 1,-1 0,-1 1,-1 1,-1 1,-1 2,0 1,-1 3,0 1,-1 2,0 1,-1 3,0 1,-1 3,0 1,-1 2,0 1,-1 3,0 1,-1 14,0 1,1 11,0 1,1 2,0 1,1 2,0 1,1 2,0 1,1 2,0 1,1 2,0 1,1 2,0 1,1 2,0 1,1 2,0 1,1 3,0 1,1 2,0 1,1 3,0 1,-1 2,0 1,-1 2,0 1,-1 2,0 1,-1 1,0 1,-1 1,0 1,-1 2,0 1,-1 1,0 1,-1 1,0 1,-1 1,-1 1,0 1,-1 1,0 1,-1 1,-1 1,0 1,-1 1,0 1,-1 1,-1 1,0 1,-1 1,0 1,-1 1,-1 1,0 1,-1 1,0 1,-1 1,-1 1,-1 1,0 1,-1 0,-1 2,-2 0,-1 1,-1 1,-1 0,-1 1,-1 1,-1 0,-1 1,-1 1,-1 1,-1 0,-1 1,-1 1,-1 0,-1 1,-1 1,-1 0,-1 1,-1 1,-1 0,-1 1,-1 1,-1 0,-1 1,-1 1,-1 0,-1 1,-1 0,-1 1,-1 0,-2 1,-1 0,-1 1,-1 0,-1 1,-1 0,-2 1,-1 0,-1 1,-1 0,-1 1,-1 0,-1 1,-1 0,-2 1,-1 0,-1 1,-1 0,-1 1,-1 0,-2 1,-1 0,-1 1,-1 1,-1 0,-1 1,-1 1,-1 0,-1 1,-1 0,-1 1,-1 1,-1 0,-1 1,-1 0,-1 1,-1 1,-1 0,-1 1,-1 0,-1 1,-1 1,-1 0,-1 1,-1 1,-1 0,-1 1,-1 0,-1 1,-1 1,-1 0,-2 1,-1 0,-1 1,-1 0,-2 1,-1 0,-1 1,-1 0,-2 1,-1 1,-1 0,-1 1,-1 0,-1 1,-1 1,-1 0,-1 1,-1 0,-2 -34,0 0,3 1,1 0,3 -1,1 0,1 -1,1 -1,1 0,1 -1,1 0,1 -1,1 0,1 -1,1 0,1 -1,1 0,2 -1,1 0,1 -1,1 0,1 -1,1 0,2 -1,1 0,1 -1,1 0,2 -1,1 0,1 -1,1 0,2 -1,1 0,4 -1,1 0,3 -1,1 0,2 -1,1 0,2 -1,1 -1,1 -2,0 0,1 1,1 0,4 -1,1 0,1 -1,1 0,2 -1,1 0,1 -1,1 0,2 -1,1 -2,0 0,1 1,1 0,3 -1,1 0,2 -1,1 0,2 -1,1 0,1 -1,1 0,1 -1,1 0,1 -1,1 0,2 -1,1 0,1 -1,1 -1,1 -2,0 -1,1 -1,1 0,2 -1,1 -1,1 -1,0 -1,1 -1,0 -1,1 -10,0 -1,-1 -1,-1 -1,0 -1,-1 -1,-1 -1,0 -1,-1 -1,-1 -1,0 -1,-1 -1,-1 -1,0 -1,-1 -1,-1 -1,0 -1,-1 -1,-1 -1,0 -1,-1 -1,-1 -1,-1 0,-2 -1,-1 -1,0 -1,-1 -1,-1 -1,-1 -1,1 -2,0 -1,-1 -1,-1 -1,0 -1,-1 -1,-1 0,-2 -1,-1 -1,-1 -1,1 -2,0 -1,-1 -1,-1 -1,0 -1,-1 -1,-1 -1,0 -1,-1 -1,-1 -1,-1 -1,0 -1,-1 -1,-1 -1,0 -1,-1 -1,-1 -1,-1 -1,0 -1,-1 -1,-1 -1,0 -1,-1 -1,-1 -1,0 -1,-1 -1,-1 -1,0 -1,-1 -1,-1 -1,0 -1,-1 -1,-1 -1,0 -1,-1 0,-1 -1,-1 0,-1 -1,-1 0,-1 -1,-1 0,-1 -1,-1 0,-2 1,-1 -4,0 -1,1 -1,0 -1,1 -2,0 -1,-1 -1,0 -1,1 -1,0 0,2 -1,1 -2,0 -1,-1 -1,0 -1,1 -1,0 0,2 -1,1 -2,0 -1,-1 -1,0 -1,1 -1,0 0,2 -1,1 -1,0 -1,1 -1,0 -1,1 -2,0 -1,1 -2,0 -1,-1 -1,0 -1,1 -1,0 0,2 -1,1 0,3 -1,1 0,3 -1,1 -1,0 -1,1 -12,0 -1,1 -2,0 0,1 -1,1 0,10 1,1 0,3 1,1 0,1 1,1 0,1 1,1 0,1 1,1 0,2 1,1 0,1 1,1 0,1 1,1 0,1 1,1 0,1 1,1 0,1 1,1 0,2 1,1 0,1 1,1 0,1 1,1 0,1 1,1 0,2 1,1 0,1 1,1 0,1 1,1 0,1 1,1 0,2 1,1 0,1 1,1 0,2 -1,1 -1,1 -1,0 -1,1 -2,0 -1,1 -2,0 -1,1 -5,0 -1,1 -5,0 -1,1 -2,0 -1,1 -2,0 -1,1 -2,0Z"/>
<path onmouseover="hoverPath(evt)" onmouseout="recoverPath(evt)" fill="rgb(240,240,236)" d="M  77,232l 0,0 -1,1 -1,0 0,1 1,1 0,1 1,1 0,1 1,1 0,1 1,1 0,1 2,0 1,1 0,1 1,1 0,1 1,1 0,1 1,1 0,1 1,1 0,2 -1,1 0,1 74,0 -1,-1 0,0 -1,-1 -1,-1 -2,-2 -1,-1 -1,0 -1,-1 0,-2 -1,-1 -1,-1 0,-1 -1,-1 -1,-1 -1,0 -1,-1 -1,0 -1,-1 -1,-1 -1,-1 0,-1 -1,-1 -1,-1 -1,-1 -1,-1 -1,-1 -1,-1 -1,-1 -1,-1 -1,0 -1,-1 -3,0 -1,-1 0,-1 -1,-1 -1,-1 -1,-1 -1,-1 -1,-1 -1,-1 -1,-1 -1,-1 -1,0 -1,-1 0,-3 -2,0 -1,-1 0,-1 -1,0 -1,-1 0,-1 -1,-1 -1,-1 -2,0 -1,-1 0,1 2,1 0,0 1,1 1,1 0,1 1,1 1,0 1,1 0,4 -1,1 -1,0 -1,1 -1,0 -1,1 -3,0 -1,-1 -1,0 0,2 -1,1 -1,1 -2,0 -1,1 -3,0 -1,-1 0,2 -1,1 -2,0 -1,1 -2,0 -1,-1 0,2 -1,1 -1,0 -1,1 -1,0 -1,1 -4,0 -1,-1 -1,0Z"/>
<path onmouseover="hoverPath(evt)" onmouseout="recoverPath(evt)" fill="rgb(244,243,236)" d="M  121,216l 0,0 1,1 1,1 1,1 1,1 1,1 1,1 1,1 1,1 0,1 3,0 1,1 1,0 1,1 1,1 1,1 1,1 1,1 1,1 1,1 1,1 1,1 0,1 1,1 1,1 1,0 1,1 1,0 1,1 1,1 1,1 0,1 1,1 1,1 0,2 1,0 1,1 1,1 1,1 1,1 1,1 1,1 1,1 0,1 82,0 0,-1 -1,-1 0,-1 -3,-3 0,-1 -1,-1 -1,-1 -1,-1 0,-1 -1,-1 -1,-1 -1,-1 0,-1 -1,-1 0,-1 -1,-1 0,-2 -1,-1 0,-1 -1,-1 0,-1 -1,-1 -1,-1 -1,-1 0,-1 -1,-1 -1,-1 0,-1 -1,0 -1,-1 -1,-1 -1,-1 -1,-1 0,-1 -1,-1 0,-1 -1,-1 0,-2 -1,-1 0,-1 -1,-1 0,-1 -5,0 -1,1 -2,0 -1,1 -2,0 -1,1 -4,0 -1,-1 -1,-1 -1,-1 -1,-1 -1,-1 -1,-1 -1,-1 -1,-1 -1,-1 -3,0 -1,-1 -1,-1 -1,0 -1,-1 -1,-1 -1,0 -1,-1 -1,0 -1,-1 -1,-1 -1,-1 -1,0 -1,-1 -1,0 -1,-1 -2,0 -1,-1 -1,-1 -1,-1 -1,-1 0,-1 -1,0 -1,-1 -1,-1 -1,0 -1,-1 -1,-1 -1,-1 -1,-1 -1,-1 -1,-1 -1,-1 0,-1 -1,0 -1,-1 -1,0 -1,-1 -1,0 -1,-1 0,-1 -1,0 -1,-1 -1,-1 -1,-1 0,-5 1,-1 1,-1 1,-1 1,-1 0,-1 -1,-1 -2,0 -1,-1 -2,0 -1,-1 -3,0 -1,-1 -4,0 -1,1 -2,0 -1,1 -3,0 -1,1 -3,0 -1,1 -4,0 -1,1 -4,0 -1,1 -3,0 -1,1 -4,0 -1,1 -5,0 -1,1 -7,0 -1,1 -4,0 -1,1 -1,0 -1,1 0,2 1,0 1,1 0,2 3,3 0,1 1,1 0,1 1,1 1,1 1,1 1,1 1,1 0,1 1,1 1,1 0,1 1,0 1,1 0,1 1,1 0,1 1,0 1,1 0,2 1,0 1,1 0,1 1,1 0,1 1,0 1,1 0,1 1,0 1,1 1,0 1,1 2,0 1,1 1,1 1,1 0,1 1,0 1,1 0,1 2,0 1,1 0,3 1,0 1,1Z"/>
<path onmouseover="hoverPath(evt)" onmouseout="recoverPath(evt)" fill="rgb(244,243,237)" d="M  153,170l 0,0 -1,1 1,1 1,0 1,1 1,0 1,1 1,0 1,1 1,0 1,1 1,1 0,1 1,1 1,1 1,1 1,1 1,1 1,1 0,1 1,1 1,0 1,1 1,1 1,0 1,1 1,0 1,1 1,0 1,1 1,0 1,1 1,0 1,1 1,0 1,1 1,1 1,0 1,1 1,0 1,1 1,0 1,1 1,0 1,1 2,0 1,1 1,1 1,1 0,1 1,1 1,1 0,1 1,1 3,0 1,-1 2,0 1,-1 2,0 1,-1 2,0 1,-1 3,0 1,1 1,1 0,1 1,1 0,1 1,1 0,1 1,1 0,2 1,1 0,1 1,1 1,1 1,1 0,1 1,1 0,2 1,0 1,1 1,1 1,1 1,0 1,1 1,1 0,1 1,1 0,1 1,1 0,1 1,1 0,1 1,1 0,1 1,1 0,1 1,1 1,1 1,1 1,1 1,1 0,1 1,1 1,1 0,1 1,1 1,1 0,1 1,1 0,1 1,1 0,2 5,0 0,-132 -2,0 -1,-1 0,-1 -1,-1 -1,-1 -1,-1 -1,-1 0,-1 -1,-1 -1,-1 -1,-1 0,-1 -1,-1 -1,-1 0,-1 -1,-1 -1,-1 0,-1 -1,-1 0,-1 -1,-1 -1,-1 0,-1 -1,-1 -1,-1 0,-1 -1,-1 -1,-1 0,-1 -1,-1 -1,-1 0,-1 -1,-1 -1,-1 -1,-1 -1,-1 -1,-1 -1,-1 -1,0 -1,-1 -2,0 -1,1 0,0 -1,1 -1,0 -1,1 -1,1 -1,1 -1,1 -1,1 -1,1 0,1 -1,1 0,1 -1,1 -1,1 0,1 -1,1 0,1 -1,1 0,1 -1,1 0,1 -1,1 0,1 -1,1 -1,1 0,1 -1,1 0,1 -1,1 0,1 -1,1 -1,1 -1,0 -1,1 -1,1 -1,1 -1,1 -1,1 -1,1 -1,0 -1,1 -1,1 -1,1 -1,1 -1,1 -1,1 -1,0 -1,1 -1,1 -1,0 -1,1 -2,0 -1,1 -1,0 -1,1 -1,1 -1,0 -1,1 -1,1 -1,1 -1,0 -1,1 -1,1 -1,1 -1,0 -1,1 -1,1 -1,1 -1,0 -1,1 -1,1 -1,1 -1,0 -1,1 -1,1 -1,1 -1,0 -1,1 -1,1 -1,1 -1,0 0,1 1,1 1,0 1,1 1,1 1,0 1,1 1,1 1,1 1,1 0,5 -1,1 -1,1 -1,1 -1,1 -1,0 -1,1Z"/>
<path onmouseover="hoverPath(evt)" onmouseout="recoverPath(evt)" fill="rgb(242,241,234)" d="M  0,43l 0,96 2,0 1,-1 2,0 1,-1 2,0 1,-1 2,0 1,-1 5,0 1,-1 5,0 1,-1 2,0 1,-1 2,0 1,-1 1,0 1,-1 -1,-1 0,-1 -1,-1 0,-2 -1,-1 0,-1 -2,0 -1,-1 0,-2 1,-1 -1,-1 0,-2 -1,-1 0,-1 -1,-1 0,-1 -2,0 -1,-1 0,-2 1,-1 0,-1 -1,-1 0,-1 -1,-1 0,-1 -2,0 -1,-1 0,-1 -1,-1 0,-2 1,-1 -1,-1 0,-2 -1,-1 0,-1 -2,0 -1,-1 0,-1 -1,-1 0,-2 1,-1 0,-2 -1,-1 0,-12 1,-1 0,-1 1,-1 2,0 0,-2 1,-1 1,0 0,-13 1,-1 0,-19 1,-1 0,-19 1,-1 0,-11 -1,0 0,3 -1,1 -1,0 -1,1 -3,0 -1,1 -2,0 -1,1 -1,0 -1,1 -1,0 -1,1 -1,1 -1,1 0,3 1,1 0,5 1,1 0,1 1,1 0,2 1,1 0,1 1,1 0,1 1,1 0,1 1,1 0,1 1,1 0,2 -1,1 0,1 -1,1 -1,1 -1,0 -1,1 -2,0 -1,1 -2,0 -1,1Z"/>
<path onmouseover="hoverPath(evt)" onmouseout="recoverPath(evt)" fill="rgb(253,253,252)" d="M  25,67l 0,0 -1,-1 0,-15 1,-1 0,-17 1,-1 0,-17 1,-1 0,-14 -5,0 0,12 -1,1 0,19 -1,1 0,19 -1,1 0,13 -1,1Z"/>
<path onmouseover="hoverPath(evt)" onmouseout="recoverPath(evt)" fill="rgb(253,253,253)" d="M  74,231l -1,0 -1,-1 -1,0 -1,-1 -1,-1 0,-1 -1,-1 0,-1 -1,-1 0,-1 -1,-1 0,-1 -1,-1 0,-1 -1,-1 0,-1 -1,-1 0,-1 -1,-1 0,-1 -1,-1 0,-1 -1,-1 0,-1 -1,-1 0,-1 -1,-1 0,-1 -1,-1 0,-1 -1,-1 0,-1 -1,-1 0,-1 -1,-1 0,-1 -1,-1 0,-1 -1,-1 0,-1 -1,-1 0,-1 -1,-1 0,-1 -1,-1 0,-1 -1,0 -1,-1 -1,-1 0,-1 -1,-1 -1,0 0,1 1,1 0,1 1,1 0,4 1,1 0,1 1,1 0,1 1,1 0,1 1,1 0,1 1,1 0,1 1,1 0,3 -1,1 -1,1 -2,0 -1,1 -1,0 -1,1 -2,0 -1,1 -2,0 -1,1 -1,0 -1,1 -2,0 -1,-1 -1,-1 0,-1 -1,-1 0,-1 -1,-1 0,-1 -1,-1 0,-1 -1,-1 0,-1 -1,-1 0,-1 -1,-1 0,-2 -1,-1 0,-1 -1,1 0,1 1,1 0,1 1,1 0,1 1,1 0,1 1,1 0,1 1,1 0,2 1,1 0,1 1,1 0,1 1,1 0,1 1,1 0,1 1,1 0,1 1,1 0,1 1,1 0,-3 -1,-1 0,-2 1,-1 1,-1 2,0 1,-1 2,0 1,-1 1,0 1,-1 2,0 1,-1 5,0 1,1 1,1 0,1 1,1 0,1 1,1 0,1 1,1 0,1 1,1 0,1 1,1 0,1 1,1 0,1 1,1 0,1 1,1 1,1 0,1 1,1 0,1 1,1 0,1 1,1 0,1 1,1 0,1 1,1 0,1 1,1 0,1 1,1 0,1 1,1 0,1 1,1 0,1 1,1 0,1 1,1 0,1 1,1 0,1 1,1 0,2 5,0 0,-2 1,-1 -1,-1 0,-1 -1,-1 0,-1 -1,-1 0,-1 -1,-1 0,-1 -2,0 -1,-1 0,-1 -1,-1 0,-1 -1,-1 0,-1 -1,-1 0,-1 -1,-1 0,-3 1,-1Z"/>
<path onmouseover="hoverPath(evt)" onmouseout="recoverPath(evt)" fill="rgb(172,198,238)" d="M  121,7l 0,0 1,1 1,0 1,1 4,0 1,1 1,0 1,1 1,1 1,1 1,1 0,-3 -1,-1 0,-2 -1,-1 -9,0 -1,-1 -1,1 13,8 1,1 2,0 1,1 1,0 1,1 2,0 1,1 1,1 1,0 1,1 1,0 1,1 4,0 1,1 2,0 1,1 1,1 0,1 1,1 0,5 1,0 0,-3 1,-1 0,-3 1,-1 0,-2 1,-1 0,-9 1,-1 0,-11 -3,0 0,5 -1,1 0,13 -1,1 0,1 -1,1 -4,0 -1,-1 -1,0 -1,-1 -1,0 -1,-1 -1,0 -1,-1 -1,0 -1,-1 -4,0 -6,-2 -13,-8 17,9 0,0 -2,-1 -1,0 3,1 -17,-9 -2,-1 0,-2 -1,0 -1,-1 -1,0 -1,-1 0,-2 -7,0 1,1 1,0 1,1 1,0 1,1 1,0 1,1 1,0 1,1 1,1 1,0 2,1Z"/>
<path onmouseover="hoverPath(evt)" onmouseout="recoverPath(evt)" fill="rgb(171,198,238)" d="M  219,215l 0,0 1,1 0,1 1,1 0,1 1,1 1,1 1,1 1,0 0,-1 -1,-1 0,-1 -1,-1 -1,-1 -1,-1 0,-1 -1,-1 -1,1 1,-3 -1,-1 0,-1 -1,-1 0,-1 -1,-1 0,-1 -1,-1 -1,0 -1,1 -2,0 -1,1 -2,0 -1,1 -2,0 -1,1 -5,0 -1,-1 -1,-1 0,-1 -1,-1 -1,-1 0,-1 -1,-1 -1,-1 -2,0 -1,-1 -1,0 -1,-1 -1,0 -1,-1 -1,0 -1,-1 -1,0 -1,-1 -1,-1 -1,0 -1,-1 -1,0 -1,-1 -1,0 -1,-1 -1,0 -1,-1 -1,0 -1,-1 -1,0 -1,-1 -1,-1 -1,1 0,0 1,1 0,0 1,1 1,1 2,0 1,1 1,0 1,1 1,0 1,1 1,1 1,1 1,0 1,1 1,0 1,1 1,1 1,0 1,1 1,1 3,0 1,1 1,1 1,1 1,1 1,1 1,1 1,1 1,1 1,1 2,0 1,-1 2,0 1,-1 2,0 1,-1 7,0 1,1 0,1 1,1 0,-1 -1,-2 3,4 -1,3Z"/>
<path onmouseover="hoverPath(evt)" onmouseout="recoverPath(evt)" fill="rgb(171,198,238)" d="M  228,227l 0,0 1,1 1,1 1,1 0,1 1,1 0,1 1,1 0,2 1,1 0,1 1,1 0,1 1,1 1,1 1,1 0,1 1,1 1,1 1,1 0,1 1,1 1,1 1,1 0,1 1,1 0,2 3,0 0,-1 -1,-1 0,-1 -1,-1 0,-1 -1,-1 -1,-1 0,-1 -1,-1 -1,-1 0,-1 -1,-1 -1,-1 -1,-1 -1,-1 -1,-1 0,-1 -1,-1 0,-1 -1,-1 0,-1 -1,-1 0,-1 -1,-1 0,-1 -1,-1 0,-1 -1,-1 -1,0 -1,-1 -1,1 -1,-2 0,-1Z"/>
</svg>