<svg width="256" height="256" xmlns="http://www.w3.org/2000/svg"><script> 
var tempColor;
function hoverPath(evt){
obj = evt.target;
tempColor = obj.getAttribute("fill");
obj.setAttribute("fill","red");
//alert(tempColor);
//obj.setAttribute("stroke","red");}
function recoverPath(evt){
obj = evt.target;
obj.setAttribute("fill", tempColor);
//obj.setAttribute("stroke", tempColor);
}</script><path onmouseover="hoverPath(evt)" onmouseout="recoverPath(evt)" fill="rgb(244,243,237)" d="M  0,234l 0,21 93,0 0,-2 1,-1 1,-1 1,-1 1,-1 1,-1 1,-1 0,-1 -1,0 -1,-1 -1,-1 -3,0 -1,-1 -5,0 -1,-1 -5,0 -1,-1 -3,0 -1,-1 -3,0 -1,-1 -2,0 -1,-1 -4,0 -1,-1 -2,0 -1,-1 -1,0 -1,-1 -2,0 -1,-1 -2,0 -1,-1 -2,0 -1,-1 -1,0 -1,-1 -1,0 -1,-1 -1,0 -1,-1 -3,0 -1,1 -1,0 -1,1 -1,0 -1,1 -8,0 -1,-1 -5,0 -1,-1 -4,0 -1,-1 -3,0 -1,1 -1,0 -1,1 -1,0 -1,1 -2,0 -1,1 -4,0 -1,1Z"/>
<path onmouseover="hoverPath(evt)" onmouseout="recoverPath(evt)" fill="rgb(244,243,235)" d="M  0,192l 0,34 7,0 1,-1 1,0 1,-1 1,0 1,-1 6,0 1,1 3,0 1,1 4,0 1,1 7,0 1,-1 1,0 1,-1 9,0 1,1 2,0 1,1 1,0 1,1 1,0 1,1 1,0 1,1 2,0 1,1 5,0 1,1 1,0 1,1 1,0 1,1 3,0 1,1 3,0 1,1 2,0 1,1 3,0 1,1 2,0 1,1 3,0 1,1 3,0 1,1 3,0 1,-1 0,-1 1,-1 0,-1 1,-1 0,-2 1,-1 0,-2 1,-1 0,-1 1,-1 0,-1 1,-1 0,-4 1,-1 0,-4 1,-1 0,-3 1,-1 0,-3 1,-1 0,-2 1,-1 0,-2 1,-1 0,-1 1,-1 0,-1 1,-1 0,-2 1,-1 0,-4 1,-1 -11,0 -1,-1 -1,0 -1,1 -4,0 -1,-1 -14,0 -1,1 -43,0 -1,1 -38,0Z"/>
<path onmouseover="hoverPath(evt)" onmouseout="recoverPath(evt)" fill="rgb(244,243,236)" d="M  103,9l 1,1 1,0 1,1 1,0 1,1 2,2 1,1 0,3 -1,1 0,3 -1,1 0,3 -1,1 0,7 1,1 0,1 1,1 0,1 1,1 0,1 1,1 0,2 1,1 0,2 1,1 0,6 1,1 0,5 1,1 0,2 1,1 0,1 1,1 1,1 0,1 1,1 0,2 1,1 0,4 -1,1 0,1 -1,1 0,1 -1,1 -1,1 0,2 1,1 0,1 1,0 1,1 1,0 1,1 1,0 1,1 1,1 1,1 0,1 1,1 0,1 1,1 0,2 1,1 1,1 1,1 0,1 1,0 1,1 2,2 0,1 1,1 0,2 1,1 0,3 1,1 0,2 1,1 0,4 1,1 0,11 -1,1 0,4 -1,1 0,1 -1,1 0,1 -1,1 0,5 1,0 1,1 4,0 1,1 3,0 1,1 4,0 1,1 3,0 1,1 6,0 1,1 13,0 1,1 6,0 1,1 2,0 1,1 2,0 1,1 2,0 0,-1 1,-1 0,-1 1,-1 0,-2 1,-1 0,-1 1,-1 0,-8 1,-1 0,-1 2,-2 1,0 1,-1 11,0 1,-1 6,0 1,-1 4,0 1,-1 0,-4 1,-1 0,-1 1,-1 1,-1 1,-1 1,0 1,-1 2,0 1,-1 2,0 1,-1 4,0 1,-1 6,0 1,-1 1,-1 5,0 0,-72 -12,0 -1,1 -11,0 -1,1 -12,0 -1,1 -15,0 -1,1 -16,0 -1,1 -12,0 -1,1 -13,0 -1,1 -11,0 -1,1 -13,0 -1,1 -3,0 -1,-1 0,-3 1,-1 1,-1 8,0 1,-1 1,0 0,-2 -1,-1 0,-2 -1,-1 0,-2 -1,-1 0,-2 -1,-1 0,-2 -1,-1 0,-2 -1,-1 0,-2 -1,-1 0,-2 -1,-1 0,-2 -1,-1 0,-3 -1,-1 0,-3 -1,-1 0,-3 -1,-1 0,-3 -1,-1 0,-3 -27,0 0,2 -2,2 0,5 1,1 1,0 1,-1Z"/>
<path onmouseover="hoverPath(evt)" onmouseout="recoverPath(evt)" fill="rgb(243,242,234)" d="M  117,92l 0,0 -1,-1 0,-1 -1,0 -1,-1 0,-1 -1,0 0,7 -1,1 0,4 4,0 1,1 0,14 -1,1 -3,0 -1,-1 0,5 -1,1 0,2 1,1 0,4 -1,1 0,15 -1,1 0,8 -1,1 0,4 -1,1 0,3 -1,1 0,4 -1,1 0,3 -1,1 0,4 -1,1 0,3 -1,1 0,2 7,0 1,1 7,0 0,-3 1,-1 0,-3 1,-1 0,-2 1,-1 0,-2 1,-1 0,-2 1,-1 0,-2 1,-1 0,-2 1,-1 1,-1 0,-1 1,-1 0,-1 1,-1 0,-1 1,-1 0,-6 1,-1 0,-9 1,-1 0,-1 1,-1 0,-1 1,-1 0,-2 1,-1 0,-3 1,-1 0,-2 -1,-1 0,-3 -1,-1 0,-2 -1,-1 0,-2 -1,-1 0,-3 -1,-1 0,-2 -1,-1 0,-1 -1,0 -1,-1 -1,-1 -1,-1 -1,-1 -1,-1 0,-1 -1,-1 0,-1 -1,-1 0,-2 -1,-1 -1,-1Z"/>
<path onmouseover="hoverPath(evt)" onmouseout="recoverPath(evt)" fill="rgb(242,241,230)" d="M  123,194l 0,0 -1,1 0,1 -1,1 0,1 -1,1 1,1 1,1 2,0 1,1 3,0 1,1 2,0 1,1 2,0 1,1 3,0 1,1 2,0 1,1 2,0 1,1 2,0 1,1 2,0 1,1 2,0 1,1 2,0 1,1 2,0 1,1 6,0 1,1 3,0 1,1 2,0 1,1 2,0 1,1 2,0 1,1 2,0 1,1 1,0 1,1 1,0 1,1 1,0 1,1 1,0 1,1 2,0 1,1 2,0 1,1 2,0 1,1 3,0 1,-1 2,0 1,-1 4,0 1,1 2,0 1,1 1,0 1,1 2,0 1,1 2,0 0,-2 -1,0 -1,-1 -2,0 -1,-1 -2,0 -1,-1 -2,0 -1,-1 -1,0 -1,-1 -2,0 -1,-1 -2,0 -1,-1 -2,0 -1,-1 -1,0 -1,-1 -2,0 -1,-1 -2,0 -1,-1 -2,0 -1,-1 -2,0 -1,-1 -2,0 -1,-1 -1,0 -1,-1 -2,0 -1,-1 -2,0 -1,-1 -2,0 -1,-1 -2,0 -1,-1 -2,0 -1,-1 -2,0 -1,-1 -2,0 -1,-1 -2,0 -1,-1 -1,0 -1,-1 -2,0 -1,-1 -2,0 -1,-1 -2,0 -1,-1 -2,0 -1,-1 -2,0 -1,-1 -2,0 -1,-1 -1,0 -1,-1 -2,0 -1,-1 -2,0 -1,-1 -2,0 -1,-1 -1,1 -1,0 -1,1Z"/>
<path onmouseover="hoverPath(evt)" onmouseout="recoverPath(evt)" fill="rgb(254,254,254)" d="M  129,50l 0,1 1,0 1,-1 13,0 1,-1 11,0 1,-1 13,0 1,-1 12,0 1,-1 16,0 1,-1 15,0 1,-1 12,0 1,-1 11,0 1,-1 13,0 0,-1 -14,0 -1,1 -11,0 -1,1 -12,0 -1,1 -15,0 -1,1 -16,0 -1,1 -12,0 -1,1 -13,0 -1,1 -11,0 -1,-1 0,-1 -1,-1 0,-2 -1,-1 0,-2 -1,-1 0,-2 -1,-1 0,-2 -1,-1 0,-2 -1,-1 0,-3 -1,-1 0,-2 -1,-1 0,-2 -1,-1 0,-2 -1,-1 0,-3 -1,-1 0,-2 -1,-1 0,-3 -1,-1 0,-3 -1,-1 0,-2 -1,0 0,2 1,1 0,3 1,1 0,3 1,1 0,3 1,1 0,3 1,1 0,2 1,1 0,2 1,1 0,2 1,1 0,2 1,1 0,2 1,1 0,2 1,1 0,2 1,1 0,2 1,1 0,4 -1,1 -1,0 -1,1 -8,0 -1,1Z"/>
<path onmouseover="hoverPath(evt)" onmouseout="recoverPath(evt)" fill="rgb(244,243,235)" d="M  138,154l 0,0 -1,1 0,1 -1,1 -1,1 0,1 -2,2 0,1 -1,1 -1,1 -1,1 0,1 -1,1 0,1 -1,1 0,2 -1,1 0,3 -1,1 0,4 -1,1 0,4 -1,1 2,0 1,1 2,0 1,1 2,0 1,1 1,0 1,1 2,0 1,1 2,0 1,1 2,0 1,1 2,0 1,1 2,0 1,1 1,0 1,1 2,0 1,1 2,0 1,1 2,0 1,1 2,0 1,1 2,0 1,1 2,0 1,1 1,0 1,1 2,0 1,1 2,0 1,1 2,0 1,1 2,0 1,1 2,0 1,1 2,0 1,1 2,0 1,1 2,0 1,1 1,0 1,1 2,0 1,1 2,0 1,1 2,0 1,1 2,0 1,1 1,0 1,1 2,0 1,1 2,0 1,1 2,0 1,1 1,0 1,-1 0,-2 1,-1 0,-1 1,-1 0,-2 1,-1 0,-1 1,-1 0,-1 1,-1 0,-1 1,-1 0,-1 1,-1 0,-1 1,-1 0,-1 1,-1 0,-1 1,-1 0,-1 1,-1 0,-1 1,-1 0,-2 1,-1 0,-1 1,-1 0,-1 1,-1 0,-1 1,-1 0,-1 1,-1 0,-1 1,-1 0,-1 1,-1 0,-1 1,-1 0,-1 1,-1 0,-1 1,-1 0,-2 1,-1 0,-1 1,-1 0,-1 1,-1 0,-1 1,-1 0,-1 1,-1 0,-1 1,-1 0,-1 1,-1 0,-1 1,-1 2,0 0,-37 -4,0 -1,1 0,2 -1,1 -1,0 -1,1 -4,0 -1,1 -2,0 -1,1 -2,0 -1,1 -2,0 -1,1 -1,0 0,5 -1,1 0,1 -2,2 -1,1 -2,0 -1,1 -9,0 -1,1 -6,0 -1,1 -6,0 0,10 -1,1 0,1 -1,1 0,1 -1,1 0,2 -1,1 0,1 -1,1 -1,0 -1,1 -7,0 -1,-1 -2,0 -1,-1 -3,0 -1,-1 -3,0 -1,-1 -14,0 -1,-1 -7,0 -1,-1 -4,0 -1,-1 -4,0 -1,-1 -4,0 -1,1Z"/>
<path onmouseover="hoverPath(evt)" onmouseout="recoverPath(evt)" fill="rgb(244,243,236)" d="M  225,235l -1,0 0,1 -1,1 -2,0 0,2 -1,1 0,3 -1,1 0,2 -1,1 0,3 -1,1 0,2 -1,1 0,1 39,0 0,-3 -1,0 -1,-1 -1,-1 -1,-1 -1,-1 -1,-1 -1,-1 -1,-1 0,-1 -1,-1 -1,-1 0,-1 -1,0 -1,-1 -1,0 -1,-1 -2,0 -1,-1 -3,0 -1,-1 -3,0 -1,-1 -3,0 -1,-1Z"/>
<path onmouseover="hoverPath(evt)" onmouseout="recoverPath(evt)" fill="rgb(242,241,232)" d="M  255,175l 0,-4 -1,0 0,1 -1,1 0,1 -1,1 0,1 -1,1 0,1 -1,1 0,2 -1,1 0,1 -1,1 0,1 -1,1 0,1 -1,1 0,1 -1,1 0,1 -1,1 0,1 -1,1 0,1 -1,1 0,1 -1,1 0,2 -1,1 0,1 -1,1 0,1 -1,1 0,1 -1,1 0,1 -1,1 0,1 -1,1 0,1 -1,1 0,1 -1,1 0,2 -1,1 0,1 -1,1 0,1 -1,1 0,1 2,0 1,1 1,0 1,1 2,0 1,1 3,0 1,1 1,0 1,1 2,0 1,1 2,0 1,1 2,0 1,1 2,0Z"/>
<path onmouseover="hoverPath(evt)" onmouseout="recoverPath(evt)" fill="rgb(244,243,236)" d="M  0,1l 0,184 31,0 1,-1 39,0 1,-1 25,0 0,-1 1,-1 0,-2 1,-1 0,-3 1,-1 0,-4 1,-1 0,-4 1,-1 0,-3 1,-1 0,-4 1,-1 0,-4 1,-1 0,-9 1,-1 0,-5 1,-1 0,-6 1,-1 2,0 0,-2 -1,-1 0,-4 1,-1 0,-5 1,-1 2,0 1,1 1,0 0,-12 -4,0 -1,-1 0,-6 1,-1 0,-8 -1,-1 0,-5 1,-1 0,-2 1,-1 0,-1 1,-1 1,-1 0,-1 1,-1 -1,-1 0,-1 -1,-1 -1,-1 0,-1 -1,-1 0,-2 -1,-1 0,-9 -1,-1 0,-3 -1,-1 0,-1 -1,-1 0,-1 -1,-1 0,-1 -1,-1 0,-1 -1,-1 0,-1 -1,-1 0,-15 1,-1 0,-2 1,-1 0,-2 -1,-1 -1,-1 -1,0 -1,-1 -1,0 -1,-1 0,-1 -2,0 -1,-1 -1,-1 0,-7 1,-1 1,-1 0,-1 -96,0 -1,1Z"/>
<path onmouseover="hoverPath(evt)" onmouseout="recoverPath(evt)" fill="rgb(253,253,253)" d="M  2,187l -2,0 0,1 37,0 1,-1 43,0 1,-1 16,0 1,1 2,0 1,-1 3,0 1,1 11,0 1,1 2,0 1,1 4,0 1,1 1,0 1,1 2,0 1,1 2,0 1,1 2,0 1,1 1,0 1,1 2,0 1,1 2,0 1,1 2,0 1,1 2,0 1,1 2,0 1,1 2,0 1,1 1,0 1,1 2,0 1,1 2,0 1,1 2,0 1,1 2,0 1,1 2,0 1,1 2,0 1,1 2,0 1,1 2,0 1,1 1,0 1,1 2,0 1,1 2,0 1,1 2,0 1,1 2,0 1,1 2,0 1,1 1,0 1,1 2,0 1,1 2,0 1,1 2,0 1,1 1,0 1,1 2,0 1,1 2,0 1,1 2,0 1,1 1,0 1,1 0,4 -1,1 -1,0 0,5 1,-2 0,-1 1,-1 0,-1 1,-4 5,0 1,1 2,0 1,1 2,0 1,1 2,0 1,1 2,0 1,1 2,0 1,1 2,0 1,1 2,0 1,1 1,0 1,1 1,0 0,-2 -3,0 -1,-1 -2,0 -1,-1 -2,0 -1,-1 -2,0 -1,-1 -1,0 -1,-1 -3,0 -1,-1 -2,0 -1,-1 -1,0 -1,-1 -2,0 -1,-1 0,-3 1,-1 0,-1 1,-1 0,-1 1,-1 0,-2 1,-1 0,-1 1,-1 0,-1 1,-1 0,-1 1,-1 0,-1 1,-1 0,-1 1,-1 0,-1 1,-1 0,-1 1,-1 0,-2 1,-1 0,-1 1,-1 0,-1 1,-1 0,-1 1,-1 0,-1 1,-1 0,-1 1,-1 0,-1 1,-1 0,-1 1,-1 0,-1 1,-1 0,-2 1,-1 0,-1 1,-1 0,-1 1,-1 0,-1 1,-1 0,-1 1,-1 2,0 0,-12 -1,0 0,1 -1,1 0,1 -1,1 0,1 -1,1 0,1 -1,1 0,1 -1,1 0,1 -1,1 0,1 -1,1 0,2 -1,1 0,1 -1,1 0,1 -1,1 0,1 -1,1 0,1 -1,1 0,1 -1,1 0,1 -1,1 0,1 -1,1 0,1 -1,1 0,1 -1,1 0,2 -1,1 0,1 -1,1 0,1 -1,1 0,1 -1,1 0,1 -1,1 0,1 -1,1 0,1 -1,1 0,1 -1,1 0,1 -1,1 0,1 -1,1 0,2 -1,1 0,1 -1,1 0,2 -1,1 -1,1 -3,0 -1,-1 -2,0 -1,-1 -2,0 -1,-1 -2,0 -1,-1 -1,0 -1,-1 -2,0 -1,-1 -2,0 -1,-1 -2,0 -1,-1 -2,0 -1,-1 -1,0 -1,-1 -2,0 -1,-1 -2,0 -1,-1 -2,0 -1,-1 -2,0 -1,-1 -2,0 -1,-1 -2,0 -1,-1 -2,0 -1,-1 -2,0 -1,-1 -1,0 -1,-1 -2,0 -1,-1 -2,0 -1,-1 -2,0 -1,-1 -2,0 -1,-1 -2,0 -1,-1 -2,0 -1,-1 -1,0 -1,-1 -2,0 -1,-1 -2,0 -1,-1 -2,0 -1,-1 -2,0 -1,-1 -2,0 -1,-1 -1,0 -1,-1 -2,0 -1,-1 -2,0 -1,-1 -2,0 -1,-1 -1,0 -1,-1 -10,0 -1,-1 -7,0 -1,-1 0,-4 -1,0 0,2 -1,1 0,1 -1,1 -25,0 -1,1 -39,0 -1,1 -30,0 99,-8 1,0 0,-3 1,-1 0,-4 1,-1 0,-3 1,-1 0,-4 1,-1 0,-3 1,-1 0,-4 1,-1 0,-8 1,-1 0,-14 -1,7 0,5 -1,1 0,9 -1,1 0,4 -1,1 0,4 -1,1 0,3 -1,1 0,4 -1,1 0,4 -1,1 0,3 -99,8Z"/>
<path onmouseover="hoverPath(evt)" onmouseout="recoverPath(evt)" fill="rgb(244,243,236)" d="M  117,209l -1,0 0,1 -1,1 0,2 -1,1 0,3 -1,1 0,4 -1,1 0,2 -1,1 0,2 -1,1 0,2 -1,1 0,1 -1,1 0,2 -1,1 0,2 -1,1 0,8 -1,1 0,1 -1,1 -1,1 -2,2 0,1 113,0 0,-2 1,-1 0,-2 1,-1 0,-3 1,-1 0,-2 1,-1 0,-3 1,-1 0,-2 1,-1 0,-2 -4,0 -1,-1 -1,0 -1,-1 -1,0 -1,-1 -4,0 -1,1 -5,0 -1,1 -4,0 -1,-1 -3,0 -1,-1 -2,0 -1,-1 -2,0 -1,-1 -1,0 -1,-1 -1,0 -1,-1 -1,0 -1,-1 -1,0 -1,-1 -1,0 -1,-1 -3,0 -1,-1 -3,0 -1,-1 -3,0 -1,-1 -3,0 -1,-1 -3,0 -1,-1 -2,0 -1,-1 -2,0 -1,-1 -2,0 -1,-1 -2,0 -1,-1 -2,0 -1,-1 -2,0 -1,-1 -2,0 -1,-1 -2,0 -1,-1 -3,0 -1,-1 -3,0 -1,-1 -5,0 -1,1Z"/>
<path onmouseover="hoverPath(evt)" onmouseout="recoverPath(evt)" fill="rgb(244,243,235)" d="M  133,0l -2,0 0,1 1,1 0,3 1,1 0,3 1,1 0,2 1,1 0,3 1,1 0,2 1,1 0,2 1,1 0,2 1,1 0,3 1,1 0,2 1,1 0,2 1,1 0,2 1,1 0,2 1,1 0,2 1,1 0,1 9,0 1,-1 13,0 1,-1 12,0 1,-1 16,0 1,-1 15,0 1,-1 12,0 1,-1 11,0 1,-1 15,0 0,-39Z"/>
<path onmouseover="hoverPath(evt)" onmouseout="recoverPath(evt)" fill="rgb(171,198,238)" d="M  207,227l -2,0 -1,1 -5,0 -1,-1 -2,0 -1,-1 -2,0 -1,-1 -2,0 -1,-1 -1,0 -1,-1 -1,0 -1,-1 -1,0 -1,-1 -1,0 -1,-1 -2,0 -1,-1 -2,0 -1,-1 -2,0 -1,-1 -2,0 -1,-1 -3,0 -1,-1 -6,0 -1,-1 -2,0 -1,-1 -2,0 -1,-1 -2,0 -1,-1 -2,0 -1,-1 -2,0 -1,-1 -2,0 -1,-1 -2,0 -1,-1 -3,0 -1,-1 -2,0 -1,-1 -2,0 -1,-1 -3,0 -1,-1 -2,0 -1,-1 -1,-1 -1,-1 0,-2 1,-1 0,-1 1,-1 0,-1 1,-1 0,-1 1,-1 -2,0 -1,-1 -1,0 -1,1 0,4 -1,1 0,2 -1,1 0,1 -1,1 0,1 -1,1 0,2 -1,1 0,2 -1,1 0,3 -1,1 0,3 -1,1 0,4 -1,1 0,4 -1,1 0,1 -1,1 0,1 -1,1 0,2 -1,1 0,2 -1,1 0,1 -1,1 0,1 -1,1 -1,1 -5,0 -1,-1 0,1 -1,-1 -2,0 -1,-1 -3,0 -1,-1 -2,0 -1,-1 -3,0 -1,-1 -2,0 -1,-1 -3,0 -1,-1 -3,0 -1,-1 -1,0 -1,-1 -1,0 -1,-1 -5,0 -1,-1 -2,0 -1,-1 -1,0 -1,-1 -1,0 -1,-1 -1,0 -1,-1 -2,0 -1,-1 -7,0 -1,1 -1,0 -1,1 -9,0 -1,-1 -4,0 -1,-1 -3,0 -1,-1 -4,0 -1,1 -1,0 -1,1 -1,0 -1,1 -8,0 0,3 4,0 1,-1 2,0 1,-1 1,0 1,-1 1,0 1,-1 5,0 1,1 4,0 1,1 5,0 1,1 6,0 1,-1 1,0 1,-1 1,0 1,-1 5,0 1,1 1,0 1,1 1,0 1,1 1,0 1,1 2,0 1,1 2,0 1,1 2,0 1,1 1,0 1,1 2,0 1,1 4,0 1,1 2,0 1,1 3,0 1,1 3,0 1,1 4,0 121,-13 -119,14 2,0 8,2 1,1 1,0 1,1 0,3 -1,1 -1,1 -1,1 -1,1 -1,1 -1,1 0,1 4,0 0,-2 1,-1 1,-1 1,-1 1,-1 0,-1 1,-1 0,-8 1,-1 0,-2 1,-1 0,-2 1,-1 0,-1 1,-1 0,-2 1,-1 0,-2 1,-1 0,-2 1,-1 0,-4 1,-1 0,-3 1,-1 0,-2 1,-1 0,-1 1,-1 1,0 1,-1 7,0 1,1 3,0 1,1 3,0 1,1 2,0 1,1 2,0 1,1 2,0 1,1 2,0 1,1 2,0 1,1 2,0 1,1 2,0 1,1 2,0 1,1 3,0 1,1 3,0 1,1 3,0 1,1 3,0 1,1 3,0 1,1 1,0 1,1 1,0 1,1 1,0 1,1 1,0 1,1 1,0 1,1 2,0 1,1 2,0 1,1 3,0 1,1 2,0 1,-1 5,0 1,-1 6,0 1,1 1,0 1,1 1,0 1,1 3,0 0,-1 -1,0 -1,-1 -2,0 -1,-1 -1,0 -1,-1 -2,0 -1,-1 -2,0 5,2 2,1 -127,12 119,-14Z"/>
<path onmouseover="hoverPath(evt)" onmouseout="recoverPath(evt)" fill="rgb(194,211,229)" d="M  227,233l 0,0 1,1 3,0 1,1 3,0 1,1 3,0 1,1 2,0 1,1 1,0 1,1 1,0 1,1 0,1 1,1 1,1 0,1 1,1 1,1 1,1 1,1 1,1 1,1 0,-13 -2,0 -1,-1 -1,0 -1,-1 -2,0 -1,-1 -2,0 -1,-1 -2,0 -1,-1 -2,0 -1,-1 -2,0 -1,-1 -2,0 -1,-1 -2,0 -1,-1 -3,0 0,4 1,1Z"/>
<path onmouseover="hoverPath(evt)" onmouseout="recoverPath(evt)" fill="rgb(171,198,238)" d="M  234,123l -2,0 -1,1 -1,0 -1,1 -1,1 0,1 -1,1 0,4 -2,2 -4,0 -1,1 -6,0 -1,1 -11,0 -1,1 -1,0 -1,1 0,1 -1,1 0,8 -1,1 0,1 -1,1 0,2 -1,1 0,1 -1,1 0,1 -1,1 -4,0 0,1 5,0 1,-1 1,0 0,-1 1,-1 0,-2 1,-1 0,-1 1,-1 0,-1 1,-1 0,-10 1,-1 6,0 1,-1 6,0 1,-1 9,0 1,-1 2,0 1,-1 1,-1 0,-1 1,-1 0,-5 1,-1 1,0 1,-1 1,-1 -46,35 0,-1 -2,0 -1,-1 -2,0 -1,-1 -6,0 -1,-1 -13,0 -1,-1 -6,0 -1,-1 -3,0 -1,-1 -4,0 -1,-1 -3,0 -1,-1 -4,0 -1,-1 -1,0 -1,-1 0,-7 1,-1 0,-1 1,-1 0,-1 1,-1 0,-4 1,-1 0,-9 -1,-1 0,-4 -1,-1 0,-2 -1,-1 0,-3 -1,-1 0,-2 -1,-1 0,-1 -1,-1 -1,-1 -1,0 -1,-1 0,-1 -1,-1 -1,-1 -1,-1 0,-2 -1,-1 0,-1 -1,-1 0,-1 -1,-1 -1,-1 -1,0 -1,-1 -1,0 -1,-1 -1,0 -1,-1 0,-1 -1,-1 0,-4 2,-2 0,-1 1,-1 0,-1 1,-1 0,-2 -1,-1 0,-2 -1,-1 0,-1 -1,-1 -1,-1 0,-1 -1,-1 0,-2 -1,-1 0,-5 -1,-1 0,-6 -1,-1 0,-2 -1,-1 0,-2 -1,-1 0,-1 -1,-1 0,-1 -1,-1 0,-1 -1,-1 0,-9 1,-1 0,-3 1,-1 0,-3 1,-1 0,-1 -1,-1 -1,-1 -1,-1 -1,0 -1,-1 -1,0 -1,-1 -1,0 0,1 1,0 1,1 1,0 1,1 1,1 1,1 0,4 -1,1 0,2 -1,1 0,13 1,1 0,1 1,1 0,1 1,1 0,1 1,1 0,1 1,1 0,1 1,1 0,3 -1,-6 0,0 78,113 46,-35 -122,-68 0,6 1,1 0,2 1,1 0,1 1,1 1,1 0,1 1,1 0,2 -1,1 0,1 -1,1 -1,1 0,1 -1,1 0,2 -1,1 0,3 1,1 0,1 2,0 1,1 0,1 1,0 1,1 0,1 2,0 1,1 1,1 1,1 0,2 1,1 0,1 1,1 0,1 1,1 1,1 1,1 1,1 1,0 1,1 0,1 1,1 0,2 1,1 0,3 1,1 0,2 1,1 0,2 1,1 0,3 1,1 0,4 -1,1 0,3 -1,1 0,2 -1,1 0,1 -1,1 0,1 -1,1 0,9 -1,1 0,6 -1,1 0,1 -1,1 0,1 -1,1 0,1 -1,1 -1,1 0,2 -1,1 0,2 -1,1 0,2 -1,1 0,2 -1,1 0,2 -1,1 0,3 -1,1 0,2 1,0 1,1 1,-1 0,-4 1,-1 0,-4 1,-1 0,-3 1,-1 0,-2 1,-1 0,-1 1,-1 0,-1 1,-1 1,-1 1,-1 0,-1 1,-1 1,-1 0,-1 1,-1 1,-1 0,-1 1,-1 1,-1 1,-1 6,0 1,1 4,0 1,1 4,0 1,1 6,0 -11,-2 -5,-1 -33,-96 122,68 -71,32 12,0 3,1 3,0 1,1 3,0 1,1 1,0 -5,-2 -19,-1 71,-32 3,-1 0,1 1,0 1,-1 2,0 1,-1 4,0 1,-1 -4,0 -2,1 -3,0 -1,1 -3,1Z"/>
</svg>