<svg width="256" height="256" xmlns="http://www.w3.org/2000/svg"><script> 
var tempColor;
function hoverPath(evt){
obj = evt.target;
tempColor = obj.getAttribute("fill");
obj.setAttribute("fill","red");
//alert(tempColor);
//obj.setAttribute("stroke","red");}
function recoverPath(evt){
obj = evt.target;
obj.setAttribute("fill", tempColor);
//obj.setAttribute("stroke", tempColor);
}</script><path onmouseover="hoverPath(evt)" onmouseout="recoverPath(evt)" fill="rgb(235,235,225)" d="M  9,64l -1,0 -1,1 -3,0 -1,-1 -1,1 -2,0 0,13 2,0 1,1 1,1 1,0 1,1 1,0 1,1 3,0 -1,-1 0,-3 1,-1 1,-1 1,-1 1,0 1,-1 1,0 0,-2 1,-1 0,-2 1,-1 6,0 1,-1 1,-1 1,-1 2,0 1,1 0,3 1,1 0,-3 -1,-2 0,-2 1,-1 -1,0 -1,-1 -1,0 -1,1 0,0 -1,1 -3,0 -1,-1 -1,-1 -1,-1 0,-1 -1,0 -1,1 -2,0 -1,-1 -1,0 -1,1 -1,0 0,2 -1,1 -1,0 -1,1Z"/>
<path onmouseover="hoverPath(evt)" onmouseout="recoverPath(evt)" fill="rgb(241,241,233)" d="M  49,200l 0,0 -1,1 0,2 -1,1 0,1 -1,1 0,1 -1,1 1,1 1,1 1,1 1,1 1,1 0,1 1,1 1,1 0,4 1,1 1,0 1,1 1,1 1,1 1,0 1,1 0,1 1,0 1,1 1,1 1,0 1,1 0,1 1,0 1,1 1,1 1,0 1,1 0,4 -1,1 -1,0 -2,2 -1,0 -1,1 -2,0 -1,1 -1,1 1,1 0,1 1,1 1,1 2,0 1,1 0,1 1,1 2,0 0,-2 1,-1 4,0 0,-1 1,-1 2,0 1,-1 -1,-1 0,0 -1,-1 -1,-1 0,-3 1,-1 3,0 1,1 1,1 1,1 0,1 1,0 1,-1 0,0 1,-1 1,0 2,-2 1,0 1,-1 0,-3 1,-1 3,0 1,1 1,-1 0,-2 1,-1 2,0 1,1 1,-1 0,0 1,-1 1,0 1,-1 1,-1 1,0 1,-1 1,-1 1,0 1,-1 1,-1 1,0 1,-1 1,-1 1,0 0,-2 1,-1 1,-1 0,-1 -1,-1 0,-1 -1,0 -2,-2 -1,-1 -1,-1 -1,-1 -1,-1 -1,-1 -1,-1 0,-1 -1,0 -1,-1 -1,0 -1,-1 -1,-1 0,-1 -1,-1 0,-1 -1,-1 -1,-1 -1,-1 0,-1 -1,1 0,0 -1,1 -6,0 -1,-1 0,-1 -1,-1 0,-2 1,-1 2,0 1,1 1,1 1,-1 -1,-1 0,0 -1,-1 -1,-1 0,-3 -1,-1 -1,-1 -1,-1 -1,-1 -2,0 -1,1 -1,0 -1,1 -1,0 0,2 -1,1 -1,0 -1,1 -2,0 -1,-1 -1,1 -1,0 -1,1 -2,0 -1,1 -1,0 -1,1 -1,0 -1,1 -1,0 -1,1 -1,0 -1,1 -1,0 -1,1 -1,0 -1,1 -1,0 0,2 -1,1 -1,0 -1,1 -1,0 -1,1Z"/>
<path onmouseover="hoverPath(evt)" onmouseout="recoverPath(evt)" fill="rgb(243,241,232)" d="M  98,175l -2,0 -1,1 1,0 1,1 0,0 1,1 1,1 1,1 1,1 1,1 1,1 1,1 1,1 1,1 1,1 0,1 1,1 1,1 1,1 0,1 1,0 1,1 1,1 1,1 1,1 1,1 1,1 0,1 1,-1 1,0 1,-1 1,0 1,-1 1,0 1,-1 1,0 1,-1 2,0 1,1 0,2 -1,1 -1,0 -1,1 -1,0 -1,1 -1,0 -1,1 0,2 1,1 0,0 1,1 1,1 1,1 1,1 0,3 2,0 1,-1 1,0 1,-1 1,0 1,-1 1,0 1,-1 1,-1 1,0 1,-1 1,0 1,-1 1,0 1,-1 1,0 1,-1 1,0 1,-1 1,0 1,-1 1,0 1,-1 1,0 1,-1 1,0 1,-1 1,0 1,-1 1,0 0,-3 -1,-1 0,0 -1,-1 -1,-1 -1,-1 -1,-1 0,-1 -1,-1 -1,-1 -1,-1 -1,-1 -1,-1 -1,-1 -1,-1 -2,0 -1,-1 0,-3 -1,0 -1,1 -2,0 -1,-1 -1,-1 0,-2 1,-1 -1,-1 0,-2 1,-1 0,-1 1,-1 1,-1 1,0 1,-1 1,-1 1,0 1,-1 1,-1 3,0 1,1 1,1 1,1 -4,-4 0,0 -1,-1 -1,0 -1,-1 0,-1 -1,-1 -1,-1 -1,-1 -1,1 -1,0 -1,1 -1,0 -1,1 -1,0 -1,1 -2,0 -1,1 -1,0 -1,1 1,1 0,0 1,1 1,1 1,1 1,1 1,1 1,1 0,1 -39,7 38,-5 -3,0 -1,-1 -5,-5 -1,-1 -1,-1 -1,0 -1,1 -1,0 -1,1 -1,0 -1,1 -1,0 0,2 -1,1 -2,0 -1,-1 0,2 -1,1 -1,0 -1,1 -1,0 -1,1 -2,0 -1,-1 -1,0 -1,1 -1,0 0,2 -1,1 -2,0 -1,-1 0,1 37,-5 -38,5Z"/>
<path onmouseover="hoverPath(evt)" onmouseout="recoverPath(evt)" fill="rgb(242,241,234)" d="M  118,128l 2,0 1,-1 2,0 1,-1 4,0 1,-1 4,0 1,-1 1,-1 1,0 1,-1 2,0 0,-1 1,-1 1,0 1,-1 1,-1 1,0 1,-1 2,0 0,-1 1,-1 1,-1 1,-1 1,-1 0,-1 1,-1 0,-1 1,-1 0,-1 1,-1 0,-1 1,-1 0,-4 -1,-1 0,0 -1,-1 0,-1 -1,-1 0,-1 -1,-1 0,-1 -1,-1 -1,-1 0,-1 -1,-1 -1,-1 0,-1 -1,-1 -1,-1 -1,-1 0,-1 -1,-1 -1,-1 0,-1 -1,-1 -1,-1 0,-1 -1,-1 -1,-1 0,-1 -1,-1 -1,-1 0,-1 -1,-1 -1,-1 -1,-1 0,-1 -1,-1 -1,-1 0,-1 -1,-1 -1,-1 0,-1 -1,-1 -1,-1 -1,-1 0,-1 -1,-1 -1,-1 0,-1 -1,-1 -1,-1 0,-1 -1,-1 -1,-1 -1,-1 0,-1 -1,-1 -1,-1 0,-1 -1,-1 -1,-1 0,-1 -1,-1 -1,-1 -1,0 -1,1 0,2 -1,1 0,1 -1,1 -1,0 0,1 -1,1 -1,0 -1,1 -1,0 -1,1 -1,1 -1,0 -1,1 -1,0 -1,1 -1,1 -1,1 -1,0 -1,1 -1,0 -1,1 -2,0 -1,1 -1,0 -1,1 -1,0 -1,1 -1,1 -2,0 0,1 -1,1 -1,0 -1,1 0,1 -1,1 -4,0 -1,-1 0,-4 -1,0 -1,1 -1,0 -1,1 -1,1 -2,0 -1,1 -5,0 0,1 1,1 0,2 -1,1 -1,0 -1,1 -1,0 -1,1 -2,0 -1,-1 -1,1 -1,0 -1,1 -1,0 -1,1 -2,0 -1,-1 0,5 -1,1 -4,0 -1,-1 -2,0 -1,-1 0,-1 -1,2 0,0 -1,1 -5,0 -1,1 -2,0 3,1 0,0 1,1 1,1 0,2 6,0 1,1 0,4 1,1 0,6 -1,1 -3,0 -1,1 -4,0 0,1 -1,1 -8,0 1,1 1,1 1,1 0,1 1,1 0,3 3,0 1,1 0,3 2,0 1,-1 4,0 1,1 0,2 1,1 1,1 0,1 1,1 1,1 1,1 1,1 1,1 0,1 1,0 1,1 1,1 1,1 1,1 1,1 1,1 1,1 1,1 1,1 1,1 1,1 1,1 1,1 0,1 1,1 1,1 1,1 1,1 0,1 1,0 1,1 1,1 1,1 1,1 1,1 1,1 1,1 1,1 1,1 0,1 1,1 1,1 1,0 1,1 1,-1 1,-1 1,-1 2,0 1,1 1,0 0,-1 2,-2 1,-1 2,-2 1,0 4,-4 1,-1 2,0 0,-1 1,-1 2,-2 1,-1 1,0 0,-1 1,-1 1,0 1,-1 2,-2 1,-1 4,0 1,1 1,-1 1,0 0,-1 1,-1 2,0 1,-1 -1,-42 1,1 1,1 1,1 0,1 1,1 0,1 1,1 1,1 0,1 1,1 0,1 1,1 0,2 -1,1 -1,0 -1,1 -1,0 -1,1 -1,0 -1,1 -1,0 -1,1 -2,0 -1,1 -1,0 -1,1 -1,0 -1,1 -2,0 -1,1 -3,0 -1,-1 0,-1 -1,-1 -1,-1 0,-1 -1,-1 0,-1 -1,-1 -1,-1 0,-1 -1,-1 0,-4 1,-1 1,0 1,-1 1,0 1,-1 1,0 1,-1 2,0 1,-1 1,0 1,-1 1,0 1,-1 2,0 1,-1 4,0 1,42Z"/>
<path onmouseover="hoverPath(evt)" onmouseout="recoverPath(evt)" fill="rgb(175,201,237)" d="M  183,135l 0,0 -1,1 0,0 1,1 0,1 1,1 1,1 1,1 0,1 1,1 1,1 1,1 0,1 1,1 1,1 1,1 1,1 0,1 1,1 1,1 1,1 0,1 1,1 1,1 0,1 1,1 1,1 1,1 0,1 1,1 1,1 1,1 0,1 1,1 1,1 1,1 0,1 1,1 1,1 1,1 0,1 1,1 1,1 1,1 0,1 1,1 1,1 1,1 0,1 1,1 1,1 1,1 1,1 0,1 1,1 1,1 1,1 0,1 1,1 1,1 1,1 1,1 1,1 1,1 1,1 1,0 1,1 1,1 1,0 1,1 1,1 1,1 1,1 1,1 1,1 1,1 1,0 1,1 1,1 1,1 1,1 1,1 1,1 1,1 1,0 1,1 1,1 1,1 0,1 2,0 0,-22 -1,0 -1,1 -1,1 -1,0 -1,1 -1,1 -1,0 -1,1 -6,0 -1,-1 -1,0 -1,-1 -1,-1 0,-1 -1,-1 -1,-1 -1,-1 -1,-1 -1,-1 -1,-1 -1,-1 -1,-1 -1,-1 -1,-1 0,-1 -1,-1 -1,-1 -1,-1 -1,-1 -1,-1 -1,-1 -1,-1 -1,-1 -1,-1 -1,-1 0,-1 -1,-1 -1,-1 0,-1 -1,-1 -1,-1 -1,-1 0,-1 -1,-1 -1,-1 -1,-1 0,-1 -1,-1 -1,-1 0,-1 -1,-1 -1,-1 -1,-1 -1,-1 0,-1 -2,-2 -1,-1 -1,-1 0,-1 -1,-1 -1,-1 -1,-1 0,-1 -1,-1 -1,-1 -1,-1 0,-1 -1,-1 -1,-1 -1,-1 0,-1 -1,-1 -1,-1 0,-1 -1,-1 -1,-1 -1,0 -1,1Z"/>
<path onmouseover="hoverPath(evt)" onmouseout="recoverPath(evt)" fill="rgb(243,242,233)" d="M  0,1l 0,53 1,0 1,-1 2,0 1,-1 1,0 1,-1 1,0 1,-1 1,0 1,-1 1,0 0,-1 1,-1 1,0 1,-1 2,0 1,1 0,1 1,0 0,-2 1,-1 2,0 1,-1 1,0 1,-1 1,0 1,-1 2,0 1,-1 1,0 -1,-1 0,-1 -1,-1 -1,-1 0,-1 -1,-1 0,-1 -1,-1 -1,-1 -1,-1 0,-1 -1,-1 0,-1 -1,-1 0,-1 -1,-1 0,-1 -1,-1 0,-1 -1,-1 0,-1 -1,-1 0,-2 -1,-1 0,-2 1,-1 0,-1 -1,-1 0,-3 1,-1 2,0 1,-1 1,0 0,-2 1,-1 1,0 1,-1 1,0 1,-1 0,-1 -26,0 -1,1Z"/>
<path onmouseover="hoverPath(evt)" onmouseout="recoverPath(evt)" fill="rgb(194,213,238)" d="M  0,177l 0,3 2,0 1,1 1,1 1,0 1,1 0,1 1,0 1,1 1,1 1,1 1,0 1,1 1,0 1,1 1,0 1,1 1,1 1,1 1,0 1,1 1,1 1,1 1,0 1,1 1,1 1,1 1,0 1,1 1,0 1,-1 1,0 0,-3 -1,-1 0,0 -1,-1 -1,0 -1,-1 -1,-1 -1,-1 -1,-1 -1,0 -1,-1 -1,-1 -1,-1 -1,0 -1,-1 -1,-1 -1,-1 -1,0 -1,-1 -1,-1 -1,-1 0,-1 -2,0 -1,-1 -1,-1 0,-1 -2,0 -1,-1 -1,-1 0,-1 -2,0 -1,-1 -1,0Z"/>
<path onmouseover="hoverPath(evt)" onmouseout="recoverPath(evt)" fill="rgb(238,239,233)" d="M  55,0l -2,0 0,1 1,1 0,1 1,1 0,1 1,1 0,1 1,1 1,1 0,1 1,1 0,1 1,1 0,1 1,1 0,1 1,1 1,1 0,1 1,1 0,1 1,1 0,1 1,1 2,0 1,-1 1,0 1,-1 1,0 1,-1 1,0 1,-1 1,0 1,-1 1,0 0,-1 1,-1 0,-2 1,-1 2,0 1,1 1,1 0,2 1,0 0,-2 1,-1 2,0 1,-1 1,0 1,-1 2,0 1,-1 1,-1 2,0 1,1 1,-1 0,-1 1,-1 2,0 1,-1 1,0 1,-1 1,-1 4,0 0,-1 1,-1 3,0 1,-1 1,0 1,-1 1,0 1,-1 2,0 1,1 1,-1 1,0 0,-1Z"/>
<path onmouseover="hoverPath(evt)" onmouseout="recoverPath(evt)" fill="rgb(234,236,231)" d="M  166,73l 0,0 -1,1 -1,1 0,4 1,1 1,0 1,1 0,2 1,1 1,1 0,-2 1,-1 0,-1 1,-1 1,-1 2,0 0,-1 1,-1 1,-1 3,0 0,-1 -1,-1 0,0 -1,-1 0,-1 -1,-1 -1,-1 -1,-1 -2,0 -1,1 0,0 -1,1 -1,0 -1,1 -1,1Z"/>
<path onmouseover="hoverPath(evt)" onmouseout="recoverPath(evt)" fill="rgb(236,238,234)" d="M  210,57l -2,2 -1,1 0,1 1,1 1,1 2,0 1,-1 1,0 1,-1 1,0 1,-1 1,0 1,-1 1,0 1,-1 1,0 1,-1 -1,-1 0,-1 -1,-1 -1,-1 0,-1 -1,0 -1,1 -1,0 -1,1 -1,0 -1,1 -1,1 -1,0 -1,1Z"/>
<path onmouseover="hoverPath(evt)" onmouseout="recoverPath(evt)" fill="rgb(246,236,141)" d="M  0,58l 0,5 1,0 1,-1 2,0 1,1 1,0 1,-1 1,0 1,-1 1,0 0,-2 1,-1 1,0 1,-1 3,0 1,1 1,-1 2,0 1,-1 1,0 1,-1 1,0 1,-1 1,0 1,-1 1,0 1,-1 1,0 1,-1 2,0 1,-1 2,0 1,-1 1,0 1,-1 1,0 1,-1 1,0 1,-1 1,0 1,-1 1,0 1,-1 1,0 1,-1 1,0 1,-1 2,0 1,-1 1,0 1,-1 1,0 1,-1 1,0 1,-1 1,0 1,-1 2,0 1,-1 1,0 1,-1 1,0 1,-1 2,0 1,-1 1,-1 2,0 1,-1 1,0 1,-1 1,0 1,-1 1,0 1,-1 2,0 1,-1 1,0 1,-1 2,0 1,-1 1,0 1,-1 0,-2 1,-1 3,0 1,1 0,-2 1,-1 1,0 1,-1 2,0 0,-1 1,-1 1,-1 3,0 1,-1 6,0 1,1 1,0 0,-2 1,-1 6,0 0,-4 1,-1 3,0 1,1 1,-1 1,0 1,-1 1,0 1,-1 2,0 1,-1 1,0 1,-1 1,0 1,-1 1,0 1,-1 1,0 0,-1 -17,0 0,2 -1,1 -1,0 -1,1 -2,0 -1,-1 -1,1 -1,0 -1,1 -1,0 -1,1 -3,0 0,1 -1,1 -4,0 -1,1 -1,1 -1,0 -1,1 -2,0 0,1 -1,1 -1,1 -2,0 -1,-1 -1,1 0,0 -1,1 -2,0 -1,1 -1,0 -1,1 -2,0 0,2 -1,1 -3,0 -1,-1 0,-2 -1,-1 0,2 -1,1 0,1 -1,1 -1,0 -1,1 -1,0 -1,1 -1,0 -1,1 -1,0 -1,1 -1,0 -1,1 -4,0 -1,-1 0,2 -1,1 -1,1 -3,0 -1,-1 0,-2 -1,1 -3,0 -1,1 0,1 1,1 0,2 -1,1 -1,0 -1,1 -1,0 -1,1 -1,0 -1,1 -1,0 -1,1 -1,0 -1,1 -2,0 -1,1 -1,0 -1,1 -5,0 -1,-1 1,2 0,1 -1,1 -1,0 -1,1 -2,0 -1,1 -1,0 -1,1 -1,0 -1,1 -2,0 0,2 -1,1 -3,0 -1,-1 0,-1 -1,1 -1,0 0,1 -1,1 -1,0 -1,1 -1,0 -1,1 -1,0 -1,1 -1,0 -1,1 -2,0 -1,1 -2,0Z"/>
<path onmouseover="hoverPath(evt)" onmouseout="recoverPath(evt)" fill="rgb(241,239,229)" d="M  14,217l -3,3 -1,1 -4,4 0,1 -1,1 -1,0 -2,2 -2,0 0,8 1,0 1,-1 0,0 1,-1 1,-1 1,-1 1,-1 1,-1 1,-1 1,-1 1,-1 1,-1 1,-1 1,-1 1,-1 1,-1 1,-1 1,-1 1,-1 0,-1 1,-1 -1,-1 -1,-1 -2,0 -1,1Z"/>
<path onmouseover="hoverPath(evt)" onmouseout="recoverPath(evt)" fill="rgb(231,230,223)" d="M  23,58l -1,0 0,1 1,1 0,0 1,1 1,0 1,-1 0,0 1,-1 3,0 1,1 1,0 1,1 0,2 -1,1 0,1 1,1 0,5 -1,1 -2,0 -1,-1 -1,-1 0,-3 -1,1 0,0 -1,1 -1,1 -6,0 0,2 -1,1 0,2 -1,1 -1,0 -1,1 -1,0 -1,1 -1,1 0,1 1,1 0,2 -1,1 -4,0 -1,1 0,1 1,1 0,0 1,1 1,1 1,1 1,0 1,1 1,0 -1,-1 0,-2 1,-1 2,0 1,1 2,0 1,1 1,1 2,0 1,1 1,0 1,1 1,0 1,1 0,1 1,0 1,1 0,1 3,0 1,-1 3,0 0,-4 -1,-1 0,-4 -6,0 -1,-1 0,-2 -1,-1 -1,-1 -2,0 -1,-1 0,-2 1,-1 2,0 1,-1 5,0 1,-1 0,-1 1,-1 2,0 1,1 0,1 2,0 1,1 2,0 0,-5 1,-1 2,0 1,1 1,-1 1,0 1,-1 1,0 1,-1 2,0 1,1 1,-1 1,0 1,-1 1,0 -1,-1 0,-3 1,-1 5,0 1,-1 2,0 1,-1 1,-1 1,0 1,-1 3,0 1,1 0,4 2,0 0,-1 1,-1 1,-1 1,0 0,-1 1,-1 2,0 1,-1 1,-1 1,0 1,-1 1,0 1,-1 2,0 1,-1 1,0 1,-1 1,0 1,-1 1,-1 1,-1 1,0 1,-1 1,0 1,-1 1,-1 1,0 1,-1 1,0 0,-1 1,-1 1,0 0,-1 1,-1 0,-2 1,-1 1,-1 1,0 0,-1 1,-1 1,-1 1,0 0,-1 -1,-1 0,0 -1,-1 0,-1 -1,-1 0,-1 -1,-1 -1,-1 -1,0 -1,-1 0,-3 -1,-1 -1,0 -1,-1 -4,0 -1,1 -1,0 0,2 -1,1 -2,0 -1,-1 -1,0 0,2 -1,1 -1,1 -1,0 -1,1 -2,0 -1,1 -1,0 -1,1 -2,0 -1,1 -1,0 -1,1 -1,0 -1,1 -1,0 -1,1 -2,0 -1,1 -1,1 -2,0 -1,1 -1,0 -1,1 -1,0 -1,1 -2,0 -1,1 -1,0 -1,1 -1,0 -1,1 -1,0 -1,1 -1,0 -1,1 -2,0 -1,1 -1,0 -1,1 -1,0 -1,1 -1,0 -1,1 -1,0 -1,1 -1,0 -1,1 -1,0 -1,1 -1,0 -1,1 -2,0 -1,1 -2,0 -1,1 -1,0 -1,1 -1,0 -1,1 -1,0 -1,1 -1,0 -1,1Z"/>
<path onmouseover="hoverPath(evt)" onmouseout="recoverPath(evt)" fill="rgb(242,240,231)" d="M  113,138l -1,1 0,1 -1,1 -1,0 -1,1 -3,0 -1,-1 0,-3 1,-1 3,-3 1,-1 -2,0 -1,1 0,0 -3,3 -1,0 0,1 -1,1 -1,0 -3,3 0,1 -1,1 -2,0 -1,1 -1,1 -1,1 -1,1 -1,1 -1,0 -1,1 -1,1 -1,1 -1,1 0,1 -1,1 -2,0 -1,1 -1,1 -1,1 1,1 0,1 1,1 1,0 1,-1 0,0 1,-1 2,0 0,-1 1,-1 1,-1 1,-1 1,-1 3,0 1,-1 1,0 1,-1 1,-1 2,-2 1,-1 1,-1 2,0 1,1 0,2 -1,1 -1,1 -1,1 -3,3 -1,1 -1,1 -1,1 -1,0 0,1 -1,1 0,1 1,0 1,1 0,1 1,0 1,-1 2,0 1,-1 1,0 1,-1 1,0 1,-1 1,-1 1,0 1,-1 1,0 1,-1 5,0 1,1 1,0 1,-1 1,0 1,-1 1,0 1,-1 1,0 1,-1 1,0 1,-1 1,0 1,-1 2,0 1,-1 1,0 0,-2 -1,-1 0,-1 -1,-1 -1,-1 0,-3 1,-1 2,0 1,1 1,1 0,1 1,1 1,1 0,2 2,0 0,-1 -1,-1 0,-2 1,-1 2,0 1,1 1,1 2,0 1,-1 2,0 1,-1 1,0 1,-1 1,0 1,-1 1,0 0,-2 1,-1 2,0 1,1 1,-1 2,0 1,-1 1,0 1,-1 1,0 1,-1 1,0 1,-1 1,0 1,-1 1,0 1,-1 2,0 1,-1 1,0 1,-1 -1,-1 0,0 -1,-1 -1,-1 0,-1 -1,-1 -1,-1 -1,-1 0,-1 -1,-1 -1,-1 -1,-1 0,-1 -1,-1 -1,-1 -1,-1 0,-1 -1,-1 -1,-1 -2,0 -1,1 -1,0 -1,1 0,1 -1,1 -3,3 -1,1 -1,1 -1,0 -1,1 -1,1 -1,0 -1,1 -2,0 0,1 -1,1 -1,0 -1,1 -1,0 -1,1 -1,0 -1,1 -2,0 -1,1 -3,0 -1,1 -3,0 -1,1 -1,0 -1,1 -2,0 -1,1 -1,0 -1,1 -1,0 -1,1 -1,1 -1,0 -1,1Z"/>
<path onmouseover="hoverPath(evt)" onmouseout="recoverPath(evt)" fill="rgb(235,237,231)" d="M  184,186l 0,0 -1,1 1,1 1,1 1,1 1,1 1,1 1,1 1,1 0,3 1,1 1,1 1,1 1,1 1,1 1,1 1,1 0,1 3,0 1,-1 1,-1 1,0 1,-1 -1,-1 0,0 -1,-1 -1,-1 -1,-1 -1,-1 -1,-1 -1,-1 -1,-1 -1,-1 -1,-1 0,-1 -1,-1 -1,-1 -1,-1 -1,-1 -1,-1 -1,-1 -1,-1 -1,1 -1,1Z"/>
<path onmouseover="hoverPath(evt)" onmouseout="recoverPath(evt)" fill="rgb(241,240,232)" d="M  187,102l 0,0 1,1 1,1 1,1 1,1 1,1 1,1 1,1 1,0 1,1 1,1 1,1 1,1 1,1 1,1 1,1 1,1 1,0 1,-1 2,0 1,-1 1,0 1,-1 1,0 1,-1 1,-1 1,-1 2,0 1,-1 1,0 1,-1 1,0 1,-1 1,0 1,-1 1,0 1,-1 2,0 1,-1 1,0 1,-1 -1,-1 0,-1 -1,-1 -1,-1 -1,-1 0,-2 1,-1 1,-1 2,0 1,-1 2,0 1,-1 3,0 1,1 0,2 -1,1 -1,0 -1,1 -1,0 -1,1 0,1 1,1 0,1 2,0 1,-1 1,0 1,-1 1,0 1,-1 1,0 1,-1 1,0 1,-1 2,0 1,-1 1,0 1,-1 1,0 1,-1 3,0 0,-61 -2,0 -1,1 -2,0 -1,1 -6,0 -1,-1 -4,0 -1,-1 -1,0 -1,-1 -1,1 -1,1 -1,0 -1,1 -1,1 -1,0 -1,1 -2,0 0,1 -1,1 -1,0 0,4 1,1 1,0 1,-1 5,0 1,1 0,2 -1,1 -1,1 -2,0 -1,1 -2,0 -1,1 -3,0 -1,1 0,1 1,1 0,0 1,1 0,1 1,1 0,2 -1,1 -1,1 -1,0 -1,1 -1,0 -1,1 -1,0 -1,1 -1,0 -1,1 -1,0 -1,1 -4,0 -1,-1 -1,-1 -1,0 -1,1 -1,1 -1,0 0,1 -1,1 0,1 -1,1 -1,0 -1,1 -1,1 -1,1 -1,1 -1,0 -1,1 -1,1 -3,0 -1,-1 -1,0 -1,1 -1,0 -1,1 -1,1 -2,0 -1,1 -3,0 -1,1 0,1 -1,1 -2,0 -1,1 0,1 -1,1 0,2 1,1 0,0 1,1 0,1 1,1 1,1 1,1 1,1 1,0 1,1 1,1 1,1 1,1 1,1 1,0 1,1 0,1 1,1 1,1 44,-49 1,-1 2,0 1,1 0,1 1,1 0,1 1,1 0,2 -1,1 -2,0 -1,-1 0,-1 -1,-1 0,-1 -1,-1 0,-2 -44,49 61,-53 0,2 -1,1 -2,0 -1,-1 0,-2 1,-1 2,0 1,1 -61,53 46,-31 1,-1 2,0 1,1 0,2 -1,1 -2,0 -1,-1 0,-2 -46,31Z"/>
<path onmouseover="hoverPath(evt)" onmouseout="recoverPath(evt)" fill="rgb(253,253,253)" d="M  228,10l -4,0 -1,-1 -1,-1 0,-1 -1,-1 -1,-1 0,-1 -1,-1 0,-3 -2,0 0,2 1,1 0,0 1,1 0,1 1,1 0,1 1,1 0,3 -1,1 -1,1 3,0 1,-1 1,0 1,-1 2,0 1,-1 -11,3 -1,1 -1,0 -1,1 -2,0 -1,1 -1,0 -1,1 -1,0 -1,1 -2,0 -1,1 -1,0 -1,1 -2,0 -1,1 -1,0 -1,1 -1,0 -1,1 -2,0 -1,1 -2,0 -1,1 -1,0 -1,1 -1,0 -1,1 -1,0 -1,1 -2,0 -1,1 -1,0 -1,1 -1,0 -1,1 -2,0 -1,1 -1,0 -1,1 -1,0 -1,1 2,0 1,-1 2,0 1,-1 1,0 1,-1 2,0 1,-1 1,0 1,-1 1,0 1,-1 2,0 1,-1 1,0 1,-1 2,0 1,-1 1,0 1,-1 2,0 1,-1 2,0 1,-1 1,-1 1,0 1,-1 2,0 1,-1 1,0 1,-1 2,0 1,-1 1,0 1,-1 1,0 1,-1 2,0 0,-2 11,-3Z"/>
<path onmouseover="hoverPath(evt)" onmouseout="recoverPath(evt)" fill="rgb(242,241,232)" d="M  90,242l -1,1 -1,0 -1,1 0,1 -1,1 -1,0 -1,1 -2,0 -1,1 -1,1 -1,0 -1,1 -1,1 -1,0 -2,2 -2,0 0,2 57,0 0,-3 -1,-1 0,-3 1,-1 0,-1 1,-1 1,-1 3,0 1,1 0,7 1,-1 0,-1 1,-1 2,0 1,-1 1,-1 1,-1 1,0 1,-1 1,-1 1,-1 -2,0 -2,-2 -1,-1 -1,-1 -1,-1 -1,-1 0,-2 -1,-1 -1,-1 -1,-1 -1,-1 -1,-1 -1,-1 -1,-1 -1,-1 -1,-1 -1,-1 -1,-1 -1,-1 -1,-1 -1,-1 -2,0 -1,1 -2,0 0,1 -1,1 -1,0 -1,1 -1,1 -1,0 -2,2 -1,0 -1,1 -1,1 -1,0 -1,1 -1,1 -1,0 -1,1 -1,1 -1,0 -1,1 -2,0 0,2 -1,1 -2,0 -1,1 -1,1 -1,0 -1,1 -1,0 -1,1Z"/>
<path onmouseover="hoverPath(evt)" onmouseout="recoverPath(evt)" fill="rgb(243,242,233)" d="M  191,235l 0,4 1,1 0,1 1,1 0,1 1,1 0,2 1,0 1,1 1,1 1,1 0,1 1,-1 0,0 1,-1 1,0 1,-1 1,0 1,-1 1,-1 1,0 1,-1 1,0 1,-1 1,-1 1,0 1,-1 1,-1 1,0 2,-2 1,0 1,-1 1,0 1,-1 -1,-1 0,0 -1,-1 -1,-1 -1,-1 -1,-1 -1,-1 -1,-1 -1,-1 -1,-1 -1,-1 -1,-1 -1,-1 -1,-1 -1,-1 -1,-1 -1,-1 -1,-1 -1,-1 -1,1 0,8 -1,1 -2,0 -1,-1 -1,-1 0,-1 -3,0 -1,-1 -1,0 0,2 1,0 1,1 1,1 0,2 -1,1 -4,0 1,1 0,1 1,1Z"/>
<path onmouseover="hoverPath(evt)" onmouseout="recoverPath(evt)" fill="rgb(244,243,235)" d="M  33,212l 0,0 -1,1 -1,1 -1,1 -1,1 -1,1 -1,1 0,1 3,0 1,1 1,1 1,1 1,1 0,1 1,1 0,1 1,1 1,1 1,0 1,1 1,1 1,1 1,0 1,1 1,1 1,1 4,0 1,1 1,1 0,1 2,0 1,1 0,2 1,0 1,1 0,1 1,1 0,-1 1,-1 0,0 1,-1 1,-1 2,0 1,-1 1,0 1,-1 1,-1 1,0 0,-2 -1,0 -1,-1 -1,-1 -1,0 -1,-1 0,-1 -1,0 -1,-1 -1,-1 -1,0 -1,-1 0,-1 -1,0 -1,-1 -1,-1 -1,-1 -1,0 -1,-1 -1,-1 0,-1 -1,0 -1,-1 -1,-1 -1,-1 -1,-1 -1,-1 -1,0 -1,-1 -1,-1 -1,-1 -1,-1 -5,0 -1,1Z"/>
<path onmouseover="hoverPath(evt)" onmouseout="recoverPath(evt)" fill="rgb(251,251,250)" d="M  147,204l -1,0 -1,1 -1,0 -1,1 -1,0 -1,1 -1,0 -1,1 -1,0 -1,1 -1,1 -1,0 -1,1 -1,0 -1,1 -1,0 -1,1 2,0 1,-1 1,0 1,-1 1,0 1,-1 1,0 1,-1 1,0 1,-1 1,0 1,-1 1,0 1,-1 1,0 1,-1 0,-1 3,0 1,-1 1,0 1,-1 1,-1 1,0 1,-1 1,0 1,-1 2,0 1,-1 4,0 1,1 0,-3 1,-1 1,-1 1,0 1,-1 1,0 1,-1 1,0 1,-1 1,0 1,-1 2,0 1,1 1,1 1,1 1,1 0,1 1,0 1,1 1,1 1,1 1,1 1,1 1,1 1,1 1,1 1,1 1,1 1,1 1,1 1,1 1,1 1,1 1,1 1,1 1,1 1,1 0,2 1,0 1,1 1,1 1,1 1,1 1,1 1,1 1,1 1,1 1,1 1,1 1,1 1,1 1,1 1,1 1,1 1,1 1,1 1,1 1,1 0,1 1,0 1,-1 0,-1 -1,0 -1,-1 -1,-1 -1,-1 -1,-1 -1,-1 -1,-1 -1,-1 0,-2 -1,-1 -1,0 -1,-1 -1,0 -1,-1 -1,-1 0,-1 -1,-1 0,-2 -3,0 -1,-1 -1,-1 -1,-1 -1,-1 -1,-1 -1,-1 -1,-1 -1,-1 -1,-1 0,-1 -1,0 -1,-1 0,-1 -1,-1 -1,-1 -1,-1 -1,-1 -1,-1 -1,-1 -1,-1 0,-1 -1,0 -1,-1 -1,-1 -3,-3 -1,-1 -1,-1 -1,-1 -1,-1 0,-1 -1,0 -1,-1 -1,-1 0,-1 -1,-1 -1,-1 -1,-1 0,-1 -1,0 -1,-1 -1,-1 -1,-1 -1,-1 -1,-1 0,-1 -1,-1 0,-2 -1,-1 -2,0 -1,-1 -1,-1 -1,-1 -1,-1 -1,-1 -1,-1 -1,-1 -1,-1 -1,-1 -1,-1 0,-1 -1,-1 -1,-1 -1,-1 -1,-1 -1,-1 -1,-1 0,-3 1,-1 1,0 1,-1 1,0 1,-1 1,0 1,-1 2,0 1,-1 1,0 1,-1 1,0 1,-1 1,0 1,-1 1,0 1,-1 2,0 2,-2 1,0 1,-1 2,0 1,-1 1,0 1,-1 2,0 1,1 0,-2 1,-1 2,0 1,-1 1,0 1,-1 2,0 0,-1 1,-1 2,0 1,-1 2,0 1,1 0,-2 1,-1 1,0 1,-1 1,0 1,-1 1,0 1,-1 3,0 1,1 1,-1 1,0 1,-1 0,-2 1,-1 1,0 1,-1 1,0 1,-1 5,0 1,1 0,1 1,1 1,1 1,1 0,1 1,0 1,1 1,1 1,1 0,3 -1,1 2,0 1,1 0,2 1,1 1,1 1,1 1,1 2,0 1,1 0,2 2,0 1,1 1,1 0,1 1,0 1,1 1,1 0,4 -1,1 2,-3 3,0 1,1 1,1 1,1 0,2 -1,1 0,2 1,1 0,1 1,1 0,1 1,1 0,1 1,1 -2,-5 0,0 -1,-2 0,-1 1,-1 2,0 1,1 1,1 1,1 1,0 0,-42 -4,0 -1,1 0,0 -1,1 -1,1 -1,1 0,1 1,1 0,1 1,1 0,4 -1,1 -1,1 -2,0 -1,-1 -1,1 0,3 -1,1 -6,0 -1,-1 -1,-1 -1,-1 -1,-1 -1,-1 -1,-1 -1,-1 -1,-1 -1,-1 -1,-1 0,-1 -1,0 -1,-1 -1,-1 -1,-1 -1,-1 0,-3 1,-1 1,0 1,-1 1,0 1,-1 1,0 1,-1 1,0 1,-1 1,0 1,-1 2,0 1,-1 1,0 1,-1 1,0 1,-1 1,0 1,-1 1,0 1,-1 2,0 1,-1 1,0 1,-1 1,0 1,-1 1,0 1,-1 3,0 0,-4 -2,0 -1,1 -1,0 -1,1 -1,0 -1,1 -2,0 -1,1 -1,0 -1,1 -1,0 -1,1 -1,0 -1,1 -1,0 -1,1 -4,0 -1,-1 0,2 -1,1 -1,1 -1,0 -1,1 -2,0 -1,1 -1,0 -1,1 -1,0 -1,1 -1,0 -1,1 -1,0 -1,1 -2,0 -1,1 -1,1 -1,1 -1,0 -1,1 -1,0 -1,1 -2,0 -1,1 -3,0 -1,-1 -1,-1 -1,-1 -1,-1 -1,-1 -1,-1 -1,-1 -1,-1 -1,0 -1,-1 -1,-1 -1,-1 -1,-1 -1,-1 -1,-1 -1,-1 -1,-1 -1,-1 -1,-1 0,-1 -1,0 -1,-1 -1,-1 -1,-1 -1,-1 -1,-1 -1,0 -1,-1 -1,-1 -1,-1 -1,-1 -1,-1 0,-1 -1,-1 -1,-1 -1,0 -1,-1 -1,-1 -1,-1 0,-2 -1,0 -1,-1 -1,-1 0,-2 -1,0 -1,-1 -1,-1 0,-1 -1,-1 -1,-1 -1,-1 0,-1 -1,-1 -1,-1 0,-2 -2,0 0,1 1,1 0,0 1,1 0,4 1,1 2,0 1,1 1,1 0,4 1,1 0,1 1,1 1,1 0,1 1,1 1,1 1,1 3,0 1,1 0,1 1,1 2,0 1,1 3,3 1,1 1,1 1,1 1,1 1,1 0,1 1,0 1,1 1,1 1,1 1,1 1,0 1,1 1,1 1,1 1,1 1,1 1,1 1,1 1,1 1,1 1,1 1,1 1,1 0,3 -1,1 -2,0 -1,1 -1,1 -1,0 -1,1 -1,0 -1,1 -2,0 -1,1 -1,0 -1,1 -1,0 -1,1 -2,0 -1,1 -1,0 -1,1 -1,0 -1,1 -1,1 -1,0 -1,1 -2,0 -1,1 -1,0 -1,1 -1,0 -1,1 -1,0 -1,1 -1,0 -1,1 -1,0 -1,1 -2,0 -1,1 -2,0 -1,-1 0,2 -1,1 -1,0 -1,1 -1,0 -1,1 -1,0 -1,1 -2,0 -1,1 -4,0 -1,-1 -1,-1 1,2 0,2 -1,1 -4,0 -1,-1 0,-2 -1,-1 -1,-1 0,-1 -1,-1 0,1 2,3 1,3 0,2 -1,1 -1,0 -1,1 -2,0 -1,1 -1,0 -1,1 -1,0 -1,1 -1,0 -1,1 -1,0 -1,1 -1,0 -1,1 -3,0 -1,-1 -3,0 -1,1 -1,0 -1,1 -1,0 -2,2 -1,0 -1,1 -1,0 -1,1 -2,0 -1,1 -3,0 -1,-1 0,-1 -1,0 -1,-1 0,-3 1,-1 0,-1 1,-1 1,0 1,-1 1,-1 5,-5 1,-1 -7,6 -1,1 -3,0 -2,2 -1,1 0,1 -1,1 -2,0 -2,2 0,1 1,0 0,-1 1,-1 3,-1 2,0 59,43 -2,0 -52,-37 0,2 -1,1 -1,1 -1,0 -1,1 1,1 1,1 1,0 1,-1 2,0 1,-1 2,0 1,1 0,-2 1,-1 1,0 1,-1 3,0 1,1 1,-1 1,0 1,-1 1,0 0,-2 1,-1 2,0 1,1 0,-2 1,-1 1,0 1,-1 1,0 1,-1 1,0 1,-1 3,0 1,1 1,1 1,1 1,1 1,1 1,1 1,1 1,1 1,0 -1,-1 -1,-1 -1,-1 -1,-1 -1,-1 -1,-1 -1,-1 0,-2 1,-1 1,-1 1,0 1,-1 2,0 1,-1 1,0 1,-1 1,0 1,-1 1,0 1,-1 2,0 1,1 1,1 1,1 1,1 0,1 1,0 1,1 1,1 1,1 1,1 1,1 1,1 0,1 1,1 1,1 1,1 1,1 0,1 1,0 1,1 3,3 0,1 1,1 1,1 1,1 1,1 1,1 0,1 1,0 1,1 1,1 1,1 1,1 1,1 0,1 1,1 0,2 -1,1 -1,1 -1,0 -1,1 -1,0 -1,1 -1,0 -1,1 -2,0 -1,1 -1,0 -1,1 -1,1 -1,0 -1,1 -1,0 -1,1 -1,0 -1,1 -1,0 -1,1 -1,0 -1,1 -1,0 -1,1 1,0 2,-1 8,-4 -65,-31 52,37 85,-102 -1,-1 0,-3 1,-1 1,-1 1,0 1,-1 1,0 -4,1 -1,1 -2,0 -1,1 0,0 1,1 0,0 1,1 -1,-2 0,0 3,4 -85,102 22,0 0,1 1,0 1,1 1,1 0,3 1,1 3,0 -1,-1 0,0 -1,-1 -1,-1 -4,-4Z"/>
<path onmouseover="hoverPath(evt)" onmouseout="recoverPath(evt)" fill="rgb(235,237,234)" d="M  179,60l 0,0 -1,1 1,1 0,1 1,1 1,1 0,1 1,1 1,1 0,1 1,1 1,1 0,2 1,-1 2,0 0,-1 1,-1 1,-1 1,-1 1,-1 1,-1 1,0 1,-1 1,-1 1,-1 0,-1 1,-1 1,-1 -1,-1 0,-1 -1,-1 -1,-1 0,-1 -1,-1 -1,-1 -1,0 -1,1 -1,1 -2,0 -1,1 -1,0 -1,1 -1,0 -1,1 -1,0 -1,1 -1,0 -1,1Z"/>
<path onmouseover="hoverPath(evt)" onmouseout="recoverPath(evt)" fill="rgb(235,237,232)" d="M  208,31l 0,0 1,1 1,0 1,1 1,1 2,0 1,-1 2,0 1,1 1,0 1,1 2,0 0,-1 1,-1 1,0 0,-1 1,-1 2,0 1,-1 1,-1 1,0 0,-1 1,-1 2,0 0,-4 1,-1 0,-9 1,-1 -2,0 -1,-1 0,-2 -1,0 0,2 -1,1 -1,0 -1,1 -2,0 -1,1 -1,0 -1,1 -2,0 -1,1 -1,0 -1,1 -2,0 -1,1 -1,0 -1,1 -1,0 -1,1 -2,0 -1,1 -1,0 -1,1 -2,0 -1,1 -1,0 -1,1 -1,1 -2,0 -1,1 1,0 1,1 1,0 1,1 1,0 1,1 1,0 1,1 1,0 1,1Z"/>
<path onmouseover="hoverPath(evt)" onmouseout="recoverPath(evt)" fill="rgb(242,240,230)" d="M  221,164l 1,1 0,3 2,0 1,1 0,1 2,0 1,1 1,1 0,2 -1,1 1,1 0,0 1,1 1,1 0,1 1,1 1,1 5,0 1,-1 1,0 1,-1 1,0 1,-1 1,0 1,-1 1,0 1,-1 1,0 1,-1 1,0 1,-1 1,0 1,-1 2,0 0,-14 -2,0 -1,-1 -1,-1 -1,-1 1,2 0,1 1,1 0,1 1,1 0,2 -1,1 -2,0 -1,-1 -1,-1 0,-1 -1,-1 0,-1 -1,-1 0,-1 -1,-1 0,-4 1,-1 -1,-1 -1,-1 -1,0 0,1 -1,1 -1,1 -2,0 -1,-1 0,-2 1,-1 0,-2 -1,-1 -1,0 -1,-1 0,-1 -1,-1 -1,1 -1,0 -1,1 -1,0 -1,1 -1,0 -1,1 -1,1 -1,0 -1,1 -1,0 -1,1 -1,1 -1,0 -1,1 -2,0 -1,-1 -1,1 -5,0 1,1 0,1 2,0 1,1 0,1 1,1 1,1 1,1 1,1 1,1 1,1 0,2 16,-11 0,2 -1,1 -2,0 -1,-1 0,-2 1,-1 2,0 1,1 -16,11 4,-4 0,-2 1,-1 2,0 1,1 0,2 -1,1 -2,0 -1,-1 -4,4Z"/>
<path onmouseover="hoverPath(evt)" onmouseout="recoverPath(evt)" fill="rgb(240,239,229)" d="M  226,115l -1,0 -1,1 -1,0 0,1 1,1 0,0 1,1 1,1 1,0 1,1 0,1 1,1 1,1 1,1 1,1 1,1 1,1 1,1 1,1 1,1 4,0 0,-3 1,-1 1,-1 2,0 1,1 1,-1 0,-2 -1,-1 0,-1 -1,-1 0,-3 1,-1 3,-3 1,-1 5,0 0,-11 -2,0 -1,1 -1,0 -1,1 -1,0 -1,1 -1,0 -1,1 -2,0 -1,1 -1,0 -1,1 -1,0 -1,1 -1,0 -1,1 -1,0 -1,1 -2,0 -1,1 -1,0 -1,1 -1,0 -1,1 -1,0 -1,1Z"/>
<path onmouseover="hoverPath(evt)" onmouseout="recoverPath(evt)" fill="rgb(243,242,234)" d="M  6,116l -2,0 -1,-1 0,-4 1,-1 1,-1 1,-1 1,-1 1,0 1,-1 0,-1 1,-1 -1,-1 0,0 -1,-1 -1,-1 -1,-1 -1,-1 -1,0 -1,-1 0,-1 -1,-1 0,-1 -2,0 0,30 2,0 1,-1 1,0 1,-1 0,-2 1,-1 1,-1 2,0 0,-3Z"/>
<path onmouseover="hoverPath(evt)" onmouseout="recoverPath(evt)" fill="rgb(244,237,162)" d="M  18,118l 3,0 1,1 4,0 1,1 2,0 1,1 0,1 1,1 1,1 1,1 1,1 1,1 1,1 1,1 1,1 1,1 1,0 1,1 0,1 1,1 0,2 -1,1 -1,1 0,2 -1,1 -1,1 0,2 -1,1 -1,1 -1,1 -2,0 -1,-1 -1,1 0,0 -1,1 -1,1 0,1 -1,1 0,1 -1,1 2,-1 1,0 1,-1 1,0 1,-1 1,0 1,-1 1,-1 1,0 1,-1 1,-1 1,-1 1,0 1,-1 1,-1 1,-1 1,0 1,-1 3,0 1,1 0,1 1,1 1,1 1,1 1,1 1,1 1,0 1,1 0,1 1,1 1,1 1,1 1,1 1,1 0,1 2,2 1,1 1,1 1,1 1,1 1,1 1,1 1,1 1,1 1,1 1,1 1,1 1,1 0,2 -2,2 0,1 -1,1 0,1 -1,1 -1,1 3,-2 1,0 1,-1 2,0 1,-1 3,0 1,1 1,1 1,1 0,1 2,0 1,1 1,1 1,1 1,1 1,1 0,3 1,1 1,1 1,1 0,2 3,0 1,1 0,1 1,1 1,1 1,1 0,1 1,1 0,1 1,1 1,0 1,1 1,0 1,1 0,1 1,1 1,1 1,1 1,1 1,1 1,1 1,1 1,0 1,1 0,1 1,1 0,3 -1,1 -1,1 2,0 1,1 1,0 1,-1 4,0 1,1 1,1 1,1 1,1 1,1 1,1 1,1 1,1 1,1 1,1 1,1 1,1 1,1 1,1 1,1 0,2 1,1 1,1 1,1 1,1 1,1 2,0 1,1 0,2 -1,1 -3,3 -1,0 -2,2 -1,1 -2,0 0,1 -1,1 -1,1 -2,0 -1,-1 0,-7 -1,0 -1,1 0,1 -1,1 0,1 1,1 0,4 38,0 0,-1 -1,-1 0,0 -1,-1 -1,-1 0,-2 1,-1 0,-2 1,-1 1,0 1,-1 -3,0 -1,-1 0,-1 -1,-1 0,-2 -1,-1 0,2 1,2 1,2 0,4 -1,1 -2,0 -1,-1 -1,-1 0,-1 -1,0 -1,-1 0,-1 -1,-1 -1,-1 -1,-1 -1,-1 -1,-1 -1,-1 -1,-1 -1,-1 -1,-1 -1,-1 -1,-1 -1,-1 -1,-1 -1,-1 -1,-1 -1,-1 -1,-1 -1,-1 -1,-1 -2,0 -1,-1 0,-2 1,-1 -2,0 -1,-1 -1,-1 -1,-1 -1,-1 0,-2 -4,0 -1,-1 0,-1 -1,0 -1,-1 0,-3 -1,-1 -1,-1 -1,-1 -1,-1 -1,-1 0,-3 -1,-1 -1,1 -2,0 -1,-1 0,-1 -1,-1 -1,-1 -1,-1 -1,-1 -1,-1 -1,0 -1,-1 0,-1 -1,-1 -1,-1 -1,-1 0,-1 -1,-1 -1,-1 -1,-1 -1,-1 -1,-1 -1,-1 -1,-1 -1,-1 -1,-1 -1,-1 -1,0 -1,-1 0,-1 -1,0 -1,-1 -1,-1 -1,-1 0,-2 1,-1 1,-1 1,0 1,-1 -1,-1 -1,0 -1,-1 -1,-1 0,-2 -2,0 -1,1 0,1 -1,1 -3,0 -1,-1 0,-2 -1,0 -1,-1 -1,-1 0,-1 -1,-1 0,-2 -2,0 -1,-1 -1,0 -1,-1 -1,-1 -1,-1 0,-1 -1,-1 -1,-1 -1,-1 -1,-1 -1,-1 -1,-1 -1,-1 -1,-1 -1,0 -1,-1 0,-1 -1,-1 -1,-1 -1,-1 -1,-1 0,-1 -1,-1 -1,-1 -1,-1 -1,-1 -1,-1 -1,-1 -1,-1 -1,-1 -1,-1 -1,-1 -1,-1 -1,-1 -1,0 -1,-1 0,-1 -1,-1 -1,-1 -1,-1 -1,-1 -1,-1 0,-1 -1,-1 -1,-1 0,-2 -2,0 -1,1 -4,0 -1,-1 0,-3 -3,0 -1,-1 0,-3 -1,-1 0,-1 -1,-1 -1,-1 -1,-1 0,-2 1,-1 8,0 0,-2 -1,0 -1,-1 0,-1 -1,0 -1,-1 -1,0 -1,-1 -2,0 -1,-1 -1,-1 -2,0 -1,-1 1,2 0,1 -1,1 -3,0 -1,-1 -1,0 -1,-1 -1,-1 -1,-1 -1,-1 -1,-1 0,-3 1,-1 -1,0 -1,-1 -1,0 -1,-1 -1,-1 -1,0 0,13 3,0 1,1 0,1 1,1 0,1 1,0 1,1 1,1 1,1 1,1 1,1 1,1 0,2 -1,1 0,1 -1,1 -1,1 -1,0 -1,1 -1,1 -1,1 0,2 5,0 1,1 0,5 2,0 1,-1 1,0 1,-1 2,0 77,75 -1,0 -1,1 -2,0 -1,-1 -1,-1 1,2 4,0 1,-1 -77,-75 -9,3 -1,0 -1,1 0,2 -1,1 -1,1 -1,0 -1,1 -3,0 0,2 1,0 1,-1 1,0 1,-1 2,0 1,1 1,0 0,-2 1,-1 0,-4 9,-3Z"/>
<path onmouseover="hoverPath(evt)" onmouseout="recoverPath(evt)" fill="rgb(243,242,234)" d="M  25,181l -2,0 -1,-1 -1,0 -1,-1 -1,0 -1,-1 -1,-1 -1,-1 -1,-1 0,-2 1,-1 1,-1 2,0 1,-1 1,-1 1,0 1,-1 1,0 1,-1 2,0 1,1 1,0 1,1 0,1 1,0 1,-1 0,0 1,-1 4,0 1,1 1,1 0,3 -1,1 -1,1 -1,1 -2,2 -1,1 -5,0 -1,1 -1,0 -1,1 -12,-4 1,1 0,1 1,1 1,1 1,0 1,1 1,1 1,1 1,0 1,1 1,1 1,1 1,0 1,1 1,1 1,1 1,1 1,0 1,1 1,1 1,1 1,0 1,1 3,0 1,-1 1,0 0,-2 1,-1 1,0 1,-1 2,0 1,1 1,-1 1,0 1,-1 1,0 1,-1 2,0 1,-1 1,0 1,-1 1,0 1,-1 1,0 1,-1 1,0 1,-1 1,0 0,-2 1,-1 1,0 1,-1 1,0 1,-1 1,0 2,-2 0,-1 1,-1 0,-1 1,-1 1,-1 -1,-1 0,0 -1,-1 -1,-1 -1,-1 -1,-1 -1,-1 -1,-1 -1,-1 -1,-1 -1,-1 -1,-1 -1,-1 -1,-1 -1,-1 0,-1 -1,-1 -3,-3 -1,-1 0,-1 -1,0 -1,-1 -3,-3 -1,-1 -1,-1 0,-1 -1,0 -1,1 -1,0 -1,1 -1,1 -1,1 -1,0 -1,1 -1,1 -1,1 -1,0 -1,1 -1,1 -1,0 -1,1 -1,0 -1,1 -2,0 -1,1 -2,0 -1,-1 0,-2 1,-1 0,-1 1,-1 0,-1 1,-1 1,-1 1,-1 1,-1 2,0 1,1 1,-1 1,-1 0,-2 1,-1 1,-1 0,-2 1,-1 1,-1 -1,-1 0,-1 -1,0 -3,-3 -1,-1 -6,-6 0,-1 -2,0 -1,-1 -4,0 -1,-1 -3,0 -1,1 -1,0 -1,1 -1,0 -1,1 -1,0 0,3 -1,1 0,2 -1,1 -3,0 -1,-1 -1,1 -1,0 -1,1 -2,0 0,39 2,0 1,1 2,0 1,1 0,1 1,1 2,0 1,1 0,1 1,1 2,0 12,4Z"/>
<path onmouseover="hoverPath(evt)" onmouseout="recoverPath(evt)" fill="rgb(170,198,237)" d="M  115,36l 0,0 -1,1 1,1 1,1 1,1 0,1 1,1 1,1 0,1 1,1 1,1 0,1 1,1 1,1 1,1 0,1 1,1 1,1 0,1 1,1 1,1 0,1 1,1 1,1 1,1 0,1 1,1 1,1 0,1 1,1 1,1 0,1 1,1 1,1 1,1 0,1 1,1 1,1 0,1 1,1 1,1 0,1 1,1 1,1 0,1 1,1 1,1 0,1 1,1 1,1 1,1 0,1 1,1 1,1 0,1 1,1 1,1 0,1 1,1 0,1 1,1 0,1 1,1 1,1 0,6 -1,1 0,1 -1,1 0,1 -1,1 0,1 -1,1 0,1 -1,1 -1,1 -1,1 -1,1 0,1 -1,1 1,0 1,-1 1,-1 1,-1 1,-1 1,-1 0,-1 1,-1 1,-1 1,0 1,-1 4,0 1,1 1,1 1,1 0,1 1,1 1,1 1,1 0,1 3,3 0,1 1,1 1,1 1,1 0,1 1,1 1,1 1,1 1,-1 1,0 1,-1 0,-1 -1,-1 0,-1 -1,-1 -1,-1 0,-1 -1,-1 -1,-1 0,-1 -1,-1 -1,-1 0,-1 -1,-1 -1,-1 0,-1 -1,-1 -1,-1 0,-2 -1,0 -1,-1 0,-1 -1,-1 -1,-1 0,-5 1,-1 1,-1 0,-1 1,-1 0,-2 -1,1 0,0 -1,1 0,1 -1,1 -1,1 -4,0 -1,-1 -1,-1 0,-1 -1,-1 -1,-1 0,-1 -1,-1 -1,-1 -1,-1 0,-2 -1,0 -1,-1 0,-1 -1,-1 -1,-1 0,-1 -1,-1 -1,-1 0,-1 -1,-1 -1,-1 -1,-1 0,-2 -1,0 -1,-1 0,-1 -1,-1 -1,-1 0,-1 -1,-1 -1,-1 -1,-1 0,-2 -1,0 -1,-1 0,-1 -1,-1 -1,-1 0,-1 -1,-1 -1,-1 0,-1 -1,-1 -1,-1 -1,-1 0,-1 -1,-1 -1,-1 0,-1 -1,-1 -1,-1 0,-1 -1,-1 -1,-1 -1,-1 0,-1 -1,-1 -1,-1 0,-1 -1,-1 -1,-1 0,-1 -2,0 32,83 -1,0 -1,1 -1,0 -1,1 -1,1 -1,0 0,1 -1,1 -2,0 -1,1 -1,0 -1,1 -1,1 -4,0 -1,1 -4,0 -1,1 -2,0 -1,1 -2,0 -1,1 -2,0 0,1 -1,1 -1,0 -1,1 -1,0 -2,2 -1,1 -1,1 -1,1 0,1 1,0 1,-1 1,0 0,-1 1,-1 1,-1 1,-1 1,0 1,-1 1,-1 1,0 1,-1 1,0 1,-1 2,0 1,-1 1,0 1,-1 3,0 -6,1 -3,1 -5,3 -2,1 -1,1 -1,1 -2,2 22,-11 2,0 3,-1 1,-1 1,0 1,-1 1,0 2,-1 2,-2 1,0 1,-1 1,0 1,-1 0,-1 -32,-83Z"/>
<path onmouseover="hoverPath(evt)" onmouseout="recoverPath(evt)" fill="rgb(240,240,230)" d="M  186,125l 0,0 1,-1 2,0 1,-1 1,0 1,-1 1,0 1,-1 1,-1 2,0 0,-1 -1,-1 0,0 -1,-1 -1,-1 -1,-1 -1,-1 -1,-1 -1,-1 -1,-1 -1,-1 -1,-1 -1,-1 -1,0 -1,-1 -1,-1 -1,-1 -1,-1 -1,0 -1,-1 0,-1 -1,-1 -1,-1 -1,-1 -1,-1 -1,-1 -1,-1 -1,-1 -1,-1 -1,0 0,2 -1,1 0,1 -2,2 0,3 2,2 0,1 1,0 1,1 0,2 1,1 1,1 0,1 1,1 1,1 0,1 1,1 1,1 0,1 1,1 1,1 0,1 1,1 1,1 0,1 1,1 0,2 1,-1 1,0 1,-1Z"/>
<path onmouseover="hoverPath(evt)" onmouseout="recoverPath(evt)" fill="rgb(243,241,232)" d="M  190,132l -2,0 0,1 1,1 0,0 1,1 0,1 1,1 1,1 0,1 1,1 1,1 1,1 0,1 1,1 1,1 1,1 0,1 1,1 1,1 1,1 0,1 1,1 1,1 1,1 1,1 0,1 1,1 1,1 1,1 1,1 0,1 1,1 1,1 0,1 1,1 1,1 1,1 0,1 1,1 1,1 1,1 0,1 1,1 1,1 0,1 1,1 1,1 1,1 1,1 1,1 1,1 1,1 1,1 1,1 1,1 0,1 1,1 1,1 1,1 1,1 1,1 1,1 1,1 1,1 1,1 1,1 0,1 1,1 1,0 1,1 4,0 1,-1 1,0 1,-1 1,-1 1,0 1,-1 1,-1 2,0 0,-19 -1,0 -1,1 -1,0 -1,1 -1,0 -1,1 -1,0 -1,1 -1,0 -1,1 -1,0 -1,1 -1,0 -1,1 -1,0 -1,1 -7,0 -1,-1 -1,-1 -1,-1 0,-1 -1,-1 -1,-1 -1,-1 0,-2 1,-1 -1,-1 -2,0 -1,-1 0,-1 -2,0 -1,-1 0,-3 -1,-1 0,-2 -1,-1 -1,-1 -1,-1 -1,-1 -1,-1 -1,-1 0,-1 -2,0 -1,-1 0,-1 -1,-1 0,-2 1,-1 5,0 1,-1 1,0 1,-1 2,0 1,1 1,-1 0,-2 1,-1 2,0 1,1 1,-1 0,-2 1,-1 2,0 1,1 0,-2 1,-1 -2,0 -1,-1 -1,-1 -1,-1 -1,-1 -1,-1 0,-2 -3,0 -1,-1 0,-2 1,-1 1,0 0,-1 -1,-1 -1,-1 -1,0 -1,-1 0,-1 -2,-2 -1,-1 0,-1 -3,0 -1,1 -1,0 -1,1 -1,0 0,2 -1,1 -1,1 -1,0 -1,1 -2,0 -1,-1 -1,0 -1,1 -1,0 -1,1 -1,0 -1,1 -1,0 0,2 -1,1 -2,0 -1,-1 -1,1 26,3 0,2 -1,1 -2,0 -1,-1 0,-2 1,-1 2,0 1,1 -26,-3Z"/>
<path onmouseover="hoverPath(evt)" onmouseout="recoverPath(evt)" fill="rgb(249,239,141)" d="M  198,252l -1,0 -1,-1 0,-1 -2,-2 -1,0 4,5 0,2 15,0 0,-3 1,-1 1,-1 2,0 1,1 0,-2 1,-1 1,0 1,-1 1,-1 1,0 1,-1 1,-1 2,0 1,1 0,-1 1,-1 1,0 1,-1 1,-1 3,0 1,1 0,-2 1,-1 1,0 1,-1 2,0 1,-1 1,-1 1,0 1,-1 1,-1 1,0 1,-1 1,-1 1,0 1,-1 1,0 1,-1 3,0 0,-10 -3,0 -1,1 -1,1 -1,0 -1,1 -1,0 -1,1 -1,0 -1,1 -1,1 -1,0 -1,1 -1,0 -1,1 -1,0 -1,1 -1,0 -1,1 -1,1 -1,0 -1,1 -1,0 -1,1 -1,1 -3,0 0,2 -2,2 -3,0 -1,1 -1,0 -1,1 -1,0 -1,1 -1,1 -1,0 -1,1 -1,1 -1,0 -2,2 -1,0 -1,1 -1,0 -1,1 -1,1 -1,0 -1,1 -1,0 -1,1 -1,1Z"/>
<path onmouseover="hoverPath(evt)" onmouseout="recoverPath(evt)" fill="rgb(243,241,232)" d="M  203,205l 0,0 -1,1 -1,1 -2,0 1,1 0,0 1,1 1,1 1,1 1,1 1,1 1,1 1,1 2,0 1,-1 0,0 1,-1 2,0 1,1 1,-1 1,0 1,-1 1,-1 1,0 1,-1 0,-1 -1,-1 0,-1 -1,-1 -1,-1 0,-2 -1,0 -1,-1 -1,-1 -1,-1 0,-2 -1,0 -1,-1 -1,-1 -1,-1 -2,0 -1,-1 -1,-1 0,-2 1,-1 -1,-1 0,0 -1,-1 -1,-1 -1,-1 -1,-1 -1,-1 0,-1 -1,0 -1,-1 0,-2 -1,0 -1,-1 -1,-1 -1,-1 -1,-1 -1,-1 -1,-1 -1,-1 -1,-1 -1,-1 -1,-1 -1,-1 -1,-1 -1,-1 0,-1 -1,-1 -1,0 -1,-1 0,-1 -1,-1 0,-1 -1,0 -1,-1 -1,-1 0,-1 -1,0 -1,-1 -1,-1 -1,-1 -1,-1 -1,-1 -1,-1 -1,-1 -1,-1 -1,-1 -1,-1 11,12 0,2 -1,1 -1,0 -1,1 -1,1 -1,0 -1,1 -1,1 -1,0 -1,1 0,2 -1,1 0,1 1,1 0,1 1,1 1,1 1,1 1,1 1,0 1,1 0,1 1,1 1,1 1,1 0,1 1,1 1,0 1,1 0,1 1,1 1,1 1,1 1,1 1,1 1,1 1,1 1,1 -7,-8 0,-1 1,-1 1,-1 1,0 1,-1 1,-1 2,0 1,1 1,1 1,1 1,1 1,1 1,1 1,1 1,1 0,1 1,1 1,1 1,1 1,1 1,1 1,1 1,1 1,1 1,1 1,1 0,2 -1,1 -1,1Z"/>
<path onmouseover="hoverPath(evt)" onmouseout="recoverPath(evt)" fill="rgb(244,242,233)" d="M  237,255l 18,0 0,-23 -2,0 -1,1 -1,0 -1,1 -1,0 -1,1 -1,1 -1,0 -1,1 -1,1 -1,0 -1,1 -1,1 -2,0 -1,1 -1,0 0,1 1,1 0,0 1,1 1,1 1,1 0,2 -1,1 -2,0 -1,-1 -1,-1 -1,-1 -1,-1 -1,-1 0,-1 -1,0 -1,1 -1,1 -1,0 0,1 -1,1 -2,0 -1,-1 -1,1 -1,1 -1,0 -1,1 -1,1 -1,0 0,2 -1,1 -2,0 -1,-1 -1,1 0,2Z"/>
<path onmouseover="hoverPath(evt)" onmouseout="recoverPath(evt)" fill="rgb(242,240,231)" d="M  234,8l 0,2 2,0 1,1 0,1 1,1 1,-1 3,0 1,1 1,1 1,1 0,1 1,1 1,1 1,1 0,1 1,1 1,1 1,1 0,1 1,1 1,1 1,1 0,1 1,0 0,-28 -34,0 0,2 1,1 0,1 1,1 1,1 0,1 1,1 4,0 1,-1 3,0 1,1Z"/>
<path onmouseover="hoverPath(evt)" onmouseout="recoverPath(evt)" fill="rgb(241,240,229)" d="M  9,189l 0,0 -1,-1 -1,-1 -1,-1 -1,0 -1,-1 0,-1 -1,0 -1,-1 -1,-1 -1,0 0,30 2,0 1,1 1,0 1,-1 1,0 1,-1 1,0 1,-1 1,0 0,-2 1,-1 1,0 1,-1 1,-1 2,0 -1,-1 0,0 -1,-1 -1,-1 -1,-1 -1,0 -1,-1 0,-3 1,-1 3,0 1,1 0,1 1,1 1,1 1,1 1,1 1,0 1,1 1,-1 2,0 1,-1 1,0 0,-1 -1,0 -1,-1 -1,-1 -1,-1 -1,0 -1,-1 -1,-1 -1,-1 -1,0 -1,-1 -1,-1 -1,-1 -1,0 -1,-1 -1,0 -1,-1Z"/>
<path onmouseover="hoverPath(evt)" onmouseout="recoverPath(evt)" fill="rgb(170,198,238)" d="M  17,174l 2,2 1,1 1,0 1,1 1,0 1,1 1,-1 1,0 1,-1 5,0 1,-1 1,-1 1,-1 1,-1 1,-1 0,-1 -1,-1 -2,0 -1,1 0,0 -1,1 -3,0 -1,-1 0,-1 -1,0 -1,-1 -1,1 -1,0 -1,1 -1,0 -1,1 -1,1 -2,0 -1,1Z"/>
<path onmouseover="hoverPath(evt)" onmouseout="recoverPath(evt)" fill="rgb(173,199,236)" d="M  35,205l -1,1 0,2 -1,1 -1,1 -2,0 0,1 -1,1 -1,0 0,1 -1,1 -1,1 -1,0 0,1 1,0 1,-1 0,0 1,-1 1,-1 1,-1 1,-1 3,-2 6,0 1,1 1,1 1,1 1,1 1,0 1,1 1,1 1,1 1,1 1,1 0,-1 -1,-1 0,0 -1,-1 0,-1 -1,-1 -3,-3 -1,-1 0,-2 1,-1 0,-1 1,-1 0,-1 1,-1 -1,0 -1,2 -1,0 -1,1 -3,0 -1,-1 -1,0 -1,1Z"/>
<path onmouseover="hoverPath(evt)" onmouseout="recoverPath(evt)" fill="rgb(242,241,232)" d="M  62,254l -1,0 -1,-1 0,-1 -1,-1 -1,-1 -1,0 -1,-1 -1,-1 -1,-1 -1,0 -1,-1 -1,-1 -1,1 -2,0 -1,-1 0,-3 -1,-1 -1,0 -1,-1 -1,-1 -1,-1 -1,-1 -1,0 -1,-1 -1,-1 -1,-1 -4,0 -1,-1 -1,-1 0,-1 -2,0 -1,-1 -1,0 -1,-1 -1,-1 0,-1 -1,-1 0,-2 -4,0 -1,1 0,0 -1,1 -1,1 0,1 -1,1 -1,0 -1,1 -1,1 -1,1 -1,1 -1,1 -1,1 -1,1 -1,1 -1,1 -1,1 -1,1 -1,1 -1,1 -2,0 0,13 61,0 1,-1Z"/>
<path onmouseover="hoverPath(evt)" onmouseout="recoverPath(evt)" fill="rgb(238,239,232)" d="M  151,70l 0,0 -1,-1 0,-2 -2,0 -1,-1 0,-2 -1,-1 -1,0 -1,-1 -1,0 -1,1 -1,0 -1,1 -1,0 0,1 1,1 0,0 1,1 1,1 0,1 1,1 1,1 0,1 1,0 1,1 0,2 1,1 1,1 1,1 0,1 1,1 1,1 0,1 1,1 1,1 0,1 1,0 1,1 0,2 1,1 1,1 1,1 0,1 1,1 1,1 0,1 1,1 2,0 1,-1 0,-1 2,-2 1,-1 -3,0 -1,-1 -1,-1 -1,-1 -1,-1 0,-1 -1,-1 -1,-1 0,-1 -1,-1 0,-4 -1,-1 -2,0 -1,-1 -1,-1 0,-4 -1,-1Z"/>
<path onmouseover="hoverPath(evt)" onmouseout="recoverPath(evt)" fill="rgb(242,241,234)" d="M  178,58l 1,0 1,-1 1,0 1,-1 1,0 1,-1 1,0 1,-1 1,0 1,-1 2,0 1,-1 1,-1 3,0 1,1 1,1 1,1 0,1 1,1 1,1 0,1 1,0 0,-1 1,-1 1,0 1,-1 1,-1 1,-1 1,-1 2,0 0,-1 1,-1 1,-1 1,0 1,-1 1,0 1,-1 1,0 1,-1 1,0 1,-1 0,-1 -1,-1 0,-1 -1,-1 0,-2 -1,-1 -1,-1 -1,-1 -3,0 -1,-1 -1,-1 -1,0 -1,-1 -1,0 -1,-1 -1,0 -1,-1 -1,0 -1,-1 -1,0 -1,-1 -1,0 -1,-1 -3,0 -1,-1 -1,1 -2,0 -1,1 -1,0 -1,1 -2,0 -1,1 -1,0 -1,1 -1,0 -1,1 -2,0 -1,1 -1,0 -1,1 -2,0 -1,1 -4,0 -1,-1 0,-2 1,-1 1,-1 1,0 1,-1 1,0 1,-1 2,0 1,-1 1,0 1,-1 1,0 1,-1 2,0 1,-1 1,0 1,-1 1,0 1,-1 1,0 1,-1 2,0 1,-1 2,0 1,-1 1,0 1,-1 1,0 1,-1 2,0 1,-1 1,0 1,-1 2,0 1,-1 1,0 1,-1 1,0 1,-1 2,0 1,-1 1,0 1,-1 2,0 1,-1 0,-1 -1,-1 0,-1 -1,-1 0,-1 -1,-1 -1,-1 0,-3 -70,0 0,2 -1,1 -1,0 -1,1 -1,0 -1,1 -1,0 -1,1 -1,0 -1,1 -2,0 -1,1 -1,0 -1,1 -1,0 -1,1 -2,0 -1,-1 -1,0 0,4 -1,1 -6,0 0,2 -1,1 -3,0 -1,-1 -4,0 -1,1 -3,0 -1,1 2,0 1,1 1,0 1,1 1,1 0,3 1,0 1,1 1,1 1,1 0,1 1,1 0,1 1,1 1,1 0,2 1,0 1,1 0,1 1,1 1,1 0,1 1,1 1,1 0,1 1,1 1,1 1,1 0,1 1,1 1,1 0,1 1,1 1,1 0,1 1,1 1,1 1,1 0,1 1,1 1,1 0,1 1,1 1,1 0,1 2,0 1,-1 1,0 1,-1 3,0 1,1 1,0 1,1 1,1 0,2 6,0 1,1 0,2 1,1 1,1 0,1 1,1 1,1 1,1 0,1 1,1 0,-2 1,-1 1,-1 1,-1 1,0 1,-1 1,-1 1,0 1,-1 1,-1 4,0 1,1 1,1 1,1 1,1 0,1 1,1 1,1 0,1 1,0 1,-1 0,-2 -1,-1 0,0 -1,-1 0,-1 -1,-1 -1,-1 0,-1 -1,-1 -1,-1 0,-1 -1,-1 0,-2 2,-2Z"/>
<path onmouseover="hoverPath(evt)" onmouseout="recoverPath(evt)" fill="rgb(236,238,234)" d="M  241,14l -1,0 0,7 -1,1 0,3 -1,1 0,3 -1,1 0,1 1,0 1,1 4,0 1,1 4,0 1,-1 2,0 1,-1 3,0 0,-1 -2,0 -1,-1 0,-1 -1,-1 -1,-1 -1,-1 0,-1 -1,-1 -1,-1 -1,-1 0,-1 -1,-1 -1,-1 -1,-1 0,-1 -2,-2Z"/>
<path onmouseover="hoverPath(evt)" onmouseout="recoverPath(evt)" fill="rgb(247,248,246)" d="M  0,215l 0,12 1,0 1,-1 1,-1 1,0 0,-1 1,-1 2,-2 1,-1 1,-1 1,-1 1,-1 1,-1 1,-1 1,-1 4,0 1,1 1,1 1,1 0,2 -1,1 0,1 -1,1 -1,1 -2,2 -1,1 -5,5 -1,1 -5,5 -1,1 -1,1 -2,0 0,1 1,0 14,-13 5,-5 5,0 1,1 0,2 1,1 0,1 1,1 1,0 1,1 2,0 1,1 0,1 1,1 4,0 1,1 1,1 1,1 1,0 1,1 1,1 1,1 1,1 1,0 1,1 1,1 0,3 1,-1 2,0 1,1 1,1 1,0 1,1 1,1 1,1 1,0 1,1 1,1 1,1 0,1 1,0 1,1 0,2 6,0 0,-3 1,-1 2,0 1,-1 1,-1 1,0 1,-1 1,-1 1,0 1,-1 1,-1 2,0 1,-1 1,0 0,-1 1,-1 1,-1 1,0 1,-1 1,-1 1,0 1,-1 1,0 1,-1 1,-1 2,0 0,-2 1,-1 2,0 1,-1 1,0 2,-2 1,0 2,-2 1,0 2,-2 1,0 1,-1 1,-1 1,0 1,-1 1,-1 1,0 0,-1 -1,0 -1,1 -1,0 -1,1 -1,1 -1,0 -1,1 -1,1 -1,0 -1,1 -1,1 -1,0 -1,1 -1,1 -1,0 -1,1 -1,1 -2,0 -1,-1 0,2 -1,1 -1,1 -2,0 -1,-1 -1,0 0,3 -1,1 -1,1 -1,0 -1,1 -1,1 -1,0 -2,2 -3,0 -1,-1 0,-1 -1,-1 -1,-1 -1,0 0,1 1,1 0,0 1,1 1,1 0,2 -1,1 -1,1 -2,0 0,1 -1,1 -4,0 0,2 -1,1 -4,0 -2,-2 0,-1 -2,0 -1,-1 -1,-1 -1,-1 0,-1 -2,0 -1,-1 -1,-1 0,-1 -1,0 -1,-1 0,-2 -2,0 -1,-1 0,-1 -1,-1 -4,0 -1,-1 -1,-1 -1,-1 -1,0 -2,-2 -1,-1 -1,0 -1,-1 -1,-1 -1,-1 0,-1 -1,-1 0,-1 -1,-1 -1,-1 -1,-1 -3,0 -1,-1 -1,-1 0,-1 -1,-1 0,-3 1,-1 1,0 1,-1 0,-1 1,-1 1,0 0,-1 1,-1 2,0 1,-1 0,-2 2,-2 1,0 1,-1 3,0 1,1 1,0 1,-1 1,0 0,-1 1,-1 2,0 2,-2 1,0 1,-1 1,0 1,-1 1,0 0,-2 1,-1 1,0 1,-1 1,0 1,-1 1,0 1,-1 1,0 1,-1 1,0 1,-1 1,0 1,-1 1,0 1,-1 2,0 1,-1 1,0 1,-1 2,0 1,1 1,-1 1,0 0,-2 1,-1 1,0 1,-1 1,0 1,-1 -1,-1 0,0 -1,-1 -1,0 -1,1 -2,0 -1,1 -2,0 -1,1 -1,1 -2,0 -1,-1 -1,1 -1,0 -1,1 -1,0 0,2 -1,1 -1,0 -1,1 -1,0 -1,1 -1,0 -1,1 -1,0 -1,1 -1,0 -1,1 -2,0 -1,1 -1,0 -1,1 -1,0 -1,1 -2,0 -1,-1 -1,1 -1,0 0,2 -1,1 -1,0 -1,1 -5,0 -1,-1 0,3 -1,1 -1,0 -1,1 -2,0 0,1 -1,1 -1,0 -1,1 -2,0 -1,1 -2,0 -1,-1 -1,0 -1,-1 -1,-1 -1,-1 -1,-1 -1,-1 0,-1 -1,0 0,1 6,6 0,1 -1,1 -2,0 -2,2 -1,0 0,2 -1,1 -1,0 -1,1 -1,0 -1,1 -1,0 -1,1 -3,0 -1,-1 -1,1Z"/>
<path onmouseover="hoverPath(evt)" onmouseout="recoverPath(evt)" fill="rgb(236,238,234)" d="M  31,33l 0,2 -1,1 1,1 2,0 1,1 3,0 1,-1 1,0 1,-1 2,0 1,-1 1,0 1,-1 1,0 1,-1 1,0 1,-1 1,0 1,-1 1,0 -1,-1 0,-3 1,-1 1,-1 3,0 1,-1 2,0 1,1 0,2 1,0 1,-1 0,-2 1,-1 -1,-1 0,-1 -1,-1 0,-1 -1,-1 -2,0 -1,-1 0,-1 -1,-1 0,-2 1,-1 -1,-1 0,-1 -1,-1 -2,0 -1,-1 0,-1 -1,-1 0,-2 1,-1 -1,-1 0,-2 -22,0 0,2 -1,1 -1,1 -1,0 0,2 -1,1 -1,0 -1,1 -1,0 -1,1 -2,0 0,1 1,1 0,2 1,1 0,2 -1,1 0,1 1,1 0,1 1,1 0,1 1,1 0,1 1,1 0,1 1,1 0,1 1,1 0,1 1,1 1,1 2,0 1,1Z"/>
<path onmouseover="hoverPath(evt)" onmouseout="recoverPath(evt)" fill="rgb(236,238,234)" d="M  98,95l 0,2 1,1 0,1 2,2 0,1 1,1 0,1 1,1 1,1 0,1 1,0 1,-1 2,0 1,-1 1,0 1,-1 1,0 1,-1 2,0 1,-1 1,0 1,-1 1,0 1,-1 1,0 1,-1 1,0 -1,-1 0,-1 -1,-1 0,-1 -1,-1 -1,-1 0,-1 -1,-1 0,-1 -1,-1 -1,-1 -2,0 -1,1 -2,0 -1,1 -1,0 -1,1 -1,0 -1,1 -2,0 -1,1 -1,0 -1,1 -1,0 -1,1Z"/>
<path onmouseover="hoverPath(evt)" onmouseout="recoverPath(evt)" fill="rgb(234,236,230)" d="M  141,167l 0,0 -1,1 0,1 -1,1 1,1 0,1 2,2 2,0 1,1 0,3 2,0 1,1 1,1 1,1 1,1 1,1 1,1 1,1 1,1 0,1 1,1 1,1 1,1 1,1 1,1 0,3 1,-1 0,0 1,-1 1,0 1,-1 2,0 1,-1 1,0 1,-1 1,0 1,-1 1,0 1,-1 -1,-1 0,-1 -1,-1 -1,-1 -1,-1 -1,-1 -1,0 -1,-1 0,-1 -1,-1 -1,-1 -1,-1 -1,-1 -1,-1 0,-1 -1,-1 -1,-1 -1,-1 -1,0 -1,-1 0,-1 -1,-1 -1,-1 -1,-1 -2,0 -1,-1 -1,-1 -1,-1 -1,0 -1,1 0,0 -1,1 -1,0 -1,1 -1,1Z"/>
<path onmouseover="hoverPath(evt)" onmouseout="recoverPath(evt)" fill="rgb(241,240,229)" d="M  142,224l 0,0 1,1 1,1 1,1 1,1 1,1 1,1 1,1 1,1 1,1 1,1 1,1 1,1 2,2 1,1 1,1 1,1 1,1 1,1 0,1 1,0 1,1 0,1 1,1 0,-3 -1,-1 0,-1 -1,-1 0,-8 1,-1 2,0 1,1 0,4 1,1 0,2 1,1 0,1 3,0 1,1 0,2 -1,1 -1,1 -1,0 0,2 -1,1 1,1 0,0 1,1 1,1 0,2 24,0 0,-2 -1,-1 0,-1 -1,-1 -1,0 -1,-1 0,-2 1,-1 0,-1 -1,-1 0,-1 -1,-1 0,-1 -1,-1 0,-5 -2,0 -1,-1 0,-1 -1,-1 -1,-1 -1,-1 -1,0 -1,-1 -1,0 -1,-1 -3,0 -1,1 -3,0 -1,1 -2,0 -1,-1 0,-2 1,-1 1,0 1,-1 2,0 1,-1 5,0 0,-2 1,-1 5,0 1,-1 1,-1 1,-1 1,0 1,-1 0,-2 1,-1 1,-1 4,0 1,1 0,1 1,1 0,1 2,0 0,-2 -1,-1 0,0 -6,-6 -1,-1 -5,-5 -1,-1 -1,-1 -1,-1 -1,-1 -1,-1 -1,0 -1,-1 0,-1 -1,-1 -1,-1 -1,-1 -1,1 -1,0 -1,1 -1,0 -1,1 -1,0 -1,1 -1,0 -1,1 0,2 1,1 0,0 1,1 1,1 0,1 1,1 1,1 1,1 1,1 1,1 1,1 1,1 0,2 -1,1 -5,0 -1,-1 -1,-1 0,-3 -1,-1 -1,0 -1,-1 0,-2 -1,-1 -1,-1 -1,-1 0,-1 -2,0 -1,1 -2,0 -1,1 -1,0 -1,1 -1,0 -1,1 -1,1 -1,0 -1,1 -1,0 -1,1 -1,0 -1,1 -1,0 -1,1 -1,0 -1,1 -1,0 -1,1 -1,0 -1,1 -1,0 -1,1 -1,0 -1,1 -1,0 0,2 1,1 0,0 1,1 1,1 2,0 1,1 0,2 -1,1 2,0 1,1Z"/>
<path onmouseover="hoverPath(evt)" onmouseout="recoverPath(evt)" fill="rgb(192,212,239)" d="M  186,223l -5,0 0,2 -1,1 -5,0 -1,1 8,0 1,1 1,0 1,1 1,1 1,1 0,-1 1,-1 4,0 -1,-1 -1,0 -1,-1 0,-4 1,-1 3,0 1,1 3,0 1,1 0,1 1,1 0,-7 -2,0 -1,-1 0,-1 -1,-1 0,-1 -2,0 -1,1 0,2 -1,1 -1,1 -1,0 -1,1 -1,1 -1,1Z"/>
<path onmouseover="hoverPath(evt)" onmouseout="recoverPath(evt)" fill="rgb(242,241,232)" d="M  222,211l -2,2 -1,0 -1,1 -1,1 -1,0 -1,1 -2,0 -1,-1 -1,1 0,2 1,1 0,1 1,1 1,0 1,1 1,0 1,1 1,1 0,2 1,1 1,1 1,1 1,1 1,1 1,1 4,0 1,-1 0,0 1,-1 1,0 1,-1 1,0 1,-1 1,-1 1,0 1,-1 1,0 1,-1 1,0 1,-1 1,0 1,-1 1,-1 1,0 1,-1 1,0 1,-1 1,0 1,-1 1,-1 -1,-1 0,0 -1,-1 -1,0 -1,-1 -1,-1 -1,-1 -1,-1 -1,-1 -1,-1 -1,-1 -1,0 -1,-1 -1,-1 -1,-1 -1,-1 -1,-1 -1,-1 -1,-1 -1,0 -1,-1 -1,-1 -1,0 -1,-1 -1,-1 -1,-1 -1,-1 -1,-1 -1,-1 -1,-1 -1,-1 0,-1 -1,-1 -1,-1 -1,-1 0,-1 -1,-1 -1,-1 -1,-1 -1,-1 0,-1 -1,-1 -1,-1 -1,-1 0,-1 -1,-1 -1,-1 -1,-1 0,-1 -1,-1 -1,-1 -1,-1 0,-1 -1,-1 -1,-1 -1,-1 0,-1 -1,-1 -1,-1 -1,-1 0,-1 -1,-1 -1,-1 -1,-1 0,-1 -1,-1 -1,-1 0,-1 -1,-1 -1,-1 -1,-1 0,-1 -1,-1 -1,-1 -1,-1 -1,-1 0,-1 -1,-1 -1,-1 -1,-1 0,-1 -1,-1 -1,-1 -1,-1 0,-1 -1,0 -1,1 -2,0 -1,-1 -1,1 -1,0 -1,1 -2,0 -1,1 -1,0 -1,1 -1,1 -2,0 -1,1 -1,0 -1,1 -1,0 -1,1 -1,0 -1,1 -1,0 -1,1 -2,0 -1,1 -1,0 -1,1 -1,0 -1,1 -1,0 0,1 1,1 0,0 1,1 1,1 1,1 1,1 1,1 0,1 1,1 1,1 1,1 3,3 1,1 1,1 1,1 1,0 1,-1 1,0 1,-1 1,-1 1,0 1,-1 1,-1 1,0 1,-1 1,-1 1,0 0,-1 -1,-1 0,0 -1,-1 -3,-3 -1,-1 -1,-1 -1,-1 -1,-1 -1,-1 -1,-1 0,-2 1,-1 2,0 1,1 1,1 1,1 1,1 1,1 1,1 1,1 1,1 1,1 1,1 1,0 1,1 0,1 1,1 1,0 1,1 0,1 1,1 0,1 1,0 1,1 1,1 0,1 1,1 1,1 1,1 1,1 1,1 1,1 1,1 1,1 1,1 1,1 1,1 1,1 1,0 1,1 0,2 1,0 1,1 0,1 1,1 1,1 1,1 1,1 1,1 1,1 0,1 1,1 1,1 0,1 1,1 1,1 1,1 1,0 1,1 0,2 1,1 1,1 1,0 1,1 0,2 1,1 1,1 0,1 1,1Z"/>
<path onmouseover="hoverPath(evt)" onmouseout="recoverPath(evt)" fill="rgb(171,198,237)" d="M  237,15l 0,0 -1,-1 0,9 -1,1 0,4 -1,1 -2,0 0,1 -1,1 -1,0 -1,1 -1,1 -2,0 0,1 -1,1 -1,0 0,1 -1,1 -4,0 0,3 1,1 0,1 1,1 0,3 -1,1 -1,1 -1,0 -1,1 -1,0 -1,1 -1,0 -1,1 -1,0 -1,1 0,1 -1,1 -2,0 -1,1 -3,3 -1,0 0,1 -1,1 -1,0 0,1 -1,1 -1,1 0,1 -1,1 -1,1 -1,1 -1,1 -1,0 -1,1 -3,3 0,1 1,0 1,-1 0,0 1,-1 1,0 1,-1 2,-2 1,-1 1,0 0,-1 1,-1 0,-1 1,-1 1,0 1,-1 1,-1 1,0 0,-2 1,-1 1,-1 1,-1 1,-1 -1,0 -1,1 -1,1 -1,1 32,-43 -26,39 0,0 1,-1 1,-1 1,0 1,-1 1,0 1,-1 2,0 1,-1 1,-1 3,0 1,-1 2,0 1,-1 2,0 1,-1 -3,0 -1,1 -3,0 -1,-1 -1,-1 0,-6 -11,16 26,-39 -19,22 0,-1 -1,0 -1,-1 8,2 2,-2 1,0 1,-1 1,0 1,-1 1,-1 1,0 1,-1 1,-1 1,0 0,-1 1,-1 0,-3 1,-1 0,-3 1,-1 0,-5 -20,22 19,-22Z"/>
</svg>