<svg width="256" height="256" xmlns="http://www.w3.org/2000/svg"><script> 
var tempColor;
function hoverPath(evt){
obj = evt.target;
tempColor = obj.getAttribute("fill");
obj.setAttribute("fill","red");
//alert(tempColor);
//obj.setAttribute("stroke","red");}
function recoverPath(evt){
obj = evt.target;
obj.setAttribute("fill", tempColor);
//obj.setAttribute("stroke", tempColor);
}</script><path onmouseover="hoverPath(evt)" onmouseout="recoverPath(evt)" fill="rgb(251,251,249)" d="M  1,96l -1,0 0,1 3,0 1,-1 5,0 1,-1 6,0 1,-1 5,0 1,-1 6,0 1,-1 6,0 1,-1 5,0 1,-1 6,0 1,-1 6,0 1,-1 6,0 1,-1 6,0 1,-1 8,0 1,1 0,1 1,1 0,-3 1,-1 3,0 1,-1 6,0 1,-1 7,0 1,-1 7,0 1,-1 7,0 1,-1 9,0 1,-1 3,0 1,-1 3,0 1,-1 1,0 1,-1 0,-1 1,-1 -1,-1 0,-3 -1,-1 0,-2 -1,-1 0,-3 -1,-1 0,-2 1,-1 1,-1 4,0 1,-1 2,0 1,-1 3,0 1,-1 4,0 1,-1 3,0 1,-1 2,0 1,-1 4,0 1,-1 3,0 1,-1 3,0 1,-1 5,0 1,-1 4,0 1,-1 6,0 1,-1 6,0 1,-1 6,0 1,-1 6,0 1,-1 5,0 1,1 1,1 0,0 1,-1 0,-1 1,-1 3,0 1,-1 4,0 1,-1 4,0 1,-1 4,0 1,-1 4,0 1,-1 6,0 1,-1 3,0 0,-1 -4,0 -1,1 -6,0 -1,1 -4,0 -1,1 -4,0 -1,1 -4,0 -1,1 -4,0 -1,1 -5,0 -1,1 -5,0 -1,1 -6,0 -1,1 -6,0 -1,1 -6,0 -1,1 -6,0 -1,1 -5,0 -1,1 -6,0 -1,-1 0,-1 -2,0 -1,-1 0,-2 1,-1 0,-1 -1,-1 0,0 -1,-1 -8,0 -1,1 -6,0 -1,-1 -1,-1 0,-1 -1,-1 0,-3 -1,-1 0,-2 -1,0 -1,-1 0,-2 -1,-1 0,-3 1,-1 -2,0 -1,-1 0,-2 -1,-1 0,-1 -1,-1 0,-3 1,-1 -2,0 -1,-1 0,-2 -1,-1 0,-2 1,-1 -2,0 -1,-1 0,-1 -1,-1 0,-2 -1,0 0,2 1,1 0,1 1,1 0,2 1,1 0,1 1,1 0,2 1,1 0,1 1,1 0,1 1,1 0,2 1,1 0,1 1,1 0,2 1,1 0,3 1,1 0,1 1,1 0,1 1,1 0,1 1,1 0,5 -1,1 1,0 1,1 1,0 1,1 0,2 1,1 0,3 1,1 0,2 -1,1 -1,1 -2,0 -1,1 -3,0 -1,1 -4,0 -1,1 -5,0 -1,-1 0,-2 -1,-1 0,2 1,2 0,3 1,1 0,2 1,1 0,2 1,1 0,4 -1,1 0,4 -1,1 -3,0 -1,1 -10,0 -1,1 -3,0 -1,1 -5,0 -1,1 -7,0 -1,1 -7,0 -1,1 -7,0 -1,1 -6,0 -1,1 -6,0 -1,1 -6,0 -1,1 -6,0 -1,1 -6,0 -1,1 -6,0 -1,1 -6,0 -1,1 -5,0 -1,1 -6,0 -1,1 -6,0 -1,1 -5,0 -1,1 -5,0 -1,1Z"/>
<path onmouseover="hoverPath(evt)" onmouseout="recoverPath(evt)" fill="rgb(243,242,234)" d="M  1,67l -1,0 0,27 2,0 1,-1 5,0 1,-1 5,0 1,-1 6,0 1,-1 6,0 1,-1 5,0 1,-1 6,0 1,-1 6,0 1,-1 6,0 1,-1 6,0 1,-1 6,0 1,-1 6,0 1,-1 6,0 1,-1 7,0 1,-1 7,0 1,-1 7,0 1,-1 5,0 1,-1 3,0 -1,-1 0,-1 -1,-1 0,-1 -1,-1 0,-1 -1,-1 0,-1 -1,-1 0,-1 -1,-1 0,-1 -1,-1 0,-2 -1,-1 0,-1 -1,-1 -1,-1 -1,-1 -1,-1 -1,-1 -1,-1 -1,-1 -1,-1 -1,-1 -1,-1 -1,-1 -1,1 0,1 -1,1 0,1 -1,1 -2,0 -1,1 -6,0 -1,-1 -4,0 -1,1 -1,0 -1,1 -1,0 -1,1 -1,0 -1,1 -3,0 -1,1 -2,0 -1,1 -3,0 -1,1 -4,0 -1,1 -1,0 -1,1 -2,0 -1,1 -1,0 -1,1 -1,0 -1,1 -1,0 -1,1 -1,0 -1,1 -1,0 -1,1 -2,0 -1,1 -1,1 -1,0 -1,1 -1,0 -1,1 -1,0 -1,1 -2,0 -1,1 -1,0 -1,1 -1,0 -1,1 -1,0 -1,1 -2,0 -1,1 -6,0 -1,-1 -1,0 -1,-1 0,-3 -1,-1 0,-2 -1,-1 0,-1 -1,-1 -1,-1 -1,0 -1,-1 -1,1Z"/>
<path onmouseover="hoverPath(evt)" onmouseout="recoverPath(evt)" fill="rgb(244,243,236)" d="M  7,171l -7,0 5,1 1,0 1,-1 2,4 1,1 0,8 -1,1 0,5 1,1 0,2 1,1 0,1 1,1 1,1 1,1 1,0 1,1 1,0 1,1 1,1 1,1 1,1 0,1 1,1 0,2 1,1 1,-1 6,0 1,-1 3,0 1,-1 2,0 1,-1 2,0 1,-1 5,0 1,-1 2,0 1,-1 5,0 1,-1 2,0 1,-1 5,0 1,-1 2,0 1,-1 5,0 1,-1 5,0 1,-1 2,0 1,-1 2,0 1,-1 2,0 0,-2 -1,-1 0,-3 -1,-1 0,-9 1,-1 0,-2 1,-1 0,-8 -1,-1 0,-1 -1,-1 0,-1 -1,-1 -8,0 -1,1 -11,0 -1,1 -17,0 -1,1 -3,0 -1,1 -1,0 -1,1 -1,1 -1,0 -1,1 -1,1 -1,0 -1,1 -1,1 -1,0 -1,1 -1,0 -1,1 -2,0 -1,1 -9,0 -1,-1 -4,0 -1,-1 -2,4 -2,-4Z"/>
<path onmouseover="hoverPath(evt)" onmouseout="recoverPath(evt)" fill="rgb(171,198,238)" d="M  109,143l -1,0 0,1 1,1 0,2 3,0 1,1 1,0 1,1 2,0 1,1 2,0 1,1 1,0 1,1 2,0 1,1 16,0 1,-1 3,0 1,-1 1,-1 1,-1 0,-1 1,-1 0,-1 1,-1 0,-1 2,-2 1,0 1,-1 4,0 1,1 3,0 1,1 5,0 1,1 9,0 1,-1 4,0 1,-1 1,0 1,-1 2,-2 1,-1 1,0 1,-1 1,-1 1,0 1,-1 2,0 1,-1 17,0 1,-1 2,0 1,-1 1,0 1,-1 2,0 1,1 0,1 1,1 1,1 0,1 1,1 0,2 1,1 0,6 1,1 0,1 1,1 1,1 1,0 1,1 1,1 1,1 1,1 0,1 1,1 1,1 0,1 1,1 0,2 1,1 0,9 2,0 0,-11 -1,-1 0,-1 -1,-1 0,-2 -1,-1 0,-1 -1,-1 0,-1 -1,-1 -1,0 -1,-1 -1,-1 -1,0 -1,-1 -1,-1 0,-1 -1,-1 0,-4 -1,-1 0,-2 -1,-1 0,-1 -1,-1 0,-2 -1,-1 -1,-1 0,-1 -1,-1 -1,-1 0,-4 1,-1 1,-1 1,0 2,-2 2,0 1,-1 4,0 1,-1 9,0 1,1 3,0 1,1 1,0 1,1 1,1 1,1 1,0 0,-8 -2,0 -1,-1 -1,0 -1,-1 -1,-1 -1,0 -1,-1 -2,0 -1,-1 -2,0 -1,-1 -1,1 -5,0 -1,1 -1,0 -1,1 -2,0 -1,1 -1,0 -1,1 -1,1 -1,0 -1,1 -1,1 -1,1 0,1 -1,1 -1,1 -1,0 -1,1 -1,1 -2,2 -1,1 -1,1 -1,1 -2,2 -2,0 -1,1 -10,0 -1,1 -3,0 -1,1 -1,0 -1,1 -1,1 -1,0 -1,1 -1,1 -1,1 -1,0 -1,1 -1,1 -2,0 -1,1 -7,0 -1,-1 -1,-1 -1,-1 0,-1 -1,-1 -1,0 -1,-1 -1,0 -1,-1 -1,0 -1,-1 -1,0 -1,-1 -1,-1 -1,0 -1,-1 0,-1 -1,-1 -1,-1 -1,-1 -1,-1 -1,-1 0,-1 -1,-1 0,-2 -1,-1 0,-2 -1,-1 0,-2 -1,-1 0,-1 -1,-1 0,-1 -1,-1 0,-1 -1,-1 0,-1 -1,-1 -1,-1 0,-1 -1,-1 -1,-1 -1,-1 -1,-1 -1,-1 -1,-1 -1,-1 0,-1 -1,-1 -2,-2 -1,-1 -1,-1 -1,-1 -1,-1 0,-1 -1,-1 -1,-1 0,-1 -1,-1 -3,0 0,1 1,1 0,1 1,1 1,1 0,1 1,1 1,1 1,1 1,1 1,1 1,1 0,1 1,1 1,1 4,4 1,1 1,1 1,1 0,1 1,1 0,1 1,1 1,1 0,1 1,1 1,1 0,2 1,1 0,4 1,1 0,1 1,1 0,1 1,1 0,1 1,1 1,1 1,1 1,1 1,1 1,1 1,1 1,1 1,1 0,3 -1,1 -4,0 -1,1 -1,0 -1,1 -1,1 -1,1 -1,1 -4,4 -1,0 -1,1 -1,0 -1,1 -12,0 -1,-1 -2,0 -1,-1 -3,0 -1,-1 -2,0 -1,-1 -1,0 -1,-1 -3,0 -1,-1Z"/>
<path onmouseover="hoverPath(evt)" onmouseout="recoverPath(evt)" fill="rgb(244,243,236)" d="M  225,124l 0,2 1,1 1,1 0,1 1,1 1,1 0,2 1,1 0,1 1,1 0,2 1,1 0,4 1,1 0,1 1,1 1,0 1,1 1,1 1,0 1,1 1,1 0,1 1,1 0,1 1,1 0,2 1,1 0,1 1,1 0,10 3,0 1,1 2,0 0,-1 1,-1 1,0 1,-1 2,0 0,-43 -2,0 -1,-1 -1,-1 -1,-1 -1,0 -1,-1 -3,0 -1,-1 -7,0 -1,1 -4,0 -1,1 -2,0 -1,1 -1,1 -1,0 -1,1Z"/>
<path onmouseover="hoverPath(evt)" onmouseout="recoverPath(evt)" fill="rgb(243,241,233)" d="M  0,9l 0,39 8,0 1,-1 2,0 1,-1 3,0 1,-1 3,0 1,-1 3,0 1,-1 0,-3 -1,-1 -1,-1 0,-1 -1,-1 -1,-1 0,-1 -1,-1 -1,-1 0,-1 -1,-1 -1,-1 0,-1 -1,-1 -1,-1 0,-1 -1,-1 -1,-1 0,-1 -1,-1 0,-2 1,-1 -1,-1 -2,0 -1,-1 -1,-1 0,-1 -1,-1 -1,-1 0,-2 1,-1 -1,-1 0,0 -1,-1 0,-1 -2,0 -1,-1 0,-1 -1,0Z"/>
<path onmouseover="hoverPath(evt)" onmouseout="recoverPath(evt)" fill="rgb(244,243,236)" d="M  0,101l 0,62 7,0 1,1 7,0 1,1 4,0 1,-1 2,0 1,-1 1,-1 1,0 1,-1 1,-1 1,0 1,-1 2,0 1,-1 1,0 1,-1 1,0 1,-1 3,0 1,-1 10,0 1,1 5,0 1,-1 4,0 1,-1 14,0 1,-1 2,0 1,-1 1,-1 1,-1 0,-1 1,-1 3,-3 1,-1 1,0 1,-1 1,0 1,-1 2,0 1,-1 7,0 0,-2 -1,-1 0,-2 -1,-1 0,-2 1,-1 -1,-1 0,-1 -2,0 -1,-1 0,-1 -1,-1 0,-1 -1,-1 0,-1 -1,-1 0,-1 -1,-1 0,-1 -1,-1 0,-1 -1,-1 0,-1 -1,-1 0,-1 -1,-1 0,-2 -1,-1 0,-2 1,-1 -2,0 -1,-1 0,-1 -1,-1 0,-2 -1,-1 0,-1 -1,-1 0,-1 -1,-1 0,-1 -1,-1 0,-2 -1,-1 0,-1 -1,-1 -1,-1 0,-1 -6,0 -1,1 -6,0 -1,1 -6,0 -1,1 -6,0 -1,1 -6,0 -1,1 -5,0 -1,1 -6,0 -1,1 -6,0 -1,1 -5,0 -1,1 -6,0 -1,1 -5,0 -1,1 -4,0Z"/>
<path onmouseover="hoverPath(evt)" onmouseout="recoverPath(evt)" fill="rgb(244,243,236)" d="M  6,0l -6,0 0,2 2,0 1,1 0,1 2,0 1,1 0,1 1,1 1,1 0,2 -1,1 1,1 0,0 1,1 0,1 1,1 2,0 1,1 1,1 0,2 -1,1 1,1 0,1 1,1 1,1 0,1 1,1 2,0 1,1 1,1 0,2 -1,1 1,1 0,0 1,1 0,1 1,1 1,1 0,1 1,1 2,0 1,1 0,1 1,1 0,1 1,1 1,1 0,1 1,1 0,1 1,1 1,1 0,2 -1,1 1,1 0,0 1,1 0,1 1,1 1,1 2,0 1,1 0,1 1,1 1,1 0,2 1,-1 1,0 1,-1 1,0 1,-1 1,0 1,-1 1,0 1,-1 2,0 1,-1 2,0 1,-1 3,0 1,-1 2,0 1,-1 3,0 1,-1 2,0 1,-1 1,0 1,-1 1,-1 1,0 1,-1 2,0 1,-1 9,0 1,-1 1,-1 1,-1 0,-1 1,-1 1,-1 1,-1 1,-1 1,-1 2,0 1,-1 4,0 1,1 7,0 1,-1 1,0 1,-1 1,-1 0,-3 -1,-1 0,-2 -1,-1 0,-2 1,-1 0,-3 -1,-1 0,-1 -1,-1 -1,-1 -1,-1 -1,-1 0,-1 -1,-1 -1,-1 -1,-1 -1,-1 0,-1 -1,-1 0,-1 -1,-1 0,-2 -1,-1 -1,-1 0,-1 -1,-1 -1,-1 0,-1Z"/>
<path onmouseover="hoverPath(evt)" onmouseout="recoverPath(evt)" fill="rgb(244,243,236)" d="M  6,229l 0,6 1,1 0,1 1,1 0,1 1,1 0,1 1,1 0,9 -1,1 0,3 81,0 0,-7 1,-1 0,-11 -1,-1 0,-9 1,-1 0,-3 -1,-1 0,-9 -1,0 -1,1 -6,0 -1,-1 0,-1 -1,0 -1,1 -5,0 -1,1 -2,0 -1,1 -6,0 -1,1 -2,0 -1,1 -3,0 -1,1 -6,0 -1,1 -2,0 -1,1 -2,0 -1,1 -3,0 -1,1 -6,0 -1,1 -2,0 -1,1 -2,0 -1,1 -5,0 -1,1 -1,1 -3,0 -1,1 -5,0 -1,1 -2,0 -1,1Z"/>
<path onmouseover="hoverPath(evt)" onmouseout="recoverPath(evt)" fill="rgb(244,243,235)" d="M  84,90l 0,2 -1,1 0,1 1,1 0,1 1,1 0,1 2,0 1,1 0,2 -1,1 0,1 1,1 0,1 2,0 1,1 0,1 1,1 0,2 -1,1 0,1 1,1 0,1 1,1 0,1 1,1 0,1 1,1 0,1 1,1 0,1 1,1 0,1 1,1 0,1 1,1 0,1 2,0 1,1 0,1 1,1 0,1 1,1 0,2 -1,1 0,1 2,0 1,1 0,1 1,1 0,1 5,0 1,1 3,0 1,1 1,0 1,1 2,0 1,1 3,0 1,1 2,0 1,1 10,0 1,-1 1,0 1,-1 1,0 2,-2 1,-1 1,-1 1,-1 1,-1 1,-1 1,-1 1,0 1,-1 4,0 0,-1 -1,-1 0,0 -1,-1 -1,-1 -1,-1 -1,-1 -1,-1 -1,-1 -1,-1 -1,-1 0,-1 -1,-1 0,-1 -1,-1 0,-1 -1,-1 0,-4 -1,-1 0,-2 -1,-1 -1,-1 0,-1 -1,-1 -1,-1 0,-1 -1,-1 0,-1 -1,-1 -1,-1 -1,-1 -1,-1 -1,-1 -1,-1 -1,-1 -1,-1 -1,-1 0,-1 -1,-1 -1,-1 -1,-1 -1,-1 -1,-1 -1,-1 0,-1 -1,-1 -1,-1 0,-1 -1,-1 0,-2 -3,0 -1,1 -7,0 -1,1 -7,0 -1,1 -7,0 -1,1 -6,0 -1,1 -3,0 0,2 1,1Z"/>
<path onmouseover="hoverPath(evt)" onmouseout="recoverPath(evt)" fill="rgb(171,198,238)" d="M  92,213l 0,7 1,1 0,5 -1,1 0,7 1,1 0,13 -1,1 0,6 6,0 0,-4 -1,-1 0,-4 1,-1 0,-9 -1,-1 0,-1 -1,-1 0,-9 1,-1 0,-4 -1,-1 0,-4 -1,-1 0,-1 -2,0 -1,1Z"/>
<path onmouseover="hoverPath(evt)" onmouseout="recoverPath(evt)" fill="rgb(243,242,234)" d="M  98,213l 0,4 1,1 0,6 -1,1 0,7 1,1 0,1 1,1 0,11 -1,1 0,2 1,1 0,5 28,0 0,-2 -1,-1 0,-3 -1,-1 0,-4 -1,-1 0,-2 -1,-1 0,-6 -1,-1 0,-3 -1,-1 0,-4 -1,-1 0,-4 -1,-1 0,-3 -1,-1 0,-3 -1,-1 0,-4 -6,0 -1,1 -3,0 -1,1 -4,0 -1,1 -3,0 -1,1 -1,0 0,1 1,1Z"/>
<path onmouseover="hoverPath(evt)" onmouseout="recoverPath(evt)" fill="rgb(242,241,232)" d="M  104,45l 0,0 1,1 1,1 1,1 1,1 1,0 1,1 1,1 1,1 1,1 1,1 1,1 0,1 1,1 0,1 1,1 0,2 1,1 0,1 1,1 0,1 1,1 0,1 1,1 0,1 1,1 0,1 1,1 0,1 1,1 0,2 4,0 1,-1 3,0 0,-4 1,-1 0,-2 -1,-1 0,-2 -1,-1 0,-2 -1,-1 0,-4 -1,-1 0,-5 1,-1 2,0 1,1 0,1 1,1 0,2 3,0 1,-1 4,0 1,-1 3,0 1,-1 2,0 1,-1 -1,-1 0,-3 -1,-1 0,-2 -1,0 -1,-1 -1,0 -1,-1 0,-2 1,-1 0,-3 -1,-1 0,-1 -4,0 -1,-1 -1,0 -1,-1 -1,0 -1,-1 -1,0 -1,-1 -2,0 -1,-1 -1,0 -1,1 -1,1 -2,0 -1,1 -2,0 0,7 -1,1 -1,1 -1,1 -1,0 -1,1 -1,0 -1,1 -10,0 -1,1Z"/>
<path onmouseover="hoverPath(evt)" onmouseout="recoverPath(evt)" fill="rgb(243,242,234)" d="M  108,1l 0,1 1,1 0,1 1,1 0,2 1,1 0,1 1,1 1,1 1,1 1,1 1,1 1,1 0,1 1,1 1,1 1,1 1,1 1,1 1,0 1,1 2,0 1,1 2,0 1,1 2,0 1,1 2,0 1,1 2,0 1,1 1,0 1,1 0,-2 -1,-1 0,-2 -1,-1 0,-1 -1,-1 0,-2 -1,-1 0,-1 -1,-1 0,-1 -1,-1 0,-2 -1,-1 0,-1 -1,-1 0,-2 -1,-1 0,-1 -1,-1 0,-3 -22,0 -1,1Z"/>
<path onmouseover="hoverPath(evt)" onmouseout="recoverPath(evt)" fill="rgb(243,243,236)" d="M  138,0l -2,0 0,1 1,1 0,1 2,0 1,1 0,2 -1,1 1,1 0,2 2,0 1,1 0,2 -1,1 0,1 1,1 0,1 1,1 0,2 2,0 1,1 0,2 -1,1 0,1 1,1 0,2 9,0 1,1 2,0 1,1 2,0 1,1 5,0 1,-1 1,0 1,-1 1,0 1,-1 2,0 1,-1 12,0 1,1 1,0 1,1 1,0 1,1 1,0 1,1 5,0 0,-4 1,-1 0,-2 1,-1 1,0 0,-2 1,-1 0,-1 -1,-1 0,-4 1,-1 2,-2 3,0 0,-2 1,-1 1,0 0,-1 1,-1 0,-2 1,-1 0,-3Z"/>
<path onmouseover="hoverPath(evt)" onmouseout="recoverPath(evt)" fill="rgb(242,241,231)" d="M  169,36l -7,0 -1,-1 -3,0 -1,-1 -7,0 0,1 1,1 0,1 1,1 4,0 1,-1 10,0 1,1 1,1 1,1 0,2 1,1 0,1 1,1 0,1 4,0 1,-1 5,0 1,-1 6,0 1,-1 6,0 1,-1 6,0 1,-1 6,0 1,-1 5,0 1,-1 5,0 1,-1 4,0 1,-1 4,0 1,-1 4,0 1,-1 4,0 1,-1 6,0 1,-1 5,0 0,-7 -1,0 -1,1 -2,0 -1,1 -3,0 -1,1 -7,0 -1,-1 -1,-1 0,-1 -2,-2 -1,-1 -1,-1 -1,0 -1,-1 -1,0 -1,1 -2,0 -1,1 -1,0 -1,1 -2,0 -1,1 -14,0 0,1 -1,1 0,1 -1,1 0,1 -1,1 0,2 -1,1 -1,0 -1,1 -1,0 -1,1 -1,1 -7,0 -1,-1 -1,0 -2,-2 -1,-1 -7,0 -1,1 -2,0 -1,1 -1,0 -1,1Z"/>
<path onmouseover="hoverPath(evt)" onmouseout="recoverPath(evt)" fill="rgb(171,198,238)" d="M  199,33l -5,0 -1,-1 -1,0 -1,-1 -1,0 -1,-1 -1,0 -1,-1 -10,0 -1,1 -2,0 -1,1 -1,0 -1,1 -1,0 -1,1 -7,0 -1,-1 -2,0 -1,-1 -2,0 -1,-1 -6,0 0,1 1,1 8,0 1,1 40,0 -33,1 6,0 1,-1 1,0 1,-1 2,0 1,-1 9,0 1,1 1,1 1,1 1,0 1,1 5,0 1,-1 -32,0 33,-1Z"/>
<path onmouseover="hoverPath(evt)" onmouseout="recoverPath(evt)" fill="rgb(244,243,237)" d="M  215,1l 0,3 -1,1 0,2 -1,1 0,1 -1,1 -1,0 0,2 -1,1 -1,0 0,2 -1,1 1,1 0,1 1,1 0,1 9,0 1,-1 1,0 1,-1 2,0 1,-1 2,0 1,-1 6,0 1,1 1,0 1,1 1,1 1,1 1,1 1,1 1,1 1,1 1,0 1,-1 3,0 1,-1 2,0 1,-1 3,0 0,-21 -39,0 -1,1Z"/>
<path onmouseover="hoverPath(evt)" onmouseout="recoverPath(evt)" fill="rgb(244,243,236)" d="M  242,185l 0,3 1,1 0,1 1,1 0,1 1,1 0,1 1,1 0,1 1,1 0,1 1,1 0,1 1,1 0,1 1,1 0,1 1,1 1,1 0,1 1,1 1,1 0,1 1,0 0,-27 -1,0 -1,1 -10,0 -1,1Z"/>
<path onmouseover="hoverPath(evt)" onmouseout="recoverPath(evt)" fill="rgb(171,198,238)" d="M  0,166l 0,3 12,0 1,1 4,0 1,1 7,0 1,-1 2,0 1,-1 1,0 1,-1 1,0 1,-1 1,-1 1,0 2,-2 1,0 2,-2 1,0 1,-1 3,0 1,-1 17,0 1,-1 11,0 1,-1 10,0 1,1 1,1 0,1 1,1 0,1 2,0 0,-3 -1,-1 0,-2 -1,-1 0,-3 1,-1 1,-1 1,-1 1,-1 1,-1 3,0 1,-1 5,0 0,-3 -1,-1 -6,0 -1,1 -2,0 -1,1 -1,0 -1,1 -1,0 -1,1 -2,2 -1,1 0,1 -1,1 -1,1 -2,2 -2,0 -1,1 -14,0 -1,1 -4,0 -1,1 -7,0 -1,-1 -8,0 -1,1 -3,0 -1,1 -1,0 -1,1 -1,0 -1,1 -2,0 -1,1 -1,0 -1,1 -1,1 -1,0 -1,1 -1,1 -2,0 -1,1 -6,0 -1,-1 -7,0 -1,-1 -5,0 -1,1Z"/>
<path onmouseover="hoverPath(evt)" onmouseout="recoverPath(evt)" fill="rgb(181,150,237)" d="M  0,218l 0,37 7,0 0,-4 1,-1 0,-7 -1,-1 0,-1 -1,-1 0,-1 -1,-1 0,-1 -1,-1 0,-9 1,-1 3,0 1,-1 5,0 1,-1 3,0 1,-1 1,-1 5,0 1,-1 2,0 1,-1 2,0 1,-1 6,0 1,-1 3,0 1,-1 2,0 1,-1 2,0 1,-1 6,0 1,-1 3,0 1,-1 2,0 1,-1 6,0 1,-1 2,0 1,-1 5,0 1,-1 3,0 1,-1 3,0 1,-1 4,0 1,-1 3,0 1,-1 5,0 1,-1 4,0 1,-1 4,0 1,-1 5,0 1,-1 3,0 1,-1 7,0 1,-1 0,-1 1,-1 2,0 1,1 4,0 1,-1 5,0 1,-1 4,0 1,-1 3,0 0,-1 1,-1 2,0 1,1 2,0 0,-1 1,-1 2,0 1,1 2,0 0,-1 1,-1 2,0 1,1 2,0 0,-1 1,-1 2,0 1,1 3,0 0,-1 1,-1 3,0 1,1 2,0 0,-1 1,-1 3,0 1,1 5,0 1,-1 7,0 1,-1 6,0 1,-1 5,0 1,-1 4,0 0,-1 1,-1 2,0 1,-1 8,0 1,-1 9,0 1,1 8,0 1,-1 2,0 0,-12 -1,0 -1,1 -1,0 0,1 -1,1 -4,0 -1,-1 -2,0 0,1 -1,1 -4,0 -1,1 -4,0 -1,-1 -1,-1 -1,0 -1,1 -5,0 0,1 -1,1 -3,0 -1,-1 -5,0 -1,1 -7,0 -1,1 -3,0 0,1 -1,1 -3,0 -1,-1 -2,0 0,1 -1,1 -3,0 -1,-1 -3,0 0,1 -1,1 -3,0 -1,-1 -2,0 0,1 -1,1 -3,0 -1,-1 -7,0 -1,1 0,1 -1,1 -2,0 -1,-1 -2,0 0,1 -1,1 -2,0 -1,-1 -2,0 0,1 -1,1 -2,0 -1,-1 -2,0 0,1 -1,1 -2,0 -1,-1 -4,0 -1,1 -5,0 -1,1 -4,0 -1,1 -3,0 0,1 -1,1 -2,0 -1,-1 -4,0 -1,1 -11,0 -1,1 -4,0 0,2 -1,1 -6,0 -1,-1 0,-2 -1,-1 0,-2 -1,-1 0,-2 -1,-1 0,-5 1,-1 0,-4 1,-1 0,-2 -1,-1 0,-5 -2,0 0,9 -1,1 0,2 -1,1 0,7 1,1 0,3 1,1 0,4 -1,1 -2,0 -1,1 -2,0 -1,1 -2,0 -1,1 -5,0 -1,1 -5,0 -1,1 -2,0 -1,1 -5,0 -1,1 -2,0 -1,1 -5,0 -1,1 -2,0 -1,1 -5,0 -1,1 -2,0 -1,1 -2,0 -1,1 -3,0 -1,1 -6,0 -1,1 -2,0 -1,-1 -1,-1 0,-2 -1,-1 0,-1 -1,-1 -1,-1 -1,-1 -1,0 -1,-1 -1,0 -2,-2 -1,-1 -1,-1 0,-1 -1,-1 0,-2 -1,-1 0,-7 1,-1 0,-6 -1,-1 0,0 -1,-1 -1,-1 -1,0 -1,-1 -3,0 0,3 3,0 1,1 0,1 1,1 0,7 -1,1 0,3 1,1 0,3 1,1 0,2 1,1 0,1 1,0 1,1 1,1 1,0 1,1 1,1 1,0 1,1 0,1 1,1 0,5 -1,1 -2,0 -1,1 -1,1 -4,0 -1,1 -6,0Z"/>
<path onmouseover="hoverPath(evt)" onmouseout="recoverPath(evt)" fill="rgb(244,243,236)" d="M  110,149l -1,0 0,5 -1,1 0,4 1,1 0,3 2,0 1,1 0,3 1,1 0,3 1,1 0,4 -1,1 0,1 1,1 0,1 2,0 1,1 0,2 -1,1 0,4 1,0 1,-1 6,0 1,1 0,-1 1,-1 3,0 1,-1 4,0 1,-1 5,0 1,-1 6,0 1,1 0,-1 1,-1 4,0 1,1 0,-1 1,-1 4,0 1,1 0,-1 1,-1 4,0 1,1 0,-1 1,-1 1,-1 9,0 1,1 1,0 0,-1 1,-1 4,0 1,1 1,0 0,-1 1,-1 5,0 1,1 1,0 0,-1 1,-1 4,0 1,1 1,0 0,-1 1,-1 3,0 1,-1 7,0 1,-1 7,0 1,1 1,0 0,-1 1,-1 5,0 1,-1 3,0 1,1 1,1 2,0 1,-1 0,-8 -1,-1 0,-2 -1,-1 0,-1 -1,-1 -1,-1 0,-1 -1,-1 -1,-1 -1,-1 -1,0 -1,-1 -1,-1 -1,-1 0,-1 -1,-1 0,-6 -1,-1 0,-2 -1,-1 0,-1 -1,-1 -1,-1 0,-1 -1,1 -1,0 -1,1 -2,0 -1,1 -17,0 -1,1 -2,0 -1,1 -1,0 -1,1 -1,1 -1,0 -1,1 -1,1 -2,2 -1,0 -1,1 -4,0 -1,1 -11,0 -1,-1 -5,0 -1,-1 -3,0 -1,-1 -2,0 -1,1 -1,0 -1,1 0,1 -1,1 0,1 -1,1 0,1 -1,1 -1,1 -1,1 -1,1 -3,0 -1,1 -18,0 -1,-1 -2,0 -1,-1 -1,0 -1,-1 -2,0 -1,-1 -2,0 -1,-1 -1,0 -1,-1Z"/>
<path onmouseover="hoverPath(evt)" onmouseout="recoverPath(evt)" fill="rgb(244,242,235)" d="M  205,190l 0,0 1,1 1,1 0,8 -1,1 -2,0 -1,-1 0,3 1,1 0,10 2,0 1,1 0,15 1,1 0,1 36,0 0,-2 -1,-1 0,-7 1,-1 0,-1 1,-1 0,-1 1,-1 1,-1 0,-3 -1,-1 0,-1 -1,-1 0,-1 -1,-1 0,-1 -1,-1 0,-1 -1,-1 0,-1 -1,-1 0,-1 -1,-1 0,-1 -1,-1 0,-1 -1,-1 -1,-1 0,-1 -1,-1 0,-2 -1,-1 0,-4 -10,0 -1,-1 -1,0 0,1 -1,1 -4,0 -1,1 -5,0 -1,1 -5,0 -1,1Z"/>
<path onmouseover="hoverPath(evt)" onmouseout="recoverPath(evt)" fill="rgb(191,210,235)" d="M  250,238l 0,3 1,1 0,2 -1,1 0,10 5,0 0,-18 -4,0 -1,1Z"/>
<path onmouseover="hoverPath(evt)" onmouseout="recoverPath(evt)" fill="rgb(244,242,235)" d="M  0,55l 0,7 1,0 1,-1 3,0 1,-1 3,0 1,1 1,0 3,3 1,1 0,1 1,1 0,2 1,1 0,2 2,0 1,-1 2,0 1,-1 2,0 1,-1 1,0 1,-1 2,0 1,-1 1,0 1,-1 1,0 1,-1 3,0 0,-1 -1,-1 0,-2 -1,-1 0,-1 -1,-1 -1,-1 -1,-1 0,-1 -1,-1 -1,-1 0,-2 1,-1 -1,-1 -1,-1 0,-1 -1,-1 0,-1 -1,-1 -1,-1 0,-1 -1,-1 0,3 -1,1 -1,1 -3,0 -1,1 -3,0 -1,1 -3,0 -1,1 -2,0 -1,1 -9,0Z"/>
<path onmouseover="hoverPath(evt)" onmouseout="recoverPath(evt)" fill="rgb(245,244,237)" d="M  0,179l 0,34 5,0 1,-1 4,0 1,-1 1,-1 2,0 0,-3 -1,-1 0,-1 -1,0 -1,-1 -1,-1 -1,0 -1,-1 -1,-1 -1,0 -1,-1 0,-1 -1,-1 0,-2 -1,-1 0,-3 -1,-1 0,-5 1,-1 0,-5 -1,-1 0,-1 -1,0 -1,1Z"/>
<path onmouseover="hoverPath(evt)" onmouseout="recoverPath(evt)" fill="rgb(172,198,238)" d="M  58,59l 4,0 1,-1 3,0 1,-1 2,0 1,-1 3,0 1,-1 1,0 1,-1 1,0 1,-1 1,0 1,-1 6,0 1,1 4,0 1,-1 2,0 0,-1 1,-1 0,-1 1,-1 1,-1 2,0 1,1 1,1 1,1 1,1 1,1 1,1 1,1 1,1 1,1 1,1 1,1 1,1 0,1 1,1 0,2 1,1 0,1 1,1 0,1 1,1 0,1 1,1 0,1 1,1 0,1 1,1 0,1 1,1 3,0 0,-1 -1,-1 0,-1 -1,-1 0,-1 -1,-1 0,-1 -1,-1 0,-1 -1,-1 0,-1 -1,-1 0,-1 -1,-1 0,-2 -1,-1 0,-1 -1,-1 0,-1 -1,-1 -1,-1 -1,-1 -1,-1 -1,-1 -1,0 -1,-1 -1,-1 -1,-1 -1,-1 -1,-1 -1,-1 0,-2 1,-1 12,0 1,-1 1,0 1,-1 1,0 2,-2 0,-7 1,-1 2,0 1,-1 2,0 1,-1 1,-1 3,0 0,-1 -2,0 -1,-1 -2,0 -1,-1 -2,0 -1,-1 -1,0 -4,-4 -1,-1 -1,-1 0,-1 -2,-2 -1,-1 -1,-1 -1,-1 -1,-1 0,-1 -1,-1 0,-2 -1,-1 0,-1 -1,-1 0,-3 -5,0 1,1 1,1 0,1 1,1 1,1 0,2 1,1 0,1 1,1 0,1 1,1 1,1 1,1 1,1 0,1 1,1 1,1 1,1 1,1 0,1 1,1 0,5 -1,1 1,1 0,2 1,1 0,5 -1,1 -1,1 -1,1 -1,0 -1,1 -9,0 -1,-1 -2,0 -1,1 -2,0 -1,1 -1,1 -1,1 -1,1 0,1 -1,1 -1,1 -1,1 -1,1 -9,0 -1,1 -2,0 -1,1 -1,0 -1,1 -1,1 -1,0 -1,1 -2,0 -1,1 -3,0 -1,1 -2,0 -1,1 -2,0 -1,1 74,-32 0,1 2,0 1,1 1,0 1,1 1,0 1,1 1,0 1,1 2,0 -1,-1 0,-1 -2,0 -1,-1 -1,0 -1,-1 -2,0 -1,-1 -2,0 -74,32 -3,0 -1,1 -2,0 -1,1 -1,0 -1,1 -1,0 -1,1 -1,0 -1,1 -1,0 -1,1 -2,0 -1,-1 0,2 -1,1 -3,0 -1,1 -1,0 -1,1 -1,0 -1,1 -2,0 -1,1 -1,0 -1,1 -2,0 -1,1 -2,0 -1,1 -4,0 -1,-1 0,-2 -1,-1 0,-2 -1,-1 0,-1 -1,-1 -1,-1 -1,-1 -1,0 -1,-1 -1,0 -1,1 -3,0 -1,1 -2,0 0,1 4,0 1,-1 2,0 1,1 1,0 1,1 1,1 1,1 0,1 1,1 0,2 1,1 0,3 1,0 1,1 4,0 1,-1 2,0 1,-1 1,0 1,-1 1,0 1,-1 1,0 1,-1 2,0 1,-1 1,0 1,-1 1,0 1,-1 1,0 1,-1 1,-1 2,0 1,-1 1,0 1,-1 1,0 1,-1 1,0 1,-1 1,0 1,-1 1,0 1,-1 2,0 1,-1 0,-1 2,0 -18,4 0,-1 -1,-1 0,1 1,1 18,-4Z"/>
<path onmouseover="hoverPath(evt)" onmouseout="recoverPath(evt)" fill="rgb(244,243,235)" d="M  94,151l -1,1 -1,1 -1,1 0,1 1,1 0,2 1,1 0,4 1,1 0,5 1,1 0,4 -1,1 0,4 -1,1 0,3 1,1 0,2 1,1 0,2 1,1 0,2 4,0 0,-2 1,-1 4,0 1,-1 8,0 0,-4 -1,-1 0,-1 -1,-1 0,-1 -1,-1 0,-3 1,-1 0,-2 -1,-1 0,-3 -1,-1 0,-3 -2,0 -1,-1 0,-3 -1,-1 0,-6 1,-1 0,-7 -1,-1 0,-2 -1,-1 0,-1 -1,-1 0,2 1,1 0,5 -1,1 -5,0 -1,1 -3,0 -1,1Z"/>
<path onmouseover="hoverPath(evt)" onmouseout="recoverPath(evt)" fill="rgb(243,242,234)" d="M  122,203l -3,0 -1,1 -5,0 -1,1 -4,0 -1,1 -4,0 -1,1 -5,0 -1,1 -3,0 -1,1 -4,0 -1,1 -3,0 -1,1 4,0 1,-1 7,0 1,-1 1,0 1,-1 -1,0 25,-5 -9,2 6,0 1,1 0,4 1,1 0,3 1,1 0,3 1,1 0,4 1,1 0,4 1,1 0,3 2,0 1,1 0,2 1,0 1,1 5,0 1,-1 14,0 1,-1 24,0 1,-1 25,0 1,-1 1,0 0,-16 -1,-1 0,-10 -1,-1 0,-11 1,-1 2,0 1,1 0,6 -2,-8 0,-1 -6,0 -1,1 -7,0 -1,-1 -1,0 0,1 -1,1 -4,0 -1,-1 -1,0 0,1 -1,1 -5,0 -1,-1 0,1 -1,1 -4,0 -1,-1 0,1 -1,1 -4,0 -1,-1 0,1 -1,1 -4,0 -1,-1 0,1 -1,1 -3,0 -1,1 -4,0 -1,1 -5,0 -1,1 -6,0 -1,-1 0,1 -1,1 0,0 -1,1 -7,0 -10,3 9,-2Z"/>
<path onmouseover="hoverPath(evt)" onmouseout="recoverPath(evt)" fill="rgb(254,254,254)" d="M  126,236l 0,3 1,1 0,2 1,1 0,4 1,1 0,3 1,1 0,3 1,0 0,-3 -1,-1 0,-4 -1,-1 0,-6 1,-1 7,0 1,-1 14,0 1,-1 27,0 1,-1 2,0 1,1 3,0 1,-1 25,0 1,-1 41,0 0,-1 -4,0 -1,-1 -4,0 -1,1 -38,0 -1,-1 0,-1 -1,-1 0,2 -1,1 -1,0 -1,1 -25,0 -1,1 -24,0 -1,1 -14,0 -1,1 -7,0 -1,-1 -1,0 -1,-1Z"/>
<path onmouseover="hoverPath(evt)" onmouseout="recoverPath(evt)" fill="rgb(244,243,235)" d="M  129,83l 0,0 1,1 1,1 0,1 1,1 1,1 1,1 1,1 1,1 1,1 1,1 0,1 1,1 1,1 1,1 1,1 1,1 1,1 1,1 0,1 1,1 1,1 0,1 1,1 0,1 1,1 0,1 1,1 0,1 1,1 0,2 1,1 0,2 1,1 0,2 1,1 0,1 1,1 2,2 1,1 1,1 0,1 1,0 2,2 1,0 1,1 1,0 1,1 1,0 1,1 1,0 1,1 1,1 0,1 1,1 1,1 5,0 1,-1 2,0 1,-1 1,-1 1,0 1,-1 1,-1 1,-1 1,0 1,-1 1,-1 1,0 1,-1 3,0 1,-1 10,0 1,-1 2,0 1,-1 1,-1 2,-2 1,-1 2,-2 1,-1 1,-1 1,0 1,-1 0,-1 1,-1 1,-1 1,-1 1,-1 1,0 1,-1 1,-1 1,0 1,-1 2,0 1,-1 1,0 1,-1 5,0 1,-1 2,0 1,1 2,0 1,1 2,0 1,1 1,0 1,1 1,1 1,0 1,1 1,0 0,-74 -2,0 -1,1 -6,0 -1,1 -4,0 -1,1 -4,0 -1,1 -4,0 -1,1 -4,0 -1,1 -3,0 0,1 -1,1 0,1 -1,1 -2,0 -1,-1 0,-1 -1,-1 -3,0 -1,1 -6,0 -1,1 -6,0 -1,1 -6,0 -1,1 -6,0 -1,1 -4,0 -1,1 -5,0 -1,1 -3,0 -1,1 -3,0 -1,1 -4,0 -1,1 -2,0 -1,1 -3,0 -1,1 -4,0 -1,1 -3,0 -1,1 -2,0 -1,1 -4,0 -1,1 1,1 0,3 1,1 0,2 1,1 0,3 1,1 0,2 -1,1 0,1 -2,2 -1,0 -1,1 -3,0 -1,1 -3,0 1,1Z"/>
<path onmouseover="hoverPath(evt)" onmouseout="recoverPath(evt)" fill="rgb(243,242,233)" d="M  131,243l 0,2 1,1 0,4 1,1 0,4 115,0 0,-11 1,-1 -1,-1 0,-5 -33,0 -1,1 -25,0 -1,1 -5,0 -1,-1 -1,1 -27,0 -1,1 -14,0 -1,1 -7,0Z"/>
<path onmouseover="hoverPath(evt)" onmouseout="recoverPath(evt)" fill="rgb(171,198,238)" d="M  210,23l 10,0 1,-1 2,0 1,-1 1,0 1,-1 2,0 1,-1 3,0 1,1 1,0 1,1 1,1 1,1 1,1 1,1 0,1 1,1 5,0 1,-1 3,0 1,-1 2,0 1,-1 2,0 0,-1 -2,0 -1,1 -2,0 -1,1 -3,0 -1,1 -3,0 -2,-2 -1,-1 -2,-2 -1,-1 -1,-1 -1,0 -1,-1 -4,0 -1,1 -2,0 -1,1 -2,0 -1,1 -1,0 -1,1 -9,0 -1,1 -1,-1 -1,-1 0,-1 -1,-1 0,-1 -1,-1 0,-2 1,-1 0,-1 -1,1 0,0 -1,1 0,2 1,1 0,3 -1,1 0,2 -1,1 1,0 -1,1 -1,-1 0,2 -1,1 0,4 1,-3 0,-1 1,-1 2,-4 2,0 1,-1 1,1Z"/>
<path onmouseover="hoverPath(evt)" onmouseout="recoverPath(evt)" fill="rgb(189,205,235)" d="M  237,183l -2,0 -1,1 2,0 1,-1 0,6 1,1 0,2 1,1 0,1 1,1 1,1 0,1 1,1 0,1 1,1 0,1 1,1 0,1 1,1 0,1 1,1 0,1 1,1 0,1 1,1 0,1 1,1 0,5 -1,1 -1,1 0,1 -1,1 0,1 -1,1 0,5 1,1 0,2 5,0 1,1 3,0 0,-20 -2,0 -1,-1 0,-1 -1,-1 -1,-1 0,-1 -1,-1 -1,-1 0,-1 -1,-1 0,-1 -1,-1 0,-1 -1,-1 0,-1 -1,-1 0,-1 -1,-1 0,-1 -1,-1 0,-1 -1,-1 0,-1 -1,-1 0,-6 -3,4Z"/>
</svg>