<svg width="256" height="256" xmlns="http://www.w3.org/2000/svg"><script> 
var tempColor;
function hoverPath(evt){
obj = evt.target;
tempColor = obj.getAttribute("fill");
obj.setAttribute("fill","red");
//alert(tempColor);
//obj.setAttribute("stroke","red");}
function recoverPath(evt){
obj = evt.target;
obj.setAttribute("fill", tempColor);
//obj.setAttribute("stroke", tempColor);
}</script><path onmouseover="hoverPath(evt)" onmouseout="recoverPath(evt)" fill="rgb(243,242,235)" d="M  0,152l 0,47 1,0 1,-1 2,0 1,-1 1,0 1,-1 2,0 1,-1 2,0 0,-2 1,-1 2,0 1,1 1,0 1,-1 1,0 1,-1 2,0 1,-1 2,0 0,-2 1,-1 2,0 1,1 1,0 0,-2 1,-1 2,0 1,1 1,0 1,-1 1,0 1,-1 2,0 1,-1 2,0 0,-2 1,-1 2,0 1,1 1,0 0,-2 1,-1 2,0 1,1 1,0 1,-1 1,0 1,-1 2,0 0,-2 1,-1 2,0 1,1 1,0 1,-1 2,0 1,-1 2,0 1,-1 1,0 1,-1 2,0 1,-1 2,0 1,-1 1,0 1,-1 2,0 0,-2 -2,0 -1,-1 -1,-1 0,-2 -1,0 -1,-1 0,-1 -1,-1 -1,-1 0,-2 1,-1 -1,-1 0,0 -1,-1 0,-1 -1,-1 -1,-1 -1,-1 -1,0 -1,1 -3,0 -1,1 -3,0 -1,1 -4,0 -1,1 -8,0 -1,-1 0,-2 -1,-1 0,-1 -1,-1 0,-1 -1,-1 0,-1 -1,-1 -1,-1 0,-1 -1,-1 -4,0 -1,1 -6,0 -1,1 -1,0 -1,1 -2,0 -1,1 -2,0 -1,1 -3,0 -1,1 -2,0 -1,1 -2,0 -1,1 -4,0 -1,1 -5,0Z"/>
<path onmouseover="hoverPath(evt)" onmouseout="recoverPath(evt)" fill="rgb(241,241,235)" d="M  84,156l 0,0 1,1 0,2 -1,1 1,1 1,1 1,1 0,1 1,1 2,0 1,-1 2,0 1,-1 1,0 1,-1 2,0 1,-1 2,0 0,-2 1,-1 2,0 1,1 1,0 1,-1 2,0 0,-2 1,-1 2,0 1,1 1,0 1,-1 2,0 0,-2 1,-1 2,0 1,1 1,0 1,-1 1,0 1,-1 2,0 1,-1 2,0 1,-1 1,0 1,-1 2,0 0,-2 1,-1 2,0 1,1 1,0 1,-1 1,0 1,-1 1,0 1,-1 1,0 1,-1 1,0 1,-1 1,0 1,-1 1,-1 1,0 1,-1 0,-3 -1,-1 0,0 -1,-1 -1,-1 -1,-1 -1,-1 -1,-1 0,-1 -1,-1 -1,-1 -3,-3 0,-1 -1,-1 -1,-1 -1,-1 -1,-1 -1,-1 0,-1 -1,-1 -1,-1 -1,-1 0,-1 -1,-1 -1,-1 -1,-1 -1,-1 0,-1 -1,-1 -1,-1 -1,-1 -1,-1 -1,-1 -1,-1 0,-1 -1,-1 -1,-1 -1,-1 0,-1 -1,-1 -1,-1 -1,-1 0,-1 -1,-1 -1,-1 -1,-1 -1,-1 -1,-1 -1,-1 -1,0 -1,-1 -7,0 0,4 -1,1 0,1 -1,1 -4,0 -1,1 -1,0 -1,1 -1,1 -1,1 0,1 -1,1 -1,1 -1,1 0,1 -1,1 0,1 -1,1 -1,0 -1,1 -1,0 0,1 -1,1 -2,0 0,1 -1,1 -1,0 -1,1 -1,1 -1,0 -1,1 -1,1 -1,0 -1,1 -1,0 -1,1 -1,1 -1,0 -1,1 -1,1 -1,0 -1,1 -1,1 -1,1 -1,1 -1,0 -1,1 -1,1 -1,1 -1,1 -1,1 0,2 -1,1 -1,1 0,1 -1,1 -1,1 -1,0 -1,1 -1,1 -1,0 -1,1 -1,0 0,1 -1,1 -3,0 1,1 0,1 1,1 2,0 1,1 0,1 1,1 0,1 1,1 1,1 3,0 1,-1 4,0 1,-1 3,0 1,-1 2,0 1,-1 8,0 1,1 0,1 1,1 1,1 1,1 0,1 1,1 0,1 1,1 1,1 0,1 1,1Z"/>
<path onmouseover="hoverPath(evt)" onmouseout="recoverPath(evt)" fill="rgb(248,200,111)" d="M  102,39l 0,0 1,1 1,0 1,1 0,1 6,0 1,1 0,3 1,0 1,-1 2,0 1,1 1,1 0,2 1,0 1,1 0,1 1,0 1,1 0,1 2,0 1,1 0,1 3,0 1,1 1,0 1,1 0,1 2,0 1,1 0,1 2,0 1,1 0,1 2,0 1,1 0,1 3,0 1,1 0,1 4,0 1,1 1,1 1,0 1,1 1,1 1,0 1,1 1,1 1,0 1,1 1,1 0,2 -1,1 0,1 4,0 1,1 1,1 1,0 1,1 1,1 1,-1 2,0 1,1 1,1 1,0 1,1 0,1 2,0 1,1 0,1 2,0 1,1 0,3 2,0 1,1 0,1 2,0 1,1 0,1 2,0 1,1 0,1 5,0 1,1 0,3 2,0 1,1 0,1 5,0 1,1 0,1 2,0 1,1 0,2 3,0 1,1 0,1 3,0 1,1 1,1 1,0 1,1 1,1 1,0 1,1 1,1 0,2 1,0 1,1 0,1 2,0 1,1 0,1 2,0 1,1 0,1 2,0 1,1 0,1 5,0 1,1 0,1 2,0 1,1 0,1 2,0 1,1 0,1 2,0 1,1 0,1 2,0 1,1 0,1 2,0 1,1 1,0 0,-13 -4,0 -1,-1 0,-1 -5,0 -1,-1 0,-1 -2,0 -1,-1 0,-1 -2,0 -1,-1 0,-3 -1,0 -1,1 -2,0 -1,-1 -1,-1 -1,0 -1,-1 -1,-1 -1,0 -1,-1 0,-3 -1,0 -1,-1 0,-1 -3,0 -1,-1 0,-3 -3,0 -1,1 -2,0 -1,-1 -1,0 -1,-1 0,-3 -1,0 -1,1 -2,0 -1,-1 -1,-1 -1,0 -1,-1 0,-3 -2,0 -1,-1 0,-1 -2,0 -1,-1 0,-1 -2,0 -1,-1 0,-1 -1,0 -1,-1 0,-1 -1,1 -3,0 -1,-1 -1,-1 -1,0 -1,-1 -1,-1 -1,0 -1,-1 -1,0 -1,-1 -1,-1 -1,0 -1,-1 -1,-1 -1,0 -1,-1 -1,-1 -1,0 -1,-1 -1,-1 0,-1 -2,0 -1,-1 0,-1 -2,0 -1,-1 0,-1 -2,0 -1,-1 0,-1 -2,0 -1,-1 0,-1 -2,0 -1,-1 0,-3 -5,0 -1,-1 -1,-1 0,-3 -1,0 -1,1 -2,0 -1,-1 -1,-1 -1,0 -1,-1 -1,-1 0,-2 1,-1 -2,0 -1,-1 0,-1 -1,0 -1,1 -3,0 -1,-1 0,-1 -2,0 -1,-1 0,-3 -1,0 -1,1 -2,0 -1,-1 0,-3 -5,0 -1,-1 0,-3 -1,0 -1,-1 0,-1 -1,0 -1,-1 -2,0 -1,-1 -1,0 -1,-1 0,-1 -1,-1 -2,0 -1,-1 -1,0 -1,-1 -1,0 -1,-1 -1,-1 -4,0 -1,-1 0,-2 -1,0 -1,-1 0,-1 -5,0 -1,-1 0,-1 -2,0 -1,-1 0,-3 -2,0 -1,-1 0,-1 -1,-1 0,-1 -7,0 -1,-1 -1,-1 -1,0 -1,-1 -1,0 -1,-1 -1,-1 0,-3 -18,0 0,1 1,0 1,1 0,1 2,0 1,1 1,1 0,2 -1,1 6,0 1,1 1,0 1,1 1,1 1,0 1,1 0,1 2,0 1,1 0,1 2,0 1,1 0,3 1,0 1,-1 2,0 1,1 1,1 1,0 1,1 1,1 1,0 1,1 0,3 5,0 1,1 0,3 2,0 1,1 0,1 1,1 3,0 1,1 0,1 1,0 1,1 1,1 1,0 1,1 1,1Z"/>
<path onmouseover="hoverPath(evt)" onmouseout="recoverPath(evt)" fill="rgb(243,241,232)" d="M  119,32l 0,4 5,0 1,1 0,3 1,-1 3,0 1,1 0,3 2,0 1,1 0,1 1,0 1,-1 3,0 1,-1 1,0 1,-1 1,-1 1,0 1,-1 1,0 1,-1 1,0 1,-1 1,0 1,-1 1,0 1,-1 1,-1 1,0 1,-1 1,0 1,-1 1,-1 1,0 1,-1 1,-1 1,0 1,-1 1,0 1,-1 1,0 0,-1 -1,-1 0,0 -1,-1 -1,-1 -1,-1 -1,-1 -1,-1 0,-2 1,-1 1,-1 1,0 1,-1 1,0 1,-1 3,0 1,-1 3,0 1,-1 4,0 1,-1 4,0 1,1 3,0 1,1 0,1 1,0 1,-1 2,0 1,-1 7,0 -1,-1 -6,0 -1,-1 -4,0 -1,-1 -5,0 -1,-1 -5,0 -1,-1 -5,0 -1,-1 -5,0 -1,-1 -5,0 -1,-1 -3,0 0,1 -1,1 -1,1 -1,1 -1,1 -1,0 -1,1 -1,1 -1,1 -1,0 -1,1 -1,1 -1,0 -1,1 -1,0 -1,1 -1,1 -2,0 -1,-1 -1,1 0,2 -1,1 -1,1 -1,0 -1,1 -1,1 -1,0 0,1 -1,1 -2,0 0,2 -1,1 -1,1 -1,0 -1,1 -1,1Z"/>
<path onmouseover="hoverPath(evt)" onmouseout="recoverPath(evt)" fill="rgb(243,241,232)" d="M  198,84l -3,0 2,1 0,1 2,0 1,1 0,1 2,0 1,1 0,1 2,0 1,1 0,3 1,0 1,1 1,1 1,-1 3,0 1,1 0,3 1,0 1,1 1,-1 5,0 1,1 0,3 3,0 1,1 0,1 1,0 1,1 0,3 1,0 1,1 1,1 1,0 1,1 1,1 1,-1 3,0 1,1 0,3 2,0 1,1 0,1 2,0 1,1 0,1 5,0 1,1 0,1 3,0 0,-43 -1,0 -1,1 -2,0 0,2 -1,1 -1,0 -1,1 -2,0 -1,1 -3,0 -1,1 -2,0 -1,1 -2,0 -1,1 -2,0 -1,1 -1,0 -1,1 -2,0 -1,1 -2,0 -1,1 -3,0 -1,-1 -1,-1 0,-1 -1,-1 0,-2 -1,-1 0,-4 -1,0 -1,1 -7,0 -1,1 -8,0 -1,1Z"/>
<path onmouseover="hoverPath(evt)" onmouseout="recoverPath(evt)" fill="rgb(170,198,238)" d="M  202,52l 0,3 1,1 1,1 3,0 1,-1 1,0 1,-1 1,0 1,-1 5,0 1,-1 1,-1 0,-1 1,-1 0,-6 -2,0 -1,-1 -1,0 0,3 -1,1 -1,1 -1,1 -1,0 -1,1 -1,0 -1,1 -6,0 -1,1Z"/>
<path onmouseover="hoverPath(evt)" onmouseout="recoverPath(evt)" fill="rgb(244,243,235)" d="M  222,203l -1,0 0,1 1,1 0,1 1,1 1,1 1,1 1,1 0,1 1,1 1,1 1,1 1,1 1,1 0,1 1,1 1,1 1,1 1,1 1,1 1,1 0,1 1,1 1,1 1,1 1,1 1,1 1,1 0,1 1,1 1,1 1,0 1,-1 0,0 1,-1 1,0 2,-2 1,-1 1,0 1,-1 1,0 0,-44 -1,0 -1,1 0,1 -1,1 0,1 -1,1 -1,1 -1,0 -1,1 -1,1 -2,0 0,1 -1,1 -2,0 -1,-1 -1,1 0,2 -1,1 -2,0 -1,-1 -1,1 -1,0 -1,1 0,2 -1,1 -2,0 -1,-1 -1,1 -1,0 -1,1 -1,0 -1,1 -1,0 -1,1Z"/>
<path onmouseover="hoverPath(evt)" onmouseout="recoverPath(evt)" fill="rgb(247,248,245)" d="M  2,201l -2,0 0,1 3,0 1,-1 2,0 1,-1 1,0 1,-1 2,0 1,-1 1,0 1,-1 2,0 1,-1 2,0 1,-1 1,0 1,-1 1,0 1,-1 2,0 1,-1 2,0 1,-1 2,0 1,-1 1,0 1,-1 1,0 1,-1 3,0 1,-1 2,0 1,-1 1,-1 3,0 1,-1 1,-1 2,0 1,1 0,4 -1,1 -1,0 3,-1 1,0 1,-1 0,-5 1,-1 1,0 1,-1 4,0 1,1 0,1 1,1 2,0 1,-1 1,0 1,-1 1,0 1,-1 1,0 0,-2 1,-1 2,0 1,1 2,0 1,-1 1,0 1,-1 2,0 1,-1 1,0 1,-1 2,0 1,-1 1,0 1,-1 2,0 1,-1 1,0 1,-1 1,0 1,-1 2,0 1,-1 1,0 1,-1 2,0 1,-1 1,0 1,-1 1,0 0,-2 1,-1 3,0 1,1 1,0 1,-1 1,0 1,-1 1,0 0,-2 1,-1 2,0 1,1 1,0 0,-2 1,-1 1,0 1,-1 2,0 1,1 1,0 0,-2 1,-1 2,0 1,1 2,0 1,-1 1,0 1,-1 2,0 0,-4 1,-1 1,0 1,-1 1,0 1,-1 1,0 1,-1 1,0 1,-1 2,0 1,1 1,-1 0,-2 1,-1 1,-1 2,0 1,1 0,2 1,1 0,1 1,0 1,1 1,0 1,-1 0,-1 -1,-1 0,-1 -1,-1 -1,-1 -1,-1 0,-2 1,-1 -3,0 -1,1 -1,1 -2,0 0,2 -2,2 -1,0 -2,2 -1,0 -1,1 -1,0 -1,1 -1,0 -1,1 -1,0 -1,1 -1,0 -1,1 -3,0 -1,-1 0,2 -1,1 -2,0 -1,1 -1,0 -1,1 -2,0 -1,1 -2,0 -1,1 -1,0 -1,1 -3,0 -1,-1 0,2 -1,1 -2,0 -1,1 -3,0 -1,-1 0,2 -1,1 -2,0 -1,1 -3,0 -1,-1 0,2 -1,1 -2,0 -1,1 -2,0 -1,1 -1,0 -1,1 -2,0 -1,1 -4,0 -1,-1 -1,-1 0,-1 -1,-1 -1,-1 -1,-1 0,-2 1,-1 -2,0 -1,-1 -1,-1 0,-1 -1,-1 -1,-1 0,-1 -1,-1 0,-1 -1,-1 -1,-1 -1,-1 0,-1 -6,0 -1,1 -2,0 -1,1 -3,0 -1,1 -4,0 -1,1 -5,0 -1,-1 -1,-1 1,2 0,1 6,0 1,-1 4,0 1,-1 3,0 1,-1 3,0 1,-1 3,0 1,1 1,1 1,1 1,1 0,1 1,1 1,1 0,2 -1,1 1,1 1,1 0,1 1,0 1,1 0,2 1,1 2,0 1,1 0,4 -1,1 -2,0 -1,1 -1,0 -1,1 -2,0 -1,1 -2,0 -1,1 -1,0 -1,1 -2,0 -1,1 -2,0 -1,1 -3,0 -1,-1 0,2 -1,1 -2,0 -1,1 -1,0 -1,1 -3,0 -1,-1 0,2 -1,1 -3,0 -1,-1 0,2 -1,1 -2,0 -1,1 -2,0 -1,1 -1,0 -1,1 -3,0 -1,-1 0,2 -1,1 -3,0 -1,-1 0,2 -1,1 -2,0 -1,1 -2,0 -1,1 -1,0 -1,1 -3,0 -1,-1 0,2 -1,1 -2,0 -1,1 -2,0 -1,1 -1,0 -1,1 -2,0 -1,1 161,-67 1,1 1,0 0,-1 1,-1 1,-1 1,-1 4,0 1,-1 1,-1 0,-2 1,-1 1,-1 1,0 1,-1 4,0 0,-2 1,-1 1,0 1,-1 1,0 1,-1 1,0 1,-1 1,-1 1,0 1,-1 2,0 1,-1 2,0 1,1 0,-2 1,-1 1,0 1,-1 2,0 1,-1 1,0 0,-1 -2,0 -1,1 -1,0 -1,1 -2,0 -1,1 -1,0 -1,1 -1,0 -1,1 -1,0 -1,1 -1,0 -1,1 -1,0 -1,1 -1,0 -1,1 -1,0 -1,1 -1,0 -1,1 -1,0 -1,1 -1,1 -1,0 -1,1 -1,1 -1,0 -1,1 -1,1 -1,1 -2,0 0,1 -1,1 -2,2 -2,0 0,1 -1,1 -161,67Z"/>
<path onmouseover="hoverPath(evt)" onmouseout="recoverPath(evt)" fill="rgb(241,240,233)" d="M  34,120l 1,1 0,1 1,1 0,2 -1,1 -2,0 -1,-1 0,-1 -1,-1 0,-2 1,-1 2,0 21,5 1,-1 3,-3 1,-1 1,0 1,-1 1,-1 1,-1 1,-1 1,0 1,-1 1,-1 1,0 1,-1 1,-1 1,0 1,-1 1,0 1,-1 1,-1 1,0 1,-1 1,-1 1,0 0,-1 1,-1 2,0 0,-1 1,-1 1,0 1,-1 1,0 0,-1 1,-1 0,-1 1,-1 1,-1 1,-1 0,-1 1,-1 3,-3 1,0 1,-1 1,0 0,-2 1,-1 0,-1 -1,-1 0,-1 -1,-1 -1,-1 -4,0 -1,-1 -8,0 -1,-1 -1,1 -4,0 -1,-1 -6,0 -1,-1 -5,0 -1,-1 -5,0 -1,-1 -9,0 -1,-1 -10,0 -1,-1 -21,0 -1,1 -14,0 0,71 4,0 1,-1 4,0 1,-1 2,0 1,-1 2,0 1,-1 3,0 1,-1 2,0 1,-1 2,0 1,-1 1,0 1,-1 6,0 1,-1 5,0 1,-1 3,0 0,-1 1,-1 1,0 1,-1 1,0 1,-1 1,-1 1,0 1,-1 0,-1 1,-1 1,-1 0,-2 1,-1 -21,-5Z"/>
<path onmouseover="hoverPath(evt)" onmouseout="recoverPath(evt)" fill="rgb(253,253,252)" d="M  142,0l -1,0 0,1 1,1 0,2 -1,1 -1,1 1,0 1,-1 0,0 -3,1 -2,0 6,-3 1,-1 6,0 1,1 0,2 -1,1 0,1 -1,1 2,-2 0,0 1,-1 0,-1 1,-1 5,0 1,1 5,0 1,1 5,0 1,1 5,0 1,1 5,0 1,1 5,0 1,1 4,0 1,1 6,0 1,1 5,0 1,1 5,0 1,1 5,0 1,1 4,0 1,1 3,0 1,1 2,0 1,1 3,0 1,1 2,0 1,1 1,0 1,1 2,0 1,1 1,0 1,1 1,0 1,1 1,0 1,1 1,0 1,1 1,0 1,1 1,1 1,0 0,-7 -4,0 -1,-1 -1,0 -1,-1 -1,-1 0,-1 -1,0 -1,-1 -1,0 -1,-1 -1,-1 -1,-1 -1,-1 0,-1 -2,0 -1,-1 -1,-1 -1,-1 -1,-1 0,-1 -2,0 -2,-2 -1,-1 0,-2 -4,0 0,1 1,0 1,1 1,1 1,1 1,0 1,1 1,1 0,1 1,0 1,1 1,1 1,0 2,2 0,2 -1,1 -2,0 -1,-1 -2,0 -1,-1 -3,0 -1,-1 -3,0 -1,-1 -4,0 -1,-1 -5,0 -1,-1 -5,0 -1,-1 -5,0 -1,-1 -5,0 -1,-1 -5,0 -1,-1 -4,0 -1,-1 -5,0 -1,-1 0,-2Z"/>
<path onmouseover="hoverPath(evt)" onmouseout="recoverPath(evt)" fill="rgb(241,240,234)" d="M  151,121l 0,0 1,1 1,1 1,1 0,1 1,1 1,1 1,1 1,1 1,1 0,1 1,1 0,1 1,0 1,-1 0,-1 1,-1 2,0 1,-1 1,-1 0,-1 1,-1 2,0 1,-1 1,-1 1,-1 1,0 1,-1 1,-1 1,0 2,-2 1,0 1,-1 1,0 1,-1 1,0 1,-1 1,0 1,-1 1,0 1,-1 1,0 1,-1 1,0 1,-1 1,0 1,-1 1,0 1,-1 2,0 1,-1 1,0 1,-1 3,0 0,-1 -2,0 -1,-1 0,-1 -5,0 -1,-1 0,-1 -2,0 -1,-1 0,-3 -5,0 -1,-1 0,-1 -2,0 -1,-1 0,-1 -2,0 -1,-1 0,-1 -2,0 -1,-1 0,-3 -2,0 -1,-1 0,-1 -2,0 -1,-1 0,-1 -1,0 -1,-1 -1,-1 -1,1 -1,0 0,1 -1,1 -30,0 -1,-1 -8,0 -1,-1 -2,0 -1,1 0,0 1,1 0,1 1,1 1,1 0,1 1,1 1,1 1,1 0,1 1,1 1,1 1,1 1,1 0,1 1,1 1,1 1,1 1,1 0,1 1,1 3,3 0,1 1,1 1,1 1,1 1,1 1,1 0,1 1,1 1,1 1,1 1,1 0,1 1,1Z"/>
<path onmouseover="hoverPath(evt)" onmouseout="recoverPath(evt)" fill="rgb(238,239,235)" d="M  195,173l 0,1 1,1 1,1 1,1 1,0 1,1 0,2 1,0 1,1 1,1 1,1 1,1 1,1 0,1 1,1 3,0 1,1 0,2 -1,1 1,1 0,0 1,1 1,1 0,1 1,1 1,1 1,1 0,1 2,0 1,-1 1,0 1,-1 1,0 1,-1 1,0 1,-1 1,0 1,-1 1,-1 1,-1 2,0 1,-1 2,-2 2,0 1,-1 1,0 1,-1 1,-1 1,0 1,-1 1,0 1,-1 1,-1 1,-1 1,0 1,-1 1,-1 1,-1 1,0 1,-1 1,-1 2,0 0,-29 -1,0 -1,1 -1,0 -1,1 -1,0 -1,1 -1,0 -1,1 -1,0 -1,1 -1,0 -1,1 -2,0 -1,1 -1,0 -1,1 -1,0 -1,1 -2,0 -1,1 -1,0 -1,1 -2,0 -1,1 -1,0 0,2 -1,1 -1,0 -1,1 -2,0 -1,1 -1,0 -1,1 -4,0 -1,1 -1,0 -1,1 -3,0 -1,1 -3,0 -1,1 -2,0 -1,1 -2,0 -1,1 -2,0 -1,1Z"/>
<path onmouseover="hoverPath(evt)" onmouseout="recoverPath(evt)" fill="rgb(238,239,234)" d="M  202,69l -2,0 -1,1 -12,0 -1,-1 0,-1 -1,-1 0,-3 -1,-1 0,-5 1,-1 1,-1 7,0 1,-1 6,0 0,-4 2,-2 6,0 1,-1 1,0 1,-1 1,0 1,-1 1,-1 0,-3 1,-1 3,0 1,1 2,0 1,1 0,8 -1,1 0,1 -1,1 -1,1 -1,1 0,11 -1,1 -2,0 -1,1 -12,0 8,4 12,0 1,1 9,0 1,-1 6,0 1,-1 1,0 1,-1 8,0 1,-1 4,0 0,-41 -2,0 -1,-1 -1,-1 -1,0 -1,-1 -1,0 -1,-1 -1,0 -1,-1 -1,0 -1,-1 -1,0 -1,-1 -2,0 -1,-1 -1,0 -1,-1 -2,0 -1,-1 -3,0 -1,-1 -2,0 -1,-1 -3,0 -1,-1 -4,0 -1,-1 -5,0 -1,-1 -5,0 -1,-1 -3,0 0,1 -1,1 -7,0 -1,1 -2,0 -1,1 -2,0 -1,1 -1,1 -1,0 -1,1 -1,0 -1,1 -1,0 -1,1 -1,1 -1,0 -1,1 -1,0 -1,1 -1,0 -1,1 -1,1 -1,0 -1,1 -2,0 0,1 -1,1 -1,0 -1,1 -1,0 -1,1 -1,0 -1,1 -1,1 -1,0 -2,2 -1,0 -1,1 -1,0 -1,1 -1,1 -1,0 -1,1 -1,0 -1,1 -1,0 -1,1 -1,0 -1,1 -1,0 -1,1 -1,1 -1,0 -1,1 2,0 1,1 0,2 -1,1 1,1 1,0 1,1 1,1 1,-1 3,0 1,1 0,3 1,1 5,0 1,1 0,3 2,0 1,1 0,1 2,0 1,1 0,1 2,0 1,1 0,1 2,0 1,1 0,1 2,0 1,1 0,1 1,1 1,0 1,1 1,1 1,0 1,1 1,1 1,0 1,1 1,1 1,0 1,1 1,-1 0,0 1,-1 1,-1 8,0 1,-1 1,-1 12,0 1,-1 -8,-4Z"/>
<path onmouseover="hoverPath(evt)" onmouseout="recoverPath(evt)" fill="rgb(242,240,230)" d="M  255,2l 0,-2 -24,0 0,1 1,1 0,0 1,1 2,0 1,1 0,1 1,1 1,1 1,1 2,0 1,1 0,1 1,1 1,1 1,1 1,0 1,1 1,0 1,1 0,1 1,1 1,0 1,1 3,0Z"/>
<path onmouseover="hoverPath(evt)" onmouseout="recoverPath(evt)" fill="rgb(243,242,235)" d="M  0,46l 0,21 3,0 1,-1 10,0 1,-1 11,0 1,-1 15,0 1,1 12,0 1,1 3,0 0,-4 1,-1 3,0 0,-4 1,-1 5,0 0,-4 1,-1 3,0 1,-1 0,-3 -1,-1 0,-1 -1,-1 -1,-1 -1,-1 0,-1 -1,-1 -1,-1 0,-1 -1,-1 -1,-1 -1,-1 0,-1 -1,-1 -1,-1 0,-1 -1,0 -1,-1 -1,-1 0,-2 -1,0 -1,-1 0,-1 -1,-1 0,-1 -1,0 -1,-1 -1,0 -1,-1 -1,0 -1,-1 -1,-1 0,-3 -1,-1 0,-5 1,-1 0,-2 1,-1 -1,-1 -2,0 -1,-1 0,-1 -1,0 -1,-1 0,-2 -45,0Z"/>
<path onmouseover="hoverPath(evt)" onmouseout="recoverPath(evt)" fill="rgb(170,198,237)" d="M  0,70l 0,4 13,0 1,-1 23,0 1,1 10,0 1,1 9,0 1,1 5,0 1,1 5,0 1,1 6,0 1,1 2,0 1,-1 2,0 1,1 8,0 1,1 4,0 1,1 1,1 1,1 0,1 1,1 0,3 -1,1 0,1 1,0 0,-1 1,-1 0,-4 1,-1 9,0 1,1 1,0 1,1 1,1 1,1 1,1 1,1 1,1 1,1 0,1 1,1 1,1 1,1 0,1 1,1 1,1 1,1 0,1 1,1 5,5 0,1 1,1 1,1 1,1 1,1 0,1 1,1 1,1 1,1 0,1 1,1 1,1 1,1 1,1 1,1 0,1 1,1 1,1 1,1 1,1 1,1 0,1 1,1 1,1 1,1 1,1 1,1 1,1 0,1 1,0 1,-1 0,-1 -1,-1 0,-1 -1,-1 -1,-1 -1,-1 -1,-1 -1,-1 0,-1 -1,-1 -1,-1 -2,-2 0,-1 -1,-1 -1,-1 -1,-1 -1,-1 0,-1 -1,-1 -1,-1 -1,-1 -1,-1 -1,-1 0,-1 -1,-1 -1,-1 -1,-1 -1,-1 0,-1 -1,-1 -1,-1 -1,-1 -1,-1 0,-1 -2,-2 -1,-1 -1,-1 0,-1 -1,-1 -1,-1 -1,-1 0,-1 -1,-1 -1,-1 0,-1 -1,-1 0,-2 1,-1 1,-1 4,0 1,1 8,0 1,1 28,0 0,-1 -1,-1 -1,0 -1,-1 -1,-1 -44,0 -1,-1 -4,0 -1,-1 -1,0 -1,-1 0,-6 1,-1 -1,0 1,-1 0,-3 -2,10 -6,0 -1,-1 -5,0 -1,-1 -5,0 -1,-1 -5,0 -1,-1 -1,0 -1,-1 0,-4 -1,0 0,2 -1,1 -1,1 -3,0 -1,-1 -6,0 -1,-1 -6,0 -1,-1 -5,0 -1,-1 -12,0 -1,-1 -13,0 -1,1 -11,0 -1,1 -10,0 -1,1 -3,0 -1,1Z"/>
<path onmouseover="hoverPath(evt)" onmouseout="recoverPath(evt)" fill="rgb(237,239,235)" d="M  11,255l 62,0 0,-2 1,-1 2,0 0,-2 1,-1 2,0 1,1 1,0 1,-1 2,0 0,-2 1,-1 2,0 1,1 1,0 1,-1 2,0 0,-2 1,-1 2,0 1,1 1,0 1,-1 2,0 1,-1 2,0 0,-2 1,-1 2,0 1,1 1,0 1,-1 2,0 1,-1 2,0 0,-2 1,-1 2,0 1,1 1,0 1,-1 2,0 1,-1 1,0 1,-1 3,0 1,-1 2,0 1,-1 2,0 0,-2 1,-1 2,0 1,1 1,0 1,-1 2,0 0,-2 1,-1 2,0 1,1 1,0 1,-1 1,0 1,-1 2,0 1,-1 2,0 1,-1 2,0 0,-2 1,-1 2,0 1,1 1,0 1,-1 2,0 0,-2 1,-1 2,0 1,1 1,0 1,-1 2,0 1,-1 2,0 0,-2 1,-1 2,0 1,1 1,0 1,-1 2,0 0,-2 1,-1 2,0 1,1 1,0 1,-1 2,0 1,-1 2,0 1,-1 2,0 1,-1 1,0 1,-1 0,-1 1,-1 0,-3 1,-1 0,-1 -1,-1 0,0 -1,-1 -1,-1 -2,0 -1,-1 -1,-1 0,-1 -1,-1 0,-3 -1,-1 0,-1 -1,-1 0,-1 -1,0 -1,-1 0,-1 -1,-1 -1,-1 -1,-1 -2,0 -1,-1 -1,1 -1,0 -2,2 -1,0 -1,1 -1,1 -1,0 -1,1 -1,1 -2,0 -1,1 -1,1 -2,0 -1,1 -2,0 -1,1 -4,0 -1,1 -4,0 -1,1 -3,0 -1,1 -1,0 -1,1 -2,0 -1,1 -1,0 -1,1 -2,0 -1,1 -1,0 -1,1 -2,0 -1,1 -1,0 -1,1 -1,0 -1,1 -1,0 -1,1 -1,1 -1,1 -1,1 -1,0 -1,1 -1,1 -1,0 -1,1 -1,0 -1,1 -1,0 -1,1 -1,0 -1,1 -1,0 -1,1 -1,0 -1,1 -2,0 -1,1 -1,0 -1,1 -5,0 -1,-1 -1,-1 -1,-1 0,-1 -1,-1 0,-2 1,-1 1,0 1,-1 2,0 1,1 1,0 0,-1 1,-1 1,-1 0,-1 -1,0 -1,1 0,1 -1,1 2,-2 -6,1 -1,1 -3,0 -1,1 -4,0 -1,1 -2,0 -1,1 -1,0 -1,1 -2,0 -1,1 -1,0 -1,1 -2,0 -1,1 -1,0 -1,1 -1,0 -1,1 -2,0 -1,1 -2,0 -1,1 -2,0 -1,1 -1,0 -1,1 -2,0 -1,1 -2,0 -1,1 -3,0 -1,1 -2,0 -1,1 -3,0 -1,1 -1,0 -1,1 -2,0 -1,1 -2,0 -1,1 -2,0 -1,1 -3,0 -1,1 -1,0 -1,1 -4,0 -1,1 -2,0 -1,1 -2,0 -1,1 -2,0 -1,1 -2,0 -1,1 -1,0 -1,1 -2,0 -1,1 -2,0 -1,1 -1,0 -1,1 -2,0 0,17Z"/>
<path onmouseover="hoverPath(evt)" onmouseout="recoverPath(evt)" fill="rgb(221,222,219)" d="M  69,58l -4,0 0,4 -1,1 -3,0 0,3 1,1 6,0 1,1 6,0 1,1 1,0 1,-1 0,-10 1,-1 1,0 0,-7 -4,0 0,1 -1,1 -1,1 -3,0 0,4 -1,1Z"/>
<path onmouseover="hoverPath(evt)" onmouseout="recoverPath(evt)" fill="rgb(242,240,232)" d="M  81,7l 0,1 1,1 0,1 2,0 1,1 0,3 2,0 1,1 0,1 5,0 1,1 0,1 1,0 1,1 0,2 2,0 0,-1 1,-1 1,0 1,-1 1,-1 1,-1 1,-1 11,0 1,-1 0,-1 -1,-1 0,-8 1,-1 1,0 1,-1 1,0 0,-2 -52,0 0,2 1,1 1,0 1,1 1,0 1,1 1,1 7,0 1,1Z"/>
<path onmouseover="hoverPath(evt)" onmouseout="recoverPath(evt)" fill="rgb(242,241,235)" d="M  86,61l -3,0 0,9 1,0 1,1 5,0 1,1 5,0 1,1 5,0 1,1 4,0 0,-5 1,-1 0,-3 1,-1 2,0 0,-1 1,-1 1,-1 1,-1 1,0 1,-1 1,-1 1,0 1,-1 1,0 1,-1 1,0 1,-1 -2,0 -1,-1 0,-1 -1,0 -1,-1 0,-1 -1,0 -1,-1 0,-2 -1,-1 -1,1 -3,0 -1,-1 0,-3 -6,0 -1,-1 0,-1 -1,0 -1,-1 0,1 -2,2 -1,1 -1,1 -1,0 -1,1 -1,1 0,1 -1,1 -2,0 0,7 -1,1 0,1 -1,1 -1,1Z"/>
<path onmouseover="hoverPath(evt)" onmouseout="recoverPath(evt)" fill="rgb(231,230,221)" d="M  122,28l 0,0 1,-1 0,-2 1,-1 2,0 0,-1 1,-1 1,0 1,-1 1,-1 1,0 1,-1 0,-2 1,-1 1,-1 2,0 1,1 1,-1 1,-1 1,0 1,-1 1,0 1,-1 1,-1 1,0 1,-1 1,-1 0,-2 1,-1 0,-1 1,-1 -4,0 -1,1 0,1 -1,1 -1,1 -6,0 -1,-1 0,-2 1,-1 3,0 1,-1 -1,-1 0,-2 -18,0 0,3 -1,1 -1,0 -1,1 -1,0 0,6 1,1 0,3 -2,2 -11,0 -1,1 -1,1 -1,1 -1,1 -1,0 1,1 0,0 1,1 1,0 1,1 1,0 1,1 2,0 1,1 1,1 0,1 1,0 1,1 2,0 1,1 1,0 1,1 0,1 1,-2 1,0 1,-1 1,-1Z"/>
<path onmouseover="hoverPath(evt)" onmouseout="recoverPath(evt)" fill="rgb(242,242,235)" d="M  167,255l 88,0 0,-2 -1,0 -1,-1 -1,-1 -1,-1 -1,-1 -1,-1 0,-1 -1,-1 -1,-1 -1,-1 -1,-1 -1,0 -1,1 0,0 -1,1 -1,1 -1,1 -3,0 -1,-1 0,-3 1,-1 1,-1 1,-1 1,-1 0,-1 -1,-1 -1,-1 0,-1 -1,-1 -1,-1 -1,-1 -1,-1 0,-1 -1,-1 -1,-1 -1,-1 -1,-1 0,-1 -1,-1 -1,-1 -1,-1 -1,-1 -1,-1 0,-1 -1,-1 -1,-1 -1,-1 -1,-1 0,-1 -1,-1 -1,-1 -1,-1 -1,-1 -1,-1 0,-1 -1,0 -1,1 -2,0 -1,-1 -1,0 -1,1 -1,0 -1,1 -1,0 -1,1 -3,0 -1,1 -2,0 -1,1 -2,0 -1,1 -1,0 -1,1 -2,0 -1,1 -2,0 0,2 -1,1 -2,0 -1,-1 -1,0 -1,1 -2,0 -1,1 -2,0 0,2 -1,1 -2,0 -1,-1 -1,0 -1,1 -2,0 0,2 -1,1 -2,0 -1,-1 -1,0 -1,1 -2,0 0,2 -1,1 -2,0 -1,-1 -1,0 -1,1 -2,0 0,2 -1,1 -2,0 -1,-1 -1,0 -1,1 -2,0 0,2 -1,1 -2,0 -1,-1 -1,0 -1,1 -2,0 -1,1 -2,0 -1,1 -2,0 0,2 1,1 0,0 1,1 0,1 1,1 1,1 0,1 1,1 2,0 1,1 0,2 -1,1 1,1 0,0 1,1 0,3Z"/>
<path onmouseover="hoverPath(evt)" onmouseout="recoverPath(evt)" fill="rgb(237,236,220)" d="M  187,2l 2,0 1,1 5,0 1,1 5,0 1,1 5,0 1,1 5,0 1,1 5,0 1,1 4,0 1,1 3,0 1,1 3,0 1,1 2,0 1,1 -3,-2 -1,-1 -1,0 -1,-1 0,-1 -1,-1 -1,0 -1,-1 -1,-1 -1,-1 -1,0 -1,-1 0,-2 -44,0 0,1 5,0 1,1Z"/>
<path onmouseover="hoverPath(evt)" onmouseout="recoverPath(evt)" fill="rgb(236,238,234)" d="M  187,58l -1,1 0,3 1,1 0,3 1,1 0,1 10,0 1,-1 14,0 1,-1 2,0 0,-10 -3,0 -1,1 -1,0 -1,1 -1,0 -1,1 -5,0 -1,-1 -1,-1 -6,0 -1,1Z"/>
<path onmouseover="hoverPath(evt)" onmouseout="recoverPath(evt)" fill="rgb(236,238,234)" d="M  219,82l 0,2 1,1 0,2 1,1 0,1 1,1 1,0 1,-1 2,0 1,-1 2,0 1,-1 1,0 1,-1 2,0 1,-1 2,0 1,-1 2,0 1,-1 3,0 1,-1 2,0 1,-1 1,0 0,-1 -19,0 -1,1 -9,0 -1,1Z"/>
<path onmouseover="hoverPath(evt)" onmouseout="recoverPath(evt)" fill="rgb(251,251,248)" d="M  239,190l -1,0 -1,1 -2,0 -1,1 -1,1 -1,1 -2,0 -1,1 -1,1 -1,1 -1,0 -1,1 -1,0 -1,1 -1,0 -1,1 -1,0 -1,1 -3,0 -1,1 -1,1 -1,0 -1,1 -2,0 -1,-1 0,1 -1,1 -2,0 -1,-1 0,-3 -1,4 0,1 -1,1 -1,1 -1,0 -1,1 -2,0 -1,1 -2,0 -1,1 -2,0 -1,1 -3,0 -1,-1 0,2 -1,1 -2,0 -1,1 -3,0 -1,-1 0,2 -1,1 -2,0 -1,1 -2,0 -1,1 -3,0 -1,-1 0,2 -1,1 -2,0 -1,1 -3,0 -1,-1 0,2 -1,1 -2,0 -1,1 -2,0 -1,1 -2,0 -1,1 -1,0 -1,1 -3,0 -1,-1 0,2 -1,1 -2,0 -1,1 -3,0 -1,-1 0,2 -1,1 -2,0 -1,1 -2,0 -1,1 -3,0 -1,1 -1,0 -1,1 -2,0 -1,1 -3,0 -1,-1 0,2 -1,1 -2,0 -1,1 -2,0 -1,1 -3,0 -1,-1 0,2 -1,1 -2,0 -1,1 -2,0 -1,1 -3,0 -1,-1 0,2 -1,1 -2,0 -1,1 -3,0 -1,-1 0,2 -1,1 -2,0 -1,1 -3,0 -1,-1 0,2 -1,1 -2,0 0,1 7,0 0,-2 1,-1 2,0 1,-1 2,0 1,-1 2,0 1,-1 1,0 1,-1 2,0 1,-1 2,0 1,-1 1,0 1,-1 2,0 1,-1 2,0 1,-1 2,0 1,-1 1,0 1,-1 2,0 1,-1 2,0 1,-1 3,0 1,1 5,0 1,1 0,1 1,1 1,1 0,1 1,1 1,1 0,1 1,1 0,1 1,1 1,1 0,3 2,0 0,-2 -1,-1 0,0 -1,-1 0,-2 1,-1 -2,0 -1,-1 -1,-1 0,-1 -1,-1 -1,-1 0,-1 -1,-1 -1,-1 0,-4 1,-1 2,0 1,-1 2,0 1,-1 2,0 1,-1 3,0 1,1 0,-2 1,-1 2,0 1,-1 3,0 1,1 0,-2 1,-1 2,0 1,-1 3,0 1,1 0,-2 1,-1 2,0 1,-1 3,0 1,1 0,-2 1,-1 2,0 1,-1 3,0 1,1 0,-2 1,-1 2,0 1,-1 2,0 1,-1 3,0 1,1 0,-2 1,-1 2,0 1,-1 2,0 1,-1 1,0 1,-1 2,0 1,-1 2,0 1,-1 3,0 1,-1 1,0 1,-1 1,0 1,-1 3,0 1,1 0,-2 1,-1 2,0 1,-1 2,0 0,-1 1,-1 1,0 1,-1 1,0 1,-1 1,0 1,-1 1,0 1,-1 2,0 1,1 0,-2 1,-1 1,-1 1,0 1,-1 2,0 1,1 0,-2 1,-1 0,-1 1,-1 1,1 1,0 1,1 0,-1 1,-1 2,0 1,-1 1,-1 1,0 1,-1 0,-1 1,-1 0,-1 1,-1 1,-1 2,0 0,-2 -1,0 -1,1 0,0 -1,1 -1,0 -2,2 -1,1 -1,0 -1,1 -2,2 -1,0 -1,1 -1,0 -1,1 -1,1Z"/>
<path onmouseover="hoverPath(evt)" onmouseout="recoverPath(evt)" fill="rgb(244,242,235)" d="M  0,215l 0,21 1,0 1,-1 1,0 1,-1 2,0 1,-1 2,0 1,-1 1,0 1,-1 2,0 1,-1 2,0 1,-1 2,0 1,-1 2,0 1,-1 4,0 1,-1 1,0 1,-1 3,0 1,-1 2,0 1,-1 2,0 1,-1 2,0 1,-1 1,0 1,-1 3,0 1,-1 2,0 1,-1 3,0 1,-1 2,0 1,-1 2,0 1,-1 1,0 1,-1 2,0 1,-1 2,0 1,-1 2,0 1,-1 1,0 1,-1 1,0 1,-1 2,0 1,-1 1,0 1,-1 2,0 1,-1 1,0 1,-1 2,0 1,-1 4,0 1,-1 3,0 1,-1 2,0 1,1 1,0 0,-1 1,-1 1,-1 3,0 1,1 0,3 -1,1 -1,1 0,1 -1,1 -3,0 -1,-1 -1,1 -1,0 1,1 0,1 1,1 1,1 3,0 1,-1 1,0 1,-1 2,0 1,-1 1,0 1,-1 1,0 1,-1 1,0 1,-1 1,0 1,-1 1,0 1,-1 1,0 1,-1 1,-1 1,0 1,-1 1,-1 1,-1 1,-1 1,0 1,-1 1,0 1,-1 1,0 1,-1 2,0 1,-1 1,0 1,-1 2,0 1,-1 1,0 1,-1 2,0 1,-1 1,0 1,-1 3,0 1,-1 4,0 1,-1 4,0 1,-1 2,0 1,-1 2,0 2,-2 2,0 1,-1 1,-1 1,0 1,-1 1,-1 1,0 1,-1 1,-1 1,0 0,-1 -1,0 -1,-1 -1,0 -1,-1 -1,0 -1,-1 -1,-1 -1,0 -1,-1 -1,0 -1,-1 -1,0 -1,-1 0,-2 1,-1 2,0 1,1 1,0 1,1 1,0 1,1 1,0 1,1 1,0 1,1 1,0 1,1 0,-1 -1,-1 0,0 -1,-1 -1,-1 -1,-1 -1,-1 -1,-1 0,-1 -1,-1 -1,-1 -1,-1 -1,-1 0,-1 -1,-1 -1,-1 -1,-1 -1,-1 -1,-1 0,-1 -1,-1 -1,-1 -1,-1 -1,-1 -1,-1 0,-1 -2,0 -1,-1 -1,0 -1,-1 0,-1 -1,-1 0,-2 -1,1 0,2 -1,1 -1,1 -2,0 -1,-1 -1,1 -1,0 -1,1 -1,0 -1,1 -1,0 -1,1 -1,0 0,4 -1,1 -2,0 -1,1 -1,0 -1,1 -3,0 -1,1 -1,0 -1,1 -2,0 -1,1 -2,0 -1,-1 0,2 -1,1 -3,0 -1,-1 0,2 -1,1 -1,0 -1,1 -1,0 -1,1 -3,0 -1,-1 -1,0 0,2 -1,1 -1,0 -1,1 -1,0 -1,1 -2,0 -1,1 -1,0 -1,1 -2,0 -1,1 -1,0 -1,1 -1,0 -1,1 -2,0 -1,1 -1,0 -1,1 -2,0 -1,1 -1,0 -1,1 -2,0 -1,1 -1,0 -1,1 -3,0 -1,1 -1,0 -1,1 -1,0 -1,1 -1,0 -1,1 -1,0 -1,1 -3,0 -1,1 -2,0 -1,-1 0,-2 1,-1 -2,0 -1,1 -1,0 0,5 -2,2 -2,0 -1,1 -2,0 -1,1 -2,0 -1,-1 0,-2 1,-1 1,0 1,-1 1,0 0,-2 -1,1 -1,1 -3,0 -2,2 -2,0 -1,1 -3,0 -1,1 -1,0 -1,1 -1,0 -1,1 -2,0 -1,1 -2,0 -1,1 -2,0 -1,1 -1,0 -1,1 -1,0 -1,1 -2,0 -1,1 -2,0 -1,1 -1,0 -1,1 -2,0 -1,1 -1,0 -1,1 -2,0 -1,1 -4,0 0,11 34,-21 2,0 1,1 0,2 -1,1 -2,0 -1,-1 0,-2 1,-1 -34,21 8,-10 2,0 1,1 0,2 -1,1 -2,0 -1,-1 0,-2 1,-1 -8,10 14,-12 1,-1 2,0 1,1 0,2 -1,1 -2,0 -1,-1 0,-2 -14,12 21,-15 1,-1 2,0 1,1 0,2 -1,1 -2,0 -1,-1 0,-2 -21,15Z"/>
<path onmouseover="hoverPath(evt)" onmouseout="recoverPath(evt)" fill="rgb(232,230,225)" d="M  53,10l -1,0 -1,1 0,3 1,1 0,3 1,1 1,0 1,1 1,0 1,1 1,0 1,1 0,1 1,1 0,1 1,0 1,1 0,2 1,1 1,0 1,1 0,1 1,1 1,1 0,1 1,1 1,1 2,0 1,1 1,1 1,1 0,1 1,0 1,1 1,0 1,1 1,1 2,0 1,1 0,1 1,1 3,0 1,1 2,0 1,1 2,0 0,-1 1,-1 1,-1 1,-1 1,0 1,-1 1,-1 1,-1 0,-1 -1,-1 -1,0 -1,-1 -1,-1 -1,0 -1,-1 0,-1 -3,0 -1,-1 -1,-1 0,-1 -2,0 -1,-1 0,-3 -5,0 -1,-1 0,-3 -1,0 -2,-2 -1,0 -2,-2 -1,1 -3,0 -1,-1 0,-3 -2,0 -1,-1 0,-1 -2,0 -1,-1 0,-1 -1,0 -1,-1 -1,-1 -1,0 -1,-1Z"/>
<path onmouseover="hoverPath(evt)" onmouseout="recoverPath(evt)" fill="rgb(204,214,227)" d="M  82,55l 0,3 -1,1 6,0 1,-1 0,-1 1,-1 0,-6 -1,-1 -2,0 -1,-1 -3,0 -1,-1 -1,-1 0,-1 -2,0 -1,-1 -1,-1 -1,0 -1,-1 -1,0 -1,-1 0,-1 -1,-1 -1,-1 4,5 1,1 0,1 1,1 0,2 5,0 1,1 0,6 -1,5 -1,-1 0,6 1,0 0,-5 1,-5Z"/>
<path onmouseover="hoverPath(evt)" onmouseout="recoverPath(evt)" fill="rgb(244,241,233)" d="M  114,63l -1,1 0,1 -1,1 0,5 -1,1 0,4 1,0 1,1 4,0 1,1 38,0 0,-2 1,-1 -1,-1 -1,0 -1,-1 -1,-1 -1,0 -1,-1 -1,-1 -1,0 -1,-1 -1,-1 -4,0 -1,-1 0,-1 -3,0 -1,-1 0,-1 -2,0 -1,-1 0,-1 -2,0 -1,-1 0,-1 -2,0 -1,-1 0,-1 -1,0 -1,-1 -3,0 -1,1 -1,0 -1,1 -1,0 -1,1 -1,0 -1,1 -1,1 -1,0 -1,1Z"/>
<path onmouseover="hoverPath(evt)" onmouseout="recoverPath(evt)" fill="rgb(242,241,231)" d="M  115,243l -1,0 -1,1 -1,0 -1,1 -2,0 -1,1 -2,0 -1,1 -2,0 -1,1 -1,0 -1,1 -2,0 -1,1 -2,0 -1,1 -1,0 -1,1 -2,0 -1,1 -2,0 -1,1 -2,0 0,1 50,0 0,-2 -1,-1 -1,-1 0,-1 -1,-1 0,-1 -1,-1 -1,-1 0,-1 -1,-1 -1,-1 0,-1 -5,0 -1,-1 -1,0 -1,1 -2,0 -1,1Z"/>
<path onmouseover="hoverPath(evt)" onmouseout="recoverPath(evt)" fill="rgb(236,238,234)" d="M  163,19l 0,0 -1,1 2,2 1,1 1,1 1,1 1,1 1,0 1,-1 1,0 1,-1 1,-1 1,0 1,-1 1,0 1,-1 1,0 1,-1 1,-1 1,0 1,-1 1,0 1,-1 1,0 1,-1 0,-1 -3,0 -1,-1 -2,0 -1,1 -4,0 -1,1 -3,0 -1,1 -3,0 -1,1 -1,0 -1,1Z"/>
<path onmouseover="hoverPath(evt)" onmouseout="recoverPath(evt)" fill="rgb(243,242,234)" d="M  168,134l 0,0 -1,1 0,1 -1,1 -2,0 1,1 1,1 1,1 0,1 1,1 0,2 1,0 1,1 1,1 1,1 1,1 1,1 1,1 1,1 1,1 1,1 1,1 1,1 1,1 0,1 1,1 1,1 1,1 0,1 1,1 1,1 0,1 1,1 1,1 1,1 1,1 5,0 1,-1 2,0 1,-1 1,0 0,-1 -1,-1 0,-1 -1,-1 0,-1 -1,-1 0,-2 1,-1 1,-1 1,0 1,-1 1,0 1,-1 3,0 0,-1 1,-1 1,0 1,-1 1,0 1,-1 1,0 1,-1 1,0 1,-1 1,0 1,-1 2,0 1,1 1,1 1,1 1,1 1,1 1,1 0,1 1,1 0,3 1,0 1,-1 2,0 1,-1 1,0 1,-1 2,0 1,-1 1,0 1,-1 1,0 1,-1 2,0 1,-1 1,0 1,-1 1,0 1,-1 1,0 1,-1 1,0 1,-1 1,0 1,-1 2,0 0,-7 -2,0 -1,-1 -2,0 -1,-1 0,-1 -2,0 -1,-1 0,-1 -2,0 -1,-1 0,-1 -2,0 -1,-1 0,-1 -2,0 -1,-1 0,-1 -5,0 -1,-1 0,-1 -2,0 -1,-1 0,-1 -2,0 -1,-1 0,-1 -2,0 -1,-1 0,-1 -1,0 -1,-1 0,-2 -1,-1 -1,0 -1,-1 -1,-1 -1,0 -1,-1 -1,-1 -3,0 -1,-1 0,-1 -2,0 0,2 -1,1 -1,0 -1,1 -2,0 -1,1 -1,0 0,2 -1,1 -2,0 -1,-1 -1,1 -2,0 -1,1 -1,0 -1,1 -1,1 -1,0 -1,1 -1,0 -1,1 -1,0 0,2 -1,1 -4,0 -1,1 -1,0 -1,1 0,2 -2,2 -1,1 -4,0 -1,1Z"/>
<path onmouseover="hoverPath(evt)" onmouseout="recoverPath(evt)" fill="rgb(170,197,235)" d="M  187,79l 0,0 -1,1 1,1 1,0 1,1 1,1 1,0 1,-1 5,0 1,-1 8,0 1,-1 7,0 1,-1 13,0 1,-1 23,0 1,-1 2,0 0,-5 -3,0 -1,1 -8,0 -1,1 -1,0 -1,1 -6,0 -1,1 -11,0 -1,-1 -10,0 -1,1 -12,0 -1,1 -1,1 -8,0 -1,1Z"/>
<path onmouseover="hoverPath(evt)" onmouseout="recoverPath(evt)" fill="rgb(181,204,237)" d="M  219,163l 1,0 1,-1 2,0 1,-1 -1,0 -1,-1 0,-2 1,-1 1,0 0,-1 -1,-1 0,-1 -1,-1 -1,-1 -1,-1 -1,-1 -1,-1 -1,1 -1,0 -1,1 -1,0 -1,1 -1,0 -1,1 -1,0 -1,1 -1,0 0,1 -1,1 -3,0 -1,1 -1,0 -1,1 -1,0 -1,1 1,1 0,1 1,1 0,1 1,1 0,3 -1,1 2,0 1,-1 3,0 1,-1 3,0 1,-1 1,0 1,-1 4,0 1,-1 -19,5 -1,1 -2,0 -1,1 -7,0 -1,-1 -1,-1 -1,-1 -1,-1 -1,-1 0,-1 -1,-1 -1,-1 0,-1 -1,-1 -1,-1 -1,-1 0,-1 -1,-1 -1,-1 -1,-1 -1,-1 -1,-1 -1,-1 -1,-1 -1,-1 -1,-1 -1,-1 -1,-1 -1,0 0,1 1,1 0,0 1,1 1,1 1,1 1,1 0,1 1,1 1,1 1,1 1,1 1,1 0,1 1,1 1,1 1,1 1,1 0,1 1,1 1,1 1,1 1,1 1,1 1,1 0,3 -1,1 0,2 1,0 1,1 2,0 1,1 1,1 1,1 1,1 0,1 1,0 1,1 0,1 1,1 0,1 1,1 0,3 1,1 0,1 1,1 2,0 1,1 1,1 1,1 1,1 0,2 1,1 0,3 1,-2 2,0 1,1 1,-1 1,0 1,-1 0,-1 -1,-1 0,0 -1,-1 -1,-1 0,-1 -1,-1 -1,-1 -1,-1 0,-2 1,-1 -3,0 -1,-1 -1,-1 0,-1 -1,-1 -1,-1 -1,-1 -1,-1 -1,0 -1,-1 0,-2 -1,0 -1,-1 -1,-1 -1,-1 -1,-1 0,-4 7,-3 19,-5 -34,11 -1,0 -1,-1 -1,0 -1,-1 -1,0 -1,-1 6,3 34,-11Z"/>
<path onmouseover="hoverPath(evt)" onmouseout="recoverPath(evt)" fill="rgb(179,203,237)" d="M  218,207l 0,1 1,1 1,1 1,1 1,1 1,1 0,1 1,1 1,1 1,1 1,1 0,1 1,1 1,1 1,1 1,1 1,1 0,1 1,1 1,1 1,1 1,1 0,1 1,1 1,1 1,1 1,1 0,1 1,1 1,1 0,3 -1,1 -1,1 -2,2 0,1 1,0 1,-1 0,0 1,-1 1,-1 1,-1 3,0 1,1 1,1 1,1 1,1 1,1 0,1 1,1 1,1 1,1 1,1 0,-22 -1,1 -1,0 -1,1 -2,2 -1,0 -2,2 -3,0 -1,-1 -1,-1 -1,-1 0,-1 -1,-1 -1,-1 -1,-1 -1,-1 -1,-1 -1,-1 0,-1 -1,-1 -1,-1 -1,-1 -1,-1 -1,-1 -1,-1 0,-1 -1,-1 -1,-1 -1,-1 -1,-1 -1,-1 0,-1 -1,-1 -1,-1 -1,-1 -1,-1 0,-1 -1,-1 -1,0 -1,1 1,1Z"/>
</svg>