<svg width="256" height="256" xmlns="http://www.w3.org/2000/svg"><script> 
var tempColor;
function hoverPath(evt){
obj = evt.target;
tempColor = obj.getAttribute("fill");
obj.setAttribute("fill","red");
//alert(tempColor);
//obj.setAttribute("stroke","red");}
function recoverPath(evt){
obj = evt.target;
obj.setAttribute("fill", tempColor);
//obj.setAttribute("stroke", tempColor);
}</script><path onmouseover="hoverPath(evt)" onmouseout="recoverPath(evt)" fill="rgb(245,244,237)" d="M  0,176l 0,50 3,0 1,-1 2,0 1,-1 3,0 1,-1 2,0 1,-1 2,0 1,-1 1,-1 0,-2 -1,-1 0,-1 -1,-1 0,-1 -1,-1 0,-2 -1,-1 0,-1 -1,-1 0,-1 -1,-1 0,-2 -1,-1 0,-2 -1,-1 0,-1 -1,-1 0,-2 -1,-1 0,-2 -1,-1 0,-1 -1,-1 0,-2 -1,-1 0,-1 -1,-1 0,-1 -1,-1 0,-2 -1,-1 0,-4 -1,-1 -1,1Z"/>
<path onmouseover="hoverPath(evt)" onmouseout="recoverPath(evt)" fill="rgb(242,241,234)" d="M  13,113l 0,10 1,1 0,5 1,1 0,4 1,0 1,-1 2,0 1,-1 2,0 1,-1 3,0 1,-1 3,0 1,1 2,0 1,-1 1,0 0,-2 1,-1 2,0 1,-1 2,0 1,-1 3,0 1,1 1,0 0,-17 1,-1 0,-11 -2,0 -1,-1 0,-11 1,-1 0,-9 -2,0 -1,-1 0,-9 -1,-1 0,-4 -1,2 -6,0 0,4 1,1 0,5 -1,1 0,2 -1,1 -2,0 -1,-1 -1,1 -1,0 0,4 -1,1 -1,1 -1,0 -1,1 1,0 1,1 0,4 1,1 0,7 1,1 0,8 1,1 0,3 -1,1 -1,1 -8,0 -1,-1 0,1 -2,2Z"/>
<path onmouseover="hoverPath(evt)" onmouseout="recoverPath(evt)" fill="rgb(241,241,236)" d="M  88,32l 0,0 -1,-1 -1,-1 0,-5 1,-1 0,-11 1,-1 8,0 1,1 0,12 -1,1 -1,1 -1,1 -1,1 -1,1 -1,1 -1,1 -2,0 -1,2 0,2 1,1 0,10 -1,1 -1,1 3,0 1,1 1,-1 3,0 1,-1 1,0 1,-1 4,0 1,-1 3,0 1,-1 0,-4 1,-1 1,0 1,-1 0,-1 1,-1 0,-6 1,-1 0,-4 1,-1 0,-3 1,-1 -2,1 -3,0 -1,-1 -3,0 -1,-1 0,-2 1,-1 0,-1 1,-1 0,-2 1,-1 1,-1 4,0 1,1 3,0 1,1 0,1 1,-2 0,-2 1,-1 0,-2 1,-1 0,-1 -1,-1 -12,0 -1,1 -6,0 -1,1 -4,0 -1,-1 -2,0 -1,1 -1,0 -1,1 -1,1 -4,0 -1,-1 0,-4 -1,-1 0,-2 -37,0 0,3 1,1 0,25 1,1 0,29 1,1 0,7 1,1 0,1 1,0 1,-1 1,0 1,-1 2,0 1,-1 1,0 1,-1 1,-1 1,0 0,-2 1,-1 1,0 1,-1 1,0 0,-8 -1,-1 0,-17 1,-1 23,0 1,1 1,-2 -3,17 -1,0 1,1 0,-1 3,-17Z"/>
<path onmouseover="hoverPath(evt)" onmouseout="recoverPath(evt)" fill="rgb(244,243,237)" d="M  182,225l 0,30 52,0 0,-4 1,-1 1,0 1,-1 4,0 1,1 1,0 0,-3 -1,-1 0,-2 -1,-1 0,-1 -1,-1 -1,-1 -1,-1 -1,-1 0,-2 -15,0 -1,1 -8,0 -1,1 -1,0 0,2 -1,1 -26,0 -1,-1 0,-14 -1,-1 4,18 0,1 1,1 0,5 1,1 1,1 0,0 -3,-9 -4,-18 31,17 0,3 1,1 0,2 1,1 0,3 -1,1 -9,0 -1,-1 -13,0 22,-10 -31,-17Z"/>
<path onmouseover="hoverPath(evt)" onmouseout="recoverPath(evt)" fill="rgb(244,243,237)" d="M  250,1l 0,7 1,1 0,5 1,1 0,4 1,1 0,3 1,1 0,1 1,0 0,-25 -4,0 -1,1Z"/>
<path onmouseover="hoverPath(evt)" onmouseout="recoverPath(evt)" fill="rgb(179,202,238)" d="M  27,75l 0,0 1,-1 1,0 1,-1 2,0 1,1 0,-2 1,-1 0,-3 -1,-1 0,-6 1,-1 6,0 0,-1 1,-1 1,0 0,-2 -2,0 -1,-1 0,-12 -1,-1 0,-6 -27,0 -1,1 -3,0 -1,-1 -6,0 0,56 2,0 1,1 1,1 1,1 0,3 1,1 0,2 1,1 0,5 1,1 0,5 1,1 0,5 1,1 0,5 1,1 0,4 1,1 0,3 1,0 0,-3 -1,-1 0,-5 -1,-1 0,-12 1,-1 4,0 1,-1 0,-1 1,-1 2,0 1,1 6,0 1,-1 0,-1 -1,-1 0,-8 -1,-1 0,-7 -1,-1 0,-4 -3,0 -1,-1 0,-2 1,-1 2,0 1,-1 1,0 1,-1Z"/>
<path onmouseover="hoverPath(evt)" onmouseout="recoverPath(evt)" fill="rgb(171,198,238)" d="M  185,226l 0,13 24,0 0,-3 -1,-1 0,-1 -1,-1 0,-2 -1,-1 0,-1 -1,-1 0,-3 -19,0 -1,1Z"/>
<path onmouseover="hoverPath(evt)" onmouseout="recoverPath(evt)" fill="rgb(244,243,236)" d="M  210,34l 0,5 1,1 0,5 1,1 0,5 1,1 0,3 1,1 1,0 1,1 0,1 3,0 1,-1 2,0 1,1 0,2 -1,1 -1,0 -1,1 -1,0 0,1 1,1 0,1 1,1 1,-1 1,0 1,-1 1,-1 1,-1 1,0 1,-1 1,-1 0,-1 1,-1 7,0 1,1 1,0 1,-1 2,0 1,-1 1,0 1,-1 1,0 1,-1 1,-1 1,0 1,-1 0,-5 1,-1 1,-1 1,-1 -2,0 -1,1 -1,1 -2,0 -1,-1 0,-2 -4,0 -1,1 -2,0 -1,1 -1,1 0,1 -1,1 -10,0 -1,-1 -1,-1 0,-6 1,-1 2,0 1,-1 4,0 1,-1 3,0 1,-1 4,0 1,-1 8,0 0,-1 -1,-1 0,-3 -1,-1 0,-1 -1,-1 0,-1 -1,-1 0,-1 -1,-1 0,-2 -1,-1 0,-14 -1,-1 0,-1 -1,-1 0,-4 -33,0 0,3 1,1 0,8 1,1 0,6 -1,1 -6,0 -1,1 -9,0 -1,1 -9,0 -1,-1 0,9 -1,1 0,7 4,0 1,-1 2,0 1,-1 1,0 0,-1 1,-1 3,0 1,-1 3,0 1,-1 1,-1 3,0 1,-1 1,-1 1,0 1,-1 4,0 1,1 0,2 -1,1 -1,1 -1,1 20,23 -1,1 -2,0 -1,-1 0,-2 1,-1 2,0 1,1 0,2 -20,-23 28,16 1,-1 2,0 1,1 0,2 -1,1 -2,0 -1,-1 0,-2 -28,-16 -26,-22 1,-1 5,0 -5,-1 -1,0 0,2 26,22Z"/>
<path onmouseover="hoverPath(evt)" onmouseout="recoverPath(evt)" fill="rgb(175,200,236)" d="M  225,66l 0,0 -1,1 -1,0 0,3 2,0 1,-1 3,0 1,-1 1,-1 3,0 1,1 1,1 4,0 -2,-1 0,-3 1,-1 1,0 1,-1 2,0 1,-1 1,0 1,-1 2,0 1,-1 2,0 1,-1 3,0 0,-12 -1,0 -1,1 0,0 -1,1 0,5 -1,1 -1,1 -1,0 -1,1 -1,1 -1,0 -1,1 -1,0 -1,1 -2,0 -1,1 -3,0 -1,-1 -5,0 0,1 -1,1 -1,1 -1,1 -1,0 -1,1 -1,1Z"/>
<path onmouseover="hoverPath(evt)" onmouseout="recoverPath(evt)" fill="rgb(240,240,234)" d="M  0,3l 0,26 41,0 0,-20 -1,-1 0,-8 -40,0Z"/>
<path onmouseover="hoverPath(evt)" onmouseout="recoverPath(evt)" fill="rgb(237,239,237)" d="M  0,235l 0,20 33,0 0,-1 -1,-1 0,-1 -1,-1 0,-2 -1,-1 0,-1 -1,-1 0,-2 -1,-1 0,-1 -1,-1 0,-2 -1,-1 0,-1 -1,-1 0,-2 -1,-1 0,-1 -1,-1 0,-2 -1,-1 0,-1 -4,0 -1,1 -1,0 0,7 -1,1 -1,1 -2,0 -1,-1 0,-2 -1,-1 -1,-1 -1,1 -4,0 -1,1 -2,0 -1,1Z"/>
<path onmouseover="hoverPath(evt)" onmouseout="recoverPath(evt)" fill="rgb(233,229,213)" d="M  40,35l 0,6 1,1 0,12 1,0 0,-14 -1,-1 0,-3 -1,-1 -2,-1 0,-1 -29,0 -1,1 -8,0 8,1 1,0 1,-1 28,0 2,1Z"/>
<path onmouseover="hoverPath(evt)" onmouseout="recoverPath(evt)" fill="rgb(222,229,235)" d="M  43,253l 0,2 17,0 0,-2 -2,-2 0,-2 -1,-1 0,-3 1,-1 -4,0 -1,-1 0,-1 -1,-1 -2,0 -1,-1 -4,0 -1,1 -4,0 -1,1 -1,0 1,1 0,1 1,1 0,3 1,1 0,2 1,1 1,1Z"/>
<path onmouseover="hoverPath(evt)" onmouseout="recoverPath(evt)" fill="rgb(242,242,235)" d="M  98,99l 0,6 2,0 1,1 0,1 1,1 0,2 -1,1 2,0 1,-1 1,0 1,-1 2,0 1,-1 1,-1 3,0 1,-1 1,-1 2,0 1,-1 2,0 1,-1 1,0 1,-1 2,0 1,-1 2,0 1,-1 2,0 1,-1 2,0 1,-1 2,0 1,-1 2,0 1,-1 2,0 1,-1 1,0 1,-1 2,0 1,-1 1,0 1,-1 1,0 -1,-1 0,-1 -1,-1 0,-2 1,-1 1,0 1,-1 2,0 1,1 2,0 1,1 0,2 2,0 1,-1 2,0 1,-1 2,0 1,-1 1,0 1,-1 2,0 1,-1 2,0 1,-1 2,0 1,-1 1,0 1,-1 2,0 1,-1 1,0 0,-1 -1,-1 0,-2 -4,0 -1,-1 0,-2 1,-1 2,0 1,-1 1,0 1,-1 1,0 1,-1 3,0 1,-1 3,0 1,1 0,5 1,1 1,-1 2,0 1,-1 2,0 1,-1 2,0 1,-1 2,0 1,-1 2,0 1,-1 2,0 1,-1 2,0 0,-2 1,-1 -1,-1 0,-3 1,-1 -3,0 -1,-1 0,-1 -1,0 -1,-1 -1,-1 0,-3 -1,-1 0,-5 -1,-1 0,-5 -1,-1 0,-8 1,-1 1,0 1,-1 -2,0 -1,1 -1,0 -1,1 -1,1 -3,0 -1,1 -1,1 -3,0 -1,1 -3,0 0,1 -1,1 -1,0 0,2 -1,1 -1,1 -3,0 -1,1 -1,1 -2,0 -1,1 -5,0 -1,1 -3,0 0,1 -1,1 -1,0 -1,1 -1,0 -1,1 -1,0 -1,1 -1,0 -1,1 -8,0 -1,-1 -7,0 -1,-1 -9,0 -1,-1 -1,-1 0,-4 1,-1 0,-1 1,-1 11,0 1,1 8,0 0,-8 1,-1 0,-1 1,-1 10,0 1,1 7,0 0,-15 1,-1 0,-3 -2,0 -1,1 -1,0 -1,1 -2,0 -1,1 -1,0 -1,1 -1,0 -1,1 -1,0 -1,1 -1,1 -1,0 -1,1 -3,0 -1,1 -1,0 -1,1 -1,1 -1,0 -1,1 -3,0 -1,1 -1,0 -1,1 -1,1 -2,0 -1,1 -2,0 -1,1 -1,1 -2,0 -1,1 -1,1 -1,0 -1,1 -3,0 -1,1 -1,0 -1,1 -1,0 -1,1 -1,0 -1,1 -2,0 -1,1 -1,0 -1,1 -1,1 0,15 -1,1 -1,0 0,2 -1,1 0,1 -1,1 -1,1 0,1 -1,1 4,0 1,1 1,-1 1,0 0,-1 1,-1 11,0 1,1 0,9 -1,1 -11,0 -1,-1 0,-1 -3,0 -1,-1 -7,0 -1,-1 0,-2 -1,0 0,2 -1,1 -1,1 0,1 -1,1 0,18 -1,1 0,4 -2,2Z"/>
<path onmouseover="hoverPath(evt)" onmouseout="recoverPath(evt)" fill="rgb(243,242,235)" d="M  107,139l 0,0 -1,1 2,0 1,1 0,1 1,1 0,2 1,1 1,1 0,3 -1,1 -1,1 3,0 1,1 1,1 1,1 0,1 1,1 0,2 1,1 0,1 1,1 0,2 1,1 0,1 7,0 1,1 1,1 1,0 1,1 1,0 1,1 0,-1 1,-1 0,0 1,-1 2,0 1,-1 2,0 1,-1 6,0 1,1 0,1 1,1 0,2 -1,1 -2,0 -1,1 -2,0 -1,1 -3,0 0,1 1,1 0,0 1,1 1,0 1,1 1,1 1,1 1,1 0,1 1,1 4,0 1,-1 2,0 1,-1 3,0 1,-1 3,0 1,-1 3,0 1,-1 3,0 1,-1 1,0 -1,-1 0,0 -1,-1 -1,0 -1,-1 -1,-1 -1,-1 0,-1 -1,-1 0,-2 -1,-1 -1,-1 0,-2 -1,-1 0,-1 -1,-1 0,-1 -1,-1 0,1 -1,1 -1,0 -1,1 -1,0 -1,1 -2,0 -1,1 -2,0 -1,1 -5,0 -1,-1 -1,-1 0,-4 1,-1 1,-1 2,0 1,-1 2,0 1,-1 2,0 1,-1 6,0 1,-1 2,0 1,-1 1,-1 2,0 1,-1 2,0 1,-1 2,0 1,-1 2,0 1,1 -1,-2 0,0 -1,-1 0,-1 -1,-1 0,-2 -1,-1 0,-1 -1,-1 0,-2 -1,-1 0,-1 -1,0 -1,1 -2,0 -1,1 -1,0 -1,1 -2,0 -1,1 -1,0 -1,1 -1,0 0,3 -1,1 -2,0 -1,1 -3,0 -1,1 -2,0 -1,1 -1,0 -1,1 -2,0 -1,1 -4,0 -1,-1 -1,-1 0,-1 -1,-1 0,-2 -1,-1 0,-1 -1,-1 -1,-1 0,-1 -1,-1 0,-2 -1,-1 0,-1 -1,0 -1,1 0,0 -1,1 -3,0 -1,1 -1,0 -1,1 -2,0 -1,1 -2,0 -1,1 -5,0 -1,-1 -1,-1 0,3 -1,-5 0,-1 -1,-1 0,-1 -1,-1 0,-5 1,-1 1,-1 -2,0 -1,1 -1,0 -1,1 -2,0 -1,1 -3,0 -1,1 -1,1 -3,0 -1,1 -1,0 1,1 0,0 1,-1 1,0 3,-1 4,0 1,-1 3,0 1,1 3,6 1,5 -1,-17 1,1 0,0 1,-1 1,0 1,-1 1,0 1,-1 3,0 1,-1 2,0 1,-1 4,0 1,1 0,-2 1,-1 1,-1 2,0 1,-1 2,0 1,1 0,1 1,1 0,1 1,1 0,1 1,1 0,2 1,1 0,1 1,1 0,2 1,1 1,0 1,-1 2,0 1,-1 3,0 0,-1 -1,-1 0,-1 -1,-1 0,-2 -1,-1 0,-1 -1,-1 0,-1 -1,-1 0,-1 -1,-1 0,-3 1,-1 0,-3 1,-1 1,0 1,-1 -3,0 -1,1 -1,0 -1,1 -1,1 -3,0 -1,1 -3,0 -1,-1 -1,1 -2,0 -1,1 -2,0 -1,1 -2,0 -1,1 -2,0 -1,1 -1,0 -1,1 -3,0 -2,2 -2,0 -1,1 0,1 1,0 1,1 0,2 -1,1 -1,0 1,17 -3,-8 0,1 1,1 0,1 -1,-3 3,8Z"/>
<path onmouseover="hoverPath(evt)" onmouseout="recoverPath(evt)" fill="rgb(177,202,239)" d="M  110,219l 0,3 1,1 1,1 0,1 1,1 0,1 2,0 1,1 0,2 -1,1 4,0 0,-2 -1,-1 0,-3 -1,-1 0,-2 1,-1 5,0 1,1 0,2 -1,1 5,0 1,-1 6,0 1,1 0,2 -1,1 -4,0 0,3 1,1 0,1 5,0 1,1 0,2 -1,1 -4,0 0,2 1,1 0,3 31,0 -10,-1 0,-4 -1,-1 0,-4 -1,-1 0,-5 1,-1 -9,0 -1,-1 0,-7 -1,-1 0,-2 -1,0 -1,1 -4,0 -1,1 -3,0 -1,1 -2,0 0,4 -1,1 -2,0 -1,-1 0,-2 -1,-1 0,-3 -3,0 -1,1 -2,0 0,2 -1,1 -2,0 -1,-1 0,-1 -3,0 -1,-1 0,-2 1,-1 3,0 -1,-1 0,-4 1,-1 2,0 1,1 0,2 1,1 2,0 1,-1 2,0 0,-1 -1,-1 0,-3 -1,-1 -3,0 -1,-1 0,-2 1,-1 2,0 0,-3 -1,-1 0,-2 1,-1 -3,0 -1,-1 -1,1 -2,0 -1,1 -1,0 0,1 -1,1 -2,0 -1,-1 -2,0 -1,1 -2,0 -1,1 -1,0 0,1 1,1 0,3 1,1 1,1 3,0 1,1 0,2 -1,1 -1,0 0,1 1,1 0,1 1,1 0,2 1,1 0,2 1,1 12,-25 5,0 -4,-1 0,0 -1,-1 0,2 -12,25 45,7 5,0 -4,-1 0,0 -1,-1 0,2 -45,-7Z"/>
<path onmouseover="hoverPath(evt)" onmouseout="recoverPath(evt)" fill="rgb(242,241,234)" d="M  179,179l 0,2 1,1 0,73 1,-32 25,0 1,1 0,-2 -1,-1 0,-2 -1,-1 0,-1 -1,-1 0,-4 -1,-1 0,-1 -1,-1 0,-2 -1,-1 0,-5 1,-1 15,0 1,1 0,-1 -1,-1 0,-4 -1,-1 0,-3 -1,-1 0,-3 -1,-1 0,-4 -1,-1 0,-3 -1,-1 0,-1 -3,0 -1,1 -5,0 -1,1 -4,0 -1,1 -1,1 -3,0 -1,-1 0,-1 -1,-1 -8,0 -1,-1 0,-2 1,-1 4,0 1,-1 1,0 1,-1 -1,-1 0,-2 -1,-1 0,-3 -1,-1 0,-3 -1,-1 0,-3 -1,-1 -6,0 2,1 0,0 1,1 1,1 0,2 -1,1 -1,1 -2,0 -1,1 -2,0 -1,1 -3,0 -1,1 -3,0 0,1 -1,1 0,1 1,1 0,1 1,1 1,1 1,-1 3,0 1,1 1,1 1,1 0,1 1,1 1,1 0,2 28,46 0,2 1,1 0,1 1,1 0,2 1,1 0,1 1,1 0,-1 -1,-2 0,-3 1,-1 0,-2 -3,0 -1,-1 -28,-46 39,24 0,8 -1,1 2,0 1,-1 5,0 -1,-1 0,0 -1,-1 -1,-1 -1,-1 0,-1 -1,-1 -1,-1 -1,-1 -39,-24Z"/>
<path onmouseover="hoverPath(evt)" onmouseout="recoverPath(evt)" fill="rgb(171,198,238)" d="M  189,243l -1,0 1,1 0,5 1,1 15,0 1,1 7,0 0,-1 -1,-1 0,-2 -1,-1 0,-3Z"/>
<path onmouseover="hoverPath(evt)" onmouseout="recoverPath(evt)" fill="rgb(178,201,237)" d="M  0,148l 0,9 3,0 1,-1 1,0 1,-1 2,0 1,-1 1,0 1,-1 1,0 1,-1 1,0 1,-1 1,0 1,-1 1,0 1,-1 2,0 1,-1 3,0 1,1 1,1 1,0 1,-1 1,0 1,-1 -1,-1 0,-2 1,-1 2,0 1,-1 1,0 1,-1 1,0 1,-1 2,0 1,-1 1,0 1,-1 2,0 1,-1 4,0 1,1 1,-1 1,0 1,-1 1,0 1,-1 2,0 1,-1 1,0 1,-1 2,0 1,-1 1,0 1,-1 2,0 1,-1 1,0 1,-1 1,0 1,-1 2,0 1,-1 1,0 1,-1 2,0 1,-1 2,0 1,-1 2,0 1,-1 1,0 1,-1 2,0 1,-1 2,0 1,-1 1,0 1,-1 2,0 1,-1 2,0 1,-1 1,0 0,-2 1,-1 1,-1 2,0 1,-1 1,-1 3,0 1,-1 1,0 1,-1 2,0 1,-1 2,0 1,-1 2,0 1,-1 2,0 1,-1 2,0 1,1 1,0 1,-1 3,0 1,-1 1,-1 1,0 1,-1 5,0 1,1 2,0 1,-1 1,0 1,-1 3,0 1,-1 1,-1 4,0 1,-1 1,0 1,-1 1,0 1,-1 2,0 1,-1 2,0 1,-1 2,0 0,-5 1,-1 2,0 1,-1 2,0 1,-1 3,0 1,-1 1,-1 2,0 1,-1 2,0 1,-1 2,0 1,-1 1,0 1,-1 2,0 1,-1 2,0 1,-1 2,0 1,-1 3,0 1,-1 1,-1 2,0 1,-1 2,0 1,-1 1,0 1,-1 1,-1 -1,-1 0,-1 -2,0 -1,1 -2,0 -1,1 -2,0 -1,1 -2,0 -1,1 -2,0 -1,1 -2,0 -1,1 -2,0 -1,1 -2,0 -1,-1 -1,-1 0,-5 -1,0 -1,1 -3,0 -1,1 -1,0 -1,1 -1,0 -1,1 2,0 1,1 0,2 1,1 0,3 -1,1 -1,0 -1,1 -2,0 -1,1 -1,0 -1,1 -2,0 -1,1 -2,0 -1,1 -2,0 -1,1 -1,0 -1,1 -2,0 -1,1 -2,0 -1,1 -4,0 -1,-1 0,-2 -1,0 -1,1 -1,0 -1,1 1,1 0,2 -1,1 -1,0 -1,1 -1,0 -1,1 -2,0 -1,1 -1,0 -1,1 -2,0 -1,1 -2,0 -1,1 -2,0 -1,1 -2,0 -1,1 -2,0 -1,1 -2,0 -1,1 -2,0 -1,1 -1,0 -1,1 -2,0 -1,1 -2,0 -1,1 -1,1 -3,0 -1,1 -1,1 -2,0 -1,1 -1,0 -1,1 -4,0 -1,-1 -1,0 -1,-1 -2,0 -1,1 -1,0 -1,1 -2,0 -1,1 -1,0 0,2 -1,1 0,1 -2,2 -1,1 -1,0 -1,1 -1,0 -1,1 -1,0 -1,1 -1,0 -1,1 -1,0 -1,1 -1,0 -1,1 -2,0 -1,1 -1,0 -1,1 -2,0 -1,1 -1,0 -1,1 -2,0 -1,1 -2,0 -1,1 -2,0 -1,1 -2,0 -1,1 -2,0 -1,1 -2,0 -1,1 -3,0 -1,1 -7,0 -1,1 -2,0 -1,1 -1,1 -1,1 -1,1 -1,0 -1,1 -1,0 -1,1 -2,0 -1,1 -1,0 -1,1 -1,0 -1,1 -1,1 -3,0 -1,-1 0,-2 1,-1 1,0 1,-1 0,-1 -2,0 -1,-1 -1,1 -1,0 -2,2 -2,0 -1,1 -3,0Z"/>
<path onmouseover="hoverPath(evt)" onmouseout="recoverPath(evt)" fill="rgb(175,199,236)" d="M  34,252l 0,0 1,1 0,2 2,0 0,-2 -1,-1 0,-2 -1,-1 0,-1 -1,-1 0,-2 -1,-1 0,-1 -1,-1 -1,-1 0,-3 -2,-2 0,-3 -1,-1 -1,-1 0,-1 -1,-1 0,-2 -1,-1 0,-2 -1,-1 0,-2 -1,-1 -1,-1 0,-3 -1,-1 0,-1 -1,-1 0,-2 -1,-1 0,-1 -1,-1 0,-2 -1,-1 0,-1 -1,-1 0,-2 -1,-1 0,-2 -1,-1 0,-1 -1,-1 0,-2 -1,-1 0,-1 -1,-1 0,-1 -1,-1 -1,-1 0,-3 -1,-1 0,-1 -1,-1 -1,-1 0,-3 -1,-1 0,-3 -1,-1 -1,-1 0,-1 -3,0 0,3 2,0 1,1 1,1 0,4 1,1 0,2 1,1 0,1 1,1 0,1 1,1 0,2 1,1 0,1 1,1 0,2 1,1 0,2 1,1 0,1 1,1 0,2 1,1 0,2 1,1 0,1 1,1 0,1 1,1 0,2 1,1 0,1 1,1 0,1 1,1 0,4 -1,1 -1,1 -1,1 -2,0 -1,1 -2,0 -1,1 -3,0 -1,1 -2,0 -1,1 -4,0 0,4 2,0 1,-1 4,0 1,-1 2,0 1,1 1,1 1,1 0,2 1,-1 0,-7 1,-1 1,0 1,-1 6,0 1,1 0,1 1,1 0,2 1,1 0,1 1,1 0,2 1,1 0,1 1,1 0,2 1,1 0,1 1,1 0,2 1,1 0,1 1,1 0,2 1,1Z"/>
<path onmouseover="hoverPath(evt)" onmouseout="recoverPath(evt)" fill="rgb(179,203,238)" d="M  225,208l 0,0 1,1 1,1 0,2 -1,1 -5,0 -1,1 -5,0 -1,-1 0,-2 1,-1 1,0 0,-8 -13,0 0,3 1,1 0,2 1,1 0,1 1,1 0,4 1,1 0,1 1,1 0,2 1,1 0,3 3,0 1,1 0,4 -1,1 0,2 1,1 0,2 7,0 1,-1 17,0 1,1 0,2 1,1 1,1 1,1 1,1 0,1 1,1 0,2 1,1 0,5 -1,1 -3,0 -1,-1 -2,0 -1,1 -1,0 0,3 19,0 0,-123 -2,0 -1,1 -1,0 -1,1 -2,0 -1,1 -2,0 -1,1 -6,0 -1,1 -3,0 -1,1 -3,0 -1,1 -1,0 0,3 -1,1 -4,0 -1,1 -1,1 -1,0 0,3 -1,1 -3,0 -1,-1 0,-1 -1,-1 -3,0 0,3 1,1 0,1 1,1 0,2 1,1 0,1 3,0 1,-1 3,0 1,1 1,-1 4,0 1,-1 0,-11 1,-1 2,0 1,-1 2,0 1,-1 2,0 1,1 0,3 1,1 0,1 1,1 0,7 1,1 0,1 1,1 0,2 1,1 0,3 1,1 1,0 1,1 0,2 -1,1 -4,0 -1,1 -5,0 -1,-1 0,-2 1,-1 3,0 0,-4 -1,-1 0,-1 -1,-1 -5,0 -1,1 -6,0 -1,1 -6,0 0,2 1,1 0,5 -1,1 0,2 -1,1 -3,0 -1,-1 -2,0 0,3 3,0 1,1 0,1 1,1 0,3 1,1 0,4 1,1 0,3 1,1 0,3 1,1 0,4 1,1 0,3 1,1 1,1 1,1 0,1 1,1 1,1Z"/>
<path onmouseover="hoverPath(evt)" onmouseout="recoverPath(evt)" fill="rgb(254,254,254)" d="M  45,69l 0,4 1,-4 0,0 -1,-1 0,-7 -1,-1 0,-29 -1,-1 0,-25 -1,-1 0,27 -42,0 0,1 42,0 1,1 0,5 2,31Z"/>
<path onmouseover="hoverPath(evt)" onmouseout="recoverPath(evt)" fill="rgb(244,243,237)" d="M  98,245l 0,0 -1,1 0,2 -1,1 0,1 -1,1 0,2 -1,1 0,1 79,0 0,-8 -1,-1 -6,0 -1,-1 -32,0 -1,-1 0,-3 -1,-1 0,-4 1,-1 -1,0 -1,-1 0,-1 3,2 3,0 -6,5 1,1 0,2 -1,1 -31,0 -1,1Z"/>
<path onmouseover="hoverPath(evt)" onmouseout="recoverPath(evt)" fill="rgb(171,198,238)" d="M  116,68l -2,0 -1,-1 -4,0 -1,1 -1,1 7,0 1,1 3,0 1,1 0,1 9,0 0,-7 -9,0 0,1 -1,1 -1,0 -1,1Z"/>
<path onmouseover="hoverPath(evt)" onmouseout="recoverPath(evt)" fill="rgb(178,202,238)" d="M  184,117l 0,1 1,1 0,1 1,1 0,1 1,1 0,2 -1,1 1,1 0,3 1,0 1,1 0,2 -1,1 -1,0 -1,1 -2,0 0,1 1,1 0,1 1,1 0,1 1,1 0,1 1,1 0,2 1,1 0,1 2,0 1,1 0,1 1,1 2,0 1,-1 2,0 1,-1 2,0 1,-1 0,-1 1,-1 3,0 0,-2 1,-1 2,0 1,1 0,1 5,0 1,1 1,1 0,1 1,0 0,-5 1,-1 0,-2 -1,-1 0,-1 -1,-1 0,-1 -1,-1 -1,-1 0,-1 -1,-1 0,-1 -1,-1 0,-2 -1,-1 0,-1 -1,-1 0,-1 -1,-1 0,-3 -1,-1 0,-1 -1,-1 0,-1 -1,-1 0,-1 -1,-1 0,-1 -1,-1 0,-1 -1,-1 -4,0 -1,1 0,0 -1,1 -2,0 -1,1 -1,0 0,3 -1,1 -2,0 -1,-1 -1,0 -1,1 -2,0 -1,1 -1,1Z"/>
<path onmouseover="hoverPath(evt)" onmouseout="recoverPath(evt)" fill="rgb(244,243,237)" d="M  228,157l 1,0 1,-1 -1,0 1,-1 1,1 6,0 1,1 1,1 0,1 1,1 0,6 4,0 -2,-1 0,0 -1,-1 0,-3 -13,-4 2,-3 0,-9 1,-1 -1,0 0,10 -2,3 10,-3 0,-6 -1,-1 0,-1 -1,-1 0,-3 -1,1 0,0 3,11 -10,3Z"/>
<path onmouseover="hoverPath(evt)" onmouseout="recoverPath(evt)" fill="rgb(241,241,236)" d="M  17,190l 0,2 1,1 1,1 0,3 1,1 0,1 1,1 0,2 1,1 0,1 2,0 1,-1 7,0 1,-1 3,0 1,-1 0,-2 1,-1 1,0 0,-1 1,-1 2,0 1,-1 3,0 1,-1 3,0 1,-1 6,0 0,-3 -1,0 -1,-1 -1,-1 -1,-1 -1,-1 0,-1 -1,-1 0,-3 -1,-1 0,-1 -1,-1 0,-2 -1,-1 -1,0 -1,-1 -1,0 -1,-1 0,-1 -1,-1 -1,-1 0,-1 -1,-1 -1,0 -1,1 0,0 -1,1 -11,0 -1,-1 -1,0 -1,-1 -4,0 -1,-1 -2,0 -1,-1 -3,0 -1,1 -1,0 -1,1 -1,1 -1,0 1,1 0,3 1,1 0,1 1,1 0,2 1,1 0,1 1,1 0,1 1,1 0,2 1,1 0,1 1,1 0,1 1,1Z"/>
<path onmouseover="hoverPath(evt)" onmouseout="recoverPath(evt)" fill="rgb(244,242,235)" d="M  25,206l -2,0 0,1 1,1 0,1 1,1 0,2 1,1 0,1 1,1 0,2 1,1 0,1 1,1 0,2 1,1 0,1 1,1 0,2 1,1 0,1 1,1 0,2 1,1 0,1 1,1 0,1 1,1 1,0 1,-1 0,-1 -1,-1 0,-4 1,-1 1,-1 4,0 1,-1 5,0 1,1 0,-1 -1,-1 0,-5 1,-1 2,0 1,-1 5,0 1,1 0,-1 -1,-1 0,-2 -1,-1 0,-2 1,-1 1,-1 -4,0 -1,1 -3,0 -1,1 -5,0 -1,-1 -1,-1 0,-3 1,-1 -2,0 -1,-1 0,-1 -1,-1 0,-2 -1,-1 0,1 -1,1 -1,1 -3,0 -1,1 -7,0 -1,1Z"/>
<path onmouseover="hoverPath(evt)" onmouseout="recoverPath(evt)" fill="rgb(253,253,252)" d="M  27,222l 0,-1 -1,-1 0,-1 -1,-1 0,-2 -1,-1 0,-1 -1,-1 0,-2 -1,-1 0,-1 -1,-1 0,-2 -1,-1 0,-1 -1,-1 0,-2 -1,-1 0,-1 -1,-1 0,-3 -1,-1 -1,-1 0,-2 -1,-1 0,-1 -1,-1 0,-1 -1,-1 0,-2 -1,-1 0,-1 -1,-1 0,-1 -1,-1 0,-2 -1,-1 0,-1 -1,-1 0,-3 -1,-1 0,-1 -1,-1 0,-3 -1,0 -1,1 -3,0 0,2 4,0 1,1 0,1 1,1 21,51 -18,-42 1,2 1,2 0,2 1,1 1,2 1,2 1,3 1,1 0,1 1,3 1,2 0,1 1,2 1,2 0,1 1,2 1,2 0,1 1,2 1,2 0,2 1,1 1,2 0,1 1,1 0,2 1,1 0,2 1,1 0,1 1,1 1,1 0,3 1,1 1,1 0,3 1,1 1,1 0,1 1,1 0,2 1,1 0,1 1,1 0,2 1,1 0,3 2,0 0,-1 -1,-1 0,0 -1,-2 0,-1 -1,-2 0,-2 -1,-1 0,-1 -1,-1 0,-2 -1,-1 0,-1 -1,-1 1,3 0,0 2,5 -4,-10 -1,-1 0,-1 -1,-3 -1,-1 0,-1 -1,-1 0,-2 -1,-1Z"/>
<path onmouseover="hoverPath(evt)" onmouseout="recoverPath(evt)" fill="rgb(173,199,238)" d="M  68,70l 0,6 1,1 0,11 1,1 7,0 1,-1 6,0 0,-19 1,-1 0,-10 -1,-1 -1,0 -1,-1 0,-2 1,-1 1,0 1,-1 2,0 1,-1 -1,0 -3,1 -1,-1 -1,-1 0,-2 1,-1 2,0 1,-1 0,-8 -1,-1 0,-2 -21,0 0,15 1,1 0,10 -1,1 2,0 1,1 0,4 1,1Z"/>
<path onmouseover="hoverPath(evt)" onmouseout="recoverPath(evt)" fill="rgb(251,250,248)" d="M  90,126l 2,0 1,-1 1,-1 3,0 1,-1 2,0 1,-1 1,0 1,-1 1,0 1,-1 -1,0 -2,1 -1,0 -1,1 -2,0 -1,1 -1,0 -3,1 -1,1 -1,0 -1,1 -5,2 -3,0 -1,1 -2,0 -1,1 -1,0 -1,1 -2,0 -1,1 -1,0 -1,1 -1,0 -1,1 -2,0 -1,1 -1,0 -1,1 -2,0 -1,1 -1,0 -1,1 -2,0 -1,1 -1,0 -1,1 -1,0 -1,1 -1,0 -1,1 1,0 2,-1 2,-1 1,0 1,-1 1,0 2,-1 1,0 1,-1 1,0 2,-1 1,0 1,-1 1,0 2,-1 2,0 1,1 0,2 1,1 0,2 1,1 0,1 1,1 0,3 1,1 0,2 1,1 0,1 1,1 0,2 1,1 0,-2 -1,-2 0,-1 -1,-1 0,-2 -1,-1 0,-2 -1,-2 0,-1 -1,-1 0,-3 1,-1 1,-1 1,0 1,-1 1,-1 1,0 1,-1 2,0 -1,-1 0,-2 2,-1 5,-2Z"/>
<path onmouseover="hoverPath(evt)" onmouseout="recoverPath(evt)" fill="rgb(177,201,238)" d="M  93,163l 0,1 1,1 1,1 0,1 1,1 1,1 1,1 1,0 1,1 10,0 1,-1 11,0 1,1 3,0 1,1 1,1 1,1 1,0 1,1 1,1 1,1 1,0 1,1 1,0 1,1 1,1 1,1 1,1 1,1 0,1 1,1 1,1 1,1 1,1 1,1 0,1 1,1 1,1 1,1 1,1 1,1 1,1 1,1 1,1 1,1 1,1 0,1 1,1 1,1 1,1 0,1 1,1 1,1 0,1 1,1 1,1 0,1 1,1 0,1 1,1 1,1 2,0 0,-2 -1,-1 0,-1 -1,-1 -1,-1 0,-1 -1,-1 -1,-1 0,-2 -1,-1 0,-1 -1,-1 0,-1 -1,-1 -1,-1 -1,-1 -1,-1 -1,-1 -1,-1 0,-1 -1,-1 -1,-1 -1,-1 -1,0 -1,-1 0,-1 -1,-1 0,-2 1,-1 -4,0 -1,-1 -1,-1 0,-1 -1,-1 -2,-2 -1,0 -1,-1 -1,-1 -1,-1 0,-3 1,-1 3,0 1,-1 2,0 1,-1 2,0 -1,-1 0,-1 -4,0 -1,1 -2,0 -1,1 -2,0 -1,1 0,1 -1,1 -2,0 -1,-1 -1,0 -1,-1 -1,0 -1,-1 -1,-1 -7,0 -1,-1 0,-1 -1,-1 0,-2 -1,-1 0,-1 -1,-1 0,-2 -1,-1 0,-1 -1,-1 -1,-1 -5,0 -1,-1 0,-2 1,-1 2,0 1,-1 0,-1 -1,-1 0,0 -1,-1 0,-2 -1,-1 0,-1 -2,0 -1,-1 0,-2 1,-1 -1,-1 0,-1 -1,-1 0,-1 -1,-1 0,-3 -1,-1 -1,0 -1,1 -6,0 -1,1 -1,0 -1,1 -2,0 -1,-1 -1,-1 -1,0 1,1 0,2 -1,1 -2,0 -1,1 -1,0 -1,1 -1,1 -1,0 -1,1 0,1 1,1 0,2 1,1 0,2 1,1 0,2 1,1 0,2 1,1 4,0 1,1 1,1 0,1 1,1 1,1 0,1 1,1 0,1 1,1 0,1 1,1Z"/>
<path onmouseover="hoverPath(evt)" onmouseout="recoverPath(evt)" fill="rgb(241,240,234)" d="M  104,173l -1,0 0,2 -1,1 -1,0 -1,1 -1,1 -1,1 -1,0 0,1 1,1 0,1 1,1 0,1 1,1 0,2 -1,1 -4,0 -1,-1 0,-1 -1,-1 0,-3 -1,-1 0,3 1,2 0,4 -1,1 2,0 1,1 0,1 1,1 0,2 -1,1 -1,1 -1,1 4,0 1,1 0,1 1,1 0,1 1,1 0,1 1,1 0,2 1,1 0,1 1,1 0,4 -1,1 3,0 1,1 0,2 1,1 1,1 0,3 1,1 0,3 -1,1 -5,0 0,2 1,1 0,8 12,0 -1,-1 0,-2 -1,-1 0,-3 -1,-1 0,-2 1,-1 -2,0 -1,-1 0,-1 -1,-1 0,-1 -1,-1 -5,-51 4,47 -1,-1 0,-2 -1,-1 0,-2 -1,-1 0,-1 -1,-1 0,-3 1,-1 -2,0 -1,-1 -1,-1 7,15 -4,-47 -4,30 0,-2 -1,-1 0,-3 1,-1 1,0 1,-1 2,0 1,-1 4,0 1,1 0,-1 1,-1 1,0 1,-1 2,0 1,-1 2,0 1,1 1,0 0,-2 1,-1 2,0 1,1 0,1 1,1 3,0 1,1 0,2 -1,1 -6,0 1,1 0,5 -1,1 1,0 1,1 1,1 0,3 1,1 0,3 -1,1 -2,0 -1,1 -4,0 -1,-1 -1,-1 0,-2 1,4 0,1 -1,1 -3,0 4,1 0,-1 1,-1 2,0 3,-1 3,0 1,1 0,3 1,1 0,-2 1,-1 2,0 1,-1 3,0 1,-1 4,0 1,-1 3,0 1,1 0,2 1,1 0,7 7,0 0,-2 1,-1 2,0 1,1 0,1 1,1 3,0 1,1 0,2 -1,1 -6,0 0,3 1,1 0,4 1,1 0,4 9,0 1,1 0,2 6,0 1,1 1,1 0,9 3,0 0,-72 -1,-1 0,-4 -1,-1 -1,-1 0,-1 -1,-1 -1,-1 -1,0 1,1 1,1 0,2 -1,1 -1,0 -1,1 -3,0 -1,1 -3,0 -1,1 -3,0 -1,1 -3,0 -1,1 -2,0 0,2 -1,1 -1,0 1,1 0,1 1,0 1,1 1,1 1,1 1,1 0,1 1,1 1,1 1,1 1,1 1,1 1,1 0,1 1,1 0,1 1,1 0,2 1,1 1,1 0,1 1,1 1,1 0,1 1,1 0,4 -1,1 -4,0 -1,-1 -1,-1 -1,-1 0,-1 -1,-1 0,-1 -1,-1 -1,-1 0,-1 -1,-1 -1,-1 0,-1 -1,-1 -1,-1 -1,-1 0,-1 -1,-1 -1,-1 -1,-1 -1,-1 -1,-1 -1,-1 -1,-1 -1,-1 -1,-1 -1,-1 0,-1 -1,-1 -1,-1 -1,-1 -1,-1 -1,-1 0,-1 -1,-1 -1,-1 -1,-1 -1,-1 -1,0 -1,-1 -1,0 -1,-1 -1,-1 -1,-1 -1,0 -1,-1 -1,-1 -1,-1 -3,0 -1,-1 -9,0 -1,1 -6,0 -5,30 4,-30 44,38 0,-2 1,-1 2,0 1,1 0,2 -1,1 -2,0 -1,-1 -44,-38 44,34 -2,0 -1,-1 0,-2 1,-1 2,0 1,1 0,2 -1,1 -44,-34Z"/>
<path onmouseover="hoverPath(evt)" onmouseout="recoverPath(evt)" fill="rgb(175,200,238)" d="M  115,22l 0,0 -1,1 0,3 -1,1 0,4 -1,1 0,6 -1,1 0,1 -1,1 -1,1 1,0 1,1 0,1 1,1 0,11 1,-1 1,0 0,-15 1,-1 1,-1 1,-1 -3,0 -1,-1 0,-2 1,-1 0,-6 1,-5 -4,35 -1,1 0,1 -1,1 -1,1 -1,1 -1,1 -1,1 -1,1 -1,1 1,0 1,-1 1,-1 1,0 1,-1 1,0 0,-1 1,-1 1,-1 0,-1 1,-1 -1,-1 4,-35 0,1 1,-1 0,-1 1,-1 19,0 0,-2 1,-1 1,-1 3,0 0,-2 -5,0 -1,-1 -11,0 -1,-1 0,-4 1,-1 0,-4 1,-1 0,-2 -42,0 0,1 1,1 0,4 2,0 1,-1 0,0 1,-1 1,0 1,-1 4,0 1,1 2,0 1,-1 6,0 1,-1 14,0 1,1 1,1 0,3 -1,1 0,2 -1,1 0,2 -1,1 0,1 -1,1 -2,0 -1,-1 0,-1 -3,0 -1,-1 -2,0 -1,1 0,2 -1,1 0,1 -1,1 3,0 1,1 2,0 1,-1 2,0 1,1 0,2 -14,45 -1,1 -1,1 0,1 -1,1 0,1 -1,1 0,6 -1,1 0,19 -1,1 -2,0 -1,-1 -2,0 0,3 1,1 0,4 1,0 1,-1 2,0 1,-1 0,-5 5,-33 14,-45 -18,75 1,-1 0,-4 1,-1 0,-18 1,-1 0,-1 1,-1 1,-1 0,-1 -5,29 18,-75Z"/>
<path onmouseover="hoverPath(evt)" onmouseout="recoverPath(evt)" fill="rgb(173,199,238)" d="M  136,142l 0,1 1,1 0,1 1,1 2,0 1,-1 2,0 1,-1 1,0 1,-1 2,0 1,-1 3,0 0,-2 -1,-1 0,-1 -1,-1 0,-3 -1,0 -1,-1 0,-1 -1,-1 0,-1 -1,-1 -2,0 -1,1 -2,0 -1,1 -3,0 -1,-1 -1,-1 0,-2 -1,-1 0,-1 -1,-1 0,-2 -1,-1 0,-1 -1,-1 0,-1 -1,-1 0,-1 -1,1 -2,0 -1,1 0,2 1,1 0,1 1,1 0,1 1,1 0,3 -1,1 -2,0 -1,-1 0,-1 -1,-1 0,-1 -1,-1 0,-1 -1,-1 0,-2 -2,0 -1,1 -2,0 -1,1 -3,0 -1,1 -1,0 -1,1 -1,0 -1,1 -1,0 -1,1 0,3 1,1 0,1 1,1 0,1 1,1 0,1 1,1 3,0 1,-1 2,0 1,-1 2,0 1,-1 1,0 1,-1 3,0 2,-2 3,0 1,1 0,1 1,1 0,2 1,1 0,1 1,1 1,1 0,1 1,1Z"/>
<path onmouseover="hoverPath(evt)" onmouseout="recoverPath(evt)" fill="rgb(241,241,235)" d="M  163,101l -1,0 -1,1 -4,0 -1,1 -1,1 -3,0 -1,1 -1,0 -1,1 -2,0 1,1 3,0 2,-2 -1,0 4,-1 1,0 1,1 1,1 2,0 1,1 2,0 1,1 1,1 0,1 1,1 0,2 1,1 0,1 1,1 0,3 2,0 1,-1 1,0 1,-1 2,0 1,-1 3,0 1,-1 1,0 1,-1 1,0 1,-1 2,0 1,-1 3,0 1,1 0,-3 1,-1 1,0 1,-1 2,0 1,-1 1,-1 6,0 1,1 1,1 0,1 1,1 0,1 1,1 0,1 1,1 0,1 1,1 0,1 1,1 0,3 1,1 0,1 1,1 0,1 1,1 0,2 1,1 0,1 1,1 0,1 1,1 1,1 0,1 1,1 0,1 1,1 0,4 1,-1 4,0 0,-3 1,-1 1,0 1,-1 3,0 1,-1 3,0 1,-1 6,0 1,-1 2,0 1,-1 2,0 1,-1 1,0 1,-1 3,0 0,-24 -1,0 -1,-1 -1,-1 0,-1 -1,-1 0,-1 -1,-1 0,-1 -1,-1 -1,-1 -1,-1 -1,-1 0,-1 -1,-1 0,-1 -1,-1 0,-1 -1,-1 0,-1 -1,-1 0,-1 -1,-1 -1,-1 0,-2 -2,0 -1,1 -1,0 -1,1 -2,0 -1,-1 -1,0 -1,-1 0,-4 1,-1 1,0 1,-1 1,0 1,-1 2,0 1,1 0,-3 1,-1 1,0 1,-1 2,0 1,1 1,1 1,1 0,1 1,1 0,2 1,1 0,1 1,1 0,1 1,1 0,1 1,1 0,1 1,1 1,1 0,1 1,1 0,1 1,0 0,-30 -2,0 -1,1 -2,0 -1,1 -2,0 -1,1 -1,0 -1,1 -2,0 -1,1 -1,0 0,1 1,0 1,1 0,2 2,1 0,0 -81,30 82,-30 -1,-1 0,-2 1,-1 2,0 1,1 0,2 -1,1 -2,0 -82,30 77,-30 -2,0 -1,1 -2,0 -1,-1 0,-1 -1,-1 -1,0 -1,1 0,0 -1,1 -3,0 -1,1 -4,0 -1,-1 0,2 -1,1 -1,1 -1,1 -1,0 -1,1 -2,0 -1,1 -2,0 -1,1 -1,1 -3,0 -1,1 -2,0 -1,1 -2,0 -1,1 -2,0 -1,1 -1,0 -1,1 -2,0 -1,1 -2,0 -1,1 -2,0 -1,1 -1,1 -3,0 -1,1 -2,0 -1,1 -2,0 0,5 -1,1 -2,0 -1,1 -2,0 -1,1 -2,0 -1,1 -1,0 76,-29 -77,30 58,-31 0,-2 -1,0 -1,-1 0,1 1,1 0,1 1,0 -58,31Z"/>
<path onmouseover="hoverPath(evt)" onmouseout="recoverPath(evt)" fill="rgb(184,206,238)" d="M  172,134l 0,0 1,1 0,2 1,1 0,1 1,1 0,2 1,1 0,1 1,1 0,1 1,1 0,2 -1,1 -2,0 -1,-1 -1,1 -2,0 -1,1 -2,0 -1,1 -2,0 -1,1 -1,1 -2,0 -1,1 -6,0 -1,1 -2,0 -1,1 -2,0 -1,1 -2,0 -1,1 0,2 1,1 3,0 1,-1 2,0 1,-1 2,0 1,-1 1,0 1,-1 1,0 0,-1 1,-1 2,0 1,1 1,1 0,1 1,1 0,1 1,1 0,2 1,1 0,-1 1,-1 3,0 1,-1 3,0 1,-1 2,0 1,-1 2,0 1,-1 -1,-1 0,0 -1,-1 -1,0 -1,-1 0,-2 1,-1 8,0 1,1 1,1 0,3 1,1 0,3 1,1 0,3 1,1 0,2 1,1 0,2 -1,1 -1,1 -1,0 -1,1 4,0 1,1 1,1 0,1 1,0 2,-2 4,0 1,-1 5,0 1,-1 0,-4 1,-1 4,0 1,1 1,0 0,-2 1,-1 0,-3 -1,-1 0,-4 1,-1 -3,0 -1,-1 0,-1 -1,-1 0,-2 -1,-1 0,-1 -1,-1 0,-4 -1,-1 0,1 -1,1 -3,0 0,1 -1,1 -1,1 -2,0 -1,1 -2,0 -1,1 -4,0 -1,-1 -1,-1 0,-1 -2,0 -1,-1 0,-1 -1,-1 0,-2 -1,-1 0,-1 -1,-1 0,-1 -1,-1 0,-1 -1,-1 0,-3 1,-1 2,0 1,-1 1,0 -2,-1 0,-3 -1,-1 0,-2 1,-1 -1,-1 0,-1 -1,-1 0,-1 -1,-1 0,-2 -1,1 -3,0 -1,1 -2,0 -1,1 -1,0 -1,1 -4,0 -1,-1 0,-3 -1,-1 0,-1 -1,-1 0,-2 -1,-1 0,-1 -1,-1 -2,0 -1,-1 -2,0 -1,-1 -1,-1 -1,1 -1,0 -1,1 -1,1 -5,0 -1,-1 -1,-1 -1,1 -1,0 0,3 -1,1 0,1 1,1 0,1 1,1 0,1 1,1 0,1 1,1 0,2 1,1 0,1 1,1 0,3 1,1 0,1 1,1 0,1 1,0 1,1 0,3 1,1 0,1 1,1 0,2 1,0 0,-3 1,-1 1,0 1,-1 1,0 1,-1 2,0 1,-1 1,0 1,-1 2,0 1,-1 3,0 1,1 0,1 46,24 4,0 -2,-1 -1,0 -1,1 -46,-24Z"/>
<path onmouseover="hoverPath(evt)" onmouseout="recoverPath(evt)" fill="rgb(244,242,234)" d="M  0,95l 0,49 2,0 1,-1 2,0 1,-1 1,-1 1,0 1,-1 2,0 1,1 2,0 1,1 0,3 -1,1 -1,1 -1,0 4,-2 1,-1 1,0 1,-1 2,0 1,-1 1,0 1,-1 1,0 1,-1 1,-1 1,-1 1,-1 2,0 1,-1 7,0 1,-1 3,0 1,-1 2,0 1,-1 2,0 1,-1 2,0 1,-1 2,0 1,-1 2,0 1,-1 2,0 1,-1 1,0 1,-1 2,0 1,-1 1,0 1,-1 2,0 1,-1 1,0 1,-1 1,0 1,-1 1,0 1,-1 1,0 1,-1 1,0 1,-1 1,0 1,-1 1,-1 0,-1 1,-1 0,-2 1,-1 1,0 1,-1 2,0 1,-1 1,0 1,-1 4,0 1,1 1,-1 0,0 -1,-1 0,-1 -2,0 -1,1 -2,0 -1,1 -2,0 -1,1 1,0 -91,-15 1,-1 -1,0 2,1 -1,-1 -1,1 4,5 -4,-5 34,38 -4,0 -1,-1 -1,0 -1,1 -3,0 -1,1 -2,0 -1,1 -2,0 -1,1 -6,0 -1,-1 0,-3 -1,-1 0,-4 -1,-1 0,-5 -1,-1 0,-5 -1,-1 0,-5 -1,-1 0,-5 29,30 -34,-38 35,37 1,0 1,-1 0,-2 1,0 -3,3 -35,-37 82,17 -1,1 -1,0 -1,1 -2,0 -1,1 -1,0 -1,1 -1,0 -1,1 -1,0 0,2 -1,1 -2,0 -1,1 -1,0 -1,1 -2,0 -1,1 -1,0 -1,1 -4,0 -1,-1 -1,1 -3,0 -1,-1 -1,-1 0,5 -1,1 -3,0 -1,-1 -1,0 -1,1 -2,0 42,-16 -82,-17Z"/>
<path onmouseover="hoverPath(evt)" onmouseout="recoverPath(evt)" fill="rgb(242,241,233)" d="M  22,160l 2,2 0,2 2,0 1,1 1,-1 2,0 1,-1 3,0 1,-1 2,0 1,-1 2,0 1,-1 3,0 1,1 1,1 0,1 1,1 0,1 1,1 0,1 1,1 0,1 1,1 0,1 1,1 1,1 0,1 1,-1 1,0 1,-1 2,0 1,-1 2,0 1,-1 2,0 1,-1 3,0 1,1 1,1 0,1 1,1 0,1 1,1 0,2 -1,1 1,0 1,1 1,1 0,1 1,1 0,1 1,1 0,3 2,0 1,-1 2,0 1,-1 2,0 1,-1 2,0 1,-1 2,0 1,1 0,-4 1,-1 2,0 1,1 1,1 0,3 1,1 0,1 2,0 -1,-1 0,-1 -1,-1 0,1 -1,-4 0,-2 1,-1 1,0 1,-1 1,-1 1,-1 1,0 0,-1 -2,0 -1,-1 -1,0 -1,-1 -1,-1 -1,-1 -1,-1 0,-1 -2,-2 0,-1 -1,-1 0,-1 -1,-1 0,-1 -1,-1 0,-1 -1,-1 -1,-1 0,-1 -1,-1 -3,0 0,3 -1,1 -2,0 -1,-1 0,-1 -1,-1 0,-2 -1,-1 0,-1 -1,-1 0,-2 -1,-1 0,-3 -1,-1 0,-1 -1,-1 0,-2 -1,-1 0,-2 -1,0 -1,1 -1,0 -1,1 -2,0 -1,1 -1,0 -1,1 -2,0 -1,1 -1,0 -1,1 -2,0 -1,1 -1,0 -1,1 -3,0 -1,-1 0,-2 1,-1 -2,0 -1,1 -2,0 -1,1 -1,0 -1,1 -2,0 -1,1 -1,0 -1,1 -1,0 -1,1 -2,0 1,1 1,0 1,-1 2,0 1,1 0,2 -1,1 -1,0 -1,1 -2,0 -1,-1 -1,1 -1,0 -1,1 -3,0 -1,-1 -1,-1 -1,0 -1,1 -2,0 -1,1 -1,0 -1,1 -1,0 -1,1 -1,0 -1,1 -1,0 -1,1 -1,0 -1,1 -2,0 -1,1 -1,0 -1,1 -4,0 0,5 2,0 1,-1 3,0 1,1 0,3 1,0 1,-1 0,0 1,-1 1,0 1,-1 3,0 0,-1 1,-1 1,-1 1,-1 4,0 -7,1 -1,1 -1,1 -2,0 -1,-1 0,-2 1,-1 1,-1 2,0 1,1 0,2 7,-1 31,-15 1,-1 2,0 1,-1 5,0 0,-1 1,-1 1,-1 5,0 1,1 0,1 1,1 0,2 1,1 0,2 1,1 0,4 -1,1 -1,0 -1,1 -2,0 -1,1 -2,0 -1,1 -3,0 -1,1 -3,0 -1,-1 -1,-1 0,-3 -1,-1 0,-2 -1,-1 0,-4 -31,15Z"/>
<path onmouseover="hoverPath(evt)" onmouseout="recoverPath(evt)" fill="rgb(171,198,238)" d="M  27,167l -1,0 -1,-1 -2,0 -1,-1 0,-2 -1,-1 -2,0 -1,1 0,0 -1,1 1,1 2,0 1,1 1,0 5,1 2,1 8,0 1,-1 1,-1 3,0 1,1 1,1 0,1 1,1 1,1 0,1 1,0 1,1 1,0 -1,-1 0,-1 -1,-1 0,-1 -1,-1 0,-1 -1,-1 0,-1 -1,-1 0,-1 -1,-1 -1,0 -1,1 -2,0 -1,1 -2,0 -1,1 -3,0 -1,1 -2,0 0,2 -2,-1Z"/>
<path onmouseover="hoverPath(evt)" onmouseout="recoverPath(evt)" fill="rgb(243,242,235)" d="M  50,71l -3,0 0,2 1,1 0,11 -1,1 0,9 2,0 1,1 0,12 1,1 0,12 1,1 1,0 1,-1 2,0 1,1 2,0 1,-1 1,0 1,-1 2,0 1,-1 1,0 1,-1 2,0 0,-2 1,-1 1,0 1,-1 1,0 1,-1 1,0 1,-1 2,0 1,-1 1,0 1,-1 2,0 1,-1 4,0 1,-1 0,-4 -1,-1 0,-5 1,-1 4,0 1,1 0,-19 1,-1 0,-6 1,-1 0,-1 1,-1 0,-1 1,-1 1,-1 1,-1 1,-1 1,0 1,-1 1,-1 1,-1 1,-1 1,-1 1,-1 0,-1 1,-1 1,-1 0,-9 -1,-1 0,-1 -1,0 0,2 -1,1 -1,1 -3,0 -1,1 -4,0 -1,1 -1,0 -1,1 -3,0 -1,1 -1,0 -1,1 -1,1 -2,0 -1,1 -1,0 2,1 0,0 1,1 0,12 -1,1 0,19 -1,1 -6,0 -1,1 -9,0 -1,-1 -1,-1 0,-11 -1,-1 0,-8 -1,-1 0,-4 -1,0 -1,1 -2,0 -1,1 -1,0 -1,1 -1,1 -1,0 -1,1 -2,0 -1,1 -1,0 -1,1Z"/>
<path onmouseover="hoverPath(evt)" onmouseout="recoverPath(evt)" fill="rgb(178,202,238)" d="M  55,241l 0,1 5,0 1,1 0,2 -1,1 -1,0 0,1 1,1 0,2 1,1 1,1 0,3 14,0 0,-2 -5,0 -1,-1 0,-2 1,-1 3,0 -1,-1 0,-2 -1,-1 0,-3 1,-1 2,0 1,1 2,0 1,-1 4,0 1,-1 3,0 0,-3 -1,-1 0,-1 -1,-1 0,-2 -2,-2 0,-1 -1,-1 0,-1 -2,0 -1,1 -4,0 -1,1 -2,0 0,4 -1,1 -2,0 -1,-1 0,-5 -9,0 -1,-1 0,-4 -1,-1 0,-1 -3,0 -1,1 -2,0 0,3 1,1 0,4 -1,1 -2,0 -1,-1 0,-1 -3,0 -1,1 -4,0 -1,1 0,2 1,1 0,3 -1,1 -1,1 0,1 1,-1 4,0 1,-1 6,0 1,1 2,0 2,2Z"/>
<path onmouseover="hoverPath(evt)" onmouseout="recoverPath(evt)" fill="rgb(182,205,238)" d="M  61,222l 0,0 -1,1 0,3 9,0 1,1 0,5 1,-5 2,0 1,-1 4,0 1,-1 4,0 1,1 0,1 1,1 0,1 1,1 1,1 0,2 1,1 0,1 1,1 0,5 -1,1 -3,0 -1,1 -4,0 -1,1 -4,0 -1,-1 0,1 1,1 0,2 1,1 0,2 -1,1 2,0 1,1 0,3 14,0 0,-2 1,-1 0,-2 1,-1 0,-1 1,-1 0,-2 1,-1 1,-1 1,-1 31,0 -4,-1 0,-2 1,-1 3,0 0,-2 -1,-1 0,-3 1,-1 0,-4 1,-1 4,0 -6,1 -7,0 -1,-1 0,-2 1,-1 -2,0 1,4 1,1 0,4 -1,1 -4,0 0,2 1,1 0,2 1,1 0,2 -57,-19 41,19 0,-8 -1,-1 0,-4 1,-1 5,0 0,-1 -1,-1 0,-3 -1,-1 -1,-1 0,-2 -5,0 -1,-1 0,-2 1,-1 2,0 0,-2 -1,-1 0,-1 -1,-1 0,-2 -1,-1 0,-1 -1,-1 0,-1 -1,-1 0,-1 -7,0 -1,-1 0,-2 1,-1 3,0 1,-1 1,-1 -1,-1 0,-1 -5,0 -1,-1 0,-2 1,-1 3,0 0,-3 -2,0 -1,-1 -1,1 -2,0 -1,1 -2,0 -1,1 -2,0 -1,1 -4,0 -1,-1 0,-3 -1,-1 0,-1 -1,-1 0,-1 -1,-1 -1,0 -1,-1 0,-2 1,-1 -1,-1 0,-1 -1,-1 0,-1 -1,-1 -1,0 -1,1 -2,0 -1,1 -2,0 -1,1 -2,0 -1,1 -1,0 -1,1 -2,0 0,1 1,1 0,1 1,1 0,3 1,1 0,1 1,1 1,1 1,1 1,0 1,1 0,5 -1,1 -6,0 -1,1 -3,0 -1,1 -3,0 -1,1 -2,0 0,2 1,1 0,2 1,1 0,1 6,0 1,1 0,2 -1,1 -4,0 0,1 1,1 3,0 1,-1 3,0 1,-1 8,0 1,1 0,2 -1,1 -2,0 -1,1 1,1 0,2 1,1 0,3 41,20 -41,-19Z"/>
<path onmouseover="hoverPath(evt)" onmouseout="recoverPath(evt)" fill="rgb(172,198,238)" d="M  65,142l -1,1 0,1 -1,1 -5,0 -1,1 -2,0 0,2 1,1 0,2 1,1 0,3 1,1 1,0 1,-1 3,0 1,-1 2,0 1,-1 2,0 1,-1 1,0 0,-2 -1,-1 0,-2 -1,-1 0,-2 -1,-1 0,-1Z"/>
<path onmouseover="hoverPath(evt)" onmouseout="recoverPath(evt)" fill="rgb(171,198,238)" d="M  89,15l 0,10 -1,1 0,3 1,1 1,-1 0,0 1,-1 1,-1 1,-1 1,-1 1,-1 0,-10 -5,0 -1,1Z"/>
<path onmouseover="hoverPath(evt)" onmouseout="recoverPath(evt)" fill="rgb(240,240,237)" d="M  118,23l 0,0 -1,1 0,2 -1,1 0,7 -1,1 4,0 1,1 1,0 1,-1 1,0 1,-1 1,0 1,-1 1,0 1,-1 3,0 1,-1 1,0 1,-1 1,-1 2,0 1,-1 1,-1 2,0 1,-1 2,0 1,-1 1,-1 1,0 1,-1 3,0 1,-1 1,0 1,-1 1,-1 1,0 1,-1 3,0 1,-1 1,0 1,-1 1,-1 1,0 1,-1 1,0 1,-1 1,0 1,-1 2,0 1,-1 1,0 0,-2 1,-1 2,0 1,-1 0,-1 1,-1 -1,-1 -6,0 -1,-1 -1,1 0,0 -1,1 0,1 -1,1 -12,0 -1,-1 -7,0 -1,-1 -1,-1 0,-3 1,-1 0,-1 -20,0 0,3 -1,1 0,4 -1,1 0,2 11,0 1,1 5,0 1,1 0,4 -1,1 -3,0 -1,1 0,2 -1,1 -18,0 -1,1Z"/>
<path onmouseover="hoverPath(evt)" onmouseout="recoverPath(evt)" fill="rgb(173,199,238)" d="M  188,39l 0,0 -1,1 -6,0 -1,-1 0,-9 1,-1 0,-17 1,-1 0,-2 1,-1 3,0 1,1 4,0 1,1 0,2 -1,1 -5,0 -1,1 0,6 7,0 1,-1 9,0 1,-1 6,0 0,-4 -1,-1 0,-8 -1,-1 0,-4 -58,0 0,2 -1,1 0,1 1,1 7,0 1,1 10,0 0,-1 2,-2 1,-1 2,0 1,1 6,0 1,1 1,1 0,2 -1,1 0,1 -1,1 -1,1 1,0 1,1 0,5 -1,1 0,15 -1,1 -9,0 -1,-1 -8,0 0,1 -1,1 0,8 -1,1 -10,0 -1,-1 -9,0 0,1 -1,1 0,2 1,1 9,0 1,1 7,0 1,1 6,0 1,-1 1,0 1,-1 1,0 1,-1 1,0 1,-1 1,0 0,-1 1,-1 3,0 1,-1 5,0 1,-1 2,0 1,-1 4,-2Z"/>
<path onmouseover="hoverPath(evt)" onmouseout="recoverPath(evt)" fill="rgb(173,199,238)" d="M  233,79l -1,0 0,2 1,0 1,1 1,-1 1,0 1,-1 4,0 1,1 0,2 1,1 1,1 0,1 1,1 0,1 1,1 0,1 1,1 0,1 1,1 0,1 1,1 1,1 1,1 1,1 0,1 1,1 0,1 1,1 0,1 1,1 0,-11 -2,0 -1,-1 0,-1 -1,-1 0,-1 -1,-1 -1,-1 0,-1 -1,-1 0,-1 -1,-1 0,-1 -1,-1 0,-1 -1,-1 0,-2 -1,-1 0,-1 -1,-1 -1,-1 -1,1 -1,0 0,3 -1,1 -2,0 -1,-1 -1,1 -1,0 -1,1Z"/>
<path onmouseover="hoverPath(evt)" onmouseout="recoverPath(evt)" fill="rgb(174,200,238)" d="M  242,39l -4,0 -1,1 -3,0 -1,1 -4,0 -1,1 -2,0 0,4 1,1 8,0 0,-1 1,-1 1,-1 1,-1 2,0 1,-1 6,0 1,1 0,2 1,-1 0,0 1,-1 5,0 0,-16 -2,0 -1,-1 0,-1 -1,-1 0,-3 -1,-1 0,-4 -1,-1 0,-5 -1,-1 0,-9 -4,0 0,3 1,1 0,1 1,1 0,14 1,1 0,2 1,1 0,1 1,1 0,1 1,1 0,1 1,1 0,3 1,1 0,3 -1,1 -8,0 -1,1Z"/>
</svg>