<svg width="256" height="256" xmlns="http://www.w3.org/2000/svg"><script> 
var tempColor;
function hoverPath(evt){
obj = evt.target;
tempColor = obj.getAttribute("fill");
obj.setAttribute("fill","red");
//alert(tempColor);
//obj.setAttribute("stroke","red");}
function recoverPath(evt){
obj = evt.target;
obj.setAttribute("fill", tempColor);
//obj.setAttribute("stroke", tempColor);
}</script><path onmouseover="hoverPath(evt)" onmouseout="recoverPath(evt)" fill="rgb(244,243,235)" d="M  0,1l 0,64 38,0 1,-1 6,0 1,-1 1,0 0,-3 1,-1 0,-42 -1,-1 0,-12 -1,-1 0,-3 -45,0 -1,1Z"/>
<path onmouseover="hoverPath(evt)" onmouseout="recoverPath(evt)" fill="rgb(243,242,234)" d="M  0,72l 0,83 41,0 0,-3 1,-1 0,-4 1,-1 0,-21 1,-1 0,-28 1,-1 0,-10 1,-1 0,-10 1,-1 0,-3 -1,-1 -5,0 -1,1 -10,0 -1,1 -18,0 -1,-1 -10,0Z"/>
<path onmouseover="hoverPath(evt)" onmouseout="recoverPath(evt)" fill="rgb(243,242,233)" d="M  0,165l 0,51 19,0 1,1 13,0 0,-1 1,-1 0,-6 1,-1 0,-9 1,-1 0,-9 1,-1 0,-6 1,-1 0,-7 1,-1 0,-6 1,-1 0,-1 -1,-1 -2,0 -1,-1 -36,0Z"/>
<path onmouseover="hoverPath(evt)" onmouseout="recoverPath(evt)" fill="rgb(190,210,238)" d="M  0,235l 0,20 12,0 0,-9 -1,-1 0,-8 -7,0 -1,-1 -1,-1 -1,-1 -1,1 0,-3 1,0 0,-3 -1,0Z"/>
<path onmouseover="hoverPath(evt)" onmouseout="recoverPath(evt)" fill="rgb(241,241,232)" d="M  0,224l 0,3 2,0 1,1 0,5 1,1 1,1 7,0 1,1 0,8 1,1 0,10 16,0 0,-9 1,-1 0,-8 1,-1 0,-8 1,-1 0,-3 -1,-1 -2,0 -1,-1 -13,0 -1,-1 -15,0Z"/>
<path onmouseover="hoverPath(evt)" onmouseout="recoverPath(evt)" fill="rgb(242,241,231)" d="M  38,226l 0,3 -1,1 0,9 -1,1 0,8 -1,1 0,6 90,0 0,-3 1,-1 0,-2 -1,-1 0,-1 -18,0 -1,-1 -20,0 -1,-1 0,-3 1,-1 28,0 1,1 11,0 0,-1 1,-1 0,-7 1,-1 0,-3 -1,-1 -11,0 -1,-1 -29,0 -1,-1 -15,0 -1,-1 -18,0 -1,-1 -9,0 -1,-1 -1,1 -1,0Z"/>
<path onmouseover="hoverPath(evt)" onmouseout="recoverPath(evt)" fill="rgb(243,242,233)" d="M  45,166l 0,2 -1,1 0,7 -1,1 0,6 -1,1 0,7 -1,1 0,9 -1,1 0,8 -1,1 0,7 3,0 1,1 9,0 1,1 21,0 1,1 13,0 1,1 30,0 1,1 8,0 0,-1 1,-1 0,-4 1,-1 0,-8 1,-1 0,-7 1,-1 0,-7 1,-1 0,-7 1,-1 0,-7 1,-1 0,-7 -2,0 -1,-1 -26,0 -1,-1 -23,0 -1,-1 -26,0 -1,-1 -8,0 -1,1Z"/>
<path onmouseover="hoverPath(evt)" onmouseout="recoverPath(evt)" fill="rgb(244,243,234)" d="M  53,0l -2,0 0,1 1,1 0,11 1,1 0,19 1,1 0,3 -1,1 0,25 8,0 1,-1 22,0 1,-1 19,0 1,-1 14,0 1,-1 13,0 1,-1 9,0 1,-1 5,0 0,-1 1,-1 0,-55Z"/>
<path onmouseover="hoverPath(evt)" onmouseout="recoverPath(evt)" fill="rgb(243,242,234)" d="M  53,69l 0,0 -1,1 0,6 -1,1 0,10 -1,1 0,10 -1,1 0,30 -1,1 0,18 -1,1 0,7 12,0 1,1 25,0 1,1 25,0 1,1 24,0 0,-1 1,-1 0,-6 1,-1 0,-7 1,-1 0,-7 1,-1 0,-7 1,-1 0,-7 1,-1 0,-8 1,-1 0,-6 1,-1 0,-6 1,-1 0,-7 1,-1 0,-7 1,-1 0,-7 1,-1 0,-8 -11,0 -1,1 -13,0 -1,1 -14,0 -1,1 -18,0 -1,1 -22,0 -1,1 -11,0 -1,1Z"/>
<path onmouseover="hoverPath(evt)" onmouseout="recoverPath(evt)" fill="rgb(253,253,253)" d="M  87,243l 0,1 20,0 1,1 18,0 1,1 0,1 1,1 0,4 -1,1 0,2 4,0 0,-9 1,-1 0,-8 1,-1 0,-6 1,-1 0,-1 1,-1 32,0 1,1 22,0 0,-1 -19,0 -1,-1 -29,0 -1,-1 -4,0 -1,-1 0,-11 1,-1 0,-8 1,-1 0,-7 1,-1 0,-7 1,-1 0,-7 1,-1 0,-7 1,-1 0,-4 1,-1 1,0 1,-1 9,0 1,1 19,0 1,1 21,0 1,1 11,0 0,-1 -7,0 -1,-1 -23,0 -1,-1 -20,0 -1,-1 -9,0 -1,-1 -1,0 -1,-1 0,-8 1,-1 0,-7 1,-1 0,-7 1,-1 0,-7 1,-1 0,-7 1,-1 0,-6 1,-1 0,-2 1,-1 1,0 1,-1 16,0 1,-1 44,0 1,-1 -3,0 -43,1 -2,0 -15,1 -1,0 -1,-1 0,-2 1,-1 0,-8 1,-1 0,-7 1,-1 0,-6 1,-1 0,-7 1,-1 0,-9 1,-1 0,-3 1,-1 2,0 1,-1 15,0 1,-1 18,0 1,-1 31,0 1,-1 15,0 1,-1 3,0 1,1 5,0 1,-1 4,0 0,-2 -8,0 -1,1 -6,0 -1,1 -15,0 -1,1 -31,0 -1,1 -18,0 -1,1 -18,0 -1,-1 0,-57 -1,0 0,56 -1,1 0,1 -1,1 -5,0 -1,1 -9,0 -1,1 -13,0 -1,1 -14,0 -1,1 -19,0 -1,1 -22,0 -1,1 -10,0 -1,-1 0,-27 1,-1 0,-1 -1,-1 0,-19 -1,-1 0,-11 -1,-1 0,-2 -1,0 0,2 1,1 0,12 1,1 0,44 -1,1 0,3 -1,1 -1,0 -1,1 -6,0 -1,1 -39,0 0,1 11,0 1,1 16,0 1,-1 10,0 1,-1 7,0 1,1 1,1 0,5 -1,1 0,10 -1,1 0,10 -1,1 0,28 -1,1 0,21 -1,1 0,4 -1,1 0,3 -1,1 -42,0 0,4 37,0 1,1 2,0 1,1 1,1 0,3 1,0 0,-3 2,-2 10,0 1,1 26,0 1,1 23,0 1,1 26,0 1,1 2,0 1,1 0,9 -1,1 0,7 -1,1 0,7 -1,1 0,7 -1,1 0,7 -1,1 0,8 -1,1 0,4 -1,1 0,1 -1,1 -10,0 -1,-1 -30,0 -1,-1 -13,0 -1,-1 -21,0 -1,-1 -9,0 -1,-1 -3,0 -1,-1 0,-9 -1,0 0,6 -1,1 0,1 -1,1 -15,0 -1,-1 -18,0 0,1 16,0 1,1 13,0 1,1 2,0 2,2 0,5 1,0 0,-5 1,-1 1,0 1,-1 2,0 1,1 9,0 1,1 18,0 1,1 15,0 1,1 29,0 1,1 11,0 1,1 1,1 0,5 -1,1 0,7 -1,1 0,1 -1,1 -13,0 -1,-1 -26,0 -52,-14 -1,0 0,8 -1,1 0,8 -1,1 0,8 1,0 0,-7 1,-1 0,-8 1,-1 0,-9 52,14 -50,-34 1,0 0,-8 1,-1 0,-9 1,-1 0,-7 1,-1 0,-6 1,-1 0,-7 -1,0 0,6 -1,1 0,7 -1,1 0,6 -1,1 0,9 -1,1 0,9 50,34 -42,-90 0,-5 1,-1 0,-18 1,-1 0,-30 1,-1 0,-10 1,-1 0,-10 1,-1 0,-6 1,-1 0,-1 1,-1 12,0 1,-1 22,0 1,-1 18,0 1,-1 14,0 1,-1 13,0 1,-1 13,0 1,1 0,10 -1,1 0,7 -1,1 0,7 -1,1 0,7 -1,1 0,6 -1,1 0,6 -1,1 0,8 -1,1 0,7 -1,1 0,7 -1,1 0,7 -1,1 0,7 -1,1 0,6 -1,1 0,1 -1,1 -26,0 -1,-1 -25,0 -1,-1 -25,0 -1,-1 -12,0 -1,-1 0,-4 42,90Z"/>
<path onmouseover="hoverPath(evt)" onmouseout="recoverPath(evt)" fill="rgb(244,243,234)" d="M  136,230l 0,0 -1,1 0,6 -1,1 0,8 -1,1 0,8 94,0 0,-20 -1,-1 0,-42 1,-1 0,-5 1,-1 0,-7 1,-1 0,-8 1,-1 0,-10 1,-1 0,-12 1,-1 0,-3 1,-1 0,-4 1,-1 0,-3 1,-1 0,-4 1,-1 0,-3 1,-1 0,-3 1,-1 0,-3 1,-1 0,-3 1,-1 0,-3 1,-1 0,-2 1,-1 0,-3 1,-1 0,-2 1,-1 0,-33 -1,-1 0,-5 -1,0 -1,1 -15,0 -1,1 -31,0 -1,1 -18,0 -1,1 -15,0 -1,1 -2,0 0,3 -1,1 0,9 -1,1 0,7 -1,1 0,6 -1,1 0,7 -1,1 0,8 -1,1 13,0 1,-1 44,0 1,-1 20,0 1,1 0,2 -1,1 -15,0 -1,1 -44,0 -1,1 -16,0 -1,1 -1,0 0,2 -1,1 0,6 -1,1 0,7 -1,1 0,7 -1,1 0,7 -1,1 0,7 -1,1 0,6 1,0 1,1 9,0 1,1 20,0 1,1 23,0 1,1 7,0 1,1 0,3 -1,1 -13,0 -1,-1 -21,0 -1,-1 -19,0 -1,-1 -7,0 -1,1 -1,0 0,4 -1,1 0,7 -1,1 0,7 -1,1 0,7 -1,1 0,7 -1,1 0,8 -1,1 0,9 4,0 1,1 29,0 1,1 19,0 1,1 0,3 -1,1 -24,0 -1,-1 -29,0 -1,1Z"/>
<path onmouseover="hoverPath(evt)" onmouseout="recoverPath(evt)" fill="rgb(244,243,235)" d="M  157,0l -2,0 0,56 16,0 1,-1 18,0 1,-1 31,0 1,-1 15,0 1,-1 2,0 0,-2 -1,-1 0,-3 -1,-1 0,-4 -1,-1 0,-4 -1,-1 0,-5 -1,-1 0,-4 -1,-1 0,-8 -1,-1 0,-15Z"/>
<path onmouseover="hoverPath(evt)" onmouseout="recoverPath(evt)" fill="rgb(172,198,238)" d="M  236,1l 0,13 1,1 0,8 1,1 0,4 1,1 0,5 1,1 0,4 1,1 0,4 1,1 0,3 1,1 0,3 2,0 1,-1 9,0 0,-12 -2,0 -1,-1 0,-2 -1,-1 0,-3 -1,-1 0,-2 -1,-1 0,-21 1,-1 1,-1 4,0 0,-5 -18,0 -1,1Z"/>
<path onmouseover="hoverPath(evt)" onmouseout="recoverPath(evt)" fill="rgb(171,198,238)" d="M  245,59l 0,2 1,1 0,35 -1,1 0,2 -1,1 0,3 -1,1 0,2 -1,1 0,3 -1,1 0,3 -1,1 0,3 -1,1 0,3 -1,1 0,3 -1,1 0,4 -1,1 0,3 -1,1 0,4 -1,1 0,3 -1,1 0,12 -1,1 0,10 -1,1 0,8 -1,1 0,7 -1,1 0,5 -1,1 0,40 1,1 0,21 14,0 0,-29 1,-1 0,-2 1,-1 0,-1 1,-1 2,0 1,-1 6,0 0,-3 -8,0 -1,-1 -1,0 -1,-1 -1,-1 0,-2 -1,-1 0,-14 1,-1 0,-19 1,-1 0,-9 1,-1 0,-5 1,-1 0,-8 1,-1 0,-7 1,-1 0,-4 1,-1 0,-5 1,-1 0,-5 1,-1 0,-4 1,-1 0,-4 1,-1 2,0 0,-58 -3,0 -1,1 -5,0 -1,1Z"/>
<path onmouseover="hoverPath(evt)" onmouseout="recoverPath(evt)" fill="rgb(244,243,236)" d="M  247,223l -1,1 0,2 -1,1 0,28 10,0 0,-34 -5,0 -1,1 -1,0 -1,1Z"/>
<path onmouseover="hoverPath(evt)" onmouseout="recoverPath(evt)" fill="rgb(245,244,237)" d="M  251,8l 0,19 1,1 0,2 1,1 0,3 1,1 0,2 1,0 0,-30 -3,0 -1,1Z"/>
<path onmouseover="hoverPath(evt)" onmouseout="recoverPath(evt)" fill="rgb(245,244,237)" d="M  253,122l 0,4 -1,1 0,5 -1,1 0,5 -1,1 0,4 -1,1 0,7 -1,1 0,8 -1,1 0,5 -1,1 0,9 -1,1 0,19 -1,1 0,12 1,1 0,2 1,1 1,0 1,1 7,0 0,-97 -1,0 0,4 -1,1Z"/>
</svg>