<svg width="256" height="256" xmlns="http://www.w3.org/2000/svg"><script> 
var tempColor;
function hoverPath(evt){
obj = evt.target;
tempColor = obj.getAttribute("fill");
obj.setAttribute("fill","red");
//alert(tempColor);
//obj.setAttribute("stroke","red");}
function recoverPath(evt){
obj = evt.target;
obj.setAttribute("fill", tempColor);
//obj.setAttribute("stroke", tempColor);
}</script><path onmouseover="hoverPath(evt)" onmouseout="recoverPath(evt)" fill="rgb(170,198,237)" d="M  0,32l 0,7 83,0 1,1 1,0 0,-5 1,-1 1,0 1,-1 1,-1 0,-1 -88,0 -1,1Z"/>
<path onmouseover="hoverPath(evt)" onmouseout="recoverPath(evt)" fill="rgb(250,249,246)" d="M  46,48l -32,0 -1,-1 -13,0 0,8 6,0 1,1 8,0 -5,-1 0,-1 -1,-1 0,-4 1,-1 36,0 -1,1 1,0 1,1 0,8 -1,1 -10,0 9,1 2,0 1,1 0,8 1,-7 0,0 1,-1 1,0 1,-1 -2,0 -1,-1 0,-1 -1,0 -3,-9 1,-1 3,1 1,0 1,-1 -1,0 -1,1 -3,-1Z"/>
<path onmouseover="hoverPath(evt)" onmouseout="recoverPath(evt)" fill="rgb(243,242,234)" d="M  50,123l 4,0 1,1 3,0 1,1 4,0 1,1 4,0 1,1 5,0 1,1 4,0 1,1 4,0 1,1 5,0 1,1 4,0 1,1 4,0 1,1 5,0 1,1 4,0 1,1 4,0 1,1 5,0 1,1 4,0 1,1 4,0 0,-12 -1,-1 0,-9 -1,-1 0,-4 1,-1 0,-6 1,-1 2,0 1,1 0,9 1,1 0,8 2,0 1,1 0,16 1,1 6,0 1,1 5,0 1,1 5,0 1,1 6,0 1,1 6,0 1,1 9,0 1,1 5,0 1,1 6,0 1,1 6,0 1,1 5,0 1,1 5,0 1,1 6,0 1,1 4,0 0,-2 -1,-1 0,-1 -1,-1 -1,-1 0,-1 -1,-1 0,-1 -1,-1 0,-1 -1,-1 -1,-1 0,-1 -1,-1 0,-1 -1,-1 0,-1 -1,-1 0,-1 -1,-1 0,-2 -1,-1 0,-2 -1,-1 0,-2 -1,-1 0,-1 -1,-1 0,-1 -1,-1 0,-1 -1,-1 0,-1 -1,-1 0,-1 -1,-1 0,-2 -1,-1 0,-1 -1,-1 0,-1 -1,-1 -1,-1 0,-1 -1,-1 -1,-1 -1,-1 -1,-1 -1,-1 -1,0 -1,-1 -1,-1 -1,-1 -1,0 -1,-1 -1,-1 -1,-1 -1,-1 -1,-1 0,-1 -1,-1 -1,-1 0,-1 -1,-1 -1,-1 -1,-1 0,-1 -1,-1 0,-1 -1,-1 -1,-1 0,-1 -2,-2 0,-1 -1,-1 -1,-1 -1,-1 0,-1 -1,-1 -1,-1 0,-1 -1,-1 -1,-1 -1,-1 0,-1 -1,-1 -1,-1 -1,-1 0,-1 -1,-1 -1,-1 0,-1 -1,-1 -2,-2 0,-1 -1,-1 -1,-1 0,-1 -1,-1 -1,-1 -1,-1 -1,-1 -1,0 -1,-1 -1,0 -1,-1 -2,0 -1,-1 -41,0 0,1 -1,1 -1,0 0,3 17,0 1,1 1,1 0,8 1,1 0,9 -1,1 -1,1 -1,1 -6,0 -1,-1 0,-2 -7,0 -1,1 -9,0 -1,-1 0,-2 -9,0 -1,-1 -7,0 -1,-1 -8,0 0,1 -1,1 -1,1 -8,0 0,1 1,1 0,2 10,0 1,1 0,2 5,0 1,1 5,0 1,1 1,1 0,3 -1,1 -13,0 11,1 1,0 1,1 0,6 -1,1 0,3 -1,1 0,2 -1,1 0,4 -1,1 0,3 1,1 0,2 1,1 19,0 1,-1 6,0 0,-4 1,-1 2,0 1,1 0,8 -1,1 0,12 -2,2 -4,0 -1,-1 -3,0 -1,-1 0,-2 1,-1 5,0 0,-1 1,-1 0,-7 -25,0 -1,1 -1,0 0,4 6,0 1,1 0,2 -1,1 -10,0 -1,-1 -4,0 -1,-1 0,-4 -7,0 -1,-1 0,-4 1,-1 0,-1 -4,0 -1,-1 -4,0 -1,-1 -1,0 -1,-1 0,-3 -1,-1 -2,0 -1,-1 -2,0 -1,-1 0,-5 1,-1 2,0 0,-4 1,-1 4,0 0,-2 -3,0 -1,-1 0,-2 -1,0 -1,-1 0,-11 -3,0 -1,1 -1,1 -1,1 0,3 -1,1 0,1 1,0 1,1 0,8 1,0 1,1 0,4 1,0 4,30 -5,-26 -5,0 0,6 -1,1 -2,0 0,8 2,0 1,1 0,1 1,1 0,4 -1,1 0,2 1,1 3,0 1,1 1,0 1,-1 2,0 -4,-26 5,26Z"/>
<path onmouseover="hoverPath(evt)" onmouseout="recoverPath(evt)" fill="rgb(242,240,231)" d="M  74,140l 0,0 -1,-1 -1,0 0,3 -1,1 0,8 -1,1 0,8 -1,1 0,7 1,1 1,0 1,1 3,0 1,1 1,0 2,2 1,1 0,1 1,1 0,1 1,1 8,0 0,-1 1,-1 0,-1 -1,-1 0,-22 1,-1 1,-1 1,-1 8,0 1,1 0,2 -1,1 -5,0 -1,1 -1,0 0,15 1,1 0,8 1,1 0,1 1,1 2,0 1,1 7,0 0,-1 1,-1 0,-1 1,-1 2,0 1,1 0,4 2,0 1,1 10,0 0,-7 1,-1 0,-5 1,-1 0,-8 1,-1 0,-7 1,-1 0,-3 -1,0 -1,-1 -5,0 -1,-1 -5,0 -1,-1 -4,0 -1,-1 -5,0 -1,-1 -4,0 -1,-1 -4,0 -1,-1 -5,0 -1,-1 -4,0 -1,-1 -4,0 -1,-1Z"/>
<path onmouseover="hoverPath(evt)" onmouseout="recoverPath(evt)" fill="rgb(170,197,237)" d="M  88,36l -1,0 0,3 20,0 1,1 42,0 1,1 2,0 1,1 1,0 1,1 1,0 1,1 1,1 1,1 2,2 0,1 2,2 0,1 1,1 1,1 1,1 0,1 1,1 1,1 0,1 1,1 1,1 1,1 0,1 2,2 1,1 0,1 1,1 1,1 0,1 1,1 1,1 1,1 0,1 1,1 1,1 0,1 1,1 1,1 0,1 1,1 0,1 1,1 2,2 0,1 1,1 1,1 0,1 1,1 1,1 1,1 1,1 1,0 1,1 1,1 1,1 1,0 1,1 1,1 1,1 1,1 1,1 1,1 0,1 1,1 1,1 0,1 1,1 0,1 1,1 0,2 1,1 0,1 1,1 0,1 1,1 0,1 1,1 0,1 1,1 0,1 1,1 0,2 1,1 0,2 1,1 0,2 1,1 0,1 1,1 0,1 1,1 0,1 1,1 0,1 1,1 1,1 0,1 1,1 0,1 1,1 0,1 1,1 1,1 0,1 1,1 0,3 1,1 0,1 3,0 1,1 5,0 0,-1 -1,-1 0,-3 -1,-1 0,-1 -1,-1 0,-2 -1,-1 0,-1 -1,-1 0,-1 -1,-1 -1,-1 0,-1 -1,-1 -1,-1 0,-1 -1,-1 -1,-1 0,-1 -1,-1 -1,-1 0,-1 -1,-1 0,-1 -1,-1 0,-2 -1,-1 0,-4 -1,-1 0,-4 -1,-1 0,-1 -1,-1 0,-2 -1,-1 0,-1 -1,-1 0,-2 -1,-1 0,-1 -1,-1 0,-2 -1,-1 0,-2 -1,-1 0,-2 -1,-1 -1,-1 -1,-1 -1,-1 -1,0 -1,-1 -1,0 -1,-1 -1,-1 -1,-1 -1,-1 -1,-1 -1,-1 -1,-1 0,-1 -2,-2 -1,-1 0,-1 -1,-1 -1,-1 0,-1 -1,-1 0,-1 -1,-1 -1,-1 0,-1 -1,-1 -1,-1 0,-1 -1,-1 0,-1 -1,-1 0,-2 -1,-1 0,-1 -1,-1 0,-1 -1,-1 0,-1 -1,-1 0,-1 -1,-1 0,-1 -1,-1 -1,-1 0,-1 -1,-1 0,-1 -1,-1 -1,-1 0,-5 2,-2 0,-1 1,-1 1,-1 1,0 1,-1 1,-1 2,0 1,-1 2,0 1,-1 1,0 1,-1 2,0 1,-1 2,0 1,-1 2,0 1,-1 1,0 1,-1 2,0 1,-1 2,0 1,-1 1,0 1,-1 2,0 1,-1 2,0 1,-1 1,0 1,-1 2,0 1,-1 2,0 1,-1 1,0 1,-1 2,0 1,-1 1,0 1,-1 2,0 1,-1 2,0 1,-1 1,0 1,-1 2,0 1,-1 3,0 1,-1 3,0 1,-1 4,0 0,-7 -17,0 0,2 -1,1 -2,0 -1,1 -1,0 -1,1 -2,0 -1,1 -2,0 -1,1 -1,0 -1,1 -1,0 -1,1 -2,0 -1,1 -1,0 -1,1 -1,0 -1,1 -2,0 -1,1 -1,0 -1,1 -2,0 -1,1 -1,0 -1,1 -2,0 -1,1 -1,0 -1,1 -2,0 -1,1 -2,0 -1,1 -1,0 -1,1 -2,0 -1,1 -2,0 -1,1 -2,0 -1,1 -2,0 -1,1 -3,0 -1,1 -2,0 -1,1 -4,0 -1,-1 -1,0 -1,-1 -1,-1 -1,-1 0,-1 -1,-1 0,-1 -1,-1 0,-1 -1,-1 0,-1 -1,-1 0,-2 -1,-1 0,-2 -1,-1 0,-4 -1,-1 0,-4 -13,0 0,3 1,1 0,5 1,1 0,4 1,1 0,12 -1,1 0,1 -1,1 -1,0 -1,1 -1,0 -1,1 -12,0 -1,-1 -37,0 0,2 -1,1 -2,2Z"/>
<path onmouseover="hoverPath(evt)" onmouseout="recoverPath(evt)" fill="rgb(243,241,232)" d="M  243,172l -1,1 0,4 -1,1 0,4 -1,1 0,1 -1,1 0,1 -1,1 0,1 -1,1 0,1 -1,1 0,1 -1,1 -1,1 -1,1 -1,1 -1,1 -1,1 -1,1 -1,1 -1,1 -1,1 0,1 -1,1 -1,1 -1,1 0,2 -1,1 -1,0 -1,1 0,2 -1,1 -1,0 -1,1 -1,1 0,1 -1,1 0,1 -1,1 0,2 -1,1 0,1 7,0 1,1 5,0 1,1 10,0 1,1 13,0 1,1 3,0 0,-56 -5,0 -1,-1 -6,0Z"/>
<path onmouseover="hoverPath(evt)" onmouseout="recoverPath(evt)" fill="rgb(244,243,236)" d="M  0,1l 0,28 92,0 0,-2 2,-2 0,-1 1,-1 6,0 0,-5 1,-1 1,-1 1,-1 12,0 0,-2 -1,-1 0,-3 -1,-1 0,-3 1,-1 1,-1 1,0 1,-1 1,0 0,-2 -118,0 -1,1Z"/>
<path onmouseover="hoverPath(evt)" onmouseout="recoverPath(evt)" fill="rgb(253,252,252)" d="M  110,181l 0,0 -1,1 0,1 -1,1 -9,0 -1,-1 -2,0 -1,-1 -1,-1 0,-1 -1,-1 0,-8 -1,-1 0,-17 1,-1 1,0 1,-1 5,0 -8,20 0,8 -1,1 -10,0 -1,-1 -1,-1 0,-1 -1,-1 0,-1 -1,-1 -1,-1 -1,0 -1,-1 -3,0 -1,-1 -1,0 -1,-1 -1,-1 0,-9 -1,0 0,10 1,1 1,1 1,0 1,1 3,0 1,1 1,0 2,2 0,4 -1,1 -1,0 0,1 -1,1 -1,0 -1,1 -2,0 -1,1 -3,0 -1,1 -3,0 -2,2 0,1 -1,1 -2,0 -1,-1 0,-2 -1,-1 -7,0 7,1 0,7 -1,1 -10,0 -1,-1 0,0 -1,-1 0,2 13,0 1,1 1,0 1,1 0,13 -1,1 0,8 -1,1 0,5 -1,1 0,5 -1,1 0,5 -1,1 0,4 -1,1 0,3 -1,1 0,3 -1,1 -1,1 -2,0 2,1 0,2 19,0 0,-3 1,-1 -5,0 -1,1 -9,0 -1,-1 0,-8 1,-1 0,-4 1,-1 0,-5 1,-1 0,-5 1,-1 0,-4 1,-1 0,-7 1,-1 0,-17 1,-1 0,-3 1,-1 0,-1 1,-1 1,-1 2,0 1,-1 3,0 1,-1 3,0 1,-1 1,0 1,-1 1,-1 1,0 1,-1 11,0 1,1 2,0 1,1 1,0 1,1 1,0 1,1 2,0 1,1 2,0 1,1 0,5 1,-3 0,-1 1,-1 1,-1 3,0 1,1 14,0 1,1 0,-2 -12,0 -1,-1 -2,0 -1,-1 0,-3 -43,-22 1,0 0,-8 1,-1 0,-8 1,-1 0,-3 -1,-1 0,2 -1,1 0,9 -1,1 0,9 43,22Z"/>
<path onmouseover="hoverPath(evt)" onmouseout="recoverPath(evt)" fill="rgb(243,242,234)" d="M  134,190l 0,8 -1,1 0,8 -1,1 0,10 -1,1 0,10 -1,1 0,10 -1,1 0,9 -1,1 4,0 1,1 1,0 1,1 0,2 18,0 0,-1 -1,-1 0,-2 1,-1 2,0 0,-1 1,-1 -1,-1 0,-2 1,-1 0,-1 1,-1 0,-1 1,-1 0,-1 1,-1 0,-1 1,-1 0,-1 1,-1 0,-1 1,-1 0,-1 1,-1 2,0 -1,-1 0,-2 1,-1 2,0 0,-2 1,-1 0,-3 1,-1 0,-3 1,-1 1,-1 3,0 1,1 0,2 -1,1 0,4 -1,1 0,3 1,0 1,1 0,2 -1,1 -2,0 0,1 -1,1 -1,0 1,1 0,2 -1,1 -2,0 0,1 -1,1 0,1 -1,1 0,1 -1,1 -1,1 0,2 -1,1 0,1 -1,1 0,2 1,1 2,0 1,1 4,0 0,-1 1,-1 0,-1 1,-1 2,0 1,1 0,3 1,1 0,2 8,0 0,-2 1,-1 0,-3 1,-1 0,-2 1,-1 0,-2 1,-1 0,-3 1,-1 0,-1 1,-1 0,-2 1,-1 0,-2 1,-1 0,-1 1,-1 0,-2 1,-1 0,-2 1,-1 0,-1 1,-1 0,-2 1,-1 0,-1 1,-1 0,-1 1,-1 0,-1 1,-1 0,-2 1,-1 0,-1 1,-1 0,-1 1,-1 0,-1 1,-1 0,-1 1,-1 0,-1 1,-1 0,-1 1,-1 1,-1 0,-1 1,-1 1,-1 0,-1 1,-1 0,-3 1,-1 1,-1 1,-1 0,-1 1,-1 1,-1 1,-1 0,-1 1,-1 1,-1 0,-1 1,-1 1,-1 1,-1 1,-1 0,-1 1,-1 0,-2 -2,0 -1,-1 -6,0 -1,-1 -8,0 -1,-1 -6,0 -1,-1 -5,0 -1,-1 -2,0 -1,-1 -1,-1 -1,-1 0,-1 -3,0 -1,-1 -6,0 -1,-1 -4,0 -1,-1 -5,0 -1,-1 0,3 -1,1 0,8 1,1 0,8 -1,1 0,3 -1,1 -2,0 -1,-1 0,-21 -4,0 -1,-1 -16,0 0,1 -1,1 0,21 1,1 10,0 0,-1 1,-1 4,0 1,1 0,2 -1,1 0,1 -1,1 -4,0 -1,1 -14,0 -1,1 0,1 1,1Z"/>
<path onmouseover="hoverPath(evt)" onmouseout="recoverPath(evt)" fill="rgb(244,243,236)" d="M  159,1l 0,2 1,1 0,4 1,1 0,2 1,1 0,2 1,1 0,1 1,1 0,1 1,1 0,1 1,1 0,1 1,1 1,1 1,0 1,1 2,0 1,-1 2,0 1,-1 3,0 1,-1 2,0 1,-1 2,0 1,-1 2,0 1,-1 2,0 1,-1 1,0 1,-1 2,0 1,-1 2,0 1,-1 1,0 1,-1 2,0 1,-1 1,0 1,-1 2,0 1,-1 1,0 1,-1 2,0 1,-1 1,0 1,-1 1,0 1,-1 2,0 1,-1 1,0 1,-1 1,0 1,-1 2,0 1,-1 2,0 1,-1 1,0 1,-1 2,0 0,-1 -76,0 -1,1Z"/>
<path onmouseover="hoverPath(evt)" onmouseout="recoverPath(evt)" fill="rgb(172,199,235)" d="M  212,193l 0,0 -1,1 -1,1 0,1 -1,1 -1,1 0,1 -1,1 0,1 -1,1 0,1 -1,1 0,1 -1,1 0,1 -1,1 0,1 -1,1 0,2 -1,1 0,1 -1,1 0,1 -1,1 0,1 -1,1 0,2 -1,1 0,1 -1,1 0,2 -1,1 0,2 -1,1 0,1 -1,1 0,2 -1,1 0,2 -1,1 0,1 -1,1 0,3 -1,1 0,2 -1,1 0,2 -1,1 0,3 -1,1 0,1 9,0 0,-3 1,-1 0,-2 1,-1 0,-1 1,-1 0,-2 1,-1 0,-1 1,-1 0,-2 1,-1 0,-1 1,-1 0,-1 1,-1 0,-1 1,-1 0,-2 1,-1 0,-1 1,-1 0,-1 1,-1 0,-3 1,-1 0,-3 1,-1 0,-2 1,-1 0,-1 1,-1 3,-3 0,-1 1,-1 1,-1 1,-1 0,-1 1,-1 1,-1 1,-1 0,-1 1,-1 1,-1 1,-1 1,-1 1,-1 1,-1 1,-1 1,-1 1,-1 1,-1 0,-1 1,-1 0,-1 2,-2 0,-1 1,-1 0,-1 1,-1 0,-3 1,-1 0,-3 1,-1 0,-5 1,-1 0,-1 -1,-1 -5,0 -1,-1 0,2 -1,1 0,3 -1,1 0,1 -1,1 -1,1 0,1 -1,1 -1,1 -1,1 -1,1 0,1 -1,1 -1,1 -3,0 -1,1 -1,1 0,1 -1,1 -1,1 -1,1 0,3 -1,1Z"/>
<path onmouseover="hoverPath(evt)" onmouseout="recoverPath(evt)" fill="rgb(243,241,232)" d="M  213,228l -1,0 -1,1 0,2 -1,1 0,1 -1,1 0,1 -1,1 0,1 -1,1 0,2 -1,1 0,1 -1,1 0,1 -1,1 0,2 -1,1 0,1 -1,1 0,2 -1,1 0,2 11,0 0,-2 1,-1 0,-1 1,-1 0,-2 1,-1 1,-1 0,-1 1,-1 0,-2 1,-1 1,-1 0,-1 1,-1 0,-1 -1,-1 0,-2 1,-1 1,-1 1,-1 6,0 1,1 1,0 1,1 1,1 0,8 -1,1 -2,0 0,1 1,0 1,1 2,0 1,1 1,0 1,1 0,1 1,1 0,2 -1,1 0,3 19,0 0,-20 -4,0 -1,1 -2,0 -1,-1 0,-2 -6,0 -1,-1 -4,0 -1,-1 -5,0 -1,-1 -6,0 -1,-1 -6,0 -1,-1Z"/>
<path onmouseover="hoverPath(evt)" onmouseout="recoverPath(evt)" fill="rgb(244,243,235)" d="M  0,130l 0,93 6,0 1,1 1,0 1,1 1,1 0,1 1,1 0,1 1,1 0,1 1,1 0,1 1,1 0,1 1,1 1,1 1,1 1,0 1,1 3,3 1,0 1,1 1,1 1,0 1,1 1,0 1,1 1,0 1,-1 2,0 1,1 0,2 1,0 1,1 1,0 1,1 2,0 1,1 4,0 1,-1 2,0 1,-1 0,-3 1,-1 0,-3 1,-1 0,-4 1,-1 0,-5 1,-1 0,-5 1,-1 0,-5 1,-1 0,-8 1,-1 0,-11 -1,0 -1,-1 -13,0 -1,-1 0,-6 1,-1 2,0 1,1 0,2 1,1 8,0 0,-5 -6,0 -1,-1 0,-2 1,-1 9,0 1,1 1,1 0,2 1,-2 2,-2 3,0 1,-1 3,0 1,-1 2,0 1,-1 1,0 0,-1 1,-1 1,0 0,-2 -1,-1 -1,0 -1,-1 -3,0 -1,-1 -1,0 -1,-1 -1,-1 -1,-1 0,-12 1,-1 0,-9 1,-1 0,-9 1,-1 -4,0 -1,-1 -4,0 -1,-1 -4,0 -1,-1 -5,0 -1,-1 -5,0 -1,-1 -5,0 -1,-1 -6,0 -1,-1 -9,0 -1,-1 -11,0 -1,-1 -4,0 -1,1Z"/>
<path onmouseover="hoverPath(evt)" onmouseout="recoverPath(evt)" fill="rgb(242,241,232)" d="M  52,90l -1,0 0,4 -1,1 -2,0 0,3 2,0 1,1 2,0 1,1 1,1 0,3 1,0 1,1 4,0 1,1 4,0 1,1 0,3 -1,1 0,2 7,0 1,1 0,2 2,0 1,-1 0,-2 -2,0 -1,-1 -3,0 -1,-1 0,-2 1,-1 7,0 1,-1 0,-2 1,-1 0,-4 1,-1 0,-4 1,-1 0,-2 1,-1 0,-3 1,-1 0,-4 -1,0 -1,-1 -10,0 -1,-1 0,-2 -5,0 -1,-1 0,-2 -1,0 0,1 -1,1 -6,0 4,1 1,0 1,1 0,2 1,-2 2,0 1,1 0,3 -1,1 -1,1 -1,1 -1,0 -1,1 -6,0 0,1 -1,1Z"/>
<path onmouseover="hoverPath(evt)" onmouseout="recoverPath(evt)" fill="rgb(237,235,225)" d="M  78,46l -3,0 -1,-1 0,-4 -74,0 0,4 14,0 1,1 56,0 1,1 0,2 -1,1 -19,0 -1,1 -1,0 0,1 -1,1 0,3 1,0 1,1 0,1 3,0 1,1 0,2 -1,1 -1,0 -1,1 -1,0 -1,1 0,17 1,0 1,1 0,2 3,0 1,1 0,1 5,0 1,-1 1,0 2,-2 0,-1 -2,2 -1,0 -1,-1 0,-2 -1,0 -1,-1 -3,0 -1,-1 0,-2 1,-1 6,0 0,-1 1,-1 3,0 1,1 0,2 5,0 1,1 12,0 0,-1 -1,-1 -5,0 -1,-1 -5,0 -1,-1 0,-2 -10,0 -1,-1 0,-2 -1,-1 0,-3 1,-1 8,0 1,-1 0,-1 1,-1 10,0 1,1 7,0 1,1 9,0 1,1 0,2 7,0 1,-1 9,0 1,1 1,0 1,-1 1,0 0,-12 -1,-1 0,-1 -18,0 -1,-1 0,-1 -3,0 -1,-1 -3,0 -1,-1 0,-1Z"/>
<path onmouseover="hoverPath(evt)" onmouseout="recoverPath(evt)" fill="rgb(237,236,230)" d="M  119,29l 10,0 1,1 10,0 1,-1 1,0 1,-1 1,0 0,-1 1,-1 0,-10 -1,-1 0,-4 -1,-1 0,-5 -1,-1 0,-4 -21,0 0,3 -1,1 -1,0 -1,1 -1,0 -1,1 0,1 1,1 0,3 1,1 0,4 -1,1 -12,0 -1,1 -1,1 0,5 -1,1 -6,0 0,1 -1,1 -1,1 0,1Z"/>
<path onmouseover="hoverPath(evt)" onmouseout="recoverPath(evt)" fill="rgb(249,249,244)" d="M  166,254l -1,0 -1,-1 -2,0 -1,-1 -1,-1 0,-4 1,-1 0,-1 1,-1 0,-2 1,-1 1,-1 0,-1 1,-1 0,-1 1,-1 0,-1 1,-1 2,0 -1,-1 0,-2 1,-1 1,0 0,-1 1,-1 2,0 -2,-1 0,-5 1,-1 0,-4 1,-1 -1,0 -1,1 0,3 -1,1 0,3 -1,1 0,2 -1,1 -2,0 1,1 0,2 -1,1 -2,0 0,1 -1,1 0,1 -1,1 0,1 -1,1 0,1 -1,1 0,1 -1,1 0,1 -1,1 0,1 -1,1 1,1 0,2 -1,1 0,1 -1,1 -2,0 1,1 0,2 10,0 1,-1 1,1 7,0 0,-1 -1,-1 0,-3 -1,2 0,1 -1,1 -3,0 -1,1 -1,-1Z"/>
<path onmouseover="hoverPath(evt)" onmouseout="recoverPath(evt)" fill="rgb(244,243,236)" d="M  184,34l 0,0 -1,1 -1,0 -1,1 0,1 -1,1 -1,1 0,3 1,1 0,0 1,1 0,1 1,1 0,1 1,1 1,1 0,1 1,1 0,1 1,1 0,1 1,1 0,1 1,1 0,1 1,1 0,2 1,1 0,1 1,1 0,1 1,1 1,1 0,1 1,1 1,1 0,1 1,1 0,1 1,1 1,1 0,1 1,1 1,1 1,1 0,1 1,1 1,1 1,1 1,1 1,1 1,1 1,0 1,1 1,0 1,1 1,1 1,1 1,1 1,1 0,2 1,1 0,2 1,1 0,2 1,1 0,1 1,1 0,2 1,1 0,1 1,1 0,2 1,1 0,1 1,1 0,4 1,1 0,4 1,1 0,2 1,1 0,1 1,1 0,1 1,1 1,1 0,1 1,1 1,1 0,1 1,1 1,1 0,1 1,1 1,1 0,1 1,1 0,1 1,1 0,2 1,1 0,1 1,1 0,3 1,1 0,2 1,-1 10,0 1,1 3,0 0,-146 -3,0 -1,1 -3,0 -1,1 -3,0 -1,1 -2,0 -1,1 -1,0 -1,1 -2,0 -1,1 -2,0 -1,1 -1,0 -1,1 -2,0 -1,1 -1,0 -1,1 -2,0 -1,1 -2,0 -1,1 -1,0 -1,1 -2,0 -1,1 -2,0 -1,1 -1,0 -1,1 -2,0 -1,1 -2,0 -1,1 -1,0 -1,1 -2,0 -1,1 -2,0 -1,1 -2,0 -1,1 -1,0 -1,1 -2,0 -1,1 -2,0 -1,1Z"/>
<path onmouseover="hoverPath(evt)" onmouseout="recoverPath(evt)" fill="rgb(240,239,231)" d="M  0,59l 0,58 2,0 1,1 12,0 1,1 10,0 1,1 6,0 1,1 4,0 0,-2 1,-1 0,-2 -1,-1 0,-1 -2,0 -1,-1 0,-10 1,-1 2,0 0,-6 1,-1 5,0 -1,-1 0,-4 -1,0 -1,-1 0,-8 -1,0 -1,-1 0,-3 1,-1 0,-3 3,-3 1,-1 2,0 0,-7 -2,0 -1,-1 -8,0 -1,-1 0,-2 1,-1 10,0 0,-6 -1,0 -1,-1 -32,0 0,2 1,1 0,1 4,0 1,1 0,2 -1,1 -10,0 -1,-1 -5,0Z"/>
<path onmouseover="hoverPath(evt)" onmouseout="recoverPath(evt)" fill="rgb(243,242,233)" d="M  0,227l 0,28 47,0 0,-1 -1,0 -1,-1 -5,0 -1,-1 -2,0 -1,-1 -1,0 -1,-1 -1,0 -1,-1 -1,0 -1,-1 -2,0 -1,-1 -1,0 -1,-1 -1,0 -1,-1 -1,-1 -1,0 -1,-1 -1,-1 -1,-1 -1,-1 -1,0 -1,-1 -1,-1 -1,-1 -1,-1 0,-1 -1,-1 0,-1 -1,-1 0,-1 -1,-1 0,-1 -1,-1 0,-1 -1,-1 -1,0 -1,-1 -5,0Z"/>
<path onmouseover="hoverPath(evt)" onmouseout="recoverPath(evt)" fill="rgb(246,237,154)" d="M  18,128l 0,0 1,1 9,0 1,1 6,0 1,1 5,0 1,1 5,0 1,1 5,0 1,1 4,0 1,1 4,0 1,1 3,0 1,-1 2,0 1,1 1,1 2,0 1,1 4,0 1,1 4,0 1,1 4,0 1,1 5,0 1,1 4,0 1,1 4,0 1,1 5,0 1,1 4,0 1,1 5,0 1,1 5,0 1,1 1,0 1,1 0,5 -1,1 0,7 -1,1 0,8 -1,1 0,5 -1,1 0,6 1,1 0,4 -1,1 -1,0 0,8 -1,1 0,9 -1,1 0,10 -1,1 0,10 -1,1 0,10 -1,1 0,7 1,1 0,5 11,0 0,-1 -1,0 -1,-1 -5,0 -1,-1 0,-2 1,-1 1,0 0,-9 1,-1 0,-10 1,-1 0,-10 1,-1 0,-10 1,-1 0,-8 1,-1 0,-6 -1,-1 0,-3 1,-1 1,-1 14,0 1,-1 4,0 0,-1 1,-1 -2,0 0,1 -4,1 -9,0 -1,-1 -1,-1 0,-23 1,-1 0,-1 1,-1 18,0 1,1 4,0 1,1 0,21 1,-4 0,-22 1,-1 2,0 1,1 0,1 5,0 1,1 4,0 1,1 6,0 1,1 3,0 1,1 0,1 1,1 1,1 2,0 1,1 5,0 1,1 6,0 1,1 8,0 1,1 6,0 1,1 2,0 1,1 0,4 1,0 0,-1 1,-1 0,-3 1,-1 0,-2 1,-1 2,0 1,1 5,0 1,1 3,0 1,1 1,0 1,1 5,0 1,1 0,2 4,0 0,-12 -4,0 -1,-1 -8,0 -1,1 -9,0 -1,-1 -3,0 -1,-1 0,-1 -6,0 -1,-1 -6,0 -1,-1 -5,0 -1,-1 -5,0 -1,-1 -6,0 -1,-1 -6,0 -1,-1 -5,0 -1,-1 -9,0 -1,-1 -6,0 -1,-1 -6,0 -1,-1 -5,0 -1,-1 -5,0 -1,-1 -6,0 -1,-1 -1,-1 0,-16 -2,0 -1,-1 0,-8 -1,-1 0,-9 -1,7 0,2 1,1 0,9 1,1 0,14 -1,1 -6,0 -1,-1 -4,0 -1,-1 -5,0 -1,-1 -4,0 -1,-1 -4,0 -1,-1 -5,0 -1,-1 -4,0 -1,-1 -4,0 -1,-1 -5,0 -1,-1 -4,0 -1,-1 -4,0 -1,-1 -5,0 -1,-1 -4,0 -1,-1 -4,0 -1,-1 -3,0 -1,-1 -5,0 -1,1 -3,0 -1,-1 -3,0 -1,-1 -1,-1 -5,0 -1,-1 -6,0 -1,-1 -10,0 -1,-1 -12,0 -1,-1 -1,0 0,8 6,0 1,1 11,0 208,44 -1,0 0,1 -1,1 -1,1 -1,1 -1,1 0,1 -1,1 -1,1 1,0 1,-1 1,-2 1,-1 1,-1 1,-1 1,-2 -208,-44Z"/>
<path onmouseover="hoverPath(evt)" onmouseout="recoverPath(evt)" fill="rgb(243,241,233)" d="M  63,191l 0,0 -1,1 0,3 -1,1 0,17 -1,1 0,7 -1,1 0,4 -1,1 0,5 -1,1 0,5 -1,1 0,4 -1,1 0,6 7,0 1,-1 10,0 1,1 0,2 -1,1 -3,0 0,2 50,0 0,-4 -1,-1 0,-9 1,-1 0,-10 1,-1 0,-10 1,-1 0,-10 1,-1 0,-9 1,-1 0,-8 -14,0 -1,-1 -1,0 -1,1 0,1 -1,1 0,2 -1,1 -2,0 -1,-1 0,-5 -2,0 -1,-1 -2,0 -1,-1 -1,0 -1,-1 -1,0 -1,-1 -2,0 -1,-1 -9,0 -1,1 -1,0 -1,1 -1,1 -1,0 -1,1 -3,0 -1,1 -3,0 -1,1 -2,0 -1,1Z"/>
<path onmouseover="hoverPath(evt)" onmouseout="recoverPath(evt)" fill="rgb(254,254,254)" d="M  81,119l 0,0 -1,-1 0,-6 1,-1 1,0 1,-1 27,0 1,1 1,-1 0,-6 -1,5 -6,0 6,1 0,10 -1,1 0,1 -1,1 -5,0 4,1 2,0 1,-1 0,-2 -1,2 -28,-14 0,0 -1,-1 0,-2 -1,3 0,0 -1,1 -7,0 4,1 2,0 1,1 0,4 -1,1 -1,1 1,0 1,1Z"/>
<path onmouseover="hoverPath(evt)" onmouseout="recoverPath(evt)" fill="rgb(234,235,232)" d="M  92,44l 2,0 1,1 0,1 3,0 1,1 3,0 1,1 0,1 18,0 1,1 0,1 1,1 0,14 1,0 0,-7 -1,8 -2,0 -1,1 2,0 1,-17 0,-1 -1,-1 0,0 -18,-1 0,-5 1,-1 1,0 0,-1 -19,0 -1,1 -3,0 -1,-1 -6,0 0,3Z"/>
<path onmouseover="hoverPath(evt)" onmouseout="recoverPath(evt)" fill="rgb(240,237,226)" d="M  219,245l 0,0 -1,1 0,1 -1,1 -1,1 0,2 -1,1 0,1 -1,1 0,1 20,0 0,-4 1,-1 -1,-1 0,-1 -1,0 -1,-1 -2,0 -1,-1 -1,0 -1,-1 0,-3 1,-1 2,0 0,-6 -1,-1 -1,0 -1,-1 -4,0 -1,1 0,0 -1,1 1,1 0,3 -1,1 0,1 -1,1 -1,1Z"/>
<path onmouseover="hoverPath(evt)" onmouseout="recoverPath(evt)" fill="rgb(172,198,237)" d="M  223,227l 0,0 1,1 6,0 1,1 5,0 1,1 4,0 1,1 6,0 1,1 0,2 1,-1 5,0 0,-4 -4,0 -1,-1 -13,0 -1,-1 -10,0 -1,-1 -1,0 -1,1 -1,-1 -2,0 -1,-1 -6,0 0,1 3,0 1,1 4,0 1,-1 1,1Z"/>
<path onmouseover="hoverPath(evt)" onmouseout="recoverPath(evt)" fill="rgb(253,253,253)" d="M  240,167l 0,1 -1,1 0,5 -1,1 0,3 -1,1 0,3 -1,1 0,1 -1,1 0,1 -1,1 -1,1 0,1 -1,1 0,1 -1,1 -1,1 -8,8 0,1 -3,3 0,1 -1,1 -1,1 -1,1 0,1 -1,1 -3,3 0,1 -1,1 0,2 -1,1 0,3 -1,1 0,3 -1,1 0,1 -1,1 0,1 -1,1 0,2 -1,1 0,1 -1,1 0,1 -1,1 0,1 -1,1 0,2 -1,1 0,1 -1,1 0,2 -1,1 0,1 -1,1 0,2 -1,1 0,2 2,0 0,-3 1,-1 0,-2 1,-1 0,-1 1,-1 0,-2 1,-1 0,-1 1,-1 0,-1 1,-1 0,-2 1,-1 0,-1 1,-1 0,-1 1,-1 0,-1 1,-1 0,-2 1,-1 1,-1 0,-5 1,-1 0,-2 1,-1 0,-1 1,-1 0,-1 1,-1 1,-1 1,-1 1,0 0,-2 1,-1 1,-1 1,0 0,-2 1,-1 1,-1 1,-1 0,-1 1,-1 1,-1 1,-1 1,-1 3,-3 1,-1 1,-1 1,-1 0,-1 1,-1 0,-1 1,-1 0,-1 1,-1 0,-1 1,-1 0,-1 1,-1 0,-4 1,-1 0,-4 1,-1 0,-2 1,-1 7,0 -6,-1 -1,0 -1,-1 -1,1Z"/>
</svg>