<svg width="256" height="256" xmlns="http://www.w3.org/2000/svg"><script> 
var tempColor;
function hoverPath(evt){
obj = evt.target;
tempColor = obj.getAttribute("fill");
obj.setAttribute("fill","red");
//alert(tempColor);
//obj.setAttribute("stroke","red");}
function recoverPath(evt){
obj = evt.target;
obj.setAttribute("fill", tempColor);
//obj.setAttribute("stroke", tempColor);
}</script><path onmouseover="hoverPath(evt)" onmouseout="recoverPath(evt)" fill="rgb(236,238,234)" d="M  1,16l -1,0 0,9 12,0 0,-6 -1,-1 0,-2Z"/>
<path onmouseover="hoverPath(evt)" onmouseout="recoverPath(evt)" fill="rgb(244,243,235)" d="M  0,190l 0,65 91,0 0,-13 -1,-1 0,-12 -1,-1 0,-12 -1,-1 0,-12 -1,-1 0,-12 -1,-1 0,-7 -1,-1 -6,0 -1,1 -13,0 -1,1 -10,0 -1,1 -11,0 -1,1 -9,0 -1,1 -9,0 -1,1 -6,0 -1,1 -14,0Z"/>
<path onmouseover="hoverPath(evt)" onmouseout="recoverPath(evt)" fill="rgb(234,236,231)" d="M  94,30l 0,2 8,0 0,-4 -1,-1 0,-1 -1,0 -1,-1 -1,0 -1,-1 0,-2 -1,-1 0,-14 -1,-1 0,-6 -16,0 0,21 1,1 0,1 14,0 1,1 0,3 -1,1Z"/>
<path onmouseover="hoverPath(evt)" onmouseout="recoverPath(evt)" fill="rgb(235,237,232)" d="M  99,182l 0,5 1,1 0,1 10,0 1,-1 1,0 0,-7 -4,0 -1,-1 0,-1 -1,0 0,2 -1,1Z"/>
<path onmouseover="hoverPath(evt)" onmouseout="recoverPath(evt)" fill="rgb(242,241,232)" d="M  126,250l 0,3 -1,1 -2,0 -1,-1 0,-5 -26,0 0,3 1,1 0,3 115,0 0,-14 -1,-1 0,-14 -1,-1 0,-21 -1,-1 0,-30 -1,-1 0,-1 -10,0 -1,1 -10,0 -1,1 -11,0 -1,1 -10,0 -1,1 -11,0 -1,1 -10,0 -1,1 -10,0 -1,1 -11,0 -1,1 -8,0 5,1 0,9 -1,1 -1,0 -1,1 -12,0 -1,-1 0,-1 -1,-1 0,-7 1,-1 -4,0 -1,1 -2,0 0,5 1,1 0,12 1,1 0,12 1,1 0,12 1,1 0,8 1,0 1,-1 21,0 1,1 0,2 -1,1 -18,0 -1,1 0,5 1,1 22,0 0,-7 -1,0 -1,-1 0,-2 1,-1 1,-1 5,0 1,1 0,3 -1,1 -1,0 0,7 4,0 1,1 0,2 -1,1 -4,0 0,2 12,-58 8,0 1,-1 2,0 1,1 1,0 1,1 0,14 -1,1 -12,0 -1,-1 0,-1 -1,-1 0,-12 1,-1 -12,58Z"/>
<path onmouseover="hoverPath(evt)" onmouseout="recoverPath(evt)" fill="rgb(236,238,234)" d="M  139,194l 0,10 1,1 0,1 10,0 0,-12 -1,0 -1,-1 -1,1Z"/>
<path onmouseover="hoverPath(evt)" onmouseout="recoverPath(evt)" fill="rgb(236,238,234)" d="M  209,12l 0,9 1,1 16,0 0,-10 -1,-1 -6,0 -1,1Z"/>
<path onmouseover="hoverPath(evt)" onmouseout="recoverPath(evt)" fill="rgb(243,242,235)" d="M  212,24l -3,0 -1,-1 -1,-1 0,-11 1,-1 9,0 1,-1 8,0 1,1 1,1 0,12 -1,1 -15,0 18,3 25,0 0,-27 -92,0 0,9 1,1 0,14 1,1 0,5 14,0 1,-1 25,0 1,-1 23,0 1,-1 -18,-3Z"/>
<path onmouseover="hoverPath(evt)" onmouseout="recoverPath(evt)" fill="rgb(242,241,233)" d="M  213,142l 0,15 1,1 0,6 1,1 4,0 1,-1 12,0 1,-1 11,0 1,-1 10,0 0,-57 -2,0 -1,1 -16,0 -1,1 -18,0 -1,1 -4,0 -1,1 0,5 1,1 0,20 1,1Z"/>
<path onmouseover="hoverPath(evt)" onmouseout="recoverPath(evt)" fill="rgb(240,238,228)" d="M  214,178l 0,21 1,1 0,23 1,1 0,12 1,1 0,10 1,1 0,7 19,0 0,-10 -9,0 -1,-1 -1,-1 0,-26 1,-1 20,0 1,1 0,2 1,0 1,-1 1,0 0,-1 1,-1 3,0 0,-38 -4,0 -1,1 0,14 1,0 1,1 0,3 -1,1 -25,0 -1,-1 -1,-1 0,-6 1,-1 0,-1 -1,0 -1,-1 0,-8 -1,-1 -3,0 -1,-1 0,-5 -1,-1 0,-1 -2,0 -1,1Z"/>
<path onmouseover="hoverPath(evt)" onmouseout="recoverPath(evt)" fill="rgb(236,238,234)" d="M  219,90l 0,3 1,1 0,3 1,1 1,0 1,-1 15,0 1,-1 1,0 0,-6 -1,-1 0,-1 -3,0 -1,1 -14,0 -1,1Z"/>
<path onmouseover="hoverPath(evt)" onmouseout="recoverPath(evt)" fill="rgb(236,238,234)" d="M  222,38l 0,1 -1,1 0,4 1,1 0,1 13,0 1,-1 0,-5 -1,-1 0,-2 -9,0 -1,1Z"/>
<path onmouseover="hoverPath(evt)" onmouseout="recoverPath(evt)" fill="rgb(237,235,225)" d="M  230,224l 0,17 8,0 1,-1 2,0 1,1 1,1 0,6 -1,1 9,0 0,-1 1,-1 0,-1 1,-1 2,0 0,-27 -2,0 0,1 -1,1 -1,0 -1,1 -3,0 -1,-1 0,-2 -18,0 0,4 1,0 1,1Z"/>
<path onmouseover="hoverPath(evt)" onmouseout="recoverPath(evt)" fill="rgb(253,253,253)" d="M  1,185l -1,0 0,1 13,0 1,-1 6,0 1,-1 9,0 1,-1 9,0 1,-1 11,0 1,-1 10,0 1,-1 13,0 1,-1 8,0 1,1 1,1 0,7 1,1 0,12 1,1 0,12 1,1 0,12 1,1 0,12 1,1 0,14 2,0 0,-2 -1,-1 0,-5 1,-1 28,0 1,1 1,-1 4,0 -5,-1 0,-9 1,-1 1,0 0,-1 -3,0 -1,1 2,0 0,17 -26,-7 0,0 -1,-1 0,-7 1,-1 1,-1 -1,0 -1,1 -3,0 -1,-1 0,-8 -1,-1 0,-12 -1,-1 0,-12 -1,-1 0,-12 -1,-1 0,-7 1,-1 2,0 1,-1 11,0 1,-1 11,0 1,-1 11,0 1,-1 10,0 1,-1 10,0 1,-1 11,0 1,-1 10,0 1,-1 11,0 1,-1 10,0 1,-1 12,0 1,1 0,1 1,1 0,30 1,1 0,21 1,1 0,14 1,1 0,15 2,0 0,-6 -1,-1 0,-10 -1,-1 0,-12 -1,-1 0,-23 -1,-1 0,-30 1,-1 1,-1 4,0 1,1 0,1 1,1 0,5 2,0 -2,-6 0,-1 1,-1 1,0 1,-1 11,0 1,-1 11,0 1,-1 8,0 0,-1 -9,0 -1,1 -11,0 -1,1 -12,0 -1,1 -6,0 -1,-1 -1,-1 0,-6 -1,-1 0,-21 -1,-1 0,-20 -1,-1 0,-7 1,-1 1,-1 4,0 1,-1 18,0 1,-1 16,0 1,-1 3,0 0,-1 -5,0 -1,1 -16,0 -1,1 -22,0 -1,-1 0,-15 1,-1 0,-15 -1,-1 0,-27 -1,-1 0,-6 -1,0 0,7 1,1 0,27 1,1 0,13 -1,1 0,15 -1,1 0,1 -1,1 -3,0 -1,1 -9,0 -1,1 -10,0 -1,1 -11,0 -1,1 -10,0 -1,1 -12,0 -1,1 -12,0 -1,1 -12,0 -1,1 -12,0 -1,1 -12,0 -1,1 -8,0 -1,-1 0,-2 -1,-1 0,-6 -1,-1 0,-13 -1,-1 0,-18 -1,-1 0,-4 -1,0 0,9 1,1 0,14 1,1 0,13 1,1 0,8 -1,1 -1,0 -1,1 -11,0 -1,1 -13,0 -1,1 -23,0 0,2 -1,1 6,0 1,-1 2,0 1,-1 15,0 1,-1 12,0 1,-1 14,0 1,1 0,4 1,1 0,13 1,1 0,12 1,1 0,13 1,1 0,12 -1,1 -1,0 -1,1 -7,0 -1,1 -13,0 -1,1 -10,0 -1,1 -10,0 -1,1 -10,0 -1,1 -9,0 -1,1 -5,0 -1,-1 -1,-1 0,1 -1,1 -2,0 -1,1 -7,0 87,-11 0,-11 -1,-1 0,-13 -1,-1 0,-12 -1,-1 0,-12 -1,-1 0,-3 1,-1 0,-1 1,-1 8,0 1,-1 12,0 1,-1 12,0 1,-1 12,0 1,-1 12,0 1,-1 12,0 1,-1 10,0 1,-1 10,0 1,-1 11,0 1,-1 13,0 1,1 0,9 1,1 0,20 1,1 0,21 1,1 0,4 -1,1 -1,1 -1,0 -1,1 -11,0 -1,1 -10,0 -1,1 -11,0 -1,1 -10,0 -1,1 -10,0 -1,1 -11,0 -1,1 -10,0 -1,1 -11,0 -1,1 -11,0 -1,1 -13,0 -1,-1 0,-1 -1,-1 -87,11 10,-5 1,0 -1,-1 0,1 -10,5Z"/>
<path onmouseover="hoverPath(evt)" onmouseout="recoverPath(evt)" fill="rgb(243,241,233)" d="M  0,127l 0,56 7,0 1,-1 2,0 -1,-1 0,-6 1,-1 2,0 1,1 0,3 1,1 0,2 1,1 3,0 1,-1 9,0 1,-1 10,0 1,-1 10,0 1,-1 10,0 1,-1 13,0 1,-1 7,0 1,-1 1,0 0,-10 -1,-1 0,-13 -1,-1 0,-12 -1,-1 0,-13 -1,-1 0,-4 -12,0 -1,1 -12,0 -1,1 -15,0 -1,1 -2,0 -1,1 -9,0 -1,-1 0,-2 1,-1 1,0 0,-2 1,-1 -6,0 -1,1 -6,0 -1,-1 0,-1 -1,-1 0,-2 -1,-1 0,-3 1,-1 0,-4 -2,0 -1,-1 0,-1 -1,-1 0,-3 -1,-1 0,-4 -1,-1 0,-4 -1,-1 0,-5 -1,-1 0,-3 -6,0Z"/>
<path onmouseover="hoverPath(evt)" onmouseout="recoverPath(evt)" fill="rgb(244,243,235)" d="M  18,0l -18,0 0,14 12,0 1,1 0,2 1,1 0,8 -1,1 -13,0 0,9 4,0 1,-1 10,0 1,1 4,0 0,-1 1,-1 40,0 1,-1 22,0 1,-1 7,0 0,-5 1,-1 0,-1 -14,0 -1,-1 0,-1 -1,-1 0,-22Z"/>
<path onmouseover="hoverPath(evt)" onmouseout="recoverPath(evt)" fill="rgb(240,239,231)" d="M  35,114l 0,0 1,1 0,1 16,0 1,-1 13,0 1,-1 11,0 1,-1 1,0 0,-6 -1,-1 0,-13 -1,-1 0,-14 -1,-1 0,-11 1,-1 4,0 0,-9 1,-1 2,0 1,-1 1,0 1,-1 1,-1 0,-1 1,-1 1,-1 1,0 0,-2 1,-1 1,-1 0,-1 1,-1 2,0 0,-1 -12,0 -1,1 -2,0 0,1 -1,1 -3,0 -1,-1 0,-1 -16,0 -1,1 -36,0 0,14 11,0 1,1 0,3 -1,1 -2,0 -1,-1 -3,0 0,1 -1,1 -7,0 -1,1 -2,0 -1,-1 -1,-1 0,-18 -13,0 -1,1 -2,0 0,29 7,0 1,1 0,3 1,1 0,5 1,1 0,4 1,1 0,4 1,1 0,3 1,1 0,1 2,0 1,1 0,3 1,1 0,2 -1,1 -1,0 0,1 1,1 0,2 1,1 0,1 4,0 1,-1 13,0 39,-70 2,0 1,1 0,6 -1,1 -2,0 -1,1 -2,0 0,4 -1,1 -5,0 0,3 -1,1 -3,0 0,2 -1,1 -7,0 -1,-1 0,-12 -1,-1 0,-3 1,-1 1,0 1,-1 17,0 1,-1 1,0 1,-1 -39,70Z"/>
<path onmouseover="hoverPath(evt)" onmouseout="recoverPath(evt)" fill="rgb(234,235,231)" d="M  53,49l 0,1 1,1 0,12 5,0 0,-2 1,-1 3,0 0,-3 1,-1 5,0 0,-4 1,-1 2,0 1,-1 2,0 0,-4 -1,1 -1,0 -1,1 -17,0 -1,1Z"/>
<path onmouseover="hoverPath(evt)" onmouseout="recoverPath(evt)" fill="rgb(238,229,156)" d="M  92,34l -6,0 -1,1 -22,0 -1,1 -40,0 0,1 -1,1 -6,0 -1,-1 -8,0 -1,1 -5,0 0,6 1,0 1,-1 15,0 1,1 0,18 1,1 1,-1 7,0 0,-1 1,-1 5,0 1,1 0,-1 -11,0 -1,-1 0,-16 1,-1 36,0 1,-1 18,0 1,1 0,1 1,0 0,-1 1,-1 2,0 1,-1 29,0 1,1 0,19 1,-18 18,0 -4,-1 0,-1 -15,0 -22,-6 13,5 0,-4 1,-1 -13,0 12,5 -13,-5Z"/>
<path onmouseover="hoverPath(evt)" onmouseout="recoverPath(evt)" fill="rgb(235,233,224)" d="M  105,0l -8,0 0,5 1,1 0,14 1,1 0,2 1,0 1,1 1,0 1,1 0,1 1,1 0,5 24,0 1,-1 18,0 1,-1 3,0 -2,-1 0,-1 -8,0 -1,-1 0,-2 1,-1 8,0 0,-12 1,-1 -1,0 -1,-1 0,-10Z"/>
<path onmouseover="hoverPath(evt)" onmouseout="recoverPath(evt)" fill="rgb(241,241,233)" d="M  114,174l 1,-1 11,0 1,-1 10,0 1,-1 11,0 1,-1 10,0 1,-1 10,0 1,-1 11,0 1,-1 10,0 1,-1 11,0 1,-1 1,0 1,-1 0,-2 -1,-1 0,-21 -1,-1 0,-20 -1,-1 0,-9 -11,0 -1,1 -11,0 -1,1 -10,0 -1,1 -10,0 -1,1 -12,0 -1,1 -12,0 -1,1 -12,0 -1,1 -12,0 -1,1 -12,0 -1,1 -8,0 0,1 -1,1 0,1 1,1 0,12 1,1 0,12 1,1 0,13 1,1 0,11 1,1 0,1 11,0 1,-1Z"/>
<path onmouseover="hoverPath(evt)" onmouseout="recoverPath(evt)" fill="rgb(236,238,234)" d="M  111,73l 0,0 -1,1 0,9 1,1 0,13 1,1 10,0 1,1 0,4 1,1 4,0 0,-12 -1,-1 0,-16 -1,-1 0,-1Z"/>
<path onmouseover="hoverPath(evt)" onmouseout="recoverPath(evt)" fill="rgb(238,235,225)" d="M  124,61l 11,0 1,1 0,2 11,0 1,-1 1,0 1,-1 0,-15 -3,0 -1,-1 0,-1 -1,-1 0,-1 -4,0 -1,1 -3,0 -1,-1 0,-2 -1,1 0,1 -1,1 -18,0 0,16 1,0 1,1Z"/>
<path onmouseover="hoverPath(evt)" onmouseout="recoverPath(evt)" fill="rgb(242,242,234)" d="M  157,108l 1,-1 10,0 1,-1 11,0 1,-1 10,0 1,-1 9,0 1,-1 3,0 0,-1 1,-1 0,-15 1,-1 0,-11 -1,-1 0,-27 -1,-1 0,-8 -1,2 -25,0 -1,1 -27,0 0,4 -1,1 1,0 1,1 0,17 -2,2 -1,0 -1,1 -13,0 -1,-1 0,-2 -17,0 -1,-1 -3,0 -1,-1 0,-19 -13,0 0,2 -1,1 -2,0 0,1 -1,1 -1,1 0,2 -1,1 -1,0 -1,1 0,1 -1,1 -1,1 -1,1 -1,0 -1,1 -2,0 0,9 -1,1 -1,0 0,3 1,1 0,18 1,1 0,13 1,1 0,6 1,1 0,2 6,0 1,-1 12,0 1,-1 12,0 1,-1 12,0 1,-1 12,0 1,-1 12,0 -28,-2 -6,0 -1,-1 -1,-1 0,-4 -10,0 -1,-1 -1,-1 0,-13 -1,-1 0,-11 1,-1 1,-1 17,0 1,1 0,1 1,1 0,16 1,1 0,14 -1,1 28,2Z"/>
<path onmouseover="hoverPath(evt)" onmouseout="recoverPath(evt)" fill="rgb(241,240,230)" d="M  153,0l -3,0 0,9 1,0 1,1 0,2 -1,1 0,12 -1,1 -8,0 9,1 0,1 1,0 1,1 0,1 8,0 1,1 0,1 1,0 0,-6 -1,-1 0,-14 -1,-1 0,-10Z"/>
<path onmouseover="hoverPath(evt)" onmouseout="recoverPath(evt)" fill="rgb(243,232,141)" d="M  184,37l 19,0 0,-1 1,-1 5,0 1,1 14,0 1,-1 30,0 0,-6 -24,0 -1,1 -23,0 -1,1 -25,0 -1,1 -15,0 0,1 -1,1 -3,0 -1,-1 0,-1 -11,0 -1,1 -18,0 0,2 -1,1 -22,0 0,2 23,0 1,1 0,1 3,0 1,-1 2,0 1,1 0,2 1,0 1,-1 6,0 1,1 0,1 2,0 0,-4 1,-1 27,0 1,-1Z"/>
<path onmouseover="hoverPath(evt)" onmouseout="recoverPath(evt)" fill="rgb(241,241,233)" d="M  227,99l -3,0 -1,1 -3,0 -1,-1 -1,-1 0,-3 -1,-1 0,-5 1,-1 1,0 1,-1 14,0 1,-1 5,0 1,1 0,1 1,1 0,8 -1,1 -1,0 -1,1 -12,0 5,2 16,0 1,-1 6,0 0,-34 -7,0 -1,-1 -1,-1 0,-27 -9,0 0,1 1,1 0,7 -1,1 -1,1 -15,0 -1,-1 0,-1 -1,-1 0,-6 1,-1 -10,0 0,4 1,1 0,27 1,1 0,17 -1,1 0,13 20,0 1,-1 -5,-2Z"/>
<path onmouseover="hoverPath(evt)" onmouseout="recoverPath(evt)" fill="rgb(238,236,226)" d="M  225,181l 0,5 1,0 1,1 0,3 -1,1 0,4 1,1 23,0 0,-1 -1,0 -1,-1 0,-16 1,-1 1,-1 5,0 0,-9 -7,0 -1,1 -11,0 -1,1 -11,0 -1,1 -1,0 0,4 1,0 1,1 0,2 1,1Z"/>
<path onmouseover="hoverPath(evt)" onmouseout="recoverPath(evt)" fill="rgb(245,244,236)" d="M  245,251l -4,0 -1,-1 0,-2 1,-1 0,-4 -1,-1 -1,1 -10,0 -1,-1 0,-18 11,20 0,11 16,0 0,-8 -1,0 0,1 -1,1 0,1 -1,1Z"/>
<path onmouseover="hoverPath(evt)" onmouseout="recoverPath(evt)" fill="rgb(236,238,234)" d="M  248,37l 0,26 1,1 6,0 0,-27Z"/>
</svg>