<svg width="256" height="256" xmlns="http://www.w3.org/2000/svg"><script> 
var tempColor;
function hoverPath(evt){
obj = evt.target;
tempColor = obj.getAttribute("fill");
obj.setAttribute("fill","red");
//alert(tempColor);
//obj.setAttribute("stroke","red");}
function recoverPath(evt){
obj = evt.target;
obj.setAttribute("fill", tempColor);
//obj.setAttribute("stroke", tempColor);
}</script><path onmouseover="hoverPath(evt)" onmouseout="recoverPath(evt)" fill="rgb(243,242,234)" d="M  0,1l 0,32 1,0 1,-1 0,-2 1,-1 1,-1 4,0 1,-1 1,-1 1,0 1,-1 1,-1 1,0 1,-1 0,-2 1,-1 1,-1 4,0 1,-1 1,-1 1,0 1,-1 1,-1 1,0 1,-1 1,-1 1,0 2,-2 1,0 1,-1 0,-2 1,-1 2,0 1,1 1,-1 3,0 1,-1 2,0 1,-1 3,0 0,-2 1,-1 3,0 1,1 1,0 1,-1 2,0 1,-1 1,0 0,-1 -59,0 -1,1Z"/>
<path onmouseover="hoverPath(evt)" onmouseout="recoverPath(evt)" fill="rgb(244,243,237)" d="M  1,77l -1,0 0,17 2,0 1,-1 15,0 1,-1 1,-1 1,0 1,-1 1,-1 2,0 0,-1 1,-1 1,0 1,-1 1,-1 1,0 1,-1 1,0 0,-1 1,-1 1,0 1,-1 2,-2 1,-1 1,0 0,-1 1,-1 0,-3 1,-1 -6,0 -1,1 -8,0 -1,1 -7,0 -1,1 -6,0 -1,1 -7,0 -1,1Z"/>
<path onmouseover="hoverPath(evt)" onmouseout="recoverPath(evt)" fill="rgb(170,197,237)" d="M  0,154l 0,7 2,0 1,1 0,1 1,1 1,1 2,2 1,1 1,1 0,1 1,1 1,1 1,1 1,1 1,1 1,1 1,1 1,1 1,1 1,1 1,1 1,0 1,1 1,1 1,1 1,0 1,1 1,1 1,0 1,1 1,0 1,1 1,0 1,1 1,0 1,1 2,0 1,1 2,0 1,1 2,0 1,1 2,0 1,1 3,0 1,1 2,0 1,1 1,0 1,1 2,0 1,1 2,0 1,1 1,0 1,1 1,1 1,1 0,2 -1,1 0,1 -1,1 0,1 -1,1 0,1 -1,1 -1,1 0,1 -1,1 0,1 -1,1 -1,1 -1,1 -1,1 0,1 -1,1 -1,1 -2,2 -1,1 -2,2 -1,1 -1,1 -1,1 -1,1 -1,1 -5,5 -1,0 0,1 -1,1 -1,0 -1,1 8,0 0,-1 1,-1 1,0 0,-1 1,-1 1,-1 1,-1 1,-1 2,-2 1,-1 1,-1 1,-1 1,-1 0,-1 1,-1 1,-1 1,-1 1,-1 1,-1 0,-1 1,-1 1,-1 1,-1 1,-1 1,-1 1,-1 0,-1 1,-1 1,-1 1,-1 1,-1 1,-1 1,-1 1,-1 6,0 1,1 2,0 1,1 1,0 1,1 1,0 1,1 2,0 1,1 1,0 1,1 2,0 1,1 1,0 1,1 2,0 1,1 2,0 1,1 1,0 1,1 2,0 1,1 2,0 1,1 1,0 1,1 1,0 1,1 1,0 1,1 1,1 1,0 1,1 1,0 1,1 1,0 1,1 1,0 1,1 1,0 1,1 1,0 1,1 2,0 1,1 2,0 1,1 1,0 1,1 2,0 1,1 2,0 1,1 1,0 1,1 3,0 1,1 2,0 1,1 3,0 1,1 2,0 1,1 3,0 1,1 2,0 1,1 2,0 1,1 2,0 1,1 2,0 1,1 2,0 1,1 1,0 1,1 2,0 1,1 2,0 1,1 1,0 1,1 2,0 1,1 1,0 1,1 2,0 1,1 1,0 1,1 0,2 14,0 -3,-1 -2,0 -1,-1 -1,0 -1,-1 -1,0 -1,-1 -1,0 -1,-1 -1,0 -1,-1 -1,0 -1,-1 -2,0 -1,-1 -2,0 -1,-1 -2,0 -1,-1 -2,0 -1,-1 -2,0 -1,-1 -2,0 -1,-1 -2,0 -1,-1 -3,0 -1,-1 -2,0 -1,-1 -2,0 -1,-1 -2,0 -1,-1 -3,0 -1,-1 -3,0 -1,-1 -3,0 -1,-1 -1,0 -1,-1 -2,0 -1,-1 -2,0 -1,-1 -1,0 -1,-1 -2,0 -1,-1 -1,0 -1,-1 -2,0 -1,-1 -1,0 -1,-1 -2,0 -1,-1 -1,0 -1,-1 -1,0 -1,-1 -1,0 -1,-1 -1,0 -1,-1 -1,0 -1,-1 -1,0 -1,-1 -1,0 -1,-1 -1,0 -1,-1 -1,0 -1,-1 -1,-1 -1,0 -1,-1 -1,0 -1,-1 -2,0 -1,-1 -1,0 -1,-1 -1,0 -1,-1 -1,0 -1,-1 -1,0 -1,-1 -1,0 -1,-1 -1,0 -1,-1 -2,0 -1,-1 -1,0 -1,-1 -1,0 -1,-1 -1,0 -1,-1 -1,0 -1,-1 -2,0 -1,-1 -1,0 -1,-1 -1,0 -1,-1 -2,0 -1,-1 -1,0 -1,-1 -1,0 -1,-1 -2,0 -1,-1 -2,0 -1,-1 -2,0 -1,-1 -2,0 -1,-1 -1,0 -1,-1 -3,0 -1,-1 -2,0 -1,-1 -2,0 -1,-1 -2,0 -1,-1 -1,0 -1,-1 -1,0 -1,-1 -1,0 -1,-1 -1,-1 -1,0 -2,-2 -1,0 -1,-1 -1,-1 -1,-1 -1,0 -1,-1 -1,-1 -1,-1 -1,-1 -1,-1 -1,-1 -1,-1 -1,-1 -1,-1 0,-1 -1,-1 -1,-1 -1,-1 -2,-2 -1,-1 -1,-1 -1,-1 -1,-1 -1,-1 0,-1 -1,-1 -1,-1 -1,-1 -1,1Z"/>
<path onmouseover="hoverPath(evt)" onmouseout="recoverPath(evt)" fill="rgb(244,243,236)" d="M  0,165l 0,79 4,0 1,-1 3,0 1,-1 4,0 1,-1 19,0 0,-2 1,-1 1,-1 1,0 0,-1 1,-1 1,0 1,-1 1,-1 1,-1 1,-1 1,-1 1,-1 1,-1 3,-3 1,-1 1,-1 1,-1 1,-1 1,-1 1,-1 0,-1 1,-1 1,-1 1,-1 1,-1 0,-1 1,-1 0,-1 1,-1 1,-1 0,-1 1,-1 0,-1 1,-1 0,-1 1,-1 -1,-1 0,0 -1,-1 -1,0 -1,-1 -2,0 -1,-1 -2,0 -1,-1 -1,0 -1,-1 -2,0 -1,-1 -3,0 -1,-1 -2,0 -1,-1 -2,0 -1,-1 -2,0 -1,-1 -2,0 -1,-1 -1,0 -1,-1 -1,0 -1,-1 -1,0 -1,-1 -1,0 -1,-1 -1,-1 -1,0 -1,-1 -1,-1 -1,-1 -1,0 -1,-1 -1,-1 -1,-1 -1,-1 -1,-1 -1,-1 -1,-1 -1,-1 -1,-1 -1,-1 -1,-1 -1,-1 0,-1 -1,-1 -1,-1 -1,-1 -1,-1 -1,-1 -1,-1 -1,1Z"/>
<path onmouseover="hoverPath(evt)" onmouseout="recoverPath(evt)" fill="rgb(253,253,252)" d="M  0,247l 0,1 3,0 1,-1 1,0 1,-1 3,0 1,-1 4,0 1,-1 38,0 1,1 5,0 1,1 3,0 1,1 4,0 1,1 4,0 1,1 3,0 1,1 3,0 1,1 3,0 1,1 4,0 1,1 0,2 12,0 0,-1 -3,0 -1,-1 -3,0 -1,-1 -4,0 -1,-1 -3,0 -1,-1 -3,0 -1,-1 -3,0 -1,-1 -4,0 -1,-1 -3,0 -1,-1 -3,0 -1,-1 -5,0 -1,-1 -5,0 -1,-1 -9,0 -1,-1 -8,0 -1,1 -19,0 -1,1 -4,0 -1,1 -3,0 -1,1 -4,0 -1,1Z"/>
<path onmouseover="hoverPath(evt)" onmouseout="recoverPath(evt)" fill="rgb(244,243,235)" d="M  0,41l 0,26 2,0 1,-1 4,0 1,-1 8,0 1,-1 8,0 1,-1 7,0 1,-1 18,0 2,-2 1,0 0,-2 1,-1 1,-1 1,-1 0,-1 1,-1 1,-1 0,-1 1,-1 1,-1 1,-1 0,-1 1,-1 1,-1 1,-1 1,-1 0,-2 1,-1 1,0 0,-4 -1,-1 0,-5 -1,-1 0,-6 -1,-1 0,-5 -1,-1 0,-6 -1,-1 0,-3 -3,0 -1,1 -2,0 -1,1 -2,0 -1,1 -2,0 -1,1 -3,0 -1,1 -2,0 -1,1 -2,0 -1,1 -1,0 -1,1 -1,0 -1,1 -1,0 -1,1 -1,1 -1,0 -1,1 -1,1 -1,0 -1,1 -1,1 -1,0 -1,1 0,2 -1,1 -1,1 -1,0 -2,2 -4,0 -1,1 -1,1 -1,0 -1,1 -1,1 -1,0 -1,1 0,2 -1,1 -1,1 -4,0 -1,1 -1,1 -2,0Z"/>
<path onmouseover="hoverPath(evt)" onmouseout="recoverPath(evt)" fill="rgb(244,243,236)" d="M  2,119l -2,0 0,31 1,0 1,1 1,1 1,1 1,1 1,1 0,1 1,1 1,1 1,1 1,1 1,1 1,1 1,1 2,2 1,1 0,1 1,1 1,1 1,1 1,1 1,1 1,1 1,1 1,1 1,0 1,1 1,1 1,1 1,0 1,1 1,1 1,0 1,1 1,1 1,0 1,1 1,0 1,1 1,0 1,1 2,0 1,1 2,0 1,1 2,0 1,1 3,0 1,1 1,0 1,1 2,0 1,1 2,0 1,1 2,0 1,1 2,0 1,1 1,0 1,1 1,0 1,1 2,0 1,1 1,0 1,1 1,0 1,1 2,0 1,1 1,0 1,1 1,0 1,1 1,0 1,1 1,0 1,1 2,0 1,1 1,0 1,1 1,0 1,1 1,0 1,1 1,0 1,1 1,0 1,1 1,0 1,1 2,0 1,1 1,0 1,1 1,0 1,1 1,1 1,0 1,1 1,0 1,1 1,0 1,1 1,0 1,1 1,0 1,1 1,0 1,1 1,0 1,1 1,0 1,1 1,0 1,1 2,0 1,1 1,0 1,1 2,0 1,1 1,0 1,1 2,0 1,1 1,0 1,1 2,0 1,1 2,0 1,1 1,0 1,1 3,0 1,1 3,0 1,1 3,0 1,1 2,0 1,1 2,0 1,1 2,0 1,1 3,0 1,1 2,0 1,1 2,0 1,1 2,0 1,1 2,0 1,1 2,0 1,1 2,0 1,1 2,0 1,1 1,0 1,1 1,0 1,1 1,0 1,1 1,0 1,1 1,0 1,1 2,0 1,1 2,0 1,1 0,1 40,0 0,-152 -114,0 -1,1 -71,0 -1,-1 -28,0 -1,1 -5,0 0,5 -1,1 -12,0 -1,-1 -1,1 -1,0 -1,1 -4,0 0,2 -1,1 -1,0 -1,1 -1,0 -1,1 -3,0 0,1 -1,1 -1,0 -1,1Z"/>
<path onmouseover="hoverPath(evt)" onmouseout="recoverPath(evt)" fill="rgb(181,200,221)" d="M  10,112l 1,0 0,-2 1,-1 4,0 1,-1 1,0 1,-1 2,0 1,1 10,0 0,-4 -1,-1 0,-2 -5,0 -1,1 -9,0 -1,-1 -1,0 -1,1 -13,0 0,15 1,0 1,-1 1,0 0,-1 1,-1 3,0 1,-1 1,0 1,-1Z"/>
<path onmouseover="hoverPath(evt)" onmouseout="recoverPath(evt)" fill="rgb(176,196,223)" d="M  37,82l -2,2 -1,0 0,1 -1,1 -1,0 -1,1 -1,0 -1,1 -1,1 -1,0 0,1 -1,1 -2,0 -1,1 -1,1 -1,0 -1,1 2,0 1,1 10,0 1,-1 9,0 1,1 1,0 0,-2 1,-1 2,0 0,-3 1,-1 2,0 1,-1 3,0 1,-1 5,0 0,-2 -1,-1 0,-1 -1,0 -1,-1 0,-2 1,-1 0,-1 1,-1 1,-1 0,-1 1,-1 0,-1 1,-1 0,-1 -14,0 0,1 -1,1 -1,1 -4,0 -1,1 0,3 -1,1 0,1 -1,1 -1,0 -2,2Z"/>
<path onmouseover="hoverPath(evt)" onmouseout="recoverPath(evt)" fill="rgb(241,230,139)" d="M  46,97l -3,0 -1,-1 -7,0 -1,1 -12,0 -1,-1 -2,0 -1,-1 -14,0 -1,1 -3,0 0,4 12,0 1,-1 3,0 1,1 7,0 1,-1 7,0 1,1 0,2 5,0 1,-1 30,0 1,1 69,0 1,-1 115,0 0,-6 -112,0 -1,1 -10,0 -1,1 -4,0 -1,-1 -66,0 -1,-1 -2,0 -2,2Z"/>
<path onmouseover="hoverPath(evt)" onmouseout="recoverPath(evt)" fill="rgb(244,243,235)" d="M  52,90l -2,0 0,3 -1,1 -2,0 0,1 7,0 1,-1 0,0 1,-1 4,0 1,1 66,0 1,1 2,0 0,-13 -1,-1 0,-5 1,-1 -3,0 -1,-1 -1,1 -7,0 -1,-1 -6,0 -1,-1 -10,0 -1,-1 -34,0 -1,1 0,1 -1,1 0,1 -2,2 0,1 -1,1 1,0 1,1 0,1 1,1 0,4 -1,1 -5,0 -1,1 -3,0 -1,1Z"/>
<path onmouseover="hoverPath(evt)" onmouseout="recoverPath(evt)" fill="rgb(250,250,247)" d="M  66,5l 0,-3 1,-1 1,0 0,-1 -6,0 0,2 -1,1 -1,0 -1,1 -2,0 -1,1 -3,0 -1,-1 -1,0 0,2 -1,1 -3,0 -1,1 -2,0 -1,1 -3,0 -1,1 -2,0 -1,-1 0,2 -1,1 -1,1 -1,0 -1,1 -1,1 -1,0 -1,1 -1,1 -1,0 -1,1 -1,1 -1,0 -1,1 -1,1 -4,0 -1,1 0,2 -1,1 -1,1 -1,0 -1,1 -1,1 -1,0 -1,1 -1,1 -4,0 -1,1 0,2 -1,1 -1,1 -2,0 0,2 1,0 1,-1 0,0 1,-1 4,0 1,-1 0,-2 1,-1 1,-1 1,0 1,-1 1,-1 1,0 1,-1 1,-1 4,0 1,-1 1,-1 1,0 1,-1 0,-2 1,-1 1,-1 1,0 1,-1 1,-1 1,0 1,-1 1,-1 1,0 1,-1 1,-1 1,0 1,-1 1,0 1,-1 1,0 1,-1 2,0 1,-1 2,0 1,-1 3,0 1,-1 2,0 1,-1 2,0 1,-1 2,0 1,-1 5,0 1,1Z"/>
<path onmouseover="hoverPath(evt)" onmouseout="recoverPath(evt)" fill="rgb(242,242,235)" d="M  70,2l 0,0 -1,1 -1,0 0,6 -1,1 0,5 1,1 0,5 1,1 0,6 1,1 0,5 1,1 0,4 1,0 0,-3 1,-1 1,0 0,-1 1,-1 1,-1 1,0 1,-1 1,-1 1,-1 1,0 1,-1 1,0 1,-1 1,0 1,-1 1,0 1,-1 1,0 1,-1 1,0 1,-1 1,0 1,-1 2,0 1,-1 1,-1 1,-1 1,0 1,-1 1,-1 3,0 1,-1 1,0 1,-1 2,0 1,-1 1,0 1,-1 1,0 1,-1 0,-1 1,-1 4,0 1,-1 1,-1 1,0 0,-1 1,-1 2,0 1,-1 1,0 1,-1 1,0 1,-1 1,0 1,-1 1,0 1,-1 1,0 0,-1 -66,0Z"/>
<path onmouseover="hoverPath(evt)" onmouseout="recoverPath(evt)" fill="rgb(244,243,235)" d="M  73,209l 0,0 -1,1 -1,1 -1,1 -1,1 -1,1 0,1 -1,1 -1,1 -1,1 -1,1 -1,1 -1,1 0,1 -4,4 -1,1 0,1 -1,1 -1,1 -1,1 -4,4 -1,1 -1,1 -1,1 0,1 -1,1 -1,0 0,1 9,0 1,1 5,0 1,1 5,0 1,1 3,0 1,1 3,0 1,1 4,0 1,1 3,0 1,1 3,0 1,1 3,0 1,1 4,0 1,1 3,0 1,1 3,0 1,1 0,2 92,0 0,-1 -1,0 -1,-1 -2,0 -1,-1 -1,0 -1,-1 -2,0 -1,-1 -1,0 -1,-1 -2,0 -1,-1 -2,0 -1,-1 -1,0 -1,-1 -2,0 -1,-1 -2,0 -1,-1 -2,0 -1,-1 -2,0 -1,-1 -2,0 -1,-1 -3,0 -1,-1 -2,0 -1,-1 -3,0 -1,-1 -2,0 -1,-1 -3,0 -1,-1 -1,0 -1,-1 -2,0 -1,-1 -2,0 -1,-1 -1,0 -1,-1 -2,0 -1,-1 -2,0 -1,-1 -1,0 -1,-1 -1,0 -1,-1 -1,0 -1,-1 -1,0 -1,-1 -1,0 -1,-1 -1,0 -1,-1 -1,-1 -1,0 -1,-1 -1,0 -1,-1 -1,0 -1,-1 -2,0 -1,-1 -2,0 -1,-1 -1,0 -1,-1 -2,0 -1,-1 -2,0 -1,-1 -1,0 -1,-1 -2,0 -1,-1 -1,0 -1,-1 -2,0 -1,-1 -1,0 -1,-1 -1,0 -1,-1 -2,0 -1,-1 -4,0 -1,1Z"/>
<path onmouseover="hoverPath(evt)" onmouseout="recoverPath(evt)" fill="rgb(242,231,138)" d="M  77,64l -2,0 0,1 -1,1 -3,0 -1,-1 -17,0 -1,-1 -17,0 -1,1 -7,0 -1,1 -8,0 -1,1 -8,0 -1,1 -4,0 -1,1 -3,0 0,6 1,0 1,-1 7,0 1,-1 6,0 1,-1 7,0 1,-1 8,0 1,-1 8,0 1,1 3,0 1,-1 0,-1 1,-1 16,0 1,1 0,1 35,0 1,1 10,0 1,1 6,0 1,1 5,0 1,-1 2,0 1,1 3,0 1,1 0,1 4,0 1,1 4,0 1,1 3,0 1,1 3,0 1,1 2,0 1,1 3,0 1,1 3,0 1,1 2,0 1,1 3,0 1,1 2,0 1,1 3,0 1,1 3,0 1,1 4,0 1,1 4,0 1,1 5,0 1,1 6,0 1,1 32,0 1,-1 10,0 1,-1 5,0 1,-1 3,0 0,-6 -2,0 -1,1 -5,0 -1,1 -9,0 -1,1 -35,0 -1,-1 -6,0 -1,-1 -5,0 -1,-1 -4,0 -1,-1 -4,0 -1,-1 -3,0 -1,-1 -2,0 -1,-1 -3,0 -1,-1 -2,0 -1,-1 -3,0 -1,-1 -3,0 -1,-1 -2,0 -1,-1 -3,0 -1,-1 -3,0 -1,-1 -3,0 -1,-1 -4,0 -1,-1 -4,0 -1,-1 -5,0 -1,-1 -6,0 -1,-1 -6,0 -1,-1 -12,0 -1,-1Z"/>
<path onmouseover="hoverPath(evt)" onmouseout="recoverPath(evt)" fill="rgb(244,243,236)" d="M  82,60l 0,2 16,0 1,1 12,0 1,1 6,0 1,1 6,0 1,1 5,0 1,1 4,0 1,1 4,0 1,1 3,0 1,1 3,0 1,1 3,0 1,1 2,0 1,1 3,0 1,1 3,0 1,1 2,0 1,1 3,0 1,1 2,0 1,1 3,0 1,1 4,0 1,1 4,0 1,1 5,0 1,1 6,0 1,1 33,0 1,-1 9,0 1,-1 5,0 1,-1 3,0 0,-80 -76,0 0,1 -1,1 -3,0 -1,1 -4,0 -1,1 -4,0 -1,1 -2,0 -1,1 -1,0 -1,1 -1,0 -1,1 -1,0 -1,1 -1,0 -1,1 -1,1 -1,0 -1,1 -1,0 -1,1 -1,1 -1,0 -1,1 -1,0 -1,1 -1,1 -1,0 -1,1 -1,0 -1,1 -1,1 -1,0 -1,1 -1,0 -1,1 -1,0 -1,1 -1,0 -1,1 -1,0 -1,1 -1,1 -1,0 -1,1 -1,0 -1,1 -3,0 -1,1 -1,0 -1,1 -1,0 -1,1 -1,0 -1,1 -1,0 -1,1 -1,0 -1,1 -1,0 -1,1 -1,0 -1,1 -1,1 -4,0 -1,1 -1,1 -1,0 -1,1 0,2 1,1 0,3 -1,1 -1,1 -1,0 0,1 -1,1 0,1 -2,2 -1,1 0,1 -1,1 -1,1 -1,0 -1,1 -1,1 -1,0 -1,1Z"/>
<path onmouseover="hoverPath(evt)" onmouseout="recoverPath(evt)" fill="rgb(168,193,228)" d="M  87,42l 2,0 0,-1 2,-2 2,0 1,-1 1,-1 1,0 2,-2 4,0 1,-1 1,-1 1,0 1,-1 1,0 1,-1 1,0 1,-1 1,0 1,-1 1,0 1,-1 1,0 1,-1 1,0 1,-1 3,0 1,-1 1,0 1,-1 1,0 1,-1 1,-1 1,0 1,-1 1,0 1,-1 1,0 1,-1 1,0 1,-1 1,0 1,-1 1,-1 1,0 1,-1 1,0 1,-1 1,-1 1,0 1,-1 1,0 2,-2 1,0 1,-1 1,0 1,-1 1,-1 1,0 1,-1 1,0 1,-1 1,0 1,-1 1,0 1,-1 2,0 1,-1 4,0 1,-1 4,0 1,-1 -36,0 0,2 -1,1 -1,0 -1,1 -1,0 -1,1 -1,0 -1,1 -1,0 -1,1 -1,0 -1,1 -2,0 0,1 -1,1 -1,0 -1,1 -1,1 -4,0 0,1 -1,1 -1,1 -1,0 -1,1 -1,0 -1,1 -2,0 -1,1 -1,0 -1,1 -3,0 -1,1 -1,1 -1,0 -1,1 -1,1 -1,1 -2,0 -1,1 -1,0 -1,1 -1,0 -1,1 -1,0 -1,1 -1,0 -1,1 -1,0 -1,1 -1,0 -1,1 -1,0 -1,1 -1,1 -1,1 -1,0 -1,1 0,1 -1,1 -1,0 0,3 -1,1 -2,0 -1,1 -1,0 0,2 -1,1 -2,2 -1,1 0,1 -1,1 -1,1 -1,1 0,1 -1,1 -1,1 0,1 -1,1 -2,2 0,2 -1,1 -1,0 -1,1 17,0 1,1 1,0 0,-5 1,-1 0,-2 1,-1 1,-1 1,-1 0,-1 1,-1 2,0 0,-2 1,-1 0,-1 1,-1 1,0 1,-1 0,-1 1,-1 1,0 1,-1Z"/>
<path onmouseover="hoverPath(evt)" onmouseout="recoverPath(evt)" fill="rgb(221,223,220)" d="M  84,48l -1,0 0,1 -1,1 0,2 -1,1 -2,0 0,1 -1,1 -2,2 0,2 -1,1 0,2 5,0 0,-4 1,-1 2,0 1,-1 1,-1 1,0 1,-1 0,-1 1,-1 1,-1 1,-1 0,-1 1,-1 0,-1 1,-1 1,0 1,-1 0,-1 -1,-1 0,-2 -1,0 -1,1 0,1 -1,1 -2,0 -1,1 -1,0 0,1 -1,1 -1,1Z"/>
<path onmouseover="hoverPath(evt)" onmouseout="recoverPath(evt)" fill="rgb(234,235,228)" d="M  87,254l -2,0 -1,-1 -3,0 -1,-1 -3,0 -1,-1 -3,0 -1,-1 -4,0 -1,-1 -4,0 -1,-1 -3,0 -1,-1 -5,0 -1,-1 -36,0 -1,1 -4,0 -1,1 -3,0 -1,1 -1,0 -1,1 -4,0 0,5 86,0 1,-1 1,1 1,0 0,-1 -1,0 0,1 -1,-1Z"/>
<path onmouseover="hoverPath(evt)" onmouseout="recoverPath(evt)" fill="rgb(244,243,235)" d="M  133,77l -2,0 0,3 1,1 0,13 9,0 1,-1 113,0 0,-3 -2,0 -1,1 -5,0 -1,1 -10,0 -103,-15 67,15 -6,0 -1,-1 -5,0 -1,-1 -4,0 -1,-1 -4,0 -1,-1 -3,0 -1,-1 -3,0 -1,-1 -2,0 -1,-1 -3,0 -1,-1 -2,0 -1,-1 -3,0 -1,-1 -3,0 -1,-1 -2,0 -1,-1 -3,0 -1,-1 -3,0 -1,-1 -4,0 -1,-1 -1,0 66,15 -67,-15Z"/>
</svg>