<svg width="256" height="256" xmlns="http://www.w3.org/2000/svg"><script> 
var tempColor;
function hoverPath(evt){
obj = evt.target;
tempColor = obj.getAttribute("fill");
obj.setAttribute("fill","red");
//alert(tempColor);
//obj.setAttribute("stroke","red");}
function recoverPath(evt){
obj = evt.target;
obj.setAttribute("fill", tempColor);
//obj.setAttribute("stroke", tempColor);
}</script><path onmouseover="hoverPath(evt)" onmouseout="recoverPath(evt)" fill="rgb(170,198,237)" d="M  0,244l 0,3 16,0 1,1 21,0 0,-1 1,-1 0,-1 -8,0 -1,-1 -15,0 -1,-1 -13,0 -1,1Z"/>
<path onmouseover="hoverPath(evt)" onmouseout="recoverPath(evt)" fill="rgb(244,243,235)" d="M  75,203l 0,0 -1,1 -1,0 -1,1 0,1 -1,1 -1,1 0,1 -1,1 0,2 -1,1 -1,0 0,2 -1,1 -1,0 0,1 -1,1 -1,1 0,1 -1,1 -1,1 0,1 -1,1 -1,1 0,1 -1,1 -1,1 0,1 -1,1 0,1 -1,1 -1,1 0,1 -1,1 -1,1 0,1 -1,1 -1,1 0,1 -2,2 -1,1 0,1 1,0 1,-1 10,0 1,1 2,0 1,-1 3,0 1,1 4,0 1,1 1,-1 1,0 1,-1 1,-1 1,-1 1,-1 1,-1 1,-1 1,-1 1,-1 0,-1 1,-1 0,-1 1,-1 0,-2 1,-1 0,-1 1,-1 1,-1 1,-1 1,-1 1,-1 2,0 1,-1 2,0 1,-1 3,0 1,-1 1,0 1,-1 1,0 1,-1 1,-1 1,-1 0,-2 1,-1 0,-4 -1,-1 0,-1 -1,-1 0,-1 -1,-1 0,-7 1,-1 0,-2 1,-1 1,-1 1,-1 1,-1 1,-1 1,-1 1,-1 0,-1 1,-1 0,-3 1,-1 0,-15 1,-1 0,-1 1,-1 0,-2 -1,-1 -1,0 -1,-1 -3,0 -1,-1 -2,0 -1,-1 -1,0 -1,-1 0,-1 -1,2 0,0 -1,1 0,1 -1,1 -1,1 0,1 -1,1 -1,1 0,1 -1,1 -1,1 0,1 -1,1 -1,1 0,1 -1,1 0,1 -1,1 -1,1 0,1 -1,1 -1,1 0,1 -1,1 -1,1 0,1 -1,1 0,1 -1,1 -1,1 0,1 -1,1 -1,1 0,1 -1,1 0,1 -1,1 -1,1 0,1 -1,1 0,1 -1,1 -1,1 0,2 -1,1Z"/>
<path onmouseover="hoverPath(evt)" onmouseout="recoverPath(evt)" fill="rgb(243,242,235)" d="M  101,44l 0,0 1,1 0,1 2,0 1,1 1,1 1,0 1,1 1,1 1,1 1,1 1,0 1,1 1,1 1,0 1,1 1,1 2,0 1,1 1,0 1,1 1,0 1,1 2,0 1,1 1,0 1,1 2,0 1,1 2,0 1,1 3,0 1,1 2,0 1,1 1,0 1,1 1,0 1,1 1,0 1,1 1,1 1,0 1,1 1,1 1,1 1,1 1,1 1,1 1,1 1,1 0,1 1,1 1,1 1,1 1,0 1,1 1,1 1,0 1,1 17,0 1,1 1,1 1,1 0,1 1,1 0,3 1,1 1,-1 0,-1 1,-1 2,-2 12,0 0,-1 -1,-1 0,-5 -1,-1 0,-6 -1,-1 0,-6 -1,-1 0,-5 -1,-1 0,-5 -1,-1 0,-3 -1,-1 0,-5 -1,-1 0,-5 -1,-1 0,-6 -1,-1 0,-9 -1,-1 0,-10 -1,-1 0,-10 -169,0 0,2 1,1 1,0 1,1 1,0 1,1 2,0 1,1 4,0 1,1 1,0 1,1 1,0 1,1 1,0 1,1 1,0 1,1 1,0 1,1 1,1 1,0 1,1 1,0 1,1 1,1 1,0 1,1 1,0 1,1 1,1 1,0 1,1 1,0 1,1 1,0 1,1 1,1 1,0 1,1 1,0 1,1 1,0 1,1 1,1 1,0 1,1 0,1 1,1 1,1 1,0 1,1 1,1 1,1 1,0 1,1 0,1 2,0 1,-1 1,-1 1,-1 0,-1 1,-1 5,0 1,1 0,4 1,1 1,1 0,3 1,1 1,0 1,1 1,0 1,1Z"/>
<path onmouseover="hoverPath(evt)" onmouseout="recoverPath(evt)" fill="rgb(244,243,236)" d="M  156,88l -1,0 -1,1 -1,1 -1,1 -1,1 0,1 -1,1 0,13 -1,1 0,1 -1,1 -1,1 0,1 -1,1 0,1 -1,1 -1,1 0,1 -1,1 -1,1 0,1 -1,1 0,3 -1,1 0,4 1,1 2,0 1,1 0,1 1,1 1,0 1,1 1,0 1,1 2,0 1,1 0,2 3,0 1,1 3,0 1,1 2,0 1,1 2,0 1,1 2,0 1,1 2,0 1,1 2,0 1,-1 7,0 1,1 2,0 1,1 2,0 1,1 2,0 1,1 1,0 1,1 2,0 1,1 0,2 2,0 1,1 3,0 1,1 3,0 1,1 2,0 1,-1 3,0 0,-5 -1,-1 0,-5 -1,-1 0,-5 -1,-1 0,-5 -1,-1 0,-4 -1,-1 0,-6 -1,-1 0,-5 -1,-1 0,-5 -1,-1 0,-6 -1,-1 0,-4 -8,0 -1,1 -1,0 0,1 -1,1 -1,1 -1,1 -2,0 -1,1 -6,0 -1,-1 -1,0 -1,-1 0,-2 -1,-1 0,-3 -1,-1 -7,0 -1,1 -3,0 -1,-1 -2,0 -1,-1 -1,0 -1,-1 -2,0 -1,-1Z"/>
<path onmouseover="hoverPath(evt)" onmouseout="recoverPath(evt)" fill="rgb(244,243,235)" d="M  0,1l 0,53 25,0 1,-1 44,0 1,1 0,3 9,0 0,-4 -4,0 -1,-1 0,-2 -1,-1 0,-3 1,-1 0,-5 -1,-1 -1,-1 -1,-1 -1,-1 -1,-1 -1,-1 -1,-1 -1,0 -1,-1 -1,-1 -1,0 -1,-1 -1,0 -1,-1 -1,0 -1,-1 -1,-1 -1,0 -1,-1 -1,0 -1,-1 -1,0 -1,-1 -1,-1 -1,0 -1,-1 -1,0 -1,-1 -1,0 -1,-1 -1,-1 -1,0 -1,-1 -1,0 -1,-1 -1,0 -1,-1 -1,0 -1,-1 -1,0 -1,-1 -1,0 -1,-1 -2,0 -1,-1 -2,0 -1,-1 -3,0 -1,-1 -3,0 -1,-1 -1,0 -1,-1 -1,-1 -1,-1 0,-6 -13,0 -1,1Z"/>
<path onmouseover="hoverPath(evt)" onmouseout="recoverPath(evt)" fill="rgb(243,242,233)" d="M  0,197l 0,12 5,0 1,-1 5,0 1,-1 5,0 1,-1 4,0 1,-1 4,0 1,-1 5,0 1,-1 0,-1 -2,0 -1,-1 0,-3 1,-1 0,-1 -1,-1 0,-3 -1,-1 0,-3 -1,-1 0,-4 -1,-1 0,-3 -1,-1 0,-4 -1,-1 0,-2 -1,-1 0,-4 -1,-1 0,-3 -1,-1 0,-4 -1,-1 0,-2 -1,-1 0,-1 -4,0 -1,1 -2,0 -1,1 -1,0 -1,1 -11,0Z"/>
<path onmouseover="hoverPath(evt)" onmouseout="recoverPath(evt)" fill="rgb(243,242,233)" d="M  0,217l 0,24 15,0 1,1 15,0 1,1 9,0 1,-1 0,-1 1,-1 1,-1 0,-1 1,-1 1,-1 1,-1 0,-1 1,-1 0,-1 1,-1 1,-1 0,-1 1,-1 0,-1 1,-1 1,-1 0,-1 1,-1 1,-1 0,-1 1,-1 1,-1 0,-1 1,-1 1,-1 0,-1 1,-1 1,-1 0,-1 1,-1 1,-1 0,-1 1,-1 0,-1 1,-1 1,-1 0,-1 1,-1 -2,0 -1,1 -6,0 -1,1 -5,0 -1,1 -4,0 -1,1 -3,0 -1,1 -4,0 -1,1 -6,0 -1,1 -4,0 -1,1 -5,0 -1,1 -5,0 -1,1 -5,0 -1,1 -4,0 -1,1 -2,0Z"/>
<path onmouseover="hoverPath(evt)" onmouseout="recoverPath(evt)" fill="rgb(170,198,238)" d="M  16,1l 0,4 1,1 1,1 1,0 1,1 3,0 1,1 3,0 1,1 2,0 1,1 2,0 1,1 1,0 1,1 1,0 1,1 1,0 1,1 1,0 1,1 1,0 1,1 1,0 1,1 1,1 1,0 1,1 1,0 1,1 1,0 1,1 1,1 1,0 1,1 1,0 1,1 1,0 1,1 1,1 1,0 1,1 1,0 1,1 1,0 1,1 1,1 1,0 1,1 1,1 1,1 1,1 1,1 1,1 1,1 1,1 1,0 1,-1 0,-2 -1,0 -1,-1 -1,-1 -1,-1 -1,0 -1,-1 -1,-1 -1,-1 0,-1 -1,0 -1,-1 -1,-1 -1,0 -1,-1 -1,0 -1,-1 -1,0 -1,-1 -1,-1 -1,0 -1,-1 -1,0 -1,-1 -1,0 -1,-1 -1,-1 -1,0 -1,-1 -1,0 -1,-1 -1,-1 -1,0 -1,-1 -1,0 -1,-1 -1,-1 -1,0 -1,-1 -1,0 -1,-1 -1,0 -1,-1 -1,0 -1,-1 -1,0 -1,-1 -4,0 -1,-1 -2,0 -1,-1 -1,0 -1,-1 -1,0 -1,-1 -1,-1 0,-3 -4,0 -1,1Z"/>
<path onmouseover="hoverPath(evt)" onmouseout="recoverPath(evt)" fill="rgb(171,198,237)" d="M  39,104l -2,0 0,1 1,1 0,0 1,1 0,1 1,1 1,1 1,1 0,1 1,1 1,1 1,1 0,1 1,1 1,1 1,1 1,1 1,1 1,1 1,1 1,1 1,0 1,1 1,1 1,0 1,1 1,1 1,0 1,1 1,1 1,0 1,1 0,1 2,0 1,1 1,1 1,0 1,1 1,0 1,1 1,0 1,1 1,0 1,1 1,0 1,1 1,0 1,1 1,0 1,1 1,1 1,0 1,1 1,1 1,1 1,0 1,1 1,1 1,0 1,1 1,1 1,0 1,1 2,0 1,1 2,0 0,-1 1,-1 -1,0 -1,-1 -1,0 -1,-1 -1,0 -1,-1 -1,0 -1,-1 -1,-1 -1,-1 -1,0 -1,-1 -1,-1 -1,0 -1,-1 -1,0 -1,-1 -1,-1 -1,0 -1,-1 -1,0 -1,-1 -1,0 -1,-1 -1,-1 -1,0 -1,-1 -1,0 -1,-1 -1,0 -1,-1 -1,-1 -1,0 -1,-1 -1,-1 -1,0 -1,-1 -1,-1 -1,0 -1,-1 -1,-1 -1,0 -1,-1 -1,0 -1,-1 -1,-1 -1,0 -1,-1 -1,-1 -1,-1 -1,-1 0,-1 -1,-1 -1,-1 0,-1 -1,-1 -1,-1 0,-1 -1,-1 0,-1 -1,-1 -1,-1 0,-1 -1,-1 -1,-1 0,-1 -1,0 0,1 -1,1Z"/>
<path onmouseover="hoverPath(evt)" onmouseout="recoverPath(evt)" fill="rgb(244,243,236)" d="M  96,229l 0,0 -1,1 -2,2 0,1 -2,2 0,2 -1,1 0,1 -1,1 -1,1 0,1 -1,1 -1,1 -1,1 -1,1 -2,2 -1,1 -1,1 0,1 -1,1 0,3 152,0 0,-5 -1,-1 0,-5 -1,-1 0,-5 -1,-1 0,-3 -1,-1 0,-5 -1,-1 0,-5 -1,-1 0,-5 -1,-1 0,-5 -1,-1 0,-6 -3,0 -1,-1 -2,0 -1,-1 -1,-1 -1,-1 0,-5 1,-1 0,-1 1,-1 1,0 1,-1 1,0 1,-1 0,-2 -1,-1 0,-7 -1,-1 0,-5 -1,-1 0,-5 -1,-1 0,-6 1,-1 -1,-1 -2,0 -1,-1 -2,0 -1,-1 -3,0 -1,-1 -3,0 -1,-1 -3,0 -1,-1 -2,0 -1,-1 0,-2 -2,0 -1,-1 -1,0 -1,-1 -2,0 -1,-1 -2,0 -1,-1 -2,0 -1,-1 -5,0 -1,1 -4,0 -1,-1 -2,0 -1,-1 -2,0 -1,-1 -2,0 -1,-1 -2,0 -1,-1 -3,0 -1,-1 -3,0 -1,-1 0,-2 -1,0 -1,1 -3,0 -1,-1 -1,0 -1,-1 -1,-1 -1,0 -1,-1 0,2 -1,1 0,1 -1,1 0,2 -1,1 0,1 -1,1 0,1 -1,1 0,1 -1,1 0,1 -1,1 0,1 -1,1 0,2 -1,1 0,1 -1,1 0,2 -2,2 0,1 -1,1 -1,1 -1,1 -1,1 0,1 -1,1 0,9 1,1 0,3 1,1 0,4 -1,1 0,2 -1,1 -1,1 -1,1 -1,1 -1,0 -1,1 -1,0 -1,1 -1,1 -1,1 0,2 -1,1 1,1 0,3 1,1 0,2 1,1 0,10 -1,1 -1,1 -1,1 -1,1 0,1 -1,1 -1,0 -1,1 -1,1 -3,0 -1,1 -4,0 -1,1 -1,0 -1,1Z"/>
<path onmouseover="hoverPath(evt)" onmouseout="recoverPath(evt)" fill="rgb(248,233,132)" d="M  195,0l -1,0 0,9 1,1 0,10 1,1 0,9 1,1 0,6 1,1 0,5 1,1 0,5 1,1 0,3 1,1 0,5 1,1 0,5 1,1 0,6 1,1 0,6 1,1 0,5 1,1 0,2 1,0 1,1 0,4 -1,1 0,3 1,1 0,6 1,1 0,5 1,1 0,5 1,1 0,6 1,1 0,4 1,1 0,5 1,1 0,5 1,1 0,5 1,1 0,7 -1,1 0,1 2,0 1,1 1,1 0,2 -1,1 0,4 1,1 0,5 1,1 0,5 1,1 0,7 1,1 0,4 -1,1 -1,1 -1,0 -1,1 -1,0 0,1 -1,1 0,3 1,1 0,0 1,1 2,0 1,1 3,0 1,1 0,6 1,1 0,5 1,1 0,5 1,1 0,5 1,1 0,5 1,1 0,3 1,1 0,5 1,1 0,5 1,1 0,6 10,0 0,-6 -1,-1 0,-5 -1,-1 0,-5 -1,-1 0,-4 -1,-1 0,-5 -1,-1 0,-5 -1,-1 0,-5 -1,-1 0,-5 -1,-1 0,-5 -1,-1 0,-4 -1,-1 0,-7 1,-1 -1,0 -1,-1 0,-3 -1,-1 0,-6 -2,0 -1,-1 0,-12 1,-1 0,-3 1,-1 -2,0 -1,-1 0,-5 -1,-1 0,-5 -1,-1 0,-5 -1,-1 0,-5 -1,-1 0,-5 -1,-1 0,-6 -1,-1 0,-3 -1,-1 0,-5 -1,0 -1,-1 0,-8 1,-1 0,-1 1,-1 -2,1 -1,0 -1,-1 0,-3 1,-1 0,-5 1,-1 1,0 1,-1 1,0 0,-1 -4,0 -1,-1 -1,-1 0,-5 -1,-1 0,-6 -1,-1 0,-13 1,-1 -1,-1 0,-1 -2,0 -1,-1 0,-2 1,-1 4,0 1,-1 2,0 1,-1 1,-1 1,0 1,-1 2,0 1,-1 2,0 1,-1 3,0 1,-1 2,0 1,-1 2,0 1,-1 3,0 1,-1 2,0 1,-1 4,0 1,1 1,0 0,-2 1,-1 3,0 0,-8 -3,0 -1,1 -3,0 -1,1 -1,0 -1,1 -2,0 -1,1 -3,0 -1,1 -2,0 -1,1 -2,0 -1,1 -2,0 -1,1 -3,0 -1,1 -2,0 -1,1 -2,0 -1,1 -2,0 -1,1 -2,0 -1,1 -3,0 -1,-1 -1,-1 0,-4 -1,-1 0,-6 -1,-1 0,-9 -1,-1 0,-10 -1,-1 0,-10 -9,0 19,155 0,0 -19,-155 50,188 1,0 1,-1 6,0 1,1 1,0 0,-2 -1,0Z"/>
<path onmouseover="hoverPath(evt)" onmouseout="recoverPath(evt)" fill="rgb(245,244,237)" d="M  206,1l 0,8 1,1 0,10 1,1 0,9 1,1 0,6 1,1 0,4 1,1 1,0 1,-1 2,0 1,-1 2,0 1,-1 2,0 1,-1 2,0 1,-1 3,0 1,-1 2,0 1,-1 2,0 1,-1 2,0 1,-1 3,0 1,-1 2,0 1,-1 1,0 1,-1 3,0 1,-1 4,0 0,-30 -48,0 -1,1Z"/>
<path onmouseover="hoverPath(evt)" onmouseout="recoverPath(evt)" fill="rgb(243,241,233)" d="M  228,60l 0,0 -1,1 0,6 1,1 1,1 0,3 1,1 0,2 1,1 1,1 0,4 -1,1 -3,0 0,1 1,1 0,3 3,0 1,-1 2,0 1,1 0,1 1,1 0,1 1,1 0,1 1,1 3,0 1,-1 4,0 1,1 0,2 -1,1 -2,0 -1,1 -1,0 -1,1 -1,0 0,1 -1,1 0,1 1,1 0,2 2,0 1,1 0,1 4,0 1,-1 6,0 0,-54 -5,0 -1,1 -3,0 -1,1 -2,0 -1,1 -2,0 -1,1 -2,0 -1,1 -3,0 -1,1 -1,0 -1,1 -1,0 -1,1Z"/>
<path onmouseover="hoverPath(evt)" onmouseout="recoverPath(evt)" fill="rgb(243,242,234)" d="M  235,193l 0,2 1,1 0,4 1,1 0,5 1,1 0,5 1,1 0,5 1,1 0,5 1,1 0,5 1,1 0,4 1,1 0,5 1,1 0,5 1,1 0,7 10,0 0,-65 -2,0 -1,-1 -4,0 -1,1 -12,0Z"/>
<path onmouseover="hoverPath(evt)" onmouseout="recoverPath(evt)" fill="rgb(243,241,232)" d="M  243,108l 0,0 -1,-1 0,-1 -9,0 0,4 1,1 0,4 1,1 0,7 1,1 0,2 1,-1 2,0 1,1 0,17 1,1 0,2 1,1 0,1 1,0 1,1 1,-1 6,0 1,1 3,0 0,-42 -5,0 -1,1Z"/>
<path onmouseover="hoverPath(evt)" onmouseout="recoverPath(evt)" fill="rgb(244,243,235)" d="M  0,250l 0,5 36,0 0,-2 1,-1 0,-2 -21,0 -1,-1 -14,0 -1,1Z"/>
<path onmouseover="hoverPath(evt)" onmouseout="recoverPath(evt)" fill="rgb(241,240,232)" d="M  22,121l -3,0 -1,-1 -14,0 -1,1 -3,0 0,29 1,0 1,-1 2,0 1,-1 14,0 1,-1 0,-3 -1,-1 0,-4 -1,-1 0,-4 -1,-1 0,-5 1,-1 3,0 1,1 0,3 1,1 0,4 1,1 0,3 1,0 1,1 1,0 1,1 8,0 1,1 0,1 1,1 0,-3 1,-1 1,0 1,-1 5,0 1,-1 5,0 1,-1 9,0 -1,-1 0,-2 1,-1 0,-2 -1,0 -1,-1 -1,-1 -1,0 -1,-1 -1,-1 -1,0 -1,-1 -1,-1 -1,0 -1,-1 -1,-1 -1,-1 -1,-1 -1,-1 -1,-1 -1,-1 -1,-1 -1,-1 0,-1 -1,-1 -1,-1 -1,-1 0,-1 -1,-1 -1,-1 -1,-1 0,-1 -1,-1 -1,-1 0,-2 -2,0 -1,1 -1,0 0,3 -1,1 -1,0 -1,1 -2,0 0,6 -1,1 0,3 -1,1Z"/>
<path onmouseover="hoverPath(evt)" onmouseout="recoverPath(evt)" fill="rgb(190,203,220)" d="M  26,100l -1,0 0,3 -1,1 0,2 -1,1 -1,0 -1,1 -11,0 -1,1 -1,0 -1,1 -1,1 -1,1 0,2 -1,1 -4,0 0,4 2,0 1,-1 16,0 1,1 3,0 0,-3 1,-1 0,-6 1,-1 2,0 1,-1 1,0 0,-3 1,-1 1,0 1,-1 6,0 0,-1 1,-1 1,0 -2,-1 0,-1 -1,-1 -4,0 -1,1 -2,0 -1,1 -1,0 -1,1Z"/>
<path onmouseover="hoverPath(evt)" onmouseout="recoverPath(evt)" fill="rgb(244,243,235)" d="M  45,249l -1,0 0,1 -1,1 0,1 -1,1 0,2 27,0 0,-4 -1,-1 -17,0 -1,-1Z"/>
<path onmouseover="hoverPath(evt)" onmouseout="recoverPath(evt)" fill="rgb(170,198,237)" d="M  47,246l -1,0 0,1 5,0 1,1 17,0 1,1 1,1 0,5 6,0 0,-4 1,-1 0,-1 1,-1 2,-2 1,-1 1,-1 1,-1 1,-1 1,-1 0,-1 1,-1 1,-1 0,-1 1,-1 0,-2 1,-1 1,-1 0,-1 1,-1 3,-3 1,-1 1,0 1,-1 4,0 1,-1 3,0 1,-1 1,-1 1,0 0,-1 1,-1 3,-3 0,-8 -1,-1 0,-2 -1,-1 0,-3 -1,-1 0,-2 1,-1 0,-2 1,-1 1,-1 2,-2 1,0 1,-1 1,0 1,-1 1,-1 1,-1 0,-2 1,-1 0,-2 -1,-1 0,-3 -1,-1 0,-11 1,-1 0,-1 2,-2 1,-1 1,-1 0,-1 1,-1 1,-1 0,-2 1,-1 0,-1 1,-1 0,-2 1,-1 0,-1 1,-1 0,-1 1,-1 0,-1 1,-1 0,-1 1,-1 0,-1 1,-1 0,-2 1,-1 0,-1 1,-1 0,-1 -1,0 -1,-1 -1,0 -1,1 0,2 -1,1 0,1 -1,1 0,1 -1,1 0,1 -1,1 0,1 -1,1 0,1 -1,1 0,1 -1,1 0,2 -1,1 0,1 -1,1 -1,1 -1,1 -3,0 -1,-1 -3,0 -1,-1 -2,0 -1,-1 -2,0 -1,-1 -1,0 -1,1 0,2 1,0 1,1 2,0 1,1 3,0 1,1 1,0 1,1 1,1 0,4 -1,1 0,1 -1,1 0,15 -1,1 0,3 -1,1 0,1 -1,1 -1,1 -1,1 -1,1 -1,1 -1,1 -1,1 0,2 -1,1 0,5 1,1 0,1 1,1 0,1 1,1 0,6 -1,1 0,2 -1,1 -1,1 -1,1 -1,1 -1,0 -1,1 -1,0 -1,1 -3,0 -1,1 -2,0 -1,1 -2,0 -1,1 -1,1 -1,1 -1,1 0,1 -1,1 0,2 -1,1 0,1 -1,1 0,1 -1,1 -6,6 -1,1 -1,1 -1,0 -1,1 -2,0 -1,-1 -4,0 -1,-1 -1,0 -1,1 -4,0 -1,-1 -8,0 -1,1Z"/>
<path onmouseover="hoverPath(evt)" onmouseout="recoverPath(evt)" fill="rgb(243,242,235)" d="M  41,98l 1,1 0,1 1,1 0,1 1,1 1,1 0,1 1,1 1,1 0,1 1,1 0,1 1,1 1,1 0,1 1,1 1,1 0,1 1,1 1,1 1,1 1,0 1,1 1,1 1,0 1,1 1,0 1,1 1,1 1,0 1,1 1,1 1,0 1,1 1,1 1,0 1,1 1,1 1,0 1,1 1,0 1,1 1,0 1,1 1,1 1,0 1,1 1,0 1,1 1,0 1,1 1,1 1,0 1,1 1,0 1,1 1,1 1,0 1,1 1,1 1,1 1,0 1,1 1,0 1,1 1,0 1,1 2,0 1,-1 0,-1 1,-1 1,-1 0,-1 1,-1 1,-1 0,-1 1,-1 1,-1 0,-1 1,-1 0,-1 1,-1 1,-1 0,-1 1,-1 1,-1 0,-1 1,-1 0,-1 1,-1 1,-1 1,0 0,-1 1,-1 2,0 1,-1 -1,-1 0,-2 1,-1 2,0 1,-1 -1,-1 0,-2 1,-1 2,0 1,-1 -1,-1 0,-2 1,-1 2,0 1,-1 -1,-1 0,-2 1,-1 1,-1 1,-1 0,-1 1,-1 1,-1 0,-1 1,-1 1,-1 0,-1 1,-1 1,-1 0,-1 1,-1 3,0 1,-1 1,-1 1,-1 1,-1 0,-1 1,-1 0,-1 1,-1 0,-2 -1,-1 0,0 -1,-1 -1,0 -1,-1 -1,-1 -1,-1 -1,0 -1,-1 -1,0 -1,-1 -1,0 -1,-1 -2,0 -1,-1 -1,0 -1,-1 -1,0 -1,-1 -1,0 -1,-1 -2,0 -1,-1 -1,0 -1,-1 -1,0 -1,-1 -2,0 -1,-1 -3,0 -1,-1 -2,0 -1,-1 -1,0 -1,-1 -1,0 -1,-1 -1,-1 -1,0 -1,-1 -1,-1 -1,-1 -1,0 -1,-1 -1,-1 -1,0 -1,-1 0,-1 -3,0 -1,-1 -1,0 -1,-1 -1,0 -1,-1 -2,0 -1,-1 -1,-1 -2,0 -1,-1 -1,-1 0,-1 -4,0 -1,-1 0,4 -1,1 0,1 1,1 0,2 4,0 1,1 0,6 -1,1 -11,0 -1,-1 0,-3 -42,0 -1,1 -26,0 0,57 3,0 0,-2 1,-1 1,-1 1,-1 1,-1 1,0 1,-1 11,0 1,-1 1,0 0,-2 1,-1 0,-3 1,-1 2,0 1,-1 1,0 1,-1 2,0 1,-1 6,0 1,1 1,1 1,1Z"/>
<path onmouseover="hoverPath(evt)" onmouseout="recoverPath(evt)" fill="rgb(192,205,222)" d="M  87,44l 0,0 1,1 1,1 2,0 1,1 1,0 1,1 1,0 1,1 2,0 1,-1 1,-1 0,-1 -1,0 -1,-1 -1,0 -1,-1 -1,0 -1,-1 -1,-1 0,-3 -1,-1 -1,-1 0,-4 -3,0 0,1 -1,1 -1,1 -1,1 -1,1 -3,0 0,1 -1,1 -1,1 4,0 1,1 0,1 1,1Z"/>
<path onmouseover="hoverPath(evt)" onmouseout="recoverPath(evt)" fill="rgb(253,253,253)" d="M  120,126l -1,0 -1,1 0,1 -1,1 0,1 -1,1 -1,1 0,1 -1,1 -1,1 0,1 -1,1 0,1 -1,1 -1,1 0,1 -1,1 -1,1 0,1 -1,1 -1,1 0,1 -1,1 -1,1 -1,0 0,1 -1,1 0,1 -1,1 0,1 -1,1 0,1 -1,1 -1,1 0,1 -1,1 -1,1 0,1 -1,1 -1,1 0,1 -1,1 -1,1 0,1 -1,1 0,1 -1,1 -1,1 0,1 -1,1 -1,1 0,1 -1,1 -1,1 0,1 -1,1 -1,1 0,1 -1,1 0,1 -1,1 -1,1 0,1 -1,1 -1,1 0,1 -1,1 0,1 -1,1 -1,1 0,1 -1,1 0,1 -1,1 -1,1 -3,0 -1,1 -5,0 -1,1 -6,0 -1,1 -5,0 -1,1 -3,0 -1,1 -6,0 -1,-1 -1,-1 0,-1 -1,-1 0,-2 -1,-1 0,-3 -1,-1 0,-3 -1,-1 0,-3 -1,-1 0,-3 -1,-1 0,-4 -1,-1 0,-3 -1,-1 0,-4 -1,-1 0,-3 -1,-1 0,-3 -1,-1 0,-4 -1,-1 0,-3 -1,-1 0,-6 1,-1 1,0 -2,-1 -1,0 -1,-1 0,-3 -1,-1 0,-4 -1,-1 0,-3 -1,0 0,3 1,1 0,4 1,1 0,4 1,1 0,5 -1,1 -1,1 2,0 1,1 0,1 1,1 0,2 1,1 0,4 1,1 0,3 1,1 0,4 1,1 0,2 1,1 0,4 1,1 0,3 1,1 0,4 1,1 0,3 1,1 0,3 1,1 0,3 -1,1 0,1 2,0 1,1 0,3 -1,1 -1,1 -5,0 -1,1 -4,0 -1,1 -4,0 -1,1 -5,0 -1,1 -5,0 -1,1 -6,0 0,2 1,0 1,-1 4,0 1,-1 5,0 1,-1 5,0 1,-1 5,0 1,-1 4,0 1,-1 6,0 1,-1 4,0 1,-1 3,0 1,-1 4,0 1,-1 5,0 1,-1 6,0 1,-1 4,0 1,1 0,2 -1,1 0,1 -1,1 -1,1 0,1 -1,1 0,1 -1,1 -1,1 0,1 -1,1 -1,1 0,1 -1,1 -1,1 0,1 -1,1 -1,1 0,1 -1,1 -1,1 0,1 -2,2 0,1 -1,1 0,1 -1,1 -1,1 0,1 -1,1 0,1 -1,1 -1,1 -1,1 0,1 -1,1 -1,1 0,1 -1,1 -1,1 -1,0 0,2 -1,1 0,1 -1,1 0,3 -1,1 0,1 2,0 0,-3 1,-1 0,-1 1,-1 0,-1 1,-1 1,0 0,-2 1,-1 0,-2 1,-1 1,-1 1,-1 0,-1 1,-1 1,-1 0,-1 1,-1 1,-1 0,-1 1,-1 1,-1 0,-1 1,-1 0,-1 1,-1 1,-1 0,-1 1,-1 1,-1 0,-1 1,-1 1,-1 0,-1 1,-1 1,-1 0,-1 1,-1 1,0 0,-2 1,-1 1,0 0,-2 1,-1 0,-1 1,-1 1,-1 0,-1 1,-1 1,-1 1,0 0,-1 1,-1 0,-2 1,-1 1,-1 0,-1 1,-1 0,-1 2,-2 0,-1 1,-1 0,-1 1,-1 1,-1 0,-1 1,-1 1,-1 0,-1 1,-1 0,-1 2,-2 0,-1 1,-1 1,-1 0,-1 1,-1 1,-1 0,-1 1,-1 0,-1 1,-1 1,-1 0,-1 1,-1 1,-1 0,-1 1,-1 1,-1 0,-1 1,-1 1,-1 0,-1 1,-1 1,-1 0,-1 1,-1 1,0 0,-1 1,-1 1,-1 0,-2 1,-1 1,-1 0,-1 1,-1 1,-1 0,-1 1,-1 1,-1 0,-1 1,-1 0,-1 1,-1 1,-1 0,-1 1,-1 1,-1 0,-1 1,-1 2,-2 4,0 -3,-1 -1,-1 1,-1 0,-1 -103,26 -12,0 -1,1 -2,0 -1,1 -2,0 0,1 10,0 1,-1 1,0 1,-1 2,0 106,-26 -1,1Z"/>
<path onmouseover="hoverPath(evt)" onmouseout="recoverPath(evt)" fill="rgb(170,198,237)" d="M  123,62l 0,0 1,1 1,0 1,1 1,0 1,1 2,0 1,1 1,0 1,1 1,0 1,1 1,0 1,1 2,0 1,1 1,0 1,1 1,0 1,1 1,0 1,1 1,1 1,1 1,0 1,1 1,1 1,1 0,4 -1,1 0,1 -1,1 0,1 -1,1 -1,1 -3,3 0,1 -1,1 0,12 -1,1 0,2 -1,1 -1,1 -1,1 0,1 -1,1 -1,1 -1,1 0,1 -1,1 0,1 -1,1 0,4 -1,1 0,4 4,0 0,-4 1,-1 0,-3 1,-1 0,-1 1,-1 1,-1 0,-1 2,-2 0,-1 1,-1 0,-1 1,-1 1,-1 0,-1 1,-1 0,-13 1,-1 0,-1 1,-1 1,-1 1,-1 1,-1 1,-1 5,0 1,1 2,0 1,1 1,0 1,1 2,0 1,1 1,0 1,-1 9,0 1,1 1,1 0,3 1,1 0,2 1,0 1,1 4,0 1,-1 2,0 1,-1 1,-1 0,-1 1,-1 1,0 1,-1 10,0 0,-2 -13,0 -1,1 0,0 -1,1 0,1 -1,1 -1,1 -2,0 -1,-1 -1,-1 0,-3 -1,-1 0,-1 -1,-1 -1,-1 -17,0 -1,-1 -1,0 -1,-1 -1,-1 -1,0 -1,-1 -1,-1 -1,-1 -1,-1 0,-1 -1,-1 -1,-1 -1,-1 -1,-1 -1,-1 -1,-1 -1,-1 -1,0 -1,-1 -1,-1 -1,0 -1,-1 -1,0 -1,-1 -1,0 -1,-1 -2,0 -1,-1 -3,0 -1,-1 -2,0 -1,-1 -2,0 -1,-1 -1,0 -1,-1 -1,0 -1,1 -2,0 -1,-1 1,-1 0,0 -1,-1 -1,0 -1,-1 -2,0 -1,-1 -1,-1 -1,0 -1,-1 -1,-1 -1,0 -1,-1 -1,-1 -1,-1 -1,-1 -1,0 -1,-1 -1,-1 -1,0 -1,1 0,0 -1,1 0,1 1,0 1,1 1,1 1,0 1,1 1,1 1,1 1,0 1,1 1,1 1,0 1,1 1,0 1,1 2,0 1,1 2,0 3,1 1,0 -1,-2 0,0 1,2Z"/>
<path onmouseover="hoverPath(evt)" onmouseout="recoverPath(evt)" fill="rgb(243,242,232)" d="M  235,186l 9,0 1,-1 7,0 1,-1 2,0 0,-24 -3,0 -1,-1 -5,0 -1,-1 -5,0 -1,-1 -1,0 -1,-1 -1,-1 0,2 -1,1 0,1 -1,1 -2,0 -1,1 0,3 -1,1 0,10 2,0 1,1 0,6 1,1 0,2 1,1Z"/>
<path onmouseover="hoverPath(evt)" onmouseout="recoverPath(evt)" fill="rgb(243,242,233)" d="M  26,147l 0,2 1,1 0,3 1,1 0,4 1,1 0,3 1,1 0,3 1,1 0,4 1,1 0,3 1,1 0,4 1,1 0,3 1,1 0,3 1,1 0,3 1,1 0,3 1,1 0,2 1,1 0,1 1,1 4,0 1,-1 3,0 1,-1 5,0 1,-1 6,0 1,-1 5,0 1,-1 3,0 1,-1 0,-1 1,-1 0,-1 1,-1 1,-1 0,-1 1,-1 0,-1 1,-1 1,-1 0,-1 1,-1 1,-1 0,-1 1,-1 0,-1 1,-1 1,-1 0,-1 1,-1 1,-1 0,-1 1,-1 1,-1 0,-1 1,-1 1,-1 0,-1 1,-1 0,-1 1,-1 1,-1 0,-1 1,-1 1,-1 0,-1 1,-1 1,-1 0,-1 1,-1 1,-1 0,-1 1,-1 -2,0 -1,-1 -2,0 -1,-1 -1,0 -1,-1 -1,-1 -1,0 -1,-1 -1,-1 -1,0 -1,-1 -1,-1 -1,-1 -1,0 -1,-1 -1,-1 -1,0 -1,-1 -1,0 -1,-1 -1,0 -1,-1 -1,0 -1,-1 -1,0 -1,-1 -1,0 -1,-1 -1,0 -1,-1 -1,-1 -1,0 0,1 -1,1 1,1 0,2 -1,1 -9,0 -1,1 -5,0 -1,1 -5,0 -1,1 -1,0 0,5 -1,1 -2,0 -1,-1 0,-2 -1,-1 0,-1 -7,0 -1,1 -1,0Z"/>
<path onmouseover="hoverPath(evt)" onmouseout="recoverPath(evt)" fill="rgb(243,241,232)" d="M  124,130l -3,0 -1,1 -1,1 0,1 -1,1 -1,1 0,1 -1,1 -1,1 0,1 -1,1 0,1 -1,1 -1,1 0,1 -1,1 -1,1 0,1 -1,1 -1,1 0,1 1,0 1,1 2,0 1,1 2,0 1,1 3,0 1,1 1,0 1,-1 1,-1 0,-1 1,-1 0,-2 1,-1 0,-1 1,-1 0,-1 1,-1 0,-1 1,-1 0,-1 1,-1 0,-1 1,-1 0,-1 1,-1 0,-2 1,-1 1,-1 3,0 1,1 3,0 1,1 1,0 1,1 1,1 1,0 1,1 1,0 -5,-4 -1,0 -2,-1 -1,-1 -5,0 -1,-1 0,-6 1,-1 0,-4 1,-1 0,-1 1,-1 0,-1 1,-1 1,-1 1,-1 0,-1 1,-1 1,-1 1,-1 0,-2 1,-1 0,-12 1,-1 -1,0 -1,2 0,0 -1,1 0,1 -1,1 -1,1 0,1 -1,1 -1,1 0,1 -1,1 -1,1 -1,1 1,1 0,2 -1,1 -1,1 0,1 -1,1 0,1 -1,1 -1,1 0,1 -1,1 0,1 -1,1 -1,1 0,1 -1,1 0,1 -1,1 -1,1 0,2 2,0 1,1 0,2 -1,1Z"/>
<path onmouseover="hoverPath(evt)" onmouseout="recoverPath(evt)" fill="rgb(239,238,230)" d="M  215,63l 0,9 1,1 0,6 1,1 0,5 1,1 4,0 1,1 0,3 -1,1 -1,0 -1,1 -1,0 0,5 -1,1 0,1 1,-1 2,0 1,1 0,2 -1,1 0,1 -1,1 0,6 1,0 1,1 0,5 1,1 0,3 1,1 0,6 1,1 0,5 1,1 0,5 1,1 0,5 1,1 0,5 1,1 0,5 2,0 0,-6 -1,-1 0,-5 -1,-1 0,-5 -1,-1 0,-6 1,-1 3,0 0,-3 -1,-1 0,-4 -1,-1 0,-5 -1,-1 0,-2 -1,-1 0,-7 1,-1 2,0 1,-1 7,0 0,-1 -1,-1 0,-3 1,-1 0,-1 1,-1 1,0 1,-1 1,0 1,-1 2,0 -5,1 -3,0 -1,-1 -1,-1 0,-1 -1,-1 0,-1 -1,-1 0,-1 3,7 1,1 0,2 -1,4 -1,1 -5,1 -3,0 -1,-1 0,-2 -1,-1 0,-5 -1,-1 0,-6 -1,-1 0,-5 -1,-1 0,-3 -1,-1 0,-7 1,-1 2,0 0,-9 1,-1 0,-1 1,-1 1,-1 1,0 1,-1 1,0 1,-1 3,0 1,-1 2,0 1,-1 2,0 1,-1 2,0 1,-1 3,0 1,-1 6,0 0,-7 -2,0 0,2 -1,1 -3,0 -1,-1 -2,0 -1,1 -2,0 -1,1 -3,0 -1,1 -2,0 -1,1 -2,0 -1,1 -3,0 -1,1 -2,0 -1,1 -2,0 -1,1 -1,0 -1,1 -1,1 -2,0 -1,1 -4,0 3,1 0,1 1,1 0,2 -1,1 0,2 11,6 0,3 1,1 0,1 1,1 0,3 1,1 0,1 1,0 0,-2 -1,-1 0,1 -1,-4 -1,-2 0,-2 -1,-1 -11,-6Z"/>
<path onmouseover="hoverPath(evt)" onmouseout="recoverPath(evt)" fill="rgb(212,220,228)" d="M  227,87l 0,6 1,1 0,5 1,1 0,2 5,0 1,-1 1,-1 0,-3 -1,-1 0,-1 -1,-1 0,-1 -1,-1 0,-1 -1,-1 0,-1 -4,0 -1,-2 0,-2 -1,-1 0,-3 1,-1 -1,-1 0,-3 -1,-1 0,-1 -1,-1 0,3 1,1 0,3 1,0 -1,-4 1,9 1,1Z"/>
<path onmouseover="hoverPath(evt)" onmouseout="recoverPath(evt)" fill="rgb(214,225,241)" d="M  233,122l 0,-5 -1,-1 0,-4 -1,-1 0,-4 -1,0 0,5 1,1 0,-1 1,5 0,4 1,1 3,6 0,0 -2,1 0,3 -1,1 -3,0 0,4 1,1 0,5 1,1 0,5 1,1 0,8 1,-2 0,-2 1,-1 2,0 1,1 1,1 1,0 1,1 5,0 1,1 5,0 1,1 2,0 0,-7 -4,0 -1,-1 -4,0 -1,1 -2,0 -1,-1 -1,0 -1,-1 0,-1 -1,-1 0,-2 -1,-1 0,-17 -1,1 -1,0 -3,-6Z"/>
</svg>