<svg width="256" height="256" xmlns="http://www.w3.org/2000/svg"><script> 
var tempColor;
function hoverPath(evt){
obj = evt.target;
tempColor = obj.getAttribute("fill");
obj.setAttribute("fill","red");
//alert(tempColor);
//obj.setAttribute("stroke","red");}
function recoverPath(evt){
obj = evt.target;
obj.setAttribute("fill", tempColor);
//obj.setAttribute("stroke", tempColor);
}</script><path onmouseover="hoverPath(evt)" onmouseout="recoverPath(evt)" fill="rgb(243,242,234)" d="M  0,1l 0,41 1,0 1,-1 0,-2 1,-1 1,0 2,-2 1,-1 0,-2 1,-1 1,0 1,-1 1,-1 1,-1 1,-1 1,-1 1,-1 1,-1 1,-1 1,0 0,-1 1,-1 1,0 5,-5 1,-1 1,-1 1,-1 1,-1 2,-2 0,-2 1,-1 1,0 1,-1 1,-1 0,-1 1,-1 1,-1 1,-1 0,-2 -37,0 -1,1Z"/>
<path onmouseover="hoverPath(evt)" onmouseout="recoverPath(evt)" fill="rgb(244,243,236)" d="M  2,229l -2,0 0,26 255,0 0,-52 -9,0 -1,-1 -30,0 -1,-1 -21,0 -1,-1 -27,0 -1,-1 -30,0 -1,-1 -34,0 -1,1 -9,0 -1,1 -5,0 -1,1 -3,0 -1,1 -4,0 -1,1 -4,0 -1,1 -4,0 -1,1 -3,0 -1,1 -4,0 -1,1 -2,0 -1,1 -2,0 -1,1 -2,0 -1,1 -3,0 -1,1 -2,0 -1,1 -2,0 -1,1 -2,0 -1,1 -2,0 -1,1 -2,0 -1,1 -1,0 -1,1 -1,0 -1,1 -1,0 -1,1 -1,0 -1,1 -1,0 -1,1 -1,0 -1,1 -1,0 -1,1 -1,0 -1,1 -1,1 -1,1 0,1 1,1 1,1 0,2 -1,1 -3,0 -1,-1 0,-1 -1,-1 0,-1 -1,-1 0,1 -1,1Z"/>
<path onmouseover="hoverPath(evt)" onmouseout="recoverPath(evt)" fill="rgb(248,232,126)" d="M  1,214l -1,0 0,13 1,0 0,-1 1,-1 2,0 2,2 0,1 1,1 0,1 1,0 -2,-4 0,-1 4,-4 1,0 1,-1 1,0 1,-1 1,0 1,-1 1,0 1,-1 1,0 1,-1 1,0 1,-1 1,0 1,-1 1,0 1,-1 2,0 1,-1 2,0 1,-1 2,0 1,-1 2,0 1,-1 2,0 1,-1 3,0 1,-1 2,0 1,-1 2,0 1,-1 2,0 1,-1 4,0 1,-1 3,0 1,-1 4,0 1,-1 4,0 1,-1 4,0 1,-1 3,0 1,-1 5,0 1,-1 9,0 1,-1 36,0 1,1 30,0 1,1 27,0 1,1 21,0 1,1 30,0 1,1 8,0 0,-12 -23,0 -1,-1 -11,0 -1,1 -4,0 -1,-1 -10,0 -1,-1 -24,0 -1,-1 -20,0 -1,1 -2,0 -1,-1 -3,0 -1,-1 -46,0 -1,1 -13,0 -1,1 -7,0 -1,1 -5,0 -1,1 -6,0 -1,1 -5,0 -1,1 -3,0 -1,1 -2,0 -1,1 -2,0 -1,1 -3,0 -1,1 -2,0 -1,1 -2,0 -1,1 -2,0 -1,1 -1,0 -1,1 -2,0 -1,1 -1,0 -1,1 -1,0 -1,1 -2,0 -1,1 -1,0 -1,1 -1,0 -1,1 -3,0 -1,1 -1,0 -1,1 -1,0 -1,1 -1,0 -1,1 -1,0 -1,1 -1,0 -1,1 -1,0 -1,1 -1,1 -1,0 -1,1Z"/>
<path onmouseover="hoverPath(evt)" onmouseout="recoverPath(evt)" fill="rgb(243,242,235)" d="M  0,117l 0,95 3,0 1,-1 1,0 1,-1 1,-1 1,0 1,-1 1,0 1,-1 1,0 1,-1 1,0 1,-1 1,0 1,-1 1,0 1,-1 3,0 1,-1 1,0 1,-1 1,0 1,-1 2,0 1,-1 1,0 1,-1 1,0 1,-1 2,0 1,-1 1,0 1,-1 2,0 1,-1 2,0 1,-1 2,0 1,-1 3,0 1,-1 2,0 1,-1 2,0 1,-1 3,0 1,-1 5,0 1,-1 6,0 1,-1 5,0 1,-1 7,0 1,-1 13,0 1,-1 47,0 0,-10 1,-1 0,-21 1,-1 0,-16 1,-1 0,-20 1,-1 0,-21 1,-1 0,-16 1,-1 0,-13 -10,0 -1,-1 -16,0 -1,-1 -27,0 -1,-1 -4,0 -1,-1 -1,0 -1,-1 0,-2 1,-1 8,0 1,1 28,0 1,1 16,0 1,1 7,0 1,-1 0,-7 1,-1 0,-11 -2,0 -1,-1 0,-2 1,-1 -2,0 -1,-1 0,-2 1,-1 0,-1 -2,0 -1,-1 0,-2 1,-1 0,-1 -1,-1 0,-1 -1,-1 0,-2 -1,-1 0,-2 -1,-1 0,-1 -1,-1 0,-2 -1,-1 0,-2 -1,-1 0,-4 -93,0 0,2 -1,1 0,1 1,1 0,1 1,1 0,1 1,1 1,1 1,1 1,1 1,1 3,3 1,1 1,1 1,0 1,1 0,1 1,1 1,1 1,1 1,1 1,1 1,1 1,1 1,1 1,1 1,0 1,1 0,1 1,1 1,1 1,1 1,1 1,1 0,3 -1,1 -3,0 -1,-1 -1,-1 -1,-1 -1,0 -1,-1 0,-1 -1,-1 -1,-1 -1,-1 -1,-1 -1,-1 -1,-1 -1,-1 -1,-1 -1,-1 -1,-1 -1,-1 -1,-1 -1,-1 -1,0 -1,-1 0,-1 -1,-1 -1,-1 -1,-1 -1,-1 -1,-1 -1,-1 -1,0 -1,-1 0,-1 -1,-1 -1,-1 -1,-1 -1,-1 0,1 -1,1 0,0 -3,3 -1,1 -1,1 0,1 -1,1 -1,1 -7,7 -1,1 -1,1 0,1 -1,1 -1,1 -1,1 -1,1 -1,1 -1,1 -1,1 -1,1 -1,1 -1,1 -1,1 0,1 -1,1 -1,1 -1,1 -1,1 -1,1 -1,1 -1,1 -1,1 -1,1 -1,1 -1,1 -1,1 -1,1 -1,1 -1,1 -1,1 -1,0Z"/>
<path onmouseover="hoverPath(evt)" onmouseout="recoverPath(evt)" fill="rgb(195,213,239)" d="M  26,26l 10,-10 1,-1 0,-1 1,-1 1,-1 1,-1 1,-1 1,-1 1,-1 0,-1 -1,-1 -1,-1 -1,0 -1,-1 -1,1 -1,1 0,1 -1,1 -1,1 -1,1 -1,0 0,2 -1,1 -1,1 -1,1 -1,1 -1,1 -1,1 -1,1 -1,1 -1,1 -2,2 -1,1 -1,0 0,1 -1,1 -1,0 -1,1 -1,1 -1,1 -1,1 -1,1 -1,1 -1,1 -1,1 -1,0 0,2 -1,1 -1,1 -1,1 -1,1 -1,0 0,2 -1,1 -1,1 -2,0 0,10 1,-1 1,-1 1,-1 11,-11 1,-1 0,-1 1,-1 1,-1 2,-2 1,-1 6,-6Z"/>
<path onmouseover="hoverPath(evt)" onmouseout="recoverPath(evt)" fill="rgb(245,248,249)" d="M  40,1l 0,1 1,1 1,0 1,1 1,1 1,1 1,0 1,1 1,1 1,1 1,1 1,1 0,1 1,0 1,1 1,1 1,1 1,1 1,1 1,1 1,1 0,1 1,0 1,1 1,1 1,1 1,1 1,1 1,1 1,1 1,1 1,1 1,1 1,1 1,1 1,1 1,1 0,1 1,0 1,1 1,1 1,1 1,0 0,-1 -1,-1 -1,-1 -1,-1 -1,-1 -1,-1 0,-1 -1,0 -1,-1 -1,-1 -1,-1 -1,-1 -1,-1 -1,-1 -1,-1 -1,-1 -1,-1 -1,-1 0,-1 -1,0 -1,-1 -1,-1 -1,-1 -1,-1 -1,-1 -1,-1 -1,-1 -1,-1 -1,-1 -1,-1 -1,-1 0,-1 -1,-1 0,-1 -1,-1 0,-3 1,-1 0,-1 -9,0 -1,1Z"/>
<path onmouseover="hoverPath(evt)" onmouseout="recoverPath(evt)" fill="rgb(252,252,251)" d="M  96,54l -1,0 2,1 4,0 1,1 27,0 1,1 16,0 1,1 10,0 1,1 0,15 -1,1 0,16 -1,1 0,21 -1,1 0,20 -1,1 0,16 -1,1 0,21 -1,1 0,10 1,0 0,-7 1,-1 0,-19 1,-1 0,-1 1,-1 24,0 0,-1 -22,0 -1,-1 -1,0 -1,-1 0,-15 1,-1 0,-19 1,-1 0,-21 1,-1 0,-17 1,-1 0,-13 1,-1 0,-11 1,-1 0,-16 1,-1 1,-1 1,0 1,-1 1,-1 2,0 1,1 1,-1 0,0 1,-1 1,0 0,-2 1,-1 1,-1 1,0 1,-1 1,-1 2,0 1,1 0,-2 2,-2 1,0 1,-1 1,-1 2,0 1,1 0,-2 1,-1 1,-1 1,0 1,-1 1,-1 2,0 1,1 0,-2 2,-2 1,0 1,-1 1,-1 2,0 1,1 0,-2 1,-1 1,-1 2,0 1,1 1,1 1,1 0,2 -1,1 2,0 1,1 1,1 0,1 1,1 1,1 0,1 1,1 1,1 0,2 -1,1 2,0 1,1 1,1 0,1 2,2 0,1 2,2 0,1 2,2 0,2 -1,1 1,1 2,0 1,1 1,1 1,1 0,1 1,1 1,1 0,1 1,1 1,1 0,1 1,1 1,1 0,1 1,1 1,1 0,1 1,1 1,1 0,2 1,0 2,2 1,1 0,2 1,0 2,2 1,1 1,1 0,1 1,1 0,1 1,0 1,1 1,0 0,-3 -2,0 -1,-1 -1,-1 -1,-1 0,-2 -1,0 -1,-1 -1,-1 -1,-1 -1,-1 0,-1 -1,-1 -1,-1 -1,-1 0,-1 -1,-1 -1,-1 0,-1 -1,-1 -1,-1 0,-2 1,-1 -1,-1 -2,0 -1,-1 -1,-1 0,-1 -1,-1 -1,-1 -1,-1 0,-1 -1,-1 -1,-1 -1,-1 0,-2 1,-1 -1,0 -1,-1 0,-2 -2,0 -1,-1 -1,-1 0,-1 -1,-1 -1,-1 0,-1 -1,-1 -1,-1 0,-2 1,-1 -2,0 -2,-2 0,-1 -1,-1 -1,-1 0,-1 -1,-1 -1,-1 0,-1 -1,-1 0,-1 -1,-1 0,-2 1,-1 1,0 0,-1 -8,0 0,4 -1,1 -1,0 -1,1 -1,1 -1,0 -1,1 -1,1 -1,0 -1,1 -1,1 -1,0 -1,1 -1,0 -1,1 -1,1 -1,0 -1,1 -1,1 -1,0 -1,1 -1,0 -1,1 -1,1 -1,0 -1,1 -1,1 -1,0 -1,1 -1,0 -2,2 -1,0 -2,2 -1,0 -1,1 -1,0 -1,1 -1,1 -4,0 -1,-1 0,-1 -1,-1 0,-2 -1,-1 0,-1 -1,-1 0,-2 -1,-1 0,-1 -1,-1 0,-2 -1,-1 0,-2 -1,-1 0,-1 -1,-1 0,-2 -1,-1 0,-1 -1,-1 0,-3 -3,0 0,3 1,1 0,2 1,1 0,2 1,1 0,1 1,1 0,2 1,1 0,2 1,1 0,1 1,1 0,3 -1,1 2,0 1,1 0,3 -1,1 2,0 1,1 0,2 -1,1 2,0 1,1 0,13 -1,1 0,7 -1,1 -1,1 -9,0 -1,-1 -16,0 -1,-1 -28,0 -1,-1Z"/>
<path onmouseover="hoverPath(evt)" onmouseout="recoverPath(evt)" fill="rgb(243,242,232)" d="M  153,0l -1,0 0,2 1,1 0,1 1,1 0,2 1,1 0,1 1,1 0,2 1,1 0,2 1,1 0,1 1,1 0,2 1,1 0,1 1,1 0,2 1,1 0,1 2,0 1,-1 0,0 1,-1 1,0 1,-1 1,0 1,-1 1,-1 1,0 1,-1 1,-1 1,0 1,-1 1,0 1,-1 1,-1 1,0 1,-1 1,-1 1,0 1,-1 1,0 1,-1 1,-1 1,0 1,-1 1,-1 1,0 1,-1 1,0 1,-1 1,-1 1,0 1,-1 1,-1 1,0 1,-1 1,-1 1,0 0,-3Z"/>
<path onmouseover="hoverPath(evt)" onmouseout="recoverPath(evt)" fill="rgb(244,243,235)" d="M  157,157l 0,0 -1,1 0,19 -1,1 0,6 1,1 1,-1 22,0 1,1 24,0 1,1 10,0 1,1 2,0 1,-1 13,0 1,1 22,0 0,-116 -2,0 -1,-1 -1,0 -1,-1 0,-1 -1,-1 0,-1 -1,-1 -2,-2 -1,0 -1,-1 0,-2 -1,-1 -1,-1 -1,0 -1,-1 0,-2 -1,-1 -1,-1 0,-1 -1,-1 -1,-1 0,-1 -1,-1 -1,-1 0,-1 -1,-1 -1,-1 0,-1 -1,-1 -1,-1 0,-1 -1,-1 -1,-1 -2,0 -1,-1 -1,-1 0,-2 1,-1 -1,-1 0,0 -1,-1 0,-1 -1,-1 -1,-1 0,-1 -1,-1 -1,-1 0,-1 -1,-1 -2,0 -1,-1 0,-2 1,-1 -1,-1 0,0 -1,-1 0,-1 -1,-1 -1,-1 0,-1 -1,-1 -2,0 -1,-1 0,-2 1,-1 -1,-1 -1,-1 -1,1 0,2 -1,1 -2,0 -1,-1 -1,1 0,0 -1,1 -1,0 -1,1 0,2 -1,1 -2,0 -1,-1 -1,1 0,0 -1,1 -1,0 -1,1 0,2 -1,1 -2,0 -1,-1 -1,1 -1,1 -1,0 -1,1 0,2 -1,1 -2,0 -1,-1 -1,1 -1,1 -1,0 -1,1 0,2 -1,1 -1,0 -1,1 -1,1 -2,0 -1,-1 -1,1 0,0 -1,1 -1,0 -1,1 0,16 -1,1 0,11 -1,1 0,13 -1,1 0,17 -1,1 0,21 -1,1 0,19 -1,1 0,13 1,0 1,1 22,0 1,1 0,3 -1,1 -23,0 -1,1Z"/>
<path onmouseover="hoverPath(evt)" onmouseout="recoverPath(evt)" fill="rgb(241,241,235)" d="M  214,2l 0,0 -1,1 0,2 1,1 0,1 1,1 1,1 0,1 1,1 1,1 0,1 1,1 2,0 1,1 0,2 -1,1 1,1 0,0 1,1 0,1 1,1 1,1 0,1 1,1 2,0 1,1 0,2 1,0 1,1 0,2 -1,1 1,1 1,1 1,1 0,1 1,1 1,1 1,1 0,1 1,1 2,0 1,1 1,1 0,2 -1,1 1,1 0,0 1,1 0,1 1,1 1,1 0,1 1,1 1,1 1,1 0,1 1,1 1,1 1,1 1,0 1,1 0,2 1,1 1,1 1,0 0,-64 -41,0Z"/>
</svg>