<svg width="256" height="256" xmlns="http://www.w3.org/2000/svg"><script> 
var tempColor;
function hoverPath(evt){
obj = evt.target;
tempColor = obj.getAttribute("fill");
obj.setAttribute("fill","red");
//alert(tempColor);
//obj.setAttribute("stroke","red");}
function recoverPath(evt){
obj = evt.target;
obj.setAttribute("fill", tempColor);
//obj.setAttribute("stroke", tempColor);
}</script><path onmouseover="hoverPath(evt)" onmouseout="recoverPath(evt)" fill="rgb(244,243,236)" d="M  1,61l -1,0 0,94 1,0 1,-1 9,0 1,-1 3,0 0,-3 1,-1 1,0 0,-3 -1,-1 0,-74 -1,-1 0,-9Z"/>
<path onmouseover="hoverPath(evt)" onmouseout="recoverPath(evt)" fill="rgb(237,239,235)" d="M  0,13l 0,36 15,0 0,-19 -5,0 -1,1 -2,0 -1,-1 0,-2 -1,0 -1,-1 0,-2 1,-1 1,-1 9,0 0,-11 -1,-1 0,-2 -2,0 -1,-1 -1,0 -1,-1 -1,-1 -1,-1 0,-2 -1,-1 0,-2 -6,0Z"/>
<path onmouseover="hoverPath(evt)" onmouseout="recoverPath(evt)" fill="rgb(243,235,146)" d="M  0,53l 0,6 16,0 1,1 0,9 1,1 0,74 1,1 0,5 -1,1 -1,0 0,3 -1,1 -3,0 -1,1 -9,0 -1,1 -2,0 0,3 8,0 1,-1 8,0 1,1 0,83 1,0 1,1 0,11 5,0 0,-12 1,-1 1,0 0,-17 -1,-1 0,-65 -1,0 -1,-1 0,-4 1,-1 1,0 1,-1 26,0 1,1 3,0 1,1 4,0 0,-2 1,-1 -37,0 -1,-1 0,-3 1,-1 0,-83 -1,-1 0,-2 1,-1 22,0 1,1 16,0 0,-1 1,-1 2,0 1,1 0,1 13,0 1,-1 47,0 1,-1 3,0 1,-1 2,0 1,1 2,0 1,-1 2,0 1,1 32,0 1,1 1,0 1,1 0,-2 1,-1 6,0 1,1 12,0 1,1 7,0 1,-1 17,0 1,-1 23,0 1,1 5,0 0,-7 -6,0 -1,1 -14,0 -1,-1 0,-2 -1,-1 0,-11 -1,-1 0,-11 -1,-1 0,-11 -1,0 0,13 1,1 0,16 1,1 0,7 -1,1 -47,0 -1,-1 0,-1 -1,-1 -1,1 -3,0 -1,1 -83,0 -1,1 -23,0 0,1 -1,1 -2,0 -1,-1 0,-1 -25,0 -1,-1 -13,0 -1,-1 0,-39 1,-1 30,0 0,-1 -30,0 -1,-1 0,-8 -17,0 0,1 1,1 0,2 1,1 1,1 1,0 1,1 2,0 1,1 0,2 1,1 0,13 -1,1 -9,0 -1,1 1,0 1,1 0,2 1,-1 7,0 1,1 0,21 -1,1 -16,0Z"/>
<path onmouseover="hoverPath(evt)" onmouseout="recoverPath(evt)" fill="rgb(244,243,237)" d="M  0,163l 0,82 2,0 1,-1 4,0 1,-1 3,0 1,-1 4,0 0,-81 -6,0 -1,1 -8,0 -1,1Z"/>
<path onmouseover="hoverPath(evt)" onmouseout="recoverPath(evt)" fill="rgb(173,198,234)" d="M  0,248l 0,7 18,0 0,-10 -1,0 -1,-1 -3,0 -1,1 -3,0 -1,1 -4,0 -1,1 -2,0 -1,1Z"/>
<path onmouseover="hoverPath(evt)" onmouseout="recoverPath(evt)" fill="rgb(253,253,253)" d="M  27,149l 37,0 1,1 2,0 1,-1 68,0 1,1 1,1 0,7 -1,1 0,74 1,0 0,-59 1,-1 0,-22 1,-1 1,0 1,-1 91,0 1,1 1,1 0,5 1,1 0,12 1,1 0,11 1,1 0,12 1,1 0,11 1,0 0,-12 -1,-1 0,-11 -1,-1 0,-12 -1,-1 0,-14 -1,-1 0,-12 -1,-1 0,-10 -1,-1 0,-22 -1,-1 0,-11 -1,-1 0,-11 -1,-1 0,-12 -1,-1 0,-10 -3,0 -1,1 -17,0 -1,1 -9,0 -1,-1 -12,0 -1,-1 -4,0 2,1 1,0 1,1 4,0 1,1 37,0 1,1 0,1 1,1 0,6 1,1 0,12 1,1 0,10 1,1 0,12 1,1 0,22 1,1 0,10 1,1 0,2 -1,1 0,1 -1,1 -93,0 -1,-1 0,-9 -1,-1 0,-68 -1,0 0,73 1,1 0,2 -1,1 0,1 -1,1 -108,0 -1,1 111,-81 1,0 0,-6 1,-1 0,-1 -2,0 0,8 -111,81Z"/>
<path onmouseover="hoverPath(evt)" onmouseout="recoverPath(evt)" fill="rgb(171,198,237)" d="M  27,155l -1,0 0,2 6,0 1,-1 11,0 1,1 6,0 1,1 3,0 1,1 2,0 1,1 1,0 1,1 1,0 1,1 1,1 7,0 1,-1 17,0 1,1 9,0 1,1 6,0 1,1 12,0 1,-1 4,0 1,-1 3,0 1,-1 6,0 0,-3 -6,0 -1,1 -5,0 -1,1 -3,0 -1,1 -9,0 -1,-1 -7,0 -1,-1 -31,0 -1,-1 -1,-1 0,-6 -2,0 -1,1 0,2 -1,1 -6,0 -1,-1 -3,0 -1,-1 -24,0 -1,1Z"/>
<path onmouseover="hoverPath(evt)" onmouseout="recoverPath(evt)" fill="rgb(245,244,237)" d="M  27,1l 0,6 37,0 0,-1 1,-1 0,-5 -37,0 -1,1Z"/>
<path onmouseover="hoverPath(evt)" onmouseout="recoverPath(evt)" fill="rgb(245,244,237)" d="M  27,13l 0,36 13,0 1,1 24,0 0,-36 -1,-1 0,-1 -36,0 -1,1Z"/>
<path onmouseover="hoverPath(evt)" onmouseout="recoverPath(evt)" fill="rgb(244,243,236)" d="M  28,61l -1,0 1,1 0,84 35,0 0,-14 1,-1 0,-49 1,-1 0,-19 -17,0 -1,-1Z"/>
<path onmouseover="hoverPath(evt)" onmouseout="recoverPath(evt)" fill="rgb(244,243,236)" d="M  28,160l 0,63 1,1 0,18 49,0 1,-1 12,0 1,-1 13,0 1,-1 13,0 1,-1 17,0 1,1 21,0 1,-1 6,0 1,-1 5,0 1,-1 5,0 1,-1 6,0 1,-1 4,0 1,-1 5,0 1,-1 7,0 1,-1 18,0 1,-1 8,0 1,-1 2,0 1,-1 1,-1 1,0 0,-1 1,-1 1,-1 0,-1 1,-1 1,-1 0,-1 1,-1 0,-2 1,-1 0,-1 1,-1 0,-2 1,-1 0,-1 -1,-1 0,-11 -1,-1 0,-12 -1,-1 0,-12 -1,-1 0,-12 -1,-1 0,-1 -2,0 0,10 1,1 0,12 1,1 0,11 1,1 0,14 -1,1 -3,0 -1,-1 0,-11 -1,-1 0,-12 -1,-1 0,-11 -1,-1 0,-12 -2,0 -1,-1 -5,0 -1,1 -7,0 -1,1 -3,0 -1,1 -1,0 -1,1 -2,0 -1,1 -12,0 -1,-1 -3,0 -1,-1 -9,0 -1,1 -2,0 -1,1 -2,0 -1,1 -3,0 -1,1 -4,0 -1,1 -22,0 -1,-1 -2,0 0,10 -1,1 0,59 -1,1 -3,0 -1,-1 0,-70 -5,0 -1,1 -3,0 -1,1 -4,0 -1,1 -14,0 -1,-1 -6,0 -1,-1 -9,0 -1,-1 -15,0 -1,1 -9,0 -1,-1 -1,-1 -1,0 -1,-1 -1,0 -1,-1 -2,0 -1,-1 -3,0 -1,-1 -6,0 -1,-1 -9,0 -1,1 -4,0 -1,1Z"/>
<path onmouseover="hoverPath(evt)" onmouseout="recoverPath(evt)" fill="rgb(172,198,238)" d="M  27,245l 0,10 50,0 0,-2 1,-1 5,0 1,-1 11,0 1,-1 14,0 1,-1 14,0 1,1 3,0 1,1 2,0 1,1 4,0 1,1 0,2 13,0 0,-2 1,-1 10,0 1,-1 2,0 1,-1 2,0 1,-1 2,0 1,-1 2,0 1,-1 2,0 1,-1 1,0 1,-1 2,0 1,-1 16,0 1,-1 3,0 1,1 1,1 0,3 -1,1 1,1 0,5 5,0 0,-11 1,-1 1,0 1,-1 5,0 1,-1 5,0 1,-1 11,0 1,1 2,0 1,1 1,0 1,1 1,0 1,1 1,0 1,1 1,1 1,1 0,5 1,1 0,2 6,0 0,-130 -2,0 -1,-1 0,-12 -1,-1 0,-11 -1,-1 0,-13 -1,-1 0,-14 -1,-1 0,-11 -13,0 0,1 1,1 0,10 1,1 0,11 1,1 0,11 1,1 0,10 1,1 0,11 1,1 0,11 1,1 0,11 1,1 0,9 -1,1 -1,1 -2,0 0,1 3,0 1,1 0,1 1,1 0,12 1,1 0,12 1,1 0,12 1,1 0,11 1,1 0,3 -1,1 0,2 -1,1 0,1 -1,1 0,2 -1,1 0,1 -1,1 -1,1 0,1 -1,1 -1,1 0,1 -1,1 -1,0 -1,1 -1,1 -2,0 -1,1 -8,0 -1,1 -18,0 -1,1 -7,0 -1,1 -5,0 -1,1 -4,0 -1,1 -6,0 -1,1 -5,0 -1,1 -5,0 -1,1 -6,0 -1,1 -23,0 -1,-1 -15,0 -1,1 -13,0 -1,1 -13,0 -1,1 -12,0 -1,1 -51,0 -1,1Z"/>
<path onmouseover="hoverPath(evt)" onmouseout="recoverPath(evt)" fill="rgb(172,198,237)" d="M  67,13l 0,0 1,-1 0,0 1,-1 92,0 1,-1 14,0 1,1 4,0 1,-1 33,0 1,1 4,0 1,-1 2,0 0,-1 -49,0 -1,-1 -1,0 -1,-1 -1,-1 0,-1 -1,-1 -1,-1 0,-3 -5,0 0,1 1,1 0,4 -1,1 -1,1 -1,0 -1,1 -23,0 -1,-1 -4,0 -1,-1 -3,0 0,1 -1,1 -56,0 -1,-1 -1,0 -1,-1 -1,-1 0,-6 -1,7 0,1 -1,1 -7,0 0,1 7,0 1,1 0,1 1,1Z"/>
<path onmouseover="hoverPath(evt)" onmouseout="recoverPath(evt)" fill="rgb(172,198,236)" d="M  67,82l -1,1 0,49 -1,1 0,13 2,0Z"/>
<path onmouseover="hoverPath(evt)" onmouseout="recoverPath(evt)" fill="rgb(244,243,236)" d="M  69,14l 0,36 22,0 1,-1 83,0 1,-1 3,0 1,-1 2,0 1,1 1,0 1,-1 38,0 1,-1 1,0 0,-16 -1,-1 0,-16 -1,-1 -1,0 -1,1 -6,0 -1,-1 -31,0 -1,1 -6,0 -1,-1 -12,0 -1,1 -92,0 -1,1Z"/>
<path onmouseover="hoverPath(evt)" onmouseout="recoverPath(evt)" fill="rgb(244,243,235)" d="M  70,62l -1,0 0,84 66,0 0,-1 1,-1 -1,-1 0,-75 1,-1 0,-8 -1,1 -3,0 -1,1 -47,0 -1,1Z"/>
<path onmouseover="hoverPath(evt)" onmouseout="recoverPath(evt)" fill="rgb(240,239,227)" d="M  69,154l 0,3 1,1 31,0 1,1 7,0 1,1 7,0 1,-1 3,0 1,-1 5,0 1,-1 8,0 0,-5 -1,-1 -66,0Z"/>
<path onmouseover="hoverPath(evt)" onmouseout="recoverPath(evt)" fill="rgb(244,243,237)" d="M  84,254l -5,0 0,1 4,0 1,-1 3,1 49,0 0,-1 -4,0 -1,-1 -2,0 -1,-1 -3,0 -1,-1 -12,0 -1,1 -14,0 -1,1 -8,0 -1,2 -3,-1Z"/>
<path onmouseover="hoverPath(evt)" onmouseout="recoverPath(evt)" fill="rgb(240,239,227)" d="M  104,3l 0,-1 1,-1 23,0 1,1 4,0 1,-1 0,-1 -65,0 0,5 1,1 1,0 1,1 54,0 -1,-1 -20,0 -1,-1Z"/>
<path onmouseover="hoverPath(evt)" onmouseout="recoverPath(evt)" fill="rgb(247,246,240)" d="M  141,0l -5,0 0,2 -1,1 -1,1 -6,0 -1,-1 -21,0 0,1 20,0 1,1 5,0 1,1 1,0 1,-1 2,0 1,1 0,1 21,0 1,-1 1,0 1,-1 0,-2 -1,-1 0,-2Z"/>
<path onmouseover="hoverPath(evt)" onmouseout="recoverPath(evt)" fill="rgb(171,198,238)" d="M  142,160l -1,0 0,2 3,0 1,1 20,0 1,-1 4,0 1,-1 3,0 1,-1 2,0 1,-1 2,0 1,-1 11,0 1,1 3,0 1,1 10,0 1,-1 2,0 1,-1 1,0 1,-1 3,0 1,-1 7,0 1,-1 7,0 1,1 0,-2 -20,0 -1,1 -3,0 -1,1 -1,1 -2,0 -1,1 -5,0 -1,-1 -2,0 -1,-1 -2,0 -1,-1 -9,0 -1,1 -4,0 -1,1 -3,0 -1,1 -2,0 -1,1 -3,0 -1,1 -2,0 -1,1 -16,0 -1,-1Z"/>
<path onmouseover="hoverPath(evt)" onmouseout="recoverPath(evt)" fill="rgb(243,242,234)" d="M  143,60l 0,0 -1,-1 0,3 -1,1 0,6 -1,1 0,66 1,1 0,9 91,0 0,-1 1,-1 -1,-1 0,-10 -1,-1 0,-22 -1,-1 0,-12 -1,-1 0,-10 -1,-1 0,-12 -1,-1 0,-6 -1,-1 0,-1 -37,0 -1,-1 -4,0 -1,-1 -1,0 -1,-1 -1,1 -2,0 -1,-1 -1,0 -1,-1Z"/>
<path onmouseover="hoverPath(evt)" onmouseout="recoverPath(evt)" fill="rgb(244,243,237)" d="M  163,254l -10,0 0,1 9,0 1,-1 3,1 37,0 0,-4 -1,-1 0,-2 1,-1 0,-1 -1,-1 -1,0 -1,1 -16,0 -1,1 -2,0 -1,1 -1,0 -1,1 -2,0 -1,1 -2,0 -1,1 -2,0 -1,1 -2,0 -1,3 -3,-1Z"/>
<path onmouseover="hoverPath(evt)" onmouseout="recoverPath(evt)" fill="rgb(244,243,235)" d="M  170,1l 0,1 1,1 1,1 0,1 1,1 1,0 1,1 48,0 0,-7 -52,0 -1,1Z"/>
<path onmouseover="hoverPath(evt)" onmouseout="recoverPath(evt)" fill="rgb(254,254,254)" d="M  185,50l 44,0 0,-5 -1,-1 0,-16 -1,-1 0,-18 -1,-1 0,-8 -1,0 0,11 1,1 0,16 1,1 0,18 -1,1 -1,0 -1,1 -38,0 -1,1Z"/>
<path onmouseover="hoverPath(evt)" onmouseout="recoverPath(evt)" fill="rgb(237,236,219)" d="M  209,153l 2,0 1,-1 21,0 -1,-1 -89,0 -1,1 -1,0 0,6 6,0 1,1 14,0 1,-1 2,0 1,-1 3,0 1,-1 2,0 1,-1 3,0 1,-1 4,0 1,-1 11,0 1,1 2,0 1,1 2,0 1,1 3,0 1,-1 2,0 1,-1 1,-1Z"/>
<path onmouseover="hoverPath(evt)" onmouseout="recoverPath(evt)" fill="rgb(244,243,237)" d="M  212,246l 0,9 35,0 0,-1 -1,-1 0,-5 -1,-1 -1,-1 -1,0 -1,-1 -1,0 -1,-1 -1,0 -1,-1 -2,0 -1,-1 -9,0 -1,1 -5,0 -1,1 -5,0 -2,2Z"/>
<path onmouseover="hoverPath(evt)" onmouseout="recoverPath(evt)" fill="rgb(172,198,237)" d="M  231,0l -3,0 0,7 1,1 0,3 2,0 1,1 0,11 1,1 0,11 1,1 0,11 1,1 0,2 12,0 0,-8 -1,-1 0,-14 -1,-1 0,-14 -1,-1 0,-11Z"/>
<path onmouseover="hoverPath(evt)" onmouseout="recoverPath(evt)" fill="rgb(234,233,213)" d="M  236,94l 0,-9 -1,-1 0,-11 -1,-1 0,-10 -1,-1 0,-2 -1,0 0,9 1,1 0,12 1,1 0,11 1,1 1,0 0,2 -1,0 0,9 1,1 0,22 1,1 0,10 1,1 0,12 2,0 1,-1 0,-7 -1,-1 0,-11 -1,-1 0,-11 -1,-1 0,-11 -1,-1 0,-10 -1,-1Z"/>
<path onmouseover="hoverPath(evt)" onmouseout="recoverPath(evt)" fill="rgb(244,243,237)" d="M  246,1l 0,9 1,1 0,14 1,1 0,14 1,1 0,8 6,0 0,-49 -8,0 -1,1Z"/>
<path onmouseover="hoverPath(evt)" onmouseout="recoverPath(evt)" fill="rgb(245,244,237)" d="M  250,61l 0,8 1,1 0,14 1,1 0,13 1,1 0,11 1,1 0,12 1,0 0,-63 -4,0 -1,1Z"/>
</svg>