<svg width="256" height="256" xmlns="http://www.w3.org/2000/svg"><script> 
var tempColor;
function hoverPath(evt){
obj = evt.target;
tempColor = obj.getAttribute("fill");
obj.setAttribute("fill","red");
//alert(tempColor);
//obj.setAttribute("stroke","red");}
function recoverPath(evt){
obj = evt.target;
obj.setAttribute("fill", tempColor);
//obj.setAttribute("stroke", tempColor);
}</script><path onmouseover="hoverPath(evt)" onmouseout="recoverPath(evt)" fill="rgb(253,253,253)" d="M  1,10l -1,0 0,4 41,0 1,-1 19,0 0,-1 -22,0 -1,1 -12,0 -1,-1 -1,0 -1,-1 -20,0 -1,-1Z"/>
<path onmouseover="hoverPath(evt)" onmouseout="recoverPath(evt)" fill="rgb(244,243,235)" d="M  0,18l 0,103 34,0 1,-1 3,0 0,-2 1,-1 2,0 1,1 1,-1 2,0 1,-1 8,0 1,-1 12,0 1,-1 2,0 1,-1 2,0 1,-1 0,-2 1,-1 1,0 1,-1 1,0 1,-1 2,0 1,1 2,0 1,-1 3,0 1,-1 6,0 1,-1 5,0 1,-1 2,0 1,-1 1,-1 1,0 0,-2 1,-1 2,0 1,1 1,0 1,-1 3,0 1,-1 2,0 1,-1 2,0 1,-1 2,0 1,-1 1,0 0,-2 1,-1 2,0 1,1 0,-2 1,-1 2,0 1,-1 -1,-1 0,-2 1,-1 2,0 0,-3 -1,0 -1,-1 -1,-1 -1,0 -1,-1 -1,0 -1,-1 -1,-1 0,-1 -1,0 -1,-1 -1,0 -1,-1 -1,-1 -1,0 -1,-1 -1,-1 -1,0 -1,-1 -1,-1 -1,0 -1,-1 -1,-1 -1,0 -1,-1 -1,-1 -1,0 -1,-1 -1,-1 -1,0 -1,-1 -1,0 -1,-1 -1,-1 -1,0 -1,-1 -1,-1 -1,0 -1,-1 -1,-1 -1,0 -1,-1 -1,-1 -1,-1 -1,0 -1,-1 -1,-1 -1,-1 -1,-1 -1,-1 -1,-1 0,-1 -2,0 -1,-1 -1,-1 -1,-1 -1,-1 0,-1 -1,0 -1,-1 -1,-1 -1,-1 -1,-1 -1,-1 -1,-1 0,-2 -1,0 -1,-1 -1,-1 0,-2 -1,0 -1,-1 -1,-1 0,-1 -1,-1 0,-1 -1,-1 -1,-1 0,-1 -1,-1 -1,-1 0,-1 -1,-1 0,-2 -19,0 -1,1 -42,0Z"/>
<path onmouseover="hoverPath(evt)" onmouseout="recoverPath(evt)" fill="rgb(172,198,237)" d="M  0,158l 0,97 6,0 0,-6 -1,-1 0,-58 -1,-1 0,-17 -1,-1 0,-5 1,-1 1,-1 4,0 1,1 1,0 1,-1 9,0 1,1 1,0 1,1 7,0 1,-1 1,0 1,-1 1,-1 1,-1 1,-1 2,0 1,-1 4,0 1,-1 2,0 1,-1 -2,0 -2,1 -3,0 -2,1 -2,0 -1,1 -3,0 -1,1 -4,0 -1,1 -11,0 -16,-5 11,6 -1,-1 -2,0 -1,-1 -2,0 -1,-1 -1,-1 -1,-1 0,-1 -1,-1 0,-27 -1,0 0,27 11,7 -11,-6Z"/>
<path onmouseover="hoverPath(evt)" onmouseout="recoverPath(evt)" fill="rgb(242,241,231)" d="M  3,129l 0,27 1,1 0,1 1,1 1,1 2,0 1,1 2,0 1,1 2,0 1,-1 7,0 0,-1 -1,-1 0,-1 -1,-1 0,-10 1,-1 0,-4 1,-1 0,-2 1,-1 -1,-1 0,-2 1,-1 2,0 1,-1 0,-1 1,-1 1,-1 0,-1 1,-1 0,-1 1,-1 -30,0 0,2 2,0 1,1Z"/>
<path onmouseover="hoverPath(evt)" onmouseout="recoverPath(evt)" fill="rgb(191,216,150)" d="M  37,128l 0,0 -1,1 -1,1 -1,1 -1,1 0,1 -1,1 -1,1 0,1 -1,1 0,1 -1,1 0,1 -1,1 0,1 -1,1 0,3 -1,1 0,9 1,1 1,-1 2,0 1,-1 2,0 1,-1 3,0 1,-1 4,0 1,-1 2,0 0,-2 1,-1 3,0 0,-5 1,-1 2,0 1,1 0,4 1,-2 3,-3 1,-1 1,0 -1,-1 0,-2 1,-1 1,0 1,-1 2,0 1,1 3,0 1,-1 0,-6 -1,-1 0,-2 1,-1 1,-1 19,0 -2,-1 -1,0 -1,-1 -1,0 -1,-1 -21,0 -1,1 -12,0 -1,1 -2,0 -1,-1 -1,0 -1,1 -1,0 -1,1 -1,0 -1,1 -1,1Z"/>
<path onmouseover="hoverPath(evt)" onmouseout="recoverPath(evt)" fill="rgb(243,242,233)" d="M  57,146l 0,0 -1,1 -1,1 0,1 -1,1 -2,0 -1,-1 0,1 -1,1 -3,0 0,1 10,0 1,-1 13,0 1,1 9,0 1,1 4,0 1,1 2,0 1,1 3,0 1,1 2,0 1,1 2,0 1,1 3,0 1,1 2,0 1,1 1,1 1,0 1,1 2,2 1,1 1,1 1,0 1,1 0,1 1,1 1,1 1,0 1,1 0,1 1,1 0,1 1,1 1,1 1,1 1,0 1,1 0,1 1,0 1,1 1,1 1,1 1,1 1,1 0,1 1,1 1,1 1,1 1,0 1,1 0,2 1,1 1,1 2,0 1,1 1,1 1,1 1,1 0,2 1,0 1,1 3,0 1,1 1,0 1,1 2,0 1,1 2,0 1,1 9,0 1,1 2,0 1,1 1,0 1,1 10,0 1,-1 5,0 1,-1 4,0 1,-1 1,0 1,-1 2,0 0,-1 -1,-1 -1,0 -1,-1 -2,0 -1,-1 -2,0 -1,-1 -2,0 -1,-1 -1,-1 0,-1 -1,-1 -1,-1 0,-2 -1,-1 0,-6 -1,-1 0,-3 -1,-1 -1,-1 -1,-1 -1,-1 -10,0 -1,1 -1,0 -1,1 -1,0 -1,1 -1,1 -1,1 -1,1 -1,1 -1,0 -1,1 -1,0 -1,1 -8,0 -1,-1 -3,0 -1,-1 -1,-1 -1,-1 -6,-6 -1,-1 -1,-1 -1,-1 0,-1 -1,-1 -1,-1 0,-2 -2,-2 -1,-1 0,-1 -1,-1 -1,-1 0,-1 -1,-1 -1,-1 0,-1 -1,-1 -1,-1 -1,-1 -1,-1 0,-1 -1,-1 -1,-1 -1,-1 -1,-1 -1,-1 -1,-1 -1,-1 -1,0 -1,-1 -2,0 -1,-1 -1,0 -1,-1 -1,0 -1,-1 -2,0 -1,-1 -19,0 -1,1 -7,0 -1,1 -1,0 -1,1 -9,0 -1,1 -1,0 -1,1 -1,1Z"/>
<path onmouseover="hoverPath(evt)" onmouseout="recoverPath(evt)" fill="rgb(195,218,157)" d="M  98,127l -3,0 -1,-1 -2,0 0,3 -1,1 -4,0 -1,-1 0,-1 -16,0 -1,1 0,0 1,1 0,8 -2,2 -5,0 -1,-1 -1,1 -1,0 1,1 8,0 1,-1 1,0 1,-1 7,0 1,-1 21,0 1,1 2,0 1,1 1,0 1,1 1,0 1,1 2,0 1,1 1,0 1,1 1,1 1,1 1,1 1,1 1,1 1,1 1,1 0,1 1,1 1,1 1,1 1,1 0,1 1,1 1,1 0,1 1,1 1,1 0,1 1,1 1,1 4,0 1,1 1,1 0,1 1,-1 3,0 1,1 2,0 1,1 3,0 1,-1 13,0 1,1 3,0 1,-1 2,0 1,-1 1,-1 3,0 1,1 0,2 7,0 1,-1 3,0 1,1 0,2 1,0 1,1 1,1 1,0 1,1 1,1 1,0 1,1 1,1 1,1 1,-1 2,0 1,-1 2,-2 4,0 1,1 0,-6 1,-1 2,0 0,-1 1,-1 3,0 0,-1 1,-1 0,-1 -1,-1 -2,0 -1,-1 -3,0 -1,-1 -5,0 -1,-1 -1,-1 0,-1 -1,0 -1,1 -2,0 -1,1 -2,0 -1,-1 -1,-1 0,-2 -1,0 -1,-1 0,-1 -1,2 -4,0 -1,-1 -1,0 -1,-1 -5,0 0,1 -1,1 -1,1 -3,0 -1,-1 -1,0 -1,1 -1,0 -1,1 -3,0 0,2 -1,1 -5,0 -1,-1 -5,0 -1,-1 -1,0 -1,-1 -1,-1 -2,0 -1,-1 -1,-1 0,-3 -1,0 -1,-1 -1,-1 0,-2 1,-1 0,-2 -3,0 -1,-1 0,-1 -1,-1 0,-2 -1,0 -1,-1 0,-4 1,-1 2,0 0,-2 1,-1 1,-1 1,0 0,-3 -2,0 -1,-1 -4,0 -1,-1 -4,0 -1,-1 0,-1 -1,0 -1,-1 0,-1 -1,0 -1,-1 -6,0 -1,1 -2,0 -1,1 -1,1 -1,0 0,2 -1,1 -1,1 -2,0 -1,-1 0,1 -1,1 -8,0 111,49 0,0 -111,-49Z"/>
<path onmouseover="hoverPath(evt)" onmouseout="recoverPath(evt)" fill="rgb(191,216,151)" d="M  143,142l -1,0 2,1 0,4 -1,1 1,1 1,0 1,1 0,3 1,1 2,0 1,1 1,1 1,0 1,1 5,0 1,1 3,0 0,-2 1,-1 3,0 1,-1 1,0 1,-1 3,0 1,1 1,0 1,-1 0,-1 1,-1 7,0 1,1 1,0 1,1 2,0 0,-1 1,-1 2,0 1,1 0,1 6,0 1,-1 0,-1 1,-1 1,0 0,-4 -1,-1 0,-4 1,-1 1,0 1,-1 3,0 1,1 3,0 1,1 2,0 1,1 1,0 1,-1 4,0 1,-1 2,0 1,-1 3,0 0,-1 1,-1 1,-1 -1,-1 0,-2 1,-1 3,0 1,1 1,0 1,1 0,6 1,-2 2,0 2,-2 1,0 1,-1 1,-1 1,0 1,-1 1,-1 1,0 1,-1 0,-2 1,-1 1,-1 1,0 1,-1 3,0 0,-10 -3,0 -1,1 -2,0 -1,1 -3,0 -1,1 -3,0 -1,-1 -1,0 -1,1 -2,0 0,2 -1,1 -3,0 -1,-1 -2,0 -1,1 -2,0 -1,1 -7,0 -1,-1 -5,0 -1,-1 -1,0 -1,1 -2,0 -1,1 -6,0 -1,1 -9,0 -1,1 -2,0 0,1 -1,1 -1,1 -1,1 -1,0 -1,1 -2,0 -1,1 -1,1 -2,0 -1,1 -1,1 -1,1 -1,1 -1,1 -4,0 -1,1 -1,1 -1,1 -2,0 -1,1 -4,0 -1,1 -4,0 -1,-1 0,-1 -1,1 -3,0 -1,-1 -1,0 -2,2Z"/>
<path onmouseover="hoverPath(evt)" onmouseout="recoverPath(evt)" fill="rgb(242,241,231)" d="M  142,206l 0,0 1,1 1,1 0,1 1,1 0,1 1,1 1,1 1,1 1,0 1,1 1,1 1,1 1,0 1,1 1,1 1,1 12,0 1,-1 0,-1 1,-1 0,-1 1,-1 0,-1 2,-2 -1,0 -1,-1 -1,0 -1,-1 -3,0 -1,-1 -8,0 -1,-1 -2,0 -1,-1 -2,0 -1,-1 -2,0 -1,-1 -2,0 -1,-1 -1,0 -1,1Z"/>
<path onmouseover="hoverPath(evt)" onmouseout="recoverPath(evt)" fill="rgb(244,243,234)" d="M  143,85l -1,0 0,3 -1,1 -1,1 0,1 -1,1 0,1 -1,1 -1,1 -1,1 -1,1 0,1 3,0 1,1 1,0 1,1 2,0 1,1 1,0 1,-1 2,0 1,-1 1,0 1,-1 1,0 1,-1 1,0 1,-1 1,0 1,-1 1,0 1,-1 1,0 1,-1 1,0 1,-1 1,0 1,-1 1,-1 1,0 0,-1 1,-1 1,-1 1,-1 0,-2 1,-1 0,-1 -1,0 -1,1 -2,0 -1,1 -2,0 -1,1 -8,0 -1,1 -7,0 -1,-1Z"/>
<path onmouseover="hoverPath(evt)" onmouseout="recoverPath(evt)" fill="rgb(242,241,231)" d="M  223,196l 2,0 1,-1 1,0 -1,-1 0,0 -1,-1 0,-1 -1,-1 0,-1 -1,-1 -1,-1 -2,0 -1,-1 -1,0 -1,1 -3,0 -1,1 -1,0 -1,1 0,2 1,1 0,5 3,0 1,-1 4,0 1,-1Z"/>
<path onmouseover="hoverPath(evt)" onmouseout="recoverPath(evt)" fill="rgb(244,243,237)" d="M  226,206l -1,0 0,2 1,1 0,2 1,1 1,1 5,0 1,1 3,0 1,1 2,0 1,1 2,0 1,1 3,0 1,1 2,0 1,-1 4,0 0,-14 -4,0 -1,-1 -8,0 -1,1 -7,0 -1,1 -3,0 -1,1 -2,0 -1,1Z"/>
<path onmouseover="hoverPath(evt)" onmouseout="recoverPath(evt)" fill="rgb(249,250,249)" d="M  1,123l -1,0 0,1 31,0 1,1 0,2 -1,1 0,1 -1,1 0,1 -1,1 -1,1 0,1 -1,1 -1,1 -2,0 1,1 0,2 -1,1 0,2 -1,1 0,4 -1,1 0,8 1,1 0,1 1,1 0,2 2,0 1,-1 4,0 1,-1 3,0 1,-1 3,0 1,-1 4,0 1,-1 10,0 1,1 19,0 1,1 6,0 1,-1 4,0 1,1 2,0 1,1 2,0 1,1 2,0 1,1 0,2 2,0 1,1 1,0 1,-1 3,0 1,1 1,0 1,1 1,1 1,1 1,1 1,1 1,1 1,1 2,2 1,1 1,1 0,1 1,1 1,1 1,1 1,1 1,1 1,1 0,3 1,1 1,1 1,1 0,1 1,0 1,1 0,1 1,1 1,1 0,1 1,1 1,1 0,1 1,1 0,1 3,0 1,1 1,0 1,1 2,0 1,1 2,0 1,1 2,0 1,1 2,0 1,1 2,0 1,1 2,0 1,1 8,0 1,1 3,0 1,1 1,0 1,1 1,0 1,1 2,0 1,-1 12,0 1,-1 3,0 1,-1 3,0 1,-1 1,0 1,-1 1,0 1,-1 1,0 1,-1 2,0 1,-1 2,0 1,-1 2,0 1,-1 3,0 1,-1 3,0 1,-1 9,0 1,-1 5,0 1,-1 6,0 1,-1 8,0 1,1 1,0 0,-3 -11,0 -1,1 -6,0 -1,1 -5,0 -1,1 -3,0 -1,1 -4,0 -1,1 -4,0 -1,1 -4,0 -1,1 -2,0 -1,1 -2,0 -1,1 -1,0 -1,1 -1,0 -1,1 -2,0 -1,1 -1,0 -1,1 -4,0 -1,1 -5,0 -1,1 -12,0 -1,-1 -1,0 -1,-1 -2,0 -1,-1 -9,0 -1,-1 -2,0 -1,-1 -2,0 -1,-1 -1,0 -1,-1 -3,0 -1,-1 -1,0 -1,-1 0,-2 -1,-1 -1,-1 -1,-1 -2,0 -1,-1 -1,-1 -1,-1 0,-2 -1,0 -1,-1 -1,-1 -1,-1 -1,-1 0,-1 -1,-1 -1,-1 -1,-1 -1,-1 -1,0 -1,-1 0,-1 -1,0 -1,-1 -1,-1 -1,-1 -1,-1 0,-1 -1,-1 0,-1 -1,0 -1,-1 -1,-1 -1,-1 0,-1 -1,0 -3,-3 -1,-1 -1,-1 -1,0 -1,-1 -1,-1 -2,0 -1,-1 -3,0 -1,-1 -2,0 -1,-1 -2,0 -1,-1 -3,0 -1,-1 -2,0 -1,-1 -4,0 -1,-1 -9,0 -1,-1 -11,0 -1,1 -14,0 -1,1 -4,0 -1,1 -3,0 -1,1 -2,0 -1,1 -2,0 -1,1 -2,0 -2,-2 0,-11 1,-1 0,-3 1,-1 0,-1 1,-1 0,-1 1,-1 0,-1 1,-1 0,-1 2,-2 0,-1 1,-1 1,-1 1,-1 1,-1 2,-2 1,-1 1,0 1,-1 1,0 1,-1 3,0 1,1 1,-1 12,0 1,-1 17,0 -7,-1 0,-2 1,-1 2,0 1,-1 1,0 1,-1 1,0 1,-1 1,-1 2,0 1,-1 1,0 1,-1 3,0 1,-1 4,0 1,-1 7,0 1,-1 3,0 1,-1 1,0 1,-1 1,0 1,-1 1,-1 2,0 1,-1 2,0 1,-1 3,0 1,-1 2,0 1,-1 2,0 1,-1 1,0 1,-1 1,0 1,-1 3,0 0,-1 2,-2 1,-1 1,-1 0,-1 1,-1 0,-1 1,-1 1,-1 0,-3 1,-1 -1,-1 -1,0 0,4 -1,1 -2,0 1,1 0,2 -1,1 -1,1 -2,0 0,2 -1,1 -2,0 -1,-1 0,2 -1,1 -1,0 -1,1 -2,0 -1,1 -2,0 -1,1 -2,0 -1,1 -3,0 -1,1 -3,0 -1,-1 0,2 -1,1 -1,0 -1,1 -1,1 -2,0 -1,1 -5,0 -1,1 -6,0 -1,1 -3,0 -1,1 -4,0 -1,-1 -1,1 -1,0 -1,1 -1,0 0,2 -1,1 -1,1 -2,0 -1,1 -2,0 -1,1 -12,0 -1,1 -8,0 -1,1 -2,0 -1,1 -2,0 -1,-1 0,2 -1,1 -3,0 -1,1Z"/>
<path onmouseover="hoverPath(evt)" onmouseout="recoverPath(evt)" fill="rgb(244,243,236)" d="M  5,167l 0,3 1,1 0,17 1,1 0,58 1,1 0,7 247,0 0,-33 -11,0 -1,-1 -4,0 -1,-1 -3,0 -1,-1 -2,0 -1,-1 -5,0 -1,-1 -1,0 -1,-1 -1,-1 -1,-1 0,-2 -1,-1 0,-3 -2,0 -1,1 -2,0 -1,1 -2,0 -1,1 -2,0 -1,1 -5,0 -1,1 -8,0 -1,1 -2,0 -1,-1 0,-1 -11,0 0,2 -1,1 -1,1 0,4 -1,1 0,2 -1,1 -2,0 -1,1 -5,0 -1,-1 -11,0 -1,1 0,0 -1,1 0,3 -1,1 0,4 -1,1 -1,1 -23,0 -1,-1 -2,0 -1,-1 -1,-1 -1,-1 -1,-1 0,-7 1,-1 0,-1 1,-1 0,-1 1,-1 0,-2 1,-1 0,-3 1,-1 0,-1 1,-1 1,-1 1,-1 1,0 1,-1 1,-1 2,0 1,-1 0,-2 -1,-1 0,-1 -1,-1 0,-1 -1,-1 0,-1 -1,-1 -1,-1 0,-1 -1,-1 -1,-1 0,-1 -1,0 -1,-1 0,-1 -1,-1 -1,-1 -1,-1 0,-3 -1,-1 -1,-1 -1,-1 -1,-1 -1,-1 -1,-1 0,-1 -1,-1 -1,-1 -1,-1 -1,-1 -1,-1 -1,-1 -1,-1 -1,-1 -1,-1 -1,-1 -1,0 -1,-1 -1,0 -1,1 -3,0 -1,-1 -2,0 -1,-1 0,-2 -2,0 -1,-1 -2,0 -1,-1 -2,0 -1,-1 -2,0 -1,1 -8,0 -1,-1 -18,0 -1,1 -6,0 -1,1 -2,0 -1,1 -4,0 -1,1 -2,0 -2,2 -1,1 -1,1 -1,0 -1,1 -9,0 -1,-1 -1,0 -1,-1 -7,0 -1,1 -3,0 -1,-1 -2,0 -1,1Z"/>
<path onmouseover="hoverPath(evt)" onmouseout="recoverPath(evt)" fill="rgb(241,239,228)" d="M  28,0l -28,0 0,8 3,0 1,1 20,0 1,1 1,0 1,1 10,0 1,-1 22,0 0,-1 -2,0 -1,-1 0,-1 -1,-1 0,-1 -1,-1 -1,-1 0,-3Z"/>
<path onmouseover="hoverPath(evt)" onmouseout="recoverPath(evt)" fill="rgb(246,235,137)" d="M  57,0l -1,0 0,2 1,1 0,0 1,1 0,1 1,1 0,1 2,0 1,1 0,2 1,1 0,2 1,1 0,2 1,1 0,1 1,1 1,1 0,1 1,1 1,1 0,1 1,1 0,1 1,1 1,0 1,1 0,2 1,1 1,0 1,1 0,2 1,1 1,1 1,1 1,1 1,1 1,0 1,1 0,1 1,1 1,1 1,1 2,0 1,1 0,1 2,2 1,1 1,1 1,1 1,0 1,1 1,1 1,1 1,0 1,1 1,1 1,0 1,1 1,1 1,0 1,1 1,1 1,0 1,1 1,0 1,1 1,1 1,0 1,1 1,1 1,0 1,1 1,1 1,0 1,1 1,1 1,0 1,1 1,1 1,0 1,1 1,1 1,0 1,1 1,0 1,1 0,1 1,1 1,0 1,1 1,0 1,1 1,1 4,0 1,1 1,1 0,1 4,0 1,1 5,0 1,-1 8,0 1,-1 2,0 1,-1 2,0 1,-1 2,0 0,-2 1,-1 2,0 1,-1 1,0 1,-1 1,0 1,-1 1,0 1,-1 1,-1 1,0 1,-1 2,0 1,-1 2,0 1,-1 4,0 1,-1 15,0 1,1 14,0 1,1 20,0 1,1 8,0 0,-4 -4,0 -1,-1 -17,0 -1,-1 -16,0 -1,-1 -22,0 -1,1 -3,0 -1,1 -2,0 -1,1 -2,0 -1,1 -1,0 -1,1 -1,0 -1,1 -1,0 -1,1 -1,0 -1,1 -1,1 -1,0 -1,1 -2,0 -1,1 -1,0 -1,1 -3,0 -1,1 -5,0 -1,1 -9,0 -1,-1 -2,0 -1,-1 -2,0 -1,-1 -1,-1 -1,0 -1,-1 -2,0 -1,-1 0,-1 -1,-1 -1,-1 -1,0 -1,-1 -1,-1 -1,0 -1,-1 -1,-1 -2,0 -1,-1 0,-1 -1,0 -1,-1 -1,-1 -1,0 -1,-1 -1,-1 -1,0 -1,-1 -1,-1 -1,0 -1,-1 -1,-1 -1,0 -1,-1 -1,0 -1,-1 -1,-1 -1,0 -1,-1 -1,-1 -1,0 -1,-1 -1,-1 -1,-1 -2,0 -1,-1 0,-1 -1,-1 -1,-1 -1,-1 -1,-1 -1,-1 -1,0 -1,-1 -1,0 -1,-1 0,-1 -1,-1 -1,-1 -1,-1 -1,0 -1,-1 0,-1 -1,-1 -1,-1 0,-1 -1,-1 -1,0 -1,-1 0,-2 -1,-1 -1,-1 0,-1 -1,-1 -1,-1 0,-1 -1,-1 0,-1 -1,-1 0,-1 -2,0 -1,-1 -1,-1 0,-2 1,-1 8,0 -9,-1 0,0 -1,-1 0,-1 -1,-1 -1,-1 0,-1 -1,-1 0,-3Z"/>
<path onmouseover="hoverPath(evt)" onmouseout="recoverPath(evt)" fill="rgb(243,241,232)" d="M  65,1l 0,1 1,1 0,1 1,1 1,1 0,1 1,1 8,0 0,-8 -11,0 -1,1Z"/>
<path onmouseover="hoverPath(evt)" onmouseout="recoverPath(evt)" fill="rgb(244,243,235)" d="M  74,17l 0,0 1,1 0,1 1,1 1,1 0,1 1,1 1,1 0,2 1,0 1,1 1,1 0,1 1,1 1,1 0,1 1,0 1,1 1,1 1,1 1,1 0,1 1,0 1,1 1,0 1,1 1,1 1,1 1,1 1,1 1,1 0,1 2,0 1,1 1,1 1,1 1,0 1,1 1,1 1,0 1,1 1,1 1,0 1,1 1,0 1,1 1,1 1,0 1,1 1,1 1,0 1,1 1,1 1,0 1,1 1,1 1,0 1,1 0,1 2,0 1,1 1,1 1,0 1,1 1,1 1,0 1,1 1,1 1,1 0,1 2,0 1,1 1,0 1,1 1,1 2,0 1,1 2,0 1,1 7,0 1,-1 5,0 1,-1 3,0 1,-1 1,0 1,-1 2,0 1,-1 1,0 1,-1 1,-1 1,0 1,-1 1,0 1,-1 1,0 1,-1 1,0 1,-1 2,0 1,-1 2,0 1,-1 3,0 1,-1 24,0 1,1 16,0 1,1 17,0 1,1 3,0 0,-52 -8,0 -1,1 -98,0 -1,1 -1,0 0,6 -1,1 -2,0 -1,-1 0,-6 -1,0 -1,-1 -14,0 -1,1 -52,0 1,1Z"/>
<path onmouseover="hoverPath(evt)" onmouseout="recoverPath(evt)" fill="rgb(187,214,143)" d="M  78,117l -1,0 -1,1 -1,0 -1,1 4,0 1,1 0,1 4,0 1,1 1,0 1,1 1,0 1,1 1,0 1,1 0,2 -1,1 -1,0 3,-4 4,0 1,1 9,0 0,-2 1,-1 2,0 1,1 0,1 1,-1 0,-2 1,-1 1,0 1,-1 1,-1 2,0 1,-1 8,0 1,1 1,0 1,1 0,1 1,0 1,1 0,1 4,0 1,1 4,0 1,1 2,0 1,1 0,1 4,0 1,1 2,0 1,-1 4,0 1,-1 2,0 1,1 6,0 0,-4 1,-1 3,0 1,-1 1,-1 0,-1 1,-1 1,-1 1,-1 1,-1 2,0 1,-1 1,-1 1,0 1,-1 8,0 1,-1 1,-1 5,0 1,1 1,1 2,0 1,-1 0,-2 1,-1 1,0 1,-1 3,0 1,1 2,0 1,-1 4,0 1,1 1,0 1,1 2,0 1,1 6,0 1,1 0,0 1,-1 4,0 1,-1 4,0 1,1 1,0 1,-1 1,0 1,-1 1,0 1,-1 1,0 1,-1 1,0 1,-1 1,0 1,-1 0,-3 1,-1 3,0 0,-26 -9,0 -1,-1 -20,0 -1,-1 -14,0 -1,-1 -13,0 -1,1 -4,0 -1,1 -2,0 -1,1 -2,0 -1,1 -1,0 -2,2 -1,0 -1,1 -1,0 -1,1 -1,0 -1,1 -2,0 0,5 -1,1 0,2 -1,1 -1,1 -1,1 0,1 -1,1 -1,0 -1,1 -1,1 -1,0 -1,1 -1,0 -1,1 -1,0 -1,1 -1,0 -1,1 -1,0 -1,1 -1,0 -1,1 -1,0 -1,1 -1,0 -1,1 -2,0 -1,1 -3,0 -1,-1 -2,0 -1,-1 -1,0 -1,-1 -3,0 -1,-1 -2,0 -1,1 -1,0 -1,1 -1,0 -1,1 -2,0 -1,1 -2,0 -1,1 -3,0 -1,1 -2,0 -1,1 -2,0 -1,1 -1,1 -1,0 -1,1 -1,0 -1,1 -3,0 -1,1 -7,0 -1,1 -4,0 -1,1 -3,0 -1,1 -1,0 -1,1 -2,0 -1,1 -1,1Z"/>
<path onmouseover="hoverPath(evt)" onmouseout="recoverPath(evt)" fill="rgb(240,238,225)" d="M  98,1l 0,-1 -17,0 0,9 1,0 1,1 13,0 1,-1 1,0Z"/>
<path onmouseover="hoverPath(evt)" onmouseout="recoverPath(evt)" fill="rgb(241,240,229)" d="M  105,0l -2,0 0,7 1,1 0,1 2,0 1,1 2,0 1,-1 31,0 0,-1 1,-1 0,-7Z"/>
<path onmouseover="hoverPath(evt)" onmouseout="recoverPath(evt)" fill="rgb(171,198,238)" d="M  128,211l 0,0 -1,1 0,1 -1,1 0,3 -1,1 0,2 -1,1 0,1 -1,1 0,1 -1,1 0,5 1,1 1,1 1,1 2,0 1,1 21,0 1,-1 0,-4 1,-1 0,-3 2,-2 1,-1 13,0 1,1 3,0 1,-1 2,0 0,-2 1,-1 0,-4 1,-1 1,-1 -2,0 -1,1 0,0 -1,1 0,1 -1,1 0,1 -1,1 0,1 -1,1 -1,1 -1,0 -40,-11 26,10 -1,-1 -1,-1 -1,0 -1,-1 -1,-1 -1,-1 -1,0 -1,-1 -1,-1 -1,-1 -1,-1 0,-1 -1,-1 0,-1 -1,-1 -1,-1 0,-3 1,-1 -2,0 -1,-1 -1,0 -1,-1 -1,0 1,1 0,4 -1,1 -1,1 -2,0 -1,1 -1,1 -1,0 25,11 -26,-10Z"/>
<path onmouseover="hoverPath(evt)" onmouseout="recoverPath(evt)" fill="rgb(189,215,146)" d="M  133,167l -1,0 0,1 1,1 0,0 1,1 0,1 1,1 2,2 1,1 1,1 1,1 2,2 1,1 1,1 1,1 3,0 1,1 6,0 1,-1 1,0 1,-1 1,0 1,-1 1,-1 1,-1 1,-1 1,-1 1,0 1,-1 1,0 1,-1 12,0 1,1 1,1 1,1 1,1 1,1 0,3 1,1 0,6 1,1 0,2 1,1 1,1 0,1 1,1 2,0 1,1 2,0 1,1 2,0 1,1 1,0 1,1 1,1 0,1 1,-1 1,0 1,-1 2,0 1,-1 2,0 0,-5 -1,-1 0,-4 2,-2 1,0 1,-1 3,0 1,-1 3,0 1,1 2,0 1,1 1,1 1,1 0,1 1,1 0,1 1,1 1,1 0,1 1,-1 5,0 1,-1 6,0 1,-1 12,0 0,-14 -6,0 -1,-1 0,-2 -1,0 0,2 -1,1 0,1 -1,1 -1,1 -1,1 -3,0 -1,-1 -14,0 -1,1 -3,0 -1,-1 -1,-1 -2,0 -1,-1 -1,-1 -8,0 -1,-1 0,-1 -2,0 -1,1 -1,1 -1,1 -2,0 -1,1 -2,0 -1,-1 -1,-1 -1,-1 -1,0 -1,-1 -1,-1 -1,0 -1,-1 -1,-1 -1,0 -1,-1 0,-2 -1,0 -1,1 -9,0 -1,-1 0,-2 -1,0 -1,1 -1,1 -2,0 -1,1 -5,0 -1,-1 -11,0 -1,1 -5,0 -1,-1 -2,0 -1,-1 -1,0 -1,1 -2,0 -1,-1 0,-1 -1,-1Z"/>
<path onmouseover="hoverPath(evt)" onmouseout="recoverPath(evt)" fill="rgb(197,219,161)" d="M  139,135l -2,0 0,2 1,0 1,1 0,2 1,1 0,1 1,-2 1,0 1,-1 1,-1 3,0 1,1 1,0 1,-1 2,0 1,1 0,1 2,0 1,-1 4,0 1,-1 2,0 1,-1 1,-1 1,-1 4,0 1,-1 4,-4 2,0 1,-1 1,-1 2,0 1,-1 1,0 1,-1 1,-1 0,-1 1,-1 2,0 1,-1 9,0 1,-1 6,0 1,-1 2,0 1,-1 3,0 1,1 5,0 1,1 5,0 1,-1 2,0 1,-1 4,0 1,1 1,0 0,-2 1,-1 2,0 1,-1 3,0 1,1 1,0 1,-1 3,0 1,-1 2,0 1,-1 4,0 0,-13 -2,0 0,3 -1,1 -1,1 -1,0 -1,1 -1,0 -1,1 -1,0 -1,1 -1,0 -1,1 -1,0 -1,1 -3,0 -1,-1 -2,0 -1,1 -4,0 0,1 -1,1 -2,0 -1,-1 0,-1 -6,0 -1,-1 -2,0 -1,-1 -1,0 -1,-1 -2,0 -1,1 -4,0 -1,-1 -1,0 -1,1 -1,0 0,2 -1,1 -1,1 -4,0 -1,-1 -1,-1 -3,0 -1,1 0,0 -1,1 -8,0 -1,1 -1,0 -2,2 -2,0 -1,1 -1,1 -1,1 0,1 -1,1 -1,1 -1,1 -3,0 0,4 -1,1 -8,0 -1,-1 -1,1 -4,0 -1,1 -4,0 -1,-1 -3,0 0,2 -1,1 -1,0 -1,1 0,2 -1,1Z"/>
<path onmouseover="hoverPath(evt)" onmouseout="recoverPath(evt)" fill="rgb(250,250,246)" d="M  155,0l -11,0 0,8 -1,1 0,1 -1,1 -31,0 -1,1 -4,0 -1,-1 -2,0 -1,-1 0,-1 -1,-1 0,-8 -1,0 0,10 -1,1 -1,0 -1,1 -15,0 -1,-1 -1,0 -1,-1 0,-10 -1,10 0,1 -1,1 -8,0 1,1 54,0 1,-1 16,0 1,1 1,0 1,1 0,0 1,-1 1,0 1,-1 98,0 1,-1 9,0 0,-1 -20,0 -1,1 -3,0 -1,-1 -2,0 -1,-1 0,-2 -1,-1 0,3 -1,1 -1,0 -1,1 -52,0 -1,-1 -1,-1 0,-9Z"/>
<path onmouseover="hoverPath(evt)" onmouseout="recoverPath(evt)" fill="rgb(243,246,239)" d="M  195,157l 0,0 1,-1 2,0 1,-1 3,0 1,1 0,1 1,1 5,0 1,1 3,0 1,1 0,-3 1,-1 4,0 -3,-1 0,-3 1,-1 1,-1 1,0 -3,1 -7,0 -1,-1 0,-4 1,-1 7,0 -1,-1 -2,0 -1,-1 -2,0 -1,-1 -3,0 -1,-1 -1,0 -1,1 -1,0 0,2 1,1 0,6 -1,1 -1,0 0,1 -1,1 -5,3 3,-2 -4,0 0,1 1,0 3,-1 -3,2Z"/>
<path onmouseover="hoverPath(evt)" onmouseout="recoverPath(evt)" fill="rgb(195,218,157)" d="M  216,159l 0,1 1,1 1,1 0,3 -1,1 0,1 -1,1 -3,0 0,1 -1,1 -2,0 0,4 6,0 1,1 0,2 1,1 2,0 1,1 1,1 1,0 1,-1 16,0 1,1 1,0 1,-1 1,-1 0,-1 1,-1 0,-2 1,-1 3,0 1,1 0,2 5,0 0,-48 -2,0 -1,1 -1,0 -1,1 0,2 -1,1 -1,1 -1,0 -1,1 -1,1 -1,0 -1,1 -1,1 -1,0 -1,1 -1,1 -2,0 0,1 -1,1 -2,0 -1,-1 0,-6 -1,0 -1,-1 -1,0 1,1 0,2 -1,1 -1,1 0,1 -1,1 -3,0 -1,1 -2,0 -1,1 -4,0 1,1 0,2 -1,1 -7,0 0,2 6,0 1,-1 3,0 1,1 0,2 -1,1 -1,0 -1,1 0,1 2,0 1,1 0,2 -1,1 -3,0 -1,1Z"/>
<path onmouseover="hoverPath(evt)" onmouseout="recoverPath(evt)" fill="rgb(241,240,228)" d="M  224,5l 0,-5 -53,0 0,8 1,1 50,0 1,-1 1,0Z"/>
<path onmouseover="hoverPath(evt)" onmouseout="recoverPath(evt)" fill="rgb(242,240,230)" d="M  229,0l -1,0 0,5 1,1 0,2 2,0 1,1 1,0 1,-1 21,0 0,-8Z"/>
<path onmouseover="hoverPath(evt)" onmouseout="recoverPath(evt)" fill="rgb(183,203,228)" d="M  254,219l -2,0 -1,1 -4,0 -1,-1 -3,0 -1,-1 -2,0 -1,-1 -2,0 -1,-1 -3,0 -1,-1 -5,0 -1,-1 -1,-1 -1,-1 0,-2 -1,-1 0,-4 1,-1 1,0 1,-1 2,0 1,-1 3,0 1,-1 7,0 1,-1 10,0 1,1 3,0 0,-2 -2,0 -1,-1 -6,0 -1,1 -6,0 -1,1 -5,0 -1,1 -9,0 -1,1 -3,0 -1,1 -3,0 -1,1 -2,0 -1,1 -2,0 -1,1 -2,0 -1,1 -1,0 -1,1 -1,0 -1,1 -1,0 -1,1 -3,0 -1,1 -3,0 0,1 4,-1 5,0 1,-1 5,0 1,-1 2,0 1,-1 2,0 1,-1 2,0 1,-1 4,0 1,1 0,3 1,1 0,2 1,1 1,1 1,0 1,1 5,0 1,1 2,0 1,1 3,0 1,1 2,0 -6,-2 -11,-3 -1,-1 -1,-3 31,9 -9,1 10,0 0,-1 -10,1 9,-1Z"/>
</svg>