<svg width="256" height="256" xmlns="http://www.w3.org/2000/svg"><script> 
var tempColor;
function hoverPath(evt){
obj = evt.target;
tempColor = obj.getAttribute("fill");
obj.setAttribute("fill","red");
//alert(tempColor);
//obj.setAttribute("stroke","red");}
function recoverPath(evt){
obj = evt.target;
obj.setAttribute("fill", tempColor);
//obj.setAttribute("stroke", tempColor);
}</script><path onmouseover="hoverPath(evt)" onmouseout="recoverPath(evt)" fill="rgb(244,243,235)" d="M  0,212l 0,43 50,0 0,-6 -1,-1 0,-5 -1,-1 0,-4 -1,-1 0,-5 -1,-1 0,-4 -1,-1 0,-4 -1,-1 0,-5 -1,-1 0,-4 -42,0 -1,1Z"/>
<path onmouseover="hoverPath(evt)" onmouseout="recoverPath(evt)" fill="rgb(171,198,238)" d="M  140,200l 0,1 1,1 0,1 1,1 0,3 1,1 0,3 1,1 0,6 1,1 0,2 1,1 0,1 1,1 0,1 1,1 0,1 1,1 1,1 0,1 1,1 1,1 1,1 1,1 1,1 1,1 1,0 1,1 1,1 1,0 1,1 1,0 1,1 1,1 1,1 1,0 1,1 1,0 1,1 1,1 1,1 1,1 1,1 1,1 1,1 1,1 1,1 0,3 4,0 0,-1 -1,-1 0,-1 -1,-1 0,-1 -1,-1 -1,-1 -1,-1 -1,-1 -1,-1 -1,-1 -1,0 -1,-1 -1,-1 -1,-1 -1,0 -1,-1 -1,-1 -1,-1 -1,0 -1,-1 -1,0 -1,-1 -1,-1 -1,-1 -1,-1 -1,0 -1,-1 -2,-2 0,-1 -1,-1 -1,-1 -1,-1 0,-1 -1,-1 -1,-1 0,-1 -1,-1 0,-2 -1,-1 0,-3 -1,-1 0,-4 -1,-1 0,-3 -1,-1 0,-3 -1,-1 0,-1 -1,-1 -1,0 -1,1Z"/>
<path onmouseover="hoverPath(evt)" onmouseout="recoverPath(evt)" fill="rgb(244,243,235)" d="M  145,79l -3,0 0,2 1,1 0,1 1,1 0,1 1,1 0,1 1,1 0,1 1,1 0,2 1,1 0,1 1,1 0,1 1,1 0,1 1,1 0,1 1,1 0,1 1,1 0,1 1,1 0,1 2,0 1,-1 1,0 1,-1 1,0 1,-1 2,0 1,-1 1,0 1,-1 1,0 1,-1 1,0 1,-1 2,0 1,-1 2,0 1,-1 2,0 1,-1 2,0 1,-1 3,0 1,-1 2,0 1,-1 3,0 1,-1 2,0 1,-1 2,0 1,-1 2,0 1,-1 3,0 1,-1 21,0 1,-1 4,0 1,-1 2,0 1,-1 3,0 1,-1 12,0 1,-1 2,0 0,-37 -3,0 -1,1 -5,0 -1,1 -8,0 -1,1 -29,0 -1,-1 -2,0 -1,-1 -2,0 -1,-1 -5,0 -1,1 -3,0 -1,1 -5,0 -1,1 -6,0 0,1 1,1 0,2 -1,1 -1,1 -2,0 -1,-1 0,-4 -1,1 -2,0 1,1 0,2 -1,1 -4,0 -1,-1 -1,-1 -4,0 -1,1 -3,0 -1,1 -4,0 -1,1 -4,0 -1,1 -3,0 -1,1 -6,0 -1,1 0,3 1,1 0,2 -1,1 0,2 -1,1 2,0 1,1 0,1 1,1 0,1 1,1 3,0 1,-1 3,0 1,-1 4,0 1,-1 4,0 1,-1 2,0 1,-1 4,0 1,-1 4,0 1,-1 5,0 1,1 0,3 -1,1 -3,0 -1,1 -3,0 -1,1 -4,0 -1,1 -3,0 -1,1 -3,0 -1,1 -4,0 -1,1 -3,0 -1,1Z"/>
<path onmouseover="hoverPath(evt)" onmouseout="recoverPath(evt)" fill="rgb(171,198,238)" d="M  157,108l -2,0 1,1 0,1 2,0 1,-1 1,0 1,-1 1,0 1,-1 1,0 1,-1 2,0 1,-1 2,0 1,-1 2,0 1,-1 2,0 1,-1 2,0 1,-1 2,0 1,-1 3,0 1,-1 2,0 1,-1 2,0 1,-1 3,0 1,-1 4,0 1,-1 3,0 1,-1 12,0 1,-1 9,0 1,-1 5,0 1,-1 3,0 1,-1 2,0 1,-1 2,0 1,-1 10,0 0,-3 -1,0 -1,1 -12,0 -1,1 -3,0 -1,1 -2,0 -1,1 -4,0 -1,1 -21,0 -1,1 -3,0 -1,1 -2,0 -1,1 -2,0 -1,1 -2,0 -1,1 -3,0 -1,1 -2,0 -1,1 -3,0 -1,1 -2,0 -1,1 -2,0 -1,1 -2,0 -1,1 -2,0 -1,1 -1,0 -1,1 -1,0 -1,1 -1,0 -1,1 -2,0 -1,1 -1,0 -1,1 -1,0 -1,1Z"/>
<path onmouseover="hoverPath(evt)" onmouseout="recoverPath(evt)" fill="rgb(244,243,236)" d="M  0,1l 0,14 2,0 1,1 1,1 4,4 1,1 1,1 0,1 1,1 1,1 0,1 1,1 0,1 1,1 0,1 1,1 0,1 1,1 1,1 1,1 1,1 1,1 2,0 1,1 2,0 1,1 2,0 1,1 2,0 1,1 2,0 1,1 1,1 1,0 1,1 1,0 1,1 1,1 1,1 1,1 1,0 1,1 1,0 1,1 8,0 1,-1 5,0 1,1 4,0 1,1 2,0 1,1 1,0 1,1 1,0 1,1 1,1 1,1 1,1 1,1 1,1 0,1 1,1 6,0 1,-1 4,0 1,-1 6,0 1,-1 6,0 1,-1 9,0 1,-1 4,0 1,-1 6,0 1,-1 2,0 1,-1 3,0 1,-1 2,0 1,-1 4,0 1,-1 4,0 1,-1 3,0 1,-1 4,0 1,-1 3,0 1,-1 5,0 1,-1 6,0 0,-1 1,-1 0,-1 -2,0 -1,-1 0,-2 -1,-1 0,-2 -1,-1 0,-2 -1,-1 0,-2 -1,-1 0,-4 1,-1 0,-7 1,-1 1,0 1,-1 4,0 1,1 1,0 0,-2 1,-1 1,0 1,-1 3,0 1,-1 1,0 1,-1 4,0 1,1 2,0 0,-2 1,-1 2,0 1,-1 2,0 1,-1 3,0 1,-1 3,0 1,1 1,0 0,-2 1,-1 1,0 1,-1 3,0 1,-1 2,0 1,-1 2,0 0,-1 -220,0 -1,1Z"/>
<path onmouseover="hoverPath(evt)" onmouseout="recoverPath(evt)" fill="rgb(244,243,236)" d="M  0,25l 0,33 2,0 1,1 1,1 1,1 1,1 1,1 0,1 1,1 0,1 1,1 0,1 2,0 1,1 0,1 1,1 0,1 1,1 0,1 1,1 0,2 -1,1 0,3 1,1 0,4 1,1 0,4 1,1 0,4 1,1 0,5 1,1 0,4 1,1 0,4 1,1 0,4 1,1 0,4 1,1 0,4 1,1 0,5 1,1 0,1 1,-1 3,0 1,-1 3,0 1,-1 25,0 1,-1 3,0 0,-1 1,-1 1,0 1,-1 1,-1 1,-1 -1,-1 -1,0 -1,-1 -1,-1 -1,-1 -1,-1 -1,-1 -1,-1 -1,-1 0,-16 1,-1 0,-3 1,-1 0,-1 1,-1 2,-2 1,-1 1,-1 1,-1 1,-1 1,-1 1,-1 1,-1 0,-1 1,-1 1,-1 0,-1 1,-1 0,-3 1,-1 0,-8 -1,-1 0,-2 -1,-1 0,-1 -1,-1 -1,-1 -1,-1 0,-1 -1,-1 -1,-1 -2,0 -1,-1 -11,0 -1,1 -4,0 -1,-1 -3,0 -1,-1 -1,0 -1,-1 -1,0 -1,-1 -1,-1 -1,0 -1,-1 -1,-1 -1,-1 -1,0 -1,-1 -1,0 -1,-1 -2,0 -1,-1 -2,0 -1,-1 -2,0 -1,-1 -2,0 -1,-1 -1,0 -1,-1 -2,0 -1,-1 -1,0 -1,-1 -1,-1 -1,-1 0,-1 -1,-1 0,-1 -1,-1 0,-1 -1,-1 0,-2 -1,-1 0,-1 -1,-1 -1,-1 -1,-1 -1,-1 -1,-1 -1,1Z"/>
<path onmouseover="hoverPath(evt)" onmouseout="recoverPath(evt)" fill="rgb(253,253,252)" d="M  0,61l 0,2 2,0 1,1 1,1 0,1 1,1 0,1 1,1 0,1 1,1 0,1 1,1 0,1 1,1 0,1 1,1 0,1 1,1 0,3 1,1 0,5 1,1 0,4 1,1 0,5 1,1 0,3 1,1 0,4 1,1 0,4 1,1 0,5 1,1 0,4 1,1 0,4 1,1 0,7 1,1 0,2 1,1 0,3 1,1 0,5 1,1 0,4 1,1 0,4 1,1 0,4 1,1 0,4 1,1 0,4 1,1 0,4 1,1 0,5 1,1 0,4 1,1 0,5 1,0 0,-5 -1,-1 0,-5 -1,-1 0,-4 -1,-1 0,-4 -1,-1 0,-4 -1,-1 0,-4 -1,-1 0,-5 -1,-1 0,-4 -1,-1 0,-4 -1,-1 0,-4 -1,-1 0,-7 -1,-1 0,-1 -1,-1 0,-5 -1,-1 0,-4 -1,-1 0,-4 -1,-1 0,-4 -1,-1 0,-4 -1,-1 0,-4 -1,-1 0,-5 -1,-1 0,-4 -1,-1 0,-4 -1,-1 0,-4 -1,-1 0,-5 1,-1 -1,-1 0,-1 -1,-1 0,-1 -1,-1 0,-1 -2,0 -1,-1 0,-1 -1,-1 0,-1 -1,-1 0,-1 -1,-1 -1,-1 -1,-1 -1,-1 -1,1Z"/>
<path onmouseover="hoverPath(evt)" onmouseout="recoverPath(evt)" fill="rgb(237,238,233)" d="M  0,69l 0,65 3,0 1,-1 4,0 1,1 2,0 1,1 2,0 1,1 2,0 1,1 1,0 0,-6 -1,-1 0,-4 -1,-1 0,-4 -1,-1 0,-5 -1,-1 0,-4 -1,-1 0,-4 -1,-1 0,-3 -1,-1 0,-5 -1,-1 0,-4 -1,-1 0,-5 -1,-1 0,-3 -1,-1 0,-1 -1,-1 0,-1 -1,-1 0,-1 -1,-1 0,-1 -1,-1 0,-1 -1,-1 0,-1 -1,-1 0,-1 -1,-1 -1,0Z"/>
<path onmouseover="hoverPath(evt)" onmouseout="recoverPath(evt)" fill="rgb(244,243,235)" d="M  0,137l 0,60 30,0 1,1 0,-5 -1,-1 0,-4 -1,-1 0,-5 -1,-1 0,-4 -1,-1 0,-4 -1,-1 0,-4 -1,-1 0,-4 -1,-1 0,-4 -1,-1 0,-4 -1,-1 0,-5 -1,-1 0,-3 -1,-1 0,-2 -3,0 -1,-1 -2,0 -1,-1 -2,0 -1,-1 -2,0 -1,-1 -2,0 -1,1 -3,0 -1,1Z"/>
<path onmouseover="hoverPath(evt)" onmouseout="recoverPath(evt)" fill="rgb(248,237,138)" d="M  0,201l 0,8 42,0 0,-1 1,-1 4,0 1,1 4,0 1,-1 9,0 1,-1 9,0 1,-1 9,0 1,-1 9,0 1,-1 9,0 1,-1 9,0 1,-1 9,0 1,-1 9,0 1,-1 5,0 0,-1 1,-1 4,0 1,1 7,0 1,-1 9,0 1,-1 10,0 1,-1 17,0 1,-1 17,0 1,-1 17,0 1,-1 17,0 1,-1 10,0 0,-11 -5,0 -1,1 -16,0 -1,1 -16,0 -1,1 -17,0 -1,1 -16,0 -1,1 -11,0 -1,1 -2,0 -1,1 -2,0 -1,-1 -6,0 -1,1 -8,0 0,1 -1,1 -6,0 -1,-1 -2,0 0,1 -1,1 -4,0 -1,1 -5,0 -1,-1 -8,0 -1,1 -9,0 -1,1 -9,0 -1,1 -9,0 -1,1 -9,0 -1,1 -9,0 -1,1 -9,0 -1,1 -8,0 0,1 -1,1 -4,0 -1,-1 -6,0 -1,1 -2,0 -1,1 -2,0 -1,-1 -29,0Z"/>
<path onmouseover="hoverPath(evt)" onmouseout="recoverPath(evt)" fill="rgb(244,243,236)" d="M  27,140l -1,0 0,3 1,1 0,4 1,1 0,4 1,1 0,4 1,1 0,5 1,1 0,4 1,1 0,4 1,1 0,4 1,1 0,4 1,1 0,5 1,1 0,5 7,0 1,1 2,0 0,-1 1,-1 8,0 1,-1 9,0 1,-1 9,0 1,-1 9,0 1,-1 9,0 1,-1 9,0 1,-1 9,0 1,-1 9,0 1,-1 1,0 -1,-1 0,0 -1,-1 -1,-1 -1,-1 -1,-1 -1,-1 -3,-3 -1,-1 0,-1 -1,-1 -1,-1 -1,-1 -1,-1 -1,-1 0,-1 -1,-1 -1,-1 -1,-1 -1,-1 -1,-1 0,-1 -1,-1 -1,-1 -1,-1 0,-1 -1,-1 -1,-1 -1,-1 0,-1 -1,-1 -1,-1 0,-1 -1,-1 0,-1 -1,-1 0,-2 -1,-1 0,-2 -1,-1 0,-1 -1,-1 0,-2 -1,-1 -1,-1 0,-1 -1,-1 -1,-1 0,-1 -1,-1 -1,-1 0,-1 -1,0 -1,-1 -3,0 -1,-1 -2,0 -1,-1 -4,0 -1,1 0,0 -1,1 -1,0 -1,1 -1,1 -1,1 -2,0 0,1 -1,1 -1,0 -1,1 -3,0 -1,1 -21,0 -1,1 -2,0 -1,1 -2,0 -1,1Z"/>
<path onmouseover="hoverPath(evt)" onmouseout="recoverPath(evt)" fill="rgb(244,242,234)" d="M  94,129l 0,1 1,1 0,1 1,1 1,1 0,1 1,1 0,1 1,1 0,1 1,1 0,2 1,1 0,1 1,1 0,2 1,1 0,1 1,1 0,1 1,1 1,1 1,1 1,1 1,1 1,1 1,1 1,1 1,0 1,1 0,1 1,1 0,1 1,1 1,0 1,1 0,1 1,1 0,1 1,1 1,1 1,0 1,1 0,1 1,0 1,1 0,1 1,1 1,1 0,1 1,0 1,1 0,1 1,1 1,0 1,1 0,1 1,1 1,0 1,1 0,1 1,1 4,0 1,1 4,0 0,-1 1,-1 8,0 1,-1 8,0 1,1 0,-5 -1,-1 0,-5 -1,-1 0,-5 -1,-1 0,-5 -1,-1 0,-5 -1,-1 0,-6 -1,-1 0,-6 -1,-1 0,-4 -1,-1 0,-2 -1,-1 0,-3 -1,-1 0,-3 -1,-1 0,-3 -1,-1 0,-3 -1,-1 0,-2 -1,1 -2,0 -1,1 -3,0 -1,1 -4,0 -1,1 -6,0 -1,1 -6,0 -1,1 -7,0 -1,1 -9,0 -1,1 -3,0 -1,1 -1,0 -1,1 -1,0 -1,1 -1,0 -1,1 -1,0 -1,1 0,1 10,19 -1,-1 0,-2 1,-1 2,0 1,1 2,0 1,1 0,2 -1,1 -2,0 -1,-1 -2,0 -10,-19Z"/>
<path onmouseover="hoverPath(evt)" onmouseout="recoverPath(evt)" fill="rgb(244,243,237)" d="M  146,201l 0,3 1,1 0,3 1,1 0,4 1,1 0,3 1,1 0,2 1,1 0,1 1,1 1,1 0,1 1,1 1,1 1,1 0,1 1,1 1,1 1,0 1,1 1,1 1,1 1,1 1,0 1,1 1,0 1,1 1,1 1,1 1,0 1,1 1,1 1,1 1,0 1,1 1,1 1,1 1,1 1,1 1,1 1,1 0,1 1,1 0,1 1,1 0,2 72,0 0,-62 -9,0 -1,1 -17,0 -1,1 -17,0 -1,1 -17,0 -1,1 -17,0 -1,1 -10,0 -1,1 -9,0 -1,1 -5,0 -1,1Z"/>
<path onmouseover="hoverPath(evt)" onmouseout="recoverPath(evt)" fill="rgb(244,243,236)" d="M  157,112l -1,0 0,3 1,1 0,3 1,1 0,3 1,1 0,3 1,1 0,2 1,1 0,3 1,1 0,3 1,1 0,7 1,1 0,6 1,1 0,5 1,1 0,5 1,1 0,5 1,1 0,5 1,1 0,5 10,0 1,-1 16,0 1,-1 17,0 1,-1 16,0 1,-1 16,0 1,-1 6,0 0,-88 -9,0 -1,1 -2,0 -1,1 -2,0 -1,1 -3,0 -1,1 -5,0 -1,1 -9,0 -1,1 -12,0 -1,1 -3,0 -1,1 -4,0 -1,1 -3,0 -1,1 -2,0 -1,1 -2,0 -1,1 -3,0 -1,1 -2,0 -1,1 -2,0 -1,1 -2,0 -1,1 -2,0 -1,1 -2,0 -1,1 -2,0 -1,1 -1,0 -1,1 -1,0 -1,1 -1,0 -1,1Z"/>
<path onmouseover="hoverPath(evt)" onmouseout="recoverPath(evt)" fill="rgb(175,200,239)" d="M  238,45l -31,0 -1,-1 -2,0 -1,-1 -7,0 -1,1 -4,0 -1,1 -5,0 -1,1 -5,0 -1,1 -2,0 -1,-1 0,2 1,1 0,4 1,-1 0,0 -1,-4 3,-1 4,0 2,-1 4,0 2,-1 2,0 3,-1 5,0 1,1 2,0 1,1 2,0 1,1 27,0 1,-1 1,0 1,-1 1,1 5,0 1,-1 5,0 1,-1 4,0 0,-1 -3,0 -2,1 -9,0 -1,1 -1,1 -1,-1Z"/>
<path onmouseover="hoverPath(evt)" onmouseout="recoverPath(evt)" fill="rgb(254,254,254)" d="M  45,210l 0,4 1,1 0,5 1,1 0,4 1,1 0,4 1,1 0,5 1,1 0,4 1,1 0,5 1,1 0,7 2,0 0,-2 -1,-1 0,-4 -1,-1 0,-5 -1,-1 0,-5 -1,-1 0,-4 -1,-1 0,-5 -1,-1 0,-4 -1,-1 0,-4 -1,-1 0,-3 -1,-1Z"/>
<path onmouseover="hoverPath(evt)" onmouseout="recoverPath(evt)" fill="rgb(244,243,236)" d="M  50,210l -2,0 0,3 1,1 0,4 1,1 0,4 1,1 0,5 1,1 0,4 1,1 0,5 1,1 0,5 1,1 0,4 1,1 0,3 119,0 0,-2 -1,-1 0,0 -1,-1 -1,-1 -1,-1 -1,-1 -1,-1 -1,-1 -1,-1 -1,0 -1,-1 -1,0 -1,-1 -1,-1 -1,-1 -1,0 -1,-1 -1,0 -1,-1 -1,-1 -1,0 -1,-1 -1,-1 -1,-1 -1,-1 -1,-1 -1,-1 -1,-1 0,-1 -1,-1 -1,-1 0,-1 -1,-1 0,-1 -1,-1 0,-1 -1,-1 0,-2 -1,-1 0,-6 -1,-1 0,-3 -1,-1 0,-3 -1,-1 0,-1 -1,-1 0,-1 -4,0 -1,1 -9,0 -1,1 -9,0 -1,1 -9,0 -1,1 -9,0 -1,1 -9,0 -1,1 -9,0 -1,1 -9,0 -1,1 -9,0 -1,1Z"/>
<path onmouseover="hoverPath(evt)" onmouseout="recoverPath(evt)" fill="rgb(254,254,254)" d="M  135,78l 2,0 1,1 0,1 1,1 0,1 1,1 0,1 1,1 0,2 1,1 0,1 1,1 0,1 1,1 0,1 1,1 0,2 1,1 0,1 1,1 0,1 1,1 0,1 1,1 0,1 1,1 0,1 1,1 0,3 1,1 0,2 1,1 0,2 1,1 0,3 1,1 0,3 1,1 0,3 1,1 0,3 1,1 0,2 1,1 0,4 1,1 0,6 1,1 0,6 1,1 0,5 1,1 0,5 1,1 0,5 1,1 0,5 1,1 0,5 1,0 0,-5 -1,-1 0,-5 -1,-1 0,-5 -1,-1 0,-5 -1,-1 0,-5 -1,-1 0,-6 -1,-1 0,-7 -1,-1 0,-3 -1,-1 0,-3 -1,-1 0,-2 -1,-1 0,-3 -1,-1 0,-3 -1,-1 0,-3 -1,-1 0,-6 -1,-1 0,-1 -1,-1 0,-1 -1,-1 0,-1 -1,-1 0,-1 -1,-1 0,-1 -1,-1 0,-1 -1,-1 0,-1 -1,-1 0,-1 -1,-1 0,-2 -1,-1 0,-1 -1,-1 0,-1 -1,-1 0,-1 -1,-1 0,-1 -1,-1 0,-4 1,-1 3,0 1,-1 3,0 1,-1 4,0 1,-1 3,0 1,-1 3,0 1,-1 4,0 1,-1 3,0 1,-1 3,0 0,-1 -3,0 -1,1 -4,0 -1,1 -4,0 -1,1 -2,0 -1,1 -4,0 -1,1 -4,0 -1,1 -3,0 -1,1 -5,0 -1,-1 -1,-1 0,3 -1,1Z"/>
<path onmouseover="hoverPath(evt)" onmouseout="recoverPath(evt)" fill="rgb(244,242,235)" d="M  75,91l -1,0 -1,1 -1,1 0,1 -3,3 -1,1 0,1 -1,1 0,2 -1,1 0,10 1,1 0,2 1,1 1,1 1,1 1,1 1,0 1,1 1,0 1,1 2,0 1,1 2,0 1,1 3,0 1,1 7,0 1,1 1,-1 1,0 0,-3 1,-1 1,0 1,-1 1,0 1,-1 1,0 1,-1 1,0 1,-1 2,0 1,-1 17,0 1,-1 4,0 1,-1 3,0 1,-1 4,0 1,-1 3,0 1,-1 2,0 1,-1 1,0 1,-1 1,0 0,-1 -1,-1 0,-1 -1,-1 0,-1 -1,-1 0,-1 -1,-1 0,-1 -1,-1 0,-1 -1,-1 0,-2 -1,-1 0,-1 -1,-1 0,-1 -1,-1 0,-1 -1,-1 0,-2 -1,-1 0,-1 -1,-1 0,-1 -1,-1 0,-1 -5,0 -1,1 -4,0 -1,-1 -2,0 0,2 -1,1 -2,0 -1,1 -2,0 -1,1 -2,0 -1,1 -2,0 -1,1 -2,0 -1,1 -4,0 -1,-1 -1,1 0,1 1,1 0,3 -1,1 0,1 -1,1 -6,0 -1,-1 -2,0 -1,-1 -4,0 -1,-1 -4,0 -1,1 0,1 -1,1 -2,0 -1,-1 0,-2 1,-1 -1,-1Z"/>
<path onmouseover="hoverPath(evt)" onmouseout="recoverPath(evt)" fill="rgb(172,198,238)" d="M  76,79l 0,3 -1,1 0,1 -1,1 -1,1 0,1 -1,1 -1,1 -2,2 -1,1 -1,1 -1,1 -1,1 -1,1 -1,1 0,1 -1,1 0,3 -1,1 0,14 1,1 1,1 1,1 1,1 1,1 1,1 1,0 1,1 1,1 0,2 -1,1 -2,2 -1,1 -1,0 0,1 -1,1 -3,0 -1,1 -25,0 -1,1 -3,0 -1,1 -3,0 -1,1 0,1 5,0 1,-1 2,0 1,-1 2,0 1,-1 21,0 17,-56 -15,55 2,0 2,-1 2,-2 1,0 1,-1 1,-1 1,-1 1,0 1,-1 1,-1 6,0 1,1 2,0 1,1 3,0 1,1 1,0 1,1 0,1 1,1 1,1 0,1 1,1 1,1 0,1 1,1 1,1 0,2 1,1 0,1 1,1 0,2 1,1 0,2 1,1 0,1 1,1 0,1 1,1 1,1 0,1 1,1 1,1 1,1 0,1 2,2 1,1 0,1 1,1 1,1 1,1 1,1 1,1 0,1 1,1 1,1 1,1 1,1 1,1 0,1 1,1 1,1 2,2 1,1 1,1 1,1 1,1 1,1 1,1 0,2 -1,1 2,0 1,-1 4,0 -1,-1 0,0 -1,-1 0,-1 -1,0 -1,-1 -1,-1 0,-1 -1,0 -1,-1 -1,-1 0,-1 -1,0 -1,-1 0,-1 -1,-1 -1,-1 0,-1 -1,0 -1,-1 0,-1 -1,0 -1,-1 -2,-2 0,-1 -1,-1 0,-1 -1,0 -1,-1 -1,-1 0,-1 -1,-1 0,-1 -1,0 -1,-1 -1,-1 -1,-1 -1,-1 -1,-1 -1,-1 -1,-1 -1,-1 -1,-1 0,-1 -1,-1 0,-1 -1,-1 0,-2 -1,-1 0,-1 -1,-1 0,-2 -1,-1 0,-1 -1,-1 0,-1 -1,-1 0,-1 -1,-1 -1,-1 0,-1 -1,-1 0,-3 -1,-1 -7,0 -1,-1 -2,0 -20,8 15,-55 3,46 -2,0 -1,-1 -2,0 -1,-1 -1,0 -1,-1 -1,0 -1,-1 -1,-1 -1,-1 -1,-1 -1,-1 0,-2 -1,-1 0,-12 1,-1 0,-2 1,-1 0,-1 1,-1 1,-1 2,-2 0,-1 2,-2 1,-1 0,-1 -1,1 0,0 -1,1 -1,1 9,34 -3,-46 -2,7 1,0 0,-1 1,-2 1,-1 0,-2 1,-1 0,-2 1,-1 0,-10 1,-1 1,-1 -2,0 -1,-1 -1,-1 0,-1 -1,-1 -2,-2 -1,-1 -1,-1 -1,0 -1,-1 -1,0 -1,-1 -2,0 -1,-1 -4,0 -1,-1 -3,0 -1,1 -10,0 -1,-1 -1,0 -1,-1 -1,0 -1,-1 -1,-1 -1,-1 -1,-1 -1,0 -1,-1 -1,0 -1,-1 -1,-1 -2,0 -1,-1 -2,0 -1,-1 -2,0 -1,-1 -2,0 -1,-1 -2,0 -1,-1 -1,-1 -1,-1 -1,-1 -1,-1 -1,-1 0,-1 -1,-1 0,-1 -1,-1 0,-1 -1,-1 0,-1 -1,-1 -1,-1 0,-1 -1,-1 -1,-1 -1,-1 -1,-1 -2,-2 -1,-1 -1,0 0,5 2,0 1,1 1,1 1,1 1,1 1,1 1,1 0,1 1,1 0,2 1,1 0,1 1,1 0,1 1,1 0,1 2,2 1,0 1,1 2,0 1,1 1,0 1,1 2,0 1,1 2,0 1,1 2,0 1,1 2,0 1,1 1,0 1,1 1,0 1,1 1,1 1,1 1,0 1,1 1,1 1,0 1,1 1,0 1,1 3,0 1,1 2,0 1,-1 13,0 1,1 2,0 1,1 1,1 1,1 0,1 1,1 1,1 1,1 0,1 1,1 0,2 1,1 0,10 -3,8 2,-7Z"/>
<path onmouseover="hoverPath(evt)" onmouseout="recoverPath(evt)" fill="rgb(237,238,235)" d="M  81,67l 0,10 -1,1 0,2 -1,1 0,2 -1,1 -1,1 0,2 -1,1 -1,0 0,1 2,0 1,1 1,1 0,1 1,-1 6,0 1,1 4,0 1,1 2,0 1,1 4,0 0,-1 1,-1 0,-1 -1,-1 0,-3 1,-1 1,-1 2,0 1,1 2,0 1,-1 2,0 1,-1 2,0 1,-1 2,0 1,-1 2,0 1,-1 2,0 0,-2 1,-1 4,0 1,1 2,0 0,-2 1,-1 4,0 0,-2 -1,-1 0,-2 -1,-1 0,-2 1,-1 0,-2 1,-1 -1,-1 0,-5 1,-1 1,-1 -3,0 -1,1 -2,0 -1,1 -6,0 -1,1 -4,0 -1,1 -9,0 -1,1 -6,0 -1,1 -6,0 -1,1 -4,0 0,2 -1,1 -5,0 -1,1 55,-11 5,0 1,-1 3,0 1,-1 4,0 1,-1 4,0 1,-1 3,0 1,-1 6,0 1,1 1,1 2,0 -1,-1 0,-2 1,-1 2,0 1,-1 -5,0 -1,1 -5,0 -1,1 -3,0 -1,1 -4,0 -1,1 -3,0 -1,1 -4,0 -1,1 -4,0 -1,1 -1,0 -1,1 -55,11Z"/>
<path onmouseover="hoverPath(evt)" onmouseout="recoverPath(evt)" fill="rgb(172,198,238)" d="M  139,115l -4,0 -1,1 -3,0 -1,1 -4,0 -1,1 -17,0 -1,1 -2,0 -1,1 -1,0 -1,1 -1,0 -1,1 -1,0 -1,1 -1,0 0,1 2,-1 2,-1 2,-1 2,0 1,-1 9,0 1,-1 7,0 16,-4 -13,3 4,0 1,-1 6,0 1,-1 4,0 1,-1 3,0 1,-1 2,0 1,-1 0,-1 -1,-1 -1,1 -1,0 -1,1 -2,0 -1,1 -3,0 -14,4 13,-3Z"/>
<path onmouseover="hoverPath(evt)" onmouseout="recoverPath(evt)" fill="rgb(244,243,236)" d="M  170,23l 0,3 -1,1 0,2 1,1 0,2 1,1 0,2 1,1 0,2 1,1 0,2 2,0 1,1 0,2 1,1 1,-1 5,0 1,-1 5,0 1,-1 4,0 1,-1 9,0 1,1 2,0 1,1 31,0 1,-1 10,0 1,-1 4,0 0,-41 -32,0 0,2 -1,1 -2,0 -1,1 -2,0 -1,1 -3,0 -1,1 -1,0 0,2 -1,1 -3,0 -1,-1 -1,0 -1,1 -3,0 -1,1 -2,0 -1,1 -2,0 0,2 -1,1 -4,0 -1,-1 -2,0 -1,1 -1,0 -1,1 -3,0 -1,1 -1,0 0,2 -1,1 -3,0 -1,-1 -2,0 -1,1 -1,0Z"/>
</svg>