<svg width="256" height="256" xmlns="http://www.w3.org/2000/svg"><script> 
var tempColor;
function hoverPath(evt){
obj = evt.target;
tempColor = obj.getAttribute("fill");
obj.setAttribute("fill","red");
//alert(tempColor);
//obj.setAttribute("stroke","red");}
function recoverPath(evt){
obj = evt.target;
obj.setAttribute("fill", tempColor);
//obj.setAttribute("stroke", tempColor);
}</script><path onmouseover="hoverPath(evt)" onmouseout="recoverPath(evt)" fill="rgb(245,235,142)" d="M  46,96l 0,5 1,1 0,34 1,1 0,18 -1,1 -2,0 -1,1 -6,0 -1,1 -6,0 -1,1 -7,0 -1,1 -6,0 -1,1 -6,0 -1,1 -8,0 0,1 5,0 4,-1 3,0 4,-1 4,0 3,-1 4,0 4,-1 4,0 3,-1 4,0 3,-1 2,0 1,1 0,14 1,1 0,33 1,1 0,27 -1,1 -6,0 7,1 0,7 1,1 0,11 9,0 0,-9 -2,0 -1,-1 0,-7 1,-1 0,-4 1,-1 1,0 -1,-1 0,-13 -1,-1 0,-41 -1,-1 0,-6 1,-1 8,0 1,-1 104,0 1,1 1,1 0,-2 1,-1 3,0 1,1 1,0 1,1 31,0 1,1 1,0 1,1 2,0 1,-1 4,0 0,-2 1,-1 9,0 1,1 1,0 1,-1 4,0 1,1 16,0 0,-8 -16,0 0,1 -1,1 -4,0 -1,-1 -46,0 -1,-1 -121,0 -1,1 -5,0 -1,1 -2,0 -1,-1 0,-6 1,-1 0,-32 -1,-1 0,-33 -1,-1 0,-8 1,-1 0,-2 -1,1 -2,0 -1,1 -5,0Z"/>
<path onmouseover="hoverPath(evt)" onmouseout="recoverPath(evt)" fill="rgb(180,153,236)" d="M  61,64l 0,1 1,1 0,1 1,1 0,1 1,1 1,1 0,4 1,0 0,-1 1,-1 8,0 1,1 22,0 1,-1 7,0 1,1 38,0 1,-1 5,0 1,1 5,0 1,1 4,0 1,-1 8,0 1,1 14,0 1,-1 5,0 1,1 4,0 1,1 4,0 1,-1 13,0 1,1 6,0 1,1 0,4 1,1 0,6 1,1 0,6 1,1 0,5 1,1 0,6 1,1 0,5 1,1 0,6 1,1 0,5 1,1 0,2 -1,1 -1,1 -4,0 -1,1 -7,0 -1,1 -7,0 -1,1 -6,0 -1,1 -7,0 -1,1 -6,0 -1,1 -7,0 -1,1 -7,0 -1,1 -6,0 -1,1 -7,0 -1,1 -6,0 -1,1 -7,0 -1,1 -6,0 -1,1 -7,0 -1,1 -7,0 -1,1 -6,0 -1,1 -7,0 -1,1 -6,0 -1,1 -7,0 -1,1 -6,0 -1,1 -6,0 -1,1 -7,0 -1,1 -6,0 -1,1 -2,0 0,4 1,-3 0,0 2,-1 5,0 2,-1 5,0 3,-1 5,0 2,-1 5,0 2,-1 6,0 2,-1 5,0 2,-1 6,0 2,-1 5,0 2,-1 6,0 2,-1 5,0 3,-1 5,0 2,-1 5,0 3,-1 5,0 2,-1 5,0 3,-1 5,0 2,-1 6,0 2,-1 5,0 3,-1 5,0 2,-1 6,0 2,-1 5,0 2,-1 6,0 2,-1 5,0 3,-1 5,0 1,1 1,1 0,8 1,1 0,9 1,1 0,5 2,0 -1,-1 0,-12 -1,-1 0,-11 1,-1 1,-1 1,0 1,-1 7,0 1,-1 8,0 0,-1 -6,0 -3,1 -5,0 -3,1 -3,0 -1,-1 0,-2 -1,-1 0,-6 -1,-1 0,-5 -1,-1 0,-5 -1,-1 0,-5 -1,-1 0,-5 -1,-1 0,-6 -1,-1 0,-6 -1,-1 0,-5 1,-1 4,0 1,-1 5,0 1,1 5,0 1,1 5,0 1,-1 5,0 0,-14 -1,0 -1,1 -18,0 -1,-1 -9,0 -1,-1 0,-2 -1,-1 0,-6 -1,-1 0,-5 -1,-1 0,-6 -1,-1 0,-3 -1,0 0,2 1,2 0,6 1,1 0,6 1,1 0,8 -1,1 -10,0 -1,1 -5,0 -1,-1 -3,0 -1,-1 -3,0 -1,1 -9,0 -1,-1 -12,0 -1,1 -4,0 -1,-1 -4,0 -1,-1 -4,0 -1,1 -9,0 -1,-1 -13,0 -1,1 -5,0 -1,-1 -19,0 -1,-1 -21,0 -1,1 -16,0 -1,1 -4,0 0,1 -1,1 -2,0 -1,1Z"/>
<path onmouseover="hoverPath(evt)" onmouseout="recoverPath(evt)" fill="rgb(241,239,227)" d="M  60,238l 0,0 -1,1 0,5 2,0 1,1 0,10 23,0 0,-3 1,-1 0,-1 1,-1 0,-1 1,-1 1,-1 1,0 1,-1 2,0 1,-1 24,0 0,-5 -11,0 -1,-1Z"/>
<path onmouseover="hoverPath(evt)" onmouseout="recoverPath(evt)" fill="rgb(240,239,229)" d="M  176,239l 0,0 -1,1 0,15 80,0 0,-16 -9,0 -1,-1 -23,0 0,1 -1,1 0,4 8,0 1,1 0,2 -1,1 -9,0 -1,1 -1,0 -1,1 -3,0 -1,-1 0,-2 1,-1 1,0 1,-1 0,-2 1,-1 0,-2 -1,-1 0,-1 -39,0 -1,1Z"/>
<path onmouseover="hoverPath(evt)" onmouseout="recoverPath(evt)" fill="rgb(183,143,236)" d="M  0,65l 0,12 9,0 1,-1 4,0 1,1 1,-1 20,0 1,-1 2,0 1,1 1,0 1,-1 8,0 1,-1 2,0 1,-1 2,0 1,1 6,0 0,-2 -1,-1 0,0 -1,-1 0,-1 -1,-1 0,-1 -1,-1 0,-4 1,-1 3,0 0,-1 1,-1 -4,0 -1,1 -2,0 0,1 -1,1 -2,0 -1,1 -10,0 -1,-1 0,-1 -6,0 -1,-1 -1,1 -1,0 -1,1 -1,1 -3,0 -1,-1 -3,0 -1,-1 -1,1 -8,0 -1,1 -3,0 -1,-1 -1,1 -1,1 -2,0 -1,-1 -4,0Z"/>
<path onmouseover="hoverPath(evt)" onmouseout="recoverPath(evt)" fill="rgb(242,241,234)" d="M  0,117l 0,43 7,0 1,-1 6,0 1,-1 6,0 1,-1 7,0 1,-1 6,0 1,-1 6,0 1,-1 2,0 0,-16 -1,-1 0,-34 -1,-1 0,-25 -1,0 -1,1 -3,0 -1,-1 -1,1 -20,0 -1,1 -2,0 -1,-1 -2,0 -1,1 -10,0Z"/>
<path onmouseover="hoverPath(evt)" onmouseout="recoverPath(evt)" fill="rgb(245,233,145)" d="M  32,0l -32,0 0,3 6,0 1,-1 5,0 1,-1 5,0 1,1 3,0 1,-1 5,0 1,1 0,1 1,1 0,2 1,1 0,2 2,0 1,1 0,2 1,1 0,2 1,1 0,1 2,0 1,1 0,2 -1,1 0,1 1,1 0,1 1,1 0,2 1,1 0,2 1,1 0,3 1,1 0,3 1,0 1,1 0,2 -1,1 0,2 1,1 0,14 -1,1 0,1 8,0 1,-1 2,0 -1,-1 0,-4 -1,-1 0,-10 -1,-1 0,-4 -1,-1 0,-4 -1,-1 0,-2 -1,-1 0,-3 -1,-1 0,-2 -1,-1 0,-2 -1,-1 0,-1 -1,-1 0,-2 -1,-1 0,-2 -1,-1 0,-2 -1,-1 0,-1 -1,-1 0,-2 -1,-1 0,-1 -1,-1 0,-2Z"/>
<path onmouseover="hoverPath(evt)" onmouseout="recoverPath(evt)" fill="rgb(244,243,236)" d="M  58,77l -1,0 0,1 -1,1 0,6 1,1 0,33 1,1 0,33 1,-1 6,0 1,-1 7,0 1,-1 6,0 1,-1 6,0 1,-1 7,0 1,-1 6,0 1,-1 7,0 1,-1 6,0 1,-1 7,0 1,-1 7,0 1,-1 6,0 1,-1 7,0 1,-1 6,0 1,-1 7,0 1,-1 6,0 1,-1 7,0 1,-1 7,0 1,-1 6,0 1,-1 7,0 1,-1 6,0 1,-1 7,0 1,-1 7,0 1,-1 4,0 1,-1 -1,-1 0,-5 -1,-1 0,-6 -1,-1 0,-5 -1,-1 0,-6 -1,-1 0,-5 -1,-1 0,-6 -1,-1 0,-6 -1,-1 0,-4 -6,0 -1,-1 -11,0 -1,1 -6,0 -1,-1 -4,0 -1,-1 -3,0 -1,1 -16,0 -1,-1 -6,0 -1,1 -6,0 -1,-1 -5,0 -1,-1 -3,0 -1,1 -40,0 -1,-1 -5,0 -1,1 -24,0 -1,-1 -6,0 0,1 -1,1 -3,0 -1,-1 -4,0 -1,1Z"/>
<path onmouseover="hoverPath(evt)" onmouseout="recoverPath(evt)" fill="rgb(245,244,237)" d="M  66,157l -6,0 -1,1 4,0 4,-1 120,0 1,1 45,0 0,-3 -1,-1 0,-9 -1,-1 0,-8 -1,-1 -5,0 -1,1 -6,0 -1,1 -7,0 -1,1 -6,0 -1,1 -7,0 -1,1 -7,0 -1,1 -6,0 -1,1 -7,0 -1,1 -7,0 -1,1 -6,0 -1,1 -7,0 -1,1 -6,0 -1,1 -7,0 -1,1 -6,0 -1,1 -7,0 -1,1 -6,0 -1,1 -7,0 -1,1 -6,0 -1,1 -7,0 -1,1 -6,0 -1,1 -7,0 -1,1 -1,0 -1,1Z"/>
<path onmouseover="hoverPath(evt)" onmouseout="recoverPath(evt)" fill="rgb(243,242,234)" d="M  142,229l 0,3 1,1 25,0 1,-1 1,0 0,-1 1,-1 0,-25 1,-1 0,-25 1,-1 0,-2 -1,0 -1,-1 0,-5 -1,-1 -102,0 -1,1 -8,0 0,4 1,1 0,41 1,1 0,13 1,1 0,2 50,0 1,1 1,0 1,-1 13,0 1,-1 0,-5 -1,0 -1,-1 -6,0 -1,-1 0,-2 1,-1 30,0 1,1 0,2 -1,1 -7,0 -1,1 -1,0Z"/>
<path onmouseover="hoverPath(evt)" onmouseout="recoverPath(evt)" fill="rgb(243,241,232)" d="M  231,32l -1,0 0,2 1,1 2,0 1,1 1,1 0,5 1,1 0,2 9,0 1,1 9,0 0,-42 -4,0 -1,1 -13,0 0,2 1,1 0,3 1,1 0,7 -1,1 0,4 -1,1 0,1 -1,1 -1,1 -1,1 0,1 -1,1 -1,0 -1,1Z"/>
<path onmouseover="hoverPath(evt)" onmouseout="recoverPath(evt)" fill="rgb(244,243,236)" d="M  0,166l 0,89 49,0 0,-10 -1,-1 0,-7 -6,0 -1,-1 0,-2 1,-1 6,0 0,-25 -1,-1 0,-33 -1,-1 0,-14 -2,0 -1,1 -6,0 -1,1 -7,0 -1,1 -6,0 -1,1 -7,0 -1,1 -6,0 -1,1 -5,0 -1,1Z"/>
<path onmouseover="hoverPath(evt)" onmouseout="recoverPath(evt)" fill="rgb(243,241,232)" d="M  0,14l 0,47 5,0 1,1 1,-1 0,0 1,-1 2,0 1,1 1,0 1,-1 8,0 1,-1 2,0 1,1 3,0 1,1 1,0 2,-2 1,0 1,-1 2,0 1,1 5,0 1,-1 0,-12 -1,-1 0,-4 1,-1 -1,0 -1,-1 0,-3 -1,-1 0,-3 -1,-1 0,-2 -1,-1 0,-2 -1,-1 0,-1 -1,-1 0,-3 1,-1 -2,0 -1,-1 0,-1 -1,-1 0,-2 -1,-1 0,-2 -2,0 -1,-1 0,-2 -1,-1 0,-2 -1,-1 0,-1 -3,0 -1,1 -5,0 -1,-1 -3,0 -1,1 -5,0 -1,1 -7,0 0,9 36,12 1,1 0,2 -1,1 -2,0 -1,-1 -1,-1 0,-2 1,-1 2,0 1,1 -36,-12Z"/>
<path onmouseover="hoverPath(evt)" onmouseout="recoverPath(evt)" fill="rgb(243,242,234)" d="M  42,2l 0,1 1,1 0,2 1,1 0,1 1,1 0,2 1,1 0,2 1,1 0,2 1,1 0,1 1,1 0,2 1,1 0,2 1,1 0,3 1,1 0,2 1,1 0,4 1,1 0,4 1,1 0,10 1,1 0,4 2,0 1,-1 10,0 0,-5 1,-1 2,0 1,-1 1,0 1,-1 0,-7 -1,-1 0,-2 -1,0 -1,-1 0,-2 -1,-1 -1,-1 0,-1 -1,-1 0,-1 -1,-1 -4,0 -1,-1 0,-10 1,-1 0,-1 -1,-1 0,-4 -1,-1 -1,-1 -1,-1 0,-4 1,-1 4,0 0,-2 1,-1 10,0 0,-1 -35,0 0,1 1,1Z"/>
<path onmouseover="hoverPath(evt)" onmouseout="recoverPath(evt)" fill="rgb(241,239,231)" d="M  75,14l 0,0 -1,-1 0,-3 1,-1 1,-1 0,-3 -9,0 -1,1 -4,0 0,2 1,1 0,0 1,1 1,1 0,4 1,1 0,3 -1,1 0,8 4,0 1,1 1,1 0,1 1,1 0,1 1,1 1,1 2,0 1,1 1,0 2,2 0,2 -1,1 0,4 2,0 0,-1 1,-1 3,0 0,-1 1,-1 7,0 0,-2 -1,-1 0,0 -1,-1 0,-5 1,-1 0,-4 1,-1 1,-1 0,-1 1,-1 6,0 0,-5 1,-1 2,-2 12,0 0,-2 -1,-1 0,-3 -1,-1 0,-3 1,-1 1,-1 1,-1 1,0 0,-2 -3,0 0,3 -1,1 -6,0 -1,-1 -4,0 -1,1 -8,0 -1,1 -8,0 -1,-1 -1,0 -1,1 -1,0 0,3 -1,1 0,1 -1,1 0,1 -2,2Z"/>
<path onmouseover="hoverPath(evt)" onmouseout="recoverPath(evt)" fill="rgb(237,235,227)" d="M  106,40l 2,0 1,-1 2,0 1,1 2,0 1,-1 5,0 0,-2 1,-1 14,0 1,-1 1,-1 0,-4 1,-1 1,0 1,-1 2,0 0,-2 2,-2 1,-1 2,0 1,1 0,2 23,0 -13,-1 -1,0 -1,-1 -1,-1 0,-2 -2,0 -1,-1 0,-1 -1,-1 0,-3 -1,-1 0,-8 -1,-1 0,-1 -1,0 -1,-1 -2,0 -1,-1 0,-2 -24,0 0,3 -1,1 -1,0 -1,1 -1,1 0,1 1,1 0,3 1,1 0,4 -1,1 -12,0 -1,1 -1,1 0,5 -1,1 -6,0 0,1 -1,1 -1,1 0,4 -1,1 0,3 1,1 0,0 1,1 0,5 2,0 1,-1 2,0 1,1 0,1 1,0 0,-2 1,-1 1,-1 2,0 41,-13 -1,1 0,3 1,-3 0,-1 -41,13 25,-37 2,0 1,1 0,2 -1,1 -2,0 -1,-1 0,-2 1,-1 -25,37Z"/>
<path onmouseover="hoverPath(evt)" onmouseout="recoverPath(evt)" fill="rgb(241,240,229)" d="M  144,247l 1,0 1,1 1,1 0,2 -1,1 -1,0 -1,1 -2,0 -1,-1 0,-2 1,-1 0,-1 1,-1 1,0 -2,8 28,0 0,-17 -46,0 -1,1 -1,0 0,3 1,1 0,1 12,0 1,1 0,2 -1,1 -11,0 -1,1 -5,0 -1,-1 -23,0 -1,-1 -1,0 -1,1 -1,0 -1,1 0,1 -1,1 0,1 -1,1 0,2 55,0 2,-8Z"/>
<path onmouseover="hoverPath(evt)" onmouseout="recoverPath(evt)" fill="rgb(241,239,229)" d="M  149,29l 0,0 -1,1 0,2 -1,1 0,8 2,0 1,1 0,1 14,0 1,1 36,0 1,1 4,0 1,-1 1,0 0,-7 -1,0 -1,-1 -8,0 -1,-1 -4,0 -1,-1 0,-2 -2,0 -1,1 -4,0 -1,-1 -2,0 -1,-1 -2,0 -1,-1 -1,0 -1,-1 0,-2 -3,0 -1,1 -22,0 -1,1Z"/>
<path onmouseover="hoverPath(evt)" onmouseout="recoverPath(evt)" fill="rgb(244,242,235)" d="M  152,6l 0,7 1,1 0,3 1,1 0,1 2,0 1,1 0,2 1,1 1,0 1,1 12,0 1,1 4,0 1,1 0,2 1,0 1,1 2,0 1,1 2,0 1,1 2,0 1,-1 4,0 1,1 0,2 3,0 1,-1 16,0 1,-1 2,0 -1,-1 0,-7 -1,-1 0,-6 -1,-1 0,-6 -1,-1 0,-8 -67,0 0,1 2,0 1,1 1,0 1,1 0,1 1,1Z"/>
<path onmouseover="hoverPath(evt)" onmouseout="recoverPath(evt)" fill="rgb(243,242,234)" d="M  180,170l -1,0 -1,-1 0,13 -1,1 0,26 -1,1 0,22 1,0 1,1 69,0 0,-2 -1,-1 0,-5 -1,-1 0,-3 -1,-1 0,-4 -1,-1 0,-4 -1,-1 0,-3 -1,-1 0,-2 -1,-1 0,-3 -1,-1 0,-2 -1,-1 0,-3 -1,-1 0,-4 -1,-1 0,-6 -1,-1 0,-4 -1,-1 0,-4 -1,-1 0,-1 -2,0 -1,-1 -7,0 0,2 -1,1 -4,0 -1,1 -4,0 -1,-1 -1,0 -1,-1Z"/>
<path onmouseover="hoverPath(evt)" onmouseout="recoverPath(evt)" fill="rgb(254,254,254)" d="M  209,34l -10,0 9,1 1,-1 1,9 0,2 -1,1 1,0 1,-1 0,-1 -2,3 -1,-1 0,0 -1,1 -6,0 -1,-1 -36,0 -1,-1 -14,0 -1,-1 0,-1 3,3 12,0 35,1Z"/>
<path onmouseover="hoverPath(evt)" onmouseout="recoverPath(evt)" fill="rgb(238,239,234)" d="M  216,0l -1,0 0,7 1,1 0,6 1,1 0,6 1,1 0,7 1,1 5,0 1,-1 1,0 1,-1 2,0 1,-1 3,0 1,-1 1,-1 0,-1 1,-1 0,-4 1,-1 0,-5 -1,-1 0,-3 -1,-1 0,-4 1,-1 13,0 1,-1 5,0 0,-2Z"/>
<path onmouseover="hoverPath(evt)" onmouseout="recoverPath(evt)" fill="rgb(244,243,236)" d="M  229,78l -1,0 0,3 1,1 0,6 1,1 0,6 1,1 0,5 1,1 0,5 1,1 0,5 1,1 0,5 1,1 0,6 1,1 0,2 3,0 1,-1 7,0 1,-1 7,0 0,-49 -4,0 -1,1 -7,0 -1,-1 -5,0 -1,-1 -3,0 -1,1Z"/>
<path onmouseover="hoverPath(evt)" onmouseout="recoverPath(evt)" fill="rgb(244,243,236)" d="M  240,170l 0,6 1,1 0,3 1,1 0,3 1,1 0,3 1,1 0,3 1,1 0,3 1,1 0,4 1,1 0,3 1,1 0,5 1,1 0,6 1,1 0,5 1,1 0,6 1,1 0,2 3,0 0,-65 -14,0 -1,1Z"/>
<path onmouseover="hoverPath(evt)" onmouseout="recoverPath(evt)" fill="rgb(253,253,252)" d="M  61,235l 0,0 -1,-1 0,2 47,0 1,1 11,0 1,1 0,7 -1,1 -24,0 24,1 3,0 1,-1 -1,0 -1,-1 0,-8 1,0 1,-1 48,0 1,1 0,18 1,0 0,-16 1,-1 0,-1 1,-1 42,0 1,1 0,1 1,1 0,4 -1,1 0,2 -1,1 -1,1 -1,0 3,-1 1,-1 9,0 -9,-1 0,-1 1,-6 0,-1 1,-1 25,0 1,1 8,0 0,-1 -4,0 -1,-1 -73,0 -1,-1 -1,0 -1,-1 0,-24 1,-1 0,-26 1,-1 0,-13 -1,0 0,11 -1,1 0,25 -1,1 0,25 -1,1 0,1 -1,1 -1,0 -1,1 -27,0 -1,-1 -1,-1 0,-7 1,-1 1,0 1,-1 -21,0 7,1 1,0 1,1 0,7 -1,1 -1,1 -13,0 -1,1 -3,0 -1,-1Z"/>
<path onmouseover="hoverPath(evt)" onmouseout="recoverPath(evt)" fill="rgb(246,244,237)" d="M  77,3l 0,0 1,1 0,5 -1,1 -1,1 0,1 1,-1 0,0 2,-4 0,-3 1,-1 1,0 1,-1 3,0 1,1 6,0 1,-1 8,0 1,-1 6,0 1,1 4,0 0,-2 -35,0 0,2 -1,1Z"/>
<path onmouseover="hoverPath(evt)" onmouseout="recoverPath(evt)" fill="rgb(242,240,233)" d="M  86,57l 23,0 1,1 19,0 1,1 3,0 1,-1 15,0 1,1 7,0 1,-1 6,0 1,1 4,0 1,1 2,0 1,-1 14,0 1,1 7,0 1,-1 5,0 1,1 3,0 1,1 3,0 1,-1 10,0 0,-6 -1,-1 0,-6 -1,-1 0,-7 -1,-1 0,-4 1,-1 -2,0 0,2 -1,1 -2,0 -1,1 0,5 1,1 0,3 -1,1 -1,1 -1,1 -13,0 -1,-1 -46,0 -1,-1 -2,0 -1,-1 0,-3 -1,-1 0,-9 -1,-1 0,-5 1,-1 1,-1 -3,5 -2,0 -1,1 -1,0 0,4 -1,1 -1,1 -1,1 -14,0 0,2 -1,1 -5,0 -1,1 -4,0 -1,-1 -1,1 -4,0 -1,1 0,2 -1,1 -3,0 -1,-1 0,-1 -1,1 -4,0 -1,-1 0,-1 -6,0 0,1 -1,1 -3,0 0,1 -1,1 -4,0 -1,-1 0,-6 1,-1 0,0 -1,-1 -1,0 -1,-1 -1,0 2,2 0,1 1,-1 0,11 -1,1 -1,1 -1,0 -1,1 -2,0 0,5 14,0 1,-1 133,-24 2,0 1,1 0,3 1,1 0,6 1,1 0,5 1,1 0,6 1,1 0,2 9,0 1,1 16,0 1,-1 2,0 0,-12 -10,0 -1,-1 -9,0 -1,-1 0,-2 -1,-1 0,-5 -1,-1 -2,0 -1,-1 -1,-1 0,-4 -2,0 -1,1 -5,0 -1,1 -133,24 142,-27 2,0 1,-1 1,0 -4,1 -142,27Z"/>
<path onmouseover="hoverPath(evt)" onmouseout="recoverPath(evt)" fill="rgb(244,243,237)" d="M  237,135l 0,9 1,1 0,12 17,0 0,-25 -7,0 -1,1 -7,0 -1,1 -1,0 -1,1Z"/>
<path onmouseover="hoverPath(evt)" onmouseout="recoverPath(evt)" fill="rgb(172,198,237)" d="M  247,219l 0,-6 -1,-1 0,-5 -1,-1 0,-3 -1,-1 0,-4 -1,-1 0,-3 -1,-1 0,-3 -1,-1 0,-3 -1,-1 0,-3 -1,-1 0,-3 -1,-1 0,-8 -1,-1 -2,0 0,1 1,1 0,4 1,1 0,4 1,1 0,6 1,1 0,4 1,1 0,3 1,1 0,2 1,1 0,3 1,1 0,2 1,1 0,3 1,1 0,4 1,1 0,3 1,1 0,4 1,1 0,5 1,1 0,3 1,0 -1,-4 0,-3 -1,-3 0,-2 -1,-1Z"/>
</svg>