<svg width="256" height="256" xmlns="http://www.w3.org/2000/svg"><script> 
var tempColor;
function hoverPath(evt){
obj = evt.target;
tempColor = obj.getAttribute("fill");
obj.setAttribute("fill","red");
//alert(tempColor);
//obj.setAttribute("stroke","red");}
function recoverPath(evt){
obj = evt.target;
obj.setAttribute("fill", tempColor);
//obj.setAttribute("stroke", tempColor);
}</script><path onmouseover="hoverPath(evt)" onmouseout="recoverPath(evt)" fill="rgb(245,244,237)" d="M  0,1l 0,11 2,0 1,-1 1,0 1,-1 1,0 1,-1 2,0 1,-1 1,0 1,-1 1,0 1,-1 1,0 1,-1 2,0 1,-1 1,0 1,-1 1,0 1,-1 2,0 1,-1 1,0 0,-1 -26,0 -1,1Z"/>
<path onmouseover="hoverPath(evt)" onmouseout="recoverPath(evt)" fill="rgb(171,198,238)" d="M  0,15l 0,6 2,0 1,-1 1,0 1,-1 1,0 1,-1 1,0 1,-1 1,0 1,-1 2,0 1,-1 1,0 1,-1 2,0 1,-1 2,0 1,-1 1,0 1,-1 2,0 1,-1 1,0 1,-1 2,0 1,-1 1,0 1,-1 2,0 1,-1 1,0 1,-1 2,0 1,-1 1,0 1,-1 2,0 1,-1 1,0 1,-1 2,0 1,-1 -23,0 0,2 -1,1 -1,0 -1,1 -2,0 -1,1 -1,0 -1,1 -1,0 -1,1 -2,0 -1,1 -1,0 -1,1 -1,0 -1,1 -1,0 -1,1 -2,0 -1,1 -1,0 -1,1 -1,0 -1,1 -2,0 -1,1Z"/>
<path onmouseover="hoverPath(evt)" onmouseout="recoverPath(evt)" fill="rgb(244,243,236)" d="M  0,121l 0,56 29,0 1,1 5,0 1,1 13,0 1,-1 1,0 1,-1 1,0 1,-1 1,-1 0,-1 1,-1 0,-4 1,-1 0,-15 1,-1 0,-5 1,-1 0,-3 1,-1 0,-2 1,-1 0,-1 1,-1 0,-1 1,-1 0,-1 1,-1 0,-2 1,-1 0,-1 1,-1 0,-1 1,-1 0,-2 1,-1 0,-3 1,-1 0,-4 -1,-1 0,0 -1,-1 -1,0 -1,-1 -8,0 -1,1 -3,0 -1,1 -5,0 -1,1 -5,0 -1,1 -4,0 -1,1 -6,0 -1,1 -4,0 -1,1 -9,0 -1,1 -6,0 -1,1 -3,0 -1,-1 -1,0 -1,1Z"/>
<path onmouseover="hoverPath(evt)" onmouseout="recoverPath(evt)" fill="rgb(170,197,237)" d="M  0,180l 0,14 2,0 1,-1 25,0 1,1 4,0 1,1 3,0 1,1 4,0 1,1 3,0 1,1 2,0 1,1 2,0 1,1 2,0 1,1 4,0 1,-1 2,0 1,-1 1,0 1,-1 1,0 1,-1 1,0 1,-1 1,0 2,-2 1,-1 1,-1 1,-1 0,-12 1,-1 1,-1 9,0 1,1 4,0 1,-1 8,0 1,-1 4,0 1,-1 3,0 1,-1 3,0 1,-1 2,0 1,-1 1,0 1,-1 2,0 1,-1 3,0 1,-1 6,0 1,-1 8,0 1,-1 -1,0 -9,1 -10,0 -1,1 -4,0 -1,1 -3,0 -1,1 -3,0 -1,1 -1,0 -1,1 -2,0 -1,1 -2,0 -1,1 -2,0 -1,1 -12,0 -1,-1 -2,0 -1,-1 -1,0 -1,-1 -1,0 -1,-1 -1,-1 0,-13 1,-1 0,-3 1,-1 0,-3 1,-1 0,-3 1,-1 0,-2 1,-1 0,-1 1,-1 0,-1 1,-1 0,-2 1,-1 0,-1 1,-1 0,-2 1,-1 1,-1 0,-1 1,-1 0,-1 1,-1 1,-1 1,-1 1,-1 1,-1 1,-1 1,-1 1,-1 1,0 1,-1 1,-1 1,0 1,-1 2,0 1,-1 16,0 1,1 4,0 1,1 6,0 1,1 23,0 1,-1 2,0 1,-1 1,0 1,-1 1,-1 1,0 0,-1 1,-1 1,-1 1,-1 0,-1 1,-1 0,-2 1,-1 0,-3 1,-1 0,-4 1,-1 1,-1 2,0 1,-1 2,0 1,1 8,0 1,1 5,0 1,1 9,0 1,-1 2,0 1,-1 1,0 1,-1 1,0 1,-1 1,0 1,-1 1,0 1,-1 2,0 1,-1 2,0 1,-1 2,0 1,-1 1,0 1,-1 2,0 1,-1 2,0 1,-1 2,0 1,-1 2,0 1,-1 9,0 1,1 7,0 0,-4 -7,0 -1,-1 -8,0 -1,1 -2,0 -1,1 -2,0 -1,1 -1,0 -1,1 -2,0 -1,1 -2,0 -1,1 -2,0 -1,1 -2,0 -1,1 -2,0 -1,1 -2,0 -1,1 -2,0 -1,1 -1,0 -1,1 -2,0 -1,1 -10,0 -1,-1 -6,0 -1,-1 -2,0 -1,-1 -1,0 -1,-1 -1,-1 -1,-1 -1,0 -1,-1 -1,-1 -1,-1 -2,0 -1,-1 -5,0 -1,-1 -3,0 -1,-1 -1,-1 -1,-1 -1,-1 -1,-1 0,-1 -1,-1 -1,-1 0,-1 -1,-1 -1,-1 -1,-1 -1,-1 0,-1 -1,-1 -1,-1 0,-1 -1,-1 0,-1 -1,-1 0,-1 -1,-1 0,-1 -1,-1 0,-1 -1,-1 0,-2 -1,-1 0,-2 -1,-1 0,-3 -1,-1 0,-2 -1,-1 0,-2 -1,-1 0,-3 -1,-1 0,-4 -1,-1 0,-5 -1,-1 0,-2 -1,-1 0,-1 -1,-1 0,-1 -1,-1 0,-1 -1,-1 0,-2 -1,-1 0,-1 -1,-1 0,-1 -1,-1 0,-1 -1,-1 0,-1 -1,-1 0,-3 -29,0 0,2 1,1 0,1 1,1 0,1 1,1 0,1 1,1 1,1 0,1 1,1 0,1 1,1 0,1 1,1 0,1 1,1 0,4 1,0 1,1 1,1 1,1 0,2 1,1 1,1 0,2 1,1 0,2 1,1 0,1 1,1 0,2 1,1 0,1 1,1 0,2 1,1 0,2 1,1 0,1 1,1 0,2 1,1 0,1 1,1 0,2 1,1 0,1 1,1 0,2 1,1 0,2 1,1 0,1 1,1 0,2 1,1 0,1 1,1 0,2 1,1 0,2 1,1 0,1 1,1 0,2 1,1 0,3 1,1 0,5 -1,1 -1,1 -2,0 -1,1 -15,0 -1,-1 -17,0 -1,1 -3,0 -1,1 -4,0 -1,1 -2,0 -1,1 -2,0 -1,1 -1,0 -1,1 -1,1 -1,0 -1,1 -1,1 -1,0 -1,1 -11,0 -1,1 -2,0 -1,1 -2,0 -1,1 -3,0 -1,1 -6,0 -1,1 -4,0 -1,1 -6,0 -1,1 -5,0 -1,-1 0,-1 -3,0 0,2 -1,1 -3,0 -1,1 -5,0 -1,1 -10,0 -1,1 -2,0 0,2 3,0 1,1 1,0 1,-1 6,0 1,-1 9,0 1,-1 4,0 1,-1 6,0 1,-1 4,0 1,-1 5,0 1,-1 5,0 1,-1 3,0 1,-1 10,0 1,1 1,0 1,1 1,1 1,1 0,6 -1,1 0,3 -1,1 0,2 -1,1 0,1 -1,1 0,1 -1,1 0,2 -1,1 0,1 -1,1 0,1 -1,1 0,1 -1,1 0,2 -1,1 0,3 -1,1 0,5 -1,1 0,15 -1,1 0,4 -1,1 0,1 -1,1 -1,1 -1,1 -1,0 -1,1 -1,0 -1,1 -15,0 -1,-1 -5,0 -1,-1 -27,0 -1,1Z"/>
<path onmouseover="hoverPath(evt)" onmouseout="recoverPath(evt)" fill="rgb(244,243,236)" d="M  0,197l 0,22 1,0 1,1 0,1 1,1 0,1 1,1 0,1 1,1 0,2 1,1 0,1 1,1 0,2 1,1 0,2 1,1 0,1 1,1 0,3 1,1 0,7 -1,1 0,1 -1,1 0,2 137,0 0,-2 1,-1 2,0 1,-1 3,0 1,-1 2,0 1,-1 2,0 1,-1 3,0 1,-1 1,0 1,-1 3,0 1,-1 3,0 1,-1 2,0 1,-1 2,0 1,-1 3,0 1,-1 3,0 1,-1 2,0 1,-1 3,0 1,-1 1,0 0,-3 -1,-1 0,-2 -1,-1 0,-4 -1,-1 0,-3 -1,-1 0,-3 -1,-1 0,-3 -1,-1 0,-4 -1,-1 0,-2 -1,-1 0,-4 -1,-1 0,-3 -1,-1 0,-3 -1,-1 0,-3 -1,-1 0,-4 -1,-1 0,-3 -1,-1 0,-3 1,-1 3,0 1,1 0,1 1,1 0,3 1,1 0,3 1,1 0,4 1,1 0,3 1,1 0,2 1,1 0,4 1,1 0,3 1,1 0,3 1,1 0,3 1,1 0,4 1,1 0,3 1,1 0,2 1,1 0,4 1,1 0,3 2,0 1,-1 3,0 1,-1 2,0 1,-1 3,0 1,-1 2,0 1,-1 2,0 1,-1 3,0 1,-1 2,0 1,-1 3,0 1,-1 2,0 1,-1 2,0 1,-1 2,0 1,-1 3,0 1,-1 2,0 1,-1 2,0 1,-1 4,0 0,-56 -2,0 -1,-1 -4,0 -1,1 -14,0 -1,1 -10,0 -1,1 -30,0 -1,1 -30,0 -1,1 -15,0 -1,1 -8,0 -1,1 -6,0 -1,1 -3,0 -1,1 -2,0 -1,1 -1,0 -1,1 -2,0 -1,1 -3,0 -1,1 -3,0 -1,1 -4,0 -1,1 -8,0 -1,1 -6,0 -1,-1 -7,0 -1,1 0,12 -1,1 -1,1 -1,1 -1,1 -1,1 -1,1 -1,0 -1,1 -1,0 -1,1 -1,0 -1,1 -1,0 -1,1 -2,0 -1,1 -6,0 -1,-1 -2,0 -1,-1 -2,0 -1,-1 -2,0 -1,-1 -3,0 -1,-1 -4,0 -1,-1 -3,0 -1,-1 -4,0 -1,-1 -23,0 -1,1 -2,0 -1,1Z"/>
<path onmouseover="hoverPath(evt)" onmouseout="recoverPath(evt)" fill="rgb(170,198,238)" d="M  0,225l 0,30 7,0 0,-3 1,-1 0,-1 1,-1 0,-5 -1,-1 0,-3 -1,-1 0,-1 -1,-1 0,-2 -1,-1 0,-2 -1,-1 0,-1 -1,-1 0,-2 -1,-1 0,-1 -1,-1 -1,1Z"/>
<path onmouseover="hoverPath(evt)" onmouseout="recoverPath(evt)" fill="rgb(242,241,234)" d="M  38,109l 1,0 1,-1 4,0 1,-1 6,0 1,-1 3,0 1,-1 2,0 1,-1 2,0 1,-1 11,0 1,-1 1,0 1,-1 1,-1 1,0 1,-1 1,-1 1,0 1,-1 2,0 1,-1 2,0 1,-1 4,0 1,-1 3,0 1,-1 19,0 1,1 13,0 1,-1 2,0 1,-1 0,-3 -1,-1 0,-3 -1,-1 0,-2 -1,-1 0,-1 -1,-1 0,-2 -1,-1 0,-2 -1,-1 0,-1 -1,-1 0,-2 -1,-1 0,-1 -1,-1 0,-2 -1,-1 0,-2 -1,-1 0,-1 -1,-1 0,-2 -1,-1 0,-1 -1,-1 0,-2 -1,-1 0,-1 -1,-1 0,-2 -1,-1 0,-2 -1,-1 0,-1 -1,-1 0,-2 -1,-1 0,-1 -1,-1 0,-2 -1,-1 0,-2 -1,-1 -1,-1 0,-2 -1,-1 -1,-1 -1,0 -1,-1 0,-4 -1,-1 0,-1 -1,-1 0,-1 -1,-1 0,-1 -1,-1 0,-1 -1,-1 -1,-1 0,-1 -1,-1 0,-1 -1,-1 0,-1 -1,-1 0,-3 -43,0 0,1 -1,1 -1,1 -2,0 -1,1 -1,0 -1,1 -2,0 -1,1 -1,0 -1,1 -2,0 -1,1 -1,0 -1,1 -2,0 -1,1 -1,0 -1,1 -2,0 -1,1 -1,0 -1,1 -2,0 -1,1 -1,0 -1,1 -2,0 -1,1 -2,0 -1,1 -1,0 -1,1 -2,0 -1,1 -1,0 -1,1 -1,0 -1,1 -1,0 -1,1 -1,0 -1,1 -3,0 0,91 1,0 1,-1 10,0 1,-1 5,0 1,-1 3,0 0,-2 1,-1 5,0 1,1 0,1 3,0 1,-1Z"/>
<path onmouseover="hoverPath(evt)" onmouseout="recoverPath(evt)" fill="rgb(244,243,237)" d="M  96,122l -2,2 -1,1 -1,1 -1,1 0,1 -1,1 0,1 -1,1 -1,1 0,2 -1,1 0,1 -1,1 0,2 -1,1 0,1 -1,1 0,1 -1,1 0,2 -1,1 0,3 -1,1 0,3 -1,1 0,3 -1,1 0,11 1,1 1,0 1,1 1,0 1,1 2,0 1,1 10,0 1,-1 2,0 1,-1 2,0 1,-1 2,0 1,-1 1,0 1,-1 3,0 1,-1 3,0 1,-1 4,0 1,-1 18,0 1,-1 17,0 1,-1 19,0 1,-1 21,0 1,-1 23,0 1,-1 13,0 1,-1 16,0 0,-75 -8,0 -1,-1 -7,0 -1,1 -2,0 -1,1 -2,0 -1,1 -2,0 -1,1 -2,0 -1,1 -1,0 -1,1 -2,0 -1,1 -2,0 -1,1 -2,0 -1,1 -1,0 -1,1 -1,0 -1,1 -1,0 -1,1 -1,0 -1,1 -2,0 -1,1 -11,0 -1,-1 -5,0 -1,-1 -8,0 -1,-1 -1,1 -2,0 -1,1 0,4 -1,1 0,3 -1,1 0,2 -1,1 0,1 -1,1 -1,1 -1,1 0,1 -1,1 -1,0 -1,1 -1,1 -1,0 -1,1 -2,0 -1,1 -25,0 -1,-1 -6,0 -1,-1 -4,0 -1,-1 -14,0 -1,1 -2,0 -1,1 -1,0 -1,1 -1,1 -1,0 -2,2Z"/>
<path onmouseover="hoverPath(evt)" onmouseout="recoverPath(evt)" fill="rgb(244,243,237)" d="M  130,1l 0,1 1,1 0,1 1,1 0,1 1,1 0,1 1,1 0,1 1,1 0,2 1,1 0,1 1,1 0,1 1,1 0,1 1,1 0,2 1,1 0,5 1,1 0,4 1,1 0,3 1,1 0,2 1,1 0,2 1,1 0,3 1,1 0,2 1,1 0,2 1,1 0,1 1,1 0,1 1,1 0,1 1,1 0,1 1,1 0,1 1,1 1,1 0,1 1,1 1,1 1,1 1,1 0,1 1,1 1,1 0,1 1,1 1,1 1,1 1,1 3,0 1,1 5,0 1,1 2,0 3,3 1,0 1,1 1,1 1,1 1,0 1,1 2,0 1,1 6,0 1,1 8,0 1,-1 2,0 1,-1 1,0 1,-1 2,0 1,-1 2,0 1,-1 2,0 1,-1 2,0 1,-1 2,0 1,-1 2,0 1,-1 2,0 1,-1 1,0 1,-1 2,0 1,-1 2,0 1,-1 10,0 1,1 6,0 0,-77 -124,0 -1,1Z"/>
<path onmouseover="hoverPath(evt)" onmouseout="recoverPath(evt)" fill="rgb(248,236,139)" d="M  157,255l 19,0 0,-3 1,-1 4,0 1,1 1,0 1,-1 3,0 1,-1 2,0 1,-1 2,0 1,-1 3,0 1,-1 3,0 1,-1 2,0 1,-1 2,0 1,-1 2,0 1,-1 3,0 1,-1 2,0 1,-1 2,0 0,-1 1,-1 3,0 1,1 0,2 1,1 0,-2 1,-1 0,-1 1,-1 2,0 1,-1 2,0 1,-1 3,0 1,-1 2,0 1,-1 2,0 1,-1 2,0 1,-1 3,0 1,-1 1,0 1,-1 2,0 0,-7 -3,0 -1,1 -2,0 -1,1 -2,0 -1,1 -3,0 -1,1 -2,0 -1,1 -2,0 -1,1 -2,0 -1,1 -3,0 -1,1 -2,0 -1,1 -3,0 -1,1 -2,0 -1,1 -2,0 -1,1 -3,0 -1,1 -2,0 -1,1 -3,0 -1,1 -3,0 0,1 -1,1 -4,0 -1,1 -3,0 -1,1 -2,0 -1,1 -3,0 -1,1 -3,0 -1,1 -2,0 -1,1 -2,0 -1,1 -3,0 -1,1 -3,0 -1,1 -1,0 -1,1 -3,0 -1,1 -2,0 -1,1 -2,0 -1,1 -3,0 -1,1 -2,0 0,1Z"/>
<path onmouseover="hoverPath(evt)" onmouseout="recoverPath(evt)" fill="rgb(254,254,254)" d="M  185,178l -1,0 0,1 1,1 0,3 1,1 0,4 1,1 0,3 1,1 0,3 1,1 0,3 1,1 0,4 1,1 0,2 1,1 0,4 1,1 0,3 1,1 0,3 1,1 0,3 1,1 0,4 1,1 0,2 1,1 0,4 1,0 0,-4 -1,-1 0,-4 -1,-1 0,-2 -1,-1 0,-3 -1,-1 0,-4 -1,-1 0,-3 -1,-1 0,-3 -1,-1 0,-3 -1,-1 0,-4 -1,-1 0,-2 -1,-1 0,-3 -1,-1 0,-4 -1,-1 0,-3 -1,-1 0,-3 -1,-1Z"/>
<path onmouseover="hoverPath(evt)" onmouseout="recoverPath(evt)" fill="rgb(244,242,234)" d="M  235,255l 20,0 0,-23 -1,0 -1,1 -1,0 -1,1 -3,0 -1,1 -2,0 -1,1 -2,0 -1,1 -2,0 -1,1 -3,0 -1,1 -2,0 -1,1 -2,0 0,1 -1,1 0,3 -1,1 -2,0 -1,-1 0,-1 -1,-1 0,-2 -1,0 0,1 -1,1 -2,0 -1,1 -2,0 -1,1 -3,0 -1,1 -2,0 -1,1 -2,0 -1,1 -2,0 -1,1 -3,0 -1,1 -3,0 -1,1 -2,0 -1,1 -2,0 -1,1 -3,0 -1,1 -3,0 -1,-1 -2,0 0,2Z"/>
<path onmouseover="hoverPath(evt)" onmouseout="recoverPath(evt)" fill="rgb(171,198,238)" d="M  232,163l -6,0 -1,1 -23,0 -1,1 -21,0 -1,1 10,0 13,-1 18,0 6,-1 5,0 1,-1 10,-1 0,1 4,0 1,-1 6,0 1,1 1,0 0,-1 -13,0 -10,1Z"/>
</svg>