<svg width="256" height="256" xmlns="http://www.w3.org/2000/svg"><script> 
var tempColor;
function hoverPath(evt){
obj = evt.target;
tempColor = obj.getAttribute("fill");
obj.setAttribute("fill","red");
//alert(tempColor);
//obj.setAttribute("stroke","red");}
function recoverPath(evt){
obj = evt.target;
obj.setAttribute("fill", tempColor);
//obj.setAttribute("stroke", tempColor);
}</script><path onmouseover="hoverPath(evt)" onmouseout="recoverPath(evt)" fill="rgb(243,242,236)" d="M  0,6l 0,31 30,0 1,-1 5,0 1,1 1,-1 2,0 -1,-1 0,-2 -1,-1 0,-1 -1,-1 0,-2 -1,-1 0,-2 -1,-1 0,-1 -1,-1 0,-2 -1,-1 0,-1 -1,-1 0,-3 -1,-1 0,-1 -1,-1 0,-2 -1,-1 0,-2 -2,0 -1,-1 0,-2 1,-1 0,-2 -27,0Z"/>
<path onmouseover="hoverPath(evt)" onmouseout="recoverPath(evt)" fill="rgb(244,243,236)" d="M  18,146l 0,17 -1,1 0,5 -1,1 0,4 -1,1 0,4 -1,1 0,4 -1,1 0,4 -1,1 0,4 -1,1 0,4 -1,1 0,4 -1,1 0,7 -1,1 0,10 -1,1 0,10 -1,1 0,2 1,1 1,1 1,0 1,1 82,0 1,1 116,0 1,-1 45,0 0,-61 -73,0 -1,-1 -45,0 -1,1 -12,0 -1,-1 0,-3 1,-1 6,0 1,-1 51,0 0,-10 1,-1 0,-7 -1,-1 0,-21 -13,0 -1,1 -4,0 -1,1 -3,0 -1,1 -2,0 -1,1 -3,0 -1,1 -2,0 -1,1 -3,0 -1,1 -10,0 -1,-1 -1,-1 -1,0 -1,-1 0,-1 -1,0 -1,-1 -1,0 -1,-1 -1,0 -1,-1 -3,0 -1,-1 -3,0 -1,-1 -7,0 -1,-1 -1,0 -1,1 -1,0 -1,1 -1,0 -1,1 -1,0 -1,1 -1,0 -1,1 -1,0 -1,1 -1,1 -1,0 0,1 -3,3 -1,1 -1,1 -1,0 -1,1 -3,0 -1,1 -19,0 -1,-1 -5,0 -1,1 -8,0 -1,1 -8,0 -1,1 -10,0 -1,-1 -5,0 -1,-1 -3,0 -1,1Z"/>
<path onmouseover="hoverPath(evt)" onmouseout="recoverPath(evt)" fill="rgb(244,243,236)" d="M  76,34l -1,0 0,1 -1,1 -1,0 0,1 1,1 0,1 1,1 0,1 1,1 0,1 1,1 0,1 1,1 0,1 1,1 0,1 1,1 1,1 0,1 1,1 0,1 1,1 0,1 1,1 0,2 1,1 0,1 1,1 1,1 0,2 1,0 1,-1 7,0 1,-1 2,0 1,-1 2,0 1,1 0,-2 1,-1 1,-1 1,0 1,-1 6,0 1,-1 3,0 1,-1 2,0 1,-1 4,0 1,-1 4,0 1,-1 2,0 1,-1 0,-1 -1,-1 0,-3 -1,-1 0,-2 -1,-1 0,-3 -1,-1 0,-7 1,-1 1,0 1,-1 3,0 1,-1 10,0 1,-1 7,0 1,-1 14,0 0,-1 -1,-1 0,-15 -1,-1 0,-9 -1,3 -3,0 -1,1 -2,0 -1,1 -2,0 -1,1 -2,0 -1,1 -3,0 -1,1 -2,0 -1,1 -3,0 -1,1 -2,0 -1,1 -2,0 -1,1 -3,0 -1,1 -2,0 -1,1 -1,0 -1,1 -2,0 -1,1 -2,0 -1,1 -2,0 -1,1 -2,0 -1,1 -1,0 -1,1 -2,0 -1,1 -2,0 -1,1 -1,0 -1,1 -2,0 -1,1 -2,0 -1,1 -1,0 -1,1 -2,0 -1,1 -2,0 -1,1 -1,0 -1,1 -2,0 -1,1 -2,0 -1,1 -1,0 -1,1 -2,0 -1,1 -2,0 -1,1Z"/>
<path onmouseover="hoverPath(evt)" onmouseout="recoverPath(evt)" fill="rgb(247,236,142)" d="M  0,41l 0,21 1,0 1,-1 1,0 1,-1 1,-1 0,-1 -1,-1 0,-1 -1,-1 0,-1 -1,-1 0,-2 -1,-1 0,-3 1,-1 4,0 1,1 19,0 1,-1 7,0 1,-1 6,0 1,-1 2,0 1,-1 2,0 1,-1 2,0 1,-1 1,0 1,-1 2,0 1,-1 2,0 1,-1 1,0 1,-1 2,0 1,-1 2,0 0,-1 1,-1 2,0 1,1 1,0 1,-1 1,0 0,-1 1,-1 1,0 1,-1 2,0 1,-1 2,0 1,-1 1,0 1,-1 2,0 1,-1 2,0 1,-1 1,0 1,-1 2,0 1,-1 2,0 1,-1 1,0 1,-1 2,0 1,-1 2,0 1,-1 1,0 1,-1 2,0 1,-1 2,0 1,-1 1,0 1,-1 2,0 1,-1 2,0 1,-1 2,0 1,-1 2,0 1,-1 1,0 1,-1 2,0 1,-1 3,0 1,-1 2,0 1,-1 2,0 1,-1 3,0 1,-1 2,0 1,-1 3,0 1,-1 2,0 1,-1 2,0 1,-1 2,0 1,-1 3,0 0,-1 -31,0 0,2 -1,1 -3,0 -1,1 -1,0 -1,1 -2,0 -1,1 -2,0 -1,1 -2,0 -1,1 -2,0 -1,1 -1,0 -1,1 -2,0 -1,1 -2,0 -1,1 -2,0 -1,1 -1,0 -1,1 -2,0 -1,1 -2,0 -1,1 -1,0 -1,1 -2,0 -1,1 -2,0 -1,1 -1,0 -1,1 -2,0 -1,1 -2,0 -1,1 -1,0 -1,1 -2,0 -1,1 -2,0 -1,1 -1,0 -1,1 -2,0 -1,1 -1,0 -1,1 -2,0 -1,1 -1,0 -1,1 -2,0 -1,1 -1,0 -1,1 -2,0 -1,1 -2,0 -1,1 -2,0 -1,1 -1,0 -1,1 -3,0 0,1 -1,1 -2,0 -1,1 -2,0 -1,-1 -3,0 -1,1 -31,0Z"/>
<path onmouseover="hoverPath(evt)" onmouseout="recoverPath(evt)" fill="rgb(244,243,236)" d="M  0,71l 0,26 1,0 1,1 2,2 0,1 1,1 1,1 1,1 0,1 1,1 1,1 1,1 0,1 1,1 1,1 0,1 1,1 1,1 0,1 1,1 1,1 0,1 1,1 0,3 1,1 0,5 1,1 0,9 1,1 5,0 1,1 4,0 1,1 11,0 1,-1 6,0 1,-1 8,0 1,-1 4,0 1,1 6,0 1,1 8,0 1,-1 2,0 1,-1 1,0 1,-1 1,-1 1,-1 1,-1 1,0 1,-1 1,-1 1,-1 1,0 1,-1 1,-1 1,0 1,-1 1,-1 0,-1 -1,-1 0,-3 -1,-1 0,-7 -1,-1 0,-5 -1,-1 0,-2 -1,-1 0,-1 -1,-1 0,-1 -1,-1 -1,-1 -1,-1 0,-1 -1,-1 0,-1 -1,0 -1,-1 -1,-1 -1,-1 -1,-1 -1,-1 -1,-1 -1,-1 -1,-1 -1,-1 0,-1 -1,-1 -1,-1 0,-6 1,-1 0,-2 1,-1 0,-1 1,-1 0,-2 1,-1 1,-1 1,-1 1,0 0,-1 -1,-1 0,-2 1,-1 -1,-1 0,-2 -1,-1 0,-1 -1,-1 0,-1 -1,-1 0,-1 -2,-2 0,-1 -1,-1 0,-1 -1,-1 0,-1 -1,-1 0,-1 -2,0 -1,-1 0,-1 -1,-1 0,-2 1,-1 -2,0 -1,-1 0,1 -1,1 -2,0 -1,1 -2,0 -1,1 -1,0 -1,1 -2,0 -1,1 -2,0 -1,1 -1,0 -1,1 -2,0 -1,1 -2,0 -1,1 -2,0 -1,1 -6,0 -1,1 -7,0 -1,1 -21,0 -1,-1 -2,0 0,1 1,1 0,2 1,1 0,1 1,1 0,1 1,1 0,3 -1,1 -1,1 -1,1 -1,0 -1,1 -2,0 0,7 26,36 0,-2 1,-1 2,0 1,1 0,2 -1,1 -2,0 -1,-1 -26,-36 29,42 -1,-1 0,-2 1,3 -29,-42 32,41 0,0 -32,-41 32,40 -32,-40 15,7 1,-1 2,0 1,1 0,2 -1,1 -2,0 -1,-1 0,-2 -15,-7Z"/>
<path onmouseover="hoverPath(evt)" onmouseout="recoverPath(evt)" fill="rgb(171,198,238)" d="M  0,101l 0,154 2,0 0,-4 1,-1 0,-2 1,-1 1,0 1,-1 112,0 1,1 44,0 1,-1 77,0 1,1 0,1 13,0 0,-6 -44,0 -1,1 -118,0 -1,-1 -82,0 -1,-1 -1,0 -1,-1 -1,-1 -1,-1 0,-4 1,-1 0,-10 1,-1 0,-10 1,-1 0,-7 1,-1 0,-4 1,-1 0,-4 1,-1 0,-4 1,-1 0,-4 1,-1 0,-4 1,-1 0,-4 1,-1 0,-4 1,-1 0,-5 1,-1 0,-18 1,-1 6,0 1,1 5,0 1,1 8,0 1,-1 8,0 1,-1 8,0 1,-1 7,0 1,1 17,0 1,-1 3,0 1,-1 1,0 2,-2 1,-1 1,-1 0,-1 1,-1 1,0 2,-2 1,0 1,-1 1,0 1,-1 1,0 1,-1 1,0 1,-1 1,0 1,-1 3,0 1,1 7,0 1,1 3,0 1,1 2,0 -2,-1 -1,-1 -3,0 -1,-1 -5,0 -1,-1 -5,0 -1,-1 -1,0 -1,-1 -1,-1 -1,-1 0,-1 -1,-1 0,-4 -1,-1 0,-11 -1,-1 0,-1 -1,-1 0,-1 -1,-1 -1,-1 -1,-1 -1,-1 -1,-1 -1,-1 -1,0 1,1 0,1 1,1 0,0 1,1 1,1 0,1 1,1 0,1 1,1 0,2 1,1 0,5 1,1 0,7 1,1 0,3 1,1 0,3 -1,1 -2,2 -1,0 -2,2 -1,0 -3,3 -1,0 -2,2 -1,1 -1,1 -1,0 -1,1 -2,0 -1,1 -10,0 -1,-1 -6,0 -1,-1 -2,0 -1,1 -8,0 -1,1 -6,0 -1,1 -13,0 -1,-1 -4,0 -1,-1 -5,0 -1,-1 -1,-1 0,-9 -1,-1 0,-5 -1,-1 0,-3 -1,-1 0,-1 -1,-1 -1,-1 0,-1 -1,-1 -1,-1 0,-1 -1,-1 -1,-1 0,-1 -1,-1 -2,-2 0,-1 -1,-1 -1,-1 -1,-1 0,-1 -1,-1 -1,1Z"/>
<path onmouseover="hoverPath(evt)" onmouseout="recoverPath(evt)" fill="rgb(243,242,233)" d="M  6,249l -1,0 0,2 -1,1 0,3 251,0 0,-2 -88,0 -1,1 -3,0 -1,-1 0,-2 1,-1 0,-1 -45,0 -1,-1 -110,0 -1,1Z"/>
<path onmouseover="hoverPath(evt)" onmouseout="recoverPath(evt)" fill="rgb(244,243,236)" d="M  31,0l -2,0 0,3 -1,1 2,0 1,1 0,2 1,1 0,2 1,1 0,1 1,1 0,3 1,1 0,1 1,1 0,2 1,1 0,1 1,1 0,2 1,1 0,2 1,1 0,1 1,1 0,2 3,0 1,-1 1,0 1,-1 2,0 1,-1 2,0 1,-1 2,0 1,-1 1,0 1,-1 2,0 1,-1 1,0 1,-1 2,0 1,-1 1,0 1,-1 2,0 1,-1 1,0 1,-1 2,0 1,-1 2,0 1,-1 1,0 1,-1 2,0 1,-1 2,0 1,-1 1,0 1,-1 2,0 1,-1 2,0 1,-1 1,0 1,-1 2,0 1,-1 2,0 1,-1 1,0 1,-1 2,0 1,-1 2,0 1,-1 2,0 1,-1 1,0 1,-1 2,0 1,-1 2,0 1,-1 2,0 1,-1 2,0 1,-1 1,0 1,-1 3,0 0,-1Z"/>
<path onmouseover="hoverPath(evt)" onmouseout="recoverPath(evt)" fill="rgb(244,243,236)" d="M  86,71l 0,0 -1,1 0,1 -1,1 0,2 -1,1 0,2 -1,1 0,1 1,1 0,1 1,1 1,1 4,4 1,1 0,1 1,1 0,1 1,0 1,1 1,1 1,1 1,1 1,1 1,1 1,1 0,1 1,1 0,1 1,1 0,11 1,1 0,4 1,1 0,1 1,1 1,1 1,0 1,1 5,0 1,1 5,0 1,1 3,0 1,1 1,1 1,0 1,1 0,2 1,0 1,1 1,0 1,1 1,0 1,1 0,1 1,0 1,1 1,1 8,0 1,-1 3,0 1,-1 2,0 1,-1 3,0 1,-1 2,0 1,-1 3,0 1,-1 4,0 1,-1 13,0 0,-2 1,-1 0,-7 1,-1 0,-8 -2,0 -1,-1 0,-7 -1,-1 0,-8 -1,-1 0,-8 -1,-1 0,-9 1,-1 0,-5 -1,-1 0,-5 -1,-1 0,-8 -1,-1 0,-11 -2,0 -1,-1 0,-7 -12,0 -1,1 -10,0 -1,1 -4,0 -1,-1 -2,0 -1,1 -1,0 0,3 1,1 0,3 1,1 0,4 1,1 0,2 1,1 0,4 -1,1 -1,1 -1,1 -9,0 -1,1 -10,0 -1,1 -5,0 -1,1 -5,0 -1,1 -1,0 -1,1 -1,0 -1,1 -1,1 -1,1 -1,0 -1,1 -4,0 -1,1 -6,0 -1,1Z"/>
<path onmouseover="hoverPath(evt)" onmouseout="recoverPath(evt)" fill="rgb(173,199,239)" d="M  89,67l -3,0 -1,-1 0,1 -1,1 -1,0 -1,1 -1,1 0,2 -1,1 0,1 -1,1 0,2 -1,1 0,4 1,1 0,0 1,1 0,1 1,1 1,1 3,3 1,1 1,1 1,1 1,0 -1,-1 0,-1 -1,-1 0,0 -1,-1 -1,-1 -1,-1 -1,-1 -1,-1 -1,-1 0,-1 -1,-1 0,-3 1,-1 0,-2 1,-1 0,-2 1,-1 0,-1 1,-1 1,-1 1,-1 2,0 1,-1 1,1 2,0 1,-1 4,0 1,-1 1,0 1,-1 1,-1 -2,1 -1,0 -1,1 -7,0 0,2 -1,-1Z"/>
<path onmouseover="hoverPath(evt)" onmouseout="recoverPath(evt)" fill="rgb(171,198,238)" d="M  118,59l -3,0 -1,1 -6,0 -1,1 -1,0 -1,1 3,-1 3,0 4,-1 2,0 1,-1 10,0 1,-1 9,0 1,-1 1,-1 0,-2 -1,-1 0,-2 -1,-1 0,-4 -1,-1 0,-3 -1,-1 0,-5 1,-1 1,0 1,-1 4,0 1,1 2,0 1,-1 10,0 1,-1 12,0 0,-1 -1,-1 0,-2 -12,0 -1,1 -7,0 -1,1 -10,0 -1,1 -3,0 -1,1 -1,0 0,5 1,1 0,3 1,1 0,2 1,1 0,3 1,1 0,3 -1,1 -1,1 -2,0 -1,1 -4,0 -1,1 -3,0 -1,2Z"/>
<path onmouseover="hoverPath(evt)" onmouseout="recoverPath(evt)" fill="rgb(243,242,233)" d="M  171,19l 0,5 1,1 0,3 -1,1 0,1 1,1 0,2 1,1 0,-7 1,-1 6,0 1,-1 9,0 1,-1 9,0 1,1 2,0 1,1 1,0 1,1 2,0 1,1 13,0 1,-1 6,0 1,-1 6,0 1,-1 7,0 1,-1 10,0 0,-24 -85,0 0,8 1,1 0,10 61,-1 -2,0 -1,-1 0,-2 1,-1 2,0 1,1 0,2 -1,1 -61,1Z"/>
<path onmouseover="hoverPath(evt)" onmouseout="recoverPath(evt)" fill="rgb(171,198,238)" d="M  175,29l 0,3 13,0 1,-1 5,0 1,1 3,0 1,1 1,0 1,1 2,0 1,1 4,0 1,1 17,0 1,-1 8,0 1,-1 7,0 1,-1 3,0 1,-1 3,0 1,-1 3,0 0,-5 -9,0 -1,1 -7,0 -1,1 -6,0 -1,1 -6,0 -1,1 -15,0 -1,-1 -2,0 -1,-1 -1,0 -1,-1 -2,0 -1,-1 -7,0 -1,1 -9,0 -1,1 -5,0 -1,1Z"/>
<path onmouseover="hoverPath(evt)" onmouseout="recoverPath(evt)" fill="rgb(244,243,236)" d="M  176,34l -1,0 0,7 1,1 0,11 1,1 0,8 1,1 0,5 1,1 0,7 -1,1 0,7 1,1 0,8 1,1 0,8 1,1 0,7 2,0 1,1 0,9 1,1 0,8 7,0 1,1 3,0 1,1 4,0 1,1 3,0 1,1 3,0 1,1 3,0 1,1 1,0 1,1 4,0 1,1 27,0 1,1 6,0 0,-105 -2,0 -1,1 -3,0 -1,1 -3,0 -1,1 -7,0 -1,1 -8,0 -1,1 -19,0 -1,-1 -4,0 -1,-1 -2,0 -1,-1 -1,0 -1,-1 -3,0 -1,-1 -3,0 -1,1Z"/>
<path onmouseover="hoverPath(evt)" onmouseout="recoverPath(evt)" fill="rgb(253,253,253)" d="M  182,131l 0,0 1,1 0,21 1,1 0,9 -1,1 0,10 -1,1 -51,0 -1,1 -6,0 0,1 10,0 1,-1 47,0 1,1 72,0 0,-1 -68,0 -1,-1 -1,0 -1,-1 -2,-43 2,20 0,-20 -1,-1 0,-8 -1,8Z"/>
<path onmouseover="hoverPath(evt)" onmouseout="recoverPath(evt)" fill="rgb(224,224,214)" d="M  183,249l 57,0 0,-1 -56,0 -1,1 -4,0 -1,-1 -13,0 0,1Z"/>
<path onmouseover="hoverPath(evt)" onmouseout="recoverPath(evt)" fill="rgb(243,242,234)" d="M  187,134l -2,0 0,11 1,1 0,21 -1,1 0,4 1,1 1,0 1,1 67,0 0,-31 -3,0 -1,-1 -25,0 -1,-1 -7,0 -1,-1 -5,0 -1,-1 -5,0 -1,-1 -3,0 -1,-1 -3,0 -1,-1 -3,0 -1,-1 -4,0 -1,-1Z"/>
<path onmouseover="hoverPath(evt)" onmouseout="recoverPath(evt)" fill="rgb(254,254,254)" d="M  241,251l 14,0 0,-1 -13,0 -1,1 -76,0 -1,1Z"/>
<path onmouseover="hoverPath(evt)" onmouseout="recoverPath(evt)" fill="rgb(172,198,238)" d="M  220,139l 0,0 -1,-1 -4,0 -1,-1 -1,0 -1,-1 -3,0 -1,-1 -3,0 -1,-1 -3,0 -1,-1 -4,0 -1,-1 -3,0 -1,-1 -5,0 0,1 3,0 1,1 4,0 1,1 3,0 1,1 3,0 1,1 3,0 1,1 5,0 1,1 1,0 6,1 6,0 1,1 25,0 1,1 2,0 0,-1 -2,0 -6,-1Z"/>
</svg>