<svg width="256" height="256" xmlns="http://www.w3.org/2000/svg"><script> 
var tempColor;
function hoverPath(evt){
obj = evt.target;
tempColor = obj.getAttribute("fill");
obj.setAttribute("fill","red");
//alert(tempColor);
//obj.setAttribute("stroke","red");}
function recoverPath(evt){
obj = evt.target;
obj.setAttribute("fill", tempColor);
//obj.setAttribute("stroke", tempColor);
}</script><path onmouseover="hoverPath(evt)" onmouseout="recoverPath(evt)" fill="rgb(244,242,235)" d="M  0,62l 0,69 1,0 1,1 1,0 1,-1 2,0 1,-1 2,0 1,-1 2,0 1,-1 2,0 1,-1 2,0 1,-1 2,0 1,-1 2,0 1,-1 2,0 1,-1 2,0 0,-1 1,-1 0,-3 1,-1 1,-1 0,-2 1,-1 0,-3 1,-1 2,0 0,-1 -1,-1 0,-2 1,-1 1,-1 0,-5 1,-1 0,-3 1,-1 0,-1 1,-1 0,-3 1,-1 0,-3 1,-1 0,-5 1,-1 0,-2 1,-1 0,-6 1,-1 0,-2 1,-1 0,-4 1,-1 0,-4 1,-1 0,-5 1,-1 0,-1 -3,0 -1,1 -27,0 -1,-1 0,6 -1,1 3,0 1,1 0,4 -1,1 -5,0 -1,-1 -14,0Z"/>
<path onmouseover="hoverPath(evt)" onmouseout="recoverPath(evt)" fill="rgb(171,198,238)" d="M  56,128l -1,0 0,15 1,1 0,3 1,1 0,2 1,1 0,3 1,1 0,2 1,1 0,3 1,1 0,2 1,1 1,1 1,1 0,1 1,1 1,1 1,1 1,1 0,1 1,1 1,0 1,1 7,0 1,-1 3,0 1,-1 0,-3 -1,-1 0,-7 -1,-1 0,-8 -1,-1 0,-7 -1,-1 0,-7 -1,-1 0,-4 -1,-1 0,-2 -1,-1 0,-4 -1,-1 0,-1 -1,0 -1,-1 -2,0 -1,1 -1,0 -1,1 -1,0 -1,1 -2,0 -1,1 -1,0 -1,1 -2,0 -1,1 -1,0 -1,1Z"/>
<path onmouseover="hoverPath(evt)" onmouseout="recoverPath(evt)" fill="rgb(244,241,234)" d="M  68,46l 0,-2 -1,2 0,8 -1,1 0,2 -1,1 0,2 -1,1 -1,0 1,1 0,8 -1,1 0,4 -1,1 0,2 -1,1 0,4 -1,1 0,2 -1,1 0,6 -1,1 0,4 -1,1 0,5 -1,1 0,3 -1,1 0,1 -1,1 0,1 1,1 0,-2 1,-1 2,0 1,1 1,-1 0,-2 1,-1 2,0 1,1 0,-1 1,-1 1,0 0,-1 1,-1 3,0 1,1 1,-1 0,0 1,-1 1,0 1,-1 0,-4 1,-1 0,-3 -1,-1 0,-8 -1,-1 0,-6 -1,-1 0,-5 -1,-1 0,-7 -1,-1 0,-4 -1,-1 0,-5 -1,-1 0,-5 -1,-1Z"/>
<path onmouseover="hoverPath(evt)" onmouseout="recoverPath(evt)" fill="rgb(171,197,237)" d="M  71,28l -1,0 0,1 -1,1 -1,0 2,1 0,2 -1,1 -2,0 0,3 1,0 1,1 0,4 1,1 0,2 1,1 0,5 1,1 0,5 1,1 0,4 1,1 0,7 1,1 0,5 1,1 0,6 1,1 0,8 1,1 0,4 2,0 1,1 1,-1 0,-7 -1,-1 0,-5 -1,-1 0,-5 -1,-1 0,-6 -1,-1 0,-6 -1,-1 0,-7 -1,-1 0,-6 -1,-1 0,-6 1,-1 0,-1 1,-1 1,-1 2,0 1,-1 6,0 1,-1 5,0 1,-1 13,0 1,-1 4,0 1,1 13,0 1,-1 19,0 1,-1 12,0 0,-1 1,-1 2,-2 1,-1 2,-2 3,0 0,-2 1,-1 1,-1 2,-2 -2,0 -1,1 -5,0 -1,1 -75,0 -1,1 -3,0 -1,1 -3,0 -1,1 -2,0 -1,1 -2,0 -1,1 -1,0 -1,1Z"/>
<path onmouseover="hoverPath(evt)" onmouseout="recoverPath(evt)" fill="rgb(244,243,236)" d="M  107,220l -1,1 -4,0 0,1 -1,1 1,1 0,6 1,1 0,5 1,1 0,6 1,1 0,7 1,1 0,3 125,0 0,-4 -1,-1 0,-6 -1,-1 0,-6 -1,-1 0,-6 -1,-1 0,-6 -1,-1 0,-7 -1,-1 -41,0 -1,-1 -6,0 -1,1 -20,0 -1,-1 0,1 -1,1 -2,0 -1,-1 -1,0 -1,1 -7,0 -1,1 -11,0 -1,1 -4,0 -1,1 -10,0 -1,-1 -1,0 0,1 -1,1 -3,0 -1,1Z"/>
<path onmouseover="hoverPath(evt)" onmouseout="recoverPath(evt)" fill="rgb(253,253,252)" d="M  116,90l 0,0 1,1 0,1 1,1 0,4 -1,1 0,1 -1,1 0,1 -1,1 -1,1 0,1 -1,1 0,1 -1,1 -1,1 0,1 -1,1 0,1 -1,1 -1,1 0,1 -1,1 -1,1 0,1 -1,1 0,1 -1,1 0,1 -1,1 -1,1 0,1 -1,1 0,1 -1,1 0,1 -1,1 0,1 -1,1 0,1 -1,1 -1,1 0,1 -1,1 -1,1 0,1 -1,1 0,1 -1,1 -1,0 0,12 1,1 0,5 1,1 0,6 1,1 0,5 1,1 0,7 1,1 0,7 1,1 0,1 1,1 0,-3 1,-1 1,0 1,-1 -2,0 -1,-1 0,-4 -1,-1 0,-4 -1,-1 0,-9 -1,-1 0,-3 -1,-1 0,-5 -1,-1 0,-6 -1,-1 0,-2 1,-1 0,-4 1,-1 1,-1 0,-1 1,-1 0,-1 1,-1 1,-1 0,-1 1,-1 0,-1 1,-1 0,-1 1,-1 1,-1 2,0 0,-1 1,-1 -1,-1 0,-2 1,-1 0,-1 1,-1 1,-1 0,-1 1,-1 0,-1 1,-1 1,-1 0,-1 1,-1 1,-1 0,-1 1,-1 2,0 -1,-1 0,-2 1,-1 1,-1 0,-1 1,-1 0,-1 1,-1 0,-1 1,-1 0,-5 -1,-1 0,-1 -1,-1 -1,1Z"/>
<path onmouseover="hoverPath(evt)" onmouseout="recoverPath(evt)" fill="rgb(244,243,235)" d="M  119,85l -1,0 -1,1 0,1 1,0 1,1 1,1 0,1 1,1 0,7 -1,1 0,1 -1,1 0,1 -1,1 0,1 -1,1 -1,1 1,1 0,2 -1,1 -2,0 0,1 -1,1 -1,1 0,1 -2,2 0,1 -1,1 0,1 -1,1 -1,1 0,1 -1,1 1,1 0,2 -1,1 0,1 -1,1 -2,0 -1,1 0,1 -1,1 0,1 -1,1 0,1 -1,1 -1,1 0,1 -1,1 0,1 -1,1 -1,1 0,4 -1,1 1,1 0,6 1,1 0,5 1,1 0,3 3,0 1,-1 6,0 1,-1 6,0 1,-1 5,0 1,-1 6,0 1,-1 5,0 1,-1 5,0 1,-1 4,0 1,-1 5,0 1,-1 4,0 1,-1 4,0 1,-1 5,0 1,-1 4,0 1,-1 4,0 1,-1 4,0 1,-1 3,0 1,-1 4,0 1,-1 5,0 1,-1 1,0 0,-1 1,-1 0,-1 1,-1 0,-1 1,-1 1,0 1,-1 1,0 1,-1 3,0 0,-7 -1,-1 0,-8 -1,-1 0,-5 -1,-1 0,-5 -1,-1 0,-5 -1,-1 0,-5 -1,-1 0,-5 -1,-1 0,-5 -1,-1 0,-9 -1,-1 0,-6 -1,-1 0,-5 -1,-1 0,-6 -1,-1 0,-6 -1,-1 0,-6 -1,-1 0,-8 -1,0 -1,-1 -1,1 -8,0 -1,1 -2,0 -1,-1 -3,0 -3,3 0,1 -1,1 -1,1 0,2 -2,2 -4,0 -1,1 0,1 -1,1 -2,2 -2,0 -2,2 -1,1 -1,1 0,1 -1,1 -1,1 0,2 -1,1 -1,1 -4,0 -1,1 -1,1 -1,1 0,1 -1,1 -1,1 -2,0 -1,1 -2,2 0,1 -1,1 0,2 -1,1 -1,1 -4,0 -1,1 0,1 -2,2 0,2 -2,2 -4,0 -1,1 0,1 -1,1Z"/>
<path onmouseover="hoverPath(evt)" onmouseout="recoverPath(evt)" fill="rgb(244,242,235)" d="M  207,7l 0,0 -1,1 -2,0 -1,1 -1,1 -1,1 -1,1 0,1 -1,1 -1,1 0,1 26,0 1,1 4,0 1,1 3,0 1,1 2,0 1,1 1,0 1,1 3,0 1,1 5,0 1,1 6,0 0,-23 -40,0 0,2 -1,1 -1,1 -1,1 -4,0 0,1 -1,1Z"/>
<path onmouseover="hoverPath(evt)" onmouseout="recoverPath(evt)" fill="rgb(244,243,237)" d="M  232,214l 0,6 1,1 0,6 1,1 0,5 1,1 0,6 1,1 0,5 1,1 0,8 18,0 0,-41 -19,0 -1,-1 -1,0 -1,1Z"/>
<path onmouseover="hoverPath(evt)" onmouseout="recoverPath(evt)" fill="rgb(244,243,235)" d="M  0,1l 0,24 23,0 0,-2 1,-1 9,0 1,1 1,1 1,1 0,5 7,0 1,-1 0,0 1,-1 0,-3 -1,-1 0,-8 -1,-1 0,-9 -1,-1 0,-5 -41,0 -1,1Z"/>
<path onmouseover="hoverPath(evt)" onmouseout="recoverPath(evt)" fill="rgb(171,197,237)" d="M  0,35l 0,9 13,0 1,1 5,0 1,1 25,0 1,-1 5,0 0,-2 1,-1 1,0 0,-3 -1,0 -1,-1 0,-2 1,-1 2,0 0,-3 -1,0 -1,-1 0,-2 -1,-1 0,-20 -1,-1 0,-7 -6,0 0,4 1,1 0,9 1,1 0,8 1,1 0,5 -1,1 -2,2 -10,0 -1,1 -16,0 -1,1 -15,0 -1,1Z"/>
<path onmouseover="hoverPath(evt)" onmouseout="recoverPath(evt)" fill="rgb(212,228,182)" d="M  0,49l 0,8 15,0 1,1 3,0 0,-2 -4,0 -1,-1 0,-2 1,-1 1,0 0,-5 -3,0 -1,-1 -12,0Z"/>
<path onmouseover="hoverPath(evt)" onmouseout="recoverPath(evt)" fill="rgb(250,202,112)" d="M  0,135l 0,6 1,0 1,-1 3,0 1,-1 2,0 1,-1 2,0 1,-1 2,0 1,-1 3,0 1,-1 2,0 1,-1 4,0 1,1 0,-3 1,-1 1,0 -1,-1 0,-3 1,-1 -3,0 -1,1 -2,0 -1,1 -2,0 -1,1 -2,0 -1,1 -2,0 -1,1 -2,0 -1,1 -2,0 -1,1 -2,0 -1,1 -3,0 -1,1 29,-10 1,1 1,0 0,-1 -2,0 -29,10Z"/>
<path onmouseover="hoverPath(evt)" onmouseout="recoverPath(evt)" fill="rgb(241,234,222)" d="M  0,145l 0,16 2,0 1,-1 0,-1 1,-1 1,-1 1,-1 1,-1 1,-1 1,-1 4,-4 1,-1 2,-2 1,-1 1,0 1,-1 0,-2 1,-1 1,-1 1,0 0,-2 1,-1 0,-1 -1,1 -2,0 -1,1 -3,0 -1,1 -2,0 -1,1 -2,0 -1,1 -2,0 -1,1 -3,0 -1,1 -2,0Z"/>
<path onmouseover="hoverPath(evt)" onmouseout="recoverPath(evt)" fill="rgb(243,242,236)" d="M  2,171l -2,0 0,26 7,0 1,-1 1,0 0,-3 1,-1 0,-1 1,-1 0,-2 1,-1 2,0 1,-1 -1,0 -1,-1 0,-2 1,-1 2,0 1,-1 -1,-1 0,-2 1,-1 1,0 1,-1 -1,-1 0,-5 1,-1 1,-1 0,-5 1,-1 0,-3 1,-1 0,-5 1,-1 -2,2 0,0 -1,1 -1,1 -1,1 -1,1 -1,1 -1,1 -2,2 -1,1 -1,1 -1,1 -1,1 -1,1 -2,0 0,1 -1,1 -2,0 0,1 -1,1Z"/>
<path onmouseover="hoverPath(evt)" onmouseout="recoverPath(evt)" fill="rgb(242,242,231)" d="M  19,31l 13,0 1,-1 1,0 0,-4 -1,-1 0,0 -1,-1 -7,0 0,2 -1,1 -24,0 0,5 15,0 1,-1Z"/>
<path onmouseover="hoverPath(evt)" onmouseout="recoverPath(evt)" fill="rgb(244,243,236)" d="M  22,213l 0,0 -1,1 0,1 -1,1 0,1 -1,1 0,1 -1,1 0,1 -1,1 -1,1 0,3 -1,1 -2,0 1,1 0,2 -1,1 -1,1 0,3 -1,1 -2,0 1,1 0,2 -1,1 -1,1 0,1 -1,1 0,4 1,1 0,2 -1,1 0,4 12,0 0,-3 2,-2 1,-1 2,0 1,-1 0,-1 1,-1 2,0 1,-1 0,-1 1,-1 2,0 0,-1 1,-1 2,0 0,-1 1,-1 2,0 0,-1 1,-1 2,0 0,-1 1,-1 1,0 1,-1 2,0 1,-1 1,0 1,-1 1,0 1,-1 1,0 1,-1 1,0 1,-1 1,0 0,-1 1,-1 6,0 0,-2 1,-1 3,0 1,-1 1,-1 3,0 1,-1 1,-1 3,0 1,-1 1,-1 2,0 0,-1 -5,0 -1,-1 -1,1 -2,0 -1,-1 -3,0 -1,-1 -2,0 -1,-1 0,-1 -32,0 -1,-1 -8,0 -1,1Z"/>
<path onmouseover="hoverPath(evt)" onmouseout="recoverPath(evt)" fill="rgb(183,150,236)" d="M  21,253l 0,2 6,0 0,-2 1,-1 2,0 1,-1 0,-1 1,-1 2,0 0,-1 1,-1 2,0 0,-1 1,-1 2,0 0,-1 1,-1 1,-1 2,0 1,-1 1,0 0,-1 1,-1 1,0 1,-1 1,0 1,-1 1,0 1,-1 1,0 1,-1 1,0 1,-1 0,-1 1,-1 4,0 1,-1 3,0 1,-1 1,-1 3,0 0,-2 1,-1 3,0 1,1 0,-2 1,-1 3,0 1,1 1,-1 0,0 1,-1 5,0 1,-1 5,0 1,1 0,5 1,1 0,6 1,1 0,6 1,1 0,6 1,1 0,5 5,0 0,-2 -1,-1 0,-7 -1,-1 0,-6 -1,-1 0,-5 -1,-1 0,-6 -1,-1 0,-2 1,-1 0,-1 1,-1 4,0 0,-1 1,-1 4,0 0,-1 1,-1 3,0 1,1 8,0 1,-1 4,0 1,-1 11,0 1,-1 7,0 1,-1 3,0 1,1 0,-1 1,-1 2,0 1,1 18,0 1,-1 8,0 1,1 41,0 1,1 1,1 0,7 1,1 0,6 1,1 0,6 1,1 0,6 1,1 0,6 1,1 0,5 2,0 0,-7 -1,-1 0,-5 -1,-1 0,-6 -1,-1 0,-5 -1,-1 0,-6 -1,-1 0,-8 1,-1 1,0 1,-1 3,0 1,1 18,0 0,-12 -9,0 -1,1 -16,0 -1,-1 -1,-1 0,-2 -1,-1 0,-8 -1,1 -1,0 0,5 1,1 0,3 -1,1 -1,1 -12,0 -1,1 -15,0 -1,-1 -1,0 -1,-1 -7,0 -1,1 -2,0 -1,1 -3,0 -1,-1 -1,-1 -4,0 -1,1 -5,0 -1,-1 -10,0 -1,1 -4,0 -1,-1 0,-1 -2,0 -1,1 -4,0 -1,-1 -7,0 -1,1 -3,0 -1,-1 0,-1 -1,0 -1,1 -3,0 -1,-1 -6,0 -1,-1 -1,1 -3,0 -1,-1 -4,0 -1,-1 -4,0 -1,-1 0,-3 -1,0 0,2 -1,1 -2,0 -1,-1 0,-1 -1,-1 0,-1 -1,-1 0,-7 -1,-1 0,-7 -1,-1 0,-5 -1,-1 0,-6 -1,-1 0,-5 -1,-1 0,-13 -1,-1 0,-10 -1,-1 0,-8 -1,-1 0,-5 -1,-1 0,-4 -1,-1 -1,0 -1,1 -1,1 -1,0 -1,1 0,1 1,1 0,5 1,1 0,6 1,1 0,6 1,1 0,7 1,1 0,5 1,1 0,6 1,1 0,6 1,1 0,6 1,1 0,7 1,1 0,6 1,1 0,5 -1,1 0,1 -1,1 -3,0 -1,-1 0,-2 -1,0 -1,-1 -1,0 -1,-1 -2,0 -1,-1 0,-1 -2,0 -1,-1 0,-1 -2,0 -1,-1 -1,-1 0,-1 -1,-1 -1,-1 -1,-1 0,-2 -1,-1 0,-1 -1,-1 -1,-1 -1,-1 -1,-1 0,-1 -1,-1 -1,-1 -1,-1 0,-2 -1,-1 0,-3 -1,-1 0,-2 -1,-1 0,-3 -1,-1 0,-2 -1,-1 0,-3 -1,-1 0,-17 -1,-1 0,-1 -1,-1 0,-2 -1,-1 0,-1 -1,-1 0,-3 1,-1 0,-2 1,-1 1,0 0,-2 1,-1 0,-1 1,-1 0,-3 1,-1 0,-5 1,-1 0,-4 1,-1 0,-3 -1,-1 0,-2 1,-1 1,0 0,-2 1,-1 0,-4 1,-1 0,-2 1,-1 0,-4 1,-1 0,-6 -1,-1 0,-2 1,-1 1,0 0,-2 1,-1 0,-2 1,-1 0,-8 1,-1 0,-1 1,-1 0,-3 -1,0 -1,-1 0,-5 1,-1 2,0 -2,-1 0,-2 1,-1 1,0 0,-1 1,-1 1,0 -1,-1 0,-7 1,-1 0,-5 -1,-1 0,-3 1,-1 1,0 0,-2 -1,-1 0,-3 1,-1 -19,0 0,6 1,1 0,20 1,1 0,2 1,0 1,1 0,5 -1,1 -2,0 2,1 0,5 -1,1 -1,0 0,2 -1,1 0,2 -1,1 0,5 -1,1 0,4 -1,1 0,4 -1,1 0,2 -1,1 0,6 -1,1 0,2 -1,1 0,5 -1,1 0,3 -1,1 0,3 -1,1 0,1 -1,1 0,3 -1,1 0,5 -1,1 -1,1 1,1 0,3 -1,1 -2,0 0,3 -1,1 0,2 -2,2 0,3 -1,1 1,1 0,3 -1,1 -2,0 0,1 1,1 0,2 -1,1 -1,0 0,3 -1,1 -2,0 -1,-1 0,2 -1,1 0,2 -1,1 -1,0 -1,1 0,2 -1,1 -1,1 -1,0 -1,1 -1,1 -1,1 -2,2 -1,1 -1,1 -1,1 -1,1 -4,4 0,1 -1,1 -1,1 -3,0 0,6 1,0 0,-1 1,-1 2,0 0,-1 1,-1 2,0 2,-2 1,-1 2,-2 1,-1 4,-4 1,-1 2,-2 1,-1 1,-1 2,0 1,1 0,2 -1,1 0,5 -1,1 0,3 -1,1 0,5 -1,1 -1,1 0,3 1,1 0,2 -1,1 -1,1 0,3 -1,1 -1,1 -2,0 2,1 0,2 -1,1 -1,1 -2,0 0,2 -1,1 0,1 -1,1 0,3 -1,1 -1,0 -1,1 -8,0 0,56 5,0 0,-5 1,-1 -1,-1 0,-6 1,-1 0,-1 1,-1 1,-1 -1,-1 0,-2 1,-1 2,0 0,-3 2,-2 -1,-1 0,-2 1,-1 2,0 0,-3 1,-1 1,-1 0,-1 1,-1 0,-1 1,-1 0,-1 1,-1 0,-1 1,-1 0,-1 1,-1 11,0 1,1 32,0 1,1 0,1 2,0 1,1 3,0 1,1 1,-1 2,0 1,1 5,0 1,1 0,3 -1,1 -2,0 -2,2 -3,0 -1,1 -1,1 -3,0 -1,1 -1,1 -3,0 0,2 -1,1 -6,0 0,1 -1,1 -1,0 -1,1 -1,0 -1,1 -1,0 -1,1 -1,0 -1,1 -1,0 -1,1 -2,0 -1,1 -1,0 0,1 -1,1 -2,0 0,1 -1,1 -2,0 0,1 -1,1 -2,0 0,1 -1,1 -2,0 0,1 -1,1 -1,1 -2,0 0,1 -1,1 -1,1 -2,0 -1,1 -1,1 47,-70 1,1 1,1 0,1 1,1 2,0 1,1 0,1 2,0 1,1 0,2 -1,1 -12,0 -1,1 -1,1 -2,0 -1,-1 -4,0 -1,1 -5,0 -1,1 -6,0 -1,-1 -1,-1 -1,-1 -1,-1 0,-2 -1,0 -1,-1 0,-2 -1,0 -1,-1 -1,-1 0,-4 1,-1 0,-1 1,-1 0,-2 1,-1 0,-4 1,-1 2,0 0,-1 1,-1 0,-3 1,-1 0,-1 1,-1 1,-1 0,-2 1,-1 0,-4 1,-1 3,0 1,1 0,5 1,1 0,2 2,0 1,1 0,4 1,1 0,2 1,0 1,1 0,2 1,1 1,0 1,1 1,1 1,1 0,1 1,1 1,1 1,1 1,1 1,1 2,0 -47,70Z"/>
<path onmouseover="hoverPath(evt)" onmouseout="recoverPath(evt)" fill="rgb(244,243,236)" d="M  32,253l 0,0 -1,1 -2,0 0,1 68,0 0,-4 -1,-1 0,-6 -1,-1 0,-6 -1,-1 0,-6 -1,-1 0,-5 -3,0 -1,1 -5,0 -1,1 -1,1 -2,0 -1,-1 -1,0 0,2 -1,1 -2,0 -1,-1 -1,0 0,2 -1,1 -3,0 -1,1 -1,1 -3,0 -1,1 -4,0 0,1 -1,1 -1,1 -1,0 -1,1 -1,0 -1,1 -1,0 -1,1 -1,0 -1,1 -1,0 0,1 -1,1 -1,0 -1,1 -2,0 -1,1 0,1 -1,1 -2,0 0,1 -1,1 -2,0 0,1 -1,1 -2,0 0,1 -1,1Z"/>
<path onmouseover="hoverPath(evt)" onmouseout="recoverPath(evt)" fill="rgb(244,243,236)" d="M  46,157l 0,2 -1,1 0,2 -1,1 -1,1 0,1 -1,1 0,3 -1,1 0,1 -1,1 -2,0 0,4 -1,1 0,2 -1,1 0,1 -1,1 0,2 1,1 1,0 1,1 0,2 1,0 1,1 0,2 1,1 1,1 1,1 4,0 1,-1 5,0 1,-1 6,0 1,1 1,-1 1,-1 12,0 -3,-1 0,-1 -2,0 -1,-1 -1,-1 0,-1 -1,-1 -2,0 -1,-1 -1,-1 -1,-1 -1,-1 -1,-1 -1,-1 0,-1 -1,-1 -1,-1 -1,0 -1,-1 -1,-1 0,-2 -1,0 -1,-1 0,-2 -1,-1 0,-4 -2,0 -1,-1 0,-2 -1,-1 0,-2 -1,-1 1,-1 0,-1 -1,0 0,1 1,0 -1,1Z"/>
<path onmouseover="hoverPath(evt)" onmouseout="recoverPath(evt)" fill="rgb(248,200,111)" d="M  55,115l -1,0 -1,-1 -1,0 0,2 -1,1 0,1 1,1 0,1 1,1 0,2 1,1 0,1 1,1 1,-1 1,0 1,-1 2,0 1,-1 1,0 1,-1 2,0 1,-1 1,0 1,-1 1,0 0,-2 1,-1 1,-1 1,0 0,-2 1,-1 1,-1 1,0 1,-1 1,0 1,-1 1,-1 1,0 1,-1 1,-1 2,0 1,-1 2,0 0,-1 1,-1 3,0 0,-1 1,-1 2,0 0,-1 1,-1 2,0 0,-1 1,-1 2,0 0,-1 1,-1 2,0 0,-1 1,-1 2,0 0,-3 1,-1 1,0 1,-1 1,0 1,-1 1,0 1,-1 1,-1 1,0 0,-1 1,-1 1,-1 1,0 0,-1 1,-1 1,-1 4,0 1,-1 0,-2 1,-1 1,-1 0,-1 1,-1 1,-1 4,0 1,-1 0,-2 1,-1 0,-1 1,-1 3,-3 2,0 1,-1 0,-1 1,-1 1,-1 1,-1 1,-1 4,0 1,-1 0,-2 1,-1 1,-1 0,-1 1,-1 1,-1 1,-1 1,-1 1,-1 2,0 1,-1 1,-1 0,-1 2,-2 4,0 1,-1 0,-2 1,-1 1,-1 0,-1 1,-1 2,-2 1,-1 4,0 1,-1 1,-1 1,-1 1,-1 1,-1 0,-2 1,-1 3,0 1,-1 1,-1 2,-2 1,-1 0,-2 1,-1 2,0 0,-1 1,-1 1,-1 0,-1 1,-1 1,-1 1,-1 1,-1 1,-1 2,0 1,-1 0,-1 1,-1 4,0 1,-1 1,-1 0,-1 -17,0 0,2 -1,1 -1,1 -1,0 -1,1 0,2 -1,1 -1,1 0,1 -1,1 -1,1 -1,1 -1,1 -1,1 -2,0 -1,1 0,1 -1,1 -1,1 -1,1 -1,1 -4,0 -1,1 -1,1 -1,1 -1,1 0,2 -1,1 -3,0 -1,1 -1,1 -1,1 -1,1 -1,1 0,1 -1,1 -4,0 0,5 -1,1 -3,0 -1,1 -1,0 -1,1 -1,1 0,2 -1,1 -1,1 0,1 -1,1 -1,1 -4,0 -1,1 0,3 -1,1 -1,1 -1,1 -1,1 -1,1 -1,1 -1,1 -2,0 -1,1 0,1 -1,1 -3,0 -1,1 -1,0 -1,1 0,2 -1,1 -1,1 0,1 -1,1 -1,1 -4,0 -1,1 0,3 -1,1 -1,1 -1,1 -2,0 -1,1 -3,0 0,3 -1,1 -1,1 -1,0 -2,2 -1,0 -1,1 -1,1 -1,0 -1,1 -1,1 -1,0 -1,1 -1,1 -2,0 -1,-1 -3,0 0,4 -1,1 -1,1 -2,0 -1,-1 -2,0 0,4 -1,1 -1,1 -1,0 -1,1 -1,1 -2,0 -1,-1 -1,0 0,1 -1,1 -1,0 0,2 -1,1 -2,0 -1,-1 0,1 -1,1 0,0 -1,1 -2,0 -1,-1 0,2 -1,1Z"/>
<path onmouseover="hoverPath(evt)" onmouseout="recoverPath(evt)" fill="rgb(244,243,236)" d="M  74,1l -1,1 -1,0 0,1 1,1 0,4 -1,1 -1,0 0,1 1,1 0,7 -1,1 0,5 1,1 1,-1 2,0 1,-1 2,0 1,-1 3,0 1,-1 3,0 1,-1 75,0 1,-1 5,0 1,-1 4,0 1,1 3,0 1,-1 1,-1 1,-1 0,-1 1,-1 1,-1 2,0 1,-1 1,-1 2,-2 0,-1 1,-1 1,-1 0,-2 1,-1 1,-1 1,0 1,-1 0,-1 -119,0 -1,1Z"/>
<path onmouseover="hoverPath(evt)" onmouseout="recoverPath(evt)" fill="rgb(244,242,234)" d="M  78,41l 0,1 -1,1 0,4 1,1 0,6 1,1 0,7 1,1 0,6 1,1 0,6 1,1 0,5 1,1 0,5 1,1 0,3 4,0 1,1 1,-1 0,0 1,-1 1,0 1,-1 1,-1 1,0 1,-1 1,-1 1,0 1,-1 1,-1 1,0 1,-1 0,-3 1,-1 3,0 1,-1 2,0 1,-1 1,-1 0,-3 1,-1 1,-1 4,0 1,-1 0,-1 1,-1 1,-1 0,-2 1,-1 1,-1 1,0 1,-1 3,0 0,-1 1,-1 1,-1 2,0 1,-1 1,-1 1,-1 1,-1 1,-1 1,-1 0,-3 1,-1 1,-1 4,0 1,-1 0,-1 1,-1 1,-1 0,-2 1,-1 1,-1 1,-1 1,0 1,-1 3,0 0,-4 -6,0 -1,1 -19,0 -1,1 -15,0 -1,-1 -2,0 -1,1 -13,0 -1,1 -5,0 -1,1 -6,0 -1,1 -2,0 -1,1Z"/>
<path onmouseover="hoverPath(evt)" onmouseout="recoverPath(evt)" fill="rgb(243,241,234)" d="M  85,169l 0,5 -1,1 -1,1 -3,0 -1,1 -9,0 -1,-1 2,2 0,0 1,1 0,1 1,1 2,0 1,1 0,1 2,0 1,1 0,1 2,0 1,1 1,0 1,1 1,0 1,1 0,2 1,0 0,-1 1,-1 0,-3 -1,-1 0,-6 -1,-1 0,-7 -1,-1 0,-6 -1,-1 0,-6 -1,-1 0,-6 -1,-1 0,-5 -1,-1 0,-7 -1,-1 0,-6 -1,-1 0,-6 -1,-1 0,-5 -1,-1 0,-1 -1,1 -1,0 -1,1 0,2 -1,1 -1,0 -1,1 3,0 1,1 1,0 1,1 0,1 1,1 0,4 1,1 0,2 6,38 0,1 -5,-34 1,8 1,6 0,2 1,5 0,4 1,3 0,5 -4,-33 5,34Z"/>
<path onmouseover="hoverPath(evt)" onmouseout="recoverPath(evt)" fill="rgb(242,240,230)" d="M  89,107l 0,0 -1,1 -2,0 1,1 0,4 1,1 0,5 1,1 0,8 1,1 0,10 1,0 0,-1 1,-1 0,-1 2,-2 0,-1 2,-2 0,-1 1,-1 0,-1 1,-1 0,-1 1,-1 0,-1 1,-1 0,-1 1,-1 1,-1 0,-1 1,-1 0,-1 1,-1 0,-1 1,-1 1,-1 0,-1 1,-1 1,-1 0,-1 1,-1 0,-1 1,-1 1,-1 0,-1 1,-1 0,-1 1,-1 1,-1 0,-1 1,-1 0,-1 1,-1 0,-2 -1,-1 0,-1 -1,-1 0,-2 1,-1 -2,2 -1,0 -1,1 -1,0 -1,1 -1,0 0,3 -1,1 -2,0 0,1 -1,1 -2,0 0,1 -1,1 -2,0 0,1 -1,1 -2,0 0,1 -1,1 -2,0 0,1 -1,1 -2,0 -1,1Z"/>
<path onmouseover="hoverPath(evt)" onmouseout="recoverPath(evt)" fill="rgb(244,242,234)" d="M  99,170l -1,0 0,4 1,1 0,4 1,1 0,4 3,0 1,1 24,0 1,1 12,0 1,-1 22,0 1,-1 8,0 1,1 6,0 0,-2 1,-1 7,0 1,-1 13,0 1,-1 27,0 1,1 0,2 -1,1 -19,0 17,1 2,0 1,-1 1,0 1,-1 3,0 1,-1 1,0 1,-1 1,-1 0,-2 -1,-1 0,-4 -1,-1 0,-5 -1,-1 0,-7 -1,-1 0,-3 -1,-1 0,-2 -1,-1 0,-3 -1,-1 -1,-1 0,-1 -1,-1 0,-1 -1,-1 0,-1 -6,0 -1,1 -4,0 -1,1 -4,0 -1,1 -3,0 -1,1 -2,0 -1,1 -2,0 0,1 -1,1 0,1 -1,1 -2,0 -1,1 -1,1 -4,0 -1,1 -4,0 -1,1 -4,0 -1,1 -4,0 -1,1 -4,0 -1,1 -4,0 -1,1 -4,0 -1,1 -4,0 -1,1 -4,0 -1,1 -4,0 -1,1 -4,0 -1,1 -4,0 -1,1 -4,0 -1,1 1,0 5,-1 2,0 1,1 1,1 1,1 0,2 1,1 0,3 1,1 0,5 -1,1 -1,1 -6,0 -1,1 -3,0 -1,-1 -1,-1 0,-1 -1,0 -1,-1 -2,0 -1,1 -18,0 -1,-1 -1,-1 0,-8 1,-1 3,0 -5,1 -4,0 -1,1Z"/>
<path onmouseover="hoverPath(evt)" onmouseout="recoverPath(evt)" fill="rgb(244,242,235)" d="M  103,191l 0,2 4,0 1,1 4,0 1,1 1,0 1,-1 2,0 1,1 6,0 1,1 1,0 1,-1 3,0 1,1 0,1 1,0 1,-1 9,0 1,1 2,0 1,-1 4,0 1,1 0,1 2,0 1,-1 12,0 1,1 3,0 1,-1 6,0 1,1 1,1 1,0 1,-1 2,0 1,-1 9,0 1,1 1,0 1,1 13,0 1,-1 12,0 1,-1 0,-1 -1,-1 0,-7 1,-1 1,0 1,-1 -15,0 -1,-1 0,-2 1,-1 -6,0 -1,1 -13,0 -1,1 -7,0 0,2 -1,1 -8,0 -1,-1 -6,0 -1,1 -22,0 -1,1 -14,0 -1,-1 -23,0 -1,1 -1,0 -1,1 1,0 1,1Z"/>
<path onmouseover="hoverPath(evt)" onmouseout="recoverPath(evt)" fill="rgb(171,197,237)" d="M  184,29l -1,1 -1,1 -1,1 2,-1 7,0 1,-1 2,0 1,1 1,0 1,1 0,1 1,0 0,-1 1,-1 1,-1 6,0 1,-1 12,0 1,1 8,0 1,1 5,0 1,1 5,0 1,1 6,0 1,1 6,0 1,1 1,0 0,-10 -7,0 -1,-1 -5,0 -1,-1 -3,0 -1,-1 -1,0 -1,-1 -2,0 -1,-1 -3,0 -1,-1 -4,0 -1,-1 -26,0 -1,-1 -1,0 0,2 -1,1 -1,1 -1,1 -1,1 -1,1 -1,1 -3,0 0,2 -1,1 -1,1Z"/>
<path onmouseover="hoverPath(evt)" onmouseout="recoverPath(evt)" fill="rgb(244,243,236)" d="M  229,191l -1,0 0,4 1,1 0,2 1,1 14,0 1,-1 10,0 0,-161 -2,0 -1,-1 -6,0 -1,-1 -6,0 -1,-1 -5,0 -1,-1 -5,0 -1,-1 -8,0 -1,-1 -10,0 -1,1 -6,0 -1,1 0,2 1,1 0,6 1,1 0,6 1,1 0,6 1,1 0,6 1,1 0,7 1,1 0,6 1,1 0,5 1,1 0,5 1,1 0,6 1,1 0,6 1,1 0,6 1,1 0,6 1,1 0,7 1,1 0,6 1,1 0,3 1,1 1,-1 3,0 1,-1 3,0 1,-1 8,0 1,1 1,1 1,1 0,1 1,1 0,1 1,1 0,2 1,1 0,1 1,1 0,1 1,1 0,2 1,1 0,3 1,1 0,4 1,1 0,5 1,1 0,6 1,1 0,10 -1,1 -1,1 -1,1 -2,0 -1,1 -2,0 -1,1 -2,0 -1,1 -3,0 -1,1Z"/>
<path onmouseover="hoverPath(evt)" onmouseout="recoverPath(evt)" fill="rgb(172,198,237)" d="M  238,157l 0,0 1,1 0,7 1,1 0,5 1,1 0,4 1,1 0,4 -1,1 -1,1 -1,1 -1,0 -1,1 -3,0 -1,1 -1,0 -1,1 -3,0 0,2 1,-1 3,0 1,-1 2,0 1,-1 2,0 1,-1 2,0 1,-1 1,-1 0,-8 -1,-1 0,-6 -1,-1 0,-5 -1,-1 0,-4 -1,-1 -1,1 0,-3 1,0 0,-1 -1,-1 0,-2 -1,-1 0,-1 -1,-1 0,-1 -1,-1 0,-2 -1,-1 0,-1 -1,-1 0,-1 -1,-1 -1,-1 -6,0 -1,1 -3,0 -1,1 -3,0 -1,1 -2,0 -1,-1 -1,-1 0,-3 -1,-1 0,-6 -1,-1 0,-7 -1,-1 0,-6 -1,-1 0,-6 -1,-1 0,-6 -1,-1 0,-6 -1,-1 0,-5 -1,-1 0,-5 -1,-1 0,-6 -1,-1 0,-7 -1,-1 0,-6 -1,-1 0,-6 -1,-1 0,-6 -1,-1 0,-6 -1,-1 0,-1 -1,0 0,5 1,1 0,6 1,1 0,6 1,1 0,6 1,1 0,5 1,1 0,6 1,1 0,9 1,1 0,5 1,1 0,5 1,1 0,5 1,1 0,5 1,1 0,5 1,1 0,5 1,1 0,8 1,1 0,9 -1,1 -3,0 -1,1 -1,0 -1,1 -1,0 0,1 -1,1 0,1 -1,1 0,1 -1,1 -1,0 -1,1 -5,0 -1,1 -4,0 -1,1 -3,0 -1,1 -4,0 -1,1 -4,0 -1,1 -4,0 -1,1 -5,0 -1,1 -4,0 -1,1 -4,0 -1,1 -5,0 -1,1 -4,0 -1,1 -5,0 -1,1 -5,0 -1,1 -6,0 -1,1 -5,0 -1,1 -6,0 -1,1 -6,0 -1,1 -3,0 0,2 2,0 1,-1 5,0 1,-1 5,0 1,1 0,2 -1,1 -3,0 0,6 1,1 16,0 1,-1 4,0 1,1 1,0 1,1 0,1 1,1 1,0 1,-1 6,0 1,-1 0,-3 -1,-1 0,-3 -1,-1 0,-2 -1,-1 -1,-1 -4,0 -1,1 -9,0 -1,-1 0,-2 1,-1 6,0 1,-1 4,0 1,-1 4,0 1,-1 4,0 1,-1 4,0 1,-1 4,0 1,-1 4,0 1,-1 4,0 1,-1 4,0 1,-1 4,0 1,-1 4,0 1,-1 4,0 1,-1 4,0 1,-1 4,0 1,-1 -6,1 -30,6 -5,1 -5,1 86,-4 0,3 -38,-9 1,0 0,-1 1,-1 0,-1 1,-1 2,0 1,-1 2,0 1,-1 3,0 1,-1 4,0 1,-1 4,0 1,-1 8,0 1,1 0,1 1,1 0,1 1,1 0,1 1,1 -1,-3 -1,-2 -1,-2 -32,9 38,9 -2,-9 0,2 1,1 0,2 1,0 -1,-3 -1,-2 2,9Z"/>
</svg>