<svg width="256" height="256" xmlns="http://www.w3.org/2000/svg"><script> 
var tempColor;
function hoverPath(evt){
obj = evt.target;
tempColor = obj.getAttribute("fill");
obj.setAttribute("fill","red");
//alert(tempColor);
//obj.setAttribute("stroke","red");}
function recoverPath(evt){
obj = evt.target;
obj.setAttribute("fill", tempColor);
//obj.setAttribute("stroke", tempColor);
}</script><path onmouseover="hoverPath(evt)" onmouseout="recoverPath(evt)" fill="rgb(249,200,111)" d="M  0,72l 0,5 3,0 1,1 0,2 1,-1 1,0 1,-1 2,0 0,-1 1,-1 10,0 1,1 0,1 1,-1 1,0 0,-1 1,-1 2,0 1,1 1,-1 3,0 1,-1 2,0 1,1 2,0 1,1 2,0 1,-1 1,0 1,-1 3,0 1,1 1,0 1,-1 1,0 0,-1 1,-1 3,0 1,-1 4,0 1,1 0,1 5,0 1,-1 2,0 1,-1 1,0 1,-1 1,-1 7,0 1,-1 2,0 1,1 0,2 1,-1 1,0 1,-1 2,0 0,-1 1,-1 10,0 1,1 0,1 1,-1 1,0 1,-1 2,0 1,-1 1,0 1,-1 4,0 1,1 0,1 1,1 0,-2 1,-1 2,0 1,1 0,1 1,-1 1,0 1,-1 2,0 0,-1 1,-1 7,0 1,1 0,-1 1,-1 10,0 1,1 2,0 1,-1 2,0 0,-1 1,-1 2,0 1,1 0,2 1,-1 1,0 0,-1 1,-1 2,0 1,1 0,1 2,0 1,-1 1,0 0,-1 1,-1 2,0 1,-1 2,0 1,1 0,2 1,-1 1,0 0,-1 1,-1 4,0 1,1 0,1 1,-1 1,0 0,-1 1,-1 4,0 1,1 0,1 1,-1 1,0 0,-1 1,-1 4,0 1,1 0,1 1,-1 1,0 0,-1 1,-1 2,0 1,1 0,1 2,0 1,-1 1,0 1,-1 3,0 1,1 1,0 1,-1 1,0 0,-1 1,-1 2,0 1,-1 7,0 1,-1 2,0 1,1 0,2 1,-1 1,0 0,-1 1,-1 4,0 1,1 0,1 1,-1 1,0 0,-1 1,-1 2,0 1,1 7,0 0,-1 1,-1 1,0 1,-1 4,0 0,-6 -2,0 -1,-1 -1,1 -2,0 -1,1 -2,0 -1,-1 -1,-1 -1,1 -1,1 -1,0 -1,1 -4,0 -1,-1 0,1 -1,1 -6,0 -1,-1 0,1 -1,1 -7,0 -1,1 -7,0 -1,1 -2,0 -1,-1 0,-2 -1,1 -1,0 0,1 -1,1 -4,0 -1,-1 -2,0 -1,1 -3,0 -1,-1 -1,0 -1,1 -1,0 0,1 -1,1 -5,0 -1,-1 0,-1 -1,1 -1,0 0,1 -1,1 -5,0 -1,-1 0,-1 -1,1 -1,0 -1,1 -2,0 0,1 -1,1 -2,0 -1,-1 0,-2 -1,1 -1,0 -1,1 -2,0 0,1 -1,1 -2,0 -1,-1 0,-2 -1,1 -1,0 -1,1 -2,0 0,1 -1,1 -7,0 -1,-1 -1,0 -1,-1 -2,0 0,2 -1,1 -3,0 -1,1 -6,0 -1,-1 -1,0 -1,-1 -1,1 -3,0 0,1 -1,1 -5,0 -1,-1 -1,-1 -1,1 -1,0 -1,1 0,1 -1,1 -6,0 -1,-1 -1,0 -1,-1 -2,0 -1,1 -1,0 0,1 -1,1 -3,0 -1,-1 0,-1 -2,0 -1,1 -2,0 -1,1 -2,0 0,1 -1,1 -7,0 -1,1 -5,0 -1,-1 0,-1 -2,0 -1,-1 1,2 0,1 -1,1 -7,0 -1,1 -6,0 -1,-1 -1,1 -1,1 -2,0 -1,-1 0,-2 -1,1 -3,0 0,1 -1,1 -5,0 -1,-1 0,-2 -1,-1 0,-6 -1,-1 0,2 1,6 0,1 -1,1 -1,0 -1,1 -1,1 -1,1 -9,0 -1,-1 0,-1 -1,1 -1,0 -1,1 -2,0 0,1 -1,1 -2,0 -1,-1 0,-1 -2,0 -1,1 -3,0 -1,-1Z"/>
<path onmouseover="hoverPath(evt)" onmouseout="recoverPath(evt)" fill="rgb(244,241,233)" d="M  0,82l 0,22 2,0 1,-1 5,0 1,-1 5,0 1,-1 4,0 1,-1 4,0 1,-1 2,0 1,-1 2,0 1,-1 3,0 1,-1 2,0 1,-1 3,0 1,-1 2,0 1,-1 3,0 1,-1 0,-3 1,-1 0,-2 1,-1 0,-1 1,-1 0,-1 1,-1 0,-1 1,-1 0,-1 1,-1 0,-1 1,-1 1,-1 1,-1 -2,0 -1,1 -3,0 0,1 -1,1 -1,0 -1,1 -3,0 -1,-1 -1,0 -1,1 -1,0 -1,1 -4,0 -1,-1 -2,0 -1,-1 -1,1 -3,0 -1,1 -2,0 -1,-1 0,1 -1,1 -1,0 -1,1 -2,0 -1,-1 0,-1 -8,0 0,1 -1,1 -2,0 -1,1 -1,0 -1,1 -2,0 -1,-1 0,-2 -2,0Z"/>
<path onmouseover="hoverPath(evt)" onmouseout="recoverPath(evt)" fill="rgb(240,239,229)" d="M  0,214l 0,7 3,0 1,-1 9,0 1,-1 2,0 0,-7 -1,-1 -2,0 -1,-1 -1,0 0,1 -1,1 -4,0 -1,1 -4,0 -1,1Z"/>
<path onmouseover="hoverPath(evt)" onmouseout="recoverPath(evt)" fill="rgb(241,241,230)" d="M  0,228l 0,10 1,0 1,-1 1,0 1,-1 4,0 1,-1 1,0 1,-1 1,-1 1,-1 1,0 1,-1 0,-5 1,-1 -10,0 -1,1 -5,0Z"/>
<path onmouseover="hoverPath(evt)" onmouseout="recoverPath(evt)" fill="rgb(242,241,231)" d="M  23,226l 0,3 -1,1 0,3 1,1 1,1 1,-1 3,0 1,-1 3,0 1,-1 15,0 1,-1 4,0 1,-1 26,0 1,-1 -1,-1 0,-2 -1,-1 0,-1 -1,-1 0,-2 -4,0 -1,-1 -23,0 -1,1 -9,0 -1,1 -8,0 -1,1 -5,0 -1,1 -1,0Z"/>
<path onmouseover="hoverPath(evt)" onmouseout="recoverPath(evt)" fill="rgb(175,200,236)" d="M  81,214l 0,0 -1,1 10,0 1,1 24,0 1,1 2,0 0,-2 1,-1 15,0 1,-1 19,0 1,-1 16,0 1,-1 6,0 1,-1 5,0 1,-1 4,0 1,-1 3,0 1,-1 6,0 1,-1 16,0 1,-1 15,0 1,-1 7,0 1,1 1,1 0,4 1,1 0,1 1,1 0,1 1,1 1,0 1,1 0,1 1,0 1,1 2,0 1,1 2,0 0,-22 -3,0 -1,1 0,2 -1,1 -2,0 -1,1 -11,0 -1,-1 -3,0 -1,1 -16,0 -1,1 -8,0 -1,1 -8,0 -1,1 -6,0 -1,1 -6,0 -1,1 -7,0 -1,1 -19,0 -1,1 -19,0 -1,1 -12,0 -1,1 -8,0 -1,1 -8,0 -1,1 -21,0 -1,1Z"/>
<path onmouseover="hoverPath(evt)" onmouseout="recoverPath(evt)" fill="rgb(242,241,230)" d="M  146,114l 0,17 1,1 0,12 1,1 0,1 20,0 1,-1 16,0 0,-24 -1,-1 0,-9 -1,0 -1,-1 -2,0 -1,1 -29,0 -1,1 -3,0Z"/>
<path onmouseover="hoverPath(evt)" onmouseout="recoverPath(evt)" fill="rgb(247,232,138)" d="M  242,53l -1,0 0,30 1,1 0,6 1,1 0,4 1,0 1,1 0,6 -1,1 0,6 1,1 0,8 1,1 0,3 1,1 0,4 1,1 0,3 1,1 0,1 1,1 0,2 1,1 0,1 1,1 0,2 1,1 0,2 1,1 0,2 1,0 0,-97 -3,0 -1,1 -1,0 0,1 -1,1Z"/>
<path onmouseover="hoverPath(evt)" onmouseout="recoverPath(evt)" fill="rgb(243,241,232)" d="M  0,1l 0,66 1,0 1,1 1,0 1,-1 4,0 1,1 1,-1 2,0 1,-1 1,0 1,-1 2,0 1,1 0,1 7,0 1,-1 0,0 1,-1 1,-1 1,0 0,-4 -1,-1 0,-10 1,-1 2,0 1,1 0,6 1,1 0,6 1,1 0,2 3,0 -1,-1 0,0 -1,-1 0,-63 -34,0 -1,1Z"/>
<path onmouseover="hoverPath(evt)" onmouseout="recoverPath(evt)" fill="rgb(171,197,237)" d="M  0,107l 0,3 10,0 1,-1 5,0 1,-1 4,0 1,-1 6,0 1,1 1,1 0,3 1,1 0,3 -1,1 0,3 -1,1 0,3 -1,1 0,4 -1,1 -1,0 0,2 -1,1 0,3 -1,1 0,2 -1,1 0,2 -1,1 0,4 -1,1 0,17 -1,1 0,17 -1,1 0,8 -1,1 0,4 5,0 1,-1 3,0 -4,-1 0,0 -1,-1 0,-4 1,-1 0,-5 1,-1 0,-1 -1,-1 0,-8 1,-1 0,-5 1,-1 0,-22 1,-1 0,-2 1,-1 0,-3 1,-1 0,-2 1,-1 0,-2 1,-1 0,-2 1,-1 0,-1 1,-1 0,-1 1,-1 0,-1 1,-1 0,-2 1,-1 0,-3 1,-1 0,-3 -1,-1 0,-4 1,-1 1,-1 1,0 1,-1 2,0 1,-1 5,0 1,-1 8,0 1,-1 10,0 1,-1 8,0 1,-1 8,0 1,-1 8,0 1,-1 14,0 0,-5 -13,0 -1,1 -7,0 -1,1 -7,0 -1,1 -7,0 -1,1 -12,0 -1,-1 -1,0 -1,-1 0,-4 1,-1 0,-4 1,-1 0,-1 2,-2 0,-1 1,-1 0,-1 1,-1 1,-1 -4,0 -1,1 0,0 -1,1 0,1 -1,1 0,1 -1,1 0,1 -1,1 0,1 -1,1 0,1 -1,1 0,2 -1,1 0,3 -1,1 -1,1 -3,0 -1,1 -2,0 -1,1 -3,0 -1,1 -2,0 -1,1 -3,0 -1,1 -2,0 -1,1 -2,0 -1,1 -4,0 -1,1 -4,0 -1,1 -5,0 -1,1 -5,0 -1,1 -2,0 -1,1Z"/>
<path onmouseover="hoverPath(evt)" onmouseout="recoverPath(evt)" fill="rgb(250,250,246)" d="M  1,223l -1,0 0,1 4,0 1,-1 14,0 1,-1 3,0 1,-1 5,0 1,-1 8,0 1,-1 9,0 1,-1 25,0 1,1 8,0 1,1 1,-1 12,0 1,1 27,0 1,1 1,0 1,1 0,1 1,1 0,1 1,1 0,2 1,1 0,2 -1,1 2,0 1,1 0,1 1,1 0,1 1,1 0,2 1,1 0,1 1,1 0,2 1,1 0,1 1,1 0,2 1,1 0,1 1,1 0,3 2,0 0,-1 -1,-1 0,-1 -1,-1 0,-5 1,-1 5,0 1,1 1,1 0,-2 1,-1 1,-1 -3,0 -1,-1 -1,-1 0,2 -1,1 -6,0 -1,-1 0,-2 -1,-1 0,-1 -1,-1 0,-1 -1,-1 0,-1 -1,-1 0,-4 1,-1 2,0 1,1 -3,-2 0,-4 -2,0 -1,-1 0,-2 1,-1 5,0 1,1 0,2 66,0 1,1 8,0 1,1 6,0 1,1 7,0 1,1 6,0 1,1 5,0 1,1 0,4 1,-1 0,-1 1,-1 0,-2 -2,0 -1,6 0,2 -1,1 0,1 2,-4 -3,-7 0,-2 1,-1 10,0 1,1 3,0 0,-1 -3,0 -1,-1 -6,0 -1,-1 -7,0 -1,-1 -7,0 -1,-1 -7,0 -1,-1 -7,0 -1,-1 -7,0 -1,-1 -25,0 -1,1 -26,0 -1,1 -36,0 -1,-1 -24,0 -1,-1 -41,0 -1,1 -8,0 -1,1 -9,0 -1,1 -8,0 -1,1 -4,0 -1,1 -9,0 -1,1Z"/>
<path onmouseover="hoverPath(evt)" onmouseout="recoverPath(evt)" fill="rgb(171,198,237)" d="M  0,241l 0,1 3,0 1,-1 2,0 1,-1 2,0 1,-1 3,0 1,-1 2,0 1,1 1,0 1,1 0,1 1,1 1,1 0,1 1,1 1,1 0,1 1,1 1,1 1,1 0,1 1,1 1,1 0,2 5,0 0,-1 -1,-1 0,0 -1,-1 -1,-1 0,-1 -1,-1 -1,-1 -1,-1 -1,-1 0,-1 -1,-1 0,-4 1,-1 1,0 1,-1 3,0 1,-1 17,0 1,-1 6,0 1,-1 29,0 0,-1 1,-1 0,-6 -1,-1 0,0 -1,-1 0,-1 -1,-1 0,-1 -1,0 -1,-1 -2,0 0,1 1,1 0,1 1,1 0,2 1,1 0,2 -1,1 -1,1 -26,0 -1,1 -4,0 -1,1 -15,0 -1,1 -3,0 -1,1 -3,0 -1,1 -2,0 -1,-1 -1,-1 -1,-1 0,-5 1,-1 0,-4 -1,1 -2,0 0,1 -1,1 0,5 -1,1 -1,1 -1,0 -1,1 -1,1 -1,1 -1,0 -1,1 -4,0 -1,1 -1,0 -1,1 -1,0 -1,1Z"/>
<path onmouseover="hoverPath(evt)" onmouseout="recoverPath(evt)" fill="rgb(244,243,235)" d="M  0,135l 0,62 6,0 1,-1 9,0 0,-4 1,-1 0,-8 1,-1 0,-17 1,-1 0,-17 1,-1 0,-4 1,-1 0,-2 1,-1 0,-2 1,-1 0,-3 1,-1 0,-2 1,-1 1,0 0,-4 1,-1 0,-3 1,-1 0,-3 1,-1 0,-1 -1,-1 0,-3 -1,-1 -4,0 -1,1 -4,0 -1,1 -5,0 -1,1 -11,0Z"/>
<path onmouseover="hoverPath(evt)" onmouseout="recoverPath(evt)" fill="rgb(181,142,236)" d="M  0,201l 0,10 4,0 1,-1 4,0 0,-1 1,-1 3,0 1,1 2,0 1,1 1,1 0,8 1,-1 3,0 0,-1 1,-1 0,-2 -1,-1 0,-3 1,-1 1,-1 0,-1 1,-1 3,0 1,1 2,0 1,-1 1,0 1,-1 4,0 1,1 3,0 1,-1 1,0 1,-1 4,0 1,1 9,0 1,-1 10,0 1,-1 10,0 1,-1 2,0 1,1 1,-1 6,0 1,-1 2,0 1,1 1,-1 5,0 1,-1 3,0 1,1 0,-1 1,-1 2,0 1,1 4,0 1,-1 5,0 1,1 1,-1 10,0 1,-1 4,0 1,1 1,0 1,-1 3,0 1,-1 4,0 1,1 13,0 1,-1 6,0 1,1 5,0 1,-1 5,0 1,-1 9,0 1,1 49,0 1,-1 7,0 1,-1 4,0 0,-9 -3,0 -1,-1 -10,0 -1,1 -7,0 -1,-1 -36,0 -1,1 -18,0 -1,-1 -11,0 -1,1 -4,0 -1,1 -3,0 -1,-1 -7,0 -1,1 -5,0 -1,-1 -2,0 -1,1 -1,1 -3,0 -1,-1 -4,0 -1,1 -5,0 -1,-1 -1,1 -10,0 -1,1 -4,0 -1,1 -1,0 -1,1 -4,0 -1,-1 -3,0 -1,1 -1,0 -1,1 -4,0 -1,-1 -9,0 -1,1 -10,0 -1,1 -10,0 -1,1 -2,0 -1,-1 -1,1 -6,0 -1,1 -2,0 -1,-1 -1,1 -1,0 0,1 -1,1 -4,0 -1,-1 -4,0 0,1 -1,1 -3,0 -1,1 -7,0 -1,-1 -8,0 -1,1 -7,0Z"/>
<path onmouseover="hoverPath(evt)" onmouseout="recoverPath(evt)" fill="rgb(244,243,237)" d="M  1,244l -1,0 0,11 26,0 0,-1 -1,-1 0,0 -1,-1 0,-1 -1,-1 -1,-1 -1,-1 0,-1 -1,-1 -1,-1 0,-1 -1,-1 -1,-1 0,-1 -1,0 -1,-1 -1,1 -3,0 -1,1 -2,0 -1,1 -2,0 -1,1Z"/>
<path onmouseover="hoverPath(evt)" onmouseout="recoverPath(evt)" fill="rgb(243,242,234)" d="M  24,211l 0,1 1,1 0,4 -1,1 3,0 1,-1 9,0 1,-1 8,0 1,-1 30,0 0,-1 1,-1 1,0 1,-1 1,-1 21,0 1,-1 8,0 1,-1 8,0 1,-1 12,0 1,-1 19,0 1,-1 19,0 1,-1 7,0 1,-1 6,0 1,-1 6,0 1,-1 8,0 1,-1 8,0 1,-1 16,0 1,-1 5,0 1,1 9,0 1,-1 2,0 0,-1 -5,0 -1,1 -6,0 -213,12 200,-12 -32,0 -1,-1 -7,0 -1,1 -5,0 -1,1 -7,0 -1,-1 -4,0 -1,1 -15,0 -1,-1 -2,0 -1,1 -3,0 -1,1 -3,0 -1,-1 -2,0 -1,1 -10,0 -1,1 -2,0 -1,-1 -3,0 -1,1 -6,0 -1,-1 0,1 -1,1 -2,0 -1,-1 -1,0 -1,1 -5,0 -1,1 -2,0 -1,-1 -1,1 -6,0 -1,1 -2,0 -1,-1 -1,1 -10,0 -1,1 -10,0 -1,1 -11,0 -1,-1 -2,0 -1,1 -1,0 -1,1 -5,0 -1,-1 -2,0 -1,1 -1,0 -1,1 -4,0 -1,-1 -1,0 0,1 -1,1 199,-11 -200,12Z"/>
<path onmouseover="hoverPath(evt)" onmouseout="recoverPath(evt)" fill="rgb(244,243,235)" d="M  28,241l -1,0 0,2 1,1 0,1 3,3 1,1 0,1 1,1 1,1 1,1 0,2 104,0 0,-2 -1,-1 0,-1 -1,-1 0,-2 -1,-1 0,-1 -1,-1 0,-2 -1,-1 0,-1 -1,-1 0,-2 -1,-1 0,-1 -1,-1 0,-1 -2,0 -1,-1 0,-2 1,-1 -1,-1 0,-2 -1,-1 0,-1 -1,-1 0,-1 -1,0 -1,-1 -27,0 -1,-1 -10,0 0,1 1,1 0,1 1,1 1,1 0,8 -1,1 0,1 -1,1 -29,0 -1,1 -6,0 -1,1 -17,0 -1,1 -3,0 -1,1Z"/>
<path onmouseover="hoverPath(evt)" onmouseout="recoverPath(evt)" fill="rgb(253,253,253)" d="M  34,153l -1,0 0,1 12,0 1,-1 31,0 1,-1 27,0 1,-1 6,0 1,1 1,1 0,1 1,1 0,18 1,0 0,-21 1,-1 9,0 1,-1 19,0 1,-1 25,0 1,-1 14,0 1,-1 1,-1 0,-5 -1,-1 0,-21 -1,-1 0,-8 1,-1 1,-1 0,-1 -13,0 -1,1 -33,0 -1,1 -26,0 -1,-1 -1,-1 0,-10 1,-1 0,-1 -1,-1 0,-14 -1,-1 0,-10 -1,-1 0,-1 -2,0 0,1 1,0 1,1 0,14 1,1 0,6 -1,1 0,5 1,1 0,11 -1,1 -1,0 -1,1 -16,0 -1,1 -16,0 -1,1 -10,0 -1,1 -14,0 -1,1 -5,0 0,1 6,0 1,-1 13,0 1,1 0,1 1,1 0,14 1,1 0,17 -1,1 0,1 -1,1 -23,0 -1,1 -7,0 34,-3 0,-20 -1,-1 0,-14 1,-1 1,-1 7,0 1,-1 17,0 1,-1 16,0 1,1 0,6 1,1 0,19 1,1 0,10 -1,1 -10,0 -1,1 -27,0 -1,1 -3,0 -1,-1 -1,0 -1,-1 -34,3 81,-6 0,-9 -1,-1 0,-25 1,-1 2,0 1,-1 23,0 1,1 0,1 1,1 0,22 1,1 0,11 -1,1 -2,0 -1,1 -14,0 -1,1 -8,0 -1,-1 0,-1 -1,-1 -81,6 111,-8 0,-12 -1,-1 0,-21 1,-1 3,0 1,-1 29,0 1,-1 4,0 1,1 1,0 1,1 0,9 1,1 0,26 -1,1 -16,0 -1,1 -22,0 -1,-1 0,-1 -1,-1 -111,8 156,-45 10,0 1,-1 -8,0 -3,1 -156,45Z"/>
<path onmouseover="hoverPath(evt)" onmouseout="recoverPath(evt)" fill="rgb(254,254,254)" d="M  38,1l 0,-1 -1,0 0,62 1,1Z"/>
<path onmouseover="hoverPath(evt)" onmouseout="recoverPath(evt)" fill="rgb(243,242,234)" d="M  37,107l 0,2 1,1 0,5 -1,1 0,3 -1,1 0,2 -1,1 0,1 -1,1 0,1 -1,1 0,1 -1,1 0,2 -1,1 0,2 -1,1 0,2 -1,1 0,3 -1,1 0,2 -1,1 0,22 -1,1 0,5 -1,1 0,6 1,1 0,3 -1,1 0,5 -1,1 0,2 1,1 9,0 1,1 2,0 0,-1 1,-1 1,0 1,-1 2,0 1,1 1,-1 6,0 1,-1 2,0 1,1 1,-1 10,0 1,-1 10,0 1,-1 11,0 1,1 2,0 1,-1 1,0 1,-1 5,0 1,1 2,0 1,-1 1,0 1,-1 4,0 1,-1 10,0 1,-1 2,0 1,1 3,0 1,-1 6,0 1,1 1,0 1,-1 1,-1 4,0 1,1 3,0 1,-1 9,0 1,1 1,0 1,-1 4,0 1,-1 13,0 1,1 16,0 1,-1 38,0 1,1 5,0 1,-1 12,0 1,1 2,0 0,-35 -2,0 -1,-1 0,-2 -1,-1 0,-2 -1,-1 0,-2 -1,-1 0,-1 -1,-1 0,-2 -1,-1 0,-1 -1,-1 0,-3 -1,-1 0,-4 -1,-1 0,-3 -1,-1 0,-8 -1,-1 0,-7 -36,0 -1,1 -25,0 -1,-1 -22,0 -1,-1 -2,0 -1,-1 -6,0 -1,-1 -9,0 -1,-1 -9,0 -1,-1 -11,0 0,8 1,1 24,0 1,-1 33,0 1,-1 15,0 1,1 1,-1 11,0 1,1 0,2 -1,1 -1,0 -1,1 -11,0 -1,1 0,6 1,1 0,21 1,1 0,7 -1,1 -1,1 -1,1 -14,0 -1,1 -25,0 -1,1 -19,0 -1,1 -9,0 0,21 -1,1 -3,0 -1,-1 0,-18 -1,-1 0,-1 -1,-1 -4,0 -1,1 -27,0 -1,1 -31,0 -1,1 -14,0 -1,-1 0,-3 1,-1 8,0 1,-1 23,0 0,-1 1,-1 0,-15 -1,-1 0,-14 -1,-1 0,-1 -11,0 -1,1 -8,0 -1,-1 0,-3 1,-1 5,0 1,-1 14,0 1,-1 10,0 1,-1 16,0 1,-1 16,0 1,-1 1,0 0,-9 -14,0 -1,1 -8,0 -1,1 -8,0 -1,1 -8,0 -1,1 -10,0 -1,1 -8,0 -1,1 -5,0 -1,1 -2,0 -1,1 -1,0 -1,1Z"/>
<path onmouseover="hoverPath(evt)" onmouseout="recoverPath(evt)" fill="rgb(243,241,232)" d="M  42,0l -2,0 0,63 1,0 1,-1 2,0 1,1 0,2 1,-1 0,0 1,-1 2,0 1,1 4,0 1,-1 7,0 -1,-1 0,-2 1,-1 0,-4 1,-1 0,-7 1,-1 0,-2 1,-1 0,-2 1,-1 0,-2 1,-1 0,-2 1,-1 0,-8 -1,-1 0,-8 1,-1 0,-3 1,-1 0,-1 1,-1 0,-7 -1,-1 0,-2Z"/>
<path onmouseover="hoverPath(evt)" onmouseout="recoverPath(evt)" fill="rgb(243,241,232)" d="M  66,75l -1,0 0,1 -1,1 -1,1 0,1 -1,1 0,1 -2,2 0,1 -1,1 0,4 -1,1 0,2 1,0 1,1 10,0 1,-1 7,0 1,-1 7,0 1,-1 7,0 1,-1 15,0 0,-4 -1,-1 0,-14 -1,0 -1,-1 0,-1 -1,1 -2,0 -1,1 -1,0 -1,1 -2,0 -1,-1 0,-1 -8,0 0,1 -1,1 -2,0 -1,1 -1,0 -1,1 -2,0 -1,-1 0,-2 -1,1 -7,0 -1,1 -1,1 -1,0 -1,1 -2,0 -1,1Z"/>
<path onmouseover="hoverPath(evt)" onmouseout="recoverPath(evt)" fill="rgb(242,241,231)" d="M  69,117l 0,11 1,1 0,20 1,0 1,1 1,0 1,-1 27,0 1,-1 10,0 0,-8 -1,-1 0,-19 -1,-1 0,-6 -14,0 -1,1 -17,0 -1,1 -7,0 -1,1Z"/>
<path onmouseover="hoverPath(evt)" onmouseout="recoverPath(evt)" fill="rgb(171,198,238)" d="M  71,1l 0,0 1,1 0,9 -1,1 0,1 -1,1 0,3 -1,1 0,6 1,1 0,10 -1,1 0,2 -1,1 0,2 -1,1 0,2 -1,1 0,2 -1,1 0,7 -1,1 0,3 1,1 1,0 1,-1 0,-11 1,-1 0,-3 1,-1 1,-1 1,-1 1,-1 0,-1 1,-1 0,-1 1,-1 0,-8 -1,-1 0,-8 1,-1 0,-2 1,-1 0,-1 1,-1 0,-1 1,-1 0,-1 1,-1 0,-2 1,-1 0,-6 -7,0 -1,1Z"/>
<path onmouseover="hoverPath(evt)" onmouseout="recoverPath(evt)" fill="rgb(244,242,235)" d="M  81,1l 0,6 -1,1 0,2 -1,1 0,1 -1,1 0,1 -1,1 0,1 -1,1 0,2 -1,1 0,6 1,1 0,10 -1,1 0,1 -1,1 0,1 -1,1 -1,1 -1,1 -1,1 0,3 -1,1 0,11 -1,1 0,1 3,0 1,-1 7,0 0,-1 1,-1 2,0 1,-1 2,0 1,-1 4,0 1,1 0,1 1,0 0,-1 1,-1 1,0 1,-1 4,0 1,1 1,0 1,1 4,0 0,-1 1,-1 1,-1 1,0 1,-1 2,0 1,1 1,1 3,0 0,-1 1,-1 3,0 1,-1 2,0 1,1 1,0 1,1 4,0 1,-1 3,0 0,-2 1,-1 4,0 1,1 1,0 1,1 5,0 0,-1 1,-1 2,0 1,-1 1,0 1,-1 2,0 1,1 0,2 1,-2 2,0 1,-1 1,0 1,-1 2,0 1,1 3,0 1,-1 1,0 1,-1 2,0 1,1 0,1 3,0 0,-1 1,-1 1,0 1,-1 2,0 1,1 0,1 3,0 0,-1 1,-1 1,0 1,-1 3,0 1,1 1,0 1,-1 4,0 1,1 2,0 0,-1 1,-1 1,0 1,-1 2,0 1,1 0,2 1,-1 7,0 1,-1 7,0 0,-1 1,-1 2,0 1,1 4,0 0,-1 1,-1 2,0 1,1 2,0 0,-1 -1,-1 0,-3 -1,-1 0,-6 -1,-1 0,-5 -1,-1 0,-5 -1,-1 0,-5 -1,-1 0,-5 -1,-1 0,-5 -150,0 -1,1 85,49 0,0 -85,-49Z"/>
<path onmouseover="hoverPath(evt)" onmouseout="recoverPath(evt)" fill="rgb(244,242,235)" d="M  117,69l 0,0 -1,-1 0,7 -1,1 -1,0 0,2 1,1 0,11 7,0 1,1 8,0 1,1 9,0 1,1 6,0 1,1 4,0 1,1 3,0 1,1 43,0 1,-1 39,0 0,-3 -1,-1 0,-6 -1,-1 0,-32 -1,2 -1,0 -1,1 -2,0 -1,-1 0,-1 -2,0 0,1 -1,1 -1,0 -1,1 -2,0 -1,-1 0,-2 -1,1 -7,0 -1,1 -2,0 0,1 -1,1 -1,0 -1,1 -3,0 -1,-1 -1,0 -1,1 -1,0 -1,1 -4,0 -1,-1 0,0 -1,1 -1,0 -1,1 -2,0 -1,-1 0,-1 -2,0 0,1 -1,1 -1,0 -1,1 -2,0 -1,-1 0,-1 -2,0 0,1 -1,1 -1,0 -1,1 -2,0 -1,-1 0,-1 -2,0 0,1 -1,1 -1,0 -1,1 -2,0 -1,-1 0,-2 -1,1 -2,0 0,1 -1,1 -1,0 -1,1 -4,0 -1,-1 0,-1 -1,2 -1,0 -1,1 -2,0 -1,-1 -3,0 -1,1 -1,0 -1,1 -2,0 -1,-1 0,-1 -8,0 0,1 -1,1 -2,0 -1,-1 -5,0 0,1 -1,1 -2,0 -1,1 -1,0 -1,1 -2,0 34,-6 0,0 -34,6Z"/>
<path onmouseover="hoverPath(evt)" onmouseout="recoverPath(evt)" fill="rgb(171,198,236)" d="M  116,92l -1,0 0,1 1,1 0,2 11,0 1,1 9,0 1,1 9,0 1,1 6,0 1,1 2,0 1,1 22,0 1,1 23,0 1,-1 38,0 0,-4 -40,0 -1,1 -45,0 -1,-1 -3,0 -1,-1 -4,0 -1,-1 -6,0 -1,-1 -9,0 -1,-1 -8,0 -1,-1Z"/>
<path onmouseover="hoverPath(evt)" onmouseout="recoverPath(evt)" fill="rgb(241,240,229)" d="M  116,115l 0,21 1,1 0,9 1,1 0,1 6,0 1,-1 14,0 1,-1 2,0 0,-9 -1,-1 0,-22 -1,-1 0,-1 -21,0 -1,1 -2,0Z"/>
<path onmouseover="hoverPath(evt)" onmouseout="recoverPath(evt)" fill="rgb(242,240,230)" d="M  140,225l -2,0 -1,-1 0,3 1,0 1,1 1,1 0,2 -1,1 -2,0 -1,-1 0,2 1,1 0,1 1,1 0,1 1,1 0,1 1,1 0,2 4,0 0,-4 1,-1 2,0 1,1 0,2 1,1 9,0 1,1 39,0 1,1 12,0 1,1 7,0 1,-1 8,0 1,1 0,2 4,0 1,-1 1,0 1,-1 1,0 0,-2 1,-1 2,0 0,-1 -1,-1 0,-3 1,-1 0,-2 1,-1 0,-2 -5,0 -1,-1 -6,0 -1,-1 -7,0 -1,-1 -6,0 -1,-1 -8,0 -1,-1 -64,0 -3,-2 0,-1 -3,0 3,1 3,2Z"/>
<path onmouseover="hoverPath(evt)" onmouseout="recoverPath(evt)" fill="rgb(242,240,231)" d="M  152,245l 0,0 -1,1 0,3 -1,1 -2,0 -1,-1 0,-1 -1,-1 -3,0 0,3 1,1 0,1 1,1 0,2 94,0 0,-2 1,-1 0,-2 1,-1 0,-2 1,-1 0,-1 -1,-1 0,0 -1,-1 -1,0 0,2 -1,1 -1,0 -1,1 -1,0 -1,1 -6,0 -1,-1 0,-2 -6,0 -1,1 -9,0 -1,-1 -12,0 -1,-1 -38,0 -1,1Z"/>
<path onmouseover="hoverPath(evt)" onmouseout="recoverPath(evt)" fill="rgb(239,238,225)" d="M  179,213l -6,0 -1,1 -16,0 -1,1 -19,0 -1,1 -15,0 0,1 30,0 1,-1 26,0 1,-1 27,0 1,1 7,0 1,1 7,0 1,1 7,0 1,1 7,0 1,1 7,0 1,1 6,0 1,1 2,0 0,-1 -2,0 -2,-1 -2,0 -1,-1 -1,0 -1,-1 0,-1 -1,0 -1,-1 -1,-1 0,-1 -1,-1 0,-1 -1,-1 0,-4 -1,-1 -5,0 -1,1 -15,0 -1,1 -16,0 -1,1 -6,0 -1,1 -3,0 -1,1 -4,0 -1,1 -5,0 -1,1Z"/>
<path onmouseover="hoverPath(evt)" onmouseout="recoverPath(evt)" fill="rgb(247,231,125)" d="M  235,0l -1,0 0,4 1,1 0,5 1,1 0,5 1,1 0,5 1,1 0,5 1,1 0,6 1,1 0,3 1,1 0,1 1,-1 1,-1 2,0 1,1 1,1 1,-1 2,0 0,-4 -1,-1 0,-6 -1,-1 0,-3 -1,-1 -1,-1 0,-2 1,-1 0,-3 -1,-1 0,-5 -1,-1 0,-5 -1,-1 0,-4Z"/>
<path onmouseover="hoverPath(evt)" onmouseout="recoverPath(evt)" fill="rgb(242,239,229)" d="M  255,30l 0,-30 -9,0 0,3 1,1 0,5 1,1 0,5 1,1 0,5 -1,1 1,1 1,1 0,3 1,1 0,6 1,1 0,4 1,0 1,1 1,0Z"/>
<path onmouseover="hoverPath(evt)" onmouseout="recoverPath(evt)" fill="rgb(206,218,232)" d="M  255,232l 0,-5 -4,0 -1,-1 -8,0 5,1 0,4 -1,1 0,1 -1,1 0,1 -1,1 0,1 -1,1 0,1 -1,1 0,2 1,1 1,1 0,3 -1,1 0,2 -1,1 0,2 -1,1 0,1 14,0Z"/>
</svg>