<svg width="256" height="256" xmlns="http://www.w3.org/2000/svg"><script> 
var tempColor;
function hoverPath(evt){
obj = evt.target;
tempColor = obj.getAttribute("fill");
obj.setAttribute("fill","red");
//alert(tempColor);
//obj.setAttribute("stroke","red");}
function recoverPath(evt){
obj = evt.target;
obj.setAttribute("fill", tempColor);
//obj.setAttribute("stroke", tempColor);
}</script><path onmouseover="hoverPath(evt)" onmouseout="recoverPath(evt)" fill="rgb(245,244,237)" d="M  0,1l 0,27 1,0 0,-2 1,-1 0,-1 1,-1 0,-2 1,-1 0,-1 1,-1 0,-2 1,-1 0,-1 1,-1 0,-2 1,-1 0,-1 1,-1 0,-2 1,-1 0,-1 1,-1 0,-3 -10,0 -1,1Z"/>
<path onmouseover="hoverPath(evt)" onmouseout="recoverPath(evt)" fill="rgb(243,242,234)" d="M  0,143l 0,82 2,0 1,-1 5,0 1,-1 6,0 1,-1 6,0 1,-1 6,0 1,-1 6,0 1,-1 6,0 1,-1 5,0 1,-1 1,0 0,-3 -2,0 -1,-1 0,-3 1,-1 0,-3 -1,-1 0,-6 -1,-1 0,-7 -1,-1 0,-9 -1,-1 0,-19 1,-1 0,-9 1,-1 0,-10 1,-1 -1,-1 -3,0 -1,1 -22,0 -1,1 -14,0 -1,1 -5,0Z"/>
<path onmouseover="hoverPath(evt)" onmouseout="recoverPath(evt)" fill="rgb(253,253,253)" d="M  1,227l -1,0 0,3 6,0 1,-1 5,0 1,-1 6,0 1,-1 6,0 1,-1 6,0 1,-1 6,0 1,-1 6,0 1,-1 7,0 1,1 0,1 1,0 1,1 0,1 1,0 0,-9 -1,-1 0,-4 -1,-1 0,-3 -1,-1 0,-4 -1,-1 0,-4 -1,-1 0,-7 -1,-1 0,-8 -1,-1 0,-21 1,-1 0,-9 1,-1 0,-11 2,-2 18,0 1,1 17,0 1,1 13,0 1,1 8,0 1,1 8,0 1,1 5,0 1,1 2,0 1,1 7,0 1,1 7,0 1,1 4,0 1,1 3,0 1,1 4,0 1,1 4,0 1,1 4,0 1,1 4,0 1,1 3,0 1,1 3,0 1,1 3,0 1,1 1,-1 -1,-1 -3,0 -1,-1 -4,0 -1,-1 -2,0 -1,-1 -5,0 -1,-1 -4,0 -1,-1 -4,0 -1,-1 -3,0 -1,-1 -4,0 -1,-1 -4,0 -1,-1 -4,0 -1,-1 -3,0 -1,-1 -4,0 -1,-1 -10,0 -1,-1 -7,0 -1,-1 -8,0 -1,-1 -9,0 -1,-1 -19,0 -1,-1 -22,0 -1,-1 0,-8 1,-1 0,-6 1,-1 0,-6 1,-1 0,-6 1,-1 0,-7 1,-1 0,-6 -1,0 0,6 -1,1 0,7 -1,1 0,6 -1,1 0,5 -1,1 0,6 -1,1 0,7 -1,1 0,1 -1,1 -11,0 -1,1 -20,0 -1,1 -13,0 -1,1 -4,0 0,1 4,0 1,-1 14,0 1,-1 22,0 1,-1 5,0 1,1 1,1 0,2 -1,1 0,10 -1,1 0,9 -1,1 0,17 1,1 0,9 1,1 0,7 1,1 0,6 1,1 0,5 -1,1 0,1 2,0 1,1 0,5 -1,1 -1,0 -1,1 -5,0 -1,1 -6,0 -1,1 -6,0 -1,1 -6,0 -1,1 -6,0 -1,1 -6,0 -1,1 -5,0 -1,1Z"/>
<path onmouseover="hoverPath(evt)" onmouseout="recoverPath(evt)" fill="rgb(244,243,235)" d="M  0,235l 0,20 144,0 0,-9 -1,-1 0,-7 -1,-1 0,-7 -1,-1 0,-7 -1,-1 0,-7 -1,-1 0,-8 -1,-1 0,-8 -1,-1 0,-8 -1,-1 0,-9 -1,-1 0,-8 -1,-1 0,-8 -1,-1 0,-8 -1,-1 0,-5 -2,0 -1,-1 -5,0 -1,-1 -8,0 -1,-1 -8,0 -1,-1 -13,0 -1,-1 -17,0 -1,-1 -16,0 -1,1 0,11 -1,1 0,9 -1,1 0,19 1,1 0,8 1,1 0,7 1,1 0,4 1,1 0,4 1,1 0,3 1,1 0,4 1,1 0,11 -1,1 -3,0 -1,-1 0,-1 -1,0 -1,-1 0,-1 -5,0 -1,1 -6,0 -1,1 -6,0 -1,1 -6,0 -1,1 -6,0 -1,1 -6,0 -1,1 -5,0 -1,1 -7,0Z"/>
<path onmouseover="hoverPath(evt)" onmouseout="recoverPath(evt)" fill="rgb(249,233,126)" d="M  15,0l -2,0 0,4 -1,1 0,1 -1,1 0,2 -1,1 0,1 -1,1 0,2 -1,1 0,1 -1,1 0,2 -1,1 0,1 -1,1 0,2 -1,1 0,1 -1,1 0,2 -1,1 -2,0 0,31 1,0 0,-1 1,-1 0,-2 1,-1 0,-1 1,-1 0,-2 1,-1 0,-1 1,-1 0,-2 1,-1 0,-1 1,-1 0,-2 1,-1 0,-1 1,-1 0,-2 1,-1 0,-2 1,-1 0,-1 1,-1 0,-2 1,-1 0,-1 1,-1 0,-2 1,-1 0,-1 1,-1 0,-2 1,-1 0,-1 1,-1 0,-2 1,-1 0,-1 1,-1 0,-2 1,-1 0,-1 1,-1 0,-2 1,-1 -1,-1 0,-2Z"/>
<path onmouseover="hoverPath(evt)" onmouseout="recoverPath(evt)" fill="rgb(242,241,233)" d="M  0,117l 0,19 3,0 1,-1 13,0 1,-1 20,0 1,-1 11,0 0,-1 1,-1 0,-7 1,-1 0,-6 1,-1 0,-5 1,-1 0,-6 1,-1 0,-7 1,-1 0,-9 1,-1 1,-1 2,0 0,-5 1,-1 0,-7 1,-1 2,0 0,-4 1,-1 1,0 0,-7 -1,0 -1,-1 0,-2 -1,0 -1,-1 0,-4 1,-1 0,-5 1,-1 0,-6 1,-1 0,-9 1,-1 0,-5 1,-1 0,-7 1,-1 0,-8 1,-1 0,-3 -44,0 0,1 1,1 0,2 -1,1 0,2 -1,1 0,1 -1,1 0,2 -1,1 0,1 -1,1 0,2 -1,1 0,1 -1,1 0,2 -1,1 0,1 -1,1 0,2 -1,1 0,1 -1,1 0,2 -1,1 0,1 -1,1 0,2 -1,1 0,2 -1,1 0,1 -1,1 0,2 -1,1 0,1 -1,1 0,2 -1,1 0,1 -1,1 0,2 -1,1 0,1 -1,1 0,2 -1,1 0,1 -1,1 -2,0Z"/>
<path onmouseover="hoverPath(evt)" onmouseout="recoverPath(evt)" fill="rgb(242,241,233)" d="M  66,70l 0,1 -1,1 -2,0 0,7 -1,1 0,5 -1,1 -2,0 -1,1 0,1 2,0 1,1 0,8 -1,1 0,7 -1,1 0,6 -1,1 0,6 -1,1 0,6 -1,1 0,6 22,0 1,1 19,0 1,1 9,0 1,1 8,0 1,1 7,0 1,1 5,0 0,-4 -1,-1 0,-8 -1,-1 0,-7 -1,-1 0,-7 -1,-1 0,-7 -1,-1 0,-8 -1,-1 0,-7 -1,-1 0,-7 -1,-1 0,-7 -1,-1 0,-8 -1,-1 0,-7 -1,-1 0,-7 -1,-1 0,-8 -1,-1 0,-7 -1,-1 0,-6 -1,-1 0,-7 -1,-1 0,-1 -2,0 -1,1 0,0 -1,1 0,1 -1,1 -1,1 -1,0 -1,1 -1,1 -1,1 -1,1 -1,1 0,5 -1,1 -6,0 0,1 -1,1 -1,1 0,4 -1,1 0,3 1,1 0,0 1,1 0,9 -1,1 0,1 -1,1 -2,2 -1,1 0,1 -1,1 -1,1 -1,1 -1,1 -1,1 -4,0 -1,-1 0,-9 1,-1 0,-1 -1,-1 0,-1 -3,0 -1,1 0,5 -1,1 -1,0 -1,1 -3,0 -1,-1 0,-1 -1,-1 0,1 -1,1 0,1 -1,1 0,2 1,0 1,1 0,9 -1,1 -1,0Z"/>
<path onmouseover="hoverPath(evt)" onmouseout="recoverPath(evt)" fill="rgb(254,254,254)" d="M  72,1l 0,-1 -1,0 0,4 -1,1 0,8 -1,1 0,7 -1,1 0,5 -1,1 0,9 -1,1 0,6 -1,1 0,5 -1,1 0,2 1,-1 0,-1 1,-1 0,-5 1,-1 0,-6 1,-1 0,-8 1,-1 0,-5 1,-1 0,-8 1,-1 0,-8 1,-1Z"/>
<path onmouseover="hoverPath(evt)" onmouseout="recoverPath(evt)" fill="rgb(241,240,232)" d="M  76,0l -2,0 0,5 -1,1 0,8 -1,1 0,8 -1,1 0,5 -1,1 0,8 -1,1 0,5 1,1 0,4 1,1 0,1 1,0 1,-1 1,0 0,-5 1,-1 1,-1 5,0 1,1 0,1 1,1 0,3 -1,1 0,7 2,0 3,-3 1,-1 0,-1 1,-1 1,-1 1,-1 1,-1 0,-1 1,-1 0,-7 -1,-1 0,0 -1,-1 0,-5 1,-1 0,-4 2,-2 0,-1 1,-1 6,0 0,-5 1,-1 1,-1 1,-1 1,-1 1,-1 1,-1 1,0 1,-1 0,-1 1,-1 1,-1 1,-1 3,0 0,-7Z"/>
<path onmouseover="hoverPath(evt)" onmouseout="recoverPath(evt)" fill="rgb(170,197,235)" d="M  117,4l 0,5 1,1 0,7 1,1 0,6 1,1 0,7 1,1 0,8 1,1 0,7 1,1 0,7 1,1 0,8 1,1 0,7 1,1 0,7 1,1 0,7 1,1 0,8 1,1 0,7 1,1 0,7 1,1 0,7 1,1 0,8 1,1 0,5 3,0 1,1 3,0 0,-2 -1,-1 0,-7 -1,-1 0,-7 -1,-1 0,-7 -1,-1 0,-7 -1,-1 0,-9 -1,-1 0,-7 -1,-1 0,-7 -1,-1 0,-6 -1,-1 0,-7 -1,-1 0,-6 -1,-1 0,-8 -1,-1 0,-8 -1,-1 0,-8 -1,-1 0,-9 -1,-1 0,-6 -1,-1 0,-9 -1,-1 0,-2 -6,0Z"/>
<path onmouseover="hoverPath(evt)" onmouseout="recoverPath(evt)" fill="rgb(170,198,237)" d="M  134,146l 0,2 1,1 0,8 1,1 0,8 1,1 0,8 1,1 0,9 1,1 0,8 1,1 0,8 1,1 0,8 1,1 0,7 1,1 0,7 1,1 0,7 1,1 0,7 1,1 0,10 7,0 0,-2 -1,-1 0,-9 -1,-1 0,-10 -1,-1 0,-6 -1,-1 0,-6 -1,-1 0,-7 -1,-1 0,-9 -1,-1 0,-8 -1,-1 0,-8 -1,-1 0,-8 -1,-1 0,-8 -1,-1 0,-8 -1,-1 0,-8 -1,-1 -5,0 -1,1Z"/>
<path onmouseover="hoverPath(evt)" onmouseout="recoverPath(evt)" fill="rgb(244,243,236)" d="M  143,148l 0,5 1,1 0,8 1,1 0,8 1,1 0,8 1,1 0,8 1,1 0,8 1,1 0,9 1,1 0,7 1,1 0,6 1,1 0,6 1,1 0,10 1,1 0,9 1,1 0,3 53,0 0,-11 -1,-1 0,-14 1,-1 0,-3 1,-1 0,-3 1,-1 0,-3 1,-1 0,-4 -1,-1 0,-24 1,-1 0,-31 1,-1 0,-3 1,-1 0,-2 1,-1 0,-2 1,-1 0,-16 -1,-1 0,-8 1,-1 0,-5 1,-1 0,-2 1,-1 0,-2 1,-1 0,-2 1,-1 0,-1 1,-1 0,-2 1,-1 0,-2 1,-1 0,-4 1,-1 0,-2 -1,-1 0,-3 -1,-1 0,-2 -1,-1 0,-1 -1,-1 0,-2 -1,-1 0,-8 1,-1 0,-1 1,-1 1,-1 1,-1 1,0 1,-1 0,-1 1,-1 0,-7 -1,-1 0,-2 -1,-1 0,-2 -1,-1 0,-3 -1,-1 0,-13 1,-1 0,-2 1,-1 1,-1 0,-1 2,-2 1,-1 1,-1 0,-1 1,-1 0,-1 1,-1 0,-5 -1,-1 0,-4 -1,-1 0,-3 -103,0 0,1 1,1 0,9 1,1 0,6 1,1 0,9 1,1 0,8 1,1 0,8 1,1 0,8 1,1 0,6 1,1 0,7 1,1 0,6 1,1 0,7 1,1 0,7 1,1 0,9 1,1 0,7 1,1 0,7 1,1 0,7 1,1 0,7 1,1 0,4 3,0 1,1 4,0 1,1 4,0 1,1 4,0 1,1 3,0 1,1 4,0 1,1 4,0 1,1 5,0 1,1 2,0 1,1 4,0 1,1 3,0 1,1 1,1 0,2 -1,1 -1,1 -2,0 -1,-1 -3,0 -1,-1 -3,0 -1,-1 -3,0 -1,-1 -4,0 -1,-1 -4,0 -1,-1 -4,0 -1,-1 -4,0 -1,-1 -3,0 -1,-1 -4,0 -1,-1 -5,0Z"/>
<path onmouseover="hoverPath(evt)" onmouseout="recoverPath(evt)" fill="rgb(170,198,238)" d="M  221,66l 0,1 -1,1 0,6 1,1 0,2 1,1 0,1 1,1 0,2 1,1 0,3 1,1 0,4 -1,1 0,4 -1,1 0,2 -1,1 0,2 -1,1 0,1 -1,1 0,2 -1,1 0,2 -1,1 0,2 -1,1 0,5 -1,1 0,6 1,1 0,18 -1,1 0,2 -1,1 0,2 -1,1 0,3 -1,1 0,31 -1,1 0,22 1,1 0,6 -1,1 0,3 -1,1 0,3 -1,1 0,3 -1,1 0,12 1,1 0,12 3,0 0,-3 1,-1 0,-9 -1,-1 0,-11 1,-1 0,-3 1,-1 0,-3 1,-1 0,-2 1,-1 0,-3 1,-1 0,-13 -1,-1 0,-3 -1,-1 0,-14 1,-1 0,-3 1,-1 0,-7 -1,-1 0,-2 -1,-1 0,-8 1,-1 0,-1 1,-1 0,-1 1,-1 0,-1 1,-1 0,-3 1,-1 0,-7 1,-1 0,-13 -1,-1 0,-4 1,-1 0,-7 1,-1 0,-1 1,-1 0,-2 1,-1 0,-1 1,-1 0,-2 1,-1 0,-2 1,-1 0,-3 1,-1 0,-12 -1,-1 -1,-1 0,-1 -1,-1 0,-2 -1,-1 0,-7 1,-1 1,-1 2,-2 1,-1 0,-1 1,-1 1,-1 0,-3 1,-1 0,-1 -1,-1 0,-2 -1,-1 0,-1 -1,-1 0,-1 -1,-1 0,-1 -1,-1 0,-9 -1,-1 0,-4 1,-1 0,-3 1,-1 0,-2 1,-1 1,-1 0,-1 1,-1 1,-1 1,-1 1,-1 0,-8 1,-1 0,-2 -1,-1 0,-3 -1,-1 0,-2 -4,0 0,2 1,1 0,4 1,1 0,7 -1,1 0,1 -1,1 0,1 -1,1 -1,1 -1,1 -1,1 0,1 -1,1 -1,1 0,2 -1,1 0,11 1,1 0,3 1,1 0,2 1,1 0,2 1,1 0,9 -1,1 0,1 -1,1 -1,1 -1,0 -1,1 -1,1Z"/>
<path onmouseover="hoverPath(evt)" onmouseout="recoverPath(evt)" fill="rgb(244,243,236)" d="M  233,24l -2,2 0,2 -1,1 0,3 -1,1 0,2 1,1 0,9 1,1 0,1 1,1 0,1 1,1 0,1 1,1 0,2 1,1 0,3 -1,1 0,3 -1,1 -1,1 0,1 -1,1 -1,1 -1,1 -1,1 -1,1 0,5 1,1 0,2 1,1 0,1 1,1 1,1 0,14 -1,1 0,3 -1,1 0,2 -1,1 0,2 -1,1 0,1 -1,1 0,2 -1,1 0,1 -1,1 0,7 -1,1 0,2 1,1 0,15 -1,1 0,7 -1,1 0,3 -1,1 0,1 -1,1 0,1 -1,1 0,1 -1,1 0,6 1,1 0,2 1,1 0,9 -1,1 0,3 -1,1 0,12 1,1 0,3 1,1 0,15 -1,1 0,3 -1,1 0,2 -1,1 0,3 -1,1 0,3 -1,1 0,9 1,1 0,11 -1,1 0,2 6,0 0,-22 1,-1 2,0 0,-4 1,-1 0,-4 1,-1 0,-3 1,-1 0,-6 1,-1 2,0 0,-10 -2,0 -1,-1 0,-8 -1,-1 0,-12 1,-1 0,-3 1,-1 0,-1 1,-1 0,-1 1,-1 1,0 1,-1 1,-1 2,0 1,-1 3,0 1,-1 15,0 0,-166 -19,0 0,1 1,1 0,3 1,1 0,4 -1,1 0,8 -4,4Z"/>
<path onmouseover="hoverPath(evt)" onmouseout="recoverPath(evt)" fill="rgb(244,243,235)" d="M  233,171l 0,0 -1,1 -1,0 0,1 -1,1 0,1 -1,1 0,3 -1,1 0,10 1,1 0,8 2,0 1,1 0,12 -1,1 -2,0 0,6 -1,1 0,3 -1,1 0,4 -1,1 0,4 -1,1 -2,0 0,21 32,0 0,-87 -14,0 -1,1 -3,0 -1,1 -2,0 -1,1Z"/>
</svg>