<svg width="256" height="256" xmlns="http://www.w3.org/2000/svg"><script> 
var tempColor;
function hoverPath(evt){
obj = evt.target;
tempColor = obj.getAttribute("fill");
obj.setAttribute("fill","red");
//alert(tempColor);
//obj.setAttribute("stroke","red");}
function recoverPath(evt){
obj = evt.target;
obj.setAttribute("fill", tempColor);
//obj.setAttribute("stroke", tempColor);
}</script><path onmouseover="hoverPath(evt)" onmouseout="recoverPath(evt)" fill="rgb(244,243,237)" d="M  35,8l 0,1 1,1 0,1 1,1 0,2 1,1 1,0 1,1 1,1 1,0 1,1 1,1 1,0 1,1 1,0 1,1 0,1 1,0 1,1 1,0 1,1 1,1 1,0 1,1 5,0 1,-1 1,0 1,-1 1,-1 1,-1 1,0 1,-1 1,-1 1,-1 1,0 1,-1 1,-1 1,0 1,-1 1,-1 1,-1 1,0 1,-1 1,-1 1,0 1,-1 1,-1 1,0 1,-1 1,-1 1,-1 1,0 2,-2 1,0 1,-1 1,-1 1,0 1,-1 1,-1 0,-1 -66,0 0,1 1,1 9,0 1,1 1,1 0,2 -1,1 -1,1 -2,0 -1,-1 -1,1Z"/>
<path onmouseover="hoverPath(evt)" onmouseout="recoverPath(evt)" fill="rgb(172,198,237)" d="M  142,184l 0,0 1,1 0,1 1,1 1,1 1,1 1,1 1,1 1,1 1,1 1,1 1,0 1,1 1,0 1,-1 1,0 0,-1 -1,-1 0,-1 -1,-1 -1,-1 0,-1 -1,-1 -1,-1 -1,0 -1,-1 0,-1 -1,-1 0,-1 -1,-1 -2,0 -1,-1 0,2 -2,2Z"/>
<path onmouseover="hoverPath(evt)" onmouseout="recoverPath(evt)" fill="rgb(244,243,235)" d="M  33,152l -1,0 -1,1 -1,0 -1,1 0,1 1,1 1,1 1,1 1,0 1,1 0,1 1,1 0,1 1,1 1,1 1,1 1,1 1,0 1,1 0,1 1,1 1,1 0,1 1,1 2,2 1,1 1,0 1,1 0,1 1,1 0,-1 -1,-2 0,-1 1,-1 1,-1 1,0 0,-1 1,-1 1,0 1,-1 1,0 1,-1 2,0 1,-1 2,0 1,1 1,0 1,1 1,1 0,1 1,1 0,1 1,1 0,2 1,1 0,1 2,0 1,-1 1,0 1,-1 1,0 1,-1 3,0 1,-1 1,-1 3,0 1,-1 1,-1 1,0 1,-1 2,0 1,-1 1,0 1,-1 2,0 1,-1 1,0 1,-1 1,0 2,-2 1,0 1,-1 1,0 1,-1 1,0 1,-1 3,0 1,1 0,-1 -1,-1 0,-2 1,-1 -1,-1 -2,0 -1,-1 0,-1 -1,-1 -1,-1 0,-1 -1,-1 0,-1 -1,-1 -1,-1 0,-2 1,-1 -1,-1 -2,0 -1,-1 0,-1 -1,-1 -2,-2 0,-1 -1,-1 0,-1 -1,-1 0,-2 1,-1 -1,-1 0,0 -1,-1 0,-1 -1,-1 0,-1 -1,-1 0,-1 -1,-1 -2,0 -1,-1 -1,-1 -1,0 -1,1 -2,0 -1,-1 -1,1 0,2 -1,1 -1,0 -1,1 -1,0 -1,1 -1,1 -1,0 -1,1 -1,0 -1,1 -1,1 -1,0 -1,1 -1,0 -2,2 -1,0 -1,1 -1,0 -1,1 -1,0 -1,1 -1,0 -1,1 -1,1 -1,0 -1,1 -1,0 -1,1 -1,0 -1,1 -1,0 -1,1 -1,1 -1,0 -1,1 -1,0 -1,1 -1,1 -3,0 -1,1 -1,0 -1,1 0,1 -1,1 -1,1Z"/>
<path onmouseover="hoverPath(evt)" onmouseout="recoverPath(evt)" fill="rgb(239,240,236)" d="M  169,57l 0,3 -1,1 -1,1 0,1 -1,1 0,3 2,2 0,4 -1,1 1,0 1,-1 0,-1 1,-1 1,0 1,-1 1,0 1,-1 1,-1 1,0 1,-1 4,0 1,1 1,0 1,-1 1,0 1,-1 1,-1 0,-2 1,-1 1,-1 1,0 1,-1 1,-1 2,0 1,1 1,-1 0,0 1,-1 1,0 1,-1 1,-1 1,-1 1,0 2,-2 1,0 1,-1 3,0 1,1 1,1 1,1 0,1 1,1 0,-1 1,1 -6,-6 -1,-1 -1,-1 -1,-1 -1,-1 -1,-1 -1,-1 -1,-1 0,-1 -1,-1 0,-1 -2,0 -1,-1 0,-1 -1,-1 -1,-1 0,-1 -1,0 -2,-2 -1,-1 -1,-1 -1,-1 -1,-1 -1,-1 -1,-1 -1,-1 -1,-1 0,-1 -4,0 -1,1 -2,0 -1,1 -2,0 -1,1 -2,0 -1,1 -1,0 -1,1 -2,0 -1,1 -1,0 -1,1 -2,0 0,2 -1,1 -1,0 -1,1 -3,0 -1,-1 -5,0 -1,-1 0,-1 -4,0 -1,1 0,2 1,1 0,0 1,1 0,1 1,1 1,1 0,1 1,1 0,1 1,1 1,1 0,1 1,1 1,1 0,1 1,1 0,2 1,1 0,1 1,1 0,1 1,1 0,1 2,0 2,2 1,0 3,-3 1,-1 1,-1 2,0 1,1 -3,17 -1,0 0,1 1,0 0,-1 3,-17Z"/>
<path onmouseover="hoverPath(evt)" onmouseout="recoverPath(evt)" fill="rgb(241,241,237)" d="M  209,0l -4,0 0,7 1,1 0,0 1,1 0,1 2,0 1,1 10,0 1,1 1,1 1,0 1,1 1,1 1,-1 2,0 1,1 1,1 1,1 1,1 1,1 1,1 2,0 1,1 1,1 1,0 1,1 1,0 1,1 2,0 1,1 1,1 3,0 1,-1 1,-1 1,-1 1,-1 2,0 0,-22Z"/>
<path onmouseover="hoverPath(evt)" onmouseout="recoverPath(evt)" fill="rgb(242,241,233)" d="M  0,90l 0,48 1,0 1,1 1,1 1,1 1,1 1,1 1,1 1,1 1,0 1,-1 1,0 1,-1 1,0 1,-1 3,0 1,1 0,3 -1,1 -1,0 -1,1 -1,0 -1,1 -1,0 1,1 0,0 1,1 1,1 2,2 1,1 1,1 1,1 1,1 1,1 1,1 1,1 1,1 0,1 1,1 1,1 1,1 2,2 1,1 1,1 0,1 1,1 1,1 1,1 1,1 1,1 1,1 1,1 1,1 1,1 1,1 0,1 1,1 1,1 1,1 1,1 1,1 1,1 1,1 1,1 1,1 1,0 1,1 0,1 1,1 1,1 1,1 1,1 1,1 1,1 1,1 1,1 0,1 3,0 -1,-1 0,0 -1,-1 -1,-1 -1,-1 0,-1 -1,-1 -1,-1 -1,-1 -1,-1 -1,-1 -1,-1 -1,0 -1,-1 0,-1 -1,-1 0,-1 -1,-1 -1,-1 -1,-1 -1,-1 -3,-3 -1,0 -1,-1 0,-2 -1,-1 -1,-1 -3,-3 -1,-1 -1,0 -1,-1 0,-1 -1,-1 0,-1 -1,-1 -1,-1 -1,-1 -1,-1 -1,-1 -1,-1 -1,0 -1,-1 -1,0 -1,-1 -1,-1 0,-3 1,-1 1,0 0,-2 1,-1 1,0 1,-1 1,0 1,-1 1,-1 1,-1 -2,0 -2,-2 -1,-1 0,-1 -1,-1 -2,0 -1,-1 0,-2 1,-1 2,0 0,-1 -1,-1 0,0 -1,-1 -1,-1 -1,0 -1,-1 0,-2 -1,-1 -1,-1 -1,-1 -1,0 -1,-1 0,-2 -1,-1 -1,-1 -1,-1 -1,-1 0,-2 1,-1 0,-6 1,-1 1,0 1,-1 2,0 1,1 1,-1 1,0 1,-1 1,0 1,-1 1,0 1,-1 1,-1 -4,0 -1,-1 -1,-1 -1,-1 0,-1 -1,0 -1,-1 0,-1 -1,-1 -1,-1 -1,-1 -1,-1 0,-2 -1,0 -1,-1 -1,-1 -1,-1 0,-2 -1,0 -2,-2 0,-3 1,-1 1,0 1,-1 1,-1 2,-2 2,0 0,-2 1,-1 -2,2 -5,0 -1,-1 -1,-1 -1,-1 0,-1 -1,0 -1,1 -3,0Z"/>
<path onmouseover="hoverPath(evt)" onmouseout="recoverPath(evt)" fill="rgb(253,253,251)" d="M  26,154l 0,1 -1,1 -1,0 0,1 1,1 1,0 1,1 1,0 1,1 1,1 1,1 1,1 1,1 1,1 1,1 0,1 1,1 0,1 1,0 1,1 1,1 1,1 1,1 1,1 1,1 1,1 0,2 1,0 1,1 1,1 2,2 1,1 1,1 1,1 1,1 0,1 1,1 0,1 1,0 1,1 1,1 1,1 1,1 1,1 1,1 1,1 0,1 1,1 1,1 1,1 1,1 0,1 1,0 1,-1 0,0 -1,-1 0,-1 -1,-1 -1,0 -2,-2 -1,-1 -1,-1 -1,-1 -1,-1 0,-1 -1,-1 -1,-1 0,-1 -1,0 -1,-1 -1,-1 -1,-1 -1,-1 -1,-1 0,-2 -1,-1 -1,0 -1,-1 -1,-1 0,-1 -1,0 -1,-1 -3,-3 -1,-1 0,-1 -1,-1 -1,-1 0,-1 -1,0 -1,-1 -1,-1 -1,-1 -1,-1 -1,-1 0,-1 -1,-1 0,-1 -1,0 -1,-1 -1,-1 -1,-1 -1,-1 0,-1 -1,-1Z"/>
<path onmouseover="hoverPath(evt)" onmouseout="recoverPath(evt)" fill="rgb(243,242,235)" d="M  119,162l -4,0 -1,-1 0,-1 -1,0 -1,-1 1,2 0,1 1,0 1,1 0,1 1,1 2,0 1,1 0,1 1,1 1,1 0,2 -1,1 1,1 2,0 1,1 0,1 1,1 4,0 1,-1 1,0 1,-1 2,0 1,-1 1,0 1,-1 2,0 1,-1 1,0 1,-1 2,0 1,-1 1,0 1,-1 2,0 1,-1 1,0 1,-1 2,0 1,-1 1,0 1,-1 2,0 1,-1 1,0 1,-1 2,0 1,-1 1,0 1,-1 2,0 1,-1 1,0 1,-1 2,0 1,-1 1,0 1,-1 2,0 1,-1 1,0 1,-1 1,0 1,-1 2,0 1,-1 1,0 1,-1 2,0 1,-1 1,0 1,-1 2,0 1,-1 1,0 1,-1 2,0 1,-1 1,0 1,-1 2,0 1,-1 1,0 1,-1 2,0 1,-1 1,0 1,-1 2,0 1,-1 1,0 1,-1 2,0 1,-1 1,0 1,-1 2,0 1,-1 1,0 1,-1 2,0 1,-1 1,0 1,-1 2,0 1,-1 0,-1 1,-1 -1,-1 0,0 -1,-1 -1,-1 -1,0 -1,-1 0,-1 -1,-1 0,-1 -1,-1 -1,-1 -1,-1 -1,0 -1,-1 0,-1 -1,-1 0,-1 -1,-1 -1,-1 -1,0 -1,-1 0,-2 -1,-1 -1,0 -1,-1 0,-2 -1,-1 -1,-1 -1,-1 0,-1 -1,-1 -1,-1 -1,-1 0,-1 -1,-1 0,-1 -1,-1 -1,-1 -1,-1 0,-1 -1,-1 0,-3 1,-1 1,-1 1,0 1,-1 1,-1 1,0 1,-1 1,-1 1,-1 1,0 1,-1 1,-1 0,-1 1,-1 2,0 1,-1 1,-1 1,0 1,-1 0,-2 1,-1 -1,-1 0,-1 -1,0 -1,-1 -1,-1 -1,-1 -1,-1 -1,-1 -1,-1 -1,-1 -1,-1 -1,-1 -1,-1 0,-1 -4,0 -1,-1 -1,-1 0,-1 -1,-1 -1,-1 -1,0 -1,1 -1,0 -1,1 -1,1 -1,0 -1,1 -1,1 -1,1 -1,0 -2,2 -2,0 -1,-1 -1,1 -1,1 -1,0 -1,1 0,2 -1,1 -1,1 -1,1 -1,0 -1,1 -3,0 -1,-1 -2,0 -1,1 -1,0 -1,1 -1,1 -1,0 -1,1 -1,0 0,1 -1,1 -1,1 -1,0 -1,1 -3,0 -1,-1 -1,1 0,0 -1,1 -1,0 -1,1 -1,1 -1,0 -1,1 -1,1 -1,0 -1,1 0,2 -1,1 -1,1 -1,1 -1,0 -1,1 -1,0 -1,1 -1,1 -1,0 -1,1 -1,1 -1,0 -1,1 -1,1 -2,0 -1,-1 -1,1 0,0 -1,1 -1,0 -1,1 -1,1 -1,0 -1,1 0,2 -1,1 -1,0 -1,1 -1,1 -1,0 -1,1 -2,0 -1,-1 -1,1 -5,0 -1,-1 -7,0 -1,1 -1,0 0,1 1,0 1,-1 7,0 5,1 0,1 1,1 0,2 1,1 1,1 0,1 1,1 0,1 1,1 0,1 1,1 0,1 1,1 0,1 1,0 1,1 1,1 1,1 1,0 1,1 1,1 0,1 1,1 1,1 1,1 1,1 1,0 1,1 1,1 1,1 1,1 1,1 0,1 1,1 4,0 1,1 1,-1 1,0 0,-4 1,-1 2,-2 3,0 0,-1 1,-1 1,-1 1,-1 1,0 1,-1 1,-1 1,0 1,-1 1,-1 3,0 1,1 1,1 0,3 -2,2 -1,0 -1,1 -1,1 -1,0 -1,1 0,1 1,1 0,0 1,1 0,1 1,1 1,1 0,5 -1,1 -1,1 -1,1 -1,0 -1,1 -1,1 -1,0 -1,1 -1,0 -1,1 -1,0 -1,1 -4,0 -1,-1 -1,0 -1,-1 0,-1 -1,0 -1,-1 -1,1 -1,0 -1,1 -1,1 -1,1 -1,0 -1,1 -1,1 -1,0 -1,1 -1,0 -1,1 -1,0 -1,1 -2,0 -1,1 -2,0 -1,1 -2,0 -1,1 -1,0 -1,1 -1,0 -1,1 37,-65 1,-1 1,-1 1,-1 1,-1 2,0 1,-1 4,0 1,1 1,1 1,1 1,1 1,0 1,1 1,1 1,1 0,4 -1,1 0,2 -1,1 -1,0 -1,1 -8,0 -1,-1 -2,0 -1,-1 -1,-1 -1,-1 -1,-1 0,-6 -37,65Z"/>
<path onmouseover="hoverPath(evt)" onmouseout="recoverPath(evt)" fill="rgb(243,242,234)" d="M  11,83l -2,2 -1,0 0,1 1,1 1,0 1,1 0,2 1,1 1,1 1,0 1,1 0,2 1,1 1,1 1,1 1,1 0,1 1,0 1,1 0,1 1,1 1,1 3,0 1,-1 1,0 1,-1 1,0 1,-1 1,-1 2,0 1,1 1,-1 1,0 1,-1 0,-2 1,-1 2,0 1,1 1,-1 0,-2 1,-1 2,0 1,1 1,-1 0,-2 1,-1 1,0 1,-1 1,0 1,-1 1,-1 2,0 1,1 1,-1 1,0 1,-1 0,-2 1,-1 2,0 1,1 1,-1 1,0 1,-1 0,-2 1,-1 1,0 1,-1 0,-1 1,-1 1,0 1,-1 1,0 1,-1 1,0 1,-1 1,-1 0,-1 -1,-1 0,0 -1,-1 -1,-1 -1,-1 -1,-1 -1,-1 -1,-1 -1,-1 -1,-1 -1,-1 0,-1 -1,-1 -1,-1 -1,-1 -1,0 -1,-1 0,-2 -1,-1 -1,1 -1,0 -1,1 -1,1 -1,0 -1,1 -2,0 -1,1 -2,0 -1,1 -3,0 -2,2 -1,0 -1,1 -2,0 -2,2 -1,1 -1,0 -1,1 -1,0 -1,1 -1,1 -2,0 1,1 0,1 1,1 1,1 1,1 0,1 1,1 1,1 0,3 -1,1 -2,2 -1,0 -1,1 -1,1 -1,0 -1,1 -1,1 -1,0 -1,1 -1,1 -4,0 -1,-1 -1,-1 -1,-1 -2,-2 -1,-1 -1,-1 -1,0 -2,2Z"/>
<path onmouseover="hoverPath(evt)" onmouseout="recoverPath(evt)" fill="rgb(230,234,233)" d="M  60,189l 0,0 1,1 0,1 1,1 1,1 1,1 1,1 1,1 1,0 1,1 1,1 0,1 3,0 1,1 1,0 1,-1 1,0 1,-1 2,0 1,-1 1,0 1,-1 2,0 1,-1 1,0 1,-1 2,0 1,-1 1,0 1,-1 2,0 0,-2 1,-1 2,0 1,-1 1,0 1,-1 2,0 1,-1 1,0 1,-1 2,0 1,-1 1,0 1,-1 2,0 1,-1 1,0 1,-1 1,0 1,-1 2,0 1,-1 1,-1 0,-1 -1,-1 0,-1 -1,-1 -1,-1 0,-2 1,-1 -1,-1 -2,0 -1,-1 0,-1 -2,-2 0,-1 -3,0 -1,-1 -1,0 -1,1 -1,0 -1,1 -1,0 -1,1 -1,0 -1,1 -1,1 -1,0 -1,1 -1,0 -1,1 -2,0 -1,1 -1,0 -1,1 -2,0 -1,1 -1,0 -1,1 -1,1 -3,0 -1,1 -1,1 -3,0 -1,1 -1,0 -1,1 -1,0 -1,1 -4,0 -1,-1 0,-1 -1,-1 0,-2 -1,-1 0,-1 -1,-1 0,-1 -1,-1 -1,0 -1,-1 -1,1 -2,0 -1,1 -1,0 -1,1 -1,0 0,1 -1,1 -1,0 -1,1 1,1 0,3 1,1 0,2 1,1 1,1 1,1 1,1 1,0 1,1 0,1 1,1Z"/>
<path onmouseover="hoverPath(evt)" onmouseout="recoverPath(evt)" fill="rgb(243,242,235)" d="M  68,52l 0,2 1,1 1,1 1,0 1,1 0,2 1,1 1,1 1,1 1,1 1,1 1,1 1,1 1,0 1,1 0,2 3,0 1,-1 1,0 1,-1 1,0 1,-1 1,-1 1,0 1,-1 1,0 1,-1 1,-1 1,0 1,-1 1,0 1,-1 1,-1 1,0 1,-1 1,0 1,-1 1,-1 1,0 1,-1 1,0 1,-1 1,-1 1,0 1,-1 1,0 1,-1 1,-1 1,0 1,-1 2,0 1,1 1,-1 0,-2 1,-1 1,0 1,-1 1,0 1,-1 1,-1 1,0 1,-1 1,-1 1,0 1,-1 1,0 1,-1 1,-1 0,-1 1,-1 1,-1 1,-1 1,-1 2,0 1,-1 1,-1 6,0 1,1 0,1 5,0 1,1 1,0 1,-1 1,0 0,-2 1,-1 2,0 1,-1 1,0 1,-1 2,0 1,-1 1,0 1,-1 2,0 1,-1 2,0 1,-1 2,0 1,-1 6,0 1,1 0,1 1,1 1,1 1,1 1,1 1,1 1,1 1,1 1,1 1,1 1,0 1,1 0,1 1,1 1,1 0,1 1,-2 0,0 1,-1 1,0 2,-2 1,0 1,-1 1,0 1,-1 1,-1 1,0 1,-1 1,0 1,-1 1,0 1,-1 1,0 1,-1 1,0 1,-1 2,0 1,-1 1,0 1,-1 1,0 1,-1 1,-1 0,-2 -1,-1 0,0 -1,-1 0,-1 -1,0 -1,-1 -1,-1 -1,0 -1,-1 -1,-1 -10,0 -1,-1 -2,0 -1,-1 0,-1 -1,-1 -1,-1 0,-8 -18,0 0,4 -1,1 -1,1 -1,1 -1,1 0,1 -1,1 -1,1 -1,1 -3,3 -1,1 0,1 -1,1 -1,1 -1,1 -2,2 -2,0 -1,-1 -1,0 -1,1 -27,0 -1,1 -12,0 -1,1 -12,0 -1,1 -3,0 -1,1 -1,0 0,1 -1,1 -1,0 -1,1 -1,1 -1,0 -1,1 -1,1 0,1 1,0 1,1 1,1 1,1 0,4 -1,1 -1,1 -5,0 -1,-1 -1,-1 -1,-1 0,-3 1,-1 -1,0 -1,-1 0,0 -1,1 0,0 -3,3 -1,1 -3,3 -1,1 -1,1 -1,0 0,1 -1,1 -2,0 -1,1 -9,0 -1,1 0,3 1,0 1,1Z"/>
<path onmouseover="hoverPath(evt)" onmouseout="recoverPath(evt)" fill="rgb(242,241,235)" d="M  223,223l 1,1 2,0 1,1 0,1 1,1 0,1 1,1 1,1 0,2 -1,1 0,1 3,0 1,-1 1,0 0,-2 1,-1 3,0 1,1 2,0 1,-1 1,0 1,-1 4,0 1,1 0,2 1,1 0,1 1,1 1,0 1,1 1,1 0,2 1,1 0,-99 -2,0 -1,-1 0,-1 -2,-2 -2,0 -1,1 1,1 0,0 1,1 0,2 -1,1 -2,0 -1,-1 -1,-1 -3,0 -1,1 -2,0 -1,1 -1,0 -1,1 -2,0 -1,1 -1,0 -1,1 -2,0 -1,1 -1,0 -1,1 -2,0 -1,1 -1,0 -1,1 -2,0 -1,1 -1,0 -1,1 -2,0 -1,1 -1,0 -2,2 -1,0 -1,1 -4,0 -1,1 -1,0 -1,1 -1,0 -1,1 0,3 1,0 1,1 0,1 1,1 0,1 1,1 0,3 -1,1 -2,0 -1,1 0,1 -1,1 -7,0 -1,-1 -1,-1 0,-1 -1,-1 0,-1 -1,-1 0,-1 -1,-1 0,3 1,1 0,1 1,1 0,2 1,1 0,1 1,1 0,1 1,1 0,1 1,1 0,1 1,1 0,2 1,0 1,-1 3,0 1,1 0,3 -1,1 0,3 1,1 0,2 1,1 0,4 1,1 0,2 1,1 1,1 0,2 1,1 10,0 1,1 0,1 1,1 0,1 1,1 0,1 1,0 1,1 0,1 1,0 1,1 0,1 1,1 0,3 -1,1 3,0 -10,-16 -2,0 -1,-1 0,-2 1,-1 2,0 1,1 0,2 -1,1 10,16 -13,-21 -2,0 -1,-1 -1,-1 0,-2 1,-1 2,0 1,1 1,1 0,2 -1,1 13,21 -17,-27 -2,0 -1,-1 0,-2 1,-1 2,0 1,1 0,2 -1,1 17,27 -17,-46 1,-1 1,0 1,-1 2,0 1,1 0,2 -1,1 -1,0 -1,1 -2,0 -1,-1 0,-2 17,46Z"/>
<path onmouseover="hoverPath(evt)" onmouseout="recoverPath(evt)" fill="rgb(244,242,235)" d="M  15,114l 0,0 -1,-1 0,5 1,1 0,0 1,1 1,1 1,1 1,0 1,1 0,2 1,1 1,1 1,1 1,0 1,1 0,2 1,1 1,1 1,1 1,1 0,-1 1,-1 1,0 1,-1 1,0 1,-1 1,-1 1,-1 1,0 1,-1 1,-1 1,0 1,-1 2,0 1,-1 1,0 1,-1 3,0 1,-1 1,-1 2,0 1,-1 1,0 1,-1 1,0 4,-4 2,0 1,-1 1,0 1,-1 1,0 1,-1 1,-1 1,0 1,-1 1,0 4,-4 1,-1 1,-1 2,0 0,-1 1,-1 1,0 1,-1 1,0 2,-2 1,0 -1,-1 0,0 -1,-1 -1,-1 0,-1 -1,0 -1,-1 0,-1 -1,-1 -1,-1 -1,-1 -1,0 -1,-1 0,-1 -1,-1 0,-1 -1,-1 -1,-1 -1,-1 -1,-1 -3,0 -1,1 0,0 -1,1 -1,0 -1,1 -1,0 -1,1 -1,0 -1,1 -1,1 -1,0 -1,1 -2,0 -1,-1 -1,1 0,2 -1,1 -1,0 -1,1 -1,0 -1,1 -1,1 -1,0 -1,1 -1,0 -1,1 -1,1 -1,0 -1,1 -1,0 -1,1 -1,1 -1,0 -1,1 -2,0 -1,-1 -1,1 0,2 -1,1 -1,0 -1,1 -1,0 -1,1 -1,1 -1,1 -1,0 -1,1 -1,0 -1,1 -1,0 -1,1 -1,0 -1,1Z"/>
<path onmouseover="hoverPath(evt)" onmouseout="recoverPath(evt)" fill="rgb(244,243,235)" d="M  94,115l -1,1 -1,1 -1,0 -1,1 0,1 1,1 0,1 1,1 1,1 0,1 1,1 0,1 1,1 0,1 1,1 1,1 0,2 -1,1 1,1 0,1 1,1 0,1 1,1 1,1 2,0 1,1 0,1 1,1 1,1 0,2 -1,1 1,1 2,0 1,1 0,2 -1,1 1,1 2,0 1,1 0,1 1,1 1,1 0,1 1,1 1,-1 1,0 1,-1 1,0 1,-1 1,0 1,-1 1,0 1,-1 2,0 1,-1 1,0 1,-1 1,0 1,-1 1,0 1,-1 1,0 1,-1 1,0 1,-1 3,-3 1,-1 0,-2 -1,0 -1,-1 -1,-1 -1,-1 -1,-1 -1,-1 -1,0 -1,-1 -1,-1 -1,-1 -1,-1 -1,-1 -1,-1 -1,-1 -1,-1 -1,-1 -1,0 -1,-1 -1,-1 -1,-1 -1,0 -3,-3 -1,-1 -1,-1 0,-1 -1,-1 -1,-1 0,-2 -1,-1 0,-2 -1,-1 0,-3 -3,0 -1,1 -2,0 -1,1 -1,0 -1,1 -1,1 -1,1 -1,0 -1,1 -1,1 -1,0 -1,1Z"/>
<path onmouseover="hoverPath(evt)" onmouseout="recoverPath(evt)" fill="rgb(171,198,237)" d="M  123,156l -1,0 -1,1 -1,0 -1,1 -1,0 -1,1 -1,0 0,1 2,0 1,-1 1,0 1,-1 1,0 1,-1 0,-1 3,-1 0,1 2,0 1,-1 2,0 1,-1 1,0 1,-1 1,0 1,-1 1,0 1,-1 1,-1 1,0 1,-1 2,-2 1,0 1,-1 2,0 1,1 1,0 1,1 0,1 1,0 1,1 2,0 1,-1 1,0 1,-1 1,0 1,-1 1,0 1,-1 1,-1 1,0 1,-1 1,-1 0,-3 -1,-1 0,0 -1,-1 0,-1 -1,-1 -2,0 1,1 0,0 1,1 0,3 -1,1 -1,1 -1,1 -1,1 -1,0 -1,1 -1,1 -4,0 -1,-1 -1,-1 -1,-1 -1,-1 0,-2 -1,-1 -3,0 -1,1 0,3 -1,1 -1,1 -2,2 -1,1 -1,1 -1,0 -1,1 -1,0 -1,1 -1,0 -1,1 -1,0 -1,1 -1,0 -1,1 -3,1Z"/>
<path onmouseover="hoverPath(evt)" onmouseout="recoverPath(evt)" fill="rgb(196,213,237)" d="M  214,243l 0,-2 -1,-1 0,-5 1,-1 5,0 1,1 0,1 1,1 0,1 1,1 0,1 1,1 0,1 1,1 1,0 0,-2 -1,-1 0,0 -1,-1 0,-1 -1,0 1,2 -2,-4 0,-4 1,-1 1,0 0,-1 -1,0 -1,1 -2,0 -1,1 -2,0 -1,1 -3,0 0,1 -1,1 0,1 -1,1 -4,0 -1,1 -1,0 -1,1 -2,0 -1,1 -1,0 -1,1 0,2 1,1 0,1 1,1 0,1 1,1 0,1 1,1 1,1 1,1 1,1 0,2 13,0 0,-2 -1,-1 0,-1 -1,-1 0,-2 -1,-1 0,-3 -1,-1Z"/>
<path onmouseover="hoverPath(evt)" onmouseout="recoverPath(evt)" fill="rgb(243,242,235)" d="M  217,236l -2,0 0,3 1,1 0,2 1,1 0,3 1,1 0,2 1,1 0,1 1,1 0,3 35,0 0,-13 -1,0 -1,-1 -1,-1 0,-2 -1,-1 -1,0 -1,-1 -1,-1 0,-1 -1,-1 0,-2 -2,0 -1,1 -1,0 -1,1 -4,0 -1,-1 -1,0 0,2 -1,1 -1,0 -1,1 -5,0 -1,-1 0,-3 1,-1 -1,-1 0,0 -1,-1 0,-1 -1,-1 0,-1 -2,0 -1,-1 -3,0 -1,-1 0,-2 1,-1 0,-1 -1,-1 0,1 -1,1 -3,0 -1,-1 -1,-1 0,-1 -1,-1 0,-1 -1,-1 0,-1 -1,0 -1,-1 -3,0 -1,1 0,3 1,1 0,1 1,1 0,2 1,1 0,2 1,1 0,1 1,1 2,0 1,1 0,2 2,0 1,-1 2,0 1,-1 2,0 1,-1 3,0 1,1 0,3 -1,1 -1,0 0,3 1,0 1,1 0,1 1,1 1,1 0,4 -1,1 -3,0 -1,-1 -1,-1 0,-1 -1,-1 0,-1 -1,-1 0,-1 -1,-1 -1,-1Z"/>
<path onmouseover="hoverPath(evt)" onmouseout="recoverPath(evt)" fill="rgb(245,244,237)" d="M  0,53l 0,15 1,0 1,-1 1,-1 1,0 2,-2 1,0 1,-1 1,-1 1,-1 -1,-1 0,0 -1,-1 -1,-1 -1,-1 -1,-1 -1,-1 -1,-1 -1,-1 -1,-1 -1,1Z"/>
<path onmouseover="hoverPath(evt)" onmouseout="recoverPath(evt)" fill="rgb(243,242,236)" d="M  3,236l 0,0 -1,-1 -2,0 0,20 12,0 0,-2 1,-1 1,-1 1,-1 1,0 1,-1 1,-1 1,-1 1,0 2,-2 1,0 1,-1 1,0 1,-1 1,-1 1,-1 5,0 1,1 0,1 1,1 1,1 0,1 1,1 1,1 0,1 1,1 0,1 1,1 0,3 51,0 0,-2 -1,-1 0,-3 -1,-1 0,-3 -1,-1 0,-1 -1,-1 -1,-1 -1,0 -1,-1 0,-2 -2,0 -1,-1 0,-2 -1,-1 -1,-1 -1,-1 -1,-1 -1,-1 -1,-1 2,3 0,2 -1,1 -3,0 -1,-1 -1,-1 -1,-1 -6,0 -1,-1 -3,0 -1,1 -3,0 -1,-1 -1,-1 0,-2 3,-3 1,0 1,-1 1,0 1,-1 1,0 1,-1 5,0 0,-1 -1,0 -1,-1 0,-2 -1,-1 -1,-1 -1,0 -1,-1 0,-2 -1,1 -2,0 -1,1 -2,0 -1,1 -1,0 -1,1 -1,0 -1,1 -2,0 -1,1 -1,0 -1,1 -1,0 -1,1 -2,0 -1,1 -1,0 -1,1 -2,0 -1,1 -1,0 -1,1 -1,0 -1,1 -2,0 -1,1 -1,0 -1,1 -2,0 -1,1 -1,0 -1,1 -2,0 -1,1 -2,0 -1,1 -1,0 -1,1 -2,0 -1,1 -2,0 -1,1 -1,0 -1,1Z"/>
<path onmouseover="hoverPath(evt)" onmouseout="recoverPath(evt)" fill="rgb(203,218,237)" d="M  15,253l 0,0 -1,1 0,1 24,0 0,-2 -1,-1 0,-1 -1,-1 0,-1 -1,-1 -1,-1 0,-1 -1,-1 -1,-1 0,-1 -3,0 -1,1 0,0 -1,1 -1,1 -1,0 -1,1 -1,0 -1,1 -1,1 -1,0 -1,1 -1,1 -1,1 -1,0 -1,1Z"/>
<path onmouseover="hoverPath(evt)" onmouseout="recoverPath(evt)" fill="rgb(177,202,237)" d="M  27,205l 0,0 -1,1 -1,0 -1,1 -1,0 -1,1 -1,1 -1,0 -1,1 -1,0 -1,1 -1,1 -1,0 -1,1 -1,0 -1,1 -1,0 -1,1 -1,0 -1,1 -1,0 -1,1 -1,0 -1,1 0,1 1,0 1,-1 1,0 1,-1 1,0 1,-1 1,0 1,-1 1,0 1,-1 1,0 0,-1 -2,1 -6,3 -2,1 12,-6 1,0 1,-1 1,0 0,-1 -2,1 4,-2 1,0 1,-1 1,0 1,-1 1,0 1,-1 -1,-1 3,-2 1,1 1,0 1,-1 1,0 1,-1 1,-1 1,0 1,-1 1,0 1,-1 1,-1 1,-1 1,0 0,-1 1,-1 3,0 1,1 1,1 1,1 1,1 1,1 1,1 1,1 1,1 1,1 0,3 1,-1 0,0 1,-1 2,0 0,-1 -1,-1 0,-1 -1,-1 -1,-1 -1,-1 -1,-1 -1,-1 -1,-1 -1,-1 -1,-1 0,-1 -1,0 -1,-1 -1,-1 -1,-1 -1,-1 -1,-1 -1,-1 -1,-1 -1,-1 -1,-1 -1,-1 0,-1 -1,-1 -1,-1 -2,-2 -1,-1 -1,-1 -1,-1 -1,-1 -1,-1 -1,-1 0,-1 -1,-1 -1,-1 -1,-1 -1,-1 -1,-1 -1,-1 -1,-1 0,-1 -3,-3 -1,-1 -2,-2 -1,-1 -1,-1 -1,-1 -1,-1 -1,-1 -1,-1 -1,-1 0,-2 1,-1 1,0 1,-1 1,0 1,-1 1,0 0,-1 -1,0 -1,1 -1,0 -1,1 -1,0 -1,1 -3,0 -1,-1 -1,-1 -1,-1 -1,-1 -3,-3 0,34 2,0 0,-1 1,-1 2,0 1,-1 1,0 1,-1 1,-1 1,0 0,-1 1,-1 2,0 1,-1 1,0 0,-1 1,-1 4,0 1,1 1,1 1,1 0,1 3,3 1,1 1,1 1,1 1,1 1,1 1,1 0,1 1,1 1,1 1,1 1,1 1,1 1,1 1,1 0,1 1,1 1,1 1,1 1,1 1,1 0,3 -1,1 -1,1 -1,0 -1,1 -1,0 -1,1 -1,0 -1,1 -1,1 -1,0 -1,1 -1,1 -1,0 -1,1 -3,2Z"/>
<path onmouseover="hoverPath(evt)" onmouseout="recoverPath(evt)" fill="rgb(172,198,236)" d="M  112,109l 0,0 1,1 0,2 1,1 0,2 1,1 1,1 0,1 1,1 1,1 1,1 1,1 1,0 1,1 1,1 1,1 1,0 8,8 1,1 1,0 1,1 1,1 1,1 1,1 1,1 1,0 -1,-1 0,-1 -1,-1 0,0 -1,-1 -1,-1 -1,-1 -1,0 -1,-1 -1,-1 -1,-1 -1,-1 -1,-1 0,-1 -1,-1 -1,0 -1,-1 -1,-1 -1,-1 -1,0 -1,-1 0,-1 -1,-1 0,-1 -1,-1 0,-1 -1,-1 0,-1 -1,-1 0,-1 -1,-1 -1,-1 0,-2 -1,-1 0,-1 -4,0Z"/>
<path onmouseover="hoverPath(evt)" onmouseout="recoverPath(evt)" fill="rgb(207,220,236)" d="M  158,101l 0,1 1,1 1,1 1,1 2,0 1,1 6,0 1,-1 1,0 0,-2 1,-1 0,-2 -1,-1 0,0 -1,-1 -1,0 -1,-1 -1,-1 -1,-1 -1,-1 -2,0 -1,1 -2,0 -3,3Z"/>
<path onmouseover="hoverPath(evt)" onmouseout="recoverPath(evt)" fill="rgb(244,247,250)" d="M  211,92l 0,-3 -1,1 0,1 2,3 0,0 1,1 1,1 0,1 1,1 0,1 1,1 1,1 1,1 0,1 1,1 1,1 1,1 0,2 1,0 1,1 1,1 0,2 1,0 1,1 1,1 1,1 0,1 1,1 0,1 1,0 1,1 1,1 1,1 1,1 0,1 1,1 0,1 1,0 1,1 1,1 1,1 1,1 0,1 1,1 2,0 1,-1 0,-1 -1,-1 0,-1 -1,0 -1,-1 -1,-1 -1,-1 -1,-1 0,-1 -1,-1 -1,-1 -1,-1 0,-2 1,-1 3,0 -1,-1 0,-1 -1,-1 -1,-1 -1,-1 -3,0 -1,1 -2,0 -1,-1 -1,-1 0,-2 -1,0 -1,-1 -1,-1 -1,-1 0,-2 -1,0 -1,-1 -1,-1 -1,-1 0,-1 -1,-1 -1,-1 -1,-1 0,-2 -1,-1 -1,1 1,0 -4,-2Z"/>
<path onmouseover="hoverPath(evt)" onmouseout="recoverPath(evt)" fill="rgb(174,200,238)" d="M  7,73l 0,1 1,1 1,1 3,0 1,-1 0,0 1,-1 2,0 1,1 0,2 -1,1 0,2 1,1 1,1 2,2 1,1 1,1 2,0 1,-1 0,0 1,-1 1,0 1,-1 1,-1 1,0 1,-1 1,-1 1,0 2,-2 0,-1 -1,-1 0,0 -1,-1 0,-1 -1,-1 -1,-1 -1,-1 0,-1 -1,-1 0,-2 1,-1 2,0 2,-2 1,0 1,-1 1,0 1,-1 1,-1 1,-1 2,0 1,-1 1,0 1,-1 1,-1 3,0 1,-1 2,0 1,-1 2,0 0,-5 1,-1 1,-1 -1,-1 0,0 -1,-1 -1,-1 0,-2 -1,0 -1,-1 -1,-1 0,-2 1,-1 1,0 1,-1 1,-1 -2,0 -1,-1 0,-3 1,-1 1,-1 -1,-1 0,-2 -1,0 -1,-1 -1,-1 -1,0 -1,-1 -1,0 -1,-1 0,-1 -1,0 -1,-1 -1,0 -1,-1 -1,-1 -1,0 -1,-1 -1,-1 -1,0 -1,-1 -1,-1 0,-2 -1,-1 0,-1 -1,-1 0,-4 1,-1 3,0 1,1 1,-1 0,0 -1,-1 -9,0 -1,-1 -1,-1 0,-2 -3,0 1,1 2,2 1,1 1,1 1,1 1,1 0,1 1,1 0,2 1,1 1,1 0,1 -1,-3 0,0 -26,62 28,-57 0,2 -1,1 -1,1 0,1 1,1 0,1 1,1 1,1 1,0 1,1 1,1 1,1 1,1 1,1 1,1 1,1 1,1 1,1 1,0 1,1 0,2 -1,1 -1,1 -1,0 -2,2 -1,0 -1,1 -1,1 -1,0 -1,1 -1,1 -1,0 -1,1 -1,1 -1,1 -1,0 -1,1 -3,0 -1,-1 0,-1 -1,-1 -1,-1 -1,-1 -1,-1 -1,-1 -1,-1 -1,-1 -1,-1 -2,0 -1,1 0,0 -1,1 -1,1 -1,0 -1,1 -1,1 -1,1 -1,0 -1,1 -1,1 0,1 -1,1 -2,0 -1,-1 -1,-1 -1,-1 -1,0 0,4 2,0 1,1 1,1 3,3 1,1 1,1 1,1 1,1 1,1 0,2 -1,1 -1,1 -1,1 -1,1 -1,0 -1,1 -1,1 -1,0 -1,1 -1,1 -2,0 0,3 2,0 1,-1 3,0 29,-56 -28,57Z"/>
<path onmouseover="hoverPath(evt)" onmouseout="recoverPath(evt)" fill="rgb(243,242,237)" d="M  26,174l 0,0 -1,-1 -2,-2 -1,-1 -1,-1 0,-1 -1,-1 -1,-1 -2,0 0,1 -1,1 -1,0 -1,1 -2,0 0,1 -1,1 -1,0 -1,1 -1,1 -1,0 -1,1 -2,0 0,1 -1,1 -3,0 0,51 1,0 1,-1 2,0 1,-1 2,0 1,-1 1,0 1,-1 2,0 1,-1 2,0 1,-1 1,0 1,-1 2,0 1,-1 2,0 1,-1 1,0 1,-1 2,0 1,-1 1,0 1,-1 1,0 1,-1 2,0 1,-1 1,0 1,-1 1,0 1,-1 2,0 1,-1 1,0 1,-1 1,0 1,-1 2,0 1,-1 1,0 1,-1 2,0 0,-1 -1,-1 0,0 -1,-1 -1,-1 -1,-1 -1,-1 -1,-1 -1,-1 -1,-1 -1,0 0,1 -1,1 -1,0 -1,1 -1,1 -1,1 -1,0 -1,1 -1,0 -1,1 -1,1 -1,0 -1,1 -1,0 -1,1 -1,0 -2,2 -1,0 -1,1 -1,0 -1,1 -2,0 0,1 -1,1 -1,0 -1,1 -2,0 0,1 -1,1 -1,0 -1,1 -1,0 -1,1 -1,0 -1,1 -1,0 -1,1 -1,0 -1,1 -3,0 -1,-1 0,-3 1,-1 1,-1 1,0 1,-1 1,0 1,-1 1,0 1,-1 1,0 1,-1 1,0 1,-1 1,0 1,-1 1,-1 1,0 1,-1 1,0 1,-1 1,-1 1,0 1,-1 1,0 1,-1 1,-1 1,0 1,-1 1,-1 1,0 1,-1 1,-1 1,0 1,-1 1,-1 1,0 1,-1 1,0 1,-1 1,0 1,-1 0,-1 -1,-1 0,0 -1,-1 -1,-1 -1,-1 -1,-1 0,-1 -1,-1 -1,-1 -1,-1 -1,-1 -1,-1 -1,-1 -1,-1 0,-1 -1,-1 -1,-1 -2,-2Z"/>
<path onmouseover="hoverPath(evt)" onmouseout="recoverPath(evt)" fill="rgb(252,251,250)" d="M  70,59l 0,-1 -1,0 -1,-1 -1,-1 -1,-1 0,-2 -1,0 -1,-1 0,-5 1,-1 1,-1 9,0 1,-1 2,0 0,-1 1,-1 1,0 1,-1 1,-1 1,-1 1,-1 1,-1 1,-1 1,-1 1,-1 1,-1 1,-1 1,0 0,-1 1,-1 1,0 1,-1 0,-2 -1,-1 0,0 -1,-1 0,-3 -1,-1 -1,1 0,0 1,1 0,-1 2,5 0,2 -2,1 -3,3 -1,1 -1,0 -1,1 -1,1 0,1 -1,1 -1,1 4,-4 -8,7 -1,1 -2,0 -1,1 -6,0 -1,-1 -1,0 -1,-1 0,-2 -1,-1 0,-1 -1,1 -1,1 -1,0 0,1 1,0 1,1 0,8 -1,1 1,0 7,8 -5,-5 0,1 14,14Z"/>
<path onmouseover="hoverPath(evt)" onmouseout="recoverPath(evt)" fill="rgb(243,242,234)" d="M  104,94l -1,1 0,2 1,1 0,1 1,1 1,1 0,1 8,0 1,1 3,0 1,-1 1,0 1,-1 2,0 1,1 1,-1 0,-2 1,-1 1,0 1,-1 1,-1 1,0 1,-1 1,-1 1,0 1,-1 1,-1 2,0 1,1 1,-1 0,0 1,-1 1,0 1,-1 1,-1 1,0 1,-1 1,-1 1,0 1,-1 1,0 1,-1 1,-1 0,-2 1,-1 1,-1 1,0 1,-1 1,-1 1,0 1,-1 0,-2 1,-1 1,-1 1,-1 -1,-1 0,-1 -1,-1 0,-1 -1,-1 0,-1 -1,0 -3,-3 -1,1 -1,0 -1,1 -1,1 -1,0 -1,1 -1,1 -1,0 -1,1 -1,1 -1,1 -1,1 -1,0 -1,1 -1,1 -1,0 -1,1 -1,0 -1,1 -1,0 -1,1 -1,1 -1,0 -1,1 -1,0 -1,1 -1,1 -1,0 -1,1 -1,1 -1,0 -1,1 -1,0 0,2 1,1 0,3 -1,1 -3,0 -1,-1 -1,-1 0,-1 -1,-1 -1,1 -1,0 -1,1 -2,0 0,1 -1,1 -1,0 -1,1 -1,1 -1,0 -1,1Z"/>
<path onmouseover="hoverPath(evt)" onmouseout="recoverPath(evt)" fill="rgb(171,198,238)" d="M  109,22l -2,0 -1,1 -1,0 0,1 2,-1 2,0 0,-1 5,-1 0,1 8,0 1,-1 12,0 1,-1 27,0 1,-1 -8,0 -1,-1 -11,0 -1,1 -12,0 -1,1 -14,0 -1,1 -1,0 -5,1Z"/>
<path onmouseover="hoverPath(evt)" onmouseout="recoverPath(evt)" fill="rgb(242,242,236)" d="M  112,246l 0,0 -1,1 -1,1 -1,1 -1,1 -1,0 0,1 1,1 1,0 1,-1 1,0 1,-1 2,0 1,1 0,-2 1,-1 1,0 2,-2 6,0 1,1 1,1 1,1 1,1 1,1 0,1 1,1 0,2 72,0 0,-1 -1,-1 0,0 -1,-1 -1,-1 -1,-1 0,-1 -1,-1 0,-1 -1,-1 0,-1 -1,-1 0,-4 1,-1 1,-1 1,0 1,-1 2,0 1,-1 1,0 1,-1 4,0 0,-1 1,-1 0,-3 -1,0 -1,1 -1,0 -1,1 -2,0 -1,-1 0,-1 -1,-1 0,-2 1,-1 0,0 -1,-1 0,-2 -1,-1 0,-1 -1,-1 0,-2 -1,-1 0,-1 -1,-1 -1,0 -1,1 -1,1 -1,1 0,8 -1,1 -3,0 -1,-1 -1,-1 0,-1 -1,-1 0,-1 -1,-1 0,-2 -1,-1 0,-3 1,-1 1,-1 1,-1 2,0 1,-1 1,0 1,-1 2,0 1,-1 1,0 0,-2 -1,-1 0,-2 -1,-1 0,-2 -1,-1 0,-2 -1,-1 0,-2 -1,-1 0,-3 -1,-1 0,-3 -1,-1 0,-2 -1,-1 0,-1 -1,-1 0,-1 -1,-1 0,-1 -1,-1 0,-1 -1,-1 0,-2 -1,-1 0,-1 -1,-1 0,-7 1,-1 2,0 1,1 0,2 1,1 0,1 1,1 0,1 1,1 0,1 1,1 5,0 0,-1 1,-1 1,-1 2,0 0,-1 -1,-1 0,-1 -1,-1 0,-1 -1,0 -1,-1 0,-4 -4,0 -1,1 -1,0 -1,1 -2,0 0,1 -75,84 70,-83 -1,1 0,2 -1,1 -4,0 -1,1 -1,0 -1,1 -2,0 -1,1 -1,0 -1,1 -2,0 -1,1 -1,0 -1,1 -2,0 -1,1 -1,0 -1,1 -2,0 -1,1 -1,0 -1,1 -2,0 -1,1 -1,0 -1,1 -2,0 3,1 0,0 1,1 0,1 1,1 0,1 1,0 1,1 1,1 1,1 0,1 1,1 1,1 0,1 1,1 0,3 -1,1 -1,0 -1,1 -3,0 -1,-1 -1,0 -1,-1 -1,-1 -1,-1 -1,-1 -1,-1 -1,-1 -1,-1 -1,-1 -1,-1 0,-1 -1,-1 0,-2 1,-1 1,-1 -1,0 -1,1 -1,0 -1,1 -2,0 -1,1 -1,0 -1,1 -1,0 -1,1 -2,0 -1,1 -1,0 -1,1 -2,0 -1,1 -1,0 -1,1 -2,0 -1,1 -1,0 -1,1 -2,0 -1,1 -1,0 -1,1 -2,0 -1,1 -1,0 -1,1 -2,0 -1,1 -1,0 -1,1 -2,0 -1,1 -1,0 -1,1 -2,0 -1,1 -1,0 -1,1 -2,0 -1,1 -2,0 -1,1 -1,0 -1,1 -2,0 -1,1 -1,0 -2,2 -8,0 -1,1 -1,0 -1,1 0,1 1,1 0,0 1,1 1,1 1,1 0,1 3,0 2,2 1,1 1,1 1,1 1,1 1,1 1,1 0,1 1,0 1,1 1,1 0,1 1,1 1,0 1,1 1,1 1,1 1,1 1,1 1,-1 1,0 1,-1 3,0 1,1 0,3 -1,1 -2,0 0,2 1,1 0,0 1,1 1,1 1,1 1,1 1,1 1,1 1,1 1,0 1,-1 0,0 1,-1 1,0 1,-1 1,-1 1,-1 1,-1 1,0 1,-1 1,0 1,-1 3,0 1,1 0,2 -1,1 -1,0 -1,1 -1,0 -1,1 -1,0 69,-82 -70,83 80,-8 -1,1 -1,0 -1,1 -2,0 -1,-1 0,-2 1,-1 1,0 1,-1 2,0 1,1 0,2 -80,8 51,-2 -2,0 -1,-1 0,-2 1,-1 2,0 1,1 0,2 -1,1 -51,2Z"/>
<path onmouseover="hoverPath(evt)" onmouseout="recoverPath(evt)" fill="rgb(212,223,237)" d="M  153,134l -1,1 0,4 -1,1 -1,0 -1,1 0,1 1,1 0,0 1,1 1,1 2,0 1,-1 0,0 1,-1 1,0 1,-1 1,-1 1,-1 0,-1 -1,-1 0,0 -1,-1 0,-2 1,-1 2,0 0,-2 1,-1 1,-1 1,0 1,-1 1,-1 1,0 1,-1 0,-1 -1,-1 -1,0 -1,1 0,0 -1,1 -1,0 -1,1 -1,1 -1,0 -1,1 -1,1 0,1 -1,1 -3,0 -1,1Z"/>
<path onmouseover="hoverPath(evt)" onmouseout="recoverPath(evt)" fill="rgb(244,243,236)" d="M  0,31l 0,13 2,0 1,1 1,1 1,1 0,-1 1,-1 0,0 1,-1 1,-1 1,0 1,-1 2,-2 1,0 2,-2 1,-1 4,0 1,1 1,1 1,1 1,1 1,1 1,1 1,1 1,1 1,1 0,1 1,0 1,-1 1,0 1,-1 1,-1 1,-1 1,0 2,-2 1,0 2,-2 1,0 1,-1 1,-1 1,0 1,-1 -1,0 -1,-1 0,0 -1,-1 -1,-1 -1,-1 -1,-1 -1,-1 -1,-1 -1,-1 -1,-1 -1,0 -1,-1 -1,-1 -1,-1 0,-1 -1,-1 0,-3 1,-1 1,-1 0,-1 -1,-1 0,-1 -1,-1 -1,-1 0,-2 -1,-1 0,-1 -1,-1 -1,-1 -1,-1 -1,-1 -1,-1 -1,-1 -1,-1 0,-1 -22,0Z"/>
<path onmouseover="hoverPath(evt)" onmouseout="recoverPath(evt)" fill="rgb(246,235,139)" d="M  0,231l 0,2 3,0 1,1 1,0 1,-1 1,0 1,-1 2,0 1,-1 2,0 1,-1 1,0 1,-1 2,0 1,-1 2,0 1,-1 1,0 1,-1 2,0 1,-1 1,0 1,-1 2,0 1,-1 1,0 1,-1 1,0 1,-1 2,0 1,-1 1,0 1,-1 2,0 1,-1 1,0 1,-1 1,0 1,-1 2,0 1,-1 1,0 1,-1 1,0 1,-1 2,0 1,-1 2,0 1,-1 0,-1 1,-1 2,0 1,-1 1,-1 1,0 1,-1 8,0 1,-1 1,-1 1,0 1,-1 2,0 1,-1 1,0 1,-1 2,0 1,-1 2,0 1,-1 1,0 1,-1 2,0 1,-1 1,0 1,-1 2,0 1,-1 1,0 1,-1 2,0 1,-1 1,0 1,-1 2,0 1,-1 1,0 1,-1 2,0 1,-1 1,0 1,-1 2,0 1,-1 1,0 1,-1 2,0 1,-1 1,0 1,-1 2,0 1,-1 1,0 1,-1 1,0 1,-1 2,0 1,-1 1,0 1,-1 2,0 1,-1 1,0 1,-1 2,0 1,-1 1,0 1,-1 2,0 1,-1 1,0 1,-1 2,0 1,-1 1,0 1,-1 2,0 1,-1 1,0 1,-1 2,0 1,-1 1,0 1,-1 2,0 1,-1 1,0 1,-1 4,0 0,-2 1,-1 1,-1 1,0 1,-1 2,0 1,-1 2,0 1,-1 1,0 1,-1 6,0 1,-1 1,0 1,-1 1,0 1,-1 4,0 1,-1 1,0 1,-1 1,-1 1,0 1,-1 2,0 1,-1 1,0 1,-1 2,0 1,-1 1,0 1,-1 2,0 1,-1 1,0 1,-1 2,0 1,-1 1,0 1,-1 2,0 1,-1 1,0 1,-1 2,0 1,-1 5,0 0,-2 1,-1 1,-1 4,0 1,1 1,1 1,1 0,1 1,0 0,-11 -2,0 -1,1 -2,0 -1,1 -2,0 -1,-1 0,2 -1,1 -1,1 -4,0 -1,-1 0,1 -1,1 -1,1 -2,0 -1,1 -1,0 -1,1 -2,0 -1,1 -1,0 -1,1 -2,0 -1,1 -1,0 -1,1 -2,0 -1,1 -1,0 -1,1 -2,0 -1,1 -1,0 -1,1 -2,0 -1,1 -1,0 -1,1 -2,0 -1,1 -1,0 -1,1 -2,0 -1,1 -1,0 -1,1 -2,0 -1,1 -1,0 -1,1 -2,0 -1,1 -1,0 -1,1 -2,0 -1,1 -1,0 -1,1 -1,0 -1,1 -2,0 -1,1 -1,0 -1,1 -2,0 -1,1 -1,0 -1,1 -2,0 -1,1 -1,0 -1,1 -2,0 -1,1 -1,0 -1,1 -2,0 -1,1 -1,0 -1,1 -2,0 -1,1 -1,0 -1,1 -2,0 -1,1 -1,0 -1,1 -2,0 -1,1 -1,0 -1,1 -2,0 -1,1 -1,0 -1,1 -2,0 -1,1 -1,0 -1,1 -6,0 -1,-1 0,2 -1,1 -1,1 -1,1 -2,0 -1,1 -1,0 -1,1 -1,0 -1,1 -2,0 -1,1 -1,0 -1,1 -2,0 -1,1 -1,0 -1,1 -2,0 -1,1 -1,0 -1,1 -2,0 0,2 -1,1 -2,0 -1,1 -1,0 -1,1 -2,0 -1,1 -1,0 -1,1 -2,0 -1,1 -1,0 -1,1 -2,0 -1,1 -1,0 -1,1 -3,0 -1,-1 -1,0 0,1 -1,1 -1,1 -6,0 0,2 -1,1 -2,0 -1,1 -1,1 -2,0 -1,-1 -1,0 -1,1 -1,0 -1,1 -2,0 -1,1 -1,0 -1,1 -1,0 -1,1 -2,0 -1,1 -1,0 -1,1 -1,0 -1,1 -2,0 -1,1 -1,0 -1,1 -1,0 -1,1 -2,0 -1,1 -1,0 -1,1 -2,0 -1,1 -2,0 -1,1 -1,0 -1,1 -2,0 -1,1 -2,0 -1,1 -1,0 -1,1 -2,0 -1,1 -2,0 -1,1 -2,0Z"/>
<path onmouseover="hoverPath(evt)" onmouseout="recoverPath(evt)" fill="rgb(235,237,235)" d="M  35,133l 0,0 -1,1 -1,0 -1,1 -1,0 0,2 -1,1 -2,0 -1,-1 0,-1 -1,-1 -2,-2 -1,-1 0,-2 -1,0 -1,-1 -2,-2 -1,-1 0,-2 -1,0 -1,-1 -1,-1 -1,-1 -1,-1 4,5 0,1 5,5 0,1 5,6 0,1 -1,1 -2,0 3,1 0,0 1,1 0,1 1,1 1,1 2,0 1,1 0,2 1,-1 1,-1 1,0 1,-1 3,0 1,-1 0,-2 1,-1 2,0 1,1 1,-1 0,-2 1,-1 1,0 1,-1 2,0 1,1 1,-1 1,0 1,-1 0,-2 1,-1 1,0 1,-1 2,0 1,1 1,-1 1,0 1,-1 0,-2 1,-1 2,0 1,1 1,-1 0,-2 1,-1 2,0 1,1 1,-1 0,-2 1,-1 1,0 1,-1 1,0 1,-1 1,-1 1,0 1,-1 2,0 1,1 2,0 1,1 1,1 -1,-2 0,-2 1,-1 1,-1 1,0 1,-1 1,-1 1,-1 1,0 1,-1 1,-1 1,0 1,-1 1,-1 -1,-1 0,-3 1,-1 0,-1 -1,-1 0,-1 -2,0 -1,1 -4,0 -1,-1 -1,0 -1,-1 -1,-1 -1,-1 -1,-1 3,4 0,1 -1,1 -1,0 -2,2 -1,0 -1,1 -1,0 0,1 -1,1 -2,0 -1,1 -4,4 -1,1 -1,0 -1,1 -1,0 -1,1 -1,1 -1,0 -1,1 -1,0 -1,1 -2,0 -1,1 -1,1 -1,1 -1,1 -1,0 -1,1 -1,0 -1,1 -2,0 -1,1 -1,1 -3,0 -1,1 -1,0 -1,1 -2,0 -1,1 -1,0 -1,1 -1,1 -1,0 -1,1 -1,1 -3,16 -1,1 -1,1 2,-1 1,-1 -1,0 3,-16Z"/>
<path onmouseover="hoverPath(evt)" onmouseout="recoverPath(evt)" fill="rgb(174,199,237)" d="M  62,27l 0,0 -1,1 -6,0 1,1 0,2 -1,1 -1,1 0,1 2,0 1,1 0,2 -1,1 -1,1 -1,1 -1,0 1,1 1,0 1,1 0,2 1,1 1,1 1,1 0,2 -1,1 -1,1 0,3 1,-1 0,0 1,-1 1,0 0,-2 1,-1 0,-6 -1,0 -1,-1 0,-3 1,-1 1,0 1,-1 1,-1 2,0 1,1 0,1 1,1 0,2 1,0 1,1 4,0 1,-1 2,0 1,-1 1,0 1,-1 1,-1 1,-1 1,-1 0,-1 1,-1 1,-1 0,-1 -1,-1 -1,-1 -1,-1 -1,-1 0,-1 -1,-1 -3,0 -1,1 0,0 -1,1 -4,0 -1,-1 0,-2 1,-1 1,-1 1,0 1,-1 1,-1 1,0 1,-1 1,-1 1,0 1,-1 1,-1 1,0 1,-1 1,-1 1,0 1,-1 1,-1 1,0 1,-1 1,-1 1,0 1,-1 2,-2 1,0 1,-1 1,-1 1,-1 1,0 1,-1 1,-1 1,-1 1,0 0,-2 -5,0 0,2 -1,1 -1,1 -1,1 -1,0 -1,1 -1,1 -1,0 -1,1 -1,1 -1,0 -1,1 -1,1 -1,1 -1,0 -1,1 -1,1 -1,0 -1,1 -1,1 -1,0 -1,1 -1,1 -1,1 -1,0 -1,1 -1,1 -1,0 -2,2 -1,1 -1,0 -1,1 -1,1 -1,1Z"/>
<path onmouseover="hoverPath(evt)" onmouseout="recoverPath(evt)" fill="rgb(241,241,235)" d="M  76,78l 0,0 -1,1 -2,0 -1,-1 0,1 -1,1 -1,1 3,0 1,1 1,1 1,1 1,1 1,1 0,1 1,1 0,1 1,0 1,1 1,1 1,1 1,1 0,1 3,0 1,1 1,1 1,1 1,1 1,0 1,1 2,0 1,-1 4,0 1,1 0,-2 -1,-1 0,-2 1,-1 1,0 1,-1 1,-1 1,0 1,-1 1,-1 1,0 0,-4 1,-1 2,0 0,-1 1,-1 1,0 1,-1 1,0 1,-1 1,0 1,-1 0,-1 -1,-1 0,-4 1,-1 2,0 1,-1 2,0 1,-1 3,0 1,1 2,0 1,-1 1,0 1,-1 1,0 1,-1 1,0 1,-1 1,-1 1,-1 1,0 1,-1 1,-1 1,-1 1,0 1,-1 1,0 1,-1 1,0 1,-1 1,0 -1,-1 0,-1 -1,-1 0,-1 -1,-1 -1,-1 -1,-1 0,-1 -1,-1 -2,-2 -1,-1 -1,-1 0,-1 -1,-1 -1,-1 0,-1 -1,0 -1,1 -2,0 -1,-1 -1,1 -1,0 -1,1 -1,1 -1,0 -1,1 0,2 -1,1 -1,0 -1,1 -1,0 -1,1 -1,1 -2,0 -1,-1 -1,1 -1,0 -1,1 0,2 -1,1 -2,0 -1,-1 -1,1 0,2 -1,1 -2,0 -1,-1 -1,1 0,2 -1,1 -2,0 -1,-1 -1,1 0,2 -1,1 -2,0 -1,-1 -1,1 0,2 -1,1 -2,0 -1,-1 -1,1 0,2 -1,1 -2,0 -1,-1 -1,1 -5,0 0,2 -1,1 -1,1 -1,1 -1,0 0,2 26,21 -1,1 0,0 1,1 0,3 -1,1 0,1 1,1 0,-2 1,-2 1,0 0,-1 -1,-1 0,0 -1,-1 0,-1 -26,-21Z"/>
<path onmouseover="hoverPath(evt)" onmouseout="recoverPath(evt)" fill="rgb(199,215,238)" d="M  93,238l 0,-2 1,-1 -1,0 -1,1 -2,0 -1,-1 -1,-1 -1,-1 -1,-1 -1,-1 -1,0 -1,-1 -1,-1 0,-1 -1,-1 -1,0 -1,-1 0,-1 -1,-1 -1,-1 -1,-1 -1,-1 -1,-1 -1,-1 -1,-1 -3,0 -1,-1 0,-1 -1,-1 -1,-1 -1,-1 -1,-1 0,-1 -1,0 1,2 0,1 1,0 1,1 1,1 1,2 0,1 1,0 1,1 0,3 -1,1 -5,0 -1,1 -1,0 -1,1 -1,0 -1,1 -1,0 -2,2 1,1 1,0 1,-1 5,0 1,1 6,0 1,1 1,1 1,1 1,0 0,-1 -1,-1 -1,-1 0,-2 1,-1 2,0 1,1 1,1 1,1 3,3 1,1 0,2 2,0 1,1 0,2 1,0 1,1 1,1 1,1 0,1 1,1 0,3 1,1 0,3 1,1 0,3 36,0 0,-1 -1,-1 0,-1 -1,-1 -1,-1 -1,-1 -1,-1 -4,0 -1,1 0,0 -1,1 -1,0 0,2 -1,1 -2,0 -1,-1 -1,1 -1,0 -1,1 -3,0 -1,-1 -1,-1 0,-3 1,-1 1,0 1,-1 -1,0 2,-1 2,-2 1,-1 1,0 1,-1 1,0 1,-1 1,0 -13,8 -2,0 -1,-1 -1,-1 -1,-1 -1,-1 -1,-1 -1,-1 -1,-1 -1,-1 -1,-1 0,-2 2,-3 1,0 0,-1 -1,0 0,1 -2,3Z"/>
<path onmouseover="hoverPath(evt)" onmouseout="recoverPath(evt)" fill="rgb(238,239,235)" d="M  94,23l 0,1 1,1 1,1 0,4 -1,1 -1,1 -1,0 0,1 1,0 1,1 0,2 -1,1 0,1 1,1 0,0 1,1 3,0 1,-1 0,-2 -1,-1 0,0 -1,-1 -1,0 -1,-1 0,-3 1,-1 0,0 1,-1 1,-1 1,0 1,-1 1,-1 1,0 0,-4 1,-1 1,0 1,-1 2,0 1,-1 5,0 1,-1 14,0 1,-1 12,0 1,-1 13,0 1,1 8,0 1,1 0,1 1,0 1,1 1,-1 0,0 1,-1 2,-2 0,-1 5,-5 1,-1 1,-1 0,-1 2,-2 1,-1 1,-1 0,-3 -79,0 0,3 -1,1 -1,0 -1,1 -1,1 -1,1 -1,0 -1,1 -1,1 -1,1 -1,0 -2,2 -1,1 -1,0 -1,1 -1,1 -1,0 -1,1 -1,1 -1,0 -2,2 -1,0 -1,1 -1,1 -1,0 -1,1 -1,1 -1,0 -1,1 -1,1 -1,0 -1,1 2,0 1,-1 0,0 1,-1 5,0 1,1 1,1 0,1 1,1 1,1 1,1 1,1 0,1 1,-1 1,-1 1,-1 1,-1 1,0 0,-1 -1,-1 0,-1 -1,-1 -1,-1 0,-2 2,-2 2,0 1,1 1,1 0,2 2,-2 0,0 1,-1 1,0 1,-1 1,0 1,-1 -5,3 -2,2 0,-6 1,0 1,-1 1,0 1,-1 2,0 1,1 0,0 -7,1 0,6 13,-9 -1,-1 0,-2 1,-1 1,0 1,-1 2,0 1,1 0,2 -1,1 -1,0 -1,1 -2,0 -13,9Z"/>
<path onmouseover="hoverPath(evt)" onmouseout="recoverPath(evt)" fill="rgb(176,201,237)" d="M  110,87l 1,0 1,-1 1,0 1,-1 2,0 1,1 1,1 0,1 1,1 1,0 0,-1 -1,-1 0,-4 1,-1 1,0 1,-1 1,0 1,-1 1,-1 1,0 2,-2 1,0 1,-1 1,0 2,-2 1,0 1,-1 1,0 1,-1 1,0 1,-1 1,-1 1,0 1,-1 1,-1 1,-1 1,-1 1,0 2,-2 1,0 1,-1 1,-1 1,0 1,-1 2,0 2,2 1,1 1,0 1,1 0,1 1,1 0,1 1,1 0,1 1,1 0,2 -2,2 -1,1 3,-2 0,0 1,-2 2,0 0,-2 -1,-1 0,0 -1,-1 0,-5 1,-1 0,-1 1,-1 1,-1 0,-1 -1,1 -1,1 -1,1 -2,2 -3,0 -1,-1 -1,-1 -1,0 1,1 0,0 1,1 -48,24 44,-27 0,-1 -1,-1 0,-1 -1,-1 0,-1 -1,-1 0,-2 -1,-1 0,-1 -1,-1 -1,-1 0,-1 -1,-1 -1,-1 0,-1 -1,-1 0,-1 -1,-1 -1,-1 0,-1 -1,-1 -1,-1 0,-2 -1,0 -1,1 0,0 -1,1 -1,1 0,1 -1,1 -1,1 2,-1 2,0 1,1 0,1 2,2 0,1 1,1 1,1 1,1 1,1 1,1 0,1 1,1 1,1 1,1 0,1 1,1 0,1 1,1 0,2 -1,1 -1,0 -1,1 -1,0 -1,1 -1,0 -1,1 -1,0 -1,1 -2,2 -1,0 -2,2 -1,1 -1,0 -1,1 -1,0 -1,1 -1,0 -1,1 -4,0 -1,-1 -1,0 -1,1 -2,0 -1,1 -2,0 0,2 1,1 0,3 -1,1 -1,1 -1,0 -1,1 -1,0 -1,1 -1,0 0,1 41,-25 -44,27Z"/>
<path onmouseover="hoverPath(evt)" onmouseout="recoverPath(evt)" fill="rgb(172,198,237)" d="M  188,215l 0,0 -1,1 0,1 1,1 0,2 1,1 0,1 1,1 0,1 1,1 1,0 0,-8 1,-1 1,-1 1,-1 1,-1 3,0 1,1 1,1 0,1 1,1 0,2 1,1 0,1 1,1 0,2 1,0 -1,-3 -1,-2 -1,-3 0,-3 2,-2 5,0 1,1 1,0 1,1 0,1 1,1 0,1 1,1 0,1 1,1 1,0 0,-3 -1,0 -1,-1 0,-1 -1,-1 0,-1 -1,-1 0,-1 -10,0 -1,-1 -1,-1 0,-2 -1,-1 -1,-1 0,-2 -1,-1 0,-4 -1,-1 0,-2 -1,-1 0,-5 1,-1 0,-1 -1,0 -1,1 -1,0 0,2 1,1 0,3 1,1 0,2 1,1 0,2 -8,16 8,-3 -2,0 -1,1 -1,0 -1,1 -2,0 7,-2 -8,3 9,-4 1,0 1,-1 0,0 -2,1 -9,4Z"/>
<path onmouseover="hoverPath(evt)" onmouseout="recoverPath(evt)" fill="rgb(239,239,235)" d="M  204,37l 0,0 -1,1 -1,0 -1,1 1,1 0,1 1,1 0,1 1,1 1,1 1,1 1,1 1,1 1,1 1,1 1,1 1,1 1,0 1,1 0,1 1,1 1,1 0,1 1,0 1,1 0,1 1,1 1,1 1,1 1,1 1,1 1,1 1,1 1,1 1,1 1,0 1,1 0,1 1,1 0,1 1,0 1,-1 2,0 1,1 1,-1 0,-2 1,-1 1,-1 1,0 1,-1 1,-1 2,0 1,1 1,-1 0,0 1,-1 1,0 1,-1 1,-1 1,0 1,-1 1,-1 1,-1 2,0 0,-35 -1,0 -1,1 0,0 -1,1 -1,1 -1,1 -5,0 -1,-1 -1,-1 -2,0 -1,-1 -1,0 -1,-1 -1,0 -1,-1 -1,-1 -2,0 -1,-1 -1,-1 -3,-3 -1,-1 0,1 1,1 0,0 1,1 0,4 -1,1 -1,1 -1,1 -1,0 -1,1 -1,0 -1,1 -2,0 -1,1 -1,0 -1,1 -1,0 -1,1 -1,0 -1,1 -1,0 -1,1 -1,0 -1,1 -1,1 -1,0 -1,1 -1,0 -1,1Z"/>
<path onmouseover="hoverPath(evt)" onmouseout="recoverPath(evt)" fill="rgb(237,238,235)" d="M  225,103l 0,1 1,1 1,1 1,0 1,1 0,2 1,1 1,-1 5,0 1,1 1,1 1,1 1,1 0,1 1,1 0,2 -1,1 -3,0 1,1 0,0 1,1 1,1 0,1 1,1 1,1 1,1 1,0 1,1 0,1 2,0 1,1 1,-1 2,0 1,-1 3,0 0,-65 -1,0 -1,1 -1,1 -1,1 -1,0 -1,1 -1,1 -1,0 -1,1 -1,1 -2,0 -1,-1 -1,1 -1,1 -1,0 -1,1 0,2 -1,1 -1,1 -2,0 -1,-1 -1,1 -3,0 0,2 -1,1 -1,1 -1,0 -1,1 -1,1 -2,0 0,1 -1,1 -1,1 -1,1 -1,0 -1,1 -1,1 -1,1 -1,0 -1,1 0,4 1,-1 2,0 1,1 1,1 0,2 1,1 1,1 1,1 0,1 1,1 1,1 1,0 1,1Z"/>
</svg>