<svg width="256" height="256" xmlns="http://www.w3.org/2000/svg"><script> 
var tempColor;
function hoverPath(evt){
obj = evt.target;
tempColor = obj.getAttribute("fill");
obj.setAttribute("fill","red");
//alert(tempColor);
//obj.setAttribute("stroke","red");}
function recoverPath(evt){
obj = evt.target;
obj.setAttribute("fill", tempColor);
//obj.setAttribute("stroke", tempColor);
}</script><path onmouseover="hoverPath(evt)" onmouseout="recoverPath(evt)" fill="rgb(244,243,236)" d="M  0,224l 0,31 197,0 0,-1 -1,-1 0,-4 -1,-1 0,-3 -1,-1 0,-3 -1,-1 -1,-1 0,-3 -1,-1 0,-3 -1,-1 0,-3 -1,-1 0,-3 -1,-1 0,-5 -1,-1 -1,-1 0,-5 -1,-1 -1,-1 0,-5 -1,-1 -1,-1 0,-2 -1,-1 0,-5 -1,-1 -1,-1 0,-3 -1,0 -1,-1 0,-1 -1,-1 0,-1 -1,0 -1,1 -4,0 -1,1 0,3 -1,1 -4,0 -1,-1 -2,0 -3,3 -3,0 -1,-1 0,-1 -1,-1 -1,0 -1,1 -1,0 0,3 -1,1 -4,0 -1,-1 -2,0 -1,1 -1,0 0,1 -1,1 -3,0 -1,-1 0,-1 -1,-1 -2,0 -1,1 -1,0 0,3 -1,1 -3,0 -1,-1 -1,-1 0,2 -1,1 -4,0 -1,-1 0,-2 -1,1 -4,0 -1,1 -1,0 0,3 -1,1 -4,0 -1,-1 -1,-1 0,2 -1,1 -1,1 -2,0 -1,-1 0,-3 -2,0 -1,1 -3,0 -1,1 -1,0 0,1 -1,1 -3,0 -1,-1 -2,0 0,1 -1,1 -3,0 -1,-1 -2,0 -1,1 -4,0 -1,1 -4,0 -1,1 -3,0 0,1 -1,1 -2,0 -1,-1 -3,0 -1,1 -3,0 -1,1 -4,0 -1,1 -4,0 -1,1 -5,0 -1,1 -3,0 -1,1 -4,0 -1,1 -4,0 -1,1 -5,0 -1,1 -2,0 0,3 -1,1 -1,0 -1,1 -3,0 -1,-1 0,-1 -1,-1 -2,0 0,1 -1,1 -2,0Z"/>
<path onmouseover="hoverPath(evt)" onmouseout="recoverPath(evt)" fill="rgb(244,243,236)" d="M  167,70l -1,0 0,3 1,1 0,0 1,1 0,6 1,1 1,1 0,3 1,1 0,5 1,1 0,3 1,1 1,1 0,3 1,1 0,5 1,1 0,3 1,1 1,1 0,3 1,1 0,4 1,1 0,4 1,1 1,1 0,3 1,1 0,3 1,1 0,5 1,1 1,1 0,3 1,1 0,3 1,1 0,3 1,1 0,3 1,1 0,3 1,1 0,5 1,1 0,3 1,1 1,1 0,3 1,1 0,5 2,0 0,-1 1,-1 2,0 1,1 3,0 0,-1 1,-1 1,-1 1,0 0,-1 1,-1 2,0 1,-1 6,0 1,1 0,2 2,0 1,-1 5,0 0,-4 1,-1 4,0 1,-1 5,0 1,1 0,2 3,0 1,-1 4,0 1,-1 5,0 1,-1 2,0 0,-119 -2,0 -1,1 -3,0 -1,1 -5,0 -1,1 -4,0 -1,1 -4,0 -1,1 -4,0 -1,1 -5,0 -1,1 -4,0 -1,1 -4,0 -1,1 -4,0 -1,1 -5,0 -1,1 -4,0 -1,1 -4,0 -1,1 -5,0 -1,1 -4,0 -1,1 -4,0 -1,1 -5,0 -1,1Z"/>
<path onmouseover="hoverPath(evt)" onmouseout="recoverPath(evt)" fill="rgb(244,243,236)" d="M  0,41l 0,46 2,0 1,-1 5,0 1,-1 5,0 1,-1 5,0 1,-1 2,0 0,-1 -1,-1 0,-2 -1,-1 0,-4 -1,-1 0,-2 -1,-1 0,-3 -1,-1 0,-3 -1,-1 0,-3 -1,-1 0,-3 -1,-1 0,-4 -1,-1 0,-2 -1,-1 0,-3 -1,-1 0,-3 -1,-1 0,-2 1,-1 0,-1 -1,-1 0,-2 -1,0 -1,-1 0,-4 -1,-1 0,-3 -1,-1 0,-3 -1,-1 0,-3 -1,-1 0,-3 -1,-1 0,-3 -1,-1 0,-5 -3,0Z"/>
<path onmouseover="hoverPath(evt)" onmouseout="recoverPath(evt)" fill="rgb(247,236,138)" d="M  0,91l 0,4 2,0 1,-1 5,0 1,-1 5,0 1,-1 5,0 1,-1 7,0 1,1 1,0 1,1 1,-1 11,0 1,-1 2,0 1,-1 2,0 1,1 1,0 1,1 4,0 1,-1 1,0 1,-1 0,-1 1,-1 3,0 1,-1 4,0 1,-1 4,0 1,-1 4,0 1,-1 5,0 1,-1 4,0 1,-1 4,0 1,-1 4,0 1,-1 5,0 1,-1 4,0 1,-1 4,0 1,-1 4,0 1,-1 5,0 1,-1 4,0 1,-1 4,0 1,-1 4,0 1,-1 4,0 1,-1 0,-4 -1,-1 0,-1 -1,-1 0,-1 -4,0 -1,1 -4,0 -1,1 -4,0 -1,1 -4,0 -1,1 -5,0 -1,1 -4,0 -1,1 -4,0 -1,1 -4,0 -1,1 -4,0 -1,1 -4,0 -1,1 -5,0 -1,1 -4,0 -1,1 -4,0 -1,1 -4,0 -1,1 -4,0 -1,1 -4,0 -1,1 -5,0 -1,1 -4,0 -1,1 -4,0 -1,1 -6,0 -1,1 -6,0 -1,-1 0,-1 -1,-1 0,-3 -1,-1 0,-3 -1,-1 0,-4 -1,-1 0,-2 -1,-1 0,-3 -1,-1 0,-3 -1,-1 0,-3 -1,-1 0,-3 -1,-1 0,-4 -1,-1 0,-2 -1,-1 0,-4 1,-1 -2,0 -1,-1 0,-5 -1,-1 0,-4 -1,-1 0,-2 -1,-1 0,-4 -1,-1 0,-3 -1,-1 0,-3 -1,-1 0,-3 -1,-1 0,-3 -8,0 0,4 1,1 0,3 1,1 0,3 1,1 0,3 1,1 0,3 1,1 0,3 1,1 0,4 1,0 1,1 0,2 1,1 0,3 -1,1 1,1 0,3 1,1 0,3 1,1 0,2 1,1 0,4 1,1 0,3 1,1 0,3 1,1 0,3 1,1 0,3 1,1 0,2 1,1 0,4 1,1 0,2 1,1 0,3 -1,1 -2,0 -1,1 -5,0 -1,1 -5,0 -1,1 -5,0 -1,1 -3,0Z"/>
<path onmouseover="hoverPath(evt)" onmouseout="recoverPath(evt)" fill="rgb(244,243,236)" d="M  1,97l -1,0 0,123 1,0 0,-1 1,-1 4,0 1,1 1,1 0,1 1,0 1,-1 1,0 0,-3 1,-1 2,0 1,-1 5,0 1,-1 4,0 1,-1 4,0 1,-1 3,0 1,-1 5,0 1,-1 4,0 1,-1 4,0 1,-1 3,0 1,-1 5,0 1,1 0,-1 1,-1 3,0 1,-1 4,0 1,-1 4,0 1,-1 4,0 1,1 1,0 0,-1 1,-1 4,0 1,1 1,0 0,-1 1,-1 1,0 1,-1 3,0 1,-1 4,0 1,1 0,3 1,-1 0,-3 1,-1 2,0 1,1 0,1 1,1 2,0 0,-3 1,-1 1,0 1,-1 4,0 1,-1 2,0 1,1 0,2 2,0 0,-3 1,-1 2,0 1,1 0,1 1,1 1,0 0,-3 1,-1 1,0 1,-1 4,0 1,1 1,1 0,1 1,0 0,-1 1,-1 1,0 1,-1 4,0 1,1 2,0 0,-3 1,-1 1,0 1,-1 3,0 1,1 1,1 0,1 1,0 1,-1 0,0 1,-1 1,-1 4,0 1,1 2,0 0,-3 1,-1 1,-1 4,0 1,-1 3,0 0,-2 -1,-1 0,-3 -1,-1 0,-3 -1,-1 0,-3 -1,-1 0,-3 -1,-1 0,-4 -1,-1 0,-4 -1,-1 -1,-1 0,-3 -1,-1 0,-3 -1,-1 0,-5 -1,-1 0,-3 -1,-1 -1,-1 0,-3 -1,-1 0,-4 -1,-1 0,-4 -1,-1 0,-3 -1,-1 -1,-1 0,-3 -1,-1 0,-3 -1,-1 0,-5 -1,-1 0,-3 -1,-1 -1,-1 0,-3 -1,-1 0,-5 -1,-1 -1,-1 0,-3 -1,-1 0,-5 -1,-1 -1,-1 0,-1 -1,1 -4,0 -1,1 -4,0 -1,1 -4,0 -1,1 -4,0 -1,1 -5,0 -1,1 -4,0 -1,1 -4,0 -1,1 -4,0 -1,1 -5,0 -1,1 -4,0 -1,1 -4,0 -1,1 -4,0 -1,1 -5,0 -1,1 -4,0 -1,1 -4,0 -1,1 -4,0 -1,1 -3,0 0,1 -1,1 -1,1 -1,0 -1,1 -6,0 -1,-1 -1,0 -1,-1 -1,1 -2,0 -1,1 -11,0 -1,1 -2,0 -1,-1 -1,0 -1,-1 -5,0 -1,1 -5,0 -1,1 -5,0 -1,1 -5,0 -1,1Z"/>
<path onmouseover="hoverPath(evt)" onmouseout="recoverPath(evt)" fill="rgb(243,242,234)" d="M  15,1l 0,1 1,1 0,3 1,1 0,3 1,1 0,3 1,1 0,4 1,1 0,2 1,1 0,4 1,1 0,1 5,0 1,-1 4,0 1,-1 5,0 1,-1 5,0 1,-1 4,0 1,-1 5,0 1,-1 4,0 1,-1 5,0 1,-1 4,0 1,-1 4,0 1,-1 5,0 1,-1 4,0 1,-1 4,0 1,-1 4,0 1,-1 4,0 1,-1 5,0 1,-1 4,0 1,-1 5,0 1,-1 3,0 0,-3 -1,-1 0,-3 -1,-1 0,-3 -105,0 -1,1Z"/>
<path onmouseover="hoverPath(evt)" onmouseout="recoverPath(evt)" fill="rgb(244,243,235)" d="M  24,37l 0,2 1,1 0,2 1,1 0,4 1,1 0,3 1,1 0,3 1,1 0,3 1,1 0,3 1,1 0,2 1,1 0,4 1,1 0,3 1,1 0,3 1,1 0,1 4,0 1,-1 6,0 1,-1 4,0 1,-1 4,0 1,-1 5,0 1,-1 4,0 1,-1 4,0 1,-1 4,0 1,-1 4,0 1,-1 4,0 1,-1 5,0 1,-1 4,0 1,-1 4,0 1,-1 4,0 1,-1 4,0 1,-1 4,0 1,-1 5,0 1,-1 4,0 1,-1 4,0 1,-1 4,0 1,-1 4,0 0,-5 -1,-1 0,-6 1,-1 -1,0 -1,-1 0,-2 -1,-1 0,-3 -1,-1 -1,-1 0,-4 -1,-1 0,-3 -1,-1 0,-2 -1,-1 0,-3 -1,-1 0,-5 -1,-1 0,-3 -1,-1 -1,-1 0,-3 -1,-1 0,-4 -1,-1 0,-1 -1,-1 0,-1 -1,0 0,2 -1,1 0,1 1,1 1,0 1,1 0,3 -1,1 0,1 1,1 0,7 -1,1 -2,0 -1,-1 0,-2 -1,-1 -3,0 -1,1 -4,0 -1,1 -5,0 -1,1 -4,0 -1,1 -5,0 -1,1 -4,0 -1,1 -4,0 -1,1 -4,0 -1,1 -4,0 -1,1 -5,0 -1,1 -4,0 -1,1 -4,0 -1,1 -5,0 -1,1 -4,0 -1,1 -5,0 -1,1 -4,0 -1,1 -5,0 -1,1 -5,0 -1,1 -4,0 0,2 -1,1Z"/>
<path onmouseover="hoverPath(evt)" onmouseout="recoverPath(evt)" fill="rgb(253,253,252)" d="M  128,16l 0,-3 -1,-1 0,-3 1,-1 0,-1 -1,0 -2,-2 0,-3 1,-1 0,-1 -3,0 0,2 1,1 0,3 1,1 0,5 -1,1 -3,0 -1,1 -5,0 -1,1 -4,0 -1,1 -5,0 -1,1 -4,0 -1,1 -4,0 -1,1 -4,0 -1,1 -4,0 -1,1 -5,0 -1,1 -4,0 -1,1 -4,0 -1,1 -5,0 -1,1 -4,0 -1,1 -5,0 -1,1 -4,0 -1,1 -5,0 -1,1 -5,0 -1,1 -4,0 -1,1 -6,0 0,2 1,0 1,-1 4,0 1,-1 5,0 1,-1 5,0 1,-1 4,0 1,-1 5,0 1,-1 4,0 1,-1 5,0 1,-1 4,0 1,-1 4,0 1,-1 5,0 1,-1 4,0 1,-1 4,0 1,-1 4,0 1,-1 4,0 1,-1 5,0 1,-1 4,0 1,-1 5,0 1,-1 4,0 1,-1 5,0 1,1 1,1Z"/>
<path onmouseover="hoverPath(evt)" onmouseout="recoverPath(evt)" fill="rgb(182,142,237)" d="M  133,0l -2,0 1,1 0,1 1,1 0,4 1,1 0,3 1,1 1,1 0,3 1,1 0,5 1,1 0,3 1,1 0,2 1,1 0,3 1,1 0,4 1,1 1,1 0,3 1,1 0,2 1,0 1,1 0,2 -1,1 0,4 1,1 0,6 1,1 0,1 1,1 0,1 1,1 0,5 1,1 0,1 1,1 1,1 0,5 1,1 0,3 1,1 1,1 0,5 1,1 0,3 1,1 1,1 0,3 1,1 0,5 1,1 0,3 1,1 0,3 1,1 1,1 0,3 1,1 0,4 1,1 0,4 1,1 0,3 1,1 1,1 0,3 1,1 0,5 1,1 0,3 1,1 0,3 1,1 1,1 0,4 1,1 0,4 1,1 0,3 1,1 0,3 1,1 0,3 1,1 0,3 1,1 0,2 1,1 0,3 -1,1 1,0 1,1 0,3 1,1 1,1 0,5 1,1 0,2 1,1 1,1 0,5 1,1 1,1 0,5 1,1 1,1 0,5 1,1 0,3 1,1 0,3 1,1 0,3 1,1 0,3 1,1 1,1 0,3 1,1 0,3 1,1 0,4 1,1 0,2 13,0 0,-3 -1,-1 0,0 -1,-1 0,-3 -1,-1 0,-4 -1,-1 0,-4 -1,-1 0,-3 -1,-1 0,-3 -1,-1 -1,-1 0,-3 -1,-1 0,-4 -1,-1 0,-4 -1,-1 0,-3 -1,-1 0,-3 -1,-1 0,-3 -1,-1 -1,-1 0,-6 -1,-1 0,-3 -1,-1 -1,-1 0,-3 -1,-1 0,-5 -1,-1 0,-3 -1,-1 -1,-1 0,-3 -1,-1 0,-5 -1,-1 0,-3 -1,-1 0,-3 -1,-1 0,-3 -1,-1 0,-3 -1,-1 0,-3 -1,-1 -1,-1 0,-5 -1,-1 0,-3 -1,-1 0,-3 -1,-1 -1,-1 0,-4 -1,-1 0,-4 -1,-1 0,-3 -1,-1 -1,-1 0,-3 -1,-1 0,-5 -1,-1 0,-3 -1,-1 -1,-1 0,-3 -1,-1 0,-5 -1,-1 0,-3 -1,-1 -1,-1 0,-6 -1,-1 -1,-1 0,-6 -1,-1 0,-3 -1,-1 0,-4 -1,-1 0,-1 -1,-1 0,-3 -1,-1 -1,-1 0,-3 -1,-1 0,-5 -1,-1 0,-3 -1,-1 0,-3 -1,-1 -1,-1 0,-5 -1,-1 0,-3 -1,-1 0,-3 -1,-1 0,-3 -1,-1 0,-3 -1,-1 0,-3 -1,-1 -1,-1 0,-5Z"/>
<path onmouseover="hoverPath(evt)" onmouseout="recoverPath(evt)" fill="rgb(243,242,234)" d="M  148,1l 0,3 1,1 1,1 0,3 1,1 0,3 1,1 0,3 1,1 0,3 1,1 0,3 1,1 0,5 1,1 1,1 0,3 1,1 0,3 1,1 0,5 1,1 0,3 1,1 1,1 0,3 1,1 0,1 2,0 1,-1 4,0 1,-1 4,0 0,-3 -1,-1 0,-1 -1,-1 -2,0 -1,-1 0,-2 -1,-1 0,-3 -1,-1 0,-5 1,-1 0,-3 -1,-1 0,-2 -2,0 -1,-1 0,-2 -1,-1 0,-3 -1,-1 0,-3 -1,-1 0,-2 -1,-1 0,-5 1,-1 0,-2 -1,-1 0,-5 -12,0 -1,1Z"/>
<path onmouseover="hoverPath(evt)" onmouseout="recoverPath(evt)" fill="rgb(248,238,148)" d="M  164,61l 0,1 1,1 0,3 1,1 0,1 1,0 1,-1 5,0 1,-1 4,0 1,-1 4,0 1,-1 5,0 1,-1 4,0 1,-1 4,0 1,-1 5,0 1,-1 4,0 1,-1 4,0 1,-1 4,0 1,-1 5,0 1,-1 4,0 1,-1 4,0 1,-1 4,0 1,-1 5,0 1,-1 3,0 1,-1 3,0 0,-9 -5,0 -1,-1 -3,0 -1,1 -4,0 -1,1 -5,0 -1,1 -4,0 -1,1 -5,0 -1,1 -5,0 -1,1 -4,0 -1,1 -5,0 -1,1 -5,0 -1,1 -4,0 -1,1 -4,0 -1,1 -5,0 -1,1 -7,0 0,3 -1,1 -4,0 -1,1 -4,0 -1,1 -2,0Z"/>
<path onmouseover="hoverPath(evt)" onmouseout="recoverPath(evt)" fill="rgb(244,243,235)" d="M  164,0l -1,0 0,4 1,1 0,4 -1,1 0,3 1,1 0,2 1,1 0,3 1,1 0,3 1,1 0,2 2,0 1,1 0,2 1,1 0,5 -1,1 0,3 1,1 0,3 1,1 0,2 2,0 1,1 1,1 0,1 1,1 6,0 1,-1 5,0 1,-1 4,0 1,-1 4,0 1,-1 5,0 1,-1 5,0 1,-1 4,0 1,-1 5,0 1,-1 5,0 1,-1 4,0 1,-1 5,0 1,-1 4,0 1,-1 5,0 1,1 4,0 0,-40Z"/>
<path onmouseover="hoverPath(evt)" onmouseout="recoverPath(evt)" fill="rgb(244,243,236)" d="M  197,185l -1,0 0,2 1,1 0,0 1,1 0,3 1,1 0,6 1,1 1,1 0,3 1,1 0,3 1,1 0,3 1,1 0,4 1,1 0,4 1,1 0,3 1,1 1,1 0,3 1,1 0,3 1,1 0,4 1,1 0,4 1,1 0,3 1,1 1,1 0,4 41,0 0,-81 -1,0 -1,1 -5,0 -1,1 -4,0 -1,1 -5,0 -1,-1 0,-2 -3,0 -1,1 -4,0 0,4 -1,1 -5,0 -1,1 -4,0 -1,-1 0,-2 -4,0 -1,1 -2,0 0,1 -1,1 -1,0 -1,1 0,1 -1,1 -5,0 -1,-1 0,1 -1,1Z"/>
</svg>