<svg width="256" height="256" xmlns="http://www.w3.org/2000/svg"><script> 
var tempColor;
function hoverPath(evt){
obj = evt.target;
tempColor = obj.getAttribute("fill");
obj.setAttribute("fill","red");
//alert(tempColor);
//obj.setAttribute("stroke","red");}
function recoverPath(evt){
obj = evt.target;
obj.setAttribute("fill", tempColor);
//obj.setAttribute("stroke", tempColor);
}</script><path onmouseover="hoverPath(evt)" onmouseout="recoverPath(evt)" fill="rgb(244,243,237)" d="M  0,120l 0,48 2,0 1,-1 4,0 1,-1 2,0 1,-1 2,0 1,-1 1,0 1,-1 3,0 0,-1 -1,-1 0,-1 -1,-1 0,-2 -1,-1 0,-1 -1,-1 0,-2 -1,-1 0,-1 -1,-1 0,-2 -1,-1 0,-1 -1,-1 0,-2 -1,-1 0,-1 -1,-1 0,-2 -1,-1 0,-1 -1,-1 0,-2 -1,-1 0,-1 -1,-1 0,-1 -1,-1 0,-2 -1,-1 0,-1 -1,-1 0,-2 -1,-1 -1,1Z"/>
<path onmouseover="hoverPath(evt)" onmouseout="recoverPath(evt)" fill="rgb(242,241,231)" d="M  132,14l 0,-6 -1,-1 0,-7 -6,0 0,6 1,1 0,7 1,1 0,3 -1,1 0,9 -1,1 0,4 -1,1 0,4 -1,1 0,3 -1,1 0,3 -1,1 0,4 -1,1 0,9 -1,1 0,8 -1,1 0,8 -1,1 0,8 -1,1 0,9 -1,1 0,7 1,1 0,6 1,1 0,6 1,1 0,6 1,1 0,5 1,1 0,5 1,1 0,6 1,1 0,5 1,1 0,3 1,1 0,3 1,1 0,3 1,1 0,3 1,1 0,3 1,1 0,2 1,1 0,2 1,1 0,1 1,1 0,1 1,1 0,1 1,1 0,1 1,1 0,1 1,1 0,1 1,1 0,1 1,1 0,1 1,1 0,1 1,1 0,1 1,1 0,1 1,1 0,1 1,1 1,1 0,1 1,1 1,1 1,1 1,1 1,1 0,1 1,1 1,1 1,1 1,1 1,1 1,1 0,1 1,1 1,1 1,1 1,1 1,1 1,1 0,1 1,1 1,1 1,0 1,1 1,1 1,1 1,1 1,1 1,1 1,1 1,1 1,1 1,1 1,1 1,1 1,0 1,1 1,1 1,1 1,1 1,1 1,1 1,1 4,0 1,-1 7,0 1,-1 6,0 1,-1 6,0 1,-1 7,0 1,-1 6,0 1,-1 6,0 1,-1 5,0 0,-3 1,-1 0,-1 -6,0 -1,-1 -3,0 -1,1 -5,0 -1,-1 -1,-1 0,2 -1,1 -1,0 -1,1 -2,0 -1,1 -3,0 -1,1 -11,0 -1,-1 -1,-1 -1,0 -1,-1 -1,-1 -1,-1 0,-1 -2,0 -1,-1 0,-1 -1,0 -1,-1 -1,-1 -1,-1 -1,-1 -1,-1 -1,-1 -1,-1 -1,-1 0,-1 -1,0 -1,-1 -1,-1 -1,0 -1,-1 0,-1 -1,0 -1,-1 -1,-1 -1,-1 -1,-1 -1,-1 -2,0 -1,-1 -1,-1 0,-2 1,-1 0,-2 1,-1 0,-1 1,-1 1,-1 1,0 1,-1 1,-1 0,-2 1,-1 0,-2 1,-1 1,-1 -1,-1 0,-1 -4,0 -1,1 -6,0 -1,1 -5,0 -1,-1 0,-2 1,-1 -5,0 -1,1 -8,0 -1,-1 -1,0 -1,-1 -1,-1 -1,-1 0,-1 -1,-1 0,-1 -2,0 -1,-1 0,-2 1,-1 0,-1 -1,-1 0,-2 -1,-1 0,-2 -1,-1 0,-2 -1,-1 0,-2 -1,-1 0,-2 -1,-1 0,-2 -1,-1 0,-3 -1,-1 0,-3 -1,-1 0,-4 -1,-1 0,-4 -1,-1 0,-5 -1,-1 0,-6 -1,-1 0,-7 -1,-1 0,-23 -1,-1 0,-4 1,-1 0,-10 1,-1 0,-10 1,-1 0,-5 1,-1 0,-4 1,-1 0,-5 1,-1 0,-3 1,-1 0,-4 1,-1 0,-3 1,-1 0,-4 1,-1 0,-4 1,-1Z"/>
<path onmouseover="hoverPath(evt)" onmouseout="recoverPath(evt)" fill="rgb(243,242,235)" d="M  20,128l 0,0 1,1 0,2 1,1 0,2 1,1 0,2 1,1 0,2 1,1 0,1 1,1 0,1 1,1 0,2 1,1 0,1 1,1 0,2 1,1 0,1 1,1 0,2 1,1 0,1 1,1 0,2 1,1 0,1 1,1 0,2 1,1 0,1 1,1 0,2 1,1 0,1 1,1 0,2 1,1 0,1 1,1 0,2 1,1 0,1 1,1 0,2 1,1 0,1 1,1 0,2 1,1 0,1 1,1 0,2 1,1 0,1 1,1 0,2 1,1 0,1 1,1 0,2 1,1 0,1 1,1 0,2 1,1 0,1 1,1 0,2 1,1 0,1 1,1 0,2 1,1 0,1 1,1 0,2 1,1 0,1 1,1 0,2 1,1 0,2 1,1 0,1 1,1 0,2 1,1 0,1 1,1 0,2 1,1 0,1 1,1 0,2 1,1 0,1 1,1 0,2 93,0 0,-1 -1,-1 0,0 -1,-1 -1,-1 -1,-1 -1,-1 0,-1 -1,-1 -1,-1 -1,-1 -1,-1 -1,-1 -1,-1 -1,-1 0,-1 -1,-1 -1,-1 -1,-1 -1,-1 -1,-1 -1,-1 0,-1 -1,-1 -1,-1 -1,-1 -1,-1 0,-1 -1,-1 -1,-1 -1,-1 -1,-1 0,-1 -1,-1 -1,-1 -1,-1 -1,-1 0,-1 -1,-1 -1,-1 -1,-1 -1,-1 0,-1 -1,-1 -1,-1 -1,-1 -1,-1 0,-1 -1,-1 -1,-1 0,-1 -1,-1 0,-1 -1,-1 0,-1 -1,-1 -1,-1 0,-1 -1,-1 0,-1 -1,-1 -1,-1 0,-1 -1,-1 0,-1 -1,-1 0,-1 -1,-1 0,-2 -1,-1 0,-1 -1,-1 0,-1 -1,-1 0,-1 -1,-1 0,-7 -1,-1 0,-8 -1,-1 0,-8 -1,-1 0,-8 -1,-1 0,-8 -1,-1 0,-9 -1,-1 0,-8 -1,-1 0,-8 -1,-1 0,-8 -1,-1 0,-8 -1,-1 0,-5 1,-1 0,-6 1,-1 0,-7 1,-1 0,-6 1,-1 0,-6 1,-1 0,-6 1,-1 0,-5 1,-1 0,-5 1,-1 0,-3 1,-1 0,-2 1,-1 0,-2 1,-1 0,-11 -1,-1 0,-7 -1,-1 0,-5 -108,0 0,106 2,0 1,1 0,2 1,1 0,1 1,1 0,2 1,1 0,1 1,1 0,2 1,1 0,3 1,0 1,1 0,2 1,1 0,1 1,1 0,2 1,1 0,1 1,1 0,2 1,1 0,1 1,1 0,2 1,1 0,1 1,1 2,0 -1,-1 0,-2 -1,-1 0,-2 -1,-1 0,-2 -1,-1 0,-5 1,-1Z"/>
<path onmouseover="hoverPath(evt)" onmouseout="recoverPath(evt)" fill="rgb(170,197,236)" d="M  110,1l 0,3 1,1 0,7 1,1 0,13 -1,1 0,2 -1,1 0,2 -1,1 0,3 -1,1 0,5 -1,1 0,5 -1,1 0,6 -1,1 0,6 -1,1 0,6 -1,1 0,7 -1,1 0,6 -1,1 0,3 1,1 0,8 1,1 0,8 1,1 0,8 1,1 0,8 1,1 0,9 1,1 0,8 1,1 0,8 1,1 0,8 1,1 0,8 1,1 0,7 1,1 0,1 1,1 0,1 1,1 0,1 1,1 0,2 1,1 0,1 1,1 0,1 1,1 0,1 1,1 1,1 0,1 1,1 0,1 1,1 1,1 0,1 1,1 0,1 1,1 0,1 1,1 1,1 0,1 1,1 1,1 1,1 1,1 0,1 1,1 1,1 1,1 1,1 0,1 1,1 1,1 1,1 1,1 0,1 1,1 1,1 1,1 1,1 0,1 1,1 1,1 1,1 1,1 0,1 1,1 1,1 1,1 1,1 1,1 1,1 0,1 1,1 1,1 1,1 1,1 1,1 1,1 1,1 0,1 1,1 1,1 1,1 1,1 1,1 0,2 23,0 0,-2 1,-1 6,0 1,-1 6,0 1,-1 6,0 1,-1 4,0 1,-1 4,0 1,-1 5,0 1,-1 4,0 1,-1 4,0 1,-1 3,0 1,-1 -1,-1 0,-1 -6,0 -1,1 -6,0 -1,1 -6,0 -1,1 -7,0 -1,1 -6,0 -1,1 -6,0 -1,1 -7,0 -1,1 -6,0 -1,-1 -1,-1 -1,-1 -1,-1 -1,-1 -1,-1 -1,-1 -1,0 -1,-1 -1,-1 -1,-1 -1,-1 -1,-1 -1,-1 -1,-1 -1,-1 -1,-1 -1,-1 -1,-1 -1,-1 -1,0 -1,-1 -1,-1 -1,-1 0,-1 -1,-1 -1,-1 -2,-2 -1,-1 -1,-1 0,-1 -1,-1 -1,-1 -1,-1 -1,-1 -1,-1 -1,-1 0,-1 -1,-1 -1,-1 -1,-1 -1,-1 -1,-1 0,-1 -1,-1 -1,-1 0,-1 -1,-1 0,-1 -1,-1 0,-1 -1,-1 0,-1 -1,-1 0,-1 -1,-1 0,-1 -1,-1 0,-1 -1,-1 0,-1 -1,-1 0,-1 -1,-1 0,-1 -1,-1 0,-1 -1,-1 0,-1 -1,-1 0,-2 -1,-1 0,-2 -1,-1 0,-3 -1,-1 0,-3 -1,-1 0,-3 -1,-1 0,-3 -1,-1 0,-3 -1,-1 0,-5 -1,-1 0,-6 -1,-1 0,-5 -1,-1 0,-5 -1,-1 0,-6 -1,-1 0,-6 -1,-1 0,-6 -1,-1 0,-9 1,-1 0,-9 1,-1 0,-8 1,-1 0,-8 1,-1 0,-8 1,-1 0,-9 1,-1 0,-4 1,-1 0,-3 1,-1 0,-3 1,-1 0,-4 1,-1 0,-4 1,-1 0,-9 1,-1 0,-1 -1,-1 0,-7 -1,-1 0,-7 -12,0 -1,1Z"/>
<path onmouseover="hoverPath(evt)" onmouseout="recoverPath(evt)" fill="rgb(252,251,249)" d="M  133,1l 0,5 1,1 0,22 -1,1 0,4 -1,1 0,4 -1,1 0,3 -1,1 0,4 -1,1 0,3 -1,1 0,5 -1,1 0,4 -1,1 0,5 -1,1 0,10 -1,1 0,10 -1,1 0,2 1,1 0,23 1,1 0,7 1,1 0,6 1,1 0,5 1,1 0,4 1,1 0,4 1,1 0,3 1,1 0,3 1,1 0,2 1,1 0,2 1,1 0,2 1,1 0,2 1,1 0,2 1,1 0,2 1,1 0,3 -1,1 2,0 1,1 0,1 1,1 0,1 1,1 1,1 1,0 1,1 6,0 1,-1 7,0 1,1 0,2 -1,1 3,0 1,-1 6,0 1,-1 -5,0 -1,-1 0,-2 1,-1 2,0 1,-1 3,0 1,-1 4,0 1,-1 6,0 1,-1 7,0 1,-1 7,0 1,-1 6,0 1,-1 6,0 1,-1 5,0 1,-1 2,0 1,1 1,1 0,3 -1,1 -1,1 1,0 1,1 0,4 1,-2 0,-2 1,-1 1,0 1,-1 -1,0 -1,-1 0,0 -1,-1 0,-3 1,-1 1,0 1,-1 4,0 1,-1 5,0 1,-1 6,0 1,-1 9,0 0,-3 -2,0 -1,1 -1,0 -1,1 -5,0 -1,1 -6,0 -1,1 -7,0 -1,-1 0,-1 -1,0 -1,-1 0,3 -1,1 -2,0 -1,1 -3,0 -1,1 -6,0 -1,1 -5,0 -1,1 -6,0 -1,1 -8,0 -1,1 -6,0 -1,1 -6,0 -1,1 -5,0 -1,1 -3,0 -1,1 -3,0 -1,1 -4,0 -1,1 -5,0 -1,1 -4,0 -1,-1 -2,0 -1,-1 -1,-1 -1,-1 0,-1 -1,-1 0,-2 -1,-1 0,-2 -1,-1 0,-2 -1,-1 0,-2 -1,-1 0,-2 -1,-1 0,-2 -1,-1 0,-2 -1,-1 0,-2 -1,-1 0,-2 -1,-1 0,-4 1,-1 1,0 1,-1 -3,0 -1,-1 0,-2 -1,-1 0,-3 -1,-1 0,-6 -1,-1 0,-5 -1,-1 0,-8 -1,-1 0,-35 1,-1 0,-10 1,-1 0,-6 1,-1 0,-4 1,-1 0,-4 1,-1 0,-3 1,-1 0,-4 1,-1 0,-3 1,-1 0,-4 1,-1 0,-5 1,-1 0,-8 1,-1 0,-3 1,-1 6,0 1,-1 5,0 1,-1 5,0 1,-1 5,0 1,-1 7,0 1,-1 5,0 1,-1 5,0 1,-1 5,0 1,-1 2,0 1,1 1,1 0,4 -1,1 2,0 1,-1 11,0 1,-1 5,0 1,1 1,1 0,1 1,1 0,-1 1,2 -3,-5 -1,-1 -1,0 -5,1 -12,0 0,1 -1,-5 1,-1 1,0 1,-1 4,0 1,-1 5,0 1,-1 5,0 1,-1 5,0 1,-1 5,0 1,-1 5,0 0,-2 -59,0 0,2 1,0 1,-1 3,0 1,1 10,0 1,1 2,0 1,1 0,2 -1,1 -2,0 -1,1 -5,0 -1,1 -5,0 -1,1 -5,0 -1,1 -6,0 -1,1 -6,0 -1,1 -4,0 -1,1 -6,0 -1,1 -5,0 -1,-1 0,-1 -1,-1 0,-6 -1,-1 0,-3 -1,-1 1,-1 -1,1Z"/>
<path onmouseover="hoverPath(evt)" onmouseout="recoverPath(evt)" fill="rgb(243,241,233)" d="M  149,80l -1,0 -1,1 0,1 -1,1 -1,1 -1,1 -1,1 -1,1 1,1 0,3 -1,1 2,0 1,1 0,3 1,1 0,4 -1,1 3,0 1,1 9,0 1,1 4,0 0,-2 1,-1 5,0 1,-1 4,0 1,-1 5,0 1,-1 7,0 1,1 8,0 0,-2 1,-1 7,0 1,1 5,0 0,-2 1,-1 7,0 1,-1 1,0 1,-1 1,0 0,-3 -1,-1 -11,0 -1,-1 -1,-1 0,-3 1,-1 1,-1 1,0 1,-1 1,-1 0,-3 -1,-1 0,-1 -1,-1 0,-1 -1,-1 0,-1 -1,-1 -1,-1 -1,-1 -1,-1 -1,0 -1,-1 -1,0 -1,-1 -7,0 -1,1 -9,0 -1,1 -7,0 -1,1 -4,0 -1,1 -2,0 -1,1 -1,1 0,1 -1,1 -2,2 0,1 -1,1 -1,0 -1,1 -1,1 -2,0 -1,1 -8,0 -1,1Z"/>
<path onmouseover="hoverPath(evt)" onmouseout="recoverPath(evt)" fill="rgb(242,240,231)" d="M  150,153l 0,2 -1,1 0,2 2,0 1,1 0,3 -1,1 0,2 1,1 0,3 1,1 0,1 2,0 1,1 1,1 3,0 1,-1 4,0 1,-1 5,0 1,1 5,0 0,-2 1,-1 8,0 1,1 6,0 0,-2 1,-1 5,0 1,-1 5,0 1,-1 0,-15 1,-1 2,0 0,-2 1,-1 0,-2 1,-1 0,-4 -1,-1 0,-1 -1,-1 0,-1 -15,0 -1,1 -6,0 -1,1 -5,0 2,1 0,0 1,1 0,2 -1,1 -3,0 -1,1 -3,0 -1,1 -3,0 -1,1 -3,0 -1,1 -3,0 0,2 -1,1 -3,0 -1,1 -3,0 -1,1 -4,0 -1,1Z"/>
<path onmouseover="hoverPath(evt)" onmouseout="recoverPath(evt)" fill="rgb(247,236,139)" d="M  231,1l 0,2 -1,1 0,6 1,1 0,8 1,1 0,7 1,1 0,7 1,1 0,7 1,1 0,7 1,1 0,7 1,1 0,7 1,1 0,7 -1,1 -7,0 3,1 0,1 5,0 1,1 0,3 1,1 0,7 1,1 0,6 1,1 0,6 1,1 0,7 1,1 0,7 1,1 0,5 1,1 0,6 1,1 0,6 1,1 0,4 1,1 0,4 1,1 0,4 1,1 0,3 1,1 0,4 1,1 0,1 2,0 0,-35 -2,0 -1,-1 0,-6 -1,-1 0,-9 1,-1 0,-3 -1,-1 0,-7 -1,-1 0,-6 -1,-1 0,-7 -1,-1 0,-6 -1,0 -1,-1 0,-7 1,-1 -1,-1 0,-6 -1,-1 0,-7 -1,-1 0,-7 -1,-1 0,-8 -1,-1 0,-7 -1,-1 0,-7 -1,-1 0,-7 -1,-1 0,-6 -1,-1 0,-7 -6,0 -1,1 -2,3 0,0 2,-3Z"/>
<path onmouseover="hoverPath(evt)" onmouseout="recoverPath(evt)" fill="rgb(242,240,231)" d="M  163,144l 3,0 1,-1 3,0 1,-1 3,0 1,-1 3,0 1,-1 3,0 -1,-1 -1,0 -1,-1 0,-2 1,-1 5,0 1,-1 6,0 1,-1 17,0 1,1 0,1 1,1 0,-1 1,-1 0,-2 -1,-1 0,-5 -2,0 -1,-1 0,-4 1,-1 0,-1 -1,-1 0,-1 -6,0 -1,1 -6,0 0,2 -1,1 -6,0 -1,-1 -5,0 -1,1 -7,0 -1,1 -6,0 -1,1 -7,0 -1,1 -6,0 -1,1 -6,0 -1,1 -1,0 -1,1 0,1 1,1 0,7 1,1 0,8 -1,1 0,1 1,0 1,1 0,2 1,1 0,1 1,1 0,-2 1,-1 1,-1 4,0 1,-1 3,0 1,-1 3,0 0,-2 1,-1 -20,2 20,-2Z"/>
<path onmouseover="hoverPath(evt)" onmouseout="recoverPath(evt)" fill="rgb(242,241,232)" d="M  227,186l 0,0 -1,1 0,1 -1,1 0,1 -1,1 -2,0 0,1 -1,1 0,1 -1,1 0,2 -1,1 0,3 -1,1 0,2 1,1 0,14 1,1 0,3 1,1 0,3 1,1 0,3 1,1 3,0 1,-1 4,0 1,-1 3,0 1,-1 6,0 1,1 0,2 -1,1 0,1 1,1 0,2 3,0 1,-1 3,0 1,-1 4,0 0,-62 -8,0 -1,1 -6,0 -1,1 -5,0 -1,1 -4,0 -1,1 -1,0 0,1 1,1 4,0 1,1 0,2 -1,1 -3,0 -1,1 -1,0 0,2 12,0 1,-1 2,0 1,1 0,2 -1,1 -2,0 -1,-1 0,-2Z"/>
<path onmouseover="hoverPath(evt)" onmouseout="recoverPath(evt)" fill="rgb(254,254,254)" d="M  18,131l 0,2 1,1 0,2 1,1 0,2 1,1 0,2 1,1 0,1 1,1 0,1 1,1 0,2 1,1 0,1 1,1 0,2 1,1 0,1 1,1 0,1 1,1 0,2 1,1 0,2 1,1 0,1 1,1 0,2 1,1 0,1 1,1 0,2 1,1 0,1 1,1 0,2 1,1 0,1 1,1 0,1 1,1 0,2 1,1 0,1 1,1 0,2 1,1 0,1 1,1 0,2 1,1 0,1 1,1 0,2 1,1 0,1 1,1 0,2 1,1 0,1 1,1 0,2 1,1 0,2 1,1 0,1 1,1 0,2 1,1 0,1 1,1 0,2 1,1 0,1 1,1 0,2 1,1 0,1 1,1 0,2 1,1 0,1 1,1 0,2 1,1 0,1 1,1 0,2 1,1 0,1 1,1 0,2 1,1 0,2 1,1 0,2 2,0 0,-1 -1,-1 0,-1 -1,-1 0,-2 -1,-1 0,-1 -1,-1 0,-2 -1,-1 0,-1 -1,-1 0,-2 -1,-1 0,-1 -1,-1 0,-2 -1,-1 0,-2 -1,-1 0,-1 -1,-1 0,-2 -1,-1 0,-1 -1,-1 0,-2 -1,-1 0,-1 -1,-1 0,-2 -1,-1 0,-1 -1,-1 0,-2 -1,-1 0,-1 -1,-1 0,-2 -1,-1 0,-1 -1,-1 0,-2 -1,-1 0,-1 -1,-1 0,-2 -1,-1 0,-1 -1,-1 0,-2 -1,-1 0,-1 -1,-1 0,-2 -1,-1 0,-1 -1,-1 0,-2 -1,-1 0,-1 -1,-1 0,-2 -1,-1 0,-1 -1,-1 0,-2 -1,-1 0,-1 -1,-1 0,-2 -1,-1 0,-1 -1,-1 0,-2 -1,-1 0,-1 -1,-1 0,-2 -1,-1 0,-1 -1,-1 0,-2 -1,-1 0,-1 -1,-1 0,-2 -1,-1 0,-1 -1,-1 0,-1 -1,-1 0,-2 -1,-1 0,-2 -1,-1 0,-2 -1,-1 -1,-1 1,-1Z"/>
<path onmouseover="hoverPath(evt)" onmouseout="recoverPath(evt)" fill="rgb(243,241,233)" d="M  158,26l 0,0 -1,1 -1,1 -1,1 0,1 -1,1 0,2 -1,1 0,5 1,1 0,2 2,0 1,1 0,7 1,1 0,5 1,1 0,1 1,1 1,1 6,0 1,1 5,0 1,-1 7,0 1,1 0,2 -1,1 3,0 1,-1 9,0 1,-1 8,0 1,-1 0,-3 1,-1 0,-2 1,-1 6,0 0,-2 1,-1 2,0 1,-1 0,-2 1,-1 1,-1 0,-4 -1,-1 0,-14 -1,-1 0,-3 -1,-1 -1,-1 0,-1 -1,-1 -1,-1 -1,-1 0,-1 -1,-1 -3,0 -1,1 -11,0 -1,1 -6,0 -1,-1 0,-2 1,-1 2,0 0,-2 -1,-1 0,0 -1,1 -5,0 -1,1 -5,0 -1,1 -5,0 0,1 1,1 0,4 -1,1 -3,0 0,2 -1,1 -4,0 -1,-1 -2,0 0,2 -1,1 -1,1 19,38 -1,0 -1,1 -4,0 -1,1 1,0 5,-1 1,-1 -19,-38Z"/>
<path onmouseover="hoverPath(evt)" onmouseout="recoverPath(evt)" fill="rgb(243,242,233)" d="M  206,59l 0,2 1,1 1,0 1,1 0,2 1,1 1,1 1,1 1,1 0,1 1,1 0,1 1,1 0,1 1,1 0,5 1,0 1,-1 1,-1 1,0 1,-1 7,0 0,-2 1,-1 7,0 0,-5 -1,-1 0,-7 -1,-1 0,-7 -1,-1 0,-7 -1,-1 0,-7 -1,-1 0,-7 -1,-1 0,-7 -1,-1 0,-8 -1,-1 0,-5 -4,0 -1,-1 -4,0 -1,1 -5,0 -1,1 -5,0 -1,1 -5,0 -1,1 -4,0 -1,1 -1,0 0,1 1,1 7,0 1,-1 5,0 1,-1 3,0 1,1 1,1 0,1 1,1 1,1 0,1 1,1 0,1 1,1 1,1 0,2 -1,1 0,2 1,1 0,14 1,1 0,6 -1,1 -1,1 0,2 -1,1 -1,1 -2,0 0,2 -1,1 -6,0 0,2 -1,1 8,23 -1,1 -1,0 -1,1 0,1 1,1 11,0 1,1 0,-1 -1,-1 -9,0 0,-3 -8,-23Z"/>
<path onmouseover="hoverPath(evt)" onmouseout="recoverPath(evt)" fill="rgb(243,241,233)" d="M  138,20l 0,1 -1,1 0,8 -1,1 0,5 -1,1 0,4 -1,1 0,3 -1,1 0,4 -1,1 0,3 -1,1 0,4 -1,1 0,4 -1,1 0,6 -1,1 0,10 -1,1 0,33 1,1 0,8 1,1 0,5 1,1 0,6 1,1 0,3 1,1 0,2 8,0 1,-1 2,0 0,-6 -1,-1 0,-7 -1,-1 0,-3 1,-1 1,-1 1,0 1,-1 6,0 1,-1 6,0 1,-1 7,0 1,-1 6,0 1,-1 7,0 1,-1 7,0 1,1 4,0 0,-2 1,-1 6,0 1,-1 8,0 1,1 0,1 1,1 0,3 -1,1 0,2 2,0 1,1 0,5 1,1 0,4 -1,1 0,2 -1,1 0,5 -1,1 0,2 -1,1 0,2 -1,1 0,5 1,1 4,0 1,-1 6,0 1,1 1,0 1,1 0,1 1,1 0,1 1,1 0,2 1,1 0,1 1,1 0,1 1,0 1,1 0,1 5,0 1,-1 6,0 1,-1 5,0 1,-1 1,0 0,-1 -1,-1 0,-4 -1,-1 0,-3 -1,-1 0,-4 -1,-1 0,-4 -1,-1 0,-4 -1,-1 0,-6 -1,-1 0,-6 -1,-1 0,-5 -1,-1 0,-7 -1,-1 0,-7 -1,-1 0,-6 -1,-1 0,-6 -1,-1 0,-7 -1,-1 0,-3 -5,0 -1,-1 0,-1 -1,0 -1,1 -7,0 -1,1 -1,0 -1,1 -1,1 -1,0 -1,1 0,1 4,0 1,-1 3,0 1,1 1,1 0,3 -1,1 0,4 -1,1 -1,0 -1,1 -1,0 -1,1 -7,0 0,2 -1,1 -7,0 -1,-1 -5,0 0,2 -1,1 -10,0 -1,-1 -5,0 -1,1 -5,0 -1,1 -4,0 -1,1 -5,0 0,2 -1,1 -6,0 -1,-1 -9,0 -1,-1 -3,0 -1,-1 0,-2 1,-1 0,-2 -1,-1 0,-3 -2,0 -1,-1 0,-2 1,-1 0,-1 -1,-1 0,-2 1,-1 1,-1 1,-1 1,-1 1,-1 0,-1 1,-1 1,-1 1,0 1,-1 8,0 1,-1 2,0 1,-1 1,-1 1,0 0,-1 1,-1 1,-1 1,-1 0,-1 2,-2 0,-2 1,-1 1,-1 4,0 1,-1 5,0 -11,1 -2,0 -1,-1 -6,0 -1,-1 -1,-1 -2,0 -1,-1 0,-2 1,-1 0,-4 -1,-1 0,-7 -2,0 -1,-1 0,-2 -1,-1 0,-7 1,-1 0,-2 1,-1 0,-1 1,-1 1,-1 1,-1 1,-1 1,-1 0,-2 1,-1 4,0 1,1 2,0 0,-2 1,-1 3,0 0,-2 -1,-1 0,-1 -6,0 -1,1 -5,0 -1,1 -5,0 -1,1 -5,0 -1,1 -6,0Z"/>
<path onmouseover="hoverPath(evt)" onmouseout="recoverPath(evt)" fill="rgb(244,243,234)" d="M  240,4l 0,2 1,1 0,6 1,1 0,7 1,1 0,7 1,1 0,7 1,1 0,8 1,1 0,7 1,1 0,7 1,1 0,6 1,1 0,2 -1,1 0,5 1,0 1,1 0,6 1,1 0,7 1,1 0,6 1,1 0,7 1,1 0,5 -1,1 0,7 1,1 0,6 1,0 0,-129 -15,0Z"/>
<path onmouseover="hoverPath(evt)" onmouseout="recoverPath(evt)" fill="rgb(243,241,233)" d="M  170,205l 0,0 -1,1 0,2 -1,1 1,1 2,0 1,1 1,1 1,1 1,1 1,1 1,0 1,1 0,1 1,0 1,1 1,1 1,0 1,1 0,1 1,1 1,1 1,1 1,1 1,1 1,1 1,1 1,0 1,1 0,1 2,0 1,1 0,1 1,1 1,1 1,0 1,1 1,1 9,0 1,-1 3,0 1,-1 2,0 1,-1 1,0 0,-5 1,-1 0,-2 -1,-1 0,-3 -1,-1 0,-14 -1,-1 0,-4 1,-1 0,-3 1,-1 0,-2 1,-1 0,-1 1,-1 0,-1 1,-1 0,-1 1,-1 0,-3 -7,0 -1,1 -5,0 -1,1 -3,0 -1,1 -1,0 -1,1 -1,0 -1,1 -2,0 -1,1 -2,0 -1,1 -3,0 -1,-1 -1,-1 0,-1 -6,0 -1,1 -5,0 0,1 1,1 0,2 -1,1 -1,1 0,2 -1,1 0,2 -1,1 -1,1 -1,1 -1,0 -1,1 0,1 9,-11 0,1 1,1 0,0 -1,-2 -9,11 11,-9 1,0 1,-1 1,0 1,-1 0,0 -4,2 -11,9 15,-12 0,-1 -1,-1 0,0 1,2 -15,12 13,-14 -1,0 -1,-1 -3,0 5,1 -13,14Z"/>
<path onmouseover="hoverPath(evt)" onmouseout="recoverPath(evt)" fill="rgb(240,239,226)" d="M  184,4l -9,0 -1,-1 -1,0 -1,1 -3,0 -1,-1 0,-3 -32,0 0,4 1,1 0,6 1,1 0,1 3,0 1,-1 6,0 1,-1 4,0 1,-1 6,0 1,-1 6,0 1,-1 5,0 1,-1 5,0 1,-1 5,0 1,-1 2,0 -3,-1Z"/>
<path onmouseover="hoverPath(evt)" onmouseout="recoverPath(evt)" fill="rgb(244,243,237)" d="M  1,173l -1,0 0,82 56,0 0,-2 -1,-1 0,-1 -1,-1 0,-2 -1,-1 0,-1 -1,-1 0,-2 -1,-1 0,-1 -1,-1 0,-1 -1,-1 0,-2 -1,-1 0,-1 -1,-1 0,-2 -1,-1 0,-1 -1,-1 0,-2 -1,-1 0,-1 -1,-1 0,-1 -1,-1 0,-2 -1,-1 0,-1 -1,-1 0,-2 -1,-1 0,-1 -1,-1 0,-2 -1,-1 0,-1 -1,-1 0,-2 -1,-1 0,-1 -1,-1 0,-2 -1,-1 0,-1 -1,-1 0,-1 -1,-1 0,-2 -1,-1 0,-1 -1,-1 0,-2 -1,-1 0,-1 -1,-1 0,-2 -1,-1 0,-1 -1,-1 0,-2 -1,-1 0,-1 -1,-1 0,-2 -1,-1 0,-1 -1,-1 0,-1 -4,0 -1,1 -2,0 -1,1 -2,0 -1,1 -2,0 -1,1 -2,0 -1,1Z"/>
<path onmouseover="hoverPath(evt)" onmouseout="recoverPath(evt)" fill="rgb(240,238,225)" d="M  188,172l -2,0 -1,-1 -6,0 0,2 -1,1 -7,0 -1,-1 -3,0 -1,1 -4,0 -1,1 -5,0 -1,-1 -1,-1 -2,0 -1,-1 0,-1 -1,-1 0,-3 -1,-1 0,-4 1,-1 0,-1 -2,0 -1,-1 0,-3 -1,-1 0,-1 -1,-1 0,-1 -1,-1 0,-2 -1,0 -1,-1 -1,1 -6,0 -1,1 -1,0 0,2 1,1 0,2 1,1 0,2 1,1 0,2 1,1 0,2 1,1 0,2 1,1 0,2 1,1 0,2 1,1 0,2 1,1 0,2 1,1 0,1 1,1 1,1 2,0 1,1 2,0 1,-1 5,0 1,-1 4,0 1,-1 3,0 1,-1 3,0 1,-1 5,0 1,-1 6,0 1,-1 6,0 1,-1 8,0 1,-1 6,0 1,-1 5,0 1,-1 6,0 1,-1 3,0 1,-1 2,0 0,-4 1,-1 -1,-1 0,-2 -1,-1 0,-1 -2,0 -1,-1 0,-2 -4,0 -1,1 -6,0 -1,-1 -1,-1 0,9 -1,1 -1,1 -5,0 -1,1 -5,0 0,2 -1,1Z"/>
<path onmouseover="hoverPath(evt)" onmouseout="recoverPath(evt)" fill="rgb(236,236,219)" d="M  196,254l -6,0 0,1 5,0 1,-1 3,1 56,0 0,-18 -3,0 -1,1 -3,0 -1,1 -5,0 -1,-1 0,-2 -1,-1 0,-3 1,-1 -4,0 -1,1 3,0 1,4 -1,1 0,2 1,0 1,1 0,1 1,1 0,2 -1,1 -1,1 -3,0 -1,1 -4,0 -1,1 -4,0 -1,1 -5,0 -1,1 -4,0 -1,1 -4,0 -1,1 -6,0 -1,1 -3,0 -1,2 -3,-1Z"/>
<path onmouseover="hoverPath(evt)" onmouseout="recoverPath(evt)" fill="rgb(194,211,228)" d="M  13,143l 0,0 1,1 0,1 1,1 0,2 1,1 0,1 1,1 0,2 1,1 0,1 1,1 0,2 1,1 0,1 1,1 0,3 -1,1 -3,0 -1,1 -1,0 -1,1 -2,0 -1,1 -2,0 -1,1 -4,0 -1,1 -3,0 0,1 3,0 1,-1 2,0 3,-1 3,-1 3,-1 2,-1 5,0 1,1 0,1 1,1 0,1 1,1 0,2 1,1 0,1 1,1 0,2 1,1 0,1 1,1 0,2 1,1 0,1 1,1 0,2 1,1 0,1 1,1 0,2 1,1 0,1 1,1 0,1 1,1 0,2 1,1 0,1 1,1 0,2 1,1 0,1 1,1 0,2 1,1 0,1 1,1 0,2 1,1 0,1 1,1 0,2 1,1 0,1 1,1 0,1 1,1 0,2 1,1 0,1 1,1 0,2 1,1 0,1 1,1 0,2 1,1 0,1 1,1 0,1 1,1 0,2 1,1 0,1 1,1 0,2 1,1 0,1 1,1 0,3 6,0 0,-1 -1,-1 0,-2 -1,-1 0,-2 -1,-1 0,-1 -1,-1 0,-2 -1,-1 0,-1 -1,-1 0,-2 -1,-1 0,-1 -1,-1 0,-2 -1,-1 0,-1 -1,-1 0,-2 -1,-1 0,-1 -1,-1 0,-2 -1,-1 0,-1 -1,-1 0,-2 -1,-1 0,-1 -1,-1 0,-2 -1,-1 0,-2 -1,-1 0,-1 -1,-1 0,-2 -1,-1 0,-1 -1,-1 0,-2 -1,-1 0,-1 -1,-1 0,-2 -1,-1 0,-1 -1,-1 0,-2 -1,-1 0,-1 -1,-1 0,-2 -1,-1 0,-1 -1,-1 0,-1 -1,-1 0,-2 -1,-1 0,-1 -1,-1 0,-2 -1,-1 0,-1 -1,-1 0,-2 -1,-1 0,-1 -1,-1 0,-2 -1,-1 0,-2 -1,-1 0,-1 -1,-1 0,-1 -1,-1 0,-2 -1,-1 0,-1 -1,-1 0,-2 -1,-1 0,-1 -4,0 -1,-1 -1,-1 0,-1 -1,-1 -1,1 1,-3 -1,-1 0,-1 -1,-1 0,-2 -1,-1 0,-1 -1,-1 0,-2 -1,-1 0,-1 -1,-1 0,-2 -1,0 -1,-1 0,-3 -1,-1 0,-2 -1,-1 0,-1 -1,-1 0,-2 -1,-1 0,-1 -1,-1 0,-2 -1,0 0,8 2,0 1,1 0,1 1,1 0,2 1,1 0,-1 -1,-3 -1,-2 11,24 -1,3 -5,-14 0,1 1,1 0,2 1,1 0,1 1,1 0,2 1,1 0,-1 -1,-3 -1,-2 -1,-3 -1,-1 5,14Z"/>
<path onmouseover="hoverPath(evt)" onmouseout="recoverPath(evt)" fill="rgb(235,232,214)" d="M  184,183l -6,0 -1,1 -4,0 -1,1 -3,0 -1,1 7,0 1,1 5,0 1,-1 8,0 1,1 0,1 1,1 1,0 1,-1 2,0 1,-1 2,0 1,-1 1,0 1,-1 1,0 1,-1 3,0 1,-1 5,0 0,-2 1,-1 7,0 1,-1 0,-1 -1,-1 0,0 -1,1 -5,0 -1,1 -6,0 -1,1 -6,0 -1,1 -7,0 -1,1 -7,0 -1,1Z"/>
</svg>