<svg width="256" height="256" xmlns="http://www.w3.org/2000/svg"><script> 
var tempColor;
function hoverPath(evt){
obj = evt.target;
tempColor = obj.getAttribute("fill");
obj.setAttribute("fill","red");
//alert(tempColor);
//obj.setAttribute("stroke","red");}
function recoverPath(evt){
obj = evt.target;
obj.setAttribute("fill", tempColor);
//obj.setAttribute("stroke", tempColor);
}</script><path onmouseover="hoverPath(evt)" onmouseout="recoverPath(evt)" fill="rgb(245,244,237)" d="M  0,74l 0,11 8,0 1,1 6,0 1,1 4,0 0,-7 -1,-1 0,-3 -2,0 -1,-1 -5,0 -1,-1 -6,0 -1,-1 -2,0 -1,1Z"/>
<path onmouseover="hoverPath(evt)" onmouseout="recoverPath(evt)" fill="rgb(244,243,236)" d="M  0,160l 0,43 1,0 1,-1 0,-2 1,-1 1,-1 4,0 1,-1 0,-1 1,-1 1,-1 1,-1 0,-2 1,-1 1,-1 1,-1 1,-1 1,-1 1,-1 2,0 0,-1 1,-1 1,-1 1,0 1,-1 2,0 1,-1 1,-1 0,-2 1,-1 4,0 0,-1 1,-1 0,-2 1,-1 3,0 1,-1 0,-2 1,-1 1,0 1,-1 2,0 1,-1 2,0 1,-1 1,-1 0,-1 1,-1 2,0 1,-1 1,-1 0,-3 1,-1 3,0 0,-1 1,-1 4,0 1,-1 1,-1 1,0 0,-3 1,-1 3,0 1,1 0,-3 1,-1 2,0 1,1 1,0 1,-1 1,0 1,-1 1,0 0,-2 1,-1 1,0 1,-1 1,0 1,-1 1,0 1,-1 1,0 1,-1 2,0 0,-3 -1,-1 0,-3 -1,-1 0,-3 -1,-1 0,-3 -1,-1 0,-2 -1,-1 0,-4 -1,-1 0,-1 -1,0 -1,-1 -5,0 -1,-1 -5,0 -1,-1 -4,0 -1,-1 -5,0 -1,-1 -4,0 -1,-1 -5,0 -1,-1 -6,0 -1,-1 -5,0 -1,-1 -4,0 -1,-1 -3,0 -1,-1 -5,0 -1,-1 -5,0 -1,-1 -6,0 -1,-1 -4,0 -1,-1 0,-1 -3,0 0,65 92,-24 -92,24Z"/>
<path onmouseover="hoverPath(evt)" onmouseout="recoverPath(evt)" fill="rgb(244,243,236)" d="M  3,217l -3,0 0,38 133,0 0,-1 -1,-1 0,-2 -1,-1 0,-2 -1,-1 0,-1 -1,-1 0,-2 -1,-1 0,-2 -1,-1 0,-3 -1,-1 0,-2 -1,-1 0,-2 -1,-1 0,-2 -1,-1 0,-2 -1,-1 0,-1 -1,-1 0,-1 -1,-1 0,-1 -1,-1 0,-2 -1,-1 0,-1 -1,-1 0,-1 -1,-1 0,-2 -1,-1 0,-1 -1,-1 0,-1 -1,-1 0,-2 -1,-1 0,-1 -1,-1 0,-2 -1,-1 0,-1 -1,-1 0,-1 -1,-1 0,-2 -1,-1 0,-1 -1,-1 0,-2 -1,-1 0,-2 -1,-1 0,-3 -1,-1 0,-2 -1,-1 0,-3 -1,-1 0,-2 -1,-1 0,-2 -1,-1 0,-2 -1,-1 0,-2 -1,-1 0,-2 -1,-1 0,-3 -1,-1 0,-3 -1,0 -1,1 -1,0 -1,1 -1,0 -1,1 -1,0 -1,1 -1,0 -1,1 -1,0 -1,1 -1,0 0,2 -1,1 -1,0 -1,1 -4,0 -1,1 -1,0 -1,1 -1,1 -1,0 -1,1 -1,0 0,3 -1,1 -5,0 0,1 -1,1 -1,1 -2,0 -1,1 -1,1 0,1 -1,1 0,2 -1,1 -1,1 -1,0 -1,1 -2,0 -1,1 0,2 -1,1 -1,0 -1,1 -2,0 -1,1 0,2 -1,1 -4,0 -1,1 0,1 -1,1 -1,1 0,2 -2,2 -1,0 -1,1 -1,1 -3,0 -2,2 -1,1 -1,0 -1,1 -1,1 0,1 -1,1 -1,1 -1,1 -2,0 -1,1 -1,1 -1,1 0,1 -1,1 -1,1 0,2 -1,1 -4,0 -1,1 0,1 -1,1Z"/>
<path onmouseover="hoverPath(evt)" onmouseout="recoverPath(evt)" fill="rgb(244,243,236)" d="M  30,78l 0,0 -1,-1 0,4 1,1 0,7 1,0 1,1 4,0 1,1 4,0 1,1 6,0 1,1 5,0 1,1 5,0 1,1 4,0 1,1 5,0 1,1 6,0 1,1 3,0 0,-2 -1,-1 0,-3 -1,-1 0,-7 1,-1 0,-9 -1,-1 0,-1 -1,0 -1,-1 -3,0 -1,1 -3,0 -1,1 -3,0 -1,1 -2,0 -1,1 -5,0 -1,1 -5,0 -1,1 -5,0 -1,1Z"/>
<path onmouseover="hoverPath(evt)" onmouseout="recoverPath(evt)" fill="rgb(251,251,249)" d="M  90,32l 0,1 1,-1 2,0 1,-1 4,0 1,-1 4,0 1,-1 5,0 1,-1 5,0 1,-1 5,0 1,-1 5,0 1,-1 5,0 1,-1 4,0 1,-1 4,0 1,-1 4,0 1,-1 4,0 1,-1 5,0 1,-1 4,0 1,-1 4,0 1,-1 4,0 1,-1 4,0 1,-1 4,0 1,-1 5,0 1,-1 4,0 1,-1 4,0 1,-1 4,0 1,-1 4,0 1,-1 4,0 1,-1 5,0 1,-1 4,0 1,-1 4,0 1,-1 5,0 1,-1 5,0 1,-1 4,0 1,1 1,1 0,3 1,1 0,3 1,1 0,2 1,1 0,3 1,1 0,3 1,0 0,-23 -12,0 0,2 -1,1 -5,0 -1,1 -4,0 -1,1 -4,0 -1,1 -5,0 -1,1 -4,0 -1,1 -4,0 -1,1 -4,0 -1,1 -4,0 -1,1 -5,0 -1,1 -4,0 -1,1 -4,0 -1,1 -4,0 -1,1 -4,0 -1,1 -4,0 -1,1 -5,0 -1,1 -4,0 -1,1 -4,0 -1,1 -4,0 -1,1 -4,0 -1,1 -4,0 -1,1 -4,0 -1,1 -5,0 -1,1 -5,0 -1,1 -5,0 -1,1 -5,0 -1,1 -5,0 -1,1 -7,0 -1,-1 -1,0 0,2 -1,1 -2,0 -1,1Z"/>
<path onmouseover="hoverPath(evt)" onmouseout="recoverPath(evt)" fill="rgb(244,243,235)" d="M  90,96l 0,1 -1,1 1,1 0,1 2,0 1,1 4,0 1,1 4,0 1,1 5,0 1,1 5,0 1,1 3,0 1,1 4,0 1,1 4,0 1,1 5,0 1,1 3,0 1,1 3,0 1,1 4,0 1,1 5,0 1,1 4,0 1,1 4,0 1,1 4,0 1,1 3,0 1,1 1,1 10,0 1,1 0,1 5,0 1,1 2,0 0,-1 1,-1 2,0 1,1 4,0 1,1 4,0 1,1 1,0 1,1 0,1 1,1 4,0 1,1 4,0 1,1 3,0 1,1 4,0 1,1 3,0 0,-1 1,-1 1,0 0,-1 1,-1 0,-2 1,-1 0,-2 1,-1 0,-2 1,-1 0,-2 1,-1 0,-2 1,-1 0,-2 1,-1 0,-2 1,-1 0,-2 1,-1 0,-2 1,-1 0,-2 1,-1 0,-2 1,-1 0,-2 1,-1 0,-2 1,-1 0,-2 1,-1 0,-2 1,-1 0,-2 1,-1 0,-2 1,-1 0,-1 -1,-1 0,-3 1,-1 0,-2 1,-1 2,0 0,-5 -4,0 -1,1 -6,0 -1,1 -6,0 -1,1 -6,0 -1,1 -3,0 -1,1 -4,0 -1,1 -3,0 -1,1 -4,0 -1,1 -3,0 -1,1 -4,0 -1,1 -3,0 -1,1 -4,0 -1,1 -3,0 -1,1 -3,0 -1,1 -3,0 -1,1 -3,0 -1,1 -4,0 -1,1 -6,0 -1,1 -6,0 -1,1 -6,0 -1,1 -6,0 -1,1 -4,0 -1,1 -4,0 -1,1 -11,0 -1,1 -4,0 -1,1 -4,0 -1,1 -2,0 -1,1 -2,0 -1,1 -2,0 -1,1 -1,0 -1,1 -1,1 -1,0 -1,1 -1,0 -1,1 -1,0 -1,1 -1,0 -1,1 -1,0 -1,1Z"/>
<path onmouseover="hoverPath(evt)" onmouseout="recoverPath(evt)" fill="rgb(242,237,227)" d="M  94,114l 0,1 1,1 0,2 1,1 0,3 1,1 0,3 1,1 0,2 1,1 0,4 2,0 1,-1 2,0 1,-1 2,0 1,-1 1,0 0,-1 1,-1 2,0 1,1 2,0 1,-1 2,0 1,-1 3,0 1,-1 3,0 1,-1 2,0 1,-1 1,0 0,-2 1,-1 1,0 0,-1 -2,0 -1,-1 -3,0 -1,-1 -2,0 -1,-1 -4,0 -1,-1 -4,0 -1,-1 -4,0 -1,-1 -5,0 -1,-1 -4,0 -1,-1 -2,0 -1,1Z"/>
<path onmouseover="hoverPath(evt)" onmouseout="recoverPath(evt)" fill="rgb(171,198,238)" d="M  98,148l -1,0 0,1 1,1 0,3 1,1 0,2 1,1 0,2 1,1 0,2 1,1 0,2 1,1 0,2 1,1 0,3 1,1 0,2 1,1 0,3 1,1 0,2 1,1 0,2 1,1 0,1 1,1 0,2 1,1 0,1 1,1 0,1 1,1 0,2 1,1 0,1 1,1 0,2 1,1 0,1 1,1 0,1 1,1 0,2 1,1 0,1 1,1 0,1 1,1 0,2 1,1 0,1 1,1 0,1 1,1 0,1 1,1 0,2 1,1 0,2 1,1 0,2 1,1 0,2 1,1 0,3 1,1 0,2 1,1 0,2 1,1 0,1 1,1 0,2 1,1 0,2 1,1 0,2 2,0 0,-3 -1,-1 0,-2 -1,-1 0,-3 -1,-1 0,-2 -1,-1 0,-2 -1,-1 0,-2 -1,-1 0,-3 -1,-1 0,-4 -1,-1 0,-2 -1,-1 0,-3 -1,-1 0,-1 -1,-1 0,-3 -1,-1 0,-2 -1,-1 0,-2 -1,-1 0,-2 -1,-1 0,-3 -1,-1 0,-2 -1,-1 0,-2 -1,-1 0,-1 -1,-1 0,-2 -1,-1 0,-2 -1,-1 0,-2 -1,-1 0,-2 -1,-1 0,-1 -1,-1 0,-2 -1,-1 0,-2 -1,-1 0,-2 -1,-1 0,-1 -1,-1 0,-1 -1,-1 0,-2 -1,-1 0,-1 -1,-1 0,-2 -1,-1 0,-1 -1,-1 0,-1 -1,-1 0,-2 -1,-1 0,-1 -1,-1 0,-1 -2,0 -1,1Z"/>
<path onmouseover="hoverPath(evt)" onmouseout="recoverPath(evt)" fill="rgb(244,243,235)" d="M  103,146l 0,1 1,1 0,1 1,1 0,2 1,1 0,1 1,1 0,1 1,1 0,2 1,1 0,1 1,1 0,2 1,1 0,1 1,1 0,1 1,1 0,2 1,1 0,2 1,1 0,2 1,1 0,1 1,1 0,2 1,1 0,2 1,1 0,2 1,1 0,2 1,1 0,1 1,1 0,2 1,1 0,2 1,1 0,3 1,1 0,2 1,1 0,2 1,1 0,2 1,1 0,3 1,1 0,1 1,1 0,3 1,1 0,2 1,1 0,4 1,1 0,3 1,1 0,2 1,1 0,2 1,1 0,2 1,1 0,3 1,1 0,2 1,1 0,4 116,0 0,-58 -12,0 0,1 -1,1 0,2 -1,1 -2,0 -1,-1 0,-8 -1,-1 0,-9 -1,-1 0,-7 -1,-1 0,-8 -1,-1 0,-8 -1,-1 0,-8 -2,0 -1,-1 0,-5 -1,0 -1,-1 -1,-1 0,-1 -1,0 -1,-1 -3,0 -1,-1 -4,0 -1,-1 -2,0 0,1 -1,1 -2,0 -1,-1 -1,0 -1,-1 0,-1 -1,-1 -4,0 -1,-1 -3,0 -1,-1 -4,0 -1,-1 -3,0 0,1 -1,1 -3,0 -1,-1 -1,-1 -6,0 -1,-1 -2,0 0,1 -1,1 -3,0 -1,1 -4,0 -1,-1 0,-1 -1,2 -1,0 -1,1 -2,0 -1,-1 -1,-1 -3,0 -1,1 -1,0 0,1 -1,1 -4,0 -1,1 -3,0 -1,-1 -1,0 -1,-1 -3,0 -1,1 -5,0 -1,1 -3,0 -1,1 -2,0 -1,1 -3,0 -1,1 -3,0 -1,1 -3,0 -1,1 -2,0 -1,1 -2,0 -1,1 -2,0 -1,1 -2,0 -1,1 2,0 1,1Z"/>
<path onmouseover="hoverPath(evt)" onmouseout="recoverPath(evt)" fill="rgb(243,240,231)" d="M  239,142l 0,0 -1,-1 -4,0 -1,-1 -1,0 0,6 2,0 1,1 0,8 1,1 0,8 1,1 0,8 1,1 0,7 1,1 0,9 1,1 0,8 1,-3 0,-1 1,-1 13,0 0,-50 -1,0 0,1 -1,1 -2,0 -1,-1 -1,-1 0,-1 -1,0 -1,-1 -3,0 -1,-1Z"/>
<path onmouseover="hoverPath(evt)" onmouseout="recoverPath(evt)" fill="rgb(250,248,244)" d="M  254,74l 0,1 -1,1 0,2 -1,1 0,2 -1,1 0,2 -1,1 0,2 -1,1 0,2 -1,1 0,2 -1,1 0,2 -1,1 0,2 -1,1 0,2 -1,1 0,2 -1,1 0,2 -1,1 0,2 -1,1 0,2 -1,1 0,2 -1,1 0,2 -1,1 0,2 -1,1 0,2 -1,1 0,1 1,1 0,1 1,1 1,0 0,-3 -1,-1 0,-3 1,-1 0,-2 1,-1 0,-2 1,-1 0,-2 1,-1 0,-2 1,-1 0,-2 1,-1 0,-2 1,-1 0,-2 1,-1 0,-2 1,-1 0,-2 1,-1 0,-2 1,-1 0,-2 1,-1 0,-2 1,-1 0,-1 1,-1 0,-3 1,-1 2,0 0,-6 -1,-1 1,-1 0,-6 -1,0 0,2 -1,1 0,1 1,1 1,1 -1,1Z"/>
<path onmouseover="hoverPath(evt)" onmouseout="recoverPath(evt)" fill="rgb(244,243,235)" d="M  0,39l 0,27 3,0 1,1 6,0 1,1 6,0 1,1 1,0 0,-32 -17,0 -1,-1 -1,0Z"/>
<path onmouseover="hoverPath(evt)" onmouseout="recoverPath(evt)" fill="rgb(241,231,141)" d="M  0,89l 0,4 4,0 1,1 0,1 4,0 1,1 6,0 1,1 5,0 1,1 5,0 1,1 3,0 1,1 4,0 1,1 5,0 1,1 6,0 1,1 5,0 1,1 4,0 1,1 5,0 1,1 4,0 1,1 5,0 1,1 4,0 1,-1 3,0 1,1 2,0 1,1 1,0 1,1 0,1 5,0 1,1 4,0 1,1 5,0 1,1 4,0 1,1 4,0 1,1 4,0 1,1 2,0 1,1 3,0 1,1 2,0 1,1 2,0 1,1 1,0 1,1 1,1 4,0 0,-2 1,-1 5,0 1,1 10,0 0,-1 1,-1 2,0 1,1 7,0 -1,-1 0,0 -1,-1 -3,0 -1,-1 -4,0 -1,-1 -4,0 -1,-1 -4,0 -1,-1 -5,0 -1,-1 -4,0 -1,-1 -3,0 -1,-1 -3,0 -1,-1 -5,0 -1,-1 -4,0 -1,-1 -4,0 -1,-1 -3,0 -1,-1 -5,0 -1,-1 -5,0 -1,-1 -4,0 -1,-1 -4,0 -1,-1 -1,0 -1,1 -3,0 -1,-1 -1,0 -1,-1 0,-1 -5,0 -1,-1 -6,0 -1,-1 -5,0 -1,-1 -4,0 -1,-1 -5,0 -1,-1 -5,0 -1,-1 -6,0 -1,-1 -4,0 -1,-1 -4,0 -1,-1 -1,0 -1,-1 0,-7 -1,-1 0,-5 -1,-1 0,-2 -1,-1 0,-73 -4,0 0,31 -1,1 1,0 1,1 0,3 -1,1 0,33 -1,1 -3,0 -1,-1 -6,0 -1,-1 -6,0 -1,-1 -2,0 0,3 4,0 1,1 6,0 1,1 5,0 1,1 2,0 1,1 0,3 1,1 0,9 -1,1 -6,0 -1,-1 -6,0 -1,-1 -7,0Z"/>
<path onmouseover="hoverPath(evt)" onmouseout="recoverPath(evt)" fill="rgb(250,201,109)" d="M  10,199l 0,0 -1,1 -4,0 -1,1 0,2 -2,2 -2,0 0,10 2,0 0,-1 1,-1 1,-1 4,0 0,-2 1,-1 1,-1 0,-1 1,-1 2,-2 1,-1 2,0 1,-1 1,-1 0,-1 1,-1 2,-2 1,0 1,-1 1,-1 1,-1 3,0 1,-1 1,-1 1,0 1,-1 0,-2 1,-1 1,-1 0,-1 1,-1 1,-1 4,0 0,-2 1,-1 1,-1 2,0 1,-1 1,0 0,-2 1,-1 1,-1 2,0 1,-1 1,0 1,-1 0,-2 1,-1 0,-1 1,-1 1,-1 1,-1 2,0 1,-1 0,-1 1,-1 5,0 0,-3 1,-1 1,0 1,-1 1,0 1,-1 1,-1 1,0 1,-1 4,0 1,-1 1,0 0,-2 1,-1 1,0 1,-1 1,0 1,-1 1,0 1,-1 1,0 1,-1 1,0 1,-1 1,0 1,-1 3,0 1,1 0,-2 1,-1 1,0 1,-1 2,0 1,-1 2,0 1,-1 2,0 1,-1 2,0 1,-1 3,0 1,-1 3,0 1,-1 3,0 1,-1 2,0 1,-1 3,0 1,-1 5,0 1,-1 5,0 1,1 1,0 1,1 1,0 1,-1 4,0 0,-1 1,-1 1,0 1,-1 5,0 1,1 1,1 1,-1 1,0 0,-1 1,-1 2,0 1,1 0,1 2,0 1,-1 3,0 0,-1 1,-1 4,0 1,1 6,0 1,1 1,1 1,0 0,-1 1,-1 5,0 1,1 4,0 1,1 3,0 1,1 4,0 1,1 1,1 0,1 1,0 1,1 0,-1 1,-1 4,0 1,1 4,0 1,1 3,0 1,1 1,0 1,1 0,1 1,1 0,-1 1,-1 3,0 1,1 4,0 1,1 4,0 1,1 3,0 1,1 1,0 1,1 0,1 1,1 0,-1 1,-1 2,0 0,-7 -6,0 -1,-1 -1,-1 0,-1 -1,-1 -4,0 -1,-1 0,1 -1,1 -3,0 -1,-1 -1,-1 0,-1 -1,-1 0,1 -1,1 -5,0 -1,-1 -4,0 -1,-1 -3,0 -1,-1 -4,0 -1,-1 -4,0 -1,-1 -1,-1 0,-1 -1,0 -1,-1 -4,0 -1,-1 -4,0 -1,-1 0,1 -1,1 -4,0 -1,-1 -5,0 -1,-1 0,-1 -8,0 0,1 -1,1 -9,0 -1,-1 0,1 -1,1 -12,0 -1,-1 -3,0 0,2 -1,1 -6,0 -1,-1 -1,-1 -1,0 -1,-1 -1,0 0,1 -1,1 -1,0 0,2 -1,1 -1,0 -1,1 -2,0 -1,1 -3,0 -1,1 -3,0 -1,1 -2,0 -1,1 -4,0 -1,-1 0,1 -1,1 -1,0 -1,1 -2,0 -1,1 -2,0 -1,1 -3,0 -1,1 -3,0 -1,-1 0,2 -1,1 -2,0 -1,-1 -1,1 -1,0 -1,1 -1,0 -1,1 -1,0 -1,1 -1,0 0,2 -1,1 -1,0 -1,1 -1,0 -1,1 -3,0 -1,-1 0,3 -1,1 -2,0 -1,-1 -1,0 0,3 -1,1 -1,0 -1,1 -1,1 -4,0 0,1 -1,1 -3,0 0,3 -1,1 -2,2 -2,0 0,1 -1,1 -1,1 -1,1 -2,0 -1,1 -2,0 -1,1 -1,0 0,2 -1,1 -1,1 -3,0 0,2 -1,1 0,1 -1,1 -4,0 0,2 -1,1 -1,1 -1,1 -2,0 -1,1 -1,0 -1,1 0,1 -1,1 -2,0 -1,1 -1,1 -1,1 -2,2 0,2 -1,1 -1,1 -1,1 0,1 -1,1Z"/>
<path onmouseover="hoverPath(evt)" onmouseout="recoverPath(evt)" fill="rgb(243,241,232)" d="M  13,25l 0,-14 -1,-1 0,-10 -12,0 0,29 11,0 1,-1 0,-1 1,-1Z"/>
<path onmouseover="hoverPath(evt)" onmouseout="recoverPath(evt)" fill="rgb(246,245,239)" d="M  15,27l 0,0 -1,1 0,1 -1,1 -1,1 -12,0 0,3 2,0 1,1 17,0 0,-1 -4,0 -1,-1 0,-2 1,-1 3,0 0,-30 -5,0 0,9 1,1Z"/>
<path onmouseover="hoverPath(evt)" onmouseout="recoverPath(evt)" fill="rgb(173,198,232)" d="M  28,73l 0,2 2,0 1,1 13,0 1,-1 5,0 1,-1 5,0 1,-1 5,0 1,-1 2,0 1,-1 3,0 1,-1 3,0 1,-1 5,0 1,1 1,0 1,1 0,1 1,1 0,11 -1,1 0,5 1,1 0,3 1,1 0,3 1,1 0,1 1,0 1,1 1,0 0,-1 -1,-1 0,-2 1,-1 0,-1 1,-1 1,-1 1,0 1,-1 1,0 1,-1 1,0 1,-1 1,0 1,-1 1,0 1,-1 1,-1 1,0 1,-1 2,0 1,-1 2,0 1,-1 2,0 1,-1 4,0 1,-1 4,0 1,-1 11,0 1,-1 4,0 1,-1 4,0 1,-1 6,0 1,-1 6,0 1,-1 6,0 1,-1 6,0 1,-1 4,0 1,-1 3,0 1,-1 3,0 1,-1 3,0 1,-1 3,0 1,-1 4,0 1,-1 3,0 1,-1 4,0 1,-1 3,0 1,-1 4,0 1,-1 3,0 1,-1 4,0 1,-1 3,0 1,-1 6,0 1,-1 6,0 1,-1 6,0 1,-1 5,0 0,-1 -12,0 -1,1 -6,0 -1,1 -6,0 -1,1 -6,0 -1,1 -5,0 -1,1 -5,0 -1,1 -4,0 -1,1 -4,0 -1,1 -5,0 -1,1 -3,0 -1,1 -2,0 -1,1 -3,0 -1,1 -3,0 -1,1 -3,0 -1,1 -3,0 -1,1 -4,0 -1,1 -4,0 -1,1 -5,0 -1,1 -6,0 -1,1 -5,0 -1,1 -6,0 -1,1 -7,0 -1,1 -4,0 -1,1 -4,0 -1,1 -5,0 -1,1 -3,0 -1,1 -2,0 -1,1 -2,0 -1,1 -1,0 -1,1 -1,0 -1,1 -1,0 -1,1 -1,0 -1,1 -1,0 -1,1 -2,0 -1,-1 -1,-1 -1,-1 0,-3 1,-1 0,-12 -1,-1 0,-1 -1,-1 0,-1 -1,-1 0,-1 -1,-1 0,-1 -1,-1 0,-1 -1,-1 0,-1 -1,-1 0,-1 -1,-1 0,-1 -1,-1 0,-2 -1,-1 0,-3 -1,-1 0,-3 -1,-1 0,-2 -1,-1 0,-2 -1,-1 0,-1 -1,-1 0,-1 -1,-1 0,-1 -1,-1 0,-1 -1,-1 0,-1 -1,-1 0,-2 -1,-1 0,-1 -1,-1 0,-1 -1,-1 0,-2 -1,-1 0,-1 -1,-1 0,-1 -1,-1 0,-1 -1,-1 0,-2 -1,-1 0,-1 -1,-1 0,-1 -1,-1 0,-4 -4,0 0,1 1,1 0,1 1,1 0,2 1,1 0,1 1,1 0,1 1,1 0,2 1,1 0,2 1,1 0,1 1,1 0,2 1,1 0,2 1,1 0,1 1,1 0,2 1,1 0,2 1,1 0,1 1,1 0,1 1,1 0,1 1,1 0,1 1,1 0,1 1,1 0,1 1,1 0,3 1,1 0,2 1,1 0,3 1,1 0,7 -1,1 0,1 -1,1 -1,1 -1,0 -1,1 -1,0 -1,1 -3,0 -1,1 -3,0 -1,1 -3,0 -1,1 -7,0 -1,1 -17,0 -1,-1 -1,0 -1,1 -1,-1 0,0 1,1Z"/>
<path onmouseover="hoverPath(evt)" onmouseout="recoverPath(evt)" fill="rgb(244,243,237)" d="M  29,1l 0,69 2,0 1,1 15,0 1,-1 7,0 1,-1 3,0 1,-1 3,0 1,-1 3,0 1,-1 1,0 1,-1 1,0 1,-1 0,-1 1,-1 0,-5 -1,-1 0,-3 -1,-1 0,-2 -1,-1 0,-3 -1,-1 0,-1 -1,-1 0,-1 -1,-1 0,-1 -1,-1 0,-1 -1,-1 0,-1 -1,-1 0,-1 -1,-1 0,-2 -1,-1 0,-2 -1,-1 0,-1 -1,-1 0,-2 -1,-1 0,-2 -1,-1 0,-1 -1,-1 0,-2 -1,-1 0,-2 -1,-1 0,-1 -1,-1 0,-1 -1,-1 0,-2 -1,-1 0,-1 -1,-1 0,-2 -21,0 -1,1Z"/>
<path onmouseover="hoverPath(evt)" onmouseout="recoverPath(evt)" fill="rgb(244,243,235)" d="M  59,1l 0,2 1,1 0,1 1,1 0,1 1,1 0,2 1,1 0,1 1,1 0,1 1,1 0,1 1,1 0,2 1,1 0,1 1,1 0,1 1,1 0,2 1,1 0,1 1,1 0,1 1,1 0,1 1,1 0,1 1,1 0,1 1,1 0,2 1,1 0,2 1,1 0,3 1,1 0,3 1,1 0,2 1,1 0,1 1,1 0,1 1,1 0,1 1,1 0,1 1,1 0,1 1,1 0,1 1,1 0,1 1,1 0,1 1,1 0,14 -1,1 0,1 1,1 1,1 1,-1 1,0 1,-1 1,0 1,-1 1,0 1,-1 1,0 1,-1 1,0 1,-1 2,0 1,-1 2,0 1,-1 3,0 1,-1 5,0 1,-1 4,0 1,-1 4,0 1,-1 7,0 1,-1 6,0 1,-1 5,0 1,-1 6,0 1,-1 5,0 1,-1 4,0 1,-1 4,0 1,-1 3,0 1,-1 3,0 1,-1 3,0 1,-1 3,0 1,-1 2,0 1,-1 3,0 1,-1 5,0 1,-1 4,0 1,-1 4,0 1,-1 5,0 1,-1 5,0 1,-1 6,0 1,-1 6,0 1,-1 6,0 1,-1 13,0 0,-30 -2,0 -1,-1 0,-3 -1,-1 0,-3 -1,-1 0,-2 -1,-1 0,-3 -1,-1 0,-3 -1,-1 -2,0 -1,1 -5,0 -1,1 -5,0 -1,1 -4,0 -1,1 -4,0 -1,1 -5,0 -1,1 -4,0 -1,1 -4,0 -1,1 -4,0 -1,1 -4,0 -1,1 -4,0 -1,1 -5,0 -1,1 -4,0 -1,1 -4,0 -1,1 -4,0 -1,1 -4,0 -1,1 -4,0 -1,1 -5,0 -1,1 -4,0 -1,1 -4,0 -1,1 -4,0 -1,1 -4,0 -1,1 -5,0 -1,1 -5,0 -1,1 -5,0 -1,1 -5,0 -1,1 -5,0 -1,1 -4,0 -1,1 -4,0 -1,1 -2,0 -1,1 -2,0 -1,-1 0,-3 1,-1 1,-1 2,0 0,-2 1,-1 3,0 1,1 5,0 1,-1 5,0 1,-1 5,0 1,-1 5,0 1,-1 5,0 1,-1 5,0 1,-1 4,0 1,-1 4,0 1,-1 4,0 1,-1 4,0 1,-1 4,0 1,-1 4,0 1,-1 5,0 1,-1 4,0 1,-1 4,0 1,-1 4,0 1,-1 4,0 1,-1 4,0 1,-1 5,0 1,-1 4,0 1,-1 4,0 1,-1 4,0 1,-1 4,0 1,-1 5,0 1,-1 4,0 1,-1 4,0 1,-1 5,0 0,-1 -181,0 -1,1Z"/>
<path onmouseover="hoverPath(evt)" onmouseout="recoverPath(evt)" fill="rgb(172,197,232)" d="M  87,111l 0,0 1,1 0,4 1,1 0,2 1,1 0,3 1,1 0,3 1,1 0,3 1,1 0,2 2,0 1,1 1,0 0,-4 -1,-1 0,-2 -1,-1 0,-3 -1,-1 0,-3 -1,-1 0,-2 -1,-1 0,-3 -1,-1 0,-1 -1,0 -1,-1 -1,0 -1,1Z"/>
<path onmouseover="hoverPath(evt)" onmouseout="recoverPath(evt)" fill="rgb(242,240,229)" d="M  253,87l 0,1 -1,1 0,2 -1,1 0,2 -1,1 0,2 -1,1 0,2 -1,1 0,2 -1,1 0,2 -1,1 0,2 -1,1 0,2 -1,1 0,2 -1,1 0,2 -1,1 0,2 -1,1 0,2 -1,1 0,1 1,1 0,2 1,0 1,1 4,0 1,1 1,1 0,1 1,1 5,0 0,-51 -1,0 0,3 -1,1Z"/>
</svg>