<svg width="256" height="256" xmlns="http://www.w3.org/2000/svg"><script> 
var tempColor;
function hoverPath(evt){
obj = evt.target;
tempColor = obj.getAttribute("fill");
obj.setAttribute("fill","red");
//alert(tempColor);
//obj.setAttribute("stroke","red");}
function recoverPath(evt){
obj = evt.target;
obj.setAttribute("fill", tempColor);
//obj.setAttribute("stroke", tempColor);
}</script><path onmouseover="hoverPath(evt)" onmouseout="recoverPath(evt)" fill="rgb(244,244,237)" d="M  0,1l 0,63 1,0 1,-1 1,-1 1,-1 1,0 1,-1 1,-1 1,0 1,-1 1,-1 1,-1 1,0 1,-1 1,-1 1,-1 1,0 1,-1 1,-1 1,0 1,-1 1,-1 1,-1 1,0 1,-1 2,-2 1,0 1,-1 1,-1 1,-1 1,0 1,-1 1,-1 1,0 1,-1 1,-1 1,-1 1,0 1,-1 1,-1 1,-1 1,0 2,-2 1,0 1,-1 1,-1 1,-1 1,0 1,-1 1,-1 1,-1 1,0 2,-2 1,-1 1,0 1,-1 1,-1 1,0 1,-1 1,-1 1,-1 1,0 1,-1 1,-1 1,-1 1,0 1,-1 1,-1 1,0 2,-2 1,-1 1,0 1,-1 1,-1 1,0 1,-1 1,-1 1,0 1,-1 1,-1 1,-1 1,0 1,-1 1,-1 1,0 0,-1 -87,0 -1,1Z"/>
<path onmouseover="hoverPath(evt)" onmouseout="recoverPath(evt)" fill="rgb(170,198,238)" d="M  0,186l 0,3 1,0 1,-1 4,0 1,-1 5,0 1,-1 4,0 1,-1 4,0 1,-1 4,0 1,-1 5,0 1,-1 4,0 1,-1 4,0 1,-1 4,0 1,-1 5,0 1,-1 4,0 1,-1 4,0 1,-1 4,0 1,-1 5,0 1,-1 4,0 1,-1 3,0 1,1 1,1 0,2 1,1 0,5 1,1 0,41 1,1 0,4 1,1 0,3 1,1 0,2 1,1 0,3 1,1 0,1 1,1 0,2 1,1 0,1 1,1 0,2 1,1 0,3 6,0 0,-1 -1,-1 0,-1 -1,-1 0,-2 -1,-1 0,-2 -1,-1 0,-2 -1,-1 0,-2 -1,-1 0,-2 -1,-1 0,-2 -1,-1 0,-2 -1,-1 0,-2 -1,-1 0,-2 -1,-1 0,-36 -1,-1 0,-9 -1,-1 0,-9 -1,-1 0,-9 -1,-1 0,-8 -1,-1 0,-9 -1,-1 0,-9 -1,-1 0,-8 -1,-1 0,-11 1,-1 2,0 1,-1 4,0 1,-1 3,0 1,-1 4,0 1,-1 4,0 1,-1 3,0 1,-1 4,0 1,-1 4,0 1,-1 4,0 1,-1 3,0 1,-1 4,0 1,-1 4,0 1,-1 3,0 1,-1 4,0 1,-1 4,0 1,-1 4,0 1,-1 3,0 1,-1 4,0 1,-1 4,0 1,-1 3,0 1,-1 4,0 1,-1 4,0 1,-1 3,0 1,-1 1,0 0,-1 -2,1 -3,0 -1,1 -4,0 -1,1 -4,0 -1,1 -4,0 -1,1 -4,0 -1,1 -4,0 -1,1 -4,0 -1,1 -4,0 -1,1 -4,0 -1,1 -3,0 -1,1 -4,0 -1,1 -4,0 -1,1 -3,0 -1,1 -4,0 -1,1 -4,0 -1,1 -3,0 -1,1 -4,0 -1,1 -4,0 -1,1 -3,0 -1,1 -4,0 -1,1 -4,0 -1,1 -6,0 -1,-1 0,-3 -1,0 -1,1 -2,0 0,1 1,1 0,6 1,1 0,13 1,1 0,13 1,1 0,12 1,1 0,13 1,1 0,2 -1,1 -1,1 -1,1 -3,0 -1,1 -4,0 -1,1 -5,0 -1,1 -5,0 -1,1 -4,0 -1,1 -5,0 -1,1 -4,0 -1,1 -5,0 -1,1 -5,0 -1,1 -4,0 -1,1 -5,0 -1,1 -5,0 -1,1 -4,0 -1,1 -5,0 -1,1 -4,0 -1,1Z"/>
<path onmouseover="hoverPath(evt)" onmouseout="recoverPath(evt)" fill="rgb(243,243,237)" d="M  2,191l -2,0 0,64 95,0 0,-2 -1,-1 0,-2 -1,-1 0,-1 -1,-1 0,-2 -1,-1 0,-1 -1,-1 0,-3 -1,-1 0,-2 -1,-1 0,-3 -1,-1 0,-4 -1,-1 0,-41 -1,-1 0,-5 -1,-1 0,-2 -1,-1 -1,0 -1,1 -4,0 -1,1 -5,0 -1,1 -4,0 -1,1 -4,0 -1,1 -4,0 -1,1 -5,0 -1,1 -4,0 -1,1 -4,0 -1,1 -4,0 -1,1 -5,0 -1,1 -4,0 -1,1 -4,0 -1,1 -4,0 -1,1 -5,0 -1,1 -4,0 -1,1Z"/>
<path onmouseover="hoverPath(evt)" onmouseout="recoverPath(evt)" fill="rgb(243,243,235)" d="M  3,71l 0,0 -1,1 -2,0 0,44 1,0 1,-1 0,-2 1,-1 0,-1 1,-1 1,-1 1,-1 1,0 1,-1 1,0 0,-1 1,-1 1,-1 1,-1 1,-1 2,0 1,-1 1,-1 2,0 0,-1 1,-1 3,0 1,-1 4,0 -2,-1 0,0 -1,-1 0,-5 1,-1 4,0 1,1 1,0 0,-1 1,-1 1,0 1,-1 1,0 0,-1 1,-1 2,0 1,-1 1,0 0,-1 1,-1 2,0 0,-1 1,-1 0,-1 -1,-1 0,0 -1,-1 0,-5 1,-1 4,0 1,1 1,1 1,0 1,1 2,0 1,-1 1,0 1,-1 1,-1 1,-1 1,0 0,-3 -1,-1 0,-8 1,-1 0,-2 -1,-1 0,-2 -1,-1 0,-1 -1,-1 0,-2 -1,-1 0,-1 -1,-1 0,-2 -1,-1 0,-1 -1,-1 0,-2 -1,-1 0,-1 -1,0 -1,1 0,0 -2,2 -1,0 -3,3 -1,0 -1,1 -1,1 -1,1 -1,0 -1,1 -1,1 -1,1 -1,0 -1,1 -1,1 -1,1 -1,0 -1,1 -1,1 -1,1 -1,0 -1,1 -1,1 -1,1 -1,0 -2,2 -1,0 -3,3 -1,0 -1,1 -1,1 -1,1 -1,0 -1,1 -1,1 -1,1 -1,0 -1,1 -1,1 -1,1 -1,0 -1,1Z"/>
<path onmouseover="hoverPath(evt)" onmouseout="recoverPath(evt)" fill="rgb(243,243,236)" d="M  4,127l 0,0 -1,1 -3,0 0,55 4,0 1,-1 5,0 1,-1 4,0 1,-1 5,0 1,-1 5,0 1,-1 4,0 1,-1 5,0 1,-1 5,0 1,-1 4,0 1,-1 5,0 1,-1 4,0 1,-1 5,0 1,-1 5,0 1,-1 4,0 1,-1 3,0 1,-1 1,-1 -1,-1 0,-13 -1,-1 0,-12 -1,-1 0,-13 -1,-1 0,-13 -1,-1 0,-6 -1,-1 0,-3 1,-1 2,0 1,-1 -4,0 -1,-1 -1,-1 0,-3 -1,-1 0,-2 -1,-1 0,-2 -1,-1 0,-2 -1,-1 0,-2 -1,-1 0,-2 -1,-1 -1,1 -1,1 -2,0 0,1 -1,1 -1,0 0,4 -1,1 -1,1 -3,0 -1,1 -1,0 -1,1 -3,0 -1,1 -1,0 0,3 -1,1 -2,0 -1,1 -2,0 -1,1 0,3 -1,1 -2,0 0,2 -1,1 -4,0 -1,1 0,5 -1,1 -5,0 -1,-1 -1,0 0,2 -1,1 -2,0 -1,1 0,1 -1,1 -4,0 0,5 -1,1 -1,0 -1,1 -4,0 -1,1 -2,0 -1,1 -1,1 -1,1Z"/>
<path onmouseover="hoverPath(evt)" onmouseout="recoverPath(evt)" fill="rgb(234,226,155)" d="M  42,86l -1,0 -1,1 -2,0 0,1 -1,1 -1,0 -1,1 -1,0 0,1 -1,1 -3,0 -1,-1 -2,0 0,3 1,1 1,0 1,1 0,2 -1,1 -4,0 -1,1 -3,0 0,1 -1,1 -2,0 -1,1 -1,1 -2,0 -1,1 -1,1 -1,1 0,1 -1,1 -1,0 -1,1 -1,0 -1,1 -1,1 0,1 -1,1 0,2 -1,1 -1,1 -2,0 0,8 2,0 2,-2 1,-1 1,-1 2,0 1,-1 4,0 1,-1 1,0 0,-5 1,-1 4,0 0,-1 1,-1 1,-1 2,0 0,-2 1,-1 3,0 1,1 3,0 0,-5 1,-1 1,-1 4,0 0,-2 1,-1 2,0 0,-3 1,-1 1,-1 2,0 1,-1 2,0 0,-3 1,-1 1,0 1,-1 3,0 1,-1 1,0 1,-1 3,0 1,-1 0,-4 1,-1 1,0 0,-1 1,-1 0,-2 -1,-1 0,-3 -3,0 -1,1 0,0 -1,1 -1,1 -1,0 -1,1 -4,0 -1,-1 -1,0 -1,-1 -1,-1 -2,0 0,3 1,1 0,0 1,1 0,3 -1,1 0,1 -1,1 -2,0 0,1 -1,1Z"/>
<path onmouseover="hoverPath(evt)" onmouseout="recoverPath(evt)" fill="rgb(170,198,238)" d="M  57,42l 0,1 1,1 0,1 1,1 0,2 1,1 0,1 1,1 0,2 1,1 1,-1 1,0 0,-1 -1,-1 0,0 -1,-1 0,-1 -1,-1 0,-2 -1,-1 0,-1 -1,-1 0,-1 -1,-1 -1,1 1,-3 -1,-1 0,-1 -1,-1 0,-1 -1,-1 0,-4 1,-1 1,-1 1,-1 1,-1 1,0 1,-1 1,-1 1,0 1,-1 1,-1 1,-1 1,0 1,-1 1,-1 1,0 1,-1 1,-1 1,-1 1,-1 1,0 1,-1 1,0 1,-1 1,-1 1,0 1,-1 1,-1 1,0 1,-1 1,0 1,-1 1,-1 1,0 1,-1 1,-1 1,0 1,-1 1,0 1,-1 1,-1 1,0 1,-1 1,-1 -8,0 0,2 -1,1 -1,0 -1,1 -1,1 -1,0 -1,1 -1,1 -1,1 -1,0 -1,1 -1,1 -1,0 -1,1 -1,1 -1,0 -1,1 -1,1 -1,1 -1,0 -1,1 -1,1 -1,0 -1,1 -1,1 -1,1 -1,0 -1,1 -1,1 -1,1 -1,0 -1,1 -1,1 -1,0 -1,1 -1,1 -1,1 -1,0 -2,2 -1,1 -1,0 -1,1 -1,1 -1,1 -1,0 -1,1 -1,1 -1,0 -1,1 -1,1 -1,1 -1,0 -1,1 -1,1 -1,1 -1,0 -1,1 -1,1 -1,0 -1,1 -1,1 -1,1 -1,0 -1,1 -1,1 -1,1 -1,0 -1,1 -1,1 -1,1 -1,0 -1,1 -1,1 -1,0 -1,1 -1,1 -1,1 -1,0 -1,1 -2,2 -1,0 -1,1 -1,1 -1,0 -1,1 -1,1 -1,1 -2,0 0,4 1,0 1,-1 0,0 1,-1 1,0 1,-1 1,-1 1,-1 1,0 1,-1 1,-1 1,-1 1,0 1,-1 1,-1 1,-1 1,0 1,-1 1,-1 1,-1 1,0 1,-1 1,-1 1,0 1,-1 2,-2 1,0 3,-3 1,0 2,-2 1,-1 1,0 1,-1 1,-1 1,-1 1,0 1,-1 1,-1 1,-1 1,0 1,-1 1,-1 1,-1 1,0 1,-1 1,-1 1,-1 3,0 1,1 0,1 1,1 0,2 1,1 0,1 2,-1 -1,3Z"/>
<path onmouseover="hoverPath(evt)" onmouseout="recoverPath(evt)" fill="rgb(237,235,206)" d="M  65,73l 0,1 1,1 0,3 1,-1 1,-1 2,0 1,1 1,1 0,2 1,1 0,2 1,1 0,2 1,1 0,2 1,1 0,2 1,1 0,3 1,1 3,0 0,-1 -1,-1 0,-2 -1,-1 0,-2 -1,-1 0,-2 -1,-1 0,-2 -1,-1 0,-2 -1,-1 0,-2 -1,-1 0,-1 -1,-1 0,-2 1,-1 1,-1 1,-1 1,-1 1,0 1,-1 1,-1 1,0 1,-1 2,-2 1,-1 1,0 0,-1 1,-1 2,0 1,-1 0,-1 1,-1 2,0 1,-1 1,-1 1,0 1,-1 0,-1 1,-1 2,0 1,-1 1,-1 1,0 1,-1 0,-1 1,-1 2,0 1,-1 1,-1 1,0 1,-1 0,-1 1,-1 2,0 1,-1 0,-1 1,-1 2,0 1,-1 0,-1 1,-1 2,0 1,-1 0,-1 1,-1 2,0 1,-1 0,-1 1,-1 2,0 1,-1 1,-1 1,0 1,-1 1,-1 1,0 1,-1 1,-1 1,0 1,-1 1,-1 1,0 1,-1 0,-1 1,-1 2,0 1,-1 1,0 1,-1 1,-1 1,0 1,-1 1,-1 1,0 1,-1 1,0 1,-1 1,-1 1,0 1,-1 1,-1 1,0 1,-1 1,0 1,-1 1,0 1,-1 1,0 1,-1 1,-1 1,0 1,-1 1,0 1,-1 1,0 1,-1 1,0 1,-1 1,0 0,-1 -79,0 0,1 -1,1 -1,1 -1,1 -1,0 -1,1 -1,1 -1,0 -1,1 -1,0 -1,1 -1,1 -1,0 -1,1 -1,1 -1,0 -1,1 -1,0 -1,1 -1,1 -1,0 -1,1 -1,1 -1,0 -1,1 -1,0 -1,1 -1,1 -1,1 -1,1 -1,0 -1,1 -1,1 -1,0 -1,1 -1,1 -1,1 -1,0 -1,1 -1,1 -1,0 -1,1 -1,1 -1,1 0,2 1,1 0,1 1,1 0,1 1,1 0,2 1,1 0,1 1,1 0,1 1,1 0,2 1,1 0,1 1,1 1,1 0,3 -1,1 -1,0 -1,1 -1,0 0,2 -1,1 0,6 1,1 0,4 2,0 1,1Z"/>
<path onmouseover="hoverPath(evt)" onmouseout="recoverPath(evt)" fill="rgb(243,243,236)" d="M  79,71l -1,0 -1,1 -1,1 -1,1 1,1 0,1 1,1 0,2 1,1 0,2 1,1 0,2 1,1 0,2 1,1 0,2 1,1 0,2 1,1 3,0 1,1 0,-1 1,-1 3,0 1,1 1,1 2,0 1,1 1,0 0,-1 1,-1 2,0 1,-1 1,-1 1,-1 2,0 0,-1 1,-1 3,0 1,1 1,0 0,-1 1,-1 2,0 1,1 1,1 2,0 1,1 1,0 0,-1 1,-1 1,0 0,-1 1,-1 3,0 1,1 2,0 1,-1 1,-1 1,0 1,-1 1,0 0,-1 1,-1 3,0 1,1 1,1 2,0 1,1 1,0 0,-1 1,-1 2,0 1,-1 1,-1 1,-1 4,0 1,1 1,1 0,-2 1,-1 2,0 1,1 0,1 1,0 0,-1 1,-1 2,0 1,-1 4,0 0,-3 1,-1 3,0 1,1 1,1 0,-1 1,-1 2,0 1,1 0,-1 1,-1 1,0 0,-1 1,-1 3,0 1,1 1,0 1,-1 2,0 1,-1 1,0 1,-1 1,-1 2,0 0,-13 -1,-1 0,-9 -1,-1 0,-12 -1,-1 0,-11 -1,-1 -1,-1 0,-5 1,-1 0,-3 -1,-1 0,-10 -10,0 0,2 -1,1 -1,0 -1,1 -1,0 -1,1 -1,0 -1,1 -1,0 -1,1 -1,0 -1,1 -1,1 -1,0 -1,1 -1,0 -1,1 -1,0 -1,1 -1,0 -1,1 -1,1 -1,0 -1,1 -1,1 -1,0 -1,1 -1,0 -1,1 -1,1 -1,0 -1,1 -1,1 -1,0 -1,1 -2,0 0,1 -1,1 -1,1 -1,0 -1,1 -1,1 -1,0 -1,1 -1,1 -1,0 -1,1 -1,1 -1,0 -1,1 -1,1 -2,0 0,1 -1,1 -1,1 -2,0 0,1 -1,1 -1,1 -2,0 0,1 -1,1 -1,1 -2,0 0,1 -1,1 -1,1 -2,0 0,1 -1,1 -1,1 -1,0 -1,1 -1,1 -2,0 0,1 -1,1 -1,1 -1,0 -1,1 -1,1 -2,0 0,1 -1,1 -1,1 -1,0 -1,1 -1,1 -2,0 0,1 -1,1 -1,1 -2,0 0,1 -1,1 -1,0 -3,3 -1,1 -1,0 -1,1 -1,1Z"/>
<path onmouseover="hoverPath(evt)" onmouseout="recoverPath(evt)" fill="rgb(242,241,236)" d="M  85,101l 0,2 4,0 1,-1 4,0 1,-1 4,0 1,-1 3,0 1,-1 4,0 1,-1 4,0 1,-1 3,0 1,-1 4,0 1,-1 4,0 1,-1 3,0 1,-1 4,0 1,-1 4,0 1,-1 3,0 1,-1 4,0 1,-1 4,0 1,-1 4,0 1,-1 4,0 1,-1 4,0 1,-1 4,0 1,-1 4,0 1,-1 4,0 1,-1 4,0 1,-1 3,0 1,-1 0,-2 1,-1 0,-5 -1,0 -1,1 -1,1 -1,0 -1,1 -2,0 -1,1 -3,0 -1,-1 -1,0 0,1 -1,1 -1,0 0,1 -1,1 -2,0 -1,-1 0,1 -1,1 -2,0 -2,-2 -1,0 0,3 -1,1 -4,0 -1,1 -2,0 0,1 -1,1 -3,0 -1,-1 0,1 -1,1 -2,0 -1,-1 -1,-1 -2,0 -2,2 -1,1 -2,0 0,1 -1,1 -3,0 -1,-1 -2,0 -1,-1 -1,-1 -1,0 0,1 -1,1 -1,0 -1,1 -1,0 -1,1 -1,1 -4,0 -1,-1 -1,0 0,1 -1,1 -1,0 0,1 -1,1 -3,0 -1,-1 -2,0 -1,-1 -1,-1 0,1 -1,1 -3,0 -1,-1 -1,0 0,1 -1,1 -2,0 -1,1 -1,1 -1,1 -2,0 0,1 -1,1 -3,0 -1,-1 -2,0 -1,-1 -1,-1 -1,0 0,1 -1,1 -2,0 -1,-1 -2,0 2,1Z"/>
<path onmouseover="hoverPath(evt)" onmouseout="recoverPath(evt)" fill="rgb(244,243,237)" d="M  88,109l -2,0 0,9 1,1 0,8 1,1 0,9 1,1 0,9 1,1 0,8 1,1 0,9 1,1 0,9 1,1 0,9 1,1 0,36 1,1 0,2 1,1 0,2 1,1 0,2 1,1 0,2 1,1 0,2 1,1 0,2 1,1 0,2 1,1 0,2 1,1 0,2 1,1 0,1 1,1 0,2 105,0 0,-8 -1,-1 0,-10 -1,-1 0,-11 -1,-1 0,-11 -1,-1 0,-10 -1,-1 0,-11 -1,-1 0,-11 -1,-1 0,-10 -1,-1 0,-11 -1,-1 0,-11 -1,-1 0,-11 -1,-1 0,-10 -1,-1 0,-11 -1,-1 0,-11 -1,-1 0,-8 -4,0 -1,1 -3,0 -1,1 -4,0 -1,1 -4,0 -1,1 -3,0 -1,1 -4,0 -1,1 -4,0 -1,1 -3,0 -1,1 -4,0 -1,1 -4,0 -1,1 -4,0 -1,1 -3,0 -1,1 -4,0 -1,1 -4,0 -1,1 -3,0 -1,1 -4,0 -1,1 -4,0 -1,1 -4,0 -1,1 -3,0 -1,1 -4,0 -1,1 -4,0 -1,1 -3,0 -1,1 -4,0 -1,1Z"/>
<path onmouseover="hoverPath(evt)" onmouseout="recoverPath(evt)" fill="rgb(170,198,238)" d="M  195,83l -1,0 0,1 3,0 1,1 0,8 1,1 0,11 1,1 0,11 1,1 0,10 1,1 0,11 1,1 0,11 1,1 0,11 1,1 0,10 1,1 0,11 1,1 0,11 1,1 0,10 1,1 0,11 1,1 0,11 1,1 0,10 1,1 0,9 13,0 0,-6 -1,-1 0,-9 -1,-1 0,-10 -1,-1 0,-9 -1,-1 0,-10 -1,-1 0,-10 -1,-1 0,-4 1,-1 1,-1 7,0 1,-1 15,0 1,-1 10,0 0,-3 -2,0 -1,1 -21,0 -1,1 -10,0 -1,-1 0,-2 -1,-1 0,-15 -1,-1 0,-10 -1,-1 0,-10 -1,-1 0,-10 -1,-1 0,-10 -1,-1 0,-11 -1,-1 0,-10 -1,-1 0,-10 -1,-1 0,-11 -1,-1 0,-11 -1,-1 0,-10 -1,-1 0,-11 -1,-1 0,-11 -1,-1 0,-10 -1,-1 0,-11 -1,-1 0,-6 -10,0 0,9 1,1 0,5 -1,1 0,3 1,1 1,1 0,11 1,1 0,12 1,1 0,9 1,1 0,22 -1,1 0,2 -1,1 -1,1Z"/>
<path onmouseover="hoverPath(evt)" onmouseout="recoverPath(evt)" fill="rgb(243,243,237)" d="M  205,1l 0,4 1,1 0,11 1,1 0,10 1,1 0,11 1,1 0,11 1,1 0,10 1,1 0,11 1,1 0,11 1,1 0,10 1,1 0,10 1,1 0,11 1,1 0,10 1,1 0,10 1,1 0,10 1,1 0,10 1,1 0,15 1,1 0,2 8,0 1,-1 21,0 1,-1 3,0 0,-182 -49,0 -1,1Z"/>
<path onmouseover="hoverPath(evt)" onmouseout="recoverPath(evt)" fill="rgb(243,243,237)" d="M  221,192l 0,2 1,1 0,10 1,1 0,10 1,1 0,9 1,1 0,10 1,1 0,9 1,1 0,7 28,0 0,-66 -9,0 -1,1 -15,0 -1,1 -7,0 -1,1Z"/>
</svg>