<svg width="256" height="256" xmlns="http://www.w3.org/2000/svg"><script> 
var tempColor;
function hoverPath(evt){
obj = evt.target;
tempColor = obj.getAttribute("fill");
obj.setAttribute("fill","red");
//alert(tempColor);
//obj.setAttribute("stroke","red");}
function recoverPath(evt){
obj = evt.target;
obj.setAttribute("fill", tempColor);
//obj.setAttribute("stroke", tempColor);
}</script><path onmouseover="hoverPath(evt)" onmouseout="recoverPath(evt)" fill="rgb(245,235,140)" d="M  0,1l 0,7 3,0 1,-1 33,0 1,-1 28,0 1,-1 2,0 1,-1 18,0 1,1 15,0 1,-1 8,0 1,1 1,0 1,-1 22,0 1,-1 21,0 1,1 0,-1 1,-1 3,0 1,1 0,27 1,-27 0,0 1,-1 24,0 1,-1 32,0 0,-1 -224,0 -1,1Z"/>
<path onmouseover="hoverPath(evt)" onmouseout="recoverPath(evt)" fill="rgb(244,243,236)" d="M  1,10l -1,0 0,104 6,0 1,-1 29,0 1,-1 1,-1 2,0 1,1 16,0 1,-1 9,0 -8,-1 0,-20 1,-1 0,-6 1,-1 0,-6 1,-1 0,-5 1,-1 0,-6 1,-1 0,-6 1,-1 0,-6 1,-1 0,-9 1,-1 0,-12 1,-1 0,-11 1,-1 0,-6 -1,0 -1,1 -28,0 -1,1 -33,0 -1,1Z"/>
<path onmouseover="hoverPath(evt)" onmouseout="recoverPath(evt)" fill="rgb(243,242,233)" d="M  0,201l 0,34 3,0 0,-2 1,-1 5,0 1,-1 6,0 1,-1 8,0 1,1 0,-3 -2,0 -1,-1 0,-4 -1,-1 0,-4 -1,-1 0,-5 -1,-1 0,-5 -1,-1 0,-7 1,-1 0,-1 -1,-1 -11,0 -1,1 -7,0Z"/>
<path onmouseover="hoverPath(evt)" onmouseout="recoverPath(evt)" fill="rgb(244,243,236)" d="M  0,239l 0,16 62,0 0,-15 -1,-1 0,-20 1,-1 0,-7 1,-1 -1,-1 0,-15 -1,-1 0,-19 -1,-1 0,-5 -1,-1 0,-5 -1,-1 0,-37 1,-1 0,-10 -1,1 -18,0 -1,-1 -1,1 -1,1 -29,0 -1,1 -7,0 0,78 6,0 1,-1 13,0 1,1 1,1 0,3 -1,1 0,5 1,1 0,5 1,1 0,5 1,1 0,4 1,1 0,4 2,0 1,1 0,5 -1,1 -2,0 -1,-1 -6,0 -1,1 -6,0 -1,1 -5,0 0,2 -1,1 -4,0Z"/>
<path onmouseover="hoverPath(evt)" onmouseout="recoverPath(evt)" fill="rgb(254,254,254)" d="M  164,4l -1,0 0,35 -1,1 0,32 -1,1 0,20 1,0 0,-17 1,-1 0,-32 1,-1Z"/>
<path onmouseover="hoverPath(evt)" onmouseout="recoverPath(evt)" fill="rgb(244,243,236)" d="M  171,111l 3,0 1,1 8,0 0,-1 1,-1 1,0 1,-1 2,0 1,1 0,3 9,0 1,1 5,0 0,-1 1,-1 3,0 1,1 0,2 10,0 1,1 6,0 0,-3 1,-1 5,0 1,1 5,0 1,1 0,3 2,0 0,-1 1,-1 4,0 1,1 0,1 1,0 1,1 6,0 0,-118 -28,0 0,2 -1,1 -32,0 -1,1 -24,0 -1,1 0,26 -1,1 -1,0 0,11 -1,1 0,32 -1,1 0,17 -1,1 -3,0 -1,-1 0,-22 1,-1 0,-32 1,-1 0,-7 -1,0 -1,-1 0,-25 -19,0 -1,1 -22,0 -1,1 -3,0 -1,-1 -6,0 -1,1 -15,0 0,5 -1,1 0,19 -1,1 0,7 -1,1 0,8 -1,1 0,5 -1,1 0,5 -1,1 0,5 -1,1 0,5 -1,1 0,5 -1,1 0,8 -1,1 0,21 8,0 1,1 0,1 5,0 1,-1 1,0 0,-1 1,-1 10,0 1,1 0,1 9,0 0,-1 1,-1 10,0 1,1 0,1 5,0 1,-1 1,0 0,-1 1,-1 10,0 1,1 0,1 9,0 0,-1 1,-1 3,0 1,1 5,0 1,1 0,1Z"/>
<path onmouseover="hoverPath(evt)" onmouseout="recoverPath(evt)" fill="rgb(171,198,238)" d="M  61,114l 0,10 -1,1 0,35 1,1 0,5 1,1 0,5 1,1 0,19 1,1 0,15 1,1 0,2 -1,1 0,7 -1,1 0,18 1,1 0,16 12,0 0,-5 1,-1 0,-8 1,-1 0,-13 1,-1 0,-24 1,-1 0,-13 1,-1 0,-6 1,-1 0,-3 1,-1 0,-3 1,-1 0,-2 1,-1 0,-1 1,-1 0,-1 1,-1 0,-1 1,-1 0,-1 1,-1 0,-1 1,-1 0,-1 1,-1 0,-2 1,-1 0,-1 1,-1 0,-13 1,-1 0,-5 -1,-1 0,0 -1,-1 -1,-1 -1,-1 -1,-1 -1,-1 0,-1 -1,-1 -1,-1 -1,-1 -1,-1 -1,-1 -1,-1 -1,-1 0,-1 -1,-1 -1,-1 0,-2 -1,-1 0,-1 -1,0 -1,-1 -7,0 0,1 -1,1 -6,0 -1,1 28,28 0,2 -1,1 0,1 -1,1 -1,1 0,1 -2,2 -1,1 0,1 -1,1 0,1 -1,1 0,2 -1,1 -1,1 0,1 -1,1 0,1 -1,1 -1,1 -2,0 -1,-1 0,-2 -1,-1 0,-1 -1,-1 0,-9 -1,-1 0,-1 -1,-1 0,-1 -1,-1 0,-3 1,-1 0,-2 1,-1 0,-1 1,-1 0,-2 1,-1 0,-2 1,-1 0,-3 1,-1 1,-1 2,0 1,1 1,1 0,1 1,1 1,1 0,1 1,1 0,1 1,1 1,1 1,1 0,1 1,1 1,1 1,1 0,1 1,1 -28,-28Z"/>
<path onmouseover="hoverPath(evt)" onmouseout="recoverPath(evt)" fill="rgb(171,198,238)" d="M  71,7l 0,7 -1,1 0,11 -1,1 0,12 -1,1 0,9 -1,1 0,6 -1,1 0,6 -1,1 0,6 -1,1 0,5 -1,1 0,6 -1,1 0,6 -1,1 0,18 16,0 1,1 0,-22 1,-1 0,-8 1,-1 0,-5 1,-1 0,-5 1,-1 0,-5 1,-1 0,-5 1,-1 0,-5 1,-1 0,-8 1,-1 0,-7 1,-1 0,-19 1,-1 0,-4 -1,-1 -15,0 -1,1Z"/>
<path onmouseover="hoverPath(evt)" onmouseout="recoverPath(evt)" fill="rgb(245,244,237)" d="M  75,129l 0,2 -1,1 0,2 -1,1 0,2 -1,1 0,1 -1,1 0,2 -1,1 0,1 1,1 0,1 1,1 0,1 1,1 0,9 1,1 0,1 1,1 0,2 1,-1 0,-1 1,-1 0,-1 1,-1 1,-1 0,-2 1,-1 0,-1 1,-1 0,-1 3,-3 0,-1 2,-2 0,-1 1,-1 -1,-1 0,-1 -1,-1 -1,-1 -1,-1 0,-1 -1,-1 -1,-1 -1,-1 0,-1 -1,-1 0,-1 -1,-1 -1,-1 0,-1 -1,-1 -1,1Z"/>
<path onmouseover="hoverPath(evt)" onmouseout="recoverPath(evt)" fill="rgb(244,243,236)" d="M  81,114l 0,1 1,1 1,1 0,1 1,1 1,1 1,1 1,1 1,1 1,1 1,1 0,1 1,1 1,1 1,1 1,1 1,1 1,1 0,7 -1,1 0,13 -1,1 0,1 -1,1 0,2 -1,1 0,1 -1,1 0,1 -1,1 0,1 -1,1 0,1 -1,1 0,1 -1,1 0,1 -1,1 0,2 -1,1 0,3 -1,1 0,3 -1,1 0,6 -1,1 0,13 -1,1 0,24 -1,1 0,13 -1,1 0,8 -1,1 0,4 177,0 0,-99 -37,0 -1,1 -47,0 -1,1 -7,0 -1,-1 0,-3 1,-1 46,0 1,-1 46,0 0,-32 -7,0 -1,-1 -1,0 -1,-1 0,-1 -2,0 0,1 -1,1 -4,0 -1,-1 0,-3 -5,0 -1,-1 -3,0 0,3 -1,1 -8,0 -1,-1 -10,0 -1,-1 0,-2 -1,0 0,1 -1,1 -7,0 -1,-1 -9,0 -1,-1 0,-3 -1,1 -1,0 0,1 -1,1 -10,0 -1,-1 -6,0 -1,-1 0,-1 -5,0 -1,-1 -1,0 0,1 -1,1 -11,0 -1,-1 0,-1 -8,0 0,1 -1,1 -1,0 -1,1 -7,0 -1,-1 0,-1 -8,0 0,1 -1,1 -11,0 -1,-1 0,-1 -8,0 0,1 -1,1 -1,0 -1,1 -7,0 -1,-1 0,-1 -7,0 1,1Z"/>
<path onmouseover="hoverPath(evt)" onmouseout="recoverPath(evt)" fill="rgb(254,254,254)" d="M  217,154l -7,0 -1,1 -46,0 0,1 5,0 42,-1 6,0 1,-1Z"/>
</svg>