<svg width="256" height="256" xmlns="http://www.w3.org/2000/svg"><script> 
var tempColor;
function hoverPath(evt){
obj = evt.target;
tempColor = obj.getAttribute("fill");
obj.setAttribute("fill","red");
//alert(tempColor);
//obj.setAttribute("stroke","red");}
function recoverPath(evt){
obj = evt.target;
obj.setAttribute("fill", tempColor);
//obj.setAttribute("stroke", tempColor);
}</script><path onmouseover="hoverPath(evt)" onmouseout="recoverPath(evt)" fill="rgb(171,197,237)" d="M  0,112l 0,12 2,0 1,1 0,1 1,1 1,1 5,5 0,1 2,2 1,1 1,1 1,1 1,1 0,1 1,1 1,1 1,1 1,1 1,1 1,1 0,1 1,1 1,1 1,1 1,1 1,1 0,1 1,1 1,1 1,1 1,1 0,1 1,1 1,1 2,2 0,1 1,1 1,1 1,1 1,1 0,1 1,1 1,1 1,1 1,1 0,1 1,1 1,1 1,1 1,1 0,1 1,1 1,1 1,1 1,1 0,1 4,0 1,1 3,0 1,1 4,0 1,1 0,2 4,0 2,-2 1,-1 1,-1 1,-1 1,-1 1,-1 1,0 1,-1 1,-1 1,0 1,-1 1,0 1,-1 1,0 1,-1 1,0 1,-1 1,0 1,-1 1,-1 1,0 1,-1 1,0 0,-1 -1,-1 0,0 -1,-1 0,-2 -1,0 -1,-1 -1,0 -1,1 0,0 -1,1 -1,0 -1,1 -1,0 -1,1 -1,0 -2,2 -1,0 -1,1 -1,0 -1,1 -1,0 -1,1 -1,0 -1,1 -1,0 -1,1 -1,0 -1,1 -6,0 -1,-1 -2,0 -1,-1 -1,-1 -1,0 -1,-1 -1,-1 -1,-1 -1,-1 0,-1 -1,-1 -1,-1 -1,-1 -1,-1 -1,-1 0,-1 -1,-1 -1,-1 -1,-1 -1,-1 0,-1 -1,-1 -2,-2 -1,-1 0,-1 -1,-1 -1,-1 -1,-1 -1,-1 -1,-1 0,-1 -1,-1 -1,-1 -1,-1 -1,-1 -1,-1 -1,-1 0,-1 -1,-1 -1,-1 -1,-1 -1,-1 -1,-1 -1,-1 0,-1 -1,-1 -1,-1 -1,-1 -1,-1 0,-1 -1,-1 -1,-1 -2,-2 0,-1 -1,-1 -1,-1 -1,-1 -1,-1 -1,-1 0,-1 -1,-1 -1,-1 -1,-1 -1,-1 0,-1 -1,-1 -1,-1 -1,-1 -1,1Z"/>
<path onmouseover="hoverPath(evt)" onmouseout="recoverPath(evt)" fill="rgb(244,241,233)" d="M  0,128l 0,32 1,0 1,1 1,0 1,1 1,1 0,3 1,1 1,0 1,1 1,0 1,1 1,0 1,1 1,0 1,1 1,-1 2,0 1,1 1,0 1,1 0,2 1,0 1,1 0,-1 1,-1 2,0 1,1 1,0 1,1 1,0 1,1 0,2 1,1 1,-1 4,0 1,1 0,1 4,0 1,1 1,1 0,1 1,1 2,0 1,1 2,0 0,-1 -1,-1 0,0 -1,-1 -1,-1 -1,-1 0,-1 -1,-1 -1,-1 -1,-1 -1,-1 0,-1 -1,-1 -2,-2 -1,-1 0,-1 -1,-1 -1,-1 -1,-1 -1,-1 0,-1 -1,-1 -1,-1 -1,-1 -1,-1 0,-1 -1,-1 -1,-1 -1,-1 -1,-1 0,-1 -1,-1 -1,-1 -1,-1 -1,-1 -1,-1 0,-1 -1,-1 -1,-1 -2,-2 -1,-1 -1,-1 0,-1 -1,-1 -1,-1 -1,-1 -1,-1 -1,-1 -1,-1 0,-1 -1,-1 -1,-1 -1,-1 -1,-1 -1,-1 -1,-1 -1,-1 -1,1Z"/>
<path onmouseover="hoverPath(evt)" onmouseout="recoverPath(evt)" fill="rgb(245,244,237)" d="M  1,184l 0,-2 1,-1 -2,0 0,3 1,0 -1,3 0,44 1,0 1,-1 1,0 1,-1 2,0 1,-1 10,0 1,-1 1,-1 0,-2 1,-1 0,-1 1,-1 1,-1 1,0 0,-1 -2,0 -1,-1 0,-2 -1,-1 0,-1 -1,-1 0,-1 -1,-1 -1,-1 0,-1 -1,-1 -1,-1 0,-1 -1,-1 0,-1 -1,-1 -1,-1 0,-1 -1,-1 -1,-1 0,-1 -1,-1 -1,-1 -1,-1 0,-1 -1,-1 0,-1 -1,-1 0,-2 -1,-1 0,-1 -3,0 1,-3Z"/>
<path onmouseover="hoverPath(evt)" onmouseout="recoverPath(evt)" fill="rgb(239,240,235)" d="M  0,88l 0,17 1,-1 0,0 1,-1 1,-1 1,-1 1,0 1,-1 1,-1 0,-1 1,-1 1,0 1,-1 1,-1 1,-1 1,-1 0,-1 1,-1 1,-1 1,-1 3,-3 1,0 1,-1 3,0 0,-1 1,-1 2,0 0,-1 1,-1 1,0 1,-1 1,-1 1,-1 1,0 1,-1 3,-3 1,-1 0,-1 1,-1 1,0 1,-1 1,-1 1,-1 1,-1 4,0 1,1 1,1 1,1 0,2 1,1 0,1 1,1 1,1 1,1 0,2 1,1 0,1 1,1 1,1 1,1 0,1 1,0 1,1 0,1 1,1 0,1 1,1 0,1 1,0 -1,-2 -1,-2 0,-4 1,-1 1,0 1,-1 3,-3 0,-1 1,-1 1,-1 0,-1 1,-1 1,-1 0,-8 1,-1 0,-1 1,-1 0,-1 1,-1 1,-1 0,-1 1,-1 1,-1 0,-2 1,-1 1,0 1,-1 1,-1 1,-1 1,0 1,-1 1,-1 1,-1 1,-1 1,-1 0,-1 1,-1 1,0 1,-1 1,-1 0,-1 1,-1 1,-1 0,-1 1,-1 1,-1 3,-3 1,-1 1,0 1,-1 1,-1 2,0 1,-1 1,0 1,-1 1,-1 1,0 3,-3 1,-1 1,-1 1,-1 0,-1 1,-1 2,0 1,-1 1,-1 1,-1 1,0 1,-1 1,0 1,-1 1,0 1,-1 1,0 1,-1 1,0 1,-1 1,-1 2,0 0,-1 1,-1 1,0 1,-1 2,0 0,-1 1,-1 2,0 1,-1 1,-1 1,0 0,-1 -65,0 0,2 -1,1 -1,1 -1,0 -1,1 -1,1 -1,1 -1,0 -1,1 -1,1 -1,0 -1,1 -1,1 0,2 -1,1 -1,1 -4,0 -1,1 -1,1 -1,0 -1,1 -1,1 0,2 -1,1 -1,1 -4,0 -1,1 -2,2 0,1 3,0 1,1 1,1 0,2 -1,1 1,1 0,4 -1,1 0,1 -1,1 0,3 -1,1 -1,1 -2,0 -1,-1 -1,1 0,2 -1,1 -2,0 -1,-1 -1,1 0,0 -1,1 -1,0 -1,1 -1,0 -1,1 -1,0 -1,1 -1,1 -1,0 0,2 -1,1 -2,0 -1,-1 -1,1 -1,0 -1,1 -1,1 -1,0 0,2 -1,1 -2,0 -1,-1 -1,1 -1,0 -1,1 -1,0 -1,1 -1,1 -1,0 0,2 -1,1 -2,0 -1,-1 -1,1 0,0 -1,1 -1,1 0,11 -1,1 0,1 -1,1 0,1 -1,1 -1,1 -2,0Z"/>
<path onmouseover="hoverPath(evt)" onmouseout="recoverPath(evt)" fill="rgb(250,250,247)" d="M  7,64l -1,0 -1,1 -1,1 -1,1 0,12 -1,1 -2,0 0,4 1,0 1,-1 0,-1 1,-1 0,-1 1,-1 0,-11 1,-1 1,-1 1,-1 0,-1 1,-1 1,1 1,0 1,1 0,-2 1,-1 1,0 1,-1 1,-1 1,0 1,-1 1,0 1,-1 2,0 1,1 0,-2 1,-1 1,0 1,-1 1,-1 1,0 1,-1 2,0 1,1 0,-2 1,-1 1,0 1,-1 1,-1 1,0 1,-1 1,0 1,-1 1,0 1,-1 1,-1 2,0 1,1 0,-2 1,-1 1,-1 2,0 1,1 1,-1 0,-3 1,-1 0,-1 1,-1 0,-2 -1,-1 0,-2 1,-1 -1,-1 -3,0 -1,-1 0,-3 1,-1 1,-1 1,-1 1,-1 4,0 1,-1 0,-2 1,-1 1,-1 1,-1 1,0 1,-1 1,-1 4,0 1,-1 0,-2 1,-1 1,-1 1,-1 1,0 2,-2 1,0 2,-2 1,-1 1,0 1,-1 0,-1 -3,0 0,2 -1,1 -1,0 -1,1 -1,1 -4,0 -1,1 0,2 -1,1 -1,1 -1,1 -1,0 -1,1 -1,1 -4,0 -1,1 0,2 -1,1 -1,1 -1,1 -1,0 -1,1 -1,1 -2,0 0,1 -1,1 -1,1 -1,0 0,4 1,1 0,0 1,1 1,1 1,0 1,1 0,6 -1,1 -1,1 -1,0 -1,1 -1,1 -1,0 -1,1 -1,1 -1,0 -1,1 -2,0 -1,-1 0,2 -1,1 -1,1 -1,0 -1,1 -2,0 -1,-1 0,2 -1,1 -1,0 -1,1 -1,1 -1,0 -1,1 -2,0 -1,-1 0,2 -1,1 -1,0 -1,1 -1,1 -1,0 -1,1 -1,0 -1,1 -2,0 -1,-1 0,2 -1,1 -1,0 -1,1 -1,1Z"/>
<path onmouseover="hoverPath(evt)" onmouseout="recoverPath(evt)" fill="rgb(244,241,233)" d="M  81,204l 0,2 1,1 1,1 1,1 1,1 1,1 0,1 1,1 1,1 1,1 1,1 1,1 0,1 1,1 1,1 1,1 1,1 1,1 0,1 1,1 1,1 1,1 1,1 1,1 0,1 1,1 1,1 1,1 1,1 0,1 1,1 1,1 1,1 1,1 0,1 1,1 1,1 1,1 1,1 1,1 1,1 1,1 0,1 1,1 1,1 1,1 1,1 1,1 0,2 25,0 0,-2 1,-1 1,0 1,-1 2,0 1,-1 1,0 1,-1 2,0 1,-1 1,0 1,-1 1,0 1,-1 2,0 1,-1 1,0 1,-1 2,0 1,-1 1,0 1,-1 2,0 1,-1 1,0 1,-1 1,0 1,-1 3,0 1,-1 1,0 0,-1 1,-1 2,0 1,-1 1,0 1,-1 2,0 1,-1 1,0 1,-1 1,0 1,-1 2,0 1,-1 1,0 1,-1 1,0 1,-1 2,0 1,-1 1,0 1,-1 1,0 1,-1 1,0 1,-1 2,0 1,-1 -3,0 -1,-1 -3,0 -1,-1 0,-1 -1,1 -2,0 -1,-1 -1,-1 0,2 -1,1 -2,0 -1,-1 -3,0 -1,-1 0,-1 -1,1 -2,0 -1,-1 0,1 -1,1 -3,0 -1,-1 -1,0 -1,-1 0,-1 -1,2 -3,0 -1,-1 -1,-1 0,-1 -2,0 -1,-1 -5,0 -1,-1 -6,0 -1,-1 -5,0 -1,-1 -4,0 -1,1 0,0 -1,1 -2,0 -1,-1 -1,0 -1,-1 -1,0 -1,1 -2,0 -1,-1 -1,0 -1,-1 -1,1 -2,0 -1,-1 -1,0 -1,-1 0,-1 -2,0 -1,-1 -6,0 -1,-1 -1,0 0,1 -1,1 -2,0 -1,-1 -1,1 -3,0 -1,-1 -1,-1 0,-1 -1,-1 -5,0 -1,-1 -5,0 -1,-1 -3,0 0,1 -1,1 -3,0 -1,-1 -1,-1 0,-1 -1,1 -4,0 -1,-1 -1,1 90,17 1,1 0,2 -1,1 -2,0 -1,-1 0,-2 1,-1 2,0 -90,-17 92,23 2,0 1,1 1,1 0,2 -1,1 -2,0 -1,-1 -1,-1 0,-2 1,-1 -92,-23Z"/>
<path onmouseover="hoverPath(evt)" onmouseout="recoverPath(evt)" fill="rgb(244,243,236)" d="M  135,71l -2,0 -1,1 1,1 0,0 1,1 1,1 0,1 1,1 1,1 1,0 1,1 0,2 1,1 1,1 1,1 1,0 1,1 0,2 1,1 1,1 1,1 1,0 1,1 1,0 1,1 1,1 0,4 1,1 2,0 1,1 1,1 0,4 1,1 1,1 0,1 1,1 1,1 1,1 0,1 1,1 1,1 1,0 1,1 1,0 1,1 1,1 0,4 1,1 2,-2 1,0 1,-1 1,0 1,-1 1,0 1,-1 1,0 1,-1 1,-1 1,0 1,-1 1,0 1,-1 1,0 1,-1 1,0 1,-1 1,0 1,-1 1,-1 1,0 1,-1 1,0 1,-1 1,0 1,-1 1,0 1,-1 1,-1 1,0 1,-1 1,0 1,-1 1,0 1,-1 1,0 1,-1 1,0 1,-1 1,-1 1,0 1,-1 1,0 1,-1 1,0 1,-1 1,0 1,-1 1,0 1,-1 1,-1 1,0 1,-1 1,0 1,-1 1,0 1,-1 1,0 1,-1 1,0 1,-1 1,-1 1,0 1,-1 1,0 1,-1 1,0 1,-1 1,0 1,-1 1,0 1,-1 1,-1 1,0 1,-1 1,0 1,-1 1,0 1,-1 1,0 1,-1 2,0 0,-72 -1,0 -1,1 0,0 -1,1 -1,0 -1,1 -1,0 -1,1 -1,0 -1,1 -2,0 -1,-1 -1,1 0,2 -1,1 -1,1 -1,0 -1,1 -1,1 -1,0 -1,1 -1,0 -1,1 -1,0 -1,1 -1,1 -1,0 -1,1 -1,0 -1,1 -1,0 -1,1 -1,0 -1,1 -1,1 -1,0 -1,1 -1,0 -1,1 -1,0 -1,1 -1,1 -1,0 -1,1 -2,0 -1,-1 -1,1 0,2 -1,1 -2,0 -1,-1 -1,1 0,2 -1,1 -1,1 -1,1 -1,0 -1,1 -2,0 -1,-1 -1,1 0,0 -1,1 -1,0 -1,1 0,2 -1,1 -1,0 -1,1 -1,1 -1,0 -1,1 -1,0 -1,1 -1,0 -1,1 -1,1 -1,0 -1,1 -1,0 -1,1 -1,0 -1,1 -1,1 -1,0 -1,1 -1,0 -1,1 -2,0 -1,-1 0,2 -1,1 -1,0 -1,1 -1,0 -1,1 -1,0 -1,1 -1,0 -1,1 -1,1 -1,0 -1,1 -1,0 -1,1 -1,0 -1,1 -1,0 -1,1 -1,0 -1,1 -1,0 -1,1 -1,0 -1,1 -2,0 -1,1 -1,0 -1,1 -1,0 -1,1Z"/>
<path onmouseover="hoverPath(evt)" onmouseout="recoverPath(evt)" fill="rgb(244,243,236)" d="M  180,128l 0,0 -1,1 -2,0 0,1 1,0 1,1 1,0 2,2 0,4 1,1 1,1 0,1 1,1 1,1 1,1 0,1 1,1 1,1 2,0 1,1 1,1 0,4 1,1 1,0 1,1 0,2 1,1 1,1 1,1 1,0 1,1 0,2 1,1 1,1 1,0 1,1 0,2 1,1 1,1 1,1 2,0 1,1 1,1 0,4 1,1 1,1 0,1 1,1 1,1 2,0 1,1 1,1 0,4 1,1 1,1 0,1 1,1 1,1 0,1 1,1 2,0 1,1 1,1 0,1 1,1 1,1 0,2 -1,1 1,1 0,0 1,1 1,1 1,1 0,1 1,1 0,2 1,-2 3,0 1,1 1,1 1,0 1,-1 5,0 1,-1 6,0 0,-120 -1,0 -1,1 -1,0 -1,1 -1,0 -1,1 -1,0 -1,1 -1,0 -1,1 -1,0 -1,1 -1,0 -1,1 -1,0 -1,1 -1,0 -1,1 -1,1 -1,0 -1,1 -1,0 -1,1 -1,0 -1,1 -1,0 -1,1 -1,0 -1,1 -1,0 -1,1 -1,1 -1,0 -1,1 -1,0 -1,1 -1,0 -1,1 -1,0 -1,1 -1,0 -1,1 -1,0 -1,1 -1,1 -1,0 -1,1 -1,0 -1,1 -1,0 -1,1 -1,0 -1,1 -1,0 -1,1 -1,1 -1,0 -1,1 -1,0 -1,1 -1,0 -1,1 -1,0 -1,1 -1,1 -1,0 -1,1 -1,0 -1,1 -1,0 -1,1 -1,0 -1,1 -1,0 -1,1Z"/>
<path onmouseover="hoverPath(evt)" onmouseout="recoverPath(evt)" fill="rgb(243,243,236)" d="M  3,105l -1,1 -1,1 -1,0 0,2 2,0 1,1 1,1 1,1 1,1 0,1 3,3 1,1 0,1 1,1 1,1 1,1 1,1 1,1 0,1 1,1 1,1 1,1 1,1 0,1 1,1 1,1 1,1 1,1 0,1 1,1 1,1 1,1 1,1 1,1 1,1 0,1 1,1 1,1 1,1 1,1 1,1 1,1 0,1 1,1 1,1 1,1 1,1 1,1 0,1 1,1 1,1 1,1 1,1 0,1 1,1 1,1 1,1 1,1 0,1 1,1 1,1 1,1 1,1 1,1 0,1 1,1 1,1 1,1 1,0 1,1 1,1 2,0 1,1 4,0 1,-1 1,0 1,-1 1,0 1,-1 1,0 1,-1 1,0 1,-1 1,0 1,-1 1,0 1,-1 1,-1 1,0 1,-1 1,0 1,-1 1,0 1,-1 1,-1 1,0 0,-2 1,-1 2,0 1,1 1,-1 1,0 1,-1 1,-1 1,0 1,-1 1,0 1,-1 1,0 1,-1 1,-1 1,0 1,-1 1,0 1,-1 1,0 1,-1 1,-1 1,0 1,-1 1,0 1,-1 -1,-1 0,-3 1,-1 0,-1 -1,-1 -1,-1 -1,-1 -1,0 -1,-1 0,-1 -3,-3 0,-1 -1,-1 -1,-1 -1,-1 0,-1 -1,-1 -1,-1 -1,-1 -1,-1 -1,-1 -1,-1 -1,0 -1,-1 0,-2 -1,-1 -1,0 -1,-1 0,-1 -1,-1 -1,-1 -1,-1 -1,-1 -1,-1 -1,-1 -2,0 -1,-1 0,-1 -1,-1 -1,-1 -1,-1 -1,0 -1,-1 -1,-1 -1,-1 -1,-1 -1,-1 0,-1 -1,-1 -1,-1 -1,-1 -1,-1 -1,-1 -1,-1 -1,-1 0,-1 -1,-1 -4,0 -1,-1 0,-1 -1,-1 0,-1 -1,-1 0,-1 -1,0 -1,-1 0,-1 -1,-1 -1,-1 -1,-1 0,-1 -1,-1 0,-2 -1,-1 -1,-1 -1,-1 0,-1 -1,-1 0,-2 -1,-1 -1,-1 -2,0 -1,1 0,0 -1,1 -1,1 -1,1 -1,0 0,1 -1,1 -1,1 -1,1 -1,1 -1,1 -1,1 -1,0 -3,3 -1,0 0,1 -1,1 -2,0 0,1 -1,1 -3,0 -1,1 -1,0 -3,3 -1,1 -1,1 0,1 -1,1 -1,1 -1,1 -1,1 -1,1 -1,0 0,1 -1,1 -1,1 -1,1 -1,0 -1,1 -1,1Z"/>
<path onmouseover="hoverPath(evt)" onmouseout="recoverPath(evt)" fill="rgb(248,200,111)" d="M  0,166l 0,9 3,0 2,2 3,0 1,1 1,0 1,1 2,0 1,1 1,0 1,1 0,2 1,-1 2,0 1,1 1,1 1,0 1,1 3,0 1,1 1,0 1,1 1,1 0,1 1,-1 2,0 1,1 2,0 1,1 2,0 1,1 3,0 1,1 2,0 1,1 1,0 1,1 0,1 1,1 0,-1 1,-1 3,0 1,1 3,0 1,1 4,0 2,2 0,1 3,0 1,1 5,0 1,1 2,0 1,1 1,1 0,-1 1,-1 3,0 1,1 2,0 1,-1 2,0 1,1 0,1 1,1 1,0 0,-1 1,-1 5,0 1,1 5,0 1,1 5,0 1,1 1,1 0,1 1,1 1,0 1,-1 2,0 1,1 0,-1 1,-1 3,0 1,1 6,0 1,1 2,0 1,1 0,1 1,0 1,1 1,-1 2,0 1,1 1,0 1,1 1,-1 3,0 1,1 1,0 1,1 1,-1 1,-1 6,0 1,1 5,0 1,1 6,0 1,1 5,0 1,1 2,0 1,1 0,1 1,1 1,0 0,-1 1,-1 2,0 1,1 0,1 1,0 1,1 1,0 0,-2 1,-1 2,0 1,1 0,1 1,-1 2,0 1,1 0,1 3,0 1,1 0,-2 1,-1 2,0 1,1 1,1 1,-1 2,0 1,1 0,1 3,0 1,1 4,0 1,1 1,0 1,-1 2,0 1,-1 9,0 1,1 3,0 1,-1 2,0 1,-1 1,-1 2,0 1,1 1,1 1,-1 0,-1 1,-1 2,0 1,-1 5,0 0,-6 -5,0 -1,1 -5,0 -1,1 -3,0 -1,-1 -1,-1 -1,0 0,1 -1,1 -3,0 -1,1 -6,0 -1,-1 0,-1 -1,-1 -5,0 -1,1 -4,0 -1,1 -2,0 -1,-1 0,-1 -3,0 -1,-1 -1,0 0,2 -1,1 -2,0 -1,-1 0,-1 -1,1 -2,0 -1,-1 0,-1 -2,0 -1,-1 -1,0 0,2 -1,1 -2,0 -1,-1 0,-1 -1,1 -2,0 -1,-1 0,-1 -1,0 -1,-1 -1,1 -3,0 -1,-1 -1,0 -1,-1 -1,1 -3,0 -1,-1 -1,0 -1,-1 -1,1 -3,0 -1,-1 -1,0 -1,-1 -1,1 -4,0 -1,-1 -1,-1 0,-2 -1,-1 -1,-1 0,-2 -1,0 -1,-1 -1,-1 2,3 0,0 2,3 0,3 -1,1 -3,0 -1,-1 0,-1 -1,-1 -2,0 -1,-1 0,-1 -1,0 -1,1 -3,0 -1,-1 0,-1 -2,0 -1,-1 -3,0 0,1 -1,1 -2,0 -1,-1 -1,0 -1,-1 0,2 -1,1 -4,0 -1,-1 -4,0 -1,-1 -1,0 -1,-1 -1,0 -1,-1 -1,0 -1,-1 0,-2 -1,-1 0,4 -1,1 -4,0 -1,-1 -5,0 -1,-1 -5,0 -1,-1 -5,0 -1,-1 -5,0 -1,-1 -5,0 -1,-1 -3,0 -1,-1 -5,0 -1,-1 0,-2 -4,0 -1,-1 -3,0 -1,-1 -3,0 -1,1 -4,0 -1,-1 -2,0 -1,-1 -1,-1 0,-1 -1,-1 -4,0 -1,-1 0,-1 -2,0 -1,1 -2,0 -1,-1 -1,-1 0,-2 -1,0 -1,-1 -1,0 -1,-1 0,1 -1,1 -2,0 -1,-1 -1,0 -1,-1 0,-2 -1,0 -1,-1 -1,1 -2,0 -1,-1 -1,0 -1,-1 -1,0 -1,-1 -1,0 -1,-1 -1,0 -1,-1 -1,-1 0,-3 -1,-1 -1,0 -1,-1 0,4 23,20 0,0 -23,-20Z"/>
<path onmouseover="hoverPath(evt)" onmouseout="recoverPath(evt)" fill="rgb(244,243,235)" d="M  1,25l -1,0 0,53 1,0 0,-12 1,-1 1,-1 1,-1 1,-1 1,0 1,-1 1,-1 1,0 0,-2 1,-1 2,0 1,1 1,-1 1,0 1,-1 1,0 1,-1 1,-1 1,0 0,-2 1,-1 2,0 1,1 1,-1 1,0 1,-1 1,-1 1,0 0,-2 1,-1 2,0 1,1 1,-1 1,0 1,-1 0,-2 1,-1 2,0 1,1 1,-1 1,0 1,-1 1,-1 1,0 1,-1 1,-1 1,0 1,-1 0,-4 -1,0 -1,-1 -1,-1 -1,-1 -1,-1 0,-6 1,-1 1,0 1,-1 0,-1 1,-1 2,0 1,-1 1,-1 1,0 1,-1 1,-1 0,-2 1,-1 1,-1 4,0 1,-1 1,-1 1,0 1,-1 1,-1 0,-2 1,-1 1,-1 4,0 1,-1 1,-1 1,0 0,-1 -49,0 0,1 -1,1 -1,1 -2,0 -1,1 -2,0 -1,1 -1,0 -3,3 -1,1 -1,1 -1,1 0,2 -1,1 0,1 -1,1 0,2 -1,1 -1,1 0,1 -1,1 -1,1 -1,1 -1,1Z"/>
<path onmouseover="hoverPath(evt)" onmouseout="recoverPath(evt)" fill="rgb(194,212,237)" d="M  0,10l 0,13 2,0 1,-1 0,0 1,-1 1,-1 0,-1 2,-2 0,-2 1,-1 0,-1 1,-1 0,-2 2,-2 1,-1 1,-1 1,-1 1,-1 1,-1 1,0 1,-1 2,0 1,-1 2,0 1,-1 -24,0Z"/>
<path onmouseover="hoverPath(evt)" onmouseout="recoverPath(evt)" fill="rgb(249,232,126)" d="M  4,182l 0,0 -1,1 1,1 0,1 1,1 0,1 1,1 0,2 1,1 0,1 1,1 0,1 1,1 1,1 1,1 0,1 2,2 0,1 1,1 1,1 0,1 1,1 0,1 1,1 1,1 0,1 1,1 1,1 0,1 1,1 0,1 1,1 0,2 2,0 1,1 0,2 1,1 0,1 3,3 0,1 1,1 0,1 1,1 1,1 0,1 1,1 1,0 1,1 0,2 1,0 1,1 0,2 1,1 1,1 0,1 1,1 2,0 1,1 0,3 1,0 1,1 0,3 2,2 1,1 0,2 15,0 0,-1 -1,-1 0,0 -1,-1 -1,-1 -1,0 -1,-1 0,-2 -1,-1 -1,-1 -1,0 -1,-1 0,-2 -1,-1 -1,0 -1,-1 0,-2 -1,-1 -1,-1 0,-1 -1,-1 -1,-1 0,-1 -1,-1 -1,-1 0,-1 -1,-1 -1,-1 0,-1 -1,-1 -1,-1 0,-1 -1,-1 -1,-1 0,-1 -1,-1 -1,-1 0,-1 -1,-1 0,-1 -1,-1 0,-1 -1,-1 0,-1 -1,-1 -1,-1 -1,-1 -1,-1 0,-1 -2,-2 0,-1 -1,-1 0,-1 -1,-1 -1,-1 -1,0 -1,-1 0,-3 -1,-1 -1,0 -1,-1 0,-3 -1,-1 -1,-1 0,-3 1,-1 -1,-1 0,0 -1,1 -2,0 -1,-1 0,-2 -1,0 -1,-1 -2,0 -1,-1 -1,0 -1,-1 -3,0 -1,-1 -1,-1 -2,0 0,2 3,0 1,1Z"/>
<path onmouseover="hoverPath(evt)" onmouseout="recoverPath(evt)" fill="rgb(171,198,238)" d="M  66,202l 1,1 1,1 1,1 0,1 1,1 1,1 1,1 1,1 0,1 1,1 1,1 1,1 1,1 1,1 0,1 1,1 1,1 1,1 1,1 1,1 0,1 1,1 1,1 1,1 1,1 1,1 0,1 1,1 1,1 1,1 1,1 0,1 1,1 1,1 1,1 1,1 1,1 0,1 1,1 1,1 1,1 1,1 0,1 1,1 1,1 1,1 1,1 0,1 2,2 1,1 0,2 11,0 0,-1 -1,-1 0,0 -1,-1 -1,-1 -1,-1 -1,-1 0,-1 -1,-1 -1,-1 -1,-1 -1,-1 -1,-1 -1,-1 -1,-1 0,-1 -1,-1 -1,-1 -1,-1 -1,-1 0,-1 -1,-1 -1,-1 -1,-1 -1,-1 0,-1 -1,-1 -1,-1 -1,-1 -1,-1 -1,-1 0,-1 -1,-1 -1,-1 -1,-1 -1,-1 -1,-1 0,-1 -1,-1 -1,-1 -1,-1 -1,-1 -1,-1 0,-1 -2,-2 -1,-1 -1,-1 -1,-1 0,-2 -1,0 -1,-1 -1,-1 -2,0 -1,-1 -5,0 -1,-1 -1,1Z"/>
<path onmouseover="hoverPath(evt)" onmouseout="recoverPath(evt)" fill="rgb(171,198,237)" d="M  172,122l 0,1 1,1 2,2 0,1 3,0 1,-1 1,-1 1,0 1,-1 1,0 1,-1 1,0 1,-1 1,0 1,-1 1,0 1,-1 1,-1 1,0 1,-1 1,0 1,-1 1,0 1,-1 1,0 1,-1 1,-1 1,0 1,-1 1,0 1,-1 1,0 1,-1 1,0 1,-1 1,0 1,-1 1,-1 1,0 1,-1 1,0 1,-1 1,0 1,-1 1,0 1,-1 1,0 1,-1 1,0 1,-1 1,-1 1,0 1,-1 1,0 1,-1 1,0 1,-1 1,0 1,-1 1,0 1,-1 1,0 1,-1 1,-1 1,0 1,-1 1,0 1,-1 1,0 1,-1 1,0 1,-1 1,0 1,-1 1,0 1,-1 1,0 1,-1 1,0 1,-1 2,0 0,-9 -1,0 -1,1 -1,0 -1,1 -1,0 -1,1 -1,0 -1,1 -1,0 -1,1 -1,1 -1,0 -1,1 -1,0 -1,1 -1,0 -1,1 -1,0 -1,1 -1,0 -1,1 -1,1 -1,0 -1,1 -1,0 -1,1 -1,0 -1,1 -1,0 -1,1 -1,0 -1,1 -1,1 -1,0 -1,1 -1,0 -1,1 -1,0 -1,1 -1,0 -1,1 -1,0 -1,1 -1,1 -1,0 -1,1 -1,0 -1,1 -1,0 -1,1 -1,0 -1,1 -1,0 -1,1 -1,1 -1,0 -1,1 -1,0 -1,1 -1,0 -1,1 -1,0 -1,1 -1,1 -1,0 -1,1 -1,0 -1,1 -1,0 -1,1 -1,0 -1,1 -1,0 -1,1 -1,1 -1,0 -1,1 -1,0 -1,1 -1,0 -1,1 -1,0 -1,1Z"/>
<path onmouseover="hoverPath(evt)" onmouseout="recoverPath(evt)" fill="rgb(172,199,238)" d="M  221,254l -1,0 0,1 35,0 0,-8 -3,0 -1,1 -7,0 -1,1 -4,0 -1,1 -4,0 -1,1 -5,0 -1,1 -3,0 -1,1 -1,0 -1,1Z"/>
<path onmouseover="hoverPath(evt)" onmouseout="recoverPath(evt)" fill="rgb(244,242,234)" d="M  0,235l 0,20 46,0 0,-1 -1,-1 0,0 -1,-1 -1,-1 0,-3 -1,0 -1,-1 0,-3 -2,0 -1,-1 -1,-1 0,-1 -1,-1 -1,-1 0,-2 -1,0 -1,-1 0,-2 -1,0 -1,-1 -1,-1 0,-1 -2,-2 0,-1 -1,-1 0,-1 -1,-1 -1,-1 -1,-1 0,-1 -1,0 -1,1 0,1 -1,1 0,2 -1,1 -1,1 -1,1 -10,0 -1,1 -2,0 -1,1 -1,0 -1,1 -2,0Z"/>
<path onmouseover="hoverPath(evt)" onmouseout="recoverPath(evt)" fill="rgb(244,242,234)" d="M  28,190l 0,-1 -1,-1 -1,0 -1,-1 0,1 -1,1 -2,0 -1,-1 0,1 1,1 0,3 1,0 1,1 1,1 0,3 1,0 1,1 1,1 1,1 0,1 1,1 0,1 1,1 1,1 0,1 1,1 1,1 1,1 1,1 0,1 1,1 0,1 1,1 0,1 1,1 0,1 1,1 1,1 0,1 1,1 1,1 0,1 1,1 1,1 0,1 1,1 1,1 0,1 1,1 1,1 0,1 1,1 1,1 0,1 1,1 1,1 0,2 1,0 1,1 1,1 0,2 1,0 2,2 1,1 0,2 1,0 2,2 1,1 1,1 0,2 41,0 0,-1 -1,-1 0,0 -1,-1 -1,-1 0,-1 -1,-1 -1,-1 -1,-1 -1,-1 0,-1 -1,-1 -1,-1 -1,-1 -1,-1 0,-1 -1,-1 -1,-1 -1,-1 -1,-1 -1,-1 0,-1 -1,-1 -1,-1 -1,-1 -1,-1 0,-1 -1,-1 -1,-1 -2,-2 -1,-1 0,-1 -1,-1 -2,-2 -1,-1 -1,-1 0,-1 -1,-1 -1,-1 -1,-1 -1,-1 -1,-1 0,-1 -1,-1 -1,-1 -1,-1 -1,-1 0,-1 -1,-1 -1,-1 -1,-1 -1,-1 0,-3 -1,-1 -4,0 -1,-1 -3,0 -1,-1 -1,0 0,1 -1,1 -2,0 -1,-1 -1,-1 0,-1 -1,0 -1,-1 -2,0 -1,-1 -3,0 -1,-1 -2,0 -1,-1 -2,0 -1,-1 -1,1 -2,0 -1,-1 -8,-2 1,-1 0,-1 -1,1 0,1 8,2Z"/>
<path onmouseover="hoverPath(evt)" onmouseout="recoverPath(evt)" fill="rgb(244,243,236)" d="M  80,55l 0,1 -1,1 -1,1 0,1 -1,1 -1,1 0,1 -1,1 0,1 -1,1 0,8 -1,1 -1,1 0,1 -1,1 -1,1 0,1 -1,1 -2,2 -1,1 -1,1 -1,0 0,3 1,1 0,1 1,1 0,1 1,0 1,1 1,1 0,1 1,1 1,1 1,1 1,1 1,1 1,1 1,1 0,1 1,1 1,1 1,1 1,1 1,0 1,1 1,1 1,1 1,1 0,1 2,0 1,1 1,1 1,1 1,1 1,1 1,1 1,1 0,1 1,0 1,1 1,1 0,2 1,0 1,1 1,1 1,1 1,1 1,1 1,1 1,1 0,1 1,1 1,1 1,1 0,1 1,1 2,2 0,1 1,0 1,1 1,1 2,2 0,2 1,0 1,1 5,0 1,-1 1,0 1,-1 1,0 1,-1 1,0 1,-1 1,0 1,-1 1,0 1,-1 1,0 1,-1 1,-1 1,0 1,-1 1,0 1,-1 1,0 1,-1 1,0 1,-1 1,0 1,-1 1,-1 1,0 1,-1 1,0 1,-1 1,0 1,-1 1,0 1,-1 1,0 1,-1 1,-1 1,0 1,-1 1,0 1,-1 2,0 0,-1 -1,-1 -1,-1 -1,-1 0,-1 -1,-1 -1,0 -1,-1 0,-2 -1,-1 -1,-1 -2,0 -1,-1 -1,-1 0,-4 -1,-1 -1,-1 0,-1 -1,-1 -1,-1 -1,-1 0,-1 -1,-1 -1,-1 0,-1 -1,-1 -1,-1 -1,-1 -1,0 -1,-1 0,-2 -1,-1 -1,-1 -1,0 -1,-1 0,-2 -1,-1 -1,-1 -1,-1 -1,0 -1,-1 0,-2 -1,-1 -1,-1 -1,-1 -1,0 -1,-1 -1,0 -1,-1 -1,-1 -1,-1 0,-2 1,-1 -1,-1 -1,0 -1,-1 0,-2 -1,-1 -1,-1 -1,-1 0,-2 1,-1 2,0 1,1 1,1 1,1 1,1 0,1 1,1 1,1 1,0 1,1 3,0 1,1 1,0 1,-1 1,0 0,-2 1,-1 2,0 1,1 1,0 1,-1 1,0 1,-1 1,0 1,-1 1,0 1,-1 1,0 1,-1 1,0 1,-1 1,0 1,-1 1,0 1,-1 0,-2 1,-1 1,0 1,-1 1,0 1,-1 1,0 1,-1 1,0 1,-1 2,0 1,1 1,-1 1,0 1,-1 1,0 1,-1 0,-2 1,-1 1,0 1,-1 2,0 1,1 1,-1 0,-2 1,-1 2,0 1,1 1,-1 1,0 1,-1 0,-2 1,-1 1,0 1,-1 1,-1 1,0 1,-1 1,-1 2,0 1,1 1,-1 1,0 1,-1 1,-1 0,-2 1,-1 1,-1 1,0 1,-1 1,0 1,-1 1,-1 1,0 1,-1 2,0 1,1 1,-1 0,-2 1,-1 1,0 1,-1 2,0 1,1 1,-1 0,-2 1,-1 1,0 1,-1 2,0 1,1 1,-1 1,0 1,-1 0,-2 1,-1 2,0 1,1 1,-1 1,0 1,-1 0,-2 1,-1 1,-1 1,0 1,-1 1,-1 1,0 1,-1 2,0 1,1 1,-1 1,0 1,-1 1,0 1,-1 1,-1 2,0 0,-1 -106,0 0,2 -1,1 -1,0 -1,1 -1,1 -2,0 0,1 -1,1 -2,0 -1,1 -1,0 0,1 -1,1 -2,0 -1,1 -1,1 -1,0 -1,1 -1,0 -1,1 -1,0 -1,1 -1,0 -1,1 -1,0 -1,1 -1,1 -1,1 -2,0 0,1 -1,1 -1,1 -1,1 -1,1 -1,1 -1,1 -1,1 -1,0 -2,2 -1,0 -1,1 -2,0 -1,1 -1,1 -1,0 -1,1 -1,1 -1,1 -1,1 -1,1 0,1 -1,1 -1,1 0,1 -1,1 -1,1 -1,1 -1,0 0,1 -1,1 -1,1 -1,1 -1,1 -1,1 -1,1 -1,0 -3,3 -1,1 96,-32 -1,1 -2,0 -1,-1 -1,-1 0,-2 1,-1 2,0 1,1 1,1 0,2 -96,32Z"/>
<path onmouseover="hoverPath(evt)" onmouseout="recoverPath(evt)" fill="rgb(172,198,237)" d="M  96,163l 0,0 -1,1 -1,0 -1,1 -2,0 -1,-1 0,1 1,1 4,0 1,1 1,1 1,1 0,1 1,0 1,-1 0,0 1,-1 1,0 1,-1 1,0 1,-1 1,0 1,-1 1,0 1,-1 1,0 1,-1 1,0 1,-1 1,0 1,-1 1,0 1,-1 1,0 1,-1 1,-1 1,0 1,-1 1,0 1,-1 1,0 1,-1 1,0 1,-1 1,0 1,-1 1,-1 1,0 1,-1 1,0 1,-1 1,0 1,-1 1,0 1,-1 1,0 1,-1 1,-1 1,0 1,-1 1,0 1,-1 1,0 1,-1 1,0 1,-1 1,-1 1,0 1,-1 1,0 1,-1 1,0 1,-1 1,0 1,-1 1,-1 1,0 1,-1 1,0 1,-1 1,0 1,-1 1,0 1,-1 1,0 1,-1 0,-1 -1,-1 0,0 -1,-1 -1,-1 0,-1 -3,0 -1,1 -1,0 -1,1 -1,0 -2,2 -1,0 -1,1 -1,0 -1,1 -1,0 -1,1 -1,0 -1,1 -1,0 -1,1 -1,1 -1,0 -1,1 -1,0 -1,1 -1,0 -1,1 -1,0 -1,1 -1,0 -1,1 -1,1 -1,0 -1,1 -1,0 -1,1 -1,0 -1,1 -1,0 -1,1 -1,0 -1,1 -1,0 -1,1 -7,0 -1,-1 -1,0 0,1 1,1 0,2 -1,1 -1,1 -1,0 -1,1 -1,0 -1,1 -1,1 -1,0 -1,1 -1,0 -1,1 -1,0 -1,1 -1,1 -1,0 -1,1 -1,0 -1,1 -1,0 -1,1Z"/>
<path onmouseover="hoverPath(evt)" onmouseout="recoverPath(evt)" fill="rgb(244,242,234)" d="M  101,171l 0,0 -1,1 -3,0 -1,-1 0,-1 -1,-1 -1,-1 -1,0 0,1 1,1 0,0 1,1 0,3 -1,1 -1,0 -1,1 -1,0 -2,2 -1,0 -1,1 -1,0 -1,1 -1,0 -1,1 -1,0 -1,1 -1,0 -1,1 -1,1 -1,0 -1,1 -1,1 -1,1 -1,1 -1,1 -1,1 3,0 1,1 5,0 1,1 5,0 1,1 5,0 1,1 5,0 1,1 5,0 1,1 2,0 0,-4 1,-1 2,0 1,1 1,1 0,2 1,0 1,1 1,0 1,1 1,0 1,1 4,0 1,1 2,0 0,-3 1,-1 2,0 1,1 0,1 1,0 1,1 0,-1 1,-1 5,0 1,1 2,0 1,1 0,1 1,0 1,-1 3,0 1,1 0,1 2,0 1,1 1,1 0,1 1,0 0,-2 -1,-1 0,0 -1,-1 0,-1 -1,-1 -1,-1 0,-1 -1,-1 -1,-1 0,-2 1,-1 2,0 1,1 1,1 0,1 1,1 1,1 1,0 1,1 0,2 1,1 1,1 0,2 1,1 2,0 1,-1 2,0 1,1 1,0 1,1 1,0 1,-1 2,0 1,1 1,0 1,1 1,0 1,-1 2,0 1,1 1,0 1,1 1,0 1,-1 2,0 1,1 1,0 1,1 3,0 1,1 0,-1 1,-1 3,0 1,1 2,0 1,1 3,0 1,1 0,-1 1,-1 3,0 1,1 3,0 1,1 5,0 1,-1 7,0 0,-1 -1,-1 0,-2 1,-1 -1,-1 -1,0 -1,-1 -1,0 -1,-1 0,-4 -1,-1 -1,-1 0,-1 -1,-1 -1,-1 0,-1 -1,-1 -1,0 -1,-1 0,-2 -1,-1 -2,0 -1,-1 -1,-1 0,-4 -1,-1 -1,-1 0,-1 -1,-1 -1,-1 -1,0 -1,-1 0,-2 -1,-1 -1,-1 -1,0 -1,-1 0,-2 -1,-1 -1,-1 -1,-1 -1,0 -1,-1 0,-2 -1,-1 -1,-1 -1,0 -1,-1 0,-2 -1,-1 -1,-1 0,-1 -1,-1 -1,-1 -1,-1 -1,-1 0,-1 -1,-1 -2,0 -1,-1 -1,-1 0,-4 -1,-1 -1,-1 0,-1 -1,-1 -1,-1 -1,-1 0,-1 -1,-1 -1,1 -1,1 -1,0 -1,1 -1,0 -1,1 -1,0 -1,1 -1,0 -1,1 -1,0 -1,1 -1,1 -1,0 -1,1 -1,0 -1,1 -1,0 -1,1 -1,0 -2,2 -1,0 -1,1 -1,0 -1,1 -1,0 -1,1 -1,0 -1,1 -1,1 -1,0 -1,1 -1,0 -1,1 -1,0 -1,1 -1,0 -1,1 -1,0 -2,2 -1,0 -1,1 -1,0 -1,1 -1,0 -1,1 -1,0 -1,1 -1,0 -1,1 -1,1 -1,0 -1,1 -1,0 -1,1 -1,0 -1,1 -1,0 -1,1 -1,0 -1,1 -1,0 -1,1 -1,0 -1,1 -1,0 -1,1 -1,0 -1,1 125,37 0,1 1,-1 -1,0 -125,-37 44,17 -2,0 -1,-1 -1,-1 0,-2 1,-1 2,0 1,1 1,1 0,2 -1,1 -44,-17 5,15 -2,0 -1,-1 -1,-1 0,-2 1,-1 2,0 2,2 0,2 -1,1 -5,-15Z"/>
<path onmouseover="hoverPath(evt)" onmouseout="recoverPath(evt)" fill="rgb(250,248,244)" d="M  123,66l 0,1 1,0 1,1 1,1 0,2 -1,1 1,1 0,0 1,1 1,0 1,1 1,0 1,1 1,1 1,1 1,1 0,2 1,0 1,1 1,1 1,1 1,1 0,2 1,0 1,1 1,1 1,1 0,2 1,0 1,1 1,1 1,1 1,1 0,1 1,1 1,1 0,1 1,1 1,1 1,1 0,1 1,1 1,1 0,4 1,1 2,0 1,1 1,1 1,1 0,2 1,0 1,1 1,1 0,1 1,1 1,1 1,1 0,2 1,0 1,1 0,1 1,1 1,1 1,1 0,1 1,0 1,1 1,1 0,1 1,1 1,1 1,1 0,1 1,1 1,1 0,4 1,1 2,0 1,1 1,1 0,1 1,1 1,1 1,1 1,1 0,1 1,1 1,1 0,2 1,0 1,1 1,1 1,1 0,2 1,0 1,1 1,1 1,1 1,1 0,2 1,0 1,1 1,1 1,1 0,2 1,0 1,1 1,1 1,1 0,1 1,1 1,1 0,4 1,1 2,0 1,1 1,1 0,2 1,0 1,1 1,1 0,1 1,1 1,1 0,1 1,1 1,1 0,4 1,0 1,1 1,0 1,1 1,1 0,2 -1,1 1,1 2,0 1,1 0,2 -1,1 -1,0 -1,1 4,0 1,-1 1,0 0,-1 -1,-1 0,-1 -3,-3 -1,-1 0,-2 1,-1 -1,-1 -1,-1 0,-1 -1,-1 -2,0 -1,-1 -1,-1 0,-1 -1,-1 -1,-1 0,-1 -1,-1 -1,-1 0,-4 -1,-1 -2,0 -1,-1 -1,-1 -1,-1 0,-1 -1,-1 -1,-1 0,-4 -1,-1 -2,0 -1,-1 -1,-1 -1,-1 -1,-1 0,-2 -1,0 -1,-1 -1,-1 -1,-1 0,-2 -1,0 -1,-1 -1,-1 -1,-1 -1,-1 0,-2 -1,0 -1,-1 -1,-1 0,-4 -1,-1 -2,0 -1,-1 -1,-1 -1,-1 0,-1 -1,-1 -1,-1 -1,-1 0,-1 -1,-1 -1,-1 0,-4 -1,-1 -1,0 -1,-1 -1,0 -1,-1 0,-2 -1,0 -1,-1 0,-1 -1,-1 -1,-1 -1,-1 0,-1 -1,0 -1,-1 -1,-1 0,-4 -1,-1 -1,0 -1,-1 -1,0 -1,-1 -1,-1 -1,-1 0,-1 -1,-1 -1,-1 -1,-1 0,-1 -1,-1 -1,-1 0,-4 -1,-1 -2,0 -1,-1 -1,-1 0,-4 -1,-1 -1,0 -1,-1 -1,0 -1,-1 -1,-1 -1,-1 -1,-1 0,-2 -1,0 -1,-1 -1,-1 -1,-1 -1,-1 0,-2 -1,0 -1,-1 -1,-1 -1,-1 0,-1 -1,-1 -1,-1 -1,-1 0,-2 1,-1 -3,0 -1,-1 -1,3 0,0 -3,-6Z"/>
<path onmouseover="hoverPath(evt)" onmouseout="recoverPath(evt)" fill="rgb(245,234,139)" d="M  189,243l 0,0 1,-1 5,0 1,1 1,1 1,1 -3,-4 0,-1 1,-1 4,0 1,1 0,1 3,3 -3,-5 0,-1 1,-1 1,0 1,-1 2,0 1,-1 1,0 1,-1 1,0 1,-1 1,0 1,-1 2,0 1,-1 1,0 1,-1 1,0 1,-1 1,0 1,-1 1,-1 1,-1 0,-2 1,-1 0,-1 -1,0 -1,1 -2,0 -1,1 -2,0 -1,1 -1,0 -1,1 -2,0 -1,1 -1,0 -1,1 -1,0 -1,1 -1,0 -1,1 -2,0 -1,1 -1,0 -1,1 -1,0 -1,1 -2,0 -1,1 -1,0 -1,1 -1,0 -1,1 -2,0 -1,1 -1,0 -1,1 -2,0 0,1 -1,1 -1,0 -1,1 -3,0 -1,1 -1,0 -1,1 -1,0 -1,1 -2,0 -1,1 -1,0 -1,1 -2,0 -1,1 -1,0 -1,1 -2,0 -1,1 -1,0 -1,1 -1,0 -1,1 -2,0 -1,1 -1,0 -1,1 -2,0 -1,1 -1,0 0,1 18,0 0,-2 1,-1 1,0 1,-1 2,0 1,-1 1,0 1,-1 2,0 1,-1 1,0 1,-1 2,0 1,-1 1,0 1,-1 1,0 1,-1 1,0 1,-1Z"/>
<path onmouseover="hoverPath(evt)" onmouseout="recoverPath(evt)" fill="rgb(244,243,235)" d="M  204,239l -1,0 0,1 1,1 0,0 1,1 1,1 0,2 -1,1 -2,0 -1,-1 -1,-1 -1,-1 -1,-1 0,1 1,1 0,2 -1,1 -2,0 -1,-1 -1,-1 -1,-1 -3,0 -1,1 -1,0 -1,1 -1,0 -1,1 -1,0 -1,1 -1,0 -1,1 -2,0 -1,1 -1,0 -1,1 -2,0 -1,1 -1,0 -1,1 -2,0 -1,1 -1,0 0,1 50,0 0,-2 1,-1 1,0 1,-1 1,0 1,-1 3,0 1,-1 5,0 1,-1 4,0 1,-1 4,0 1,-1 7,0 1,-1 4,0 0,-27 -4,0 -1,1 -2,0 0,1 -1,1 -1,1 -2,0 -1,-1 -1,-1 -1,1 0,0 -1,1 -2,0 -1,1 -5,0 -1,-1 -4,0 0,2 -1,1 0,2 -1,1 -1,1 -2,2 -1,0 -1,1 -1,0 -1,1 -1,0 -1,1 -2,0 -1,1 -1,0 -1,1 -1,0 -1,1 -1,0 -1,1 -2,0 -1,1 -6,3 1,-1 -2,0 1,1 6,-3Z"/>
</svg>