<svg width="256" height="256" xmlns="http://www.w3.org/2000/svg"><script> 
var tempColor;
function hoverPath(evt){
obj = evt.target;
tempColor = obj.getAttribute("fill");
obj.setAttribute("fill","red");
//alert(tempColor);
//obj.setAttribute("stroke","red");}
function recoverPath(evt){
obj = evt.target;
obj.setAttribute("fill", tempColor);
//obj.setAttribute("stroke", tempColor);
}</script><path onmouseover="hoverPath(evt)" onmouseout="recoverPath(evt)" fill="rgb(244,243,236)" d="M  0,1l 0,254 169,0 0,-3 -1,-1 0,-1 -1,-1 0,-1 -1,-1 0,-1 -1,-1 0,-1 -1,-1 0,-2 -1,-1 0,-1 -1,-1 0,-1 -1,-1 0,-1 -1,-1 0,-1 -1,-1 0,-2 -1,-1 0,-1 -1,-1 0,-1 -1,-1 0,-2 -1,-1 0,-1 -1,-1 0,-1 -1,-1 0,-1 -1,-1 0,-1 -1,-1 0,-1 -1,-1 0,-1 -1,-1 0,-1 -1,-1 0,-2 -1,-1 0,-2 1,-1 -2,0 -1,-1 0,-1 -1,-1 0,-1 -1,-1 0,-2 -1,-1 0,-2 1,-1 0,-1 -1,0 -1,-1 -1,0 -1,-1 -17,0 -1,-1 -2,0 -1,-1 0,-1 -1,-1 0,-1 -1,-1 0,-3 1,-1 0,-2 -1,-1 0,-3 -2,0 -1,-1 0,-2 -1,-1 0,-5 1,-1 0,-2 -2,0 -1,-1 0,-3 -1,-1 0,-4 1,-1 0,-3 -1,-1 0,-3 -2,0 -1,-1 0,-3 -1,-1 0,-12 1,-1 0,-7 -1,-1 0,-4 -2,0 -1,-1 0,-2 -1,-1 0,-1 -23,0 -1,1 -25,0 -1,-1 -10,0 -1,-1 0,-3 1,-1 16,0 1,1 1,0 1,-1 1,0 0,-9 1,-1 1,-1 2,0 1,-1 9,0 1,1 0,2 -1,1 -5,0 -1,1 -3,0 -1,1 0,3 1,1 0,2 1,0 1,1 3,0 1,-1 27,0 0,-2 -1,-1 0,-2 -1,-1 0,-2 -1,-1 0,-1 -1,-1 -3,0 -1,-1 0,-2 1,-1 2,0 0,-14 -1,-1 0,-21 -1,-1 0,-26 -1,-1 0,-24 -90,0 -1,1Z"/>
<path onmouseover="hoverPath(evt)" onmouseout="recoverPath(evt)" fill="rgb(254,254,254)" d="M  42,106l 10,0 1,1 23,0 1,-1 25,0 1,1 0,1 1,1 0,-5 -1,-1 0,-1 -1,-1 0,-2 -1,-1 0,-2 -1,-1 0,-1 -1,-1 0,-25 -1,-1 0,-26 -1,-1 0,-23 -1,-1 0,-16 -3,0 0,23 1,1 0,26 1,1 0,21 1,1 0,16 -1,1 1,0 1,1 1,1 0,1 1,1 0,2 1,1 0,2 1,1 0,4 -1,1 -27,0 -1,1 -5,0 -1,-1 -1,0 -1,-1 0,-2 -1,-1 0,-5 1,-1 -1,0 1,-1 4,0 1,-1 -2,0 -4,9 0,2 -1,1 -1,0 -1,1 -3,0 -1,-1 -13,0 -1,1Z"/>
<path onmouseover="hoverPath(evt)" onmouseout="recoverPath(evt)" fill="rgb(244,243,236)" d="M  99,0l -1,0 0,15 1,1 0,23 1,1 0,26 1,1 0,25 1,1 0,1 1,1 0,2 1,1 0,2 1,1 0,1 1,1 0,8 1,1 0,4 1,1 0,9 -1,1 0,10 1,1 0,3 2,0 1,1 0,3 1,1 0,5 -1,1 0,2 1,1 0,3 2,0 1,1 0,4 -1,1 0,3 1,1 0,2 2,0 1,1 0,3 1,1 0,4 -1,1 0,1 1,1 0,1 1,1 0,1 2,0 1,1 17,0 1,1 1,0 1,1 1,0 1,1 0,2 1,1 0,2 -1,1 0,1 1,1 0,1 1,1 0,1 2,0 1,1 0,1 1,1 0,2 -1,1 0,1 1,1 0,1 1,1 0,1 1,1 0,1 1,1 0,1 1,1 0,1 1,1 0,1 2,0 1,1 0,2 -1,1 0,1 1,1 0,1 2,0 1,1 0,2 -1,1 0,1 1,1 0,1 1,1 0,1 1,1 0,1 2,0 1,1 0,2 -1,1 0,1 1,1 0,1 1,1 0,1 1,1 0,1 2,0 1,1 0,2 -1,1 0,3 84,0 0,-164 -2,0 -1,-1 0,-12 -1,-1 0,-9 -1,-1 0,-11 -1,-1 0,-10 -1,-1 0,-9 -1,-1 0,-9 -1,2 0,0 -1,1 -1,1 -1,1 -1,1 -5,0 -1,-1 -1,0 -1,-1 -1,-1 -1,-1 -1,-1 -1,0 -1,-1 -1,-1 -1,-1 -1,-1 -1,0 -1,-1 -1,-1 -1,-1 -1,-1 -1,0 -1,-1 -2,-2 -1,-1 -1,0 -1,-1 -1,-1 -2,-2 -1,0 -1,-1 -1,-1 -1,-1 -1,-1 -1,0 -1,-1 -2,-2 -1,-1 -1,-1 0,-1Z"/>
<path onmouseover="hoverPath(evt)" onmouseout="recoverPath(evt)" fill="rgb(172,198,236)" d="M  203,1l 0,0 1,1 2,2 1,0 2,2 1,1 1,1 1,0 1,1 1,1 1,1 1,1 1,0 1,1 1,1 1,1 1,1 1,0 1,1 1,1 1,1 1,1 1,0 1,1 1,1 2,2 1,0 1,1 1,1 1,1 1,1 1,0 1,1 3,0 1,-1 0,0 1,-1 1,-1 1,-1 0,-1 1,-1 2,0 0,-3 -1,-1 -1,1 -1,1 -1,1 0,1 -1,1 -1,1 -1,1 -4,0 -2,-2 -1,0 -1,-1 -1,-1 -1,-1 -1,-1 -1,0 -1,-1 -1,-1 -1,-1 -1,-1 -1,-1 -1,0 -2,-2 -1,-1 -1,-1 -1,-1 -1,-1 -1,-1 -1,-1 -1,0 -2,-2 -1,-1 -2,-2 0,-2 -5,0 -1,1Z"/>
<path onmouseover="hoverPath(evt)" onmouseout="recoverPath(evt)" fill="rgb(245,244,237)" d="M  211,1l 0,0 1,1 1,1 1,1 1,1 1,0 1,1 1,1 1,1 1,1 1,1 1,1 1,1 1,1 1,0 1,1 2,2 1,1 1,1 1,0 1,1 1,1 1,1 1,1 1,0 1,1 1,1 2,0 1,-1 0,0 1,-1 0,-1 1,-1 1,-1 1,-1 1,-1 0,-4 -1,-1 0,-9 -1,-1 0,-2 -32,0 -1,1Z"/>
<path onmouseover="hoverPath(evt)" onmouseout="recoverPath(evt)" fill="rgb(248,237,138)" d="M  254,82l 0,7 1,0 0,-6 -1,-1 1,-4 0,-78 -9,0 0,1 1,1 0,9 1,1 0,5 1,1 1,1 0,5 -1,1 0,8 1,1 0,9 1,1 0,10 1,1 0,11 1,1 0,9 1,1 1,1 -1,4Z"/>
</svg>