<svg width="256" height="256" xmlns="http://www.w3.org/2000/svg"><script> 
var tempColor;
function hoverPath(evt){
obj = evt.target;
tempColor = obj.getAttribute("fill");
obj.setAttribute("fill","red");
//alert(tempColor);
//obj.setAttribute("stroke","red");}
function recoverPath(evt){
obj = evt.target;
obj.setAttribute("fill", tempColor);
//obj.setAttribute("stroke", tempColor);
}</script><path onmouseover="hoverPath(evt)" onmouseout="recoverPath(evt)" fill="rgb(170,198,237)" d="M  174,40l 7,0 1,1 0,1 1,-1 4,0 1,-1 1,0 1,-1 1,-1 1,-1 1,-1 1,-1 1,-1 1,-1 1,-1 2,-2 1,-1 1,-1 1,-1 1,-1 1,-1 1,0 1,-1 1,-1 1,-1 1,-1 1,-1 1,-1 1,-1 1,-1 1,-1 1,-1 2,-2 1,-1 1,-1 1,-1 1,-1 1,-1 1,-1 1,0 5,-5 1,-1 0,-1 -17,0 0,3 -2,2 -1,0 0,1 -1,1 -1,1 -2,2 -1,0 -1,1 -1,1 -1,1 -1,0 0,1 -1,1 -1,1 -1,1 -1,0 0,1 -1,1 -1,1 -1,0 -1,1 -1,0 0,1 -1,1 -1,1 -1,1 -1,1 -1,1 -1,1 -1,1 -1,1 -1,0 0,1 -1,1 -1,1 -1,1 -1,1 -1,0 -1,1 -1,1 -1,0 0,1 -1,1Z"/>
<path onmouseover="hoverPath(evt)" onmouseout="recoverPath(evt)" fill="rgb(244,242,234)" d="M  200,32l 0,0 -1,1 -1,1 -1,1 -1,1 -1,1 -1,1 -1,1 -1,1 -1,1 -1,1 3,0 1,1 0,1 1,0 0,-2 1,-1 2,0 1,1 12,0 1,1 1,0 1,1 14,0 1,-1 0,0 1,-1 4,0 1,1 0,1 5,0 0,-1 1,-1 6,0 1,1 2,0 1,-1 4,0 0,-42 -23,0 0,2 -1,1 -1,1 -1,1 -1,1 -1,1 -1,1 -1,1 -1,0 -1,1 -1,1 -1,1 -1,1 -1,1 -1,1 -1,1 -1,1 -1,1 -1,1 -1,1 -1,1 -1,1 -1,1 -1,1 -1,1 -1,1 -1,1 -1,0 -1,1 -1,1 -1,1 -1,1 -1,1Z"/>
<path onmouseover="hoverPath(evt)" onmouseout="recoverPath(evt)" fill="rgb(244,243,235)" d="M  207,187l -1,1 -1,1 -1,1 0,2 1,1 1,1 1,1 1,1 1,1 2,0 1,1 0,1 1,1 1,1 2,0 1,1 0,1 1,1 1,0 1,1 3,0 1,1 1,1 0,1 1,1 0,1 1,1 1,1 2,0 1,1 0,1 1,1 1,1 4,0 1,1 1,1 0,1 1,1 0,1 1,1 1,1 2,0 1,1 0,1 1,1 1,1 1,0 1,1 1,1 1,1 2,0 1,1 0,1 1,0 0,-88 -1,0 -1,1 -1,1 -1,1 0,1 -1,1 -1,0 -1,1 -1,1 -1,0 -1,1 -2,2 -1,1 -1,1 -1,1 -1,1 -1,1 0,1 -1,1 -1,0 -1,1 -1,1 -1,0 -1,1 -2,2 -1,1 -1,1 -1,1 -1,1 0,1 -1,1 -1,0 -1,1 -1,1 -1,1 -1,0 -1,1 -2,2 -1,1 -1,1 -1,1 -1,1 0,1 -1,1 -1,0 -1,1 -1,1 -1,0 -1,1Z"/>
<path onmouseover="hoverPath(evt)" onmouseout="recoverPath(evt)" fill="rgb(243,240,231)" d="M  0,1l 0,10 1,0 0,-1 1,-1 2,0 1,1 1,0 1,1 0,1 1,1 2,0 0,-1 1,-1 2,0 1,1 1,1 0,1 1,0 1,1 3,0 1,1 4,0 1,-1 3,0 1,1 0,1 1,0 1,1 1,0 0,-1 1,-1 2,0 1,1 1,1 1,1 0,1 3,0 1,1 2,0 0,-1 1,-1 2,0 1,1 1,1 0,1 1,0 1,1 3,0 1,1 3,0 1,1 3,0 1,-1 0,0 1,-1 0,-1 1,-1 0,-21 -65,0 -1,1Z"/>
<path onmouseover="hoverPath(evt)" onmouseout="recoverPath(evt)" fill="rgb(248,200,111)" d="M  1,13l -1,0 0,11 2,0 1,1 0,-1 1,-1 4,0 1,1 1,0 1,1 0,1 1,1 0,-1 1,-1 4,0 1,1 4,0 1,1 3,0 1,1 4,0 1,1 1,1 0,1 1,0 1,1 0,-1 1,-1 4,0 1,1 1,0 1,1 0,1 1,1 0,-1 1,-1 4,0 1,1 4,0 1,1 4,0 1,1 1,1 0,1 1,0 1,1 0,2 3,0 0,-1 1,-1 2,0 1,1 1,-1 3,0 1,1 0,1 1,1 6,0 1,1 5,0 1,1 4,0 1,1 6,0 1,1 1,0 1,-1 6,0 1,1 1,1 1,-1 2,0 1,1 8,0 1,1 6,0 1,1 4,0 1,1 4,0 1,1 2,0 1,-1 1,0 0,-1 1,-1 2,0 1,1 1,-1 4,0 1,-1 0,-2 1,-1 1,0 0,-2 -3,0 -1,-1 -1,0 0,2 -1,1 -3,0 -1,-1 0,-1 -1,0 -1,1 -2,0 -1,-1 0,-1 -2,0 -1,-1 -1,1 -3,0 -1,-1 -1,-1 -5,0 -1,-1 0,1 -1,1 -5,0 -1,-1 -3,0 -1,-1 -2,0 -1,-1 0,-1 -3,0 -1,-1 -5,0 -1,-1 -3,0 -1,-1 -5,0 -1,-1 -3,0 -1,1 -5,0 -1,-1 -4,0 -1,-1 -1,0 -1,-1 0,-1 -1,-1 -1,-1 -3,0 -1,1 -3,0 -1,-1 -1,0 -1,1 -5,0 -1,-1 -3,0 -1,-1 -3,0 -1,-1 -1,0 -1,-1 0,-1 -1,-1 0,1 -1,1 -4,0 -1,-1 -3,0 -1,-1 0,-1 -1,-1 -1,-1 0,1 -1,1 -3,0 -1,-1 -1,0 -1,-1 0,-1 -1,0 -1,1 -6,0 -1,-1 -3,0 -1,-1 -1,0 -1,-1 0,-1 -1,-1 0,1 -1,1 -4,0 -1,-1 -1,-1 0,-1 -1,0 -1,-1 0,1 -1,1Z"/>
<path onmouseover="hoverPath(evt)" onmouseout="recoverPath(evt)" fill="rgb(170,198,238)" d="M  3,221l 0,0 -1,1 -2,0 0,17 1,-1 1,-1 1,-1 1,-1 1,0 1,-1 0,-1 1,-1 1,-1 1,-1 1,-1 1,-1 1,-1 1,-1 1,-1 1,-1 0,-1 1,-1 1,-1 1,-1 0,-2 1,-1 0,-3 1,-1 0,-1 -1,0 -1,1 0,0 -1,1 -2,0 -1,1 -2,0 -1,1 -1,0 -1,1 -1,0 -1,1 -1,1 -1,1 -1,0 -1,1Z"/>
<path onmouseover="hoverPath(evt)" onmouseout="recoverPath(evt)" fill="rgb(235,225,211)" d="M  67,53l -1,0 0,3 1,0 1,1 1,1 0,8 -1,1 -2,0 -1,1 -6,0 -1,-1 0,-1 -1,0 -1,1 -1,0 -1,1 -3,0 -1,-1 -1,1 -6,0 -1,1 0,1 -1,1 -1,0 -2,2 -1,0 -1,1 -1,1 -2,2 -1,1 7,-5 2,0 1,1 0,2 -1,1 0,1 1,0 1,1 0,1 2,0 1,1 0,1 1,1 1,0 1,-1 4,0 1,1 0,3 -1,1 -1,0 0,1 6,0 1,1 0,2 4,0 1,1 4,0 -1,-1 0,-3 -1,-1 0,-4 1,-1 0,-2 1,-1 2,0 0,-2 1,-1 0,-1 1,-1 0,-2 1,-1 2,0 1,-1 3,0 1,-1 6,0 1,1 3,0 -1,-1 0,-2 1,-1 3,0 1,1 1,0 0,-1 1,-1 1,0 1,-1 5,0 1,1 1,0 1,1 0,-4 1,-1 6,0 1,1 0,-1 1,-1 3,0 1,-1 3,0 1,-1 2,0 1,1 1,0 1,-1 1,-1 1,0 0,-1 1,-1 6,0 0,-4 -2,0 -1,-1 -4,0 -1,-1 -6,0 -1,-1 -8,0 -1,-1 -1,1 -2,0 -1,-1 -1,-1 -4,0 -1,1 -3,0 -1,-1 -6,0 -1,-1 -4,0 -1,-1 -5,0 -1,-1 -6,0 -1,-1 -1,-1 0,-1 -1,0 0,4 -1,1 0,3 -1,1 0,2 -1,1 -1,0 -1,1Z"/>
<path onmouseover="hoverPath(evt)" onmouseout="recoverPath(evt)" fill="rgb(243,235,162)" d="M  70,0l -2,0 0,22 -1,1 1,1 0,1 1,0 1,-1 4,0 0,-15 1,-1 12,0 -5,-1 -1,0 -1,-1 -1,-1 0,-5Z"/>
<path onmouseover="hoverPath(evt)" onmouseout="recoverPath(evt)" fill="rgb(241,236,229)" d="M  110,32l 0,0 1,1 3,0 1,1 0,1 2,0 1,1 3,0 1,1 3,0 0,-1 1,-1 2,0 1,1 5,0 1,1 1,1 1,0 1,-1 2,0 1,1 2,0 1,1 4,0 1,1 0,1 1,0 0,-2 1,-1 3,0 1,1 3,0 1,1 4,0 1,-1 0,-2 1,-1 1,-1 2,0 1,1 0,2 -1,1 4,0 0,-1 1,-1 0,-1 1,-1 1,0 1,-1 1,-1 1,0 3,-3 0,-1 1,-1 1,0 1,-1 1,-1 2,-2 1,-1 1,-1 1,-1 0,-1 1,-1 1,0 1,-1 1,0 1,-1 0,-1 1,-1 1,0 2,-2 0,-1 1,-1 1,0 1,-1 1,-1 1,-1 1,0 1,-1 1,-1 1,-1 0,-1 1,-1 1,0 1,-1 0,-2 -130,0 0,4 1,1 1,0 1,1 4,0 1,1 0,2 -1,1 -12,0 0,15 1,1 0,0 1,1 0,1 1,0 1,1 4,0 1,1 3,0 1,-1 5,0 1,1 5,0 1,1 3,0 1,1Z"/>
<path onmouseover="hoverPath(evt)" onmouseout="recoverPath(evt)" fill="rgb(248,248,242)" d="M  143,221l 0,1 -1,1 0,1 -1,1 -1,1 -1,1 -1,1 -1,0 -1,1 0,0 -1,1 0,1 -1,1 -1,1 -1,1 -1,1 -3,3 -1,1 -1,1 -1,1 -1,1 -1,1 -1,0 -1,1 -1,1 -5,5 -1,1 -2,2 -1,1 0,1 4,0 0,-2 1,-1 1,-1 1,-1 1,-1 0,-2 1,-1 1,-1 1,-1 1,0 20,-23 -8,11 3,0 1,1 1,1 0,2 1,1 1,-1 2,0 1,1 1,1 0,2 -1,1 -2,0 -1,1 -1,1 -1,1 0,2 -1,1 -1,1 -1,1 -1,1 -3,3 -1,1 0,1 3,0 0,-2 1,-1 1,-1 1,-1 1,-1 1,-1 1,-1 1,-1 1,-1 1,-1 1,-1 1,-1 1,-1 1,0 1,-1 2,0 1,-1 1,-1 1,-1 13,-13 1,-1 12,-12 1,-1 2,-2 1,-1 3,-3 1,-1 2,-2 1,-1 1,-1 0,-2 1,-1 1,-1 1,0 1,-1 1,-1 3,0 1,1 1,1 1,1 1,1 1,0 1,1 1,1 1,1 1,1 0,1 2,0 1,1 1,1 1,1 0,1 2,0 1,1 1,1 1,1 1,0 1,1 1,1 1,1 0,1 2,0 1,1 1,1 1,1 0,1 2,0 1,1 1,1 1,1 0,1 1,1 0,1 1,1 4,0 1,1 1,1 1,1 0,1 2,0 1,1 1,1 1,1 1,0 1,1 1,1 1,1 1,0 1,1 1,1 1,0 0,-2 -2,0 -1,-1 0,-1 -2,0 -1,-1 -1,-1 -1,-1 -1,0 -1,-1 -1,-1 -1,-1 0,-1 -2,0 -1,-1 -1,-1 -1,-1 0,-1 -1,-1 0,-1 -1,-1 -4,0 -1,-1 -1,-1 -1,-1 0,-1 -2,0 -1,-1 -1,-1 -1,-1 0,-1 -1,-1 0,-1 -1,-1 -3,0 -1,-1 -1,0 -1,-1 -1,-1 0,-1 -2,0 -3,-3 0,-1 -2,0 -1,-1 -1,-1 -1,-1 -1,-1 -1,-1 -1,-1 0,-4 1,-1 1,-1 2,-2 1,-1 1,0 1,-1 1,-1 1,0 0,-1 1,-1 1,-1 6,-6 1,0 2,-2 1,-1 1,0 0,-1 1,-1 1,-1 5,-5 1,-1 1,0 1,-1 1,-1 1,0 0,-1 1,-1 1,-1 2,-2 1,-1 1,-1 1,-1 1,-1 1,-1 1,0 1,-1 1,-1 1,0 0,-1 1,-1 1,-1 2,-2 2,0 0,-5 -1,0 -1,1 0,0 -1,1 0,2 -1,1 -1,1 -1,1 -1,0 0,1 -6,6 -1,1 -1,1 -1,0 -1,1 -1,1 -1,0 0,1 -1,1 -5,5 -1,1 -2,2 -1,0 -1,1 -1,1 -1,0 0,1 -6,6 -1,1 -1,1 -1,0 -1,1 -1,1 -1,0 0,1 -1,1 -2,2 -1,1 -1,1 -1,1 -1,1 -1,1 -1,1 -2,0 0,1 -1,1 -1,1 -1,1 -1,1 -2,0 -1,-1 -1,1 0,0 -1,1 -1,0 -1,1 -6,6 -1,1 -12,12 0,1 -1,1 -1,0 -1,1 -1,1 0,2 -1,1 -1,1 -1,1 -1,1 -1,1 -3,3 -1,1 -1,1 -1,1 -1,1 -1,1 -1,1 -1,1 -1,1 -1,1 -2,0 -1,-1 -1,0 -1,-1 -1,-1 0,-2 -3,0 -1,-1 -1,-1 0,-1 -3,3 8,-11 0,2 2,-2 1,-1 1,-1 -2,1 -2,0Z"/>
<path onmouseover="hoverPath(evt)" onmouseout="recoverPath(evt)" fill="rgb(244,243,235)" d="M  175,57l -1,1 -1,0 -3,3 -1,1 -3,3 0,1 -1,1 0,1 -1,1 -1,1 0,1 -1,1 -1,1 0,1 -1,1 0,1 -1,1 0,2 -1,1 0,1 -1,1 -1,1 0,1 -1,1 -1,1 0,1 -1,1 -1,1 0,1 -1,1 0,1 1,1 4,0 1,1 5,0 1,1 6,0 1,1 7,0 1,1 5,0 1,1 7,0 1,-1 15,0 1,1 1,0 1,-1 4,0 1,-1 3,0 0,-1 1,-1 1,-1 1,-1 1,-1 1,-1 2,0 1,-1 6,0 1,1 4,0 1,1 3,0 1,1 5,0 1,-1 2,0 1,-1 1,0 0,-1 1,-1 2,0 0,-31 -11,0 -1,1 -4,0 -1,1 -3,0 -1,-1 0,-1 -2,0 -1,1 0,0 -1,1 -3,0 -1,-1 0,-1 -10,0 0,1 -1,1 -5,0 -1,-1 -1,-1 -3,0 -1,1 -2,0 -1,1 -5,0 -1,-1 -3,0 -1,-1 -4,0 -1,-1 0,-1 -1,0 0,2 -1,1 -3,0 -1,-1 -2,0 -1,-1 -1,-1 -1,0Z"/>
<path onmouseover="hoverPath(evt)" onmouseout="recoverPath(evt)" fill="rgb(171,198,237)" d="M  0,206l 0,12 1,-1 0,0 1,-1 1,-1 1,-1 1,-1 0,-1 1,-1 0,-2 1,-1 1,-1 2,-2 0,-1 -1,-1 -1,-1 -1,-1 -2,0 0,1 -1,1 -1,1 -3,0Z"/>
<path onmouseover="hoverPath(evt)" onmouseout="recoverPath(evt)" fill="rgb(244,243,235)" d="M  0,242l 0,13 79,0 0,-1 -1,-1 0,-1 -2,0 -1,-1 0,-1 -1,-1 -1,-1 -1,-1 -1,-1 -1,-1 -1,-1 -1,-1 -1,0 -1,-1 -1,-1 -1,-1 -1,0 -1,-1 0,-1 -1,-1 0,-2 -3,0 -1,-1 -1,-1 -1,0 -1,-1 0,-2 1,-1 2,0 1,1 4,0 1,-1 0,-1 1,-1 1,0 1,-1 0,-6 1,-1 2,0 1,1 0,6 1,-1 1,-1 1,0 1,-1 1,-1 1,0 1,-1 1,-1 1,0 0,-1 1,-1 1,0 1,-1 1,-1 1,-1 1,-1 1,-1 0,-1 1,-1 1,-1 0,-1 1,-1 1,0 0,-1 1,-1 0,-1 2,-2 1,0 4,-4 1,-1 0,-2 -6,0 -1,-1 -1,0 -1,-1 -1,-1 0,-2 1,-1 2,0 1,1 1,1 2,0 0,-1 1,-1 1,0 1,-1 1,-1 1,-1 1,-1 1,-1 0,-1 1,-1 1,0 1,-1 2,-2 1,-1 1,-1 1,-1 5,0 1,1 0,2 -1,1 1,0 1,1 0,-1 1,-1 1,0 1,-1 4,0 1,-1 2,0 1,1 3,0 1,1 0,1 1,1 1,1 1,1 2,0 1,1 0,1 1,1 1,1 1,0 1,1 1,-1 1,0 1,-1 0,-1 1,-1 1,-1 1,-1 1,-1 1,-1 3,0 1,-1 2,0 1,1 1,1 0,2 1,1 1,1 1,0 1,1 1,1 1,1 0,1 2,0 1,1 1,1 1,1 1,1 0,4 -1,1 -1,1 -1,1 -1,1 -1,1 -1,1 -1,0 -1,1 -1,0 0,1 -1,1 -1,1 -1,1 -1,1 -1,0 0,1 -1,1 -1,0 -1,1 -1,1 -1,1 -1,1 -1,1 -1,0 0,3 -1,1 -1,1 -1,1 -1,1 -1,1 -1,1 -1,1 -1,1 -1,1 1,1 3,0 1,1 0,2 1,1 1,0 1,1 1,-1 1,-1 5,-5 1,-1 4,-4 1,-1 1,-1 1,-1 1,-1 0,-2 1,-1 1,-1 1,-1 1,0 0,-1 1,-1 2,-2 1,-1 1,-1 1,-1 1,-1 1,-1 1,-1 1,-1 1,-1 1,-1 1,-1 1,-1 1,-1 1,-1 1,-1 1,-1 1,-1 1,-1 1,-1 1,0 1,-1 1,-1 2,0 1,1 1,-1 0,0 1,-1 1,-1 0,-1 1,-1 2,0 1,-1 1,-1 1,-1 1,-1 1,-1 1,-1 1,-1 1,-1 0,-1 1,-1 1,0 1,-1 1,-1 1,0 1,-1 1,-1 1,-1 1,-1 1,-1 1,-1 1,-1 0,-1 1,-1 1,0 1,-1 1,-1 1,0 1,-1 1,-1 1,-1 1,-1 1,-1 1,-1 1,-1 1,-1 0,-1 1,-1 1,0 1,-1 1,-1 1,0 2,-2 1,-1 4,-4 0,-1 1,-1 1,0 2,-2 0,-2 1,-1 1,-1 1,-1 2,0 0,-40 -3,0 -1,1 0,0 -1,1 -14,0 -1,-1 -3,0 -1,-1 -4,0 -1,1 -1,1 -1,0 -1,1 -1,1 -1,1 -1,0 -1,1 -2,0 -1,1 -4,0 -1,1 -6,0 -1,-1 -7,0 -1,1 -3,0 -1,1 -7,0 -1,-1 -7,0 -1,-1 -6,0 -1,-1 -5,0 -1,-1 -6,0 -1,-1 -5,0 -1,-1 -3,0 -1,1 0,1 -1,1 0,1 -1,1 0,1 -1,1 0,1 -1,1 -4,4 -1,1 -1,1 -1,1 -2,2 -1,1 -1,1 -1,1 -1,0 -2,2 -1,1 -4,4 -1,1 -1,1 -1,1 0,1 -1,1 -1,1 -1,1 -1,1 -2,2 -1,1 -1,1 -1,1 -1,1 -2,2 -1,1 -1,0 -1,1 -2,2 -1,1 -5,5 -1,1 -1,0 -1,1 -2,2 -1,1 -1,1 -4,0 -1,-1 -1,0 -1,1 -1,0 -1,1 -1,0 0,1 -1,1 -1,1 0,1 -1,1 -1,1 -1,1 -1,1 -1,1 -1,1 -1,1 -1,1 -1,1 -1,1 -1,1 -1,1 -2,2 -1,1 -1,1 -1,1 -2,2 -1,1 -1,1 -1,1 -1,1 -1,0 -1,1 -1,1 -1,1 -1,1 -1,1 -1,1 -1,1 -1,1 -1,1 -1,0 -1,1 -1,1 -1,1 -1,1 -1,1 -1,1 -1,1 -1,1 -1,1 -1,1 -1,0 -1,1 -1,1 -1,1 -1,1 -1,1 -3,0 -1,-1 -1,-1 0,-3 1,-1 2,-2 1,-1 1,-1 1,0 1,-1 1,-1 1,-1 1,-1 1,-1 1,-1 2,-2 1,-1 1,-1 1,-1 2,-2 1,0 1,-1 1,-1 1,-1 2,-2 1,-1 9,-9 1,-1 1,-1 1,-1 1,0 1,-1 1,-1 1,-1 1,-1 1,-1 1,-1 1,-1 1,-1 1,-1 1,-1 1,-1 1,0 1,-1 1,0 1,-1 1,0 0,-2 1,-1 0,-1 -1,-1 0,-1 -1,1 0,0 -5,5 -1,0 -9,9 -1,1 -4,4 -1,1 -1,1 -1,0 -1,1 -2,2 -1,1 -4,4 -1,1 -2,2 -1,1 -1,1 -1,0 -1,1 -1,1 -1,1 -1,1 -1,1 -1,1 -1,1 -1,1 -1,1 -1,1 -1,1 -1,0 -1,1 -1,1 -1,1 -1,0 -1,1 -1,0 -1,1 -2,0 -1,1 -5,0 -1,-1 0,1 1,1 0,3 -1,1 -2,2 -1,1 0,2 -1,1 0,1 -1,1 -1,1 -2,2 -1,1 -1,1 -1,0 4,-2 2,-2 1,-1 1,0 1,-1 1,0 1,-1 2,0 1,-1 2,0 1,-1 1,-1 3,0 1,1 0,3 -1,1 0,3 -1,1 0,2 -1,1 -1,1 -1,1 0,1 -1,1 -1,1 -1,1 -1,1 -1,1 -1,1 -2,2 -1,1 0,1 -1,1 -1,1 -1,0 -1,1 -1,1 -1,1 -1,1 -1,1 10,-41 1,-1 0,0 -1,-1 0,0 -1,-1 -2,0 -2,-2 -1,-1 3,4 1,0 1,1 1,1 -10,41Z"/>
<path onmouseover="hoverPath(evt)" onmouseout="recoverPath(evt)" fill="rgb(170,198,237)" d="M  37,194l 0,0 -1,1 -1,1 -3,3 -1,1 -2,2 -1,0 -1,1 -1,1 -1,1 -1,1 0,1 1,1 1,0 1,-1 0,0 1,-1 1,-1 1,-1 1,-1 1,0 1,-1 1,-1 1,-1 1,-1 1,-1 1,-1 1,-1 1,-1 1,-1 1,-1 1,0 2,-2 1,-1 1,-1 1,-1 1,-1 1,-1 2,-2 1,0 1,-1 1,-1 1,-1 1,-1 2,-2 1,-1 1,-1 1,-1 1,-1 1,-1 2,-2 1,-1 1,-1 1,-1 1,-1 1,-1 2,-2 1,-1 1,-1 0,-1 1,-1 1,-1 0,-1 -1,1 -1,0 -1,1 -1,0 -1,1 -1,1 -1,1 -1,1 -1,1 -1,1 -1,1 -1,1 -1,1 -1,1 -1,1 -1,0 -3,3 -1,1 -6,6 -1,1 -6,6 -1,1 -1,0 -1,1 -1,1 -3,3Z"/>
<path onmouseover="hoverPath(evt)" onmouseout="recoverPath(evt)" fill="rgb(226,224,202)" d="M  39,93l -1,0 -1,-1 0,-1 -1,-1 0,-2 -5,0 0,1 -1,1 -1,0 -1,1 -1,0 0,1 -1,1 -1,1 0,1 7,0 1,1 9,0 1,1 4,0 1,1 0,-3 -3,0 -1,-1 0,-1Z"/>
<path onmouseover="hoverPath(evt)" onmouseout="recoverPath(evt)" fill="rgb(243,241,233)" d="M  107,227l -4,4 -1,1 -2,2 -1,1 -3,3 -1,1 -2,2 -1,1 -2,2 -1,1 -2,2 -1,1 -1,1 -1,1 -5,0 -1,-1 -1,0 -1,-1 -1,-1 -2,-2 -1,-1 -1,-1 -1,-1 7,8 1,0 2,1 0,1 1,1 0,2 28,0 0,-2 3,-3 1,-1 6,-6 1,-1 1,-1 1,0 1,-1 2,-2 1,-1 6,-6 1,-1 0,-1 1,-1 1,-1 1,-1 1,0 1,-1 2,-2 0,-1 1,-1 0,-2 -1,-1 0,0 -1,-1 -1,-1 -1,0 -1,-1 -1,-1 -1,-1 -1,1 -2,0 -1,1 -1,1 -1,1 0,1 -1,1 -3,0 -1,-1 0,-2 1,-1 1,-1 1,-1 1,-1 0,-1 -1,-1 0,0 -1,-1 0,-3 1,-1 0,-1 1,-1 1,-1 1,-1 1,-1 1,-1 1,-1 2,-2 1,-1 0,-3 1,-1 1,-1 -1,-1 -1,-1 -1,0 -1,-1 -1,-1 -1,-1 -1,-1 -1,0 -1,-1 -1,0 -1,1 0,0 -1,1 -1,1 -2,2 0,1 -1,1 -1,0 -1,1 -2,2 -2,0 -1,-1 0,-2 1,-1 -1,0 -1,-1 0,-2 1,-1 1,-1 1,-1 -1,0 -1,-1 0,-2 1,-1 -3,0 -1,1 0,0 -1,1 -1,1 -1,1 -1,1 -1,1 -1,0 0,1 -1,1 -1,1 -1,1 -1,1 -1,1 -1,1 -1,0 0,1 -1,1 3,0 1,1 0,4 -1,1 -1,1 -1,1 -1,1 -1,1 -1,1 -1,0 -1,1 0,1 -1,1 0,1 -1,1 -1,0 0,1 -1,1 -1,1 2,-1 3,0 1,1 1,0 1,1 1,1 1,1 1,0 1,1 1,1 1,1 0,1 2,0 1,1 1,1 1,0 1,1 0,3 -1,1Z"/>
<path onmouseover="hoverPath(evt)" onmouseout="recoverPath(evt)" fill="rgb(244,243,236)" d="M  146,245l -1,1 -1,1 -3,3 -1,1 -3,3 0,1 118,0 0,-17 -2,0 -1,-1 -1,-1 -1,0 -1,-1 -1,-1 -1,-1 -1,0 -1,-1 -1,-1 -1,-1 -2,0 -1,-1 0,-1 -1,-1 -1,-1 -4,0 -1,-1 -1,-1 0,-1 -1,-1 0,-1 -1,-1 -1,-1 -2,0 -1,-1 0,-1 -1,-1 -1,-1 -2,0 -1,-1 0,-1 -1,-1 -1,-1 -1,0 -1,-1 -1,-1 -1,-1 -2,0 -1,-1 0,-1 -1,-1 -1,-1 -2,0 -1,-1 0,-1 -1,-1 -1,-1 -1,-1 -1,0 -1,-1 -1,-1 -1,-1 -1,-1 -1,0 -2,2 -1,0 -1,1 0,2 -1,1 -1,1 -2,2 -1,1 -1,1 -1,1 -1,1 -1,1 -1,1 -1,1 -1,1 -1,1 -1,1 -1,1 -1,1 -1,1 -2,2 -1,1 -3,3 -1,1 -1,1 -1,1 -1,1 -1,1 -1,1 -1,1 -1,1 -1,1 -1,1 -1,1 -1,1 -1,1 -1,1 -1,1 -1,1 -1,1 -1,1 -1,1 -2,0 -1,1 -1,0 -1,1 -1,1Z"/>
<path onmouseover="hoverPath(evt)" onmouseout="recoverPath(evt)" fill="rgb(242,235,227)" d="M  0,27l 0,29 1,0 1,-1 6,0 1,1 4,0 1,1 4,0 1,-1 2,0 1,1 0,1 1,0 1,1 0,1 1,1 4,0 1,1 3,0 1,1 1,0 1,-1 8,0 1,1 0,3 3,0 1,-1 2,0 1,1 1,0 0,-1 -1,-1 0,-1 -1,-1 0,-4 1,-1 5,-5 0,-1 2,-2 0,-1 1,-1 0,-2 1,-1 0,-5 -1,0 -1,-1 0,-1 -1,-1 -4,0 -1,-1 -4,0 -1,-1 -2,0 0,1 -1,1 -2,0 -1,-1 -1,-1 0,-1 -1,0 -1,-1 -2,0 0,1 -1,1 -2,0 -1,-1 -1,0 -1,-1 0,-1 -1,-1 -4,0 -1,-1 -3,0 -1,-1 -4,0 -1,-1 -2,0 0,1 -1,1 -2,0 -1,-1 -1,-1 0,-1 -1,0 -1,-1 -2,0 0,1 -1,1 -2,0 -1,-1 -1,1Z"/>
<path onmouseover="hoverPath(evt)" onmouseout="recoverPath(evt)" fill="rgb(243,240,233)" d="M  0,59l 0,22 2,0 1,1 3,0 1,1 3,0 1,1 1,0 1,1 1,1 0,1 5,0 1,-1 0,0 1,-1 1,-1 1,0 1,-1 1,-1 1,-1 1,-1 1,-1 1,-1 1,0 0,-1 1,-1 1,-1 1,-1 1,-1 1,-1 1,-1 1,0 1,-1 1,-1 1,0 0,-1 1,-1 1,-1 1,0 0,-2 -6,0 -1,1 -3,0 -1,-1 -3,0 -1,-1 -4,0 -1,-1 -1,-1 0,-1 -1,0 -1,-1 0,-1 -1,1 -6,0 -1,-1 -4,0 -1,-1 -4,0 -1,1 -1,0 -1,1Z"/>
<path onmouseover="hoverPath(evt)" onmouseout="recoverPath(evt)" fill="rgb(243,241,228)" d="M  0,119l 0,83 2,0 1,-1 0,-1 1,-1 1,0 -1,-1 0,0 -1,-1 -1,-1 0,-2 1,-1 2,0 1,1 1,1 1,1 1,0 0,-5 1,-1 1,-1 1,-1 0,-1 1,-1 1,-1 1,-1 1,-1 1,-1 1,-1 1,-1 1,-1 1,-1 1,-1 1,-1 1,-1 1,0 1,-1 1,-1 1,-1 1,-1 1,-1 1,-1 1,-1 1,-1 1,-1 1,-1 1,-1 1,-1 1,-1 1,-1 1,-1 1,-1 1,-1 1,-1 1,-1 1,0 10,-10 1,-1 1,-1 1,-1 1,-1 1,0 1,-1 5,-5 1,-1 5,-5 1,0 2,-2 1,-1 1,-1 1,-1 1,-1 1,-1 1,-1 1,-1 1,0 1,-1 1,-1 1,-1 1,-1 1,-1 1,-1 1,-1 1,-1 1,-1 1,-1 -3,0 -1,-1 -6,0 -1,-1 -7,0 -1,-1 -6,0 -1,-1 -6,0 -1,-1 -6,0 -1,-1 -6,0 -1,-1 -7,0 -1,-1 -6,0 -1,-1 -9,0 -1,-1 0,-3 1,-1 0,-1 1,-1 0,-2 2,-2 0,-1 1,-1 1,0 1,-1 1,0 0,-1 1,-1 7,0 1,1 0,2 1,1 0,1 5,0 -3,-1 0,-10 -1,0 -1,-1 0,-3 1,-1 -2,0 -4,4 -1,1 -3,0 -1,1 -1,1 -1,1 -1,1 -1,1 -1,1 -1,0 -2,2 -1,1 -7,0 -1,-1 0,-1 -1,-1 -1,0 -1,-1 -3,0 -1,-1 -3,0 -1,-1 -1,0Z"/>
<path onmouseover="hoverPath(evt)" onmouseout="recoverPath(evt)" fill="rgb(170,198,237)" d="M  19,183l -5,5 0,1 -1,1 -1,1 -1,1 0,5 1,1 1,1 0,1 3,0 1,-1 2,0 1,-1 1,0 1,-1 1,0 2,-2 1,-1 1,0 1,-1 1,-1 1,-1 6,-6 1,-1 1,-1 1,0 1,-1 3,-3 1,-1 6,-6 1,-1 1,-1 1,0 1,-1 1,-1 1,-1 1,-1 1,-1 1,-1 1,-1 1,-1 1,-1 3,-3 1,-1 1,-1 1,-1 1,-1 1,0 1,-1 1,-1 1,-1 1,-1 1,-1 1,-1 2,0 1,1 0,1 1,1 0,3 -1,1 0,2 1,-1 1,0 1,-1 3,0 1,1 2,0 1,-1 1,-1 1,-1 1,-1 1,-1 1,0 1,-1 1,-1 1,-1 1,-1 1,-1 1,-1 2,-2 1,-1 1,-1 1,0 1,-1 1,-1 7,-7 1,-1 2,-2 0,-1 1,-1 1,-1 1,-1 1,-1 2,-2 1,-1 1,-1 1,-1 1,-1 1,-1 1,0 1,-1 1,-1 3,-3 1,-1 6,-6 0,-1 1,-1 0,-1 1,-1 0,-1 1,-1 0,-1 1,-1 1,-1 5,0 1,1 5,0 1,1 6,0 1,1 5,0 1,1 6,0 1,1 7,0 1,1 5,0 1,-1 3,0 1,-1 9,0 1,1 4,0 1,-1 4,0 1,-1 2,0 1,-1 1,0 1,-1 1,-1 1,-1 1,0 1,-1 1,-1 6,0 1,1 3,0 1,1 12,0 1,-1 1,-1 4,0 0,-3 -1,0 0,1 -1,1 -1,0 -2,1 -1,0 -1,1 -7,0 -1,-1 -3,0 -1,-1 -4,0 -1,-1 -4,0 -1,1 -2,0 -2,2 -1,1 -1,1 0,1 1,-1 1,-1 -203,88 199,-85 -2,0 -1,1 -4,0 -1,1 -3,0 -1,-1 -13,0 -1,1 -9,0 -1,-1 -5,0 -1,-1 -7,0 -1,-1 -6,0 -1,-1 -5,0 -1,-1 -4,0 -1,-1 -1,-1 0,-3 1,-1 0,-1 1,-1 1,-1 0,-1 2,-2 0,-1 1,-1 1,-1 0,-1 1,-1 0,-2 1,-1 0,-1 1,-1 0,-1 1,-1 1,-1 0,-1 1,-1 1,-1 0,-1 1,-1 0,-1 1,-1 2,-2 1,-1 1,-1 1,-1 1,-1 1,-1 1,0 0,-1 -3,0 -1,-1 0,1 -1,1 -12,0 -3,3 -1,1 -3,3 -1,1 -2,2 -1,1 -1,0 -1,1 -1,1 -1,1 -6,6 -1,1 -1,0 -1,1 -1,1 -1,1 -1,1 -1,0 0,1 -6,6 -1,1 -1,0 -1,1 -1,1 -3,3 -1,1 -2,2 -1,1 -1,1 -1,0 -1,1 -1,1 -2,2 -1,1 -1,1 -1,1 -1,0 -1,1 -2,0 -1,-1 -6,0 -1,-1 -7,0 -1,-1 -6,0 -1,-1 -6,0 -1,-1 -7,0 -1,-1 -6,0 -1,-1 -6,0 -1,-1 -4,0 -1,-1 -9,0 -1,-1 -7,0 0,1 -1,1 0,1 9,0 1,1 6,0 1,1 7,0 1,1 6,0 1,1 6,0 1,1 6,0 1,1 6,0 1,1 7,0 1,1 6,0 1,1 3,0 1,1 0,2 -1,1 -1,1 -1,1 -1,1 -1,1 -2,2 -1,1 -1,1 -1,1 -1,1 -1,0 -7,7 -1,1 -1,1 -1,0 -1,1 -3,3 -1,1 -6,6 -1,1 -1,0 -1,1 -1,1 -1,1 -1,1 -1,1 -1,1 -1,1 -1,1 -1,1 -1,1 -1,1 -1,1 -1,1 -1,1 -1,0 -1,1 -1,1 -1,1 -1,1 -1,1 -1,1 -2,2 -1,1 -1,1 -1,1 -1,1 -1,1 -2,2 -1,1 -1,1 -1,1 -1,1 -1,0 -3,3 -1,1 -1,1 198,-84 -199,85Z"/>
<path onmouseover="hoverPath(evt)" onmouseout="recoverPath(evt)" fill="rgb(241,235,227)" d="M  50,95l 0,3 4,0 1,1 6,0 1,1 7,0 1,1 6,0 1,1 6,0 1,1 7,0 1,1 6,0 1,1 1,-1 1,0 1,-1 2,-2 1,-1 1,-1 1,-1 1,-1 1,0 1,-1 4,-4 1,-1 4,-4 1,0 5,-5 1,-1 0,-1 1,-1 1,0 1,-1 1,-1 1,-1 1,-1 1,0 1,-1 1,-1 4,-4 1,-1 2,-2 1,-1 1,0 1,-1 1,-1 1,-1 1,-1 1,-1 1,-1 1,-1 2,-2 1,-1 1,-1 1,0 0,-1 -1,0 -1,-1 -1,-1 0,-2 -2,0 -1,1 -2,0 -1,-1 0,1 -1,1 -1,0 -1,1 -4,0 -1,-1 0,5 -1,1 -6,0 0,1 -1,1 -1,0 -1,1 -1,1 -3,0 -1,-1 -1,1 -3,0 -1,1 -3,0 0,1 -1,1 -2,0 -1,-1 -4,0 0,4 -1,1 -2,0 -1,-1 -1,0 -1,-1 -3,0 -1,1 -1,0 0,1 -1,1 -3,0 -1,-1 -1,0 1,1 0,2 -1,1 -5,0 -1,-1 -4,0 -1,1 -3,0 -1,1 -2,0 0,2 -1,1 0,1 -1,1 0,2 -1,1 -2,0 0,2 -1,1 0,2 1,1 0,3 1,1 0,2 -1,1 -6,0 -1,-1 -4,0 -1,-1 0,-2 -6,0 -1,-1 0,-3 1,-1 1,0 0,-1 -2,0 -1,1 -3,0 -1,-1 -1,-1 0,-1 -1,0 0,7 2,0 1,1 0,3 3,0 1,1Z"/>
<path onmouseover="hoverPath(evt)" onmouseout="recoverPath(evt)" fill="rgb(239,220,140)" d="M  60,51l 0,0 -1,1 0,1 -1,1 -1,1 -1,1 -1,1 -1,1 -1,1 0,2 1,1 0,1 1,1 0,1 1,-1 3,0 1,1 0,1 4,0 1,-1 2,0 0,-6 -1,-1 -1,0 -1,-1 0,-5 1,-1 1,0 1,-1 1,0 0,-2 1,-1 0,-3 1,-1 0,-2 -1,0 -1,-1 0,1 -1,1 -4,0 0,3 -1,1 0,2 -1,1 0,1 -1,1Z"/>
<path onmouseover="hoverPath(evt)" onmouseout="recoverPath(evt)" fill="rgb(243,242,233)" d="M  65,238l 0,0 1,1 1,1 1,1 1,-1 2,0 1,1 1,1 1,1 1,1 1,1 1,1 1,1 1,0 1,1 3,0 1,-1 1,-1 1,-1 1,-1 1,-1 1,-1 1,-1 1,-1 1,-1 1,-1 1,-1 1,-1 1,-1 1,-1 1,-1 1,-1 1,-1 1,-1 1,-1 1,-1 1,-1 1,-1 1,-1 0,-1 -1,0 -1,-1 -1,-1 -2,0 -1,-1 0,-1 -1,-1 -1,-1 -1,0 -1,-1 -1,-1 -1,-1 -1,0 -1,-1 -2,0 -1,1 -2,0 -1,1 -1,1 -1,1 -1,1 -1,1 -1,0 0,1 -1,1 -1,0 -1,1 -1,1 -1,0 -1,1 -1,1 -1,0 -1,1 -1,1 -2,0 -1,-1 0,-6 -1,7 0,0 -1,1 -1,0 0,1 -1,1 -1,1 -5,0 1,1 3,0 1,1 0,2 2,2Z"/>
<path onmouseover="hoverPath(evt)" onmouseout="recoverPath(evt)" fill="rgb(251,250,247)" d="M  131,182l 0,-1 -3,0 -1,-1 -1,1 -4,0 -1,1 -1,0 0,1 -1,1 -1,0 -3,3 1,0 1,1 0,2 -1,1 2,-2 0,0 1,-1 1,0 0,-1 1,-1 1,-1 1,-1 1,-1 1,-1 6,0 -4,-1 3,1 3,2 1,1 1,1 1,0 1,1 1,1 1,1 0,2 -1,1 -1,1 0,3 -6,6 -1,1 -1,1 -1,1 0,1 -1,1 0,1 1,1 0,0 1,1 0,3 -1,1 -3,3 1,0 4,-5 2,0 0,-2 -1,0 -1,-1 0,-3 1,-1 2,-2 1,-1 1,-1 1,-1 1,-1 1,-1 2,-2 0,-1 1,-1 1,0 1,-1 1,-1 2,-2 1,0 0,-1 1,-1 1,-1 1,-1 1,-1 1,0 0,-1 1,-1 4,0 -1,-1 0,0 -4,1 -1,1 -2,2 -1,1 -3,3 -1,1 -2,0 -1,-1 -1,0 -13,-9 4,1Z"/>
<path onmouseover="hoverPath(evt)" onmouseout="recoverPath(evt)" fill="rgb(242,240,231)" d="M  134,235l 0,0 -1,1 -1,1 -1,1 -1,1 -1,1 -1,1 -1,1 -1,1 -1,1 0,1 -1,1 -1,0 -1,1 -1,1 0,2 -1,1 -1,1 -2,2 0,1 13,0 0,-2 1,-1 5,-5 1,-1 1,-1 0,-2 1,-1 1,-1 1,-1 1,-1 2,0 -1,-1 0,0 -2,1 -1,0 -1,-1 -1,-1 0,-2 -1,-1 -2,0 -1,1Z"/>
<path onmouseover="hoverPath(evt)" onmouseout="recoverPath(evt)" fill="rgb(242,240,231)" d="M  154,186l 0,0 -1,1 -1,0 -1,1 -1,1 -1,1 0,1 -1,1 -1,0 -1,1 -1,1 -1,1 -1,1 -1,0 0,1 -1,1 -1,1 -1,1 -1,1 -1,1 -1,1 -1,1 -1,1 -1,1 -1,1 0,1 1,0 1,1 0,2 1,0 1,1 1,1 1,1 1,0 1,1 1,1 1,1 1,1 2,0 1,-1 1,0 0,-1 1,-1 1,0 1,-1 1,-1 1,-1 1,-1 1,-1 1,0 0,-1 1,-1 1,0 2,-2 1,-1 0,-1 1,-1 1,0 1,-1 1,0 1,-1 4,-4 0,-2 -1,-1 0,0 -1,-1 -1,-1 -2,0 -1,-1 0,-1 -1,-1 -1,-1 -1,0 -1,-1 -1,-1 -1,-1 -2,0 -1,1Z"/>
<path onmouseover="hoverPath(evt)" onmouseout="recoverPath(evt)" fill="rgb(247,197,110)" d="M  157,51l 0,0 1,1 0,2 9,0 0,-1 1,-1 2,0 1,1 6,0 2,2 2,0 1,1 1,0 0,-2 1,-1 3,0 1,1 0,1 1,0 1,-1 2,0 1,1 0,1 3,0 1,1 3,0 1,-1 2,0 1,-1 5,0 1,1 1,1 3,0 0,-1 1,-1 12,0 1,1 0,1 1,0 1,-1 1,-1 4,0 1,1 0,1 1,0 1,-1 4,0 1,-1 12,0 0,-11 -3,0 -1,1 -4,0 -1,-1 -4,0 0,1 -1,1 -7,0 -1,-1 0,-1 -2,0 -1,1 -1,1 -16,0 -1,-1 -1,0 -1,-1 -12,0 -1,-1 0,2 -1,1 -3,0 -1,-1 0,-1 -4,0 -1,-1 -3,0 -1,1 -2,0 -1,-1 0,-1 -7,0 -1,-1 -5,0 -1,-1 0,-2 1,-1 -2,4 -1,1 -5,0 0,2 -1,1 -1,0 0,2 -1,1 -1,1 0,1 1,1Z"/>
</svg>