<svg width="256" height="256" xmlns="http://www.w3.org/2000/svg"><script> 
var tempColor;
function hoverPath(evt){
obj = evt.target;
tempColor = obj.getAttribute("fill");
obj.setAttribute("fill","red");
//alert(tempColor);
//obj.setAttribute("stroke","red");}
function recoverPath(evt){
obj = evt.target;
obj.setAttribute("fill", tempColor);
//obj.setAttribute("stroke", tempColor);
}</script><path onmouseover="hoverPath(evt)" onmouseout="recoverPath(evt)" fill="rgb(253,253,253)" d="M  1,152l -1,0 0,1 2,0 1,-1 6,0 1,-1 5,0 1,-1 5,0 1,-1 6,0 1,-1 5,0 1,-1 5,0 1,-1 6,0 1,-1 5,0 1,-1 9,0 1,-1 2,0 1,-1 5,0 1,-1 6,0 1,-1 6,0 1,-1 5,0 1,-1 5,0 1,-1 6,0 1,-1 5,0 1,-1 5,0 1,-1 6,0 0,-1 -1,-1 -1,0 -1,1 -4,0 -1,1 -5,0 -1,1 -6,0 -1,1 -5,0 -1,1 -5,0 -1,1 -6,0 -1,1 -5,0 -1,1 -5,0 -1,1 -6,0 -1,1 -9,0 -1,1 -2,0 -1,1 -5,0 -1,1 -5,0 -1,1 -5,0 -1,1 -6,0 -1,1 -5,0 -1,1 -5,0 -1,1 -6,0 -1,1 -5,0 -1,1Z"/>
<path onmouseover="hoverPath(evt)" onmouseout="recoverPath(evt)" fill="rgb(171,198,238)" d="M  1,176l -1,0 0,16 3,0 1,-1 2,0 1,-1 2,0 1,-1 1,0 0,-2 -1,-1 0,-1 -1,-1 -1,-1 0,-1 -1,-1 0,-1 -1,-1 0,-1 -2,-2Z"/>
<path onmouseover="hoverPath(evt)" onmouseout="recoverPath(evt)" fill="rgb(244,243,236)" d="M  72,72l -2,2 0,1 1,1 1,1 0,1 1,0 1,1 1,0 1,1 1,1 1,1 1,1 1,1 0,1 2,0 1,1 1,1 1,1 1,1 0,1 1,0 1,1 1,0 1,1 1,1 1,1 1,1 0,2 1,1 1,1 0,-1 1,-1 2,0 1,-1 2,0 1,-1 2,0 1,-1 2,0 1,-1 2,0 1,-1 2,0 1,-1 2,0 1,-1 2,0 1,-1 3,0 1,-1 1,0 1,-1 3,0 1,-1 1,0 1,-1 2,0 1,-1 1,0 1,-1 2,0 1,-1 3,0 2,-2 2,0 1,-1 0,-1 -1,-1 0,-1 -1,-1 -1,-1 0,-1 -1,-1 -1,-1 -1,-1 -1,-1 -1,-1 0,-1 -1,-1 -1,-1 -1,-1 -1,-1 0,-1 -1,-1 -1,-1 -1,-1 -1,-1 -1,-1 0,-1 -1,-1 -1,-1 -1,-1 0,-1 -1,-1 -1,-1 -1,-1 -1,-1 0,-1 -1,-1 -1,-1 -1,-1 0,-1 -1,-1 -1,-1 -1,-1 0,-1 -1,-1 -1,-1 -1,1 0,0 -1,1 -1,0 -1,1 -1,1 -1,1 -1,0 -1,1 -1,1 -1,1 -1,0 -1,1 -1,1 -1,1 -1,0 -1,1 -1,1 -1,1 -1,0 -1,1 -1,1 -1,1 -1,1 -1,0 -1,1 -1,1 -1,1 -1,1 -1,0 -1,1 -1,1 -1,1 -1,1 -1,1 -1,0 -1,1 -1,1 -1,1 -1,1 -1,1 -1,1 -1,0 -2,2Z"/>
<path onmouseover="hoverPath(evt)" onmouseout="recoverPath(evt)" fill="rgb(239,230,146)" d="M  0,1l 0,8 2,0 1,1 1,1 2,0 1,1 0,3 -1,1 2,0 1,1 0,1 1,1 1,1 1,1 1,0 1,1 0,2 1,1 1,1 1,1 0,3 -1,1 -7,0 -1,1 -2,0 -1,1 -1,0 -1,1 -3,0 0,9 1,-3 0,-1 1,-1 0,-1 1,-1 1,-1 1,-1 1,0 1,-1 3,0 1,1 3,0 1,-1 7,0 1,1 1,1 1,1 1,1 1,0 1,1 0,2 1,1 1,1 1,0 1,1 0,2 1,1 1,1 1,1 1,0 1,1 0,1 1,1 0,1 1,1 1,1 1,1 1,0 1,1 0,2 1,1 1,1 1,1 1,0 1,1 0,2 1,1 1,1 1,0 1,1 0,2 1,1 1,1 1,1 1,1 1,1 1,1 1,1 1,1 1,1 2,0 1,1 0,1 1,1 1,1 1,1 1,1 1,1 2,0 1,1 0,1 3,3 1,1 2,0 1,1 0,1 1,1 1,1 1,1 1,1 2,0 1,1 0,1 1,1 2,0 1,1 1,0 1,1 1,1 0,2 1,1 1,1 2,0 1,1 0,1 1,1 1,0 1,1 1,1 1,0 1,1 1,1 1,1 1,1 1,1 1,1 1,0 1,1 1,1 1,0 1,1 0,1 1,1 1,1 1,1 1,1 1,0 1,1 1,1 0,1 1,1 2,0 1,1 1,1 0,2 2,0 1,1 3,0 1,1 0,2 3,0 0,-1 3,-3 3,0 1,1 1,-1 0,-1 1,-1 4,0 1,-1 5,0 1,-1 5,0 1,-1 5,0 1,-1 4,0 1,-1 5,0 1,-1 5,0 1,-1 3,0 1,-1 5,0 1,-1 4,0 1,-1 5,0 1,-1 4,0 1,-1 5,0 1,-1 4,0 1,-1 4,0 1,-1 5,0 1,-1 4,0 1,-1 5,0 1,-1 5,0 1,-1 5,0 0,-6 -4,0 -1,1 -5,0 -1,1 -5,0 -1,1 -4,0 -1,1 -5,0 -1,1 -4,0 -1,1 -5,0 -1,1 -4,0 -1,1 -4,0 -1,1 -5,0 -1,1 -4,0 -1,1 -5,0 -1,1 -4,0 -1,1 -5,0 -1,1 -4,0 -1,1 -5,0 -1,1 -4,0 -1,1 -5,0 -1,1 -5,0 -1,1 -4,0 -1,1 -5,0 -1,1 -7,0 -1,-1 -1,-1 -1,0 -1,-1 -1,0 -1,-1 0,-1 -1,-1 -1,-1 -1,-1 -1,-1 -2,0 -1,-1 0,-1 -1,-1 -1,-1 -1,0 -1,-1 -1,0 -1,-1 0,-1 -1,-1 -1,0 -1,-1 -1,-1 -1,0 -1,-1 -1,-1 -1,0 -1,-1 -1,0 -1,-1 -1,-1 -1,-1 0,-3 1,-1 2,0 1,-1 2,0 1,-1 2,0 1,-1 2,0 1,-1 1,0 1,-1 2,0 1,-1 2,0 1,-1 1,-1 3,0 1,-1 1,0 1,-1 -1,0 -2,1 -4,1 -1,1 -2,0 -1,1 -2,0 -1,1 -2,0 -1,1 -2,0 -1,1 -2,0 -1,1 -2,0 -1,1 -2,0 -1,1 -2,0 0,1 -1,1 -2,0 -1,-1 -1,-1 -1,-1 0,-2 -1,-1 -1,-1 -1,-1 -1,0 -1,-1 -1,0 -1,-1 0,-1 -1,-1 -1,-1 -1,-1 -2,0 -1,-1 0,-1 -1,-1 -1,-1 -1,-1 -1,-1 -1,0 -1,-1 -1,0 -1,-1 0,-1 -1,-1 -1,-1 -1,-1 -3,0 -1,-1 -1,-1 -1,-1 0,-2 -1,-1 -1,-1 -1,-1 -1,-1 -1,-1 0,-1 -1,-1 -1,-1 -2,0 -1,-1 -1,-1 -1,-1 0,-2 1,-1 3,-3 1,0 0,-1 -4,3 -1,0 -1,-1 0,-1 -1,0 -1,-1 -1,-1 -1,-1 -1,0 -1,-1 0,-2 -1,-1 -1,-1 -1,-1 -1,-1 -1,0 -1,-1 0,-2 -1,-1 -1,-1 -1,0 -1,-1 0,-2 -1,-1 -1,-1 -1,-1 -1,0 -1,-1 0,-2 -2,0 -1,-1 -1,-1 -1,-1 0,-3 -1,0 -1,-1 -1,0 -1,-1 0,-2 -1,-1 -1,-1 -1,0 -1,-1 0,-2 -1,-1 -1,-1 -1,0 -1,-1 0,-2 -1,-1 -1,-1 -1,-1 -1,-1 0,-1 -1,-1 -1,-1 0,-2 -3,0 -1,1 133,138 0,0 -133,-138Z"/>
<path onmouseover="hoverPath(evt)" onmouseout="recoverPath(evt)" fill="rgb(244,243,235)" d="M  0,93l 0,35 1,0 1,-1 2,0 1,-1 1,0 1,-1 2,0 1,-1 2,0 1,-1 2,0 1,-1 2,0 1,-1 3,0 1,-1 2,0 1,-1 2,0 1,1 0,1 1,0 1,-1 1,0 1,-1 3,0 0,-1 -1,-1 0,0 -1,-1 -1,-1 -1,-1 -1,0 -1,-1 -1,-1 -1,-1 -3,-3 -1,0 -1,-1 -1,-1 -1,-1 -1,-1 -1,0 -1,-1 -1,-1 -1,0 -1,-1 -1,-1 -1,0 -1,-1 -1,-1 -1,0 -1,-1 -1,-1 -1,0 -1,-1 -1,-1 -1,0 -1,-1 -1,-1 -1,0 -1,1Z"/>
<path onmouseover="hoverPath(evt)" onmouseout="recoverPath(evt)" fill="rgb(171,198,238)" d="M  0,221l 0,34 17,0 0,-1 -1,-1 0,-1 -1,-1 0,-2 -1,-1 0,-1 -1,-1 0,-1 -1,-1 0,-2 -1,-1 0,-1 -1,-1 0,-1 -1,-1 0,-1 -1,-1 0,-1 -1,-1 0,-2 -1,-1 0,-1 -1,-1 0,-1 -1,-1 0,-1 -1,-1 0,-1 -1,-1 0,-2 -1,-1 0,-1 -1,0Z"/>
<path onmouseover="hoverPath(evt)" onmouseout="recoverPath(evt)" fill="rgb(239,240,233)" d="M  1,136l -1,0 0,14 1,0 1,-1 5,0 1,-1 6,0 1,-1 5,0 1,-1 5,0 1,-1 6,0 1,-1 5,0 1,-1 5,0 1,-1 5,0 1,-1 2,0 1,-1 3,0 0,-1 -1,-1 0,0 -1,-1 0,-1 -1,-1 -1,-1 -1,-1 0,-1 -1,-1 -1,-1 -1,-1 0,-1 -1,-1 -1,-1 -1,-1 -4,0 -1,-1 -1,-1 -3,0 -1,1 -3,0 -1,1 -1,1 -3,0 -1,1 -2,0 -1,1 -2,0 -1,1 -1,1 -2,0 -1,1 -2,0 -1,1 -2,0 -1,1 -2,0 -1,1 -2,0 -1,1 -1,0 -1,1Z"/>
<path onmouseover="hoverPath(evt)" onmouseout="recoverPath(evt)" fill="rgb(241,242,237)" d="M  26,0l -20,0 0,1 1,1 0,0 1,1 0,1 1,1 1,1 1,1 1,1 0,2 1,0 1,1 1,1 1,1 0,2 1,0 1,1 1,1 1,1 0,2 1,0 1,1 1,0 0,-1 1,-1 0,-2 1,-1 0,-1 1,-1 0,-1 1,-1 0,-3 1,-1 4,0 1,1 16,0 1,-1 0,-2 1,-1 0,-5Z"/>
<path onmouseover="hoverPath(evt)" onmouseout="recoverPath(evt)" fill="rgb(243,243,234)" d="M  47,121l 0,2 1,0 1,1 1,1 1,1 1,1 0,1 1,1 1,1 1,1 0,1 1,1 1,1 1,1 0,1 1,1 1,1 0,2 4,0 1,-1 6,0 1,-1 5,0 1,-1 5,0 1,-1 6,0 1,-1 5,0 1,-1 5,0 1,-1 6,0 1,-1 5,0 1,-1 4,0 -1,-1 0,-1 -1,-1 -1,0 -1,-1 -1,-1 -1,-1 -1,-1 -1,-1 0,-1 -1,0 -1,-1 -1,-1 -1,0 -1,-1 -1,-1 -1,-1 -1,-1 -1,-1 -1,-1 -1,0 -1,-1 -1,-1 -1,0 -1,-1 -1,-1 0,-1 -2,0 -1,-1 -1,-1 -1,-1 -3,0 -1,1 -2,0 -1,1 -2,0 -1,1 -2,0 -1,1 -2,0 -1,1 -2,0 -1,1 -2,0 -1,1 -2,0 -1,1 -2,0 -1,1 -1,0 -1,1 -2,0 -1,1 -1,0 -1,1 -2,0 -1,1 -2,0 -1,1 -2,0 -1,1Z"/>
<path onmouseover="hoverPath(evt)" onmouseout="recoverPath(evt)" fill="rgb(244,243,235)" d="M  53,56l 0,0 -1,1 -1,1 1,1 1,1 2,0 1,1 1,1 1,1 0,1 1,1 1,1 1,1 1,1 1,-1 0,0 1,-1 1,-1 1,0 1,-1 1,0 1,-1 1,-1 1,0 1,-1 1,-1 1,-1 1,0 1,-1 2,-2 1,0 1,-1 1,-1 1,0 1,-1 1,-1 1,-1 1,0 1,-1 2,-2 1,0 1,-1 1,-1 1,-1 1,0 1,-1 1,-1 1,-1 1,-1 1,-1 1,0 1,-1 1,-1 1,-1 1,-1 1,-1 1,-1 1,0 1,-1 1,-1 1,-1 1,0 1,-1 1,0 1,-1 1,0 1,-1 1,-1 1,0 1,-1 2,0 1,-1 1,0 1,-1 2,0 1,-1 2,0 1,-1 1,0 1,-1 2,0 1,-1 1,0 1,-1 1,0 1,-1 1,0 1,-1 0,-1 1,-1 0,-3 -1,-1 0,0 -1,-1 0,-1 -1,0 -1,-1 -1,-1 -1,-1 -1,-1 -1,0 -1,-1 -2,0 -1,-1 -1,0 -1,1 0,0 -1,1 0,1 -1,1 -2,2 -1,1 -1,1 -1,0 -1,1 -1,0 -1,1 -4,0 -1,1 -4,0 -1,1 -7,0 0,2 -2,2 0,1 -1,1 0,1 -1,1 -1,1 0,1 -1,1 -1,1 -1,1 -1,1 -1,1 -1,1 -1,1 -1,0 -1,1 -1,1 -1,0 -1,1 -1,0 0,1 -1,1 -1,0 -1,1 -1,0 -1,1 -1,0 -1,1 -12,0 0,2 -1,1 -2,0 0,1 1,1 0,2 -1,1 -2,0 -1,1 -1,1 -1,1 0,3 -1,1 -1,0 -1,1Z"/>
<path onmouseover="hoverPath(evt)" onmouseout="recoverPath(evt)" fill="rgb(171,198,238)" d="M  131,189l -1,0 -1,1 -1,1 -1,0 -1,1 -1,1 -1,1 -1,1 -1,1 0,1 -1,1 -1,1 -1,1 -1,1 -1,1 -1,1 -1,1 -1,1 -5,0 -1,-1 -1,0 -1,-1 -1,-1 -1,-1 0,-1 -1,-1 0,-1 -1,-1 0,-1 -1,-1 0,-1 -1,-1 0,-2 -1,-1 0,-3 -1,-1 0,-2 -1,-1 0,-1 -1,-1 0,-1 -1,-1 0,-1 -1,-1 -1,-1 -1,-1 -1,1 0,0 1,1 0,0 1,1 1,1 0,1 1,1 0,1 1,1 0,1 1,1 0,1 1,1 0,3 1,1 0,3 1,1 0,3 1,1 0,1 1,1 0,1 1,1 0,1 1,1 1,1 0,1 2,0 1,1 7,0 1,-1 1,0 1,-1 1,-1 1,-1 0,-1 1,-1 1,-1 3,-3 0,-1 3,-3 1,-1 1,-1 0,-1 1,-1 0,-1 1,-1 1,1 2,0 1,-1 6,0 1,1 1,0 1,1 1,1 1,1 1,1 1,1 1,1 1,1 1,0 0,-1 -1,-1 0,0 -1,-1 -1,-1 0,-1 -1,-1 -1,-1 -1,-1 -1,-1 -1,0 -1,-1 -7,0 -1,1 -1,0 -1,1 -1,0 -1,1Z"/>
<path onmouseover="hoverPath(evt)" onmouseout="recoverPath(evt)" fill="rgb(243,242,236)" d="M  160,149l 0,0 1,1 1,1 1,1 1,1 1,1 0,1 2,0 1,1 1,1 1,1 0,1 2,0 1,1 1,1 1,1 0,1 2,0 1,1 1,1 1,1 1,0 0,-1 1,-1 1,-1 4,-4 1,-1 1,0 1,-1 1,-1 1,-1 1,0 1,-1 1,-1 1,-1 1,-1 1,-1 1,-1 1,-1 2,0 0,-1 1,-1 1,-1 1,-1 1,-1 1,-1 1,-1 1,-1 -3,0 -1,1 -6,0 -1,-1 0,1 -1,1 -4,0 -1,-1 0,1 -1,1 -4,0 -1,-1 0,1 -1,1 -4,0 -1,-1 0,1 -1,1 -4,0 -1,-1 0,1 -1,1 -4,0 -1,-1 0,1 -1,1 -4,0 -1,-1 0,1 -1,1 -1,1Z"/>
<path onmouseover="hoverPath(evt)" onmouseout="recoverPath(evt)" fill="rgb(242,242,236)" d="M  162,0l -25,0 0,1 2,0 1,1 1,1 1,1 1,1 0,1 1,0 1,1 1,1 1,1 1,1 4,0 1,-1 1,0 1,-1 1,0 1,-1 1,0 0,-4 1,-1 3,0 1,1 1,1 4,4 0,2 4,4 1,1 1,0 1,1 0,1 1,1 1,1 1,1 0,1 1,1 2,2 1,1 1,1 1,1 1,0 1,1 0,2 1,1 1,1 1,1 1,1 1,1 0,1 1,1 1,1 1,0 1,1 0,2 1,1 0,1 1,1 1,1 0,1 1,1 1,1 1,1 1,1 1,1 1,1 4,0 1,1 1,1 1,1 1,1 2,0 1,-1 2,0 1,-1 2,0 1,-1 2,0 1,-1 3,0 1,-1 2,0 1,-1 1,0 1,-1 2,0 1,-1 2,0 1,-1 2,0 1,-1 2,0 1,-1 4,0 1,1 1,0 1,1 0,-1 -1,-1 0,-1 -1,-1 0,-1 -1,-1 0,-1 -1,-1 0,-1 -1,-1 0,-1 -1,-1 0,-1 -1,-1 0,-1 -1,-1 0,-2 -1,1 -2,0 -1,-1 -1,-1 0,-1 -1,-1 0,-1 -1,-1 0,-1 -1,-1 0,-1 -1,-1 0,-1 -1,-1 0,-1 -1,-1 0,-1 -1,-1 0,-1 -1,-1 0,-1 -1,-1 -1,-1 0,-1 -1,-1 0,-1 -1,-1 0,-1 -1,-1 0,-3 -64,0 90,48 1,1 0,1 1,1 0,1 1,0 0,-3 -1,0 -1,-1 -1,0 -90,-48Z"/>
<path onmouseover="hoverPath(evt)" onmouseout="recoverPath(evt)" fill="rgb(244,243,236)" d="M  170,222l 0,5 1,1 0,7 1,1 0,3 1,1 0,1 1,1 1,1 0,2 1,0 1,1 1,1 1,0 1,1 1,0 1,1 1,0 1,1 7,0 1,-1 0,0 1,-1 1,0 0,-1 1,-1 1,-1 1,-1 1,0 0,-2 1,-1 1,-1 0,-1 1,-1 2,-2 1,-1 3,-3 1,-1 1,-1 1,-1 1,0 1,-1 1,0 1,-1 4,0 1,-1 3,0 1,1 1,1 2,0 1,1 0,2 1,0 1,1 0,1 1,1 0,1 1,1 0,1 1,1 0,2 1,0 1,-1 1,0 1,-1 1,0 1,-1 0,-2 1,-1 -1,-1 0,0 -1,-1 -1,-1 0,-1 -1,0 -1,-1 -1,-1 -1,-1 -1,-1 -1,-1 -1,0 -1,-1 -1,-1 -1,-1 -1,-1 -1,-1 -1,-1 -1,-1 -1,-1 -1,-1 -1,-1 -1,-1 -1,-1 0,-1 -1,0 -1,-1 -1,-1 -1,-1 -1,0 -1,-1 -1,-1 -1,-1 -1,-1 -1,-1 -1,-1 -1,-1 0,-1 -1,0 -1,1 -1,0 -1,1 -1,0 -1,1 -1,1 -1,0 -1,1 -1,0 -1,1 -1,0 -1,1 -1,0 -1,1 -1,0 -1,1 -1,0 -1,1 -1,1 -1,0 -1,1 -1,0 -1,1 -1,0 -1,1 -1,0 -1,1 -1,0 -1,1 -1,0 -1,1 -2,0 -1,-1 0,2 -1,1 0,1 1,1Z"/>
<path onmouseover="hoverPath(evt)" onmouseout="recoverPath(evt)" fill="rgb(244,243,237)" d="M  236,1l 0,0 1,1 0,1 1,1 0,1 1,1 0,1 1,1 0,1 1,1 0,1 1,1 0,1 1,1 0,1 1,1 0,1 1,1 0,1 1,1 0,1 1,1 0,1 1,1 0,1 1,1 0,1 1,1 0,1 1,1 0,1 1,0 1,-1 2,0 0,-30 -18,0 -1,1Z"/>
<path onmouseover="hoverPath(evt)" onmouseout="recoverPath(evt)" fill="rgb(219,227,236)" d="M  250,246l 0,-1 -1,-1 -1,-1 -1,-1 -3,-3 -1,0 -1,1 -1,0 -1,1 -1,0 -1,1 -2,0 -1,-1 -1,1 -2,0 -1,1 -1,0 0,1 -1,1 2,0 1,1 0,5 -1,1 -1,1 -1,1 -1,0 -1,1 28,0 0,-8 -4,0 -1,-1Z"/>
<path onmouseover="hoverPath(evt)" onmouseout="recoverPath(evt)" fill="rgb(244,243,236)" d="M  4,38l 0,1 -1,1 0,1 -1,1 0,2 -1,1 -1,0 0,37 2,0 4,4 1,0 1,1 1,1 1,1 1,1 1,0 1,1 1,1 1,1 1,0 1,1 1,1 1,1 1,0 1,1 1,1 1,1 1,1 1,0 1,1 1,1 1,1 1,1 1,1 1,0 1,1 1,1 1,1 1,1 1,1 1,1 1,0 1,1 1,1 1,1 1,1 4,0 1,-1 2,0 1,-1 2,0 1,-1 2,0 1,-1 1,0 1,-1 2,0 1,-1 2,0 1,-1 2,0 1,-1 2,0 1,-1 2,0 1,-1 2,0 1,-1 1,0 1,-1 2,0 1,-1 2,0 1,-1 1,0 -1,-1 0,-1 -2,0 -1,-1 -1,-1 -1,-1 -1,-1 -1,-1 0,-1 -2,0 -1,-1 -1,-1 -1,-1 -1,-1 -1,-1 0,-1 -2,0 -1,-1 -1,-1 -1,-1 -1,-1 -1,-1 -1,-1 0,-1 -2,0 -1,-1 -1,-1 -1,-1 -1,-1 -1,-1 -1,-1 -1,-1 -1,-1 -1,-1 -1,-1 0,-2 -1,0 -1,-1 -1,-1 -1,-1 0,-2 -1,0 -1,-1 -1,-1 -1,-1 -1,-1 0,-2 -1,0 -1,-1 -1,-1 -1,-1 -1,-1 0,-1 -1,-1 0,-1 -1,0 -1,-1 -1,-1 -1,-1 -1,-1 0,-2 -1,0 -1,-1 -1,-1 -1,-1 0,-2 -1,0 -1,-1 -1,-1 -1,-1 -1,-1 -5,0 -1,1 -5,0 -1,-1 -1,0 -1,1 -1,0 -2,2Z"/>
<path onmouseover="hoverPath(evt)" onmouseout="recoverPath(evt)" fill="rgb(244,243,236)" d="M  5,174l 0,0 1,1 1,1 1,1 0,1 1,1 0,1 1,1 0,1 1,1 1,1 0,1 1,1 0,2 2,0 1,-1 1,-1 1,-1 1,-1 1,0 1,-1 1,-1 1,0 1,-1 2,0 1,-1 1,0 1,-1 2,0 1,-1 2,0 1,-1 1,0 1,-1 2,0 1,-1 2,0 1,-1 2,0 1,-1 2,0 1,-1 2,0 1,-1 2,0 1,-1 1,0 1,-1 2,0 1,-1 1,0 1,-1 1,0 1,-1 2,0 1,-1 1,0 0,-2 -3,0 -1,1 -5,0 -1,1 -5,0 -1,1 -5,0 -1,1 -5,0 -1,1 -4,0 -1,1 -6,0 -1,-1 0,1 -1,1 -4,0 -1,-1 0,1 -1,1 0,0 -1,1 -7,0 -1,1 -6,0 -1,1Z"/>
<path onmouseover="hoverPath(evt)" onmouseout="recoverPath(evt)" fill="rgb(244,243,236)" d="M  44,230l 0,0 1,1 0,1 1,1 0,1 1,1 0,1 1,1 0,1 1,1 0,1 1,1 0,1 1,1 0,1 1,1 0,1 1,1 0,1 1,1 0,1 1,1 0,1 1,1 0,2 25,0 0,-2 1,-1 1,0 1,-1 2,0 1,-1 2,0 1,-1 1,0 1,-1 2,0 1,-1 0,-2 1,-1 3,0 1,1 0,-2 1,-1 3,0 1,1 1,0 0,-2 1,-1 2,0 1,1 1,0 1,-1 2,0 1,-1 1,0 1,-1 1,0 0,-2 1,-1 2,0 1,1 2,0 1,-1 1,0 1,-1 0,-2 1,-1 3,0 1,1 1,0 1,-1 1,0 0,-2 1,-1 2,0 1,1 2,0 1,-1 1,0 1,-1 2,0 1,-1 1,0 1,-1 2,0 1,-1 2,0 1,-1 1,0 1,-1 2,0 1,-1 1,0 1,-1 3,0 1,-1 1,0 1,-1 -2,0 -1,-1 0,-3 -1,-1 -1,-1 0,-1 -1,0 -1,-1 0,-2 -1,0 -1,-1 0,-2 -1,-1 0,-1 -1,-1 -1,0 -1,-1 0,-2 -1,-1 -4,0 -1,-1 -1,-1 -1,-1 -1,-1 -1,-1 -1,-1 -1,-1 -1,0 -1,-1 -4,0 -1,1 -2,0 -1,1 -1,0 0,1 -1,1 -4,4 0,1 -4,4 -1,1 0,1 -1,1 -2,2 -1,1 -1,0 -1,1 -9,0 -1,-1 -2,0 -1,-1 0,-1 -1,-1 -1,-1 0,-1 -1,-1 0,-1 -1,-1 0,-1 -1,-1 0,-3 -1,-1 0,-3 -1,-1 0,-3 -1,-1 0,-1 -1,-1 0,-1 -1,-1 0,-1 -1,-1 0,-1 -1,-1 -1,-1 -1,-1 0,-1 -1,0 -1,-1 -1,0 -1,-1 -1,-1 -1,0 -1,-1 -1,-1 -1,0 -1,-1 -1,0 -1,-1 -4,0 -1,1 -2,0 -1,1 -1,0 -1,1 -1,0 -1,1 -1,0 -1,1 -1,0 -1,1 -2,0 -1,1 -1,0 -1,1 1,0 2,-1 3,0 1,1 1,1 1,1 1,1 0,1 1,1 1,1 1,1 1,1 1,1 0,1 1,1 0,1 1,1 0,1 1,1 0,1 1,1 0,1 1,1 1,1 0,1 1,1 0,1 1,1 0,1 1,1 0,1 1,1 0,1 1,1 0,1 1,1 1,1 0,1 1,1 0,1 1,1 0,1 1,1 0,1 1,1 1,1 0,1 1,1 0,1 1,1 0,3 -1,1 -2,0 -1,1 -2,0 -1,1 -2,0 -1,1 -5,0 -1,-1 -1,0 -1,-1 -1,1 -2,0 -1,1 -1,0 -1,1 -2,0 -1,1 -1,0 -1,1 -2,0 -1,1 -1,0 -1,1 -2,0 -1,1 -3,0 -1,-1 -1,-1 0,-1 -1,-1 -1,-1 -1,-1 -1,-1 -1,1 0,-3 -1,0 0,1 1,-1Z"/>
<path onmouseover="hoverPath(evt)" onmouseout="recoverPath(evt)" fill="rgb(244,243,236)" d="M  79,162l -1,0 1,1 0,0 1,1 1,0 1,1 1,1 1,0 1,1 1,1 1,0 1,1 1,0 1,1 1,1 1,1 0,1 1,0 1,1 1,1 1,1 1,1 0,1 1,1 0,1 1,1 0,1 1,1 0,2 1,1 0,3 1,1 0,2 1,1 0,1 1,1 0,1 1,1 0,1 1,1 0,1 1,1 1,1 1,0 1,1 3,0 1,-1 0,0 2,-2 1,-1 1,-1 1,-1 1,-1 0,-1 2,-2 1,-1 1,-1 1,-1 1,-1 1,0 2,-2 1,0 1,-1 1,0 1,-1 1,0 1,-1 9,0 1,1 1,0 1,1 1,1 1,1 1,1 1,1 0,1 1,1 1,1 1,1 0,2 1,0 1,1 1,1 0,2 1,0 1,1 1,1 0,1 1,1 0,2 1,0 1,1 0,2 1,0 1,1 0,1 1,1 1,1 0,3 1,0 1,-1 1,0 1,-1 1,0 1,-1 1,0 1,-1 1,0 1,-1 2,0 1,1 1,-1 1,0 1,-1 1,0 1,-1 0,-2 1,-1 1,0 1,-1 1,0 1,-1 1,0 1,-1 2,0 1,1 1,-1 1,0 1,-1 0,-2 1,-1 0,-3 -1,0 -1,-1 -1,-1 -1,-1 -1,-1 0,-1 -2,0 -1,-1 -1,0 -1,-1 -1,0 -1,-1 -1,0 -1,-1 -1,-1 -1,-1 0,-2 -1,-1 -3,0 -1,-1 -1,-1 -1,-1 -1,-1 0,-2 -1,0 -1,-1 0,-1 -1,-1 -1,-1 -3,0 -1,-1 -1,-1 0,-3 -1,-1 -2,0 -1,-1 0,-1 -1,-1 -1,0 -1,-1 -1,-1 -1,-1 -1,-1 0,-1 -1,0 -1,-1 -1,0 -1,-1 -1,-1 -1,-1 -1,-1 -1,-1 -1,-1 0,-1 -2,0 -1,-1 -1,0 0,1 -1,1 -4,0 -1,-1 -1,0 0,1 -1,1 -2,0 -1,1 -6,0 -1,1 -5,0 -1,1 -6,0 -1,-1 0,1 -1,1 -3,0 -1,1 -5,0 -1,1 -6,0 -1,1 -5,0 -1,1 -5,0 -1,1 -2,0 -1,1Z"/>
<path onmouseover="hoverPath(evt)" onmouseout="recoverPath(evt)" fill="rgb(244,243,235)" d="M  90,255l 90,0 0,-1 -1,0 -1,-1 -1,0 -1,-1 -1,0 -1,-1 -1,-1 -1,-1 -1,-1 0,-1 -1,-1 -1,-1 -1,-1 0,-1 -1,-1 0,-2 -1,-1 0,-3 -1,-1 0,-13 -2,0 -1,1 -1,0 -1,1 -2,0 -1,1 -1,0 -1,1 -2,0 -1,1 -2,0 -1,1 -1,0 -1,1 -2,0 -1,1 -1,0 -1,1 -3,0 -1,1 -1,0 -1,1 -1,0 -1,1 -3,0 -1,-1 -1,0 0,2 -2,2 -1,0 -1,1 -3,0 -1,1 -1,0 -1,1 -1,0 -1,1 -1,0 -1,1 -2,0 -1,1 -3,0 -1,-1 0,2 -1,1 -3,0 -1,-1 -1,0 0,2 -1,1 -2,0 -1,-1 -1,0 0,2 -1,1 -1,1 -2,0 -1,1 -1,0 -1,1 -2,0 -1,1 -2,0 -1,1 -1,0 0,1Z"/>
<path onmouseover="hoverPath(evt)" onmouseout="recoverPath(evt)" fill="rgb(244,243,236)" d="M  102,102l 0,0 1,1 1,1 1,0 1,1 1,0 1,1 1,1 1,0 1,1 1,1 1,0 1,1 1,1 0,1 1,0 1,1 1,0 1,1 1,1 1,1 0,1 2,0 1,1 1,1 1,1 1,1 1,1 0,1 1,0 1,1 1,0 1,1 1,1 5,0 1,-1 5,0 1,-1 4,0 1,-1 5,0 1,-1 5,0 1,-1 4,0 1,-1 5,0 1,-1 4,0 1,-1 5,0 1,-1 4,0 1,-1 5,0 1,-1 4,0 1,-1 5,0 1,-1 4,0 1,-1 4,0 1,-1 5,0 1,-1 4,0 1,-1 5,0 1,-1 4,0 1,-1 5,0 1,-1 5,0 1,-1 5,0 0,-51 -2,0 -1,-1 0,-1 -1,-1 0,-1 -1,-1 0,-1 -1,1 0,0 -1,1 -3,0 -1,1 -2,0 -1,1 -2,0 -1,1 -1,0 -1,1 -2,0 -1,1 -2,0 -1,1 -3,0 -1,1 -2,0 -1,1 -2,0 -1,1 -1,1 -2,0 -1,1 -2,0 -1,1 -1,0 -1,1 -2,0 -1,1 -1,0 -1,1 -2,0 -1,1 -2,0 -1,1 -2,0 -1,1 -2,0 -1,1 -2,0 -1,1 -2,0 -1,1 -3,0 -1,1 -1,1 -2,0 -1,1 -2,0 -1,1 -1,0 -1,1 -2,0 -1,1 -2,0 -1,1 -1,0 -1,1 -2,0 -1,1 -2,0 -1,1 -2,0 -1,1 -2,0 -1,1 -2,0 -1,1 -2,0 -1,1 -2,0 -1,1 -3,0 -1,1 -1,1 -2,0 -1,1 -3,0 -1,1 -3,0 -1,1 -1,0 -1,1 -1,0 -1,1 -3,0 -1,1 -1,1 -2,0 -1,1 -2,0 -1,1 -1,0 -1,1 -2,0 -1,1 -2,0 -1,1 -2,0 -1,1 -1,0 -1,1Z"/>
<path onmouseover="hoverPath(evt)" onmouseout="recoverPath(evt)" fill="rgb(244,243,237)" d="M  121,34l 0,0 1,1 1,1 0,1 1,1 1,1 1,1 0,1 1,1 1,1 1,1 0,1 1,1 1,1 1,1 1,1 0,1 1,1 1,1 1,1 1,1 1,1 1,1 0,1 1,1 1,1 1,1 1,1 1,1 0,1 1,1 1,1 1,1 1,1 0,1 1,1 1,1 0,1 1,1 1,1 0,1 1,1 1,1 0,1 2,0 1,-1 2,0 1,-1 2,0 1,-1 1,0 1,-1 2,0 1,-1 2,0 1,-1 3,0 2,-2 2,0 1,-1 2,0 1,-1 1,0 1,-1 2,0 1,-1 2,0 1,-1 2,0 1,-1 1,0 1,-1 2,0 1,-1 2,0 1,-1 1,0 1,-1 2,0 1,-1 1,0 -1,-1 0,0 -1,-1 -1,-1 0,-1 -1,0 -1,-1 -1,-1 -1,-1 -1,-1 -1,-1 -1,-1 -1,-1 0,-1 -1,-1 -1,-1 0,-1 -1,-1 0,-2 -1,0 -1,-1 -1,-1 -1,-1 0,-1 -1,-1 -2,-2 -1,-1 -1,-1 0,-2 -1,0 -1,-1 -1,-1 -1,-1 -1,-1 -1,-1 -1,-1 -1,-1 0,-1 -1,-1 -1,-1 -1,-1 0,-1 -1,0 -1,-1 -1,-1 -1,-1 -2,-2 -1,-1 -2,0 -1,-1 -1,1 -1,1 -1,0 -1,1 -1,1 -1,0 -1,1 -1,0 -1,1 -1,1 -1,0 -1,1 -1,0 -1,1 -1,1 -1,0 -1,1 -1,0 -1,1 -1,1 -1,0 -1,1 -1,0 -1,1 -1,0 -1,1 -1,0 -2,2 -2,0 -1,1 -1,0 -1,1 -1,0 -1,1 -1,0 -1,1 -1,0 -1,1 -1,0 -1,1Z"/>
<path onmouseover="hoverPath(evt)" onmouseout="recoverPath(evt)" fill="rgb(238,232,159)" d="M  151,149l 0,0 -1,-1 0,1 -1,1 1,1 0,0 1,1 1,1 1,1 1,1 1,0 1,1 1,0 1,1 0,1 1,1 1,1 1,1 1,0 1,1 1,1 0,1 2,0 1,1 1,1 0,3 1,1 3,0 1,1 1,1 1,1 0,1 1,0 1,1 0,2 1,1 1,1 1,1 3,0 1,1 1,1 0,2 1,1 1,1 1,0 1,1 1,0 1,1 1,0 1,1 2,0 1,1 0,1 1,1 1,1 1,1 1,0 1,1 0,4 1,1 1,-1 3,0 1,1 0,1 1,1 1,1 1,1 1,1 1,1 1,1 1,0 1,1 1,1 1,1 1,0 1,1 0,1 1,1 1,1 1,1 1,1 1,1 1,1 1,1 1,1 1,1 1,1 1,1 1,0 1,1 1,1 1,1 1,1 1,1 1,0 1,1 0,1 1,1 1,1 1,1 0,1 1,1 0,2 3,0 1,1 1,1 1,1 1,1 1,1 1,1 1,1 0,1 3,0 0,-10 -5,0 -1,-1 0,-1 -3,0 -1,-1 -1,-1 -1,-1 -1,-1 -1,-1 -1,-1 -1,-1 -1,-1 -1,-1 0,-1 -1,0 -1,-1 -1,-1 -1,-1 0,-2 1,-1 -1,-1 0,0 -1,-1 0,-1 -1,0 -1,-1 -1,-1 -1,-1 -1,0 -1,-1 0,-1 -1,-1 -1,-1 -1,-1 -1,-1 0,-3 -1,-1 -1,-1 -1,-1 -1,-1 -1,0 -1,-1 -1,-1 0,-3 -1,1 -3,0 -1,-1 0,-1 -1,0 -1,-1 -1,-1 -1,0 -1,-1 -1,-1 -1,-1 -1,0 -1,-1 0,-1 -1,-1 -1,-1 -1,-1 -1,-1 -1,-1 -1,-1 -1,-1 -1,-1 -1,-1 -1,0 -1,-1 -1,-1 -1,-1 -1,0 -1,-1 -1,-1 0,-1 -3,0 -1,-1 0,-1 -2,0 -1,-1 -1,-1 -1,-1 -2,0 -1,-1 0,-1 -1,-1 -1,-1 -2,0 -1,-1 0,-1 -1,-1 -1,-1 -2,0 -1,-1 0,-1 -1,-1 -1,-1 -1,-1 -1,-1 -1,-1 0,-2 -2,0 -1,1Z"/>
<path onmouseover="hoverPath(evt)" onmouseout="recoverPath(evt)" fill="rgb(235,237,236)" d="M  211,231l -1,1 -1,1 -3,3 -1,1 -3,3 0,1 -1,1 -1,1 0,2 -1,1 -1,0 -1,1 -1,1 0,1 1,1 0,2 -1,1 -1,1 -1,0 0,1 31,0 0,-1 1,-1 1,-1 1,0 1,-1 1,-1 0,-3 -2,0 -1,-1 0,-2 1,-1 0,-1 1,-1 1,0 0,-2 -1,-1 0,-1 -1,-1 0,-1 -1,-1 0,-1 -1,0 -1,-1 0,-2 -2,0 -1,-1 -1,-1 -1,0 -1,1 -4,0 -1,1 -1,0 -1,1Z"/>
<path onmouseover="hoverPath(evt)" onmouseout="recoverPath(evt)" fill="rgb(181,148,237)" d="M  0,163l 0,9 3,0 0,-1 1,-1 2,0 1,1 4,0 1,-1 7,0 1,-1 0,-1 1,-1 2,0 1,1 2,0 0,-1 1,-1 2,0 1,1 4,0 1,-1 4,0 1,-1 5,0 1,-1 5,0 1,-1 5,0 1,-1 5,0 1,-1 5,0 1,1 0,4 -1,1 -1,0 -1,1 -2,0 -1,1 -1,0 -1,1 -1,0 -1,1 -2,0 -1,1 -1,0 -1,1 -2,0 -1,1 -2,0 -1,1 -2,0 -1,1 -2,0 -1,1 -2,0 -1,1 -2,0 -1,1 -1,0 -1,1 -2,0 -1,1 -2,0 -1,1 -1,0 -1,1 -2,0 -1,1 -1,0 -1,1 0,1 1,0 1,-1 2,0 1,-1 1,0 1,-1 2,0 1,-1 4,0 1,-1 2,0 1,-1 1,0 1,-1 3,0 1,-1 1,0 1,-1 1,0 1,-1 3,0 1,-1 1,0 1,-1 1,0 1,-1 2,0 1,-1 1,0 1,-1 1,0 1,-1 1,0 1,-1 1,0 1,-1 2,0 1,-1 6,0 1,1 1,0 1,1 1,0 1,1 1,1 1,0 1,1 1,1 1,0 1,1 1,0 0,-1 -1,-1 0,0 -1,-1 -1,0 -1,-1 -1,0 -1,-1 -1,-1 -1,0 -1,-1 -1,-1 -1,0 -1,-1 -1,-1 -1,-1 0,-2 1,-1 1,0 1,-1 2,0 1,-1 5,0 1,-1 5,0 1,-1 6,0 1,-1 5,0 1,-1 3,0 0,-1 1,-1 2,0 1,1 4,0 1,-1 5,0 1,-1 6,0 1,-1 2,0 0,-1 1,-1 3,0 1,1 2,0 0,-1 1,-1 3,0 1,1 2,0 0,-1 1,-1 2,0 1,1 2,0 1,-1 5,0 0,-1 1,-1 2,0 1,1 2,0 0,-1 1,-1 2,0 1,1 2,0 0,-1 1,-1 2,0 1,1 2,0 0,-1 1,-1 2,0 1,1 2,0 0,-1 1,-1 2,0 1,1 2,0 0,-1 1,-1 2,0 1,1 2,0 0,-1 1,-1 2,0 1,1 4,0 1,-1 5,0 1,1 0,2 -1,1 -1,1 -1,1 -1,1 -1,1 -1,1 -1,1 0,1 -1,1 1,0 2,-2 1,-1 1,-1 1,-1 1,-1 1,-1 1,-1 1,0 1,-1 1,-1 0,-2 1,-1 1,-1 5,0 1,-1 5,0 1,-1 5,0 1,-1 5,0 1,-1 5,0 1,-1 5,0 1,-1 2,0 0,-11 -5,0 -1,1 -5,0 -1,1 -5,0 -1,1 -5,0 -1,1 -2,0 0,1 -1,1 -3,0 -1,-1 -2,0 0,1 -1,1 -2,0 -1,-1 -2,0 0,1 -1,1 -2,0 -1,-1 -2,0 0,1 -1,1 -2,0 -1,-1 -2,0 0,1 -1,1 -2,0 -1,-1 -4,0 -1,1 -5,0 -1,1 -5,0 -1,1 -5,0 -1,1 -5,0 -1,1 -6,0 -1,1 -5,0 -1,1 -2,0 -1,-1 0,-1 -4,0 -1,1 -4,0 0,1 -1,1 -1,1 -2,0 -1,-1 -1,0 -2,2 0,1 -1,1 -2,0 -1,1 -3,0 -1,-1 0,-1 -1,0 -1,1 -5,0 -1,1 -2,0 0,1 -1,1 -3,0 -1,-1 -2,0 0,1 -1,1 -2,0 -1,-1 -4,0 -1,1 -6,0 -1,1 -5,0 -1,1 -5,0 -1,1 -2,0 0,1 -1,1 -3,0 -1,-1 -4,0 -1,1 -8,0 -1,-1 0,-1 -1,-1 -3,0 0,4 -1,1 -1,0 0,1 -1,1 -2,0 -1,-1 -2,0 0,1 -1,1 -2,0 -1,-1 -2,0 0,1 -1,1 -2,0 -1,-1 -2,0 0,1 -1,1 -2,0 -1,-1 -4,0 -1,1 -4,0 -1,1 -3,0 0,1 -1,1 -2,0 -1,-1 -4,0 -1,1 -4,0 -1,1 -3,0 0,1 -1,1 -2,0 -1,-1 -1,0 -1,-1 0,3 202,-13 -1,0 -1,1 -1,1 -3,3 -1,1 -1,1 -1,0 -1,1 -1,1 -1,1 -1,0 -1,1 -1,1 -1,1 -1,1 -1,1 -1,1 0,2 2,0 0,-1 1,-1 1,-1 1,-1 1,-1 1,0 1,-1 0,-1 1,-1 1,-1 1,-1 1,0 1,-1 1,-1 3,-3 1,-1 1,-1 0,-1 -202,13Z"/>
<path onmouseover="hoverPath(evt)" onmouseout="recoverPath(evt)" fill="rgb(243,242,233)" d="M  0,23l 0,9 2,0 1,-1 1,0 1,-1 2,0 1,-1 7,0 0,-1 -1,-1 0,0 -1,-1 -1,-1 0,-2 -1,0 -1,-1 -1,-1 -1,-1 -1,-1 0,-1 -2,0 -1,-1 0,-2 1,-1 0,-1 -2,0 -1,-1 -1,-1 -1,0Z"/>
<path onmouseover="hoverPath(evt)" onmouseout="recoverPath(evt)" fill="rgb(244,243,236)" d="M  1,194l -1,0 0,22 2,0 1,1 0,1 1,1 0,2 1,1 0,1 1,1 0,1 1,1 0,1 1,1 0,1 1,1 0,2 1,1 0,1 1,1 0,1 1,1 0,1 1,1 0,1 1,1 0,2 1,1 0,1 1,1 0,1 1,1 0,2 1,1 0,1 1,1 0,2 30,0 0,-1 -1,-1 0,-1 -1,-1 0,-1 -1,-1 0,-1 -1,-1 0,-2 -1,-1 0,-1 -1,-1 0,-1 -1,-1 0,-2 -1,-1 0,-1 -1,-1 0,-1 -1,-1 0,-1 -1,-1 0,-1 -1,-1 -1,-1 0,-1 -1,-1 0,-1 -1,-1 0,-1 -1,-1 -1,-1 0,-1 -1,-1 0,-1 -1,-1 -1,-1 0,-1 -1,-1 0,-1 -1,-1 -1,-1 0,-1 -1,-1 -1,-1 0,-1 -1,-1 0,-1 -1,-1 -1,-1 0,-1 -1,-1 0,-1 -1,-1 0,-1 -1,-1 -1,-1 0,-1 -1,-1 0,-1 -1,-1 0,-2 -2,0 -1,1 -1,0 -1,1 -2,0 -1,1 -2,0 -1,1 -3,0 30,39 1,1 0,2 -1,1 -2,0 -1,-1 0,-2 1,-1 2,0 -30,-39 31,44 2,0 1,1 0,1 1,1 0,2 -1,1 -2,0 -1,-1 0,-1 -1,-1 0,-2 1,-1 -31,-44Z"/>
<path onmouseover="hoverPath(evt)" onmouseout="recoverPath(evt)" fill="rgb(235,233,221)" d="M  26,151l -3,0 -1,1 -5,0 -1,1 -5,0 -1,1 -6,0 -1,1 -3,0 0,3 1,0 1,1 1,0 1,1 0,-1 1,-1 3,0 1,-1 4,0 1,-1 6,0 1,1 0,-1 1,-1 3,0 1,-1 4,0 1,-1 6,0 1,1 0,-1 1,-1 4,0 1,1 0,-1 1,-1 4,0 1,1 0,-1 1,-1 4,0 1,1 0,-1 1,-1 1,0 0,-3 -3,0 -1,1 -5,0 -1,1 -6,0 -1,1 -5,0 -1,1 -5,0 -1,1Z"/>
<path onmouseover="hoverPath(evt)" onmouseout="recoverPath(evt)" fill="rgb(173,199,237)" d="M  24,188l -3,0 -1,-1 -1,0 -1,1 -1,1 0,2 1,1 0,1 1,1 0,1 1,1 1,1 0,1 1,1 0,1 1,1 0,1 1,1 1,1 0,1 1,1 0,1 1,1 1,1 0,1 2,2 0,1 1,1 0,1 1,1 1,1 0,1 1,1 0,1 1,1 1,1 0,1 1,1 0,1 1,1 0,1 1,1 1,1 0,1 1,1 0,1 1,1 0,1 1,1 0,1 1,1 0,2 1,1 0,1 1,1 0,1 1,1 0,2 1,1 0,1 1,1 0,1 1,1 0,1 1,1 0,2 3,0 0,-1 -1,-1 0,-1 -1,-1 0,-1 -1,-1 0,-1 -1,-1 0,-1 -1,-1 0,-1 -1,-1 0,-1 -1,-1 0,-1 -1,-1 0,-1 -1,-1 0,-1 -1,-1 0,-1 -1,-1 0,-1 -1,-1 0,-1 -1,-1 0,-3 1,-1 3,0 1,1 1,1 0,1 1,1 1,1 1,1 1,1 0,1 1,1 1,0 1,-1 2,0 1,-1 1,0 1,-1 2,0 1,-1 1,0 1,-1 2,0 1,-1 1,0 1,-1 2,0 1,-1 2,0 1,1 1,0 1,1 3,0 1,-1 2,0 1,-1 2,0 1,-1 2,0 0,-1 -1,-1 0,-1 -1,-1 0,-1 -1,-1 -1,-1 0,-1 -1,-1 0,-1 -1,-1 0,-1 -1,-1 0,-1 -1,-1 -1,-1 0,-1 -1,-1 0,-1 -1,-1 0,-1 -1,-1 0,-1 -1,-1 0,-1 -1,-1 0,-1 -1,-1 -1,-1 0,-1 -1,-1 0,-1 -1,-1 0,-1 -1,-1 0,-1 -1,-1 0,-1 -1,-1 -1,-1 -1,-1 -1,-1 -1,-1 0,-1 -1,-1 -1,-1 -1,-1 -2,0 -1,1 -4,0 -1,-1 -2,0 -1,1 -1,0 -1,1 -1,0 -1,1 -3,0 -1,1 -1,0 -1,1 -2,0 -1,1 -4,0 -1,1 -2,0 -1,1 -1,0 -1,1 -2,0 -1,1Z"/>
<path onmouseover="hoverPath(evt)" onmouseout="recoverPath(evt)" fill="rgb(171,198,237)" d="M  29,11l 0,2 -1,1 0,1 -1,1 0,1 -1,1 0,2 -1,1 0,1 -1,1 0,2 1,1 1,1 1,0 1,-1 0,-2 1,-1 0,-1 1,-1 1,-1 1,-1 2,0 0,-4 1,-1 1,-1 1,0 1,-1 4,0 1,1 9,0 1,-1 1,-1 0,-1 1,-1 0,-9 -2,0 0,6 -1,1 0,2 -1,1 -1,1 -18,0 -1,-1 -1,0 -1,1Z"/>
<path onmouseover="hoverPath(evt)" onmouseout="recoverPath(evt)" fill="rgb(181,204,238)" d="M  31,123l -3,0 -1,-1 -3,0 -1,1 -3,0 -1,1 -2,0 -1,1 -2,0 -1,1 -2,0 -1,1 -2,0 -1,1 -1,0 -1,1 -2,0 -1,1 -2,0 0,4 3,0 1,-1 1,0 1,-1 2,0 1,-1 2,0 1,-1 2,0 1,-1 2,0 1,-1 2,0 1,-1 1,-1 2,0 1,-1 2,0 1,-1 2,0 1,-1 1,0 1,-1 3,0 1,-1 5,0 1,1 1,1 1,0 0,-3 1,-1 1,-1 2,0 1,-1 2,0 1,-1 2,0 1,-1 1,0 1,-1 2,0 1,-1 1,0 1,-1 2,0 1,-1 2,0 1,-1 2,0 1,-1 2,0 1,-1 2,0 1,-1 2,0 1,-1 2,0 1,-1 2,0 1,-1 4,0 -1,-1 -1,0 -1,-1 -1,0 -1,1 -1,0 -1,1 -2,0 -1,1 -2,0 -1,1 -1,0 -1,1 -2,0 -1,1 -2,0 -1,1 -2,0 -1,1 -2,0 -1,1 -2,0 -1,1 -2,0 -1,1 -1,0 -1,1 -2,0 -1,1 -2,0 -1,1 -2,0 -1,1 -6,0 -2,-2 -1,-1 -1,-1 -1,0 -1,-1 -1,-1 -1,-1 -1,-1 -1,-1 -1,-1 -1,0 -1,-1 -1,-1 -1,-1 -1,-1 -1,-1 -1,0 -1,-1 -1,-1 -1,-1 -1,-1 -1,0 -1,-1 -1,-1 -1,-1 -1,0 -1,-1 -1,-1 -1,-1 -1,0 -1,-1 -1,-1 -1,-1 -1,-1 -1,0 -1,-1 -1,-1 -1,-1 -1,-1 -1,0 0,6 3,0 1,1 1,1 1,0 1,1 1,1 1,0 1,1 1,1 1,0 1,1 1,1 1,0 1,1 1,1 1,0 1,1 1,1 1,0 1,1 1,1 2,2 1,0 1,1 1,1 1,1 1,1 1,1 1,1 1,0 1,1 1,1 1,1 1,1 1,1 0,3 -6,3 -1,0 5,-2 0,0 -5,2Z"/>
<path onmouseover="hoverPath(evt)" onmouseout="recoverPath(evt)" fill="rgb(241,241,235)" d="M  38,15l -1,0 -1,1 0,2 1,1 0,1 1,1 1,1 1,1 0,1 2,2 1,1 1,1 0,1 1,0 1,1 1,1 3,0 1,1 2,0 1,1 5,0 1,1 0,-5 1,-1 2,0 0,-3 1,-1 0,-1 1,-1 0,-1 1,-1 1,0 1,-1 1,-1 1,-1 1,-1 0,-2 1,-1 1,0 1,-1 1,0 1,-1 3,0 1,1 13,0 1,1 4,0 1,1 0,2 -1,1 2,-4 7,0 1,-1 4,0 1,-1 4,0 1,-1 1,0 1,-1 1,0 1,-1 1,-1 1,-1 1,-1 0,-1 1,-1 1,-1 1,-1 3,0 1,1 2,0 1,1 1,0 1,1 1,1 2,2 1,0 0,-1 -1,-1 0,0 -1,-1 -1,-1 -1,0 1,1 1,1 1,1 -5,-4 0,-2 -78,0 0,10 -1,1 0,1 -1,1 -1,1 -1,1 -11,0 -1,-1 -2,0 -1,1Z"/>
<path onmouseover="hoverPath(evt)" onmouseout="recoverPath(evt)" fill="rgb(232,230,216)" d="M  90,144l 0,0 1,-1 5,0 1,-1 6,0 1,-1 6,0 1,1 0,-1 1,-1 4,0 1,1 1,0 0,-1 1,-1 2,0 1,-1 5,0 1,-1 3,0 -4,-1 -8,0 -1,1 -5,0 -1,1 -5,0 -1,1 -6,0 -1,1 -5,0 -1,1 -5,0 -1,1 -6,0 -1,1 -6,0 -1,1 -5,0 -1,1 -2,0 1,1 0,1 6,0 1,-1 6,0 1,1 1,0 0,-1 1,-1 2,0 1,-1Z"/>
<path onmouseover="hoverPath(evt)" onmouseout="recoverPath(evt)" fill="rgb(235,237,235)" d="M  95,15l -2,0 -1,-1 -13,0 -1,-1 -1,0 -1,1 -1,0 0,2 -1,1 -1,0 -1,1 -1,1 -1,1 -1,1 -1,1 -1,0 0,1 -1,1 0,1 -1,1 0,3 -1,1 -2,0 0,5 -1,1 -2,0 -1,-1 -5,0 -1,-1 -2,0 -1,-1 -3,0 -1,-1 -1,-1 -1,0 -1,-1 0,-1 -1,-1 -1,-1 -1,-1 -1,-1 0,-1 -1,-1 -1,-1 -2,0 -1,-1 -2,2 0,1 -1,1 0,2 -1,1 0,2 1,0 1,1 1,1 1,1 1,1 0,2 1,0 1,1 1,1 1,1 0,2 1,0 1,1 1,1 1,1 1,1 1,1 0,2 1,0 1,1 1,1 1,1 1,0 1,1 0,1 1,-1 0,0 1,-1 1,-1 1,0 1,-1 1,-1 1,-1 1,-1 2,0 -1,-1 0,-3 1,-1 2,0 0,-2 1,-1 12,0 1,-1 1,0 1,-1 1,0 1,-1 1,0 0,-1 1,-1 1,0 1,-1 1,0 1,-1 1,-1 1,0 1,-1 1,-1 1,-1 1,-1 1,-1 1,-1 0,-1 1,-1 1,-1 0,-1 1,-1 -1,-1 0,-2 -1,-1Z"/>
<path onmouseover="hoverPath(evt)" onmouseout="recoverPath(evt)" fill="rgb(171,198,237)" d="M  126,47l 0,0 1,1 1,1 1,1 1,1 0,1 1,1 1,1 1,1 0,1 1,1 1,1 1,1 1,1 1,1 0,1 1,1 1,1 1,1 1,1 0,1 1,1 1,1 1,1 1,1 1,1 0,1 1,1 1,1 0,1 1,1 0,3 -1,1 -1,1 3,0 1,-1 2,0 1,-1 2,0 1,-1 2,0 1,-1 2,0 1,-1 2,0 1,-1 1,0 1,-1 2,0 1,-1 2,0 1,-1 1,0 1,-1 2,0 1,-1 2,0 1,-1 1,-1 3,0 1,-1 2,0 1,-1 2,0 1,-1 2,0 1,-1 2,0 1,-1 2,0 1,-1 2,0 1,-1 1,0 1,-1 2,0 1,-1 1,0 1,-1 2,0 1,-1 2,0 1,-1 1,-1 2,0 1,-1 2,0 1,-1 3,0 1,-1 2,0 1,-1 2,0 1,-1 1,0 1,-1 2,0 1,-1 2,0 1,-1 3,0 1,-1 -2,0 -3,1 -3,1 -3,1 -2,1 -1,0 -2,1 -3,1 -4,1 -3,1 -3,1 -1,1 -2,0 -1,1 -4,0 -1,-1 -1,-1 -1,-1 -1,-1 -1,0 1,1 1,1 1,1 0,2 -1,1 -1,0 -1,1 -2,0 -1,1 -1,0 -1,1 -2,0 -1,1 -2,0 -1,1 -1,0 -1,1 -2,0 -1,1 -2,0 -1,1 -2,0 11,-3 0,0 3,-1 3,-1 -76,-16 56,23 -2,0 -1,1 -2,0 -1,1 -2,1 -2,0 -1,1 -2,0 -1,1 -2,0 -1,1 -1,0 -1,1 -2,0 -1,1 -2,0 -1,1 -4,0 -1,-1 0,-1 -1,-1 -1,-1 0,-1 -1,-1 -1,-1 0,-1 -1,-1 -1,-1 0,-1 -1,-1 -1,-1 -1,-1 -1,-1 0,-1 -1,-1 -1,-1 -1,-1 -1,-1 -1,-1 0,-1 -1,-1 -1,-1 -1,-1 -1,-1 -1,-1 -1,-1 0,-1 -1,-1 -1,-1 -1,-1 -1,-1 0,-1 -1,-1 -1,-1 -1,-1 0,-1 -1,-1 -1,-1 -1,-1 0,-1 -1,-1 -1,-1 0,-2 1,-1 1,-1 1,0 1,-1 1,0 1,-1 1,0 1,-1 1,0 1,-1 1,0 1,-1 2,0 1,-1 1,-1 1,0 1,-1 1,0 1,-1 1,0 1,-1 1,0 1,-1 1,-1 1,0 1,-1 1,0 1,-1 1,-1 1,0 1,-1 1,0 1,-1 1,-1 1,0 1,-1 1,0 1,-1 1,-1 1,0 1,-1 1,-1 2,0 1,1 1,0 -1,-1 -1,-1 -1,-1 -1,-1 -1,-1 -1,0 0,4 -1,1 -1,0 -1,1 -1,0 -1,1 -1,0 -1,1 -6,0 -1,-1 -1,-1 -1,-1 -1,-1 -1,1 0,0 2,2 0,5 -1,1 0,1 -1,1 -1,1 -1,0 -1,1 -1,0 -1,1 -1,0 -1,1 -2,0 -1,1 -1,0 -1,1 -2,0 -1,1 -2,0 -1,1 -1,0 -1,1 -2,0 -1,1 -1,0 -1,1 -1,1 -1,0 -1,1 -1,0 -1,1 -1,0 -1,1 -1,1 -1,1 -1,0 -1,1 -1,1 -1,1 -1,1 -1,1 -1,1 -1,0 -1,1 -1,1 -1,1 -1,1 -1,1 -1,0 -1,1 -1,1 -1,1 -1,0 -1,1 -1,1 -1,1 -1,0 -1,1 -1,1 -1,1 -1,0 -1,1 -1,1 -1,0 -2,2 -1,1 -1,0 -1,1 -1,1 -1,1 -1,0 -1,1 -1,1 -1,0 -1,1 -1,0 -1,1 -2,2 0,1 1,1 0,0 1,1 2,0 1,-1 1,0 1,-1 1,-1 1,-1 1,-1 1,0 1,-1 2,-2 1,-1 1,-1 1,-1 1,0 1,-1 2,-2 1,-1 1,-1 1,0 1,-1 1,-1 2,-2 1,0 3,-3 1,-1 1,0 1,-1 1,-1 1,-1 1,0 1,-1 1,-1 1,-1 1,0 1,-1 1,-1 1,-1 1,0 1,-1 1,-1 1,-1 1,0 1,-1 1,-1 2,0 1,1 1,1 1,1 0,1 1,1 1,1 1,1 0,1 1,1 1,1 1,1 0,-1 -1,-1 -1,-1 -1,-2 -1,-1 -1,-1 -1,-2 -1,-1 63,34 -56,-23 22,36 -1,-1 -1,0 -1,1 -1,1 -3,0 -1,1 -2,0 -1,1 -1,0 -1,1 -2,0 -1,1 1,0 3,-1 1,0 1,-1 2,0 1,-1 4,-1 1,-1 2,0 -22,-36Z"/>
<path onmouseover="hoverPath(evt)" onmouseout="recoverPath(evt)" fill="rgb(242,239,236)" d="M  187,127l -1,0 -1,1 -5,0 -1,1 -5,0 -1,1 -4,0 -1,1 -5,0 -1,1 -5,0 0,1 6,-1 6,-1 1,0 4,-1 2,0 4,-1 2,0 4,-1 1,-1 5,-1 0,1 2,0 1,-1 6,0 1,1 0,-1 1,-1 4,0 1,1 0,-1 1,-1 4,0 1,1 0,-1 1,-1 4,0 1,1 0,-1 1,-1 4,0 1,1 1,0 0,-1 1,-1 2,0 1,-1 5,0 1,-1 5,0 1,-1 5,0 1,-1 6,0 0,-2 -4,0 -1,1 -5,0 -1,1 -5,0 -1,1 -4,0 -1,1 -5,0 -1,1 -4,0 -1,1 -4,0 -1,1 -5,0 -1,1 -4,0 -1,1 -5,0 -1,1 -4,0 -4,1 -5,1 7,-1Z"/>
<path onmouseover="hoverPath(evt)" onmouseout="recoverPath(evt)" fill="rgb(243,242,235)" d="M  188,167l -1,1 0,2 1,1 1,0 1,1 1,1 1,1 1,0 1,1 1,1 1,1 1,1 1,1 1,1 1,1 1,1 1,1 1,1 0,1 1,0 1,1 1,1 1,1 1,0 1,1 1,1 1,0 1,1 0,1 1,0 1,-1 2,0 1,1 0,3 1,1 1,0 1,1 1,1 1,1 1,1 1,1 0,3 1,1 1,1 1,1 1,1 0,1 1,0 1,1 1,1 1,1 1,0 1,1 0,1 1,1 1,1 0,2 -1,1 1,1 0,0 1,1 1,0 1,1 0,1 1,1 1,1 1,1 1,1 1,1 1,1 1,1 1,1 3,0 1,1 0,1 4,0 0,-101 -1,0 -1,1 -5,0 -1,1 -5,0 -1,1 -5,0 -1,1 -5,0 -1,1 -5,0 -1,1 -5,0 -1,1 0,2 -1,1 -1,1 -1,1 -1,0 -1,1 -1,1 -1,1 -1,1 -1,1 -1,1 -1,1 -1,1 -1,0 -1,1 -1,1 -1,1 -1,1 -1,1 -1,1 -1,1 -1,1 -1,0 -1,1 -1,1 0,1 -1,1 -1,1 -1,0 -1,1 -1,1Z"/>
<path onmouseover="hoverPath(evt)" onmouseout="recoverPath(evt)" fill="rgb(177,201,237)" d="M  193,251l -1,1 2,0 1,-1 -1,-1 0,0 -2,3 -1,-1 -8,0 -1,-1 -1,0 -1,-1 -1,0 -1,-1 -1,0 -1,-1 -1,-1 -1,0 -1,-1 0,-2 -1,-1 -1,-1 0,-1 -1,-1 0,-3 -1,-1 0,-7 -1,-1 0,-5 -1,-1 0,12 1,1 0,3 1,1 0,2 1,1 0,1 1,1 1,1 0,-1 -1,-1 -1,-2 23,10 -19,-3 1,1 1,1 1,0 1,1 1,0 1,1 1,0 1,1 0,2 10,0 0,-1 -18,-6 19,3Z"/>
<path onmouseover="hoverPath(evt)" onmouseout="recoverPath(evt)" fill="rgb(187,208,238)" d="M  247,31l 0,1 1,1 0,1 1,1 0,1 1,1 0,1 1,1 0,1 1,1 0,1 1,1 0,1 1,1 0,1 1,1 0,-15 -1,0 -1,1 -3,0 -1,-1 0,-1 -1,-1 -1,1 -1,-1 0,-1 1,-1 0,-1 -1,-1 0,-1 -1,-1 0,-1 -1,-1 0,-1 -1,-1 0,-1 -1,-1 0,-1 -1,-1 0,-1 -1,-1 0,-1 -1,-1 0,-1 -1,-1 0,-1 -1,-1 0,-1 -1,-1 0,-1 -1,-1 0,-1 -1,-1 0,-2 -6,0 0,2 1,1 0,1 1,1 0,1 1,1 0,1 1,1 1,1 0,1 1,1 0,1 1,1 0,1 1,1 0,1 1,1 0,1 1,1 0,1 1,1 0,1 1,1 0,1 1,1 0,1 1,1 1,-1 2,0 1,1 0,2 1,1Z"/>
</svg>