<svg width="256" height="256" xmlns="http://www.w3.org/2000/svg"><script> 
var tempColor;
function hoverPath(evt){
obj = evt.target;
tempColor = obj.getAttribute("fill");
obj.setAttribute("fill","red");
//alert(tempColor);
//obj.setAttribute("stroke","red");}
function recoverPath(evt){
obj = evt.target;
obj.setAttribute("fill", tempColor);
//obj.setAttribute("stroke", tempColor);
}</script><path onmouseover="hoverPath(evt)" onmouseout="recoverPath(evt)" fill="rgb(243,242,235)" d="M  99,40l 0,5 -1,1 -2,0 0,2 1,1 0,11 1,1 0,2 1,0 1,-1 5,0 1,-1 9,0 1,-1 11,0 1,-1 10,0 1,-1 11,0 1,-1 10,0 1,-1 11,0 1,-1 10,0 1,-1 9,0 1,-1 9,0 1,-1 10,0 1,-1 9,0 1,-1 7,0 -1,-1 0,-7 -1,-1 0,-7 -1,-1 0,-5 -1,-1 0,-4 -1,-1 0,-3 -1,-1 0,-4 -1,-1 0,-4 -1,-1 0,-4 -1,-1 0,-3 -128,0 0,11 1,1 0,11 2,0 1,1 0,11 -1,1Z"/>
<path onmouseover="hoverPath(evt)" onmouseout="recoverPath(evt)" fill="rgb(253,253,253)" d="M  145,161l -1,0 0,1 -1,1 0,2 -1,1 0,3 -1,1 0,4 -1,1 0,11 1,1 0,3 1,1 0,2 1,1 0,2 1,1 0,2 -1,1 1,0 1,1 1,1 1,1 0,1 1,1 0,2 1,0 1,1 1,1 0,1 1,1 1,1 1,1 0,1 1,0 1,1 1,1 1,0 1,1 1,1 2,0 1,1 3,0 1,1 15,0 1,-1 3,0 1,-1 2,0 1,-1 3,0 1,-1 2,0 1,-1 2,0 1,-1 5,0 1,1 0,1 1,1 0,-4 1,-1 4,0 1,-1 5,0 1,-1 5,0 1,-1 5,0 1,-1 2,0 1,1 1,0 1,1 0,5 1,1 0,5 1,1 0,5 1,1 0,2 1,1 0,4 1,1 1,-1 2,0 -1,-1 0,-1 -1,-1 0,-3 -1,-1 0,-3 -1,-1 0,-5 -1,-1 0,-10 1,-1 3,0 1,-1 3,0 1,-1 1,0 1,-1 5,0 0,-4 -1,0 -1,1 -4,0 -1,1 -4,0 -1,1 -3,0 -1,-1 0,-5 1,-1 0,-3 1,-1 0,-2 1,-1 0,-2 1,-1 0,-2 1,-1 0,-2 1,-1 0,-3 -2,0 -1,-1 -13,0 -1,1 11,0 0,3 -1,1 0,0 1,1 1,0 1,1 0,2 -1,1 0,2 -1,1 0,3 -1,1 0,3 -1,1 0,3 -1,1 0,1 -1,1 0,1 -1,1 -2,0 -1,1 -4,0 -1,1 -5,0 -1,1 -5,0 -1,1 -5,0 -1,1 -4,0 -1,1 -2,0 -1,1 -2,0 -1,1 -2,0 -1,1 -2,0 -1,1 -3,0 -1,1 -2,0 -1,1 -3,0 -1,1 -10,0 -1,-1 -4,0 -1,-1 -1,0 -1,-1 -2,0 -1,-1 -1,-1 -1,-1 -1,-1 0,-1 -1,0 -1,-1 -1,-1 -1,-1 -1,-1 0,-1 -1,-1 0,-1 -1,-1 -1,-1 0,-1 -1,-1 0,-1 -1,-1 0,-2 -1,-1 0,-3 1,-1 -1,0 -1,-1 0,-1 -1,-1 0,-1 -1,-1 0,-8 1,-1 0,-4 1,-1 0,-4 1,-1 0,-5 -3,39 -1,0 -1,1 -2,0 -1,1 1,0 3,-1 1,-1 3,-39Z"/>
<path onmouseover="hoverPath(evt)" onmouseout="recoverPath(evt)" fill="rgb(244,243,235)" d="M  148,194l 0,2 1,1 0,1 1,1 0,1 1,1 1,1 0,1 1,1 0,1 1,1 1,1 1,1 1,0 1,1 0,1 1,1 2,2 2,0 1,1 1,0 1,1 4,0 1,1 8,0 1,-1 3,0 1,-1 2,0 1,-1 3,0 1,-1 2,0 1,-1 2,0 1,-1 2,0 1,-1 2,0 1,-1 4,0 1,-1 5,0 1,-1 5,0 1,-1 5,0 1,-1 4,0 1,-1 2,0 0,-1 1,-1 0,-1 1,-1 0,-3 1,-1 0,-3 1,-1 0,-3 1,-1 0,-2 1,-1 -1,0 -1,-1 -1,0 -1,-1 0,-2 1,-1 1,0 0,-1 -6,0 -1,1 -3,0 -1,-1 0,-2 1,-1 1,-1 15,0 1,1 2,0 1,1 0,5 -1,1 0,2 -1,1 0,2 -1,1 0,2 -1,1 0,2 -1,1 0,3 -1,1 0,3 1,0 0,-3 1,-3 0,-1 1,-3 1,-3 1,-2 0,-1 1,-2 0,-1 1,-3 0,-7 -1,-1 0,-5 -1,-1 0,-2 -1,-1 0,-1 -1,-1 0,-1 -1,-1 0,-3 -1,-1 0,-18 1,-1 0,-14 -1,-1 0,-3 -1,-1 0,-3 -1,-1 0,-3 -1,-1 0,-3 -1,-1 0,-5 -1,-1 0,-10 -1,-1 0,-9 -1,-1 0,-7 -1,-1 0,-9 -7,0 -1,1 -10,0 -1,1 -9,0 -1,1 -9,0 -1,1 -10,0 -1,1 -10,0 -1,1 -10,0 -1,1 -11,0 -1,1 -10,0 -1,1 -11,0 -1,1 -11,0 -1,1 -11,0 -1,-1 -1,0 0,8 1,1 0,7 1,1 0,12 1,1 0,14 1,1 0,11 1,1 0,128 66,0 0,-2 1,-1 3,0 1,-1 3,0 1,-1 2,0 1,-1 3,0 1,-1 3,0 1,-1 2,0 1,-1 3,0 1,-1 3,0 1,-1 3,0 1,-1 2,0 1,-1 3,0 1,-1 3,0 1,-1 2,0 1,-1 3,0 1,-1 3,0 1,-1 3,0 1,-1 2,0 1,-1 1,0 0,-3 -1,-1 0,-2 -1,-1 0,-5 -1,-1 0,-5 -1,-1 0,-5 -1,0 -1,-1 -1,1 -5,0 -1,1 -5,0 -1,1 -5,0 -1,1 -4,0 0,5 -1,1 -2,0 -1,-1 0,-1 -1,-1 0,-1 -3,0 -1,1 -2,0 -1,1 -2,0 -1,1 -3,0 -1,1 -2,0 -1,1 -3,0 -1,1 -17,0 -1,-1 -3,0 -1,-1 -2,0 -1,-1 -1,-1 -1,0 -1,-1 -1,-1 -1,0 -1,-1 0,-1 -1,-1 -1,-1 -1,-1 0,-1 -1,-1 -1,0 -1,-1 0,-2 -1,-1 0,-1 -1,-1 -1,-1 -1,1 -2,0 -1,1 -4,0 -1,-1 0,-2 1,-1 1,0 1,-1 2,0 1,-1 2,0 -1,-1 0,-2 -1,-1 0,-2 -1,-1 0,-3 -1,-1 0,-13 1,-1 0,-4 1,-1 0,-3 1,-1 0,-2 1,-1 0,-1 1,-1 1,-1 2,0 1,1 0,8 -1,1 0,4 -1,1 0,4 -1,1 0,6 1,1 0,1 1,1 0,1 20,0 1,1 0,2 -1,1 -19,0 0,1 1,1Z"/>
<path onmouseover="hoverPath(evt)" onmouseout="recoverPath(evt)" fill="rgb(242,231,137)" d="M  190,56l -4,0 -1,1 -10,0 -1,1 -11,0 -1,1 -10,0 -1,1 -11,0 -1,1 -10,0 -1,1 -11,0 -1,1 -9,0 -1,1 -5,0 -1,1 -4,0 0,5 1,0 1,-1 2,0 1,-1 3,0 1,1 9,0 1,-1 11,0 1,-1 11,0 1,-1 10,0 1,-1 11,0 1,-1 10,0 1,-1 10,0 1,-1 10,0 1,-1 9,0 1,-1 9,0 1,-1 10,0 1,-1 8,0 0,-1 1,-1 4,0 1,1 5,0 1,-1 9,0 0,-6 -7,0 -1,1 -8,0 0,1 -1,1 -4,0 -1,-1 -6,0 -1,1 -9,0 -1,1 -10,0 -1,1 -9,0 -1,1Z"/>
<path onmouseover="hoverPath(evt)" onmouseout="recoverPath(evt)" fill="rgb(248,237,139)" d="M  191,250l -1,0 -1,1 -3,0 -1,1 -2,0 -1,1 -3,0 -1,1 -3,0 0,1 39,0 0,-2 1,-1 2,0 1,-1 3,0 1,-1 3,0 1,-1 2,0 1,-1 3,0 1,-1 2,0 1,-1 3,0 1,-1 3,0 1,-1 3,0 1,-1 3,0 1,-1 3,0 0,-7 -2,0 -1,1 -3,0 -1,-1 -2,0 0,1 -1,1 -2,0 -1,1 -2,0 -1,-1 -1,0 -1,1 -2,0 -1,1 -3,0 -1,1 -3,0 -1,1 -3,0 -1,1 -2,0 -1,1 -3,0 -1,1 -3,0 -1,1 -2,0 -1,1 -3,0 -1,1 -3,0 -1,1 -3,0 -1,1 -2,0 -1,1Z"/>
<path onmouseover="hoverPath(evt)" onmouseout="recoverPath(evt)" fill="rgb(245,244,237)" d="M  217,254l -1,0 0,1 39,0 0,-11 -2,0 -1,1 -3,0 -1,1 -3,0 -1,1 -3,0 -1,1 -3,0 -1,1 -2,0 -1,1 -3,0 -1,1 -2,0 -1,1 -3,0 -1,1 -3,0 -1,1Z"/>
<path onmouseover="hoverPath(evt)" onmouseout="recoverPath(evt)" fill="rgb(189,206,229)" d="M  243,209l -2,0 0,8 1,1 0,5 1,1 0,3 1,1 0,3 1,1 0,1 4,0 1,1 1,0 1,-1 3,0 0,-5 -2,0 -1,-1 0,-1 -1,-1 -1,-1 0,-1 -1,-1 0,-1 -1,-1 0,-2 -1,-1 0,-9 -2,0 -1,1Z"/>
<path onmouseover="hoverPath(evt)" onmouseout="recoverPath(evt)" fill="rgb(244,243,236)" d="M  244,86l 0,7 1,1 0,5 1,1 0,4 1,1 0,3 1,1 0,2 1,1 0,2 1,1 0,3 1,1 0,18 -1,1 0,14 1,1 0,2 1,1 0,2 1,1 0,3 1,1 0,3 1,0 0,-108 -8,0 -1,1 -5,0 0,4 1,1 0,6 1,1 0,9 1,1Z"/>
<path onmouseover="hoverPath(evt)" onmouseout="recoverPath(evt)" fill="rgb(244,242,235)" d="M  252,206l -1,0 -1,1 -1,0 0,9 1,1 0,2 1,1 0,1 1,1 0,1 1,1 1,1 0,1 1,0 0,-20Z"/>
<path onmouseover="hoverPath(evt)" onmouseout="recoverPath(evt)" fill="rgb(243,242,235)" d="M  0,117l 0,138 102,0 0,-125 -1,-1 0,-12 -1,-1 0,-13 -1,-1 0,-12 -1,-1 0,-7 -1,-1 0,-9 -2,0 -1,-1 0,-7 1,-1 1,0 0,-1 -1,-1 0,-11 -1,-1 0,-4 1,-1 2,0 0,-9 1,-1 0,-9 -2,0 -1,-1 0,-11 -1,-1 0,-12 -94,0Z"/>
<path onmouseover="hoverPath(evt)" onmouseout="recoverPath(evt)" fill="rgb(254,254,254)" d="M  99,71l 0,9 1,1 0,7 1,1 0,12 1,1 0,13 1,1 0,12 1,1 0,126 1,0 0,-127 -1,-1 0,-11 -1,-1 0,-14 -1,-1 0,-12 -1,-1 0,-7 -1,-1 0,-7 -1,-1Z"/>
<path onmouseover="hoverPath(evt)" onmouseout="recoverPath(evt)" fill="rgb(171,198,237)" d="M  226,1l 0,1 1,1 0,4 1,1 0,4 1,1 0,4 1,1 0,3 1,1 0,4 1,1 0,5 1,1 0,7 1,1 0,7 1,1 0,2 2,0 0,-6 -1,-1 0,-8 -1,-1 0,-6 -1,-1 0,-6 -1,-1 0,-4 -1,-1 0,-4 -1,-1 0,-3 -1,-1 0,-4 -1,-1 0,-2 -2,0 -1,1Z"/>
<path onmouseover="hoverPath(evt)" onmouseout="recoverPath(evt)" fill="rgb(245,244,237)" d="M  231,1l 1,1 0,4 1,1 0,3 1,1 0,4 1,1 0,4 1,1 0,6 1,1 0,6 1,1 0,8 1,1 0,5 7,0 1,-1 8,0 0,-48 -23,0 -1,1Z"/>
<path onmouseover="hoverPath(evt)" onmouseout="recoverPath(evt)" fill="rgb(178,202,237)" d="M  236,59l 0,9 1,1 0,7 1,1 0,9 1,1 0,10 1,1 0,5 1,1 0,3 1,1 0,3 1,1 0,3 1,1 0,3 1,1 0,16 -1,1 0,16 1,1 0,3 1,1 0,1 1,1 0,1 1,1 0,2 1,1 0,5 1,1 0,9 -1,1 0,3 -1,1 0,2 -1,1 0,1 -1,1 0,2 -1,1 0,3 -1,1 0,3 3,0 1,-1 4,0 1,-1 2,0 0,-30 -2,0 -1,-1 0,-3 -1,-1 0,-3 -1,-1 0,-2 -1,-1 0,-2 -1,-1 0,-16 1,-1 0,-16 -1,-1 0,-3 -1,-1 0,-2 -1,-1 0,-2 -1,-1 0,-3 -1,-1 0,-4 -1,-1 0,-5 -1,-1 0,-12 -1,-1 0,-9 -1,-1 0,-6 -1,-1 0,-5 -1,-1 -1,0 -1,1Z"/>
</svg>