<svg width="256" height="256" xmlns="http://www.w3.org/2000/svg"><script> 
var tempColor;
function hoverPath(evt){
obj = evt.target;
tempColor = obj.getAttribute("fill");
obj.setAttribute("fill","red");
//alert(tempColor);
//obj.setAttribute("stroke","red");}
function recoverPath(evt){
obj = evt.target;
obj.setAttribute("fill", tempColor);
//obj.setAttribute("stroke", tempColor);
}</script><path onmouseover="hoverPath(evt)" onmouseout="recoverPath(evt)" fill="rgb(174,199,238)" d="M  0,48l 0,8 5,0 1,1 3,0 1,1 4,0 1,1 3,0 1,1 2,0 1,1 2,0 1,1 4,0 1,1 4,0 1,1 3,0 1,1 4,0 1,1 4,0 1,1 3,0 1,1 4,0 1,1 4,0 1,1 3,0 1,1 1,0 1,1 0,3 -1,1 0,1 -1,1 -1,1 -1,1 0,1 -1,1 0,1 -1,1 0,3 1,1 0,4 1,1 0,6 1,1 0,4 1,1 0,3 1,1 1,1 0,2 1,1 0,1 1,1 0,14 1,1 0,5 1,1 0,6 -1,1 -1,1 -5,0 -1,1 -7,0 -1,1 -6,0 -1,1 -5,0 -1,1 -5,0 -1,1 -6,0 -1,1 -6,0 -1,1 -6,0 -1,1 -3,0 -1,1 -2,0 -1,1 -2,0 -1,1 -1,0 -1,1 -1,0 -1,1 -3,0 0,3 1,0 1,-1 3,0 1,-1 2,0 1,-1 2,0 1,-1 1,0 1,-1 2,0 1,-1 2,0 1,-1 2,0 1,-1 3,0 1,-1 4,0 1,-1 7,0 1,-1 4,0 1,-1 4,0 -10,1 0,0 -39,-101 51,99 4,0 3,-1 15,0 1,1 1,1 0,1 1,1 0,2 2,0 0,-7 -1,-1 0,-3 -1,-1 0,-1 -1,-1 0,-2 -1,-1 0,-1 -1,-1 0,-3 -1,-1 0,-7 1,-1 0,-5 -1,-1 0,-1 -1,-1 -1,-1 0,-1 1,3 0,0 -20,33 -51,-99 69,61 -1,-1 0,-1 -1,-3 -1,-5 0,-15 1,-1 0,-1 1,-1 0,-1 1,-1 1,-1 0,-1 1,-1 0,-1 1,-1 1,-1 5,0 1,1 3,0 1,1 2,0 1,1 3,0 1,1 3,0 1,1 3,0 1,1 3,0 1,1 4,0 1,1 3,0 1,1 3,0 1,1 4,0 1,1 3,0 1,1 3,0 1,1 3,0 1,1 3,0 1,1 3,0 1,1 2,0 1,1 3,0 1,1 2,0 1,1 3,0 0,-9 -3,0 -1,-1 -3,0 -1,-1 -3,0 -1,-1 -3,0 -1,-1 -2,0 -1,-1 -3,0 -1,-1 -3,0 -1,-1 -3,0 -1,-1 -3,0 -1,-1 -3,0 -1,-1 -2,0 -1,-1 -1,0 -1,-1 -1,-1 -1,-1 -1,-1 -1,-1 0,-1 -1,-1 -1,-1 -1,-1 -1,-1 -1,-1 0,-4 -4,0 -1,-1 0,-2 -1,-1 -1,-1 0,-1 -1,-1 -1,-1 -1,-1 0,-1 -1,-1 -1,-1 -1,-1 0,-1 -1,-1 -1,-1 -1,-1 0,-1 -1,-1 -1,-1 0,-1 -1,-1 -1,-1 -1,-1 0,-1 -1,0 -1,-1 0,-2 1,-1 0,0 1,-1 1,0 1,-1 1,0 1,-1 -6,3 -2,0 -1,-1 0,-2 -1,-1 -2,-2 0,-1 -1,-1 -1,-1 0,-1 -1,-1 -2,0 -1,-1 -1,-1 0,-1 -1,-1 0,-1 -1,-1 -1,-1 0,-1 -1,0 1,2 1,1 1,2 0,3 -1,1 3,0 1,1 0,1 1,1 0,1 1,1 1,1 0,1 1,1 1,1 0,1 1,1 4,0 -7,80 -69,-61 77,-16 1,1 1,1 0,1 1,1 1,1 0,1 1,1 1,1 0,1 1,1 1,1 1,1 0,1 1,1 1,1 1,1 0,1 1,1 1,1 1,1 0,1 1,1 1,1 0,2 -1,1 4,0 1,1 0,1 1,1 0,1 1,1 1,1 1,1 1,1 1,1 0,3 -1,1 -4,0 -1,-1 -4,0 -1,-1 -4,0 -1,-1 -3,0 -1,-1 -2,0 -1,-1 -3,0 -1,-1 -3,0 -1,-1 -3,0 -1,-1 -3,0 -1,-1 -3,0 -1,-1 -3,0 -1,-1 -3,0 -1,-1 -4,0 -1,-1 -3,0 -1,-1 -3,0 -1,-1 -3,0 -1,-1 -3,0 -1,-1 -3,0 -1,-1 -3,0 -1,-1 -3,0 -1,-1 -4,0 -1,-1 -3,0 -1,-1 -3,0 -1,-1 -4,0 -1,-1 -2,0 77,-15 -77,16Z"/>
<path onmouseover="hoverPath(evt)" onmouseout="recoverPath(evt)" fill="rgb(243,241,232)" d="M  73,76l 0,1 -1,1 0,1 -1,1 -1,1 0,1 -1,1 0,1 -1,1 0,17 1,1 0,2 1,1 0,1 1,1 0,1 1,1 0,1 1,1 1,1 0,1 3,0 0,-7 -1,-1 0,-7 1,-1 1,0 1,-1 11,0 1,-1 9,0 1,1 5,0 1,1 4,0 1,1 1,1 0,3 1,1 0,4 1,1 0,1 7,0 1,-1 6,0 1,1 1,1 0,2 1,0 1,1 4,0 1,-1 7,0 1,1 0,2 1,1 0,1 1,0 1,-1 2,0 1,1 0,-24 -3,0 -1,-1 -2,0 -1,-1 -3,0 -1,-1 -2,0 -1,-1 -3,0 -1,-1 -3,0 -1,-1 -3,0 -1,-1 -3,0 -1,-1 -3,0 -1,-1 -4,0 -1,-1 -3,0 -1,-1 -3,0 -1,-1 -4,0 -1,-1 -3,0 -1,-1 -3,0 -1,-1 -3,0 -1,-1 -3,0 -1,-1 -2,0 -1,-1 -3,0 -1,-1 -3,0 -1,1Z"/>
<path onmouseover="hoverPath(evt)" onmouseout="recoverPath(evt)" fill="rgb(244,243,235)" d="M  103,61l 0,0 1,1 1,1 1,1 1,1 0,1 1,1 1,1 1,1 1,1 1,0 1,1 2,0 1,1 3,0 1,1 3,0 1,1 3,0 1,1 3,0 1,1 3,0 1,1 2,0 1,1 3,0 1,1 3,0 1,1 3,0 1,1 0,-19 -1,-1 0,-21 -1,-1 0,-2 -1,-1 0,-2 -1,-1 0,-2 -1,-1 0,-2 -1,-1 0,-1 -1,-1 0,-1 -1,-1 0,-1 -1,-1 0,-1 -1,-1 0,-1 -1,-1 0,-1 -1,-1 0,-1 -1,-1 0,-1 -1,-1 -1,-1 0,-1 -1,-1 0,-1 -1,-1 0,-1 -1,-1 0,-1 -1,-1 0,-2 -18,0 0,3 2,0 1,-1 2,0 1,1 1,0 1,1 1,0 1,1 0,2 1,1 1,1 2,0 1,1 1,1 1,1 0,2 -1,1 1,1 0,0 1,1 2,0 1,1 0,2 -1,1 1,1 2,0 1,1 1,1 0,2 -1,1 1,1 0,0 1,1 0,1 1,1 0,3 -1,1 -1,0 -1,1 -3,0 0,2 -1,1 -2,0 -1,-1 0,2 -1,1 -2,0 -1,-1 -1,1 0,0 -1,1 -1,0 -1,1 -1,1 -1,0 -1,1 -1,1 -1,0 -1,1 -1,1 -1,0 -1,1 -1,1 -1,0 -1,1 0,2 -1,1 -1,0 -1,1 -1,1 -2,0 -1,-1 -1,1 -1,0 0,4 1,1Z"/>
<path onmouseover="hoverPath(evt)" onmouseout="recoverPath(evt)" fill="rgb(254,254,254)" d="M  160,60l 0,1 14,0 1,-1 56,0 1,-1 9,0 1,-1 2,0 1,-1 2,0 1,-1 1,0 1,-1 2,0 1,-1 2,0 0,-1 -3,0 -1,1 -1,0 -1,1 -2,0 -1,1 -1,0 -1,1 -2,0 -1,1 -10,0 -1,1 -69,0 -1,1Z"/>
<path onmouseover="hoverPath(evt)" onmouseout="recoverPath(evt)" fill="rgb(242,241,232)" d="M  3,45l 0,0 1,1 4,0 1,1 3,0 1,1 3,0 1,1 4,0 1,1 3,0 1,1 3,0 1,1 3,0 1,1 3,0 1,1 3,0 1,1 3,0 1,1 3,0 1,1 4,0 1,1 3,0 1,1 3,0 1,1 3,0 1,1 3,0 1,1 3,0 1,1 3,0 1,1 3,0 1,1 2,0 1,1 3,0 1,1 4,0 1,1 4,0 1,1 2,0 0,-1 -1,-1 0,0 -1,-1 -1,-1 -1,-1 -1,-1 0,-1 -1,-1 0,-1 -7,0 -1,-1 -5,0 -1,-1 -2,0 -1,-1 0,-2 -1,0 -1,1 -3,0 -1,-1 0,-2 -1,0 -1,-1 -1,0 -1,-1 -1,1 -2,0 -1,-1 -1,0 -1,-1 -1,-1 -2,0 -1,1 -2,0 -1,1 -5,0 -1,1 -2,0 -1,-1 -1,0 -1,-1 -1,-1 -1,-1 -1,-1 0,-1 -1,-1 0,-1 -1,-1 -2,0 -1,-1 -2,0 -1,-1 -2,0 -1,-1 -1,-1 0,-1 -1,-1 0,-1 -1,-1 -1,-1 0,-1 -1,2 0,1 -1,1 0,1 -1,1 -1,0 -1,1 -1,1 -1,0 -1,1 -2,0 -1,-1 -10,0 -1,1 -5,0 0,3Z"/>
<path onmouseover="hoverPath(evt)" onmouseout="recoverPath(evt)" fill="rgb(247,247,241)" d="M  9,6l 0,0 1,1 1,1 1,1 0,1 1,1 1,1 0,1 1,1 1,1 0,2 1,0 1,1 1,1 0,1 1,1 1,1 0,1 1,1 0,1 1,1 0,2 1,1 0,5 1,-1 0,-1 1,-1 2,0 1,1 0,1 1,1 1,1 0,1 1,1 0,1 1,1 1,0 -1,-1 0,-1 -1,-1 0,-1 -1,-1 0,-1 -1,-1 0,-2 1,-1 -1,-1 0,-1 -2,0 -1,-1 -1,-1 -1,-1 0,-1 -1,-1 -1,-1 0,-1 -1,-1 0,-2 1,-1 2,0 1,1 0,-2 1,-1 1,0 1,-1 2,0 1,1 0,-2 1,-1 1,0 1,-1 1,0 1,-1 2,0 1,-1 2,0 1,1 0,-2 1,-1 1,0 1,-1 1,0 1,-1 2,0 1,-1 1,0 1,-1 2,0 1,1 1,1 1,1 0,-1 -1,-1 0,-3 -57,0 0,1 2,0 1,1 1,0 1,1 1,0 1,1 0,2 2,0 14,29 -2,0 -1,1 -1,1 0,1 1,1 1,-1 1,-1 1,0 0,-2 -14,-29Z"/>
<path onmouseover="hoverPath(evt)" onmouseout="recoverPath(evt)" fill="rgb(242,241,232)" d="M  40,33l 0,0 1,1 0,2 -1,1 -2,0 -1,-1 0,-2 1,-1 2,0 -5,3 0,1 1,1 0,2 2,0 1,1 2,0 2,2 0,1 1,1 0,1 1,1 1,1 1,1 1,0 1,1 1,-1 5,0 1,-1 2,0 1,-1 4,0 1,1 1,1 1,0 1,1 1,-1 2,0 1,1 1,0 1,1 1,0 1,1 0,2 1,0 1,-1 3,0 1,1 0,2 2,0 1,1 4,0 1,-1 3,0 -1,-1 0,0 -1,-1 0,-1 -1,-1 -1,-1 -1,-1 0,-1 -1,-1 -1,-1 -1,-1 0,-1 -1,-1 -1,-1 -1,-1 0,-1 -1,-1 -1,-1 0,-1 -1,-1 -1,-1 0,-1 -1,-1 -1,-1 0,-2 -4,0 -1,-1 -1,-1 0,-1 -2,-2 0,-1 -1,-1 -1,-1 0,-1 -1,-1 0,-1 -5,0 -1,-1 0,-2 1,-1 2,0 0,-2 -1,-1 0,0 -1,-1 0,-1 -1,-1 0,-1 -1,-1 0,-1 -1,-1 -1,-1 -1,-1 -1,1 -1,0 -1,1 -2,0 -1,1 -1,0 -1,1 -1,0 0,2 -1,1 -2,0 -1,-1 -1,1 -2,0 -1,1 -1,0 -1,1 -1,0 0,2 -1,1 -2,0 -1,-1 -1,1 -1,0 0,2 -1,1 -2,0 0,1 1,1 1,1 0,1 1,1 1,1 2,0 1,1 0,1 1,1 0,2 -1,1 1,1 0,1 1,1 0,1 1,1 5,-3Z"/>
<path onmouseover="hoverPath(evt)" onmouseout="recoverPath(evt)" fill="rgb(241,241,235)" d="M  61,0l -2,0 0,2 1,1 0,3 -1,1 3,0 1,1 0,1 1,1 1,1 0,1 1,1 0,1 1,1 2,0 1,1 1,1 0,1 1,1 1,1 0,1 2,2 1,1 0,2 1,0 1,-1 1,0 1,-1 1,0 1,-1 1,0 1,-1 2,0 1,1 1,-1 1,-1 1,0 1,-1 0,-2 1,-1 0,-2 1,-1 1,-1 1,-1 1,-1 1,-1 1,-1 1,-1 1,-1 1,-1 1,-1 1,-1 2,0 1,-1 0,-3Z"/>
<path onmouseover="hoverPath(evt)" onmouseout="recoverPath(evt)" fill="rgb(244,243,235)" d="M  161,65l 0,17 1,1 1,1 3,0 1,1 3,0 1,1 3,0 1,1 3,0 1,1 2,0 1,1 4,0 1,1 4,0 1,1 4,0 1,1 4,0 1,1 4,0 1,1 4,0 1,1 4,0 1,1 4,0 1,1 10,0 1,1 11,0 1,1 10,0 0,-43 -1,0 -1,1 -2,0 -1,1 -1,0 -1,1 -2,0 -1,1 -2,0 -1,1 -9,0 -1,1 -56,0 -1,1 -14,0Z"/>
<path onmouseover="hoverPath(evt)" onmouseout="recoverPath(evt)" fill="rgb(243,242,234)" d="M  22,30l 0,0 -1,-1 0,-2 -1,-1 0,-1 -1,-1 0,-1 -1,-1 -1,-1 0,-1 -1,-1 -1,0 -1,-1 0,-2 -1,-1 -1,-1 0,-1 -1,-1 -1,-1 0,-1 -1,-1 -1,-1 -2,0 -1,-1 0,-2 -1,0 -1,-1 -1,0 -1,-1 -1,0 0,37 4,0 1,-1 11,0 1,-1 0,-2 1,-1 1,-1 1,-1 2,0Z"/>
<path onmouseover="hoverPath(evt)" onmouseout="recoverPath(evt)" fill="rgb(243,242,234)" d="M  81,29l -1,0 -1,1 1,0 1,1 0,1 1,1 1,1 1,1 0,1 1,1 1,1 0,1 1,1 1,1 1,1 0,1 1,1 1,1 1,1 0,1 1,1 1,1 1,1 0,1 1,1 1,1 0,2 3,0 1,-1 1,0 1,-1 2,0 1,1 1,-1 0,-2 1,-1 1,0 1,-1 1,-1 1,0 1,-1 1,-1 1,0 1,-1 1,-1 1,0 1,-1 1,-1 1,0 1,-1 1,-1 1,0 1,-1 1,-1 1,0 1,-1 1,0 1,-1 2,0 1,1 0,-2 1,-1 3,0 1,-1 1,0 0,-1 -1,-1 0,-1 -1,-1 -1,-1 0,-1 -1,-1 -1,-1 0,-1 -1,-1 -1,-1 0,-1 -1,-1 0,-1 -1,-1 -1,-1 -1,-1 0,-2 1,-1 -1,-1 -1,-1 -2,0 -1,-1 -1,-1 -1,-1 -1,0 -1,-1 -1,0 -1,-1 -1,0 -1,-1 -3,0 -1,-1 0,-4 -4,0 0,4 -1,1 -1,1 -2,0 -1,1 -3,3 -1,1 -1,1 -1,1 -1,1 -1,1 -1,1 0,2 -1,1 0,2 -1,1 -1,1 -1,0 -1,1 -1,1 -1,0 -1,1 -1,0 -1,1 -1,1 -1,0 -1,1Z"/>
<path onmouseover="hoverPath(evt)" onmouseout="recoverPath(evt)" fill="rgb(244,233,138)" d="M  122,253l -1,0 -1,1 -1,0 0,1 12,0 0,-3 1,-1 2,0 1,1 1,-1 1,0 1,-1 1,0 1,-1 1,0 1,-1 1,0 1,-1 1,0 1,-1 1,0 1,-1 1,-1 1,0 1,-1 1,0 1,-1 1,0 1,-1 1,0 1,-1 1,0 1,-1 2,0 0,-2 1,-1 -1,-1 0,-2 1,-1 1,0 0,-28 -1,-1 0,-40 -1,-1 0,-40 -1,-1 0,-22 -1,0 -1,-1 0,-15 1,-1 0,-19 -1,-1 0,-3 -1,-1 0,-2 1,-1 0,-15 -1,-1 0,-3 -1,-1 0,-1 -1,-1 0,-2 -1,-1 0,-2 -1,-1 0,-2 -1,-1 0,-2 -1,-1 0,-1 -1,-1 0,-1 -1,-1 0,-1 -2,-2 0,-1 -1,-1 0,-1 -1,-1 0,-1 -1,-1 0,-2 1,-1 2,0 1,-1 1,0 1,-1 1,0 1,-1 1,-1 1,0 0,-1 -20,0 0,1 1,1 0,1 1,1 0,1 1,1 0,1 1,1 0,1 2,2 0,1 1,1 0,1 1,1 0,1 1,1 0,1 1,1 0,1 1,1 0,1 1,1 0,1 1,1 0,1 1,1 0,2 1,1 0,2 1,1 0,2 1,1 0,2 1,1 0,21 1,1 0,20 1,0 1,1 0,11 -1,1 0,27 1,0 1,1 0,6 -1,1 -2,0 0,1 1,0 1,1 0,27 1,1 0,40 1,1 0,33 -2,2 -1,1 -1,0 -1,1 -1,0 -1,1 -1,0 -1,1 -1,0 -1,1 -1,0 -1,1 -1,0 -1,1 -1,0 -1,1 -1,1 -1,0 -1,1 -1,0 -1,1 -1,0 -1,1 -1,0 -1,1 -1,0 -1,1 -1,0 -1,1 -1,0 -1,1 -1,0 -2,2Z"/>
<path onmouseover="hoverPath(evt)" onmouseout="recoverPath(evt)" fill="rgb(244,243,235)" d="M  136,254l -2,0 -1,-1 0,2 3,0 0,-1 3,1 116,0 0,-30 -10,0 -1,1 -9,0 -1,1 -9,0 -1,1 -9,0 -1,1 -9,0 -1,1 -11,0 -1,1 -5,0 -1,1 -4,0 -1,1 -3,0 -1,1 -3,0 -1,1 -2,0 -1,1 -3,0 -1,1 -2,0 -1,1 0,2 -1,1 -2,0 -1,1 -1,0 -1,1 -1,0 -1,1 -1,0 -1,1 -1,0 -1,1 -1,0 -1,1 -1,1 -1,0 -1,1 -1,0 -1,1 -1,0 -1,1 -1,0 -1,1 -1,0 0,3 -3,-1Z"/>
<path onmouseover="hoverPath(evt)" onmouseout="recoverPath(evt)" fill="rgb(244,243,235)" d="M  150,14l 1,1 0,1 1,1 0,1 1,1 0,1 1,1 0,2 1,1 0,2 1,1 0,2 1,1 0,2 1,1 0,1 1,1 0,3 1,1 0,17 -1,1 70,0 1,-1 10,0 1,-1 2,0 1,-1 1,0 1,-1 2,0 1,-1 1,0 1,-1 4,0 0,-51 -99,0 0,2 -1,1 -1,0 -1,1 -1,1 -1,0 -1,1 -1,0 -1,1 -2,0 1,1 0,1 1,1 0,1 1,1 0,1 1,1Z"/>
<path onmouseover="hoverPath(evt)" onmouseout="recoverPath(evt)" fill="rgb(171,198,237)" d="M  160,86l 0,11 1,-2 3,0 1,1 4,0 1,1 3,0 1,1 4,0 1,1 3,0 1,1 4,0 1,1 3,0 1,1 4,0 1,1 4,0 1,1 4,0 1,1 6,0 1,1 6,0 1,1 6,0 1,1 5,0 1,1 21,0 0,-8 -11,0 -1,-1 -11,0 -1,-1 -10,0 -1,-1 -4,0 -1,-1 -4,0 -1,-1 -4,0 -1,-1 -4,0 -1,-1 -4,0 -1,-1 -4,0 -1,-1 -4,0 -1,-1 -4,0 -1,-1 -2,0 -1,-1 -3,0 -1,-1 -3,0 -1,-1 -3,0 -1,-1 -3,0 -1,-1 -1,1Z"/>
<path onmouseover="hoverPath(evt)" onmouseout="recoverPath(evt)" fill="rgb(244,243,236)" d="M  162,98l 0,22 1,1 0,40 1,1 0,40 1,1 0,28 2,0 1,-1 3,0 1,-1 3,0 1,-1 3,0 1,-1 4,0 1,-1 4,0 1,-1 11,0 1,-1 9,0 1,-1 9,0 1,-1 9,0 1,-1 9,0 1,-1 8,0 1,-1 4,0 0,-108 -22,0 -1,-1 -5,0 -1,-1 -6,0 -1,-1 -6,0 -1,-1 -6,0 -1,-1 -4,0 -1,-1 -4,0 -1,-1 -4,0 -1,-1 -3,0 -1,-1 -4,0 -1,-1 -3,0 -1,-1 -4,0 -1,-1 -3,0 -1,-1 -4,0 -1,-1 -1,1Z"/>
<path onmouseover="hoverPath(evt)" onmouseout="recoverPath(evt)" fill="rgb(254,254,254)" d="M  164,234l -1,0 1,1 1,0 1,-1 3,0 1,-1 2,0 1,-1 3,0 1,-1 3,0 1,-1 4,0 1,-1 5,0 1,-1 11,0 1,-1 9,0 1,-1 9,0 1,-1 9,0 1,-1 9,0 1,-1 11,0 0,-2 -3,0 -1,1 -8,0 -1,1 -9,0 -1,1 -9,0 -1,1 -9,0 -1,1 -9,0 -1,1 -11,0 -1,1 -4,0 -1,1 -4,0 -1,1 -3,0 -1,1 -3,0 -1,1 -3,0 -1,1 -3,0 -1,1Z"/>
<path onmouseover="hoverPath(evt)" onmouseout="recoverPath(evt)" fill="rgb(244,243,237)" d="M  0,59l 0,96 2,0 1,-1 1,0 1,-1 1,0 1,-1 2,0 1,-1 2,0 1,-1 3,0 1,-1 6,0 1,-1 6,0 1,-1 6,0 1,-1 5,0 1,-1 5,0 1,-1 6,0 1,-1 7,0 1,-1 5,0 1,-1 0,-4 -1,-1 0,-5 -1,-1 0,-14 -1,-1 0,-1 -1,-1 0,-2 -1,-1 -1,-1 0,-3 -1,-1 0,-4 -1,-1 0,-6 -1,-1 0,-4 -1,-1 0,-5 1,-1 0,-1 1,-1 0,-1 1,-1 2,-2 0,-1 1,-1 0,-1 -1,0 -1,-1 -3,0 -1,-1 -4,0 -1,-1 -4,0 -1,-1 -3,0 -1,-1 -4,0 -1,-1 -4,0 -1,-1 -3,0 -1,-1 -4,0 -1,-1 -4,0 -1,-1 -2,0 -1,-1 -2,0 -1,-1 -3,0 -1,-1 -4,0 -1,-1 -3,0 -1,-1 -3,0 -1,1Z"/>
<path onmouseover="hoverPath(evt)" onmouseout="recoverPath(evt)" fill="rgb(244,243,236)" d="M  0,163l 0,92 117,0 0,-2 1,-1 1,0 1,-1 1,0 1,-1 1,-1 1,0 1,-1 1,0 1,-1 1,0 1,-1 1,0 1,-1 1,0 1,-1 1,0 1,-1 1,0 1,-1 1,0 1,-1 1,-1 1,0 1,-1 1,0 1,-1 1,0 1,-1 1,0 1,-1 1,0 1,-1 1,0 1,-1 1,0 1,-1 1,-1 0,-31 -1,-1 0,-40 -1,-1 0,-27 -4,0 0,1 -1,1 0,3 1,1 0,3 -1,1 -1,1 -8,0 -1,1 -14,0 -1,1 -10,0 -1,1 -11,0 -1,1 -12,0 -1,1 -2,0 -1,-1 -1,0 -1,-1 0,-1 -1,-1 0,-5 -1,-1 0,-6 -1,-1 0,-7 -1,-1 0,-7 -3,0 0,6 -1,1 0,5 1,1 0,3 1,1 0,1 1,1 0,2 1,1 0,1 1,1 0,3 1,1 0,9 -1,1 -4,0 -1,-1 0,-2 -1,-1 0,-1 -1,-1 -15,0 -1,1 -5,0 -1,1 -4,0 -1,1 -4,0 -1,1 -7,0 -1,1 -4,0 -1,1 -3,0 -1,1 -2,0 -1,1 -2,0 -1,1 -2,0 -1,1 -1,0 -1,1 -2,0 -1,1 -2,0 -1,1 -3,0 -1,1 -1,0 -1,1Z"/>
<path onmouseover="hoverPath(evt)" onmouseout="recoverPath(evt)" fill="rgb(243,240,231)" d="M  103,144l 8,0 1,-1 10,0 1,-1 14,0 1,-1 8,0 1,-1 0,-1 -1,-1 0,-5 1,-1 0,-1 1,-1 3,0 0,-2 1,-1 2,0 0,-4 -1,0 -1,-1 -1,0 -1,-1 0,-2 -1,1 -3,0 -1,-1 0,-1 -12,0 -1,1 -11,0 -1,1 -4,0 -1,-1 0,-3 1,-1 -1,0 -1,1 -3,0 -1,-1 -4,0 -1,1 -4,0 5,1 0,3 -1,1 -3,0 0,1 -1,1 -4,0 -1,-1 -7,0 0,2 -1,1 7,0 1,1 0,2 -1,1 -14,0 0,1 1,1 0,6 1,1 0,5 1,1 0,1 1,0 1,1 1,-1 12,0 1,-1 3,0 14,-29 5,0 1,-1 -5,0 -1,1 -14,29Z"/>
<path onmouseover="hoverPath(evt)" onmouseout="recoverPath(evt)" fill="rgb(246,244,238)" d="M  143,115l -4,0 -1,1 -6,0 -1,-1 -1,0 -1,-1 0,1 -1,1 -4,0 -1,1 -6,0 0,1 2,0 5,-1 7,0 0,-1 -2,-3 0,-1 -1,-1 -4,0 -1,1 -9,0 -1,-1 0,-1 -1,-1 0,-4 -1,-1 0,-3 -1,-1 -4,0 -1,-1 -5,0 -1,-1 -7,0 -1,1 -11,0 -1,1 -1,0 0,5 1,1 0,8 1,1 0,7 1,1 0,4 13,0 -11,-1 0,-2 1,-1 3,0 0,-2 1,-1 9,0 1,1 2,0 0,-1 1,-1 3,0 0,-1 -4,0 -1,-1 0,-2 1,-1 4,0 1,-1 6,0 1,1 1,0 1,-1 1,0 28,2 -19,-3 4,0 11,4 5,0 0,-1 -20,-3 19,3Z"/>
</svg>