<svg width="256" height="256" xmlns="http://www.w3.org/2000/svg"><script> 
var tempColor;
function hoverPath(evt){
obj = evt.target;
tempColor = obj.getAttribute("fill");
obj.setAttribute("fill","red");
//alert(tempColor);
//obj.setAttribute("stroke","red");}
function recoverPath(evt){
obj = evt.target;
obj.setAttribute("fill", tempColor);
//obj.setAttribute("stroke", tempColor);
}</script><path onmouseover="hoverPath(evt)" onmouseout="recoverPath(evt)" fill="rgb(243,241,229)" d="M  1,52l 0,-3 1,-1 0,-3 -1,-1 0,-4 -1,0 0,11 1,1 -1,2 0,21 1,0 1,-1 4,0 0,-1 -1,-1 0,-2 -1,-1 0,-5 -1,-1 0,-4 -1,-1 0,-4 -2,0 1,-2Z"/>
<path onmouseover="hoverPath(evt)" onmouseout="recoverPath(evt)" fill="rgb(244,243,236)" d="M  42,188l 0,1 1,1 0,4 1,1 0,5 1,1 0,4 1,1 0,4 1,1 0,4 1,1 0,4 1,1 0,4 1,1 0,4 1,1 0,4 1,1 0,4 1,1 0,4 1,1 0,4 1,1 0,4 59,0 0,-1 -1,-1 -1,0 -1,-1 0,-1 -1,-1 0,-1 -1,-1 0,-2 -1,-1 0,-10 1,-1 0,-8 1,-1 0,-9 -1,-1 0,-2 -1,-1 0,-1 -1,-1 0,-1 -1,-1 0,-1 -1,-1 0,-1 -1,-1 0,-1 -1,-1 0,-1 -1,-1 -1,-1 -1,-1 -1,-1 0,-1 -1,-1 -1,-1 -2,-2 -1,-1 -1,-1 -1,-1 -1,-1 0,-1 -1,-1 -1,-1 0,-1 -1,-1 0,-6 1,-1 -3,0 -1,1 -4,0 -1,1 -2,0 -1,1 -5,0 -1,1 -4,0 -1,1 -3,0 -1,1 -4,0 -1,1 -4,0 -1,1 -3,0 -1,1 -3,0 -1,1 -2,0Z"/>
<path onmouseover="hoverPath(evt)" onmouseout="recoverPath(evt)" fill="rgb(244,243,236)" d="M  96,176l 0,2 -1,1 0,2 1,1 0,1 1,1 1,1 1,1 1,0 1,1 0,1 1,1 1,1 1,1 0,1 1,1 1,1 1,1 0,1 1,1 1,1 0,1 1,1 0,2 1,1 1,1 0,1 1,1 0,1 1,1 0,2 1,1 0,1 1,1 0,2 1,1 0,8 -1,1 0,6 -1,1 0,11 1,1 0,1 1,0 1,-1 1,0 1,-1 2,0 1,-1 1,-1 1,0 1,-1 2,0 1,-1 1,-1 2,0 1,-1 1,0 1,-1 2,0 1,-1 1,0 1,-1 1,0 1,-1 3,0 1,-1 1,0 1,-1 2,0 2,-2 2,0 1,-1 3,0 1,-1 1,0 1,-1 2,0 1,-1 2,0 1,-1 3,0 1,-1 1,0 1,-1 3,0 1,-1 2,0 1,-1 1,0 1,-1 1,0 1,-1 2,0 1,-1 1,0 0,-1 1,-1 2,0 0,-1 2,-2 1,0 1,-1 1,0 1,-1 1,0 1,-1 1,0 1,-1 4,0 1,-1 1,0 0,-3 -1,-1 0,-3 -1,-1 0,-3 -1,-1 0,-2 -1,-1 0,-2 -1,-1 0,-3 -1,-1 0,-3 -1,-1 0,-3 -1,-1 0,-3 -1,-1 0,-2 -1,-1 0,-6 1,-1 1,-1 5,0 1,-1 3,0 1,-1 0,-4 1,-1 1,-1 1,-1 4,0 1,-1 5,0 1,-1 5,0 1,-1 5,0 1,-1 6,0 1,-1 5,0 1,-1 2,0 1,-1 0,-3 -1,-1 0,-4 -1,-1 0,-7 1,-1 5,0 0,-88 -2,0 -1,1 -2,0 -1,1 -2,0 -1,1 -2,0 -1,1 -2,0 -1,1 -2,0 -1,1 -2,0 -1,1 -3,0 -1,1 -2,0 -1,1 -2,0 -1,1 -3,0 -1,1 -2,0 -1,1 -3,0 -1,1 -3,0 -1,1 -3,0 -1,1 -3,0 -1,1 -3,0 -1,1 -3,0 -1,1 -3,0 -1,1 -2,0 -1,1 -5,0 -1,1 -3,0 -1,1 -3,0 -1,1 -4,0 -1,1 -4,0 -1,1 -3,0 -1,1 -5,0 -1,1 -5,0 -1,1 -6,0 -1,1 -6,0 -1,1 -6,0 -1,1 -6,0 -1,1 -8,0 -1,1 -8,0 -1,1 -7,0 -1,1 -5,0 -1,1 -7,0 -1,1 -5,0 -1,1 -7,0 -1,1 -3,0 1,1 0,1 1,1 0,3 1,0 1,1 1,0 1,1 1,0 1,1 1,0 1,1 1,1 1,1 1,0 1,1 1,1 1,1 0,1 1,1 1,1 0,2 1,1 0,9 1,1 0,4 1,1 0,3 1,1 0,3 1,1 0,3 1,1 0,5 1,1 0,4 1,1 0,2 1,1 0,2 1,1 0,2 1,1 0,2 1,1 0,1 1,1 0,2 1,1 0,2 1,1 0,1 1,1 0,1 1,1 0,1 1,1 0,3 4,0 1,-1 4,0 1,-1 3,0 1,-1 5,0 1,-1 4,0 1,-1 5,0 1,1 1,1 1,1 1,1 0,2 1,1 0,2 1,1 0,4 1,1 0,4 1,1 0,3 1,1 0,3 1,1 0,1 1,1 0,2 5,0 1,1 0,2 -1,1 -2,0 -1,1 1,1 0,2 1,1 0,1 1,1 0,2 1,1 0,1 1,1 0,4 -1,1 -3,0 -1,-1 0,-1 -1,-1 0,-2 -1,-1 0,-1 -1,-1 0,-2 -1,-1 0,-1 -1,-1 0,-1 -1,-1 0,-2 -1,-1 0,-2 -1,-1 0,-1 -1,-1 0,-4 -1,-1 0,-3 -1,-1 0,-4 -1,-1 0,-4 -1,-1 0,-2 -1,-1 0,-1 -1,-1 -6,0 -1,1 -4,0 -1,1 -4,0 -1,1 -3,0 -1,1 -4,0 -1,1 -3,0Z"/>
<path onmouseover="hoverPath(evt)" onmouseout="recoverPath(evt)" fill="rgb(244,243,236)" d="M  205,168l 0,3 1,1 0,2 1,1 0,4 1,1 0,3 1,1 0,3 1,1 0,3 1,1 0,4 1,1 0,4 1,1 0,6 1,1 0,1 2,0 1,-1 4,0 1,-1 3,0 1,-1 6,0 1,-1 0,-2 1,-1 0,-1 1,-1 0,-6 1,-1 0,-3 1,-1 0,-1 1,-1 0,-1 1,-1 1,0 1,-1 1,0 1,-1 1,-1 1,0 1,-1 9,0 0,-30 -4,0 -1,1 -5,0 -1,1 -5,0 -1,1 -5,0 -1,1 -5,0 -1,1 -4,0 -1,1 -4,0 -1,1 0,6 -1,1 -3,0 -1,1 -5,0 -1,1Z"/>
<path onmouseover="hoverPath(evt)" onmouseout="recoverPath(evt)" fill="rgb(244,243,236)" d="M  1,89l -1,0 0,18 3,0 1,-1 2,0 1,-1 4,0 0,-2 1,-1 0,-2 -1,-1 0,-3 -1,-1 0,-4 -1,-1 0,-2 -3,0 -1,1Z"/>
<path onmouseover="hoverPath(evt)" onmouseout="recoverPath(evt)" fill="rgb(244,243,235)" d="M  1,112l -1,0 0,79 1,0 1,-1 3,0 1,-1 2,0 1,-1 3,0 1,-1 3,0 1,-1 3,0 1,-1 3,0 1,-1 3,0 0,-6 -1,-1 0,-4 -1,-1 0,-4 -1,-1 0,-4 -1,-1 0,-3 -1,-1 0,-4 -1,-1 0,-3 -1,-1 0,-4 -1,-1 0,-5 -1,-1 0,-4 -1,-1 0,-3 -3,0 -1,-1 0,-4 -1,-1 0,-1 -1,1 -3,0 -1,-1 0,-2 1,-1 0,-4 -5,0 -1,-1 0,-3Z"/>
<path onmouseover="hoverPath(evt)" onmouseout="recoverPath(evt)" fill="rgb(244,243,236)" d="M  3,1l 0,4 1,1 0,3 1,1 0,4 1,1 0,3 1,1 0,4 1,1 0,4 1,1 0,3 1,1 0,4 1,1 0,4 1,1 0,3 1,1 0,4 1,1 0,2 2,0 1,1 1,0 1,-1 3,0 1,-1 2,0 1,-1 2,0 1,-1 4,0 1,-1 2,0 1,-1 -1,-1 0,-2 1,-1 3,0 -1,-1 0,-2 -1,-1 0,-1 -1,-1 0,-2 -1,-1 0,-1 -1,-1 0,-2 -1,-1 0,-1 -1,-1 0,-2 -1,-1 0,-1 -1,-1 0,-2 -1,-1 0,-1 -1,-1 0,-2 -1,-1 0,-1 -1,-1 0,-2 -1,-1 0,-1 -1,-1 0,-2 -1,-1 0,-1 -1,-1 0,-2 -1,-1 0,-1 -18,0 -1,1Z"/>
<path onmouseover="hoverPath(evt)" onmouseout="recoverPath(evt)" fill="rgb(247,236,138)" d="M  21,121l -1,0 0,1 1,1 0,5 -1,1 0,3 1,1 0,4 1,1 0,5 1,1 0,4 1,1 0,3 1,1 0,4 1,1 0,3 1,1 0,4 1,1 0,4 1,1 0,4 1,1 0,6 1,0 1,1 0,7 1,1 0,4 1,1 0,4 1,1 0,4 1,1 0,4 1,1 0,4 1,1 0,4 1,1 0,4 1,1 0,5 1,1 0,3 1,1 0,4 1,1 0,4 1,1 0,4 1,1 0,3 8,0 0,-3 -1,-1 0,-4 -1,-1 0,-4 -1,-1 0,-4 -1,-1 0,-4 -1,-1 0,-4 -1,-1 0,-4 -1,-1 0,-4 -1,-1 0,-4 -1,-1 0,-4 -1,-1 0,-4 -1,-1 0,-5 -1,-1 0,-4 -1,-1 0,-4 -1,0 -1,-1 0,-3 1,-1 2,0 -3,-1 0,-4 -1,-1 0,-4 1,-1 -1,0 -1,-1 0,-3 -1,-1 0,-4 -1,-1 0,-3 -1,-1 0,-4 -1,-1 0,-3 -1,-1 0,-4 -1,-1 0,-4 -1,-1 0,-4 -1,-1 0,-4 -1,-1 0,-4 -1,-1 0,-2 -1,1Z"/>
<path onmouseover="hoverPath(evt)" onmouseout="recoverPath(evt)" fill="rgb(170,198,237)" d="M  25,1l 0,2 1,1 0,1 1,1 0,2 1,1 0,1 1,1 0,2 1,1 0,1 1,1 0,2 1,1 0,1 1,1 0,2 1,1 0,1 1,1 0,2 1,1 0,1 1,1 0,2 1,1 0,1 1,1 0,2 1,1 0,1 1,1 0,2 2,0 0,-3 -1,-1 0,-1 -1,-1 0,-3 -1,-1 0,-2 -1,-1 0,-1 -1,-1 0,-1 -1,-1 0,-2 -1,-1 0,-2 -1,-1 0,-1 -1,-1 0,-2 -1,-1 0,-1 -1,-1 0,-2 -1,-1 0,-2 -1,-1 0,-1 -1,-1 0,-2 -1,-1 0,-2 -2,0 -1,1Z"/>
<path onmouseover="hoverPath(evt)" onmouseout="recoverPath(evt)" fill="rgb(244,243,235)" d="M  30,1l 0,0 1,1 0,2 1,1 0,1 1,1 0,2 1,1 0,2 1,1 0,1 1,1 0,2 1,1 0,1 1,1 0,2 1,1 0,2 1,1 0,1 1,1 0,1 1,1 0,2 1,1 0,3 1,1 0,1 1,1 0,3 2,0 1,-1 1,0 1,-1 2,0 1,-1 1,0 1,-1 1,0 1,-1 2,0 1,-1 1,0 1,-1 2,0 1,-1 1,0 1,-1 1,0 1,-1 2,0 1,-1 1,0 1,-1 2,0 1,-1 1,0 1,-1 2,0 1,-1 1,0 1,-1 1,0 1,-1 2,0 1,-1 3,0 1,1 1,-1 1,0 0,-4 1,-1 2,0 1,-1 2,0 0,-1 1,-1 1,0 1,-1 1,0 0,-1 1,-1 1,-1 5,0 1,-1 2,0 0,-7 1,-1 1,0 1,-1 4,0 1,1 1,1 0,1 1,1 0,6 2,0 1,-1 0,0 1,-1 5,0 1,1 0,-2 1,-1 3,0 1,1 0,-2 1,-1 3,0 1,1 0,-2 1,-1 2,0 1,1 1,1 1,1 0,1 -1,-3 0,-1 1,-1 1,-1 2,0 1,1 0,-3 -124,0 -1,1Z"/>
<path onmouseover="hoverPath(evt)" onmouseout="recoverPath(evt)" fill="rgb(238,237,229)" d="M  48,49l 0,1 1,1 0,1 1,1 0,2 1,1 0,2 1,1 0,1 1,1 0,2 1,1 0,3 2,0 1,-1 2,0 0,-1 -2,0 -1,-1 0,-2 1,-1 2,0 0,-3 1,-1 1,-1 8,0 0,-4 1,-1 2,0 1,-1 1,0 0,-5 2,-2 5,0 1,1 0,2 1,1 0,2 -1,1 0,8 1,0 0,-1 1,-1 1,-1 1,0 1,-1 0,-1 3,-3 1,-1 1,-1 0,-1 1,-1 1,-1 0,-1 -1,-1 0,-4 -1,-1 0,-1 -1,-1 0,-4 1,-1 0,-2 -1,1 -2,0 0,2 -1,1 -2,0 -1,-1 -1,0 -1,1 -1,0 -1,1 -2,0 -1,1 -1,0 -1,1 -1,0 -1,1 -2,0 -1,1 -1,0 -1,1 -2,0 -1,1 -1,0 -1,1 -2,0 -1,1 -1,0 -1,1 -1,0 -1,1 -2,0 -1,1 -1,0 -1,1 -2,0 -1,1 -1,0 -1,1 1,1Z"/>
<path onmouseover="hoverPath(evt)" onmouseout="recoverPath(evt)" fill="rgb(170,198,237)" d="M  91,177l -1,1 0,4 1,1 0,1 1,1 1,1 0,1 1,1 1,1 1,1 1,1 1,1 1,1 1,1 1,1 0,1 1,1 1,1 1,1 1,1 0,1 1,1 0,1 1,1 0,1 1,1 0,1 1,1 0,1 1,1 0,1 1,1 0,2 1,1 0,11 -1,1 0,8 -1,1 0,8 1,1 0,2 1,1 0,1 1,1 0,1 1,0 1,1 1,1 0,2 3,0 0,-1 -1,-1 0,0 -1,-1 0,-1 -1,-1 0,-2 1,-1 -2,0 -1,-1 0,-1 -1,-1 0,-13 1,-1 0,-6 1,-1 0,-6 -1,-1 0,-2 -1,-1 0,-1 -1,-1 0,-2 -1,-1 0,-1 -1,-1 0,-1 -1,-1 -1,-1 0,-2 -1,-1 0,-1 -1,-1 -1,-1 0,-1 -1,-1 -1,-1 -1,-1 0,-1 -1,-1 -1,-1 -1,-1 0,-1 -1,0 -1,-1 -1,-1 -1,-1 -1,-1 0,-1 -1,-1 0,-4 1,-1 0,-2 -1,0 -1,1 -1,1Z"/>
<path onmouseover="hoverPath(evt)" onmouseout="recoverPath(evt)" fill="rgb(243,242,236)" d="M  119,248l 0,0 -1,1 1,1 0,1 1,1 1,1 0,2 60,0 0,-2 1,-1 5,0 1,-1 5,0 1,-1 5,0 1,1 9,0 1,1 27,0 1,-1 3,0 1,1 9,0 1,1 0,2 3,0 0,-67 -7,0 -1,1 -1,0 -1,1 -1,0 -1,1 -1,1 0,1 -1,1 0,4 -1,1 0,3 -1,1 0,4 -1,1 0,2 -1,1 -1,1 -8,0 -1,1 -4,0 -1,1 -5,0 -1,1 -5,0 -1,-1 -3,0 -1,-1 -1,1 -3,0 -1,1 -1,0 -1,1 -1,0 -1,1 -1,1 -1,0 -1,1 -1,0 -1,1 -3,0 -1,-1 -1,1 -2,0 -1,1 -1,0 -1,1 -1,0 -1,1 -2,0 -1,1 -3,0 -1,1 -1,0 -1,1 -3,0 -1,1 -2,0 -1,1 -2,0 -1,1 -1,0 -1,1 -3,0 -1,1 -2,0 -1,1 -1,1 -2,0 -1,1 -1,0 -1,1 -3,0 -1,1 -1,0 -1,1 -1,0 -1,1 -2,0 -1,1 -1,0 -1,1 -2,0 -1,1 -1,1 -2,0 -1,1 -1,0 -1,1 -1,1 -2,0 -1,1 -1,0Z"/>
<path onmouseover="hoverPath(evt)" onmouseout="recoverPath(evt)" fill="rgb(244,243,236)" d="M  155,5l -1,0 -1,-1 -1,1 1,1 0,2 1,1 0,2 -1,1 0,1 1,1 0,1 2,0 1,1 0,2 -1,1 0,1 1,1 0,1 1,1 0,2 1,1 0,1 1,1 0,1 1,1 0,1 2,0 1,1 0,2 -1,1 0,1 1,1 0,1 2,0 1,1 0,1 1,1 0,2 -1,1 0,1 1,1 0,1 1,1 0,2 3,0 0,-1 1,-1 3,0 1,-1 3,0 1,-1 3,0 1,-1 3,0 1,-1 3,0 1,-1 3,0 1,-1 3,0 1,-1 3,0 1,-1 3,0 1,-1 2,0 1,-1 3,0 1,-1 3,0 1,-1 2,0 1,-1 2,0 1,-1 3,0 1,-1 2,0 1,-1 2,0 1,-1 2,0 1,-1 3,0 1,-1 2,0 1,-1 2,0 1,-1 2,0 1,-1 3,0 0,-26 -98,0 0,4 -1,1Z"/>
<path onmouseover="hoverPath(evt)" onmouseout="recoverPath(evt)" fill="rgb(247,246,240)" d="M  202,253l -3,0 -1,-1 -3,0 -1,1 -5,0 -1,1 -5,0 0,1 67,0 0,-1 -9,0 -1,-1 -1,0 -1,1 -29,0 -1,-1Z"/>
<path onmouseover="hoverPath(evt)" onmouseout="recoverPath(evt)" fill="rgb(244,244,236)" d="M  0,198l 0,57 43,0 0,-2 -1,-1 0,-4 -1,-1 0,-4 -1,-1 0,-4 -1,-1 0,-3 -1,-1 0,-5 -1,-1 0,-4 -1,-1 0,-4 -1,-1 0,-4 -1,-1 0,-4 -1,-1 0,-4 -1,-1 0,-4 -1,-1 0,-4 -1,-1 0,-7 -1,1 -3,0 -1,1 -3,0 -1,1 -3,0 -1,1 -3,0 -1,1 -3,0 -1,1 -2,0 -1,1 -3,0 -1,1 -2,0Z"/>
<path onmouseover="hoverPath(evt)" onmouseout="recoverPath(evt)" fill="rgb(253,253,253)" d="M  15,58l -1,0 0,2 1,-1 1,0 1,-1 3,0 1,-1 2,0 1,-1 2,0 1,-1 2,0 1,-1 5,0 1,-1 2,0 1,-1 1,-1 0,-1 1,-1 1,0 1,-1 1,-1 1,0 1,-1 1,-1 1,0 1,-1 2,0 1,-1 1,0 1,-1 2,0 1,-1 1,0 1,-1 1,0 1,-1 2,0 1,-1 1,0 1,-1 2,0 1,-1 1,0 1,-1 2,0 1,-1 1,0 1,-1 1,0 1,-1 2,0 1,-1 1,0 1,-1 3,0 1,1 0,-2 1,-1 2,0 1,-1 1,0 -1,-1 -1,0 -1,1 -2,0 -1,1 -1,0 -1,1 -1,0 -1,1 -2,0 -1,1 -1,0 -1,1 -2,0 -1,1 -1,0 -1,1 -2,0 -1,1 -1,0 -1,1 -1,0 -1,1 -2,0 -1,1 -1,0 -1,1 -2,0 -1,1 -1,0 -1,1 -1,0 -1,1 -2,0 -1,1 -1,0 -1,1 -3,0 -1,1 -2,0 0,1 -1,1 -3,0 1,1 0,2 -1,1 -1,1 -2,0 -1,1 -4,0 -1,1 -2,0 -1,1 -2,0 -1,1 -3,0 -1,1 -2,0 -1,1Z"/>
<path onmouseover="hoverPath(evt)" onmouseout="recoverPath(evt)" fill="rgb(248,232,126)" d="M  65,69l 0,0 -1,1 0,1 1,1 0,5 6,0 1,-1 5,0 1,-1 7,0 1,-1 5,0 1,-1 7,0 1,-1 8,0 1,-1 8,0 1,-1 6,0 1,-1 6,0 1,-1 6,0 1,-1 6,0 1,-1 5,0 1,-1 5,0 1,-1 3,0 1,-1 4,0 1,-1 4,0 1,-1 3,0 1,-1 3,0 1,-1 5,0 1,-1 2,0 1,-1 3,0 1,-1 3,0 1,-1 3,0 1,-1 3,0 1,-1 3,0 1,-1 3,0 1,-1 3,0 1,-1 2,0 1,-1 3,0 1,-1 2,0 1,-1 2,0 1,-1 3,0 1,-1 2,0 1,-1 2,0 1,-1 2,0 1,-1 2,0 1,-1 2,0 1,-1 2,0 1,-1 3,0 0,-11 -2,0 -1,1 -2,0 -1,1 -2,0 -1,1 -2,0 -1,1 -3,0 -1,1 -2,0 -1,1 -2,0 -1,1 -2,0 -1,1 -3,0 -1,1 -2,0 -1,1 -2,0 -1,1 -3,0 -1,1 -3,0 -1,1 -2,0 -1,1 -3,0 -1,1 -3,0 -1,1 -3,0 -1,1 -3,0 -1,1 -3,0 -1,1 -3,0 -1,1 -3,0 -1,1 -3,0 -1,1 -3,0 0,1 -1,1 -9,0 -1,1 -4,0 -1,1 -5,0 -1,1 -3,0 -1,1 -4,0 -1,1 -6,0 -1,1 -6,0 -1,1 -6,0 -1,1 -6,0 -1,1 -6,0 -1,1 -8,0 -1,1 -7,0 -1,1 -6,0 -1,1 -6,0 -1,1 -5,0 0,2 -1,1Z"/>
<path onmouseover="hoverPath(evt)" onmouseout="recoverPath(evt)" fill="rgb(240,239,231)" d="M  69,58l -7,0 -1,1 0,3 -1,1 -2,0 3,1 0,2 1,0 1,-1 7,0 1,-1 5,0 1,-1 6,0 1,-1 6,0 1,-1 7,0 1,-1 8,0 1,-1 6,0 1,-1 6,0 1,-1 6,0 1,-1 6,0 1,-1 6,0 1,-1 4,0 1,-1 3,0 1,-1 5,0 1,-1 4,0 1,-1 4,0 0,-1 -1,-1 0,-1 -1,-1 0,-2 -1,-1 0,-2 1,-1 -2,0 -1,-1 0,-1 -1,-1 0,-2 -1,-1 0,-1 -1,-1 0,-1 -1,-1 0,-1 -1,-1 0,-1 -1,-1 0,-2 -1,-1 0,-1 -1,-1 0,-3 1,-1 -2,0 -1,-1 0,-1 -1,-1 0,-2 -1,-1 0,-1 -1,-1 0,-1 -1,-1 -1,-1 0,2 -1,1 -2,0 -1,-1 -1,0 0,2 -1,1 -2,0 -1,-1 -1,0 0,2 -1,1 -2,0 -1,-1 -3,0 -1,1 0,0 -1,1 -4,0 -1,-1 0,-6 -1,-1 0,-1 -1,-1 -2,0 -1,1 -1,0 0,7 -1,1 -2,0 -1,1 -5,0 -1,1 0,1 -1,1 -1,0 -1,1 -1,0 0,1 -1,1 -2,0 -1,1 -2,0 0,4 -1,1 -1,0 -1,1 0,5 -1,1 0,2 1,1 0,1 1,1 0,4 1,1 0,3 -1,1 -1,1 0,1 -1,1 -2,2 -1,1 -1,1 0,1 -1,1 -1,1 -1,0 -1,1 0,1 -1,1 -3,0 -1,-1 0,-10 1,-1 -1,-1 0,-2 -3,0 -1,1 0,5 -1,1 -1,0 -1,1 -2,0 0,4 -1,1Z"/>
<path onmouseover="hoverPath(evt)" onmouseout="recoverPath(evt)" fill="rgb(243,232,141)" d="M  0,79l 0,8 4,0 1,-1 5,0 1,1 0,2 1,1 0,4 1,1 0,3 1,1 0,4 -1,1 0,1 3,0 1,1 0,2 1,1 0,3 1,1 0,2 2,0 1,-1 3,0 -2,-1 0,0 -1,-1 0,-6 -1,-1 0,-2 -1,-1 0,-4 1,-1 0,-3 -1,-1 0,-3 -1,-1 0,-4 1,-1 5,0 1,-1 5,0 1,-1 6,0 1,-1 5,0 1,-1 5,0 1,-1 4,0 1,1 1,1 0,2 1,1 0,2 1,1 0,1 1,0 0,-1 1,-1 0,-2 -1,-1 0,-1 -1,-1 0,-2 1,-1 3,0 0,-5 -1,-1 0,-3 1,-1 1,-1 6,0 -8,1 -4,0 -1,1 -4,0 -1,-1 0,-3 -1,-1 0,-2 -1,-1 0,-1 -1,-1 0,-2 -1,-1 0,-2 -1,-1 0,-1 -1,-1 0,-1 -1,-1 -1,1 0,0 1,1 0,2 1,1 0,1 1,1 0,2 1,1 0,1 1,1 0,2 1,1 0,1 1,1 0,3 -1,1 -5,0 -1,1 -5,0 -1,1 -5,0 -1,1 -3,0 -1,-1 0,-1 -1,-1 -11,0 -1,-1 0,-3 -1,-1 0,-3 -1,0 -1,-1 0,-4 1,-1 2,0 -3,-1 0,-2 -1,-1 0,-4 -1,-1 0,-3 -1,-1 0,-4 -1,-1 0,-4 -1,-1 0,-3 -1,-1 0,-4 -1,-1 0,-4 -1,-1 0,-3 -1,-1 0,-4 -1,-1 0,-3 -1,-1 0,-6 -1,0 0,38 2,0 1,1 0,4 1,1 0,5 -1,1 0,2 1,1 0,4 1,1 0,4 1,1 0,5 1,1 0,2 1,1 0,3 -1,1 -4,0 -1,1 -2,0Z"/>
<path onmouseover="hoverPath(evt)" onmouseout="recoverPath(evt)" fill="rgb(219,219,197)" d="M  11,115l 0,6 -1,1 1,0 1,-1 2,0 1,1 0,1 1,1 0,4 2,0 1,-1 0,-3 -1,-1 0,-3 1,-1 5,0 1,-1 1,0 -1,-1 0,-1 -2,0 -1,1 -4,0 -1,-1 0,-2 -1,-1 0,-3 -1,-1 0,-2 -7,0 -1,1 -2,0 -1,1 -4,0 0,1 4,0 1,1 0,3 5,0 1,1Z"/>
<path onmouseover="hoverPath(evt)" onmouseout="recoverPath(evt)" fill="rgb(242,241,232)" d="M  16,63l 0,1 1,1 0,3 11,0 1,1 1,1 0,1 1,0 1,-1 5,0 1,-1 5,0 1,-1 5,0 0,-1 -1,-1 0,-1 -1,-1 0,-2 -1,-1 0,-1 -1,-1 0,-2 -1,-1 0,-1 -1,-1 0,-2 -1,-1 0,1 -1,1 -1,1 -1,1 -2,0 -1,1 -5,0 -1,1 -2,0 -1,1 -2,0 -1,1 -2,0 -1,1 -3,0 -1,1 -1,0Z"/>
<path onmouseover="hoverPath(evt)" onmouseout="recoverPath(evt)" fill="rgb(241,240,233)" d="M  27,115l 0,1 1,1 0,4 1,1 0,4 1,1 0,4 1,1 0,4 1,1 0,4 1,1 0,4 1,1 0,3 1,1 0,4 1,1 0,3 1,1 0,4 1,1 0,3 1,0 1,1 0,2 -1,1 0,2 1,1 0,4 2,0 1,1 3,0 1,-1 3,0 1,-1 4,0 1,-1 4,0 1,-1 3,0 1,-1 3,0 1,-1 2,0 0,-3 1,-1 2,0 1,1 0,2 3,0 1,-1 3,0 1,-1 4,0 1,-1 2,0 0,-3 -1,-1 0,-2 -1,-1 0,-2 -1,-1 0,-2 -1,-1 0,-1 -1,-1 0,-2 -1,-1 0,-2 -1,-1 0,-1 -1,-1 0,-1 -1,-1 0,-3 -1,-1 0,-3 -1,-1 0,-4 -1,-1 0,-4 -1,-1 0,-3 -1,-1 0,-2 -1,-1 0,-3 -1,-1 0,-4 1,-1 0,-2 -1,-1 0,-4 -1,-1 0,-2 -1,-1 -1,-1 0,-1 -1,-1 -1,-1 -1,-1 -1,-1 -2,0 -1,1 -1,0 -1,1 -1,1 -1,1 -3,0 -1,-1 0,-2 1,-1 1,-1 1,-1 1,0 0,-2 -2,0 -1,-1 0,-1 -1,-1 0,-2 -1,-1 0,-2 -1,-1 -2,0 -1,1 -5,0 -1,1 -5,0 -1,1 -6,0 -1,1 -5,0 -1,1 -5,0 0,2 1,1 0,3 1,1 0,5 -1,1 0,2 1,1 0,2 1,1 0,6 1,1 1,0 1,1Z"/>
<path onmouseover="hoverPath(evt)" onmouseout="recoverPath(evt)" fill="rgb(254,254,254)" d="M  41,183l -1,0 0,1 3,0 1,-1 3,0 1,-1 3,0 1,-1 4,0 1,-1 4,0 1,-1 3,0 1,-1 4,0 1,-1 5,0 1,-1 2,0 1,-1 4,0 1,-1 6,0 1,-1 2,0 1,-1 3,0 1,-1 4,0 1,-1 3,0 1,-1 4,0 1,-1 4,0 1,-1 8,0 1,1 1,1 0,1 1,1 0,2 1,1 0,4 1,1 0,4 1,1 0,3 1,1 0,4 1,1 0,1 1,1 0,2 1,1 0,2 1,1 0,1 1,1 0,1 1,1 0,2 1,1 0,1 1,1 0,2 1,1 0,1 1,0 0,-2 -1,-1 0,-1 -1,-1 0,-2 -1,-1 0,-1 -1,-1 0,-2 -1,-1 0,-2 1,-1 1,-1 -3,0 -1,-1 0,-2 -1,-1 0,-1 -1,-1 0,-3 -1,-1 0,-3 -1,-1 0,-4 -1,-1 0,-4 -1,-1 0,-2 -1,-1 0,-2 -1,-1 -1,-1 -1,-1 -3,0 -1,1 -4,0 -1,1 -5,0 -1,1 -3,0 -1,1 -4,0 -1,1 -6,0 -1,1 -3,0 -1,1 -2,0 -1,1 -4,0 -1,1 -3,0 -1,1 -5,0 -1,-1 0,1 -1,1 -2,0 -1,1 -3,0 -1,1 -3,0 -1,1 -4,0 -1,1 -4,0 -1,1 -3,0 -1,1 -4,0 -1,1Z"/>
<path onmouseover="hoverPath(evt)" onmouseout="recoverPath(evt)" fill="rgb(170,198,237)" d="M  68,91l 0,0 -1,-1 -1,0 -1,-1 -1,0 -1,-1 -1,0 0,5 -1,1 -1,0 -1,1 -1,1 1,0 1,-1 3,-2 0,0 1,-1 3,0 1,-1 1,0 1,1 -1,1 0,0 1,1 1,1 1,1 1,1 0,1 1,1 1,1 0,2 1,1 0,4 1,1 0,4 -1,1 0,2 1,1 0,3 1,1 0,2 1,1 0,3 1,1 0,4 1,1 0,4 1,1 0,3 1,1 0,3 1,1 0,1 1,1 0,1 1,1 0,2 1,1 0,2 1,1 0,1 1,1 0,2 1,1 0,2 1,1 0,2 1,1 0,3 2,0 1,-1 0,-2 -1,-1 0,-1 -1,-1 0,-1 -1,-1 0,-1 -1,-1 0,-2 -1,-1 0,-2 -1,-1 0,-1 -1,-1 0,-2 -1,-1 0,-2 -1,-1 0,-2 -1,-1 0,-2 -1,-1 0,-4 -1,-1 0,-5 -1,-1 0,-3 -1,-1 0,-3 -1,-1 0,-3 -1,-1 0,-4 -1,-1 0,-9 -1,-1 0,-2 -1,-1 -1,-1 0,-1 -1,-1 -1,-1 -1,0 -1,-1 -1,0 1,1 -2,-3Z"/>
<path onmouseover="hoverPath(evt)" onmouseout="recoverPath(evt)" fill="rgb(171,198,237)" d="M  238,195l 0,0 -1,1 0,6 -1,1 0,1 -1,1 0,2 -1,1 -1,1 -6,0 -1,1 -3,0 -1,1 -4,0 -1,1 -4,0 -1,-1 0,-1 -1,-1 0,-6 -1,-1 0,-4 -1,-1 0,-4 -1,-1 0,-3 -1,-1 0,-3 -1,-1 0,-3 -1,-1 0,-4 -1,-1 0,-2 -1,-1 0,-6 1,-1 6,0 1,-1 3,0 0,-6 2,-2 4,0 1,-1 4,0 1,-1 5,0 1,-1 5,0 1,-1 5,0 1,-1 5,0 1,-1 5,0 0,-19 -4,0 0,5 1,1 0,4 1,1 0,5 -1,1 -1,1 -2,0 -1,1 -5,0 -1,1 -6,0 -1,1 -5,0 -1,1 -5,0 -1,1 -5,0 -1,1 -4,0 -1,1 -1,1 0,4 -1,1 -1,1 -3,0 -1,1 -5,0 -1,1 0,4 1,1 0,2 1,1 0,3 1,1 0,3 1,1 0,3 1,1 0,3 1,1 0,2 1,1 0,2 1,1 0,3 1,1 0,3 1,1 0,5 -1,1 -1,0 -1,1 -4,0 -1,1 -1,0 -1,1 -1,0 -1,1 -1,0 -1,1 -1,0 -1,1 0,1 -1,1 -2,0 0,1 1,0 2,-1 1,-1 1,0 1,-1 1,-1 1,0 1,-1 1,0 1,-1 3,0 1,-1 2,0 1,1 3,0 1,1 3,0 -3,-1 26,-17 -20,17 3,0 2,-1 3,0 1,-1 8,0 1,-1 0,-2 1,-1 0,-3 -19,9 20,-17 1,2 -1,-4 1,0 1,-1 0,-1 1,-1 2,-2 1,0 1,-1 1,0 1,-1 8,0 0,-2 -8,0 -1,1 -1,0 -1,1 -1,1 -1,0 -1,1 -1,0 0,1 -1,1 0,1 -1,1 1,0 1,-2 2,-2 2,-1 -5,10 -1,-2Z"/>
</svg>