<svg width="256" height="256" xmlns="http://www.w3.org/2000/svg"><script> 
var tempColor;
function hoverPath(evt){
obj = evt.target;
tempColor = obj.getAttribute("fill");
obj.setAttribute("fill","red");
//alert(tempColor);
//obj.setAttribute("stroke","red");}
function recoverPath(evt){
obj = evt.target;
obj.setAttribute("fill", tempColor);
//obj.setAttribute("stroke", tempColor);
}</script><path onmouseover="hoverPath(evt)" onmouseout="recoverPath(evt)" fill="rgb(243,241,232)" d="M  0,44l 0,37 3,0 1,1 2,0 1,1 3,0 1,1 0,-2 1,-1 0,-4 1,-1 0,-5 1,-1 0,-4 1,-1 0,-5 1,-1 0,-6 1,-1 0,-5 1,-1 0,-1 -1,-1 -3,0 -1,-1 -4,0 -1,-1 0,-2 -5,0 -1,-1 -2,0Z"/>
<path onmouseover="hoverPath(evt)" onmouseout="recoverPath(evt)" fill="rgb(244,243,236)" d="M  0,148l 0,107 107,0 0,-2 1,-1 0,-4 1,-1 0,-2 1,-1 0,-1 1,-1 0,-3 1,-1 0,-2 1,-1 0,-3 1,-1 0,-1 1,-1 0,-1 1,-1 0,-1 1,-1 0,-1 1,-1 0,-2 1,-1 0,-1 1,-1 0,-1 1,-1 0,-1 1,-1 0,-1 1,-1 0,-1 1,-1 0,-1 1,-1 0,-1 1,-1 0,-2 1,-1 0,-1 1,-1 0,-1 1,-1 0,-2 1,-1 0,-2 1,-1 0,-2 1,-1 0,-2 1,-1 0,-3 1,-1 0,-3 1,-1 0,-3 1,-1 0,-3 1,-1 0,-4 1,-1 0,-3 1,-1 0,-5 -1,-1 0,-17 1,-1 -1,0 -1,-1 -2,0 0,1 -1,1 -2,0 0,2 -1,1 0,3 -1,1 0,1 1,1 0,3 -1,1 -2,0 0,1 1,1 0,5 -1,1 0,3 -1,1 0,2 -1,1 0,4 -1,1 -1,1 -5,0 -1,-1 -3,0 -1,-1 -3,0 -1,-1 -4,0 -1,-1 -3,0 -1,-1 -4,0 -1,-1 -3,0 -1,-1 -4,0 -1,-1 -4,0 -1,-1 -3,0 -1,-1 -4,0 -1,-1 -3,0 -1,-1 -3,0 -1,-1 -3,0 -1,-1 -4,0 -1,-1 -3,0 -1,-1 -4,0 -1,-1 -4,0 -1,-1 -3,0 -1,-1 -3,0 -1,-1 -4,0 -1,-1 -3,0 -1,-1 -4,0 -1,-1 -4,0 -1,-1 -3,0 -1,-1 -4,0 -1,-1 -3,0 -1,-1 -2,0Z"/>
<path onmouseover="hoverPath(evt)" onmouseout="recoverPath(evt)" fill="rgb(244,242,232)" d="M  168,176l 0,0 -1,1 -1,0 0,1 -1,1 -2,2 -2,0 0,3 -1,1 -1,1 0,1 -1,1 -1,0 0,1 -1,1 -1,0 0,2 -1,1 -1,1 -1,1 0,1 -1,1 -1,1 -2,0 -1,-1 -1,-1 -1,1 0,1 -1,1 0,1 -1,1 0,2 -1,1 -1,0 0,1 -1,1 -1,1 0,3 -1,1 -1,0 0,1 -1,1 0,1 -1,1 0,1 -1,1 -1,1 0,1 -1,1 0,1 -1,1 0,1 -1,1 -1,1 0,1 -1,1 0,2 -1,1 -3,0 0,1 -1,1 0,1 -1,1 0,1 -1,1 0,2 -1,1 0,1 -1,1 0,1 2,0 1,1 1,1 0,2 -1,1 0,1 -1,1 0,2 -1,1 0,3 3,0 0,-2 1,-1 0,-1 1,-1 1,-1 2,0 1,-1 0,-1 2,-2 1,-1 2,0 1,-1 0,-1 1,-1 1,-1 1,0 1,-1 1,0 1,-1 0,-1 1,-1 1,-1 1,0 1,-1 1,0 1,-1 1,-1 0,-1 1,-1 1,-1 1,0 1,-1 1,0 1,-1 0,-1 1,-1 1,0 0,-1 1,-1 2,0 1,-1 0,-1 1,-1 1,-1 1,0 1,-1 1,0 2,-2 1,-1 0,-1 1,-1 1,-1 2,-2 1,0 0,-1 1,-1 2,-2 1,-1 1,0 0,-1 1,-1 2,-2 1,-1 1,-1 1,-1 1,-1 2,-2 1,-1 1,-1 1,0 0,-1 -1,-1 0,-5 -1,-1 0,-2 -1,-1 0,-2 1,-1 0,-1 -1,-1 0,-10 -2,0 -1,1 -3,0 -1,1 -1,0 -1,1 -1,0 -1,1 -1,0 -1,1 -1,0 -2,2 -1,1 -1,0 -1,1Z"/>
<path onmouseover="hoverPath(evt)" onmouseout="recoverPath(evt)" fill="rgb(246,234,137)" d="M  0,85l 0,4 3,0 1,1 2,0 1,1 2,0 1,1 2,0 1,1 2,0 1,1 2,0 1,1 0,-1 1,-1 2,0 0,-3 -1,0 -1,-1 -2,0 -1,-1 -1,-1 0,-2 -1,3 -3,0 -1,-1 -1,0 -1,-1 0,-1 -3,0 -1,-1 -2,0 -1,-1 -2,0Z"/>
<path onmouseover="hoverPath(evt)" onmouseout="recoverPath(evt)" fill="rgb(239,237,227)" d="M  27,116l 0,0 1,-1 0,-2 1,-1 2,0 0,-1 1,-1 0,-5 1,-1 0,-1 1,-1 3,0 1,1 0,-1 -7,0 -1,-1 -1,0 -1,-1 0,-5 -1,0 -1,-1 -1,0 -1,-1 0,1 -1,1 -2,0 0,1 -1,1 -2,0 -1,-1 -2,0 -1,-1 -2,0 -1,-1 -2,0 -1,-1 -2,0 -1,-1 -2,0 -1,-1 -2,0 0,50 5,0 1,1 3,0 1,1 4,0 1,1 3,0 1,1 2,0 1,-1 0,-1 1,-1 0,-3 1,-1 0,-3 1,-1 0,-2 1,-1 0,-3 1,-1 0,-3 1,-1 0,-1 -1,-1Z"/>
<path onmouseover="hoverPath(evt)" onmouseout="recoverPath(evt)" fill="rgb(245,244,237)" d="M  148,141l 0,7 6,0 1,-1 8,0 1,-1 8,0 1,-1 -4,0 -1,-1 -5,0 -1,-1 -4,0 -1,-1 -3,0 -1,-1 -3,0 -1,-1 -1,1Z"/>
<path onmouseover="hoverPath(evt)" onmouseout="recoverPath(evt)" fill="rgb(244,243,236)" d="M  149,157l 0,0 -1,1 0,10 -1,1 0,2 -1,1 0,2 -1,1 0,2 -1,1 0,2 -1,1 0,2 -1,1 0,2 -1,1 0,2 -1,1 0,2 -1,1 0,2 -1,1 0,2 -1,1 0,2 -1,1 0,2 -1,1 0,1 -1,1 0,2 -1,1 0,2 -1,1 0,1 -1,1 0,1 -1,1 0,1 -1,1 0,1 -1,1 0,1 -1,1 0,1 -1,1 0,1 -1,1 0,1 1,0 0,-1 1,-2 1,-2 1,-1 0,-1 1,-1 0,-1 1,-1 0,-1 1,-1 1,-1 0,-1 1,-1 0,-1 1,-1 0,-1 1,-1 1,0 0,-3 1,-1 1,-1 0,-1 1,-1 1,0 0,-2 1,-1 0,-1 1,-1 0,-1 1,-1 1,-1 0,-1 1,-1 1,-1 1,-1 0,-1 1,-1 1,-1 1,-1 1,-1 1,0 0,-2 1,-1 1,-1 1,-1 1,0 0,-2 1,-1 1,-1 0,-1 1,-1 1,-1 1,0 0,-2 1,-1 1,-1 1,-1 1,0 0,-1 1,-1 0,-1 1,-1 1,-1 1,-1 1,-1 1,0 0,-2 1,-1 1,-1 1,-1 0,-1 1,-1 1,-1 0,-1 -1,0 -1,1 -10,0 -1,1 -7,0 -1,1 -4,0 -1,1 -1,0 -1,1Z"/>
<path onmouseover="hoverPath(evt)" onmouseout="recoverPath(evt)" fill="rgb(244,243,236)" d="M  152,253l -2,0 -1,1 0,1 92,0 0,-1 -1,-1 0,-1 -1,-1 0,-1 -1,-1 0,-2 -1,0 -1,-1 -1,-1 0,-2 -1,-1 -1,-1 -1,-1 -1,-1 -2,0 -1,-1 -1,-1 -1,-1 0,-1 -2,0 -1,-1 0,-1 -2,0 -1,-1 0,-1 -2,0 -1,-1 0,-1 -2,0 -1,-1 0,-2 -1,0 -1,1 -4,0 -1,-1 -3,0 -1,-1 -1,1 -3,0 -1,-1 -1,0 -1,1 -3,0 -1,1 -2,0 -1,1 -2,0 -1,1 -2,0 -1,1 -1,0 0,1 -1,1 -2,0 0,1 -1,1 -2,0 0,1 -1,1 -2,0 -1,1 0,1 -1,1 -2,0 -1,1 0,1 -1,1 -2,0 -1,1 0,1 -1,1 -2,0 -1,1 0,1 -1,1 -2,0 -1,1 0,1 -1,1 -2,0 0,1 -1,1Z"/>
<path onmouseover="hoverPath(evt)" onmouseout="recoverPath(evt)" fill="rgb(171,198,238)" d="M  177,21l -2,2 0,1 -3,3 0,1 -3,3 0,1 -1,1 -1,1 0,1 -1,1 0,2 -1,1 0,1 -1,1 0,1 -1,1 0,1 -1,1 0,1 -1,1 0,1 -1,1 0,1 -1,1 0,1 -1,1 0,1 -1,1 0,2 -1,1 0,2 -1,1 0,2 -1,1 0,3 -1,1 0,3 -1,1 0,3 -1,1 0,4 -1,1 0,5 -1,1 0,4 -1,1 0,4 -1,1 0,5 -1,1 0,4 -1,1 0,5 -1,1 0,5 -1,1 0,4 -1,1 0,5 2,0 1,1 1,0 1,-1 0,-3 1,-1 0,-10 1,-1 0,-5 1,-1 0,-4 1,-1 0,-5 1,-1 0,-5 1,-1 0,-5 1,-1 0,-3 1,-1 0,-3 1,-1 0,-3 1,-1 0,-2 1,-1 0,-2 1,-1 0,-2 1,-1 0,-1 1,-1 0,-2 1,-1 0,-3 1,-1 0,-1 1,-1 0,-1 1,-1 0,-1 1,-1 0,-1 1,-1 1,-1 0,-1 1,-1 0,-1 1,-1 0,-1 1,-1 1,-1 0,-1 1,-1 0,-1 1,-1 1,-1 0,-1 1,-1 1,-1 0,-1 1,-1 1,-1 0,-1 1,-1 0,-5 -1,-1 0,-2 -1,0 -1,1Z"/>
<path onmouseover="hoverPath(evt)" onmouseout="recoverPath(evt)" fill="rgb(244,243,237)" d="M  200,13l 0,0 1,1 0,4 1,1 0,1 1,1 0,5 1,1 1,1 0,2 1,1 0,3 1,1 0,2 1,1 0,3 1,1 0,2 1,1 0,5 1,1 1,1 0,2 1,1 0,2 1,1 0,2 1,1 1,1 0,2 1,0 1,1 1,1 0,2 1,1 1,0 1,1 0,2 1,0 1,1 1,1 1,1 1,1 1,1 1,1 0,1 2,0 1,1 0,1 2,0 1,1 0,1 3,0 1,1 2,0 1,1 5,0 1,1 5,0 1,1 1,0 0,-70 -8,0 -1,-1 -9,0 -1,-1 -8,0 -1,-1 -9,0 -1,-1 -8,0 -1,-1 -7,0 -1,1Z"/>
<path onmouseover="hoverPath(evt)" onmouseout="recoverPath(evt)" fill="rgb(243,242,235)" d="M  207,0l -1,0 0,2 -1,1 -1,1 -1,1 -1,1 1,0 1,1 4,0 1,1 6,0 1,1 7,0 1,1 6,0 1,1 8,0 1,1 7,0 1,1 0,2 7,0 0,-15Z"/>
<path onmouseover="hoverPath(evt)" onmouseout="recoverPath(evt)" fill="rgb(244,242,236)" d="M  208,125l 0,1 -1,1 -1,1 0,1 -1,1 0,1 -1,1 0,1 -1,1 -1,1 0,3 1,0 1,-1 4,0 1,-1 4,0 -1,-1 0,-3 -1,-1 0,-4 -1,-1 0,-3 1,-1 -1,0 -1,1 0,0 -1,1Z"/>
<path onmouseover="hoverPath(evt)" onmouseout="recoverPath(evt)" fill="rgb(241,236,206)" d="M  222,189l -1,0 -1,1 -1,1 -1,1 -1,0 -1,1 -1,1 -1,1 0,1 -1,1 -1,1 -1,1 -1,0 0,1 3,0 1,-1 1,-1 0,-3 1,-1 1,-1 5,-4 1,1 -2,2 0,0 1,1 4,0 1,1 0,6 1,1 0,3 -1,1 0,1 -1,1 -2,2 -1,1 -6,0 -1,-1 -3,0 -1,-1 -1,0 1,1 2,1 1,0 1,1 2,0 1,1 1,0 1,-1 4,0 1,-1 2,0 0,-1 1,-1 0,-1 1,-1 0,-1 1,-1 0,-1 1,-1 0,-1 -1,-1 0,-12 -3,3 -1,1 -2,0 -1,-1 -1,-1 -1,-1Z"/>
<path onmouseover="hoverPath(evt)" onmouseout="recoverPath(evt)" fill="rgb(243,242,234)" d="M  0,10l 0,27 3,0 1,1 5,0 1,1 6,0 1,1 1,-1 1,0 0,-4 1,-1 0,-5 1,-1 0,-4 1,-1 0,-5 1,-1 0,-5 1,-1 0,-5 1,-1 0,-5 -25,0Z"/>
<path onmouseover="hoverPath(evt)" onmouseout="recoverPath(evt)" fill="rgb(244,243,234)" d="M  39,105l -2,0 -1,-1 -1,0 0,1 -1,1 0,5 -1,1 0,1 -1,1 -2,0 0,2 -1,1 0,3 1,-3 1,-1 2,0 1,1 0,5 -1,1 0,3 -1,1 0,2 -1,1 0,3 -1,1 0,3 -1,1 0,2 -1,1 0,3 -1,1 0,1 1,0 1,1 3,0 1,1 4,0 1,1 3,0 1,1 3,0 1,1 3,0 1,1 4,0 1,1 3,0 1,1 4,0 1,1 3,0 1,1 4,0 1,1 4,0 1,1 3,0 1,1 3,0 1,1 3,0 1,1 4,0 1,1 3,0 1,1 4,0 1,1 3,0 1,1 4,0 1,1 3,0 1,1 5,0 0,-1 1,-1 2,0 0,-2 1,-1 0,-3 1,-1 0,-3 -1,-1 0,-3 1,-1 2,0 0,-1 -1,-1 0,-3 1,-1 0,-3 1,-1 0,-2 1,-1 0,-1 -1,0 -1,-1 -4,0 -1,-1 -3,0 -1,-1 -3,0 -1,-1 -2,0 -1,-1 -2,0 -1,-1 -2,0 -1,-1 -2,0 -1,-1 -1,0 -1,-1 -2,0 -1,-1 -2,0 -1,-1 -1,0 -1,-1 -2,0 -1,-1 -2,0 -1,-1 -1,0 -1,-1 -2,0 -1,-1 -2,0 -1,-1 -2,0 -1,-1 -2,0 -1,-1 -1,0 -1,-1 -2,0 -1,-1 -2,0 -1,-1 -2,0 -1,-1 -1,0 -1,-1 -2,0 -1,-1 -2,0 -1,-1 -2,0 -1,-1 -1,0 -1,-1 -2,0 -1,-1 -2,0 -1,-1 -1,0 -1,-1Z"/>
<path onmouseover="hoverPath(evt)" onmouseout="recoverPath(evt)" fill="rgb(242,241,234)" d="M  47,96l 0,0 1,1 1,0 1,1 1,0 1,1 2,0 1,1 2,0 1,1 1,0 1,1 2,0 1,1 2,0 1,1 2,0 1,1 1,0 1,1 2,0 1,1 2,0 1,1 2,0 1,1 2,0 1,1 2,0 1,1 1,0 1,1 2,0 1,1 2,0 1,1 1,0 1,1 2,0 1,1 2,0 1,1 1,0 1,1 2,0 1,1 2,0 0,-5 1,-1 2,0 1,1 0,7 2,0 1,1 1,0 1,1 3,0 1,1 3,0 1,1 3,0 1,1 4,0 1,1 3,0 1,1 1,0 0,-4 1,-1 0,-4 1,-1 0,-5 1,-1 0,-5 1,-1 0,-4 1,-1 0,-5 1,-1 0,-4 1,-1 0,-4 1,-1 0,-5 1,-1 0,-4 1,-1 0,-3 1,-1 0,-3 1,-1 0,-3 1,-1 0,-2 1,-1 0,-2 1,-1 0,-2 1,-1 0,-1 1,-1 0,-1 1,-1 0,-1 1,-1 0,-1 1,-1 0,-1 1,-1 0,-1 1,-1 0,-1 1,-1 0,-1 1,-1 0,-2 1,-1 0,-1 2,-2 0,-1 1,-1 1,-1 1,-1 0,-1 2,-2 1,-1 0,-1 1,-1 1,-1 0,-1 1,-1 1,-1 0,-7 -1,-1 0,0 -1,-1 0,-2 -1,-1 0,-3 -1,-1 0,-1 -142,0 0,3 -1,1 0,4 -1,1 0,5 -1,1 0,4 -1,1 0,5 -1,1 0,5 -1,1 0,5 -1,1 0,2 1,1 7,0 1,1 0,2 -1,1 -7,0 -1,1 -1,0 0,3 -1,1 0,5 -1,1 0,5 -1,1 0,5 -1,1 0,5 -1,1 0,5 -1,1 0,3 1,1 0,2 1,1 2,0 1,1 1,0 1,1 5,0 1,1 1,1 2,0 1,1 1,0 1,1 2,0 1,1 1,1 2,0 1,1Z"/>
<path onmouseover="hoverPath(evt)" onmouseout="recoverPath(evt)" fill="rgb(186,151,234)" d="M  126,253l 0,0 -1,1 0,1 22,0 0,-2 1,-1 1,-1 2,0 0,-1 1,-1 2,0 0,-1 1,-1 1,-1 2,0 0,-1 1,-1 1,-1 2,0 0,-1 1,-1 1,-1 2,0 0,-1 2,-2 2,0 0,-1 1,-1 1,-1 2,0 0,-1 1,-1 2,0 0,-1 1,-1 2,0 0,-1 1,-1 1,0 1,-1 2,0 1,-1 2,0 1,-1 2,0 1,-1 3,0 1,-1 3,0 1,1 1,0 1,-1 2,0 1,1 3,0 1,1 2,0 1,-1 3,0 1,1 0,2 2,0 1,1 0,1 2,0 1,1 0,1 2,0 1,1 0,1 2,0 1,1 0,1 1,1 1,1 2,0 1,1 1,1 1,1 1,1 1,1 0,2 1,1 1,0 1,1 0,2 1,1 0,1 1,1 0,1 1,1 0,2 12,0 0,-123 -3,0 -1,1 0,1 -1,1 -1,0 0,1 -1,1 -2,2 -1,1 -1,1 -1,1 -2,0 -1,-1 -1,-1 0,-5 -1,-1 0,-3 -1,-1 0,-7 1,-1 0,-4 -1,-1 0,-2 -1,-1 0,-2 1,-1 1,0 0,-3 1,-1 0,-1 1,-1 0,-1 1,-1 1,0 1,-1 1,-1 1,0 1,-1 1,0 1,-1 0,-1 1,-1 2,0 1,1 3,0 0,-9 -2,0 -1,-1 -5,0 -1,-1 -5,0 -1,-1 -2,0 -1,-1 -3,0 -1,-1 0,-1 -2,0 -1,-1 0,-1 -2,0 -1,-1 0,-1 -1,-1 -1,-1 -1,-1 -1,-1 -1,-1 -1,0 -1,-1 0,-2 -1,0 -1,-1 -1,-1 0,-2 -1,-1 -1,0 -1,-1 0,-2 -1,-1 -1,-1 0,-2 -1,-1 0,-2 -1,-1 0,-2 -1,-1 -1,-1 0,-5 -1,-1 0,-2 -1,-1 0,-3 -1,-1 0,-2 -1,-1 0,-3 -1,-1 0,-2 -1,-1 -1,-1 0,-5 -1,-1 0,-1 -1,-1 0,-4 -1,-1 0,-3 1,-1 10,0 1,1 8,0 1,1 9,0 1,1 8,0 1,1 8,0 -8,-1 -9,-1 -7,-1 -3,0 -5,-1 -4,0 -3,-1 -4,0 -1,-1 -1,0 -1,-1 0,-2 1,-1 1,-1 1,-1 1,-1 0,-1 -29,0 1,1 0,3 1,1 0,2 2,2 0,8 1,0 1,1 0,2 1,1 0,6 1,0 1,1 0,2 1,1 1,1 0,4 1,1 1,1 0,2 1,1 0,4 1,1 0,2 1,1 0,2 1,1 1,1 0,5 1,1 0,2 1,1 0,2 1,1 1,1 0,5 1,1 1,1 0,5 1,1 0,2 1,1 0,3 1,1 0,1 1,1 0,2 -1,1 0,1 1,1 0,12 -1,1 0,5 -1,1 0,3 -1,1 0,1 1,1 1,1 0,4 -1,1 0,1 -1,1 0,1 -1,1 0,1 -1,1 -1,1 0,1 -1,1 0,1 -1,1 0,2 -1,1 0,3 -1,1 0,3 -1,1 -1,0 0,1 -1,1 -1,0 -1,1 -1,1 -1,0 0,1 -1,1 -1,1 -1,1 0,4 -1,1 -1,1 -1,1 -1,0 0,1 -1,1 2,-1 0,0 1,-1 3,0 1,-1 4,0 1,1 0,3 -1,1 0,11 1,1 0,3 -1,1 1,1 0,2 1,1 0,5 1,1 0,3 -1,1 -1,0 -1,1 -1,1 -1,1 -1,1 -1,1 -1,1 -1,1 -1,1 -1,1 -1,1 0,1 -1,1 -1,0 -1,1 -1,1 -1,1 0,1 -1,1 -1,0 -1,1 -1,1 -1,1 0,1 -1,1 -2,2 -1,1 -1,0 -1,1 -1,0 -1,1 0,1 -1,1 -1,1 -2,0 0,1 -1,1 -1,0 0,1 -1,1 -1,1 -1,0 -1,1 -1,0 -1,1 0,1 -1,1 -2,2 -1,0 -1,1 -1,0 -1,1 0,1 -1,1 -1,1 -1,0 -1,1 -1,0 -1,1 0,1 -2,2 -2,0 -1,1 -1,1 0,1 -1,1 -1,1 -2,0 -1,1 0,1 68,-69 0,-16 1,-1 4,0 1,1 1,-1 1,-1 -1,0 -1,-1 -2,0 -1,-1 -1,0 -1,-1 -1,-1 0,-6 1,-1 0,-3 1,-1 0,-1 1,-1 1,-1 17,0 1,1 0,5 1,1 0,2 -1,1 0,2 -1,1 0,3 -1,1 0,2 -1,1 0,5 -1,1 -2,0 -1,1 0,2 -1,1 -1,1 -1,1 -1,1 -1,0 -1,1 -2,2 -1,1 -1,1 -1,1 -2,0 -1,-1 0,-1 -1,-1 -68,69 74,-119 1,-1 1,-1 0,-1 1,-1 0,-1 1,-1 0,-1 1,-1 1,-1 0,-2 1,-1 1,-1 1,-1 3,0 1,1 0,2 -1,1 0,1 1,1 0,4 1,1 0,3 1,1 0,2 -1,1 -4,0 -1,1 -4,0 -1,1 -3,0 -1,-1 0,-5 -74,119 92,-39 -1,-1 -2,0 -1,-1 -1,0 -1,-1 -1,0 -1,-1 -1,-1 0,-2 1,-1 3,0 1,1 3,0 1,1 4,0 1,-1 1,-1 1,-1 0,-1 1,-1 0,-1 -1,-1 0,-6 -4,0 -1,-1 -1,0 -1,1 0,0 -1,1 0,3 -1,1 -1,1 -1,1 -5,0 -1,-1 0,-3 1,-1 1,0 1,-1 1,-1 0,-1 1,-1 3,-3 1,0 1,-1 1,-1 1,-1 3,0 1,1 1,1 1,1 1,-1 0,0 1,-1 1,-1 1,-1 2,0 1,1 0,12 1,1 0,3 -1,1 0,1 -1,1 0,1 -1,1 0,1 -1,1 0,1 -1,1 -2,0 -1,1 -4,0 -1,1 -3,0 -92,39Z"/>
<path onmouseover="hoverPath(evt)" onmouseout="recoverPath(evt)" fill="rgb(173,199,235)" d="M  141,138l 0,1 -1,1 0,15 1,1 0,7 -1,1 0,3 -1,1 0,4 -1,1 0,3 -1,1 0,3 -1,1 0,3 -1,1 0,3 -1,1 0,2 -1,1 0,2 -1,1 0,2 -1,1 0,2 -1,1 0,1 -1,1 0,1 -1,1 0,2 -1,1 0,1 -1,1 0,1 -1,1 0,1 -1,1 0,1 -1,1 0,1 -1,1 0,1 -1,1 0,1 -1,1 0,2 -1,1 0,1 -1,1 0,1 -1,1 0,1 -1,1 0,1 -1,1 0,3 -1,1 0,2 -1,1 0,3 -1,1 0,1 -1,1 0,2 -1,1 0,4 -1,1 0,1 9,0 0,-4 1,-1 0,-2 1,-1 0,-1 1,-1 -1,-1 -2,0 -1,-1 0,-3 1,-1 0,-1 1,-1 0,-2 1,-1 0,-1 1,-1 0,-1 1,-1 0,-1 1,-1 0,-2 1,-1 0,-1 1,-1 0,-1 1,-1 0,-1 1,-1 0,-1 1,-1 0,-1 1,-1 0,-1 1,-1 0,-1 1,-1 0,-2 1,-1 0,-2 1,-1 0,-1 1,-1 0,-2 1,-1 0,-2 1,-1 0,-2 1,-1 0,-2 1,-1 0,-2 1,-1 0,-2 1,-1 0,-2 1,-1 0,-2 1,-1 0,-2 1,-1 0,-2 1,-1 0,-2 1,-1 0,-2 1,-1 0,-10 1,-1 0,-1 1,-1 2,0 1,-1 4,0 1,-1 7,0 1,-1 10,0 1,-1 5,0 1,-1 1,-1 1,0 0,-2 1,-1 -1,0 -1,2 -8,0 -1,1 -8,0 -1,1 -8,0 -1,1 -8,0 -1,-1 0,-11 -2,0 -1,-1 -1,0 -1,1Z"/>
<path onmouseover="hoverPath(evt)" onmouseout="recoverPath(evt)" fill="rgb(244,243,236)" d="M  182,30l 0,-1 -1,0 0,1 -1,1 -1,1 0,1 -1,1 -1,1 0,1 -1,1 -1,1 0,1 -1,1 0,1 -2,2 0,1 -1,1 0,1 -1,1 0,1 -1,1 -1,1 0,1 -1,1 0,1 -1,1 0,1 -1,1 0,1 -1,1 0,3 -1,1 0,2 -1,1 0,1 -1,1 0,2 -1,1 0,2 -1,1 0,2 -1,1 0,3 -1,1 0,3 -1,1 0,3 -1,1 0,5 -1,1 0,5 -1,1 0,5 -1,1 0,4 -1,1 0,5 -1,1 0,10 -1,1 0,2 1,0 1,1 3,0 1,1 4,0 1,1 4,0 0,-5 1,-1 2,0 1,1 0,6 1,0 1,1 4,0 1,1 6,0 1,1 6,0 1,-1 0,-1 1,-1 0,-1 1,-1 0,-1 1,-1 1,-1 0,-2 1,-1 0,-1 1,-1 0,-1 1,-1 0,-1 1,-1 0,-2 1,-1 0,-2 1,-1 0,-3 1,-1 0,-5 1,-1 0,-10 -1,-1 0,-3 1,-1 -1,-1 0,-1 -1,-1 0,-3 -1,-1 0,-2 -1,-1 0,-5 -1,-1 -1,-1 0,-5 -1,-1 -1,-1 0,-2 -1,-1 0,-2 -1,-1 0,-5 -1,-1 -1,-1 0,-2 -1,-1 0,-2 -1,-1 0,-4 -1,-1 0,-2 -1,-1 -1,-1 0,-4 -1,-1 -1,-1Z"/>
<path onmouseover="hoverPath(evt)" onmouseout="recoverPath(evt)" fill="rgb(254,254,254)" d="M  1,143l -1,0 0,1 3,0 1,1 3,0 1,1 4,0 1,1 3,0 1,1 4,0 1,1 4,0 1,1 3,0 1,1 4,0 1,1 3,0 1,1 3,0 1,1 4,0 1,1 4,0 1,1 3,0 1,1 4,0 1,1 3,0 1,1 3,0 1,1 3,0 1,1 4,0 1,1 3,0 1,1 4,0 1,1 4,0 1,1 3,0 1,1 4,0 1,1 3,0 1,1 4,0 1,1 3,0 1,1 3,0 1,1 3,0 1,-1 0,-3 -1,2 -7,0 -1,-1 -3,0 -1,-1 -4,0 -1,-1 -3,0 -1,-1 -4,0 -1,-1 -3,0 -1,-1 -4,0 -1,-1 -3,0 -1,-1 -3,0 -1,-1 -3,0 -1,-1 -4,0 -1,-1 -4,0 -1,-1 -3,0 -1,-1 -4,0 -1,-1 -3,0 -1,-1 -4,0 -1,-1 -3,0 -1,-1 -3,0 -1,-1 -3,0 -1,-1 -4,0 -1,-1 -3,0 -1,-1 -1,0 -1,-1 0,-3 1,-1 0,-3 1,-1 0,-2 1,-1 0,-3 1,-1 0,-3 1,-1 0,-2 1,-1 0,-3 1,-1 0,-3 -1,1 0,2 -1,1 0,2 -1,1 0,3 -1,1 0,3 -1,1 0,2 -1,1 0,3 -1,1 0,3 -1,1 0,1 -1,1 -1,1 -4,0 -1,-1 -3,0 -1,-1 -4,0 -1,-1 -3,0 -1,-1Z"/>
<path onmouseover="hoverPath(evt)" onmouseout="recoverPath(evt)" fill="rgb(253,253,253)" d="M  24,43l -2,-2 0,-4 1,-1 0,-5 1,-1 0,-5 1,-1 0,-5 1,-1 0,-4 1,-1 0,-5 1,-1 0,-4 1,-1 0,-2 -2,0 0,6 -1,1 0,5 -1,1 0,5 -1,1 0,5 -1,1 0,4 -1,1 0,5 -1,1 0,4 -1,1 -1,0 -1,1 -2,0 -1,-1 0,1 -1,-1 -4,0 9,2 1,1 0,3 -1,1 0,5 -1,1 0,6 -1,1 0,5 -1,1 0,4 -1,1 0,5 -1,1 0,4 -1,1 0,3 1,0 0,-2 1,-1 0,-4 1,-1 0,-5 1,-1 0,-5 1,-1 0,-5 1,-1 0,-5 1,-1 0,-5 1,-1 0,-3 1,-1 1,0 1,-1Z"/>
<path onmouseover="hoverPath(evt)" onmouseout="recoverPath(evt)" fill="rgb(244,233,142)" d="M  41,103l 2,0 1,1 1,0 1,1 2,0 1,1 2,0 1,1 1,0 1,1 2,0 1,1 2,0 1,1 2,0 1,1 1,0 1,1 2,0 1,1 2,0 1,1 2,0 1,1 1,0 1,1 2,0 1,1 2,0 1,1 2,0 1,1 2,0 1,1 1,0 1,1 2,0 1,1 2,0 1,1 1,0 1,1 2,0 1,1 2,0 1,1 1,0 1,1 2,0 1,1 2,0 1,1 2,0 1,1 2,0 1,1 3,0 1,1 3,0 1,1 4,0 1,1 1,0 1,1 5,0 1,1 1,-1 4,0 1,1 2,0 1,1 0,1 2,0 1,1 3,0 1,1 3,0 1,1 4,0 1,1 5,0 1,1 4,0 1,1 0,1 6,0 0,-1 1,-1 3,0 1,1 0,2 -1,1 0,1 1,0 1,-1 0,0 1,-1 1,0 0,-1 1,-1 1,0 0,-3 1,-1 0,-3 1,-1 0,-2 1,-1 0,-1 1,-1 0,-1 1,-1 1,-1 0,-1 1,-1 0,-1 1,-1 0,-1 1,-1 0,-2 -1,-1 0,2 -1,1 0,1 -1,1 0,1 -1,1 0,1 -1,1 0,1 1,-1 1,-2 1,-2 1,-2 -5,9 -1,1 0,1 -1,1 0,1 -1,1 0,1 -1,1 -1,1 -8,0 -1,-1 -6,0 -1,-1 -4,0 -1,-1 -1,0 -1,-1 0,-6 -1,6 -6,0 -1,-1 -4,0 -1,-1 -3,0 -1,-1 -1,0 -1,1 -3,0 -1,-1 -2,0 -1,-1 0,-1 -2,0 -1,-1 -3,0 -1,-1 -4,0 -1,-1 -3,0 -1,-1 -3,0 -1,-1 -3,0 -1,-1 -1,0 -1,-1 -2,0 -1,-1 0,-7 -1,6 -4,0 -1,-1 -2,0 -1,-1 -1,0 -1,-1 -2,0 -1,-1 -2,0 -1,-1 -1,0 -1,-1 -2,0 -1,-1 -2,0 -1,-1 -1,0 -1,-1 -2,0 -1,-1 -2,0 -1,-1 -2,0 -1,-1 -2,0 -1,-1 -2,0 -1,-1 -1,0 -1,-1 -2,0 -1,-1 -2,0 -1,-1 -2,0 -1,-1 -1,0 -1,-1 -2,0 -1,-1 -2,0 -1,-1 -1,0 -1,-1 -1,0 -1,-1 -4,0 -1,-1 -2,0 -1,-1 -1,-1 -2,0 -1,-1 -1,0 -1,-1 -2,0 -1,-1 -1,-1 -4,0 2,1 1,0 1,1 1,0 1,1 0,5 1,0 1,1 7,0 1,1 0,1 1,1 92,33 0,0 -92,-33Z"/>
<path onmouseover="hoverPath(evt)" onmouseout="recoverPath(evt)" fill="rgb(239,227,136)" d="M  175,159l -1,1 0,2 -1,1 -1,0 -1,1 -1,1 -1,1 0,1 -1,1 0,1 -1,1 -1,0 -1,1 -1,1 0,2 -1,1 -1,0 -1,1 0,1 -1,1 -1,1 0,2 -1,1 -1,0 -1,1 -1,1 0,2 -1,1 -1,0 -1,1 -1,1 -1,1 0,1 -1,1 -1,1 -1,1 1,1 0,0 1,1 1,-1 0,-1 2,-2 1,-1 0,-2 1,-1 1,0 0,-1 1,-1 1,0 0,-1 1,-1 1,-1 0,-1 16,-23 -15,20 2,0 1,-1 1,-1 0,-1 1,-1 1,0 1,-1 1,-1 1,0 1,-1 1,-1 1,-1 1,0 1,-1 1,0 1,-1 1,0 1,-1 1,0 1,-1 3,0 1,-1 3,0 0,-1 1,-1 0,-1 -2,0 -1,1 -3,0 -1,1 -1,0 -1,1 -2,0 -1,-1 0,-2 1,-1 0,-1 1,-1 1,0 1,-1 1,-1 0,-4 2,-2 1,-1 -1,0 -1,1 -1,1 -2,0 0,2 -1,1 -1,1 0,1 -1,1 -16,21 15,-20Z"/>
<path onmouseover="hoverPath(evt)" onmouseout="recoverPath(evt)" fill="rgb(244,243,232)" d="M  198,151l 0,1 -1,1 0,3 -1,1 0,4 1,1 1,0 1,1 2,0 1,1 1,0 1,1 0,2 -1,1 -1,1 -1,1 -2,0 -1,-1 -2,0 0,14 1,1 0,1 1,-1 0,0 1,-1 1,-1 1,-1 1,-1 1,-1 1,0 1,-1 2,-2 0,-2 1,-1 1,-1 2,0 0,-5 1,-1 0,-2 1,-1 0,-3 1,-1 0,-2 1,-1 -1,-1 0,-5 -15,0 -1,1Z"/>
<path onmouseover="hoverPath(evt)" onmouseout="recoverPath(evt)" fill="rgb(245,238,184)" d="M  240,131l 0,2 1,1 0,5 1,1 1,-1 0,0 1,-1 1,-1 1,-1 1,-1 0,-1 1,-1 1,0 0,-1 1,-1 1,-1 4,0 0,-12 -3,0 -1,1 -1,0 -1,1 -1,1 0,1 -1,1 0,1 -1,1 0,2 -1,1 -3,0 0,2 -1,1Z"/>
<path onmouseover="hoverPath(evt)" onmouseout="recoverPath(evt)" fill="rgb(243,241,233)" d="M  245,123l 0,-1 1,-1 0,-1 1,-1 1,-1 1,-1 1,0 1,-1 4,0 0,-16 -4,0 -1,-1 0,1 -1,1 0,0 -1,1 -1,0 -1,1 -1,0 -1,1 -1,1 -1,0 0,1 -1,1 0,1 -1,1 0,3 -1,1 -1,0 1,1 0,2 1,1 0,6 -1,1 0,5 1,0 0,-2 1,-1 3,0 0,-2 1,-1Z"/>
</svg>