<svg width="256" height="256" xmlns="http://www.w3.org/2000/svg"><script> 
var tempColor;
function hoverPath(evt){
obj = evt.target;
tempColor = obj.getAttribute("fill");
obj.setAttribute("fill","red");
//alert(tempColor);
//obj.setAttribute("stroke","red");}
function recoverPath(evt){
obj = evt.target;
obj.setAttribute("fill", tempColor);
//obj.setAttribute("stroke", tempColor);
}</script><path onmouseover="hoverPath(evt)" onmouseout="recoverPath(evt)" fill="rgb(243,241,233)" d="M  0,116l 0,15 7,0 0,-9 -1,-1 -1,-1 -1,-1 -1,-1 -1,-1 0,-1 -1,-1 -1,1Z"/>
<path onmouseover="hoverPath(evt)" onmouseout="recoverPath(evt)" fill="rgb(247,233,134)" d="M  5,117l 0,0 1,1 1,1 1,1 1,1 0,3 4,0 1,1 1,0 1,1 0,1 1,0 1,1 0,2 2,0 1,1 1,1 1,1 1,0 1,1 1,1 2,0 1,1 0,1 1,1 1,0 1,1 1,1 1,1 1,0 1,1 1,0 1,1 1,1 1,0 1,1 1,0 1,1 1,1 1,0 1,1 1,0 1,1 0,5 -1,1 -7,0 6,1 7,0 1,-1 2,0 1,-1 3,0 1,1 0,1 1,1 1,0 1,1 0,34 1,1 0,35 1,1 0,9 -1,1 1,0 -1,1 -2,0 -1,1 -1,0 5,-13 -1,-36 0,-33 1,-1 2,0 1,1 2,0 1,1 2,0 1,1 2,0 1,1 1,0 1,1 2,0 1,1 3,0 1,1 3,0 1,1 3,0 1,1 3,0 1,1 4,0 1,1 4,0 1,1 5,0 1,1 9,0 1,1 13,0 1,1 32,0 1,-1 3,0 1,1 2,0 1,-1 13,0 1,-1 9,0 1,-1 9,0 1,1 0,-1 1,-1 2,0 1,-1 4,0 1,-1 4,0 1,-1 4,0 1,-1 3,0 1,-1 3,0 1,1 0,2 1,0 0,-2 1,-1 1,-1 1,0 1,-1 3,0 1,-1 3,0 1,-1 2,0 0,-11 -2,0 -1,1 -2,0 0,2 -1,1 -4,0 -1,1 -3,0 -1,-1 -2,0 -1,1 -3,0 -1,1 -3,0 -1,1 -4,0 -1,1 -5,0 -1,1 -7,0 -1,1 -4,0 -1,1 -9,0 -1,1 -9,0 -1,1 -6,0 -1,-1 -3,0 -1,1 -13,0 -1,1 -6,0 -1,-1 -20,0 -1,-1 -9,0 -1,-1 -8,0 -1,-1 -5,0 -1,-1 -5,0 -1,-1 -4,0 -1,-1 -3,0 -1,-1 -2,0 -1,-1 -2,0 -1,-1 -3,0 -1,-1 -2,0 -1,-1 -2,0 -1,-1 -2,0 -1,-1 -1,0 -1,-1 -1,0 -1,-1 -1,-1 -1,-1 -2,0 -1,-1 0,-27 -1,27 -2,0 -1,-1 -1,0 -1,-1 -1,0 -1,-1 -1,0 -1,-1 -1,0 -1,-1 -1,0 -1,-1 -1,0 -1,-1 -1,0 -1,-1 -1,-1 -1,0 -1,-1 -1,-1 -1,0 -1,-1 -1,-1 -1,0 -1,-1 -1,-1 -2,0 -1,-1 0,-1 -1,-1 -2,0 -1,-1 0,-1 -1,-1 -1,0 -1,-1 -1,-1 -1,-1 0,-4 -1,-1 -2,0 -1,-1 -3,0 -1,-1 -3,0 -1,-1 0,-1 -1,-1 -1,-1 -1,0 -1,-1 0,-5 -1,0 -4,-4 0,-1 -1,-1 -1,-1 -1,0 0,17 2,0 1,1 1,1 0,1 1,1 173,43 0,0 -173,-43 235,51 -1,0 0,2 1,-1 0,-1 -235,-51Z"/>
<path onmouseover="hoverPath(evt)" onmouseout="recoverPath(evt)" fill="rgb(238,237,231)" d="M  56,32l -1,0 -1,1 1,0 1,1 0,0 1,1 1,1 1,0 1,1 1,1 1,0 1,1 2,2 1,0 1,1 1,1 1,1 1,1 1,1 1,0 1,1 0,4 1,0 1,1 1,0 1,1 1,0 1,1 0,2 2,0 1,1 1,0 1,-1 1,0 1,-1 1,-1 1,-1 0,-2 1,-1 5,0 0,-3 1,-1 2,0 -1,-1 0,-2 1,-1 1,0 2,-2 1,-1 1,-1 1,-1 0,-1 1,-1 1,-1 1,0 1,-1 1,-1 1,-1 1,-1 -4,0 -1,-1 0,-4 -1,0 -1,-1 -1,-1 0,-2 -3,0 -1,-1 0,-1 -1,-1 -1,-1 -1,-1 0,-1 -1,-1 0,-3 1,-1 1,-1 1,0 1,-1 1,0 1,-1 1,-1 1,0 1,-1 1,-1 1,0 1,-1 3,0 1,1 1,1 1,1 2,0 0,-1 1,-1 1,-1 1,0 1,-1 4,0 1,1 1,1 0,1 1,-1 2,0 1,1 1,-1 2,0 1,1 1,0 1,1 0,-2 1,-1 0,-3 -31,0 0,1 -1,1 -1,1 -1,0 -1,1 -1,1 -1,0 -1,1 -1,0 -1,1 -1,1 -1,0 -1,1 -1,1 -1,0 -1,1 -1,1 -1,0 -1,1 -1,0 -2,2 -1,0 -1,1 -1,1 -1,0 -1,1 -1,0 -1,1 -1,1 -1,0 -2,2 -1,0 -1,1 -1,1 -1,0 -1,1 -1,0 -1,1 -1,1 -1,0 -1,1 -1,1 -1,0 -1,1 -1,1 -1,0 -1,1Z"/>
<path onmouseover="hoverPath(evt)" onmouseout="recoverPath(evt)" fill="rgb(241,240,232)" d="M  103,40l -4,4 0,3 -1,1 -2,0 0,3 5,0 0,-1 1,-1 2,0 1,1 1,1 1,1 0,3 -1,1 0,5 -1,1 0,4 -1,1 0,3 3,0 1,1 14,0 1,1 3,0 1,1 0,3 2,0 1,1 0,4 1,1 0,2 3,0 1,-1 2,0 1,-1 2,0 1,-1 1,0 1,-1 2,0 1,-1 2,0 1,-1 2,0 1,-1 1,0 0,-1 1,-1 0,-10 -1,-1 -1,0 -1,-1 -4,0 -1,-1 0,-2 1,-1 7,0 1,1 1,0 1,1 1,1 0,1 1,1 0,5 -1,1 0,4 1,1 0,0 1,-1 2,0 1,-1 2,0 1,-1 1,0 1,-1 2,0 1,-1 2,0 1,-1 2,0 1,-1 2,0 1,-1 2,0 1,-1 1,0 1,-1 0,-2 1,-1 -1,-1 0,0 -1,-1 -1,-1 0,-2 -1,0 -1,-1 -1,-1 -1,-1 0,-2 -1,0 -3,-3 0,-2 -1,0 -1,-1 -1,0 -1,-1 0,-3 -1,0 -1,-1 -1,0 -1,-1 0,-3 -1,0 -1,-1 -1,0 -1,-1 -1,0 -1,-1 -1,0 -1,-1 0,-5 -1,-1 -1,-1 0,-3 1,-1 0,-4 1,-1 2,0 1,1 0,2 1,-1 1,0 1,-1 1,0 1,-1 1,0 1,-1 1,0 1,-1 1,-1 1,0 0,-2 -1,-1 -1,0 -1,-1 0,-3 -1,0 -1,-1 -1,0 -1,-1 0,-2 -1,-1 0,-2 -28,0 0,4 -1,1 0,2 -1,1 -2,0 -1,-1 -1,0 -1,-1 -1,1 -2,0 -1,-1 -1,1 -2,0 -1,-1 0,-1 -1,-1 -2,0 -1,1 -1,0 -1,1 1,1 0,1 1,1 0,7 -1,1 -4,0 -1,-1 0,-2 -1,-1 -1,0 -1,1 -1,0 -1,1 0,1 -1,1 -1,0 -1,1 0,4 1,1 1,0 1,1 0,4 4,0 1,1 0,2 -1,1 -1,1 -1,1 -1,1 -1,1 -1,0 -1,1 0,1 -1,1 -1,1Z"/>
<path onmouseover="hoverPath(evt)" onmouseout="recoverPath(evt)" fill="rgb(244,243,235)" d="M  141,160l 13,0 1,1 4,0 1,-1 13,0 1,-1 2,0 0,-7 1,-1 0,-3 -1,-1 0,-6 -1,-1 0,-32 -1,0 -1,-1 -1,1 -6,0 -1,-1 -3,0 -1,-1 -2,0 -1,-1 -3,0 -1,-1 -2,0 -1,-1 0,-4 -1,-1 0,-14 -1,0 -1,1 -2,0 -1,1 -2,0 -1,1 -2,0 -1,1 -1,0 -1,1 -2,0 -1,1 -2,0 -1,1 -2,0 -1,1 -2,0 -1,1 -1,0 -1,1 -2,0 -1,1 -2,0 -1,1 -2,0 -1,1 -2,0 -1,1 -1,0 -1,1 -2,0 -1,1 -2,0 -1,1 -2,0 -1,1 -2,0 -1,1 -1,0 -1,1 -2,0 -1,1 -2,0 -1,1 -2,0 -1,1 -2,0 -1,1 -1,0 -1,1 -2,0 -1,1 -2,0 -1,1 -2,0 -1,1 -1,0 -1,1 -2,0 -1,1 0,2 -1,1 0,26 2,0 1,1 1,1 1,1 1,0 1,1 1,0 1,1 2,0 1,1 2,0 1,1 2,0 1,1 3,0 1,1 2,0 1,1 2,0 1,1 3,0 1,1 4,0 1,1 5,0 1,1 0,-15 1,-1 3,0 1,-1 8,0 1,1 1,1 0,15 -1,1 -5,0 6,1 9,0 1,1Z"/>
<path onmouseover="hoverPath(evt)" onmouseout="recoverPath(evt)" fill="rgb(243,242,234)" d="M  161,22l 0,0 -1,-1 0,2 -1,1 0,1 1,1 0,0 1,1 0,5 1,0 1,1 1,0 1,1 1,0 1,1 1,0 1,1 0,3 1,0 1,1 1,0 1,1 0,3 1,0 1,1 1,0 1,1 0,2 1,1 1,1 1,0 1,1 0,2 1,1 1,1 1,0 1,1 0,2 1,1 1,1 1,1 0,1 1,1 0,1 1,0 1,-1 2,0 0,-2 1,-1 2,0 1,1 1,0 1,-1 2,0 1,-1 2,0 0,-2 1,-1 2,0 1,1 1,0 1,-1 2,0 1,-1 2,0 1,-1 2,0 0,-2 1,-1 2,0 1,1 1,0 1,-1 2,0 1,-1 2,0 1,-1 2,0 0,-2 1,-1 2,0 1,1 1,0 1,-1 2,0 1,-1 2,0 1,-1 1,0 0,-3 -1,-1 0,-1 -1,-1 0,-1 -2,0 -1,-1 0,-2 1,-1 0,-1 -1,-1 0,-2 -1,-1 0,-3 -1,-1 0,-4 -1,-1 0,-8 -1,-1 0,-10 -69,0 0,1 1,1 0,2 1,0 1,1 1,0 1,1 0,3 1,0 1,1 1,1 0,4 -1,1 -1,0 -1,1 -1,1 -1,0 -1,1 -1,0 -1,1 -1,0 -1,1 -1,0 -1,1Z"/>
<path onmouseover="hoverPath(evt)" onmouseout="recoverPath(evt)" fill="rgb(244,243,236)" d="M  241,176l 0,2 -1,1 0,4 -1,1 0,4 -1,1 0,3 -1,1 0,3 -1,1 0,3 -1,1 0,4 -1,1 0,3 -1,1 0,4 -1,1 0,3 -1,1 0,3 -1,1 0,32 25,0 0,-93 -1,0 -1,1 -3,0 -1,1 -3,0 -1,1 -1,0 -1,1 0,2 -1,1 0,1 -1,1 -1,1 0,1 1,1Z"/>
<path onmouseover="hoverPath(evt)" onmouseout="recoverPath(evt)" fill="rgb(245,244,237)" d="M  251,92l -1,0 0,6 1,1 0,8 1,1 0,17 -1,1 0,5 -1,1 0,4 -1,1 0,4 -1,1 0,4 -1,1 0,2 1,0 1,-1 2,0 1,-1 3,0 0,-57 -1,0 -1,1 -1,0 -1,1Z"/>
<path onmouseover="hoverPath(evt)" onmouseout="recoverPath(evt)" fill="rgb(244,243,236)" d="M  0,5l 0,15 1,0 1,-1 1,0 1,-1 1,0 1,-1 1,0 1,-1 1,0 1,-1 1,0 2,-2 1,0 1,-1 1,0 1,-1 1,0 1,-1 1,0 1,-1 1,-1 1,0 1,-1 1,0 1,-1 1,0 1,-1 1,0 1,-1 1,0 1,-1 1,-1 1,0 1,-1 1,0 0,-1 -36,0Z"/>
<path onmouseover="hoverPath(evt)" onmouseout="recoverPath(evt)" fill="rgb(244,243,236)" d="M  18,133l 0,3 -1,1 0,16 -1,1 0,5 -1,1 0,3 -1,1 0,6 -1,1 0,2 -1,1 0,1 -1,1 0,1 -1,1 0,1 -1,1 0,1 -1,1 0,1 -1,1 0,1 -1,1 0,1 -1,1 0,1 -1,1 0,1 -1,1 0,1 -1,1 -1,1 -1,0 0,60 44,0 0,-1 -1,-1 0,-5 1,-1 1,0 1,-1 0,-2 1,-1 4,0 1,1 2,0 1,-1 2,0 1,-1 1,0 0,-2 1,-1 1,0 1,-1 1,0 1,-1 0,-7 -1,-1 0,-35 -1,-1 0,-34 -1,0 -1,-1 -1,-1 0,-1 -1,0 -1,1 -2,0 -1,1 -9,0 -1,-1 -5,0 -1,-1 0,-2 1,-1 7,0 0,-3 -1,0 -1,-1 -1,0 -1,-1 -1,-1 -1,0 -1,-1 -1,0 -2,-2 -1,0 -1,-1 -1,0 -1,-1 -1,-1 -1,-1 -1,0 -1,-1 -1,-1 0,-1 -2,0 -1,-1 -1,-1 -1,0 -1,-1 -1,-1 -1,-1 -1,1Z"/>
<path onmouseover="hoverPath(evt)" onmouseout="recoverPath(evt)" fill="rgb(241,240,232)" d="M  33,103l 0,0 -1,1 -6,0 0,5 -1,1 1,0 1,1 3,0 1,1 1,0 0,-1 1,-1 10,0 1,1 0,1 8,0 1,-1 4,0 1,-1 3,0 1,-1 2,0 1,-1 2,0 1,-1 2,0 1,-1 1,0 1,-1 2,0 1,-1 2,0 1,-1 2,0 1,-1 2,0 1,-1 1,0 1,-1 2,0 1,-1 2,0 1,-1 2,0 1,-1 2,0 1,-1 1,0 1,-1 2,0 1,-1 2,0 1,-1 2,0 1,-1 2,0 1,-1 1,0 1,-1 2,0 1,-1 2,0 1,-1 2,0 1,-1 2,0 1,-1 0,-1 -1,-1 0,-6 -1,-1 0,-3 -3,0 -1,-1 -14,0 -1,-1 -3,0 -1,-1 0,-5 1,-1 0,-4 1,-1 0,-5 1,-1 0,-1 -1,-1 0,0 -1,-1 0,1 -1,1 -7,0 -1,-1 -4,0 0,2 -1,1 -1,1 -1,1 -1,1 -1,0 -1,1 -1,0 1,1 0,1 1,1 1,1 0,1 1,1 1,1 0,3 1,1 0,11 -1,1 0,1 -1,1 -1,1 -1,0 -1,1 -1,0 -1,1 -1,0 -1,1 -15,0 -1,1 -7,0 -1,1 -6,0 -1,1 -3,0 -1,1 -2,0 0,1 -1,1 -3,0 -1,1 -2,0 -1,1 0,2 -1,1 -1,0Z"/>
<path onmouseover="hoverPath(evt)" onmouseout="recoverPath(evt)" fill="rgb(170,195,232)" d="M  48,83l -1,0 -1,1 -3,0 0,6 1,0 1,-1 3,0 1,-1 6,0 1,-1 7,0 1,-1 15,0 1,-1 1,0 1,-1 1,0 1,-1 1,0 1,-1 0,-1 1,-1 0,-9 -1,-1 0,-3 -1,-1 -1,-1 0,-1 -1,-1 -1,-1 0,-1 -1,-1 0,-1 -1,-1 -2,0 -1,-1 0,-2 -1,0 -1,-1 -1,0 -1,-1 -2,0 0,6 1,1 0,3 1,1 0,1 1,1 1,1 1,0 1,1 0,2 1,1 0,3 -1,1 -1,1 -1,1 -1,1 -3,0 -1,1 -4,0 -1,1 -8,0 -1,1 -2,0 -1,1 -3,0 -1,1Z"/>
<path onmouseover="hoverPath(evt)" onmouseout="recoverPath(evt)" fill="rgb(236,238,234)" d="M  78,193l -3,3 -1,1 -1,1 -1,1 -1,1 -1,1 -1,0 0,4 2,0 1,1 1,1 1,0 1,1 1,0 1,1 1,1 1,0 1,1 1,-1 3,-3 1,-1 1,-1 1,-1 1,-1 1,-1 0,-1 -1,-1 0,0 -1,-1 -1,0 -1,-1 -1,-1 -1,0 -1,-1 -1,-1 -1,0 -1,-1 -1,-1Z"/>
<path onmouseover="hoverPath(evt)" onmouseout="recoverPath(evt)" fill="rgb(243,242,235)" d="M  182,153l -2,0 0,7 4,0 1,-1 9,0 1,-1 9,0 1,-1 4,0 1,-1 7,0 1,-1 5,0 1,-1 4,0 1,-1 3,0 1,-1 3,0 1,-1 3,0 1,-1 0,-3 1,-1 0,-3 1,-1 0,-4 1,-1 0,-3 1,-1 0,-4 1,-1 0,-17 -1,-1 0,-3 -1,-1 0,-7 -1,-1 0,-7 -1,-1 0,-7 -1,-1 0,-6 -1,-1 0,-6 -1,-1 0,-4 1,-1 1,-1 4,0 1,1 0,1 1,1 0,9 1,1 0,5 1,1 0,2 1,1 1,1 4,0 0,-28 -2,0 -1,-1 0,-1 -2,0 -1,-1 0,-2 1,-1 -1,-1 0,0 -1,-1 -2,0 0,2 -1,1 -2,0 -1,-1 -1,0 -1,1 -2,0 -1,1 -2,0 -1,1 -2,0 -1,1 -1,0 -1,1 -1,0 0,1 -1,1 -6,0 -1,1 -2,0 0,2 -1,1 -2,0 -1,-1 -1,0 -1,1 -2,0 -1,1 -2,0 0,2 -1,1 -2,0 -1,-1 -1,0 -1,1 -2,0 -1,1 -2,0 -1,1 -2,0 0,2 -1,1 -2,0 -1,-1 -1,0 -1,1 -2,0 -1,1 -2,0 -1,1 -2,0 0,2 -1,1 -2,0 -1,-1 -1,0 -1,1 -2,0 -1,1 -2,0 0,2 -1,1 -2,0 -1,-1 -1,0 -1,1 -2,0 0,2 -1,1 -2,0 -1,-1 0,1 -1,1 0,4 -1,1 0,4 1,1 0,6 2,0 1,1 1,0 1,1 0,2 2,0 1,1 3,0 1,1 4,0 1,-1 2,0 1,1 1,0 1,1 0,32 2,0 0,-4 -1,0 4,18 22,-86 8,0 1,1 0,5 1,1 0,21 -1,1 -8,0 -1,-1 0,-10 -1,-1 0,-16 1,-1 -22,86 -3,-25 1,0 1,-1 13,0 1,-1 13,0 1,-1 5,0 1,1 0,19 -1,1 0,1 -1,1 -1,1 -6,0 -1,1 -6,0 -1,1 -6,0 -1,1 -7,0 -5,-24 3,25Z"/>
<path onmouseover="hoverPath(evt)" onmouseout="recoverPath(evt)" fill="rgb(236,238,234)" d="M  205,69l 0,14 1,1 0,10 6,0 0,-19 -1,-1 0,-5Z"/>
<path onmouseover="hoverPath(evt)" onmouseout="recoverPath(evt)" fill="rgb(173,199,237)" d="M  236,181l 0,3 -1,1 0,4 -1,1 0,3 -1,1 0,4 -1,1 0,3 -1,1 0,4 -1,1 0,3 -1,1 0,3 -1,1 0,4 -1,1 0,12 -1,1 0,21 2,0 0,-33 1,-1 0,-3 1,-1 0,-3 1,-1 0,-4 1,-1 0,-3 1,-1 0,-4 1,-1 0,-3 1,-1 0,-3 1,-1 0,-3 1,-1 0,-4 1,-1 0,-4 1,-1 0,-2 -1,-1 0,-1 -3,0 2,1 0,6 -1,1Z"/>
<path onmouseover="hoverPath(evt)" onmouseout="recoverPath(evt)" fill="rgb(242,241,232)" d="M  247,33l 1,1 0,2 1,1 0,1 1,1 0,1 1,1 4,0 0,-41 -14,0 0,7 1,1 0,8 1,1 0,5 1,1 0,3 1,1 0,2 2,0 1,1 0,2 -1,1Z"/>
<path onmouseover="hoverPath(evt)" onmouseout="recoverPath(evt)" fill="rgb(171,198,235)" d="M  0,178l 0,15 1,-1 0,-1 1,-1 0,-1 1,-1 0,-1 1,-1 0,-1 1,-1 0,-1 1,-1 0,-1 1,-1 0,-1 1,-1 0,-1 1,-1 0,-1 1,-1 0,-1 1,-1 0,-2 1,-1 0,-6 1,-1 0,-3 1,-1 0,-5 1,-1 0,-16 1,-1 0,-6 -1,0 -1,-1 0,-1 -1,0 -1,-1 -3,0 0,9 -1,1 0,13 -1,1 0,11 -1,1 0,5 -1,1 0,3 -1,1 0,2 -1,1 -1,1 -2,0Z"/>
<path onmouseover="hoverPath(evt)" onmouseout="recoverPath(evt)" fill="rgb(170,198,237)" d="M  2,22l -2,0 0,31 1,0 1,-1 1,0 1,-1 2,0 1,-1 1,0 1,-1 1,0 1,-1 2,0 1,-1 1,0 1,-1 1,0 1,-1 1,0 2,-2 1,-1 2,0 1,-1 1,0 1,-1 2,0 1,-1 1,0 1,-1 1,0 1,-1 5,0 1,1 1,0 1,1 1,0 1,1 1,0 1,1 1,0 1,1 1,0 1,1 1,1 1,0 1,1 1,1 1,1 1,1 1,1 0,1 1,0 1,1 1,1 1,1 1,1 0,1 2,0 1,1 0,2 1,1 0,1 2,0 1,1 1,1 0,-1 -1,-1 0,-8 1,-1 1,0 0,-3 -1,0 -1,-1 -1,-1 -1,-1 -1,-1 -1,-1 -1,0 -1,-1 -1,-1 -1,-1 -1,0 -1,-1 -1,-1 -1,0 -1,-1 -1,-1 -1,-1 -1,0 -1,-1 0,-2 2,-2 1,0 1,-1 1,0 1,-1 1,-1 1,0 1,-1 1,-1 1,0 1,-1 1,-1 1,0 1,-1 1,0 1,-1 1,-1 1,0 1,-1 1,-1 1,0 1,-1 1,-1 1,0 1,-1 1,0 1,-1 1,-1 1,0 1,-1 1,-1 1,0 1,-1 1,0 1,-1 1,-1 1,0 1,-1 1,-1 1,0 1,-1 1,-1 1,0 1,-1 1,0 1,-1 1,-1 1,0 1,-1 -64,0 0,2 -1,1 -1,0 -1,1 -1,0 -1,1 -1,1 -1,0 -1,1 -1,0 -1,1 -1,0 -1,1 -1,0 -1,1 -1,0 -1,1 -1,1 -1,0 -1,1 -1,0 -1,1 -1,0 -1,1 -1,0 -1,1 -1,1 -1,0 -1,1 -1,0 -1,1 -1,0 -1,1 -1,0 -1,1 -1,0 -1,1Z"/>
<path onmouseover="hoverPath(evt)" onmouseout="recoverPath(evt)" fill="rgb(244,243,235)" d="M  46,249l -1,0 0,3 1,1 0,2 68,0 0,-2 1,-1 1,-1 1,-1 1,-1 1,-1 1,-1 1,-1 0,-1 1,-1 0,-1 1,-1 1,0 1,-1 1,-1 1,-1 1,-1 1,-1 0,-2 1,-1 1,0 1,-1 1,-1 1,-1 0,-2 1,-1 1,0 3,-3 1,-1 3,-3 1,-1 0,-1 1,-1 3,0 1,-1 2,-2 -1,-1 0,-2 1,-1 1,-1 1,-1 0,-1 1,-1 1,-1 0,-1 1,-1 0,-1 1,-1 1,-1 0,-1 1,-1 1,-1 0,-1 1,-1 0,-1 1,-1 0,-1 1,-1 1,-1 0,-1 1,-1 0,-1 1,-1 0,-1 1,-1 0,-1 1,-1 0,-1 1,-1 0,-2 1,-1 0,-1 1,-1 0,-1 -33,0 -1,-1 -13,0 -1,-1 -9,0 -1,-1 -5,0 -1,-1 -4,0 -1,-1 -4,0 -1,-1 -3,0 -1,-1 -3,0 -1,-1 -3,0 -1,-1 -3,0 -1,-1 -2,0 -1,-1 -1,0 -1,-1 -2,0 -1,-1 -2,0 -1,-1 -2,0 -1,-1 -1,1 0,26 1,1 0,38 1,1 0,13 -1,1 -1,1 -1,0 -1,1 -3,0 -1,1 -1,0 -1,1 -2,0 -1,1 -4,0 -1,-1 -2,0 0,2 -2,2 22,-42 2,0 1,1 -3,-1 -22,42 27,-40 0,0 -27,40 29,-39 0,0 1,1 -1,-1 -29,39 24,-51 1,-1 1,-1 1,-1 1,-1 1,-1 1,-1 1,-1 2,0 1,1 1,1 1,0 1,1 1,1 1,0 1,1 1,1 1,0 1,1 1,1 1,1 0,3 -1,1 -1,1 -1,1 -1,1 -1,1 -1,1 -1,1 -1,1 -2,2 -2,0 -1,-1 -8,-14 -24,51 43,-53 -1,-1 -1,0 -1,-1 -1,-1 -1,-1 0,-2 1,-1 1,-1 2,-2 1,-1 1,-1 0,-1 1,-1 1,-1 1,-1 1,-1 2,0 1,1 1,0 1,1 1,0 1,1 1,0 1,1 1,0 1,1 1,0 1,1 1,0 1,1 0,2 -1,1 0,1 -1,1 -1,1 -1,1 -1,1 -1,1 -1,1 -1,1 -1,1 0,1 -1,1 -4,0 -1,-1 -1,-1 -1,0 -1,-1 -1,-1 -1,0 -43,53Z"/>
<path onmouseover="hoverPath(evt)" onmouseout="recoverPath(evt)" fill="rgb(236,238,234)" d="M  94,182l 0,0 -1,1 -1,1 0,1 -1,1 -2,2 -1,1 -1,1 -1,1 1,1 1,1 1,0 1,1 1,0 1,1 1,1 1,0 1,1 1,1 2,0 0,-1 1,-1 4,-4 1,-1 2,-2 0,-1 1,-1 -1,0 -1,-1 -1,0 -1,-1 -1,0 -1,-1 -1,0 -1,-1 -1,0 -1,-1 -1,0 -1,-1 -1,1Z"/>
<path onmouseover="hoverPath(evt)" onmouseout="recoverPath(evt)" fill="rgb(235,237,233)" d="M  180,130l -1,0 0,3 1,0 1,1 0,6 -1,1 -2,0 0,5 1,1 0,4 3,0 1,-1 7,0 1,-1 6,0 1,-1 6,0 1,-1 6,0 1,-1 0,-1 1,-1 0,-17 -3,0 -1,1 -13,0 -1,1 -13,0 -1,1Z"/>
<path onmouseover="hoverPath(evt)" onmouseout="recoverPath(evt)" fill="rgb(244,243,236)" d="M  185,174l -5,0 -1,1 -4,0 -1,-1 -1,0 0,3 -1,1 0,1 -1,1 0,1 1,1 0,2 -1,1 0,1 -1,1 0,1 -1,1 0,1 -1,1 0,1 -1,1 -2,0 -1,1 1,1 0,2 -1,1 0,1 -1,1 -2,0 -1,1 0,1 -1,1 -1,1 0,1 -1,1 0,1 -1,1 -1,1 0,1 -1,1 -1,1 -1,1 1,1 0,2 -1,1 -1,1 -1,1 -1,1 -3,0 0,1 -1,1 -1,1 -1,1 -1,1 -1,1 -1,1 -1,1 -1,1 -1,1 -1,0 0,2 -1,1 -1,1 -1,1 -1,1 -1,0 0,2 -1,1 -1,1 -1,1 -1,1 -1,1 -1,1 -1,0 0,1 -1,1 0,1 -1,1 -1,1 -1,1 -1,1 -1,1 -1,1 -1,1 0,1 51,0 0,-13 1,-1 11,0 1,-1 7,0 1,1 0,2 1,1 0,11 35,0 0,-22 1,-1 0,-12 1,-1 0,-4 1,-1 0,-3 1,-1 0,-3 1,-1 0,-4 1,-1 0,-3 1,-1 0,-4 1,-1 0,-3 1,-1 0,-4 1,-1 0,-3 1,-1 0,-4 -1,0 -1,-1 0,-2 1,-1 3,0 0,-4 1,-1 -1,0 -1,1 -3,0 -1,1 -4,0 -1,1 -4,0 -1,1 -4,0 -1,1 -2,0 0,3 -1,1 -2,0 -1,-1 0,-2 -7,0 -1,1 -9,0 -1,1Z"/>
<path onmouseover="hoverPath(evt)" onmouseout="recoverPath(evt)" fill="rgb(244,242,234)" d="M  0,163l 0,11 1,0 1,-1 0,-2 1,-1 0,-3 1,-1 0,-5 1,-1 0,-11 1,-1 0,-13 1,-1 0,-1 -7,0Z"/>
<path onmouseover="hoverPath(evt)" onmouseout="recoverPath(evt)" fill="rgb(239,238,230)" d="M  0,59l 0,35 2,0 1,1 1,1 1,1 0,1 1,1 1,1 1,1 1,0 1,1 0,5 1,0 1,1 2,2 0,1 2,0 0,-3 -1,0 -1,-1 0,-4 1,-1 1,-1 0,-2 1,-1 1,-1 1,0 0,-1 1,-1 1,-1 1,-1 1,-1 1,-1 1,-1 1,-1 1,0 1,-1 1,-1 1,-1 1,0 1,-1 1,-1 4,0 1,-1 3,0 1,-1 3,0 1,-1 2,0 1,-1 3,0 1,-1 2,0 1,-1 8,0 1,-1 4,0 1,-1 3,0 1,-1 1,-1 1,-1 0,-1 -1,-1 0,-2 -1,0 -1,-1 -1,-1 -1,-1 0,-1 -1,-1 -1,0 -1,-1 -1,-1 -2,0 -1,-1 0,-1 -1,-1 0,-2 -2,0 -1,-1 0,-1 -1,-1 -1,-1 -1,-1 -1,0 -1,-1 0,-1 -1,-1 -3,-3 -1,0 -1,-1 -1,-1 -1,0 -1,-1 -1,0 -1,-1 -1,0 -1,-1 -1,0 -1,-1 -1,0 -1,-1 -3,0 -1,1 -1,0 -1,1 -1,0 -1,1 -2,0 -1,1 -1,0 -1,1 -2,0 -2,2 -1,1 -1,0 -1,1 -1,0 -1,1 -1,0 -1,1 -2,0 -1,1 -1,0 -1,1 -1,0 -1,1 -2,0 -1,1 -1,0 -1,1 -2,0Z"/>
<path onmouseover="hoverPath(evt)" onmouseout="recoverPath(evt)" fill="rgb(241,240,230)" d="M  29,121l 0,0 1,1 1,1 0,1 2,0 1,1 1,1 0,1 2,0 1,1 1,1 1,0 1,1 1,1 1,0 1,1 1,1 1,0 1,1 1,1 1,0 1,1 1,0 1,1 1,0 1,1 1,0 1,1 1,0 1,1 1,0 1,1 1,0 1,1 0,-27 -1,1 -6,0 -1,1 -9,0 -1,1 -2,0 -1,-1 -5,0 -1,-1 0,-3 1,-1 -2,0 0,1 -1,1 -3,0 -1,-1 -3,0 -1,-1 -1,0 -1,-1 -2,0 -1,-1 -1,0 -1,-1 0,3 3,0 1,1 2,0 1,1 1,1 0,4 2,2Z"/>
<path onmouseover="hoverPath(evt)" onmouseout="recoverPath(evt)" fill="rgb(252,252,251)" d="M  37,115l 5,0 1,1 1,-1 9,0 1,-1 6,0 1,-1 2,0 1,1 0,1 1,0 0,-2 1,-1 1,-1 2,0 1,-1 1,0 1,-1 2,0 1,-1 2,0 1,-1 2,0 1,-1 1,0 1,-1 2,0 1,-1 2,0 1,-1 2,0 1,-1 2,0 1,-1 1,0 1,-1 2,0 1,-1 2,0 1,-1 2,0 1,-1 2,0 1,-1 1,0 1,-1 2,0 1,-1 2,0 1,-1 2,0 1,-1 2,0 1,-1 1,0 1,-1 2,0 1,-1 2,0 1,-1 2,0 1,-1 2,0 1,-1 1,0 1,-1 2,0 1,-1 2,0 1,-1 2,0 1,-1 3,0 1,1 0,14 1,1 0,4 2,0 1,1 2,0 -2,-1 -3,-5 0,-14 1,-1 0,-1 1,-1 2,0 1,1 0,-2 1,-1 2,0 1,-1 3,0 1,1 0,-2 1,-1 2,0 1,-1 2,0 1,-1 3,0 1,1 0,-2 1,-1 2,0 1,-1 2,0 1,-1 2,0 1,-1 3,0 1,1 0,-2 1,-1 2,0 1,-1 2,0 1,-1 2,0 1,-1 3,0 1,1 0,-2 1,-1 2,0 1,-1 2,0 1,-1 3,0 1,1 0,-2 1,-1 2,0 1,-1 6,0 0,-1 1,-1 1,0 1,-1 1,0 1,-1 2,0 1,-1 2,0 1,-1 2,0 1,-1 3,0 1,1 0,-2 1,-1 4,0 1,1 1,1 1,1 0,2 -1,1 2,0 1,1 0,1 1,0 0,-12 -5,0 -1,-1 -1,-1 0,-1 -1,-1 0,-1 -1,-1 0,-2 -1,-1 0,-2 1,-1 -2,0 -1,-1 0,-2 -1,-1 0,-3 -1,-1 0,-5 -1,-1 0,-8 -1,-1 0,-8 -1,0 0,9 1,1 0,8 1,1 0,4 1,1 0,3 1,1 0,2 1,1 0,3 -1,1 2,0 1,1 0,1 1,1 0,1 1,1 0,5 -1,1 -1,0 -1,1 -2,0 -1,1 -2,0 -1,1 -3,0 -1,-1 0,2 -1,1 -2,0 -1,1 -2,0 -1,1 -2,0 -1,1 -3,0 -1,-1 0,2 -1,1 -2,0 -1,1 -2,0 -1,1 -2,0 -1,1 -3,0 -1,-1 0,2 -1,1 -2,0 -1,1 -2,0 -1,1 -3,0 -1,-1 0,2 -1,1 -2,0 -1,1 -3,0 -1,-1 0,1 -1,1 0,0 -1,1 -1,0 -1,1 -2,0 -1,1 -2,0 -1,1 -2,0 -1,1 -2,0 -1,1 -2,0 -1,1 -1,0 -1,1 -2,0 -1,1 -2,0 -1,1 -2,0 -1,-1 -1,-1 0,1 -1,1 0,1 -1,1 -1,0 -1,1 -2,0 -1,1 -2,0 -1,1 -2,0 -1,1 -1,0 -1,1 -2,0 -1,1 -2,0 -1,1 -5,0 -1,-1 0,-2 -1,-1 0,1 1,3 0,1 -1,1 -1,1 -2,0 -1,1 -2,0 -1,1 -2,0 -1,1 -2,0 -1,1 -1,0 -1,1 -2,0 -1,1 -2,0 -1,1 -2,0 -1,1 -2,0 -1,1 -1,0 -1,1 -2,0 -1,1 -2,0 -1,1 -2,0 -1,1 -2,0 -1,1 -1,0 -1,1 -2,0 -1,1 -2,0 -1,1 -2,0 -1,1 -2,0 -1,1 -1,0 -1,1 -2,0 -1,1 -2,0 -1,1 -2,0 -1,1 -3,0 -1,1 -4,0 -1,1 -15,0 -1,1 119,-46 1,-1 0,-3 -1,-1 0,-1 -1,-1 -1,0 -1,-1 -5,0 5,1 2,1 1,2 0,4 -119,46Z"/>
<path onmouseover="hoverPath(evt)" onmouseout="recoverPath(evt)" fill="rgb(178,198,227)" d="M  41,86l 0,-1 -2,0 -1,1 -4,0 -1,1 -1,1 -1,0 -1,1 -2,2 -1,0 -5,5 -1,1 0,1 -1,1 -1,0 -1,1 0,2 -1,1 -1,1 0,2 1,0 1,1 1,0 1,1 1,0 1,1 1,0 1,-1 0,-5 1,-1 6,0 0,-4 1,-1 1,0 0,-2 2,-2 2,0 1,-1 3,0Z"/>
<path onmouseover="hoverPath(evt)" onmouseout="recoverPath(evt)" fill="rgb(235,236,232)" d="M  97,11l 0,0 -1,1 0,1 1,1 0,1 1,1 1,1 1,1 0,1 2,0 0,-2 1,-1 1,-1 1,0 0,-1 1,-1 1,-1 1,0 1,-1 3,0 1,1 1,1 0,2 2,0 0,-5 -1,-1 0,-1 -4,0 -2,-2 -1,-1 -1,0 -1,1 -1,0 -1,1 -1,1 -1,0 -1,1 -1,1 -1,0 -1,1Z"/>
<path onmouseover="hoverPath(evt)" onmouseout="recoverPath(evt)" fill="rgb(236,238,234)" d="M  111,143l 0,14 3,0 1,1 1,0 0,-1 1,-1 5,0 0,-13 -1,-1 -6,0 -1,1Z"/>
<path onmouseover="hoverPath(evt)" onmouseout="recoverPath(evt)" fill="rgb(236,238,234)" d="M  169,243l 0,12 18,0 0,-10 -1,-1 0,-2 -5,0 -1,1Z"/>
<path onmouseover="hoverPath(evt)" onmouseout="recoverPath(evt)" fill="rgb(171,198,235)" d="M  246,135l 0,3 -1,1 0,4 -1,1 0,3 -1,1 0,3 -1,1 1,0 1,-1 4,0 -3,-1 0,-4 1,-1 0,-4 1,-1 0,-4 -1,-1 1,-1 1,0 0,-3 1,-1 0,-5 1,-1 0,-15 -1,-1 0,-8 -1,-1 0,-8 1,-1 1,0 1,-1 1,0 1,-1 2,0 0,-1 -5,0 -1,-1 -1,-1 -1,-1 0,-2 -1,-1 0,-5 -1,-1 0,-9 -1,-1 0,-1 -2,0 -1,1 0,2 1,1 0,6 1,1 0,6 1,1 0,7 1,1 0,7 1,1 0,7 1,1 0,3 1,1 0,19 -1,1 0,4 -1,1Z"/>
</svg>