<svg width="256" height="256" xmlns="http://www.w3.org/2000/svg"><script> 
var tempColor;
function hoverPath(evt){
obj = evt.target;
tempColor = obj.getAttribute("fill");
obj.setAttribute("fill","red");
//alert(tempColor);
//obj.setAttribute("stroke","red");}
function recoverPath(evt){
obj = evt.target;
obj.setAttribute("fill", tempColor);
//obj.setAttribute("stroke", tempColor);
}</script><path onmouseover="hoverPath(evt)" onmouseout="recoverPath(evt)" fill="rgb(245,245,236)" d="M  1,216l 0,-1 -1,0 0,40 7,0 0,-1 -1,-1 0,-8 -1,-1 0,-7 -1,-1 0,-7 -1,-1 0,-6 -1,-1 0,-4 -1,-1Z"/>
<path onmouseover="hoverPath(evt)" onmouseout="recoverPath(evt)" fill="rgb(250,250,247)" d="M  2,168l -2,0 0,1 4,0 1,-1 4,0 1,-1 5,0 1,-1 3,0 1,-1 5,0 1,-1 3,0 1,-1 7,0 1,1 0,0 1,-1 0,-1 1,-1 2,0 1,-1 3,0 1,-1 4,0 1,-1 3,0 1,-1 4,0 1,-1 2,0 1,-1 4,0 1,1 1,0 0,-1 1,-1 3,0 1,1 0,2 1,1 0,3 -1,1 0,1 1,1 0,0 1,1 1,1 1,1 1,1 1,0 0,-1 1,-1 -1,0 -1,-1 0,0 -1,-1 0,-2 1,-1 0,-2 -1,-1 -1,-1 0,-1 -1,-1 0,-2 1,-1 2,0 1,-1 3,0 1,-1 1,0 0,-1 -1,0 -1,1 -3,0 -1,1 -3,0 -1,1 -4,0 -1,1 -4,0 -1,1 -2,0 -1,1 -4,0 -1,1 -2,0 -1,1 -4,0 -1,1 -3,0 -1,1 -3,0 -1,1 -5,0 -1,-1 0,-1 -1,-1 0,-1 -1,-1 0,-2 -1,-1 0,-2 1,-1 1,0 1,-1 0,-2 1,-1 1,0 1,-1 1,-1 1,0 1,-1 1,0 1,-1 1,0 1,-1 1,0 1,-1 1,0 1,-1 2,0 1,1 1,0 0,-1 1,-1 2,0 0,-2 1,-1 1,0 1,-1 1,0 1,-1 1,0 1,-1 1,0 1,-1 1,0 1,-1 1,0 1,-1 1,0 1,-1 2,0 1,-1 1,0 1,-1 1,0 1,-1 2,0 1,-1 1,0 0,-1 -2,0 -1,1 -1,0 -1,1 -2,0 -1,1 -1,0 -1,1 -1,0 -1,1 -1,0 -1,1 -1,0 -1,1 -2,0 -1,1 -1,0 -1,1 -1,0 -1,1 -1,0 -1,1 -1,0 -1,1 -1,0 -1,1 -1,0 -1,1 -1,0 -1,1 -1,0 -1,1 -1,0 -1,1 -1,1 -1,0 -1,1 -1,0 -1,1 -1,0 -1,1 -1,0 -1,1 -1,0 -1,1 -1,0 -1,1 -1,0 -1,1 -1,0 -1,1 -1,0 -1,1 -1,1 -5,0 -1,-1 -1,-1 0,2 1,1 0,1 1,1 0,2 1,1 0,1 1,1 0,5 -1,1 -2,0 -1,1 -4,0 -1,1 -4,0 -1,1 -4,0 -1,1 -2,0 16,-20 1,-1 0,0 -1,-1 0,-1 -1,-1 0,-1 -1,-1 0,-1 -1,-1 0,-1 -1,-1 0,-1 -1,-1 0,-2 -1,-1 0,-5 -2,0 -1,-1 0,-1 -1,-1 0,-1 -1,-1 0,-1 -1,-1 0,-1 -1,-1 0,-1 -1,-1 0,-1 -1,-1 0,-1 -1,-1 0,-1 -1,-1 0,-1 -1,0 0,9 3,0 1,1 1,1 0,1 1,1 0,1 1,1 0,1 1,1 0,1 1,1 0,1 1,1 0,1 1,1 0,1 1,1 0,1 1,1 0,1 1,1 0,1 1,1 0,1 1,1 0,1 1,1 0,1 1,1 0,1 -16,20Z"/>
<path onmouseover="hoverPath(evt)" onmouseout="recoverPath(evt)" fill="rgb(242,241,234)" d="M  90,76l 0,7 1,1 0,8 1,1 0,5 1,1 0,10 1,1 0,7 1,1 0,7 1,1 0,8 1,1 0,7 4,0 1,1 2,0 1,-1 4,0 1,-1 4,0 1,-1 3,0 1,-1 4,0 1,-1 3,0 1,-1 4,0 1,-1 2,0 1,-1 3,0 1,-1 2,0 1,-1 2,0 1,-1 2,0 1,-1 2,0 1,-1 2,0 1,-1 2,0 1,-1 2,0 1,-1 2,0 0,-2 1,-1 -1,-1 0,-2 1,-1 0,-1 -1,-1 0,-4 -3,0 -1,-1 0,-2 -2,0 -1,-1 0,-2 1,-1 -2,0 -1,-1 0,-1 -1,-1 0,-2 -1,-1 -1,-1 0,-2 1,-1 -1,-1 0,0 -1,-1 0,-2 -3,0 -1,-1 0,-1 -1,-1 0,-1 -1,-1 0,-1 -1,-1 0,-2 1,-1 -1,-1 0,-1 -2,0 -1,-1 0,-2 1,-1 -1,-1 0,0 -1,-1 0,-1 -2,0 -1,-1 0,-2 -1,0 -1,-1 0,-5 -1,-1 0,-2 1,-1 -4,0 -1,-1 0,-2 -1,0 -1,-1 0,-2 1,-1 -1,0 -1,-1 0,-3 -1,0 -1,-1 0,-1 -1,-1 -1,-1 -1,-1 -1,-1 -1,-1 -3,0 -1,-1 -1,-1 0,-1 -1,-1 -1,0 -1,-1 -1,-1 0,-3 1,-1 0,-5 1,-1 2,0 0,-2 1,-1 2,0 1,-1 1,-1 1,-1 0,-1 1,-1 1,-1 1,0 0,-6 -10,0 -1,1 -3,0 -1,-1 0,-1 -3,0 -1,-1 -1,-1 0,-1 -2,0 -1,-1 0,1 -1,1 0,1 1,1 0,3 -1,1 0,2 -1,1 0,4 -1,1 -2,0 0,3 1,1 0,5 -1,1 0,2 -1,1 0,2 -1,1 0,2 -1,1 0,3 -1,1 0,6 -1,1 0,14 2,0 1,1 0,2 -1,1 -3,0 1,1Z"/>
<path onmouseover="hoverPath(evt)" onmouseout="recoverPath(evt)" fill="rgb(240,239,233)" d="M  109,240l 0,2 1,1 0,8 1,1 0,3 51,0 0,-1 -1,-1 0,0 -1,-1 0,-4 -1,-1 -1,-1 -1,0 -1,-1 0,-1 -2,0 -1,-1 -1,-1 -1,-1 -1,-1 0,-3 -1,0 -1,-1 0,-2 -1,-1 -1,-1 -2,0 -1,-1 -1,-1 0,-1 -1,0 -1,-1 0,-2 -1,0 -1,-1 -1,-1 0,1 -1,1 -1,0 0,2 -1,1 -2,0 -1,-1 -1,-1 -1,-1 0,-1 -1,-1 -1,-1 0,-3 1,-1 0,-2 -1,-1 0,-3 -1,-1 0,-3 -1,-1 -2,0 -1,-1 0,-3 -1,-1 -1,-1 -1,-1 -1,-1 -1,-1 -7,0 -1,-1 0,-2 -1,-1 -1,-1 0,-7 -1,0 -1,-1 -1,-1 0,-1 -1,0 0,2 1,1 0,3 -1,1 0,4 1,1 0,6 1,1 0,7 1,1 0,4 1,1 0,10 1,1 0,6 -1,1 0,2 1,0 1,1Z"/>
<path onmouseover="hoverPath(evt)" onmouseout="recoverPath(evt)" fill="rgb(171,198,237)" d="M  219,200l -1,0 2,1 0,1 1,1 2,0 1,1 1,0 1,1 1,1 1,0 1,1 1,0 1,1 1,1 1,0 1,1 1,0 1,1 2,0 1,1 1,0 1,1 1,0 1,1 1,0 1,1 1,0 1,1 1,0 1,1 1,1 1,1 1,1 1,1 1,1 1,0 0,-5 -2,0 -1,-1 -1,-1 -1,-1 -1,0 -1,-1 -1,0 -1,-1 -1,0 -1,-1 -1,0 -1,-1 -2,0 -1,-1 -2,0 -1,-1 -1,0 -1,-1 -1,-1 -1,0 -1,-1 -1,-1 -1,0 -1,-1 -1,0 -1,-1 -1,0 -1,-1 -2,0 -1,-1Z"/>
<path onmouseover="hoverPath(evt)" onmouseout="recoverPath(evt)" fill="rgb(243,242,235)" d="M  225,207l 0,0 -1,-1 -1,0 -1,-1 -1,0 0,2 1,1 0,2 2,0 1,1 1,1 0,1 1,1 1,1 0,5 1,0 1,1 1,0 1,1 0,2 1,1 0,2 2,0 1,1 1,1 0,1 1,1 0,1 1,1 0,2 -1,1 0,1 1,1 0,1 1,1 0,2 3,0 1,1 0,2 1,1 0,1 1,1 0,1 1,1 0,3 -1,1 0,1 9,0 0,-31 -2,0 -1,-1 -1,-1 -1,-1 -1,-1 -1,-1 -1,-1 -1,0 -1,-1 -1,0 -1,-1 -1,0 -1,-1 -1,0 -1,-1 -1,0 -1,-1 -2,0 -1,-1 -1,0 -1,-1 -1,0 -1,-1 -1,-1 -1,0 -1,-1 -1,0 -1,-1Z"/>
<path onmouseover="hoverPath(evt)" onmouseout="recoverPath(evt)" fill="rgb(243,242,235)" d="M  0,1l 0,92 1,-1 4,0 1,-1 1,0 1,-1 3,0 1,-1 3,0 1,-1 2,0 1,-1 3,0 1,-1 2,0 1,-1 3,0 1,-1 2,0 1,1 0,2 1,-1 1,0 1,-1 3,0 1,-1 2,0 1,1 0,4 1,0 1,1 0,1 1,1 0,1 2,0 0,-5 1,-1 3,0 1,1 2,0 1,-1 3,0 1,-1 1,0 0,-8 1,-1 2,0 0,-3 1,-1 2,0 1,-1 3,0 1,-1 1,0 1,-1 2,0 1,-1 0,-10 1,-1 0,-10 1,-1 0,-4 1,-1 0,-2 1,-1 0,-3 1,-1 0,-3 1,-1 0,-3 1,-1 0,-3 1,-1 0,-3 1,-1 0,-3 1,-1 0,-4 1,-1 0,-4 1,-1 0,-2 1,-1 0,-2 -89,0 -1,1Z"/>
<path onmouseover="hoverPath(evt)" onmouseout="recoverPath(evt)" fill="rgb(243,242,233)" d="M  0,173l 0,14 6,0 1,1 19,0 1,-1 7,0 1,-1 10,0 0,-1 -1,-1 0,-1 -1,-1 0,-1 -1,-1 0,-1 -1,-1 0,-2 -1,-1 0,-1 -1,-1 0,-1 -1,-1 0,-2 -1,-1 0,-1 -1,-1 0,-1 -5,0 -1,1 -3,0 -1,1 -5,0 -1,1 -3,0 -1,1 -5,0 -1,1 -4,0 -1,1 -5,0Z"/>
<path onmouseover="hoverPath(evt)" onmouseout="recoverPath(evt)" fill="rgb(244,243,236)" d="M  39,255l 59,0 0,-3 -1,-1 0,-7 -1,-1 0,-7 -1,-1 0,-8 -1,-1 0,-4 -1,-1 0,-10 -1,-1 0,-7 -1,-1 0,-8 -1,-1 -13,0 -1,-1 -38,0 -1,1 -8,0 -1,1 -28,0 0,19 2,0 1,1 0,1 1,1 0,4 1,1 0,6 1,1 0,7 1,1 0,7 1,1 0,8 1,1 0,2Z"/>
<path onmouseover="hoverPath(evt)" onmouseout="recoverPath(evt)" fill="rgb(237,236,228)" d="M  44,113l 2,0 1,-1 2,0 1,-1 1,0 1,-1 2,0 1,-1 1,0 1,-1 2,0 1,-1 2,0 1,-1 1,0 1,-1 2,0 1,-1 2,0 1,-1 1,0 1,-1 2,0 1,-1 1,0 1,-1 1,0 0,-9 -1,-1 0,-9 -1,-1 0,-6 1,-1 0,-2 -1,1 -2,0 -1,1 -1,0 -1,1 -3,0 -1,1 -2,0 0,3 -1,1 -2,0 0,8 -1,1 -1,0 -1,1 -3,0 -1,1 -4,0 -1,-1 -1,0 0,5 -1,1 -4,0 -1,-1 0,-1 -1,-1 0,-1 -1,0 -1,-1 0,-4 -1,1 -3,0 -1,1 -1,0 -1,1 -2,0 -1,-1 0,0 -1,1 -1,0 0,1 -1,1 -3,0 -1,1 -2,0 -1,1 -3,0 -1,1 -2,0 0,1 -1,1 1,1 0,0 1,1 1,-1 7,0 1,1 0,8 -1,1 -1,1 -6,0 1,1 0,3 -1,1 0,2 2,0 1,1 0,2 7,0 1,1 2,0 1,-1 1,0 1,-1 2,0 1,-1 2,0 1,-1 2,0 1,-1 1,0 1,-1Z"/>
<path onmouseover="hoverPath(evt)" onmouseout="recoverPath(evt)" fill="rgb(241,240,232)" d="M  41,164l 0,0 -1,1 1,1 0,2 -1,1 0,1 1,1 0,1 2,0 1,1 0,2 -1,1 0,1 1,1 0,1 2,0 1,1 0,1 1,1 0,1 1,1 0,2 41,0 0,-1 -1,-1 0,-6 1,-1 0,-8 -1,-1 -1,0 -1,-1 0,-7 -1,-1 0,-5 -1,0 -1,-1 -2,0 -1,1 -2,0 1,1 0,1 1,1 1,1 0,4 -1,1 1,1 1,0 1,1 0,2 -1,1 0,1 -1,1 -3,0 -1,-1 -1,-1 -1,-1 -1,-1 -1,-1 -1,-1 0,-3 1,-1 0,-1 -1,-1 0,-2 -1,0 0,1 -1,1 -3,0 -1,-1 -2,0 -1,1 -2,0 -1,1 -4,0 -1,1 -3,0 -1,1 -4,0 -1,1 -3,0 -1,1 -1,0 -1,1Z"/>
<path onmouseover="hoverPath(evt)" onmouseout="recoverPath(evt)" fill="rgb(241,240,230)" d="M  44,120l -2,0 0,2 1,1 0,0 1,1 1,1 0,1 1,0 1,1 1,1 1,1 1,1 1,1 1,1 1,1 1,-1 1,0 1,-1 1,0 1,-1 1,0 1,-1 1,0 1,-1 1,0 1,-1 2,0 1,-1 1,0 1,-1 1,0 1,-1 1,0 1,-1 1,0 1,-1 2,0 1,-1 1,0 1,-1 2,0 0,-4 -1,-1 0,-7 -1,-1 0,-1 -1,0 -1,1 -2,0 -1,1 -2,0 -1,1 -1,0 -1,1 -2,0 -1,1 -2,0 -1,1 -1,0 -1,1 -2,0 -1,1 -1,0 -1,1 -2,0 -1,1 -2,0 -1,1 -1,0 -1,1 -2,0 -1,1 -1,0 -1,1Z"/>
<path onmouseover="hoverPath(evt)" onmouseout="recoverPath(evt)" fill="rgb(241,240,234)" d="M  102,0l -1,0 0,1 1,1 0,4 2,0 1,1 0,1 1,1 3,0 1,1 0,1 1,0 1,-1 12,0 1,1 0,1 3,0 1,1 7,0 1,1 2,0 0,-1 1,-1 2,0 1,1 1,0 1,1 0,1 3,0 1,1 4,0 1,-1 3,0 1,1 1,-1 3,0 1,1 0,-1 1,-1 4,0 1,1 5,0 1,1 0,2 1,0 1,1 0,1 3,0 1,-1 2,0 0,-1 1,-1 3,0 1,1 5,0 1,1 1,1 0,3 4,0 1,-1 3,0 1,1 1,1 1,0 1,1 5,0 1,-1 6,0 1,1 1,0 1,1 0,1 4,0 1,1 1,0 1,-1 2,0 -2,-1 0,-3 1,-1 0,-2 1,-1 0,-8 -1,-1 0,-1 -1,-1 0,-1 -1,-1 -2,-2 -4,0 -1,-1 -3,0 -1,-1 -1,0 -1,-1 0,-1Z"/>
<path onmouseover="hoverPath(evt)" onmouseout="recoverPath(evt)" fill="rgb(171,198,237)" d="M  109,189l 0,1 2,0 1,1 28,0 1,1 13,0 1,1 10,0 1,1 8,0 1,1 3,0 1,1 3,0 1,1 3,0 1,1 2,0 1,1 8,0 1,1 11,0 1,1 4,0 -1,-1 0,0 -1,-1 0,-1 -5,0 -1,-1 -12,0 -1,-1 -4,0 -1,-1 -3,0 -1,-1 -2,0 -1,-1 -3,0 -1,-1 -6,0 -1,-1 -9,0 -1,-1 -12,0 -1,-1 -15,0 -1,-1 -22,0 -1,1Z"/>
<path onmouseover="hoverPath(evt)" onmouseout="recoverPath(evt)" fill="rgb(244,243,236)" d="M  122,21l 0,1 -1,1 -1,1 -1,1 -1,1 -2,0 0,2 -1,1 -2,0 0,5 -1,1 0,1 1,1 1,0 1,1 1,1 0,1 1,1 3,0 1,1 1,1 1,1 1,1 1,1 1,1 0,1 1,0 1,1 0,3 1,0 1,1 0,2 -1,1 1,0 1,1 0,2 4,0 1,1 0,2 -1,1 1,1 0,5 1,0 1,1 0,2 2,0 1,1 0,1 1,1 1,1 0,2 -1,1 2,0 1,1 0,1 1,1 0,2 -1,1 1,1 0,1 1,1 0,1 1,1 0,1 3,0 1,1 0,2 1,1 1,1 0,2 -1,1 1,1 0,0 1,1 0,2 1,1 0,1 2,0 1,1 0,2 -1,1 2,0 1,1 0,2 3,0 1,1 0,4 1,1 0,3 -1,1 1,1 0,1 1,1 1,0 1,-1 2,0 1,-1 1,0 1,-1 2,0 1,-1 2,0 1,-1 2,0 1,-1 2,0 1,-1 2,0 1,-1 2,0 1,-1 2,0 1,-1 2,0 1,-1 2,0 0,-2 1,-1 2,0 1,1 2,0 1,-1 1,0 1,-1 2,0 1,-1 2,0 1,-1 2,0 1,-1 2,0 1,-1 1,0 1,-1 2,0 1,-1 2,0 1,-1 1,0 1,-1 1,0 1,-1 1,-1 1,-1 1,-1 1,0 1,-1 0,-1 -1,-1 0,-1 -1,-1 0,-2 -1,-1 0,-1 -1,-1 0,-1 -1,-1 0,-1 -1,-1 0,-2 -1,-1 0,-1 -1,-1 0,-2 -1,-1 0,-1 -1,-1 0,-3 -1,-1 0,-2 -1,-1 0,-3 -1,-1 0,-4 -1,-1 0,-4 -1,-1 0,-6 1,-1 0,-5 1,-1 0,-3 1,-1 0,-2 1,-1 0,-3 -1,0 -1,-1 -4,0 -1,-1 0,-1 -1,0 -1,-1 -4,0 -1,1 -7,0 -1,-1 -1,0 -1,-1 -1,-1 -1,0 -1,1 -6,0 -1,-1 0,-3 -1,-1 -5,0 -1,-1 -1,0 0,1 -1,1 -2,0 -1,1 -5,0 -1,-1 0,-1 -1,0 -1,-1 0,-2 -5,0 -1,-1 -2,0 0,1 -1,1 -2,0 -1,-1 -1,0 0,1 -1,1 -2,0 -1,-1 0,-1 -1,0 -1,1 -6,0 -1,-1 -3,0 -1,-1 0,-1 -1,0 -1,-1 0,1 -1,1 -4,0 -1,-1 -7,0 -1,-1 -2,0 0,5 -1,1 -1,0 -1,1Z"/>
<path onmouseover="hoverPath(evt)" onmouseout="recoverPath(evt)" fill="rgb(172,198,237)" d="M  0,190l 0,2 27,0 1,-1 8,0 1,-1 40,0 1,1 13,0 1,1 0,-2 -1,-1 0,0 -1,-1 -42,0 -1,-1 0,-2 -1,3 -10,0 -1,1 -7,0 -1,1 -21,0 -1,-1 -4,0 -1,1Z"/>
<path onmouseover="hoverPath(evt)" onmouseout="recoverPath(evt)" fill="rgb(252,252,251)" d="M  28,122l 0,1 2,0 1,-1 3,0 1,1 0,2 1,1 1,-1 1,0 -1,-1 0,-4 1,-1 2,0 1,-1 2,0 1,-1 1,0 1,-1 2,0 1,-1 1,0 1,-1 2,0 1,-1 2,0 1,-1 1,0 1,-1 2,0 1,-1 1,0 1,-1 2,0 1,-1 2,0 1,-1 1,0 1,-1 2,0 1,-1 2,0 1,-1 2,0 1,-1 0,-1 -2,0 -1,1 -1,0 -1,1 -2,0 -1,1 -1,0 -1,1 -2,0 -1,1 -2,0 -1,1 -1,0 -1,1 -2,0 -1,1 -2,0 -1,1 -1,0 -1,1 -2,0 -1,1 -1,0 -1,1 -2,0 -1,1 -2,0 -1,1 -1,0 -1,1 -2,0 -1,1 -2,0 -1,1 -2,0 -1,1 -1,0 -1,1 -2,0 -1,1Z"/>
<path onmouseover="hoverPath(evt)" onmouseout="recoverPath(evt)" fill="rgb(246,235,139)" d="M  88,56l 0,-4 1,-1 0,-6 1,-1 0,-3 1,-1 0,-2 1,-1 0,-2 1,-1 0,-2 1,-1 0,-3 -1,-1 0,-5 1,-1 2,0 0,-4 1,-1 0,-2 1,-1 0,-1 -1,-1 0,-3 1,-1 0,-1 1,-1 1,0 0,-2 -1,-1 0,-2 -7,0 0,3 -1,1 0,2 -1,1 0,4 -1,1 0,4 -1,1 0,3 -1,1 0,3 -1,1 0,3 -1,1 0,3 -1,1 0,3 -1,1 0,3 -1,1 0,2 -1,1 0,4 -1,1 0,10 -1,1 0,9 1,1 0,4 -1,1 0,4 1,1 0,9 1,1 0,10 1,0 1,1 0,3 -1,1 0,1 1,1 0,7 1,1 0,5 1,1 0,3 -1,1 0,0 1,1 0,6 1,1 0,7 1,1 0,6 1,1 0,3 -1,1 -1,0 2,1 0,5 1,1 0,7 1,0 1,1 1,1 0,10 -1,1 0,4 1,1 0,3 1,1 1,1 0,4 -1,1 0,7 1,1 0,7 1,1 0,10 1,1 0,4 1,1 0,8 1,1 0,7 1,1 0,7 1,1 0,4 9,0 0,-2 -1,-1 0,-8 -1,-1 0,-5 -1,0 -1,-1 0,-4 1,-1 0,-4 -1,-1 0,-10 -1,-1 0,-4 -1,-1 0,-7 -1,-1 0,-6 -1,-1 0,-6 1,-1 0,-1 -1,-1 0,-5 -1,-1 0,-3 -1,-1 0,-7 -1,-1 0,-8 -1,-1 0,-10 -1,0 -1,-1 0,-4 1,-1 4,0 -5,-1 0,-7 -1,-1 0,-8 -1,-1 0,-7 -1,-1 0,-7 -1,-1 0,-10 -1,-1 0,-5 -1,-1 0,-8 -1,-1 0,-11 -1,-1 0,-2 1,-1 0,-13 1,13 0,0 -1,-13Z"/>
<path onmouseover="hoverPath(evt)" onmouseout="recoverPath(evt)" fill="rgb(244,243,236)" d="M  115,193l -4,0 -1,-1 -1,0 0,1 1,1 0,0 1,1 0,2 7,0 1,1 1,1 1,1 1,1 1,1 1,1 0,3 2,0 1,1 1,1 0,3 1,1 0,3 1,1 0,4 -1,1 0,1 1,1 0,0 1,1 0,1 1,1 1,1 0,-2 1,-1 1,0 0,-1 1,-1 2,0 1,1 1,1 1,0 1,1 0,2 1,0 1,1 0,1 1,1 2,0 1,1 1,1 1,1 0,2 1,0 1,1 0,3 1,1 1,1 1,1 2,0 1,1 0,1 1,0 1,1 1,1 1,1 0,4 1,1 1,1 0,2 80,0 0,-2 1,-1 0,-1 -1,-1 0,-1 -1,-1 0,-1 -1,-1 0,-2 -3,0 -1,-1 0,-2 -1,-1 0,-1 -1,-1 0,-3 1,-1 -1,-1 0,-1 -1,-1 0,-1 -1,-1 -2,0 -1,-1 0,-2 -1,-1 0,-2 -1,0 -1,-1 -1,0 -1,-1 0,-5 -1,-1 -1,-1 0,-1 -1,-1 -2,0 -1,-1 0,-2 -1,-1 0,-4 -1,-1 0,-1 -1,0 -1,1 -6,0 -1,-1 -11,0 -1,-1 -8,0 -1,-1 -2,0 -1,-1 -3,0 -1,-1 -3,0 -1,-1 -3,0 -1,-1 -8,0 -1,-1 -10,0 -1,-1 -13,0 -1,-1Z"/>
<path onmouseover="hoverPath(evt)" onmouseout="recoverPath(evt)" fill="rgb(243,242,235)" d="M  174,128l 0,0 -1,1 0,3 1,0 1,1 1,1 0,4 1,1 1,1 1,1 1,1 3,0 1,1 1,1 1,1 0,4 1,1 0,1 1,1 0,1 1,1 0,1 1,1 2,0 0,-1 1,-1 2,0 1,1 1,1 1,1 1,1 1,1 1,1 0,1 1,0 1,1 1,1 1,1 3,0 1,1 0,2 1,1 1,1 1,0 1,1 1,1 0,2 2,0 1,-1 3,0 1,1 1,1 1,0 1,1 1,1 0,1 2,0 1,1 1,0 1,1 0,4 2,0 1,-1 4,0 1,1 1,0 1,1 1,0 1,1 1,1 0,4 2,0 1,1 0,-1 1,-1 4,0 1,1 3,0 0,-51 -2,0 -1,-1 0,-1 -1,-1 0,-1 -1,-1 0,-2 -1,-1 0,-1 -1,-1 0,-1 -1,-1 0,-1 -1,-1 0,-2 -1,-1 0,-1 -1,-1 0,-1 -1,-1 0,-2 -1,-1 0,-1 -1,-1 0,-1 -1,-1 0,-1 -1,-1 0,-2 -1,-1 0,-1 -1,0 -1,1 -1,0 -1,1 -1,1 -1,0 -1,1 -2,0 -1,1 -2,0 -1,1 -1,0 -1,1 -2,0 -1,1 -2,0 -1,1 -2,0 -1,1 -2,0 -1,1 -2,0 -1,1 -2,0 -1,1 -2,0 -1,1 -2,0 -1,1 -2,0 -1,1 -2,0 -1,1 -2,0 -1,1 -2,0 -1,1 -2,0 -1,1 -1,0 -1,1 -2,0 -1,1 -2,0 -1,1Z"/>
<path onmouseover="hoverPath(evt)" onmouseout="recoverPath(evt)" fill="rgb(174,200,237)" d="M  230,29l 0,0 -1,1 0,4 -1,1 0,2 -1,1 0,3 -1,1 0,5 -1,1 0,4 1,1 0,4 1,1 0,4 1,1 0,3 1,1 0,2 1,1 0,3 1,1 0,1 1,1 0,2 1,1 0,1 1,1 0,2 1,1 0,1 1,1 0,1 1,1 0,1 1,1 0,2 1,1 0,1 1,1 0,1 1,-1 1,0 1,-1 0,-1 -1,-1 0,-1 -1,-1 0,-2 -1,-1 0,-2 -1,-1 0,-1 -1,-1 0,-1 -1,-1 0,-1 -1,-1 0,-1 -1,-1 0,-1 -1,-1 0,-2 -1,-1 0,-3 -1,-1 0,-3 -1,-1 0,-3 -1,-1 0,-5 -1,-1 0,-5 1,-1 0,-5 1,-1 0,-3 1,-1 0,-3 1,-1 0,-6 1,-1 1,-1 0,-3 1,-1 0,-3 1,-1 0,-3 1,-1 0,-2 1,-1 0,-1 1,-1 1,-1 1,0 1,-1 8,0 1,1 3,0 0,-7 -38,0 2,1 3,0 1,1 4,0 1,1 1,1 1,1 1,1 0,1 1,1 0,1 1,1 0,10 -1,1 0,2 -1,1 0,1 1,0 1,1 -3,3Z"/>
<path onmouseover="hoverPath(evt)" onmouseout="recoverPath(evt)" fill="rgb(200,215,232)" d="M  243,102l 0,1 1,1 0,1 1,1 0,1 1,1 0,2 1,1 0,1 1,1 0,1 1,1 0,1 1,1 0,2 1,1 0,1 1,1 0,1 1,1 0,1 1,1 0,2 1,1 0,-34 -1,0 -1,1 -1,0 -1,1 -1,0 -1,1 -1,0 0,1 -1,1 -2,0 -2,2Z"/>
<path onmouseover="hoverPath(evt)" onmouseout="recoverPath(evt)" fill="rgb(242,241,230)" d="M  0,123l 0,43 3,0 1,-1 4,0 1,-1 4,0 1,-1 4,0 1,-1 2,0 0,-3 -1,-1 0,-1 -1,-1 0,-2 -1,-1 0,-1 -1,-1 0,-1 -1,-1 0,-1 -1,-1 0,-1 -1,-1 0,-1 -1,-1 0,-1 -1,-1 0,-1 -1,-1 0,-1 -1,-1 0,-1 -1,-1 0,-1 -1,-1 0,-1 -1,-1 0,-1 -1,-1 0,-1 -1,-1 0,-1 -1,-1 0,-1 -1,-1 0,-1 -1,-1 -2,0Z"/>
<path onmouseover="hoverPath(evt)" onmouseout="recoverPath(evt)" fill="rgb(237,236,227)" d="M  14,127l 0,5 1,1 0,2 1,1 0,1 1,1 0,1 1,1 0,1 1,1 0,1 1,1 0,1 1,1 0,1 1,1 3,0 1,-1 0,0 1,-1 1,0 1,-1 1,0 1,-1 1,0 1,-1 1,0 1,-1 1,0 1,-1 1,0 1,-1 1,0 1,-1 1,0 1,-1 1,0 1,-1 1,-1 1,0 1,-1 1,0 1,-1 1,0 -1,-1 0,0 -1,-1 -1,-1 -1,-1 -1,-1 -1,-1 -1,0 -1,-1 0,-1 -3,-3 0,-2 -1,0 0,2 1,1 0,2 -1,1 -1,0 -1,1 -2,0 -1,-1 -1,-1 0,-2 -1,0 -1,1 -4,0 -1,-1 0,-4 -7,0 -1,-1 0,-2 -2,0 -1,-1 0,-4 1,-1 0,-1 -1,-1 0,-2 1,-1 6,0 1,-1 0,-6 -5,0 -1,1 -2,0 -1,-1 -1,-1 -1,-1 0,-2 1,-1 0,-1 1,-1 2,0 1,-1 3,0 1,-1 2,0 1,-1 3,0 0,-1 1,-1 -1,0 -1,1 -2,0 -1,1 -3,0 -1,1 -2,0 -1,1 -3,0 -1,1 -3,0 -1,1 -1,0 -1,1 -4,0 -1,1 -1,0 0,13 2,0 1,1 0,1 1,1 0,1 1,1 0,1 1,1 0,1 1,1 0,1 1,1 0,1 1,1 0,1 1,1 0,1 1,1 0,1 2,0 1,1Z"/>
<path onmouseover="hoverPath(evt)" onmouseout="recoverPath(evt)" fill="rgb(238,237,227)" d="M  61,135l 0,0 -1,1 -1,0 0,2 -1,1 -2,0 0,1 -1,1 -3,0 -1,-1 -1,1 -1,0 -1,1 -1,0 -1,1 -1,0 -1,1 -1,0 -1,1 -1,0 -1,1 -1,1 -1,0 0,2 -1,1 -1,1 -1,0 1,1 0,2 1,1 0,1 1,1 0,1 3,0 1,-1 3,0 1,-1 3,0 1,-1 4,0 1,-1 2,0 1,-1 4,0 1,-1 2,0 1,-1 4,0 1,-1 4,0 1,-1 3,0 1,-1 3,0 1,-1 1,0 0,-5 -1,-1 0,-7 -1,-1 0,-6 -1,0 -1,-1 -1,0 -1,1 -1,0 -1,1 -1,0 -1,1 -2,0 -1,1 -1,0 -1,1 -1,0 -1,1 -1,0 -1,1 -1,0 -1,1 -1,0 -1,1Z"/>
<path onmouseover="hoverPath(evt)" onmouseout="recoverPath(evt)" fill="rgb(253,253,253)" d="M  97,147l 0,1 1,-1 4,0 1,-1 3,0 1,-1 4,0 1,-1 3,0 1,-1 3,0 1,-1 4,0 1,-1 3,0 1,-1 4,0 1,-1 3,0 1,-1 2,0 1,-1 2,0 1,-1 3,0 1,-1 2,0 1,-1 2,0 1,-1 3,0 1,1 0,-2 1,-1 2,0 1,-1 2,0 1,-1 2,0 1,-1 2,0 1,1 0,-1 1,-1 0,0 1,-1 2,0 1,-1 2,0 1,-1 2,0 1,-1 1,0 1,-1 2,0 1,-1 2,0 1,-1 2,0 1,-1 2,0 1,-1 2,0 1,-1 2,0 1,-1 2,0 1,-1 2,0 1,-1 2,0 1,-1 2,0 1,-1 2,0 1,-1 2,0 1,-1 2,0 1,-1 1,0 1,-1 2,0 1,-1 2,0 1,-1 1,0 1,-1 1,-1 1,0 1,-1 3,0 1,1 0,1 1,1 0,2 1,1 0,1 1,1 0,1 1,1 0,1 1,1 0,2 1,1 0,1 1,1 0,1 1,1 0,2 1,1 0,1 1,1 0,1 1,1 0,1 1,1 0,2 1,1 0,1 1,1 0,1 1,0 0,-5 -1,0 -1,-1 0,-1 -1,-1 0,-2 -1,-1 0,-1 -1,-1 0,-1 -1,-1 0,-1 -1,-1 0,-2 -1,-1 0,-1 -1,-1 0,-1 -1,-1 0,-1 -1,-1 0,-2 -1,-1 0,-1 -1,-1 0,-1 -1,-1 0,-4 1,-1 1,0 1,-1 2,0 0,-1 1,-1 1,0 1,-1 1,0 1,-1 1,0 1,-1 2,0 0,-1 -2,0 -1,1 -1,0 -1,1 -1,0 -1,1 -3,0 -1,1 -1,1 -1,0 -1,1 -1,0 -1,1 -1,1 -1,0 -1,1 -1,1 -1,1 -1,1 -1,0 -1,1 -1,0 -1,1 -2,0 -1,1 -2,0 -1,1 -1,0 -1,1 -2,0 -1,1 -2,0 -1,1 -2,0 -1,1 -2,0 -1,1 -1,0 -1,1 -4,0 -1,-1 0,2 -1,1 -2,0 -1,1 -2,0 -1,1 -2,0 -1,1 -2,0 -1,1 -2,0 -1,1 -2,0 -1,1 -2,0 -1,1 -2,0 -1,1 -2,0 -1,1 -1,0 -1,1 -2,0 -1,1 -3,0 -1,-1 0,2 -1,1 -2,0 -1,1 -2,0 -1,1 -2,0 -1,1 -2,0 -1,1 -2,0 -1,1 -2,0 -1,1 -2,0 -1,1 -2,0 -1,1 -3,0 -1,1 -2,0 -1,1 -4,0 -1,1 -3,0 -1,1 -4,0 -1,1 -3,0 -1,1 -4,0 -1,1 -4,0 -1,1 -3,0 -1,1 -3,0 -1,1Z"/>
<path onmouseover="hoverPath(evt)" onmouseout="recoverPath(evt)" fill="rgb(244,243,235)" d="M  99,151l 0,8 1,1 0,8 1,1 0,7 1,1 0,3 1,1 0,1 2,0 1,1 0,1 1,1 1,0 1,1 24,0 1,1 15,0 1,1 12,0 1,1 9,0 1,1 6,0 1,1 3,0 1,1 2,0 1,1 3,0 1,1 4,0 1,1 12,0 1,1 3,0 0,-1 -1,-1 0,-1 -2,0 -1,-1 0,-3 -1,0 -1,-1 0,-2 1,-1 -1,-1 0,-2 -4,0 -1,-1 0,-1 -1,-1 0,-1 -1,-1 0,-2 -1,0 -1,-1 0,-1 -1,-1 0,-2 -1,0 -1,-1 0,-3 1,-1 0,-2 1,-1 1,-1 2,0 -1,-1 0,0 -1,-1 -1,-1 -1,-1 -1,-1 0,1 -1,1 -4,0 -1,-1 -1,-1 0,-1 -1,-1 0,-1 -1,-1 0,-1 -1,-1 0,-4 -1,-1 -1,-1 -3,0 -1,-1 -1,-1 -1,-1 -1,-1 -1,-1 0,-4 -1,-1 -1,0 -1,-1 0,-2 -1,0 -1,-1 -1,1 -2,0 -1,1 -2,0 -1,1 -2,0 0,2 -1,1 -2,0 -1,-1 -1,0 -1,1 -2,0 -1,1 -2,0 -1,1 -3,0 -1,1 -2,0 -1,1 -2,0 -1,1 -3,0 -1,1 -4,0 -1,1 -3,0 -1,1 -4,0 -1,1 -3,0 -1,1 -3,0 -1,1 -4,0 -1,1 -3,0 -1,1 -4,0Z"/>
<path onmouseover="hoverPath(evt)" onmouseout="recoverPath(evt)" fill="rgb(241,240,234)" d="M  198,163l 0,0 -1,1 0,2 -1,1 0,1 1,0 1,1 0,2 1,1 0,1 1,0 1,1 0,2 1,1 0,1 1,1 0,1 4,0 1,1 0,2 1,1 0,2 -1,1 1,0 1,1 0,3 2,0 1,1 0,1 1,1 0,2 1,1 0,1 1,1 1,-1 5,0 1,1 2,0 1,1 1,0 1,1 1,0 1,1 1,0 1,1 1,1 1,0 1,1 1,1 1,0 1,1 2,0 1,1 2,0 1,1 1,0 1,1 1,0 1,1 1,0 1,1 1,0 1,1 1,1 1,1 1,0 0,-23 -4,0 -1,-1 -2,0 0,1 -1,1 -2,0 -1,-1 -2,0 -1,-1 0,-4 -1,-1 -1,0 -1,-1 -1,0 -1,-1 -2,0 -1,1 -4,0 -1,-1 0,-4 -1,0 -1,-1 -2,0 -1,-1 0,-1 -1,-1 -1,0 -1,-1 -1,-1 -1,0 -1,1 -4,0 -1,-1 0,-2 -1,-1 -1,0 -1,-1 -1,-1 -1,-1 0,-2 -3,0 -1,-1 -1,-1 -1,-1Z"/>
<path onmouseover="hoverPath(evt)" onmouseout="recoverPath(evt)" fill="rgb(243,242,235)" d="M  235,31l 0,3 -1,1 0,3 -1,1 0,3 -1,1 0,5 -1,1 0,3 1,1 0,5 1,1 0,3 1,1 0,3 1,1 0,3 1,1 0,2 1,1 0,1 1,1 0,1 1,1 0,1 1,1 0,1 1,1 0,1 1,1 0,2 1,1 0,2 1,1 0,1 1,1 0,1 2,0 1,-1 1,0 1,-1 1,0 1,-1 3,0 0,-81 -4,0 -1,-1 -6,0 -1,1 -1,0 -1,1 0,1 -1,1 0,2 -1,1 0,3 -1,1 0,3 -1,1 0,3 -1,1 -1,1Z"/>
</svg>