<svg width="256" height="256" xmlns="http://www.w3.org/2000/svg"><script> 
var tempColor;
function hoverPath(evt){
obj = evt.target;
tempColor = obj.getAttribute("fill");
obj.setAttribute("fill","red");
//alert(tempColor);
//obj.setAttribute("stroke","red");}
function recoverPath(evt){
obj = evt.target;
obj.setAttribute("fill", tempColor);
//obj.setAttribute("stroke", tempColor);
}</script><path onmouseover="hoverPath(evt)" onmouseout="recoverPath(evt)" fill="rgb(248,237,138)" d="M  0,12l 0,7 4,0 1,1 3,0 1,1 8,0 1,1 6,0 1,1 7,0 1,1 6,0 1,1 6,0 1,1 6,0 1,1 6,0 1,1 6,0 1,1 6,0 1,1 6,0 1,1 3,0 1,-1 4,0 1,1 0,1 1,0 0,-2 1,-1 1,-1 1,0 -1,-1 0,-4 -1,1 -3,0 -1,-1 -1,0 -1,-1 0,-1 -8,0 -1,-1 -6,0 -1,-1 -6,0 -1,-1 -6,0 -1,-1 -6,0 -1,-1 -7,0 -1,-1 -6,0 -1,-1 -4,0 -1,-1 -8,0 -1,-1 -6,0 -1,-1 -6,0 -1,-1 -4,0 -1,1 -1,0 -1,1Z"/>
<path onmouseover="hoverPath(evt)" onmouseout="recoverPath(evt)" fill="rgb(243,242,235)" d="M  1,104l -1,0 0,39 8,0 1,1 3,0 1,1 4,0 1,1 5,0 1,1 1,0 0,-1 1,-1 1,-1 3,0 1,1 0,3 2,0 1,1 6,0 1,1 1,0 0,-1 1,-1 2,0 1,1 1,0 1,1 0,1 3,0 1,1 2,0 1,1 1,0 0,-1 -1,-1 0,-2 1,-1 0,-2 1,-1 0,-2 1,-1 1,0 0,-4 1,-1 0,-1 1,-1 1,-1 0,-2 1,-1 0,-2 1,-1 0,-1 1,-1 0,-4 1,-1 1,-1 0,-2 1,-1 0,-1 -4,0 -1,-1 -1,-1 0,-1 -2,0 0,2 -1,1 -4,0 -1,-1 -4,0 -1,-1 -3,0 -1,-1 -3,0 -1,-1 0,-1 -1,0 -1,1 -3,0 -1,-1 -4,0 -1,-1 -1,-1 0,-1 -1,0 -1,1 -4,0 -1,-1 0,-2 -1,0 0,1 -1,1 -3,0 -1,-1 -3,0 -1,-1 -2,0 -1,-1 0,-2 -5,0 -1,1Z"/>
<path onmouseover="hoverPath(evt)" onmouseout="recoverPath(evt)" fill="rgb(250,250,246)" d="M  184,109l -1,0 0,2 1,1 0,3 -1,1 2,0 1,1 0,2 1,1 0,3 -1,1 2,0 1,1 0,2 1,1 0,1 1,1 0,1 1,1 0,1 1,0 1,1 3,0 1,1 2,0 1,1 3,0 1,1 2,0 1,1 3,0 1,1 2,0 1,1 4,0 1,1 3,0 1,1 3,0 1,1 0,1 6,0 1,1 0,4 2,0 1,1 1,0 0,-1 1,-1 2,0 1,-1 6,0 0,-1 -4,0 -1,-1 -3,0 -1,-1 -4,0 -1,-1 -3,0 -1,-1 -2,0 -1,-1 -3,0 -1,-1 -3,0 -1,-1 -4,0 -1,-1 -2,0 -1,-1 -3,0 -1,-1 -3,0 -1,-1 -2,0 -1,-1 -3,0 -1,-1 -2,0 -1,-1 -1,0 -1,-1 0,-1 -1,-1 0,-3 1,-1 -2,0 -1,-1 0,-2 -1,-1 0,-3 1,-1 -2,0 -1,-1 0,-2 -1,-1 0,-2 -1,-1 0,-1 66,38 0,1 1,0 1,1 0,1 1,1 2,0 0,-5 -1,0 -1,1 -3,0 -66,-38Z"/>
<path onmouseover="hoverPath(evt)" onmouseout="recoverPath(evt)" fill="rgb(252,252,249)" d="M  245,48l -1,0 1,1 10,0 0,-9 -2,0 -1,-1 0,-7 -1,-1 0,-5 -1,-1 0,-5 -1,-1 0,-6 -1,-1 0,-6 -1,-1 0,-5 -1,0 0,5 1,1 0,6 1,1 0,6 1,1 0,6 1,1 0,6 1,1 0,5 1,1 0,6 -1,1 -1,0 -1,1Z"/>
<path onmouseover="hoverPath(evt)" onmouseout="recoverPath(evt)" fill="rgb(244,243,236)" d="M  0,1l 0,8 1,0 1,-1 6,0 1,1 6,0 1,1 6,0 1,1 8,0 1,1 4,0 1,1 6,0 1,1 7,0 1,1 6,0 1,1 6,0 1,1 6,0 1,1 6,0 1,1 7,0 0,-2 1,-1 0,-4 1,-1 0,-5 1,-1 -1,-1 0,-1 -1,0 -1,-1 0,-2 -86,0 -1,1Z"/>
<path onmouseover="hoverPath(evt)" onmouseout="recoverPath(evt)" fill="rgb(244,243,236)" d="M  1,21l -1,0 0,46 5,0 1,1 2,0 1,1 1,1 0,1 1,0 1,1 3,0 1,-1 2,0 1,1 2,0 1,1 1,0 1,1 3,0 1,1 0,1 1,1 3,0 1,1 2,0 1,-1 2,0 1,1 3,0 1,1 0,2 2,0 1,1 2,0 1,1 2,0 1,1 2,0 1,-1 2,0 1,1 1,0 1,1 1,0 1,1 2,0 1,1 0,1 2,0 1,1 0,1 2,0 1,1 0,2 1,-1 0,0 1,-1 1,-1 2,0 0,-1 1,-1 0,-2 1,-1 0,-2 1,-1 1,-1 0,-2 1,-1 0,-2 1,-1 0,-5 1,-1 0,-2 1,-1 0,-2 1,-1 1,-1 0,-5 1,-1 1,-1 0,-4 -1,-1 0,-1 -1,-1 -1,-1 0,-1 -1,-1 0,-10 1,-1 0,-1 -4,0 -1,-1 -6,0 -1,-1 -6,0 -1,-1 -6,0 -1,-1 -6,0 -1,-1 -6,0 -1,-1 -6,0 -1,-1 -6,0 -1,-1 -7,0 -1,-1 -6,0 -1,-1 -8,0 -1,-1 -3,0 -1,-1Z"/>
<path onmouseover="hoverPath(evt)" onmouseout="recoverPath(evt)" fill="rgb(241,240,234)" d="M  0,73l 0,29 2,0 1,-1 7,0 1,1 0,2 2,0 1,1 3,0 1,1 1,0 0,-1 1,-1 3,0 1,1 0,2 2,0 1,-1 3,0 1,1 0,1 1,1 4,0 1,1 1,0 1,-1 3,0 1,1 0,1 3,0 1,1 3,0 1,1 4,0 1,1 2,0 0,-2 1,-1 4,0 1,1 0,1 1,1 4,0 1,1 0,-5 1,-1 0,-2 1,-1 0,-2 1,-1 0,-5 1,-1 0,-2 1,-1 0,-2 -1,1 -1,1 -1,1 -2,0 -1,-1 0,-2 -2,0 -1,-1 0,-1 -2,0 -1,-1 0,-1 -2,0 -1,-1 -1,0 -1,-1 -1,0 -1,-1 -1,1 -4,0 -1,-1 -2,0 -1,-1 -2,0 -1,-1 -2,0 -1,-1 0,-2 -3,0 -1,-1 -1,1 -4,0 -1,-1 -3,0 -1,-1 -1,-1 0,-1 -3,0 -1,-1 -1,0 -1,-1 -2,0 -1,-1 -1,1 -5,0 -1,-1 -1,0 -1,-1 0,-1 -1,-1 -2,0 -1,-1 -4,0Z"/>
<path onmouseover="hoverPath(evt)" onmouseout="recoverPath(evt)" fill="rgb(244,243,236)" d="M  1,145l -1,0 0,68 1,0 1,-1 1,0 1,-1 1,0 1,-1 2,0 1,-1 2,0 1,-1 7,0 1,1 1,1 1,1 2,0 1,1 1,-1 5,0 1,1 0,-3 1,-1 1,0 0,-2 1,-1 0,-3 1,-1 0,-2 1,-1 1,-1 0,-2 1,-1 0,-3 1,-1 0,-2 1,-1 1,0 0,-2 1,-1 0,-2 1,-1 0,-3 1,-1 0,-2 1,-1 1,0 0,-4 1,-1 0,-1 1,-1 0,-2 1,-1 1,-1 0,-2 1,-1 0,-3 1,-1 2,0 1,-1 -2,0 -1,-1 -2,0 -1,-1 -3,0 -1,-1 0,-1 -1,0 -1,-1 0,1 -1,1 -3,0 -1,-1 -6,0 -1,-1 -2,0 -1,-1 0,-3 -1,0 -1,1 0,1 -1,1 -3,0 -1,-1 -5,0 -1,-1 -4,0 -1,-1 -3,0 -1,-1Z"/>
<path onmouseover="hoverPath(evt)" onmouseout="recoverPath(evt)" fill="rgb(244,243,237)" d="M  0,221l 0,34 17,0 0,-5 1,-1 1,0 0,-4 1,-1 0,-2 1,-1 1,0 0,-4 1,-1 1,-1 0,-4 1,-1 1,0 0,-4 1,-1 1,-1 0,-4 1,-1 1,0 0,-1 -1,-1 -8,0 -1,-1 -2,0 -1,-1 -1,0 -1,-1 -1,0 -1,1 -1,0 -1,1 -1,0 -1,1 -1,0 -1,1 -1,0 -1,1 -2,0 -1,1 -1,0 -1,1Z"/>
<path onmouseover="hoverPath(evt)" onmouseout="recoverPath(evt)" fill="rgb(244,243,237)" d="M  48,217l -1,1 -1,1 0,2 -1,1 0,3 -2,2 0,2 -1,1 0,3 -1,1 0,2 -2,2 0,3 -1,1 0,2 -1,1 -1,0 0,4 -1,1 0,2 -1,1 -1,0 0,2 22,0 0,-6 1,-1 0,-9 1,-1 0,-3 1,-1 0,-1 1,-1 0,-2 1,-1 0,-1 1,-1 0,-1 1,-1 0,-2 1,-1 0,-4 -1,-1 0,-1 -2,0 -1,-1 -2,0 -1,1 -7,0 -1,1Z"/>
<path onmouseover="hoverPath(evt)" onmouseout="recoverPath(evt)" fill="rgb(244,243,235)" d="M  71,157l -1,0 0,1 -1,1 0,2 -1,1 -1,0 0,4 -1,1 0,2 -1,1 -1,0 0,4 -1,1 -1,1 0,2 -1,1 0,3 -1,1 -1,1 0,3 -1,1 -1,1 0,4 -1,1 0,2 -1,1 -1,0 0,4 -1,1 0,2 -1,1 -1,1 0,5 3,0 1,-1 3,0 1,1 5,0 1,1 1,0 1,1 1,1 0,1 1,1 0,6 -1,1 0,2 -1,1 0,3 -1,1 0,2 -1,1 0,2 -1,1 0,2 -1,1 0,3 -1,1 0,12 31,0 0,-7 -4,0 -1,-1 -6,0 -1,-1 0,-8 1,-1 2,0 1,1 0,3 1,1 0,1 7,0 0,-5 -1,-1 0,-7 -1,-1 0,-9 1,-1 0,-2 1,-1 1,-1 1,-1 1,0 1,-1 2,0 1,-1 2,0 1,-1 1,0 1,-1 1,0 1,-1 1,-1 1,-1 0,-1 1,-1 0,-1 1,-1 0,-2 1,-1 0,-1 -1,-1 0,0 -1,-1 -1,0 -1,-1 -3,0 -1,-1 -3,0 -1,-1 -1,-1 -1,-1 -1,-1 0,-3 -1,-1 0,-21 1,-1 0,-4 -6,0 -1,-1 -1,0 -1,-1 0,-1 -1,0 -1,1 -5,0 -1,-1 -6,0 -1,-1Z"/>
<path onmouseover="hoverPath(evt)" onmouseout="recoverPath(evt)" fill="rgb(182,152,237)" d="M  102,0l -13,0 0,1 1,0 1,1 0,1 1,1 0,2 -1,1 0,5 -1,1 0,4 -1,1 0,3 1,0 1,1 1,0 1,-1 2,0 1,1 0,4 1,1 0,2 -1,1 -1,0 -1,1 0,2 -1,1 -3,0 -1,-1 0,-1 -2,0 0,3 -1,1 0,8 1,1 0,1 1,1 1,1 0,1 1,1 0,6 -1,1 -1,1 0,5 -1,1 -1,1 0,2 -1,1 0,2 -1,1 0,5 -1,1 0,2 -1,1 0,2 -1,1 -1,1 0,2 -1,1 0,2 -1,1 0,1 -1,1 0,3 -1,1 0,2 -1,1 0,5 -1,1 0,2 -1,1 0,2 -1,1 0,5 -1,1 -1,0 0,1 -1,1 0,2 -1,1 -1,1 0,4 -1,1 0,1 -1,1 0,2 -1,1 0,2 -1,1 -1,1 0,1 -1,1 0,4 -1,1 -1,0 0,2 -1,1 0,2 -1,1 1,1 0,5 -1,1 -1,1 -2,0 0,3 -1,1 0,2 -1,1 -1,1 0,2 -1,1 0,1 -1,1 0,4 -1,1 -1,0 0,2 -1,1 0,3 -1,1 0,2 -1,1 0,2 -1,1 -1,0 0,2 -1,1 0,3 -1,1 0,2 -1,1 -1,1 0,2 -1,1 0,3 -1,1 0,2 -1,1 -1,0 0,3 -1,1 -2,0 -1,-1 -3,0 -1,1 -2,0 -1,-1 -2,0 -1,-1 -1,-1 -1,-1 -5,0 -1,1 -2,0 -1,1 -2,0 -1,1 -1,0 -1,1 -1,0 -1,1 -2,0 0,3 1,0 1,-1 2,0 1,-1 1,0 1,-1 1,0 1,-1 1,0 1,-1 1,0 1,-1 3,0 1,1 1,0 1,1 2,0 1,1 8,0 1,1 1,1 0,3 -1,1 -1,0 0,4 -1,1 -1,1 0,4 -1,1 -1,0 0,4 -1,1 -1,1 0,4 -1,1 -1,0 0,2 -1,1 0,4 -1,1 -1,0 0,4 12,0 0,-3 1,-1 1,0 0,-2 1,-1 0,-4 1,-1 1,0 0,-2 1,-1 0,-3 1,-1 1,-1 0,-2 1,-1 0,-3 1,-1 0,-2 1,-1 1,-1 0,-3 1,-1 0,-2 1,-1 1,-1 0,-2 1,-1 2,0 0,-8 1,-1 1,-1 0,-2 1,-1 0,-4 1,-1 1,0 0,-2 1,-1 0,-4 1,-1 1,-1 0,-3 1,-1 1,-1 0,-3 1,-1 0,-2 1,-1 1,-1 0,-4 1,-1 1,0 0,-2 1,-1 0,-4 1,-1 1,0 0,-2 1,-1 -1,0 -1,-1 0,-2 1,-1 1,-1 2,0 0,-2 1,-1 0,-4 1,-1 1,0 0,-2 1,-1 0,-4 1,-1 0,-1 1,-1 0,-2 1,-1 1,-1 0,-4 1,-1 0,-1 1,-1 1,-1 0,-2 -1,-1 0,-3 1,-1 1,-1 1,0 1,-1 0,-2 1,-1 0,-2 1,-1 0,-2 1,-1 0,-4 1,-1 1,0 0,-3 1,-1 0,-4 1,-1 1,-1 0,-2 1,-1 0,-2 1,-1 0,-4 1,-1 0,-1 1,-1 0,-2 1,-1 1,-1 0,-2 1,-1 0,-7 1,-1 1,-1 2,0 1,1 1,1 0,1 1,1 1,1 0,1 1,1 0,1 1,1 0,5 -1,1 0,2 -1,1 0,1 -1,1 -1,1 0,1 -1,1 0,1 -1,1 0,1 -1,1 0,1 -1,1 0,5 1,1 0,1 1,1 1,0 1,1 1,0 1,1 1,0 1,1 1,0 1,1 1,1 0,3 2,0 1,-1 0,-1 1,-1 0,-1 -1,-1 0,0 -1,-1 -1,0 -1,-1 -1,0 -1,-1 -1,0 -1,-1 -1,0 -1,-1 -1,-1 -1,-1 0,-5 1,-1 0,-1 1,-1 0,-1 1,-1 0,-1 1,-1 1,-1 0,-1 1,-1 0,-1 1,-1 0,-8 -1,-1 0,-1 -1,-1 0,-1 -1,-1 -1,-1 0,-1 -1,-1 -1,-1 -1,-1 0,-1 -2,0 -1,-1 0,-2 1,-1 0,-1 1,-1 0,-5 1,-1 0,-2 1,-1 0,-5 1,-1 -1,0 -1,-1 0,-2 1,-1 0,-2 1,-1 1,0 0,-3 1,-1 0,-2 -1,-1 0,-2 1,-1 1,0 0,-1 -1,-1 0,-2 1,-1 1,0 0,-1 -1,-1 0,-2 1,-1 1,0 0,-1 -1,-1 0,-2 1,-1 1,0 0,-4 -10,0 -52,213 0,1 5,0 1,-1 4,0 1,1 2,0 1,1 0,1 1,1 0,6 -1,1 0,2 -1,1 0,1 -1,1 0,1 -1,1 0,2 -1,1 0,1 -1,1 0,3 -1,1 0,9 -1,1 0,5 3,0 0,-13 1,-1 0,-3 1,-1 0,-2 1,-1 0,-2 1,-1 0,-2 1,-1 0,-3 1,-1 0,-2 1,-1 0,-4 -1,-1 0,-1 -1,-1 -1,0 -1,-1 -13,0 52,-213 -45,212 -1,0 -1,1 -4,0 6,-1 45,-212Z"/>
<path onmouseover="hoverPath(evt)" onmouseout="recoverPath(evt)" fill="rgb(240,239,233)" d="M  106,153l 0,0 -1,1 0,1 -1,1 0,4 -1,1 6,0 1,1 4,0 1,1 2,0 1,-1 3,0 1,1 0,1 3,0 1,1 3,0 1,1 2,0 1,-1 1,0 0,-1 1,-1 3,0 1,1 1,1 1,1 0,-1 1,-1 3,0 1,1 2,0 1,1 0,3 2,0 1,1 6,0 1,1 4,0 1,1 4,0 1,1 5,0 1,1 1,0 0,-1 1,-1 2,0 1,1 2,0 1,1 0,1 2,0 1,1 5,0 1,1 4,0 0,-2 1,-1 3,0 1,1 1,1 0,4 2,0 1,1 0,1 1,-1 4,0 1,1 1,1 0,1 1,0 0,-1 1,-1 -1,-1 0,-2 1,-1 3,0 0,-1 1,-1 2,0 1,1 1,1 0,3 -1,1 0,1 -1,1 0,1 2,0 1,1 2,0 1,-1 2,0 -2,-1 0,-2 1,-1 12,0 0,-3 1,-1 1,0 0,-1 -2,0 -1,-1 0,-1 -1,0 -1,-1 -1,-1 0,-1 -1,0 -1,-1 -1,0 0,1 -1,1 -1,1 -2,0 -1,-1 -1,-1 -2,0 -1,-1 -1,0 -1,-1 0,-1 -1,-1 -2,0 -1,1 -2,0 -1,-1 -2,0 -1,-1 -1,0 -1,-1 -1,0 -1,-1 0,-2 -3,0 -1,-1 -2,0 -1,-1 -1,0 -1,1 -3,0 -1,-1 -2,0 -1,-1 -2,0 -1,-1 0,-2 -2,0 -1,-1 -1,-1 0,-1 -2,0 -1,-1 0,1 -1,1 0,0 -1,1 -3,0 -1,-1 -3,0 -1,-1 -1,0 -1,-1 0,-2 -3,0 -1,1 -3,0 -1,-1 -4,0 -1,-1 -1,0 -1,-1 -1,0 -1,-1 -1,0 -1,-1 0,-2 -3,0 -1,-1 0,-3 -1,0 -1,-1 -1,0 0,1 -1,1 -3,0 -1,-1 -1,0 -1,-1 -1,0 -1,-1 0,-2 1,-1 0,-1 -1,1 -6,0 -1,-1 0,-4 -1,0 -1,-1 0,-1 -2,0 0,2 -1,1 -2,0 -1,-1 -1,0 -1,-1 0,-2 -1,-1 0,-2 -1,3 -8,0 0,1 -1,1 1,1 0,1 1,1 0,1 1,0 1,1 1,0 1,1 1,1 1,0 1,1 1,1 1,1 0,6 -3,3 -1,0 -1,1 -1,1 -1,0 -1,1 -1,1 -1,0 -1,1Z"/>
<path onmouseover="hoverPath(evt)" onmouseout="recoverPath(evt)" fill="rgb(244,243,235)" d="M  108,37l 0,0 -1,1 0,5 -1,1 0,2 -1,1 0,5 -1,1 0,1 -1,1 2,0 1,1 0,1 1,1 1,1 1,1 0,1 1,1 1,1 0,1 1,1 0,1 1,1 0,10 -1,1 0,1 -1,1 0,1 -2,2 0,1 -1,1 0,1 -1,1 0,1 -1,1 0,3 1,1 0,0 1,1 1,0 1,1 1,0 1,1 1,0 1,1 1,0 1,1 1,1 1,1 0,3 -1,1 0,1 -1,1 1,0 1,1 0,1 1,0 1,1 2,0 1,1 2,0 1,1 1,-1 3,0 1,1 1,0 1,1 2,0 1,1 1,1 0,2 4,0 1,1 0,1 7,0 1,1 1,0 1,1 1,0 1,1 1,1 0,2 1,0 1,1 0,1 1,0 1,1 0,-1 1,-1 2,0 1,1 4,0 1,1 1,0 1,1 2,0 1,1 0,4 -1,1 1,0 1,1 1,0 1,1 0,1 1,0 1,1 2,0 0,-1 1,-1 3,0 1,1 3,0 1,1 0,2 1,-1 0,-6 -1,-1 0,-1 -1,-1 0,-1 -1,-1 0,-2 -2,0 -1,-1 0,-2 1,-1 0,-1 -1,-1 0,-2 -2,0 -1,-1 0,-2 1,-1 0,-1 -1,-1 0,-5 1,-1 0,-1 -1,-1 0,-2 -1,-1 0,-1 -2,0 -1,-1 0,-1 -1,-1 0,-3 1,-1 0,-1 -2,0 -1,-1 0,-2 1,-1 -2,0 -1,-1 0,-3 1,-1 -2,0 -1,-1 0,-3 1,-1 -2,0 -1,-1 0,-1 -1,-1 0,-2 -1,-1 0,-2 -1,-1 0,-2 -1,-1 0,-3 1,-1 0,-1 -1,-1 0,-2 -2,0 -1,-1 0,-2 1,-1 -1,-1 0,-6 1,-1 1,0 1,-1 1,0 1,-1 -7,0 -1,-1 -6,0 -1,-1 -7,0 -1,-1 -6,0 -1,-1 -6,0 -1,-1 -6,0 -1,-1 -6,0 -1,-1Z"/>
<path onmouseover="hoverPath(evt)" onmouseout="recoverPath(evt)" fill="rgb(243,242,235)" d="M  114,1l 0,4 -1,1 0,4 -1,1 -1,0 1,1 0,3 -1,1 0,4 -1,1 -1,0 1,1 0,1 5,0 1,1 6,0 1,1 7,0 1,1 6,0 1,1 6,0 1,1 3,0 0,-2 1,-1 0,-6 1,-1 0,-6 1,-1 0,-6 1,-1 0,-4 -37,0 -1,1Z"/>
<path onmouseover="hoverPath(evt)" onmouseout="recoverPath(evt)" fill="rgb(244,243,236)" d="M  159,0l -5,0 0,5 -1,1 0,6 -1,1 0,6 -1,1 0,6 -1,1 0,2 8,0 1,1 6,0 1,1 6,0 1,1 5,0 1,1 5,0 1,1 4,0 1,1 4,0 1,1 3,0 1,1 3,0 1,1 4,0 1,1 4,0 1,1 4,0 1,1 4,0 1,1 3,0 1,1 3,0 1,1 3,0 1,1 3,0 1,1 1,0 1,-1 0,0 1,-1 7,0 1,1 0,-4 -1,-1 0,-5 -1,-1 0,-6 -1,-1 0,-6 -1,-1 0,-6 -1,-1 0,-6 -1,-1 0,-6Z"/>
<path onmouseover="hoverPath(evt)" onmouseout="recoverPath(evt)" fill="rgb(244,243,236)" d="M  164,48l -1,0 0,4 1,1 0,2 -1,1 2,0 1,1 0,2 1,1 0,3 -1,1 0,1 1,1 0,2 1,1 0,2 1,1 0,2 1,1 0,1 2,0 1,1 0,2 -1,1 0,1 2,0 1,1 0,2 -1,1 0,1 2,0 1,1 0,2 -1,1 2,0 1,1 0,3 -1,1 0,1 1,1 0,1 2,0 1,1 0,1 1,1 0,2 1,1 0,2 1,1 1,1 0,1 1,1 0,2 1,1 0,2 2,0 1,1 0,2 -1,1 0,1 1,1 0,2 2,0 1,1 0,2 -1,1 0,1 1,1 0,1 1,0 1,1 2,0 1,1 3,0 1,1 2,0 1,1 3,0 1,1 3,0 1,1 2,0 1,1 4,0 1,1 3,0 1,1 3,0 1,1 2,0 1,1 3,0 1,1 4,0 1,1 3,0 1,1 4,0 1,1 1,0 1,-1 2,0 0,-82 -1,0 -1,1 -3,0 -1,-1 -3,0 -1,-1 -2,0 -1,-1 -3,0 -1,-1 -3,0 -1,-1 -3,0 -1,-1 -3,0 -1,-1 -3,0 -1,-1 -3,0 -1,-1 -4,0 -1,-1 -4,0 -1,-1 -3,0 -1,-1 -4,0 -1,-1 -4,0 -1,-1 -3,0 -1,-1 -10,0 -1,-1 0,-2 -10,0 -1,1 -1,0 -1,1 -1,0 -1,1Z"/>
<path onmouseover="hoverPath(evt)" onmouseout="recoverPath(evt)" fill="rgb(240,239,234)" d="M  83,122l 0,1 -1,1 -1,1 0,1 -1,1 0,4 -1,1 -1,1 0,2 -1,1 0,1 -1,1 0,4 -1,1 0,2 -1,1 -1,0 0,4 -1,1 0,2 -1,1 -2,0 -1,1 6,0 1,1 3,0 1,-1 2,0 1,1 0,1 3,0 1,-1 3,0 1,1 0,1 1,0 1,1 10,0 -4,-1 0,-4 1,-1 0,-1 1,-1 0,-1 1,-1 1,-1 1,-1 1,0 1,-1 1,0 1,-1 1,0 1,-1 1,0 0,-1 1,-1 -1,-1 0,0 -1,-1 -1,0 -1,-1 -1,-1 -1,-1 -1,0 -1,-1 -1,-1 -1,-1 -1,-1 0,-7 1,-1 0,-3 1,-1 5,0 0,-1 1,-1 0,-2 1,-1 0,-1 1,-1 0,-1 1,-1 0,-1 1,-1 1,-1 3,0 0,-1 -1,0 -1,-1 -3,0 -1,-1 0,-3 -1,-1 -1,0 -1,-1 -1,0 -1,-1 -1,0 -1,-1 -1,0 -1,-1 -1,-1 0,-1 -1,-1 0,-7 1,-1 0,-1 1,-1 0,-1 1,-1 0,-1 1,-1 0,-1 1,-1 1,-1 0,-1 1,-1 0,-2 1,-1 0,-3 -1,-1 0,-1 -1,-1 0,-1 -1,-1 -1,-1 0,-1 -1,-1 -1,1 0,7 -1,1 0,2 -1,1 -1,1 0,2 -1,1 0,1 -1,1 0,4 -1,1 0,2 -1,1 0,2 -1,1 -1,1 0,4 -1,1 0,3 -1,1 -1,0 0,4 -1,1 0,2 -1,1 0,2 -1,1 0,2 -1,1 -1,1 -1,0 -1,1 0,1 1,1Z"/>
<path onmouseover="hoverPath(evt)" onmouseout="recoverPath(evt)" fill="rgb(243,242,233)" d="M  99,250l 0,5 83,0 0,-1 -1,-1 0,-2 1,-1 0,-2 -1,-1 0,-1 -1,-1 0,-2 -2,0 -1,-1 0,-2 1,-1 -5,0 -1,1 -7,0 -1,1 -7,0 -1,1 -5,0 -1,1 -14,0 -1,-1 -6,0 0,2 -1,1 -9,0 -1,-1 -7,0 0,2 -1,1 -7,0 -1,1 -3,0Z"/>
<path onmouseover="hoverPath(evt)" onmouseout="recoverPath(evt)" fill="rgb(180,204,239)" d="M  109,194l 0,0 1,1 1,0 1,1 1,1 1,1 0,3 -1,1 0,2 -1,1 0,1 -1,1 0,1 -1,1 -1,1 -1,1 -1,1 -1,0 -1,1 -1,0 -1,1 -2,0 -1,1 -2,0 -1,1 -1,0 -1,1 -1,1 0,2 -1,1 0,7 1,1 0,7 1,1 0,7 -1,1 -9,0 -1,-1 0,-1 -1,-1 0,3 1,0 6,1 4,0 1,1 0,8 2,0 0,-8 1,-1 3,0 -4,-1 0,-9 -1,-1 0,-9 -1,-1 0,-3 1,-1 0,-1 1,-1 1,-1 1,-1 1,0 1,-1 1,0 1,-1 1,0 1,-1 2,0 1,-1 1,0 1,-1 1,-1 1,-1 0,-1 1,-1 0,-1 1,-1 0,-2 1,-1 0,-7 -1,-1 -1,0 -1,-1 -1,0 -1,-1 -1,1 -1,-1 -1,0 -1,-1 -2,0 -1,-1 -1,-1 -1,-1 0,-2 -1,-1 0,-22 1,-1 0,-2 -2,0 0,5 -1,1 0,19 1,1 0,3 1,1 1,1 1,1 3,0 1,1 1,0 1,-1 1,1Z"/>
<path onmouseover="hoverPath(evt)" onmouseout="recoverPath(evt)" fill="rgb(238,237,222)" d="M  254,34l 0,4 1,0 0,-3 -1,-1 1,-4 0,-30 -6,0 0,4 1,1 0,6 1,1 0,6 1,1 0,5 1,1 0,4 2,1 -1,4Z"/>
<path onmouseover="hoverPath(evt)" onmouseout="recoverPath(evt)" fill="rgb(243,242,235)" d="M  101,219l -1,0 -1,1 -1,1 0,1 -1,1 0,1 1,1 0,9 1,1 0,9 3,0 1,1 6,0 0,-2 1,-1 9,0 1,1 7,0 0,-2 1,-1 7,0 1,-1 5,0 1,-1 2,0 0,-3 -1,-1 0,-3 -1,-1 0,-4 -1,-1 0,-3 -1,-1 0,-4 -1,-1 0,-3 -1,-1 0,-5 1,-1 1,-1 2,0 1,1 0,4 1,1 0,3 1,1 0,4 1,1 0,3 1,1 0,4 1,1 0,3 1,1 0,3 1,1 4,0 1,-1 7,0 1,-1 7,0 1,-1 11,0 1,1 0,1 1,1 0,1 1,0 1,1 8,0 1,1 11,0 1,1 12,0 1,1 12,0 1,1 8,0 1,1 8,0 1,1 4,0 0,-62 -27,0 2,1 0,2 -1,1 -2,0 -1,1 -4,0 -1,-1 -2,0 -1,-1 0,-3 1,-1 0,-1 1,-1 0,-1 -1,-1 0,1 -1,1 -3,0 1,1 0,2 -1,1 0,1 -1,1 -3,0 -1,-1 0,-1 -1,-1 -2,0 -1,1 -2,0 -1,-1 0,-1 -2,0 -1,-1 0,-4 -1,-1 -1,0 0,2 -1,1 -6,0 -1,-1 -5,0 -1,-1 -2,0 -1,-1 0,-1 -2,0 -1,-1 0,1 -1,1 -3,0 -1,-1 -5,0 -1,-1 -4,0 -1,-1 -4,0 -1,-1 -6,0 -1,-1 -2,0 -1,-1 0,-3 -2,0 -1,-1 -1,0 0,1 -1,1 -2,0 -1,-1 -1,-1 -1,-1 -1,0 0,1 -1,1 -1,0 -1,1 -4,0 -1,-1 -3,0 -1,-1 -3,0 -1,-1 0,-1 -1,0 -1,1 -4,0 -1,-1 -4,0 -1,-1 -5,0 0,1 -1,1 0,20 1,1 0,2 1,1 1,1 2,0 1,1 3,0 1,1 1,0 1,1 1,0 1,1 1,1 0,9 -1,1 0,2 -1,1 0,1 -1,1 0,1 -1,1 -1,1 -1,1 -1,1 -1,0 -1,1 -2,0 -1,1 -1,0 -1,1 -1,0 -1,1Z"/>
<path onmouseover="hoverPath(evt)" onmouseout="recoverPath(evt)" fill="rgb(248,237,139)" d="M  109,27l 0,3 -1,1 -1,0 0,2 -1,1 1,0 1,1 8,0 1,1 6,0 1,1 6,0 1,1 6,0 1,1 6,0 1,1 7,0 1,1 6,0 1,1 8,0 1,1 11,0 1,1 0,2 10,0 1,1 3,0 1,1 4,0 1,1 4,0 1,1 3,0 1,1 4,0 1,1 4,0 1,1 3,0 1,1 3,0 1,1 3,0 1,1 3,0 1,1 3,0 1,1 3,0 1,1 2,0 1,1 3,0 1,1 1,0 1,-1 2,0 0,-9 -11,0 -1,-1 -1,-1 0,-2 -1,1 -3,0 -1,-1 -3,0 -1,-1 -3,0 -1,-1 -3,0 -1,-1 -3,0 -1,-1 -4,0 -1,-1 -4,0 -1,-1 -4,0 -1,-1 -4,0 -1,-1 -3,0 -1,-1 -3,0 -1,-1 -4,0 -1,-1 -4,0 -1,-1 -5,0 -1,-1 -5,0 -1,-1 -6,0 -1,-1 -6,0 -1,-1 -8,0 -1,-1 -4,0 -1,-1 -6,0 -1,-1 -6,0 -1,-1 -7,0 -1,-1 -6,0 -1,-1 -4,0 0,1 -1,1Z"/>
<path onmouseover="hoverPath(evt)" onmouseout="recoverPath(evt)" fill="rgb(171,198,238)" d="M  109,147l -1,0 -1,1 -1,0 -1,1 -1,0 -1,1 -1,1 0,1 -1,1 0,1 -1,1 0,2 2,0 0,-2 1,-1 0,-1 1,-1 1,-1 1,-1 1,0 1,-1 1,-1 0,-1 1,-1 1,1 0,0 1,-1 1,0 1,-1 1,-1 0,-4 -1,-1 0,0 -1,-1 -1,0 -1,-1 -1,-1 -1,0 -1,-1 -1,0 -1,-1 0,-1 -1,-1 0,-1 -1,-1 0,-2 1,-1 0,-1 1,-1 -3,0 0,1 -1,1 0,5 1,1 0,0 1,1 1,1 1,0 1,1 1,1 1,1 1,0 1,1 1,1 1,1 0,2 -1,1 0,1 -1,1 -1,0 -1,1Z"/>
<path onmouseover="hoverPath(evt)" onmouseout="recoverPath(evt)" fill="rgb(236,236,230)" d="M  135,132l 1,0 1,1 0,3 -1,1 1,0 1,1 1,0 1,1 1,0 0,-1 1,-1 3,0 1,1 1,0 1,1 0,3 3,0 1,1 0,2 1,0 1,1 1,0 1,1 1,0 1,1 1,0 1,-1 2,0 1,1 0,1 1,0 1,-1 5,0 1,1 0,2 1,0 1,1 3,0 1,1 1,0 1,-1 0,-1 1,-1 2,0 1,1 2,0 1,1 0,1 1,1 2,0 1,1 0,2 2,0 1,1 2,0 1,1 1,0 1,-1 3,0 1,1 2,0 1,1 3,0 1,1 0,2 1,0 1,1 1,0 1,1 2,0 1,1 1,-1 4,0 1,1 1,1 0,1 1,0 1,1 2,0 1,1 1,1 1,-1 0,-1 1,-1 3,0 1,1 1,0 1,1 0,1 1,1 1,0 1,1 0,1 2,0 1,1 0,3 -1,1 -1,0 0,2 14,0 0,-28 -3,0 -1,-1 -1,-1 0,-1 -1,0 -1,-1 -4,0 -1,1 -2,0 0,1 -1,1 -3,0 -1,-1 -2,0 -1,-1 0,-4 -8,0 0,2 -1,1 -3,0 -1,-1 -4,0 -1,-1 -2,0 -1,1 -1,0 0,1 -1,1 -5,0 -1,-1 -1,0 -1,-1 -1,0 -1,-1 -1,-1 0,-2 -1,-1 0,-1 -3,0 -1,-1 -1,-1 0,-2 1,-1 1,-1 -2,0 -1,-1 0,5 -1,1 -1,1 -2,0 -1,-1 0,-2 -3,0 -1,-1 -1,0 0,1 -1,1 -4,0 -1,-1 -1,0 -1,-1 0,-1 -1,0 -1,-1 -1,0 -1,-1 0,-2 1,-1 0,-2 -2,0 -1,-1 -1,0 -1,-1 -1,0 -1,1 -2,0 -1,-1 0,0 -1,1 -2,0 -1,-1 -1,0 -1,-1 0,-1 -1,0 -1,-1 0,-2 -1,-1 -1,0 -1,-1 -1,0 -1,-1 -7,0 -1,-1 0,-1 -4,0 -1,-1 0,-2 -1,-1 -2,0 -1,-1 -1,0 -1,-1 -1,0 -1,1 -2,0 -1,-1 -2,0 -1,-1 -2,0 -1,-1 -1,1 -3,0 -1,1 0,1 -1,1 0,1 -1,1 0,1 -1,1 0,2 -1,1 0,1 -1,1 -5,0 5,1 0,1 6,0 0,-2 1,-1 2,0 1,1 0,2 1,1 0,2 1,0 1,1 0,-2 1,-1 4,0 1,1 0,1 1,0 1,1 0,4 4,0 1,-1Z"/>
<path onmouseover="hoverPath(evt)" onmouseout="recoverPath(evt)" fill="rgb(253,253,252)" d="M  141,208l -1,0 0,3 1,1 0,3 1,1 0,4 1,1 0,3 1,1 0,4 1,1 0,3 1,1 0,5 -1,1 -2,0 -1,1 7,0 1,-1 5,0 1,-1 7,0 1,-1 7,0 1,-1 7,0 1,1 0,2 -1,1 2,0 1,1 0,2 1,1 0,1 1,1 0,4 -1,1 1,1 0,2 3,0 0,-2 -1,-1 0,-2 -1,-1 0,-2 -1,-1 0,-2 1,-1 1,-1 6,0 1,1 11,0 1,1 12,0 1,1 12,0 1,1 9,0 1,1 6,0 1,1 7,0 0,-1 -5,0 -1,-1 -8,0 -1,-1 -8,0 -1,-1 -12,0 -1,-1 -12,0 -1,-1 -11,0 -1,-1 -8,0 -1,-1 -1,0 -1,-1 0,-1 -1,-1 0,-1 -9,0 -1,1 -7,0 -1,1 -7,0 -1,1 -6,0 -1,-1 -1,-1 0,-3 -1,-1 0,-3 -1,-1 0,-4 -1,-1 0,-3 -1,-1 0,-4 -1,-1 0,-3 -1,-1Z"/>
<path onmouseover="hoverPath(evt)" onmouseout="recoverPath(evt)" fill="rgb(223,222,213)" d="M  211,141l 0,0 -1,-1 -3,0 -1,-1 -2,0 -1,-1 -3,0 -1,-1 -1,0 -1,1 -1,0 -1,1 1,1 3,0 1,1 0,1 1,1 0,2 1,1 1,0 1,1 1,0 1,1 3,0 0,-1 1,-1 1,0 1,-1 4,0 1,1 4,0 1,1 1,0 0,-2 1,-1 -1,0 -1,-1 -3,0 -1,-1 -4,0 -1,-1Z"/>
<path onmouseover="hoverPath(evt)" onmouseout="recoverPath(evt)" fill="rgb(238,238,228)" d="M  247,250l 0,0 -1,-1 -6,0 -1,-1 -9,0 -1,-1 -12,0 -1,-1 -12,0 -1,-1 -11,0 -1,-1 -4,0 -1,1 1,1 0,2 1,1 0,2 1,1 0,3 66,0 0,-5Z"/>
</svg>