<svg width="256" height="256" xmlns="http://www.w3.org/2000/svg"><script> 
var tempColor;
function hoverPath(evt){
obj = evt.target;
tempColor = obj.getAttribute("fill");
obj.setAttribute("fill","red");
//alert(tempColor);
//obj.setAttribute("stroke","red");}
function recoverPath(evt){
obj = evt.target;
obj.setAttribute("fill", tempColor);
//obj.setAttribute("stroke", tempColor);
}</script><path onmouseover="hoverPath(evt)" onmouseout="recoverPath(evt)" fill="rgb(244,243,235)" d="M  0,80l 0,60 3,0 1,1 1,1 1,0 1,1 1,1 1,1 1,1 1,0 1,1 1,1 0,1 1,1 1,1 1,1 0,1 1,1 0,1 1,1 1,1 0,1 1,1 1,1 0,1 1,1 0,1 1,1 1,1 0,1 1,1 0,1 1,1 1,1 0,1 1,1 1,1 0,1 1,1 1,1 0,1 1,1 0,1 1,1 1,1 0,1 1,1 1,1 0,1 1,1 1,1 0,1 1,1 0,1 1,1 1,1 1,0 1,1 3,0 1,-1 4,0 1,-1 3,0 1,-1 3,0 1,-1 2,0 1,-1 2,0 1,-1 2,0 1,-1 1,-1 1,0 0,-6 -1,5 -3,0 -1,-1 0,-7 1,-1 0,-8 -7,0 -1,1 -13,0 -1,1 -2,0 -1,-1 0,-4 1,-1 13,0 1,-1 9,0 1,-1 1,0 0,-5 1,-1 0,-8 1,-1 0,-9 1,-1 0,-8 1,-1 0,-8 1,-1 0,-9 1,-1 0,-8 1,-1 0,-7 1,-1 0,-8 -4,0 -1,-1 -12,0 -1,-1 -14,0 -1,-1 -13,0 -1,-1 -14,0 -1,-1 -14,0Z"/>
<path onmouseover="hoverPath(evt)" onmouseout="recoverPath(evt)" fill="rgb(254,254,254)" d="M  44,166l 0,1 1,-1 13,0 1,-1 9,0 1,1 0,10 -1,1 0,5 1,0 0,-4 1,-1 0,-9 1,-1 0,-9 1,-1 0,-9 1,-1 0,-8 1,-1 0,-8 1,-1 0,-9 1,-1 0,-8 1,-1 0,-8 1,-1 0,-8 1,-1 0,-8 1,-1 0,-1 1,-1 7,0 1,1 14,0 1,1 15,0 1,1 25,0 1,1 20,0 0,-1 -15,0 -1,-1 -28,0 -1,-1 -16,0 -1,-1 -14,0 -1,-1 -8,0 -1,-1 0,-1 -1,-1 0,-4 1,-1 0,-20 1,-1 0,-12 1,-1 0,-13 1,-1 0,-12 1,-1 0,-11 -1,0 0,10 -1,1 0,12 -1,1 0,13 -1,1 0,12 -1,1 0,17 -1,1 0,9 -1,1 -16,0 -1,-1 -14,0 -1,-1 -13,0 -1,-1 -14,0 -1,-1 -13,0 -1,-1 -2,0 0,2 15,0 1,1 14,0 1,1 13,0 1,1 14,0 1,1 12,0 1,1 4,0 1,1 0,10 -1,1 0,7 -1,1 0,8 -1,1 0,9 -1,1 0,8 -1,1 0,8 -1,1 0,9 -1,1 0,8 -1,1 0,5 -1,1 -1,0 -1,1 -9,0 -1,1 -12,0 -1,1Z"/>
<path onmouseover="hoverPath(evt)" onmouseout="recoverPath(evt)" fill="rgb(244,243,235)" d="M  81,86l 0,7 -1,1 0,8 -1,1 0,8 -1,1 0,8 -1,1 0,9 -1,1 0,8 -1,1 0,8 -1,1 0,9 -1,1 0,9 -1,1 0,8 1,1 0,5 1,0 2,-2 1,0 1,-1 1,-1 1,-1 1,0 1,-1 1,-1 1,0 1,-1 1,-1 1,0 1,-1 1,-1 1,0 1,-1 1,0 1,-1 7,0 1,1 1,0 1,1 1,0 1,1 1,1 1,1 1,1 1,1 1,1 3,3 1,1 1,1 1,1 1,1 1,1 1,1 1,1 1,1 1,1 1,1 1,1 1,1 1,1 1,1 1,1 1,1 1,1 1,1 1,1 1,1 1,1 1,1 1,1 1,1 1,1 1,1 1,1 1,1 1,1 1,1 1,1 1,1 1,1 1,0 1,1 3,0 1,-1 2,0 1,-1 1,-1 1,-1 1,-1 1,-1 1,-1 0,-17 1,-1 0,-19 1,-1 0,-23 1,-1 0,-16 1,-1 0,-22 1,-1 0,-19 -20,0 -1,-1 -25,0 -1,-1 -15,0 -1,-1 -14,0 -1,-1 -5,0 0,1 -1,1Z"/>
<path onmouseover="hoverPath(evt)" onmouseout="recoverPath(evt)" fill="rgb(243,241,232)" d="M  83,230l -1,0 0,3 1,1 0,6 1,1 0,6 1,1 0,7 73,0 0,-10 1,-1 0,-18 -9,0 -1,1 -24,0 -1,1 -10,0 0,1 -1,1 0,6 -1,1 -1,1 -1,0 -1,1 -1,0 -1,1 -2,0 -1,1 -2,0 -1,-1 0,-2 1,-1 -6,0 -1,-1 0,-2 1,-1 5,0 1,-1 2,0 1,1 4,0 0,-4 -1,-1 -5,0 -1,1 -18,0 -1,1Z"/>
<path onmouseover="hoverPath(evt)" onmouseout="recoverPath(evt)" fill="rgb(244,243,236)" d="M  177,90l 0,31 -1,1 0,15 -1,1 0,21 -1,1 0,20 -1,1 0,15 1,-1 0,0 1,-1 1,-1 1,-1 1,-1 1,-1 1,-1 1,0 1,-1 1,-1 1,0 1,-1 1,-1 1,0 1,-1 1,0 1,-1 1,0 1,-1 1,-1 1,0 1,-1 1,0 1,-1 1,0 1,-1 1,0 1,-1 1,0 1,-1 1,0 1,-1 1,0 1,-1 2,0 1,-1 1,0 1,-1 2,0 1,-1 2,0 1,-1 2,0 1,-1 2,0 1,-1 1,0 1,-1 2,0 1,-1 2,0 1,-1 1,0 1,-1 2,0 1,-1 1,0 1,-1 2,0 1,-1 1,0 1,-1 1,0 1,-1 1,0 1,-1 1,0 1,-1 1,-1 1,0 1,-1 2,0 0,-136 -15,0 -1,-1 -8,0 -1,-1 -4,0 -1,-1 -3,0 -1,-1 -3,0 -1,-1 -3,0 -1,-1 -3,0 -1,-1 -2,0 -1,-1 -2,0 -1,-1 -2,0 -1,-1 -2,0 -1,-1 -2,0 -1,-1 -2,0 -1,-1 -2,0 -1,-1 -2,0 -1,-1 -2,0 -1,-1 -2,0 0,14 1,1 0,5 -1,1 0,28 -1,1 0,13 -1,1 0,16 7,0 1,1 9,0 1,1 10,0 1,1 9,0 1,1 10,0 1,1 3,0 1,1 0,3 -1,1 -6,0 -1,-1 -9,0 -1,-1 -10,0 -1,-1 -9,0 -1,-1 -10,0 -1,-1 -6,0 1,1Z"/>
<path onmouseover="hoverPath(evt)" onmouseout="recoverPath(evt)" fill="rgb(245,244,237)" d="M  183,196l -3,3 -1,1 -1,1 -1,1 -2,2 -1,1 -1,1 -1,1 0,10 -1,1 0,1 1,1 0,6 -1,1 0,13 -1,1 0,14 85,0 0,-91 -2,0 -1,1 -1,0 -1,1 -1,0 -1,1 -1,0 -1,1 -2,0 -1,1 -1,0 -1,1 -2,0 -1,1 -1,0 -1,1 -2,0 -1,1 -2,0 -1,1 -2,0 -1,1 -1,0 -1,1 -2,0 -1,1 -2,0 -1,1 -1,0 -1,1 -2,0 -1,1 -1,0 -1,1 -2,0 -1,1 -1,0 -1,1 -1,0 -1,1 -1,0 -1,1 -2,0 -1,1 -1,0 -1,1 -1,1 -1,0 -1,1 -2,0 -1,1 -1,0 -1,1 -1,1 -1,0 -2,2 -1,0 -2,2Z"/>
<path onmouseover="hoverPath(evt)" onmouseout="recoverPath(evt)" fill="rgb(244,243,236)" d="M  0,1l 0,48 1,0 0,-1 1,-1 -1,-1 0,-2 1,-1 0,-1 1,-1 0,-1 1,-1 1,-1 0,-1 1,-1 0,-1 1,-1 0,-1 1,-1 0,-1 1,-1 1,-1 0,-1 1,-1 0,-1 1,-1 0,-1 1,-1 0,-1 1,-1 1,-1 0,-1 1,-1 0,-1 1,-1 0,-1 1,-1 0,-1 1,-1 1,-1 0,-1 1,-1 0,-1 1,-1 0,-1 1,-1 0,-1 1,-1 0,-1 1,-1 0,-1 -24,0 -1,1Z"/>
<path onmouseover="hoverPath(evt)" onmouseout="recoverPath(evt)" fill="rgb(172,198,238)" d="M  0,143l 0,2 2,0 1,1 1,1 1,1 1,1 1,1 1,1 1,1 1,1 1,1 1,1 0,1 1,1 1,1 0,1 1,1 1,1 0,1 1,1 0,1 1,1 1,1 0,1 1,1 1,1 0,1 1,1 1,1 0,1 1,1 1,1 0,1 1,1 0,1 1,1 1,1 0,1 1,1 0,1 1,1 1,1 0,1 1,1 0,1 1,1 0,1 1,1 1,1 0,1 1,1 1,1 0,1 1,1 1,0 1,1 5,0 1,-1 4,0 1,-1 3,0 1,-1 3,0 1,-1 3,0 1,-1 3,0 1,-1 1,0 1,-1 2,0 1,-1 1,-1 1,0 1,-1 1,-1 1,0 1,-1 1,-1 1,0 1,-1 1,-1 1,0 1,-1 1,-1 1,0 1,-1 1,-1 1,0 2,-2 1,0 1,-1 1,0 1,-1 4,0 1,1 4,4 1,1 1,1 1,1 1,1 1,1 1,1 1,1 1,1 1,1 1,1 1,1 1,1 1,1 1,1 1,1 1,1 1,1 1,1 1,1 1,1 1,1 1,1 1,1 1,1 1,1 1,1 1,1 1,1 1,1 1,1 1,1 1,1 1,1 1,1 1,0 1,1 1,1 1,1 1,1 1,1 3,0 1,1 0,1 2,0 1,-1 2,0 1,-1 1,-1 2,0 1,1 1,0 1,-1 0,-3 1,-1 0,-4 -2,2 -1,1 -1,1 -1,1 -1,1 -2,0 -1,1 -5,0 -1,-1 -1,0 -1,-1 -1,-1 -1,-1 -1,-1 -1,-1 -1,-1 -1,-1 -1,-1 -1,-1 -1,-1 -1,-1 -1,-1 -1,-1 -1,-1 -1,-1 -1,-1 -1,-1 -1,-1 -1,-1 -1,-1 -1,-1 -1,-1 -1,-1 -1,-1 -1,-1 -1,-1 -1,-1 -1,-1 -1,-1 -1,-1 -1,-1 -1,-1 -1,-1 -1,-1 -1,-1 -1,-1 -4,-4 -1,-1 -1,-1 -1,0 -1,-1 -1,0 -1,-1 -5,0 -1,1 -1,0 -1,1 -1,0 -1,1 -1,1 -1,0 -1,1 -1,1 -1,0 -1,1 -1,1 -1,0 -1,1 -1,1 -1,1 -1,0 -1,1 -1,1 -2,0 0,1 -1,1 -1,0 -1,1 -1,1 -2,0 -1,1 -2,0 -1,1 -2,0 -1,1 -3,0 -1,1 -3,0 -1,1 -4,0 -1,1 -5,0 -1,-1 -1,0 -2,-2 -1,-1 0,-1 -1,-1 0,-1 -1,-1 -1,-1 0,-1 -1,-1 -1,-1 0,-1 -1,-1 -1,-1 0,-1 -1,-1 0,-1 -1,-1 -1,-1 0,-1 -1,-1 -1,-1 0,-1 -1,-1 -1,-1 0,-1 -1,-1 0,-1 -1,-1 -1,-1 0,-1 -1,-1 0,-1 -1,-1 -1,-1 0,-1 -1,-1 -1,-1 0,-1 -1,-1 0,-1 -1,-1 -1,-1 -1,-1 0,-1 -1,-1 -1,0 -1,-1 -1,-1 -1,-1 -1,-1 -1,0 -1,-1 -1,-1 -1,0 -1,1Z"/>
<path onmouseover="hoverPath(evt)" onmouseout="recoverPath(evt)" fill="rgb(244,243,235)" d="M  0,149l 0,106 80,0 0,-5 -1,-1 0,-6 -1,-1 0,-6 -1,-1 0,-3 -1,-1 0,-1 -12,0 -1,1 -18,0 -1,1 -17,0 -1,1 -11,0 -1,-1 0,-3 1,-1 8,0 1,-1 17,0 1,-1 18,0 1,-1 13,0 1,-1 1,0 0,-2 -1,-1 0,-5 -1,-1 0,-5 1,-1 3,0 1,1 0,3 1,1 0,5 1,1 0,2 1,1 0,1 17,0 1,-1 10,0 1,-1 2,0 1,1 5,0 1,-1 26,0 0,-1 -3,0 -1,-1 -1,-1 -1,-1 -1,-1 -1,-1 -1,0 -1,-1 -1,-1 -1,-1 -1,-1 -1,-1 -1,-1 -1,-1 -1,-1 -2,-2 -1,-1 -1,-1 -1,-1 -1,-1 -1,-1 -1,-1 -1,-1 -1,-1 -1,-1 -1,-1 -1,-1 -1,-1 -1,-1 -2,-2 -1,-1 -1,-1 -1,-1 -1,-1 -1,-1 -1,-1 -1,-1 -1,-1 -1,-1 -1,-1 -1,-1 -2,-2 -1,-1 -2,0 -1,1 -1,0 -1,1 -1,0 -1,1 -1,1 -1,0 -1,1 -1,1 -1,0 -1,1 -1,1 -1,0 -1,1 -1,1 -1,0 -1,1 -1,1 -1,0 -1,1 -1,1 -1,0 -1,1 -1,1 -2,0 -1,1 -1,0 -1,1 -3,0 -1,1 -3,0 -1,1 -3,0 -1,1 -3,0 -1,1 -4,0 -1,1 -7,0 -1,-1 -1,0 -1,-1 -1,-1 0,-1 -1,-1 -1,-1 0,-1 -1,-1 -1,-1 0,-1 -1,-1 0,-1 -1,-1 0,-1 -1,-1 -1,-1 0,-1 -1,-1 0,-1 -1,-1 -1,-1 0,-1 -1,-1 0,-1 -1,-1 -1,-1 0,-1 -1,-1 -1,-1 0,-1 -1,-1 -1,-1 0,-1 -1,-1 -1,-1 0,-1 -1,-1 0,-1 -1,-1 -1,-1 0,-1 -1,-1 -1,-1 0,-1 -1,-1 -1,-1 -1,-1 -1,-1 -1,-1 -1,-1 -1,-1 -1,-1 -1,-1 -1,0Z"/>
<path onmouseover="hoverPath(evt)" onmouseout="recoverPath(evt)" fill="rgb(249,238,138)" d="M  29,0l -2,0 0,2 -1,1 0,1 -1,1 0,1 -1,1 0,1 -1,1 0,1 -1,1 0,1 -1,1 -1,1 0,1 -1,1 0,1 -1,1 0,1 -1,1 0,1 -1,1 -1,1 0,1 -1,1 0,1 -1,1 0,1 -1,1 0,1 -2,2 0,1 -1,1 0,1 -1,1 0,1 -1,1 0,1 -1,1 -1,1 0,1 -1,1 0,1 -1,1 1,1 0,2 -1,1 0,1 -1,1 -2,0 0,16 1,0 0,-1 1,-1 1,-1 0,-1 1,-1 0,-1 1,-1 0,-1 1,-1 0,-1 1,-1 1,-1 0,-1 1,-1 0,-1 1,-1 0,-1 1,-1 0,-1 1,-1 1,-1 0,-1 1,-1 0,-1 1,-1 0,-1 1,-1 1,-1 0,-1 1,-1 0,-1 1,-1 0,-1 1,-1 0,-1 1,-1 1,-1 0,-1 1,-1 0,-1 1,-1 0,-1 1,-1 0,-1 1,-1 1,-1 0,-1 1,-1 0,-1 1,-1 0,-1 1,-1 0,-1 1,-1 1,-1 0,-1 1,-1 0,-1 1,-1 0,-1 1,-1 0,-1 1,-1 1,-1 0,-1 1,-1 0,-1Z"/>
<path onmouseover="hoverPath(evt)" onmouseout="recoverPath(evt)" fill="rgb(244,243,235)" d="M  40,1l 0,1 -1,1 0,1 -1,1 -1,1 0,1 -1,1 0,1 -1,1 0,1 -1,1 0,1 -1,1 -1,1 0,1 -1,1 0,1 -1,1 0,1 -1,1 0,1 -1,1 -1,1 0,1 -1,1 0,1 -1,1 0,1 -1,1 0,1 -1,1 -1,1 0,1 -1,1 0,1 -1,1 0,1 -1,1 0,1 -1,1 -1,1 0,1 -1,1 0,1 -1,1 0,1 -1,1 -1,1 0,1 -1,1 0,1 -1,1 0,1 -1,1 0,1 -1,1 -1,1 0,1 -1,1 0,1 -1,1 0,1 -1,1 0,1 -1,1 -1,1 0,1 -1,1 -2,0 0,3 3,0 1,1 13,0 1,1 14,0 1,1 13,0 1,1 14,0 1,1 14,0 0,-9 1,-1 0,-17 1,-1 0,-12 1,-1 0,-13 1,-1 0,-12 1,-1 0,-9 -40,0 -1,1Z"/>
<path onmouseover="hoverPath(evt)" onmouseout="recoverPath(evt)" fill="rgb(244,243,235)" d="M  88,0l -2,0 0,12 -1,1 0,12 -1,1 0,13 -1,1 0,12 -1,1 0,20 -1,1 0,2 1,1 0,1 8,0 1,1 14,0 1,1 16,0 1,1 28,0 1,1 1,0 0,-1 1,-1 11,0 0,-6 1,-1 0,-14 1,-1 0,-15 1,-1 0,-24 1,-1 0,-2 1,-1 0,-14Z"/>
<path onmouseover="hoverPath(evt)" onmouseout="recoverPath(evt)" fill="rgb(253,253,253)" d="M  106,235l -2,0 -1,-1 -1,1 1,0 1,1 0,1 1,1 1,0 1,-1 1,0 1,-1 1,0 1,-1 0,-6 1,-1 0,-1 1,-1 10,0 1,-1 24,0 1,-1 11,0 1,-1 -7,0 -1,-1 -1,0 -1,1 -3,0 -1,1 -26,0 -1,1 -7,0 -1,-1 -1,1 -10,0 -1,1 -19,0 -1,-1 0,-1 -1,-1 0,-2 -1,-1 0,-5 -1,-1 0,-3 -1,0 0,3 1,1 0,5 1,1 0,4 -1,1 -1,0 -1,1 -13,0 -1,1 -18,0 -1,1 -17,0 -1,1 -8,0 0,1 9,0 1,-1 17,0 1,-1 18,0 1,-1 14,0 1,1 0,1 1,1 0,3 1,1 0,6 1,1 0,6 1,1 0,6 1,0 0,-6 -1,-1 0,-6 -1,-1 0,-6 -1,-1 0,-5 1,-1 1,0 1,-1 18,0 1,-1 7,0 1,1 1,1 1,-3 0,0 -11,1 0,0 5,9Z"/>
<path onmouseover="hoverPath(evt)" onmouseout="recoverPath(evt)" fill="rgb(246,235,138)" d="M  174,0l -2,0 0,15 -1,1 0,2 -1,1 0,24 -1,1 0,15 -1,1 0,14 -1,1 0,6 -1,1 1,0 1,1 0,3 -1,1 0,20 -1,1 0,22 -1,1 0,16 -1,1 0,23 -1,1 0,19 -1,1 0,16 1,1 0,6 -1,1 0,3 -1,1 -1,1 2,0 1,1 0,2 -1,1 -1,1 0,19 -1,1 0,9 8,0 0,-15 1,-1 0,-13 1,-1 0,-4 -1,-1 0,-3 1,-1 0,-9 -1,-1 0,-7 1,-1 1,0 0,-18 1,-1 0,-20 1,-1 0,-21 1,-1 0,-15 1,-1 0,-30 -1,-1 0,-6 1,-1 1,0 0,-16 1,-1 0,-13 1,-1 0,-28 1,-1 0,-3 -1,-1 0,-16 1,-1 4,0 1,1 2,0 1,1 2,0 1,1 2,0 1,1 2,0 1,1 2,0 1,1 2,0 1,1 2,0 1,1 2,0 1,1 2,0 1,1 3,0 1,1 3,0 1,1 3,0 1,1 3,0 1,1 4,0 1,1 8,0 1,1 14,0 0,-7 -2,0 -1,-1 -13,0 -1,-1 -5,0 -1,-1 -4,0 -1,-1 -4,0 -1,-1 -3,0 -1,-1 -2,0 -1,-1 -3,0 -1,-1 0,-2 -37,0 -17,221 -1,-1 -1,1 2,0 17,-221Z"/>
<path onmouseover="hoverPath(evt)" onmouseout="recoverPath(evt)" fill="rgb(254,254,254)" d="M  177,85l 0,0 -1,-1 0,2 7,0 1,1 10,0 1,1 9,0 1,1 10,0 1,1 9,0 1,1 4,0 0,-1 -3,0 -1,-1 -10,0 -1,-1 -9,0 -1,-1 -10,0 -1,-1 -9,0 -1,-1Z"/>
<path onmouseover="hoverPath(evt)" onmouseout="recoverPath(evt)" fill="rgb(171,198,238)" d="M  179,193l -2,2 -1,1 -1,1 -1,1 -1,0 0,1 -1,1 -1,0 0,5 1,-1 1,-1 4,-4 1,-1 1,-1 1,-1 1,-1 1,-1 1,-1 1,-1 1,0 1,-1 1,-1 1,0 1,-1 1,-1 1,0 1,-1 2,0 1,-1 1,0 1,-1 1,-1 1,0 1,-1 2,0 1,-1 1,0 1,-1 1,0 1,-1 1,0 1,-1 2,0 1,-1 1,0 1,-1 2,0 1,-1 1,0 1,-1 2,0 1,-1 2,0 1,-1 1,0 1,-1 2,0 1,-1 2,0 1,-1 2,0 1,-1 1,0 1,-1 2,0 1,-1 1,0 1,-1 2,0 1,-1 1,0 1,-1 1,0 1,-1 1,0 1,-1 3,0 0,-5 -1,0 -1,1 -1,0 -2,2 -1,0 -1,1 -1,0 -1,1 -1,0 -1,1 -1,0 -1,1 -2,0 -1,1 -1,0 -1,1 -2,0 -1,1 -1,0 -1,1 -2,0 -1,1 -2,0 -1,1 -1,0 -1,1 -2,0 -1,1 -2,0 -1,1 -2,0 -1,1 -2,0 -1,1 -1,0 -1,1 -2,0 -1,1 -1,0 -1,1 -1,0 -1,1 -1,0 -1,1 -1,0 -1,1 -1,0 -1,1 -1,0 -1,1 -1,0 -1,1 -1,1 -1,0 -1,1 -1,0 -1,1 -1,0 -1,1 -1,1 -1,0 -1,1 -1,1 -1,0 -2,2Z"/>
<path onmouseover="hoverPath(evt)" onmouseout="recoverPath(evt)" fill="rgb(244,243,236)" d="M  215,1l 1,0 1,1 2,0 1,1 3,0 1,1 4,0 1,1 4,0 1,1 5,0 1,1 13,0 1,1 1,0 0,-8 -39,0 -1,1 -1,-1 -1,0 0,1 1,0 0,-1 1,1Z"/>
</svg>