<svg width="256" height="256" xmlns="http://www.w3.org/2000/svg"><script> 
var tempColor;
function hoverPath(evt){
obj = evt.target;
tempColor = obj.getAttribute("fill");
obj.setAttribute("fill","red");
//alert(tempColor);
//obj.setAttribute("stroke","red");}
function recoverPath(evt){
obj = evt.target;
obj.setAttribute("fill", tempColor);
//obj.setAttribute("stroke", tempColor);
}</script><path onmouseover="hoverPath(evt)" onmouseout="recoverPath(evt)" fill="rgb(244,243,236)" d="M  0,1l 0,22 2,0 1,1 0,2 1,-1 1,0 1,-1 1,0 1,-1 1,0 1,-1 1,0 1,-1 1,0 1,-1 1,0 1,-1 1,0 1,-1 2,0 1,-1 1,0 1,-1 1,0 1,-1 1,0 1,-1 2,0 1,-1 1,0 1,-1 1,0 1,-1 1,0 1,-1 2,0 1,-1 1,0 1,-1 1,0 1,-1 2,0 1,-1 2,0 1,-1 1,0 1,-1 2,0 1,-1 2,0 1,-1 1,0 1,-1 3,0 1,1 1,0 1,-1 2,0 0,-1 -66,0 -1,1Z"/>
<path onmouseover="hoverPath(evt)" onmouseout="recoverPath(evt)" fill="rgb(236,238,234)" d="M  31,29l -1,0 1,1 0,0 1,1 0,1 1,1 2,2 0,1 1,1 1,1 0,1 1,1 1,1 1,1 0,1 1,1 1,1 0,1 1,1 1,1 1,1 0,1 1,1 1,1 2,0 1,-1 1,0 1,-1 1,0 1,-1 1,0 1,-1 1,-1 1,0 1,-1 1,0 1,-1 1,0 1,-1 0,-1 -1,-1 0,-1 -1,-1 -1,-1 -1,-1 0,-1 -1,-1 -1,-1 0,-1 -1,-1 -1,-1 -1,-1 0,-1 -1,-1 -1,-1 -1,-1 0,-1 -1,-1 -1,-1 0,-1 -1,-1 -2,0 -1,1 -1,0 -1,1 -2,0 -1,1 -1,0 -1,1 -1,0 -1,1 -2,0 -1,1 -1,0 -1,1Z"/>
<path onmouseover="hoverPath(evt)" onmouseout="recoverPath(evt)" fill="rgb(222,223,219)" d="M  84,40l -3,0 -1,1 -1,0 -1,1 0,1 3,0 1,1 0,2 1,1 0,2 -1,1 0,7 1,0 1,-1 0,0 1,-1 3,-3 1,-1 1,-1 1,-1 1,0 1,-1 0,-9 -1,-1 0,0 -1,-1 -4,0 0,2 -1,1Z"/>
<path onmouseover="hoverPath(evt)" onmouseout="recoverPath(evt)" fill="rgb(249,233,128)" d="M  2,28l 0,0 -1,-1 0,-2 -1,0 0,15 2,0 1,-1 3,0 1,1 0,-2 1,-1 1,0 1,-1 1,-1 2,0 1,-1 1,0 1,-1 1,0 1,-1 1,0 1,-1 1,0 1,-1 1,0 1,-1 2,0 1,-1 1,0 1,-1 1,0 1,-1 1,0 1,-1 2,0 1,-1 1,0 1,-1 1,0 1,-1 2,0 1,-1 1,0 1,-1 3,0 1,-1 1,-1 1,0 1,-1 2,0 1,-1 1,0 1,-1 2,0 1,-1 1,0 1,-1 4,0 1,-1 2,0 1,-1 2,0 1,-1 2,0 1,-1 2,0 1,-1 2,0 1,-1 2,0 1,-1 3,0 1,-1 3,0 1,-1 3,0 1,-1 3,0 1,-1 3,0 1,-1 3,0 0,-1 -39,0 0,2 -1,1 -2,0 -1,1 -3,0 -1,-1 -1,0 -1,1 -1,0 -1,1 -2,0 -1,1 -2,0 -1,1 -1,0 -1,1 -2,0 -1,1 -2,0 -1,1 -1,0 -1,1 -1,0 -1,1 -2,0 -1,1 -1,0 -1,1 -1,0 -1,1 -1,0 -1,1 -2,0 -1,1 -1,0 -1,1 -1,0 -1,1 -1,0 -1,1 -2,0 -1,1 -1,0 -1,1 -1,0 -1,1 -1,0 -1,1 -1,0 -1,1 -1,0 -1,1 -1,0 -1,1 -1,0 -1,1Z"/>
<path onmouseover="hoverPath(evt)" onmouseout="recoverPath(evt)" fill="rgb(244,242,235)" d="M  236,40l 0,0 -1,-1 -1,1 -1,0 0,1 -1,1 -2,2 -1,1 -1,1 -1,0 -1,1 0,1 1,1 0,1 1,1 0,4 -1,1 0,3 1,1 1,1 1,1 1,0 1,1 1,1 1,1 1,1 1,1 0,1 1,0 1,1 1,1 1,1 0,1 1,1 1,1 1,1 1,1 0,5 -1,1 -1,0 0,2 1,1 2,0 1,1 0,2 -1,1 0,2 -1,1 2,0 1,-1 1,0 1,-1 1,0 1,-1 1,0 1,-1 2,0 0,-59 -1,0 -1,1 0,0 -1,1 -1,0 -1,1 -1,1 -1,0 -1,1 -1,0 -1,1 -1,0 -1,1 -2,0 -1,1 -1,0 0,2 -1,1Z"/>
<path onmouseover="hoverPath(evt)" onmouseout="recoverPath(evt)" fill="rgb(243,242,234)" d="M  0,43l 0,49 2,0 1,-1 3,0 1,1 0,1 1,1 1,0 1,1 0,2 1,1 1,1 1,1 0,-2 2,-2 2,0 0,-1 1,-1 1,-1 0,-1 1,-1 0,-2 1,-1 0,-1 1,-1 0,-2 1,-1 0,-3 -1,-1 0,-1 -1,-1 0,-1 -1,-1 0,-2 -1,-1 0,-1 -1,-1 0,-1 -1,-1 0,-3 1,-1 -2,0 -1,-1 0,-1 -1,-1 0,-1 -1,-1 0,-2 -1,-1 0,-1 -1,-1 0,-1 -1,-1 0,-1 -1,-1 0,-1 -1,-1 0,-1 -1,-1 0,-2 -1,-1 0,-1 -1,-1 -1,0 -1,1 -2,0 -1,1Z"/>
<path onmouseover="hoverPath(evt)" onmouseout="recoverPath(evt)" fill="rgb(243,242,235)" d="M  0,99l 0,156 94,0 0,-3 1,-1 1,0 1,-1 1,-1 0,-2 1,-1 1,0 1,-1 1,-1 0,-1 1,-1 1,-1 1,-1 0,-2 1,-1 1,0 1,-1 1,-1 1,-1 0,-2 1,-1 1,0 1,-1 1,-1 1,-1 0,-1 1,-1 0,-1 1,-1 1,0 1,-1 1,-1 0,-2 1,-1 1,0 1,-1 1,-1 0,-4 1,-1 1,-1 2,0 1,-1 1,-1 0,-2 1,-1 1,0 1,-1 1,-1 0,-2 1,-1 1,0 1,-1 1,-1 0,-2 1,-1 1,0 1,-1 1,-1 0,-1 2,-2 1,-1 0,-2 1,-1 1,0 1,-1 1,-1 0,-2 1,-1 1,0 1,-1 0,-1 1,-1 3,0 1,1 0,3 -1,1 0,1 -1,1 -1,1 0,3 -1,1 -2,0 -1,1 0,1 -1,1 -1,0 1,1 0,2 -1,1 2,-3 3,0 1,-1 1,-1 1,-1 1,-1 0,-1 1,-1 1,-1 1,-1 1,-1 1,0 0,-2 1,-1 1,-1 1,-1 1,0 0,-2 1,-1 1,-1 1,-1 1,-1 0,-1 1,-1 1,-1 1,-1 1,-1 1,0 0,-2 3,-3 -8,8 -1,0 -1,-1 0,-2 1,-1 1,-1 0,-4 1,-1 1,0 0,-1 1,-1 0,-2 1,-1 0,-1 1,-1 0,-1 -1,-1 0,-1 -1,-1 -1,1 -2,0 -1,-1 0,-2 -1,-1 -1,1 -2,0 -1,-1 -2,0 -1,-1 -1,-1 0,-6 1,-1 2,0 1,1 1,0 0,-3 -2,0 -1,-1 -1,-1 -1,0 -1,-1 -1,-1 -1,-1 0,-3 1,-1 1,-1 0,-1 1,-1 1,0 0,-1 1,-1 3,-3 0,-1 1,-1 1,0 0,-1 1,-1 1,-1 1,-1 1,-1 0,-2 -1,0 -1,-1 -1,-1 -1,-1 -1,0 -1,-1 -1,-1 -1,-1 -1,-1 -1,-1 0,-1 -2,0 -1,-1 -1,-1 -1,-1 -1,-1 -1,-1 0,-1 -1,0 -1,-1 0,-6 -1,-1 0,-1 -1,-1 -1,-1 -1,-1 -1,-1 -1,-1 -1,-1 -1,-1 0,-3 1,-1 2,0 0,-1 1,-1 1,-1 1,-1 1,0 0,-1 1,-1 1,-1 0,-2 -1,-1 0,0 -1,-1 -1,-1 -1,-1 -1,-1 -1,-1 -1,-1 0,-1 -1,-1 -1,-1 -1,-1 0,-3 1,-1 1,0 1,-1 1,-1 0,-2 1,-1 1,0 1,-1 1,0 1,-1 1,-1 2,0 1,1 1,-1 0,-2 1,-1 1,-1 1,0 1,-1 0,-2 3,-3 1,0 1,-1 -1,-1 0,0 -1,-1 0,-2 -1,0 -1,-1 0,-3 1,-1 1,-1 1,-1 1,-1 1,-1 1,-1 1,0 0,-1 1,-1 2,0 0,-1 1,-1 7,-7 1,-1 1,0 0,-4 1,-1 1,0 1,-1 1,-1 0,-1 -76,0 0,2 -1,1 -3,0 -1,1 -3,0 -1,1 -3,0 -1,1 -3,0 -1,1 -3,0 -1,1 -3,0 -1,1 -2,0 -1,1 -2,0 -1,1 -2,0 -1,1 -2,0 -1,1 -2,0 -1,1 -2,0 -1,1 -4,0 -1,1 -1,0 -1,1 -2,0 -1,1 -1,0 -1,1 -2,0 -1,1 -1,0 -1,1 1,1 0,1 1,1 1,1 0,1 1,1 1,1 1,1 0,1 1,1 1,1 1,1 0,1 1,1 1,1 0,1 1,1 1,1 1,1 0,1 1,1 0,3 -1,1 -1,1 -1,0 -1,1 -1,0 -1,1 -1,0 -1,1 -1,1 -1,0 -1,1 -1,0 -1,1 -1,0 -1,1 -4,0 -1,-1 -1,-1 -1,-1 0,-1 -1,-1 -1,-1 -1,-1 0,-1 -1,-1 -1,-1 0,-1 -1,-1 -1,-1 -1,-1 0,-1 -1,-1 -1,-1 0,-1 -1,-1 -1,-1 -1,-1 0,-1 -1,-1 -1,-1 -1,1 -2,0 -1,1 -1,0 -1,1 -1,0 -1,1 -1,0 -1,1 -1,0 -1,1 -1,0 -1,1 -2,0 -1,1 -1,1 -1,0 0,1 1,1 0,2 -1,1 0,1 1,1 0,1 1,1 0,1 1,1 0,1 2,0 1,1 0,1 1,1 0,2 -1,1 0,1 1,1 0,1 1,1 0,1 2,0 1,1 0,2 -1,1 0,1 1,1 0,1 2,0 1,1 0,2 -1,1 0,1 1,1 0,1 2,0 1,1 0,2 -1,1 0,4 -1,1 0,2 -1,1 0,1 -1,1 0,2 -1,1 0,1 -1,1 -1,1 0,1 -1,1 -2,0 -1,1 0,2 -1,1 -2,0 -1,-1 -1,-1 -1,-1 -1,-1 0,-2 -1,0 -1,-1 -1,-1 0,-1 -1,0 -1,1 -3,0 0,5 76,-58 1,-1 1,-1 1,0 1,-1 5,0 0,-2 1,-1 6,0 1,1 1,1 1,1 0,11 -1,1 -1,1 -1,0 -1,1 -1,1 -3,3 -1,1 -1,1 -1,1 -3,0 -1,-1 0,-9 1,-1 -1,-1 0,-2 -3,0 -1,-1 0,-3 -76,58Z"/>
<path onmouseover="hoverPath(evt)" onmouseout="recoverPath(evt)" fill="rgb(243,242,234)" d="M  117,235l 0,0 -1,1 -1,0 -3,3 0,2 -1,1 -1,0 -1,1 -1,1 0,1 -1,1 -1,1 -1,1 0,2 -1,1 -1,0 -1,1 -1,1 0,2 38,0 0,-3 1,-1 1,-1 1,-1 0,-1 1,-1 1,-1 1,-1 0,-1 1,-1 4,0 -2,-1 -1,0 -1,-1 -2,0 -1,-1 -1,0 -1,-1 -2,0 -1,-1 -1,0 -1,-1 -2,0 -1,-1 -1,1 -2,0 -1,-1 -1,0 -1,-1 -3,0 -1,-1 -1,0 -1,-1 -3,0 -1,1Z"/>
<path onmouseover="hoverPath(evt)" onmouseout="recoverPath(evt)" fill="rgb(252,252,250)" d="M  122,231l 0,0 1,1 1,0 1,1 2,0 -1,-1 0,-3 1,-1 -2,2 -2,0 -1,1 -2,-2 0,-2 1,-1 0,-1 1,-1 1,-1 2,-2 0,-1 2,-2 1,-1 2,-2 0,-1 1,-1 0,-1 1,-1 -1,0 -1,1 -1,1 -2,0 -1,1 0,4 -2,2 -1,1 -1,0 0,2 -1,1 -2,2 -1,0 0,1 -1,1 0,1 -1,1 -1,1 -2,2 -1,0 0,2 -1,1 -1,1 -1,1 -1,1 -1,0 0,2 -1,1 -1,1 -1,1 0,1 -1,1 -1,1 -1,1 -1,0 0,2 -1,1 -1,1 -1,1 -1,0 0,2 3,0 0,-3 1,-1 1,-1 1,-1 1,0 0,-2 1,-1 1,-1 1,-1 0,-1 1,-1 1,-1 1,-1 1,0 0,-2 1,-1 1,-1 2,-2 1,0 0,-1 1,-1 1,-1 3,0 0,-2 2,2 10,-21 1,1 0,-1 1,-1 1,0 0,-2 1,-1 1,0 0,-1 1,-1 1,0 0,-1 1,-1 0,-1 1,-1 1,-1 2,0 1,1 0,2 -1,1 1,1 0,2 -1,1 -1,0 0,1 -1,1 -1,1 5,-6 1,-1 1,-1 1,0 0,-2 1,-1 1,-1 1,-1 -1,0 -3,3 -1,0 -1,-1 0,-2 1,-1 -1,-1 0,-2 1,-1 -1,0 -1,1 -1,1 0,1 -1,1 -1,1 -1,1 -1,0 0,2 -1,1 -1,1 -1,1 -1,0 0,2 -1,1 -1,1 -1,1 -1,0 0,2 -10,21 25,-40 1,1 0,-1 1,-1 1,-1 2,0 0,-3 1,-1 1,-1 0,-1 1,-1 0,-1 -1,0 0,1 -1,1 -1,1 -1,0 0,2 -1,1 -2,2 -1,0 0,2 -25,40Z"/>
<path onmouseover="hoverPath(evt)" onmouseout="recoverPath(evt)" fill="rgb(244,243,235)" d="M  180,166l -1,1 -1,1 -1,1 0,2 -1,1 -1,0 -2,2 -1,1 0,1 -1,1 -1,1 -1,1 -1,1 0,2 -1,1 -1,0 -1,1 -1,1 0,2 -1,1 -1,0 -1,1 -1,1 -1,1 0,1 -1,1 -1,1 -1,1 -1,1 -1,1 0,1 -1,1 -1,1 -1,1 0,2 -1,1 -1,0 -1,1 -1,1 0,2 -1,1 -1,0 -2,2 -1,1 -2,0 -1,-1 0,-2 1,-1 1,-1 0,-1 1,-1 1,0 -1,-1 0,-2 1,-1 -2,3 0,1 -1,1 -1,0 0,1 -1,1 -1,0 0,2 -1,1 -1,0 0,1 -1,1 -1,0 0,1 -1,1 0,1 -1,1 -1,1 -1,1 -1,1 -1,1 0,1 -1,1 -1,1 -1,1 -1,1 0,1 -1,1 2,0 1,-1 0,0 1,-1 2,0 1,1 0,2 -1,1 0,1 1,1 0,2 1,-1 2,0 1,1 1,0 1,1 2,0 1,1 1,0 1,1 2,0 1,1 1,0 1,1 2,0 1,1 1,0 1,1 1,0 1,1 0,2 -1,1 -4,0 0,1 -1,1 -1,1 -1,1 0,1 -1,1 -2,2 0,2 114,0 0,-165 -1,0 -1,1 -1,0 -1,1 -1,0 -1,1 -1,0 -1,1 -4,0 -1,-1 0,-2 1,-1 0,-1 -1,-1 0,-1 -1,-1 -1,-1 0,-4 1,-1 1,0 0,-3 -1,-1 0,0 -1,-1 -1,-1 -1,-1 0,-1 -1,-1 -1,-1 -1,0 -1,-1 0,-1 -1,-1 -1,-1 -1,-1 -1,-1 -1,0 -1,-1 -1,-1 -1,-1 -1,-1 0,-5 1,-1 0,-2 -1,-1 0,-1 -1,-1 0,-3 1,-1 1,-1 1,0 1,-1 1,-1 1,-1 1,-1 0,-1 1,-1 1,0 1,-1 1,0 1,-1 1,0 1,-1 1,0 1,-1 2,0 1,-1 1,0 1,-1 1,0 1,-1 1,0 1,-1 1,-1 1,0 1,-1 1,-1 2,0 0,-27 -67,0 0,2 -1,1 -1,1 -1,1 -1,0 0,4 -1,1 -1,0 -3,3 -1,1 -2,2 -1,1 -1,1 0,1 -1,1 -2,0 0,1 -1,1 -1,0 -1,1 -3,3 -1,1 0,1 1,0 1,1 0,2 1,1 1,1 0,2 -2,2 -1,0 -1,1 -1,1 0,2 -1,1 -1,1 -1,0 -1,1 0,2 -1,1 -1,1 -2,0 -1,-1 -1,1 0,2 -1,1 -1,0 -1,1 -1,0 -1,1 -2,2 -1,0 0,1 1,1 0,0 1,1 1,1 0,1 1,1 1,1 1,1 1,1 1,1 1,1 1,1 0,4 -1,1 -1,1 0,1 -1,1 -1,0 -1,1 -1,1 0,1 -1,1 -2,0 0,1 1,1 0,0 1,1 1,1 1,1 1,1 1,1 1,1 0,1 1,1 0,6 1,0 1,1 0,1 1,1 1,1 1,1 1,1 2,0 1,1 0,1 1,1 1,1 1,1 1,1 1,0 1,1 1,1 1,1 1,0 1,1 0,4 -2,2 -1,1 -1,1 0,1 -1,1 -1,0 0,1 -1,1 -1,1 -1,1 -1,1 0,1 -1,1 -1,0 0,1 -1,1 -1,1 0,1 1,1 0,0 1,1 1,0 1,1 1,1 2,0 1,1 0,5 -1,1 -3,0 -1,-1 0,4 1,1 2,0 1,1 1,-1 2,0 1,1 1,1 1,0 1,1 1,0 1,1 1,1 0,1 1,1 0,3 -1,1 0,1 -1,1 0,2 -1,1 0,1 -1,1 -1,0 0,4 -1,1 -1,1 3,-3 0,-1 1,-1 1,-1 1,-1 1,-1 2,0 1,1 0,2 -28,80 0,-1 1,2 0,0 -1,-1 28,-80 -26,81 1,0 1,-1 0,0 -2,1 26,-81 -24,79 0,-1 -1,-1 0,0 1,2 24,-79 -26,77 0,0 26,-77 -16,85 -2,0 -1,-1 0,-2 1,-1 2,0 1,1 0,2 -1,1 16,-85 12,1 1,-1 2,0 1,1 1,0 1,1 0,2 -1,1 -2,0 -1,-1 -1,0 -1,-1 0,-2 -12,-1 23,6 1,-1 2,0 1,1 0,2 -1,1 -2,0 -1,-1 0,-2 -23,-6 45,-58 0,2 -1,1 -2,0 -1,-1 -1,-1 0,-2 1,-1 2,0 1,1 1,1 -45,58 18,-19 -1,-1 0,-2 1,-1 2,0 1,1 1,0 1,1 0,2 -1,1 -2,0 -1,-1 -1,0 -18,19Z"/>
</svg>