<svg width="256" height="256" xmlns="http://www.w3.org/2000/svg"><script> 
var tempColor;
function hoverPath(evt){
obj = evt.target;
tempColor = obj.getAttribute("fill");
obj.setAttribute("fill","red");
//alert(tempColor);
//obj.setAttribute("stroke","red");}
function recoverPath(evt){
obj = evt.target;
obj.setAttribute("fill", tempColor);
//obj.setAttribute("stroke", tempColor);
}</script><path onmouseover="hoverPath(evt)" onmouseout="recoverPath(evt)" fill="rgb(242,241,232)" d="M  0,120l 0,27 2,0 1,-1 1,0 1,-1 1,0 1,-1 1,0 1,-1 1,0 1,-1 1,0 1,-1 2,0 1,-1 1,0 1,-1 1,0 1,-1 1,0 1,-1 1,0 1,-1 1,0 1,-1 2,0 1,-1 3,0 0,-2 1,-1 0,-1 1,-1 0,-2 1,-1 0,-2 -2,0 -1,-1 -3,0 -1,-1 0,-3 -4,0 -1,-1 -4,0 -1,-1 -4,0 -1,-1 -7,0 0,1 -1,1 -5,0Z"/>
<path onmouseover="hoverPath(evt)" onmouseout="recoverPath(evt)" fill="rgb(243,242,234)" d="M  0,4l 0,112 4,0 -1,-1 0,-4 -1,-1 0,-4 1,-1 0,-3 1,-1 0,-3 1,-1 0,-2 1,-1 0,-3 1,-1 0,-2 1,-1 0,-3 1,-1 0,-3 1,-1 0,-2 1,-1 0,-3 1,-1 0,-2 1,-1 0,-2 -1,-1 0,-2 1,-1 2,0 0,-1 1,-1 0,-1 -1,-1 0,-2 1,-1 2,0 0,-2 1,-1 1,-1 3,0 1,1 0,3 -1,1 0,1 -1,1 0,2 -1,1 0,1 -1,1 0,1 1,0 1,1 3,0 1,1 4,0 1,1 2,0 1,1 4,0 1,1 2,0 1,-1 9,0 1,1 0,2 1,1 3,0 1,1 0,2 -1,1 -1,0 0,4 -1,1 0,1 -1,1 0,3 1,1 1,0 1,-1 4,0 1,-1 0,-2 1,-1 0,-3 1,-1 0,-10 1,-1 4,0 1,1 0,6 1,0 1,1 0,-1 1,-1 0,-3 1,-1 3,0 1,-1 0,-5 1,-1 0,-2 1,-1 0,-5 1,-1 0,-9 -3,0 -1,1 0,0 -1,1 -2,0 -1,1 -4,0 -1,-1 -1,0 -1,-1 0,-4 1,-1 0,-6 1,-1 0,-3 1,-1 1,-1 1,0 0,-1 2,-2 1,0 0,-2 1,-1 0,-5 -1,-1 0,0 -1,-1 0,-2 1,-1 0,-2 1,-1 2,0 0,-4 1,-1 2,0 0,-1 -1,-1 0,-3 -78,0Z"/>
<path onmouseover="hoverPath(evt)" onmouseout="recoverPath(evt)" fill="rgb(243,242,235)" d="M  33,148l -1,0 -1,1 -1,0 0,3 -1,1 -5,0 -1,-1 -1,0 -1,1 14,0 1,1 1,0 1,1 1,0 1,1 2,0 1,-1 2,0 1,1 0,2 1,0 1,1 2,0 1,1 4,0 1,1 4,0 1,-1 7,0 1,1 0,2 3,0 1,1 1,0 1,1 1,0 1,-1 2,0 1,1 0,-3 1,-1 -1,0 -1,-1 0,-3 1,-1 0,-2 1,-1 -1,-1 0,-2 -1,-1 -1,0 -1,-1 -1,-1 -1,-1 0,-4 -1,-1 0,-3 1,-1 0,-1 -1,-1 0,-2 -1,-1 0,-2 -1,0 -1,1 -1,1 -2,0 -1,1 -1,0 -1,1 -2,0 -1,1 -1,0 -1,1 -1,0 -1,1 -1,0 -1,1 -2,0 -1,1 -1,0 -1,1 -1,0 -1,1 -2,0 -1,1 -1,0 -1,1 -1,0 -1,1 -2,0 -1,1 -1,0 -1,1 -1,0 -1,1 -1,0 -1,1Z"/>
<path onmouseover="hoverPath(evt)" onmouseout="recoverPath(evt)" fill="rgb(246,200,112)" d="M  144,88l 0,0 1,1 0,2 1,1 0,1 1,1 0,2 1,-1 0,-1 1,-1 1,-1 1,0 1,-1 2,0 1,-1 2,0 1,1 0,1 4,0 1,-1 2,0 1,-1 3,0 1,-1 2,0 1,-1 2,0 1,-1 3,0 1,-1 3,0 1,-1 3,0 1,-1 3,0 1,-1 6,0 1,-1 -1,-1 0,0 -1,-1 0,-2 1,-1 2,0 2,2 1,1 0,-1 1,-1 1,-1 15,0 1,1 1,0 1,-1 3,0 1,1 0,2 -1,1 0,2 -1,1 0,1 -1,1 -3,0 -1,-1 0,4 1,1 0,2 -1,1 1,1 0,2 -1,1 -1,0 0,1 1,1 0,16 -1,1 -1,0 0,2 1,1 0,7 -1,1 -6,0 -1,-1 0,-1 -1,0 -1,-1 0,-8 1,-1 0,-4 1,-1 0,-2 -2,0 -1,-1 0,-4 1,-1 0,-2 1,-1 1,-1 0,-1 -1,0 -1,-1 -1,-1 0,-1 -1,0 -1,-1 0,-1 -1,-1 0,-3 -1,-1 0,-4 -1,-1 0,2 -1,1 -1,1 2,0 1,2 1,4 1,2 0,4 1,1 0,6 -1,1 0,3 -1,1 0,2 1,1 1,0 1,1 0,4 -1,1 0,1 -1,1 0,4 1,1 1,0 1,1 0,4 1,1 0,5 1,1 0,3 1,1 0,4 -1,1 -1,0 0,1 1,1 1,1 0,2 1,1 0,3 -1,1 -2,0 1,1 0,3 1,0 1,1 0,4 1,1 0,3 -1,1 -2,0 0,1 1,1 0,3 1,0 1,1 0,5 1,1 0,2 -1,1 -3,0 -1,1 -1,1 1,1 1,0 1,1 1,1 0,4 -1,1 -2,0 2,1 1,0 1,1 0,3 1,1 0,1 1,1 0,2 -1,1 0,6 1,0 1,1 0,2 -1,1 0,8 -1,1 0,1 1,1 0,1 1,0 1,1 0,3 -1,1 1,1 0,6 -1,1 0,1 -1,1 0,11 14,0 0,-15 -1,-1 0,-16 -1,-1 0,-10 -2,0 -1,-1 0,-3 1,-1 0,-1 1,-1 0,-7 -2,0 -1,-1 0,-2 -1,-1 0,-4 1,-1 2,0 0,-1 -1,-1 0,-2 -1,0 -1,-1 0,-2 1,-1 -1,0 -1,-1 0,-3 1,-1 1,0 0,-8 -1,0 -1,-1 -1,-1 0,-2 1,-1 2,0 0,-1 -1,-1 0,-6 -1,0 -1,-1 0,-12 1,-1 0,-9 1,-1 0,-2 1,-1 -1,-1 0,-2 1,-1 0,-3 -1,-1 -1,0 -1,-1 0,-8 1,-1 0,-2 1,-1 -1,-1 0,-4 -1,-1 0,-4 1,-1 0,-2 1,-1 0,-1 1,-1 0,-1 1,-1 2,0 0,-3 1,-1 1,-1 1,-1 1,0 1,-1 2,0 1,1 0,2 8,0 1,1 7,0 1,1 3,0 0,-15 -2,0 -1,-1 -1,0 -1,-1 0,-2 -2,0 -1,-1 -1,0 -1,-1 0,1 -1,1 -7,0 -1,-1 0,-2 -1,0 -1,1 -3,0 -1,-1 -1,0 -1,-1 -3,0 -1,-1 -1,0 -1,-1 0,-1 -1,-1 -1,0 -1,1 -2,0 -1,-1 0,1 -1,1 -1,0 0,1 -1,1 -7,0 -1,-1 0,-3 -1,-1 -5,0 -1,1 -2,0 0,3 -1,1 0,5 -1,1 0,1 -1,1 -5,0 -1,1 -4,0 -1,1 -3,0 -1,1 -3,0 -1,1 -2,0 -1,1 -1,0 -1,1 -2,0 -1,1 -2,0 -1,1 -1,0 -1,1 -1,0 -1,1 -2,0 -1,-1 -6,0 -1,1 -1,0 -1,1 -1,1 -1,0 0,1 -1,1Z"/>
<path onmouseover="hoverPath(evt)" onmouseout="recoverPath(evt)" fill="rgb(172,198,237)" d="M  253,128l 0,2 -1,1 0,1 -1,1 0,1 -1,1 0,1 -1,1 0,1 -1,1 -1,1 0,1 -1,1 -1,1 0,1 -1,1 -1,1 0,1 -1,1 -1,1 0,1 -1,1 -1,1 0,1 -2,2 -1,1 -1,1 -1,1 0,1 -1,1 -4,4 0,1 -1,1 -1,1 -1,0 0,9 3,-3 1,0 3,-3 1,-1 1,-1 1,-1 1,0 1,-1 1,-1 1,-1 2,0 0,-1 1,-1 1,0 1,-1 1,-1 2,0 1,1 2,-2 4,0 0,-35 -1,0 0,3 -1,1Z"/>
<path onmouseover="hoverPath(evt)" onmouseout="recoverPath(evt)" fill="rgb(243,241,232)" d="M  7,161l 0,3 1,1 2,0 1,1 2,0 1,1 1,0 1,1 2,0 1,1 2,0 1,1 2,0 1,1 0,2 2,0 1,1 2,0 1,-1 3,0 1,1 0,2 2,0 1,1 2,0 1,1 3,0 1,1 2,0 1,-1 4,0 1,1 0,2 2,0 1,-1 4,0 1,1 2,0 1,1 0,2 2,0 1,1 3,0 1,-1 2,0 1,-1 1,-1 0,-1 1,-1 0,-3 1,-1 0,-1 1,-1 0,-5 -1,0 -1,-1 0,-1 -2,0 -1,-1 -1,0 -1,-1 -3,0 -1,-1 0,-2 -5,0 -1,1 -6,0 -1,-1 -4,0 -1,-1 -2,0 -1,-1 -1,0 -1,-1 -1,0 -1,-1 -3,0 -1,-1 -1,0 -1,-1 -1,0 -1,-1 -16,0 -1,1 -2,0 -1,1 -2,0 0,2 -1,1 -3,0 -1,1Z"/>
<path onmouseover="hoverPath(evt)" onmouseout="recoverPath(evt)" fill="rgb(235,234,224)" d="M  19,73l 0,1 -1,1 -1,1 -1,0 0,2 -1,1 0,3 -1,1 0,2 -1,1 0,3 -1,1 0,3 -1,1 0,1 1,1 0,2 -1,1 3,0 1,1 0,3 -1,1 -5,0 -1,1 0,2 -1,1 0,2 -1,1 -1,0 0,3 9,0 1,1 4,0 1,1 4,0 1,1 4,0 1,1 4,0 1,1 2,0 1,-1 0,-1 -1,-1 0,-3 1,-1 2,0 0,-7 1,-1 1,0 1,-1 0,-3 1,-1 0,-2 1,-1 0,-2 1,-1 0,-1 1,-1 1,-1 2,0 0,-2 1,-1 0,-4 1,-1 0,-1 1,-1 0,-4 1,-1 -2,0 -1,-1 -1,-1 0,-2 -7,0 -1,1 0,2 -1,1 -4,0 -1,-1 -4,0 -1,-1 -4,0 -1,-1 -2,0 -1,-1 -2,0 -1,1 -1,1Z"/>
<path onmouseover="hoverPath(evt)" onmouseout="recoverPath(evt)" fill="rgb(243,242,234)" d="M  76,129l -1,0 0,2 1,1 0,2 1,1 0,3 -1,1 0,1 1,1 0,4 1,1 1,1 1,0 1,1 1,1 0,2 1,1 0,2 -1,1 0,2 -1,1 0,1 2,0 1,1 0,2 -1,1 -1,0 0,4 1,1 0,3 1,0 0,-5 1,-1 2,0 1,1 0,1 1,1 0,2 1,1 0,2 -1,1 0,1 1,1 0,2 1,1 0,2 -1,1 0,1 1,1 1,0 1,1 0,3 -1,1 1,1 0,2 1,1 1,1 0,2 1,1 0,2 2,0 1,1 0,3 2,0 1,1 1,1 0,2 1,1 0,2 -1,1 0,2 -1,1 0,1 2,0 1,1 0,4 1,1 1,1 1,0 1,1 1,1 0,1 1,1 0,2 1,1 0,2 -1,1 0,4 1,1 2,0 1,1 0,2 1,1 1,1 0,2 1,1 0,2 -1,1 -1,1 -1,0 1,1 0,2 2,0 1,1 0,2 35,0 0,-1 -1,0 -1,-1 0,-2 1,-1 3,0 1,1 2,0 1,1 3,0 1,-1 1,0 1,-1 1,0 1,-1 1,0 1,-1 1,0 1,-1 1,-1 1,0 1,-1 1,-1 1,0 0,-1 1,-1 1,0 2,-2 0,-9 -1,-1 0,-7 1,-1 0,-2 1,-1 0,-1 1,-1 0,-2 1,-1 0,-1 1,-1 1,-1 0,-1 1,-1 1,-1 1,-1 0,-1 2,-2 1,-1 0,-1 1,-1 1,-1 1,-1 1,-1 0,-1 2,-2 0,-1 1,-1 1,-1 1,-1 -1,-1 -1,0 -1,-1 -1,0 -1,-1 -1,0 -1,-1 -1,0 -1,-1 -1,0 -1,-1 -1,0 -1,-1 -1,0 -1,-1 -1,0 -1,-1 -2,0 -1,-1 -1,0 -1,1 0,0 -1,1 -2,0 -1,-1 0,-2 1,-1 0,-1 -1,0 -1,-1 -1,0 -1,-1 -1,0 -1,-1 -1,0 -1,-1 -2,0 -1,-1 -1,0 -1,-1 -1,0 -1,-1 -2,0 -1,-1 -1,0 -1,-1 -1,0 -1,-1 -1,0 -1,-1 -2,0 -1,-1 -1,0 -1,-1 -1,0 -1,-1 -1,0 0,1 -1,1 -1,0 -1,1 0,2 -1,1 -1,0 -1,1 -1,1 -1,1 0,1 -1,1 -1,1 0,1 -1,1 0,1 -1,1 0,1 1,0 1,1 1,0 1,1 2,0 1,1 1,0 1,1 2,0 1,1 1,1 1,1 1,1 0,3 -1,1 0,1 -1,1 -1,1 0,2 -1,1 0,1 -1,1 0,2 -1,1 0,1 -1,1 0,1 -1,1 0,1 -1,1 0,1 -1,1 0,1 -1,1 0,1 -1,1 -1,1 -1,1 -2,0 -1,-1 0,-4 1,-1 0,-1 1,-1 1,-1 0,-1 1,-1 0,-2 1,-1 0,-1 1,-1 0,-1 1,-1 0,-2 1,-1 0,-1 1,-1 0,-1 1,-1 0,-1 1,-1 -1,-1 -1,0 -1,-1 -2,0 -1,-1 -1,0 -1,-1 -2,0 -1,-1 -1,0 -1,-1 -1,0 -1,-1 0,-5 1,-1 0,-1 1,-1 1,-1 0,-1 1,-1 0,-1 1,-1 1,-1 1,-1 0,-1 1,-1 1,-1 1,-1 1,-1 1,-1 0,-2 -1,0 -1,-1 -1,0 -1,-1 -1,0 -1,-1 -1,0 -1,-1 -1,0 -1,-1 -1,0 -1,-1 -1,0 -1,-1 -1,0 -1,-1 -1,-1 -1,0 -1,-1 -1,0 -1,-1 0,-2 1,-1 2,0 1,1 1,0 1,1 3,0 0,-3 1,-1 0,-2 1,-1 0,-2 1,-1 0,-2 1,-1 0,-3 1,-1 0,-2 1,-1 0,-2 1,-1 0,-3 1,-1 1,-1 3,0 1,1 0,3 -1,1 0,2 -1,1 0,2 -1,1 0,3 -1,1 0,2 -1,1 0,2 -1,1 0,3 -1,1 0,2 -1,1 0,2 1,1 1,0 1,1 1,0 1,1 1,0 1,1 1,0 1,1 1,0 1,1 2,0 1,1 1,1 1,0 1,1 2,0 1,1 1,0 1,1 1,0 1,1 1,0 1,1 2,0 1,1 1,0 1,1 1,0 1,1 2,0 1,1 1,0 1,1 1,0 1,1 1,0 1,1 1,0 1,1 1,0 1,1 1,0 1,1 1,0 1,1 1,0 1,1 1,0 1,1 1,0 1,1 1,0 1,1 1,0 1,1 1,0 1,1 1,0 1,1 1,0 1,1 1,0 1,1 1,0 1,1 2,0 1,1 1,0 1,1 1,0 1,-1 0,0 1,-1 1,-1 3,0 -1,-1 0,-5 -1,0 -1,-1 0,-3 -1,-1 0,-3 1,-1 2,0 0,-1 -1,-1 0,-4 -1,0 -1,-1 0,-3 -1,-1 0,-2 1,-1 2,0 0,-1 -1,-1 0,-2 -1,-1 -1,-1 0,-3 1,-1 1,0 0,-2 -1,-1 0,-3 -1,-1 0,-5 -1,-1 0,-4 -1,0 -1,-1 -1,-1 0,-6 1,-1 0,-1 1,-1 0,-2 -1,0 -1,-1 -1,-1 0,-4 1,-1 0,-3 1,-1 0,-4 -1,-1 0,-5 -1,-1 0,-3 -1,-1 0,-1 -2,0 -1,-1 0,-2 -6,0 -1,1 -3,0 -1,1 -3,0 -1,1 -3,0 -1,1 -3,0 -1,1 -2,0 -1,1 -2,0 -1,1 -3,0 -1,1 -2,0 -1,1 -6,0 -1,-1 -3,0 -1,1 -1,0 -1,1 0,1 -1,1 -1,1 -1,0 -1,1 -2,0 -1,1 -2,0 -1,1 -1,0 -1,1 -2,0 -1,1 -1,0 -1,1 -1,0 -1,1 -1,0 -1,1 -2,0 -1,1 -1,0 -1,1 -1,0 -1,1 -2,0 -1,1 -1,0 -1,1 -1,0 -1,1 -1,0 -1,1 -2,0 -1,1 -1,0 -1,1 -1,0 -1,1 -2,0 -1,1 -1,0 -1,1 -1,0 -1,1 -1,0 -1,1 -2,0 -1,1 -1,0 -1,1 -1,0 -1,1 -2,0 -1,1 -1,0 -1,1 -1,0 -1,1 -1,0 -1,1 -2,0 -1,1 -1,0 -1,1Z"/>
<path onmouseover="hoverPath(evt)" onmouseout="recoverPath(evt)" fill="rgb(253,253,253)" d="M  202,193l -2,2 0,1 -1,1 -1,1 1,0 1,-1 0,0 1,-2 1,-1 0,-5 3,0 -1,-1 -1,0 -1,-1 -2,0 -1,-1 -1,0 -1,-1 -1,0 -1,-1 -1,0 -1,-1 -1,0 -1,-1 -1,0 -1,-1 -1,0 -1,-1 -1,0 -1,-1 -1,0 -1,-1 -1,0 -1,-1 -1,0 -1,-1 -1,0 -1,-1 -1,0 -1,-1 -1,0 -1,-1 -1,0 -1,-1 -1,0 -1,-1 -1,0 -1,-1 -1,0 -1,-1 -2,0 -1,-1 -1,0 -1,-1 -1,0 -1,-1 -2,0 -1,-1 -1,0 -1,-1 -1,0 -1,-1 -1,0 -1,-1 -2,0 -1,-1 -1,0 -1,-1 -1,-1 -2,0 -1,-1 -1,0 -1,-1 -1,0 -1,-1 -1,0 -1,-1 -1,0 -1,-1 -1,0 -1,-1 -1,-1 0,-4 1,-1 0,-2 1,-1 0,-3 1,-1 0,-2 1,-1 0,-2 1,-1 0,-3 1,-1 0,-2 1,-1 0,-2 1,-1 0,-1 -1,0 -1,1 0,3 -1,1 0,2 -1,1 0,2 -1,1 0,3 -1,1 0,2 -1,1 0,2 -1,1 0,2 -1,1 0,3 -1,1 -4,0 1,1 1,0 1,1 1,0 1,1 1,0 1,1 1,0 1,1 1,0 1,1 1,0 1,1 1,0 1,1 1,0 1,1 0,4 2,0 0,-1 1,-1 3,0 1,1 1,0 1,1 1,0 1,1 2,0 1,1 1,0 1,1 1,0 1,1 1,0 1,1 2,0 1,1 1,0 1,1 1,0 1,1 2,0 1,1 1,0 1,1 1,0 1,1 1,0 1,1 1,0 1,1 0,3 1,-1 3,0 1,1 2,0 1,1 1,0 1,1 1,0 1,1 1,0 1,1 1,0 1,1 1,0 1,1 1,0 1,1 1,0 1,1 1,0 1,1 0,4 -62,-28 -1,0 -4,4 0,1 -1,1 -1,1 -1,1 0,1 -1,1 0,1 -1,1 -1,1 0,1 -1,1 0,3 1,0 1,1 1,0 1,1 2,0 1,1 1,0 1,1 2,0 1,1 1,0 1,1 1,1 0,2 -1,1 0,1 -1,1 0,1 -1,1 0,1 -1,1 0,2 -1,1 0,1 -1,1 0,1 -1,1 0,2 -1,1 0,1 -2,2 0,1 -1,1 0,2 1,-1 1,-1 0,-1 1,-1 0,-1 1,-1 0,-1 1,-1 0,-1 1,-1 0,-1 1,-1 0,-1 1,-1 0,-2 1,-1 0,-1 1,-1 0,-2 1,-1 1,-1 0,-1 1,-1 0,-1 -1,-1 0,0 -1,-1 -1,-1 -2,0 -1,-1 -1,0 -1,-1 -2,0 -1,-1 -1,0 -1,-1 -1,0 -1,-1 0,-3 1,-1 0,-1 1,-1 0,-1 1,-1 1,-1 0,-1 1,-1 1,-1 1,-1 1,-1 1,0 0,-2 1,-1 62,28 4,-4 1,0 1,1 -2,1 0,0 1,1 1,1 1,0 1,1 1,0 0,-2 -1,-1Z"/>
<path onmouseover="hoverPath(evt)" onmouseout="recoverPath(evt)" fill="rgb(253,252,251)" d="M  206,1l 0,20 -1,1 -1,0 -1,1 -6,0 -1,-1 0,-1 -1,-1 0,3 -1,1 0,7 -1,1 0,2 1,-1 0,-1 1,-6 0,-1 1,-1 -1,0 9,-1 1,0 1,1 0,6 1,1 0,24 -1,1 -1,1 -8,0 -1,-1 0,-6 1,-1 0,-3 -1,0 0,3 -1,1 0,3 -1,1 0,2 -1,1 0,3 -1,1 -6,0 2,1 2,0 1,1 0,3 2,0 0,-3 1,-1 0,-3 1,-1 2,0 9,-57 0,57 1,1 0,3 5,0 0,-1 1,-1 1,0 0,-28 -1,-1 0,-27 1,-1 5,0 1,1 3,0 1,1 5,0 1,1 9,0 1,1 15,0 0,-1 -13,0 -1,-1 -11,0 -1,-1 -4,0 -1,-1 -4,0 -1,-1 0,-2 -13,0Z"/>
<path onmouseover="hoverPath(evt)" onmouseout="recoverPath(evt)" fill="rgb(240,239,226)" d="M  0,254l 0,1 29,0 0,-1 -1,0 -3,-3 -1,0 -1,-1 -1,-1 -1,0 -1,-1 -1,-1 0,-1 -2,0 -1,-1 -1,-1 -2,0 -1,-1 0,-1 -2,0 -1,1 0,0 -1,1 -1,1 -1,1 -1,1 -1,1 0,3 -1,1 -3,0Z"/>
<path onmouseover="hoverPath(evt)" onmouseout="recoverPath(evt)" fill="rgb(243,242,234)" d="M  7,167l -1,-1 -1,-1 -3,0 -1,-1 -1,0 0,13 4,0 1,1 1,1 0,1 5,0 1,1 2,0 1,1 3,0 1,1 2,0 1,1 0,2 2,0 1,1 3,0 1,1 3,0 1,1 2,0 1,1 2,0 1,1 3,0 1,1 2,0 1,1 3,0 1,1 2,0 1,1 2,0 1,1 3,0 1,1 2,0 1,1 3,0 1,1 1,0 1,1 2,0 1,1 1,0 1,1 0,2 1,1 2,0 1,1 0,3 -1,1 0,2 1,1 0,1 1,1 0,1 2,0 1,1 0,2 -1,1 0,2 1,1 0,1 1,1 0,2 1,1 0,2 1,1 0,2 1,1 0,6 -1,1 -2,0 -1,1 -1,1 0,2 -1,1 -10,0 -1,1 1,0 11,-1 1,0 1,1 0,1 2,0 1,1 0,1 1,1 0,2 -1,1 0,1 31,0 0,-1 -2,0 -1,-1 0,-2 -1,-1 0,-2 1,-1 1,0 1,-1 -1,-1 0,-2 -1,-1 -1,-1 0,-2 -2,0 -1,-1 -1,-1 0,-6 1,-1 -1,-1 0,-2 -1,-1 0,-1 -1,-1 -1,0 -1,-1 -1,-1 -1,-1 0,-4 -2,0 -1,-1 0,-3 1,-1 0,-2 1,-1 -1,-1 0,-2 -1,-1 -2,0 -1,-1 0,-3 -2,0 -1,-1 0,-2 -1,-1 0,-2 -1,-1 -1,-1 0,-2 -1,-1 0,-2 1,-1 0,-1 -1,0 -1,-1 -1,-1 0,-3 1,-1 -1,-1 0,-2 -1,-1 0,-3 1,-1 -1,-1 0,-2 -1,-1 0,4 -1,1 -3,0 -1,-1 0,-3 -1,-1 0,-1 -1,0 -1,-1 0,1 2,2 0,6 -1,1 0,1 -1,1 0,3 -1,1 0,1 -1,1 -1,1 -1,1 -2,0 -1,1 -5,0 -1,-1 -2,0 -1,-1 0,-2 -2,0 -1,-1 -2,0 -1,1 -4,0 -1,-1 0,-2 -2,0 -1,1 -4,0 -1,-1 -3,0 -1,-1 -2,0 -1,-1 -2,0 -1,-1 0,-2 -1,0 -1,1 -4,0 -1,-1 -2,0 -1,-1 0,-2 -2,0 -1,-1 -2,0 -1,-1 -2,0 -1,-1 -1,0 -1,-1 -2,0 -1,-1Z"/>
<path onmouseover="hoverPath(evt)" onmouseout="recoverPath(evt)" fill="rgb(252,252,250)" d="M  21,54l -1,1 0,2 -1,1 -2,0 1,1 0,3 -1,1 0,1 -1,1 -2,0 1,1 0,4 -1,1 0,2 -1,1 0,3 -1,1 0,2 -1,1 0,3 -1,1 0,3 -1,1 0,2 -1,1 0,3 -1,1 0,2 -1,1 0,3 -1,1 0,3 -1,1 0,2 1,0 0,-2 1,-1 0,-2 1,-1 1,-1 5,0 0,-1 -3,0 -1,-1 0,-2 1,-1 -1,-1 0,-3 1,-1 0,-3 1,-1 0,-3 1,-1 0,-2 1,-1 0,-3 1,-1 0,-2 1,-1 1,0 1,-1 0,-2 1,-1 1,0 1,-1 4,0 0,-1 -3,0 -1,-1 -1,0 -1,-1 0,-3 1,-1 0,-1 1,-1 0,-2 1,-1 0,-1 1,-1 -1,-1 4,15 0,1 2,0 1,1 4,0 1,1 4,0 1,1 2,0 0,-1 -2,0 -1,-1 -4,0 -1,-1 -2,0 -1,-1 -4,0 -4,-15Z"/>
<path onmouseover="hoverPath(evt)" onmouseout="recoverPath(evt)" fill="rgb(253,253,252)" d="M  73,78l 0,4 6,0 1,1 8,0 1,1 36,0 1,-1 13,0 1,-1 5,0 1,-1 1,-1 1,0 1,-1 6,0 0,-1 1,-1 1,0 0,-1 1,-1 -2,0 -1,1 -2,0 -1,1 -2,0 -1,-1 0,2 -1,1 -2,0 -1,1 -2,0 -1,1 -3,0 -1,1 -12,0 -1,1 -35,0 -1,-1 -9,0 -1,-1 -4,0 -1,-1 0,-1 -1,-1Z"/>
<path onmouseover="hoverPath(evt)" onmouseout="recoverPath(evt)" fill="rgb(242,240,233)" d="M  82,54l 0,1 -1,1 0,5 -1,1 0,2 -1,1 0,5 -1,1 -1,1 -3,0 0,2 1,1 0,2 1,1 0,1 4,0 1,1 9,0 1,1 33,0 1,-1 12,0 1,-1 3,0 1,-1 2,0 1,-1 2,0 0,-2 1,-1 2,0 1,1 1,-1 2,0 1,-1 3,0 1,-1 1,0 1,-1 2,0 1,-1 1,0 1,-1 -1,0 -1,-1 -1,0 -1,-1 0,-2 1,-1 4,0 1,1 8,0 1,1 0,1 4,0 1,-1 4,0 1,-1 2,0 0,-1 -2,0 -1,-1 -1,0 -1,-1 0,-2 1,-1 6,0 0,-3 1,-1 0,-2 1,-1 0,-3 1,-1 0,-3 1,-1 3,0 1,1 0,5 -1,1 0,4 6,0 1,-1 0,-22 -1,-1 0,-6 -5,0 -1,1 -1,0 0,1 -1,1 0,6 -1,1 -1,1 -2,0 -1,-1 0,-4 1,-1 0,-7 1,-1 0,-5 1,-1 2,0 1,1 0,2 1,1 0,1 4,0 1,-1 1,0 0,-20 -124,0 0,2 1,1 0,3 -1,1 -2,0 0,4 -1,1 -2,0 0,2 -1,1 1,1 1,1 0,7 -1,1 0,2 -1,1 -1,0 -1,1 0,1 -1,1 -1,0 -1,1 0,3 -1,1 0,6 -1,1 0,2 1,0 1,1 2,0 1,-1 2,0 1,-1 1,-1 5,0 1,1Z"/>
<path onmouseover="hoverPath(evt)" onmouseout="recoverPath(evt)" fill="rgb(193,212,238)" d="M  173,255l 7,0 0,-2 1,-1 2,-2 1,-1 2,-2 1,-1 1,-1 0,-1 1,-1 0,-19 1,-1 0,-3 1,-1 0,-1 1,-1 0,-1 1,-1 0,-1 1,-1 0,-1 1,-1 1,-1 0,-1 2,-2 1,-1 1,-1 1,-1 0,-1 6,-6 1,-1 0,-1 -1,0 -1,-1 -1,-1 0,1 -1,1 -1,1 -1,1 0,1 -1,1 -1,1 -3,0 -2,2 -1,1 0,1 -1,1 -1,1 -1,1 0,1 -1,1 -1,1 -1,1 0,1 -1,1 -1,1 0,1 -1,1 0,2 -1,1 0,1 -1,1 0,2 -1,1 0,5 1,1 0,11 -1,1 -2,2 -1,0 0,1 -1,1 -1,0 -2,2 -1,0 -1,1 -1,1 -1,0 -1,1 -1,0 -1,1 -1,0 -1,1 -1,0 -1,1 -5,0 -1,-1 -2,0 -1,-1 -1,0 2,2 0,1Z"/>
<path onmouseover="hoverPath(evt)" onmouseout="recoverPath(evt)" fill="rgb(243,242,233)" d="M  182,254l 0,1 32,0 0,-12 1,-1 0,-1 1,-1 0,-4 -1,-1 0,-2 1,-1 0,-1 -1,0 -1,-1 0,-1 -1,-1 0,-3 1,-1 0,-8 1,-1 -1,0 -1,-1 0,-8 1,-1 -1,-1 0,-1 -1,-1 0,-3 -1,0 -1,-1 -1,0 -1,1 0,0 -1,1 -1,1 -3,3 0,1 -1,1 -1,1 -1,1 -1,1 -1,1 0,1 -1,1 -1,1 0,1 -1,1 0,1 -1,1 0,1 -1,1 0,1 -1,1 0,3 -1,1 0,19 -1,1 0,1 -8,8Z"/>
<path onmouseover="hoverPath(evt)" onmouseout="recoverPath(evt)" fill="rgb(244,224,142)" d="M  208,91l 0,1 1,0 1,1 0,1 1,1 1,0 1,1 0,3 -1,1 -1,1 0,2 -1,1 0,2 2,0 1,1 0,4 -1,1 0,4 -1,1 0,6 1,0 1,1 0,1 4,0 0,-5 -1,-1 0,-4 1,-1 1,0 0,-14 -1,-1 0,-3 1,-1 0,-3 1,-1 -1,-1 0,-6 1,-1 2,0 1,1 1,0 0,-1 1,-1 0,-2 1,-1 -1,0 -1,1 -3,0 -1,-1 -13,0 -1,1 0,1 1,1 0,4 1,1 0,3 1,1Z"/>
<path onmouseover="hoverPath(evt)" onmouseout="recoverPath(evt)" fill="rgb(236,235,218)" d="M  228,2l 2,0 1,1 11,0 1,1 12,0 0,-4 -34,0 0,1 4,0 1,1Z"/>
<path onmouseover="hoverPath(evt)" onmouseout="recoverPath(evt)" fill="rgb(243,241,231)" d="M  227,178l -3,0 0,1 1,0 1,1 0,2 -1,1 1,0 1,1 0,2 1,1 0,3 -1,1 -2,0 0,2 1,1 0,2 2,0 1,1 0,9 -1,1 0,1 -1,1 0,1 2,0 1,1 0,10 1,1 0,16 1,1 0,16 23,0 0,-94 -3,0 -1,1 0,0 -1,1 -2,0 -1,-1 -1,1 -1,1 -1,0 0,1 -1,1 -2,0 -1,1 -1,1 -1,1 -1,0 -1,1 -1,1 -1,1 -1,1 -1,1 -1,1 -1,0 -3,3Z"/>
<path onmouseover="hoverPath(evt)" onmouseout="recoverPath(evt)" fill="rgb(248,247,241)" d="M  0,231l 0,19 2,0 0,-3 1,-1 1,-1 1,-1 1,-1 1,-1 1,-1 1,-1 4,0 1,1 0,1 2,0 2,2 2,0 1,1 0,1 1,1 1,0 1,1 1,1 1,0 1,1 1,1 1,1 1,0 1,1 0,2 5,0 0,-2 -1,-1 0,0 -1,1 -2,0 -1,-1 -1,-1 -1,-1 0,-2 -1,-1 -4,0 -1,-1 -1,-1 -1,-1 1,2 -22,-15 19,12 -1,-1 -1,0 -1,-1 -1,-1 0,-1 -1,-1 0,-1 -1,-1 -1,-1 -1,1 -2,0 -1,-1 -1,-1 0,-2 -1,-1 -4,0 -1,-1 -1,0 19,13 -19,-12Z"/>
<path onmouseover="hoverPath(evt)" onmouseout="recoverPath(evt)" fill="rgb(248,233,129)" d="M  0,151l 0,11 2,0 1,1 2,0 0,-5 1,-1 2,0 1,1 1,0 0,-2 1,-1 2,0 1,-1 2,0 0,-2 1,-1 3,0 1,-1 3,0 1,1 3,0 0,-3 1,-1 1,0 1,-1 1,0 1,-1 1,0 1,-1 1,0 1,-1 1,0 1,-1 2,0 1,-1 1,0 1,-1 1,0 1,-1 2,0 1,-1 1,0 1,-1 1,0 1,-1 2,0 1,-1 1,0 1,-1 1,0 1,-1 1,0 1,-1 2,0 1,-1 1,0 1,-1 2,0 1,-1 1,-1 2,0 1,-1 1,0 1,-1 1,0 1,-1 2,0 1,-1 1,0 1,-1 1,0 1,-1 1,0 1,-1 2,0 1,-1 1,0 1,-1 1,0 1,-1 2,0 1,-1 1,0 1,-1 1,0 1,-1 1,0 1,-1 2,0 1,-1 1,0 1,-1 1,0 1,-1 2,0 1,-1 1,0 1,-1 1,0 1,-1 1,0 1,-1 2,0 1,-1 1,0 1,-1 1,0 1,-1 2,0 1,-1 1,0 1,-1 1,0 1,-1 1,0 1,-1 2,0 1,-1 1,0 1,-1 2,0 1,-1 2,0 0,-2 -1,-1 0,-1 -1,-1 0,-2 -1,-1 -1,0 -1,-1 -2,0 -1,1 -1,0 -1,1 -1,0 -1,1 -1,0 -1,1 -2,0 -1,1 -1,0 -1,1 -1,0 -1,1 -1,0 -1,1 -2,0 -1,1 -1,0 -1,1 -1,0 -1,1 -2,0 -1,1 -1,0 -1,1 -1,0 -1,1 -1,0 -1,1 -2,0 -1,1 -1,0 -1,1 -1,0 -1,1 -2,0 -1,1 -1,0 -1,1 -1,0 -1,1 -1,0 -1,1 -2,0 -1,1 -1,0 -1,1 -1,0 -1,1 -2,0 -1,1 -1,0 -1,1 -1,0 -1,1 -1,0 -1,1 -2,0 -1,1 -1,0 -1,1 -3,0 -1,-1 0,1 -1,1 -2,0 -1,1 -1,1 -1,0 -1,1 -1,1 -1,0 -1,1 -1,0 -1,1 -1,0 -1,1 -1,0 -1,1 -1,0 -1,1 -2,0 -1,1 -1,0 -1,1 -1,0 -1,1 -1,0 -3,3 -1,1 -5,0 -1,1 -2,0 -1,1 -1,0 -1,1 -1,0 -1,1 -1,0 -1,1 -1,0 -1,1 -1,0 -1,1 -2,0 -1,1 -1,0 -1,1 -1,0 -1,1 -1,0 -1,1 -1,0 -1,1 -1,0 -1,1 -3,0Z"/>
<path onmouseover="hoverPath(evt)" onmouseout="recoverPath(evt)" fill="rgb(244,243,235)" d="M  0,187l 0,41 2,0 1,1 4,0 1,1 1,1 0,2 1,1 1,-1 2,0 1,1 1,1 1,1 0,1 1,1 0,1 1,1 1,0 1,1 1,1 1,0 1,1 1,1 1,1 4,0 1,1 1,1 0,2 1,1 1,1 1,-1 2,0 1,1 1,1 0,3 46,0 0,-1 -1,-1 0,-1 -1,-1 0,-1 -1,-1 0,-1 -9,0 -1,1 -7,0 -1,-1 0,-2 1,-1 4,0 1,-1 10,0 0,-2 1,-1 1,-1 1,-1 2,0 0,-4 -1,-1 0,-2 -1,-1 0,-2 -1,-1 0,-2 -1,-1 0,-1 -1,-1 0,-3 -1,-1 0,-1 -1,-1 0,-1 -1,-1 0,-1 -1,-1 0,-4 1,-1 0,-1 -2,0 -1,-1 -1,-1 0,-2 -1,0 -1,-1 -2,0 -1,-1 -1,0 -1,-1 -3,0 -1,-1 -2,0 -1,-1 -3,0 -1,-1 -2,0 -1,-1 -2,0 -1,-1 -3,0 -1,-1 -2,0 -1,-1 -3,0 -1,-1 -2,0 -1,-1 -2,0 -1,-1 -3,0 -1,-1 -3,0 -1,-1 -2,0 -1,-1 0,-2 -2,0 -1,-1 -3,0 -1,-1 -2,0 -1,-1 -5,0 -1,-1 0,-1 -1,-1 -3,0Z"/>
<path onmouseover="hoverPath(evt)" onmouseout="recoverPath(evt)" fill="rgb(244,243,235)" d="M  53,90l 0,0 -1,-1 0,2 -1,1 -2,0 -1,1 0,1 -1,1 0,2 -1,1 0,2 -1,1 0,3 -1,1 -1,1 -1,0 0,7 -1,1 -2,0 0,1 1,1 0,3 -1,1 -1,1 -4,0 -1,-1 -3,0 0,1 3,0 1,1 2,0 1,1 0,4 -1,1 0,2 -1,1 0,1 -1,1 0,1 2,-2 0,0 1,-1 1,-1 1,0 1,-1 1,0 1,-1 1,0 1,-1 2,0 1,-1 1,0 1,-1 1,0 1,-1 1,0 1,-1 1,0 1,-1 1,0 1,-1 1,-1 1,0 1,-1 1,-1 2,0 0,-1 1,-1 0,-2 -2,0 -1,-1 0,-3 -1,-1 0,-3 1,-1 2,0 0,-7 -1,-1 0,-9 -1,1 -4,0 -1,1Z"/>
<path onmouseover="hoverPath(evt)" onmouseout="recoverPath(evt)" fill="rgb(240,239,230)" d="M  64,91l 0,5 1,1 0,7 1,1 0,2 -1,1 -2,0 -1,-1 0,1 1,1 0,3 2,0 1,1 0,3 1,1 1,0 1,-1 1,0 1,-1 2,0 1,-1 1,0 1,-1 1,0 1,-1 1,0 1,-1 2,0 1,-1 1,0 1,-1 1,0 1,-1 2,0 1,-1 1,0 1,-1 1,0 1,-1 1,0 1,-1 2,0 1,-1 1,0 1,-1 1,0 1,-1 2,0 1,-1 1,0 1,-1 1,0 1,-1 1,0 1,-1 2,0 1,-1 1,0 1,-1 1,0 1,-1 2,0 1,-1 1,0 1,-1 1,0 1,-1 1,0 1,-1 2,0 1,-1 1,0 1,-1 1,0 1,-1 1,0 1,-1 4,0 1,1 0,-2 1,-1 -2,0 -1,1 -13,0 -1,1 -38,0 -1,-1 -8,0 -1,-1 -8,0 -1,-1 0,-6 -1,0 -1,-1 0,-6 -2,0 0,10 -1,1 0,3 -1,1 0,1 1,1Z"/>
<path onmouseover="hoverPath(evt)" onmouseout="recoverPath(evt)" fill="rgb(238,214,145)" d="M  185,71l 1,0 1,-1 5,0 0,-1 1,-1 -3,0 -1,-1 -1,0 -1,1 -4,0 -1,1 -6,0 -1,-1 0,-1 -8,0 -1,-1 -2,0 2,1 3,1 0,2 -1,1 -1,0 -1,1 -1,0 -1,1 -2,0 -1,1 -1,0 0,2 -1,1 0,1 -1,1 -1,0 1,1 0,0 1,-1 1,0 1,-1 1,0 1,-1 2,0 1,-1 2,0 1,-1 1,0 1,-1 2,0 1,-1 3,0 1,-1 3,0 1,-1Z"/>
<path onmouseover="hoverPath(evt)" onmouseout="recoverPath(evt)" fill="rgb(243,241,233)" d="M  215,7l 0,23 1,1 0,27 1,0 1,1 1,-1 3,0 1,1 1,1 0,1 1,0 1,1 3,0 1,1 1,0 1,1 1,0 1,-1 3,0 1,1 0,2 5,0 0,-1 1,-1 2,0 1,1 1,0 1,1 2,0 1,1 0,2 1,0 1,1 1,0 0,-61 -16,0 -1,-1 -9,0 -1,-1 -5,0 -1,-1 -3,0 -1,-1 -3,0Z"/>
<path onmouseover="hoverPath(evt)" onmouseout="recoverPath(evt)" fill="rgb(243,241,233)" d="M  233,86l 0,-2 -1,1 -1,0 -1,1 -1,1 0,3 -1,1 -2,0 0,1 -1,1 0,1 -1,1 0,2 -1,1 0,2 1,1 0,4 1,1 0,2 -1,1 0,2 -1,1 0,6 1,0 1,1 1,1 0,5 -1,1 1,1 0,2 -1,1 0,2 -1,1 0,9 -1,1 0,10 1,0 1,1 0,6 1,1 0,3 1,0 0,-1 1,-1 1,-1 2,-2 1,-1 0,-1 1,-1 1,-1 1,-1 1,-1 1,-1 0,-1 1,-1 1,-1 0,-1 1,-1 1,-1 0,-1 1,-1 1,-1 0,-1 1,-1 1,-1 0,-1 1,-1 1,-1 0,-1 1,-1 0,-1 1,-1 0,-1 1,-1 0,-1 1,-1 0,-2 1,-1 0,-3 1,-1 2,0 0,-33 -4,0 -1,-1 -7,0 -1,-1 -8,0 -1,-1 -7,79 -3,0 1,1 0,0 2,-1 7,-79Z"/>
</svg>