<svg width="256" height="256" xmlns="http://www.w3.org/2000/svg"><script> 
var tempColor;
function hoverPath(evt){
obj = evt.target;
tempColor = obj.getAttribute("fill");
obj.setAttribute("fill","red");
//alert(tempColor);
//obj.setAttribute("stroke","red");}
function recoverPath(evt){
obj = evt.target;
obj.setAttribute("fill", tempColor);
//obj.setAttribute("stroke", tempColor);
}</script><path onmouseover="hoverPath(evt)" onmouseout="recoverPath(evt)" fill="rgb(191,210,238)" d="M  0,24l 0,32 1,0 1,-1 0,0 1,-1 1,-1 1,-1 0,-1 1,-1 0,-2 1,-1 0,-4 1,-1 0,-3 1,-1 0,-8 -1,-1 0,-1 -1,-1 0,-1 -1,0 -1,-1 -1,0 -1,-1 -1,-1 -1,0 -1,1Z"/>
<path onmouseover="hoverPath(evt)" onmouseout="recoverPath(evt)" fill="rgb(250,204,116)" d="M  0,184l 0,12 2,0 1,-1 1,0 1,-1 1,0 1,-1 1,0 1,-1 2,0 1,-1 2,0 1,-1 2,0 1,-1 1,0 1,-1 2,0 1,-1 1,0 1,-1 1,0 1,-1 3,0 1,-1 1,-1 3,0 1,-1 2,0 1,-1 0,-3 1,-1 4,0 1,-1 0,-1 1,-1 1,-1 2,0 1,1 0,-1 1,-1 0,0 1,-1 2,0 1,-1 1,0 1,-1 2,0 1,1 0,0 1,-1 2,0 0,-1 1,-1 1,-1 1,0 1,-1 2,0 1,1 0,1 1,-1 0,-1 1,-1 1,-1 1,0 1,-1 2,0 1,-1 1,0 1,-1 3,0 1,1 0,-1 1,-1 0,0 1,-1 1,0 1,-1 2,0 1,-1 1,0 1,-1 3,0 1,1 2,0 1,-1 3,0 2,2 1,1 0,2 -1,1 -1,0 0,2 -1,1 -1,1 -1,0 -1,1 -1,0 0,1 1,0 1,-1 2,0 1,1 0,-2 1,-1 1,0 1,-1 1,-1 2,0 1,1 0,-4 -1,-1 0,0 -1,-1 -1,-1 0,-4 1,-1 1,0 0,-1 1,-1 1,-1 1,0 1,-1 3,0 1,1 0,-1 2,-2 1,0 1,-1 2,0 1,-1 2,0 1,1 0,-1 1,-1 1,-1 1,0 1,-1 3,0 1,-1 2,0 1,1 1,-1 2,0 1,1 0,-1 1,-1 0,-1 1,-1 1,-1 1,0 1,-1 2,0 1,-1 1,0 1,-1 2,0 1,-1 2,0 1,1 0,1 1,-1 1,0 1,-1 2,0 0,-1 1,-1 4,0 0,-1 1,-1 2,0 0,-1 1,-1 1,-1 2,0 1,-1 2,0 1,1 0,-1 1,-1 0,0 1,-1 1,0 1,-1 2,0 1,-1 2,0 1,1 1,0 0,-1 1,-1 1,0 1,-1 1,0 1,-1 1,0 1,-1 1,0 1,-1 3,0 1,1 0,-1 1,-1 0,0 1,-1 1,0 1,-1 2,0 1,-1 2,0 1,-1 2,0 1,-1 1,0 1,-1 3,0 1,1 0,-1 1,-1 1,-1 1,0 1,-1 2,0 1,-1 2,0 1,-1 2,0 1,-1 2,0 1,-1 2,0 1,-1 2,0 1,-1 2,0 1,-1 3,0 1,-1 2,0 1,1 0,-9 -1,0 -1,1 -2,0 -1,1 -2,0 -1,1 -2,0 -1,1 -2,0 -1,1 -2,0 -1,1 -2,0 -1,1 -2,0 -1,1 -2,0 -1,1 -2,0 -1,1 -1,0 -1,1 -2,0 -1,-1 -1,0 0,1 -1,1 -1,1 -1,0 -1,1 -2,0 -1,-1 0,-1 -1,1 0,1 -1,1 -1,1 -1,0 -1,1 -2,0 -1,-1 0,-1 -1,1 0,1 -1,1 -1,1 -1,0 -1,1 -2,0 -1,1 -3,0 -1,-1 0,1 -1,1 -2,0 -1,1 -1,0 -1,1 -1,1 -1,0 -1,1 -2,0 -1,1 -2,0 -1,1 -1,0 -1,1 -2,0 -1,-1 -3,0 0,2 -1,1 -1,1 -2,0 -1,1 -1,0 -1,1 -2,0 -1,1 -2,0 -1,-1 0,-1 -1,1 -1,0 -1,1 -2,0 0,1 -1,1 -2,0 0,1 -1,1 -1,1 -2,0 -1,-1 0,1 -1,1 0,0 -1,1 -1,0 -1,1 -2,0 -1,-1 -3,0 0,1 -1,1 -2,0 0,1 -1,1 -1,1 -1,0 -1,1 -2,0 -1,1 -2,0 -1,-1 0,-1 -1,2 -2,0 0,1 -1,1 -1,1 -1,0 -1,1 -2,0 -1,1 -1,0 -1,1 -3,0 -1,-1 0,1 -1,1 0,0 -1,1 -2,0 -1,1 -1,0 -1,1 -2,0 -1,1 -2,0 -1,-1 0,1 -1,1 -1,1 -1,0 -1,1 -2,0 -1,-1 0,-1 -1,1 0,1 -1,1 -1,1 -1,0 -1,1 -2,0 -1,1 -2,0 -1,-1 0,-1 -1,2 0,1 -1,1 -2,0 -1,1 -1,0 -1,1 -3,0 -1,-1 0,1 -2,2 -1,0 -1,1 -2,0 -1,1 -2,0 -1,-1 0,0 -1,1 0,1 -1,1 -2,0 -1,1 -2,0 -1,1 -1,0 -1,1 -2,0 -1,-1 0,-1 -1,2 0,1 -1,1 -2,0 -1,1 -1,0 -1,1 -2,0 -1,1 -2,0 -1,-1 0,-1 -1,2 -2,0 0,1 -1,1 -1,1 -1,0 -1,1 -2,0 -1,1 -2,0 -1,1 -1,0 -1,1 -2,0 -1,1 -2,0 -1,1 -1,0 -1,1 -3,0 -1,1Z"/>
<path onmouseover="hoverPath(evt)" onmouseout="recoverPath(evt)" fill="rgb(243,241,233)" d="M  0,208l 0,27 3,0 1,1 0,-2 1,-1 3,0 1,1 1,0 1,-1 1,0 0,-2 1,-1 1,-1 3,0 1,-1 1,-1 3,0 1,-1 1,-1 3,0 1,-1 1,-1 4,0 1,1 1,0 0,-2 1,-1 1,0 1,-1 2,0 1,-1 2,0 1,-1 3,0 1,1 0,-2 1,-1 2,0 1,-1 2,0 1,-1 3,0 1,1 1,-1 0,0 -1,-1 0,-1 -1,-1 0,-2 -1,-1 0,-1 -1,-1 0,-1 -1,-1 0,-1 -1,-1 0,-1 -1,-1 0,-2 1,-1 1,-1 1,-1 2,0 0,-1 -1,-1 0,-2 -1,-1 0,-2 -1,-1 -2,0 -1,-1 0,-1 -1,-1 0,-1 -1,1 -1,0 -1,1 -2,0 -1,1 -2,0 -1,1 -2,0 -1,1 -1,0 -1,1 -2,0 -1,1 -2,0 -1,1 -2,0 -1,1 -2,0 -1,1 -2,0 -1,1 -2,0 -1,1 -1,0 -1,1 -2,0 -1,1 -2,0 -1,1 -1,0 -1,1 -2,0 -1,1 -3,0 -1,1 -2,0Z"/>
<path onmouseover="hoverPath(evt)" onmouseout="recoverPath(evt)" fill="rgb(243,242,235)" d="M  3,238l 0,0 -1,-1 -2,0 0,18 81,0 0,-2 2,-2 1,0 1,-1 1,-1 1,0 1,-1 1,0 1,-1 2,0 1,-1 2,0 1,-1 1,0 1,-1 1,-1 1,-1 1,-1 0,-1 1,-1 0,-3 -1,-1 0,-1 -1,-1 0,-1 -1,-1 0,-2 -1,-1 0,-1 -1,-1 0,-2 -1,-1 0,-1 -1,-1 0,-2 -1,-1 0,-2 -1,-1 0,-2 -1,-1 0,-2 -1,-1 0,-1 -1,-1 0,-1 -1,-1 -1,-1 0,-1 -1,-1 -1,-1 -1,-1 -1,-1 -1,-1 -1,-1 -1,-1 -1,-1 -1,-1 -1,0 -1,-1 -1,-1 -1,-1 -1,-1 -1,-1 -1,-1 -1,-1 -1,-1 -1,-1 -1,-1 -1,0 -1,-1 -1,-1 -1,-1 -1,-1 -3,0 -1,1 -4,0 1,1 0,3 1,1 1,1 0,2 1,1 0,2 1,1 0,3 -1,1 -2,0 -1,1 -1,1 1,1 0,1 1,1 0,1 1,1 0,1 1,1 0,1 1,1 0,2 1,1 0,1 1,1 0,2 -1,1 -1,1 -2,0 -1,-1 -1,0 -1,1 -2,0 -1,1 -2,0 0,2 -1,1 -2,0 -1,-1 -1,0 -1,1 -2,0 -1,1 -2,0 -1,1 -1,0 0,2 -1,1 -3,0 -1,-1 -2,0 -1,1 0,0 -1,1 -3,0 -1,1 -1,1 -3,0 -1,1 -1,1 -3,0 -1,1 0,2 -1,1 -1,0 -1,1 -3,0 -1,-1 -1,0 0,2 -1,1Z"/>
<path onmouseover="hoverPath(evt)" onmouseout="recoverPath(evt)" fill="rgb(244,242,234)" d="M  62,172l 0,0 -1,1 4,0 2,2 1,1 1,0 1,1 1,1 1,1 1,1 1,1 1,1 1,1 1,1 1,0 1,1 1,1 1,1 1,1 1,1 1,1 1,1 1,1 1,1 1,1 1,1 1,1 1,0 1,1 1,1 1,1 0,1 1,1 1,1 0,1 1,1 0,1 1,1 0,3 1,1 0,2 1,1 0,2 1,1 0,2 1,1 0,1 1,1 0,2 1,1 0,3 1,1 0,1 1,1 0,1 1,1 1,1 0,1 1,1 0,5 -1,1 0,1 -1,1 0,1 1,0 1,-1 1,0 1,-1 3,0 1,-1 2,0 1,-1 1,-1 0,-2 1,-1 1,0 1,-1 1,0 0,-2 1,-1 2,0 1,1 2,0 1,-1 0,-2 1,-1 2,0 1,-1 2,0 1,-1 4,0 1,-1 7,0 1,-1 2,0 0,-5 1,-1 3,0 1,-1 1,0 1,-1 1,0 1,-1 1,-1 1,0 1,-1 1,0 1,-1 1,0 1,-1 1,0 1,-1 1,0 1,-1 1,-1 1,0 1,-1 1,0 1,-1 1,0 1,-1 1,0 1,-1 1,0 1,-1 1,0 1,-1 1,0 1,-1 1,0 1,-1 1,0 1,-1 1,0 1,-1 1,0 1,-1 0,-3 1,-1 -1,0 -1,-1 0,0 -1,1 -3,0 -1,-1 -1,0 -1,-1 0,-2 -1,0 -1,-1 -1,-1 0,-1 -1,-1 -1,-1 0,-1 -2,0 -1,-1 0,-16 -1,-1 0,-1 -1,-1 0,-1 -1,-1 0,-1 -1,-1 0,-1 -1,-1 -1,-1 0,-2 1,-1 -1,-1 0,0 -1,-1 0,-1 -1,-1 -1,-1 0,-2 -1,0 -1,-1 0,-2 -1,-1 0,-2 1,-1 1,-1 2,0 1,1 2,0 1,-1 4,0 1,1 1,1 2,0 1,1 1,1 0,1 1,1 1,1 0,-2 1,-1 0,-1 1,-1 0,-1 1,-1 0,-1 1,-1 0,-2 1,-1 0,-1 1,-1 0,-2 1,-1 0,-2 -1,-1 0,-2 -1,-1 0,-1 -1,1 -2,0 -1,-1 -3,0 -1,1 -1,0 -1,1 0,1 -1,1 -2,0 -1,-1 -1,1 -2,0 -1,1 0,1 -1,1 -2,0 0,1 -1,1 -4,0 0,1 -1,1 -2,0 -1,1 -1,0 -1,1 -2,0 -1,-1 0,-1 -1,1 -2,0 -1,1 -1,0 -1,1 -2,0 -1,1 -1,0 -1,1 0,1 -1,1 0,1 -1,1 -2,0 -1,-1 -1,1 -2,0 -1,-1 -1,1 -3,0 -1,1 -1,0 -1,1 0,2 -1,1 -2,0 -1,-1 0,-1 -1,1 -2,0 -1,1 -1,0 -1,1 0,1 -1,1 -2,0 -1,-1 -1,0 -1,1 -1,0 -1,1 0,1 -1,1 -1,0 0,2 1,1 0,0 1,1 1,1 0,6 -1,1 -2,0 -1,-1 -1,1 -1,1 -1,0 0,2 -1,1 -2,0 -1,-1 -1,1 -3,0 -1,-1 0,-3 1,-1 1,0 1,-1 1,0 1,-1 0,-2 1,-1 1,0 -1,-1 0,0 -1,-1 -1,0 -1,1 -4,0 -1,-1 -1,0 -1,1 -1,0 -1,1 -2,0 -1,1 -1,0 -1,1 0,1 -1,1 -2,0 -1,-1 -1,0 -1,1 -1,0 -1,1 -2,0 -1,1 -1,0 -1,1 0,1 -1,1 -1,1 -2,0 -1,-1 0,-1 -1,1 -1,0 -1,1 0,1 -1,1 -1,0 -1,1 -2,1 -1,0 -1,-1 -2,0 -1,1 -2,0 -1,1 0,1 -1,1 -2,0 -1,-1 -1,1 0,1 -1,1 -1,1 -4,0 0,2 1,-1 4,-1 1,-1 3,0 1,1 1,1 0,1 1,1 0,1 1,1 0,-1 -1,-2 0,-4 1,-1 1,-1 1,0 1,-1 2,0 1,-1 2,-1Z"/>
<path onmouseover="hoverPath(evt)" onmouseout="recoverPath(evt)" fill="rgb(179,203,237)" d="M  96,248l -2,0 -1,1 -2,0 -1,1 -1,0 -1,1 -1,0 -1,1 -1,1 -1,0 -1,1 0,1 19,0 0,-7 1,-1 0,-1 1,-1 1,0 0,-3 1,-1 0,-1 1,-1 0,-3 -1,-1 0,-1 -1,-1 -1,-1 0,-1 -1,-1 0,-1 -1,-1 0,-3 -1,-1 0,-2 -1,-1 0,-1 -1,-1 0,-2 -1,-1 0,-2 -1,-1 0,-2 -1,-1 0,-3 -1,-1 0,-1 -1,-1 0,-1 -1,-1 -1,-1 0,-1 -1,-1 -1,-1 -1,0 -2,-2 -1,-1 -1,-1 -1,-1 -1,-1 -1,-1 -1,-1 -1,-1 -2,-2 -1,-1 -1,0 -1,-1 -1,-1 -1,-1 -1,-1 -1,-1 -1,-1 -1,-1 -1,-1 -1,0 -3,-3 -3,0 -1,1 -2,0 -1,1 -1,0 -1,1 0,1 3,0 1,-1 5,0 1,1 1,1 1,1 1,1 1,0 1,1 1,1 1,1 1,1 1,1 1,1 1,1 1,1 1,1 1,1 1,0 1,1 1,1 1,1 1,1 1,1 1,1 1,1 1,1 1,1 1,1 0,1 1,1 1,1 0,1 1,1 0,1 1,1 0,2 1,1 0,2 1,1 0,2 1,1 0,2 1,1 0,1 1,1 0,2 1,1 0,1 1,1 0,2 1,1 0,1 1,1 0,1 1,1 0,5 -1,1 0,1 -2,2 -1,1 -1,1 -1,1 -1,0 -1,1Z"/>
<path onmouseover="hoverPath(evt)" onmouseout="recoverPath(evt)" fill="rgb(242,241,231)" d="M  171,143l -1,1 0,1 1,0 1,1 0,2 1,1 1,1 0,1 1,1 1,1 0,2 -1,1 1,1 2,0 1,1 0,1 1,1 0,2 -1,1 1,1 0,1 1,1 0,16 2,0 1,1 0,1 2,2 0,1 1,1 1,0 1,1 0,2 1,0 1,1 1,0 1,-1 2,0 1,1 1,0 1,1 0,1 1,1 2,0 1,-1 1,0 1,-1 1,0 0,-2 1,-1 2,0 -1,-1 -1,-1 0,-1 -1,-1 0,-1 -1,-1 -1,-1 0,-1 -1,-1 -1,-1 -1,-1 0,-1 -1,-1 -1,-1 0,-1 -1,-1 -1,-1 0,-2 -1,0 -1,-1 -1,-1 0,-1 -1,-1 -1,-1 0,-1 -1,-1 -1,-1 0,-1 -1,-1 -1,-1 0,-3 1,-1 0,-3 -1,0 -1,-1 -1,-1 -1,-1 0,-1 -1,-1 -1,-1 0,-2 1,-1 -1,-1 -2,0 -1,-1 -1,-1 -2,0 -1,1 -3,0 -1,1 38,48 1,0 0,-1 -1,0 0,1 -38,-48Z"/>
<path onmouseover="hoverPath(evt)" onmouseout="recoverPath(evt)" fill="rgb(244,243,236)" d="M  0,1l 0,10 1,0 1,-1 2,0 1,-1 1,0 1,-1 1,0 1,-1 1,0 1,-1 2,0 1,-1 1,0 1,-1 1,0 1,-1 1,0 1,-1 2,0 1,-1 2,0 1,1 0,-2 -25,0 -1,1Z"/>
<path onmouseover="hoverPath(evt)" onmouseout="recoverPath(evt)" fill="rgb(243,242,234)" d="M  0,113l 0,10 1,0 1,-1 1,0 1,-1 2,0 1,-1 1,0 1,-1 2,0 1,-1 1,0 1,-1 2,0 1,-1 1,0 1,-1 2,0 1,-1 1,0 1,-1 2,0 1,-1 1,0 1,-1 2,0 1,-1 1,0 1,-1 2,0 1,-1 1,0 1,-1 2,0 1,-1 1,0 1,-1 -1,-1 -1,0 -1,-1 -3,0 -1,1 -7,0 -1,1 -11,0 -1,-1 -1,0 -1,-1 -2,0 0,1 -1,1 -1,1 -1,0 -1,1 -1,0 -1,1 -1,1 -1,0 -1,1 -1,0 -1,1 -2,0Z"/>
<path onmouseover="hoverPath(evt)" onmouseout="recoverPath(evt)" fill="rgb(243,240,232)" d="M  0,141l 0,40 3,0 1,-1 1,0 1,-1 2,0 1,-1 2,0 1,-1 1,0 1,-1 2,0 1,-1 2,0 1,-1 1,0 1,-1 0,-1 1,-1 2,0 0,-1 1,-1 2,0 1,1 0,1 1,-1 2,0 1,-1 1,0 1,-1 2,0 0,-1 1,-1 0,-1 1,-1 2,0 1,1 0,1 1,-1 1,0 1,-1 -1,-1 0,-2 -1,-1 -1,-1 0,-1 -1,-1 -1,-1 0,-1 -1,-1 -1,-1 -1,-1 0,-1 -1,-1 -1,-1 0,-2 1,-1 -1,-1 -1,-1 0,-2 -1,0 -1,-1 -1,-1 -1,-1 0,-1 -1,-1 -1,-1 0,-1 -1,-1 -1,-1 0,-1 -1,-1 -5,0 -1,-1 -1,0 -1,1 -1,0 -1,1 -1,0 0,2 -1,1 -3,0 -1,-1 -1,0 0,2 -1,1 -2,0 -1,-1 -1,0 -1,1 -2,0Z"/>
<path onmouseover="hoverPath(evt)" onmouseout="recoverPath(evt)" fill="rgb(217,227,239)" d="M  13,101l 2,0 1,-1 1,-1 1,-1 1,0 0,-1 -2,1 -1,1 -3,0 -1,-1 -1,-1 -1,0 -1,-1 -1,0 -1,-1 -1,0 -1,-1 -1,-1 -1,0 -1,-1 -1,-1 -1,0 0,18 1,0 1,-1 1,0 1,-1 1,0 1,-1 1,-1 1,0 1,-1 1,0 1,-1 0,-1 1,-1Z"/>
<path onmouseover="hoverPath(evt)" onmouseout="recoverPath(evt)" fill="rgb(248,237,138)" d="M  104,0l -1,0 0,2 1,1 2,0 1,1 1,1 0,2 -1,1 -1,1 3,0 1,1 0,1 1,1 0,1 1,1 1,1 1,0 1,1 0,2 1,1 1,0 1,1 0,2 3,3 0,1 1,1 1,1 1,1 0,1 1,1 1,1 1,1 0,1 1,1 1,1 1,1 0,1 1,1 1,1 1,1 0,1 1,1 1,1 1,1 0,1 1,1 1,1 1,1 0,1 1,1 1,1 0,2 3,0 1,1 0,2 1,1 0,1 1,0 1,1 0,2 1,1 2,0 1,1 0,1 1,1 0,3 1,1 1,1 1,1 0,1 1,1 1,1 1,1 0,1 1,1 1,1 1,1 0,1 1,1 1,1 1,1 0,1 1,1 1,1 1,1 0,1 1,1 1,0 1,1 0,2 1,1 1,0 1,1 0,2 1,1 1,0 1,1 0,2 1,1 0,1 1,1 1,0 1,1 0,1 1,1 0,1 1,1 1,0 1,1 0,1 1,-1 0,0 1,-1 1,0 1,-1 2,0 0,-1 -1,-1 0,0 -1,-1 0,-1 -1,-1 -1,-1 -1,-1 0,-1 -1,-1 -1,-1 -1,-1 0,-1 -1,-1 -1,-1 -1,-1 0,-1 -1,-1 -1,-1 0,-1 -1,-1 -1,-1 -1,-1 0,-1 -1,-1 -1,0 -1,-1 0,-2 -1,-1 -1,0 -1,-1 0,-2 -1,-1 -1,-1 0,-1 -1,-1 -1,0 -1,-1 0,-2 -1,-1 -1,-1 0,-1 -2,0 -1,-1 -1,-1 0,-3 -1,-1 -1,0 -1,-1 0,-2 -1,-1 -1,0 -1,-1 0,-2 -1,-1 -1,-1 0,-1 -1,-1 -1,-1 -1,-1 0,-1 -1,-1 -1,-1 -1,-1 0,-1 -1,-1 -1,-1 0,-4 -3,0 -1,-1 0,-1 -1,-1 -1,0 -1,-1 0,-2 -1,-1 -1,0 -1,-1 0,-2 -1,-1 -1,0 -1,-1 0,-2 -1,-1 -1,0 -1,-1 0,-2 -1,-1 -1,0 -1,-1 0,-2 -1,-1 -1,0 -1,-1 0,-2 -1,-1 -1,0 -1,-1 0,-2 -1,-1 -1,-1 -1,0 -1,-1 0,-4Z"/>
<path onmouseover="hoverPath(evt)" onmouseout="recoverPath(evt)" fill="rgb(244,242,235)" d="M  134,0l -19,0 0,3 1,0 2,2 1,1 0,2 1,0 1,1 1,1 0,2 1,0 1,1 1,1 0,2 1,0 1,1 1,1 0,2 1,0 2,2 0,2 1,0 1,1 1,1 0,2 1,0 1,1 1,1 0,2 1,0 1,1 1,1 0,1 1,0 1,-1 2,0 1,1 0,2 -1,1 0,2 1,1 1,1 0,1 1,1 1,1 1,1 0,1 1,1 1,1 1,1 0,1 1,1 1,1 0,2 1,0 1,1 1,1 0,2 1,0 1,1 3,0 1,-1 1,0 1,-1 2,0 1,-1 2,0 1,-1 1,0 1,-1 2,0 1,-1 1,-1 3,0 1,-1 1,0 1,-1 2,0 1,-1 2,0 1,-1 1,0 1,-1 1,0 1,-1 2,0 1,-1 1,0 1,-1 2,0 1,-1 1,0 1,-1 2,0 1,-1 1,0 1,-1 1,0 1,-1 2,0 1,-1 1,0 1,-1 1,0 1,-1 1,0 1,-1 3,0 1,-1 1,0 1,-1 1,0 1,-1 1,0 1,-1 3,0 1,-1 1,-1 3,0 1,-1 -1,-1 0,-1 -1,-1 0,-2 1,-1 1,0 1,-1 1,0 1,-1 2,0 1,1 0,1 1,1 0,2 2,0 1,-1 2,0 1,-1 1,0 1,-1 2,0 0,-23 -121,0 93,32 -1,1 -2,0 -1,-1 0,-2 1,-1 2,0 1,1 0,2 -93,-32 -3,15 0,-2 1,-1 2,0 1,1 1,1 0,2 -1,1 -2,0 -1,-1 -1,-1 3,-15 39,49 -1,1 -2,0 -1,-1 -1,0 -1,-1 0,-2 1,-1 2,0 1,1 1,0 1,1 0,2 -39,-49 32,45 -1,1 -2,0 -1,-1 0,-2 1,-1 2,0 1,1 0,2 -32,-45 25,41 -1,1 -2,0 -1,-1 0,-2 -1,-1 0,-2 1,-1 1,-1 -1,-1 0,-2 1,-1 2,0 1,1 1,0 1,1 0,2 -1,1 0,1 -1,1 -1,1 1,1 0,2 -25,-41Z"/>
<path onmouseover="hoverPath(evt)" onmouseout="recoverPath(evt)" fill="rgb(246,235,142)" d="M  197,120l 0,-2 -1,1 -1,0 -1,1 -1,0 1,1 0,1 1,1 0,2 1,1 0,4 -1,1 0,2 -1,1 0,1 -1,1 0,2 -1,1 0,1 -1,1 0,1 -1,1 0,1 -1,1 0,2 -1,1 -2,0 -1,-1 -1,-1 2,3 0,0 2,2 1,0 1,1 0,5 -1,1 0,1 1,1 0,0 1,1 0,1 1,1 1,1 0,1 1,1 1,1 0,1 1,1 1,0 1,1 0,2 1,1 1,1 0,1 1,1 1,1 0,1 1,1 1,1 1,1 0,1 1,1 1,1 0,1 1,1 0,1 1,1 2,0 1,1 0,2 1,1 0,3 1,0 1,1 1,1 0,1 1,0 1,1 0,2 1,1 1,1 0,1 1,1 1,1 0,1 1,1 1,0 1,1 0,2 1,1 1,1 0,1 1,1 1,1 0,1 1,1 1,0 1,1 0,2 1,1 1,1 0,1 1,1 1,1 0,1 1,1 1,0 1,1 0,2 1,1 1,1 0,1 1,1 1,1 0,1 1,1 1,1 0,1 1,1 1,0 1,1 0,2 1,0 1,1 0,2 1,1 1,1 0,1 1,1 1,1 0,3 1,0 0,-24 -9,0 -1,-1 0,-1 -1,-1 -1,-1 0,-1 -1,-1 -1,0 -1,-1 0,-2 -1,-1 -1,-1 0,-1 -1,-1 -1,-1 0,-1 -1,-1 -1,0 -1,-1 0,-2 -1,-1 -1,-1 0,-1 -1,-1 -1,-1 0,-1 -1,-1 -1,0 -1,-1 0,-2 -1,-1 -1,-1 0,-1 -1,-1 -1,-1 0,-1 -1,-1 -1,-1 0,-1 -1,-1 -1,-1 0,-1 -1,-1 -1,-1 0,-1 -1,-1 -1,-1 -1,-1 0,-1 -1,-1 -1,-1 0,-1 -1,-1 -1,-1 0,-1 -1,-1 -1,0 -1,-1 0,-2 -1,-1 -1,-1 0,-1 -1,-1 -1,-1 0,-1 -1,-1 -1,0 -1,-1 0,-2 -1,-1 -1,-1 0,-1 -1,-1 -1,-1 0,-2 -1,-1 0,-7 1,-1 0,-2 1,-1 0,-1 1,-1 0,-1 1,-1 0,-1 1,-1 0,-2 1,-1 0,-6 1,-1 0,-5 -1,-1 0,-1 -2,0 -1,-1Z"/>
<path onmouseover="hoverPath(evt)" onmouseout="recoverPath(evt)" fill="rgb(244,243,236)" d="M  201,137l 0,2 -1,1 0,1 -1,1 0,1 -1,1 0,1 -1,1 0,2 -1,1 0,5 1,1 0,2 1,1 1,1 0,1 1,1 1,1 0,2 1,0 1,1 1,1 0,1 1,1 1,1 0,1 1,1 1,1 0,2 1,0 1,1 1,1 0,1 1,1 1,1 0,1 1,1 1,1 0,1 1,1 1,1 1,1 0,1 1,1 1,1 0,1 1,1 1,1 0,1 1,1 1,1 0,1 1,1 1,1 0,1 1,1 1,1 0,2 1,0 1,1 1,1 0,1 1,1 1,1 0,1 1,1 1,1 0,2 1,0 1,1 1,1 0,1 1,1 1,1 0,1 1,1 1,1 0,2 1,0 1,1 1,1 0,1 1,1 1,1 0,1 8,0 0,-86 -10,0 -1,-1 0,-2 -6,0 -1,1 -9,0 -1,-1 -3,0 -1,-1 -4,0 -1,-1 -3,0 -1,-1 -3,0 -1,-1 0,-2 -3,0 -1,1 -4,0 0,1 -1,1Z"/>
<path onmouseover="hoverPath(evt)" onmouseout="recoverPath(evt)" fill="rgb(171,198,238)" d="M  0,126l 0,1 2,0 1,-1 2,0 1,-1 2,0 1,-1 2,0 1,-1 1,0 1,-1 2,0 1,-1 2,0 1,-1 1,0 1,-1 2,0 1,-1 1,0 1,-1 2,0 1,-1 1,0 1,-1 2,0 1,-1 1,0 1,-1 2,0 1,-1 2,0 1,-1 1,0 1,-1 2,0 1,-1 1,0 1,-1 2,0 1,-1 1,0 1,-1 2,0 1,-1 1,0 1,-1 2,0 1,-1 1,0 1,-1 2,0 1,-1 2,0 1,-1 1,0 1,-1 2,0 1,-1 1,0 1,-1 2,0 1,-1 1,0 1,-1 2,0 1,-1 1,0 1,-1 2,0 1,-1 2,0 1,-1 1,0 1,-1 2,0 1,-1 1,0 1,-1 2,0 1,-1 1,0 1,-1 2,0 1,-1 1,0 1,-1 2,0 1,-1 2,0 1,-1 1,0 1,-1 2,0 1,-1 1,0 1,-1 2,0 1,-1 1,0 1,-1 2,0 1,-1 2,0 1,-1 1,0 1,-1 2,0 1,-1 1,0 1,-1 2,0 1,-1 1,0 1,-1 2,0 1,-1 1,0 0,-2 -1,-1 0,-1 -1,2 -1,0 -1,1 -1,0 -1,1 -2,0 -1,1 -1,0 -1,1 -2,0 -1,1 -2,0 -1,1 -1,0 -1,1 -2,0 -1,1 -1,0 -1,1 -2,0 -1,1 -1,0 -1,1 -2,0 -1,1 -2,0 -1,1 -1,0 -1,1 -2,0 -1,1 -1,0 -1,1 -2,0 -1,1 -2,0 -1,1 -1,0 -1,1 -2,0 -1,1 -1,0 -1,1 -2,0 -1,1 -1,0 -1,1 -2,0 -1,1 -2,0 -1,1 -1,0 -1,1 -2,0 -1,1 -1,0 -1,1 -2,0 -1,1 -2,0 -1,1 -1,0 -1,1 -2,0 -1,1 -1,0 -1,1 -2,0 -1,1 -1,0 -1,1 -2,0 -1,1 -2,0 -1,1 -3,0 -1,-1 -1,-1 -1,-1 -1,0 -1,-1 -1,0 -1,-1 -7,0 -1,1 -7,0 -1,1 -4,0 -1,-1 -4,0 -1,1 -1,1 1,0 1,1 9,0 1,-1 7,0 1,-1 5,0 1,1 1,0 1,1 1,1 0,2 -1,1 -1,1 -1,0 -1,1 -2,0 -1,1 -1,0 -1,1 -2,0 -1,1 -1,0 -1,1 -2,0 -1,1 -1,0 -1,1 -2,0 -1,1 -1,0 -1,1 -2,0 -1,1 -1,0 -1,1 -2,0 -1,1 -1,0 -1,1 -2,0 -1,1 -1,0 -1,1 -2,0 -1,1 -1,0 -1,1 -1,0 -1,1Z"/>
<path onmouseover="hoverPath(evt)" onmouseout="recoverPath(evt)" fill="rgb(244,242,234)" d="M  0,130l 0,5 1,0 1,-1 3,0 1,1 0,-2 1,-1 3,0 1,1 1,0 0,-2 1,-1 1,0 1,-1 1,0 1,-1 3,0 1,1 5,0 1,1 1,1 0,1 1,1 1,1 0,1 1,1 1,1 0,1 1,1 1,1 1,0 1,1 0,2 1,1 1,1 0,1 1,1 1,1 0,2 -1,1 1,1 0,0 1,1 2,0 1,1 1,1 0,2 -1,1 1,1 0,0 1,1 0,2 1,1 0,1 1,-1 2,0 0,-1 1,-1 0,-1 1,-1 2,0 1,1 0,1 1,-1 2,0 1,-1 1,0 1,-1 0,-1 1,-1 2,0 1,1 1,0 1,-1 1,0 1,-1 2,0 0,-1 1,-1 0,-1 1,-1 2,0 1,1 0,1 1,-1 2,0 1,-1 1,0 1,-1 0,-1 1,-1 1,-1 2,0 1,1 0,1 1,-1 1,0 1,-1 0,-1 1,-1 2,0 1,1 1,-1 2,0 1,-1 1,0 1,-1 2,0 1,-1 0,-1 1,-1 2,0 1,1 1,0 1,-1 1,0 1,-1 2,0 1,-1 1,0 1,-1 0,-1 1,-1 2,0 0,-1 1,-1 2,0 1,1 0,1 1,-1 2,0 1,-1 1,0 1,-1 0,-1 1,-1 2,0 0,-1 1,-1 2,0 1,-1 2,0 1,1 0,1 1,-1 1,0 1,-1 0,-1 1,-1 2,0 1,1 1,-1 0,-1 1,-1 2,0 0,-1 1,-1 2,0 1,-1 1,0 1,-1 2,0 1,1 0,1 1,-1 2,0 1,-1 1,0 1,-1 2,0 1,-1 0,-2 1,-1 2,0 1,-1 2,0 1,1 0,1 1,-1 1,0 1,-1 2,0 1,-1 2,0 0,-1 -1,0 -1,-1 -1,-1 0,-1 -1,-1 0,-1 -1,0 -1,-1 -1,-1 0,-1 -1,-1 0,-2 -1,0 -1,-1 -1,-1 0,-2 -1,0 -1,-1 -1,-1 0,-2 -1,0 -1,-1 -1,-1 0,-1 -1,-1 -1,-1 -1,-1 0,-1 -1,-1 -1,-1 -1,-1 0,-1 -1,-1 -1,-1 -1,-1 0,-1 -1,-1 -1,-1 -1,-1 0,-1 -1,-1 -1,-1 -1,0 -1,1 -2,0 -1,1 -1,0 -1,1 -2,0 -1,1 -1,0 -1,1 -2,0 -1,1 -1,0 -1,1 -2,0 -1,1 -2,0 -1,1 -1,0 -1,1 -2,0 -1,1 -1,0 -1,1 -2,0 -1,1 -1,0 -1,1 -2,0 -1,1 -2,0 -1,1 -1,0 -1,1 -2,0 -1,1 -1,0 -1,1 -2,0 -1,1 -1,0 -1,1 -2,0 -1,1 -1,0 -1,1 -2,0 -1,1 -2,0 -1,1 -1,0 -1,1 -2,0 -1,1 -1,0 -1,1 -2,0 -1,1 -1,0 -1,1 -2,0 -1,1 -1,0 -1,1 -2,0 -1,1 -2,0 -1,1 -1,0 -1,1 -2,0 -1,1 -1,0 -1,1 -2,0 -1,1 -1,0 -1,1 -2,0 -1,1 -1,0 -1,1 -2,0 -1,1 -1,0 -1,1 -2,0 -1,1 -2,0 -1,1 -1,0 -1,1 -2,0 -1,1 -1,0 -1,1 -2,0 -1,1 -1,0 -1,1 -2,0 -1,1 -1,0 -1,1 -2,0 -1,1 -2,0 -1,1 -1,0 -1,1 -2,0 -1,1 -2,0 -1,1 -2,0 -1,1 -2,0 -1,1Z"/>
<path onmouseover="hoverPath(evt)" onmouseout="recoverPath(evt)" fill="rgb(244,243,235)" d="M  2,58l -2,0 0,31 2,0 1,1 1,1 1,0 1,1 1,1 1,0 1,1 1,0 1,1 1,0 1,1 1,1 1,0 1,-1 1,0 1,-1 2,0 1,1 1,-1 1,0 1,-1 0,-3 1,-1 1,0 1,-1 2,0 1,1 1,-1 1,0 1,-1 1,-1 1,0 1,-1 1,-1 0,-2 1,-1 1,-1 1,0 1,-1 6,0 1,1 0,1 1,1 1,1 0,2 -1,1 2,0 1,1 1,1 1,-1 1,0 1,-1 2,0 1,-1 1,0 1,-1 2,0 1,-1 2,0 1,-1 1,0 1,-1 2,0 1,-1 1,0 1,-1 2,0 1,-1 1,0 1,-1 2,0 1,-1 1,0 1,-1 2,0 1,-1 1,0 1,-1 2,0 1,-1 1,0 1,-1 2,0 1,-1 1,0 1,-1 2,0 1,-1 1,0 1,-1 2,0 1,-1 1,0 1,-1 2,0 1,-1 1,0 1,-1 2,0 1,-1 1,0 1,-1 1,0 1,-1 2,0 1,-1 2,0 1,-1 1,0 1,-1 2,0 1,-1 1,0 1,-1 2,0 1,-1 2,0 0,-2 -1,-1 0,0 -1,-1 0,-1 -1,-1 -1,-1 -1,-1 0,-1 -1,-1 -1,-1 -1,-1 0,-1 -1,-1 -1,-1 -1,-1 0,-1 -1,-1 -1,-1 -1,-1 0,-1 -1,-1 -1,-1 -1,-1 0,-1 -1,-1 -1,-1 -1,-1 0,-1 -1,-1 -2,-2 0,-2 -1,0 -1,-1 -1,-1 0,-2 -1,0 -1,-1 -1,-1 -1,-1 0,-1 -1,-1 0,-1 -3,0 -1,-1 0,-2 1,-1 1,-1 -1,-1 -2,0 -1,-1 -1,-1 0,-3 -53,0 0,3 -1,1 -1,0 0,2 -1,1 -2,0 -1,-1 0,-1 -1,1 -1,0 -1,1 -1,0 -1,1 -1,0 -1,1 -1,0 -1,1 -2,0 -1,1 -1,0 -1,1 -1,1 2,0 1,1 0,2 -1,1 2,0 1,-1 1,0 1,-1 1,0 1,-1 1,0 1,-1 2,0 1,1 0,-2 1,-1 2,0 1,1 0,2 -1,1 -3,0 0,1 -1,1 -1,1 -1,0 -1,1 -1,0 -1,1 -1,0 -1,1 -1,0 0,1 1,1 0,0 1,1 0,1 1,1 0,1 1,1 2,0 1,1 0,2 -1,1 1,1 0,0 1,1 0,1 1,1 2,0 1,1 0,2 -1,1 1,1 2,0 1,1 0,2 -1,1 0,3 -1,1 -2,0 -1,-1 -1,-1 0,-1 -1,-1 -1,-1 0,-1 -1,-1 -2,0 -1,-1 0,-2 1,-1 -1,-1 0,0 -1,-1 0,-1 -1,-1 -2,0 -1,-1 0,-2 1,-1 -1,-1 -2,0 -1,-1 0,-2 1,-1 -1,-1 -2,0 -1,-1 0,-2 1,-1 -1,-1 0,0 -1,-1 0,-1 -2,0 -1,-1 0,-1 -1,1 -1,0 -1,1 -1,0 -1,1 -1,0 -1,1 -2,0 -1,1 -1,0 -1,1 -1,0 -1,1 -2,0 1,1 1,0 1,1 1,0 1,1 0,1 1,1 0,1 1,1 0,10 -1,1 0,3 -1,1 0,4 -1,1 0,2 -1,1 0,1 -2,2 -1,1 -1,1 -1,1 55,-26 0,-1 -1,-1 0,-2 1,-1 2,0 1,1 0,1 1,1 1,1 0,2 -1,1 -2,0 -1,-1 -1,-1 -55,26 89,-45 1,1 0,2 -1,1 -2,0 -1,-1 0,-2 1,-1 2,0 -89,45Z"/>
<path onmouseover="hoverPath(evt)" onmouseout="recoverPath(evt)" fill="rgb(242,241,232)" d="M  24,98l 1,1 2,0 1,-1 7,0 1,-1 9,0 1,1 1,0 1,1 1,0 1,1 1,1 1,1 1,0 1,-1 2,0 1,-1 2,0 1,-1 1,0 1,-1 2,0 1,-1 1,0 1,-1 2,0 1,-1 1,0 1,-1 2,0 1,-1 2,0 1,-1 1,0 1,-1 2,0 1,-1 1,0 1,-1 2,0 1,-1 2,0 1,-1 1,0 1,-1 2,0 1,-1 1,0 1,-1 2,0 1,-1 1,0 1,-1 2,0 1,-1 2,0 1,-1 1,0 1,-1 2,0 1,-1 1,0 1,-1 2,0 1,-1 2,0 1,-1 1,0 1,-1 2,0 1,-1 1,0 1,-1 2,0 1,-1 1,0 1,-1 2,0 1,-1 2,0 1,-1 1,0 1,-1 2,0 1,-1 1,0 1,-1 1,0 -1,-1 0,0 -1,-1 0,-2 -1,0 -1,-1 0,-1 -2,0 -1,1 -1,0 -1,1 -2,0 -1,1 -1,0 -1,1 -2,0 -1,1 -1,0 -1,1 -2,0 -1,1 -2,0 -1,1 -1,0 -1,1 -1,0 -1,1 -2,0 -1,1 -1,0 -1,1 -2,0 -1,1 -1,0 -1,1 -2,0 -1,1 -1,0 -1,1 -2,0 -1,1 -1,0 -1,1 -2,0 -1,1 -1,0 -1,1 -2,0 -1,1 -1,0 -1,1 -2,0 -1,1 -1,0 -1,1 -2,0 -1,1 -1,0 -1,1 -2,0 -1,1 -1,0 -1,1 -2,0 -1,1 -2,0 -1,1 -1,0 -1,1 -2,0 -1,1 -1,0 -1,1 -2,0 -1,1 -2,0 -1,1 -4,0 -1,-1 -1,-1 -1,-1 0,-2 -1,-1 0,-2 1,-1 -2,-2 0,-1 -4,0 -1,1 -1,0 -1,1 0,2 -1,1 -1,1 -1,1 -1,0 -2,2 -1,0 -1,1 -2,0 -1,-1 -1,1 -1,0 0,3 -1,1 -1,1 0,1Z"/>
<path onmouseover="hoverPath(evt)" onmouseout="recoverPath(evt)" fill="rgb(254,254,254)" d="M  50,90l 0,0 1,1 1,1 2,0 1,-1 2,0 1,-1 2,0 1,-1 1,0 1,-1 2,0 1,-1 1,0 1,-1 2,0 1,-1 2,0 1,-1 1,0 1,-1 2,0 1,-1 1,0 1,-1 2,0 1,-1 1,0 1,-1 2,0 1,-1 1,0 1,-1 2,0 1,-1 1,0 1,-1 2,0 1,-1 1,0 1,-1 2,0 1,-1 1,0 1,-1 2,0 1,-1 1,0 1,-1 2,0 1,-1 1,0 1,-1 2,0 1,-1 1,0 1,-1 1,0 1,-1 2,0 1,-1 2,0 1,-1 1,0 1,-1 2,0 1,-1 1,0 1,-1 2,0 1,-1 1,0 1,-1 2,0 0,-1 -2,0 -1,1 -2,0 -1,1 -2,0 -1,1 -1,0 -1,1 -2,0 -1,1 -1,0 -1,1 -2,0 -1,1 -2,0 -1,1 -1,0 -1,1 -1,0 -1,1 -2,0 -1,1 -1,0 -1,1 -2,0 -1,1 -1,0 -1,1 -2,0 -1,1 -1,0 -1,1 -2,0 -1,1 -1,0 -1,1 -2,0 -1,1 -1,0 -1,1 -2,0 -1,1 -1,0 -1,1 -2,0 -1,1 -1,0 -1,1 -2,0 -1,1 -1,0 -1,1 -2,0 -1,1 -1,0 -1,1 -2,0 -1,1 -1,0 -1,1 -2,0 -1,1 -2,0 -1,1 -1,0 -1,1 -2,0 -1,1 -1,0 -1,1 -2,0 -1,-1Z"/>
<path onmouseover="hoverPath(evt)" onmouseout="recoverPath(evt)" fill="rgb(243,241,233)" d="M  106,247l -1,0 0,1 -1,1 0,6 36,0 0,-2 1,-1 2,0 1,-1 1,0 0,-2 1,-1 3,0 1,1 0,-3 1,-1 0,-14 -1,-1 -8,0 -1,-1 -3,0 -1,1 -2,0 -1,1 -2,0 0,2 -1,1 -1,1 -3,0 -1,1 -1,0 -1,1 -1,0 -1,1 -1,0 0,2 -1,1 -1,1 -1,1 -2,0 -1,1 -3,0 -1,1 -1,0 -1,1 -2,0 -1,1Z"/>
<path onmouseover="hoverPath(evt)" onmouseout="recoverPath(evt)" fill="rgb(243,242,234)" d="M  150,255l 102,0 0,-2 -1,-1 0,0 -1,-1 0,-1 -1,-1 -1,-1 0,-2 -1,0 -1,-1 0,-2 -1,0 -1,-1 -1,-1 0,-1 -1,-1 -1,-1 0,-1 -1,-1 -1,-1 0,-1 -1,-1 -1,-1 0,-2 -1,0 -1,-1 -1,-1 0,-1 -1,-1 -1,-1 0,-1 -1,-1 -1,-1 0,-2 -1,0 -1,-1 -1,-1 0,-1 -1,-1 -1,-1 0,-1 -1,-1 -1,-1 0,-2 -1,0 -1,-1 -1,-1 0,-1 -1,-1 -1,-1 0,-1 -1,-1 -1,-1 0,-2 -1,0 -1,-1 0,-1 -1,-1 -1,0 -1,-1 -1,1 -1,0 0,2 -1,1 -1,0 -1,1 -2,0 -1,-1 0,1 -1,1 0,26 -1,1 0,2 -1,1 -1,1 -1,0 -1,1 -2,0 -1,-1 0,-2 1,-1 1,0 1,-1 0,-8 1,-1 0,-13 -1,-1 -1,0 -1,1 -1,0 -1,1 -1,0 -1,1 -1,0 -1,1 -1,0 -1,1 -1,0 -1,1 -1,0 -1,1 -1,0 -1,1 -1,0 -1,1 -1,1 -1,0 -1,1 -1,0 -1,1 -1,0 0,2 1,1 0,1 1,1 0,16 -1,1 -2,0 -1,-1 0,-14 -1,-1 0,-1 -1,-1 0,-1 -1,-1 0,-1 -1,0 -1,1 -1,0 -1,1 -1,0 -1,1 -1,0 -1,1 -1,1 -1,0 0,1 -1,1 -1,0 -1,1 -4,0 -1,1 1,0 1,1 0,0 1,1 0,16 -1,1 0,3 -1,1 -2,0 -1,-1 -1,0 0,2 -1,1 -1,0 -1,1 -2,0 0,1Z"/>
<path onmouseover="hoverPath(evt)" onmouseout="recoverPath(evt)" fill="rgb(244,242,235)" d="M  166,66l -2,0 0,1 1,1 0,0 1,1 0,2 1,0 1,1 1,1 0,1 1,1 1,1 0,2 1,0 1,1 1,1 0,2 1,0 2,2 0,1 1,1 1,1 1,1 0,1 1,1 1,1 0,1 1,1 1,1 1,1 0,1 1,1 1,1 1,1 0,1 1,1 1,1 1,1 0,1 1,1 1,1 1,0 1,1 1,0 1,-1 2,0 1,-1 1,0 1,-1 0,-1 1,-1 1,-1 2,0 1,1 0,1 1,-1 1,0 1,-1 0,-1 1,-1 1,-1 2,0 1,1 0,1 1,-1 1,0 1,-1 0,-1 1,-1 1,-1 2,0 1,1 0,1 1,-1 1,0 1,-1 2,0 1,-1 2,0 1,-1 2,0 1,-1 2,0 1,-1 2,0 1,-1 2,0 1,-1 2,0 1,-1 2,0 1,-1 2,0 1,-1 2,0 0,-55 -1,0 -1,1 -2,0 -1,1 -2,0 -1,1 -2,0 -1,1 -1,0 -1,1 -2,0 -1,1 -2,0 -1,1 -1,0 -1,1 -2,0 -1,1 -1,0 -1,1 -2,0 -1,1 -1,0 -1,1 -2,0 -1,1 -1,0 -1,1 -2,0 -1,1 -1,0 -1,1 -2,0 -1,1 -1,0 -1,1 -2,0 -1,1 -1,0 -1,1 -2,0 -1,1 -1,0 -1,1 -1,0 -1,1 -2,0 -1,1 -2,0 -1,1 -1,0 -1,1 -2,0 -1,1 -1,0 -1,1 -2,0 -1,1 -2,0 -1,1 -1,0 -1,1 -2,0 -1,1 -1,0 -1,1 -2,0 -1,1 -1,0 -1,1Z"/>
<path onmouseover="hoverPath(evt)" onmouseout="recoverPath(evt)" fill="rgb(243,239,230)" d="M  203,117l 0,0 -1,-1 -1,0 -1,1 -1,0 0,2 2,0 1,1 0,1 1,1 0,7 -1,1 0,3 3,0 1,-1 5,0 1,1 0,2 3,0 1,1 3,0 1,1 4,0 1,1 3,0 1,1 7,0 1,-1 8,0 1,1 0,2 9,0 0,-42 -1,0 -1,-1 -1,1 -3,0 -1,1 -2,0 -1,1 -2,0 -1,1 -2,0 -1,1 -2,0 -1,1 -2,0 -1,1 -2,0 -1,1 -2,0 -1,1 -1,0 -1,1 0,1 -1,1 -2,0 -1,-1 -1,0 -1,1 -1,0 -1,1 -2,0 -1,1 -2,0 -1,1 -2,0 -1,1 -1,0 -1,1 0,1 -1,1Z"/>
<path onmouseover="hoverPath(evt)" onmouseout="recoverPath(evt)" fill="rgb(248,237,139)" d="M  0,15l 0,6 2,0 1,-1 2,0 1,-1 1,0 1,-1 1,0 1,-1 2,0 1,-1 1,0 1,-1 1,0 1,-1 1,0 1,-1 2,0 0,-1 1,-1 1,-1 2,0 1,1 1,-1 1,-1 1,0 1,-1 2,0 1,-1 1,0 1,-1 1,0 1,-1 1,0 1,-1 1,0 1,-1 2,0 1,1 0,-1 1,-1 1,0 0,-2 -18,0 0,3 -1,1 -2,0 -1,-1 -1,1 -2,0 -1,1 -1,0 -1,1 -1,0 -1,1 -1,0 -1,1 -2,0 -1,1 -1,0 -1,1 -1,0 -1,1 -1,0 -1,1 -2,0 -1,1 -2,0Z"/>
<path onmouseover="hoverPath(evt)" onmouseout="recoverPath(evt)" fill="rgb(172,198,238)" d="M  9,195l -1,0 -1,1 -1,0 -1,1 -1,0 -1,1 -3,0 0,1 1,0 3,-1 1,0 1,-1 2,0 1,-1 0,-1 4,0 1,-1 2,0 1,-1 1,0 1,-1 2,0 1,-1 2,0 1,-1 2,0 1,-1 2,0 1,-1 2,0 1,-1 2,0 1,-1 1,0 1,-1 2,0 1,-1 2,0 1,-1 2,0 1,-1 1,0 1,-1 -1,-1 -1,0 -1,1 -3,0 -1,1 -1,1 -2,0 -1,1 -2,0 -1,1 -3,0 -1,1 -1,1 -3,0 -1,1 -1,0 -1,1 -1,0 -1,1 -2,0 -1,1 -1,0 -1,1 -2,0 -1,1 1,0 5,-2 3,-1 -11,5Z"/>
<path onmouseover="hoverPath(evt)" onmouseout="recoverPath(evt)" fill="rgb(250,250,245)" d="M  31,19l -3,0 -1,-1 0,3 -1,1 2,0 1,1 1,1 0,2 -1,1 2,0 1,1 1,1 0,2 -1,1 2,0 1,1 1,1 0,1 1,1 1,1 0,2 -1,1 2,0 1,1 1,1 0,1 1,1 1,1 0,1 1,1 0,-3 1,-1 -2,0 -2,-2 0,-2 1,-1 -2,0 -1,-1 -1,-1 0,-1 -1,-1 -1,-1 0,-2 1,-1 -2,0 -1,-1 -1,-1 0,-1 -1,-1 0,-1 -1,-1 -1,-1 0,-3 1,-1 -5,-1 1,-1 0,-1 1,-1 -2,0 -1,-1 0,-1 -1,-1 -1,1 0,1 -1,1 2,0 1,1 0,1 1,1 5,1Z"/>
<path onmouseover="hoverPath(evt)" onmouseout="recoverPath(evt)" fill="rgb(172,198,238)" d="M  160,63l 0,1 1,1 1,0 1,-1 2,0 1,-1 1,0 1,-1 2,0 1,-1 1,0 1,-1 2,0 1,-1 1,0 1,-1 2,0 1,-1 2,0 1,-1 1,0 1,-1 2,0 1,-1 1,0 1,-1 2,0 1,-1 2,0 1,-1 1,0 1,-1 1,0 1,-1 2,0 1,-1 1,0 1,-1 2,0 1,-1 1,0 1,-1 2,0 1,-1 1,0 1,-1 2,0 1,-1 1,0 1,-1 2,0 1,-1 1,0 1,-1 2,0 1,-1 1,0 1,-1 2,0 1,-1 1,0 1,-1 2,0 1,-1 2,0 1,-1 1,0 1,-1 2,0 1,-1 2,0 1,-1 2,0 1,-1 2,0 0,-4 -1,0 -1,1 -1,0 -1,1 -2,0 -1,1 -4,0 -1,-1 0,-2 -1,0 -1,1 -1,0 -1,1 1,1 0,2 -1,1 -1,1 -3,0 -1,1 -1,1 -3,0 -1,1 -1,0 -1,1 -1,0 -1,1 -1,0 -1,1 -3,0 -1,1 -1,0 -1,1 -1,0 -1,1 -1,0 -1,1 -2,0 -1,1 -1,0 -1,1 -1,0 -1,1 -2,0 -1,1 -1,0 -1,1 -2,0 -1,1 -1,0 -1,1 -2,0 -1,1 -1,0 -1,1 -1,0 -1,1 -2,0 -1,1 -2,0 -1,1 -1,0 -1,1 -3,0 -1,1 -1,1 -2,0 -1,1 -1,0 -1,1 -2,0 -1,1 -2,0 -1,1 -1,0 -1,1 -2,0 -1,1Z"/>
<path onmouseover="hoverPath(evt)" onmouseout="recoverPath(evt)" fill="rgb(253,253,253)" d="M  171,220l 0,-3 1,-1 1,0 1,-1 1,0 1,-1 1,0 2,-2 1,0 1,-1 1,0 1,-1 1,0 1,-1 1,0 1,-1 1,0 1,-1 1,0 1,-1 1,0 1,-1 1,0 1,-1 3,0 1,1 1,1 0,15 -1,1 0,8 -1,1 2,-4 0,-26 1,-1 0,-1 1,-1 2,0 1,1 1,-1 1,0 0,-2 1,-1 1,0 1,-1 1,0 0,-1 -3,0 -1,-1 0,2 -1,1 -1,0 -1,1 -1,0 -1,1 -4,0 -1,-1 0,3 -1,1 -1,1 -1,0 -1,1 -1,0 -1,1 -1,0 -1,1 -1,0 -1,1 -1,0 -1,1 -1,0 -1,1 -1,0 -1,1 -1,0 -1,1 -1,0 -1,1 -1,0 -1,1 -1,0 -1,1 -1,1 -1,0 -1,1 -1,0 -1,1 -1,0 -1,1 -1,0 -1,1 -1,0 -1,1 -1,1 -1,0 -1,1 -1,0 -1,1 -3,0 0,4 1,-1 1,0 0,-1 1,-1 1,0 1,-1 1,-1 1,0 1,-1 1,0 1,-1 1,0 1,-1 3,0 1,1 0,1 1,1Z"/>
</svg>