<svg width="256" height="256" xmlns="http://www.w3.org/2000/svg"><script> 
var tempColor;
function hoverPath(evt){
obj = evt.target;
tempColor = obj.getAttribute("fill");
obj.setAttribute("fill","red");
//alert(tempColor);
//obj.setAttribute("stroke","red");}
function recoverPath(evt){
obj = evt.target;
obj.setAttribute("fill", tempColor);
//obj.setAttribute("stroke", tempColor);
}</script><path onmouseover="hoverPath(evt)" onmouseout="recoverPath(evt)" fill="rgb(244,242,234)" d="M  166,67l -1,-1 0,-3 -1,0 0,47 1,1 10,0 1,-1 31,0 1,1 15,0 1,1 1,0 1,1 0,2 5,0 1,-1 7,0 1,-1 5,0 1,-1 4,0 1,-1 4,0 0,-27 -16,0 -1,1 -9,0 -1,1 -21,0 -1,1 -11,0 -1,1 -13,0 -1,-1 -1,0 -1,-1 -1,-1 -1,-1 0,-1 -1,-1 -1,-1 0,-1 -1,-1 0,-1 -1,-1 -1,-1 0,-1 -1,-1 0,-1 -1,-1 0,-1 -1,-1 0,-1 -1,-1 -1,-1Z"/>
<path onmouseover="hoverPath(evt)" onmouseout="recoverPath(evt)" fill="rgb(244,243,236)" d="M  198,236l -2,0 0,3 1,1 0,3 2,0 1,1 0,1 3,0 1,-1 5,0 1,-1 3,0 1,-1 3,0 1,-1 1,0 1,-1 4,0 1,-1 1,0 1,-1 3,0 1,-1 2,0 1,-1 3,0 1,-1 4,0 1,-1 0,-1 1,-1 0,-1 1,-1 0,-2 1,-1 0,-2 1,-1 0,-3 -1,1 -2,0 -1,1 -3,0 -1,1 -3,0 -1,1 -3,0 -1,1 -3,0 -1,1 -2,0 -1,1 -3,0 -1,1 -2,0 -1,1 -3,0 -1,1 -1,0 -1,1 -2,0 -1,1 -2,0 -1,1 -2,0 -1,1 -3,0 -1,1Z"/>
<path onmouseover="hoverPath(evt)" onmouseout="recoverPath(evt)" fill="rgb(245,244,237)" d="M  253,232l 0,2 -1,1 0,2 -1,1 0,2 -1,1 0,2 -1,1 0,1 -1,1 0,2 -1,1 0,2 -1,1 0,3 9,0 0,-26 -1,0 0,2 -1,1Z"/>
<path onmouseover="hoverPath(evt)" onmouseout="recoverPath(evt)" fill="rgb(244,243,235)" d="M  7,220l -2,0 0,2 1,1 0,2 -1,1 -2,0 -1,-1 -1,-1 0,-1 -1,0 0,32 96,0 0,-2 1,-1 3,0 1,-1 3,0 1,-1 1,0 0,-2 -1,-1 0,-3 -1,-1 0,-3 -1,-1 0,-2 -1,-1 0,-2 -1,-1 0,-2 -1,-1 0,-3 1,-1 0,-8 -1,-1 0,-4 1,-1 0,-1 -1,-1 -2,0 -1,-1 0,-3 -1,0 -1,-1 -1,-1 -1,-1 -1,-1 -1,-1 0,-1 -1,-1 0,-1 -2,0 -1,-1 -1,-1 0,-1 -4,0 -1,1 -2,0 -1,-1 -1,0 -1,1 -3,0 -1,1 -2,0 -1,1 -2,0 0,2 -1,1 -1,0 -1,1 -3,0 -1,1 -1,0 -1,1 -4,0 -1,-1 -1,0 -1,1 -2,0 0,2 -1,1 -3,0 -1,-1 -1,0 -1,1 -2,0 -1,1 -3,0 0,2 -1,1 -1,0 -1,1 -2,0 -1,1 -2,0 -1,1 -2,0 -1,1 -2,0 -1,1 -2,0 -1,1 -3,0 -1,1 -1,0 -1,1 -4,0 -1,1 4,14 2,0 1,1 1,1 0,2 -1,1 -2,0 -1,-1 -1,-1 0,-2 1,-1 -4,-14Z"/>
<path onmouseover="hoverPath(evt)" onmouseout="recoverPath(evt)" fill="rgb(172,198,236)" d="M  117,33l 0,0 1,1 0,1 1,1 1,1 1,0 1,1 1,1 1,0 1,1 1,0 1,1 1,0 1,1 1,0 1,1 1,0 1,1 2,0 1,1 1,0 1,1 2,0 1,1 2,0 1,1 3,0 1,1 1,0 1,1 1,0 1,1 1,0 1,1 2,0 1,1 1,0 1,1 1,0 0,-1 -1,-1 0,-1 -2,0 -1,-1 -1,0 -1,-1 -1,0 -1,-1 -1,0 -1,-1 -1,0 -1,-1 -1,0 -1,-1 -2,0 -1,-1 -1,0 -1,-1 -1,0 -1,-1 -1,0 -1,-1 -1,0 -1,-1 -1,-1 -1,0 -1,-1 -1,0 -1,-1 -1,0 -1,-1 -1,0 -1,-1 -1,-1 -1,0 -1,-1 -1,0 -1,-1 -1,0 -1,-1 -1,0 -1,-1 -1,0 -1,-1 -1,-1 -1,0 -1,-1 -3,0 -1,-1 0,-3 -2,0 -1,-1 -2,0 -1,-1 -1,-1 -2,0 -1,-1 -2,0 -1,-1 -1,0 -1,-1 -1,0 -1,-1 -1,0 -1,-1 -2,0 -1,-1 -2,0 -1,-1 -1,0 -1,-1 -1,0 -1,-1 -1,0 -1,-1 -1,0 -1,-1 -1,0 -1,-1 -1,0 -1,-1 -2,0 -1,-1 -1,0 -1,-1 -2,0 -1,-1 -2,0 -1,-1 -1,0 -1,-1 0,-2 -15,0 2,1 1,0 1,1 1,0 1,1 1,0 1,1 1,0 1,1 2,0 1,1 1,0 1,1 1,0 1,1 1,0 1,1 1,0 1,1 1,0 1,1 2,0 1,1 2,0 1,1 1,0 1,1 1,0 1,1 1,0 1,1 1,0 1,1 1,0 1,1 1,0 1,1 2,0 1,1 1,0 1,1 2,0 1,1 1,0 1,1 1,1 3,0 1,1 2,0 1,1 1,0 1,1 2,0 1,1 1,1 1,0 1,1 0,1 3,0 1,1 1,1Z"/>
<path onmouseover="hoverPath(evt)" onmouseout="recoverPath(evt)" fill="rgb(244,242,235)" d="M  136,192l -1,0 -1,1 1,1 0,1 1,1 0,1 1,1 0,2 1,1 1,1 0,4 -1,1 0,1 1,1 0,2 1,1 0,2 1,1 0,2 1,1 0,2 2,0 1,1 0,2 1,1 0,3 1,1 0,4 -1,1 0,2 2,0 1,1 0,1 4,0 1,-1 2,0 1,-1 3,0 1,-1 2,0 1,-1 4,0 1,-1 4,0 1,-1 2,0 1,-1 3,0 1,-1 3,0 1,-1 6,0 0,-1 -1,-1 0,-3 -2,0 -1,-1 0,-4 -1,-1 0,-4 -1,-1 0,-4 -1,-1 0,-4 -1,-1 0,-3 -1,-1 0,-10 1,-1 0,-3 -1,-1 -1,0 -1,1 -5,0 0,2 -1,1 -5,0 -1,-1 -2,0 -1,-1 0,-1 -5,0 -1,-1 -2,0 -1,1 -3,0 -1,1 -3,0 -1,1 -2,0 0,2 -1,1 -1,0 -1,1 -2,0 -1,1 -3,0 -1,1Z"/>
<path onmouseover="hoverPath(evt)" onmouseout="recoverPath(evt)" fill="rgb(244,243,236)" d="M  153,0l -1,0 0,20 1,1 0,2 3,0 1,-1 4,0 1,1 0,2 3,0 1,1 3,0 1,-1 2,0 1,1 1,1 0,6 -1,1 0,1 -1,1 0,3 -1,1 0,1 -1,1 -2,0 0,1 -1,1 0,1 -1,1 1,1 0,2 -1,1 0,1 -1,1 0,3 1,0 1,1 0,1 1,1 1,1 0,1 1,1 0,1 1,1 1,1 0,1 1,1 0,1 1,1 0,1 1,1 1,1 0,1 1,1 0,1 1,1 1,1 0,1 1,1 1,1 1,1 1,1 1,1 1,1 10,0 1,-1 16,0 1,-1 14,0 1,-1 11,0 1,-1 11,0 1,-1 3,0 0,-29 -2,0 -1,-1 -1,0 -1,-1 -1,0 -1,-1 -3,-3 -1,-1 -1,-1 -1,-1 -1,-1 -1,-1 -1,-1 -1,-1 -1,0 -3,-3 0,-1 -1,-1 -1,-1 -1,-1 -1,-1 -1,-1 -1,-1 -1,-1 -1,-1 0,-1 -1,-1 -1,-1 0,-1 -1,-1 0,-1 -1,-1 0,-1 -1,-1 0,-1 -1,-1 0,-2 -1,-1 0,-10Z"/>
<path onmouseover="hoverPath(evt)" onmouseout="recoverPath(evt)" fill="rgb(170,198,238)" d="M  221,1l 0,8 1,1 0,2 1,1 0,1 1,1 0,1 1,1 0,1 1,1 0,1 1,1 1,1 0,1 1,1 1,1 1,1 1,1 1,1 1,1 1,1 1,1 0,1 1,1 1,1 1,0 1,1 2,2 1,1 1,1 1,1 2,2 1,1 1,1 1,1 1,0 1,1 1,0 1,1 1,0 0,-7 -2,0 -1,-1 -1,-1 -1,-1 -1,-1 -1,-1 -1,-1 -1,-1 -1,-1 -1,-1 -1,-1 -1,-1 -1,-1 -1,-1 0,-1 -1,-1 -1,-1 -1,-1 -1,-1 0,-1 -1,-1 0,-1 -1,-1 -1,-1 0,-1 -1,-1 0,-1 -1,-1 0,-1 -1,-1 0,-2 -1,-1 0,-3 -1,-1 0,-4 -6,0 -1,1Z"/>
<path onmouseover="hoverPath(evt)" onmouseout="recoverPath(evt)" fill="rgb(244,243,237)" d="M  230,1l 0,2 1,1 0,3 1,1 0,2 1,1 0,1 1,1 0,1 1,1 0,1 1,1 1,1 0,1 1,1 0,1 2,2 1,1 1,1 0,1 1,1 1,1 4,4 1,1 4,4 1,1 1,0 0,-38 -24,0 -1,1Z"/>
<path onmouseover="hoverPath(evt)" onmouseout="recoverPath(evt)" fill="rgb(241,240,233)" d="M  0,42l 0,78 15,0 0,-4 1,-1 9,0 1,1 0,1 8,0 1,1 0,1 1,0 1,1 2,0 0,-2 1,-1 3,0 1,-1 3,0 1,-1 1,0 0,-4 -1,-1 0,-4 -1,-1 0,-4 -2,0 -1,-1 0,-9 -2,0 -1,-1 0,-1 -1,-1 0,-3 -1,-1 0,-7 1,-1 2,0 0,-19 1,-1 0,-17 -1,0 -1,-1 -1,0 -1,1 -3,0 -1,-1 -24,0 0,2 -1,1 -9,0 -1,1Z"/>
<path onmouseover="hoverPath(evt)" onmouseout="recoverPath(evt)" fill="rgb(244,247,250)" d="M  45,47l 0,0 1,-1 0,-1 -1,-1 0,-4 1,-1 0,-1 -1,-1 0,-1 -45,0 0,3 9,0 0,-2 36,10 -8,-10 7,0 1,1 0,19 -1,1 1,0 -1,1Z"/>
<path onmouseover="hoverPath(evt)" onmouseout="recoverPath(evt)" fill="rgb(242,241,234)" d="M  46,90l 0,9 2,0 1,1 0,4 1,1 0,4 2,0 1,1 0,4 3,0 1,-1 5,0 1,-1 51,0 1,-1 44,0 0,-1 1,-1 0,-15 -1,-1 0,-22 1,-1 0,-14 -2,0 -1,-1 -1,0 -1,-1 -2,0 -1,-1 -1,0 -1,-1 -1,0 -1,-1 -1,0 -1,-1 -3,0 -1,-1 -2,0 -1,-1 -2,0 -1,-1 -1,0 -1,-1 -2,0 -1,-1 -1,0 -1,-1 -1,0 -1,-1 -1,0 -1,-1 -1,0 -1,-1 -1,0 -2,-2 -1,0 -1,-1 -1,-1 -1,-1 0,-1 -2,0 -1,-1 -1,-1 -3,0 -1,-1 0,-1 -1,0 -1,-1 -1,-1 -2,0 -1,-1 -1,0 -1,-1 -2,0 -1,-1 -3,0 -1,-1 -1,-1 -1,0 -1,-1 -2,0 -1,-1 -1,0 -1,-1 -2,0 -1,-1 -1,0 -1,-1 -1,0 -1,-1 -1,0 -1,-1 -1,0 -1,-1 -1,0 -1,-1 -1,0 -1,-1 -2,0 -1,-1 -2,0 -1,-1 -1,0 -1,-1 -1,0 -1,-1 -1,0 -1,-1 -1,0 -1,-1 -1,0 -1,-1 -2,0 -1,-1 -1,0 -1,-1 -1,0 -1,-1 -1,0 -1,-1 -1,0 -1,-1 -1,0 -1,-1 0,-1 -41,0 0,34 46,0 1,1 0,1 1,1 0,3 -1,1 0,2 1,1 0,3 -1,1 0,11 -1,1 0,12 -1,1 -1,0 0,4 -1,1 -2,0 0,5 1,1 0,3 1,1 0,1 2,0 1,1Z"/>
<path onmouseover="hoverPath(evt)" onmouseout="recoverPath(evt)" fill="rgb(244,242,235)" d="M  92,192l 0,0 -1,-1 -4,0 -1,1 -1,0 -1,1 3,0 1,1 0,1 1,1 2,0 1,1 0,1 1,1 0,1 1,1 1,1 1,1 1,1 1,0 1,1 0,3 2,0 1,1 1,1 0,3 -1,1 0,2 1,1 0,10 -1,1 0,1 1,1 0,2 1,1 0,2 1,1 0,2 1,1 0,3 1,1 0,3 1,1 0,3 1,0 0,-1 1,-1 3,0 1,-1 2,0 1,-1 2,0 1,-1 2,0 1,-1 2,0 1,-1 3,0 1,-1 3,0 1,-1 3,0 1,-1 3,0 1,-1 1,0 0,-2 1,-1 0,-4 1,-1 0,-2 -1,-1 0,-3 -1,-1 0,-2 -2,0 -1,-1 0,-2 -1,-1 0,-2 -1,-1 0,-2 -1,-1 0,-2 -1,-1 0,-3 1,-1 0,-2 -1,-1 0,0 -1,-1 0,-2 -1,-1 0,-1 -1,-1 0,-1 -1,-1 0,-2 1,-1 1,-1 -3,0 -1,-1 -2,0 -1,-1 0,-1 -1,-1 0,-1 -1,-1 0,-1 -1,-1 -1,0 -1,1 -1,0 -1,1 -1,0 -1,1 -1,0 -1,1 -2,0 -1,1 -4,0 -1,-1 -1,0 -1,1 -3,0 -1,1 -2,0 0,2 -1,1 -2,0 -1,1Z"/>
<path onmouseover="hoverPath(evt)" onmouseout="recoverPath(evt)" fill="rgb(242,232,141)" d="M  108,255l 8,0 0,-2 1,-1 3,0 1,-1 3,0 1,1 1,0 1,-1 3,0 1,-1 2,0 1,-1 3,0 1,-1 3,0 1,-1 4,0 0,-1 1,-1 6,0 1,-1 3,0 1,-1 3,0 1,-1 3,0 1,-1 3,0 1,-1 3,0 1,-1 3,0 1,-1 3,0 1,-1 3,0 1,-1 4,0 0,-1 1,-1 6,0 1,-1 3,0 1,-1 2,0 1,-1 2,0 1,-1 2,0 1,-1 1,0 1,-1 3,0 1,-1 2,0 1,-1 3,0 1,-1 2,0 1,-1 3,0 1,-1 3,0 1,-1 3,0 1,-1 3,0 1,-1 2,0 1,-1 2,0 0,-1 1,-1 2,0 1,-1 3,0 0,-16 -1,0 0,5 -1,1 0,5 -1,1 -1,0 -1,1 -2,0 -1,1 -4,0 -1,1 -2,0 -1,1 -3,0 -1,1 -4,0 -1,1 -2,0 -1,1 -3,0 -1,1 -2,0 -1,1 -3,0 -1,1 -2,0 -1,1 -2,0 -1,1 -2,0 -1,1 -1,0 -1,1 -3,0 -1,1 -3,0 -1,1 -4,0 0,1 -1,1 -6,0 -1,1 -3,0 -1,1 -3,0 -1,1 -2,0 -1,1 -4,0 -1,1 -4,0 -1,1 -2,0 -1,1 -3,0 -1,1 -2,0 -1,1 -6,0 -1,-1 0,-1 -1,0 -1,1 0,2 -1,1 -1,0 -1,1 -3,0 -1,1 -3,0 -1,1 -3,0 -1,1 -3,0 -1,1 -2,0 -1,1 -2,0 -1,1 -2,0 -1,1 -2,0 -1,1 -3,0 0,1 -1,1 -4,0 -1,1 -3,0 -1,1 -3,0 0,1Z"/>
<path onmouseover="hoverPath(evt)" onmouseout="recoverPath(evt)" fill="rgb(244,243,236)" d="M  0,167l 0,54 2,0 1,1 0,1 1,1 -1,-3 0,-2 1,-1 2,0 1,-1 4,0 1,-1 1,0 1,-1 3,0 1,-1 2,0 1,-1 2,0 1,-1 2,0 1,-1 2,0 1,-1 2,0 1,-1 1,0 0,-2 1,-1 3,0 1,-1 2,0 1,-1 3,0 1,1 1,0 0,-2 1,-1 2,0 1,-1 3,0 1,1 2,0 1,-1 1,0 1,-1 3,0 1,-1 1,0 0,-2 1,-1 2,0 1,-1 2,0 1,-1 3,0 1,-1 3,0 1,1 0,-2 1,-1 2,0 1,-1 1,0 1,-1 6,0 1,1 2,0 1,-1 2,0 0,-2 1,-1 2,0 1,-1 3,0 1,-1 3,0 1,1 2,0 1,-1 2,0 1,-1 1,0 0,-2 1,-1 1,0 1,-1 2,0 1,1 2,0 1,1 1,1 0,1 2,0 1,1 0,2 -1,1 2,0 1,1 4,0 1,1 2,0 1,-1 2,0 1,-1 1,0 0,-2 1,-1 2,0 1,-1 3,0 1,-1 3,0 1,-1 4,0 1,1 5,0 1,1 0,1 2,0 1,1 3,0 0,-2 1,-1 5,0 1,-1 3,0 1,1 1,1 0,5 -1,1 0,8 1,1 0,3 1,1 0,4 1,1 0,4 1,1 0,4 1,1 0,4 2,0 1,1 0,3 1,1 3,0 1,-1 3,0 1,-1 3,0 1,-1 1,0 1,-1 2,0 1,-1 2,0 1,-1 2,0 1,-1 3,0 1,-1 2,0 1,-1 3,0 1,-1 2,0 1,-1 4,0 1,-1 3,0 1,-1 2,0 1,-1 4,0 1,-1 2,0 1,-1 1,0 0,-5 1,-1 0,-5 1,-1 2,0 0,-85 -3,0 -1,1 -4,0 -1,1 -5,0 -1,1 -7,0 0,2 -1,1 -2,0 -1,1 -2,0 0,1 -1,1 0,5 -1,1 -2,0 -1,-1 0,-11 -1,0 -1,-1 -18,0 -1,-1 -19,0 -1,1 -27,0 -1,1 -1,0 0,10 -1,1 0,6 -1,1 -2,0 -1,-1 0,-9 1,-1 0,-7 -1,-1 -20,0 -1,1 -63,0 -1,-1 -4,0 -1,1 -5,0 -1,-1 0,1 -1,1 -1,0 -1,1 -3,0 -1,1 -3,0 0,2 -1,1 -4,0 -1,-1 -1,0 -1,-1 0,-1 -8,0 -1,-1 0,-1 -7,0 0,4 -1,1 -16,0Z"/>
<path onmouseover="hoverPath(evt)" onmouseout="recoverPath(evt)" fill="rgb(242,240,234)" d="M  106,20l 0,0 1,1 2,0 1,1 0,3 3,0 1,1 1,0 1,1 1,1 1,0 1,1 1,0 1,1 1,0 1,1 1,0 1,1 1,0 1,1 1,1 1,0 1,1 1,0 1,1 1,0 1,1 1,0 1,1 1,1 1,0 1,1 1,0 1,1 1,0 1,1 1,0 1,1 2,0 1,1 1,0 1,1 1,0 1,1 1,0 1,1 1,0 1,1 1,0 1,1 2,0 1,1 0,1 1,-1 2,0 -1,-1 0,-2 1,-1 0,-1 1,-1 0,-1 1,-1 0,-1 1,-1 2,0 0,-1 1,-1 0,-3 1,-1 0,-1 1,-1 0,-4 -1,-1 0,0 -1,1 -5,0 -1,-1 -3,0 -1,-1 0,-2 -2,0 -1,1 -5,0 -1,-1 0,-2 -1,-1 0,-21 -90,0 0,1 1,0 1,1 2,0 1,1 2,0 1,1 1,0 1,1 2,0 1,1 1,0 1,1 1,0 1,1 1,0 1,1 1,0 1,1 1,0 1,1 1,0 1,1 2,0 1,1 2,0 1,1 1,0 1,1 1,0 1,1 1,0 1,1 2,0 1,1 2,0 1,1 1,1Z"/>
<path onmouseover="hoverPath(evt)" onmouseout="recoverPath(evt)" fill="rgb(242,242,235)" d="M  154,247l -6,0 0,1 -1,1 -4,0 -1,1 -3,0 -1,1 -3,0 -1,1 -2,0 -1,1 -3,0 -1,1 -3,0 -1,-1 -1,0 -1,1 -3,0 0,1 119,0 0,-2 1,-1 0,-2 1,-1 0,-2 1,-1 0,-2 1,-1 0,-2 1,-1 0,-1 -1,0 -1,1 -1,0 -1,1 -2,0 -1,1 -3,0 -1,1 -3,0 -1,1 -2,0 -1,1 -6,0 -1,-1 -2,0 -1,1 -3,0 -1,1 -5,0 -1,1 -5,0 -1,-1 0,-1 -2,0 -1,-1 0,-3 -1,-1 0,-4 -2,0 0,1 -1,1 -4,0 -1,1 -3,0 -1,1 -3,0 -1,1 -3,0 -1,1 -3,0 -1,1 -3,0 -1,1 -3,0 -1,1 -3,0 -1,1 -3,0 -1,1Z"/>
<path onmouseover="hoverPath(evt)" onmouseout="recoverPath(evt)" fill="rgb(170,198,238)" d="M  171,71l 0,0 1,1 0,1 1,1 0,1 1,1 1,1 0,1 1,1 0,1 1,1 1,1 0,1 1,1 1,1 1,0 1,1 11,0 1,-1 11,0 1,-1 21,0 1,-1 9,0 1,-1 17,0 0,-2 -2,0 -1,1 -11,0 -70,-10 59,11 -1,0 -2,1 -13,0 -9,1 -8,0 -4,1 -9,0 -1,-1 -4,-4 -1,-1 -1,-1 0,-1 -1,-1 -1,-1 0,-1 -1,-1 0,-1 -1,-1 -1,-1 0,-1 -1,-1 0,-1 -1,-1 0,-1 -1,-1 -1,-1 0,-1 -1,-1 0,-1 -1,-1 -1,-1 0,3 1,0 1,1 0,3 1,1 1,1 1,1 0,1 1,1 0,-1 -1,-2 60,15 -59,-11Z"/>
<path onmouseover="hoverPath(evt)" onmouseout="recoverPath(evt)" fill="rgb(253,253,253)" d="M  224,115l 0,11 1,-6 0,-1 1,-1 2,0 1,-1 -4,0 -1,-3 0,1 -17,-2 -1,-1 -29,0 -1,1 -12,0 -1,-1 -1,-1 -1,0 0,1 -1,1 -44,0 -1,1 34,0 1,1 0,9 -1,1 1,0 -1,1 0,6 2,-18 -1,0 11,-1 2,0 -1,-3 0,-48 1,-1 0,-9 -1,1 0,8 -1,11 0,20 16,21 30,0 17,2Z"/>
<path onmouseover="hoverPath(evt)" onmouseout="recoverPath(evt)" fill="rgb(172,199,236)" d="M  234,239l -2,0 -1,1 -3,0 -1,1 -1,0 -1,1 -4,0 -1,1 3,0 3,-1 2,-1 2,0 2,-1 1,0 1,-1 5,-2 0,1 1,-1 3,0 1,1 0,3 -1,1 0,2 -1,1 0,2 -1,1 0,2 -1,1 0,2 -1,1 0,1 5,0 0,-4 1,-1 0,-2 1,-1 0,-2 1,-1 0,-1 1,-1 0,-2 1,-1 0,-2 1,-1 0,-2 1,-1 0,-2 1,-1 0,-2 1,-1 2,0 0,-9 -2,0 -1,1 -2,0 0,1 -1,1 0,4 -1,1 0,2 -1,1 0,2 -1,1 0,1 -1,1 0,1 -1,1 0,1 -5,0 -5,2Z"/>
</svg>