<svg width="256" height="256" xmlns="http://www.w3.org/2000/svg"><script> 
var tempColor;
function hoverPath(evt){
obj = evt.target;
tempColor = obj.getAttribute("fill");
obj.setAttribute("fill","red");
//alert(tempColor);
//obj.setAttribute("stroke","red");}
function recoverPath(evt){
obj = evt.target;
obj.setAttribute("fill", tempColor);
//obj.setAttribute("stroke", tempColor);
}</script><path onmouseover="hoverPath(evt)" onmouseout="recoverPath(evt)" fill="rgb(252,252,251)" d="M  6,96l 0,2 -1,1 -1,0 -1,1 -3,0 0,3 11,0 1,-1 5,0 1,-1 2,0 1,-1 -1,0 -1,-1 0,-1 -3,0 -1,1 -7,0 -1,-1 0,-1 -1,-1Z"/>
<path onmouseover="hoverPath(evt)" onmouseout="recoverPath(evt)" fill="rgb(243,242,234)" d="M  45,220l 0,0 1,1 1,0 1,1 0,2 5,0 1,-1 23,0 0,-7 1,-1 0,-14 1,-1 0,-16 1,-1 0,-14 1,-1 -1,0 -1,-1 0,-11 -9,0 -1,-1 0,-2 1,-1 34,0 1,-1 2,0 0,-7 1,-1 0,-8 1,-1 0,-9 1,-1 0,-6 -1,-1 -3,0 -1,-1 -9,0 -1,-1 -12,0 -1,-1 -3,0 -1,1 -3,0 -1,-1 -1,-1 -1,0 -1,-1 -1,0 -1,-1 -5,0 -1,-1 -1,0 -1,1 -1,0 0,3 -1,1 0,7 -1,1 0,5 -1,1 0,3 -1,1 0,6 -1,1 -1,1 -1,1 1,1 0,4 -1,1 0,4 -1,1 0,3 -1,1 0,3 -1,1 0,4 -1,1 0,3 -1,1 0,3 -1,1 0,3 -1,1 0,3 -1,1 0,4 -1,1 0,3 -1,1 0,3 -1,1 0,3 -1,1 0,3 -1,1 0,3 -1,1 0,4 -1,1 0,3 -1,1 0,3 -1,1 0,3 -1,1 4,0 1,-1 2,0 0,-2 1,-1Z"/>
<path onmouseover="hoverPath(evt)" onmouseout="recoverPath(evt)" fill="rgb(243,242,233)" d="M  85,157l 0,15 -1,1 0,14 -1,1 0,17 -1,1 0,12 -1,1 0,4 19,0 0,-3 1,-1 0,-9 1,-1 0,-10 1,-1 0,-10 1,-1 0,-10 1,-1 0,-9 1,-1 0,-9 -2,0 -1,-1 0,-2 -32,0 10,1 0,11 1,-10 2,0 1,1Z"/>
<path onmouseover="hoverPath(evt)" onmouseout="recoverPath(evt)" fill="rgb(243,242,234)" d="M  107,59l -1,0 -1,1 -1,1 -1,1 -1,0 0,1 1,1 2,0 1,1 1,1 0,1 1,1 1,1 0,1 1,1 1,1 0,1 1,1 1,1 0,1 1,1 1,1 0,1 1,1 0,1 1,1 0,1 1,1 0,1 1,1 0,1 1,1 0,1 1,1 0,2 1,1 0,2 1,1 0,3 1,1 0,3 1,1 0,14 1,1 3,0 1,1 15,0 1,-1 4,0 1,-1 1,0 1,-1 4,0 1,-1 24,0 1,1 16,0 1,1 7,0 1,1 4,0 1,1 0,-1 1,-1 5,0 -4,-1 -10,0 -1,-1 -9,0 -1,-1 -3,0 -1,-1 0,-2 1,-1 6,0 1,1 10,0 1,1 9,0 -2,-1 0,0 -1,-1 -4,0 -1,-1 -1,-1 0,-2 -1,0 -1,-1 0,-1 -1,-1 -1,-1 -1,-1 -1,-1 -1,-1 0,-1 -1,-1 -2,0 -1,-1 -1,-1 0,-1 -1,-1 -1,-1 0,-2 1,-1 0,-1 -2,0 -1,-1 0,-2 1,-1 -1,-1 0,-4 -1,-1 0,-6 -1,-1 0,-4 1,-1 0,-11 1,-1 0,-13 1,-1 0,-8 1,-1 0,-12 1,-1 0,-12 1,-1 0,-6 -23,0 0,1 -1,1 0,1 -1,1 -1,0 -2,2 -1,1 -1,1 0,1 -1,1 -1,1 -1,1 0,3 -1,1 -3,0 0,4 -1,1 -1,1 -1,1 -3,0 -1,-1 0,-2 -1,2 -1,0 -1,1 -1,1 -1,1 -1,1 0,9 -1,1 -1,1 -1,1 -5,0 -1,-1 0,-2 -1,0 -1,1 -1,1 -1,1 0,2 -1,1 -2,0 0,2 -1,1 -1,1 -4,0 -1,1 -1,1 -1,0 -1,1 -1,1 0,2 -1,1 -4,0 0,1 -1,1 -1,0 -1,1 0,1 -1,1 -2,0 -1,1 -1,1Z"/>
<path onmouseover="hoverPath(evt)" onmouseout="recoverPath(evt)" fill="rgb(244,243,234)" d="M  199,47l -1,1 0,10 -1,1 0,18 1,1 0,3 2,0 1,1 0,2 -1,1 0,1 2,0 1,1 0,1 1,1 0,2 1,0 1,1 0,4 1,1 1,0 1,1 0,1 1,1 1,0 1,1 0,1 1,1 1,1 1,1 1,-1 2,0 1,1 1,1 1,0 1,1 0,2 1,1 1,0 1,-1 2,0 1,1 0,2 2,0 1,1 2,0 1,1 2,0 1,1 2,0 1,1 5,0 1,1 9,0 0,-71 -55,0 -1,1Z"/>
<path onmouseover="hoverPath(evt)" onmouseout="recoverPath(evt)" fill="rgb(242,236,187)" d="M  0,229l 0,4 5,0 1,-1 18,0 0,-1 1,-1 22,0 1,1 0,1 1,0 1,-1 24,0 1,1 0,9 1,1 0,5 1,1 0,4 1,1 0,2 1,0 0,-2 -1,-1 0,-5 -1,-1 0,-5 -1,-1 0,-8 1,-1 15,0 1,-1 4,0 1,1 2,0 1,1 0,15 -1,1 0,7 11,0 0,-7 1,-1 0,-14 1,-1 0,-1 1,-1 20,0 1,-1 41,0 1,-1 3,0 1,1 1,1 0,25 4,0 0,-4 -1,-1 0,-21 1,-1 30,0 1,-1 21,0 1,1 0,9 -1,1 0,17 1,0 0,-15 1,-1 2,0 0,-11 1,-1 12,0 0,-6 -33,0 -1,1 -17,0 -1,1 -3,0 -1,-1 -16,0 -1,-1 0,-1 -1,-1 0,-6 1,-1 0,-9 -1,-1 0,0 -1,-1 -11,0 -1,1 0,16 1,1 0,2 -1,1 -1,0 -1,1 -27,0 -1,1 -23,0 -1,-1 0,-15 1,-1 0,-11 1,-1 0,-11 1,-1 0,-10 1,-1 0,-9 -1,-1 0,-2 1,-1 1,0 0,-2 -1,-1 0,-3 1,-1 1,0 1,-1 1,0 0,-5 1,-1 0,-14 1,-1 0,-3 1,-1 0,-1 1,-1 2,0 0,-3 -3,0 -1,-1 -1,-1 0,-14 -1,-1 0,-3 -1,-1 0,-3 -1,-1 0,-2 -1,-1 0,-2 -1,-1 0,-1 -1,-1 0,-1 -1,-1 0,-1 -1,-1 0,-1 -1,-1 0,-1 -1,-1 0,-1 -1,-1 -1,-1 0,-1 -1,-1 -1,-1 0,-1 -1,-1 -1,-1 0,-1 -1,-1 -1,-1 0,-1 -1,-1 -2,0 -1,-1 -1,-1 0,-4 -1,0 -1,-1 0,-2 -1,-1 0,-3 1,-1 1,0 1,-1 1,-1 1,0 1,-1 1,-1 1,0 1,-1 0,-1 1,-1 2,0 1,-1 1,-1 1,0 1,-1 1,-1 1,0 1,-1 1,-1 1,-1 1,0 1,-1 0,-2 1,-1 3,0 1,-1 3,-3 1,-1 2,-2 1,-1 0,-1 1,-1 1,0 1,-1 1,-1 0,-1 1,-1 0,-5 -1,-1 0,-1 -3,0 0,4 -1,1 -1,0 0,2 -1,1 -1,1 0,1 -1,1 -1,1 -1,1 -1,0 -1,1 -1,1 -6,6 -1,1 -1,1 -1,1 -1,1 -4,0 -1,1 -1,1 -1,0 -1,1 -1,1 -1,0 -1,1 -1,1 -1,0 -1,1 -2,2 -1,0 -1,1 -1,1 -6,0 -1,-1 -1,-1 0,-1 -1,-1 0,-1 -1,-1 -1,0 -1,-1 0,-2 -1,-1 0,-4 1,-1 -1,-1 0,-1 -1,-1 -1,-1 0,-1 -1,-1 -1,-1 0,-1 -1,-1 -1,-1 0,-1 -1,-1 -1,-1 0,-1 -1,-1 -1,-1 0,-1 -1,-1 0,-1 -1,-1 -1,-1 0,-1 -1,-1 0,-2 1,-1 -3,0 -1,-1 0,-1 -1,-1 0,-3 1,-1 3,0 0,-1 -29,0 0,4 1,1 0,7 1,1 0,7 1,1 0,7 1,1 0,7 1,1 0,7 1,1 0,7 1,1 0,6 1,1 0,6 1,1 0,3 1,1 0,2 -1,1 1,1 0,6 -1,1 -1,0 0,7 -1,1 0,3 1,1 0,3 1,1 1,1 0,1 1,1 0,1 2,0 1,-1 5,0 1,1 1,1 0,1 1,1 3,0 1,1 2,0 1,1 3,0 1,1 0,2 1,0 1,1 1,0 1,1 1,1 1,0 1,-1 5,0 1,1 12,0 1,1 9,0 1,1 3,0 1,1 1,1 0,8 -1,1 0,9 -1,1 0,8 -1,1 0,7 -1,1 -2,0 -1,1 0,1 2,0 1,1 0,11 -1,1 0,9 -1,1 0,10 -1,1 0,10 -1,1 0,10 -1,1 0,9 -1,1 0,3 -1,1 -21,0 -1,-1 0,-6 1,-1 -1,0 1,-1 0,-11 1,-1 0,-17 1,-1 0,-14 1,-1 0,-13 -1,12 0,1 -1,14 0,1 -1,16 0,2 -2,21 -23,0 -1,1 -7,0 -1,-1 0,-2 -1,0 -1,-1 0,2 -1,1 -2,0 -1,1 -5,0 -1,1 -8,0 -1,-1 -15,0 -1,1 -9,0 0,2 199,-8 0,0 -199,8Z"/>
<path onmouseover="hoverPath(evt)" onmouseout="recoverPath(evt)" fill="rgb(243,242,234)" d="M  21,97l 0,1 7,0 1,-1 0,0 1,-1 2,0 1,-1 4,0 0,-4 1,-1 5,0 0,-1 1,-1 0,-6 -1,1 -1,0 -1,1 -2,0 -1,-1 0,-3 -1,-1 0,-6 -1,-1 0,-8 -1,-1 0,-6 -1,-1 0,-5 -1,-1 0,-6 -1,-1 0,-7 -1,-1 0,-7 -1,-1 0,-7 -1,-1 0,-7 -1,-1 0,-5 -1,-1 0,-5 -27,0 0,98 2,0 1,-1 1,0 0,-6 1,-1 2,0 1,1 0,4 1,1 0,1 5,0 1,-1 5,0 1,1Z"/>
<path onmouseover="hoverPath(evt)" onmouseout="recoverPath(evt)" fill="rgb(176,199,224)" d="M  26,233l 0,0 -1,1 0,4 -1,1 0,5 -1,1 0,6 -1,1 0,3 5,0 0,-6 1,-1 0,-4 1,-1 0,-3 1,-1 0,-3 1,-1 0,-2 1,-1 -5,0 -1,1Z"/>
<path onmouseover="hoverPath(evt)" onmouseout="recoverPath(evt)" fill="rgb(170,197,236)" d="M  29,1l 0,3 1,1 0,5 1,1 0,7 1,1 0,7 1,1 0,7 1,1 0,7 1,1 0,6 1,1 0,5 1,1 0,6 1,1 0,8 1,1 0,6 1,1 0,3 1,-1 1,0 1,-1 3,0 0,-4 -1,-1 0,-2 1,-1 -1,-1 0,-3 -1,-1 0,-6 -1,-1 0,-6 -1,-1 0,-7 -1,-1 0,-7 -1,-1 0,-7 -1,-1 0,-7 -1,-1 0,-7 -1,-1 0,-7 -1,-1 0,-5 -6,0 -1,1Z"/>
<path onmouseover="hoverPath(evt)" onmouseout="recoverPath(evt)" fill="rgb(170,197,237)" d="M  43,153l 0,2 -1,1 -1,1 -1,0 0,1 -1,1 0,5 -1,1 0,3 -1,1 0,5 -1,1 0,6 -1,1 0,5 -1,1 0,4 -1,1 -1,1 -1,1 -3,0 4,1 0,7 -1,1 0,3 -1,1 0,3 -1,1 0,4 -1,1 0,3 -1,1 0,4 6,0 0,-2 1,-1 0,-3 1,-1 0,-3 1,-1 0,-3 1,-1 0,-4 1,-1 0,-3 1,-1 0,-3 1,-1 0,-3 1,-1 0,-3 1,-1 0,-3 1,-1 0,-4 1,-1 0,-3 1,-1 0,-3 1,-1 0,-3 1,-1 0,-3 1,-1 0,-4 1,-1 0,-3 1,-1 0,-3 1,-1 0,-4 1,-1 0,-2 -1,-1 0,-2 1,-1 1,-1 1,-1 0,-6 1,-1 0,-3 1,-1 0,-5 1,-1 0,-7 1,-1 0,-3 1,-1 1,0 1,-1 3,0 1,1 4,0 -4,-1 0,0 -3,-1 -3,0 -1,-1 -1,-1 0,-1 -1,-1 -3,0 -1,1 0,7 -1,1 0,4 -1,1 0,3 -1,1 0,3 -1,1 0,4 -1,1 0,3 -1,1 0,3 -1,1 0,3 -1,1 0,3 -1,1 0,2 1,-2 3,0 1,1 0,2 -1,1 -1,1 -1,1 -1,0 -1,1Z"/>
<path onmouseover="hoverPath(evt)" onmouseout="recoverPath(evt)" fill="rgb(235,234,223)" d="M  83,37l 0,1 1,1 0,2 1,0 1,1 1,1 0,1 1,1 0,1 1,1 4,0 1,-1 0,0 1,-1 1,0 1,-1 1,-1 1,-1 1,0 1,-1 1,-1 1,0 1,-1 1,-1 1,0 1,-1 1,-1 4,0 1,-1 1,-1 1,-1 1,-1 1,-1 1,-1 1,-1 1,-1 3,-3 1,-1 1,0 1,-1 1,-1 0,-1 1,-1 1,-1 0,-2 1,-1 1,0 0,-4 1,-1 1,0 0,-1 -1,-1 0,-2 -1,1 0,0 1,2 0,0 -2,2 -1,0 -1,-1 -1,0 -1,-1 -1,0 -1,-1 0,-1 -1,-1 0,-2 1,-1 3,0 1,-1 1,0 1,-1 1,-1 1,0 0,-1 -12,0 0,3 -1,1 -1,1 -1,0 -1,1 -2,0 -1,1 -2,0 -1,-1 0,-2 -2,0 -1,-1 -10,0 -1,1 -1,0 0,1 -1,1 -1,0 -1,1 -11,0 -1,-1 -3,0 -1,1 -4,0 0,2 -1,1 -2,0 1,1 0,1 1,1 1,1 0,1 1,1 0,1 1,1 1,1 0,1 1,1 1,1 0,1 1,1 1,1 0,1 1,1 1,1 0,1 1,1 1,1 0,1 1,1 0,2 -1,1Z"/>
<path onmouseover="hoverPath(evt)" onmouseout="recoverPath(evt)" fill="rgb(239,238,232)" d="M  101,53l 0,0 -1,1 -1,0 0,1 1,1 0,2 1,0 1,1 0,1 2,-2 1,-1 1,0 1,-1 1,-1 2,0 0,-1 1,-1 1,-1 1,0 0,-1 1,-1 4,0 0,-2 1,-1 1,-1 1,-1 1,0 2,-2 4,0 1,-1 0,-2 1,-1 2,0 0,-2 1,-1 1,-1 1,-1 1,-1 3,0 1,1 0,2 3,0 1,-1 0,0 1,-1 0,-9 1,-1 1,-1 1,-1 1,-1 1,-1 1,0 0,-1 1,-1 2,0 1,1 0,2 1,0 1,-1 1,-1 0,-4 1,-1 3,0 0,-3 1,-1 1,-1 1,-1 0,-1 1,-1 1,-1 1,-1 1,-1 1,-1 1,0 0,-1 1,-1 -38,0 0,2 -1,1 -1,0 -1,1 -1,1 -1,0 -1,1 -3,0 1,1 0,1 1,0 1,1 1,0 1,1 -1,-2 0,-1 1,-1 1,-1 2,0 1,1 0,2 1,1 0,2 2,0 1,1 0,1 1,1 0,7 -1,1 0,1 -3,3 -1,0 0,1 -1,1 -1,1 -1,1 -1,1 -1,1 -1,1 -1,1 -1,1 -1,1 -3,0 0,2 -1,1 -1,1 -1,0 -1,1 -1,1 -1,1 -1,0 -1,1 -1,1 -1,0 -1,1 -1,1 -2,0 0,1 -1,1 -1,1 -1,0 -1,1 -1,1 -1,0 -1,1Z"/>
<path onmouseover="hoverPath(evt)" onmouseout="recoverPath(evt)" fill="rgb(245,244,237)" d="M  115,233l 0,0 -1,1 0,14 -1,1 0,6 67,0 0,-24 -1,-1 -1,0 -1,1 -41,0 -1,1 -19,0 -1,1Z"/>
<path onmouseover="hoverPath(evt)" onmouseout="recoverPath(evt)" fill="rgb(243,242,233)" d="M  118,189l 0,7 -1,1 0,11 -1,1 0,13 21,0 1,-1 27,0 1,-1 1,0 -1,-1 0,-18 1,-1 0,-2 1,-1 8,0 0,-2 -28,0 -1,-1 -22,0 -1,-1 -2,0 -1,-1 -1,-1 0,-17 -1,0 0,10 -1,1 0,4 2,-17 1,0 0,-15 -1,4 -1,0 1,1 0,10 -2,17Z"/>
<path onmouseover="hoverPath(evt)" onmouseout="recoverPath(evt)" fill="rgb(237,234,221)" d="M  126,172l -1,0 0,6 1,1 20,0 0,-1 1,-1 0,-3 -1,-1 0,-1 -15,0 -1,-1 -3,0 -1,1Z"/>
<path onmouseover="hoverPath(evt)" onmouseout="recoverPath(evt)" fill="rgb(243,242,234)" d="M  204,0l -2,0 0,8 -1,1 0,13 -1,1 0,12 -1,1 0,3 1,1 9,0 1,1 45,0 0,-41Z"/>
<path onmouseover="hoverPath(evt)" onmouseout="recoverPath(evt)" fill="rgb(252,252,251)" d="M  223,117l 1,0 1,1 5,0 1,1 6,0 1,1 6,0 1,1 5,0 1,1 4,0 0,-3 -10,0 -1,-1 -5,0 -1,-1 -2,0 -1,-1 -2,0 -1,-1 -2,0 -1,-1 -2,0 -1,-1 0,-2 -1,1 -3,0 -1,-1 -1,-1 0,-2 -1,0 -1,-1 -1,-1 -1,1 -2,0 -1,-1 -1,-1 -1,-1 -1,-1 0,-1 -1,0 -1,-1 -1,-1 0,-1 -1,0 -1,-1 -1,-1 0,-4 -1,0 -1,-1 0,-2 -1,-1 0,-1 -2,0 -1,-1 0,-3 1,-1 -2,0 -1,-1 0,-3 -1,-1 0,-20 1,-1 0,-10 1,-1 0,-1 1,-1 57,0 0,-1 -46,0 -1,-1 -9,0 -1,-1 -1,-1 0,-5 1,-1 0,-12 1,-1 0,-13 1,-1 0,-7 -1,0 0,7 -1,1 0,12 -1,1 0,12 -1,1 0,8 -1,1 0,13 -1,1 0,11 -1,1 0,2 1,1 0,6 1,1 0,4 1,1 0,2 -1,1 2,0 1,1 0,3 -1,1 1,1 0,0 1,1 0,1 1,1 2,0 1,1 1,1 0,1 1,1 1,1 1,1 1,1 1,1 0,1 1,0 1,1 0,2 1,1 4,0 1,1 1,1 1,0 1,1 0,2 -1,1 -11,0 -1,-1 -10,0 -1,-1 -4,0 4,1 10,1 1,0 10,1 3,0 1,1Z"/>
<path onmouseover="hoverPath(evt)" onmouseout="recoverPath(evt)" fill="rgb(243,242,234)" d="M  244,229l 0,11 -1,1 -2,0 0,14 14,0 0,-26Z"/>
<path onmouseover="hoverPath(evt)" onmouseout="recoverPath(evt)" fill="rgb(239,238,231)" d="M  0,146l 0,67 6,0 1,1 2,0 0,-3 1,-1 0,-8 -1,-1 0,-4 1,-1 2,0 1,1 1,0 0,-2 1,-1 1,-1 3,0 1,1 6,0 1,-1 3,0 1,-1 1,-1 0,-4 1,-1 0,-5 1,-1 0,-6 1,-1 0,-5 1,-1 0,-3 1,-1 0,-5 1,-1 0,-1 1,-1 1,0 1,-1 0,-2 1,-1 1,-1 1,0 1,-1 1,-1 -1,0 -3,2 -1,-1 0,-4 1,-1 0,-3 1,-1 0,-3 1,-1 0,-3 1,-1 0,-3 1,-1 0,-4 1,-1 0,-3 1,-1 0,-3 1,-1 0,-4 1,-1 0,-6 -2,0 -1,-1 0,-1 -1,-1 0,-1 -1,-1 -1,-1 0,-3 -1,-1 0,-2 -4,0 0,4 -1,1 -4,0 -1,1 -2,0 -1,1 -1,1 -5,0 0,1 -1,1 -1,0 -1,1 -2,0 -1,1 -5,0 -1,1 -12,0 0,41 26,18 -1,1 -2,0 -1,-1 0,-2 1,-1 2,0 1,1 0,2 -26,-18Z"/>
<path onmouseover="hoverPath(evt)" onmouseout="recoverPath(evt)" fill="rgb(244,243,235)" d="M  34,234l -1,0 0,2 -1,1 0,3 -1,1 0,3 -1,1 0,4 -1,1 0,5 47,0 0,-1 -1,-1 0,-4 -1,-1 0,-5 -1,-1 0,-9 -22,0 -1,1Z"/>
<path onmouseover="hoverPath(evt)" onmouseout="recoverPath(evt)" fill="rgb(238,235,222)" d="M  131,138l -1,0 -1,-1 -1,1 -1,0 0,8 1,0 1,1 19,0 0,-1 1,-1 0,-5 -1,-1 -9,0 -1,-1Z"/>
<path onmouseover="hoverPath(evt)" onmouseout="recoverPath(evt)" fill="rgb(240,237,226)" d="M  171,153l -1,0 0,5 -1,1 0,10 5,0 1,1 6,0 1,-1 1,0 0,-7 1,-1 0,-8 -1,0 -1,-1 -10,0 -1,1Z"/>
<path onmouseover="hoverPath(evt)" onmouseout="recoverPath(evt)" fill="rgb(238,235,221)" d="M  175,174l -3,0 -1,-1 -1,0 -1,1 -1,0 0,1 -1,1 0,3 1,1 4,0 1,1 8,0 1,-1 0,0 1,-1 0,-4 -1,-1Z"/>
<path onmouseover="hoverPath(evt)" onmouseout="recoverPath(evt)" fill="rgb(242,240,230)" d="M  181,199l 0,0 1,1 1,1 1,1 0,11 -1,1 0,4 1,1 0,1 13,0 0,-10 1,-1 2,0 0,-10 1,-1 0,-9 1,-1 0,-6 1,-1 -1,-1 0,-1 -15,0 0,6 -1,1 0,8 -1,1 -1,0 -1,1 -5,0 0,2 -1,1Z"/>
<path onmouseover="hoverPath(evt)" onmouseout="recoverPath(evt)" fill="rgb(224,229,232)" d="M  239,122l -2,0 -1,-1 -6,0 -1,-1 -5,0 -1,-1 -2,0 -1,1 -5,0 0,1 -1,1 -2,0 -1,-1 0,1 -1,-1 -2,0 6,2 1,0 1,1 1,1 1,0 1,1 1,0 1,1 1,0 1,1 1,0 1,1 2,0 1,1 10,0 1,-1 7,0 1,1 8,0 0,-6 -5,0 -1,-1 -5,0 -1,-1Z"/>
<path onmouseover="hoverPath(evt)" onmouseout="recoverPath(evt)" fill="rgb(244,243,235)" d="M  0,219l 0,6 8,0 1,-1 16,0 0,-4 1,-1 0,-3 1,-1 0,-4 1,-1 0,-3 1,-1 0,-3 1,-1 0,-5 -3,0 -1,-1 -7,0 -1,-1 -1,0 -1,1 0,2 -1,1 -3,0 -1,-1 0,2 1,1 0,10 -1,1 0,3 -1,1 -4,0 -1,-1 -5,0Z"/>
<path onmouseover="hoverPath(evt)" onmouseout="recoverPath(evt)" fill="rgb(241,239,229)" d="M  22,238l 0,0 1,-1 0,-3 -16,0 -1,1 -6,0 0,20 20,0 0,-4 1,-1 0,-6 1,-1Z"/>
<path onmouseover="hoverPath(evt)" onmouseout="recoverPath(evt)" fill="rgb(252,252,250)" d="M  66,3l -1,0 0,1 1,1 0,1 4,0 1,-1 4,0 1,-1 5,0 1,1 9,0 1,-1 1,0 0,-1 1,-1 1,0 1,-1 12,0 1,1 2,0 1,1 0,2 1,-1 2,0 1,-1 1,0 1,-1 0,-2 -49,0 0,2 -1,1Z"/>
<path onmouseover="hoverPath(evt)" onmouseout="recoverPath(evt)" fill="rgb(243,242,234)" d="M  79,243l 0,2 1,1 0,5 1,1 0,3 17,0 0,-8 1,-1 0,-13 -2,0 -1,-1 -2,0 -1,1 -15,0 0,6 1,1Z"/>
<path onmouseover="hoverPath(evt)" onmouseout="recoverPath(evt)" fill="rgb(249,248,244)" d="M  125,137l 0,0 1,-1 1,0 1,-1 2,0 1,1 8,0 1,1 8,0 -3,-1 -5,0 -8,-1 -5,0 -1,-1 -1,0 0,3 -1,10 0,5 -1,1 -1,0 -1,1 -1,0 0,1 2,0 1,1 0,18 -1,1 1,0 1,-5 1,0 1,-1 5,0 1,1 15,0 1,1 0,1 1,1 0,4 1,0 1,1 0,1 1,0 1,1 9,0 0,-1 1,-1 0,-3 1,-1 2,0 0,-1 1,-1 1,0 1,-1 3,0 1,1 0,-1 -5,0 -1,-1 0,-12 1,-1 0,-5 1,-1 1,0 1,-1 12,0 1,1 1,0 1,1 0,9 1,-8 0,-1 1,-1 1,0 1,-1 13,0 1,1 1,0 1,1 0,19 1,-20 15,0 -12,-1 -3,0 -1,-1 0,-5 -1,4 0,1 -1,1 2,1 0,0 -17,-1 -1,0 -1,-1 0,-6 1,-1 0,-1 1,-1 1,0 0,-1 -1,0 -1,-1 -1,0 -1,1 -12,0 -1,-1 0,1 12,1 1,0 1,1 0,1 -63,5 1,-10 60,13 -15,0 -1,-1 0,-3 -1,0 0,2 -1,1 -1,0 -1,1 -11,0 -1,-1 -1,0 -1,-1 0,-1 -1,0 0,1 -1,1 -21,0 -1,-1 -1,0 -1,2 0,0 1,-1 1,0 -2,2 23,-1 1,0 1,1 0,7 -1,1 -1,0 -1,1 -11,0 -1,-1 -10,0 -1,-1 0,-5 61,-3 -60,-13 23,32 0,0 -23,-32 24,31 0,0 -24,-31 9,32 -9,0 -1,-1 0,-1 10,2 -9,-32Z"/>
<path onmouseover="hoverPath(evt)" onmouseout="recoverPath(evt)" fill="rgb(237,233,219)" d="M  126,155l 0,2 10,0 1,1 9,0 1,-1 1,0 0,-5 -1,0 -1,-1 -19,0 0,1 -1,1Z"/>
<path onmouseover="hoverPath(evt)" onmouseout="recoverPath(evt)" fill="rgb(237,234,220)" d="M  126,183l -1,0 0,1 -1,1 0,3 1,1 2,0 1,1 17,0 0,-1 1,-1 0,-4 -3,0 -1,-1Z"/>
<path onmouseover="hoverPath(evt)" onmouseout="recoverPath(evt)" fill="rgb(236,233,218)" d="M  127,167l 8,0 1,1 10,0 1,-1 0,-5 -17,0 -1,-1 -2,0 -1,1 -1,0 0,3 1,1 1,1Z"/>
<path onmouseover="hoverPath(evt)" onmouseout="recoverPath(evt)" fill="rgb(178,201,236)" d="M  157,119l -3,0 -1,1 -1,0 -1,1 1,0 2,-1 2,0 1,-1 3,1 1,0 1,-1 13,0 1,1 30,0 -8,-1 -16,0 -1,-1 -20,0 -1,2 -3,-1Z"/>
<path onmouseover="hoverPath(evt)" onmouseout="recoverPath(evt)" fill="rgb(241,239,230)" d="M  181,122l -6,0 -1,-1 -11,0 -1,1 -8,0 -1,1 -7,0 -1,-1 -15,0 0,3 -1,1 -2,0 0,1 -1,1 0,3 -1,1 2,0 1,1 5,0 1,1 12,0 1,1 2,0 1,1 0,2 1,1 0,6 1,0 1,1 0,1 1,0 1,1 9,0 1,-1 1,0 0,-2 1,-1 3,0 1,1 0,3 13,0 0,-1 1,-1 0,-4 -1,0 -1,-1 -11,0 -1,-1 0,-3 1,-1 2,0 1,1 10,0 1,-1 3,0 1,1 1,0 1,1 0,3 -1,1 -1,0 0,1 -1,1 0,4 14,0 0,-1 1,-1 0,-3 1,-1 1,0 0,-2 -1,-1 0,-13 -1,-1 0,-1 -1,0 -1,-1 0,-1Z"/>
<path onmouseover="hoverPath(evt)" onmouseout="recoverPath(evt)" fill="rgb(243,242,234)" d="M  188,230l -1,0 0,19 1,1 0,5 48,0 0,-18 1,-1 0,-7 -19,0 -1,1Z"/>
<path onmouseover="hoverPath(evt)" onmouseout="recoverPath(evt)" fill="rgb(241,238,228)" d="M  189,154l 0,0 -1,1 0,7 -1,1 0,10 1,1 1,1 12,0 1,-1 1,0 0,-2 1,-1 0,-18 -1,0 -1,-1 -11,0 -1,1 -1,1Z"/>
<path onmouseover="hoverPath(evt)" onmouseout="recoverPath(evt)" fill="rgb(248,247,243)" d="M  205,175l 0,0 -1,1 -1,0 -1,1 -14,0 -1,-1 -1,-1 -1,-1 0,6 -3,3 -10,0 -1,-1 -4,0 -1,-1 -1,-1 -1,0 0,1 -1,1 -11,0 -1,-1 -1,0 -1,-1 0,-1 -1,0 0,1 -1,1 -22,0 -1,-1 0,0 -1,-1 0,-2 -1,0 0,13 1,1 2,0 1,1 22,0 1,1 28,0 1,1 4,0 1,-1 1,0 0,-8 1,-1 0,-3 20,-6 -58,16 0,-1 1,-1 -1,2 58,-16 -79,16 0,0 -3,-1 0,-8 1,-1 20,1 3,0 1,1 0,4 -22,4 79,-16 -40,4 0,0 40,-4 -19,2 1,0 -2,-4 0,-10 -1,8 -1,0 -1,1 1,0 1,1 0,0 19,4 0,0 1,1 0,1 1,1 0,2 -1,1 0,6 -1,1 0,9 -1,1 0,10 -1,1 0,10 1,0 0,-9 1,-1 0,-10 1,-1 0,-10 1,-1 0,-6 -2,17 -1,11 3,-32 0,-6 -19,4 19,-2Z"/>
<path onmouseover="hoverPath(evt)" onmouseout="recoverPath(evt)" fill="rgb(244,243,235)" d="M  208,155l 0,17 -1,1 0,17 -1,1 0,10 -1,1 0,10 -1,1 0,7 16,0 1,-1 34,0 0,-87 -9,0 -1,-1 -5,0 -1,1 -12,0 -1,-1 -2,0 -1,-1 -1,0 -1,-1 -1,0 -1,-1 -1,0 -1,-1 -1,0 -1,-1 -1,-1 -1,0 -1,-1 -2,0 -1,-1 -2,0 -1,-1 -2,0 2,1 0,1 1,1 0,13 1,1 0,9 3,0 1,1 11,0 1,1 0,2 -1,1 -15,0Z"/>
</svg>