<svg width="256" height="256" xmlns="http://www.w3.org/2000/svg"><script> 
var tempColor;
function hoverPath(evt){
obj = evt.target;
tempColor = obj.getAttribute("fill");
obj.setAttribute("fill","red");
//alert(tempColor);
//obj.setAttribute("stroke","red");}
function recoverPath(evt){
obj = evt.target;
obj.setAttribute("fill", tempColor);
//obj.setAttribute("stroke", tempColor);
}</script><path onmouseover="hoverPath(evt)" onmouseout="recoverPath(evt)" fill="rgb(244,243,236)" d="M  20,232l 1,1 7,0 1,1 1,1 0,1 1,1 0,1 1,1 0,1 2,0 1,1 0,2 -1,1 0,1 1,1 0,1 2,0 1,1 0,2 -1,1 0,1 1,1 0,2 31,0 0,-2 1,-1 1,0 1,-1 2,0 1,-1 3,0 1,-1 8,0 0,-2 1,-1 1,0 1,-1 2,0 1,1 0,3 1,1 0,1 1,1 1,-1 7,0 1,1 7,0 1,1 0,2 80,0 0,-2 1,-1 4,0 1,-1 6,0 1,-1 5,0 1,-1 5,0 1,-1 5,0 1,-1 6,0 1,-1 5,0 1,-1 4,0 1,-1 5,0 1,-1 5,0 1,1 2,0 0,-1 -1,0 -1,-1 0,-1 -1,-1 0,-1 -1,-1 0,-2 -1,-1 0,-1 -1,-1 0,-1 -1,-1 0,-2 -1,-1 0,-1 -1,-1 0,-2 -1,-1 0,-1 -1,-1 0,-2 -1,-1 0,-1 -1,-1 0,-2 -1,-1 0,-1 -1,-1 0,-1 -1,-1 0,-1 -1,-1 0,-2 -1,-1 0,-1 -1,-1 0,-2 -1,-1 0,-1 -1,-1 0,-2 -1,-1 0,-1 -1,-1 0,-2 -1,-1 0,-1 -1,-1 0,-2 -1,-1 0,-1 -1,-1 0,-2 -1,-1 0,-1 -1,-1 0,-2 -1,-1 0,-2 -1,-1 0,-1 -1,-1 0,-2 -1,-1 0,-1 -1,-1 0,-2 -1,-1 0,-1 -1,-1 0,-2 -1,-1 0,-1 -1,-1 0,-2 -1,-1 0,-1 -1,-1 0,-1 -1,-1 0,-2 -1,-1 0,-1 -1,-1 0,-1 -1,-1 0,-1 -1,-1 0,-1 -1,-1 0,-2 -1,-1 0,-1 -1,-1 0,-2 -1,-1 0,-1 -1,-1 0,-2 -1,-1 0,-1 -1,-1 0,-2 -1,-1 0,-1 -1,-1 0,-2 -1,-1 0,-1 -1,-1 0,-2 -1,-1 0,-1 -1,-1 0,-2 -1,-1 0,-1 -1,-1 0,-2 -1,-1 0,-2 -1,-1 0,-1 -1,-1 0,-2 -1,-1 0,-2 -1,-1 0,-1 -1,-1 0,-2 -1,-1 0,-1 -1,-1 0,-1 -1,-1 0,-2 -1,-1 0,-1 -1,-1 0,-1 -1,-1 0,-2 -1,-1 0,-1 -1,-1 0,-1 -1,-1 0,-2 -1,-1 0,-2 -1,-1 0,-1 -1,-1 0,-3 -1,-1 0,-1 -1,-1 0,-2 -1,-1 0,-1 -1,-1 0,-2 -1,-1 0,-1 -1,-1 0,-2 -1,-1 0,-1 -1,-1 0,-1 -1,-1 0,-1 -1,-1 0,-1 -1,-1 0,-1 -1,-1 0,-1 -1,-1 0,-2 -1,-1 0,-2 -1,-1 0,-1 -1,-1 0,-1 -1,-1 0,-2 -1,-1 0,-2 -1,1 -2,0 0,3 1,1 2,0 1,1 0,2 -1,1 -1,0 -1,1 -2,0 -1,-1 0,-1 -1,-1 0,-1 -1,-1 0,-1 -2,-2 -2,0 -1,1 -6,0 -1,-1 -3,0 0,2 -1,1 0,2 1,1 0,1 1,1 0,1 1,1 0,1 1,1 0,2 -1,1 -2,0 -1,-1 0,-1 -1,-1 0,-1 -1,-1 0,-1 -1,-1 0,-1 -1,-1 0,-1 -1,0 -1,-1 -5,0 -1,-1 -3,0 -1,1 -4,0 0,2 -1,1 -5,0 -1,-1 -3,0 -1,1 -5,0 0,2 -1,1 -5,0 -1,-1 -3,0 -1,1 -4,0 0,2 -1,1 -5,0 -1,1 -3,0 -1,1 -5,0 -1,1 -6,0 -1,-1 -3,0 -1,1 -3,0 -1,1 -3,0 0,2 -1,1 -4,0 -1,-1 -2,0 -1,1 -3,0 -1,1 -3,0 0,2 -1,1 -4,0 -1,-1 -2,0 -1,1 -3,0 -1,1 -3,0 0,2 -1,1 -4,0 -1,-1 -2,0 -1,1 -3,0 -1,1 -5,0 0,197 2,0 1,-1 3,0 0,-2 1,-1 4,0 1,1 3,0 0,-2 1,-1 4,0 141,-209 1,1 0,2 -1,1 -2,0 -1,-1 0,-2 1,-1 2,0 -141,209Z"/>
<path onmouseover="hoverPath(evt)" onmouseout="recoverPath(evt)" fill="rgb(174,200,238)" d="M  162,12l 0,2 1,1 0,1 1,1 0,1 1,1 0,2 1,1 0,2 1,1 0,1 1,1 0,1 1,1 0,1 1,1 0,1 1,1 0,1 1,1 0,1 1,1 0,2 1,1 0,1 1,1 0,2 1,1 0,1 1,1 0,2 1,1 0,1 1,1 0,3 1,1 0,1 1,1 0,2 1,1 0,2 1,1 0,1 1,1 0,1 1,1 0,2 1,1 0,1 1,1 0,1 1,1 0,2 1,1 0,1 1,1 0,1 1,1 0,2 1,1 0,1 1,1 0,2 1,1 0,2 1,1 0,1 1,1 0,2 1,1 0,2 1,1 0,1 1,1 0,2 1,1 0,1 1,1 0,2 1,1 0,1 1,1 0,2 1,1 0,1 1,1 0,2 1,1 0,1 1,1 0,2 1,1 0,1 1,1 0,2 1,1 0,1 1,1 0,2 1,1 0,1 1,1 0,1 1,1 0,1 1,1 0,1 1,1 0,2 1,1 0,1 1,1 0,1 1,1 0,2 1,1 0,1 1,1 0,2 1,1 0,1 1,1 0,2 1,1 0,1 1,1 0,2 1,1 0,1 1,1 0,2 1,1 0,2 1,1 0,1 1,1 0,2 1,1 0,1 1,1 0,2 1,1 0,1 1,1 0,2 1,1 0,1 1,1 0,2 1,1 0,1 1,1 0,2 1,1 0,1 1,1 0,2 1,1 0,1 1,1 0,1 1,1 0,1 1,1 0,2 1,1 0,1 1,1 0,2 1,1 0,1 1,1 0,2 1,1 0,1 1,1 0,2 1,1 0,1 1,1 0,1 1,1 0,2 1,1 0,1 1,1 0,-15 -2,0 -1,-1 0,-1 -1,-1 0,-2 -1,-1 0,-2 -1,-1 0,-1 -1,-1 0,-2 -1,-1 0,-1 -1,-1 0,-2 -1,-1 -1,-1 0,-3 -1,-1 -1,-1 0,-1 -1,-1 0,-2 -1,-1 0,-1 -1,-1 0,-3 -1,-1 -1,-1 0,-1 -1,-1 0,-2 -1,-1 0,-1 -1,-1 0,-2 -1,-1 0,-1 -1,-1 0,-2 -1,-1 0,-1 -1,-1 0,-2 -1,-1 0,-2 -1,-1 0,-1 -1,-1 0,-2 -1,-1 0,-1 -1,-1 0,-2 -1,-1 0,-1 -1,-1 0,-2 -1,-1 0,-1 -1,-1 0,-1 -1,-1 0,-2 -1,-1 0,-1 -1,-1 0,-2 -1,-1 0,-1 -1,-1 0,-1 -1,-1 0,-2 -1,-1 0,-1 -1,-1 0,-2 -1,-1 0,-1 -1,-1 0,-2 -1,-1 0,-1 -1,-1 0,-2 -1,-1 0,-1 -1,-1 0,-2 -1,-1 0,-1 -1,-1 0,-2 -1,-1 0,-2 -1,-1 0,-2 -1,-1 0,-1 -1,-1 0,-2 -1,-1 0,-2 -1,-1 0,-1 -1,-1 0,-2 -1,-1 0,-2 -1,-1 0,-1 -1,-1 0,-2 -1,-1 0,-1 -1,-1 0,-2 -1,-1 0,-2 -1,-1 0,-1 -1,-1 0,-2 -1,-1 0,-2 -1,-1 0,-2 -1,-1 0,-2 1,-1 3,0 -1,-1 0,-1 -1,-1 -4,0 -1,-1 0,-2 -1,-1 0,-2 -1,-1 0,-2 -1,-1 0,-1 -1,-1 0,-1 -1,-1 0,-2 -1,-1 0,-1 -1,-1 0,-1 -1,-1 0,-1 -1,-1 0,-1 -1,-1 0,-1 -1,-1 0,-1 -1,-1 0,-1 -1,-1 0,-1 -1,-1 0,-2 -1,-1 0,-1 -1,-1 0,-2 -1,-1 0,-2 -1,-1 0,-2 1,-1 0,-4 -1,-1 0,-2 -9,0 0,1 1,1 0,2 1,1 0,2 -1,1 2,0 1,1 0,2 1,1 -5,-3 -5,0 -1,1 -3,0 4,1 0,0 1,1 1,1 0,-3 -2,0 5,-1 5,3Z"/>
<path onmouseover="hoverPath(evt)" onmouseout="recoverPath(evt)" fill="rgb(244,243,236)" d="M  219,104l 0,2 1,1 0,2 1,1 0,1 1,1 0,2 1,1 0,2 1,1 0,1 1,1 0,2 1,1 0,2 1,1 0,1 1,1 0,2 1,1 0,1 1,1 0,2 1,1 0,1 1,1 0,2 1,1 0,1 1,1 0,2 1,1 0,2 1,1 0,1 1,1 0,2 1,1 0,1 1,1 0,2 1,1 0,2 1,1 0,1 1,1 0,2 1,1 0,1 1,1 0,2 1,1 0,1 1,1 0,2 1,1 0,1 1,1 0,2 1,1 0,2 1,1 0,1 1,1 0,2 1,1 0,1 1,1 0,2 1,1 0,3 -1,1 2,0 0,-107 -3,0 -1,1 -4,0 -1,1 -3,0 0,2 -1,1 -4,0 -1,-1 -3,0 -1,1 -3,0 -1,1 -3,0 0,2 -1,1 -3,0 -1,1 -1,0 -1,1Z"/>
<path onmouseover="hoverPath(evt)" onmouseout="recoverPath(evt)" fill="rgb(241,241,235)" d="M  0,13l 0,26 4,0 1,-1 3,0 1,-1 4,0 1,1 2,0 0,-2 1,-1 3,0 1,-1 3,0 1,-1 4,0 1,1 2,0 0,-2 1,-1 3,0 1,-1 3,0 1,-1 4,0 1,1 2,0 0,-2 1,-1 3,0 1,-1 3,0 1,-1 5,0 1,1 4,0 1,-1 5,0 1,-1 3,0 -4,-1 0,0 -1,-1 -1,-1 0,-2 -1,-1 0,-1 -1,-1 0,-2 -1,-1 0,-1 -1,-1 0,-1 -2,0 -1,-1 0,-2 1,-1 -1,-1 0,-2 -1,-1 0,-2 -63,0Z"/>
<path onmouseover="hoverPath(evt)" onmouseout="recoverPath(evt)" fill="rgb(243,242,234)" d="M  67,0l -2,0 0,1 1,1 0,2 1,1 0,1 1,1 0,1 1,1 0,1 1,1 0,1 1,1 0,2 1,1 0,1 1,1 0,2 1,1 1,1 3,0 1,1 4,0 0,-2 1,-1 4,0 1,-1 5,0 1,1 3,0 0,-2 1,-1 5,0 1,-1 5,0 1,1 3,0 0,-2 1,-1 4,0 1,-1 5,0 1,1 5,0 1,1 1,0 1,1 0,-2 1,-1 0,-2 1,-1 5,0 1,1 4,0 0,-2 1,-1 3,0 1,-1 4,0 1,-1 1,0 -1,-1 0,-2 -1,-1 0,-2Z"/>
<path onmouseover="hoverPath(evt)" onmouseout="recoverPath(evt)" fill="rgb(246,235,142)" d="M  170,0l -2,0 0,1 1,1 0,4 2,0 1,1 0,2 1,1 0,1 1,1 0,2 1,1 0,1 1,1 0,1 1,1 0,1 1,1 0,1 1,1 0,1 1,1 0,2 1,1 0,1 1,1 0,1 1,1 0,2 1,1 0,1 1,1 0,1 1,1 0,1 1,1 0,3 1,1 0,2 1,1 0,4 1,0 1,1 1,1 0,1 1,1 0,2 -1,1 0,1 1,1 0,2 1,1 0,1 1,1 0,2 1,1 1,1 0,3 1,1 1,1 0,3 1,1 1,1 0,2 1,1 0,1 1,1 0,2 1,1 0,1 1,1 0,2 1,1 0,1 1,1 0,2 1,1 0,1 1,1 0,2 1,1 0,1 1,1 0,2 1,1 0,1 1,1 0,2 1,1 0,2 1,1 0,1 1,1 0,2 1,1 0,1 1,1 0,2 1,1 0,2 1,1 0,1 1,1 0,2 1,1 0,1 1,1 0,2 1,1 0,1 1,1 0,2 1,1 0,3 1,1 1,1 0,3 1,1 1,1 0,3 1,1 0,2 1,1 0,1 1,1 0,2 1,1 0,1 1,1 0,2 1,1 0,1 1,1 0,2 1,1 0,1 1,1 0,2 1,1 1,1 0,3 1,1 0,3 -1,1 0,2 1,1 0,1 1,1 0,2 1,1 0,1 1,1 1,1 0,3 1,1 1,1 0,2 1,1 0,1 1,1 0,2 1,1 0,1 1,1 0,2 1,1 0,2 1,1 0,1 1,0 0,-22 -3,0 -1,-1 0,-2 1,-1 0,-1 -1,-1 0,-2 -1,-1 0,-1 -1,-1 0,-2 -1,-1 0,-1 -1,-1 0,-2 -1,-1 0,-2 -1,-1 0,-1 -1,-1 0,-2 -1,-1 0,-1 -1,-1 0,-2 -1,-1 0,-1 -1,-1 0,-2 -1,-1 0,-1 -1,-1 0,-2 -1,-1 0,-2 -1,-1 0,-1 -1,-1 0,-2 -1,-1 0,-1 -1,-1 0,-2 -1,-1 0,-2 -1,-1 0,-1 -1,-1 0,-2 -1,-1 0,-1 -1,-1 0,-2 -1,-1 0,-1 -1,-1 0,-2 -1,-1 0,-1 -1,-1 0,-2 -1,-1 0,-2 -1,-1 0,-1 -1,-1 0,-2 -1,-1 0,-2 -1,-1 0,-1 -1,-1 0,-2 -1,-1 0,-2 -1,0 -1,-1 0,-2 1,-1 2,0 1,-1 -2,0 -1,-1 -1,0 -1,-1 -1,-1 0,-1 -1,-1 0,-2 -1,-1 0,-1 -1,-1 0,-2 -1,-1 0,-1 -1,-1 0,-2 -1,-1 0,-1 -1,-1 0,-2 -1,-1 0,-1 -1,-1 0,-2 -1,-1 0,-1 -1,-1 0,-2 -1,-1 0,-1 -1,-1 0,-5 -1,0 -1,-1 0,-3 -2,0 -1,-1 0,-4 1,-1 -1,0 -1,-1 0,-4 -1,-1 0,-2 -1,-1 0,-2 -1,-1 0,-1 -1,-1 0,-1 -1,-1 0,-2 -1,-1 0,-1 -1,-1 0,-1 -1,-1 0,-1 -1,-1 0,-2 -1,-1 0,-1 -1,-1 0,-1 -1,-1 0,-1 -1,-1 0,-2 -1,-1 0,-1 -1,-1 0,-1 -1,-1 0,-1 -1,-1 0,-1 -1,-1 0,-1 -1,-1 0,-3Z"/>
<path onmouseover="hoverPath(evt)" onmouseout="recoverPath(evt)" fill="rgb(244,243,236)" d="M  177,1l 0,1 1,1 0,1 1,1 0,1 1,1 0,1 1,1 0,1 1,1 0,1 1,1 0,2 1,1 0,1 1,1 0,1 1,1 0,1 1,1 0,2 1,1 0,1 1,1 0,1 1,1 0,1 1,1 0,2 1,1 0,1 1,1 0,1 1,1 0,2 1,1 0,2 1,1 0,4 1,-1 3,0 1,-1 4,0 1,-1 3,0 1,-1 3,0 1,-1 4,0 1,-1 4,0 1,-1 4,0 1,-1 4,0 1,-1 4,0 1,-1 4,0 1,-1 4,0 1,-1 2,0 1,-1 3,0 0,-35 -77,0 -1,1Z"/>
<path onmouseover="hoverPath(evt)" onmouseout="recoverPath(evt)" fill="rgb(243,242,234)" d="M  0,242l 0,13 36,0 0,-1 -1,-1 0,-2 -1,-1 0,-1 -1,-1 0,-1 -1,-1 0,-2 -1,-1 0,-1 -1,-1 0,-1 -1,-1 0,-1 -1,-1 0,-1 -1,-1 -7,0 -1,-1 -2,0 0,2 -1,1 -5,0 -1,-1 -2,0 0,2 -1,1 -3,0 -1,1 -3,0Z"/>
<path onmouseover="hoverPath(evt)" onmouseout="recoverPath(evt)" fill="rgb(245,234,145)" d="M  106,254l -3,0 -1,-1 -5,0 -1,1 -2,0 -1,-1 -1,-1 0,-1 -1,-1 0,-3 -1,1 -1,0 0,2 -1,1 -8,0 -1,1 -3,0 -1,1 -2,0 -1,1 -1,0 0,1 34,0 1,-1 1,1 3,0 0,-1 -3,0 0,1 -1,-1Z"/>
<path onmouseover="hoverPath(evt)" onmouseout="recoverPath(evt)" fill="rgb(244,234,154)" d="M  221,250l -3,0 -1,1 -5,0 -1,1 -5,0 -1,1 -6,0 -1,1 -4,0 0,1 61,0 0,-9 -3,0 -1,-1 -3,0 -1,1 -5,0 -1,1 -4,0 -1,1 -5,0 -1,1 -6,0 -1,1Z"/>
<path onmouseover="hoverPath(evt)" onmouseout="recoverPath(evt)" fill="rgb(244,243,235)" d="M  169,11l 0,1 1,1 0,2 1,1 0,1 1,1 0,2 1,1 0,1 1,1 0,1 1,1 0,1 1,1 0,1 1,1 0,1 1,1 0,1 1,1 0,1 1,1 0,1 1,1 0,2 1,1 0,1 1,1 0,1 1,1 0,2 1,1 0,2 1,1 0,2 1,0 0,-3 -1,-1 0,-2 -1,-1 0,-3 -1,-1 0,-1 -1,-1 0,-1 -1,-1 0,-1 -1,-1 0,-2 -1,-1 0,-1 -1,-1 0,-1 -1,-1 0,-2 -1,-1 0,-1 -1,-1 0,-1 -1,-1 0,-1 -1,-1 0,-1 -1,-1 0,-1 -1,-1 0,-2 -1,-1 0,-1 -1,-1 -1,1 0,-3 -1,1 2,-1Z"/>
<path onmouseover="hoverPath(evt)" onmouseout="recoverPath(evt)" fill="rgb(244,243,235)" d="M  202,63l 0,1 1,1 0,1 1,1 0,2 1,1 0,1 1,1 0,2 1,1 0,1 1,1 0,2 1,1 0,1 1,1 0,2 1,1 0,1 1,1 0,2 1,1 0,1 1,1 0,2 1,1 0,1 1,1 1,0 1,1 3,0 1,1 2,0 0,-2 1,-1 3,0 1,-1 3,0 1,-1 5,0 1,1 2,0 0,-2 1,-1 3,0 1,-1 4,0 1,-1 4,0 0,-45 -4,0 -1,1 -4,0 -1,1 -3,0 -1,1 -4,0 -1,1 -5,0 -1,1 -4,0 -1,1 -4,0 -1,1 -3,0 -1,1 -3,0 -1,1 -4,0 -1,1 -4,0 -1,1 -2,0 0,2 1,0 1,1Z"/>
<path onmouseover="hoverPath(evt)" onmouseout="recoverPath(evt)" fill="rgb(245,244,237)" d="M  221,139l 0,-2 -1,-1 0,-1 -1,-1 0,-2 -1,-1 0,-1 -1,-1 0,-2 -1,-1 0,-2 -1,-1 0,-1 -1,-1 0,-2 -1,-1 0,-1 -1,-1 0,-2 -1,-1 0,-2 -1,-1 0,-1 -1,-1 0,-2 -1,-1 0,-1 -1,-1 0,-2 -1,-1 0,-1 -1,-1 0,-2 -1,-1 0,-1 -1,-1 0,-2 -1,-1 0,-1 -1,-1 0,-2 -1,-1 0,-1 -1,-1 0,-2 -1,-1 -1,-1 0,-3 -1,-1 -1,-1 0,-3 -1,-1 -1,-1 0,-2 -1,-1 0,-1 -1,-1 0,-2 -1,-1 0,-2 -1,0 1,3 1,3 1,2 0,1 1,2 1,1 0,2 1,2 0,1 1,1 0,-1 1,4 0,1 1,1 0,1 1,1 0,2 1,1 0,2 1,1 0,1 1,1 0,2 1,1 0,2 1,1 0,1 1,1 0,2 1,1 0,2 1,1 0,2 1,1 0,1 1,1 0,2 1,1 0,1 1,1 0,2 1,1 0,1 1,1 0,2 1,1 0,1 1,1 0,2 1,1 0,1 1,1 0,2 1,1 0,1 1,1 0,1 1,1 1,1 -1,1 1,1 0,1 1,1 0,2 1,1 0,1 1,1 0,1 1,1 0,2 1,1 0,1 1,1 0,2 1,1 0,1 1,1 0,2 1,1 0,1 1,1 0,2 1,1 0,2 1,1 0,1 1,1 0,2 1,1 0,1 1,1 0,2 1,1 0,1 1,1 0,2 1,1 0,1 1,1 0,-1 -1,-2 0,-2 -1,-1 0,0 -1,-2 0,-1 -1,-2 -1,-2 0,-1 -1,-2 -1,-2 0,-1 -1,-2 -1,-3 -1,-2 -1,-3 -1,-2 0,-2 -1,-1 -1,-2 0,-2 -1,-1 -1,-2 0,-2 -1,-1 0,-2 -1,-1 0,-1 -2,0 1,-1Z"/>
<path onmouseover="hoverPath(evt)" onmouseout="recoverPath(evt)" fill="rgb(200,217,240)" d="M  228,48l 1,0 1,-1 5,0 1,-1 4,0 1,-1 3,0 1,-1 4,0 1,-1 5,0 0,-6 -2,0 -1,1 -2,0 -1,1 -4,0 -1,1 -4,0 -1,1 -4,0 -1,1 -4,0 -1,1 -4,0 -1,1 -4,0 -1,1 -4,0 -1,1 -3,0 -1,1 -3,0 -1,1 -4,0 -1,1 -3,0 0,2 -1,1 0,2 4,0 1,-1 4,0 1,-1 4,0 1,-1 3,0 1,-1 3,0 1,-1 4,0 1,-1Z"/>
</svg>