<svg width="256" height="256" xmlns="http://www.w3.org/2000/svg"><script> 
var tempColor;
function hoverPath(evt){
obj = evt.target;
tempColor = obj.getAttribute("fill");
obj.setAttribute("fill","red");
//alert(tempColor);
//obj.setAttribute("stroke","red");}
function recoverPath(evt){
obj = evt.target;
obj.setAttribute("fill", tempColor);
//obj.setAttribute("stroke", tempColor);
}</script><path onmouseover="hoverPath(evt)" onmouseout="recoverPath(evt)" fill="rgb(250,239,142)" d="M  0,208l 0,18 2,0 1,-1 1,0 1,-1 9,0 1,1 2,0 1,1 1,1 1,0 1,1 1,1 0,2 -1,1 3,0 1,1 0,3 1,1 0,1 2,0 1,1 7,0 1,1 0,2 1,1 1,0 1,1 1,1 1,1 1,0 1,1 1,1 1,0 1,1 1,1 1,1 1,0 1,1 1,1 0,2 11,0 0,-3 -1,-1 -2,0 -1,-1 0,-1 -1,-1 -2,0 -1,-1 0,-1 -1,-1 -1,-1 -2,0 -1,-1 0,-1 -1,-1 -1,-1 -3,0 -1,-1 0,-2 -1,-1 -2,0 -1,-1 0,-1 -1,-1 -2,0 -1,-1 0,-1 -1,-1 -1,0 -1,-1 0,-3 -1,-1 0,-2 -1,0 -1,-1 -1,1 0,0 -1,1 -1,0 -1,1 -2,0 -1,-1 -1,-1 -1,-1 0,-2 -1,-1 -2,0 -1,-1 0,-2 -2,0 -1,-1 0,-2 1,-1 1,0 0,-2 1,-1 0,-1 1,-1 2,0 1,-1 -1,-1 0,-2 1,-1 1,-1 1,-1 1,-1 1,-1 0,-1 1,-1 1,-1 1,-1 2,-2 2,0 0,-2 1,-1 0,-1 1,-1 0,-1 1,-1 0,-1 1,-1 0,-2 1,-1 0,-3 1,-1 0,-3 -1,-1 0,-5 1,-1 1,-1 1,0 0,-1 -2,0 -1,-1 0,-2 1,-1 0,-8 -1,-1 0,-2 1,-1 2,0 0,-1 -1,0 -1,-1 -1,-1 0,-5 1,-1 1,0 0,-19 -1,-1 0,-1 -1,-1 0,-3 -5,0 0,58 -1,1 0,3 -1,1 -1,1 -1,0 0,3 -1,1 0,2 -1,1 0,1 -2,2 0,2 -1,1 -1,0 -1,1 0,2 -1,1 -1,0 -1,1 -1,1 -1,1 0,2 -1,1 -1,0 -1,1 -1,1 0,2 -1,1 -1,0 -1,1 -1,1 -5,0 -1,-1 0,-1 -1,-1 -1,0Z"/>
<path onmouseover="hoverPath(evt)" onmouseout="recoverPath(evt)" fill="rgb(172,198,236)" d="M  1,183l -1,0 0,4 1,0 1,-1 2,0 1,-1 1,0 1,-1 2,0 1,-1 1,0 1,-1 1,0 1,-1 2,0 1,-1 1,0 1,-1 2,0 1,-1 1,0 1,-1 2,0 1,-1 1,0 1,-1 0,-2 -1,0 -1,1 -1,0 -1,1 -2,0 -1,1 -1,0 -1,1 -2,0 -1,1 -2,0 -1,1 -1,0 -1,1 -2,0 -1,1 -1,0 -1,1 -2,0 -1,1Z"/>
<path onmouseover="hoverPath(evt)" onmouseout="recoverPath(evt)" fill="rgb(241,240,230)" d="M  44,120l 0,20 18,0 1,1 10,0 1,1 1,0 0,-2 -1,-1 0,-15 -1,-1 0,-4 -1,-1 -27,0 -1,1Z"/>
<path onmouseover="hoverPath(evt)" onmouseout="recoverPath(evt)" fill="rgb(242,240,230)" d="M  77,152l 0,0 1,1 1,1 21,0 1,-1 20,0 0,-1 -1,-1 0,-5 -1,-1 0,-3 -1,-1 0,-4 -1,-1 0,-4 -1,-1 0,-4 -1,-1 0,-3 -1,-1 0,-4 -1,-1 0,-1 -11,0 0,2 -1,1 -2,0 0,27 -1,1 0,1 -1,1 -1,0 -1,1 -18,0Z"/>
<path onmouseover="hoverPath(evt)" onmouseout="recoverPath(evt)" fill="rgb(243,242,233)" d="M  182,184l 0,1 1,1 0,3 -1,1 2,0 1,1 1,1 0,2 -1,1 1,1 0,0 1,1 0,1 1,1 1,1 0,1 1,1 0,1 1,1 1,1 2,0 1,-1 0,0 1,-1 2,0 1,-1 2,0 1,-1 1,0 1,-1 2,0 1,-1 2,0 1,-1 2,0 1,-1 1,0 1,-1 0,-2 -1,-1 0,-2 -1,-1 0,-1 -1,-1 0,-2 -1,-1 0,-2 -1,-1 0,-1 -1,-1 0,-2 -1,-1 -2,0 -1,-1 -2,0 -1,1 -2,0 -1,1 -2,0 -1,1 -3,0 -1,1 -2,0 0,2 -1,1 -3,0 -1,-1 -2,0 -1,1Z"/>
<path onmouseover="hoverPath(evt)" onmouseout="recoverPath(evt)" fill="rgb(242,241,231)" d="M  200,7l -2,0 0,2 1,1 0,4 -1,1 -2,0 -1,-1 0,-1 -1,-1 0,-3 -4,0 -1,1 -3,0 -1,1 -2,0 -1,1 -3,0 -1,1 -1,0 0,2 1,1 0,2 -1,1 -2,0 -1,-1 0,-1 -1,-1 0,-1 -4,0 -1,1 -3,0 -1,1 -2,0 0,4 1,1 0,2 1,1 0,2 1,1 0,1 1,1 0,2 1,1 0,2 1,1 0,1 1,1 0,2 1,1 0,2 1,1 0,1 1,0 1,-1 3,0 1,-1 2,0 1,-1 2,0 1,-1 0,-3 -1,-1 0,-2 1,-1 2,0 1,1 0,1 1,1 0,1 1,1 1,1 1,0 1,-1 2,0 1,-1 3,0 1,-1 3,0 1,-1 1,0 -1,-1 0,-4 1,-1 2,0 1,1 0,1 1,1 0,2 1,-1 3,0 1,-1 2,0 1,-1 2,0 1,-1 4,0 0,-2 1,-1 3,0 1,1 1,0 1,-1 4,0 1,-1 2,0 1,-1 2,0 1,-1 2,0 0,-3 -1,-1 0,-1 -1,-1 0,-2 -1,-1 0,-1 -1,-1 0,-2 -1,-1 0,-1 -1,-1 0,-2 -1,-1 0,-1 -1,-1 0,-4 -16,0 0,3 -1,1 -3,0 -1,-1 -2,0 -1,1 -2,0 -1,1 -3,0 -1,1 -2,0 -1,1 -22,15 2,0 1,1 0,2 -1,1 -2,0 -1,-1 0,-2 1,-1 22,-15Z"/>
<path onmouseover="hoverPath(evt)" onmouseout="recoverPath(evt)" fill="rgb(172,198,238)" d="M  208,144l 0,2 1,1 6,0 1,-1 6,0 1,-1 4,0 1,-1 3,0 1,1 2,0 1,-1 3,0 1,-1 3,0 1,-1 3,0 1,-1 4,0 1,-1 3,0 0,-3 -6,0 -1,1 -5,0 -1,1 -6,0 -1,1 -6,0 -1,1 -5,0 -1,1 -6,0 -1,1 -5,0 -1,1Z"/>
<path onmouseover="hoverPath(evt)" onmouseout="recoverPath(evt)" fill="rgb(242,241,232)" d="M  0,113l 0,68 3,0 1,-1 2,0 1,-1 1,0 1,-1 2,0 1,-1 1,0 1,-1 2,0 1,-1 2,0 1,-1 1,0 1,-1 2,0 1,-1 1,0 1,-1 1,0 0,-80 -1,-1 0,-2 1,-1 -2,0 0,1 -1,1 0,5 -1,1 -2,0 -1,-1 0,-8 -3,0 -1,-1 -3,0 -1,-1 -1,0 -1,-1 -1,1 -2,0 0,3 -1,1 0,3 -1,1 0,2 1,1 0,4 1,0 1,1 1,0 1,1 0,3 -1,1 -1,1 0,2 -1,1 -1,0 0,2 -1,1 -2,0 -1,-1 -3,0Z"/>
<path onmouseover="hoverPath(evt)" onmouseout="recoverPath(evt)" fill="rgb(242,241,235)" d="M  2,0l -2,0 0,109 4,0 1,1 0,-2 1,-1 1,0 0,-2 1,-1 1,-1 0,-1 -1,0 -1,-1 -1,0 -1,-1 0,-4 -1,-1 0,-4 1,-1 0,-3 1,-1 0,-3 1,-1 2,0 1,-1 2,0 1,1 1,0 1,1 3,0 1,1 3,0 1,1 0,8 1,-6 0,-1 1,-1 1,0 0,-2 1,-1 0,-41 1,-1 -1,-1 0,-23 -1,-1 0,-4 -1,-1 0,-2 -1,-1 0,-3 -1,-1 0,-3Z"/>
<path onmouseover="hoverPath(evt)" onmouseout="recoverPath(evt)" fill="rgb(242,231,139)" d="M  26,0l -1,0 0,2 1,1 0,3 1,1 0,2 1,1 0,4 1,1 0,23 1,1 0,2 -1,1 0,41 -1,1 0,1 2,0 1,1 0,2 -1,1 -1,0 1,1 0,81 1,-59 8,0 0,-7 -1,-1 0,-63 -1,-1 0,-5 1,-1 0,-16 -1,-1 0,-6 -1,-1 0,-2 -1,-1 -1,-1 0,-6Z"/>
<path onmouseover="hoverPath(evt)" onmouseout="recoverPath(evt)" fill="rgb(236,235,227)" d="M  105,44l 2,0 -1,-1 0,-2 1,-1 2,0 1,-1 1,-1 0,-1 1,-1 1,-1 1,-1 1,-1 1,-1 1,-1 2,-2 1,-1 1,-1 1,-1 1,0 1,-1 1,-1 1,-1 1,-1 1,0 1,-1 3,0 1,-1 1,0 1,-1 2,0 1,-1 2,0 1,-1 3,0 1,-1 3,0 0,-1 -1,0 -1,-1 0,-1 -1,-1 0,-2 -1,-1 0,-1 -1,-1 0,-2 -1,-1 0,-1 -1,-1 0,-2 -47,0 0,2 -1,1 0,1 -1,1 -2,2 1,1 0,2 -1,1 -1,1 -1,1 -2,0 -1,1 1,1 0,2 -1,1 0,1 -1,1 -2,0 0,1 -1,1 0,2 1,1 0,3 -1,1 0,2 -1,1 0,1 -1,1 0,3 1,1 0,3 4,0 1,1 0,3 -1,1 -1,0 0,3 -1,1 0,8 1,0 1,-1 0,-1 1,-1 1,0 1,-1 1,-1 0,-1 1,-1 1,-1 1,-1 0,-2 1,-1 2,0 1,-1 5,0 1,1 0,-1 1,-1Z"/>
<path onmouseover="hoverPath(evt)" onmouseout="recoverPath(evt)" fill="rgb(242,240,231)" d="M  139,112l -1,0 -1,1 0,1 1,1 0,8 -1,1 0,4 1,1 0,1 2,0 1,1 1,0 1,1 1,0 1,1 0,3 2,0 1,1 0,14 -1,1 -1,0 0,1 13,0 1,-1 8,0 1,-1 4,0 1,-1 3,0 1,-1 3,0 1,-1 3,0 1,-1 3,0 1,-1 2,0 1,-1 3,0 0,-1 -1,-1 0,-1 -1,-1 0,-2 -1,-1 0,-2 -1,-1 0,-1 -1,-1 0,-2 -1,-1 0,-1 -1,-1 0,-2 -1,-1 0,-5 -1,-1 0,-1 -1,0 -1,-1 0,-2 -1,-1 0,-1 -1,-1 0,-2 -1,-1 0,-2 -1,-1 0,-1 -1,-1 -2,0 -1,-1 -2,0 -1,1 -3,0 -1,1 -2,0 -1,1 1,1 0,6 -1,1 -2,0 -1,-1 0,-2 -1,-1 0,-3 -4,0 -1,1 -3,0 -1,1 -2,0 0,9 -1,1 -2,0 -1,-1 0,-6 -4,0 -1,-1 -3,0 -1,1 34,8 1,-1 2,0 1,1 1,1 0,2 -1,1 -2,0 -1,-1 -1,-1 0,-2 -34,-8Z"/>
<path onmouseover="hoverPath(evt)" onmouseout="recoverPath(evt)" fill="rgb(242,241,231)" d="M  241,0l -2,0 0,1 1,1 0,1 1,1 0,2 1,1 0,1 1,1 0,2 1,1 0,1 1,1 0,2 1,1 0,1 1,1 0,2 1,1 0,1 1,1 0,1 1,1 0,2 1,1 0,1 4,0 0,-30Z"/>
<path onmouseover="hoverPath(evt)" onmouseout="recoverPath(evt)" fill="rgb(244,242,234)" d="M  0,242l 0,13 50,0 0,-1 -1,-1 -1,0 -1,-1 -2,-2 -1,0 -1,-1 -1,-1 -1,0 -1,-1 -2,-2 -1,0 -1,-1 -1,-1 0,-2 -7,0 -1,-1 -2,0 -1,-1 0,-1 -1,-1 0,-3 -3,0 -1,-1 0,-2 1,-1 -1,-1 -1,0 -2,-2 -2,0 -1,-1 -7,0 -1,1 -1,0 -1,1 -3,0 0,14 12,-9 1,1 0,2 -1,1 -2,0 -1,-1 0,-2 1,-1 2,0 -12,9Z"/>
<path onmouseover="hoverPath(evt)" onmouseout="recoverPath(evt)" fill="rgb(240,238,227)" d="M  47,162l 3,0 1,-1 3,0 1,-1 3,0 1,-1 1,0 1,-1 2,0 2,-2 0,-3 -1,-1 0,-1 -1,0 -1,-1 -23,0 1,1 0,10 -1,1 4,0 1,1 1,-1Z"/>
<path onmouseover="hoverPath(evt)" onmouseout="recoverPath(evt)" fill="rgb(242,241,232)" d="M  129,161l -2,0 1,1 0,8 1,1 0,11 1,1 0,6 1,1 5,0 1,-1 5,0 1,-1 3,0 1,-1 2,0 1,-1 3,0 1,-1 2,0 1,-1 3,0 1,-1 2,0 1,-1 2,0 1,-1 2,0 1,-1 3,0 1,-1 3,0 1,-1 2,0 1,-1 1,0 1,-1 0,-2 -5,0 -1,-1 0,-2 1,-1 3,0 1,-1 1,0 1,-1 3,0 1,1 0,2 -1,1 0,2 1,1 1,0 1,-1 3,0 1,-1 3,0 1,-1 2,0 1,-1 3,0 1,-1 0,-2 -1,-1 0,-2 -1,-1 0,-1 -1,-1 0,-2 -1,-1 0,-2 -1,-1 0,-1 -1,-1 0,-2 -2,0 -1,1 -2,0 -1,1 -3,0 -1,1 -2,0 -1,1 -3,0 -1,1 -2,0 -1,1 -3,0 -1,1 -3,0 -1,1 -37,0 -1,1Z"/>
<path onmouseover="hoverPath(evt)" onmouseout="recoverPath(evt)" fill="rgb(237,235,224)" d="M  41,104l 0,1 2,0 1,1 0,5 1,1 0,1 4,0 1,-1 0,-4 1,-1 2,0 1,1 0,3 1,1 0,1 17,0 0,-6 1,-1 0,-28 1,-1 0,-11 1,-1 1,0 1,-1 1,-1 1,-1 1,-1 0,-12 1,-1 0,-3 1,-1 1,0 0,-1 -4,0 -1,-1 -1,0 -1,1 0,2 -1,1 -2,0 -1,-1 0,-4 -7,0 -1,-1 -8,0 0,5 -1,1 0,17 5,0 1,1 1,1 0,2 -1,1 -6,0 -1,-1 -2,0 -1,-1 0,-26 -7,0 0,1 -1,1 0,10 1,1 0,18 -1,1 0,1 -1,1 -2,0 0,29 1,1Z"/>
<path onmouseover="hoverPath(evt)" onmouseout="recoverPath(evt)" fill="rgb(243,242,233)" d="M  122,34l -1,0 -1,1 -1,1 -1,1 -1,1 0,2 -1,1 -1,0 0,1 -1,1 -1,1 0,3 2,0 1,1 3,0 1,1 0,2 1,0 1,-1 3,0 1,1 3,0 1,1 0,2 2,0 1,1 11,0 0,-2 1,-1 3,0 1,-1 4,0 1,1 2,0 1,-1 4,0 0,-1 -1,0 -1,-1 0,-2 -1,-1 0,-2 -1,-1 0,-2 -1,-1 0,-1 -1,-1 0,-2 -1,-1 0,-1 -1,-1 0,-2 -1,-1 0,-2 -1,-1 0,-1 -1,-1 0,-2 -4,0 -1,-1 -2,0 -1,1 -1,0 -1,1 -2,0 -1,1 -1,0 -1,1 -2,0 -1,1 -1,1 -1,0 -1,1 -1,0 -1,1 -1,0 -1,1 0,1 -1,1 -1,0 -1,1Z"/>
<path onmouseover="hoverPath(evt)" onmouseout="recoverPath(evt)" fill="rgb(171,198,237)" d="M  128,155l -1,0 0,2 1,1 0,1 4,0 1,-1 37,0 1,-1 3,0 1,-1 3,0 1,-1 2,0 1,-1 3,0 1,-1 2,0 1,-1 3,0 1,-1 2,0 1,-1 4,0 -1,-1 0,-1 -1,-1 -4,0 -1,1 -2,0 -1,1 -3,0 -1,1 -3,0 -1,1 -3,0 -1,1 -3,0 -1,1 -4,0 -1,1 -8,0 -1,1Z"/>
<path onmouseover="hoverPath(evt)" onmouseout="recoverPath(evt)" fill="rgb(190,209,234)" d="M  201,211l -2,0 -1,-1 0,-2 1,-1 1,-1 3,0 1,-1 2,0 1,-1 1,0 1,-1 2,0 1,-1 2,0 1,-1 3,0 0,-3 -2,0 -1,1 -1,0 -1,1 -2,0 -1,1 -2,0 -1,1 -2,0 -1,1 -1,0 -1,1 -2,0 -1,1 -2,0 -1,1 -1,1 -3,0 -1,1 -2,0 -1,1 -2,0 -1,1 -2,0 -1,1 -1,0 -1,1 0,1 3,0 1,-1 2,0 1,-1 3,0 1,-1 2,0 1,1 0,5 2,0 1,1 4,0 1,-1 0,-1 -1,-1Z"/>
<path onmouseover="hoverPath(evt)" onmouseout="recoverPath(evt)" fill="rgb(185,207,238)" d="M  254,187l -2,0 -1,1 -3,0 -1,1 -3,0 -1,1 -2,0 -1,1 -2,0 -1,1 -2,0 -1,1 -2,0 -1,1 -2,0 -1,1 -1,0 0,2 1,0 1,-1 2,0 1,-1 3,0 1,-1 3,0 1,-1 2,0 1,-1 2,0 1,-1 3,0 1,1 0,2 -1,1 -1,1 1,0 2,-3 1,0 1,-1 2,0 0,-4 -1,-1Z"/>
<path onmouseover="hoverPath(evt)" onmouseout="recoverPath(evt)" fill="rgb(173,198,235)" d="M  62,164l -2,0 -1,1 -3,0 -1,1 -3,0 -1,1 -11,0 -1,1 0,3 3,0 1,-1 3,0 1,-1 3,0 1,-1 2,0 1,-1 3,0 1,-1 3,0 1,-1 0,-1 1,-1 1,2 1,0 1,-1 3,0 1,-1 3,0 1,-1 4,0 1,-1 10,0 1,-1 15,0 1,-1 15,0 0,-4 -19,0 -1,1 -23,0 -1,-1 -1,-1 -1,-1 0,-5 -1,-1 0,-3 -1,0 -1,-1 -10,0 -1,-1 -21,0 -1,-1 0,3 1,1 23,0 1,1 3,0 1,1 2,0 1,1 1,1 0,8 -1,1 -1,1 -1,0 0,1 -1,1 -1,1 -2,0 -1,1 -1,0 -1,1Z"/>
<path onmouseover="hoverPath(evt)" onmouseout="recoverPath(evt)" fill="rgb(250,250,247)" d="M  67,156l 0,1 -1,1 -1,1 -1,1 2,0 1,-1 0,-1 1,-1 -1,-1 3,0 0,-6 -1,-1 -2,0 -1,-1 -3,0 -1,-1 -20,0 0,1 20,0 2,1 1,0 1,1 0,1 1,1 0,2 3,2 -3,0 -5,4 -1,1 1,0 -1,1 -1,-1 0,0 -1,1 -3,0 -1,1 -3,0 -1,1 -5,0 -1,1 -2,0 -1,-1 0,1 8,0 2,-1 2,0 2,-1 2,0 2,-1Z"/>
<path onmouseover="hoverPath(evt)" onmouseout="recoverPath(evt)" fill="rgb(241,240,229)" d="M  120,115l -1,0 0,4 1,1 0,4 1,1 0,3 1,1 0,4 1,1 0,5 1,1 0,3 1,1 0,4 1,1 0,4 18,0 0,-2 1,-1 1,0 0,-12 -2,0 -1,-1 0,-3 -1,0 -1,-1 -1,1 -2,0 -1,-1 0,-1 -1,-1 0,-1 -1,-1 0,-5 -1,-1 0,-5 -1,-1 0,-4 -6,0 -1,1 -5,0 -1,1Z"/>
<path onmouseover="hoverPath(evt)" onmouseout="recoverPath(evt)" fill="rgb(243,242,234)" d="M  174,52l 0,1 1,1 0,2 1,1 0,2 1,1 0,1 1,1 0,2 1,1 0,2 1,1 0,1 1,1 0,2 1,1 0,1 1,1 0,2 1,1 0,2 1,1 0,1 1,1 0,2 1,1 0,2 1,1 0,2 1,1 2,0 1,1 1,0 1,-1 2,0 1,-1 2,0 1,-1 2,0 1,-1 3,0 1,-1 2,0 1,-1 2,0 1,-1 3,0 1,-1 2,0 1,-1 3,0 1,-1 2,0 1,-1 2,0 1,-1 3,0 0,-2 1,-1 3,0 1,1 2,0 1,-1 3,0 1,-1 2,0 1,-1 3,0 1,-1 3,0 0,-25 -2,0 -1,-1 0,-2 -1,-1 0,-1 -1,-1 0,-2 -2,0 -1,-1 0,-2 1,-1 0,-1 -1,-1 0,-1 -2,0 -1,-1 0,-2 -2,0 -1,-1 -2,0 -1,1 -2,0 -1,1 -3,0 -1,1 -2,0 -1,1 -3,0 -1,1 -3,0 -1,1 -2,0 -1,1 -3,0 -1,1 -2,0 0,3 -1,1 0,3 -1,1 -2,0 -1,-1 0,-1 -1,-1 0,-2 -5,0 -1,1 -2,0 -1,1 -3,0 -1,1 -3,0 0,2 -1,1 -3,0 -1,-1 -2,0 -1,1 -2,0 -1,1 -2,0 -1,1 -2,0 0,1 1,1Z"/>
<path onmouseover="hoverPath(evt)" onmouseout="recoverPath(evt)" fill="rgb(243,242,234)" d="M  193,100l 0,0 -1,1 1,1 0,2 1,1 0,2 1,1 0,1 1,1 0,2 1,1 0,1 1,1 0,2 1,1 0,1 1,1 0,2 1,1 0,2 1,1 0,1 1,1 0,2 1,1 0,1 1,1 0,2 1,1 0,2 1,1 0,1 1,1 0,1 1,-1 5,0 1,-1 6,0 1,-1 5,0 1,-1 6,0 1,-1 6,0 1,-1 5,0 1,-1 7,0 0,-8 -23,0 -1,-1 -1,-1 0,-1 -1,-1 0,-3 1,-1 -2,0 -1,-1 0,-3 1,-1 -2,0 -1,-1 0,-1 -1,-1 0,-1 -1,-1 0,-2 1,-1 -1,-1 -2,0 -1,-1 0,-1 -1,-1 0,-2 1,-1 -2,0 -1,-1 0,-2 -1,-1 0,-2 -1,-1 -3,0 0,2 -1,1 -3,0 -1,-1 -1,0 -1,1 -3,0 -1,1 -2,0 -1,1 -2,0 -1,1 -2,0Z"/>
<path onmouseover="hoverPath(evt)" onmouseout="recoverPath(evt)" fill="rgb(243,242,233)" d="M  220,92l 0,3 -1,1 0,1 2,0 1,1 0,1 1,1 0,1 1,1 0,1 1,1 1,1 0,1 1,1 0,2 -1,1 1,1 0,1 2,0 1,1 0,2 -1,1 0,1 2,0 1,1 0,2 -1,1 0,1 1,1 0,1 1,1 22,0 0,-45 -1,0 -1,1 -1,0 0,2 1,1 0,4 -1,1 -2,0 -1,-1 0,-1 -1,-1 0,-2 -1,0 -1,-1 -3,0 0,2 -1,1 -2,0 -1,-1 -3,0 -1,1 -2,0 -1,1 -3,0 -1,1 -2,0 -1,1 -2,0 -1,1 -2,0Z"/>
<path onmouseover="hoverPath(evt)" onmouseout="recoverPath(evt)" fill="rgb(252,252,251)" d="M  250,84l 0,1 1,1 0,-1 -1,-2 0,-3 1,-1 1,0 1,-1 2,0 0,-1 -2,0 -1,1 -3,0 -1,1 -2,0 -1,1 -3,0 -1,1 -4,0 -1,-1 -1,0 0,2 -1,1 -3,0 -1,1 -2,0 -1,1 -2,0 -1,1 -3,0 -1,1 -2,0 -1,1 -3,0 -1,1 -2,0 -1,1 -2,0 -1,1 -3,0 -1,1 -2,0 -1,1 -2,0 -1,1 -2,0 -1,1 -2,0 -1,1 -2,0 0,1 2,0 1,-1 2,0 1,-1 2,0 1,-1 2,0 1,-1 3,0 1,-1 3,0 1,1 1,0 0,-2 1,-1 5,0 1,1 1,1 0,-3 1,-1 2,0 1,-1 2,0 1,-1 2,0 1,-1 3,0 1,-1 2,0 1,-1 5,0 1,1 0,-2 1,-1 5,0 1,1 1,0 1,2Z"/>
<path onmouseover="hoverPath(evt)" onmouseout="recoverPath(evt)" fill="rgb(243,242,233)" d="M  255,227l 0,-33 -1,0 -1,1 -1,0 -1,1 0,1 -1,1 -3,0 -1,-1 0,-2 1,-1 1,-1 -1,0 -1,1 -2,0 -1,1 -2,0 -1,1 -3,0 -1,1 -3,0 -1,1 -2,0 0,2 1,1 0,2 1,1 0,2 1,1 0,1 1,1 0,2 1,1 0,2 1,1 0,1 1,1 2,0 1,1 0,2 -1,1 -2,0 2,1 0,2 1,1 0,2 1,1 0,1 1,1 0,2 1,1 0,2 1,1 0,2 1,1 0,2 1,1 0,1 1,-1 4,0 1,1 3,0Z"/>
<path onmouseover="hoverPath(evt)" onmouseout="recoverPath(evt)" fill="rgb(241,239,228)" d="M  44,29l 0,5 1,0 1,1 3,0 1,-1 6,0 1,1 10,0 1,1 5,0 1,-1 1,-1 0,-1 1,-1 2,0 0,-1 1,-1 0,-2 1,-1 0,-1 -1,-1 0,-4 1,-1 0,-1 1,-1 0,-1 1,-1 0,-1 1,-1 0,-1 2,-2 2,0 2,-2 -1,-1 0,-2 1,-1 1,-1 1,-1 0,-1 1,-1 0,-1 -36,0 0,3 -1,1 -1,1 -3,0 -1,1 -1,1 0,1 -1,1 -1,0 -1,1 -1,1 -1,1 0,1 -1,1 0,6 1,1 0,1 1,0 1,1 3,0 1,-1 0,-4 -1,-1 0,-2 1,-1 2,-2 12,0 1,1 0,2 -1,1 -8,0 -1,1 -1,0 0,5 1,1 13,0 1,1 0,2 -1,1 -1,0 -1,1 -6,0 -1,-1 -15,0Z"/>
<path onmouseover="hoverPath(evt)" onmouseout="recoverPath(evt)" fill="rgb(242,241,235)" d="M  52,236l -2,2 0,1 1,1 1,1 0,1 2,0 1,1 1,1 1,1 0,1 2,0 1,1 1,1 0,1 2,0 1,1 1,1 0,4 90,0 0,-2 -1,-1 0,-1 -1,-1 0,-1 -1,-1 0,-1 -1,-1 0,-1 -1,-1 0,-1 -1,-1 0,-1 -1,-1 0,-1 -1,-1 0,-2 -1,-1 0,-1 -1,-1 0,-1 -1,-1 0,-1 -1,-1 0,-1 -1,-1 0,-1 -1,-1 0,-1 -1,-1 0,-1 -1,-1 0,-1 -1,-1 0,-1 -1,-1 0,-1 -1,-1 0,-1 -1,-1 0,-1 -1,-1 0,-1 -1,-1 0,-1 -1,-1 0,-1 -1,-1 0,-2 -1,-1 0,-1 -1,-1 0,-1 -1,-1 -1,-1 0,-1 -6,0 -1,1 -4,0 -1,1 -3,0 -1,1 -3,0 -1,1 -2,0 -1,1 -2,0 -1,1 -1,0 -1,1 -2,0 -1,1 -1,0 -1,1 -1,0 -1,1 -1,0 -1,1 -2,0 -1,1 -1,1 -1,0 -1,1 -1,1 -1,0 -1,1 -1,0 -1,1 0,1 1,1 0,3 -1,1 -2,0 -1,-1 -1,-1 0,-1 -1,0 -1,1 0,0 -1,1 -1,0 -1,1 0,1 -1,1 -2,0 -1,1 -1,1 -1,1 -1,1 -1,1 -1,1 0,1 -1,1 -1,0 -1,1 -1,1 -1,1 -1,1 -1,1 -1,1 -1,1Z"/>
<path onmouseover="hoverPath(evt)" onmouseout="recoverPath(evt)" fill="rgb(243,242,234)" d="M  111,52l -1,1 0,6 -1,1 0,8 1,1 0,5 1,1 0,4 1,1 0,4 1,1 0,4 1,1 0,4 1,1 0,4 1,1 0,4 1,1 0,2 1,1 0,1 5,0 1,-1 5,0 1,-1 5,0 1,-1 5,0 1,-1 4,0 1,-1 4,0 1,-1 3,0 1,-1 3,0 1,-1 3,0 1,-1 4,0 1,-1 3,0 1,-1 2,0 1,-1 1,0 0,-2 -1,-1 0,-2 -1,-1 0,-2 -1,-1 0,-1 -1,-1 0,-2 -1,-1 0,-2 -1,-1 0,-1 -1,-1 0,-2 -1,-1 0,-2 -1,-1 0,-1 -1,-1 0,-2 -1,-1 0,-2 -1,-1 0,-1 -1,-1 0,-2 -1,-1 0,-2 -1,-1 0,-1 -1,-1 0,-1 -3,0 -1,1 -4,0 -1,-1 -2,0 -1,1 -3,0 0,2 -1,1 -13,0 -1,-1 -2,0 -1,-1 0,-2 -3,0 -1,-1 -1,0 -1,1 -3,0 -1,-1 0,-2 -2,0 -1,1 -3,0 -1,1Z"/>
<path onmouseover="hoverPath(evt)" onmouseout="recoverPath(evt)" fill="rgb(243,242,234)" d="M  136,198l 0,0 1,1 0,1 1,1 0,1 1,1 0,1 1,1 0,2 -1,1 1,1 0,1 1,1 0,1 1,1 0,2 1,1 0,1 1,1 0,1 1,1 0,1 1,1 0,1 1,1 0,1 1,1 0,1 1,1 0,1 1,1 0,1 1,1 0,1 2,0 1,1 0,1 1,1 0,1 1,1 0,2 -1,1 1,1 0,1 1,1 0,1 1,1 0,2 1,1 0,1 1,1 0,1 1,1 0,2 36,0 0,-2 1,-1 2,0 -1,-1 0,-3 1,-1 0,-4 -1,-1 0,-9 -1,-1 0,-6 -1,-1 0,-2 -1,-1 0,-1 -1,0 -1,-1 -1,-1 0,-1 -1,-1 0,-5 -1,1 -3,0 -1,1 -2,0 -1,1 -5,0 -1,-1 0,-3 1,-1 1,-1 1,0 1,-1 2,0 1,-1 2,0 1,-1 2,0 -1,-1 0,0 -1,-1 0,-1 -1,-1 0,-1 -1,-1 -1,-1 0,-1 -1,-1 -1,-1 0,-2 1,-1 -1,-1 -2,0 -1,-1 0,-1 -1,-1 -1,-1 0,-2 -1,-1 -3,0 -1,1 -3,0 -1,1 -3,0 0,2 -1,1 -3,0 -1,-1 -1,0 -1,1 -3,0 -1,1 -2,0 -1,1 -3,0 -1,1 -2,0 -1,1 -6,0 -1,1 -4,0 0,3Z"/>
<path onmouseover="hoverPath(evt)" onmouseout="recoverPath(evt)" fill="rgb(240,239,228)" d="M  170,5l 0,0 1,-1 2,0 1,1 0,2 1,1 1,0 1,-1 3,0 1,-1 2,0 1,-1 2,0 1,-1 3,0 1,-1 2,0 1,-1 3,0 1,-1 3,0 0,-1 -47,0 0,1 1,1 0,2 1,1 0,1 1,1 0,2 1,1 0,1 1,1 3,0 1,-1 2,0 1,-1 3,0 1,-1Z"/>
<path onmouseover="hoverPath(evt)" onmouseout="recoverPath(evt)" fill="rgb(244,243,234)" d="M  220,173l 0,1 1,1 0,1 1,1 0,2 1,1 0,2 1,1 0,2 1,1 0,1 1,1 0,2 1,1 0,2 1,-1 2,0 1,-1 2,0 1,-1 2,0 1,-1 2,0 1,-1 2,0 1,-1 3,0 1,-1 3,0 1,-1 4,0 0,-22 -2,0 -1,-1 -1,0 -1,1 -3,0 -1,1 -2,0 -1,1 -2,0 -1,1 -3,0 -1,1 -2,0 -1,1 -3,0 -1,1 -2,0 -1,1 -2,0 -1,1 -3,0Z"/>
<path onmouseover="hoverPath(evt)" onmouseout="recoverPath(evt)" fill="rgb(243,241,233)" d="M  223,247l 3,0 1,-1 4,0 1,-1 1,0 0,-3 -1,-1 0,-2 -1,-1 0,-2 -1,-1 0,-1 -1,-1 0,-2 -1,-1 0,-1 -1,-1 0,-2 -1,-1 0,-2 -1,-1 0,-1 -1,-1 0,-2 -1,-1 0,-2 -1,-1 0,-1 -1,-1 0,-4 -1,0 -1,-1 0,-2 -1,-1 0,-1 -2,0 -1,1 -2,0 -1,1 -2,0 -1,1 -1,0 -1,1 -2,0 -1,1 -3,0 -1,1 2,0 1,1 0,3 1,1 0,3 -1,1 -1,1 -6,0 -1,-1 3,2 0,1 1,1 0,2 1,1 0,6 1,1 0,9 1,1 0,6 -1,1 0,1 1,1 0,1 1,-1 5,0 1,-1 3,0 -1,-1 0,0 -1,-1 0,-3 1,-1 5,0 1,1 0,1 1,1 1,1 2,0 1,-1 1,0 -17,-24 1,-1 0,-1 1,-1 2,0 1,1 1,1 0,2 -1,1 -1,0 -1,1 -2,0 -1,-1 0,-2 17,24Z"/>
<path onmouseover="hoverPath(evt)" onmouseout="recoverPath(evt)" fill="rgb(244,243,236)" d="M  0,190l 0,13 2,0 1,1 1,1 0,1 3,0 1,-1 0,0 1,-1 1,0 0,-2 1,-1 1,-1 1,-1 1,0 0,-2 1,-1 3,-3 1,0 0,-2 1,-1 1,-1 1,0 0,-2 1,-1 1,-1 0,-1 1,-1 0,-2 1,-1 0,-1 -1,0 -1,1 -1,0 -1,1 -2,0 -1,1 -1,0 -1,1 -2,0 -1,1 -1,0 -1,1 -1,0 -1,1 -2,0 -1,1 -1,0 -1,1 -2,0 -1,1 -1,0 -1,1Z"/>
<path onmouseover="hoverPath(evt)" onmouseout="recoverPath(evt)" fill="rgb(242,240,231)" d="M  40,174l 0,3 -1,1 0,3 -1,1 0,2 -1,1 0,1 -1,1 0,1 -1,1 0,1 -1,1 0,2 -1,1 -2,0 -1,1 -1,1 -1,1 -1,1 0,1 -3,3 -1,1 -1,1 1,1 0,2 -1,1 -1,1 -2,0 0,1 -1,1 0,2 -1,1 1,0 1,1 0,2 2,0 1,1 1,1 0,2 1,1 1,1 1,-1 1,0 1,-1 1,-1 2,0 1,1 1,0 1,1 1,0 1,1 0,2 -1,1 0,2 1,0 1,1 1,1 0,1 2,0 1,1 1,1 0,1 2,0 1,1 1,-1 0,0 1,-1 1,-1 0,-1 -1,-1 0,-2 1,-1 2,0 1,1 1,0 1,-1 1,-1 1,-1 0,-1 1,-1 1,0 -1,-1 0,-3 1,-1 2,0 1,-1 0,-1 -1,-1 0,0 -1,-1 -1,-1 0,-2 1,-1 2,0 1,1 1,0 1,1 1,1 0,2 1,1 1,-1 1,0 1,-1 1,-1 0,-2 1,-1 1,-1 1,0 1,-1 1,-1 2,0 1,1 1,-1 0,-2 1,-1 2,0 1,1 1,-1 0,-2 1,-1 1,0 1,-1 2,0 1,1 1,-1 0,-1 -1,-1 0,-1 -1,-1 -1,0 -1,-1 0,-1 -2,0 -1,1 -1,0 -1,1 -1,1 -2,0 -1,-1 0,-3 1,-1 -1,-1 -1,-1 0,-2 1,-1 2,0 1,1 1,1 2,0 1,1 1,0 1,-1 4,0 0,-3 1,-1 2,0 1,1 3,0 1,1 0,2 -1,1 -1,0 -1,1 -1,0 0,2 1,1 0,1 1,1 1,0 1,1 1,0 0,-2 1,-1 2,0 1,1 1,0 1,-1 4,0 0,-2 1,-1 3,0 1,1 4,0 1,-1 5,0 0,-1 1,-1 0,-2 -1,-1 0,-12 -1,-1 0,-8 -1,-1 0,-3 -15,0 -1,1 -15,0 -1,1 -10,0 -1,1 -4,0 -1,1 -3,0 -1,1 -3,0 -1,1 -3,0 -1,1 -3,0 -1,1 -3,0 -1,1 -2,0 -1,1 -3,0 -1,1 -3,0 -1,1 -2,0 -1,1 52,10 0,-2 -1,-1 0,0 1,3 -52,-10 50,7 -1,0 -1,1 0,0 2,-1 -50,-7 48,9 0,1 1,1 0,0 -1,-2 -48,-9 50,11 0,0 -50,-11 33,15 0,2 -1,1 -2,0 -1,-1 0,-2 1,-1 2,0 1,1 -33,-15 9,31 -1,1 -2,0 -1,-1 -1,-1 0,-2 1,-1 2,0 1,1 1,1 0,2 -9,-31Z"/>
<path onmouseover="hoverPath(evt)" onmouseout="recoverPath(evt)" fill="rgb(252,252,251)" d="M  51,230l 0,0 -1,1 0,2 -1,1 -1,1 -1,1 -1,1 0,1 2,0 0,-1 1,-1 4,-4 1,-1 2,-2 1,-1 1,-1 1,0 0,-1 4,-4 1,-1 2,-2 2,0 0,-1 1,-1 1,-1 1,0 1,-1 1,-1 3,0 1,1 0,1 1,1 0,-1 -1,-2 0,-2 1,-1 1,-1 1,0 1,-1 1,0 1,-1 1,-1 1,0 1,-1 1,-1 2,0 1,-1 1,0 1,-1 1,0 1,-1 1,0 1,-1 2,0 1,-1 1,0 1,-1 2,0 1,-1 2,0 1,-1 3,0 1,-1 3,0 1,-1 4,0 1,-1 8,0 1,1 0,1 1,1 1,1 0,1 1,1 0,1 1,1 0,2 1,1 0,1 1,1 0,1 1,1 0,1 1,1 0,1 1,1 0,1 1,1 0,1 1,1 0,1 1,1 0,1 1,1 0,1 1,1 0,1 1,1 0,1 1,1 0,1 1,1 0,1 1,1 0,1 1,1 0,1 1,1 0,2 1,1 0,1 1,1 0,1 1,1 0,1 1,1 0,1 1,1 0,1 1,1 0,1 1,1 0,1 1,1 0,3 2,0 0,-1 -1,-1 0,-1 -1,-1 0,-1 -1,-1 0,-2 -1,-1 0,-1 -1,-1 0,-1 -1,-1 0,-2 1,-1 -1,-1 0,-1 -1,-1 0,-1 -2,0 -1,-1 0,-1 -1,-1 0,-1 -1,-1 0,-1 -1,-1 0,-1 -1,-1 0,-1 -1,-1 0,-1 -1,-1 0,-1 -1,-1 0,-1 -1,-1 0,-1 -1,-1 0,-2 -1,-1 0,-1 -1,-1 0,-1 -1,-1 0,-2 1,-1 -1,-1 0,-1 -1,-1 0,-1 -1,-1 0,-1 -2,0 -1,-1 0,-5 1,-1 4,0 1,-1 6,0 1,-1 2,0 1,-1 3,0 1,-1 2,0 1,-1 3,0 1,-1 3,0 1,1 1,0 0,-2 1,-1 3,0 1,-1 3,0 1,-1 5,0 1,1 1,1 0,2 1,1 0,-1 -1,-3 0,-2 1,-1 1,-1 4,0 1,1 1,0 0,-2 1,-1 2,0 1,-1 3,0 1,-1 2,0 1,-1 2,0 1,-1 3,0 1,-1 2,0 -1,-1 -1,0 -1,1 -3,0 -1,1 -2,0 -1,1 -3,0 -1,1 -3,0 -1,1 -3,0 -1,-1 -1,-1 0,2 -1,1 -1,1 -1,0 -1,1 -2,0 -1,1 -3,0 -1,1 -3,0 -1,1 -2,0 -1,1 -2,0 -1,1 -2,0 -1,1 -3,0 -1,1 -2,0 -1,1 -3,0 -1,1 -2,0 -1,1 -3,0 -1,1 -5,0 -1,1 -7,0 -1,-1 -1,-1 0,-6 -1,-1 0,-11 -1,-1 0,-8 -1,-1 0,-2 1,-1 -1,-1 0,-3 -1,-1 0,-4 -1,-1 0,-4 -1,-1 0,-3 -1,-1 0,-5 -1,-1 0,-4 -1,-1 0,-3 -1,-1 0,-4 -1,-1 0,-6 1,-1 1,0 1,-1 5,0 1,-1 8,0 1,1 0,0 2,-2 1,0 1,-1 5,0 1,1 4,0 1,1 0,-3 1,-1 2,0 1,-1 3,0 1,-1 6,0 1,1 0,3 1,1 0,-2 -1,-3 1,-1 1,-1 2,0 1,-1 3,0 1,-1 3,0 1,-1 2,0 0,-1 -3,0 -1,1 -2,0 -1,1 -3,0 -1,1 -4,0 -1,1 -3,0 -1,1 -3,0 -1,1 -3,0 -1,1 -4,0 -1,1 -4,0 -1,1 -5,0 -1,1 -5,0 -1,1 -5,0 -1,1 -7,0 -1,-1 0,-1 -1,-1 0,-2 -1,-1 0,-4 -1,-1 0,-4 -1,-1 0,-4 -1,-1 0,-4 -1,-1 0,-4 -1,-1 0,-4 -1,-1 0,-5 -1,-1 0,-10 1,-1 0,-6 1,-1 0,-1 1,-1 4,0 -3,-1 0,-5 1,-1 1,-1 0,-1 1,-1 1,0 0,-2 1,-1 1,-1 2,-2 1,-1 1,0 1,-1 1,0 0,-1 1,-1 1,-1 1,0 1,-1 1,0 1,-1 1,0 1,-1 1,-1 2,0 1,-1 1,0 1,-1 2,0 1,-1 1,0 1,-1 3,0 1,-1 3,0 0,-1 -3,0 -1,1 -3,0 -1,1 -2,0 -1,1 -2,0 -1,1 -1,0 -1,1 -3,0 -1,1 -1,0 -1,1 -1,1 -2,2 -1,0 -1,1 -1,1 -1,1 -1,1 -1,1 -1,1 -1,1 -1,1 -1,1 -1,1 0,1 -2,2 -1,1 -2,0 1,1 0,2 -1,1 -5,0 0,1 2,0 1,1 1,1 0,8 -1,1 0,11 1,1 0,5 1,1 0,4 1,1 0,4 1,1 0,4 1,1 0,4 1,1 0,4 1,1 0,4 1,1 0,5 -1,1 -4,0 -1,1 -8,0 -1,1 -5,0 -1,-1 -1,-1 0,-6 1,-1 1,0 1,-1 -1,0 1,-1 1,-1 0,-23 -1,-1 0,7 -4,21 -2,0 1,1 0,0 1,1 0,5 -1,1 -3,0 -1,1 -10,0 -1,-1 -1,-1 0,1 -1,1 -19,0 -1,-1 0,-1 -1,-1 0,1 -1,1 0,0 -1,1 -6,0 -1,-1 0,-1 -1,-1 0,-5 -1,0 0,6 -1,1 -1,0 0,2 1,1 0,1 1,1 0,21 1,0 0,-22 1,-1 1,-1 29,0 1,1 1,1 0,4 1,1 0,15 1,1 0,4 -1,1 0,2 1,1 0,1 17,0 -15,-1 -1,0 -1,-1 0,-23 1,0 1,-1 16,0 2,2 0,-6 1,-1 2,0 0,-2 1,-1 13,0 1,1 0,1 1,1 0,4 1,1 0,3 1,1 0,4 1,1 0,4 1,1 0,4 1,1 0,3 1,1 0,5 1,1 0,8 1,1 0,3 1,1 0,8 1,1 0,12 1,1 0,4 -1,1 0,1 -1,1 -5,0 -1,1 -6,0 -1,-1 -1,0 0,2 -1,1 -4,0 -1,1 -3,0 -1,-1 0,2 -1,1 -3,0 -1,-1 -1,0 -1,-1 -1,-1 0,-1 -1,-1 0,-4 -1,1 -4,0 -1,1 -3,0 -1,-1 -2,0 -1,-1 -1,-1 2,3 0,1 -1,1 0,1 1,-1 1,-1 1,0 0,-1 5,0 1,1 0,1 1,0 1,1 1,1 0,1 1,1 0,3 -1,1 -1,1 -2,0 -1,-1 -1,1 -1,0 0,2 -1,1 -1,1 -2,0 -1,-1 0,2 -1,1 -1,1 -2,0 -1,-1 -1,1 0,0 -1,1 -1,0 -1,1 0,2 -1,1 -1,1 -1,1 -1,0 -1,1 -2,0 -1,-1 -1,-1 0,-2 -1,-1 -1,0 -1,-1 2,2 1,3 0,1 -1,1 -1,1 -2,0 0,1 1,1 0,2 -1,1 -1,0 0,1 -1,1 -1,1 -1,1 -1,1 -2,0 42,-41 1,0 1,-1 -2,0 -1,-1 0,2 1,0 -42,41 134,-57 0,-2 1,-1 -1,0 -1,1 -1,0 -1,1 2,0 1,1 -134,57 84,-115 0,1 1,1 0,-1 -1,-1 -84,115Z"/>
<path onmouseover="hoverPath(evt)" onmouseout="recoverPath(evt)" fill="rgb(240,238,227)" d="M  76,70l 0,8 -1,1 0,27 1,1 0,5 1,1 8,0 1,-1 3,0 0,-3 -1,-1 0,0 -1,-1 -1,0 -1,-1 -1,-1 0,-2 1,-1 2,0 1,1 1,1 2,0 1,-1 1,-1 1,-1 0,-14 -1,-1 0,-12 1,-1 2,0 1,1 0,3 1,1 0,25 -1,1 0,1 -1,1 -1,1 -1,0 0,4 1,1 3,0 1,-1 8,0 1,-1 4,0 0,-3 -1,-1 0,-4 -1,-1 0,-4 -1,-1 0,-4 -1,-1 0,-4 -1,-1 0,-4 -1,-1 0,-4 -1,-1 0,-5 -1,-1 0,-13 1,-1 0,-6 -1,-1 -2,0 -1,-1 -1,0 -1,-1 -3,0 -1,1 -2,0 0,2 -1,1 -1,1 -1,1 0,1 -1,1 -1,1 -1,1 -1,0 0,1 -1,1 -1,1 -2,0 0,2 -1,1 -2,2 -1,1 -1,1 -1,0Z"/>
<path onmouseover="hoverPath(evt)" onmouseout="recoverPath(evt)" fill="rgb(249,237,139)" d="M  209,253l -5,0 -1,1 -4,0 0,1 56,0 0,-10 -4,0 -1,-1 -2,0 -1,1 -2,0 -1,-1 0,-1 -1,-1 0,-2 -1,-1 0,-2 -1,-1 0,-2 -1,-1 0,-2 -1,-1 0,-1 -1,-1 0,-2 -1,-1 0,-2 -1,0 -1,-1 0,-2 1,-1 2,0 -3,-1 0,0 -1,-1 0,-1 -1,-1 0,-2 -1,-1 0,-2 -1,-1 0,-1 -1,-1 0,-2 -1,-1 0,-2 -1,-1 0,-2 -2,0 -1,-1 0,-6 -1,-1 0,-2 -1,-1 0,-1 -1,-1 0,-2 -1,-1 0,-2 -1,-1 0,-2 -1,-1 0,-1 -1,-1 0,-3 -2,0 -1,-1 0,-3 1,-1 1,0 -2,-1 0,0 -1,-1 0,-2 -1,-1 0,-2 -1,-1 0,-1 -1,-1 0,-2 -1,-1 0,-2 -1,-1 0,-2 -1,0 -1,-1 -1,-1 0,-5 -1,-1 0,-1 -1,-1 0,-2 -1,-1 0,-2 -1,-1 0,-1 -1,-1 0,-2 -1,-1 0,-1 -1,-1 0,-2 -1,-1 0,-2 -1,-1 0,-1 -1,-1 0,-2 -1,-1 0,-1 -1,-1 0,-2 -1,-1 0,-1 -1,-1 0,-2 -1,-1 0,-2 -1,-1 0,-2 1,-1 -3,0 -1,-1 0,-3 1,-1 2,0 -3,-1 0,0 -1,-1 0,-2 -1,-1 0,-2 -1,-1 0,-2 -1,-1 0,-1 -1,-1 0,-2 -1,-1 0,-2 -1,-1 0,-1 -1,-1 0,-2 -1,-1 0,-1 -1,-1 0,-2 -1,-1 0,-2 -1,-1 0,-1 -1,-1 0,-2 -1,-1 0,-2 -1,-1 0,-1 -1,-1 0,-2 -1,0 -1,-1 0,-4 -1,-1 0,-2 -1,-1 0,-2 -1,-1 0,-1 -1,-1 0,-2 -1,-1 0,-2 -1,-1 0,-1 -1,-1 0,-2 -1,-1 0,-2 -1,-1 0,-4 -2,0 -1,-1 -1,-1 0,-2 1,-1 -1,-1 0,-1 -1,-1 0,-2 -1,-1 0,-1 -1,-1 0,-2 -1,-1 0,-2 -9,0 0,1 1,1 0,1 1,1 0,2 1,1 0,1 1,1 0,2 1,1 0,1 1,0 1,1 0,2 1,1 0,3 -1,1 1,0 1,1 0,2 1,1 0,1 1,1 0,2 1,1 0,2 1,1 0,1 1,1 0,2 1,1 0,1 1,1 0,2 1,1 0,2 1,1 0,2 1,0 1,1 0,4 1,1 0,1 1,1 0,2 1,1 0,2 1,1 0,1 1,1 0,2 1,1 0,2 1,1 0,1 1,1 0,2 1,1 0,2 1,1 0,1 1,1 0,2 1,1 0,2 1,1 0,1 1,1 0,2 1,1 0,2 1,1 0,3 2,0 1,1 0,3 -1,1 -2,0 3,1 0,0 1,1 0,1 1,1 0,2 1,1 0,2 1,1 0,1 1,1 0,2 1,0 1,1 0,1 1,1 0,5 1,1 0,2 1,1 0,1 1,1 0,2 1,1 0,1 1,1 0,2 1,1 0,2 1,1 0,1 1,1 0,2 1,0 1,1 1,1 0,1 1,1 0,2 -1,1 0,1 1,1 0,1 1,1 0,2 1,1 0,2 1,1 0,1 1,1 0,2 1,1 0,3 1,0 1,1 1,1 0,2 -1,1 -2,0 3,1 0,0 1,1 0,2 1,1 0,1 1,1 0,2 1,1 0,2 1,1 0,1 1,1 0,2 1,1 0,3 2,0 1,1 0,6 1,1 0,2 1,0 1,1 0,4 1,1 0,1 1,1 0,2 1,1 0,2 1,1 0,1 1,1 0,2 1,1 0,2 1,1 0,1 1,1 0,2 1,1 0,1 1,1 0,2 1,1 0,2 1,1 0,5 -1,1 -1,0 -1,1 -4,0 -1,1 -4,0 -1,1 -4,0 -1,-1 -1,-1 -1,-1 0,-1 -3,0 0,1 1,1 0,0 1,1 0,2 -1,1 -3,0 -1,1Z"/>
<path onmouseover="hoverPath(evt)" onmouseout="recoverPath(evt)" fill="rgb(241,239,229)" d="M  211,150l 0,0 1,1 0,2 1,1 0,2 1,1 0,1 1,1 0,2 1,1 0,2 1,1 1,0 1,1 1,0 1,-1 3,0 1,-1 2,0 1,-1 2,0 1,-1 2,0 0,-1 -1,-1 -1,0 -1,-1 -1,-1 0,-2 1,-1 2,0 1,1 4,0 1,-1 2,0 1,-1 2,0 0,-4 1,-1 2,0 1,1 0,2 3,0 1,-1 4,0 0,-9 -2,0 -1,1 -4,0 -1,1 -3,0 -1,1 -3,0 -1,1 -3,0 -1,1 -4,0 -1,-1 -1,0 -1,1 -4,0 -1,1 -6,0 -1,1 -4,0 -1,1Z"/>
<path onmouseover="hoverPath(evt)" onmouseout="recoverPath(evt)" fill="rgb(249,248,243)" d="M  235,158l -3,0 -1,-1 3,2 0,0 1,1 0,3 -1,1 -2,0 -1,1 -2,0 -1,1 -2,0 -1,1 -3,0 -1,1 -2,0 -1,1 -1,0 0,1 1,0 1,-1 3,0 1,-1 2,0 1,-1 2,0 1,-1 3,0 1,-1 2,0 1,-1 3,0 1,-1 2,0 1,-1 2,0 1,-1 3,0 1,-1 3,0 1,1 1,0 0,-8 -3,0 -1,1 -5,0 -1,-1 0,2 -1,1 -2,0 -1,1 -2,0 -1,1Z"/>
<path onmouseover="hoverPath(evt)" onmouseout="recoverPath(evt)" fill="rgb(252,252,251)" d="M  52,15l -1,1 1,1 0,6 -1,1 -1,1 10,0 1,1 4,0 1,-1 -5,0 -8,-1 -1,0 -3,1 -4,0 -1,-1 -1,0 -1,-1 0,-1 -1,-1 0,-8 1,-1 0,-1 1,-1 1,-1 1,-1 1,-1 1,0 0,-1 2,-2 1,-1 3,0 1,-1 0,-2 -18,0 0,5 1,1 0,0 1,1 0,2 1,1 0,6 1,1 0,18 -1,1 0,3 1,1 0,32 1,0 0,-1 1,-1 0,-16 -1,-1 0,-12 1,-1 0,-1 1,-1 9,0 1,1 0,26 2,0 1,1 4,0 -1,-1 -3,0 -2,-21 0,-5 1,-1 10,0 1,1 7,0 1,1 0,4 1,-3 0,0 1,-1 2,0 0,-1 -1,-1 0,-4 -1,2 0,0 -1,1 -1,1 -7,0 -1,-1 -10,0 -1,-1 -4,0 -1,1 -5,0 -1,-1 -1,0 -1,-1 0,-9 1,-1 1,0 8,-10 0,1 1,-1 1,0 1,-1 -2,0 -1,2Z"/>
<path onmouseover="hoverPath(evt)" onmouseout="recoverPath(evt)" fill="rgb(240,238,227)" d="M  78,127l 0,7 1,1 0,10 1,0 1,1 13,0 1,-1 0,-20 -1,-1 -14,0 -1,1 -1,0Z"/>
<path onmouseover="hoverPath(evt)" onmouseout="recoverPath(evt)" fill="rgb(252,252,250)" d="M  172,8l 0,2 -1,1 -1,1 -3,0 -1,1 -2,0 -1,1 -4,0 -1,1 1,1 1,0 1,-1 2,0 1,-1 3,0 1,-1 6,0 1,1 0,-2 1,-1 1,0 1,-1 3,0 1,-1 2,0 1,-1 3,0 1,-1 6,0 1,1 0,3 1,1 0,-1 -1,-4 0,-1 1,-1 2,0 1,-1 2,0 1,-1 3,0 1,-1 2,0 1,-1 4,0 1,1 1,0 0,-2 -13,0 0,2 -1,1 -3,0 -1,1 -3,0 -1,1 -2,0 -1,1 -3,0 -1,1 -2,0 -1,1 -2,0 -1,1 -3,0 -1,1 -3,0 -1,-1 -1,-1Z"/>
<path onmouseover="hoverPath(evt)" onmouseout="recoverPath(evt)" fill="rgb(251,251,248)" d="M  172,47l -1,0 0,1 3,0 1,-1 2,0 1,-1 2,0 1,-1 4,0 1,1 1,0 0,-2 1,-1 3,0 1,-1 3,0 1,-1 2,0 1,-1 7,0 1,1 0,2 1,1 0,-2 1,-1 0,-3 1,-1 2,0 1,-1 3,0 1,-1 2,0 1,-1 3,0 1,-1 3,0 1,-1 2,0 1,-1 3,0 1,-1 2,0 1,-1 4,0 1,1 2,0 1,1 0,2 2,0 1,1 0,1 1,1 0,3 -1,1 2,0 1,1 0,2 1,1 0,1 1,1 0,2 1,0 0,-16 -5,0 -1,-1 0,-1 -1,-1 0,-2 -1,-1 0,-1 -1,-1 0,-1 -1,-1 0,-2 -1,-1 0,-1 -1,-1 0,-2 -1,-1 0,-1 -1,-1 0,-2 -1,-1 0,-1 -1,-1 0,-2 -1,-1 0,-1 -1,-1 0,-2 -1,0 0,3 1,1 0,1 1,1 0,2 1,1 0,1 1,1 0,2 1,1 0,1 1,1 0,2 1,1 0,1 1,1 0,5 -1,1 -2,0 -1,1 -2,0 -1,1 -2,0 -1,1 -4,0 -1,1 -3,0 -1,-1 -1,0 0,2 -1,1 -4,0 -1,1 -2,0 -1,1 -2,0 -1,1 -3,0 -1,1 -2,0 -1,-1 0,-2 -1,-1 0,1 1,3 -1,1 -1,0 -1,1 -3,0 -1,1 -3,0 -1,1 -2,0 -1,1 -3,0 -1,-1 -1,-1 -1,-1 0,3 -1,1 -1,1 -2,0 -1,1 -2,0 -1,1 -3,0 -1,1Z"/>
</svg>