<svg width="256" height="256" xmlns="http://www.w3.org/2000/svg"><script> 
var tempColor;
function hoverPath(evt){
obj = evt.target;
tempColor = obj.getAttribute("fill");
obj.setAttribute("fill","red");
//alert(tempColor);
//obj.setAttribute("stroke","red");}
function recoverPath(evt){
obj = evt.target;
obj.setAttribute("fill", tempColor);
//obj.setAttribute("stroke", tempColor);
}</script><path onmouseover="hoverPath(evt)" onmouseout="recoverPath(evt)" fill="rgb(242,240,231)" d="M  18,63l -1,0 0,1 -1,1 0,5 -1,1 2,0 2,2 1,1 1,0 1,1 1,0 1,1 0,2 3,0 1,-1 5,0 1,1 2,0 1,1 2,0 1,-1 8,0 1,1 17,0 1,-1 1,-1 5,0 1,-1 3,0 1,-1 1,0 2,-2 0,-2 -1,-1 0,-1 -2,0 -1,-1 -1,-1 -1,-1 -1,-1 -1,-1 0,-2 -1,-1 -5,0 -1,-1 -44,0 -1,1 -1,0 -1,1 -1,1Z"/>
<path onmouseover="hoverPath(evt)" onmouseout="recoverPath(evt)" fill="rgb(245,234,140)" d="M  138,55l -7,0 -1,1 -15,0 -1,-1 -4,0 -1,-1 -15,0 -1,1 -10,0 4,1 0,1 30,0 1,1 26,0 0,-2 -1,-1Z"/>
<path onmouseover="hoverPath(evt)" onmouseout="recoverPath(evt)" fill="rgb(243,242,233)" d="M  182,25l 0,2 1,1 0,2 1,1 0,1 1,1 0,2 1,1 0,2 1,1 0,1 1,1 0,1 8,0 1,-1 8,0 1,-1 6,0 1,-1 6,0 1,-1 6,0 1,-1 5,0 1,-1 4,0 1,1 1,0 0,-2 -1,-1 0,-1 -1,-1 0,-1 -1,-1 0,-2 -1,-1 0,-1 -2,0 -1,-1 0,-2 1,-1 0,-1 -1,-1 0,-1 -2,0 -1,-1 0,-2 1,-1 0,-1 -1,-1 0,-1 -2,0 -1,-1 0,-2 1,-1 -2,0 -1,-1 0,-2 1,-1 0,-4 -55,0 0,2 1,1 0,1 1,1 0,1 1,1 1,1 0,1 1,1 0,1 1,1 0,1 1,1 0,1 1,1 0,1 3,0 1,-1 3,0 1,-1 2,0 1,-1 2,0 1,-1 2,0 1,-1 2,0 1,-1 2,0 1,-1 2,0 1,-1 2,0 1,-1 6,0 1,1 0,2 -1,1 -1,1 -2,0 -1,1 -2,0 -1,1 -3,0 -1,1 -2,0 -1,1 -2,0 -1,1 -2,0 -1,1 -2,0 -1,1 -2,0 -1,1 -2,0 -1,1 -2,0 -1,1 0,1 1,1Z"/>
<path onmouseover="hoverPath(evt)" onmouseout="recoverPath(evt)" fill="rgb(244,243,235)" d="M  10,73l 0,0 -1,1 0,1 -1,1 0,2 -1,1 0,1 -1,1 0,2 -1,1 0,1 -1,1 0,2 -1,1 0,1 -1,1 -2,0 0,39 2,0 1,1 0,1 1,1 1,1 1,1 1,1 1,0 1,1 0,2 1,1 1,1 0,1 1,1 1,1 0,1 1,1 1,1 0,2 -1,1 1,1 2,0 1,1 0,1 1,1 0,1 1,1 1,1 0,1 1,1 0,1 1,1 1,1 0,1 1,1 0,2 -1,1 1,1 0,1 1,1 0,1 1,1 1,1 2,0 1,1 0,2 -1,1 1,1 0,1 1,1 2,0 1,1 0,1 1,1 0,1 1,1 1,1 1,1 0,3 -1,1 1,1 0,1 1,1 2,0 1,1 0,2 -1,1 1,1 0,1 1,1 2,0 1,1 0,1 1,1 0,1 1,1 1,1 0,1 1,1 0,1 1,1 0,1 1,1 1,1 0,1 1,1 0,2 -1,1 1,1 2,0 1,1 0,1 1,1 0,1 1,1 1,1 1,1 3,0 1,-1 10,0 1,-1 12,0 1,-1 4,0 1,-1 2,-2 1,-1 1,-1 1,-1 1,0 1,-1 1,-1 1,-1 1,-1 1,-1 1,-1 1,-1 1,-1 1,-1 1,-1 1,-1 1,-1 1,-1 1,-1 1,-1 1,-1 1,-1 1,-1 1,-1 1,-1 1,-1 1,-1 -1,-1 0,-1 -1,-1 0,-1 -1,-1 -1,-1 0,-1 -1,-1 0,-1 -1,-1 0,-1 -2,0 -1,-1 0,-2 1,-1 -1,-1 0,-1 -1,-1 0,-1 -1,-1 0,-1 -1,-1 0,-1 -1,-1 0,-1 -1,-1 0,-1 -1,-1 0,-1 -2,0 -1,-1 0,-2 1,-1 -1,-1 0,-1 -1,-1 0,-1 -1,-1 0,-2 -1,-1 0,-1 -1,-1 0,-1 -1,-1 0,-1 -1,-1 0,-1 -1,-1 0,-1 -1,-1 0,-1 -1,-1 0,-1 -1,-1 0,-1 -1,-1 0,-1 -1,-1 -1,-1 0,-1 -1,-1 0,-1 -1,-1 0,-1 -1,-1 0,-1 -1,-1 0,-2 -1,-1 0,-1 -1,-1 -1,-1 -1,-1 -4,0 -1,-1 0,-2 1,-1 2,0 1,-1 0,-1 -1,-1 0,-2 -1,-1 0,-2 1,-1 -1,-1 0,-2 -1,-1 0,-1 -1,-1 0,-1 -2,0 -1,-1 0,-2 1,-1 -1,-1 0,-1 -1,-1 0,-1 -1,-1 0,-1 -1,-1 -1,-1 0,-1 -1,-1 -1,-1 -3,0 -1,-1 -1,0 -1,-1 -1,0 -1,-1 -18,0 -1,-1 -1,0 -1,1 -3,0 -1,1 -1,0 -1,1 -1,1 -3,0 -1,-1 0,-2 1,-1 0,-2 1,-1 -3,0 -1,1 -5,0 -1,-1 0,-2 -1,0 -1,-1 -1,0 -1,-1 -1,-1 -1,-1 -2,0 -1,-1 0,-1 -1,-1 0,-5 -1,0 0,1 -1,1 1,1 0,3 -1,1 0,1 19,15 1,1 0,2 -1,1 -2,0 -1,-1 0,-2 1,-1 2,0 -19,-15Z"/>
<path onmouseover="hoverPath(evt)" onmouseout="recoverPath(evt)" fill="rgb(243,242,234)" d="M  69,0l -1,0 0,2 -1,1 -1,1 -1,1 0,4 1,1 0,2 1,1 0,3 1,1 0,3 1,1 0,3 1,1 0,1 1,1 0,1 1,1 0,1 1,1 0,1 1,1 0,1 1,1 0,2 1,1 0,1 1,1 0,1 1,1 0,1 1,1 0,3 8,0 1,-1 15,0 0,-2 1,-1 -1,-1 0,-1 -1,-1 0,-1 -1,-1 0,-1 -1,-1 0,-1 -1,-1 0,-2 -1,-1 0,-1 -1,-1 0,-1 -1,-1 0,-1 -1,-1 0,-1 -1,-1 0,-1 -1,-1 0,-1 -1,-1 0,-1 -1,-1 0,-1 -1,-1 0,-1 -1,-1 0,-1 -1,-1 0,-1 -1,-1 0,-1 -1,-1 0,-1 -1,-1 0,-1 -1,-1 0,-3Z"/>
<path onmouseover="hoverPath(evt)" onmouseout="recoverPath(evt)" fill="rgb(244,243,235)" d="M  91,0l -1,0 0,2 1,1 0,2 1,1 0,1 1,1 0,1 1,1 0,1 1,1 0,1 1,1 0,1 1,1 0,1 1,1 0,1 1,1 0,1 1,1 0,1 1,1 0,1 1,1 0,1 1,1 0,1 1,1 0,1 1,1 0,1 1,1 0,1 1,1 0,1 1,1 0,1 1,1 0,1 1,1 0,1 1,1 0,1 1,1 0,1 1,1 0,1 3,0 1,-1 6,0 1,-1 17,0 1,1 0,-1 1,-1 14,0 1,-1 11,0 1,-1 8,0 1,1 0,1 1,0 1,-1 1,0 1,-1 -1,-1 0,-2 -1,-1 0,-1 -1,-1 0,-2 -1,-1 0,-2 -1,-1 0,-1 -1,-1 0,-2 -1,-1 0,-2 -1,-1 0,-1 -1,-1 0,-1 -1,-1 0,-1 -1,-1 0,-1 -1,-1 0,-1 -1,-1 0,-1 -1,-1 0,-1 -1,-1 0,-1 -1,-1 0,-1 -1,-1 0,-1 -1,-1 0,-1 -1,-1 0,-2Z"/>
<path onmouseover="hoverPath(evt)" onmouseout="recoverPath(evt)" fill="rgb(243,242,234)" d="M  93,120l -2,0 0,1 1,1 0,1 2,0 1,1 0,1 1,1 0,1 1,1 0,1 1,1 0,1 1,1 0,1 1,1 0,1 1,1 0,2 -1,1 1,1 0,1 1,1 0,1 1,1 0,1 1,1 0,1 1,1 0,1 1,1 0,1 2,0 1,1 0,1 1,1 0,1 1,1 0,1 1,1 0,1 1,1 0,1 1,1 0,1 1,1 0,1 1,1 0,1 1,1 0,1 1,1 0,1 1,1 0,1 1,1 0,1 1,1 0,1 1,1 0,2 -1,1 0,1 1,1 0,1 1,1 0,1 1,1 1,1 0,1 1,1 1,0 1,-1 0,0 2,-2 1,-1 1,-1 1,-1 1,-1 1,-1 4,-4 1,-1 4,-4 1,-1 -2,0 -1,-1 -1,-1 -1,0 -1,-1 -1,-1 -1,-1 -1,-1 0,-1 -1,0 -1,-1 -1,-1 -1,-1 -1,-1 -1,-1 -1,-1 -1,-1 0,-1 -1,-1 -1,-1 -1,-1 -1,-1 -1,-1 -1,-1 -1,-1 0,-1 -1,-1 -1,-1 0,-1 -1,-1 0,-1 -1,-1 0,-1 -1,-1 0,-1 -1,-1 0,-1 -1,-1 0,-1 -1,-1 0,-2 -1,-1 0,-1 -1,-1 0,-2 -1,-1 0,-1 -1,-1 0,-1 -1,-1 0,-1 -1,-1 0,-1 -1,-1 0,-1 -3,0 -1,-1 -1,0 -1,1 -2,0 -1,1 -3,0 -1,1Z"/>
<path onmouseover="hoverPath(evt)" onmouseout="recoverPath(evt)" fill="rgb(252,249,249)" d="M  108,49l -1,1 1,0 1,1 0,1 1,-1 0,0 1,-1 0,-1 -1,-1 0,-1 -1,-1 0,-1 -1,-1 0,-1 -1,-1 0,-1 -1,-1 0,-1 -1,-1 0,-1 -1,-1 0,-1 -1,-1 0,-1 -1,-1 0,-1 -1,-1 0,-1 -1,-1 0,-1 -1,-1 0,-1 -1,-1 0,-1 -1,-1 0,-1 -1,-1 0,-1 -1,-1 0,-1 -1,-1 0,-1 -1,-1 0,-1 -1,-1 0,-1 -1,-1 0,-1 -1,-1 0,-1 -1,-1 0,-2 -1,-1 0,-3 -2,0 0,2 1,1 0,1 1,1 0,1 1,1 0,1 1,1 0,1 1,1 0,1 1,1 0,1 1,1 0,1 1,1 0,1 1,1 0,1 1,1 0,1 1,1 0,1 1,1 0,1 1,1 0,1 1,1 0,1 1,1 0,2 1,1 0,1 1,1 0,1 1,1 0,1 1,1 0,1 1,1 0,1 1,1 0,2 1,1Z"/>
<path onmouseover="hoverPath(evt)" onmouseout="recoverPath(evt)" fill="rgb(251,245,247)" d="M  166,1l 0,0 1,1 0,1 1,1 0,1 1,1 0,1 1,1 0,1 1,1 0,1 1,1 0,1 1,1 0,1 1,1 0,1 1,1 0,1 1,1 0,1 1,1 0,1 1,1 0,2 1,1 0,2 1,1 0,1 1,1 0,2 1,1 0,2 1,1 0,1 1,1 0,2 1,1 0,2 -1,1 -1,1 1,0 1,1 0,1 1,0 1,1 2,0 1,-1 0,0 1,-1 3,0 1,-1 1,0 -2,-1 -2,0 -1,1 -3,0 -1,-1 0,-2 -1,-1 0,-1 -1,-1 0,-1 -1,-1 0,-2 -1,-1 0,-2 -1,-1 0,-1 -1,-1 0,-2 -1,-1 0,-2 -1,-1 0,-3 1,-1 1,-1 2,0 1,-1 2,0 1,-1 2,0 1,-1 2,0 1,-1 2,0 1,-1 2,0 1,-1 2,0 1,-1 3,0 1,-1 2,0 1,-1 2,0 1,-1 -4,0 -1,1 -2,0 -1,1 -2,0 -1,1 -2,0 -1,1 -2,0 -1,1 -2,0 -1,1 -2,0 -1,1 -2,0 -1,1 -3,0 -1,1 -5,0 -1,-1 0,-1 -1,-1 0,-1 -1,-1 0,-1 -1,-1 0,-1 -1,-1 0,-1 -1,-1 -1,-1 0,-1 -1,-1 0,-1 -1,-1 0,-3 -1,0 -1,1Z"/>
<path onmouseover="hoverPath(evt)" onmouseout="recoverPath(evt)" fill="rgb(250,249,245)" d="M  227,1l 0,4 -1,1 2,0 1,1 0,2 -1,1 2,0 1,1 0,1 1,1 0,3 -1,1 2,0 1,1 0,1 1,1 0,3 -1,1 2,0 1,1 0,1 1,1 0,2 1,1 0,1 1,1 0,1 1,1 0,6 1,-1 1,0 0,-3 -1,-1 0,-1 -1,-1 0,-2 -1,-1 0,-2 1,-1 -2,0 -1,-1 0,-1 -1,-1 0,-3 1,-1 -2,0 -1,-1 0,-2 -1,-1 0,-1 -1,-1 0,-1 -1,-1 0,-1 -1,-1 0,-2 -1,-1 0,-3 1,-1 1,0 1,-1 1,0 1,-1 1,0 0,-1 -8,0 -1,1Z"/>
<path onmouseover="hoverPath(evt)" onmouseout="recoverPath(evt)" fill="rgb(243,242,234)" d="M  0,202l 0,30 11,0 1,-1 8,0 1,-1 12,0 1,-1 10,0 1,-1 10,0 1,-1 0,-1 -1,-1 0,-1 -1,-1 0,-1 -1,-1 -1,-1 0,-1 -1,-1 0,-2 1,-1 -1,-1 -2,0 -1,-1 0,-1 -1,-1 0,-2 1,-1 -1,-1 -2,0 -1,-1 0,-1 -1,-1 0,-1 -1,-1 -1,-1 0,-1 -1,-1 0,-1 -1,-1 0,-1 -1,-1 -1,-1 0,-1 -1,-1 0,-2 1,-1 0,-1 -1,-1 0,0 -1,-1 -1,-1 0,3 -1,1 -2,0 0,2 -1,1 -3,0 -1,-1 -2,0 -1,1 -2,0 -1,1 -2,0 0,2 -1,1 -4,0 -1,-1 -1,0 -1,1 -2,0 -1,1 -3,0 -1,1 -3,0Z"/>
<path onmouseover="hoverPath(evt)" onmouseout="recoverPath(evt)" fill="rgb(183,204,233)" d="M  82,58l 0,0 1,1 0,1 1,1 0,1 1,1 1,1 1,1 0,1 1,1 0,2 1,1 1,1 0,2 1,1 0,1 1,1 0,2 1,1 0,2 1,1 0,2 1,1 0,2 1,1 0,2 1,1 0,2 1,1 0,1 1,1 0,2 1,1 0,1 1,1 0,1 1,1 0,1 1,1 0,1 1,1 0,2 1,1 1,0 1,-1 0,-1 -1,-1 0,-2 -1,-1 0,-1 -1,-1 -1,-1 0,-1 -1,-1 0,-2 -1,-1 -1,-1 0,-2 -1,-1 0,-1 -1,-1 0,-2 -1,-1 0,-3 -1,-1 0,-5 1,-1 1,-1 -1,-1 0,-1 -1,-1 0,-1 -1,-1 0,-2 -1,-1 0,-1 -1,-1 0,-6 1,-1 -8,0 -1,-1 0,-1 -2,0 -1,1Z"/>
<path onmouseover="hoverPath(evt)" onmouseout="recoverPath(evt)" fill="rgb(243,241,232)" d="M  223,105l 0,0 -1,1 -1,1 -1,1 -1,1 -2,2 -1,1 0,1 1,1 3,0 1,-1 1,0 1,-1 0,-2 1,-1 6,0 1,1 0,3 -1,1 1,1 1,0 1,-1 2,0 1,1 1,1 1,0 1,1 1,1 2,0 1,1 0,1 1,1 0,2 1,1 1,-1 2,0 1,1 1,0 1,1 0,1 1,1 0,4 -1,1 1,0 1,-1 2,0 0,-56 -1,0 -1,1 0,0 -1,1 -1,1 -1,1 -1,1 -1,1 -1,1 -1,1 0,1 -1,1 -1,0 -1,1 -1,1 -2,2 -1,1 -1,1 -1,1 -1,1 -1,1 0,1 -1,1 -1,0 -1,1 -1,1 -1,1 -1,1 -1,1 -1,1 -1,1 -1,1 -1,0 -1,1 28,28 -1,-1 -1,1 0,0 1,1 0,-1 1,0 -28,-28Z"/>
<path onmouseover="hoverPath(evt)" onmouseout="recoverPath(evt)" fill="rgb(244,242,234)" d="M  0,139l 0,57 2,0 1,-1 3,0 1,-1 2,0 1,-1 3,0 1,1 2,0 0,-2 1,-1 2,0 1,-1 2,0 1,-1 4,0 1,1 1,0 0,-2 1,-1 2,0 0,-3 -1,-1 0,-1 -1,-1 -1,-1 0,-1 -1,-1 0,-1 -1,-1 0,-1 -1,-1 -1,-1 -1,-1 0,-1 -1,-1 0,-1 -1,-1 0,-1 -1,-1 0,-2 1,-1 -1,-1 -2,0 -1,-1 0,-2 1,-1 -1,-1 -2,0 -1,-1 0,-1 -1,-1 0,-1 -1,-1 -1,-1 0,-2 1,-1 -1,-1 0,0 -1,-1 0,-1 -1,-1 -1,-1 0,-1 -1,-1 -1,-1 0,-2 -1,0 -1,-1 -1,-1 -1,-1 -1,-1 -1,-1 0,-1 -1,0Z"/>
<path onmouseover="hoverPath(evt)" onmouseout="recoverPath(evt)" fill="rgb(246,234,138)" d="M  32,26l -1,1 -1,1 -1,1 0,2 -1,1 -2,0 -1,1 -1,1 -2,2 -1,1 -2,2 0,2 -1,1 -1,0 -1,1 -2,2 -9,0 3,1 1,0 6,-1 10,0 0,-3 1,-1 0,-2 1,-1 1,0 1,-1 1,-1 1,-1 1,-1 1,-1 1,-1 0,-1 1,-1 1,0 1,-1 1,0 1,-1 1,-1 2,-2 1,-1 1,-1 1,-1 1,-1 1,-1 1,-1 0,-1 1,-1 1,-1 1,-1 1,-1 0,-2 1,-1 1,-1 2,-2 1,-1 1,-1 1,0 1,-1 1,-1 2,0 1,-1 1,-1 1,-1 0,-1 -9,0 0,2 -1,1 -1,1 -2,2 0,2 -1,1 -1,1 -1,1 -1,1 -1,1 -1,1 -1,1 -1,1 -1,1 -1,0 -1,1 -2,0 -1,1 0,1 -1,1 -2,2 -1,1 -1,1 -1,0 -1,1Z"/>
<path onmouseover="hoverPath(evt)" onmouseout="recoverPath(evt)" fill="rgb(243,242,232)" d="M  71,84l 0,0 1,1 1,1 1,1 0,1 1,1 1,1 0,1 1,1 0,1 1,1 0,1 1,1 0,2 -1,1 2,0 1,1 0,1 1,1 0,1 1,1 0,2 1,1 0,1 1,1 0,1 1,1 0,1 1,1 0,2 3,0 1,-1 4,0 1,-1 2,0 1,-1 2,0 1,-1 1,0 -1,-1 0,-2 -1,-1 0,-1 -1,-1 0,-1 -1,-1 0,-1 -1,-1 0,-1 -1,-1 0,-2 -1,-1 0,-1 -1,-1 0,-2 -1,-1 0,-2 -1,-1 0,-2 -1,-1 0,-2 -1,-1 0,-2 -1,-1 0,-2 -1,-1 0,-1 -1,-1 0,-2 -1,-1 -1,-1 0,-2 -1,-1 0,-1 -3,-3 0,-1 -1,-1 0,-1 -1,-1 -1,-1 0,-2 -6,0 0,1 1,1 0,2 1,1 1,0 1,1 3,3 1,1 0,1 1,1 0,1 1,1 0,4 -1,1 -1,1 -1,1 -1,0 -1,1 -3,0 -1,1 -5,0 -1,1 -1,1 -19,0 -1,-1 -6,0 -1,1 -4,0 -1,-1 -1,0 -1,1 0,2 -1,1 1,0 1,-1 0,0 1,-1 1,0 9,-1 2,0 17,1 1,0 1,1 1,0 1,1Z"/>
<path onmouseover="hoverPath(evt)" onmouseout="recoverPath(evt)" fill="rgb(244,243,235)" d="M  33,36l -2,2 -1,1 -1,1 -1,0 0,2 -1,1 0,2 1,-1 24,0 1,1 0,1 1,0 1,-1 17,0 0,-1 -1,-1 0,-1 -1,-1 0,-1 -1,-1 0,-1 -1,-1 0,-1 -1,-1 0,-1 -1,-1 0,-1 -1,-1 0,-2 -1,-1 0,-1 -1,-1 0,-2 -1,-1 0,-2 -1,-1 0,-3 -1,-1 0,-3 -1,-1 0,-4 -1,1 -1,1 -1,1 -1,1 -1,1 0,2 -4,4 0,1 -3,3 -1,1 -1,1 -1,1 -2,2 -1,1 -1,1 -1,1 -1,0 -1,1 -1,0 0,1 -1,1 -2,2Z"/>
<path onmouseover="hoverPath(evt)" onmouseout="recoverPath(evt)" fill="rgb(238,236,222)" d="M  67,244l 0,2 1,1 0,1 2,0 1,-1 0,0 1,-1 0,-1 1,-1 1,0 1,-1 1,-1 1,-1 1,-1 1,-1 1,-1 1,-1 0,-1 1,-1 1,0 1,-1 1,-1 1,-1 1,-1 1,-1 -8,0 -1,1 -9,0 -1,1 -5,0 -1,1 0,1 1,1 0,1 1,1 0,3 1,1 0,2 1,1Z"/>
<path onmouseover="hoverPath(evt)" onmouseout="recoverPath(evt)" fill="rgb(244,243,235)" d="M  121,60l -2,0 0,1 2,0 1,1 0,1 1,1 0,2 -1,1 2,0 1,1 0,1 1,1 0,1 1,1 0,1 1,1 0,1 1,1 0,2 -1,1 2,0 1,1 0,2 -1,1 1,1 0,1 1,1 0,1 1,1 0,1 1,1 0,1 1,1 0,1 1,1 0,1 1,1 0,1 2,0 1,1 0,2 -1,1 2,0 1,1 0,2 -1,1 0,1 1,1 0,1 1,1 0,1 1,1 0,1 1,1 0,1 1,1 0,1 1,1 0,1 2,0 1,1 0,1 1,1 0,1 1,1 0,2 -1,1 1,1 0,1 1,1 0,1 1,1 0,1 1,1 0,1 1,1 0,2 1,1 0,1 2,0 1,1 0,2 -1,1 0,1 1,1 0,1 2,0 1,1 0,2 -1,1 1,1 0,2 1,1 0,1 1,-1 0,0 1,-1 1,0 23,-23 1,-1 2,-2 0,-1 1,-1 1,0 1,-1 2,-2 1,-1 1,-1 1,-1 1,-1 1,-1 1,-1 1,-1 1,-1 1,-1 1,-1 0,-2 -1,-1 0,-2 -1,-1 0,-1 -1,-1 0,-2 -1,-1 0,-1 -1,-1 0,-2 -1,-1 0,-2 -2,0 -1,-1 0,-2 1,-1 0,-1 -2,0 -1,-1 0,-2 1,-1 0,-1 -2,0 -1,-1 0,-2 1,-1 0,-1 -1,-1 0,-2 -1,-1 0,-1 -1,-1 0,-2 -1,-1 0,-2 -1,-1 0,-2 -2,0 -1,-1 0,-2 1,-1 0,-1 -1,-1 0,-1 -2,0 -1,-1 -1,-1 -2,0 -1,1 -8,0 -1,1 -13,0 -1,1 -12,0 -1,1Z"/>
<path onmouseover="hoverPath(evt)" onmouseout="recoverPath(evt)" fill="rgb(243,241,232)" d="M  119,116l 0,1 1,1 0,1 1,1 0,2 -1,1 -2,0 -1,-1 -1,1 0,1 1,1 0,1 1,1 0,2 1,1 0,2 1,1 0,1 1,1 0,1 1,1 0,1 1,1 0,2 1,1 1,1 0,1 1,1 1,0 1,1 1,1 1,1 0,1 1,1 0,1 1,1 1,1 0,2 3,0 1,-1 2,0 1,1 3,3 1,1 1,1 1,1 0,2 4,0 1,-1 0,0 1,-1 1,-1 1,0 1,-1 0,-1 1,-1 0,-2 -1,-1 0,-2 -1,-1 0,-2 -1,-1 0,-1 -1,-1 0,-1 -1,-1 0,-2 -1,-1 0,-1 -1,-1 0,-2 -1,-1 0,-3 -1,-1 0,-1 -1,-1 0,-1 -1,-1 0,-2 -1,-1 0,-1 -1,-1 0,-1 -1,-1 0,-1 -1,-1 0,-1 -1,-1 0,-1 -1,-1 0,-1 -2,0 -1,-1 0,-3 -4,0 -1,-1 -1,0 0,2 -1,1 -3,0 -1,1 -2,0 -1,1 -3,0Z"/>
<path onmouseover="hoverPath(evt)" onmouseout="recoverPath(evt)" fill="rgb(239,237,224)" d="M  44,243l -4,0 -1,-1 -1,1 -1,0 0,5 -1,1 0,3 1,1 0,2 19,0 0,-4 1,-1 2,0 1,1 2,0 1,-1 1,0 0,-3 1,-1 0,-1 -1,-1 0,-2 -1,-1 0,-3 -1,-1 0,1 -1,1 0,0 -1,1 -3,0 -1,1 -3,0 -1,1 -4,0 -1,1Z"/>
<path onmouseover="hoverPath(evt)" onmouseout="recoverPath(evt)" fill="rgb(240,220,203)" d="M  82,53l 10,0 1,-1 14,0 -11,-1 0,-2 1,-1 -8,0 -1,1 -11,0 -1,1 -2,0 -1,-1 0,-2 -17,0 -1,1 -3,0 -1,-1 0,-1 -22,0 -1,1 -17,0 -1,1 -3,0 -1,-1 -2,0 -1,-1 -3,0 0,17 1,0 0,-1 1,-1 0,-1 1,-1 0,-1 1,-1 0,-1 1,-1 0,-1 1,-1 1,0 0,-1 1,-1 8,0 1,1 1,0 1,1 0,2 -1,1 -1,1 0,3 -1,1 -1,0 0,1 -1,1 0,6 1,-6 2,-2 1,-1 0,0 1,-1 1,0 1,-1 46,0 1,1 4,0 -1,-1 0,-3 1,-1 8,0 1,1 0,-1 1,-1 22,-5 2,0 -1,-1Z"/>
<path onmouseover="hoverPath(evt)" onmouseout="recoverPath(evt)" fill="rgb(173,199,236)" d="M  130,157l 4,4 1,1 1,1 1,-1 0,0 -1,-1 0,0 -1,-1 -1,-1 0,-2 -2,0 -1,-1 -1,1 1,-3 -1,-1 -1,-1 0,-1 -1,-1 0,-1 -1,-1 -1,-1 -1,0 -1,-1 -1,-1 0,-1 -1,-1 -1,-1 0,-2 -1,-1 0,-1 -1,-1 0,-1 -1,-1 0,-1 -1,-1 0,-2 -1,-1 0,-2 -1,-1 0,-1 -1,-1 0,-3 1,-1 1,-1 -2,1 -1,0 -1,-1 0,-1 -1,-1 0,-1 -1,-1 0,-1 -1,0 -1,1 0,2 1,1 0,1 1,1 0,1 1,1 0,1 1,1 0,1 1,1 0,2 1,1 0,1 1,1 0,2 1,1 0,1 1,1 0,1 1,1 0,1 1,1 0,1 1,1 0,1 1,1 0,1 1,1 1,1 0,1 1,1 1,1 1,1 1,1 1,1 1,1 2,-1 -1,3Z"/>
<path onmouseover="hoverPath(evt)" onmouseout="recoverPath(evt)" fill="rgb(239,218,190)" d="M  229,47l 5,0 1,-1 5,0 1,-1 5,0 1,-1 5,0 1,-1 2,0 0,-8 -2,0 -1,1 -7,0 0,4 -1,1 -1,0 -1,1 -2,0 -1,-1 0,-2 -2,0 -1,-1 -2,0 -1,1 -5,0 -1,1 -6,0 -1,1 -6,0 -1,1 -6,0 -1,1 -8,0 -1,1 -8,0 0,1 8,0 1,1 0,2 -1,1 -1,0 2,1 5,0 1,1 4,0 1,-1 6,0 1,-1 5,0 1,-1 6,0 1,-1Z"/>
<path onmouseover="hoverPath(evt)" onmouseout="recoverPath(evt)" fill="rgb(248,237,140)" d="M  16,54l -1,-1 -6,0 0,1 -1,1 -1,0 0,1 -1,1 0,1 -1,1 0,1 -1,1 0,1 -1,1 0,1 -1,1 -2,0 0,24 1,0 0,-1 1,-1 0,-2 1,-1 0,-1 1,-1 0,-2 1,-1 0,-1 1,-1 0,-2 1,-1 0,-1 1,-1 0,-1 1,-1 0,-1 -1,-1 0,-2 1,-1 0,-1 1,-1 2,0 0,-1 1,-1 0,-1 1,-1 1,0 0,-3 1,-1Z"/>
<path onmouseover="hoverPath(evt)" onmouseout="recoverPath(evt)" fill="rgb(241,240,229)" d="M  25,236l -1,0 0,4 -1,1 -2,0 -1,-1 0,-1 -1,-1 0,-1 -1,-1 -4,0 -1,1 -8,0 -1,1 -4,0 0,17 35,0 0,-1 -1,-1 0,-5 1,-1 0,-5 1,-1 1,0 1,-1 2,0 1,1 5,0 1,-1 4,0 1,-1 3,0 1,-1 3,0 1,-1 0,-1 -1,-1 0,-2 -11,0 -1,1 -10,0 -1,1 -9,0 -1,1 -1,0 3,17 -2,0 -1,-1 0,-2 1,-1 2,0 1,1 0,2 -1,1 -3,-17Z"/>
<path onmouseover="hoverPath(evt)" onmouseout="recoverPath(evt)" fill="rgb(250,250,247)" d="M  58,254l 0,1 8,0 0,-2 1,-1 3,0 1,-1 1,0 1,-1 1,-1 1,-1 1,-1 1,-1 2,0 1,-1 1,-1 0,-2 1,-1 1,-1 1,0 0,-1 1,-1 3,-3 1,-1 1,-1 1,-1 1,-1 1,-1 1,-1 1,-1 1,-1 3,0 1,-1 1,-1 1,-1 1,-1 1,-1 1,-1 1,-1 1,-1 1,-1 1,-1 1,-1 2,-2 1,-1 1,-1 1,-1 1,-1 1,-1 1,-1 1,-1 1,-1 1,-1 1,-1 1,-1 1,-1 1,-1 1,-1 0,-2 1,-1 1,-1 1,-1 1,0 1,-1 1,-1 1,-1 1,-1 1,-1 1,-1 1,-1 1,-1 1,-1 2,-2 1,-1 1,-1 1,-1 1,-1 1,-1 1,-1 1,-1 1,-1 1,-1 2,0 0,-1 1,-1 1,0 0,-1 1,-1 1,-1 3,-3 1,-1 1,-1 1,-1 0,-1 1,-1 1,-1 1,-1 0,-1 1,-1 2,-2 1,-1 1,-1 1,-1 1,-1 1,-1 3,-3 1,-1 1,-1 1,-1 1,0 1,-1 2,-2 1,-1 1,-1 1,-1 1,-1 1,-1 2,-2 1,-1 1,-1 1,-1 1,0 0,-1 2,-2 1,-1 1,-1 1,-1 1,-1 1,-1 1,-1 1,-1 1,-1 1,-1 1,-1 1,-1 1,-1 1,-1 2,-2 2,0 1,1 1,0 -1,-1 0,-3 1,-1 1,-1 1,-1 1,-1 1,-1 1,-1 1,-1 1,-1 1,-1 1,0 1,-1 1,-1 1,-1 1,-1 1,-1 1,-1 1,-1 1,-1 1,0 0,-1 1,-1 1,-1 1,-1 2,-2 1,-1 3,-3 1,-1 1,0 0,-1 1,-1 1,-1 1,-1 1,-1 1,-1 1,-1 2,-2 1,-1 2,0 0,-2 -1,0 -1,1 0,0 -1,1 -1,0 -1,1 -1,1 -1,1 -2,0 -1,1 -1,1 -1,1 -1,1 -1,1 0,2 -1,1 -1,1 -1,1 -1,1 -1,1 -1,1 -1,1 -1,0 0,1 -1,1 -2,2 -1,1 -1,1 -1,1 -1,1 -1,1 -1,1 -1,1 -1,1 -1,1 -1,1 -1,1 -1,1 -1,1 -1,1 -1,0 -1,1 -2,0 -1,-1 -1,-1 0,-2 -1,-1 0,-1 -1,-1 0,-2 -1,-1 0,-1 -1,-1 0,-2 -1,-1 0,-2 -1,-1 0,-2 1,-1 -2,0 -1,-1 0,-2 -1,-1 0,-2 -1,-1 0,-1 -1,-1 0,-3 1,-1 -2,0 -1,-1 0,-2 -1,-1 0,-2 -1,-1 0,-2 -1,-1 0,-1 -1,-1 0,-2 -1,-1 0,-1 -1,-1 0,-2 -1,-1 -1,0 0,1 1,1 0,1 1,1 0,3 -1,1 2,0 1,1 0,2 1,1 0,2 1,1 0,2 1,1 0,1 1,1 0,2 1,1 0,3 -1,1 2,0 1,1 0,3 -1,1 2,0 1,1 0,3 -1,1 2,0 1,1 0,2 1,1 0,2 1,1 0,1 1,1 0,2 1,1 0,1 1,1 0,2 1,1 0,4 -1,1 -1,1 -3,3 -1,1 -3,3 -1,1 -3,3 -1,1 -1,0 0,1 -1,1 -3,3 -1,1 -3,3 -1,1 -3,3 -1,1 -6,6 -1,1 -6,6 -1,1 -1,0 -1,1 -1,1 -2,0 -1,-1 0,-1 -1,-1 0,-2 -1,-1 0,-2 1,-1 -2,0 -1,-1 0,-1 -1,-1 0,-3 1,-1 -2,0 -1,-1 0,-1 -1,-1 0,-2 -1,-1 0,-1 -1,-1 0,-1 -1,-1 0,-1 -1,-1 0,-1 -1,-1 0,-2 1,-1 -1,-1 0,-1 -1,-1 0,-1 -2,0 -1,-1 0,-1 -1,-1 0,-1 -1,-1 0,-1 -1,-1 0,-1 -1,-1 0,-1 -1,-1 0,-1 -1,-1 0,-3 1,-1 -2,0 -1,-1 0,-2 1,-1 -2,0 -1,-1 0,-1 -1,-1 0,-1 -1,-1 0,-1 -1,-1 0,-1 -1,-1 0,-1 -1,-1 0,-1 -1,-1 0,-1 -1,-1 0,-2 1,-1 -2,0 -1,-1 0,-2 1,-1 -1,-1 0,-1 -1,-1 0,-1 -1,-1 0,-1 -1,-1 0,-1 -2,0 -1,-1 0,-2 1,-1 -1,-1 0,-1 -2,0 -1,-1 0,-2 -1,-1 -19,0 0,1 14,0 1,1 0,1 1,1 0,2 -1,1 1,0 1,1 1,0 1,1 0,1 1,1 0,1 1,1 1,1 0,1 1,1 0,4 -1,1 3,0 1,1 0,4 -1,1 -1,1 4,0 1,1 1,1 0,1 1,1 0,1 1,1 0,2 -1,1 -1,1 -8,0 -1,1 -1,0 -1,1 -1,1 0,1 -1,1 -2,0 0,2 1,0 1,1 1,1 0,3 -1,1 -1,0 -1,1 -4,0 -1,1 -2,0 -1,1 -1,0 -1,1 -2,0 -1,1 -2,0 -1,1 -4,0 -1,1 -5,0 -1,-1 0,-2 -1,-1 0,-1 1,5 -2,2 2,0 1,1 1,1 1,1 1,1 0,1 1,1 0,2 1,1 0,1 1,1 0,1 1,1 0,1 1,1 0,1 1,1 1,1 0,1 1,1 0,1 1,1 0,1 1,1 0,1 1,1 0,1 1,1 0,1 1,1 0,1 1,1 0,1 1,1 0,1 1,1 0,2 1,1 0,1 1,1 0,1 1,1 0,2 -1,1 2,0 1,1 0,1 1,1 0,1 1,1 0,1 1,1 0,1 1,1 0,1 1,1 0,1 1,1 0,1 1,1 0,2 -1,1 2,0 1,1 0,1 1,1 0,1 1,1 0,1 1,1 1,1 0,1 1,1 0,1 1,1 0,2 -1,1 -1,1 -1,1 -3,3 -1,1 -6,6 -1,1 -3,3 -1,1 -3,3 -1,1 -1,1 -1,0 -1,1 -3,3 -1,1 -1,1 -4,0 -1,1 -12,0 -1,1 -10,0 -1,1 -5,0 -1,-1 -1,-1 -1,-1 0,2 -1,1 -1,1 -10,0 -1,1 -10,0 -1,1 -12,0 -1,1 -8,0 -1,1 -12,0 0,2 3,0 1,-1 8,0 1,-1 6,0 1,1 1,1 0,1 1,1 0,-3 1,-1 2,0 1,-1 9,0 1,-1 10,0 1,-1 13,0 1,1 0,2 1,-3 0,0 1,-1 5,0 1,-1 9,0 1,-1 10,0 1,1 0,2 -1,1 -1,1 -3,3 -1,1 -1,0 0,1 -1,1 -1,1 -3,3 -1,1 -1,1 -1,1 -1,0 0,1 -1,1 -1,1 -1,1 -4,0 -1,-1 0,2 -1,1 -1,0 -1,1 -4,0 -1,1 67,-62 -1,-1 -1,-1 0,-1 -1,-1 0,0 -1,-1 0,-1 -1,-1 0,-1 -1,-1 0,-3 1,-1 -1,-1 0,-1 -1,-1 0,-1 -1,-1 0,-1 -1,-1 0,-1 -1,-1 0,-1 -1,-1 0,-1 -1,-1 0,-1 -1,-1 0,-1 -1,-1 0,-1 -1,-1 0,-1 -1,-1 0,-1 -1,-1 0,-1 -1,-1 0,-1 -2,0 -1,-1 0,-1 -1,-1 0,-1 -1,-1 0,-1 -1,-1 0,-1 -1,-1 0,-1 -1,-1 0,-1 -1,-1 0,-2 1,-1 -1,-1 0,-1 -1,-1 0,-1 -1,-1 0,-1 -1,-1 0,-1 -1,-1 0,-1 -1,-1 0,-1 -2,0 -1,-1 0,-1 -1,-1 0,-3 1,-1 2,0 1,-1 3,0 1,-1 2,0 1,-1 3,0 1,1 2,0 0,-1 1,-1 1,-1 3,0 1,1 0,1 1,1 0,1 1,1 0,1 1,-1 1,0 1,-1 0,-4 1,-1 3,0 1,-1 2,0 1,-1 3,0 0,-2 1,-1 3,0 1,1 4,0 1,1 0,3 2,0 1,1 0,1 1,1 0,1 1,1 0,1 1,1 0,1 1,1 0,1 1,1 0,1 1,1 0,2 1,1 0,1 1,1 0,1 1,1 0,3 1,1 0,2 1,1 0,1 1,1 0,2 1,1 0,1 1,1 0,1 1,1 0,2 1,1 0,2 1,1 0,4 -1,1 0,1 -1,1 -1,1 -1,0 -1,1 -1,1 -1,1 -6,0 -1,-1 0,-2 -1,-1 -1,-1 -1,-1 -1,-1 -1,-1 -1,-1 -1,1 -1,0 0,1 1,1 0,0 1,1 1,1 0,2 -1,1 0,1 1,1 1,1 1,1 1,0 1,1 1,1 2,0 1,1 0,2 -3,3 -1,1 -7,7 -1,1 -6,6 -1,1 -3,0 -67,62 53,-152 0,-1 -1,0 -1,-1 0,1 -1,-2 0,-1 -1,-1 0,-4 1,-1 0,0 1,-1 1,0 -2,-1 -1,0 0,2 1,-1 0,0 3,11 -53,152Z"/>
<path onmouseover="hoverPath(evt)" onmouseout="recoverPath(evt)" fill="rgb(244,243,236)" d="M  73,253l -1,0 -1,1 -3,0 0,1 97,0 0,-2 2,-2 1,0 1,-1 1,-1 1,0 1,-1 1,-1 1,0 2,-2 0,-1 1,-1 1,-1 0,-3 1,-1 0,-4 -1,-1 0,-5 -1,-1 0,-2 -1,-1 0,-2 -1,-1 0,-1 -1,-1 0,-2 -1,-1 0,-1 -1,-1 0,-3 -1,-1 0,-2 -1,-1 0,-3 -1,-1 0,-3 -1,-1 0,-4 -1,-1 0,-3 -1,-1 0,-2 -1,-1 -1,-1 -1,-1 -1,0 -1,-1 -1,-1 -1,0 -1,-1 -1,-1 -1,0 -1,-1 -1,-1 -1,0 -1,-1 0,-1 -1,0 -1,1 0,0 -1,1 -1,1 -1,1 -1,1 -1,1 -1,1 -1,1 -1,1 -1,1 -1,1 -1,1 -1,1 -1,1 -1,1 -1,1 -1,1 -1,1 -1,1 -1,1 -1,0 -2,2 0,2 -1,1 -1,1 -1,1 -1,1 -1,1 -1,1 -1,1 -1,1 -1,1 -1,1 -1,1 -1,1 -1,1 -1,1 -1,1 -1,1 -1,1 -1,1 -1,1 -1,1 -1,1 -1,1 -1,1 -1,1 -1,1 -1,1 -1,1 -1,1 -3,0 -1,1 -1,1 -4,4 -1,1 -1,1 -1,1 -1,1 -1,1 0,1 -1,1 -1,0 -1,1 0,2 -1,1 -1,1 -1,1 -2,0 -1,1 -1,1 -1,1 -2,2Z"/>
<path onmouseover="hoverPath(evt)" onmouseout="recoverPath(evt)" fill="rgb(171,198,238)" d="M  167,254l 0,1 26,0 0,-2 1,-1 0,-1 1,-1 0,-2 1,-1 0,-4 1,-1 0,-10 -1,-1 0,-4 -1,-1 0,-2 -1,-1 0,-1 -1,-1 0,-1 -1,-1 0,-1 -1,-1 0,-2 -1,-1 0,-1 -1,-1 0,-1 -1,-1 0,-3 -1,-1 0,-4 -1,-1 0,-9 1,-1 0,-1 1,-1 0,-1 1,-1 0,-1 1,-1 1,-1 1,-1 1,-1 1,-1 1,-1 1,-1 1,-1 1,-1 1,0 1,-1 1,-1 1,-1 1,0 1,-1 1,0 1,-1 1,0 1,-1 1,0 1,-1 1,0 1,-1 1,0 1,-1 2,0 1,-1 2,0 1,-1 2,0 1,-1 1,0 1,-1 2,0 1,-1 2,0 1,-1 1,0 1,-1 2,0 1,-1 1,0 1,-1 1,0 1,-1 2,0 1,-1 1,0 1,-1 1,0 1,-1 1,0 1,-1 1,0 1,-1 1,0 1,-1 2,0 0,-19 -1,0 -1,1 -2,2 -1,0 -1,1 -1,0 -1,1 -1,0 -1,1 -1,1 -1,0 -1,1 -1,0 -1,1 -1,1 -1,0 -1,1 -2,0 -1,1 -1,1 -1,0 -1,1 -1,0 -1,1 -1,0 -1,1 -2,0 -1,1 -1,0 -1,1 -1,0 -1,1 -1,0 -1,1 -1,0 -1,1 -1,0 -1,1 -2,0 -1,1 -2,0 -1,1 -1,0 -1,1 -2,0 -1,1 -2,0 -1,1 -1,0 -1,1 -2,0 -1,1 -1,0 -1,1 -1,0 -1,1 -1,0 -1,1 -1,0 -1,1 -1,1 -1,0 -3,3 -1,1 -1,0 -1,1 -1,1 -1,1 0,1 -1,1 -1,1 -1,1 0,1 -1,1 -1,1 -1,1 -5,0 -1,-1 -1,-1 -1,0 -1,-1 -1,-1 -1,0 -1,-1 -1,0 -1,-1 -1,-1 -2,0 0,2 1,0 1,1 1,1 1,0 1,1 1,1 1,0 1,1 1,1 1,0 1,1 1,1 1,1 1,1 0,2 1,1 0,3 1,1 0,4 1,1 0,3 1,1 0,3 1,1 0,2 1,1 0,3 1,1 0,1 1,1 0,2 1,1 0,1 1,1 0,2 1,1 0,2 1,1 0,5 1,1 0,6 -1,1 0,3 -1,1 -1,1 0,1 -3,3 -1,0 -1,1 -1,1 -1,0 -1,1 -1,1 -1,0 -1,1Z"/>
<path onmouseover="hoverPath(evt)" onmouseout="recoverPath(evt)" fill="rgb(243,242,234)" d="M  233,5l -1,0 0,1 1,1 0,2 1,1 0,1 1,1 0,1 1,1 0,1 1,1 0,2 2,0 1,1 0,2 -1,1 0,1 1,1 0,1 2,0 1,1 0,2 -1,1 1,1 0,2 1,1 0,1 7,0 1,-1 3,0 0,-33 -17,0 0,2 -1,1 -1,0 -1,1 -1,0 -1,1Z"/>
<path onmouseover="hoverPath(evt)" onmouseout="recoverPath(evt)" fill="rgb(244,243,235)" d="M  244,255l 11,0 0,-101 -1,0 -1,1 -1,0 -1,1 -1,0 -1,1 -1,0 -1,1 -1,0 -1,1 -1,0 -1,1 -2,0 -1,1 -1,0 -1,1 -1,0 -1,1 -2,0 -1,1 -1,0 -1,1 -2,0 -1,1 -2,0 -1,1 -1,0 -1,1 -2,0 -1,1 -2,0 -1,1 -2,0 -1,1 -1,0 -1,1 -1,0 -1,1 -1,0 -1,1 -1,0 -1,1 -1,0 -1,1 -1,0 -1,1 -1,1 -1,1 -1,0 -2,2 -1,1 -5,5 0,1 -1,1 0,1 -1,1 0,1 -1,1 0,7 1,1 0,4 1,1 0,3 1,1 0,1 1,1 0,1 1,1 0,2 1,1 0,1 1,1 0,1 1,1 0,1 1,1 0,2 1,1 0,4 1,1 0,12 -1,1 0,4 -1,1 0,2 -1,1 0,1 -1,1 0,1Z"/>
<path onmouseover="hoverPath(evt)" onmouseout="recoverPath(evt)" fill="rgb(242,241,233)" d="M  0,7l 0,37 3,0 1,-1 9,0 1,-1 1,-1 1,-1 1,0 0,-2 1,-1 1,-1 1,-1 1,-1 1,-1 1,-1 1,-1 1,-1 2,0 0,-2 1,-1 1,-1 3,-3 1,0 1,-1 1,-1 1,-1 1,-1 0,-1 1,-1 1,-1 2,0 1,-1 1,0 1,-1 1,-1 1,-1 2,-2 1,-1 1,-1 1,-1 0,-2 2,-2 1,-1 1,-1 0,-1 -55,0Z"/>
<path onmouseover="hoverPath(evt)" onmouseout="recoverPath(evt)" fill="rgb(172,198,236)" d="M  61,7l 0,4 1,1 0,3 1,1 0,3 1,1 0,2 1,1 0,2 1,1 0,1 1,1 0,2 1,1 0,1 1,1 0,1 1,1 0,1 1,1 0,1 1,1 0,1 1,1 0,1 1,1 0,2 1,1 0,2 1,-1 1,0 0,-2 -1,-1 0,-1 -1,-1 0,-1 -1,-1 0,-1 -1,-1 0,-2 -1,-1 0,-1 -1,-1 0,-1 -1,-1 0,-1 -1,-1 0,-1 -1,-1 0,-1 -1,-1 0,-3 -1,-1 0,-3 -1,-1 0,-3 -1,-1 0,-2 -1,-1 0,-4 -1,0 -1,1Z"/>
<path onmouseover="hoverPath(evt)" onmouseout="recoverPath(evt)" fill="rgb(238,235,223)" d="M  107,103l 0,0 1,1 0,2 1,1 0,2 2,0 1,-1 1,0 0,-1 -1,-1 -1,0 -1,-1 0,-1 -1,-1 -2,0 -1,-2 1,0 -1,-1 -1,-1 0,-10 1,-1 3,0 1,1 1,0 1,1 0,2 -1,1 -1,0 -1,1 0,2 1,1 0,1 1,1 1,0 1,1 0,-1 1,-1 0,0 1,-1 1,-1 1,0 1,-1 8,0 1,-1 -1,-1 0,-1 -1,-1 0,-1 -1,-1 -5,0 -1,-1 0,-2 1,-1 1,0 1,-1 0,-2 -5,0 -1,-1 0,-2 1,-1 2,0 0,-2 -1,-1 0,-1 -1,-1 -1,-1 0,-1 -1,-1 0,-1 -1,0 -1,-1 -1,0 -1,-1 0,-2 1,-1 -1,-1 0,-1 -1,0 -1,-1 -8,0 -1,1 -3,0 -1,-1 0,4 2,0 1,1 0,2 -1,1 0,1 1,1 0,1 1,1 0,1 1,1 0,2 -1,1 -1,1 0,3 1,1 0,3 1,1 0,2 1,1 0,1 1,1 0,2 1,1 1,1 0,2 2,3 1,2Z"/>
<path onmouseover="hoverPath(evt)" onmouseout="recoverPath(evt)" fill="rgb(242,231,142)" d="M  175,55l 5,0 1,-1 4,0 1,1 1,1 0,-2 1,-1 3,0 1,1 1,-1 3,0 1,-1 5,0 -6,-1 -1,0 -1,-1 -2,0 -1,1 0,0 -1,1 -4,0 -1,-1 -4,0 -1,1 -1,1 -4,0 -1,-1 -3,0 -1,1 -1,1 -4,0 -1,-1 -3,0 -1,1 -1,0 0,2 12,0 1,-1Z"/>
<path onmouseover="hoverPath(evt)" onmouseout="recoverPath(evt)" fill="rgb(239,211,201)" d="M  175,46l -4,0 -1,1 -11,0 -1,1 -14,0 0,1 -1,1 -2,0 -1,-1 -15,0 -1,1 -6,0 -1,1 -4,0 -1,1 -1,1 4,0 1,1 13,0 1,-1 14,0 1,1 1,1 0,2 11,0 0,-4 1,-1 1,0 1,-1 5,0 1,1 2,0 1,-1 0,0 1,-1 5,0 1,1 2,0 1,-1 1,-1 3,0 -3,-1 -2,0 -1,-1 0,-1Z"/>
<path onmouseover="hoverPath(evt)" onmouseout="recoverPath(evt)" fill="rgb(243,242,233)" d="M  177,150l -10,10 0,1 -2,2 -1,1 0,1 -1,1 -1,1 -1,1 -1,1 -1,1 -1,1 -1,1 -1,1 1,0 1,1 1,1 1,0 1,1 1,0 1,1 1,1 1,0 1,1 1,1 3,0 1,-1 0,0 1,-1 0,-1 1,-1 2,-2 0,-1 1,-1 1,-1 1,-1 1,-1 1,0 1,-1 1,-1 1,-1 1,-1 1,0 1,-1 1,-1 1,0 1,-1 1,0 1,-1 1,0 1,-1 1,0 1,-1 2,0 1,-1 1,0 1,-1 2,0 1,-1 2,0 1,-1 1,0 1,-1 2,0 1,-1 2,0 1,-1 1,0 1,-1 1,0 1,-1 1,0 1,-1 1,0 1,-1 1,0 1,-1 2,0 1,-1 1,0 1,-1 1,0 1,-1 1,0 1,-1 1,-1 2,0 1,-1 1,0 1,-1 1,-1 1,0 1,-1 1,0 1,-1 1,-1 1,0 1,-1 1,0 -1,-1 0,-1 -1,-1 0,-2 1,-1 2,0 1,1 0,-2 -1,-1 0,-1 -1,0 -1,-1 -1,1 -2,0 -1,-1 -1,-1 0,-2 -1,-1 0,-1 -2,0 -1,-1 -1,-1 -1,0 -1,-1 -1,-1 -1,1 -3,0 -1,-1 -1,-1 0,-2 1,-1 0,-1 -4,0 0,2 -1,1 -1,1 -1,0 -1,1 -4,0 -1,1 -3,0 -1,-1 -1,1 0,0 -1,1 -1,1 -1,1 -1,1 -1,1 -1,1 -1,1 -1,1 -1,1 -1,1 -1,1 -1,1 -1,1 -1,1 -1,1 0,1 -1,1 -1,0 -1,1 -1,1 -1,1 -1,1 -1,1 -1,1 -1,1 -1,1 -1,1 -1,1 -1,1 -1,1 -1,1 -1,0 -2,2 -1,1 68,-17 0,2 -1,1 -1,1 -1,0 -1,1 -2,0 -1,-1 0,-2 1,-1 1,0 1,-1 1,-1 2,0 1,1 -68,17Z"/>
<path onmouseover="hoverPath(evt)" onmouseout="recoverPath(evt)" fill="rgb(244,243,235)" d="M  195,55l -1,0 -1,1 0,1 1,1 0,1 1,1 0,2 1,1 0,1 1,1 0,2 1,1 0,2 1,1 0,2 2,0 1,1 0,2 -1,1 0,1 1,1 0,1 1,1 0,2 1,1 0,2 2,0 1,1 0,2 -1,1 1,1 0,2 1,1 0,2 1,1 0,1 1,1 0,2 1,1 0,1 1,1 0,2 1,1 1,-1 1,0 1,-1 6,-6 1,-1 1,-1 1,-1 1,-1 1,-1 1,-1 1,-1 1,-1 1,-1 0,-1 1,-1 1,0 1,-1 1,-1 1,-1 1,-1 1,-1 1,-1 0,-2 1,-1 1,-1 1,-1 1,-1 1,-1 1,-1 2,0 1,-1 1,-1 1,-1 1,0 1,-1 1,-1 2,0 0,-24 -1,0 -1,1 -5,0 -1,1 -5,0 -1,1 -5,0 -1,1 -5,0 -1,1 -6,0 -1,1 -5,0 -1,1 -6,0 -1,1 -5,0 -1,1 -5,0 -1,1Z"/>
</svg>