<svg width="256" height="256" xmlns="http://www.w3.org/2000/svg"><script> 
var tempColor;
function hoverPath(evt){
obj = evt.target;
tempColor = obj.getAttribute("fill");
obj.setAttribute("fill","red");
//alert(tempColor);
//obj.setAttribute("stroke","red");}
function recoverPath(evt){
obj = evt.target;
obj.setAttribute("fill", tempColor);
//obj.setAttribute("stroke", tempColor);
}</script><path onmouseover="hoverPath(evt)" onmouseout="recoverPath(evt)" fill="rgb(184,144,237)" d="M  0,220l 0,11 2,0 1,-1 15,0 1,1 1,0 1,-1 4,0 1,1 8,0 1,1 1,-1 3,0 1,1 2,0 1,1 0,3 1,1 0,3 1,1 0,4 1,1 0,4 1,1 0,4 2,0 0,-1 -1,-1 0,-4 -1,-1 0,-3 -1,-1 0,-3 -1,-1 0,-4 1,-1 0,-1 1,-1 1,0 1,-1 3,0 1,1 7,0 1,1 1,-1 3,0 1,1 7,0 1,1 1,-1 4,0 1,1 3,0 1,-1 2,0 1,1 5,0 1,1 3,0 1,-1 2,0 1,1 1,1 1,-1 3,0 1,1 7,0 1,1 1,-1 3,0 1,1 8,0 1,1 5,0 1,-1 2,0 1,1 0,1 3,0 1,1 5,0 1,-1 2,0 1,1 0,1 2,0 1,-1 3,0 1,1 0,1 2,0 1,1 5,0 1,-1 2,0 1,1 0,4 -2,2 3,-3 1,0 1,-1 4,0 1,1 0,2 1,-1 0,0 1,-1 5,0 1,-1 3,0 1,1 0,1 2,0 1,1 5,0 1,-1 2,0 1,1 0,1 2,0 1,-1 3,0 1,1 0,1 2,0 1,1 1,0 0,-1 1,-1 3,0 1,1 4,0 1,1 0,3 33,0 0,-10 -2,0 -1,-1 -1,0 -1,1 -1,0 -1,1 -2,0 -1,-1 0,-1 -2,0 -1,-1 -8,0 -1,1 -3,0 -1,-1 0,-1 -4,0 -1,-1 -5,0 -1,1 -3,0 -1,-1 0,-1 -3,0 -1,-1 -5,0 -1,1 -2,0 -1,-1 0,-1 -2,0 -1,1 -2,0 -1,-1 0,-1 -4,0 -1,-1 -4,0 -1,1 -2,0 -1,-1 0,-1 -2,0 -1,1 -3,0 -1,-1 0,-1 -3,0 -1,-1 -4,0 -1,1 -3,0 -1,-1 0,-1 -2,0 -1,-1 -5,0 -1,1 -3,0 -1,-1 0,-1 -2,0 -1,-1 -5,0 -1,1 -2,0 -1,-1 0,-1 -3,0 -1,-1 -5,0 -1,1 -2,0 -1,-1 -1,0 -1,-1 -1,-1 -1,1 -3,0 -1,-1 -7,0 -1,-1 -1,1 -3,0 -1,-1 -3,0 -1,1 -2,0 -1,-1 -1,-1 -1,1 -3,0 -1,-1 -7,0 -1,-1 -1,1 -3,0 -1,-1 -7,0 -1,-1 -1,1 -3,0 -1,-1 -3,0 -1,1 -3,0 -1,-1 -5,0 -1,-1 -6,0 -1,-1 -1,1 -3,0 -1,-1 -4,0 -1,1 -2,0 -1,-1 -1,-1 -1,1 -4,0 -1,-1 -12,0 -1,-1 -1,0 -1,1 -8,0 0,2 38,-2 -38,2Z"/>
<path onmouseover="hoverPath(evt)" onmouseout="recoverPath(evt)" fill="rgb(244,243,235)" d="M  203,124l 0,2 1,1 0,1 1,1 0,1 1,1 0,1 1,1 12,0 1,-1 3,0 1,-1 1,0 1,-1 1,0 1,-1 1,0 1,-1 1,0 1,-1 1,0 1,-1 2,0 1,-1 1,0 1,-1 1,0 1,-1 1,0 1,-1 1,0 1,-1 1,0 1,-1 1,0 1,-1 2,0 1,-1 3,0 0,-15 -3,0 -1,-1 -2,0 -1,1 -1,0 -1,1 -2,0 -1,1 -3,0 -1,1 -1,0 -1,1 -2,0 -1,1 -1,0 -1,1 -2,0 0,2 -1,1 -2,0 -1,-1 -1,0 -1,1 -3,0 -1,1 -1,1 -3,0 -1,1 -2,0 -1,1 -1,0 -1,1 -2,0 -1,1 -1,0 -1,1 -2,0 0,2 -1,1 1,1Z"/>
<path onmouseover="hoverPath(evt)" onmouseout="recoverPath(evt)" fill="rgb(244,243,236)" d="M  210,140l 0,2 1,1 0,1 1,1 0,1 1,1 0,2 1,1 0,1 1,1 0,1 1,1 0,2 1,1 0,1 1,1 0,1 1,1 0,2 1,1 0,1 1,1 0,1 1,1 0,1 1,1 0,1 1,1 0,1 1,1 0,1 1,1 0,1 1,1 0,1 1,1 0,1 1,1 0,1 1,1 0,1 1,1 0,1 1,1 0,1 1,1 0,1 1,1 0,2 1,1 0,1 1,1 0,1 1,1 0,1 1,1 0,1 1,1 0,1 1,1 0,1 1,1 0,1 1,1 0,1 1,1 0,1 1,1 0,1 1,1 1,1 0,1 2,0 1,1 2,0 1,1 0,2 -1,1 -1,1 -2,0 2,1 0,1 1,1 0,1 1,1 1,1 0,1 1,1 0,2 -1,1 2,0 0,-110 -3,0 -1,1 -1,0 -1,1 -1,0 -1,1 -1,0 -1,1 -1,0 -1,1 -1,0 -1,1 -2,0 -1,1 -1,0 -1,1 -1,0 -1,1 -1,0 -1,1 -1,0 -1,1 -1,0 -1,1 -1,1 -1,0 -1,1 -4,0 -1,1 -9,0 -1,1Z"/>
<path onmouseover="hoverPath(evt)" onmouseout="recoverPath(evt)" fill="rgb(243,242,234)" d="M  0,1l 0,13 5,0 1,1 1,1 0,1 1,1 1,1 1,0 1,1 0,3 -1,1 3,0 0,-4 1,-1 2,0 1,-1 3,0 1,-1 2,0 1,-1 2,0 1,-1 3,0 1,-1 3,0 1,-1 2,0 1,-1 3,0 1,-1 2,0 1,-1 3,0 1,-1 1,0 1,-1 3,0 1,-1 1,0 1,-1 1,0 1,-1 2,0 1,-1 1,0 1,-1 1,0 1,-1 2,0 1,-1 2,0 0,-1 -70,0 -1,1Z"/>
<path onmouseover="hoverPath(evt)" onmouseout="recoverPath(evt)" fill="rgb(244,243,235)" d="M  1,233l -1,0 0,22 45,0 0,-3 -1,-1 0,-4 -1,-1 0,-4 -1,-1 0,-3 -1,-1 0,-3 -2,0 -1,-1 -1,0 -1,1 -2,0 -1,-1 -8,0 -1,-1 -2,0 -1,1 -3,0 -1,-1 -13,0 -1,1Z"/>
<path onmouseover="hoverPath(evt)" onmouseout="recoverPath(evt)" fill="rgb(254,254,254)" d="M  2,177l -2,0 0,1 2,0 1,-1 1,0 1,-1 1,0 1,-1 1,0 1,-1 1,0 1,-1 1,0 1,-1 1,0 1,-1 1,0 1,-1 1,0 1,-1 1,-1 2,0 1,-1 5,0 1,1 0,1 1,1 0,3 1,1 0,2 1,1 0,3 1,1 0,4 1,1 0,4 1,1 0,3 1,1 0,4 1,1 0,5 1,1 0,3 1,1 0,5 1,1 0,2 1,0 0,-2 -1,-1 0,-5 -1,-1 0,-5 -1,-1 0,-3 -1,-1 0,-5 -1,-1 0,-4 1,-1 1,-1 4,0 1,-1 5,0 1,-1 6,0 1,-1 5,0 1,-1 6,0 1,-1 5,0 1,-1 2,0 1,-1 7,0 1,-1 6,0 1,-1 2,0 1,-1 1,0 1,-1 3,-3 1,-1 0,-1 -1,0 -1,1 0,0 -1,1 -3,3 -1,0 -1,1 -2,0 -1,1 -6,0 -1,1 -6,0 -1,1 -4,0 -1,1 -4,0 -1,1 -5,0 -1,1 -6,0 -1,1 -5,0 -1,1 -6,0 -1,1 -5,0 -1,-1 -1,-1 0,-3 -1,-1 0,-3 -1,-1 0,-3 -1,-1 0,-3 -1,-1 0,-2 -8,0 -1,1 -1,0 -1,1 -1,0 -1,1 -1,0 -1,1 -1,0 -1,1 -1,0 -1,1 -1,0 -1,1 -1,0 -1,1 -1,1 -1,0 -1,1 -1,0 -1,1Z"/>
<path onmouseover="hoverPath(evt)" onmouseout="recoverPath(evt)" fill="rgb(244,242,235)" d="M  78,0l -5,0 0,2 -1,1 3,0 1,1 2,0 2,2 0,1 1,1 1,1 1,1 0,2 -1,1 1,1 2,0 1,1 0,1 1,1 1,1 0,1 1,1 0,1 1,1 1,1 0,2 -1,1 1,1 2,0 1,1 0,2 -1,1 1,1 2,0 1,1 0,2 -1,1 1,1 2,0 1,1 0,2 -1,1 1,1 2,0 1,1 0,2 -1,1 1,1 2,0 1,1 0,2 -1,1 1,1 2,0 1,1 0,2 -1,1 1,1 0,1 1,1 0,1 1,1 2,0 1,1 0,1 1,1 0,2 -1,1 1,1 0,1 1,1 0,1 1,0 1,1 1,-1 4,0 1,-1 2,0 1,-1 1,0 0,-2 1,-1 1,0 1,-1 3,0 1,1 2,0 1,-1 1,0 0,-2 1,-1 1,0 0,-2 1,-1 -1,-1 0,0 -1,-1 -1,-1 -1,0 -1,-1 -1,-1 -1,-1 -1,0 -1,-1 -1,0 -1,-1 -1,-1 -1,0 -1,-1 -1,0 -1,-1 -1,0 -1,-1 -1,0 -1,-1 -1,-1 -1,-1 -1,-1 0,-1 -1,-1 0,-2 -1,-1 0,-3 -1,-1 0,-2 -1,-1 0,-1 -1,-1 -1,-1 0,-1 -1,-1 -1,-1 -1,-1 -2,-2 -1,-1 -1,-1 0,-2 -1,0 -1,-1 -1,-1 0,-1 -1,-1 -1,-1 0,-1 -1,-1 0,-2 -1,-1 0,-1 -1,-1 0,-1 -1,-1 0,-1 -1,-1 0,-2Z"/>
<path onmouseover="hoverPath(evt)" onmouseout="recoverPath(evt)" fill="rgb(244,243,236)" d="M  103,1l 0,1 1,1 0,2 1,1 0,1 1,1 0,1 1,1 0,1 1,1 0,1 1,1 1,1 0,1 1,1 1,1 1,1 1,1 1,1 1,1 1,1 1,1 0,1 1,1 1,1 0,1 1,1 0,2 1,1 0,2 1,1 0,1 1,1 0,2 1,1 1,1 1,1 1,0 1,1 1,1 1,0 1,1 1,0 1,1 1,1 1,0 1,1 1,0 1,1 1,1 1,1 1,0 3,3 1,1 1,1 1,1 1,1 0,1 2,0 1,1 0,-2 1,-1 1,0 1,-1 3,0 1,-1 1,0 1,-1 3,0 1,-1 1,0 1,-1 1,0 0,-1 -1,-1 0,-2 -1,-1 0,-2 -1,-1 0,-2 -1,-1 0,-2 -1,-1 0,-2 -1,-1 0,-2 -1,-1 0,-2 -1,-1 0,-2 -1,-1 0,-2 -1,-1 0,-2 -1,-1 0,-2 -1,-1 0,-2 -1,-1 0,-2 -1,-1 0,-2 -1,-1 0,-2 -1,-1 0,-2 -1,-1 0,-2 -47,0 -1,1Z"/>
<path onmouseover="hoverPath(evt)" onmouseout="recoverPath(evt)" fill="rgb(254,254,254)" d="M  122,205l 0,0 -1,1 2,0 1,-1 1,-1 1,-1 1,-1 1,0 3,-3 1,0 1,-1 1,-1 1,-1 1,0 1,-1 1,-1 1,-1 2,0 0,-1 1,-1 1,-1 1,0 1,-1 1,-1 1,0 1,-1 1,-1 1,0 1,-1 1,0 1,-1 1,0 1,-1 3,0 1,-1 3,0 1,-1 2,0 1,-1 1,0 1,-1 1,0 1,-1 1,0 1,-1 2,0 1,-1 1,0 1,-1 0,-1 1,-1 1,-1 1,-1 2,0 1,-1 4,0 1,-1 3,0 1,-1 5,0 1,-1 5,0 1,-1 4,0 1,-1 2,0 -1,-1 -2,0 -1,1 -4,0 -1,1 -5,0 -1,1 -4,0 -1,1 -4,0 -1,1 -3,0 -1,1 -3,0 -1,1 -1,1 0,1 -1,1 -1,1 -1,0 -1,1 -1,0 -1,1 -1,0 -1,1 -1,0 -1,1 -2,0 -1,1 -1,0 -1,1 -3,0 -1,1 -4,0 -1,1 -1,0 -1,1 -1,1 -1,0 -1,1 -2,0 0,1 -1,1 -1,1 -1,0 -1,1 -1,1 -1,0 -1,1 -1,1 -1,1 -1,0 -1,1 -1,1 -1,1 -1,0 -1,1 -1,1 -1,1 -2,0 0,1 -1,1 -1,1 -1,0 -1,1 -1,1 -1,2 -1,-1Z"/>
<path onmouseover="hoverPath(evt)" onmouseout="recoverPath(evt)" fill="rgb(246,234,138)" d="M  155,0l -2,0 0,1 1,1 0,2 1,1 0,2 1,1 0,2 1,1 0,2 1,1 0,2 1,1 0,2 1,1 0,2 1,1 0,2 1,1 0,2 1,1 0,2 1,1 0,2 1,1 0,2 1,1 0,2 1,1 0,2 1,1 0,2 1,1 0,2 1,1 0,3 -1,1 -1,0 0,1 1,1 2,0 1,1 0,1 1,1 0,3 1,1 0,2 1,1 0,2 1,1 0,2 1,1 0,2 1,1 0,2 1,1 0,2 1,1 0,2 1,1 0,2 1,1 0,2 1,1 0,2 1,1 0,2 1,1 0,2 1,1 0,1 1,1 0,2 -1,1 1,1 2,0 1,1 0,3 1,1 0,2 1,1 0,2 1,1 0,2 1,1 0,1 1,1 0,2 -1,1 1,1 0,2 1,1 0,1 1,1 0,2 2,0 1,1 0,2 1,1 1,1 0,2 -1,1 1,1 0,2 1,1 0,1 1,1 0,1 1,1 0,2 1,1 0,1 1,1 0,1 1,1 0,2 1,1 0,1 1,1 0,2 1,0 1,1 1,1 0,2 -1,1 -2,0 3,1 0,0 1,1 0,1 1,1 0,1 1,1 0,2 1,1 0,1 1,1 0,1 1,1 0,1 1,1 1,1 0,1 1,1 0,1 1,1 0,1 1,1 0,1 1,1 0,1 1,1 0,2 1,1 0,1 1,1 0,1 1,1 0,1 1,1 0,2 1,1 0,2 -1,1 2,-1 1,0 1,1 0,4 1,1 1,1 0,1 1,1 0,1 1,1 0,1 1,1 0,1 1,1 0,1 1,1 0,1 1,1 1,1 0,1 1,1 0,1 1,1 0,1 1,1 1,1 0,1 1,1 0,1 1,1 0,1 1,1 0,1 1,1 2,0 1,1 1,0 0,-7 -3,0 -1,-1 0,-2 1,-1 -1,-1 0,-1 -1,-1 -1,-1 0,-1 -1,-1 0,-1 -1,0 -1,-1 0,-2 1,-1 2,0 1,-1 -2,0 -1,-1 -2,0 -1,-1 0,-1 -1,-1 -1,-1 0,-1 -1,-1 0,-1 -1,-1 0,-1 -1,-1 0,-1 -1,-1 0,-1 -1,-1 0,-1 -1,-1 0,-1 -1,-1 0,-1 -1,-1 0,-1 -1,-1 0,-1 -1,-1 0,-2 -1,-1 0,-1 -1,-1 0,-1 -1,-1 0,-1 -1,-1 0,-1 -1,-1 0,-1 -1,-1 0,-1 -1,-1 0,-1 -1,-1 0,-1 -1,-1 0,-1 -1,-1 0,-1 -1,-1 0,-1 -1,-1 0,-1 -1,-1 0,-1 -1,-1 0,-1 -1,-1 0,-2 -1,-1 0,-1 -1,-1 0,-1 -1,-1 0,-2 -1,-1 0,-1 -1,-1 0,-1 -1,-1 0,-2 -1,-1 0,-1 -1,-1 0,-1 -1,-1 0,-2 -1,-1 0,-1 -1,0 -1,-1 -1,-1 0,-2 1,-1 -1,-1 0,-1 -1,-1 0,-1 -1,-1 0,-1 -1,-1 0,-3 -1,-1 0,-2 1,-1 -2,0 -1,-1 0,-1 -1,-1 0,-2 -1,-1 0,-2 -1,-1 0,-2 -1,-1 0,-3 -1,-1 0,-2 -1,-1 0,-2 -1,-1 0,-2 -1,-1 0,-2 -1,-1 0,-2 -1,-1 0,-2 -1,-1 0,-2 -1,-1 0,-2 -1,-1 0,-2 -1,-1 0,-2 -1,-1 0,-2 -1,-1 0,-2 -1,-1 0,-2 -1,-1 0,-2 -1,-1 0,-2 -1,-1 0,-2 -1,-1 0,-2 -1,-1 0,-3 -1,-1 0,-2 -1,-1 0,-2 -1,-1 0,-1 -1,-1 0,-2 -1,-1 0,-2 -1,-1 0,-2 -1,-1 0,-3 -1,-1 0,-2 -1,-1 0,-2 -1,-1 0,-2 -1,-1 0,-2 -1,-1 0,-2 -1,-1 0,-2 -1,-1 0,-2 -1,-1 0,-2 -1,-1 0,-1 -1,-1 0,-2Z"/>
<path onmouseover="hoverPath(evt)" onmouseout="recoverPath(evt)" fill="rgb(244,243,236)" d="M  161,1l 1,1 0,1 1,1 0,2 1,1 0,2 1,1 0,2 1,1 0,2 1,1 0,2 1,1 0,2 1,1 0,2 1,1 0,2 1,1 0,3 1,1 0,2 1,1 0,2 1,1 0,2 1,1 0,1 1,1 0,2 1,1 0,2 1,1 0,3 1,1 0,2 1,1 0,2 1,1 0,2 1,1 0,2 1,1 0,2 1,1 0,2 1,1 0,2 1,1 0,2 1,1 0,2 1,1 0,2 1,1 0,2 1,1 0,2 1,1 0,2 1,1 0,2 1,1 0,2 1,1 0,2 1,1 0,2 1,1 0,3 1,1 0,2 1,1 0,2 1,1 0,2 1,1 0,1 1,0 1,-1 2,0 1,-1 1,0 1,-1 2,0 1,-1 1,0 1,-1 2,0 1,-1 3,0 1,-1 1,-1 3,0 1,-1 3,0 1,1 0,-2 1,-1 2,0 1,-1 1,0 1,-1 2,0 1,-1 1,0 1,-1 3,0 1,-1 2,0 1,-1 1,0 1,-1 4,0 1,1 2,0 0,-101 -93,0 -1,1Z"/>
<path onmouseover="hoverPath(evt)" onmouseout="recoverPath(evt)" fill="rgb(180,203,234)" d="M  165,85l 0,4 1,1 0,2 1,1 4,4 1,1 1,1 1,0 1,1 1,1 1,0 1,1 1,1 1,0 1,1 1,1 1,1 1,1 0,1 1,1 1,1 0,1 1,1 0,1 1,1 0,1 1,1 0,5 -1,1 -1,1 -1,1 -1,1 -1,1 0,1 -1,1 -1,1 0,1 1,1 0,0 1,1 2,0 1,1 2,0 1,1 2,0 1,1 2,0 1,1 2,0 1,1 1,1 -2,-3 0,-1 -2,0 -1,-1 0,-2 -1,-1 0,-1 -1,-1 0,-2 -1,-1 0,-2 1,-1 -1,-1 0,-1 -1,-1 0,-2 -1,-1 0,-2 -1,-1 0,-2 -1,-1 0,-3 -2,0 -1,-1 -1,-1 0,-1 -1,-1 -1,-1 -1,0 -1,-1 -1,-1 -1,0 -1,-1 -1,-1 -1,0 -1,-1 -1,-1 -1,0 -1,-1 -1,-1 -1,-1 0,-1 -1,-1 0,-2 -1,-1 0,-3 -1,-1 -1,1 1,-3 0,-1 -1,-1 0,-1 -1,-1 -1,-1 0,-1 -1,-1 -1,-1 -1,-1 -1,-1 0,-1 -1,-1 -1,-1 -1,-1 -1,-1 -1,-1 -1,-1 -1,-1 -1,-1 -1,1 0,0 1,1 0,0 1,1 1,1 0,1 1,1 1,1 1,1 1,1 1,1 1,1 0,1 1,1 1,1 1,1 1,1 0,1 1,1 0,2 2,-1 -1,3Z"/>
<path onmouseover="hoverPath(evt)" onmouseout="recoverPath(evt)" fill="rgb(251,251,249)" d="M  1,39l 0,-3 -1,0 0,4 1,-1 -1,4 0,7 2,0 1,1 0,4 1,1 0,3 1,1 0,4 1,1 0,3 1,1 0,4 1,1 0,3 1,0 0,-4 -1,-1 0,-4 -1,-1 0,-3 -1,-1 0,-3 -1,-1 0,-4 -1,-1 0,-4 -1,-1 0,-3 -1,-1 0,-1 -2,-1 1,-4Z"/>
<path onmouseover="hoverPath(evt)" onmouseout="recoverPath(evt)" fill="rgb(243,242,234)" d="M  0,183l 0,33 7,0 1,-1 3,0 1,1 12,0 1,1 2,0 1,-1 2,0 1,1 1,1 1,-1 3,0 0,-1 1,-1 0,-4 -1,-1 0,-3 -1,-1 0,-5 -1,-1 0,-4 -1,-1 0,-3 -1,-1 0,-4 -1,-1 0,-4 -1,-1 0,-3 -1,-1 0,-2 -1,-1 0,-3 -1,-1 0,-1 -3,0 -1,1 -2,0 -1,1 -1,1 -1,0 -1,1 -1,0 -1,1 -1,0 -1,1 -1,0 -1,1 -1,0 -1,1 -1,0 -1,1 -1,0 -1,1 -1,0 -1,1 -3,0Z"/>
<path onmouseover="hoverPath(evt)" onmouseout="recoverPath(evt)" fill="rgb(244,243,236)" d="M  38,191l 0,1 1,1 0,5 1,1 0,3 1,1 0,5 1,1 0,5 1,1 0,2 1,0 1,1 6,0 1,1 2,0 1,-1 2,0 1,1 0,1 1,0 1,-1 5,0 1,1 1,0 1,-1 2,0 1,1 7,0 1,1 1,0 1,-1 2,0 1,1 7,0 1,1 1,0 1,-1 2,0 1,1 1,1 1,-1 5,0 1,1 1,0 1,-1 2,0 1,1 7,0 1,1 1,0 1,-1 2,0 1,1 1,1 1,0 1,1 1,-1 7,0 1,1 3,0 1,1 8,0 1,1 2,0 1,1 0,1 1,0 1,-1 7,0 1,1 2,0 1,1 0,1 1,0 1,-1 6,0 1,1 3,0 1,1 0,1 1,0 1,-1 4,0 1,1 6,0 0,-3 1,-1 2,0 1,1 1,-1 0,0 1,-1 1,0 1,-1 0,-2 1,-1 2,0 1,1 1,-1 0,-2 1,-1 1,-1 4,0 1,-1 0,-2 1,-1 1,-1 2,0 1,1 1,-1 1,-1 1,0 1,-1 1,-1 1,0 1,-1 1,0 1,-1 1,0 1,-1 0,-2 1,-1 1,0 1,-1 -1,-1 0,-2 -1,-1 0,-1 -1,-1 0,-1 -1,-1 0,-1 -1,-1 0,-2 -1,-1 0,-1 -1,-1 0,-1 -1,-1 0,-1 -1,-1 0,-1 -1,-1 0,-1 -1,-1 -1,-1 0,-1 -1,-1 0,-1 -1,-1 0,-1 -1,-1 0,-2 -1,-1 0,-1 -1,-1 0,-1 -1,-1 -2,0 -1,-1 -3,0 -1,1 -5,0 -1,1 -5,0 -1,1 -3,0 -1,1 -4,0 -1,1 -2,0 -2,2 0,1 -1,1 -1,1 -1,0 -1,1 -2,0 -1,1 -1,0 -1,1 -1,0 -1,1 -1,0 -1,1 -2,0 -1,1 -3,0 -1,1 -3,0 -1,1 -1,0 -1,1 -1,0 -1,1 -1,0 -1,1 -1,1 -1,0 -1,1 -1,1 -1,0 -1,1 0,1 -1,1 -2,0 -2,2 -1,1 -1,0 -1,1 -2,2 -1,0 -1,1 -1,1 -1,1 -1,0 -1,1 -1,1 -1,1 -1,1 -1,0 -1,1 -3,0 -1,-1 0,-3 1,-1 1,0 1,-1 1,-1 1,-1 1,0 1,-1 0,-1 1,-1 2,0 2,-2 1,-1 1,0 1,-1 1,-1 1,-1 1,0 1,-1 1,-1 1,-1 1,0 1,-1 1,-1 1,0 1,-1 0,-1 1,-1 2,0 1,-1 1,0 1,-1 1,-1 1,0 1,-1 4,0 1,-1 3,0 1,-1 1,0 1,-1 2,0 1,-1 1,0 1,-1 1,0 1,-1 1,0 1,-1 1,0 1,-1 0,-1 2,-2 1,-1 3,0 1,-1 3,0 1,-1 4,0 1,-1 4,0 1,-1 5,0 1,-1 4,0 1,-1 1,0 0,-1 -1,-1 0,-1 -1,-1 0,-2 -1,-1 0,-1 -1,-1 0,-1 -1,-1 0,-2 -1,-1 0,-1 -1,-1 0,-1 -1,-1 0,-2 -1,-1 0,-1 -1,-1 -1,-1 -2,0 -1,-1 -2,0 -1,-1 -2,0 -1,-1 -2,0 -1,-1 -2,0 -1,-1 -1,-1 -1,-1 0,-3 1,-1 1,-1 0,-1 2,-2 1,-1 1,-1 1,-1 0,-3 -1,-1 0,-1 -1,-1 0,-1 -1,-1 0,-1 -1,-1 -1,-1 0,-1 -1,-1 -1,-1 -1,-1 -1,0 -1,-1 -1,-1 -1,0 -1,-1 -1,-1 -1,0 -1,-1 -1,-1 -1,-1 -1,-1 -1,-1 -1,-1 -1,-1 -1,-1 0,-2 -1,-1 0,-5 -1,-1 0,-2 -1,-1 0,-1 -1,-1 -1,-1 -1,-1 -1,-1 0,-1 -1,-1 -1,-1 -1,-1 -1,-1 -1,-1 -1,-1 0,-1 -1,-1 -1,-1 -1,-1 0,-2 1,-1 1,-1 -7,0 0,2 -1,1 -1,0 0,2 -1,1 -1,0 -1,1 -4,0 -1,-1 -1,0 -1,1 -1,0 0,2 -1,1 -1,0 -1,1 -2,0 -1,1 -4,0 -1,1 -2,0 -1,-1 -1,0 -1,-1 0,-1 -1,-1 0,-1 -1,-1 0,-1 -1,-1 0,-1 -1,-1 0,-1 -1,-1 -1,-1 0,-1 -1,-1 0,-1 -1,-1 0,-1 -1,-1 0,-1 -1,-1 -1,-1 0,-1 -1,-1 0,-1 -1,-1 -1,-1 0,-1 -1,-1 0,-1 -1,-1 -1,-1 0,-1 -1,-1 0,-1 -1,-1 -1,-1 0,-1 -1,-1 0,-1 -1,-1 -1,-1 0,-1 -1,-1 0,-1 -1,-1 -1,-1 0,-2 1,-1 -1,-1 -2,0 -1,-1 0,-2 1,-1 -1,-1 -1,-1 0,-1 -2,0 -1,-1 -1,-1 0,-2 1,-1 -3,-3 0,-1 -1,-1 -2,0 -1,-1 -5,0 -1,-1 -1,0 -1,1 -1,0 0,2 -1,1 -2,0 -1,-1 -1,0 -1,1 -1,0 0,2 -1,1 -2,0 -1,-1 -2,0 -1,1 -1,0 -1,1 -3,0 -1,1 -2,0 -1,1 -3,0 -1,1 -2,0 -1,1 -3,0 -1,1 -3,0 -1,1 -2,0 -1,1 -2,0 -1,1 -3,0 -1,1 -2,0 0,4 -1,1 -5,0 -1,-1 0,-2 1,-1 0,-1 -1,0 -1,-1 -2,-2 0,-1 -1,-1 -4,0 0,18 2,0 1,1 0,4 1,1 0,4 1,1 0,3 1,1 0,4 1,1 0,4 1,1 0,3 1,1 0,3 1,1 0,4 1,1 0,6 -1,1 -3,0 -1,-1 0,-3 -1,-1 0,-4 -1,-1 0,-3 -1,-1 0,-4 -1,-1 0,-3 -1,-1 0,-4 -1,0 0,123 1,0 1,-1 1,0 1,-1 1,0 1,-1 1,-1 1,0 1,-1 1,0 1,-1 1,0 1,-1 1,0 1,-1 1,0 1,-1 1,0 1,-1 1,0 1,-1 10,0 1,1 0,2 1,1 0,3 1,1 0,3 1,1 0,3 1,1 0,3 1,1 3,0 1,-1 6,0 1,-1 5,0 1,-1 6,0 1,-1 5,0 1,-1 4,0 1,-1 4,0 1,-1 6,0 1,-1 6,0 1,-1 2,0 1,-1 1,0 1,-1 1,-1 1,-1 1,-1 1,-1 3,0 1,1 0,3 -1,1 -1,1 -2,2 -1,1 -1,1 -1,0 -1,1 -2,0 -1,1 -6,0 -1,1 -7,0 -1,1 -2,0 -1,1 -5,0 -1,1 -6,0 -1,1 -5,0 -1,1 -6,0 -1,1 -5,0 -1,1 -4,0 -1,1Z"/>
<path onmouseover="hoverPath(evt)" onmouseout="recoverPath(evt)" fill="rgb(243,242,234)" d="M  49,235l -1,0 0,1 -1,1 0,2 1,1 0,3 1,1 0,3 1,1 0,4 1,1 0,2 45,0 0,-1 -1,-1 0,-1 -1,-1 0,-1 -1,-1 0,-1 -1,-1 0,-1 -1,-1 0,-3 1,-1 1,-1 2,0 0,-2 -3,0 -1,-1 -5,0 -1,-1 -1,1 -5,0 -1,-1 -2,0 -1,1 -2,0 -1,-1 -7,0 -1,-1 -1,0 -1,1 -2,0 -1,-1 -7,0 -1,-1 -1,0 -1,1Z"/>
<path onmouseover="hoverPath(evt)" onmouseout="recoverPath(evt)" fill="rgb(243,241,235)" d="M  97,239l 0,2 -1,1 -2,0 -1,1 0,1 1,1 0,1 1,1 0,1 1,1 0,1 1,1 0,1 1,1 0,2 122,0 0,-2 -4,0 -1,-1 -1,0 0,1 -1,1 -3,0 -1,-1 -2,0 -1,-1 0,-1 -1,0 -1,1 -4,0 -1,-1 -8,0 -1,-1 -2,0 -1,-1 0,-1 -1,0 -1,1 -5,0 -1,1 -1,1 -2,0 -1,-1 0,-2 -2,0 -1,1 -1,0 -1,1 -1,1 -1,1 -2,0 -1,-1 0,-2 1,-1 1,-1 0,-2 -1,1 -7,0 -1,-1 -2,0 -1,-1 0,-1 -1,0 -1,1 -4,0 -1,-1 -8,0 -1,-1 -3,0 -1,-1 0,-1 -1,1 -7,0 -1,-1 -8,0 -1,-1 -1,0 -1,1 -2,0 -1,-1 -7,0 -1,-1 -1,0 -1,1 -2,0 -1,-1 -1,-1 -1,1Z"/>
<path onmouseover="hoverPath(evt)" onmouseout="recoverPath(evt)" fill="rgb(171,198,238)" d="M  108,19l 1,1 1,1 1,1 1,1 1,1 1,1 1,1 0,1 1,1 1,1 0,1 1,1 0,2 1,1 0,3 1,1 0,2 1,1 0,1 1,1 1,1 1,1 1,0 1,1 1,0 1,1 1,0 1,1 1,0 1,1 1,1 1,0 1,1 1,0 1,1 1,1 1,1 1,0 1,1 1,1 1,1 1,1 0,1 3,0 -1,-1 0,0 -1,-1 -1,-1 -1,-1 -1,-1 -1,-1 -1,0 -1,-1 -1,-1 -1,-1 -1,0 -1,-1 -1,0 -1,-1 -1,-1 -1,0 -1,-1 -1,0 -1,-1 -1,-1 -1,0 -1,-1 -1,-1 -1,-1 -1,-1 0,-2 -1,-1 0,-1 -1,-1 0,-2 -1,-1 0,-2 -1,-1 0,-1 -1,-1 -1,-1 0,-1 -1,-1 -1,-1 -1,-1 -1,-1 -1,-1 -1,-1 -1,-1 -1,1 -1,-3 1,0 -1,-1 0,0 -1,-1 0,-1 -1,-1 0,-1 -1,-1 0,-1 -1,-1 0,-1 -1,-1 0,-2 -1,-1 0,-3 -3,0 0,1 1,1 0,1 1,1 0,1 1,1 0,1 1,1 0,2 1,1 0,1 1,1 1,1 0,1 1,1 1,0 1,3Z"/>
<path onmouseover="hoverPath(evt)" onmouseout="recoverPath(evt)" fill="rgb(244,243,236)" d="M  155,64l 3,3 1,1 1,1 1,1 0,1 1,1 1,1 1,1 1,1 0,1 1,1 1,1 0,1 1,1 0,3 1,1 0,3 1,1 0,2 1,1 0,1 1,1 1,1 1,0 1,1 1,1 1,0 1,1 1,1 1,0 1,1 1,1 1,0 1,1 1,1 -1,-2 -1,-1 0,-2 -1,-1 0,-2 -1,-1 0,-2 -1,-1 0,-2 -1,-1 0,-2 -1,-1 0,-2 -1,-1 0,-2 -1,-1 0,-2 -1,-1 0,-2 -1,-1 0,-2 -1,-1 0,-2 -1,-1 0,-2 -1,-1 0,-3 -1,-1 0,-1 -2,0 -1,-1 -1,-1 0,-1 -1,1 -3,0 -1,1 -1,0 -1,1 -3,0 -1,1 -1,0 0,2 -1,1 1,1 1,1Z"/>
<path onmouseover="hoverPath(evt)" onmouseout="recoverPath(evt)" fill="rgb(244,242,236)" d="M  202,236l 0,0 1,1 8,0 1,1 3,0 1,1 0,1 1,0 1,-1 7,0 1,1 4,0 1,1 0,1 1,0 1,-1 10,0 1,1 2,0 1,1 2,0 -1,-1 0,-1 -1,-1 0,-1 -1,-1 0,-1 -1,-1 0,-1 -1,-1 -1,-1 0,-1 -1,-1 0,-1 -1,-1 0,-1 -1,-1 -1,-1 0,-1 -1,-1 0,-1 -1,-1 0,-1 -1,-1 0,-1 -1,-1 0,-1 -1,-1 0,-1 -1,-1 -1,-1 0,-4 -1,1 -2,0 -1,-1 0,2 -2,2 -1,0 -1,1 -1,0 -1,1 -1,0 -1,1 -1,1 -1,0 -1,1 -1,1 -2,0 -1,-1 -1,1 0,2 -1,1 -1,1 -4,0 -1,1 0,2 -2,2 -2,0 -1,-1 0,2 -1,1 -1,1 -1,0 -1,1 -1,1 -2,0 -1,-1 0,3 4,0 1,1 0,1 1,-1Z"/>
<path onmouseover="hoverPath(evt)" onmouseout="recoverPath(evt)" fill="rgb(172,198,237)" d="M  247,123l -1,0 -1,1 -1,0 -1,1 -1,0 -1,1 -1,0 -1,1 -1,0 -1,1 -2,0 -1,1 -1,0 -1,1 -1,0 -1,1 -1,0 -1,1 -1,0 -1,1 -1,0 -1,1 -3,0 -1,1 -13,0 -1,1 1,1 12,0 1,-1 4,0 1,-1 1,0 1,-1 1,-1 1,0 1,-1 1,0 1,-1 1,0 1,-1 1,0 1,-1 1,0 1,-1 2,0 1,-1 1,0 1,-1 1,0 1,-1 1,0 1,-1 0,-1 1,-1 1,1 1,0 1,-1 4,0 0,-2 -2,0 -1,1 -2,0 -1,1 -1,0 -1,1Z"/>
</svg>