<svg width="256" height="256" xmlns="http://www.w3.org/2000/svg"><script> 
var tempColor;
function hoverPath(evt){
obj = evt.target;
tempColor = obj.getAttribute("fill");
obj.setAttribute("fill","red");
//alert(tempColor);
//obj.setAttribute("stroke","red");}
function recoverPath(evt){
obj = evt.target;
obj.setAttribute("fill", tempColor);
//obj.setAttribute("stroke", tempColor);
}</script><path onmouseover="hoverPath(evt)" onmouseout="recoverPath(evt)" fill="rgb(171,197,234)" d="M  0,200l 0,5 2,0 1,-1 1,0 1,-1 1,0 1,-1 2,0 1,-1 1,0 1,-1 1,0 1,-1 2,0 1,-1 3,0 1,1 0,-2 1,-1 2,0 1,-1 1,-1 1,0 1,-1 1,-1 3,-3 1,-1 1,-1 0,-1 1,-1 1,-1 0,-1 1,-1 0,-1 1,-1 0,-2 1,-1 0,-24 -1,-1 0,-4 -1,-1 0,-3 -1,-1 0,-3 -1,-1 0,-2 -1,-1 0,-2 -1,-1 0,-1 -1,-1 0,-1 -1,-1 0,-1 -1,-1 0,-1 -1,-1 0,-1 -1,-1 -1,-1 0,-2 -1,-1 -1,0 -1,-1 0,-1 -1,-1 0,-2 -1,-1 -1,0 -1,-1 0,-4 -1,1 -9,0 -1,1 -1,1 1,1 0,2 1,0 1,1 0,2 1,1 0,3 1,0 1,1 1,1 1,1 0,7 1,-1 2,0 1,1 1,1 0,1 1,1 0,1 1,1 0,1 1,1 0,2 1,1 0,2 1,1 0,3 1,1 0,5 1,1 0,8 1,1 0,14 -1,1 0,2 -1,1 0,1 -1,1 0,1 -1,1 -2,2 -1,1 -3,0 -1,1 0,3 -1,1 -1,0 -1,1 -1,0 -1,1 -1,0 -1,1 -1,0 -1,1 -2,0 -1,1 -3,0 -1,-1 -2,0Z"/>
<path onmouseover="hoverPath(evt)" onmouseout="recoverPath(evt)" fill="rgb(249,249,245)" d="M  1,207l -1,0 0,2 3,0 1,-1 1,0 1,-1 1,0 1,-1 1,0 1,-1 1,0 1,-1 1,0 1,-1 3,0 1,-1 2,0 1,1 13,0 1,1 6,0 1,1 6,0 1,1 5,0 1,1 6,0 1,1 0,2 -1,1 16,0 1,1 5,0 0,-1 1,-1 1,0 0,-2 1,-1 2,0 1,-1 1,0 1,-1 3,0 1,-1 3,0 1,-1 1,-1 0,-2 1,-1 1,-1 2,0 1,1 0,1 3,0 1,1 1,1 0,-1 1,-1 2,0 0,-2 -2,0 -1,-1 -5,0 -1,-1 0,-6 -1,0 0,3 -1,1 0,1 -2,2 -1,1 -4,0 -1,-1 0,3 -1,1 -1,1 -1,1 -1,1 -1,1 -1,0 -1,1 -1,0 -1,1 -11,0 -1,-1 -13,0 -1,-1 0,-3 -1,-1 0,2 -1,1 -1,1 -4,0 -1,-1 -5,0 -1,-1 -5,0 -1,-1 -9,0 -1,-1 -9,0 -1,-1 -1,0 -1,1 -2,0 -1,1 -1,0 -1,1 -1,0 -1,1 -2,0 -1,1 -1,0 -1,1 -1,0 -1,1 -2,0 103,-18 1,0 1,-1 1,0 1,-1 10,0 1,-1 5,0 1,-1 4,0 1,-1 5,0 1,-1 4,0 1,-1 3,0 1,1 1,0 1,-1 2,0 1,1 1,1 0,1 2,0 1,1 1,1 0,1 2,0 1,1 1,1 1,1 0,1 2,0 1,1 1,1 1,1 1,1 1,1 1,1 1,1 1,1 0,1 2,0 1,1 1,1 1,1 1,1 1,1 1,1 1,1 1,1 1,1 1,1 1,1 1,1 1,1 1,1 1,1 1,1 0,1 1,0 1,1 1,0 1,1 1,1 1,1 1,1 1,1 1,1 1,1 1,1 1,1 1,1 1,1 0,1 2,0 1,1 1,1 1,1 1,1 1,1 1,1 1,1 1,1 1,1 1,1 1,1 0,3 1,1 1,1 3,0 1,1 0,2 1,1 2,0 1,1 1,0 1,1 0,2 3,0 0,-1 -1,-1 0,-2 1,-1 4,0 1,1 1,0 1,-1 1,-1 -9,0 -1,-1 -2,0 -1,-1 -1,-1 -1,-1 -1,-1 -1,-1 -1,-1 -1,-1 -3,0 -1,-1 -1,-1 -1,-1 -1,0 -1,-1 -1,-1 -1,-1 -1,-1 -1,-1 -1,-1 -1,-1 -1,-1 -1,-1 -1,-1 0,-1 -1,0 -1,-1 -1,-1 -1,0 -1,-1 -1,-1 -1,-1 -1,-1 -1,-1 -1,-1 -1,-1 -1,-1 0,-2 1,-1 0,-1 1,-1 1,-1 1,-1 1,-1 3,0 0,-4 1,-1 1,-1 1,-1 2,-2 1,0 0,-1 1,-1 2,0 1,-1 1,-1 1,-1 1,-1 1,-1 0,-4 1,-1 1,-1 1,-1 1,-1 1,-1 1,0 0,-1 1,-1 1,-1 4,0 1,1 1,0 -4,-2 0,-2 1,-1 1,-1 1,-1 0,-1 1,-1 1,-1 1,-1 1,-1 1,-1 1,-1 1,0 0,-1 1,-1 0,-1 1,-1 1,-1 1,-1 1,-1 1,-1 1,0 0,-1 1,-1 1,-1 1,-1 0,-1 1,-1 2,-2 1,-1 0,-1 1,-1 1,0 0,-1 -2,1 -1,1 -1,1 -1,1 -4,0 -1,-1 -1,-1 0,-1 -2,0 -1,-1 0,-3 -1,-1 0,3 2,3 1,0 4,3 0,2 -1,1 0,1 -1,1 -1,1 -1,0 0,1 -1,1 0,1 -1,1 -1,1 -2,2 -1,1 -1,0 0,1 -2,2 0,1 -2,2 -1,1 -1,1 -1,1 -1,1 -4,0 1,1 0,3 -1,1 -1,1 -2,2 0,1 -1,1 -1,1 -1,1 -1,1 -5,0 2,1 0,2 -1,1 0,1 -1,1 -1,1 -1,1 -1,1 -1,0 0,1 -1,1 -1,1 0,1 -1,1 -1,1 -1,1 -1,1 -1,1 -1,0 0,1 -1,1 0,1 -1,1 -1,1 -1,1 -2,0 -1,-1 -1,-1 -1,-1 -1,0 -1,-1 -1,-1 -1,-1 -1,-1 -1,-1 -1,-1 -1,-1 -1,-1 -1,-1 -1,-1 -1,-1 -1,-1 0,-1 -1,0 -1,-1 0,-3 1,-1 0,-6 1,-1 0,-2 1,-1 2,0 -3,-1 -1,0 -1,-1 -3,0 -1,-1 -2,0 -1,-1 -1,0 -1,-1 0,-14 1,-1 0,-1 1,-1 2,0 1,-1 1,-1 0,-2 1,-1 21,0 -19,-1 0,0 -1,-1 0,-2 1,-1 0,-1 1,-1 1,-1 0,-1 1,-1 2,-2 1,0 1,-1 1,0 1,-1 0,-4 1,-1 2,-2 1,0 0,-2 1,-1 1,-1 1,-1 1,-1 0,-1 1,-1 1,-1 1,-1 1,0 0,-3 1,-1 1,0 1,-1 1,0 0,-2 1,-1 1,-1 1,-1 1,-1 1,0 0,-2 1,-1 1,-1 1,-1 1,-1 1,-1 1,0 0,-1 1,-1 1,-1 1,-1 2,0 1,-1 1,-1 1,-1 1,-1 1,-1 0,-2 1,-1 1,-1 0,-1 -1,0 -1,1 -1,0 -1,1 -1,1 -1,1 -1,1 -1,1 -1,1 -2,2 -1,1 -1,1 0,1 -1,1 -1,1 -1,1 -1,1 -1,1 -1,1 -1,1 0,1 -1,1 -1,1 -1,1 -1,1 -1,1 0,1 -1,1 -1,1 2,-1 2,-3 1,-1 1,-1 1,-1 2,-3 1,-1 1,-1 1,-1 1,-1 -99,82 -103,18 188,-84 -1,0 0,1 -1,1 -1,1 -1,1 -1,1 -1,1 0,1 -1,1 -1,1 -1,1 0,1 -1,1 -2,2 -1,1 0,1 -1,1 -2,2 0,1 -2,2 -1,1 0,1 -1,1 -1,1 0,1 -1,1 -1,1 0,1 -1,1 -1,1 0,1 -1,1 0,1 -1,1 -1,1 -1,1 0,1 -1,1 -1,1 0,1 -1,1 -1,1 -1,1 0,1 -1,1 -1,1 -1,1 -1,1 -1,0 0,1 -2,2 -1,1 -4,0 0,3 -1,1 -2,0 -1,1 -4,0 -1,1 -4,0 -1,1 -5,0 -1,1 -5,0 -1,1 -9,0 -1,-1 -1,-1 0,-1 -1,-1 0,1 -1,1 1,1 0,2 -1,1 1,0 84,-65 -188,84 141,-30 0,-1 -1,0 1,1 -141,30 57,4 -15,0 -1,-1 -4,0 2,1 0,2 -1,1 -1,1 0,1 1,1 0,-1 1,-1 3,0 1,1 4,0 1,1 1,0 1,-1 1,0 1,-1 1,-1 2,0 1,1 0,-3 1,-1 -57,-4 48,11 0,1 -1,1 -1,1 0,1 2,-4 -48,-11 36,8 0,0 -36,-8Z"/>
<path onmouseover="hoverPath(evt)" onmouseout="recoverPath(evt)" fill="rgb(243,242,234)" d="M  0,240l 0,15 23,0 0,-3 -1,-1 0,-11 -1,10 -2,0 -1,-1 0,-9 -1,-1 0,-7 -1,-1 0,-16 -16,0Z"/>
<path onmouseover="hoverPath(evt)" onmouseout="recoverPath(evt)" fill="rgb(240,238,230)" d="M  2,68l -2,0 0,11 2,0 1,-1 2,0 1,1 19,0 1,1 3,0 1,1 3,0 1,1 1,0 1,1 1,1 1,0 1,1 3,0 1,1 1,0 1,1 0,2 3,0 1,1 1,1 0,2 1,1 1,0 1,1 1,1 1,1 1,1 1,1 1,1 1,1 1,1 1,0 -4,-4 -1,-1 -1,-1 0,-2 1,-1 0,-7 -3,0 -1,-1 -1,-1 -1,-1 0,-2 -1,-1 0,-1 -1,0 -1,-1 0,-2 -1,-1 0,-2 1,-1 0,-1 -4,0 -1,-1 0,-1 -1,-1 0,-3 1,-1 -1,-1 0,-2 -2,0 -1,-1 0,-1 -1,-1 0,-1 -2,0 -1,1 -1,0 -1,1 -1,0 -1,1 -1,0 -1,1 -1,0 -1,1 -1,0 -1,1 -1,0 -1,1 -1,0 -1,1 -1,0 -1,1 -1,0 -1,1 -2,0 -1,1 -5,0 -1,-1 -1,0 -1,1Z"/>
<path onmouseover="hoverPath(evt)" onmouseout="recoverPath(evt)" fill="rgb(243,242,233)" d="M  18,16l 0,1 -1,1 -1,1 0,1 2,0 1,1 0,3 -1,1 0,1 1,1 0,2 1,1 0,1 1,0 1,1 0,2 -1,1 1,1 0,0 1,1 1,0 1,1 0,4 1,1 0,6 -1,1 -1,0 0,1 2,-1 1,0 1,1 0,1 2,0 1,1 1,0 1,-1 1,0 1,-1 1,0 1,-1 1,0 1,-1 1,0 1,-1 1,0 1,-1 1,0 1,-1 1,0 1,-1 1,-1 1,0 1,-1 1,0 1,-1 1,0 1,-1 1,0 1,-1 1,0 1,-1 1,0 1,-1 1,0 1,-1 1,0 1,-1 1,0 1,-1 1,0 1,-1 1,0 1,-1 1,0 1,-1 1,0 1,-1 1,-1 1,0 0,-1 -1,-1 0,-1 -1,-1 0,-1 -1,-1 0,-1 -1,-1 0,-1 -1,-1 0,-1 -1,-1 0,-1 -1,-1 0,-1 -1,-1 0,-1 -1,-1 0,-1 -4,0 -1,-1 0,-2 1,-1 1,0 0,-2 -1,-1 0,-1 -1,-1 0,-2 -12,0 0,2 -1,1 -1,0 -1,1 -2,0 -1,1 -1,0 -1,1 -2,0 -1,1 -1,0 -1,1 -2,0 -1,1 -1,0 -1,1 -2,0 -1,1 -1,0 -1,1 -2,0 -1,1 -1,0 -1,1 -1,0 -1,1 -1,0 -1,1Z"/>
<path onmouseover="hoverPath(evt)" onmouseout="recoverPath(evt)" fill="rgb(240,240,229)" d="M  59,240l 0,8 -1,1 -2,0 0,2 1,1 0,3 14,0 0,-13 1,-1 2,0 0,-1 -4,0 -1,-1 -9,0 -1,1Z"/>
<path onmouseover="hoverPath(evt)" onmouseout="recoverPath(evt)" fill="rgb(192,217,153)" d="M  119,240l 0,2 1,1 0,4 2,0 1,1 2,0 1,-1 2,-2 2,0 1,1 0,3 10,0 -1,-1 0,0 -1,-1 0,-2 1,-1 2,0 1,1 1,1 1,1 1,1 0,1 2,0 1,1 0,3 3,0 1,-1 4,0 1,1 0,2 12,0 0,-3 -1,-1 0,-3 -1,-1 0,-3 -1,-1 0,-3 1,-1 0,-2 1,-1 0,-2 1,-1 0,-2 1,-1 0,-2 -1,2 -2,0 -1,-1 0,-1 -2,0 -1,-1 0,-2 1,-1 -2,0 -1,1 -6,0 -1,-1 -4,0 -1,-1 -1,0 -1,-1 -1,0 -1,-1 -1,0 -1,-1 -1,0 -1,-1 -1,0 -1,-1 -1,0 -1,-1 -2,0 -1,-1 -1,0 -1,-1 -1,0 0,2 1,1 0,2 1,0 1,1 0,1 2,0 1,1 2,0 1,1 1,0 1,1 1,1 1,1 1,0 1,1 1,0 1,1 0,3 -1,1 -4,0 -1,1 -5,0 -1,1 -6,0 -1,-1 -4,0 0,1 -1,1 0,1 -1,1 -3,0 -1,-1 -1,-1 0,-2 -1,2 0,0 2,2 0,1 -1,1Z"/>
<path onmouseover="hoverPath(evt)" onmouseout="recoverPath(evt)" fill="rgb(242,241,232)" d="M  168,160l -1,1 -1,1 -1,1 -2,0 0,1 -1,1 0,12 1,0 1,1 2,0 1,1 3,0 1,1 1,0 1,1 2,0 1,1 0,2 -1,1 -2,0 0,2 -1,1 0,6 -1,1 0,1 1,0 1,1 0,1 1,1 1,1 1,1 1,1 1,1 1,1 1,1 1,1 1,1 1,1 1,1 1,0 1,1 1,1 1,1 1,-1 0,0 1,-1 0,-1 1,-1 0,-1 1,-1 1,0 3,-3 1,-1 0,-1 1,-1 1,-1 0,-1 1,-1 1,0 1,-1 2,-2 0,-1 1,-1 -1,0 -1,-1 -1,0 -1,-1 0,-2 1,-1 2,0 1,1 4,0 1,-1 1,-1 1,-1 0,-1 1,-1 1,-1 1,-1 1,-1 0,-1 -1,-1 0,0 -1,-1 -1,-1 0,-7 -1,-1 0,-3 -1,0 -1,-1 -1,-1 -1,0 -1,-1 -1,0 -1,-1 -1,0 -1,1 -3,0 -1,-1 -2,0 -1,-1 -2,0 -1,-1 0,-2 -3,0 -1,1 -21,0Z"/>
<path onmouseover="hoverPath(evt)" onmouseout="recoverPath(evt)" fill="rgb(245,244,237)" d="M  0,1l 0,8 1,0 1,-1 1,0 1,-1 1,0 1,-1 2,0 1,-1 1,0 1,-1 2,0 1,-1 1,0 1,-1 2,0 1,-1 1,0 0,-1 -19,0 -1,1Z"/>
<path onmouseover="hoverPath(evt)" onmouseout="recoverPath(evt)" fill="rgb(242,240,231)" d="M  80,137l 0,1 -1,1 0,1 1,1 0,1 1,1 0,1 1,1 0,2 1,1 0,1 1,1 0,4 -1,1 0,5 -1,1 0,2 1,1 0,3 -1,1 2,0 1,1 0,2 1,1 0,2 1,1 0,1 1,1 0,2 1,1 0,1 1,1 0,2 1,1 0,1 1,1 0,1 1,1 0,1 1,1 0,2 1,1 0,1 1,1 2,0 2,-2 0,-1 1,-1 0,-3 1,-1 0,-1 1,-1 -1,-1 0,-2 1,-1 0,-5 -1,-1 0,-2 -1,-1 -1,-1 -2,0 -1,-1 -1,0 -1,-1 0,-1 -1,-1 0,-5 1,-1 1,-1 1,0 1,-1 0,-2 1,-1 4,0 -1,-1 -2,-2 -1,0 -1,-1 -1,-1 -1,-1 -1,-1 -1,-1 -1,-1 -1,-1 -1,-1 -1,-1 -1,0 -1,-1 -1,-1 -1,-1 -1,-1 -1,-1 -1,-1 -1,-1 -1,-1Z"/>
<path onmouseover="hoverPath(evt)" onmouseout="recoverPath(evt)" fill="rgb(243,241,233)" d="M  126,20l 0,1 1,1 1,1 0,2 1,1 0,2 1,1 3,0 1,-1 1,0 1,-1 1,0 0,-2 1,-1 2,0 1,1 1,0 1,-1 1,0 0,-2 1,-1 2,0 1,-1 3,0 1,1 9,0 1,1 1,1 0,1 1,1 1,1 0,2 1,1 0,1 1,1 0,1 1,1 0,-3 1,-1 2,0 1,-1 12,0 0,-4 -1,-1 0,-1 -1,-1 0,-1 -3,0 -1,-1 -1,-1 -2,0 -1,-1 0,-2 -1,-1 0,-1 -1,-1 0,-1 -1,-1 0,-1 -1,-1 0,-1 -1,-1 0,-1 -1,-1 0,-2 1,-1 1,0 0,-1 -52,0 0,2 1,1 0,3 1,0 0,-1 1,-1 2,0 1,1 1,1 0,12 -1,1 1,0 1,1Z"/>
<path onmouseover="hoverPath(evt)" onmouseout="recoverPath(evt)" fill="rgb(249,201,114)" d="M  173,0l -1,0 0,2 -1,1 -1,0 1,1 0,1 1,1 0,1 1,1 0,1 1,1 0,1 1,1 0,1 1,1 0,2 2,0 1,1 1,1 3,0 1,1 0,1 1,1 0,1 1,1 0,4 1,0 1,1 1,1 1,1 0,2 -1,1 2,0 1,1 0,1 1,1 0,1 1,1 0,2 -1,1 1,0 1,1 0,0 1,1 0,6 1,0 1,1 0,1 1,1 0,1 2,0 1,1 0,1 1,1 0,2 -1,1 2,0 1,1 1,1 0,2 -1,1 2,0 1,1 0,2 -1,1 2,0 1,1 0,2 -1,1 1,1 0,1 1,1 0,1 2,0 1,1 0,2 1,1 1,1 0,2 -1,1 1,1 0,1 2,0 1,1 1,1 0,2 -1,1 -1,0 1,1 0,1 3,0 1,1 0,1 1,1 0,2 -1,1 -1,0 1,1 0,1 1,1 0,1 1,1 0,1 3,0 1,1 0,1 1,1 0,1 1,1 0,1 1,1 0,1 1,1 0,1 1,1 0,1 1,1 0,1 1,1 0,1 1,1 0,1 1,1 0,1 1,1 0,1 1,1 0,1 1,1 0,2 -1,1 2,0 1,1 0,2 1,1 0,1 1,1 0,1 1,1 0,1 1,1 0,1 1,1 0,1 1,0 1,1 0,2 1,0 1,1 1,1 0,2 2,0 0,-17 -1,0 -1,-1 0,-1 -3,0 -1,-1 0,-1 -1,-1 0,-3 1,-1 -1,-1 0,-2 1,-1 0,-1 -1,0 -1,-1 -1,-1 0,-2 -1,-1 0,-2 -2,0 -1,-1 -1,-1 -1,-1 -1,-1 -1,-1 0,-3 -1,-1 -1,-1 -1,-1 -1,-1 -1,-1 0,-3 -1,0 -1,-1 0,-2 1,-1 1,-1 -2,0 -1,-1 0,-5 -2,0 -1,-1 0,-3 -1,-1 -1,-1 0,-2 -1,-1 0,-2 -2,0 -1,-1 -1,-1 0,-1 -1,-1 0,-1 -1,-1 0,-3 1,-1 -1,-1 0,-1 -1,-1 0,-4 1,-1 -2,1 0,0 -1,1 -2,0 -1,-1 0,-1 -1,-1 0,-1 -1,-1 0,-2 -1,-1 -1,-1 0,-1 -1,-1 0,-1 -1,-1 0,-1 -1,-1 0,-3 1,-1 -2,0 -1,-1 -1,-1 0,-1 -1,-1 0,-1 -1,-1 0,-1 -1,-1 0,-1 -1,-1 0,-1 -1,-1 0,-1 -1,-1 0,-1 -1,-1 0,-1 -1,-1 0,-1 -1,-1 -1,-1 0,-2 1,-1 1,0 -1,-1 0,-2 -1,1 -2,0 -1,-1 0,-1 -1,-1 0,-1 -1,-1 0,-2 -1,-1 -1,-1 0,-1 -1,-1 0,-1 -1,-1 0,-1 -1,-1 0,-1Z"/>
<path onmouseover="hoverPath(evt)" onmouseout="recoverPath(evt)" fill="rgb(239,235,227)" d="M  194,0l -10,0 1,1 0,1 1,1 0,1 1,1 0,1 1,1 1,1 0,2 1,1 0,1 1,1 0,1 1,-1 2,0 1,1 0,2 1,1 0,2 -1,1 0,1 1,1 0,1 1,1 0,1 1,1 0,1 1,1 0,1 1,1 0,1 1,1 0,1 1,1 0,1 1,1 0,1 1,1 0,1 1,1 2,0 1,1 0,2 -1,1 0,1 1,1 0,1 1,1 0,1 1,1 0,1 1,1 1,1 0,2 1,1 0,1 1,1 0,1 1,-1 1,0 1,-1 2,0 1,1 1,0 1,1 1,1 0,2 -1,1 2,0 1,1 0,-1 1,-1 0,-1 1,-1 0,-1 1,-1 1,-1 0,-1 1,-1 0,-1 1,-1 0,-1 1,-1 0,-1 1,-1 1,-1 0,-2 1,-1 0,-1 1,-1 0,-1 1,-1 0,-1 1,-1 0,-2 1,-1 0,-1 1,-1 0,-2 1,-1 0,-1 1,-1 0,-1 1,-1 0,-2 1,-1 0,-2 1,-1 0,-1 1,-1 0,-2 1,-1 0,-1 1,-1 0,-2 1,-1 0,-2 1,-1 0,-2 1,-1 0,-1 1,-1 0,-1 1,-1 2,0 0,-1Z"/>
<path onmouseover="hoverPath(evt)" onmouseout="recoverPath(evt)" fill="rgb(243,242,233)" d="M  220,185l 0,0 -1,1 -1,0 -1,1 -1,1 -2,2 0,4 -1,1 -1,1 -1,1 -1,1 -1,1 -1,1 -2,0 0,1 -1,1 -1,0 -1,1 -1,1 -1,1 -1,1 0,2 1,0 1,1 1,1 1,0 1,1 1,1 1,1 1,0 1,1 0,2 3,0 1,1 3,0 1,-1 5,0 1,1 3,0 1,1 0,2 4,0 0,-3 1,-1 6,0 1,1 1,0 1,1 1,0 1,1 1,0 1,1 1,0 1,1 2,0 1,1 1,0 1,1 1,0 1,1 1,0 0,-28 -2,0 -1,-1 -2,0 -1,-1 -1,0 -1,-1 -2,0 -1,-1 -1,0 -1,-1 -1,0 -1,-1 -2,0 -1,-1 -1,0 -1,-1 -2,0 -1,-1 -1,0 -1,-1 -1,0 -1,-1 -1,0 -1,-1 -2,0 -1,-1 -2,0 -1,1Z"/>
<path onmouseover="hoverPath(evt)" onmouseout="recoverPath(evt)" fill="rgb(172,198,237)" d="M  0,82l 0,18 2,0 1,1 0,1 1,1 1,1 0,1 1,1 0,2 1,1 1,-1 0,0 1,-1 9,0 0,-1 -1,-1 0,-1 -1,0 -1,-1 0,-1 -1,-1 0,-6 1,-1 1,-1 1,-1 1,-1 8,0 1,1 1,0 1,1 1,1 2,0 0,-5 1,-1 4,0 0,-2 -1,0 -1,-1 -1,-1 -1,0 -1,-1 -3,0 -1,-1 -3,0 -1,-1 -19,0 -1,-1 -1,1 -2,0 -1,1Z"/>
<path onmouseover="hoverPath(evt)" onmouseout="recoverPath(evt)" fill="rgb(242,241,233)" d="M  27,114l -2,0 0,1 1,1 0,1 1,0 1,1 1,1 0,2 1,1 1,1 0,1 1,1 0,1 1,1 0,1 1,1 0,1 1,1 0,1 1,1 0,2 1,1 0,2 1,1 0,3 1,1 0,3 1,1 0,4 1,1 0,26 -1,1 0,2 -1,1 0,1 -1,1 0,1 -1,1 -1,1 0,1 -1,1 -1,1 -1,1 -1,1 -1,1 -1,1 -1,1 -1,1 -1,0 -1,1 -1,1 -2,0 0,1 7,0 1,1 9,0 1,1 5,0 1,1 5,0 1,1 2,0 1,-1 0,-3 1,-1 0,-8 -1,-1 0,-7 1,-1 2,0 0,-9 1,-1 0,-1 1,-1 -4,0 -1,-1 -1,-1 -2,0 -1,-1 0,-2 1,-1 0,-1 -1,-1 0,-2 -2,0 -1,-1 0,-1 -1,-1 0,-3 1,-1 0,-1 -1,-1 0,-2 -1,-1 0,-1 -1,-1 0,-3 -1,-1 0,-1 -1,-1 0,-2 -2,0 -1,-1 0,-1 -1,-1 0,-6 1,-1 1,-1 1,0 1,-1 3,0 1,1 2,0 1,-1 6,0 1,1 2,0 1,1 0,2 -1,1 0,1 1,1 0,2 1,1 0,1 1,1 0,2 1,1 0,1 2,0 1,1 0,1 1,1 0,2 1,1 0,2 1,1 0,1 1,1 0,1 1,1 1,1 1,1 1,1 0,2 1,1 1,1 0,2 -1,1 3,0 1,-1 0,-3 1,-1 0,-5 1,-1 0,-2 -1,-1 0,-1 -1,-1 0,-2 -1,-1 0,-1 -2,0 -1,-1 0,-2 1,-1 0,-2 1,-1 0,-1 1,-1 -1,-1 0,0 -1,-1 -1,-1 -1,0 -1,-1 -1,-1 -1,-1 -1,-1 -1,-1 -1,0 -1,-1 -1,-1 -1,-1 -1,-1 -1,-1 -1,-1 -1,-1 -1,-1 -1,-1 -1,0 -1,-1 -1,-1 -1,-1 -1,-1 0,-2 -1,0 -1,-1 -1,0 -1,-1 -1,-1 -1,0 -1,-1 -1,-1 -1,-1 -1,-1 -1,0 -1,-1 -1,0 -1,-1 -1,0 -1,1 -5,0 0,5 -1,1 -4,0 0,3 -1,1Z"/>
<path onmouseover="hoverPath(evt)" onmouseout="recoverPath(evt)" fill="rgb(241,240,231)" d="M  95,11l 0,0 1,-1 2,0 1,1 1,1 1,1 4,0 1,1 0,1 3,0 1,1 0,2 1,-1 1,0 0,-5 1,-1 4,0 1,1 0,1 2,0 1,1 0,3 2,0 0,-10 -1,-1 0,1 -1,1 -3,0 -1,-1 0,-3 -1,-1 0,-3 -48,0 0,2 1,1 0,1 2,2 0,1 1,1 0,1 1,1 0,1 1,1 0,1 1,1 0,1 1,1 0,1 1,1 0,1 1,1 0,1 1,1 0,1 1,1 0,1 1,1 0,1 4,0 1,-1 1,0 1,-1 2,0 1,-1 2,0 1,-1 2,0 0,-2 1,-1 2,0 0,-3 -1,-1 0,0 -1,-1 -1,-1 -1,-1Z"/>
<path onmouseover="hoverPath(evt)" onmouseout="recoverPath(evt)" fill="rgb(242,239,229)" d="M  247,153l 0,0 -1,1 -1,1 -1,1 0,1 -1,1 -1,1 -1,1 0,1 -1,1 -1,0 -1,1 -3,3 0,1 -1,1 0,1 -1,1 -1,0 -3,3 -1,1 -1,1 0,1 -1,1 -1,1 -1,1 1,0 1,1 1,0 1,1 1,0 1,1 0,2 1,0 1,1 1,0 1,1 2,0 1,1 1,0 1,1 2,0 1,1 1,0 1,1 1,0 1,1 2,0 1,1 1,0 1,1 2,0 1,1 1,0 0,-39 -3,0 -1,-1 0,-2 -1,-1 -2,0 0,1 -1,1Z"/>
<path onmouseover="hoverPath(evt)" onmouseout="recoverPath(evt)" fill="rgb(174,199,235)" d="M  253,18l -1,1 0,1 -1,1 0,1 -1,1 0,2 -1,1 0,2 -1,1 0,1 -1,1 0,2 -1,1 0,1 -1,1 0,2 -1,1 0,1 -1,1 0,1 -1,1 0,1 -1,1 0,2 -1,1 0,1 -1,1 0,1 -1,1 0,1 -1,1 0,1 -1,1 -1,1 0,1 -1,1 0,1 -1,1 0,1 -1,1 -1,1 0,1 -1,1 0,1 -1,1 0,1 -1,1 1,1 0,1 1,1 0,3 1,0 1,-1 1,-1 1,-1 1,-1 0,-1 1,-1 2,-2 0,-1 1,-1 0,-1 1,-1 1,-1 0,-1 1,-1 0,-1 1,-1 1,-1 0,-1 1,-1 0,-1 1,-1 0,-1 1,-1 0,-1 1,-1 0,-1 1,-1 0,-1 1,-1 0,-2 1,-1 0,-1 1,-1 0,-1 1,-1 2,0 0,-26 -1,0 0,2 -1,1Z"/>
<path onmouseover="hoverPath(evt)" onmouseout="recoverPath(evt)" fill="rgb(242,241,232)" d="M  58,91l 0,3 -1,1 1,1 1,1 0,1 1,1 1,1 4,0 1,1 1,1 1,0 1,1 0,1 1,1 1,1 0,1 1,1 0,1 1,1 1,1 1,1 1,1 1,1 1,1 1,1 1,1 1,1 1,0 1,1 1,1 1,0 1,1 0,1 1,1 1,1 1,1 1,1 1,1 1,1 1,1 1,0 1,1 1,1 1,0 1,1 0,1 1,1 1,1 1,1 1,1 1,1 1,0 1,1 1,0 1,1 0,1 1,1 1,1 1,1 1,1 2,0 1,1 0,1 1,1 1,1 1,0 2,2 1,0 1,-1 2,0 1,1 0,2 2,0 1,1 3,0 1,1 7,0 1,-1 1,0 1,-1 1,-1 0,-1 1,-1 1,0 1,-1 1,0 1,-1 1,-1 1,-1 0,-2 1,-1 1,-1 1,-1 2,0 1,-1 1,-1 0,-1 -1,-1 0,0 -1,-1 -1,-1 -1,-1 -1,-1 -1,0 -1,-1 -1,-1 -1,-1 -1,-1 -1,0 -1,-1 0,-1 -1,-1 -1,-1 -1,0 -1,-1 -1,-1 -1,-1 -1,-1 -1,0 -1,-1 -1,-1 -1,0 -1,-1 -1,-1 -1,-1 -1,0 -1,-1 -1,-1 -1,-1 0,-1 -1,-1 -1,-1 -1,-1 0,-1 -1,-1 -1,-1 -2,0 -1,-1 -1,-1 0,-4 -1,-1 -1,-1 0,-1 -1,-1 -1,-1 -2,0 -1,-1 0,-2 1,-1 -1,-1 -2,0 -1,-1 0,-2 1,-1 -1,-1 0,0 -1,-1 -1,-1 0,-1 -1,-1 0,-1 -2,0 -1,-1 0,-1 -1,-1 0,-1 -1,-1 0,-2 1,-1 -1,-1 0,0 -1,-1 0,-1 -1,-1 -1,-1 -1,-1 -1,-1 -1,-1 -1,0 -1,-1 0,-2 -1,-1 -1,-1 0,-1 -1,-1 -1,-1 0,-3 1,-1 0,-1 -1,-1 0,-2 -1,-1 0,-2 -1,-1 0,-1 -1,-1 0,-4 1,-1 0,-2 1,-1 3,0 -1,-1 -1,0 -1,-1 -1,1 -1,0 0,4 -1,1 -3,0 -1,-1 0,-1 -3,0 -1,1 -1,0 -1,1 -1,0 -1,1 -1,0 -1,1 -1,0 -1,1 -1,0 -1,1 0,1 -1,1 0,2 -1,1 -2,0 -1,-1 0,-1 -1,0 -1,1 -1,0 -1,1 -1,0 -1,1 -1,0 -1,1 -1,0 -1,1 -1,0 -1,1 -1,0 -1,1 -1,0 -1,1 -1,0 -1,1 -1,0 0,3 1,1 0,1 1,1 0,2 1,1 0,2 -1,1 0,1 1,1 0,1 4,0 1,1 0,3 -1,1 1,1 0,2 1,0 1,1 0,1 1,1 0,2 1,1 1,1 3,0 1,1Z"/>
<path onmouseover="hoverPath(evt)" onmouseout="recoverPath(evt)" fill="rgb(253,253,253)" d="M  91,27l -2,0 -1,1 -1,0 -1,1 -6,0 -1,-1 0,-1 -1,-1 0,-1 -1,-1 0,-1 -1,-1 0,-1 -1,-1 0,-1 -1,-1 0,-1 -1,-1 0,-1 -1,-1 0,-1 -1,-1 0,-1 -1,-1 0,-1 -1,-1 0,-1 -1,-1 -1,-1 0,-1 -1,-1 0,-3 -2,0 0,1 1,1 0,1 1,1 0,4 -1,1 3,0 1,1 0,1 1,1 0,1 1,1 0,1 1,1 0,1 1,1 0,1 1,1 0,1 1,1 0,1 1,1 0,1 1,1 0,1 1,1 0,3 -1,1 -1,0 -1,1 -1,1 -1,0 -1,1 -1,0 -1,1 -1,0 -1,1 -1,0 -1,1 -1,0 -1,1 -1,0 -1,1 -1,0 -1,1 -1,0 -1,1 -1,0 -1,1 -1,0 -1,1 -1,0 -1,1 -1,0 -1,1 -1,0 -2,2 -1,0 -1,1 -1,0 -1,1 -1,0 -1,1 -1,0 -1,1 -1,0 -1,1 -1,0 -1,1 -1,0 -1,1 -2,0 -1,1 -1,0 -1,1 -1,0 -1,1 -1,1 -2,0 -1,1 -1,0 -1,1 -1,0 -1,1 -1,0 -1,1 -1,0 -1,1 -1,0 -1,1 -1,1 1,0 1,-1 2,0 1,-1 1,0 1,-1 1,0 1,-1 1,0 1,-1 1,0 1,-1 1,0 1,-1 1,0 1,-1 1,0 1,-1 1,0 1,-1 1,0 1,-1 4,0 1,1 0,-3 1,-1 1,0 1,-1 1,0 1,-1 1,0 1,-1 1,0 1,-1 1,0 1,-1 1,0 1,-1 1,0 1,-1 1,0 1,-1 1,0 1,-1 3,0 1,1 0,-1 1,-1 0,-1 1,-1 1,-1 1,0 1,-1 1,0 1,-1 1,0 1,-1 1,0 1,-1 1,0 1,-1 5,0 1,1 0,1 1,0 0,-4 1,-1 1,0 1,-1 1,0 1,-1 2,0 0,-1 2,-1 1,0 1,-1 -1,0 0,1Z"/>
<path onmouseover="hoverPath(evt)" onmouseout="recoverPath(evt)" fill="rgb(241,240,230)" d="M  113,82l -1,0 0,1 1,1 0,1 1,1 1,1 0,1 1,1 0,1 1,1 1,1 0,1 1,1 1,0 1,1 0,2 1,1 1,1 0,1 1,1 1,1 1,1 0,1 1,1 1,0 1,1 0,2 2,0 1,-1 1,0 1,-1 1,0 1,-1 1,0 0,-1 1,-1 -1,-1 0,0 -1,-1 -1,-1 -1,-1 0,-2 1,-1 0,-4 1,-1 1,0 1,-1 1,0 1,-1 0,-2 1,-1 1,-1 2,0 1,1 1,-1 1,0 1,-1 1,0 1,-1 1,0 0,-2 -1,-1 0,-4 1,-1 0,-2 1,-1 0,-2 1,-1 1,0 1,-1 -2,0 -1,-1 -1,0 -1,1 -2,0 -1,1 -1,0 -1,1 -2,0 -1,1 -2,0 -1,1 -1,0 -1,1 -2,0 -1,1 -2,0 -1,1 -1,0 -1,1 -2,0 -1,1 -2,0 -1,1 -1,0 -1,1 -2,0 -1,1 -1,0 -1,1 -2,0 -1,1Z"/>
<path onmouseover="hoverPath(evt)" onmouseout="recoverPath(evt)" fill="rgb(242,240,231)" d="M  157,67l 0,1 1,1 0,2 -1,1 4,0 1,1 0,1 2,0 1,1 0,1 1,1 0,1 1,1 1,1 2,0 1,1 1,0 1,1 0,2 1,1 1,1 1,1 0,1 1,1 1,1 1,1 1,1 1,1 0,1 1,0 1,1 0,1 1,1 1,1 1,1 1,1 0,-2 2,-2 1,-1 5,-5 1,-1 1,-1 2,0 -1,-1 0,0 -1,-1 -1,-1 -1,-1 -1,-1 -1,-1 0,-2 1,-1 2,0 1,1 1,1 1,1 1,1 1,1 1,0 1,1 1,-1 1,-1 1,-1 1,-1 1,0 1,-1 1,-1 2,0 0,-1 -2,0 -1,-1 0,-1 -1,-1 0,-1 -1,-1 0,-2 1,-1 -2,0 -1,-1 0,-2 1,-1 -2,0 -1,-1 0,-2 1,-1 -1,-1 -2,0 -1,-1 0,-2 1,-1 -1,-1 0,-1 -2,0 -1,-1 0,-1 -1,-1 0,-1 -1,0 -1,-1 0,-6 -1,-1 -2,0 -1,-1 0,-2 1,-1 1,0 -1,-1 0,-1 -1,-1 0,-1 -2,0 -1,-1 0,-2 1,-1 -1,-1 -1,-1 -1,1 -12,0 -1,1 -2,0 0,2 1,1 0,2 -1,1 0,6 -1,1 -1,1 -1,1 -1,1 -1,0 0,2 -1,1 0,2 1,1 0,0 1,1 0,1 3,0 1,-1 1,0 1,-1 4,0 1,1 0,3 -1,1 -1,0 0,3 1,1 0,2 -1,1 -2,0 -1,-1 0,-1 -1,-1 -1,-1 -3,0 -1,1 -2,0 -1,1 -1,0 -1,1 -2,0 -1,1 -2,0 -1,1 1,0 1,1 21,2 2,0 1,1 0,2 -1,1 -2,0 -1,-1 0,-2 1,-1 -21,-2Z"/>
<path onmouseover="hoverPath(evt)" onmouseout="recoverPath(evt)" fill="rgb(189,215,156)" d="M  24,228l 0,22 1,1 0,4 30,0 0,-2 -1,-1 0,-3 -1,-1 0,-7 -1,-1 0,-7 1,-1 1,0 1,-1 4,0 -3,-1 0,-12 -1,-1 0,-1 -1,1 -1,1 -1,0 -1,1 0,1 -1,1 -1,1 0,1 -1,1 -2,0 -1,-1 0,-3 1,-1 1,-1 -4,0 -1,-1 -1,0 0,1 -1,1 -2,0 -1,-1 -1,-1 -2,0 -1,-1 -10,0 0,6 1,1 1,0 1,1 0,2 -1,1 -1,1Z"/>
<path onmouseover="hoverPath(evt)" onmouseout="recoverPath(evt)" fill="rgb(227,233,211)" d="M  105,204l 0,-2 -1,0 -1,-1 0,-1 -1,1 0,2 -1,1 -1,1 -1,1 -3,0 -1,1 -3,0 -1,1 -1,0 -1,1 -2,0 0,2 2,0 1,1 1,-1 3,0 1,1 7,0 1,1 3,0 -1,-1 0,-1 -1,-1 0,-4 1,-1Z"/>
<path onmouseover="hoverPath(evt)" onmouseout="recoverPath(evt)" fill="rgb(220,201,195)" d="M  248,117l 0,2 1,1 1,0 1,1 0,3 -1,1 1,1 0,2 -1,1 0,1 1,1 0,1 3,0 1,1 0,-24 -1,0 0,2 -1,1 -1,0 -1,1 -1,1 -3,0 0,2 1,1Z"/>
<path onmouseover="hoverPath(evt)" onmouseout="recoverPath(evt)" fill="rgb(235,224,221)" d="M  254,4l 0,0 -1,1 0,1 -1,1 0,2 -1,1 0,2 -1,1 0,2 -1,1 0,1 -1,1 0,2 -1,1 0,1 -1,1 0,2 -1,1 0,2 -1,1 0,1 -1,1 0,1 -1,1 0,2 -1,1 0,1 -1,1 0,2 -1,1 0,1 -1,1 0,1 -1,1 0,1 -1,1 0,2 -1,1 -1,1 0,1 -1,1 0,1 -1,1 0,1 -1,1 0,1 -1,1 -1,1 0,1 -1,1 0,1 -1,1 0,1 -1,1 -2,0 -1,-1 -2,0 -1,-1 0,1 1,1 0,2 -1,1 0,1 1,1 0,1 1,1 0,1 1,1 2,0 1,1 0,2 1,1 0,2 1,1 1,1 0,3 2,0 1,1 0,5 1,-3 0,0 -1,-3 0,-1 1,-1 1,-1 1,-1 1,0 1,-1 2,0 1,-1 1,-1 1,0 1,-1 1,0 1,-1 1,0 1,-1 1,-1 1,0 1,-1 1,0 1,-1 3,0 0,-13 -1,0 -1,1 -1,0 -1,1 -1,0 -1,1 0,1 -1,1 0,1 1,1 0,1 1,1 0,4 -1,1 -1,0 -1,1 -1,0 -1,1 -1,0 -1,1 -1,1 -1,0 -1,1 -1,0 -1,1 -1,0 -1,1 -1,0 -1,1 -3,0 -1,-1 0,-3 -1,0 -1,-1 0,-3 -1,-1 0,-1 -1,-1 0,-2 1,-1 0,-1 1,-1 0,-1 1,-1 0,-1 1,-1 1,-1 0,-1 1,-1 0,-1 1,-1 0,-1 1,-1 1,-1 0,-1 1,-1 0,-1 1,-1 0,-1 1,-1 0,-1 1,-1 0,-2 1,-1 0,-1 1,-1 0,-1 1,-1 0,-1 1,-1 0,-2 1,-1 0,-1 1,-1 0,-2 1,-1 0,-1 1,-1 0,-2 1,-1 0,-2 1,-1 0,-1 1,-1 0,-1 1,-1 0,-2 1,-1 0,-2 1,-1 2,0 0,-6 -1,-1 -34,59 0,-1 1,-1 -1,-1 -1,1 0,2 1,-2 0,2 34,-59Z"/>
<path onmouseover="hoverPath(evt)" onmouseout="recoverPath(evt)" fill="rgb(247,236,140)" d="M  0,13l 0,7 2,0 1,-1 1,0 1,-1 1,0 1,-1 2,0 1,-1 3,0 1,1 1,0 1,-1 0,-1 1,-1 1,-1 1,0 1,-1 1,0 1,-1 1,0 1,-1 2,0 1,-1 1,0 1,-1 2,0 1,-1 1,0 1,-1 2,0 1,-1 1,0 1,-1 2,0 1,-1 1,0 1,-1 2,0 1,-1 1,0 0,-1 -26,0 0,2 -1,1 -1,0 -1,1 -2,0 -1,1 -1,0 -1,1 -2,0 -1,1 -1,0 -1,1 -2,0 -1,1 -1,0 -1,1 -1,0 -1,1 -2,0Z"/>
<path onmouseover="hoverPath(evt)" onmouseout="recoverPath(evt)" fill="rgb(243,242,234)" d="M  0,149l 0,46 3,0 1,1 1,0 1,-1 2,0 1,-1 1,0 1,-1 1,0 1,-1 1,0 1,-1 1,0 0,-3 1,-1 1,-1 3,0 2,-2 1,-1 0,-1 1,-1 0,-1 1,-1 0,-2 1,-1 0,-12 -1,-1 0,-8 -1,-1 0,-5 -1,-1 0,-3 -1,-1 0,-2 -1,-1 0,-2 -1,-1 0,-1 -1,-1 0,-1 -1,-1 0,-1 -1,-1 -1,1 -2,0 -1,-1 0,-7 -1,-1 -1,-1 -1,0 -1,-1 0,-3 -1,-1 0,-2 -1,0 -1,-1 0,-2 -1,-1 0,-1 -1,-1 -1,-1 0,-2 -1,-1 0,-1 -1,-1 -1,-1 0,-1 -1,0 0,47 1,-29 0,-2 1,-1 2,0 1,1 0,2 -1,1 -2,0 -1,-1 -1,29 2,-12 0,-2 1,-1 2,0 1,1 0,2 -1,1 -2,0 -1,-1 -2,12 9,-10 1,-1 2,0 1,1 0,2 -1,1 -2,0 -1,-1 0,-2 -9,10Z"/>
<path onmouseover="hoverPath(evt)" onmouseout="recoverPath(evt)" fill="rgb(243,241,232)" d="M  62,172l 0,0 -1,1 0,9 -1,1 -2,0 0,5 1,1 0,9 1,1 0,1 1,1 0,3 13,0 1,1 9,0 1,-1 1,0 1,-1 1,0 1,-1 3,-3 0,-2 -1,-1 0,-2 1,-1 0,-1 -1,-1 0,-1 -2,0 -1,-1 0,-2 1,-1 -1,-1 0,-2 -1,-1 0,-1 -1,-1 0,-2 -1,-1 0,-1 -1,-1 0,-2 -1,-1 0,-2 -2,0 -1,-1 0,-2 1,-1 0,-1 -1,1 -5,0 -1,-1 0,2 -1,1 -1,0 -1,1 -4,0 -1,-1 -3,0 0,2 -1,1Z"/>
<path onmouseover="hoverPath(evt)" onmouseout="recoverPath(evt)" fill="rgb(241,240,230)" d="M  99,162l 0,0 -1,1 -1,0 -1,1 0,3 1,1 0,1 1,0 1,1 1,0 1,-1 2,0 1,1 1,1 0,2 -1,1 0,1 2,0 1,1 0,5 1,1 0,1 1,1 7,0 1,-1 5,0 1,-1 5,0 1,-1 4,0 1,-1 4,0 1,-1 2,0 -1,-1 0,0 -1,-1 0,-2 1,-1 3,0 1,1 2,0 1,-1 1,-1 0,-1 1,-1 1,0 1,-1 1,-1 1,-1 0,-1 1,-1 2,-2 -1,-1 -1,0 -1,1 0,0 -2,2 -1,0 -1,1 -1,0 -1,1 -1,0 -1,1 -1,0 -1,1 -3,0 -1,1 -14,0 -1,-1 -2,0 -1,-1 -2,0 -1,-1 -1,0 -1,-1 -1,0 -1,-1 -1,0 -1,-1 -1,-1 -1,-1 -1,-1 -1,-1 -1,0 -1,-1 -3,0 -1,-1 -2,0 0,2 -1,1Z"/>
<path onmouseover="hoverPath(evt)" onmouseout="recoverPath(evt)" fill="rgb(196,219,159)" d="M  112,213l 0,1 1,1 0,2 1,1 0,2 1,1 0,3 1,1 0,3 1,1 0,2 1,1 2,0 1,1 0,2 1,1 1,0 0,-1 1,-1 0,-1 1,-1 6,0 1,1 4,0 1,-1 5,0 1,-1 4,0 0,-1 -1,0 -1,-1 -1,0 -1,-1 -1,-1 -1,-1 -1,0 -1,-1 -2,0 -1,-1 -2,0 -1,-1 0,-1 -1,0 -1,-1 0,-2 -1,-1 0,-4 -1,0 -1,-1 -1,-1 -1,0 -1,-1 -1,0 -1,-1 -1,-1 0,-1 -1,-1 -1,-1 -1,-1 0,4 -1,1 -2,0 -1,-1 0,-8 -1,1 -2,0 0,3 -1,1 -2,0 -1,-1 0,-2 -1,-1 0,4 -1,1 0,2 1,1 0,1 1,1 3,0 1,1Z"/>
<path onmouseover="hoverPath(evt)" onmouseout="recoverPath(evt)" fill="rgb(214,228,194)" d="M  125,255l 31,0 0,-1 -9,0 0,-3 -2,0 -1,-1 0,-1 -1,-1 -1,-1 -1,-1 2,3 0,1 -1,1 -12,0 -1,-1 0,-3 -1,1 -2,2 -4,0 -1,-1 -2,0 -1,-1 0,-4 -1,-1 0,-4 1,-1 -1,0 -1,-1 0,-2 1,-1 -1,-1 0,0 -1,-1 0,2 -1,1 -1,1 -3,0 -1,1 -7,0 0,1 1,1 0,0 1,1 1,1 0,3 -1,1 4,0 1,1 1,0 1,1 1,1 2,0 1,1 1,1 1,1 0,4Z"/>
<path onmouseover="hoverPath(evt)" onmouseout="recoverPath(evt)" fill="rgb(243,240,231)" d="M  215,101l 0,0 -1,1 -2,2 -1,1 -2,0 -1,1 -1,1 0,1 -1,1 -1,0 -2,2 -1,1 -1,1 0,2 -1,1 -1,0 -1,1 -1,1 -1,1 0,2 -1,1 -1,0 -1,1 -1,0 0,3 -1,1 -1,0 -1,1 -1,1 0,1 -1,1 -1,1 -1,1 -1,1 0,2 -1,1 -1,0 -1,1 -1,1 0,4 -1,1 -1,1 -1,0 -1,1 -1,0 -1,1 -1,1 0,1 -1,1 -1,1 0,1 -1,1 1,1 18,0 1,1 4,0 1,1 0,2 2,0 1,1 2,0 1,1 1,0 1,-1 3,0 1,1 1,0 1,1 1,0 1,1 1,1 1,0 1,1 0,3 1,1 0,5 1,0 1,1 1,1 2,0 1,-1 4,-4 0,-1 2,-2 0,-1 1,-1 1,0 1,-1 1,-1 1,-1 1,-1 0,-1 1,-1 0,-1 1,-1 1,0 1,-1 0,-1 1,-1 -1,-1 0,0 -1,-1 -2,0 -1,-1 0,-1 -1,-1 -1,-1 0,-5 1,-1 2,0 1,1 1,1 0,3 2,0 1,1 0,1 1,1 2,0 1,-1 0,0 2,-2 1,0 0,-1 -1,-1 0,-1 -1,-1 0,-1 -1,-1 0,-1 -1,-1 0,-1 -1,-1 0,-2 -2,0 -1,-1 0,-2 1,-1 -1,-1 0,-1 -1,-1 0,-1 -1,-1 0,-1 -1,-1 0,-1 -1,-1 0,-1 -1,-1 0,-1 -1,-1 0,-1 -1,-1 0,-1 -1,-1 0,-1 -1,-1 0,-1 -1,-1 0,-1 -1,-1 0,-1 -3,0 -1,-1 0,-1 -1,-1 0,-1 -1,-1 0,-1 -1,-1 0,-2 1,-1 1,0 -1,-1 0,-1 -2,0 -1,1 -1,1 0,2 -2,2Z"/>
<path onmouseover="hoverPath(evt)" onmouseout="recoverPath(evt)" fill="rgb(241,240,230)" d="M  248,61l 0,0 1,-1 1,0 1,-1 1,0 1,-1 2,0 0,-17 -1,0 0,1 -1,1 0,1 -1,1 0,2 -1,1 0,1 -1,1 0,1 -1,1 0,1 -1,1 0,1 -1,1 0,1 -1,1 0,1 -1,1 -1,1 0,1 -1,1 0,1 -1,1 -1,1 0,1 -1,1 0,1 -1,1 -1,1 -1,1 0,1 -1,1 -1,1 -1,1 -1,1 -1,1 0,2 1,0 1,-1 1,0 1,-1 1,0 1,-1 1,0 1,-1 1,0 1,-1 1,-1 1,0 1,-1 1,0 1,-1 1,0 0,-2 -1,-1 0,-1 -1,-1 0,-3 1,-1 0,-1 1,-1Z"/>
<path onmouseover="hoverPath(evt)" onmouseout="recoverPath(evt)" fill="rgb(244,242,235)" d="M  2,22l -2,0 0,44 4,0 1,-1 2,0 1,-1 2,0 1,-1 1,-1 1,0 1,-1 1,0 1,-1 1,0 1,-1 1,0 1,-1 1,0 1,-1 2,0 1,-1 1,-1 1,0 1,-1 -1,0 -1,-1 0,-1 -1,1 -2,0 -1,-1 0,-3 1,-1 1,0 0,-4 -1,-1 0,-4 -1,0 -1,-1 -1,-1 -1,-1 0,-2 1,-1 -1,0 -1,-1 0,-1 -1,-1 0,-2 -1,-1 0,-3 1,-1 0,-1 -2,0 -1,-1 0,-1 -1,0 -1,-1 0,-1 -1,0 -1,1 -2,0 -1,1 -1,0 -1,1 -1,0 -1,1Z"/>
<path onmouseover="hoverPath(evt)" onmouseout="recoverPath(evt)" fill="rgb(224,225,223)" d="M  18,94l 0,0 -1,1 -1,1 0,4 1,1 0,1 1,0 1,1 0,1 1,1 0,1 1,0 1,1 0,4 1,0 1,1 3,0 0,-3 1,-1 4,0 0,-5 1,-1 5,0 1,-1 -2,0 -1,-1 0,-1 -1,-1 -1,-1 -1,0 -1,-1 -3,0 -1,-1 -1,-1 -1,0 -1,-1 -6,0 -1,1Z"/>
<path onmouseover="hoverPath(evt)" onmouseout="recoverPath(evt)" fill="rgb(173,198,233)" d="M  57,111l 0,2 1,1 1,1 1,1 1,0 1,1 1,1 1,1 1,1 1,1 1,1 1,1 1,1 1,1 1,0 1,1 1,1 1,1 1,1 1,1 1,0 1,1 1,1 1,1 1,1 0,1 1,0 1,1 1,1 1,1 1,1 1,1 1,1 1,1 1,1 1,0 2,2 1,1 2,2 1,1 1,1 1,1 1,1 1,0 1,1 1,1 1,1 1,1 1,1 0,1 1,0 1,1 1,0 1,1 1,1 1,1 1,1 1,1 1,0 1,1 1,0 1,1 1,0 1,1 2,0 1,1 2,0 1,1 12,0 1,-1 3,0 1,-1 1,0 1,-1 1,0 1,-1 1,0 1,-1 1,0 1,-1 2,-2 3,0 1,1 1,-1 0,-1 1,-1 1,-1 1,-1 0,-1 1,-1 0,-1 1,-1 1,-1 0,-1 1,-1 1,-1 0,-1 1,-1 1,-1 0,-1 1,-1 1,-1 1,-1 0,-1 1,-1 1,-1 1,-1 0,-1 1,-1 1,-1 1,-1 1,-1 0,-1 2,-2 1,-1 0,-1 1,-1 1,-1 1,-1 1,-1 1,-1 0,-1 1,-1 1,0 0,-1 1,-1 1,-1 0,-1 1,-1 1,-1 2,-2 1,-1 0,-1 1,-1 2,-2 1,-1 2,-2 1,-1 0,-1 1,-1 1,-1 5,-5 1,-1 2,-2 1,-1 1,0 1,-1 1,0 0,-1 1,-1 1,0 -1,-1 -2,0 -1,-1 0,-1 -1,-1 -1,0 -1,1 0,0 -1,1 -1,1 -1,0 -2,2 -1,1 -5,5 -1,1 -10,10 -1,1 0,1 -1,1 -1,1 -1,1 -1,1 -1,1 -1,1 0,1 -1,1 -1,1 -1,1 -1,1 0,1 -1,1 -1,1 -1,1 0,1 -2,2 -1,1 -1,1 0,1 -1,1 -1,1 -1,1 0,1 -1,1 -1,1 -1,1 0,1 -1,1 -1,1 -1,1 -1,1 -1,1 -1,1 0,1 -2,2 -1,1 -2,2 -1,0 -1,1 -1,1 -1,1 -1,1 -1,1 -1,1 -1,0 -1,1 -1,1 -1,1 -1,1 -1,0 -1,1 -10,0 -1,-1 -3,0 -1,-1 -1,0 -1,-1 -2,0 -1,-1 -2,0 -1,-1 -1,0 -1,-1 -1,0 -1,-1 -1,-1 -1,-1 -1,-1 -1,0 -1,-1 -1,-1 -1,-1 -1,-1 -2,-2 -1,0 -1,-1 -1,-1 -1,-1 -1,-1 -1,-1 -1,-1 -1,-1 -1,-1 -1,0 -1,-1 -1,-1 -1,-1 -1,-1 -1,-1 -1,-1 -1,-1 -1,-1 -1,-1 -1,-1 -1,-1 -1,0 -1,-1 -1,-1 -1,-1 -1,-1 -1,-1 -1,-1 -1,-1 -1,-1 -1,-1 -1,-1 -1,-1 -1,-1 -1,-1 -1,-1 -1,-1 0,-1 -1,-1 -1,-1 0,-1 -2,0 -1,-1 0,-2 -2,0 -1,-1 -1,-1 -1,-1 -1,-1 -1,-1 -1,-1 -1,-1 -1,-1 -1,0 -1,-1 -1,-1 0,-2 -1,-1 -3,0 -1,-1 0,-2 -1,0 -1,-1 -2,0 0,2 -1,1 -4,0 0,5 1,0 1,1 1,1 1,1 0,1 2,0 1,1 0,1 1,0 1,1 1,0 1,1 1,0 1,1 1,1 1,1 1,1 1,0 1,1 1,1 1,0 1,1 1,0 1,1Z"/>
<path onmouseover="hoverPath(evt)" onmouseout="recoverPath(evt)" fill="rgb(242,240,231)" d="M  62,142l 0,-1 -1,-1 0,-2 -1,-1 0,-1 -1,-1 0,-2 -1,-1 0,-2 -1,-1 0,-1 -1,-1 -4,0 -1,1 -4,0 -1,-1 -1,0 -1,1 -1,0 -1,1 0,4 1,1 0,1 2,0 1,1 0,2 1,1 0,1 1,1 0,3 1,1 0,1 1,1 0,2 1,1 0,3 -1,1 0,1 1,1 0,1 2,0 1,1 0,2 1,1 0,2 1,1 0,1 2,2 3,0 1,-1 5,0 1,1 2,0 1,-1 1,0 0,-2 1,-1 1,0 1,-1 -1,-1 0,0 -1,-1 0,-2 -1,-1 -1,-1 -1,-1 -2,0 -1,-1 0,-1 -1,-1 0,-2 1,-1 0,-1 -1,-1 0,-2 -1,-1 0,-1 -2,0 -1,-1Z"/>
<path onmouseover="hoverPath(evt)" onmouseout="recoverPath(evt)" fill="rgb(195,218,156)" d="M  87,213l -1,0 -1,-1 0,1 -1,1 -7,0 -1,-1 -17,0 0,4 -1,1 0,11 2,0 1,1 0,2 -1,1 -4,0 -1,1 -1,0 0,5 1,1 0,7 2,0 0,-8 1,-1 1,-1 11,0 1,1 4,0 1,1 0,3 -1,1 -2,0 0,12 42,0 0,-3 -1,-1 0,0 -1,-1 -2,0 -1,-1 -1,-1 -1,0 -1,-1 -4,0 -1,-1 0,-2 1,-1 0,-1 -1,-1 0,0 -1,-1 -1,-1 0,-3 1,-1 7,0 1,-1 3,0 1,-1 0,-4 1,-1 0,-2 -1,-1 0,-3 -1,-1 0,-2 -1,-1 0,-2 -1,-1 0,-1 -2,0 -1,1 -5,0 -1,-1 -7,0 -1,-1 -1,0 -1,1 -2,0 -1,-1Z"/>
<path onmouseover="hoverPath(evt)" onmouseout="recoverPath(evt)" fill="rgb(236,235,225)" d="M  89,54l 0,1 1,1 3,0 1,1 1,1 1,1 1,1 1,0 1,1 0,1 1,1 0,1 1,1 1,1 1,1 1,1 0,1 1,1 1,1 0,1 1,1 0,1 1,1 0,1 1,1 2,0 1,-1 1,0 1,-1 1,0 1,-1 2,0 1,-1 1,0 1,-1 2,0 1,-1 1,0 0,-2 1,-1 2,0 1,1 2,0 1,-1 2,0 1,-1 2,0 1,-1 1,0 1,-1 2,0 1,-1 2,0 1,-1 1,0 1,-1 2,0 1,-1 2,0 1,-1 1,0 1,-1 2,0 1,-1 2,0 1,-1 -1,-1 0,-3 1,-1 0,-3 1,-1 -2,0 -1,1 0,0 -1,1 -1,0 -1,1 -2,0 -1,1 -1,0 -1,1 -2,0 -1,1 -3,0 -1,1 -1,0 0,2 -1,1 -2,0 -1,-1 -2,0 -1,1 0,0 -1,1 -2,0 -1,1 -1,0 -1,1 -5,0 -1,-1 -5,0 -1,-1 -1,-1 -1,-1 0,-1 -1,-1 0,-1 -1,-1 0,-1 -1,-1 0,-1 -1,-1 -1,-1 0,-1 -1,-1 0,-1 -1,-1 -1,-1 0,-4 1,-1 1,0 0,-1 1,-1 1,0 1,-1 1,0 1,-1 1,0 1,-1 1,0 0,-2 1,-1 3,0 1,1 2,0 1,-1 1,0 -1,-1 0,-2 -1,-1 0,-2 -1,-1 -1,-1 0,-1 -1,0 -1,-1 0,-1 -2,0 -1,-1 0,-3 -2,0 -1,-1 0,-1 -2,0 0,5 -1,1 -1,0 -1,1 -2,0 -1,-1 0,-2 -3,0 -1,-1 0,-1 -4,0 -1,-1 -1,-1 -1,-1 4,4 0,5 -1,1 -2,0 0,2 -1,1 -2,0 0,2 -1,1 -1,1 -2,0 0,1 -1,1 -2,0 2,1 0,0 1,1 0,2 -1,1 -3,0 0,2 -1,1 0,2 1,1 0,1 1,1 0,2 1,1 0,2 1,1 0,3 -1,1Z"/>
<path onmouseover="hoverPath(evt)" onmouseout="recoverPath(evt)" fill="rgb(243,241,232)" d="M  138,93l -1,0 0,4 -1,1 1,1 0,0 1,1 1,1 2,0 1,1 0,1 1,0 1,1 1,0 1,1 2,0 1,1 12,0 1,-1 2,0 1,-1 1,0 1,-1 1,0 1,-1 1,0 1,-1 1,-1 1,0 1,-1 1,-1 0,-1 1,-1 1,0 -1,-1 0,-1 -1,-1 -1,-1 -1,0 -1,-1 0,-2 -1,-1 -1,-1 -1,-1 0,-1 -1,-1 -1,-1 0,-1 -1,-1 -1,-1 -1,-1 0,-1 -1,-1 0,-1 -2,0 -1,-1 0,-1 -3,0 -1,1 -1,0 -1,1 -1,0 -1,1 0,2 1,1 0,4 -1,1 -1,0 -1,1 -1,0 -1,1 -1,0 -1,1 -2,0 -1,-1 -1,1 0,2 -1,1 -1,1 -1,0 -1,1Z"/>
<path onmouseover="hoverPath(evt)" onmouseout="recoverPath(evt)" fill="rgb(241,239,228)" d="M  156,116l 0,-2 -1,-1 0,-2 -5,0 -1,-1 -3,0 -1,-1 -3,0 -1,1 -2,0 -1,1 -1,1 -1,0 0,2 1,1 1,0 1,1 1,1 1,1 4,0 1,1 1,1 0,2 2,0 1,1 1,1 0,2 1,1 1,1 1,1 1,1 1,1 1,1 1,1 1,0 1,1 2,-2 0,-1 3,-3 1,-1 0,-1 1,-1 1,-1 1,-1 0,-1 1,-1 1,-1 1,-1 0,-2 1,-1 1,0 1,-1 0,-1 1,-1 0,-1 1,-1 1,0 1,-1 1,-1 1,-1 1,-1 0,-1 2,-2 0,-2 1,-1 -1,-1 0,0 -1,-1 -1,-1 -1,-1 0,-1 -1,0 -1,-1 0,-1 -1,-1 -3,-3 -1,-1 0,-1 -1,-1 -1,-1 -1,-1 0,-2 -1,0 -1,-1 5,8 4,4 1,2 0,1 -1,1 -1,0 0,1 -1,1 -1,1 0,2 -1,1 -1,1 -2,0 -1,-1 -1,1 -1,0 -1,1 -1,0 0,2 -1,1 -1,1 -4,0 0,9 -1,1 -2,0 -1,-1Z"/>
<path onmouseover="hoverPath(evt)" onmouseout="recoverPath(evt)" fill="rgb(242,240,231)" d="M  194,213l -1,1 0,1 -1,1 1,1 1,1 1,1 1,1 1,1 1,1 1,1 1,0 1,1 1,1 1,0 1,1 0,1 1,1 1,1 1,1 1,1 1,1 1,1 1,1 1,1 1,1 1,0 1,1 1,1 1,1 3,0 1,1 1,1 1,1 1,1 1,1 1,1 1,1 2,0 1,1 10,0 0,-7 1,-1 1,0 1,-1 2,0 1,1 0,2 1,-2 0,0 1,-1 1,-1 1,0 1,-1 1,-1 1,-1 2,0 0,-8 -1,0 -1,1 -2,0 -1,-1 0,-2 -1,0 -1,-1 -1,0 -1,1 -2,0 -1,-1 -1,0 -1,-1 -1,0 -1,-1 0,-2 -1,0 -1,-1 -4,0 0,3 -1,1 -6,0 -1,-1 0,-2 -3,0 -1,-1 -3,0 -1,1 -5,0 -1,-1 -3,0 -1,-1 0,-2 -1,1 -2,0 -1,-1 -1,-1 -1,-1 -1,0 -1,-1 -1,0 -1,-1 -1,0 -1,1 -1,1Z"/>
<path onmouseover="hoverPath(evt)" onmouseout="recoverPath(evt)" fill="rgb(248,239,158)" d="M  235,253l -1,0 -1,-1 -2,0 1,1 0,2 23,0 0,-19 -1,0 -1,1 0,0 -1,1 -1,1 -1,0 -1,1 -1,1 0,1 -1,1 -2,0 -1,-1 0,-2 -1,1 -1,0 0,7 -1,1 -1,0 0,1 -1,1 -1,1 -1,1Z"/>
<path onmouseover="hoverPath(evt)" onmouseout="recoverPath(evt)" fill="rgb(211,225,183)" d="M  17,205l -2,0 -1,1 -1,0 -1,1 -1,0 -1,1 -1,0 -1,1 -1,0 -1,1 -1,0 -1,1 -4,0 0,2 17,0 1,1 0,16 1,1 0,7 1,1 0,9 1,-10 1,0 0,-12 1,-1 1,0 -2,-1 0,0 -1,-1 0,-8 1,-1 11,0 1,-1 3,0 1,-1 -1,0 -1,-1 0,-2 1,-1 6,0 1,1 16,0 -7,-1 -5,0 -1,-1 -6,0 -1,-1 -6,0 -1,-1 -13,0 -1,-1 -1,1Z"/>
<path onmouseover="hoverPath(evt)" onmouseout="recoverPath(evt)" fill="rgb(252,252,251)" d="M  63,103l 0,2 2,0 1,1 0,1 1,1 1,1 0,1 1,1 1,1 1,1 1,1 1,1 1,1 1,1 1,1 1,1 1,1 1,1 1,1 1,1 1,1 1,0 1,1 1,1 1,1 1,1 1,1 1,1 1,1 1,1 1,1 1,1 1,1 1,0 1,1 1,1 1,1 1,1 3,3 1,1 1,0 1,1 1,1 1,1 1,1 1,1 1,1 1,0 1,1 1,1 1,1 1,1 1,0 1,1 1,0 1,1 2,0 1,1 2,0 1,1 1,0 1,1 3,0 1,1 8,0 1,-1 1,0 1,-1 1,-1 1,-1 1,-1 1,0 2,-2 1,-1 3,-3 1,0 1,-1 1,-1 2,-2 0,-1 1,-1 1,-1 1,-1 1,-1 1,-1 1,-1 0,-1 1,-1 1,-1 1,-1 0,-1 1,-1 1,-1 1,-1 0,-1 1,-1 2,-2 1,-1 0,-1 1,-1 2,-2 0,-1 4,-4 0,-1 3,-3 1,-1 1,-1 1,-1 0,-1 1,-1 1,-1 1,-1 1,-1 1,-1 1,-1 1,-1 1,-1 1,-1 1,-1 1,-1 1,-1 1,-1 1,-1 1,-1 1,-1 1,-1 1,-1 1,-1 1,-1 1,-1 1,0 1,-1 1,-1 1,-1 2,0 1,-1 -1,-1 -2,0 -1,1 0,0 -1,1 -1,0 -1,1 -1,1 -1,1 -1,1 -2,0 -1,-1 -1,0 -1,-1 -1,-1 -1,-1 -1,-1 -1,-1 6,6 0,2 -1,1 -2,0 -1,1 -1,1 -1,1 -1,1 -1,1 -1,1 -1,1 -1,1 -1,1 0,2 -1,1 -1,0 -1,1 0,2 -1,1 -1,1 0,1 -1,1 -1,1 -1,1 -1,1 -1,1 -1,0 0,1 -1,1 0,1 -1,1 -1,1 -1,0 0,2 -1,1 -1,1 -1,1 0,1 -1,1 -1,1 -1,1 0,1 -1,1 -1,1 -1,1 -1,1 0,1 -1,1 -1,1 -1,1 -2,0 -1,-1 -1,0 -1,-1 -1,-1 -1,-1 -1,-1 -1,-1 -1,-1 -1,-1 -1,-1 0,-2 -1,-1 -2,0 -1,-1 0,-2 -1,-1 -4,0 -1,-1 -1,-1 -1,-1 -1,0 -1,-1 -1,-1 0,-4 1,-1 1,0 1,-1 1,-1 2,0 1,-1 5,0 1,1 0,-1 1,1 2,0 1,1 5,0 1,1 0,2 1,1 0,-4 1,-1 4,0 1,-1 -1,0 -5,1 -7,0 -88,-5 74,4 -1,1 -1,0 -1,1 -1,0 -1,1 -4,0 -1,-1 0,1 1,1 0,1 1,1 1,1 1,0 1,1 1,1 1,1 1,0 1,1 1,1 1,0 1,1 1,1 1,1 1,1 1,0 1,1 1,1 1,1 0,1 1,0 1,1 1,1 1,1 1,1 1,0 1,1 1,1 1,1 1,1 1,1 1,1 0,3 -1,1 -1,1 -1,1 -2,0 -1,1 -1,1 0,2 -1,1 -1,1 -1,1 -1,1 -1,0 -1,1 -1,0 0,1 -2,2 -1,1 -1,0 -1,1 -9,0 -1,-1 -3,0 -1,-1 -2,0 -1,-1 0,-2 -1,1 -3,0 -1,-1 -1,-1 -1,0 -1,-1 -1,-1 -1,-1 0,-1 -2,0 -1,-1 -1,-1 -1,-1 -1,-1 -1,-1 0,-1 -1,0 -1,-1 -1,0 -1,-1 -1,-1 -1,-1 -1,-1 -1,-1 -1,-1 0,-1 -1,0 -1,-1 -1,-1 -1,0 -1,-1 -1,-1 -1,-1 -1,-1 -1,-1 -1,-1 -1,-1 -1,-1 0,-1 -1,0 -1,-1 -1,-1 -1,0 -1,-1 -1,-1 -1,-1 -1,-1 -1,-1 -1,-1 -1,-1 -1,-1 -1,-1 -1,-1 0,-1 -1,-1 0,-1 -1,-1 -1,-1 0,-1 -1,0 -1,-1 -1,-1 -1,0 74,5 -74,-4 63,6 1,-1 0,-1 -1,0 -1,-1 -1,-1 0,-1 -1,-1 -1,-1 -1,-1 0,-1 -1,-1 -1,-1 0,-2 -1,0 -1,-1 -1,-1 0,-1 -1,-1 -1,-1 0,-1 -1,-1 0,-1 -1,-1 -1,-1 0,-1 -1,-1 0,-3 1,-1 1,0 1,-1 2,0 1,-1 1,0 1,-1 2,0 1,-1 1,0 1,-1 2,0 1,-1 2,0 1,-1 1,0 1,-1 2,0 1,-1 2,0 1,-1 1,0 1,-1 2,0 1,-1 2,0 1,-1 1,0 1,-1 2,0 1,-1 2,0 1,-1 1,0 1,-1 2,0 1,-1 2,0 1,-1 1,0 1,-1 2,0 1,-1 5,0 1,1 1,1 0,-4 1,-1 1,0 0,-1 -2,0 -1,1 -1,0 -1,1 -5,0 -1,-1 0,2 -1,1 -1,1 -2,0 -1,1 -2,0 -1,1 -1,0 -1,1 -2,0 -1,1 -2,0 -1,1 -1,0 -1,1 -2,0 -1,1 -2,0 -1,1 -1,0 -1,1 -2,0 -1,1 -2,0 -1,1 -4,0 -1,-1 0,2 -1,1 -1,0 -1,1 -2,0 -1,1 -1,0 -1,1 -2,0 -1,1 -1,0 -1,1 -1,0 -1,1 -4,0 -1,-1 -1,-1 0,-1 -1,-1 0,-1 -1,-1 0,-1 -1,-1 -1,-1 0,-1 -1,-1 -1,-1 -1,-1 -1,-1 0,-1 -1,-1 0,-1 -1,0 -1,-1 -1,-1 -1,-1 -1,-1 -1,0 1,1 1,1 0,2 1,0 1,1 1,1 1,1 1,1 1,1 1,1 0,1 1,1 1,1 0,2 -1,1 1,1 0,1 1,1 0,1 2,0 1,1 0,1 1,1 0,1 1,1 1,1 1,1 0,2 -1,1 2,0 1,1 1,1 0,2 -1,1 2,0 1,1 1,1 1,1 0,1 1,1 1,1 0,4 1,1 2,0 1,1 1,1 1,1 0,1 1,1 -63,-6 101,-48 -1,-1 0,1 1,0 -101,48 79,2 -1,0 -1,-1 0,0 -1,1 0,1 1,-1 0,-2 2,2 -79,-2Z"/>
<path onmouseover="hoverPath(evt)" onmouseout="recoverPath(evt)" fill="rgb(243,242,233)" d="M  108,190l -1,0 -1,1 0,4 5,0 1,1 2,0 1,1 0,2 1,0 1,1 0,8 1,-6 2,0 1,1 0,1 1,1 1,1 1,1 0,1 1,1 1,0 1,1 1,0 1,1 1,1 1,0 1,1 2,0 1,1 1,0 1,1 2,0 1,1 1,0 1,1 1,0 1,1 1,0 1,1 1,0 1,1 1,0 1,1 1,0 1,1 4,0 1,1 4,0 1,-1 5,0 1,1 0,2 -1,1 1,0 1,1 0,1 1,-2 2,0 1,1 0,4 -1,1 0,2 -1,1 0,2 -1,1 0,2 -1,1 0,1 1,1 0,3 1,1 0,3 1,1 0,4 53,0 0,-1 -1,0 -1,-1 -2,0 -1,-1 -1,-1 0,-2 -3,0 -1,-1 -1,-1 -1,-1 0,-3 -1,-1 -1,-1 -1,-1 -1,-1 -1,-1 -1,-1 -1,-1 -1,-1 -1,-1 -1,-1 -2,0 -1,-1 0,-1 -1,-1 -1,-1 -1,-1 -1,-1 -1,-1 -1,-1 -1,-1 -1,-1 -1,-1 -1,-1 -1,0 -1,-1 -1,0 -1,-1 0,-1 -1,-1 -1,-1 -1,-1 -1,-1 -1,-1 -1,-1 -1,-1 -1,-1 -1,-1 -1,-1 -1,-1 -1,-1 -1,-1 -1,-1 -1,-1 -2,0 -1,-1 0,-1 -1,-1 -1,-1 -1,-1 -1,-1 -1,-1 -1,-1 -1,-1 -2,0 -1,-1 0,-1 -1,-1 -1,-1 -2,0 -1,-1 0,-1 -1,-1 -2,0 -1,-1 0,-1 -1,-1 -1,1 -3,0 -1,-1 -1,0 -1,1 -4,0 -1,1 -5,0 -1,1 -4,0 -1,1 -5,0 -1,1 -10,0 -1,1Z"/>
<path onmouseover="hoverPath(evt)" onmouseout="recoverPath(evt)" fill="rgb(243,241,233)" d="M  114,38l -1,0 0,1 -1,1 -1,0 0,2 1,1 0,0 1,1 0,1 1,1 0,1 1,1 1,1 0,1 1,1 0,1 1,1 0,1 1,1 0,1 1,1 1,1 5,0 1,1 3,0 1,-1 1,0 1,-1 2,0 1,-1 1,-1 4,0 1,1 0,-2 1,-1 1,0 1,-1 3,0 1,-1 2,0 1,-1 1,0 1,-1 2,0 1,-1 1,0 1,-1 1,-1 3,0 1,-1 1,0 1,-1 1,-1 1,-1 0,-5 -1,-1 0,-1 -1,-1 -1,-1 0,-1 -1,-1 0,-1 -1,-1 0,-2 -1,-1 -1,-1 0,-1 -1,-1 -9,0 -1,-1 -1,0 -1,1 -2,0 0,2 -1,1 -1,0 -1,1 -2,0 -1,1 -1,0 -1,1 -1,0 -1,1 -1,0 -1,1 -4,0 -1,1 -1,0 -1,1 -4,0 -1,-1 -1,0 0,2 -1,1 -1,0 -1,1 -1,0 -1,1 -1,0 -1,1Z"/>
<path onmouseover="hoverPath(evt)" onmouseout="recoverPath(evt)" fill="rgb(212,187,185)" d="M  246,111l -1,0 -1,-1 0,-2 -1,-1 0,-6 -1,-1 0,-2 -1,-1 0,-2 -1,-1 0,-4 1,-1 1,-1 1,0 1,-1 -1,0 2,-1 1,0 -6,3 0,6 -1,1 -1,1 -1,1 -2,0 0,3 1,1 0,0 1,1 1,1 1,1 1,1 0,3 1,1 1,1 1,1 1,1 1,0 1,-1 0,-1 2,0 0,1 1,0 1,-1Z"/>
<path onmouseover="hoverPath(evt)" onmouseout="recoverPath(evt)" fill="rgb(240,237,227)" d="M  248,87l 0,0 -1,1 -1,0 -1,1 -1,1 -1,0 -1,1 0,2 1,1 0,2 1,1 0,2 1,1 0,6 1,1 0,2 4,0 1,-1 1,0 1,-1 2,0 0,-32 -2,0 -1,1 -1,0 -1,1 -1,0 -1,1 -1,1 -1,0 -1,1 -1,0 -1,1 -1,0 -1,1 -1,1 -2,0 -1,1 -1,0 -1,1 -1,1 0,1 1,1 0,2 -1,1 0,1 1,1 0,2 -1,1 -1,1 2,-1 1,0 1,-1 0,0 1,-1 0,-6 1,-1 1,0 1,-1 1,-1 1,0 1,-1 3,0 1,1Z"/>
</svg>