<svg width="256" height="256" xmlns="http://www.w3.org/2000/svg"><script> 
var tempColor;
function hoverPath(evt){
obj = evt.target;
tempColor = obj.getAttribute("fill");
obj.setAttribute("fill","red");
//alert(tempColor);
//obj.setAttribute("stroke","red");}
function recoverPath(evt){
obj = evt.target;
obj.setAttribute("fill", tempColor);
//obj.setAttribute("stroke", tempColor);
}</script><path onmouseover="hoverPath(evt)" onmouseout="recoverPath(evt)" fill="rgb(184,145,237)" d="M  0,136l 0,13 2,0 1,-1 4,0 1,-1 1,0 1,-1 0,-1 1,-1 1,0 1,-1 2,0 1,-1 1,-1 5,0 1,-1 1,-1 5,0 1,-1 1,-1 5,0 1,-1 3,0 1,-1 1,-1 5,0 1,-1 1,-1 5,0 1,-1 3,0 1,-1 1,-1 5,0 1,-1 1,-1 4,0 1,-1 4,0 1,-1 1,-1 5,0 1,-1 3,0 1,-1 1,-1 5,0 1,-1 1,-1 5,0 1,-1 1,-1 2,0 1,-1 5,0 1,-1 1,-1 5,0 1,-1 1,-1 5,0 1,-1 1,-1 5,0 1,-1 1,-1 5,0 1,-1 1,-1 5,0 1,-1 1,-1 5,0 1,-1 1,-1 5,0 1,-1 2,0 1,-1 1,-1 5,0 1,-1 2,0 1,-1 2,0 1,-1 2,0 1,-1 1,-1 2,0 1,-1 2,0 1,-1 4,0 1,-1 2,0 1,-1 2,0 1,-1 1,-1 4,0 1,-1 2,0 1,-1 3,0 1,-1 1,0 0,-1 1,-1 3,0 1,-1 2,0 1,-1 4,0 1,-1 2,0 0,-1 1,-1 4,0 1,-1 3,0 0,-1 1,-1 3,0 1,1 1,1 1,0 1,1 1,0 1,-1 1,0 1,-1 1,0 1,-1 1,0 1,-1 1,-1 2,0 0,-16 -1,1 -2,0 -1,1 -2,0 -1,1 -1,1 -2,0 -1,1 -2,0 -1,1 -4,0 -1,1 -2,0 -1,1 -2,0 -1,1 -2,0 -2,2 -2,0 -1,1 -4,0 -1,1 -2,0 -1,1 -1,0 -1,1 -2,0 -1,1 -2,0 -1,1 -1,1 -2,0 -1,1 -4,0 0,1 -1,1 -2,0 -1,1 -2,0 -1,1 -2,0 -1,1 -2,0 -1,1 -5,0 -1,1 -4,0 -1,1 -2,0 -1,1 -2,0 -1,1 -2,0 1,1 0,2 -1,1 -2,0 -1,1 -2,0 -1,-1 -1,1 -3,0 -1,-1 -1,0 -1,-1 -2,0 -1,1 -3,0 -1,1 0,2 -1,1 -1,0 -1,1 -4,0 -1,1 -1,1 -5,0 -1,1 -3,0 -1,1 -2,0 -1,-1 -3,0 -1,1 -3,0 -1,1 -3,0 0,3 -1,1 -5,0 -1,1 -1,1 -5,0 -1,1 -3,0 -1,1 -1,1 -5,0 -1,1 -1,1 -4,0 -1,1 -4,0 -1,1 -1,1 -5,0 -1,1 -1,1 -4,0 -1,1 -4,0 -1,1 -1,1 -5,0 -2,2 -4,0 -1,1 -4,0 -1,1 -1,1 -5,0 -1,1 -1,1 -5,0 -1,1 -1,1 -5,0 -1,1 -1,1 -5,0 -1,1 -1,0 -1,1 -2,0 -1,-1 -1,-1 -2,0 -1,-1 -1,0 0,4 -1,1 -3,0Z"/>
<path onmouseover="hoverPath(evt)" onmouseout="recoverPath(evt)" fill="rgb(244,243,236)" d="M  116,12l 0,2 1,1 0,2 1,1 0,2 1,1 0,2 1,1 0,2 1,1 0,2 1,1 0,2 1,1 0,2 1,1 0,2 1,1 0,2 1,1 0,3 1,1 0,2 1,1 0,3 1,1 0,2 1,1 0,3 1,1 0,1 1,1 0,2 1,1 0,2 1,1 0,2 1,1 0,2 1,1 0,2 1,1 0,1 1,1 1,0 1,1 0,2 1,-1 3,0 1,-1 4,0 1,1 1,0 0,-3 1,-1 2,0 1,1 1,0 1,-1 2,0 1,-1 4,0 1,-1 3,0 1,-1 2,0 1,-1 3,0 1,-1 3,0 1,-1 3,0 1,-1 2,0 1,-1 3,0 1,-1 3,0 1,-1 2,0 1,-1 2,0 1,-1 2,0 1,-1 3,0 1,-1 2,0 1,-1 2,0 1,-1 2,0 1,-1 2,0 1,-1 2,0 1,-1 2,0 1,-1 1,0 1,-1 3,0 1,-1 2,0 1,-1 2,0 1,-1 2,0 1,-1 1,0 1,-1 2,0 1,-1 2,0 1,-1 2,0 1,-1 3,0 0,-48 -105,0 0,2 -1,1 -3,0 -1,1 -2,0 -1,1 -3,0 -1,1 -2,0 -1,1 -3,0 -1,1 -2,0 -1,1 -3,0 -1,1 -2,0 -1,1 -3,0 -1,1Z"/>
<path onmouseover="hoverPath(evt)" onmouseout="recoverPath(evt)" fill="rgb(252,252,250)" d="M  165,244l 0,0 -1,-1 0,4 3,0 1,-1 1,0 1,-1 2,0 1,-1 2,0 1,-1 2,0 1,-1 1,0 1,-1 1,0 1,-1 1,0 1,-1 1,0 1,-1 1,0 1,-1 1,0 1,-1 1,0 1,-1 1,0 1,-1 1,0 1,-1 4,0 1,1 0,-3 1,-1 1,-1 1,0 1,-1 1,-1 2,0 1,1 0,-2 1,-1 1,-1 1,0 1,-1 1,0 1,-1 1,0 1,-1 1,0 1,-1 2,0 1,1 0,-2 1,-1 1,0 1,-1 1,0 1,-1 1,-1 1,0 1,-1 1,0 1,-1 2,0 1,1 0,-2 1,-1 1,-1 2,0 1,1 1,-1 1,0 0,-2 1,-1 4,0 1,1 1,1 1,1 1,1 0,1 1,1 1,1 1,0 0,-3 -2,0 -1,-1 -1,-1 0,-1 -1,-1 -1,-1 0,-1 -1,-1 -1,-1 0,-1 -1,-1 0,-1 -1,0 -1,-1 -1,-1 0,-2 -1,0 -1,-1 -1,-1 0,-1 -1,-1 -1,-1 -1,-1 0,-1 -1,-1 -1,-1 0,-1 -1,-1 0,-3 1,-1 1,0 1,-1 1,0 1,-1 2,0 1,-1 1,0 1,-1 2,0 1,-1 1,0 1,-1 2,0 1,-1 3,0 0,-2 -1,0 -1,1 -2,0 -1,1 -2,0 -1,1 -1,0 -1,1 -2,0 -1,1 -1,0 -1,1 -1,0 -1,1 -1,0 -1,1 -1,0 -1,1 -3,0 -1,-1 -1,-1 0,2 1,1 1,1 0,1 1,1 0,3 1,1 2,0 1,1 1,1 1,1 0,1 3,3 0,1 1,1 1,1 0,1 1,1 1,1 0,3 -1,1 -1,0 -1,1 -1,0 -1,1 -1,0 -1,1 -1,1 -1,0 -1,1 -1,0 -1,1 -1,1 -1,0 -1,1 -2,0 -1,-1 -1,1 -1,0 -1,1 -1,0 -1,1 -1,0 0,1 -1,1 -2,0 -1,-1 -1,-1 1,2 0,2 -1,1 -1,1 -3,0 -1,-1 -1,-1 -1,-1 -1,0 -1,1 0,0 1,1 0,4 -1,1 -1,1 -1,0 -1,1 0,0 -1,1 -5,0 -1,-1 1,2 0,1 -1,1 -1,0 -1,1 -1,1 -1,0 -1,1 -1,0 -1,1 -1,0 -1,1 -1,0 -1,1 -1,0 -1,1 -1,0 -1,1 -1,0 -1,1 -2,0 -1,1 -1,0 -1,1 -2,0 -1,1 -2,0 -1,1 -3,0 -1,-1 63,-65 1,-1 0,0 -1,-1 0,0 -1,-1 0,-2 -1,0 -1,-1 -1,-1 0,-1 -1,-1 -1,-1 -1,-1 0,-1 -1,-1 -1,-1 0,-2 -1,0 -1,-1 -1,-1 0,-1 -1,-1 -1,-1 -1,-1 0,-1 -1,-1 -1,-1 0,-2 -1,0 -1,-1 -1,-1 0,-1 -1,-1 -1,-1 0,-2 -1,0 -1,-1 -1,-1 0,-1 -1,-1 -1,-1 0,-2 -1,0 -1,-1 -1,-1 0,-1 -1,-1 -1,-1 0,-1 -1,-1 -1,-1 0,-1 -1,-1 -1,-1 0,-1 -1,-1 -1,-1 0,-1 -1,-1 -1,-1 0,-2 -1,0 -1,-1 -1,-1 0,-1 -1,-1 0,-1 -1,-1 -1,-1 0,-1 -1,-1 0,-1 -1,-1 0,-2 1,-1 1,-1 1,0 1,-1 2,0 1,-1 1,0 1,-1 2,0 1,-1 2,0 1,-1 1,0 1,-1 2,0 1,-1 2,0 1,-1 1,0 1,-1 2,0 1,-1 2,0 1,-1 2,0 1,-1 2,0 1,-1 1,0 1,-1 2,0 1,-1 2,0 1,-1 2,0 1,-1 1,0 1,-1 2,0 1,-1 2,0 1,-1 1,0 1,-1 4,0 1,1 1,1 1,1 0,1 1,1 1,1 0,1 1,1 1,1 0,1 1,1 1,1 0,1 1,1 1,1 0,1 1,1 1,0 0,-4 -2,0 -1,-1 -1,-1 0,-1 -1,-1 -1,-1 0,-1 -1,-1 -1,-1 0,-1 -1,-1 -1,-1 0,-1 -1,-1 0,-2 1,-1 -2,0 -1,-1 -1,0 -1,-1 -1,-1 -1,0 1,1 0,3 -1,1 -1,1 -2,0 -1,1 -1,0 -1,1 -2,0 -1,1 -2,0 -1,1 -2,0 -1,1 -2,0 -1,1 -1,0 -1,1 -2,0 -1,1 -2,0 -1,1 -3,0 -1,-1 0,2 -1,1 -2,0 -1,1 -2,0 -1,1 -3,0 -1,-1 0,2 -1,1 -2,0 -1,1 -3,0 -1,-1 0,2 -1,1 -2,0 -1,1 -3,0 -1,-1 0,2 -1,1 -1,0 -1,1 0,3 -1,1 2,0 1,1 1,1 0,1 1,1 0,2 -1,1 1,0 1,1 0,2 1,1 2,0 1,1 1,1 0,1 1,1 1,1 0,4 2,0 1,1 1,1 0,1 1,1 1,1 0,1 1,1 1,1 0,2 1,0 1,1 1,1 0,1 1,1 1,1 1,1 0,1 1,1 1,1 0,1 1,1 1,1 1,1 0,1 1,1 1,1 0,4 1,1 2,0 1,1 1,1 1,1 0,1 1,1 1,1 0,4 1,1 2,0 1,1 1,1 0,4 1,1 2,0 1,1 -63,65Z"/>
<path onmouseover="hoverPath(evt)" onmouseout="recoverPath(evt)" fill="rgb(244,243,235)" d="M  206,231l -1,0 -1,1 0,2 1,1 0,0 1,1 0,1 1,1 1,1 0,1 1,1 1,1 0,1 1,1 1,1 1,1 0,1 1,1 1,1 1,0 1,1 0,2 1,1 0,2 37,0 0,-39 -2,0 -1,-1 -1,-1 -1,-1 0,-1 -1,-1 -1,-1 -1,-1 -2,0 0,2 -1,1 -1,0 -1,1 -2,0 -1,-1 -1,1 0,2 -1,1 -2,0 -1,-1 -1,1 -1,0 -1,1 -1,0 -1,1 -1,1 -1,0 -1,1 -1,0 0,2 -1,1 -2,0 -1,-1 -1,1 -1,0 -1,1 -1,0 -1,1 -1,0 -1,1 -1,0 -1,1 0,2 -1,1 -2,0 -1,-1 -2,2Z"/>
<path onmouseover="hoverPath(evt)" onmouseout="recoverPath(evt)" fill="rgb(242,241,230)" d="M  243,180l 0,0 -1,1 -2,0 -1,1 -1,0 -1,1 -1,0 0,1 1,1 0,1 1,1 1,1 0,1 1,1 1,1 1,1 0,1 1,1 1,0 1,1 0,2 1,1 1,0 1,1 0,1 1,1 0,1 1,1 1,1 0,1 1,1 1,1 0,1 1,1 1,0 0,-33 -2,0 -1,1 -2,0 -1,1 -1,0 -1,1 -2,0 -1,1Z"/>
<path onmouseover="hoverPath(evt)" onmouseout="recoverPath(evt)" fill="rgb(245,244,237)" d="M  0,1l 0,33 2,0 1,-1 2,0 1,-1 3,0 1,-1 2,0 1,-1 3,0 1,-1 2,0 1,-1 3,0 1,-1 2,0 1,-1 3,0 1,-1 2,0 1,-1 2,0 1,-1 3,0 1,-1 2,0 1,-1 3,0 1,-1 2,0 1,-1 3,0 1,-1 2,0 1,-1 3,0 1,-1 2,0 1,-1 3,0 1,-1 2,0 1,-1 3,0 1,-1 2,0 1,-1 3,0 1,-1 3,0 1,-1 2,0 1,-1 3,0 1,-1 3,0 1,-1 3,0 1,-1 1,0 0,-1 -1,-1 0,-3 -101,0 -1,1Z"/>
<path onmouseover="hoverPath(evt)" onmouseout="recoverPath(evt)" fill="rgb(244,243,236)" d="M  0,45l 0,73 4,0 1,-1 2,0 1,-1 3,0 1,-1 2,0 1,-1 2,0 1,-1 2,0 1,-1 2,0 1,-1 3,0 1,-1 2,0 1,-1 2,0 1,-1 2,0 1,-1 2,0 1,-1 3,0 1,1 1,0 1,-1 0,-1 1,-1 0,-1 1,-1 3,0 1,1 1,0 1,-1 2,0 1,-1 2,0 1,-1 3,0 1,-1 3,0 1,-1 3,0 1,-1 3,0 1,-1 3,0 1,-1 3,0 1,-1 3,0 1,-1 4,0 1,-1 2,0 1,-1 4,0 1,-1 3,0 1,-1 3,0 1,-1 4,0 1,-1 4,0 1,-1 4,0 1,-1 4,0 1,-1 -1,-1 0,-2 -1,-1 0,-2 -1,-1 0,-2 -1,-1 0,-1 -1,-1 0,-2 -1,-1 0,-2 -1,-1 0,-2 -1,-1 0,-2 -1,-1 0,-2 -1,-1 0,-3 -1,-1 0,-2 -1,-1 0,-3 -1,-1 0,-2 -1,-1 0,-2 -1,-1 0,-2 -1,-1 0,-2 -1,-1 0,-2 -1,-1 0,-2 -1,-1 0,-2 -1,-1 0,-3 -1,-1 0,-2 -1,-1 0,-2 -1,-1 -3,0 -1,1 -3,0 -1,1 -2,0 -1,1 -4,0 -1,1 -2,0 -1,1 -3,0 -1,1 -3,0 -1,1 -2,0 -1,1 -2,0 -1,1 -3,0 -1,1 -2,0 -1,1 -3,0 -1,1 -2,0 -1,1 -3,0 -1,1 -2,0 -1,1 -3,0 -1,1 -2,0 -1,1 -2,0 -1,1 -3,0 -1,1 -2,0 -1,1 -3,0 -1,1 -2,0 -1,1 -3,0 -1,1 -2,0 -1,1 -3,0 -1,1 -2,0 -1,1 -3,0 -1,1 -2,0 -1,1 -3,0 -1,1 -2,0 -1,1Z"/>
<path onmouseover="hoverPath(evt)" onmouseout="recoverPath(evt)" fill="rgb(245,244,237)" d="M  110,101l -2,0 -1,1 -3,0 -1,1 -3,0 -1,1 -4,0 -1,1 -3,0 -1,1 -3,0 -1,1 -3,0 -1,1 -3,0 -1,1 -3,0 -1,1 -3,0 -1,1 -3,0 -1,1 -2,0 -1,1 -3,0 -1,1 -2,0 -1,1 -3,0 -1,1 -1,0 -1,1 -3,0 -1,1 -2,0 -1,1 -3,0 -1,1 -2,0 -1,1 -2,0 -1,1 -2,0 -1,1 -3,0 -1,1 -2,0 -1,1 -2,0 -1,1 -2,0 -1,1 -3,0 -1,1 -2,0 -1,1 1,1 0,0 1,-1 1,0 1,-1 5,0 1,-1 1,-1 5,0 1,-1 1,-1 5,0 1,-1 1,-1 5,0 1,-1 1,-1 4,0 1,-1 4,0 1,-1 1,-1 5,0 1,-1 1,-1 4,0 1,-1 4,0 1,-1 1,-1 5,0 2,-2 4,0 1,-1 4,0 1,-1 1,-1 5,0 1,-1 1,-1 3,0 1,-1 5,0 1,-1 -11,2 0,0 15,-4 -2,1 4,0 0,-1Z"/>
<path onmouseover="hoverPath(evt)" onmouseout="recoverPath(evt)" fill="rgb(243,242,233)" d="M  162,255l 54,0 0,-1 -1,-1 0,-2 -1,0 -1,-1 -1,-1 -2,0 -1,-1 -1,-1 -1,-1 0,-2 1,-1 -1,-1 0,0 -1,-1 0,-1 -1,-1 -1,-1 0,-1 -1,-1 -2,0 -1,-1 -2,0 -1,1 -1,0 -1,1 -1,0 -1,1 -1,0 -1,1 -1,0 -1,1 -1,0 -1,1 -1,0 -1,1 -1,0 -1,1 -1,0 -1,1 -1,0 -1,1 -2,0 -1,1 -2,0 -1,1 -2,0 -1,1 -1,0 -1,1 -4,0 -1,1 -3,0 -1,-1 -1,0 -1,1 -2,0 -1,1 -1,0 -1,1 -2,0 -1,1 -1,0 -1,1 -2,0 0,1Z"/>
<path onmouseover="hoverPath(evt)" onmouseout="recoverPath(evt)" fill="rgb(244,243,235)" d="M  0,206l 0,49 143,0 0,-2 1,-1 2,0 1,-1 1,0 1,-1 2,0 1,-1 1,0 1,-1 2,0 1,-1 3,0 1,1 1,0 0,-6 1,-1 2,0 1,1 1,1 1,0 1,-1 2,0 1,-1 2,0 1,-1 1,0 1,-1 2,0 1,-1 1,0 1,-1 1,0 1,-1 1,0 1,-1 1,0 1,-1 1,0 1,-1 1,0 1,-1 1,0 1,-1 1,-1 1,0 -1,-1 0,-2 1,-1 2,0 1,1 3,0 1,-1 1,-1 1,0 1,-1 0,-2 -1,-1 0,-1 -1,-1 -1,-1 0,-2 1,-1 2,0 1,1 1,1 2,0 1,1 1,1 1,1 1,0 1,-1 0,-1 -1,-1 0,-2 1,-1 2,0 1,1 1,1 0,-1 1,-1 1,0 1,-1 1,0 1,-1 1,0 1,-1 2,0 1,1 1,-1 1,0 1,-1 1,-1 1,0 1,-1 1,0 1,-1 1,-1 1,0 1,-1 1,0 1,-1 1,0 0,-1 -1,-1 0,0 -1,-1 0,-1 -1,-1 -1,-1 0,-1 -1,-1 -1,-1 -1,-1 0,-1 -1,-1 -1,-1 -2,0 -1,-1 -1,-1 0,-3 -1,-1 0,-1 -1,-1 -1,-1 0,-1 -1,-1 -2,0 -1,-1 -1,-1 0,-4 -1,-1 -2,0 -1,-1 -1,-1 0,-4 -1,-1 -1,-1 0,-1 -1,-1 -1,-1 -2,0 -1,-1 -1,-1 0,-4 -1,-1 -1,-1 0,-1 -1,-1 -1,-1 -1,-1 0,-1 -1,-1 -1,-1 0,-1 -1,-1 -1,-1 -1,-1 0,-1 -1,-1 -1,0 -1,-1 0,-2 -1,-1 -1,-1 0,-1 -1,-1 -1,-1 0,-1 -1,-1 -2,0 -1,-1 0,-4 -1,-1 -1,-1 0,-1 -1,-1 -2,0 -1,-1 -1,-1 0,-2 -1,0 -1,-1 0,-2 1,-1 -1,-1 0,-1 -1,-1 -2,0 -1,-1 0,-2 1,-1 0,-3 1,-1 1,-1 1,0 0,-2 1,-1 2,0 1,1 1,0 1,-1 2,0 0,-2 1,-1 2,0 1,1 1,0 1,-1 2,0 0,-2 1,-1 2,0 1,1 1,0 1,-1 2,0 1,-1 2,0 0,-2 1,-1 2,0 1,1 1,0 1,-1 2,0 1,-1 2,0 1,-1 1,0 1,-1 2,0 1,-1 2,0 1,-1 2,0 1,-1 2,0 1,-1 1,0 1,-1 2,0 1,-1 0,-1 -3,0 -1,1 -4,0 0,1 -1,1 -2,0 -1,1 -4,0 -1,1 -2,0 -1,1 -3,0 0,1 -1,1 -1,0 -1,1 -3,0 -208,118 206,-117 -1,0 -1,1 -4,0 -1,1 -1,1 -2,0 -1,1 -2,0 -1,1 -4,0 -1,1 -2,0 -1,1 -2,0 -1,1 -1,1 -2,0 -1,1 -2,0 -1,1 -2,0 -1,1 -5,0 -1,1 -1,1 -2,0 -1,1 -5,0 -1,1 -1,1 -5,0 -1,1 -1,1 -5,0 -1,1 -1,1 -5,0 -1,1 -1,1 -5,0 -1,1 -1,1 -5,0 -1,1 -1,1 -5,0 -1,1 -1,1 -5,0 -1,1 -2,0 -1,1 -1,1 -5,0 -1,1 -1,1 -5,0 -1,1 -1,1 -3,0 -1,1 -5,0 -1,1 -1,1 -4,0 -1,1 -4,0 -1,1 -1,1 -5,0 -1,1 -1,1 -3,0 -1,1 -5,0 -1,1 -1,1 -5,0 -1,1 -1,1 -3,0 -1,1 -5,0 -1,1 -1,1 -5,0 -1,1 -1,1 -5,0 -1,1 -1,1 -2,0 -1,1 -1,0 0,1 -1,1 -1,1 -1,0 -1,1 -4,0 -1,1 -3,0 0,54 206,-116 -206,117 202,7 -2,0 -1,-1 -1,-1 0,-2 1,-1 2,0 1,1 1,1 0,2 -1,1 -202,-7 158,29 -2,0 -1,-1 -1,-1 0,-2 1,-1 2,0 1,1 1,1 0,2 -1,1 -158,-29 153,22 -2,0 -1,-1 -1,-1 0,-2 1,-1 2,0 1,1 1,1 0,2 -1,1 -153,-22 193,-5 -2,0 -1,-1 0,-2 1,-1 2,0 1,1 0,2 -1,1 -193,5 188,5 0,2 -1,1 -2,0 -1,-1 -1,-1 0,-2 1,-1 2,0 1,1 1,1 -188,-5 145,11 -2,0 -1,-1 -1,-1 0,-2 1,-1 2,0 1,1 1,1 0,2 -1,1 -145,-11 176,-10 -1,1 -2,0 -1,-1 -1,-1 0,-2 1,-1 2,0 1,1 1,1 0,2 -176,10 178,-24 -2,0 -1,-1 0,-2 1,-1 2,0 1,1 0,2 -1,1 -178,24 167,-20 -2,0 -1,-1 -1,-1 0,-2 1,-1 2,0 1,1 1,1 0,2 -1,1 -167,20 159,-31 -2,0 -1,-1 -1,-1 0,-2 1,-1 2,0 1,1 1,1 0,2 -1,1 -159,31 157,-44 1,1 0,2 -1,1 -2,0 -1,-1 0,-2 1,-1 2,0 -157,44 54,8 -2,0 -1,-1 0,-2 1,-1 2,0 1,1 0,2 -1,1 -54,-8Z"/>
<path onmouseover="hoverPath(evt)" onmouseout="recoverPath(evt)" fill="rgb(247,236,140)" d="M  0,123l 0,9 2,0 0,-4 1,-1 3,0 1,1 1,0 1,-1 0,0 1,-1 2,0 1,-1 3,0 1,-1 2,0 1,-1 2,0 1,-1 2,0 1,-1 3,0 1,-1 2,0 1,-1 2,0 1,-1 2,0 1,-1 3,0 1,-1 2,0 1,-1 3,0 1,-1 1,0 1,-1 3,0 1,-1 2,0 1,-1 3,0 1,-1 2,0 1,-1 3,0 1,-1 3,0 1,-1 3,0 1,-1 3,0 1,-1 3,0 1,-1 3,0 1,-1 3,0 1,-1 4,0 1,-1 3,0 1,-1 3,0 1,-1 5,0 1,-1 3,0 1,-1 3,0 1,-1 5,0 1,1 1,-1 3,0 1,-1 5,0 1,-1 1,-1 4,0 1,-1 1,0 0,-2 1,-1 1,-1 3,0 1,-1 4,0 1,1 1,0 1,1 1,0 1,-1 2,0 1,1 1,-1 2,0 -1,-1 0,-2 1,-1 2,0 1,-1 2,0 1,-1 2,0 1,-1 4,0 1,-1 5,0 1,-1 2,0 1,-1 2,0 1,-1 2,0 1,-1 2,0 0,-1 1,-1 4,0 1,-1 2,0 1,-1 1,-1 2,0 1,-1 2,0 1,-1 1,0 1,-1 2,0 1,-1 4,0 1,-1 2,0 1,-1 1,-1 2,0 1,-1 2,0 1,-1 2,0 1,-1 4,0 1,-1 2,0 1,-1 2,0 1,-1 1,-1 2,0 1,-1 2,0 1,-1 1,0 0,-5 -2,0 -1,1 -2,0 -1,1 -2,0 -1,1 -2,0 -1,1 -1,0 -1,1 -2,0 -1,1 -2,0 -1,1 -2,0 -1,1 -3,0 -1,1 -1,0 -1,1 -2,0 -1,1 -2,0 -1,1 -2,0 -1,1 -2,0 -1,1 -2,0 -1,1 -2,0 -1,1 -3,0 -1,1 -2,0 -1,1 -2,0 -1,1 -2,0 -1,1 -3,0 -1,1 -3,0 -1,1 -2,0 -1,1 -3,0 -1,1 -3,0 -1,1 -3,0 -1,1 -2,0 -1,1 -3,0 -1,1 -4,0 -1,1 -2,0 -1,1 -3,0 -1,-1 0,3 -1,1 -3,0 -1,-1 -2,0 -1,1 -3,0 -1,1 -2,0 -1,-1 0,-2 -1,0 -1,-1 -1,-1 0,-1 -1,-1 0,-2 -1,-1 0,-2 -1,-1 0,-2 -1,-1 0,-2 -1,-1 0,-2 -1,-1 0,-1 -1,-1 0,-3 -1,-1 0,-2 -1,-1 0,-3 -1,-1 0,-2 -1,-1 0,-3 -1,-1 0,-2 -1,-1 0,-2 -1,-1 0,-2 -1,-1 0,-2 -1,-1 0,-2 -1,-1 0,-2 -1,-1 0,-2 -1,-1 0,-2 -1,-1 0,-2 -1,-1 0,-4 1,-1 1,0 1,-1 3,0 1,-1 2,0 1,-1 3,0 1,-1 2,0 1,-1 3,0 1,-1 2,0 1,-1 3,0 1,-1 2,0 1,-1 3,0 0,-1 -44,0 0,2 1,1 0,3 -1,1 -1,0 -1,1 -3,0 -1,1 -3,0 -1,1 -3,0 -1,1 -2,0 -1,1 -3,0 -1,1 -3,0 -1,1 -2,0 -1,1 -3,0 -1,1 -2,0 -1,1 -3,0 -1,1 -2,0 -1,1 -3,0 -1,1 -2,0 -1,1 -3,0 -1,1 -2,0 -1,1 -3,0 -1,1 -2,0 -1,1 -3,0 -1,1 -2,0 -1,1 -2,0 -1,1 -3,0 -1,1 -2,0 -1,1 -3,0 -1,1 -2,0 -1,1 -3,0 -1,1 -2,0 -1,1 -3,0 -1,1 -2,0 -1,1 -3,0 0,6 2,0 1,-1 3,0 1,-1 2,0 1,-1 3,0 1,-1 2,0 1,-1 3,0 1,-1 2,0 1,-1 3,0 1,-1 2,0 1,-1 3,0 1,-1 2,0 1,-1 3,0 1,-1 2,0 1,-1 2,0 1,-1 3,0 1,-1 2,0 1,-1 3,0 1,-1 2,0 1,-1 3,0 1,-1 2,0 1,-1 3,0 1,-1 2,0 1,-1 2,0 1,-1 3,0 1,-1 3,0 1,-1 2,0 1,-1 4,0 1,-1 2,0 1,-1 3,0 1,-1 5,0 1,1 1,1 0,2 1,1 0,2 1,1 0,3 1,1 0,2 1,1 0,2 1,1 0,2 1,1 0,2 1,1 0,2 1,1 0,2 1,1 0,2 1,1 0,3 1,1 0,2 1,1 0,3 1,1 0,2 1,1 0,2 1,1 0,2 1,1 0,2 1,1 0,2 1,1 0,1 1,1 0,2 1,1 0,2 1,1 0,2 1,1 0,2 -1,1 -1,1 -4,0 -1,1 -4,0 -1,1 -4,0 -1,1 -4,0 -1,1 -3,0 -1,1 -3,0 -1,1 -4,0 -1,1 -2,0 -1,1 -4,0 -1,1 -3,0 -1,1 -3,0 -1,1 -3,0 -1,1 -3,0 -1,1 -3,0 -1,1 -3,0 -1,1 -3,0 -1,1 -2,0 -1,1 -2,0 -1,1 -3,0 -1,-1 -1,0 0,1 -1,1 0,1 -1,1 -1,1 -3,0 -1,-1 -1,0 -1,1 -2,0 -1,1 -2,0 -1,1 -2,0 -1,1 -2,0 -1,1 -3,0 -1,1 -2,0 -1,1 -2,0 -1,1 -2,0 -1,1 -2,0 -1,1 -3,0 -1,1 -2,0 -1,1 -5,0Z"/>
<path onmouseover="hoverPath(evt)" onmouseout="recoverPath(evt)" fill="rgb(244,243,235)" d="M  184,106l -1,0 -1,1 1,1 0,1 1,1 0,1 1,1 1,1 0,1 1,1 0,1 1,1 1,0 1,1 0,2 1,1 1,1 0,1 1,1 1,1 0,1 1,1 1,1 0,1 1,1 1,1 0,1 1,1 1,1 0,1 1,1 1,0 1,1 0,2 1,1 1,1 0,1 1,1 1,0 1,1 0,2 1,1 1,1 0,1 1,1 1,0 1,1 0,2 1,1 1,1 0,1 1,1 1,1 1,1 0,1 1,1 1,0 1,1 0,2 2,2 0,1 1,1 1,1 1,1 0,1 1,1 1,0 1,1 0,2 1,1 1,1 0,1 1,1 1,0 1,-1 1,0 1,-1 1,0 1,-1 1,0 1,-1 1,0 1,-1 2,0 1,-1 1,0 1,-1 2,0 1,-1 2,0 1,-1 2,0 0,-68 -2,0 -1,-1 -1,-1 0,-1 -1,-1 -1,-1 0,-1 -1,-1 -1,-1 0,-1 -1,-1 -1,-1 0,-1 -1,-1 -1,-1 0,-1 -1,-1 -1,-1 -2,0 -1,1 -1,0 -1,1 -2,0 -1,1 -2,0 -1,1 -1,0 -1,1 -2,0 -1,1 -2,0 -1,1 -2,0 -1,1 -1,0 -1,1 -2,0 -1,1 -2,0 -1,1 -2,0 -1,1 -2,0 -1,1 -1,0 -1,1 -2,0 -1,1 -2,0 -1,1 -1,0 -1,1 -2,0 -1,1 -2,0 -1,1 -1,0 -1,1 -2,0 -1,1Z"/>
<path onmouseover="hoverPath(evt)" onmouseout="recoverPath(evt)" fill="rgb(241,239,228)" d="M  247,83l 0,1 1,1 1,1 0,1 1,1 1,1 0,1 1,1 1,1 0,1 1,1 1,0 0,-19 -1,0 -1,1 0,0 -1,1 -1,0 -1,1 -1,0 -1,1 -1,0 0,2 -1,1 1,1Z"/>
</svg>