<svg width="256" height="256" xmlns="http://www.w3.org/2000/svg"><script> 
var tempColor;
function hoverPath(evt){
obj = evt.target;
tempColor = obj.getAttribute("fill");
obj.setAttribute("fill","red");
//alert(tempColor);
//obj.setAttribute("stroke","red");}
function recoverPath(evt){
obj = evt.target;
obj.setAttribute("fill", tempColor);
//obj.setAttribute("stroke", tempColor);
}</script><path onmouseover="hoverPath(evt)" onmouseout="recoverPath(evt)" fill="rgb(249,201,111)" d="M  1,56l -1,0 0,6 1,0 1,-1 2,0 1,-1 3,0 1,1 1,1 0,-3 1,-1 1,0 1,-1 1,0 1,-1 2,0 1,-1 2,0 1,1 0,1 1,-2 4,0 1,-1 0,-1 1,-1 1,-1 3,0 1,-1 3,0 1,1 0,-1 1,-1 0,0 1,-1 4,0 1,1 4,0 1,-1 4,0 1,-1 0,-1 1,-1 1,0 1,-1 6,0 1,1 2,0 0,-1 1,-1 2,0 1,1 0,1 1,0 1,-1 1,0 1,-1 3,0 0,-1 1,-1 5,0 1,-1 6,0 1,-1 9,0 1,-1 2,0 1,1 1,0 0,-1 1,-1 5,0 1,-1 3,0 1,1 1,0 0,-1 1,-1 7,0 1,1 2,0 0,-1 1,-1 2,0 1,-1 6,0 1,1 0,1 1,0 1,-1 1,0 1,-1 2,0 1,1 1,0 1,-1 11,0 1,1 2,0 1,-1 4,0 0,-1 1,-1 1,-1 3,0 1,-1 0,-1 1,-1 1,0 1,-1 5,0 1,1 2,0 0,-1 1,-1 1,0 1,-1 4,0 1,-1 3,0 1,1 0,2 2,0 1,-1 3,0 0,-1 1,-1 1,-1 3,0 0,-2 1,-1 4,0 1,1 1,0 0,-2 1,-1 2,0 1,-1 4,0 1,1 1,-1 2,0 0,-2 1,-1 2,0 1,-1 3,0 1,1 0,-2 1,-1 1,0 1,-1 1,0 1,-1 3,0 1,1 0,-2 1,-1 1,0 1,-1 3,0 1,1 0,-2 1,-1 1,0 1,-1 2,0 0,-2 -18,0 0,3 -1,1 -1,0 -1,1 -2,0 -1,-1 0,1 -1,1 -1,1 -2,0 -1,1 -2,0 -1,1 -1,0 -1,1 -2,0 -1,1 -2,0 -1,1 -2,0 -1,1 -3,0 -1,1 -2,0 -1,-1 -1,0 0,1 -2,2 -4,0 -1,1 -3,0 -1,1 -4,0 -1,-1 0,-1 -1,0 -1,1 0,1 -1,1 -1,0 -1,1 -4,0 -1,1 -5,0 -1,-1 0,-1 -1,0 -1,1 0,1 -1,1 -2,0 -1,1 -5,0 -1,-1 0,-1 -1,0 -1,1 0,1 -1,1 -2,0 -1,-1 0,-1 -1,0 -1,1 0,1 -1,1 -2,0 -1,1 -6,0 -1,1 -5,0 -1,1 -7,0 -1,-1 0,-1 -1,0 -1,1 0,1 -1,1 -2,0 -1,1 -6,0 -1,-1 -1,0 -1,-1 0,1 -1,1 -4,0 -1,-1 -1,1 -3,0 0,1 -1,1 -5,0 -1,1 -2,0 -1,-1 0,-1 -2,0 -1,-1 -1,-1 0,2 -1,1 -1,0 -1,1 -1,0 0,1 -1,1 -4,0 -1,-1 0,-1 -2,0 -1,1 -2,0 0,2 -1,1 -6,0 -1,1 -6,0 -1,-1 -1,0 -1,1 -2,0 -1,-1 -1,1 -1,0 0,1 -1,1 -1,1 -3,0 -1,1 -4,0 -1,-1 0,-1 -1,1 0,1 -2,2 -4,0 -1,-1 -1,0 0,1 -1,1 -1,1 -2,0 -1,1 -2,0 -1,1 -2,0 -1,-1 0,-1 -1,2 -2,0 0,1 -1,1 -1,1 -1,0 -1,1 -2,0 -1,1 -2,0 -1,1 -2,0 -1,1 -1,0 -1,1Z"/>
<path onmouseover="hoverPath(evt)" onmouseout="recoverPath(evt)" fill="rgb(244,243,237)" d="M  1,91l -1,0 0,14 1,0 1,-1 2,0 1,-1 5,0 1,-1 2,0 0,-1 1,-1 2,0 1,-1 2,0 1,-1 2,0 1,-1 4,0 1,-1 1,-1 2,0 1,-1 2,0 1,-1 4,0 1,-1 2,0 1,-1 2,0 1,-1 2,0 1,-1 2,0 1,-1 2,0 1,-1 2,0 1,-1 2,0 1,-1 2,0 2,-2 2,0 1,-1 2,0 1,-1 4,0 1,-1 2,0 1,-1 2,0 1,-1 2,0 1,-1 1,-1 1,0 1,-1 3,0 0,-1 -1,0 -3,1 -7,0 -1,1 -6,0 -1,1 -6,0 -1,1 -5,0 -1,1 -5,0 -1,1 -7,0 -1,1 -6,0 -1,1 -3,0 -1,1 -3,0 -1,1 -3,0 -1,1 -3,0 -1,1 -2,0 -1,1 -3,0 -1,1 -2,0 -1,1 -3,0 -1,1 -2,0 -1,1Z"/>
<path onmouseover="hoverPath(evt)" onmouseout="recoverPath(evt)" fill="rgb(244,243,236)" d="M  1,124l -1,0 0,127 4,0 1,-1 3,0 1,-1 3,0 1,-1 3,0 1,-1 3,0 1,-1 3,0 1,-1 4,0 1,-1 4,0 1,-1 3,0 1,-1 4,0 1,-1 3,0 1,-1 3,0 1,-1 3,0 1,-1 3,0 1,-1 3,0 1,-1 3,0 1,-1 3,0 1,-1 3,0 1,-1 3,0 1,-1 3,0 1,-1 3,0 1,-1 3,0 1,-1 3,0 1,-1 3,0 1,-1 3,0 1,-1 3,0 1,-1 3,0 1,-1 3,0 1,-1 3,0 1,-1 3,0 1,-1 3,0 1,-1 3,0 1,-1 3,0 1,-1 2,0 1,-1 3,0 1,-1 2,0 1,-1 2,0 1,-1 2,0 1,-1 2,0 0,-2 1,-1 2,0 1,1 1,0 0,-2 1,-1 2,0 1,1 1,0 1,-1 1,0 1,-1 1,0 1,-1 1,0 1,-1 -1,0 -1,-1 0,-2 -1,-1 0,-2 -1,-1 0,-2 -1,-1 0,-2 -1,-1 0,-1 -1,-1 0,-2 -1,-1 0,-1 -1,-1 0,-2 -1,-1 0,-2 -1,-1 0,-1 -1,-1 0,-2 -1,-1 0,-2 -1,-1 0,-1 -1,-1 0,-2 -1,-1 0,-2 -1,-1 0,-1 -1,-1 0,-2 -1,-1 0,-2 -1,-1 0,-1 -1,-1 0,-2 -1,-1 0,-2 -1,-1 0,-2 -1,-1 0,-1 -1,-1 0,-2 -1,-1 0,-2 -1,-1 0,-1 -1,-1 0,-2 -1,-1 0,-1 -1,-1 0,-1 -1,-1 0,-2 -1,-1 0,-1 -1,-1 0,-1 -1,-1 0,-1 -1,-1 0,-1 -1,-1 0,-2 -1,-1 0,-1 -1,-1 0,-1 -1,-1 0,-1 -1,-1 0,-1 -1,-1 0,-1 -1,-1 0,-1 -1,-1 0,-1 -1,-1 0,-1 -1,-1 0,-1 -1,-1 -1,-1 0,-1 -1,-1 0,-1 -1,-1 0,-1 -1,-1 -1,-1 0,-1 -1,-1 -2,0 -1,1 -2,0 -1,1 -2,0 -1,1 -2,0 -1,1 -2,0 -1,1 -2,0 -1,1 -2,0 -1,1 -2,0 -1,1 -2,0 -1,1 -2,0 -1,1 -2,0 -1,1 -2,0 -1,1 -2,0 -1,1 -2,0 -1,1 -4,0 -1,1 -2,0 -1,1 -2,0 -1,1 -1,1 -2,0 -1,1 -2,0 -1,1 -2,0 -1,1 -2,0 -1,1 -2,0 -1,1 -2,0 -1,1 -2,0 -1,1 -2,0 -1,1 -4,0 -1,1 -1,1 -4,0 -1,1 -2,0 -1,1 -2,0 -1,1 -2,0 -1,1 -2,0 -1,1 -2,0 -1,1 -2,0 -1,1 -2,0 -1,1 -2,0 -1,1 -2,0 -1,1 -1,0 -1,1Z"/>
<path onmouseover="hoverPath(evt)" onmouseout="recoverPath(evt)" fill="rgb(244,243,235)" d="M  80,241l 0,2 1,1 0,2 2,0 1,1 0,2 -1,1 0,1 1,1 0,3 104,0 0,-3 -1,-1 0,-1 -1,-1 0,-2 -1,-1 0,-2 -1,-1 0,-1 -1,-1 0,-2 -1,-1 0,-2 -1,-1 0,-1 -1,-1 0,-2 -1,-1 0,-1 -1,-1 0,-2 -1,-1 0,-2 -1,-1 0,-1 -1,-1 0,-2 -1,-1 0,-2 -1,-1 0,-1 -1,-1 0,-1 -1,0 -1,1 -1,0 -1,1 -1,0 -1,1 -1,0 -1,1 -1,0 -1,1 -2,0 -1,1 -2,0 0,2 -1,1 -2,0 -1,-1 -1,0 -1,1 -2,0 -1,1 -3,0 -1,1 -3,0 -1,1 -2,0 -1,1 -3,0 -1,1 -3,0 -1,1 -3,0 -1,1 -3,0 -1,1 -3,0 -1,1 -3,0 -1,1 -2,0 -1,1 -3,0 -1,1 -3,0 -1,1 -3,0 -1,1 -3,0 -1,1 -3,0 -1,1 -3,0 -1,1 -3,0 -1,1 -3,0 0,2 1,1Z"/>
<path onmouseover="hoverPath(evt)" onmouseout="recoverPath(evt)" fill="rgb(244,243,236)" d="M  132,80l 0,2 1,1 0,1 1,1 0,1 1,1 0,1 1,1 1,1 0,1 1,1 0,1 1,1 0,1 1,1 0,1 1,1 0,1 1,1 0,1 1,1 0,1 1,1 0,2 1,1 0,1 1,1 0,1 1,1 0,1 1,1 0,1 1,1 0,1 1,1 0,1 1,1 0,2 1,1 0,1 1,1 0,1 1,1 0,1 1,1 0,2 1,1 0,2 1,1 0,1 1,1 0,2 1,1 0,2 1,1 0,2 1,1 0,1 1,1 0,2 1,1 0,2 1,1 0,2 1,1 0,1 1,1 0,2 1,1 0,2 1,1 0,2 1,1 0,1 1,1 0,2 1,1 0,2 1,1 0,1 1,1 0,2 1,1 0,2 1,1 0,1 1,1 0,2 1,1 0,2 1,1 0,1 1,1 0,2 1,1 0,2 1,1 1,0 1,1 1,0 1,-1 2,0 1,-1 2,0 1,-1 3,0 1,-1 2,0 0,-2 1,-1 2,0 1,-1 3,0 1,1 2,0 1,-1 2,0 1,-1 3,0 1,-1 2,0 1,-1 2,0 1,-1 3,0 1,-1 2,0 1,-1 3,0 1,-1 2,0 1,-1 3,0 1,-1 2,0 1,-1 3,0 1,-1 2,0 1,-1 2,0 0,-2 1,-1 3,0 0,-138 -2,0 -1,1 -2,0 -1,1 -2,0 -1,1 -2,0 -1,1 -2,0 -1,1 -2,0 -1,1 -2,0 -1,1 -2,0 -1,1 -2,0 -1,1 -2,0 -1,1 -4,0 -1,1 -2,0 -1,1 -2,0 -1,1 -2,0 -1,1 -2,0 -1,1 -2,0 -1,1 -2,0 -1,1 -2,0 0,1 -1,1 -2,0 -1,1 -2,0 -1,1 -2,0 -1,1 -2,0 -1,1 -2,0 -1,1 -2,0 -1,1 -2,0 -1,1 -2,0 -1,1 -2,0 -1,1 -2,0 -1,1 -2,0 -1,1 -4,0 -1,1 -1,1 -2,0 -1,1 -2,0 -1,1 -2,0 -1,1 -2,0 -1,1 -2,0 -1,1 -2,0 -1,1 -2,0 -1,1 -2,0 -1,1 -3,0 -1,1 121,86 0,2 -1,1 -2,0 -1,-1 0,-2 1,-1 2,0 1,1 -121,-86Z"/>
<path onmouseover="hoverPath(evt)" onmouseout="recoverPath(evt)" fill="rgb(182,150,238)" d="M  0,109l 0,13 1,-1 1,0 1,-1 2,0 1,-1 2,0 1,-1 2,0 1,-1 2,0 1,-1 2,0 1,-1 2,0 1,-1 2,0 1,-1 2,0 1,-1 2,0 1,-1 4,0 1,-1 1,-1 4,0 1,-1 2,0 1,-1 2,0 1,-1 2,0 1,-1 2,0 1,-1 2,0 1,-1 2,0 1,-1 2,0 1,-1 2,0 1,-1 1,-1 2,0 1,-1 2,0 1,-1 4,0 1,-1 2,0 1,-1 2,0 1,-1 2,0 1,-1 2,0 1,-1 2,0 1,-1 2,0 1,-1 2,0 1,-1 2,0 1,-1 2,0 1,-1 2,0 1,-1 2,0 1,-1 2,0 1,-1 2,0 1,-1 3,0 1,-1 1,0 0,-2 1,-1 1,-1 3,0 1,1 1,0 1,1 0,1 1,0 0,-3 1,-1 4,0 1,-1 2,0 1,-1 2,0 1,-1 2,0 1,-1 2,0 1,-1 2,0 1,-1 2,0 1,-1 2,0 1,-1 2,0 1,-1 1,-1 4,0 1,-1 2,0 1,-1 2,0 1,-1 2,0 1,-1 2,0 1,-1 2,0 1,-1 2,0 1,-1 2,0 1,-1 2,0 1,-1 2,0 1,-1 2,0 1,-1 2,0 0,-1 1,-1 2,0 1,-1 2,0 1,-1 2,0 1,-1 2,0 1,-1 2,0 1,-1 2,0 1,-1 2,0 1,-1 4,0 1,-1 2,0 1,-1 2,0 1,-1 2,0 1,-1 2,0 1,-1 2,0 1,-1 2,0 1,-1 2,0 1,-1 2,0 1,-1 2,0 1,-1 3,0 0,-15 -2,0 -1,1 -2,0 -1,1 -2,0 -1,1 -2,0 -1,1 -2,0 -1,1 -2,0 -1,1 -2,0 -1,1 -2,0 -1,1 -2,0 -1,1 -2,0 -1,1 -2,0 -1,1 -2,0 -1,1 -2,0 -1,1 -2,0 -1,1 -2,0 -1,1 -2,0 0,1 -1,1 -2,0 -1,1 -2,0 -1,1 -2,0 -1,1 -2,0 -1,1 -2,0 -1,1 -2,0 -1,1 -2,0 -1,1 -2,0 -1,1 -2,0 -1,1 -2,0 -1,1 -2,0 -1,1 -2,0 -1,1 -2,0 -1,1 -2,0 -1,1 -2,0 -1,1 -2,0 -1,1 -2,0 -1,1 -2,0 -1,1 -2,0 -1,1 -3,0 -1,1 -1,0 -1,1 -2,0 -1,1 -5,0 -1,-1 -1,0 -1,1 -2,0 -1,1 -1,0 -1,1 -2,0 -1,1 -1,0 -1,1 0,1 -1,1 -1,1 -4,0 -1,1 0,1 -1,1 -1,1 -2,0 -1,-1 -1,0 -1,-1 0,-2 1,-1 0,-2 -1,0 -1,1 -3,0 -1,1 -3,0 -1,1 -6,0 -1,-1 0,-1 -1,-1 0,-1 -1,0 -1,-1 0,-2 -1,-1 0,-1 -1,-1 0,-1 -1,-1 0,-1 -1,-1 0,-1 -1,-1 0,-1 -1,-1 0,-1 -1,-1 0,-1 -1,-1 0,-3 -3,0 1,1 0,2 1,1 0,1 1,1 0,1 1,1 0,1 1,1 0,1 1,1 1,1 0,1 1,1 0,1 1,1 0,1 1,1 0,-1 -1,-2 -1,-2 -1,-2 -86,54 90,-45 1,1 0,3 -1,1 -1,1 -6,0 -1,1 -7,0 -1,1 -7,0 -1,1 -7,0 -1,1 -7,0 -1,1 -7,0 -1,1 -7,0 -1,1 -3,0 -1,1 -2,0 -1,1 -2,0 -1,1 -2,0 -1,1 -2,0 -1,1 -2,0 -1,1 -3,0 -1,1 -2,0 -1,1 -2,0 -1,1 -5,0 0,3 4,0 1,-1 2,0 1,-1 3,0 1,-1 2,0 1,-1 3,0 1,-1 2,0 1,-1 3,0 1,-1 3,0 1,-1 3,0 1,-1 3,0 1,-1 6,0 1,-1 7,0 1,-1 5,0 1,-1 5,0 1,-1 6,0 1,-1 6,0 1,-1 9,0 1,-1 3,0 1,1 0,3 -1,1 -3,0 -1,1 -1,0 -1,1 -1,1 -2,0 -1,1 -2,0 -1,1 -2,0 -1,1 -4,0 -1,1 -2,0 -1,1 -2,0 -1,1 -1,1 -2,0 -1,1 -2,0 -1,1 -2,0 -1,1 -2,0 -1,1 -2,0 -1,1 -2,0 -1,1 -2,0 -1,1 -2,0 -1,1 -4,0 -1,1 -2,0 -1,1 -2,0 -1,1 -1,1 -4,0 -1,1 -2,0 -1,1 -2,0 -1,1 -2,0 0,1 -1,1 -2,0 -1,1 -5,0 -1,1 -2,0 -1,1 -2,0 0,1 90,-44 -90,45Z"/>
<path onmouseover="hoverPath(evt)" onmouseout="recoverPath(evt)" fill="rgb(243,240,231)" d="M  84,45l 0,0 1,1 0,1 1,1 0,1 1,1 0,1 1,1 0,1 1,1 0,1 1,1 0,1 1,1 0,1 1,1 0,2 1,0 1,1 0,1 1,1 0,1 4,0 1,-1 3,0 1,-1 3,0 0,-1 -1,-1 0,-1 -1,-1 0,-1 -1,-1 0,-1 -1,-1 0,-1 -1,-1 0,-1 -1,-1 -1,-1 0,-1 -1,-1 0,-1 -1,-1 0,-1 -1,-1 0,-2 -2,0 -1,-1 0,-1 -2,0 -1,1 -6,0 -1,1Z"/>
<path onmouseover="hoverPath(evt)" onmouseout="recoverPath(evt)" fill="rgb(248,237,137)" d="M  95,25l 0,0 -1,-1 -1,-1 -1,0 -1,-1 0,-2 -1,-1 -1,-1 -1,0 -1,-1 0,-2 -1,-1 -1,-1 -1,0 -1,-1 0,-2 -1,-1 -1,-1 -1,-1 -1,0 -1,-1 0,-2 -1,-1 -1,-1 0,-2 -10,0 0,1 1,0 1,1 0,2 1,1 1,0 1,1 0,2 1,1 1,0 1,1 0,2 1,1 1,1 1,0 1,1 0,2 1,1 1,1 1,0 1,1 0,1 1,1 0,1 1,1 1,1 1,0 1,1 0,1 2,0 1,1 1,1 2,0 1,1 0,-1 1,-1 0,0 1,-1 1,0 -1,-1 -1,-1Z"/>
<path onmouseover="hoverPath(evt)" onmouseout="recoverPath(evt)" fill="rgb(243,240,230)" d="M  100,0l -22,0 0,1 1,1 0,0 1,1 0,2 1,0 1,1 1,1 1,1 1,1 0,2 1,0 1,1 1,1 1,1 0,2 1,0 1,1 1,1 1,1 0,2 1,0 1,1 1,1 1,1 1,1 1,1 0,2 -1,1 -1,0 -1,1 4,0 0,-1 1,-1 3,0 1,-1 2,0 1,1 2,0 0,-1 1,-1 2,0 1,1 1,0 1,1 4,0 1,-1 2,0 0,-1 1,-1 1,-1 3,0 1,1 0,1 5,0 1,-1 5,0 1,-1 6,0 1,-1 2,0 0,-1 1,-1 1,-1 3,0 1,1 0,1 1,-2 0,0 1,-1 3,0 1,1 0,1 3,0 1,-1 2,0 0,-1 1,-1 1,-1 3,0 1,1 0,1 3,0 1,-1 4,0 1,-1 1,0 0,-1 1,-1 1,-1 3,0 1,1 0,1 2,0 1,-1 3,0 1,-1 4,0 1,-1 0,-1 1,-1 1,-1 2,0 1,1 0,1 1,-1 3,0 1,-1 2,0 1,-1 2,0 1,-1 2,0 1,-1 1,0 1,-1 2,0 1,-1 2,0 1,-1 0,-2 1,-1 2,0 1,1 0,1 1,-1 1,0 0,-2Z"/>
<path onmouseover="hoverPath(evt)" onmouseout="recoverPath(evt)" fill="rgb(242,238,228)" d="M  109,41l 0,0 1,1 0,1 1,1 0,1 1,1 0,1 1,1 1,1 0,1 1,1 0,1 1,1 0,1 1,1 0,1 1,1 0,1 1,1 1,-1 2,0 1,-1 1,0 1,-1 1,0 1,-1 2,0 1,-1 1,0 1,-1 1,0 1,-1 1,0 1,-1 2,0 1,-1 1,0 1,-1 1,0 1,-1 1,0 1,-1 1,0 1,-1 2,0 1,-1 1,0 1,-1 1,0 1,-1 2,0 1,-1 1,0 1,-1 1,-1 2,0 1,-1 2,0 1,-1 3,0 1,-1 1,0 1,-1 1,-1 3,0 1,-1 1,0 1,-1 2,0 1,-1 1,0 1,-1 1,0 1,-1 1,0 1,-1 2,0 1,-1 1,0 1,-1 1,0 0,-2 -1,0 -1,1 -4,0 -1,1 -1,0 0,1 -1,1 -4,0 -1,-1 -3,0 -1,1 -1,0 0,1 -1,1 -1,1 -3,0 -1,1 0,1 -1,1 -4,0 -1,1 -4,0 -1,-1 -9,0 -1,1 -3,0 -1,-1 -1,1 -1,0 -1,1 -3,0 -1,-1 0,-1 -4,0 -1,1 -2,0 0,1 -1,1 -4,0 -1,-1 -5,0 0,1 -1,1 -3,0 -1,-1 -1,0 -1,1 -5,0 1,1 1,1Z"/>
<path onmouseover="hoverPath(evt)" onmouseout="recoverPath(evt)" fill="rgb(173,195,230)" d="M  120,61l -1,0 0,1 1,1 2,0 1,-1 1,0 1,-1 2,0 1,-1 1,0 1,-1 2,0 1,-1 2,0 1,-1 1,0 1,-1 2,0 1,-1 1,-1 1,0 1,-1 1,0 1,-1 1,0 1,-1 2,0 1,-1 1,0 1,-1 2,0 1,-1 1,0 1,-1 2,0 1,-1 2,0 1,-1 1,0 1,-1 1,0 1,-1 1,0 1,-1 2,0 1,-1 1,0 1,-1 1,0 1,-1 2,0 1,-1 1,0 1,-1 2,0 1,-1 1,0 1,-1 2,0 1,-1 1,0 1,-1 2,0 1,-1 2,0 1,-1 1,0 1,-1 2,0 1,-1 1,0 1,-1 2,0 1,-1 2,0 1,-1 1,0 1,-1 2,0 1,-1 1,0 1,-1 2,0 1,-1 1,0 1,-1 2,0 1,-1 1,0 1,-1 2,0 1,-1 1,0 1,-1 2,0 1,-1 1,0 1,-1 2,0 1,-1 2,0 1,-1 1,0 1,-1 1,0 1,-1 2,0 1,-1 1,0 1,-1 2,0 0,-5 -1,0 -1,1 -1,0 0,2 -1,1 -2,0 -1,-1 -1,0 -1,1 -1,0 0,2 -1,1 -2,0 -1,-1 -1,0 -1,1 -1,0 -1,1 -1,0 0,2 -1,1 -2,0 -1,-1 -1,0 -1,1 -2,0 0,2 -1,1 -2,0 -1,1 -2,0 -1,-1 -2,0 -1,1 -2,0 0,2 -1,1 -3,0 -1,-1 -2,0 0,2 -1,1 -3,0 -1,1 0,1 -1,1 -3,0 -1,1 -3,0 -1,1 -1,0 -1,1 -1,0 -1,1 -2,0 -1,1 -1,0 -1,1 -1,0 -1,1 -1,0 -1,1 -2,0 -1,1 -1,0 -1,1 -3,0 -1,1 -1,1 -1,0 -1,1 -3,0 -1,1 -2,0 -1,1 -2,0 -1,1 -1,1 -1,0 -1,1 -2,0 -1,1 -1,0 -1,1 -1,0 -1,1 -2,0 -1,1 -1,0 -1,1 -1,0 -1,1 -1,0 -1,1 -1,0 -1,1 -2,0 -1,1 -1,0 -1,1 -1,0 -1,1 -1,0 -1,1 -2,0 -1,1 -1,0 -1,1 -1,0 -1,1 -2,0 -1,1Z"/>
<path onmouseover="hoverPath(evt)" onmouseout="recoverPath(evt)" fill="rgb(251,251,248)" d="M  0,254l 0,1 35,0 0,-1 -1,-1 0,-1 -1,-1 0,-3 1,-1 2,0 1,-1 3,0 1,-1 3,0 1,-1 3,0 1,-1 3,0 1,-1 4,0 1,-1 3,0 1,-1 3,0 1,-1 3,0 1,-1 4,0 1,1 1,1 0,2 1,1 0,2 1,1 0,1 1,1 0,2 1,1 0,1 1,1 0,2 1,0 0,-2 -1,-1 0,-3 1,-1 -2,0 -1,-1 0,-2 -1,-1 0,-2 -1,-1 0,-4 1,-1 3,0 1,-1 3,0 1,-1 3,0 1,-1 3,0 1,-1 3,0 1,-1 3,0 1,-1 3,0 1,-1 3,0 1,-1 2,0 1,-1 3,0 1,-1 3,0 1,-1 3,0 1,-1 3,0 1,-1 3,0 1,-1 3,0 1,-1 2,0 1,-1 3,0 1,-1 3,0 1,-1 2,0 1,-1 3,0 1,1 0,-2 1,-1 2,0 1,-1 2,0 1,-1 1,0 1,-1 1,0 1,-1 1,0 1,-1 1,0 1,-1 2,0 0,-2 -1,1 -1,0 -1,1 -1,0 -1,1 -1,0 -1,1 -3,0 -1,-1 0,2 -1,1 -3,0 -1,-1 0,2 -1,1 -2,0 -1,1 -2,0 -1,1 -2,0 -1,1 -2,0 -1,1 -3,0 -1,1 -2,0 -1,1 -3,0 -1,1 -3,0 -1,1 -3,0 -1,1 -3,0 -1,1 -3,0 -1,1 -3,0 -1,1 -3,0 -1,1 -3,0 -1,1 -3,0 -1,1 -3,0 -1,1 -3,0 -1,1 -3,0 -1,1 -3,0 -1,1 -3,0 -1,1 -3,0 -1,1 -3,0 -1,1 -3,0 -1,1 -3,0 -1,1 -3,0 -1,1 -3,0 -1,1 -3,0 -1,1 -3,0 -1,1 -3,0 -1,1 -4,0 -1,1 -3,0 -1,1 -4,0 -1,1 -4,0 -1,1 -3,0 -1,1 -3,0 -1,1 -3,0 -1,1 -3,0 -1,1 -3,0 -1,1 -4,0 -1,1Z"/>
<path onmouseover="hoverPath(evt)" onmouseout="recoverPath(evt)" fill="rgb(241,241,230)" d="M  37,249l -2,0 0,1 1,1 0,1 1,1 0,2 42,0 0,-1 -1,-1 0,-1 -1,-1 0,-2 -1,-1 0,-1 -1,-1 0,-2 -1,-1 0,-2 -1,-1 -2,0 -1,1 -3,0 -1,1 -3,0 -1,1 -3,0 -1,1 -4,0 -1,1 -3,0 -1,1 -3,0 -1,1 -3,0 -1,1 -3,0 -1,1Z"/>
<path onmouseover="hoverPath(evt)" onmouseout="recoverPath(evt)" fill="rgb(242,240,231)" d="M  208,201l -1,0 0,3 1,1 0,3 -1,1 0,1 -1,1 0,1 1,1 0,1 1,1 1,1 0,2 1,1 0,1 1,1 0,5 1,1 2,0 0,-2 1,-1 3,0 1,-1 2,0 0,-1 1,-1 1,0 1,-1 0,-2 1,-1 1,0 4,-4 1,-1 0,-1 1,-1 0,-3 1,-1 2,0 1,1 3,0 1,1 1,0 0,-2 1,-1 3,0 1,1 1,0 0,-2 1,-1 3,0 1,-1 3,0 0,-15 -3,0 -1,1 -2,0 -1,1 -3,0 -1,1 -2,0 -1,1 -3,0 -1,1 -2,0 -1,1 -3,0 -1,1 -2,0 -1,1 -2,0 -1,1 -2,0 -1,1 -3,0 -1,1 -2,0 -1,1 -3,0 -1,1 -1,0 -1,1Z"/>
<path onmouseover="hoverPath(evt)" onmouseout="recoverPath(evt)" fill="rgb(242,240,230)" d="M  222,255l 33,0 0,-51 -2,0 -1,1 -3,0 0,2 -1,1 -3,0 -1,-1 -1,0 0,2 -1,1 -3,0 -1,-1 -3,0 -1,-1 0,3 -1,1 0,1 -1,1 -3,3 -1,1 -1,1 -1,0 0,2 -1,1 -1,1 -1,0 0,1 -1,1 -2,0 -1,1 -3,0 0,2 -1,1 -4,0 -1,-1 -1,-1 0,-5 -1,-1 0,-1 -1,-1 0,-2 -1,-1 -1,-1 0,-1 -2,0 -1,-1 -1,-1 -3,0 -1,1 -5,0 -1,-1 -1,-1 0,-5 -2,0 -1,1 -3,0 -1,1 1,0 1,1 0,2 1,1 0,2 1,1 0,2 1,1 0,2 -1,1 0,1 2,0 1,1 0,2 -1,1 0,1 2,0 1,1 0,2 1,1 0,1 1,1 0,2 1,1 0,2 1,1 0,1 1,1 0,2 1,1 0,2 1,1 0,1 1,1 0,2 1,1 0,3 21,0 -31,-31 0,-2 1,-1 2,0 1,1 1,1 0,2 -1,1 -2,0 -1,-1 -1,-1 31,31 -30,-35 -2,0 -1,-1 0,-2 1,-1 2,0 1,1 0,2 -1,1 30,35 -2,-4 -1,-1 0,-2 1,-1 2,0 1,1 0,2 -1,1 -2,0 2,4Z"/>
<path onmouseover="hoverPath(evt)" onmouseout="recoverPath(evt)" fill="rgb(244,241,233)" d="M  0,67l 0,17 4,0 1,-1 2,0 1,-1 2,0 1,-1 3,0 1,-1 2,0 1,-1 2,0 1,-1 2,0 1,-1 2,0 1,-1 2,0 1,-1 3,0 1,-1 7,0 1,-1 7,0 1,-1 7,0 1,-1 7,0 1,-1 7,0 1,-1 7,0 1,-1 6,0 1,-1 0,-1 -1,-1 0,-1 -1,-1 -1,-1 0,-1 -1,-1 0,-1 -1,-1 0,-1 -1,-1 -1,-1 0,-1 -1,-1 0,-1 -1,-1 0,-1 -1,-1 0,-1 -1,-1 0,-2 -3,0 -1,1 -1,0 -1,1 -3,0 -1,-1 0,0 -1,1 -4,0 -1,-1 -4,0 -1,1 -1,0 0,1 -1,1 -1,1 -4,0 -1,1 -3,0 -1,1 -2,0 -1,-1 0,-1 -2,0 -1,1 0,1 -1,1 -2,0 -1,-1 -1,0 -1,1 -3,0 -1,1 0,1 -1,1 -1,1 -4,0 0,1 -1,1 -2,0 -1,-1 0,-1 -1,1 -2,0 -1,1 -1,0 -1,1 -1,0 0,3 -1,1 -2,0 -1,-1 -1,-1 -1,0 -1,1 -2,0 -1,1 -2,0Z"/>
<path onmouseover="hoverPath(evt)" onmouseout="recoverPath(evt)" fill="rgb(241,239,232)" d="M  3,0l -3,0 0,54 1,0 1,-1 1,0 1,-1 2,0 1,-1 2,0 1,-1 2,0 1,-1 1,0 1,-1 0,-1 1,-1 2,0 0,-1 1,-1 2,0 1,1 0,1 1,-1 2,0 1,-1 2,0 1,-1 0,-1 1,-1 3,0 1,1 2,0 1,-1 0,-1 2,-2 2,0 1,1 0,1 2,0 1,-1 3,0 1,-1 0,-1 1,-1 1,0 1,-1 2,0 1,1 1,-1 3,0 1,1 4,0 1,-1 6,0 0,-2 1,-1 2,0 1,-1 4,0 1,1 0,1 2,0 0,-1 1,-1 1,0 1,-1 1,0 0,-1 -1,-1 0,-1 -1,0 -1,-1 -1,-1 -1,-1 0,-1 -1,-1 0,-1 -1,0 -1,-1 -1,-1 -1,-1 0,-2 -1,0 -2,-2 -1,-1 0,-2 -1,0 -1,-1 -1,-1 0,-2 -1,0 -1,-1 -1,-1 0,-2 -1,0 -1,-1 0,-2Z"/>
<path onmouseover="hoverPath(evt)" onmouseout="recoverPath(evt)" fill="rgb(246,233,137)" d="M  100,41l -4,0 3,1 0,2 1,1 0,1 1,1 0,1 1,1 0,1 1,1 1,1 0,1 1,1 0,1 1,1 0,1 1,1 0,1 1,1 0,1 1,1 0,1 2,0 1,1 0,4 -1,1 1,0 1,1 0,0 1,-1 0,-1 2,-2 4,0 1,-1 -2,0 -1,-1 -1,-1 0,-3 -1,-1 0,-1 -1,-1 0,-1 -1,-1 0,-1 -1,-1 0,-1 -1,-1 0,-1 -1,-1 -1,-1 0,-1 -1,-1 0,-1 -1,-1 0,-1 -1,-1 -1,-1 -3,0 -1,-1 -1,1Z"/>
<path onmouseover="hoverPath(evt)" onmouseout="recoverPath(evt)" fill="rgb(248,237,138)" d="M  123,83l 0,0 -1,1 0,2 1,1 1,1 0,1 1,1 0,1 1,1 0,1 1,1 1,1 0,1 1,1 0,1 1,1 0,1 1,1 0,1 1,1 0,1 1,1 0,1 1,1 0,1 1,1 0,1 1,1 0,1 1,1 0,2 1,1 0,1 1,1 0,1 1,1 0,1 1,1 0,1 1,1 0,2 1,1 0,1 1,1 0,1 1,1 0,2 1,1 0,1 1,1 0,2 1,1 0,2 1,1 0,1 1,1 0,2 1,1 0,2 1,1 0,2 1,1 0,1 1,1 0,2 1,1 0,2 1,1 0,1 1,1 0,2 1,1 0,2 1,1 0,1 1,1 0,2 1,1 0,2 1,1 0,1 1,1 0,2 1,1 0,2 1,1 0,1 1,1 0,2 1,1 0,1 1,1 0,2 1,1 0,2 1,1 0,2 1,1 0,2 1,0 1,1 0,1 1,1 0,5 1,1 0,1 1,1 0,2 1,1 0,2 1,1 0,1 1,1 0,2 1,1 0,2 1,1 0,1 1,1 0,2 1,1 0,1 1,1 0,2 1,1 0,2 1,1 0,1 1,1 0,2 1,1 0,2 1,1 0,1 1,1 0,4 9,0 0,-2 -1,-1 0,-2 -1,-1 0,-1 -1,-1 0,-2 -1,-1 0,-2 -1,-1 0,-1 -1,-1 0,-2 -1,-1 0,-2 -1,-1 0,-1 -1,-1 0,-2 -2,0 -1,-1 0,-3 1,-1 -2,0 -1,-1 0,-3 1,-1 -1,-1 0,-2 -1,-1 0,-2 -1,-1 0,-2 -1,0 -1,-1 0,-1 -1,-1 0,-5 1,-1 -1,0 -1,-1 0,0 -1,-1 0,-2 -1,-1 0,-2 -1,-1 0,-1 -1,-1 0,-2 -1,-1 0,-2 -1,-1 0,-1 -1,-1 0,-2 -1,-1 0,-2 -1,-1 0,-1 -1,-1 0,-2 -1,-1 0,-2 -1,-1 0,-1 -1,-1 0,-2 -1,-1 0,-2 -1,-1 0,-2 -1,-1 0,-1 -1,-1 0,-2 -1,-1 0,-2 -1,-1 0,-2 -1,-1 0,-1 -1,-1 0,-2 -1,-1 0,-2 -1,-1 0,-2 -1,-1 0,-1 -1,-1 0,-2 -1,-1 0,-2 -1,-1 0,-1 -1,-1 0,-1 -1,-1 0,-1 -1,-1 0,-2 -1,-1 0,-1 -1,-1 0,-1 -1,-1 0,-1 -1,-1 0,-1 -1,-1 0,-1 -1,-1 0,-1 -1,-1 0,-2 -1,-1 0,-1 -1,-1 0,-1 -1,-1 0,-1 -1,-1 0,-1 -1,-1 0,-1 -1,-1 0,-1 -1,-1 0,-1 -1,-1 -1,-1 0,-1 -1,-1 0,-1 -1,-1 0,-1 -1,-1 -2,0 -1,-1 0,-1 -1,0 -1,-1 -1,0 -1,1Z"/>
<path onmouseover="hoverPath(evt)" onmouseout="recoverPath(evt)" fill="rgb(244,243,237)" d="M  146,55l -1,0 -1,1 -1,0 -1,1 -1,1 -2,0 -1,1 2,0 2,-1 1,0 1,-1 1,0 1,-1 0,-1 3,1 1,-1 2,0 1,-1 2,0 1,-1 2,0 1,-1 2,0 1,-1 2,0 1,-1 2,0 1,-1 2,0 1,-1 2,0 1,-1 2,0 1,-1 2,0 1,-1 2,0 1,-1 2,0 1,-1 2,0 1,-1 2,0 1,-1 2,0 1,-1 2,0 1,-1 2,0 1,-1 2,0 1,-1 2,0 0,-1 1,-1 2,0 1,-1 2,0 1,-1 2,0 1,-1 2,0 1,-1 2,0 1,-1 2,0 1,-1 2,0 1,-1 2,0 1,-1 2,0 1,-1 2,0 1,-1 2,0 1,-1 2,0 1,-1 2,0 1,-1 2,0 1,-1 2,0 1,-1 3,0 0,-9 -1,0 -1,1 -1,0 -1,1 -2,0 -1,1 -1,0 -1,1 -1,0 -1,1 -2,0 -1,1 -2,0 -1,1 -1,0 -1,1 -2,0 -1,1 -1,0 -1,1 -2,0 -1,1 -1,0 -1,1 -2,0 -1,1 -1,0 -1,1 -2,0 -1,1 -1,0 -1,1 -2,0 -1,1 -1,0 -1,1 -2,0 -1,1 -2,0 -1,1 -1,0 -1,1 -2,0 -1,1 -1,0 -1,1 -2,0 -1,1 -2,0 -1,1 -1,0 -1,1 -2,0 -1,1 -1,0 -1,1 -2,0 -1,1 -1,0 -1,1 -2,0 -1,1 -1,0 -1,1 -1,0 -1,1 -2,0 -1,1 -1,0 -1,1 -1,0 -1,1 -1,0 -1,1 -2,0 -1,1 -2,0 -1,1 -1,0 -1,1 -2,0 -1,1 -1,0 -1,1 -1,0 -1,3 -3,-1Z"/>
<path onmouseover="hoverPath(evt)" onmouseout="recoverPath(evt)" fill="rgb(251,251,248)" d="M  205,203l 0,-3 1,-1 1,0 1,-1 1,0 1,-1 3,0 1,-1 2,0 1,-1 3,0 1,-1 2,0 1,-1 2,0 1,-1 2,0 1,-1 3,0 1,-1 2,0 1,-1 3,0 1,-1 2,0 1,-1 3,0 1,-1 2,0 1,-1 4,0 0,-6 -2,0 0,2 -1,1 -2,0 -1,1 -2,0 -1,1 -3,0 -1,1 -2,0 -1,1 -3,0 -1,1 -2,0 -1,1 -3,0 -1,1 -2,0 -1,1 -3,0 -1,1 -2,0 -1,1 -2,0 -1,1 -3,0 -1,1 -2,0 -1,1 -4,0 -1,-1 -1,0 -1,1 -2,0 0,2 -1,1 -2,0 -1,1 -3,0 -1,1 -2,0 -1,1 -2,0 -1,1 -2,0 -1,1 0,3 1,-1 3,0 1,-1 4,0 1,1 0,5 1,1 3,0 1,-1 5,0 1,1 1,1 0,-2 1,-1 0,-1 1,-1 0,-1 -1,-1Z"/>
</svg>