<svg width="256" height="256" xmlns="http://www.w3.org/2000/svg"><script> 
var tempColor;
function hoverPath(evt){
obj = evt.target;
tempColor = obj.getAttribute("fill");
obj.setAttribute("fill","red");
//alert(tempColor);
//obj.setAttribute("stroke","red");}
function recoverPath(evt){
obj = evt.target;
obj.setAttribute("fill", tempColor);
//obj.setAttribute("stroke", tempColor);
}</script><path onmouseover="hoverPath(evt)" onmouseout="recoverPath(evt)" fill="rgb(244,242,235)" d="M  0,120l 0,117 1,0 1,-1 2,0 1,1 1,-1 1,-1 0,-2 -1,-1 0,-1 -1,0 -1,-1 0,-3 1,-1 2,0 1,1 1,0 1,1 0,1 3,0 1,1 1,-1 0,0 1,-1 1,-1 1,-1 2,0 0,-1 2,-2 1,-1 1,0 0,-1 1,-1 1,0 1,-1 1,-1 2,-2 1,0 2,-2 1,-1 1,-1 2,0 0,-1 1,-1 1,-1 1,-1 1,-1 2,0 0,-1 1,-1 1,-1 1,-1 1,-1 1,0 0,-3 1,-1 2,-2 1,-1 1,-1 2,0 1,1 1,0 0,-1 1,-1 2,-2 1,-1 1,-1 1,0 1,-1 1,-1 1,-1 1,-1 1,0 0,-1 1,-1 1,0 1,-1 3,0 1,1 1,1 0,1 1,0 1,1 1,0 1,1 0,1 1,0 1,1 1,1 1,1 1,1 1,1 1,1 1,1 1,1 0,1 1,0 1,1 0,-3 1,-1 0,-1 -1,-1 -1,-1 -1,0 -1,-1 -1,-1 -1,-1 -1,-1 -1,-1 -1,-1 -1,-1 -1,0 -1,-1 0,-1 -1,-1 -1,-1 -1,0 -1,-1 -1,-1 -5,-5 -1,-1 -1,0 -1,-1 0,-1 -1,-1 -1,0 -1,-1 -5,-5 -1,-1 -2,-2 -1,0 -1,-1 0,-1 -1,0 -1,-1 -1,-1 -1,-1 -1,-1 -1,-1 -1,-1 -1,-1 -1,-1 -1,-1 -1,-1 -1,0 -1,-1 0,-1 -1,0 -1,-1 -1,-1 -1,-1 -1,-1 -1,0 -1,-1 0,-1 -1,-1 -1,-1 -1,-1 -1,-1 -1,0 -1,-1 -1,-1 -1,-1 -1,-1 -1,-1 -1,-1 -1,0 -1,-1 0,-1 -1,0 -1,-1 0,-2 -1,-1 -4,0 -1,-1 0,-2 -1,-1 -1,0 -1,-1 -1,-1 0,-2 -6,0 -1,-1 -1,-1 -1,0Z"/>
<path onmouseover="hoverPath(evt)" onmouseout="recoverPath(evt)" fill="rgb(171,198,236)" d="M  11,115l 0,2 1,1 1,0 1,1 1,1 0,2 4,0 2,2 0,2 1,0 1,1 0,1 1,0 1,1 5,5 1,0 4,4 1,1 0,1 1,0 2,2 1,1 1,1 1,0 1,1 0,1 1,0 1,1 1,1 1,1 1,1 1,1 1,1 1,1 1,1 1,1 1,1 1,0 1,1 0,1 1,0 1,1 1,1 1,1 1,1 1,1 1,1 1,1 1,1 1,1 1,0 1,1 1,1 0,1 1,0 1,1 1,1 1,1 1,1 1,1 1,1 1,1 1,1 1,0 1,1 1,1 1,1 0,1 1,0 2,2 1,1 1,1 1,1 1,1 1,1 1,0 1,1 1,1 1,1 0,1 1,0 1,1 1,1 1,1 1,1 1,1 1,1 1,1 1,1 1,1 1,0 1,1 1,1 1,1 0,1 1,0 1,1 1,1 1,1 1,1 1,1 1,1 1,1 1,1 1,1 1,1 1,1 1,0 1,1 1,1 1,1 0,1 1,0 1,1 1,1 1,1 1,1 1,1 1,1 1,1 1,1 1,1 1,1 1,1 1,0 1,1 1,1 1,1 1,1 0,1 1,0 1,1 1,1 1,1 1,1 1,1 1,1 1,1 1,0 1,1 1,1 1,1 1,1 1,1 1,1 1,1 1,1 1,1 0,2 9,0 0,-1 -1,-1 0,0 -1,-1 -1,-1 -1,-1 -1,-1 -1,0 -1,-1 -1,-1 -1,-1 -1,-1 -1,-1 -1,-1 -1,-1 -1,-1 -1,-1 -1,-1 -1,-1 -1,-1 -1,0 -1,-1 -1,-1 -1,-1 -1,-1 -1,-1 -1,-1 -1,-1 -1,-1 -1,-1 -1,-1 -1,-1 -1,-1 -1,-1 -1,0 -1,-1 -1,-1 -1,-1 -1,-1 -1,-1 -1,-1 -1,-1 -1,-1 -1,-1 -1,-1 -1,-1 -1,-1 -1,0 -1,-1 -1,-1 -1,-1 -1,-1 -1,-1 -1,-1 -1,-1 -1,-1 -1,-1 -1,-1 -1,-1 -1,-1 -1,-1 -1,0 -1,-1 -2,-2 -1,-1 -1,-1 -1,-1 -1,-1 -1,-1 -1,-1 -1,-1 -1,-1 -1,-1 -1,0 -1,-1 -1,-1 -1,-1 -1,-1 -1,-1 -1,-1 -1,-1 -1,-1 -1,-1 -1,-1 -1,-1 -1,-1 -1,-1 -1,-1 -1,-1 -1,0 -2,-2 -1,-1 -4,-4 -1,-1 -4,-4 -1,-1 -1,-1 -1,0 -2,-2 -1,-1 -5,-5 -1,-1 -4,-4 -1,-1 -1,-1 -1,0 -1,-1 -1,-1 -1,-1 -1,-1 -1,-1 -1,-1 -1,-1 -1,-1 -1,-1 -1,-1 -1,-1 -1,-1 -1,-1 -1,-1 -1,0 -1,-1 -1,-1 -1,-1 -1,-1 -1,-1 -1,-1 0,-1 -2,0 -1,-1 0,-2 -1,-1 0,-1 -2,0 -1,-1 -2,0 -1,-1 0,-1 -1,-1 -1,-1 -2,0 -1,-1 0,-2 -1,0 -1,-1 0,-2 -1,0 -1,-1 -1,0 -2,-2 -1,-1 -1,-1 -1,-1 -1,-1 -1,0 0,13 2,0 1,1 1,1 6,0 1,1Z"/>
<path onmouseover="hoverPath(evt)" onmouseout="recoverPath(evt)" fill="rgb(239,238,232)" d="M  29,121l 0,1 1,1 2,2 1,1 1,1 1,0 1,1 1,1 1,1 1,1 1,1 1,1 1,1 1,1 1,1 1,1 1,1 1,1 1,1 1,1 1,0 1,1 1,1 1,1 1,1 1,1 1,1 1,1 1,1 1,1 1,1 1,1 1,1 1,1 1,1 1,1 1,0 1,1 1,1 1,1 1,1 1,1 1,1 1,1 1,1 1,1 1,1 1,1 1,1 1,1 1,1 1,0 1,1 1,1 1,1 1,1 1,1 1,1 1,1 1,1 1,1 1,1 1,1 1,1 1,1 1,1 1,1 1,0 1,1 1,1 1,1 1,1 1,1 1,1 1,1 1,1 1,1 1,1 1,1 1,1 1,0 1,1 1,1 1,1 1,1 1,1 1,1 1,1 1,1 1,1 1,1 1,1 1,1 1,1 1,0 1,1 1,1 1,1 1,1 1,1 1,1 1,1 1,1 1,1 1,1 1,1 1,1 1,0 1,1 1,1 1,1 1,1 1,1 1,1 1,1 1,1 1,1 1,1 1,1 1,1 1,1 1,0 1,1 1,1 1,1 1,1 1,1 1,1 1,1 1,1 1,1 1,1 1,1 1,1 1,0 1,1 1,1 1,1 1,1 1,1 1,1 0,2 10,0 0,-2 -1,-1 0,0 -1,-1 -1,-1 -1,-1 0,-1 -1,0 -1,-1 0,-2 -1,-1 -1,-1 -1,-1 -2,-2 -3,0 -1,-1 -1,-1 0,-2 -1,-1 -4,0 -1,-1 0,-1 -1,-1 -1,-1 -1,-1 -1,-1 -1,-1 0,-1 -1,-1 0,-1 -3,0 -1,-1 -1,-1 -1,-1 -1,-1 0,-3 -1,-1 -1,-1 -1,-1 -1,0 -1,-1 -3,0 -1,-1 -1,-1 -1,-1 -1,-1 -1,-1 -1,-1 -1,-1 0,-1 -1,0 -1,-1 -1,-1 -1,-1 -1,-1 -1,-1 -1,-1 0,-1 -1,0 -1,-1 0,-2 -1,-1 -3,0 -1,-1 -1,-1 0,-1 -1,0 -1,-1 -1,-1 -1,-1 -1,-1 -1,-1 0,-1 -1,0 -1,-1 0,-2 -1,-1 -3,0 -1,-1 -1,-1 0,-3 -2,-2 -1,-1 -1,-1 -1,-1 -2,0 -1,-1 0,-1 -1,-1 -3,0 -1,-1 -1,-1 -1,-1 0,-3 -1,-1 -1,-1 -1,-1 -1,-1 -2,0 -1,-1 0,-1 -3,0 -1,-1 -1,-1 -1,-1 -1,-1 0,-1 -1,0 -1,-1 -1,-1 -1,-1 -1,-1 -1,-1 0,-1 -2,0 -1,-1 -1,-1 -1,-1 -1,-1 -1,-1 -1,-1 -1,-1 0,-3 -1,-1 -1,-1 -1,0 -1,-1 -1,-1 -3,0 -1,-1 -1,-1 -1,-1 -1,-1 -1,-1 -1,-1 -1,0 -1,-1 0,-3 -1,0 -1,-1 0,-1 -1,-1 -1,-1 -2,0 -1,-1 0,-2 -1,-1 -5,0 -1,-1 0,-3 -4,0 -1,-1 0,-2 1,-1 -1,-1 -5,0 -1,-1 -1,0 -1,-1 -1,1 0,1 -1,1 0,1 1,0 1,1 0,2 2,0 1,1 1,1 1,1 0,1 2,0 1,1 2,0 1,1 0,1 1,1 0,2 2,0 1,1Z"/>
<path onmouseover="hoverPath(evt)" onmouseout="recoverPath(evt)" fill="rgb(244,243,235)" d="M  0,245l 0,10 157,0 0,-1 -1,-1 0,0 -1,-1 -1,-1 -1,-1 -1,-1 -1,-1 -1,-1 -1,-1 -1,0 -1,-1 -1,-1 -1,-1 -1,-1 -1,-1 -1,-1 -1,-1 -1,0 -1,-1 0,-1 -2,-2 -1,-1 -1,0 -1,-1 -1,-1 -1,-1 -1,-1 -1,-1 -1,-1 -1,-1 -1,-1 -1,-1 -1,-1 -1,-1 -1,0 -1,-1 0,-1 -1,-1 -1,-1 -1,0 -1,-1 -1,-1 -1,-1 -1,-1 -1,-1 -1,-1 -1,-1 -1,-1 -1,-1 -1,-1 -1,-1 -1,0 -1,-1 0,-1 -1,-1 -1,-1 -1,0 -1,-1 -2,-2 -1,-1 -1,-1 -1,-1 -2,-2 -1,-1 -1,1 0,3 -1,1 -2,0 -1,-1 -1,0 -1,-1 0,-1 -1,-1 -1,-1 -1,-1 -1,-1 -1,-1 -1,-1 -1,-1 -1,0 -1,-1 0,-1 -1,0 -1,-1 -1,0 -1,-1 0,-1 -1,-1 -1,0 -1,1 -1,0 0,1 -1,1 -1,0 -1,1 -1,1 -2,2 -1,0 -1,1 -1,1 -1,1 -1,1 0,1 -1,1 -3,0 -1,-1 -1,1 -1,1 -1,1 -1,1 0,3 -1,1 -1,0 -1,1 -1,1 -1,1 0,1 -1,1 -2,0 -1,1 -1,1 -1,1 0,1 -1,1 -2,0 -1,1 -1,1 -1,1 -1,1 -1,0 -1,1 -1,1 -1,1 -1,1 -1,0 0,1 -1,1 -1,0 -1,1 -1,1 0,1 -1,1 -2,0 -1,1 -1,1 -1,1 -1,1 -2,0 -1,-1 -3,0 -1,-1 0,-1 -1,0 -1,-1 0,1 2,2 1,1 0,4 -1,1 -1,1 -1,1 -2,0 -1,-1 -1,1 -2,0Z"/>
<path onmouseover="hoverPath(evt)" onmouseout="recoverPath(evt)" fill="rgb(241,240,233)" d="M  4,65l 0,0 -1,-1 -1,-1 -1,-1 -1,0 0,35 2,0 1,1 1,1 1,1 1,1 1,1 1,1 1,0 1,1 1,0 0,-1 1,-1 1,-1 2,0 1,1 1,0 1,1 1,0 0,-4 1,-1 7,0 1,-1 0,-1 -1,-1 0,0 -1,-1 -1,-1 0,-3 1,-1 0,-1 -1,-1 0,-2 -1,-1 -1,-1 -1,0 -1,-1 0,-1 -3,-3 -1,-1 -3,-3 -1,-1 -1,0 -1,-1 0,-1 -1,0 -1,-1 -1,0 -1,-1 0,-1 -1,-1 -1,-1 -1,-1Z"/>
<path onmouseover="hoverPath(evt)" onmouseout="recoverPath(evt)" fill="rgb(243,242,235)" d="M  29,109l 0,3 5,0 1,1 1,1 0,2 2,0 1,1 1,1 1,1 0,1 1,0 1,1 0,3 1,0 1,1 1,1 1,1 1,1 1,1 1,1 3,0 1,1 1,1 1,0 1,1 1,1 1,1 0,3 1,1 1,1 1,1 1,1 1,1 1,1 2,0 1,1 0,1 1,1 1,1 1,1 1,1 1,0 1,1 0,1 1,1 1,1 1,1 3,0 1,1 0,1 2,0 1,1 1,1 1,1 1,1 1,1 0,3 1,1 1,1 3,0 1,1 1,1 0,1 2,0 1,1 1,1 1,1 1,1 1,1 1,1 0,3 1,1 3,0 1,1 1,1 0,2 1,0 1,1 0,1 1,1 1,1 1,1 1,1 1,0 1,1 0,1 1,1 3,0 1,1 1,1 0,2 1,0 1,1 0,1 1,1 1,1 1,1 1,1 1,1 1,0 1,1 0,1 1,1 1,1 1,1 1,1 1,1 1,1 3,0 1,1 1,0 1,1 1,1 1,1 1,1 0,3 1,1 1,1 1,1 3,0 1,1 0,1 1,1 0,1 1,1 1,1 1,1 1,1 1,1 0,1 4,0 1,1 1,1 0,2 1,1 3,0 1,1 1,1 1,1 1,1 1,1 1,1 0,2 1,0 1,1 0,1 1,1 1,1 1,1 1,1 0,3 73,0 0,-176 -2,0 -1,-1 -1,-1 -1,-1 -1,-1 -1,-1 -1,-1 -1,-1 0,-1 -1,0 -1,-1 -1,0 -1,-1 0,-1 -1,0 -1,-1 -1,-1 -1,-1 -1,-1 -1,-1 -1,-1 -1,-1 0,-1 -2,0 -1,-1 0,-1 -1,0 -1,-1 -1,-1 -1,-1 -1,-1 -1,-1 -1,-1 -1,-1 0,-1 -1,0 -1,-1 -1,0 -1,-1 0,-1 -1,0 -1,-1 -1,-1 -1,-1 -1,-1 -1,-1 -1,-1 -1,-1 0,-1 -2,0 -1,-1 0,-1 -1,0 -1,-1 -1,-1 -1,-1 -1,-1 -1,-1 -1,-1 -1,-1 0,-1 -1,0 -1,-1 -1,0 -1,-1 0,-1 -1,0 -1,-1 -1,-1 -1,-1 -1,-1 -1,-1 -1,-1 -1,-1 0,-1 -2,0 -1,-1 0,-1 -1,0 -1,-1 -1,-1 -1,-1 -1,-1 -1,-1 -1,-1 -1,-1 0,-1 -2,0 -1,-1 0,-1 -1,0 -1,-1 -1,-1 -1,-1 -1,-1 0,-2 -169,0 0,60 2,0 1,1 1,1 1,1 1,1 1,1 1,1 1,1 0,1 1,0 1,1 1,0 1,1 0,1 1,0 1,1 1,1 1,1 1,1 1,1 1,1 1,1 1,1 1,1 0,1 1,0 2,2 1,1 0,2 1,1 1,1 0,2 -1,1 -1,0 0,1 1,1 0,0 1,1 1,1 0,3 -1,1 -1,1 -7,0 0,3 2,0 1,1 1,1 0,2 -1,1 4,0 1,1Z"/>
<path onmouseover="hoverPath(evt)" onmouseout="recoverPath(evt)" fill="rgb(244,243,235)" d="M  173,0l -2,0 0,1 1,1 1,1 1,1 1,0 1,1 0,1 2,0 1,1 0,1 1,1 1,1 1,1 1,1 1,1 1,1 1,0 1,1 0,1 2,0 1,1 0,1 1,1 1,1 1,1 1,1 1,1 1,1 1,0 1,1 0,1 1,0 1,1 1,0 1,1 0,1 1,1 1,1 1,1 1,1 2,2 1,0 1,1 0,1 2,0 1,1 0,1 1,1 1,1 1,1 1,1 1,1 1,1 1,0 1,1 0,1 1,0 1,1 1,0 1,1 0,1 1,1 1,1 1,1 1,1 1,1 1,1 1,0 1,1 0,1 2,0 1,1 0,1 1,1 1,1 1,1 1,1 1,1 1,1 1,0 1,1 0,1 1,0 1,1 1,0 1,1 0,1 1,1 1,1 2,2 1,1 1,1 1,0 0,-77Z"/>
</svg>