<svg width="256" height="256" xmlns="http://www.w3.org/2000/svg"><script> 
var tempColor;
function hoverPath(evt){
obj = evt.target;
tempColor = obj.getAttribute("fill");
obj.setAttribute("fill","red");
//alert(tempColor);
//obj.setAttribute("stroke","red");}
function recoverPath(evt){
obj = evt.target;
obj.setAttribute("fill", tempColor);
//obj.setAttribute("stroke", tempColor);
}</script><path onmouseover="hoverPath(evt)" onmouseout="recoverPath(evt)" fill="rgb(243,240,231)" d="M  0,176l 0,72 1,0 1,-1 1,0 1,-1 1,0 1,-1 2,0 1,-1 1,0 1,-1 2,0 0,-2 1,-1 2,0 1,1 1,0 0,-2 1,-1 2,0 1,1 1,0 1,-1 2,0 1,-1 2,0 1,-1 2,0 1,-1 -1,-1 0,-3 -1,-1 0,-2 1,-1 2,0 1,1 0,1 1,1 0,1 1,1 0,1 1,1 1,0 1,-1 2,0 1,-1 4,0 0,-2 -1,-1 -1,0 -1,-1 0,-3 1,-1 0,-1 -1,-1 0,-2 -1,-1 -1,0 -1,-1 -1,-1 0,-2 1,-1 1,0 0,-1 -1,-1 0,-2 -1,-1 -1,0 -1,-1 0,-2 1,-1 0,-2 -1,-1 0,-2 -1,-1 -2,0 -1,-1 0,-2 1,-1 1,0 -2,-1 -3,0 -1,-1 0,-3 1,-1 3,0 0,-2 -1,-1 0,-2 -1,-1 0,-2 -1,-1 0,-1 -1,-1 0,-2 -1,-1 0,-3 -1,-1 -1,0 -1,-1 0,-2 1,-1 3,0 0,-1 1,-1 2,0 0,-1 -2,0 -1,1 -5,0 -1,-1 -1,0 -1,1 -3,0 -1,1 -2,0 -1,1 -3,0 -1,1 -3,0 -1,1 -3,0 -1,1 -3,0Z"/>
<path onmouseover="hoverPath(evt)" onmouseout="recoverPath(evt)" fill="rgb(237,227,212)" d="M  0,128l 0,40 2,0 1,-1 3,0 1,-1 3,0 1,-1 3,0 1,-1 2,0 1,-1 3,0 1,-1 2,0 0,-1 1,-1 0,-1 -1,-1 -1,0 -1,-1 0,-2 1,-1 0,-2 1,-1 1,-1 0,-1 1,-1 2,0 0,-1 1,-1 1,-1 0,-1 -1,-1 0,-1 -1,-1 0,-2 -1,-1 0,-3 1,-1 0,-1 1,-1 3,0 1,1 5,0 0,-2 1,-1 -2,0 -1,-1 -3,0 -1,1 -2,0 -1,-1 -1,0 -1,-1 -2,0 -1,-1 -2,0 -1,-1 0,-1 -1,-1 0,-2 -1,-1 0,-2 -1,-1 0,1 1,3 1,3 0,2 -1,1 1,1 0,2 -1,1 -3,0 -1,-1 0,-1 -1,-1 0,-1 -1,-1 0,-2 -1,-1 -1,-1 0,-1 -1,-1 0,-3 -1,-1 0,-4 -1,-1 0,-2 -1,-1 0,-2 1,-1 1,-1 0,-1 -1,-1 0,-1 -1,-1 0,-2 -2,0 -1,-1 0,-1 -1,-1 0,-4 -1,0 -1,-1 -1,0Z"/>
<path onmouseover="hoverPath(evt)" onmouseout="recoverPath(evt)" fill="rgb(241,241,235)" d="M  155,32l 0,6 -1,1 0,8 -1,1 0,9 -1,1 0,8 -1,1 0,4 3,0 1,1 4,0 1,1 5,0 1,1 4,0 1,1 4,0 1,1 5,0 1,1 4,0 1,1 4,0 1,1 5,0 1,1 4,0 1,1 5,0 1,1 3,0 0,-2 1,-1 0,-2 -1,-1 0,-3 -1,-1 0,-2 -1,-1 -19,0 -1,-1 -10,0 -1,1 -2,0 -1,-1 -1,0 -1,-1 -1,-1 -1,-1 -1,-1 -1,-1 -1,-1 -1,-1 0,-1 -1,-1 -1,-1 0,-1 -1,-1 0,-1 -1,-1 0,-1 -1,-1 0,-1 -1,-1 0,-2 -1,-1 0,-1 -1,-1 0,-2 -1,-1 0,-3 -1,-1 0,-2 -1,-1 0,-3 -1,-1 -1,1 1,-3 0,-16 -1,1 0,6 1,9 -1,3Z"/>
<path onmouseover="hoverPath(evt)" onmouseout="recoverPath(evt)" fill="rgb(243,242,233)" d="M  0,1l 0,34 4,0 1,1 3,0 1,1 2,0 1,1 2,0 1,1 1,0 1,-1 2,0 1,1 0,2 3,0 1,1 0,-4 1,-1 0,-1 -1,-1 -1,0 -1,-1 0,-1 -1,-1 -2,0 -1,-1 0,-2 1,-1 0,-2 -1,-1 -2,0 -1,-1 0,-14 1,-1 2,0 -1,-1 0,-2 1,-1 1,-1 0,-4 -18,0 -1,1Z"/>
<path onmouseover="hoverPath(evt)" onmouseout="recoverPath(evt)" fill="rgb(244,243,235)" d="M  43,177l 0,0 1,1 1,1 0,2 1,1 0,2 1,1 0,2 -1,1 0,1 1,0 1,1 0,2 -1,1 0,2 1,1 1,0 1,1 1,1 0,2 -1,1 -1,0 0,1 1,1 0,2 1,1 0,2 1,1 1,0 1,1 1,1 0,2 -1,1 -1,0 0,1 1,1 1,0 1,1 0,3 -1,1 0,1 1,1 0,2 -1,1 1,1 0,2 -1,1 0,1 -1,1 0,1 1,-1 1,-1 2,0 1,1 0,3 1,1 0,2 1,1 1,0 1,1 1,1 0,2 -1,1 -1,0 0,1 1,1 0,2 1,1 0,2 1,1 0,3 110,0 0,-3 -1,-1 0,-5 1,-1 1,0 0,-3 -2,0 -1,-1 0,-7 1,-1 0,-6 -1,0 -1,-1 0,-2 1,-1 -1,-1 0,0 -1,-1 0,-5 -1,-1 0,-4 1,-1 1,0 0,-3 -1,0 -1,-1 -1,-1 0,-8 -1,-1 0,-5 1,-1 1,0 0,-1 -1,0 -1,-1 0,-2 1,-1 0,-2 -1,0 -1,-1 0,-3 -1,-1 0,-9 -1,-1 0,-8 -1,-1 0,-11 1,-1 0,-3 -1,-1 0,-1 -1,0 -1,-1 0,-2 -1,-1 0,-5 -1,-1 0,-7 -1,-1 0,-1 -2,0 -1,-1 0,-2 -1,-1 0,-1 -1,-1 0,-8 -1,0 -1,-1 0,-1 -1,-1 0,-1 -2,0 -1,-1 0,-3 -2,0 -1,-1 -1,-1 0,-1 -1,0 0,4 -1,1 -2,0 0,8 -1,1 0,6 -1,1 0,2 -1,1 0,1 -1,1 0,1 -1,1 1,1 0,2 -1,1 -2,0 -1,1 0,1 -1,1 -1,1 -1,1 -1,1 -1,0 -1,1 -1,1 0,1 -1,1 0,1 -1,1 -1,0 -1,1 -1,1 -2,0 -1,-1 -1,1 -1,0 -1,1 0,2 -1,1 -2,0 -1,-1 -1,0 -1,1 -1,0 -1,1 -1,0 -1,1 -1,0 0,2 -1,1 -2,0 -1,-1 -1,1 -2,0 -1,1 -1,0 -1,1 0,2 1,1 0,2 1,1 0,2 2,0 1,1 0,2 -1,1 0,1 2,0 1,1 0,2 -1,1 0,1 1,1 0,2 1,1 0,3 1,1 0,5 -1,1 0,2 -1,1 -3,0 -1,-1 0,-4 1,-1 -1,-1 0,-3 -1,-1 0,-2 -1,-1 0,-2 -1,-1 0,-1 -1,-1 0,-2 -1,-1 0,-2 -2,0 -1,-1 0,-2 1,-1 0,-1 -1,-1 0,-1 -1,-1 -2,0 -1,1 -1,0 0,2 -1,1 -2,0 -1,-1 -1,1 -2,0 -1,1 -1,0 -1,1 -3,0 -1,1 -2,0 -1,1 -5,0 -1,1 -6,0 -1,1 -1,0 0,3 -1,1 -1,1 -3,0 -1,-1 0,2 -1,1 -1,0 -1,1Z"/>
<path onmouseover="hoverPath(evt)" onmouseout="recoverPath(evt)" fill="rgb(252,251,250)" d="M  97,89l -1,0 -1,1 -1,1 -2,0 -1,1 -2,0 0,1 -1,1 -1,1 -1,1 -1,0 -1,1 -1,0 -1,1 -1,0 -1,1 -1,0 -1,1 -1,0 -1,1 -2,0 -1,1 -2,0 -1,-1 -1,1 -2,0 -1,-1 0,-1 -1,-1 -1,-1 -1,-1 0,-1 -1,-1 0,-1 -1,-1 0,3 -1,1 -1,0 -1,1 -1,1 2,-1 1,0 1,1 0,2 -1,1 0,4 -1,1 -3,0 -1,1 -2,0 -1,1 -3,0 -1,1 -4,0 -1,1 -3,0 -1,1 -1,1 3,0 1,-1 2,0 1,-1 3,0 1,-1 6,0 1,1 1,1 0,-3 1,-1 2,0 1,-1 2,0 1,-1 3,0 1,-1 1,0 1,-1 2,0 1,-1 1,0 1,-1 2,0 1,-1 1,0 1,-1 1,0 1,-1 3,0 1,1 0,-3 1,-1 1,-1 1,0 1,-1 1,-1 1,0 1,-1 2,0 0,-1 1,-1 1,-1 5,0 -2,-1 0,-1 -2,0 0,2Z"/>
<path onmouseover="hoverPath(evt)" onmouseout="recoverPath(evt)" fill="rgb(241,240,233)" d="M  116,25l 0,3 -1,1 0,21 -1,1 0,6 -1,1 0,5 1,1 1,0 1,1 2,0 1,1 4,0 1,1 2,0 1,-1 4,0 0,-4 1,-1 0,-10 1,-1 0,-8 1,-1 0,-7 1,-1 0,-5 1,-1 0,-10 1,-1 0,-11 1,-1 0,-4 -21,0 0,2 1,1 0,13 -1,1 -1,0Z"/>
<path onmouseover="hoverPath(evt)" onmouseout="recoverPath(evt)" fill="rgb(247,236,139)" d="M  141,0l -1,0 0,5 -1,1 0,11 -1,1 0,10 -1,1 0,5 -1,1 0,7 -1,1 0,8 -1,1 0,10 -1,1 0,4 -1,1 -4,0 5,1 0,5 1,0 1,1 0,1 1,-1 5,0 1,1 1,1 7,0 1,1 8,0 1,1 4,0 1,1 1,0 1,1 4,0 1,1 2,0 1,1 0,1 2,0 1,1 0,1 1,0 1,-1 3,0 1,-1 3,0 1,1 3,0 1,1 1,0 1,1 4,0 1,1 2,0 1,-1 2,0 1,1 2,0 1,1 4,0 1,1 0,1 1,0 1,1 1,-1 3,0 1,-1 3,0 1,1 0,1 5,0 1,1 3,0 1,1 1,-1 4,0 1,1 3,0 1,1 1,0 1,1 3,0 1,1 1,0 1,-1 3,0 0,-4 -5,0 -1,-1 -4,0 -1,-1 -4,0 -1,-1 -5,0 -1,-1 -4,0 -1,-1 -3,0 -1,1 -2,0 -1,-1 0,-1 -3,0 -1,-1 0,-2 -1,3 -4,0 -1,-1 0,-1 -3,0 -1,-1 -5,0 -1,-1 -4,0 -1,-1 -5,0 -1,-1 -4,0 -1,-1 -4,0 -1,-1 -5,0 -1,-1 -4,0 -1,-1 -4,0 -1,-1 -5,0 -1,-1 -4,0 -1,-1 -3,0 -1,-1 0,-6 1,-1 0,-8 1,-1 0,-9 1,-1 0,-8 1,-1 0,-8 1,-1 0,-6 -1,-1 0,-8 1,-1 1,-1 0,-11 -3,0 0,8 -1,1 0,7 -1,1 0,8 -1,1 0,7 -1,1 0,9 -1,1 0,8 -1,1 0,8 -1,1 0,8 -1,1 -1,1 -4,0 -1,-1 -1,-1 0,-4 1,-1 0,-8 1,-1 0,-9 1,-1 0,-7 1,-1 0,-6 1,-1 0,-7 1,-1 0,-8 1,-1 0,-7 1,-1 0,-6Z"/>
<path onmouseover="hoverPath(evt)" onmouseout="recoverPath(evt)" fill="rgb(254,254,254)" d="M  147,1l 0,6 -1,1 0,7 -1,1 0,8 -1,1 0,7 -1,1 0,6 -1,1 0,7 -1,1 0,9 -1,1 0,8 -1,1 0,2 1,1 2,0 1,-1 0,-8 1,-1 0,-8 1,-1 0,-8 1,-1 0,-9 1,-1 0,-7 1,-1 0,-8 1,-1 0,-7 1,-1 0,-7 -2,0 -1,1Z"/>
<path onmouseover="hoverPath(evt)" onmouseout="recoverPath(evt)" fill="rgb(243,242,234)" d="M  162,1l 0,26 1,1 0,4 1,1 0,3 1,1 0,3 1,1 0,2 1,1 0,2 1,1 0,1 1,1 0,2 1,1 0,1 1,1 0,1 1,1 1,1 0,1 1,1 1,1 1,1 0,1 1,1 1,1 0,3 1,-1 12,0 1,1 19,0 1,1 1,1 0,2 1,1 0,-2 1,-1 0,-5 1,-1 0,-11 -4,0 -1,-1 -6,0 -1,-1 -7,0 -1,-1 -1,0 -1,-1 -1,0 -1,-1 0,-2 1,-1 0,-2 -1,-1 0,-3 -1,-1 0,-4 -1,-1 0,-5 1,-1 0,-13 1,-1 2,0 -1,-1 -1,0 -1,-1 -1,-1 0,-1 -1,-1 -1,-1 -1,-1 -1,0 -1,-1 -1,0 -1,-1 0,-3 -20,0 -1,1Z"/>
<path onmouseover="hoverPath(evt)" onmouseout="recoverPath(evt)" fill="rgb(251,251,248)" d="M  40,162l 0,0 -1,-1 -1,-1 0,2 1,1 1,1 1,1 5,0 1,1 1,0 1,1 0,3 1,0 0,-3 1,-1 1,0 1,-1 6,0 1,-1 5,0 1,-1 2,0 1,-1 3,0 1,-1 1,0 1,-1 2,0 1,-1 2,0 1,1 0,-2 1,-1 1,0 1,-1 4,0 1,1 1,1 0,1 1,1 0,3 -1,1 2,0 1,1 0,2 1,1 0,2 1,1 0,1 1,1 0,2 1,1 0,2 1,1 0,3 1,1 0,2 1,0 0,-3 -1,-1 0,-3 -1,-1 0,-2 -1,-1 0,-3 1,-1 -2,0 -1,-1 0,-3 1,-1 -2,0 -1,-1 0,-2 -1,-1 0,-2 -1,-1 0,-4 1,-1 1,-1 1,0 1,-1 2,0 1,-1 2,0 1,1 0,-2 1,-1 1,0 1,-1 1,0 1,-1 1,0 1,-1 3,0 1,1 0,-2 1,-1 1,-1 1,0 1,-1 2,0 1,1 1,-1 0,0 1,-1 1,0 0,-1 1,-1 0,-1 3,-3 1,0 3,-3 0,-1 1,-1 1,-1 2,0 -1,-1 0,-2 1,-1 0,-1 1,-1 0,-1 1,-1 0,-2 1,-1 0,-6 1,-1 0,-8 1,-1 0,-6 1,-1 1,0 0,-1 -1,-1 0,-6 1,-1 0,-7 -1,-1 -3,0 -1,1 0,1 1,1 0,6 -1,1 0,7 -1,1 0,11 -1,1 -4,0 0,3 1,1 1,0 1,1 0,5 -1,1 0,2 -1,1 0,1 -1,1 0,1 -1,1 0,1 -1,1 -1,1 0,1 -1,1 -1,1 -1,1 -1,1 -1,0 -1,1 -1,1 -1,1 -1,0 -1,1 -1,0 -1,1 -1,1 -1,0 -1,1 -1,0 -1,1 -1,0 -1,1 -1,0 -1,1 -2,0 -1,1 -1,0 -1,1 -1,0 -1,1 -1,0 -1,1 -1,0 -1,1 -1,0 -1,1 -1,0 -1,1 -2,0 -1,1 -1,0 -1,1 -1,0 -1,1 -2,0 -1,1 -1,0 -1,1 -1,0 -1,1 -1,0 -1,1 -5,0 -1,-1 -1,-1 0,-1 -1,-1 0,-1 -1,-1 -4,0 -1,1 -2,0 -1,1 -1,0 0,3 -1,1 0,3 -1,1 -1,1 -14,0 59,24 -1,0 0,2 1,0 0,-2 -59,-24 9,9 0,0 -9,-9 -3,-2 1,-1 -1,0 0,1 3,2Z"/>
<path onmouseover="hoverPath(evt)" onmouseout="recoverPath(evt)" fill="rgb(242,241,234)" d="M  176,234l -1,1 0,5 2,0 1,1 0,5 -1,1 -1,0 0,3 1,1 0,4 39,0 0,-17 1,-1 0,-1 1,-1 0,-3 -1,-1 0,0 -1,-1 -1,-1 -1,-1 -1,-1 0,-1 -1,-1 -1,-1 -1,-1 -1,-1 -1,-1 -1,-1 -1,-1 -1,-1 -1,-1 0,-1 -1,-1 -1,-1 -1,-1 -1,-1 -1,-1 -1,-1 0,-1 -1,-1 0,-1 -1,-1 0,-1 -1,-1 0,-5 -1,-1 0,-24 1,-1 0,-9 -1,-1 0,-3 -1,-1 0,-7 -1,-1 0,-15 1,-1 0,-3 1,-1 0,-3 1,-1 0,-1 1,-1 0,-1 1,-1 0,-1 1,-1 1,0 0,-1 1,-1 1,-1 2,0 1,-1 1,0 1,-1 2,0 1,-1 3,0 1,-1 2,0 1,-1 1,0 1,-1 1,0 0,-9 1,-1 0,-3 -3,0 -1,-1 -2,0 -1,-1 0,-4 -1,0 -1,-1 0,-1 -4,0 -1,-1 -2,0 -1,-1 -1,1 -1,0 -1,1 -2,0 -1,-1 0,-1 -4,0 -1,-1 -1,0 -1,-1 -3,0 -1,-1 -1,0 -1,1 -3,0 -1,1 -3,0 -1,-1 0,-1 -2,0 -1,-1 0,-1 -2,0 -1,-1 -4,0 -1,-1 -1,0 -1,-1 -4,0 -1,-1 -8,0 -1,-1 -6,0 0,7 -1,1 0,4 1,1 0,3 -1,1 3,0 1,1 0,1 1,1 2,0 1,1 0,3 2,0 1,1 0,1 1,1 0,1 1,0 1,1 0,8 1,1 0,1 1,1 0,2 2,0 1,1 0,1 1,1 0,7 1,1 0,5 1,1 0,2 1,0 1,1 0,1 1,1 0,5 -1,1 0,9 1,1 0,8 1,1 0,9 1,1 0,3 1,0 1,1 0,4 -1,1 1,0 1,1 0,3 -1,1 -1,0 0,3 1,1 0,8 1,1 1,0 1,1 0,5 -1,1 -1,0 0,2 1,1 0,5 1,1 1,1 0,2 -1,1 1,0 1,1 0,8 -35,-137 0,0 35,137Z"/>
<path onmouseover="hoverPath(evt)" onmouseout="recoverPath(evt)" fill="rgb(248,247,242)" d="M  219,138l -13,0 -1,-1 -1,0 -1,1 -4,0 0,1 -1,1 0,2 1,1 0,1 1,1 2,0 1,1 16,0 1,-1 2,0 0,-5 1,-1 0,-4 1,-1 1,-1 9,0 1,1 11,0 1,1 8,0 0,-1 -7,0 -1,-1 -11,0 -1,-1 -5,0 -1,-1 -1,-1 0,-4 -1,5 -6,0 -1,-1 -5,0 -1,-1 -5,0 0,1 5,0 1,1 4,0 1,1 1,0 1,1 1,1 -4,4 3,-1 -1,1 -1,0 2,-1 -3,1Z"/>
<path onmouseover="hoverPath(evt)" onmouseout="recoverPath(evt)" fill="rgb(222,189,160)" d="M  35,147l 1,0 0,-2 1,-1 -5,0 0,2 -1,1 -1,1 0,1 -1,1 -2,0 0,1 -1,1 -1,1 0,2 -1,1 1,0 1,1 0,0 1,1 0,3 -1,1 0,1 3,0 1,-1 4,0 1,1 0,3 -1,1 -2,0 0,1 -1,1 -3,0 2,1 0,0 1,1 0,3 1,1 0,2 1,1 0,1 1,1 0,2 1,1 0,2 1,1 0,2 1,1 0,2 -1,1 0,1 1,0 1,1 0,2 -1,1 1,0 1,1 0,0 1,1 0,2 1,1 0,4 -1,1 1,0 1,1 1,1 0,2 1,1 0,3 -1,1 -1,0 1,1 1,0 1,1 1,1 0,2 1,1 0,3 -1,1 0,1 1,0 1,1 1,1 0,4 -1,1 -4,0 -1,1 -2,0 -1,1 -3,0 -1,-1 -1,-1 0,-1 -1,-1 0,1 1,2 0,1 -1,1 -1,1 -2,0 -1,1 -2,0 -1,1 -2,0 -1,1 -3,0 -1,-1 0,2 -1,1 -3,0 -1,-1 0,2 -1,1 -2,0 -1,1 -1,0 -1,1 -2,0 -1,1 -1,0 -1,1 -1,0 -1,1 -2,0 0,1 2,0 1,-1 3,0 1,1 0,-2 1,-1 2,0 1,-1 1,0 1,-1 2,0 1,-1 1,0 1,-1 1,0 1,-1 2,0 1,-1 3,0 1,1 0,-2 1,-1 2,0 1,-1 2,0 1,-1 3,0 1,-1 2,0 1,-1 3,0 1,-1 2,0 1,1 2,0 1,-1 0,-1 1,-1 0,-2 1,-1 0,-1 1,-1 -1,-1 0,-2 1,-1 -1,-1 0,-3 1,-1 0,-1 -1,0 -1,-1 -1,-1 0,-3 1,-1 1,0 -1,-1 -1,0 -1,-1 -1,-1 0,-2 -1,-1 0,-2 -1,-1 0,-3 1,-1 1,0 -1,-1 -1,0 -1,-1 -1,-1 0,-4 1,-1 -1,0 -1,-1 0,0 -1,-1 0,-2 1,-1 0,-3 -1,-1 0,-2 -1,-1 -1,0 -1,-1 -1,-1 0,-2 1,-1 2,0 1,-1 1,0 0,-2 1,-1 1,0 1,-1 0,-1 -1,0 -1,-1 -5,0 -1,-1 -1,-1 -1,-1 -1,-1 0,-1 -1,-1 0,-1 -2,0 -1,-1 0,-2 1,-1 0,-1 1,-1 1,0 -1,-1 -1,0 -1,-1 -1,-1 0,-3 1,-1 3,0 0,45 -1,0 -1,-1 -1,0 0,1 3,0Z"/>
<path onmouseover="hoverPath(evt)" onmouseout="recoverPath(evt)" fill="rgb(253,253,252)" d="M  68,15l 0,0 1,-1 0,-14 -1,9 -14,0 -1,1 -11,0 -2,-2 -1,-1 0,-7 -1,0 0,28 -1,1 0,8 -1,1 -1,1 -3,0 3,1 1,0 1,1 0,6 -1,1 -4,0 0,1 1,0 1,1 1,0 1,1 3,0 1,1 1,0 1,1 2,0 1,1 4,0 1,1 5,0 1,1 5,0 0,-1 -5,0 -1,-1 -4,0 -1,-1 -4,0 -1,-1 -2,0 -1,-1 -2,0 -1,-1 -1,-1 0,-17 1,-1 0,-19 1,-1 1,0 0,-1 27,5 -37,33 0,-1 -1,0 -1,-1 -1,0 -1,-1 -2,0 -1,-1 -1,0 -1,-1 -3,0 -1,-1 0,-2 -1,1 -3,0 -1,-1 -2,0 -1,-1 -2,0 -1,-1 -3,0 -1,-1 -3,0 0,3 2,0 1,-1 3,0 1,1 2,0 1,1 2,0 1,1 2,0 1,1 2,0 1,1 2,0 1,1 1,0 1,1 2,0 1,1 1,0 1,1 2,0 37,-33 -14,-5 13,0 1,1 0,3 -14,-4 14,5Z"/>
<path onmouseover="hoverPath(evt)" onmouseout="recoverPath(evt)" fill="rgb(242,240,231)" d="M  88,99l 0,3 -1,1 1,1 1,1 1,1 0,1 1,1 1,1 1,1 5,0 1,1 0,2 3,0 1,1 4,0 1,-1 6,0 1,1 10,0 1,-1 1,-1 0,-1 1,-1 0,-4 1,-1 0,-4 -1,-1 -1,0 -1,-1 -3,0 -1,-1 -1,0 -1,-1 -3,0 -1,-1 -2,0 -1,-1 -2,0 -1,-1 -2,0 -1,-1 -1,0 -1,-1 -2,0 -1,-1 -3,0 -1,1 -1,0 0,1 -1,1 -2,0 -1,1 -1,0 -1,1 -1,1 -1,0 -1,1Z"/>
<path onmouseover="hoverPath(evt)" onmouseout="recoverPath(evt)" fill="rgb(229,208,191)" d="M  18,93l 0,0 1,1 2,0 0,-4 1,-1 3,0 0,-4 1,-1 2,0 0,-2 1,-1 -5,0 -1,1 -6,0 -1,-1 -2,0 -1,-1 0,-2 -2,0 0,2 -1,1 -2,0 -1,-1 0,-2 -1,0 -1,1 0,7 1,1 1,1 2,0 1,1 0,1 1,1 0,1 1,1 0,2 1,-1 0,0 1,-1Z"/>
<path onmouseover="hoverPath(evt)" onmouseout="recoverPath(evt)" fill="rgb(241,240,229)" d="M  29,36l 0,2 -1,1 -2,0 0,4 2,0 1,1 1,0 1,1 1,0 1,1 2,0 0,-4 -1,0 -1,-1 -2,0 -1,-1 0,-2 1,-1 3,0 1,-1 0,-8 1,-1 0,-27 -15,0 0,5 -1,1 -1,1 1,1 0,2 -1,1 -2,0 0,12 2,0 1,1 1,1 0,3 1,1 0,1 2,2 0,1 1,0 1,1 1,1 1,0 1,1Z"/>
<path onmouseover="hoverPath(evt)" onmouseout="recoverPath(evt)" fill="rgb(172,198,235)" d="M  170,60l 0,0 1,1 1,1 3,3 1,1 0,-1 -1,-1 -1,-1 0,-1 -1,-1 0,0 -1,-1 -1,-1 -1,1 -1,-4 0,-1 -1,-1 0,-1 -1,-1 0,-2 -1,-1 0,-1 -1,-1 0,-2 -1,-1 0,-2 -1,-1 0,-3 -1,-1 0,-3 -1,-1 0,-4 -1,-1 0,-28 -3,0 0,11 1,1 0,18 1,1 0,3 1,1 0,2 1,1 0,3 1,1 0,2 1,1 0,1 1,1 0,2 1,1 0,1 1,1 0,1 1,1 0,1 1,1 1,0 1,4Z"/>
<path onmouseover="hoverPath(evt)" onmouseout="recoverPath(evt)" fill="rgb(253,253,253)" d="M  221,236l -1,0 -1,1 0,1 -1,1 0,16 1,0 0,-15 1,-1 1,-1 1,-1 -1,-1 6,0 1,-1 2,0 1,-1 2,0 1,-1 3,0 1,-1 4,0 1,-1 2,0 1,-1 3,0 1,-1 5,0 0,-2 -1,0 -1,1 -3,0 -1,1 -7,0 -1,-1 0,1 -1,1 -1,1 -2,0 -1,1 -2,0 -1,1 -2,0 -1,1 -3,0 -1,1 -1,0 -1,1 -3,0 20,-10Z"/>
<path onmouseover="hoverPath(evt)" onmouseout="recoverPath(evt)" fill="rgb(236,236,228)" d="M  222,100l 0,3 -1,1 0,9 -1,1 -1,0 -1,1 -1,0 -1,1 -2,0 -1,1 -3,0 -1,1 -2,0 -1,1 -1,0 0,3 -1,1 -1,0 0,1 -1,1 -1,0 0,3 -1,1 0,3 -1,1 0,3 3,0 1,-1 3,0 1,1 13,0 1,-1 -1,-1 -1,0 -1,-1 -4,0 -1,-1 -5,0 -1,-1 0,-3 1,-1 7,0 1,1 5,0 1,1 4,0 0,-4 1,-1 2,0 1,1 0,4 1,1 5,0 1,1 11,0 1,1 6,0 0,-34 -2,0 -1,1 -3,0 -1,-1 -3,0 -1,-1 -1,0 -1,-1 -1,1 -2,0 -1,-1 0,-1 -2,0 -1,1 -2,0 -1,-1 -3,0 -1,-1 -5,0 -1,-1 0,-1 -1,0 -1,1 -3,0 -1,1 -1,0 0,2 2,0 1,1 3,0 1,1Z"/>
<path onmouseover="hoverPath(evt)" onmouseout="recoverPath(evt)" fill="rgb(253,252,251)" d="M  88,61l 0,1 3,0 1,1 4,0 1,1 4,0 1,1 3,0 1,1 2,0 1,1 4,0 1,1 3,0 1,1 2,0 1,1 4,0 1,1 3,0 1,1 0,2 1,0 0,-4 -4,0 -1,-1 -3,0 -1,-1 -4,0 -1,-1 -2,0 -1,-1 -1,0 -1,-1 -1,-1 0,-6 -1,6 0,0 -1,1 -3,0 -1,-1 -2,0 -1,-1 -5,0 -1,-1 -3,0 -1,-1Z"/>
<path onmouseover="hoverPath(evt)" onmouseout="recoverPath(evt)" fill="rgb(238,237,229)" d="M  103,87l 0,0 1,1 0,2 2,0 1,1 1,0 1,1 2,0 1,1 2,0 1,1 2,0 1,1 3,0 1,1 1,0 1,1 3,0 1,1 1,0 1,1 1,1 0,5 2,0 0,-11 1,-1 0,-7 1,-1 0,-4 -1,1 -3,0 2,1 0,2 -1,1 -3,0 -1,-1 -2,0 -1,-1 0,-6 -1,-1 0,-1 -1,0 -1,1 -1,0 0,1 -1,1 -1,0 0,1 -1,1 -2,0 -1,-1 -1,-1 0,-3 -3,0 -1,-1 0,-2 -1,1 -1,0 0,1 -1,1 -3,0 -1,-1 -1,0 -1,-1 0,-1 -1,1 -5,0 -1,-1 -2,0 -1,-1 0,-2 1,-1 0,-1 1,-1 4,0 1,-1 -2,0 -1,-1 -4,0 -1,-1 -3,0 -1,-1 -2,0 0,3 -1,1 -7,0 -1,-1 0,-2 -3,0 -1,-1 -3,0 -1,-1 0,-2 -1,-1 -4,0 -1,-1 -6,0 -1,-1 -5,0 -1,-1 -4,0 -1,-1 -2,0 -1,-1 -1,0 -1,-1 -3,0 -1,-1 -1,0 -1,-1 -1,0 -1,-1 -2,0 -1,-1 -1,0 -1,-1 -2,0 -1,-1 -1,0 -1,-1 -2,0 -1,-1 -2,0 -1,-1 -2,0 -1,-1 -2,0 -1,-1 -2,0 -1,-1 -1,0 -1,1 -3,0 0,31 5,0 1,1 0,2 2,0 1,1 0,2 1,-3 4,0 1,1 0,2 2,0 1,1 4,0 1,-1 6,0 0,-1 1,-1 2,0 1,1 0,6 1,0 1,1 0,3 3,0 0,-3 1,-1 2,0 0,-2 -1,0 -1,-1 0,-5 1,-1 0,-2 1,-1 1,-1 6,0 1,1 1,1 1,0 1,1 1,1 1,0 1,1 1,0 1,1 1,0 1,1 1,1 1,1 0,2 -1,1 -8,0 -1,1 -5,0 3,1 10,0 1,1 0,1 2,0 1,1 0,4 1,1 0,1 1,1 0,1 1,1 1,1 1,1 0,1 1,-1 2,0 1,1 1,-1 2,0 1,-1 1,0 1,-1 1,0 1,-1 1,0 1,-1 1,0 1,-1 1,0 1,-1 1,-1 0,-1 1,-1 2,0 1,-1 2,0 1,-1 1,-1 1,0 0,-1 1,-1 4,0 1,1 1,1Z"/>
<path onmouseover="hoverPath(evt)" onmouseout="recoverPath(evt)" fill="rgb(243,242,234)" d="M  198,149l 0,7 1,1 0,3 1,1 0,4 1,1 0,2 -1,1 0,8 -1,1 0,17 1,1 0,5 1,1 0,1 1,1 0,1 1,1 0,1 1,1 1,1 1,1 1,1 1,1 1,1 0,1 1,1 1,1 1,1 1,1 1,1 1,1 1,1 1,1 1,1 0,1 1,1 1,1 1,1 1,1 1,1 0,1 1,1 0,2 1,0 1,-1 3,0 1,-1 2,0 1,-1 2,0 1,-1 2,0 1,-1 0,-3 1,-1 2,0 1,1 0,2 5,0 1,-1 3,0 1,-1 2,0 0,-88 -9,0 -1,-1 -11,0 -1,-1 -7,0 -1,1 0,4 -1,1 0,5 -1,1 -2,0 -1,1 -18,0 -1,-1 -2,0 -1,-1 0,3 40,73 -1,1 -2,0 -1,-1 0,-2 1,-1 2,0 1,1 0,2 -40,-73 32,70 -1,1 -2,0 -1,-1 0,-2 1,-1 2,0 1,1 0,2 -32,-70Z"/>
<path onmouseover="hoverPath(evt)" onmouseout="recoverPath(evt)" fill="rgb(242,240,230)" d="M  224,15l 2,0 1,1 1,0 1,1 3,0 1,1 6,0 1,-1 3,0 1,1 0,2 -1,1 0,1 2,0 1,1 4,0 1,1 4,0 0,-24 -65,0 0,1 1,1 0,0 1,1 1,1 1,1 1,1 2,0 1,1 0,1 1,1 1,1 1,0 2,2 1,0 1,1 1,0 1,1 1,0 1,1 1,0 1,1 1,0 1,1 3,0 1,1 3,0 1,1 2,0 -1,-1 0,-2 1,-1Z"/>
<path onmouseover="hoverPath(evt)" onmouseout="recoverPath(evt)" fill="rgb(241,240,231)" d="M  227,36l -1,0 0,1 -1,1 0,3 -1,1 0,5 -1,1 0,1 1,1 0,2 1,1 1,1 1,1 1,1 0,2 -1,1 -2,0 -1,-1 -1,-1 -1,-1 -1,1 0,8 -1,1 0,6 1,1 0,3 -1,1 -1,0 0,1 -1,1 0,2 1,1 0,2 3,0 1,1 0,1 1,-1 5,0 1,1 4,0 1,1 5,0 1,1 4,0 1,1 4,0 1,1 4,0 0,-61 -6,0 -1,-1 -7,0 0,1 1,1 0,2 -1,1 -1,1 -10,0 -1,1 -1,0 -1,1 5,27 1,-1 2,0 1,1 0,2 -1,1 -2,0 -1,-1 0,-2 -5,-27 16,6 2,0 1,1 0,2 -1,1 -2,0 -1,-1 0,-2 1,-1 -16,-6Z"/>
<path onmouseover="hoverPath(evt)" onmouseout="recoverPath(evt)" fill="rgb(239,238,230)" d="M  238,255l 17,0 0,-24 -4,0 -1,1 -3,0 -1,1 -2,0 -1,1 -4,0 -1,1 -3,0 -1,1 -2,0 -1,1 -2,0 -1,1 -3,0 -1,1 -1,0 -1,1 -1,1 0,14Z"/>
<path onmouseover="hoverPath(evt)" onmouseout="recoverPath(evt)" fill="rgb(236,224,207)" d="M  6,253l -1,-1 -1,0 -1,1 -3,0 0,2 63,0 0,-2 -1,-1 0,-2 -1,-1 0,-2 -1,-1 0,-3 1,-1 0,-1 -1,0 -1,-1 -1,-1 0,-2 -1,-1 0,-3 -1,1 0,0 -1,1 -2,0 0,1 -1,1 -1,1 -4,0 -1,-1 -1,1 -3,0 -1,1 -2,0 -1,1 -3,0 -1,1 -2,0 -1,1 -2,0 0,2 -1,1 -2,0 -1,-1 -1,0 -1,1 -2,0 -1,1 -1,0 -1,1 -1,0 -1,1 -2,0 -1,1 -1,0 -1,1 -2,0 0,2 -1,1Z"/>
<path onmouseover="hoverPath(evt)" onmouseout="recoverPath(evt)" fill="rgb(224,184,134)" d="M  24,117l 0,0 -1,-1 0,-3 -1,-1 0,-2 -1,-1 0,-1 -1,-1 0,-2 -1,-1 0,-3 -1,-1 0,-4 -1,-1 -2,0 -1,1 0,0 -1,1 -2,0 -1,-1 0,-2 -1,-1 0,-1 -1,-1 0,-1 -2,0 -1,-1 -1,-1 -1,-1 0,-9 1,-1 0,-2 -4,0 0,14 2,0 1,1 1,0 1,1 0,4 1,1 0,1 2,0 1,1 0,2 1,1 0,1 1,1 0,3 -1,1 -1,1 1,1 0,2 1,1 0,4 1,1 0,3 1,1 0,1 1,1 1,1 0,2 1,1 0,1 1,1 0,1 1,0 -1,-2 0,-1 1,-1 0,-2 -1,-1 0,-2 -1,-1 0,-4 1,-1 2,0 1,1 0,1 1,1 0,2 1,1 0,2 1,1 0,1 1,0 0,-2 1,-1 0,-1 -1,-1Z"/>
<path onmouseover="hoverPath(evt)" onmouseout="recoverPath(evt)" fill="rgb(240,239,230)" d="M  42,13l -1,0 0,19 -1,1 0,15 1,1 2,0 1,1 2,0 1,1 4,0 1,1 4,0 1,1 5,0 1,1 0,3 4,0 1,1 1,1 0,2 3,0 1,1 3,0 1,1 0,2 5,0 0,-3 1,-1 3,0 0,-1 1,-1 1,0 -1,-1 -1,0 -1,-1 0,-2 1,-1 1,0 1,-1 1,-1 0,-1 1,-1 -2,0 -1,-1 -3,0 -1,-1 0,-3 -1,-1 0,-44 -11,0 0,15 -1,1 0,11 -1,1 -2,0 -1,-1 0,-15 -1,0 -1,-1 -3,0 -1,1 -17,0 -1,1Z"/>
<path onmouseover="hoverPath(evt)" onmouseout="recoverPath(evt)" fill="rgb(237,235,226)" d="M  88,47l 0,0 1,1 2,0 1,1 0,2 -1,1 0,1 -2,2 -1,1 0,0 1,1 1,1 0,1 3,0 1,1 3,0 1,1 5,0 1,1 2,0 1,1 1,0 1,-1 0,-5 1,-1 2,0 0,-6 1,-1 0,-21 1,-1 0,-11 1,-1 1,0 0,-11 -1,-1 0,-3 -31,0 0,43 1,1 0,3Z"/>
<path onmouseover="hoverPath(evt)" onmouseout="recoverPath(evt)" fill="rgb(209,209,201)" d="M  133,77l 0,-1 -4,0 -1,-1 0,-2 -3,0 -1,-1 -4,0 -1,-1 -2,0 -1,-1 -3,0 -1,-1 -4,0 -1,-1 -2,0 -1,-1 -2,0 -1,1 -2,0 -1,1 -4,0 0,1 -1,1 2,0 1,1 3,0 1,-1 2,0 1,1 0,1 1,0 1,1 1,0 0,-1 1,-1 1,0 1,-1 2,0 1,1 0,2 3,0 1,1 0,3 1,1 0,-1 1,-1 1,0 0,-1 1,-1 1,0 1,-1 3,0 1,1 0,1 1,1 0,6 2,0 1,1 1,0 -2,-2 0,-1 1,-1 3,0 1,-1 0,-1 -1,-1Z"/>
<path onmouseover="hoverPath(evt)" onmouseout="recoverPath(evt)" fill="rgb(242,241,231)" d="M  193,14l 0,13 -1,1 0,3 1,1 0,4 1,1 0,3 1,1 0,3 1,1 0,2 1,0 1,1 6,0 1,-1 12,0 0,-5 1,-1 0,-11 1,-1 0,-4 -1,0 -1,-1 0,-1 -2,0 -1,-1 -3,0 -1,-1 -1,0 -1,-1 -1,0 -1,-1 -1,0 -1,-1 -1,0 -1,-1 -1,0 -1,-1 -1,0 -2,-2Z"/>
<path onmouseover="hoverPath(evt)" onmouseout="recoverPath(evt)" fill="rgb(172,198,237)" d="M  198,166l 0,-4 -1,-1 0,-3 -1,-1 0,-12 1,-1 -1,-1 0,-4 1,-1 0,-6 1,-1 0,-3 1,-1 0,-3 1,-1 1,0 0,-1 1,-1 -1,0 1,-1 1,1 0,-1 -5,5 0,1 -1,1 0,1 -1,1 0,3 -1,1 0,3 -1,1 0,13 1,1 0,7 1,1 0,3 1,1 0,2 1,1 -1,1 0,7 -1,1 0,22 1,1 0,5 1,1 0,1 1,1 0,1 1,1 0,1 1,1 1,1 1,1 1,1 1,1 1,1 0,1 1,1 1,1 3,3 1,1 1,1 1,1 1,1 0,1 1,1 1,1 1,1 1,1 1,1 0,3 1,-1 1,0 0,-1 -1,-1 0,-1 -1,-1 -1,-1 -1,-1 -1,-1 -1,-1 0,-1 -1,-1 -1,-1 -1,-1 -1,-1 -1,-1 -1,-1 -1,-1 -1,-1 -1,-1 0,-1 -1,-1 -1,-1 -1,-1 -1,-1 -1,-1 -1,-1 0,-1 -1,-1 0,-1 -1,-1 0,-1 -1,-1 0,-5 -1,-1 0,-19 1,-1 0,-8 -1,-1 1,-1Z"/>
<path onmouseover="hoverPath(evt)" onmouseout="recoverPath(evt)" fill="rgb(234,231,221)" d="M  22,104l 0,2 1,1 0,1 1,1 0,2 1,1 0,3 1,1 0,3 1,1 0,3 -1,1 0,2 2,0 1,1 1,0 1,1 1,-1 5,0 1,1 4,0 1,1 5,0 1,1 3,0 1,-1 3,0 1,-1 -1,0 -4,1 -3,0 -2,-1 0,-1 -1,0 -1,-1 0,-4 1,-1 2,0 1,-1 1,0 1,-1 2,0 0,-1 -1,-1 0,-2 1,-1 2,0 1,1 0,-1 -1,-1 0,0 -1,-1 -4,0 -1,1 -3,0 -1,1 -2,0 -1,1 -6,0 -1,-1 0,-2 1,-1 1,0 1,-1 1,-1 3,0 1,-1 4,0 1,-1 3,0 1,-1 2,0 1,-1 3,0 0,-4 1,-1 -2,1 -1,0 -1,-1 0,-2 1,-1 1,-1 1,-1 1,0 0,-6 -1,-1 0,-1 -10,0 -1,-1 -2,0 -1,-1 0,-2 1,-1 5,0 1,-1 8,0 -1,-1 0,0 -1,-1 -1,0 -1,-1 -1,0 -1,-1 -1,0 -1,-1 -1,-1 -1,0 -1,-1 -1,-1 -4,0 -1,1 0,2 -1,1 0,3 1,0 1,1 0,4 -1,1 -2,0 0,3 -1,1 -5,0 -1,-1 0,-3 -1,0 -1,-1 0,-6 -1,4 0,2 -1,1 -2,0 0,4 -1,1 -3,0 0,4 -1,1 -2,0 0,3 1,1 0,3 1,1Z"/>
<path onmouseover="hoverPath(evt)" onmouseout="recoverPath(evt)" fill="rgb(241,239,229)" d="M  32,135l -1,-1 -1,0 0,1 -1,1 0,1 1,1 0,2 1,1 0,1 10,0 1,1 0,2 -1,1 -3,0 0,2 -1,1 -4,0 0,1 1,1 1,0 1,1 1,1 0,2 -1,1 -1,0 0,1 -1,1 1,0 1,-1 3,0 1,1 0,1 1,1 12,0 1,-1 0,-3 1,-1 0,-3 1,-1 1,0 1,-1 2,0 1,-1 6,0 1,1 1,1 0,1 1,1 0,1 1,1 3,0 1,-1 1,0 1,-1 1,0 1,-1 1,0 1,-1 2,0 1,-1 1,0 1,-1 1,0 1,-1 2,0 1,-1 1,0 1,-1 1,0 1,-1 1,0 1,-1 1,0 1,-1 1,0 1,-1 1,0 1,-1 2,0 1,-1 1,0 1,-1 1,0 1,-1 1,0 1,-1 1,0 1,-1 1,-1 1,0 1,-1 1,0 1,-1 1,-1 1,-1 1,0 1,-1 1,-1 1,-1 0,-1 1,-1 1,-1 0,-1 1,-1 0,-1 1,-1 0,-1 1,-1 0,-2 1,-1 0,-3 -1,0 -1,-1 0,1 -1,1 0,0 -1,1 -1,1 -12,0 -1,-1 -4,0 -1,1 -6,0 -1,-1 -3,0 -1,-1 0,-2 -5,0 -1,-1 -1,-1 -1,-1 -1,-1 0,-1 -1,-1 -1,-1 -1,-1 0,-1 -1,-1 0,-1 -1,0 -1,1 -1,0 -1,1 -1,0 -1,1 -2,0 -1,1 -1,0 -1,1 -2,0 -1,1 -1,0 -1,1 -3,0 -1,1 -2,0 -1,1 -2,0 0,3 -1,1 0,2 -1,1 -1,0 -1,1 0,2 -1,1 -2,0 -1,1 -1,0 -1,1 -2,0 0,2 1,0 1,1 0,1 5,0 1,-1 4,0 1,1 0,2 -1,1 -1,0 -1,1 -3,0 -1,1 -5,0 -1,-1 -4,0 -1,1 -2,0 0,2 -1,1 -7,0 56,-13 1,1 0,2 -1,1 -1,0 -1,1 -1,0 -1,1 -2,0 -1,-1 0,-2 1,-1 1,0 1,-1 1,0 1,-1 2,0 -56,13Z"/>
<path onmouseover="hoverPath(evt)" onmouseout="recoverPath(evt)" fill="rgb(241,239,228)" d="M  63,7l 4,0 0,-7 -26,0 0,6 1,1 0,0 1,1 9,0 1,-1Z"/>
<path onmouseover="hoverPath(evt)" onmouseout="recoverPath(evt)" fill="rgb(251,250,247)" d="M  239,30l 0,-3 1,-1 9,0 1,1 5,0 0,-1 -5,0 -1,-1 -4,0 -1,-1 -2,0 -1,-1 0,-3 -9,0 -1,-1 -3,0 -1,-1 -1,0 -1,-1 -1,0 1,1 0,2 -1,1 -4,0 -1,-1 -3,0 -1,-1 -3,0 -1,-1 -1,0 -1,-1 -1,0 -1,-1 -1,0 -1,-1 -1,0 -1,-1 -1,0 -1,-1 -1,-1 -1,0 -1,-1 -1,-1 -1,-1 0,-1 -2,0 -1,-1 -1,-1 -2,-2 -1,-1 -1,-1 0,-2 -3,0 0,2 1,0 1,1 1,0 1,1 1,1 1,1 1,1 0,1 1,1 1,0 1,1 1,1 0,1 2,0 1,1 1,1 1,0 1,1 1,0 1,1 1,0 1,1 1,0 1,1 1,0 1,1 1,0 1,1 3,0 1,1 2,0 1,1 0,1 1,0 1,1 0,6 -1,1 0,11 -1,1 0,5 -1,1 -12,0 7,1 4,0 1,1 0,13 1,0 0,-8 1,-1 1,-1 2,0 -1,-1 0,-2 -1,-1 0,-3 1,-1 0,-5 1,-1 0,-3 1,-1 0,-1 1,-1 1,0 1,-1 1,0 1,-1 10,0 1,-1 -1,-1 -21,35 -1,0 0,5 -1,1 0,5 -1,1 0,3 -1,1 0,2 -1,1 2,0 0,-2 1,-1 0,-3 1,-1 0,-1 1,-1 1,0 0,-1 -1,-1 0,-8 21,-35 2,-11 -2,11Z"/>
</svg>