<svg width="256" height="256" xmlns="http://www.w3.org/2000/svg"><script> 
var tempColor;
function hoverPath(evt){
obj = evt.target;
tempColor = obj.getAttribute("fill");
obj.setAttribute("fill","red");
//alert(tempColor);
//obj.setAttribute("stroke","red");}
function recoverPath(evt){
obj = evt.target;
obj.setAttribute("fill", tempColor);
//obj.setAttribute("stroke", tempColor);
}</script><path onmouseover="hoverPath(evt)" onmouseout="recoverPath(evt)" fill="rgb(243,242,233)" d="M  0,224l 0,31 26,0 0,-1 -1,-1 0,-2 1,-1 0,-1 -1,-1 0,-2 -2,0 -1,-1 0,-2 1,-1 0,-1 -1,-1 0,-2 -2,0 -1,-1 0,-2 1,-1 0,-1 -1,-1 0,-2 -2,0 -1,-1 0,-2 1,-1 0,-1 -2,0 -1,-1 0,-2 1,-1 0,-1 -1,-1 -4,0 -1,-1 0,-2 1,-1 2,0 0,-3 -1,-1 0,-1 -2,0 -1,-1 0,-2 1,-1 -1,-1 0,-2 -1,-1 0,-1 -2,0 -1,-1 0,-2 -1,0 -1,-1 -2,0Z"/>
<path onmouseover="hoverPath(evt)" onmouseout="recoverPath(evt)" fill="rgb(171,198,238)" d="M  68,96l 0,0 1,1 1,1 0,1 1,1 0,2 1,1 0,1 1,1 0,1 1,1 0,2 1,1 0,1 1,1 0,1 1,1 0,1 1,1 0,1 1,1 0,1 1,1 0,2 1,1 0,1 1,1 0,1 1,1 0,1 1,1 0,1 1,1 0,2 1,1 0,1 1,1 0,1 1,1 0,1 1,1 0,1 1,1 0,2 1,1 2,0 0,-1 -1,-1 0,-1 -1,-1 0,-1 -1,-1 0,-1 -1,-1 0,-2 -1,-1 0,-1 -1,-1 0,-1 -1,-1 0,-1 -1,-1 0,-2 -1,-1 0,-1 -1,-1 0,-1 -1,-1 0,-1 -1,-1 0,-2 -1,-1 0,-1 -1,-1 0,-1 -1,-1 0,-1 -1,-1 0,-2 -1,-1 0,-1 -1,-1 0,-1 -1,-1 0,-1 -1,-1 0,-1 -1,-1 0,-2 -1,-1 -1,-1 -1,0 -1,1 -1,-1 -1,1 -1,0 -1,1Z"/>
<path onmouseover="hoverPath(evt)" onmouseout="recoverPath(evt)" fill="rgb(241,240,230)" d="M  214,137l 0,0 -1,-1 -1,-1 0,-1 -3,0 -1,1 -2,0 -1,1 -2,0 0,6 -1,1 -1,0 -1,1 -1,0 -1,1 -2,0 -1,1 -2,0 0,1 1,1 0,0 1,1 1,1 0,1 1,1 1,1 1,1 1,1 1,1 1,1 1,1 1,1 1,1 1,1 1,1 1,0 1,1 1,1 1,1 1,1 1,1 1,-1 2,0 1,1 0,2 1,1 1,0 1,1 1,0 1,1 0,-9 1,-1 2,0 1,1 0,9 1,1 0,1 4,0 1,1 0,2 -1,1 -6,0 -1,1 0,1 1,0 1,1 6,0 1,1 6,0 1,1 2,0 0,-3 -5,0 -1,-1 0,-2 1,-1 5,0 1,-1 0,-4 1,-1 2,0 1,1 0,12 1,-1 5,0 1,1 1,0 0,-64 -2,0 -1,1 -2,0 -1,1 -3,0 -1,1 -1,0 -1,1 0,3 -1,1 -4,0 -1,1 -3,0 -1,1 -1,0 0,1 -1,1 -1,0 0,1 -1,1 -2,0 -1,-1 0,-4 -2,0 -1,1 -1,1 -1,1 -2,0 -1,1 -1,0 0,4 -1,1Z"/>
<path onmouseover="hoverPath(evt)" onmouseout="recoverPath(evt)" fill="rgb(171,198,237)" d="M  0,25l 0,3 4,0 1,-1 3,0 1,-1 3,0 1,-1 2,0 1,-1 3,0 1,-1 3,0 1,-1 3,0 1,-1 3,0 1,-1 3,0 1,-1 3,0 1,-1 3,0 1,-1 3,0 1,-1 3,0 1,-1 3,0 1,-1 3,0 1,-1 2,0 1,-1 -1,-1 0,-1 -1,-1 0,-1 -1,0 -1,1 -3,0 -1,1 -3,0 -1,1 -3,0 -1,1 -3,0 -1,1 -3,0 -1,1 -2,0 -1,1 -3,0 -1,1 -3,0 -1,1 -2,0 -1,1 -3,0 -1,1 -3,0 -1,1 -2,0 -1,1 -3,0 -1,1 -3,0 -1,1 -3,0 -1,1 -1,0 -1,1Z"/>
<path onmouseover="hoverPath(evt)" onmouseout="recoverPath(evt)" fill="rgb(242,240,231)" d="M  17,202l 0,2 1,1 0,1 1,1 0,1 1,1 0,2 1,1 0,1 1,1 0,2 1,1 0,1 15,0 1,-1 2,0 1,-1 23,0 0,-1 1,-1 0,-2 1,-1 0,-3 1,-1 0,-5 1,-1 0,-1 -1,-1 -2,0 -1,-1 -12,0 -1,1 -9,0 -1,-1 -8,0 -1,1 -16,0 -1,1 0,1 1,1Z"/>
<path onmouseover="hoverPath(evt)" onmouseout="recoverPath(evt)" fill="rgb(243,242,233)" d="M  23,225l 0,2 2,0 1,1 0,2 -1,1 0,1 1,1 0,2 2,0 1,1 0,2 -1,1 0,1 1,1 0,2 2,0 1,1 0,2 -1,1 0,1 1,1 0,2 1,1 0,3 44,0 0,-2 -1,-1 0,-2 -2,0 -1,-1 0,-2 1,-1 0,-1 -1,-1 0,-2 -2,0 -1,-1 0,-2 1,-1 0,-1 -1,-1 0,-2 -1,-1 0,-3 -1,-1 0,-8 -2,0 -1,-1 -23,0 -1,-1 -1,0 0,2 -1,1 -13,0 -1,1 -2,0Z"/>
<path onmouseover="hoverPath(evt)" onmouseout="recoverPath(evt)" fill="rgb(243,241,232)" d="M  33,13l 2,0 1,-1 2,0 1,-1 3,0 1,-1 3,0 1,-1 3,0 1,-1 3,0 1,-1 3,0 0,-2 -1,-1 0,-1 -1,-1 0,-2 -56,0 0,22 1,0 1,-1 3,0 1,-1 3,0 1,-1 3,0 1,-1 2,0 1,-1 3,0 1,-1 3,0 1,-1 2,0 1,-1 3,0 1,-1Z"/>
<path onmouseover="hoverPath(evt)" onmouseout="recoverPath(evt)" fill="rgb(240,240,231)" d="M  35,106l 0,0 1,-1 2,0 1,-1 4,0 1,1 1,0 1,-1 2,0 1,-1 1,0 1,-1 1,0 1,-1 2,0 1,-1 1,0 1,-1 2,0 1,-1 0,-2 1,-1 1,0 1,-1 1,0 1,-1 5,0 1,1 1,1 1,1 0,2 1,1 0,1 1,1 0,1 1,1 0,1 1,1 0,1 1,1 0,2 1,1 0,1 1,1 0,1 1,1 0,1 1,1 0,2 1,1 0,1 1,1 0,1 1,1 0,1 1,1 0,2 1,1 0,1 1,1 0,1 1,1 0,1 1,1 0,2 1,1 0,1 1,1 0,1 1,1 0,1 1,1 0,2 1,0 1,1 1,1 3,0 0,-1 1,-1 1,0 1,-1 1,0 0,-1 1,-1 0,-1 1,-1 3,0 0,-2 1,-1 3,0 0,-1 1,-1 0,-1 1,-1 1,-1 -1,-1 -1,0 -1,-1 -1,-1 0,-2 -1,-1 0,-1 -1,-1 0,-1 -1,-1 0,-1 -1,-1 0,-1 -1,-1 0,-1 -1,-1 0,-2 -1,-1 0,-1 -1,-1 0,-1 -1,-1 0,-1 -1,-1 0,-1 -1,-1 0,-2 -1,-1 0,-1 -1,-1 0,-1 -1,-1 0,-1 -1,-1 0,-1 -1,-1 0,-1 -1,-1 0,-2 -1,-1 0,-1 -1,-1 0,-1 -1,-1 0,-1 -1,-1 -2,0 -1,-1 -1,-1 0,-3 1,-1 0,-2 -1,-1 0,-1 -1,-1 0,-1 -1,-1 0,-2 -1,-1 0,-1 -1,-1 0,-1 -1,-1 -1,-1 0,-4 1,-1 1,0 0,-2 1,-1 1,0 1,-1 2,0 1,-1 4,0 0,-1 -1,-1 0,-4 1,-1 1,0 1,-1 1,0 0,-2 1,-1 1,0 1,-1 1,-1 1,-1 1,0 0,-2 1,-1 2,0 1,-1 0,-2 1,-1 2,0 0,-1 1,-1 1,-1 1,-1 1,0 0,-2 1,-1 1,0 1,-1 0,-3 1,-1 1,0 -1,-1 0,-2 -1,0 -1,-1 0,-3 -1,0 -1,1 -6,0 -1,-1 -1,0 0,2 -1,1 -1,0 -1,1 -4,0 2,1 0,4 -1,1 0,1 -1,1 -2,0 0,1 -1,1 -1,0 0,1 -1,1 -1,1 -4,0 0,3 -1,1 -2,0 0,2 -1,1 -3,0 1,1 0,2 -1,1 -2,0 -1,1 -1,1 -2,0 -1,-1 0,-1 -2,0 -1,-1 0,-1 -1,-1 0,-2 -1,-1 0,-3 -1,-1 0,-1 -1,-1 0,-1 -1,-1 0,-1 -1,-1 0,-2 -1,-1 0,-1 -1,-1 0,-1 -1,-1 0,-1 -1,-1 -1,0 -1,1 -3,0 -1,1 -3,0 -1,1 -3,0 -1,1 -3,0 -1,1 -3,0 -1,1 -3,0 -1,1 -3,0 -1,1 -3,0 -1,1 -3,0 -1,1 -3,0 -1,1 -3,0 -1,1 -2,0 -1,1 -3,0 -1,1 -3,0 -1,1 -5,0 0,94 1,0 1,-1 1,0 0,-2 1,-1 1,0 0,-2 -1,-1 0,-2 1,-1 4,0 1,1 0,1 1,0 0,-4 1,-1 5,0 1,1 3,0 1,-1 1,0 1,-1 3,0 2,-2 1,-1 2,0 1,-1Z"/>
<path onmouseover="hoverPath(evt)" onmouseout="recoverPath(evt)" fill="rgb(233,238,231)" d="M  198,73l 0,1 1,1 0,2 -1,1 0,1 1,1 0,1 1,1 0,1 1,1 0,2 1,1 0,1 1,1 0,-1 1,-1 0,-1 1,-1 2,0 1,-1 1,-1 1,0 1,-1 1,0 0,-2 1,-1 3,0 1,-1 4,0 1,1 13,0 1,1 1,0 -1,-1 -1,-1 0,-2 -1,-1 0,-2 1,-1 1,0 1,-1 2,0 1,-1 1,-1 -1,-1 0,-1 -1,-1 0,-1 -1,-1 0,-1 -1,-1 0,-2 -1,-1 0,-1 -1,-1 0,-1 -1,-1 0,-2 -1,-1 0,-1 -1,-1 0,-1 -1,-1 0,-4 1,-1 -3,0 -1,-1 0,-2 -1,-1 0,-1 -1,-1 0,-1 -1,-1 0,-1 -4,0 -1,-1 0,-2 1,-1 1,0 0,-2 -1,-1 0,-2 -1,-1 0,-1 -1,-1 0,-1 -1,-1 0,-1 -1,-1 0,-1 -1,-1 0,-2 -1,-1 0,-1 -1,-1 0,-1 -1,-1 0,-1 -1,-1 0,-1 -1,-1 0,-1 -1,-1 0,-3 -15,0 0,1 1,1 0,0 1,1 1,1 1,1 1,1 1,1 2,0 1,1 0,2 -1,1 0,2 -1,1 2,0 1,1 0,1 1,1 0,1 1,1 0,1 1,1 0,1 2,0 1,1 0,2 -1,1 0,1 1,1 0,1 1,1 0,2 1,1 0,2 -1,1 2,0 1,1 1,1 0,2 1,1 0,1 2,0 1,1 0,2 -1,1 0,1 1,1 0,0 1,1 1,1 0,3 -1,1 -1,1 -1,1 0,1 -1,1 -2,0 -1,1 -1,1 0,1 -1,1 0,1 -1,1 -3,0 0,2 -1,1 -1,0 -1,1 -6,0 0,2 -1,1 -1,0 0,2 35,-30 1,0 1,1 1,1 1,1 0,-4 1,-1 6,0 1,1 0,2 -1,1 -2,0 1,1 0,3 1,1 1,1 0,1 3,0 1,-1 2,0 1,-1 3,0 0,-28 -3,0 -1,1 -2,0 -1,1 -2,0 -1,1 -3,0 -1,1 -2,0 -1,1 -2,0 -1,1 -1,0 -1,1 -2,0 -1,1 0,3 1,1 0,1 1,1 0,1 1,1 0,5 -35,30Z"/>
<path onmouseover="hoverPath(evt)" onmouseout="recoverPath(evt)" fill="rgb(253,253,253)" d="M  212,1l 0,1 1,1 0,1 1,1 0,1 1,1 0,1 1,1 0,1 1,1 0,1 1,1 0,2 1,1 0,1 1,1 0,1 1,1 0,1 1,1 0,1 1,1 0,2 1,1 0,4 -1,1 3,0 1,1 0,1 1,1 0,1 1,1 0,1 1,1 0,2 1,0 0,-2 -1,-1 0,-1 -1,-1 0,-1 -1,-1 0,-5 1,-1 1,-1 2,0 1,-1 1,0 1,-1 2,0 1,-1 2,0 1,-1 3,0 1,-1 2,0 1,-1 2,0 1,-1 4,0 0,-3 -3,0 0,1 -1,1 -1,0 -1,1 -2,0 -1,1 -2,0 -1,1 -2,0 -1,1 -2,0 -1,1 -2,0 -1,1 -2,0 -1,1 -6,0 -1,-1 0,-1 -1,-1 0,-1 -1,-1 0,-2 -1,-1 0,-1 -1,-1 0,-1 -1,-1 0,-1 -1,-1 0,-1 -1,-1 0,-1 -1,-1 0,-1 -1,-1 0,-2 -1,-1 0,-3 -1,0 -1,1Z"/>
<path onmouseover="hoverPath(evt)" onmouseout="recoverPath(evt)" fill="rgb(175,215,182)" d="M  2,186l -2,0 0,9 3,0 1,1 -1,-2 0,-1 1,-1 6,0 0,-1 1,-1 7,0 1,1 1,0 1,-1 4,0 1,1 2,0 0,-1 1,-1 0,-2 1,-1 2,0 1,-1 1,0 0,-1 -1,-1 0,-3 -1,4 -27,0 0,1 -1,1Z"/>
<path onmouseover="hoverPath(evt)" onmouseout="recoverPath(evt)" fill="rgb(247,235,137)" d="M  6,194l 0,1 4,0 1,1 0,1 1,0 1,-1 0,0 1,-1 15,0 1,1 0,1 2,0 1,-1 10,0 1,1 7,0 1,-1 13,0 1,-1 5,0 1,1 1,0 1,-1 6,0 1,1 8,0 1,1 8,0 1,1 6,0 1,1 2,0 1,-1 3,0 1,1 1,0 1,1 11,0 1,1 7,0 1,1 8,0 1,1 6,0 1,1 1,1 0,1 1,1 0,1 1,1 0,2 1,1 0,2 1,1 0,2 -1,1 -3,0 2,1 1,0 1,1 2,0 1,1 0,2 -1,1 0,2 1,1 0,1 1,1 0,3 1,1 0,4 -1,1 -1,0 -1,1 -1,0 5,-3 2,0 1,1 1,0 1,1 0,1 1,1 0,1 1,1 0,1 1,1 0,1 1,1 0,1 1,1 0,2 1,1 0,1 1,0 1,1 0,2 6,0 0,-1 -1,-1 0,-1 -1,-1 0,-1 -1,-1 0,-1 -1,-1 0,-1 -1,-1 0,-1 -1,-1 0,-1 -1,-1 0,-3 -1,0 -1,-1 0,-1 -1,0 -1,-1 -1,-1 0,-2 1,-1 -1,-1 0,-2 -1,-1 0,-1 -1,-1 0,-1 -1,-1 0,-1 -1,-1 0,-1 -1,-1 0,-1 -1,-1 0,-1 -1,-1 0,-1 -1,-1 0,-2 -1,-1 0,-1 -1,-1 0,-2 1,-1 10,0 1,1 7,0 1,1 7,0 1,1 6,0 1,-1 4,0 1,1 1,0 1,1 1,0 1,-1 6,0 1,1 0,1 2,0 1,1 7,0 1,1 7,0 1,-1 6,0 1,1 0,1 1,0 1,-1 6,0 1,1 0,1 1,0 1,-1 6,0 1,1 0,1 1,0 0,-10 -3,0 -1,-1 -7,0 -1,-1 -7,0 -1,-1 -8,0 -1,-1 -6,0 -1,1 -9,0 -1,-1 -4,0 -1,-1 0,-1 -6,0 -1,-1 -8,0 -1,-1 -6,0 -1,-1 -7,0 -1,-1 -8,0 -1,-1 -27,0 -1,-1 0,-2 -7,0 -1,-1 -8,0 -1,-1 -1,0 -1,1 -3,0 -1,-1 0,-1 -9,0 -1,-1 -9,0 -1,-1 -7,0 -1,-1 -3,0 -1,-1 -1,1 -3,0 -1,-1 -20,0 -1,1 -3,0 -1,1 -1,0 -1,1 -1,0 -1,1 -3,0 -1,-1 0,-2 -1,1 -2,0 -1,-1 0,-1 -3,0 0,2 -1,1 -1,0 -1,1 -2,0 0,2 -1,1 0,1 -1,1 -4,0 -1,-1 -2,0 -1,1 -3,0 -1,-1 -5,0 0,1 -1,1Z"/>
<path onmouseover="hoverPath(evt)" onmouseout="recoverPath(evt)" fill="rgb(243,242,235)" d="M  43,175l 1,0 0,-4 1,-1 2,0 1,1 1,1 0,6 2,0 1,1 4,0 0,-3 1,-1 1,0 1,-1 1,-1 3,0 1,-1 1,0 1,-1 1,-1 2,0 0,-3 1,-1 1,-1 5,0 0,-1 1,-1 3,0 0,-2 1,-1 3,0 0,-1 1,-1 0,-1 1,-1 1,0 0,-3 1,-1 2,0 1,1 0,-3 1,-1 0,-2 -2,0 -1,-1 -1,-1 0,-2 -1,-1 0,-1 -1,-1 0,-1 -1,-1 0,-1 -1,-1 0,-1 -1,-1 0,-2 -1,-1 0,-1 -1,-1 0,-1 -1,-1 0,-1 -1,-1 0,-1 -1,-1 0,-2 -1,-1 0,-1 -1,-1 0,-1 -1,-1 0,-1 -1,-1 0,-1 -1,-1 0,-1 -1,-1 0,-2 -1,-1 0,-1 -1,-1 0,-1 -1,-1 0,-2 -1,-1 0,-1 -1,-1 -1,1 -3,0 -1,1 -1,1 -2,0 -1,1 -1,0 -1,1 -2,0 -1,1 -1,0 -1,1 -1,0 -1,1 -2,0 -1,1 -2,0 -1,1 -1,1 -1,0 -2,2 -2,0 -1,1 -2,0 -1,1 -1,1 -3,0 -1,1 -2,0 0,4 -1,1 -1,1 -2,0 -1,-1 -3,0 -1,1 -2,0 0,1 -1,1 -3,0 -1,1 -5,0 -1,1 -1,0 -1,1 -2,0 0,58 3,0 0,-1 1,-1 27,0 0,-3 1,-1 1,0 1,-1 4,0 1,-1 1,0 1,-1Z"/>
<path onmouseover="hoverPath(evt)" onmouseout="recoverPath(evt)" fill="rgb(252,252,250)" d="M  66,218l 0,0 1,1 2,0 1,1 0,8 1,1 0,3 1,1 0,2 1,1 0,3 -1,1 2,0 1,1 0,2 1,1 0,3 -1,1 2,0 1,1 0,2 1,1 0,3 2,0 0,-1 -1,-1 0,-3 1,-1 -2,0 -1,-1 0,-2 -1,-1 0,-3 1,-1 -2,0 -1,-1 0,-2 -1,-1 0,-2 -1,-1 0,-1 -1,-1 0,-3 -1,-1 0,-7 1,-1 0,-5 1,-1 0,-4 1,-1 0,-5 1,-1 0,-3 1,-1 0,-2 -1,0 -1,1 -3,0 -1,-1 -3,0 3,1 0,0 1,1 0,3 -1,1 0,5 -1,1 0,3 -1,1 0,2 -1,1 0,1 -1,1Z"/>
<path onmouseover="hoverPath(evt)" onmouseout="recoverPath(evt)" fill="rgb(247,235,137)" d="M  81,34l 0,0 -1,-1 0,-1 -1,-1 0,-1 -1,-1 -2,-2 0,-1 -1,-1 0,-2 -1,-1 0,-1 -1,-1 0,-1 -1,-1 0,-1 -1,-1 0,-1 -1,-1 0,-1 -1,0 -1,-1 0,-1 -1,-1 0,-1 -1,-1 0,-2 1,-1 -1,-1 0,-1 -1,-1 0,-2 -7,0 0,1 1,1 0,1 1,1 0,2 2,0 1,1 0,1 1,1 0,1 1,1 0,2 -1,1 1,1 0,1 1,1 0,1 1,1 0,1 1,1 0,2 1,1 0,1 1,1 0,1 1,1 0,1 1,1 0,3 1,1 0,2 1,1 0,1 2,0 1,1 0,1 1,-1 0,0 1,-1 2,0 -1,-1 0,-2 1,-1Z"/>
<path onmouseover="hoverPath(evt)" onmouseout="recoverPath(evt)" fill="rgb(240,240,232)" d="M  129,119l -2,0 0,1 -1,1 0,1 -1,1 -1,1 -1,0 1,1 0,4 -1,1 -1,1 2,0 1,-1 2,0 1,1 1,1 0,2 1,1 0,1 2,0 1,1 0,2 -1,1 0,1 1,1 0,1 1,1 0,1 1,1 0,1 1,1 0,1 1,1 0,1 2,0 1,1 0,2 -1,1 0,1 1,1 0,0 1,1 0,2 1,1 0,1 1,1 0,1 2,0 1,1 0,2 -1,1 0,1 1,1 0,1 1,1 0,1 1,1 0,2 1,1 2,0 1,1 0,2 -1,1 0,1 1,1 0,1 1,1 0,2 1,1 0,1 1,1 0,2 10,0 1,1 8,0 1,1 7,0 1,1 6,0 1,1 8,0 1,1 6,0 1,1 0,1 1,0 0,-1 1,-1 0,-1 1,-1 0,-1 1,-1 1,-1 0,-1 1,-1 0,-1 1,-1 1,-1 0,-1 1,-1 1,-1 0,-1 1,-1 0,-1 1,-1 1,-1 0,-2 -1,-1 -1,0 -1,-1 -1,-1 -1,0 -1,-1 -1,-1 -1,0 -1,-1 -1,-1 -2,0 -1,-1 0,-1 -6,0 -1,-1 0,-2 1,-1 0,-1 -1,-1 0,0 -1,-1 -1,-1 -1,-1 -1,-1 -1,-1 -1,-1 -1,-1 0,-1 -1,-1 -1,-1 -1,0 -1,-1 0,-1 -2,0 -1,1 -3,0 -1,-1 0,-2 1,-1 1,0 1,-1 1,0 0,-2 -1,-1 -1,0 -1,-1 0,-2 -2,0 -1,-1 0,-3 1,-1 1,0 1,-1 3,0 1,1 1,-1 2,0 1,-1 2,0 1,-1 2,0 1,-1 1,0 -1,-1 0,-2 -2,0 -1,-1 0,-1 -1,-1 0,-1 -1,-1 0,-1 -1,-1 0,-1 -4,0 -1,-1 0,-2 1,-1 0,-3 -5,0 -1,-1 0,-2 1,-1 2,0 0,-1 -1,-1 0,-4 -5,0 -1,-1 -1,0 -1,1 -2,0 -1,1 -1,0 0,1 -1,1 -2,0 -1,-1 -2,0 -1,-1 -1,-1 0,-1 -1,-1 0,-3 -1,-1 0,-2 -1,0 -1,-1 -1,0 -1,1 -2,0 -1,-1 0,-2 -1,0 -1,-1 -1,0 -1,1 -4,0 -1,-1 -1,0 -1,1 0,1 -1,1 0,1 -1,1 0,1 -1,1 -2,0 0,1 -1,1 0,1 -1,1 0,1 -1,1 0,2 -1,1 -1,1 0,2 -1,1 1,1 0,2 1,1 0,2 -1,1 -2,0 -1,1 50,10 -2,0 -1,-1 0,-2 1,-1 2,0 1,1 0,2 -1,1 -50,-10 46,-1 1,1 0,2 -1,1 -2,0 -1,-1 0,-2 1,-1 2,0 -46,1 66,67 -1,-1 0,-1 -1,-1 0,-2 1,-1 2,0 1,1 0,1 1,1 0,2 -1,1 -2,0 -66,-67 52,65 -1,-1 0,-1 -1,-1 0,-2 1,-1 2,0 1,1 0,1 1,1 0,2 -1,1 -2,0 -52,-65 56,51 1,1 0,2 -1,1 -2,0 -1,-1 0,-2 1,-1 2,0 -56,-51 35,10 1,1 0,1 1,1 0,2 -1,1 -2,0 -1,-1 0,-1 -1,-1 0,-2 1,-1 2,0 -35,-10Z"/>
<path onmouseover="hoverPath(evt)" onmouseout="recoverPath(evt)" fill="rgb(243,241,232)" d="M  122,57l -2,0 -1,1 -2,0 -1,1 3,0 1,1 0,1 1,1 0,1 1,1 0,1 1,1 0,1 2,0 1,1 2,0 1,1 0,2 -1,1 -1,0 -1,1 0,1 1,1 0,1 1,1 0,2 1,1 2,0 1,1 1,1 1,1 1,1 3,0 1,1 2,0 0,-4 -1,0 -1,-1 0,-6 1,-1 2,0 1,-1 0,-1 1,-1 0,-1 1,-1 0,-1 1,-1 0,-1 1,-1 0,-1 1,-1 0,-1 1,-1 0,-1 1,-1 0,-1 1,-1 0,-1 1,-1 0,-1 1,-1 4,0 -2,-1 0,-1 -1,-1 0,-2 1,-1 -1,-1 -1,-1 -1,-1 0,-2 1,-1 1,-1 1,0 1,-1 1,0 1,-1 1,0 0,-2 1,-1 4,0 1,1 3,0 1,1 1,0 1,1 0,1 1,0 0,-1 -2,-2 0,-4 1,-1 0,-1 1,-1 3,0 -2,-1 -3,0 -1,-1 -1,0 -1,-1 -2,0 -1,-1 -1,0 -1,-1 -1,0 -1,-1 -1,-1 0,-1 -2,0 -1,-1 0,-2 1,-1 -1,-1 0,-4 2,-2 -4,0 -1,-1 0,-2 -1,-1 0,-5 -5,0 0,4 -1,1 -2,0 0,2 -1,1 0,2 -1,1 0,2 -1,1 0,1 1,1 0,1 2,0 1,1 0,1 1,1 0,2 -1,1 0,2 -1,1 -1,1 0,1 -1,1 -3,3 0,1 -2,2 -1,1 -5,0 2,1 0,0 1,1 0,3 -1,1 0,1 1,1 0,2 -1,1 -2,0 0,1 -1,1 0,1 1,1 0,2 -1,1 0,1 -1,1 -1,0 -1,1 -2,0 -1,-1 -1,0 -1,1 9,14 0,-2 1,-1 2,0 1,1 0,2 -1,1 -2,0 -1,-1 -9,-14 27,-7 -1,1 -2,0 -1,1 -2,0 -1,-1 0,-2 1,-1 0,-1 1,-1 2,0 1,1 1,0 1,1 0,2 -27,7 19,3 -1,1 0,1 -1,1 -2,0 -1,-1 0,-2 1,-1 0,-1 1,-1 2,0 1,1 0,2 -19,-3Z"/>
<path onmouseover="hoverPath(evt)" onmouseout="recoverPath(evt)" fill="rgb(237,241,235)" d="M  125,188l 4,0 1,1 7,0 1,1 3,0 0,-2 -1,-1 0,-1 -1,-1 0,-1 -1,-1 0,-1 -1,-1 0,-1 -1,-1 0,-2 -1,-1 0,-1 -1,-1 0,-1 -1,-1 0,-1 -1,-1 0,-1 -1,-1 0,-1 -1,-1 0,-2 -1,-1 0,-1 -1,-1 0,-1 -1,-1 0,-1 -1,-1 0,-1 -1,-1 0,-1 -1,-1 0,-1 -1,-1 0,-2 -1,-1 0,-1 -1,-1 0,-1 -1,-1 0,-1 -1,-1 0,-1 -1,-1 0,-2 -1,-1 -1,0 0,1 -1,1 -3,0 0,2 -1,1 -3,0 0,1 -1,1 0,1 -1,1 -1,0 -1,1 -1,0 0,1 -1,1 -5,0 -1,-1 -1,-1 -1,0 0,3 -1,1 0,3 -1,1 -2,0 -1,-1 0,3 -1,1 -1,0 0,1 -1,1 0,1 -1,1 -3,0 0,2 -1,1 -3,0 0,1 -1,1 -5,0 -1,1 0,3 -1,1 -2,0 -1,1 -1,1 -1,0 -1,1 -3,0 -1,1 -1,1 -1,0 0,3 -1,1 -6,0 -1,-1 -2,0 -1,-1 0,-6 -1,-1 0,4 -1,1 -3,0 0,2 -1,1 -2,0 -1,-1 -3,0 0,3 5,0 1,1 0,1 1,-1 2,0 1,1 0,2 1,0 1,-1 1,0 1,-1 1,0 1,-1 3,0 1,-1 22,0 1,1 1,0 1,-1 2,0 1,1 3,0 1,1 7,0 1,1 9,0 1,1 9,0 1,1 0,1 1,0 1,-1 3,0 1,1 4,0 -5,-22 1,1 0,1 1,1 0,2 -1,1 -2,0 -1,-1 0,-1 -1,-1 0,-2 1,-1 2,0 5,22 -1,-13 1,1 0,2 -1,1 -2,0 -1,-1 0,-2 1,-1 2,0 1,13 -18,-13 -1,-1 0,-1 -1,-1 0,-2 1,-1 2,0 1,1 0,1 1,1 0,2 -1,1 -2,0 18,13 -21,-28 1,-1 2,0 1,1 0,2 -1,1 -2,0 -1,-1 0,-2 21,28Z"/>
<path onmouseover="hoverPath(evt)" onmouseout="recoverPath(evt)" fill="rgb(253,253,253)" d="M  185,236l 1,0 1,1 0,1 1,1 0,-3 1,-1 1,-1 1,-1 1,-1 2,0 0,-1 1,-1 1,-1 1,-1 1,-1 1,0 1,-1 0,-1 1,-1 2,0 1,-1 48,0 1,1 2,0 0,-1 -53,0 -1,-1 0,-5 -1,5 -1,1 -1,1 -1,1 -1,1 -1,1 -1,1 -1,1 -2,2 -1,1 -1,1 -1,1 -1,0 -2,2Z"/>
<path onmouseover="hoverPath(evt)" onmouseout="recoverPath(evt)" fill="rgb(252,252,250)" d="M  186,148l -1,0 -1,1 -1,0 4,-1 2,0 1,1 0,1 1,0 1,1 1,1 1,1 0,1 1,1 1,1 1,1 1,1 1,1 1,1 1,1 1,1 0,3 -1,1 6,0 1,1 0,1 2,0 1,1 1,1 1,0 1,1 1,1 1,0 1,1 1,1 1,0 1,1 1,1 0,4 -1,1 -1,1 0,1 -1,1 0,1 -1,1 -1,1 0,1 -1,1 -1,1 0,1 -1,1 0,1 -1,1 -1,1 0,1 -1,1 0,1 -1,1 1,0 1,1 7,0 -6,-1 0,-3 1,-1 0,-1 1,-1 1,-1 0,-1 1,-1 0,-1 1,-1 1,-1 0,-1 1,-1 1,-1 10,0 1,1 7,0 1,1 6,0 1,1 5,0 1,1 1,0 1,1 0,8 1,0 0,-12 -2,0 -1,-1 -3,0 -1,1 -2,0 -1,-1 0,-12 -1,5 0,0 -1,1 -5,0 6,1 0,5 -1,1 -4,0 -1,-1 -6,0 -1,-1 -6,0 -1,-1 -1,0 -1,-1 0,-3 1,-1 1,-1 6,0 -5,-1 0,-1 -1,-1 0,-9 -1,10 -2,0 -1,-1 -1,0 -1,-1 -1,0 -1,-1 -1,-1 0,-2 -1,1 -2,0 -1,-1 -1,-1 -1,-1 -1,-1 -1,-1 -1,0 -1,-1 -1,-1 -1,-1 -1,-1 -1,-1 -1,-1 -1,-1 -1,-1 -1,-1 -1,-1 -1,-1 -1,-1 0,-1 -1,-1 0,0 -1,-1 -1,-1 0,-3 1,-1 2,0 1,-1 2,0 1,-1 1,0 1,-1 1,0 0,-6 1,-1 2,0 1,-1 2,0 1,-1 5,0 1,1 0,1 1,1 0,-4 1,-1 1,0 1,-1 2,0 1,-1 1,-1 1,-1 2,0 1,-1 2,0 1,1 0,2 -1,1 0,2 1,-2 1,0 0,-1 1,-1 1,0 1,-1 3,0 1,-1 4,0 0,-3 1,-1 1,-1 1,0 1,-1 3,0 1,-1 2,0 1,-1 3,0 0,-1 -7,0 -1,-1 0,2 -1,1 -2,0 -1,-1 -1,0 0,2 -1,1 -4,0 -1,-1 0,2 -1,1 -3,0 -1,1 -2,0 -1,1 -2,0 -1,1 -2,0 -1,1 -2,0 -1,1 -2,0 -1,1 -3,0 -1,-1 -1,-1 -1,-1 0,-1 -1,-1 0,-1 -1,-1 0,-1 2,6 0,3 -1,1 -3,0 -1,-1 -1,0 0,2 -1,1 -4,0 -1,1 -1,0 -1,1 -2,0 -1,1 -2,0 -1,1 -2,0 -1,1 -2,0 -1,-1 -1,0 -1,1 -1,0 0,1 2,0 1,1 0,2 1,0 1,1 1,1 0,4 -1,1Z"/>
<path onmouseover="hoverPath(evt)" onmouseout="recoverPath(evt)" fill="rgb(243,242,234)" d="M  192,235l 0,0 -1,1 -1,1 0,4 -1,1 -2,0 -1,-1 0,-1 -1,-1 0,-1 -9,0 0,2 1,1 0,1 1,1 0,1 1,1 0,1 1,1 0,1 1,1 0,1 1,1 0,1 1,1 0,2 72,0 0,-29 -3,0 -1,-1 -46,0 -1,1 -2,0 0,1 -1,1 -1,1 -1,0 -1,1 -1,1 -1,1 0,1 -1,1 -2,0 -1,1Z"/>
<path onmouseover="hoverPath(evt)" onmouseout="recoverPath(evt)" fill="rgb(241,239,229)" d="M  236,22l 0,0 1,-1 2,0 1,-1 2,0 1,-1 2,0 1,-1 2,0 1,-1 1,0 0,-1 1,-1 4,0 0,-15 -39,0 0,2 1,1 0,2 1,1 0,1 1,1 0,1 1,1 0,1 1,1 0,1 1,1 0,1 1,1 0,1 1,1 0,2 1,1 0,1 1,1 0,1 4,0 1,-1 2,0 1,-1Z"/>
<path onmouseover="hoverPath(evt)" onmouseout="recoverPath(evt)" fill="rgb(239,239,226)" d="M  250,76l 0,0 1,1 0,2 1,1 0,1 1,1 0,1 1,1 0,1 1,0 0,-22 -2,0 -1,-1 -1,0 -1,1 -2,0 -1,1 -2,0 0,2 1,1 0,1 1,1 0,1 1,1 0,1 1,1 0,1 1,1Z"/>
<path onmouseover="hoverPath(evt)" onmouseout="recoverPath(evt)" fill="rgb(242,240,231)" d="M  159,11l 0,0 -1,1 0,2 1,1 0,2 -1,1 2,0 1,1 0,1 1,1 1,0 1,1 1,0 1,1 2,0 1,1 1,0 1,1 3,0 1,1 1,0 1,1 0,2 -1,1 -3,0 0,1 -1,1 0,3 1,0 1,1 0,2 1,1 1,1 1,1 1,1 0,1 1,1 0,6 1,0 1,1 1,0 1,1 2,0 1,-1 0,-1 1,-1 0,-1 1,-1 0,-1 1,-1 0,-1 1,-1 1,-1 1,-1 1,0 1,-1 0,-1 -1,-1 0,0 -1,-1 -1,0 -1,-1 0,-2 1,-1 3,0 1,1 1,0 1,1 0,1 1,1 0,1 2,0 1,-1 1,0 1,-1 3,0 1,-1 2,0 1,-1 1,0 -1,-1 0,-2 -1,-1 0,-1 -1,-1 0,-2 -1,-1 0,-1 -1,-1 0,-1 -1,-1 0,-1 -1,-1 0,-1 -1,-1 0,-1 -2,0 -1,-1 0,-2 1,-1 0,-2 1,-1 -2,0 -1,-1 -1,-1 -2,-2 -1,-1 -1,-1 -1,-1 0,-2 -39,0 0,4 1,1 0,2 7,0 1,1 0,2 -1,1Z"/>
<path onmouseover="hoverPath(evt)" onmouseout="recoverPath(evt)" fill="rgb(251,250,247)" d="M  7,197l -1,0 0,2 2,0 1,1 0,1 1,1 0,2 1,1 0,2 -1,1 2,0 1,1 0,1 1,1 0,5 -1,1 2,0 1,1 1,1 0,3 -1,1 2,0 1,1 0,3 -1,1 2,0 1,1 0,2 1,1 0,3 -1,1 2,0 1,1 0,2 1,1 0,3 -1,1 2,0 1,1 0,2 1,1 0,3 -1,1 1,1 0,2 3,0 0,-2 -1,-1 0,-2 -1,-1 0,-3 1,-1 -2,0 -1,-1 0,-2 -1,-1 0,-3 1,-1 -2,0 -1,-1 0,-2 -1,-1 0,-3 1,-1 -2,0 -1,-1 0,-6 1,-1 2,0 1,-1 -3,0 -1,-1 0,-1 -1,-1 0,-2 -1,-1 0,-1 -1,-1 0,-2 -1,-1 0,-1 -2,0 -1,-1 0,-2 1,-1 0,-1 -1,-1 0,-3 2,-2 -1,0 -1,1 -1,1 -3,0 -1,-1 0,-1Z"/>
<path onmouseover="hoverPath(evt)" onmouseout="recoverPath(evt)" fill="rgb(253,253,253)" d="M  111,203l 0,-3 -1,0 0,2 1,7 0,6 1,1 0,14 1,1 0,5 -1,1 0,1 -1,1 -10,0 -1,1 8,0 1,1 0,2 1,0 0,-1 1,-1 1,0 1,-1 1,0 1,-1 16,0 0,-1 -17,0 -1,-1 1,2 0,0 -3,-36 1,12 0,-1 -4,31 -1,1 -2,2Z"/>
<path onmouseover="hoverPath(evt)" onmouseout="recoverPath(evt)" fill="rgb(232,240,236)" d="M  166,88l -2,0 -1,-1 0,-2 -1,0 -1,-1 -2,0 -1,1 -3,0 -1,-1 0,-2 -1,-1 0,-4 1,-1 -2,3 0,0 -1,1 0,1 -1,1 -5,0 -1,-1 0,-2 -2,0 -1,-1 0,1 2,1 0,6 -1,1 -4,0 -1,-1 -2,0 5,2 0,4 1,-2 0,0 1,-1 3,0 1,1 2,0 1,-1 3,0 1,1 1,0 1,1 1,0 1,1 2,0 1,1 1,0 1,1 0,2 1,1 0,3 1,1 0,1 1,1 2,0 1,1 0,-1 1,-1 1,0 1,-1 2,0 1,-1 3,0 1,1 5,0 1,1 0,4 1,1 0,3 -1,1 3,0 1,1 0,5 -1,1 4,0 1,1 0,-2 1,-1 -2,0 -1,-1 -1,-1 -23,-26 20,21 4,0 -5,-3 0,-2 1,-1 1,0 1,-1 1,0 1,-1 4,0 1,-1 -3,0 -1,-1 0,-4 1,-1 0,-2 1,-1 3,0 1,1 4,0 1,1 0,1 1,-1 0,0 2,-2 1,-1 0,-3 -1,2 0,1 -2,2 -1,0 -1,-1 0,-1 -1,-1 0,-1 -1,-1 0,-2 -1,-1 0,-1 -2,0 -1,-1 0,-2 1,-1 0,-2 1,-1 -1,-1 0,-4 -1,1 -1,0 -1,1 -2,0 -1,-1 0,-2 -1,-1 0,-2 1,-1 -1,-1 0,-2 -1,-1 0,-1 -1,-1 0,-2 -1,-1 0,-2 -1,-1 -3,0 -1,-1 -1,0 -1,-1 -1,0 -1,-1 0,-6 -1,-1 0,-1 -1,-1 -1,-1 -1,-1 2,3 1,7 0,1 -1,1 -3,0 3,1 2,0 1,1 2,0 1,1 2,0 1,1 0,4 -1,1 0,1 -1,1 0,1 -1,1 0,2 -1,1 0,1 -1,1 0,1 -1,1 1,1 0,2 -1,1 0,1 -1,1 0,2 -1,1 0,1 -1,1 -1,1 -2,0 0,2 -1,1 -4,0 19,22 -20,-21Z"/>
<path onmouseover="hoverPath(evt)" onmouseout="recoverPath(evt)" fill="rgb(242,240,231)" d="M  211,85l -1,0 -1,1 -1,1 0,4 -1,1 -1,1 -1,1 -1,1 -1,1 -2,0 -1,-1 0,-1 -4,0 -1,-1 -1,0 0,2 -1,1 0,2 6,0 1,1 0,2 -1,1 -3,0 -1,1 -4,0 -1,1 -1,0 -1,1 -1,0 0,2 4,0 1,1 0,2 -1,1 -1,0 0,1 1,1 0,0 1,1 2,0 1,1 0,2 -1,1 0,2 1,1 0,1 1,1 0,1 1,1 0,1 1,1 0,2 1,1 3,0 0,-2 1,-1 3,0 1,1 1,0 0,-3 -1,-1 0,-1 -1,-1 0,-3 1,-1 2,0 1,1 0,1 1,1 0,1 1,1 0,1 1,1 1,1 1,0 1,-1 2,0 1,-1 2,0 1,-1 2,0 1,-1 2,0 1,-1 2,0 1,-1 3,0 0,-2 1,-1 2,0 1,1 2,0 0,-2 1,-1 3,0 1,1 0,-2 1,-1 2,0 1,1 6,0 0,-20 -2,0 -1,-1 0,-1 -1,-1 0,-1 -1,-1 0,-1 -1,-1 0,-1 -1,-1 0,-1 -1,-1 0,-1 -2,0 -1,-1 0,-1 -1,-1 0,-1 -1,-1 0,-1 -1,0 -1,-1 -1,1 -2,0 0,1 1,1 0,0 1,1 0,2 -1,1 -3,0 -1,-1 -13,0 -1,-1 -2,0 -1,1 -3,0 0,2 -1,1 -1,0 -1,1 -11,19 2,0 1,1 0,2 -1,1 -2,0 -1,-1 0,-2 1,-1 11,-19Z"/>
<path onmouseover="hoverPath(evt)" onmouseout="recoverPath(evt)" fill="rgb(205,215,226)" d="M  11,118l -2,0 -1,-1 0,-1 -2,0 1,1 0,4 -1,1 3,0 1,-1 3,0 0,-1 1,-1 2,0 1,-1 5,0 1,1 1,-1 0,-4 1,-1 2,0 1,-1 3,0 1,-1 1,-1 2,0 1,-1 2,0 1,-1 1,-1 1,0 1,-1 -2,0 -1,1 -2,0 -1,1 -2,0 -1,1 -2,0 -1,1 -1,1 -18,7 12,-5 -1,1 -5,0 -1,-1 -3,0 0,4 -1,1 11,-5 -12,5Z"/>
<path onmouseover="hoverPath(evt)" onmouseout="recoverPath(evt)" fill="rgb(187,207,237)" d="M  68,7l 0,0 1,1 0,1 1,1 0,1 1,0 1,-1 3,0 1,-1 3,0 1,-1 3,0 1,-1 3,0 1,-1 2,0 1,-1 3,0 1,-1 3,0 1,-1 3,0 1,-1 3,0 1,-1 3,0 1,-1 -44,0 0,1 1,1 0,1 1,1 0,2 -1,1Z"/>
<path onmouseover="hoverPath(evt)" onmouseout="recoverPath(evt)" fill="rgb(243,241,233)" d="M  80,198l 0,0 -1,-1 -1,0 0,3 -1,1 0,3 -1,1 0,5 -1,1 0,4 -1,1 0,5 -1,1 0,5 1,1 0,3 1,1 0,1 1,1 0,2 1,1 0,2 2,0 1,1 0,2 -1,1 0,1 1,1 0,2 2,0 1,1 0,2 -1,1 0,1 1,1 0,2 90,0 0,-1 -1,0 -1,-1 0,-1 -1,-1 0,-2 -1,-1 0,-1 -1,-1 0,-1 -1,-1 0,-1 -1,-1 0,-1 -1,-1 0,-1 -1,0 -1,-1 -1,1 0,0 -1,1 -1,0 -1,1 -3,0 -1,-1 0,-2 1,-1 1,0 1,-1 1,0 0,-2 -1,-1 0,-3 -1,-1 0,-1 -1,-1 0,-3 -1,-1 0,-1 -1,-1 -1,0 -1,-1 -1,0 -1,-1 0,-2 1,-1 3,0 -1,-1 0,-2 -1,-1 0,-2 -1,-1 0,-1 -1,-1 0,-1 -1,-1 -6,0 -1,-1 -8,0 -1,-1 -7,0 -1,-1 -11,0 -1,-1 0,11 1,1 0,12 1,1 0,10 1,1 13,0 1,-1 2,0 1,1 0,3 -1,1 -16,0 -1,1 -1,0 -1,1 -1,0 0,1 -1,1 -1,1 -4,4 -2,0 -1,-1 0,-2 1,-1 1,-1 1,-1 0,-1 1,-1 -21,0 -1,-1 0,-2 1,-1 13,0 1,-1 10,0 0,-1 1,-1 0,-3 -1,-1 0,-14 -1,-1 0,-12 -1,-1 0,-2 -3,0 -1,-1 -6,0 -1,-1 -8,0 -1,-1Z"/>
<path onmouseover="hoverPath(evt)" onmouseout="recoverPath(evt)" fill="rgb(247,237,142)" d="M  89,55l -1,0 -1,1 -1,0 0,2 -1,1 -1,0 0,2 1,1 0,0 1,1 0,1 1,1 0,1 1,1 0,2 1,1 0,1 1,1 0,1 1,1 0,4 -1,1 0,1 1,1 2,0 1,1 1,1 0,1 1,1 0,1 1,1 0,1 1,1 0,2 1,1 0,1 1,1 0,1 1,1 0,1 1,1 0,1 1,1 0,1 1,1 0,2 1,1 0,1 1,1 0,1 1,1 0,1 1,1 0,1 1,1 0,2 1,1 0,1 1,1 0,1 1,1 0,1 1,1 0,1 1,1 0,1 1,1 0,2 1,1 1,0 1,1 1,1 1,0 0,-1 1,-1 1,-1 0,-2 -1,-1 0,-1 -1,-1 0,-2 1,-1 -1,-1 0,-1 -1,-1 0,-1 -1,-1 0,-1 -1,-1 0,-2 -1,-1 0,-1 -1,-1 0,-1 -1,-1 0,-1 -1,-1 0,-1 -1,-1 0,-2 -1,-1 0,-1 -1,-1 0,-1 -2,0 -1,-1 0,-1 -1,-1 0,-1 -1,-1 0,-2 1,-1 0,-1 -1,-1 0,-1 -1,-1 0,-1 -1,-1 0,-1 -1,-1 0,-1 -1,-1 0,-2 -1,-1 0,-1 -1,-1 0,-1 -1,-1 0,-1 -1,-1 0,-1 -1,-1 0,-1 -1,-1 0,-1 -1,-1 0,-4 1,-1 2,0 -1,-1 0,-1 -3,0 -1,-1 0,-1 -1,0 -1,1Z"/>
<path onmouseover="hoverPath(evt)" onmouseout="recoverPath(evt)" fill="rgb(242,240,231)" d="M  101,55l 0,3 -1,1 -1,0 -1,1 -2,0 0,2 1,1 0,1 1,1 0,1 1,1 0,1 1,1 0,1 1,1 0,1 1,1 0,1 1,1 0,2 1,1 0,1 1,1 0,1 1,1 0,1 1,1 0,1 1,1 0,1 3,0 1,1 2,0 1,-1 2,0 1,-1 3,0 1,-1 3,0 1,1 2,0 0,-4 -1,-1 0,0 -1,-1 0,-2 -1,-1 0,-1 -1,-1 0,-2 -1,-1 0,-1 -1,-1 0,-1 -1,-1 0,-1 -1,-1 0,-1 -1,-1 0,-1 -1,-1 0,-1 -4,0 -1,-1 0,-2 1,-1 1,0 1,-1 2,0 1,-1 2,0 1,-1 3,0 1,1 0,-2 1,-1 0,-1 1,-1 0,-2 1,-1 0,-1 1,-1 0,-1 1,-1 0,-2 1,-1 0,-1 -1,-1 -1,0 -1,-1 -3,0 -1,-1 -4,0 1,1 0,2 -1,1 0,1 -1,1 0,1 -1,1 0,1 -1,1 0,1 -1,1 -2,0 -1,1 -2,0 -1,1 -3,0 -1,1 -1,0 -1,1 -3,0 -1,-1Z"/>
<path onmouseover="hoverPath(evt)" onmouseout="recoverPath(evt)" fill="rgb(242,241,231)" d="M  112,95l 0,1 1,1 0,1 1,1 0,2 1,1 0,1 1,1 0,1 1,1 0,1 1,1 0,1 1,1 0,2 1,1 0,1 1,1 0,1 1,1 0,1 1,1 0,2 -1,1 1,0 1,-1 0,-1 1,-1 0,-1 1,-1 2,0 1,-1 0,-1 -1,-1 0,-2 1,-1 0,-1 1,-1 0,-2 1,-1 1,-1 0,-2 1,-1 0,-1 1,-1 0,-1 1,-1 0,-1 1,-1 2,0 -1,-1 0,-2 1,-1 0,-3 -1,0 -1,-1 -2,0 -1,-1 0,-2 -1,-1 -1,-1 -1,-1 0,5 -1,1 -4,0 -1,-1 -1,0 -1,1 -3,0 -1,1 -2,0 -1,1 -4,0 -1,-1 -2,0 -1,1 1,1 0,1 1,1 0,1 2,0 1,1Z"/>
<path onmouseover="hoverPath(evt)" onmouseout="recoverPath(evt)" fill="rgb(249,238,140)" d="M  119,136l 0,0 1,1 0,2 1,1 0,1 1,1 0,1 1,1 0,1 1,1 0,1 1,1 0,2 1,1 0,1 1,1 0,1 1,1 0,1 1,1 0,1 1,1 0,1 1,1 0,1 1,1 0,2 1,1 0,1 1,1 0,1 1,1 0,1 1,1 0,1 1,1 0,1 1,1 0,2 1,1 0,1 1,1 0,1 1,1 0,1 1,1 0,1 1,1 0,4 -1,1 11,0 0,-1 -1,-1 0,-1 -1,-1 0,-2 -1,-1 0,-1 -1,-1 0,-2 -1,-1 0,-1 -1,-1 -1,-1 0,-2 -1,-1 0,-1 -1,-1 0,-1 -1,-1 0,-3 1,-1 -2,0 -1,-1 0,-1 -1,-1 0,-1 -1,-1 0,-2 -1,-1 -1,-1 0,-3 1,-1 -2,0 -1,-1 0,-1 -1,-1 0,-1 -1,-1 0,-1 -1,-1 0,-1 -1,-1 0,-1 -1,-1 0,-2 -1,-1 0,-1 -1,-1 0,-1 -1,-1 0,-2 -1,-1 -1,1 -6,0 -1,1 -1,1 1,0 1,1Z"/>
<path onmouseover="hoverPath(evt)" onmouseout="recoverPath(evt)" fill="rgb(241,239,230)" d="M  118,11l 0,3 1,0 1,1 0,2 1,1 0,2 -1,1 -1,0 0,3 -2,2 -1,0 0,2 -1,1 -1,0 -2,2 0,1 -1,1 -2,0 0,2 -1,1 -1,1 -2,0 0,2 -1,1 -1,0 -1,1 -2,2 -1,0 0,2 -1,1 -1,0 -1,1 -1,0 0,2 1,1 0,3 -1,1 2,0 1,1 0,1 1,1 0,-7 1,-1 2,0 1,1 1,0 1,-1 1,0 1,-1 3,0 1,-1 2,0 1,-1 2,0 0,-1 1,-1 0,-1 1,-1 0,-1 1,-1 0,-1 1,-1 -1,-1 0,-2 1,-1 6,0 1,1 2,0 1,-1 5,0 1,-1 1,-1 0,-1 1,-1 2,-2 1,-1 0,-1 1,-1 1,-1 0,-1 -1,-1 0,-2 1,-1 -2,0 -1,-1 0,-1 -1,-1 0,-2 -1,-1 0,-2 1,-1 1,0 1,-1 0,-2 1,-1 0,-2 1,-1 2,0 0,-3 -31,0 0,1 -1,1 -1,0 -1,1 -3,0 -1,1 -3,0 -1,1 -3,0 -1,1 -3,0 -1,1 -3,0 -1,1 -2,0 -1,1 -3,0 -1,1 -3,0 -1,1 -3,0 -1,1 -3,0 -1,1 1,1 0,1 1,1 0,1 1,1 0,1 1,1 0,1 1,1 0,2 1,1 0,1 1,1 2,2 0,1 1,1 0,1 1,1 0,1 1,0 0,-2 1,-1 2,0 0,-1 -2,0 -1,-1 0,-1 -1,-1 0,-1 -1,-1 0,-2 1,-1 2,0 1,1 0,1 1,1 0,1 1,1 4,0 1,-1 0,-1 1,-1 1,0 0,-1 1,-1 2,0 0,-1 1,-1 0,-2 -1,0 -1,-1 0,-2 1,-1 4,0 1,-1 1,0 0,-2 1,-1 3,0 1,1 4,0 1,-1 3,0 1,1 7,14 1,-1 1,-1 2,0 1,1 0,2 -1,1 -1,1 -2,0 -1,-1 0,-2 -7,-14Z"/>
<path onmouseover="hoverPath(evt)" onmouseout="recoverPath(evt)" fill="rgb(241,239,229)" d="M  157,54l -3,0 0,1 -1,1 0,1 -1,1 0,1 -1,1 0,1 -1,1 0,1 -1,1 0,1 -1,1 0,1 -1,1 0,1 -1,1 0,1 -1,1 0,1 -1,1 -1,1 0,2 2,0 1,1 0,2 3,0 0,-1 1,-1 1,-1 0,-1 1,-1 1,-1 0,-1 1,-1 0,-1 1,-1 2,0 1,1 0,2 -1,1 0,1 -1,1 0,1 -1,1 0,2 1,1 0,2 1,0 1,-1 4,0 1,1 1,0 1,1 0,2 1,-1 4,0 0,-2 1,-1 2,0 1,-1 0,-1 1,-1 0,-1 -1,-1 0,-2 1,-1 0,-1 1,-1 0,-1 1,-1 0,-1 1,-1 0,-1 1,-1 0,-2 1,-1 0,-1 1,-1 0,-1 1,-1 0,-2 -2,0 -1,-1 -2,0 -1,-1 -2,0 -1,-1 -2,0 -1,-1 0,-2 1,-1 3,0 0,-1 1,-1 0,-2 -1,-1 0,0 -1,-1 0,-1 -1,-1 -1,-1 0,-1 -1,0 -1,-1 0,-1 -1,0 -1,-1 -3,0 -1,-1 -2,0 0,2 -1,1 -1,0 -1,1 -1,0 -1,1 -1,0 -1,1 1,1 0,0 1,1 1,1 0,2 -1,1 1,1 0,1 1,0 1,1 0,2 -1,1 -1,0 2,13 -1,-1 0,-2 1,-1 2,0 1,1 0,2 -1,1 -2,0 -2,-13Z"/>
<path onmouseover="hoverPath(evt)" onmouseout="recoverPath(evt)" fill="rgb(242,240,231)" d="M  162,207l -1,0 1,1 0,1 1,1 0,2 1,1 0,1 1,1 0,1 1,1 0,1 1,1 0,1 1,1 0,1 1,1 0,1 1,1 0,1 1,1 0,2 1,1 0,2 -1,1 1,1 12,0 1,-1 1,-1 1,0 1,-1 1,-1 1,-1 1,-1 2,-2 1,-1 1,-1 1,-1 1,-1 2,-2 0,-4 1,-1 2,0 1,1 0,5 52,0 0,-4 -2,0 -1,-1 0,-1 -4,0 -1,1 -3,0 -1,-1 0,-1 -4,0 -1,1 -3,0 -1,-1 0,-1 -4,0 -1,1 -9,0 -1,-1 -7,0 -1,-1 -2,0 -1,-1 0,-1 -4,0 -1,1 -3,0 -1,-1 -1,0 -1,-1 -2,0 -1,1 -8,0 -1,-1 -7,0 -1,-1 -7,0 -1,-1Z"/>
<path onmouseover="hoverPath(evt)" onmouseout="recoverPath(evt)" fill="rgb(236,240,234)" d="M  192,44l 0,0 -1,1 0,1 -1,1 0,1 -1,1 0,1 -1,1 0,1 -1,1 1,1 0,2 1,1 0,2 1,1 0,1 1,1 0,2 1,1 0,1 1,1 0,2 -1,1 0,1 1,-1 1,0 1,-1 3,0 0,-2 1,-1 6,0 1,-1 1,0 0,-2 1,-1 3,0 0,-1 1,-1 0,-1 1,-1 1,-1 1,-1 2,0 0,-1 2,-2 1,-1 0,-1 -1,-1 -1,-1 -1,-1 0,-2 -1,-1 0,-1 -1,-1 0,-1 -1,-1 0,-2 -1,-1 -3,0 -1,-1 -1,0 -1,1 -3,0 -1,1 -1,0 -1,1 -4,0 -1,-1 0,1 1,1 0,2 -1,1 -2,0 -1,-1 -1,1 3,-7 0,-1 -1,0 -1,-1 -1,0 3,2 -3,7Z"/>
<path onmouseover="hoverPath(evt)" onmouseout="recoverPath(evt)" fill="rgb(235,232,216)" d="M  219,189l 0,0 -1,1 0,1 -1,1 0,1 -1,1 -1,1 0,1 -1,1 0,1 5,0 1,1 7,0 1,1 8,0 1,1 7,0 1,1 7,0 1,1 2,0 0,-4 -2,0 -1,-1 0,-8 -1,0 -1,-1 -5,0 -1,-1 -6,0 -1,-1 -7,0 -1,-1 -8,0 -1,1 0,1 -1,1Z"/>
<path onmouseover="hoverPath(evt)" onmouseout="recoverPath(evt)" fill="rgb(248,247,241)" d="M  233,47l 1,1 0,1 1,1 0,1 1,1 0,2 1,1 0,1 1,1 0,1 1,1 0,2 1,1 0,1 1,1 0,1 1,1 0,1 1,1 0,2 -1,1 -1,1 -1,1 1,0 1,1 1,0 1,1 0,1 1,1 0,1 1,1 0,1 2,0 1,1 0,1 1,1 0,1 1,1 0,1 1,1 0,1 1,1 0,1 1,1 0,1 1,0 0,-5 -2,0 -1,-1 0,-1 -1,-1 0,-1 -1,-1 0,-1 -1,-1 0,-2 -1,-1 0,-1 -1,-1 0,-1 -1,-1 0,-1 -1,-1 0,-1 -1,-1 0,-1 -1,-1 0,-4 1,-1 2,0 1,-1 2,0 1,-1 3,0 1,1 1,0 0,-9 -2,0 -1,1 -2,0 -1,1 -5,0 -1,-1 0,-1 -1,-1 -1,-1 0,-3 -1,-1 0,-2 1,-1 -2,0 0,4 -1,1 -2,0 -1,-1 -1,-1 -1,1 6,26 -1,0 -1,1 1,0 1,-1 -6,-26Z"/>
</svg>