<svg width="256" height="256" xmlns="http://www.w3.org/2000/svg"><script> 
var tempColor;
function hoverPath(evt){
obj = evt.target;
tempColor = obj.getAttribute("fill");
obj.setAttribute("fill","red");
//alert(tempColor);
//obj.setAttribute("stroke","red");}
function recoverPath(evt){
obj = evt.target;
obj.setAttribute("fill", tempColor);
//obj.setAttribute("stroke", tempColor);
}</script><path onmouseover="hoverPath(evt)" onmouseout="recoverPath(evt)" fill="rgb(244,243,235)" d="M  0,126l 0,21 4,0 1,1 3,0 1,1 14,0 1,-1 11,0 1,1 1,-1 2,0 1,1 3,0 1,-1 11,0 1,1 18,0 1,1 4,0 1,1 0,1 1,1 1,1 1,1 1,1 -2,-3 0,-1 1,-1 7,0 1,1 3,0 1,-1 3,0 1,1 0,1 1,0 1,-1 3,0 1,1 0,1 2,0 1,-1 3,0 1,1 1,0 1,1 0,1 1,1 0,1 1,1 0,1 2,0 1,1 2,2 0,2 2,0 1,1 0,3 1,1 1,-1 2,0 1,1 0,2 -1,1 0,1 1,1 0,2 2,0 1,1 0,1 1,1 0,4 -1,1 0,7 1,1 1,0 1,1 0,5 -1,1 -1,0 0,3 1,1 0,3 1,1 0,2 1,1 0,2 2,0 1,1 1,1 0,2 -1,1 2,0 1,1 1,1 0,1 1,0 1,1 1,1 1,1 1,1 1,1 1,1 1,0 1,1 1,1 0,2 1,1 5,0 1,-1 2,0 1,1 1,0 1,1 2,0 1,1 1,1 0,3 1,0 1,1 2,0 1,1 0,1 5,0 0,-1 1,-1 7,0 1,-1 5,0 1,-1 1,0 1,-1 2,0 1,1 5,0 1,-1 2,0 1,1 6,0 1,-1 5,0 0,-1 1,-1 2,0 1,1 4,0 1,-1 7,0 1,-1 6,0 1,-1 7,0 1,-1 3,0 0,-218 -7,0 -1,1 -7,0 -1,1 -7,0 -1,1 -7,0 -1,1 -6,0 -1,1 -9,0 -1,1 -7,0 -1,1 -7,0 -1,1 -7,0 -1,1 -9,0 -1,1 -8,0 -1,1 -7,0 -1,1 -6,0 -1,1 -3,0 0,2 1,1 0,1 1,1 0,1 1,1 0,1 1,1 0,1 1,1 0,2 1,1 0,2 1,1 0,1 1,1 0,2 1,1 0,2 1,1 0,2 1,1 0,2 1,1 0,2 1,1 0,2 1,1 0,2 1,1 0,2 1,1 0,2 1,1 0,2 1,1 0,1 1,1 0,2 1,1 0,2 1,1 0,2 1,1 0,2 1,1 0,2 1,1 0,1 1,1 0,2 1,1 0,1 1,1 0,3 -1,1 -1,1 -2,0 -1,-1 0,-1 -1,-1 0,-1 -1,-1 0,-2 -1,-1 0,-1 -1,-1 0,-3 -1,-1 0,-2 -1,-1 0,-1 -1,-1 0,-2 -1,-1 0,-2 -1,-1 0,-2 -1,-1 0,-1 -1,-1 0,-2 -1,-1 0,-2 -1,-1 0,-2 -1,-1 0,-2 -1,-1 0,-2 -1,-1 0,-2 -1,-1 0,-2 -1,-1 0,-2 -1,-1 0,-2 -1,-1 0,-2 -1,-1 0,-2 -1,-1 0,-1 -1,-1 0,-1 -1,-1 0,-1 -1,-1 0,-1 -1,-1 0,-2 -1,-1 0,-1 -1,0 -1,-1 0,-1 -6,0 -1,1 -8,0 -1,1 -7,0 -1,1 -8,0 -1,1 -8,0 -1,1 -7,0 -1,1 -8,0 -1,1 -7,0 -1,1 -8,0 -1,1 -6,0 -1,1 -7,0 -1,1 -7,0 -1,1 -4,0 0,6 1,1 0,6 1,1 0,5 1,1 0,5 1,1 0,5 1,1 0,5 1,1 0,5 1,1 0,6 1,1 0,5 1,1 0,6 1,1 0,3 1,1 0,15 -1,1 -3,0 -1,-1 0,-4 -1,-1 0,-4 -3,0 -1,1 -5,0 -1,-1 -1,0 -1,1 -3,0 -1,1 -2,0 -1,1 -3,0 -1,1 -3,0 0,2 -1,1 -3,0 -1,-1 -2,0 -1,1 0,0 -1,1 -2,0 0,2 -1,1 -2,0Z"/>
<path onmouseover="hoverPath(evt)" onmouseout="recoverPath(evt)" fill="rgb(244,243,235)" d="M  11,221l 0,2 -1,1 1,1 0,1 2,0 1,1 0,1 1,1 0,2 -1,1 0,1 1,1 0,1 2,0 1,1 0,1 1,1 0,1 1,1 0,1 1,1 0,1 1,1 0,1 1,1 0,1 1,1 0,2 -1,1 1,1 0,3 68,0 0,-2 1,-1 6,0 1,-1 6,0 1,-1 5,0 1,-1 6,0 1,-1 6,0 1,-1 6,0 1,-1 6,0 1,-1 6,0 1,-1 6,0 1,-1 6,0 1,-1 6,0 1,-1 3,0 -3,-1 -1,0 -1,-1 0,-3 -1,-1 -2,0 -1,-1 -1,0 -1,-1 -1,1 -7,0 -1,-1 -1,-1 0,-2 -1,-1 -1,0 -1,-1 -1,-1 -1,-1 -1,-1 -1,-1 -1,-1 -1,0 -1,-1 0,-1 -1,-1 -2,0 -1,-1 0,-2 1,-1 -1,-1 -2,0 -1,-1 0,-2 -1,-1 0,-2 -1,-1 0,-3 -1,-1 0,-5 1,-1 1,0 0,-3 -1,0 -1,-1 -1,-1 0,-9 1,-1 0,-2 -1,-1 0,-1 -2,0 -1,-1 0,-2 -1,-1 0,-3 -2,0 -1,-1 -1,-1 0,-3 -2,0 -1,-1 0,-2 -1,-1 -1,-1 -2,0 -1,-1 0,-1 -1,-1 0,-1 -1,-1 0,-1 -1,0 -1,-1 -1,0 -1,1 -4,0 -1,-1 0,-1 -1,0 -1,1 -3,0 -1,-1 0,-1 -1,0 -1,1 -5,0 -1,-1 -5,0 1,1 0,0 1,1 0,2 -1,1 -2,0 -1,-1 -1,-1 -1,-1 -1,-1 -1,-1 0,-1 -3,0 -1,1 -56,0 -1,1 -6,0 -1,-1 -3,0 0,3 -1,1 -2,0 -1,-1 0,-1 -1,-1 0,-1 -1,-1 -1,0 0,56 2,0 1,1 0,1 1,1 0,1 1,1 0,1 1,1 1,0 1,-1 3,0 1,-1 2,0 1,1 0,2 -1,1 -1,0 -1,1 -1,0 -1,1 -2,0 0,1 2,0 1,1 -6,-63 0,2 1,1 0,1 1,1 0,0 -2,-5 6,63 -3,-58 1,0 1,-1 0,0 -2,1 3,58 -1,-60 0,-1 -1,-1 0,-1 -1,-1 0,0 2,4 1,60 -4,-64 0,0 4,64 7,-8 0,-2 1,-1 2,0 1,1 0,2 -1,1 -2,0 -1,-1 -7,8 19,-14 0,-1 1,-1 2,0 1,1 0,2 -1,1 -2,0 -1,-1 0,-1 -19,14 26,-16 0,-2 1,-1 2,0 1,1 0,2 -1,1 -2,0 -1,-1 -26,16 7,-42 1,1 0,1 1,1 0,1 1,1 0,2 -1,1 -2,0 -1,-1 0,-1 -1,-1 0,-1 -1,-1 0,-2 1,-1 2,0 -7,42Z"/>
<path onmouseover="hoverPath(evt)" onmouseout="recoverPath(evt)" fill="rgb(252,252,251)" d="M  40,110l -1,0 -1,1 -3,0 -1,1 1,0 4,-1 1,-1 2,-2 -2,2 2,-3 1,-1 0,-2 -1,-1 0,-6 -1,-1 0,-5 -1,-1 0,-6 -1,-1 0,-5 -1,-1 0,-5 -1,-1 0,-5 -1,-1 0,-5 -1,-1 0,-5 -1,-1 0,-6 -1,-1 0,-8 1,-1 4,0 1,-1 7,0 1,-1 7,0 1,-1 6,0 1,-1 8,0 1,-1 7,0 1,-1 8,0 1,-1 7,0 1,-1 8,0 1,-1 8,0 1,-1 7,0 1,-1 8,0 1,-1 8,0 1,1 0,1 1,0 1,1 0,1 1,1 0,2 1,1 0,1 1,1 0,1 1,1 0,1 1,1 0,1 1,1 0,2 1,1 0,2 1,1 0,2 1,1 0,2 1,1 0,2 1,1 0,2 1,1 0,2 1,1 0,2 1,1 0,2 1,1 0,2 1,1 0,2 1,1 0,1 1,1 0,2 1,1 0,2 1,1 0,2 1,1 0,1 1,1 0,2 1,1 0,3 1,1 0,1 1,1 0,2 1,1 0,1 1,1 0,1 1,-1 0,-1 -1,-1 0,-1 -1,-1 0,-2 -1,-1 0,-1 -1,-1 0,-2 -1,-1 0,-2 -1,-1 0,-2 -1,-1 0,-2 -1,-1 0,-2 -1,-1 0,-1 -1,-1 0,-2 -1,-1 0,-2 -1,-1 0,-2 -1,-1 0,-2 -1,-1 0,-2 -1,-1 0,-2 -1,-1 0,-2 -1,-1 0,-2 -1,-1 0,-2 -1,-1 0,-2 -1,-1 0,-1 -1,-1 0,-2 -1,-1 0,-2 -1,-1 0,-1 -1,-1 0,-1 -1,-1 0,-1 -1,-1 0,-1 -1,-1 0,-4 1,-1 3,0 1,-1 6,0 1,-1 7,0 1,-1 8,0 1,-1 9,0 1,-1 7,0 1,-1 7,0 1,-1 7,0 1,-1 9,0 1,-1 6,0 1,-1 7,0 1,-1 7,0 1,-1 7,0 1,-1 8,0 0,-2 -1,0 -1,1 -7,0 -1,1 -7,0 -1,1 -7,0 -1,1 -7,0 -1,1 -5,0 -1,-1 -1,-1 0,1 -1,1 -1,0 -1,1 -5,0 -1,1 -8,0 -1,1 -7,0 -1,1 -2,0 -1,-1 -1,0 -1,-1 0,-9 1,-1 16,0 1,-1 11,0 1,1 0,1 1,1 0,-2 1,-1 1,-1 -1,0 -1,-1 0,0 -1,-1 0,-2 -32,0 0,4 1,1 0,7 -140,95 -2,3 143,-93 -1,1 -3,0 -1,1 -6,0 -1,1 -8,0 -1,1 -8,0 -1,1 -12,0 -1,-1 0,-1 -1,-1 0,-2 -1,-1 0,-2 -1,-1 0,-2 -1,-1 0,-2 -1,-1 0,-2 -1,-1 0,-4 -2,0 0,1 1,1 0,2 1,1 0,2 1,1 0,2 1,1 0,2 1,1 0,3 1,1 0,4 -1,1 -1,1 -6,0 -1,1 -7,0 -1,1 -8,0 -1,1 -8,0 -1,1 -7,0 -1,1 -8,0 -1,1 -7,0 -1,1 -8,0 -1,1 -8,0 -1,1 -6,0 -1,1 -7,0 -1,1 -7,0 -1,1 -10,0 -1,1 -7,0 -1,1 -7,0 -1,1 -10,0 0,2 3,0 1,-1 6,0 1,-1 7,0 1,-1 11,0 1,1 0,2 1,1 0,5 1,1 0,5 1,1 0,5 1,1 0,5 1,1 0,5 1,1 0,5 1,1 0,6 1,1 0,5 1,1 0,6 1,1 0,5 1,1 0,2 -1,-9 0,0 -2,-13 -6,-37 150,-30 -143,93 2,3 0,3 1,1 0,4 1,0 0,-8 -2,0 -2,-3Z"/>
<path onmouseover="hoverPath(evt)" onmouseout="recoverPath(evt)" fill="rgb(171,198,238)" d="M  100,254l -6,0 0,1 5,0 1,-1 3,1 152,0 0,-22 -2,0 -1,1 -7,0 -1,1 -6,0 -1,1 -7,0 -1,1 -6,0 -1,-1 0,1 -1,1 -5,0 -1,1 -8,0 -1,-1 -1,1 -7,0 -1,-1 -1,1 -1,0 -1,1 -5,0 -1,1 -7,0 0,1 -1,1 -10,0 -1,1 -6,0 -1,1 -6,0 -1,1 -6,0 -1,1 -6,0 -1,1 -6,0 -1,1 -6,0 -1,1 -6,0 -1,1 -6,0 -1,1 -5,0 -1,1 -3,0 -1,2 -3,-1Z"/>
<path onmouseover="hoverPath(evt)" onmouseout="recoverPath(evt)" fill="rgb(244,243,234)" d="M  0,1l 0,36 9,0 1,-1 7,0 1,-1 7,0 1,-1 10,0 1,-1 7,0 1,-1 7,0 1,-1 6,0 1,-1 8,0 1,-1 8,0 1,-1 7,0 1,-1 8,0 1,-1 7,0 1,-1 8,0 1,-1 8,0 1,-1 7,0 1,-1 6,0 1,-1 0,-2 -1,-1 0,-3 -1,-1 0,-2 -1,-1 0,-2 -1,-1 0,-2 -1,-1 0,-2 -1,-1 0,-2 -129,0 -1,1Z"/>
<path onmouseover="hoverPath(evt)" onmouseout="recoverPath(evt)" fill="rgb(243,242,234)" d="M  0,45l 0,77 1,0 0,-2 1,-1 2,0 1,-1 1,-1 4,0 1,1 1,0 0,-2 1,-1 3,0 1,-1 3,0 1,-1 2,0 1,-1 3,0 1,-1 2,0 1,-1 2,0 1,-1 3,0 1,-1 1,0 1,-1 0,-2 -1,-1 0,-5 -1,-1 0,-6 -1,-1 0,-5 -1,-1 0,-6 -1,-1 0,-5 -1,-1 0,-5 -1,-1 0,-5 -1,-1 0,-5 -1,-1 0,-5 -1,-1 0,-5 -1,-1 0,-2 -9,0 -1,1 -7,0 -1,1 -6,0 -1,1 -4,0Z"/>
<path onmouseover="hoverPath(evt)" onmouseout="recoverPath(evt)" fill="rgb(250,250,245)" d="M  8,217l -3,0 -1,-1 -1,-1 0,3 1,1 0,1 1,1 0,1 1,1 0,1 1,1 0,2 -1,1 2,0 1,1 0,1 1,1 0,1 1,1 0,1 1,1 0,1 1,1 0,1 1,1 0,2 1,1 0,1 1,1 0,1 1,1 0,1 1,1 0,1 1,1 0,1 1,1 0,3 2,0 0,-2 -1,-1 0,-2 1,-1 -1,-1 0,-1 -1,-1 0,-1 -1,-1 0,-1 -1,-1 0,-1 -1,-1 0,-1 -1,-1 0,-1 -2,0 -1,-1 0,-1 -1,-1 0,-3 1,-1 -1,-1 0,-1 -2,0 -1,-1 0,-1 -1,-1 0,-2 1,-1 -2,0 -1,-1 0,1 2,-5 -6,-2 1,-1 0,0 -1,-1 0,-1 -1,-1 0,-1 -1,0 0,5 2,0 6,2Z"/>
<path onmouseover="hoverPath(evt)" onmouseout="recoverPath(evt)" fill="rgb(242,242,232)" d="M  15,247l 0,0 -1,-1 0,-1 -1,-1 0,-1 -1,-1 0,-2 -1,-1 0,-1 -1,-1 0,-1 -1,-1 0,-1 -1,-1 0,-1 -1,-1 0,-1 -2,0 -1,-1 0,-2 1,-1 -1,-1 0,-1 -1,-1 0,-1 -1,-1 0,-1 -1,-1 0,-2 -1,0 0,38 18,0 0,-2 -1,-1 0,-1 -1,-1 0,-1 -1,-1Z"/>
<path onmouseover="hoverPath(evt)" onmouseout="recoverPath(evt)" fill="rgb(253,253,253)" d="M  24,151l -16,0 -1,-1 -3,0 -1,-1 -3,0 0,1 2,0 2,2 0,1 1,1 0,-2 1,-1 18,0 2,-1 0,1 47,0 -19,-1 -28,0 -2,1Z"/>
<path onmouseover="hoverPath(evt)" onmouseout="recoverPath(evt)" fill="rgb(242,241,232)" d="M  137,0l -1,0 0,3 1,1 0,2 1,1 0,2 1,1 0,2 1,1 0,2 1,1 0,2 1,1 0,1 10,0 1,-1 8,0 1,-1 8,0 1,-1 6,0 1,-1 3,0 0,-2 -1,-1 0,-7 -1,-1 0,-5Z"/>
<path onmouseover="hoverPath(evt)" onmouseout="recoverPath(evt)" fill="rgb(235,233,216)" d="M  207,7l -5,0 -1,1 -16,0 0,7 1,0 1,1 1,-1 7,0 1,-1 8,0 1,-1 5,0 1,-1 1,0 0,-3 -1,-1 0,-1Z"/>
<path onmouseover="hoverPath(evt)" onmouseout="recoverPath(evt)" fill="rgb(240,239,227)" d="M  220,5l 0,0 -1,1 -2,0 -1,1 0,4 1,1 3,0 1,-1 7,0 1,-1 7,0 1,-1 7,0 1,-1 7,0 1,-1 2,0 0,-7 -40,0 0,1 1,1 3,0 1,1Z"/>
</svg>