<svg width="256" height="256" xmlns="http://www.w3.org/2000/svg"><script> 
var tempColor;
function hoverPath(evt){
obj = evt.target;
tempColor = obj.getAttribute("fill");
obj.setAttribute("fill","red");
//alert(tempColor);
//obj.setAttribute("stroke","red");}
function recoverPath(evt){
obj = evt.target;
obj.setAttribute("fill", tempColor);
//obj.setAttribute("stroke", tempColor);
}</script><path onmouseover="hoverPath(evt)" onmouseout="recoverPath(evt)" fill="rgb(243,242,233)" d="M  60,0l -2,0 0,1 1,1 0,2 1,1 0,3 1,1 0,2 1,1 0,3 1,1 0,2 1,1 0,3 1,1 0,2 1,1 0,3 1,1 0,1 1,1 0,1 4,0 1,1 4,0 0,-1 -1,-1 0,-8 1,-1 1,-1 0,-1 1,-1 1,-1 0,-1 1,-1 1,-1 0,-2 1,-1 3,0 2,-2 0,-1 3,-3 1,-1 0,-1 1,-1 1,-1 1,-1 1,0 0,-2Z"/>
<path onmouseover="hoverPath(evt)" onmouseout="recoverPath(evt)" fill="rgb(250,250,247)" d="M  117,225l 1,0 1,1 0,0 1,1 1,1 0,2 1,1 0,2 1,1 1,0 0,-1 -1,-1 0,-3 1,-1 -2,0 -1,-1 0,-3 -1,-1 0,-2 -1,-1 0,-2 -1,-1 0,-3 -1,-1 0,-2 -1,-1 0,-3 -1,-1 0,-3 -1,-1 0,-2 -1,-1 0,-3 -1,-1 0,-2 -1,-1 0,-3 -1,-1 0,-2 -1,-1 0,-3 -1,-1 0,-2 -1,-1 0,-3 1,-1 0,-2 -1,0 -1,-1 0,-1 -1,-1 0,-1 -1,-1 0,-2 -1,-1 0,-2 -1,-1 0,-3 -1,-1 0,-3 1,-1 1,-1 1,-1 2,0 1,-1 1,0 1,-1 1,0 1,-1 1,0 1,-1 2,0 1,1 1,-1 1,0 1,-1 1,0 1,-1 1,0 0,-2 1,-1 1,0 1,-1 2,0 1,1 0,-2 1,-1 1,0 1,-1 1,0 1,-1 1,0 1,-1 1,0 1,-1 1,0 1,-1 1,0 1,-1 2,0 1,1 1,1 0,2 1,0 0,-4 1,-1 2,0 1,-1 1,-1 1,0 1,-1 1,0 1,-1 1,0 1,-1 1,0 0,-2 1,-1 3,0 1,1 0,-2 1,-1 1,-1 1,0 1,-1 2,0 1,1 1,-1 1,0 1,-1 1,0 1,-1 1,0 1,-1 1,0 1,-1 1,0 1,-1 1,0 1,-1 1,0 1,-1 1,0 1,-1 1,0 1,-1 1,0 1,-1 1,0 1,-1 1,0 1,-1 1,0 0,-2 1,-1 0,-1 -1,0 -1,1 -1,0 -1,1 -1,0 -1,1 -1,0 -1,1 -1,0 -1,1 -2,0 -1,-1 -1,1 -1,0 0,2 -1,1 -2,0 -1,-1 -1,-1 0,3 -1,1 -1,1 -1,0 -1,1 -1,0 -1,1 -1,0 -1,1 -1,0 -1,1 -1,0 -1,1 -4,0 -1,-1 -1,-1 -1,-1 1,2 1,1 0,2 -1,1 -1,0 -1,1 -1,0 -1,1 -2,0 -1,-1 0,2 -1,1 -1,0 -1,1 -1,0 -1,1 -1,0 -1,1 -1,0 -1,1 -1,0 -1,1 -2,0 -1,-1 0,-2 -1,-1 0,-6 -1,-1 0,-1 -1,-1 1,7 0,2 -1,1 -2,0 -1,-1 -1,1 -1,0 -1,1 -1,0 -1,1 -1,0 -1,1 -1,0 -1,1 -3,0 -1,-1 -1,0 1,1 0,1 1,0 1,1 0,1 1,1 0,4 -1,1 -1,0 -1,1 -1,0 -1,1 -2,0 -1,-1 0,2 -1,1 -2,0 -1,-1 -1,1 -1,0 -1,1 -1,0 -1,1 -1,0 0,2 -1,1 -2,0 -1,-1 -1,-1 0,-1 -1,-1 0,-3 -1,-1 0,-2 -1,-1 0,-3 -1,-1 0,-2 -1,-1 0,-7 1,-1 -2,0 -1,-1 0,-2 -1,-1 0,-2 -1,-1 0,-2 -1,-1 0,-3 -1,-1 0,-2 -1,-1 0,-3 -1,-1 0,-2 -1,-1 0,-3 -1,-1 0,-2 -1,-1 0,-3 1,-1 -1,-1 0,0 -1,-1 0,-2 1,-1 -1,0 -1,-1 0,-2 1,-1 1,0 1,-1 2,0 1,-1 -1,0 -1,-1 0,-5 1,-1 -1,0 1,-1 1,1 0,-1 1,-1 -1,0 -3,4 0,5 -1,1 -3,0 -1,-1 0,-1 -1,-1 0,-3 -1,-1 0,-1 -1,0 0,2 1,1 0,2 1,1 0,3 1,1 0,2 1,1 0,4 -1,1 -1,1 2,0 1,1 1,1 0,2 1,1 0,2 1,1 0,3 1,1 0,2 1,1 0,3 1,1 0,2 1,1 0,7 -1,1 2,0 1,1 0,2 1,1 0,2 1,1 0,2 1,1 0,2 1,1 0,3 1,1 0,2 1,1 0,2 1,1 0,3 1,1 0,3 1,1 0,3 1,1 0,1 1,1 0,3 1,1 0,4 1,1 0,2 1,1 0,1 1,1 0,3 1,1 0,6 -1,1 1,0 1,1 0,0 1,1 1,1 0,3 1,1 0,2 1,1 0,3 1,1 0,2 1,1 0,4 -1,1 0,1 -1,1 -1,1 0,1 1,1 4,0 1,1 0,2 1,1 0,3 1,1 0,6 -1,1 -42,-134 -2,0 -1,-1 -1,-1 -3,0 -1,-1 -2,0 0,1 2,0 1,1 0,3 1,1 0,1 1,1 0,2 1,1 0,2 1,1 0,2 1,1 0,2 1,1 0,1 1,1 0,1 1,1 0,-5 -1,-1 0,-3 -1,-1 0,-3 -1,-1 0,-4 1,-1 0,-1 1,-1 42,134Z"/>
<path onmouseover="hoverPath(evt)" onmouseout="recoverPath(evt)" fill="rgb(243,241,232)" d="M  130,239l 0,0 -1,1 -1,1 -3,0 -1,1 -1,1 -2,0 -1,1 -2,0 -1,1 -3,0 -1,1 -4,0 -1,1 -3,0 -1,1 -3,0 -1,1 -7,0 0,1 -1,1 -5,0 -1,1 -3,0 -1,1 -2,0 -1,1 -4,0 0,1 130,0 0,-1 -2,0 -1,-1 0,-2 1,-1 0,-1 -2,0 -1,-1 0,-2 1,-1 0,-1 -2,0 -1,1 -1,0 -1,1 -2,0 -1,-1 0,-2 1,-1 0,-4 -1,-1 0,-1 -1,-1 0,-1 -1,0 -1,-1 -2,0 -1,-1 -5,0 -1,-1 0,-2 1,-1 8,0 1,1 2,0 1,1 1,1 -1,-2 0,-1 -1,-1 0,-1 -1,-1 0,-1 -1,-1 0,-2 -1,-1 0,-1 -2,0 -1,-1 -1,1 -1,0 -1,1 -2,0 -1,1 -1,0 -1,1 -2,0 -1,1 -1,0 -1,1 -2,0 0,3 -1,1 -2,0 -1,-1 -4,0 -1,1 -1,0 -1,1 -2,0 -1,1 -1,0 -1,1 -2,0 -1,1 -1,0 -1,1 -2,0 -1,-1 0,2 -1,1 -3,0 0,2 -1,1 -6,0 -1,1 -2,0 -1,-1 -1,0 -1,1Z"/>
<path onmouseover="hoverPath(evt)" onmouseout="recoverPath(evt)" fill="rgb(242,240,230)" d="M  203,3l 0,0 1,1 0,3 -1,1 -5,0 -1,1 -2,0 -1,1 -3,0 -1,1 -1,0 0,3 -1,1 -2,0 -1,-1 0,-1 -1,-1 0,-2 -2,0 -1,1 -2,0 -1,1 -1,0 0,2 1,1 0,2 1,1 0,2 1,1 0,2 1,1 0,2 1,1 0,1 1,1 0,2 1,1 0,2 1,1 0,1 1,1 0,1 1,0 0,-2 1,-1 2,0 1,1 1,-1 2,0 1,-1 1,0 1,-1 1,0 1,-1 2,0 1,-1 2,0 1,-1 1,0 0,-1 -4,0 -1,-1 0,-2 1,-1 1,0 1,-1 1,-1 2,0 1,-1 1,0 0,-1 -1,-1 0,-2 1,-1 2,0 1,1 1,1 0,1 1,1 0,4 -1,1 -2,0 0,2 1,1 3,0 1,1 7,0 1,1 8,0 1,1 4,0 1,-1 0,0 1,-1 0,-1 1,-1 0,-1 1,-1 0,-3 -1,-1 0,0 -1,-1 -1,-1 -1,-1 -1,-1 -1,-1 -1,-1 -1,-1 -1,0 -1,-1 0,-1 -1,-1 -1,-1 0,-1 -1,-1 0,-1 -1,-1 0,-1 -1,-1 0,-1 -1,-1 0,-3 -23,0 0,2 1,1 -19,6 0,0 19,-6 -12,16 2,0 1,1 1,1 1,1 0,2 -1,1 -2,0 -1,-1 -1,-1 -1,-1 0,-2 1,-1 12,-16Z"/>
<path onmouseover="hoverPath(evt)" onmouseout="recoverPath(evt)" fill="rgb(252,252,250)" d="M  70,35l -3,0 -1,-1 0,-1 -1,-1 0,-1 -1,-1 0,-3 -1,-1 0,-2 -1,-1 0,-3 -1,-1 0,-2 -1,-1 0,-3 -1,-1 0,-2 -1,-1 0,-3 -1,-1 0,-2 -1,-1 0,-2 -1,0 0,2 1,1 0,3 1,1 0,2 1,1 0,3 1,1 0,2 1,1 0,3 1,1 0,2 1,1 0,3 1,1 0,2 1,1 0,4 -1,1 0,1 2,0 1,1 0,2 1,1 0,2 1,1 0,2 1,1 0,1 1,0 0,-1 -1,-1 0,-2 -1,-1 0,-3 1,-1 0,-3 1,-1Z"/>
<path onmouseover="hoverPath(evt)" onmouseout="recoverPath(evt)" fill="rgb(241,240,230)" d="M  132,196l 0,1 1,1 0,2 -1,1 -2,0 -1,-1 0,-1 -1,-1 0,-2 1,-1 2,0 1,1 -14,10 0,3 1,1 0,2 1,1 0,3 1,1 0,2 1,1 0,2 1,1 0,3 2,0 1,1 0,2 -1,1 0,1 4,0 1,-1 1,0 1,-1 2,0 1,-1 2,0 1,-1 1,0 1,-1 4,0 0,-1 1,-1 2,0 1,-1 2,0 1,1 1,0 0,-2 1,-1 2,0 1,1 1,0 0,-2 1,-1 2,0 1,1 1,0 0,-3 -2,0 -1,-1 0,-2 1,-1 1,0 1,-1 1,0 1,-1 3,0 1,1 0,2 -1,1 0,1 1,-1 2,0 1,1 1,0 0,-2 1,-1 2,0 1,-1 1,0 1,-1 2,0 1,-1 1,0 1,-1 1,0 1,-1 3,0 0,-1 1,-1 3,0 1,-1 2,0 1,-1 1,0 1,-1 2,0 1,-1 2,0 1,-1 1,0 1,-1 2,0 1,-1 3,0 0,-1 1,-1 2,0 1,-1 1,0 1,-1 2,0 1,-1 1,0 1,-1 1,0 1,-1 1,0 1,-1 1,0 1,-1 1,-1 1,0 1,-1 1,-1 1,0 1,-1 0,-2 -1,-1 0,-1 -1,-1 0,-1 -1,-1 0,-1 -1,-1 0,-1 -1,-1 0,-1 -1,-1 0,-1 -1,-1 0,-2 -1,-1 0,-1 -1,-1 0,-1 -1,-1 0,-1 -2,0 -1,1 -1,0 1,1 0,1 1,1 0,2 -1,1 -2,0 -1,-1 -1,-1 -1,-1 -1,0 -1,1 -6,0 -1,1 0,3 -1,1 -2,0 -1,-1 0,-2 -6,0 -1,1 -4,0 -1,1 -1,0 0,3 -1,1 -2,0 -1,-1 0,-2 -5,0 -1,1 -5,0 -1,1 -4,0 -1,1 -4,0 -1,1 -4,0 -1,1 -6,0 -1,1 -7,0 -1,1 -8,0 -1,1 -6,0 -1,-1 -8,0 -1,-1 0,-2 1,-1 8,0 -3,-1 -7,0 -1,-1 -4,0 -1,-1 -3,0 0,2 -1,1 0,1 1,1 0,2 1,1 0,3 1,1 0,2 1,1 0,3 1,1 0,2 1,1 0,3 1,1 0,2 1,1 0,3 1,1 14,-10 72,2 -1,1 -2,0 -1,-1 0,-2 1,-1 2,0 1,1 0,2 -72,-2 91,-23 2,0 1,1 0,2 -1,1 -2,0 -1,-1 0,-2 1,-1 -91,23 84,-10 -1,1 -2,0 -1,-1 0,-2 1,-1 2,0 1,1 0,2 -84,10 52,0 -1,1 -2,0 -1,-1 0,-2 1,-1 2,0 1,1 0,2 -52,0 34,-3 1,-1 2,0 1,1 0,2 -1,1 -2,0 -1,-1 0,-2 -34,3Z"/>
<path onmouseover="hoverPath(evt)" onmouseout="recoverPath(evt)" fill="rgb(253,253,252)" d="M  207,99l 0,1 1,0 1,-1 1,0 1,-1 1,0 1,-1 1,0 1,-1 1,0 1,-1 1,0 1,-1 1,0 1,-1 1,0 1,-1 1,0 1,-1 1,0 1,-1 1,0 1,-1 1,0 1,-1 1,0 1,-1 1,0 1,-1 1,0 1,-1 1,0 1,-1 1,0 1,-1 5,0 1,1 0,-3 1,-1 1,0 1,-1 1,-1 1,0 1,-1 2,0 0,-1 -2,0 -1,1 -1,0 -1,1 -1,0 -1,1 -3,0 -1,-1 -1,-1 -1,-1 0,5 -1,1 -1,1 -1,0 -1,1 -1,0 -1,1 -1,0 -1,1 -1,0 -1,1 -1,0 -1,1 -1,0 -1,1 -1,0 -1,1 -1,0 -1,1 -1,0 -1,1 -1,0 -1,1 -1,0 -1,1 -1,0 -1,1 -1,0 -1,1 -1,0 -1,1 -2,0 -1,1 -1,0 -1,1 34,-23 1,-1 0,0 -1,-1 0,-1 -1,-1 0,-2 -1,-1 0,-1 -1,-1 0,-2 -1,-1 0,-4 -1,-1 0,-7 1,-1 0,-5 1,-1 0,-4 1,-1 0,-2 1,-1 1,0 1,-1 5,0 -4,-1 -1,0 -1,-1 0,-2 -1,0 -1,1 -1,1 -6,0 -1,-1 -8,0 -1,-1 -7,0 -1,-1 -3,0 -1,-1 -1,-1 0,-4 -3,0 -1,1 -1,1 3,0 1,1 0,3 -1,1 -1,0 -1,1 -2,0 -1,1 -2,0 -1,1 -1,0 -1,1 -1,0 -1,1 -2,0 -1,1 -2,0 -1,-1 0,2 -1,1 -2,0 0,2 1,-1 1,0 1,-1 3,0 1,1 0,-2 1,-1 3,0 1,1 0,-2 1,-1 1,0 1,-1 2,0 1,-1 1,0 1,-1 2,0 1,-1 4,0 1,1 1,1 1,1 0,8 1,-9 1,0 1,-1 3,0 1,1 7,0 1,1 5,0 1,1 0,8 -1,1 0,5 -1,1 0,10 -1,1 -1,0 -1,1 3,0 1,1 0,1 1,1 0,1 1,1 0,2 1,1 0,4 -1,1 3,0 -34,23 2,-75 3,0 0,-2 -1,-1 0,-1 -1,-1 1,3 0,1 -2,1 -2,75 34,-69 1,0 1,-1 0,-1 1,-1 1,-1 0,-1 1,-1 1,-1 1,-1 2,0 1,-1 0,-3 1,-1 1,-1 2,0 0,-11 -2,0 -1,1 0,4 -1,1 -1,0 -1,1 2,0 1,1 0,2 -2,2 0,1 -1,1 -1,1 -1,1 -4,0 0,6 -2,3 -34,69 35,-70 -35,70 34,-82 0,-2 1,-1 -3,0 -1,-1 -1,-1 -1,-1 0,-1 -1,-1 0,-1 -1,0 -1,-1 0,-1 -1,-1 0,-1 -1,-1 0,-3 -4,0 0,2 1,1 0,1 1,1 0,1 1,1 0,1 1,1 0,1 1,1 1,1 0,1 1,0 1,1 1,1 1,1 1,1 3,0 -34,82Z"/>
<path onmouseover="hoverPath(evt)" onmouseout="recoverPath(evt)" fill="rgb(243,241,232)" d="M  65,196l 0,3 1,1 0,3 -1,1 0,4 -1,1 -2,0 -1,1 -3,0 -1,1 -4,0 -1,1 -3,0 -1,1 0,2 1,1 0,1 2,0 1,1 1,1 0,3 1,1 0,2 -1,1 0,4 -1,1 3,0 1,-1 1,0 0,-2 1,-1 3,0 1,1 2,0 1,-1 6,0 1,1 0,2 1,1 0,1 2,0 1,1 0,2 1,1 0,2 1,1 0,2 1,1 0,1 2,0 1,-1 2,0 1,-1 4,0 1,-1 4,0 1,-1 4,0 1,-1 3,0 1,-1 3,0 1,-1 3,0 1,-1 3,0 1,-1 3,0 1,-1 0,-1 -1,-1 0,-2 -1,-1 -1,-1 -3,0 -1,-1 0,-2 1,-1 2,0 0,-4 -1,-1 0,-3 -1,-1 0,-2 -4,0 -1,-1 -1,-1 0,-3 1,-1 1,-1 0,-1 1,-1 0,-2 -1,-1 0,-2 -1,-1 0,-3 -1,-1 0,-2 -1,-1 0,-3 -1,-1 -1,-1 -1,0 -1,1 -2,0 -1,1 -6,0 -1,-1 -2,0 -1,1 -4,0 -1,1 -3,0 0,2 -1,1 -4,0 -1,-1 -4,0 -1,1 -2,0 0,2 -1,1 -3,0Z"/>
<path onmouseover="hoverPath(evt)" onmouseout="recoverPath(evt)" fill="rgb(243,242,233)" d="M  85,84l 0,2 -1,1 1,1 1,1 0,2 -1,1 0,1 1,1 0,2 1,1 0,3 1,1 0,2 1,1 0,3 1,1 0,2 1,1 0,3 1,1 0,2 1,1 0,2 1,1 0,2 4,0 1,-1 3,0 1,-1 2,0 1,-1 3,0 1,-1 0,-1 -1,-1 0,-2 -1,-1 0,-3 -1,-1 0,-2 -1,-1 0,-3 -1,-1 0,-7 1,-1 1,-1 3,0 1,1 2,0 1,-1 1,0 0,-4 1,-1 6,0 1,-1 2,0 1,1 0,2 3,0 0,-2 1,-1 2,0 1,-1 4,0 1,1 1,0 1,1 1,1 0,1 1,1 1,1 1,1 1,1 0,1 1,1 2,2 0,1 1,1 1,1 0,1 1,1 1,1 1,1 0,1 1,1 1,1 1,0 1,1 0,2 1,1 1,1 0,1 1,1 1,1 1,1 2,0 1,-1 1,0 1,-1 1,0 1,-1 1,0 1,-1 1,0 1,-1 1,0 1,-1 0,-2 -1,-1 0,0 -1,-1 0,-2 1,-1 -1,-1 -1,-1 0,-2 -1,0 -1,-1 -2,0 -1,-1 -1,-1 -1,-1 0,-1 -2,-2 0,-2 1,-1 -1,-1 0,0 -1,-1 -2,0 -1,-1 -1,-1 0,-1 -1,-1 -1,-1 -1,-1 0,-1 -1,-1 -1,-1 -1,-1 0,-2 1,-1 4,0 1,-1 1,-1 1,0 1,-1 1,-1 1,0 1,-1 1,-1 1,-1 2,0 1,-1 2,0 0,-10 -1,-1 0,-5 1,-1 1,0 1,-1 1,0 1,-1 1,0 1,-1 -1,0 -1,-1 0,-3 -1,-1 0,-1 -1,-1 0,-3 -1,-1 0,-2 -1,-1 0,-2 -1,-1 0,-2 -1,-1 0,-2 -1,-1 0,-2 -1,-1 0,-2 -1,-1 -1,1 -1,0 -1,1 -1,1 -1,0 -1,1 -1,1 -1,0 -2,2 -1,0 -1,1 -1,1 -1,0 -1,1 -1,0 -1,1 -1,1 -1,0 -2,2 -1,0 -1,1 -1,1 -1,0 -1,1 -1,1 -1,0 -1,1 -1,1 -1,0 -1,1 -1,0 -1,1 -1,1 -1,0 -1,1 -1,1 -1,0 -1,1 -1,1 -1,0 -1,1 -1,1 -1,0 -1,1 -1,1 -1,0 -1,1 -1,0 -1,1 -1,1 -1,0 -1,1 -1,1 -1,0 -1,1 -1,1 -1,0 -1,1 -1,1 -1,0 -1,1 1,1 0,1 1,1 1,1 1,0 1,1 0,2 1,1 1,1 0,1 1,0 1,1 1,1 0,1 1,1 0,2 -1,1 -2,0 -1,-1 -6,0 -1,-1 0,-2 1,-1 2,0 0,-1 -1,-1 0,0 -1,-1 0,-1 -1,-1 -1,-1 -2,0 -1,1 -1,0 -1,1 -1,0 -1,1 -1,0 -1,1 -1,0 -1,1 -1,0 -1,1 0,1 -1,1 -1,0 0,3 3,0 1,1 0,2 -1,1 -2,0 -1,1 -2,0 -1,1 1,1 55,-34 1,-1 2,0 1,1 0,2 -1,1 -2,0 -1,-1 0,-2 -55,34 60,-35 0,-2 1,-1 2,0 1,1 0,2 -1,1 -2,0 -1,-1 -60,35Z"/>
<path onmouseover="hoverPath(evt)" onmouseout="recoverPath(evt)" fill="rgb(243,242,234)" d="M  255,116l 0,-11 -2,0 -1,-1 0,2 -1,1 -1,0 -1,1 -2,0 -1,-1 -1,1 -2,0 0,1 -1,1 -1,1 0,1 1,1 0,2 -1,1 -2,0 0,2 -1,1 -1,1 -1,0 -1,1 -2,0 -1,1 -2,0 -1,1 -1,0 -1,1 -1,0 0,2 -1,1 -1,0 -1,1 -1,0 0,1 1,1 0,1 1,1 0,1 1,1 0,1 1,1 0,1 1,1 0,2 1,1 0,1 1,1 0,1 1,1 0,1 1,1 0,1 2,0 1,-1 0,0 1,-1 1,-1 1,0 1,-1 1,-1 1,0 1,-1 1,-1 1,0 1,-1 1,-1 1,0 1,-1 1,0 1,-1 1,-1 1,0 1,-1 3,0Z"/>
<path onmouseover="hoverPath(evt)" onmouseout="recoverPath(evt)" fill="rgb(252,252,251)" d="M  1,198l 0,-1 -1,0 0,12 2,0 1,1 0,3 1,1 0,4 1,1 0,2 1,1 0,4 1,1 0,3 1,1 0,3 1,1 0,3 1,1 0,3 1,1 0,4 1,1 0,2 1,1 0,4 2,0 0,-1 -1,-1 0,-2 -1,-1 0,-4 -1,-1 0,-2 -1,-1 0,-3 -1,-1 0,-4 -1,-1 0,-3 -1,-1 0,-3 -1,-1 0,-3 -1,-1 0,-3 -1,-1 0,-4 -1,-1 0,-2 -1,-1 0,-3 -1,-1 0,-4 -1,-1Z"/>
<path onmouseover="hoverPath(evt)" onmouseout="recoverPath(evt)" fill="rgb(241,240,230)" d="M  221,229l -1,0 0,4 -1,1 -2,0 -1,-1 0,-2 -1,-1 -1,-1 -1,1 -2,0 -1,1 -3,0 -1,-1 -1,-1 0,-2 1,-1 4,0 1,-1 1,0 0,-3 -1,-1 0,-2 1,-1 2,0 1,1 0,1 1,1 0,2 3,0 1,-1 2,0 1,-1 2,0 1,-1 2,0 1,-1 4,0 1,-1 5,0 0,-4 1,-1 -1,-1 0,-1 -1,-1 0,-1 -1,-1 0,-1 -1,-1 0,-1 -2,0 -1,-1 -1,-1 -1,0 -1,1 -1,0 -1,1 -1,0 -1,1 -1,0 -1,1 -2,0 -1,1 -2,0 -1,1 -3,0 -1,-1 0,2 -1,1 -1,1 0,2 -1,1 -2,0 -1,-1 0,-3 -3,0 -1,1 -1,0 -1,1 -1,0 -1,1 -3,0 -1,1 -2,0 0,1 1,1 0,1 1,1 0,1 1,1 0,1 1,1 0,2 1,1 0,1 1,1 0,1 1,1 0,2 1,1 0,1 1,1 0,1 1,1 0,2 1,1 0,1 1,1 0,1 1,1 0,2 1,1 0,1 1,1 0,1 1,1 0,4 45,0 0,-28 -2,0 -1,-1 0,-1 -1,-1 0,-1 -1,-1 -2,0 -1,-1 -2,0 -1,1 -2,0 0,4 1,1 0,2 -1,1 -6,0 -1,-1 -1,-1 0,-1 -1,0 -1,-1 -3,0 -1,1 -3,0 -1,1 -2,0 -1,1 0,12 1,1 0,2 -1,1 -2,0 -1,-1 0,-2 1,-1 2,0Z"/>
<path onmouseover="hoverPath(evt)" onmouseout="recoverPath(evt)" fill="rgb(242,240,230)" d="M  243,214l 0,1 1,1 0,1 1,0 1,-1 1,0 1,-1 1,0 0,-3 -1,-1 0,-1 -1,-1 0,-1 -1,-1 0,-1 -1,-1 0,-1 -1,-1 0,-1 -1,-1 0,-1 -1,-1 0,-1 -1,-1 0,-1 -1,-1 -1,0 -1,1 -1,1 -1,0 0,1 -1,1 1,1 0,0 1,1 0,2 1,1 0,1 1,1 0,1 1,1 0,1 1,1 0,1 1,1 0,1 1,1Z"/>
<path onmouseover="hoverPath(evt)" onmouseout="recoverPath(evt)" fill="rgb(244,243,236)" d="M  0,7l 0,72 2,0 1,-1 2,0 1,-1 4,0 1,-1 3,0 1,-1 4,0 1,-1 3,0 1,-1 3,0 1,-1 3,0 1,-1 3,0 1,-1 4,0 1,-1 3,0 1,-1 3,0 1,-1 3,0 1,-1 3,0 1,-1 2,0 0,-3 1,-1 3,0 0,-4 1,-1 0,-3 1,-1 0,-5 1,-1 0,-1 -1,-1 0,-2 -1,-1 0,-2 -2,0 -1,-1 0,-3 1,-1 0,-2 -1,-1 0,-2 -1,-1 0,-3 -1,-1 0,-2 -1,-1 0,-3 -1,-1 0,-2 -1,-1 0,-3 -1,-1 0,-2 -1,-1 0,-3 -1,-1 0,-3 -53,0Z"/>
<path onmouseover="hoverPath(evt)" onmouseout="recoverPath(evt)" fill="rgb(173,198,235)" d="M  11,167l -11,0 3,1 2,0 1,1 1,-1 3,0 1,-1 3,1 10,0 1,-1 18,0 1,-1 8,0 1,-1 2,0 1,-1 23,0 1,1 3,0 1,1 6,0 1,1 2,0 1,1 5,0 1,1 1,0 0,-1 -1,-1 0,-1 -2,0 -1,-1 -3,0 -1,-1 -6,0 -1,-1 -21,0 -51,5 -3,-1 44,-3 -6,0 -1,1 -15,0 -1,1 -17,0 40,-2 -44,3Z"/>
<path onmouseover="hoverPath(evt)" onmouseout="recoverPath(evt)" fill="rgb(242,241,232)" d="M  210,103l 0,2 1,1 0,1 1,1 0,1 1,1 0,1 1,1 0,1 1,1 0,1 1,1 0,1 1,1 0,1 1,1 0,1 1,1 0,2 3,0 1,-1 1,0 1,-1 1,0 1,-1 1,0 1,-1 2,0 1,-1 2,0 1,-1 1,0 1,-1 0,-2 1,-1 0,-1 1,-1 0,-2 1,-1 1,-1 0,-1 1,-1 2,0 1,-1 1,0 1,-1 1,0 1,-1 1,0 1,-1 2,0 1,1 1,0 0,-24 -1,0 -1,1 -1,0 -1,1 -1,1 -1,0 0,2 1,1 0,1 1,1 1,1 0,2 -1,1 -2,0 -1,-1 -1,-1 0,-1 -1,-1 -1,-1 0,-1 -3,0 -1,1 -1,0 -1,1 -1,0 -1,1 -1,0 -1,1 -1,0 -1,1 -1,0 -1,1 -1,0 -1,1 -1,0 -1,1 -1,0 -1,1 -1,0 -1,1 -1,0 -1,1 -1,0 -1,1 -1,0 -1,1 -1,0 -1,1 -1,0 -1,1 -1,0 -1,1 -1,0Z"/>
<path onmouseover="hoverPath(evt)" onmouseout="recoverPath(evt)" fill="rgb(197,214,239)" d="M  232,151l 0,2 1,1 1,0 1,1 0,2 1,1 0,2 1,0 1,1 2,0 1,1 -3,-2 -1,-1 0,0 -1,-2 0,-2 1,-1 1,-1 1,0 1,-1 1,0 3,-3 1,0 1,-1 1,-1 1,0 1,-1 1,0 1,-1 1,-1 1,-1 2,0 0,-6 -2,0 -1,1 -1,0 -1,1 -1,1 -1,0 -1,1 -1,0 -1,1 -1,1 -1,0 -1,1 -1,1 -1,0 -1,1 -1,1 -1,0 -1,1 -1,1 -1,1 -1,0 -1,1Z"/>
<path onmouseover="hoverPath(evt)" onmouseout="recoverPath(evt)" fill="rgb(235,235,204)" d="M  37,144l 0,0 1,1 1,1 1,1 1,1 3,0 1,1 1,0 1,1 5,0 1,1 2,0 1,-1 6,0 1,-1 1,0 1,-1 4,0 1,1 1,0 1,-1 1,0 1,-1 1,-1 1,0 1,-1 -1,-1 -2,0 -1,-1 -1,-1 0,-1 -1,-1 0,-4 1,-1 1,0 0,-1 1,-1 0,-1 1,-1 2,-2 1,0 0,-1 1,-1 4,0 -1,-1 0,-3 1,-1 0,-2 1,-1 2,0 0,-5 -1,-1 0,-2 -1,-1 0,-3 -1,-1 0,-2 -1,-1 0,-3 -1,-1 0,-2 -1,-1 0,-2 -1,-1 -3,0 0,1 -1,1 0,2 1,1 0,3 1,1 0,3 1,1 0,7 -1,1 -2,0 -1,-1 -1,-1 0,-1 -1,-1 0,-1 -1,-1 0,-2 -1,-1 0,-2 -1,-1 0,-2 -1,-1 0,-2 -1,-1 0,-1 -1,-1 0,-3 -2,0 -1,-1 0,-3 1,-1 4,0 1,1 3,0 1,1 1,1 3,0 1,-1 0,-2 -1,-1 0,-2 -1,-1 0,-3 -1,-1 0,-2 -1,-1 0,-2 -1,2 -2,0 -1,1 -5,0 -1,1 -2,0 -1,1 -2,0 -1,1 -3,0 -1,1 -3,0 0,1 -1,1 -4,0 0,4 -1,1 -2,0 0,3 -1,1 -3,0 0,3 1,1 0,3 1,1 2,0 1,1 0,2 -1,1 -3,0 -1,1 -4,0 -1,1 0,8 -1,1 -4,0 0,2 -1,1 0,3 3,0 1,1 0,2 -1,1 -3,0 -1,1 -1,1 -2,0 0,1 -1,1 0,2 1,1 3,0 1,1 0,1 1,1 0,3 -1,1 1,1 0,2 1,0 1,1 1,1 0,1 1,0 1,1 1,-1 2,0 47,-16 0,5 -1,1 0,1 1,-1 1,-2 0,-3 -1,-1 -47,16Z"/>
<path onmouseover="hoverPath(evt)" onmouseout="recoverPath(evt)" fill="rgb(240,239,227)" d="M  242,39l -1,0 0,2 -1,1 0,4 -1,1 0,5 -1,1 0,5 1,1 0,4 1,1 0,2 1,1 0,1 1,1 0,2 1,1 0,1 1,1 0,1 1,1 1,1 1,0 1,-1 1,0 1,-1 1,0 1,-1 3,0 0,-56 -1,0 -1,1 0,3 -2,2 -2,0 -1,1 -1,1 0,1 -1,1 -1,1 0,1 -1,1 0,1 -1,1 1,0 1,1 3,0 1,1 0,2 -1,1 -5,0 -1,1Z"/>
<path onmouseover="hoverPath(evt)" onmouseout="recoverPath(evt)" fill="rgb(243,241,233)" d="M  46,212l 0,0 1,-1 1,-1 3,0 1,-1 4,0 1,-1 3,0 1,-1 2,0 0,-4 1,-1 0,-1 -1,-1 0,-7 1,-1 3,0 0,-2 1,-1 2,0 1,-1 6,0 1,1 2,0 0,-2 1,-1 3,0 1,-1 4,0 1,-1 4,0 1,1 4,0 1,-1 2,0 0,-2 1,-1 1,0 0,-4 -1,-1 0,-3 -1,-1 0,-1 -3,0 -1,-1 -5,0 -1,-1 -2,0 -1,-1 -6,0 -1,-1 -3,0 -1,-1 -21,0 -1,1 -2,0 -1,1 -8,0 -1,1 -18,0 -1,1 -17,0 -1,1 -2,0 -1,-1 -2,0 -1,-1 -1,0 0,26 2,0 1,1 0,3 1,1 0,4 1,1 0,3 1,1 0,2 1,1 0,4 1,1 0,3 1,1 0,3 1,1 0,3 1,1 0,3 1,1 0,4 1,1 0,3 1,1 0,2 1,1 0,4 1,1 0,2 1,1 0,2 22,0 0,-2 1,-1 0,-1 1,-1 2,0 1,1 1,0 1,-1 4,0 1,-1 3,0 1,-1 4,0 1,-1 3,0 1,-1 3,0 1,-1 4,0 1,-1 0,-1 1,-1 1,0 1,-1 0,-1 -1,-1 0,-2 -1,-1 0,-2 -2,0 -1,-1 0,-1 -1,-1 0,-2 -4,0 -1,1 -4,0 -1,-1 -1,0 0,2 -1,1 -1,0 -1,1 -5,0 -1,-1 0,-2 1,-1 0,-3 -1,-1 0,-2 1,-1 0,-2 -1,-1 -2,0 -1,-1 0,-1 -1,-1Z"/>
<path onmouseover="hoverPath(evt)" onmouseout="recoverPath(evt)" fill="rgb(242,241,232)" d="M  255,183l 0,-38 -1,0 -1,1 -2,2 -1,0 -1,1 -1,0 -1,1 -1,1 -1,0 -1,1 -1,1 -1,1 -1,0 -1,1 -1,0 -1,1 0,1 1,1 0,0 1,1 1,0 1,1 1,1 1,0 1,1 0,2 -1,1 -2,0 -1,1 -1,0 1,1 0,1 1,1 0,1 1,1 0,1 1,1 0,2 1,1 0,1 1,1 0,1 1,1 0,3 1,1 1,1 1,1 0,1 1,1 0,1 1,1 0,1 1,1 0,1 1,1 0,1 1,0Z"/>
<path onmouseover="hoverPath(evt)" onmouseout="recoverPath(evt)" fill="rgb(231,226,180)" d="M  66,74l 3,0 1,-1 2,0 0,-1 1,-1 1,0 0,-3 1,-1 1,-1 0,-3 -1,0 -1,-1 0,-2 -1,-1 0,-3 1,-1 0,-1 -2,0 -1,-1 -1,-1 0,-2 -2,0 -1,-1 0,4 -1,1 0,3 -1,1 0,4 -1,1 -3,0 0,1 4,0 1,1 0,5 -1,1 -1,0 0,2 1,1Z"/>
<path onmouseover="hoverPath(evt)" onmouseout="recoverPath(evt)" fill="rgb(253,253,253)" d="M  206,169l 0,-1 1,-1 0,0 1,-1 6,0 1,-1 3,0 1,1 1,1 1,1 -1,-2 0,0 -1,-1 0,0 -2,-1 -3,1 -3,0 -4,1 -2,0 -1,1 -5,0 -1,1 -5,0 -1,1 -5,0 -1,1 -4,0 -1,1 -4,0 -1,1 -4,0 -1,1 -4,0 -1,1 -4,0 -1,1 -6,0 -1,1 -6,0 -1,1 -7,0 -1,1 -5,0 -1,-1 -2,0 -1,1 -8,0 9,1 4,0 71,-10 -56,8 2,0 3,-1 4,0 3,-1 2,0 3,-1 2,0 3,-1 2,0 3,-1 3,0 2,-1 6,0 1,1 0,-1 1,-1 1,0 -41,7 56,-8 -5,-1 4,0 1,3 -17,3Z"/>
<path onmouseover="hoverPath(evt)" onmouseout="recoverPath(evt)" fill="rgb(245,234,139)" d="M  62,75l 0,-5 1,-1 1,0 0,-3 -3,0 -1,1 -2,0 -1,1 -3,0 -1,1 -3,0 -1,1 -3,0 -1,1 -3,0 -1,1 -4,0 -1,1 -3,0 -1,1 -3,0 -1,1 -3,0 -1,1 -3,0 -1,1 -4,0 -1,1 -3,0 -1,1 -4,0 -1,1 -2,0 -1,1 -3,0 0,8 4,0 0,-1 1,-1 5,0 0,-1 1,-1 3,0 1,1 2,0 1,-1 3,0 1,-1 4,0 1,-1 3,0 1,-1 3,0 1,-1 5,0 1,-1 8,0 0,-1 1,-1 3,0 1,-1 3,0 1,-1 2,0 1,-1Z"/>
<path onmouseover="hoverPath(evt)" onmouseout="recoverPath(evt)" fill="rgb(243,242,233)" d="M  104,154l 0,0 -1,1 0,1 1,1 0,3 1,1 0,2 1,1 0,2 6,0 1,1 3,0 1,1 4,0 1,1 3,0 1,1 4,0 1,1 3,0 1,1 13,0 1,-1 5,0 1,-1 6,0 1,-1 2,0 1,-1 4,0 1,-1 7,0 1,-1 4,0 1,-1 5,0 1,-1 5,0 1,-1 5,0 1,-1 4,0 1,-1 7,0 1,-1 1,-1 2,0 1,-1 1,0 1,-1 1,-1 0,-1 -1,-1 0,-1 -1,-1 0,-1 -1,-1 0,-1 -1,-1 0,-2 -1,-1 -1,-1 -2,0 -1,-1 -1,-1 0,-1 -1,1 -3,0 -1,1 -3,0 -1,-1 -1,-1 0,-2 -1,-1 0,-3 -1,-1 0,-1 -1,-1 0,-3 -1,-1 0,-1 -5,0 -1,1 -3,0 -1,1 -2,0 -1,1 -1,1 -1,0 -1,1 -2,0 0,2 -1,1 -1,1 -2,0 -1,-1 -1,1 -6,0 -1,-1 0,2 -1,1 -1,0 -1,1 -8,0 -1,-1 -6,0 -1,1 -3,0 -1,-1 0,-2 -1,-1 -1,1 -1,0 -1,1 -1,0 -1,1 -1,0 -1,1 -1,0 -1,1 -1,0 -1,1 -1,0 0,2 -1,1 -2,0 -1,-1 -1,1 -1,0 0,2 -1,1 -1,0 -1,1 -1,0 -1,1 -1,0 -1,1 -2,0 -1,-1 -1,1 -1,0 -1,1 -1,0 -1,1 -1,0 -1,1 -2,0 -1,1Z"/>
<path onmouseover="hoverPath(evt)" onmouseout="recoverPath(evt)" fill="rgb(252,252,250)" d="M  241,219l 0,0 -1,1 3,0 1,-1 4,0 1,1 1,0 1,-1 0,-3 -1,1 -1,0 -1,1 -1,0 -6,1 -3,1 -3,0 -1,1 -4,0 -1,1 -2,0 -1,1 -2,0 -1,1 -2,0 -1,1 -5,0 -1,-1 0,2 -1,1 -1,0 -1,1 -4,0 1,1 1,0 3,-1 2,-1 1,0 1,1 1,1 1,1 0,-2 1,-1 1,0 1,-1 2,0 1,-1 3,0 1,-1 5,0 1,1 1,0 1,1 0,1 1,1 4,0 -1,-1 0,-4 -2,-3 3,-1 0,-2 1,0 -1,-1Z"/>
<path onmouseover="hoverPath(evt)" onmouseout="recoverPath(evt)" fill="rgb(241,240,226)" d="M  0,92l 0,73 12,0 1,-1 18,0 1,-1 15,0 1,-1 15,0 1,-1 23,0 1,1 6,0 1,1 3,0 1,1 1,0 0,-1 -1,-1 0,-3 -1,-1 0,-1 -1,-1 0,-3 -1,-1 0,-3 -1,-1 0,-3 -1,-1 0,-2 -1,-1 0,-2 -1,-1 0,-3 -1,-1 0,-2 -1,-1 0,-2 -1,-1 0,-2 -1,-1 0,-2 -3,0 -1,1 0,1 1,0 1,1 0,1 1,1 0,5 -1,1 0,1 -1,1 -1,1 -2,0 -1,-1 0,-3 1,-1 0,-3 -2,0 0,1 -1,1 -1,0 -1,1 -1,1 0,1 -1,1 0,1 -1,1 -1,0 0,2 1,1 0,1 1,1 2,0 1,1 1,1 0,2 -1,1 -1,1 -1,0 -1,1 -1,1 -1,0 -1,1 -3,0 -1,-1 -2,0 -1,1 -1,0 -1,1 -6,0 -1,1 -4,0 -1,-1 -5,0 -1,-1 -1,0 -1,-1 -3,0 -1,-1 -1,-1 -1,-1 -1,-1 -1,1 -2,0 -1,-1 -1,0 -1,-1 0,-1 -1,-1 -1,0 -1,-1 0,-2 -1,-1 0,4 -1,1 -2,0 -1,-1 0,-1 -1,-1 0,-2 -1,-1 0,-3 -1,-1 0,-2 -1,-1 0,-1 -2,0 -1,-1 0,-1 -1,-1 0,-5 1,-1 1,0 1,-1 2,0 -1,-1 0,-2 -1,-1 0,-5 -1,-1 0,-1 -1,-1 0,-3 -1,-1 0,-1 -2,0 -1,-1 -1,-1 0,-2 -1,-1 0,-3 -1,-1 0,-1 -1,-1 0,-3 -1,0 0,1 -1,1 -4,0 -1,1Z"/>
<path onmouseover="hoverPath(evt)" onmouseout="recoverPath(evt)" fill="rgb(241,240,228)" d="M  0,220l 0,35 11,0 0,-3 -1,-1 0,-2 -1,-1 0,-4 -1,-1 0,-3 -1,-1 0,-3 -1,-1 0,-3 -1,-1 0,-3 -1,-1 0,-4 -1,-1 0,-2 -1,-1 0,-4 -1,-1 0,-3 -1,0Z"/>
<path onmouseover="hoverPath(evt)" onmouseout="recoverPath(evt)" fill="rgb(242,240,231)" d="M  167,123l -1,0 -1,1 0,3 -1,1 -2,0 -1,-1 0,-1 -1,0 0,2 -1,1 -1,0 -1,1 -1,0 -1,1 -1,0 -1,1 -1,0 -1,1 -1,1 -2,0 0,2 7,0 1,1 6,0 1,-1 1,0 0,-2 -1,-1 0,-3 1,-1 2,0 1,1 0,1 1,1 0,2 4,0 1,-1 1,0 1,-1 1,-1 1,0 1,-1 2,0 1,-1 1,0 1,-1 1,-1 2,0 1,-1 3,0 1,-1 7,0 1,1 0,1 1,1 0,3 1,1 0,1 1,1 0,3 1,1 0,2 1,1 1,0 1,-1 3,0 1,-1 1,0 1,-1 0,-2 -1,-1 0,0 -1,-1 0,-1 -1,-1 0,-1 -1,-1 0,-2 -1,-1 0,-1 -1,-1 0,-1 -1,-1 0,-1 -1,-1 0,-1 -1,-1 0,-1 -1,-1 0,-1 -1,-1 0,-1 -1,-1 0,-1 -1,-1 0,-1 -1,-1 -1,1 -1,0 -1,1 -1,0 -1,1 -1,0 -1,1 -1,0 -1,1 -1,0 -1,1 -1,0 -1,1 -1,0 -1,1 -1,0 -1,1 -1,0 -1,1 -1,0 -1,1 -1,0 -1,1 -1,0 -1,1 -1,0 -1,1 -2,0 -1,-1 -1,1Z"/>
<path onmouseover="hoverPath(evt)" onmouseout="recoverPath(evt)" fill="rgb(237,236,228)" d="M  100,46l 2,0 1,-1 0,-2 1,-1 2,0 1,-1 1,0 1,-1 1,0 1,-1 1,0 0,-3 1,-1 2,-2 1,0 1,-1 1,0 1,-1 1,0 1,-1 1,0 1,-1 1,-1 1,0 1,-1 1,0 1,-1 1,0 1,-1 1,0 1,-1 1,-1 2,0 1,1 1,-1 1,0 1,-1 2,0 0,-1 1,-1 0,-2 1,-1 1,-1 1,0 1,-1 1,0 2,-2 1,0 1,-1 1,0 0,-1 1,-1 0,-1 1,-1 2,0 1,1 2,0 1,-1 1,-1 1,0 0,-2 -1,-1 0,-4 -63,0 0,3 -1,1 -1,0 -1,1 -1,1 0,1 -1,1 -2,2 -1,1 0,1 -1,1 -1,1 -1,1 -3,0 0,2 -1,1 -1,1 0,1 -1,1 -1,1 0,1 -1,1 -1,1 0,6 1,1 0,1 2,0 1,1 1,0 1,1 0,6 1,1 1,0 1,1 0,4 11,0 1,1 0,-1 1,-1Z"/>
<path onmouseover="hoverPath(evt)" onmouseout="recoverPath(evt)" fill="rgb(242,240,230)" d="M  118,141l 1,-1 1,0 0,-2 -1,-1 0,-1 -1,0 -1,-1 0,-1 -1,-1 0,-2 1,-1 3,0 1,1 1,0 1,-1 1,0 1,-1 1,0 1,-1 1,0 1,-1 1,0 1,-1 1,0 1,-1 1,0 1,-1 0,-1 -1,-1 0,-1 -1,-1 0,-1 -1,-1 0,-1 -1,-1 0,-1 -1,-1 -1,-1 0,-1 -1,-1 0,-1 -1,-1 0,-2 1,-1 0,-1 -1,-1 -1,-1 -1,-1 0,-1 -2,0 -1,-1 0,-1 -1,-1 0,-2 1,-1 2,0 1,1 0,-2 1,-1 -1,0 -1,-1 0,-2 -1,1 -6,0 0,4 -1,1 -1,0 -1,1 -4,0 -1,-1 -1,0 -1,1 0,5 1,1 0,3 1,1 0,2 1,1 0,3 1,1 0,2 1,1 0,3 -1,1 -1,1 -3,0 -1,1 -2,0 -1,1 -3,0 0,2 -1,1 -3,0 0,5 1,1 0,2 1,1 0,3 1,1 0,2 1,1 0,3 1,1 0,1 1,1 0,-2 1,-1 1,0 1,-1 1,0 1,-1 1,0 1,-1 2,0 1,1 0,-2 1,-1 2,0 1,1 1,-1Z"/>
<path onmouseover="hoverPath(evt)" onmouseout="recoverPath(evt)" fill="rgb(242,241,231)" d="M  188,45l 0,0 1,1 0,2 1,1 0,2 1,1 0,1 1,1 0,2 1,1 0,2 1,1 0,2 1,1 0,2 1,1 0,1 1,1 0,2 1,1 0,2 1,1 0,2 1,1 0,2 1,1 0,2 1,1 0,1 1,1 0,2 1,1 0,2 1,1 0,2 1,1 0,1 1,0 1,1 1,-1 2,0 1,-1 1,0 1,-1 1,0 1,-1 1,0 1,-1 1,0 1,-1 1,0 1,-1 1,0 1,-1 1,0 1,-1 1,0 1,-1 1,0 1,-1 1,0 1,-1 1,0 1,-1 1,0 1,-1 1,0 1,-1 1,0 1,-1 0,-2 -4,0 -1,-1 0,-2 1,-1 1,0 0,-2 -1,-1 0,-2 -1,-1 0,-1 -1,-1 0,-1 -9,0 -1,-1 0,-2 1,-1 6,0 1,-1 1,0 0,-10 1,-1 0,-5 1,-1 0,-6 -5,0 -1,-1 -7,0 -1,-1 -1,0 -1,1 -1,0 0,8 -1,1 -2,0 -1,-1 0,-8 -1,-1 -1,-1 -2,0 -1,1 -2,0 -1,1 -1,0 -1,1 -2,0 -1,1 -1,0 0,2 -1,1 -2,0 -1,-1 -1,0 0,2 -1,1 -2,0 -1,-1 -1,0 -1,1 -1,0Z"/>
<path onmouseover="hoverPath(evt)" onmouseout="recoverPath(evt)" fill="rgb(230,230,205)" d="M  32,108l 0,-4 1,-1 1,-1 4,0 1,-1 3,0 -3,-1 0,0 -1,-1 0,-3 -1,-1 0,-5 1,-1 3,0 0,-3 1,-1 2,0 0,-3 -2,0 -1,1 -5,0 -1,1 -3,0 -1,1 -3,0 -1,1 -4,0 -1,1 -3,0 -1,1 -4,0 -1,-1 -1,0 0,1 -1,1 -2,0 0,2 1,1 0,1 1,1 0,3 1,1 0,2 1,1 2,0 1,1 0,1 1,1 0,3 1,1 0,1 1,1 0,5 1,1 0,2 1,1 0,2 -1,1 -2,0 -1,1 -1,0 0,3 1,1 0,1 2,0 1,1 0,1 1,1 0,2 1,1 0,3 1,1 0,2 1,1 0,1 1,-1 0,0 -1,-1 0,-3 1,-1 2,0 0,-1 -1,-1 0,-1 -3,0 -1,-1 0,1 10,-25 0,3 -1,1 -3,0 -1,1 5,-4 0,-1 -5,6 0,1 -1,1 1,-2 5,-6 -6,9 0,0 6,-9 -8,16 1,0 1,-1 1,-1 3,0 -7,2 -1,1 0,1 2,-2 8,-16Z"/>
<path onmouseover="hoverPath(evt)" onmouseout="recoverPath(evt)" fill="rgb(247,237,150)" d="M  50,255l 23,0 0,-2 1,-1 4,0 1,-1 2,0 1,-1 3,0 1,-1 5,0 0,-1 1,-1 7,0 1,-1 3,0 1,-1 3,0 1,-1 4,0 1,-1 3,0 1,-1 2,0 1,-1 2,0 2,-2 3,0 1,-1 1,-1 1,0 1,-1 3,0 1,1 1,-1 6,0 0,-2 1,-1 3,0 0,-2 1,-1 2,0 1,1 1,-1 1,0 1,-1 2,0 1,-1 1,0 1,-1 2,0 1,-1 1,0 1,-1 6,0 1,1 0,-3 1,-1 2,0 1,-1 1,0 1,-1 2,0 1,-1 1,0 1,-1 2,0 1,-1 1,0 1,-1 2,0 1,1 0,-3 1,-1 5,0 1,-1 3,0 1,-1 1,0 1,-1 1,0 1,-1 5,0 1,1 0,3 1,-3 0,0 1,-1 0,-2 1,-1 2,0 1,1 1,0 1,-1 2,0 1,-1 2,0 1,-1 1,0 1,-1 1,0 1,-1 1,0 1,-1 3,0 1,1 1,1 0,-1 -1,-1 0,0 -1,-1 0,-2 1,-1 0,-1 1,-1 1,0 1,-1 1,-1 3,0 1,1 1,1 0,1 1,1 0,1 1,1 0,1 1,1 0,1 1,1 0,1 1,1 0,1 1,1 0,1 1,1 0,1 1,1 0,3 1,0 1,1 0,5 -1,1 1,1 0,1 1,1 0,1 1,0 0,-28 -2,0 -1,-1 0,-1 -1,-1 0,-1 -1,-1 0,-1 -1,-1 0,-1 -1,-1 0,-1 -1,-1 -1,-1 -1,-1 0,-3 -1,-1 0,-1 -1,-1 0,-1 -1,-1 0,-2 -1,-1 0,-1 -1,-1 0,-1 -1,-1 0,-1 -1,-1 0,-2 1,-1 1,0 -1,-1 -2,0 -1,-1 -1,0 -1,-1 0,-2 -1,-1 0,-2 -1,0 -1,-1 -1,-1 0,-4 -1,-1 0,-1 -1,-1 0,-1 -1,-1 0,-1 -1,-1 0,-1 -1,-1 0,-2 -1,-1 0,-1 -1,-1 0,-1 -1,-1 0,-1 -1,-1 0,-1 -1,-1 0,-3 1,-1 -3,0 -1,-1 0,-2 -1,-1 0,-1 -1,-1 0,-1 -1,-1 0,-1 -1,-1 0,-1 -1,-1 0,-1 -1,-1 0,-1 -1,-1 0,-1 -1,-1 0,-1 -1,-1 0,-4 -2,0 -1,-1 0,-3 1,-1 -1,0 -1,-1 0,-1 -1,-1 0,-2 -1,-1 0,-2 -1,-1 0,-2 -1,-1 0,-1 -1,-1 0,-2 -1,-1 0,-2 -1,-1 0,-2 -1,-1 0,-2 -1,-1 0,-2 -1,-1 0,-1 -1,-1 0,-2 -1,-1 0,-2 -1,-1 0,-2 -1,-1 0,-2 -1,-1 0,-1 -1,-1 0,-2 -1,-1 0,-2 -1,-1 0,-2 -1,0 -1,-1 0,-5 -1,-1 0,-1 -1,-1 0,-2 -1,-1 0,-2 -1,-1 0,-1 -1,-1 0,-2 -1,-1 0,-2 -1,-1 0,-2 -1,-1 0,-2 -1,-1 0,-4 1,-1 1,0 1,-1 2,0 1,-1 1,0 1,-1 3,0 1,1 0,2 1,-1 1,0 1,-1 3,0 1,-1 2,0 1,-1 5,0 0,-1 -1,-1 0,0 -1,-1 0,-3 -37,0 0,3 1,1 0,4 -1,1 -1,0 -1,1 -1,1 -4,0 -1,-1 0,1 -1,1 0,1 -1,1 -1,0 -1,1 -1,0 -1,1 -1,1 -1,0 -1,1 -1,0 -1,1 0,2 -1,1 0,1 -1,1 -2,0 -1,1 -1,0 -1,1 -1,0 -1,1 -1,1 -1,0 -1,1 -2,0 -1,-1 -1,1 -1,0 -1,1 -1,0 -1,1 -1,1 -1,0 -1,1 -1,0 -1,1 -1,0 -1,1 -1,0 -1,1 -1,1 0,3 -1,1 -1,0 -1,1 -1,0 -1,1 -1,0 -1,1 -2,0 0,2 -1,1 -1,1 -2,0 0,1 -1,1 -2,0 -1,-1 -11,0 -1,-1 0,-4 -1,0 -1,-1 -1,-1 0,-6 -1,0 -1,-1 -1,0 -1,1 -5,0 -1,1 -1,0 0,3 -1,1 0,1 1,1 0,2 1,1 0,5 1,1 2,0 1,1 0,3 -1,1 0,1 1,1 0,2 1,0 1,1 0,5 -1,1 -1,1 0,1 2,0 1,1 0,1 1,1 0,3 1,1 0,1 1,0 0,-5 1,-1 0,-1 1,-1 2,-2 3,0 1,1 1,-1 1,0 1,-1 1,0 1,-1 1,0 1,-1 1,0 1,-1 4,0 1,1 1,1 1,1 0,1 1,1 1,1 0,3 -1,1 4,0 1,1 -1,-2 0,0 -1,-1 -1,0 -7,-9 0,-1 -1,-1 0,-2 1,-1 1,-1 1,0 1,-1 1,-1 1,0 2,-2 1,0 2,-2 1,0 1,-1 1,-1 1,0 1,-1 1,0 1,-1 1,-1 1,0 1,-1 1,-1 1,0 1,-1 1,-1 1,0 1,-1 1,-1 1,0 1,-1 1,-1 1,0 1,-1 1,0 1,-1 1,-1 1,0 1,-1 1,-1 1,0 1,-1 1,-1 1,0 1,-1 1,-1 1,0 1,-1 1,-1 1,0 1,-1 1,0 1,-1 1,-1 1,0 1,-1 1,-1 1,0 1,-1 1,-1 1,0 1,-1 1,-1 1,0 1,-1 2,0 1,1 1,1 0,2 1,1 0,2 1,1 0,2 1,1 0,2 1,1 0,2 1,1 0,2 1,1 0,3 1,1 0,1 1,1 0,3 1,0 1,1 0,2 -1,1 1,0 1,1 0,2 1,1 0,2 1,1 0,2 1,1 0,1 1,1 0,2 1,1 0,2 1,1 0,2 1,1 0,2 1,1 0,2 1,1 0,1 1,1 0,2 1,1 0,2 1,1 0,2 1,1 0,2 1,1 0,2 1,1 0,1 1,1 0,2 1,1 0,2 -1,1 2,0 1,1 0,3 -1,1 1,0 1,1 0,0 1,1 0,1 1,1 0,1 1,1 0,1 1,1 0,1 1,1 0,1 1,1 0,1 1,1 0,1 1,1 0,1 1,1 0,1 1,1 0,2 1,1 0,1 1,1 0,1 1,1 1,1 0,4 -1,1 0,1 1,1 2,0 1,1 1,1 1,1 0,2 1,1 0,1 1,1 0,1 1,1 0,1 1,1 0,1 1,0 1,1 1,1 0,1 1,1 1,1 0,2 -1,1 1,1 0,1 1,1 0,1 1,1 0,2 1,1 0,1 1,1 0,1 1,1 0,1 1,1 0,1 1,1 0,1 1,1 0,1 1,1 0,4 -2,2 -1,0 -2,2 -1,0 -2,2 -1,0 -1,1 -1,0 -1,1 -1,0 -1,1 -1,0 -1,1 -2,0 -1,1 -1,0 -1,1 -2,0 0,1 -1,1 -3,0 -1,1 -2,0 -1,1 -1,0 -1,1 -2,0 -1,1 -2,0 -1,1 -1,0 -1,1 -2,0 -1,1 -3,0 0,1 -1,1 -3,0 -1,1 -1,0 -1,1 -1,0 -1,1 -2,0 -1,1 -1,0 -1,1 -2,0 0,2 -1,1 -3,0 -1,-1 -1,1 -2,0 -1,-1 0,-3 1,-1 -1,0 -1,1 -1,0 0,1 1,1 0,5 -1,1 -3,0 -1,-1 0,2 -1,1 -3,0 -1,-1 0,2 -1,1 -3,0 -1,-1 -1,1 -2,0 0,1 -1,1 -4,0 -1,1 -1,0 -1,1 -2,0 -1,1 -2,0 -1,1 -1,0 -1,1 -4,0 0,2 -1,1 -3,0 -1,-1 -1,1 -3,0 -1,1 -3,0 -1,1 -3,0 -1,1 -3,0 -1,1 -3,0 -1,1 -4,0 -1,1 -4,0 -1,1 -4,0 -1,1 -2,0 -1,1 -4,0 -1,-1 -2,0 0,1 -2,2 -4,0 -1,1 -3,0 -1,1 -3,0 -1,1 -4,0 -1,1 -3,0 -1,1 -4,0 -1,1 -3,0 -1,-1 0,1 -1,1 0,1 9,0 136,-244 1,1 0,-1 -1,0 -136,244Z"/>
<path onmouseover="hoverPath(evt)" onmouseout="recoverPath(evt)" fill="rgb(176,199,231)" d="M  145,174l -11,0 -1,-1 -3,0 -1,-1 -4,0 -1,-1 -3,0 -1,-1 -4,0 -1,-1 -3,0 -1,-1 -4,0 1,1 0,1 1,0 1,1 4,0 1,1 4,0 1,1 7,0 1,1 2,0 1,1 3,0 1,1 3,0 1,-1 5,0 1,-1 1,1 1,-1 6,0 1,-1 6,0 1,-1 4,0 1,-1 4,0 1,-1 4,0 1,-1 4,0 1,-1 4,0 1,-1 5,0 1,-1 5,0 1,-1 5,0 1,-1 5,0 1,-1 5,0 1,-1 2,0 1,1 1,-1 1,0 1,-1 4,0 -1,-1 0,0 -1,-1 0,-1 -1,-1 -1,1 -1,1 -1,1 -1,0 -1,1 -2,0 -1,1 4,0 -73,13 -1,-1 63,-11 -1,0 -4,1 -1,0 -5,1 -1,0 -5,1 -1,0 -5,1 -1,0 -4,1 -1,0 -4,1 -4,0 -1,1 -4,0 -1,1 -2,0 -3,1 -4,0 -3,1Z"/>
<path onmouseover="hoverPath(evt)" onmouseout="recoverPath(evt)" fill="rgb(252,252,250)" d="M  196,238l 0,4 1,1 1,-1 4,0 1,1 0,-2 -1,-1 0,-2 -1,-1 0,-1 -1,-1 0,-1 -1,-1 0,-2 -1,-1 0,-1 -1,-1 0,-1 -1,-1 0,-2 -1,-1 0,-1 -1,-1 0,-1 -1,-1 0,-1 -1,-1 0,-2 -1,0 0,2 1,1 0,1 1,1 0,2 1,1 0,1 1,1 0,1 1,1 0,2 1,1 0,2 -1,1 -2,0 -1,-1 -1,-1 -2,0 -1,-1 -6,0 6,1 0,0 3,1 3,3 0,1 1,1 0,1 8,5 -1,1 0,2 -1,1 2,0 1,1 0,3 -1,1 2,0 1,1 0,2 1,0 0,-3 -1,-1 0,-1 -1,-1 0,-1 -1,-1 0,-2 -1,-1 0,-1 -8,-5Z"/>
<path onmouseover="hoverPath(evt)" onmouseout="recoverPath(evt)" fill="rgb(242,241,232)" d="M  128,95l -1,0 0,2 -1,1 0,1 1,1 0,1 1,1 1,1 1,1 0,2 1,1 0,2 -1,1 1,1 0,1 1,1 2,0 1,1 0,1 1,1 0,1 1,1 1,1 0,1 1,1 0,6 1,1 0,2 1,-1 1,0 1,-1 1,0 1,-1 1,0 1,-1 1,0 1,-1 1,0 0,-2 1,-1 2,0 1,1 1,-1 1,0 1,-1 1,0 -1,-1 0,-1 -1,-1 0,-2 1,-1 -1,-1 -1,-1 0,-2 -1,0 -1,-1 -1,-1 -2,0 -1,-1 -1,-1 -1,-1 0,-1 -1,-1 -1,-1 0,-2 1,-1 -1,-1 0,0 -1,-1 -1,-1 0,-1 -1,-1 -1,-1 -1,-1 -2,0 -1,-1 -1,-1 0,-2 -2,0 -1,1 -2,0 0,4 -1,1Z"/>
<path onmouseover="hoverPath(evt)" onmouseout="recoverPath(evt)" fill="rgb(244,243,235)" d="M  161,77l 0,0 -1,-1 -1,1 -1,1 -4,0 1,1 0,0 1,1 1,1 0,1 1,1 1,1 2,0 1,1 1,1 0,1 1,1 1,1 1,1 0,1 1,1 1,1 0,2 -1,1 1,1 0,0 1,1 2,0 1,1 1,0 1,1 0,2 1,1 1,1 0,1 1,1 1,1 0,1 1,1 1,1 0,-2 1,-1 1,0 1,-1 2,0 1,1 1,-1 1,0 1,-1 1,0 1,-1 1,0 1,-1 1,0 0,-2 1,-1 -1,-1 0,-2 -1,-1 0,-1 -1,-1 0,-2 -1,-1 0,-2 -1,-1 0,-2 -1,-1 0,-2 -1,-1 0,-2 -1,-1 0,-1 -1,-1 0,-2 -1,-1 0,-2 -1,-1 0,-2 -1,-1 0,-2 -1,-1 0,-2 -1,-1 0,-1 -1,-1 0,-2 -1,-1 0,-2 -1,-1 0,-2 -1,0 -1,-1 -1,1 -1,0 -1,1 -1,0 0,3 1,1 0,12 -1,1 -2,0 -1,1 -2,0 -1,1 -1,1 0,2 -1,1 -1,1Z"/>
<path onmouseover="hoverPath(evt)" onmouseout="recoverPath(evt)" fill="rgb(240,238,228)" d="M  247,14l 0,0 -1,-1 0,-2 1,-1 1,0 1,-1 1,0 0,-4 1,-1 1,-1 3,0 0,-3 -22,0 0,2 1,1 0,1 1,1 0,1 1,0 1,1 0,1 1,1 0,1 1,1 1,1 4,0 1,1 0,2 -1,1 -1,0 0,2 1,1 2,0 1,-1 0,0 1,-1 0,-1 1,-1 1,-1Z"/>
</svg>