<svg width="256" height="256" xmlns="http://www.w3.org/2000/svg"><script> 
var tempColor;
function hoverPath(evt){
obj = evt.target;
tempColor = obj.getAttribute("fill");
obj.setAttribute("fill","red");
//alert(tempColor);
//obj.setAttribute("stroke","red");}
function recoverPath(evt){
obj = evt.target;
obj.setAttribute("fill", tempColor);
//obj.setAttribute("stroke", tempColor);
}</script><path onmouseover="hoverPath(evt)" onmouseout="recoverPath(evt)" fill="rgb(242,241,235)" d="M  0,48l 0,36 2,0 1,-1 1,0 1,-1 2,0 1,-1 2,0 1,-1 2,0 1,-1 2,0 1,-1 3,0 1,-1 2,0 1,-1 1,0 0,-1 -1,-1 0,-2 -1,-1 0,-2 1,-1 3,0 1,1 0,1 1,1 1,1 1,1 0,1 1,1 4,0 1,-1 1,0 1,-1 1,-1 1,-1 2,0 1,1 0,2 1,0 1,-1 0,-2 1,-1 6,0 0,-3 -1,-1 0,0 -1,-1 0,-1 -1,-1 0,-1 -1,-1 0,-1 -1,-1 0,-1 -1,-1 -1,-1 0,-1 -1,-1 0,-1 -1,-1 -1,-1 0,-1 -1,-1 -1,-1 0,-1 -1,-1 -1,-1 0,-1 -1,-1 -1,-1 0,-1 -1,-1 -1,-1 0,-1 -1,-1 -1,-1 0,-1 -1,-1 -1,-1 0,-1 -1,-1 -1,-1 0,-1 -1,-1 -1,-1 0,-1 -1,-1 -1,-1 0,-1 -1,-1 -1,-1 0,-1 -1,-1 -1,-1 0,-1 -1,-1 -2,0 -1,-1 0,-2 1,-1 1,0 -1,-1 -3,0 -1,-1 0,-3 -1,-1 -1,-1 0,-1 -1,-1 -1,-1 0,-2 -10,0 0,48 11,-9 0,-2 1,-1 2,0 1,1 0,2 -1,1 -2,0 -1,-1 -11,9Z"/>
<path onmouseover="hoverPath(evt)" onmouseout="recoverPath(evt)" fill="rgb(243,241,233)" d="M  9,200l 0,7 -1,1 0,5 1,1 0,7 -1,1 -2,0 0,7 -1,1 0,5 1,1 0,4 1,1 0,3 2,0 1,1 0,2 9,0 -1,-1 0,-3 1,-1 1,0 1,-1 2,0 1,-1 1,-1 1,0 1,-1 1,0 1,-1 2,0 1,1 1,0 1,-1 0,-2 1,-1 1,-1 1,-1 0,-4 1,-1 0,-7 1,-1 0,-5 1,-1 0,-6 1,-1 0,-1 -1,-1 0,-1 -1,0 -1,-1 -1,0 -1,-1 -1,0 -1,-1 -1,-1 -1,-1 0,-1 -1,-1 0,-1 -1,-1 0,-1 -3,0 -1,1 -1,0 -1,1 -4,0 -1,-1 -1,0 -1,1 -2,0 -1,-1 -3,0 -1,-1 -1,1 -1,0 -1,1 1,1 0,1 1,1Z"/>
<path onmouseover="hoverPath(evt)" onmouseout="recoverPath(evt)" fill="rgb(243,242,233)" d="M  114,109l 0,0 -1,-1 -3,0 -1,1 -1,0 0,4 -1,1 0,2 -1,1 0,5 -1,1 0,4 -1,1 0,6 -1,1 0,4 -1,1 0,4 -1,1 0,2 1,1 1,0 1,1 0,6 2,0 1,1 1,0 1,-1 1,0 1,-1 2,0 1,-1 2,0 1,-1 2,0 1,-1 1,0 1,-1 2,0 1,-1 2,0 1,-1 2,0 1,-1 1,0 1,-1 2,0 1,-1 2,0 1,-1 1,0 0,-2 -1,-1 0,-2 -1,-1 0,-1 -1,-1 0,-1 -1,-1 0,-1 -1,-1 0,-1 -1,-1 0,-1 -1,-1 0,-1 -1,-1 0,-1 -1,-1 0,-1 -1,-1 0,-1 -1,-1 0,-1 -1,-1 0,-1 -1,-1 0,-1 -1,-1 0,-1 -1,-1 0,-1 -2,0 -1,-1 0,-2 -3,0 -1,1Z"/>
<path onmouseover="hoverPath(evt)" onmouseout="recoverPath(evt)" fill="rgb(244,243,235)" d="M  187,112l 0,3 -1,1 0,2 1,1 0,1 1,1 1,1 0,1 1,0 1,1 1,0 0,-2 1,-1 2,0 1,1 1,0 1,-1 2,0 1,-1 3,0 0,-2 1,-1 2,0 1,1 1,0 1,-1 3,0 1,-1 2,0 1,-1 2,0 1,-1 1,0 1,-1 2,0 1,-1 2,0 1,-1 2,0 1,-1 2,0 0,-2 -1,-1 0,-2 -1,-1 0,-1 -1,-1 0,-1 -1,-1 0,-2 -1,-1 0,-1 -1,-1 0,-2 -1,-1 0,-1 -1,-1 0,-1 -1,-1 0,-2 -1,-1 0,-1 -1,-1 0,-2 -1,-1 0,-1 -1,-1 0,-1 -1,-1 0,-2 -1,-1 0,-1 -1,-1 0,-1 -1,-1 0,-2 -1,-1 0,-1 -1,-1 0,-1 -2,0 -1,1 -1,0 1,1 0,1 1,1 0,5 -1,1 -1,0 -1,1 -2,0 -1,1 -3,0 -1,1 -3,0 -1,1 -2,0 -1,1 -3,0 -1,1 -2,0 -1,1 -3,0 -1,1 -2,0 -1,1 -3,0 -1,1 -2,0 -1,1 -2,0 -1,1 -2,0 -1,1 -3,0 -1,1 -2,0 -1,1 -2,0 -1,1 -3,0 -1,1 -3,0 -1,1 -3,0 -1,1 -2,0 -1,1 -2,0 -1,1 -3,0 -1,1 -6,0 -1,1 -1,1 0,2 -1,1 -1,0 0,1 1,1 0,1 2,0 1,1 0,1 1,1 0,2 -1,1 1,1 0,1 1,1 0,2 1,1 0,1 1,1 0,1 1,1 0,1 1,1 0,1 1,1 0,1 1,1 0,1 1,1 0,1 1,1 0,1 1,1 0,1 1,1 0,1 1,1 0,1 2,0 1,1 0,2 -1,1 1,1 2,0 1,-1 2,0 0,-2 1,-1 2,0 1,1 1,-1 2,0 1,-1 2,0 1,-1 2,0 0,-2 1,-1 2,0 1,1 1,0 1,-1 1,0 1,-1 2,0 1,-1 1,0 1,-1 1,0 1,-1 2,0 1,-1 1,0 0,-2 -1,-1 0,-1 -1,-1 -1,0 -1,-1 -1,0 -1,1 -3,0 -1,1 -11,0 -1,-1 -1,-1 -1,-1 -1,-1 -1,1 -3,0 -1,-1 0,-2 1,-1 1,0 1,-1 5,0 1,1 1,1 1,1 1,0 1,1 1,-1 2,0 1,-1 0,-1 1,-1 0,-1 1,-1 0,-1 1,-1 -1,-1 0,-6 1,-1 0,-1 1,-1 1,0 1,-1 1,0 1,-1 6,0 1,1 1,1 1,1 0,2 1,1 1,0 2,-2 4,0 1,1 1,1 0,3 1,1 0,2 -1,1 0,1 -1,1 -5,0 -1,-1 -1,-1 -1,-1 -1,1Z"/>
<path onmouseover="hoverPath(evt)" onmouseout="recoverPath(evt)" fill="rgb(248,236,137)" d="M  14,0l -2,0 0,1 1,1 0,0 1,1 0,1 1,1 1,1 0,3 3,0 1,1 1,1 0,2 -1,1 1,0 1,1 0,0 1,1 0,1 1,1 1,1 0,1 1,1 1,1 0,1 1,1 1,1 0,1 1,1 1,1 0,1 1,1 1,1 0,1 1,1 1,1 0,1 1,1 1,1 0,1 1,1 1,1 0,1 1,1 1,1 0,1 1,1 1,1 0,1 1,1 1,1 0,1 1,1 1,1 0,1 1,1 0,1 1,1 1,1 0,1 1,1 0,1 1,1 0,1 1,1 0,1 1,1 1,1 0,5 -1,1 0,1 1,0 1,-1 2,0 1,1 0,1 2,0 1,-1 2,0 1,-1 2,0 0,-2 1,-1 1,0 0,-2 1,-1 3,0 1,1 1,0 0,-2 -2,0 -4,1 -3,0 -1,-1 -1,-1 0,-1 -1,-1 -1,-1 0,-1 -1,-1 0,-1 -1,-1 -1,-1 0,-1 -1,-1 0,-1 -1,-1 -1,-1 0,-1 -1,-1 0,-1 -1,-1 -1,-1 0,-1 -1,-1 -1,-1 0,-1 -1,-1 -1,-1 0,-1 -1,-1 -1,-1 0,-1 -1,-1 -1,-1 0,-1 -1,-1 -1,-1 0,-1 -1,-1 -1,-1 0,-1 -1,-1 -1,-1 0,-1 -1,-1 -1,-1 0,-1 -1,-1 -1,-1 0,-1 -1,-1 -1,-1 0,-1 -1,-1 -1,-1 0,-1 -1,-1 -1,-1 0,-1 -1,0 -1,-1 0,-2 -1,-1 -1,-1 0,-1 -1,-1 0,-2Z"/>
<path onmouseover="hoverPath(evt)" onmouseout="recoverPath(evt)" fill="rgb(243,242,235)" d="M  222,0l -19,0 0,1 1,1 0,1 1,1 0,1 1,1 0,2 1,1 0,1 1,1 0,1 1,1 0,2 1,1 0,1 1,1 0,1 1,1 0,1 2,0 1,-1 2,0 1,-1 2,0 1,-1 3,0 1,-1 2,0 1,-1 2,0 1,-1 3,0 1,-1 2,0 1,-1 3,0 1,-1 2,0 1,-1 2,0 1,-1 3,0 1,-1 3,0 0,-9Z"/>
<path onmouseover="hoverPath(evt)" onmouseout="recoverPath(evt)" fill="rgb(240,240,235)" d="M  49,98l -1,0 0,3 -1,1 0,1 1,0 1,1 0,1 1,1 0,2 1,1 0,1 1,1 2,0 1,1 2,0 1,1 4,0 1,1 5,0 1,1 8,0 1,1 17,0 1,-1 1,0 1,-1 1,0 0,-1 1,-1 1,-1 1,-1 1,0 1,-1 1,-1 1,0 1,-1 1,0 1,-1 4,0 1,-1 1,0 1,-1 2,0 1,-1 2,0 -1,-1 0,-2 -1,-1 0,-1 -1,-1 0,-1 -1,-1 0,-1 -1,-1 -1,-1 0,-1 -1,-1 0,-1 -1,-1 0,-1 -1,-1 0,-1 -1,-1 0,-1 -1,-1 0,-1 -3,0 -1,1 -3,0 -1,1 -3,0 -1,1 -2,0 -1,1 -3,0 -1,1 -2,0 -1,1 -3,0 -1,1 -2,0 -1,1 -3,0 -1,1 -3,0 -1,1 -2,0 -1,1 -6,0 0,1 -1,1 -1,1 -4,0 -1,1 -3,0 -1,1 -3,0 -1,1Z"/>
<path onmouseover="hoverPath(evt)" onmouseout="recoverPath(evt)" fill="rgb(243,241,233)" d="M  166,177l -3,0 0,2 1,1 0,1 1,1 0,1 1,1 0,1 1,1 0,1 1,1 0,1 1,1 0,2 1,1 0,1 1,1 0,1 1,1 0,1 1,1 0,2 -1,1 0,1 1,1 0,1 1,1 0,1 1,1 2,0 1,1 5,0 1,-1 2,0 1,-1 4,0 1,1 1,0 0,-2 1,-1 3,0 1,-1 2,0 1,-1 3,0 1,-1 0,-4 1,-1 0,-1 -1,-1 0,-1 -2,0 -1,-1 0,-1 -1,-1 0,-1 -1,-1 0,-2 -1,-1 0,-2 1,-1 -2,0 -1,-1 0,-2 -1,-1 0,-2 1,-1 0,-1 -1,-1 0,-1 -1,-1 0,-1 -2,0 -1,-1 0,-1 -1,-1 -4,0 -1,-1 -1,1 -2,0 0,2 -1,1 -1,0 -1,1 -3,0 -1,1 -1,0 -1,1 -4,0 -1,-1 -1,0 0,2 -1,1 -1,1Z"/>
<path onmouseover="hoverPath(evt)" onmouseout="recoverPath(evt)" fill="rgb(244,243,236)" d="M  208,241l 0,0 -1,-1 -5,0 0,4 1,1 0,1 2,0 1,1 0,1 1,1 1,1 0,1 1,1 0,3 46,0 0,-13 -32,0 -1,-1Z"/>
<path onmouseover="hoverPath(evt)" onmouseout="recoverPath(evt)" fill="rgb(243,242,233)" d="M  64,179l 0,2 -1,1 -2,0 0,4 -1,1 0,5 -1,1 0,6 -1,1 0,5 -1,1 0,7 -1,1 0,1 1,1 1,0 1,-1 4,0 1,1 1,0 0,-2 1,-1 3,0 1,-1 2,0 1,-1 3,0 1,-1 2,0 1,1 2,0 1,-1 1,0 1,-1 2,0 1,-1 1,0 1,-1 1,0 1,-1 1,0 0,-2 1,-1 2,0 1,1 1,0 1,-1 2,0 1,-1 1,0 1,-1 1,0 0,-2 1,-1 1,0 1,-1 1,0 1,-1 2,0 1,1 1,-1 1,0 1,-1 1,0 1,-1 1,0 1,-1 1,0 -6,2 -2,0 -1,-1 -2,0 -1,-1 0,-1 -1,-1 0,-1 -1,-1 0,-1 -1,-1 -4,0 -1,-1 0,-2 1,-1 1,0 0,-3 -1,-1 0,-1 -1,-1 0,-2 -1,-1 0,-1 -1,-1 0,-1 -1,-1 0,-1 -1,-1 -3,0 -1,1 -2,0 -1,-1 -1,0 -1,1 -2,0 -1,1 -2,0 -1,1 -2,0 0,2 -1,1 -2,0 -1,-1 -1,0 -1,1 -2,0 -1,1 -2,0 0,2 -1,1 -2,0 -1,-1 -1,0 -1,1 1,1Z"/>
<path onmouseover="hoverPath(evt)" onmouseout="recoverPath(evt)" fill="rgb(244,243,237)" d="M  135,83l 0,0 -1,1 -1,1 0,1 -1,1 0,2 1,1 1,-1 2,0 1,-1 3,0 1,-1 2,0 1,-1 3,0 1,-1 2,0 1,-1 3,0 1,-1 2,0 1,-1 3,0 1,-1 3,0 1,-1 3,0 1,-1 4,0 1,-1 1,0 1,-1 2,0 1,-1 1,0 1,-1 2,0 1,-1 3,0 1,-1 3,0 1,-1 3,0 1,-1 3,0 1,-1 3,0 1,-1 1,0 -1,-1 0,-2 -5,0 -1,1 -4,0 -1,1 -4,0 -1,1 -4,0 -1,1 -4,0 -1,1 -3,0 -1,1 -3,0 -1,1 -2,0 -1,1 -2,0 -1,1 -2,0 -1,1 -2,0 -1,1 -2,0 -1,1 -5,0 -1,1 -5,0 -1,1 -2,0 -1,1 -3,0 -1,1 -1,0 -1,1Z"/>
<path onmouseover="hoverPath(evt)" onmouseout="recoverPath(evt)" fill="rgb(243,242,234)" d="M  151,146l -2,0 -1,1 1,1 0,1 1,1 0,1 1,1 0,2 -1,1 -2,0 -1,-1 0,-1 -1,-1 0,-1 -1,-1 -1,-1 -2,0 -1,1 -2,0 -1,1 -2,0 -1,1 -2,0 0,2 -1,1 -2,0 -1,-1 -1,0 -1,1 -2,0 -1,1 -1,0 -1,1 1,1 0,3 -1,1 0,1 1,1 0,1 1,1 0,1 1,1 0,1 1,1 2,0 1,1 0,1 3,0 1,-1 2,0 1,-1 3,0 1,1 2,0 1,-1 2,0 1,-1 0,-2 1,-1 3,0 1,1 4,0 1,1 0,1 1,1 0,1 1,1 0,5 2,0 1,1 0,-2 1,-1 3,0 1,-1 0,-2 1,-1 3,0 1,1 2,0 1,-1 1,0 1,-1 3,0 1,-1 1,0 0,-2 1,-1 2,0 1,-1 1,0 1,-1 2,0 1,-1 1,0 1,-1 4,0 1,1 1,0 0,-2 1,-1 2,0 1,-1 1,0 1,-1 2,0 1,-1 2,0 1,-1 2,0 1,-1 2,0 1,-1 1,0 1,-1 1,0 1,-1 2,0 1,1 2,0 0,-2 1,-1 2,0 1,-1 2,0 1,-1 3,0 1,-1 3,0 1,1 1,0 0,-2 1,-1 3,0 1,-1 1,0 0,-2 -1,-1 0,-1 -1,-1 0,-2 -1,-1 0,-1 -1,-1 0,-2 -1,-1 0,-1 -1,-1 0,-2 -1,-1 0,-1 -1,-1 0,-2 -1,-1 0,-1 -1,-1 0,-1 -1,-1 0,-2 -3,0 0,2 -1,1 -2,0 -1,-1 -1,0 -1,1 -2,0 -1,1 -2,0 -1,1 -2,0 -1,1 -2,0 -1,1 -2,0 -1,1 -2,0 -1,1 -2,0 -1,1 -2,0 -1,1 -2,0 -1,1 -2,0 -1,1 -2,0 -1,1 -1,0 -1,1 -1,0 0,2 -1,1 -3,0 -1,1 -2,0 -1,-1 -1,0 -1,1 -1,0 -1,1 -2,0 0,2 -1,1 -2,0 -1,-1 -1,0 -1,1 -1,0 -1,1 -2,0 0,2 -1,1 -2,0 -1,-1 -1,0 -1,1 -2,0 0,2 -1,1 -2,0 -1,-1 -1,0 -1,1 -1,0 -1,1Z"/>
<path onmouseover="hoverPath(evt)" onmouseout="recoverPath(evt)" fill="rgb(243,241,232)" d="M  0,164l 0,70 3,0 0,-5 1,-1 0,-7 1,-1 2,0 0,-5 -1,-1 0,-7 1,-1 0,-7 -1,-1 0,-1 -1,-1 0,-2 1,-1 1,-1 1,0 1,-1 2,0 1,1 3,0 1,1 0,-4 1,-1 1,0 1,-1 2,0 1,-1 2,0 1,-1 1,0 1,-1 2,0 1,-1 3,0 1,1 2,0 1,-1 0,-2 1,-1 2,0 1,-1 1,0 1,-1 1,0 0,-4 -1,-1 0,-3 -1,-1 0,-3 -1,0 -1,-1 0,-1 -1,0 -1,-1 -1,1 -2,0 -1,-1 0,-2 -2,0 -1,-1 -12,0 -1,1 -11,0 -1,1 -6,0Z"/>
<path onmouseover="hoverPath(evt)" onmouseout="recoverPath(evt)" fill="rgb(242,241,235)" d="M  246,92l 0,0 1,1 1,1 1,0 1,1 1,0 1,1 0,1 1,1 0,1 1,1 0,1 1,0 0,-38 -9,0 -1,-1 -5,0 -1,-1 -5,0 -1,-1 -3,0 -1,1 0,1 1,1 0,1 1,1 0,2 1,1 0,1 1,1 0,2 1,1 0,1 1,1 0,2 1,1 0,1 1,0 1,-1 4,0 1,1 1,0 1,1 1,1 1,1 1,1 1,1 0,5 -1,1 -1,1 -1,1Z"/>
<path onmouseover="hoverPath(evt)" onmouseout="recoverPath(evt)" fill="rgb(241,240,230)" d="M  0,125l 0,32 3,0 1,-1 10,0 1,-1 5,0 -1,-1 0,-1 -1,-1 0,-1 -1,-1 0,-1 -1,-1 0,-1 -1,-1 -1,-1 0,-1 -1,-1 0,-1 -1,-1 0,-1 -1,-1 0,-1 -1,-1 0,-1 -1,-1 -1,-1 0,-1 -2,0 -1,-1 0,-2 1,-1 -1,-1 0,-1 -1,-1 -1,-1 0,-1 -1,-1 0,-1 -1,-1 0,-1 -1,0Z"/>
<path onmouseover="hoverPath(evt)" onmouseout="recoverPath(evt)" fill="rgb(243,242,233)" d="M  0,245l 0,10 95,0 0,-2 1,-1 -2,0 -1,-1 -1,-1 0,-1 -1,-1 0,-1 -1,-1 0,-1 -1,-1 0,-2 -1,-1 0,-1 -1,-1 0,-1 -1,-1 0,-1 -1,-1 0,-1 -2,0 -1,-1 -1,-1 0,-2 1,-1 -1,-1 0,-1 -1,-1 0,-1 -2,0 -1,-1 -1,-1 0,-3 1,-1 -1,-1 0,-5 -2,0 -1,1 -2,0 -1,1 -3,0 0,2 -1,1 -3,0 -1,-1 -2,0 0,2 -1,1 -1,0 0,2 -1,1 -2,0 0,5 -1,1 0,9 -1,1 0,3 -1,1 -1,1 -3,0 -1,-1 0,-15 1,-1 0,-7 1,-1 0,-7 1,-1 0,-6 1,-1 0,-6 1,-1 0,-5 1,-1 0,-6 1,-1 0,-4 -1,1 -2,0 0,2 -1,1 -3,0 -1,-1 0,-1 -1,1 -4,0 -1,-1 -1,0 0,2 -1,1 -1,1 -4,0 -1,-1 -1,0 -1,1 -2,0 -1,1 -1,0 -1,1 -2,0 -1,1 -2,0 -1,1 -1,0 0,2 2,0 1,1 2,0 1,-1 1,0 1,-1 5,0 1,1 0,1 1,1 0,1 1,1 0,1 1,1 1,1 1,-1 2,0 1,1 0,2 1,0 1,1 0,1 1,1 0,3 -1,1 0,6 -1,1 0,5 -1,1 0,7 -1,1 0,4 -1,1 -1,1 -1,1 0,2 -1,1 -1,1 -3,0 -1,-1 -1,1 -1,0 -1,1 -1,0 -2,2 -2,0 -1,1 -1,0 0,1 1,1 0,2 -1,1 -11,0 -1,-1 0,-2 -2,0 -1,-1 0,-3 -1,-1 0,-4 -1,-1 -3,0Z"/>
<path onmouseover="hoverPath(evt)" onmouseout="recoverPath(evt)" fill="rgb(240,239,227)" d="M  60,157l -7,0 -1,1 -10,0 0,1 1,0 1,1 1,1 1,1 0,1 1,1 0,2 1,1 0,4 1,1 0,2 3,0 1,1 1,0 1,-1 1,0 1,-1 2,0 1,-1 3,0 1,-1 2,0 1,-1 1,0 1,-1 2,0 1,-1 2,0 1,-1 2,0 1,-1 2,0 1,-1 1,0 1,-1 2,0 1,-1 2,0 1,-1 1,0 1,-1 2,0 1,-1 2,0 1,-1 2,0 1,-1 2,0 1,-1 2,0 -3,-1 0,-6 -1,0 -1,-1 0,1 -1,1 0,0 -1,1 -2,0 0,2 -1,1 -10,0 -1,1 -16,0 -1,1Z"/>
<path onmouseover="hoverPath(evt)" onmouseout="recoverPath(evt)" fill="rgb(242,221,122)" d="M  92,60l -2,0 -1,1 -2,0 -1,1 -2,0 -1,1 -3,0 -1,1 -2,0 0,4 -1,1 -3,0 -1,-1 -1,0 0,2 -1,1 1,0 1,-1 2,0 3,-1 1,-1 3,0 1,-1 2,0 1,-1 3,0 1,-1 2,0 1,-1 2,0 1,-1 3,0 1,-1 2,0 1,-1 3,0 1,-1 2,0 0,-2 1,-1 3,0 1,1 2,0 0,-2 1,-1 3,0 1,1 2,0 1,-1 2,0 0,-2 1,-1 3,0 1,1 2,0 0,-2 1,-1 3,0 1,1 2,0 1,-1 2,0 1,-1 2,0 1,-1 2,0 1,-1 3,0 1,-1 3,0 1,-1 2,0 1,-1 3,0 1,-1 2,0 0,-2 1,-1 3,0 1,1 2,0 1,-1 2,0 1,-1 3,0 1,-1 0,-1 1,-1 2,0 1,1 2,0 1,-1 2,0 0,-2 1,-1 3,0 1,1 2,0 1,-1 0,-1 1,-1 2,0 1,1 1,0 1,-1 2,0 1,-1 3,0 1,-1 0,-1 1,-1 2,0 1,1 2,0 1,-1 2,0 1,-1 2,0 1,-1 3,0 1,-1 0,-1 1,-1 2,0 1,1 1,0 1,-1 3,0 1,-1 2,0 1,-1 3,0 1,-1 2,0 0,-2 1,-1 3,0 1,1 3,0 0,-6 -2,0 -1,1 -3,0 -1,1 -2,0 -1,1 -2,0 -1,1 -3,0 -1,1 -2,0 -1,1 -3,0 -1,1 -2,0 -1,1 -2,0 -1,1 -3,0 -1,1 -2,0 -1,1 -2,0 -1,1 -4,0 -1,-1 0,-1 -1,-1 0,-1 -1,-1 0,-1 -1,-1 0,-2 -1,-1 0,-1 -1,-1 0,-1 -1,-1 0,-2 -1,-1 0,-1 -1,-1 0,-1 -1,-1 0,-2 -10,0 0,3 1,1 0,1 1,1 0,1 1,1 0,2 1,1 0,1 1,1 0,2 1,1 0,1 1,1 0,1 1,1 0,2 1,1 0,3 -1,1 -1,1 -2,0 -1,1 -2,0 -1,1 -3,0 -1,1 -2,0 -1,1 -2,0 -1,1 -3,0 -1,1 -2,0 -1,1 -2,0 -1,1 -3,0 -1,1 -2,0 -1,1 -3,0 -1,1 -2,0 -1,1 -2,0 -1,1 -3,0 -1,1 -2,0 -1,1 -2,0 -1,1 -3,0 -1,1 -2,0 -1,1 -2,0 -1,1 -3,0 -1,1 -2,0 -1,1 -3,0 0,1 -1,1 -1,0 -1,1 -7,0 -1,1 -2,0 -1,1 -2,0 -1,1 -2,0 -1,1 -3,0 -1,1 -2,0 -1,1 -2,0 -1,1 -2,0 -1,1Z"/>
<path onmouseover="hoverPath(evt)" onmouseout="recoverPath(evt)" fill="rgb(244,243,236)" d="M  142,42l 2,0 1,-1 2,0 1,-1 2,0 1,-1 3,0 1,-1 2,0 1,-1 2,0 1,-1 3,0 1,-1 2,0 1,-1 3,0 1,-1 2,0 1,-1 2,0 1,-1 3,0 1,-1 2,0 1,-1 2,0 1,-1 3,0 1,-1 2,0 1,-1 2,0 1,-1 0,-1 -1,-1 0,-2 -1,-1 0,-1 -1,-1 0,-1 -1,-1 0,-2 -1,-1 0,-1 -1,-1 0,-2 -1,-1 0,-1 -1,-1 0,-1 -1,-1 0,-4 -163,0 0,1 1,1 0,1 1,1 1,1 0,2 1,0 1,1 0,1 1,1 1,1 0,1 1,1 1,1 0,1 1,1 1,1 0,1 1,1 1,1 0,1 1,1 1,1 0,1 1,1 1,1 0,1 1,1 1,1 0,1 1,1 1,1 0,1 1,1 1,1 0,1 1,1 1,1 0,1 1,1 1,1 0,1 1,1 1,1 0,1 1,1 1,1 0,1 1,1 0,1 1,1 1,1 0,1 1,1 0,1 1,1 1,1 0,1 1,1 0,1 1,1 1,1 0,1 1,1 4,0 1,-1 3,0 1,-1 2,0 1,-1 3,0 1,-1 2,0 1,-1 2,0 1,-1 2,0 1,-1 2,0 1,-1 2,0 1,-1 2,0 1,-1 3,0 1,-1 2,0 1,-1 2,0 1,-1 2,0 1,-1 7,0 1,-1 1,0 0,-1 1,-1 3,0 1,-1 2,0 1,-1 3,0 1,-1 2,0 1,-1 2,0 1,-1Z"/>
<path onmouseover="hoverPath(evt)" onmouseout="recoverPath(evt)" fill="rgb(244,242,234)" d="M  103,255l 13,0 0,-1 1,-1 0,-1 1,-1 1,-1 1,-1 1,-1 1,-1 1,-1 1,-1 1,-1 1,0 1,-1 1,-1 1,-1 1,0 2,-2 1,-1 1,0 1,-1 1,0 1,-1 1,0 1,-1 1,0 1,-1 1,-1 1,0 1,-1 1,0 1,-1 2,0 1,-1 1,0 1,-1 1,0 1,-1 2,0 1,-1 3,0 1,-1 3,0 1,-1 4,0 1,-1 5,0 1,-1 4,0 1,-1 56,0 1,-1 18,0 0,-65 -2,0 -1,-1 0,-1 -1,-1 0,-1 -1,-1 0,-1 -1,-1 0,-1 -3,0 -1,-1 -2,0 0,2 -1,1 -3,0 -1,-1 -1,0 -1,1 -3,0 -1,1 -2,0 -1,1 -2,0 0,2 -1,1 -4,0 -1,-1 -1,1 -1,0 -1,1 -1,0 -1,1 3,0 1,1 0,1 1,1 0,1 2,0 1,1 0,1 1,1 0,2 -1,1 0,1 1,1 0,1 1,1 0,1 2,0 1,1 0,2 -1,1 0,1 1,1 0,1 1,1 0,1 2,0 1,1 0,1 1,1 0,2 -1,1 0,1 1,1 0,5 -1,1 -1,1 -1,0 0,2 -1,1 -1,1 -2,0 -1,1 -4,0 -1,-1 -1,0 -1,1 -3,0 -1,1 -6,0 -1,-1 -1,-1 0,3 -1,1 -1,1 -3,0 -1,1 -2,0 -1,1 -3,0 0,2 -1,1 -3,0 -1,-1 -2,0 -1,1 -2,0 -1,1 -7,0 -1,-1 -2,0 -1,-1 -1,-1 0,-1 -1,-1 0,-1 -1,-1 0,-2 -1,-1 0,-1 -1,-1 0,-2 1,-1 -1,-1 0,-1 -1,-1 0,-2 -1,-1 0,-1 -1,-1 0,-1 -1,-1 0,-1 -1,-1 0,-1 -2,0 -1,-1 0,-1 -1,-1 0,-1 -2,0 -1,-1 0,-5 -1,-1 0,-1 -1,-1 0,-1 -4,0 -1,-1 -1,0 0,2 -1,1 -1,1 -2,0 -1,1 -4,0 -1,-1 -1,0 -1,1 -2,0 -1,1 -5,0 -1,-1 0,-1 -2,0 -2,-2 0,-1 -1,-1 0,-1 -1,-1 0,-1 -1,-1 0,-2 -2,-2 0,-2 -1,0 -1,1 -2,0 -1,1 -2,0 -1,1 -2,0 -1,1 -1,0 -1,1 -2,0 -1,1 -1,0 0,3 1,1 0,1 1,1 0,1 1,1 0,2 -1,1 0,1 1,1 0,1 1,1 0,5 -1,1 3,0 1,1 2,0 1,1 0,1 1,1 0,1 1,1 0,1 1,1 2,0 1,-1 1,0 1,-1 3,0 1,1 3,0 1,1 0,2 1,1 0,1 1,1 0,1 1,1 0,1 1,1 0,1 1,1 0,1 2,0 1,1 0,1 1,1 0,1 1,1 0,1 1,1 0,2 -1,1 0,1 1,1 0,1 1,1 0,1 1,1 0,1 1,1 0,3 -1,1 -1,0 -1,1 0,2 -1,1 -1,1 -1,0 -1,1 -2,0 -1,-1 -1,1 -1,0 -1,1 0,2 -1,1 -2,0 -1,-1 -1,1 -1,0 -1,1 0,2 -1,1 -1,0 -1,1 -1,1 -1,0 -1,1 -1,0 -2,2 -1,0 -1,1 -1,0 -1,1 -1,1 -1,0 -1,1 -2,0 -1,-1 -1,1 -1,0 -1,1 0,2 -1,1 -1,0 0,1 6,0 9,-69 -1,0 -1,-1 0,-2 1,-1 2,0 1,1 0,2 -1,1 -1,0 -9,69 42,-75 2,0 1,1 0,2 -1,1 -2,0 -1,-1 0,-2 1,-1 -42,75 35,-72 2,0 1,1 0,2 -1,1 -2,0 -1,-1 0,-2 1,-1 -35,72Z"/>
<path onmouseover="hoverPath(evt)" onmouseout="recoverPath(evt)" fill="rgb(244,243,236)" d="M  119,78l -2,0 0,1 1,1 0,1 1,1 0,1 1,1 0,1 1,1 0,1 1,1 0,1 1,1 0,2 -1,1 1,1 0,-1 1,-3 0,-2 1,-1 0,-4 1,-1 0,-2 1,-1 0,-1 1,-1 2,0 1,-1 4,0 1,-1 4,0 1,-1 3,0 1,-1 3,0 1,-1 3,0 1,-1 3,0 1,-1 3,0 1,-1 2,0 1,-1 3,0 1,-1 2,0 1,-1 3,0 1,-1 2,0 1,-1 3,0 1,-1 4,0 1,-1 5,0 1,-1 5,0 1,-1 6,0 1,-1 4,0 1,-1 1,0 -1,-1 0,-2 -1,-1 0,-1 -1,-1 0,-2 -1,-1 -2,0 -1,1 -3,0 -1,1 -2,0 -1,1 -3,0 -1,1 -2,0 -1,1 -3,0 -1,1 -2,0 -1,1 -2,0 -1,1 -2,0 -1,1 -1,0 -1,1 -2,0 -1,1 -1,0 -1,1 -2,0 -1,1 -2,0 -1,1 -1,0 -1,1 -2,0 -1,1 -2,0 -1,1 -2,0 -1,1 -2,0 -1,1 -2,0 -1,1 -2,0 -1,1 -2,0 -1,1 -3,0 -1,1 -2,0 -1,1 -2,0 -1,1 -2,0 -1,1 -2,0 -1,1 -3,0 -1,1 -2,0 -1,1Z"/>
<path onmouseover="hoverPath(evt)" onmouseout="recoverPath(evt)" fill="rgb(244,243,236)" d="M  147,254l 0,1 60,0 0,-2 -1,-1 0,-1 -1,-1 -1,-1 0,-1 -2,0 -1,-1 0,-1 -1,-1 0,-5 -19,0 -1,1 -4,0 -1,1 -3,0 -1,1 -2,0 -1,1 -1,0 -1,1 -2,0 -1,1 -2,0 -1,1 -1,0 -1,1 -1,0 -1,1 -1,0 -1,1 -1,0 -1,1 -1,0 -1,1 -1,1 -1,0 -1,1Z"/>
<path onmouseover="hoverPath(evt)" onmouseout="recoverPath(evt)" fill="rgb(171,198,237)" d="M  155,86l -3,0 -1,1 -2,0 -1,1 -3,0 -1,1 -2,0 -1,1 -3,0 -1,1 -2,0 -1,1 -2,0 -1,-1 -1,-1 0,-4 1,-1 0,-1 2,-2 1,-1 1,-1 1,0 1,-1 3,0 1,-1 2,0 1,-1 5,0 1,-1 5,0 1,-1 2,0 1,-1 2,0 1,-1 2,0 1,-1 2,0 1,-1 2,0 1,-1 3,0 1,-1 3,0 1,-1 4,0 1,-1 4,0 1,-1 4,0 1,-1 4,0 1,-1 7,0 1,1 0,2 1,1 0,2 -1,1 -1,0 -1,1 -3,0 -1,1 -3,0 -1,1 -3,0 -1,1 -3,0 -1,1 -3,0 -1,1 -2,0 -1,1 -1,0 -1,1 -2,0 -1,1 -1,0 -1,1 -4,0 -1,1 -3,0 -1,1 -3,0 -1,1 -3,0 -1,1 -2,0 -1,1 9,-2 3,0 1,-1 2,0 1,-1 2,0 -6,1 0,0 9,-2 2,-1 2,0 1,-1 2,0 1,-1 3,0 1,-1 2,0 1,-1 3,0 1,-1 2,0 1,-1 3,0 1,-1 3,0 1,-1 2,0 1,-1 1,0 0,-3 -1,-1 0,-1 -1,-1 0,-2 1,-1 1,0 1,-1 3,0 0,-1 -2,0 -2,1 -3,0 -1,1 -6,0 -1,1 -5,0 -1,1 -5,0 -1,1 -4,0 -1,1 -3,0 -1,1 -2,0 -1,1 -3,0 -1,1 -2,0 -1,1 -3,0 -1,1 -2,0 -1,1 -3,0 -1,1 -3,0 -1,1 -3,0 -1,1 -3,0 -1,1 -3,0 -1,1 -4,0 -1,1 -4,0 -1,1 -2,0 0,1 -1,1 0,2 -1,1 0,4 -1,1 0,2 -1,1 0,3 -1,1 1,1 0,1 1,0 0,-2 1,-1 1,-1 1,-1 6,0 1,-1 3,0 1,-1 2,0 1,-1 2,0 1,-1 3,0 1,-1 3,0 1,-1 3,0 7,-3 -9,2Z"/>
<path onmouseover="hoverPath(evt)" onmouseout="recoverPath(evt)" fill="rgb(247,235,137)" d="M  210,48l 1,1 0,2 1,1 0,1 1,1 0,2 1,1 0,1 1,0 1,1 0,4 1,1 0,1 1,1 0,2 1,1 0,1 1,1 0,1 1,1 0,2 1,1 0,1 1,1 0,1 1,1 0,2 1,1 0,1 1,1 0,2 1,1 0,1 1,1 0,1 1,1 0,2 1,1 0,1 1,1 0,2 1,1 0,1 1,1 0,1 1,1 0,2 1,1 0,2 1,0 1,1 1,1 0,5 1,1 0,1 1,1 0,1 1,1 0,2 1,1 0,1 1,1 0,2 1,1 0,1 1,1 0,2 1,1 0,1 1,1 0,2 1,1 0,1 1,1 0,4 -1,1 2,0 1,1 0,1 1,1 0,1 1,1 0,1 1,1 0,1 1,0 0,-25 -2,0 -1,-1 0,-1 -1,-1 0,-2 1,-1 0,-1 -1,-1 0,-1 -1,-1 0,-2 -1,-1 0,-1 -1,-1 0,-3 -1,0 -1,-1 0,-3 -1,-1 0,-1 -2,0 -1,-1 0,-2 -1,-1 0,-2 1,-1 1,0 0,-1 -1,-1 0,-1 -1,-1 0,-3 -1,-1 0,-1 -1,-1 0,-1 -1,-1 0,-1 -1,-1 0,-3 -2,0 -1,-1 0,-1 -1,-1 0,-2 -1,-1 0,-1 -1,-1 0,-2 -1,-1 0,-1 -1,-1 0,-2 -1,-1 0,-1 -1,-1 0,-2 -1,0 -1,-1 -1,-1 0,-2 1,-1 -1,-1 0,-1 -1,-1 0,-1 -1,-1 0,-2 -1,-1 0,-3 -2,0 -1,-1 -1,0 -1,-1 -1,-1 -1,0 -1,1 -3,0 -1,1 -2,0 -1,1 -3,0 -1,1 -2,0 -1,1 -2,0 0,1 -1,1 -1,1 -3,0 -1,1 -2,0 -1,1 -2,0 -1,1 -4,0 -1,-1 -1,1 -3,0 -1,1 -2,0 -1,1 -2,0 -1,1 -3,0 0,2 -1,1 -1,0 0,2 1,-1 2,0 1,-1 2,0 1,-1 1,0 1,-1 2,0 1,-1 1,0 1,-1 2,0 1,-1 2,0 -3,-1 0,0 30,-5 -24,5 0,0 3,-1 1,0 2,-1 1,0 3,-1 1,0 1,-1 2,0 1,-1 3,0 1,-1 4,0 -23,6 24,-5Z"/>
<path onmouseover="hoverPath(evt)" onmouseout="recoverPath(evt)" fill="rgb(192,209,232)" d="M  244,94l 0,1 1,1 0,3 -1,1 0,3 2,0 1,1 0,1 1,1 0,3 1,0 1,1 0,3 1,1 0,1 1,1 0,2 1,1 0,1 1,1 0,3 -1,1 1,1 0,1 1,0 0,-24 -2,0 -1,-1 0,-1 -1,-1 0,-1 -1,-1 0,-1 -1,0 -1,-1 -1,0 -1,-1 -1,-1 -1,0 -1,-1 1,-1 0,-1 1,-1 1,-1 1,-1 0,-3 -1,-1 0,0 -1,-1 -1,-1 -1,-1 -1,0 -1,-1 -2,0 0,3 1,1 0,1 1,1 0,1 1,1 0,1 1,1 0,3 1,1Z"/>
<path onmouseover="hoverPath(evt)" onmouseout="recoverPath(evt)" fill="rgb(251,203,109)" d="M  0,95l 0,9 2,0 1,1 1,0 0,-2 1,-1 2,0 1,-1 2,0 1,-1 2,0 1,-1 2,0 1,-1 2,0 1,-1 2,0 1,-1 3,0 1,-1 2,0 1,-1 3,0 1,1 0,1 1,-1 2,0 1,-1 0,-2 1,-1 2,0 1,-1 4,0 1,1 0,1 1,-1 0,-2 1,-1 2,0 1,-1 2,0 1,-1 4,0 1,1 1,0 0,-2 1,-1 2,0 1,-1 3,0 1,-1 2,0 1,-1 2,0 1,-1 2,0 1,-1 3,0 1,-1 2,0 1,-1 3,0 1,-1 2,0 1,-1 4,0 1,1 0,-1 1,-1 1,-1 3,0 1,-1 2,0 1,-1 3,0 1,-1 2,0 1,-1 4,0 1,1 1,0 0,-2 1,-1 4,0 1,1 1,0 0,-2 1,-1 2,0 1,-1 3,0 1,-1 2,0 1,-1 3,0 1,-1 2,0 1,-1 3,0 1,-1 3,0 1,-1 2,0 1,-1 2,0 1,-1 4,0 1,1 1,0 0,-2 1,-1 3,0 1,-1 2,0 1,-1 2,0 1,-1 3,0 1,-1 2,0 1,1 2,0 1,-1 2,0 1,-1 2,0 1,-1 3,0 1,-1 0,-1 1,-1 2,0 1,-1 2,0 1,-1 3,0 1,-1 2,0 1,-1 3,0 1,-1 3,0 1,1 1,1 1,0 1,1 1,0 1,-1 2,0 1,-1 2,0 1,-1 2,0 1,-1 2,0 1,-1 2,0 1,-1 2,0 1,-1 3,0 1,-1 2,0 1,-1 2,0 1,-1 2,0 1,-1 2,0 0,-13 -4,0 -1,-1 -1,0 0,2 -1,1 -2,0 -1,1 -3,0 -1,1 -2,0 -1,1 -3,0 -1,1 -3,0 -1,-1 0,1 -1,1 -1,1 -3,0 -1,1 -2,0 -1,1 -2,0 -1,1 -4,0 -1,-1 0,1 -1,1 -1,1 -3,0 -1,1 -2,0 -1,1 -3,0 -1,-1 0,1 -1,1 -1,1 -4,0 -1,-1 -1,0 0,2 -1,1 -2,0 -1,1 -4,0 -1,-1 0,1 -1,1 0,0 -1,1 -3,0 -1,1 -2,0 -1,1 -4,0 -1,-1 -1,0 0,2 -1,1 -2,0 -1,1 -3,0 -1,1 -2,0 -1,1 -3,0 -1,1 -3,0 -1,1 -2,0 -1,1 -2,0 -1,1 -2,0 -1,1 -4,0 -1,-1 -1,0 0,2 -1,1 -4,0 -1,-1 -1,0 0,2 -1,1 -2,0 -1,1 -4,0 -1,-1 -1,0 0,2 -1,1 -4,0 -1,-1 -1,0 0,2 -1,1 -2,0 -1,1 -3,0 -1,1 -2,0 -1,1 -3,0 -1,1 -2,0 -1,1 -2,0 -1,1 -3,0 -1,1 -2,0 -1,1 -3,0 -1,1 -2,0 -1,1 -2,0 -1,1 -3,0 -1,1 -2,0 -1,1 -2,0 -1,1 -4,0 -1,-1 0,-1 -1,1 0,2 -1,1 -2,0 -1,1 -3,0 -1,1 -2,0 -1,1 -2,0 -1,1 -2,0 -1,1 -2,0 -1,1 -3,0 -1,1 -2,0 -1,1 -2,0 -1,1 -2,0 -1,1 -3,0 -1,1 -3,0 -1,-1 -3,0 -1,1 0,2 -1,1 -2,0 -1,1 -2,0 -1,1 -2,0 -1,-1 -1,0Z"/>
<path onmouseover="hoverPath(evt)" onmouseout="recoverPath(evt)" fill="rgb(252,252,250)" d="M  1,159l -1,0 0,1 5,0 1,-1 11,0 1,-1 14,0 1,1 2,0 1,1 0,2 1,-1 2,0 1,1 1,0 1,1 0,1 1,0 1,1 0,3 1,1 0,3 1,1 0,6 -1,1 -1,0 -1,1 1,0 2,-1 1,0 1,1 0,1 1,0 0,-2 1,-1 2,0 1,-1 2,0 1,1 0,6 -1,1 0,6 -1,1 0,5 -1,1 0,6 -1,1 0,6 -1,1 0,7 -1,1 0,7 -1,1 0,13 1,0 1,-1 0,-3 1,-1 0,-9 1,-1 0,-5 1,-1 2,0 0,-2 1,-1 -1,0 -1,-1 0,0 -1,-1 0,-3 1,-1 0,-7 1,-1 0,-5 1,-1 0,-6 1,-1 0,-5 1,-1 0,-4 1,-1 2,0 -1,-1 0,-2 1,-1 1,-1 3,0 1,1 0,-2 1,-1 2,0 1,-1 2,0 1,-1 3,0 1,1 0,-2 1,-1 2,0 1,-1 2,0 1,-1 2,0 1,-1 3,0 1,1 1,-1 5,0 1,1 0,-4 1,-1 1,0 1,-1 2,0 1,-1 1,0 1,-1 2,0 1,-1 2,0 1,-1 2,0 1,-1 3,0 1,1 0,2 1,1 0,-1 -1,-3 2,-2 1,0 1,-1 2,0 1,-1 3,0 1,1 0,-2 1,-1 2,0 1,-1 2,0 1,-1 2,0 1,-1 4,0 1,1 1,1 -1,-2 0,-1 1,-1 1,-1 2,0 1,-1 1,0 1,-1 3,0 1,1 0,-2 1,-1 2,0 1,-1 3,0 1,1 0,-2 1,-1 2,0 1,-1 1,0 1,-1 3,0 1,1 0,-2 1,-1 2,0 1,-1 1,0 1,-1 3,0 1,1 1,-1 3,0 0,-2 1,-1 1,0 1,-1 1,0 1,-1 2,0 1,-1 2,0 1,-1 2,0 1,-1 2,0 1,-1 2,0 1,-1 2,0 1,-1 2,0 1,-1 2,0 1,-1 2,0 1,-1 2,0 1,-1 2,0 1,-1 3,0 1,1 0,-2 1,-1 4,0 0,-1 -1,-1 0,0 -1,1 -2,0 -1,1 -2,0 -1,1 -2,0 -1,1 -2,0 -1,1 -1,0 -1,1 -2,0 -1,1 -2,0 -1,1 -3,0 -1,1 -3,0 -1,-1 0,2 -1,1 -3,0 -1,1 -2,0 -1,1 -3,0 -1,-1 0,2 -1,1 -2,0 -1,1 -3,0 -1,1 -1,0 -1,1 -1,0 -1,1 -2,0 -1,1 -1,0 -1,1 -1,0 -1,1 -2,0 -1,1 -1,0 -1,1 -3,0 -1,-1 0,2 -1,1 -2,0 -1,1 -2,0 -1,1 -2,0 -1,1 -2,0 -1,-1 0,2 -1,1 -2,0 -1,1 -4,0 -1,-1 -1,-1 0,-2 1,-1 -2,0 -1,-1 0,-1 -1,-1 0,-1 -1,-1 0,-1 -1,-1 0,-1 -1,-1 0,-1 -1,-1 0,-1 -1,-1 0,-1 -1,-1 0,-1 -1,-1 0,-1 -1,-1 0,-1 -1,-1 0,-1 -1,-1 0,-2 -1,-1 0,-1 -1,-1 0,-2 1,-1 -1,-1 0,-1 -2,0 -1,-1 0,-1 -1,-1 0,-2 -1,-1 0,-1 -1,-1 0,-1 -1,-1 -1,-1 0,-2 1,-1 -1,-1 0,-1 -1,-1 0,-1 -1,-1 0,-1 -1,-1 0,-1 -1,-1 0,-1 -2,0 -1,-1 0,-1 -2,0 1,1 0,1 1,1 0,1 1,1 0,1 1,1 0,1 1,1 0,1 1,1 0,1 1,1 1,1 0,1 1,1 0,1 1,1 0,1 1,1 0,2 1,1 0,2 -1,1 -2,0 -1,1 -2,0 -1,1 1,0 3,-1 3,0 1,1 0,2 2,0 1,1 0,1 1,1 0,1 1,1 0,1 1,1 0,1 1,1 0,1 1,1 0,1 1,1 0,1 1,1 0,1 1,1 0,1 1,1 0,1 1,1 0,1 1,1 0,1 1,1 0,1 1,1 0,1 1,1 0,2 1,1 0,4 -1,1 -1,0 -1,1 -2,0 -1,1 -2,0 -1,1 -1,0 -1,1 -2,0 -1,1 -2,0 -1,1 -2,0 -1,1 -1,0 -1,1 -2,0 -1,1 -2,0 -1,1 -2,0 -1,1 -1,0 -1,1 -2,0 -1,1 -2,0 -1,1 -2,0 -1,1 -2,0 -1,1 -2,0 -1,1 -2,0 -1,1 -1,0 -1,1 -2,0 -1,1 -2,0 -1,1 -1,0 -1,1 -2,0 -1,1 -2,0 -1,1 -2,0 -1,1 -2,0 -1,1 -1,0 -1,1 -2,0 -1,1 -3,0 -1,1 -2,0 -1,1 -1,0 -1,1 -3,0 -1,-1 -3,0 -1,-1 0,-2 -1,-1 0,-4 -1,-1 0,-2 -1,-1 0,-1 -1,-1 -1,-1 -1,0 -1,-1 0,-3 1,-1 10,0 1,-1 14,0 1,-1 16,0 1,-1 -3,0 -15,1 -15,1 -1,0 -10,1 -15,0 -1,-1 -1,-1 0,-2 1,-1 -2,0 -1,-1 -1,-1 0,-1 -1,-1 0,-1 -1,-1 0,-2 1,-1 -2,0 -1,-1 0,-1 -1,-1 -1,-1 0,-1 -1,-1 0,-2 1,-1 -1,-1 0,-1 -2,0 -1,-1 -1,-1 0,-1 -1,-1 0,-1 -1,-1 0,-2 1,-1 -2,0 -1,-1 0,-1 -1,-1 -1,-1 0,-1 -1,-1 0,-2 1,-1 -3,0 0,5 2,0 1,1 0,1 1,1 0,1 1,1 0,1 1,1 1,1 0,1 1,1 0,2 -1,1 2,0 1,1 0,1 1,1 1,1 0,1 1,1 0,1 1,1 0,1 1,1 0,1 1,1 0,1 1,1 1,1 0,1 1,1 0,1 1,1 0,1 1,1 0,1 1,1 0,2 -1,1 -5,0 -1,1 -10,0 -1,1Z"/>
<path onmouseover="hoverPath(evt)" onmouseout="recoverPath(evt)" fill="rgb(244,243,235)" d="M  5,111l -1,0 1,1 0,2 -1,1 1,1 0,1 1,1 1,1 0,1 2,0 1,1 0,2 -1,1 1,1 0,1 1,1 0,1 1,1 2,0 1,1 0,1 1,1 0,2 -1,1 1,1 0,1 1,1 1,1 0,1 2,0 1,1 0,2 -1,1 1,1 0,1 1,1 0,1 1,1 2,0 1,1 0,2 -1,1 1,1 22,0 1,-1 15,0 1,-1 14,0 1,-1 14,0 1,-1 2,0 1,-1 0,-1 1,-1 0,-3 1,-1 0,-4 1,-1 0,-4 1,-1 0,-6 1,-1 0,-4 1,-1 0,-5 1,-1 0,-2 1,-1 0,-2 -1,1 0,0 -1,1 -1,0 -1,1 -1,1 0,1 -1,1 -1,0 -1,1 -1,0 -1,1 -19,0 -1,-1 -8,0 -1,-1 -5,0 -1,-1 -4,0 -1,-1 -2,0 -1,-1 -2,0 -1,-1 -1,-1 0,-1 -1,-1 0,-2 -1,-1 0,-1 -1,0 -1,-1 0,-2 -1,0 -1,-1 -1,-1 -2,0 -1,1 -3,0 -1,1 -2,0 -1,1 -2,0 -1,1 -3,0 -1,1 -2,0 -1,1 -2,0 -1,1 -3,0 -1,1 -2,0 -1,1 -3,0 -1,1 -2,0 -1,1Z"/>
<path onmouseover="hoverPath(evt)" onmouseout="recoverPath(evt)" fill="rgb(217,205,152)" d="M  34,77l -3,0 -1,-1 -1,-1 0,-1 -1,-1 -1,-1 -1,-1 0,-1 -1,0 1,2 0,1 1,1 0,3 -1,1 -1,0 -1,1 -2,0 -1,1 -3,0 -1,1 -2,0 -1,1 -2,0 -1,1 -2,0 -1,1 -2,0 -1,1 -1,0 -1,1 -3,0 0,5 2,0 1,1 1,-1 2,0 1,-1 2,0 0,-2 1,-1 1,-1 5,0 1,1 1,0 1,-1 3,0 1,-1 2,0 1,-1 2,0 1,-1 2,0 1,-1 3,0 1,-1 2,0 1,-1 2,0 1,-1 2,0 1,-1 2,0 1,-1 3,0 1,-1 2,0 0,-1 -1,0 -1,-1 0,-2 -4,0 0,2 -1,1 -1,1 -3,0 -1,-1 0,-2 -1,1 -1,1 -1,1 -1,0 -1,1Z"/>
<path onmouseover="hoverPath(evt)" onmouseout="recoverPath(evt)" fill="rgb(243,242,234)" d="M  79,213l 0,0 -1,-1 0,5 1,1 0,2 -1,1 0,1 1,1 2,0 1,1 0,1 1,1 0,1 1,1 0,2 -1,1 1,1 2,0 1,1 0,1 1,1 0,1 1,1 0,1 1,1 0,1 1,1 0,2 1,1 0,1 1,1 0,1 1,1 0,1 1,1 2,0 1,-1 0,0 1,-1 1,0 1,-1 1,0 1,-1 2,0 1,1 1,-1 0,-2 1,-1 2,0 1,1 1,-1 0,-2 1,-1 2,0 1,1 1,-1 0,-2 1,-1 1,0 1,-1 1,-1 1,0 1,-1 1,0 1,-1 1,0 1,-1 1,-1 1,0 1,-1 1,0 1,-1 1,0 1,-1 1,-1 1,0 1,-1 1,-1 1,0 0,-1 -1,-1 0,-1 -1,-1 0,-1 -1,-1 0,-1 -1,-1 0,-2 -1,-1 0,-1 -1,-1 0,-2 1,-1 -1,-1 0,-1 -2,0 -1,-1 0,-1 -1,-1 0,-1 -1,-1 0,-1 -1,-1 0,-1 -1,-1 0,-1 -1,-1 0,-2 -2,0 -1,1 -1,0 -1,1 -1,0 -1,1 -1,0 -1,1 -1,0 -1,1 -2,0 -1,-1 -1,1 -1,0 -1,1 -1,0 0,2 -1,1 -1,0 -1,1 -1,0 -1,1 -2,0 -1,1 -2,0 -1,1 -1,0 -1,1 -1,0 -1,1 -1,0 -1,1 -1,0 -1,1 -2,0 -1,1 -1,0 -1,1Z"/>
<path onmouseover="hoverPath(evt)" onmouseout="recoverPath(evt)" fill="rgb(171,198,238)" d="M  125,247l -3,3 -1,1 -2,2 0,1 -1,1 27,0 0,-2 1,-1 1,-1 1,0 1,-1 1,-1 1,0 1,-1 1,0 1,-1 1,0 1,-1 1,0 1,-1 1,0 1,-1 2,0 1,-1 2,0 1,-1 1,0 1,-1 2,0 1,-1 3,0 1,-1 4,0 1,-1 28,0 1,1 14,0 1,1 31,0 0,-17 -17,0 -1,1 -56,0 -1,1 -4,0 -1,1 -5,0 -1,1 -4,0 -1,1 -3,0 -1,1 -3,0 -1,1 -2,0 -1,1 -1,0 -1,1 -1,0 -1,1 -2,0 -1,1 -1,0 -1,1 -1,0 -1,1 -1,1 -1,0 -1,1 -1,0 -1,1 -1,0 -1,1 -1,0 -1,1 -2,2 -1,0 -2,2 -1,1 -1,0 -1,1Z"/>
<path onmouseover="hoverPath(evt)" onmouseout="recoverPath(evt)" fill="rgb(238,213,119)" d="M  149,61l 0,0 -1,1 -3,0 -1,1 -2,0 -1,1 -3,0 -1,1 -2,0 -1,1 -3,0 -1,1 -2,0 0,2 -1,1 -3,0 -1,-1 -2,0 0,2 -1,1 -3,0 -1,-1 -2,0 -1,1 -2,0 -1,1 -3,0 -1,1 -2,0 -1,1 -3,0 -1,1 0,1 -1,1 -2,0 -1,-1 -2,0 -1,1 -2,0 -1,1 -3,0 -1,1 -2,0 -1,1 -3,0 -1,1 -2,0 -1,1 -2,0 -1,1 -2,0 -1,1 -3,0 -1,1 -2,0 0,2 -1,1 -3,0 -1,-1 -2,0 -1,1 -2,0 -1,1 -2,0 0,2 -1,1 -1,1 -2,0 -1,-1 0,-1 -2,0 -1,1 -2,0 0,2 -1,1 -1,1 -2,0 -1,1 -2,0 -1,-1 0,-1 -1,0 -1,1 -2,0 -1,1 -3,0 -1,1 -2,0 -1,1 -2,0 -1,1 -2,0 -1,1 -2,0 -1,1 -2,0 -1,1 -2,0 0,2 -1,1 -3,0 -1,-1 -1,0 0,5 2,0 0,-1 1,-1 1,0 1,-1 2,0 1,-1 3,0 1,-1 2,0 1,-1 3,0 1,-1 2,0 1,-1 2,0 1,-1 3,0 1,-1 2,0 1,-1 2,0 1,-1 3,0 1,-1 4,0 1,1 1,1 1,0 0,-3 1,-1 1,0 1,-1 3,0 1,-1 3,0 1,-1 4,0 1,-1 0,-1 1,-1 6,0 1,-1 2,0 1,-1 3,0 1,-1 3,0 1,-1 2,0 1,-1 3,0 1,-1 2,0 1,-1 3,0 1,-1 2,0 1,-1 3,0 1,-1 3,0 1,-1 3,0 0,-1 1,-1 4,0 1,1 0,-1 1,-1 2,0 1,-1 2,0 1,-1 3,0 1,-1 2,0 1,-1 2,0 1,-1 2,0 1,-1 2,0 1,-1 3,0 1,-1 2,0 1,-1 2,0 1,-1 2,0 1,-1 2,0 1,-1 2,0 1,-1 2,0 1,-1 2,0 0,-3 -1,-1 -2,0 -1,1 -2,0 -1,1 -2,0 -1,1Z"/>
<path onmouseover="hoverPath(evt)" onmouseout="recoverPath(evt)" fill="rgb(171,198,237)" d="M  176,103l -1,0 0,1 -1,1 0,4 1,1 0,2 -1,1 0,1 -1,1 0,1 -1,1 0,1 -1,1 -1,1 -2,0 -1,1 -2,0 -1,-1 -1,0 -1,-1 -1,-1 -1,-1 -3,0 -1,1 4,0 1,1 2,2 9,0 1,-1 3,0 1,-1 3,0 1,1 1,0 1,1 1,1 0,1 1,1 0,2 1,-1 3,0 -2,-1 0,-1 -1,-1 -1,-1 0,-1 -1,-1 0,-4 1,-1 0,-3 1,-1 1,-1 2,0 1,1 1,1 1,1 3,0 0,-1 1,-1 -1,-1 0,-3 -1,-1 -2,0 -1,1 -1,1 -3,0 -1,-1 -1,-1 0,-2 -1,-1 -1,-1 -4,0 -1,1 -1,0 -1,1Z"/>
<path onmouseover="hoverPath(evt)" onmouseout="recoverPath(evt)" fill="rgb(243,242,233)" d="M  196,165l 0,0 -1,-1 -2,0 -1,1 -1,0 -1,1 2,0 1,1 1,1 0,1 2,0 1,1 0,1 1,1 0,1 1,1 0,2 1,1 0,2 -1,1 0,1 2,0 1,1 0,1 1,1 0,2 -1,1 0,1 1,1 0,1 2,0 1,1 0,1 1,1 0,1 1,1 0,2 1,1 0,1 1,1 4,0 1,-1 3,0 1,-1 3,0 1,1 2,0 1,-1 2,0 1,-1 0,-2 1,-1 1,0 1,-1 0,-3 -1,-1 0,-2 -1,-1 0,-1 -1,-1 0,-1 -1,-1 0,-1 -1,-1 0,-1 -1,-1 0,-2 -1,-1 0,-1 -1,-1 0,-1 -1,-1 0,-1 -1,-1 0,-2 -1,-1 0,-2 1,-1 -2,0 -1,-1 0,-1 -1,-1 0,-1 -5,0 -1,-1 -1,0 -1,1 -2,0 -1,1 -2,0 -1,1 -1,0 -1,1 -2,0 0,2 -1,1Z"/>
<path onmouseover="hoverPath(evt)" onmouseout="recoverPath(evt)" fill="rgb(234,236,233)" d="M  240,39l -2,0 -1,1 -2,0 -1,1 -2,0 -1,1 -2,0 -1,1 -2,0 -1,1 -2,0 0,3 1,1 0,2 1,1 0,1 1,1 0,1 1,1 0,2 -1,1 1,1 1,0 1,-1 5,0 1,1 5,0 1,1 5,0 1,1 8,0 0,-27 -1,0 -1,1 -2,0 -1,1 -2,0 -1,1 -2,0 -1,1 -3,0 -1,1Z"/>
</svg>