<svg width="256" height="256" xmlns="http://www.w3.org/2000/svg"><script> 
var tempColor;
function hoverPath(evt){
obj = evt.target;
tempColor = obj.getAttribute("fill");
obj.setAttribute("fill","red");
//alert(tempColor);
//obj.setAttribute("stroke","red");}
function recoverPath(evt){
obj = evt.target;
obj.setAttribute("fill", tempColor);
//obj.setAttribute("stroke", tempColor);
}</script><path onmouseover="hoverPath(evt)" onmouseout="recoverPath(evt)" fill="rgb(245,198,112)" d="M  0,208l 0,9 2,0 1,-1 0,0 1,-1 2,0 1,-1 3,0 0,-1 1,-1 2,0 1,-1 1,0 1,-1 3,0 1,1 1,0 1,-1 2,0 1,-1 1,0 1,-1 0,-2 1,-1 1,0 1,-1 1,0 1,-1 0,-1 1,-1 1,0 1,-1 2,0 1,-1 2,0 1,1 2,0 1,1 0,1 1,0 1,-1 1,0 1,-1 1,0 1,-1 1,0 1,-1 1,0 1,-1 2,0 1,-1 1,0 1,-1 1,0 0,-2 1,-1 1,0 1,-1 1,0 1,-1 1,0 1,-1 1,0 1,-1 1,0 1,-1 1,0 1,-1 2,0 1,-1 5,0 1,1 1,-1 1,0 0,-1 -1,-1 0,-2 1,-1 0,-3 1,-1 2,0 1,-1 2,0 1,-1 0,-1 1,-1 3,0 0,-1 1,-1 0,-1 1,-1 1,-1 5,0 0,-5 1,-1 1,-1 1,-1 1,-1 1,-1 2,0 0,-3 1,-1 2,0 1,-1 1,-1 1,0 1,-1 4,0 0,-1 -1,-1 0,0 -1,-1 -1,-1 -1,0 -1,-1 -1,-1 -1,-1 -1,-1 0,-1 -1,-1 0,-1 -1,0 0,1 -3,3 -1,1 0,1 -1,1 -1,0 -3,3 -1,1 -2,2 0,1 -1,1 -1,1 -1,0 -1,1 0,1 -1,1 -1,0 -3,3 0,1 -1,1 -2,0 -1,1 0,1 -1,1 -4,0 -1,-1 -1,-1 1,2 0,3 -1,1 -1,0 -1,1 -1,0 0,3 -1,1 -1,1 -2,0 -1,-1 0,2 -1,1 -1,1 -1,0 -1,1 -1,0 -1,1 -2,0 -1,-1 0,-1 -1,1 -2,0 -1,1 -1,0 1,1 0,2 -1,1 -3,0 -1,-1 -6,0 -1,-1 -1,-1 1,2 0,2 -1,1 -1,0 -1,1 -2,0 -1,1 -4,0 -1,1 -6,0 1,1 0,1 1,1 0,2 -1,1 -1,0 -1,1 -2,0 -1,1 -1,0 -1,1 -3,0 -1,-1 -2,0 -1,1 -1,0 -1,1 -4,0 -1,1 -1,0 0,1 -1,1 -2,0 -1,1 -1,0 -1,1 -2,0Z"/>
<path onmouseover="hoverPath(evt)" onmouseout="recoverPath(evt)" fill="rgb(242,241,232)" d="M  55,57l 0,0 1,-1 1,0 2,-2 1,0 1,-1 1,0 1,-1 0,-2 1,-1 2,0 1,1 1,-1 0,-2 1,-1 2,0 1,1 1,-1 0,-2 1,-1 2,0 1,1 1,-1 1,-1 1,0 0,-1 -1,-1 0,-2 1,-1 3,0 1,1 1,1 0,-2 1,-1 2,0 1,1 1,-1 0,-2 -1,-1 -1,0 -1,-1 0,-2 -1,-1 -1,-1 -1,-1 0,-1 -1,-1 -1,-1 -1,-1 0,-1 -2,-2 -2,0 -1,-1 -1,-1 0,-2 1,-1 -1,-1 0,0 -1,-1 0,-1 -1,-1 0,-1 -1,-1 0,-1 -1,-1 0,2 -1,1 -2,0 -1,-1 -1,0 0,2 -1,1 -2,0 -1,-1 -1,0 0,2 -1,1 -2,0 -1,-1 -1,0 0,2 -1,1 -1,0 -1,1 -2,0 -1,-1 -1,0 -1,1 -1,0 0,2 -1,1 -2,0 -1,-1 0,2 -1,1 -1,0 -1,1 -1,0 -1,1 -2,0 -1,-1 -1,1 -1,1 -1,0 -1,1 0,2 -1,1 -2,0 -1,-1 -1,1 0,2 -1,1 -2,0 -1,-1 -1,1 -1,1 -1,0 -1,1 0,2 -1,1 -2,0 -1,-1 -1,1 0,0 -1,1 -1,0 -2,2 -1,0 0,1 1,1 0,0 1,1 1,1 0,1 1,1 1,1 1,1 1,0 1,1 0,1 1,1 0,1 1,1 1,1 1,1 1,0 1,1 0,1 2,0 1,1 1,1 0,4 1,1 1,1 0,1 1,1 1,1 0,1 1,1 1,0 1,-1 1,0 1,-1 1,0 1,-1 1,0 1,-1 1,0 1,-1 1,0 1,-1 0,-1 -1,-1 0,0 -1,-1 0,-3 1,-1 2,0 1,1 1,1 1,1 1,1 1,-1 1,0 0,-2 1,-1 2,0 1,1 1,-1Z"/>
<path onmouseover="hoverPath(evt)" onmouseout="recoverPath(evt)" fill="rgb(177,201,233)" d="M  192,111l -1,0 -1,1 -1,1 0,7 -1,1 0,5 1,1 0,8 1,1 0,13 1,1 0,8 1,1 0,9 1,1 0,8 1,1 0,3 1,1 0,13 -1,1 0,4 1,1 0,2 -1,1 -2,0 -1,-1 -1,0 -1,1 -1,1 -1,0 -1,1 -1,0 -1,1 -3,0 -1,1 -4,0 -1,1 -3,0 -1,1 -2,0 0,4 1,1 0,2 1,1 2,0 1,-1 5,0 1,-1 2,0 1,-1 2,0 1,-1 3,0 1,-1 2,0 1,-1 1,0 1,-1 1,0 1,-1 1,0 0,-1 -1,-1 0,0 -1,-1 -1,-1 0,-2 1,-1 2,0 1,1 1,1 1,1 0,-2 1,-1 0,-2 1,-1 0,-6 1,-1 1,0 0,-2 -1,-1 0,-2 1,-1 1,0 0,-2 1,-1 0,-3 1,-1 -1,-1 0,-10 -2,0 -1,-1 -1,-1 0,-3 -1,-1 0,-4 -1,-1 0,-3 1,-1 0,-4 -1,-1 0,-4 -1,-1 0,-4 -1,-1 0,-4 -1,-1 0,-4 -1,-1 0,-8 1,-1 0,-1 1,-1 1,-1 1,0 1,-1 1,0 1,-1 6,0 1,1 3,0 1,1 2,0 1,1 1,0 1,1 1,0 1,1 1,1 1,0 1,1 1,1 1,0 1,1 1,0 1,1 1,1 1,0 1,1 1,1 1,0 1,1 1,0 1,1 1,1 1,0 1,1 1,1 1,0 1,1 1,1 1,0 1,1 1,0 1,1 1,1 1,0 1,1 1,1 2,0 0,-10 -2,0 -1,-1 -1,-1 -1,0 -1,-1 -1,-1 -1,0 -1,-1 -1,-1 -1,0 -1,-1 0,-1 -1,-1 -1,-1 -1,0 -1,-1 -1,-1 -1,-1 -2,0 -1,-1 0,-1 -1,-1 -1,0 -1,-1 -1,0 -1,-1 -1,0 -1,-1 -1,0 -1,-1 -2,0 -1,-1 -1,0 -1,-1 -2,0 -1,-1 -2,0 -1,-1 -4,0 -1,-1 -5,0 -1,1 -3,0 -1,1 -1,1 -2,0 -1,1 -1,0 -1,1 -1,1Z"/>
<path onmouseover="hoverPath(evt)" onmouseout="recoverPath(evt)" fill="rgb(244,243,235)" d="M  200,120l 0,1 -1,1 0,6 1,1 0,4 1,1 0,4 1,1 0,4 1,1 0,4 1,1 0,6 -1,1 0,1 1,1 0,4 1,1 0,3 1,1 2,0 1,1 0,10 1,1 0,1 1,1 0,6 -1,1 0,13 -1,1 0,3 1,1 2,0 1,1 2,0 1,1 2,0 1,-1 1,0 1,-1 1,-1 1,0 1,-1 1,-1 1,0 1,-1 1,-1 1,0 1,-1 1,-1 1,0 1,-1 1,-1 1,0 1,-1 1,-1 0,-7 1,-1 2,0 1,1 5,0 0,-2 1,-1 4,0 1,-1 1,-1 2,0 0,-41 -3,0 -1,-1 -1,-1 -1,0 -1,-1 -1,-1 -1,0 -1,-1 -1,0 -1,-1 -1,-1 -1,0 -1,-1 -1,-1 -1,0 -1,-1 -1,-1 -1,0 -1,-1 -1,0 -1,-1 -1,-1 -1,0 -1,-1 -1,-1 -1,0 -1,-1 -1,0 -1,-1 -1,-1 -1,0 -1,-1 -1,-1 -1,0 -1,-1 -1,0 -1,-1 -2,0 -1,-1 -3,0 -1,-1 -4,0 -1,1 -1,0 -1,1 -1,0 -1,1Z"/>
<path onmouseover="hoverPath(evt)" onmouseout="recoverPath(evt)" fill="rgb(243,242,234)" d="M  0,1l 0,33 3,0 1,1 0,1 1,0 1,-1 0,0 1,-1 1,0 1,-1 0,-2 1,-1 2,0 1,1 1,-1 0,0 1,-1 1,0 1,-1 0,-2 1,-1 2,0 1,1 1,-1 1,-1 1,0 1,-1 0,-2 1,-1 2,0 1,1 1,-1 0,0 1,-1 1,0 1,-1 1,-1 1,0 1,-1 1,0 1,-1 1,0 0,-2 1,-1 2,0 1,1 1,0 1,-1 1,0 1,-1 1,0 1,-1 1,0 1,-1 2,0 1,-1 1,0 1,-1 1,0 1,-1 2,0 1,-1 1,0 1,-1 2,0 1,-1 2,0 1,-1 1,0 0,-2 -69,0 -1,1Z"/>
<path onmouseover="hoverPath(evt)" onmouseout="recoverPath(evt)" fill="rgb(240,240,234)" d="M  56,64l 0,0 -1,-1 -2,2 1,1 0,0 1,1 1,1 0,1 1,1 1,1 1,1 1,1 1,0 1,1 0,1 1,1 1,1 1,1 1,1 0,1 1,1 1,1 1,1 -3,-5 1,-1 2,0 1,-1 2,0 1,-1 3,0 1,-1 2,0 1,-1 3,0 1,-1 3,0 1,-1 5,0 1,-1 5,0 1,-1 5,0 1,-1 5,0 1,-1 3,0 1,-1 5,0 2,-2 1,0 1,-1 2,0 1,-1 1,-1 0,-1 2,-2 1,-1 1,-1 0,-2 1,-1 1,0 0,-1 1,-1 1,0 1,-1 1,0 1,-1 0,-3 -1,-1 0,-1 -1,-1 0,-2 -1,-1 0,-2 -1,-1 0,-1 -1,-1 0,-1 -1,-1 0,-3 -1,-1 0,-2 -1,-1 0,-1 -1,-1 0,-1 -1,-1 0,-1 -1,0 -1,-1 -1,1 -1,0 -1,1 -1,0 -1,1 -1,1 -1,0 -1,1 -1,0 -1,1 -1,1 -1,0 -1,1 -1,1 -2,0 -1,1 -1,0 1,1 0,3 -1,1 -3,0 -1,-1 0,-1 -1,0 -1,1 -1,0 -1,1 0,2 -1,1 -1,1 -2,0 0,1 -1,1 -2,0 -1,-1 -1,1 -1,0 -1,1 -1,0 -1,1 -1,1 -1,0 -1,1 -1,0 -1,1 0,2 -1,1 -2,0 -1,-1 -1,1 -1,1 -1,0 -1,1 -1,0 -1,1 -1,1 -1,0 -1,1 -1,0 -1,1 -1,1 -1,0 -1,1 1,1 0,1 1,1 0,2 -1,1 -2,0 -1,-1 -1,-1 -1,-1 -2,0 -1,1 0,2 -1,1Z"/>
<path onmouseover="hoverPath(evt)" onmouseout="recoverPath(evt)" fill="rgb(243,242,233)" d="M  77,0l -1,0 0,3 1,1 0,2 1,1 0,2 1,1 2,0 1,1 0,2 -1,1 1,1 0,0 1,1 1,1 0,1 1,1 1,1 1,1 0,1 1,1 1,1 1,1 0,1 1,1 1,1 1,1 0,1 1,1 1,1 2,0 1,-1 0,-2 1,-1 2,0 1,1 1,-1 0,-2 1,-1 2,0 1,1 1,-1 1,0 1,-1 0,-2 1,-1 1,0 1,-1 2,0 1,1 1,-1 0,0 1,-1 1,0 1,-1 1,0 1,-1 1,0 1,-1 1,-1 1,0 1,-1 0,-1 -2,0 -1,-1 0,-1 -1,-1 0,-2 1,-1 0,-1 -1,-1 0,-2 -1,-1 0,-2Z"/>
<path onmouseover="hoverPath(evt)" onmouseout="recoverPath(evt)" fill="rgb(248,237,143)" d="M  126,0l -2,0 0,1 1,1 0,2 1,1 0,3 -1,1 1,1 0,1 2,0 1,1 0,2 1,0 1,1 0,3 -1,1 1,0 1,1 0,1 1,1 0,1 1,1 0,1 1,1 0,2 1,1 0,3 1,1 0,1 1,1 0,1 1,1 0,2 1,1 0,2 1,1 0,1 1,1 0,4 1,1 1,1 1,1 0,2 1,1 0,1 1,1 0,2 1,1 0,1 1,1 0,1 1,1 0,1 1,0 1,1 0,2 -1,1 -1,1 1,0 1,1 1,0 1,1 1,1 0,1 1,1 0,1 1,1 1,1 0,1 1,1 1,1 0,1 1,1 1,1 0,1 1,1 0,3 -1,1 -1,1 0,2 1,-1 0,0 1,-1 1,-1 1,0 1,-1 0,-1 1,-1 0,-1 1,-1 2,0 1,-1 0,-1 -1,-1 0,-1 -1,-1 -1,-1 0,-1 -1,0 -1,-1 0,-2 -1,-1 -1,-1 0,-1 -1,-1 0,-1 -1,-1 0,-2 -2,0 -1,-1 0,-3 1,-1 -1,0 -1,-1 0,0 -1,-1 0,-1 -1,-1 0,-1 -1,-1 0,-5 -1,0 -1,-1 -1,-1 0,-1 -1,-1 0,-5 1,-1 2,0 1,-1 -1,0 -3,1 -1,0 -1,-1 0,-1 -1,-1 0,-1 -1,-1 0,-2 -1,-1 0,-2 -1,-1 0,-1 -1,-1 0,-2 -1,-1 0,-1 -1,-1 0,-1 -1,-1 0,-2 -1,-1 0,-1 -1,-1 0,-3 -2,0 -1,-1 0,-3 1,-1 -1,-1 0,-1 -1,-1 0,-5Z"/>
<path onmouseover="hoverPath(evt)" onmouseout="recoverPath(evt)" fill="rgb(243,241,233)" d="M  197,96l -2,0 -1,-1 0,-2 1,-1 0,-1 1,-1 2,-2 0,-2 1,-1 1,-1 1,-1 2,-2 1,-1 1,-1 1,-1 1,0 0,-1 1,-1 1,-1 1,-1 1,0 0,-1 2,-2 0,-1 1,-1 0,-2 1,-1 2,0 1,-1 1,-1 1,-1 -1,-1 -1,0 -1,-1 -1,0 -1,-1 -1,1 -1,1 -2,2 0,1 -1,1 -1,1 -1,1 -1,1 -5,5 -1,1 0,3 -1,1 -1,1 -1,1 -1,0 -1,1 -1,1 -1,0 0,1 -2,2 -1,1 -1,1 -1,1 0,1 1,1 1,0 1,1 1,1 0,2 -1,1 0,1 -1,1 -1,1 -1,0 -2,2 -1,1 -1,1 -1,1 4,-3 1,0 1,1 0,3 1,-1 1,0 1,-1 1,-1 2,0 1,-1 4,0 1,-1 11,0 1,1 3,0 1,1 2,0 1,1 1,0 1,1 1,0 1,-1 2,0 1,1 0,2 1,0 1,-1 2,0 1,1 0,2 1,0 1,1 1,1 1,1 1,-1 2,0 1,1 1,1 0,1 2,0 1,1 1,1 0,1 2,0 1,1 1,1 0,2 1,1 1,1 1,1 2,0 0,-70 -2,0 -1,1 -2,0 -1,-1 0,-2 -1,-1 0,-1 -2,2 -1,1 -1,1 -1,1 -1,1 -2,2 -1,1 -1,1 -1,1 -1,0 -2,2 0,1 -1,1 -1,1 -1,1 -1,0 -1,1 -1,1 -1,0 -1,1 -1,1 0,1 -1,1 -1,1 -1,1 -1,0 -1,1 -1,1 -1,0 -1,1 -1,1 -1,1 0,1 -1,1 -2,2 -1,1 -1,0 -1,1 -1,1 -1,1 -2,0 -1,-1 -1,1 0,1 -1,1 0,5 -1,1 -1,1Z"/>
<path onmouseover="hoverPath(evt)" onmouseout="recoverPath(evt)" fill="rgb(244,243,236)" d="M  1,170l 0,-1 -1,0 0,34 1,0 1,-1 1,0 1,-1 2,0 0,-1 1,-1 1,0 1,-1 4,0 1,-1 1,0 1,-1 0,-1 -1,-1 0,-1 -1,-1 0,-1 -1,-1 -1,-1 0,-1 -1,-1 0,-1 -1,-1 -1,-1 0,-1 -1,-1 0,-1 -1,-1 0,-1 -1,-1 -1,-1 0,-1 -1,-1 0,-1 -1,-1 -1,-1 0,-1 -1,-1Z"/>
<path onmouseover="hoverPath(evt)" onmouseout="recoverPath(evt)" fill="rgb(247,200,112)" d="M  128,120l -2,2 -1,0 -1,1 -1,1 0,5 -1,1 -1,1 -1,1 0,1 -1,1 -1,1 1,1 0,0 1,1 0,1 1,1 1,1 1,1 0,-1 1,-1 3,-3 1,-1 3,-3 3,0 1,-1 0,-1 1,-1 1,0 0,-4 1,-1 3,0 1,-1 3,0 0,-2 1,-1 0,-1 1,-1 1,-1 1,-1 4,0 0,-1 1,-1 0,-1 1,-1 1,-1 1,0 1,-1 0,-1 1,-1 2,0 1,-1 0,-3 1,-1 1,-1 1,0 1,-1 1,-1 1,-1 1,0 1,-1 1,0 1,-1 3,0 0,-3 1,-1 1,-1 2,0 1,1 1,-1 2,0 1,-1 0,-2 1,-1 2,0 1,-1 1,-1 1,-1 1,-1 1,-1 0,-1 1,-1 1,0 1,-1 1,-1 1,0 1,-1 1,-1 0,-3 1,-1 1,-1 1,-1 1,-1 1,-1 1,-1 1,-1 1,-1 1,-1 1,-1 0,-1 1,-1 1,-1 1,-1 1,-1 1,-1 2,0 1,1 0,-1 1,-1 1,0 -1,-1 0,-3 1,-1 1,-1 1,0 1,-1 2,0 0,-4 1,-1 0,-1 1,-1 1,-1 1,-1 1,-1 1,-1 2,0 1,1 1,-1 0,0 1,-1 1,-1 0,-2 1,-1 1,0 0,-1 1,-1 0,-2 1,-1 1,-1 1,0 1,-1 0,-5 1,-1 1,-1 2,0 1,-1 1,-1 3,0 0,-1 1,-1 2,0 0,-16 -13,0 0,1 1,1 0,2 -1,1 2,0 1,1 0,4 -1,1 -1,0 0,2 -1,1 -1,1 -2,0 -1,1 0,2 -4,4 -1,1 -1,0 -1,1 0,2 -1,1 -1,1 -1,1 -1,0 -1,1 -1,1 -2,0 0,3 -2,2 -2,0 0,3 -1,1 0,2 -1,1 -1,1 -1,0 0,1 -1,1 -1,0 -1,1 -2,0 0,3 -1,1 0,2 -1,1 -1,1 -1,1 -1,0 0,1 -1,1 -2,2 -1,1 -1,1 -1,1 -4,0 0,1 -1,1 -1,1 -1,1 -1,1 -1,1 -1,0 -1,1 -1,0 0,1 -1,1 -2,0 0,2 -1,1 -1,0 -1,1 0,1 -1,1 -1,0 0,2 -1,1 -1,1 -1,1 -3,0 0,2 -1,1 -1,1 -2,0 0,1 -1,1 0,1 -2,2 -1,0 -1,1 -1,1 -1,1 -1,0 -1,1 -1,1 -1,1 -2,0 -1,-1 -1,0 -1,1 -1,0 -1,1 -1,0 0,1 -1,1 -2,0 -1,-1 -1,-1 -1,0 1,1 0,4 -1,1 -1,1 -1,1 -1,0 -1,1 0,1 -1,1 -1,1 -1,1 0,1 -1,1 -1,0 -1,1 -2,0 -1,1 -1,1 -1,1 0,1 -1,1Z"/>
<path onmouseover="hoverPath(evt)" onmouseout="recoverPath(evt)" fill="rgb(244,243,233)" d="M  155,1l 1,0 0,-1 -19,0 0,4 1,1 0,1 1,1 0,2 -1,1 0,1 2,0 1,1 1,-1 0,-2 1,-1 1,-1 1,0 1,-1 1,-1 4,0 0,-2 1,-1 1,-1Z"/>
<path onmouseover="hoverPath(evt)" onmouseout="recoverPath(evt)" fill="rgb(172,198,234)" d="M  83,227l -1,0 -1,1 0,1 -1,1 0,1 -1,1 0,1 -1,1 0,7 1,1 0,1 1,1 0,2 1,1 0,2 1,1 0,1 1,1 0,3 12,0 0,-1 -1,-1 0,-1 -1,-1 0,-1 -1,-1 0,-2 -1,-1 0,-1 -1,-1 0,-2 -1,-1 0,-5 1,-1 0,-1 1,-1 1,-1 1,0 1,-1 1,0 1,-1 1,0 1,-1 3,0 1,-1 5,0 1,-1 5,0 1,-1 6,0 1,-1 5,0 1,-1 5,0 1,-1 6,0 1,-1 5,0 1,-1 5,0 1,-1 6,0 1,-1 3,0 0,-3 -1,-1 0,-3 -1,0 -1,-1 -1,1 -5,0 -1,1 -5,0 -1,1 -5,0 -1,1 -5,0 -1,1 -6,0 -1,1 -4,0 -1,1 -5,0 -1,1 -4,0 -1,1 -4,0 -1,1 -4,0 -1,1 -4,0 -1,1 -4,0 -1,1 -3,0 -1,1 -2,0 -1,1 -1,1Z"/>
<path onmouseover="hoverPath(evt)" onmouseout="recoverPath(evt)" fill="rgb(243,240,226)" d="M  92,235l 0,1 -1,1 0,3 1,1 0,2 1,1 0,1 1,1 0,2 1,1 0,1 1,1 0,1 1,1 0,2 80,0 0,-2 1,-1 1,-1 2,0 0,-2 1,-1 -2,2 -2,0 -1,1 -2,0 -1,-1 0,-2 1,-1 1,-1 0,-1 1,-1 1,0 1,-1 1,-1 0,-2 1,-1 1,0 1,-1 0,-2 1,-1 1,0 1,-1 0,-1 1,-1 1,-1 0,-1 -1,0 -1,-1 0,-2 1,-1 3,0 0,-1 4,-4 1,0 1,-1 1,0 1,-1 1,-1 0,-2 1,-1 1,0 1,-1 1,-1 0,-1 1,-1 1,-1 3,0 1,1 1,1 0,1 1,0 1,-1 0,0 1,-1 0,-1 1,-1 -2,0 -1,-1 -2,0 -1,-1 -1,-1 0,-5 1,-1 0,-13 1,-1 0,-4 -1,4 -1,3 -1,0 1,1 0,4 -1,1 -1,0 0,6 -1,1 0,2 -1,1 0,2 -1,1 -2,0 0,3 -1,1 -1,0 -1,1 -1,0 -1,1 -1,0 -1,1 -2,0 -1,1 -3,0 -1,1 -2,0 -1,1 -2,0 -1,1 -5,0 -1,1 -4,0 -1,-1 -1,-1 0,-2 -1,-1 0,-2 -3,0 -1,-1 0,2 1,1 0,5 -1,1 -3,0 -1,1 -6,0 -1,1 -5,0 -1,1 -5,0 -1,1 -6,0 -1,1 -5,0 -1,1 -5,0 -1,1 -6,0 -1,1 -5,0 -1,1 -5,0 -1,1 -3,0 -1,1 -1,0 -1,1 -1,0 -1,1 -1,0 -1,1 57,19 -2,0 -1,-1 0,-2 1,-1 2,0 1,1 0,2 -1,1 -57,-19Z"/>
<path onmouseover="hoverPath(evt)" onmouseout="recoverPath(evt)" fill="rgb(243,242,233)" d="M  162,195l 0,1 -1,1 -1,1 1,1 0,1 9,0 1,1 4,0 1,-1 4,0 1,-1 1,0 0,-2 1,-1 2,-2 2,0 0,-2 1,-1 0,-2 -1,-1 0,-9 -1,-1 0,-8 -1,-1 0,-8 -1,-1 0,-9 -1,-1 0,-6 -1,-1 0,-1 -6,0 -1,-1 0,-3 -1,-1 0,-2 -3,0 -2,2 -1,1 -1,0 -1,1 -1,1 -1,1 0,1 -1,1 -1,1 0,1 -1,1 -1,0 -3,3 -4,0 -1,-1 -1,-1 -1,0 -1,-1 -2,0 -1,1 0,0 -1,1 -1,1 -1,1 0,1 -1,1 -1,0 0,2 -2,2 -2,0 0,1 1,1 2,0 1,1 1,1 1,1 1,1 1,1 1,1 1,1 0,1 1,1 1,1 1,1 0,1 1,1 1,1 1,1 0,1 1,1 1,1 0,2 -1,1 0,1 1,0 1,1 0,1 2,0 1,1 0,1 1,1 0,2 -1,1 0,1 -1,1 2,0 1,1 0,2 1,1Z"/>
<path onmouseover="hoverPath(evt)" onmouseout="recoverPath(evt)" fill="rgb(243,241,232)" d="M  207,219l -2,0 -1,1 -2,2 0,2 -1,1 -1,0 -1,1 -1,1 0,4 -1,1 -1,1 -2,0 -1,1 -1,1 -1,1 -1,1 -1,1 0,1 -1,1 -1,1 -1,1 0,1 -1,1 -1,1 -1,1 1,1 0,2 -1,1 0,2 -1,1 -2,0 -1,1 0,1 76,0 0,-12 -2,0 -1,-1 -1,0 -1,-1 -1,-1 -1,0 -1,-1 -1,0 -1,-1 -1,0 -1,-1 -1,0 -1,-1 -1,-1 -1,0 -1,-1 -1,0 -1,-1 -1,0 -1,-1 -1,-1 -1,1 -2,0 -1,-1 0,-2 -1,-1 -1,1 -2,0 -1,-1 0,-2 -1,-1 -1,1 -2,0 -1,-1 0,-2 -1,-1 -1,0 -1,-1 -1,0 -1,-1 -1,0 -1,-1 -1,0 -1,-1 -1,-1 -1,-1 0,2 -1,1Z"/>
<path onmouseover="hoverPath(evt)" onmouseout="recoverPath(evt)" fill="rgb(233,218,236)" d="M  219,59l 0,1 1,0 1,1 1,1 0,2 -1,1 -2,2 -1,1 -2,0 0,2 -1,1 0,1 -1,1 -1,1 0,1 -1,1 -1,0 -1,1 -1,1 0,1 -1,1 -1,0 -1,1 -1,1 -1,1 -1,1 -3,3 0,2 -1,1 -1,1 -1,1 0,1 -1,1 3,0 1,-1 0,-3 19,-31 3,1 -1,0 -1,-1 3,1 2,0 8,-8 1,-1 1,-1 1,-1 1,-1 1,-1 0,0 -16,13 -3,-1 20,-13 -1,0 2,-1 1,-1 2,-2 1,-1 0,0 -5,5 -20,13 26,-19 1,0 3,-3 1,-1 1,-1 1,0 1,-1 -8,6 -26,19 36,-25 0,-2 -1,0 -1,1 0,0 2,1 -36,25 -13,26 2,-2 1,-1 1,0 1,-1 1,-1 1,-1 0,-1 1,-1 1,-1 1,-1 1,-1 1,0 1,-1 1,-1 1,0 1,-1 1,-1 0,-1 1,-1 1,-1 1,-1 1,0 1,-1 1,-1 1,0 1,-1 1,-1 0,-1 1,-1 1,-1 1,-1 1,0 2,-2 1,-1 1,-1 1,-1 1,-1 1,-1 1,-1 1,-1 2,-2 2,0 1,1 0,1 1,1 0,2 1,-1 3,0 0,-13 -49,47 13,-26Z"/>
<path onmouseover="hoverPath(evt)" onmouseout="recoverPath(evt)" fill="rgb(251,250,246)" d="M  3,85l 0,0 1,-1 1,0 1,-1 2,0 1,-1 2,0 1,-1 5,0 1,1 0,6 -1,1 1,0 1,-1 0,-9 1,-1 2,0 1,-1 2,0 1,-1 2,0 1,-1 1,0 1,-1 1,0 1,-1 1,0 1,-1 1,-1 1,0 1,-1 1,0 1,-1 1,0 1,-1 1,0 1,-1 1,0 1,-1 3,0 1,1 0,1 1,1 1,0 1,1 1,1 1,1 1,1 0,1 1,1 0,1 1,0 1,1 1,1 1,1 1,1 1,1 0,2 1,0 1,1 0,2 -1,1 0,1 1,-1 3,0 1,1 1,1 1,1 1,1 0,1 1,1 0,1 1,0 1,1 1,1 1,1 1,1 1,1 0,2 -1,1 0,1 3,0 1,1 0,3 1,-1 0,0 1,-1 1,0 0,-1 -1,-1 0,-1 -1,0 -1,-1 -1,-1 -1,-1 0,-1 -1,-1 -1,-1 -1,-1 -1,-1 0,-1 -1,0 -1,-1 -1,-1 -1,-1 -1,-1 -1,-1 -1,-1 0,-2 -1,0 -1,-1 -1,-1 -1,-1 -1,-1 0,-1 -1,-1 -1,-1 -1,-1 -1,-1 0,-1 -1,0 -1,-1 -1,-1 -1,-1 -1,-1 -1,-1 0,-1 -1,-1 -1,-1 -1,-1 0,-2 1,-1 1,-1 1,-1 2,0 1,1 0,-2 1,-1 1,-1 4,0 1,1 1,1 1,1 -1,-2 -1,-1 0,-2 1,-1 1,-1 1,0 2,-2 1,0 1,-1 1,0 1,-1 1,-1 1,0 1,-1 1,0 1,-1 1,-1 2,0 1,1 0,-2 1,-1 1,-1 1,0 1,-1 1,0 1,-1 1,-1 1,0 1,-1 1,0 1,-1 2,0 1,1 0,-1 1,-1 2,0 1,-1 0,-2 1,-1 1,-1 1,0 1,-1 3,0 1,1 0,1 1,0 0,-1 -1,-1 0,-2 1,-1 -3,0 -1,-1 0,2 -1,1 -1,1 -2,0 -1,-1 0,2 -1,1 -1,1 -4,0 -1,-1 -1,-1 -1,-1 0,-1 -1,-1 -1,-1 -1,-1 0,-1 -1,-1 -1,-1 -1,-1 0,-1 -1,-1 -1,-1 -1,-1 0,-1 -1,-1 -1,-1 -1,-1 0,-2 1,-1 -2,0 -1,-1 -1,-1 0,-2 -1,-1 0,-2 -1,-1 0,-4 -2,0 0,3 -1,1 -1,0 -1,1 -2,0 -1,1 -2,0 -1,1 -1,0 -1,1 -2,0 -1,1 -1,0 -1,1 -1,0 -1,1 -2,0 -1,1 -1,0 -1,1 -1,0 -1,1 -1,0 -1,1 -3,0 -1,-1 0,2 -1,1 -1,0 -1,1 -1,0 -1,1 -1,0 -1,1 -1,1 -1,0 -1,1 -1,1 -2,0 -1,-1 0,2 -1,1 -1,1 -1,0 -1,1 -1,1 -2,0 -1,-1 0,2 -1,1 -1,1 -1,0 -1,1 -1,1 -2,0 -1,-1 0,2 -1,1 -1,1 -1,0 -1,1 -1,1 -3,0 -1,-1 0,-1 -2,0 0,3 2,0 1,1 1,1 0,1 1,1 1,1 0,1 1,0 1,1 1,1 1,1 1,1 0,2 1,0 1,1 1,1 1,1 1,1 0,1 1,1 0,1 1,0 1,1 1,1 1,1 1,1 0,1 1,1 1,1 0,1 1,1 1,1 0,1 1,1 1,1 0,2 -1,1 -1,1 -1,0 -1,1 -3,0 -1,-1 -1,1 -2,0 0,2 -1,1 -2,0 -1,1 -2,0 -1,1 -2,0 -1,1 -3,0 -1,-1 -1,1 -2,0 0,18 2,0 0,-2 1,-1 1,0 0,-2 -1,-1 0,-9 26,-14 -1,-1 0,-1 -1,-1 0,0 -1,-1 0,-1 -1,-1 -1,-1 0,-4 -1,-1 -2,0 -1,-1 0,-1 -1,0 -1,-1 -1,-1 -1,-1 -1,-1 0,-1 -1,-1 0,-1 -1,0 -1,-1 -1,-1 -2,-2 0,-1 -1,-1 -1,-1 -1,-1 0,-3 1,-1 1,0 1,-1 1,-1 1,0 1,-1 1,-1 2,0 1,1 0,-2 1,-1 1,-1 1,0 1,-1 1,-1 2,0 1,1 0,-2 1,-1 1,-1 2,0 1,1 0,-2 1,-1 1,-1 1,0 1,-1 1,-1 2,0 1,1 1,-1 1,0 1,-1 1,0 0,-2 1,-1 2,0 1,1 0,-2 1,-1 1,0 1,-1 3,0 1,1 1,-1 1,0 0,-2 1,-1 3,0 1,1 0,-2 1,-1 3,0 1,1 0,-2 1,-1 3,0 1,1 0,-2 1,-1 2,0 1,1 1,1 0,1 1,1 0,1 1,1 0,1 1,1 1,1 0,2 -1,1 1,1 2,0 1,1 1,1 1,1 0,1 1,1 1,1 1,1 0,1 1,1 1,1 1,1 0,2 1,0 1,1 1,1 0,4 -1,1 -1,1 -2,0 -1,-1 0,2 -1,1 -2,0 -1,-1 -1,-1 -1,0 1,1 0,3 -1,1 -1,0 -1,1 -1,1 -2,0 -1,-1 0,2 -1,1 -1,1 -2,0 -1,-1 0,2 -1,1 -1,1 -2,0 -1,-1 0,2 -1,1 -1,1 -1,0 -1,1 -1,0 -1,1 -1,1 -1,0 -1,1 -1,1 -2,0 -1,-1 0,2 -1,1 -1,0 -1,1 -2,0 -1,-1 -1,-1 -1,-1 -1,-1 0,1 1,1 1,1 0,3 -1,1 -1,1 -1,0 -1,1 -1,0 -1,1 -1,0 -1,1 -1,0 -1,1 -1,0 -1,1 -3,0 -1,-1 -26,14 106,-58 1,1 0,0 1,-1 2,0 1,-1 1,-1 1,0 1,-1 1,-1 1,0 1,-1 1,0 1,-1 1,-1 1,0 1,-1 1,0 1,-1 1,0 1,-1 0,-1 -1,0 -1,1 -1,0 -1,1 -1,1 -1,0 -1,1 -1,0 -1,1 -1,0 -1,1 -1,1 -2,0 -1,-1 -1,1 -1,0 0,2 -1,1 -1,1 -1,0 -106,58 13,4 -1,1 -2,0 -1,1 1,0 3,-2 -13,-4Z"/>
<path onmouseover="hoverPath(evt)" onmouseout="recoverPath(evt)" fill="rgb(247,235,139)" d="M  24,188l 0,0 -1,-1 0,-1 -1,-1 -1,-1 0,-1 -1,-1 0,-1 -1,-1 0,-1 -1,-1 0,-1 -1,-1 0,-2 1,-1 -3,0 -1,-1 0,-1 -1,-1 0,-1 -1,-1 0,-1 -1,-1 -1,-1 0,-1 -1,-1 0,-1 -1,-1 -1,-1 0,-1 -1,-1 0,-1 -1,-1 -1,-1 0,-1 -1,-1 -1,-1 0,-1 -1,-1 0,-1 -1,0 0,18 2,0 1,1 0,1 1,1 0,1 1,1 1,1 0,1 1,1 0,1 1,1 1,1 0,1 1,1 0,1 1,1 0,1 1,1 1,1 0,1 1,1 0,1 1,1 1,1 0,1 1,1 0,1 1,1 0,2 2,0 1,1 1,0 1,-1 1,0 1,-1 2,0 1,-1 1,0 -1,-1 0,-1 -1,-1 -2,0 -1,-1Z"/>
<path onmouseover="hoverPath(evt)" onmouseout="recoverPath(evt)" fill="rgb(198,219,162)" d="M  60,211l -2,0 0,6 -1,1 -3,0 -1,1 -1,1 0,1 -1,1 -2,0 -1,-1 -4,0 -1,-1 -1,0 0,3 -1,1 0,2 -1,1 -2,0 -1,-1 -1,-1 0,-2 -1,1 -1,0 -1,1 -1,0 0,3 -1,1 0,3 -1,1 0,2 -1,1 -6,0 -1,-1 -1,0 -1,-1 0,-4 -1,0 -1,1 -1,0 1,1 0,3 1,1 0,1 1,1 1,1 1,1 1,1 1,1 1,1 3,0 1,1 0,2 1,-1 1,-1 1,-1 1,0 1,-1 0,-3 1,-1 1,0 1,-1 1,0 1,-1 2,0 1,-1 1,0 1,-1 2,0 1,-1 3,0 1,-1 5,0 1,-1 11,0 1,1 1,0 1,-1 0,-2 1,-1 0,-1 1,-1 0,-1 1,-1 0,-2 -1,-1 0,-1 -1,-1 0,-2 -1,-1 -1,-1 -1,-1 -1,-1 -1,-1 -1,-1 -1,-1 -2,0 -1,1Z"/>
<path onmouseover="hoverPath(evt)" onmouseout="recoverPath(evt)" fill="rgb(240,222,141)" d="M  237,12l -1,0 -1,1 0,1 -1,1 -1,0 -1,1 -1,0 -1,1 -2,0 1,1 0,2 -1,1 0,1 -1,1 -1,1 -3,0 -1,-1 -1,-1 -1,1 -2,0 0,1 -1,1 -1,0 0,2 1,0 1,1 0,2 1,1 0,2 -1,1 2,0 1,-1 0,-3 1,-1 2,0 1,-1 1,-1 1,0 1,-1 1,-1 0,-2 1,-1 1,-1 1,0 1,-1 1,-1 1,-1 1,-1 0,-2 1,-1 1,-1 -1,-1 1,-1 2,2 0,0 1,-1 0,-2 1,-1 1,0 0,-2 -2,2 -1,1 -1,0 -1,1 -1,1Z"/>
<path onmouseover="hoverPath(evt)" onmouseout="recoverPath(evt)" fill="rgb(243,242,232)" d="M  0,45l 0,35 1,0 1,-1 2,0 1,1 1,0 1,-1 2,0 1,-1 2,0 1,-1 2,0 0,-2 1,-1 2,0 1,-1 2,0 1,1 1,0 1,-1 1,0 1,-1 -1,-1 0,0 -1,-1 0,-1 -1,-1 -1,-1 0,-1 -1,-1 -1,-1 0,-1 -1,-1 -1,-1 -1,-1 -1,0 -1,-1 0,-1 -1,-1 0,-1 -1,-1 -1,-1 -1,-1 -1,0 -1,-1 0,-2 -1,-1 -1,-1 -1,-1 -1,0 -1,-1 0,-1 -1,-1 -1,-1 0,-1 -1,-1 -1,0Z"/>
<path onmouseover="hoverPath(evt)" onmouseout="recoverPath(evt)" fill="rgb(243,241,232)" d="M  0,141l 0,6 2,0 1,1 0,1 1,1 0,1 1,1 1,1 0,1 1,1 1,1 0,1 1,1 0,1 1,1 1,1 0,1 1,1 0,1 1,1 1,1 0,1 1,1 0,1 1,1 0,1 3,0 1,1 0,2 -1,1 1,1 0,1 1,1 0,1 1,1 0,1 1,1 0,1 1,1 1,1 0,1 1,1 0,2 1,0 1,-1 6,0 1,-1 4,0 1,-1 2,0 1,-1 1,0 0,-1 -1,-1 0,-2 1,-1 2,0 1,1 1,1 6,0 1,1 1,0 -1,-1 0,-2 1,-1 1,0 1,-1 2,0 1,-1 2,0 1,1 2,0 1,-1 1,0 1,-1 0,-3 1,-1 2,0 1,1 0,1 1,-1 0,-3 1,-1 1,0 1,-1 1,0 0,-2 -1,-1 0,-2 1,-1 -1,-1 -1,0 -1,-1 0,-1 -1,-1 -1,-1 -1,-1 -1,-1 -3,0 -1,-1 0,-1 -1,-1 -1,-1 -1,-1 -1,-1 -1,0 -1,-1 0,-1 -1,-1 0,-1 -1,-1 -1,-1 -1,-1 -1,-1 -1,-1 -1,-1 0,-1 -1,0 -1,-1 0,-1 -1,-1 -1,-1 -1,-1 -1,-1 -1,-1 0,-1 -1,0 -1,-1 0,-1 -1,-1 -1,-1 -1,-1 -1,-1 -1,0 -1,-1 0,-2 -1,-1 -1,-1 -1,0 -1,1 -2,0 -1,-1 0,-3 1,-1 -1,-1 -1,-1 0,-1 -1,0 -1,-1 -1,-1 0,-1 -1,-1 -1,-1 -1,-1 -1,-1 -1,0 -1,1 -1,0 -1,1 -1,1 -1,0 -1,1 -1,1 -2,0 -1,-1 -1,1 -2,0 -1,-1 -3,0 -1,-1 -1,-1 0,-1 -1,-1 -1,-1 -1,-1 0,-1 -1,0 0,39 23,30 0,-2 1,-1 2,0 1,1 0,2 -1,1 -2,0 -1,-1 -23,-30 4,-6 0,-2 1,-1 2,0 1,1 0,2 -1,1 -2,0 -1,-1 -4,6 28,-19 0,2 -1,1 -1,0 -1,1 -1,0 -1,1 -1,0 -1,1 -2,0 -1,-1 0,-2 1,-1 1,0 1,-1 1,0 1,-1 1,0 1,-1 2,0 1,1 -28,19 59,31 -2,0 -1,-1 0,-2 1,-1 1,0 1,-1 2,0 1,1 0,2 -1,1 -1,0 -1,1 -59,-31 40,34 -1,1 -2,0 -1,-1 0,-2 1,-1 2,0 1,1 0,2 -40,-34 11,-10 0,-2 1,-1 2,0 1,1 0,2 -1,1 -2,0 -1,-1 -11,10 36,26 -1,-1 0,-2 1,-1 1,0 1,-1 2,0 1,1 0,2 -1,1 -1,0 -1,1 -2,0 -36,-26Z"/>
<path onmouseover="hoverPath(evt)" onmouseout="recoverPath(evt)" fill="rgb(244,242,233)" d="M  38,108l -2,0 -1,-1 0,0 -1,1 -3,0 -1,1 1,1 1,0 1,1 0,1 1,1 1,1 0,2 -1,1 0,1 1,-1 3,0 1,1 1,1 1,1 0,2 1,0 1,1 1,1 1,1 1,1 1,1 0,1 1,0 1,1 0,1 1,1 1,1 1,1 1,1 1,1 0,1 1,0 1,1 0,1 1,1 1,1 1,1 1,1 1,1 1,1 0,1 1,1 0,1 1,0 1,1 1,1 1,1 1,1 1,1 0,1 3,0 1,1 1,1 1,1 1,1 1,1 0,1 1,0 1,1 1,1 0,1 1,1 1,1 2,0 0,-1 2,-2 2,0 0,-1 1,-1 1,-1 2,-2 1,0 0,-1 1,-1 1,-1 1,0 1,-1 0,-1 2,-2 1,-1 2,-2 1,-1 1,-1 1,0 0,-1 2,-2 1,-1 1,-1 0,-2 -1,-1 0,0 -1,-1 -1,-1 0,-1 -1,-1 -1,-1 -5,-5 0,-2 -1,-1 -1,-1 -1,-1 -1,-1 -2,0 -1,-1 -1,-1 -1,-1 -1,-1 -1,-1 -1,0 -1,-1 -1,-1 -1,-1 -1,-1 0,-1 -1,-1 -1,0 -1,-1 0,-3 -3,0 -1,-1 0,-3 1,-1 -1,-1 0,0 -1,-1 -1,-1 -1,-1 -1,0 -1,-1 0,-1 -1,-1 0,-1 -1,-1 -1,-1 -1,-1 -1,0 -1,1 -1,0 -1,1 -1,1 -1,1 -1,0 -1,1 -1,1 -1,0 -1,1 -1,1 0,1 4,0 1,-1 3,0 1,1 0,2 -1,1 0,2 -1,1 -6,0 -1,1 -4,0 -1,-1 0,-2 1,-1 -1,0 -1,-1 0,2 -1,1 -3,0 0,1 -1,1 -1,0 -1,1 -1,0 -1,1 -1,0 -1,1Z"/>
<path onmouseover="hoverPath(evt)" onmouseout="recoverPath(evt)" fill="rgb(241,231,240)" d="M  81,189l 0,0 -1,1 0,2 -2,2 0,2 3,0 1,1 1,1 0,1 3,0 0,-2 1,-1 1,0 1,-1 1,-1 2,0 1,1 0,-2 1,-1 1,-1 2,0 1,1 0,-2 1,-1 1,-1 1,0 1,-1 1,-1 2,0 1,1 2,0 1,-1 0,-3 1,-1 3,0 0,-2 1,-1 1,-1 1,-1 1,0 0,-4 1,-1 -1,-1 0,-1 -1,0 -1,-1 0,-3 1,-1 1,-1 1,0 0,-3 1,-1 1,-1 -3,3 0,0 -1,1 0,1 -1,1 -2,0 -2,2 -1,1 0,2 -1,1 -1,1 -1,0 0,1 -1,1 -1,0 -1,1 -2,0 0,2 -1,1 -2,0 -2,2 -1,0 -1,1 -1,0 -1,1 -1,1 -4,0 -1,-1 -1,-1 0,-2 1,-1 -1,0 -1,4 1,1 0,3 -1,1 -1,0 -1,1 -1,0 -1,1Z"/>
<path onmouseover="hoverPath(evt)" onmouseout="recoverPath(evt)" fill="rgb(243,241,232)" d="M  98,106l 0,0 -1,1 0,2 -1,1 -1,1 0,1 2,0 1,1 1,1 0,2 1,1 1,1 1,1 1,1 1,1 1,1 1,1 1,1 1,1 0,1 1,0 1,1 1,1 1,1 1,1 1,1 1,-1 4,0 2,-2 0,-5 1,-1 1,-1 1,-1 1,0 1,-1 1,-1 0,-1 1,-1 1,-1 1,-1 1,-1 2,0 1,-1 1,0 0,-1 1,-1 1,-1 1,-1 0,-1 1,-1 1,-1 1,0 1,-1 1,-1 0,-2 -1,-1 0,-2 1,-1 3,0 2,2 0,-1 1,-1 1,0 1,-1 1,0 1,-1 3,0 1,1 1,-1 0,0 1,-1 0,-4 1,-1 1,-1 0,-1 -1,-1 0,-1 -1,-1 -1,-1 0,-1 -1,-1 -1,-1 0,-1 -1,-1 -1,-1 0,-1 -1,-1 0,-1 -1,-1 -1,0 -1,-1 -1,0 -1,1 0,0 -1,1 -2,0 -1,1 -1,0 -1,1 -2,0 -1,-1 -1,1 -1,0 -1,1 -1,0 -1,1 -2,0 -1,1 -1,0 -1,1 -1,0 -1,1 -1,0 -1,1 -1,0 -1,1 5,-2 1,0 1,1 1,1 1,0 1,1 0,2 -1,1 -1,0 -1,1 -5,0 -1,-1 -3,0 -1,1 0,2 -1,1 -1,1 -2,0 -1,-1 -3,0 -1,-1 0,-1 -1,0 -1,-1 -5,0 -1,1 -2,0 -1,1 -2,0 -1,1 -1,0 -1,1 -1,1 1,1 0,2 1,1 1,1 0,1 1,1 1,1 0,4 -1,1 29,-1 -1,1 -2,0 -1,-1 0,-2 1,-1 2,0 1,1 0,2 -29,1Z"/>
<path onmouseover="hoverPath(evt)" onmouseout="recoverPath(evt)" fill="rgb(243,241,233)" d="M  116,180l -1,1 0,2 -1,1 -3,0 0,2 1,0 1,1 1,-1 0,0 1,-1 1,0 1,-1 4,0 1,1 1,1 0,1 1,1 0,1 1,1 1,1 0,4 -1,1 0,4 -1,1 -2,2 0,3 2,2 0,1 4,0 1,-1 5,0 1,-1 5,0 1,-1 5,0 1,-1 5,0 1,-1 3,0 -2,-1 0,-1 -1,-1 0,-2 1,-1 -1,-1 0,-1 -1,-1 0,-1 -1,-1 0,-1 -1,-1 0,-1 -1,-1 0,-1 -1,-1 0,-1 -1,-1 0,-1 -1,-1 -2,0 -1,-1 -1,-1 0,-1 -1,-1 -1,-1 0,-1 -1,-1 -1,-1 -1,-1 0,-2 -1,0 -1,-1 -1,-1 -1,-1 -1,-1 -1,-1 -1,-1 -1,-1 -1,-1 -1,-1 0,-2 -1,1 0,1 -1,1 -1,1 -1,1 -1,1 -1,0 -1,1 -1,1 0,1 1,1 0,2 -1,1 0,4 -1,1 -1,0 -1,1Z"/>
<path onmouseover="hoverPath(evt)" onmouseout="recoverPath(evt)" fill="rgb(244,242,234)" d="M  143,13l 0,0 -1,1 -1,0 0,1 1,1 0,1 1,1 0,2 1,1 0,1 1,1 0,1 1,1 0,2 1,1 0,1 1,1 0,2 1,1 0,2 1,1 0,1 1,1 0,1 1,0 1,-1 3,0 1,1 0,2 -2,2 -2,0 0,3 1,1 0,1 1,1 4,0 1,-1 2,0 1,-1 2,0 1,-1 2,0 0,-7 1,-1 -3,0 -1,1 -4,0 -1,-1 0,-2 1,-1 2,0 1,-1 5,0 1,-1 8,0 1,-1 5,0 1,-1 1,0 1,-1 2,0 1,-1 1,0 1,-1 2,0 1,-1 1,0 1,-1 1,0 1,-1 1,0 1,-1 1,0 1,-1 2,0 1,1 1,-1 1,-1 0,-2 1,-1 2,0 1,-1 4,0 1,-1 1,0 0,-1 1,-1 0,-1 -1,-1 0,0 -1,-1 0,-1 -1,-1 -1,-1 -1,-1 -1,-1 -1,0 -1,-1 0,-1 -1,-1 -1,-1 0,-3 -51,0 0,3 -1,1 -2,0 -1,-1 -1,1 0,2 -1,1 -4,0 -1,1 -1,1 -1,0 -1,1 0,2 -1,1Z"/>
<path onmouseover="hoverPath(evt)" onmouseout="recoverPath(evt)" fill="rgb(252,251,249)" d="M  166,204l 0,0 -1,1 0,4 -1,1 1,1 2,0 0,-2 1,-1 2,0 1,-1 3,0 1,-1 4,0 1,-1 3,0 1,-1 1,0 1,-1 1,0 2,-2 3,0 0,-6 1,-1 0,-11 -1,-1 0,-3 -1,-1 0,-8 -1,-1 0,-9 -1,-1 0,-8 -1,-1 0,-13 -1,-1 0,-8 -1,-1 0,-7 1,-1 0,-7 1,-1 1,-1 1,-1 1,0 1,-1 1,-1 1,0 1,-1 2,0 1,-1 1,-1 3,0 1,-1 7,0 1,1 4,0 1,1 2,0 1,1 2,0 1,1 1,0 1,1 2,0 1,1 1,0 1,1 1,0 1,1 1,0 1,1 1,0 1,1 1,1 0,1 2,0 1,1 1,1 1,1 1,0 1,1 1,1 1,1 0,1 1,0 1,1 1,1 1,0 1,1 1,1 1,0 1,1 1,1 1,0 0,-3 -3,0 -1,-1 -1,-1 -1,-1 -1,-1 0,-2 -1,-1 -2,0 -1,-1 0,-1 -1,-1 -2,0 -1,-1 0,-1 -1,-1 -1,1 -2,0 -1,-1 -1,-1 -1,-1 -1,0 -1,-1 0,-2 -1,1 -3,0 -1,-1 0,-2 -1,1 -3,0 -1,-1 -1,0 -1,-1 -2,0 -1,-1 -3,0 -1,-1 -9,0 -1,1 -4,0 -1,1 -2,0 -1,1 -1,1 -1,0 -1,1 -2,0 -1,-1 0,-3 -1,1 0,0 -1,1 -1,1 -1,0 -1,1 0,1 -1,1 -1,1 -1,0 -1,1 -3,3 -1,1 -1,1 5,-4 1,-1 2,0 1,1 0,7 -1,1 0,1 -1,1 -4,0 2,1 2,0 1,1 0,1 1,1 0,6 1,1 0,5 -1,1 -1,1 -4,0 -1,-1 0,-1 6,2 1,1 0,1 1,1 0,6 1,1 0,9 1,1 0,8 1,1 0,8 1,1 0,9 1,1 0,4 -1,1 0,2 -1,1 -2,0 -1,1 -1,1 0,2 -1,1 -1,0 -1,1 -4,0 -1,1 -5,0 -1,1Z"/>
<path onmouseover="hoverPath(evt)" onmouseout="recoverPath(evt)" fill="rgb(239,237,223)" d="M  177,116l 0,0 -1,1 -1,1 -3,0 0,1 -1,1 -1,0 -1,1 -1,1 -1,1 -1,1 0,1 -1,1 -1,1 -1,1 -1,1 -2,2 -1,0 0,1 -1,1 -1,1 -1,1 -1,1 -1,1 -1,0 -1,1 0,4 1,1 0,3 1,1 2,0 1,-1 0,0 1,-1 1,-1 1,0 0,-1 1,-1 1,-1 0,-1 1,-1 1,-1 1,-1 1,-1 1,0 1,-1 1,-1 1,-1 5,0 1,1 0,2 2,0 1,1 0,1 2,0 1,-1 0,-3 -1,-1 0,-6 -1,-1 0,-1 -2,0 -1,-1 -1,0 -1,-1 0,-2 1,-1 4,0 0,-1 1,-1 0,-5 -1,1 -1,0 -1,1 -1,1Z"/>
<path onmouseover="hoverPath(evt)" onmouseout="recoverPath(evt)" fill="rgb(251,250,245)" d="M  190,229l 0,3 -1,1 -1,1 0,1 -1,1 -1,1 -1,0 0,2 -1,1 -1,1 -1,0 0,2 -1,1 -1,1 -1,1 -1,0 0,1 -1,1 -1,1 2,-1 1,0 1,-1 0,0 1,-1 0,-1 1,-1 1,-1 1,-1 0,-1 1,-1 1,-1 1,-1 0,-1 1,-1 1,-1 1,-1 1,-1 2,-2 2,0 1,-1 0,-4 2,-2 1,-1 1,0 0,-2 1,-1 1,-1 1,-1 1,-1 2,0 0,-2 1,-1 1,0 0,-1 -1,-1 -1,0 -1,1 0,1 -1,1 -1,1 -1,1 -1,0 0,2 -1,1 -1,1 -1,1 -1,0 -1,1 -1,0 -1,1 -2,2 0,1 -1,1 -1,1 -1,-1 0,0 1,1Z"/>
<path onmouseover="hoverPath(evt)" onmouseout="recoverPath(evt)" fill="rgb(253,253,253)" d="M  213,20l -1,1 1,1 0,5 1,1 0,1 1,0 1,1 0,-1 -2,-2 0,-3 1,-1 1,0 0,-1 1,-1 2,0 1,-1 2,0 1,1 1,1 1,0 1,-1 0,-1 1,-1 -1,-1 0,0 -1,-1 -1,-1 0,-4 1,-1 -4,0 -1,-1 -1,-1 0,-1 -1,-1 -1,-1 0,-1 -1,0 -1,-1 -1,-1 -1,-1 0,-2 -2,0 0,2 1,1 0,0 1,1 0,1 1,0 1,1 1,1 1,1 1,1 1,1 0,1 1,1 1,1 0,3 -1,1 0,1 -1,1 -1,0 -1,1Z"/>
<path onmouseover="hoverPath(evt)" onmouseout="recoverPath(evt)" fill="rgb(239,233,231)" d="M  0,222l 0,17 1,0 1,-1 1,0 1,-1 2,0 1,-1 1,0 1,-1 1,0 1,-1 1,0 1,-1 2,0 1,1 0,-1 -1,-1 0,-2 1,-1 1,0 1,-1 3,0 1,1 0,4 1,0 1,1 4,0 0,-2 1,-1 0,-3 1,-1 0,-3 1,-1 1,0 1,-1 1,0 1,-1 2,0 1,1 0,2 1,1 0,-2 1,-1 0,-3 1,-1 3,0 1,1 4,0 1,1 0,-1 1,-1 0,0 1,-1 1,-1 3,0 0,-6 1,-1 2,0 0,-3 1,-1 1,0 0,-1 1,-1 1,0 1,-1 2,0 0,-1 1,-1 1,0 1,-1 2,0 0,-1 1,-1 1,0 1,-1 2,0 0,-3 1,-1 1,-1 0,-2 1,-1 1,-1 -3,0 -1,1 -2,0 -1,1 -1,0 -1,1 -1,0 -1,1 -1,0 -1,1 -1,0 -1,1 -1,0 -1,1 -1,0 0,2 -1,1 -1,0 -1,1 -1,0 -1,1 -2,0 -1,1 -1,0 -1,1 -1,0 -1,1 -1,0 -1,1 -1,0 -1,1 -3,0 -1,-1 0,-1 -2,0 -1,-1 -1,1 -2,0 -1,1 -1,0 0,1 -1,1 -1,1 -1,0 -1,1 -1,0 0,2 -1,1 -1,1 -1,0 -1,1 -2,0 -1,1 -3,0 -1,-1 -1,0 -1,1 -1,0 -1,1 -2,0 0,1 -1,1 -3,0 -1,1 -2,0 -1,1 -1,1 -3,0Z"/>
<path onmouseover="hoverPath(evt)" onmouseout="recoverPath(evt)" fill="rgb(253,253,253)" d="M  80,222l -1,0 -1,1 -1,1 -1,0 0,1 -1,1 0,1 -1,1 0,1 -1,1 0,2 -2,2 -3,0 -1,-1 -9,0 -1,1 -5,0 -1,1 -3,0 -1,1 -2,0 -1,1 -1,0 -1,1 -2,0 -1,1 -1,0 -1,1 -1,0 0,1 1,0 1,-1 1,0 1,-1 1,0 2,-1 2,-1 4,0 1,1 0,2 2,-5 2,0 4,-1 9,0 4,1 0,0 1,1 0,5 1,1 0,2 1,1 0,2 1,1 0,1 1,1 0,2 1,1 0,2 4,0 0,-2 -1,-1 0,-1 -1,-1 0,-2 -1,-1 0,-2 -1,-1 0,-1 -1,-1 0,-9 1,-1 0,-1 1,-1 0,-1 1,-1 0,-1 1,-1 1,-1 1,0 1,-1 1,-1 2,0 1,-1 3,0 1,-1 4,0 1,-1 4,0 1,-1 4,0 1,-1 4,0 1,-1 4,0 1,-1 5,0 1,-1 4,0 1,-1 6,0 1,-1 5,0 1,-1 5,0 1,-1 5,0 1,-1 5,0 1,-1 1,0 0,-2 -1,-1 0,-1 -1,1 -3,0 -1,1 -5,0 -1,1 -5,0 -1,1 -5,0 -1,1 -5,0 -1,1 -6,0 -1,-1 0,-1 -1,-1 0,2 -1,1 -1,1 -1,0 -1,1 -4,0 -1,1 -4,0 -1,1 -4,0 -1,1 -4,0 -1,1 -3,0 -1,1 -4,0 -1,1 -3,0 -1,1 -2,0 -1,1 -1,1Z"/>
<path onmouseover="hoverPath(evt)" onmouseout="recoverPath(evt)" fill="rgb(233,218,234)" d="M  150,141l 0,-4 1,-1 1,-1 1,0 1,-1 1,-1 1,-1 1,-1 0,-1 1,-1 1,0 1,-1 4,-4 0,-1 1,-1 1,-1 1,-1 1,-1 1,-1 1,0 0,-1 1,-1 1,0 0,-1 1,-1 1,-1 4,-4 1,-1 1,0 1,-1 0,-1 1,-1 0,-2 1,-1 1,-1 1,-1 1,-1 1,-1 1,-1 1,0 1,-1 0,-1 1,-1 -1,-1 -1,0 -1,-1 -1,-1 0,-1 -1,0 0,2 -1,1 -1,1 -2,0 -1,1 -2,0 -1,-1 -1,1 0,3 -1,1 -3,0 0,1 1,0 1,1 1,1 1,1 0,3 -1,1 -3,0 0,3 -1,1 -2,0 -1,1 -1,1 0,1 -1,1 -1,0 -1,1 0,2 -1,1 -1,1 -2,0 0,3 -1,1 -1,0 -1,1 -1,0 0,1 -1,1 -3,3 -1,1 -1,1 -3,0 -1,1 0,3 -1,1 -3,3 -1,1 -3,3 -1,1 -3,3 -1,1 0,1 1,-1 1,-1 2,0 1,1 0,2 1,-1 1,0 0,-1 1,-1 1,-1 1,-1 1,-1 1,-1 4,0 0,-3 -12,11 0,2 1,-1 0,-1 -1,0 12,-11Z"/>
<path onmouseover="hoverPath(evt)" onmouseout="recoverPath(evt)" fill="rgb(245,218,165)" d="M  152,190l 0,0 1,1 0,1 1,1 0,1 1,1 0,1 1,1 0,2 -1,1 1,1 0,1 1,0 1,1 1,0 1,1 0,1 1,1 0,4 1,0 0,-1 1,-1 0,-4 1,-1 1,-1 -5,0 -1,-1 0,-1 -1,-1 0,-2 1,-1 1,-1 -1,-1 0,-2 -2,0 -1,-1 0,-2 1,-1 0,-1 1,-1 -1,-1 0,-1 -2,0 -1,-1 0,-1 -1,0 -1,-1 0,-3 1,-1 -1,-1 0,0 -1,-1 0,-1 -1,-1 -1,-1 -1,-1 0,-1 -1,-1 -1,-1 -1,-1 0,-1 -1,-1 -1,-1 -1,-1 -1,-1 -1,-1 -1,-1 -2,0 -1,-1 -1,-1 0,-3 1,-1 0,-3 1,-1 -2,2 -2,0 -1,-1 0,-3 1,-1 1,-1 1,-1 1,-1 1,-1 1,-1 1,-1 1,-1 3,-3 1,-1 1,-1 -14,13 -1,0 -1,-1 -1,-1 0,-1 -1,-1 0,-2 -1,1 -4,0 -1,-1 -1,-1 -1,-1 -1,-1 0,-1 -1,-1 -1,-1 0,-2 1,-1 1,-1 -2,0 -1,1 -2,0 -1,-1 -1,-1 -1,-1 -1,-1 -1,-1 -1,0 -1,-1 0,-1 -1,-1 -1,-1 -1,-1 -1,-1 -1,-1 -1,-1 -1,-1 -1,-1 -1,-1 0,-2 -1,-1 -2,0 -1,-1 0,-2 -1,-1 -1,-1 0,-1 -1,-1 -1,-1 -1,-1 -1,-1 0,2 -1,1 -1,0 -1,1 1,1 0,1 1,1 1,1 1,1 1,0 1,1 1,1 1,1 1,1 1,1 2,0 1,1 1,1 1,1 1,1 1,1 0,2 1,1 1,1 1,1 1,1 1,1 1,1 1,1 0,1 3,3 0,1 2,0 1,1 0,1 1,1 0,1 1,1 1,1 1,1 1,0 1,1 1,1 1,1 1,1 0,3 -1,1 -4,0 -1,1 -1,0 -1,1 -1,1 -2,0 0,3 -1,1 -2,0 -1,1 -1,1 -1,1 -1,1 0,4 1,1 0,-2 3,-3 1,-1 3,-3 1,-1 3,-3 1,-1 2,0 1,1 2,0 1,1 0,2 -1,1 -1,0 0,1 -1,1 -1,1 0,3 -1,1 -1,0 -1,1 0,1 1,-1 3,-2 2,-2 1,-1 0,-1 1,-1 1,-1 2,0 1,1 0,2 1,1 1,1 1,1 1,1 1,1 1,1 1,1 1,1 1,0 1,1 0,2 1,1 1,1 1,1 0,1 1,1 1,1 0,1 1,1 2,0 1,1 1,1 0,1 1,1 0,1 1,1 0,1 1,1Z"/>
<path onmouseover="hoverPath(evt)" onmouseout="recoverPath(evt)" fill="rgb(238,232,213)" d="M  162,110l -2,0 0,1 -1,1 -1,1 -1,0 -1,1 0,1 -1,1 0,1 -1,1 -4,0 -1,1 -1,1 0,1 -1,1 0,2 -1,1 -3,0 -1,1 -3,0 0,4 -1,1 -1,0 0,1 -1,1 -1,1 -3,0 -5,5 -1,1 -1,1 2,-1 1,0 1,1 0,2 1,1 0,1 1,1 1,-1 0,0 1,-1 1,-1 1,-1 1,-1 2,-2 1,-1 1,-1 1,-1 1,-1 1,-1 1,-1 1,0 -1,-1 0,-2 1,-1 2,0 1,1 2,0 1,-1 3,-3 1,-1 0,-1 1,-1 1,0 1,-1 1,0 0,-1 -1,-1 0,-2 1,-1 2,0 1,1 1,-1 0,-2 1,-1 1,-1 1,0 0,-1 1,-1 1,-1 1,-1 2,0 0,-3 1,-1 3,0 0,-1 -1,-1 0,0 -1,-1 -1,0 -1,-1 0,-1 -1,1 -1,0 -1,1 -1,1 -1,1 -1,0 -1,1 0,3 -1,1 -1,1Z"/>
<path onmouseover="hoverPath(evt)" onmouseout="recoverPath(evt)" fill="rgb(241,240,229)" d="M  228,14l 0,0 1,1 1,-1 1,0 1,-1 1,0 0,-1 1,-1 1,-1 1,0 1,-1 1,-1 1,0 1,-1 1,0 -1,-1 0,-2 1,-1 -1,-1 0,-2 -25,0 0,1 1,1 0,0 1,1 1,0 1,1 0,1 1,1 1,1 0,1 1,1 4,0 1,1 0,2 -1,1 1,0 1,1Z"/>
<path onmouseover="hoverPath(evt)" onmouseout="recoverPath(evt)" fill="rgb(240,234,218)" d="M  25,79l -1,0 -1,1 -2,0 0,9 -1,1 -1,1 -1,0 -1,1 -2,0 -1,1 -3,0 -1,-1 0,-2 1,-1 1,-1 2,0 1,-1 1,0 0,-4 -3,0 -1,1 -2,0 -1,1 -2,0 -1,1 -1,0 0,7 1,1 0,4 -1,1 -1,0 0,2 -1,1 1,1 0,0 1,1 1,1 0,1 1,1 3,0 1,1 1,-1 2,0 1,1 1,-1 1,-1 1,0 1,-1 1,-1 1,0 1,-1 3,0 1,1 1,1 1,1 1,1 1,-1 3,0 0,-2 1,-1 1,-1 2,0 1,1 0,1 1,1 1,-1 1,0 1,-1 1,0 0,-1 1,-1 3,0 0,-2 1,-1 2,0 1,1 1,0 1,1 0,2 -1,1 2,0 1,-1 6,0 0,-2 1,-1 -1,0 -1,1 -6,0 -1,-1 0,-3 1,-1 1,-1 0,-2 1,-1 1,-1 2,0 1,1 1,-1 0,0 1,-1 0,-3 1,-1 -1,0 -1,-1 0,-2 -1,-1 -1,-1 -1,-1 -1,-1 -1,0 -1,-1 0,-1 -1,-1 0,-1 -1,-1 -1,-1 -1,-1 -1,0 -1,-1 -1,-1 0,-1 -1,0 -1,1 -1,0 -1,1 -1,0 -1,1 -1,0 -1,1 -1,0 -1,1 -1,0 -1,1 -1,1 -1,0 -1,1 -1,0 -1,1 -1,0 -1,1 -2,0 -1,1Z"/>
<path onmouseover="hoverPath(evt)" onmouseout="recoverPath(evt)" fill="rgb(243,241,232)" d="M  53,237l -1,0 0,4 -1,1 -2,0 -1,-1 0,-2 -3,0 -1,1 -1,0 -1,1 -1,0 -1,1 -1,0 -1,1 -2,0 -1,1 -1,1 -1,0 -1,1 -1,1 -1,1 -2,0 -1,-1 0,-2 -3,0 -1,-1 -1,-1 -1,-1 -3,-3 -1,-1 0,-1 -1,-1 -1,0 -1,-1 -1,1 -1,0 -1,1 -1,0 -1,1 -1,0 -1,1 -2,0 -1,1 -1,0 -1,1 -2,0 0,14 75,0 0,-1 -1,-1 0,-2 -1,-1 0,-1 -1,-1 0,-2 -1,-1 0,-2 -1,-1 0,-5 -1,-1 -13,0 -1,1Z"/>
<path onmouseover="hoverPath(evt)" onmouseout="recoverPath(evt)" fill="rgb(241,238,232)" d="M  66,208l 0,0 1,1 1,1 2,2 1,1 1,1 1,1 1,1 0,2 1,1 0,1 1,1 0,1 1,-1 0,0 1,-1 1,0 1,-1 1,-1 2,0 1,-1 3,0 1,-1 4,0 1,-1 3,0 1,-1 4,0 1,-1 4,0 1,-1 4,0 1,-1 4,0 1,-1 1,0 1,-1 0,-2 1,-1 0,-4 1,-1 1,-1 1,-1 0,-4 1,-1 0,-2 -1,-1 0,0 -1,-1 0,-1 -1,-1 0,-1 -1,-1 -2,0 -1,1 -1,0 -1,1 -1,1 -2,0 -1,-1 -1,0 -1,1 -4,0 -1,-1 -1,1 -1,1 -1,0 -1,1 0,2 -1,1 -2,0 -1,-1 -1,1 0,2 -1,1 -2,0 -1,-1 -1,1 0,0 -1,1 -1,0 0,2 -1,1 -5,0 -1,-1 0,-1 -1,-1 -5,0 -1,1 -1,0 0,1 -1,1 -2,0 -1,1 -1,0 0,1 -1,1 -2,0 -1,1 -1,0 0,1 -1,1 -1,0 0,2 1,-1Z"/>
<path onmouseover="hoverPath(evt)" onmouseout="recoverPath(evt)" fill="rgb(243,242,233)" d="M  70,79l -2,0 1,1 0,0 1,1 1,1 0,4 1,1 1,1 1,1 1,1 1,1 1,0 1,1 0,1 1,1 1,1 1,1 1,1 0,1 1,1 1,1 1,0 1,1 0,1 2,0 1,1 1,1 1,1 1,1 1,1 0,1 1,1 1,-1 0,-2 1,-1 1,-1 0,-2 -1,-1 0,0 -1,-1 0,-1 -1,-1 -1,-1 0,-2 -1,-1 0,-2 1,-1 1,-1 1,-1 1,0 1,-1 2,0 1,-1 2,0 1,-1 7,0 1,1 1,0 1,1 0,1 3,0 1,1 1,-1 0,-2 1,-1 1,-1 5,0 1,1 3,0 1,-1 1,0 -2,-1 0,0 -1,-1 -1,0 -1,1 -1,0 -55,-5 1,-1 -1,1 51,4 0,-1 1,-1 1,-1 1,0 1,-1 1,0 1,-1 1,0 1,-1 1,0 1,-1 2,0 1,-1 1,0 1,-1 1,0 1,-1 1,0 1,-1 1,0 1,-1 2,0 1,1 1,0 1,-1 0,-2 1,-1 1,0 1,-1 -1,0 -1,-1 0,-1 -1,-1 0,-1 -1,-1 0,-1 -1,-1 0,-2 -1,-1 0,-1 -1,-1 0,-2 -1,-1 -1,-1 -1,1 -1,0 -1,1 -1,0 0,1 -1,1 -1,0 0,2 -1,1 -1,1 -1,1 -1,1 0,1 -1,1 -1,1 -1,1 -2,0 -1,1 -1,0 -1,1 -1,1 -5,0 -1,1 -3,0 -1,1 -5,0 -1,1 -5,0 -1,1 -5,0 -1,1 -5,0 -1,1 -3,0 -1,1 -3,0 -1,1 -2,0 -1,1 -3,0 47,6 -51,-4Z"/>
<path onmouseover="hoverPath(evt)" onmouseout="recoverPath(evt)" fill="rgb(237,235,217)" d="M  93,175l -1,1 -1,1 -2,0 0,2 -1,1 1,1 2,0 1,-1 0,0 1,-1 1,0 1,-1 1,0 2,-2 2,0 0,-2 1,-1 2,0 1,-1 1,0 0,-1 1,-1 1,0 1,-1 0,-2 1,-1 1,-1 2,-2 2,0 0,-1 1,-1 1,-1 1,-1 1,-1 1,-1 3,0 -3,-1 -1,1 -1,1 -2,2 -1,1 -1,1 -8,8 -1,-1 -5,0 -1,1 0,1 -1,1 0,1 -1,1 -2,0 -1,1Z"/>
<path onmouseover="hoverPath(evt)" onmouseout="recoverPath(evt)" fill="rgb(239,237,223)" d="M  173,39l 0,0 -1,1 -2,0 0,7 -1,1 -2,0 -1,1 -2,0 -1,1 -2,0 -1,1 -3,0 0,4 1,1 0,1 1,1 0,1 1,1 2,0 1,1 0,2 -1,1 -1,0 0,1 2,0 1,1 0,2 1,1 0,1 1,1 0,1 2,2 0,2 1,0 1,1 0,1 1,1 1,1 0,1 3,0 1,-1 0,0 1,-1 0,-2 1,-1 1,0 0,-1 1,-1 1,-1 1,0 0,-2 1,-1 2,0 0,-1 1,-1 1,0 1,-1 1,0 3,-3 1,-1 0,-1 1,-1 4,0 1,-1 1,-1 1,-1 1,-1 1,-1 0,-1 1,-1 1,0 1,-1 1,-1 0,-2 1,-1 0,-3 1,-1 2,0 1,-1 1,0 0,-1 1,-1 1,0 1,-1 0,-2 1,-1 0,-2 -1,-1 0,-2 1,-1 -2,0 -1,-1 -1,0 -1,-1 0,-1 -1,-1 0,-5 -1,0 -1,1 -2,2 -2,0 -1,-1 -1,1 -1,0 -1,1 -1,0 -1,1 -1,0 0,2 -1,1 -2,0 -1,-1 -1,0 -1,1 -1,0 -1,1 -2,0 -1,1 -1,0 -1,1 -5,0 -1,1 -8,0 -1,1 -5,0 -1,1 -2,0 9,-1 1,0 1,1Z"/>
<path onmouseover="hoverPath(evt)" onmouseout="recoverPath(evt)" fill="rgb(253,253,252)" d="M  211,215l -1,0 1,1 0,0 1,1 1,0 1,1 1,0 1,1 1,0 1,1 1,0 1,1 1,1 0,2 1,-1 2,0 1,1 1,1 0,2 1,-1 2,0 1,1 1,1 0,2 1,-1 2,0 1,1 1,1 1,0 1,1 1,0 1,1 1,0 1,1 1,1 1,0 1,1 1,0 1,1 1,0 1,1 1,0 1,1 1,1 1,0 1,1 1,0 0,-2 -2,0 -1,-1 -1,0 -1,-1 -1,0 -1,-1 -1,-1 -1,0 -1,-1 -1,0 -1,-1 -1,0 -1,-1 -1,0 -1,-1 -1,-1 -1,0 -1,-1 -1,0 -1,-1 -1,-1 -1,0 -1,-1 -1,0 -1,-1 -1,-1 -1,0 -1,-1 -1,0 -1,-1 -1,0 -1,-1 -1,-1 -1,0 -1,-1 -1,0 -1,-1 -1,-1 0,-3 1,-1 2,-2 1,0 1,-1 1,-1 1,0 1,-1 1,-1 1,0 1,-1 1,-1 1,0 1,-1 1,-1 1,0 2,-2 1,0 1,-1 1,-1 2,0 0,-1 1,-1 1,-1 2,0 0,-1 1,-1 1,-1 1,0 1,-1 1,-1 1,0 1,-1 1,-1 1,-1 1,-1 2,0 0,-2 -1,0 -1,1 0,0 -1,1 -4,0 0,2 -1,1 -7,0 -1,-1 0,7 -1,1 -1,1 -1,1 -1,0 -1,1 -1,1 -1,0 -1,1 -1,1 -1,0 -1,1 -1,1 -1,0 -2,2 -1,0 -1,1 -1,1 -1,0 -1,1 -3,0 -1,1 0,1 -1,1 -1,1 -1,1Z"/>
<path onmouseover="hoverPath(evt)" onmouseout="recoverPath(evt)" fill="rgb(243,242,233)" d="M  219,214l 0,0 -1,1 0,1 1,1 1,0 1,1 1,0 1,1 1,1 1,0 1,1 1,0 1,1 1,0 1,1 1,1 1,0 1,1 1,0 1,1 1,1 1,0 1,1 1,0 1,1 1,1 1,0 1,1 1,0 1,1 1,0 1,1 1,0 1,1 1,1 1,0 1,1 1,0 1,1 1,0 0,-48 -1,0 -1,1 0,0 -1,1 -1,1 -1,1 -1,0 -1,1 -1,1 -1,0 -1,1 0,1 -1,1 -2,0 -1,1 0,1 -1,1 -2,0 -1,1 -1,1 -1,0 -1,1 -1,1 -1,0 -1,1 -1,1 -1,0 -1,1 -1,1 -1,0 -2,2 -1,0 -1,1 -1,1 -1,0 -1,1Z"/>
<path onmouseover="hoverPath(evt)" onmouseout="recoverPath(evt)" fill="rgb(232,227,209)" d="M  243,30l -1,0 -1,1 0,2 -1,1 0,1 -1,1 -1,0 0,2 -1,1 -1,1 -1,1 -1,1 -2,0 -1,-1 -1,1 0,0 -1,1 -1,1 -1,1 0,1 -1,1 0,4 -1,1 -2,0 -1,1 -1,0 -1,1 0,1 1,1 0,1 1,1 2,0 1,-1 0,0 1,-1 1,-1 1,-1 1,-1 1,-1 3,-3 1,-1 1,-1 1,-1 0,-1 1,-1 1,0 1,-1 1,-1 1,-1 1,-1 0,-1 1,-1 2,0 1,-1 1,-1 1,-1 1,-1 1,-1 1,0 0,-1 1,-1 1,-1 2,0 0,-12 -1,0 0,1 -1,1 -3,0 -1,1 -1,1 -2,0 -1,1 0,5 -1,1 -1,1Z"/>
</svg>