<svg width="256" height="256" xmlns="http://www.w3.org/2000/svg"><script> 
var tempColor;
function hoverPath(evt){
obj = evt.target;
tempColor = obj.getAttribute("fill");
obj.setAttribute("fill","red");
//alert(tempColor);
//obj.setAttribute("stroke","red");}
function recoverPath(evt){
obj = evt.target;
obj.setAttribute("fill", tempColor);
//obj.setAttribute("stroke", tempColor);
}</script><path onmouseover="hoverPath(evt)" onmouseout="recoverPath(evt)" fill="rgb(241,239,231)" d="M  0,32l 0,54 4,0 1,-1 43,0 1,-1 19,0 1,-1 15,0 1,1 0,1 3,0 0,-11 -1,-1 0,-14 1,-1 -1,0 -1,-1 0,-13 -1,-1 0,-5 1,-1 -7,0 -1,1 -5,0 -1,1 -5,0 -1,1 -4,0 -1,1 -6,0 -1,1 -10,0 -1,-1 -4,0 -1,1 -6,0 0,2 -1,1 -9,0 -1,-1 0,-2 -1,1 -3,0 -1,-1 -1,0 -1,-1 -1,0 -1,-1 -1,-1 -1,-1 -1,0 -1,-1 -3,-3 -1,-1 -1,-1 0,-1 -1,-1 0,-9 -1,-1 0,-3 -1,0Z"/>
<path onmouseover="hoverPath(evt)" onmouseout="recoverPath(evt)" fill="rgb(246,234,139)" d="M  0,184l 0,6 27,0 0,-2 1,-1 32,0 1,-1 32,0 1,-1 4,0 1,1 1,1 1,1 0,6 -1,1 -1,1 2,0 1,1 0,3 3,0 1,1 0,-1 -1,-1 0,-6 -1,0 -1,-1 -1,-1 0,-2 -102,-5 100,2 -1,-1 0,-2 1,-1 1,-1 0,-1 -1,-1 0,0 -1,-1 0,-5 -1,0 -1,-1 0,1 1,1 0,4 -1,1 -3,0 -1,1 -34,0 -1,1 -16,0 -1,1 -2,0 -1,-1 -29,0 -1,1 -8,0 0,1 100,3 -100,-2Z"/>
<path onmouseover="hoverPath(evt)" onmouseout="recoverPath(evt)" fill="rgb(242,241,233)" d="M  114,36l 0,0 1,1 11,0 1,1 11,0 1,1 11,0 1,-1 0,-1 1,-1 1,-1 1,0 1,-1 6,0 1,1 0,2 -1,1 -4,0 -1,1 0,1 7,0 1,1 10,0 1,1 11,0 1,1 11,0 1,1 10,0 1,1 7,0 1,1 3,0 1,-1 4,0 1,-1 0,-4 1,-1 0,-3 1,-1 0,-4 1,-1 0,-4 1,-1 0,-2 1,-1 0,-2 1,-1 0,-2 1,-1 0,-1 1,-1 0,-2 1,-1 0,-1 1,-1 0,-2 1,-1 0,-1 1,-1 0,-2 1,-1 0,-1 -145,0 0,2 1,0 1,1 1,0 1,1 1,1 0,4 1,1 0,10 1,1 0,6 1,1 0,8 1,1 0,2 5,0 0,-2 1,-1Z"/>
<path onmouseover="hoverPath(evt)" onmouseout="recoverPath(evt)" fill="rgb(243,242,234)" d="M  112,96l 0,3 1,1 0,9 1,1 0,9 1,1 0,9 1,1 0,9 -1,1 0,2 1,0 1,1 0,1 5,0 1,-1 3,0 1,-1 0,-6 -1,-1 0,-2 1,-1 1,-1 1,-1 2,0 1,1 0,-2 1,-1 4,0 1,-1 5,0 1,-1 7,0 1,-1 8,0 1,-1 8,0 1,1 1,0 1,1 0,-4 -1,-1 0,-5 1,-1 3,0 1,1 0,3 1,1 0,6 1,1 0,3 1,0 1,1 1,-1 9,0 1,1 1,0 1,1 0,1 1,1 0,4 1,1 0,2 1,0 1,-1 7,0 1,1 10,0 1,1 1,0 1,-1 2,0 1,1 0,-3 -1,-1 0,0 -1,-1 -2,0 -1,-1 -1,0 -1,-1 -1,-1 -1,0 -1,-1 0,-1 -1,-1 0,-4 -1,-1 0,-8 -1,-1 0,-5 -2,0 -1,-1 0,-13 -15,0 -1,1 -13,0 0,2 -1,1 -2,0 -1,-1 0,-3 -24,0 -1,-1 -16,0 -1,-1 -13,0 -1,-1 -3,0 -1,1Z"/>
<path onmouseover="hoverPath(evt)" onmouseout="recoverPath(evt)" fill="rgb(242,240,230)" d="M  132,136l 0,0 -1,1 -2,0 0,6 -1,1 -1,1 -3,0 -1,1 -6,0 0,1 1,1 0,18 -1,1 20,0 1,-1 23,0 1,-1 13,0 1,-1 1,0 0,-3 -1,0 -1,-1 -1,1 -17,0 -1,1 -18,0 -1,-1 0,-2 1,-1 13,0 1,-1 16,0 1,-1 7,0 0,-4 -1,-1 0,-6 -1,-1 0,-3 -2,0 -1,-1 -2,0 -1,-1 0,-10 -1,0 -1,-1 -5,0 -1,-1 -7,0 -1,1 -7,0 -1,1 -5,0 -1,1 -4,0 0,2 -1,1 0,2 -1,1 1,18 -1,1 -2,0 -1,-1 0,-2 1,-1 2,0 1,1 0,2 -1,-18Z"/>
<path onmouseover="hoverPath(evt)" onmouseout="recoverPath(evt)" fill="rgb(244,242,234)" d="M  3,0l -3,0 0,15 2,0 1,1 0,3 1,1 0,9 1,1 0,1 1,1 1,1 1,1 1,1 1,1 1,0 1,1 1,1 1,1 1,0 1,1 1,0 1,1 1,0 1,-1 2,0 1,1 0,2 7,0 0,-2 1,-1 6,0 1,-1 5,0 1,-1 3,0 1,-1 4,0 1,-1 5,0 1,-1 4,0 1,-1 5,0 1,-1 5,0 1,-1 8,0 0,-12 -1,-1 0,-4 -1,-1 0,-2 1,-1 0,-8 1,-1 0,-2Z"/>
<path onmouseover="hoverPath(evt)" onmouseout="recoverPath(evt)" fill="rgb(243,242,234)" d="M  11,249l 0,0 -1,1 -3,0 -1,-1 0,0 -1,1 0,2 -1,1 0,2 56,0 0,-7 -1,-1 0,-2 1,-1 0,-1 1,-1 2,0 1,-1 0,-1 1,-1 1,0 1,-1 1,-1 1,-1 0,-3 -2,0 -1,-1 -1,0 -1,-1 0,-2 -1,-1 0,-2 -1,-1 0,1 -1,1 -1,0 -1,1 -1,1 -1,1 -1,1 0,1 -1,1 -1,1 0,1 -1,1 -1,1 0,1 -1,1 0,1 -1,1 0,1 -1,1 -1,1 -1,1 -1,1 -1,1 -1,0 -1,1 -2,0 -1,1 -3,0 -1,-1 -5,0 -1,-1 -5,0 -1,-1 -9,0 -1,1 -1,0 -1,1 -1,1Z"/>
<path onmouseover="hoverPath(evt)" onmouseout="recoverPath(evt)" fill="rgb(244,243,235)" d="M  253,1l 0,2 -1,1 0,2 -1,1 0,2 -1,1 0,2 -1,1 0,1 -1,1 0,2 -1,1 0,2 -1,1 0,2 -1,1 0,1 -1,1 0,3 -1,1 0,3 -1,1 0,2 -1,1 0,4 -1,1 0,4 -1,1 0,2 1,1 0,2 -1,1 -2,0 0,1 1,1 0,5 -1,1 0,24 1,0 1,-1 3,0 1,-1 3,0 1,-1 4,0 1,-1 3,0 0,-81 -1,0 -1,1Z"/>
<path onmouseover="hoverPath(evt)" onmouseout="recoverPath(evt)" fill="rgb(243,242,234)" d="M  212,98l -2,0 0,2 -1,1 0,9 1,1 0,5 1,1 0,8 1,1 0,4 1,1 0,1 1,0 1,1 1,1 1,0 1,1 2,0 1,1 1,1 1,1 0,4 3,0 1,-1 5,0 1,-1 6,0 -1,-1 0,-3 -1,-1 0,-2 -1,-1 0,-2 -1,-1 0,-2 -1,-1 0,-3 -1,-1 0,-2 -1,-1 0,-2 -1,-1 0,-2 -1,-1 0,-3 -1,-1 0,-3 -1,-1 0,-3 -1,-1 0,-3 -1,-1 -6,0 -1,1Z"/>
<path onmouseover="hoverPath(evt)" onmouseout="recoverPath(evt)" fill="rgb(194,218,156)" d="M  28,196l 0,-2 1,-1 7,0 0,-4 -7,0 0,2 -1,1 -28,0 0,63 2,0 0,-3 1,-1 0,-2 1,-1 0,-1 -1,-1 0,-2 -1,-1 0,-2 1,-1 1,-1 1,-1 1,-1 1,-1 1,-1 0,-10 1,-1 0,-3 1,-1 0,-2 1,-1 0,-3 1,-1 0,-1 1,-1 8,0 1,-1 13,0 1,1 1,0 1,1 0,1 10,0 1,1 1,0 0,-1 1,-1 10,0 1,-1 0,-4 1,-1 2,0 0,-1 1,-1 -12,0 -1,-1 -3,0 -1,-1 -2,0 -1,-1 -2,0 -1,-1 -1,0 -1,1 -3,0 -1,-1 -1,0 -1,-1 -1,-1 -1,-1 -4,0 -1,-1Z"/>
<path onmouseover="hoverPath(evt)" onmouseout="recoverPath(evt)" fill="rgb(253,253,253)" d="M  38,171l -16,0 9,1 6,0 1,-1 1,-2 1,0 0,-12 1,-1 0,-3 1,-1 1,-1 43,0 -20,-1 -1,0 -1,-1 0,-4 -1,4 0,1 -21,0 0,-6 -1,5 0,2 -1,1 -10,0 -1,-1 -1,1 0,0 -1,1 1,1 0,1 6,0 1,1 3,0 1,1 0,12 -1,2 2,3 -1,0 1,1 0,-1 -2,-3Z"/>
<path onmouseover="hoverPath(evt)" onmouseout="recoverPath(evt)" fill="rgb(243,241,232)" d="M  43,155l 0,2 -1,1 0,21 15,0 1,-1 34,0 1,-1 3,0 0,-2 -1,-1 0,-9 -1,-1 0,-15 -1,-1 0,-8 -2,0 -1,-1 0,-1 -1,-1 0,-3 -1,-1 0,-2 -1,1 -1,0 -1,1 -1,1 -37,0 0,1 -1,1 0,2 -1,1 0,4 -1,1 0,5 17,0 0,-1 1,-1 0,-3 1,-1 2,0 1,1 0,4 1,0 1,1 19,0 1,1 0,2 -1,1 -43,0 -1,1Z"/>
<path onmouseover="hoverPath(evt)" onmouseout="recoverPath(evt)" fill="rgb(240,238,231)" d="M  7,124l 0,9 -1,1 0,1 1,1 0,1 1,0 1,-1 0,0 1,-1 30,0 1,1 1,0 1,1 1,0 0,-2 1,-1 0,-1 1,-1 37,0 1,-1 -37,0 0,-3 -1,-1 0,-2 1,-1 0,-2 1,-1 1,0 1,-1 1,-1 0,-1 1,-1 2,0 0,-1 1,-1 0,-1 -1,-1 0,-2 1,-1 0,-1 1,-1 0,-1 -1,0 -1,-1 -1,0 -1,1 -3,0 -1,1 -4,0 -1,-1 -14,0 -1,1 -12,0 -1,-1 -6,0 -1,1 -1,0 -1,1 0,13 1,1 0,1 36,14 0,0 -36,-14Z"/>
<path onmouseover="hoverPath(evt)" onmouseout="recoverPath(evt)" fill="rgb(241,239,229)" d="M  10,138l -1,1 -1,0 0,1 1,1 0,4 -1,1 0,2 -1,1 -2,0 -1,1 -4,0 0,30 7,0 1,-1 30,0 0,-3 -1,-1 0,-1 -7,0 -1,-1 -8,0 -1,-1 0,-2 1,-1 16,0 0,-1 1,-1 0,-8 -1,-1 -3,0 -1,-1 -6,0 -1,-1 0,-1 -1,-1 0,-2 1,-1 1,-1 1,-1 2,0 1,1 8,0 0,-2 1,-1 0,-4 1,-1 0,-4 -1,0 -1,-1 -28,0 -1,1Z"/>
<path onmouseover="hoverPath(evt)" onmouseout="recoverPath(evt)" fill="rgb(247,236,139)" d="M  104,76l 0,0 1,1 0,3 1,1 0,3 -1,1 0,2 -1,1 1,0 1,1 0,1 1,1 0,4 -1,1 -1,1 0,3 1,0 1,1 0,1 1,1 0,6 -1,1 -1,0 0,1 1,0 1,1 0,2 1,1 0,4 -1,1 -1,0 0,2 1,1 0,0 1,1 0,3 1,1 0,5 -1,1 -1,1 1,0 1,1 0,2 1,1 0,3 -1,1 0,2 -1,1 1,0 1,1 0,2 1,1 0,4 -1,1 -1,1 1,0 1,1 0,1 1,1 0,3 -1,1 0,1 -1,1 0,1 1,0 1,1 0,1 2,0 0,-2 1,-1 0,-16 -1,-1 0,-4 -1,0 -1,-1 0,-4 1,-1 0,-7 -1,-1 0,-9 -1,-1 0,-9 -1,-1 0,-9 -1,-1 0,-6 1,-1 6,0 1,1 13,0 1,1 16,0 1,1 24,0 1,1 14,0 1,-1 17,0 1,1 0,13 1,-11 0,-2 1,-1 9,0 1,-1 8,0 1,1 1,1 0,3 1,1 0,3 1,1 0,3 1,1 0,3 1,1 0,2 1,1 0,2 1,1 0,2 1,1 0,3 1,1 0,2 1,1 0,2 1,1 0,2 1,1 0,3 1,1 0,1 1,0 1,1 0,2 -1,1 1,1 0,3 2,0 1,1 0,3 1,1 0,5 1,1 0,2 1,1 0,2 1,1 0,2 1,1 0,2 1,1 0,4 1,-1 2,0 0,-30 -2,0 -1,-1 0,-2 -1,0 -1,-1 -1,-1 0,-3 1,-1 0,-2 -2,0 -1,-1 0,-2 -1,-1 0,-7 1,-1 0,-2 -1,-1 0,-5 -1,-1 0,-1 -1,-1 -1,-1 0,-1 -1,-1 0,-1 -1,-1 -1,-1 0,-4 1,-1 -1,-1 -2,0 -1,-1 0,-4 -1,0 -1,-1 0,-32 1,-1 0,-3 -1,-1 0,-3 1,-1 2,0 -1,-1 0,-4 1,-1 0,-4 1,-1 0,-4 1,-1 0,-2 1,-1 0,-3 1,-1 0,-3 1,-1 0,-1 1,-1 0,-2 1,-1 0,-2 1,-1 0,-2 1,-1 0,-1 1,-1 0,-2 1,-1 0,-2 1,-1 0,-2 1,-1 0,-2 -9,0 0,2 -1,1 0,2 -1,1 0,1 -1,1 0,2 -1,1 0,1 -1,1 0,2 -1,1 0,1 -1,1 0,2 -1,1 0,2 -1,1 0,2 -1,1 0,4 -1,1 0,4 -1,1 0,3 -1,1 0,4 -1,1 -1,1 -4,0 5,1 0,4 1,1 0,4 -1,1 0,1 -1,1 -16,0 -1,1 15,0 1,1 0,24 -1,1 -5,0 -1,1 -8,0 -1,1 -2,0 -1,-1 0,-10 -1,11 -2,0 -1,-1 -54,0 -1,-1 -16,0 -1,-1 -14,0 -1,-1 -6,0 -1,-1 -1,-1 0,-3 -1,-1 0,-4 -1,-1 0,-1 -3,0 0,2 1,1 70,22 -70,-22Z"/>
<path onmouseover="hoverPath(evt)" onmouseout="recoverPath(evt)" fill="rgb(244,242,234)" d="M  104,44l 0,1 1,1 0,12 1,1 0,9 1,1 0,2 1,1 0,1 1,1 0,4 1,1 0,3 1,1 6,0 1,1 14,0 1,1 16,0 1,1 54,0 1,1 0,-10 1,-1 2,0 1,1 0,10 1,-1 8,0 1,-1 5,0 0,-22 -2,0 -1,-1 -6,0 -1,1 -8,0 -1,-1 0,-2 1,-1 3,0 1,-1 16,0 0,-1 1,-1 0,-2 -1,-1 -2,0 -1,-1 -3,0 -1,-1 -4,0 -1,-1 -7,0 -1,-1 -10,0 -1,-1 -11,0 -1,-1 -11,0 -1,-1 -11,0 -1,-1 -11,0 -1,-1 -11,0 -1,-1 -11,0 -1,-1 -10,0 -1,-1 -8,0Z"/>
<path onmouseover="hoverPath(evt)" onmouseout="recoverPath(evt)" fill="rgb(243,241,232)" d="M  187,187l -1,0 0,3 1,1 0,4 1,1 0,3 1,1 0,5 1,1 0,2 13,0 1,-1 16,0 1,-1 12,0 1,-1 0,-18Z"/>
<path onmouseover="hoverPath(evt)" onmouseout="recoverPath(evt)" fill="rgb(242,240,231)" d="M  218,144l -3,0 -1,-1 -10,0 -1,-1 -5,0 -1,1 -3,0 -1,-1 0,-2 -1,-1 0,-4 -2,0 -1,-1 -4,0 -1,1 -5,0 0,6 1,1 0,7 1,1 0,6 1,1 0,6 1,1 6,0 1,1 0,2 -1,1 -2,0 -1,1 -3,0 0,4 1,1 0,1 27,0 1,-1 4,0 1,1 0,1 2,0 1,-1 2,0 1,-1 27,0 0,-2 -1,-1 0,-2 -1,-1 0,-2 -1,-1 0,-2 -1,-1 0,-2 -1,-1 0,-5 -1,-1 0,-3 -2,0 -1,-1 0,-3 -1,-1 0,-2 1,-1 -7,0 -1,1 -5,0 -1,1 -7,0 -1,-1 -1,1Z"/>
<path onmouseover="hoverPath(evt)" onmouseout="recoverPath(evt)" fill="rgb(253,253,253)" d="M  243,220l 0,0 1,1 0,1 1,1 0,-3 1,-1 -2,0 -1,1 -15,-1 -1,-1 -1,0 -1,-1 0,0 -1,1 -1,1 5,0 15,1 -19,-10 1,0 1,-1 1,0 1,-1 20,0 -11,-1 0,-1 -1,-1 0,-6 1,-1 0,-1 1,-1 0,-11 -1,1 -1,0 0,12 -12,12 19,10 -7,-14 -1,1 -8,1 -5,0 -1,1 -16,0 -1,1 -15,0 -1,-1 0,-2 -1,-1 0,-5 -1,-1 0,-3 -1,-1 0,-4 -1,-1 0,-5 -2,0 0,1 1,1 0,3 1,1 0,5 1,1 0,3 1,1 0,4 1,1 0,5 1,1 0,3 1,1 0,4 1,1 0,4 1,1 0,6 1,1 0,2 -1,1 -1,1 -1,0 -1,1 -1,0 -1,1 -2,0 -1,1 -1,0 -1,1 -2,0 -1,1 -1,0 -1,1 -2,0 -1,1 -1,0 -1,1 -2,0 -1,1 -1,0 -1,1 -2,0 -1,1 -2,0 -1,1 -2,0 -1,-1 -1,-1 0,2 -1,1 -2,2 -2,0 -1,1 -2,0 0,1 8,0 0,-2 1,-1 2,0 1,-1 1,0 1,-1 2,0 1,-1 1,0 1,-1 2,0 1,-1 1,0 1,-1 2,0 1,-1 2,0 1,-1 1,0 1,-1 2,0 1,-1 1,0 1,-1 2,0 1,-1 4,0 1,1 0,1 1,1 0,4 1,1 0,4 1,1 0,2 1,0 0,-3 -1,-1 0,-4 -1,-1 0,-4 -1,-1 0,-7 1,-1 3,0 1,-1 -5,0 -1,-1 0,-1 -1,-1 0,-2 -1,-1 0,-5 -1,-1 0,-4 -1,-1 0,-3 1,-1 4,0 42,-5 7,14 -87,27 0,-1 1,-1 -3,0 0,1 1,1 1,0 87,-27 -37,-10 5,0 1,1 0,2 1,-2 0,-1 9,-1Z"/>
<path onmouseover="hoverPath(evt)" onmouseout="recoverPath(evt)" fill="rgb(242,198,153)" d="M  91,61l 0,4 1,0 1,1 0,2 -1,1 0,9 1,1 2,0 1,1 0,4 -1,1 1,1 0,2 -1,1 0,5 -2,2 0,1 1,1 1,1 1,1 0,2 -1,1 0,1 -1,1 0,1 1,1 0,3 1,1 1,1 0,3 -1,1 -1,0 0,1 1,1 0,2 1,0 1,1 0,2 -1,1 0,3 -1,1 0,1 1,1 0,1 1,1 1,1 0,2 -1,1 -1,1 0,9 -1,1 0,16 1,1 1,0 1,1 0,6 1,0 1,1 0,5 1,1 1,1 0,3 -1,1 -1,1 1,1 0,1 1,1 1,1 0,2 1,1 1,0 1,1 0,6 1,1 0,8 -1,1 -2,0 -1,-1 0,-5 -4,0 -1,1 -2,0 -1,1 -1,0 -1,1 -2,0 -1,1 -2,0 -1,1 -2,0 -1,1 -2,0 -1,1 -1,0 -1,1 -1,0 -1,1 -1,1 -1,1 -1,1 0,1 -1,1 -1,1 -1,1 1,0 1,-1 2,-3 1,-1 1,-1 1,-1 2,-1 1,0 1,-1 1,0 2,-1 1,0 2,-1 3,-1 1,0 2,-1 2,-1 1,0 2,-1 1,0 1,1 0,2 1,1 0,5 1,1 0,5 1,1 0,1 1,0 1,1 0,4 -1,1 -6,0 0,1 1,1 5,0 1,1 0,3 1,1 0,4 -1,1 -2,0 1,1 0,1 1,1 2,0 1,1 0,1 1,1 0,2 -1,1 0,1 1,1 0,6 12,0 0,-3 -1,-1 0,-2 -1,-1 0,-3 1,-1 0,-1 -1,-1 0,-2 -1,-1 0,-3 1,-1 0,-2 -1,-1 0,-3 -1,-1 0,-3 -1,-1 0,-4 -1,3 -2,0 -1,-1 0,-5 1,-1 0,-1 -1,-1 0,-4 -1,-1 0,-7 -1,-1 0,-4 -1,-1 0,-3 -1,-1 0,-2 1,-1 0,-6 1,-1 1,-1 0,-1 1,-1 1,-1 0,-2 -1,-1 0,-5 -2,0 -1,-1 0,-1 -1,0 -1,-1 0,-3 1,-1 0,-1 1,-1 0,-1 -1,-1 0,-1 -1,0 -1,-1 0,-2 1,-1 1,-1 0,-2 -1,-1 0,-2 -1,0 -1,-1 0,-2 1,-1 0,-2 1,-1 0,-1 -1,-1 0,-2 -1,0 -1,-1 0,-2 1,-1 1,-1 0,-3 -1,-1 0,-3 -1,-1 -1,-1 0,-4 1,-1 1,0 0,-2 -1,-1 0,-2 -1,0 -1,-1 0,-3 1,-1 1,0 0,-4 -1,-1 0,-1 -1,0 -1,-1 0,-5 1,-1 1,-1 0,-2 -1,-1 0,-1 -1,0 -1,-1 0,-2 1,-1 0,-2 1,-1 0,-1 -1,-1 0,-3 -1,-1 -1,-1 0,-4 1,-1 3,0 0,-1 -1,-1 0,-9 -1,-1 0,-12 -1,-1 0,-8 -1,-1 0,-8 -1,-1 0,-6 -1,-1 0,-10 -1,-1 0,-4 -1,-1 -1,0 -1,-1 -1,0 -1,-1 0,-3 -7,0 0,3 -1,1 0,8 -1,1 1,1 0,4 1,1 0,14 -1,1 -8,0 -1,1 -5,0 -1,1 -5,0 -1,1 -4,0 -1,1 -5,0 -1,1 -4,0 -1,1 5,0 1,-1 6,0 1,-1 4,0 1,-1 5,0 1,-1 5,0 1,-1 9,0 1,1 0,2 -1,1 0,3 1,1 0,13 1,0 1,1 0,1 1,1 0,2 11,174 0,-1 -2,0 2,1 -11,-174Z"/>
<path onmouseover="hoverPath(evt)" onmouseout="recoverPath(evt)" fill="rgb(245,235,139)" d="M  115,181l 0,1 -1,1 -1,1 0,1 4,0 1,1 1,1 3,0 1,-1 53,0 1,-1 2,0 1,1 0,-1 1,-1 4,0 1,1 48,0 1,-1 1,0 1,-1 5,0 1,1 12,0 0,-8 -1,0 -1,1 -2,0 -1,-1 -26,0 -1,1 -2,0 -1,1 -4,0 -1,-1 0,-1 -2,0 -1,1 -28,0 -1,1 -4,0 -1,-1 -10,0 -1,1 -40,0 -1,1 -9,0 -1,1 -1,1Z"/>
<path onmouseover="hoverPath(evt)" onmouseout="recoverPath(evt)" fill="rgb(243,241,232)" d="M  196,237l 0,3 1,1 0,4 1,1 0,4 1,1 0,4 56,0 0,-16 -2,0 -1,1 -3,0 -1,-1 -1,-1 0,-1 -1,-1 0,-3 -2,0 -1,-1 0,-8 -1,-1 0,-1 -1,-1 -26,0 -1,-1 0,-2 1,-1 7,0 1,-1 0,-3 -1,-1 0,-1 -7,0 0,1 -1,1 0,1 -1,1 -2,0 -1,-1 0,-2 -1,0 -1,-1 -1,1 -11,0 -1,1 -4,0 0,1 1,1 0,4 1,1 0,5 1,1 0,2 1,1 0,1 9,0 1,1 0,2 -1,1 -4,0 -1,1 -3,0Z"/>
<path onmouseover="hoverPath(evt)" onmouseout="recoverPath(evt)" fill="rgb(241,239,229)" d="M  254,237l 1,0 0,-51 -13,0 -1,-1 -1,0 0,12 -1,1 0,1 -1,1 0,4 1,1 0,1 10,0 1,1 0,2 -1,1 -20,0 -1,1 -1,0 0,5 1,0 1,1 19,0 1,1 0,2 -1,1 -1,0 0,10 1,1 0,3 1,1 0,1 1,1 1,0 1,-1Z"/>
<path onmouseover="hoverPath(evt)" onmouseout="recoverPath(evt)" fill="rgb(191,214,145)" d="M  38,190l 0,4 -1,1 -7,0 5,1 0,0 1,1 1,1 1,0 1,1 1,0 1,-1 3,0 1,1 2,0 1,1 2,0 1,1 3,0 1,1 17,0 1,-1 7,0 1,1 2,0 1,1 0,3 1,-1 2,0 1,-1 2,0 1,-1 2,0 1,-1 1,0 1,-1 2,0 1,-1 1,0 0,-2 -8,0 -1,-1 0,-2 1,-1 6,0 1,-1 0,-4 -1,-1 0,0 -1,-1 -2,0 -1,1 -32,0 -1,1 -22,0 -1,1Z"/>
<path onmouseover="hoverPath(evt)" onmouseout="recoverPath(evt)" fill="rgb(232,198,110)" d="M  113,190l 0,0 -1,1 1,1 0,3 1,1 0,4 1,1 0,7 1,1 0,4 1,1 0,3 -1,1 0,3 1,-3 2,0 1,1 0,-3 -1,-1 0,-5 -1,-1 0,-12 -1,-1 0,-6 1,-1 -1,-1 -1,-1 -3,0 0,3 7,31 0,2 1,1 0,3 1,1 0,3 1,1 0,4 -1,1 0,1 1,1 0,2 1,1 0,3 -1,1 0,1 1,1 0,2 1,1 0,4 5,0 0,-2 -1,-1 0,-2 -1,-1 0,-2 -1,-1 0,-2 -1,-1 0,-3 -1,-1 0,-2 -1,-1 0,-2 -4,-13 -7,-31 10,41 0,-1 -1,-3 0,-1 -1,-3 0,-1 2,9 -10,-41Z"/>
<path onmouseover="hoverPath(evt)" onmouseout="recoverPath(evt)" fill="rgb(241,239,229)" d="M  116,174l 0,0 1,1 0,2 8,0 1,-1 40,0 1,-1 11,0 0,-5 -1,0 -1,-1 -9,0 -1,1 -23,0 -1,1 -22,0 -1,1 -3,0Z"/>
<path onmouseover="hoverPath(evt)" onmouseout="recoverPath(evt)" fill="rgb(243,242,234)" d="M  158,243l 0,0 1,1 0,2 -1,1 1,1 1,-1 2,0 1,-1 2,0 1,-1 1,0 1,-1 2,0 1,-1 1,0 1,-1 2,0 1,-1 1,0 1,-1 2,0 1,-1 1,0 1,-1 2,0 1,-1 1,0 1,-1 1,0 1,-1 -1,-1 0,-6 -1,-1 0,-4 -1,-1 0,-4 -1,-1 0,-3 -1,-1 0,-5 -1,-1 0,-4 -1,-1 0,-3 -1,-1 0,-5 -1,-1 0,-3 -2,0 -1,-1 0,-1 -1,1 -53,0 -1,1 -3,0 0,1 -1,1 0,4 1,1 0,12 1,1 0,5 1,1 0,5 1,1 0,3 1,1 0,3 1,1 0,3 1,1 0,2 1,1 0,2 1,1 0,3 1,1 0,2 1,1 0,2 1,1 0,2 1,1 0,3 14,0 0,-2 1,-1 2,0 1,-1 2,0 1,-1 1,-1 -1,-1 0,0 -1,-1 0,-3 1,-1Z"/>
<path onmouseover="hoverPath(evt)" onmouseout="recoverPath(evt)" fill="rgb(241,240,229)" d="M  165,255l 29,0 0,-1 -1,-1 0,-4 -1,-1 0,-4 -1,-1 0,-1 -2,0 -1,1 -2,0 -1,1 -1,0 -1,1 -2,0 -1,1 -1,0 -1,1 -2,0 -1,1 -2,0 -1,1 -1,0 -1,1 -2,0 -1,1 -1,0 -1,1 -2,0 -1,1 -1,0 -1,1 -2,0 0,1Z"/>
<path onmouseover="hoverPath(evt)" onmouseout="recoverPath(evt)" fill="rgb(241,238,226)" d="M  254,142l 1,0 0,-33 -8,0 -1,-1 -1,-1 0,-1 -1,-1 0,-1 -1,-1 0,-1 -1,-1 0,2 1,1 0,0 1,2 1,2 1,1 1,1 0,1 1,1 0,5 1,1 0,4 -1,1 0,5 1,1 0,2 2,0 1,1 0,4 -1,1 0,1 1,1 1,0 1,1Z"/>
<path onmouseover="hoverPath(evt)" onmouseout="recoverPath(evt)" fill="rgb(189,215,146)" d="M  7,239l -1,1 -1,1 -1,1 1,1 0,2 2,0 1,1 0,2 1,0 2,-2 1,-1 1,0 1,-1 11,0 1,1 5,0 1,1 5,0 1,1 1,0 1,-1 2,0 1,-1 1,0 1,-1 1,-1 1,-1 1,-1 0,-1 1,-1 0,-1 1,-1 0,-1 1,-1 1,-1 0,-1 1,-1 1,-1 0,-1 2,-2 1,-1 1,-1 1,-1 1,0 0,-1 1,-1 2,0 1,1 1,-1 0,0 1,-1 1,-1 0,-1 1,-1 1,0 1,-1 0,-1 1,-1 1,-1 1,-1 0,-1 1,-1 3,-3 1,-1 1,0 1,-1 1,0 1,-1 0,-2 -2,0 -1,-1 -5,0 0,2 -1,1 -6,0 0,1 -1,1 -2,0 0,4 -1,1 -1,1 -10,0 0,1 -1,1 -3,0 -1,-1 -10,0 -1,-1 0,-1 -1,0 -1,-1 -11,0 -1,1 -8,0 0,1 -1,1 0,3 -1,1 0,2 -1,1 0,3 -1,1 0,10 -3,3Z"/>
<path onmouseover="hoverPath(evt)" onmouseout="recoverPath(evt)" fill="rgb(242,230,145)" d="M  47,87l -41,0 -1,1 -5,0 0,6 13,0 0,-1 1,-1 30,0 0,-1 1,-1 12,0 1,1 1,-1 2,0 1,1 0,1 1,1 14,0 1,1 10,0 1,1 0,12 -1,1 -2,0 1,1 0,3 -1,1 -1,0 -1,1 2,0 1,1 2,0 1,1 0,7 -1,1 -2,0 1,1 0,3 -1,1 -1,1 2,-1 1,0 1,1 0,2 1,1 0,3 1,1 0,1 2,0 1,1 0,-3 1,-1 1,-1 -1,-1 0,0 -1,-1 0,-1 -1,-1 0,-3 1,-1 0,-3 1,-1 -1,0 -1,-1 0,-2 -1,-1 0,-3 1,-1 1,0 0,-1 -1,-1 0,0 -1,-1 0,-3 -1,-1 0,-3 1,-1 0,-1 1,-1 -1,-1 -1,-1 -1,-1 0,-3 1,-1 1,-1 0,-5 1,-1 -1,-1 0,-2 1,-1 0,-2 -2,0 -1,-1 -1,-1 0,-11 1,-1 -1,0 -1,-1 0,6 1,8 0,6 -1,1 -5,0 -1,-1 0,-1 -13,0 -1,1 -19,0 -1,1Z"/>
<path onmouseover="hoverPath(evt)" onmouseout="recoverPath(evt)" fill="rgb(237,235,225)" d="M  49,105l 2,0 1,-1 3,0 1,1 1,0 1,1 0,3 -1,1 0,1 -1,1 2,-1 0,0 1,-1 1,0 -1,-1 0,-16 1,-1 -2,1 -1,0 -1,-1 -10,0 0,1 -1,1 -30,0 0,1 -1,1 -14,0 0,52 3,0 1,-1 2,0 0,-2 1,-1 0,-2 -1,-1 0,-2 -1,-1 0,-1 -1,-1 0,-3 1,-1 0,-8 -1,-1 0,-15 1,-1 1,-1 1,0 1,-1 8,0 1,1 10,0 1,-1 16,0 1,1 2,0 1,-1Z"/>
<path onmouseover="hoverPath(evt)" onmouseout="recoverPath(evt)" fill="rgb(252,251,250)" d="M  69,222l 0,0 1,-1 1,0 0,-1 -2,1 -2,3 -1,1 -1,1 0,1 1,1 0,2 1,0 1,1 2,0 1,1 0,3 1,-1 1,0 1,-1 1,0 1,-1 3,0 1,-1 13,0 1,1 2,0 -2,-1 0,-3 1,-1 -3,0 -1,1 -7,0 -1,1 -5,0 -1,1 -9,0 1,-8 -3,5 0,-1 31,1Z"/>
<path onmouseover="hoverPath(evt)" onmouseout="recoverPath(evt)" fill="rgb(243,241,233)" d="M  70,238l 0,0 -1,1 -1,1 -1,1 -1,0 0,1 -1,1 -1,1 0,1 -1,1 -2,0 1,1 0,8 47,0 0,-5 -1,-1 0,-2 -1,-1 0,-1 -1,-1 0,-1 -1,-1 -1,-1 0,-1 -1,-1 -1,-1 -1,-1 -1,-1 -1,0 -1,-1 0,-2 -1,1 -4,0 -1,-1 -11,0 -1,1 -3,0 -1,1 -1,0 -1,1 -1,0 -1,1 -1,0 -1,1 29,-6 4,0 1,1 0,1 1,1 1,1 0,-2 -1,-1 0,-3 -5,0 -1,-1 -3,0 0,1 1,0 1,1 1,1 -29,6Z"/>
<path onmouseover="hoverPath(evt)" onmouseout="recoverPath(evt)" fill="rgb(241,239,229)" d="M  81,112l 2,0 1,-1 1,0 0,-1 -1,-1 -1,0 -1,-1 0,-2 1,-1 3,0 1,1 0,-10 -10,0 -1,-1 -14,0 -1,-1 0,14 1,1 0,2 -1,1 -1,0 -1,1 -1,0 -1,1 0,2 -1,1 0,1 -1,1 0,1 -1,1 -2,0 -1,1 -1,1 -1,0 0,2 -1,1 1,1 0,3 33,0 1,-1 1,0 1,-1 1,-1 0,-1 -1,-1 0,-2 1,-1 2,0 0,-5 -2,0 -1,-1 -4,0 -1,-1 0,-2 1,-1Z"/>
<path onmouseover="hoverPath(evt)" onmouseout="recoverPath(evt)" fill="rgb(242,240,230)" d="M  95,207l 0,0 -1,1 -3,0 -1,1 -1,0 -1,1 -2,0 -1,1 -1,0 -1,1 -2,0 -1,1 -1,1 -1,1 -1,1 -1,1 0,1 -1,1 -1,1 -1,0 0,2 -1,1 -1,0 -1,1 -1,1 -1,1 0,2 8,0 1,-1 5,0 1,-1 7,0 1,-1 7,0 1,-1 6,0 0,-2 -1,0 -1,-1 0,-1 -1,-1 0,-5 -1,-1 0,-5 -1,-1 0,-2 -1,1 -2,0 -1,1Z"/>
<path onmouseover="hoverPath(evt)" onmouseout="recoverPath(evt)" fill="rgb(253,253,253)" d="M  112,39l 1,0 1,1 10,0 1,1 11,0 1,1 11,0 1,1 11,0 1,1 11,0 1,1 11,0 1,1 11,0 1,1 10,0 1,1 7,0 1,1 4,0 1,1 3,0 1,1 1,0 0,-2 -4,0 -1,-1 -4,0 -1,-1 -7,0 -1,-1 -10,0 -1,-1 -11,0 -1,-1 -11,0 -1,-1 -10,0 -1,-1 -7,0 -1,-1 0,-3 -1,0 0,1 -1,1 -1,1 -13,0 -1,-1 -11,0 -1,-1 -11,0 -1,-1 -1,1 42,-2 1,0 1,-1 4,0 -6,1 -42,2Z"/>
<path onmouseover="hoverPath(evt)" onmouseout="recoverPath(evt)" fill="rgb(252,252,251)" d="M  176,167l 1,0 1,1 1,0 1,1 0,7 2,0 0,-1 -1,-1 0,-6 1,-1 3,0 1,-1 -4,0 -1,-1 -1,-1 0,-6 -1,-1 0,-6 -1,-1 0,-7 -1,-1 0,-8 1,-1 5,0 1,-1 -7,0 -1,-1 0,-3 -1,-1 0,-6 -1,-1 0,-3 -1,0 0,3 1,1 0,11 -1,1 -2,0 -1,-1 0,6 2,0 1,1 2,0 1,1 0,3 1,1 0,6 1,1 0,6 -1,1 -7,0 -1,1 -16,0 -1,1 3,0 15,-1 8,0 1,1 0,5 -1,1 -1,0 -1,1 -6,-39 0,-1 -1,0 -1,-1 0,1 -1,-1 -5,0 4,41 -3,0 -1,1 -23,0 -1,1 -21,0 -1,1 2,0 21,-1 2,0 22,-1Z"/>
<path onmouseover="hoverPath(evt)" onmouseout="recoverPath(evt)" fill="rgb(253,253,253)" d="M  239,94l 0,0 1,-1 0,0 1,-1 1,0 1,-1 2,0 1,-1 4,0 1,-1 4,0 0,-6 -2,0 -1,1 -4,0 -1,1 -3,0 -1,1 -3,0 -1,1 -2,0 0,4 1,0 1,1Z"/>
<path onmouseover="hoverPath(evt)" onmouseout="recoverPath(evt)" fill="rgb(241,239,229)" d="M  243,94l -1,0 -1,1 0,1 1,1 1,1 0,1 1,1 1,1 0,1 1,1 0,1 1,1 0,1 1,1 7,0 0,-16 -3,0 -1,1 -4,0 -1,1 -2,0 -1,1Z"/>
</svg>