<svg width="256" height="256" xmlns="http://www.w3.org/2000/svg"><script> 
var tempColor;
function hoverPath(evt){
obj = evt.target;
tempColor = obj.getAttribute("fill");
obj.setAttribute("fill","red");
//alert(tempColor);
//obj.setAttribute("stroke","red");}
function recoverPath(evt){
obj = evt.target;
obj.setAttribute("fill", tempColor);
//obj.setAttribute("stroke", tempColor);
}</script><path onmouseover="hoverPath(evt)" onmouseout="recoverPath(evt)" fill="rgb(243,241,232)" d="M  149,248l -1,0 -1,1 -2,0 -1,1 -3,0 -1,1 -2,0 -1,1 -2,0 -1,1 -3,0 -1,1 -3,0 0,1 81,0 0,-2 -1,-1 0,-1 -1,-1 0,-1 -1,-1 0,-1 -2,0 -1,-1 0,-1 -1,-1 0,-2 1,-1 -1,-1 0,-2 -1,-1 0,-1 -1,-1 0,-1 -1,-1 0,-1 -2,0 -1,1 -2,0 -1,1 -2,0 -1,1 -2,0 -1,1 -2,0 -1,1 -2,0 -1,1 -2,0 -1,1 -2,0 -1,1 -2,0 -1,1 -2,0 -1,1 -2,0 -1,1 -2,0 -1,1 -2,0 -1,1 -2,0 -1,1 -2,0 -1,1 -3,0 -1,1Z"/>
<path onmouseover="hoverPath(evt)" onmouseout="recoverPath(evt)" fill="rgb(243,241,233)" d="M  157,16l 0,2 1,1 0,3 1,1 0,3 1,1 0,2 1,1 0,4 1,1 0,3 1,1 0,1 1,-1 3,0 1,-1 5,0 0,-2 1,-1 2,0 1,1 1,1 1,-1 1,0 1,-1 3,0 1,-1 1,-1 0,-5 -1,-1 0,-6 -1,-1 0,-7 -1,-1 0,-7 -1,-1 0,-4 -28,0 0,1 1,1 0,3 1,1 0,3 1,1 4,0 1,1 0,2 -1,1 -3,0 -1,1Z"/>
<path onmouseover="hoverPath(evt)" onmouseout="recoverPath(evt)" fill="rgb(171,198,238)" d="M  202,224l -2,0 1,1 0,1 1,1 0,1 1,0 1,-1 2,0 1,-1 2,0 1,-1 2,0 1,-1 2,0 1,-1 1,0 1,-1 2,0 1,-1 2,0 1,-1 2,0 1,-1 2,0 1,-1 1,0 1,-1 2,0 1,-1 2,0 1,-1 2,0 1,-1 2,0 1,-1 2,0 1,-1 3,0 1,-1 4,0 0,-4 -2,0 -1,1 -3,0 -1,1 -2,0 -1,1 -2,0 -1,1 -2,0 -1,1 -2,0 -1,1 -2,0 -1,1 -3,0 -1,1 -2,0 -1,1 -2,0 -1,1 -2,0 -1,1 -2,0 -1,1 -2,0 -1,1 -2,0 -1,1 -2,0 -1,1 -2,0 -1,1 -2,0 -1,1Z"/>
<path onmouseover="hoverPath(evt)" onmouseout="recoverPath(evt)" fill="rgb(244,243,236)" d="M  2,129l -2,0 0,68 3,0 1,-1 3,0 1,-1 4,0 1,-1 2,0 1,-1 3,0 1,-1 2,0 1,-1 4,0 1,-1 2,0 0,-2 1,-1 0,-1 -1,-1 0,-5 -1,-1 0,-6 -1,-1 0,-6 -1,-1 0,-5 -1,-1 0,-5 -1,-1 0,-7 -1,-1 0,-6 -1,-1 0,-6 -1,-1 0,-6 -1,-1 0,-4 -1,1 -1,0 -1,1 -1,0 -1,1 -1,0 -1,1 -1,0 -1,1 -2,0 -1,1 -1,0 -1,1 -1,0 -1,1 -1,0 -1,1Z"/>
<path onmouseover="hoverPath(evt)" onmouseout="recoverPath(evt)" fill="rgb(248,237,150)" d="M  17,113l 0,0 -1,1 -3,0 -1,1 -4,0 -1,1 -1,0 -1,1 -1,0 -1,1 -3,0 0,9 2,0 1,-1 1,0 1,-1 1,0 1,-1 1,0 1,-1 2,0 1,-1 1,0 1,-1 1,0 1,-1 1,0 1,-1 1,0 1,-1 2,0 1,1 0,4 1,1 0,6 1,1 0,6 1,1 0,6 1,1 0,7 1,1 0,5 1,1 0,5 1,1 0,6 1,1 0,6 1,1 0,5 1,1 0,3 -1,1 1,0 1,1 0,4 -1,1 -3,0 4,1 0,0 1,1 0,4 1,1 0,2 1,1 0,3 2,0 1,1 0,2 1,1 0,2 -1,1 1,1 0,2 1,1 0,2 1,1 0,1 1,1 0,2 -1,1 -1,1 0,2 5,0 1,1 0,2 1,0 1,1 0,2 -1,1 1,1 0,1 1,1 0,2 -1,1 -1,1 2,-1 1,0 1,1 0,2 1,1 0,1 1,1 0,1 1,1 0,1 1,1 0,2 6,0 0,-2 -1,-1 0,-1 -1,-1 0,-3 -1,-1 -1,-1 0,-1 -1,-1 0,-2 -1,-1 0,-2 -1,0 -1,-1 -1,-1 -1,-1 0,-7 1,-1 -1,-1 0,-2 1,-1 2,0 1,-1 -5,0 -1,-1 -1,-1 0,-1 -1,-1 0,-5 -1,1 -2,0 -1,-1 0,-1 -1,-1 0,-1 -1,-1 0,-3 -1,-1 0,-3 -1,-1 0,-4 -1,-1 0,-3 1,-1 -2,0 -1,-1 0,-6 1,-1 -1,-1 0,-5 -1,-1 0,-3 1,-1 1,0 1,-1 7,0 1,1 1,0 -1,-1 -11,0 -1,-1 0,-4 -1,-1 0,-6 -1,-1 0,-6 -1,0 -1,-1 0,-3 1,-1 0,-2 -1,-1 0,-5 -1,-1 0,-6 -1,-1 -1,-1 0,-3 1,-1 0,-2 -1,-1 0,-9 1,-1 4,0 1,1 0,1 1,1 0,-4 1,-1 4,0 1,-1 5,0 1,-1 0,-3 1,-1 1,0 1,-1 1,0 1,-1 2,0 1,-1 3,0 1,-1 2,0 1,-1 1,0 1,-1 1,0 1,-1 8,0 1,-1 1,-1 3,0 1,-1 7,0 0,-1 -1,-1 0,-4 1,-1 3,0 1,-1 2,0 1,-1 2,0 1,-1 3,0 1,-1 1,0 0,-1 1,-1 2,0 1,-1 1,0 1,-1 2,0 1,-1 1,0 1,-1 2,0 1,-1 1,0 1,-1 2,0 1,-1 1,0 1,-1 1,0 1,-1 2,0 0,-1 1,-1 1,-1 2,0 1,1 1,-1 1,0 1,-1 2,0 1,-1 2,0 1,-1 1,0 1,-1 2,0 1,-1 1,0 1,-1 2,0 1,-1 1,0 1,-1 2,0 1,-1 2,0 1,-1 3,0 1,-1 2,0 1,-1 3,0 1,-1 2,0 1,-1 4,0 1,-1 3,0 1,-1 3,0 1,-1 3,0 0,-1 1,-1 1,0 1,-1 2,0 1,-1 3,0 1,1 2,0 1,-1 3,0 1,-1 5,0 1,1 0,-2 1,-1 5,0 1,-1 3,0 1,-1 2,0 1,-1 4,0 1,1 0,3 2,0 1,1 0,1 1,1 0,3 -1,1 0,1 1,1 0,1 1,1 0,1 1,1 0,1 1,1 0,2 1,1 2,0 1,1 0,4 1,1 0,2 2,0 1,1 0,2 1,1 1,1 0,2 -1,1 1,1 0,2 1,1 0,1 1,1 0,1 1,1 0,1 1,1 0,2 1,1 0,1 1,0 0,-25 -3,0 -1,-1 0,-1 -1,-1 0,-1 -1,-1 0,-1 -1,-1 0,-1 -1,-1 0,-2 -1,-1 0,-1 -1,-1 0,-1 -1,-1 0,-1 -1,-1 0,-2 -1,-1 0,-4 1,-1 0,-2 1,-1 0,-1 1,-1 2,0 1,-1 4,0 1,-1 2,0 0,-5 -3,0 -1,-1 0,1 -1,1 -5,0 -1,1 -6,0 -2,-2 -1,-1 0,-4 1,6 0,2 -1,1 -6,0 -1,-1 0,1 -1,1 -1,0 0,1 -1,1 -4,0 -1,1 -4,0 -1,-1 -4,0 -1,1 -3,0 -1,1 -3,0 0,1 -1,1 -7,0 0,2 -1,1 -3,0 -1,1 -2,0 -1,-1 0,-7 -3,0 -1,1 -5,0 -1,-1 0,-1 -2,-2 0,2 1,1 0,5 -1,1 0,4 -1,1 -5,0 -1,1 -3,0 0,1 -1,1 -5,0 -1,1 -2,0 -1,1 -3,0 -1,1 -2,0 -1,1 -2,0 -1,1 -1,0 -1,1 -2,0 -1,1 -1,0 -1,1 -2,0 -1,1 -1,0 0,2 -1,1 -7,0 -1,-1 0,1 -1,1 0,0 -1,1 -1,0 -1,1 -1,0 -1,1 -2,0 -1,1 -4,0 -1,-1 0,2 -1,1 -1,1 -2,0 -1,1 -1,0 -1,1 -2,0 -1,1 -1,0 -1,1 -2,0 -1,1 -1,0 -1,1 -1,0 -1,1 -2,0 -1,1 -2,0 -1,1 -1,0 -1,1 -1,0 -1,1 -2,0 -1,1 -1,0 -1,1 -1,0 -1,1 -2,0 -1,1 -2,0 -1,1 -1,0 -1,1 -2,0 -1,1 -1,0 -1,1 -2,0 -1,1 -1,0 -1,1 -2,0 -1,1 -1,0 -1,1 -2,0 -1,1 -1,0 -1,1 -1,0 -1,1 -2,0 -1,1 -1,0 -1,1 -1,0 -1,1 -2,0 -1,1 -2,0 -1,1 -1,0 -1,1 -4,0 -1,-1 0,-3 -1,-1 0,-2 -1,-1 0,-2 -1,-1 0,-3 -1,-1 0,-2 -5,0 0,9 1,1 0,1 1,1 0,3 1,0 1,1 0,4 -1,1 -1,0 0,1 -1,1 0,1 33,99 0,0 1,-1 -1,0 -1,1 3,-1 0,0 1,-1 1,0 -4,2 -33,-99Z"/>
<path onmouseover="hoverPath(evt)" onmouseout="recoverPath(evt)" fill="rgb(241,240,229)" d="M  62,1l 0,1 -1,1 0,2 1,1 0,3 1,1 0,3 1,1 0,3 1,1 4,0 1,-1 7,0 1,-1 3,0 0,-1 1,-1 0,-1 1,-1 2,0 1,1 0,1 1,1 4,0 1,-1 5,0 1,-1 5,0 1,-1 1,0 0,-3 -2,0 -1,-1 0,-2 1,-1 0,-1 -1,-1 0,-3 -39,0 -1,1Z"/>
<path onmouseover="hoverPath(evt)" onmouseout="recoverPath(evt)" fill="rgb(238,238,231)" d="M  78,24l -2,0 0,3 1,1 0,3 1,1 0,3 -1,1 0,1 2,0 1,1 0,2 1,1 0,1 1,1 0,3 -1,1 2,0 1,1 1,0 1,-1 4,0 1,1 1,0 0,-2 1,-1 3,0 1,1 2,0 1,1 1,1 0,2 1,1 0,1 1,1 0,1 1,1 0,1 1,1 0,1 1,1 0,3 -1,1 -2,0 -1,1 -1,0 -1,1 -1,0 -1,1 -1,0 -1,1 -1,0 -1,1 -2,0 -1,1 0,1 2,0 1,-1 2,0 1,-1 1,0 1,-1 1,0 1,-1 1,0 1,-1 1,0 1,-1 3,0 1,1 0,1 1,1 0,1 2,0 1,1 2,0 1,-1 2,0 1,-1 1,0 1,-1 1,0 1,-1 0,-1 1,-1 0,-1 -1,-1 0,-2 -1,-1 -1,-1 0,-2 -1,-1 0,-3 -1,-1 0,-1 -1,-1 0,-3 -1,-1 0,-1 -1,-1 0,-2 -1,-1 0,2 -1,1 -1,1 -1,1 -3,0 -1,-1 0,-2 1,-1 1,-1 -1,-1 0,-1 -1,-1 0,-5 1,-1 2,0 1,1 0,-2 -1,-1 0,-1 -1,-1 0,-2 -1,-1 0,-2 -1,-1 0,-1 1,5 0,1 -1,1 -2,0 -1,-1 0,-1 -1,-1 0,-1 -1,-1 0,-1 -7,0 -1,1 -6,0 -1,1 -5,0 -1,1 -3,0 -1,1Z"/>
<path onmouseover="hoverPath(evt)" onmouseout="recoverPath(evt)" fill="rgb(243,241,232)" d="M  136,73l -1,0 -1,1 0,1 1,1 0,2 1,1 0,1 1,1 0,2 1,1 0,2 1,1 0,2 1,1 0,2 1,1 18,0 1,-1 10,0 1,-1 1,0 1,-1 2,0 0,-6 1,-1 0,-1 1,-1 0,-2 1,-1 3,0 1,-1 3,0 1,-1 3,0 1,-1 6,0 0,-2 -1,-1 0,-2 -1,-1 0,-2 -1,-1 0,-1 -1,-1 0,-2 -1,-1 0,-2 -1,-1 0,-2 -2,0 -1,1 -3,0 -1,1 -3,0 -1,1 -4,0 -1,1 -2,0 -1,1 -3,0 -1,1 -2,0 -1,1 -3,0 -1,1 -2,0 -1,1 -2,0 -1,1 -1,0 -1,1 -2,0 -1,1 -1,0 -1,1 -2,0 -1,1 -1,0 -1,1 -2,0 -1,1 -2,0 -1,1 61,2 -61,-2Z"/>
<path onmouseover="hoverPath(evt)" onmouseout="recoverPath(evt)" fill="rgb(172,198,238)" d="M  230,137l 0,1 1,1 0,1 1,1 0,1 1,1 0,1 1,1 0,1 1,1 0,1 1,1 0,1 1,1 0,1 1,1 0,1 1,1 0,1 1,1 0,1 1,1 0,1 1,1 0,1 1,1 0,1 1,1 0,1 1,1 0,1 1,1 0,1 1,1 0,1 1,1 0,2 1,1 0,1 1,1 0,1 1,1 0,1 1,1 0,1 1,1 0,1 1,1 0,1 1,1 0,-16 -2,0 -1,-1 0,-1 -1,-1 0,-1 -1,-1 0,-1 -1,-1 0,-2 -1,-1 0,-1 -1,-1 0,-1 -1,-1 0,-1 -1,-1 0,-1 -1,-1 0,-1 -1,-1 0,-1 -1,-1 0,-1 -1,-1 0,-1 -1,-1 0,-2 -1,0 -1,-1 0,-3 -1,-1 -1,-1 0,-1 -1,-1 0,-2 -1,1 -1,0 -1,1 -1,0 -1,1Z"/>
<path onmouseover="hoverPath(evt)" onmouseout="recoverPath(evt)" fill="rgb(244,242,235)" d="M  8,34l 0,1 -1,1 -3,0 -1,1 -3,0 0,7 2,0 0,-1 1,-1 4,0 1,-1 2,0 1,1 0,3 1,1 0,3 1,1 0,3 1,1 0,2 1,1 0,3 -1,1 0,3 2,0 1,1 0,3 -1,1 -1,0 -1,1 -3,0 0,1 -1,1 0,2 1,1 0,3 1,-1 4,0 1,-1 2,0 1,1 0,4 -1,1 0,1 1,1 1,0 1,1 0,2 1,1 0,2 1,1 0,3 1,1 0,2 1,1 0,2 1,1 0,3 2,0 1,-1 1,0 1,-1 2,0 1,-1 2,0 1,-1 1,0 1,-1 1,0 1,-1 2,0 1,-1 1,0 1,-1 1,0 1,-1 2,0 1,-1 1,0 1,-1 2,0 1,-1 1,0 1,-1 2,0 1,-1 1,0 1,-1 2,0 1,-1 1,0 1,-1 2,0 1,-1 2,0 1,-1 1,0 1,-1 1,0 1,-1 2,0 1,-1 1,0 1,-1 1,0 1,-1 2,0 1,-1 2,0 1,-1 1,0 1,-1 1,0 1,-1 2,0 1,-1 1,0 1,-1 2,0 1,-1 1,0 1,-1 2,0 1,-1 0,-1 -1,-1 0,-1 -1,-1 0,-1 -1,0 -1,1 -1,0 -1,1 -1,0 -1,1 -1,0 -1,1 -1,0 -1,1 -2,0 -1,1 -4,0 -1,-1 0,-3 1,-1 1,-1 2,0 1,-1 1,0 1,-1 1,0 1,-1 1,0 1,-1 1,0 1,-1 2,0 0,-1 -1,-1 0,-1 -1,-1 0,-1 -1,-1 0,-1 -1,-1 0,-1 -1,-1 0,-2 -1,-1 -2,0 -1,-1 -1,0 0,2 -1,1 -3,0 -1,-1 -2,0 -1,1 -3,0 -1,-1 -2,0 -1,-1 0,-2 1,-1 0,-1 -1,-1 0,-1 -1,-1 0,-2 -2,0 -1,-1 0,-3 1,-1 0,-1 -2,0 -1,-1 0,-1 -1,-1 0,-2 -1,-1 0,-1 -1,-1 0,-1 -1,-1 -3,0 -1,1 -6,0 -1,1 -6,0 -1,1 -6,0 -1,1 -7,0 -1,1 -6,0 -1,1 -6,0 -1,1 -6,0 -1,1 -5,0 -1,1 -2,0 1,1Z"/>
<path onmouseover="hoverPath(evt)" onmouseout="recoverPath(evt)" fill="rgb(242,241,232)" d="M  36,154l 0,4 1,1 0,6 1,1 0,4 11,0 1,1 1,1 0,2 -1,1 -3,0 -1,-1 -5,0 -1,1 -1,0 0,1 1,1 0,5 1,1 0,1 1,0 1,1 1,-1 1,0 1,-1 1,0 1,-1 1,0 1,-1 0,-3 1,-1 2,0 1,1 0,2 1,1 1,1 1,0 1,-1 3,0 1,-1 2,0 1,-1 2,0 1,-1 3,0 1,-1 2,0 1,-1 2,0 1,-1 3,0 1,-1 1,0 0,-2 -1,-1 0,-1 -1,-1 0,-3 1,-1 2,0 1,1 0,1 1,1 0,1 1,1 0,1 1,1 3,0 1,-1 1,0 1,-1 2,0 1,-1 -2,0 -1,-1 0,-2 1,-1 3,0 1,-1 2,0 1,-1 1,0 1,-1 3,0 1,-1 1,0 1,-1 0,-1 -1,-1 0,-1 -1,-1 0,-2 -1,-1 0,-1 -1,-1 0,-2 -5,0 -1,-1 0,-2 1,-1 2,0 1,-1 1,0 1,-1 -1,-1 0,-2 -2,0 -1,-1 0,-2 1,-1 0,-1 -1,-1 0,-2 -1,-1 0,-1 -1,-1 0,-2 -1,-1 0,-1 -3,0 -1,-1 0,-2 1,-1 1,0 -2,-1 0,-2 1,-1 0,-1 -4,0 -1,-1 0,-2 1,-1 2,0 0,-2 -1,-1 0,-1 -1,-1 0,-1 -1,-1 0,-2 -2,0 -1,1 -3,0 -1,-1 -1,0 0,2 -1,1 -1,0 -1,1 -7,0 -1,-1 -1,-1 0,-1 -1,-1 0,-2 -2,0 -1,1 -1,0 -1,1 -1,0 -1,1 -2,0 -1,1 -3,0 -1,1 -2,0 -1,1 -1,0 -1,1 -1,0 0,2 1,1 0,2 -1,1 0,1 2,0 1,1 0,1 1,1 0,1 1,1 0,2 1,1 1,1 0,2 1,1 0,1 1,1 0,2 1,1 0,4 -1,1 -3,0 -1,1 0,1 1,1 0,0 1,1 1,1 0,3 1,1 0,2 -2,2 -1,1 -2,0 -1,1 -6,0 -1,-1 0,-1 -3,0 -1,1 -2,0 -1,1 -3,0Z"/>
<path onmouseover="hoverPath(evt)" onmouseout="recoverPath(evt)" fill="rgb(242,241,232)" d="M  57,225l -2,0 1,1 0,2 -1,1 0,5 1,1 1,1 1,0 1,1 0,2 1,1 0,2 1,1 0,1 1,1 1,1 1,0 1,1 1,0 1,1 10,0 1,-1 0,-2 1,-1 2,0 1,-1 3,0 1,-1 3,0 1,1 3,0 1,-1 11,0 1,-1 6,0 1,-1 1,0 0,-2 1,-1 1,-1 3,0 0,-8 -1,0 -1,-1 -1,1 -2,0 -1,-1 0,-2 1,-1 0,-1 -1,-1 -1,0 -1,1 -2,0 -1,-1 0,-1 -1,-1 0,-1 -1,-1 0,-1 -1,-1 0,-2 -1,-1 0,-2 1,-1 -2,0 -1,-1 0,-1 -1,-1 0,-1 -1,-1 0,-2 -1,-1 0,-1 -1,-1 0,-2 1,-1 0,-1 -1,-1 0,0 -1,-1 0,-1 -1,-1 -2,0 -1,-1 -1,-1 0,-3 1,-1 0,-1 -1,-1 0,0 -1,-1 -1,-1 0,-1 -2,0 -1,-1 -1,-1 -2,0 -1,1 -2,0 -1,1 -2,0 -1,1 -3,0 -1,1 -2,0 -1,1 -1,0 0,1 -1,1 -1,1 -1,0 -1,1 -2,0 -1,1 -3,0 -1,1 -2,0 -1,1 -2,0 -1,1 -2,0 -1,1 0,3 -1,1 -2,0 -1,-1 0,-1 -1,-1 -2,0 0,1 1,1 0,4 1,1 0,3 1,1 0,3 1,1 0,1 1,1 0,1 1,-2 1,-1 1,0 1,-1 4,0 1,1 0,2 -1,1 -1,0 -1,1 -1,0 -1,1 0,3 1,1 0,1 1,1 7,0 1,1 0,2 -1,1 -2,0 -1,1Z"/>
<path onmouseover="hoverPath(evt)" onmouseout="recoverPath(evt)" fill="rgb(243,242,234)" d="M  191,185l -5,5 -1,0 0,2 2,0 1,1 0,2 -1,1 0,1 1,1 0,1 1,1 0,1 2,0 1,1 0,2 -1,1 2,0 1,1 0,2 -1,1 1,1 0,2 1,1 0,1 1,1 0,1 2,0 1,1 0,1 1,1 0,2 -1,1 2,0 1,-1 2,0 1,-1 2,0 1,-1 2,0 1,-1 2,0 1,-1 2,0 1,-1 2,0 1,-1 2,0 1,-1 2,0 1,-1 2,0 1,-1 3,0 1,-1 2,0 1,-1 2,0 1,-1 2,0 1,-1 2,0 1,-1 2,0 1,-1 3,0 1,-1 3,0 0,-15 -1,0 -1,-1 -1,-1 0,-1 -1,-1 0,-1 -1,-1 0,-1 -1,-1 0,-1 -1,-1 0,-1 -1,-1 0,-1 -1,-1 0,-2 -1,-1 0,-1 -1,-1 0,-1 -1,-1 0,-1 -1,-1 0,-1 -1,-1 0,-1 -1,-1 0,-1 -1,-1 0,-1 -1,-1 0,-1 -1,-1 0,-1 -1,-1 0,-1 -1,-1 0,-1 -1,-1 0,-1 -1,-1 0,-1 -1,-1 0,-1 -1,-1 0,-1 -1,-1 0,-1 -1,-1 0,-1 -1,-1 0,-3 -1,0 -1,1 -2,0 -1,1 -2,0 -1,1 -2,0 -1,1 -2,0 -1,1 -2,0 0,2 -1,1 -2,0 -1,-1 -2,0 -1,1 -3,0 0,7 1,1 3,0 1,1 1,1 0,2 1,1 1,1 2,0 1,1 1,1 2,0 1,1 1,1 1,1 0,4 1,0 1,-1 4,0 1,1 0,2 1,1 0,1 1,1 0,1 1,1 0,2 1,1 0,2 1,1 0,1 1,1 2,0 1,1 0,2 -1,1 1,1 0,1 1,1 0,1 1,1 0,7 -1,1 -1,1 -1,0 -1,1 -2,0 -1,-1 -1,0 -1,1 -3,0 -1,1 -12,0 -1,1 -2,0 -1,-1 -1,0 -1,-1 -1,0 -1,-1 -1,-1 -1,-1 -1,-1 0,-1 -1,-1 0,-1 -1,-1 -1,-1 0,-1 -1,-1 0,-1 -1,-1 0,-1 -1,-1 0,-1 -1,-1 0,-1 -1,1 -1,0 -1,1Z"/>
<path onmouseover="hoverPath(evt)" onmouseout="recoverPath(evt)" fill="rgb(241,240,231)" d="M  246,23l -5,0 -1,1 -1,0 0,4 1,1 0,1 1,0 1,1 2,0 1,1 4,0 0,-1 1,-1 2,0 1,1 2,0 0,-31 -17,0 0,2 -1,1 -1,1 -1,1 -2,0 -1,1 -1,1 0,5 1,1 0,3 1,1 0,3 2,0 1,-1 0,0 1,-1 2,0 1,1 1,0 1,-1 3,0 1,1 1,1 0,2 -1,1Z"/>
<path onmouseover="hoverPath(evt)" onmouseout="recoverPath(evt)" fill="rgb(242,238,229)" d="M  0,11l 0,16 1,0 1,-1 11,0 1,-1 6,0 1,-1 6,0 1,-1 5,0 1,-1 1,0 0,-2 -1,-1 0,-1 -1,-1 0,-4 -1,-1 0,-2 -1,-1 0,-9 -31,0Z"/>
<path onmouseover="hoverPath(evt)" onmouseout="recoverPath(evt)" fill="rgb(252,252,251)" d="M  40,187l 0,3 4,0 1,1 0,1 1,1 1,1 0,-2 1,-1 1,-1 2,0 1,-1 2,0 1,-1 2,0 1,-1 3,0 1,-1 2,0 1,-1 1,0 1,-1 0,-1 1,-1 1,0 1,-1 2,0 1,-1 3,0 1,-1 2,0 1,-1 2,0 1,-1 4,0 1,1 1,1 0,-3 1,-1 2,0 1,-1 2,0 1,-1 3,0 1,-1 3,0 1,-1 2,0 1,-1 3,0 1,1 1,0 0,-2 1,-1 4,0 1,-1 2,0 1,-1 1,0 1,-1 3,0 1,-1 2,0 1,-1 3,0 1,-1 2,0 1,-1 7,0 1,1 0,-2 1,-1 1,-1 3,0 1,-1 2,0 1,-1 3,0 1,-1 2,0 1,-1 2,0 1,1 1,1 1,1 0,2 1,1 0,1 1,1 0,1 1,1 0,1 1,1 0,1 1,1 0,2 1,1 0,1 1,1 0,1 1,1 0,1 1,1 0,1 1,1 0,2 1,1 0,1 1,1 0,3 -1,1 -3,0 1,1 0,1 1,1 0,1 1,1 0,1 1,1 0,2 1,1 0,10 1,-5 1,0 1,-1 3,0 1,1 1,1 0,2 -1,1 2,0 1,1 0,1 1,1 0,1 1,1 0,1 1,1 0,1 1,1 0,1 1,1 0,2 1,1 0,1 1,1 0,2 1,1 0,1 1,1 0,2 1,0 1,1 0,1 1,1 0,1 1,1 0,1 1,1 0,2 1,1 0,2 -1,1 1,1 0,1 2,0 1,1 0,1 1,1 0,1 1,1 0,1 1,1 0,3 2,0 0,-1 -1,-1 0,-1 -1,-1 0,-3 1,-1 -1,-1 0,-1 -2,0 -1,-1 0,-1 -1,-1 0,-2 1,-1 2,0 -3,-1 0,-1 -2,0 -1,-1 0,-1 -1,-1 0,-1 -1,-1 0,-2 -1,-1 0,-1 -1,-1 0,-1 -1,-1 0,-1 -1,-1 0,-2 1,-1 -1,-1 0,-1 -2,0 -1,-1 0,-1 -1,-1 0,-1 -1,-1 0,-2 -1,-1 0,-2 1,-1 -2,0 -1,-1 0,-2 1,-1 -2,0 -1,-1 0,-1 -1,-1 0,-1 -1,-1 0,-3 1,-1 -2,0 -1,-1 0,-4 1,-1 1,0 1,-1 1,-1 1,-1 1,-1 1,-1 1,-1 1,0 1,-1 2,0 0,-2 -1,-1 -1,-1 0,3 -1,1 -1,0 -151,6 133,0 -1,-1 -1,0 -1,-1 -1,-1 -1,0 -1,-1 -1,0 6,4 -132,0 139,-3 0,-1 -1,-1 0,-1 -1,-1 0,-1 -1,-1 0,-1 -1,-1 0,-2 -1,-1 0,-1 -1,-1 0,-1 -1,-1 0,-1 -1,-1 0,-1 -1,-1 0,-1 -1,-1 0,-2 -1,-1 0,-1 -1,-1 0,-5 1,-1 2,0 1,-1 3,0 1,-1 2,0 1,-1 3,0 1,-1 2,0 1,-1 2,0 1,-1 3,0 1,-1 2,0 1,-1 3,0 1,1 0,2 1,1 0,5 -1,1 0,1 1,0 1,-1 3,0 1,1 1,0 -1,-1 0,0 -4,-1 -1,1 0,-11 1,-1 3,0 1,-1 4,0 1,1 0,-2 1,-1 2,0 1,-1 2,0 1,-1 2,0 1,-1 2,0 1,-1 2,0 1,-1 5,0 1,-1 1,0 1,-1 1,0 1,-1 2,0 1,-1 2,0 1,-1 2,0 1,-1 2,0 1,-1 2,0 1,-1 4,0 0,-2 -1,0 -1,1 -2,0 -1,1 -2,0 -1,1 -2,0 -1,1 -3,0 -1,1 -2,0 -1,1 -2,0 -1,1 -4,0 -1,1 -2,0 -1,1 -1,1 -2,0 -1,1 -2,0 -1,1 -2,0 -1,1 -2,0 -1,1 -2,0 -1,1 -3,0 -1,1 -2,0 -1,1 -2,0 -1,1 -2,0 -1,-1 -1,0 -1,-1 0,-1 -1,-1 -1,0 -1,-1 -1,-1 0,-4 -4,0 -1,-1 -1,-1 -1,-1 -1,-1 -1,-1 -1,-1 7,7 0,0 1,1 0,1 1,0 2,3 2,1 0,4 -1,1 -2,0 -1,1 -2,0 -1,1 -2,0 -1,1 -3,0 -1,1 -2,0 -1,1 -3,0 -1,1 -2,0 -1,1 -5,0 -1,-1 -1,-1 0,-1 -1,-1 0,-2 1,-1 -2,0 -1,-1 0,-1 -1,-1 0,-1 -1,-1 0,-1 -1,-1 0,-2 -1,-1 0,-1 -1,-1 0,-1 -1,-1 0,-1 -1,-1 0,-2 -1,-1 0,-2 1,-1 -2,0 -1,-1 0,-1 -1,-1 0,-1 -1,-1 0,-2 -1,-1 0,-2 1,-1 -2,0 -1,-1 0,-1 -1,-1 0,-1 -1,-1 0,-1 -1,-1 0,-2 -1,-1 0,-4 1,-1 4,0 1,-1 14,0 1,-1 9,0 1,1 1,1 0,11 1,-12 0,-3 -1,1 -1,0 0,1 1,1 -12,-1 0,0 -15,1 -6,0 -1,-1 -1,-1 0,-2 -1,-1 0,-2 -1,-1 0,-2 -1,-1 0,-2 -1,-1 0,-1 -1,-1 0,-2 -1,-1 0,-2 -1,-1 -1,1 0,0 1,1 0,2 1,1 0,1 1,1 0,4 -1,1 -2,0 -1,1 -2,0 -1,1 -2,0 -1,1 -2,0 -1,1 -3,0 -1,1 -2,0 -1,1 -1,1 -1,0 0,4 1,1 0,2 1,1 0,2 1,1 1,-1 0,0 -1,-1 0,-2 -1,-1 0,-5 1,-1 1,-1 2,0 1,-1 2,0 1,-1 2,0 1,-1 3,0 1,-1 2,0 1,-1 2,0 1,1 1,1 1,1 0,2 1,1 0,2 1,1 0,4 -1,1 -1,1 3,0 1,1 1,1 0,1 1,1 0,1 1,1 0,1 1,1 0,2 1,1 0,2 -1,1 2,0 1,1 0,1 1,1 0,1 1,1 0,1 1,1 0,2 1,1 0,2 -1,1 2,0 1,1 0,1 1,1 0,2 1,1 0,1 1,1 0,1 1,1 0,1 1,1 0,1 1,1 0,2 1,1 0,1 1,1 0,1 1,1 0,3 -1,1 -1,0 -1,1 -2,0 -1,1 -2,0 -1,1 -3,0 -1,1 -2,0 -1,1 -5,0 -1,-1 0,-1 -1,-1 -1,-1 0,-1 -1,-1 0,-1 -1,-1 0,-1 1,4 1,2 0,2 -1,1 -5,0 -1,1 -2,0 -1,1 -1,0 -1,1 -1,0 -1,1 0,1 -1,1 -1,1 -3,0 -1,-1 -1,-1 0,-1 -1,-1 0,-1 -1,-1 0,-2 -1,-1 0,-1 -1,-1 0,-2 -1,-1 0,-2 -1,-1 0,-1 -1,-1 0,-2 -1,-1 0,-2 -1,-1 0,-1 -1,-1 0,-2 -1,-1 0,-2 -1,-1 0,-1 -1,-1 0,-2 -1,-1 0,-2 -1,-1 0,-2 -1,-1 0,-1 -1,-1 0,-2 -1,-1 0,-2 -1,-1 0,-2 -1,-1 0,-1 -1,-1 0,-2 -1,-1 0,-1 -1,-1 0,-2 -1,-1 0,-2 -1,-1 0,-1 -1,-1 0,-2 -1,-1 0,-1 -1,0 0,2 1,1 0,3 -1,1 -7,0 -1,1 -3,0 -1,1 -1,1 -4,0 0,1 1,1 0,1 1,1 5,0 1,-1 1,0 0,-2 1,-1 3,0 1,1 1,0 1,-1 4,0 1,1 0,2 1,1 0,1 1,1 0,1 1,1 0,4 -1,1 2,0 1,1 0,3 -1,1 1,0 1,1 0,2 -1,1 2,0 1,1 0,1 1,1 0,2 1,1 0,1 1,1 0,2 1,1 0,3 -1,1 2,0 1,1 0,2 1,1 0,2 -1,1 -1,1 -1,0 -1,1 3,0 1,1 0,2 1,1 0,1 1,1 0,2 1,1 0,1 1,1 0,3 -1,1 -1,1 -1,0 -1,1 -3,0 -1,1 -1,0 -1,1 -2,0 -1,1 2,0 1,1 0,2 -1,1 -3,0 -1,1 -2,0 -1,1 -1,0 -1,1 -5,0 -1,-1 -1,-1 0,-1 -1,-1 0,-1 -1,-1 0,-1 2,6 0,2 -1,1 -1,0 -1,1 -3,0 -1,1 -2,0 -1,1 -2,0 -1,1 -3,0 -1,1 -2,0 -1,1 -2,0 -1,1 -3,0 -1,1 -3,0 -2,-2 -1,-1 0,1 -1,1 0,0 -1,1 -1,0 -1,1 -1,0 -1,1 -1,0 -1,1 -2,0 -1,-1 -1,0 139,-2 -139,3 140,-2 0,1 1,1 -1,-2 -140,2Z"/>
<path onmouseover="hoverPath(evt)" onmouseout="recoverPath(evt)" fill="rgb(243,242,233)" d="M  64,251l 0,0 1,1 0,3 32,0 0,-2 1,-1 3,0 1,-1 3,0 1,-1 3,0 1,-1 3,0 1,-1 3,0 1,-1 3,0 1,-1 2,0 1,-1 3,0 1,-1 2,0 1,-1 3,0 1,-1 2,0 1,-1 3,0 1,-1 2,0 1,-1 3,0 1,-1 2,0 1,-1 2,0 1,-1 2,0 1,-1 2,0 1,-1 2,0 1,-1 3,0 1,-1 2,0 1,-1 2,0 1,-1 2,0 1,-1 2,0 1,-1 2,0 1,-1 2,0 1,-1 2,0 1,-1 2,0 1,-1 1,0 -1,-1 0,-1 -1,-1 0,-2 -1,-1 0,-1 -1,-1 0,-1 -1,-1 0,-1 -1,-1 0,-1 -1,-1 0,-1 -2,0 -1,-1 0,-2 1,-1 -1,-1 -1,0 -1,1 -1,0 0,4 -1,1 -2,0 -1,1 -1,1 -1,1 -2,0 -1,1 -1,0 -1,1 -5,0 0,2 -1,1 -23,0 -1,-1 0,-2 -1,0 -1,-1 -1,0 -1,-1 0,-1 -1,-1 0,-1 -2,0 -1,-1 0,-9 1,-1 0,-3 1,-1 0,-1 1,-1 1,-1 1,0 1,-1 1,0 1,-1 1,0 1,-1 1,0 1,-1 1,-1 1,0 0,-1 1,-1 0,-2 1,-1 0,-9 1,-1 2,0 1,1 0,2 1,1 0,1 2,0 1,1 1,0 1,1 3,0 1,1 0,2 2,0 1,-1 3,0 1,1 1,0 1,1 1,1 1,0 1,1 1,1 1,0 0,-1 -1,-1 0,-1 -1,-1 0,-2 -1,-1 0,-1 -1,-1 0,-1 -1,-1 0,-1 -1,-1 0,-1 -1,-1 0,-2 -1,-1 0,-1 -1,-1 0,-1 -1,-1 0,-1 -1,-1 0,-1 -1,-1 0,-2 -1,-1 -1,-1 -1,1 -2,0 -1,1 -3,0 -1,1 -2,0 -1,1 -3,0 -1,1 0,3 -1,1 -2,0 -1,-1 0,-1 -5,0 -1,1 -2,0 -1,1 -3,0 -1,1 -2,0 -1,1 -3,0 -1,1 -1,0 -1,1 -2,0 -1,1 -4,0 0,2 -1,1 -3,0 -1,-1 -1,0 -1,1 -2,0 -1,1 -3,0 -1,1 -3,0 -1,1 -2,0 -1,1 -2,0 0,2 1,1 0,1 1,1 1,1 1,1 0,3 -1,1 0,1 1,1 2,0 1,1 1,1 0,1 1,1 1,1 0,2 1,1 0,1 1,1 0,2 -1,1 0,1 1,1 0,1 1,1 0,1 2,0 1,1 0,1 1,1 0,2 -1,1 0,1 1,1 0,1 2,0 1,1 0,1 1,1 2,0 1,1 1,1 0,2 1,1 1,0 1,1 1,0 1,1 0,10 -1,1 -3,0 -1,1 0,2 -1,1 -1,0 -1,1 -6,0 -1,1 -11,0 -1,1 -5,0 -1,-1 -1,0 -1,1 -3,0 -1,1 -2,0 0,2 -1,1 -1,1 -12,0 -1,-1 -1,0 -1,-1 0,1 1,1 0,1 81,-85 0,2 1,1 0,1 1,1 0,0 -2,-5 -81,85 84,-80 1,0 1,-1 0,0 -2,1 -84,80 86,-82 0,-1 -1,-1 0,-1 -1,-1 0,0 2,4 -86,82 83,-86 0,0 -83,86Z"/>
<path onmouseover="hoverPath(evt)" onmouseout="recoverPath(evt)" fill="rgb(242,240,230)" d="M  95,90l -2,0 -1,1 1,1 0,2 1,1 0,1 1,1 0,2 1,1 0,2 1,1 0,1 1,1 0,2 1,1 0,1 1,1 0,2 1,1 0,2 1,1 0,2 1,1 0,1 1,1 0,2 1,1 0,2 1,1 0,2 1,1 0,1 1,1 0,2 1,1 0,2 1,1 0,1 1,1 0,2 1,1 0,2 1,1 0,1 1,1 0,2 1,1 0,2 1,1 0,1 1,1 0,2 1,1 0,1 1,1 0,1 1,1 1,0 1,-1 0,-1 1,-1 1,-1 1,0 1,-1 1,0 1,-1 2,0 1,-1 5,0 0,-1 -1,-1 0,-2 -1,-1 0,-2 -1,-1 0,-1 -1,-1 0,-2 1,-1 -1,-1 0,-2 -1,-1 0,-1 -1,-1 0,-1 -2,0 -1,-1 0,-2 1,-1 -1,-1 -2,0 -1,-1 0,-2 1,-1 -1,-1 0,-1 -1,-1 0,-1 -1,-1 0,-1 -2,0 -1,-1 0,-2 1,-1 0,-2 -1,-1 0,0 -1,-1 0,-2 -1,-1 0,-3 1,-1 2,0 1,-1 1,0 1,-1 3,0 1,-1 1,0 0,-2 1,-1 3,0 1,-1 2,0 1,-1 0,-2 -1,-1 0,-2 -1,-1 0,-2 -1,-1 -1,-1 -1,1 -2,0 -1,1 -3,0 -1,1 -2,0 -1,1 -2,0 -1,1 -2,0 -1,1 0,3 1,1 0,2 1,1 0,2 -1,1 -1,1 -2,0 -1,-1 -1,-1 0,-2 -1,-1 0,-2 -1,-1 0,-6 1,-1 1,0 2,-2 2,0 1,-1 3,0 1,-1 2,0 1,-1 2,0 1,-1 2,0 1,-1 2,0 0,-2 -1,-1 0,-1 -1,-1 0,-2 -2,0 -1,1 -1,0 -1,1 -1,0 -1,1 -2,0 -1,1 -1,0 -1,1 -2,0 -1,1 -1,0 -1,1 -2,0 -1,1 -1,0 -1,1 -2,0 0,1 -1,1 -1,0 -1,1 -3,0 -1,1 -2,0 -1,1Z"/>
<path onmouseover="hoverPath(evt)" onmouseout="recoverPath(evt)" fill="rgb(249,247,245)" d="M  110,35l 0,0 1,1 0,1 1,1 0,2 -2,2 1,0 1,-1 0,0 1,-1 0,-3 1,-1 2,0 1,1 0,1 1,1 0,2 1,1 0,1 1,1 0,3 1,1 0,1 1,1 0,3 1,1 0,2 1,1 1,1 0,2 1,1 0,2 1,1 1,0 0,-1 -1,-1 0,-2 -1,-1 0,-3 -1,-1 0,-2 -1,-1 0,-4 1,-1 1,0 1,-1 1,0 1,-1 1,-1 2,0 1,1 1,-1 1,-1 1,0 0,-2 2,-2 1,0 1,-1 1,0 1,-1 1,-1 1,0 0,-1 -2,0 -1,-1 0,2 -2,2 -2,0 -1,-1 0,2 -1,1 -1,1 -1,0 -1,1 -1,0 -1,1 -1,1 -1,0 -1,1 -1,0 -1,1 -3,0 -1,-1 0,-1 -1,-1 0,-4 1,-1 2,0 -3,-1 -1,0 -1,-1 0,-1 -1,-1 0,-3 1,-1 -2,0 -1,-1 0,-2 -1,-1 0,-3 1,-1 -2,0 -1,-1 0,-5 1,-1 2,0 1,-1 7,0 1,1 1,1 0,1 1,1 0,2 2,0 1,1 0,1 1,1 0,1 1,1 5,0 1,1 2,0 1,-1 0,0 1,-1 4,0 1,1 9,0 1,1 0,2 1,1 0,3 1,1 0,2 1,1 0,6 1,1 0,2 1,1 0,3 1,1 0,2 1,0 0,-1 1,-1 3,0 1,-1 5,0 0,-4 1,-1 0,-3 -1,-1 -4,0 -1,1 -3,0 -1,1 -2,0 -1,-1 0,-1 -1,-1 0,-3 -1,-1 0,-4 -1,-1 0,-2 -1,-1 0,-3 -1,-1 0,-3 -1,-1 0,-5 1,-1 1,-1 -1,0 -1,-1 -1,-1 0,-3 -1,-1 0,-3 -1,-1 0,-2 -5,0 0,4 -1,1 -1,1 -1,0 -1,1 -5,0 -1,1 -4,0 -1,1 -3,0 -1,1 -4,0 -1,1 -6,0 -1,-1 0,-1 -1,-1 0,1 1,2 0,1 -1,1 -5,0 -1,-1 0,-1 -1,-1 0,-2 -1,-1 0,-2 -1,-1 0,-4 -2,0 0,2 1,1 0,3 -1,1 2,0 1,1 0,5 -1,1 -1,0 -1,1 -5,0 -1,1 -5,0 -1,1 -6,0 -2,-2 0,-1 -1,2 0,1 -1,1 -3,0 -1,1 -7,0 -1,1 -6,0 -1,-1 -1,-1 0,-3 -1,-1 0,-3 -1,-1 0,-3 -1,-1 0,-4 1,-1 0,-1 -27,0 0,8 1,1 0,2 1,1 0,4 1,1 0,1 1,1 0,4 -1,1 -1,0 -1,1 -5,0 -1,1 -6,0 -1,1 -6,0 -1,1 -11,0 -1,1 -2,0 0,6 2,0 1,-1 3,0 -1,-1 0,-2 1,-1 2,0 1,-1 5,0 1,-1 6,0 1,-1 6,0 1,-1 6,0 1,-1 7,0 1,-1 6,0 1,-1 6,0 1,-1 6,0 1,-1 5,0 1,1 1,1 0,1 1,1 0,1 1,1 0,2 1,1 0,-1 -1,-3 0,-3 1,-1 2,0 1,-1 3,0 1,-1 5,0 1,-1 6,0 1,-1 9,0 1,1 0,1 1,1 0,1 1,1 0,-1 -1,-2 0,-2 1,-1 2,0 1,1 0,1 1,1 0,2 1,1 0,2 1,1 0,1 1,1 0,4 -1,1 -2,0 -1,-1 0,3 -72,-14 0,-5 1,-1 2,0 1,-1 2,0 0,-1 1,-1 0,-6 1,-1 1,-1 3,0 1,1 3,0 1,1 0,1 1,1 0,1 1,1 0,2 1,1 0,3 -1,1 0,1 -1,1 -1,1 -1,0 -1,1 -3,0 -1,1 -10,0 -1,-1 72,14Z"/>
<path onmouseover="hoverPath(evt)" onmouseout="recoverPath(evt)" fill="rgb(243,242,234)" d="M  248,42l -2,0 0,1 -1,1 0,2 -1,1 0,2 1,1 0,2 1,1 0,1 1,1 0,1 1,1 0,1 1,1 0,2 1,1 0,1 1,1 0,1 1,1 0,1 1,1 0,1 2,0 0,-29 -1,0 -1,1 -4,0 -1,1Z"/>
<path onmouseover="hoverPath(evt)" onmouseout="recoverPath(evt)" fill="rgb(239,236,224)" d="M  44,20l 4,0 1,-1 3,0 1,-1 1,0 1,-1 0,-1 1,-1 0,-1 -1,-1 0,-2 -1,-1 0,-1 -1,-1 0,-1 -3,0 -1,-1 -1,0 -1,1 0,6 -1,1 0,1 -1,1 -2,0 -1,1 -2,0 0,3Z"/>
<path onmouseover="hoverPath(evt)" onmouseout="recoverPath(evt)" fill="rgb(234,235,228)" d="M  132,39l 1,0 1,-1 0,-2 1,-1 2,0 1,1 1,-1 0,-2 1,-1 2,0 1,1 2,0 1,1 0,3 -1,1 -1,0 -1,1 -1,1 -1,0 -1,1 -1,0 -1,1 0,2 -1,1 -1,0 -1,1 -1,1 -2,0 -1,-1 -1,1 0,0 -1,1 -1,0 -1,1 -1,0 0,2 1,1 0,2 1,1 0,3 1,1 0,2 1,1 0,2 2,0 0,-2 1,-1 1,0 1,-1 2,0 1,-1 1,0 1,-1 2,0 1,-1 1,0 1,-1 2,0 1,-1 2,0 1,-1 3,0 1,-1 2,0 1,-1 2,0 0,-1 -1,-1 0,-3 -1,-1 0,-2 -1,-1 0,-6 -1,-1 0,-2 -1,-1 0,-3 -1,-1 0,-2 -9,0 -1,-1 -2,0 -1,1 -1,1 -4,0 -1,-1 -5,0 -1,-1 -2,0 -1,-1 0,-2 1,-1 -2,0 -1,-1 0,-2 -1,-1 0,-1 -1,-1 -5,0 -1,1 -2,0 0,3 2,0 1,1 0,2 -1,1 0,1 1,1 0,2 2,0 1,1 0,2 -1,1 0,1 1,1 0,1 1,0 1,1 2,0 1,1 0,2 -1,1 -2,0 0,2 1,1 0,1 1,0 1,-1 1,0 1,-1 1,0 1,-1 1,-1 1,0 1,-1Z"/>
<path onmouseover="hoverPath(evt)" onmouseout="recoverPath(evt)" fill="rgb(243,242,234)" d="M  140,194l 0,0 -1,-1 -1,1 -1,0 -1,1 0,1 -1,1 0,3 -1,1 0,7 2,0 1,1 0,1 1,1 0,1 1,0 1,1 1,0 1,1 0,2 21,0 0,-2 1,-1 5,0 1,-1 1,0 1,-1 2,0 1,-1 1,-1 1,-1 0,-9 -1,-1 0,-2 -1,-1 0,-1 -1,-1 0,-1 -1,-1 0,-1 -1,0 -1,-1 -1,-1 -1,-1 -1,-1 -1,0 -1,-1 -1,0 -1,-1 -3,0 -1,-1 0,-2 -3,0 -1,-1 -1,0 -1,-1 -2,0 -1,-1 0,-1 -1,-1 0,7 -1,1 0,2 -1,1 0,1 -1,1 -1,0 -1,1 -1,1 -1,0 0,2 -1,1Z"/>
<path onmouseover="hoverPath(evt)" onmouseout="recoverPath(evt)" fill="rgb(242,241,231)" d="M  144,101l 0,2 1,1 0,1 1,1 0,1 1,1 0,1 2,0 1,1 0,2 -1,1 1,1 0,2 1,1 0,1 1,1 0,1 2,0 1,1 0,2 -1,1 1,1 0,2 1,1 0,1 1,1 0,1 1,1 0,1 1,1 0,2 1,1 0,1 1,1 0,1 1,1 0,1 2,0 1,1 0,2 -1,1 1,1 0,1 1,1 3,0 1,-1 2,0 1,-1 3,0 1,-1 2,0 1,-1 3,0 1,-1 2,0 1,-1 2,0 1,-1 2,0 0,-2 -1,0 -1,-1 0,-1 -1,-1 -1,0 -1,-1 0,-1 -1,-1 -1,-1 -1,-1 -1,-1 -1,-1 -1,-1 -1,-1 -1,-1 0,-1 -1,-1 0,-1 -2,-2 0,-1 -1,-1 0,-2 1,-1 -1,-1 0,-3 -1,-1 0,-3 -2,0 -1,-1 0,-11 -1,-1 -7,0 -1,1 -14,0 -1,1 -4,0 0,2 1,1Z"/>
<path onmouseover="hoverPath(evt)" onmouseout="recoverPath(evt)" fill="rgb(244,243,235)" d="M  217,92l 0,1 -1,1 1,1 0,1 1,1 0,1 1,1 0,1 1,1 0,1 1,1 0,1 1,1 0,1 1,1 0,1 1,1 1,1 0,1 1,1 0,1 1,1 0,1 1,1 0,1 1,1 0,1 1,1 0,1 1,1 0,1 1,1 0,1 1,1 0,3 1,-1 2,0 1,-1 2,0 1,-1 3,0 1,-1 2,0 1,-1 2,0 1,-1 2,0 1,-1 2,0 0,-24 -2,0 -1,-1 0,-1 -1,-1 0,-2 -1,-1 0,-1 -1,-1 0,-1 -1,-1 0,-1 -1,-1 0,-2 -1,-1 0,-1 -1,-1 -1,0 -1,1 -2,0 -1,1 -2,0 -1,1 -1,0 -1,1 -2,0 -1,1 -2,0 -1,1 -1,0 -1,1 -2,0 -1,1 -1,0 -1,1 -2,0 -1,1 -1,0 -1,1Z"/>
<path onmouseover="hoverPath(evt)" onmouseout="recoverPath(evt)" fill="rgb(243,242,233)" d="M  224,240l 0,0 1,1 0,2 -1,1 -2,0 -1,-1 0,-2 1,-1 2,0 -9,-14 -1,0 -1,1 -2,0 -1,1 -2,0 -1,1 -2,0 -1,1 -1,0 0,1 1,1 0,1 1,1 0,1 2,0 1,1 0,1 2,0 1,1 0,2 -1,1 -2,0 1,1 0,1 2,0 1,1 0,1 1,1 0,2 -1,1 0,1 1,1 0,1 1,1 0,2 41,0 0,-42 -3,0 -1,1 -3,0 -1,1 -2,0 -1,1 -2,0 -1,1 -2,0 -1,1 -2,0 -1,1 -2,0 -1,1 -1,0 -1,1 -2,0 -1,1 -2,0 -1,1 -2,0 -1,1 -2,0 -1,1 -1,0 -1,1 -1,0 9,14Z"/>
<path onmouseover="hoverPath(evt)" onmouseout="recoverPath(evt)" fill="rgb(242,240,230)" d="M  56,135l 2,0 0,-2 -1,-1 0,-2 -1,-1 0,-1 -1,-1 0,-2 -1,-1 -1,-1 0,-2 -2,0 -1,-1 0,-2 1,-1 -2,0 -1,-1 0,-2 -1,-1 -4,0 -1,1 -4,0 0,4 -1,1 -2,0 -1,-1 -1,-1 0,-1 -2,0 0,7 1,1 0,4 -1,1 0,1 1,1 1,1 0,6 1,1 0,5 1,1 0,4 -1,1 0,1 1,-1 3,0 1,-1 2,0 1,-1 5,0 1,1 0,1 4,0 1,-1 2,0 1,-1 1,-1 -1,-1 0,-3 -1,-1 -1,-1 -1,-1 0,-3 1,-1 1,-1Z"/>
<path onmouseover="hoverPath(evt)" onmouseout="recoverPath(evt)" fill="rgb(242,241,231)" d="M  121,108l -2,0 0,1 1,1 0,2 1,1 1,1 0,3 1,1 0,1 1,1 0,1 1,1 0,1 1,1 0,1 1,1 0,1 1,1 0,1 1,1 1,1 0,2 -1,1 2,0 1,1 0,1 1,1 0,1 1,1 0,2 1,1 0,1 1,1 0,2 -1,1 2,0 1,1 0,1 1,1 0,1 1,1 0,1 1,1 1,1 0,1 3,0 1,-1 2,0 1,-1 3,0 1,-1 2,0 1,-1 2,0 1,-1 1,0 0,-1 -1,-1 0,-1 -1,-1 0,-1 -1,-1 0,-2 -1,-1 0,-1 -1,-1 0,-1 -1,-1 0,-1 -1,-1 0,-1 -1,-1 0,-2 -1,-1 0,-1 -2,0 -1,-1 0,-2 1,-1 -1,-1 0,-2 -1,-1 0,-1 -1,-1 0,-1 -1,-1 0,-1 -2,0 -1,-1 0,-2 1,-1 -1,-1 0,-2 -1,-1 0,-1 -1,-1 0,-1 -1,-1 0,-1 -1,-1 -5,0 -1,-1 -2,0 0,2 -1,1 -1,0 -1,1 -3,0 -1,1 -1,0 -1,1Z"/>
<path onmouseover="hoverPath(evt)" onmouseout="recoverPath(evt)" fill="rgb(242,241,232)" d="M  178,84l -1,1 0,6 -1,1 0,4 -1,1 0,10 1,1 0,3 1,1 0,3 1,1 0,1 1,1 0,2 -1,1 1,1 2,0 1,1 0,1 1,1 1,1 1,1 1,1 1,1 1,1 4,0 1,1 0,4 1,1 1,0 1,1 1,1 0,1 1,0 1,1 1,-1 2,0 1,-1 2,0 1,-1 3,0 1,-1 2,0 1,-1 2,0 1,-1 2,0 1,-1 2,0 1,-1 2,0 1,-1 -1,-1 0,-1 -1,-1 0,-1 -1,-1 0,-1 -1,-1 0,-1 -1,-1 0,-1 -1,-1 0,-1 -1,-1 0,-2 -1,-1 0,-1 -1,-1 0,-1 -1,-1 0,-1 -1,-1 0,-1 -1,-1 -1,0 -1,1 -2,0 -1,-1 0,-1 -1,-1 -1,-1 0,-2 -1,-1 0,-1 -1,-1 0,-1 -1,-1 0,-1 -1,-1 0,-1 -1,-1 0,-1 -1,-1 0,-1 -1,-1 0,-1 -1,-1 0,-1 -1,-1 0,-2 -1,-1 0,-1 -1,-1 -1,0 -1,-1 -3,0 -1,-1 -2,0 -1,1 -3,0 -1,1 -3,0 0,2 -1,1Z"/>
<path onmouseover="hoverPath(evt)" onmouseout="recoverPath(evt)" fill="rgb(243,242,234)" d="M  191,5l 0,6 1,1 0,7 1,1 0,7 1,1 0,7 1,1 0,6 6,0 0,-1 1,-1 3,0 1,-1 3,0 1,-1 6,0 1,1 2,0 1,-1 4,0 0,-1 1,-1 1,0 0,-3 1,-1 0,-3 -1,-1 0,-6 -1,-1 0,-4 1,-1 0,-16 -36,0 0,3 1,1Z"/>
<path onmouseover="hoverPath(evt)" onmouseout="recoverPath(evt)" fill="rgb(252,252,251)" d="M  244,21l 0,-1 -1,0 -1,1 -3,0 -1,-1 -1,1 -1,1 -4,0 -1,-1 0,-3 -1,-1 0,-3 -1,-1 0,-7 1,-1 2,-2 2,0 1,-1 1,-1 0,-1 -8,0 0,17 -1,1 0,2 1,1 0,6 1,1 0,4 1,1 0,2 4,0 0,-1 -1,-1 0,-6 1,-1 2,0 1,1 0,-4 1,-1 1,0 -1,-1 0,0 -1,1 0,0 7,-1 -6,9 -1,0 0,1 1,1 0,0 1,1 4,0 -3,-1 -1,0 -1,-1 0,-1 6,-9Z"/>
<path onmouseover="hoverPath(evt)" onmouseout="recoverPath(evt)" fill="rgb(245,239,235)" d="M  0,62l 0,54 2,0 1,-1 1,0 1,-1 1,0 1,-1 4,0 1,-1 3,0 0,-1 1,-1 0,-1 1,-1 1,0 0,-2 -1,0 -1,-1 0,-3 -1,-1 0,-1 -1,-1 0,-11 1,-1 5,0 0,-1 -1,0 -1,-1 -1,-1 0,-3 1,-1 0,-2 -1,1 -4,0 -1,1 -2,0 -1,-1 0,-3 -1,-1 0,-4 1,-1 0,-1 -1,-1 0,-3 -1,0 -1,-1 -1,-1 0,-3 1,-1 -2,0 -1,1 -3,0Z"/>
<path onmouseover="hoverPath(evt)" onmouseout="recoverPath(evt)" fill="rgb(243,241,233)" d="M  0,214l 0,41 55,0 0,-1 -1,-1 0,-1 -1,-1 0,-1 -1,-1 0,-1 -1,-1 0,-2 -1,1 -2,0 -1,-1 0,-2 1,-1 1,-1 -1,-1 0,-1 -1,-1 0,-2 1,-1 -1,0 -1,-1 0,-2 -5,0 -1,-1 0,-2 -2,0 -1,-1 0,-2 1,-1 2,0 1,1 1,-1 0,0 -1,-1 0,-1 -1,-1 0,-2 -1,-1 0,-2 -1,-1 0,-2 1,-1 -1,-1 0,-2 -2,0 -1,-1 0,-3 -1,-1 0,-2 -1,-1 0,-4 -1,-1 -3,0 -1,-1 0,-2 1,-1 3,0 0,-2 -1,1 -2,0 -1,1 -4,0 -1,1 -2,0 -1,1 -3,0 -1,1 -2,0 -1,1 -4,0 -1,1 -3,0 -1,1 -4,0 0,15 37,2 0,2 -1,1 -2,0 -1,-1 0,-2 1,-1 2,0 1,1 -37,-2 36,6 2,0 1,1 0,2 -1,1 -2,0 -1,-1 0,-2 1,-1 -36,-6 48,33 2,0 1,1 0,1 1,1 0,2 -1,1 -2,0 -1,-1 0,-1 -1,-1 0,-2 1,-1 -48,-33 21,36 -2,0 -1,-1 0,-2 1,-1 2,0 1,1 0,2 -1,1 -21,-36Z"/>
<path onmouseover="hoverPath(evt)" onmouseout="recoverPath(evt)" fill="rgb(172,198,238)" d="M  102,254l -3,0 0,1 4,0 -1,-1 4,-1 0,2 19,0 0,-2 1,-1 3,0 1,-1 3,0 1,-1 2,0 1,-1 2,0 1,-1 3,0 1,-1 2,0 1,-1 1,0 1,-1 3,0 1,-1 2,0 1,-1 2,0 1,-1 2,0 1,-1 2,0 1,-1 2,0 1,-1 2,0 1,-1 2,0 1,-1 2,0 1,-1 2,0 1,-1 2,0 1,-1 2,0 1,-1 2,0 1,-1 2,0 1,-1 2,0 1,-1 1,0 0,-1 -1,-1 0,-1 -1,-1 -1,1 -2,0 -1,1 -2,0 -1,1 -2,0 -1,1 -2,0 -1,1 -2,0 -1,1 -2,0 -1,1 -2,0 -1,1 -2,0 -1,1 -3,0 -1,1 -2,0 -1,1 -2,0 -1,1 -2,0 -1,1 -2,0 -1,1 -2,0 -1,1 -3,0 -1,1 -2,0 -1,1 -3,0 -1,1 -2,0 -1,1 -3,0 -1,1 -2,0 -1,1 -3,0 -1,1 -2,0 -1,1 -3,0 -1,1 -3,0 -1,1 -3,0 -1,1 -3,0 -1,1 -4,1Z"/>
<path onmouseover="hoverPath(evt)" onmouseout="recoverPath(evt)" fill="rgb(172,198,237)" d="M  181,38l -1,0 -1,1 3,0 1,-1 5,0 1,1 0,7 1,-1 3,0 0,-8 -1,-1 0,-7 -1,-1 0,-7 -1,-1 0,-7 -1,-1 0,-7 -1,-1 0,-4 -4,0 0,3 1,1 0,7 1,1 0,7 1,1 0,6 1,1 0,7 -1,1 -1,1 -1,1 -3,0 -1,1Z"/>
<path onmouseover="hoverPath(evt)" onmouseout="recoverPath(evt)" fill="rgb(178,201,236)" d="M  193,54l -1,0 0,3 1,1 0,2 1,1 0,2 1,1 0,1 1,1 0,2 1,1 0,2 1,1 0,1 1,1 0,3 -1,1 -2,0 -1,-1 -4,0 4,1 2,1 1,1 0,1 1,1 0,2 1,1 0,1 1,1 0,1 1,1 0,1 1,1 0,1 1,1 0,1 1,1 0,1 1,1 0,1 1,1 0,1 1,1 0,2 1,1 2,0 1,1 2,0 1,1 1,1 0,1 1,1 0,1 1,1 0,1 1,1 0,1 1,1 0,2 1,1 0,1 1,1 0,1 1,1 0,1 1,1 0,1 1,1 0,1 1,1 0,1 1,1 1,0 1,-1 2,0 0,-2 -1,-1 0,-1 -1,-1 0,-1 -1,-1 0,-1 -1,-1 0,-1 -1,-1 0,-1 -1,-1 0,-1 -1,-1 0,-1 -1,-1 0,-1 -1,-1 -1,-1 0,-1 -1,-1 0,-1 -1,-1 0,-1 -1,-1 0,-1 -1,-1 0,-1 -1,-1 0,-1 -1,-1 0,-1 -1,-1 0,-2 1,-1 0,-1 1,-1 1,-1 1,0 1,-1 2,0 1,-1 1,0 1,-1 2,0 1,-1 1,0 1,-1 2,0 1,-1 2,0 1,-1 1,0 1,-1 2,0 1,-1 2,0 1,-1 3,0 1,1 -2,-2 0,-2 -2,0 -1,1 -2,0 -1,1 -1,0 -1,1 -2,0 -1,1 -1,0 -1,1 -2,0 -1,1 -2,0 -1,1 -1,0 -1,1 -2,0 -1,1 -2,0 -1,1 -1,0 -1,1 -4,0 -1,-1 -1,0 -1,-1 -1,-1 0,-1 -1,-1 0,-1 -1,-1 0,-1 -1,-1 0,-1 -1,-1 0,-1 -1,-1 0,-1 -1,-1 0,-1 -1,-1 0,-2 -1,-1 0,-1 -1,-1 0,-1 -1,-1 0,-2 -1,-1 0,-2 -1,-1 0,-4 1,-1 1,0 -3,1 -1,0 -1,1Z"/>
<path onmouseover="hoverPath(evt)" onmouseout="recoverPath(evt)" fill="rgb(242,241,232)" d="M  199,54l -1,0 0,2 1,1 0,2 1,1 0,2 1,1 0,1 1,1 0,1 1,1 0,2 1,1 0,1 1,1 0,1 1,1 0,1 1,1 0,1 1,1 0,1 1,1 0,1 1,1 0,1 1,1 1,0 1,1 2,0 1,-1 1,0 1,-1 2,0 1,-1 2,0 1,-1 1,0 1,-1 2,0 1,-1 2,0 1,-1 1,0 1,-1 2,0 1,-1 1,0 1,-1 2,0 1,-1 0,-1 -1,-1 0,-4 -2,0 -1,-1 -1,-1 0,-2 -1,-1 0,-1 -1,-1 0,-1 -1,-1 0,-1 -1,-1 0,-3 1,-1 0,-1 -1,-1 0,-1 -2,0 -1,-1 0,-3 -2,0 -1,1 -2,0 -1,1 -3,0 -1,1 -5,0 0,3 -1,1 -2,0 -1,-1 0,-1 -3,0 -1,1 -3,0 -1,1 -3,0 -1,1 11,16 0,-2 1,-1 2,0 1,1 0,2 -1,1 -2,0 -1,-1 -11,-16Z"/>
<path onmouseover="hoverPath(evt)" onmouseout="recoverPath(evt)" fill="rgb(243,241,233)" d="M  204,157l 0,0 -1,-1 -1,0 -1,1 -1,0 0,2 -1,1 -1,1 -1,1 -1,1 0,1 -1,1 0,1 -1,1 0,6 1,1 0,2 1,1 1,1 0,1 1,1 0,2 1,1 0,1 1,1 0,1 1,1 0,1 1,1 0,1 1,1 0,2 -1,1 1,1 0,1 1,1 1,1 1,1 1,0 1,1 1,-1 2,0 1,1 11,0 1,-1 3,0 1,-1 2,0 1,-1 2,0 1,1 1,-1 0,-5 -1,-1 0,-1 -1,-1 0,-1 -1,-1 0,-1 -1,-1 0,-1 -1,-1 -1,-1 0,-1 -1,-1 0,-2 -1,-1 0,-2 -1,-1 0,-1 -1,-1 0,-1 -1,-1 0,-2 -2,0 -1,1 -3,0 -1,-1 0,-4 -1,-1 -1,-1 -2,0 -1,-1 -1,-1 -2,0 -1,-1 -1,-1 -1,-1Z"/>
<path onmouseover="hoverPath(evt)" onmouseout="recoverPath(evt)" fill="rgb(245,218,227)" d="M  10,47l 0,0 -1,-1 0,-3 -1,1 -4,0 0,1 -1,1 -3,0 0,12 2,0 1,-1 4,0 1,1 0,2 -1,1 0,1 1,1 1,0 1,1 0,3 1,1 2,0 1,-1 1,0 0,-1 -2,0 -1,-1 0,-5 1,-1 0,-1 -1,-1 0,-2 -1,-1 0,-3 -1,-1Z"/>
<path onmouseover="hoverPath(evt)" onmouseout="recoverPath(evt)" fill="rgb(240,238,226)" d="M  110,7l 0,2 1,1 0,1 3,0 -1,-1 0,-4 1,-1 2,0 1,1 0,1 1,1 0,1 4,0 1,-1 4,0 1,-1 3,0 1,-1 4,0 1,-1 5,0 1,-1 1,0 1,-1 0,-3 -37,0 0,3 1,1 0,2 1,1Z"/>
<path onmouseover="hoverPath(evt)" onmouseout="recoverPath(evt)" fill="rgb(241,239,228)" d="M  185,150l -2,0 -1,1 -3,0 -1,1 -2,0 -1,1 -3,0 -1,1 -2,0 0,3 1,1 0,1 1,1 0,2 1,1 0,1 1,1 0,1 1,1 0,1 1,1 0,1 1,1 0,1 1,1 0,2 1,1 0,1 1,1 0,1 1,1 0,1 1,1 0,1 1,1 0,1 1,1 1,-1 1,0 1,-1 1,-1 1,-1 1,-1 0,-1 1,-1 1,0 0,-5 1,-1 0,-7 1,-1 0,-1 1,-1 0,-1 1,-1 1,-1 1,-1 1,-1 0,-1 -1,-1 0,-3 1,-1 0,-3 -1,-1 0,-2 -1,0 -1,1 -2,0 -1,1 -3,0 -1,1 -2,0 -1,1Z"/>
<path onmouseover="hoverPath(evt)" onmouseout="recoverPath(evt)" fill="rgb(242,241,232)" d="M  237,135l 0,0 1,1 0,1 1,1 1,1 0,3 1,0 1,1 0,2 1,1 0,1 1,1 0,1 1,1 0,1 1,1 0,1 1,1 0,1 1,1 0,1 1,1 0,1 1,1 0,1 1,1 0,2 1,1 0,1 1,1 0,1 1,1 0,1 1,0 0,-42 -3,0 -1,1 -2,0 -1,1 -2,0 -1,1 -2,0 -1,1 -2,0 -1,1 -2,0Z"/>
</svg>