<svg width="256" height="256" xmlns="http://www.w3.org/2000/svg"><script> 
var tempColor;
function hoverPath(evt){
obj = evt.target;
tempColor = obj.getAttribute("fill");
obj.setAttribute("fill","red");
//alert(tempColor);
//obj.setAttribute("stroke","red");}
function recoverPath(evt){
obj = evt.target;
obj.setAttribute("fill", tempColor);
//obj.setAttribute("stroke", tempColor);
}</script><path onmouseover="hoverPath(evt)" onmouseout="recoverPath(evt)" fill="rgb(243,242,234)" d="M  117,106l 0,2 -1,1 0,1 1,1 0,2 1,1 0,1 1,1 0,2 1,1 0,1 1,1 0,2 1,1 0,2 2,0 1,1 0,1 1,1 0,2 1,1 0,1 1,0 1,-1 2,0 1,-1 2,0 1,-1 2,0 1,-1 2,0 1,-1 2,0 1,-1 2,0 1,-1 2,0 1,-1 2,0 0,-2 1,-1 2,0 1,1 1,0 1,-1 2,0 1,-1 2,0 1,-1 2,0 0,-2 -1,-1 0,-1 -1,-1 0,-1 -1,-1 0,-2 -1,-1 0,-1 -1,-1 0,-1 -1,-1 0,-1 -1,-1 0,-2 -1,-1 0,-1 -1,-1 0,-1 -1,-1 0,-1 -1,-1 0,-1 -1,-1 -4,0 -1,1 -3,0 -1,1 -3,0 -1,1 -4,0 -1,-1 -2,0 -1,1 -2,0 0,2 -1,1 -4,0 -1,-1 -2,0 -1,1 -2,0 -1,1 -2,0 -1,1 -3,0 -1,-1 -1,0 1,1 0,1 1,1 0,1 1,1 2,0 1,1Z"/>
<path onmouseover="hoverPath(evt)" onmouseout="recoverPath(evt)" fill="rgb(243,242,234)" d="M  230,94l 0,0 -1,-1 -1,1 -1,0 0,2 -1,1 0,2 1,1 2,0 1,1 0,2 -1,1 0,1 1,1 0,1 2,0 1,1 0,1 1,1 0,2 -1,1 0,1 1,1 0,1 2,0 1,1 0,1 1,1 1,1 0,2 1,1 0,2 1,1 0,1 1,1 0,2 -1,1 0,7 -1,1 -1,0 -1,1 -4,0 -1,-1 -1,0 -1,1 -3,0 0,2 -1,1 -2,0 0,2 1,1 0,1 1,1 1,1 2,0 2,2 4,0 1,1 0,1 1,1 1,0 0,-2 1,-1 2,0 1,-1 3,0 1,-1 1,0 1,-1 0,-1 1,-1 1,0 1,-1 3,0 0,-62 -3,0 -1,1 -1,0 -1,1 -2,0 -1,1 -1,1 -3,0 -1,1 0,2 -1,1 -1,0 -1,1 -1,0 -1,1 -1,0 -1,1Z"/>
<path onmouseover="hoverPath(evt)" onmouseout="recoverPath(evt)" fill="rgb(243,242,231)" d="M  0,193l 0,62 6,0 0,-3 1,-1 2,0 1,-1 2,0 1,-1 1,0 1,-1 1,0 1,-1 2,0 1,-1 1,0 1,-1 2,0 1,-1 1,0 0,-12 -1,-1 0,-1 -6,0 -1,-1 0,-2 1,-1 5,0 1,-1 3,0 1,-1 1,0 1,-1 1,0 1,-1 1,0 1,-1 1,0 1,-1 1,-1 1,0 1,-1 1,-1 1,-1 1,-1 1,-1 1,-1 0,-1 1,-1 0,-1 1,-1 2,0 0,-11 -2,0 -1,-1 -1,-1 -1,-1 0,-1 -1,-1 0,-1 -1,-1 0,-1 -1,-1 0,-1 -1,-1 -1,-1 0,-1 -1,-1 0,-1 -1,-1 0,-1 -1,-1 -1,-1 -1,-1 -1,-1 -1,0 -1,-1 0,-2 1,-1 0,-1 -9,0 0,2 -1,1 -2,0 0,2 -1,1 -1,0 -1,1 -2,0 -1,-1 -1,1 0,0 -1,1 -1,0 -1,1 -2,2 -1,1 -1,1 -1,1 0,2 -1,1 0,1 -1,1 -3,0 0,2 13,34 0,2 -1,1 -2,0 -1,-1 0,-2 1,-1 2,0 1,1 -13,-34Z"/>
<path onmouseover="hoverPath(evt)" onmouseout="recoverPath(evt)" fill="rgb(253,253,253)" d="M  12,1l 0,0 1,1 0,2 1,1 0,1 1,1 0,1 1,1 0,2 1,1 0,1 1,1 0,1 1,1 0,2 1,1 0,1 1,1 0,2 1,1 0,1 1,1 0,1 1,1 0,2 1,1 0,1 1,1 0,1 1,1 0,2 1,1 0,1 1,1 0,1 1,1 0,2 1,1 0,1 1,1 0,2 1,1 0,1 1,1 1,1 0,1 1,1 1,1 1,1 2,0 1,-1 2,0 1,-1 3,0 1,-1 3,0 1,-1 4,0 1,-1 2,0 1,-1 4,0 1,-1 3,0 0,-2 -1,0 -1,1 -3,0 -1,1 -2,0 -1,1 -4,0 -1,1 -3,0 -1,1 -3,0 -1,1 -4,0 -1,1 -3,0 -1,-1 -1,-1 -1,-1 0,-2 1,-1 -2,0 -1,-1 0,-1 -1,-1 0,-2 -1,-1 0,-1 -1,-1 0,-4 -1,0 -1,-1 0,-1 -1,-1 0,-2 -1,-1 0,-1 -1,-1 0,-2 -1,-1 0,-1 -1,-1 0,-1 -1,-1 0,-2 -1,-1 0,-1 -1,-1 0,-1 -1,-1 0,-1 -1,-1 0,-2 -1,-1 0,-1 -1,-1 0,-3 -1,-1 0,-1 -1,-1 0,-2 -1,0 -1,1Z"/>
<path onmouseover="hoverPath(evt)" onmouseout="recoverPath(evt)" fill="rgb(183,143,237)" d="M  34,104l -2,0 0,1 1,1 0,2 1,1 1,1 0,2 1,1 0,2 1,1 1,1 0,1 2,0 1,1 0,4 1,1 0,3 1,1 0,1 1,1 0,1 1,1 0,1 1,1 1,1 0,1 1,1 0,1 1,0 1,1 0,1 1,1 0,4 2,0 1,1 0,5 1,1 0,1 1,1 0,4 1,1 0,1 1,1 0,1 2,0 1,1 0,2 -1,1 1,1 0,1 2,0 1,1 0,1 1,1 0,4 1,1 0,1 1,1 0,3 1,1 0,1 2,0 1,1 0,1 1,1 0,1 1,1 0,1 1,1 0,2 -1,1 1,1 0,0 1,1 0,3 1,1 0,1 1,1 0,1 1,1 1,1 0,3 1,1 0,1 2,0 1,1 0,4 1,1 0,3 2,0 1,1 0,4 1,1 0,3 1,1 1,1 0,3 1,0 1,1 0,3 1,1 0,1 2,0 1,1 0,4 1,1 0,3 1,1 0,1 2,0 1,1 0,5 17,0 0,-2 1,-1 -1,-1 0,-1 -2,0 -1,-1 -2,0 -1,-1 0,-2 1,-1 -1,-1 0,0 -1,-1 0,-1 -1,-1 0,-1 -1,-1 0,-4 -1,-1 0,-1 -1,-1 -2,0 -1,-1 0,-2 1,-1 0,-1 -1,0 -1,-1 0,-1 -1,-1 0,-4 -1,-1 0,-1 -1,-1 -1,-1 0,-1 -2,0 -1,-1 0,-2 1,-1 0,-1 -1,0 -1,-1 0,-4 -1,-1 -2,0 -1,-1 0,-4 -1,-1 0,-2 -1,-1 0,-2 -1,-1 -1,-1 0,-3 -1,-1 0,-1 -1,-1 0,-1 -1,-1 0,-1 -1,-1 0,-2 -1,-1 0,-1 -1,-1 0,-1 -1,-1 0,-1 -2,0 -1,-1 0,-2 1,-1 -1,-1 0,0 -1,-1 0,-1 -1,-1 0,-3 -1,-1 0,-1 -1,-1 0,-1 -1,-1 -1,-1 0,-1 -1,0 -1,-1 0,-2 1,-1 0,-1 -1,0 -1,-1 0,-3 -1,-1 0,-1 -1,-1 -1,-1 0,-3 -1,-1 0,-1 -2,0 -1,-1 0,-1 -1,-1 0,-4 -1,-1 0,-1 -1,-1 0,-1 -1,-1 0,-3 -1,-1 0,-1 -2,0 -1,-1 0,-4 -1,-1 0,-3 -2,0 -1,-1 0,-2 1,-1 -1,-1 0,0 -1,-1 0,-1 -1,-1 0,-1 -1,-1 0,-3 -1,-1 -5,0 0,6 -1,1Z"/>
<path onmouseover="hoverPath(evt)" onmouseout="recoverPath(evt)" fill="rgb(222,229,237)" d="M  85,17l -1,0 -1,1 0,2 -1,1 -1,1 0,1 -1,1 0,4 1,1 0,2 1,1 0,2 1,1 1,-1 0,-1 -1,-1 0,-1 -1,-1 0,-1 -1,-1 0,-4 1,-1 1,-1 3,0 0,-3 1,-1 8,0 1,-1 1,0 0,-1 1,-1 4,0 1,1 0,2 -1,1 1,1 0,0 1,1 0,8 -1,1 -1,0 -1,1 -2,0 -1,1 -1,0 -1,1 -2,0 1,1 1,0 1,-1 2,0 1,-1 2,0 1,-1 2,0 1,-1 3,0 1,-1 -1,-1 0,-1 -1,-1 0,-5 -2,0 -1,-1 0,-6 -5,0 -1,-1 0,-3 -1,-1 0,-1 -1,-1 0,-1 -1,-1 0,-1 -1,-1 0,-3 -1,0 0,5 -1,1 -1,0 -1,1 -1,1 -1,0 0,1 -1,1 -1,0 0,1 1,1 0,0 1,1 0,2 -1,1 -2,0 -1,1Z"/>
<path onmouseover="hoverPath(evt)" onmouseout="recoverPath(evt)" fill="rgb(244,242,235)" d="M  135,0l -2,0 0,2 1,1 0,1 1,1 0,3 2,0 1,1 0,7 1,1 0,2 1,1 0,1 1,1 0,1 1,1 0,2 1,0 1,1 1,1 1,0 1,1 1,0 1,1 0,2 2,0 1,-1 12,0 1,1 0,2 12,0 1,1 7,0 1,1 6,0 1,1 7,0 1,-1 10,0 1,-1 1,0 1,-1 1,-1 2,0 0,-1 1,-1 2,0 1,-1 2,0 0,-1 1,-1 0,-1 1,-1 0,-2 1,-1 0,-1 -1,-1 0,-3 -1,1 -2,0 -1,-1 0,-2 1,-1 2,0 0,-2 1,-1 0,-1 -1,-1 0,-2 -3,0 -1,-1 0,-3 -1,-1 0,-3Z"/>
<path onmouseover="hoverPath(evt)" onmouseout="recoverPath(evt)" fill="rgb(244,243,235)" d="M  238,0l -17,0 0,2 1,1 0,3 3,0 1,1 1,0 1,1 0,2 -1,1 0,2 -1,1 0,2 1,1 0,3 1,1 0,3 -1,1 0,2 -1,1 0,1 -1,1 0,1 -1,1 -2,0 -1,1 -2,0 0,1 -1,1 0,1 1,-1 2,0 1,1 0,2 -1,1 0,3 -1,1 0,1 -1,1 -2,0 1,1 0,3 1,1 0,4 -1,1 2,-1 3,0 1,-1 4,0 1,-1 4,0 1,-1 3,0 1,-1 3,0 1,-1 4,0 1,-1 3,0 1,-1 4,0 0,-47Z"/>
<path onmouseover="hoverPath(evt)" onmouseout="recoverPath(evt)" fill="rgb(239,238,228)" d="M  53,97l 0,-2 -1,-1 0,-2 -1,-1 0,-1 -1,-1 -1,1 0,4 -1,1 -1,0 0,1 1,1 0,3 1,1 0,1 1,1 0,1 1,1 1,1 0,2 -1,1 2,0 1,1 0,3 1,1 0,4 2,0 1,1 0,1 1,1 0,3 1,1 0,1 1,1 0,1 1,1 0,4 1,1 0,1 2,0 1,1 0,1 1,1 0,3 1,1 1,1 0,1 1,1 0,3 1,0 1,1 0,3 -1,1 1,0 1,1 0,1 1,1 1,1 0,1 1,1 0,1 1,1 0,3 1,1 0,1 1,1 1,1 0,2 -1,1 2,0 1,1 0,1 1,1 0,1 1,1 0,1 1,1 0,2 1,1 0,1 1,1 0,1 1,1 0,1 1,1 0,3 1,1 1,1 0,2 1,1 0,2 1,1 0,4 2,0 1,1 1,1 0,4 1,-1 0,0 -1,-4 0,0 1,-1 0,-1 -1,-1 0,-1 -1,-1 0,-2 -1,-1 0,-2 -1,-1 0,-1 -1,-1 0,-2 -1,-1 0,-1 -1,-1 0,-2 -1,-1 0,-2 -1,-1 0,-1 -1,-1 0,-2 -1,-1 0,-1 -1,-1 0,-2 -1,-1 0,-2 -1,-1 0,-1 -1,-1 0,-2 -1,-1 0,-1 -1,-1 0,-2 -1,-1 0,-1 -1,-1 0,-2 -1,-1 0,-1 -1,-1 0,-1 -1,-1 0,-1 -1,-1 0,-2 -1,-1 0,-1 -1,-1 0,-1 -1,-1 0,-1 -1,-1 0,-1 -1,-1 0,-2 -1,-1 0,-1 -1,-1 0,-1 -1,-1 0,-1 -1,-1 0,-1 -1,-1 0,-1 -1,-1 0,-1 -1,-1 0,-2 -1,-1 0,-1 -1,-1 0,-1 -1,-1 0,-1 -1,-1 0,-1 -1,-1 0,-1 -1,-1 0,-1 -1,-1 0,-2 -1,-1 0,-1 -1,-1 0,-1 -1,-1Z"/>
<path onmouseover="hoverPath(evt)" onmouseout="recoverPath(evt)" fill="rgb(244,243,235)" d="M  86,154l 0,2 1,1 0,1 1,1 0,2 1,1 0,2 2,0 1,1 0,2 -1,1 0,1 1,1 0,1 1,1 0,2 1,1 0,2 2,0 1,1 0,2 -1,1 0,1 1,1 0,1 1,1 0,2 1,1 0,2 2,0 1,1 0,2 -1,1 0,1 1,1 0,1 1,1 0,2 2,0 1,1 0,2 -1,1 0,1 1,1 0,1 1,1 0,1 2,0 1,1 0,2 -1,1 1,1 0,0 1,-1 3,0 1,-1 3,0 1,-1 3,0 1,-1 2,0 1,-1 2,0 1,-1 3,0 1,-1 2,0 1,-1 2,0 1,-1 2,0 1,-1 3,0 1,-1 2,0 1,-1 3,0 1,-1 2,0 1,-1 2,0 1,-1 2,0 1,-1 3,0 1,-1 2,0 1,-1 3,0 1,-1 2,0 1,-1 2,0 1,-1 2,0 1,-1 2,0 1,-1 3,0 1,-1 2,0 0,-2 1,-1 2,0 1,1 1,0 0,-1 -1,-1 0,-1 -1,-1 0,-1 -1,-1 0,-2 -1,-1 0,-1 -1,-1 0,-1 -1,-1 0,-2 -1,-1 0,-1 -1,-1 0,-1 -1,-1 0,-2 -1,-1 0,-1 -1,-1 0,-1 -1,-1 0,-2 -1,-1 0,-1 -1,-1 0,-1 -1,-1 0,-1 -1,-1 0,-2 -1,-1 0,-1 -1,-1 0,-1 -1,-1 0,-2 -1,-1 0,-1 -1,-1 0,-1 -1,-1 0,-2 -1,-1 0,-1 -1,-1 0,-1 -1,-1 0,-2 -1,-1 0,-1 -1,-1 -1,1 -2,0 -1,-1 -1,0 -1,1 -2,0 -1,1 -2,0 -1,1 -2,0 -1,1 -2,0 -1,1 -2,0 -1,1 -2,0 -1,1 -2,0 0,2 -1,1 -2,0 -1,-1 -1,0 -1,1 -2,0 -1,1 -2,0 -1,1 -2,0 -1,1 -2,0 -1,1 -2,0 -1,1 -2,0 -1,1 -2,0 0,2 -1,1 -2,0 -1,-1 -2,0 -1,1 -2,0 -1,1 -2,0 -1,1 -2,0 -1,1 -2,0 -1,1 -2,0 -1,1 -2,0 -1,1 -3,0 -1,1 -2,0 -1,1 1,1Z"/>
<path onmouseover="hoverPath(evt)" onmouseout="recoverPath(evt)" fill="rgb(241,239,229)" d="M  172,255l 53,0 0,-1 -1,-1 -2,0 -1,-1 0,-2 1,-1 1,0 0,-1 -1,0 -1,-1 0,-3 -1,-1 0,-1 -1,-1 0,-2 -1,3 -2,0 -1,-1 0,-4 -1,-1 0,-3 -1,-1 -1,-1 0,-4 1,-1 0,-1 -1,-1 0,-1 -1,-1 0,-2 -1,0 -1,-1 -1,-1 0,-4 -1,-1 0,-1 -1,-1 0,-1 -1,-1 0,-1 -1,-1 0,-2 -1,-1 0,-1 -1,-1 0,-1 -1,-1 0,-1 -1,-1 0,-1 -1,-1 0,-1 -3,0 -1,-1 -1,0 -1,1 -2,0 -1,1 -2,0 -1,1 1,1 1,0 1,1 2,0 1,1 1,1 0,2 -1,1 0,1 2,0 1,1 1,1 0,3 1,1 0,4 1,1 0,2 1,1 3,0 1,1 0,2 -1,1 -1,0 -1,1 -1,0 -1,1 -3,0 -1,1 -5,0 -1,-1 0,-2 1,-1 2,0 1,-1 0,-1 -1,-1 0,-1 -1,-1 0,-1 -1,-1 0,-2 -1,-1 0,-1 -1,-1 0,-1 -1,0 -1,-1 -3,0 -1,-1 0,-6 1,-1 0,-2 -2,0 -1,1 -2,0 0,2 -1,1 -3,0 -1,-1 -1,0 -1,1 -2,0 0,2 1,1 0,2 -1,1 -2,0 -1,-1 -5,0 -1,1 -3,0 -1,1 -2,0 0,1 -1,1 0,1 -1,1 -1,1 -2,0 -1,-1 0,-2 -2,0 -1,1 -3,0 -1,1 -2,0 -1,1 -2,0 -1,1 -3,0 -1,1 -2,0 -1,1 -2,0 -1,1 -1,0 -1,1 -2,0 -1,1 -1,0 -1,1 0,2 1,1 0,2 -1,1 -2,0 -1,-1 -1,-1 0,-1 1,3 1,1 0,1 1,1 0,1 1,1 1,1 0,1 1,1 0,2 1,1 0,1 1,1 0,1 1,1 0,1 1,1 0,1 1,1 0,1 1,1 0,1 1,1 0,1 1,1 0,3 44,0 -44,-6 0,-2 1,-1 2,0 1,1 0,2 -1,1 -2,0 -1,-1 44,6 -47,-12 0,-2 1,-1 2,0 1,1 0,2 -1,1 -2,0 -1,-1 47,12 3,-37 2,0 1,1 0,2 -1,1 -2,0 -1,-1 0,-2 1,-1 -3,37Z"/>
<path onmouseover="hoverPath(evt)" onmouseout="recoverPath(evt)" fill="rgb(244,243,236)" d="M  181,122l 0,2 1,1 0,1 1,1 0,1 1,1 0,1 1,1 0,2 1,1 0,1 1,1 0,1 1,1 0,1 1,1 0,1 1,0 1,-1 1,0 1,-1 2,0 1,-1 2,0 1,1 4,0 1,1 1,1 2,0 1,1 0,1 1,1 1,1 2,0 1,-1 0,0 1,-1 2,0 1,-1 1,-1 1,0 1,-1 4,0 1,1 1,0 0,-2 1,-1 3,0 1,-1 3,0 1,1 2,0 1,-1 1,0 0,-6 -1,-1 0,-2 1,-1 -1,-1 0,-2 -1,-1 0,-2 -1,-1 -1,-1 0,-1 -2,0 -1,-1 0,-1 -1,-1 0,-2 -1,-1 0,-2 1,-1 -2,0 -1,-1 0,-1 -1,-1 0,-2 -1,-1 0,-1 -1,-1 -1,-1 0,-4 1,-1 0,-2 1,-1 1,0 1,-1 2,0 1,1 2,0 1,-1 1,0 1,-1 1,0 1,-1 1,0 0,-2 1,-1 1,-1 3,0 1,-1 1,-1 2,0 1,-1 1,0 1,-1 4,0 0,-23 -1,0 -1,1 -3,0 -1,1 -3,0 -1,1 -3,0 -1,1 -3,0 -1,1 -4,0 -1,1 -4,0 -1,1 -4,0 -1,1 -4,0 -1,1 -3,0 -1,1 -2,0 -1,-1 -2,0 -1,1 -11,0 -1,-1 -14,0 -1,-1 -22,0 -1,-1 -2,0 1,1 0,2 1,1 0,1 1,1 0,1 1,1 0,2 1,1 0,1 1,1 0,1 1,1 0,1 1,1 0,1 1,1 0,1 1,1 0,2 1,1 0,1 1,1 0,1 1,1 0,2 1,1 0,1 1,1 0,1 1,1 0,1 1,1 0,1 1,1 0,2 1,1 0,1 1,1 0,1 1,1 0,1 1,1 0,1 1,1 0,1 1,0 1,-1 2,0 1,1 0,2 -1,1 0,2 -1,1Z"/>
<path onmouseover="hoverPath(evt)" onmouseout="recoverPath(evt)" fill="rgb(239,235,214)" d="M  194,58l 12,0 0,-1 1,-1 0,-4 1,-1 2,0 1,-1 1,-1 4,0 0,-2 -1,1 -3,0 -1,-1 -2,0 -1,1 0,2 -1,1 -13,7 -5,0 -1,-1 5,1 1,0 -7,-1 -4,0 -1,-1 0,1 -1,-2 0,0 6,2 7,1 -14,-3 -10,0 -1,1 0,0 11,-1 14,3 -27,-2 1,0 1,1 -3,-1 -10,0 -1,-1 1,-1 -2,0 -1,1 1,0 13,1 27,2 -23,-5 0,0 23,5 -3,-4 -1,-1 -5,0 6,1 3,4 10,-4 0,0 -10,4 -33,-6Z"/>
<path onmouseover="hoverPath(evt)" onmouseout="recoverPath(evt)" fill="rgb(254,254,254)" d="M  209,186l -1,0 0,1 2,0 1,-1 2,0 1,-1 1,0 1,-1 2,0 1,-1 2,0 1,-1 2,0 1,-1 3,0 1,-1 2,0 1,-1 2,0 1,-1 3,0 1,-1 2,0 1,-1 2,0 1,-1 3,0 1,-1 3,0 1,-1 2,0 0,-1 -3,0 -1,1 -3,0 -1,1 -2,0 -1,1 -3,0 -1,1 -2,0 -1,1 -2,0 -1,1 -2,0 -1,1 -3,0 -1,1 -2,0 -1,1 -2,0 -1,1 -2,0 -1,1 -2,0 -1,1 -2,0 -1,1 -2,0 -1,1Z"/>
<path onmouseover="hoverPath(evt)" onmouseout="recoverPath(evt)" fill="rgb(183,145,233)" d="M  0,3l 0,36 2,0 1,1 0,1 1,1 0,1 1,1 1,1 0,3 2,0 1,1 0,2 -1,1 0,5 1,1 1,1 0,1 2,0 1,1 0,1 1,1 0,1 1,1 0,1 2,0 1,1 0,5 1,0 1,1 1,1 0,2 -1,1 -1,0 1,1 0,1 2,0 1,1 1,1 0,2 -1,1 1,1 0,2 1,1 0,2 1,0 1,1 0,3 1,1 1,1 0,2 1,1 0,2 1,1 7,0 0,-6 1,-1 6,0 -1,-1 0,0 -1,-1 0,-1 -1,-1 0,-2 -1,-1 0,-2 -1,-1 0,-2 -1,0 -1,-1 0,-2 -1,0 -1,-1 0,-1 -1,0 -1,-1 -1,-1 0,-2 1,-1 0,-2 -3,0 -1,-1 0,-2 1,-1 1,0 -1,-1 0,-1 -1,-1 0,-2 -1,-1 0,-1 -1,-1 0,-3 1,-1 0,-2 -4,0 -1,-1 -1,0 -1,-1 0,-1 -1,-1 0,-1 -1,-1 0,-1 -1,-1 -1,-1 0,-1 -1,-1 0,-1 -1,-1 0,-1 -1,-1 0,-2 1,-1 0,-2 -1,-1 0,-1 -1,-1 -1,-1 0,-1 -1,0 -1,-1 0,-2 1,-1 0,-1 -1,-1 0,-1 -1,-1 0,-1 -1,-1 -1,-1 0,-1 -1,0 -1,-1 0,-2 1,-1 -1,-1 0,-2 -1,-1 0,-1 -1,-1 0,-2 -1,-1 -1,-1 0,-2 -2,0Z"/>
<path onmouseover="hoverPath(evt)" onmouseout="recoverPath(evt)" fill="rgb(236,233,226)" d="M  31,51l 0,0 -1,-1 0,-2 -1,-1 0,-1 -1,-1 0,-2 -1,-1 0,-1 -1,-1 0,-1 -1,-1 0,-2 -1,-1 0,-1 -1,-1 0,-1 -1,-1 0,-2 -1,-1 0,-1 -1,-1 0,-1 -1,-1 0,-2 -1,-1 0,-1 -1,-1 0,-2 -1,-1 0,-1 -1,-1 0,-1 -1,-1 0,-2 -1,-1 0,-1 -1,-1 0,-1 -1,-1 0,-2 -1,-1 0,-2 -6,0 0,1 2,2 0,2 1,1 0,1 1,1 0,2 1,1 0,2 -1,1 1,0 1,1 0,1 1,1 1,1 0,1 1,1 0,1 1,1 0,3 -1,1 1,0 1,1 0,1 1,1 1,1 0,1 1,1 0,4 -1,1 1,1 0,1 1,1 0,1 1,1 0,1 1,1 1,1 0,1 1,1 0,1 1,1 0,1 1,0 1,1 5,0 1,2 -1,0 0,3 -1,1 0,1 1,1 0,1 1,0 1,-1 3,0 1,1 0,-1 -1,-1 0,0 -1,-1 -1,-1 -1,-1 0,-1 -1,-1 -1,-2Z"/>
<path onmouseover="hoverPath(evt)" onmouseout="recoverPath(evt)" fill="rgb(241,239,229)" d="M  144,35l 0,2 -1,1 0,1 1,1 0,2 1,1 0,2 1,1 0,2 2,0 1,1 0,2 -1,1 0,2 3,0 1,-1 1,-1 2,0 1,-1 2,0 1,-1 12,0 1,1 19,0 1,1 13,0 0,-2 1,-1 0,-2 1,-1 1,-1 4,0 1,1 1,0 1,-1 0,-1 1,-1 2,0 0,-1 1,-1 0,-2 -1,-1 -1,0 -1,-1 0,-2 -1,1 0,0 -1,1 -1,0 -1,1 -10,0 -1,1 -9,0 -1,-1 -6,0 -1,-1 -7,0 -1,-1 -12,0 -1,-1 0,-2 -10,0 -1,1 -4,0 -1,-1 -3,0 -1,-1 -1,0 -1,-1 -1,-1 1,2 0,2 2,0 1,1Z"/>
<path onmouseover="hoverPath(evt)" onmouseout="recoverPath(evt)" fill="rgb(243,242,233)" d="M  192,147l 0,1 1,1 0,2 1,1 0,1 1,1 0,1 1,1 0,1 1,1 0,2 1,1 0,1 1,1 0,1 1,1 0,1 1,1 0,2 1,1 0,1 1,1 0,1 1,1 0,1 1,1 0,2 1,1 0,1 1,1 0,1 2,0 1,1 1,0 1,-1 2,0 1,-1 2,0 1,-1 2,0 1,-1 2,0 1,-1 2,0 1,-1 3,0 1,-1 2,0 1,-1 2,0 1,-1 2,0 1,-1 3,0 -1,-1 0,0 -1,-1 -4,0 -1,-1 -1,-1 -1,-1 -1,-1 0,-1 -1,-1 -1,-1 -1,-1 -1,0 -1,-1 -1,-1 -1,0 -1,-1 -1,0 -1,-1 -1,-1 -1,0 -1,-1 -1,-1 0,-2 -1,-1 -1,1 -2,0 -1,-1 -1,-1 0,-4 -1,-1 -3,0 -1,-1 -1,-1 -2,0 -1,-1 0,-1 -1,-1 -1,-1 -3,0 -1,1 -2,0 -1,-1 -1,0 -1,1 -1,0 0,2 -1,1 1,1Z"/>
<path onmouseover="hoverPath(evt)" onmouseout="recoverPath(evt)" fill="rgb(245,235,160)" d="M  0,76l 0,4 3,0 1,1 1,-1 2,0 1,1 0,-3 1,-1 3,0 1,1 0,1 1,-2 1,0 1,-1 1,0 1,-1 1,0 -1,-1 -1,0 -1,-1 0,-5 -1,2 -2,0 -1,1 -2,0 -1,-1 0,2 -1,1 -4,0 -1,-1 0,-2 -1,-1 0,-2 -1,-1 0,-1 -1,0Z"/>
<path onmouseover="hoverPath(evt)" onmouseout="recoverPath(evt)" fill="rgb(243,242,233)" d="M  7,59l 0,0 -1,-1 0,-7 1,-1 -2,0 -1,-1 0,-3 -1,-1 -1,-1 0,-1 -1,-1 0,-1 -1,0 0,22 2,0 1,1 0,1 1,1 0,2 1,1 0,2 2,0 0,-1 -1,-1 0,-2 1,-1 2,0 1,1 1,1 3,0 -1,-1 0,-1 -1,-1 0,-1 -1,-1 0,-1 -2,0 -1,-1 0,-1 -1,-1Z"/>
<path onmouseover="hoverPath(evt)" onmouseout="recoverPath(evt)" fill="rgb(234,233,224)" d="M  95,50l 0,0 1,1 12,0 1,-1 2,0 1,1 0,1 15,0 1,1 12,0 0,-1 -2,0 -1,-1 0,-2 1,-1 0,-1 -1,-1 0,-2 -1,-1 0,-1 -1,-1 0,-1 -1,0 0,3 -1,1 -1,1 -3,0 -1,-1 -4,0 -1,-1 0,-2 1,-1 -1,-1 0,-2 1,-1 1,-1 1,-1 0,-1 1,-1 -1,-1 0,-2 1,-1 2,0 1,1 0,-1 -1,-1 0,-1 -1,-1 0,-1 -1,-1 0,-3 -1,-1 0,-2 -1,-1 -1,-1 0,-2 -1,-1 0,-5 -1,-1 0,-1 -2,0 -1,-1 0,-1 -1,-1 0,-2 -21,0 0,2 1,1 0,1 1,1 0,1 1,1 0,1 1,1 0,3 5,0 1,1 0,6 2,0 1,1 0,5 1,1 0,1 1,1 0,2 -1,1 -1,1 -3,0 -1,1 -2,0 -1,1 -2,0 -1,1 -2,0 -1,1 -3,0 -1,-1 -1,-1 0,-2 1,-1 2,0 1,-1 1,0 1,-1 2,0 1,-1 1,0 0,-6 -1,-1 0,0 -1,-1 0,-2 1,-1 -2,0 0,1 -1,1 -1,0 -1,1 -8,0 0,3 -1,1 -3,0 -1,1 0,2 1,1 0,1 1,1 0,1 1,1 0,3 -1,1 -1,1 -2,0 -1,-1 0,3 -1,1 -1,0 -2,2 -2,0 -1,1 -1,0 -1,1 -1,0 -1,1 -1,0 -1,1 1,0 1,1 0,3 8,0 1,-1 5,0 1,1Z"/>
<path onmouseover="hoverPath(evt)" onmouseout="recoverPath(evt)" fill="rgb(243,242,234)" d="M  99,68l 0,2 -1,1 0,1 -1,1 -2,0 -1,1 0,1 -1,1 -1,1 -2,2 1,0 1,1 0,0 1,-1 2,0 1,1 1,1 1,1 1,1 1,1 1,1 1,1 1,1 0,3 1,1 1,1 1,1 1,1 0,1 1,1 1,1 1,1 3,0 1,1 1,0 1,-1 2,0 1,-1 2,0 1,-1 4,0 1,1 2,0 0,-2 1,-1 2,0 1,-1 4,0 1,1 2,0 1,-1 3,0 1,-1 3,0 1,-1 5,0 0,-1 -1,0 -1,-1 0,-2 -1,-1 0,-1 -1,-1 0,-1 -1,-1 0,-2 -1,-1 0,-1 -1,-1 0,-2 -1,-1 0,-1 -1,-1 0,-1 -1,-1 0,-2 -1,-1 0,-1 -1,-1 -3,0 0,2 -1,1 -2,0 -1,-1 -3,0 -1,-1 0,-2 -16,0 -1,-1 -17,0 -1,-1 -3,0 -1,1 4,0 2,1 0,3 1,1Z"/>
<path onmouseover="hoverPath(evt)" onmouseout="recoverPath(evt)" fill="rgb(253,253,253)" d="M  10,253l -2,0 0,2 5,0 0,-2 1,-1 2,0 1,-1 1,0 1,-1 2,0 1,-1 1,0 1,-1 2,0 1,-1 1,0 1,-1 2,0 1,-1 2,0 1,-1 1,0 1,-1 1,0 1,-1 2,0 1,-1 3,0 1,1 0,2 -1,1 0,2 -1,1 0,1 -1,1 0,2 -1,1 0,2 2,0 0,-4 1,-1 0,-2 1,-1 0,-1 1,-1 0,-2 1,-1 0,-2 1,-1 1,-1 1,0 1,-1 2,0 1,-1 2,0 1,-1 2,0 1,-1 1,0 1,-1 2,0 1,-1 2,0 1,-1 2,0 1,-1 5,0 1,1 1,1 0,1 1,1 0,1 1,1 0,1 1,1 0,1 1,1 0,1 1,1 0,2 1,1 0,1 1,1 0,1 1,1 0,1 1,1 0,1 1,1 0,2 2,0 0,-1 -1,-1 0,-1 -1,-1 0,-1 -1,-1 0,-1 -1,-1 0,-1 -1,-1 0,-1 -1,-1 0,-1 -1,-1 0,-1 -1,-1 0,-1 -1,-1 0,-2 -1,-1 -1,-1 0,-1 -1,-1 0,-1 -1,-1 0,-2 -1,-1 -1,-1 0,-2 -1,-1 0,-1 -1,-1 0,-1 -1,-1 0,-1 -1,-1 0,-1 -1,-1 0,-1 -1,-1 0,-2 -1,-1 0,-1 -1,-1 0,-1 -1,-1 0,-1 -1,-1 0,-1 -1,-1 0,-2 -1,-1 0,-1 -1,-1 0,-1 -1,-1 0,-1 -1,-1 0,-2 -1,-1 0,-2 -1,-1 0,-1 -1,-1 0,-2 -1,-1 0,-1 -1,-1 0,-1 -1,-1 0,-1 -1,-1 0,-2 -1,-1 0,-1 -1,-1 0,-1 -1,-1 0,-1 -1,-1 0,-1 -1,-1 0,-2 -1,-1 0,-1 -1,-1 0,-1 -1,-1 0,-1 -1,-1 0,-2 -1,-1 0,-1 -1,-1 0,-1 -1,-1 0,-1 -1,-1 0,-1 -1,-1 0,-2 -1,-1 0,-1 -1,-1 0,-1 -1,-1 0,-1 -1,-1 0,-1 -1,-1 0,-1 -1,-1 0,-1 -1,-1 0,-2 -1,-1 0,-1 -1,-1 0,-1 -1,-1 0,-1 -1,0 0,2 1,1 0,1 1,1 0,1 1,1 0,1 1,1 0,1 1,1 0,1 1,1 0,2 1,1 0,1 1,1 0,1 1,1 0,1 1,1 0,1 1,1 0,2 1,1 0,1 1,1 0,1 1,1 0,1 1,1 0,1 1,1 0,1 1,1 0,2 1,1 0,1 1,1 0,1 1,1 0,1 1,1 0,2 1,1 0,1 1,1 0,1 1,1 0,1 1,1 0,2 1,1 0,1 1,1 0,1 1,1 0,2 1,1 0,1 1,1 0,2 1,1 0,1 1,1 0,2 1,1 0,1 1,1 0,1 1,1 0,1 1,1 0,1 1,1 0,2 1,1 0,1 1,1 0,1 1,1 0,1 1,1 0,1 1,1 0,1 1,1 0,2 1,1 0,1 1,1 0,1 1,1 0,3 -1,1 -1,1 -2,0 -1,1 -1,0 -1,1 -2,0 -1,1 -2,0 -1,1 -2,0 -1,1 -2,0 -1,1 -3,0 -1,-1 0,-4 1,-1 0,-1 1,-1 1,-1 0,-1 1,-1 0,-1 1,-1 1,-1 0,-1 1,-1 0,-1 1,-1 1,-1 0,-1 1,-1 0,-1 1,-1 0,-1 -1,0 -1,1 0,1 -1,1 0,1 -1,1 0,1 -1,1 -1,1 0,1 -1,1 0,1 -1,1 -1,1 0,1 -1,1 0,1 -1,1 0,1 -1,1 0,1 -1,1 0,2 -1,1 0,1 -1,1 -1,1 -1,0 -1,1 -1,0 -1,1 -2,0 -1,1 -1,0 -1,1 -2,0 -1,1 -1,0 -1,1 -3,0 -1,-1 0,-2 -1,-1 0,-13 -2,0 -1,1 1,0 1,1 0,1 1,11 0,4 -1,1 -1,0 -1,1 -2,0 -1,1 -1,0 -1,1 -2,0 -1,1 -1,0 -1,1 -1,0 -1,1 -2,0 -1,1Z"/>
<path onmouseover="hoverPath(evt)" onmouseout="recoverPath(evt)" fill="rgb(241,240,231)" d="M  31,227l 0,0 -1,-1 0,13 1,1 0,2 1,0 1,-1 1,0 1,-1 2,0 1,-1 1,0 1,-1 2,0 1,-1 1,0 1,-1 1,0 1,-1 0,-1 1,-1 0,-2 1,-1 0,-1 1,-1 0,-1 1,-1 0,-1 1,-1 0,-1 1,-1 1,-1 0,-1 1,-1 0,-1 1,-1 1,-1 0,-1 1,-1 0,-1 1,-1 0,-1 1,-1 1,-1 3,0 1,1 0,3 -1,1 0,1 -1,1 0,1 -1,1 -1,1 0,1 -1,1 0,1 -1,1 -1,1 0,1 -1,1 0,1 -1,1 -1,1 0,1 -1,1 0,2 1,0 1,-1 2,0 1,-1 2,0 1,-1 2,0 1,-1 2,0 1,-1 1,0 1,-1 2,0 1,-1 0,-1 -1,-1 0,-1 -1,-1 0,-1 -1,-1 0,-2 -1,-1 0,-1 -1,-1 0,-1 -1,-1 0,-1 -1,-1 0,-1 -1,-1 0,-1 -1,-1 0,-2 -1,-1 0,-1 -1,-1 0,-1 -1,-1 0,-1 -1,-1 0,-1 -1,-1 0,-2 -1,-1 0,-1 -1,-1 0,-2 -1,-1 0,-1 -1,-1 0,-2 -1,-1 0,-1 -1,-1 0,-1 -1,-1 0,-2 -1,-1 0,-1 -1,-1 0,-1 -1,-1 0,-1 -1,-1 0,-2 -1,-1 0,-1 -1,-1 0,-1 -1,-1 0,-1 -1,-1 0,-2 -1,-1 0,-1 -1,-1 0,-1 -1,-1 0,-1 -1,-1 0,-1 -1,-1 0,-1 -1,-1 0,-2 -1,-1 0,-1 -1,-1 0,-1 -1,-1 0,-1 -1,-1 0,-1 -1,-1 0,-2 -1,-1 0,-1 -1,-1 0,-1 -1,-1 0,-1 -1,-1 0,-1 -1,-1 0,-1 -1,-1 0,-4 1,-1 0,-5 -1,0 -1,-1 0,-3 -2,0 -1,-1 0,-3 -1,-1 0,-2 -1,-1 -1,-1 0,-1 -1,-1 -2,0 -1,-1 -1,-1 0,-1 -1,-1 0,-1 -1,-1 0,-1 -1,-1 0,-1 -1,-1 0,-2 -1,-1 0,-1 -1,-1 0,-1 -2,0 -1,-1 -1,1 -2,0 -1,-1 -2,0 0,107 2,0 0,-1 1,-1 0,-2 1,-1 1,-1 1,-1 1,-1 1,-1 1,-1 1,-1 1,0 1,-1 1,-1 2,0 1,1 1,-1 1,0 0,-2 1,-1 2,0 0,-2 1,-1 11,0 1,1 0,2 1,1 0,2 1,1 1,1 1,1 2,0 1,1 0,2 -1,1 1,1 0,1 1,1 2,0 1,1 0,1 1,1 0,1 1,1 0,2 -1,1 1,1 0,0 1,1 2,0 1,1 0,13 -1,1 -2,0 1,1 0,2 -1,1 -2,0 -1,1 -1,1 -1,1 -1,1 -1,1 0,2 -1,1 -1,1 -2,0 -1,-1 -1,1 -1,0 0,2 -1,1Z"/>
<path onmouseover="hoverPath(evt)" onmouseout="recoverPath(evt)" fill="rgb(250,250,247)" d="M  57,93l 0,0 -1,1 -1,1 0,1 1,1 0,1 1,1 0,1 1,1 0,2 1,1 0,1 1,1 0,1 1,1 0,1 1,1 0,1 1,1 0,1 1,1 0,1 1,1 0,2 1,1 0,1 1,1 0,1 1,1 0,1 1,1 0,1 1,1 0,1 1,1 0,1 1,1 0,2 1,1 0,1 1,1 0,1 1,1 0,1 1,1 0,1 1,1 0,2 1,1 0,1 1,1 0,1 1,1 0,1 1,1 0,2 1,1 0,1 1,1 0,2 1,1 0,1 1,1 0,2 1,1 0,1 1,1 0,2 1,1 0,2 1,1 0,1 1,1 0,2 1,1 0,1 1,1 0,2 1,1 0,2 1,1 0,1 1,1 0,2 1,1 0,1 1,1 0,2 1,1 0,2 1,1 0,1 1,1 0,3 -1,1 0,1 1,1 0,2 -1,1 0,3 -1,1 2,0 1,1 0,1 1,1 1,1 0,1 1,1 0,4 1,1 0,1 1,0 1,1 0,3 -1,1 2,0 1,1 1,1 0,1 1,1 0,4 1,1 0,1 1,1 0,1 1,1 1,1 0,2 3,0 1,1 0,1 1,1 0,1 1,1 0,2 -1,1 0,1 6,0 0,-2 -1,-1 0,-1 -1,-1 0,-1 -1,-1 0,-1 -1,-1 0,-1 -1,-1 0,-1 -1,-1 0,-1 -1,-1 0,-1 -1,-1 0,-2 -1,-1 0,-1 -1,-1 -1,-1 0,-1 -1,-1 0,-1 -1,-1 0,-1 -1,-1 0,-3 1,-1 2,0 1,1 0,-3 2,-2 1,0 1,-1 2,0 1,-1 1,0 1,-1 2,0 1,-1 2,0 1,-1 3,0 1,-1 2,0 1,-1 2,0 1,-1 3,0 1,-1 4,0 1,1 0,2 1,-1 0,-1 1,-1 0,-1 1,-1 2,0 1,-1 3,0 1,-1 6,0 1,-1 0,-3 1,-1 2,0 1,-1 3,0 1,1 1,0 0,-2 1,-1 2,0 1,-1 4,0 1,1 0,4 -1,1 0,4 3,0 1,1 1,0 1,1 0,1 1,1 0,1 1,1 0,2 1,1 0,1 1,1 0,1 1,1 0,3 -1,1 -1,1 1,0 1,-1 3,0 1,-1 1,0 1,-1 -2,0 -1,-1 -1,-1 0,-2 -1,-1 0,-4 -1,-1 0,-3 -1,-1 -2,0 -1,-1 0,-3 1,-1 -1,-1 -2,0 -1,-1 -1,0 -1,-1 -129,-106 128,103 1,-1 1,-1 2,0 1,-1 2,0 1,-1 2,0 1,-1 2,0 0,-1 -4,0 -1,-1 0,2 -1,1 -2,0 -1,1 -3,0 -1,1 -2,0 -1,1 -2,0 -1,1 -2,0 -1,1 -2,0 -1,1 -3,0 -1,1 -2,0 -1,1 -3,0 -1,1 -2,0 -1,1 -2,0 -1,1 -2,0 -1,1 -3,0 -1,1 -2,0 -1,1 -3,0 -1,1 -2,0 -1,1 -2,0 -1,1 -2,0 -1,1 -3,0 -1,1 -2,0 -1,1 -2,0 -1,1 -3,0 -1,1 -3,0 -1,1 -3,0 -1,1 -2,0 -1,-1 -1,-1 0,-2 1,-1 -2,0 -1,-1 0,-1 -1,-1 0,-1 -1,-1 0,-3 1,-1 -2,0 -1,-1 0,-2 -1,-1 0,-1 -1,-1 0,-3 1,-1 -2,0 -1,-1 0,-2 -1,-1 0,-2 -1,-1 0,-1 -1,-1 0,-3 1,-1 -2,0 -1,-1 0,-2 -1,-1 0,-2 -1,-1 0,-1 -1,-1 0,-3 1,-1 -2,0 -1,-1 0,-2 -1,-1 0,-2 -1,-1 0,-1 -1,-1 0,-2 -1,-1 0,-2 1,-1 1,-1 2,0 1,-1 3,0 1,-1 2,0 1,-1 2,0 1,-1 2,0 1,-1 2,0 1,-1 2,0 1,-1 2,0 1,-1 4,0 1,1 0,-2 1,-1 2,0 1,-1 2,0 1,-1 2,0 1,-1 2,0 1,-1 2,0 1,-1 2,0 1,-1 2,0 1,-1 3,0 1,1 0,-2 1,-1 2,0 1,-1 2,0 1,-1 2,0 1,-1 2,0 1,-1 2,0 1,-1 2,0 1,-1 2,0 1,-1 3,0 1,1 0,-2 1,-1 1,0 -1,-1 0,0 -1,1 -2,0 -1,1 -2,0 -1,1 -2,0 -1,1 -3,0 -1,-1 0,2 -1,1 -2,0 -1,1 -2,0 -1,1 -2,0 -1,1 -2,0 -1,1 -2,0 -1,1 -2,0 -1,1 -2,0 -1,1 -2,0 -1,1 -3,0 -1,-1 0,-1 -1,-1 0,-2 -1,-1 0,2 -1,1 -1,0 -1,1 -1,0 -1,1 -1,0 -1,1 -1,0 -1,1 -1,0 -1,1 -2,0 -1,1 -1,0 -1,1 -1,1 -2,0 -1,1 -2,0 -1,1 -2,0 -1,1 -2,0 -1,1 -2,0 -1,1 -3,0 -1,1 -3,0 -1,-1 -1,0 -1,-1 0,-2 -1,-1 0,-1 -1,-1 0,-1 -1,-1 0,-1 -1,-1 0,-1 -1,-1 0,-2 -1,-1 0,-1 -1,-1 0,-1 -1,-1 0,-1 -1,-1 0,-1 -1,-1 0,-1 -1,-1 0,-2 -1,-1 0,-1 -1,-1 0,-1 -1,-1 0,-1 -1,-1 0,-1 -1,-1 0,-2 -1,-1 0,-1 -1,-1 0,-1 -1,-1 0,-1 -1,-1 0,-1 -1,-1 0,-2 -1,-1 0,-1 -1,-1 127,103 -128,-103 58,154 0,0 -58,-154Z"/>
<path onmouseover="hoverPath(evt)" onmouseout="recoverPath(evt)" fill="rgb(249,248,244)" d="M  136,12l 0,-2 -2,0 -1,-1 0,-3 -1,-1 0,-1 -1,-1 0,-3 -11,0 0,1 1,1 0,1 2,0 1,1 0,1 1,1 0,5 1,1 0,2 1,1 1,1 0,2 1,1 0,3 1,1 0,1 1,1 0,1 1,1 0,3 -1,1 -1,0 -1,1 0,1 -1,1 0,1 -1,1 -1,1 -1,1 1,1 0,2 -1,1 4,0 1,1 1,0 1,-1 0,-3 1,-1 3,0 1,1 0,1 1,1 0,1 1,1 0,2 1,1 0,3 -1,1 2,0 1,1 0,3 4,0 0,-3 1,-1 -2,0 -1,-1 0,-2 -1,-1 0,-2 -1,-1 0,-2 -1,-1 0,-3 1,-1 -2,0 -1,-1 0,-3 -1,-1 0,-2 1,-1 2,0 -1,-1 0,-2 -1,-1 0,-1 -1,-1 0,-1 -1,-1 0,-2 -1,-1 0,-5 6,17 1,1 1,0 1,1 2,0 -2,-1 -2,-1 -1,-1 0,1 -6,-17Z"/>
<path onmouseover="hoverPath(evt)" onmouseout="recoverPath(evt)" fill="rgb(238,240,235)" d="M  18,6l 0,1 1,1 0,1 1,1 0,2 1,1 0,1 1,1 0,1 1,1 0,1 1,1 0,2 1,1 0,1 1,1 0,1 1,1 0,2 1,1 0,1 1,1 0,2 1,1 0,1 1,0 1,1 0,1 2,0 1,-1 0,0 1,-1 2,0 1,-1 1,0 1,-1 1,0 1,-1 1,0 1,-1 1,0 1,-1 1,0 1,-1 1,0 1,-1 1,0 1,-1 1,-1 2,0 1,-1 1,0 1,-1 1,0 1,-1 1,0 1,-1 1,0 1,-1 1,0 1,-1 1,0 1,-1 1,-1 1,0 1,-1 1,0 1,-1 1,0 1,-1 1,0 1,-1 1,0 0,-2 1,-1 1,0 1,-1 2,0 1,1 0,-2 1,-1 1,0 0,-1 1,-1 1,0 1,-1 1,-1 1,0 0,-4 -10,0 0,1 -1,1 -1,1 -1,0 -1,1 -1,0 -1,1 -1,0 -1,1 -1,0 -1,1 -1,0 -1,1 -1,0 -1,1 -1,0 -1,1 -1,1 -1,0 -1,1 -1,0 -1,1 -1,1 -1,0 -1,1 -1,0 -1,1 -1,1 -1,0 -1,1 -1,1 -1,0 -1,1 -1,0 -1,1 -1,0 -1,1 -5,0 -1,-1 0,-4 1,-1 2,-2 1,-1 1,0 1,-1 1,0 1,-1 1,0 1,-1 1,0 1,-1 2,0 1,-1 1,0 1,-1 1,0 1,-1 1,0 1,-1 2,0 1,-1 1,0 1,-1 1,0 1,-1 1,0 1,-1 2,0 0,-1 -56,0 0,1 1,1 0,1 1,1Z"/>
<path onmouseover="hoverPath(evt)" onmouseout="recoverPath(evt)" fill="rgb(239,238,225)" d="M  22,255l 18,0 0,-3 1,-1 0,-2 1,-1 0,-1 1,-1 0,-2 1,-1 -1,0 -1,1 -2,0 -1,1 -1,0 -1,1 -1,0 -1,1 -2,0 -1,1 -2,0 -1,1 -1,0 -1,1 -2,0 -1,1 -1,0 -1,1 -2,0 -1,1 -1,0 -1,1 -2,0 0,1Z"/>
<path onmouseover="hoverPath(evt)" onmouseout="recoverPath(evt)" fill="rgb(238,236,229)" d="M  33,118l 0,2 -1,1 1,1 0,1 1,1 0,1 1,1 0,2 1,1 0,1 1,1 0,1 1,1 0,1 1,1 0,1 1,1 0,1 1,1 0,1 1,1 0,2 1,1 0,1 1,1 0,1 1,1 0,1 1,1 0,1 1,1 0,2 1,1 0,1 1,1 0,1 1,1 0,1 1,1 0,2 1,1 0,1 1,1 0,1 1,1 0,1 1,1 0,1 1,1 0,2 1,1 0,1 1,1 0,1 1,1 0,1 1,1 0,2 1,1 0,1 1,1 0,2 1,1 0,2 1,1 0,1 1,1 0,1 1,1 0,1 1,1 0,2 1,1 0,1 1,1 0,1 1,1 0,1 1,1 0,1 1,1 0,2 1,1 0,1 1,1 0,1 1,1 0,1 1,1 0,1 1,1 0,1 1,1 0,2 1,1 1,1 0,2 1,1 0,1 1,1 0,1 1,1 1,1 0,2 1,1 0,1 1,1 0,1 1,1 0,1 1,1 0,1 1,1 0,1 1,1 0,1 1,1 0,1 1,1 0,1 1,1 0,2 6,0 0,-4 -2,0 -1,-1 0,-1 -1,-1 0,-3 -1,-1 0,-4 -2,0 -1,-1 0,-1 -1,-1 0,-3 -1,0 -1,-1 0,-3 -1,-1 -1,-1 0,-3 -1,-1 0,-4 -2,0 -1,-1 0,-3 -1,-1 0,-4 -2,0 -1,-1 0,-1 -1,-1 0,-3 -1,-1 -1,-1 0,-1 -1,-1 0,-1 -1,-1 0,-3 -1,-1 -1,-1 0,-2 1,-1 -1,-1 0,-1 -1,-1 0,-1 -1,-1 0,-1 -2,0 -1,-1 0,-1 -1,-1 0,-3 -1,-1 0,-1 -1,-1 0,-4 -1,-1 0,-1 -2,0 -1,-1 0,-1 -1,-1 0,-2 1,-1 -2,0 -1,-1 0,-1 -1,-1 0,-1 -1,-1 0,-4 -1,-1 0,-1 -1,-1 0,-5 -2,0 -1,-1 0,-4 -1,-1 0,-1 -1,0 -1,-1 0,-1 -1,-1 0,-1 -1,-1 -1,-1 0,-1 -1,-1 0,-1 -1,-1 0,-1 -1,-1 0,-3 -1,-1 0,-4 -2,0 -1,-1 0,-1 -1,-1 -1,0 -1,1Z"/>
<path onmouseover="hoverPath(evt)" onmouseout="recoverPath(evt)" fill="rgb(172,199,238)" d="M  66,6l -1,0 -1,1 -2,0 -1,1 -1,0 -1,1 -1,0 -1,1 -1,0 -1,1 -2,0 -1,1 -1,0 -1,1 -1,0 -1,1 -1,0 -1,1 -1,0 -1,1 -1,1 -1,1 0,2 3,0 1,-1 1,0 1,-1 1,0 1,-1 1,0 1,-1 1,-1 1,0 1,-1 1,-1 1,0 1,-1 1,0 1,-1 1,-1 1,0 1,-1 1,0 1,-1 1,-1 0,-1 1,-1 1,1 1,0 1,-1 1,0 1,-1 1,0 1,-1 1,0 1,-1 1,0 1,-1 1,0 1,-1 -6,0 0,2 -1,1 -2,0 -1,1 -1,0 -1,1 -1,0 -1,1Z"/>
<path onmouseover="hoverPath(evt)" onmouseout="recoverPath(evt)" fill="rgb(243,242,234)" d="M  211,190l 0,2 1,1 0,1 1,1 0,1 1,1 0,2 1,1 0,1 1,1 0,1 1,1 0,1 1,1 0,1 1,1 0,2 1,1 0,1 1,1 0,1 1,1 0,1 1,1 0,2 1,1 0,1 1,1 0,1 1,1 0,1 1,1 0,1 1,1 0,1 1,1 0,2 1,1 0,2 1,1 0,1 1,1 0,2 1,1 1,0 1,1 0,2 -1,1 -1,0 1,1 1,0 1,1 0,2 1,1 0,2 1,1 0,2 17,0 0,-80 -1,0 -1,1 -3,0 -1,1 -3,0 -1,1 -2,0 -1,1 -2,0 -1,1 -3,0 -1,1 -2,0 -1,1 -2,0 -1,1 -3,0 -1,1 -2,0 -1,1 -2,0 -1,1 -2,0 -1,1 -1,0 -1,1 -2,0 -1,1Z"/>
<path onmouseover="hoverPath(evt)" onmouseout="recoverPath(evt)" fill="rgb(232,229,224)" d="M  29,112l 0,0 1,1 0,6 1,0 0,-2 1,-1 1,-1 1,0 0,-1 -1,-1 0,-2 -1,-1 -1,-1 0,-2 -1,-1 0,-2 -1,-1 -1,-1 0,-2 -1,-1 0,-2 -1,-1 -1,-1 0,-3 -1,0 -1,-1 0,-2 -1,-1 0,-2 -1,-1 0,-2 1,-1 -1,-1 -2,0 -1,-1 0,-1 -1,-1 -1,1 -1,0 0,1 -1,1 -2,0 -1,-1 0,-1 -1,0 0,2 1,1 0,1 1,1 0,1 1,1 0,2 1,1 0,1 1,1 0,1 1,1 0,1 1,1 0,1 1,1 2,0 1,1 1,1 0,1 1,1 1,1 0,2 1,1 0,3 2,0 1,1 0,2 1,1Z"/>
<path onmouseover="hoverPath(evt)" onmouseout="recoverPath(evt)" fill="rgb(243,242,233)" d="M  35,39l -3,0 0,1 1,1 0,1 1,1 0,2 1,1 0,1 2,0 1,1 0,2 -1,1 1,1 0,0 1,1 1,0 1,-1 4,0 1,-1 3,0 1,-1 3,0 1,-1 4,0 1,-1 2,0 1,-1 3,0 0,-2 1,-1 1,0 1,-1 1,0 1,-1 1,0 1,-1 1,0 1,-1 2,0 1,-1 1,-1 1,0 0,-3 1,-1 0,-1 -1,-1 0,-2 -1,-1 0,-6 1,-1 0,-1 1,-1 1,-1 0,-2 1,-1 1,-1 1,0 1,-1 2,0 -1,-1 -2,0 -1,-1 -1,1 -1,0 0,2 -1,1 -1,0 -1,1 -1,0 -1,1 -1,0 -1,1 -1,0 -1,1 -1,0 -2,2 -1,0 -1,1 -1,0 -1,1 -1,0 -1,1 -1,0 -1,1 -1,0 -1,1 -1,0 -1,1 -2,0 -1,1 -1,1 -1,0 -1,1 -1,0 -1,1 -1,0 -1,1 -1,0 -1,1 -1,0 -1,1 -1,0 -1,1 -1,0 -1,1 -2,0 -1,1 -1,1Z"/>
<path onmouseover="hoverPath(evt)" onmouseout="recoverPath(evt)" fill="rgb(241,240,231)" d="M  51,87l 0,0 1,1 1,1 0,1 1,1 0,2 1,-1 1,-1 3,0 1,1 1,1 0,1 1,1 0,2 1,1 0,1 1,1 0,1 1,1 0,1 1,1 0,1 1,1 0,2 1,1 0,1 1,1 0,1 1,1 0,1 1,1 0,1 1,1 0,2 1,1 0,1 1,1 0,1 1,1 0,1 1,1 0,1 1,1 0,1 1,1 0,2 1,1 0,1 1,1 0,1 1,1 0,1 1,1 0,1 1,1 0,2 1,0 1,1 1,0 1,-1 3,0 1,-1 2,0 1,-1 2,0 1,-1 2,0 1,-1 2,0 1,-1 2,0 1,-1 1,-1 1,0 1,-1 2,0 1,-1 1,0 1,-1 1,0 1,-1 1,0 1,-1 1,0 1,-1 1,0 0,-2 -1,-1 0,-2 -1,-1 0,-2 -1,-1 0,-1 -1,-1 0,-2 -1,-1 0,-1 -1,-1 0,-2 -1,-1 0,-2 -1,-1 0,-1 -1,-1 -1,-1 0,-1 -1,-1 0,-1 -1,-1 0,-1 -1,-1 -1,-1 -1,-1 -1,-1 0,-1 -1,-1 -1,-1 -1,-1 -1,-1 0,-3 -1,-1 -1,-1 -1,-1 -1,-1 -1,-1 -1,-1 -1,-1 -1,1 -2,0 -1,-1 -3,0 -1,-1 0,-2 1,-1 2,0 1,-1 1,-1 1,-1 0,-1 1,-1 1,-1 0,-1 1,-1 0,-1 1,-1 0,-2 -11,0 -1,-1 0,-3 -13,0 -1,1 -6,0 -1,-1 -4,0 -1,1 -3,0 0,2 -1,1 -2,0 -1,1 -3,0 -1,-1 -1,0 0,1 -1,1 -2,0 0,1 -1,1 -2,0 -1,1 -2,0 -1,1 0,3 -1,1 1,1 1,0 1,1 0,1 1,0 1,1 0,2 1,0 1,1 0,2 1,1 0,2 1,1 0,2 1,1 0,1 1,1 1,0 0,-4 1,-1 1,-1Z"/>
<path onmouseover="hoverPath(evt)" onmouseout="recoverPath(evt)" fill="rgb(240,239,227)" d="M  53,239l 0,0 -1,1 -1,0 -1,1 0,2 -1,1 0,2 -1,1 0,1 -1,1 0,2 -1,1 0,3 41,0 0,-1 -1,-1 0,-1 -1,-1 0,-1 -1,-1 0,-1 -1,-1 0,-1 -1,-1 0,-2 -1,-1 0,-1 -1,-1 0,-1 -1,-1 0,-1 -1,-1 0,-1 -1,-1 0,-1 -1,-1 -3,0 -1,1 -2,0 -1,1 -2,0 -1,1 -2,0 -1,1 -1,0 -1,1 -2,0 -1,1 -2,0 -1,1Z"/>
<path onmouseover="hoverPath(evt)" onmouseout="recoverPath(evt)" fill="rgb(247,236,139)" d="M  86,52l -2,0 -1,-1 -3,0 -1,1 -13,0 -1,1 -4,0 -1,1 -2,0 -1,1 -4,0 -1,1 -3,0 -1,1 -3,0 -1,1 -2,0 -1,1 -2,0 0,2 -1,1 -2,0 -1,-1 -1,0 -1,1 -1,0 0,1 1,1 0,1 1,1 0,2 -1,1 2,0 1,-1 2,0 1,-1 2,0 0,-1 1,-1 2,0 0,-1 1,-1 3,0 1,1 1,0 1,-1 2,0 0,-2 1,-1 3,0 1,-1 6,0 1,1 4,0 1,-1 15,0 1,1 0,1 5,0 1,-1 5,0 1,1 17,0 1,1 16,0 1,1 0,2 3,0 1,1 0,-2 1,-1 5,0 1,1 1,1 0,1 1,1 0,2 1,1 0,1 1,1 0,1 1,1 0,2 1,1 0,1 1,1 0,2 1,1 0,1 1,1 0,1 1,1 0,2 1,0 1,1 0,3 1,1 0,1 1,1 0,1 1,1 0,1 1,1 0,1 1,1 0,2 1,1 0,1 1,1 0,1 1,1 0,1 1,1 0,2 1,1 0,1 1,1 0,1 1,1 0,2 1,0 1,1 1,1 0,2 -1,1 -1,0 2,1 0,0 1,1 0,1 1,1 0,2 1,1 0,1 1,1 0,1 1,1 0,2 1,1 0,1 1,1 0,1 1,1 0,2 1,1 0,1 1,1 0,1 1,1 0,2 1,1 0,1 1,1 0,1 1,1 0,1 1,1 0,2 1,1 0,1 1,1 0,1 1,1 0,2 1,1 0,1 1,1 0,1 1,1 0,2 1,1 0,1 1,1 0,1 1,1 0,2 1,1 0,1 1,1 0,1 1,1 0,2 1,0 1,1 0,3 -1,1 1,0 1,1 0,1 1,1 0,1 1,1 0,1 1,1 0,1 1,1 0,1 1,1 0,2 1,1 0,1 1,1 0,1 1,1 0,1 1,1 0,4 1,1 1,0 1,1 0,2 1,1 0,1 1,1 0,3 -1,1 0,2 1,1 0,0 1,1 0,3 1,1 0,4 1,-3 2,0 1,1 0,2 1,1 0,1 1,1 0,3 1,0 1,1 0,3 -1,1 1,0 1,1 0,0 1,1 0,2 9,0 0,-1 -1,-1 0,-2 -1,-1 0,-2 -1,0 -1,-1 -1,-1 0,-2 1,-1 1,0 -2,-1 0,0 -1,-1 0,-2 -1,-1 0,-1 -1,-1 0,-2 -1,-1 0,-2 -1,-1 0,-1 -1,-1 0,-1 -1,-1 0,-1 -1,-1 0,-1 -1,-1 0,-1 -1,-1 0,-2 -1,-1 0,-1 -1,-1 0,-1 -1,-1 0,-1 -1,-1 0,-2 -1,-1 0,-1 -1,-1 0,-1 -1,-1 0,-1 -1,-1 0,-1 -1,-1 0,-2 -1,-1 0,-1 -1,-1 0,-1 -1,-1 0,-2 -1,0 -1,-1 0,-1 -1,-1 0,-3 1,-1 -1,0 -1,-1 0,-1 -1,-1 0,-1 -1,-1 0,-2 -1,-1 0,-1 -1,-1 0,-1 -1,-1 0,-1 -1,-1 0,-2 -1,-1 0,-1 -1,-1 0,-1 -1,-1 0,-1 -1,-1 0,-2 -1,-1 0,-1 -1,-1 0,-1 -1,-1 0,-1 -1,-1 0,-2 -1,-1 0,-2 -1,-1 0,-2 1,-1 -2,0 -1,-1 0,-1 -1,-1 0,-1 -1,-1 0,-1 -1,-1 0,-1 -1,-1 0,-2 -1,-1 0,-1 -1,-1 0,-1 -1,-1 0,-1 -1,-1 0,-4 1,-1 0,-2 1,-1 -2,1 -2,0 -1,-1 0,-1 -1,-1 0,-1 -1,-1 0,-1 -1,-1 0,-1 -1,-1 0,-1 -1,-1 0,-2 -1,-1 0,-1 -1,-1 0,-1 -1,-1 0,-1 -1,-1 0,-1 -1,-1 0,-2 -1,-1 0,-1 -1,-1 0,-1 -1,-1 0,-2 -1,-1 0,-1 -1,-1 0,-1 -1,-1 0,-1 -1,-1 0,-1 -1,-1 0,-1 -1,-1 0,-2 -1,-1 0,-1 -1,-1 0,-1 -1,-1 0,-2 -1,-1 0,-2 1,-1 4,0 1,1 22,0 1,1 14,0 1,1 9,0 1,-1 4,0 1,1 1,-1 3,0 1,-1 4,0 1,-1 4,0 1,-1 4,0 1,-1 4,0 1,-1 3,0 1,-1 3,0 1,-1 3,0 1,-1 3,0 1,-1 2,0 0,-7 -3,0 -1,1 -3,0 -1,1 -4,0 -1,1 -3,0 -1,1 -3,0 -1,1 -4,0 -1,1 -4,0 -1,1 -4,0 -1,1 -2,0 -1,-1 0,-2 1,-1 0,-2 -4,0 -1,1 0,0 -1,1 -2,0 0,4 -1,1 0,1 -1,1 -19,0 -1,-1 -6,0 -1,-1 0,-1 -9,0 0,1 -1,1 -2,0 -1,-1 -12,0 -1,-1 -2,0 -1,-1 -10,0 -1,-1 -13,0 -1,-1 -15,0 -1,-1 0,-1 -1,1 -14,0 -1,-1Z"/>
<path onmouseover="hoverPath(evt)" onmouseout="recoverPath(evt)" fill="rgb(241,239,229)" d="M  237,156l -2,-2 0,-1 -4,0 -1,-1 -1,-1 -2,0 -1,-1 -1,-1 -1,-1 0,-1 -1,-1 0,-4 -2,0 -1,1 -1,0 -1,1 -1,1 -2,0 -1,1 1,1 0,4 1,1 1,-1 2,0 1,1 1,1 0,2 1,1 1,0 1,1 1,1 1,0 1,1 1,0 1,1 1,1 1,0 1,1 1,1 1,1 1,1 0,1 1,1 1,1 1,1 4,0 1,1 1,1 1,1 1,0 1,-1 3,0 1,-1 4,0 0,-23 -2,0 -1,1 -1,0 0,1 -1,1 -1,1 -1,0 -1,1 -3,0 -1,1 -2,0 0,2 -1,1Z"/>
</svg>