<svg width="256" height="256" xmlns="http://www.w3.org/2000/svg"><script> 
var tempColor;
function hoverPath(evt){
obj = evt.target;
tempColor = obj.getAttribute("fill");
obj.setAttribute("fill","red");
//alert(tempColor);
//obj.setAttribute("stroke","red");}
function recoverPath(evt){
obj = evt.target;
obj.setAttribute("fill", tempColor);
//obj.setAttribute("stroke", tempColor);
}</script><path onmouseover="hoverPath(evt)" onmouseout="recoverPath(evt)" fill="rgb(244,242,234)" d="M  0,72l 0,85 5,0 1,-1 4,0 1,-1 5,0 1,-1 3,0 1,1 0,-1 1,-1 6,0 1,-1 3,0 1,-1 0,-1 -1,-1 0,-3 1,-1 8,0 1,-1 4,0 0,-2 -1,-1 0,-4 1,-1 0,-2 -2,0 -1,-1 0,-3 -1,-1 0,-3 -1,-1 0,-2 -1,-1 0,-7 -1,-1 0,-10 -1,-1 0,-8 -1,-1 0,-11 -1,-1 0,-5 -9,0 -1,-1 0,-2 1,-1 7,0 1,-1 9,0 1,1 6,0 0,-2 1,-1 7,0 1,-1 7,0 1,-1 8,0 1,-1 4,0 1,-1 0,-3 -3,0 -1,1 -9,0 -1,1 -10,0 -1,1 -9,0 -1,1 -9,0 -1,1 -9,0 -1,1 -8,0 -1,1 -9,0 -1,1 -7,0 -1,1Z"/>
<path onmouseover="hoverPath(evt)" onmouseout="recoverPath(evt)" fill="rgb(243,241,232)" d="M  165,64l 0,1 1,1 0,1 1,1 0,2 1,1 0,2 1,1 0,1 1,1 0,2 1,1 0,1 1,1 0,2 1,1 0,1 1,1 0,2 1,1 0,1 1,1 0,2 1,1 0,1 1,1 0,2 1,1 0,1 1,1 0,2 1,1 0,2 1,1 0,1 1,1 0,2 1,1 0,2 1,1 0,2 1,1 0,1 1,1 0,2 1,1 0,2 1,1 0,2 1,1 0,1 1,0 1,-1 8,0 1,-1 6,0 1,-1 1,0 0,-3 1,-1 2,0 1,1 0,1 1,1 0,1 2,0 1,-1 1,0 0,-6 -1,-1 0,-7 -1,-1 0,-5 -8,0 0,5 1,1 0,3 1,1 0,2 -1,1 -2,0 -1,-1 0,-1 -1,-1 0,-1 -1,-1 0,-4 -1,-1 0,-6 1,-1 4,0 1,-1 6,0 0,-5 -1,-1 0,-8 -1,-1 0,-7 -1,-1 0,-7 -1,-1 0,-8 -1,-1 0,-5 -9,0 -1,-1 0,-2 1,-1 6,0 1,-1 1,0 0,-3 -7,0 -1,1 -9,0 -1,1 -9,0 -1,1 -7,0 -1,1 -4,0 -1,1 -2,0 -1,1 -1,0 -1,1 0,2 -1,1 0,1 -1,1 -4,0 -1,-1 -1,-1 0,-1 -1,-1 -2,0 -1,-1 -11,0 -1,1 -7,0 -1,1 -6,0 -1,1 -6,0 -1,1 -5,0 -1,1 -7,0 -1,1 -8,0 -1,1 -7,0 0,3 10,0 1,-1 9,0 1,-1 8,0 1,-1 9,0 1,-1 8,0 1,-1 15,0 1,1 11,0 1,1 1,1Z"/>
<path onmouseover="hoverPath(evt)" onmouseout="recoverPath(evt)" fill="rgb(243,242,234)" d="M  216,55l -1,0 0,4 1,1 0,7 1,1 0,8 1,1 0,7 1,1 0,7 1,1 0,7 1,1 0,7 1,1 0,7 1,1 0,7 1,1 0,1 3,0 1,-1 7,0 1,-1 8,0 1,-1 2,0 0,-7 1,-1 2,0 1,1 0,1 4,0 0,-74 -8,0 -1,1 -8,0 -1,1 -8,0 -1,1 -7,0 -1,1 -8,0 -1,1 0,2 11,0 1,1 0,2 -1,1 -5,0 -1,1Z"/>
<path onmouseover="hoverPath(evt)" onmouseout="recoverPath(evt)" fill="rgb(244,243,235)" d="M  0,1l 0,62 4,0 1,-1 11,0 1,-1 11,0 1,-1 11,0 1,-1 9,0 1,-1 9,0 1,-1 9,0 1,-1 10,0 0,-2 -1,-1 0,-5 -1,-1 0,-6 -1,-1 0,-5 -1,-1 0,-5 -1,-1 0,-5 -1,-1 0,-3 -1,-1 -3,0 -1,-1 0,-2 1,-1 2,0 1,-1 0,-2 -1,-1 0,-4 -1,-1 0,-5 -71,0 -1,1Z"/>
<path onmouseover="hoverPath(evt)" onmouseout="recoverPath(evt)" fill="rgb(247,236,141)" d="M  0,161l 0,6 5,0 1,-1 4,0 1,-1 5,0 1,-1 6,0 1,-1 4,0 1,-1 6,0 1,1 0,1 1,1 0,-1 1,-1 0,-2 1,-1 6,0 1,-1 4,0 1,-1 5,0 1,-1 4,0 1,-1 4,0 1,-1 6,0 1,-1 3,0 1,-1 5,0 1,-1 6,0 1,-1 4,0 1,-1 5,0 1,-1 6,0 1,-1 6,0 1,-1 6,0 0,-1 1,-1 4,0 1,1 5,0 1,-1 8,0 1,-1 6,0 1,1 0,-2 1,-1 3,0 1,1 9,0 1,-1 6,0 1,-1 8,0 1,-1 6,0 0,-1 1,-1 5,0 1,1 6,0 1,-1 10,0 1,-1 8,0 1,-1 6,0 1,-1 8,0 1,-1 8,0 1,-1 9,0 0,-14 -5,0 -1,-1 0,6 -1,1 -2,0 -1,1 -8,0 -1,1 -7,0 -1,1 -4,0 -1,1 -4,0 -1,-1 -1,1 -4,0 -1,-1 0,-1 -1,-1 0,2 -1,1 -1,0 -1,1 -6,0 -1,1 -8,0 -1,1 -2,0 -1,1 -2,0 -1,1 -4,0 -1,-1 -12,0 -1,1 -8,0 0,1 -1,1 -6,0 -1,-1 -1,0 -1,-1 0,1 -1,1 -7,0 -1,1 -11,0 -1,1 -2,0 -1,-1 -1,1 -4,0 -1,1 -5,0 -1,1 -6,0 -1,1 -5,0 -1,1 -5,0 -1,1 -4,0 0,1 -1,1 -4,0 -1,-1 -1,1 -6,0 -1,1 -3,0 -1,1 -6,0 -1,1 -4,0 -1,1 -6,0 0,2 -1,1 -4,0 -1,-1 -3,0 -1,1 -4,0 -1,1 -6,0 -1,1 -3,0 -1,1 -6,0 0,1 -1,1 -2,0 -1,-1 -1,0 -1,1 -5,0 -1,1 -4,0 -1,1 -6,0Z"/>
<path onmouseover="hoverPath(evt)" onmouseout="recoverPath(evt)" fill="rgb(244,243,236)" d="M  78,0l -1,0 0,3 1,1 0,3 1,1 0,5 1,1 0,5 1,1 0,5 1,1 0,6 1,1 0,5 1,1 0,5 1,1 0,6 1,1 0,3 2,0 1,-1 7,0 1,-1 8,0 1,-1 8,0 1,-1 7,0 1,-1 8,0 1,-1 7,0 1,-1 5,0 1,-1 5,0 1,-1 6,0 1,-1 8,0 1,-1 7,0 1,-1 8,0 1,-1 9,0 1,-1 12,0 1,-1 8,0 1,-1 7,0 1,-1 7,0 1,-1 7,0 1,-1 8,0 1,-1 5,0 0,-35Z"/>
<path onmouseover="hoverPath(evt)" onmouseout="recoverPath(evt)" fill="rgb(243,241,232)" d="M  76,241l 0,9 -1,1 0,4 68,0 0,-1 -1,-1 0,-3 -1,-1 0,-4 -1,-1 0,-4 -1,-1 0,-3 -1,-1 0,-4 -1,-1 0,-4 -1,-1 0,-4 -1,-1 0,-4 -1,-1 0,-4 -1,-1 0,-3 -1,-1 0,-4 -1,-1 0,-5 -1,-1 0,-5 -1,-1 0,-5 -1,-1 0,-5 -1,-1 0,-3 -1,-1 0,-6 -1,2 -1,0 0,3 -1,1 -7,0 -1,1 -8,0 -1,-1 -2,0 -1,1 -4,0 0,2 -1,1 -4,0 0,2 -1,1 -1,1 -3,0 -1,-1 0,-1 -2,0 -1,-1 -1,0 -1,-1 0,-2 -2,0 -1,-1 -3,0 -1,-1 -6,0 0,2 -1,1 -9,0 -1,1 -6,0 -1,1 -2,0 -1,1 -2,0 0,1 -1,1 0,1 -1,1 -7,0 -1,1 -2,0 -1,-1 0,5 1,1 0,4 -1,1 0,2 1,1 0,2 1,1 0,3 1,1 0,1 1,0 1,-1 1,0 0,-2 1,-1 2,0 1,-1 2,0 1,-1 3,0 1,-1 3,0 1,1 2,0 1,-1 1,0 1,-1 2,0 0,-2 1,-1 2,0 1,-1 2,0 1,-1 4,0 1,1 1,0 1,1 1,1 1,1 0,1 1,1 0,1 1,1 0,1 1,1 0,1 1,1 0,1 1,1 0,1 1,1 0,1 1,1 2,0 1,1 0,1 1,1 0,1 1,1 0,1 1,1 0,1 1,1 0,1 1,1 0,1 1,1 0,1 1,1 0,1 1,1 0,2 -1,1 0,2 -1,1 -1,0 -1,1 -3,0 -1,1 -4,0 -1,1 -2,0 -1,1 -5,0 -1,1 -2,0 -1,1 4,0 1,1Z"/>
<path onmouseover="hoverPath(evt)" onmouseout="recoverPath(evt)" fill="rgb(171,198,238)" d="M  89,57l -2,0 0,3 6,0 1,-1 8,0 1,-1 7,0 1,-1 5,0 1,-1 6,0 1,-1 6,0 1,-1 7,0 1,-1 13,0 1,1 2,0 1,1 1,1 0,1 1,1 2,0 0,-1 1,-1 0,-2 1,-1 1,-1 1,0 1,-1 2,0 1,-1 4,0 1,-1 7,0 1,-1 9,0 1,-1 9,0 1,-1 9,0 1,-1 8,0 1,-1 7,0 1,-1 8,0 1,-1 8,0 1,-1 9,0 0,-4 -4,0 -1,1 -8,0 -1,1 -7,0 -1,1 -7,0 -1,1 -7,0 -1,1 -8,0 -1,1 -12,0 -1,1 -9,0 -1,1 -8,0 -1,1 -7,0 -1,1 -8,0 -1,1 -6,0 -1,1 -5,0 -1,1 -5,0 -1,1 -7,0 -1,1 -8,0 -1,1 -7,0 -1,1 -8,0 -1,1 -8,0 -1,1 -7,0 -1,1Z"/>
<path onmouseover="hoverPath(evt)" onmouseout="recoverPath(evt)" fill="rgb(243,242,234)" d="M  88,73l 0,1 1,1 0,10 1,1 0,32 1,1 0,22 3,0 1,-1 5,0 1,-1 5,0 1,-1 6,0 1,-1 5,0 1,-1 4,0 1,-1 2,0 1,1 1,-1 11,0 1,-1 7,0 0,-2 1,-1 0,-2 -1,-1 0,-2 -1,-1 0,-2 -1,-1 0,-6 -1,-1 0,-10 -1,-1 0,-12 -1,-1 0,-11 -1,-1 0,-7 -1,-1 0,-5 -1,0 -1,-1 -1,1 -9,0 -1,1 -8,0 -1,1 -9,0 -1,1 -8,0 -1,1 -9,0 -1,1 -2,0Z"/>
<path onmouseover="hoverPath(evt)" onmouseout="recoverPath(evt)" fill="rgb(172,198,237)" d="M  161,65l 0,1 1,1 0,2 1,1 0,1 1,1 0,2 1,1 0,2 1,1 0,1 1,1 0,2 1,1 0,1 1,1 0,2 1,1 0,2 1,1 0,1 1,1 0,2 1,1 0,2 1,1 0,1 1,1 0,2 1,1 0,2 1,1 0,1 1,1 0,2 1,1 0,2 1,1 0,2 1,1 0,2 1,1 0,1 1,1 0,2 1,1 0,2 1,1 0,2 -1,1 1,0 1,-1 2,0 0,-1 -1,-1 0,-2 -1,-1 0,-2 -1,-1 0,-2 -1,-1 0,-1 -1,-1 0,-2 -1,-1 0,-2 -1,-1 0,-2 -1,-1 0,-1 -1,-1 0,-2 -1,-1 0,-2 -1,-1 0,-1 -1,-1 0,-2 -1,-1 0,-1 -1,-1 0,-2 -1,-1 0,-1 -1,-1 0,-2 -1,-1 0,-1 -1,-1 0,-2 -1,-1 0,-1 -1,-1 0,-2 -1,-1 0,-1 -1,-1 0,-2 -1,-1 0,-2 -1,-1 0,-1 -1,-1 0,-2 -1,-1 -1,0Z"/>
<path onmouseover="hoverPath(evt)" onmouseout="recoverPath(evt)" fill="rgb(171,198,238)" d="M  0,66l 0,3 7,0 1,-1 9,0 1,-1 8,0 1,-1 9,0 1,-1 9,0 1,-1 9,0 1,-1 10,0 1,-1 9,0 1,-1 3,0 0,-3 -9,0 -1,1 -9,0 -1,1 -9,0 -1,1 -9,0 -1,1 -11,0 -1,1 -11,0 -1,1 -11,0 -1,1 -4,0 -1,1Z"/>
<path onmouseover="hoverPath(evt)" onmouseout="recoverPath(evt)" fill="rgb(242,240,231)" d="M  45,162l -5,0 0,2 -1,1 0,2 4,0 1,1 0,3 1,1 0,2 7,0 1,1 5,0 1,-1 9,0 0,-2 1,-1 8,0 1,1 3,0 1,1 2,0 1,1 0,2 1,0 1,1 2,0 1,1 0,1 1,0 1,-1 0,-2 1,-1 4,0 0,-2 1,-1 4,0 1,-1 4,0 1,1 6,0 1,-1 7,0 0,-3 1,-1 1,0 0,-1 1,-1 0,-3 -1,-1 0,-6 -1,-1 0,-5 -6,0 -1,1 -6,0 -1,1 -6,0 -1,1 -5,0 -1,1 -4,0 -1,1 -6,0 -1,1 -5,0 -1,1 -3,0 -1,1 -6,0 -1,1 -4,0 -1,1 -4,0 -1,1 -5,0 -1,1 -4,0 -1,1Z"/>
<path onmouseover="hoverPath(evt)" onmouseout="recoverPath(evt)" fill="rgb(243,242,234)" d="M  146,66l 0,3 1,1 0,7 1,1 0,10 1,1 0,12 1,1 0,10 1,1 0,6 1,1 0,3 1,1 0,2 1,1 0,2 1,1 1,0 1,1 1,0 1,1 8,0 1,-1 13,0 1,-1 1,0 -1,-1 0,-2 -1,-1 0,-2 -1,-1 0,-1 -1,-1 0,-2 -1,-1 0,-2 -1,-1 0,-2 -1,-1 0,-2 -1,-1 0,-1 -1,-1 0,-2 -1,-1 0,-2 -1,-1 0,-1 -1,-1 0,-2 -1,-1 0,-2 -1,-1 0,-1 -1,-1 0,-2 -1,-1 0,-2 -1,-1 0,-1 -1,-1 0,-2 -1,-1 0,-1 -1,-1 0,-2 -1,-1 0,-2 -1,-1 0,-1 -1,-1 0,-2 -1,-1 0,-4 -7,0 -1,1 -4,0 -1,1Z"/>
<path onmouseover="hoverPath(evt)" onmouseout="recoverPath(evt)" fill="rgb(242,241,231)" d="M  58,83l 0,6 -1,1 0,5 1,1 0,6 1,1 0,6 1,1 0,5 2,0 1,1 0,4 1,0 1,-1 3,0 1,1 1,0 1,1 5,0 1,-1 5,0 1,-1 2,0 0,-21 -1,-1 0,-10 -1,-1 0,-4 -1,-1 0,-2 -9,0 -1,1 -9,0 -1,1 -3,0 -1,1Z"/>
<path onmouseover="hoverPath(evt)" onmouseout="recoverPath(evt)" fill="rgb(253,252,252)" d="M  61,123l 1,1 1,1 1,1 0,1 1,1 0,1 1,1 0,5 1,1 0,2 1,1 0,2 1,1 0,2 -1,1 4,0 1,-1 -1,0 -1,-1 0,0 -1,-1 0,-7 -1,-1 0,-4 -1,-1 0,-2 1,-1 0,-1 1,-1 2,0 1,-1 -3,0 -1,-1 -1,0 -1,-1 -1,0 -1,1 -3,0 -1,1 5,22 -2,0 -1,1 -6,0 -1,1 4,0 4,-1 1,0 1,-1 -5,-22Z"/>
<path onmouseover="hoverPath(evt)" onmouseout="recoverPath(evt)" fill="rgb(254,254,254)" d="M  125,147l -1,0 1,1 0,5 1,1 0,6 1,1 0,4 1,1 0,6 1,1 0,3 1,1 0,5 1,1 0,5 1,1 0,5 1,1 0,5 1,1 0,4 1,1 0,3 1,1 0,4 1,1 0,4 1,1 0,4 1,1 0,4 1,1 0,4 1,1 0,3 1,1 0,4 1,1 0,4 1,1 0,3 1,1 0,2 1,0 0,-2 -1,-1 0,-4 -1,-1 0,-3 -1,-1 0,-4 -1,-1 0,-4 -1,-1 0,-4 -1,-1 0,-3 -1,-1 0,-4 -1,-1 0,-4 -1,-1 0,-4 -1,-1 0,-3 -1,-1 0,-4 -1,-1 0,-5 -1,-1 0,-5 -1,-1 0,-5 -1,-1 0,-5 -1,-1 0,-5 -1,-1 0,-4 -1,-1 0,-5 -1,-1 0,-5 -1,-1 0,-5 -1,-1Z"/>
<path onmouseover="hoverPath(evt)" onmouseout="recoverPath(evt)" fill="rgb(254,254,254)" d="M  82,76l -1,0 -1,1 1,0 1,-1 2,3 0,1 1,1 0,4 1,1 0,10 1,1 0,23 -1,1 -2,0 -1,1 3,0 1,1 0,1 1,1 0,15 -1,1 -1,1 -1,0 2,1 2,0 0,-23 -1,-1 0,-32 -1,-1 0,-10 -1,-1 0,-5 1,-1 2,0 1,-1 9,0 1,-1 8,0 1,-1 9,0 1,-1 8,0 1,-1 9,0 1,-1 2,0 1,1 1,0 1,1 0,5 1,1 0,7 1,1 0,11 1,1 0,12 1,1 0,10 1,1 0,6 1,1 0,2 1,1 0,2 1,1 0,3 1,1 0,1 1,0 1,1 4,0 -1,-1 -1,0 -1,-1 -1,0 -1,-1 -1,-1 0,-2 -1,-1 0,-2 -1,-1 0,-3 -1,-1 0,-6 -1,-1 0,-10 -1,-1 0,-12 -1,-1 0,-10 -1,-1 0,-7 -1,-1 0,-6 2,-2 -9,0 -1,1 -8,0 -1,1 -9,0 -1,1 -8,0 -1,1 -9,0 -1,1 -12,0 -1,-1 0,-9 -1,-1 0,-3 -1,-1 0,-6 -1,-1 0,-5 -1,-1 0,-5 -1,-1 0,-6 -1,-1 0,-5 -1,-1 0,-5 -1,-1 0,-5 -1,-1 0,-3 -1,-1 0,-4 -1,0 0,4 1,1 0,4 1,1 0,4 -1,1 -1,1 1,0 2,2 0,3 1,1 0,5 1,1 0,5 1,1 0,5 1,1 0,6 1,1 0,5 1,1 0,8 1,1 0,5 -1,1 -1,1 1,0 1,1 0,1 1,1 0,2 -1,5 -2,-3Z"/>
<path onmouseover="hoverPath(evt)" onmouseout="recoverPath(evt)" fill="rgb(244,243,235)" d="M  130,148l -2,0 0,4 1,1 0,5 1,1 0,5 1,1 0,4 1,1 0,5 1,1 0,5 1,1 0,5 1,1 0,5 1,1 0,5 1,1 0,4 1,1 0,3 1,1 0,4 1,1 0,4 1,1 0,4 1,1 0,3 1,1 0,4 1,1 0,4 1,1 0,4 1,1 0,3 1,1 0,4 1,1 0,3 70,0 0,-2 1,-1 7,0 1,-1 2,0 0,-1 -1,-1 0,-2 -1,-1 0,-1 -1,-1 0,-2 -1,-1 0,-1 -1,-1 0,-2 -1,-1 0,-1 -1,-1 0,-2 -1,-1 0,-1 -1,-1 0,-2 -1,-1 0,-1 -1,-1 0,-2 -1,-1 0,-1 -1,-1 0,-2 -1,-1 0,-1 -1,-1 0,-2 -1,-1 0,-2 -1,-1 0,-1 -1,-1 0,-2 -1,-1 0,-2 -1,-1 0,-2 -1,-1 0,-1 -1,-1 0,-2 -1,-1 0,-2 -1,-1 0,-1 -1,-1 0,-2 -1,-1 0,-2 -1,-1 0,-1 -1,-1 0,-2 -1,-1 0,-2 -1,-1 0,-1 -1,-1 0,-2 -1,-1 0,-1 -1,-1 0,-2 -1,-1 0,-1 -1,-1 0,-2 -1,-1 0,-2 -1,-1 0,-1 -1,-1 0,-2 -1,-1 0,-1 -1,-1 0,-2 -1,-1 0,-1 -1,-1 0,-1 -5,0 -1,1 -8,0 -1,1 -6,0 -1,1 -11,0 -1,-1 -1,0 0,4 -1,1 -2,0 -1,-1 0,-2 -4,0 -1,1 -8,0 -1,1Z"/>
<path onmouseover="hoverPath(evt)" onmouseout="recoverPath(evt)" fill="rgb(243,242,233)" d="M  5,196l -1,1 -1,0 0,8 1,1 0,15 1,1 0,5 -1,1 -4,0 0,27 73,0 0,-5 1,-1 0,-8 -7,0 -1,-1 0,-2 1,-1 3,0 1,-1 2,0 1,-1 5,0 1,-1 2,0 1,-1 4,0 1,-1 3,0 1,-1 1,0 0,-1 -1,-1 0,-1 -1,-1 0,-1 -1,-1 0,-1 -1,-1 0,-1 -1,-1 0,-1 -1,-1 0,-1 -1,-1 0,-1 -1,-1 0,-1 -1,-1 0,-1 -1,-1 -1,-1 0,-1 -1,-1 0,-1 -1,-1 0,-1 -1,-1 0,-1 -1,-1 0,-1 -1,-1 0,-1 -1,-1 0,-1 -1,-1 -1,-1 -1,0 -1,-1 -2,0 -1,1 -2,0 -1,1 -2,0 0,2 -1,1 -2,0 -1,1 -1,0 -1,1 -4,0 -1,-1 -1,0 -1,1 -3,0 -1,1 -2,0 -1,1 -2,0 0,2 -1,1 -1,0 -1,1 -3,0 -1,-1 0,-1 -1,-1 0,-3 -1,-1 0,-2 -1,-1 0,-3 -1,-1 0,-2 -1,-1 0,-2 -1,0 -1,1 -1,0 -1,1 -3,0 -1,-1 -1,0 -1,1 -1,0 0,2 -1,1 -4,0 -1,-1 -3,0 0,2 -1,1 -3,0 -1,1Z"/>
<path onmouseover="hoverPath(evt)" onmouseout="recoverPath(evt)" fill="rgb(242,241,232)" d="M  7,180l -1,0 -1,1 0,1 -1,1 0,3 -1,1 0,3 1,1 4,0 1,-1 5,0 1,1 2,0 0,-2 1,-1 1,0 1,-1 3,0 1,1 1,0 1,-1 1,0 1,-1 3,0 1,1 0,-5 1,-1 2,0 1,1 1,-1 7,0 0,-1 1,-1 0,-1 1,-1 2,0 1,-1 -5,0 -1,-1 0,-2 -1,-1 0,-3 -6,0 -1,-1 0,-2 -1,-1 0,-1 -4,0 -1,1 -4,0 -1,1 -6,0 -1,1 -5,0 -1,1 -4,0 -1,1 -6,0 0,7 1,0 1,-1 2,0 1,-1 2,0 1,-1 6,0 1,1 0,2 -1,1 -2,0 -1,1 -3,0 0,1 -1,1Z"/>
<path onmouseover="hoverPath(evt)" onmouseout="recoverPath(evt)" fill="rgb(171,198,237)" d="M  189,141l 0,1 1,1 0,1 1,1 0,2 1,1 0,1 1,1 0,2 1,1 0,1 1,1 0,2 1,1 0,2 1,1 0,1 1,1 0,2 1,1 0,1 1,1 0,2 1,1 0,1 1,1 0,2 1,1 0,2 1,1 0,1 1,1 0,2 1,1 0,2 1,1 0,1 1,1 0,2 1,1 0,2 1,1 0,1 1,1 0,2 1,1 0,2 1,1 0,2 1,1 0,1 1,1 0,2 1,1 0,2 1,1 0,1 1,1 0,2 1,1 0,1 1,1 0,2 1,1 0,1 1,1 0,2 1,1 0,1 1,1 0,2 1,1 0,1 1,1 0,2 1,1 0,1 1,1 0,2 1,1 0,1 1,1 0,2 1,1 0,2 1,0 1,-1 1,0 0,-1 -1,-1 0,-2 -1,-1 0,-1 -1,-1 0,-2 -1,-1 0,-1 -1,-1 0,-2 -1,-1 0,-1 -1,-1 0,-2 -1,-1 0,-1 -1,-1 0,-2 -1,-1 0,-2 -1,-1 0,-1 -1,-1 0,-2 -1,-1 0,-1 -1,-1 0,-2 -1,-1 0,-1 -1,-1 0,-2 -1,-1 0,-1 -1,-1 0,-2 -1,-1 0,-2 -1,-1 0,-1 -1,-1 0,-2 -1,-1 0,-1 -1,-1 0,-2 1,-1 1,0 1,-1 1,0 1,-1 1,0 1,-1 0,-1 -1,-1 0,0 -1,1 0,0 -1,1 -5,0 -1,-1 -1,-1 0,-1 -1,-1 0,-1 -1,-1 0,-2 -1,-1 0,-1 -1,-1 0,-2 -1,-1 0,-1 -1,-1 0,-2 -1,-1 0,-1 -1,-1 0,-2 -1,-1 0,-1 -1,-1 0,-2 -1,-1 0,-2 -1,-1 0,-2 -1,-1 0,-1 -1,-1 0,-2 -1,-1 0,-2 -1,-1 0,-3 -2,0 -1,1Z"/>
<path onmouseover="hoverPath(evt)" onmouseout="recoverPath(evt)" fill="rgb(242,240,230)" d="M  44,75l -1,-1 -7,0 -1,1 2,0 1,1 0,5 1,1 0,11 1,1 0,8 1,1 0,10 1,1 0,7 1,1 0,2 1,1 0,3 1,1 0,3 2,0 1,1 0,4 -1,1 0,2 1,1 0,4 -1,1 -4,0 -1,1 -8,0 0,1 1,1 0,2 4,0 1,-1 4,0 1,-1 5,0 1,1 2,0 0,-4 1,-1 1,0 1,-1 6,0 1,-1 4,0 -1,-1 0,-2 -1,-1 0,-2 -1,-1 0,-5 -1,-1 0,-1 -1,-1 0,-1 -1,-1 -1,-1 -1,-1 0,-7 -1,-1 0,-5 -1,-1 0,-6 -1,-1 0,-6 -1,-1 0,-7 1,-1 0,-7 1,-1 1,-1 3,0 1,-1 9,0 0,-2 1,-1 7,0 1,-1 2,0 1,-1 -1,-1 0,-1 -5,0 -1,-1 -7,0 -1,1 -7,0 -1,1 -7,0 0,2 -1,1Z"/>
<path onmouseover="hoverPath(evt)" onmouseout="recoverPath(evt)" fill="rgb(244,243,237)" d="M  194,142l 0,0 1,1 0,2 1,1 0,2 1,1 0,1 1,1 0,2 1,1 0,2 1,1 0,2 1,1 0,1 1,1 0,2 1,1 0,1 1,1 0,2 1,1 0,1 1,1 0,2 1,1 0,1 1,1 0,2 1,1 0,1 1,1 0,1 1,1 3,0 1,-1 1,-1 1,0 0,-1 1,-1 1,-1 1,0 0,-2 1,-1 0,-1 1,-1 1,-1 0,-1 1,-1 1,-1 4,-4 1,-1 1,0 1,-1 3,0 1,-1 4,0 1,-1 5,0 1,-1 4,0 1,-1 3,0 0,-25 -8,0 -1,1 -8,0 -1,1 -8,0 -1,1 -6,0 -1,1 -8,0 -1,1 -10,0 -1,1 -6,0 -1,1Z"/>
<path onmouseover="hoverPath(evt)" onmouseout="recoverPath(evt)" fill="rgb(247,247,241)" d="M  224,254l -4,0 0,1 3,0 1,-1 4,1 27,0 0,-4 -5,0 -1,1 -10,0 -1,1 -3,0 -1,-1 -1,1 -4,0 -1,2 -4,-1Z"/>
<path onmouseover="hoverPath(evt)" onmouseout="recoverPath(evt)" fill="rgb(249,248,245)" d="M  2,215l 0,-8 -1,-1 0,-10 1,-1 1,0 0,-1 1,-1 -1,0 -1,-1 0,0 -1,-1 0,-5 1,-1 0,-3 1,-1 0,-1 1,-1 1,-1 1,0 0,-1 1,-1 3,0 1,-1 -2,0 -3,1 -1,1 -2,0 -1,1 -2,0 0,48 3,0 0,-3 -1,-1Z"/>
<path onmouseover="hoverPath(evt)" onmouseout="recoverPath(evt)" fill="rgb(240,238,226)" d="M  73,126l -2,0 0,1 -1,1 1,1 0,4 1,1 0,7 1,1 4,0 1,1 5,0 0,-2 1,-1 1,0 1,-1 0,-13 -1,-1 0,-1 -7,0 -1,1 -3,0 -1,1Z"/>
<path onmouseover="hoverPath(evt)" onmouseout="recoverPath(evt)" fill="rgb(244,243,236)" d="M  214,191l -1,0 1,1 0,1 1,1 0,2 1,1 0,1 1,1 0,2 1,1 0,2 1,1 0,1 1,1 0,2 1,1 0,1 1,1 0,2 1,1 0,1 1,1 0,2 1,1 0,1 1,1 0,2 1,1 0,2 1,1 0,1 1,1 0,2 1,1 0,1 1,1 0,2 1,1 0,1 1,1 0,2 1,1 0,1 1,1 0,2 1,1 0,3 1,0 1,-1 10,0 1,-1 6,0 0,-82 -4,0 -1,1 -4,0 -1,1 -4,0 -1,1 -4,0 -1,1 -2,0 -1,1 -1,0 -1,1 -2,2 -1,0 0,2 -1,1 -1,0 0,2 -1,1 -4,0 -1,1 0,1 1,1 0,3 -1,1 -1,1 -1,0 -1,1 -1,0 -1,1Z"/>
<path onmouseover="hoverPath(evt)" onmouseout="recoverPath(evt)" fill="rgb(254,254,254)" d="M  216,103l -6,0 -1,1 -4,0 0,4 1,1 0,4 1,1 0,-1 -1,-5 0,-3 4,-1 5,0 1,-1 1,-2 1,0 0,-7 -1,-1 0,-7 -1,-1 0,-7 -1,-1 0,-8 -1,-1 0,-7 -1,-1 0,-6 1,-1 1,0 1,-1 -5,0 -1,1 -1,0 -1,1 3,0 1,1 0,5 1,1 0,8 1,1 0,7 1,1 0,7 1,1 0,8 1,1 0,6 -1,2 3,1 0,1 -1,1 0,4 1,1 0,7 1,1 0,8 2,0 0,-1 -1,-1 0,-7 -1,-1 0,-7 -1,-1 0,1 1,8 -1,-14 -3,-1Z"/>
<path onmouseover="hoverPath(evt)" onmouseout="recoverPath(evt)" fill="rgb(171,198,238)" d="M  225,175l 0,-1 1,-1 -1,0 1,-1 1,1 0,0 1,-1 0,0 1,-1 1,-1 1,0 1,-1 2,0 1,-1 4,0 1,-1 4,0 1,-1 4,0 1,-1 5,0 0,-3 -2,0 -1,1 -4,0 -1,1 -5,0 -1,1 -4,0 -1,1 -3,0 -1,1 -1,0 -1,1 -1,1 -1,1 -1,1 0,1 1,-1 1,-1 -4,5 -1,0 -1,1 0,1 -1,1 0,1 1,0 0,-1 1,-2 1,0 -1,-1Z"/>
</svg>