<svg width="256" height="256" xmlns="http://www.w3.org/2000/svg"><script> 
var tempColor;
function hoverPath(evt){
obj = evt.target;
tempColor = obj.getAttribute("fill");
obj.setAttribute("fill","red");
//alert(tempColor);
//obj.setAttribute("stroke","red");}
function recoverPath(evt){
obj = evt.target;
obj.setAttribute("fill", tempColor);
//obj.setAttribute("stroke", tempColor);
}</script><path onmouseover="hoverPath(evt)" onmouseout="recoverPath(evt)" fill="rgb(171,198,236)" d="M  0,24l 0,4 1,0 1,-1 5,0 1,-1 6,0 1,-1 6,0 1,-1 9,0 1,-1 9,0 1,1 5,0 0,-5 -19,0 -1,1 -9,0 -1,1 -5,0 -1,1 -4,0 -1,1 -5,0 -1,1Z"/>
<path onmouseover="hoverPath(evt)" onmouseout="recoverPath(evt)" fill="rgb(244,242,235)" d="M  71,0l -18,0 0,4 1,1 0,7 1,1 0,3 2,0 1,-1 1,0 1,-1 1,0 1,-1 1,0 1,-1 1,-1 1,0 1,-1 1,0 1,-1 2,0 1,-1 1,0 1,-1 2,0 1,-1 4,0 1,-1 4,0 1,-1 4,0 1,-1 4,0 1,-1 3,0 1,-1 4,0 0,-1Z"/>
<path onmouseover="hoverPath(evt)" onmouseout="recoverPath(evt)" fill="rgb(249,238,144)" d="M  204,0l -1,0 0,3 1,1 0,5 1,1 0,3 1,1 0,2 1,1 0,3 1,1 0,2 1,1 0,2 1,1 1,1 0,2 1,1 0,1 1,1 0,1 1,1 0,1 1,1 0,1 1,1 0,1 1,1 0,1 1,1 1,1 0,1 1,1 0,1 1,1 0,1 1,1 0,2 1,1 1,1 1,1 0,2 1,1 0,1 1,1 1,1 0,1 1,1 0,1 1,1 0,1 1,1 0,1 1,1 0,1 1,1 0,1 1,1 0,1 1,1 0,1 1,1 0,1 1,1 0,1 1,1 0,1 1,1 0,1 1,1 1,1 0,1 1,1 0,1 1,1 0,3 -1,1 3,0 1,1 0,2 1,1 1,1 0,1 1,1 0,1 1,1 1,1 0,1 2,2 1,1 0,1 1,0 0,-23 -3,0 -1,-1 0,-1 -1,-1 0,-1 -1,-1 0,-1 -1,-1 0,-1 -1,-1 0,-1 -1,-1 0,-2 1,-1 -1,-1 0,-1 -1,-1 0,-1 -1,-1 0,-1 -1,-1 0,-1 -1,-1 -1,-1 0,-1 -1,-1 0,-1 -1,-1 0,-1 -1,-1 0,-1 -1,-1 0,-1 -1,-1 -2,0 -1,-1 0,-5 -2,-2 0,-1 -1,-1 0,-1 -1,0 -1,-1 -1,-1 -1,-1 0,-1 -1,-1 0,-1 -1,-1 0,-2 1,-1 2,0 0,-1 -1,-1 0,-1 -1,-1 0,-1 -1,0 -1,1 -2,0 -1,-1 0,-1 -1,-1 0,-2 -1,-1 0,-2 -1,-1 0,-2 -1,-1 0,-2 -1,-1 0,-3 -1,-1 0,-5 1,-1 1,0 0,-2 -12,0 37,94 -1,0 -1,-1 -2,0 1,1 1,0 2,1 0,-1 -37,-94Z"/>
<path onmouseover="hoverPath(evt)" onmouseout="recoverPath(evt)" fill="rgb(236,230,233)" d="M  244,98l 0,-2 -1,0 -1,1 -2,0 -1,-1 -2,0 -1,-1 -1,-1 0,1 -1,1 0,1 1,1 0,2 2,0 1,1 0,3 -1,1 0,10 -1,1 -3,0 4,1 3,0 1,1 1,0 1,1 0,2 -1,1 0,1 -1,1 -1,0 0,1 1,0 1,1 1,1 0,1 1,1 0,2 1,1 0,2 1,1 0,1 1,1 0,2 1,1 0,1 1,1 0,2 1,1 0,1 1,1 0,2 1,1 0,2 1,1 0,1 1,1 0,3 1,0 0,-47 -2,0 -1,-1 0,-1 -1,-1 -1,-1 -1,-1 0,-1 -1,-1 -1,-1 0,-1 -1,-1 0,-1 -1,-1 -1,-1 -9,-5 0,-1 1,-1 4,0 1,1 0,-1 -1,-1 0,-1 -1,-1 0,-1 -1,-1 -1,-1 0,-1 -1,-1 0,-1 -1,-1 0,-1 -1,-1 0,-1 -1,0 -1,1 0,0 -1,1 -1,1 0,1 1,1 0,2 1,1 0,1 1,1 0,1 1,1 0,2 1,1 9,5Z"/>
<path onmouseover="hoverPath(evt)" onmouseout="recoverPath(evt)" fill="rgb(242,240,235)" d="M  0,211l 0,36 1,0 1,-1 4,0 1,1 2,0 -1,-1 0,-2 1,-1 4,0 1,1 2,0 -1,-1 0,-2 1,-1 4,0 1,1 2,0 -1,-1 0,-2 1,-1 4,0 1,1 2,0 1,-1 2,0 0,-1 1,-1 1,0 1,-1 2,0 1,-1 3,0 1,-1 2,0 1,-1 4,0 1,-1 2,0 1,-1 2,0 1,-1 2,0 1,-1 1,0 1,-1 0,-1 1,-1 2,0 1,-1 2,0 1,-1 1,0 1,-1 0,-2 -35,0 -1,-1 0,-2 1,-1 32,0 1,-1 10,0 1,-1 3,0 1,-1 2,0 1,-1 3,0 1,-1 2,0 1,-1 2,0 1,-1 2,0 1,-1 2,0 1,-1 2,0 1,-1 1,0 1,-1 2,0 1,-1 2,0 1,-1 2,0 1,-1 1,0 1,-1 2,0 0,-3 1,-1 1,-1 1,0 1,-1 1,-1 1,-1 0,-2 1,-1 1,-1 1,0 1,-1 1,-1 1,-1 1,0 1,-1 1,-1 1,-1 1,0 1,-1 0,-1 1,-1 2,0 1,-1 1,-1 1,0 1,-1 1,-1 1,0 1,-1 1,-1 0,-1 1,-1 2,0 1,-1 1,-1 1,0 1,-1 1,-1 1,0 1,-1 1,-1 0,-1 1,-1 2,0 1,-1 1,-1 1,0 1,-1 1,-1 1,0 1,-1 1,-1 1,-1 1,0 1,-1 1,-1 1,0 1,-1 1,-1 0,-1 1,-1 2,0 1,-1 1,-1 2,0 1,1 1,-1 0,0 1,-1 0,-2 1,-1 1,-1 1,0 1,-1 1,-1 1,-1 1,0 1,-1 1,-1 1,-1 1,0 1,-1 1,-1 1,-1 2,0 1,1 1,-1 1,0 1,-1 1,-1 0,-2 1,-1 -1,-1 0,0 -1,-1 -1,-1 -1,-1 -1,-1 -1,-1 0,-3 1,-1 2,0 1,1 1,1 1,1 1,1 1,1 1,1 1,1 1,-1 1,-1 1,0 1,-1 1,-1 1,0 1,-1 1,-1 0,-2 1,-1 1,-1 2,0 1,1 1,-1 2,0 0,-1 1,-1 3,0 0,-10 1,-1 0,-1 -2,0 -1,-1 0,-2 -1,-1 0,-3 1,-1 -1,-1 0,-2 -1,-1 0,-1 -1,-1 0,-1 -1,-1 0,-2 -1,-1 0,-3 1,-1 1,-1 1,-1 1,-1 0,-2 -1,-1 0,-1 -1,-1 0,-1 -1,-1 0,-1 -1,-1 0,-1 -1,-1 0,-1 -1,-1 0,-1 -1,-1 -1,-1 0,-1 -1,-1 0,-2 -1,-1 -1,-1 -1,-1 0,-2 -1,-1 0,-1 -1,-1 0,-1 -1,-1 0,-1 -1,-1 1,3 0,2 -1,1 0,1 1,1 0,1 1,1 0,2 -1,1 -3,0 0,1 -1,1 -2,0 -1,1 0,2 -1,1 -4,0 0,1 -1,1 -2,0 -1,1 -1,1 0,2 -1,1 0,2 -1,1 -1,1 -2,0 -1,-1 0,-1 -1,0 0,2 -1,1 -4,0 -1,1 0,1 -1,1 0,1 -1,1 -1,0 0,1 -1,1 -4,0 0,2 -1,1 -1,1 0,1 -1,1 -4,0 1,1 0,2 -1,1 -1,1 -5,0 -1,-1 -2,2 -1,0 -1,1 0,2 -1,1 -4,0 -1,1 0,1 -1,1 0,1 -1,1 -1,1 -1,0 -1,1 -3,0 0,2 -1,1 -1,1 -1,1 -2,0 -1,-1 -1,1 0,2 -1,1 -1,1 -3,0 -1,1 -1,0 -1,1 0,2 -1,1 0,2 -1,1 -1,1 -4,0 -1,1 -2,0 0,1 -1,1 -1,1 -4,0 -1,1 0,2 -1,1 0,2 -1,1 -1,1 -2,0 -1,-1 0,-1 -1,0 0,2 -1,1 -1,1 -2,0 -1,-1 0,3 -1,1 -1,0 -1,1 -1,1 -2,0 0,2 -1,1 -1,0 -1,1 -1,0 -1,1 -2,0 0,1 -1,1 -2,0 0,2 -1,1 -3,0 -1,1 -2,0 -1,1 0,1 -1,1 -2,0 0,2 -1,1 -1,1 0,1 -1,1 0,1 -1,1 -4,0 0,2 -1,1 -1,1 -7,0 -1,1 -1,0 -1,1 0,1 -1,1 -1,0 0,2 -1,1 -1,0 -1,1 -1,1 -1,0 -1,1 0,2 -1,1 -3,0 -1,-1 0,1 -1,1 -2,0 0,1 -1,1 -1,1 -1,0 -1,1 -2,0 -1,1 -2,0 0,2 -1,1 -4,0 0,1 -1,1 0,1 -1,1 -2,0 0,2 -1,1 -5,0 0,2 -1,1 0,2 -1,1 -2,0 -1,-1 0,-1 -1,0 0,2 -1,1 -2,0 0,1 -1,1 -1,1 -5,0Z"/>
<path onmouseover="hoverPath(evt)" onmouseout="recoverPath(evt)" fill="rgb(247,235,139)" d="M  17,131l -1,1 -1,1 -2,0 -1,1 0,1 -1,1 0,1 -1,1 -1,1 0,1 -1,1 0,1 -1,1 -1,1 0,1 -1,1 -1,1 0,1 -1,1 -1,1 -2,0 0,12 1,0 1,-1 0,-2 1,-1 1,0 0,-1 1,-1 1,-1 0,-1 1,-1 1,-1 0,-2 1,-1 1,0 0,-1 1,-1 1,-1 0,-1 1,-1 0,-1 1,-1 1,-1 0,-1 1,-1 0,-1 1,-1 1,-1 0,-1 1,-1 1,-1 -1,-1 0,-1Z"/>
<path onmouseover="hoverPath(evt)" onmouseout="recoverPath(evt)" fill="rgb(173,199,235)" d="M  55,18l -1,0 -1,-1 0,1 1,1 0,4 4,0 1,-1 1,0 1,-1 1,0 1,-1 1,-1 1,-1 1,0 1,-1 1,-1 1,0 1,-1 2,0 1,-1 2,0 1,-1 2,0 1,-1 3,0 1,-1 7,0 1,-1 4,0 1,-1 4,0 1,-1 4,0 1,-1 4,0 1,-1 2,0 1,-1 4,0 1,-1 4,0 1,-1 1,0 1,-1 3,0 1,-1 3,0 1,-1 -27,0 0,2 -1,1 -4,0 -1,1 -3,0 -1,1 -4,0 -1,1 -4,0 -1,1 -4,0 -1,1 -4,0 -1,1 -2,0 -1,1 -1,0 -1,1 -2,0 -1,1 -1,0 -1,1 -1,0 -2,2 -1,0 -1,1 -1,0 -1,1 -1,0 -1,1Z"/>
<path onmouseover="hoverPath(evt)" onmouseout="recoverPath(evt)" fill="rgb(238,237,229)" d="M  62,75l 0,1 1,1 0,8 1,1 0,2 1,-1 1,0 2,-2 1,0 1,-1 1,-1 1,0 1,-1 1,-1 1,0 1,-1 1,-1 1,0 1,-1 1,-1 1,-1 1,0 1,-1 1,-1 1,0 1,-1 1,-1 1,0 1,-1 0,-1 1,-1 2,0 1,-1 1,-1 1,0 1,-1 1,-1 1,0 1,-1 1,-1 1,0 1,-1 1,-1 1,0 1,-1 1,-1 1,0 1,-1 0,-1 1,-1 2,0 1,-1 1,-1 1,0 1,-1 0,-1 1,-1 2,0 1,-1 1,-1 1,0 1,-1 0,-1 1,-1 2,0 1,-1 1,-1 1,-1 1,0 1,-1 0,-1 1,-1 2,0 1,-1 1,-1 0,-2 1,-1 1,0 1,-1 1,-1 0,-1 1,-1 0,-1 1,-1 0,-2 1,-1 0,-2 1,-1 0,-1 1,-1 0,-2 1,-1 0,-1 1,-1 3,0 1,1 0,4 -1,1 0,2 -1,1 0,1 -1,1 0,2 -1,1 0,1 -1,1 0,1 1,-1 6,0 1,1 0,2 -1,1 -3,0 0,1 1,0 1,1 3,0 1,1 1,0 1,1 1,0 1,-1 1,0 1,-1 2,0 1,1 1,0 1,-1 3,0 1,-1 0,-1 -1,-1 0,0 -1,-1 0,-2 -1,-1 0,-2 -1,-1 0,-2 -2,0 -1,-1 0,-9 1,-1 1,0 1,-1 4,0 1,-1 0,-1 -6,0 -1,-1 0,-2 1,-1 1,0 0,-2 -1,-1 0,-1 -1,0 -1,-1 -1,1 -6,0 -1,-1 0,-3 -17,0 0,1 -1,1 -2,0 -1,1 -3,0 -1,1 -3,0 -1,1 -1,0 -1,1 -4,0 -1,1 -4,0 -1,1 -2,0 -1,1 -4,0 -1,1 -4,0 -1,1 -4,0 -1,1 -4,0 -1,1 -7,0 -1,1 -3,0 -1,1 -2,0 -1,1 -2,0 -1,1 -2,0 -1,1 -1,0 -1,1 -1,1 -1,0 -1,1 -1,1 -1,1 -1,0 -1,1 -1,0 -1,1 -3,0 0,4 1,1 0,7 1,1 0,7 6,0 1,1 0,1 1,1 0,2 -1,1 -5,0 0,7 -1,1 0,7 1,1 0,1 1,0 1,1Z"/>
<path onmouseover="hoverPath(evt)" onmouseout="recoverPath(evt)" fill="rgb(244,243,235)" d="M  194,211l -2,0 -1,-1 0,1 -1,1 -2,0 0,1 -1,1 -4,0 -1,1 -2,0 0,2 -1,1 1,1 0,2 1,1 0,2 1,1 0,1 1,1 0,2 1,1 0,1 1,1 0,2 1,1 0,2 1,1 0,1 1,1 0,1 1,1 3,0 1,1 0,2 -1,1 -2,0 0,1 1,1 0,2 1,1 0,4 63,0 0,-60 -1,0 -1,1 -3,0 -1,1 -3,0 -1,1 -4,0 -1,1 -4,0 0,2 -1,1 -2,0 -1,-1 -4,0 -1,1 -3,0 -1,1 -3,0 -1,1 -3,0 -1,1 -2,0 -1,1 -2,0 -1,1 -3,0 -1,1 -2,0 -1,1 -3,0 -1,1 -2,0 -1,1 -1,0 0,26 -1,-1 0,-2 1,-1 2,0 1,1 0,2 -1,1 -2,0Z"/>
<path onmouseover="hoverPath(evt)" onmouseout="recoverPath(evt)" fill="rgb(243,241,233)" d="M  166,17l -1,0 0,7 2,0 1,1 0,2 1,1 0,2 1,1 0,2 1,1 1,1 0,2 1,1 0,1 1,1 1,1 0,1 1,1 1,1 0,2 -1,1 1,1 0,1 1,1 1,1 3,0 1,-1 1,-1 0,-2 1,-1 1,-1 1,0 2,-2 2,0 1,1 1,-1 1,0 2,-2 1,0 2,-2 1,0 1,-1 0,-2 1,-1 1,-1 0,-1 1,-1 -1,-1 0,-1 -1,-1 0,-5 -1,0 -1,-1 -1,0 -1,-1 0,-1 -1,-1 0,-2 -1,-1 0,-1 -1,-1 0,-1 -1,-1 -7,0 -1,-1 0,-2 1,-1 6,0 1,-1 3,0 -1,-1 0,-5 -1,-1 0,-1 -38,0 0,2 4,0 1,-1 2,0 1,1 1,0 1,1 0,1 1,1 0,4 -1,1 5,0 1,1 0,3 -1,1 -1,1 -4,0 -1,1Z"/>
<path onmouseover="hoverPath(evt)" onmouseout="recoverPath(evt)" fill="rgb(219,198,242)" d="M  205,20l 0,-2 -1,-1 0,-2 -1,-1 0,-3 -1,-1 0,-5 -1,-1 0,-4 -4,0 1,1 0,5 1,1 0,2 -1,1 -3,0 -1,1 1,0 1,1 0,0 1,1 0,1 1,1 0,1 1,1 0,2 1,1 0,1 1,0 1,1 1,0 1,1 0,5 1,1 0,1 1,1 0,2 -1,1 0,1 -1,1 -1,1 3,0 1,1 0,1 1,1 0,4 -1,1 2,-3 1,-1 1,-1 0,-1 1,-1 1,0 -1,-1 0,-1 -1,-1 0,-1 -1,-1 0,-1 -1,-1 0,-2 -1,-1 -1,-1 0,-2 -1,-1 0,-2 -1,-1Z"/>
<path onmouseover="hoverPath(evt)" onmouseout="recoverPath(evt)" fill="rgb(245,240,248)" d="M  237,132l 0,0 -1,1 1,0 1,1 0,1 1,-1 2,0 1,1 0,1 1,1 0,1 1,1 0,2 1,1 0,1 1,1 0,2 1,1 0,1 1,1 0,2 1,1 0,2 1,1 0,1 1,1 0,2 1,1 0,2 1,1 0,1 1,1 0,4 -1,1 0,0 1,1 1,0 0,-11 -2,0 -1,-1 0,-3 -1,-1 0,-1 -1,-1 0,-2 -1,-1 0,-2 -1,-1 0,-1 -1,-1 0,-2 -1,-1 0,-1 -1,-1 0,-2 -1,-1 0,-1 -1,-1 0,-2 -1,-1 0,-2 -1,-1 0,-1 -1,-1 -1,0 -1,-1 0,-3 1,-1 1,0 0,-1 1,-1 -1,0 -1,-1 -3,0 -1,-1 -5,0 -1,1 -2,0 -1,-1 -1,1 0,2 -1,1 -1,1 -1,1 -1,0 -1,1 -1,1 -1,0 -1,1 -1,1 -2,0 -1,-1 -1,-1 -1,-1 -1,-1 -1,-1 -1,-1 -1,-1 0,1 1,1 1,1 1,1 1,1 1,1 1,1 0,2 -1,1 2,-1 1,0 1,-1 2,0 0,-1 1,-1 1,-1 4,0 1,-1 0,-2 1,-1 1,-1 1,-1 1,0 1,-1 4,0 1,1 0,1 1,0 1,1 0,2 -1,1 1,1Z"/>
<path onmouseover="hoverPath(evt)" onmouseout="recoverPath(evt)" fill="rgb(236,235,221)" d="M  26,125l 0,0 1,-1 0,-2 1,-1 1,0 1,-1 1,-1 1,-1 0,-1 1,-1 1,0 1,-1 1,-1 1,0 1,-1 1,-1 0,-2 1,-1 0,-3 1,-1 3,-3 0,-1 1,-1 2,0 1,-1 1,-1 1,-1 1,0 1,-1 0,-14 -1,-1 0,-8 -1,-1 0,-9 -1,-1 0,-8 -4,0 -1,1 -3,0 -1,1 -3,0 -1,1 -3,0 -1,1 -3,0 -1,1 -2,0 -1,1 -2,0 0,1 -1,1 0,13 -1,1 0,13 -1,1 0,3 -1,1 -2,0 -1,-1 0,-11 -1,0 -1,-1 -6,0 -1,-1 0,-2 1,-1 7,0 1,-1 0,-5 -1,0 -1,-1 -8,0 0,4 -1,1 -2,0 -1,-1 0,-7 1,-1 -3,0 0,82 1,0 1,-1 0,-1 1,-1 1,-1 0,-1 1,-1 1,-1 0,-1 1,-1 0,-1 1,-1 1,-1 0,-1 1,-1 0,-1 1,-1 1,-1 2,0 1,-1 1,-1 4,0 1,1 0,1 1,-1 0,-2 1,-1 1,0 1,-1 1,-1 -24,-26 0,-2 1,-1 2,0 1,1 0,1 1,1 0,1 1,1 0,2 -1,1 -2,0 -1,-1 0,-1 -1,-1 0,-1 -1,-1 24,26Z"/>
<path onmouseover="hoverPath(evt)" onmouseout="recoverPath(evt)" fill="rgb(233,224,237)" d="M  165,188l -4,0 -1,1 -4,0 -1,1 -4,0 -1,1 -3,0 -1,1 -1,0 0,1 1,1 0,3 1,-1 8,0 1,1 1,1 1,1 0,-3 1,-1 0,-1 1,-1 1,-1 1,0 1,-1 7,0 0,-1 1,-1 2,0 0,-1 1,-1 3,0 1,1 0,1 1,-1 2,0 1,-1 1,0 1,-1 1,0 0,-4 -1,0 -2,2 -2,0 -1,1 -6,0 -1,1 -3,0 -1,1 -2,0 -1,1 -7,12 0,3 1,1 0,2 1,1 0,2 1,0 0,-3 -1,-1 0,-2 -1,-1 0,-1 -1,-1 7,-12Z"/>
<path onmouseover="hoverPath(evt)" onmouseout="recoverPath(evt)" fill="rgb(243,242,235)" d="M  0,182l 0,23 4,0 1,-1 0,-1 1,-1 2,0 0,-2 1,-1 3,0 1,1 0,-1 1,-1 0,-2 1,-1 5,0 0,-2 1,-1 2,0 0,-1 1,-1 0,-1 1,-1 4,0 0,-2 1,-1 2,0 1,-1 2,0 1,-1 1,0 1,-1 0,-1 1,-1 2,0 0,-2 1,-1 2,0 1,1 0,1 1,0 0,-2 1,-1 1,-1 1,0 1,-1 1,-1 1,0 0,-2 1,-1 1,0 0,-1 1,-1 1,-1 1,0 1,-1 7,0 1,-1 0,-2 1,-1 4,0 0,-1 1,-1 0,-1 1,-1 1,-1 0,-2 1,-1 2,0 0,-1 1,-1 1,-1 2,0 1,-1 3,0 0,-2 1,-1 2,0 0,-1 1,-1 2,0 1,-1 1,0 1,-1 1,0 0,-2 1,-1 2,0 1,-1 1,-1 1,0 0,-3 1,-1 2,0 1,1 1,-1 0,-2 1,-1 3,0 1,1 0,1 1,-1 0,-2 1,-1 0,-2 1,-1 1,-1 4,0 1,-1 0,-1 1,-1 2,0 1,-1 4,0 1,-1 0,-2 1,-1 0,-2 1,-1 1,-1 1,0 1,-1 3,0 1,-1 0,-2 1,-1 1,-1 2,0 1,1 1,-1 0,0 1,-1 0,-2 1,-1 3,0 1,-1 1,0 1,-1 0,-1 1,-1 0,-1 1,-1 1,-1 4,0 0,-2 1,-1 1,-1 1,0 1,-1 1,-1 2,0 1,1 3,0 1,-1 0,0 -1,-1 0,-2 1,-1 4,0 0,-1 1,-1 1,-1 0,-2 1,-1 4,0 0,-1 1,-1 1,0 0,-1 1,-1 0,-1 1,-1 1,-1 4,0 0,-2 1,-1 3,0 1,1 0,1 1,-1 0,-2 1,-1 0,-2 1,-1 1,-1 1,-1 2,0 0,-1 1,-1 4,0 0,-2 1,-1 1,-1 2,0 0,-1 1,-1 3,0 -1,-1 0,-1 -1,-1 0,-3 1,-1 0,-2 -1,-1 0,-2 1,-1 -1,-1 0,-1 -1,0 0,1 -1,1 -1,1 -1,1 0,1 -1,1 -1,1 -2,0 -1,-1 0,-2 1,-1 0,-2 -1,-1 0,-1 -2,0 -1,1 -1,1 -1,0 -1,1 -1,1 -1,0 -1,1 -1,1 -1,0 -1,1 -2,0 -1,-1 -1,1 -1,1 -1,0 -1,1 0,2 -1,1 -1,1 -1,1 -5,0 -1,-1 -1,-1 -1,-1 0,-1 -1,-1 0,-2 1,-1 -1,-1 0,0 -1,-1 0,-1 -1,-1 -2,0 -1,-1 -2,0 -1,1 -2,0 -1,1 -1,0 -1,1 -1,0 -1,1 -1,1 -1,0 -1,1 -3,0 -1,1 1,1 0,0 1,1 1,1 7,7 1,1 1,1 1,1 2,0 1,1 1,1 0,2 -1,1 -1,0 -1,1 -1,1 -2,0 -1,-1 0,-1 -1,-1 -1,-1 -1,-1 -1,-1 -1,-1 -1,-1 -1,-1 -1,-1 -1,-1 -1,-1 -1,-1 -1,-1 -1,-1 -1,0 -1,-1 0,-1 -1,-1 -1,-1 -1,-1 -1,-1 -1,-1 -1,-1 -1,-1 -1,-1 -1,1 -1,0 -1,1 -1,1 0,1 -1,1 0,1 -1,1 -1,1 -4,0 -1,1 -1,1 -1,0 -1,1 -1,1 -1,1 -1,0 -1,1 -1,1 -1,0 -1,1 -1,1 -1,1 -1,0 -1,1 0,2 -1,1 -1,1 -2,0 0,1 -1,1 -4,0 -1,1 -1,1 -1,0 -1,1 -1,1 -1,0 -1,1 -1,1 -1,0 -1,1 0,2 -1,1 -1,1 -4,0 -1,1 -1,1 -1,0 -1,1 0,2 -1,1 -1,1 -4,0 -1,1 -1,1 -1,0 -1,1 -1,1 -1,0 -1,1 -1,1 -1,0 -1,1 -1,1 -1,0 -1,1 0,3 -2,2 -1,1 -1,0 -1,1 -1,0 -1,1 -1,0 -1,1 -1,1 -1,1 -1,0 -1,1 -1,1 0,4 -1,1 -2,0 -1,-1 -1,-1 -1,1 -1,0 -1,1 -1,1 -1,0 -1,1 -1,1 -1,1 -1,0 -1,1 -1,1 -1,0 0,1 -1,1 -3,3 -1,0 0,2 -1,1 -1,1 -1,1 -1,1 -1,0 0,2 -1,1 -1,1 0,1 -1,1 -1,1 0,1 -1,1 -1,1 0,1 -1,1 0,1 -1,1 -1,1 0,1 -1,1 0,1 -1,1 -1,1 0,1 -1,1 -1,0 0,2 -1,1 -1,1 0,1 -1,1 -1,1 0,1 -1,1 -1,0 0,2 -1,1 -1,1 -2,0 0,18 203,-134 0,2 -1,1 -2,0 -1,-1 0,-2 1,-1 2,0 1,1 -203,134Z"/>
<path onmouseover="hoverPath(evt)" onmouseout="recoverPath(evt)" fill="rgb(241,237,237)" d="M  0,254l 0,1 33,0 0,-2 1,-1 2,0 1,-1 1,0 1,-1 2,0 1,-1 2,0 1,-1 2,0 1,-1 1,0 1,-1 2,0 1,-1 2,0 1,-1 1,0 1,-1 2,0 1,-1 2,0 1,-1 1,0 1,-1 2,0 1,-1 2,0 1,-1 1,0 1,-1 1,0 1,-1 2,0 1,-1 2,0 1,-1 2,0 1,-1 1,0 1,-1 2,0 1,-1 1,0 1,-1 2,0 1,-1 2,0 1,-1 1,0 1,-1 2,0 1,-1 2,0 1,-1 1,0 1,-1 2,0 1,-1 2,0 1,-1 2,0 1,-1 2,0 1,-1 2,0 1,-1 2,0 1,-1 3,0 1,-1 2,0 1,-1 2,0 1,-1 3,0 1,-1 2,0 1,-1 3,0 1,-1 2,0 1,-1 2,0 1,-1 3,0 1,-1 1,0 0,-1 -1,-1 0,-2 -1,-1 0,-4 -1,-1 -1,-1 -6,0 -1,1 -2,0 -1,-1 0,-3 -1,-1 0,1 -1,1 -3,0 -1,-1 -1,0 -1,1 -1,0 -1,1 -1,0 0,2 1,1 0,1 1,0 1,1 0,2 -1,1 -1,0 -1,1 -2,0 -1,1 -3,0 -1,1 -1,0 -1,1 -2,0 -1,1 -4,0 -1,1 -3,0 -1,1 -2,0 -1,1 -2,0 -1,1 -1,0 0,1 -1,1 -2,0 -1,1 -3,0 -1,-1 -1,0 -1,1 -2,0 -1,1 -4,0 -1,-1 -1,-1 0,-2 -1,0 -1,1 -3,0 -1,1 -10,0 -1,1 3,0 1,1 0,4 -2,2 -1,0 -1,1 -2,0 -1,1 -2,0 0,1 -1,1 -1,1 -1,0 -1,1 -2,0 -1,1 -2,0 -1,1 -2,0 -1,1 -4,0 -1,1 -2,0 -1,1 -3,0 -1,1 -2,0 -1,1 -1,0 0,1 -1,1 -2,0 -1,1 -4,0 -1,-1 -2,0 1,1 0,2 -1,1 -4,0 -1,-1 -2,0 1,1 0,2 -1,1 -4,0 -1,-1 -2,0 1,1 0,2 -1,1 -4,0 -1,-1 -2,0 -1,1 -2,0Z"/>
<path onmouseover="hoverPath(evt)" onmouseout="recoverPath(evt)" fill="rgb(243,242,233)" d="M  19,0l -19,0 0,21 5,0 1,-1 4,0 1,-1 5,0 1,-1 9,0 1,-1 18,0 0,-3 -1,-1 0,-8 -1,-1 0,-4Z"/>
<path onmouseover="hoverPath(evt)" onmouseout="recoverPath(evt)" fill="rgb(248,237,139)" d="M  42,255l 20,0 0,-2 1,-1 1,0 1,-1 1,0 1,-1 2,0 1,-1 2,0 1,-1 2,0 1,-1 1,0 1,-1 6,0 1,1 0,-2 1,-1 1,0 1,-1 1,-1 2,0 1,-1 1,0 1,-1 2,0 1,-1 2,0 1,-1 1,0 1,-1 2,0 1,-1 1,0 1,-1 2,0 1,-1 2,0 1,-1 2,0 1,-1 2,0 1,-1 2,0 1,-1 2,0 1,-1 2,0 1,-1 2,0 1,-1 2,0 0,-1 1,-1 2,0 1,1 1,1 0,-3 1,-1 2,0 1,1 1,0 1,-1 3,0 1,-1 1,0 0,-1 1,-1 7,0 1,-1 3,0 1,-1 2,0 1,-1 2,0 1,-1 2,0 0,-1 1,-1 2,0 1,-1 3,0 1,1 0,2 1,-3 2,0 1,-1 4,0 0,-1 1,-1 2,0 0,-1 1,-1 2,0 1,1 1,0 1,-1 2,0 1,-1 3,0 1,-1 2,0 1,-1 3,0 1,-1 2,0 1,-1 2,0 1,-1 3,0 1,-1 3,0 1,-1 3,0 1,-1 6,0 1,1 0,-2 1,-1 4,0 1,-1 4,0 1,-1 3,0 1,-1 3,0 1,-1 2,0 0,-6 -2,0 -1,-1 -2,0 -1,1 -4,0 -1,1 -3,0 -1,1 -6,0 -1,-1 -2,0 0,2 -1,1 -2,0 -1,1 -3,0 -1,1 -3,0 -1,1 -4,0 -1,1 -2,0 -1,1 -3,0 -1,1 -2,0 -1,1 -3,0 -1,1 -2,0 -1,1 -2,0 -1,1 -3,0 -1,1 -3,0 -1,1 -2,0 -1,1 -2,0 -1,1 -2,0 -1,1 -2,0 -1,1 -3,0 -1,1 -2,0 -1,1 -4,0 0,1 -1,1 -4,0 -1,1 -3,0 -1,1 -2,0 -1,1 -2,0 -1,1 -3,0 -1,1 -2,0 -1,1 -3,0 -1,1 -2,0 -1,1 -2,0 -1,1 -3,0 -1,1 -2,0 -1,1 -2,0 -1,1 -2,0 -1,1 -2,0 -1,1 -2,0 -1,1 -2,0 -1,1 -1,0 -1,1 -2,0 -1,1 -2,0 -1,1 -1,0 -1,1 -2,0 -1,1 -2,0 -1,1 -1,0 -1,1 -2,0 -1,1 -1,0 -1,1 -2,0 -1,1 -2,0 -1,1 -2,0 -1,1 -1,0 -1,1 -1,0 -1,1 -2,0 -1,1 -2,0 -1,1 -1,0 -1,1 -2,0 -1,1 -2,0 -1,1 -1,0 -1,1 -2,0 -1,1 -2,0 -1,1 -1,0 -1,1 -2,0 -1,1 -2,0 -1,1 -2,0 -1,1 -1,0 -1,1 -2,0 0,1Z"/>
<path onmouseover="hoverPath(evt)" onmouseout="recoverPath(evt)" fill="rgb(245,235,147)" d="M  58,54l 0,-4 1,-1 5,0 -1,-1 0,-1 -6,0 -1,-1 0,-7 -1,-1 0,-7 -1,-1 0,-5 -1,0 -1,-1 0,-4 -1,-1 0,-6 1,-1 0,-6 -1,-1 0,-5 -6,0 0,3 1,1 0,8 1,1 0,4 1,0 1,1 0,7 -1,1 0,2 -1,1 -4,0 -1,1 4,0 1,1 0,4 2,0 1,1 0,9 1,0 1,1 0,7 -1,1 0,7 1,1 0,9 1,1 0,8 1,1 0,16 -1,1 -1,1 -1,0 -1,1 -1,1 -1,1 -2,0 0,1 -1,1 -1,1 -1,1 -1,1 0,3 1,-1 1,0 1,-1 2,0 1,1 1,1 0,-4 1,-1 1,-1 1,-1 1,0 1,-1 1,-1 1,-1 1,0 1,-1 1,0 1,-1 1,0 1,-1 1,-1 0,-2 -1,0 -1,-1 0,-3 1,-1 0,-2 -1,-1 0,-8 -1,-1 0,-7 -1,0 -1,-1 0,-1 -1,-1 0,-9 1,-1Z"/>
<path onmouseover="hoverPath(evt)" onmouseout="recoverPath(evt)" fill="rgb(244,242,234)" d="M  108,255l 38,0 0,-2 -1,-1 0,-3 1,-1 -2,0 -1,-1 0,-3 1,-1 0,-1 -2,0 -1,-1 0,-2 1,-1 0,-1 -2,0 -1,-1 -1,-1 0,-2 -1,-1 0,-2 -1,-1 0,-1 -1,-1 0,1 -1,1 -2,0 -1,1 -2,0 -1,1 -2,0 -1,1 -2,0 -1,1 -2,0 -1,1 -2,0 -1,1 -2,0 -1,1 -2,0 -1,1 -2,0 -1,1 -1,0 -1,1 -2,0 -1,1 -1,0 -1,1 -2,0 -1,1 -2,0 -1,1 -1,0 -1,1 -2,0 -1,1 -1,1 -1,0 0,2 -1,1 -2,0 -1,-1 -4,0 -1,1 -1,0 -1,1 -2,0 -1,1 -2,0 -1,1 -2,0 -1,1 -1,0 -1,1 -1,0 0,1 44,0 -23,-5 0,2 1,1 2,0 1,-1 0,-2 -4,0 23,5 -20,-6 0,0 20,6 -21,-6 21,6Z"/>
<path onmouseover="hoverPath(evt)" onmouseout="recoverPath(evt)" fill="rgb(251,251,248)" d="M  147,38l 0,-3 1,-1 -1,0 -1,1 -2,0 -1,-1 0,-3 1,-1 0,-1 1,-1 0,-2 1,-1 0,-1 1,-1 0,-2 1,-1 0,-2 -1,0 0,1 -1,1 0,2 -1,1 0,1 -1,1 0,2 -1,1 0,2 -1,1 0,1 -1,1 0,1 -1,1 -1,1 -1,1 -1,0 0,2 -1,1 -1,1 -1,1 -2,0 0,1 -1,1 -1,1 -1,0 -1,1 -1,1 -1,1 -2,0 0,1 -1,1 -1,1 -1,0 -1,1 -1,1 -2,0 0,1 -1,1 -1,1 -1,0 -1,1 -1,1 -2,0 0,1 -1,1 -1,1 -1,0 -1,1 -1,1 -1,0 -1,1 -1,1 -1,0 -1,1 -1,1 -1,0 -1,1 -1,1 -1,0 -1,1 -1,1 -2,0 0,1 -1,1 -1,1 -1,0 -1,1 -1,1 -1,0 -1,1 -1,1 -1,0 -1,1 -1,1 -1,1 -1,0 -1,1 -1,1 -1,0 -1,1 -1,1 -1,0 -1,1 -1,1 -1,0 -1,1 -1,1 -1,0 -1,1 -1,0 -1,1 0,1 1,0 1,-1 1,0 1,-1 1,-1 1,0 1,-1 1,-1 1,0 1,-1 1,-1 1,0 1,-1 1,-1 4,0 1,-1 0,-2 1,-1 1,-1 1,0 1,-1 1,-1 4,0 1,-1 0,-2 1,-1 1,-1 1,0 1,-1 1,-1 1,0 1,-1 1,-1 1,0 1,-1 1,-1 4,0 0,-1 1,-1 2,0 1,-1 0,-2 1,-1 1,-1 1,0 1,-1 1,-1 1,-1 1,0 1,-1 1,-1 1,0 1,-1 1,-1 1,-1 1,0 1,-1 1,-1 4,0 1,-1 0,-1 1,-1 0,-1 1,-1 1,-1 1,-1 1,0 1,-1 2,0 1,1 6,6 1,1 1,1 0,1 1,0 1,1 3,3 1,1 6,6 1,1 1,1 1,1 0,1 1,-1 0,0 1,-1 1,0 -1,-1 -2,0 -1,-1 -1,-1 -1,-1 -1,-1 -1,-1 -1,-1 -1,-1 -1,-1 -1,-1 -1,-1 -1,-1 -1,-1 -1,-1 -1,-1 0,-2 1,-1 1,-1 3,0 1,-1 1,0 1,-1 -2,0 -1,-1 -1,0 -1,-1 -3,0 -1,-1 -1,0 -1,-1Z"/>
<path onmouseover="hoverPath(evt)" onmouseout="recoverPath(evt)" fill="rgb(242,241,232)" d="M  158,222l -7,0 0,1 -1,1 -1,0 -1,1 -3,0 -1,1 -3,0 -1,-1 0,4 -1,1 0,1 1,1 0,2 1,1 2,0 1,1 0,3 -1,1 2,0 1,1 0,3 -1,1 0,1 2,0 1,1 0,2 -1,1 0,1 1,1 0,3 39,0 0,-1 -1,-1 0,-2 -1,-1 0,-1 -6,0 -1,-1 0,-2 1,-1 2,0 1,-1 1,0 0,-1 -1,-1 0,-2 -1,-1 0,-1 -1,-1 0,-2 -1,-1 0,-1 -1,-1 0,-2 -1,-1 0,-1 -1,-1 0,-2 -1,-1 0,-2 -1,-1 0,-1 -1,-1 0,-3 -1,0 0,1 -1,1 -2,0 -1,1 -2,0 -1,1 -2,0 -1,1 -3,0 -1,1 8,26 -2,0 -1,-1 0,-2 1,-1 2,0 1,1 0,2 -1,1 -8,-26 -1,9 1,-1 2,0 1,1 0,2 -1,1 -2,0 -1,-1 0,-2 1,-9 5,19 -2,0 -1,-1 0,-2 1,-1 2,0 1,1 0,2 -1,1 -5,-19Z"/>
<path onmouseover="hoverPath(evt)" onmouseout="recoverPath(evt)" fill="rgb(240,236,234)" d="M  161,196l 0,0 -1,1 0,2 1,1 0,1 1,1 0,2 1,1 0,2 3,0 1,-1 2,0 1,-1 3,0 1,-1 2,0 1,-1 2,0 1,-1 2,0 1,-1 2,0 1,-1 3,0 1,-1 3,0 1,-1 2,0 1,-1 2,0 1,-1 3,0 1,-1 2,0 1,-1 3,0 1,-1 2,0 1,-1 4,0 1,-1 3,0 1,-1 3,0 1,-1 2,0 0,-2 1,-1 4,0 1,1 4,0 1,-1 3,0 1,-1 4,0 1,-1 4,0 1,1 1,0 0,-12 -2,0 -1,-1 -1,0 -1,-1 0,-2 1,-1 1,0 0,-2 -1,-1 0,-1 -1,-1 0,-2 -1,-1 0,-2 -1,-1 0,-1 -1,-1 0,-2 -1,-1 0,-2 -1,-1 0,-1 -1,-1 0,-2 -1,-1 0,-1 -1,-1 0,-2 -1,-1 0,-1 -1,-1 0,-1 -1,1 -1,0 0,1 -1,1 -2,0 0,4 -1,1 -2,0 0,1 1,1 0,3 -1,1 -6,0 -1,-1 -1,1 -1,1 0,2 -1,1 -1,0 -1,1 -1,1 -1,1 -1,1 0,1 -1,1 -1,0 -2,2 -1,1 -1,1 0,1 -1,1 -2,0 -1,1 0,1 1,1 0,2 -1,1 -1,0 -1,1 -3,0 -1,-1 -1,0 0,3 -1,1 -2,0 0,2 -1,1 -1,0 0,1 -1,1 -7,0 0,6 -1,1 -1,0 -1,1 -1,0 -1,1 -2,0 -1,1 -2,0 -1,-1 0,-1 -1,0 0,1 -1,1 -2,0 0,1 -1,1 -7,0 -1,1 -1,0 -1,1Z"/>
<path onmouseover="hoverPath(evt)" onmouseout="recoverPath(evt)" fill="rgb(253,253,253)" d="M  184,246l -1,0 -1,1 4,0 1,1 0,1 1,1 0,2 1,1 0,2 1,0 0,-3 -1,-1 0,-2 -1,-1 0,-3 1,-1 -1,0 -1,-1 -1,-1 0,-1 -1,-1 0,-1 -1,-1 0,-2 -1,-1 0,-2 -1,-1 0,-1 -1,-1 0,-2 -1,-1 0,-1 -1,-1 0,-2 -1,-1 0,-2 -1,-1 0,-1 -1,-1 0,-2 -1,0 0,3 1,1 0,1 1,1 0,2 1,1 0,2 1,1 0,1 1,1 0,2 1,1 0,1 1,1 0,2 1,1 0,1 1,1 0,2 1,1 0,3 -1,1Z"/>
<path onmouseover="hoverPath(evt)" onmouseout="recoverPath(evt)" fill="rgb(250,249,245)" d="M  15,79l -6,0 7,1 1,0 1,1 0,11 1,-4 0,-13 1,-1 0,-13 1,-1 0,-1 1,-1 2,0 1,-1 2,0 1,-1 3,0 1,-1 3,0 1,-1 3,0 1,-1 3,0 1,-1 6,0 0,-5 -1,0 -1,-1 0,-9 -1,9 0,0 -1,1 -3,0 -1,1 -3,0 -1,1 -2,0 -1,1 -4,0 -1,-1 0,2 1,1 0,2 -1,1 -2,0 -1,1 -3,0 -1,1 -3,0 -1,-1 -1,-1 0,2 -1,1 -1,1 -6,0 -1,-1 0,1 -1,1 0,0 -1,1 -1,0 -1,1 -5,0 0,2 4,0 1,1 0,2 -1,1 0,5 1,-5 10,0 1,1 1,0 1,1 0,7 -1,1 -1,1Z"/>
<path onmouseover="hoverPath(evt)" onmouseout="recoverPath(evt)" fill="rgb(241,239,228)" d="M  28,48l 0,0 1,-1 2,0 1,1 2,0 1,-1 2,0 1,-1 3,0 1,-1 3,0 1,-1 0,-7 -1,-1 0,-4 -16,0 -1,-1 0,-2 1,-1 12,0 1,-1 4,0 0,-1 -5,0 -1,-1 -7,0 -1,1 -9,0 -1,1 -6,0 -1,1 -6,0 -1,1 -5,0 -1,1 -2,0 0,30 4,0 1,-1 1,0 1,-1 0,-2 1,-1 2,0 1,1 0,1 4,0 1,-1 0,-4 1,-1 2,0 1,1 0,2 1,1 1,0 1,-1 3,0 1,-1 2,0 -1,-1 0,-4 -18,-10 1,-1 2,0 1,1 0,2 -1,1 -2,0 -1,-1 0,-2 18,10Z"/>
<path onmouseover="hoverPath(evt)" onmouseout="recoverPath(evt)" fill="rgb(216,195,233)" d="M  111,206l -2,0 -1,1 -1,0 -1,1 -2,0 -1,1 -2,0 -1,1 -2,0 -1,1 -2,0 -1,1 -2,0 -1,1 -3,0 0,2 1,1 2,0 1,-1 2,0 1,-1 3,0 1,1 1,0 1,-1 2,0 0,-1 1,-1 1,0 1,-1 2,0 1,-1 2,0 1,-1 3,0 1,-1 4,0 1,-1 2,0 1,-1 1,0 1,-1 3,0 1,-1 2,0 1,-1 1,0 -2,-1 0,-1 -1,-1 0,-2 -1,0 -1,1 -1,0 -1,1 -1,0 -1,1 -2,0 -1,1 -2,0 -1,1 -1,0 -1,1 -2,0 -1,1 -2,0 -1,1Z"/>
<path onmouseover="hoverPath(evt)" onmouseout="recoverPath(evt)" fill="rgb(242,240,233)" d="M  138,193l 1,0 1,1 1,0 0,-2 1,-1 1,0 1,-1 1,0 1,-1 3,0 1,-1 4,0 1,-1 4,0 1,-1 4,0 1,-1 2,0 1,-1 3,0 1,-1 6,0 1,-1 2,0 1,-1 1,-1 2,0 1,-1 7,0 0,-1 1,-1 1,0 0,-2 1,-1 2,0 0,-3 1,-1 1,-1 2,0 1,1 0,1 1,0 1,-1 1,0 -1,-1 0,-3 1,-1 1,-1 2,0 0,-1 3,-3 1,-1 1,-1 1,0 0,-1 2,-2 1,-1 2,-2 1,0 0,-2 1,-1 1,-1 1,-1 2,0 1,1 4,0 0,-1 -1,-1 0,-3 1,-1 2,0 0,-4 1,-1 2,0 0,-2 -1,0 -1,-1 0,-2 1,-1 0,-4 -1,-1 0,-2 1,-1 -1,0 -1,-1 0,-1 -2,0 -1,1 -1,0 -1,1 -1,1 0,2 -1,1 -1,1 -4,0 -1,1 0,1 -1,1 -2,0 -1,1 -2,0 -1,1 -1,0 -1,1 -2,2 -1,0 -1,1 -2,0 -1,-1 -1,1 0,0 -1,1 0,2 -1,1 -1,1 -1,1 -2,0 -1,-1 -1,1 0,0 -1,1 0,2 -1,1 -1,1 -1,0 -1,1 -1,1 -1,1 -2,0 -1,-1 -1,1 -1,1 -2,0 0,1 -1,1 -1,1 0,2 -1,1 -1,1 -2,0 -1,-1 -1,1 0,0 -1,1 0,2 -1,1 -1,1 -2,0 -1,-1 -1,1 -1,1 -2,0 0,1 -1,1 -1,1 0,2 -1,1 -1,1 -2,0 -1,-1 -1,1 -1,1 -2,0 0,1 -1,1 -1,1 0,2 -1,1 -1,1 -2,0 -1,-1 -1,1 0,0 -1,1 -2,0 0,1 -1,1 -1,1 -1,0 -1,1 -1,1 -1,1 -1,0 -1,1 -1,1 0,2 -1,1 -1,1 -1,0 -1,1 -1,1 -1,1 -1,1 -1,0 -1,1 0,1 1,0 1,-1 1,0 1,-1 1,0 1,-1 2,0 1,-1 1,0 1,-1 1,0 1,-1Z"/>
<path onmouseover="hoverPath(evt)" onmouseout="recoverPath(evt)" fill="rgb(245,243,235)" d="M  226,13l 0,0 -1,-1 0,-4 1,-1 -1,0 -1,-1 -1,0 -1,-1 0,-1 -1,-1 -1,-1 0,-2 -2,0 0,3 -1,1 -1,0 0,3 1,1 0,3 1,1 0,2 1,1 0,2 1,1 0,2 1,1 0,2 1,1 0,1 1,-1 3,0 1,1 0,1 3,0 1,-1 -1,-1 0,-2 -1,-1 0,-1 -1,-1 0,-4 1,-1 1,0 1,-1Z"/>
<path onmouseover="hoverPath(evt)" onmouseout="recoverPath(evt)" fill="rgb(247,246,240)" d="M  234,31l 0,-4 1,-1 -2,0 -1,1 0,0 -1,1 -3,0 1,1 0,1 1,1 0,2 -1,1 -2,0 -1,-1 1,2 0,0 1,1 0,1 1,1 1,1 2,0 1,-1 1,0 1,-1 1,0 1,-1 1,-1 1,0 1,-1 1,-1 2,0 0,-1 1,-1 1,0 1,-1 2,-2 1,0 1,-1 1,-1 1,0 1,-1 2,0 0,-2 -2,0 -1,1 0,0 -1,1 -1,1 -2,0 -1,-1 -1,-1 -1,-1 0,-2 2,-2 1,0 1,-1 -4,2 -3,0 0,1 -1,1 0,2 1,1 1,1 0,2 -1,1 0,2 -1,1 -1,1 -2,0 -1,-1 -2,0 -1,-1Z"/>
<path onmouseover="hoverPath(evt)" onmouseout="recoverPath(evt)" fill="rgb(240,237,226)" d="M  247,11l 2,0 1,1 1,1 1,1 0,2 -1,1 0,2 -1,1 -1,1 -1,0 -1,1 1,1 0,0 1,1 1,-1 0,0 1,-1 1,-1 3,0 0,-21 -33,0 0,1 1,1 0,0 1,1 0,1 1,0 1,1 1,0 1,1 0,2 -1,1 0,2 5,0 1,1 0,2 -1,1 -1,1 -1,0 0,2 1,1 0,1 1,1 0,2 1,1 3,0 1,1 0,2 -1,1 0,2 2,0 1,1 1,-1 0,-2 1,-1 -1,-1 0,0 -1,-1 0,-4 1,-1 0,-1 1,-1 4,0 1,-1 1,0 1,-1 -1,-1 0,0 -1,-1 0,-2 1,-1Z"/>
<path onmouseover="hoverPath(evt)" onmouseout="recoverPath(evt)" fill="rgb(239,238,228)" d="M  249,71l 0,2 -1,1 1,1 0,1 1,1 0,1 1,1 0,1 1,1 0,1 1,1 0,1 2,0 0,-57 -1,0 -1,1 -1,0 -1,1 -1,1 -1,0 -1,1 -1,1 -1,1 -1,0 0,1 -1,1 -2,0 -1,1 -1,1 -1,0 -1,1 -1,1 -1,0 -1,1 -1,0 -1,1 -1,0 1,1 0,1 1,1 1,1 0,5 2,0 1,1 1,1 0,1 1,1 0,1 1,1 0,1 1,1 0,1 1,1 0,1 1,1 1,1 0,1 1,1 0,1 1,1 0,1 1,1 0,1 1,1Z"/>
</svg>