<svg width="256" height="256" xmlns="http://www.w3.org/2000/svg"><script> 
var tempColor;
function hoverPath(evt){
obj = evt.target;
tempColor = obj.getAttribute("fill");
obj.setAttribute("fill","red");
//alert(tempColor);
//obj.setAttribute("stroke","red");}
function recoverPath(evt){
obj = evt.target;
obj.setAttribute("fill", tempColor);
//obj.setAttribute("stroke", tempColor);
}</script><path onmouseover="hoverPath(evt)" onmouseout="recoverPath(evt)" fill="rgb(243,241,232)" d="M  75,242l 0,0 1,1 1,0 1,1 2,0 1,1 1,-1 2,0 1,1 0,2 1,0 1,1 2,0 1,1 1,0 1,1 1,0 1,1 2,0 1,1 1,0 1,1 0,2 18,0 0,-2 1,-1 1,-1 -1,-1 0,-2 1,-1 2,0 1,-1 -1,-1 0,-2 1,-1 2,0 1,-1 -1,-1 0,-2 1,-1 2,0 1,-1 -1,-1 0,-2 1,-1 2,0 1,-1 0,-1 1,-1 0,-1 1,-1 0,-1 1,-1 1,-1 0,-1 1,-1 1,-1 -1,-1 0,-2 1,-1 2,0 1,-1 0,-1 1,-1 0,-1 1,-1 0,-1 1,-1 1,-1 0,-1 1,-1 1,-1 -1,-1 0,-2 1,-1 2,0 1,-1 0,-2 -1,0 -1,-1 -2,0 -1,-1 -1,1 -2,0 -1,-1 0,-2 -1,0 -1,-1 -1,0 -1,-1 -1,0 -1,-1 -1,0 -1,1 -2,0 -1,-1 0,-2 -1,0 -1,-1 -3,0 -1,1 0,0 -1,1 0,1 -1,1 -2,0 -1,-1 0,-2 1,-1 0,-3 -1,-1 -1,0 -1,-1 -2,0 -1,-1 -1,1 -2,0 -1,-1 0,-2 -1,0 -1,-1 -1,0 -1,-1 -1,0 -1,1 -2,0 -1,-1 0,-2 -1,0 -1,-1 -1,0 -1,-1 -2,0 -1,-1 -2,0 0,1 -1,1 -1,1 0,1 -1,1 0,1 -1,1 -1,1 0,1 -1,1 0,1 -1,1 -1,1 0,1 -1,1 0,1 -1,1 -1,1 0,1 -1,1 0,1 -1,1 -1,1 0,1 -1,1 0,1 -1,1 -1,1 0,1 -1,1 -1,1 0,1 -1,1 -1,1 1,1 0,2 -1,1 -2,0 -1,1 0,1 -1,1 0,1 1,1 1,0 1,1 1,0 1,1 0,2 1,-1 2,0 1,1 0,2 -1,1 -2,0 -1,-1 0,-1 -3,0 -1,-1 -1,0 -1,-1 -2,0 -1,1 0,1 -1,1 0,1 -1,1 -1,1 0,1 -1,1 0,1 -1,1 0,1 -2,2 1,1 1,0 1,1 1,0 1,1 1,0 1,1 1,0 1,1 2,0 1,1 1,0 1,1 1,0 1,1 2,0 1,1 1,0 41,-44 1,1 0,2 -1,1 -1,1 -1,1 -1,1 -2,0 -1,1 -2,0 -1,-1 0,-2 1,-1 1,-1 2,0 1,-1 1,-1 1,-1 2,0 -41,44 25,2 -1,-1 -1,0 -1,-1 -1,0 -1,-1 -1,0 -1,-1 0,-2 1,-1 2,0 1,1 1,0 1,1 1,0 1,1 1,0 1,1 0,2 -1,1 -2,0 -25,-2 24,-14 -1,-1 0,-2 1,-1 2,0 1,1 0,2 -1,1 -2,0 -24,14Z"/>
<path onmouseover="hoverPath(evt)" onmouseout="recoverPath(evt)" fill="rgb(241,239,230)" d="M  141,96l 0,1 -1,1 -2,0 -1,1 1,1 0,2 -1,1 -1,1 -1,1 -2,0 -1,1 0,1 -1,1 1,1 11,0 1,1 13,0 1,1 12,0 1,1 13,0 1,1 12,0 1,1 14,0 1,1 11,0 0,-1 -1,-1 -6,0 -1,-1 0,-2 1,-1 11,0 1,1 12,0 1,1 2,0 1,1 1,1 0,4 1,0 1,1 7,0 0,-19 -3,0 -1,1 -2,0 -1,-1 -5,0 -1,-1 -1,0 -1,1 -2,0 -1,-1 0,-1 -1,0 -1,-1 -2,0 -1,1 -2,0 -1,1 -2,0 -1,-1 -6,0 -1,-1 -4,0 -1,-1 -1,0 -1,-1 -2,0 -1,1 -2,0 -1,1 -2,0 -1,-1 -6,0 -1,-1 -4,0 -1,-1 -1,1 -4,0 -1,-1 -1,0 -1,1 -2,0 -1,-1 0,-1 -1,0 -1,-1 -2,0 -1,1 -4,0 -1,-1 -1,1 -5,0 -1,-1 -1,0 -1,1 -2,0 -1,-1 -6,0 -1,-1 -4,0 -1,-1 -2,0 -1,-1 -1,0 3,2 0,3 -1,1 -4,0 1,1 0,1 41,2 1,1 0,2 -1,1 -2,0 -1,-1 0,-2 1,-1 2,0 -41,-2Z"/>
<path onmouseover="hoverPath(evt)" onmouseout="recoverPath(evt)" fill="rgb(242,240,230)" d="M  229,41l 2,0 1,1 1,1 0,1 1,0 1,1 2,0 1,1 2,0 1,1 2,0 1,-1 2,0 1,1 0,1 1,1 2,0 1,-1 2,0 1,1 1,0 0,-49 -17,0 0,1 1,1 1,0 1,1 0,2 -1,1 -3,0 -1,1 0,2 -1,1 0,2 -1,1 0,2 -1,1 0,3 -1,1 0,2 -1,1 1,1 3,0 3,3 0,3 -1,1 0,1 -1,1 -6,0 0,2 -1,1 -2,0 0,2 -1,1 0,2 1,1 0,1 1,0 0,-1 1,-1Z"/>
<path onmouseover="hoverPath(evt)" onmouseout="recoverPath(evt)" fill="rgb(243,242,233)" d="M  0,1l 0,17 4,0 1,1 2,0 1,1 3,0 1,1 3,0 1,1 2,0 1,1 3,0 1,1 3,0 1,1 2,0 1,-1 4,0 1,1 2,0 1,1 0,2 3,0 1,1 2,0 1,-1 4,0 1,1 0,2 2,0 1,1 2,0 1,1 3,0 1,-1 3,0 1,1 3,0 1,-1 1,0 1,-1 0,-2 1,-1 0,-2 1,-1 0,-1 1,-1 0,-2 1,-1 0,-2 -1,0 -1,-1 -1,0 -1,-1 -3,0 -1,-1 -3,0 -1,-1 -3,0 -1,-1 -2,0 -1,-1 -3,0 -1,-1 -3,0 -1,-1 -2,0 -1,-1 -3,0 -1,-1 -3,0 -1,-1 -3,0 -1,-1 -2,0 -1,-1 -3,0 -1,-1 -3,0 -1,-1 -1,0 -1,1 -6,0 -1,-1 0,-3 -11,0 -1,1Z"/>
<path onmouseover="hoverPath(evt)" onmouseout="recoverPath(evt)" fill="rgb(184,149,237)" d="M  0,65l 0,10 2,0 1,1 6,0 1,1 1,-1 3,0 1,1 2,0 1,-1 1,0 1,-1 4,0 1,1 0,1 1,1 0,3 1,1 1,0 1,1 1,1 1,1 1,0 1,1 1,0 1,1 1,1 1,0 1,1 2,0 1,1 1,0 1,1 1,0 1,1 1,0 1,1 1,-1 0,-2 1,-1 1,-1 0,-1 -1,-1 0,-2 1,-1 0,-2 1,-1 1,-1 3,0 1,1 1,1 15,0 1,1 6,0 1,1 1,-1 2,0 1,1 3,0 1,-1 2,0 1,1 3,0 1,-1 4,0 1,1 1,0 1,1 3,0 1,-1 4,0 1,1 1,0 1,1 4,0 1,1 6,0 1,1 1,-1 3,0 1,1 3,0 1,-1 2,0 1,1 3,0 1,-1 3,0 1,1 2,0 1,1 4,0 1,1 3,0 1,-1 2,0 1,1 4,0 1,1 3,0 1,-1 2,0 1,1 2,0 1,-1 4,0 1,1 1,0 1,1 4,0 1,1 2,0 1,-1 2,0 1,1 4,0 1,1 3,0 1,-1 2,0 1,1 3,0 1,-1 4,0 1,1 1,0 1,1 4,0 1,1 3,0 1,-1 2,0 1,1 3,0 1,-1 4,0 1,1 1,0 1,1 0,1 1,-1 3,0 1,1 2,0 1,-1 2,0 1,1 5,0 0,-12 -6,0 -1,-1 -5,0 -1,-1 -1,0 -1,1 0,0 -1,1 -5,0 -1,-1 0,-1 -3,0 -1,-1 -1,1 0,0 -1,1 -5,0 -1,-1 0,-1 -4,0 -1,1 -6,0 -1,-1 0,-1 -4,0 -1,-1 -10,0 -1,1 -5,0 -1,-1 0,-1 -5,0 -1,-1 -12,0 -1,-1 -3,0 -1,1 -2,0 -1,-1 -4,0 -1,-1 -8,0 -1,-1 -5,0 -1,1 -2,0 -1,-1 -4,0 -1,-1 -3,0 -1,1 -3,0 -1,-1 -3,0 -1,1 -4,0 -1,-1 0,-1 -6,0 -1,-1 -3,0 -1,1 -2,0 -1,-1 -4,0 -1,-1 -3,0 -1,1 -2,0 -1,-1 -1,-1 -2,0 0,1 -1,1 -4,0 -1,-1 -1,-1 -3,0 -1,-1 0,-1 -1,0 -1,1 -3,0 -1,1 -2,0 -1,-1 -1,-1 -1,1 -1,0 -1,1 -7,0 -1,-1 0,-2 -1,1 -2,0 -1,-1 -3,0 -1,1 -2,0 -1,-1 -3,0 -1,1 -4,0 -1,-1 0,-1 -6,0 -1,-1 -3,0 -1,1 -2,0 -1,-1 -3,0 -1,-1 -1,0 -1,-1 -1,0 -1,-1 0,-1 -1,-1 -1,-1 -1,-1 -1,-1 -1,-1 -1,-1 -1,-1 -1,-1 -1,-1 -1,-1 -3,0Z"/>
<path onmouseover="hoverPath(evt)" onmouseout="recoverPath(evt)" fill="rgb(241,239,230)" d="M  4,49l 0,0 1,1 1,1 1,1 1,1 1,1 1,1 1,1 1,1 1,1 1,1 1,1 0,1 1,0 1,1 1,0 1,1 1,-1 2,0 1,1 6,0 1,1 6,0 1,1 0,1 2,0 1,-1 2,0 1,-1 2,0 1,1 6,0 1,1 1,-1 3,0 0,-1 1,-1 0,-1 -1,0 -1,-1 -3,0 -1,-1 -4,0 -1,-1 -3,0 -1,-1 -3,0 -1,-1 -2,0 -1,-1 -3,0 -1,-1 -2,0 -1,-1 -3,0 -1,-1 -2,0 -1,-1 -3,0 -1,-1 -2,0 -1,-1 -2,0 -1,-1 -2,0 -1,-1 -2,0 -1,-1 -2,0 -1,1 1,1Z"/>
<path onmouseover="hoverPath(evt)" onmouseout="recoverPath(evt)" fill="rgb(244,243,235)" d="M  7,104l -1,0 0,1 -1,1 -2,0 -1,-1 0,-2 -2,0 0,62 2,0 1,-1 2,0 1,-1 1,-1 0,-1 1,-1 0,-1 2,-2 0,-1 1,-1 0,-1 1,-1 0,-1 1,-1 1,-1 0,-1 1,-1 0,-1 1,-1 1,-1 0,-1 1,-1 0,-1 1,-1 1,-1 0,-1 1,-1 0,-1 1,-1 0,-1 1,-1 1,-1 0,-1 1,-1 0,-1 1,-1 0,-1 1,-1 0,-1 1,-1 0,-1 1,-1 1,-1 0,-1 1,-1 0,-1 1,-1 0,-1 1,-1 0,-1 1,-1 1,-1 0,-1 1,-1 0,-1 1,-1 0,-1 -1,0 -1,-1 0,-2 -14,0 -1,-1 -7,0 -1,-1 -4,0 -1,1Z"/>
<path onmouseover="hoverPath(evt)" onmouseout="recoverPath(evt)" fill="rgb(247,205,128)" d="M  36,0l -22,0 0,2 4,0 1,-1 3,0 1,1 3,0 1,1 3,0 1,1 2,0 1,1 3,0 1,1 3,0 1,1 3,0 1,1 2,0 1,1 3,0 1,1 3,0 1,1 2,0 1,1 3,0 1,1 3,0 1,1 3,0 1,1 1,0 1,1 2,0 0,-3 1,-1 2,0 1,1 3,0 1,1 0,1 1,0 1,1 0,3 3,0 1,1 2,0 1,1 3,0 1,1 3,0 1,1 0,3 1,-2 1,0 1,-1 3,0 1,1 1,0 1,1 1,0 1,1 2,0 1,1 3,0 1,1 2,0 1,1 1,0 1,1 1,1 0,2 -1,1 0,2 -1,1 0,2 -2,2 0,1 1,0 1,1 0,-1 1,-1 0,-2 1,-1 0,-2 1,-1 0,-2 1,-1 1,-1 3,0 1,1 2,0 1,1 3,0 1,1 2,0 1,1 3,0 1,1 2,0 1,1 3,0 1,1 2,0 1,1 3,0 1,1 2,0 1,-1 2,0 0,-2 1,-1 3,0 1,1 1,1 0,1 1,0 1,1 0,1 1,-1 0,-1 1,-1 3,0 1,1 2,0 1,1 1,0 1,1 0,1 1,1 0,-1 1,-1 3,0 1,1 3,0 1,1 2,0 1,1 1,0 1,1 3,0 1,1 0,1 1,1 0,-1 1,-1 3,0 1,1 3,0 1,1 2,0 1,1 1,1 0,2 1,1 0,4 1,-2 0,-1 1,-1 1,0 0,-1 1,-1 5,0 1,1 1,0 1,1 0,1 1,-1 2,0 1,1 1,0 1,1 0,1 1,1 3,0 1,1 0,-1 1,-1 3,0 1,1 1,1 0,1 1,1 0,-1 1,-1 3,0 1,1 2,0 0,-8 -2,0 -1,-1 -1,1 -4,0 -1,-1 -1,-1 -5,0 -1,-1 -2,0 -1,-1 -2,0 -1,-1 -1,0 -1,-1 0,-1 -1,-1 0,1 -1,1 -3,0 -1,-1 0,-1 -1,-1 -1,0 -1,1 -4,0 -1,-1 0,-6 -2,0 -1,1 -1,0 0,1 -1,1 -1,0 -1,1 -3,0 -1,-1 -1,0 -1,-1 0,-1 -1,1 -4,0 -1,-1 -3,0 -1,-1 -2,0 -1,-1 -1,0 -1,-1 -5,0 -1,-1 -3,0 -1,-1 -2,0 -1,-1 -1,-1 0,-1 -1,1 -3,0 -1,-1 0,-1 -1,-1 -1,-1 0,2 -1,1 -2,0 -1,-1 -3,0 -1,-1 -2,0 -1,-1 -1,-1 0,-1 -1,0 -1,-1 -1,-1 0,-1 -1,1 -2,0 -1,-1 0,-1 -1,-1 -1,0 0,1 -1,1 -2,0 -1,-1 0,1 -1,1 -3,0 -1,-1 -3,0 -1,-1 -2,0 -1,-1 -3,0 -1,-1 -2,0 -1,-1 -1,-1 0,-1 -1,-1 0,-3 -1,1 0,0 -1,1 -3,0 -1,-1 -3,0 -1,-1 -2,0 -1,-1 -3,0 -1,-1 -3,0 -1,-1 -2,0 -1,-1 -3,0 -1,-1 -3,0 -1,-1 -1,0 -1,-1 0,-4 -52,0 84,41 0,0 -84,-41Z"/>
<path onmouseover="hoverPath(evt)" onmouseout="recoverPath(evt)" fill="rgb(242,240,230)" d="M  51,241l -1,1 -1,1 0,1 -1,1 -1,1 0,1 -1,1 0,1 -2,2 0,1 -1,1 0,2 46,0 0,-1 -2,0 -1,-1 -1,0 -1,-1 -1,0 -1,-1 -2,0 -1,-1 -1,0 -1,-1 -1,0 -1,-1 -2,0 -1,-1 -1,0 -1,-1 -1,0 -1,-1 -2,0 -1,-1 -1,0 -1,-1 -1,0 -1,-1 -1,0 -1,-1 -2,0 -1,-1 -1,0 -1,-1 -2,0 -1,1Z"/>
<path onmouseover="hoverPath(evt)" onmouseout="recoverPath(evt)" fill="rgb(243,241,233)" d="M  54,113l -4,4 -2,0 0,1 -1,1 -1,1 -1,1 0,1 -1,1 0,1 -1,1 0,1 -1,1 0,1 -1,1 -1,1 -1,1 -3,0 0,3 -1,1 -1,0 0,1 -1,1 -1,1 0,1 -1,1 -1,0 2,1 1,0 1,1 2,0 1,1 1,0 1,1 1,0 1,1 1,0 1,1 1,-1 1,0 0,-1 1,-1 2,0 1,1 0,4 1,1 1,0 1,1 1,0 1,-1 2,0 1,1 0,2 1,0 1,1 1,0 1,-1 2,0 1,1 1,0 1,1 1,0 1,1 0,2 1,0 1,1 1,0 1,1 2,0 1,1 1,-1 2,0 1,1 0,2 1,0 1,1 1,0 0,-1 1,-1 1,-1 2,0 1,1 0,2 -1,1 0,1 1,0 1,1 1,0 0,-1 1,-1 1,0 0,-1 1,-1 0,-1 1,-1 1,-1 0,-1 1,-1 1,-1 0,-1 1,-1 0,-1 1,-1 1,-1 0,-5 1,-1 2,0 0,-1 1,-1 1,0 1,-1 0,-1 1,-1 0,-1 2,-2 0,-1 1,-1 0,-1 1,-1 0,-1 1,-1 0,-1 1,-1 -1,-1 0,0 -1,-1 -1,0 -1,-1 0,2 -2,2 0,1 -1,1 -2,0 -1,-1 0,-2 1,-1 0,-2 -1,-1 0,0 -1,-1 -1,0 -1,-1 -1,0 -1,-1 -1,-1 -1,-1 -2,0 -1,-1 -1,0 -1,-1 -1,0 -1,-1 -2,0 -1,-1 -1,0 -1,-1 -2,0 -1,-1 -1,0 -1,-1 -3,0 -1,-1 -5,0 -1,-1 -14,0 0,2 48,20 1,1 0,2 -1,1 0,1 -1,1 -1,1 0,1 -1,1 -2,0 -1,-1 0,-2 1,-1 0,-1 1,-1 1,-1 0,-1 1,-1 2,0 -48,-20 40,41 0,1 -1,1 -2,0 -1,1 -2,0 -1,-1 0,-2 1,-1 0,-1 1,-1 2,0 1,1 1,0 1,1 0,1 -40,-41Z"/>
<path onmouseover="hoverPath(evt)" onmouseout="recoverPath(evt)" fill="rgb(242,241,231)" d="M  125,121l 0,1 -1,1 -2,0 -1,1 0,1 -1,1 0,1 2,0 3,3 1,0 1,1 1,1 1,1 1,0 1,1 1,1 1,0 1,1 1,1 1,1 1,0 1,1 1,1 0,1 2,0 1,1 1,1 0,1 1,0 2,2 1,1 1,1 1,0 1,1 0,1 1,0 1,1 1,1 1,1 0,1 1,0 1,1 1,1 1,1 1,0 1,1 1,1 1,1 1,1 1,0 1,1 1,1 1,1 1,1 1,0 1,1 1,1 1,1 1,1 1,1 1,1 1,1 0,2 1,-1 0,-2 1,-1 2,0 0,-1 1,-1 2,0 1,1 1,-1 0,-2 1,-1 2,0 1,1 1,-1 0,-2 1,-1 1,-1 2,0 1,1 1,-1 0,0 1,-1 1,0 1,-1 0,-2 -1,-1 0,0 -1,-1 -1,-1 0,-1 -1,-1 -1,-1 0,-1 -1,-1 -1,-1 0,-1 -1,-1 0,-2 -1,-1 0,-3 -1,-1 0,-4 -1,-1 0,-1 -1,0 -1,-1 -8,0 -1,-1 0,-2 1,-1 10,0 0,-2 1,-1 0,-7 -7,0 -1,-1 -13,0 -1,-1 -12,0 -1,-1 -12,0 -1,-1 -12,0 0,2 -1,1 -1,1 -2,0 -1,1 1,1Z"/>
<path onmouseover="hoverPath(evt)" onmouseout="recoverPath(evt)" fill="rgb(243,240,231)" d="M  131,0l -41,0 0,3 1,0 1,1 3,0 1,1 3,0 1,1 2,0 1,1 3,0 1,1 3,0 1,1 2,0 1,1 3,0 1,1 1,0 1,-1 0,0 1,-1 2,0 1,1 0,3 1,1 0,1 1,1 2,0 1,1 3,0 1,1 2,0 1,1 3,0 1,1 1,0 0,-1 1,-1 2,0 1,1 0,-1 1,-1 3,0 1,1 1,1 3,0 1,1 0,1 1,1 1,0 1,1 0,1 1,1 2,0 1,1 3,0 1,1 0,-2 1,-1 2,0 1,1 1,1 0,-1 1,-1 2,0 0,-1 1,-1 0,-2 1,-1 2,0 -1,-1 0,-4 2,-2 0,-4 -1,0 -1,1 -3,0 -1,-1 -1,0 -1,-1 0,-1 -1,-1 -1,-1 -1,0 -1,-1 -2,0 -1,-1 0,-2Z"/>
<path onmouseover="hoverPath(evt)" onmouseout="recoverPath(evt)" fill="rgb(242,240,230)" d="M  174,0l -8,0 0,1 2,0 1,1 1,0 1,1 2,2 0,1 1,0 1,1 1,0 1,-1 3,0 1,1 0,6 -1,1 -1,1 0,2 1,1 0,2 -1,1 -2,0 0,2 -1,1 0,1 -1,1 -2,0 0,1 -1,1 1,0 1,-1 2,0 1,1 0,1 1,1 2,0 1,1 3,0 1,1 2,0 1,-1 2,0 1,1 0,1 1,0 1,1 2,0 1,1 3,0 1,1 2,0 1,-1 2,0 1,1 0,1 1,0 1,1 1,0 1,-1 1,0 0,-1 1,-1 1,0 1,-1 4,0 1,1 2,0 1,-1 0,-1 1,-1 0,-4 -1,-1 0,-2 1,-1 2,0 1,-1 0,-2 1,-1 0,-3 1,-1 0,-2 1,-1 0,-3 1,-1 -1,-1 -3,0 -1,-1 -2,0 -1,-1 -2,0 -1,-1 0,-2 1,-1 3,0 0,-2Z"/>
<path onmouseover="hoverPath(evt)" onmouseout="recoverPath(evt)" fill="rgb(240,239,230)" d="M  195,121l -1,1 0,7 -1,1 1,1 0,6 1,1 0,2 1,1 0,2 2,0 1,1 0,2 -1,1 1,1 2,0 1,1 0,4 1,1 1,1 1,1 1,1 1,1 1,1 1,1 0,1 1,1 1,1 1,1 1,1 1,1 1,1 1,0 1,1 0,1 1,1 1,1 0,1 1,1 1,1 1,1 1,1 1,0 1,1 0,1 1,1 1,1 1,1 1,1 1,1 0,-4 1,-1 2,0 0,-5 1,-1 2,0 1,-1 1,0 1,-1 1,0 0,-1 -2,1 -1,0 -1,1 -6,0 -1,-1 0,-2 -1,-1 0,-3 1,-1 -1,-1 0,-2 -1,0 -1,-1 -1,-1 -1,-1 -1,-1 0,-2 -1,0 -1,-1 -1,-1 -1,-1 -1,-1 -1,-1 0,-1 -1,-1 -1,-1 0,-4 1,-1 14,0 1,1 10,0 0,-2 1,-1 0,-7 -1,-1 -4,0 -1,-1 -5,0 -1,-1 -9,0 -1,1 -1,0 0,2 -1,1 -2,0 -1,-1 0,-12 -6,0 -1,-1 -13,0Z"/>
<path onmouseover="hoverPath(evt)" onmouseout="recoverPath(evt)" fill="rgb(243,241,233)" d="M  218,146l 0,0 1,1 0,1 1,1 1,1 1,1 1,1 1,0 1,1 0,2 1,1 1,1 1,1 1,0 1,1 0,2 1,1 0,2 -1,1 0,1 1,1 0,2 4,0 1,-1 2,0 1,-1 2,0 1,1 0,3 -1,1 -1,0 -1,1 -1,0 -1,1 -2,0 0,3 1,1 0,2 -1,1 -2,0 -1,-1 0,4 1,0 1,1 1,1 1,1 1,1 1,1 1,1 2,2 1,0 0,-2 1,-1 0,-1 1,-1 0,-1 1,-1 0,-2 1,-1 0,-2 1,-1 0,-2 1,-1 0,-2 1,-1 0,-2 1,-1 0,-1 1,-1 0,-2 1,-1 -2,1 -1,0 -1,-1 0,-2 1,-1 1,-1 1,0 1,-1 1,-1 2,0 0,-36 -13,0 0,4 3,0 1,1 0,12 -1,1 0,1 -1,1 -1,0 -1,1 -12,0 -1,-1 -12,0 0,2 1,1Z"/>
<path onmouseover="hoverPath(evt)" onmouseout="recoverPath(evt)" fill="rgb(241,240,229)" d="M  0,218l 0,15 5,0 1,1 5,0 1,1 3,0 1,1 4,0 1,1 3,0 1,1 1,0 1,1 2,0 1,1 3,0 1,1 1,1 1,0 1,1 1,0 1,1 0,1 1,1 0,2 1,-2 0,0 1,-1 -1,-1 0,-2 1,-1 2,0 1,-1 0,-1 1,-1 0,-1 1,-1 -1,0 -1,-1 -1,0 -1,-1 -1,0 -1,-1 -1,0 -1,-1 -1,0 -1,1 -2,0 -1,-1 0,-2 -1,0 -1,-1 -1,0 -1,-1 -1,0 -1,1 -2,0 -1,-1 0,-2 -1,0 -1,-1 -1,0 -1,-1 -1,0 -1,1 -2,0 -1,-1 0,-2 -1,0 -1,-1 -1,0 -1,-1 -2,0 -1,-1 -1,0 -1,-1 -1,0 -1,-1 -1,0 -1,-1 -1,0 -1,-1 -1,0Z"/>
<path onmouseover="hoverPath(evt)" onmouseout="recoverPath(evt)" fill="rgb(242,240,231)" d="M  102,42l 0,2 -1,1 0,2 -1,1 0,2 -1,1 0,2 -1,1 0,1 -1,1 0,1 1,1 0,2 -1,1 0,1 -1,1 0,1 -1,1 0,1 -1,1 0,2 4,0 1,1 4,0 1,1 1,-1 5,0 1,1 6,0 1,1 0,1 2,0 1,-1 2,0 1,-1 2,0 1,1 0,1 1,0 1,-1 5,0 1,1 4,0 1,1 1,-1 4,0 0,-1 1,-1 2,0 0,-1 1,-1 -1,-1 -12,0 -1,-1 0,-2 1,-1 16,0 0,-1 2,-2 -1,-1 0,-2 1,-1 -1,0 -1,-1 0,-2 1,-1 5,0 0,-1 1,-1 1,0 0,-1 1,-1 1,-1 -1,-1 0,-2 1,-1 2,0 0,-1 -1,0 -1,-1 -3,0 -1,-1 -3,0 -1,-1 -2,0 -1,-1 -3,0 -1,-1 -2,0 -1,-1 -3,0 -1,-1 -2,0 -1,-1 -3,0 -1,-1 -2,0 -1,-1 -1,0 -1,1 0,2 -1,1 0,2 -1,1 0,2 -1,1 0,5 -1,1 -2,0 -1,-1 0,-4 -1,0 -1,-1 -1,0 -1,-1 0,-2 1,-1 2,0 1,-1 0,-2 1,-1 0,-2 1,-1 -1,-1 -1,0 -1,-1 -2,0 -1,-1 -3,0 -1,-1 -2,0 -1,-1 -1,0 -1,-1 -1,0 -1,-1 -1,0 -1,1 -1,0 0,1 -1,1 -2,0 0,3 -1,1 0,3 -1,1 1,1 0,0 1,1 1,0 1,1 0,3 26,12 2,0 1,1 0,2 -1,1 -2,0 -1,-1 0,-2 1,-1 -26,-12Z"/>
<path onmouseover="hoverPath(evt)" onmouseout="recoverPath(evt)" fill="rgb(244,242,234)" d="M  189,234l 0,0 -1,-1 -2,0 -1,-1 -3,0 -1,-1 -9,0 -1,-1 0,-2 -5,0 -1,1 -1,0 0,1 -1,1 0,2 -1,1 0,2 -1,1 0,1 -1,1 -1,1 -3,0 1,1 1,0 1,1 0,6 1,-6 5,0 1,1 2,0 1,1 2,0 1,1 2,0 1,1 1,0 1,1 3,0 0,-1 1,-1 5,0 1,1 0,2 -1,1 -1,0 1,1 1,0 1,1 2,0 1,1 2,0 1,1 0,2 11,0 0,-3 1,-1 1,-1 1,-1 -1,-1 0,-2 2,-2 2,0 0,-3 -1,0 -1,-1 -1,-1 -2,0 -1,-1 -1,0 -1,1 -2,0 -1,-1 0,-2 -1,0 -1,-1 -1,0 -1,1 -2,0 -1,-1 0,-2 -1,0 -1,1Z"/>
<path onmouseover="hoverPath(evt)" onmouseout="recoverPath(evt)" fill="rgb(253,253,253)" d="M  1,43l -1,0 0,4 1,0 1,-1 0,0 1,-1 4,0 1,1 2,0 1,1 2,0 1,1 2,0 1,1 2,0 1,1 3,0 1,1 2,0 1,1 3,0 1,1 2,0 1,1 3,0 1,1 2,0 1,1 3,0 1,1 3,0 1,1 4,0 1,1 3,0 1,1 2,0 0,-1 -1,0 -1,-1 -4,0 -1,-1 -3,0 -1,-1 -4,0 -1,-1 -3,0 -1,-1 -2,0 -1,-1 -2,0 -1,-1 -3,0 -1,-1 -2,0 -1,-1 -2,0 -1,-1 -4,0 -1,-1 -2,0 -1,-1 -2,0 -1,-1 -2,0 -1,-1 -2,0 -1,-1 -2,0 -1,-1Z"/>
<path onmouseover="hoverPath(evt)" onmouseout="recoverPath(evt)" fill="rgb(243,242,233)" d="M  27,147l 0,1 -1,1 -1,1 0,1 -1,1 -1,1 0,1 -1,1 0,1 -1,1 0,1 -1,1 -1,1 0,1 -1,1 0,1 -1,1 -1,1 0,1 -1,1 0,1 -1,1 0,1 -1,1 0,1 -1,1 -1,1 0,1 -1,1 -1,1 0,1 -1,1 0,1 -2,2 0,1 -1,1 -1,1 0,1 -1,1 0,1 -1,1 -2,0 0,21 2,0 1,-1 2,0 1,1 0,2 1,0 1,1 2,0 1,1 1,-1 2,0 1,1 0,2 1,0 1,1 2,0 1,1 1,-1 2,0 1,1 0,2 1,0 1,1 2,0 1,1 1,-1 2,0 1,1 0,2 1,0 1,1 2,0 1,1 1,-1 2,0 1,1 0,2 1,0 1,1 2,0 1,1 1,0 1,1 1,0 1,-1 0,0 -1,-1 0,-2 1,-1 2,0 1,-1 -1,-1 0,-2 1,-1 2,0 1,-1 0,-1 1,-1 -1,-1 0,-2 1,-1 2,0 1,-1 0,-1 1,-1 1,-1 -1,-1 0,-2 1,-1 2,0 1,-1 0,-1 1,-1 0,-2 -1,-1 0,0 -1,-1 -1,0 -1,-1 -2,0 -1,-1 -1,0 -1,-1 -1,0 -1,-1 -2,0 -1,-1 -1,0 -1,-1 -1,0 -1,-1 -1,0 -1,-1 -3,0 -1,1 -2,0 -1,-1 0,-3 1,-1 0,-1 1,-1 1,-1 1,-1 1,0 1,-1 2,-2 1,-1 1,-1 0,-6 1,-1 0,-2 1,-1 -1,-1 0,-2 1,-1 1,-1 2,-2 1,-1 0,-2 -1,-1 -1,0 -1,-1 -1,0 -1,-1 -1,0 -1,-1 -2,0 -1,-1 -1,1 -2,0 -1,-1 0,-2 -1,0 -1,-1 -1,0 -1,-1 -1,0 -1,1 -2,0 -1,-1 0,-2 -1,0 -1,-1 -1,0 -1,-1 -1,0 0,1 -1,1Z"/>
<path onmouseover="hoverPath(evt)" onmouseout="recoverPath(evt)" fill="rgb(240,234,167)" d="M  55,82l -1,-1 -1,0 -1,1 0,2 -1,1 1,1 0,3 -1,1 -1,1 0,2 -1,1 -1,1 -1,0 0,1 -1,1 0,1 -1,1 -1,1 -1,1 -4,0 -1,1 -11,0 -1,-1 -12,0 -1,-1 -9,0 -1,-1 -3,0 0,2 3,0 1,1 0,2 1,-2 1,0 1,-1 6,0 1,1 7,0 1,1 14,0 1,1 0,2 1,0 1,1 0,3 -1,1 0,1 -1,1 0,1 -1,1 -1,1 0,1 -1,1 0,1 -1,1 0,1 -1,1 0,1 -1,1 -1,1 0,1 -1,1 0,1 -1,1 0,1 -1,1 0,1 -1,1 0,1 -1,1 -1,1 0,1 -1,1 0,1 -1,1 0,1 -1,1 -1,1 0,1 -1,1 0,1 -1,1 -1,1 0,1 -1,1 0,1 -1,1 -1,1 0,1 -1,1 0,1 -1,1 0,1 -1,1 -1,1 0,1 -1,1 0,1 -2,2 -1,1 -2,0 -1,1 -3,0 0,20 1,0 0,-1 1,-1 0,-1 1,-1 1,-1 0,-1 1,-1 1,-1 0,-1 1,-1 0,-1 1,-1 1,-1 0,-1 2,-2 0,-1 1,-1 0,-1 1,-1 0,-1 1,-1 0,-1 1,-1 1,-1 0,-1 1,-1 0,-1 1,-1 1,-1 0,-1 1,-1 0,-1 1,-1 0,-1 2,-2 0,-1 1,-1 1,-1 0,-1 1,-1 0,-1 1,-1 0,-2 1,-1 0,-1 1,-1 1,0 0,-1 1,-1 1,-1 0,-1 1,-1 1,0 0,-3 1,-1 3,0 1,-1 1,-1 0,-1 1,-1 0,-1 1,-1 -1,-1 0,-2 1,-1 2,0 1,-1 1,-1 0,-1 1,-1 2,0 1,-1 1,-1 1,-1 -1,0 -1,-1 0,0 -1,-1 0,-1 -2,0 -1,-1 0,-2 1,-1 1,0 0,-2 1,-1 11,0 1,1 3,0 1,-1 2,0 1,1 8,0 -2,-1 -2,0 -1,-1 -1,0 -1,-1 -1,0 -1,-1 -1,0 -1,-1 -2,0 -1,-1 -1,0 -1,-1 -1,0 -1,-1 -1,0 -1,-1 -1,-1 0,-3 1,-1 0,-2 1,-1 0,-2 1,-1 -2,0 -1,-1Z"/>
<path onmouseover="hoverPath(evt)" onmouseout="recoverPath(evt)" fill="rgb(241,239,230)" d="M  61,83l -1,0 0,1 -1,1 0,2 -1,1 0,2 -1,1 0,1 1,1 1,0 1,1 1,0 1,1 1,0 1,1 2,0 1,1 1,0 1,1 1,0 1,1 1,0 1,1 2,0 1,1 1,0 1,1 0,2 6,0 1,1 11,0 1,1 1,0 1,-1 0,-6 1,-1 2,0 1,1 0,5 1,1 0,1 5,0 0,-10 1,-1 0,-1 1,-1 2,0 1,1 0,7 -1,1 0,5 6,0 1,1 4,0 0,-3 1,-1 1,0 0,-2 1,-1 1,0 0,-2 1,-1 2,0 1,-1 0,-4 1,-1 2,0 1,-1 0,-2 -1,-1 0,0 -1,1 -5,0 -1,-1 -1,0 -1,1 -2,0 -1,-1 -6,0 -1,-1 -4,0 -1,-1 -1,0 -1,-1 -2,0 -1,1 -5,0 -1,-1 -1,0 -1,-1 -2,0 -1,1 -2,0 -1,1 -2,0 -1,-1 -6,0 -1,-1 -1,1 -2,0 -1,-1 -6,0 -1,-1Z"/>
<path onmouseover="hoverPath(evt)" onmouseout="recoverPath(evt)" fill="rgb(242,241,232)" d="M  60,162l -3,0 -1,1 -1,1 -1,1 -1,1 1,1 0,2 -1,1 0,1 1,1 0,1 1,1 0,3 -1,1 0,3 -1,1 -1,0 -1,1 -1,1 -1,1 1,0 1,1 1,0 1,1 1,0 1,1 1,0 1,1 2,0 1,1 1,0 1,1 1,0 1,1 2,0 1,1 1,-1 4,0 0,-1 1,-1 2,0 1,-1 -1,-1 0,-2 1,-1 2,0 1,-1 -1,-1 0,-2 1,-1 2,0 1,-1 -1,-1 0,-2 1,-1 2,0 1,-1 0,-1 1,-1 0,-1 -1,0 -1,-1 -1,1 -2,0 -1,-1 0,-2 -1,0 -1,-1 -1,0 -1,-1 -2,0 -1,-1 -1,0 -1,-1 -1,0 -1,-1 -1,0 -1,-1 -1,0 -1,-1 -2,0 -1,-1 -2,2Z"/>
<path onmouseover="hoverPath(evt)" onmouseout="recoverPath(evt)" fill="rgb(250,249,245)" d="M  150,67l 0,0 1,1 0,2 -1,1 0,1 -1,1 0,1 2,0 0,-2 1,-1 0,-1 1,-1 1,-1 1,-1 1,-1 6,0 -5,-1 0,-3 1,-1 0,-1 1,-1 0,-1 1,-1 1,-1 2,0 -1,-1 0,-2 1,-1 1,-1 2,0 -1,-1 0,-2 1,-1 1,-1 0,-1 1,-1 1,-1 2,0 0,-2 -1,0 -1,-1 0,-1 -1,-1 -1,0 0,2 -1,1 -2,0 2,1 0,3 -1,1 -2,0 1,1 0,2 -1,1 -1,1 0,1 -1,1 -1,0 0,1 -1,1 -5,0 3,1 0,2 -1,1 0,3 -1,1 -1,1 0,1 -1,1 -2,0 -1,1 -2,6 -1,0 2,-7Z"/>
<path onmouseover="hoverPath(evt)" onmouseout="recoverPath(evt)" fill="rgb(241,237,228)" d="M  174,43l -1,0 0,1 -1,1 -2,0 -1,1 0,1 -2,2 1,1 0,2 -1,1 -2,0 -1,1 1,1 0,2 -1,1 -2,0 -1,1 0,1 -1,1 0,1 -1,1 0,1 4,0 1,1 0,2 -1,1 -6,0 -1,1 -1,1 -1,1 0,1 -1,1 0,1 4,0 1,1 1,0 1,-1 2,0 1,1 6,0 1,1 12,0 1,1 5,0 1,1 0,1 3,0 1,-1 12,0 1,1 4,0 1,1 0,1 4,0 1,-1 6,0 1,1 0,1 3,0 1,-1 0,0 1,-1 2,0 1,1 3,0 1,1 0,1 3,0 1,-1 0,0 1,-1 3,0 1,1 5,0 1,1 5,0 0,-22 -3,0 -1,-1 -1,0 0,1 -1,1 -2,0 -1,-1 -1,-1 0,-1 -1,-1 -1,0 0,1 -1,1 -2,0 -1,-1 -3,0 -1,-1 -1,-1 0,-1 -1,0 -1,-1 -1,1 -2,0 -1,-1 0,-1 -1,0 -1,-1 -3,0 0,1 -1,1 -1,0 0,1 -1,1 0,1 -1,1 -2,0 -1,-1 0,-4 -1,-1 0,-2 -1,-1 -2,0 -1,-1 -3,0 -1,-1 -1,0 0,1 -1,1 -2,0 -1,-1 -1,-1 0,-1 -1,1 -2,0 -1,-1 0,-1 -1,0 -1,-1 -2,0 -1,-1 -3,0 -1,-1 -1,0 0,1 -1,1 -2,0 -1,-1 -1,-1 0,-1 -1,0 -1,-1 -2,0 -1,-1 -1,0 0,1 -2,2Z"/>
<path onmouseover="hoverPath(evt)" onmouseout="recoverPath(evt)" fill="rgb(242,240,231)" d="M  207,171l 3,0 0,-1 -1,-1 0,0 -1,-1 0,-1 -1,-1 -1,-1 -1,-1 -1,-1 -1,0 -1,1 -1,0 -1,1 0,2 -1,1 -2,0 0,1 -1,1 -2,0 0,1 -1,1 -2,0 -1,-1 -1,1 0,0 -1,1 -1,0 -1,1 0,2 -1,1 -1,0 -1,1 -1,1 0,1 1,1 0,0 1,1 0,1 1,1 1,1 1,1 0,1 1,1 1,1 0,1 1,1 1,1 1,0 1,-1 1,0 1,-1 1,0 1,-1 1,0 1,-1 1,0 1,-1 2,0 0,-1 1,-1 1,0 1,-1 1,0 1,-1 1,0 1,-1 1,0 1,-1 1,0 1,-1 1,0 1,-1 -1,-1 0,0 -1,-1 -4,0 -1,-1 0,-1 -5,0 -1,1 -2,0 -1,-1 0,-3 1,-1Z"/>
<path onmouseover="hoverPath(evt)" onmouseout="recoverPath(evt)" fill="rgb(249,238,141)" d="M  255,170l 0,-9 -1,0 -1,1 0,0 -1,1 -1,0 -1,1 3,-1 0,0 1,1 0,2 -1,1 0,2 -1,1 0,1 -1,1 0,2 -1,1 0,2 -1,1 0,2 -1,1 0,2 -1,1 0,2 -1,1 0,1 -1,1 0,1 -1,1 0,2 -1,1 -3,0 -1,-1 -1,-1 -1,-1 -1,-1 -1,-1 -1,-1 -1,-1 -1,-1 9,9 0,0 1,1 1,1 0,3 -1,1 -3,0 -1,-1 2,2 0,3 -1,1 0,1 -1,1 0,2 -1,1 0,2 -1,1 0,1 -1,1 0,2 -1,1 0,2 -1,1 0,1 -1,1 0,1 1,1 0,2 -1,1 0,1 -1,1 0,1 -1,1 -1,0 0,2 -1,1 0,1 -1,1 0,2 -1,1 0,2 -1,1 0,2 -1,1 0,1 -1,1 0,2 -1,1 0,3 11,0 0,-2 1,-1 0,-2 1,-1 6,0 -7,-1 0,-2 1,-1 0,-2 1,-1 0,-6 2,-2 1,0 0,-2 1,-1 0,-2 1,-1 0,-2 1,-1 0,-1 1,-1 0,-2 1,-1 0,-2 1,-1 0,-1 1,-1 0,-1 -1,-1 0,-3 1,-1 1,0 0,-3 1,-1 1,-1 1,0 0,-2 1,-1 0,-2 1,-1 0,-1 -1,-1 0,-2 1,-1 0,-2 1,-1 2,0Z"/>
<path onmouseover="hoverPath(evt)" onmouseout="recoverPath(evt)" fill="rgb(248,249,247)" d="M  36,252l 0,3 5,0 0,-3 1,-1 0,-1 1,-1 1,-1 0,-1 1,-1 0,-1 1,-1 1,-1 0,-1 1,-1 1,-1 0,-1 1,-1 1,-1 4,0 1,1 1,0 1,1 2,0 1,1 1,0 1,1 1,0 1,1 1,0 1,1 2,0 1,1 1,0 1,1 1,0 1,1 2,0 1,1 1,0 1,1 1,0 1,1 2,0 1,1 1,0 1,1 1,0 1,1 2,0 1,1 0,2 6,0 0,-1 -1,0 -1,-1 -2,0 -1,-1 -1,0 -1,-1 -1,0 -1,-1 -2,0 -1,-1 -1,0 -1,-1 0,-2 -1,1 -2,0 -1,-1 -2,0 -1,-1 -1,0 -1,-1 -1,0 -1,-1 -2,0 -1,-1 -1,0 -1,-1 -1,0 -1,-1 -2,0 -1,-1 -1,0 -1,-1 -1,0 -1,-1 -1,0 -1,-1 -1,0 -1,-1 -1,-1 0,-2 1,-1 1,-1 0,-1 1,-1 0,-1 1,-1 0,-1 1,-1 1,-1 0,-1 1,-1 0,-1 1,-1 1,-1 3,0 -1,-1 0,-3 1,-1 0,-1 1,-1 1,-1 2,0 -1,-1 0,-2 2,-2 0,-1 1,-1 1,-1 0,-1 1,-1 1,-1 0,-1 1,-1 0,-1 1,-1 1,-1 0,-1 1,-1 0,-1 1,-1 1,-1 0,-1 1,-1 0,-1 1,-1 1,-1 0,-1 1,-1 0,-1 1,-1 1,-1 0,-1 1,-1 0,-1 1,-1 1,-1 0,-1 1,-1 4,0 1,1 2,0 1,1 1,0 1,1 1,0 1,1 0,2 1,-1 3,0 1,1 1,0 1,1 1,0 1,1 0,2 1,-1 2,0 1,1 2,0 1,1 1,0 1,1 1,1 0,4 1,-1 0,0 1,-1 5,0 1,1 1,0 1,1 0,2 1,-1 3,0 1,1 1,0 1,1 1,0 1,1 1,0 1,1 0,2 1,-1 2,0 1,1 2,0 1,1 1,0 1,1 0,4 -1,1 -1,1 -2,0 1,1 0,2 -1,1 -1,1 0,1 -2,2 0,1 -1,1 0,1 -1,1 0,1 -1,1 -1,1 -2,0 1,1 0,2 -1,1 -1,1 0,1 -1,1 -1,1 0,1 -1,1 0,1 -1,1 0,1 -1,1 -1,1 -2,0 1,1 0,2 -1,1 -1,1 -2,0 1,1 0,2 -1,1 -1,1 -2,0 1,1 0,2 -1,1 -1,1 -2,0 1,1 0,2 -1,1 -1,1 0,1 2,0 0,-2 1,-1 0,-1 1,-1 1,-1 0,-1 1,-1 1,-1 0,-1 1,-1 0,-1 1,-1 1,-1 2,0 -1,-1 0,-2 1,-1 1,-1 0,-1 1,-1 0,-1 1,-1 1,-1 2,0 -1,-1 0,-2 1,-1 0,-1 1,-1 1,-1 0,-1 1,-1 0,-1 1,-1 1,-1 2,0 -1,-1 0,-2 1,-1 1,-1 2,0 -1,-1 0,-2 1,-1 1,-1 2,0 -1,-1 0,-2 1,-1 1,-1 0,-1 2,-2 0,-1 1,-1 0,-1 1,-1 1,-1 0,-1 1,-1 1,-1 1,-1 2,0 1,-1 2,-2 1,-1 1,-1 0,-2 1,-1 1,-1 1,-1 1,0 1,-1 1,-1 1,0 1,-1 1,0 1,-1 4,0 1,-1 1,-1 1,-1 1,0 0,-2 1,-1 1,-1 1,0 1,-1 1,-1 2,0 1,1 0,-1 1,-1 2,0 0,-1 1,-1 2,0 0,-2 1,-1 1,-1 1,0 1,-1 3,0 1,1 1,1 1,1 1,1 1,1 0,1 1,1 1,1 0,3 -1,1 -9,0 0,1 9,0 0,1 4,0 1,1 1,1 1,1 0,1 2,0 1,1 1,0 1,1 1,1 1,1 1,1 1,1 0,3 -1,1 -1,1 -1,0 -1,1 0,1 1,-1 3,-2 2,0 1,1 0,1 1,1 1,1 1,1 1,1 2,0 1,1 1,1 0,1 1,0 1,1 1,0 0,-1 -1,-1 0,0 -1,-1 -1,-1 -1,-1 -1,-1 -1,-1 -1,-1 -1,-1 -1,-1 -1,-1 -1,-1 0,-2 -1,0 -1,-1 -1,-1 -1,-1 -1,-1 -1,-1 -1,-1 0,-1 -1,0 -1,-1 -1,-1 -1,-1 -1,-1 -1,-1 0,-1 -1,-1 -1,-1 0,-1 -1,0 -1,-1 -1,-1 -1,-1 -1,-1 -1,-1 -1,-1 -1,-1 0,-1 -1,-1 -1,-1 -1,-1 -1,-1 -1,-1 -1,-1 -1,-1 0,-4 -2,0 -1,-1 -1,-1 0,-2 1,-1 -2,0 -1,-1 0,-2 -1,-1 0,-2 -1,-1 0,-6 -1,-1 0,-2 1,-1 0,-7 1,-1 0,-2 1,-1 15,0 1,1 6,0 1,1 0,12 1,-3 1,0 1,-1 11,0 1,1 5,0 1,1 4,0 1,1 1,1 0,-2 -1,0 1,3 0,7 -4,-11 0,-6 1,-1 14,0 0,-1 -8,0 -1,-1 -1,0 -1,-1 0,-4 -1,-1 -2,0 -1,-1 -12,0 -1,-1 -9,0 7,1 1,1 0,3 -1,1 -13,0 -1,-1 -14,0 -1,-1 -12,0 -1,-1 -13,0 -1,-1 -12,0 -1,-1 -13,0 -1,-1 -11,0 -1,-1 -1,-1 0,-2 1,-1 0,-1 1,-1 1,-1 2,0 2,-2 -1,-1 0,-2 1,-1 1,-1 2,0 -1,-1 0,-2 1,-1 4,0 0,-1 -1,-1 -1,0 -1,-1 -2,0 0,3 -1,1 -1,1 -2,0 0,4 -1,1 -1,1 -2,0 0,2 -1,1 -1,0 0,2 -1,1 -1,0 0,3 -1,1 -6,0 -1,-1 -6,0 -1,-1 0,-7 1,-1 0,-5 -1,2 0,3 -1,8 -7,0 -1,-1 0,-1 -1,-1 0,1 -1,1 0,0 -1,1 -3,0 -1,-1 -11,0 -1,-1 -6,0 -1,-1 -9,0 -1,-1 -1,1 -5,0 -1,-1 -9,0 0,2 -1,1 1,0 1,1 0,1 1,1 1,-1 16,0 1,1 5,0 1,1 3,0 1,1 1,0 1,1 2,0 1,1 1,0 1,1 2,0 1,1 1,0 1,1 1,0 1,1 1,0 0,-1 -1,0 -1,-1 -1,0 -1,-1 -1,0 -1,-1 -2,0 -1,-1 -1,0 -2,-1 -1,0 -2,-1 0,-2 1,-1 7,0 1,1 16,0 1,1 11,0 1,1 4,0 1,1 0,3 -1,1 0,1 -1,1 -1,1 0,1 -1,1 0,1 -1,1 0,1 -1,1 -1,0 0,1 -1,1 0,1 -1,1 0,1 -1,1 0,1 -1,1 0,1 -1,1 0,1 -1,1 0,1 -1,1 -1,1 0,1 -1,1 0,1 -1,1 -1,1 -1,0 0,1 -1,1 -2,0 0,5 -1,1 -1,1 0,1 -1,1 0,1 -1,1 -1,1 0,1 -1,1 -1,1 0,1 -1,1 0,1 -1,1 -1,0 0,1 -1,1 -3,0 -1,-1 -1,0 -1,-1 0,-3 1,-1 -2,3 -3,0 -1,-1 -1,0 -1,-1 0,-2 -1,1 -2,0 -1,-1 -2,0 -1,-1 -1,0 -1,-1 -1,0 -1,-1 0,-2 -1,0 -1,-1 -1,0 -1,-1 -1,1 -3,0 -1,-1 -1,0 -1,-1 0,-2 -1,1 -3,0 -1,-1 -1,0 -1,-1 -1,-1 0,-4 -1,2 -1,0 -1,1 -2,0 -1,-1 -1,0 -1,-1 -1,0 -1,-1 -1,0 -1,-1 -2,0 -1,-1 -1,0 -1,-1 -1,0 0,1 1,0 1,1 1,0 1,1 1,0 1,1 0,2 1,-1 3,0 1,1 1,0 1,1 1,0 1,1 0,2 1,-1 2,0 1,1 2,0 1,1 1,0 1,1 1,0 1,1 1,0 2,2 0,3 1,0 1,-1 0,0 1,-1 2,0 1,1 2,0 1,1 1,0 1,1 1,0 1,1 1,0 1,1 1,0 1,1 2,0 1,1 1,0 1,1 1,0 1,1 0,2 1,-1 2,0 1,1 1,0 1,1 0,3 -1,1 0,1 -1,1 -1,1 -2,0 1,1 0,2 -1,1 -1,1 -2,0 1,1 0,2 -1,1 -1,1 -2,0 1,1 0,2 -1,1 -1,1 -2,0 0,1 -1,1 -4,0 -1,1 -2,0 -1,-1 -2,0 -1,-1 -1,0 -1,-1 -1,0 -1,-1 -2,0 -1,-1 -1,0 -1,-1 -1,0 -1,-1 -1,0 -1,-1 -1,0 -1,-1 0,-2 -1,1 -1,0 -2,2 0,1 -1,1 0,1 1,-1 5,0 1,1 1,0 1,1 1,0 1,1 1,0 1,1 2,0 1,1 1,0 1,1 1,0 1,1 2,0 1,1 1,0 1,1 1,1 1,1 0,4 -1,1 0,1 -1,1 -1,1 -2,0 1,1 0,2 -1,1 -1,1 0,1 -1,1 -1,1 -2,0 1,1 0,2 -1,1 0,1 -1,1 -1,1 -2,0 1,1 0,2 -1,1 -1,1 -2,0 1,1 0,2 -1,1 -1,1 -3,0 -1,-1 -1,0 -1,-1 -2,0 -1,-1 -1,0 -1,-1 0,-2 -1,1 -2,0 -1,-1 -2,0 -1,-1 -1,0 -1,-1 0,-2 -1,1 -2,0 -1,-1 -2,0 -1,-1 -1,0 -1,-1 0,-2 -1,1 -2,0 -1,-1 -2,0 -1,-1 -1,0 -1,-1 0,-2 -1,1 -2,0 -1,-1 -2,0 -1,-1 -1,0 -1,-1 0,-2 -1,1 -3,0 0,1 2,0 1,1 1,0 1,1 1,0 1,1 1,0 1,1 1,0 1,1 2,0 1,1 1,0 1,1 1,0 1,1 0,2 1,-1 3,0 1,1 1,0 1,1 1,0 1,1 0,2 1,-1 3,0 1,1 1,0 1,1 1,0 1,1 0,2 1,-1 3,0 1,1 1,0 1,1 1,0 1,1 1,0 1,1 1,0 1,1 0,2 -1,1 0,1 -1,1 0,1 -1,1 -1,1 -2,0 1,1 0,2 -1,1 -1,1 0,1 -1,1 -2,0 -1,-1 0,-2 -1,-1 0,-1 -1,1 0,6 57,-85 0,-1 1,-1 1,-1 2,0 -1,-1 0,-2 1,-1 1,-1 0,-1 1,-1 1,-1 2,0 -1,-1 0,-2 1,-1 1,-1 0,-1 1,-1 1,-1 0,-1 1,-1 1,-1 0,-1 1,-1 1,-1 2,0 -1,-1 0,-2 1,-1 0,-1 1,-1 0,-1 1,-1 1,-1 0,-1 1,-1 1,-1 2,0 1,1 0,1 1,0 1,1 1,1 1,1 1,0 1,1 1,1 1,1 1,1 1,0 1,1 1,0 1,1 0,1 4,0 1,1 1,0 1,1 1,1 1,0 0,-1 -1,-1 -1,0 1,1 -3,-2 0,-1 -1,-1 -1,0 -1,-1 -1,-1 -1,-1 -1,0 -1,-1 -1,-1 -1,0 -1,-1 -1,-1 -1,-1 -1,0 -1,-1 -1,-1 -1,-1 -2,0 -1,-1 0,-3 -25,42 -57,85 57,-84 0,2 1,1 1,1 0,-1 1,1 1,0 1,1 1,0 1,1 1,0 1,1 0,-1 1,1 2,0 1,1 0,-2 1,3 1,0 1,1 1,0 1,1 0,-1 1,1 1,0 1,1 1,1 0,-1 1,1 4,0 -27,-13 -57,84 83,-129 0,0 1,-1 1,-1 2,0 -1,-1 0,-2 1,-1 1,-1 2,0 1,-1 0,-2 1,-1 14,0 1,1 12,0 1,1 12,0 1,1 13,0 1,1 7,0 1,1 0,9 -1,1 0,2 -1,1 -10,0 9,1 1,0 1,1 0,1 1,1 0,4 1,1 0,3 1,1 0,2 1,1 0,1 1,1 1,1 0,1 1,1 1,1 0,1 1,1 1,1 1,1 0,4 -1,1 -1,1 -1,0 -1,1 -1,1 -2,0 -1,-1 -1,1 0,2 -1,1 -1,1 -2,0 -1,-1 0,2 -1,1 -1,1 -2,0 -1,-1 0,1 -1,1 -2,0 0,2 -2,2 -1,0 -1,1 -2,0 0,1 -1,1 -1,1 -4,0 -1,1 0,1 -1,1 -2,0 -1,1 0,3 -1,1 -1,1 -1,1 -1,1 -1,1 -2,0 -2,2 0,1 -1,1 -3,0 -1,-1 -1,0 -1,-1 0,-2 -1,1 -3,0 -1,-1 -1,0 -1,-1 -1,0 -1,-1 -1,0 -1,-1 0,-4 1,-1 -1,0 -1,1 0,0 -2,2 -3,0 -1,-1 -1,0 -1,-1 -1,0 -1,-1 -1,0 -4,-61 -83,129 86,-70 0,-2 1,-1 1,-1 2,0 0,-3 -1,2 -5,0 -1,-1 -2,0 -1,-1 -1,0 -1,-1 0,1 -1,-1 1,-1 0,-2 1,-1 -2,3 0,0 3,3 0,0 3,1 2,1 0,1 1,3 -86,70 15,-72 1,0 0,-3 1,-1 0,-1 -1,-1 0,2 -1,4 -15,72Z"/>
<path onmouseover="hoverPath(evt)" onmouseout="recoverPath(evt)" fill="rgb(241,239,234)" d="M  92,68l 0,-2 1,-1 0,-1 1,-1 0,-1 1,-1 -2,2 0,0 -1,1 -1,1 -6,0 -1,-1 -4,0 -1,-1 -4,0 -1,-1 -3,0 -1,-1 -2,0 0,4 -1,1 1,1 0,0 1,1 1,-1 3,0 1,-1 3,0 1,1 0,1 3,0 1,1 1,1 2,0 0,-1 1,-1 4,0 1,1 1,-1Z"/>
<path onmouseover="hoverPath(evt)" onmouseout="recoverPath(evt)" fill="rgb(241,239,228)" d="M  140,189l 0,0 1,1 1,0 1,1 1,0 1,-1 2,0 1,1 0,2 1,0 1,1 1,0 0,-1 1,-1 2,-2 2,0 1,-1 1,-1 1,-1 1,-1 0,-3 1,-1 1,-1 2,0 0,-1 1,-1 1,-1 4,0 1,-1 -1,-1 0,0 -1,-1 -1,-1 -1,-1 -1,-1 -1,-1 -1,-1 -1,-1 -1,-1 -1,-1 -1,0 -1,-1 -1,-1 -1,-1 -1,0 -1,-1 0,-1 -1,1 0,0 -1,1 0,1 -1,1 -1,0 -1,1 -4,0 -1,-1 -1,-1 -1,-1 0,-2 1,-1 3,0 1,1 1,0 1,-1 0,-1 -1,0 -1,-1 -1,-1 -1,0 -1,-1 -2,0 -1,-1 -3,0 -1,1 0,0 -1,1 0,1 -1,1 0,1 -1,1 -1,1 -1,1 -1,1 0,1 -1,1 1,1 0,2 -1,1 0,1 -3,3 0,4 -1,1 -2,0 -1,1 0,1 1,0 1,1 1,0 1,1 1,0 1,1 1,0 2,-2 1,-1 3,0 1,1 0,2 -1,1 0,2 1,0 1,1Z"/>
<path onmouseover="hoverPath(evt)" onmouseout="recoverPath(evt)" fill="rgb(243,242,234)" d="M  167,189l -5,5 -2,0 -2,2 0,1 -1,1 -1,1 0,1 -1,1 0,1 -1,1 -1,1 0,1 -1,1 -1,1 1,1 0,2 -1,1 -2,0 -1,1 1,1 0,2 -1,1 -2,0 -1,1 1,1 0,2 -1,1 -2,0 -1,1 0,1 -1,1 0,1 -1,1 -1,1 0,1 -1,1 1,1 0,2 -1,1 -2,0 -1,1 0,1 -1,1 0,1 -1,1 -1,1 1,1 0,2 -1,1 -2,0 -1,1 0,1 -1,1 0,1 -1,1 -1,1 0,1 -1,1 -1,1 0,1 -1,1 0,1 69,0 0,-1 -2,0 -1,-1 -2,0 -1,-1 -1,0 -1,-1 -1,-1 0,-2 1,-1 -2,0 0,1 -1,1 -5,0 -1,-1 -1,0 -1,-1 -2,0 -1,-1 -2,0 -1,-1 -2,0 -1,-1 -3,0 0,5 -1,1 -2,0 -1,-1 0,-6 -1,0 -1,-1 -1,-1 0,-2 1,-1 3,0 1,-1 0,-1 1,-1 0,-2 1,-1 0,-2 1,-1 0,-1 1,-1 1,0 1,-1 7,0 1,1 0,2 9,0 1,1 3,0 1,1 1,0 1,-1 2,0 1,1 2,0 1,1 0,2 1,-1 3,0 1,1 1,0 1,1 1,0 1,1 2,0 1,1 2,0 1,1 1,1 1,0 1,1 0,5 -1,1 0,1 -1,1 -1,1 0,1 -3,3 0,2 13,0 0,-4 1,-1 0,-2 1,-1 0,-1 1,-1 0,-2 1,-1 0,-2 1,-1 0,-2 1,-1 0,-1 1,-1 0,-2 -1,0 -1,-1 -1,-1 -1,-1 -1,-1 -1,-1 -1,-1 -1,-1 -1,-1 -1,-1 -1,-1 -1,0 -1,-1 -1,-1 -1,-1 -1,-1 -1,-1 -1,-1 -1,-1 -1,-1 -1,-1 -1,0 -1,-1 -1,-1 -1,0 -1,-1 -1,-1 -1,-1 -1,0 -1,-1 -1,-1 -1,-1 -1,-1 -1,-1 -1,0 -1,-1 -1,-1 -1,-1 -1,-1 -1,-1 -1,-1 -1,-1 -1,-1 0,-1 -1,-1 -1,-1 -1,-1 0,-1 -1,-1 -1,-1 -1,-1 0,-1 -1,-1 -1,-1 -1,-1 -1,0 -1,-1 -1,1 0,0 -1,1 -1,0 -1,1 -1,1 0,2 -1,1Z"/>
<path onmouseover="hoverPath(evt)" onmouseout="recoverPath(evt)" fill="rgb(242,241,233)" d="M  0,22l 0,19 5,0 1,1 2,0 1,1 2,0 1,1 2,0 1,1 2,0 1,1 2,0 1,1 4,0 1,1 2,0 1,1 2,0 1,1 3,0 1,1 2,0 1,1 2,0 1,1 3,0 1,1 4,0 1,1 3,0 1,1 3,0 1,-1 2,0 1,-1 0,-2 1,-1 0,-1 1,-1 0,-2 1,-1 0,-2 1,-1 0,-2 1,-1 0,-3 1,-1 1,0 0,-2 -1,1 -5,0 -1,-1 -1,0 -1,1 -5,0 -1,-1 -2,0 -1,-1 -2,0 -1,-1 0,-2 -2,0 -1,1 -4,0 -1,-1 -3,0 -1,-1 0,-2 -2,0 -1,-1 -2,0 -1,1 -4,0 -1,-1 -3,0 -1,-1 -3,0 -1,-1 -2,0 -1,-1 -3,0 -1,-1 -3,0 -1,-1 -2,0 -1,-1 -3,0Z"/>
<path onmouseover="hoverPath(evt)" onmouseout="recoverPath(evt)" fill="rgb(242,241,234)" d="M  0,78l 0,19 4,0 1,1 9,0 1,1 12,0 1,1 9,0 1,-1 4,0 1,-1 1,-1 0,-1 1,-1 0,-1 -1,0 -1,-1 -1,0 -1,-1 -1,0 -1,-1 -2,0 -1,-1 -1,0 -1,-1 -1,-1 -1,0 -1,-1 -1,0 -2,-2 -1,-1 -1,0 -1,-1 -1,-1 0,-3 -1,-1 0,-1 -2,0 -1,1 -1,0 -1,1 -4,0 -1,-1 -1,0 -1,1 -2,0 -1,-1 -6,0 -1,-1 -1,1Z"/>
<path onmouseover="hoverPath(evt)" onmouseout="recoverPath(evt)" fill="rgb(189,208,231)" d="M  102,117l 0,0 -1,-1 -1,-1 -1,0 -1,-1 -1,0 -1,-1 -1,-1 0,-1 -7,0 -1,-1 -5,0 3,1 2,0 1,1 2,0 1,1 1,0 1,1 1,0 1,1 1,0 1,1 0,3 1,1 1,1 1,0 1,1 1,0 1,1 1,1 1,1 0,3 1,-1 0,-2 1,-1 2,0 1,1 1,0 1,1 1,1 0,-1 1,-1 0,-1 -1,0 -1,-1 -1,-1 -1,0 -1,-1 -1,-1 -1,0 -1,-1 -1,-1 -1,0 -1,-1Z"/>
<path onmouseover="hoverPath(evt)" onmouseout="recoverPath(evt)" fill="rgb(200,217,241)" d="M  151,158l 0,0 1,1 0,3 -2,2 -3,0 -1,-1 -1,0 1,1 1,1 2,0 4,-4 1,-1 2,0 1,1 0,1 1,0 1,1 1,1 1,1 1,0 1,1 1,1 1,1 1,1 1,1 1,1 1,1 1,1 1,1 1,1 2,0 0,-2 -1,-1 0,0 -1,-1 -1,-1 -1,-1 -1,-1 -1,-1 -1,0 -2,-2 -1,-1 -1,-1 -1,0 -1,-1 -1,-1 -1,-1 -1,-1 -1,0 -1,-1 -1,-1 -1,-1 -1,0 -1,-1 0,-1 -1,-1 -1,-1 -1,0 -1,-1 0,-1 -1,0 -1,-1 -1,-1 -1,-1 -1,-1 -1,1 -3,0 -1,-1 -1,-1 -1,0 -1,-1 -3,0 -1,1 -1,0 0,1 -1,1 3,-2 3,0 1,1 1,0 1,1 1,1 1,1 1,1 0,2 -1,1 0,1 3,0 1,1 2,0 1,1 1,0 1,1 1,1Z"/>
<path onmouseover="hoverPath(evt)" onmouseout="recoverPath(evt)" fill="rgb(172,198,236)" d="M  216,182l -1,0 -1,1 -1,0 -1,1 -1,0 -1,1 -1,0 -1,1 -1,0 -1,1 -1,0 0,1 -1,1 -2,0 -1,1 -1,0 -1,1 -1,0 -1,1 -1,0 -1,1 -1,0 -1,1 -3,0 -1,-1 -1,-1 -1,-1 0,-1 -1,-1 -1,-1 0,-1 -1,-1 -1,-1 -1,-1 0,-1 -1,-1 -1,-1 0,-1 -3,0 -1,1 -1,0 2,1 0,0 1,1 1,1 1,1 0,1 1,1 1,1 1,1 0,1 1,1 1,1 1,1 0,1 1,1 1,1 1,1 1,1 1,1 1,1 1,1 1,0 1,1 1,1 1,1 1,1 1,1 1,0 1,1 1,1 1,1 1,0 1,1 1,1 1,0 1,1 1,1 1,1 1,1 1,1 1,1 1,1 1,1 1,1 1,0 1,1 1,1 1,1 1,1 1,1 1,1 1,1 1,1 1,1 1,1 1,0 1,1 0,-1 1,-1 0,-1 1,-1 -3,0 -1,-1 -1,-1 -1,-1 -1,-1 -1,-1 -1,-1 -1,-1 -1,-1 -1,0 -1,-1 -1,-1 -2,-2 -1,-1 -1,-1 0,-1 -1,0 -1,-1 -1,-1 0,-1 -1,0 -1,-1 -2,0 -1,-1 -1,-1 0,-1 -2,0 -1,-1 -1,-1 -1,-1 -1,0 -1,-1 -1,-1 -1,-1 -1,-1 0,-3 1,-1 1,0 1,-1 1,0 1,-1 1,0 1,-1 1,0 1,-1 -1,0 -2,1 -2,1 -2,1 -2,1 22,-12 -11,7 1,-1 1,0 1,-1 1,0 0,-1 -2,1 4,-2 1,0 1,-1 2,-1 1,0 1,-1 2,0 0,-1Z"/>
<path onmouseover="hoverPath(evt)" onmouseout="recoverPath(evt)" fill="rgb(249,247,242)" d="M  235,30l 0,0 1,-1 0,-1 -1,-1 -1,-1 -3,0 -1,-1 -1,-1 0,-2 -1,0 0,2 -1,1 -1,1 -2,0 1,1 0,6 -1,1 0,1 -1,1 -1,1 -3,0 0,4 2,0 1,-1 2,0 0,-2 1,-1 0,-2 1,-1 2,0 0,-2 1,-1 5,0 1,-1 -6,-9 1,0 0,-2 1,-1 0,-3 1,-1 0,-2 1,-1 0,-2 1,-1 0,-2 1,-1 1,-1 3,0 -2,-1 0,0 -1,-1 0,-2 -11,0 0,3 -1,1 -3,0 3,1 2,0 1,1 3,0 1,1 1,1 0,2 -1,1 0,3 -1,1 0,2 -1,1 0,3 6,9Z"/>
<path onmouseover="hoverPath(evt)" onmouseout="recoverPath(evt)" fill="rgb(202,221,169)" d="M  0,239l 0,16 34,0 0,-10 1,-1 -1,0 -1,-1 0,0 -1,-1 -3,0 -1,-1 -2,0 -1,-1 -1,0 -1,-1 -3,0 -1,-1 -4,0 -1,-1 -3,0 -1,-1 -5,0 -1,-1 -4,0Z"/>
<path onmouseover="hoverPath(evt)" onmouseout="recoverPath(evt)" fill="rgb(243,230,141)" d="M  81,23l 0,-1 1,-1 1,-1 1,0 0,-3 -1,0 -1,-1 0,-1 -3,0 -1,-1 0,3 -1,1 -1,0 0,3 -1,1 0,2 -1,1 0,1 -1,1 0,2 -1,1 0,2 -1,1 0,4 -1,1 -1,0 0,3 -1,1 0,2 -1,1 0,2 -1,1 0,2 -1,1 0,1 -1,1 0,2 -2,2 -2,0 2,1 0,3 -1,1 -1,0 0,2 -1,1 0,1 -1,1 -1,0 0,1 5,0 1,-1 1,0 1,-1 0,-1 1,-1 0,-4 1,-1 0,-1 1,-1 1,0 0,-1 1,-1 0,-2 1,-1 0,-1 1,-1 0,-2 1,-1 0,-2 1,-1 0,-2 1,-1 0,-2 1,-1 0,-2 1,-1 0,-2 1,-1 0,-2 1,-1 0,-2 1,-1 0,-2 1,-1Z"/>
<path onmouseover="hoverPath(evt)" onmouseout="recoverPath(evt)" fill="rgb(243,241,233)" d="M  83,23l 0,1 -1,1 0,2 -1,1 0,2 -1,1 0,2 -1,1 0,2 -1,1 0,2 -1,1 0,2 -1,1 0,2 -1,1 0,2 -1,1 0,2 -1,1 0,1 -1,1 0,2 -1,1 0,1 -1,1 1,0 1,1 3,0 1,1 4,0 1,1 4,0 1,1 4,0 1,-1 0,0 1,-1 1,-1 1,-1 0,-1 1,-1 0,-2 1,-1 0,-1 1,-1 0,-2 1,-1 0,-2 1,-1 0,-2 1,-1 0,-3 -1,0 -1,-1 -1,-1 -1,-1 0,-2 1,-1 0,-3 1,-1 0,-3 1,-1 0,-2 -3,0 -1,-1 -3,0 -1,-1 -2,0 -1,-1 -2,0 -1,1 -1,0 -1,1Z"/>
<path onmouseover="hoverPath(evt)" onmouseout="recoverPath(evt)" fill="rgb(241,240,230)" d="M  116,134l 0,0 -1,1 -1,1 0,1 -1,1 0,1 -1,1 1,1 0,2 -1,1 -2,0 -1,1 0,1 -1,1 -1,1 0,1 -2,2 0,1 -1,1 -1,1 1,1 0,2 -1,1 -2,0 -1,1 0,1 -1,1 -1,1 1,1 0,2 -1,1 -2,0 -1,1 0,2 1,0 1,1 1,0 1,1 1,0 1,1 2,0 1,1 1,-1 2,0 1,1 0,2 1,0 1,1 2,0 1,1 1,0 1,1 1,0 1,1 2,0 -2,-1 -6,-3 0,-3 1,-1 0,-1 1,-1 1,-1 2,0 1,1 0,2 -1,1 0,1 1,0 1,1 2,0 1,1 3,0 0,-1 1,-1 2,0 1,-1 1,-1 0,-1 1,-1 -1,-1 0,-2 1,-1 0,-1 1,-1 1,-1 1,-1 1,-1 0,-1 1,-1 0,-1 1,-1 1,-1 1,-1 0,-2 1,-1 -1,-1 -1,-1 -1,-1 -1,0 -1,-1 -2,0 -1,1 0,0 -1,1 0,1 -1,1 -1,1 -2,0 -1,-1 0,-2 1,-1 1,-1 0,-1 1,-1 0,-1 1,-1 1,0 0,-1 -1,0 -1,-1 -1,0 -1,-1 -1,-1 -1,-1 -1,-1 -1,0 -1,-1 -1,-1 -1,-1 -1,0 -1,-1 -1,1 9,19 1,1 0,2 -1,1 -2,0 -1,-1 0,-2 1,-1 2,0 -9,-19 1,33 -1,-1 0,-2 1,-1 2,0 1,1 0,2 -1,1 -2,0 -1,-33Z"/>
<path onmouseover="hoverPath(evt)" onmouseout="recoverPath(evt)" fill="rgb(238,237,222)" d="M  118,119l 0,-1 1,-1 1,-1 0,-1 1,-1 0,-1 -4,0 -1,-1 -11,0 -1,-1 -7,0 1,1 1,0 1,1 1,0 1,1 1,1 1,0 1,1 1,0 1,1 1,1 1,0 1,1 1,1 1,0 1,1 1,1 1,0 1,1 0,-1 1,-1 0,-1 1,-1Z"/>
<path onmouseover="hoverPath(evt)" onmouseout="recoverPath(evt)" fill="rgb(242,240,230)" d="M  218,215l 0,0 1,1 1,1 1,0 1,1 1,1 1,1 1,1 1,1 1,1 1,1 1,1 1,0 0,-2 1,-1 0,-1 1,-1 0,-2 1,-1 0,-2 1,-1 0,-1 1,-1 0,-2 1,-1 0,-2 1,-1 0,-1 1,-1 0,-1 -1,-1 0,0 -1,-1 0,-3 -1,-1 -2,0 -1,-1 -1,-1 -1,-1 -1,-1 -1,-1 0,-1 -1,0 -1,1 -2,2 -2,0 -1,-1 0,-3 1,-1 1,-1 1,0 1,-1 0,-1 -1,-1 0,0 -1,-1 -1,-1 -1,-1 0,1 -1,1 -2,0 -1,1 -2,0 -1,1 -1,1 -2,0 0,1 -1,1 -1,0 -1,1 -1,0 -1,1 -1,0 -2,2 -1,0 -1,1 -1,0 -1,1 -1,0 -1,1 -1,0 0,1 1,1 0,0 1,1 1,1 1,0 1,1 1,1 1,1 2,0 1,1 0,1 1,1 2,0 1,1 1,0 1,1 0,1 1,1 1,0 1,1 0,1 1,1 1,1 1,1Z"/>
<path onmouseover="hoverPath(evt)" onmouseout="recoverPath(evt)" fill="rgb(232,235,232)" d="M  255,228l 0,-36 -1,0 0,2 -1,1 1,1 0,3 -1,1 0,2 -1,1 0,2 -1,1 -1,0 -1,1 0,3 -1,1 -1,0 0,1 1,1 0,3 -1,1 0,1 -1,1 0,2 -1,1 0,2 -1,1 0,1 -1,1 0,2 -1,1 0,2 -1,1 0,2 -1,1 -1,0 -1,1 0,6 -1,1 0,2 -1,1 6,0 1,1 0,2 -1,1 -6,0 0,2 -1,1 0,1 20,0Z"/>
</svg>