<svg width="256" height="256" xmlns="http://www.w3.org/2000/svg"><script> 
var tempColor;
function hoverPath(evt){
obj = evt.target;
tempColor = obj.getAttribute("fill");
obj.setAttribute("fill","red");
//alert(tempColor);
//obj.setAttribute("stroke","red");}
function recoverPath(evt){
obj = evt.target;
obj.setAttribute("fill", tempColor);
//obj.setAttribute("stroke", tempColor);
}</script><path onmouseover="hoverPath(evt)" onmouseout="recoverPath(evt)" fill="rgb(183,209,186)" d="M  0,1l 0,11 2,0 1,1 1,1 1,1 1,1 0,1 1,1 1,1 1,1 1,1 1,1 0,1 1,1 1,1 1,1 1,1 1,1 0,1 1,1 1,1 1,1 0,1 1,0 1,1 0,1 1,1 1,1 1,1 1,1 0,2 1,0 1,1 1,1 1,1 0,1 1,0 0,-1 -3,-3 0,-2 1,-1 5,0 1,-1 1,0 1,-1 1,-1 1,-1 1,0 1,-1 1,-1 1,0 1,-1 1,-1 1,-1 1,-1 1,0 1,-1 2,0 1,1 0,1 1,1 1,1 0,1 1,1 0,1 1,1 1,1 0,1 1,1 0,1 1,1 0,1 1,1 1,1 0,1 1,1 0,1 1,1 1,1 0,1 1,1 0,1 1,1 1,1 0,3 -1,1 2,0 0,-2 1,-1 0,-1 -1,-1 0,-1 -1,-1 0,-1 -1,-1 -1,-1 0,-1 -1,-1 0,-1 -1,-1 -1,-1 0,-1 -1,-1 0,-1 -1,-1 0,-1 -1,-1 -1,-1 0,-1 -1,-1 0,-1 -1,-1 -1,-1 0,-1 -1,-1 0,-3 1,-1 1,-1 2,0 1,-1 1,0 1,-1 0,-7 -1,-1 0,-3 -1,-1 0,-3 -1,-1 0,-2 -1,-1 0,-2 -55,0 -1,1Z"/>
<path onmouseover="hoverPath(evt)" onmouseout="recoverPath(evt)" fill="rgb(243,242,234)" d="M  0,17l 0,52 1,0 1,-1 2,0 1,1 1,0 1,-1 1,0 1,-1 0,-2 1,-1 1,0 1,-1 1,0 1,-1 2,0 1,1 1,0 1,-1 1,0 1,-1 1,0 0,-2 1,-1 1,0 1,-1 1,0 1,-1 1,0 1,-1 2,0 1,1 1,0 1,-1 4,0 -1,-1 0,-1 -1,-1 -1,0 -1,-1 0,-1 -1,-1 -2,-2 -3,0 -1,-1 0,-1 -1,-1 -1,-1 -1,0 -1,-1 0,-2 -1,-1 -1,-1 -1,-1 -1,-1 0,-1 -1,0 -1,-1 0,-1 -1,-1 -1,-1 -1,-1 0,-1 -1,-1 -1,-1 -1,-1 -1,-1 -1,-1 0,-1 -1,-1 -1,-1 -1,-1 -1,-1 -1,-1 0,-1 -1,-1 -1,-1 -1,-1 -1,0Z"/>
<path onmouseover="hoverPath(evt)" onmouseout="recoverPath(evt)" fill="rgb(244,242,235)" d="M  31,40l -2,0 0,1 1,1 1,0 1,1 0,2 1,1 1,1 1,1 1,1 0,1 1,0 1,1 1,1 0,1 1,1 0,2 -1,1 1,1 0,0 1,1 1,1 0,1 1,1 1,1 1,1 0,1 1,1 1,1 0,2 1,1 0,2 -1,1 0,1 -1,1 0,1 -1,1 0,1 -1,1 -2,0 -1,1 0,1 -1,1 0,1 -1,1 0,1 -1,1 0,1 -1,1 0,1 -1,1 0,1 -1,1 0,1 -1,1 1,0 1,-2 3,-6 1,-2 1,-2 1,-1 2,0 1,-1 1,-1 1,0 1,-1 1,-1 2,0 1,-1 1,0 1,-1 2,0 1,-1 2,0 1,-1 3,0 1,-1 3,0 1,-1 2,0 1,-1 1,0 0,-3 -1,0 -1,-1 0,-1 -1,-1 0,-1 -1,-1 0,-1 -1,-1 0,-1 -3,0 -1,-1 0,-2 1,-1 0,-1 -1,-1 0,0 -1,-1 0,-1 -1,-1 0,-1 -1,-1 -1,-1 0,-1 -1,-1 0,-1 -1,-1 -1,-1 0,-1 -1,-1 0,-1 -1,-1 0,-1 -1,-1 -1,-1 0,-1 -1,-1 0,-1 -1,-1 -1,-1 0,-1 -1,1 -1,0 -1,1 -1,1 -1,1 -1,1 -1,0 -1,1 -1,1 -1,0 -1,1 -1,1 -1,1 -1,0 -1,1 -3,0 29,20 0,2 -1,1 -2,0 -1,-1 0,-2 1,-1 2,0 1,1 -29,-20Z"/>
<path onmouseover="hoverPath(evt)" onmouseout="recoverPath(evt)" fill="rgb(250,201,108)" d="M  88,1l 0,0 1,1 0,2 1,1 0,2 -1,1 2,0 1,1 0,3 -1,1 1,0 1,1 1,1 0,1 1,1 0,3 -1,1 1,0 1,1 1,1 0,1 1,1 0,3 -1,1 1,0 1,1 0,0 1,1 0,1 1,1 0,2 1,1 0,3 -1,1 0,2 2,0 1,1 1,1 0,1 1,1 0,2 1,1 0,2 -1,1 2,0 1,1 0,2 1,1 0,2 -1,1 0,3 1,1 2,0 1,1 0,1 1,1 0,2 -1,1 2,0 1,1 0,2 1,1 0,1 1,1 0,2 1,1 0,2 1,1 0,1 1,1 0,2 1,1 0,2 -1,1 1,0 1,1 0,0 1,1 0,1 1,1 0,1 1,1 0,2 1,1 0,2 -1,1 1,0 1,1 1,1 0,2 -1,1 1,0 1,1 0,0 1,1 0,1 1,1 0,2 1,1 0,1 1,1 0,3 -1,1 1,0 1,1 1,1 0,2 -1,1 -1,0 2,1 0,2 1,0 1,1 1,1 0,2 1,1 0,3 1,1 0,1 1,1 0,2 1,1 0,2 -1,1 0,1 1,1 0,1 1,1 0,2 1,1 1,1 0,2 1,1 0,1 1,1 0,1 1,1 0,3 -1,1 0,1 1,1 0,1 1,1 0,2 1,1 0,1 2,0 1,1 0,1 1,1 0,2 1,1 0,1 1,1 0,3 -1,1 1,1 1,0 1,1 0,1 2,0 1,1 0,1 10,0 0,-2 1,-1 0,-1 -1,-1 0,-2 -1,-1 0,-1 -1,-1 0,-1 -1,-1 0,-2 -1,-1 0,-1 -1,-1 0,-2 -1,-1 0,-1 -1,-1 0,-3 1,-1 0,-1 -1,-1 0,-2 -1,-1 0,-1 -1,-1 0,-2 -1,-1 0,-2 -1,-1 0,-1 -1,-1 0,-1 -1,-1 0,-2 -1,-1 0,-1 -1,-1 0,-2 -2,0 -1,-1 -1,0 -1,-1 -1,-1 0,-2 -1,-1 0,-2 -1,-1 0,-2 1,-1 -2,0 -1,-1 0,-1 -1,-1 0,-2 -1,-1 0,-2 -1,-1 0,-1 -1,-1 0,-1 -1,-1 0,-2 1,-1 -1,0 -1,-1 0,0 -1,-1 0,-1 -1,-1 0,-2 -1,-1 0,-2 1,-1 0,-2 -2,0 -1,-1 -1,-1 0,-2 1,-1 -1,0 -1,-1 0,0 -1,-1 0,-1 -1,-1 0,-3 1,-1 0,-1 -1,0 -1,-1 -1,-1 0,-1 -1,-1 0,-1 -1,-1 0,-1 -1,-1 0,-1 -1,-1 0,-2 -1,-1 0,-2 1,-1 1,0 -2,-1 -1,0 -1,-1 0,-3 1,-1 0,-1 -1,-1 0,-2 -1,-1 -1,0 -1,-1 -1,-1 0,-2 1,-1 -1,0 -1,-1 0,0 -1,-1 0,-2 1,-1 -1,0 -1,-1 -1,-1 0,-2 1,-1 0,-2 -2,0 -1,-1 -1,-1 0,-1 -1,-1 0,-2 -1,-1 0,-2 1,-1 -1,0 -1,-1 0,0 -1,-1 0,-2 1,-1 0,0 -1,-1 0,-2 -1,0 -1,-1 -1,-1 0,-1 -1,-1 0,-2 -1,-1 0,-2 -1,-1 0,-2 1,-1 1,0 -2,-1 -1,0 -1,-1 0,-1 -1,-1 0,-2 -1,-1 0,-2 -9,0 -1,1 -1,-1 -2,0 0,1 2,0 0,-1 1,1Z"/>
<path onmouseover="hoverPath(evt)" onmouseout="recoverPath(evt)" fill="rgb(242,240,231)" d="M  102,0l -2,0 0,1 1,1 0,2 1,1 0,1 1,0 1,1 1,0 1,1 0,2 -1,1 -1,0 1,1 0,2 1,1 0,2 1,1 0,1 1,1 1,0 1,1 0,2 1,0 1,1 0,2 -1,1 -1,0 1,1 2,0 1,1 0,2 -1,1 -1,0 1,1 0,2 1,1 0,1 1,1 2,0 1,1 0,4 -1,1 1,1 1,0 1,1 0,2 -1,1 1,1 1,0 1,1 0,2 -1,1 1,1 1,0 1,1 3,0 1,-1 3,0 1,-1 2,0 1,-1 3,0 1,-1 3,0 1,-1 2,0 1,-1 2,0 -1,-1 0,-1 -1,-1 0,-2 1,-1 1,0 1,-1 1,-1 2,0 0,-1 1,-1 2,0 0,-2 1,-1 3,0 1,1 1,0 0,-2 1,-1 4,0 1,1 1,0 0,-2 1,-1 4,0 1,1 2,0 0,-2 1,-1 2,0 0,-2 -1,-1 0,-1 -1,-1 0,-1 -3,0 -1,-1 0,-2 1,-1 0,-2 -1,-1 0,-1 -1,-1 0,-2 -2,0 -1,-1 0,-2 1,-1 0,-1 -1,-1 0,-3 -1,-1 0,-4 -66,0 29,40 -1,-1 0,-2 1,-1 2,0 1,1 0,2 -1,1 -2,0 -29,-40Z"/>
<path onmouseover="hoverPath(evt)" onmouseout="recoverPath(evt)" fill="rgb(173,199,236)" d="M  46,82l -1,1 -2,0 -1,1 0,1 -1,1 0,1 -1,1 0,1 -1,1 0,1 -1,1 0,1 -1,1 0,1 -1,1 -3,0 -1,1 0,1 -1,1 0,1 -1,1 0,1 -1,1 0,1 -1,1 0,1 -1,1 0,1 -1,1 0,1 -1,1 0,1 -1,1 0,1 -1,1 2,0 1,1 0,7 -1,1 0,9 -1,1 0,9 -1,1 0,9 -1,1 0,9 -1,1 0,9 -1,1 0,24 -1,1 2,0 1,-1 3,0 0,-29 1,-1 0,-13 1,-1 0,-7 1,-1 0,-8 1,-1 0,-10 1,-1 0,-9 1,-1 0,-3 1,-1 0,-1 1,-1 0,-1 1,-1 0,-1 1,-1 0,-1 1,-1 0,-1 1,-1 0,-1 1,-1 0,-1 1,-1 0,-1 1,-1 1,-1 0,-1 1,-1 0,-1 1,-1 5,-5 1,-1 2,-2 1,-1 1,0 1,-1 1,0 1,-1 1,0 1,-1 2,0 1,-1 2,0 1,-1 3,0 1,-1 4,0 1,-1 4,0 1,-1 4,0 1,-1 4,0 1,-1 3,0 1,-1 3,0 1,-1 3,0 1,-1 4,0 1,-1 2,0 1,-1 2,0 1,1 1,-1 0,0 -1,-1 0,-1 -2,0 -1,-1 -1,-1 -1,1 -4,0 -1,1 -3,0 -1,1 -3,0 -1,1 -3,0 -1,1 -3,0 -1,1 -3,0 -1,1 -5,0 -1,-1 0,-2 -1,-1 0,-1 -1,-1 0,-1 -1,0 -1,-1 0,-2 -1,-1 -1,0 1,1 0,1 1,2 1,1 0,1 1,0 1,2 0,4 -1,1 -1,0 -1,1 -2,0 -1,1 -3,0 -1,1 -3,0 -1,1 -2,0 -1,1 -2,0 -1,1 -1,0 -1,1 -2,0 -1,1 -1,1 -1,0 -1,1Z"/>
<path onmouseover="hoverPath(evt)" onmouseout="recoverPath(evt)" fill="rgb(199,224,186)" d="M  57,204l 7,0 1,-1 7,0 0,-1 1,-1 3,0 1,1 2,0 1,-1 6,0 -6,-1 0,-1 -1,-1 0,-5 -3,0 -1,-1 0,-1 -1,-1 0,-1 -2,0 -1,-1 -2,0 -1,1 -2,0 0,2 -1,1 -1,1 -3,0 -1,1 -6,0 -1,1 -6,0 -1,1 -7,0 -1,1 -6,0 -1,1 -4,0 0,1 -1,1 -3,0 -1,1 -5,0 -1,-1 -9,0 -1,-1 0,-5 -1,-1 0,3 -1,1 -4,0 0,19 3,0 1,-1 3,0 1,1 0,5 1,-4 0,-2 -1,-1 0,-2 1,-1 3,0 1,-1 6,0 0,-1 1,-1 2,0 1,-1 4,0 1,1 5,0 1,-1 6,0 1,-1 6,0 1,-1 8,0 1,-1Z"/>
<path onmouseover="hoverPath(evt)" onmouseout="recoverPath(evt)" fill="rgb(244,242,234)" d="M  55,26l 0,1 1,1 0,1 1,1 1,1 0,1 1,1 0,1 1,1 1,1 0,1 1,1 0,1 1,1 0,1 1,1 1,1 0,1 1,1 0,1 1,1 1,1 0,1 1,1 0,1 1,1 0,3 -1,1 0,1 2,0 1,1 1,1 0,2 1,0 1,1 0,1 1,1 0,1 1,1 0,2 3,0 1,-1 3,0 1,-1 3,0 1,-1 3,0 1,-1 3,0 1,-1 3,0 1,-1 4,0 1,-1 1,0 0,-3 1,-1 -1,-1 0,-2 -2,0 -1,-1 0,-2 1,-1 -1,-1 0,-2 -1,-1 0,-1 -1,-1 -2,0 -1,-1 0,-4 1,-1 0,-1 -1,-1 0,-2 -1,-1 0,-1 -1,-1 -1,0 -1,-1 0,-2 1,-1 0,-1 -1,-1 0,-1 -1,-1 -1,0 -1,-1 0,-2 1,-1 0,-1 -1,-1 0,-1 -1,-1 -1,0 -1,-1 0,-2 1,-1 0,-1 -2,0 -1,-1 0,-2 1,-1 -1,-1 0,-2 -3,0 -1,-1 0,-2 -25,0 0,1 1,1 0,2 1,1 0,3 1,1 0,3 1,1 0,9 -1,1 -1,1 -1,0 -1,1 -2,0 -1,1Z"/>
<path onmouseover="hoverPath(evt)" onmouseout="recoverPath(evt)" fill="rgb(243,242,234)" d="M  0,75l 0,75 1,0 1,-1 0,-1 1,-1 0,-1 1,-1 1,0 0,-1 1,-1 0,-1 1,-1 2,0 1,1 0,3 11,0 0,-2 1,-1 0,-9 1,-1 0,-9 1,-1 0,-5 -2,0 -1,-1 0,-2 1,-1 0,-1 1,-1 0,-1 1,-1 0,-1 1,-1 0,-1 1,-1 0,-1 1,-1 0,-1 1,-1 0,-1 1,-1 0,-1 1,-1 0,-1 1,-1 1,-1 0,-1 1,-1 0,-1 1,-1 0,-1 1,-1 0,-1 1,-1 0,-1 1,-1 0,-1 1,-1 0,-1 1,-1 0,-1 2,-2 0,-1 1,-1 0,-1 1,-1 0,-1 1,-1 0,-1 1,-1 0,-1 -1,-1 0,0 -1,-1 0,-1 -1,-1 -1,-1 -1,-1 0,-1 -1,-1 -1,-1 -1,-1 0,-1 -2,0 -1,1 -2,0 -1,1 -1,0 -1,1 -2,0 -1,-1 -1,1 -1,0 0,2 -1,1 -1,0 -1,1 -1,0 -1,1 -3,0 -1,-1 -1,1 -1,0 -1,1 -1,0 0,2 -1,1 -1,1 -1,0 -1,1 -2,0 -1,1 -2,0 -1,-1 -1,0 0,4 22,47 -1,1 0,1 -1,1 0,1 -1,1 0,1 -1,1 -2,0 -1,-1 0,-2 1,-1 0,-1 1,-1 0,-1 1,-1 0,-1 1,-1 2,0 1,1 0,2 -22,-47 15,55 1,1 0,2 -1,1 0,1 -1,1 0,1 -1,1 -2,0 -1,-1 0,-2 1,-1 0,-1 1,-1 0,-1 1,-1 2,0 -15,-55Z"/>
<path onmouseover="hoverPath(evt)" onmouseout="recoverPath(evt)" fill="rgb(243,241,233)" d="M  6,219l 0,-2 -1,0 -1,1 -4,0 0,37 1,0 0,-2 1,-1 1,-1 1,-1 1,-1 1,-1 1,-1 0,-1 1,-1 1,-1 1,-1 0,-1 2,-2 0,-1 2,-2 0,-1 1,-1 0,-1 1,-1 0,-1 1,-1 0,-1 1,-1 0,-2 1,-1 0,-4 1,-1 0,-8 -1,-1 -5,0 -1,1 -3,0 1,1 0,4 -1,1 0,3 -1,1 -2,0 -1,-1Z"/>
<path onmouseover="hoverPath(evt)" onmouseout="recoverPath(evt)" fill="rgb(243,242,233)" d="M  28,211l 0,2 1,1 0,8 -1,1 0,4 -1,1 0,2 -1,1 0,2 -1,1 -1,1 0,2 2,0 1,1 0,2 -1,1 -1,1 -1,1 0,1 -1,1 0,1 -1,1 -1,1 0,2 -1,1 -1,0 -1,1 -1,1 -1,1 0,1 50,0 0,-2 1,-1 1,0 1,-1 1,0 0,-2 1,-1 2,0 1,1 1,-1 1,0 1,-1 2,0 1,-1 1,0 1,-1 1,0 1,-1 1,0 1,-1 1,0 1,-1 1,0 1,-1 1,0 1,-1 1,0 1,-1 1,-1 0,-3 -1,-1 0,-5 -1,-1 0,-4 -1,-1 0,-4 -1,-1 0,-6 -1,-1 0,-4 -1,-1 0,-3 -8,0 -1,1 -4,0 -1,-1 -1,0 0,1 -1,1 -7,0 -1,1 -7,0 -1,1 -8,0 -1,1 -6,0 -1,1 -6,0 -1,1 -5,0 -1,1 6,20 1,-1 1,0 1,-1 1,0 1,-1 2,0 1,1 0,2 -1,1 -1,0 -1,1 -1,0 -1,1 -2,0 -1,-1 0,-2 -6,-20Z"/>
<path onmouseover="hoverPath(evt)" onmouseout="recoverPath(evt)" fill="rgb(141,208,197)" d="M  93,194l -1,0 -1,1 -4,0 -1,-1 -1,-1 0,1 -1,1 -1,0 -1,1 -1,0 0,1 1,1 0,1 5,0 1,1 0,1 1,0 1,-1 0,0 1,-1 2,0 1,-1 3,0 1,1 1,0 1,-1 4,0 1,1 17,0 0,-1 1,-1 4,0 1,1 1,1 0,1 1,1 0,1 1,1 0,1 -1,-4 0,-1 1,-1 26,0 0,-4 1,-1 9,0 1,1 8,0 0,-1 1,-1 18,0 1,1 0,1 7,0 0,-1 1,-1 6,0 1,-1 20,0 1,1 6,0 1,-1 16,0 0,-4 -2,0 0,1 -1,1 -15,0 -1,1 -21,0 -1,-1 -1,-1 -4,0 0,1 -1,1 -8,0 -1,1 -14,0 -1,-1 0,-2 -1,-1 0,-1 -8,0 -1,1 0,2 -1,1 -12,0 0,1 -1,1 -13,0 -1,-1 0,-2 -1,1 -10,0 0,1 -1,1 -11,0 -1,1 -13,0 -1,-1 0,-1 -1,0 0,1 -1,1 -2,0 -1,1 -5,0 -1,-1 -1,0 -1,1Z"/>
<path onmouseover="hoverPath(evt)" onmouseout="recoverPath(evt)" fill="rgb(171,198,237)" d="M  125,59l 0,0 1,1 0,2 2,0 1,-1 3,0 1,-1 2,0 1,-1 3,0 1,-1 3,0 1,-1 3,0 1,-1 2,0 1,-1 3,0 1,-1 3,0 1,-1 2,0 1,-1 3,0 1,-1 3,0 1,-1 3,0 1,-1 2,0 1,-1 3,0 1,-1 3,0 1,-1 4,0 1,-1 3,0 1,-1 3,0 1,-1 3,0 1,-1 3,0 1,-1 3,0 1,-1 3,0 1,-1 3,0 1,-1 3,0 1,-1 3,0 1,-1 3,0 1,-1 3,0 1,-1 4,0 1,-1 3,0 1,-1 2,0 1,-1 3,0 1,-1 5,0 0,-5 -4,0 -1,1 -3,0 -1,1 -3,0 -1,1 -5,0 -1,1 -1,0 -1,1 -3,0 -1,1 -2,0 -1,1 -3,0 -1,1 -3,0 -1,1 -3,0 -1,1 -3,0 -1,1 -3,0 -1,1 -3,0 -1,1 -3,0 -1,1 -3,0 -1,1 -3,0 -1,1 -2,0 -1,1 -3,0 -1,1 -3,0 -1,1 -3,0 -1,1 -3,0 -1,1 -3,0 -1,1 -2,0 -1,1 -3,0 -1,1 -3,0 -1,1 -2,0 -1,1 -4,0 -1,1 -2,0 -1,1 -2,0 -1,1 -3,0 -1,1 -3,0 -1,1 -2,0 -1,1 -3,0 -1,1 -2,0 -1,1Z"/>
<path onmouseover="hoverPath(evt)" onmouseout="recoverPath(evt)" fill="rgb(242,226,139)" d="M  217,187l -1,0 -1,-1 -30,0 1,1 0,2 12,0 1,-1 8,0 0,-1 8,0 1,1 19,0 1,-1 15,0 0,-1 1,-1 -4,0 -1,-1 -2,0 -1,1 -8,0 -1,-1 0,0 -1,1 -15,0 0,1 -1,1Z"/>
<path onmouseover="hoverPath(evt)" onmouseout="recoverPath(evt)" fill="rgb(252,252,251)" d="M  253,179l 2,0 0,-14 -2,0 -1,-1 0,-1 -1,-1 0,-4 -1,-1 0,-4 -1,-1 0,-12 -1,0 0,13 1,1 0,4 1,1 0,3 1,1 0,2 1,1 0,3 1,1 0,2 1,1 0,4 -1,1 0,1 -4,-40 1,0 0,-1 1,-1 -1,-1 0,0 -1,1 0,1 1,-1 -1,2 4,40Z"/>
<path onmouseover="hoverPath(evt)" onmouseout="recoverPath(evt)" fill="rgb(241,240,229)" d="M  99,244l 0,0 -1,1 0,1 1,1 0,1 1,1 2,0 1,1 0,2 -1,1 0,2 19,0 0,-2 1,-1 2,0 1,-1 1,0 1,-1 1,0 0,-1 -2,0 -1,-1 0,-2 1,-1 -1,-1 0,0 -1,-1 0,-1 -1,-1 -1,-1 0,-1 -1,-1 -2,0 -1,-1 0,-2 1,-1 -1,-1 0,0 -1,-1 0,-1 -1,-1 -1,-1 0,-1 -1,-1 -1,-1 0,-1 -1,-1 -2,0 -1,-1 0,-4 -1,-1 0,-1 -1,-1 -1,-1 0,-1 -1,-1 -2,0 -1,-1 0,-2 1,-1 -1,-1 -2,0 -1,-1 0,-2 1,-1 -1,-1 -4,0 0,6 1,1 0,5 1,1 0,4 1,1 0,3 4,0 1,-1 2,0 1,1 0,2 -1,1 -1,0 -1,1 -1,0 -1,1 -2,0 0,3 1,1 0,9 -1,1Z"/>
<path onmouseover="hoverPath(evt)" onmouseout="recoverPath(evt)" fill="rgb(243,232,163)" d="M  204,196l -9,0 -1,-1 0,-1 -16,0 0,1 1,0 1,1 0,2 1,1 0,-1 1,-1 5,0 1,-1 3,0 1,1 1,1 0,2 1,1 12,0 0,-1 1,-1 1,0 0,-3 1,-1 3,0 1,1 17,0 0,-1 1,-1 2,0 1,1 0,0 1,1 1,0 1,1 3,0 1,-1 4,0 1,1 1,1 0,-2 1,-1 7,0 0,-2 -15,0 -1,1 -5,0 -30,2 26,-3 -18,0 -1,1 -6,0 0,1 25,-2 -26,3Z"/>
<path onmouseover="hoverPath(evt)" onmouseout="recoverPath(evt)" fill="rgb(243,242,234)" d="M  237,24l 0,2 4,0 1,-1 3,0 1,-1 3,0 1,-1 5,0 0,-23 -45,0 0,3 1,1 0,3 1,1 0,5 -1,1 -1,0 3,-1 1,0 1,1 1,1 0,1 2,0 1,1 0,3 -1,1 0,1 1,0 1,1 1,0 1,-1 2,0 0,-2 1,-1 5,0 1,1 3,0 1,1 1,1 0,1 1,1Z"/>
<path onmouseover="hoverPath(evt)" onmouseout="recoverPath(evt)" fill="rgb(238,237,222)" d="M  96,253l 0,0 -1,-1 0,-1 -1,-1 0,-1 -1,-1 0,-1 -1,-1 -1,1 -1,0 -1,1 -1,0 -1,1 -1,0 -1,1 -1,0 -1,1 -1,0 -1,1 -1,0 0,3 17,0 0,-1 -1,-1Z"/>
<path onmouseover="hoverPath(evt)" onmouseout="recoverPath(evt)" fill="rgb(243,242,235)" d="M  132,125l 0,-2 1,-1 0,-1 -1,0 -1,-1 0,-2 1,-1 0,-1 -1,-1 0,-1 -1,-1 0,-2 -1,-1 0,-1 -1,-1 -1,0 -1,-1 0,-2 1,-1 -1,-1 -1,0 -1,-1 0,-2 1,-1 -1,-1 0,-2 -1,-1 0,-1 -1,-1 0,-1 -1,-1 -2,0 -1,-1 0,-2 1,-1 1,0 -1,-1 0,-2 -1,-1 0,-1 -1,-1 0,-2 -1,-1 0,-2 -1,-1 0,-1 -1,-1 0,-2 -2,0 -1,-1 -1,0 -1,-1 -1,1 -2,0 -1,1 -4,0 -1,1 -3,0 -1,1 -3,0 -1,1 -3,0 -1,1 -4,0 -1,1 -4,0 -1,1 -4,0 -1,1 -4,0 -1,1 -3,0 -1,1 -2,0 -1,1 -2,0 -1,1 -1,0 -1,1 -1,0 -1,1 -1,0 -1,1 -1,1 -1,1 -1,1 -1,1 -2,2 -1,1 -1,1 0,1 -1,1 0,1 -1,1 -1,1 0,1 -1,1 0,1 -1,1 0,1 -1,1 0,1 -1,1 0,1 -1,1 0,1 -1,1 0,1 -1,1 0,1 -1,1 0,3 -1,1 0,9 -1,1 0,10 -1,1 0,8 -1,1 0,7 -1,1 0,13 -1,1 0,26 3,0 1,-1 6,0 1,-1 7,0 1,-1 6,0 1,-1 6,0 1,-1 3,0 1,-1 0,-2 1,-1 2,0 1,-1 4,0 1,1 2,0 1,1 0,1 7,0 1,-1 8,0 1,-1 2,0 1,1 1,0 1,-1 12,0 1,-1 11,0 0,-1 -1,-1 0,-2 -1,-1 0,-2 1,-1 2,0 1,1 0,1 1,1 0,1 1,1 0,2 1,1 14,0 1,-1 13,0 -1,-1 0,-2 1,-1 0,-1 -1,-1 0,-1 -1,-1 0,-2 -1,-1 0,-1 -2,0 -1,-1 0,-1 -1,-1 0,-2 -1,-1 0,-1 -1,-1 0,-3 1,-1 0,-1 -1,-1 0,-1 -1,-1 0,-1 -1,-1 0,-2 -1,-1 -1,-1 0,-2 -1,-1 0,-1 -1,-1 0,-3 1,-1 -1,-1 0,-2 -1,-1 0,-1 -1,-1 0,-3 -1,-1 0,-2 -1,-1 -1,0 -1,-1 0,-2 -1,0 -1,-1 -12,50 -2,0 -1,-1 0,-2 1,-1 2,0 1,1 0,2 -1,1 12,-50Z"/>
<path onmouseover="hoverPath(evt)" onmouseout="recoverPath(evt)" fill="rgb(249,201,108)" d="M  167,196l 0,0 -1,-1 -7,0 0,3 2,0 1,1 2,0 1,1 0,1 1,1 0,2 1,1 0,1 1,1 0,2 1,1 0,1 1,1 0,2 1,1 0,1 1,1 0,2 1,1 0,1 1,1 0,2 1,1 0,1 1,1 0,2 1,1 0,1 1,1 0,2 1,1 0,1 1,1 0,2 1,1 0,2 2,0 1,1 0,2 1,1 0,1 1,1 0,1 1,1 0,2 1,1 0,2 11,0 0,-2 1,-1 -1,0 -1,-1 0,0 -1,-1 0,-1 -1,-1 0,-2 -1,-1 0,-1 -1,-1 0,-2 -1,-1 0,-2 -1,-1 0,-1 -1,-1 0,-2 -1,-1 0,-1 -1,-1 0,-3 1,-1 -1,-1 0,-2 -1,-1 0,-1 -1,-1 0,-1 -1,-1 0,-1 -1,-1 0,-2 -1,-1 0,-1 -1,-1 0,-1 -1,-1 0,-2 -1,-1 0,-1 -1,-1 0,-2 -1,-1 0,-1 -1,-1 0,-2 -1,0 -1,-1Z"/>
<path onmouseover="hoverPath(evt)" onmouseout="recoverPath(evt)" fill="rgb(243,242,235)" d="M  188,120l 0,0 -1,-1 0,-2 1,-1 2,0 1,1 0,2 -1,1 -2,0 5,-3 2,0 1,-1 0,0 -3,1 -5,3 8,-5 0,-1 -1,-1 0,0 1,2 -8,5 6,-7 -1,0 -1,1 2,-1 -6,7 4,-5 0,0 -4,5 0,15 1,1 0,2 -1,1 -2,0 -1,-1 0,-2 1,-1 2,0 0,-15 5,26 2,0 1,1 1,1 0,-1 1,-1 2,0 1,-1 1,-1 1,0 1,-1 2,0 1,-1 1,0 1,-1 3,0 1,-1 1,-1 4,0 1,1 2,0 1,-1 1,-1 1,0 1,-1 3,0 1,-1 1,0 1,-1 2,0 1,-1 1,-1 2,0 1,-1 2,0 1,-1 2,0 1,-1 0,-2 1,-1 1,0 1,-1 1,-1 1,0 1,-1 1,0 1,-1 3,0 0,-91 -4,0 -1,1 -3,0 -1,1 -2,0 -1,1 -3,0 -1,1 -4,0 -1,1 -3,0 -1,1 -3,0 -1,1 -3,0 -1,1 -3,0 -1,1 -3,0 -1,1 -3,0 -1,1 -3,0 -1,1 -3,0 -1,1 -3,0 -1,1 -3,0 -1,1 -3,0 -1,1 -4,0 -1,1 -3,0 -1,1 -3,0 -1,1 -2,0 -1,1 -3,0 -1,1 -3,0 -1,1 -3,0 -1,1 -2,0 -1,1 -3,0 -1,1 -3,0 -1,1 -2,0 -1,1 -3,0 -1,1 -3,0 -1,1 -3,0 -1,1 -2,0 -1,1 -3,0 -1,1 -4,0 0,1 1,0 1,1 1,0 1,1 0,2 -1,1 -1,0 1,1 0,2 1,1 0,1 1,1 0,1 1,1 0,1 1,1 0,1 1,1 1,0 1,1 0,3 -1,1 0,1 1,1 0,1 1,1 2,0 1,1 0,2 -1,1 -1,0 1,1 2,0 1,1 0,4 -1,1 1,1 0,2 1,1 0,1 1,1 2,0 1,1 0,2 -1,1 -1,0 1,1 0,1 1,1 0,1 1,1 0,2 1,1 0,2 1,1 0,1 2,0 1,1 0,2 -1,1 1,1 0,2 1,1 0,2 1,1 1,0 1,1 2,0 1,1 0,2 1,1 0,1 1,1 0,2 1,1 0,1 1,1 0,1 1,1 0,2 1,1 0,2 1,1 0,1 1,1 0,2 1,1 0,3 -1,1 0,1 1,1 0,1 1,1 0,2 1,1 0,1 1,1 0,2 1,1 0,1 1,1 0,1 1,1 0,2 1,1 0,1 41,0 1,1 0,-3 -1,-1 0,-1 -1,-1 0,-1 -1,-1 -1,-1 0,-1 -1,-1 -1,-1 0,-1 -1,-1 -1,-1 0,-1 -1,-1 -1,-1 0,-1 -1,-1 -1,-1 0,-1 -1,-1 -2,0 -1,-1 -1,-1 -1,-1 0,-1 -1,-1 -2,0 -1,-1 -1,-1 -1,-1 0,-3 -1,-1 0,-3 1,-1 -5,-26Z"/>
<path onmouseover="hoverPath(evt)" onmouseout="recoverPath(evt)" fill="rgb(180,203,236)" d="M  3,254l 0,1 11,0 0,-2 1,-1 1,-1 1,-1 1,-1 1,0 0,-2 1,-1 1,-1 0,-1 1,-1 0,-1 1,-1 1,-1 1,-1 -2,0 -1,-1 0,-4 1,-1 1,-1 0,-2 1,-1 0,-2 1,-1 0,-4 1,-1 0,-6 -1,-1 0,-5 -2,0 -1,1 -2,0 0,1 1,1 0,10 -1,1 0,4 -1,1 0,2 -1,1 0,1 -1,1 0,1 -1,1 0,1 -1,1 0,1 -1,1 -1,1 0,1 -1,1 -1,1 0,1 -1,1 -1,1 -1,1 0,1 -1,1 -1,1 -1,1 -1,1 -1,1 -1,1Z"/>
<path onmouseover="hoverPath(evt)" onmouseout="recoverPath(evt)" fill="rgb(251,251,248)" d="M  69,254l -1,0 0,1 10,0 0,-4 1,-1 1,0 1,-1 1,0 1,-1 1,0 1,-1 1,0 1,-1 1,0 1,-1 1,0 1,-1 2,0 1,1 1,1 0,1 1,1 0,1 1,1 0,1 1,0 1,1 0,3 1,0 0,-3 1,-1 -2,0 -1,-1 -1,-1 0,-1 -1,-1 0,-3 1,-1 0,-1 1,-1 0,-7 -1,-1 0,-5 1,-1 2,0 1,-1 -4,0 -1,-1 0,-3 -1,-1 0,-4 -1,-1 0,-5 -1,-1 0,-8 1,-1 6,0 1,1 0,0 1,1 0,2 -1,1 2,0 1,1 1,1 0,2 -1,1 2,0 1,1 1,1 0,1 1,1 1,1 0,1 1,1 0,4 2,0 1,1 1,1 0,1 1,1 1,1 0,1 1,1 1,1 0,1 1,1 1,1 0,2 -1,1 2,0 2,2 0,1 1,1 1,1 0,1 1,1 1,1 0,2 -1,1 2,0 1,1 0,3 -1,1 -1,0 -1,1 -1,0 -1,1 -2,0 0,1 15,0 0,-4 -1,-1 -2,0 -1,-1 -1,-1 0,-1 -1,-1 -1,-1 0,-2 1,-1 -2,0 -1,-1 -1,-1 0,-1 -1,-1 -1,-1 0,-1 -1,-1 -1,-1 0,-2 1,-1 -2,0 -1,-1 -1,-1 0,-1 -1,-1 -1,-1 0,-2 1,-1 -1,0 -1,-1 0,-2 1,-1 1,-1 -1,0 -1,-1 -2,0 -1,-1 -1,-1 0,-1 -2,0 -1,-1 -1,-1 0,-2 1,-1 -1,-1 0,0 -1,-1 0,-1 -2,0 -1,-1 -1,-1 0,-1 -1,-1 0,-1 -1,-1 -2,0 0,1 -32,53 52,-36 1,0 1,-1 1,0 -3,1 -52,36 27,-54 -1,0 -2,1 -1,0 -1,1 0,3 1,1 0,4 1,1 0,6 1,1 0,4 1,1 0,4 1,1 0,5 1,1 0,5 -1,1 -2,2 -1,0 -1,1 -1,0 -1,1 -1,0 -1,1 -1,0 -1,1 -1,0 -1,1 -1,0 -1,1 -1,0 -1,1 -2,0 -1,1 -1,0 -1,1 -2,0 -1,-1 0,2 -1,1 -1,0 26,-53 -27,54Z"/>
<path onmouseover="hoverPath(evt)" onmouseout="recoverPath(evt)" fill="rgb(242,240,232)" d="M  122,222l 0,2 -1,1 1,1 1,1 0,1 1,1 2,0 1,1 0,2 -1,1 1,1 0,0 1,1 0,1 1,1 1,1 0,1 1,1 2,0 1,1 0,2 -1,1 1,1 0,0 1,1 0,1 1,1 2,0 1,1 1,1 0,5 46,0 0,-1 -1,-1 0,-2 -1,-1 0,-1 -1,-1 0,-1 -1,-1 0,-2 -2,0 -1,-1 0,-2 -1,-1 0,-2 -1,-1 0,-1 -1,-1 0,-2 -1,-1 0,-1 -1,-1 0,-2 -1,-1 0,-1 -1,-1 0,-2 -1,-1 0,-1 -1,-1 0,-2 -1,-1 0,-1 -1,-1 0,-2 -1,-1 0,-1 -1,-1 0,-2 -1,-1 0,-1 -1,-1 0,-2 -1,-1 0,-1 -2,0 -1,-1 -28,0 0,1 1,1 0,3 -1,1 -2,0 -1,-1 0,-1 -1,-1 0,-1 -1,-1 0,-1 -1,-1 -2,0 0,1 -1,1 -17,0 1,1 0,1 1,1 2,0 1,1 0,1 1,1 1,1 0,2 -1,1 1,1 2,0 1,1 0,1 1,1 2,0 1,1 1,-1 4,0 1,1 0,2 -1,1 -1,0 -1,1 -2,0 -1,1 1,0 1,1Z"/>
<path onmouseover="hoverPath(evt)" onmouseout="recoverPath(evt)" fill="rgb(252,252,250)" d="M  189,198l 0,1 1,1 0,2 1,1 0,2 1,1 0,1 1,1 0,3 1,1 0,1 1,1 0,2 1,1 0,2 1,1 0,2 1,1 0,2 1,1 0,1 1,1 0,2 1,1 0,1 1,1 0,2 1,1 0,1 1,1 0,2 1,1 0,1 1,1 0,2 1,1 0,1 1,1 0,2 1,1 0,2 -1,1 0,1 3,0 0,-2 -1,-1 0,-2 -1,-1 0,-1 -1,-1 0,-2 -1,-1 0,-2 -1,-1 0,-1 -1,-1 0,-1 -1,-1 0,-2 -1,-1 0,-1 -1,-1 0,-2 -1,-1 0,-2 -1,-1 0,-1 -1,-1 0,-2 -1,-1 0,-2 -1,-1 0,-2 -1,-1 0,-1 -1,-1 0,-2 -1,-1 0,-2 -1,-1 0,-2 1,-1 12,0 1,1 0,1 1,1 0,2 1,1 1,1 0,3 1,1 0,-4 1,-1 1,0 0,-4 1,-1 -1,-1 0,-1 -1,-1 -1,-1 0,-4 -1,0 0,3 -1,1 -1,0 0,1 -1,1 -14,0 -1,-1 -1,-1 0,-2 -1,-1Z"/>
<path onmouseover="hoverPath(evt)" onmouseout="recoverPath(evt)" fill="rgb(243,241,232)" d="M  9,147l 0,0 -1,-1 0,-3 -1,2 0,1 -1,1 -1,0 0,1 -1,1 0,1 -1,1 -1,1 -2,0 0,43 3,0 0,-8 1,-1 2,0 1,1 0,5 1,1 0,5 8,0 1,-1 1,0 0,-24 1,-1 0,-9 1,-1 0,-9 1,-1 0,-5Z"/>
<path onmouseover="hoverPath(evt)" onmouseout="recoverPath(evt)" fill="rgb(239,223,138)" d="M  96,191l 2,0 1,1 3,0 1,-1 2,0 0,-1 1,-1 3,0 1,1 0,1 11,0 1,-1 11,0 0,-1 1,-1 10,0 1,-1 2,0 1,1 0,2 11,0 0,-1 1,-1 -2,0 -1,-1 0,-1 -1,1 -8,0 -52,4 48,-4 -1,0 -10,1 -7,0 -1,-1 -1,-1 0,1 -1,1 -11,0 -1,1 -1,0 34,-2 -48,4 9,-2 -6,0 -1,1 -3,0 -1,-1 -1,1 -8,0 -1,1 -7,0 4,1 0,2 1,-1 1,0 0,-1 2,-1 1,0 1,1 1,1 2,0 1,-1 3,0 1,-1 -1,-1 0,0 11,-1 -9,2Z"/>
<path onmouseover="hoverPath(evt)" onmouseout="recoverPath(evt)" fill="rgb(248,247,241)" d="M  176,22l 0,1 2,0 1,1 0,1 1,1 0,1 1,1 0,4 -1,1 3,0 1,1 0,1 1,-1 0,-1 -1,-1 0,-1 -1,-1 0,-1 -1,-1 0,-1 -1,-1 0,-1 -1,-1 0,-1 -1,-1 0,-2 1,-1 3,0 -1,-1 0,-2 -1,-1 0,-2 -1,-1 0,-1 -1,-1 0,-2 -1,-1 0,-1 -1,-1 0,-2 -1,-1 0,-2 -6,0 0,3 1,1 0,3 1,1 0,3 -1,1 2,0 1,1 0,2 1,1 0,1 1,1Z"/>
<path onmouseover="hoverPath(evt)" onmouseout="recoverPath(evt)" fill="rgb(243,241,232)" d="M  186,40l 1,0 1,-1 2,0 1,-1 3,0 1,-1 3,0 1,-1 3,0 1,-1 3,0 1,-1 3,0 1,-1 3,0 1,-1 3,0 1,-1 3,0 1,-1 3,0 1,-1 2,0 1,-1 3,0 1,-1 1,0 0,-2 -1,-1 0,-1 -1,-1 -3,0 -1,-1 -3,0 0,2 -1,1 -2,0 -1,1 -3,0 -1,-1 -1,0 -1,-1 0,-3 1,-1 0,-1 -2,0 -1,-1 0,-1 -1,-1 -1,1 -3,0 -1,-1 0,-2 1,-1 1,0 0,-3 -1,-1 0,-3 -1,-1 0,-4 -30,0 0,1 1,1 0,2 1,1 0,1 1,1 0,2 1,1 0,1 1,1 0,2 1,1 0,2 1,1 0,2 -1,1 -3,0 1,1 0,1 1,1 0,1 1,1 0,1 1,1 0,1 1,1 0,1 1,1 0,3 -1,1 -1,1 -2,0 -1,-1 0,-1 -4,0 -1,1 -4,0 -1,-1 -2,0 0,2 -1,1 -3,0 -1,-1 -2,0 0,2 -1,1 -3,0 -1,-1 -1,0 0,2 -1,1 -2,0 0,1 -1,1 -2,0 -1,1 0,2 -1,1 1,1 3,0 1,-1 2,0 1,-1 3,0 1,-1 3,0 1,-1 2,0 1,-1 3,0 1,-1 3,0 1,-1 3,0 1,-1 3,0 1,-1Z"/>
<path onmouseover="hoverPath(evt)" onmouseout="recoverPath(evt)" fill="rgb(236,228,205)" d="M  187,199l -4,0 0,2 -1,1 0,1 1,1 0,1 1,1 0,2 1,1 0,1 1,1 0,1 1,1 0,2 1,1 0,1 1,1 0,1 1,1 0,1 1,1 0,2 1,1 0,2 -1,1 0,1 1,1 0,1 1,1 0,2 1,1 0,1 1,1 0,2 1,1 0,2 1,1 0,1 1,1 0,2 1,1 0,1 1,1 1,0 1,1 0,2 -1,1 0,1 5,0 0,-2 1,-1 -1,-1 0,-2 -1,-1 0,-1 -1,-1 0,-2 -1,-1 0,-1 -1,-1 0,-2 -1,-1 0,-1 -1,-1 0,-2 -1,-1 0,-1 -1,-1 0,-2 -1,-1 0,-1 -1,-1 0,-2 -1,-1 0,-2 -1,-1 0,-2 -1,-1 0,-2 -1,-1 0,-1 -1,-1 0,-3 -1,-1 0,-1 -1,-1 0,-2 -1,-1 0,-2 -1,-1Z"/>
<path onmouseover="hoverPath(evt)" onmouseout="recoverPath(evt)" fill="rgb(241,240,232)" d="M  199,149l 0,0 -1,1 -2,0 -1,-1 -1,-1 0,1 1,1 0,3 1,1 1,1 2,0 1,1 1,1 0,1 1,1 1,1 2,0 1,1 1,1 0,1 1,1 1,1 0,1 1,1 1,1 0,1 1,1 1,1 0,1 1,1 1,1 0,1 1,1 1,1 0,1 1,1 0,1 1,1 0,2 14,0 0,-4 1,-1 2,0 1,1 0,4 6,0 1,-1 4,0 1,1 6,0 0,-2 -3,0 -1,-1 0,-3 1,-1 0,-2 -1,-1 0,-2 -1,-1 0,-3 -1,-1 0,-2 -1,-1 0,-3 -1,-1 0,-4 -1,-1 0,-15 1,-1 0,-2 1,-1 1,-1 2,0 1,1 1,1 0,2 -1,1 0,1 -1,1 0,10 1,1 0,4 1,1 0,4 1,1 0,1 1,0 0,-38 -2,0 -1,1 -1,0 -1,1 -1,0 -1,1 -1,1 -1,0 0,2 -1,1 -1,1 -2,0 -1,1 -2,0 -1,1 -2,0 -1,1 -1,1 -2,0 -1,1 -1,0 -1,1 -3,0 -1,1 -1,0 -2,2 -4,0 -1,-1 -2,0 -1,1 0,0 -1,1 -3,0 -1,1 -1,0 -1,1 -2,0 -1,1 -1,0 -1,1 -1,1 -1,0 -1,1Z"/>
<path onmouseover="hoverPath(evt)" onmouseout="recoverPath(evt)" fill="rgb(243,241,232)" d="M  214,198l -1,0 0,2 1,1 0,0 1,1 0,1 1,1 0,2 -1,1 0,4 -1,1 -1,0 0,8 1,1 0,1 1,1 0,2 -1,1 -2,0 -1,-1 0,-1 -1,-1 0,-1 -1,-1 0,-5 -1,-1 0,-3 -1,-1 -1,-1 0,-2 -1,-1 0,-1 -10,0 1,1 0,2 1,1 0,2 1,1 0,1 1,1 0,2 1,1 0,2 1,1 0,2 1,1 0,1 1,1 0,2 1,1 0,2 1,1 0,1 1,1 0,2 1,1 0,1 1,1 0,1 1,1 0,2 1,1 0,2 1,1 0,1 1,1 0,2 1,1 0,3 42,0 0,-58 -6,0 0,5 -1,1 -2,0 -1,-1 0,-3 -1,-1 -2,0 -1,1 -5,0 -1,-1 -1,0 -1,-1 -1,-1 0,1 -1,1 -17,0 30,5 1,1 0,2 -1,1 -1,0 -1,1 -2,0 -1,-1 0,-2 1,-1 1,0 1,-1 2,0 -30,-5 2,31 2,0 1,1 0,1 1,1 0,2 -1,1 -2,0 -1,-1 0,-1 -1,-1 0,-2 1,-1 -2,-31Z"/>
</svg>