<svg width="256" height="256" xmlns="http://www.w3.org/2000/svg"><script> 
var tempColor;
function hoverPath(evt){
obj = evt.target;
tempColor = obj.getAttribute("fill");
obj.setAttribute("fill","red");
//alert(tempColor);
//obj.setAttribute("stroke","red");}
function recoverPath(evt){
obj = evt.target;
obj.setAttribute("fill", tempColor);
//obj.setAttribute("stroke", tempColor);
}</script><path onmouseover="hoverPath(evt)" onmouseout="recoverPath(evt)" fill="rgb(241,239,229)" d="M  40,94l 0,0 -1,1 -2,0 -1,1 -6,0 -1,1 -1,0 0,1 1,1 1,0 1,1 1,1 1,1 0,10 1,1 0,3 1,1 0,2 1,1 0,2 1,1 0,2 1,1 1,0 1,1 0,2 1,1 0,2 1,0 1,1 0,1 1,1 4,0 0,-3 -1,-1 0,-6 1,-1 2,0 1,1 0,3 1,1 0,5 1,1 1,1 15,0 1,1 7,0 0,-1 1,-1 0,-1 -1,-1 0,-2 1,-1 0,-1 1,-1 1,-1 0,-2 1,-1 2,0 1,1 0,5 -1,1 -1,1 0,5 5,0 1,-1 2,0 1,-1 2,0 0,-4 -1,-1 0,-4 -1,-1 0,-3 -1,-1 -4,0 -1,-1 0,-2 1,-1 1,0 1,-1 1,0 0,-1 -1,0 -1,-1 -5,0 -1,-1 0,-2 1,-1 5,0 0,-3 -1,-1 0,-2 -1,-1 0,-2 -1,-1 0,-2 -1,-1 0,-2 -1,-1 0,-2 -1,-1 0,-2 -1,-1 0,-2 -1,-1 -2,0 -1,1 -3,0 -1,1 -3,0 -1,1 -2,0 0,1 -1,1 -2,0 -1,-1 -1,1 -5,0 -1,1 -2,0 -1,1 -3,0 -1,1 -7,0 -1,1Z"/>
<path onmouseover="hoverPath(evt)" onmouseout="recoverPath(evt)" fill="rgb(243,241,233)" d="M  170,89l 0,3 1,1 0,2 1,1 0,2 1,1 0,2 2,0 1,1 0,2 1,1 1,1 1,0 1,-1 13,0 1,-1 6,0 1,-1 3,0 0,-5 1,-1 2,0 1,1 0,2 1,1 2,0 1,-1 6,0 1,1 0,2 -1,1 -2,0 0,12 1,1 0,1 1,0 1,1 0,4 -1,1 -3,0 -1,1 -1,0 -1,1 -1,0 -1,1 -5,0 0,2 1,0 1,1 1,1 1,0 1,1 5,0 0,-1 1,-1 2,0 0,-1 1,-1 1,0 0,-1 1,-1 1,-1 1,-1 1,-1 0,-10 1,-1 0,-8 -2,0 -1,-1 -1,-1 0,-3 1,-1 1,0 1,-1 3,0 -1,-1 0,-4 -1,0 -1,1 -2,0 -1,-1 0,-2 1,-1 0,-3 -1,-1 0,-3 1,-1 0,-1 -2,0 -1,1 -3,0 -1,1 -3,0 -1,1 -3,0 -1,1 -5,0 -1,-1 -1,0 -1,-1 -1,-1 0,-1 -1,-1 -1,0 -1,-1 -1,-1 -1,-1 -1,-1 0,-1 -1,-1 0,-2 -1,-1 0,-1 -2,0 -1,-1 0,-2 -1,-1 0,-3 1,-1 0,-2 -1,0 0,1 -1,1 -4,0 -1,1 -3,0 -1,1 -4,0 -1,1 -2,0 0,1 -1,1 0,3 -1,1 -2,0 -1,-1 0,-1 -1,-1 0,-1 -4,0 -1,1 -4,0 -1,1 -4,0 -1,1 -4,0 -1,1 -2,0 -1,1 0,13 -1,1 0,3 2,0 1,1 1,0 0,-1 1,-1 3,0 1,1 1,0 1,-1 1,0 1,-1 7,0 1,1 1,0 0,-1 1,-1 5,0 1,1 1,1 0,1 1,1Z"/>
<path onmouseover="hoverPath(evt)" onmouseout="recoverPath(evt)" fill="rgb(240,239,230)" d="M  41,0l -1,0 0,8 -1,1 0,1 -1,1 -2,0 0,1 -1,1 -1,1 0,1 1,1 0,4 -1,1 0,5 -1,1 0,2 1,1 0,2 1,1 1,1 2,0 1,1 4,0 1,1 3,0 1,1 1,0 1,1 2,0 1,1 1,0 1,1 1,1 1,1 0,1 1,1 1,1 0,3 1,1 0,3 1,1 0,6 -1,1 0,1 -1,1 -1,0 0,1 -1,1 0,1 -1,1 -1,0 -1,1 0,1 -1,1 -2,0 -1,1 -3,3 -2,0 -1,-1 0,-1 -1,1 0,1 -1,1 0,10 1,0 1,1 0,-2 1,-1 5,0 1,-1 3,0 1,-1 3,0 1,-1 4,0 1,-1 3,0 1,-1 3,0 1,-1 2,0 0,-1 -1,-1 0,-2 -1,-1 0,-1 -1,-1 0,-4 -1,-1 0,-2 -1,-1 0,-3 -1,-1 0,-3 -2,0 -1,-1 0,-6 -1,-1 0,-2 -1,-1 0,-1 -1,-1 0,-3 -1,-1 0,-3 -1,-1 0,-2 -1,-1 0,-2 -1,-1 0,-3 -1,-1 0,-2 -1,-1 0,-3 -1,-1 0,-2 -1,-1 0,-2 -1,-1 0,-3 -1,-1 0,-2 -1,-1 0,-3Z"/>
<path onmouseover="hoverPath(evt)" onmouseout="recoverPath(evt)" fill="rgb(243,242,233)" d="M  130,1l 0,1 1,1 0,2 1,1 0,3 1,1 0,2 1,1 0,2 1,1 0,3 1,1 0,1 6,0 1,1 2,0 0,-2 1,-1 3,0 1,-1 3,0 1,-1 4,0 1,1 2,0 0,-2 1,-1 5,0 1,1 3,0 1,1 1,1 0,2 2,0 1,1 0,2 -1,1 0,1 5,0 0,-2 1,-1 3,0 1,-1 3,0 1,-1 3,0 1,1 2,0 1,-1 0,-1 -1,-1 0,-1 -1,-1 -1,-1 -1,-1 0,-1 -1,-1 0,-1 -2,0 -1,-1 -1,-1 0,-3 1,-1 0,-1 1,-1 1,-1 1,0 1,-1 1,0 0,-1 -62,0 -1,1Z"/>
<path onmouseover="hoverPath(evt)" onmouseout="recoverPath(evt)" fill="rgb(244,243,235)" d="M  166,177l -2,0 0,10 -1,1 0,14 -1,1 0,7 1,1 2,0 1,1 0,2 4,0 1,-1 7,0 1,1 0,2 4,0 1,1 5,0 1,-1 6,0 1,1 0,2 5,0 1,1 5,0 1,1 4,0 0,-1 1,-1 1,0 1,-1 0,-1 -1,-1 0,-4 1,-1 0,-3 1,-1 0,-5 1,-1 0,-5 1,-1 0,-10 1,-1 0,-16 1,-1 0,-8 -1,1 -1,0 -1,1 -2,0 -1,1 -1,0 -1,1 -1,0 -1,1 -2,0 -1,1 -1,0 -1,1 -1,0 -1,1 -1,0 -1,1 -2,0 -1,1 -2,0 -1,1 -1,0 -1,1 -2,0 -1,1 -2,0 -1,1 -2,0 -1,1 -3,0 -1,1 -2,0 -1,1 -11,0 -1,1Z"/>
<path onmouseover="hoverPath(evt)" onmouseout="recoverPath(evt)" fill="rgb(244,243,235)" d="M  209,1l 0,0 1,1 0,1 1,1 0,1 1,1 0,2 1,1 0,1 1,1 0,2 1,1 0,2 1,1 0,2 1,1 0,1 1,1 0,2 1,1 0,2 1,1 0,1 1,1 0,3 1,1 0,1 1,1 0,2 1,1 0,2 1,-1 3,0 1,-1 3,0 1,-1 4,0 1,1 1,-1 2,0 0,-1 -1,-1 0,-1 -1,-1 0,-2 -1,-1 0,-2 -1,-1 0,-2 -2,0 -1,-1 0,-2 -1,-1 0,-3 -1,-1 0,-6 1,-1 0,-4 1,-1 0,-1 1,-1 0,-4 -25,0 -1,1Z"/>
<path onmouseover="hoverPath(evt)" onmouseout="recoverPath(evt)" fill="rgb(244,243,237)" d="M  234,129l 0,0 -1,1 0,12 -1,1 0,4 23,0 0,-17 -3,0 -1,-1 -4,0 -1,-1 -1,0 0,1 -1,1 -6,0 -1,-1 0,-3 -3,0Z"/>
<path onmouseover="hoverPath(evt)" onmouseout="recoverPath(evt)" fill="rgb(249,238,153)" d="M  26,114l 0,2 1,1 0,2 -1,1 0,2 1,1 0,2 1,1 0,2 1,1 0,2 1,1 0,2 1,1 0,3 1,0 1,1 1,1 0,1 1,1 0,3 -1,1 1,1 0,2 -1,1 0,1 2,0 1,1 0,2 1,1 0,4 -1,1 0,1 -1,1 1,1 0,5 -1,1 0,2 -1,1 -6,0 4,1 0,1 1,1 0,2 -1,1 0,3 -1,1 0,14 -1,1 0,2 -1,1 0,1 -1,1 0,1 -1,1 0,1 -1,1 0,1 -1,1 -1,1 0,1 -1,1 0,1 -1,1 0,1 -2,2 0,1 1,1 0,2 -1,1 -2,0 -1,-1 -1,0 -1,-1 -1,0 -1,-1 -3,0 -1,-1 -4,0 -1,-1 -1,0 -1,-1 -1,-1 -2,0 0,1 2,0 6,3 1,0 1,1 0,2 1,-1 2,0 1,1 0,2 1,1 0,3 -1,1 -1,1 0,1 -1,1 -1,1 0,1 -1,1 -1,1 0,1 -1,1 -1,1 0,1 -1,1 0,1 -2,2 0,1 -1,1 -1,1 -2,0 0,9 8,0 0,-2 1,-1 1,-1 0,-1 1,-1 1,-1 0,-1 1,-1 0,-1 1,-1 1,-1 0,-1 2,-2 0,-1 2,-2 0,-1 1,-1 0,-1 1,-1 1,-1 0,-1 1,-1 1,-1 1,0 0,-1 -1,0 -1,-1 0,-3 1,-1 4,0 0,-1 1,-1 0,-1 1,-1 0,-1 1,-1 1,-1 -1,-1 0,-2 1,-1 1,-1 1,0 0,-1 1,-1 4,0 1,1 0,2 3,0 1,-1 0,-13 -1,-1 0,-5 1,-1 0,-3 1,-1 0,-3 1,-1 0,-7 1,-1 0,-16 -1,-1 0,-3 -1,-1 0,-3 -1,-1 0,-6 -2,0 -1,-1 0,-4 -1,-1 0,-1 -1,-1 -1,-1 0,-2 1,-1 0,-1 -1,-1 0,-2 -1,0 -1,-1 -1,-1 0,-2 -1,-1 0,-2 -1,-1 0,-2 -1,-1 0,-3Z"/>
<path onmouseover="hoverPath(evt)" onmouseout="recoverPath(evt)" fill="rgb(253,253,253)" d="M  39,226l -2,0 2,1 0,0 1,1 1,0 0,-1 1,-1 1,0 1,-1 4,0 1,-1 6,0 1,1 1,0 1,1 0,-2 1,-1 3,0 1,-1 4,0 1,-1 3,0 1,-1 2,0 1,-1 2,0 1,-1 2,0 1,-1 3,0 1,-1 7,0 1,-1 6,0 1,1 2,0 1,1 1,0 1,1 1,0 0,-1 -1,-1 -1,0 -1,-1 -1,0 -1,-1 -1,-1 0,-2 1,-1 0,-2 1,-1 1,-1 4,0 0,-1 -3,0 -1,-1 -1,0 -1,-1 0,-8 -1,6 0,8 -1,1 0,2 -1,1 -1,0 -1,1 -4,0 -1,1 -6,0 -1,1 -3,0 -1,1 -3,0 -1,1 -6,0 -1,-1 0,2 -1,1 -1,0 -1,1 -4,0 -1,1 -8,0 -1,1 -4,0 -1,1 -3,0 -1,1 -3,0 -1,1 69,-20 0,1 4,0 0,-1 -4,0 -69,20Z"/>
<path onmouseover="hoverPath(evt)" onmouseout="recoverPath(evt)" fill="rgb(243,242,234)" d="M  165,216l 0,0 -1,-1 0,-2 -2,0 -1,-1 -1,-1 0,-8 -1,9 0,18 -1,1 0,5 -1,1 -3,0 3,1 2,0 1,-1 3,0 1,1 0,2 2,0 1,1 2,0 1,1 3,0 1,-1 4,0 1,1 0,2 2,0 1,1 2,0 1,1 0,4 -2,2 0,3 16,0 0,-2 1,-1 1,-1 -2,0 -1,-1 -2,0 -1,-1 0,-2 1,-1 5,0 1,1 1,0 0,-2 1,-1 1,-1 0,-2 1,-1 0,-1 1,-1 0,-1 1,-1 0,-1 1,-1 0,-2 1,-1 0,-2 1,-1 0,-2 1,-1 0,-2 -4,0 -1,-1 -5,0 -1,-1 -5,0 -1,-1 0,-2 -4,0 -1,1 -7,0 -1,-1 -4,0 -1,-1 0,-2 -5,0 -1,1Z"/>
<path onmouseover="hoverPath(evt)" onmouseout="recoverPath(evt)" fill="rgb(243,242,234)" d="M  219,234l 0,1 -1,1 0,2 -1,1 0,1 -1,1 0,2 -1,1 0,1 -1,1 0,1 -1,1 0,1 -1,1 0,1 -1,1 0,3 44,0 0,-38 -2,0 -1,-1 -27,0 0,1 -1,1 0,2 -1,1 0,4 -1,1 -1,0 0,2 -1,1 0,4 -1,1 29,18 -2,0 -1,-1 0,-2 1,-1 0,-1 1,-1 2,0 1,1 0,2 -1,1 0,1 -1,1 -29,-18Z"/>
<path onmouseover="hoverPath(evt)" onmouseout="recoverPath(evt)" fill="rgb(240,237,231)" d="M  61,225l -1,0 0,3 -1,1 -2,0 -1,-1 0,-1 -1,0 -1,-1 -4,0 -1,1 -4,0 -1,1 -1,0 0,1 -1,1 -3,0 -1,-1 -1,-1 -1,0 -1,-1 -3,0 -1,-1 -1,0 -1,-1 -4,0 0,1 1,0 1,1 0,3 -1,1 -1,0 -1,1 0,1 -1,1 -1,1 0,1 -1,1 0,1 -1,1 -1,1 0,1 -1,1 -1,1 0,1 -1,1 -1,1 0,1 -1,1 0,1 -1,1 -1,1 0,1 -1,1 -1,1 0,1 67,0 0,-1 -1,0 -1,-1 -3,0 -1,-1 0,-2 1,-1 6,0 1,1 0,-2 1,-1 2,0 0,-2 1,-1 3,0 1,-1 -1,-1 0,-3 1,-1 1,-1 1,-1 0,-1 1,-1 2,-2 1,-1 1,-1 1,-1 1,0 0,-1 1,-1 0,-1 1,-1 1,-1 1,-1 1,-1 1,-1 -1,-1 0,-2 -2,0 -1,-1 -4,0 -1,1 -7,0 -1,1 -3,0 -1,1 -2,0 -1,1 -2,0 -1,1 -2,0 -1,1 -3,0 -1,1 -4,0 -1,1 -2,0 -18,6 0,-1 1,-1 2,0 1,1 0,2 -1,1 -2,0 -1,-1 0,-1 18,-6 0,9 2,0 1,1 0,2 -1,1 -2,0 -1,-1 0,-2 1,-1 0,-9 -12,15 2,0 1,1 0,2 -1,1 -2,0 -1,-1 0,-2 1,-1 12,-15Z"/>
<path onmouseover="hoverPath(evt)" onmouseout="recoverPath(evt)" fill="rgb(244,242,235)" d="M  132,179l 0,3 -1,1 0,6 -1,1 0,3 -1,1 0,3 -1,1 0,2 -1,1 0,2 -1,1 0,2 -1,1 0,1 -1,1 0,2 -1,1 0,1 -1,1 0,1 -1,1 -1,1 0,1 -1,1 0,1 -1,1 -1,1 0,1 -1,1 -1,1 0,1 1,0 1,1 1,0 1,1 2,0 1,1 1,0 1,1 2,0 1,1 0,2 1,1 5,0 1,1 12,0 1,1 5,0 1,-1 3,0 0,-5 1,-1 0,-18 1,-1 0,-8 1,-1 2,0 0,-13 -1,-1 0,-10 -3,0 -1,1 -23,0 -1,1Z"/>
<path onmouseover="hoverPath(evt)" onmouseout="recoverPath(evt)" fill="rgb(177,201,234)" d="M  133,147l 0,2 -1,1 0,6 2,-7 0,0 1,-1 5,0 1,-1 1,0 1,-1 1,-1 1,0 1,-1 1,-1 1,-1 0,-1 1,-1 1,-1 1,0 1,-1 1,-1 1,-1 1,-1 2,0 1,-1 1,0 1,-1 1,0 1,-1 4,0 1,-1 11,0 1,1 3,0 1,1 8,0 1,-1 7,0 1,1 0,2 1,-1 2,0 1,1 1,0 1,1 1,1 1,1 3,0 1,1 2,0 1,-1 5,0 0,-1 1,-1 1,0 0,-2 1,-1 2,0 0,-8 -1,1 0,0 -1,1 -1,1 0,1 -1,1 -1,0 0,1 -1,1 -2,0 0,1 -1,1 -7,0 -1,-1 -1,0 -1,-1 -1,-1 -1,0 -1,-1 0,-6 -1,-1 0,-3 -3,0 -1,-1 0,1 2,1 0,3 1,1 0,2 -1,1 -22,0 -1,-1 -2,0 -1,1 -6,0 -1,1 -4,0 -1,1 -4,0 -1,1 -3,0 -1,1 -1,0 0,1 -1,1 -2,0 0,1 -1,1 -1,1 -1,1 -1,0 0,1 -1,1 -1,1 -1,1 -1,0 0,1 -1,1 -1,0 -1,1 -5,0Z"/>
<path onmouseover="hoverPath(evt)" onmouseout="recoverPath(evt)" fill="rgb(242,240,231)" d="M  139,91l 0,6 -1,1 0,10 -1,1 0,6 1,0 1,1 2,0 1,-1 2,0 1,-1 2,0 1,-1 2,0 1,-1 5,0 1,1 0,2 7,0 1,-1 3,0 2,2 0,8 2,0 1,1 0,1 1,-1 4,0 1,1 20,0 -1,-1 0,-3 -1,0 -1,-1 0,-2 -1,-1 0,-3 -1,-1 0,-4 1,-1 -8,0 -1,1 -1,0 0,5 1,1 3,0 1,1 1,1 0,4 -1,1 -1,1 -5,0 -1,-1 -1,-1 0,-1 -1,-1 0,-9 -1,-1 -3,0 -1,1 -8,0 -1,-1 0,-2 1,-1 4,0 0,-4 -1,-1 0,-2 -1,-1 0,-2 -1,-1 0,-2 -1,-1 0,-3 -1,-1 0,-1 -1,-1 -3,0 0,1 -1,1 -3,0 -1,-1 -5,0 -1,1 -1,0 -1,1 -3,0 -1,-1 -1,0 0,1 -1,1 -3,0 -1,-1 -1,1Z"/>
<path onmouseover="hoverPath(evt)" onmouseout="recoverPath(evt)" fill="rgb(243,242,234)" d="M  192,59l -1,0 0,2 -1,1 -1,0 -1,1 0,1 1,1 0,2 2,0 1,1 0,1 1,1 0,2 1,1 0,1 1,1 1,1 1,1 1,0 1,1 1,1 0,1 1,1 1,0 1,1 3,0 1,-1 3,0 1,-1 3,0 1,-1 3,0 1,-1 4,0 1,1 0,3 -1,1 0,1 1,1 0,5 -1,1 2,-1 1,0 0,-14 -1,0 -1,-1 0,-2 -1,-1 0,-3 -1,-1 0,-2 -1,-1 0,-3 -1,-1 0,-2 -1,-1 0,-2 -1,-1 0,-2 -3,0 -1,1 -3,0 -1,1 -3,0 -1,1 -4,0 -1,1 -3,0 -1,1 -3,0 -1,1Z"/>
<path onmouseover="hoverPath(evt)" onmouseout="recoverPath(evt)" fill="rgb(244,243,235)" d="M  249,0l -12,0 0,5 -1,1 0,1 -1,1 0,4 -1,1 0,4 1,1 0,3 1,1 0,2 2,0 1,1 0,2 1,1 0,2 1,1 0,2 1,1 0,1 1,1 1,0 1,-1 3,0 1,-1 3,0 1,-1 2,0 0,-33Z"/>
<path onmouseover="hoverPath(evt)" onmouseout="recoverPath(evt)" fill="rgb(251,251,249)" d="M  111,140l -1,0 -1,-1 -1,0 -1,-1 -2,0 -1,-1 -4,0 -1,-1 0,-3 -2,0 -1,-1 0,-7 1,-1 2,0 1,-1 3,0 1,-1 2,0 0,-5 -1,-1 0,0 -1,-1 -1,0 -1,1 -3,0 -1,1 -4,0 -1,-1 -1,-1 0,-2 -1,-1 0,-3 -1,-1 0,-2 -1,-1 0,-2 -1,-1 0,-2 -1,-1 0,-2 -1,-1 0,-2 -1,-1 0,-2 -1,-1 0,-2 -1,-1 0,-3 -1,-1 -1,0 0,1 1,1 0,2 1,1 0,2 1,1 0,2 1,1 0,2 1,1 0,2 1,1 0,2 1,1 0,2 1,1 0,5 -1,1 0,0 1,1 1,0 1,1 0,3 -1,1 -1,0 -1,1 3,0 1,1 1,1 0,3 1,1 0,4 1,1 0,6 -1,1 -2,0 -1,1 -2,0 -1,1 -7,0 -1,-1 0,-7 -1,1 2,-2 -1,0 1,-1 1,0 0,-3 -3,11 0,1 -1,1 -9,0 -1,-1 -15,0 -1,-1 -1,-1 -1,-1 0,-5 -1,-1 0,1 1,6 -1,1 -6,0 -1,-1 -1,-1 0,-1 -1,0 2,3 1,1 9,0 10,1 6,0 3,1 8,0 1,1 1,-1 30,0 -12,-2 0,0 12,2 2,1 1,1 2,0 1,1 3,0 0,-1 -3,0 -3,-1 -1,0 -2,-1Z"/>
<path onmouseover="hoverPath(evt)" onmouseout="recoverPath(evt)" fill="rgb(242,240,231)" d="M  109,233l -1,0 -1,1 0,2 -1,1 -1,1 -1,0 -1,1 -1,0 0,1 -1,1 -1,1 1,0 1,1 1,0 1,1 1,1 1,0 1,1 1,0 1,1 0,2 1,1 1,0 1,-1 2,0 1,1 1,0 1,1 1,0 1,1 1,1 0,2 18,0 0,-2 1,-1 -1,-1 0,-1 -1,0 -1,-1 0,-2 -1,0 -1,-1 -1,-1 -1,-1 -1,-1 -1,-1 -1,-1 -1,-1 -1,-1 0,-1 -1,0 -1,-1 -1,-1 0,-2 1,-1 0,-1 -2,0 -1,-1 -1,0 -1,-1 -2,0 -1,-1 -1,0 -1,-1 -1,0 -1,-1 -1,0 0,1 -1,1 0,1 -1,1 0,1 -1,1 13,16 -1,-1 -1,0 -1,-1 0,-2 1,-1 2,0 1,1 1,0 1,1 1,0 1,1 0,2 -1,1 -2,0 -1,-1 -1,0 -13,-16 3,11 0,-2 1,-1 2,0 1,1 0,2 -1,1 -2,0 -1,-1 -3,-11Z"/>
<path onmouseover="hoverPath(evt)" onmouseout="recoverPath(evt)" fill="rgb(243,242,234)" d="M  134,156l 0,1 -1,1 0,10 20,0 1,1 1,-1 3,0 1,-1 5,0 0,-5 1,-1 2,0 1,1 0,5 1,0 1,-1 4,0 1,-1 5,0 1,-1 3,0 1,-1 2,0 1,-1 1,0 1,-1 2,0 1,-1 1,0 0,-2 1,-1 2,0 1,1 0,1 1,0 0,-1 1,-1 2,0 1,-1 1,0 1,-1 1,0 1,-1 2,0 1,-1 1,0 1,-1 0,-1 -1,-1 0,-1 -1,-1 0,-2 1,-1 2,0 1,1 0,1 1,1 0,1 1,1 2,0 1,-1 2,0 1,-1 0,-4 1,-1 0,-5 -1,0 0,1 -1,1 -5,0 -1,1 -4,0 -1,-1 -3,0 -1,-1 -1,-1 -1,-1 -1,0 -1,-1 -1,1 -2,0 -1,-1 0,-2 -5,0 -1,1 -10,0 -1,-1 -3,0 -1,-1 -9,0 -1,1 -4,0 -1,1 -1,0 -1,1 -1,0 -1,1 -2,0 -1,1 -3,3 -1,0 -1,1 0,1 -1,1 -3,3 -1,0 -1,1 -1,1 -1,0 -1,1 -5,0 -1,1 -1,0Z"/>
<path onmouseover="hoverPath(evt)" onmouseout="recoverPath(evt)" fill="rgb(244,242,235)" d="M  137,28l 0,0 1,1 0,4 1,1 0,3 1,1 0,14 1,1 0,7 1,0 1,-1 4,0 1,-1 4,0 1,-1 4,0 1,-1 3,0 1,-1 3,0 1,-1 5,0 1,-1 3,0 1,-1 3,0 1,-1 3,0 1,-1 4,0 1,-1 3,0 1,-1 0,-2 1,-1 2,0 1,1 1,0 1,1 1,0 0,-1 1,-1 0,-1 -1,-1 0,-1 -1,-1 0,-2 1,-1 2,0 1,1 0,1 1,1 0,1 1,1 0,1 1,1 2,0 1,-1 3,0 1,-1 1,0 0,-2 -1,-1 0,-2 -1,-1 0,-2 -1,-1 0,-1 -1,-1 0,-2 -1,-1 0,-2 -1,-1 0,-2 -1,-1 0,-2 -1,-1 0,-1 -1,-1 0,-2 -1,-1 0,-2 -1,-1 0,-2 -1,-1 0,-1 -1,-1 0,-1 -1,-1 0,-2 -1,-1 0,-2 -4,0 0,2 -1,1 -1,0 -1,1 -1,0 -1,1 0,1 -1,1 0,1 1,1 2,0 1,1 0,1 1,1 0,1 1,1 1,1 1,1 0,1 1,1 0,3 -1,1 -1,1 -4,0 -1,-1 -1,0 -1,1 -3,0 -1,1 -3,0 0,2 -1,1 -7,0 -1,-1 0,-3 1,-1 -2,0 -1,-1 0,-2 -1,-1 -3,0 -1,-1 -3,0 0,2 -1,1 -4,0 -1,-1 -2,0 -1,1 -3,0 -1,1 -3,0 0,2 -1,1 -3,0 -1,1 -2,0 -1,1 -2,0Z"/>
<path onmouseover="hoverPath(evt)" onmouseout="recoverPath(evt)" fill="rgb(246,235,145)" d="M  142,170l -10,0 -1,-1 0,-11 -1,-1 0,-8 1,-1 0,-4 1,-1 1,0 0,-7 1,-1 0,-2 1,-1 1,-1 -1,0 -1,-1 0,-6 -1,-1 0,-2 1,-1 0,-2 1,-1 0,-9 1,-1 0,-10 1,-1 0,-12 1,-1 0,-13 2,-2 2,0 1,-1 4,0 1,-1 4,0 1,-1 4,0 1,-1 6,0 1,1 0,1 1,1 0,-2 1,-1 0,-1 1,-1 2,0 1,-1 4,0 1,-1 3,0 1,-1 4,0 0,-1 1,-1 3,0 1,1 0,2 1,-3 2,0 1,-1 3,0 1,-1 3,0 1,-1 4,0 1,-1 3,0 1,-1 3,0 1,-1 5,0 1,1 0,2 1,1 0,2 1,1 0,2 1,1 0,3 1,1 0,2 1,1 0,3 1,1 0,2 1,0 1,1 0,20 1,1 0,2 -1,1 -3,0 -1,1 -1,0 0,1 1,1 2,0 1,1 0,10 -1,1 0,9 1,1 0,10 -1,1 -2,0 0,1 1,1 0,7 -1,1 0,4 -1,1 -1,1 -2,0 -1,1 -4,0 -1,-1 0,2 -1,1 -1,1 -1,0 -1,1 -2,0 -1,1 -1,0 -1,1 -1,0 -1,1 -2,0 0,1 -1,1 -3,0 -1,-1 0,1 -1,1 -1,0 -1,1 -2,0 -1,1 -1,0 -1,1 -2,0 -1,1 -3,0 -1,1 -5,0 -1,1 -4,0 -1,1 -3,0 -1,-1 0,0 -1,1 -5,0 -1,1 -3,0 -1,1 -2,0 -1,-1 -10,0 -6,-53 6,53 88,-43 0,-5 1,-1 1,0 0,-5 1,-1 0,-14 1,-1 0,-2 1,-1 3,0 -1,-1 0,-1 -2,0 -1,-1 0,-15 -1,-1 0,-2 1,-1 1,0 1,-1 -3,0 -1,-1 0,-1 -1,-1 0,-2 -1,-1 0,-3 -1,-1 0,-2 -1,-1 0,-3 -1,-1 0,-2 -1,-1 0,-2 -1,-1 0,-2 1,-1 2,0 1,-1 3,0 1,-1 3,0 1,-1 5,0 1,1 1,1 0,-3 1,-1 3,0 1,-1 6,0 0,-7 -1,0 -1,1 -3,0 -1,1 -3,0 -1,1 -2,0 0,1 -1,1 -2,0 -1,1 -2,0 -1,-1 -2,0 -1,1 -3,0 -1,1 -3,0 -1,1 -2,0 -1,-1 0,-2 -1,-1 0,-2 -1,-1 0,-1 -1,-1 0,-3 -1,-1 0,-1 -1,-1 0,-2 -1,-1 0,-2 -1,-1 0,-1 -1,-1 0,-2 -1,-1 0,-2 -1,-1 0,-2 -1,-1 0,-1 -1,-1 0,-2 -1,-1 0,-1 -1,-1 0,-1 -1,-1 0,-2 -6,0 0,1 1,1 0,2 1,1 0,1 1,1 0,1 1,1 0,2 1,1 0,2 1,1 0,2 1,1 0,1 1,1 0,2 1,1 0,2 1,1 0,2 1,1 0,2 1,1 0,1 1,1 0,2 1,1 0,2 1,1 0,4 -1,1 -1,0 -1,1 -3,0 -1,1 -4,0 -1,-1 -1,0 -1,1 0,1 -1,1 -3,0 -1,-1 -1,0 -1,-1 0,2 -1,1 -1,1 -3,0 -1,1 -4,0 -1,1 -3,0 -1,1 -3,0 -1,1 -3,0 -1,1 -5,0 -1,1 -3,0 -1,1 -3,0 -1,1 -4,0 -1,1 -4,0 -1,1 -4,0 -1,1 -3,0 -1,-1 0,-7 -1,-1 0,-14 -1,-1 0,-3 -1,-1 0,-4 -1,-1 0,-4 1,-1 2,0 1,-1 -4,0 -1,-1 0,-1 -1,-1 0,-3 -1,-1 0,-2 -1,-1 0,-2 -1,-1 0,-3 -1,-1 0,-2 -1,-1 0,-3 -9,0 0,2 1,0 1,1 0,3 1,1 0,8 3,0 1,1 0,4 -1,1 -1,0 1,1 0,4 1,1 0,3 1,0 1,1 0,2 1,1 0,9 -1,1 1,1 0,7 1,1 0,11 -1,1 -4,0 -1,1 -3,0 -1,1 -3,0 -1,1 -3,0 -1,1 -4,0 0,1 -1,1 -8,0 -1,1 -3,0 -1,1 -2,0 -1,1 -3,0 -1,1 -4,0 -1,-1 -1,-1 0,-2 -2,0 -1,-1 0,-2 1,-1 0,-3 -1,-1 0,-2 -1,-1 0,-2 -1,-1 0,-3 -2,0 -1,-1 0,-4 1,-1 1,0 0,-4 -1,-1 -1,0 -1,-1 0,-1 -1,-1 -1,-1 0,-2 -1,-1 0,-2 -1,-1 0,-2 -1,-1 0,-3 -1,-1 0,-2 -1,-1 0,-3 -1,-1 0,-2 -1,-1 0,-3 -1,-1 0,-2 -1,-1 0,-2 -1,-1 0,-2 -1,0 -1,-1 0,-3 -5,0 0,2 1,1 0,2 1,1 0,3 1,1 0,2 1,1 0,2 1,1 0,3 1,1 0,2 1,1 0,3 1,1 0,2 1,1 0,2 1,1 0,3 1,1 0,3 1,1 0,1 1,1 0,2 1,1 0,6 2,0 1,1 0,3 1,1 0,3 1,1 0,2 1,1 0,4 1,1 0,1 1,1 0,2 1,1 0,3 -1,1 -2,0 -1,1 -3,0 -1,1 -3,0 -1,1 -2,0 1,1 0,3 1,1 0,2 1,-2 2,0 1,-1 3,0 1,-1 3,0 1,-1 3,0 0,-1 1,-1 3,0 1,1 1,0 1,-1 1,0 1,-1 3,0 1,-1 3,0 1,-1 3,0 1,-1 4,0 1,-1 2,0 1,1 1,1 0,-2 1,-1 1,0 1,-1 5,0 1,1 0,1 1,1 0,-2 1,-1 0,-1 1,-1 2,0 1,-1 5,0 1,1 0,3 -1,1 0,2 1,1 0,3 -1,1 -1,0 0,5 -1,1 -3,0 4,1 0,8 -1,1 0,9 1,1 0,4 -1,1 0,2 -1,1 0,3 -1,1 0,1 1,0 1,1 0,4 -1,1 0,1 -1,1 0,7 -1,1 0,3 -1,1 -1,0 0,1 1,1 1,0 1,1 0,3 -1,1 -1,0 0,8 -1,1 0,14 -1,1 0,8 -1,1 0,5 -1,1 0,3 -1,1 0,3 -1,1 0,2 -1,1 0,2 -1,1 0,1 -1,1 0,4 -1,1 -6,0 -1,-1 -2,0 -1,1 0,2 -1,1 1,1 1,0 1,1 1,0 1,1 1,1 0,3 -1,1 -3,0 0,2 -1,1 -1,1 -1,1 -1,1 -1,1 0,1 -1,1 0,1 -1,1 -1,0 -1,1 -1,1 -1,1 -1,1 -1,1 0,1 -1,1 -1,1 -1,1 0,1 1,1 0,2 -1,1 -1,1 -3,0 0,2 -1,1 -2,0 0,2 -1,1 -2,0 1,1 0,2 39,0 0,-1 -1,-1 -1,0 -1,-1 -1,0 -1,-1 -1,1 -3,0 -1,-1 -1,-1 0,-2 -1,0 -1,-1 -1,0 -1,-1 -1,-1 -1,0 -1,-1 -1,0 -1,-1 0,-2 1,-1 1,-1 0,-1 1,-1 1,0 1,-1 1,0 1,-1 0,-2 1,-1 1,-1 1,0 0,-1 1,-1 0,-1 1,-1 0,-1 1,-1 1,0 0,-1 1,-1 1,0 1,-1 0,-1 1,-1 1,-1 0,-1 1,-1 0,-1 1,-1 1,-1 0,-1 1,-1 0,-1 1,-1 0,-2 1,-1 0,-1 1,-1 0,-2 1,-1 0,-2 1,-1 0,-2 1,-1 0,-3 1,-1 0,-3 1,-1 0,-6 1,-1 0,-4 1,-1 24,0 1,-1 5,0 1,1 0,10 1,-11 2,0 1,-1 11,0 1,-1 2,0 1,-1 3,0 1,-1 2,0 1,-1 2,0 1,-1 2,0 1,-1 1,0 1,-1 2,0 1,-1 2,0 1,-1 1,0 1,-1 1,0 1,-1 1,0 1,-1 2,0 1,-1 1,0 1,-1 1,0 1,-1 2,0 1,-1 1,0 1,-1 2,0 1,1 0,10 -1,1 0,16 -1,1 0,10 -1,1 0,5 -1,1 0,5 -1,1 0,3 -1,1 0,2 1,1 0,3 -1,1 -1,1 -1,0 0,1 -1,1 0,3 -1,1 0,2 -1,1 0,2 -1,1 0,2 -1,1 0,1 -1,1 0,1 -1,1 0,1 -1,1 0,2 -1,1 -1,1 0,2 -1,1 -3,0 -1,-1 0,1 -1,-1 -2,0 7,2 0,2 -1,1 -1,0 -1,1 0,1 8,0 0,-4 1,-1 0,-1 1,-1 0,-1 1,-1 0,-1 1,-1 0,-1 1,-1 0,-2 1,-1 0,-1 1,-1 0,-2 1,-1 0,-1 1,-1 0,-4 1,-1 0,-2 1,-1 1,0 0,-4 1,-1 0,-2 1,-1 0,-1 1,-1 29,0 1,1 1,0 0,-2 -12,0 -1,-1 0,-8 -1,5 0,2 -1,1 -1,0 -1,1 -10,0 -1,-1 -2,0 -1,-1 0,-4 1,-1 0,-4 1,-1 0,-5 1,-1 0,-11 1,-1 0,-5 1,-1 4,0 1,1 0,-1 1,1 8,0 1,1 0,1 1,1 0,2 -1,1 0,12 1,-11 0,-5 1,-1 9,0 -6,-1 -5,0 -16,-2 0,-5 1,-1 0,-14 1,-1 4,0 1,-1 14,0 1,1 1,0 0,-1 1,-1 3,0 0,-4 -24,0 -1,-1 0,-6 1,-1 0,-12 1,-1 -1,0 -1,-1 -88,43 -65,81 -4,0 4,1 0,-1 65,-81Z"/>
<path onmouseover="hoverPath(evt)" onmouseout="recoverPath(evt)" fill="rgb(205,219,239)" d="M  233,124l 5,0 1,1 0,3 4,0 0,-1 1,-1 3,0 1,1 4,0 1,1 2,0 0,-8 -6,0 -1,-1 -1,0 -1,-1 -1,0 -1,-1 -5,0 -1,1 0,2 -1,1 -1,0 -1,1 -1,0 -1,1 0,1 -1,1 0,0 1,-1Z"/>
<path onmouseover="hoverPath(evt)" onmouseout="recoverPath(evt)" fill="rgb(244,243,235)" d="M  2,29l 0,0 1,1 0,1 1,1 1,1 0,1 1,1 0,1 1,1 1,1 0,1 1,1 0,1 1,1 0,1 1,1 0,1 1,1 0,1 1,1 0,1 1,1 0,1 1,1 1,1 0,1 1,1 0,1 1,1 0,2 1,1 0,2 1,1 0,2 1,1 0,3 1,1 0,3 1,1 0,3 1,1 0,4 1,1 0,3 1,1 3,0 1,-1 4,0 1,-1 5,0 0,-12 1,-1 0,-1 1,-1 1,-1 2,0 1,1 0,1 1,-1 0,0 1,-1 1,-1 1,-1 2,0 0,-1 2,-2 1,0 0,-1 1,-1 0,-1 1,-1 1,0 0,-1 1,-1 0,-4 -1,-1 0,-3 -1,-1 0,-3 -1,-1 -1,-1 0,-1 -1,-1 -1,-1 -1,0 -1,-1 -2,0 -1,-1 -1,0 -1,-1 -3,0 -1,-1 -4,0 -1,-1 -2,0 -1,-1 -1,-1 -1,-1 0,-2 -1,-1 0,-4 1,-1 0,-5 1,-1 0,-2 -1,-1 0,-3 1,-1 1,-1 0,-1 1,-1 2,0 0,-1 1,-1 0,-7 -21,0 0,3 1,1 0,1 1,1 1,1 0,2 -1,1 -1,1 0,1 1,1 0,4 -1,1 -1,0 -1,1 -1,1 0,5 -1,1 -4,0 -1,-1 0,-7 -1,-1 -1,1 -1,0 -1,1 -1,1 0,3 1,1 0,3 -1,1 -1,0 -1,1 -1,0 -1,-1 0,1 1,-2 0,-1 -1,0 0,1 1,2Z"/>
<path onmouseover="hoverPath(evt)" onmouseout="recoverPath(evt)" fill="rgb(253,252,252)" d="M  24,157l -3,0 -1,-1 -20,0 0,2 6,0 1,1 9,0 1,1 6,0 0,-2 1,-1 10,0 1,1 0,2 -1,1 -5,0 7,-3 0,-2 -1,-1 0,-2 -1,2 0,1 -1,1Z"/>
<path onmouseover="hoverPath(evt)" onmouseout="recoverPath(evt)" fill="rgb(244,242,235)" d="M  168,117l 0,0 -1,-1 -1,0 -1,1 -9,0 -1,-1 0,-2 -3,0 -1,1 -2,0 -1,1 -2,0 -1,1 -2,0 -1,1 -3,0 -1,1 -2,0 0,2 -1,1 1,1 0,6 1,0 1,1 0,2 -1,1 -1,1 0,2 -1,1 0,6 2,0 1,-1 1,0 0,-1 1,-1 1,0 1,-1 1,-1 0,-1 1,-1 1,0 1,-1 1,-1 0,-1 1,-1 2,0 0,-1 1,-1 1,0 1,-1 3,0 1,-1 4,0 1,-1 4,0 1,-1 4,0 -3,-1Z"/>
<path onmouseover="hoverPath(evt)" onmouseout="recoverPath(evt)" fill="rgb(242,239,232)" d="M  0,174l 0,38 3,0 1,1 1,1 1,0 1,1 1,0 1,-1 2,0 1,1 0,1 3,0 1,1 1,0 1,1 1,0 1,1 -1,-2 0,-2 1,-1 1,-1 0,-1 1,-1 0,-1 1,-1 0,-1 1,-1 1,-1 0,-1 1,-1 0,-1 1,-1 0,-1 1,-1 0,-1 1,-1 0,-2 1,-1 0,-14 1,-1 0,-3 1,-1 -1,-1 0,-1 -3,0 -1,-1 0,-2 1,-1 6,0 0,-2 1,-1 0,-3 -1,-1 -6,0 -1,-1 0,-2 1,-1 -3,0 0,2 -1,1 -8,0 -1,-1 -9,0 -1,-1 -5,0Z"/>
<path onmouseover="hoverPath(evt)" onmouseout="recoverPath(evt)" fill="rgb(183,204,234)" d="M  0,6l 0,18 2,0 1,1 0,1 -1,-3 0,-4 1,-1 1,-1 1,-1 1,0 1,-1 2,0 1,1 1,1 0,7 2,0 0,-5 1,-1 1,-1 1,-1 1,0 0,-2 -1,-1 0,-3 1,-1 1,-1 -1,-1 -1,-1 0,-1 -1,-1 0,-4 -15,0Z"/>
<path onmouseover="hoverPath(evt)" onmouseout="recoverPath(evt)" fill="rgb(243,242,234)" d="M  12,223l -3,0 -1,-1 0,-2 -1,0 -1,-1 -1,0 -1,-1 -1,0 -1,-1 -2,0 0,27 1,0 1,-1 0,-1 1,-1 1,-1 0,-1 1,-1 0,-1 1,-1 1,-1 0,-1 1,-1 1,-1 0,-1 1,-1 1,-1 0,-1 1,-1 1,-1 0,-1 -1,-1Z"/>
<path onmouseover="hoverPath(evt)" onmouseout="recoverPath(evt)" fill="rgb(239,237,228)" d="M  63,6l 0,2 1,1 0,2 1,1 0,3 1,1 0,2 1,1 0,3 1,1 0,2 1,1 0,3 1,1 0,2 1,1 0,2 1,1 0,2 1,1 1,1 0,1 1,0 1,1 1,1 0,6 -1,1 -1,0 0,2 2,0 1,1 0,3 1,1 0,2 1,1 0,2 1,1 0,5 -1,1 2,0 1,1 0,2 1,1 2,0 1,-1 3,0 1,-1 2,0 1,-1 3,0 1,-1 8,0 0,-1 1,-1 4,0 1,-1 3,0 1,-1 3,0 1,-1 3,0 1,-1 4,0 0,-9 -1,-1 0,-7 -1,-1 0,-2 1,-1 0,-7 -1,-1 0,-2 -1,0 -1,-1 0,-3 -1,-1 0,-4 -1,-1 0,-2 1,-1 1,0 0,-2 -3,0 -1,-1 0,-8 -1,-1 0,-3 -1,0 -1,-1 0,-3 -57,0 0,2 1,0 1,1 0,2 1,1 13,-3 2,0 1,1 0,1 1,1 0,1 1,1 1,1 0,2 -1,1 -2,0 -1,-1 -1,-1 0,-1 -1,-1 0,-1 -1,-1 0,-2 1,-1 -13,3Z"/>
<path onmouseover="hoverPath(evt)" onmouseout="recoverPath(evt)" fill="rgb(247,245,240)" d="M  119,110l -1,1 5,0 1,1 0,2 -1,1 -1,1 -1,0 -1,1 0,2 -1,1 0,1 -1,1 -1,1 -1,0 0,3 -1,1 0,8 4,0 1,1 3,0 0,-7 1,-1 0,-1 1,-1 0,-2 -1,0 -1,-1 0,-3 1,-1 0,-3 1,-1 0,-2 1,-1 0,-2 -5,0 -1,-1 -1,1 0,-4 -1,-1 0,-1 1,3 0,3 -3,1 -1,-1 0,1 1,0 3,-1Z"/>
<path onmouseover="hoverPath(evt)" onmouseout="recoverPath(evt)" fill="rgb(238,235,222)" d="M  206,110l -2,0 -1,1 -2,0 -1,1 -1,0 0,5 1,1 3,0 1,1 0,3 1,1 2,0 1,-1 1,0 1,-1 1,0 0,-8 -1,-1 0,-2Z"/>
<path onmouseover="hoverPath(evt)" onmouseout="recoverPath(evt)" fill="rgb(242,241,233)" d="M  1,47l 0,-2 1,-1 -1,-1 0,-1 -1,0 0,4 1,1 -1,3 0,82 2,0 1,1 6,0 1,1 6,0 1,1 4,0 1,1 4,0 1,1 2,0 0,-1 -1,-1 0,-2 -1,-1 0,-2 -1,-1 0,-2 -1,-1 0,-2 -1,-1 0,-4 1,-1 -1,-1 0,-1 -2,0 -1,-1 0,-2 -1,-1 0,-2 -1,-1 0,-3 -1,-1 0,-3 -1,-1 0,-4 1,-1 -1,-1 0,-1 -1,0 -1,-1 0,-2 1,-1 0,-2 -1,-1 0,-3 -1,-1 0,-4 -1,-1 0,-3 -1,-1 0,-4 -1,-1 0,-2 -1,-1 0,-2 -1,-1 0,-1 -1,-1 0,-1 -1,-1 0,-1 -1,-1 0,-1 -1,-1 0,-1 -1,-1 0,-1 -1,-1 0,-1 -3,0 1,-3Z"/>
<path onmouseover="hoverPath(evt)" onmouseout="recoverPath(evt)" fill="rgb(175,199,232)" d="M  0,135l 0,4 8,0 1,1 11,0 1,1 7,0 1,1 2,0 1,1 1,1 0,-1 -1,-1 0,-1 -1,-1 -1,0 -1,-1 -3,0 -1,-1 -4,0 -1,-1 -4,0 -1,-1 -6,0 -1,-1 -6,0 -1,-1 -1,1Z"/>
<path onmouseover="hoverPath(evt)" onmouseout="recoverPath(evt)" fill="rgb(242,240,231)" d="M  32,151l 0,-2 1,-1 -1,-1 0,-1 -1,-1 -1,-1 -2,0 -1,-1 -7,0 -1,-1 -11,0 -1,-1 -7,0 0,13 21,0 1,1 10,0 0,-1 1,-1 -1,-1Z"/>
<path onmouseover="hoverPath(evt)" onmouseout="recoverPath(evt)" fill="rgb(244,243,235)" d="M  34,215l 0,2 -1,1 -1,1 0,1 -1,1 0,1 -1,1 1,1 1,0 1,1 2,0 1,-1 2,0 1,-1 3,0 1,-1 3,0 1,-1 4,0 1,-1 8,0 1,-1 4,0 1,-1 1,0 0,-3 1,-1 2,0 1,1 0,1 4,0 1,-1 3,0 1,-1 3,0 1,-1 6,0 1,-1 4,0 1,-1 1,0 0,-2 1,-1 0,-8 1,-1 0,-5 1,-1 2,0 1,1 0,8 1,0 1,1 3,0 1,1 3,0 0,-1 1,-1 0,-1 1,-1 0,-2 1,-1 0,-2 1,-1 0,-3 1,-1 0,-3 1,-1 0,-5 1,-1 0,-8 1,-1 0,-14 1,-1 0,-6 -1,0 -1,-1 -5,0 -1,-1 -2,0 -1,-1 -1,0 -1,-1 -1,0 -1,-1 -2,0 -1,-1 -9,0 -1,1 -3,0 -1,1 -7,0 -1,1 -6,0 -1,-1 -15,0 -1,-1 -12,0 0,4 1,1 0,3 1,1 0,3 1,1 0,18 -1,1 0,7 -1,1 0,3 -1,1 0,3 -1,1 0,3 1,1 0,15 -1,1 -1,1 -5,0 -1,-1 0,-2 -2,0 0,1 -1,1 -1,0 -1,1 1,1Z"/>
<path onmouseover="hoverPath(evt)" onmouseout="recoverPath(evt)" fill="rgb(239,229,142)" d="M  43,87l 0,0 -1,-1 -1,1 -5,0 -1,1 -4,0 -1,1 -5,0 -1,-1 -1,-1 0,-3 -1,-1 0,-4 -1,-1 0,-3 -1,-1 0,-3 -1,-1 0,-3 -1,-1 0,-2 -1,-1 0,-2 -1,-1 0,-2 -1,-1 0,-1 -1,-1 0,-1 -1,-1 -1,-1 0,-1 -1,-1 0,-1 -1,-1 0,-1 -1,-1 0,-1 -1,-1 0,-1 -1,-1 0,-1 -1,-1 0,-1 -1,-1 -1,-1 0,-1 -1,-1 0,-1 -1,-1 -1,-1 0,-1 -1,0 0,9 2,0 1,1 0,1 1,1 0,2 -1,1 1,1 0,1 1,1 0,1 1,1 0,1 1,1 0,1 1,1 0,1 1,1 0,1 1,1 0,1 1,1 0,1 1,1 0,2 1,1 0,2 1,1 0,4 1,1 0,3 1,1 0,4 1,1 0,3 1,1 0,4 -1,1 1,0 1,1 0,1 1,1 0,2 -1,1 0,2 1,1 0,3 1,1 0,3 1,1 0,2 1,1 0,2 1,0 0,-1 1,-1 6,0 0,-9 -1,-1 0,0 -1,-1 -1,0 -1,-1 -1,-1 0,-3 1,-1 1,0 1,-1 6,0 1,-1 2,0 0,-1 1,-1 8,0 1,-1 3,0 1,-1 2,0 1,-1 5,0 1,-1 1,0 -1,-1 0,-3 -1,-1 0,-1 -1,1 -3,0 -1,1 -3,0 -1,1 -5,0 0,2 -1,1Z"/>
<path onmouseover="hoverPath(evt)" onmouseout="recoverPath(evt)" fill="rgb(241,239,229)" d="M  100,126l -2,0 0,5 2,0 1,1 0,3 4,0 1,1 2,0 1,1 1,0 1,1 1,0 1,1 2,0 1,1 6,0 0,-2 -3,0 -1,-1 -4,0 -1,-1 0,-10 1,-1 0,-3 1,-1 1,0 1,-1 0,-1 1,-1 0,-2 1,-1 1,-1 1,0 1,-1 -8,0 -1,-1 0,-3 1,-1 2,0 0,-5 1,-1 2,0 1,1 0,1 1,1 0,2 1,1 3,0 0,-10 1,-1 0,-6 -3,0 -1,-1 0,-2 1,-1 3,0 0,-5 1,-1 1,0 0,-1 -1,-1 0,-4 1,-1 0,-1 -3,0 -1,1 -2,0 0,1 -1,1 0,3 -1,1 -2,0 -1,-1 0,-1 -1,-1 0,-1 -3,0 -1,1 -1,0 0,4 -1,1 -2,0 -1,-1 0,-2 -1,-1 -1,1 -4,0 -1,1 -3,0 -1,1 -3,0 -1,1 -3,0 -1,1 -1,0 -1,1 -1,0 0,2 1,1 0,2 1,1 0,2 1,1 0,2 1,1 0,2 1,1 0,2 1,1 0,2 1,1 0,2 1,1 0,3 1,1 0,2 1,1 2,0 1,-1 3,0 1,-1 3,0 1,1 1,1 1,1 0,7 -1,1 -2,0 -1,1 -3,0 -1,1 17,-18 0,0 -17,18Z"/>
<path onmouseover="hoverPath(evt)" onmouseout="recoverPath(evt)" fill="rgb(175,199,232)" d="M  107,143l 0,0 1,1 1,0 1,1 1,0 1,1 2,0 1,1 5,0 1,1 1,-1 1,0 0,-1 -1,0 -1,-1 -5,0 -1,-1 -2,0 -1,-1 -2,0 -1,-1 -1,0 -1,1 -2,0 -1,-1 2,-1 0,0 -1,-1 -13,0 -1,1 -3,0 -1,1 -5,0 -1,1 -2,0 -1,-1 -8,0 -1,-1 -8,0 -1,-1 -17,0 0,2 2,0 1,1 13,0 1,1 15,0 1,1 4,0 1,-1 7,0 1,-1 3,0 1,-1 10,0 3,1Z"/>
<path onmouseover="hoverPath(evt)" onmouseout="recoverPath(evt)" fill="rgb(242,240,231)" d="M  131,240l 0,0 1,1 1,1 1,1 1,1 1,1 1,0 1,1 0,2 1,0 1,1 0,1 1,1 0,2 -1,1 0,1 41,0 0,-4 1,-1 1,-1 0,-2 -2,0 -1,-1 -2,0 -1,-1 0,-2 -2,0 -1,1 -5,0 -1,-1 -2,0 -1,-1 -2,0 -1,-1 0,-2 -1,0 -1,1 -4,0 -1,-1 -2,0 -1,-1 -6,0 -1,-1 -12,0 -1,-1 -5,0 -1,-1 3,2 0,1 1,1 1,1Z"/>
<path onmouseover="hoverPath(evt)" onmouseout="recoverPath(evt)" fill="rgb(253,253,252)" d="M  212,103l -4,0 -1,-1 -1,-1 0,3 -1,1 -3,0 -1,1 -6,0 -1,1 -13,0 -1,1 -3,0 -1,-1 0,0 -1,-1 -1,-1 0,3 -1,1 2,0 1,-1 5,0 1,1 1,1 0,-1 1,-1 1,0 27,-5 1,-1 1,1 0,0 1,-1 -1,0 0,10 -1,0 0,10 -1,1 1,0 1,-1 3,0 0,-2 -1,0 -1,-1 0,-1 -1,-1 0,-4 -1,-11 -1,1 0,6 -1,-1 -8,0 -1,1 -2,0 -1,1 -1,0 -1,-1 0,1 -1,1 0,2 1,1 0,-3 15,0 0,-8 -2,21 -1,0 -1,1 1,0 -26,-12 0,6 1,1 0,1 1,1 3,0 1,-1 0,-2 -1,-1 -3,0 -1,-1 26,7 2,-21Z"/>
<path onmouseover="hoverPath(evt)" onmouseout="recoverPath(evt)" fill="rgb(243,242,233)" d="M  236,79l 0,14 2,0 1,1 0,1 1,1 0,2 -1,1 -3,0 0,2 -1,1 0,14 -1,1 0,3 1,-1 1,0 0,-2 1,-1 1,-1 7,0 1,1 1,0 1,1 1,0 1,1 5,0 0,-74 -5,0 -1,1 -3,0 0,4 -1,1 -2,0 -1,-1 0,-1 -1,-1 -3,0 -1,1 -3,0 -1,1 -3,0 -1,1 -2,0 1,1 0,2 1,1 0,2 1,1 0,3 1,1 0,2 1,1 0,3 1,1 0,2 1,1 0,1 5,0 1,1 0,2 -1,1 -2,0 -1,1 -1,0 1,1Z"/>
<path onmouseover="hoverPath(evt)" onmouseout="recoverPath(evt)" fill="rgb(242,240,230)" d="M  247,183l 0,3 -1,1 0,10 -1,1 -2,0 -1,-1 0,-14 1,-1 -1,-1 0,-1 -9,0 -1,-1 -2,0 0,5 -1,1 0,11 -1,1 0,5 -1,1 0,4 -1,1 0,2 2,0 1,1 8,0 1,-1 1,0 0,-2 1,-1 0,-4 1,-1 2,0 1,1 0,8 11,0 0,-30 -8,0Z"/>
<path onmouseover="hoverPath(evt)" onmouseout="recoverPath(evt)" fill="rgb(243,241,233)" d="M  255,166l 0,-11 -2,0 0,1 -1,1 -3,0 -1,-1 -12,0 -1,1 -4,0 0,14 -1,1 0,3 5,0 1,1 14,0 1,1 4,0Z"/>
</svg>