<svg width="256" height="256" xmlns="http://www.w3.org/2000/svg"><script> 
var tempColor;
function hoverPath(evt){
obj = evt.target;
tempColor = obj.getAttribute("fill");
obj.setAttribute("fill","red");
//alert(tempColor);
//obj.setAttribute("stroke","red");}
function recoverPath(evt){
obj = evt.target;
obj.setAttribute("fill", tempColor);
//obj.setAttribute("stroke", tempColor);
}</script><path onmouseover="hoverPath(evt)" onmouseout="recoverPath(evt)" fill="rgb(244,243,235)" d="M  1,160l 0,-1 -1,0 0,88 3,0 1,-1 13,0 0,-4 -1,-1 0,-4 -1,-1 0,-5 -1,-1 0,-4 -1,-1 0,-5 -1,-1 0,-4 -1,-1 0,-4 -1,-1 0,-3 -1,-1 0,-5 -1,-1 0,-4 -1,-1 0,-5 -1,-1 0,-4 -1,-1 0,-4 -1,-1 0,-5 -1,-1 0,-4 -1,-1 0,-4 -1,-1Z"/>
<path onmouseover="hoverPath(evt)" onmouseout="recoverPath(evt)" fill="rgb(244,243,233)" d="M  0,254l 0,1 19,0 0,-2 -1,-1 0,-2 1,-1 0,-2 -1,1 -13,0 -1,1 -4,0Z"/>
<path onmouseover="hoverPath(evt)" onmouseout="recoverPath(evt)" fill="rgb(172,198,236)" d="M  7,5l 0,0 -1,-1 0,5 24,0 1,1 9,0 1,1 39,0 1,1 25,0 0,-3 -17,0 -1,-1 -21,0 -1,-1 -10,0 -1,-1 -21,0 -1,-1Z"/>
<path onmouseover="hoverPath(evt)" onmouseout="recoverPath(evt)" fill="rgb(244,243,236)" d="M  16,160l 0,2 1,1 0,4 1,1 0,4 1,1 0,4 1,1 0,5 1,1 0,4 1,1 0,4 1,1 0,3 1,1 0,5 1,1 0,5 1,1 0,4 1,1 0,4 1,1 0,4 1,1 0,5 1,1 0,4 1,1 0,5 1,1 3,0 1,1 2,0 1,-1 4,0 1,-1 4,0 1,-1 5,0 1,-1 4,0 1,-1 5,0 1,-1 5,0 1,-1 2,0 1,-1 2,0 1,-1 5,0 1,-1 4,0 1,-1 5,0 1,-1 5,0 1,-1 4,0 1,-1 4,0 1,-1 4,0 1,-1 4,0 1,-1 2,0 1,-1 5,0 1,-1 4,0 0,-61 -1,0 -1,-1 -22,0 -1,-1 -37,0 -1,-1 -39,0 -1,-1 -14,0 -1,1Z"/>
<path onmouseover="hoverPath(evt)" onmouseout="recoverPath(evt)" fill="rgb(254,254,254)" d="M  33,246l -2,0 0,1 4,0 1,-1 4,0 1,-1 3,0 1,-1 5,0 1,-1 4,0 1,-1 4,0 1,-1 7,0 1,-1 3,0 1,-1 2,0 1,-1 3,0 1,-1 4,0 1,-1 5,0 1,-1 4,0 1,-1 5,0 1,-1 4,0 1,-1 4,0 1,-1 4,0 1,-1 4,0 1,-1 4,0 1,-1 4,0 1,-1 2,0 1,1 1,0 1,1 0,20 1,1 0,5 1,0 0,-8 -1,-1 0,-12 1,-1 1,-1 0,-1 -1,0 -1,-1 0,-68 -2,0 0,63 -1,1 -4,0 -1,1 -5,0 -1,1 -2,0 -1,1 -4,0 -1,1 -4,0 -1,1 -4,0 -1,1 -4,0 -1,1 -5,0 -1,1 -5,0 -1,1 -4,0 -1,1 -5,0 -1,1 -2,0 -1,1 -2,0 -1,1 -5,0 -1,1 -5,0 -1,1 -4,0 -1,1 -5,0 -1,1 -4,0 -1,1 -4,0 -1,1 -3,0 -1,1 -2,0 108,-14 6,0 1,-1 -3,0 -4,1 -108,14Z"/>
<path onmouseover="hoverPath(evt)" onmouseout="recoverPath(evt)" fill="rgb(171,198,238)" d="M  113,10l -1,0 0,2 1,1 24,0 1,1 23,0 1,1 56,0 1,1 8,0 0,-3 -31,0 -1,-1 -23,0 -1,-1 -19,0 -1,-1 -30,0 -1,-1 -6,0 -1,1Z"/>
<path onmouseover="hoverPath(evt)" onmouseout="recoverPath(evt)" fill="rgb(244,243,235)" d="M  112,15l 0,0 -1,-1 0,17 -1,1 0,24 -1,1 0,26 -1,1 0,19 1,0 1,-1 21,0 1,1 1,0 1,1 0,1 1,1 0,2 -1,1 0,5 1,1 0,1 1,1 1,1 0,6 -1,1 0,11 -1,1 0,1 1,1 0,2 1,1 0,2 1,1 0,2 2,0 1,1 0,4 2,0 1,1 30,0 1,1 24,0 1,1 1,0 1,-1 3,0 1,1 15,0 1,1 6,0 0,-13 1,-1 0,-4 1,-1 -1,-1 0,-34 -1,-1 0,-35 -36,0 -1,-1 -18,0 -1,-1 0,-2 1,-1 29,0 1,1 17,0 1,-1 7,0 0,-43 -10,0 -1,-1 -56,0 -1,-1 -23,0 -1,-1Z"/>
<path onmouseover="hoverPath(evt)" onmouseout="recoverPath(evt)" fill="rgb(244,243,235)" d="M  140,236l 0,9 1,1 0,9 114,0 0,-87 -10,0 -1,-1 -11,0 0,10 1,1 0,18 1,1 0,9 -1,1 -2,0 -1,-1 0,-5 -1,-1 0,-18 -1,-1 0,-15 -7,0 -1,-1 -14,0 0,1 -1,1 -2,0 -1,-1 0,-1 -2,0 -1,-1 -24,0 -1,-1 -35,0 0,66 1,0 1,1 1,0 1,-1 21,0 1,1 0,2 -1,1 -16,0 -1,1 -7,0 -1,1Z"/>
<path onmouseover="hoverPath(evt)" onmouseout="recoverPath(evt)" fill="rgb(223,229,232)" d="M  233,4l 0,9 1,1 0,2 6,0 1,1 14,0 0,-17 -22,0Z"/>
<path onmouseover="hoverPath(evt)" onmouseout="recoverPath(evt)" fill="rgb(243,242,233)" d="M  234,102l 0,31 1,1 0,6 -1,1 0,4 -1,1 0,11 11,0 1,1 10,0 0,-59 -8,0 -1,1 -8,0 -1,-1 -3,0Z"/>
<path onmouseover="hoverPath(evt)" onmouseout="recoverPath(evt)" fill="rgb(246,232,132)" d="M  0,153l 0,4 2,0 1,1 0,3 1,1 0,4 1,1 0,4 1,1 0,5 1,1 0,4 1,1 0,4 1,1 0,5 1,1 0,4 1,1 0,5 1,1 0,3 1,1 0,4 1,1 0,4 1,1 0,5 1,1 0,4 1,1 0,5 1,1 0,4 1,1 0,4 1,0 1,1 0,4 -1,1 1,1 0,3 11,0 0,-2 -1,-1 0,-3 -1,0 -1,-1 0,-3 1,-1 4,0 -4,-1 0,0 -1,-1 0,-5 -1,-1 0,-4 -1,-1 0,-5 -1,-1 0,-4 -1,-1 0,-4 -1,-1 0,-4 -1,-1 0,-5 -1,-1 0,-5 -1,-1 0,-3 -1,-1 0,-4 -1,-1 0,-4 -1,-1 0,-5 -1,-1 0,-4 -1,-1 0,-4 -1,-1 0,-4 -1,-1 0,-5 1,-1 17,0 1,1 39,0 1,1 37,0 1,1 22,0 1,1 1,-1 4,0 1,1 36,0 1,1 24,0 1,1 2,0 1,1 0,0 1,-1 16,0 1,1 7,0 1,1 0,15 1,1 0,18 1,1 0,-2 -1,-18 0,-15 13,0 1,1 9,0 0,-6 -11,0 -1,-1 -10,0 -1,1 -3,0 -1,-1 0,-1 -7,0 -1,-1 -15,0 -1,-1 -1,0 -1,1 -3,0 -1,-1 -24,0 -1,-1 -30,0 -1,-1 -1,0 -1,1 -1,0 -1,1 -5,0 -1,-1 0,-1 -25,0 -1,-1 -37,0 -1,-1 -40,0 -1,-1 -14,0 -1,-1 0,-4 -1,-1 0,-6 -1,-1 0,-6 -1,-1 0,-5 -1,-1 0,-7 -1,-1 0,-7 -1,-1 0,-10 1,-1 -1,0 -1,-1 0,-29 -1,-1 0,-13 1,-1 0,-41 1,-1 -1,0 -1,-1 0,-10 -4,0Z"/>
<path onmouseover="hoverPath(evt)" onmouseout="recoverPath(evt)" fill="rgb(244,243,236)" d="M  8,1l 0,2 26,0 1,1 21,0 1,1 10,0 1,1 21,0 1,1 17,0 0,-7 -98,0 -1,1Z"/>
<path onmouseover="hoverPath(evt)" onmouseout="recoverPath(evt)" fill="rgb(244,243,235)" d="M  8,11l 0,1 -1,1 0,41 -1,1 0,11 1,1 0,29 5,0 1,1 11,0 1,1 20,0 1,-1 16,0 0,-2 -1,-1 0,-3 -1,-1 0,-2 1,-1 0,-2 -1,-1 0,-2 -2,0 -1,-1 0,-9 1,-1 0,-1 1,-1 1,-1 1,-1 2,0 0,-4 1,-1 0,-2 1,-1 0,-3 -1,-1 0,-4 1,-1 0,-4 1,-1 0,-3 1,-1 0,-3 1,-1 0,-10 1,-1 1,0 1,-1 29,0 1,1 4,0 1,-1 1,-1 0,-10 -27,0 -1,-1 -39,0 -1,-1 -9,0 -1,-1Z"/>
<path onmouseover="hoverPath(evt)" onmouseout="recoverPath(evt)" fill="rgb(244,243,235)" d="M  8,103l 0,5 1,1 0,7 1,1 0,7 1,1 0,5 1,1 0,6 1,1 0,6 1,1 0,4 14,0 1,1 40,0 1,1 37,0 1,1 25,0 1,1 0,1 3,0 1,-1 1,0 0,-4 -2,0 -1,-1 0,-2 -1,-1 0,-2 -1,-1 0,-2 -1,-1 0,-2 -1,-1 0,-14 -2,0 -1,-1 -25,0 -1,-1 0,-12 1,-1 2,0 1,1 0,-3 -2,0 -1,-1 0,-3 -1,-1 -20,0 -1,1 -30,0 -1,1 -27,0 -1,-1 0,-2 -10,0 -1,1 -4,0Z"/>
<path onmouseover="hoverPath(evt)" onmouseout="recoverPath(evt)" fill="rgb(243,242,232)" d="M  33,251l 1,1 0,3 102,0 0,-4 -1,-1 0,-20 -1,0 -1,-1 -1,1 -4,0 -1,1 -4,0 -1,1 -4,0 -1,1 -4,0 -1,1 -4,0 -1,1 -4,0 -1,1 -5,0 -1,1 -4,0 -1,1 -5,0 -1,1 -4,0 -1,1 -3,0 -1,1 -2,0 -1,1 -3,0 -1,1 -7,0 -1,1 -4,0 -1,1 -4,0 -1,1 -5,0 -1,1 -3,0 -1,1 -4,0 -1,1 -3,0Z"/>
<path onmouseover="hoverPath(evt)" onmouseout="recoverPath(evt)" fill="rgb(253,253,253)" d="M  51,99l -4,0 -1,1 4,0 1,-1 14,-3 -1,-1 0,-2 -1,-1 0,-1 3,7 0,1 15,0 1,-1 22,0 1,1 1,1 0,-17 1,-1 0,-26 1,-1 0,-24 1,-1 0,-17 1,-1 0,-2 -1,-1 0,-9 -1,9 0,3 1,0 -1,14 0,0 -1,1 -1,1 -6,0 -1,-1 -27,0 18,1 17,0 1,1 0,1 -43,66 -14,3 53,-2 -23,1 -4,0 29,4Z"/>
<path onmouseover="hoverPath(evt)" onmouseout="recoverPath(evt)" fill="rgb(243,242,234)" d="M  72,29l -1,0 -1,-1 0,10 -1,1 0,3 -1,1 0,3 -1,1 0,4 -1,1 0,2 1,1 0,5 -1,1 0,2 -1,1 0,4 -1,1 0,1 -1,1 -1,1 -1,1 -2,0 0,7 2,0 1,1 0,2 1,1 0,3 1,1 0,1 1,1 0,1 1,1 0,2 1,1 0,1 1,1 7,0 1,-1 26,0 1,-1 1,0 0,-16 1,-1 0,-26 1,-1 0,-21 -17,0 -1,-1Z"/>
<path onmouseover="hoverPath(evt)" onmouseout="recoverPath(evt)" fill="rgb(243,242,232)" d="M  113,0l -2,0 0,8 1,0 1,-1 8,0 1,1 30,0 1,1 19,0 1,1 23,0 1,1 31,0 0,-8 -1,-1 0,-2Z"/>
<path onmouseover="hoverPath(evt)" onmouseout="recoverPath(evt)" fill="rgb(236,232,217)" d="M  130,107l -2,0 -1,-1 -16,0 0,5 1,0 1,1 16,0 0,-1 1,-1Z"/>
<path onmouseover="hoverPath(evt)" onmouseout="recoverPath(evt)" fill="rgb(248,247,242)" d="M  134,124l 0,0 1,-1 0,-4 -1,-1 0,0 -1,-1 0,-1 -1,-1 0,-7 1,-1 -1,-1 0,-1 -1,0 -1,-1 -19,0 18,1 1,0 2,2 -1,5 0,1 -1,1 -18,0 -1,-1 -1,0 -1,-1 0,2 -1,1 -2,0 -1,-1 0,5 25,0 1,1 2,0 1,1Z"/>
<path onmouseover="hoverPath(evt)" onmouseout="recoverPath(evt)" fill="rgb(253,253,253)" d="M  229,1l 0,0 1,1 0,10 -1,1 0,3 1,1 0,45 -1,1 -7,0 -1,1 -19,0 -1,-1 -27,0 19,1 36,0 1,1 0,35 1,1 0,34 1,1 0,2 -1,1 0,4 -1,1 0,14 1,0 0,-13 1,-1 0,-4 1,-1 0,-4 -1,-1 0,-36 1,-1 0,-1 -1,-1 0,-1 -1,-1 0,-76 1,-1 0,-1 -1,-1 0,-14 -1,0 -1,1 5,96 0,0 -5,-96Z"/>
<path onmouseover="hoverPath(evt)" onmouseout="recoverPath(evt)" fill="rgb(243,242,233)" d="M  234,18l -1,0 0,74 1,1 0,1 1,1 3,0 1,1 0,2 6,0 1,-1 9,0 0,-78 -15,0 -1,-1Z"/>
</svg>