<svg width="256" height="256" xmlns="http://www.w3.org/2000/svg"><script> 
var tempColor;
function hoverPath(evt){
obj = evt.target;
tempColor = obj.getAttribute("fill");
obj.setAttribute("fill","red");
//alert(tempColor);
//obj.setAttribute("stroke","red");}
function recoverPath(evt){
obj = evt.target;
obj.setAttribute("fill", tempColor);
//obj.setAttribute("stroke", tempColor);
}</script><path onmouseover="hoverPath(evt)" onmouseout="recoverPath(evt)" fill="rgb(243,242,234)" d="M  0,116l 0,78 12,0 1,-1 30,0 0,-11 -1,-1 0,-9 -1,-1 0,-6 -1,-1 0,-9 -1,-1 0,-7 -1,-1 0,-7 -1,-1 0,-8 -1,-1 0,-8 -1,-1 0,-9 -1,-1 0,-8 -1,-1 0,-7 -1,-1 0,-1 -2,2 -1,1 -1,0 -1,1 -1,0 0,1 -1,1 -1,1 -1,1 -1,1 -1,0 -1,1 -1,1 -1,1 -1,0 -1,1 -1,1 -2,0 0,1 -1,1 -1,1 -1,0 -1,1 -1,1 -2,0 0,1 -1,1 -1,1 -1,0 -1,1 -1,0 -1,1Z"/>
<path onmouseover="hoverPath(evt)" onmouseout="recoverPath(evt)" fill="rgb(248,238,147)" d="M  0,104l 0,9 1,0 1,-1 1,0 1,-1 0,-1 1,-1 2,0 1,-1 1,-1 1,0 1,-1 0,-1 1,-1 2,0 1,-1 1,-1 1,0 1,-1 1,-1 1,-1 1,0 1,-1 1,-1 1,-1 0,-1 1,-1 1,0 1,-1 1,0 3,-3 1,0 0,-3 1,-1 2,0 0,-2 1,-1 1,0 1,-1 2,0 1,-1 0,-1 3,-3 0,-1 1,-1 0,-1 1,-1 1,0 1,-1 1,-1 1,-1 1,-1 0,-2 1,-1 1,0 1,-1 1,-1 0,-2 1,-1 1,0 3,-3 0,-1 1,-1 1,0 1,-1 4,0 1,1 0,7 -1,1 0,1 -1,1 -1,1 -1,1 -1,0 0,1 1,0 5,-10 0,-3 1,-1 13,0 1,-1 2,0 1,1 0,3 1,1 0,-2 1,-1 19,0 1,1 17,0 1,1 16,0 1,1 19,0 1,1 13,0 1,1 1,1 0,19 -1,1 0,5 1,1 0,0 1,1 0,2 -1,1 -2,0 -1,1 -58,0 -1,1 29,0 1,1 1,0 1,1 0,1 1,1 1,1 1,1 -3,-5 0,-1 28,-1 2,0 1,1 0,2 -1,1 0,42 -1,1 1,0 1,1 0,3 -1,1 0,21 1,1 0,3 -1,1 0,44 1,-23 3,0 1,1 0,1 1,0 1,1 0,-50 1,-1 0,-3 -1,-1 0,-7 1,-1 1,0 0,-3 -1,-1 0,-33 1,-1 -1,-1 0,-7 1,-1 3,0 1,-1 11,0 1,1 7,0 -7,-1 -16,0 -1,-1 0,-22 1,-1 22,0 1,1 6,0 1,-1 2,0 1,1 12,0 1,1 21,0 0,-6 -4,0 -1,-1 0,-20 1,-1 0,-8 -1,7 0,1 -1,17 0,4 -1,1 -17,0 -1,-1 -22,0 -1,-1 -2,0 -1,-1 0,-2 1,-1 0,-10 -1,8 0,2 -1,4 -14,0 -1,-1 -1,-1 0,-29 -1,-1 0,-2 1,-1 13,0 1,1 0,1 1,1 0,4 -1,1 0,2 1,1 1,1 3,0 1,1 10,0 -10,-1 -5,-2 0,-8 1,-1 1,0 1,-1 -4,0 -13,-1 0,-18 -11,0 0,15 -1,1 0,34 -1,1 -1,0 -1,1 -9,0 -1,1 -9,0 -1,-1 -1,0 -1,-1 -1,-1 0,-1 -20,0 -1,-1 -6,0 -1,-1 0,-2 -1,3 -18,0 -1,-1 -22,0 -1,-1 -7,0 -1,-1 0,-2 1,-1 0,-1 2,-2 1,-1 0,-2 1,-1 1,0 1,-1 0,-2 1,-1 1,0 1,-1 0,-1 1,-1 1,-1 0,-2 1,-1 1,0 1,-1 0,-1 1,-1 1,-1 0,-1 1,-1 1,-1 0,-1 1,-1 0,-1 1,-1 1,-1 0,-1 1,-1 0,-1 1,-1 0,-1 1,-1 1,-1 0,-1 1,-1 0,-1 1,-1 0,-1 -12,0 0,2 -1,1 0,1 -1,1 0,1 -1,1 0,1 -1,1 -1,1 0,1 -1,1 0,1 -1,1 -1,1 0,1 -1,1 -1,1 0,2 -1,1 -1,0 -1,1 0,2 -1,1 -1,0 -1,1 0,2 -1,1 -1,0 -1,1 0,2 -1,1 -1,0 -1,1 0,2 -1,1 -1,0 -1,1 0,2 -1,1 -1,0 -1,1 0,1 -1,1 -1,1 -1,1 -9,0 -1,-1 -29,0 0,1 -1,1 -2,0 -1,-1 0,-13 1,-1 1,0 1,-1 3,0 1,1 15,0 0,-1 1,-1 0,-1 -13,2 -23,0 10,1 1,0 1,1 0,13 -1,1 -3,0 -1,-1 0,-1 -7,0 0,9 5,0 1,1 3,0 1,1 5,0 1,1 4,0 0,-2 1,-1 26,0 1,1 0,2 -3,3 0,1 -1,1 0,1 -1,1 -1,0 -1,1 -1,1 -1,1 -2,2 0,1 -1,1 -1,1 -1,1 0,1 -1,1 -1,0 -1,1 -1,1 -1,1 -1,1 -1,1 -1,1 -1,1 -1,1 -1,1 -1,1 -1,1 -1,1 -1,1 0,1 -1,1 -1,0 -1,1 -1,1 -1,1 -1,0 -1,1 -1,1 -1,1 -1,0 -1,1 -1,1 -1,1 -1,0 -1,1 -1,1 -1,1 -2,0Z"/>
<path onmouseover="hoverPath(evt)" onmouseout="recoverPath(evt)" fill="rgb(244,243,235)" d="M  15,36l 0,9 1,-2 31,0 1,1 7,0 1,-1 1,-1 0,-1 1,-1 1,-1 1,0 0,-2 1,-1 1,-1 1,0 0,-2 2,-2 1,0 0,-2 1,-1 1,-1 1,0 0,-2 1,-1 1,-1 1,0 0,-2 1,-1 1,-1 1,0 0,-2 1,-1 1,-1 0,-1 1,-1 1,-1 0,-1 1,-1 0,-1 1,-1 1,-1 0,-1 1,-1 0,-1 1,-1 0,-1 1,-1 0,-1 -40,0 0,2 -1,1 0,2 -1,1 0,1 -1,1 0,3 -1,1 0,2 1,1 0,3 -1,1 -2,0 0,2 -1,1 0,3 -1,1 0,1 1,1 0,3 -1,1 0,1 -1,1 -17,0 -1,-1 -1,0 -1,1 -1,0Z"/>
<path onmouseover="hoverPath(evt)" onmouseout="recoverPath(evt)" fill="rgb(242,240,230)" d="M  44,148l 0,3 1,1 0,7 1,1 0,9 1,1 0,5 1,1 0,2 14,0 1,-1 12,0 1,1 0,-2 1,-1 0,-3 -1,-1 0,-2 1,-1 0,-1 -1,-1 0,-1 -2,0 -1,-1 0,-13 -1,-1 0,-4 -1,0 -1,-1 -10,0 -1,1 -8,0 -1,-1 -1,0 -1,1 -4,0Z"/>
<path onmouseover="hoverPath(evt)" onmouseout="recoverPath(evt)" fill="rgb(242,240,231)" d="M  77,148l 0,15 1,1 0,1 1,1 0,2 1,1 0,1 1,1 0,1 1,1 1,1 1,1 0,1 1,0 1,1 0,1 1,0 1,1 1,0 1,1 0,2 -1,1 -2,0 -1,-1 -2,0 0,1 -1,1 0,9 1,0 1,1 14,0 1,-1 4,0 1,1 4,0 1,-1 1,0 -1,-1 0,-2 1,-1 3,0 1,-1 0,-1 1,-1 0,-2 1,-1 -1,0 -1,-1 0,-34 -1,-1 0,-1 -1,-1 -34,0 -1,1 -1,0 0,2 14,35 1,-1 2,0 1,1 0,2 -1,1 -2,0 -1,-1 0,-2 -14,-35Z"/>
<path onmouseover="hoverPath(evt)" onmouseout="recoverPath(evt)" fill="rgb(242,240,230)" d="M  119,148l 0,33 1,1 0,2 1,-1 2,0 1,-1 1,0 1,-1 2,0 1,-1 1,0 1,-1 0,-2 1,-1 1,0 1,-1 2,0 1,-1 1,0 1,-1 1,0 1,-1 1,-1 2,0 1,-1 1,0 1,-1 0,-1 1,-1 1,0 0,-13 1,-1 2,0 1,1 0,11 1,1 0,1 16,0 1,-1 6,0 0,-21 -54,0 -1,1 -3,0Z"/>
<path onmouseover="hoverPath(evt)" onmouseout="recoverPath(evt)" fill="rgb(242,240,230)" d="M  190,148l 0,67 1,0 0,-1 1,-1 0,-16 1,-1 0,-1 1,-1 1,0 1,-1 7,0 1,-1 5,0 0,-10 -1,-1 0,-1 -1,-1 0,-9 1,-1 0,-19 1,-1 0,-1 1,-1 2,0 0,-1 1,-1 -23,0Z"/>
<path onmouseover="hoverPath(evt)" onmouseout="recoverPath(evt)" fill="rgb(244,242,234)" d="M  0,1l 0,28 24,0 1,1 8,0 1,-1 0,-1 1,-1 0,-2 1,-1 0,-3 1,-1 0,-2 1,-1 2,0 0,-1 -1,-1 0,-4 1,-1 0,-3 1,-1 0,-1 1,-1 0,-2 1,-1 0,-1 -42,0 -1,1Z"/>
<path onmouseover="hoverPath(evt)" onmouseout="recoverPath(evt)" fill="rgb(243,242,233)" d="M  0,201l 0,54 34,0 0,-3 -4,0 -1,-1 0,-2 1,-1 11,0 0,-1 1,-1 0,-21 1,-1 0,-17 1,-1 0,-6 -1,-1 0,0 -1,-1 -8,0 -1,1 -6,0 -1,-1 -5,0 -1,1 -20,0Z"/>
<path onmouseover="hoverPath(evt)" onmouseout="recoverPath(evt)" fill="rgb(241,240,230)" d="M  37,89l 0,1 1,1 0,7 1,1 0,8 1,1 0,9 1,1 0,8 1,1 0,7 1,1 0,5 9,0 1,-1 0,-9 1,-1 1,-1 13,0 1,-1 1,0 0,-1 1,-1 0,-1 -1,-1 0,-3 -2,0 -1,-1 0,-18 -1,0 -1,-1 -14,0 -1,-1 -1,-1 0,-2 -1,-1 0,-7 -1,-1 -10,0Z"/>
<path onmouseover="hoverPath(evt)" onmouseout="recoverPath(evt)" fill="rgb(241,239,228)" d="M  48,185l 0,4 1,1 0,20 -1,1 0,2 28,0 0,-2 -1,0 -1,-1 -8,0 -1,-1 -1,-1 0,-13 -1,-1 -1,-1 -1,-1 0,-10 -11,0 -1,1 -1,0Z"/>
<path onmouseover="hoverPath(evt)" onmouseout="recoverPath(evt)" fill="rgb(239,237,224)" d="M  76,134l 0,3 1,1 0,2 76,0 0,-1 1,-1 0,-1 -1,-1 0,0 -1,-1 -9,0 -1,1 -26,0 -1,-1 -1,-1 0,-3 2,-2 1,0 0,-17 -19,0 -1,-1 0,1 -1,1 -2,0 0,10 -1,1 0,5 -1,1 -1,0 -1,1 -5,0 -1,-1 -8,0 -1,1 0,2 1,1Z"/>
<path onmouseover="hoverPath(evt)" onmouseout="recoverPath(evt)" fill="rgb(242,241,232)" d="M  160,172l -1,0 0,3 -1,1 0,25 1,1 2,0 1,1 1,1 0,10 1,1 13,0 0,-44 -16,0 -1,1Z"/>
<path onmouseover="hoverPath(evt)" onmouseout="recoverPath(evt)" fill="rgb(243,241,233)" d="M  189,89l 0,3 1,1 0,2 -1,1 0,31 1,1 0,5 -1,1 -1,0 0,5 1,1 18,0 0,-2 1,-1 0,-15 1,-1 2,0 1,1 0,18 16,0 0,-1 1,-1 0,-26 1,-1 2,0 0,-3 1,-1 0,-1 1,-1 0,-1 1,-1 0,-1 1,-1 1,-1 -1,-1 0,-2 1,-1 1,-1 0,-1 -3,0 -1,-1 -2,0 -1,-1 -2,0 -1,-1 -2,0 -1,-1 0,-2 -3,0 -1,1 -5,0 -1,-1 -3,0 -1,-1 -8,0 -1,-1 -9,0 -1,1 -3,0Z"/>
<path onmouseover="hoverPath(evt)" onmouseout="recoverPath(evt)" fill="rgb(245,243,237)" d="M  254,13l 1,0 0,-1 -2,0 -1,1 -8,0 -1,-1 0,-12 -1,5 0,6 -1,1 -1,1 -10,0 -1,-1 0,0 -1,-1 0,-11 -17,0 0,11 1,1 0,1Z"/>
<path onmouseover="hoverPath(evt)" onmouseout="recoverPath(evt)" fill="rgb(243,242,234)" d="M  0,78l 0,22 1,0 1,-1 0,0 1,-1 1,-1 1,0 1,-1 1,-1 1,-1 1,0 1,-1 1,-1 1,-1 1,0 1,-1 1,-1 1,-1 1,0 0,-1 1,-1 1,-1 1,-1 1,-1 1,-1 1,-1 1,-1 1,-1 1,-1 1,-1 1,-1 1,-1 1,-1 1,-1 1,0 0,-1 1,-1 1,-1 1,-1 0,-1 3,-3 1,-1 1,-1 1,-1 1,0 0,-1 1,-1 0,-1 1,-1 1,-1 1,-1 -24,0 0,2 -1,1 -6,0 -1,-1 -5,0 -1,-1 -3,0 -1,-1 -4,0Z"/>
<path onmouseover="hoverPath(evt)" onmouseout="recoverPath(evt)" fill="rgb(241,238,228)" d="M  10,42l 0,-8 -1,0 -1,-1 -8,0 0,10 8,0 1,1 0,1 1,0Z"/>
<path onmouseover="hoverPath(evt)" onmouseout="recoverPath(evt)" fill="rgb(253,253,252)" d="M  35,250l 0,0 1,1 0,4 9,0 0,-2 1,-1 7,0 -4,-1 -1,0 -1,-1 -1,0 -1,-1 0,-20 1,-1 0,-8 1,-1 1,0 1,-1 40,0 1,1 1,1 0,28 -1,1 -1,0 -1,1 -1,1 4,-2 1,0 1,-1 2,0 1,-1 4,0 1,-1 18,0 1,1 3,0 1,1 3,0 -1,-1 -1,0 -1,-1 0,-26 1,-1 1,0 1,-1 17,0 1,1 1,1 1,1 3,0 1,1 2,0 0,-2 1,-1 1,-1 23,0 0,-1 -15,0 -1,-1 -1,-1 0,-10 -1,-1 -2,0 -1,-1 -1,-1 0,-27 1,-1 0,-3 1,-1 1,0 1,-1 18,0 0,-1 -6,0 -13,1 -6,0 -1,-1 0,-1 -1,-1 0,2 -1,1 -1,0 0,1 -1,1 1,0 1,-1 5,0 1,1 0,3 -121,76 126,-34 -1,1 -31,0 -1,-1 0,-3 -1,-1 0,4 -1,1 -44,0 -1,-1 0,-2 1,-1 1,0 0,-1 -3,0 -1,-1 -1,-1 0,-1 -1,-1 -8,0 -1,-1 -1,0 -1,-1 0,1 1,1 1,0 8,1 1,0 1,2 0,3 -1,1 -30,0 -1,-1 0,-4 1,-1 0,-18 -1,-1 0,-8 1,-1 1,0 1,-1 13,0 1,1 0,10 2,2 -1,-2 0,-10 1,-1 3,0 1,-1 -5,0 -1,1 -16,0 -1,-1 0,-2 -1,-1 0,-5 -1,-1 0,-9 -1,-1 0,-7 -1,-1 0,-7 1,-1 4,0 1,-1 3,0 1,1 6,0 1,-1 12,0 1,1 1,0 1,1 0,4 1,1 0,-5 1,-1 1,0 1,-1 36,0 1,1 1,1 0,1 1,1 0,-2 1,-1 3,0 1,-1 56,0 0,-1 -20,0 -1,-1 0,-1 -1,-1 0,-19 1,-1 -1,0 1,-1 1,1 0,0 1,-1 -1,0 -3,5 -1,0 -1,1 1,0 1,1 0,7 -1,1 0,1 1,1 -2,-2 -23,0 -1,1 -8,0 -1,-1 -1,-1 0,-3 1,-1 0,-13 1,-1 0,-1 -1,0 -1,-1 0,16 42,88 -126,34 96,-116 10,0 14,6 0,1 -1,1 -78,0 -1,-1 0,-2 -1,-1 0,3 -1,1 -16,0 -1,-1 -1,-1 0,-7 1,-1 0,-1 1,-1 13,0 1,1 1,0 1,1 0,-2 2,-2 10,0 1,1 3,0 1,-1 1,0 0,-5 1,-1 0,-9 -1,-1 0,10 -2,6 -3,0 -12,-1 0,-6 -1,3 0,2 -1,1 0,1 -1,1 -1,0 61,5 -96,116 17,-108 -10,0 -1,-1 0,-5 -1,-1 0,-7 -1,-1 0,-8 -1,-1 0,-9 -1,-1 0,-8 -1,-1 0,-7 -1,-1 0,-3 -1,0 0,4 1,1 0,7 1,1 0,8 1,1 0,9 1,1 0,8 1,1 0,8 1,1 0,7 1,1 0,7 1,1 0,9 1,1 0,6 1,1 0,9 1,1 0,13 -1,1 -30,0 -1,1 -13,0 0,1 19,0 1,-1 7,0 1,1 4,0 1,-1 10,0 1,1 2,2 0,8 -1,1 0,17 -1,1 0,21 -1,1 0,1 -1,1 -6,0 16,-108 -17,108 18,-108 0,0 -18,108 59,-32 26,0 1,1 1,0 1,1 -29,-2 -59,32 88,-5 -1,1 -2,0 4,1 0,0 -11,-2 -7,0 -11,2 -2,0 -1,-1 0,-26 31,25 -88,5 119,-47 -1,1 -11,0 -1,-1 0,0 -1,1 1,0 -18,-90 7,0 1,1 0,1 1,1 0,-2 1,-1 1,0 1,-1 -8,0 27,90 -119,47 81,-118Z"/>
<path onmouseover="hoverPath(evt)" onmouseout="recoverPath(evt)" fill="rgb(242,241,231)" d="M  49,221l -1,0 0,8 -1,1 0,18 1,0 1,1 1,0 1,1 3,0 1,1 0,2 -1,1 -7,0 0,1 98,0 0,-1 -3,0 -1,-1 -1,0 -1,1 -2,0 -1,-1 0,-2 -2,0 -1,-1 -1,0 -1,-1 -2,0 -1,1 -5,0 -1,-1 -3,0 -1,-1 -16,0 -1,1 -4,0 -1,1 -2,0 -1,1 -2,0 -1,1 -1,0 -1,1 -2,0 -1,-1 0,-2 1,-1 1,-1 1,-1 1,0 0,-26 -1,-1 -38,0 -1,1Z"/>
<path onmouseover="hoverPath(evt)" onmouseout="recoverPath(evt)" fill="rgb(237,235,220)" d="M  58,133l 0,0 -1,1 0,5 1,1 14,0 0,-5 -1,-1 0,-1 -1,0 -1,-1 -10,0 -1,1Z"/>
<path onmouseover="hoverPath(evt)" onmouseout="recoverPath(evt)" fill="rgb(242,241,232)" d="M  72,57l -1,0 0,3 -1,1 0,3 -1,1 0,1 -1,1 -1,1 -1,1 0,1 -1,1 -3,0 -1,-1 0,-3 1,-1 1,0 1,-1 1,-1 0,-1 1,-1 0,-5 -2,0 -1,1 -1,0 0,1 -1,1 -1,1 -1,1 -1,1 -1,0 0,2 -1,1 -1,1 -1,1 -1,0 0,2 -3,3 -1,1 -1,1 -1,0 0,1 -1,1 0,1 -1,1 -1,1 -1,1 0,1 -1,1 6,0 1,-1 1,0 1,-1 2,0 1,1 0,2 -1,1 0,10 1,0 1,1 30,0 0,-8 1,-1 0,-11 1,-1 0,-12 -1,-1 0,-2 -1,-1 0,-3 -1,1Z"/>
<path onmouseover="hoverPath(evt)" onmouseout="recoverPath(evt)" fill="rgb(244,242,235)" d="M  92,58l -2,0 0,3 1,1 0,16 -1,1 0,12 -1,1 0,8 -1,1 -1,0 0,1 1,0 1,1 1,-1 1,0 1,-1 1,-1 1,0 1,-1 1,0 1,-1 1,0 1,-1 1,0 0,-2 1,-1 3,0 1,-1 5,0 1,-1 5,0 1,-1 58,0 1,-1 2,0 -1,-1 0,0 -1,-1 0,-7 1,-1 0,-17 -1,-1 -13,0 -1,-1 -19,0 -1,-1 -16,0 -1,-1 -17,0 -1,-1Z"/>
<path onmouseover="hoverPath(evt)" onmouseout="recoverPath(evt)" fill="rgb(241,240,230)" d="M  94,222l 0,23 5,0 1,-1 4,0 1,-1 9,0 1,1 6,0 1,-1 0,-21 -1,-1 -1,0 -1,-1 -24,0 -1,1Z"/>
<path onmouseover="hoverPath(evt)" onmouseout="recoverPath(evt)" fill="rgb(237,234,220)" d="M  122,118l 0,11 -1,1 0,1 1,1 6,0 1,-1 24,0 0,-1 1,-1 0,-1 -1,-1 0,-1 -21,0 -1,-1 0,-1 -1,-1 0,-5 -1,-1 0,-1 -7,0Z"/>
<path onmouseover="hoverPath(evt)" onmouseout="recoverPath(evt)" fill="rgb(241,239,228)" d="M  134,118l 0,4 18,0 1,-1 1,0 0,-3 1,-1 1,-1 12,0 1,1 1,0 0,-11 -1,0 -1,-1 -10,0 -1,-1 -1,0 -1,-1 0,-1 -4,0 -1,-1 -2,-2 -1,-1 0,-1 -1,0 -1,-1 -1,0 -1,-1 -21,0 -1,1 -10,0 -1,-1 -4,0 -1,1 -3,0 0,2 -1,1 -1,0 -1,1 -1,0 -1,1 -1,0 -1,1 -1,0 -1,1 -1,1 -1,0 -1,1 -1,0 0,4 -1,1 -8,0 -1,-1 0,-2 1,-1 0,-1 1,-1 0,-1 1,-1 1,0 0,-1 -11,0 0,6 -1,1 0,9 -1,1 1,0 1,1 0,3 1,-3 0,-1 1,-1 2,0 1,1 0,2 -1,1 0,5 13,0 0,-8 1,-1 0,-3 -1,-1 0,-3 1,-1 2,0 1,1 0,1 2,0 0,-1 1,-1 2,0 1,1 18,0 1,-1 2,0 1,1 0,1 1,0 1,1 2,0 1,-1 24,0 1,1 0,2 -1,1 -14,0 -1,1 -1,0Z"/>
<path onmouseover="hoverPath(evt)" onmouseout="recoverPath(evt)" fill="rgb(242,240,230)" d="M  159,121l -1,0 0,17 19,0 0,-42 1,-1 -27,0 0,1 1,1 0,0 1,1 1,1 0,1 2,0 1,1 0,1 1,0 1,1 10,0 1,1 1,0 1,1 0,13 -1,1 -2,0 -1,1 -8,0 -1,1Z"/>
<path onmouseover="hoverPath(evt)" onmouseout="recoverPath(evt)" fill="rgb(248,246,232)" d="M  189,218l 54,0 1,1 1,0 1,1 0,0 1,-1 1,-1 7,0 0,-2 -7,0 -1,-1 -1,-1 0,-16 1,-1 1,0 1,-1 3,0 -7,5 0,15 -1,1 -32,0 -1,-1 0,-34 1,-1 0,-1 1,-1 5,0 1,-1 -8,0 -1,-1 0,-26 -1,20 0,7 1,1 0,1 1,1 -1,-3 0,16 -5,0 -1,1 5,0 1,1 0,20 -1,1 -13,0 -1,-1 -1,-1 0,-17 -1,17 0,1 -1,1 -2,0 -1,1 -1,1 0,-73 -1,69 -1,0 0,10 1,-6 1,0 1,-1Z"/>
<path onmouseover="hoverPath(evt)" onmouseout="recoverPath(evt)" fill="rgb(244,242,234)" d="M  190,62l -1,0 0,20 16,0 1,1 6,0 1,1 0,2 3,0 1,1 3,0 1,-1 5,0 1,1 0,2 2,0 1,1 2,0 1,1 2,0 1,1 3,0 1,1 0,3 1,0 1,-1 1,-1 2,0 1,-1 3,0 1,-1 5,0 0,-28 -22,0 -1,-1 -12,0 -1,-1 -1,1 -8,0 -1,-1 -19,0 49,35 -1,1 1,0 0,-1 -49,-35Z"/>
<path onmouseover="hoverPath(evt)" onmouseout="recoverPath(evt)" fill="rgb(238,235,223)" d="M  230,2l 0,8 1,1 8,0 1,-1 0,-6 1,-1 0,-3 -11,0Z"/>
<path onmouseover="hoverPath(evt)" onmouseout="recoverPath(evt)" fill="rgb(239,236,224)" d="M  245,2l 0,9 6,0 1,-1 3,0 0,-10 -10,0Z"/>
<path onmouseover="hoverPath(evt)" onmouseout="recoverPath(evt)" fill="rgb(242,241,232)" d="M  255,172l 0,-27 -20,0 -1,1 0,13 -1,1 0,2 1,1 0,1 1,1 2,0 1,1 1,1 1,1 0,1 1,0 1,1 1,1 1,0 1,1 1,0 1,1 0,2 1,0 1,1 3,0 1,1 2,0Z"/>
<path onmouseover="hoverPath(evt)" onmouseout="recoverPath(evt)" fill="rgb(253,253,253)" d="M  69,98l -15,0 -1,-1 -1,0 -1,-1 0,1 1,1 1,0 -2,-3 0,-11 1,-1 -2,1 0,0 -1,1 -8,0 -1,-1 -1,0 -1,1 2,0 9,1 1,1 0,7 19,4 3,0 0,1 12,0 1,1 0,3 -1,1 -1,0 0,1 -1,1 0,1 -1,1 6,0 0,-4 -2,0 -13,-6 -3,0 17,1 1,0 0,-8 1,-1 0,-12 1,-1 0,-14 -1,14 -1,12 0,1 -1,8 0,1 -17,-1 4,0 -3,3 -1,0 0,15 1,-10Z"/>
<path onmouseover="hoverPath(evt)" onmouseout="recoverPath(evt)" fill="rgb(240,237,226)" d="M  79,199l 0,-19 1,-1 -2,0 -1,1 -1,0 -1,1 -5,0 -1,1 -3,0 0,5 -1,1 0,1 1,1 0,1 1,1 0,1 1,1 0,11 1,0 1,1 8,0 1,1 1,1 0,1 1,1 2,0 0,-6 -1,-1 -3,-3Z"/>
<path onmouseover="hoverPath(evt)" onmouseout="recoverPath(evt)" fill="rgb(247,246,241)" d="M  85,210l 1,0 0,-6 1,-1 13,0 1,-1 1,-1 0,-4 1,-1 14,0 1,1 1,-1 0,0 -1,-1 0,0 -1,-1 -1,-1 0,-3 -1,1 -3,0 1,1 0,2 -1,1 -1,0 -26,15 18,-15 -2,0 -1,1 -16,0 -1,-1 -1,0 -1,-1 0,5 1,1 0,0 1,1 1,1 1,1 0,6 18,-14 -18,15 -4,-27 1,-1 0,-1 1,-1 3,0 -2,-1 0,-1 -1,0 -1,-1 0,-1 -1,-1 -1,-1 -1,-1 0,3 -1,1 3,0 1,1 0,2 -1,1 0,2 4,27Z"/>
<path onmouseover="hoverPath(evt)" onmouseout="recoverPath(evt)" fill="rgb(240,239,227)" d="M  121,186l -2,0 -1,-1 0,1 1,1 0,2 -1,1 0,2 1,1 1,1 1,1 0,2 -2,2 -2,0 -1,-1 -12,0 0,4 -1,1 -1,1 -1,1 -13,0 0,6 -1,1 -1,1 -1,0 0,1 -1,1 41,0 0,-6 1,-1 2,0 1,1 0,2 1,1 0,3 29,0 0,-8 -1,-1 -19,0 -1,-1 0,-2 1,-1 1,-1 2,0 1,1 9,0 1,-1 1,0 0,-29 -3,0 -1,1 -3,0 -1,-1 -1,1 -2,0 -1,1 -1,1 -1,0 0,2 -1,1 -2,0 -1,-1 -1,0 -1,1 -1,0 0,2 -1,1 -1,1 -1,0 -1,1 -2,0 -1,1 -1,0 -1,1 -2,0 -1,1Z"/>
<path onmouseover="hoverPath(evt)" onmouseout="recoverPath(evt)" fill="rgb(241,240,230)" d="M  126,223l 0,22 1,0 1,1 1,1 3,0 1,1 1,0 1,1 2,0 1,1 0,2 1,-1 3,0 1,1 3,0 1,1 0,2 5,0 0,-31 -2,0 -1,-1 -3,0 -1,-1 -1,-1 -1,-1 -15,0 -1,1 -1,0Z"/>
<path onmouseover="hoverPath(evt)" onmouseout="recoverPath(evt)" fill="rgb(243,242,233)" d="M  155,223l 0,0 -1,1 0,31 23,0 0,-35 -21,0 -1,1Z"/>
<path onmouseover="hoverPath(evt)" onmouseout="recoverPath(evt)" fill="rgb(244,243,236)" d="M  165,50l 7,0 1,-1 1,0 0,-34 1,-1 0,-14 -74,0 0,2 -1,1 0,1 -1,1 0,1 -1,1 -1,1 0,1 -1,1 0,1 -1,1 0,1 -1,1 -1,1 0,1 -1,1 0,1 -1,1 -1,1 0,1 -1,1 -1,1 0,1 -1,1 -1,1 -1,0 0,2 -1,1 -1,1 0,1 -1,1 -1,1 -1,0 0,2 -1,1 -1,1 -1,0 0,2 -1,1 -1,1 -1,1 0,1 -1,1 7,0 1,1 22,0 1,1 16,0 0,-2 1,-1 2,0 1,1 0,2 6,0 1,1 20,0 1,1 0,1 1,1 1,0 1,1 7,0 1,-1Z"/>
<path onmouseover="hoverPath(evt)" onmouseout="recoverPath(evt)" fill="rgb(168,204,209)" d="M  179,251l 0,4 9,0 0,-34 -1,6 -2,0 -1,-1 0,-30 -1,0 -1,-1 0,-1 -1,0 0,22 -1,1 0,2 -1,1Z"/>
<path onmouseover="hoverPath(evt)" onmouseout="recoverPath(evt)" fill="rgb(253,253,253)" d="M  189,143l 39,0 1,1 1,0 1,1 0,7 1,1 0,-8 1,-1 1,-1 21,0 0,-1 -20,0 -1,-1 -1,0 -1,-1 0,-13 -1,-1 0,13 -1,1 0,1 -1,1 -18,0 -1,-1 0,-18 -1,16 0,2 -1,1 -18,0 -1,1Z"/>
<path onmouseover="hoverPath(evt)" onmouseout="recoverPath(evt)" fill="rgb(242,241,232)" d="M  189,23l 0,28 1,1 12,0 0,-5 1,-1 0,-7 1,-1 2,0 1,1 0,12 -1,1 2,0 1,1 22,0 1,1 15,0 0,-4 1,-1 0,-17 1,-1 0,-6 1,-1 2,0 1,1 0,10 -1,1 0,18 3,0 0,-39 -44,0 -1,-1 0,-1 -1,-1 0,-12 -19,0 0,17 25,0 1,1 0,2 -1,1 -9,0 -1,1 -1,0 0,7 4,0 1,1 9,0 1,1 0,2 -1,1 -12,0 -1,-1 -3,0 -1,-1 -1,-1 -1,-1 0,-4 1,-1 0,-2 -1,-1 0,-1 -11,0 1,1Z"/>
<path onmouseover="hoverPath(evt)" onmouseout="recoverPath(evt)" fill="rgb(242,241,232)" d="M  190,223l 0,32 24,0 0,-31 1,-1 1,0 0,-2 1,-1 -27,0Z"/>
<path onmouseover="hoverPath(evt)" onmouseout="recoverPath(evt)" fill="rgb(239,236,224)" d="M  198,215l 10,0 0,-4 1,-1 0,-12 -1,-1 -11,0 -1,1 0,16 1,1Z"/>
<path onmouseover="hoverPath(evt)" onmouseout="recoverPath(evt)" fill="rgb(242,241,232)" d="M  214,182l 0,0 -1,1 0,32 30,0 0,-1 1,-1 0,-7 -1,-1 0,-5 1,-1 0,-3 1,-1 1,0 1,-1 6,0 1,1 0,2 -1,1 -3,0 -1,1 -1,0 0,14 1,1 6,0 0,-35 -3,0 -1,-1 -3,0 -1,-1 -1,0 -1,-1 0,-2 -1,0 -1,-1 -1,0 -1,-1 -1,-1 -1,0 -1,-1 0,-1 -1,-1 -1,-1 -2,0 -1,-1 -1,-1 0,-1 -1,-1 0,-3 -1,-1 0,-5 -1,-1 0,-7 -1,1 -14,0 0,1 -1,1 -2,0 1,1 0,26 11,0 1,1 0,2 -1,1 -3,0 -1,1 -4,0 -1,1Z"/>
<path onmouseover="hoverPath(evt)" onmouseout="recoverPath(evt)" fill="rgb(242,241,232)" d="M  218,223l 0,1 -1,1 -1,0 0,30 28,0 0,-34 -1,1 -24,0 -1,1Z"/>
<path onmouseover="hoverPath(evt)" onmouseout="recoverPath(evt)" fill="rgb(243,241,232)" d="M  242,98l -1,0 0,1 -1,1 -1,0 0,1 -1,1 -1,1 0,1 -1,1 0,1 -1,1 0,1 -1,1 0,3 -1,1 0,12 1,1 0,13 1,0 1,1 19,0 0,-46 -4,0 -1,1 -3,0 -1,1 -2,0 -1,1 -1,1Z"/>
<path onmouseover="hoverPath(evt)" onmouseout="recoverPath(evt)" fill="rgb(240,238,227)" d="M  248,223l 0,32 7,0 0,-35 -6,0 -1,1Z"/>
</svg>