<svg width="256" height="256" xmlns="http://www.w3.org/2000/svg"><script> 
var tempColor;
function hoverPath(evt){
obj = evt.target;
tempColor = obj.getAttribute("fill");
obj.setAttribute("fill","red");
//alert(tempColor);
//obj.setAttribute("stroke","red");}
function recoverPath(evt){
obj = evt.target;
obj.setAttribute("fill", tempColor);
//obj.setAttribute("stroke", tempColor);
}</script><path onmouseover="hoverPath(evt)" onmouseout="recoverPath(evt)" fill="rgb(247,236,137)" d="M  0,92l 0,93 1,0 0,-2 1,-1 0,-2 1,-1 0,-1 1,-1 0,-1 1,-1 1,0 0,-7 1,-1 0,-2 1,-1 0,-4 1,-1 0,-3 1,-1 0,-3 1,-1 0,-4 1,-1 0,-10 1,-1 0,-1 -1,-1 0,-19 -1,-1 0,-7 -1,0 -1,-1 0,-6 1,-1 0,-3 -1,-1 0,-3 -1,-1 0,-1 -1,-1 0,-2 -1,-1 0,-1 -1,-1 0,-1 -1,-1 0,-1 -1,-1 0,-1 -1,-1 0,-1 -1,-1 -1,0Z"/>
<path onmouseover="hoverPath(evt)" onmouseout="recoverPath(evt)" fill="rgb(190,216,149)" d="M  69,220l 0,0 -1,1 -1,1 -2,0 -1,1 -1,1 -1,1 0,1 -1,1 -3,0 -1,1 -1,0 0,1 -1,1 -1,0 -1,1 -4,0 -1,1 -3,0 -1,1 2,0 1,1 1,1 1,1 1,0 1,1 1,0 1,1 0,1 2,2 1,0 1,1 1,1 1,0 1,1 1,1 0,6 -1,1 0,3 70,0 0,-5 -1,-1 0,-1 -1,-1 0,-1 -1,0 -1,-1 -1,-1 0,-12 1,-1 0,-1 -1,-1 0,-4 1,-1 0,-2 1,-1 2,0 0,-2 -1,-1 0,-10 -1,-1 -1,1 0,0 -1,1 -3,0 -1,-1 -7,0 -1,1 -4,0 -1,-1 -2,0 0,2 -1,1 -3,0 -1,1 -9,0 -1,-1 -7,0 -1,-1 -2,0 -1,1 -2,0 -1,1 -1,1 -1,1 -1,1 -1,1 -1,0 -1,1 0,1 -1,1 -1,1Z"/>
<path onmouseover="hoverPath(evt)" onmouseout="recoverPath(evt)" fill="rgb(183,208,203)" d="M  133,204l 0,0 -1,1 0,6 -1,1 -1,0 0,5 1,1 0,4 -1,1 -2,0 0,2 -1,1 0,2 1,1 0,3 -1,1 0,10 1,1 1,0 1,1 0,1 1,1 0,1 1,1 0,6 73,0 0,-4 1,-1 0,-3 -1,-1 0,-1 -1,-1 0,-3 1,-1 -1,0 -1,-1 0,-2 -1,-1 -1,-1 -1,-1 -1,-1 -1,0 -1,-1 0,1 -1,1 -2,0 -1,-1 -1,-1 -1,0 -1,-1 -1,-1 0,-2 -1,-1 -1,-1 0,-1 -1,-1 0,-3 -2,0 -1,-1 0,-12 1,-1 0,-1 1,-1 1,-1 1,-1 1,-1 2,0 2,-2 0,-5 -2,0 -1,-1 0,-1 -1,-1 -2,0 -1,-1 -1,0 -1,1 0,0 -1,1 -2,0 -1,-1 -2,0 0,2 1,1 0,12 1,1 1,1 0,5 -1,1 0,15 -1,1 0,1 -1,1 -1,0 -1,1 -7,0 -1,-1 0,-2 -2,0 -1,1 -4,0 -1,-1 -3,0 -1,-1 -1,-1 -1,-1 -1,-1 0,-2 1,-1 0,-2 -1,0 -1,-1 -1,1 -4,0 -1,-1 -1,0 -1,-1 0,-2 -1,-1 -1,-1 0,-1 -1,-1 0,-3 1,-1 0,-1 1,-1 1,-1 1,0 1,-1 1,-1 -1,-1 0,-2 1,-1 2,0 1,-1 -13,0 -1,1 -1,0 -1,1Z"/>
<path onmouseover="hoverPath(evt)" onmouseout="recoverPath(evt)" fill="rgb(186,212,162)" d="M  186,208l 0,0 -1,1 0,10 2,0 1,1 0,3 1,1 0,1 1,1 1,1 0,2 1,1 1,0 1,1 1,1 0,-1 1,-1 2,0 1,1 1,0 1,1 1,1 1,1 1,1 1,1 0,2 2,0 1,1 0,2 -1,1 -1,0 0,1 1,1 0,1 1,1 0,5 -1,1 0,3 26,0 0,-7 -1,-1 0,-11 -1,-1 0,-8 1,-1 1,0 0,-4 -1,-1 0,-5 -1,-1 0,-5 -1,-1 0,-9 -1,-1 0,-8 -1,-1 0,-8 -1,-1 0,-8 -1,-1 0,-7 -1,-1 0,-5 -1,-1 0,-4 -1,-1 0,-4 -2,0 -1,-1 -1,-1 -2,0 -1,-1 -1,0 -1,-1 -1,0 -1,-1 -2,0 -1,-1 -2,0 -1,-1 -1,0 -1,-1 -2,0 -1,-1 -9,0 -1,-1 0,-1 -3,0 -1,1 -7,0 -1,1 -10,0 -1,1 -8,0 -1,1 -10,0 -1,1 -11,0 -1,1 -13,0 -1,1 -12,0 -1,1 -11,0 -1,1 -12,0 -1,1 -12,0 -1,1 -11,0 -1,-1 -4,0 -1,-1 -4,0 -1,1 -4,0 -1,1 -3,0 -1,1 -2,0 -1,1 -2,0 -1,1 -21,0 -1,1 0,3 -1,1 0,3 -1,1 0,4 -1,1 0,2 -1,1 0,7 -1,1 -1,0 0,1 -1,1 0,1 -1,1 0,2 -1,1 0,2 -1,1 -2,0 0,4 8,0 1,1 4,0 1,1 1,-1 0,-10 1,-1 0,-2 1,-1 5,0 1,1 2,0 1,1 2,0 1,1 1,1 1,0 1,1 1,1 0,3 1,-2 2,0 -1,-1 0,0 -1,-1 0,-2 1,-1 0,-3 1,-1 3,0 1,-1 1,0 1,-1 3,0 1,1 7,0 1,1 1,0 1,-1 8,0 1,1 1,1 0,-3 1,-1 11,0 1,1 0,5 2,0 1,1 1,1 0,3 1,1 0,1 2,0 1,1 0,2 1,1 0,6 -1,1 -2,0 0,2 -1,1 0,2 -1,1 0,1 -1,1 0,1 -1,1 -2,0 -1,-1 0,3 1,0 1,-1 4,0 1,1 7,0 1,1 7,0 1,-1 3,0 0,-2 1,-1 4,0 1,1 2,0 1,-1 9,0 1,1 1,0 1,-1 1,-1 2,0 1,1 1,1 0,-3 1,-1 0,-2 1,-1 1,-1 1,0 1,-1 20,0 1,1 0,1 1,-1 5,0 0,-3 1,-1 5,0 0,-1 1,-1 1,0 1,-1 1,0 1,-1 2,0 1,-1 1,0 1,-1 2,0 1,1 0,1 1,-1 0,0 1,-1 3,0 1,1 2,0 1,1 1,1 0,1 2,0 1,1 0,7 -1,1 -1,1 -1,1 -2,0 -1,1 -2,2Z"/>
<path onmouseover="hoverPath(evt)" onmouseout="recoverPath(evt)" fill="rgb(251,251,249)" d="M  13,149l 0,1 20,0 1,-1 2,0 1,-1 2,0 1,-1 3,0 1,-1 4,0 1,-1 6,0 1,1 4,0 1,1 9,0 1,-1 12,0 1,-1 12,0 1,-1 11,0 1,-1 12,0 1,-1 13,0 1,-1 11,0 1,-1 10,0 1,-1 8,0 1,-1 10,0 1,-1 7,0 1,-1 5,0 1,-1 7,0 1,-1 8,0 1,-1 11,0 1,1 0,1 1,1 0,-3 1,-1 1,0 1,-1 -8,0 -1,1 -8,0 -1,1 -8,0 -1,1 -9,0 -1,1 -10,0 -1,1 -7,0 -1,1 -8,0 -1,1 -9,0 -1,1 -10,0 -1,1 -13,0 -1,1 -12,0 -1,1 -11,0 -1,1 -12,0 -1,1 -5,0 -1,-1 0,-2 -1,-1 -1,1 -2,0 -1,1 -2,0 -1,1 -1,0 -1,1 -2,0 -1,-1 -10,0 -1,1 -4,0 -1,-1 -1,0 -1,1 -5,0 -1,-1 0,-2 1,-1 0,-1 3,-3 1,0 0,-2 1,-1 1,-1 1,-1 1,0 0,-2 1,-1 1,-1 1,-1 1,-1 1,-1 1,0 0,-1 1,-1 2,0 6,-6 1,-1 0,-2 1,-1 1,-1 3,-3 1,0 1,-1 1,-1 1,-1 1,0 1,-1 1,-1 1,-1 2,0 1,1 1,-1 0,0 1,-1 1,0 0,-2 2,-2 1,0 1,-1 1,0 1,-1 1,-1 1,0 1,-1 1,0 1,-1 1,-1 2,0 1,1 0,-2 1,-1 1,-1 1,0 1,-1 2,0 1,1 0,-2 1,-1 1,-1 1,0 1,-1 2,0 1,1 0,-2 1,-1 1,0 1,-1 1,-1 1,0 1,-1 1,0 1,-1 1,0 1,-1 1,0 1,-1 1,0 1,-1 1,0 1,-1 1,0 1,-1 1,0 1,-1 1,0 1,-1 2,0 1,1 0,-2 1,-1 1,0 1,-1 1,-1 1,0 1,-1 1,0 1,-1 1,0 1,-1 1,0 1,-1 1,0 1,-1 1,0 1,-1 1,0 1,-1 1,0 1,-1 1,0 1,-1 2,0 1,1 0,-2 1,-1 1,0 1,-1 1,-1 1,0 1,-1 1,0 1,-1 1,0 1,-1 1,0 1,-1 1,0 1,-1 1,0 1,-1 1,0 1,-1 1,0 1,-1 1,0 1,-1 1,0 1,-1 1,0 1,-1 2,0 1,1 1,-1 1,0 1,-1 1,0 1,-1 1,0 1,-1 1,0 1,-1 1,0 0,-2 1,-1 1,0 1,-1 1,0 1,-1 1,0 0,-1 -2,0 -1,1 -1,0 -1,1 -1,0 -1,1 -1,0 -1,1 -1,0 -1,1 -1,0 -1,1 -1,0 -1,1 -1,0 -1,1 -1,0 -1,1 -1,1 -1,0 -1,1 -1,0 -1,1 -5,0 -1,-1 0,3 -1,1 -1,1 -1,0 -1,1 -1,0 -1,1 -1,0 -1,1 -1,0 -1,1 -2,0 -1,-1 -1,1 -1,0 0,2 -1,1 -1,0 -1,1 -1,1 -1,0 -1,1 -1,0 -1,1 -1,0 -1,1 -1,0 -1,1 -1,0 -1,1 -1,0 -1,1 -1,0 -1,1 -1,0 -1,1 -2,0 -1,-1 -1,1 -1,0 0,2 -1,1 -1,0 -1,1 -1,1 -1,0 -1,1 -1,0 -1,1 -1,0 -1,1 -1,0 -1,1 -1,0 -1,1 -1,0 -1,1 -1,0 -1,1 -1,0 -1,1 -1,0 -1,1 -2,0 -1,-1 0,2 -1,1 -1,0 -1,1 -1,1 -1,0 -1,1 -1,0 -1,1 -1,0 -1,1 -1,1 -2,0 -1,-1 0,2 -1,1 -1,1 -1,0 -1,1 -2,0 -1,-1 0,2 -1,1 -1,1 -2,0 -1,-1 0,2 -1,1 -1,1 -2,0 -1,-1 0,2 -1,1 -4,0 0,3 -1,1 -4,0 -1,1 0,1 -1,1 -2,0 -1,1 0,1 -1,1 0,1 -1,1 -1,1 -1,1 -1,1 -1,1 -1,0 -1,1 0,1 -1,1 -1,1 -1,1 -1,1 -1,1 -1,1 -1,0 0,1 -1,1 0,1 -1,1 -3,3 -1,0 0,1 -1,1 -1,1 0,1 -1,1 -1,1 -1,1 -1,1 -2,0 -1,1 -3,3 -1,1 0,2 -1,1 -1,1 -2,0 -1,1 -19,0 -1,1Z"/>
<path onmouseover="hoverPath(evt)" onmouseout="recoverPath(evt)" fill="rgb(188,214,144)" d="M  18,181l 0,0 1,1 0,10 1,1 0,1 1,1 0,37 13,0 1,1 7,0 0,-1 1,-1 1,-1 3,0 1,-1 4,0 1,-1 1,0 0,-1 1,-1 1,0 0,-13 -1,-1 0,-6 -1,-1 -2,0 -1,-1 -1,-1 -1,0 -1,-1 -1,-1 -2,0 -1,-1 -1,0 -1,-1 0,-1 -5,0 -1,-1 -1,-1 -1,-1 -1,-1 0,-2 -1,-1 0,-2 -1,-1 0,-3 -1,-1 -1,0 -1,-1 -1,-1 -2,0 -1,-1 -2,0 -1,-1 -2,0 -1,1Z"/>
<path onmouseover="hoverPath(evt)" onmouseout="recoverPath(evt)" fill="rgb(185,213,145)" d="M  23,237l 0,0 1,1 0,1 1,1 0,1 1,1 0,4 1,1 0,2 -1,1 0,5 32,0 0,-4 1,-1 0,-4 -1,-1 -1,0 -2,-2 -1,0 -1,-1 -1,-1 -1,-1 0,-1 -1,0 -1,-1 -1,0 -1,-1 -1,-1 -1,-1 -10,0 -1,1 -10,0 -1,1 -1,-1 -1,1 -1,0 2,-1 1,1Z"/>
<path onmouseover="hoverPath(evt)" onmouseout="recoverPath(evt)" fill="rgb(170,198,237)" d="M  211,1l 1,1 1,1 1,1 1,1 0,1 1,1 1,1 1,1 1,1 1,1 1,1 1,1 0,1 1,1 1,1 1,1 1,1 1,1 1,1 1,1 1,1 0,1 3,3 1,1 1,1 1,1 0,1 1,1 1,1 0,1 1,1 1,1 0,1 1,1 1,1 0,1 1,1 1,1 0,1 1,1 1,1 0,1 1,1 1,1 0,1 1,1 1,1 0,1 1,1 1,1 0,1 1,1 1,1 0,1 1,0 0,-57 -43,0 -1,1Z"/>
<path onmouseover="hoverPath(evt)" onmouseout="recoverPath(evt)" fill="rgb(189,214,146)" d="M  0,227l 0,6 3,0 1,1 0,1 10,0 0,-2 1,-1 2,0 0,-33 -1,0 -1,-1 -5,0 0,5 -1,1 0,6 -1,1 0,7 -1,1 0,6 -1,1 -4,0 -1,-1 0,-3 1,-1 0,-7 1,-1 0,-6 1,-1 0,-6 1,-1 0,-2 -1,0 -1,-1 -3,0Z"/>
<path onmouseover="hoverPath(evt)" onmouseout="recoverPath(evt)" fill="rgb(192,215,173)" d="M  0,239l 0,16 24,0 0,-6 1,-1 -1,-1 0,-4 -1,-1 0,-1 -1,-1 0,-1 -3,0 -1,-1 0,-1 -1,-1 -1,0 -1,1 -12,0 -1,-1 0,-1 -2,0Z"/>
<path onmouseover="hoverPath(evt)" onmouseout="recoverPath(evt)" fill="rgb(253,253,253)" d="M  11,194l -3,0 -1,-1 -7,0 0,1 4,0 1,1 1,0 1,1 0,4 -1,1 0,6 -1,1 0,6 -1,1 0,7 -1,1 0,1 2,0 0,-6 1,-1 0,-7 1,-1 0,-6 1,-1 0,-5 1,-1 7,0 1,1 1,0 1,1 0,35 -1,1 -2,0 3,1 1,0 1,-1 -2,0 0,-38 -1,-1 0,-1 -1,-1 0,-10 -1,11 0,0 -1,1 -2,0 -1,-1Z"/>
<path onmouseover="hoverPath(evt)" onmouseout="recoverPath(evt)" fill="rgb(244,243,234)" d="M  13,105l 0,7 1,1 0,19 1,1 0,3 -1,1 0,9 18,0 1,-1 2,0 1,-1 0,-2 1,-1 1,-1 2,-2 1,-1 1,-1 2,0 1,-1 1,-1 1,-1 0,-1 1,-1 1,-1 0,-1 1,-1 1,0 1,-1 1,-1 1,-1 0,-1 1,-1 0,-1 1,-1 1,0 1,-1 2,-2 1,-1 1,-1 0,-1 1,-1 1,-1 1,0 1,-1 1,-1 1,-1 1,-1 0,-1 1,-1 0,-1 1,-1 1,-1 2,0 0,-1 1,-1 1,-1 4,0 0,-2 -1,-1 0,0 -1,-1 0,-1 -1,-1 -1,-1 -1,-1 0,-1 -1,-1 0,-1 -1,-1 -1,-1 0,-1 -1,-1 -1,-1 0,-1 -1,-1 -1,-1 0,-1 -1,-1 -1,-1 0,-1 -1,-1 -1,-1 0,-1 -1,-1 -1,-1 0,-2 1,-1 -1,-1 -1,-1 0,-1 -1,-1 -1,-1 0,-1 -1,-1 -1,-1 0,-1 -1,-1 -1,-1 0,-1 -1,-1 -1,-1 0,-1 -1,-1 0,-1 -2,0 -1,-1 0,-2 -1,0 0,2 -1,1 -1,1 -2,0 -1,1 -1,0 -1,1 -2,0 -1,1 -1,0 -1,1 -2,0 -1,1 -1,0 -1,1 -2,0 -1,1 -1,0 -1,1 -3,0 -1,1 -1,0 -1,1 -1,0 -1,1 -1,1 -1,0 -1,1 -1,0 -1,1 -1,0 -1,1 -2,0 -1,1 -1,0 -1,1 -1,0 -1,1 -4,0 0,1 2,0 1,1 1,1 0,1 1,1 0,1 1,1 0,1 1,1 0,1 1,1 0,1 1,1 0,2 1,1 0,1 1,1 0,3 1,1 0,5 -1,1 0,4 1,0 1,1 38,-56 1,0 1,-1 2,0 1,-1 1,0 1,-1 -1,0 -6,3 -38,56Z"/>
<path onmouseover="hoverPath(evt)" onmouseout="recoverPath(evt)" fill="rgb(192,217,153)" d="M  45,198l 0,0 1,1 2,0 1,1 1,1 1,0 1,1 1,1 2,0 1,1 1,1 0,6 1,1 0,13 2,0 0,-1 1,-1 2,-2 1,-1 2,0 1,-1 1,-1 1,-1 0,-1 1,-1 1,-1 1,0 1,-1 2,-2 1,-1 0,-5 1,-1 2,0 1,1 0,-1 1,-1 0,-1 1,-1 0,-2 1,-1 0,-2 1,-1 2,0 0,-4 -1,-1 0,-2 -2,0 -1,-1 0,-1 -1,-1 0,-3 -1,-1 -2,0 -1,-1 0,-5 -9,0 0,8 -1,1 -2,0 -1,-1 0,-5 -1,-1 -6,0 -1,1 -3,0 -1,-1 -7,0 -1,-1 -1,0 -1,1 -1,0 -1,1 -3,0 0,3 -1,1 1,1 0,0 1,1 0,2 -1,1 -2,0 0,1 -1,1 0,1 1,1 0,2 1,1 1,1 1,1 5,0 2,2Z"/>
<path onmouseover="hoverPath(evt)" onmouseout="recoverPath(evt)" fill="rgb(244,243,236)" d="M  56,50l -2,0 -1,1 -2,0 3,1 0,1 1,1 0,1 1,1 1,1 0,1 1,1 1,1 0,1 1,1 1,1 0,1 1,1 1,1 0,1 1,1 1,1 0,2 -1,1 1,1 1,1 0,1 1,1 1,1 0,1 1,1 1,1 0,1 1,1 1,1 0,1 1,1 1,1 0,1 1,1 1,1 0,1 1,1 0,1 1,1 1,1 1,1 0,1 1,1 4,0 0,-2 1,-1 2,0 1,1 1,-1 0,-2 1,-1 2,0 1,1 1,-1 0,-2 1,-1 2,0 1,1 1,-1 1,0 1,-1 0,-2 1,-1 2,0 1,1 1,-1 0,0 1,-1 1,0 1,-1 1,0 1,-1 1,0 1,-1 1,-1 1,0 0,-2 1,-1 2,0 1,1 1,-1 1,0 1,-1 1,0 1,-1 1,0 1,-1 1,0 1,-1 1,0 1,-1 1,0 1,-1 1,0 1,-1 1,0 1,-1 1,0 1,-1 1,-1 1,0 0,-2 1,-1 1,0 1,-1 2,0 1,1 1,-1 1,0 1,-1 1,0 1,-1 1,0 1,-1 1,0 1,-1 1,0 1,-1 1,0 1,-1 1,0 1,-1 1,0 1,-1 1,-1 1,0 0,-2 1,-1 1,0 1,-1 2,0 1,1 1,-1 1,0 1,-1 1,0 1,-1 1,0 1,-1 1,0 1,-1 0,-2 -1,-1 0,0 -1,-1 0,-1 -1,0 -1,-1 0,-1 -1,-1 0,-1 -1,-1 -1,-1 0,-1 -1,-1 -1,-1 0,-2 1,-1 -1,-1 0,0 -1,-1 -2,0 -1,-1 -1,-1 0,-1 -1,-1 -1,-1 0,-2 1,-1 0,-4 1,-1 1,-1 1,-1 1,0 1,-1 1,0 1,-1 1,-1 0,-2 1,-1 1,0 1,-1 1,-1 2,0 1,1 0,-2 1,-1 0,-1 -182,0 0,70 3,0 1,-1 1,0 1,-1 1,0 1,-1 2,0 1,-1 1,0 1,-1 1,0 1,-1 1,0 1,-1 1,-1 1,0 0,-2 1,-1 2,0 1,1 2,0 1,-1 1,0 1,-1 2,0 1,-1 1,0 1,-1 2,0 1,-1 1,0 1,-1 2,0 1,-1 1,0 1,-1 2,0 1,-1 0,-2 1,-1 1,0 1,-1 1,0 1,-1 2,0 1,-1 1,0 1,-1 3,0 1,1 0,2 -1,1 -1,1 -1,0 -1,1Z"/>
<path onmouseover="hoverPath(evt)" onmouseout="recoverPath(evt)" fill="rgb(243,242,234)" d="M  96,141l 4,0 1,-1 11,0 1,-1 12,0 1,-1 13,0 1,-1 10,0 1,-1 9,0 1,-1 8,0 1,-1 7,0 1,-1 10,0 1,-1 9,0 1,-1 8,0 1,-1 8,0 1,-1 13,0 1,-1 8,0 1,-1 9,0 1,-1 5,0 0,-67 -2,0 -1,-1 0,-1 -1,-1 -1,-1 0,-1 -1,-1 -1,-1 0,-1 -1,-1 -1,-1 0,-1 -1,-1 -1,-1 0,-1 -1,-1 -1,-1 0,-1 -1,-1 -1,-1 0,-1 -1,-1 -1,-1 0,-1 -1,-1 -1,-1 0,-1 -1,-1 -1,-1 0,-1 -1,-1 -1,-1 -1,-1 -1,-1 -1,-1 -1,-1 0,-1 -1,-1 -1,-1 -1,-1 -1,-1 -1,-1 -1,-1 -1,-1 -1,-1 0,-1 -1,-1 -1,-1 -1,-1 -3,-3 -1,-1 0,-1 -1,-1 -1,-1 -1,-1 -1,-1 0,-2 -10,0 0,1 1,1 0,0 1,1 1,1 1,1 1,1 1,1 1,1 1,1 1,1 1,0 1,1 1,1 0,2 1,1 0,2 -1,1 0,1 -1,1 -1,0 -1,1 -1,0 -1,1 -1,1 -1,0 -1,1 -2,0 -1,-1 -1,1 0,0 -1,1 -1,0 -1,1 -1,1 -1,0 -1,1 0,2 -1,1 -1,1 -1,1 -1,0 -1,1 -2,0 -1,-1 -1,1 0,2 -1,1 0,2 1,1 0,1 1,1 3,0 1,-1 1,0 1,-1 1,0 1,-1 1,-1 1,0 1,-1 1,0 1,-1 1,0 1,-1 1,0 1,-1 1,0 1,-1 1,0 1,-1 1,0 1,-1 1,0 1,-1 4,0 1,1 0,3 -1,1 -1,0 -1,1 -1,0 -1,1 -1,0 0,2 -1,1 -1,0 -1,1 -1,0 -1,1 -1,0 -1,1 -1,0 -1,1 -1,0 -1,1 -2,0 -1,-1 -1,1 -1,0 -1,1 -1,0 -1,1 -1,0 -1,1 -1,0 -1,1 -1,0 -1,1 -1,0 -1,1 -1,0 -1,1 -1,0 -1,1 -1,0 -1,1 -1,0 -1,1 -1,0 -1,1 -1,1 -1,0 0,2 -1,1 -2,0 -1,-1 -1,1 -1,0 -1,1 -1,0 -1,1 -1,0 -1,1 -1,0 -1,1 -1,0 -1,1 -1,0 -1,1 -1,0 -1,1 -1,0 -1,1 -1,0 -1,1 -1,1 -1,0 0,2 -1,1 -2,0 -1,-1 -1,1 -1,0 -1,1 -1,0 -1,1 -1,0 -1,1 -1,0 -1,1 -1,0 -1,1 -1,0 -1,1 -1,0 -1,1 -1,0 -1,1 -1,0 -1,1 -1,1 -1,0 0,2 -1,1 -2,0 -1,-1 -1,1 -1,0 -1,1 0,2 -1,1 -2,0 -1,-1 -1,1 -1,0 -1,1 0,2 -1,1 -2,0 -1,-1 -1,1 0,0 -1,1 -1,0 -1,1 -1,0 -1,1 -1,1 -1,0 -1,1 -1,0 -1,1 0,2 -1,1 -1,0 -1,1 -1,1 -2,0 -1,-1 -2,2 -1,1 -1,0 -1,1 -1,1 -1,1 -1,0 -1,1 -1,1 -1,1 -1,1 0,2 -1,1 -1,1 -1,1 -1,1 -1,1 -1,1 -1,1 -1,1 -2,0 0,1 -1,1 -1,0 -1,1 -1,1 -1,1 -1,1 0,2 -1,1 -1,0 -1,1 -1,1 0,2 -1,1 -1,0 -1,1 -1,1 0,1 -1,1 3,0 1,-1 3,0 1,1 2,0 1,-1 12,0 1,1 1,-1 1,0 1,-1 2,0 1,-1 2,0 1,-1 1,0 1,-1 2,0 1,1 0,2 -1,1 0,1 3,0 1,-1 8,0 100,-14 -13,0 -1,1 -5,0 -1,-1 -1,0 -1,-1 0,-1 -1,-1 0,-1 -1,-1 0,-2 -1,-1 0,-1 -1,-1 -2,0 -1,-1 0,-1 -1,-1 -1,-1 -1,-1 -1,-1 0,-2 1,-1 2,0 0,-6 1,-1 1,-1 1,-1 1,0 1,-1 1,0 1,-1 1,0 1,-1 1,0 1,-1 1,0 1,-1 1,0 1,-1 1,0 1,-1 2,0 1,1 1,-1 1,0 1,-1 1,0 1,-1 1,0 1,-1 2,0 1,-1 1,0 1,-1 1,-1 1,0 1,-1 1,-1 2,0 1,-1 1,-1 1,-1 2,0 1,-1 0,-1 1,-1 2,0 1,1 1,1 0,1 1,1 1,1 0,2 1,0 1,1 2,0 1,1 1,1 1,1 0,1 1,1 1,1 0,1 1,1 1,1 1,1 0,2 -1,1 1,1 0,0 1,1 0,1 1,1 0,3 -1,1 -4,0 -1,1 -4,0 0,2 -1,1 0,1 -1,1 0,2 -1,1 -1,1 -12,0 -1,1 -1,0 -1,1 0,1 -1,1 0,1 -1,1 0,1 -1,1 -1,1 -1,0 -1,1 -100,14 13,-9 -2,0 -1,-1 0,-2 1,-1 1,0 1,-1 2,0 1,1 0,2 -1,1 -1,0 -1,1 -13,9 19,-15 0,-2 1,-1 2,0 1,1 0,2 -1,1 -2,0 -1,-1 -19,15 24,-18 0,-2 1,-1 2,0 1,1 0,2 -1,1 -2,0 -1,-1 -24,18Z"/>
<path onmouseover="hoverPath(evt)" onmouseout="recoverPath(evt)" fill="rgb(191,216,151)" d="M  143,211l 0,0 -1,1 0,1 1,1 0,1 1,1 1,1 0,2 1,0 1,1 2,0 1,-1 2,0 1,1 1,0 1,1 0,4 -1,1 1,1 1,1 1,1 3,0 1,1 2,0 1,-1 4,0 1,1 0,2 5,0 1,-1 1,0 0,-1 1,-1 0,-15 1,-1 0,-3 -1,-1 0,0 -1,-1 0,-12 -1,-1 0,-2 -1,0 -1,1 -1,0 -1,1 -1,0 0,1 -1,1 -5,0 0,3 -1,1 -5,0 -1,1 -7,0 -1,1 -2,0 1,1 0,2 -1,1 -1,1 -1,1 -1,0 -1,1Z"/>
<path onmouseover="hoverPath(evt)" onmouseout="recoverPath(evt)" fill="rgb(231,235,238)" d="M  166,111l 3,3 0,1 2,0 1,1 1,1 0,1 1,1 0,2 1,1 0,1 1,1 0,1 1,0 1,1 3,0 1,-1 13,0 0,-2 1,-1 1,-1 2,0 0,-1 1,-1 0,-1 1,-1 1,-1 1,0 1,-1 12,0 1,-1 0,-2 1,-1 0,-1 1,-1 -1,0 -1,2 -1,3 -1,0 -12,1 -2,0 -1,1 -11,0 -1,1 -4,0 -1,-1 -1,0 -1,-1 0,-1 -3,0 -1,-1 -3,0 -1,-1 -2,0 -1,-1 -1,-1 0,-7 -1,0 0,6 -1,1 -1,1 4,-10 1,0 1,-1 1,0 1,-1 1,0 1,-1 1,0 1,-1 1,0 1,-1 1,0 1,-1 1,0 1,-1 -14,7 -4,10Z"/>
<path onmouseover="hoverPath(evt)" onmouseout="recoverPath(evt)" fill="rgb(243,242,233)" d="M  169,14l 0,0 -1,1 0,4 -1,1 1,1 2,0 1,1 1,1 0,1 1,1 1,1 1,1 0,2 -1,1 1,1 2,0 1,1 1,1 0,2 -1,1 1,1 0,1 1,0 1,1 0,1 1,1 -1,-3 0,-2 1,-1 0,-2 1,-1 1,-1 2,0 1,1 1,-1 1,0 1,-1 1,-1 0,-2 1,-1 1,-1 1,0 1,-1 1,-1 1,0 1,-1 1,-1 2,0 1,1 1,-1 1,0 1,-1 1,-1 1,0 1,-1 1,0 0,-1 1,-1 -1,-1 0,-2 -1,-1 -1,0 -1,-1 -1,-1 -1,-1 -1,-1 -1,-1 -1,-1 -1,-1 -1,-1 -1,-1 -1,-1 0,-2 -13,0 0,2 -1,1 0,2 -1,1 -2,0 -1,-1 -1,1 0,2 -1,1 -1,0 -1,1 -1,1 -1,1 -1,0 -1,1 -1,0 -1,1Z"/>
<path onmouseover="hoverPath(evt)" onmouseout="recoverPath(evt)" fill="rgb(243,242,234)" d="M  172,103l 0,0 -1,1 0,5 1,1 2,0 1,1 3,0 1,1 3,0 1,1 0,1 1,0 1,1 2,0 1,-1 11,0 1,-1 13,0 1,-1 1,0 0,-2 1,-1 0,-1 1,-1 2,0 1,-1 4,0 1,-1 4,0 0,-1 -1,-1 0,-1 -2,-2 0,-2 1,-1 -1,-1 -1,-1 -2,0 -1,-1 -1,-1 0,-2 1,-1 -1,-1 0,0 -1,-1 -2,0 -1,-1 -1,0 -1,-1 0,-2 -1,-1 -1,-1 0,-1 -1,-1 0,1 -1,1 0,0 -1,1 -2,0 -1,1 -1,1 -1,1 -2,0 -1,1 -1,1 -1,0 -1,1 -1,1 -1,0 -1,1 -2,0 -1,1 -1,0 -1,1 -1,0 -1,1 -1,0 -1,1 -1,0 -1,1 -1,1 -1,0 -1,1 -1,0 -1,1 -1,0 -1,1 -1,0 -1,1 -1,0 -1,1 -1,0 -1,1Z"/>
<path onmouseover="hoverPath(evt)" onmouseout="recoverPath(evt)" fill="rgb(253,253,253)" d="M  226,151l 0,-1 -1,-1 0,2 1,0 1,6 -1,0 1,1 0,5 1,1 0,7 1,1 0,8 1,1 0,8 1,1 0,8 1,1 0,9 1,1 0,5 1,1 0,5 1,1 0,-2 -1,-5 0,-3 -1,-3 0,-6 -1,-4 0,-5 -1,-4 0,-5 -1,-4 0,-4 -1,-5 0,-4 -1,-4Z"/>
<path onmouseover="hoverPath(evt)" onmouseout="recoverPath(evt)" fill="rgb(243,242,234)" d="M  226,134l -1,0 0,6 -1,1 -2,0 -1,-1 0,-3 -1,-1 0,-1 -9,0 -1,1 -8,0 -1,1 -7,0 -1,1 9,0 1,1 2,0 1,1 1,0 1,1 2,0 1,1 2,0 1,1 1,0 1,1 1,0 1,1 2,0 1,1 1,1 1,0 0,-3 1,-1 2,0 1,1 0,4 1,1 0,4 1,1 0,4 1,1 0,6 1,1 0,8 1,1 0,7 1,1 0,8 1,1 0,8 1,1 0,8 1,1 0,7 1,1 0,9 -1,1 -3,0 0,6 1,1 0,11 1,1 0,8 20,0 0,-127 -4,0 -1,1 -9,0 -1,1 -8,0 0,2 -1,1 -4,0 -1,1Z"/>
</svg>