<svg width="256" height="256" xmlns="http://www.w3.org/2000/svg"><script> 
var tempColor;
function hoverPath(evt){
obj = evt.target;
tempColor = obj.getAttribute("fill");
obj.setAttribute("fill","red");
//alert(tempColor);
//obj.setAttribute("stroke","red");}
function recoverPath(evt){
obj = evt.target;
obj.setAttribute("fill", tempColor);
//obj.setAttribute("stroke", tempColor);
}</script><path onmouseover="hoverPath(evt)" onmouseout="recoverPath(evt)" fill="rgb(244,243,235)" d="M  1,124l -1,0 0,13 10,0 1,1 1,1 0,1 1,1 0,1 1,1 0,2 6,0 1,-1 6,0 1,-1 6,0 1,-1 4,0 1,-1 5,0 1,-1 5,0 1,-1 5,0 1,-1 2,0 0,-9 -2,0 -1,-1 0,-5 -38,0 0,6 -1,1 -3,0 -1,-1 0,-5Z"/>
<path onmouseover="hoverPath(evt)" onmouseout="recoverPath(evt)" fill="rgb(244,243,235)" d="M  0,204l 0,51 58,0 0,-4 -1,-1 0,-5 -1,-1 0,-6 -1,-1 0,-6 -1,-1 0,-6 -1,-1 0,-7 -1,-1 0,-5 -1,-1 0,-3 -1,-1 0,-1 -1,-1 -8,0 -1,1 -37,0 -1,-1 -1,0 -1,1Z"/>
<path onmouseover="hoverPath(evt)" onmouseout="recoverPath(evt)" fill="rgb(172,198,237)" d="M  16,147l -1,0 0,2 7,0 1,-1 5,0 1,-1 6,0 1,-1 5,0 1,-1 5,0 1,-1 4,0 1,-1 5,0 1,-1 0,-2 -1,1 -5,0 -1,1 -5,0 -1,1 -5,0 -1,1 -4,0 -1,1 -6,0 -1,1 -6,0 -1,1Z"/>
<path onmouseover="hoverPath(evt)" onmouseout="recoverPath(evt)" fill="rgb(244,243,235)" d="M  16,151l -1,0 0,36 1,1 0,6 22,0 1,1 20,0 0,-20 1,-1 1,0 -1,-1 0,-29 -1,1 -5,0 -1,1 -4,0 -1,1 -5,0 -1,1 -5,0 -1,1 -6,0 -1,1 -5,0 -1,1Z"/>
<path onmouseover="hoverPath(evt)" onmouseout="recoverPath(evt)" fill="rgb(241,240,233)" d="M  65,144l 0,25 1,1 0,25 2,0 1,1 18,0 1,1 16,0 -1,-1 0,-3 -1,-1 0,-3 -1,-1 0,-5 -1,-1 0,-3 -1,-1 0,-4 -1,-1 0,-3 -1,-1 0,-4 -1,-1 0,-3 -1,-1 0,-3 -1,-1 0,-3 -1,-1 0,-3 -1,-1 0,-3 -1,-1 0,-3 -1,-1 0,-1 -1,-1 0,-6 -1,-1 0,-3 -1,-1 0,-2 -1,-1 0,-2 -1,-1 0,-1 -1,-1 -1,-1 -1,-1 0,-2 1,-1 0,-1 1,-1 0,-4 -1,2 0,1 -1,1 -12,0 -1,1 -4,0 -1,1 0,1 1,1 0,5 -1,1 0,1 1,1 0,13 1,1 0,4 -1,1Z"/>
<path onmouseover="hoverPath(evt)" onmouseout="recoverPath(evt)" fill="rgb(172,198,237)" d="M  0,1l 0,6 12,0 1,1 59,0 1,-1 8,0 1,-1 7,0 1,-1 6,0 1,-1 5,0 1,-1 5,0 1,-1 2,0 1,-1 3,0 1,-1 -115,0 -1,1Z"/>
<path onmouseover="hoverPath(evt)" onmouseout="recoverPath(evt)" fill="rgb(254,254,254)" d="M  53,205l 0,3 1,1 0,5 1,1 0,7 1,1 0,6 1,1 0,6 1,1 0,6 1,1 0,5 1,1 0,5 1,0 0,-6 -1,-1 0,-5 -1,-1 0,-6 -1,-1 0,-6 -1,-1 0,-6 -1,-1 0,-7 -1,-1 0,-4 -1,-1 0,-2 -1,-1 0,-1Z"/>
<path onmouseover="hoverPath(evt)" onmouseout="recoverPath(evt)" fill="rgb(244,243,236)" d="M  100,137l 0,6 1,1 0,4 1,1 0,3 1,1 0,4 1,1 0,3 1,1 0,4 1,1 0,3 1,1 0,4 1,1 0,3 1,1 0,4 1,1 0,3 1,1 0,4 1,1 0,3 21,0 1,-1 13,0 1,-1 7,0 1,-1 8,0 1,-1 8,0 1,-1 7,0 1,-1 0,-1 1,-1 4,0 1,1 0,1 3,0 1,-1 4,0 0,-2 1,-1 0,-3 1,-1 2,0 1,1 0,1 1,1 0,2 2,0 1,1 1,0 1,-1 6,0 1,-1 6,0 1,-1 7,0 1,-1 3,0 0,-1 -1,-1 0,-4 -1,-1 0,-5 -1,-1 0,-3 -1,-1 0,-3 -1,-1 0,-3 -1,-1 0,-3 -1,-1 0,-3 -1,-1 0,-3 -1,-1 0,-3 -1,-1 0,-4 -1,-1 0,-4 -1,-1 0,-2 -1,-1 0,-4 -1,-1 0,-5 -1,-1 0,-3 -1,-1 0,-4 -1,-1 0,-3 -1,-1 0,-3 -1,-1 0,-3 -1,-1 0,-2 -1,-1 0,-3 -1,-1 0,-9 1,-1 0,-3 1,-1 0,-11 1,-1 0,-3 -1,-1 0,-41 -1,-1 0,-14 -1,-1 0,-2 -1,-1 0,-2 -83,0 0,2 -1,1 -1,0 -1,1 -4,0 -1,1 -2,0 -1,1 1,0 1,1 0,4 1,1 0,4 -1,1 -12,0 -1,1 -1,1 0,5 -1,1 -6,0 0,1 -1,1 -1,1 0,4 -1,1 0,3 1,1 0,0 1,1 0,9 -1,1 0,1 -1,1 -1,1 -1,1 -1,1 0,1 -1,1 -1,1 -1,1 -1,0 0,1 -1,1 -4,0 -1,-1 0,-9 1,-1 0,-1 -1,-1 0,-1 -3,0 -1,1 0,6 1,1 0,1 1,1 0,4 -1,1 -1,0 0,3 1,0 1,-1 2,0 1,1 0,7 1,1 0,6 -1,1 0,11 1,1 0,8 1,1 0,7 2,0 1,1 0,6 -1,1 1,0 1,1 0,1 1,1 0,-1 -1,-2 0,-3 1,-1 4,0 1,1 1,1 0,3 1,1 0,4 1,1 0,4 1,1 0,4 1,1 7,0 1,-1 7,0 1,-1 6,0 1,-1 6,0 1,-1 6,0 1,-1 6,0 1,-1 6,0 1,-1 7,0 1,-1 6,0 1,-1 6,0 1,1 0,1 1,1 0,1 1,1 0,1 1,1 0,1 1,1 0,2 1,1 0,1 1,1 0,1 1,1 0,3 -1,1 -2,0 -1,-1 -1,-1 0,-1 -1,-1 0,-1 -1,-1 0,-1 -1,-1 0,-1 -1,-1 0,-1 -1,-1 0,-1 -1,-1 0,-1 -5,0 -1,1 -6,0 -1,1 -5,0 -1,1 -7,0 -1,1 -6,0 -1,1 -6,0 -1,1 -6,0 -1,1 -6,0 -1,1 -6,0 -1,1 -4,0 -1,1Z"/>
<path onmouseover="hoverPath(evt)" onmouseout="recoverPath(evt)" fill="rgb(172,198,238)" d="M  215,0l -1,0 0,1 1,1 0,2 1,1 0,32 1,1 0,40 -1,1 0,3 -1,1 0,4 -1,1 0,3 1,0 1,1 0,2 1,1 0,3 1,1 0,3 1,1 0,4 1,1 0,3 1,1 0,3 1,1 0,4 1,1 0,4 1,1 0,3 1,1 0,4 1,1 0,4 1,1 0,3 1,1 0,3 1,1 0,3 1,1 0,3 1,1 0,3 1,1 0,3 1,1 0,3 1,1 0,4 1,1 0,5 1,1 0,4 1,1 0,2 3,0 1,-1 2,0 0,-1 1,-1 1,0 0,-1 1,-1 1,0 0,-3 1,-1 2,0 1,1 0,1 1,1 1,1 2,0 0,-85 -2,0 -1,-1 0,-3 -1,-1 0,-3 -1,-1 0,-3 -1,-1 0,-3 -1,-1 0,-3 -1,-1 0,-3 -1,-1 0,-3 -1,-1 0,-3 -1,-1 0,-3 -1,-1 0,-8 -1,-1 0,-5 1,-1 3,0 1,1 1,1 0,1 1,1 0,2 1,1 0,1 5,0 0,-23 -2,0 -1,-1 0,-2 -1,-1 0,-4 -1,-1 0,-5 -1,-1 0,-4 -1,-1 0,-5 -1,-1 0,-3Z"/>
<path onmouseover="hoverPath(evt)" onmouseout="recoverPath(evt)" fill="rgb(234,237,237)" d="M  248,193l -1,0 1,1 0,4 1,1 0,3 1,1 0,4 1,1 0,4 1,1 0,3 1,1 0,4 1,1 0,4 1,0 0,-34 -2,0 -1,1Z"/>
<path onmouseover="hoverPath(evt)" onmouseout="recoverPath(evt)" fill="rgb(245,244,237)" d="M  249,1l 0,1 1,1 0,5 1,1 0,4 1,1 0,5 1,1 0,4 1,1 0,2 1,0 0,-27 -5,0 -1,1Z"/>
<path onmouseover="hoverPath(evt)" onmouseout="recoverPath(evt)" fill="rgb(244,243,235)" d="M  255,80l 0,-26 -6,0 -1,-1 0,-1 -1,-1 0,-2 -1,-1 0,-1 -1,-1 -1,0 0,3 1,1 0,8 1,1 0,3 1,1 0,3 1,1 0,3 1,1 0,3 1,1 0,3 1,1 0,3 1,1 0,3 1,1 0,3 1,1 0,3 1,0Z"/>
<path onmouseover="hoverPath(evt)" onmouseout="recoverPath(evt)" fill="rgb(243,232,140)" d="M  0,198l 0,3 3,0 1,1 35,0 1,-1 10,0 1,1 4,0 1,1 5,0 1,1 27,0 1,1 14,0 1,1 0,-1 1,-1 7,0 1,1 17,0 1,-1 14,0 1,-1 8,0 1,-1 7,0 1,-1 8,0 1,-1 7,0 1,-1 9,0 1,-1 7,0 1,-1 6,0 1,-1 7,0 1,-1 5,0 0,-1 1,-1 7,0 1,1 0,2 1,-3 7,0 0,-1 1,-1 3,0 1,-1 4,0 1,1 5,0 1,-1 3,0 0,-7 -3,0 -1,-1 -1,-1 -1,-1 0,2 -1,1 -1,0 0,1 -1,1 -1,0 0,1 -1,1 -2,0 -1,1 -8,0 -1,-1 -2,0 -1,1 -7,0 -1,1 -6,0 -1,1 -6,0 -1,1 -3,0 -1,-1 -2,0 -1,-1 0,-2 -1,-1 0,2 -1,1 0,2 -1,1 -4,0 -1,1 -5,0 -1,-1 0,-1 -2,0 0,1 -1,1 -1,1 -7,0 -1,1 -8,0 -1,1 -8,0 -1,1 -7,0 -1,1 -13,0 -1,1 -22,0 0,1 -1,1 -2,0 -1,-1 -3,0 -1,-1 -17,0 -1,-1 -18,0 -1,-1 0,1 -1,1 -4,0 -1,-1 0,-22 -1,21 -22,0 -1,-1 -22,0 -1,-1 -1,0 -1,1 -12,0 0,2 56,6 -56,-6Z"/>
<path onmouseover="hoverPath(evt)" onmouseout="recoverPath(evt)" fill="rgb(242,240,233)" d="M  35,116l 22,0 1,-1 1,0 0,-5 1,-1 9,0 1,1 11,0 0,-1 1,-1 -1,-1 0,-7 -1,-1 0,-8 -1,-1 0,-13 1,-1 0,-4 -1,-1 0,-7 -1,1 -3,0 -1,-1 0,-5 1,-1 1,0 0,-2 -1,-1 0,-1 -1,-1 0,-8 1,-1 1,-1 5,0 1,1 0,1 1,1 0,3 -1,1 0,7 2,0 0,-1 1,-1 1,0 1,-1 1,-1 0,-1 1,-1 3,-3 0,-1 1,-1 0,-7 -1,-1 0,0 -1,-1 0,-5 1,-1 0,-4 1,-1 1,-1 0,-1 1,-1 6,0 0,-5 1,-1 1,-1 1,-1 12,0 0,-2 -1,-1 0,-4 -1,0 -1,-1 -4,0 -1,1 -5,0 -1,1 -5,0 -1,1 -6,0 -1,1 -8,0 -1,1 -8,0 -1,1 -62,0 -1,-1 -8,0 0,110 15,0 1,1 0,5 1,0 0,-6 1,-1 40,0 1,1 0,5 -29,-7 0,-3 1,-1Z"/>
<path onmouseover="hoverPath(evt)" onmouseout="recoverPath(evt)" fill="rgb(253,253,253)" d="M  33,118l -1,0 0,1 28,0 1,1 0,7 1,1 0,11 -1,1 0,2 1,1 0,29 1,1 0,24 2,0 -1,-1 0,-25 -1,-1 0,-28 1,-1 0,-2 -1,-1 0,-13 -1,-1 0,-3 1,-1 0,-3 -1,-1 0,-3 1,-1 1,-1 -3,0 0,5 -1,1 -1,0 -1,1Z"/>
<path onmouseover="hoverPath(evt)" onmouseout="recoverPath(evt)" fill="rgb(244,243,234)" d="M  58,206l 0,2 -1,1 0,3 1,1 0,7 1,1 0,6 1,1 0,6 1,1 0,6 1,1 0,5 1,1 0,7 53,0 0,-2 -1,-1 0,-3 -1,-1 0,-3 -1,-1 0,-4 -1,-1 0,-3 -1,-1 0,-4 -1,-1 0,-4 -1,-1 0,-3 -1,-1 0,-4 -1,-1 0,-3 -1,-1 0,-4 -2,0 -1,-1 -14,0 -1,-1 -27,0 -1,-1 -1,0 -1,1Z"/>
<path onmouseover="hoverPath(evt)" onmouseout="recoverPath(evt)" fill="rgb(253,253,253)" d="M  100,170l 0,2 1,1 0,4 1,1 0,3 1,1 0,5 1,1 0,3 1,1 0,3 1,1 0,2 1,0 -1,-3 0,-2 -1,-2 0,-2 -1,-2 0,-3 -1,-3 0,-2 -1,-2 0,-2 -1,-3 0,-1 -1,-1 -1,-5 1,0 -1,-1 0,-3 -1,-1 0,-3 -1,-1 0,-3 -1,-1 0,-3 -1,-1 0,-4 -1,-1 0,-2 -1,-1 0,-3 -1,-1 0,-3 -1,-1 0,-3 -1,-1 0,-3 -1,-1 0,-2 -1,-1 0,-2 -1,0 -1,-1 -1,-1 0,-1 -1,0 3,4 0,0 1,2 0,1 1,2 0,1 1,3 0,1 1,3 0,4 1,1 0,-1 1,4 0,2 1,1 0,3 1,2 0,2 1,2 0,2 1,2 0,2 1,2Z"/>
<path onmouseover="hoverPath(evt)" onmouseout="recoverPath(evt)" fill="rgb(243,243,235)" d="M  167,255l 74,0 0,-1 -1,-1 0,-4 -1,-1 0,-2 -1,-1 0,-4 -1,-1 0,-3 -1,-1 0,-2 -1,-1 0,-3 -1,-1 0,-2 -1,-1 0,-3 -1,-1 0,-2 -1,-1 0,-2 -1,-1 0,-1 -1,-1 0,-2 -1,-1 0,-2 -1,-1 0,-1 -1,-1 0,-2 -1,-1 0,-1 -1,-1 0,-2 -1,-1 0,-1 -1,-1 0,-1 -1,0 0,1 -1,1 -5,0 -1,1 -7,0 -1,1 -6,0 -1,1 -7,0 -1,1 -9,0 -1,1 -7,0 -1,1 -8,0 -1,1 -7,0 -1,1 -8,0 -1,1 -14,0 -1,1 -19,0 -1,-1 -1,0 0,1 1,1 0,3 1,1 0,4 1,1 0,4 1,1 0,3 1,1 0,3 1,1 0,4 1,1 0,4 1,1 0,3 1,1 0,4 1,1 0,3 1,1 0,2Z"/>
<path onmouseover="hoverPath(evt)" onmouseout="recoverPath(evt)" fill="rgb(173,199,237)" d="M  238,194l 0,1 1,1 0,4 1,1 0,4 1,1 0,4 1,1 0,3 1,1 0,4 1,1 0,4 1,1 0,4 1,1 0,4 1,1 0,4 1,1 0,4 1,1 0,6 -1,1 -2,0 0,3 9,0 0,-27 -2,0 -1,-1 0,-4 -1,-1 0,-4 -1,-1 0,-3 -1,-1 0,-4 -1,-1 0,-4 -1,-1 0,-3 -1,-1 0,-4 -1,-1 0,-1 -1,-1 -2,0 -1,1 -2,0 -1,1Z"/>
<path onmouseover="hoverPath(evt)" onmouseout="recoverPath(evt)" fill="rgb(240,239,226)" d="M  247,250l 0,-4 -1,-1 0,-4 -1,-1 0,-4 -1,-1 0,-4 -1,-1 0,-4 -1,-1 0,-4 -1,-1 0,-4 -1,-1 0,-3 -1,-1 0,-4 -1,-1 0,-4 -1,-1 0,-4 -1,-1 0,-1 -6,0 0,2 -1,1 1,1 0,1 1,1 0,2 1,1 0,2 1,1 0,1 1,1 0,2 1,1 0,1 1,1 0,2 1,1 0,3 1,1 0,2 1,1 0,3 1,1 0,2 1,1 0,3 1,1 0,2 1,1 0,3 1,1 0,4 1,1 0,3Z"/>
<path onmouseover="hoverPath(evt)" onmouseout="recoverPath(evt)" fill="rgb(233,237,241)" d="M  8,139l -8,0 0,13 4,0 1,-1 7,0 1,1 0,-5 -1,-1 0,-2 -1,-1 0,-1 -1,-1 0,-1 -1,-1 -1,0 5,49 0,5 1,0 0,-4 -1,-1 -5,-49Z"/>
<path onmouseover="hoverPath(evt)" onmouseout="recoverPath(evt)" fill="rgb(243,241,233)" d="M  11,167l 0,-14 -5,0 -1,1 -5,0 0,40 11,0Z"/>
<path onmouseover="hoverPath(evt)" onmouseout="recoverPath(evt)" fill="rgb(252,252,251)" d="M  98,7l 3,0 1,-1 5,0 1,-1 5,0 1,-1 1,-1 2,0 1,-1 4,0 1,-1 1,0 0,-1 -5,0 0,1 -21,6 8,-2 -2,0 -3,1 -3,0 -1,1 -6,0 -1,1 -7,0 -1,1 -8,0 -1,1 -61,0 -1,-1 -11,0 0,1 9,0 1,1 60,0 36,-6 -8,2 -14,2 4,0 3,-1Z"/>
<path onmouseover="hoverPath(evt)" onmouseout="recoverPath(evt)" fill="rgb(254,254,254)" d="M  108,207l 0,4 1,1 0,3 1,1 0,4 1,1 0,3 1,1 0,4 1,1 0,4 1,1 0,3 1,1 0,4 1,1 0,3 1,1 0,3 1,1 0,3 2,0 0,-1 -1,-1 0,-3 -1,-1 0,-4 -1,-1 0,-3 -1,-1 0,-4 -1,-1 0,-4 -1,-1 0,-3 -1,-1 0,-3 -1,-1 0,-4 -1,-1 0,-4 -1,-1 0,-3 -1,-1 -1,-1 1,-1Z"/>
<path onmouseover="hoverPath(evt)" onmouseout="recoverPath(evt)" fill="rgb(173,198,235)" d="M  119,131l -4,0 -1,1 -7,0 -1,1 -9,0 -1,-1 -1,-1 0,-4 -1,-1 0,-4 -1,-1 0,-4 -1,-1 0,-3 -1,-1 -2,0 0,2 1,1 0,5 1,1 0,2 1,1 0,3 1,1 0,3 1,1 0,3 1,1 0,3 1,1 0,2 1,1 0,4 1,1 0,3 1,1 0,3 1,1 0,3 1,1 0,3 1,1 0,4 1,1 0,4 1,1 0,3 1,1 0,4 1,1 0,4 1,1 0,3 1,1 0,4 1,1 0,1 1,1 0,-4 -1,-1 0,-4 -1,-1 0,-3 -1,-1 0,-4 -1,-1 0,-3 -1,-1 0,-4 -1,-1 0,-3 -1,-1 0,-4 -1,-1 0,-3 -1,-1 0,-4 -1,-1 0,-3 -1,-1 0,-4 -1,-1 0,-9 1,-1 5,0 15,-3 -12,2 4,0 4,-1 3,0 3,-1 4,0 1,-1 6,0 1,-1 6,0 1,-1 7,0 1,-1 5,0 1,-1 6,0 1,-1 7,0 1,1 0,-2 -4,0 5,2 -1,1 0,0 1,1 0,1 1,1 0,1 1,1 0,1 1,1 0,1 1,1 0,1 1,1 0,1 1,1 0,-1 -1,-2 -1,-2 -1,-2 0,-1 -1,-1 0,-1 -1,-1 0,-1 -1,-1 -10,-2 -2,0 -5,1 -3,0 -3,1 -4,0 -4,1 -3,0 -4,1 -3,0 -4,1Z"/>
<path onmouseover="hoverPath(evt)" onmouseout="recoverPath(evt)" fill="rgb(253,253,253)" d="M  212,3l 0,1 1,1 0,14 1,1 0,41 1,1 0,5 -1,1 0,11 -1,1 0,3 -1,1 0,7 1,-5 0,-2 1,-3 0,-1 1,-3 0,-38 -1,-20 0,-13 -1,-2 -1,-1Z"/>
<path onmouseover="hoverPath(evt)" onmouseout="recoverPath(evt)" fill="rgb(253,253,253)" d="M  221,127l 0,3 1,1 0,2 1,1 0,4 1,1 0,4 1,1 0,3 1,1 0,3 1,1 0,3 1,1 0,3 1,1 0,3 1,1 0,3 1,1 0,3 1,1 0,5 1,1 0,4 1,1 0,3 1,0 0,-1 -1,-3 0,-2 -1,-3 0,-3 -1,-3 0,-2 -1,-2 0,-2 -1,-2 0,-2 -1,-2 0,-2 -1,-2 0,-2 -1,-2 0,-2 -1,-2 0,-2 -1,-2 0,-2 -1,-3 0,-2 -1,-3 0,-2 -1,-1 0,-2 -1,-1 -1,-5 1,0 -1,-1 0,-4 -1,-1 0,-3 -1,-1 0,-3 -1,-1 0,-4 -1,-1 0,-3 -1,-1 0,-3 -1,-1 0,-2 -1,0 0,2 1,1 0,2 1,2 0,2 1,2 0,2 1,3 0,1 1,3 0,2 1,2Z"/>
<path onmouseover="hoverPath(evt)" onmouseout="recoverPath(evt)" fill="rgb(254,254,254)" d="M  225,195l -1,0 1,1 0,1 1,1 0,2 1,1 0,1 1,1 0,2 1,1 0,1 1,1 0,2 1,1 0,2 1,1 0,1 1,1 0,2 1,1 0,2 1,1 0,3 1,1 0,2 1,1 0,3 1,1 0,2 1,1 0,3 1,1 0,4 1,1 0,2 1,1 0,4 1,1 0,2 1,0 0,-3 -1,-1 0,-3 -1,-1 0,-4 -1,-1 0,-3 -1,-1 0,-2 -1,-1 0,-3 -1,-1 0,-2 -1,-1 0,-3 -1,-1 0,-2 -1,-1 0,-3 -1,-1 0,-2 -1,-1 0,-1 -1,-1 0,-2 -1,-1 0,-1 -1,-1 0,-2 -1,-1 0,-2 -1,-1 0,-1 -1,-1 0,-1 -1,-1 0,-1 -1,-1Z"/>
</svg>