<svg width="256" height="256" xmlns="http://www.w3.org/2000/svg"><script> 
var tempColor;
function hoverPath(evt){
obj = evt.target;
tempColor = obj.getAttribute("fill");
obj.setAttribute("fill","red");
//alert(tempColor);
//obj.setAttribute("stroke","red");}
function recoverPath(evt){
obj = evt.target;
obj.setAttribute("fill", tempColor);
//obj.setAttribute("stroke", tempColor);
}</script><path onmouseover="hoverPath(evt)" onmouseout="recoverPath(evt)" fill="rgb(249,240,147)" d="M  0,232l 0,9 1,0 1,-1 1,0 1,-1 1,0 1,-1 3,0 1,-1 2,0 1,-1 1,0 1,-1 6,0 1,1 1,1 1,1 2,0 1,1 1,1 1,1 0,3 1,1 0,1 1,1 2,2 1,1 1,0 1,1 0,1 2,0 1,1 0,2 11,0 0,-2 1,-1 -4,0 -3,-3 0,-9 -1,-1 0,-2 -1,1 -1,0 -1,1 -2,0 -1,-1 0,-2 1,-1 1,-1 1,0 1,-1 1,0 1,-1 1,-1 1,0 1,-1 1,0 1,-1 1,-1 0,-2 1,-1 4,0 1,1 4,0 1,-1 2,0 1,-1 1,0 1,-1 7,0 1,-1 4,0 1,-1 6,0 1,-1 4,0 1,-1 4,0 1,-1 3,0 1,-1 3,0 1,-1 2,0 1,-1 3,0 1,-1 2,0 1,-1 1,0 1,-1 1,0 1,-1 2,0 1,-1 1,0 1,-1 2,0 1,-1 1,-1 1,0 1,-1 1,0 1,-1 1,0 1,-1 1,0 1,-1 1,0 1,-1 1,0 1,-1 1,-1 1,0 1,-1 1,0 1,-1 1,0 1,-1 1,0 1,-1 1,-1 4,0 1,-1 1,0 1,-1 1,-1 1,0 1,-1 1,0 1,-1 1,0 1,-1 1,0 1,-1 1,0 1,-1 1,0 1,-1 2,0 1,-1 1,0 1,-1 1,0 1,-1 1,0 1,-1 2,0 1,-1 2,0 1,-1 1,0 1,-1 2,0 1,-1 2,0 1,-1 1,0 1,-1 2,0 1,-1 1,0 1,-1 2,0 1,-1 4,0 1,1 1,1 0,2 1,1 0,1 1,1 0,2 1,1 0,1 1,1 0,1 1,1 0,1 1,1 0,1 1,1 0,1 1,1 0,1 1,1 0,1 1,1 0,1 1,1 0,1 1,1 0,1 1,1 0,2 1,1 0,3 1,1 0,3 1,1 0,3 1,1 0,3 1,1 0,3 1,1 0,3 1,1 0,3 1,1 0,2 1,1 0,3 1,1 0,3 1,1 0,2 1,1 0,3 1,1 0,3 6,0 0,-3 -1,-1 0,-2 -1,-1 0,-3 -1,-1 0,-2 -1,-1 0,-3 -1,-1 0,-3 -1,-1 0,-3 -1,-1 0,-4 1,-1 0,-2 -2,0 -1,-1 0,-3 -1,-1 0,-2 -1,-1 0,-4 -1,-1 0,-3 -1,-1 0,-1 -1,-1 0,-2 -1,-1 0,-1 -1,-1 0,-1 -1,-1 0,-1 -1,-1 0,-1 -1,-1 0,-1 -1,-1 0,-1 -1,-1 0,-4 -2,0 -1,-1 0,-1 -1,-1 0,-4 1,-1 1,0 0,-1 2,-2 2,0 1,-1 1,-1 -8,5 -1,0 -1,-1 0,-2 -1,-1 0,-2 1,-1 1,-1 1,0 1,-1 3,0 1,-1 0,-1 1,-1 2,0 1,-1 4,0 1,-1 1,-1 5,0 1,-1 0,-1 1,-1 1,0 1,-1 1,0 1,-1 1,0 1,-1 1,0 1,-1 6,0 1,-1 0,-1 1,-1 1,-1 2,0 0,-18 -2,0 1,1 0,3 -1,1 -1,0 -1,1 -1,0 -1,1 -1,0 -1,1 -4,0 -1,-1 0,2 -1,1 -1,1 -1,0 -1,1 -1,0 -1,1 -1,0 -1,1 -1,0 -1,1 -1,0 -1,1 -2,0 -1,1 -1,0 -1,1 -1,0 -1,1 -1,0 -1,1 -1,0 -1,1 -2,0 -1,1 -1,0 -1,1 -1,0 -1,1 -9,0 -1,-1 -1,-1 0,-2 1,-1 -1,-1 0,0 -1,-1 0,-1 -1,-1 -1,-1 0,-1 -1,-1 0,-1 -1,-1 -1,-1 -5,0 -1,-1 -1,0 -1,-1 -1,-1 -1,-1 -1,-1 0,-2 -1,-1 -1,-1 -1,0 -1,-1 -1,-1 0,-2 -1,1 -3,0 -1,-1 0,-1 -3,0 -1,-1 0,-1 -1,0 -1,-1 -2,0 -1,-1 -1,0 -1,-1 -2,0 -1,-1 -3,0 -1,-1 -1,-1 -2,0 0,1 -1,1 0,4 2,0 1,1 7,0 1,1 0,2 1,0 1,1 1,0 1,1 1,0 1,1 2,0 1,1 1,0 1,1 1,-1 2,0 1,1 1,1 0,4 1,1 1,0 1,1 1,1 2,0 1,1 0,1 1,0 1,1 1,1 1,1 0,1 1,1 1,1 0,1 1,1 0,6 -1,1 -3,0 0,2 -1,1 -2,0 0,1 1,1 0,0 1,1 0,2 -1,1 -5,0 -1,1 -1,0 -1,1 -1,0 -1,1 -1,0 -1,1 -1,0 -1,1 -1,0 -1,1 -2,0 -1,1 -2,0 0,2 -1,1 -2,0 -1,1 -2,0 0,2 -1,1 -1,0 -1,1 -3,0 -1,-1 0,3 -1,1 -4,0 -1,1 -1,0 -1,1 -2,0 0,2 -1,1 -2,0 -1,1 -1,1 -1,0 -1,1 -1,0 -1,1 -1,1 -1,0 -1,1 -1,0 -1,1 -1,0 -1,1 -1,1 -1,0 -1,1 -2,0 -1,1 -1,0 -1,1 -1,0 -1,1 -2,0 -1,1 -3,0 -1,1 -2,0 -1,1 -2,0 -1,1 -3,0 -1,1 -3,0 -1,1 -3,0 -1,1 -4,0 -1,1 -5,0 -1,1 -5,0 -1,1 -5,0 -1,1 -5,0 -1,1 -4,0 -1,1 -4,0 -1,-1 -1,1 -2,0 -1,1 -2,0 -1,1 -1,0 -1,1 -4,0 -1,1 -2,0 -1,1 -2,0 -1,-1 -2,0 -1,-1 0,2 -1,1 -3,0 -1,-1 -2,0 -1,-1 -1,-1 -1,0 -1,-1 0,-1 -1,-1 -1,-1 -1,-1 -1,-1 -2,-2 -1,-1 -1,-1 -1,-1 -1,0 -1,-1 0,-1 -2,0 -1,-1 -1,-1 0,-2 -1,-1 -1,-1 -1,-1 -1,0 0,32 242,-95 0,-1 -1,-1 0,1 -1,-2 0,-1 -1,-1 0,-5 1,-1 1,-1 -3,4 0,0 4,8 -242,95Z"/>
<path onmouseover="hoverPath(evt)" onmouseout="recoverPath(evt)" fill="rgb(245,243,234)" d="M  12,240l 0,0 1,1 3,0 1,1 1,1 0,2 -1,1 -1,1 0,1 -1,1 0,1 -1,1 -1,1 -1,0 0,1 -1,1 0,1 26,0 0,-1 -2,0 -1,-1 0,-1 -1,0 -1,-1 -1,-1 -1,-1 -1,-1 -1,-1 0,-1 -1,-1 0,-3 -1,-1 -1,-1 -2,0 -1,-1 -1,-1 -1,-1 -4,0 -1,1 -1,0 -1,1 -1,1 -1,-1 -1,1 -3,0 -1,1 -1,0 -1,1 -1,0 -1,1 -2,0 11,-4 1,1Z"/>
<path onmouseover="hoverPath(evt)" onmouseout="recoverPath(evt)" fill="rgb(187,215,141)" d="M  116,72l 0,3 1,1 1,1 8,0 1,1 1,0 1,1 1,1 1,1 1,1 0,2 -1,1 -2,2 -1,1 0,2 1,0 1,-1 2,0 0,-1 1,-1 1,-1 1,0 1,-1 1,-1 1,0 1,-1 1,-1 0,-3 -1,-1 0,-1 -1,-1 -1,-1 -1,0 -1,-1 -1,0 -1,-1 -1,0 -1,-1 -3,0 -1,-1 -2,0 -1,-1 -4,0 -1,1 -2,0 -1,1Z"/>
<path onmouseover="hoverPath(evt)" onmouseout="recoverPath(evt)" fill="rgb(242,241,232)" d="M  60,0l -5,0 0,3 -1,1 0,2 1,1 0,4 3,0 1,1 1,0 1,1 0,2 -1,1 -1,0 0,3 -1,1 2,0 1,1 0,1 1,1 1,1 0,1 3,0 1,-1 3,0 1,-1 3,0 1,-1 3,0 1,-1 4,0 1,1 2,0 0,-2 1,-1 5,0 0,-2 1,-1 4,0 1,-1 1,-1 1,0 1,-1 1,0 1,-1 1,-1 4,0 1,1 0,1 5,0 1,1 0,1 1,-1 2,0 0,-3 1,-1 2,0 0,-1 1,-1 3,0 1,1 0,1 4,0 1,-1 4,0 1,1 1,0 0,-1 1,-1 1,-1 3,0 1,-1 3,0 1,1 0,2 1,-1 3,0 0,-1 1,-1 0,-2 1,-1 3,0 1,1 2,0 1,-1 4,0 1,1 1,0 1,-1 2,0 1,-1 3,0 0,-2Z"/>
<path onmouseover="hoverPath(evt)" onmouseout="recoverPath(evt)" fill="rgb(244,242,234)" d="M  132,32l -3,0 -1,-1 -8,0 2,1 2,0 1,1 1,1 0,2 1,1 1,1 1,0 1,-1 2,0 1,1 0,1 1,1 0,2 -1,1 0,8 -1,1 0,2 -1,1 0,4 1,1 0,1 1,1 0,1 1,1 0,1 1,0 1,-1 2,0 1,1 0,2 1,-1 2,0 1,1 1,0 1,1 1,0 1,1 1,1 1,0 1,1 1,1 0,1 1,1 1,1 0,3 1,1 0,-1 1,-1 1,0 1,-1 9,0 1,-1 2,0 1,-1 2,0 1,-1 1,0 1,-1 1,0 1,-1 0,-6 -1,-1 0,-1 -1,-1 0,-4 1,-1 0,-1 1,-1 1,0 1,-1 2,0 1,-1 2,0 1,-1 1,-1 1,0 1,-1 1,-1 0,-1 1,-1 1,-1 2,0 0,-1 -1,-1 0,-4 1,-1 2,0 0,-1 1,-1 0,-1 1,-1 0,-1 1,-1 1,-1 -1,-1 -2,0 -1,-1 0,-4 1,-1 -1,-1 -2,0 -1,-1 0,-1 -1,-1 0,-1 -1,-1 0,-1 -1,-1 -1,-1 0,-1 -1,-1 0,-1 -1,-1 -1,0 -1,1 -4,0 -1,1 1,1 2,0 1,1 1,0 1,1 0,2 -1,1 -2,0 -1,-1 -3,0 -1,-1 -2,0 -1,1 -4,0 -1,1 -2,0 -1,1 -4,0 -1,-1 -5,0 0,1 -1,1 -2,0 -1,-1 -1,0 0,1 -1,1 0,1 -1,1 -1,1 -3,0 -1,-1 -1,1 -1,0 -1,1 0,1 -1,1 -2,0 -1,1 -2,0 -1,1 -1,0 -1,1Z"/>
<path onmouseover="hoverPath(evt)" onmouseout="recoverPath(evt)" fill="rgb(241,240,231)" d="M  134,89l 0,1 -1,1 -2,0 -1,1 -3,0 -1,-1 0,-4 1,-1 1,-1 1,-1 1,-1 -1,-1 -1,-1 -1,-1 -1,0 -1,-1 -8,0 -1,-1 -1,-1 -1,-1 0,-6 1,-1 3,0 1,-1 6,0 1,1 2,0 1,1 3,0 1,1 1,0 1,1 1,0 1,1 1,0 1,1 1,1 1,1 0,1 1,1 0,5 -1,1 -2,2 -1,0 -1,1 -1,1 -1,0 -1,1 0,3 1,0 1,-1 2,0 1,1 0,3 -1,1 -1,0 -1,1 -1,0 -1,1 -1,0 7,-3 1,-1 1,-1 1,0 0,-2 1,-1 0,-3 1,-1 0,-1 1,-1 1,0 1,-1 0,-1 1,-1 0,-3 -1,-1 0,-2 -1,-1 -1,-1 0,-2 -1,-1 -1,1 -2,0 -1,-1 -1,0 -1,-1 -1,0 -1,-1 -1,0 -1,-1 -2,0 -1,-1 0,-1 -1,-1 0,-1 -1,-1 0,-1 -1,-1 0,-6 1,-1 0,-2 1,-1 0,-7 -1,-1 0,-1 -1,-1 -2,0 -1,-1 -1,-1 -1,-1 0,-2 -1,-1 -2,0 -1,-1 -1,0 -1,-1 0,-2 -4,0 -1,1 -4,0 0,1 -1,1 -2,0 0,2 -1,1 0,2 -1,1 -1,1 -3,3 -1,0 -1,1 -1,1 -2,0 -1,-1 -1,-1 0,-5 -1,-1 0,-2 -2,0 -1,-1 0,-1 -1,1 -2,0 0,1 -2,2 0,1 -1,1 -3,0 -1,-1 -1,0 -1,1 -2,0 -1,1 -2,0 0,1 1,0 1,1 1,1 3,0 1,1 0,3 2,0 1,1 0,4 2,0 1,1 2,0 1,1 0,2 1,1 2,0 1,1 1,1 1,0 1,1 0,1 1,1 1,1 1,1 1,1 1,1 1,1 0,1 1,0 1,1 1,1 1,1 0,3 1,1 0,4 1,1 0,1 1,1 0,1 1,1 0,1 1,1 0,2 1,1 0,1 1,1 1,1 1,1 1,1 1,1 1,0 1,1 2,0 1,1 3,0 1,-1 1,0 1,-1 2,0 1,-1 1,0 1,-1 1,0 1,-1Z"/>
<path onmouseover="hoverPath(evt)" onmouseout="recoverPath(evt)" fill="rgb(244,243,234)" d="M  11,0l -1,0 0,2 -1,1 -1,1 -1,1 0,1 -1,1 -1,0 0,1 -1,1 -1,0 0,1 1,1 0,0 1,1 1,1 1,1 1,0 1,1 1,0 1,1 0,1 1,1 1,1 1,1 1,1 1,0 1,1 1,0 1,1 0,1 1,1 1,1 1,1 1,1 1,0 1,1 1,0 1,1 0,1 1,1 1,1 1,1 1,1 1,0 1,1 0,1 2,0 0,-2 1,-1 2,0 1,-1 2,0 1,-1 2,0 1,-1 2,0 1,-1 2,0 0,-2 -1,-1 0,-1 -1,-1 0,-1 -1,-1 0,-1 -1,-1 0,-3 -1,-1 0,-2 -1,-1 0,-2 -1,-1 0,-1 -1,-1 0,-3 -1,-1 0,-5Z"/>
<path onmouseover="hoverPath(evt)" onmouseout="recoverPath(evt)" fill="rgb(170,197,237)" d="M  65,226l -1,0 1,1 0,0 1,1 0,1 1,1 1,1 1,1 0,1 1,1 1,1 0,1 1,1 1,1 1,1 0,1 1,1 1,1 0,1 1,1 1,1 0,1 1,1 1,1 0,1 1,1 1,1 0,1 1,1 0,2 104,0 0,-1 -1,-1 0,-1 -1,-1 0,-1 -1,-1 0,-1 -1,-1 0,-1 -1,-1 0,-1 -1,-1 0,-1 -1,-1 -1,-1 0,-1 -1,-1 0,-1 -1,-1 0,-1 -1,-1 0,-1 -1,-1 0,-1 -1,-1 0,-1 -1,-1 0,-1 -1,-1 -1,-1 0,-1 -1,-1 -1,-1 -1,-1 0,-1 -1,-1 -1,-1 -1,-1 0,-1 -1,-1 -1,-1 -1,-1 0,-1 -1,-1 -1,-1 -1,-1 0,-1 -1,-1 -1,-1 -1,-1 0,-1 -1,-1 -1,-1 0,-1 -1,-1 -1,-1 -1,-1 0,-1 -2,0 -1,1 0,0 -1,1 -1,0 -1,1 -1,0 -1,1 -1,0 -1,1 -1,0 -1,1 -1,1 -1,0 -1,1 -1,0 -1,1 -1,0 -1,1 -1,0 -1,1 -1,0 -1,1 -1,0 -1,1 -1,1 -2,0 -1,1 -1,0 -1,1 -2,0 -1,1 -1,0 -1,1 -1,0 -1,1 -2,0 -1,1 -3,0 -1,1 -2,0 -1,1 -3,0 -1,1 -3,0 -1,1 -4,0 -1,1 -4,0 -1,1 -6,0 -1,1 -4,0 -1,1 -7,0 -1,1Z"/>
<path onmouseover="hoverPath(evt)" onmouseout="recoverPath(evt)" fill="rgb(245,237,149)" d="M  0,59l 0,2 4,0 1,-1 4,0 1,-1 3,0 1,-1 3,0 1,-1 2,0 1,-1 1,0 1,-1 1,0 1,-1 2,0 1,-1 1,0 1,-1 1,0 1,-1 1,0 1,-1 2,0 1,-1 5,0 1,-1 2,0 1,-1 1,0 1,-1 1,0 1,-1 2,0 1,-1 1,0 1,-1 1,0 1,-1 2,0 1,-1 3,0 1,1 1,1 1,1 0,1 1,1 1,1 1,1 0,2 1,1 3,0 1,-1 0,-5 -1,-1 0,0 -1,-1 -1,0 -1,-1 0,-3 1,-1 2,0 1,-1 2,0 1,-1 3,0 1,1 1,0 0,-1 1,-1 1,-1 0,-1 1,-1 2,0 1,-1 1,0 0,-3 1,-1 2,0 1,-1 4,0 1,-1 3,0 1,-1 0,-1 1,-1 5,0 0,-3 1,-1 -7,0 -1,1 -1,1 -6,0 -1,1 -5,0 0,2 -1,1 -4,0 -1,-1 -2,0 -1,1 -3,0 -1,1 -3,0 -1,1 -3,0 -1,1 -5,0 -1,-1 0,-1 -1,-1 -1,-1 0,-1 -2,0 -1,-1 0,-2 1,-1 0,-3 1,-1 1,0 -2,-1 -3,0 -1,-1 0,-4 -1,-1 0,-4 1,-1 0,-2 -10,0 0,4 1,1 0,3 1,1 0,1 1,1 0,2 1,1 0,2 1,1 0,3 1,1 0,1 1,1 0,1 1,1 0,1 1,1 0,4 -1,1 -2,0 -1,1 -2,0 -1,1 -2,0 -1,1 -2,0 -1,1 -2,0 0,2 -1,1 -3,0 -1,1 -3,0 -1,1 -1,1 -4,0 -1,1 -11,0 0,1 -1,1 -1,1 -1,0 -1,1 -4,0 -1,1 -2,0Z"/>
<path onmouseover="hoverPath(evt)" onmouseout="recoverPath(evt)" fill="rgb(234,239,234)" d="M  131,106l -2,0 1,1 0,0 1,1 2,0 1,1 1,0 1,1 2,0 1,1 1,0 1,1 2,0 1,1 2,0 1,1 2,0 1,1 1,0 1,1 0,1 4,0 1,1 1,1 3,0 1,1 2,0 1,1 1,0 1,1 2,0 1,1 1,0 1,1 0,1 2,0 1,-1 0,-1 -3,0 -2,-1 0,-2 1,-1 6,0 1,-1 2,0 1,-1 1,0 1,-1 1,0 1,-1 1,0 1,-1 1,-1 1,0 1,-1 1,-1 1,-1 1,0 0,-1 1,-1 1,0 1,-1 1,-1 1,-1 0,-1 3,-3 2,0 0,-4 1,-1 1,0 0,-2 -1,-1 0,-1 -1,-1 -3,0 -1,-1 -1,-1 -1,1 -2,0 -1,-1 -1,0 -1,-1 0,-2 -3,0 -1,-1 -12,0 0,2 -1,1 -3,0 -1,1 -2,0 -1,1 -1,0 -2,2 -1,0 -3,3 -1,1 -1,0 0,1 -1,1 -3,0 -1,-1 -1,-1 0,-1 -2,0 -1,1 -1,0 -1,1 -1,1 -1,0 -1,1 -1,0 -1,1 -1,0 -1,1 -1,0 -1,1 -1,0 -1,1 -1,0 -1,1 -1,0 -1,1 -1,0 -1,1Z"/>
<path onmouseover="hoverPath(evt)" onmouseout="recoverPath(evt)" fill="rgb(223,239,239)" d="M  244,70l 0,4 2,0 1,1 4,0 1,1 3,0 0,-16 -1,0 -1,1 -4,0 -1,1 -3,0 -1,1 -3,0 -1,1 -3,0 -1,1 -4,0 -1,1 -4,0 0,1 5,0 1,-1 4,0 1,1 3,0 1,1 0,1 1,0 1,1Z"/>
<path onmouseover="hoverPath(evt)" onmouseout="recoverPath(evt)" fill="rgb(251,251,249)" d="M  0,12l 0,2 2,0 1,1 1,0 1,1 1,1 1,1 1,1 0,1 1,0 1,1 1,0 1,1 1,1 1,1 1,1 1,1 0,1 1,0 1,1 1,0 1,1 1,1 1,1 1,1 1,1 0,1 1,0 1,1 1,0 1,1 1,1 0,1 2,0 0,-1 -1,0 -1,-1 -1,-1 -1,-1 -1,-1 -1,-1 0,-1 -1,0 -1,-1 -1,0 -1,-1 -1,-1 -1,-1 -1,-1 -1,-1 0,-1 -1,0 -1,-1 -1,0 -1,-1 -1,-1 -1,-1 -1,-1 -1,-1 0,-1 -1,0 -1,-1 -1,0 -1,-1 -1,-1 -1,-1 -1,-1 -1,-1 -1,1 0,-3 1,0 0,-1 1,-1 1,0 0,-1 1,-1 1,0 0,-1 1,-1 1,-1 1,-1 0,-1 -8,0Z"/>
<path onmouseover="hoverPath(evt)" onmouseout="recoverPath(evt)" fill="rgb(175,201,213)" d="M  0,20l 0,26 1,0 1,-1 4,0 1,-1 1,0 1,-1 0,-1 1,-1 11,0 -3,-1 -1,0 -1,-1 -1,-1 -1,0 -1,-1 -1,0 -1,-1 -1,0 -1,-1 -1,0 -1,-1 -1,0 -1,-1 -1,0 -1,-1 -1,-1 0,-2 1,-1 1,0 1,-1 0,-3 -1,-1 0,-1 -1,0 -1,-1 0,-1 -1,-1 -1,1Z"/>
<path onmouseover="hoverPath(evt)" onmouseout="recoverPath(evt)" fill="rgb(170,196,236)" d="M  0,124l 0,43 2,0 1,1 1,1 1,0 1,1 1,1 1,1 1,1 1,1 1,1 1,1 0,1 1,0 1,1 1,1 1,1 1,1 1,1 1,1 1,1 1,1 0,1 1,0 1,1 1,1 1,0 1,-1 2,0 0,-1 1,-1 2,0 0,-1 1,-1 1,0 -1,-1 0,-5 1,-1 2,0 1,1 0,3 1,0 1,-1 0,0 1,-1 1,0 1,-1 1,-1 1,0 1,-1 4,0 1,1 0,-3 1,-1 2,-2 1,0 1,-1 1,0 1,-1 1,-1 1,0 1,-1 1,0 1,-1 1,-1 1,0 1,-1 1,0 1,-1 2,0 0,-1 1,-1 1,0 1,-1 2,0 0,-1 1,-1 1,0 1,-1 2,0 0,-1 1,-1 1,0 1,-1 2,0 0,-1 1,-1 1,0 1,-1 2,0 0,-1 1,-1 1,0 1,-1 6,0 0,-3 1,-1 1,-1 1,0 1,-1 1,0 1,-1 1,-1 -1,-1 0,0 -1,-1 -1,-1 -1,-1 0,-1 -1,0 -1,-1 -1,-1 0,-1 -1,-1 0,-1 -1,0 -1,-1 -1,-1 -1,-1 0,-1 -1,0 -1,-1 0,-1 -1,-1 -1,-1 0,-1 -1,0 -1,-1 -1,-1 -1,-1 0,-1 -1,0 -1,-1 -1,-1 -1,-1 0,-1 -1,0 -1,-1 -1,-1 -1,-1 0,-1 -1,0 -1,-1 -1,-1 -1,-1 -1,-1 0,-1 -1,0 -1,-1 -1,-1 -1,-1 -1,-1 -1,0 -1,-1 -1,-1 0,-2 -1,-1 -1,0 -1,-1 0,-1 -1,-1 0,-2 -2,0 -1,-1 0,-1 -1,-1 -1,0 -1,-1 -1,-1 -1,-1 0,-1 -1,-1 0,-1 -1,-1 0,-4 -1,-1 -1,-1 -2,0 -1,-1 0,-1 -1,-1 0,-1 -1,-1 0,-1 -1,-1 0,-2 -1,-1 -1,-1 0,-1 -1,-1 -1,-1 -1,-1 0,-1 -1,-1 -1,-1 0,-1 -1,-1 -1,1 -1,0 -1,1 -1,0 -1,1 -2,0 -1,1 -1,0 -1,1 -1,0 -1,1 -2,0 -1,1 -3,0 -1,1 -3,0 -1,1 -4,0 -1,1 -5,0Z"/>
<path onmouseover="hoverPath(evt)" onmouseout="recoverPath(evt)" fill="rgb(199,231,233)" d="M  40,180l -1,1 -1,1 -3,0 -1,-1 0,-3 1,5 0,1 -1,1 -1,0 0,1 -1,1 -2,0 0,1 -1,1 -2,0 -1,1 -3,0 -1,-1 -1,-1 -1,0 -1,-1 0,-1 -1,-1 -1,-1 -1,-1 -1,-1 -2,-2 -1,-1 -1,0 -1,-1 0,-1 -2,-2 -1,-1 -1,-1 -1,-1 -1,-1 -1,0 -1,-1 -1,-1 -1,0 0,17 1,0 1,-1 1,0 1,-1 2,0 0,-1 1,-1 3,0 1,1 1,0 1,1 1,1 0,1 1,1 0,1 1,0 1,1 1,1 1,1 1,1 0,2 -1,1 0,1 -1,1 0,2 5,0 1,1 1,1 1,1 3,0 0,-3 1,-1 -1,-1 0,0 -1,-1 0,-3 1,-1 1,0 0,-1 1,-1 2,0 0,-1 1,-1 2,0 1,-1 0,-1 1,-1 2,0 0,-1 1,-1 2,0 1,-1 1,-1 1,0 1,-1 1,0 -1,-1 0,-2 -2,0 -1,1 -1,0 -1,1 -1,1Z"/>
<path onmouseover="hoverPath(evt)" onmouseout="recoverPath(evt)" fill="rgb(248,247,242)" d="M  57,247l 1,0 1,-1 2,0 1,-1 4,0 1,1 0,2 2,0 0,-1 -1,-1 0,-1 -1,-1 -1,-1 0,-1 -1,-1 -1,-1 0,-3 -1,-1 -1,-1 -2,0 -1,-1 -1,-1 -1,-1 0,-1 -1,-1 -1,-1 0,-1 -1,0 -1,-1 -2,0 0,2 -3,3 -1,0 -1,1 -1,0 -1,1 -1,1 -1,0 -1,1 -1,0 -1,1 5,-2 1,1 0,2 1,1 0,9 1,1 1,1 3,0 1,-1 2,0 1,-1 1,0 1,-1Z"/>
<path onmouseover="hoverPath(evt)" onmouseout="recoverPath(evt)" fill="rgb(244,236,159)" d="M  94,36l 0,0 1,1 0,5 1,1 1,-1 0,0 1,-1 1,0 1,-1 1,-1 1,-1 1,-1 0,-2 1,-1 0,-2 1,-1 2,0 0,-1 1,-1 4,0 1,-1 6,0 1,1 9,0 1,1 1,0 1,-1 1,0 1,-1 2,0 1,-1 2,0 0,-1 1,-1 1,-1 1,0 1,-1 2,0 1,1 1,0 1,-1 0,-1 1,-1 0,-1 1,-1 3,0 1,1 0,-1 1,-1 7,0 1,1 2,0 1,-1 2,0 1,-1 4,0 1,-1 4,0 1,1 2,0 -4,-2 0,-2 1,-1 1,-1 4,0 1,-1 3,0 1,1 1,1 0,1 1,1 0,1 1,1 1,1 0,1 1,1 0,1 1,1 0,1 2,0 1,1 1,1 0,2 -1,1 0,2 2,0 1,1 1,1 0,1 1,0 1,1 1,1 0,2 -1,1 1,1 0,0 1,1 0,1 1,1 0,1 1,1 1,1 0,1 1,1 0,1 1,1 0,1 1,1 0,1 1,1 1,1 0,1 1,1 0,1 1,1 0,1 1,1 0,1 1,1 0,1 1,1 0,2 1,0 1,1 1,1 0,2 1,1 0,2 1,1 1,1 0,1 2,0 1,1 1,0 1,1 0,2 -1,1 -1,0 0,1 1,1 0,1 1,1 0,1 1,1 0,1 1,1 0,1 1,1 0,1 1,1 0,1 1,1 0,1 1,1 0,3 2,0 1,1 0,3 -1,1 1,0 1,1 0,0 1,1 0,1 1,1 0,1 1,1 0,1 1,1 0,3 -1,1 0,1 -1,1 0,1 1,1 0,3 1,1 0,2 -1,1 -1,1 0,3 1,1 0,1 1,1 1,1 0,3 2,0 1,-1 1,0 1,-1 1,0 1,-1 1,0 0,-1 -1,-1 0,-2 1,-1 3,0 0,-8 -3,0 -1,-1 0,-1 -1,-1 0,-1 -1,-1 0,-2 -1,-1 0,-1 -1,-1 0,-1 -1,-1 0,-1 -1,-1 0,-2 1,-1 1,-1 2,0 -1,-1 0,-1 -2,-2 0,-1 -1,-1 0,-1 -1,0 -1,-1 0,-1 -1,-1 0,-1 -1,-1 0,-1 -1,-1 0,-1 -1,-1 0,-1 -1,-1 0,-1 -1,-1 0,-2 -1,-1 0,-1 -1,-1 -1,-1 -2,0 -1,-1 -1,-1 0,-2 -1,-1 0,-2 -1,-1 0,-1 -2,0 -1,-1 0,-3 1,-1 -1,0 -1,-1 0,-1 -1,-1 -1,-1 0,-1 -1,-1 0,-1 -1,-1 0,-1 -1,-1 0,-1 -1,-1 0,-1 -1,-1 0,-1 -1,-1 0,-1 -1,-1 0,-2 1,-1 6,0 1,-1 1,-1 0,-2 -1,-1 0,-2 -1,-1 -11,0 -1,-1 -1,0 -1,-1 -1,-1 -1,-1 0,-1 -1,-1 -1,-1 0,-1 -1,-1 0,-3 -1,-1 -2,0 -1,-1 0,-2 -1,-1 0,-1 -1,-1 0,-1 -1,-1 0,-1 -1,-1 -1,-1 0,-1 -1,-1 0,-1 -1,-1 0,-2 1,-1 1,-1 1,0 1,-1 1,0 1,-1 1,0 0,-1 -24,0 0,3 -1,1 -3,0 -1,1 -2,0 -1,1 -3,0 -1,-1 -2,0 -1,1 -4,0 -1,-1 -1,0 0,2 -1,1 0,1 -1,1 -3,0 -1,1 -2,0 -1,-1 0,-2 -1,0 -1,1 -3,0 -1,1 0,1 -1,1 -3,0 -1,-1 -2,0 -1,1 -6,0 -1,-1 0,-1 -1,0 0,1 -1,1 -2,0 0,3 -1,1 -2,0 -1,1 -2,0 -1,-1 0,-1 -5,0 -1,-1 0,-1 -2,0 -1,1 0,0 -1,1 -1,0 -1,1 -1,0 -1,1 -1,1 1,0 1,-1 2,-1 9,0 1,1 0,2 -1,1 -1,0 0,3 -1,1 -5,0 0,1 -1,1 -1,1 -3,0 -1,1 -4,0 -1,1 -2,0 0,4 2,0 1,1Z"/>
<path onmouseover="hoverPath(evt)" onmouseout="recoverPath(evt)" fill="rgb(244,243,237)" d="M  155,196l -1,0 -1,1 1,1 0,0 1,1 1,1 0,1 1,1 1,1 0,1 1,1 1,1 1,1 0,1 1,1 1,1 1,1 0,1 1,1 1,1 1,1 0,1 1,1 1,1 1,1 0,1 1,1 1,1 1,1 0,1 1,1 1,1 0,1 1,1 0,1 1,1 0,1 1,1 0,1 1,1 0,1 1,1 0,1 1,1 0,1 1,1 1,1 0,1 1,1 0,1 1,1 0,1 1,1 0,1 1,1 0,1 1,1 0,1 1,1 0,2 42,0 0,-2 -1,-1 0,-3 -1,-1 0,-2 -1,-1 0,-3 -1,-1 0,-3 -1,-1 0,-2 -1,-1 0,-3 -1,-1 0,-3 -1,-1 0,-3 -1,-1 0,-3 -1,-1 0,-3 -1,-1 0,-3 -1,-1 0,-3 -1,-1 0,-2 -1,-1 0,-1 -1,-1 0,-1 -1,-1 0,-1 -1,-1 0,-1 -1,-1 0,-1 -1,-1 0,-1 -1,-1 0,-1 -1,-1 0,-1 -1,-1 0,-1 -1,-1 0,-1 -1,-1 0,-2 -1,-1 0,-1 -1,-1 0,-2 -1,-1 -2,0 -1,1 -2,0 -1,1 -1,0 -1,1 -2,0 -1,1 -1,0 -1,1 -2,0 -1,1 -2,0 -1,1 -1,0 -1,1 -2,0 -1,1 -2,0 -1,1 -1,0 -1,1 -1,0 -1,1 -1,0 -1,1 -2,0 -1,1 -1,0 -1,1 -1,0 -1,1 -1,0 -1,1 -1,0 -1,1 -1,0 -1,1 -1,0 -1,1 -1,1Z"/>
<path onmouseover="hoverPath(evt)" onmouseout="recoverPath(evt)" fill="rgb(244,243,234)" d="M  234,228l 0,0 1,1 0,3 1,1 0,3 1,1 0,3 1,1 0,2 1,1 0,3 1,1 0,2 1,1 0,4 14,0 0,-103 -1,0 -1,1 0,1 -1,1 -1,1 -6,0 -1,1 -1,0 -1,1 -1,0 -1,1 -1,0 -1,1 -1,0 0,1 -1,1 -1,1 -5,0 -1,1 -1,1 -4,0 -1,1 -2,0 0,1 -1,1 -1,1 -3,0 -1,1 -1,0 -1,1 1,1 0,2 1,-1 0,0 1,-1 1,-1 2,0 1,-1 1,-1 2,0 1,1 0,2 -1,1 -2,2 -2,0 -1,1 0,1 -1,1 -1,0 0,2 1,1 0,1 2,0 1,1 0,4 1,1 0,1 1,1 0,1 1,1 0,1 1,1 0,1 1,1 0,1 1,1 0,1 1,1 0,2 1,1 0,1 1,1 0,3 1,1 0,4 1,1 0,2 1,1 0,3 2,0 1,1 0,4 -1,1Z"/>
<path onmouseover="hoverPath(evt)" onmouseout="recoverPath(evt)" fill="rgb(241,240,229)" d="M  70,245l 0,0 1,1 0,3 -1,1 -4,0 -1,-1 0,-2 -2,0 -1,1 -2,0 -1,1 -1,0 -1,1 -1,0 -1,1 -2,0 0,2 -1,1 0,1 29,0 0,-1 -1,-1 0,-1 -1,-1 -1,-1 0,-1 -1,-1 -1,-1 0,-1 -1,-1 -1,-1 0,-1 -1,-1 -1,-1 0,-1 -1,-1 -1,-1 -1,-1 0,-1 -1,-1 -1,-1 0,-1 -3,-3 0,-1 -1,-1 -1,-1 -1,0 -1,1 -3,0 1,1 0,0 1,1 0,1 1,1 1,1 2,0 1,1 1,1 1,1 0,3 1,1 1,1 0,1 1,1 1,1Z"/>
<path onmouseover="hoverPath(evt)" onmouseout="recoverPath(evt)" fill="rgb(241,240,234)" d="M  72,91l 0,0 -1,-1 -1,0 -3,-3 -1,-1 -3,-3 -1,-1 1,2 0,3 -1,1 -1,1 0,1 1,1 0,1 1,0 1,1 1,1 0,2 1,1 1,0 1,1 1,1 1,1 1,1 1,0 1,1 0,1 1,1 1,1 1,1 1,0 1,1 0,1 1,1 1,1 1,0 1,1 0,1 1,1 1,1 1,0 1,1 0,1 1,1 1,1 1,0 1,1 0,1 1,1 1,1 0,1 1,0 1,1 0,1 1,1 1,1 1,0 1,1 0,1 1,1 0,1 1,1 4,0 1,-1 0,-1 1,-1 5,0 1,1 1,1 0,-1 1,-1 0,0 -1,-1 0,0 -1,-1 -1,-1 0,-1 -1,-1 -1,-1 -1,0 -1,-1 0,-1 -1,-1 -2,0 -1,-1 -1,-1 -1,-1 0,-3 -1,-1 -1,-1 -1,-1 -1,-1 -1,-1 -1,-1 -1,-1 -1,-1 -1,-1 0,-1 -1,0 -1,-1 -1,0 -1,-1 0,-1 -1,-1 -1,1 -2,0 -1,-1 -1,-1 -1,-1 -1,-1 -1,-1 -1,-1 -1,0 -1,-1 0,-1 -1,-1 -1,-1Z"/>
<path onmouseover="hoverPath(evt)" onmouseout="recoverPath(evt)" fill="rgb(240,238,226)" d="M  115,116l -1,0 0,1 -1,1 -1,0 1,1 0,0 1,1 1,1 0,1 1,1 1,0 1,1 0,3 1,0 1,1 5,0 0,-1 1,-1 0,-1 1,-1 2,0 1,-1 1,0 1,-1 1,0 1,-1 4,0 1,-1 2,0 -3,-1 0,0 -1,1 -2,0 -1,-1 -2,0 -1,-1 -1,0 -1,-1 -2,0 -1,-1 -1,0 -1,-1 -2,0 -1,-1 0,-2 -2,0 0,1 -1,1 -1,0 -1,1 -1,1Z"/>
<path onmouseover="hoverPath(evt)" onmouseout="recoverPath(evt)" fill="rgb(250,250,247)" d="M  151,77l 0,5 -1,1 0,1 -1,1 -1,1 -1,0 0,1 -1,1 0,3 -1,1 0,2 -1,1 -1,0 -2,2 -1,0 -1,1 -1,0 -1,1 -1,0 -1,1 -3,0 -1,-1 0,-2 -3,0 -1,1 -1,0 -1,1 -5,0 -1,-1 -2,0 -1,-1 0,1 10,1 2,0 1,1 0,2 -1,1 -1,1 -1,0 -1,1 -1,0 -1,1 4,0 0,-1 1,-1 2,0 1,-1 1,0 1,-1 1,0 1,-1 1,0 1,-1 1,0 1,-1 1,0 1,-1 1,0 1,-1 1,0 1,-1 1,0 1,-1 1,-1 1,0 1,-1 4,0 1,1 0,1 1,1 1,0 0,-1 1,-1 1,0 1,-1 1,-1 1,-1 1,-1 1,0 1,-1 0,-2 1,-1 0,-2 1,-1 1,-1 1,0 1,-1 1,-1 1,0 1,-1 1,0 1,-1 1,0 1,-1 1,0 1,-1 1,0 1,-1 1,0 1,-1 2,0 1,-1 2,0 1,-1 2,0 1,-1 4,0 1,-1 8,0 1,-1 13,0 0,-1 -1,-1 0,0 -1,1 -12,0 -1,1 -8,0 -1,1 -3,0 -1,1 -3,0 -1,1 -3,0 -1,-1 0,-3 -1,-1 0,-1 -1,-1 0,-3 1,-1 1,-1 1,-1 -1,0 -1,-1 0,-2 -2,0 -1,1 -1,0 0,1 -1,1 0,2 1,1 0,1 1,1 0,8 -1,1 -1,1 -1,0 -1,1 -1,0 -1,1 -2,0 -1,1 -2,0 -1,1 -9,0 -1,1 -1,0 0,1 -1,1 -2,0 -1,-1 -1,-3 -20,19 2,0 1,-1 1,0 1,-1 1,0 0,-1 -2,1 -2,1 -2,1 20,-19Z"/>
<path onmouseover="hoverPath(evt)" onmouseout="recoverPath(evt)" fill="rgb(247,246,239)" d="M  177,125l 0,0 -1,1 0,1 1,0 1,-1 1,0 1,-1 1,-1 1,0 1,-1 1,0 1,-1 2,0 1,-1 2,0 1,1 0,2 -1,1 0,1 1,-1 0,0 1,-2 2,0 1,-1 1,0 0,-2 1,-1 3,0 1,1 1,0 1,-1 2,0 1,-1 1,0 1,-1 1,0 1,-1 1,0 1,-1 2,0 1,-1 1,0 1,-1 4,0 1,1 2,0 -4,-2 0,-3 1,-1 2,0 1,1 0,-2 1,-1 2,0 1,-1 2,0 1,-1 1,0 1,-1 2,0 1,-1 0,-1 -1,0 -1,1 -3,0 -1,-1 0,2 -1,1 -3,0 -1,-1 0,2 -1,1 -2,0 -1,1 -2,0 -1,1 -1,0 -1,1 -2,0 -1,1 -1,0 -1,1 -1,0 -1,1 -4,0 -1,-1 0,-2 -1,-1 0,-1 -1,-1 0,-3 -1,1 0,0 -1,1 0,1 -1,1 -1,1 -1,1 -1,1 -1,0 0,1 -1,1 -1,0 -1,1 -1,1 -1,1 -1,0 -1,1 -1,1 -1,0 -1,1 -1,0 -1,1 -1,0 -1,1 -2,0 -1,1 -6,0 5,1Z"/>
<path onmouseover="hoverPath(evt)" onmouseout="recoverPath(evt)" fill="rgb(234,237,227)" d="M  253,109l 0,0 -1,1 -2,0 -1,-1 0,2 1,1 0,1 1,1 0,2 1,1 0,1 1,1 0,1 2,0 0,-42 -4,0 -1,-1 -4,0 -1,-1 -2,0 -1,-1 0,-4 -1,0 -1,-1 0,-1 -3,0 -1,-1 -2,0 -1,1 -3,0 1,1 0,2 1,1 0,2 1,1 2,0 1,1 1,1 1,1 0,1 1,1 0,2 1,1 0,1 1,1 0,1 1,1 0,1 1,1 0,1 1,1 0,1 1,1 0,1 1,0 1,1 0,1 1,1 0,1 1,1 1,1 0,1 1,1 0,2 -1,1 -2,0 -1,1 1,1 0,1 1,-1 0,-1 -1,0 3,-1 1,0 1,1Z"/>
<path onmouseover="hoverPath(evt)" onmouseout="recoverPath(evt)" fill="rgb(239,238,224)" d="M  6,22l 0,0 1,1 0,5 -1,1 -1,1 0,1 1,0 1,1 1,0 1,1 1,0 1,1 1,0 1,1 1,0 1,1 1,0 1,1 1,1 1,0 1,1 2,0 1,1 3,0 1,-1 0,-1 -1,-1 -1,0 -1,-1 -1,0 -1,-1 0,-1 -1,-1 -1,-1 -1,-1 -1,-1 -1,0 -1,-1 -1,0 -1,-1 0,-1 -1,-1 -1,-1 -1,-1 -1,-1 -1,0 -1,-1 -2,0 -1,-2 1,0 -1,-1 0,0 -1,-1 -1,-1 -1,0 -1,-1 -1,0 0,1 1,0 2,1 1,1 1,1 1,2Z"/>
<path onmouseover="hoverPath(evt)" onmouseout="recoverPath(evt)" fill="rgb(242,241,233)" d="M  131,134l 0,1 -1,1 1,1 0,1 1,1 1,1 0,1 1,1 1,1 0,1 1,1 1,1 1,1 0,1 1,1 1,1 1,1 0,1 1,1 1,1 1,0 1,1 0,2 1,0 1,1 1,1 1,0 1,1 1,1 1,1 1,1 1,1 1,1 0,3 -1,1 -3,0 1,1 0,1 1,1 1,0 1,1 0,2 1,1 1,1 1,1 1,-1 2,0 1,-1 2,0 0,-2 1,-1 2,0 1,-1 2,0 1,-1 1,0 1,-1 1,0 1,-1 1,0 1,-1 1,0 1,-1 1,0 1,-1 5,0 -1,-1 0,0 -1,-1 0,-3 1,-1 2,0 0,-2 1,-1 3,0 0,-4 -1,-1 0,-1 -1,-1 -1,-1 0,-1 -1,-1 -1,-1 -1,0 -1,-1 0,-1 -2,0 -1,-1 -1,-1 -1,0 -1,-1 -1,-1 0,-4 -1,-1 -1,1 -2,0 -1,-1 -1,0 -1,-1 -2,0 -1,-1 -1,0 -1,-1 -1,0 -1,-1 -1,0 -1,-1 -10,0 -1,-1 -1,0 -1,-1 -1,0 -1,-1 -1,-1 -1,-1 -1,0 -1,1 -1,1 -2,0 -1,1 -1,0 -1,1 -1,0 -1,1 -1,0 -1,1 -1,0 -1,1 1,1 0,1 41,31 -1,1 -2,0 -1,-1 0,-2 1,-1 2,0 1,1 0,2 -41,-31Z"/>
<path onmouseover="hoverPath(evt)" onmouseout="recoverPath(evt)" fill="rgb(242,241,232)" d="M  195,125l -2,0 0,1 -1,1 -1,1 -2,0 -1,-1 0,-3 -2,0 -1,1 -1,0 -1,1 -1,0 -1,1 0,2 1,1 1,0 1,1 1,1 1,1 0,2 1,1 1,1 1,1 1,0 1,1 5,0 1,1 1,1 1,1 0,1 1,1 0,1 1,1 1,1 0,1 1,1 1,1 0,2 -1,1 1,1 7,0 1,-1 1,0 1,-1 1,0 1,-1 2,0 1,-1 1,0 1,-1 1,0 1,-1 1,0 1,-1 1,0 1,-1 2,0 1,-1 1,0 1,-1 1,0 1,-1 1,0 1,-1 1,0 1,-1 1,0 1,-1 0,-2 -1,-1 0,-1 -1,-1 0,-1 -1,-1 0,-2 -1,-1 0,-2 1,-1 0,-1 1,-1 1,-1 1,-1 0,-2 -1,-1 0,-3 1,-1 0,-1 1,-1 0,-1 -1,-1 0,-1 -1,-1 0,-1 -1,-1 0,-1 -1,-1 -1,0 -1,-1 -1,0 -1,1 -1,0 -1,1 -2,0 -1,1 -2,0 0,2 -1,1 -2,0 0,1 2,0 1,1 0,2 -1,1 -4,0 -1,-1 -2,0 -1,1 -1,0 -1,1 -2,0 -1,1 -1,0 -1,1 -1,0 -1,1 -1,0 -1,1 -2,0 -1,1 -3,0 -1,-1 -1,0 0,2 -1,1 -1,0 -1,1 27,-14 0,0 -27,14Z"/>
<path onmouseover="hoverPath(evt)" onmouseout="recoverPath(evt)" fill="rgb(236,240,231)" d="M  207,94l 0,3 -1,1 -1,0 0,4 -1,1 0,2 1,1 0,1 1,1 0,2 2,0 1,-1 1,0 1,-1 1,0 1,-1 2,0 1,-1 1,0 1,-1 2,0 1,-1 2,0 0,-2 1,-1 2,0 1,1 1,0 0,-2 1,-1 2,0 1,1 1,0 0,-3 -1,-1 0,-1 -1,-1 0,-1 -1,-1 0,-1 -1,-1 0,-1 -1,-1 0,-1 -1,-1 0,-1 -1,-1 0,-1 -1,-1 0,-3 1,-1 0,0 -1,-1 -2,0 -1,-1 0,-1 -1,-1 -1,-1 0,-2 -13,0 -1,1 -8,0 -1,1 -4,0 -1,1 -2,0 -1,1 -2,0 -1,1 -2,0 -1,1 -1,0 -1,1 -1,0 -1,1 -1,0 -1,1 -1,0 -1,1 -1,0 -1,1 -1,0 -1,1 -1,1 -1,0 -1,1 0,1 1,1 1,0 1,-1 3,0 0,-2 1,-1 14,0 1,1 3,0 1,1 0,2 1,-1 2,0 1,1 1,0 1,1 1,1 3,0 1,1 1,1 0,1 1,1Z"/>
<path onmouseover="hoverPath(evt)" onmouseout="recoverPath(evt)" fill="rgb(239,237,225)" d="M  0,247l 0,8 9,0 0,-2 1,-1 0,-1 1,-1 1,0 1,-1 0,-1 1,-1 0,-1 1,-1 1,-1 -1,-1 -3,0 -1,-1 -2,0 -1,1 -2,0 -1,1 -1,0 -1,1 -3,0Z"/>
<path onmouseover="hoverPath(evt)" onmouseout="recoverPath(evt)" fill="rgb(239,241,234)" d="M  27,204l -2,0 -1,-1 -1,-1 -1,-1 -5,0 -1,-1 0,-4 1,-1 0,-1 1,-1 -1,-1 -1,-1 -1,-1 -1,0 -1,-1 0,-1 -1,-1 0,-1 -1,-1 -1,0 -1,-1 -1,0 0,1 -1,1 -2,0 -1,1 -1,0 -1,1 -2,0 0,10 2,0 1,1 1,1 1,1 1,1 0,2 1,1 2,0 1,1 0,1 1,0 3,3 1,1 6,6 0,1 1,0 1,1 1,1 2,0 1,1 1,0 0,-2 1,-1 2,0 1,1 2,0 1,1 1,-1 2,0 1,-1 4,0 1,-1 1,0 1,-1 2,0 1,-1 2,0 1,-1 2,0 1,1 2,0 1,-1 4,0 1,-1 -1,0 -1,-1 -2,0 -1,1 -2,0 -1,1 -28,-10 3,0 1,-1 0,0 -3,1 -1,0 4,-2 1,-1 0,0 -1,-1 0,1 2,1 -2,0 -4,2 20,10 -1,-1 -1,0 -1,-1 -1,-1 -1,0 -1,-1 0,-1 -1,-1 0,-1 -1,-1 0,-3 -1,3 -2,0 -1,-1 0,-1 12,10 -20,-10Z"/>
<path onmouseover="hoverPath(evt)" onmouseout="recoverPath(evt)" fill="rgb(237,237,231)" d="M  52,79l 0,1 1,1 0,1 1,1 1,1 1,0 1,1 1,1 0,1 2,0 1,-1 0,-2 -1,-1 0,-2 1,-1 2,0 1,1 1,1 1,1 1,1 1,1 1,1 1,1 1,1 1,0 1,1 2,0 1,1 1,1 1,1 0,1 1,0 1,1 1,1 0,-1 1,1 0,1 1,1 0,-1 1,1 0,1 1,1 0,-1 -11,-10 -1,-1 -1,-1 -1,-1 -1,-1 -1,-1 -1,-1 -1,-1 -1,-1 -1,-1 -1,-1 0,-1 -1,0 -1,-1 0,-1 -1,0 -1,-1 -1,0 -1,-1 0,-1 -1,-1 -1,0 -1,-1 -3,-3 -1,-1 -6,-6 -1,-1 -1,-1 -1,-1 -1,-1 -1,-1 0,-1 -1,-1 0,-2 -1,0 -1,1 -2,0 1,1 0,1 1,1 1,1 0,1 1,1 1,1 1,1 0,1 1,1 1,1 0,2 1,1 0,1 1,1 0,1 1,1 0,1 2,0 1,1 1,1 1,1 0,4 1,1Z"/>
<path onmouseover="hoverPath(evt)" onmouseout="recoverPath(evt)" fill="rgb(240,234,166)" d="M  85,55l -1,0 -1,-1 -2,0 -1,-1 0,-4 -2,0 -1,-1 0,-3 -1,0 0,6 -1,1 -1,1 -3,0 0,4 1,1 0,3 1,1 2,0 1,1 3,0 1,1 1,1 0,2 -1,1 1,0 1,1 0,-2 1,-1 2,0 1,1 0,1 1,1 1,1 0,1 1,1 1,1 1,1 0,1 1,1 0,1 1,1 0,1 1,1 0,2 1,0 1,1 0,1 1,1 1,1 0,1 1,1 1,1 0,1 1,0 1,1 0,2 2,0 1,1 0,2 1,1 0,1 1,1 0,1 1,1 0,1 1,1 1,1 1,1 1,1 0,3 1,-1 3,0 1,1 1,0 1,1 3,0 1,1 0,2 2,0 1,1 1,0 1,1 2,0 1,1 1,0 1,1 2,0 1,1 1,-1 2,0 1,1 2,0 1,1 0,2 -1,1 1,1 2,0 1,1 1,1 1,1 1,0 1,1 1,0 1,1 9,0 -8,-1 -1,0 -2,-1 0,-6 1,-1 -1,-1 0,-1 -1,0 -1,-1 -2,0 -1,-1 -2,0 -1,-1 -2,0 -1,-1 -1,0 -1,-1 -2,0 -1,-1 -1,0 -1,-1 -2,0 -1,-1 -1,-1 -6,0 -1,-1 0,-2 1,-1 1,-1 1,0 1,-1 1,0 1,-1 -8,0 -1,-1 -3,0 -1,-1 0,-3 -1,-1 -1,-1 -1,-1 -1,-1 -2,0 -1,-1 0,-2 1,-1 0,-1 -1,-1 0,-1 -1,-1 0,-1 -1,-1 0,-1 -1,-1 0,-4 -1,-1 0,-3 -1,-1 -1,-1 -1,0 -1,-1 0,-1 -1,-1 -1,-1 -1,-1 -1,-1 -1,-1 -1,-1 0,-1 -1,0 -1,-1 -1,-1 -2,0 -1,-1 -1,-1 0,-1 -1,-1Z"/>
<path onmouseover="hoverPath(evt)" onmouseout="recoverPath(evt)" fill="rgb(170,198,236)" d="M  87,209l 4,0 1,-1 3,0 1,-1 3,0 1,-1 3,0 1,-1 2,0 1,-1 2,0 1,-1 3,0 1,-1 2,0 1,-1 1,0 1,-1 1,0 1,-1 2,0 1,-1 1,0 1,-1 1,-1 1,0 1,-1 1,0 1,-1 1,0 2,-2 1,0 1,-1 1,0 1,-1 1,-1 -1,0 -1,-1 0,-2 1,-1 -1,-1 0,-2 -1,-1 -1,-1 0,-2 -1,0 -1,-1 -1,-1 0,-2 -1,-1 -1,0 -1,-1 -1,-1 0,-2 -1,-1 -1,0 -2,-2 -1,-1 -1,-1 0,-1 -1,-1 -1,-1 -1,-1 0,-2 -1,-1 -1,0 -1,-1 0,-1 -1,-1 0,-2 -1,0 -1,-1 -1,-1 -1,-1 0,-2 -1,0 -1,-1 -1,0 -1,1 0,0 -1,1 -1,0 -1,1 -12,0 -1,1 -1,0 0,1 -1,1 -2,0 -1,1 -1,0 0,1 -1,1 -2,0 -1,1 -1,0 0,1 -1,1 -2,0 -1,1 -1,0 0,1 -1,1 -2,0 -1,1 -1,0 0,1 -1,1 -2,0 -1,1 -1,0 -1,1 -1,0 -1,1 -1,1 -1,0 -1,1 -1,0 -2,2 -1,0 -1,1 -1,0 -1,1 -1,1 0,5 -1,1 0,1 -1,1 -1,0 -1,1 -1,0 -1,1 -1,1 -2,0 0,1 -1,1 -2,0 0,1 -2,2 -2,0 0,1 -1,1 -2,0 0,1 -1,1 -1,0 0,1 1,1 0,0 1,1 0,1 1,1 1,1 1,1 0,1 1,0 1,1 0,-1 1,-1 2,0 1,1 0,3 1,1 0,1 1,1 0,1 1,0 1,1 1,1 1,0 1,1 6,0 1,-1 2,0 1,-1 4,0 1,1 3,0 1,1 0,1 1,0 1,-1 5,0 1,-1 5,0 1,-1 5,0 1,-1Z"/>
<path onmouseover="hoverPath(evt)" onmouseout="recoverPath(evt)" fill="rgb(239,237,227)" d="M  94,103l 0,1 1,1 1,1 1,1 1,1 1,1 1,1 1,1 1,1 1,1 2,0 1,-1 1,0 1,-1 1,-1 1,0 0,-3 -1,-1 0,0 -1,-1 -1,-1 -1,-1 0,-1 -1,-1 0,-1 -1,-1 0,-1 -1,-1 0,-2 -2,0 -1,-1 0,-2 -1,0 -1,-1 0,-1 -1,-1 -1,-1 0,-1 -1,-1 -1,-1 0,-1 -1,0 -1,-1 0,-2 -1,-1 0,-1 -1,-1 0,-1 -1,-1 0,-1 -1,-1 -1,-1 -1,-1 0,-1 -1,-1 -1,-1 0,3 -1,1 -2,0 -1,-1 0,-2 -1,0 -1,-1 0,-2 1,-1 -1,-1 -3,0 -1,-1 -2,0 -1,-1 -1,-1 0,-3 -1,-1 0,-5 -1,-1 -1,-1 0,-2 -1,-1 -1,-1 -1,-1 0,-1 -1,-1 -1,-1 -1,0 -1,1 -2,0 -1,1 -1,0 -1,1 -1,0 -1,1 -2,0 -1,1 -1,0 -1,1 -1,0 -1,1 -2,0 -1,1 -2,0 0,1 1,1 0,1 1,1 1,1 1,1 1,1 1,1 1,1 1,1 1,1 1,1 1,1 1,1 1,1 1,1 1,1 1,1 1,0 1,1 1,1 0,1 1,0 1,1 1,0 1,1 0,1 1,0 1,1 0,1 1,1 1,1 1,1 1,1 1,1 1,1 1,1 1,1 1,1 1,1 1,1 1,1 1,1 1,1 1,1 1,0 1,1 1,1 1,1 1,1 1,1 0,1 1,0 1,1 1,1 0,1 1,0 1,1 1,0 1,1Z"/>
<path onmouseover="hoverPath(evt)" onmouseout="recoverPath(evt)" fill="rgb(184,225,232)" d="M  112,133l 0,0 -1,-1 -1,-1 -3,0 0,1 -2,2 -3,0 1,1 1,1 1,1 1,1 0,2 -1,1 -1,1 -1,1 -1,0 -1,1 -1,0 -1,1 0,2 4,0 1,-1 1,0 1,-1 1,-1 3,0 1,1 1,0 1,1 1,-1 0,-2 -1,-1 0,-2 1,-1 2,0 -1,-1 0,-5 1,-1 -1,-1 0,1 -1,1Z"/>
<path onmouseover="hoverPath(evt)" onmouseout="recoverPath(evt)" fill="rgb(240,240,232)" d="M  133,155l 0,-1 -1,-1 -1,-1 0,-1 -1,-1 -1,-1 -1,-1 0,-1 -1,-1 -1,-1 -1,-1 0,-1 -1,-1 -1,-1 -1,-1 0,-1 -2,0 -1,-1 -1,0 -1,-1 1,2 0,1 -1,1 -2,0 1,1 0,4 -1,1 -1,1 0,1 1,1 1,0 1,1 0,2 1,1 0,1 1,0 1,1 1,1 0,2 1,1 1,1 1,1 0,1 1,1 1,1 1,1 1,0 1,1 1,1 0,2 1,1 1,0 1,1 1,1 0,2 1,1 1,0 1,1 0,2 1,1 1,1 0,2 1,1 0,2 -1,1 2,0 1,-1 2,0 1,-1 1,0 1,-1 4,0 0,-3 1,-1 -1,-1 0,-1 -1,-1 -1,-1 0,-1 -1,-1 -1,-1 -1,-1 0,-1 -1,-1 -1,-1 -1,-1 0,-1 -1,-1 -1,-1 -1,-1 0,-1 -1,-1 -1,-1 -1,-1 0,-1 -1,-1 -1,-1 -1,-1 -1,-1Z"/>
<path onmouseover="hoverPath(evt)" onmouseout="recoverPath(evt)" fill="rgb(242,248,248)" d="M  130,126l -2,0 0,1 -1,1 0,1 -1,1 -7,0 -1,-1 -1,0 -1,-1 0,-3 -1,0 -1,-1 -1,-1 0,-1 -1,-1 -1,-1 -1,-1 0,-2 1,-1 1,0 0,-1 1,-1 1,0 2,-2 1,0 0,-1 -1,0 -1,-1 -1,0 -1,1 -1,0 -1,1 -1,0 -1,1 -1,1 -1,0 -1,1 -3,0 0,1 1,1 0,0 1,1 2,0 1,1 1,1 0,1 1,0 1,1 1,1 1,1 0,1 1,1 1,1 -1,-2 -2,-3 -1,-1 19,5 -14,3 1,1 1,1 0,2 -1,1 0,1 1,0 1,1 1,0 1,1 2,0 1,1 0,1 1,1 1,1 1,1 0,1 1,1 1,1 1,1 0,1 1,1 1,1 1,1 0,1 1,1 1,1 0,1 1,1 1,1 1,1 1,1 0,1 1,1 1,1 1,1 0,1 1,1 1,1 1,1 0,1 1,1 1,1 1,1 0,1 1,1 1,1 1,1 0,1 1,1 1,1 0,1 1,1 0,1 1,1 1,0 1,-1 1,0 -2,-1 0,0 -1,-1 -1,-1 -1,-1 0,-2 -1,0 -1,-1 -1,-1 0,-1 -1,-1 0,-2 1,-1 3,0 0,-1 -1,-1 0,0 -1,-1 -1,-1 -1,-1 -1,-1 -1,0 -1,-1 -1,-1 -1,0 -1,-1 0,-2 -1,0 -1,-1 -1,-1 -1,-1 0,-1 -1,-1 -1,-1 -1,-1 0,-1 -1,-1 -1,-1 -1,-1 0,-1 -1,-1 -1,-1 0,-1 -1,-1 -1,-1 0,-1 -1,-1 0,-2 1,-1 -1,-1 0,-2 1,-1 1,-1 1,0 1,-1 1,0 1,-1 1,0 1,-1 1,0 1,-1 2,0 1,-1 -1,-1 0,-1 -1,1 -4,0 -1,1 -1,0 -1,1 -1,0 -15,4 14,-3Z"/>
<path onmouseover="hoverPath(evt)" onmouseout="recoverPath(evt)" fill="rgb(242,240,230)" d="M  184,62l 0,0 -1,1 0,1 1,1 0,1 1,1 0,3 1,0 1,-1 3,0 1,-1 3,0 1,-1 8,0 1,-1 12,0 0,-2 -1,-1 0,-1 -1,-1 0,-1 -1,-1 0,-1 -1,-1 0,-1 -1,-1 0,-1 -1,-1 -1,-1 0,-1 -1,-1 0,-1 -1,-1 0,-1 -1,-1 0,-1 -1,-1 -1,-1 0,-1 -1,-1 0,-1 -1,-1 -1,-1 0,-2 1,-1 -1,-1 -1,0 -1,1 0,1 -1,1 0,1 -1,1 0,1 -1,1 -2,0 0,2 1,1 0,3 -1,1 -2,0 -1,1 0,1 -1,1 -1,1 -1,1 -1,0 -1,1 0,2 -1,1 1,0 1,1 0,2 -1,1 -1,0 -1,1Z"/>
<path onmouseover="hoverPath(evt)" onmouseout="recoverPath(evt)" fill="rgb(243,242,233)" d="M  218,47l 0,0 1,1 0,1 1,1 0,1 1,1 0,1 1,1 0,1 1,1 0,1 1,1 0,1 1,1 1,1 0,1 5,0 1,1 3,0 1,-1 3,0 1,-1 3,0 1,-1 3,0 1,-1 4,0 1,-1 2,0 0,-58 -54,0 0,2 -1,1 -1,0 -1,1 -1,0 -1,1 -1,0 -1,1 1,1 0,1 1,1 0,1 1,1 1,1 0,1 1,1 0,1 1,1 0,1 1,1 0,2 2,0 1,1 1,1 0,3 1,1 0,1 1,1 1,1 0,1 1,1 1,1 1,0 1,1 11,0 1,1 1,1 0,2 1,1 0,4 -1,1 -1,1 -1,1 -6,0 1,1Z"/>
</svg>