<svg width="256" height="256" xmlns="http://www.w3.org/2000/svg"><script> 
var tempColor;
function hoverPath(evt){
obj = evt.target;
tempColor = obj.getAttribute("fill");
obj.setAttribute("fill","red");
//alert(tempColor);
//obj.setAttribute("stroke","red");}
function recoverPath(evt){
obj = evt.target;
obj.setAttribute("fill", tempColor);
//obj.setAttribute("stroke", tempColor);
}</script><path onmouseover="hoverPath(evt)" onmouseout="recoverPath(evt)" fill="rgb(244,242,234)" d="M  1,0l -1,0 0,19 2,0 1,1 4,0 1,1 1,1 1,1 0,1 1,1 1,1 0,1 1,1 1,1 1,1 1,1 0,1 1,1 1,1 1,1 0,1 1,1 1,1 0,1 1,1 1,1 0,1 1,1 0,1 1,1 1,1 0,2 1,0 1,-1 1,0 1,-1 3,0 1,-1 1,0 1,-1 1,0 1,-1 2,0 1,-1 1,-1 4,0 1,1 1,0 1,1 0,1 1,1 4,0 1,1 3,0 1,1 2,0 0,-4 2,-2 1,0 0,-2 1,-1 2,0 1,-1 2,0 1,1 1,0 1,-1 2,0 1,-1 3,0 1,-1 2,0 1,-1 3,0 1,-1 4,0 1,-1 4,0 1,-1 4,0 1,-1 4,0 1,-1 4,0 1,-1 5,0 1,-1 4,0 1,-1 3,0 1,-1 0,-1 -1,-1 0,-2 -1,-1 0,-2 -1,-1 0,-3 -1,-1 0,-2 -1,-1 0,-3 -1,-1 0,-2 -1,-1 0,-3Z"/>
<path onmouseover="hoverPath(evt)" onmouseout="recoverPath(evt)" fill="rgb(243,242,234)" d="M  6,121l 0,0 1,-1 2,0 0,-3 -1,-1 0,-2 -1,-1 0,-3 -1,-1 0,-3 -1,-1 0,-2 -1,-1 0,-3 -1,-1 0,-3 -1,-1 0,-3 -1,-1 0,-4 1,-1 0,-1 -2,0 0,39 1,0 1,-1 2,0 1,-1Z"/>
<path onmouseover="hoverPath(evt)" onmouseout="recoverPath(evt)" fill="rgb(230,235,235)" d="M  14,177l 2,0 1,-1 8,0 1,1 0,-1 -1,-1 0,0 -1,-1 0,-3 -4,0 -1,1 -4,0 -1,-1 -3,0 -1,-1 0,-1 -2,0 -1,-1 0,-1 -1,-1 0,-1 -1,-1 0,-1 -1,-1 0,-1 -1,-1 0,-1 -1,-1 0,-1 -1,-1 0,-1 -1,0 0,25 3,0 1,-1 3,0 1,-1 4,0 1,-1Z"/>
<path onmouseover="hoverPath(evt)" onmouseout="recoverPath(evt)" fill="rgb(243,242,233)" d="M  26,128l -1,1 1,1 0,3 1,1 0,3 1,1 0,3 1,1 0,4 1,1 0,4 -1,1 0,1 1,0 1,1 0,1 1,1 0,3 1,1 0,4 1,1 0,3 1,0 1,1 0,1 1,-1 4,0 1,-1 4,0 1,-1 5,0 1,-1 4,0 1,-1 4,0 1,-1 4,0 0,-1 -1,-1 -1,-1 0,-1 -1,-1 0,-1 -1,-1 0,-1 -1,-1 0,-1 -1,-1 0,-1 -1,-1 0,-1 -1,-1 -1,-1 0,-1 -1,-1 0,-1 -1,-1 0,-1 -1,-1 0,-1 -1,-1 0,-1 -1,-1 -1,-1 0,-1 -1,-1 0,-1 -1,-1 0,-1 -1,-1 0,-1 -1,-1 0,-1 -1,-1 0,-1 -1,-1 -1,-1 0,-1 -2,0 -1,-1 -1,0 -1,1 -3,0 -1,-1 -1,0 0,2 -1,1 -3,0 -1,-1 -2,0 0,2 -1,1 -1,1Z"/>
<path onmouseover="hoverPath(evt)" onmouseout="recoverPath(evt)" fill="rgb(242,240,231)" d="M  127,1l 0,1 -1,1 0,1 1,1 0,2 1,1 0,3 1,1 0,2 1,1 0,2 1,1 0,2 1,1 0,2 1,1 2,0 1,-1 3,0 1,-1 5,0 1,-1 2,0 0,-2 1,-1 4,0 1,1 2,0 1,-1 4,0 0,-2 1,-1 5,0 1,1 2,0 1,-1 4,0 1,-1 3,0 0,-2 1,-1 4,0 1,1 0,4 1,1 1,-1 1,0 0,-2 -1,-1 0,-3 1,-1 5,0 1,1 1,0 1,-1 5,0 1,-1 2,0 1,-1 3,0 1,-1 3,0 0,-2 -4,0 -1,-1 -2,0 -1,1 -4,0 -1,-1 0,-3 -71,0 -1,1Z"/>
<path onmouseover="hoverPath(evt)" onmouseout="recoverPath(evt)" fill="rgb(243,242,234)" d="M  189,193l 0,3 1,1 0,3 1,1 0,2 1,1 0,4 1,1 0,3 1,1 0,3 1,1 0,2 5,0 1,-1 6,0 1,-1 5,0 1,-1 5,0 1,-1 6,0 1,-1 5,0 1,-1 6,0 1,-1 5,0 1,-1 4,0 1,-1 1,0 0,-2 -1,-1 0,-2 -1,-1 0,-2 -1,-1 0,-3 -1,-1 0,-3 -1,-1 0,-2 -1,-1 0,-4 -1,0 0,2 -1,1 -1,1 -6,0 -1,1 -5,0 -1,1 -9,0 -1,-1 -5,0 0,2 -1,1 -5,0 -1,1 -3,0 -1,-1 -1,-1 0,-1 -1,-1 0,-2 -5,0 -1,1 -3,0 -1,1 -3,0Z"/>
<path onmouseover="hoverPath(evt)" onmouseout="recoverPath(evt)" fill="rgb(242,240,231)" d="M  14,82l -1,0 0,3 1,1 0,2 1,1 0,4 -1,1 0,1 2,0 1,1 0,3 1,1 0,3 1,1 0,2 1,1 0,3 1,1 0,3 1,1 0,2 1,1 0,3 1,1 0,1 2,0 1,-1 4,0 1,1 1,0 0,-2 1,-1 2,0 1,-1 1,-1 3,0 1,-1 0,-1 -1,-1 0,-1 -1,-1 0,-1 -1,-1 0,-1 -1,-1 0,-1 -1,-1 -1,-1 0,-1 -1,-1 -1,-1 0,-1 -1,-1 0,-1 -1,-1 0,-1 -1,-1 0,-1 -1,-1 0,-1 -1,-1 -1,-1 0,-1 -1,-1 0,-1 -1,-1 0,-1 -1,-1 0,-2 1,-1 -2,0 -1,-1 0,-1 -1,-1 0,-1 -1,1 -3,0 -1,1 -2,0 -1,1Z"/>
<path onmouseover="hoverPath(evt)" onmouseout="recoverPath(evt)" fill="rgb(243,241,233)" d="M  40,186l 0,1 1,1 0,2 1,1 0,3 1,1 0,3 1,1 0,2 1,1 0,3 1,1 0,3 1,1 0,3 1,1 0,3 1,1 0,2 1,1 0,3 1,1 0,3 1,1 0,3 1,1 0,3 1,1 0,4 1,1 3,0 1,-1 5,0 1,-1 1,0 0,-1 -1,-1 0,-2 -4,0 -1,-1 0,-2 1,-1 1,-1 1,0 0,-5 1,-1 0,-2 -2,0 -1,-1 0,-2 -1,-1 0,-3 -1,-1 0,-3 -1,-1 0,-3 -1,-1 0,-3 -1,-1 0,-4 -1,-1 0,-3 -1,-1 0,-2 -1,-1 0,-4 -1,-1 0,-2 -1,-1 0,-1 -1,-1 -1,1 -3,0 -1,1 -3,0 -1,1 -1,0Z"/>
<path onmouseover="hoverPath(evt)" onmouseout="recoverPath(evt)" fill="rgb(243,241,234)" d="M  67,65l 0,0 -1,1 0,1 1,1 0,1 1,1 0,1 1,1 0,1 1,1 0,1 1,1 0,2 -1,1 0,1 1,1 0,1 1,1 0,1 1,1 0,1 2,0 1,1 0,1 1,1 0,2 -1,1 0,1 1,1 0,1 1,1 2,0 1,1 0,1 1,1 0,1 1,1 1,0 1,-1 2,0 1,-1 3,0 1,-1 2,0 1,-1 4,0 1,-1 4,0 1,-1 4,0 1,-1 3,0 1,-1 4,0 1,-1 4,0 1,-1 3,0 1,-1 4,0 1,-1 3,0 1,-1 3,0 1,-1 3,0 1,-1 4,0 1,-1 4,0 1,-1 3,0 1,1 2,0 1,1 1,1 0,4 1,1 0,3 1,1 0,3 1,1 0,3 1,1 0,3 1,1 0,3 1,1 0,3 1,1 0,3 1,1 0,3 1,1 0,3 1,1 0,3 1,1 0,3 1,1 0,2 1,1 0,3 1,1 0,3 1,1 0,3 1,1 2,0 1,-1 4,0 1,-1 4,0 1,-1 4,0 1,-1 5,0 1,-1 4,0 1,-1 4,0 1,-1 4,0 1,-1 4,0 1,-1 5,0 1,-1 3,0 -1,-1 0,-5 1,-1 1,-1 1,0 1,-1 3,0 1,-1 5,0 1,-1 4,0 1,-1 5,0 0,-129 -25,0 0,2 1,0 1,-1 3,0 1,1 0,3 -1,1 -1,1 -1,0 -1,1 -5,0 -1,-1 -2,0 0,1 -1,1 -1,0 0,1 -1,1 -11,0 -1,-1 -1,-1 -2,0 -1,1 -2,0 -1,1 -5,0 -1,1 -3,0 -1,-1 -3,0 0,1 1,1 0,4 -1,1 -1,0 -1,1 -2,0 -1,-1 -1,-1 0,-4 -2,0 0,2 -1,1 -3,0 -1,1 -4,0 -1,1 -4,0 -1,-1 -3,0 0,2 -1,1 -4,0 -1,1 -4,0 -1,-1 -2,0 0,2 -1,1 -2,0 -1,1 -5,0 -1,1 -3,0 -1,1 -4,0 -1,-1 -1,-1 0,-2 -1,-1 0,-2 -1,-1 0,-2 -1,-1 0,-2 -1,-1 0,-3 -1,-1 0,-2 -1,-1 0,-3 1,-1 0,-1 -3,0 0,2 1,1 0,2 1,1 0,3 1,1 0,2 1,1 0,3 1,1 0,2 1,1 0,2 1,1 0,3 -1,1 -1,1 -3,0 -1,1 -4,0 1,1 0,2 -1,1 -1,1 -1,0 -1,1 -1,0 -1,1 -2,0 -1,-1 -1,-1 -2,0 0,1 -1,1 -1,0 0,1 -2,2 -3,0 -1,-1 -1,0 -1,-1 0,-1 -1,1 -4,0 0,2 -1,1 0,1 -1,1 -3,0 -1,-1 -1,1 -6,0 -1,1 0,1 -1,1 -3,0 -1,-1 -1,1 -1,0 -1,1 -2,0 -1,-1 -1,-1 0,-4 -1,0 0,2 -1,1 -1,0 -1,1 0,4 -1,1 -4,0 -1,-1 -1,0 0,1 -1,1 0,2 1,1 0,0 1,1 1,1 1,1 1,1 0,1 1,1 1,1 0,1 1,1 1,-1 4,0 1,1 0,2 -1,1Z"/>
<path onmouseover="hoverPath(evt)" onmouseout="recoverPath(evt)" fill="rgb(233,223,216)" d="M  218,0l -17,0 0,2 2,0 1,-1 4,0 1,1 4,0 1,1 0,4 -1,1 -3,0 1,1 9,0 0,-1 1,-1 1,0 0,-1 1,-1 4,0 1,1 3,0 1,-1 1,0 1,-1 0,-1 -1,0 -1,1 -3,0 -1,-1 0,-3Z"/>
<path onmouseover="hoverPath(evt)" onmouseout="recoverPath(evt)" fill="rgb(244,243,235)" d="M  241,146l 0,0 1,1 0,2 1,1 0,3 1,1 0,3 1,1 0,2 1,1 0,3 1,1 0,2 1,1 0,3 1,1 0,3 1,1 0,2 1,1 0,3 1,1 0,3 1,1 0,2 1,1 0,3 1,0 0,-51 -3,0 -1,1 -5,0 -1,1 -4,0Z"/>
<path onmouseover="hoverPath(evt)" onmouseout="recoverPath(evt)" fill="rgb(243,242,233)" d="M  0,131l 0,22 2,0 1,1 0,1 1,1 0,1 1,1 0,1 1,1 0,1 1,1 0,1 1,1 0,1 1,1 0,1 2,0 1,1 0,1 3,0 1,1 2,0 1,-1 3,0 0,-2 -1,-1 0,-3 -1,-1 0,-3 -1,-1 0,-3 -1,-1 0,-3 -1,-1 0,-2 -1,-1 0,-3 -1,-1 0,-3 -1,-1 0,-2 -1,-1 0,-3 -1,-1 0,-2 -1,-1 0,-2 -2,0 -1,-1 -1,1 -2,0 -1,1 -1,0 -1,1 -2,0Z"/>
<path onmouseover="hoverPath(evt)" onmouseout="recoverPath(evt)" fill="rgb(243,242,234)" d="M  87,106l -1,0 -1,1 0,1 -1,1 2,0 1,1 0,1 1,1 0,1 1,1 0,1 1,1 0,2 1,1 0,1 1,1 0,1 1,1 0,2 -1,1 2,0 1,1 0,1 1,1 0,1 1,1 0,1 1,1 0,2 1,1 0,1 1,1 0,1 1,1 0,1 1,1 0,1 1,1 0,1 1,1 0,1 1,1 0,2 1,1 0,1 1,1 0,1 1,1 0,2 -1,1 2,0 1,1 0,1 1,1 0,1 1,1 5,0 1,-1 5,0 1,-1 4,0 1,-1 4,0 1,-1 5,0 1,-1 4,0 1,-1 4,0 1,-1 5,0 1,-1 4,0 1,-1 4,0 1,-1 4,0 1,-1 2,0 0,-2 -1,-1 0,-3 -1,-1 0,-3 -1,-1 0,-3 -1,-1 0,-3 -1,-1 0,-3 -1,-1 0,-3 -1,-1 0,-3 -1,-1 0,-3 -1,-1 0,-3 -1,-1 0,-3 -1,-1 0,-3 -1,-1 0,-3 -1,-1 0,-3 -1,-1 0,-3 -1,-1 0,-2 -1,-1 -4,0 -1,1 -3,0 -1,1 -4,0 -1,1 -4,0 -1,1 -3,0 -1,1 -4,0 -1,1 -3,0 -1,1 -4,0 -1,1 -3,0 -1,1 -4,0 -1,1 -4,0 -1,1 -3,0 -1,1 -3,0 -1,1 -4,0 -1,1 -2,0 -1,1 -2,0 -1,1Z"/>
<path onmouseover="hoverPath(evt)" onmouseout="recoverPath(evt)" fill="rgb(188,207,230)" d="M  241,139l 1,0 1,-1 5,0 1,-1 6,0 0,-6 -4,0 -1,1 -4,0 -1,1 -5,0 -1,1 -3,0 -1,1 -1,0 -1,1 0,3 1,1 1,0 1,-1Z"/>
<path onmouseover="hoverPath(evt)" onmouseout="recoverPath(evt)" fill="rgb(244,243,236)" d="M  58,252l -1,0 1,1 0,2 140,0 0,-4 -1,-1 0,-4 1,-1 0,-3 -1,-1 0,-3 -2,0 -1,-1 0,-3 -1,-1 0,-2 -1,-1 -3,0 -1,1 -5,0 -1,1 -5,0 -1,1 -5,0 -1,1 -5,0 -1,1 -5,0 -1,1 -6,0 -1,1 -5,0 -1,1 -5,0 -1,1 -6,0 -1,1 -5,0 -1,1 -4,0 -1,1 -7,0 -1,1 -6,0 -1,1 -5,0 -1,1 -5,0 -1,1 -5,0 -1,1 -5,0 -1,1 -4,0 -1,1 -4,0 -1,1 -6,0 -1,1 -5,0 -1,1Z"/>
<path onmouseover="hoverPath(evt)" onmouseout="recoverPath(evt)" fill="rgb(244,243,234)" d="M  107,172l 0,1 1,1 0,2 1,1 0,3 1,1 0,3 1,1 0,3 1,1 0,2 1,1 0,3 1,1 0,3 1,1 0,3 1,1 0,3 1,1 0,2 1,1 0,3 1,1 0,3 1,1 0,3 1,1 0,2 1,1 0,3 1,1 0,1 3,0 1,-1 4,0 1,-1 6,0 1,-1 5,0 1,-1 5,0 1,-1 6,0 1,-1 5,0 1,-1 5,0 1,-1 5,0 1,-1 5,0 1,-1 6,0 0,-2 1,-1 0,-3 -1,-1 0,-2 -1,-1 0,-4 -1,-1 0,-3 -1,-1 0,-3 -1,-1 0,-3 -1,-1 0,-4 -1,-1 0,-3 -1,-1 0,-2 -1,-1 0,-4 -1,-1 0,-3 -1,-1 0,-3 -1,-1 0,-3 -1,-1 0,-3 -1,-1 0,-3 -7,0 -1,1 -4,0 -1,1 -4,0 -1,1 -4,0 -1,1 -4,0 -1,1 -5,0 -1,1 -4,0 -1,1 -5,0 -1,1 -4,0 -1,1 -4,0 -1,1 -4,0 -1,1 -3,0 -1,1 -3,0 -1,1Z"/>
<path onmouseover="hoverPath(evt)" onmouseout="recoverPath(evt)" fill="rgb(241,239,228)" d="M  58,189l 0,5 -1,1 0,2 1,1 0,4 1,1 0,3 1,1 0,3 1,1 0,3 1,1 0,3 1,1 0,-2 1,-1 3,0 0,-2 1,-1 4,0 1,-1 5,0 1,1 3,0 0,-2 1,-1 1,-1 -1,-1 0,-2 -1,-1 0,-3 -1,-1 0,-4 1,-1 0,-3 2,-2 4,0 1,-1 4,0 1,-1 4,0 0,-2 1,-1 4,0 0,-4 -1,-1 0,-1 -1,-1 -5,0 -1,-1 0,-2 1,-1 4,0 1,-1 1,0 0,-1 -1,-1 -4,0 -1,1 -4,0 -1,1 -5,0 -1,1 -4,0 -1,1 -4,0 -1,1 -5,0 -1,1 -3,0 -1,1 -4,0 -1,1 -3,0 -1,1 0,2 4,0 1,1 0,2 -1,1 -2,0Z"/>
<path onmouseover="hoverPath(evt)" onmouseout="recoverPath(evt)" fill="rgb(171,198,238)" d="M  72,117l 0,0 1,1 0,1 1,1 1,1 0,1 1,1 0,1 1,1 0,1 1,1 0,1 1,1 0,1 1,1 0,1 1,1 0,1 1,1 0,1 1,1 0,1 1,1 0,1 1,1 0,2 1,1 0,1 1,1 0,1 1,1 1,1 0,1 1,1 0,2 1,1 0,7 -1,1 -2,0 -1,1 -6,0 -1,1 -5,0 -1,1 1,1 1,0 1,-1 4,0 1,-1 6,0 1,-1 3,0 1,-1 1,0 0,-3 -1,-1 0,-2 -1,-1 0,-2 -1,-1 0,-2 -1,-1 0,-1 -1,-1 0,-1 -1,-1 0,-1 -1,-1 0,-1 -1,-1 0,-1 -1,-1 0,-1 -1,-1 0,-2 -1,-1 0,-1 -1,-1 0,-1 -1,-1 0,-1 -1,-1 0,-2 -1,-1 0,-1 -1,-1 -1,-1 0,-1 -1,-1 0,-1 -1,-1 -1,-1 -1,-1 -1,1 0,-3 -1,0 -1,-1 0,1 1,1 -1,-3 0,-1 -1,-1 -1,0 1,1Z"/>
<path onmouseover="hoverPath(evt)" onmouseout="recoverPath(evt)" fill="rgb(243,241,233)" d="M  93,165l -3,0 -1,1 -6,0 -1,1 -4,0 -1,1 -2,0 1,1 0,1 6,0 1,-1 4,0 1,-1 4,0 1,-1 5,0 1,-1 3,0 1,-1 4,0 0,-2 -1,-1 0,-2 -1,-1 0,-1 -1,-1 0,-1 -1,-1 0,-2 1,-1 -1,-1 0,-2 -1,-1 0,-1 -1,-1 0,-1 -1,-1 0,-1 -2,0 -1,-1 0,-1 -1,-1 0,-2 1,-1 -1,-1 0,-2 -1,-1 0,-1 -1,-1 0,-1 -1,-1 0,-1 -2,0 -1,-1 0,-1 -1,-1 0,-1 -1,-1 0,-2 1,-1 -1,-1 0,-2 -1,-1 0,-1 -1,-1 0,-1 -1,-1 0,-1 -2,0 -1,-1 0,-1 -1,-1 -1,-1 0,-1 -1,-1 0,-2 -1,-1 0,-1 -1,-1 0,-2 -1,-1 -1,-1 0,-1 -1,-1 0,-2 -1,-1 0,-2 1,-1 -2,0 -1,-1 0,-1 -1,-1 0,-1 -1,-1 0,-1 -1,-1 0,-2 -1,-1 0,-1 -1,-1 0,-2 1,-1 -2,0 -1,-1 0,-2 1,-1 -1,-1 -2,0 -1,-1 0,-1 -1,2 -2,0 -1,1 -3,0 -1,1 -2,0 -1,1 -2,0 -1,1 -1,0 0,2 1,1 0,0 1,1 0,1 1,1 0,1 1,1 1,1 0,2 1,0 2,2 0,1 2,2 1,1 0,1 1,1 1,1 1,1 0,2 1,0 1,1 1,1 0,1 1,1 1,1 0,2 1,0 1,1 0,2 1,0 1,1 0,2 1,0 1,1 1,1 0,2 1,0 1,1 1,1 0,1 1,1 1,1 1,1 0,1 1,1 0,1 1,1 1,1 0,1 1,1 0,2 1,1 0,1 1,1 0,1 1,1 0,1 1,1 0,2 1,1 0,1 1,1 0,1 1,1 0,1 1,1 0,1 1,1 0,1 1,1 0,1 1,1 0,2 1,1 0,2 1,1 0,2 1,1 0,5 -1,1 -1,0 -1,1Z"/>
<path onmouseover="hoverPath(evt)" onmouseout="recoverPath(evt)" fill="rgb(244,243,236)" d="M  199,229l -2,0 0,4 -1,1 0,2 2,0 1,1 0,3 1,1 0,5 -1,1 0,2 1,1 0,5 55,0 0,-35 -2,0 -1,1 -5,0 -1,1 -5,0 -1,1 -6,0 -1,1 -5,0 -1,1 -6,0 -1,1 -5,0 -1,1 -6,0 -1,1 -5,0 -1,1Z"/>
<path onmouseover="hoverPath(evt)" onmouseout="recoverPath(evt)" fill="rgb(175,199,237)" d="M  244,165l 0,-3 -1,-1 0,-2 -1,-1 0,-3 -1,-1 0,-3 -1,-1 0,-2 -1,-1 0,-2 -1,1 -1,0 0,2 1,1 0,3 1,1 0,2 1,1 0,3 1,1 0,3 1,0 1,1 1,1 -1,1 0,3 1,1 0,4 1,1 0,9 2,0 1,1 0,4 1,1 0,2 1,1 0,3 1,1 0,3 1,1 0,2 1,1 0,2 1,1 0,2 1,0 0,-14 -2,0 -1,-1 0,-3 -1,-1 0,-2 -1,-1 0,-3 -1,-1 0,-3 -1,-1 0,-2 -1,-1 0,-3 -1,-1 0,-3 -1,-1 0,-2 -2,0 1,-1Z"/>
<path onmouseover="hoverPath(evt)" onmouseout="recoverPath(evt)" fill="rgb(247,236,143)" d="M  0,254l 0,1 56,0 0,-1 -1,-1 0,-2 1,-1 2,0 1,-1 5,0 1,-1 6,0 1,-1 4,0 1,-1 4,0 1,-1 5,0 1,-1 5,0 1,-1 5,0 1,-1 5,0 1,-1 6,0 1,-1 7,0 1,-1 4,0 1,-1 5,0 1,-1 6,0 1,-1 5,0 1,-1 5,0 1,-1 6,0 1,-1 5,0 1,-1 5,0 1,-1 5,0 1,-1 5,0 1,-1 5,0 1,-1 5,0 1,1 1,1 0,-2 1,-1 4,0 1,-1 5,0 1,-1 6,0 1,-1 5,0 1,-1 6,0 1,-1 5,0 1,-1 6,0 1,-1 5,0 1,-1 5,0 1,-1 3,0 0,-7 -1,0 -1,1 -1,0 -1,1 -4,0 -1,1 -5,0 -1,1 -6,0 -1,1 -5,0 -1,1 -6,0 -1,1 -5,0 -1,1 -5,0 -1,1 -6,0 -1,1 -6,0 0,1 -1,1 -3,0 -1,-1 0,-2 -1,3 -6,0 -1,1 -5,0 -1,1 -5,0 -1,1 -5,0 -1,1 -5,0 -1,1 -6,0 -1,1 -5,0 -1,1 -5,0 -1,1 -6,0 -1,1 -4,0 -1,1 -4,0 -1,1 -1,1 -2,0 -1,-1 -4,0 -1,1 -5,0 -1,1 -6,0 -1,1 -5,0 -1,1 -5,0 -1,1 -5,0 -1,1 -4,0 -1,1 -6,0 0,1 -1,1 -3,0 -1,-1 -1,1 -5,0 -1,1 -5,0 -1,-1 -1,-1 0,-4 -1,-1 0,-3 -1,-1 0,-3 -1,-1 0,-3 -1,-1 0,-3 -1,-1 0,-2 -1,-1 0,-3 -1,-1 0,-3 -1,-1 0,-3 -1,-1 0,-3 -1,-1 0,-2 -1,-1 0,-3 -1,-1 0,-3 -1,-1 0,-2 -1,-1 0,-3 -1,0 -1,-1 0,-4 1,-1 2,0 -3,-1 0,-3 -1,0 -1,-1 0,-4 -1,0 -1,-1 0,-3 -1,-1 0,-4 -1,-1 0,-3 -1,-1 0,-1 -1,0 -1,-1 0,-3 1,-1 0,-2 -1,-1 0,-4 -1,-1 0,-3 -1,-1 0,-3 -1,-1 0,-3 -1,-1 0,-2 1,-1 0,-1 1,-1 -2,0 -1,-1 0,-1 -1,-1 0,-3 -1,-1 0,-2 -1,-1 0,-3 -1,-1 0,-3 -1,-1 0,-2 -1,-1 0,-3 -1,-1 0,-3 -2,0 -1,-1 0,-3 1,-1 0,-2 -1,-1 0,-2 -1,-1 0,-4 -2,0 -1,-1 0,-2 -1,-1 0,-3 1,-1 0,-2 -1,-1 -1,0 -1,-1 0,-2 1,-1 0,-2 -1,-1 0,-2 1,-1 -1,-1 0,-4 -1,-1 0,-4 -1,0 -1,-1 0,-2 1,-1 0,-6 -1,-1 0,-6 -1,-1 0,-8 -1,0 0,57 3,0 1,1 0,3 -1,1 0,2 1,1 0,3 1,1 0,3 1,1 0,3 1,1 0,2 1,1 0,3 1,1 0,3 1,1 0,2 1,1 0,5 -1,1 -2,0 -1,1 -1,0 -1,1 -2,0 -1,1 -2,0 0,2 1,0 1,-1 1,0 1,-1 2,0 1,-1 2,0 1,1 2,0 1,1 0,2 1,1 0,2 1,1 0,3 1,1 0,2 1,1 0,3 1,1 0,3 1,1 0,2 1,1 0,3 1,1 0,3 1,1 0,3 1,1 0,3 1,1 0,3 1,0 1,1 0,3 2,2 0,3 -1,1 0,3 1,1 0,2 1,1 0,2 1,1 0,2 1,1 0,3 1,1 0,2 1,1 0,2 1,1 0,3 1,1 0,3 1,1 0,3 1,1 0,3 1,1 0,3 1,1 0,2 1,1 0,3 1,1 0,3 1,1 0,3 1,1 0,3 1,1 0,4 -1,1 -3,0 -1,1 -6,0 -1,1 -7,0 -1,1 -5,0 -1,1 -7,0 -1,1 -3,0 -1,1 -4,0 -1,-1 0,-2 -1,0Z"/>
<path onmouseover="hoverPath(evt)" onmouseout="recoverPath(evt)" fill="rgb(243,242,235)" d="M  27,77l -1,0 0,2 1,1 0,1 1,1 0,2 -1,1 1,1 0,1 1,1 0,1 1,1 0,1 1,1 2,0 1,1 0,1 1,1 0,2 -1,1 1,1 0,1 1,1 0,1 1,1 1,1 0,1 1,1 2,0 1,1 0,1 1,1 0,1 1,1 0,1 1,1 1,1 1,1 0,1 1,1 1,1 0,1 2,0 1,1 0,2 -1,1 1,1 0,1 1,1 0,1 1,1 0,1 1,1 1,1 0,1 2,0 1,1 0,2 -1,1 1,1 0,1 1,1 0,1 1,1 1,1 0,1 2,0 1,1 0,2 -1,1 1,1 0,1 1,1 0,1 1,1 0,1 1,1 1,1 0,1 2,0 1,1 0,1 1,1 0,2 -1,1 1,1 0,0 1,-1 5,0 1,-1 6,0 1,-1 2,0 0,-5 -1,-1 0,-2 -1,-1 0,-1 -1,-1 -1,-1 0,-1 -1,-1 0,-1 -1,-1 0,-2 -1,-1 0,-1 -1,-1 0,-1 -1,-1 0,-1 -1,-1 0,-1 -1,-1 0,-1 -1,-1 0,-1 -1,-1 0,-1 -1,-1 0,-1 -1,-1 0,-1 -1,-1 0,-1 -1,-1 -1,-1 0,-1 -1,-1 0,-1 -1,-1 -1,-1 0,-1 -1,-1 0,-1 -1,-1 0,-2 1,-1 0,-1 -1,0 -1,-1 0,-2 -4,0 -1,-1 -1,-1 0,-2 -1,0 -1,-1 -1,-1 0,-1 -1,-1 -1,-1 -1,-1 -1,-1 0,-1 -1,-1 -1,-1 -1,-1 0,-1 -1,-1 -1,-1 0,-1 -1,-1 -1,-1 -1,-1 0,-1 -1,-1 0,-1 -1,-1 -1,-1 0,-1 -1,-1 -1,0 -1,-1 -1,1 -3,0 -1,1 -3,0 -1,1Z"/>
<path onmouseover="hoverPath(evt)" onmouseout="recoverPath(evt)" fill="rgb(242,240,231)" d="M  181,156l 0,0 -1,1 0,2 1,1 0,3 1,1 0,3 1,1 0,2 1,1 0,4 1,1 0,3 1,1 0,2 1,-1 1,0 1,-1 11,0 1,-1 4,0 0,-1 1,-1 0,-4 1,-1 1,-1 2,0 1,1 0,3 -1,1 0,10 -1,1 -2,0 0,3 6,0 1,-1 7,0 1,1 7,0 1,-1 5,0 1,-1 6,0 1,-1 0,-11 -1,-1 0,-4 -1,-1 0,-5 -1,0 -1,-1 0,-3 -1,-1 0,-3 -1,-1 0,-2 -1,-1 0,-3 -1,-1 0,-3 -4,0 -1,1 -4,0 -1,1 -4,0 -1,1 -5,0 -1,1 -4,0 -1,1 -4,0 -1,1 -4,0 -1,1 -5,0 -1,1 -4,0 -1,1 -3,0 -1,1Z"/>
<path onmouseover="hoverPath(evt)" onmouseout="recoverPath(evt)" fill="rgb(244,243,237)" d="M  0,183l 0,64 2,0 1,1 0,2 2,0 1,-1 3,0 1,-1 7,0 1,-1 5,0 1,-1 7,0 1,-1 6,0 1,-1 3,0 0,-2 -1,-1 0,-3 -1,-1 0,-3 -1,-1 0,-3 -1,-1 0,-3 -1,-1 0,-2 -1,-1 0,-3 -1,-1 0,-3 -1,-1 0,-3 -1,-1 0,-3 -1,-1 0,-3 -1,-1 0,-2 -1,-1 0,-2 -1,-1 0,-3 -1,-1 0,-2 -1,-1 0,-2 -1,-1 0,-2 -1,-1 0,-4 -1,-1 -6,0 -1,1 -3,0 -1,1 -4,0 -1,1 -3,0 -1,1 -3,0 -1,1Z"/>
<path onmouseover="hoverPath(evt)" onmouseout="recoverPath(evt)" fill="rgb(174,199,233)" d="M  2,23l 1,1 2,0 1,1 0,1 1,1 1,1 0,1 1,1 1,1 1,1 1,1 0,1 1,1 1,1 0,1 1,1 1,1 1,1 0,1 1,1 1,1 1,1 1,1 0,1 1,1 1,1 1,0 0,-1 -1,-1 0,0 -1,-1 0,-1 -1,-1 0,-1 -1,-1 -1,-1 0,-1 -1,-1 -1,-1 0,-1 -1,-1 -1,-1 -1,-1 0,-1 -1,-1 -1,-1 -1,-1 -1,-1 0,-1 -1,-1 -1,-1 0,-1 -1,-1 -1,-1 -3,0 -1,1 -1,0 -1,-1 0,1 1,-2Z"/>
<path onmouseover="hoverPath(evt)" onmouseout="recoverPath(evt)" fill="rgb(234,227,222)" d="M  10,47l 0,1 1,1 0,2 -1,1 -2,0 -1,-1 0,-1 -1,-1 0,-2 1,-1 2,0 1,1 -5,0 0,1 -1,1 1,0 1,1 0,4 1,1 0,4 1,1 0,2 -1,1 1,1 0,4 -1,1 1,0 1,1 1,1 0,4 -1,1 0,1 1,1 0,2 3,0 1,-1 2,0 1,-1 3,0 1,-1 2,0 1,1 0,-4 1,-1 1,-1 2,0 1,-1 3,0 1,-1 2,0 0,-2 -1,-1 0,-3 1,-1 3,0 1,1 1,1 1,1 1,1 3,0 1,-1 2,0 1,-1 3,0 1,-1 2,0 1,-1 4,0 1,1 1,0 1,1 0,0 1,-1 1,0 1,-1 -1,0 -2,1 0,2 -2,-3 0,0 -1,-1 0,-1 -1,-1 -1,-1 0,-1 -4,-4 -1,-1 0,-4 1,-1 -1,-1 -4,0 -1,-1 -1,-1 0,-1 -1,0 -1,-1 -2,0 -1,1 0,0 -1,1 -2,0 -1,1 -1,0 -1,1 -1,0 -1,1 -3,0 -1,1 -1,0 -1,1 -6,0 -1,-1 -1,-1 -1,-1 0,-1 -1,-1 -1,-1 -1,-1 -1,-1 0,-1 -2,-2 -1,-1 0,-1 -1,-1 -1,-1 0,-1 -1,-1 -1,-1 -1,-1 -1,-1 0,-1 -1,-1 -1,-1 0,-1 -1,0 0,6 1,1 0,6 1,1 0,7Z"/>
<path onmouseover="hoverPath(evt)" onmouseout="recoverPath(evt)" fill="rgb(171,198,238)" d="M  45,79l 0,0 1,1 0,1 1,1 1,1 1,1 0,1 1,1 1,1 0,1 1,1 1,1 1,1 0,1 1,1 1,1 1,1 1,1 0,1 1,1 1,0 1,1 0,2 1,1 1,0 0,-1 -1,-1 0,1 -1,-3 -1,-1 -1,0 -1,-2 0,-1 -1,-1 -1,-1 -1,-1 0,-1 -3,-3 0,-1 -1,-1 -1,0 1,1 1,2 1,1 1,1 1,2 1,1 1,1 -8,-11 0,-1 -1,-1 -1,-1 0,-1 -1,-1 -1,1 -1,-4 0,-4 1,-1 1,0 1,-1 2,0 1,-1 2,0 1,-1 3,0 1,-1 2,0 0,-1 -2,0 -1,1 -2,0 -2,1 -2,0 -1,1 -2,0 -1,1 -5,0 -1,-1 -1,-1 -1,-1 -1,-1 -1,0 0,1 1,1 0,4 -1,1 3,0 1,1 1,0 1,1 1,1 1,0 1,4 -9,-6 -1,-1 -1,0 -1,1 -3,0 -1,1 -2,0 -1,1 2,0 2,-1 2,0 2,-1 2,0 9,6Z"/>
<path onmouseover="hoverPath(evt)" onmouseout="recoverPath(evt)" fill="rgb(214,223,227)" d="M  54,175l 2,0 1,-1 5,0 1,-1 3,0 1,-1 3,0 0,-3 -1,-1 0,0 -1,-1 0,-1 -4,0 -1,1 -4,0 -1,1 -4,0 -1,1 -5,0 -1,1 -4,0 -1,1 -4,0 -1,1 -1,0 0,1 1,0 1,1 0,3 2,0 1,1 1,0 1,-1 4,0 1,-1 3,0 1,-1Z"/>
<path onmouseover="hoverPath(evt)" onmouseout="recoverPath(evt)" fill="rgb(241,239,229)" d="M  86,210l 0,0 -1,1 -1,1 0,2 -1,1 -5,0 -1,-1 -3,0 -1,1 -4,0 0,2 -1,1 -3,0 0,3 1,1 0,4 -1,1 0,5 -1,1 -1,0 -1,1 4,0 1,1 0,2 1,1 0,3 1,0 0,-1 1,-1 6,0 1,-1 4,0 1,-1 5,0 1,-1 5,0 1,-1 5,0 1,-1 6,0 1,-1 5,0 1,-1 4,0 0,-3 -1,-1 0,-3 -8,0 -1,-1 0,-2 1,-1 3,0 0,-6 -1,-1 0,-3 -3,0 -1,-1 -5,0 -1,-1 0,-2 1,-1 4,0 1,-1 1,0 1,-1 0,-1 -1,-1 0,-3 -1,-1 0,-2 -1,-1 -3,0 -1,-1 0,-2 1,-1 1,0 1,-1 -4,0 -1,1 -4,0 -1,1 -4,0 -1,1 -4,0 -1,1 0,3 -1,1 0,2 1,1 0,3 1,1 0,2 1,1Z"/>
<path onmouseover="hoverPath(evt)" onmouseout="recoverPath(evt)" fill="rgb(253,253,252)" d="M  108,207l -1,0 -1,1 1,0 1,1 3,0 1,1 0,3 1,1 0,8 -1,1 5,0 1,1 0,3 1,1 0,4 1,1 1,-1 0,-1 -1,-1 0,-3 -1,-1 0,-2 -1,-1 0,-3 -1,-1 0,-3 -1,-1 0,-3 -1,-1 0,-2 -1,-1 0,-3 -1,-1 0,-3 -1,-1 0,-3 -1,-1 0,-3 -1,-1 0,-2 -1,-1 0,-3 -1,-1 0,-3 -1,-1 0,-3 -1,-1 0,-2 -1,-1 0,-4 1,-1 1,-1 3,0 1,-1 3,0 1,-1 4,0 1,-1 4,0 1,-1 4,0 1,-1 5,0 1,-1 4,0 1,-1 5,0 1,-1 4,0 1,-1 4,0 1,-1 4,0 1,-1 4,0 1,-1 9,0 1,1 0,3 1,1 0,3 1,1 0,3 1,1 0,3 1,1 0,3 1,1 0,4 1,1 0,2 1,1 0,3 1,1 0,4 1,1 0,3 1,1 0,3 1,1 0,3 1,1 0,4 1,1 0,2 1,1 0,4 1,1 0,2 1,0 0,-3 -1,-1 0,-3 -1,-1 0,-3 -1,-1 0,-4 -1,-1 0,-2 -1,-1 0,-3 -1,-1 0,-7 1,-1 3,0 1,-1 3,0 1,-1 7,0 1,1 0,2 1,1 0,1 1,1 1,0 1,-1 -2,0 -1,-2 0,-4 1,-1 2,0 0,-10 1,-1 0,-1 -1,1 -1,5 0,1 -1,1 -4,0 -1,1 -11,0 -1,1 -1,0 -1,1 -2,0 -1,-1 0,-2 -1,-1 0,-3 -1,-1 0,-4 -1,-1 0,-2 -1,-1 0,-3 -1,-1 0,-3 -1,-1 0,-4 1,-1 1,-1 3,0 1,-1 3,0 1,-1 4,0 1,-1 5,0 1,-1 4,0 1,-1 4,0 1,-1 4,0 1,-1 5,0 1,-1 4,0 1,-1 4,0 1,-1 7,0 1,-1 1,0 1,-1 4,0 1,-1 5,0 1,-1 4,0 0,-1 -5,0 -1,1 -5,0 -1,1 -6,0 -1,1 -2,0 -1,1 -3,0 -1,1 -5,0 -1,1 -4,0 -1,1 -4,0 -1,1 -4,0 -1,1 -4,0 -1,1 -5,0 -1,1 -4,0 -1,1 -4,0 -1,1 -4,0 -1,1 -4,0 -1,-1 -1,-1 0,-3 -1,-1 0,-3 -1,-1 0,-3 -1,-1 0,-2 -1,-1 0,-3 -1,-1 0,-3 -1,-1 0,-3 -1,-1 0,-3 -1,-1 0,-3 -1,-1 0,-3 -1,-1 0,-3 -1,-1 0,-3 -1,-1 0,-3 -1,-1 0,-3 -1,-1 0,-3 -1,-1 0,-4 -1,-1 -2,0 -1,-1 -1,0 -1,1 -4,0 -1,1 -4,0 -1,1 -3,0 -1,1 -3,0 -1,1 -3,0 -1,1 -4,0 -1,1 -3,0 -1,1 -4,0 -1,1 -4,0 -1,1 -3,0 -1,1 -4,0 -1,1 -4,0 -1,1 -4,0 -1,1 -2,0 -1,1 -3,0 -1,1 -2,0 -1,1 -3,0 -1,-1 -1,-1 0,-1 -1,-1 0,-1 2,5 0,1 1,1 0,1 1,1 0,-1 1,-1 0,0 1,-1 1,0 1,-1 2,0 1,-1 2,0 1,-1 4,0 1,-1 3,0 1,-1 3,0 1,-1 4,0 1,-1 4,0 1,-1 3,0 1,-1 4,0 1,-1 3,0 1,-1 4,0 1,-1 3,0 1,-1 4,0 1,-1 4,0 1,-1 3,0 1,-1 6,0 1,1 1,1 0,2 1,1 0,3 1,1 0,3 1,1 0,3 1,1 0,3 1,1 0,3 1,1 0,3 1,1 0,3 1,1 0,3 1,1 0,3 1,1 0,3 1,1 0,3 1,1 0,3 1,1 0,3 1,1 0,3 1,1 0,4 -1,1 -2,0 -1,1 -4,0 -1,1 -4,0 -1,1 -4,0 -1,1 -5,0 -1,1 -4,0 -1,1 -4,0 -1,1 -5,0 -1,1 -4,0 -1,1 -4,0 -1,1 -5,0 -1,1 -7,0 -1,-1 -1,-1 0,3 -1,1 -4,0 -1,1 -3,0 -1,1 -5,0 -1,1 -4,0 -1,1 -4,0 -1,1 -8,0 -1,-1 0,-1 -1,-1 0,-2 -1,-1 0,-1 -1,-1 -1,-1 0,-2 1,-1 -1,-1 0,-1 -2,0 -1,-1 0,-1 -1,-1 -1,-1 0,-1 -1,-1 0,-1 -1,-1 0,-1 -1,-1 0,-2 1,-1 -2,0 -1,-1 0,-1 -1,-1 -1,-1 0,-1 -1,-1 0,-1 -1,-1 0,-2 1,-1 -2,0 -1,-1 0,-1 -1,-1 -1,-1 0,-1 -1,-1 0,-1 -1,-1 0,-1 -1,-1 0,-2 1,-1 -2,0 -1,-1 0,-1 -1,-1 -1,-1 0,-1 -1,-1 -1,-1 1,2 0,2 -1,1 -1,1 -3,0 -1,1 1,0 4,-1 1,1 2,0 1,1 0,1 1,1 1,1 0,1 1,1 0,1 1,1 0,1 1,1 0,1 1,1 0,1 1,1 0,1 1,1 1,1 0,1 1,1 0,1 1,1 0,1 1,1 0,1 1,1 0,1 1,1 1,1 0,1 1,1 0,1 1,1 0,1 1,1 0,1 1,1 0,1 1,1 0,1 1,1 1,1 0,2 1,1 0,1 1,1 1,1 0,5 -1,1 -3,0 -1,1 -3,0 -1,1 -5,0 -1,1 -4,0 -1,1 -3,0 -1,1 -4,0 -1,1 -2,0 -1,1 -2,0 0,2 1,-1 1,0 1,-1 3,0 1,-1 3,0 1,-1 2,0 2,2 0,1 1,1 0,2 1,1 0,4 1,1 0,-5 1,-1 -2,0 -1,-3 0,-2 1,-1 1,-1 3,0 1,-1 4,0 1,-1 3,0 1,-1 5,0 1,-1 4,0 1,-1 4,0 1,-1 5,0 1,-1 4,0 1,-1 6,0 1,1 1,1 0,3 -1,1 -1,0 -1,1 1,0 1,1 0,0 1,1 0,1 1,1 0,6 -1,1 1,0 1,1 0,2 -2,2 2,0 1,1 1,1 0,2 1,1 0,3 1,1 0,3 -2,2Z"/>
<path onmouseover="hoverPath(evt)" onmouseout="recoverPath(evt)" fill="rgb(221,201,201)" d="M  109,31l -1,0 -1,1 -4,0 -1,1 -4,0 -1,1 -4,0 -1,1 -4,0 -1,1 -3,0 -1,1 -2,0 -1,1 -3,0 -1,1 -2,0 -1,1 -3,0 -1,-1 0,4 1,1 0,0 1,-1 1,0 1,-1 2,0 1,1 1,0 0,-1 1,-1 1,-1 6,0 1,-1 2,0 1,1 1,0 0,-1 1,-1 0,-2 18,-5 -16,4 3,0 2,-1 1,0 1,1 0,1 1,0 1,1 1,0 1,-1 0,-1 1,-1 1,0 0,-1 -13,2 16,-4 2,0 1,1 0,1 1,1 1,-1 1,0 1,-1 1,0 1,-1 -1,-1 -4,0 -1,1Z"/>
</svg>