<svg width="256" height="256" xmlns="http://www.w3.org/2000/svg"><script> 
var tempColor;
function hoverPath(evt){
obj = evt.target;
tempColor = obj.getAttribute("fill");
obj.setAttribute("fill","red");
//alert(tempColor);
//obj.setAttribute("stroke","red");}
function recoverPath(evt){
obj = evt.target;
obj.setAttribute("fill", tempColor);
//obj.setAttribute("stroke", tempColor);
}</script><path onmouseover="hoverPath(evt)" onmouseout="recoverPath(evt)" fill="rgb(189,212,187)" d="M  21,150l 0,0 -1,1 -1,1 0,1 -1,1 -1,0 0,5 -1,1 -1,0 -1,1 -3,0 -1,-1 -1,0 -1,1 -1,0 2,1 1,0 1,1 2,0 1,1 1,0 1,1 1,0 1,1 1,0 1,-1 0,0 1,-1 3,0 1,1 2,0 1,1 3,0 1,1 1,-1 2,0 1,1 1,0 1,-1 2,0 0,-4 1,-1 0,-4 1,-1 2,0 0,-1 1,-1 0,-1 1,-1 0,-3 1,-1 -1,0 -1,-1 0,-4 -1,-1 0,-3 1,-1 0,-2 -1,0 -1,1 -1,0 -1,1 -4,0 -1,-1 -1,-1 0,-2 -1,1 -2,0 -1,1 -1,0 -1,1 -2,0 0,2 -1,1 0,4 -1,1 0,1 -1,1 0,1 -2,2Z"/>
<path onmouseover="hoverPath(evt)" onmouseout="recoverPath(evt)" fill="rgb(187,214,143)" d="M  6,145l -1,1 0,1 -1,1 0,1 -1,1 0,1 -1,1 0,0 1,1 0,1 1,1 1,1 1,0 1,1 0,2 1,-1 3,0 1,1 1,0 1,-1 1,0 0,-5 1,-1 1,0 0,-1 1,-1 1,-1 1,-1 1,0 1,-1 0,-1 1,-1 0,-1 1,-1 0,-3 -1,-1 0,-1 -2,0 -1,1 -4,0 -1,1 -4,0 -1,1 -1,0 0,1 -1,1 -1,1 -1,1Z"/>
<path onmouseover="hoverPath(evt)" onmouseout="recoverPath(evt)" fill="rgb(243,241,232)" d="M  112,88l 0,0 -1,1 0,2 1,1 0,1 4,0 1,1 1,0 1,1 0,3 1,1 0,6 1,1 0,3 2,0 1,1 0,1 1,1 0,1 1,0 1,-1 1,0 1,-1 2,0 1,-1 1,0 1,-1 1,0 1,-1 2,0 1,-1 1,0 1,-1 1,0 1,-1 2,0 1,-1 3,0 0,-3 -1,-1 0,-5 -1,-1 0,-4 -1,-1 0,-5 -1,-1 0,-4 -1,-1 0,-6 1,-1 0,-1 -1,-1 0,-2 -1,0 -1,-1 0,-5 -1,1 -9,0 -1,-1 -1,-1 0,-1 -1,0 0,4 -1,1 -1,1 -1,0 -1,1 -5,0 -1,1 -2,0 -1,1 -2,0 1,1 0,4 -1,1 -2,0 -1,-1 0,3 -1,1 0,2 1,1 0,2 6,0 1,1 0,2 -1,1 -3,0 -1,1 -1,1Z"/>
<path onmouseover="hoverPath(evt)" onmouseout="recoverPath(evt)" fill="rgb(241,240,232)" d="M  169,121l 0,0 1,1 0,1 1,1 0,1 1,1 0,1 1,1 0,1 1,1 0,1 1,1 0,1 1,1 0,1 1,1 0,1 1,1 0,2 1,1 0,2 1,1 0,4 1,1 0,5 1,1 0,6 1,1 0,6 1,1 0,6 1,1 0,4 1,1 0,2 11,0 0,-3 1,-1 0,-3 -2,0 -1,-1 -6,0 -1,-1 0,-2 1,-1 9,0 1,1 1,0 1,1 2,0 1,-1 2,0 1,1 3,0 1,-1 1,-1 0,-2 1,-1 0,-1 1,-1 0,-2 -1,-1 0,-3 1,-1 0,-1 1,-1 0,-3 1,-1 0,-1 1,-1 1,-1 4,0 1,1 5,0 1,1 0,2 3,0 1,1 2,0 1,-1 2,0 1,1 1,1 0,3 1,0 1,1 0,1 1,-1 2,0 1,1 0,4 -1,1 0,1 -1,1 -2,0 0,1 1,1 0,4 -1,1 -1,1 -4,0 0,1 -1,1 0,2 -1,1 0,2 -1,1 0,2 -1,1 0,2 -1,1 0,2 -1,1 0,2 -1,1 0,2 -1,1 0,1 -1,1 0,4 3,0 1,1 4,0 1,1 1,0 1,1 1,0 0,-2 1,-1 3,0 1,1 2,0 1,1 2,0 1,1 2,0 1,1 1,0 0,-88 -4,0 -1,-1 -3,0 -1,1 -2,0 -1,1 -6,0 -1,1 -4,0 -1,1 -11,0 -1,1 0,3 1,1 0,2 -1,1 -3,0 -1,-1 -1,-1 0,-4 1,-1 0,-2 -1,-1 -3,0 -1,-1 -3,0 -1,-1 -3,0 -1,-1 -2,0 -1,-1 -4,0 -1,-1 -3,0 -1,-1 -2,0 -1,-1 -2,0 -1,-1 -4,0 -1,-1 -4,0 -1,-1 -4,0 -1,-1 -3,0 -1,-1 -1,0 0,1 1,1 0,0 1,1 0,2 4,0 1,1 0,2 -1,1 -1,0 0,2 74,55 1,-1 2,0 1,1 1,0 1,1 0,2 -1,1 -2,0 -1,-1 -1,0 -1,-1 0,-2 -74,-55Z"/>
<path onmouseover="hoverPath(evt)" onmouseout="recoverPath(evt)" fill="rgb(174,200,237)" d="M  182,25l 0,0 1,1 2,0 1,1 3,0 1,1 1,0 1,1 0,-1 1,1 -1,1 0,0 1,1 0,1 1,1 0,2 1,1 0,1 1,1 0,1 1,1 0,1 1,1 1,1 0,1 1,1 1,1 0,1 1,1 2,2 1,1 1,1 1,1 1,0 1,1 1,1 1,0 1,1 1,0 1,1 1,0 1,1 1,1 1,0 1,1 1,0 1,1 1,0 1,1 2,0 1,1 1,0 1,1 1,1 1,0 1,1 1,1 0,1 1,1 1,1 0,1 1,1 0,1 1,0 1,-1 0,-1 -1,-1 0,0 -1,-1 0,-1 -1,-1 0,-1 -1,-1 -1,-1 -1,-1 -1,-1 -2,0 -1,-1 -1,0 -1,-1 -1,0 -1,-1 -1,0 -1,-1 -1,0 -1,-1 -1,0 -1,-1 -1,0 -1,-1 -1,0 -1,-1 -1,0 -1,-1 -1,-1 -1,-1 -1,0 -1,-1 -2,-2 -1,-1 0,-1 -1,-1 -1,-1 0,-1 -1,-1 0,-1 -1,-1 -1,-1 0,-1 -1,-1 0,-1 -2,-2 -1,-1 0,-1 -1,-1 -1,-1 1,2 -12,-7 8,2 -1,-1 -1,0 -1,-1 -3,0 -1,-1 -2,0 -1,-1 -2,0 -1,-1 -1,0 -1,-1 0,-1 -1,-1 -1,-1 0,-3 1,-1 0,-1 -1,-1 -3,0 -1,-1 0,-2 -1,0 -1,-1 -2,0 0,1 1,1 0,1 1,1 1,1 0,1 1,1 0,1 2,2 0,1 1,1 1,1 1,1 1,1 1,0 1,1 1,0 1,1 2,0 -4,-2 -2,-1 15,5 -8,-2 -7,-11 0,0 7,11Z"/>
<path onmouseover="hoverPath(evt)" onmouseout="recoverPath(evt)" fill="rgb(249,237,139)" d="M  233,0l -1,0 0,17 1,1 0,4 1,1 0,8 -1,1 0,1 1,1 0,3 1,1 0,1 1,1 0,1 1,1 0,1 1,1 0,1 1,1 0,1 1,1 1,1 0,1 1,1 0,1 1,1 1,1 0,1 1,1 0,1 1,1 0,1 1,1 1,1 0,1 1,1 0,1 1,1 2,0 1,1 0,2 1,1 0,1 1,0 0,-16 -2,0 -1,-1 -1,-1 0,-1 -1,-1 0,-1 -1,-1 -1,-1 0,-1 -1,-1 0,-1 -1,-1 0,-1 -1,-1 0,-1 -1,0 -1,-1 -1,-1 0,-2 1,-1 0,-1 -1,-1 0,0 -1,-1 0,-2 -1,-1 0,-5 -1,-1 0,-5 1,-1 1,0 0,-17Z"/>
<path onmouseover="hoverPath(evt)" onmouseout="recoverPath(evt)" fill="rgb(251,251,249)" d="M  0,242l 0,1 3,0 1,1 1,0 1,1 2,0 1,1 1,0 1,1 2,0 1,1 2,0 1,1 1,0 1,1 2,0 1,1 2,0 1,1 1,0 1,1 0,2 9,0 0,-4 1,-1 0,-2 1,-1 2,0 -1,-1 0,-3 1,-1 2,0 -1,-1 0,-2 1,-1 0,-2 1,-1 0,-1 1,-1 0,-2 1,-1 0,-5 1,-1 0,-5 1,-1 0,-6 1,-1 0,-4 1,-1 0,-6 1,-1 0,-4 1,-1 0,-7 1,-1 0,-2 1,-1 8,0 1,1 6,0 1,1 5,0 1,1 4,0 1,1 3,0 1,1 0,5 -1,1 0,3 -1,1 0,3 -1,1 0,4 -1,1 0,3 -1,1 0,3 -1,1 0,4 -1,1 0,3 -1,1 0,3 -1,1 0,4 -1,1 0,4 -1,1 0,6 -1,1 0,4 -1,1 0,3 -1,1 0,1 2,0 0,-5 1,-1 0,-3 1,-1 0,-6 1,-1 0,-5 1,-1 0,-3 1,-1 0,-4 1,-1 0,-3 1,-1 0,-4 1,-1 0,-2 1,-1 0,-4 1,-1 0,-3 1,-1 0,-3 1,-1 0,-4 1,-1 0,-3 1,-1 2,0 0,-1 -1,-1 0,-3 1,-1 6,0 0,-1 -5,0 -1,-1 0,-4 -1,0 0,3 -1,1 0,2 -1,1 -1,1 -9,0 -1,-1 -5,0 -1,-1 -5,0 -1,-1 -5,0 -1,-1 -3,0 -1,-1 -4,0 -1,-1 -2,0 -1,-1 -1,0 -1,-1 -3,0 -1,-1 -2,0 -1,-1 -1,0 -1,-1 -2,0 -1,-1 -1,0 -1,-1 -1,0 -1,-1 -2,0 -1,-1 -1,0 -1,-1 -1,0 -1,-1 -2,0 -1,-1 -1,0 -1,-1 -1,0 -1,-1 -2,0 -1,-1 -1,0 -1,-1 -1,0 -1,-1 0,-4 -1,0 -1,-1 -1,-1 -1,-1 0,-1 -1,0 0,8 2,0 1,1 0,2 1,-1 2,0 1,1 2,0 1,1 1,0 1,1 1,0 1,1 1,0 1,1 2,0 1,1 1,0 1,1 1,1 0,4 1,1 1,1 1,0 1,1 1,1 1,0 1,1 0,1 2,2 0,3 -1,1 0,1 1,1 0,-7 1,-1 1,0 1,-1 2,0 1,1 4,0 1,1 0,1 1,1 0,1 1,1 0,4 1,1 0,3 1,1 0,4 1,1 0,10 -1,1 0,5 -1,1 0,6 -1,1 0,4 -1,1 0,2 -1,1 -2,0 1,1 0,3 -1,1 -2,0 1,1 0,3 -1,1 -2,0 1,1 0,2 -1,1 0,2 -1,1 0,2 -1,1 -4,0 -1,-1 0,-2 -1,1 -3,0 -1,-1 0,-2 -1,1 -3,0 -1,-1 -1,0 -1,-1 0,-4 1,-1 -2,3 -6,0 -1,-1 -1,0 -1,-1 -2,0 -1,-1 -2,0 -1,-1 -1,1 88,-66 1,0 0,-3 1,-1 0,-4 1,-1 0,-3 1,-1 0,-3 1,-1 0,-5 1,-1 0,-3 1,-1 0,-4 1,-1 0,-3 1,-1 0,-3 1,-1 0,-4 1,-1 0,-3 1,-1 0,-3 1,-1 0,-4 1,-1 0,-3 1,-1 2,0 -1,-1 0,-2 1,-1 2,-2 1,0 0,-7 -1,4 0,1 -1,1 -1,1 -1,1 0,1 -1,1 -1,1 -1,1 0,3 -1,1 0,4 -1,1 0,3 -1,1 0,5 -1,1 0,3 -1,1 0,4 -1,1 0,3 -1,1 0,3 -1,1 0,3 -1,1 0,4 -1,1 0,5 -1,1 0,3 -1,1 0,3 -1,1 0,4 -88,66Z"/>
<path onmouseover="hoverPath(evt)" onmouseout="recoverPath(evt)" fill="rgb(249,239,147)" d="M  3,18l 0,0 -1,1 -2,0 0,13 3,0 1,1 3,0 1,-1 1,0 1,-1 9,0 1,1 0,2 1,-1 12,0 1,1 6,0 1,1 0,-1 1,-1 4,0 1,1 5,0 1,-1 7,0 1,-1 7,0 0,-2 1,-1 4,0 1,1 0,11 1,-10 0,0 1,-1 0,-1 1,-1 1,0 0,-1 1,-1 1,-1 5,0 0,-2 1,-1 1,0 1,-1 3,0 1,-1 1,0 1,-1 1,0 1,-1 3,0 1,1 1,0 0,-3 1,-1 1,0 1,-1 1,0 1,-1 1,0 0,-1 1,-1 1,0 0,-1 1,-1 1,-1 1,-1 1,-1 1,-1 1,0 0,-1 1,-1 3,0 -1,-1 0,-2 -1,0 0,2 -2,1 -1,1 -2,0 -1,-1 -1,1 -1,0 -1,1 -1,0 -1,1 -2,0 -1,1 -1,0 -1,1 -1,0 -1,1 -1,0 -1,1 -1,0 -1,1 -3,0 -1,-1 0,-1 -2,0 -1,-1 0,-8 -2,0 0,2 1,1 0,6 1,1 0,6 -1,1 -1,0 -1,1 -3,0 -1,-1 -1,1 -2,0 -1,1 -3,0 -1,1 -4,0 -1,1 -5,0 -1,1 -3,0 0,1 -1,1 -3,0 -1,-1 -3,0 0,2 -1,1 -13,0 -1,-1 -4,0 -1,-1 -2,0 -1,-1 -3,0 -1,-1 -7,0 -1,-1 -4,0 -1,-1 -4,0 -1,-1 0,-2 -1,1Z"/>
<path onmouseover="hoverPath(evt)" onmouseout="recoverPath(evt)" fill="rgb(241,240,229)" d="M  33,186l 0,10 -1,1 -2,0 0,4 1,1 0,7 1,1 0,3 -1,1 -2,0 0,3 -1,1 0,6 1,1 0,3 -1,1 -1,1 0,1 -1,1 0,1 -1,1 -2,0 -1,1 -1,1 0,1 -1,1 1,1 0,2 -1,1 0,1 -1,1 0,2 1,0 1,1 1,0 1,-1 2,0 1,1 0,2 1,0 1,-1 2,0 1,1 0,2 2,0 0,-2 1,-1 0,-2 1,-1 -1,-1 0,-2 1,-1 2,0 0,-1 -1,-1 0,-2 1,-1 2,0 0,-1 -1,-1 0,-2 1,-1 2,0 0,-2 1,-1 0,-4 1,-1 0,-6 1,-1 0,-5 1,-1 0,-8 -1,-1 0,-4 -1,-1 0,-3 -1,-1 0,-4 -1,-1 0,-1 -1,-1 0,-1 -4,0 -1,-1 -1,1 -1,0Z"/>
<path onmouseover="hoverPath(evt)" onmouseout="recoverPath(evt)" fill="rgb(189,213,150)" d="M  43,106l 0,2 1,1 0,2 -1,1 0,4 1,0 1,1 7,0 1,-1 0,0 1,-1 1,0 1,-1 1,0 1,-1 1,0 0,-2 1,-1 -1,-1 0,-1 -1,-1 -1,-1 -1,-1 -1,0 -1,-1 0,-3 1,-1 2,0 2,-2 1,-1 1,0 1,-1 1,-1 0,-1 1,-1 1,-1 1,0 0,-4 -1,-1 0,0 -1,-1 0,-1 -1,-1 -2,0 -1,-1 0,-3 -1,0 -1,-1 0,-3 1,-1 1,0 1,-1 0,-1 1,-1 -1,-1 -1,0 -1,-1 -1,-1 -2,0 -1,-1 -1,1 0,0 -1,1 -5,0 -1,1 -1,1 0,2 -1,1 0,2 -1,1 -6,0 -1,-1 -3,0 -1,1 -1,0 0,1 -1,1 0,2 -1,1 0,4 1,-2 1,-1 2,0 1,-1 8,0 1,1 0,1 1,1 0,3 -1,1 0,10 1,0 1,1 2,0 1,1 0,2 -1,1 -4,0 -1,1Z"/>
<path onmouseover="hoverPath(evt)" onmouseout="recoverPath(evt)" fill="rgb(246,236,147)" d="M  132,18l 0,0 -1,1 0,1 1,1 0,2 -1,1 -2,0 0,1 -1,1 0,3 1,1 0,1 1,1 0,2 1,-2 4,0 1,1 1,1 0,2 1,1 0,2 1,1 0,2 1,1 0,2 1,1 0,3 1,1 0,4 1,0 1,1 0,2 1,1 0,2 -1,1 0,4 1,0 1,1 0,2 1,1 0,3 -1,1 0,4 1,1 0,4 1,1 0,5 1,1 0,4 1,1 0,5 1,1 0,4 1,0 1,1 0,2 1,1 0,1 1,1 1,1 0,1 1,1 0,1 1,1 0,1 1,1 0,1 1,1 0,1 1,1 0,2 1,0 1,1 0,2 -1,1 0,1 1,1 1,0 1,1 1,1 0,1 1,1 0,1 1,1 0,6 -1,1 3,0 1,1 0,1 1,1 0,3 1,1 0,5 1,1 0,6 1,1 0,6 1,1 0,6 1,1 0,8 -1,1 -1,0 -1,1 -3,0 6,-1 1,1 0,2 1,1 0,3 1,1 0,3 1,0 1,1 0,6 -2,2 1,1 0,0 1,1 3,0 1,1 0,2 -1,1 -1,0 0,2 1,0 1,1 0,2 3,0 1,1 0,1 1,1 0,1 1,1 0,1 1,1 0,1 1,1 0,1 1,1 0,1 1,1 1,1 1,1 0,2 2,0 1,1 0,3 -1,1 1,1 0,0 1,1 0,2 1,1 0,1 1,1 1,1 0,5 -1,1 -1,0 3,-1 1,0 1,1 0,3 8,0 0,-2 1,-1 0,-1 -1,-1 0,-2 -1,-1 0,-1 -1,-1 -1,0 -1,-1 0,-2 1,-1 1,-1 1,0 1,-1 1,0 -4,1 -1,0 -1,-1 -1,-1 0,-1 -1,-1 -1,-1 0,-3 -1,0 -1,-1 0,-2 -2,0 -1,-1 -1,-1 -1,-1 0,-1 -1,-1 0,-1 -1,-1 0,-1 -1,-1 -1,-1 0,-1 -1,-1 -1,-1 0,-1 -1,-1 0,-1 -1,-1 0,-1 -1,0 -1,-1 -1,-1 -1,-1 0,-5 -1,-1 0,-1 -1,-1 0,-3 -1,-1 0,-2 -1,-1 0,-4 -1,0 -1,-1 0,-2 1,-1 9,0 1,1 5,0 0,-5 -1,4 -4,0 -10,-1 0,-2 -1,-1 0,-4 -1,-1 0,-6 -1,-1 0,-6 -1,-1 0,-6 -1,-1 0,-5 -1,-1 0,-4 -1,-1 0,-2 -1,-1 0,-2 -1,-1 0,-1 -1,-1 0,-1 -1,-1 0,-1 -1,-1 0,-1 -1,-1 0,-1 -1,-1 0,-1 -1,-1 0,-1 -1,-1 0,-1 -1,-1 0,-4 1,-1 -3,0 -1,-1 0,-2 -1,-1 -1,-1 0,-2 -1,0 -1,-1 -1,-1 -1,-1 0,-3 -1,-1 0,-2 -1,-1 0,-5 -1,-1 0,-4 -1,-1 0,-4 -1,-1 0,-5 1,-1 -1,0 -1,-1 0,-4 -1,-1 0,-6 -1,-1 0,-7 1,-1 -1,0 -1,-1 0,-1 -1,-1 0,-3 -1,-1 0,-3 -1,-1 0,-3 1,-1 0,-1 -1,-1 -1,0 -1,-1 0,-2 -1,-1 0,-1 -1,-1 0,-2 -1,-1 0,-1 -1,-1 0,-1 -1,-1 0,-1 -1,-1 0,-1 -1,-1 0,-1 -1,-1 0,-2 1,-1 2,0 1,-1 -2,0 -2,1 -4,0 54,199 -2,0 -1,1 -2,0 5,-1 -54,-199Z"/>
<path onmouseover="hoverPath(evt)" onmouseout="recoverPath(evt)" fill="rgb(240,240,228)" d="M  134,34l -2,0 0,1 -1,1 -4,0 0,4 -1,1 4,0 1,1 0,5 1,0 1,1 0,4 1,1 0,3 1,1 3,0 1,-1 3,0 -2,-1 0,-4 -1,-1 0,-3 -1,-1 0,-2 -1,-1 0,-2 -1,-1 0,-2 -1,-1 0,-2 -1,-1 -8,2 0,-1 -1,-1 1,2 8,-2Z"/>
<path onmouseover="hoverPath(evt)" onmouseout="recoverPath(evt)" fill="rgb(243,241,233)" d="M  155,82l 0,1 1,1 0,4 1,1 0,4 1,1 0,5 1,1 0,2 1,1 0,1 4,0 1,1 3,0 1,1 3,0 1,1 4,0 1,1 3,0 1,1 4,0 1,1 3,0 1,1 3,0 0,-5 1,-1 0,-8 -1,-1 0,-1 -1,-1 0,-2 1,-1 2,0 1,1 1,1 1,1 0,14 -1,1 0,3 1,1 2,0 1,1 3,0 1,1 2,0 1,1 4,0 1,1 4,0 1,1 6,0 1,1 3,0 1,-1 3,0 1,-1 4,0 0,-2 1,-1 0,-1 1,-1 0,-1 1,-1 0,-1 1,-1 0,-1 1,-1 1,-1 0,-1 1,-1 0,-2 1,-1 0,-4 -1,-1 0,-2 -1,-1 -1,-1 0,-1 -1,-1 0,-1 -1,-1 0,1 -1,1 0,1 -1,1 -1,0 -1,1 -1,0 -1,1 -4,0 -1,-1 -1,0 -1,-1 0,-1 -1,-1 -1,-1 -1,-1 -1,0 -1,-1 -1,0 -1,-1 0,-2 1,-1 1,0 0,-2 -1,-1 0,0 -1,-1 0,-2 1,-1 2,0 1,1 1,1 1,0 1,-1 2,0 1,-1 1,0 1,-1 0,-1 -1,-1 0,-1 -1,-1 -1,-1 0,-1 -1,-1 -1,0 -1,-1 -1,-1 -1,0 -1,-1 -2,0 -1,-1 -1,0 -1,-1 -1,0 -1,-1 -1,0 -1,-1 -1,-1 -1,0 -1,-1 -1,0 -1,-1 -1,0 -1,-1 -1,-1 -1,0 -1,-1 -1,-1 -1,-1 -3,-3 -1,-1 0,-1 -1,-1 -1,-1 0,-1 -1,-1 -1,-1 0,-1 -1,-1 0,-1 -1,-1 0,-1 -1,0 -1,1 -3,0 -1,-1 -1,1 -1,0 -1,1 -1,0 -1,1 0,1 -1,1 0,1 -1,1 -1,0 0,4 1,0 1,1 0,2 -1,1 -4,0 -1,1 -4,0 0,2 -1,1 -4,0 -1,1 -6,0 -1,-1 0,-6 -1,-1 0,-5 -2,0 -1,-1 0,-2 -2,0 -1,-1 -1,1 -1,0 0,2 -1,1 0,1 1,1 0,3 1,1 0,3 1,1 0,1 3,0 1,1 0,2 -1,1 -2,0 0,5 1,1 0,6 1,1 0,4 4,0 1,-1 13,0 1,-1 1,0 1,-1 0,-1 1,-1 1,0 1,-1 9,0 1,1 1,1 0,1 1,1 0,9 -1,1 -2,0 -1,1 -9,0 -1,-1 -1,-1 -1,-1 0,-3 -12,0 -1,1 -6,0Z"/>
<path onmouseover="hoverPath(evt)" onmouseout="recoverPath(evt)" fill="rgb(242,240,230)" d="M  204,176l 0,0 -1,-1 -3,0 -1,-1 -1,0 -1,-1 -7,0 7,1 0,0 3,2 0,3 1,1 0,7 -1,1 -7,0 -1,-1 -7,0 2,1 0,4 1,1 0,2 1,1 0,3 1,1 0,1 1,1 0,2 8,0 1,-1 23,0 0,-1 1,-1 0,-1 1,-1 0,-3 -10,0 -1,-1 0,-2 1,-1 8,0 1,-1 1,0 0,-2 1,-1 0,-1 1,-1 0,-3 1,-1 0,-2 1,-1 0,-2 1,-1 0,-2 1,-1 0,-3 1,-1 0,-1 1,-1 0,-3 1,-1 0,-2 1,-1 0,-3 -3,0 -1,-1 -3,0 -1,-1 0,-2 -5,0 -1,-1 -2,0 -1,1 0,1 -1,1 0,3 -1,1 0,1 -1,1 0,1 1,1 0,4 -1,1 0,1 -1,1 0,2 -2,2 -1,1 -4,0 -1,1Z"/>
<path onmouseover="hoverPath(evt)" onmouseout="recoverPath(evt)" fill="rgb(249,249,244)" d="M  0,35l 0,30 1,0 0,-1 1,-1 0,-1 1,-1 0,-1 1,-1 0,-1 1,-1 0,-1 1,-1 0,-1 1,-1 0,-1 1,-1 0,-1 1,-1 0,-1 1,-1 0,-1 1,-1 0,-1 1,-1 3,0 1,1 1,0 1,1 0,2 1,-1 2,0 1,1 1,1 1,0 1,1 1,0 1,1 1,0 1,1 1,1 0,2 1,-1 2,0 1,1 1,1 0,3 -1,1 -1,1 0,1 -1,1 0,1 -1,1 0,1 -1,1 0,1 -1,1 0,1 -1,1 0,1 -1,1 0,1 -1,1 -1,1 0,1 -1,1 0,1 -1,1 0,1 1,0 1,-1 0,-1 1,-1 2,0 -1,-1 0,-2 1,-1 0,-1 1,-1 1,-1 0,-1 1,-1 0,-1 1,-1 0,-1 1,-1 0,-1 1,-1 0,-1 1,-1 0,-1 1,-1 1,-1 0,-1 1,-1 0,-2 1,-1 0,-2 1,-1 0,-2 1,-1 0,-2 1,-1 0,-2 1,-1 0,-1 1,-1 0,-2 1,-1 -2,0 0,2 -1,1 0,2 -1,1 0,2 -1,1 0,1 -1,1 0,2 -1,1 0,2 -1,1 -4,0 -1,-1 -1,0 -1,-1 -1,0 -1,-1 -1,0 -1,-1 -1,-1 0,-2 -1,1 -2,0 -1,-1 -1,0 -1,-1 -1,-1 -1,0 -1,-1 -1,-1 0,-3 1,-1 0,-1 1,-1 1,-1 0,-1 -7,0 -1,1 -1,0 -1,1 -5,0 -1,-1 -1,0 -1,1Z"/>
<path onmouseover="hoverPath(evt)" onmouseout="recoverPath(evt)" fill="rgb(241,240,229)" d="M  22,35l 0,0 -1,1 -2,0 -1,1 0,1 -1,1 0,1 1,1 1,0 1,1 1,1 1,0 1,1 1,-1 2,0 1,1 0,2 1,1 1,0 1,1 1,0 1,1 1,0 1,1 2,0 0,-2 1,-1 0,-2 1,-1 0,-1 1,-1 0,-2 1,-1 0,-1 -1,-1 0,-1 -6,0 -1,-1Z"/>
<path onmouseover="hoverPath(evt)" onmouseout="recoverPath(evt)" fill="rgb(242,242,232)" d="M  54,187l 0,0 -1,1 0,7 -1,1 0,4 -1,1 0,6 -1,1 0,4 -1,1 0,6 -1,1 0,5 -1,1 0,5 -1,1 0,2 -1,1 0,1 -1,1 0,2 -1,1 1,1 0,2 -1,1 -2,0 0,1 1,1 0,2 -1,1 -2,0 0,2 -1,1 0,3 30,0 0,-2 1,-1 0,-3 1,-1 0,-4 1,-1 0,-6 1,-1 0,-4 1,-1 0,-4 1,-1 0,-3 1,-1 0,-3 1,-1 0,-4 1,-1 0,-3 1,-1 0,-3 1,-1 0,-4 1,-1 0,-3 1,-1 0,-3 1,-1 0,-3 -3,0 -1,-1 -4,0 -1,-1 -5,0 -1,-1 -6,0 -1,-1 -6,0Z"/>
<path onmouseover="hoverPath(evt)" onmouseout="recoverPath(evt)" fill="rgb(147,201,245)" d="M  71,99l 0,2 -1,1 -1,0 0,2 -1,1 -1,0 0,1 1,1 0,1 2,0 0,-2 1,-1 1,0 0,-2 1,-1 1,0 0,-2 1,-1 3,0 0,-4 1,-1 1,-1 0,-1 1,-1 0,-1 1,-1 0,-2 -4,0 0,2 -1,1 0,1 -2,2 0,2 -1,1 -2,0 0,2 -1,1Z"/>
<path onmouseover="hoverPath(evt)" onmouseout="recoverPath(evt)" fill="rgb(243,241,231)" d="M  90,3l 0,4 2,0 1,1 0,1 1,0 1,-1 1,0 1,-1 1,0 1,-1 1,0 1,-1 1,0 1,-1 2,0 1,-1 1,0 1,-1 1,0 1,-1 2,0 1,1 1,-1 1,0 0,-1 -25,0Z"/>
<path onmouseover="hoverPath(evt)" onmouseout="recoverPath(evt)" fill="rgb(242,241,231)" d="M  90,187l 0,3 -1,1 -2,0 0,3 -1,1 0,4 -1,1 0,3 -1,1 0,3 -1,1 0,4 -1,1 0,2 -1,1 0,4 -1,1 0,3 -1,1 0,4 -1,1 0,3 -1,1 0,5 -1,1 0,6 -1,1 0,3 -1,1 0,4 26,0 0,-4 -1,-1 0,-20 1,-1 0,-7 1,-1 0,-3 1,-1 0,-7 1,-1 0,-5 1,-1 0,-7 1,-1 0,-6 1,-1 0,-3 -1,-1 -9,0 -1,1 -6,0 0,1 1,1Z"/>
<path onmouseover="hoverPath(evt)" onmouseout="recoverPath(evt)" fill="rgb(242,240,230)" d="M  173,250l -1,0 0,2 1,1 0,2 33,0 0,-2 -1,1 -3,0 -1,-1 0,-2 1,-1 1,0 0,-3 -1,-1 0,0 -1,-1 0,-1 -1,-1 0,-2 -1,-1 -1,-1 -1,0 -1,1 -1,0 -1,1 -1,0 -1,1 -2,0 -1,1 -1,0 -1,1 -2,0 -1,1 -1,0 -1,1 -1,0 -1,1 -2,0 -1,1 -1,0 -1,1 -1,0 -1,1Z"/>
<path onmouseover="hoverPath(evt)" onmouseout="recoverPath(evt)" fill="rgb(240,238,226)" d="M  191,224l 0,0 -1,-1 0,-1 -1,-1 0,-1 -1,-1 0,-1 -1,1 -2,0 -1,1 -4,0 -1,-1 0,-2 1,-1 2,0 1,-1 1,0 -2,-1 0,-2 -2,0 -1,1 -2,0 -1,1 -9,0 -1,-1 0,-4 1,-1 1,-1 0,-2 -1,0 -1,-1 -2,0 -1,-1 -1,-1 0,-5 1,-1 1,-1 3,0 1,1 10,0 0,-2 -1,-1 0,-3 -1,-1 0,-2 -1,1 -5,0 -1,-1 -2,0 -1,1 -4,0 -1,1 -3,0 -1,1 -3,0 0,2 -1,1 -3,0 -1,1 -1,0 0,3 1,1 0,1 1,1 0,1 1,1 0,2 1,1 0,1 1,1 0,2 1,1 0,1 1,1 0,2 1,1 0,1 1,1 0,1 1,1 0,1 1,1 0,1 4,0 1,-1 1,0 1,-1 4,0 1,1 0,2 -1,1 0,4 -1,1 -2,0 -1,-1 -1,-1 0,-1 -2,0 -1,1 -1,0 0,1 1,1 0,1 1,1 0,1 1,1 0,2 1,1 0,1 1,1 0,1 1,1 0,1 1,1 0,2 1,1 1,0 1,-1 1,0 1,-1 2,0 1,-1 1,0 1,-1 1,0 1,-1 2,0 1,-1 1,0 1,-1 1,0 1,-1 2,0 1,-1 1,0 1,-1 2,0 1,-1 1,0 0,-2 -1,-1 0,0 -1,-1 -1,-1 0,-1 -1,-1 0,-1 -1,-1Z"/>
<path onmouseover="hoverPath(evt)" onmouseout="recoverPath(evt)" fill="rgb(242,241,231)" d="M  216,242l -1,0 -1,1 1,0 1,1 0,0 1,1 0,1 1,1 0,2 1,1 0,3 -1,1 0,1 17,0 0,-3 -1,-1 0,-2 1,-1 0,-1 1,-1 0,-2 1,-1 0,-1 1,-1 1,-1 1,-1 1,0 1,-1 4,0 1,1 2,0 1,1 2,0 1,-1 2,0 0,-23 -5,0 -1,-1 -3,0 -1,-1 -3,0 -1,-1 -3,0 -1,-1 -3,0 -1,-1 -3,0 -1,-1 -15,0 -1,1 0,2 -1,1 -2,0 -1,-1 0,-3 -14,0 0,1 1,1 0,1 1,1 0,1 1,1 1,1 0,1 1,1 1,1 0,1 1,1 0,1 1,1 0,1 1,1 1,1 2,0 1,1 0,2 1,0 1,1 0,3 1,1 1,1 0,1 1,1 1,0 1,-1 3,0 1,1 0,2 -1,1 -1,0 -1,1Z"/>
<path onmouseover="hoverPath(evt)" onmouseout="recoverPath(evt)" fill="rgb(236,238,224)" d="M  49,36l -2,0 -1,1 0,2 -1,1 0,1 -1,1 0,2 -1,1 0,2 -1,1 0,2 -1,1 0,2 -1,1 0,2 -1,1 0,1 -1,1 -1,1 0,1 -1,1 0,1 -1,1 0,1 -1,1 0,1 -1,1 0,1 -1,1 0,1 -2,2 0,1 -1,1 1,1 0,2 1,-2 1,0 1,-1 5,0 1,1 4,0 0,-2 1,-1 0,-2 1,-1 1,-1 1,-1 5,0 1,-1 1,-1 2,0 1,1 2,0 1,1 1,1 1,0 1,1 1,1 0,2 1,0 0,-2 1,-1 2,0 0,-1 1,-1 0,-1 1,-1 0,-12 1,-1 0,-2 1,-1 0,-4 1,-1 0,-2 -1,-1 0,-11 -2,0 0,2 -1,1 -7,0 -1,1 -7,0 -1,1 -4,0 14,39 -1,1 -1,1 -1,0 0,1 1,0 1,1 0,-2 1,-1 0,-1 -14,-39Z"/>
<path onmouseover="hoverPath(evt)" onmouseout="recoverPath(evt)" fill="rgb(238,237,222)" d="M  105,252l 0,3 62,0 0,-2 -1,-1 -10,0 -1,-1 -31,0 -1,-1 -17,0 -1,1Z"/>
<path onmouseover="hoverPath(evt)" onmouseout="recoverPath(evt)" fill="rgb(240,239,228)" d="M  111,100l 0,0 -1,1 0,8 -1,1 -1,0 -1,1 -1,1 1,1 0,2 -1,1 -2,0 0,3 -1,1 0,4 -1,1 0,3 -1,1 0,3 -1,1 0,4 -1,1 0,3 -1,1 0,3 -1,1 0,4 -1,1 0,3 -1,1 0,5 -1,1 0,3 -1,1 0,3 -1,1 0,4 -1,1 0,3 -1,1 0,2 1,0 1,1 1,-1 12,0 1,-1 1,0 0,-4 1,-1 0,-6 1,-1 0,-6 1,-1 0,-32 1,-1 0,-2 1,-1 0,-1 2,-2 1,-1 0,-1 1,-1 2,0 1,-1 1,-1 1,0 0,-2 -1,-1 0,-2 -1,-1 0,-3 -1,-1 0,-6 -1,-1 0,-1 -3,0 -1,-1 -1,1 -1,0Z"/>
<path onmouseover="hoverPath(evt)" onmouseout="recoverPath(evt)" fill="rgb(243,242,234)" d="M  122,124l 0,0 -1,1 -3,0 -1,1 -1,1 0,3 -1,1 0,8 1,1 0,16 -1,1 0,5 -1,1 0,6 -1,1 0,6 -1,1 0,8 -1,1 0,6 30,0 1,-1 0,0 1,-1 6,0 1,1 2,0 0,-2 1,-1 3,0 1,-1 3,0 1,-1 4,0 1,-1 3,0 1,-1 3,0 1,-1 1,0 0,-6 -1,-1 0,-6 -1,-1 0,-6 -1,-1 0,-6 -1,-1 0,-5 -1,-1 0,-3 -1,-1 0,-1 -3,0 -1,-1 0,-2 1,-1 0,-4 -1,-1 0,-1 -1,-1 0,-1 -1,-1 -1,0 -1,-1 -1,-1 0,-3 1,-1 -1,0 -1,-1 0,-2 -1,-1 0,-1 -1,-1 0,-1 -1,-1 0,-1 -1,-1 0,-1 -1,-1 0,-1 -1,-1 -1,-1 0,-1 -4,0 -1,1 -1,0 -1,1 -1,0 -1,1 -1,0 -1,1 1,1 0,1 1,1 0,1 1,1 0,1 1,1 0,1 1,1 0,2 -1,1 -2,0 -1,-1 0,-1 -1,-1 0,-1 -1,-1 0,-1 -1,-1 -1,-1 -1,-1 0,-1 -2,0 -1,1 -2,0 -1,1 -1,0 -1,1 -1,0 -1,1 0,2 -1,1 -1,0 -1,1 -1,0 -1,1 24,2 2,0 1,1 0,1 1,1 0,2 -1,1 -2,0 -1,-1 0,-1 -1,-1 0,-2 1,-1 -24,-2 29,11 2,0 1,1 0,2 -1,1 -2,0 -1,-1 0,-2 1,-1 -29,-11Z"/>
<path onmouseover="hoverPath(evt)" onmouseout="recoverPath(evt)" fill="rgb(223,201,187)" d="M  9,5l 0,-1 1,-1 1,-1 2,0 0,-2 -13,0 0,17 1,0 1,-1 2,0 1,-1 2,0 0,-1 1,-1 0,-1 1,-1 0,-1 1,-1 -1,-1Z"/>
<path onmouseover="hoverPath(evt)" onmouseout="recoverPath(evt)" fill="rgb(238,237,229)" d="M  24,110l 0,0 -1,-1 0,-4 -1,-1 0,-1 -1,-1 0,-3 1,-1 5,0 1,-1 2,0 1,-1 4,0 0,-5 -1,-1 -2,0 -1,-1 -2,0 -1,-1 0,-6 1,-1 0,-1 -1,-1 -1,0 0,1 -1,1 -1,1 -1,0 0,1 -1,1 -2,0 0,1 -1,1 -1,0 -1,1 -6,0 -1,1 -3,0 -1,1 -3,0 -1,1 -3,0 0,46 2,0 1,-1 3,0 0,-1 1,-1 1,0 -2,-1 0,-2 1,-1 5,0 1,1 7,0 1,-1 2,0 1,-1 1,0 1,-1 1,-1 1,-1 1,0 0,-1 1,-1 1,-1 1,-1 0,-1 1,-1 0,-2 1,-1 0,-1 1,-1 0,-3 1,-1 0,-6 -2,0 0,5 -1,1Z"/>
<path onmouseover="hoverPath(evt)" onmouseout="recoverPath(evt)" fill="rgb(187,219,242)" d="M  33,123l 0,0 -1,1 -1,1 0,1 -1,1 -1,0 -1,1 -1,1 -1,1 -1,0 -1,1 -2,0 -1,1 -9,0 -1,-1 -3,0 2,1 0,2 -1,1 -1,0 0,1 -1,1 -3,0 -1,1 -3,0 0,12 1,0 0,-1 1,-1 0,-1 1,-1 0,-1 1,-1 0,-1 1,-1 1,0 1,-1 0,-1 1,-1 1,0 1,-1 4,0 1,-1 4,0 1,-1 4,0 1,1 0,-1 1,-1 2,0 1,-1 1,0 1,-1 2,0 1,-1 2,0 1,1 0,2 1,1 2,0 1,-1 1,0 -2,-1 0,-3 1,-1 0,-1 1,-1 2,0 0,-2 1,-1 5,0 1,-1 1,0 0,-2 1,-1 2,0 1,1 1,0 1,1 0,14 1,-6 1,0 0,-1 -1,0 -1,-8 0,-2 -1,-1 0,-3 -1,1 -1,0 -2,2 -9,0 -1,-1 -1,1 -2,0 -1,1 -1,0 -1,1 -3,0 0,1 -1,1Z"/>
<path onmouseover="hoverPath(evt)" onmouseout="recoverPath(evt)" fill="rgb(181,208,157)" d="M  65,77l 0,0 -1,1 0,4 1,1 1,1 0,1 1,1 1,1 0,7 1,-1 2,0 1,1 1,0 0,-2 1,-1 1,-1 0,-1 1,-1 0,-2 1,-1 3,0 0,-1 -1,-1 0,0 -1,-1 0,-2 1,-1 0,-1 1,-1 0,-2 1,-1 0,-2 1,-1 0,-2 1,-1 2,0 1,-1 2,0 0,-1 1,-1 0,-3 -2,0 -1,-1 -1,-1 0,-1 -1,-1 0,-5 1,-1 0,-13 1,-1 0,-6 -1,-1 -2,0 -1,-1 -4,0 0,1 -1,1 -1,1 0,9 -1,1 0,3 -1,1 0,4 -1,1 0,2 -1,1 0,12 -1,1 0,1 -1,1 0,1 -1,1 -2,0 0,2 -1,1 -1,0Z"/>
<path onmouseover="hoverPath(evt)" onmouseout="recoverPath(evt)" fill="rgb(182,210,191)" d="M  77,101l -1,0 0,2 -1,1 -1,0 0,2 -1,1 -1,0 0,2 -1,1 -4,0 -1,-1 0,-1 -1,-1 0,-3 1,-1 1,0 0,-2 1,-1 1,0 0,-2 1,-1 0,-2 -1,1 -2,0 -1,-1 -1,0 0,1 -1,1 -1,1 -1,1 -1,0 -1,1 -1,1 -1,1 -2,0 0,1 1,0 1,1 1,1 1,1 1,1 0,1 1,1 0,2 -1,1 0,2 -1,1 -1,0 0,3 1,1 0,9 6,0 1,-1 6,0 1,-1 0,-3 1,-1 2,0 1,-1 0,-5 1,-1 0,-10 1,-1 0,-4 -1,1Z"/>
<path onmouseover="hoverPath(evt)" onmouseout="recoverPath(evt)" fill="rgb(238,238,224)" d="M  86,173l 0,-2 1,-1 0,-3 1,-1 0,-3 1,-1 0,-4 -1,0 -1,-1 -2,0 0,5 -1,1 0,3 -1,1 0,2 -1,1 0,3 -1,1 -2,2 -1,0 -1,1 -18,0 -1,-1 -1,1 -3,0 0,2 3,0 1,1 5,0 1,1 5,0 1,1 5,0 1,1 7,0 1,-1 0,-2 1,-1 0,-3 1,-1Z"/>
<path onmouseover="hoverPath(evt)" onmouseout="recoverPath(evt)" fill="rgb(232,234,229)" d="M  130,5l 0,1 1,1 1,1 0,1 1,1 0,1 1,1 1,1 0,1 1,1 0,1 1,-1 4,0 1,1 1,0 1,-1 -2,0 -1,-1 0,-1 -2,0 -1,-1 0,-2 1,-1 0,-3 1,-1 3,0 0,-4 1,-1 4,0 1,1 3,0 1,1 3,0 1,1 0,1 1,1 2,0 1,1 0,3 2,0 0,-2 1,-1 4,0 1,1 1,0 1,1 0,2 1,0 0,-1 -1,-2 0,-7 -22,0 -19,5 31,5 -1,0 -1,1 -4,0 -1,-1 -1,0 -1,-1 -1,-1 -1,0 -1,-1 -1,0 3,2 0,2 1,1 4,0 5,-2 -31,-5 13,-5 -11,0 0,2 -1,1 -1,0 0,1 13,-4 -13,5Z"/>
<path onmouseover="hoverPath(evt)" onmouseout="recoverPath(evt)" fill="rgb(242,240,230)" d="M  140,20l -2,0 1,1 0,1 1,1 0,1 1,1 0,1 1,1 0,1 1,1 0,1 1,1 0,2 1,1 0,1 1,1 0,2 1,0 1,1 1,0 1,-1 2,0 1,1 2,0 1,1 0,2 2,0 1,1 0,5 1,1 0,6 4,0 1,-1 4,0 0,-2 1,-1 4,0 1,-1 4,0 -2,-1 0,-6 1,-1 1,0 0,-1 1,-1 0,-1 1,-1 1,-1 1,0 1,-1 1,0 1,-1 2,0 1,1 1,0 1,-1 1,0 0,-1 -1,-1 0,-1 -1,-1 0,-1 -1,0 -1,-1 -3,0 -1,-1 -2,0 -1,-1 -3,0 -1,-1 -1,0 -1,-1 -1,0 -1,-1 -1,-1 -1,-1 -1,-1 -1,-1 0,-1 -1,-1 -1,-1 0,-1 -1,-1 0,-1 -1,-1 -1,-1 0,-1 -1,0 -1,1 -1,0 -1,1 -2,0 -1,1 -6,0 -1,-1 -1,-1 0,-2 -1,-1 -1,0 -1,-1 0,-2 1,-1 3,0 1,1 1,0 1,1 1,1 1,0 1,1 2,0 1,-1 0,-1 -2,0 -1,-1 -1,-1 0,-1 -3,0 -1,-1 -3,0 -1,-1 -2,0 0,4 -1,1 -3,0 0,2 1,1 0,1 1,1 0,1 3,0 1,1 0,2 -1,1 -1,0 -1,1 -2,0 -2,2Z"/>
<path onmouseover="hoverPath(evt)" onmouseout="recoverPath(evt)" fill="rgb(246,245,238)" d="M  161,77l -1,0 0,1 13,-1 2,0 1,1 0,3 1,1 1,1 7,0 1,-1 2,0 0,-7 -1,-1 0,-1 -1,-1 -7,0 -1,1 -1,0 0,1 -1,1 -1,1 -1,0 -13,1Z"/>
<path onmouseover="hoverPath(evt)" onmouseout="recoverPath(evt)" fill="rgb(248,246,242)" d="M  232,77l 0,0 -1,1 -2,0 -1,1 -2,0 -1,1 0,3 -1,1 -1,0 2,1 1,0 1,1 1,1 1,1 1,1 0,1 1,0 1,1 2,0 1,-1 1,0 1,-1 1,0 0,-1 1,-1 0,-3 -1,-1 0,-1 -1,0 -1,-1 0,-4 1,-1 1,0 1,-1 1,0 1,-1 1,0 1,-1 -1,0 -2,1 -2,0 -1,1 -2,0 -1,1 -1,1Z"/>
<path onmouseover="hoverPath(evt)" onmouseout="recoverPath(evt)" fill="rgb(243,237,216)" d="M  240,242l 0,0 -1,1 0,1 -1,1 0,2 -1,1 1,1 0,2 -1,1 0,3 18,0 0,-14 -1,0 -1,1 -4,0 -1,-1 -2,0 -1,-1 -2,0 -1,1 -1,0 -1,1Z"/>
<path onmouseover="hoverPath(evt)" onmouseout="recoverPath(evt)" fill="rgb(221,223,209)" d="M  41,109l 0,-4 1,-1 1,-1 4,0 -3,-1 -1,0 -1,-1 0,-12 1,-1 0,-1 -1,-1 0,-1 -6,0 -1,1 -2,0 -1,1 1,1 2,0 1,1 1,1 0,7 -1,1 -4,0 -1,1 -2,0 -1,1 -5,0 0,1 1,1 0,1 1,1 0,4 7,0 0,-5 1,-1 4,0 1,1 0,8 -1,1 0,3 -1,1 0,1 -1,1 0,1 1,0 1,-1 1,0 1,-1 2,0 0,-6 1,-1 -1,-1Z"/>
<path onmouseover="hoverPath(evt)" onmouseout="recoverPath(evt)" fill="rgb(191,216,154)" d="M  62,175l 14,0 1,-1 1,0 2,-2 0,-3 1,-1 0,-2 1,-1 0,-3 1,-1 0,-5 1,-1 4,0 1,1 1,0 0,-4 1,-1 0,-3 1,-1 0,-1 -1,0 -1,-1 0,-5 1,-1 0,-3 1,-1 0,-3 1,-1 -1,0 -1,2 -9,0 0,5 -1,1 -2,0 -1,-1 0,-4 -1,-1 -1,0 0,3 -1,1 -2,0 -1,-1 0,-5 -5,0 -1,-1 -4,0 0,2 -1,1 -1,0 0,5 -1,1 -2,0 -1,-1 0,-14 -1,0 -1,-1 0,2 -1,1 -1,0 -1,1 -5,0 0,2 -1,1 -2,0 0,1 -1,1 0,1 1,0 1,1 2,0 1,1 0,4 -1,1 0,1 1,1 0,4 1,0 1,1 0,2 -1,1 0,3 -1,1 0,1 -1,1 0,1 -1,1 -2,0 0,4 -1,1 0,3 1,1 0,1 1,1 1,0 1,1 0,1 5,0 0,-1 1,-1 2,0 1,1 1,1 2,0 1,1 0,2 1,1Z"/>
<path onmouseover="hoverPath(evt)" onmouseout="recoverPath(evt)" fill="rgb(197,215,201)" d="M  100,38l 3,0 1,1 0,2 1,1 3,0 -2,-1 0,-2 -1,-1 -5,0 -4,1 -1,0 0,3 -1,1 -3,0 -1,-1 0,-4 1,-1 0,-1 -2,0 -1,-1 0,4 -1,1 0,13 -1,1 0,3 1,-2 0,-1 1,-6 0,-2 1,-1 2,0 1,1 0,5 -1,1 0,5 1,0 0,-2 1,-1 2,0 0,-7 1,-1 0,-7 4,-1Z"/>
<path onmouseover="hoverPath(evt)" onmouseout="recoverPath(evt)" fill="rgb(253,253,253)" d="M  106,182l 0,0 1,1 0,0 1,1 0,5 -1,1 0,6 -1,1 0,7 -1,1 0,5 -1,1 0,7 -1,1 0,3 -1,1 0,7 -1,1 0,18 1,1 0,5 1,0 0,-5 1,-1 1,-1 19,0 1,1 31,0 1,1 10,0 1,1 1,1 0,3 2,0 0,-1 -1,-1 0,-4 1,-1 1,0 1,-1 1,0 1,-1 1,0 1,-1 2,0 1,-1 1,0 1,-1 1,0 1,-1 2,0 1,-1 1,0 1,-1 2,0 1,-1 1,0 1,-1 1,0 1,-1 2,0 1,-1 0,-1 -1,0 -1,1 -1,0 -1,1 -2,0 -1,1 -1,0 -1,1 -2,0 -1,1 -1,0 -1,1 -1,0 -1,1 -2,0 -1,1 -1,0 -1,1 -1,0 -1,1 -2,0 -1,1 -1,0 -1,1 -3,0 -1,-1 -1,-1 0,-2 -1,-1 0,-1 -1,-1 0,-1 -1,-1 0,-1 -1,-1 0,-2 -1,-1 0,-1 -1,-1 0,-1 -1,-1 0,-3 1,-1 1,0 1,-1 4,0 1,1 0,1 1,1 0,-4 1,-1 -2,0 -1,1 -1,0 -4,1 -3,0 -1,-1 0,-1 -1,-1 0,-1 -1,-1 0,-1 -1,-1 0,-1 -1,-1 0,-2 -1,-1 0,-1 -1,-1 0,-2 -1,-1 0,-1 -1,-1 0,-2 -1,-1 0,-1 -1,-1 0,-1 -1,-1 0,-5 1,-1 -3,0 -1,1 0,0 -1,1 -32,0 -1,-1 0,-8 1,-1 0,-8 1,-1 0,-6 1,-1 0,-6 1,-1 0,-5 1,-1 0,-14 -1,-1 0,-10 1,-1 0,-3 1,-1 1,-1 1,-1 3,0 1,-1 1,-1 1,0 1,-1 1,0 0,-2 1,-1 1,-1 1,0 1,-1 1,0 1,-1 2,0 1,-1 4,0 1,1 0,1 1,1 1,1 -1,-2 -1,-2 0,-1 1,-1 1,-1 1,0 1,-1 1,0 1,-1 1,0 1,-1 4,0 0,-1 -4,0 -1,1 -2,0 -1,1 -1,0 -1,1 -1,0 -1,1 -2,0 -1,1 -1,0 -1,1 -1,0 -1,1 -2,0 -1,1 -1,0 -1,1 -3,0 -1,-1 0,3 -1,1 -1,0 -2,2 -2,0 0,1 -1,1 -2,2 0,1 -1,1 0,2 -1,1 0,32 -1,1 0,6 -1,1 0,6 -1,1 0,4 -1,1 -1,0 -1,1 3,13 1,0 -2,1 0,3 -1,1 0,4 -1,1 1,0 -1,1 0,5 -1,2 0,5 -1,1 1,0 -1,1 0,7 -1,1 0,3 -1,2 0,11 1,1 1,1 0,0 5,-51 -3,-13 39,15 0,1 1,1 0,2 1,1 0,1 1,1 0,2 1,1 0,1 1,1 0,2 1,1 0,1 1,1 0,1 1,1 0,2 1,1 0,1 1,1 0,1 1,1 0,2 1,1 0,1 1,1 0,2 1,1 0,2 1,1 1,1 0,1 1,1 0,1 1,1 0,2 1,1 0,1 1,1 0,3 -1,1 -1,0 -1,1 -2,0 -1,-1 -31,0 -1,-1 -21,0 39,-50 -39,-15 38,14 -38,-14Z"/>
<path onmouseover="hoverPath(evt)" onmouseout="recoverPath(evt)" fill="rgb(210,219,182)" d="M  116,14l 0,0 1,1 4,0 1,1 1,0 1,1 0,2 1,1 0,1 1,1 1,1 0,1 1,-2 2,0 -1,-1 0,-3 1,-1 1,-1 3,0 -1,-1 0,-1 -1,-1 -1,-1 0,-1 -1,-1 0,-1 -1,-1 -1,-1 0,-5 1,-1 1,0 0,-1 -10,0 0,1 1,1 0,1 1,0 1,1 0,2 -1,1 -1,0 0,1 -1,1 -1,1 -1,1 -1,0 -1,1 -1,1 1,1Z"/>
<path onmouseover="hoverPath(evt)" onmouseout="recoverPath(evt)" fill="rgb(189,212,170)" d="M  123,21l 0,0 -1,-1 0,-2 -1,0 -1,-1 -4,0 -1,-1 -2,0 -1,-1 0,-3 1,-1 1,0 1,-1 1,-1 1,0 1,-1 1,-1 0,-1 1,-1 -3,0 0,1 -1,1 -1,0 -1,1 -1,1 -1,1 -1,1 0,1 -1,1 -1,0 0,1 -1,1 -1,0 -1,1 -1,0 -1,1 -1,0 0,3 -1,1 -3,0 -1,-1 -1,0 -1,1 -1,0 -1,1 -1,0 -1,1 -3,0 -1,1 -1,0 0,2 -1,1 -5,0 -1,1 3,0 1,1 2,0 1,1 1,1 1,0 1,1 0,2 2,0 1,1 0,3 1,-1 0,-1 1,-1 8,0 1,1 2,0 1,1 1,1 0,2 1,0 1,1 9,0 1,1 0,2 -1,1 -4,0 1,1 0,0 1,1 0,2 -1,1 0,3 -1,1 0,6 -1,1 0,2 1,1 0,2 1,-1 2,0 1,-1 5,0 1,-1 1,0 1,-1 0,-4 1,-1 3,0 1,1 0,1 1,1 7,0 1,-1 2,0 -1,-1 -2,0 -1,1 -5,0 -1,-1 -1,-1 0,-3 -1,-1 0,-4 -1,0 -1,-1 0,-5 -4,0 -1,-1 0,-2 1,-1 0,-1 -1,-1 0,-1 -1,-1 0,-2 1,-1 2,0 1,1 1,1 0,-1 -1,-1 0,-1 -1,-1 0,-4 -1,-1 0,-1 -1,-1 -1,-1 0,-1 -31,18 0,2 1,0 0,-2 -1,0 31,-18Z"/>
<path onmouseover="hoverPath(evt)" onmouseout="recoverPath(evt)" fill="rgb(246,244,237)" d="M  170,206l 0,2 -1,1 -1,1 0,2 7,0 1,-1 2,0 1,-1 3,0 1,-1 -2,0 -1,-1 -1,-1 -1,-1 0,-2 1,-1 1,-1 0,-4 -13,0 -1,-1 -1,0 -1,1 0,3 1,1 2,0 1,1 1,0 1,1Z"/>
<path onmouseover="hoverPath(evt)" onmouseout="recoverPath(evt)" fill="rgb(253,253,253)" d="M  193,206l -2,0 0,1 1,1 0,0 1,1 1,-1 16,0 1,1 1,0 1,-1 17,0 0,-1 -3,0 -1,-1 0,-5 -1,2 0,1 -1,1 -23,0 -1,1 -7,0 38,2 0,1 3,0 1,1 3,0 1,1 3,0 1,1 3,0 1,1 3,0 1,1 4,0 0,-3 -2,0 -1,-1 -2,0 -1,-1 -2,0 -1,-1 -2,0 -1,-1 -1,0 0,2 -1,1 -2,0 -8,-2 -38,-2 44,3 -1,0 -1,-1 -3,0 3,1 2,0 -44,-3 18,4 0,0 -18,-4Z"/>
<path onmouseover="hoverPath(evt)" onmouseout="recoverPath(evt)" fill="rgb(252,252,250)" d="M  243,166l 0,-1 1,-1 0,-2 -1,1 -2,0 -1,-1 0,-1 -1,0 -1,-1 0,-3 -1,-1 0,5 -1,1 0,2 -1,1 0,3 -1,1 0,1 -1,1 0,3 -1,1 0,2 -1,1 0,2 -1,1 0,2 -1,1 0,3 -1,1 0,1 -1,1 0,2 -1,1 -1,0 -1,1 2,0 1,1 0,4 1,-2 0,-2 1,-1 0,-2 1,-1 0,-2 1,-1 0,-2 1,-1 0,-2 1,-1 0,-2 1,-1 0,-2 1,-1 0,-1 1,-1 4,0 1,-1 0,-2 -1,-1 0,-3 1,-1Z"/>
<path onmouseover="hoverPath(evt)" onmouseout="recoverPath(evt)" fill="rgb(242,240,230)" d="M  242,23l 0,5 1,1 0,2 1,1 1,1 0,3 -1,1 1,1 1,0 1,1 0,1 1,1 0,1 1,1 0,1 1,1 0,1 1,1 1,1 0,1 1,1 0,1 1,1 1,0 0,-52 -12,0 0,18 -1,1 -1,0 0,3 1,1Z"/>
<path onmouseover="hoverPath(evt)" onmouseout="recoverPath(evt)" fill="rgb(242,241,231)" d="M  0,71l 0,17 2,0 1,-1 3,0 1,-1 3,0 1,-1 6,0 1,-1 1,0 0,-1 1,-1 2,0 -1,-1 0,-3 1,-1 0,-1 1,-1 0,-1 1,-1 1,-1 0,-1 1,-1 0,-1 1,-1 0,-1 1,-1 0,-1 1,-1 0,-1 1,-1 0,-1 1,-1 0,-1 1,-1 1,-1 0,-1 -1,-1 -1,1 -2,0 -1,-1 0,-2 -1,-1 -1,0 -1,-1 -1,0 -1,-1 -1,0 -1,-1 -1,-1 -1,1 -2,0 -1,-1 0,-2 -1,0 -1,-1 -1,0 0,1 -1,1 0,1 -1,1 0,1 -1,1 0,1 -1,1 0,1 -1,1 0,1 -1,1 0,1 -1,1 0,1 -1,1 0,1 -1,1 0,1 -1,1 0,1 -1,1 -2,0Z"/>
<path onmouseover="hoverPath(evt)" onmouseout="recoverPath(evt)" fill="rgb(243,242,234)" d="M  0,167l 0,72 2,0 1,1 2,0 1,1 2,0 1,1 1,0 1,1 4,0 0,-1 1,-1 1,-1 0,-1 1,-1 0,-1 1,-1 0,-1 1,-1 1,-1 1,-1 0,-1 1,-1 0,-1 1,-1 2,0 1,-1 0,-1 -1,-1 0,-8 1,-1 0,-3 1,-1 2,0 0,-1 -1,-1 0,-7 -1,-1 0,-6 1,-1 0,-4 -1,-1 0,-3 1,-1 0,-1 -1,-1 -1,-1 0,-1 -1,0 -1,-1 -1,-1 -1,0 -1,-1 -2,-2 0,-4 -1,-1 -1,0 -1,-1 -2,0 -1,-1 -1,0 -1,-1 -1,0 -1,-1 -1,0 -1,-1 -2,0 -1,-1 -1,1 -2,0 -1,-1 -1,1 0,-3Z"/>
<path onmouseover="hoverPath(evt)" onmouseout="recoverPath(evt)" fill="rgb(233,234,199)" d="M  0,247l 0,8 25,0 0,-1 -1,0 -1,-1 -2,0 -1,-1 -2,0 -1,-1 -1,0 -1,-1 -2,0 -1,-1 -2,0 -1,-1 -1,0 -1,-1 -2,0 -1,-1 -1,0 -1,-1 -2,0Z"/>
<path onmouseover="hoverPath(evt)" onmouseout="recoverPath(evt)" fill="rgb(233,234,218)" d="M  25,167l -1,0 -1,-1 -1,0 -1,1 1,0 1,1 1,0 1,1 2,0 1,1 1,0 1,1 1,0 1,1 2,0 1,1 1,0 1,1 2,0 1,1 3,0 1,1 1,0 1,1 2,0 1,1 3,0 0,-2 1,-1 3,0 1,-1 0,-1 -2,0 -1,-1 -1,-1 0,1 -1,1 -7,0 -1,-1 0,-1 -1,0 -2,-2 0,-1 -2,0 -1,1 0,0 -1,1 -2,0 -1,-1 -3,0 -1,-1 -3,0 -1,-1Z"/>
<path onmouseover="hoverPath(evt)" onmouseout="recoverPath(evt)" fill="rgb(235,235,203)" d="M  50,21l 5,0 1,1 1,0 0,-1 1,-1 3,0 1,-1 5,0 1,-1 4,0 1,-1 3,0 1,-1 2,0 1,-1 2,0 1,1 1,0 1,-1 1,0 0,-4 -1,-1 0,-6 -1,-1 0,-3 -69,0 0,3 -1,1 -2,0 -1,1 0,2 1,1 0,2 -1,1 0,1 -1,1 0,1 -1,1 0,1 -1,1 0,1 4,0 1,1 4,0 1,1 7,0 1,1 3,0 1,1 2,0 1,1 4,0 1,1 11,0 0,-2 1,-1Z"/>
<path onmouseover="hoverPath(evt)" onmouseout="recoverPath(evt)" fill="rgb(180,206,214)" d="M  91,63l 0,3 -1,1 0,1 -1,1 -2,0 -1,1 -2,0 0,2 -1,1 0,2 -1,1 0,2 -1,1 0,1 -1,1 1,1 0,0 1,1 0,2 1,0 1,1 0,4 -1,1 0,1 -1,1 0,1 -1,1 -1,1 0,2 1,0 1,1 0,5 1,-4 0,-1 1,-1 1,0 1,-1 1,0 1,-1 6,0 1,-1 3,-3 1,0 1,-1 1,-1 7,0 1,1 0,8 1,-3 1,0 1,-1 2,0 1,1 2,0 -2,-1 -4,0 -1,-1 0,-1 -1,-3 0,-2 1,-1 0,-1 1,-1 1,0 1,-1 -3,0 -1,-1 0,-2 -1,-1 0,-4 1,-1 0,-3 1,-1 2,0 1,1 0,-2 -1,-1 0,0 -1,-1 0,-4 1,-1 0,-3 1,-1 0,-6 1,-1 0,-3 1,-1 -1,-1 -1,-1 0,-2 1,-1 -4,0 -1,1 -5,0 -1,-1 -1,-1 0,-2 -3,0 -1,-1 0,8 -1,1 0,7 -1,1 -2,0 0,2 -1,1 -3,0 -1,-1 0,-7 1,-1 -1,0 1,-1 0,-2 -2,10 0,1 -1,1 1,1 2,0 1,1Z"/>
<path onmouseover="hoverPath(evt)" onmouseout="recoverPath(evt)" fill="rgb(208,224,178)" d="M  97,121l 0,0 1,-1 0,-4 1,-1 0,-3 1,-1 1,-1 1,-1 0,-1 1,-1 1,-1 1,-1 0,-1 1,-1 0,-3 1,-1 0,-7 -5,0 -1,1 0,0 -1,1 -1,0 -1,1 -1,1 -1,1 -1,1 -6,0 -1,1 -1,0 -1,1 -1,0 0,1 -1,1 0,3 -1,1 -2,0 0,10 -1,1 0,5 -1,1 -1,1 -2,0 0,3 -1,1 -1,1 -6,0 6,1 0,5 1,-4 3,0 1,1 1,1 0,-1 1,-1 9,0 0,-1 1,-1 3,0 1,1 0,2 -1,1 0,3 -1,1 0,3 -1,1 0,3 1,-1 0,-2 1,-2 0,-2 1,-3 0,-1 1,-3 0,-5 1,-1Z"/>
<path onmouseover="hoverPath(evt)" onmouseout="recoverPath(evt)" fill="rgb(241,240,232)" d="M  110,199l 0,1 -1,1 0,5 -1,1 0,6 -1,1 0,6 -1,1 0,7 -1,1 0,4 -1,1 0,9 1,1 1,0 1,1 21,0 1,1 31,0 1,1 1,-1 1,0 0,-1 -1,-1 0,-1 -1,-1 0,-2 -1,-1 0,-1 -1,-1 0,-1 -1,-1 -1,-1 0,-2 -1,-1 0,-2 -1,-1 0,-1 -1,-1 0,-2 -1,-1 0,-1 -1,-1 0,-1 -1,-1 0,-2 -1,-1 0,-1 -1,-1 0,-1 -1,-1 0,-2 -1,-1 0,-1 -1,-1 0,-2 -1,-1 0,-1 -1,-1 0,-2 -1,-1 0,-1 -1,-1 0,-1 -30,0 -1,1 -1,0Z"/>
<path onmouseover="hoverPath(evt)" onmouseout="recoverPath(evt)" fill="rgb(243,241,233)" d="M  188,23l 0,0 1,1 1,0 1,1 1,1 1,0 1,1 1,1 0,1 1,1 1,1 0,1 1,1 1,1 1,1 0,1 1,1 0,1 1,1 1,1 0,1 1,1 0,1 1,1 1,1 0,1 1,1 1,1 1,1 1,0 1,1 1,1 1,1 1,0 1,1 1,0 1,1 1,0 1,1 1,0 1,1 1,0 1,1 1,0 1,1 1,0 1,1 1,0 1,1 2,0 1,1 1,1 1,1 1,1 1,1 0,1 1,1 0,1 1,1 1,1 0,2 1,0 1,-1 3,0 1,1 0,2 -1,1 -1,1 0,2 1,1 0,1 1,1 1,1 0,1 1,1 0,1 1,1 1,1 0,1 1,1 0,1 1,1 0,1 1,1 0,1 1,1 0,8 1,1 0,3 -1,1 -1,1 -1,1 0,1 -1,1 1,1 0,1 1,0 1,-1 2,0 0,-41 -2,0 -1,-1 0,-1 -1,-1 0,-2 -2,0 -1,-1 -1,-1 0,-1 -1,-1 0,-1 -1,-1 -1,-1 0,-1 -1,-1 0,-1 -1,-1 0,-1 -1,-1 -1,-1 0,-1 -1,-1 0,-1 -1,-1 -1,-1 0,-1 -1,-1 0,-1 -1,-1 0,-1 -1,-1 0,-1 -1,-1 0,-1 -1,-1 0,-3 -1,-1 0,-3 1,-1 0,-6 -1,-1 0,-4 -1,-1 0,-18 -57,0 0,7 1,1 0,2 1,1 1,1 3,0 1,1 0,2 -1,1 -4,0 0,1 1,1 0,0 1,1 0,1 1,0 1,1 2,0 1,1 2,0 1,1 3,0 5,-3 -1,-1 0,-2 1,-1 2,0 1,1 0,2 -1,1 -2,0 -5,3Z"/>
<path onmouseover="hoverPath(evt)" onmouseout="recoverPath(evt)" fill="rgb(253,253,252)" d="M  216,127l 0,2 1,1 1,0 -1,-1 0,-3 -1,1 4,-5 10,0 1,-1 4,0 1,-1 6,0 1,-1 2,0 1,-1 5,0 1,1 3,0 0,-4 -1,0 -1,1 -3,0 -1,-1 0,-1 -1,-1 0,-2 1,-1 -1,0 -1,2 0,4 -1,1 -4,0 -1,1 -1,0 -1,1 -4,0 -1,1 -3,0 -1,1 -5,0 -1,-1 -6,0 -1,-1 -4,0 -1,-1 -4,0 -1,-1 -2,0 -1,-1 -3,0 -1,-1 -2,0 -1,-1 -1,-1 0,-5 1,-1 -1,0 1,-1 0,-11 -1,-1 0,1 -1,-2 0,20 -5,0 -1,-1 -3,0 -1,-1 -4,0 -1,-1 -3,0 -1,-1 -4,0 -1,-1 -3,0 -1,-1 -3,0 -1,-1 -3,0 1,1 0,0 1,1 4,0 1,1 3,0 1,1 4,0 1,1 4,0 1,1 4,0 1,1 2,0 1,1 2,0 1,1 3,0 1,1 4,0 1,1 2,0 1,1 3,0 1,1 3,0 1,1 3,0 -3,-1 -8,-2 16,5 -4,5Z"/>
<path onmouseover="hoverPath(evt)" onmouseout="recoverPath(evt)" fill="rgb(178,201,233)" d="M  239,78l -1,0 0,2 1,0 1,1 0,1 1,1 0,2 1,0 1,1 1,1 0,1 1,1 0,1 1,1 1,1 0,2 1,1 0,6 -1,1 0,2 -1,1 0,1 -1,1 -1,1 0,1 -1,1 0,1 -1,1 0,1 -1,1 0,1 -1,1 2,-1 3,0 0,-4 1,-1 0,-1 1,-1 3,0 1,-1 1,-1 0,-1 -1,-1 0,-8 -1,-1 0,-1 -1,-1 0,-1 -1,-1 0,-1 -1,-1 0,-1 -1,-1 -1,-1 0,-1 -1,-1 0,-1 -1,-1 -1,-1 0,-1 -1,-1 0,-1 -1,-1 -1,1Z"/>
</svg>