<svg width="256" height="256" xmlns="http://www.w3.org/2000/svg"><script> 
var tempColor;
function hoverPath(evt){
obj = evt.target;
tempColor = obj.getAttribute("fill");
obj.setAttribute("fill","red");
//alert(tempColor);
//obj.setAttribute("stroke","red");}
function recoverPath(evt){
obj = evt.target;
obj.setAttribute("fill", tempColor);
//obj.setAttribute("stroke", tempColor);
}</script><path onmouseover="hoverPath(evt)" onmouseout="recoverPath(evt)" fill="rgb(181,153,238)" d="M  0,90l 0,10 6,0 1,-1 4,0 1,1 1,0 1,-1 1,0 1,-1 2,0 1,1 4,0 1,-1 5,0 1,1 1,-1 10,0 1,-1 5,0 1,1 1,-1 8,0 1,-1 3,0 1,1 1,-1 1,-1 2,0 1,1 3,0 1,-1 3,0 1,1 1,-1 7,0 1,-1 3,0 1,1 1,-1 7,0 1,-1 5,0 0,-1 1,-1 4,0 1,1 3,0 0,-1 1,-1 4,0 1,1 3,0 0,-1 1,-1 4,0 1,1 2,0 1,-1 1,0 1,-1 3,0 1,1 2,0 1,-1 1,0 1,-1 3,0 1,1 4,0 0,-1 1,-1 3,0 1,1 6,0 1,-1 4,0 1,1 0,3 1,1 0,7 1,1 0,8 1,1 0,9 1,1 0,9 1,1 0,8 1,1 0,9 1,1 0,8 1,1 0,8 1,1 2,0 0,-1 -1,-1 0,-10 -1,-1 0,-9 -1,-1 0,-6 -1,-1 0,-9 -1,-1 0,-10 -1,-1 0,-8 -1,-1 0,-9 -1,-1 0,-4 1,-1 1,-1 3,0 1,-1 5,0 1,-1 4,0 1,-1 5,0 1,-1 6,0 1,-1 6,0 1,-1 17,0 1,1 10,0 1,1 10,0 1,1 10,0 0,-1 -2,0 -1,-1 -10,0 -1,-1 -11,0 -1,-1 -12,0 -1,-1 0,-3 1,-1 0,-1 1,-1 2,0 1,1 1,0 0,-1 1,-1 2,0 1,1 6,0 1,-1 2,0 1,-1 2,0 0,-1 1,-1 2,0 1,1 3,0 1,-1 2,0 0,-1 1,-1 2,0 1,1 3,0 0,-13 -7,0 -1,1 -4,0 -1,1 -2,0 -1,1 -4,0 -1,1 -2,0 0,1 -1,1 -2,0 -1,-1 -4,0 -1,1 -2,0 0,1 -1,1 -2,0 -1,-1 -4,0 -1,1 -2,0 0,1 -1,1 -2,0 -1,-1 -4,0 -1,1 -2,0 0,1 -1,1 -2,0 -1,-1 -2,0 0,1 -1,1 -2,0 -1,-1 -2,0 0,1 -1,1 -2,0 -1,-1 -2,0 0,1 -1,1 -2,0 -1,-1 -2,0 0,1 -1,1 -2,0 -1,-1 -1,0 -1,1 -2,0 -1,-1 0,-4 -1,-1 0,-8 -1,-1 0,-9 -1,-1 0,-9 -1,-1 0,-8 -1,-1 0,-8 -1,-1 0,-10 -1,-1 0,-9 -3,0 0,6 1,1 0,8 1,1 0,9 1,1 0,8 1,1 0,8 1,1 0,8 1,1 0,8 1,1 0,12 -1,1 -2,0 -1,-1 -2,0 0,1 -1,1 -3,0 -1,-1 -2,0 0,1 -1,1 -3,0 -1,-1 -3,0 0,1 -1,1 -4,0 -1,-1 -6,0 -1,1 -5,0 0,1 -1,1 -4,0 -1,-1 -3,0 0,1 -1,1 -4,0 -1,-1 -3,0 0,1 -1,1 -4,0 -1,-1 -2,0 -1,1 -2,0 -1,-1 -3,0 -1,1 -3,0 -1,-1 -1,1 -6,0 -1,1 -3,0 -1,-1 -1,1 -7,0 -1,1 -3,0 -1,-1 -1,1 -7,0 -1,1 -13,0 -1,1 -3,0 -1,-1 -1,1 -1,1 -2,0 -1,-1 -4,0 -1,1 -3,0 -1,-1 -1,1 -9,0 -1,1 -6,0 -1,-1 -2,0Z"/>
<path onmouseover="hoverPath(evt)" onmouseout="recoverPath(evt)" fill="rgb(244,243,235)" d="M  0,184l 0,59 13,0 1,1 16,0 0,-1 1,-1 25,0 0,-4 -1,-1 0,-11 -1,-1 -1,-1 -18,0 -1,-1 -1,-1 -1,-1 0,-4 -1,-1 0,-4 -1,-1 0,-5 -1,-1 0,-4 -1,-1 0,-4 -1,-1 0,-5 -1,-1 0,-4 -1,-1 0,-4 -5,0 -1,1 -12,0 -1,1 -6,0Z"/>
<path onmouseover="hoverPath(evt)" onmouseout="recoverPath(evt)" fill="rgb(244,243,236)" d="M  2,102l -2,0 0,78 5,0 1,-1 12,0 0,-2 1,-1 12,0 1,-1 15,0 1,-1 11,0 1,-1 8,0 1,-1 21,0 1,-1 10,0 1,-1 13,0 1,-1 17,0 1,-1 15,0 1,-1 14,0 1,-1 7,0 -1,-1 0,-8 -1,-1 0,-8 -1,-1 0,-9 -1,-1 0,-8 -1,-1 0,-9 -1,-1 0,-9 -1,-1 0,-8 -1,-1 0,-7 -1,-1 0,-3 -2,0 -1,1 -8,0 -1,-1 -1,0 0,1 -1,1 -6,0 -1,-1 -1,0 -1,1 -1,0 -1,1 -4,0 -1,-1 -1,0 -1,1 -1,0 -1,1 -4,0 -1,-1 -2,0 0,1 -1,1 -5,0 -1,-1 -2,0 0,1 -1,1 -5,0 -1,-1 -2,0 0,1 -1,1 -5,0 -1,1 -7,0 -1,1 -2,0 -1,-1 -1,0 -1,1 -7,0 -1,1 -2,0 -1,-1 -1,0 -1,1 -5,0 -1,-1 -1,1 -1,1 -2,0 -1,-1 -1,0 -1,1 -8,0 -1,1 -2,0 -1,-1 -3,0 -1,1 -10,0 -1,1 -2,0 -1,-1 -3,0 -1,1 -6,0 -1,-1 -1,1 -1,0 -1,1 -3,0 -1,-1 -2,0 -1,1Z"/>
<path onmouseover="hoverPath(evt)" onmouseout="recoverPath(evt)" fill="rgb(187,211,169)" d="M  27,182l 0,1 1,1 0,4 1,1 0,5 1,1 0,4 1,1 0,4 1,1 0,5 1,1 0,4 1,1 0,4 1,1 1,1 18,0 1,1 1,1 1,1 0,11 1,1 0,6 -1,1 4,0 0,-2 -1,-1 0,-1 -1,-1 0,-11 -1,-1 0,-11 1,-1 1,-1 1,-1 1,0 1,-1 2,0 1,-1 2,0 1,-1 2,0 0,-2 -1,-1 0,-3 1,-1 0,-1 1,-1 1,-1 1,-1 1,-1 0,-1 -1,-1 -1,-1 -6,0 -1,1 -4,0 -1,-1 -1,0 -1,-1 0,-1 -1,-1 0,-6 -1,-1 0,-5 -1,-1 0,-2 1,-1 -8,0 -1,1 -15,0 -1,1 -12,0 7,1Z"/>
<path onmouseover="hoverPath(evt)" onmouseout="recoverPath(evt)" fill="rgb(253,253,253)" d="M  80,254l -2,0 0,1 19,0 0,-2 1,-1 3,0 1,-1 2,0 1,-1 3,0 1,-1 3,0 1,-1 2,0 1,-1 4,0 1,-1 2,0 1,-1 3,0 1,-1 2,0 1,-1 3,0 1,-1 4,0 1,-1 3,0 1,1 0,3 -1,1 0,2 31,0 1,1 60,0 1,1 19,0 0,-1 -13,0 -1,-1 -56,0 -1,-1 -38,0 -1,-1 0,-4 1,-1 1,-1 1,-1 2,0 1,-1 3,0 1,-1 3,0 1,-1 3,0 1,-1 2,0 1,-1 3,0 1,-1 3,0 1,-1 3,0 1,1 1,0 0,-1 1,-1 2,0 1,-1 1,0 1,-1 2,0 1,-1 4,0 1,-1 3,0 1,-1 3,0 1,-1 3,0 1,-1 3,0 1,-1 2,0 1,-1 3,0 1,-1 3,0 1,-1 3,0 1,-1 3,0 1,-1 3,0 1,-1 2,0 1,-1 3,0 1,-1 3,0 1,-1 3,0 1,-1 2,0 1,-1 5,0 0,-4 -3,0 -1,1 -3,0 -1,1 -2,0 -1,1 -3,0 -1,1 -3,0 -1,1 -3,0 -1,1 -2,0 -1,1 -3,0 -1,1 -3,0 -1,1 -3,0 -1,1 -3,0 -1,1 -2,0 -1,1 -4,0 -1,1 -3,0 -1,1 -3,0 -1,1 -3,0 -1,1 -3,0 -1,1 -3,0 -1,1 -4,0 -1,1 -3,0 -1,1 -2,0 -1,1 -3,0 -1,1 -3,0 -1,1 -2,0 -1,1 -5,0 -1,-1 0,-4 -1,-1 0,-1 -1,-1 0,-1 -1,0 -1,-1 0,-2 -1,-1 0,-1 -1,-1 -1,0 0,1 1,0 1,2 0,1 1,2 1,1 0,1 1,1 1,1 0,5 -1,1 -1,1 -2,0 -1,1 -3,0 -1,1 -3,0 -1,1 -2,0 -1,1 -3,0 -1,1 -2,0 -1,1 -3,0 -1,1 -2,0 -1,1 -3,0 -1,1 -3,0 -1,1 -3,0 -1,1 -2,0 -1,1 -3,0 -1,1 -3,0 -1,1 -2,0 -1,1 -3,0 -1,1 -6,0 -1,-1 0,2 -1,1 -2,0 -1,1 -3,0 -1,1Z"/>
<path onmouseover="hoverPath(evt)" onmouseout="recoverPath(evt)" fill="rgb(187,211,182)" d="M  82,194l -2,0 0,6 -1,1 0,1 -1,1 -1,1 -1,1 0,2 1,1 0,0 1,-1 2,0 1,-1 2,0 1,-1 2,0 1,-1 6,0 1,1 4,0 1,1 1,0 1,1 0,1 6,0 1,-1 1,0 2,-2 1,0 1,-1 1,-1 2,0 0,-1 1,-1 2,0 1,-1 8,0 1,1 2,0 1,1 2,0 0,-2 1,-1 0,-3 -1,-1 0,-8 -1,-1 -1,0 -1,-1 -5,0 -1,-1 -1,-1 0,-2 -1,-1 0,-8 1,-1 11,0 1,-1 20,0 1,-1 -6,0 -16,1 -12,1 -6,0 -1,1 -13,0 -1,1 -10,0 9,1 0,8 1,1 0,6 -1,1 -1,1 -1,0 -1,1 -7,0 -1,1 -7,0 -1,1Z"/>
<path onmouseover="hoverPath(evt)" onmouseout="recoverPath(evt)" fill="rgb(244,243,236)" d="M  170,92l 0,2 1,1 0,9 1,1 0,8 1,1 0,10 1,1 0,9 1,1 0,6 1,1 0,9 1,1 0,10 1,1 0,3 1,0 1,-1 14,0 1,-1 14,0 1,-1 9,0 1,1 8,0 0,-2 1,-1 11,0 1,-1 14,0 0,-72 -11,0 -1,-1 -10,0 -1,-1 -10,0 -1,-1 -15,0 -1,1 -6,0 -1,1 -6,0 -1,1 -5,0 -1,1 -4,0 -1,1 -5,0 -1,1 -3,0 -1,1Z"/>
<path onmouseover="hoverPath(evt)" onmouseout="recoverPath(evt)" fill="rgb(244,243,235)" d="M  179,172l 0,7 1,1 0,8 1,1 0,9 1,1 0,9 1,1 0,10 1,1 0,4 1,-1 3,0 1,-1 3,0 1,-1 3,0 1,-1 3,0 1,-1 3,0 1,-1 4,0 1,-1 2,0 1,-1 3,0 1,-1 3,0 1,-1 3,0 1,-1 3,0 1,-1 2,0 1,-1 3,0 1,-1 3,0 1,-1 3,0 1,-1 2,0 1,-1 3,0 1,-1 4,0 0,-44 -13,0 -1,1 -11,0 0,2 -1,1 -10,0 -1,-1 -7,0 0,2 -1,1 -12,0 -1,1 -13,0 -1,1 -5,0 0,1 1,1Z"/>
<path onmouseover="hoverPath(evt)" onmouseout="recoverPath(evt)" fill="rgb(244,243,236)" d="M  0,1l 0,84 3,0 1,1 4,0 1,-1 9,0 1,-1 2,0 1,1 1,0 1,-1 6,0 1,1 1,-1 1,-1 2,0 1,1 1,0 1,-1 13,0 1,-1 7,0 1,-1 2,0 1,1 1,0 1,-1 7,0 1,-1 2,0 1,1 1,0 1,-1 6,0 1,-1 2,0 1,1 1,0 1,-1 5,0 1,1 1,-1 4,0 1,1 2,0 0,-1 1,-1 5,0 1,1 2,0 0,-1 1,-1 5,0 1,1 2,0 0,-1 1,-1 5,0 1,-1 8,0 1,1 2,0 0,-1 1,-1 5,0 1,1 1,0 0,-1 1,-1 4,0 1,1 1,0 0,-1 1,-1 4,0 1,1 0,-10 -1,-1 0,-8 -1,-1 0,-8 -1,-1 0,-8 -1,-1 0,-8 -1,-1 0,-9 -1,-1 0,-8 -1,-1 0,-7 -153,0 -1,1Z"/>
<path onmouseover="hoverPath(evt)" onmouseout="recoverPath(evt)" fill="rgb(238,237,222)" d="M  11,252l 0,3 65,0 0,-2 1,-1 2,0 1,-1 3,0 1,-1 2,0 -2,-1 -74,0 0,2 1,1Z"/>
<path onmouseover="hoverPath(evt)" onmouseout="recoverPath(evt)" fill="rgb(187,212,158)" d="M  64,218l -1,1 0,4 1,1 0,11 1,1 0,3 1,1 0,3 1,0 1,1 20,0 1,1 0,2 1,1 4,0 1,-1 3,0 1,-1 2,0 1,-1 3,0 1,-1 3,0 1,-1 2,0 1,-1 3,0 1,-1 3,0 1,-1 3,0 1,-1 2,0 1,-1 3,0 1,-1 2,0 1,-1 3,0 1,-1 2,0 1,-1 3,0 1,-1 3,0 1,-1 2,0 1,-1 0,-3 -1,-1 0,0 -1,-1 0,-1 -1,-1 0,-1 -1,-1 0,-2 -1,0 -1,-1 0,-2 -1,0 -1,-1 -1,-1 -1,-1 -1,-1 0,-1 -2,0 -1,-1 -1,0 -1,-1 -1,0 -1,-1 -1,0 -1,-1 -1,0 -1,-1 -1,0 -1,-1 -9,0 -1,1 -1,0 -1,1 -1,1 -2,0 0,1 -1,1 -1,1 -1,0 -1,1 -3,0 -1,1 -5,0 -1,-1 -1,-1 -1,0 -1,-1 -1,0 -1,-1 -8,0 -1,1 -2,0 -1,1 -2,0 -1,1 -2,0 -1,1 -2,0 -1,1 -2,0 -1,1 -2,0 -1,1 -2,0 -1,1Z"/>
<path onmouseover="hoverPath(evt)" onmouseout="recoverPath(evt)" fill="rgb(243,241,233)" d="M  70,174l 0,0 -1,1 -8,0 0,2 -1,1 -2,0 1,1 0,5 1,1 0,6 1,1 0,1 1,0 1,1 2,0 1,-1 7,0 0,-1 1,-1 2,0 1,1 1,1 1,-1 2,0 1,-1 7,0 1,-1 7,0 1,-1 1,0 1,-1 0,-4 -1,-1 0,-8 -8,0 -1,-1Z"/>
<path onmouseover="hoverPath(evt)" onmouseout="recoverPath(evt)" fill="rgb(252,252,251)" d="M  101,211l 0,0 1,1 3,0 1,-1 3,0 1,-1 1,0 1,-1 0,-1 1,-1 2,0 1,-1 1,-1 1,0 1,-1 11,0 0,-1 -2,0 -1,-1 -6,0 -1,1 -2,0 0,1 -17,7 15,-6 -1,0 -1,1 1,0 -3,1 -1,1 -1,1 -1,0 -1,1 -8,0 -1,-1 0,1 -1,-1 1,-1 -1,0 -1,-1 -4,0 -1,-1 -4,0 -1,1 -2,0 -1,1 -2,0 -1,1 -2,0 -1,1 -2,0 -1,-1 -1,-1 0,-4 1,-1 1,-1 1,-1 0,-1 1,-1 0,-4 -1,0 -1,-1 -1,-1 0,1 1,1 1,1 0,3 -1,1 -2,2 -1,1 0,1 -1,1 0,1 1,1 0,4 -1,1 -2,0 -1,1 -2,0 -1,1 -2,0 -1,1 -1,0 -1,1 -1,1 0,9 1,1 0,11 1,1 0,1 1,1 0,4 -1,1 -49,0 -1,-1 -12,0 0,10 9,0 0,-2 -1,-1 0,-4 1,-1 76,0 1,1 1,-1 0,-1 -20,0 -1,-1 -1,0 -1,-1 0,-3 -1,-1 0,-3 -1,-1 0,-11 -1,-1 0,-6 1,-1 1,-1 1,0 1,-1 2,0 1,-1 2,0 1,-1 2,0 1,-1 2,0 1,-1 2,0 1,-1 2,0 1,-1 2,0 1,-1 10,0 1,1 0,-1 19,-3 -15,6 31,-7 0,1 1,1 1,0 1,1 1,0 1,1 1,0 1,1 1,0 1,1 2,0 1,1 0,1 1,1 1,1 1,1 1,0 0,-1 -1,-1 0,0 -1,-1 -1,-1 -1,-1 1,2 0,0 1,1 1,1 -5,-5 -1,0 -1,-1 -1,-1 -2,0 -1,-1 0,-3 -1,1 -3,0 -31,7 35,-10 2,0 0,-10 -1,-1 0,-3 -1,0 0,7 1,1 0,5 -1,1 -35,10Z"/>
<path onmouseover="hoverPath(evt)" onmouseout="recoverPath(evt)" fill="rgb(238,237,225)" d="M  104,253l -1,0 -1,1 -3,0 0,1 156,0 0,-3 -20,0 -1,-1 -60,0 -1,-1 -31,0 -1,-1 0,-4 1,-1 0,-1 -1,0 -1,1 -4,0 -1,1 -3,0 -1,1 -2,0 -1,1 -3,0 -1,1 -2,0 -1,1 -4,0 -1,1 -2,0 -1,1 -3,0 -1,1 -3,0 -1,1Z"/>
<path onmouseover="hoverPath(evt)" onmouseout="recoverPath(evt)" fill="rgb(243,241,232)" d="M  125,175l 0,4 1,1 0,2 1,1 5,0 1,1 1,0 1,1 3,0 1,1 0,3 1,-1 5,0 1,-1 4,0 1,-1 0,-2 -1,-1 0,-3 -1,-1 0,-2 -1,-1 0,-3 1,-1 -12,0 -1,1 -11,0Z"/>
<path onmouseover="hoverPath(evt)" onmouseout="recoverPath(evt)" fill="rgb(184,210,177)" d="M  140,191l 0,11 -1,1 -1,1 0,1 2,0 1,1 1,1 1,0 1,1 1,0 1,1 1,1 1,1 1,1 1,1 0,2 1,0 1,1 1,1 0,1 1,1 0,2 1,0 1,1 0,1 1,1 0,1 1,1 0,4 3,0 1,-1 2,0 1,-1 3,0 1,-1 3,0 1,-1 2,0 1,-1 3,0 1,-1 2,0 0,-3 -1,-1 0,-10 -1,-1 0,-9 -1,-1 0,-9 -1,-1 0,-8 -1,-1 0,-7 -1,-1 0,-3 1,-1 0,0 -1,-1 -2,0 -1,1 -7,0 8,1 0,4 1,1 0,3 -1,1 -1,1 -1,1 0,2 -1,1 -4,0 -1,1 0,2 -1,1 -1,1 -2,0 -1,-1 -1,-1 0,-1 -1,-1 0,-4 -1,-1 0,-3 -1,-1 0,-2 -1,-1 -5,0 0,1 -1,1 0,1 1,1 0,2 1,1 0,3 1,1 0,4 -1,1 -1,1 -4,0 -1,1 -5,0 -1,1 40,-23 2,0 1,-1 13,0 1,-1 -1,0 -14,1 -1,0 -1,1 -40,23Z"/>
<path onmouseover="hoverPath(evt)" onmouseout="recoverPath(evt)" fill="rgb(243,241,232)" d="M  159,173l 0,1 1,1 0,3 1,1 0,4 1,1 0,1 1,1 1,-1 0,-2 1,-1 1,-1 4,0 0,-2 1,-1 1,-1 1,-1 0,-1 -1,-1 0,-4 -6,0 -1,1 -7,0 1,1Z"/>
<path onmouseover="hoverPath(evt)" onmouseout="recoverPath(evt)" fill="rgb(244,243,236)" d="M  161,1l 0,7 1,1 0,10 1,1 0,8 1,1 0,8 1,1 0,9 1,1 0,9 1,1 0,8 1,1 0,4 1,-1 3,0 1,1 0,-1 1,-1 4,0 1,1 0,-1 1,-1 4,0 1,1 0,-1 1,-1 4,0 1,1 0,-1 1,-1 4,0 1,1 0,-1 1,-1 2,0 1,-1 6,0 1,1 0,-1 1,-1 2,0 1,-1 6,0 1,1 0,-1 1,-1 2,0 1,-1 6,0 1,1 0,-1 1,-1 2,0 1,-1 4,0 1,-1 2,0 1,-1 4,0 1,-1 8,0 0,-55 -93,0 -1,1Z"/>
<path onmouseover="hoverPath(evt)" onmouseout="recoverPath(evt)" fill="rgb(240,240,231)" d="M  185,232l -1,0 -1,1 -2,0 0,1 -1,1 -3,0 -1,-1 -1,0 -1,1 -3,0 -1,1 -3,0 -1,1 -2,0 -1,1 -3,0 -1,1 -3,0 -1,1 -3,0 -1,1 -2,0 -1,1 -1,1 0,2 38,0 1,1 56,0 1,1 12,0 0,-33 -4,0 -1,1 -2,0 -1,1 -3,0 -1,1 -3,0 -1,1 -3,0 -1,1 -2,0 -1,1 -3,0 -1,1 -3,0 -1,1 -3,0 -1,1 -3,0 -1,1 -3,0 -1,1 -2,0 -1,1 -3,0 -1,1 -3,0 -1,1 -3,0 -1,1 -3,0 -1,1 -4,0 -1,1 -2,0 -1,1Z"/>
<path onmouseover="hoverPath(evt)" onmouseout="recoverPath(evt)" fill="rgb(243,241,236)" d="M  219,78l -1,1 0,1 12,0 1,1 11,0 1,1 10,0 1,1 1,0 0,-11 -4,0 -1,-1 0,1 -1,1 -2,0 -1,1 -5,0 -1,-1 0,1 -1,1 -2,0 -1,1 -2,0 -1,1 -8,0 -1,-1 0,1 -1,1Z"/>
</svg>