<svg width="256" height="256" xmlns="http://www.w3.org/2000/svg"><script> 
var tempColor;
function hoverPath(evt){
obj = evt.target;
tempColor = obj.getAttribute("fill");
obj.setAttribute("fill","red");
//alert(tempColor);
//obj.setAttribute("stroke","red");}
function recoverPath(evt){
obj = evt.target;
obj.setAttribute("fill", tempColor);
//obj.setAttribute("stroke", tempColor);
}</script><path onmouseover="hoverPath(evt)" onmouseout="recoverPath(evt)" fill="rgb(244,243,235)" d="M  160,144l -1,0 -1,1 1,1 0,0 1,1 1,1 1,1 1,1 1,1 1,1 1,1 0,2 1,1 1,1 1,0 1,1 0,1 1,1 1,1 1,1 1,1 1,1 1,1 1,1 1,1 1,1 1,1 1,0 1,1 1,1 1,1 1,1 1,1 1,1 1,0 1,1 0,1 1,1 1,1 1,1 0,-1 1,-1 0,-1 1,-1 0,-4 1,-1 1,-1 0,-2 1,-1 1,0 1,-1 0,-1 2,-2 1,-1 1,-1 1,-1 0,-1 1,-1 2,0 2,-2 1,0 2,-2 1,0 1,-1 1,-1 1,0 1,-1 1,0 1,-1 1,0 1,-1 1,0 1,-1 2,0 1,-1 1,0 1,-1 1,0 1,-1 1,-1 1,0 1,-1 1,0 1,-1 1,0 1,-1 0,-1 -1,-1 0,-1 -1,-1 0,-1 -1,-1 -1,-1 0,-1 -1,-1 0,-1 -1,-1 0,-1 -1,-1 -1,-1 0,-1 -1,-1 0,-1 -1,-1 0,-1 -1,-1 0,-2 -1,-1 0,-2 -1,-1 0,-2 -1,-1 0,-3 -1,0 0,1 -1,1 -2,0 -1,1 -1,0 -1,1 -2,0 -1,1 -2,0 -1,1 -1,0 -1,1 -2,0 -1,1 -1,0 -1,1 -1,0 -1,1 -1,0 -1,1 -1,0 -1,1 -1,0 -1,1 -1,0 -1,1 -1,0 -1,1 -1,0 -1,1 -1,0 -1,1 -1,1 -1,0 -1,1 -1,0 -1,1 -1,1 -1,0 -1,1 -1,0 -1,1 -1,0 -1,1 -1,1 -1,0 -1,1 -1,1 -2,0 0,1 -1,1 -1,1 -2,0 0,1 -2,2 -2,0 0,1 -1,1Z"/>
<path onmouseover="hoverPath(evt)" onmouseout="recoverPath(evt)" fill="rgb(243,242,235)" d="M  166,224l 0,1 1,1 0,5 -1,1 0,3 1,1 0,2 1,1 0,2 1,1 0,2 1,1 0,1 1,1 0,3 4,0 1,-1 3,0 1,1 1,0 0,-2 1,-1 1,0 1,-1 1,0 1,-1 1,0 1,-1 4,0 1,1 0,-2 1,-1 3,0 1,1 1,0 0,-2 1,-1 1,0 1,-1 1,0 1,-1 1,0 1,-1 1,0 1,-1 1,-1 1,0 1,-1 1,0 1,-1 1,0 1,-1 1,0 1,-1 1,0 0,-4 -1,-1 0,-4 -1,-1 0,-3 -1,-1 0,-2 -1,-1 0,-1 -2,0 -1,-1 0,-1 -1,-1 0,-2 1,-1 -1,-1 0,0 -1,-1 -1,0 -1,-1 0,-1 -2,0 -1,-1 -1,-1 -1,-1 -1,-1 -1,-1 -1,-1 -1,-1 -1,-1 0,-3 -1,-1 -1,-1 0,1 -1,1 0,1 -1,1 0,2 -1,1 0,1 -1,1 0,1 -1,1 0,1 -1,1 0,1 -1,1 -1,1 0,1 -1,1 -1,1 0,1 -1,1 -1,1 -1,0 -1,1 -1,1 -1,1 -1,1 -1,1 -1,1 -1,1 -1,0 -1,1 -1,1 -1,0 -1,1 -1,0 -1,1 -1,0 -1,1Z"/>
<path onmouseover="hoverPath(evt)" onmouseout="recoverPath(evt)" fill="rgb(241,244,246)" d="M  208,160l -2,0 0,1 -1,1 -1,1 -1,1 -1,1 -1,1 0,1 -1,1 -1,1 -1,0 0,2 -1,1 -1,1 0,4 -1,1 0,1 -1,1 0,1 -1,1 -2,0 -1,-1 -1,-1 -1,-1 -1,-1 0,-1 -1,0 -1,-1 -1,-1 -1,-1 -1,-1 -1,-1 -1,-1 -1,0 -1,-1 -1,-1 -1,-1 -1,-1 -1,-1 -1,-1 -1,-1 -1,-1 -1,-1 -1,-1 -1,-1 0,-1 -1,0 -1,-1 -1,-1 -1,-1 -1,0 -1,-1 -1,-1 -1,-1 -1,-1 -1,-1 -1,-1 -1,-1 -1,-1 -1,-1 0,-1 -1,0 0,1 1,1 0,0 1,1 1,1 0,1 1,0 1,1 1,1 1,1 1,1 1,1 1,1 1,1 1,1 1,1 1,1 0,1 1,0 1,1 1,1 1,1 1,0 1,1 1,1 1,1 1,1 1,1 1,1 1,1 1,1 1,1 1,1 1,1 1,1 1,1 1,1 0,1 1,0 1,1 1,1 1,1 1,1 0,1 1,0 1,1 1,1 1,1 1,0 1,1 1,1 1,1 0,3 1,1 3,3 1,1 1,1 1,1 2,0 1,1 0,1 1,0 1,1 1,1 1,1 0,2 -1,1 1,1 0,1 2,0 1,1 0,1 1,1 0,2 1,1 0,3 1,1 0,4 1,1 0,6 -1,1 -1,0 -1,1 -1,0 -1,1 -1,0 4,-1 3,0 1,1 0,1 1,1 0,3 1,1 0,2 1,1 0,2 1,1 0,1 1,1 0,1 1,1 0,1 1,1 0,2 1,0 0,-2 -1,-1 0,-1 -1,-1 0,-1 -1,-1 0,-2 -1,-1 0,-1 -1,-1 0,-2 -1,-1 0,-3 -1,-1 0,-3 1,-1 1,0 1,-1 1,0 1,-1 3,0 1,-1 2,0 1,-1 3,0 1,-1 4,0 1,1 1,1 0,3 1,1 0,1 1,1 0,1 8,0 0,-14 -3,0 -1,1 -3,0 -1,1 -2,0 -1,1 -2,0 -1,1 -3,0 -1,1 -2,0 -1,1 -3,0 -1,1 -2,0 -1,1 -4,0 -1,-1 0,-1 -1,-1 0,-1 -1,-1 0,-4 -1,-1 0,-3 -1,-1 0,-2 -1,-1 0,-1 -1,-1 0,-2 -1,-1 -1,-1 0,-1 -1,-1 0,-1 -1,-1 0,-1 -1,0 -1,-1 -1,-1 -1,-1 -1,-1 0,-1 -1,-1 0,-1 -1,0 -1,-1 -1,-1 -1,-1 0,-1 -1,0 -1,-1 -1,-1 0,-1 -1,0 -1,-1 -1,-1 -1,-1 0,-2 1,-1 1,0 0,-1 2,-2 0,-1 1,-1 0,-2 1,-1 1,0 0,-2 1,-1 1,0 1,-1 1,-1 1,-1 0,-2 1,-1 1,0 0,-1 1,-1 1,-1 1,-1 0,-2 1,-1 1,-1 1,0 1,-1 2,0 1,1 1,0 1,-1 2,0 1,-1 2,0 1,-1 2,0 1,-1 2,0 1,-1 2,0 1,-1 2,0 1,-1 1,0 1,-1 2,0 1,1 2,0 1,1 0,1 1,1 1,1 0,1 1,1 0,1 1,1 0,1 1,1 0,2 -1,1 2,0 1,1 0,1 1,0 0,-29 -1,0 -1,1 -1,0 -1,1 -2,0 -1,1 -2,0 -1,1 -2,0 -1,-1 -1,-1 0,-1 -1,-1 0,-1 -1,-1 0,-1 -1,-1 0,-1 -1,-1 0,-1 -1,-1 0,-1 -1,-1 -1,-1 0,-1 -1,-1 0,-1 -1,-1 0,-1 -1,-1 0,-1 -1,-1 0,-1 -1,-1 0,-1 -1,-1 0,-1 -1,-1 0,-2 -1,-1 -1,0 0,3 1,1 0,2 1,1 0,2 1,1 0,2 1,1 0,1 1,1 0,1 1,1 0,1 1,1 1,1 0,1 1,1 0,1 1,1 0,1 1,1 1,1 0,1 1,1 0,1 1,1 0,3 -1,1 -1,1 -1,0 -1,1 -1,0 -1,1 -1,0 -2,2 -1,0 -1,1 -1,0 -1,1 -2,0 -1,1 -1,0 -1,1 -1,0 -1,1 -1,0 -1,1 -1,0 -1,1 -1,1 -1,0 -1,1 -1,1 -1,0 -1,1 -1,1Z"/>
<path onmouseover="hoverPath(evt)" onmouseout="recoverPath(evt)" fill="rgb(243,241,233)" d="M  228,55l -1,0 -1,1 -3,0 -1,1 1,0 1,1 0,3 1,1 1,1 -1,-5 2,0 1,1 1,0 1,1 1,1 1,0 1,1 2,0 1,1 1,1 0,2 1,1 0,1 1,1 0,2 1,1 1,1 0,3 1,1 1,1 0,3 1,1 0,1 1,1 0,1 1,1 0,1 1,1 0,1 3,0 1,-1 1,0 1,-1 2,0 0,-48 -1,0 -1,1 0,0 -1,1 -1,1 -1,1 -1,1 -1,1 -1,1 0,1 -1,1 -2,0 -1,1 -1,0 -1,1 -1,0 -1,1 -1,0 -1,1 -3,0 -1,1 -1,0 -1,1 -2,0 -1,1Z"/>
<path onmouseover="hoverPath(evt)" onmouseout="recoverPath(evt)" fill="rgb(244,243,235)" d="M  0,233l 0,22 10,0 0,-2 1,-1 1,0 0,-1 1,-1 1,-1 0,-1 1,-1 0,-1 1,-1 0,-1 1,-1 0,-2 1,-1 -1,-1 0,-2 -1,-1 0,-2 -1,-1 0,-2 -1,-1 0,-2 -1,-1 0,-2 -1,0 -1,1 -1,0 -1,1 -1,0 -1,1 -1,1 -1,0 -1,1 -1,0 -1,1 -2,0Z"/>
<path onmouseover="hoverPath(evt)" onmouseout="recoverPath(evt)" fill="rgb(241,240,229)" d="M  188,0l -1,0 0,2 1,1 0,2 1,1 0,2 1,1 0,1 1,1 0,2 1,1 1,0 1,-1 1,0 1,-1 2,0 1,-1 1,0 1,-1 2,0 1,-1 2,0 1,-1 1,0 1,-1 2,0 1,-1 0,-2 -1,-1 0,-3Z"/>
<path onmouseover="hoverPath(evt)" onmouseout="recoverPath(evt)" fill="rgb(243,242,235)" d="M  221,216l 0,3 1,1 0,4 1,1 0,1 1,1 0,1 2,0 1,-1 2,0 1,-1 3,0 1,-1 2,0 1,-1 3,0 1,-1 2,0 1,-1 2,0 1,-1 3,0 1,-1 4,0 0,-53 -2,0 -1,-1 0,-1 -2,0 -1,-1 0,-2 1,-1 -1,-1 0,-1 -1,-1 0,-1 -1,-1 0,-1 -1,-1 -1,-1 0,-1 -2,0 -1,-1 -1,1 -1,0 -1,1 -2,0 -1,1 -2,0 -1,1 -2,0 -1,1 -2,0 -1,1 -2,0 -1,1 -2,0 -1,1 -3,0 -1,-1 -1,1 -1,0 -1,1 0,2 -1,1 -1,1 -1,1 0,1 -1,1 -1,0 0,2 -1,1 -3,3 -1,0 0,2 -1,1 -1,0 0,2 -1,1 0,1 -1,1 -1,1 0,1 -1,1 -1,0 1,1 0,0 1,1 1,0 1,1 0,1 1,1 1,0 1,1 0,1 1,1 1,1 1,0 1,1 0,1 1,1 0,1 1,1 1,1 1,1 1,0 1,1 0,1 1,1 0,1 1,1 0,1 1,1 1,1 0,2 1,1 0,1 1,1 0,2 1,1Z"/>
<path onmouseover="hoverPath(evt)" onmouseout="recoverPath(evt)" fill="rgb(244,243,236)" d="M  44,210l -1,0 0,2 1,1 0,0 1,1 0,1 1,1 1,1 0,1 1,1 0,1 1,1 1,1 0,1 1,1 1,1 1,1 0,1 1,1 1,1 1,1 0,1 1,1 1,1 1,1 0,1 3,3 1,1 0,1 1,1 1,1 1,1 1,1 1,1 1,1 1,1 1,0 1,1 1,1 1,0 1,1 1,0 1,1 1,0 1,1 1,1 1,0 1,1 0,1 29,0 0,-2 1,-1 1,-1 1,0 1,-1 1,0 1,-1 1,0 1,-1 1,-1 1,0 1,-1 1,-1 1,-1 1,0 1,-1 1,-1 1,-1 0,-1 1,-1 1,-1 1,-1 1,-1 1,-1 1,-1 1,-1 1,-1 1,-1 1,-1 1,0 1,-1 1,-1 1,0 1,-1 1,0 1,-1 1,-1 1,0 1,-1 1,0 1,-1 1,-1 1,0 1,-1 1,0 1,-1 1,-1 1,0 1,-1 1,-1 1,0 1,-1 1,-1 1,0 1,-1 1,-1 1,0 1,-1 1,0 1,-1 1,-1 1,-1 1,0 1,-1 1,-1 1,-1 1,-1 1,-1 1,-1 1,-1 1,-1 0,-1 1,-1 1,-1 0,-1 1,-1 0,-1 1,-1 0,-1 1,-1 0,-1 1,-1 0,-1 1,-1 1,-1 0,-1 1,-1 -1,-1 0,0 -1,-1 -1,-1 -1,0 -1,-1 0,-1 -1,-1 -1,-1 -1,-1 -1,-1 -1,-1 -1,-1 -1,-1 -1,-1 -1,-1 -1,-1 -1,-1 -1,-1 -1,-1 -1,0 -1,-1 -1,-1 -1,-1 -1,0 -1,-1 0,-1 -1,-1 -1,-1 -1,-1 -1,-1 -1,-1 -1,-1 -1,-1 -1,-1 -1,-1 -3,0 -1,-1 -1,-1 -1,-1 -2,0 -1,1 -1,0 -1,1 -1,0 -1,1 -1,1 -1,0 -1,1 -1,0 -2,2 -1,0 -1,1 -1,0 -1,1 -1,1 -1,0 -1,1 -1,0 -1,1 -1,1 -1,0 -1,1 -1,0 -1,1 -1,0 -1,1 -1,0 -1,1 -1,1 -1,0 -1,1 -1,0 -1,1 -1,0 -1,1 -1,0 -1,1 -1,1 -1,0 -1,1 -1,0 -1,1 -1,0 -1,1 -1,0 -1,1 -4,0 0,2 -1,1 -1,0 -1,1 -1,1 -1,0 -1,1 -1,0 -1,1 -1,0 -1,1 -1,1 -1,0 -1,1 -1,0 -1,1 -1,1 -1,0 -1,1 -1,0 -1,1 -1,1 -1,0 -1,1 -1,0 -1,1 -1,1 -1,0 -1,1 -1,1 -3,0 -1,1 -3,0 0,2 -1,1 -1,0 -1,1 -1,0 -1,1 -1,1 -1,0 -1,1 -1,0 -1,1 -1,0 -1,1 -1,1 -1,0 -1,1 -1,0 -1,1Z"/>
<path onmouseover="hoverPath(evt)" onmouseout="recoverPath(evt)" fill="rgb(243,242,234)" d="M  86,130l 0,4 -1,1 0,2 1,1 0,1 2,0 1,1 0,1 1,1 0,2 1,1 0,4 -1,1 0,1 2,0 1,1 0,1 1,1 0,1 1,1 0,7 1,1 0,2 1,1 0,2 1,-2 1,0 1,-1 1,0 1,-1 1,0 1,-1 1,-1 1,0 1,-1 1,0 1,-1 1,0 1,-1 1,-1 1,0 1,-1 1,0 1,-1 1,0 1,-1 0,-1 1,-1 1,0 0,-2 1,-1 2,0 1,1 1,0 1,-1 1,0 1,-1 1,0 1,-1 0,-1 -1,-1 0,-3 -1,-1 -1,-1 0,-2 -1,-1 0,-3 -1,-1 0,-1 -1,-1 0,-1 -1,-1 0,-2 -1,-1 0,-1 -1,-1 -1,-1 0,-3 -1,-1 -1,-1 0,-2 -1,-1 0,-3 -1,-1 -1,-1 0,-2 -1,-1 0,-3 -1,-1 -1,-1 0,-2 -1,-1 0,-2 -1,-1 0,-3 -1,-1 0,-1 -1,-1 0,-1 -1,-1 0,-3 -1,-1 0,-1 -1,-1 0,-2 -1,-1 0,-1 -1,-1 0,-2 -1,-1 -1,-1 0,-3 -1,-1 -1,-1 0,-2 -1,-1 0,-2 -1,-1 0,-3 -1,-1 0,-1 -1,-1 0,-1 -1,-1 0,-1 -4,0 -1,-1 -2,0 -1,1 -3,0 -1,1 -4,0 -1,1 -3,0 -1,1 -2,0 -1,1 -4,0 -1,1 -3,0 -1,1 -3,0 -1,1 -3,0 -1,1 -4,0 -1,1 -2,0 -1,1 -4,0 -1,1 -3,0 -1,1 -4,0 -1,1 -2,0 -1,1 -4,0 -1,1 -1,0 -1,1 1,1 0,2 2,0 1,1 0,2 -1,1 0,1 1,1 0,2 1,1 0,2 2,0 1,1 0,2 -1,1 0,1 1,1 0,2 1,1 0,2 1,1 0,1 1,1 2,0 1,-1 4,0 1,1 0,2 -1,1 -2,0 -1,1 -3,0 1,1 0,3 1,1 0,2 1,1 0,2 1,1 0,2 1,1 0,2 2,0 1,1 0,2 -1,1 0,1 1,1 0,2 1,1 0,2 1,1 0,1 1,1 0,1 2,0 1,-1 3,0 1,-1 3,0 1,-1 2,0 1,-1 3,0 1,-1 3,0 1,-1 3,0 1,-1 2,0 1,-1 3,0 1,-1 3,0 1,-1 2,0 1,-1 3,0 1,-1 2,0 1,-1 4,0 1,-1 4,0 1,1 0,3 -1,1 -2,0 -1,1 -3,0 -1,1 -3,0 -1,1 -2,0 -1,1 0,1 33,18 -2,0 -1,-1 0,-1 -1,-1 0,-2 1,-1 2,0 1,1 0,1 1,1 0,2 -1,1 -33,-18 28,9 -2,0 -1,-1 0,-2 1,-1 2,0 1,1 0,2 -1,1 -28,-9Z"/>
<path onmouseover="hoverPath(evt)" onmouseout="recoverPath(evt)" fill="rgb(244,242,235)" d="M  138,90l 0,0 1,1 0,2 1,1 0,2 1,1 0,1 1,1 0,2 1,1 0,1 1,1 0,2 1,1 0,1 1,1 0,2 1,1 0,1 1,1 0,2 1,1 0,1 1,1 0,2 1,1 0,1 1,1 0,2 1,1 0,1 1,1 0,2 1,1 0,1 1,-1 2,0 0,-1 1,-1 1,-1 2,0 0,-1 1,-1 1,-1 1,0 1,-1 1,-1 1,0 1,-1 1,0 1,-1 1,-1 1,0 1,-1 1,0 1,-1 1,0 1,-1 1,-1 1,0 1,-1 1,0 1,-1 1,0 1,-1 1,-1 1,0 1,-1 1,0 1,-1 1,0 1,-1 1,0 1,-1 1,0 1,-1 1,0 1,-1 -1,-1 0,-1 -1,-1 0,-1 -1,0 0,2 -1,1 -4,0 -1,-1 0,-2 -1,-1 -1,-1 -5,0 -1,-1 -1,-1 0,-1 -1,-1 0,-1 -1,-1 0,-1 -1,-1 0,-6 1,-1 2,0 -2,-1 0,-2 -1,2 -2,0 -1,1 -6,0 -1,-1 -3,0 -1,1 -8,0 -1,1 -2,0 -1,-1 -1,0 -1,-1 -2,0 -1,-1 -1,0 -1,1 -3,0 0,2 -1,1 -2,0Z"/>
<path onmouseover="hoverPath(evt)" onmouseout="recoverPath(evt)" fill="rgb(241,239,228)" d="M  143,10l 0,1 1,1 0,1 1,1 0,1 1,1 0,1 1,1 0,1 1,1 0,1 1,1 0,1 1,1 0,1 1,1 0,2 3,0 1,-1 2,0 1,-1 1,0 1,-1 2,0 1,-1 2,0 1,-1 2,0 1,-1 2,0 1,-1 2,0 1,-1 2,0 1,-1 2,0 1,-1 1,0 1,-1 2,0 1,-1 0,-2 -1,-1 0,-2 -1,-1 0,-1 -1,-1 0,-2 -1,-1 0,-1 -1,0 -1,-1 -1,1 -2,0 -1,1 -8,0 -1,1 -1,0 0,4 -1,1 -2,0 -1,-1 0,-1 -1,-1 0,-2 -5,0 -1,1 -8,0 -1,1 -4,0 0,1 1,1Z"/>
<path onmouseover="hoverPath(evt)" onmouseout="recoverPath(evt)" fill="rgb(242,240,231)" d="M  155,57l -2,2 -1,1 -1,1 0,1 -1,1 -1,0 -1,1 -1,0 0,4 1,1 0,2 1,1 0,1 1,1 0,3 1,1 0,2 1,1 1,1 1,0 1,1 0,1 7,0 1,-1 5,0 1,1 4,0 1,-1 2,0 0,-1 1,-1 2,0 1,1 0,2 1,0 1,1 0,2 -1,1 -2,0 0,4 2,0 1,1 0,1 1,1 0,2 -1,1 1,1 5,0 1,1 1,1 1,1 0,2 2,0 0,-2 1,-1 3,0 1,1 0,1 1,1 0,1 1,1 2,0 1,-1 1,0 1,-1 2,0 1,-1 1,0 1,-1 1,0 1,-1 2,0 1,-1 2,0 0,-2 1,-1 -1,-1 0,-2 -1,-1 0,-1 -1,-1 0,-2 -5,0 -1,-1 0,-2 1,-1 1,-1 1,0 0,-2 -1,-1 0,-2 -2,0 -1,-1 0,-2 1,-1 0,-1 -1,-1 0,-1 -1,-1 0,-2 -5,0 -1,1 -3,0 -1,-1 -2,0 -1,1 -2,0 -1,1 -2,0 0,2 -1,1 -8,0 -1,-1 0,-1 -1,-1 -1,-1 -1,0 -1,-1 -1,-1 -1,-1 -2,0 -1,-1 0,-1 -1,-1 -1,-1 -1,0 -1,-1 -1,-1 -1,-1 -2,0 -1,-1 0,-1 -1,-1 -1,-1 -3,0 -1,1Z"/>
<path onmouseover="hoverPath(evt)" onmouseout="recoverPath(evt)" fill="rgb(244,243,234)" d="M  0,139l 0,14 2,0 1,1 0,2 1,1 0,1 1,1 0,2 1,1 0,2 1,1 0,2 1,1 0,2 1,1 0,1 1,1 0,3 -1,1 0,2 1,1 0,1 2,0 1,1 0,2 1,1 1,1 2,0 1,1 2,0 1,1 1,0 1,1 1,1 1,1 1,0 1,1 1,1 1,1 1,1 1,1 1,1 1,1 1,1 0,1 1,1 1,1 2,0 1,-1 1,0 1,-1 1,0 1,-1 1,-1 1,0 1,-1 1,0 1,-1 1,0 1,-1 1,-1 1,0 1,-1 1,0 1,-1 1,0 1,-1 1,0 0,-2 -1,-1 0,-2 -1,-1 0,-2 -2,0 -1,-1 0,-2 1,-1 0,-1 -1,-1 0,-2 -1,-1 0,-2 -1,-1 0,-2 -1,-1 0,-2 -2,0 -1,-1 0,-2 1,-1 0,-1 -1,-1 0,-2 -2,0 -1,-1 0,-2 1,-1 0,-1 -1,-1 0,-2 -1,-1 0,-2 -2,0 -1,-1 0,-2 1,-1 0,-1 -2,0 -1,-1 0,-2 -1,-1 0,-3 1,-1 -1,-1 0,-3 -1,-1 -1,-1 0,-2 -2,0 1,1 0,0 1,2 0,6 -1,1 -1,1 -2,0 -1,1 -4,0 -1,-1 -2,0 -1,1 -3,0 -1,1 -3,0 0,2 -1,1 -2,0 -1,1 -5,0 -1,-1 -1,-1 -1,-1 0,-1 -1,-1 0,-2 -1,-1 0,-2 -1,0Z"/>
<path onmouseover="hoverPath(evt)" onmouseout="recoverPath(evt)" fill="rgb(244,243,235)" d="M  81,3l 0,0 -1,1 0,1 1,1 0,2 1,1 0,2 1,1 0,2 1,1 0,1 1,1 0,2 1,1 0,2 1,1 0,1 1,1 0,2 1,1 0,3 1,1 1,1 0,3 1,1 1,1 0,3 1,1 1,1 0,4 1,0 1,-1 3,0 1,-1 3,0 1,-1 4,0 0,-3 -1,-1 0,-1 -1,-1 0,-2 -1,-1 0,-1 -1,-1 0,-2 -1,-1 0,-1 -1,-1 0,-2 -1,-1 0,-2 -1,-1 0,-1 -1,-1 0,-2 -1,-1 0,-1 -1,-1 0,-2 -1,-1 0,-1 -1,-1 0,-2 -1,-1 0,-1 -1,-1 0,-3 1,-1 0,-1 -12,0 0,1 -1,1 -1,1Z"/>
<path onmouseover="hoverPath(evt)" onmouseout="recoverPath(evt)" fill="rgb(251,251,248)" d="M  119,43l 0,1 1,0 1,-1 2,0 1,-1 2,0 1,-1 1,0 1,-1 2,0 1,-1 2,0 1,-1 1,0 1,-1 2,0 1,-1 2,0 1,-1 1,0 1,-1 3,0 1,1 1,1 1,1 0,-2 1,-1 1,0 1,-1 1,0 1,-1 3,0 1,-1 2,0 1,1 0,-1 1,-1 0,0 1,-1 2,0 1,-1 2,0 1,-1 5,0 0,-3 1,-1 2,0 1,-1 1,0 1,-1 2,0 1,-1 5,0 1,1 0,2 1,1 0,1 1,1 0,2 1,1 0,1 1,1 0,2 1,1 0,2 1,1 0,4 -1,1 2,0 1,1 1,1 0,2 1,1 0,3 -1,1 2,0 1,1 0,3 -1,1 2,0 1,1 0,2 1,1 0,5 -1,1 -1,0 -1,1 5,0 1,1 0,2 1,1 0,1 1,1 0,3 -1,1 2,0 1,1 0,2 1,1 0,4 -1,1 -1,0 -1,1 5,0 1,1 0,2 1,1 0,1 1,1 0,2 1,1 0,1 1,1 0,1 1,0 0,-1 -1,-1 0,-2 -1,-1 0,-1 -1,-1 0,-2 -1,-1 0,-1 -1,-1 0,-2 -1,-1 0,-1 -1,-1 0,-2 -1,-1 0,-2 -1,-1 0,-1 -1,-1 0,-2 -1,-1 0,-1 -1,-1 0,-2 -1,-1 0,-1 -1,-1 0,-3 1,-1 1,-1 -2,0 -1,-1 -1,-1 0,-1 -1,-1 0,-1 -1,-1 0,-2 -1,-1 0,-1 -1,-1 0,-2 -1,-1 0,-1 -1,-1 0,-2 -1,-1 0,-2 -1,-1 0,-1 -1,-1 0,-2 -1,-1 0,-1 -1,-1 0,-2 -1,-1 0,-2 -1,-1 0,-1 -1,-1 0,-4 1,-1 1,0 1,-1 2,0 1,-1 2,0 1,-1 1,0 1,-1 5,0 1,1 1,1 0,1 -1,-3 0,-1 1,-1 1,-1 2,0 1,-1 2,0 1,-1 1,0 1,-1 5,0 1,1 0,-2 1,-1 1,-1 1,0 1,-1 4,0 1,1 0,-2 1,-1 0,-1 -22,0 0,2 1,1 0,4 -1,1 -1,1 -2,0 -1,1 -1,0 -1,1 -2,0 -1,1 -2,0 -1,1 -1,0 -1,1 -2,0 -1,1 -1,0 -1,1 -3,0 -1,-1 -1,-1 0,-2 -1,-1 0,-1 -1,-1 0,-2 -1,-1 0,-2 -1,-1 0,-3 -42,0 0,5 -1,1 -5,0 -1,1 3,0 1,1 0,2 1,1 0,1 1,1 0,1 1,1 0,1 1,1 0,1 1,1 0,1 1,1 0,1 1,1 0,3 -1,1 1,0 1,1 0,0 1,1 0,2 -1,1 -1,1 -2,0 -1,1 -2,0 -1,1 -2,0 -1,1 -1,0 -1,1 -2,0 -1,1 -2,0 -1,1 -1,0 -1,1 -2,0 -1,1 -2,0 -1,1 -1,0 -1,1 -1,0 31,-13 5,0 1,-1 2,0 1,-1 1,0 1,-1 2,0 1,-1 2,0 1,-1 2,0 1,-1 2,0 1,-1 3,0 1,-1 2,0 1,-1 1,0 1,-1 2,0 1,-1 1,0 1,-1 -37,12 -31,13 30,-15 0,-1 -1,-1 0,1 -8,-20 0,0 3,-1 2,0 1,-1 8,0 1,-1 7,0 1,1 0,2 1,1 0,-3 1,-1 1,0 1,-1 8,0 1,-1 2,0 1,-1 2,0 1,1 1,0 1,1 0,1 1,1 0,2 1,1 0,1 1,1 0,2 1,1 0,3 -39,12 -30,15Z"/>
<path onmouseover="hoverPath(evt)" onmouseout="recoverPath(evt)" fill="rgb(242,240,228)" d="M  226,234l -1,0 0,1 1,1 0,3 1,1 0,2 1,1 0,1 1,1 0,2 1,1 0,1 1,1 0,1 1,1 0,3 23,0 0,-17 -9,0 -1,-1 0,-1 -1,-1 0,-1 -1,-1 0,-3 -1,-1 -2,0 -1,1 -3,0 -1,1 -2,0 -1,1 -3,0 -1,1 -1,0 -1,1Z"/>
<path onmouseover="hoverPath(evt)" onmouseout="recoverPath(evt)" fill="rgb(242,241,231)" d="M  0,108l 0,23 2,0 1,1 0,2 1,1 0,2 1,1 0,1 1,1 1,1 3,0 1,-1 2,0 0,-2 1,-1 3,0 1,-1 3,0 1,-1 4,0 1,1 2,0 1,-1 2,0 1,-1 0,-5 -1,-1 0,0 -1,-1 0,-2 1,-1 2,0 0,-2 -1,-1 0,-2 -1,-1 0,-2 -1,-1 0,-1 -1,-1 0,-2 -1,-1 0,-1 -1,0 0,5 -1,1 -2,0 -1,-1 0,-1 -1,-1 0,-4 1,-1 1,-1 1,-1 1,0 0,-3 -7,0 -1,-1 0,-2 1,-1 2,0 0,-5 -1,-1 0,-2 -1,-1 0,-2 -1,-1 0,-1 -1,-1 0,-1 -1,-1 0,-1 -6,0 -1,1 -4,0 -1,1 -5,0Z"/>
<path onmouseover="hoverPath(evt)" onmouseout="recoverPath(evt)" fill="rgb(242,242,234)" d="M  4,196l 0,0 -1,-1 0,-2 -1,-1 0,-1 -1,-1 -1,0 0,35 1,0 1,-1 1,0 1,-1 1,0 1,-1 1,0 1,-1 1,0 1,-1 0,-5 -1,-1 0,-3 -1,-1 0,-1 -1,-1 0,-2 -1,-1 0,-1 -1,-1 -1,-1 0,-1 -1,-1 0,-3 1,-1Z"/>
<path onmouseover="hoverPath(evt)" onmouseout="recoverPath(evt)" fill="rgb(172,198,234)" d="M  14,188l 0,0 -1,-1 -1,-1 1,2 0,0 1,1 0,1 1,1 0,1 1,0 1,1 1,1 1,0 1,1 1,1 1,0 1,1 1,1 1,1 1,1 1,1 1,1 1,1 1,1 0,1 1,1 3,0 1,-1 0,-1 -1,-1 0,0 -1,-1 -1,-1 0,-1 -1,-1 -1,-1 -1,-1 -1,-1 -1,-1 -1,-1 -1,-1 -1,0 -1,-1 -1,-1 -1,-1 -1,0 -1,-1 -2,0 -1,-1Z"/>
<path onmouseover="hoverPath(evt)" onmouseout="recoverPath(evt)" fill="rgb(242,240,230)" d="M  48,139l -2,0 0,2 1,1 0,2 1,1 0,2 1,1 0,1 1,1 0,2 1,1 0,2 1,1 0,1 1,1 0,2 1,1 0,2 1,1 0,2 1,1 0,2 1,1 0,1 1,1 0,2 1,1 0,2 1,1 0,2 1,1 0,2 1,1 0,2 2,0 1,1 1,-1 0,0 1,-1 1,0 1,-1 1,0 1,-1 1,-1 1,0 1,-1 1,0 1,-1 1,-1 1,0 1,-1 2,0 1,1 1,-1 1,-1 1,0 1,-1 1,0 0,-2 1,-1 1,-1 2,0 1,1 1,-1 0,-1 1,-1 1,0 0,-2 -1,-1 0,-2 -1,-1 0,-7 -1,-1 0,-1 -1,-1 0,-1 -2,0 -1,-1 0,-3 1,-1 0,-2 -1,-1 0,-2 -1,-1 0,-1 -2,0 -1,-1 0,-1 -1,-1 0,-3 -1,-1 -1,-1 0,-1 -3,0 -1,1 -4,0 -1,1 -2,0 -1,1 -2,0 0,4 -1,1 -2,0 -1,-1 0,-2 -4,0 -1,-1 -1,0 -1,1 -2,0 -1,1 -4,0 -1,1Z"/>
<path onmouseover="hoverPath(evt)" onmouseout="recoverPath(evt)" fill="rgb(244,243,236)" d="M  128,252l -1,1 -1,1 0,1 41,0 0,-2 1,-1 3,0 -2,-1 0,-3 -1,-1 0,-1 -1,-1 0,-2 -1,-1 0,-2 -1,-1 0,-2 -1,-1 0,-4 -1,-1 0,-2 -1,-1 -1,-1 -1,0 -1,1 -1,0 -1,1 -1,0 -2,2 -1,0 -1,1 -1,0 -1,1 -1,1 -1,0 -1,1 -1,1 -1,0 -3,3 -1,1 -1,1 -1,0 -1,1 -3,3 0,1 -3,3 -1,1 -1,0 -1,1 -1,1Z"/>
<path onmouseover="hoverPath(evt)" onmouseout="recoverPath(evt)" fill="rgb(242,240,230)" d="M  195,19l -1,0 0,2 1,1 0,1 1,1 0,2 1,1 0,2 1,1 0,1 1,1 0,2 1,1 0,1 1,1 0,2 1,1 0,2 1,1 0,1 1,1 0,2 1,1 0,1 1,1 0,2 1,1 0,1 1,1 0,1 1,1 1,0 1,-1 2,0 1,-1 1,0 1,-1 2,0 1,-1 3,0 1,1 2,0 1,-1 1,0 1,-1 2,0 1,-1 1,0 0,-6 -1,-1 0,-2 -1,-1 0,-2 -1,-1 0,-4 1,-1 0,-2 -2,0 -1,-1 0,-5 1,-1 0,-3 -1,-1 0,-3 1,-1 0,-1 -1,-1 0,-1 -1,-1 0,-2 -2,0 -1,-1 -3,0 -1,1 -1,0 -1,1 -2,0 -1,1 -2,0 -1,1 1,1 0,2 1,1 0,2 -1,1 -2,0 -1,-1 0,-1 -1,-1 0,-1 -1,-1 -3,0 -1,1 -1,0 -1,1 -2,0 -1,1 -2,0 -1,1 19,6 2,0 1,1 0,2 -1,1 -2,0 -1,-1 0,-2 1,-1 -19,-6 29,23 0,2 -1,1 -2,0 -1,-1 0,-2 1,-1 2,0 1,1 -29,-23Z"/>
<path onmouseover="hoverPath(evt)" onmouseout="recoverPath(evt)" fill="rgb(243,242,233)" d="M  231,108l -1,0 -1,1 0,1 1,1 0,1 1,1 0,1 1,1 0,1 1,1 0,1 1,1 0,1 1,1 0,1 1,1 0,1 1,1 1,1 0,1 1,1 0,1 1,1 0,1 1,1 0,1 1,1 0,1 1,1 0,1 1,1 1,-1 2,0 1,-1 2,0 1,-1 1,0 1,-1 2,0 0,-34 -1,0 -1,1 -2,0 -1,1 -2,0 -1,1 -2,0 -1,1 -3,0 -1,1 -2,0 -1,1 -2,0 -1,1 -2,0 -1,1Z"/>
<path onmouseover="hoverPath(evt)" onmouseout="recoverPath(evt)" fill="rgb(172,198,236)" d="M  36,213l 0,1 1,1 1,1 0,1 1,1 0,1 1,1 1,1 0,1 1,1 0,1 1,1 2,2 1,1 0,1 1,1 1,1 1,1 0,1 1,1 1,1 1,1 1,1 0,1 1,1 1,1 1,1 0,1 1,1 2,2 1,1 1,0 1,1 0,1 1,0 1,1 1,1 1,1 0,1 1,0 1,1 0,2 12,0 -2,-1 0,0 -1,-1 -1,0 -1,-1 -1,0 -1,-1 -1,0 -1,-1 -1,-1 -1,0 -1,-1 -1,-1 -1,-1 -1,-1 -1,-1 -1,-1 -1,-1 -1,-1 0,-1 -1,-1 -1,-1 -1,-1 -1,-1 0,-1 -1,-1 -1,-1 -1,-1 0,-1 -1,-1 -1,-1 -1,-1 0,-1 -1,-1 -1,-1 -1,-1 0,-1 -1,-1 -1,-1 0,-1 -1,-1 0,-1 -1,-1 -1,-1 0,-1 -1,-1 -1,-1 0,-2 -2,0 -1,1 -1,0 -1,1Z"/>
<path onmouseover="hoverPath(evt)" onmouseout="recoverPath(evt)" fill="rgb(238,239,234)" d="M  99,52l -1,0 -1,1 -6,0 5,1 0,1 1,1 0,1 1,1 0,1 1,1 0,3 1,1 0,2 1,1 0,2 1,1 1,1 0,3 1,1 1,1 0,2 1,1 0,1 1,1 0,2 1,1 0,1 1,1 0,3 1,1 0,1 1,1 0,1 1,1 0,3 1,1 0,2 1,1 0,2 1,1 1,1 0,3 1,1 0,2 1,1 1,1 0,3 1,1 0,2 1,1 1,1 0,3 1,1 1,1 0,1 1,1 0,2 1,1 0,1 1,1 0,1 1,1 0,3 1,1 0,2 1,1 2,0 1,1 1,1 0,2 2,0 1,-1 0,0 1,-1 1,0 1,-1 1,0 1,-1 1,0 1,-1 1,-1 1,0 1,-1 -1,-1 0,-2 -1,-1 0,-2 -1,-1 0,-1 -1,-1 0,-2 -1,-1 0,-1 -1,-1 0,-2 -1,-1 0,-1 -1,-1 0,-2 -1,-1 0,-1 -1,-1 0,-2 -1,-1 0,-1 -1,-1 0,-2 -1,-1 0,-1 -1,-1 0,-2 -1,-1 0,-1 -1,-1 0,-2 -1,-1 0,-2 -5,0 -1,1 -3,0 -1,-1 -1,-1 -1,-1 0,-3 1,-1 2,0 1,1 0,1 5,0 0,-3 -1,-1 0,-2 -1,-1 0,-1 -1,-1 0,-2 -1,-1 0,-1 -1,-1 0,-2 -1,-1 0,-1 -1,-1 0,-3 -2,0 -1,-1 0,-2 1,-1 -1,-1 0,-2 -1,-1 0,-1 -1,-1 0,-2 -1,-1 0,-2 -1,-1 0,-1 -1,-1 0,-1 -1,0 -1,-1 -2,0 -1,1 -3,0 -1,1 -3,0 -1,1Z"/>
<path onmouseover="hoverPath(evt)" onmouseout="recoverPath(evt)" fill="rgb(243,241,233)" d="M  0,6l 0,10 2,0 1,-1 3,0 1,-1 3,0 1,-1 3,0 1,-1 4,0 1,-1 3,0 1,-1 3,0 1,-1 3,0 1,-1 3,0 1,-1 4,0 1,-1 3,0 1,-1 3,0 1,-1 3,0 1,-1 3,0 1,-1 3,0 1,-1 4,0 0,-1 -65,0Z"/>
<path onmouseover="hoverPath(evt)" onmouseout="recoverPath(evt)" fill="rgb(242,234,145)" d="M  19,212l -1,0 0,3 1,1 1,0 1,1 1,1 0,4 -1,1 -1,0 0,1 -1,1 -4,0 0,1 1,1 0,2 1,1 0,2 1,1 0,2 1,1 0,2 1,1 0,2 -1,1 0,2 -1,1 0,1 -1,1 0,1 -1,1 0,1 -1,1 -1,1 0,1 -1,1 -1,0 0,1 54,0 0,-1 -1,0 -1,-1 0,-1 -2,-2 -1,1 0,0 -1,1 -2,0 -1,-1 -1,-1 0,-1 -1,0 -1,-1 -1,1 -2,0 -1,-1 -1,0 -1,-1 -1,0 -1,-1 -1,0 -1,-1 0,1 -1,1 -2,0 -1,-1 -1,0 -1,-1 -4,-4 0,-2 -1,-1 -1,-1 -1,0 -1,-1 0,-4 1,-1 0,-1 -1,-1 0,-1 -1,-1 0,-3 -1,-1 0,-1 -1,-1 0,-4 1,-1 1,0 1,-1 1,0 1,-1 2,0 0,-2 1,-1 1,-1 1,0 1,-1 3,0 1,-1 1,0 1,-1 1,0 1,-1 1,0 1,-1 1,-1 1,0 1,-1 1,0 1,-1 1,0 1,-1 1,-1 1,0 1,-1 1,0 0,-2 1,-1 3,0 1,-1 3,0 1,-1 1,-1 1,0 1,-1 1,-1 1,0 1,-1 1,0 1,-1 1,-1 1,0 1,-1 1,0 1,-1 1,-1 1,0 1,-1 1,0 1,-1 1,-1 1,0 1,-1 1,0 1,-1 1,0 1,-1 1,-1 1,0 0,-2 1,-1 4,0 1,-1 1,0 1,-1 1,0 1,-1 1,0 1,-1 1,0 1,-1 1,-1 1,0 1,-1 1,0 1,-1 1,0 1,-1 1,0 1,-1 1,-1 1,0 1,-1 1,0 1,-1 1,0 1,-1 1,0 1,-1 1,-1 1,0 1,-1 1,0 1,-1 1,-1 1,0 1,-1 1,0 1,-1 1,-1 1,0 1,-1 1,0 1,-1 1,-1 1,0 1,-1 1,0 1,-1 4,0 0,-3 1,-1 3,0 1,1 0,-1 1,-1 1,-1 1,0 0,-1 1,-1 2,0 1,-1 0,-1 1,-1 2,0 1,-1 0,-1 1,-1 2,0 2,-2 1,0 2,-2 1,0 1,-1 1,0 1,-1 1,0 1,-1 1,-1 1,0 1,-1 1,0 1,-1 1,-1 1,0 1,-1 1,0 1,-1 1,0 1,-1 1,0 1,-1 1,0 1,-1 1,0 1,-1 1,0 1,-1 1,0 1,-1 1,0 1,-1 2,0 1,-1 1,0 1,-1 2,0 1,-1 2,0 1,-1 1,0 1,-1 2,0 0,-1 1,-1 2,0 1,-1 3,0 1,1 1,-1 1,0 1,-1 2,0 1,-1 2,0 1,-1 2,0 1,-1 3,0 1,-1 2,0 1,-1 2,0 1,-1 2,0 1,-1 2,0 0,-9 -1,0 -1,1 -1,0 -1,1 -5,0 -1,-1 0,2 -1,1 -1,0 -1,1 -2,0 -1,1 -2,0 -1,1 -3,0 -1,1 -2,0 -1,1 -1,0 -1,1 -3,0 0,1 -1,1 -3,0 -1,-1 0,1 -1,1 -2,0 -1,1 -2,0 -1,1 -1,0 -1,1 -1,0 -1,1 -2,0 -1,1 -1,0 -1,1 -3,0 -1,1 -1,1 -1,0 -1,1 -1,0 -1,1 -1,0 -1,1 -1,0 -1,1 -1,0 -1,1 -1,0 -1,1 -1,1 -1,0 -1,1 -1,0 -1,1 -1,0 -1,1 -1,1 -1,0 -1,1 -1,0 -1,1 -1,0 -2,2 -1,0 -1,1 -1,0 -1,1 -1,1 -1,0 -1,1 0,1 -1,1 -2,0 -1,1 0,1 -1,1 -2,0 -1,1 -2,0 -1,-1 0,-1 -1,-1 0,-2 -1,-1 0,-1 -1,-1 0,-2 -1,-1 0,-1 -1,-1 0,-2 -1,-1 0,-1 -1,-1 0,-2 -1,-1 0,-1 -1,-1 0,-2 -1,-1 0,-1 -1,-1 0,-2 -1,-1 0,-1 -1,-1 0,-2 -1,-1 0,-1 -1,-1 0,-2 -1,-1 0,-2 -1,-1 0,-4 1,-1 -2,0 -1,-1 0,-1 -1,-1 0,-1 -1,-1 0,-1 -1,-1 0,-2 -1,-1 0,-1 -1,-1 0,-2 -1,-1 0,-2 -1,-1 0,-2 -1,-1 0,-1 -1,-1 0,-2 -1,-1 0,-1 -1,-1 0,-2 -1,-1 0,-1 -1,-1 0,-2 -1,-1 0,-2 -1,0 -1,-1 0,-1 -1,-1 0,-4 -1,-1 0,-2 -1,-1 0,-1 -1,-1 0,-2 -1,-1 0,-1 -1,-1 0,-2 -1,-1 0,-2 -1,-1 0,-1 -1,-1 0,-4 1,-1 1,-1 -3,0 -1,-1 -1,-1 0,-1 -1,-1 0,-2 -1,-1 0,-1 -1,-1 0,-2 -1,-1 0,-4 -5,0 0,2 -1,1 0,1 1,1 0,1 1,1 0,2 1,1 0,1 1,1 0,2 1,1 0,1 1,1 0,2 1,1 0,1 1,1 0,2 1,1 0,2 1,1 0,1 1,1 0,2 1,1 0,1 1,1 0,2 1,1 0,1 1,1 0,3 1,0 1,1 1,1 0,2 -1,1 -1,0 2,1 0,1 1,1 0,1 1,1 0,2 1,1 0,2 1,1 0,1 1,1 0,2 1,1 0,2 -1,1 2,0 1,1 0,3 1,1 0,1 1,1 0,2 1,1 0,1 1,1 0,2 1,1 0,1 1,1 0,2 1,1 0,5 -1,1 -7,0 1,1 1,0 -3,-2 0,-1 9,2 2,0 1,1 0,2 1,1 0,2 1,1 0,1 1,1 0,2 1,1 0,1 1,1 0,2 1,1 0,1 1,1 0,2 1,1 0,1 1,1 0,2 1,1 0,1 1,1 0,2 1,1 0,1 1,1 0,2 1,1 0,1 1,1 0,2 1,1 0,2 1,1 0,2 -1,1 -1,1 -1,0 -1,1 -1,1 -1,0 -1,1 -1,0 -1,1 -1,0 -2,2 -4,0 -1,-1 0,-2 -1,-1 0,2 1,2 0,2 -1,1 -1,1 -1,0 -1,1 -1,0 -1,1 -3,0 -1,-1 0,2 -1,1 -1,0 0,1 -1,1 -1,1 -1,0 -1,1 -1,0 -1,1 -1,0 -1,1 -1,1 -1,0 -1,1 -1,0 -1,1 -1,0 -1,1 -1,1 -1,0 -1,1 -1,0 -1,1 -1,0 0,1 -1,1 -1,0 -1,1 -1,0 0,1 -1,1 -1,1 -2,0 -1,-1 -1,1 0,2 -1,1 -1,0 -1,1 -1,0 -1,1 -1,1 -2,0 -1,-1 -1,1 -1,0 -1,1 -1,1 -1,0 -1,1 -1,0 -2,2 -1,0 -1,1 -1,0 -1,1 -1,1 -2,0 -1,-1 0,3 -1,1 -2,0 -1,1 -1,0 -1,1 -1,0 -1,1 -1,0 -1,1 -1,0 -2,2 -1,0 -1,1 -1,0 -1,1 -1,0 -1,1 -1,1 -1,0 -1,1 -1,0 -1,1 -2,0 0,2 -1,1 -1,1 -4,0 -1,1 -1,0 -1,1 -1,1 -5,0 -1,-1 0,1 -1,1 -1,0 226,-123 -1,-1 0,-1 -1,-1 0,-1 2,4 -226,123Z"/>
<path onmouseover="hoverPath(evt)" onmouseout="recoverPath(evt)" fill="rgb(171,198,237)" d="M  113,254l 0,1 11,0 0,-2 1,-1 1,-1 1,-1 1,-1 1,-1 1,0 1,-1 1,-1 1,-1 0,-1 1,-1 1,-1 2,-2 1,-1 1,0 1,-1 1,-1 1,-1 1,-1 1,-1 1,0 1,-1 1,-1 1,0 1,-1 1,-1 1,0 1,-1 1,0 1,-1 1,-1 1,0 1,-1 1,0 1,-1 3,0 1,1 1,1 1,1 0,-1 -1,-1 0,-3 1,-1 1,-1 1,0 1,-1 1,0 1,-1 1,0 1,-1 1,-1 1,0 2,-2 1,-1 2,-2 1,-1 1,-1 1,0 1,-1 0,-1 1,-1 1,-1 0,-1 1,-1 1,-1 0,-1 1,-1 0,-1 1,-1 0,-1 1,-1 0,-1 1,-1 0,-2 1,-1 0,-1 1,-1 0,-1 -1,-1 0,0 -1,-1 -1,0 0,1 -2,2 0,1 -1,1 0,1 -1,1 0,1 -1,1 0,1 -1,1 0,1 -1,1 -1,1 0,1 -1,1 -1,1 -2,2 -1,1 -4,4 -1,0 -2,2 -1,1 -1,0 -1,1 -1,0 -1,1 -1,1 -1,0 -1,1 -1,1 -1,0 -1,1 -1,1 -1,0 -1,1 -1,1 -1,0 -1,1 -1,0 -1,1 -1,1 -1,0 -1,1 -1,0 -2,2 -1,0 -1,1 -1,0 -2,2 -1,0 -2,2 -1,1 -2,2 -1,1 -1,1 -1,1 -1,1 0,1 -1,1 -2,2 -1,1 -1,0 -1,1 -1,1 -1,1 -1,0 -1,1 -1,1 -1,0 -1,1 -1,0 -1,1 -1,0 -1,1Z"/>
<path onmouseover="hoverPath(evt)" onmouseout="recoverPath(evt)" fill="rgb(242,240,230)" d="M  163,57l 0,1 2,0 1,1 1,1 1,1 1,0 1,1 1,1 1,1 0,1 2,0 1,1 1,1 1,1 1,0 1,1 1,1 1,1 0,1 6,0 0,-2 1,-1 2,0 1,-1 2,0 1,-1 4,0 1,1 1,0 0,-2 1,-1 1,0 1,-1 1,0 0,-3 -1,-1 0,-2 -2,0 -1,-1 0,-2 1,-1 0,-1 -2,0 -1,-1 0,-2 1,-1 0,-1 -1,-1 0,-2 -1,-1 -4,0 -1,-1 0,-2 1,-1 2,0 0,-2 -1,-1 0,-2 -1,-1 0,-2 -1,-1 0,-1 -1,-1 0,-2 -1,-1 0,-1 -1,-1 0,-2 -3,0 -1,1 -2,0 -1,1 -1,0 -1,1 -2,0 0,3 -1,1 -5,0 -1,1 -2,0 -1,1 -2,0 -1,1 0,2 -1,1 -2,0 -1,-1 0,-1 -1,1 -3,0 -1,1 -1,0 -1,1 -1,0 0,2 1,1 0,1 1,1 0,1 1,1 0,2 1,1 0,2 -1,1 0,4 -3,3 -1,1 -1,1 -1,1 -1,1 -1,1 -1,0 -1,1 -2,0 -1,-1 -1,-1 0,1 1,1 0,2 1,1 0,2 1,1 0,-5 11,-9 4,0 1,1 1,1 1,1 15,-25 2,0 1,1 0,2 -1,1 -2,0 -1,-1 0,-2 1,-1 -15,25Z"/>
<path onmouseover="hoverPath(evt)" onmouseout="recoverPath(evt)" fill="rgb(243,241,233)" d="M  182,255l 45,0 0,-1 -1,-1 0,-1 -1,-1 0,-1 -1,-1 0,-1 -1,-1 0,-2 -1,-1 0,-2 -1,-1 0,-3 -1,-1 0,-1 -3,0 -1,1 -3,0 -1,-1 -1,1 -1,0 -1,1 0,2 -1,1 -2,0 -1,-1 0,2 -1,1 -2,0 -1,-1 0,2 -1,1 -3,0 -1,-1 -1,0 0,2 -1,1 -2,0 -1,-1 -2,0 -1,1 -1,0 -1,1 -1,0 -1,1 -1,0 0,2 -1,1 -3,0 -1,-1 -1,0 -1,1 -3,0 0,1 -1,1 -3,0 0,1Z"/>
<path onmouseover="hoverPath(evt)" onmouseout="recoverPath(evt)" fill="rgb(243,242,233)" d="M  211,61l 0,0 -1,1 0,1 1,1 0,1 1,1 0,2 1,1 0,1 1,1 0,2 1,1 0,1 1,1 0,2 1,1 0,2 1,1 0,1 1,1 0,2 1,1 0,1 1,1 0,2 1,1 0,1 1,1 0,2 1,1 2,0 1,-1 1,0 1,-1 2,0 1,-1 3,0 1,-1 2,0 1,-1 2,0 1,-1 1,0 -1,-1 0,-2 -1,-1 0,-2 -1,-1 0,-2 1,-1 0,-2 -2,-2 0,-3 -1,-1 -1,-1 0,-2 -2,0 -1,-1 0,-2 1,-1 0,-1 -1,-1 -1,0 -1,1 -2,0 -1,-1 0,-2 -1,-1 -1,0 -1,-1 2,2 0,2 -1,1 -2,0 -1,-1 -1,-1 -1,-1 0,-3 -1,0 -1,-1 0,-2 -3,0 -1,1 -1,0 -1,1 -2,0 0,2 -1,1 9,-6 0,0 -9,6Z"/>
<path onmouseover="hoverPath(evt)" onmouseout="recoverPath(evt)" fill="rgb(207,224,209)" d="M  6,200l 0,1 1,1 1,1 0,1 1,1 0,2 1,1 0,1 1,1 0,3 1,1 0,7 -1,1 -1,1 8,0 0,-1 1,-1 1,0 0,-2 -1,-1 -1,0 -1,-1 -1,-1 0,-5 1,-1 2,0 0,-1 1,-1 2,0 1,1 3,0 1,-1 0,0 1,-1 1,0 -1,-1 0,-1 -1,-1 -1,-1 -1,-1 -1,-1 -1,-1 -1,-1 -1,-1 -1,0 -1,-1 -1,-1 -1,0 -1,-1 -1,-1 -1,0 -1,-1 0,-1 -1,-1 0,-1 -1,-1 0,-1 -1,-1 0,-2 1,-1 0,-1 -2,0 -1,-1 0,-1 -1,-1 0,-4 1,-1 0,-1 -1,-1 0,-1 -1,-1 0,-2 -1,-1 0,-2 -1,-1 0,-2 -1,-1 0,-2 -1,-1 0,-1 -1,-1 0,-2 -1,0 0,33 2,0 1,1 1,1 0,1 1,1 0,2 1,1 0,2 -1,1 0,1 1,1 4,24 -1,-1 0,0 -1,1 -1,0 -1,1 -1,0 -1,1 -1,0 -1,1 -2,0 0,2 1,0 1,-1 1,0 1,-1 1,0 1,-1 1,-1 1,0 1,-1 1,0 -4,-24Z"/>
<path onmouseover="hoverPath(evt)" onmouseout="recoverPath(evt)" fill="rgb(250,249,245)" d="M  18,79l 0,0 1,1 0,1 1,1 0,1 1,1 0,1 1,1 0,2 1,1 0,2 1,1 0,7 -1,1 5,0 1,1 0,5 -1,1 -1,0 -1,1 -1,1 0,2 1,1 0,-3 3,-2 1,0 1,1 0,1 1,1 0,2 1,1 0,1 1,1 0,2 1,1 0,2 1,1 0,3 1,1 0,2 1,1 1,1 0,3 1,1 0,2 -1,1 0,1 1,1 0,2 2,0 1,1 0,3 -1,1 2,0 1,1 0,2 1,1 0,2 1,1 0,3 -1,1 2,0 1,1 0,2 1,1 0,3 -1,1 2,0 1,1 0,2 1,1 0,2 1,1 0,2 1,1 0,2 1,1 0,3 -1,1 2,0 1,1 0,2 1,1 0,2 1,1 0,2 1,0 0,-2 -1,-1 0,-2 -1,-1 0,-2 -1,-1 0,-2 -1,-1 0,-2 -1,-1 0,-2 -1,-1 0,-1 -1,-1 0,-2 -1,-1 0,-2 -1,-1 0,-2 -1,-1 0,-2 -1,-1 0,-1 -1,-1 0,-2 -1,-1 0,-2 -1,-1 0,-1 -1,-1 0,-2 -1,-1 0,-2 -1,-1 0,-4 1,-1 2,0 1,-1 4,0 1,-1 2,0 1,-1 3,0 1,1 4,0 1,1 0,-2 1,-1 2,0 1,-1 2,0 1,-1 4,0 1,-1 5,0 1,1 0,1 1,1 0,-2 -1,-1 0,-2 1,-1 1,0 1,-1 2,0 1,-1 3,0 1,-1 3,0 1,-1 2,0 0,-1 -2,0 -1,1 -4,0 -1,1 -2,0 -1,1 -3,0 -1,1 -2,0 -1,1 -3,0 -1,1 -3,0 -1,1 -2,0 -1,1 -3,0 -1,1 -3,0 -1,1 -3,0 -1,1 -2,0 -1,1 -3,0 -1,1 -3,0 -1,1 -4,0 -1,-1 0,-1 -1,-1 0,-1 -1,-1 0,-2 -1,-1 0,-2 -1,-1 0,-3 1,-1 -2,0 -1,-1 0,-2 -1,-1 0,-2 -1,-1 0,-2 -1,-1 0,-2 -1,-1 0,-3 -1,-1 0,-2 1,-1 3,0 1,-1 2,0 -7,1 -1,-1 0,0 -1,-1 0,-1 -1,-1 0,-2 -1,-1 0,-2 -1,-1 0,-3 1,-1 -2,0 -1,-1 0,-2 -1,-1 0,-2 -1,-1 0,-3 1,-1 -2,0 -1,-1 0,-2 -1,-1 0,-2 1,-1 1,-1 1,0 1,-1 4,0 1,-1 2,0 1,-1 4,0 1,-1 3,0 1,-1 4,0 1,-1 2,0 1,-1 4,0 1,-1 3,0 1,-1 3,0 1,-1 3,0 1,-1 4,0 1,-1 2,0 1,-1 3,0 1,-1 4,0 1,-1 3,0 1,-1 3,0 1,-1 6,0 1,-1 1,0 1,-1 3,0 1,-1 3,0 1,-1 3,0 1,-1 1,0 -1,-1 0,0 -1,1 -4,0 -1,1 -3,0 -1,1 -3,0 -1,1 -4,0 -1,1 -2,0 -1,1 -4,0 -1,1 -7,0 -1,-1 0,-3 2,-2 -3,0 -1,1 -2,0 -1,1 -5,0 -1,-1 0,1 2,1 2,0 1,1 1,1 1,1 0,2 -1,1 -3,0 -1,1 -2,0 -1,1 -3,0 -1,1 -4,0 -1,1 -2,0 -1,-1 0,-1 -1,-1 -1,0 0,3 -1,1 -1,0 -1,1 -4,0 -1,1 -2,0 -1,1 -4,0 -1,1 -3,0 -1,1 -4,0 -1,1 -2,0 -1,1 -4,0 -1,-1 -1,-1 0,-2 -1,-1 0,-3 2,-2 1,-1 0,-1 -1,0 -1,-1 -1,-1 0,-1 -1,-1 0,1 -1,1 -2,0 -1,-1 -1,0 -1,-1 -2,0 -1,-1 -1,1 -2,0 -1,-1 -1,0 0,31 4,0 1,-1 4,0 1,-1Z"/>
<path onmouseover="hoverPath(evt)" onmouseout="recoverPath(evt)" fill="rgb(251,250,248)" d="M  30,39l -1,0 -1,-1 -1,-1 0,2 -1,1 -1,1 3,0 1,1 0,-2 1,-1 -5,-5 -1,-1 3,0 1,-1 -1,0 -1,-1 0,0 -1,-1 -1,-1 0,-4 1,-1 0,-1 -1,0 -1,-1 0,-2 -4,0 -1,1 -3,0 -1,1 -5,0 -1,1 -2,0 -1,1 -5,0 0,1 2,0 4,-1 3,-1 2,0 4,-1 1,0 1,1 1,0 1,1 0,1 4,0 2,9 5,5 -7,-20 6,0 1,1 2,0 0,-2 1,-1 -1,0 -1,1 -3,0 -5,1 7,20Z"/>
<path onmouseover="hoverPath(evt)" onmouseout="recoverPath(evt)" fill="rgb(239,236,223)" d="M  47,55l 0,0 -1,-1 -3,0 -1,-1 -10,0 -1,1 -7,0 -1,-1 0,-2 1,-1 4,0 0,-5 -1,-1 0,-1 -6,0 -1,-1 0,-2 1,-1 3,0 1,-1 0,-2 -1,0 -1,-1 -2,0 -1,-1 0,-2 1,-1 1,0 0,-4 -4,0 -1,-1 0,-1 -1,0 -1,-1 -2,0 -1,1 -4,0 -1,1 -3,0 -1,1 -3,0 0,21 2,0 1,1 1,-1 2,0 1,1 2,0 1,1 1,0 1,1 0,-3 1,-1 2,0 1,1 0,2 1,1 0,1 1,1 1,0 1,1 0,3 -2,2 -1,1 0,1 1,1 0,2 1,1 2,0 1,-1 2,0 1,-1 4,0 1,-1 3,0 1,-1 4,0 1,-1 2,0 1,-1 4,0 1,-1 1,0 0,-2 -1,-1Z"/>
<path onmouseover="hoverPath(evt)" onmouseout="recoverPath(evt)" fill="rgb(244,242,233)" d="M  52,247l 0,0 1,-1 2,0 1,1 1,0 1,1 0,-1 -2,-2 -1,-1 -1,-1 0,-1 -2,-2 -1,-1 0,-1 -1,-1 -1,-1 -2,-2 0,-1 -1,-1 -1,-1 -1,-1 0,-1 -1,-1 -1,-1 -1,-1 -1,-1 0,-1 -1,-1 0,-1 -1,-1 -1,-1 0,-1 -1,-1 0,-1 -1,-1 -2,0 -1,1 -1,0 -1,1 -1,0 0,2 1,1 0,1 1,1 0,3 1,1 0,1 1,1 0,3 -1,1 0,2 1,0 2,2 1,1 0,2 1,1 1,1 1,1 1,1 1,0 1,1 0,-1 1,-1 2,0 1,1 1,0 1,1 1,0 1,1 1,0 1,1 7,1 -1,1 1,1 0,0 1,-1 0,-1 -1,1 0,-1 -7,-1Z"/>
<path onmouseover="hoverPath(evt)" onmouseout="recoverPath(evt)" fill="rgb(241,238,228)" d="M  59,19l 0,-3 -1,-1 0,-1 -1,0 -1,-1 -3,0 -1,-1 -1,1 -2,0 -1,1 -3,0 -1,1 -3,0 0,2 -1,1 -3,0 -1,1 -2,0 0,2 -1,1 -4,0 -1,-1 -3,0 2,1 0,3 -1,1 0,2 1,1 1,1 2,0 1,1 0,2 -1,1 -1,0 0,2 1,1 3,0 1,1 0,2 -1,1 -2,0 0,3 -1,1 0,6 -1,1 1,0 1,-1 12,0 1,1 2,0 1,-1 0,-2 -1,-1 0,-2 1,-1 1,-1 0,-1 1,-1 1,-1 1,-1 0,-1 1,-1 2,0 0,-1 1,-1 0,-1 1,-1 0,-2 1,-1 0,-1 1,-1 4,0 1,1 1,1 0,-3 1,-1 3,0 1,-1 -1,0 -4,1 -4,0 -1,-1Z"/>
<path onmouseover="hoverPath(evt)" onmouseout="recoverPath(evt)" fill="rgb(241,239,228)" d="M  66,31l 0,2 -1,1 -2,0 -1,-1 0,-1 -1,-1 -2,0 0,1 -1,1 0,2 -1,1 0,1 -1,1 0,1 -1,1 -2,0 1,1 0,2 -1,1 -1,1 -1,1 0,1 -1,1 -1,1 0,3 -1,1 1,1 3,0 1,1 1,1 0,1 1,-1 4,0 1,-1 3,0 1,-1 2,0 1,-1 3,0 -1,-1 0,0 -1,-1 -2,0 -1,-1 -1,0 -1,-1 0,-3 1,-1 2,0 1,1 3,0 1,-1 2,0 1,-1 5,0 1,1 0,2 -1,1 -1,1 0,1 5,0 1,-1 4,0 1,-1 2,0 -1,-1 0,-2 -1,-1 0,-1 -1,-1 0,-2 -1,-1 0,-1 -1,-1 0,-2 -1,-1 0,-1 -1,-1 0,-2 -1,-1 0,-1 -1,-1 0,-2 -1,-1 0,-2 -1,-1 0,-2 -1,-1 0,-3 -1,-1 0,-2 -1,-1 -1,-1 0,-1 -1,-1 0,-1 -2,-2 -5,0 -1,1 -3,0 -1,1 -3,0 -1,1 -3,0 -1,1 -3,0 -1,1 -3,0 -1,1 -3,0 -1,1 -4,0 -1,1 -3,0 -1,1 -3,0 -1,1 -3,0 -1,1 -4,0 -1,1 -3,0 -1,1 -3,0 -1,1 -4,0 -1,1 -3,0 -1,1 -4,0 0,1 4,0 1,-1 2,0 2,-1 4,0 1,-1 3,0 1,-1 3,0 1,-1 4,0 1,-1 3,0 1,-1 5,0 1,1 2,0 0,-2 1,-1 3,0 1,-1 3,0 1,-1 2,0 -11,2 27,18 0,-1 1,-1 2,0 1,-1 2,0 1,-1 0,0 -7,3 0,1 7,-5 0,-1 -1,-1 0,0 1,2 -7,5 5,-7 -4,0 -1,1 -4,0 -1,-1 0,-9 10,9 -5,7 -6,-17 0,-1 -1,-1 1,2 6,17 -8,-19 -1,-1 -3,0 4,1 8,19Z"/>
<path onmouseover="hoverPath(evt)" onmouseout="recoverPath(evt)" fill="rgb(174,199,237)" d="M  81,15l 0,2 1,1 0,2 1,1 0,2 1,1 0,2 1,1 0,1 1,1 0,2 1,1 0,1 1,1 0,2 1,1 0,1 1,1 0,2 1,1 0,1 1,1 0,2 1,1 0,-3 -1,-1 0,0 -1,-2 0,-2 -1,-1 -1,-2 0,-2 -1,-1 -1,-2 0,-2 -1,-1 0,-2 -1,-1 0,-1 -1,-1 0,-2 -1,-1 0,-2 -1,-1 0,-1 -1,-1 -3,-6 1,0 0,-2 -1,-1 0,-3 1,-1 1,-1 1,-1 -14,0 0,2 -1,1 -4,0 -1,1 -3,0 -1,1 -3,0 -1,1 -3,0 -1,1 -3,0 -1,1 -3,0 -1,1 -4,0 -1,1 -3,0 -1,1 -3,0 -1,1 -3,0 -1,1 -3,0 -1,1 -4,0 -1,1 -3,0 -1,1 -3,0 -1,1 -3,0 -1,1 -3,0 0,1 3,0 1,-1 3,0 1,-1 4,0 1,-1 3,0 1,-1 3,0 1,-1 4,0 1,-1 3,0 1,-1 3,0 1,-1 3,0 1,-1 4,0 1,-1 3,0 1,-1 3,0 1,-1 3,0 1,-1 3,0 1,-1 3,0 1,-1 3,0 1,-1 7,0 1,1 1,1 1,1 0,1 1,1 0,1 3,6Z"/>
<path onmouseover="hoverPath(evt)" onmouseout="recoverPath(evt)" fill="rgb(242,241,232)" d="M  122,47l 0,2 1,1 0,2 1,1 0,1 1,1 0,2 1,1 0,1 1,1 0,2 1,1 0,1 1,1 0,2 1,1 0,2 1,1 0,2 1,1 0,1 1,1 0,2 1,1 0,1 1,1 0,1 1,1 0,1 3,0 1,-1 3,0 1,-1 3,0 1,1 2,0 1,1 1,0 1,1 0,-1 -2,-1 0,0 -1,-1 -1,-1 0,-2 -1,-1 0,-3 -1,-1 0,-1 -1,-1 0,-2 -2,0 -1,-1 -1,-1 0,-2 -1,-1 0,-2 -1,-1 0,-4 1,-1 2,0 1,1 0,1 1,1 1,-1 1,0 1,-1 6,-6 0,-3 -1,-1 0,-2 1,-1 0,-1 -1,-1 0,-1 -2,0 -1,-1 0,-1 -1,-1 0,-1 -1,-1 -1,-1 -1,0 -1,1 -1,0 -1,1 -2,0 -1,1 -2,0 -1,1 -1,0 -1,1 -2,0 -1,1 -2,0 -1,1 -1,0 -1,1 -2,0 -1,1 -2,0 -1,1 1,1Z"/>
<path onmouseover="hoverPath(evt)" onmouseout="recoverPath(evt)" fill="rgb(241,240,230)" d="M  127,15l 0,1 1,1 0,2 -1,1 -2,0 -1,-1 0,-1 -1,-1 0,-2 1,-1 2,0 1,1 6,-7 0,-2 1,-1 1,0 1,-1 5,0 0,-4 -37,0 0,3 1,1 0,2 1,1 0,1 1,1 0,2 1,1 0,1 1,1 4,0 1,1 0,2 -1,1 -1,0 -1,1 0,2 1,1 0,1 1,1 0,2 1,1 0,2 1,1 0,1 1,1 0,2 1,1 0,1 1,1 0,2 1,1 0,1 1,-1 1,0 1,-1 2,0 1,-1 2,0 1,-1 1,0 1,-1 2,0 1,-1 2,0 1,-1 1,0 1,-1 2,0 1,-1 2,0 1,-1 2,0 1,-1 -1,-1 -2,0 -1,-1 0,-2 1,-1 1,0 0,-1 -1,-1 0,-1 -1,-1 0,-1 -1,-1 0,-1 -1,-1 0,-1 -1,-1 0,-1 -1,-1 0,-1 -1,-1 0,-2 -4,0 -1,-1 -6,7Z"/>
<path onmouseover="hoverPath(evt)" onmouseout="recoverPath(evt)" fill="rgb(242,240,231)" d="M  255,25l 0,-25 -18,0 0,2 -1,1 0,3 -1,1 -2,0 -1,-1 0,-1 -2,0 -1,1 -1,0 -1,1 0,1 1,1 0,2 1,1 0,1 1,1 0,3 -1,1 0,1 1,1 0,5 -1,1 0,3 2,0 1,1 0,4 -1,1 0,2 1,1 0,2 1,1 0,2 1,1 0,6 2,0 1,-1 1,0 1,-1 1,0 0,-2 1,-1 2,0 1,1 1,0 0,-1 1,-1 1,-1 1,-1 1,-1 3,-3 1,-1 2,0 0,-12 -16,-4 -1,0 -1,-1 0,-2 1,-1 2,0 1,1 0,2 -1,1 -1,0 16,4Z"/>
</svg>