<svg width="256" height="256" xmlns="http://www.w3.org/2000/svg"><script> 
var tempColor;
function hoverPath(evt){
obj = evt.target;
tempColor = obj.getAttribute("fill");
obj.setAttribute("fill","red");
//alert(tempColor);
//obj.setAttribute("stroke","red");}
function recoverPath(evt){
obj = evt.target;
obj.setAttribute("fill", tempColor);
//obj.setAttribute("stroke", tempColor);
}</script><path onmouseover="hoverPath(evt)" onmouseout="recoverPath(evt)" fill="rgb(250,249,247)" d="M  65,72l 0,11 -1,1 1,0 1,-3 0,-7 1,-1 4,0 1,1 0,3 2,0 1,1 0,3 -1,1 0,8 1,1 0,4 1,1 0,9 1,1 0,3 1,-4 0,-3 -1,-1 0,-20 -1,-1 0,-6 1,-1 7,0 1,-1 18,0 1,1 1,1 0,2 1,1 0,-4 1,-1 6,0 0,-2 -1,-1 0,1 -1,1 -1,0 -4,1 -32,0 -1,-1 0,-1 -1,-1 0,-1 -1,-1 0,-1 -1,-1 0,-1 -1,-1 0,-1 -1,-1 0,-3 1,-1 3,0 1,-1 5,0 1,-1 5,0 1,-1 4,0 1,-1 8,0 1,1 1,-1 0,-1 -1,-1 0,-1 -1,-1 0,-1 -1,-1 0,-5 -1,1 -1,0 -1,1 -2,0 -1,-1 2,2 0,1 1,1 0,4 -1,1 -4,0 -1,1 -4,0 -1,1 -5,0 -1,1 -5,0 -1,1 -6,0 -1,1 -5,0 -1,1 -8,0 -1,-1 0,-4 1,-1 -2,0 -1,1 -1,0 0,1 -1,1 -1,1 -1,0 -1,1 -1,1 -1,1 -2,0 -1,-1 -1,-1 0,-4 -1,0 -1,-1 0,-2 -1,0 -1,-1 0,-2 -1,0 -1,-1 -1,0 -1,-1 -1,-1 0,-2 1,-1 -1,-1 -3,0 0,2 -1,1 1,1 0,0 1,1 0,1 1,1 1,1 0,1 1,1 1,1 0,1 1,1 2,0 1,1 1,1 0,3 -1,1 0,1 -1,1 -3,0 -1,1 -4,0 -1,-1 0,1 -1,1 -3,0 -1,1 -3,0 -1,1 -4,0 -1,1 -4,0 -1,1 -4,0 0,4 3,0 1,-1 4,0 1,-1 3,0 1,-1 4,0 1,-1 5,0 1,-1 4,0 1,-1 2,0 1,-1 5,0 1,1 0,-2 1,-1 1,-1 4,0 1,1 1,1 1,1 0,3 1,1 0,2 1,-3 1,0 1,-1 11,0 1,1 1,1 0,1 1,1 0,2 -15,-21 1,1 0,0 1,-1 1,0 1,-1 1,-1 1,0 1,-1 1,0 1,-1 1,-1 1,0 1,-1 1,-1 1,0 1,-1 1,0 1,-1 1,-1 1,0 1,-1 1,-1 1,0 1,-1 1,0 1,-1 1,-1 1,0 1,-1 1,0 1,-1 0,-1 -2,0 -1,-1 0,2 -1,1 -1,1 -1,0 -1,1 -1,1 -2,0 -1,-1 0,2 -1,1 -1,1 -2,0 -1,-1 0,2 -1,1 -1,1 -1,0 -1,1 -1,1 -2,0 -1,-1 0,2 -1,1 -1,1 -1,0 -1,1 -1,0 -1,1 15,21Z"/>
<path onmouseover="hoverPath(evt)" onmouseout="recoverPath(evt)" fill="rgb(244,243,236)" d="M  158,236l 0,7 -1,1 0,11 98,0 0,-32 -6,0 -1,1 -15,0 -1,1 -21,0 -1,-1 -10,0 -1,-1 -10,0 -1,-1 -10,0 -1,-1 -10,0 -1,-1 -6,0 0,1 2,0 1,1 0,2 -1,1 -3,0 0,4 -1,1 -1,0 0,1 3,0 1,1 0,2 -1,1 -1,0 -1,1Z"/>
<path onmouseover="hoverPath(evt)" onmouseout="recoverPath(evt)" fill="rgb(253,253,252)" d="M  0,13l 0,2 2,0 1,1 1,1 0,1 1,0 2,2 1,0 1,1 1,1 1,1 1,1 0,2 1,0 1,1 1,1 1,1 0,1 1,1 1,1 1,1 1,1 0,1 1,1 1,1 0,1 1,0 0,-1 -1,-1 0,0 -1,-1 0,-1 -1,-1 0,-3 1,-1 1,-1 1,0 1,-1 1,-1 1,0 1,-1 1,0 1,-1 1,0 1,-1 1,-1 1,0 1,-1 1,0 1,-1 1,0 1,-1 1,0 1,-1 1,0 1,-1 1,-1 1,0 1,-1 1,0 1,-1 1,0 1,-1 1,-1 1,0 1,-1 1,0 1,-1 1,0 1,-1 1,0 1,-1 1,0 1,-1 1,-1 1,0 0,-1 -1,0 -1,1 -1,0 -1,1 -1,0 -1,1 -2,0 -1,-1 -1,0 -1,-1 -1,0 -1,1 1,1 0,3 -1,1 -1,0 -1,1 -4,0 -1,-1 0,3 -1,1 -1,1 -1,0 -1,1 -1,0 -1,1 -1,1 -1,0 -1,1 -1,0 -1,1 -1,0 -1,1 -1,0 -1,1 -1,1 -1,0 -1,1 -1,0 -1,1 -1,0 -1,1 -3,0 -1,-1 0,-1 -1,-1 -1,0 -1,-1 -1,-1 -1,-1 -1,-1 -1,-1 -1,-1 0,-1 -1,0 -1,-1 -1,-1 -1,-1 -1,-1 -1,-1 0,-1 -1,0 -1,1 42,-2 -1,-1 -1,-1 -1,-1 -1,-1 3,4 1,0 -42,2Z"/>
<path onmouseover="hoverPath(evt)" onmouseout="recoverPath(evt)" fill="rgb(247,235,152)" d="M  72,0l -12,0 0,1 1,0 1,1 0,1 1,0 1,1 0,2 1,1 0,1 1,1 0,1 1,0 1,1 0,2 1,0 1,1 0,2 1,0 1,1 0,2 1,1 1,1 0,1 1,1 1,1 0,1 1,1 1,1 0,1 1,1 0,2 2,0 1,1 0,1 3,0 1,1 0,5 1,1 2,0 1,1 2,0 1,1 1,-1 1,0 1,-1 2,0 1,1 0,5 1,1 0,1 1,1 0,1 1,1 0,2 1,-1 2,0 1,1 0,1 1,1 1,-1 2,0 1,1 1,1 1,1 1,1 1,1 1,1 1,1 1,0 1,1 0,1 1,1 0,1 1,1 1,1 1,1 1,1 2,0 1,1 0,2 2,0 1,1 0,3 1,1 1,1 1,1 1,0 1,1 0,2 1,1 1,1 4,0 1,1 1,1 0,2 -1,1 0,1 1,1 0,3 2,0 1,1 1,1 0,1 3,0 1,1 0,1 1,1 0,1 1,1 0,1 1,1 0,1 1,1 0,1 1,0 1,1 0,1 1,1 0,1 1,1 0,2 1,1 0,2 1,1 0,2 1,1 0,2 1,1 0,4 1,1 0,6 1,1 0,23 -1,1 0,6 -1,1 0,4 -1,1 0,5 -1,1 0,4 -1,1 0,5 -1,1 0,4 -1,1 0,5 -1,1 0,4 -1,1 0,4 -1,1 0,5 -1,1 0,2 -1,1 -4,0 0,1 -1,1 1,1 0,4 -1,1 0,2 1,0 1,1 0,7 1,1 0,3 -1,1 1,0 1,1 0,2 -1,1 -2,0 1,1 1,1 0,7 4,0 0,-12 1,-1 0,-8 1,-1 -1,0 -1,-1 0,-3 1,-1 1,0 0,-4 1,-1 3,0 -3,-1 0,-2 -1,-1 0,-3 1,-1 0,-5 1,-1 0,-4 1,-1 0,-5 1,-1 0,-4 1,-1 0,-5 1,-1 0,-4 1,-1 0,-5 1,-1 0,-4 1,-1 0,-5 1,-1 0,-5 1,-1 0,-23 -1,-1 0,-6 -1,-1 0,-4 -1,-1 0,-2 -1,-1 0,-2 -1,-1 0,-2 -1,-1 0,-2 -1,-1 0,-2 1,-1 -1,-1 0,-1 -1,-1 0,-1 -1,-1 0,-1 -1,-1 0,-1 -1,-1 0,-1 -1,-1 0,-1 -1,-1 0,-1 -1,-1 0,-1 -1,0 -1,-1 0,-2 -1,-1 -1,-1 -1,-1 0,-1 -1,-1 -1,0 -1,-1 0,-2 -1,-1 -1,-1 -1,0 -1,-1 0,-1 -1,-1 0,-1 -1,-1 0,-1 -2,0 -1,-1 -2,0 -1,-1 0,-2 -1,-1 -1,-1 -1,-1 -1,-1 -1,-1 -1,-1 -1,-1 -1,-1 -1,-1 -1,-1 -2,0 -1,-1 0,-1 -1,-1 -1,-1 -1,-1 -1,-1 0,-1 -3,0 -1,-1 -1,-1 0,-1 -1,-1 0,-1 -1,0 -1,-1 -1,-1 -1,-1 -1,-1 0,-1 -2,-2 -1,0 -1,-1 0,-1 -1,-1 0,-1 -1,0 -1,-1 0,-2 -1,-1 -2,0 -1,-1 0,-2 1,-1 1,-1 1,-1 1,-1 1,0 1,-1 1,0 1,-1 1,0 1,-1 1,0 1,-1 1,0 1,-1 1,0 1,-1 1,0 1,-1 1,0 1,-1 1,0 1,-1 1,0 1,-1 1,0 1,-1 1,0 1,-1 1,-1 1,0 1,-1 1,0 1,-1 1,0 1,-1 1,0 1,-1 1,0 1,-1 1,0 1,-1 1,-1 1,0 1,-1 1,0 0,-2 1,-1 3,0 1,1 1,1 0,-3 -11,0 0,2 -1,1 -1,0 -1,1 -2,0 -1,-1 -1,1 -1,0 -1,1 -1,0 -1,1 -1,0 -1,1 -1,0 -1,1 -1,0 -1,1 -1,1 -1,0 -1,1 -1,0 -1,1 -1,0 -1,1 -1,0 -1,1 -1,0 -1,1 -1,0 -1,1 -1,1 -1,0 -1,1 -1,0 -1,1 -1,0 -1,1 -1,0 -1,1 -1,0 -1,1 -2,0 -1,-1 0,-1 -1,-1 0,-1 -1,-1 -1,-1 0,-1 -1,-1 -1,0 -1,-1 0,-2 -1,0 -1,-1 0,-2 -1,-1 0,-1 -1,-1 -1,-1 0,-1 -1,-1 0,-2Z"/>
<path onmouseover="hoverPath(evt)" onmouseout="recoverPath(evt)" fill="rgb(242,240,233)" d="M  78,77l 0,2 1,1 0,20 1,1 0,2 10,0 1,1 17,0 1,1 16,0 1,1 1,1 0,1 1,1 0,2 1,1 3,0 0,-2 -1,-1 0,-2 1,-1 8,0 -1,-1 0,-1 -1,-1 0,-1 -1,-1 0,-1 -1,-1 0,-1 -1,-1 0,-1 -1,-1 0,-1 -9,0 -1,-1 -1,0 -1,-1 -7,0 -1,-1 0,-2 1,-1 1,0 0,-4 1,-1 1,0 -1,-1 0,-1 -1,0 -1,-1 0,-1 -1,-1 0,-2 -1,-1 0,-1 -5,0 0,5 -1,1 -2,0 -1,-1 0,-1 -1,-1 0,-2 -1,-1 -16,0 -1,1 -7,0Z"/>
<path onmouseover="hoverPath(evt)" onmouseout="recoverPath(evt)" fill="rgb(244,243,236)" d="M  81,1l 1,1 0,1 1,1 1,1 0,1 1,1 0,2 1,0 1,1 0,2 1,0 1,1 1,1 0,1 1,1 1,1 0,1 1,1 0,1 1,-1 1,0 1,-1 1,0 1,-1 1,0 1,-1 1,0 1,-1 1,0 1,-1 1,-1 1,0 1,-1 1,0 1,-1 1,0 1,-1 1,0 1,-1 1,0 1,-1 1,0 1,-1 1,-1 1,0 1,-1 1,0 1,-1 1,0 1,-1 1,0 1,-1 1,0 1,-1 2,0 1,1 1,-1 1,0 0,-1 -51,0 -1,1Z"/>
<path onmouseover="hoverPath(evt)" onmouseout="recoverPath(evt)" fill="rgb(234,222,232)" d="M  123,80l 0,0 -1,-1 -1,-1 -1,-1 -1,-1 0,-2 -1,0 -1,-1 0,-1 -1,0 -1,-1 0,3 1,1 0,2 1,1 0,1 1,0 1,1 0,1 1,1 0,2 -1,1 -1,0 0,4 -1,1 6,0 1,1 1,0 1,1 7,0 0,-2 -1,0 -1,-1 0,-1 -2,0 -1,-1 0,-1 -1,-1 0,-1 -1,-1 0,-1 -1,0 -1,-1 -1,-1Z"/>
<path onmouseover="hoverPath(evt)" onmouseout="recoverPath(evt)" fill="rgb(190,197,231)" d="M  134,109l 0,4 -1,1 -4,0 1,1 0,2 1,1 0,2 1,1 0,2 1,1 0,2 1,1 0,2 1,1 1,0 1,1 0,1 3,0 1,1 1,1 0,3 1,1 0,2 -1,1 -4,0 0,2 1,1 0,3 1,1 0,5 1,1 0,5 1,1 0,4 1,1 0,13 1,1 0,7 1,-4 0,-11 1,-1 1,0 0,-2 -2,2 -1,0 -10,-61 1,-1 5,0 1,1 -6,-1 -1,1 8,0 1,1 0,-1 1,2 0,1 1,1 0,2 1,1 0,5 1,1 0,4 1,1 0,4 1,1 0,13 -1,1 -6,-37 -8,0 14,38 0,8 -1,1 1,-9 -14,-38 13,48 0,5 -1,1 1,-6 -13,-48Z"/>
<path onmouseover="hoverPath(evt)" onmouseout="recoverPath(evt)" fill="rgb(243,242,233)" d="M  188,0l -2,0 0,1 1,1 0,0 1,1 1,1 1,1 0,2 -1,1 0,5 2,0 1,1 0,2 1,1 1,1 0,1 1,1 1,1 0,1 1,1 0,1 1,1 1,1 1,1 0,2 -1,1 1,1 0,0 1,1 1,1 2,0 1,1 1,1 1,1 0,1 1,1 1,1 5,0 1,-1 6,0 1,-1 7,0 1,-1 6,0 1,-1 1,0 0,-1 1,-1 0,-1 -1,-1 0,-1 -1,-1 0,-2 -2,0 -1,-1 0,-1 -1,-1 0,-1 -1,-1 0,-1 -1,-1 0,-1 -1,-1 0,-1 -1,-1 0,-1 -1,-1 0,-1 -1,-1 -1,-1 -1,-1 0,-1 -1,-1 0,-1 -1,-1 -1,-1 0,-2 -1,0 -1,-1 0,-2Z"/>
<path onmouseover="hoverPath(evt)" onmouseout="recoverPath(evt)" fill="rgb(243,242,234)" d="M  229,0l -7,0 0,1 1,0 1,1 0,2 1,1 1,1 0,1 1,1 0,1 1,1 1,1 2,0 1,1 0,2 -1,1 1,1 0,1 1,1 0,1 1,1 0,1 1,1 0,1 2,0 1,1 0,1 1,1 0,2 1,1 0,1 1,1 0,2 1,1 1,1 3,0 1,-1 8,0 0,-34Z"/>
<path onmouseover="hoverPath(evt)" onmouseout="recoverPath(evt)" fill="rgb(171,198,237)" d="M  0,106l 0,103 18,0 1,1 18,0 1,1 0,2 1,0 1,-1 9,0 1,1 20,0 1,1 5,0 1,1 15,0 1,1 22,0 1,1 20,0 1,-1 1,-1 2,0 1,1 0,-1 -1,-1 0,-17 1,-1 0,-3 1,-1 1,-1 0,-3 -1,-1 0,-7 -1,-1 0,-13 -1,-1 0,-4 -1,-1 0,-5 -1,-1 0,-5 -1,-1 0,-3 -1,-1 0,-2 -1,-1 0,-3 1,-1 2,0 1,1 0,1 2,0 -1,-1 0,-3 -1,-1 -3,0 -1,-1 0,-1 -1,0 -1,-1 -1,-1 0,-2 -1,-1 0,-2 -1,-1 0,-2 -1,-1 0,-2 -1,-1 0,-2 -1,-1 0,-2 -1,-1 0,-2 -1,-1 0,-1 -1,-1 -16,0 -1,-1 -17,0 -1,-1 -9,0 0,1 -1,1 0,3 -1,1 -2,0 -1,-1 0,-3 -1,-1 0,-1 -73,0 -1,1Z"/>
<path onmouseover="hoverPath(evt)" onmouseout="recoverPath(evt)" fill="rgb(243,241,233)" d="M  0,222l 0,33 79,0 0,-17 1,-1 0,-2 1,-1 2,-2 1,0 1,-1 5,0 1,-1 6,0 1,-1 6,0 1,-1 6,0 1,-1 7,0 1,-1 1,0 0,-4 -3,0 -1,-1 -23,0 -1,-1 -14,0 -1,1 0,4 -1,1 -2,0 -1,-1 0,-4 -1,-1 0,-1 -1,0 -1,-1 -23,0 -1,-1 -23,0 -1,-1 0,-2 1,-1 12,0 0,-1 -18,0 -1,-1 -17,0Z"/>
<path onmouseover="hoverPath(evt)" onmouseout="recoverPath(evt)" fill="rgb(241,240,230)" d="M  25,50l 0,-1 -1,-1 -1,-1 0,-1 -1,-1 -1,-1 0,-2 1,-1 0,-1 -1,0 -1,-1 0,-1 -1,-1 -1,-1 0,-1 -1,-1 -1,-1 -1,-1 -1,-1 0,-1 -1,-1 -1,-1 -1,0 -1,-1 0,-2 -1,-1 -1,-1 -1,-1 -1,0 -2,-2 -1,0 -1,-1 0,-1 -1,-1 -1,0 0,48 3,0 1,-1 4,0 1,-1 4,0 1,-1 3,0 1,-1 3,0 0,-2 1,-1 2,0 1,1 0,1 2,0 1,-1 3,0 0,-1 1,-1 0,-1 -1,-1 -2,0 -1,-1 -1,-1 0,-1 -1,-1 -1,-1 -23,-7 0,-2 1,-1 2,0 1,1 0,2 -1,1 -2,0 -1,-1 23,7Z"/>
<path onmouseover="hoverPath(evt)" onmouseout="recoverPath(evt)" fill="rgb(239,238,224)" d="M  54,53l -1,0 -1,1 -1,0 0,2 6,0 1,-1 5,0 1,-1 6,0 1,-1 5,0 1,-1 5,0 1,-1 4,0 1,-1 4,0 0,-2 -1,-1 0,-1 -1,-1 -1,-1 0,-1 -1,-1 -2,0 -1,-1 -1,-1 0,-5 -2,0 -1,1 0,0 -1,1 -1,0 -1,1 -1,0 -1,1 -1,1 -1,0 -1,1 -1,0 -1,1 -1,1 -1,0 -1,1 -1,1 -1,0 -1,1 -1,0 -1,1 -1,1 -1,0 -1,1 -1,1 -1,0 -1,1 -1,0 -1,1 -1,1Z"/>
<path onmouseover="hoverPath(evt)" onmouseout="recoverPath(evt)" fill="rgb(240,238,229)" d="M  87,70l 21,0 1,-1 1,0 -1,-1 0,-1 -1,0 -1,-1 0,-1 -1,-1 0,-1 -1,-1 0,-6 -1,-1 0,-1 -1,1 -2,0 -1,1 -2,0 -1,-1 -6,0 -1,1 -4,0 -1,1 -5,0 -1,1 -5,0 -1,1 -3,0 0,1 1,1 0,1 1,1 0,1 1,1 0,1 1,1 0,1 1,1 0,1Z"/>
<path onmouseover="hoverPath(evt)" onmouseout="recoverPath(evt)" fill="rgb(242,240,231)" d="M  87,237l -1,0 -1,1 0,1 -1,1 0,15 61,0 -1,-1 0,-1 -2,0 -1,-1 0,-8 -4,0 -1,-1 -7,0 -1,-1 0,-2 1,-1 6,0 1,-1 4,0 0,-5 1,-1 0,-1 -1,0 -1,-1 -7,0 -1,1 -8,0 -1,1 -7,0 -1,1 -7,0 -1,1 -6,0 -1,1 -6,0 -1,1 -4,0 -1,1Z"/>
<path onmouseover="hoverPath(evt)" onmouseout="recoverPath(evt)" fill="rgb(249,237,148)" d="M  110,57l 0,0 -1,-1 -1,1 -1,0 0,4 1,1 0,1 1,1 0,1 1,0 1,1 0,1 2,0 1,1 2,0 1,1 0,1 1,0 1,1 0,1 1,0 1,1 0,2 1,1 1,1 1,1 1,1 1,1 1,0 1,1 0,1 1,1 0,1 1,1 0,1 2,0 1,1 0,1 1,0 1,1 0,3 1,1 0,1 1,1 0,1 1,1 0,1 1,1 0,1 1,1 0,1 1,1 0,1 1,1 0,2 2,0 1,1 0,1 1,1 0,1 1,1 0,2 1,1 0,5 1,1 0,4 1,1 0,4 1,1 0,15 -1,1 0,9 -1,1 0,6 -1,1 -1,1 -1,0 0,1 -1,1 0,1 2,-2 1,0 1,1 0,4 -1,1 -1,0 0,11 -1,1 0,3 -1,1 0,1 2,-4 1,0 0,-6 1,-1 0,-4 1,-1 0,-4 1,-1 0,-5 1,-1 0,-6 1,-1 0,-8 1,-1 0,-14 -1,-1 0,-5 -1,-1 0,-4 -1,-1 0,-4 -1,-1 0,-3 -1,-1 0,-5 -1,-1 0,-1 -1,-1 0,-1 -1,-1 0,-2 -1,-1 0,-1 -1,-1 -2,0 -1,-1 0,-3 -1,-1 0,-3 1,-1 -1,-1 -4,0 -1,-1 -1,-1 -1,-1 0,-2 -1,0 -1,-1 -1,-1 -1,-1 -1,-1 0,-3 -2,0 -1,-1 0,-2 -2,0 -1,-1 -1,-1 -1,-1 -1,-1 -1,-1 0,-1 -1,-1 0,-1 -1,0 -1,-1 -1,-1 -1,-1 -1,-1 -1,-1 -1,-1Z"/>
<path onmouseover="hoverPath(evt)" onmouseout="recoverPath(evt)" fill="rgb(253,253,253)" d="M  115,50l 7,0 1,-1 7,0 1,-1 11,0 1,-1 9,0 1,-1 12,0 1,-1 20,0 1,-1 10,0 1,-1 14,0 1,1 2,-2 1,0 1,-1 6,0 1,-1 7,0 1,-1 8,0 1,-1 6,0 1,-1 7,0 0,-1 -7,0 -1,1 -5,0 -2,-2 0,1 -1,1 -1,0 -1,1 -6,0 -1,1 -7,0 -1,1 -6,0 -1,1 -7,0 -1,-1 -2,-2 0,-1 -1,-1 -1,-1 2,4 0,2 -1,1 -7,0 -1,1 -14,0 -1,1 -5,0 -1,-1 -1,0 -1,-1 0,-1 -1,-1 0,-1 -1,-1 0,-1 -1,-1 0,-1 2,6 0,2 -1,1 -10,0 -1,-1 0,-1 -1,-1 0,3 -1,1 -5,0 -1,1 -13,0 -1,1 -8,0 -1,1 -8,0 -1,1 -4,0 -1,1Z"/>
<path onmouseover="hoverPath(evt)" onmouseout="recoverPath(evt)" fill="rgb(244,243,235)" d="M  121,54l 0,0 1,1 1,1 0,1 2,0 1,1 1,1 1,1 1,1 1,1 1,1 1,1 1,1 1,1 1,1 1,1 0,2 2,0 1,1 2,0 1,1 0,1 1,1 0,1 1,1 0,1 1,0 1,1 1,1 1,1 0,2 1,0 1,1 1,1 0,1 1,1 1,1 1,1 0,2 1,0 1,1 0,1 1,1 0,1 1,1 0,1 1,1 0,1 1,1 0,1 1,1 0,1 1,1 0,1 1,1 0,1 1,1 7,0 1,1 34,0 1,1 39,0 1,-1 8,0 0,-69 -6,0 -1,1 -6,0 -1,1 -8,0 -1,1 -7,0 -1,1 -6,0 -1,1 -1,0 -1,1 -1,1 -2,0 -1,-1 -12,0 -1,1 -10,0 -1,1 -20,0 -1,1 -12,0 -1,1 -9,0 -1,1 -11,0 -1,1 -7,0 -1,1 -4,0 1,1 1,1Z"/>
<path onmouseover="hoverPath(evt)" onmouseout="recoverPath(evt)" fill="rgb(176,199,226)" d="M  151,110l 0,0 1,1 0,3 1,1 0,4 1,1 0,4 1,1 0,5 1,1 0,16 -1,1 0,8 -1,1 0,6 -1,1 0,5 -1,1 0,4 -1,1 0,4 -1,1 0,25 1,1 0,11 1,0 0,-2 1,-1 0,-5 1,-1 0,-4 1,-1 0,-4 1,-1 0,-5 1,-1 0,-4 1,-1 0,-5 1,-1 0,-4 1,-1 0,-5 1,-1 0,-4 1,-1 0,-6 1,-1 0,-21 -1,-1 0,-6 -1,-1 0,-4 -1,-1 0,-2 -1,-1 0,-2 -1,-1 0,-2 -1,-1 0,-2 -1,-1 0,-1 -1,-1 0,-1 -1,0 -1,-1 0,-1 -1,-1 0,-1 -1,-1 0,-1 -1,-1 0,-1 -1,-1 0,-1 -1,0 0,1 1,1 0,1 1,1 0,1 1,1Z"/>
<path onmouseover="hoverPath(evt)" onmouseout="recoverPath(evt)" fill="rgb(243,241,233)" d="M  155,23l 0,0 -1,1 -1,1 0,1 1,1 0,1 1,1 0,1 1,1 0,1 1,1 0,3 2,0 1,1 0,2 1,1 1,1 0,1 8,0 0,-2 -1,-1 0,-1 -1,-1 0,-3 1,-1 2,0 1,1 0,1 1,1 0,1 1,1 0,1 1,1 0,1 1,0 1,1 3,0 1,-1 14,0 1,-1 7,0 0,-2 -1,-1 0,0 -1,-1 0,-1 -1,-1 -1,-1 -1,-1 -1,-1 0,-2 1,-1 -1,-1 -1,-1 -2,0 -1,-1 0,-2 1,-1 -1,-1 -2,0 -1,-1 -1,-1 0,-2 1,-1 0,-1 -2,0 -1,-1 0,-7 1,-1 -1,-1 -1,-1 -1,-1 -1,-1 0,-2 -36,0 0,3 1,1 0,0 1,1 0,2 -1,1 1,1 0,1 1,1 2,0 1,1 0,1 1,1 0,2 -1,1 0,1 1,1Z"/>
<path onmouseover="hoverPath(evt)" onmouseout="recoverPath(evt)" fill="rgb(171,198,237)" d="M  163,110l 0,0 1,1 0,2 1,1 0,2 1,1 0,2 1,1 0,2 1,1 0,4 1,1 0,6 1,1 0,25 -1,1 0,5 -1,1 0,5 -1,1 0,4 -1,1 0,5 -1,1 0,4 -1,1 0,5 -1,1 0,4 -1,1 0,5 -1,1 0,4 -1,1 0,5 -1,1 0,1 8,0 1,1 10,0 1,1 10,0 1,1 10,0 1,1 10,0 1,1 19,0 1,-1 15,0 1,-1 7,0 0,-111 -7,0 -1,1 -41,0 -1,-1 -34,0 -1,-1 -6,0 -1,1Z"/>
<path onmouseover="hoverPath(evt)" onmouseout="recoverPath(evt)" fill="rgb(243,242,234)" d="M  0,75l 0,28 74,0 0,-6 -1,-1 0,-4 -1,-1 0,-10 1,-1 0,-1 -2,0 -1,-1 0,-3 -2,0 0,7 -1,1 0,2 -1,1 -3,0 -1,-1 0,-2 1,-1 0,-11 -1,-1 0,-1 -1,-1 -9,0 -1,1 -1,0 0,2 -1,1 -2,0 -1,-1 0,-2 -1,-1 0,-3 -1,-1 -1,-1 -2,0 -1,1 0,2 -1,1 -2,0 -1,-1 -3,0 -1,1 -2,0 -1,1 -4,0 -1,1 -5,0 -1,1 -4,0 -1,1 -3,0 -1,1 -4,0 -1,1 -4,0Z"/>
<path onmouseover="hoverPath(evt)" onmouseout="recoverPath(evt)" fill="rgb(241,240,230)" d="M  0,7l 0,3 3,0 1,1 0,1 1,1 1,1 1,1 1,1 1,0 1,1 0,1 1,1 1,1 1,1 1,1 1,1 1,0 1,1 1,1 0,1 1,0 1,-1 1,0 1,-1 1,0 1,-1 1,0 1,-1 1,-1 1,0 1,-1 1,0 1,-1 1,0 1,-1 1,0 1,-1 1,-1 1,0 1,-1 1,0 1,-1 0,-1 -1,-1 0,-1 -1,-1 -1,-1 -1,-1 0,-1 -1,-1 -1,-1 -1,-1 0,-2 1,-1 2,0 1,1 1,1 1,1 0,1 1,1 1,1 1,1 1,1 1,1 0,1 2,0 1,-1 1,0 0,-1 -1,-1 0,-1 -1,-1 -1,-1 0,-2 1,-1 2,0 1,1 1,1 2,0 1,1 1,0 1,1 1,-1 1,0 1,-1 1,0 1,-1 -1,0 -1,-1 0,-2 -58,0Z"/>
<path onmouseover="hoverPath(evt)" onmouseout="recoverPath(evt)" fill="rgb(243,242,233)" d="M  24,30l -1,0 -1,1 0,1 1,1 0,1 1,1 1,1 0,2 3,0 1,1 1,1 0,2 -1,1 1,1 1,0 1,1 1,0 1,1 0,2 1,0 1,1 0,2 1,0 1,1 0,4 1,1 1,-1 0,0 1,-1 1,-1 1,0 1,-1 0,-1 1,-1 1,0 1,-1 1,0 1,-1 1,-1 1,0 1,-1 1,0 1,-1 0,-2 1,-1 2,0 1,1 1,-1 0,0 1,-1 1,0 1,-1 0,-2 1,-1 2,0 1,1 1,-1 0,-2 1,-1 2,0 1,1 1,-1 0,0 1,-1 1,0 1,-1 0,-2 1,-1 1,0 -1,-1 0,-1 -1,-1 -1,-1 0,-1 -1,-1 -1,-1 0,-1 -1,-1 -1,-1 0,-2 -1,0 -1,-1 0,-2 -1,0 -1,-1 0,-2 -1,0 -1,-1 0,-1 -1,-1 0,-1 -1,0 -1,1 0,0 -1,1 -1,0 -1,1 -1,0 -1,1 -1,0 -1,1 -1,0 -1,1 -1,0 -1,1 -1,1 -1,0 -1,1 -1,0 -1,1 -1,0 -1,1 -1,1 -1,0 -1,1 -1,0 -1,1 -1,0 -1,1 -1,0 -1,1 -1,0 -1,1 -1,1 -1,0 -1,1 -1,0 -1,1 -1,0 -2,2Z"/>
<path onmouseover="hoverPath(evt)" onmouseout="recoverPath(evt)" fill="rgb(243,242,234)" d="M  101,27l -1,0 -1,1 -1,1 -1,1 2,0 1,1 1,1 0,2 1,0 1,1 0,1 1,1 0,1 1,0 1,1 1,1 1,1 0,1 1,1 1,1 1,1 1,0 1,1 0,1 6,0 1,-1 8,0 1,-1 8,0 1,-1 13,0 1,-1 5,0 0,-3 1,-1 0,-1 -2,0 -1,-1 0,-3 -1,-1 0,-1 -1,-1 0,-1 -1,-1 0,-1 -1,-1 0,-3 1,-1 1,-1 0,-2 -1,-1 0,-2 -1,-1 0,-2 1,-1 -2,0 -1,-1 -1,-1 0,-1 -1,-1 0,-2 1,-1 -1,-1 -2,0 -1,-1 -1,-1 -1,0 0,2 -1,1 -1,0 -1,1 -1,0 -1,1 -1,1 -1,0 -1,1 -1,0 -1,1 -1,0 -1,1 -1,0 -1,1 -1,0 -1,1 -1,0 -1,1 -1,1 -1,0 -1,1 -1,0 -1,1 -1,0 -1,1 -1,0 -1,1 -1,0 -1,1 -1,0 -1,1 -1,0 -1,1 -1,0 -1,1 -1,0 -1,1 -1,0 -1,1 -1,0 -1,1Z"/>
<path onmouseover="hoverPath(evt)" onmouseout="recoverPath(evt)" fill="rgb(253,253,253)" d="M  103,219l 15,0 1,1 3,0 1,1 1,0 1,-1 15,0 0,-2 -1,-1 -1,1 0,0 -1,1 -34,0 8,-1 -19,0 -1,-1 -15,0 -1,-1 -5,0 -1,-1 -20,0 -1,-1 -7,0 -1,1 8,0 1,1 20,0 4,1 1,0 1,1 0,1 1,1 0,4 1,-5 0,0 1,-1 33,0 -8,1 -1,0 21,4 0,4 -1,1 -1,0 -1,1 -7,0 -1,1 -6,0 -1,1 -6,0 -1,1 -6,0 -1,1 -5,0 -1,1 -1,0 -1,1 -1,1 0,2 -1,1 0,16 1,0 0,-16 1,-1 0,-1 1,-1 1,-1 1,0 1,-1 4,0 1,-1 6,0 1,-1 6,0 1,-1 7,0 1,-1 7,0 1,-1 8,0 1,-1 9,0 1,1 1,0 -1,-1 0,-1 -10,0 -1,1 -5,0 -1,-1 0,-1 -3,3 -8,1 -27,4 -2,1 -1,1Z"/>
<path onmouseover="hoverPath(evt)" onmouseout="recoverPath(evt)" fill="rgb(237,223,200)" d="M  142,207l 0,6 1,1 0,3 -1,1 0,3 -1,1 -15,0 -1,1 0,1 1,1 0,1 3,0 1,-1 12,0 1,1 0,1 1,1 0,2 -1,1 0,2 -1,1 0,5 -1,1 -4,0 -1,1 1,0 1,1 4,0 1,1 0,8 2,0 1,1 0,1 1,1 0,1 2,0 0,-6 -1,-1 0,0 -1,-1 0,-2 1,-1 0,-3 1,-1 0,-1 -1,-1 0,-7 -1,0 -1,-1 0,-4 1,-1 0,-2 -1,-1 0,-2 1,-1 0,-1 1,-1 1,0 0,-10 -1,-1 0,-19 -1,2 0,1 -1,1 -1,0 0,1 -1,1 -1,1 0,3 -1,1 0,9 7,37 0,0 -7,-37Z"/>
</svg>