<svg width="256" height="256" xmlns="http://www.w3.org/2000/svg"><script> 
var tempColor;
function hoverPath(evt){
obj = evt.target;
tempColor = obj.getAttribute("fill");
obj.setAttribute("fill","red");
//alert(tempColor);
//obj.setAttribute("stroke","red");}
function recoverPath(evt){
obj = evt.target;
obj.setAttribute("fill", tempColor);
//obj.setAttribute("stroke", tempColor);
}</script><path onmouseover="hoverPath(evt)" onmouseout="recoverPath(evt)" fill="rgb(237,241,244)" d="M  0,168l 0,6 1,0 1,-1 2,0 1,-1 1,0 1,-1 2,0 1,-1 2,0 1,1 0,-2 1,-1 3,0 1,-1 2,0 1,-1 2,0 1,-1 1,-1 2,0 1,-1 3,0 1,-1 1,0 1,-1 1,0 1,-1 3,0 1,-1 1,0 1,-1 2,0 1,-1 1,0 1,-1 3,0 1,-1 1,0 1,-1 1,0 1,-1 3,0 1,-1 3,0 1,1 0,-4 1,-1 1,0 1,-1 1,0 1,-1 3,0 1,-1 4,0 1,1 1,1 0,3 -1,1 0,1 2,0 1,1 0,3 1,1 0,2 1,1 0,3 1,1 0,2 1,1 0,3 1,1 0,2 1,1 0,3 1,1 0,2 1,1 0,3 1,1 0,2 1,1 0,3 1,1 0,2 1,1 0,3 1,1 0,2 1,1 0,2 1,0 0,-2 -1,-1 0,-3 -1,-1 0,-2 -1,-1 0,-3 -1,-1 0,-2 -1,-1 0,-3 -1,-1 0,-2 -1,-1 0,-3 -1,-1 0,-2 -1,-1 0,-3 -1,-1 0,-2 -1,-1 0,-3 -1,-1 0,-3 1,-1 0,-1 -2,0 -1,-1 0,-3 -1,-1 0,-3 1,-1 0,-3 1,-1 1,0 1,-1 2,0 1,-1 2,0 1,-1 2,0 1,-1 2,0 1,-1 2,0 1,-1 1,0 1,-1 1,0 1,-1 3,0 1,-1 1,0 1,-1 2,0 1,-1 1,0 1,-1 3,0 1,-1 2,0 1,-1 2,0 1,-1 2,0 1,-1 2,0 1,-1 1,-1 2,0 1,-1 2,0 1,-1 3,0 1,-1 1,-1 3,0 1,-1 0,-2 1,-1 2,0 1,-1 1,0 1,-1 4,0 1,1 2,0 1,-1 2,0 1,-1 1,0 1,-1 2,0 1,-1 2,0 1,-1 1,0 1,-1 2,0 1,-1 3,0 1,-1 2,0 1,-1 2,0 1,-1 1,0 1,-1 2,0 1,-1 2,0 1,-1 2,0 1,-1 1,0 1,-1 3,0 1,-1 2,0 1,-1 1,0 1,-1 -1,0 -1,-1 0,-1 -2,0 -1,1 0,0 -1,1 -3,0 -1,1 -1,0 -1,1 -2,0 -1,1 -1,0 -1,1 -2,0 -1,1 -2,0 -1,1 -2,0 -1,1 -2,0 -1,1 -3,0 -1,1 -2,0 -1,1 -1,0 -1,1 -2,0 -1,-1 -1,-1 0,1 -1,1 0,1 -1,1 -3,0 -1,1 -1,0 -1,1 -2,0 -1,1 -2,0 -153,53 151,-52 -1,0 -1,1 -1,0 -2,1 -1,0 -1,1 -3,0 -1,1 -2,0 -1,1 -1,0 -1,1 -4,0 -1,-1 0,2 -1,1 -1,0 -1,1 -2,0 -1,1 -2,0 -1,1 -6,0 -1,-1 0,3 -1,1 -1,0 -1,1 -3,0 -1,1 -1,0 -1,1 -2,0 -1,1 -1,0 -1,1 -2,0 -1,1 -2,0 -1,1 -2,0 -1,1 -2,0 -1,1 -2,0 -1,1 -3,0 -1,1 -3,0 -1,-1 0,-2 1,-1 0,-1 -2,0 -1,-1 0,-3 -1,-1 0,-2 -1,-1 0,-2 -1,-1 0,-3 -1,-1 0,-3 -1,-1 0,-4 1,-1 1,0 1,-1 1,0 1,-1 2,0 1,1 1,1 1,-1 1,0 0,-2 -1,-1 0,-3 -4,0 -1,1 -7,0 -1,-1 0,-1 -1,-1 0,-3 -1,-1 0,-4 -1,-1 0,-4 1,-1 1,0 1,-1 4,0 1,1 0,3 1,1 0,2 1,1 0,3 2,0 1,1 1,0 0,-2 -1,-1 0,-1 -1,-1 0,-4 -1,-1 0,-3 -1,-1 0,-2 -1,-1 0,-2 -1,-1 0,-4 -2,0 0,9 -1,1 -1,1 -3,0 -1,1 -2,0 0,3 1,1 0,3 1,1 0,4 1,1 0,2 1,1 0,2 1,1 0,3 1,1 0,3 1,1 0,2 1,1 0,3 1,1 0,3 1,1 0,2 1,1 0,3 1,1 0,2 1,1 0,6 -1,1 -2,0 -1,1 -3,0 -1,-1 0,2 -1,1 -4,0 -1,-1 0,1 -1,1 -1,1 -1,0 -1,1 -3,0 -1,1 -1,0 -1,1 -3,0 -1,-1 0,2 -1,1 -3,0 -1,-1 -1,-1 0,3 -1,1 -2,0 -1,1 -5,0 -1,-1 0,2 -1,1 -1,0 -1,1 -1,0 -1,1 -2,0 -1,1 -2,0 -1,1 -2,0 -1,1 -2,0 -1,1 -4,0 -1,-1 0,-3 -1,-1 0,-5 1,-1 1,0 -2,-1 -1,0 -1,-1 0,-3 -1,-1 0,-3 -1,-1 0,-3 -1,-1 0,-4 -1,-1 0,-5 1,-1 0,-1 -3,0 0,40 151,-51 -151,52Z"/>
<path onmouseover="hoverPath(evt)" onmouseout="recoverPath(evt)" fill="rgb(241,240,231)" d="M  66,150l -1,0 0,3 1,1 0,3 1,1 0,4 -1,1 0,2 1,1 0,3 1,1 0,3 1,1 0,3 1,1 0,3 1,1 0,3 1,1 0,3 1,1 0,4 1,1 0,2 1,1 0,2 -1,1 0,1 -1,1 2,0 1,1 0,2 1,1 0,2 1,-1 3,0 1,-1 2,0 1,-1 2,0 1,-1 2,0 0,-3 1,-1 0,-1 -1,-1 0,-3 -1,-1 0,-2 -1,-1 0,-3 -1,-1 0,-2 -1,-1 0,-3 -1,-1 0,-2 -1,-1 0,-3 -1,-1 0,-2 -1,-1 0,-3 -1,-1 0,-2 -1,-1 0,-3 -1,-1 0,-2 -1,-1 0,-3 -2,0 -1,-1 0,-3 1,-1 0,-1 -1,-1 -2,0 -1,1 -3,0 -1,1 -1,0 -1,1Z"/>
<path onmouseover="hoverPath(evt)" onmouseout="recoverPath(evt)" fill="rgb(237,238,234)" d="M  225,8l -1,0 -1,1 0,4 1,1 0,2 1,1 0,3 1,1 0,4 1,1 0,3 1,1 0,3 1,1 0,3 1,1 0,2 1,1 0,2 1,1 0,2 1,1 0,3 1,1 0,2 1,1 0,1 2,0 1,1 1,0 1,1 0,2 -1,1 -1,1 -1,1 -1,0 -1,1 -1,1 -1,0 -2,2 -1,0 -1,1 -1,1 -1,0 -1,1 0,3 1,1 0,4 1,1 0,3 3,0 1,1 2,0 1,-1 2,0 1,-1 1,0 1,-1 3,0 1,1 0,1 1,0 0,-2 1,-1 3,0 1,-1 5,0 0,-77 -11,0 0,1 -1,1 -1,0 -1,1 -2,0 -1,1 -3,0 -1,1 -2,0 -1,1 -2,0 -1,1 -2,0 -1,1Z"/>
<path onmouseover="hoverPath(evt)" onmouseout="recoverPath(evt)" fill="rgb(244,243,235)" d="M  0,177l 0,63 3,0 1,-1 1,0 1,-1 2,0 1,-1 1,0 1,-1 1,0 1,-1 2,0 1,-1 1,0 1,-1 2,0 1,-1 1,0 1,-1 1,0 0,-4 -1,-1 0,-3 -1,-1 0,-3 -1,-1 0,-4 -1,-1 0,-3 -1,-1 0,-4 -1,-1 0,-2 -1,-1 0,-5 -1,-1 0,-5 1,-1 0,-3 -1,-1 0,-3 -1,-1 0,-3 -2,0 -1,-1 0,-2 -1,-1 0,-2 -1,1 -2,0 -1,1 -1,0 -1,1 -2,0 -1,1 -1,0 -1,1Z"/>
<path onmouseover="hoverPath(evt)" onmouseout="recoverPath(evt)" fill="rgb(238,237,228)" d="M  29,112l 0,0 1,1 0,2 1,1 0,2 2,0 1,1 0,3 1,1 0,3 1,1 0,3 -1,1 0,2 2,0 1,1 0,2 1,1 0,2 1,1 0,1 1,1 0,4 -1,1 0,1 2,0 1,1 0,1 1,1 1,0 0,-2 1,-1 2,0 1,1 1,0 1,-1 1,0 1,-1 3,0 1,-1 1,0 1,-1 0,-2 -1,-1 0,-2 -1,-1 0,-3 -1,-1 0,-2 -1,-1 0,-3 -1,-1 0,-3 -1,-1 0,-2 -1,-1 0,-3 -1,-1 0,-4 1,-1 0,-1 -2,0 -1,-1 0,-4 1,-1 0,-1 -1,-1 0,-5 1,-1 0,-2 -1,-1 0,-1 -1,-1 0,-3 1,-1 6,0 1,-1 4,0 1,-1 2,0 1,-1 3,0 1,-1 0,-4 -1,0 -1,-1 0,-8 1,-1 0,-3 -1,-1 -4,0 -1,1 -3,0 -1,-1 -1,0 0,1 -1,1 -3,0 -1,1 -3,0 -1,1 -2,0 -1,1 -1,0 0,2 -1,1 -2,0 -1,-1 0,-1 -5,0 -1,1 -4,0 -1,1 -4,0 -1,1 -3,0 0,2 1,1 0,2 1,1 0,3 1,1 0,1 1,1 0,4 -1,1 0,1 1,1 0,5 -1,1 0,1 1,1 0,2 1,1 0,3 1,1 0,2 1,1Z"/>
<path onmouseover="hoverPath(evt)" onmouseout="recoverPath(evt)" fill="rgb(174,199,233)" d="M  50,25l -2,0 0,1 1,1 0,4 1,-2 0,0 1,-1 1,0 1,-1 10,0 1,-1 6,0 1,1 4,0 1,-1 4,0 1,-1 7,0 1,-1 6,0 0,-1 -2,0 -1,-1 -8,0 -1,1 -15,0 -1,1 -16,0 -1,1Z"/>
<path onmouseover="hoverPath(evt)" onmouseout="recoverPath(evt)" fill="rgb(243,241,232)" d="M  74,113l 0,0 -1,1 -1,0 0,2 1,1 0,3 1,1 0,3 1,1 0,2 1,1 0,2 1,1 0,3 2,0 1,1 0,3 4,0 1,-1 2,0 1,-1 2,0 1,-1 2,0 1,-1 2,0 1,-1 2,0 1,-1 1,0 1,-1 2,0 1,-1 1,0 1,-1 3,0 1,-1 1,0 0,-6 1,-1 0,-1 -1,-1 0,-2 -1,-1 0,-3 -1,-1 0,-2 -2,0 -1,-1 0,-4 1,-1 0,-1 -2,0 -1,-1 0,-2 -1,-1 0,-4 1,-1 0,-1 -2,0 -1,-1 0,-2 -1,-1 0,-2 -1,-1 0,-2 -1,-1 0,-2 -1,-1 0,-5 1,-1 0,-1 -2,0 -1,-1 0,-4 1,-1 0,-2 -1,-1 0,-3 -2,0 -1,-1 -2,0 -1,1 -3,0 -1,1 -4,0 -1,1 -2,0 -1,1 -8,0 -1,1 -1,0 1,1 0,5 -1,1 0,6 1,-4 4,0 1,1 0,4 1,1 0,2 1,1 0,2 1,1 0,3 1,1 0,4 1,1 0,1 1,1 0,4 -1,1 -3,0 -1,-1 -2,0 -1,-1 0,-3 -1,-1 0,-2 -1,-1 0,-3 -2,0 -1,1 -1,0 0,2 1,1 0,4 1,1 0,3 1,1 0,1 5,0 1,-1 6,0 1,1 0,3 1,1 0,4 -1,1 -1,0 -1,1 -2,0 -1,-1 -1,-1 -1,1 -1,0 6,26 0,0 -6,-26Z"/>
<path onmouseover="hoverPath(evt)" onmouseout="recoverPath(evt)" fill="rgb(242,241,235)" d="M  114,21l 2,0 1,-1 6,0 1,-1 6,0 1,-1 3,0 1,-1 4,0 1,-1 5,0 1,-1 4,0 1,-1 4,0 1,-1 4,0 1,-1 5,0 1,-1 4,0 1,-1 4,0 1,-1 4,0 1,-1 4,0 1,-1 4,0 1,-1 4,0 1,-1 4,0 1,-1 2,0 0,-1 -1,-1 0,-2 -162,0 0,2 1,1 0,3 1,1 0,3 1,1 0,2 1,1 0,3 1,1 0,2 1,1 0,2 2,0 1,-1 16,0 1,-1 15,0 1,-1 10,0 1,1Z"/>
<path onmouseover="hoverPath(evt)" onmouseout="recoverPath(evt)" fill="rgb(243,242,233)" d="M  0,27l 0,43 2,0 1,-1 4,0 1,-1 1,0 0,-3 1,-1 2,0 1,1 0,1 5,0 1,-1 4,0 1,-1 3,0 1,-1 4,0 1,-1 3,0 0,-3 1,-1 2,0 1,1 0,1 6,0 1,-1 4,0 0,-3 -1,-1 0,-2 -1,-1 0,-3 -1,-1 0,-2 -1,-1 0,-3 -1,-1 0,-3 -1,-1 0,-2 -1,-1 0,-3 -2,0 -1,-1 -7,0 -1,1 -17,0 -1,-1 -2,0 -1,-1 -3,0 -1,-1 -3,0 -1,-1 -2,0 -1,-1 -1,1Z"/>
<path onmouseover="hoverPath(evt)" onmouseout="recoverPath(evt)" fill="rgb(244,243,236)" d="M  2,250l 0,0 -1,-1 -1,0 0,6 225,0 0,-4 1,-1 0,-2 1,-1 0,-3 1,-1 0,-3 1,-1 0,-3 1,-1 0,-3 1,-1 0,-2 1,-1 0,-2 1,-1 0,-3 1,-1 0,-2 1,-1 0,-5 1,-1 0,-13 -1,-1 0,-5 -1,-1 0,-3 -1,-1 0,-2 -1,-1 0,-2 -1,-1 0,-2 -1,-1 0,-1 -1,-1 0,-2 -1,-1 0,-2 -1,-1 0,-2 -3,0 -1,1 -2,0 -1,1 -2,0 -1,1 -2,0 -1,1 -2,0 -1,1 -2,0 -1,1 -2,0 -1,1 -1,0 -1,1 -2,0 -1,1 -2,0 -1,1 -2,0 -1,1 -2,0 -1,1 -2,0 -1,1 -2,0 -1,1 -2,0 -1,1 -1,0 -1,1 -2,0 -1,1 -2,0 -1,1 -2,0 -1,1 -2,0 -1,1 -2,0 -1,1 -2,0 -1,1 -1,0 -1,1 -2,0 -1,1 -2,0 -1,1 -2,0 -1,1 -2,0 -1,1 -2,0 -1,1 -2,0 -1,1 -2,0 -1,1 -2,0 -1,1 -2,0 -1,1 -2,0 -1,1 -2,0 -1,1 -2,0 -1,1 -2,0 -1,1 -2,0 -1,1 -2,0 -1,1 -2,0 -1,1 -2,0 -1,1 -2,0 -1,1 -2,0 -1,1 -2,0 -1,1 -2,0 -1,1 -2,0 -1,1 -2,0 -1,1 -2,0 -1,1 -2,0 -1,1 -1,0 -1,1 -1,0 0,3 -1,1 -2,0 -1,-1 0,-1 -2,0 -1,1 -1,0 -1,1 -2,0 -1,1 -1,0 -1,1 -2,0 -1,1 -1,0 -1,1 -2,0 -1,1 -1,0 -1,1 -1,0 -1,1 -2,0 -1,1 -1,0 -1,1 -2,0 -1,1 -1,0 -1,1 -2,0 -1,1 -1,0 -1,1 -1,0 -1,1 -2,0 -1,1 -1,0 -1,1 -2,0 -1,1 -1,0 -1,1 -2,0 -1,1 -1,0 -1,1 -2,0 -1,1 -1,0 -1,1 -1,0 -1,1 -2,0 -1,1 -1,0 -1,1 -2,0 -1,1 -1,0 -1,1 -2,0 -1,1Z"/>
<path onmouseover="hoverPath(evt)" onmouseout="recoverPath(evt)" fill="rgb(244,243,235)" d="M  16,170l -1,0 0,2 1,1 0,3 1,1 0,3 1,1 0,3 1,1 0,5 -1,1 0,3 1,1 0,5 1,1 0,2 1,1 0,4 1,1 0,3 1,1 0,4 1,1 0,3 1,1 0,3 2,0 1,1 0,3 2,0 1,-1 1,0 1,-1 2,0 1,-1 1,0 1,-1 1,0 1,-1 2,0 1,-1 1,0 1,-1 2,0 1,-1 1,0 1,-1 2,0 1,-1 1,0 1,-1 1,0 1,-1 2,0 1,-1 1,0 1,-1 2,0 1,-1 1,0 1,-1 2,0 1,-1 1,0 1,-1 1,0 1,-1 1,0 0,-2 -1,-1 0,-2 -4,0 -1,-1 0,-2 1,-1 2,0 0,-1 1,-1 -1,-1 0,-2 -1,-1 0,-4 -1,-1 0,-3 -1,-1 0,-3 -1,-1 0,-3 -1,-1 0,-3 -1,-1 0,-3 -1,-1 0,-3 -1,-1 0,-4 1,-1 0,-2 -1,-1 0,-3 -2,0 -1,-1 -1,0 -1,1 -3,0 -1,1 -1,0 -1,1 -1,0 -1,1 -3,0 -1,1 -1,0 -1,1 -2,0 -1,1 -1,0 -1,1 -3,0 -1,1 -1,0 -1,1 -1,0 -1,1 -3,0 -1,1 -2,0 -1,1 -1,1 -2,0 -1,1 -2,0 -1,1Z"/>
<path onmouseover="hoverPath(evt)" onmouseout="recoverPath(evt)" fill="rgb(241,240,229)" d="M  60,139l 0,2 2,0 1,1 0,2 2,0 0,-2 1,-1 2,0 1,1 1,0 1,-1 2,0 0,-4 -1,-1 0,-2 -1,-1 0,-3 -1,-1 0,-2 -1,-1 0,-3 -1,-1 0,-3 -1,-1 0,-2 -1,-1 0,-3 -1,-1 0,-3 -1,-1 0,-2 -1,-1 0,-2 -1,-1 0,-4 -1,-1 0,-3 -1,-1 0,-3 -3,0 -1,1 -6,0 0,1 1,1 0,1 1,1 0,4 -1,1 0,3 1,1 0,3 -1,1 0,2 2,0 1,1 0,3 -1,1 0,2 1,1 0,3 1,1 0,2 1,1 0,3 1,1 0,3 1,1 0,2 1,1 0,3 1,1Z"/>
<path onmouseover="hoverPath(evt)" onmouseout="recoverPath(evt)" fill="rgb(244,243,236)" d="M  83,147l 0,2 -1,1 0,1 1,1 0,3 2,0 1,1 0,3 -1,1 0,1 1,1 0,3 1,1 0,2 1,1 0,3 1,1 0,2 1,1 0,3 1,1 0,2 1,1 0,3 1,1 0,2 1,1 0,3 1,1 0,2 1,1 0,3 1,1 0,1 2,0 1,-1 2,0 1,-1 2,0 1,-1 2,0 1,-1 2,0 1,-1 2,0 1,-1 2,0 1,-1 2,0 1,-1 2,0 1,-1 1,0 1,-1 2,0 1,-1 2,0 1,-1 2,0 1,-1 2,0 1,-1 2,0 1,-1 2,0 1,-1 2,0 1,-1 2,0 1,-1 2,0 1,-1 2,0 1,-1 2,0 1,-1 2,0 1,-1 2,0 1,-1 2,0 1,-1 1,0 1,-1 2,0 1,-1 2,0 1,-1 2,0 1,-1 2,0 1,-1 2,0 1,-1 2,0 1,-1 1,0 1,-1 2,0 1,-1 2,0 1,-1 2,0 1,-1 2,0 1,-1 2,0 1,-1 2,0 1,-1 1,0 1,-1 2,0 1,-1 2,0 1,-1 2,0 1,-1 2,0 1,-1 1,0 0,-2 -1,-1 0,-3 -1,-1 0,-2 -1,-1 0,-2 -1,-1 0,-4 -1,-1 0,-2 -1,-1 0,-2 -1,-1 -1,-1 0,-6 -1,-1 0,-3 -1,-1 0,-2 -1,-1 0,-3 -1,-1 0,-2 -1,-1 0,-3 -1,-1 0,-3 -1,-1 0,-3 1,-1 -2,1 0,0 -1,1 -2,0 -1,1 -3,0 -1,1 -1,0 -1,1 -2,0 -1,1 -2,0 -1,1 -2,0 -1,1 -1,0 -1,1 -2,0 -1,1 -2,0 -1,1 -3,0 -1,1 -2,0 -1,1 -1,0 -1,1 -2,0 -1,1 -2,0 -1,1 -1,0 -1,1 -2,0 -1,1 -4,0 -1,-1 -2,0 -1,1 -1,0 -1,1 -2,0 0,2 -1,1 -1,1 -3,0 -1,1 -1,1 -3,0 -1,1 -2,0 -1,1 -2,0 -1,1 -1,1 -2,0 -1,1 -2,0 -1,1 -2,0 -1,1 -2,0 -1,1 -3,0 -1,1 -1,0 -1,1 -2,0 -1,1 -1,0 -1,1 -3,0 -1,1 -1,0 -1,1 -1,0 -1,1 -2,0 -1,1 -2,0 -1,1 -2,0 -1,1 -2,0 -1,1 -2,0 -1,1 -1,1Z"/>
<path onmouseover="hoverPath(evt)" onmouseout="recoverPath(evt)" fill="rgb(242,240,231)" d="M  100,59l -3,0 1,1 0,3 1,1 0,4 -1,1 0,2 2,0 1,1 0,3 -1,1 0,3 1,1 0,2 1,1 0,2 1,1 0,2 1,1 0,2 2,0 1,1 0,3 -1,1 0,2 1,1 0,2 2,0 1,1 0,3 -1,1 0,2 2,0 1,1 0,2 1,1 0,3 1,1 0,2 1,1 0,2 1,1 0,3 4,0 1,-1 2,0 1,-1 2,0 1,-1 1,0 0,-4 1,-1 0,-1 -1,-1 0,-2 -1,-1 0,-3 -1,-1 0,-2 -2,0 -1,-1 0,-2 -1,-1 0,-2 -1,-1 0,-2 -1,-1 0,-3 -1,-1 0,-2 -1,-1 0,-2 -1,-1 0,-3 -1,-1 0,-2 -1,-1 0,-2 -1,-1 0,-2 -1,-1 0,-2 -1,-1 0,-3 1,-1 0,-3 -2,0 -1,-1 0,-2 -1,-1 0,-2 -4,0 -1,1 -3,0 -1,1Z"/>
<path onmouseover="hoverPath(evt)" onmouseout="recoverPath(evt)" fill="rgb(244,243,235)" d="M  217,99l 0,1 1,1 0,3 1,1 0,2 1,1 0,3 1,1 0,3 1,1 0,2 1,1 0,3 1,1 0,2 1,1 0,3 1,1 0,2 1,1 0,4 1,1 0,2 5,0 1,1 3,0 1,-1 4,0 1,-1 3,0 1,-1 4,0 1,-1 3,0 0,-58 -4,0 -1,1 -3,0 0,2 -1,1 -2,0 -1,1 -1,0 -1,1 -1,1 -1,0 -1,1 -1,1 -1,1 -1,0 -1,1 -1,1 -1,0 -1,1 -1,1 -1,0 -1,1 -1,0 -1,1 -2,0 -1,1 -1,0 -1,1 -1,0 -1,1 -1,0 -1,1Z"/>
<path onmouseover="hoverPath(evt)" onmouseout="recoverPath(evt)" fill="rgb(243,242,233)" d="M  0,4l 0,14 2,0 1,1 2,0 1,1 1,0 1,1 2,0 1,1 1,0 1,1 3,0 1,1 15,0 1,-1 8,0 0,-3 -1,-1 0,-2 -1,-1 0,-3 -1,-1 0,-3 -1,-1 0,-2 -1,-1 0,-2 -1,-1 0,-2 -35,0Z"/>
<path onmouseover="hoverPath(evt)" onmouseout="recoverPath(evt)" fill="rgb(171,198,237)" d="M  0,21l 0,3 2,0 1,1 2,0 1,1 3,0 1,1 3,0 1,1 2,0 1,1 15,0 1,-1 9,0 1,1 -1,-2 0,-2 -8,0 -1,1 -17,0 -1,-1 -3,0 -1,-1 -1,0 -1,-1 -2,0 -1,-1 -1,0 -1,-1 -2,0 -1,-1 -1,1Z"/>
<path onmouseover="hoverPath(evt)" onmouseout="recoverPath(evt)" fill="rgb(244,233,140)" d="M  0,245l 0,2 2,0 1,1 1,-1 2,0 1,-1 1,0 1,-1 2,0 1,-1 1,0 1,-1 2,0 1,-1 1,0 1,-1 1,0 1,-1 2,0 1,-1 1,0 1,-1 2,0 1,-1 1,0 1,-1 2,0 1,-1 1,0 1,-1 2,0 1,-1 1,0 1,-1 1,0 1,-1 2,0 1,-1 1,0 1,-1 2,0 1,-1 1,0 1,-1 2,0 1,-1 1,0 1,-1 1,0 1,-1 2,0 1,-1 1,0 1,-1 2,0 1,-1 1,0 1,-1 2,0 1,-1 1,0 1,-1 4,0 1,1 0,-2 1,-1 1,0 1,-1 1,0 1,-1 2,0 1,-1 2,0 1,-1 2,0 1,-1 2,0 1,-1 2,0 1,-1 2,0 1,-1 2,0 1,-1 2,0 1,-1 2,0 1,-1 2,0 1,-1 2,0 1,-1 2,0 1,-1 2,0 1,-1 2,0 1,-1 2,0 1,-1 2,0 1,-1 2,0 1,-1 2,0 1,-1 2,0 1,-1 2,0 1,-1 2,0 1,-1 2,0 1,-1 2,0 1,-1 2,0 1,-1 2,0 1,-1 1,0 1,-1 2,0 1,-1 2,0 1,-1 2,0 1,-1 2,0 1,-1 2,0 1,-1 2,0 1,-1 1,0 1,-1 2,0 1,-1 2,0 1,-1 2,0 1,-1 2,0 1,-1 2,0 1,-1 2,0 1,-1 2,0 1,-1 1,0 1,-1 2,0 1,-1 2,0 1,-1 2,0 1,-1 2,0 1,-1 2,0 1,-1 2,0 1,-1 5,0 1,1 0,2 1,1 0,2 1,1 0,2 1,1 0,1 1,1 0,2 1,1 0,2 1,1 0,2 1,1 0,3 1,1 0,5 1,1 0,15 -1,1 0,5 -1,1 0,2 -1,1 0,3 -1,1 0,2 -1,1 0,2 -1,1 0,3 -1,1 0,3 -1,1 0,3 -1,1 0,3 -1,1 0,2 -1,1 0,3 6,0 0,-3 1,-1 0,-3 1,-1 0,-3 1,-1 0,-2 1,-1 0,-2 1,-1 0,-3 1,-1 0,-3 1,-1 0,-3 1,-1 0,-2 1,-1 0,-3 1,-1 0,-5 1,-1 0,-15 -1,-1 0,-3 -1,-1 0,-4 -1,-1 0,-2 -1,-1 0,-2 -1,-1 0,-1 -1,-1 0,-2 -1,-1 0,-2 -1,-1 0,-2 -1,-1 0,-1 -1,-1 0,-2 -1,-1 0,-2 -1,-1 0,-3 -1,-1 0,-2 -1,-1 0,-2 -1,-1 0,-3 1,-1 -2,0 -1,-1 -1,-1 0,-2 1,-1 1,-1 -1,0 -1,-1 0,-2 -1,-1 0,-4 -1,-1 0,-2 -1,-1 0,-3 -1,-1 0,-2 -1,-1 0,-3 -1,-1 0,-2 -1,-1 0,-3 -1,-1 0,-3 -1,-1 0,-2 -1,-1 0,-3 -1,-1 0,-2 -1,0 -1,-1 0,-7 -1,-1 0,-2 -1,-1 0,-3 -1,-1 0,-2 -1,-1 0,-3 -1,-1 0,-3 -1,-1 0,-2 -1,-1 0,-3 -1,-1 0,-3 -1,-1 0,-2 -1,-1 0,-3 -1,-1 0,-2 -1,-1 0,-3 -1,-1 0,-3 -1,-1 0,-2 -1,-1 0,-4 1,-1 3,0 1,-1 4,0 1,-1 3,0 1,-1 3,0 2,-2 1,0 1,-1 0,-3 -1,-1 0,-2 -1,-1 0,-2 -1,-1 0,-2 -1,-1 0,-3 -1,-1 0,-3 -1,0 -1,-1 -1,-1 0,-3 1,-1 -1,-1 0,-2 -6,0 0,1 1,1 0,2 1,0 1,1 0,2 1,1 0,2 -1,1 0,1 1,1 0,2 1,1 0,3 1,1 0,2 1,1 0,3 -1,1 -4,0 0,1 -1,1 -3,0 -1,1 -1,0 -1,1 -5,0 -1,1 -3,0 -1,-1 -1,0 -1,1 -4,0 -1,1 -1,0 0,1 -1,1 -5,0 -1,-1 -1,1 -3,0 -1,1 -5,0 -1,-1 -2,0 0,2 -1,1 -4,0 -1,1 -3,0 -1,1 -1,0 -1,1 -1,1 -3,0 -1,-1 -2,0 -1,1 -4,0 -1,1 -4,0 -1,1 -3,0 -1,1 -7,0 -1,1 -3,0 -1,1 -4,0 -1,1 -3,0 -1,1 -4,0 -1,1 -1,1 -1,1 -9,0 -1,1 -4,0 -1,1 -3,0 -1,1 -7,0 -1,1 -2,0 -1,1 -4,0 -1,1 -4,0 -1,1 -3,0 0,1 -1,1 -8,0 -1,1 -8,0 -1,-1 0,2 -1,1 -3,0 -1,1 -4,0 -1,1 -3,0 -1,1 -4,0 -1,1 -7,0 -1,-1 0,2 -1,1 -1,0 -1,1 -4,0 -1,1 -3,0 0,6 3,0 1,-1 3,0 1,-1 3,0 1,-1 5,0 1,1 0,-2 1,-1 3,0 1,-1 4,0 1,-1 4,0 1,-1 7,0 1,1 0,-1 1,-1 1,0 1,-1 2,0 1,-1 3,0 1,-1 3,0 0,-1 1,-1 3,0 1,1 1,0 1,-1 5,0 1,-1 1,0 1,-1 8,0 1,-1 2,0 1,-1 4,0 1,-1 3,0 1,-1 4,0 1,1 0,-1 1,-1 3,0 1,-1 3,0 1,-1 6,0 1,1 0,2 1,1 0,-1 1,-1 0,-3 1,-1 3,0 1,-1 4,0 1,-1 4,0 1,-1 4,0 1,-1 4,0 1,-1 4,0 1,-1 6,0 1,1 0,-1 1,-1 1,0 1,-1 3,0 1,-1 3,0 1,-1 4,0 1,-1 3,0 1,-1 4,0 1,-1 3,0 1,-1 4,0 1,-1 3,0 1,-1 3,0 1,1 0,1 1,1 0,3 1,1 0,2 1,1 0,3 1,1 0,3 1,1 0,2 1,1 0,3 1,1 0,3 1,1 0,2 1,1 0,2 1,1 0,3 1,1 0,3 1,1 0,3 1,1 0,2 1,1 0,3 1,1 0,4 1,1 0,1 1,0 1,1 0,1 1,1 0,2 -1,1 0,1 1,1 0,3 1,1 0,3 1,1 0,2 1,1 0,3 1,1 0,2 1,1 0,3 1,1 0,6 1,1 1,1 0,2 1,1 0,2 1,1 0,4 1,1 0,2 1,1 0,2 1,1 0,3 1,1 0,4 -1,1 -1,0 -1,1 -2,0 -1,1 -2,0 -1,1 -2,0 -1,1 -2,0 -1,1 -1,0 -1,1 -2,0 -1,1 -2,0 -1,1 -2,0 -1,1 -2,0 -1,1 -2,0 -1,1 -2,0 -1,1 -1,0 -1,1 -2,0 -1,1 -2,0 -1,1 -2,0 -1,1 -2,0 -1,1 -2,0 -1,1 -2,0 -1,1 -1,0 -1,1 -2,0 -1,1 -2,0 -1,1 -2,0 -1,1 -2,0 -1,1 -2,0 -1,1 -2,0 -1,1 -2,0 -1,1 -2,0 -1,1 -2,0 -1,1 -2,0 -1,1 -2,0 -1,1 -2,0 -1,1 -2,0 -1,1 -2,0 -1,1 -1,0 -1,1 -2,0 -1,1 -2,0 -1,1 -2,0 -1,1 -2,0 -1,1 -2,0 -1,1 -2,0 -1,1 -2,0 -1,1 -2,0 -1,1 -3,0 0,1 -1,1 -3,0 -1,-1 0,1 -1,1 -2,0 -1,1 -2,0 -1,1 -2,0 -1,1 -3,0 -1,1 -1,0 -1,1 -1,0 -1,1 -1,0 -1,1 -1,0 -1,1 -2,0 -1,1 -1,0 -1,1 -2,0 -1,1 -1,0 -1,1 -2,0 -1,1 -1,0 -1,1 -1,0 -1,1 -2,0 -1,1 -1,0 -1,1 -2,0 -1,1 -1,0 -1,1 -2,0 -1,1 -1,0 -1,1 -1,0 -1,1 -2,0 -1,1 -1,0 -1,1 -4,0 -1,-1 0,2 -1,1 -1,0 -1,1 -1,0 -1,1 -2,0 -1,1 -1,0 -1,1 -2,0 -1,1 -1,0 -1,1 -1,0 -1,1 -2,0 -1,1 -1,0 -1,1 -4,0 0,3 18,-167 0,1 1,1 0,2 1,1 0,-1 -1,-3 -1,-1 -18,167Z"/>
<path onmouseover="hoverPath(evt)" onmouseout="recoverPath(evt)" fill="rgb(241,240,231)" d="M  24,110l -1,-1 0,-3 -1,-1 0,-2 -1,-1 0,-3 1,-1 0,-3 -1,-1 0,-3 1,-1 0,-2 -1,-1 0,-1 -2,0 -1,-1 0,-1 -1,-1 0,-2 -1,-1 0,-3 -3,0 -1,1 -3,0 -1,1 -3,0 -1,1 -4,0 0,45 4,0 1,1 0,3 -1,1 0,3 1,1 0,4 1,1 0,3 1,1 0,3 1,1 0,3 1,0 1,1 1,0 1,1 0,2 -1,1 -1,0 0,3 1,1 0,3 2,0 1,-1 2,0 1,-1 2,0 1,-1 2,0 1,-1 2,0 1,-1 1,0 1,-1 1,0 0,-4 1,-1 2,0 1,1 0,2 3,0 1,-1 2,0 0,-3 -1,-1 0,-3 1,-1 0,-2 -1,-1 0,-1 -1,-1 0,-2 -1,-1 0,-2 -2,0 -1,-1 0,-4 1,-1 0,-1 -1,-1 0,-3 -1,-1 0,-3 -2,0 -1,-1 0,-2 -1,-1 0,-2 -2,0 -1,-1 -1,-1Z"/>
<path onmouseover="hoverPath(evt)" onmouseout="recoverPath(evt)" fill="rgb(170,198,237)" d="M  131,21l -2,0 0,3 3,0 1,-1 4,0 1,-1 4,0 1,-1 4,0 1,-1 4,0 1,-1 3,0 1,-1 4,0 1,-1 4,0 1,-1 5,0 1,-1 4,0 1,-1 4,0 1,-1 4,0 1,-1 4,0 1,-1 4,0 1,-1 4,0 1,-1 4,0 -1,-1 0,-2 -3,0 -1,1 -4,0 -1,1 -4,0 -1,1 -4,0 -1,1 -4,0 -1,1 -4,0 -1,1 -4,0 -1,1 -4,0 -1,1 -5,0 -1,1 -4,0 -1,1 -4,0 -1,1 -4,0 -1,1 -5,0 -1,1 -4,0 -1,1 -3,0 -1,1Z"/>
<path onmouseover="hoverPath(evt)" onmouseout="recoverPath(evt)" fill="rgb(244,243,237)" d="M  201,37l -1,0 0,2 1,1 0,2 1,1 0,3 1,1 0,3 1,1 0,2 1,1 0,3 1,1 0,2 1,1 0,3 1,1 0,3 1,1 0,2 1,1 0,3 1,1 0,3 1,1 0,2 1,1 0,3 1,1 0,2 1,1 0,3 1,0 1,-1 1,0 1,-1 2,0 1,-1 1,0 1,-1 1,0 0,-3 -1,-1 0,-2 -1,-1 0,-3 -1,-1 0,-2 -1,-1 0,-3 -1,-1 0,-5 1,-1 1,-1 1,-1 1,0 1,-1 1,0 1,-1 1,0 1,-1 1,0 0,-6 -1,-1 0,-2 -1,-1 0,-1 -1,-1 0,-2 -1,-1 0,-2 -1,-1 0,-2 -1,-1 0,-3 -1,-1 0,-3 -1,-1 0,-3 -1,-1 0,-3 -1,-1 0,-4 -1,-1 0,-3 -1,-1 0,-2 -1,-1 0,-1 -1,0 0,1 1,1 0,3 1,1 0,2 1,1 0,2 -1,-6 0,0 2,9 1,4 0,2 -1,1 -1,1 -1,0 -1,1 -1,1 -3,0 -1,1 -3,0 -1,1 -4,0 -1,1Z"/>
<path onmouseover="hoverPath(evt)" onmouseout="recoverPath(evt)" fill="rgb(245,244,236)" d="M  232,149l 0,0 -1,1 0,1 1,1 0,2 1,1 0,2 1,1 0,3 1,1 0,2 1,1 0,2 1,1 0,1 1,1 0,2 1,1 0,2 1,1 0,2 1,1 0,1 1,1 0,2 1,1 0,2 1,1 0,4 1,1 0,3 1,1 0,17 -1,1 0,5 -1,1 0,3 -1,1 0,2 -1,1 0,3 -1,1 0,3 -1,1 0,3 -1,1 0,2 -1,1 0,2 -1,1 0,3 -1,1 0,3 -1,1 0,2 20,0 0,-116 -2,0 -1,1 -4,0 -1,1 -3,0 -1,1 -4,0 -1,1 -4,0 -1,1 -4,0 -1,1 1,1 2,0 1,1Z"/>
<path onmouseover="hoverPath(evt)" onmouseout="recoverPath(evt)" fill="rgb(250,249,246)" d="M  61,38l 0,-1 -1,-1 -1,0 -1,1 -4,0 -1,-1 0,-2 -1,-1 0,-3 -1,1 0,1 -1,1 -2,0 -1,-1 0,-4 -1,-1 0,-2 -1,-1 0,-2 -1,-1 0,-2 -1,-1 0,-3 -1,-1 0,-2 -1,-1 0,-3 -1,-1 0,-3 -1,-1 0,-3 -2,0 0,1 1,1 0,2 1,1 0,2 1,1 0,3 1,1 0,3 1,1 0,2 1,1 0,4 1,1 0,3 1,1 0,1 1,1 0,3 1,1 0,2 1,1 0,3 1,1 0,3 1,1 0,2 1,1 0,3 1,1 0,2 1,1 0,4 2,0 0,-1 -1,-1 0,-2 -1,-1 0,-3 -1,-1 0,-4 1,-1 3,0 1,-1 2,0 1,-1 3,0 1,-1 -1,0 -1,-1 0,-1 -1,-1Z"/>
<path onmouseover="hoverPath(evt)" onmouseout="recoverPath(evt)" fill="rgb(247,245,239)" d="M  176,22l 3,0 1,1 0,2 -1,1 10,0 1,1 1,0 1,1 0,2 1,0 1,-1 5,0 1,-1 1,0 1,-1 3,0 0,-3 -7,0 -1,1 -5,0 -1,-1 0,-2 -1,-1 0,-1 -9,0 -1,1 -3,0 -1,1Z"/>
<path onmouseover="hoverPath(evt)" onmouseout="recoverPath(evt)" fill="rgb(175,201,237)" d="M  231,62l -1,0 -1,1 -1,0 -1,1 -1,0 -1,1 -1,0 -1,1 -1,1 0,3 1,1 0,3 1,1 0,2 1,1 0,3 1,1 0,2 1,1 0,5 -1,1 -1,0 -1,1 -1,0 -1,1 -2,0 -1,1 -1,0 -1,1 -2,0 0,2 1,-1 2,0 1,-1 1,0 1,-1 1,0 1,-1 2,0 1,-1 1,0 1,-1 1,0 1,-1 1,-1 1,0 1,-1 1,-1 1,0 1,-1 1,-1 1,-1 1,0 1,-1 1,-1 1,0 0,-1 -1,0 -1,1 -1,0 -1,1 -2,0 -1,1 -4,0 -1,-1 -3,0 4,-21 -5,19 0,-2 -1,-2 0,-3 -1,-1 0,-5 1,-1 1,-1 1,0 1,-1 1,-1 1,0 1,-1 1,-1 1,0 1,-1 1,-1 1,0 1,-1 1,-1 -1,0 -1,-1 -2,0 -1,-1 0,-1 -1,-1 0,-2 -1,-1 0,-3 -1,-1 0,-2 -1,-1 0,-2 -1,-1 0,-2 -1,-1 0,-3 -1,-1 0,-3 -1,-1 0,-3 -1,-1 0,-4 -1,-1 0,-3 -1,-1 0,-2 -1,-1 0,-6 1,-1 1,-1 1,0 1,-1 2,0 1,-1 2,0 1,-1 2,0 1,-1 3,0 1,-1 2,0 1,-1 -28,0 0,1 1,1 0,2 -1,1 0,1 1,1 1,0 1,1 2,0 1,1 0,1 1,1 0,2 6,68 5,-19 -10,-47 0,2 1,1 0,4 1,1 0,3 1,1 0,3 1,1 0,3 1,1 0,3 1,1 0,2 1,1 0,2 1,1 0,2 1,1 0,1 -7,-27 0,0 8,30 1,3 0,6 -11,-46 10,47Z"/>
<path onmouseover="hoverPath(evt)" onmouseout="recoverPath(evt)" fill="rgb(238,236,226)" d="M  81,52l 3,0 1,-1 4,0 1,-1 9,0 1,-1 1,-1 1,-1 4,0 1,-1 3,0 1,-1 4,0 1,-1 3,0 1,-1 7,0 1,-1 3,0 1,-1 4,0 1,-1 4,0 1,-1 4,0 1,1 1,0 2,-2 1,0 1,-1 3,0 1,-1 4,0 0,-2 1,-1 4,0 1,1 3,0 1,-1 3,0 1,-1 2,0 1,1 3,0 0,-1 1,-1 1,0 1,-1 4,0 1,-1 2,0 -2,-1 -11,0 -1,-1 0,-2 1,-1 -4,0 -1,-1 0,-2 1,-1 2,0 1,-1 3,0 1,-1 11,0 1,1 0,1 1,1 0,2 3,0 1,-1 9,0 1,1 0,2 3,0 0,-1 -1,-1 0,-2 -1,-1 0,-3 -1,-1 0,-2 -1,-1 0,-2 -2,0 -1,1 -4,0 -1,1 -4,0 -1,1 -4,0 -1,1 -4,0 -1,1 -4,0 -1,1 -4,0 -1,1 -5,0 -1,1 -4,0 -1,1 -4,0 -1,1 -3,0 -1,1 -4,0 -1,1 -4,0 -1,1 -4,0 -1,1 -4,0 -1,1 -4,0 -1,1 -10,0 -1,-1 -8,0 0,3 -1,1 -8,0 -1,-1 -12,0 -1,1 -1,1 1,1 0,3 -1,1 -2,0 -1,-1 -1,-1 0,-3 -5,0 -1,1 -2,0 -1,1 -4,0 -1,-1 0,-2 1,-1 1,0 0,-1 -4,0 -1,1 -10,0 0,3 1,1 0,2 2,0 1,-1 3,0 1,1 1,1 0,2 1,1 0,1 2,0 1,1 0,2 -1,1 -1,0 -1,1 -3,0 -1,1 -2,0 -1,1 -3,0 0,2 1,1 0,3 1,1 0,2 1,1 2,0 1,-1 4,0 1,-1 4,0 1,-1 2,0 1,-1 7,0 1,-1 43,-15 -1,1 -2,0 -1,-1 0,-2 1,-1 2,0 1,1 0,2 -43,15Z"/>
<path onmouseover="hoverPath(evt)" onmouseout="recoverPath(evt)" fill="rgb(210,220,233)" d="M  107,23l -10,0 0,2 -1,1 -6,0 -1,1 -7,0 -1,1 -4,0 -1,1 -3,0 -1,1 -1,0 -1,1 1,0 2,-1 1,0 3,-1 5,0 1,1 0,3 1,1 0,-5 1,-1 -2,1 0,0 7,-2 10,0 1,1 6,0 0,-3 1,-1 -1,-1 3,0 0,1 8,0 1,1 8,0 0,-4 -2,0 -1,1 -6,0 -1,1Z"/>
<path onmouseover="hoverPath(evt)" onmouseout="recoverPath(evt)" fill="rgb(244,242,234)" d="M  116,55l -1,0 0,3 -1,1 0,2 1,1 0,5 -1,1 0,1 1,1 0,2 1,1 0,2 1,1 0,2 1,1 0,2 1,1 0,3 1,1 0,2 1,1 0,2 1,1 0,3 1,1 0,2 1,1 0,2 1,1 0,2 2,0 1,1 0,2 1,1 0,3 1,1 0,2 1,1 0,2 1,1 0,2 2,0 1,-1 1,0 1,-1 2,0 1,-1 3,0 1,-1 2,0 1,-1 1,0 1,-1 2,0 1,-1 2,0 1,-1 2,0 1,-1 1,0 1,-1 3,0 0,-1 1,-1 -1,-1 0,-2 -1,-1 0,-2 -1,-1 0,-3 -1,-1 0,-4 1,-1 0,-3 -1,-1 0,-2 -1,-1 0,-3 -1,-1 0,-2 -2,0 -1,-1 0,-3 -1,-1 0,-2 -1,-1 0,-3 -1,-1 0,-2 -1,-1 0,-2 -1,-1 0,-3 -1,-1 0,-4 -1,-1 0,-3 -4,0 -1,1 -4,0 -1,1 -4,0 -1,1 -4,0 -1,1 -4,0 -1,1 -4,0 -1,1Z"/>
<path onmouseover="hoverPath(evt)" onmouseout="recoverPath(evt)" fill="rgb(244,243,235)" d="M  155,47l -1,0 -1,1 -1,0 0,4 -1,1 0,3 1,1 0,3 1,1 0,2 1,1 0,2 1,1 0,3 1,1 0,2 1,1 0,3 2,0 1,1 0,2 1,1 0,3 1,1 0,2 1,1 0,5 -1,1 0,2 1,1 0,3 1,1 0,2 1,1 0,2 2,0 1,1 1,1 1,-1 1,0 1,-1 2,0 1,-1 3,0 1,-1 2,0 1,-1 2,0 1,-1 2,0 1,-1 2,0 1,-1 1,0 1,-1 2,0 1,-1 1,0 1,-1 3,0 1,-1 1,-1 2,0 0,-3 -1,-1 0,-3 -1,-1 0,-2 -1,-1 0,-3 -1,-1 0,-3 -1,-1 0,-3 -1,-1 0,-2 -1,-1 0,-2 -1,-1 0,-3 -1,-1 0,-3 -1,-1 0,-2 -1,-1 0,-3 -1,-1 0,-3 -1,-1 0,-2 -1,-1 0,-3 -1,-1 0,-1 -1,0 -1,1 -3,0 -1,1 -4,0 -1,1 -3,0 -1,1 -4,0 -1,1 -3,0 -1,1 -4,0 -1,1 -3,0 -1,1Z"/>
</svg>