<svg width="256" height="256" xmlns="http://www.w3.org/2000/svg"><script> 
var tempColor;
function hoverPath(evt){
obj = evt.target;
tempColor = obj.getAttribute("fill");
obj.setAttribute("fill","red");
//alert(tempColor);
//obj.setAttribute("stroke","red");}
function recoverPath(evt){
obj = evt.target;
obj.setAttribute("fill", tempColor);
//obj.setAttribute("stroke", tempColor);
}</script><path onmouseover="hoverPath(evt)" onmouseout="recoverPath(evt)" fill="rgb(244,243,236)" d="M  55,219l 0,0 -1,-1 0,8 -1,1 0,3 1,1 0,3 1,1 0,6 1,1 0,6 1,1 0,6 49,0 0,-12 1,-1 0,-2 -1,-1 0,-16 -1,-1 -3,0 -1,-1 -9,0 -1,-1 -9,0 -1,-1 -6,0 -1,1 -1,0 -1,1 -4,0 -1,1 -7,0 -1,-1 -1,-1 -1,0 -1,-1Z"/>
<path onmouseover="hoverPath(evt)" onmouseout="recoverPath(evt)" fill="rgb(243,242,235)" d="M  92,47l 0,3 -1,1 -1,1 -1,0 0,4 1,1 0,1 1,0 1,1 1,1 2,0 1,1 2,0 1,1 2,0 1,1 6,0 1,-1 8,0 1,1 2,0 1,1 1,0 1,1 2,0 1,1 4,0 1,1 4,0 1,1 2,0 1,1 2,0 1,1 1,0 1,1 1,1 3,0 1,1 3,0 1,-1 3,0 1,-1 3,0 1,1 3,0 1,1 1,0 2,2 0,1 2,0 1,1 0,1 2,0 1,1 1,0 1,1 2,0 1,1 22,0 1,1 3,0 1,1 4,0 1,1 3,0 1,1 0,5 1,1 0,54 -1,1 1,0 0,-60 -1,-2 0,-8 -1,-1 0,-2 -1,-1 0,-1 -2,0 -1,-1 0,-4 -1,-1 0,-9 1,-1 0,-6 -1,-1 0,-7 -1,-1 0,-7 -1,-1 0,-7 -1,-1 0,-5 -2,0 -1,-1 0,-5 -1,-1 0,-3 -13,0 -1,1 -16,0 -1,1 -25,0 -1,1 -16,0 -1,1 -11,0 -1,1 -8,0 -1,1 -4,0 -1,1 -4,0 -1,1 -5,0 -1,1 -4,0 -1,1 -3,0 -1,1 0,1 1,1 0,4 1,1 0,4 1,1 0,3 1,1 0,4 1,1 0,2 1,1 0,2 3,0 1,1Z"/>
<path onmouseover="hoverPath(evt)" onmouseout="recoverPath(evt)" fill="rgb(245,244,237)" d="M  112,224l 0,0 -1,1 0,9 1,1 0,11 -1,1 0,2 1,1 0,5 143,0 0,-66 -1,0 -1,1 -3,0 -1,1 -2,0 -1,1 -2,0 -1,1 -2,0 -1,1 -8,0 -1,-1 -2,0 -1,-1 -2,0 -1,-1 -1,0 -1,-1 -2,0 -1,-1 -7,0 -1,1 -1,0 -1,1 -1,1 0,1 -1,1 0,1 -1,1 0,1 -1,1 0,2 -1,1 0,1 -1,1 -1,1 -1,0 -1,1 -1,0 -1,1 -1,0 -1,1 -1,0 -1,1 -1,0 -1,1 -1,1 -1,0 -1,1 -1,0 -1,1 -1,1 -1,1 -1,1 -1,1 -1,1 -1,1 -1,1 -1,1 -1,1 -1,0 -1,1 -8,0 -1,-1 -2,0 -1,-1 -2,0 -1,-1 -2,0 -1,-1 -9,0 -1,1 -5,0 -1,1 -5,0 -1,1 -6,0 -1,1 -9,0 -1,1 -7,0 -1,1Z"/>
<path onmouseover="hoverPath(evt)" onmouseout="recoverPath(evt)" fill="rgb(244,243,237)" d="M  232,94l -1,1 0,2 1,1 0,2 1,1 0,9 1,1 0,3 1,1 0,7 -1,1 0,8 -1,1 0,2 -1,1 0,3 -1,1 0,5 -1,1 0,5 -1,1 0,15 1,1 0,16 1,1 0,2 1,1 1,1 2,0 1,1 1,-1 3,0 1,-1 3,0 1,-1 2,0 1,-1 2,0 1,-1 4,0 0,-91 -2,0 -1,-1 -2,0 -1,-1 -4,0 -1,-1 -5,0 -1,1 -1,0 -1,1 -1,0 -1,1 -1,0 -1,1Z"/>
<path onmouseover="hoverPath(evt)" onmouseout="recoverPath(evt)" fill="rgb(244,243,236)" d="M  0,1l 0,29 3,0 1,1 1,1 1,1 0,1 1,0 1,1 0,2 1,0 1,1 0,1 1,1 0,1 1,1 1,1 1,1 1,1 1,0 1,1 1,0 1,1 34,0 1,1 5,0 1,1 4,0 1,1 1,0 1,1 5,0 1,1 0,1 1,0 1,1 1,1 2,0 1,1 2,0 1,-1 0,-2 -1,0 -1,-1 0,-7 -1,-1 0,-5 1,-1 0,-1 -1,-1 0,-3 -1,-1 0,-4 -1,-1 0,-3 -1,-1 0,-3 -1,-1 0,-8 -1,-1 0,-7 -1,-1 0,-2 -72,0 -1,1Z"/>
<path onmouseover="hoverPath(evt)" onmouseout="recoverPath(evt)" fill="rgb(244,243,236)" d="M  0,133l 0,91 3,0 1,-1 1,0 1,-1 2,0 2,-2 2,0 1,-1 2,0 1,-1 1,0 1,-1 1,0 1,-1 2,0 1,-1 1,0 1,-1 3,0 1,-1 3,0 1,1 0,-2 1,-1 2,0 1,-1 2,0 1,-1 1,0 1,-1 1,0 1,-1 1,0 1,-1 7,0 1,1 0,1 1,1 1,0 1,1 1,0 1,1 1,1 1,1 10,0 1,-1 5,0 1,-1 11,0 1,1 6,0 1,1 4,0 1,1 4,0 1,1 0,2 5,0 1,1 9,0 1,-1 5,0 1,-1 5,0 1,-1 4,0 1,-1 5,0 1,-1 7,0 1,-1 4,0 1,1 4,0 1,1 1,0 1,1 2,0 1,1 3,0 1,1 1,-1 2,0 3,-3 1,-1 5,-5 1,-1 1,0 1,-1 1,0 1,-1 1,-1 1,-1 1,0 0,-4 1,-1 0,-2 -1,-1 -26,0 -1,-1 -4,0 -1,-1 -1,0 -1,-1 0,-1 -2,0 -1,-1 0,-1 -1,0 -1,-1 -1,-1 -1,-1 -1,0 -1,-1 -1,-1 -1,-1 -1,0 -1,-1 -1,0 -1,-1 -2,0 -1,-1 -2,0 -1,-1 -2,0 -1,-1 -2,0 -1,-1 -5,0 -1,-1 -2,0 -1,-1 -3,0 -1,-1 -2,0 -1,-1 -2,0 -1,-1 -1,0 -1,-1 -1,-1 -3,0 -1,-1 -1,0 -1,-1 0,-4 -1,-1 0,-3 -1,-1 0,-4 -1,-1 0,-1 -1,-1 -1,-1 -1,-1 -1,-1 -1,-1 -1,-1 0,-2 -1,-1 0,-5 -1,-1 0,-2 -6,0 -1,1 -3,0 -1,1 -7,0 -1,1 -8,0 -1,1 -10,0 -1,-1 -9,0 -1,-1 -10,0 -1,-1 -7,0 -1,-1 -7,0 -1,-1 -7,0 -1,-1 -6,0 -1,-1 -1,0 -1,1 33,82 0,3 1,-1 1,0 -1,-1 0,0 -1,-1 -33,-82Z"/>
<path onmouseover="hoverPath(evt)" onmouseout="recoverPath(evt)" fill="rgb(239,240,235)" d="M  10,255l 45,0 0,-5 -1,-1 0,-6 -1,-1 0,-6 -1,-1 0,-3 -1,-1 0,-4 -1,-1 0,-9 -1,-1 0,-3 -9,0 -1,-1 -1,0 -1,1 -2,0 0,1 1,1 0,0 1,1 0,2 -1,1 -1,0 -1,1 -2,0 -1,-1 0,-4 -1,0 -1,1 -3,0 -1,1 -1,0 -1,1 -2,0 -1,1 -1,0 -1,1 -1,0 -1,1 -2,0 -1,1 -2,0 -1,1 -1,1 -2,0 -1,1 -1,0 -1,1 -4,0 0,29Z"/>
<path onmouseover="hoverPath(evt)" onmouseout="recoverPath(evt)" fill="rgb(243,242,235)" d="M  22,129l 5,0 1,1 7,0 1,1 7,0 1,1 7,0 1,1 3,0 1,1 15,0 1,-1 7,0 1,-1 6,0 1,1 7,0 1,1 0,2 1,1 0,5 1,1 0,2 1,1 1,1 1,1 1,1 1,1 1,1 0,1 1,1 0,4 1,1 0,3 1,1 0,4 1,0 1,1 3,0 1,1 1,1 1,0 1,1 2,0 1,1 2,0 1,1 3,0 1,1 2,0 1,1 5,0 1,1 2,0 1,1 2,0 1,1 2,0 1,1 2,0 1,1 1,0 1,1 1,0 1,1 1,1 1,1 1,0 1,1 1,1 1,1 1,0 1,1 0,1 2,0 1,1 0,1 1,0 1,1 4,0 1,1 26,0 1,1 2,0 1,1 0,6 1,-1 0,0 1,-1 1,-1 0,-2 1,-1 0,-2 1,-1 0,-1 1,-1 1,-1 3,-3 1,0 1,-1 15,0 0,-17 -1,-1 0,-6 -1,-1 0,-3 1,-1 0,-5 1,-1 0,-4 1,-1 0,-8 1,-1 0,-4 1,-1 0,-3 1,-1 0,-11 -1,-1 0,-7 -1,-1 0,-4 -1,-1 0,-3 -1,-1 0,-5 1,-1 1,-1 1,-1 -3,0 -1,1 -6,0 0,57 -1,1 -3,0 -1,-1 0,-2 1,-1 0,-52 -1,-1 0,-1 -4,0 -1,-1 -3,0 -1,-1 -3,0 -1,-1 -4,0 -1,-1 -3,0 -1,1 -11,0 -1,-1 -4,0 -1,-1 -1,0 -1,-1 -1,0 -1,-1 -1,-1 -1,0 -1,-1 -1,-1 -1,0 -1,-1 -1,-1 -1,0 -1,-1 -5,0 -1,1 -4,0 -1,-1 -6,0 -1,-1 -1,0 -1,-1 -2,0 -1,-1 -2,0 -1,-1 -2,0 -1,-1 -4,0 -1,-1 -5,0 -1,-1 -1,0 -1,-1 -2,0 -1,-1 -16,0 -1,-1 -6,0 -1,-1 -3,0 -1,-1 -3,0 -1,-1 -3,0 -1,-1 -1,0 -1,-1 -1,0 -1,-1 -1,0 -1,-1 -3,0 -1,-1 -1,-1 0,-1 -5,0 -1,-1 0,-1 -2,0 -1,-1 -3,0 -1,-1 -3,0 -1,-1 -22,0 -1,1 -12,0 -1,-1 -2,0 -1,-1 -1,0 -1,-1 -1,-1 -1,-1 -1,-1 -1,-1 0,-1 -1,-1 0,-1 -1,-1 0,-1 -1,-1 0,-1 -1,-1 -1,-1 0,-1 -2,0 0,91 6,0 1,1 8,0 1,1Z"/>
<path onmouseover="hoverPath(evt)" onmouseout="recoverPath(evt)" fill="rgb(170,198,238)" d="M  80,135l 1,0 1,-1 3,0 -10,1 -2,0 -1,1 -17,0 1,1 8,0 -10,-2 -3,0 -1,-1 -7,0 -1,-1 -7,0 -1,-1 -7,0 -1,-1 -11,0 -1,-1 -8,0 -1,-1 -5,0 0,1 3,0 1,1 6,0 1,1 7,0 1,1 7,0 1,1 7,0 1,1 10,0 1,1 8,0 26,-1 -7,1Z"/>
<path onmouseover="hoverPath(evt)" onmouseout="recoverPath(evt)" fill="rgb(244,243,236)" d="M  79,1l 0,2 1,1 0,7 1,1 0,2 2,0 1,-1 4,0 1,-1 3,0 1,-1 4,0 1,-1 4,0 1,-1 5,0 1,-1 4,0 0,-2 1,-1 1,-1 1,-1 1,0 1,-1 3,0 1,1 1,0 1,1 0,1 1,1 0,1 6,0 1,-1 14,0 1,-1 15,0 1,-1 15,0 1,-1 17,0 1,-1 2,0 0,-2 -119,0 -1,1Z"/>
<path onmouseover="hoverPath(evt)" onmouseout="recoverPath(evt)" fill="rgb(252,251,250)" d="M  98,215l -2,0 -1,-1 -6,0 -1,-1 -9,0 -1,1 -5,0 -1,1 -12,0 -1,-1 -1,-1 -1,-1 -1,0 -1,-1 -1,0 -1,-1 -1,-1 0,-1 -5,0 -1,1 -1,0 -1,1 -1,0 -1,1 8,0 1,1 0,3 1,1 0,-3 1,-1 2,0 43,3 -41,-2 1,1 1,1 2,1 8,0 4,-1 2,0 4,-1 9,0 3,1 4,0 3,1 4,0 1,1 2,0 0,-1 -2,0 -3,-1Z"/>
<path onmouseover="hoverPath(evt)" onmouseout="recoverPath(evt)" fill="rgb(175,199,235)" d="M  153,75l -5,0 -1,-1 -3,0 -1,-1 -1,-1 -1,0 -1,-1 -2,0 -1,-1 -2,0 -1,-1 -4,0 -1,-1 -4,0 -1,-1 -2,0 -1,-1 -1,0 -1,-1 -2,0 -1,-1 -6,0 -1,1 -8,0 -1,-1 -2,0 -1,-1 -2,0 -1,-1 -2,0 -1,-1 -1,-1 -1,0 -1,-1 0,-1 -1,-1 0,-6 1,-1 1,0 1,-1 0,-1 -3,0 -1,-1 0,-2 -1,-1 0,-2 -1,-1 0,-4 -1,-1 0,-3 -1,-1 0,-4 -1,-1 0,-4 -1,-1 0,-3 1,-1 1,-1 3,0 1,-1 4,0 1,-1 5,0 1,-1 4,0 1,-1 4,0 1,-1 8,0 1,-1 11,0 1,-1 16,0 1,-1 25,0 1,-1 16,0 1,-1 13,0 0,-7 -1,4 -2,0 -1,1 -17,0 -1,1 -15,0 -1,1 -15,0 -1,1 -14,0 -1,1 -8,0 -1,-1 0,-1 -1,-1 0,-1 -1,0 -1,-1 -1,0 -1,1 -1,0 -1,1 -1,1 0,2 -1,1 -4,0 -1,1 -5,0 -1,1 -4,0 -1,1 -4,0 -1,1 -3,0 -1,1 -4,0 -1,1 -4,0 -1,-1 0,-2 -1,-1 0,-7 -1,-1 0,-4 -2,0 0,1 1,1 0,7 1,1 0,8 1,1 0,3 1,1 0,3 1,1 0,4 1,1 0,3 1,1 0,3 -1,1 0,3 1,1 0,7 1,0 1,1 0,4 -1,1 -1,1 -4,0 -1,-1 -2,0 -1,-1 -1,-1 -1,0 -1,-1 0,-1 -5,0 -1,-1 -1,0 -1,-1 -4,0 -1,-1 -5,0 -1,-1 -34,0 -1,-1 -1,0 -1,-1 -1,0 -1,-1 -1,-1 -1,-1 -1,-1 -1,-1 0,-1 -1,-1 0,-1 -1,0 -1,-1 0,-2 -1,0 -1,-1 0,-1 -1,-1 -1,-1 -2,0 0,2 3,0 1,2 1,1 1,2 1,1 0,1 1,1 0,1 1,1 0,1 2,2 1,1 1,1 1,0 1,1 2,0 1,1 10,0 1,-1 23,0 101,25 -99,-24 3,0 1,1 3,0 1,1 2,0 1,1 0,1 5,0 1,1 0,1 1,1 3,0 1,1 1,0 1,1 1,0 1,1 1,0 1,1 3,0 1,1 3,0 1,1 3,0 1,1 6,0 1,1 16,0 1,1 2,0 1,1 1,0 1,1 5,0 1,1 4,0 1,1 2,0 1,1 2,0 1,1 2,0 1,1 -3,-2 -3,-1 -3,-1 -5,-1 -75,-18 99,24 -6,0 5,1 2,0 1,-1 7,0 1,1 1,0 1,1 1,1 1,0 1,1 1,1 1,0 1,1 1,1 1,0 1,1 1,0 1,1 4,0 1,1 9,0 1,-1 5,0 1,1 4,0 1,1 3,0 1,1 3,0 1,1 3,0 0,-2 -3,0 -1,-1 -4,0 -1,-1 -3,0 -1,-1 -22,0 -1,-1 -2,0 -1,-1 -1,0 -1,-1 -1,0 1,1 2,1 -29,-7 8,0 16,4 0,-1 -1,0 -2,-1 0,-1 -1,-1 -1,0 -1,-1 -3,0 -1,-1 -1,0 -1,1 -3,0 0,1 15,4 -16,-4Z"/>
<path onmouseover="hoverPath(evt)" onmouseout="recoverPath(evt)" fill="rgb(253,253,253)" d="M  203,1l 0,6 1,1 0,-1 1,-1 0,-2 1,-1 4,0 1,-1 22,0 1,-1 21,0 0,-1 -51,0 -1,1Z"/>
<path onmouseover="hoverPath(evt)" onmouseout="recoverPath(evt)" fill="rgb(244,243,236)" d="M  207,8l -1,0 0,4 -1,1 0,4 2,0 1,1 0,5 1,1 0,7 1,1 0,7 1,1 0,7 1,1 0,8 -1,1 0,7 1,1 0,4 2,0 1,1 0,1 1,1 0,2 1,1 0,9 1,1 1,-1 5,0 1,-1 9,0 1,1 8,0 1,1 5,0 1,1 2,0 1,1 2,0 0,-81 -10,0 -1,1 -24,0 -1,1Z"/>
<path onmouseover="hoverPath(evt)" onmouseout="recoverPath(evt)" fill="rgb(176,199,227)" d="M  217,4l -5,0 -1,1 -4,0 0,1 11,0 1,-1 24,0 1,-1 11,0 0,-1 -20,0 -1,1Z"/>
<path onmouseover="hoverPath(evt)" onmouseout="recoverPath(evt)" fill="rgb(171,198,236)" d="M  237,191l -2,0 -1,-1 -2,0 -1,-1 -1,-1 -1,-1 0,-2 -1,-1 0,-16 -1,-1 0,-17 1,-1 0,-5 1,-1 0,-5 1,-1 0,-3 1,-1 0,-2 1,-1 0,-8 1,-1 0,-5 -1,-1 0,-3 -1,-1 0,-9 -1,-1 0,-2 -1,-1 0,-4 1,-1 1,-1 1,-1 1,0 1,-1 1,0 1,-1 1,0 1,-1 7,0 1,1 4,0 1,1 2,0 1,1 1,0 0,-2 -3,0 -1,-1 -2,0 -1,-1 -5,0 -1,-1 -8,0 -1,-1 -7,0 -1,1 -5,0 -1,1 -1,0 0,1 5,0 1,-1 6,0 1,1 0,2 -1,1 -1,0 -1,1 -1,1 0,3 1,1 0,3 1,1 0,4 1,1 0,7 1,1 0,13 -1,1 0,3 -1,1 0,4 -1,1 0,6 1,-6 0,0 8,54 -10,-45 0,3 -1,2 0,5 -1,1 0,1 1,1 0,6 1,-19 10,45 -10,-16 0,10 -1,1 -15,0 -1,1 -1,0 -1,1 -1,1 -1,1 -1,1 0,1 -1,1 0,2 -1,1 0,2 -1,1 -1,1 -1,1 -1,1 -2,0 -1,-1 0,-6 -1,4 0,4 -1,1 -1,0 -1,1 -1,1 -1,1 -1,0 -1,1 -1,0 -4,4 -1,1 -4,4 -1,1 -2,0 -1,1 -2,0 -1,-1 -3,0 -1,-1 -2,0 -1,-1 -1,0 -1,-1 -4,0 -1,-1 -2,0 -1,1 -7,0 -1,1 -5,0 -1,1 -4,0 -1,1 -5,0 -1,1 -5,0 -1,1 -11,0 -1,-1 -9,0 -1,-1 -4,0 -1,-1 -6,0 -1,-1 -12,0 -1,1 -5,0 -1,1 -10,0 -1,-1 -1,0 -1,-1 -1,-1 -1,-1 -1,0 0,2 1,0 1,1 1,0 1,1 1,0 1,1 1,1 5,0 1,-1 4,0 1,-1 -1,0 156,-43 10,16 -159,26 4,0 1,1 9,0 1,1 8,0 -23,-2 159,-26 -134,29 3,0 1,1 1,1 0,16 1,1 0,4 -1,1 0,11 2,0 0,-4 -1,-1 0,-4 1,-1 0,-9 -1,-1 0,-11 1,-1 0,-1 1,-1 8,0 -16,-1 134,-29 -113,29 5,0 1,-1 6,0 1,-1 5,0 1,-1 5,0 1,-1 11,0 1,1 2,0 1,1 2,0 1,1 2,0 1,1 6,0 1,-1 1,0 2,-2 1,-1 4,-4 1,-1 1,-1 1,-1 1,0 1,-1 1,0 1,-1 1,-1 1,0 1,-1 1,0 1,-1 1,0 1,-1 1,0 1,-1 1,0 1,-1 0,-1 1,-1 0,-2 1,-1 0,-1 1,-1 0,-1 1,-1 0,-1 1,-1 2,-2 1,0 1,-1 9,0 1,1 2,0 1,1 1,0 1,1 2,0 1,1 2,0 1,1 6,0 1,-1 2,0 1,-1 2,0 1,-1 2,0 1,-1 3,0 1,-1 2,0 0,-1 -3,0 -1,1 -2,0 -1,1 -2,0 -1,1 -3,0 -1,1 1,0 10,-3 -128,33 113,-29Z"/>
</svg>