<svg width="256" height="256" xmlns="http://www.w3.org/2000/svg"><script> 
var tempColor;
function hoverPath(evt){
obj = evt.target;
tempColor = obj.getAttribute("fill");
obj.setAttribute("fill","red");
//alert(tempColor);
//obj.setAttribute("stroke","red");}
function recoverPath(evt){
obj = evt.target;
obj.setAttribute("fill", tempColor);
//obj.setAttribute("stroke", tempColor);
}</script><path onmouseover="hoverPath(evt)" onmouseout="recoverPath(evt)" fill="rgb(244,243,235)" d="M  0,164l 0,72 3,0 1,-1 3,0 1,-1 3,0 1,-1 3,0 1,-1 2,0 1,-1 3,0 1,-1 1,0 1,-1 5,0 1,-1 12,0 1,-1 13,0 1,-1 13,0 1,1 1,-1 4,0 1,-1 6,0 1,-1 13,0 1,-1 12,0 1,-1 13,0 1,-1 12,0 1,-1 13,0 1,-1 13,0 1,1 0,-4 -1,-1 0,-9 -1,-1 0,-9 -1,-1 0,-10 -1,-1 0,-7 -1,-1 0,-9 -1,-1 0,-9 -1,-1 0,-10 -1,-1 0,-9 -1,-1 0,-12 -1,-1 0,-6 -1,-1 0,-2 -1,-1 0,-1 -21,0 -1,-1 -9,0 -1,1 -14,0 -1,1 -14,0 -1,1 -14,0 -1,1 -14,0 -1,1 -14,0 -1,1 -2,0 0,7 -1,1 -2,0 -1,-1 0,-5 -1,-1 0,-1 -4,0 -1,-1 0,-3 1,-1 8,0 1,-1 14,0 1,-1 14,0 1,-1 14,0 1,-1 14,0 1,-1 14,0 1,-1 -33,0 -1,-1 -33,0 -1,1 -19,0 0,4 -1,1 -4,0 0,1 -1,1 -10,0 -1,1 -4,0 -1,-1 0,-3 -3,0 -1,-1 0,-3 -8,0Z"/>
<path onmouseover="hoverPath(evt)" onmouseout="recoverPath(evt)" fill="rgb(247,235,138)" d="M  0,240l 0,6 5,0 1,-1 3,0 1,-1 2,0 1,-1 2,0 1,-1 2,0 1,-1 3,0 1,-1 3,0 0,-1 1,-1 3,0 1,1 1,0 1,-1 11,0 1,-1 12,0 1,-1 15,0 1,-1 10,0 1,-1 13,0 1,-1 12,0 1,-1 13,0 1,-1 13,0 1,-1 12,0 1,-1 13,0 1,-1 11,0 1,-1 11,0 1,-1 11,0 1,-1 11,0 1,-1 11,0 1,-1 4,0 1,1 0,1 1,1 0,17 1,1 0,11 8,0 0,-18 -1,-1 0,-13 -1,-1 0,-6 -7,0 -1,-1 0,-10 -1,10 0,0 -1,1 -4,0 -1,1 -10,0 -1,1 -3,0 -1,-1 -3,0 -1,1 -12,0 0,1 -1,1 -3,0 -1,-1 -9,0 -1,1 -7,0 0,1 -1,1 -5,0 -1,-1 -11,0 -1,1 -13,0 -1,1 -12,0 -1,1 -13,0 -1,1 -12,0 -1,1 -13,0 -1,1 -6,0 -1,1 -4,0 -1,1 -2,0 -1,-1 -11,0 -1,1 -13,0 -1,1 -12,0 -1,1 -5,0 -1,1 -1,0 -1,1 -3,0 -1,1 -2,0 -1,1 -3,0 -1,1 -3,0 -1,1 -3,0 -1,1 -4,0Z"/>
<path onmouseover="hoverPath(evt)" onmouseout="recoverPath(evt)" fill="rgb(228,229,226)" d="M  25,105l -15,0 0,2 3,0 1,1 0,3 2,0 1,-1 10,0 0,-1 1,-1 4,0 0,-3Z"/>
<path onmouseover="hoverPath(evt)" onmouseout="recoverPath(evt)" fill="rgb(243,242,234)" d="M  46,96l 0,0 -1,1 -2,0 0,1 14,0 1,-1 18,0 1,1 33,0 1,1 16,0 1,1 23,0 1,1 3,0 0,-12 -1,-1 0,-14 -1,-1 0,-11 -1,-1 0,-11 -1,-1 0,-12 -1,-1 0,-8 -1,-1 0,-17 1,-1 3,0 1,1 0,14 1,1 0,8 1,1 0,12 1,1 0,11 1,1 0,11 1,1 0,14 1,1 0,15 10,0 1,1 27,0 1,1 27,0 0,-22 -1,-1 0,-14 -1,-1 0,-22 -1,-1 0,-20 -1,-1 0,-12 -1,-1 0,-8 -200,0 0,31 -1,1 -1,1 -1,1 -1,0 -1,1 -8,0 -1,1 -7,0 0,39 2,0 1,-1 4,0 1,-1 4,0 1,-1 11,0 1,-1 15,0 1,1 0,1 1,1 0,3 -1,1 0,1 1,0 1,1 0,9 1,0 1,1 0,1 1,1Z"/>
<path onmouseover="hoverPath(evt)" onmouseout="recoverPath(evt)" fill="rgb(243,241,232)" d="M  161,112l 0,1 1,1 0,5 1,1 0,12 1,1 0,9 1,1 0,10 1,1 0,10 1,1 0,8 1,1 0,7 1,1 0,10 1,1 0,9 1,1 0,9 1,1 0,5 6,0 1,-1 10,0 0,-6 -1,-1 0,-17 -1,-1 0,-14 1,-1 2,0 1,1 0,4 1,0 1,1 14,0 1,1 0,2 -1,1 -15,0 0,17 1,1 15,0 1,-1 0,-16 1,-1 2,0 1,1 0,2 1,0 1,1 1,0 1,-1 8,0 0,-2 -1,-1 -10,0 -1,-1 0,-2 1,-1 16,0 0,-1 1,-1 0,-2 -1,-1 0,-19 -1,-1 0,-16 -1,-1 0,-20 -1,-1 0,-6 -2,0 -1,-1 -15,0 -1,-1 -15,0 -1,-1 -15,0 -1,-1 -15,0Z"/>
<path onmouseover="hoverPath(evt)" onmouseout="recoverPath(evt)" fill="rgb(191,208,222)" d="M  235,106l 0,2 1,1 19,0 0,-4 -19,0 -1,1Z"/>
<path onmouseover="hoverPath(evt)" onmouseout="recoverPath(evt)" fill="rgb(243,242,233)" d="M  235,116l 0,9 1,1 0,21 1,1 0,14 1,1 0,19 1,1 0,18 1,1 0,12 1,0 1,1 0,6 1,1 0,13 1,1 0,19 11,0 0,-141 -20,0Z"/>
<path onmouseover="hoverPath(evt)" onmouseout="recoverPath(evt)" fill="rgb(244,243,237)" d="M  0,1l 0,29 11,0 1,-1 1,0 0,-2 1,-1 0,-26 -13,0 -1,1Z"/>
<path onmouseover="hoverPath(evt)" onmouseout="recoverPath(evt)" fill="rgb(170,198,238)" d="M  0,33l 0,1 6,0 1,-1 8,0 1,-1 1,0 2,-2 0,-30 -3,0 0,27 -1,1 0,2 -1,1 -1,0 -1,1 -11,0 -1,1Z"/>
<path onmouseover="hoverPath(evt)" onmouseout="recoverPath(evt)" fill="rgb(241,240,232)" d="M  0,79l 0,20 7,0 1,-1 33,0 0,-2 1,-1 2,0 0,-2 -1,-1 0,-1 -1,0 -1,-1 0,-9 -1,0 -1,-1 0,-3 1,-1 0,-1 -1,-1 0,-1 -13,0 -1,1 -11,0 -1,1 -4,0 -1,1 -4,0 -1,1 -3,0Z"/>
<path onmouseover="hoverPath(evt)" onmouseout="recoverPath(evt)" fill="rgb(244,243,236)" d="M  33,241l -3,0 -1,-1 -1,0 0,1 -1,1 -3,0 -1,1 -3,0 -1,1 -2,0 -1,1 -2,0 -1,1 -2,0 -1,1 -3,0 -1,1 -6,0 0,7 232,0 0,-10 -1,-1 0,-17 -1,-1 0,-1 -2,0 -1,1 -11,0 -1,1 -11,0 -1,1 -11,0 -1,1 -11,0 -1,1 -11,0 -1,1 -13,0 -1,1 -12,0 -1,1 -13,0 -1,1 -13,0 -1,1 -12,0 -1,1 -13,0 -1,1 -10,0 -1,1 -15,0 -1,1 -12,0 -1,1 -11,0 -1,1Z"/>
<path onmouseover="hoverPath(evt)" onmouseout="recoverPath(evt)" fill="rgb(172,197,234)" d="M  47,100l -38,0 -1,1 -8,0 0,2 52,0 1,-1 35,0 1,1 33,0 1,1 0,1 1,0 1,-1 9,0 1,-1 19,0 -4,-1 -23,0 -1,-1 -16,0 -1,-1 -33,0 -1,-1 -16,0 -1,1Z"/>
<path onmouseover="hoverPath(evt)" onmouseout="recoverPath(evt)" fill="rgb(179,201,226)" d="M  196,104l -26,0 -1,-1 -8,0 0,1 8,0 1,1 20,0 1,1 15,0 1,1 11,0 1,1 7,0 0,-3 -28,0 -1,-1Z"/>
<path onmouseover="hoverPath(evt)" onmouseout="recoverPath(evt)" fill="rgb(253,253,253)" d="M  225,185l 0,0 1,1 0,0 1,1 0,3 1,-4 4,0 1,1 0,11 1,1 0,15 4,0 0,-11 -1,-1 0,-18 -1,-1 0,-19 -1,-1 0,-14 -1,-1 0,-21 -1,-1 0,-13 1,-1 21,0 0,-1 -20,0 -1,-1 -1,-1 0,-4 -1,-1 0,-18 -1,-1 0,-16 -1,-1 0,-21 -1,-1 0,-4 1,-1 1,-1 1,0 1,-1 22,0 0,-1 -25,0 -1,-1 0,-9 -1,-1 0,-16 -1,-1 0,-10 -4,0 0,7 1,1 0,12 1,1 0,20 1,1 0,22 1,1 0,14 1,1 0,29 -1,1 -9,0 -1,-1 -11,0 -1,-1 -15,0 -1,-1 -20,0 -1,-1 -8,0 -1,-1 0,-2 -1,-1 0,-15 -1,-1 0,-14 -1,-1 0,-11 -1,-1 0,-11 -1,-1 0,-12 -1,-1 0,-8 -1,-1 0,-14 -1,0 0,15 1,1 0,8 1,1 0,12 1,1 0,11 1,1 0,11 1,1 0,14 1,1 0,14 -1,1 0,1 -1,1 -19,0 -1,1 -9,0 -1,1 -3,0 -1,1 -14,0 -1,1 -14,0 -1,1 -14,0 -1,1 -14,0 -1,1 -14,0 -1,1 -8,0 0,1 4,0 1,1 0,1 1,1 0,-2 1,-1 2,0 1,-1 14,0 1,-1 14,0 1,-1 14,0 1,-1 14,0 1,-1 14,0 1,-1 11,0 1,1 21,0 1,1 0,1 1,1 0,2 1,1 0,6 1,1 0,12 1,1 0,9 1,1 0,10 1,1 0,9 1,1 0,9 1,1 0,7 1,1 0,10 1,1 0,9 1,1 0,9 1,1 0,5 1,0 0,-6 -1,-1 0,-9 -1,-1 0,-9 -1,-1 0,-10 -1,-1 0,-7 -1,-1 0,-8 -1,-1 0,-10 -1,-1 0,-10 -1,-1 0,-9 -1,-1 0,-12 -1,-1 0,-5 -1,-1 0,-5 1,-1 17,0 1,1 15,0 1,1 15,0 1,1 15,0 1,1 2,0 1,1 0,6 1,1 0,20 1,1 0,16 1,1 0,19 1,1 0,4 -1,1 0,1 -1,1Z"/>
<path onmouseover="hoverPath(evt)" onmouseout="recoverPath(evt)" fill="rgb(237,235,220)" d="M  226,203l 3,0 1,1 1,-1 1,0 0,-3 -1,-1 0,-11 -2,0 0,3 -1,1 0,1 -1,1 -4,0 -1,1 -8,0 -1,1 0,7 1,1 5,0 1,-1Z"/>
<path onmouseover="hoverPath(evt)" onmouseout="recoverPath(evt)" fill="rgb(246,245,239)" d="M  230,207l 0,-1 -1,0 -1,-1 -7,0 -1,1 -7,0 -1,-1 -1,-1 0,1 -1,1 -1,1 -17,0 -1,-1 -1,-1 0,-19 1,-1 15,0 -15,-1 -1,0 -1,-1 0,8 41,16 0,6 -1,1 1,-6 0,-1 -40,1 0,1 1,1 0,8 1,0 0,-1 1,-1 12,0 1,-1 5,0 1,1 1,0 1,-1 10,0 1,-1 1,0 -36,-6 40,-1 -19,-12 1,-1 0,0 1,-1 8,0 1,-1 -10,0 -1,-1 0,4 19,12Z"/>
<path onmouseover="hoverPath(evt)" onmouseout="recoverPath(evt)" fill="rgb(243,242,233)" d="M  230,0l -1,0 0,9 1,1 0,16 1,1 0,9 24,0 0,-36Z"/>
<path onmouseover="hoverPath(evt)" onmouseout="recoverPath(evt)" fill="rgb(243,242,233)" d="M  233,42l -1,0 -1,1 0,2 1,1 0,21 1,1 0,16 1,1 0,18 21,0 0,-62 -21,0 -1,1Z"/>
</svg>