<svg width="256" height="256" xmlns="http://www.w3.org/2000/svg"><script> 
var tempColor;
function hoverPath(evt){
obj = evt.target;
tempColor = obj.getAttribute("fill");
obj.setAttribute("fill","red");
//alert(tempColor);
//obj.setAttribute("stroke","red");}
function recoverPath(evt){
obj = evt.target;
obj.setAttribute("fill", tempColor);
//obj.setAttribute("stroke", tempColor);
}</script><path onmouseover="hoverPath(evt)" onmouseout="recoverPath(evt)" fill="rgb(243,241,232)" d="M  127,63l -1,0 0,1 1,1 0,3 1,1 0,3 1,1 0,1 4,0 1,-1 3,0 1,-1 4,0 1,1 3,0 0,-2 1,-1 3,0 1,-1 3,0 1,-1 3,0 1,-1 3,0 1,-1 3,0 1,-1 4,0 1,-1 3,0 1,-1 4,0 1,-1 4,0 1,-1 4,0 1,-1 4,0 1,-1 3,0 0,-2 1,-1 3,0 0,-1 -21,0 -1,1 -15,0 -1,1 -9,0 -1,1 -6,0 -1,1 -4,0 -1,1 -4,0 -1,1 -3,0 -1,1 -3,0 -1,1Z"/>
<path onmouseover="hoverPath(evt)" onmouseout="recoverPath(evt)" fill="rgb(243,242,233)" d="M  226,24l 0,2 1,1 0,5 1,1 0,5 1,1 0,4 1,1 0,3 1,1 0,3 1,1 0,3 1,1 0,5 1,1 0,3 1,1 0,4 2,0 1,-1 2,0 1,-1 3,0 1,-1 2,0 1,-1 2,0 1,-1 4,0 0,-45 -12,0 -1,1 -13,0 -1,1 -2,0Z"/>
<path onmouseover="hoverPath(evt)" onmouseout="recoverPath(evt)" fill="rgb(244,243,236)" d="M  0,1l 0,12 1,0 1,1 1,1 0,1 1,1 1,1 0,1 1,1 0,1 1,1 1,1 0,1 1,1 1,1 0,1 1,1 2,0 1,-1 1,0 1,-1 1,0 1,-1 1,-1 1,0 1,-1 1,-1 1,-1 1,0 1,-1 1,-1 1,0 1,-1 1,-1 1,-1 1,0 1,-1 1,-1 1,-1 1,0 1,-1 3,-3 1,-1 1,0 1,-1 3,0 1,-1 5,0 1,-1 5,0 1,-1 5,0 1,-1 4,0 -1,-1 0,-2 -66,0 -1,1Z"/>
<path onmouseover="hoverPath(evt)" onmouseout="recoverPath(evt)" fill="rgb(242,243,236)" d="M  0,217l 0,26 1,0 1,-1 3,0 1,-1 3,0 1,-1 3,0 1,-1 2,0 1,-1 3,0 1,-1 2,0 1,-1 3,0 1,-1 3,0 1,-1 3,0 1,-1 3,0 0,-2 -1,-1 0,-3 -1,-1 -1,-1 0,-3 -1,-1 0,-2 -1,-1 0,-2 -1,-1 0,-2 -1,-1 0,-1 -1,-1 0,-1 -2,0 -1,-1 -1,1 -3,0 -1,-1 -1,-1 0,-3 1,-1 -1,0 -1,2 -1,1 -2,0 -1,1 -3,0 -1,-1 -1,0 0,1 -1,1 -1,1 -3,0 -1,-1 0,1 -1,1 0,0 -1,1 -2,0 -1,-1 -1,0Z"/>
<path onmouseover="hoverPath(evt)" onmouseout="recoverPath(evt)" fill="rgb(244,243,236)" d="M  0,249l 0,6 28,0 0,-5 -1,-1 0,-5 -1,-1 0,-1 -1,1 -3,0 -1,1 -3,0 -1,1 -3,0 -1,1 -3,0 -1,1 -4,0 -1,1 -3,0 -1,1Z"/>
<path onmouseover="hoverPath(evt)" onmouseout="recoverPath(evt)" fill="rgb(244,243,235)" d="M  16,153l 1,1 0,3 1,1 1,1 0,2 1,1 0,3 1,1 1,1 0,2 1,1 0,2 1,1 0,1 1,1 0,2 1,1 0,2 1,1 0,2 1,1 0,2 1,1 0,1 1,1 0,2 1,1 0,2 1,1 0,3 2,0 1,1 1,0 1,-1 2,0 1,-1 2,0 1,-1 0,-1 1,-1 2,0 1,-1 3,0 1,1 1,0 1,-1 2,0 1,-1 3,0 0,-2 1,-1 3,0 1,1 0,3 2,0 1,-1 2,0 0,-2 1,-1 1,-1 2,0 1,-1 0,-1 1,-1 3,0 1,1 1,0 1,-1 2,0 1,-1 0,-1 1,-1 3,0 1,1 1,0 1,-1 0,-1 1,-1 2,0 1,1 2,0 0,-2 1,-1 4,0 1,1 1,0 1,-1 3,0 1,-1 1,0 1,-1 2,0 1,-1 0,-2 1,-1 2,0 1,1 1,1 1,0 0,-2 1,-1 3,0 1,1 1,0 1,-1 2,0 1,-1 2,0 1,-1 3,0 0,-2 1,-1 3,0 1,1 1,0 1,-1 2,0 1,-1 2,0 1,-1 2,0 1,-1 2,0 1,-1 0,-1 -1,-1 0,-3 -1,-1 0,-1 -1,-1 0,-2 -1,-1 0,-2 -1,-1 0,-2 -1,-1 0,-2 -1,-1 0,-2 -1,-1 0,-2 -1,-1 0,-2 -1,-1 0,-2 -1,-1 0,-4 1,-1 0,-1 -1,-1 0,-2 -1,-1 0,-2 -1,-1 0,-2 -2,0 -1,-1 0,-3 1,-1 0,-1 -2,0 -1,-1 0,-1 -1,1 -2,0 -1,1 -2,0 -1,1 -3,0 -1,1 -2,0 -1,1 -1,1 -2,0 -1,1 -2,0 -1,1 -2,0 -1,1 -3,0 -1,1 -1,1 -2,0 -1,1 -2,0 -1,1 -2,0 -1,1 -2,0 -1,1 -2,0 -1,1 -3,0 -1,1 -1,1 -1,0 -1,1 -1,0 -1,1 -2,0 -1,1 -1,0 -1,1 -1,0 -1,1 -2,0 -1,1 -1,0 -1,1 -2,0 -1,1 -1,0 -1,1 -2,0 -1,1 -2,0 -1,1 -1,0 -1,1 -2,0 -1,1 -2,0 -1,1 -2,0 -1,1 -1,0 -1,1 -1,0 -1,1 -1,0 -1,1 -2,0 -1,1 -2,0 -1,1 -1,0 -1,1 -2,0 -1,1 -2,0 -1,1 -2,0 -1,1 -2,0 -1,1 -1,0 -1,1 -2,0 -1,1 -2,0 -1,1Z"/>
<path onmouseover="hoverPath(evt)" onmouseout="recoverPath(evt)" fill="rgb(244,243,236)" d="M  31,241l 0,2 1,1 0,4 1,1 0,6 80,0 0,-1 -1,-1 0,-2 -2,0 -1,-1 0,-2 -1,-1 0,-3 -1,-1 0,-4 1,-1 0,-1 -2,0 -1,-1 0,-2 -1,-1 0,-2 -1,-1 0,-4 -1,-1 0,-3 -2,0 -1,1 -3,0 -1,1 -4,0 -1,1 -3,0 -1,1 -3,0 -1,1 -3,0 -1,1 -2,0 -1,1 -3,0 -1,1 -3,0 -1,1 -2,0 -1,1 -3,0 -1,1 -3,0 -1,1 -3,0 -1,1 -2,0 -1,1 -3,0 -1,1 -3,0 -1,1 -2,0 -1,1 -3,0 -1,1 -2,0 -1,1Z"/>
<path onmouseover="hoverPath(evt)" onmouseout="recoverPath(evt)" fill="rgb(238,239,232)" d="M  200,0l -4,0 0,1 1,1 0,0 1,1 0,3 1,1 0,2 1,1 1,1 0,3 1,1 0,2 1,1 1,1 0,3 1,1 1,1 0,2 1,1 0,1 2,0 1,1 0,1 1,1 0,1 1,1 0,2 1,1 0,1 1,1 0,3 1,1 0,2 1,1 1,1 0,2 1,1 0,3 -1,1 1,0 1,1 3,0 1,-1 3,0 0,-3 -1,-1 0,-3 -1,-1 0,-4 -1,-1 0,-5 -1,-1 0,-4 -1,-1 0,-4 -1,-1 0,-3 -1,-1 0,-3 -1,-1 0,-2 -1,-1 0,-3 -1,-1 0,-2 -1,-1 0,-2 -1,-1 0,-3Z"/>
<path onmouseover="hoverPath(evt)" onmouseout="recoverPath(evt)" fill="rgb(244,242,234)" d="M  221,1l 0,1 -1,1 0,1 1,1 0,2 1,1 0,2 1,1 0,3 1,1 0,2 1,0 1,1 2,0 1,1 12,0 1,-1 13,0 0,-18 -33,0 -1,1Z"/>
<path onmouseover="hoverPath(evt)" onmouseout="recoverPath(evt)" fill="rgb(244,243,236)" d="M  0,26l 0,70 1,0 1,-1 3,0 1,-1 3,0 1,-1 2,0 1,-1 3,0 1,-1 2,0 1,-1 2,0 1,-1 3,0 1,-1 2,0 1,-1 3,0 1,-1 1,-1 1,0 1,-1 2,0 0,-1 -1,-1 0,-1 -1,-1 0,-1 -1,-1 -1,-1 0,-1 -1,-1 0,-1 -1,-1 -1,-1 0,-1 -1,-1 -1,-1 0,-1 -1,-1 -1,-1 -1,-1 0,-1 -1,-1 -1,-1 0,-1 -1,-1 -1,-1 -1,-1 0,-1 -1,-1 -1,-1 0,-1 -1,-1 -1,-1 0,-1 -1,-1 -1,-1 0,-1 -1,-1 -1,-1 -1,-1 0,-1 -1,-1 -1,-1 0,-1 -1,-1 -1,-1 0,-1 -1,-1 0,-1 -1,-1 -1,-1 0,-1 -1,-1 0,-1 -1,-1 0,-1 -1,-1 -1,-1 0,-1 -1,-1 -1,1Z"/>
<path onmouseover="hoverPath(evt)" onmouseout="recoverPath(evt)" fill="rgb(243,242,235)" d="M  16,34l 0,0 -1,1 1,1 0,1 1,1 1,1 0,1 1,1 0,1 1,1 1,1 1,1 0,1 1,1 1,1 0,1 1,1 1,1 0,1 1,1 1,1 0,1 1,1 1,1 0,1 1,1 1,1 0,1 1,1 1,1 1,1 0,1 1,1 1,1 0,1 1,1 1,1 0,1 1,1 1,1 0,2 3,0 1,1 0,2 5,0 1,1 0,1 1,0 1,-1 2,0 1,-1 3,0 1,-1 2,0 1,-1 0,-5 1,-1 0,-2 1,-1 2,0 0,-10 1,-1 1,0 0,-4 1,-1 3,0 1,-1 0,-5 1,-1 1,0 1,-1 4,0 1,1 0,2 1,1 0,2 -1,1 0,8 1,0 1,-1 0,-1 1,-1 1,0 1,-1 1,-1 1,-1 0,-1 1,-1 1,-1 1,0 0,-1 -5,0 -1,-1 0,-1 -1,-1 0,-10 1,-1 3,0 0,-2 1,-1 3,0 0,-3 -3,0 -1,-1 -1,0 -1,-1 0,-1 -1,-1 -1,-1 -1,-1 -1,-1 -1,0 -1,-1 -1,-1 0,-1 -1,0 -1,-1 0,-1 -1,-1 -1,-1 -1,-1 -1,-1 -1,-1 -2,0 -1,-1 -1,-1 -1,-1 -1,1 -6,0 -1,1 -4,0 -1,1 -3,0 -1,1 -3,0 -1,1 -2,0 -1,1 -1,1 -1,0 -2,2 -1,1 -1,0 -1,1 -1,1 -1,1 -1,0 -1,1 -1,1 -1,1 -1,0 -1,1 -1,1 -1,0 -1,1 -1,1 -1,0 -2,2 -1,0 -1,1 -1,1 -1,1 -1,0 -1,1Z"/>
<path onmouseover="hoverPath(evt)" onmouseout="recoverPath(evt)" fill="rgb(240,246,245)" d="M  114,178l -2,0 -1,1 -1,0 -1,1 -3,0 -1,1 -2,0 0,1 1,1 0,1 1,0 1,-1 4,0 1,1 0,-1 1,-1 2,0 1,-1 4,0 1,1 3,0 1,1 0,2 -1,-4 0,-1 1,-1 4,0 1,-1 4,0 1,1 0,-1 1,-1 2,0 1,-1 0,-1 -1,0 -1,-1 0,-2 1,-1 4,0 1,1 0,2 1,0 0,-4 1,-1 2,0 1,-1 3,0 1,1 0,2 -1,1 0,2 1,0 1,-1 4,0 1,1 0,-1 1,-1 2,0 1,-1 1,0 -1,-1 0,0 -1,-1 0,-4 1,-1 1,0 1,-1 3,0 1,-1 2,0 1,-1 2,0 1,-1 2,0 1,-1 2,0 1,-1 2,0 1,-1 3,0 1,-1 2,0 1,-1 2,0 1,-1 2,0 1,-1 2,0 1,-1 2,0 1,-1 3,0 1,-1 2,0 1,-1 2,0 1,-1 2,0 1,-1 3,0 1,-1 2,0 1,-1 4,0 1,1 1,0 0,-2 1,-1 3,0 1,-1 3,0 1,1 0,1 1,1 0,-3 1,-1 1,-1 3,0 1,-1 2,0 1,-1 5,0 1,1 1,-1 2,0 0,-3 -3,0 -1,-1 -1,-1 0,-1 -1,-1 0,-2 -1,-1 0,-1 -1,-1 0,-3 1,-1 -2,0 -1,-1 0,-2 -1,-1 0,-2 -1,-1 0,-1 -1,-1 0,-1 -1,-1 0,-3 -1,-1 0,-4 -1,-1 0,-4 -1,-1 0,-4 -1,-1 0,-4 -1,-1 0,-5 -1,-1 0,-4 -1,-1 0,-2 1,-1 3,0 1,-1 2,0 1,-1 3,0 1,-1 2,0 1,-1 3,0 1,-1 2,0 0,-1 -3,0 -1,1 -2,0 -1,1 -2,0 -1,1 -3,0 -1,1 -2,0 -1,1 -4,0 -1,-1 0,-4 -1,-1 0,-3 -1,-1 0,-5 -1,-1 0,-3 -1,-1 0,-3 -1,-1 0,-3 -1,-1 0,-4 -1,-1 0,-5 -1,-1 0,-5 -1,-1 0,-6 1,-1 -1,-1 -1,0 -1,-1 0,-2 -1,-1 0,-3 -1,-1 0,-2 -1,-1 0,-2 -1,-1 0,-3 1,-1 0,-1 -3,0 0,2 1,1 0,2 1,1 0,2 1,1 0,3 1,1 0,2 1,1 0,3 1,1 0,3 1,1 0,4 1,1 0,4 1,1 0,5 1,1 0,4 1,1 0,3 1,1 0,5 -1,1 1,0 1,1 0,2 1,1 0,3 1,1 0,3 1,1 0,8 1,1 0,1 1,1 0,4 1,1 0,4 1,1 0,4 1,1 0,4 1,1 0,4 1,1 0,5 1,1 0,2 1,1 0,2 1,1 0,1 1,1 0,3 -1,1 2,0 1,1 0,2 1,1 0,3 -1,1 2,0 1,1 0,2 1,1 0,2 -1,1 -1,1 -2,0 -1,1 -2,0 -1,1 -2,0 -1,1 -4,0 -1,-1 -1,0 0,2 -1,1 -3,0 -1,1 -2,0 -1,1 -4,0 -1,-1 -1,0 0,2 -1,1 -3,0 -1,1 -2,0 -1,1 -2,0 -1,1 -3,0 -1,1 -2,0 -1,1 -2,0 -1,1 -2,0 -1,1 -3,0 -1,1 -2,0 -1,1 -2,0 -1,1 -2,0 -1,1 -3,0 -1,-1 -1,0 0,2 -1,1 -3,0 -1,1 -2,0 -1,1 -2,0 -1,1 -2,0 -1,1 -4,0 -1,-1 0,-3 -1,-1 0,1 1,4 -1,1 0,0 -1,1 -2,0 -1,1 -2,0 -1,1 -2,0 -1,1 -2,0 -1,1 -3,0 -1,-1 -1,0 0,2 -24,8 22,-7 -2,0 -1,1 -2,0 -1,1 -2,0 -1,1 -3,0 -1,-1 -1,0 0,2 -1,1 -3,0 -1,-1 -1,-1 0,2 -1,1 21,-6 -22,7Z"/>
<path onmouseover="hoverPath(evt)" onmouseout="recoverPath(evt)" fill="rgb(244,243,235)" d="M  143,105l -2,0 0,2 1,1 0,3 -1,1 0,1 2,0 1,1 0,2 1,1 0,2 1,1 0,2 1,1 0,3 -1,1 0,2 1,1 0,2 1,1 0,2 1,1 0,2 1,1 0,2 1,1 0,2 1,1 0,2 1,1 0,2 1,1 0,2 1,1 0,1 2,0 1,1 0,1 1,1 0,3 2,0 1,-1 2,0 1,-1 2,0 1,-1 2,0 1,-1 3,0 0,-2 1,-1 3,0 1,1 1,0 1,-1 2,0 1,-1 2,0 1,-1 2,0 1,-1 3,0 1,-1 2,0 1,-1 2,0 1,-1 2,0 1,-1 3,0 1,-1 2,0 1,-1 2,0 1,-1 3,0 0,-2 1,-1 3,0 1,1 2,0 1,-1 2,0 1,-1 3,0 0,-2 1,-1 3,0 1,1 2,0 1,-1 2,0 1,-1 2,0 1,-1 2,0 1,-1 -1,-1 0,-2 -2,0 -1,-1 0,-2 1,-1 0,-1 -1,-1 0,-2 -2,0 -1,-1 0,-2 1,-1 0,-1 -1,-1 0,-1 -1,-1 0,-2 -1,-1 0,-2 -1,-1 0,-5 -1,-1 0,-4 -1,-1 0,-4 -1,-1 0,-4 -1,-1 0,-4 -1,-1 0,-4 -1,-1 0,-1 -1,0 -1,1 -2,0 -1,1 -3,0 -1,1 -2,0 -1,1 -4,0 -1,1 -1,1 -2,0 -1,1 -2,0 -1,1 -2,0 -1,1 -3,0 -1,1 -2,0 -1,1 -2,0 -1,1 -3,0 -1,1 -1,1 -2,0 -1,1 -1,0 -1,1 -2,0 -1,1 -3,0 -1,1 -3,0 -1,1 -2,0 -1,1 -3,0 -1,1 -1,0 -1,1 -2,0 -1,1 -2,0 -1,1 -2,0 -1,1 -2,0 -1,1 -2,0 -1,1 -2,0 -1,1Z"/>
<path onmouseover="hoverPath(evt)" onmouseout="recoverPath(evt)" fill="rgb(243,242,235)" d="M  53,92l 0,1 1,1 1,1 0,1 2,0 1,1 2,0 1,-1 1,0 1,-1 1,0 0,-2 1,-1 2,0 1,-1 2,0 1,-1 3,0 1,-1 3,0 1,-1 3,0 1,-1 3,0 1,-1 5,0 1,1 2,0 1,-1 2,0 0,-2 1,-1 2,0 1,-1 4,0 1,1 2,0 1,-1 2,0 0,-2 1,-1 2,0 1,-1 3,0 1,1 2,0 1,-1 6,0 1,1 0,-1 1,-1 1,-1 -4,0 -1,-1 0,-1 -1,-1 0,-3 -1,-1 0,-3 -1,-1 0,-4 -1,0 -1,-1 0,3 -1,1 -1,1 -2,0 -1,1 -3,0 -1,1 -2,0 -1,1 -3,0 -1,1 -2,0 -1,1 -3,0 -1,1 -2,0 -1,1 -2,0 -1,1 -2,0 -1,1 -2,0 -1,1 -2,0 -1,1 -3,0 -1,1 -2,0 -1,1 -2,0 -1,1 -2,0 -1,1 -3,0 -1,1 -1,0 -1,1 -2,0 0,5 -1,1 -1,0 -1,1 -10,0 0,1 1,0 1,1 1,1 77,-12 0,1 1,1 0,2 1,1 0,2 1,1 0,2 1,1 0,2 1,1 0,2 1,1 0,-1 -1,-3 -1,-3 -1,-3 -1,-3 -1,-3 -1,-1 -77,12Z"/>
<path onmouseover="hoverPath(evt)" onmouseout="recoverPath(evt)" fill="rgb(178,202,237)" d="M  80,3l -4,0 -1,1 0,1 1,0 1,-1 2,0 1,-1 9,0 1,-1 11,0 1,-1 13,0 1,1 0,1 1,0 0,-2 1,-1 -37,0 2,3Z"/>
<path onmouseover="hoverPath(evt)" onmouseout="recoverPath(evt)" fill="rgb(240,240,231)" d="M  179,164l 8,0 1,1 0,-1 1,-1 6,0 1,-1 6,0 0,-1 1,-1 3,0 1,1 5,0 1,-1 7,0 0,-1 1,-1 6,0 1,1 11,0 0,-4 1,-1 2,0 1,1 0,2 1,1 0,1 5,0 1,-1 1,0 1,-1 3,0 0,-17 -1,0 -1,1 -2,0 -1,-1 -3,0 -1,1 -2,0 -1,1 -3,0 -1,1 0,4 -1,1 -2,0 -1,-1 0,-1 -1,-1 0,-1 -1,0 -1,1 -3,0 0,2 -1,1 -3,0 -1,-1 -2,0 -1,1 -2,0 -1,1 -3,0 -1,1 -2,0 -1,1 -2,0 -1,1 -2,0 -1,1 -3,0 -1,1 -2,0 -1,1 -2,0 -1,1 -2,0 -1,1 -2,0 -1,1 -2,0 -1,1 -3,0 -1,1 -2,0 -1,1 -2,0 -1,1 -2,0 -1,1 -2,0 -1,1 -2,0 -1,1 -3,0 -1,1 -1,0 0,2 1,1 4,0 1,1 2,0 1,1 0,-4 1,-1 1,-1 5,0 1,-1Z"/>
<path onmouseover="hoverPath(evt)" onmouseout="recoverPath(evt)" fill="rgb(243,242,233)" d="M  239,75l -3,0 1,1 0,4 1,1 0,5 1,1 0,4 1,1 0,4 1,1 0,4 1,1 0,4 1,1 0,3 1,1 0,1 1,1 0,1 1,1 0,2 1,1 0,2 2,0 1,1 0,2 -1,1 0,1 1,1 0,1 1,1 0,2 1,1 0,1 1,1 2,0 0,-63 -1,0 -1,1 -3,0 -1,1 -2,0 -1,1 -3,0 -1,1 -2,0 -1,1Z"/>
<path onmouseover="hoverPath(evt)" onmouseout="recoverPath(evt)" fill="rgb(238,240,234)" d="M  97,189l 0,0 1,1 0,1 1,1 0,1 1,1 0,1 1,1 0,1 1,1 0,1 1,1 0,3 -1,1 0,2 1,1 0,4 -1,1 0,8 1,0 1,1 0,-1 1,-1 1,0 1,-1 3,0 1,-1 3,0 1,-1 2,0 1,-1 3,0 1,-1 5,0 1,1 0,-6 1,-1 0,-1 1,-1 0,-3 -1,-1 0,-3 -1,-1 0,-2 -1,-1 0,-3 -1,-1 0,-1 -2,0 -1,-1 0,-2 -1,-1 0,-2 -3,0 -1,-1 -2,0 -1,1 -2,0 0,1 -1,1 -2,0 -1,-1 -2,0 -1,1 -3,0 -1,-1 0,-1 -1,-1 0,-3 -2,0 0,2 -1,1 -4,0 -1,-1 0,1 -1,1 -1,1 -3,0 -1,-1 -1,0 1,1 0,0 1,1 2,0 1,1 1,1 4,0 1,1Z"/>
<path onmouseover="hoverPath(evt)" onmouseout="recoverPath(evt)" fill="rgb(244,243,236)" d="M  202,244l 0,0 1,1 0,1 1,1 0,1 1,1 0,2 1,1 0,3 49,0 0,-24 -4,0 -1,1 -5,0 -1,1 -2,0 0,1 1,1 0,2 -1,1 -3,0 -1,-1 0,-1 -1,-1 0,-2 -1,1 -2,0 -1,1 -3,0 -1,1 -3,0 -1,1 -2,0 -1,1 -3,0 -1,1 -3,0 -1,1 -2,0 -1,1 -2,0 -1,1 -2,0 -1,1 -2,0 -1,1Z"/>
<path onmouseover="hoverPath(evt)" onmouseout="recoverPath(evt)" fill="rgb(171,198,238)" d="M  216,236l -2,0 -1,1 -2,0 -1,1 -2,0 -1,1 -2,0 -1,1 -1,1 -3,0 -1,1 -1,0 -1,1 -2,0 -1,1 2,0 1,1 1,1 1,1 0,1 1,1 0,1 1,1 0,4 3,0 0,-2 -1,-1 0,-2 -1,-1 0,-1 -1,-1 0,-1 -1,-1 0,-3 16,-6 -12,5 0,0 1,-1 2,0 1,-1 2,0 1,-1 2,0 1,-1 3,0 1,-1 3,0 1,-1 2,0 1,-1 3,0 1,-1 3,0 1,-1 2,0 0,-1 -2,0 -1,1 -3,0 -1,1 -4,0 -1,1 -2,0 -1,1 1,0 3,-1Z"/>
<path onmouseover="hoverPath(evt)" onmouseout="recoverPath(evt)" fill="rgb(240,239,232)" d="M  0,125l 0,27 2,0 1,-1 1,0 1,-1 2,0 1,-1 1,0 1,-1 2,0 1,-1 2,0 1,-1 1,0 1,-1 2,0 1,-1 1,0 1,-1 2,0 1,-1 2,0 1,-1 2,0 1,-1 2,0 1,-1 1,0 1,-1 2,0 1,-1 2,0 1,-1 2,0 1,-1 1,0 1,-1 2,0 1,-1 1,0 1,-1 1,0 1,-1 1,0 1,-1 2,0 1,-1 1,0 1,-1 0,-2 1,-1 0,-2 -1,-1 0,-2 -1,-1 0,-2 -1,-1 0,-1 -1,-1 0,-1 -1,-1 -1,-1 0,-1 -1,-1 0,-1 -1,-1 0,-2 -1,0 -1,-1 0,-2 -1,0 -1,1 -1,0 -1,1 -1,0 -1,1 -2,0 -1,-1 0,-2 1,-1 1,-1 1,0 1,-1 1,0 1,-1 -1,0 -1,-1 0,-1 -1,0 -1,-1 -1,-1 0,-1 -1,-1 0,-2 -3,0 -1,1 -1,0 -1,1 -5,0 -1,1 -2,0 -1,1 -6,0 -1,1 -1,1 -2,0 -1,1 -2,0 -1,1 -2,0 -1,1 -3,0 -1,1 -3,0 -1,1 -4,0Z"/>
<path onmouseover="hoverPath(evt)" onmouseout="recoverPath(evt)" fill="rgb(194,209,229)" d="M  49,87l 10,0 1,-1 1,0 0,-3 -1,0 -1,-1 0,-2 -2,0 -1,1 -2,0 -1,1 -3,0 -1,-1 0,-1 -5,0 -1,-1 0,-2 -2,0 0,1 -1,1 -1,0 1,1 0,1 1,1 0,3 -1,1 -2,0 -1,1 -1,0 -1,1 -1,1 -3,0 -1,1 -2,0 -1,1 -3,0 -1,1 -2,0 -1,1 -2,0 -1,1 -3,0 -1,1 -2,0 -1,1 -3,0 -1,1 -3,0 -1,1 -2,0 0,1 3,0 1,-1 3,0 1,-1 3,0 1,-1 2,0 1,-1 2,0 1,-1 2,0 1,-1 -7,2 0,0 -3,1 -4,1 -4,1 21,-6 4,0 1,-1 2,0 1,-1 5,0 1,-1 1,0 1,-1 5,0 1,1 0,2 1,1 0,1 1,1 1,0 1,1 0,1 1,0 1,1 0,2 -1,1 -1,1 -1,0 -1,1 -1,0 -1,1 6,-3 1,0 1,-1 1,0 1,-1 -2,0 -1,-1 0,-1 -1,-1 -1,-1 0,-1 -1,-1 -1,0 -1,-1 0,-3 1,-1Z"/>
<path onmouseover="hoverPath(evt)" onmouseout="recoverPath(evt)" fill="rgb(244,243,235)" d="M  58,101l 0,0 1,1 0,1 1,1 0,2 1,0 1,1 0,1 1,1 0,2 1,1 0,1 1,1 1,1 0,1 1,1 0,2 1,1 0,5 1,1 3,0 1,-1 1,0 1,-1 3,0 1,-1 1,-1 1,0 1,-1 1,0 1,-1 2,0 1,-1 1,0 1,-1 2,0 1,-1 2,0 1,-1 2,0 1,-1 2,0 1,-1 2,0 1,-1 2,0 1,-1 1,0 1,-1 2,0 1,-1 2,0 1,-1 2,0 1,-1 2,0 1,-1 2,0 1,-1 3,0 1,-1 2,0 1,-1 1,0 1,-1 2,0 0,-3 -1,-1 0,-1 -1,-1 0,-2 -1,-1 0,-2 -1,-1 0,-2 -1,-1 0,-2 -1,-1 0,-2 -1,-1 0,-2 -4,0 -1,1 -4,0 -1,-1 -1,0 -1,1 -2,0 0,2 -1,1 -2,0 -1,1 -4,0 -1,-1 -2,0 -1,1 -2,0 0,2 -1,1 -2,0 -1,1 -4,0 -1,-1 -3,0 -1,1 -3,0 -1,1 -3,0 -1,1 -3,0 -1,1 -3,0 -1,1 -2,0 -1,1 -2,0 0,2 -1,1 -1,0 -1,1 -1,0 -1,1 -3,0 -1,1 1,1Z"/>
<path onmouseover="hoverPath(evt)" onmouseout="recoverPath(evt)" fill="rgb(241,240,234)" d="M  233,204l -2,0 0,1 -1,1 0,1 -1,1 2,0 1,1 0,2 1,1 1,1 0,3 1,1 0,1 1,1 0,1 1,1 0,3 -1,1 0,1 1,1 0,4 1,0 1,1 0,2 1,1 0,1 1,0 -1,-2 0,-2 1,-1 2,0 1,-1 5,0 1,-1 5,0 0,-39 -2,0 -1,-1 0,2 -1,1 0,2 -1,1 -4,0 0,2 -1,1 -3,0 0,2 -1,1 -4,0 -1,-1 -1,0 0,2 -1,1 -1,1Z"/>
<path onmouseover="hoverPath(evt)" onmouseout="recoverPath(evt)" fill="rgb(240,242,235)" d="M  33,208l 0,1 1,1 0,1 1,1 0,2 1,1 0,2 1,1 0,2 1,1 0,3 1,1 2,0 1,1 0,1 1,1 0,2 1,1 3,0 1,-1 3,0 1,-1 2,0 1,-1 3,0 1,-1 2,0 1,-1 3,0 1,-1 3,0 1,-1 2,0 1,-1 3,0 1,-1 3,0 1,-1 3,0 1,-1 3,0 1,-1 3,0 1,-1 3,0 1,-1 3,0 0,-6 1,-1 0,-2 -1,-1 0,-4 1,-1 0,-1 -1,-1 0,-1 -1,-1 0,-1 -2,0 -1,-1 0,-2 1,-1 -1,-1 0,-1 -1,-1 -4,0 -1,-1 -1,-1 -2,0 -1,-1 -1,-1 -1,1 -2,0 -1,1 -3,0 -1,-1 -1,0 0,1 -1,1 -1,1 -2,0 -1,1 0,2 -1,1 -2,0 -1,1 -4,0 -1,-1 0,-3 -1,0 0,2 -1,1 -3,0 -1,1 -2,0 -1,1 -3,0 -1,-1 -1,0 -1,1 -2,0 0,1 -1,1 -1,1 -2,0 -1,1 -2,0 -1,1 -3,0 -1,-1 -1,0 0,1 -1,1 -1,0 -1,1 -1,0 -1,1 -2,0 -1,1 0,1 1,1 1,0 1,-1 2,0 1,1 2,0 1,1Z"/>
<path onmouseover="hoverPath(evt)" onmouseout="recoverPath(evt)" fill="rgb(171,198,238)" d="M  59,230l -3,0 -1,1 -2,0 -1,1 -3,0 -1,1 -5,0 -1,-1 -1,-1 0,3 -1,1 -3,0 -1,1 -3,0 -1,1 -3,0 -1,1 -3,0 -1,1 -2,0 -1,1 -3,0 -1,1 -2,0 -1,1 -3,0 -1,1 -3,0 -1,1 -3,0 -1,1 -2,0 0,1 3,0 1,-1 4,0 1,-1 3,0 1,-1 3,0 1,-1 3,0 1,-1 3,0 1,-1 2,0 1,1 0,1 1,1 0,5 1,1 0,6 1,0 0,-5 -1,-2 0,-3 -1,-3 0,-2 1,-1 1,-1 2,0 1,-1 3,0 1,-1 2,0 1,-1 3,0 1,-1 3,0 1,-1 2,0 8,-3 -18,0 0,-1 -1,-1 0,-1 13,5 2,0 1,-1 3,0 1,-1 3,0 1,-1 2,0 1,-1 3,0 1,-1 3,0 1,-1 2,0 1,-1 3,0 1,-1 3,0 1,-1 3,0 1,-1 4,0 1,-1 3,0 1,-1 1,0 0,-1 -2,0 -1,1 -3,0 -1,1 -3,0 -1,1 -3,0 -1,1 -3,0 -1,1 -3,0 -1,1 -3,0 -1,1 -2,0 -1,1 -3,0 -1,1 -3,0 -1,1 1,0 11,-3 20,-5 4,-1Z"/>
<path onmouseover="hoverPath(evt)" onmouseout="recoverPath(evt)" fill="rgb(241,240,234)" d="M  66,70l 0,1 -1,1 0,4 2,0 1,-1 1,0 1,-1 1,0 1,-1 2,0 1,-1 2,0 1,-1 2,0 1,-1 2,0 1,-1 2,0 1,-1 2,0 1,-1 3,0 1,-1 2,0 1,-1 3,0 1,-1 3,0 1,-1 3,0 1,-1 3,0 1,-1 3,0 1,-1 3,0 0,-1 -1,-1 0,-2 1,-1 2,0 1,1 0,1 1,1 0,1 1,-1 2,0 1,-1 4,0 1,-1 4,0 1,-1 5,0 1,-1 6,0 1,-1 8,0 1,-1 9,0 1,-1 14,0 1,-1 27,0 0,-2 -1,-1 0,-2 -1,-1 0,-3 -1,-1 -1,-1 0,-3 -1,-1 0,-1 -1,-1 0,-3 -1,-1 0,-1 -1,-1 0,-2 -1,-1 -1,-1 0,-3 -2,-2 0,-2 -1,-1 0,-3 -1,-1 -1,-1 0,-2 -1,-1 0,-3 -1,-1 -1,-1 0,-2 -66,0 0,1 -1,1 -8,0 0,2 -1,1 -2,0 0,2 1,1 0,3 1,1 0,4 -1,1 -1,1 -2,0 -1,-1 -1,-1 0,-1 -1,-1 0,-1 -1,0 -1,1 -1,0 -1,1 -1,1 -1,1 -1,1 0,4 -1,1 0,1 -1,1 -12,0 1,1 3,0 1,1 0,5 -1,1 -3,0 0,2 -1,1 -3,0 0,8 1,1 0,1 5,0 1,1 0,3 -1,1 -1,0 -1,1 0,1 -2,2 -1,1 -1,1 -1,0 0,1 -2,2 -3,0 -1,-1 0,-10 1,-1 -1,-1 0,-2 -2,0 -1,1 -1,0 0,5 -1,1 -1,1 -3,0 0,4 -1,1 -1,0 0,10 -1,1 -1,0 -1,1 23,-46 0,1 -1,-2 -1,-1 -1,-1 -1,-1 -1,-1 0,-1 -2,0 1,1 0,0 6,5 -23,46Z"/>
<path onmouseover="hoverPath(evt)" onmouseout="recoverPath(evt)" fill="rgb(244,243,236)" d="M  113,249l 0,0 1,1 0,2 1,1 0,2 84,0 0,-3 -1,-1 0,-1 -1,-1 0,-1 -1,-1 -1,-1 -2,0 -1,-1 0,-2 2,-2 2,0 1,-1 1,0 1,-1 3,0 1,-1 1,-1 2,0 1,-1 2,0 1,-1 2,0 1,-1 2,0 1,-1 3,0 1,-1 2,0 1,-1 4,0 1,-1 3,0 1,-1 3,0 0,-1 -1,-1 0,-3 1,-1 0,-1 -1,-1 0,-1 -2,0 -1,-1 0,-2 1,-1 0,-2 -1,-1 0,0 -1,-1 0,-2 -2,0 -1,-1 0,-2 1,-1 0,-1 1,-1 0,-1 1,-1 2,0 1,-1 0,-2 1,-1 3,0 1,1 2,0 0,-2 1,-1 3,0 0,-2 1,-1 4,0 0,-2 1,-1 0,-3 1,-1 2,0 1,1 0,1 1,0 0,-24 -9,0 0,3 -1,1 -2,0 -1,-1 0,1 -1,1 -2,0 -1,1 -1,1 -1,0 -1,1 -1,1 -1,0 -1,1 -1,0 -1,1 -1,1 -1,0 -1,1 -1,0 -1,1 -1,1 -1,0 -1,1 -1,1 -1,0 -1,1 -1,1 -1,0 -1,1 -1,1 -1,0 -2,2 -2,0 -1,1 -1,0 -1,1 -2,0 -1,1 -2,0 -1,1 -2,0 -1,1 -1,0 -1,1 -2,0 -1,1 -1,0 -1,1 -2,0 -1,1 -1,0 -1,1 -3,0 -1,1 -2,0 -1,1 -1,1 -2,0 -1,1 -2,0 -1,1 -2,0 -1,1 -2,0 -1,1 -3,0 -1,1 -2,0 -1,1 -2,0 -1,1 -2,0 -1,1 -2,0 -1,1 -2,0 -1,1 -3,0 -1,1 -2,0 -1,1 -3,0 -1,1 -2,0 -1,1 -3,0 0,3 -1,1 -2,0 -1,-1 0,-1 -3,0 -1,1 -3,0 -1,1 -2,0 -1,1 -3,0 -1,1 -3,0 -1,1 -1,0 0,4 -1,1 0,3 1,1 0,2 1,1 0,2 2,0 1,1 0,3 -1,1 0,2 1,1 0,3 1,1 0,2Z"/>
<path onmouseover="hoverPath(evt)" onmouseout="recoverPath(evt)" fill="rgb(244,243,236)" d="M  127,181l -2,0 1,1 0,4 -1,1 0,1 2,0 1,1 0,1 1,1 0,3 1,1 0,2 1,1 0,3 1,1 0,5 4,0 1,-1 3,0 1,-1 3,0 1,-1 2,0 1,-1 3,0 1,-1 2,0 1,-1 2,0 1,-1 2,0 1,-1 2,0 1,-1 2,0 1,-1 3,0 1,-1 2,0 1,-1 2,0 1,-1 2,0 1,-1 1,0 1,-1 3,0 1,-1 1,-1 1,0 1,-1 1,0 1,-1 1,0 1,-1 1,0 1,-1 2,0 1,-1 1,0 1,-1 2,0 1,-1 1,0 1,-1 2,0 1,-1 1,0 1,-1 1,0 1,-1 1,0 1,-1 1,0 1,-1 1,-1 1,0 1,-1 1,-1 1,-1 1,0 2,-2 1,-1 1,0 1,-1 1,-1 1,0 1,-1 1,-1 0,-1 -13,0 -1,1 -8,0 -1,1 -7,0 -1,1 -8,0 -1,1 -7,0 -1,1 -7,0 -1,1 -2,0 0,1 -1,1 -2,0 -1,-1 -2,0 -1,-1 -2,0 0,1 -1,1 -1,0 -1,1 -2,0 0,1 -1,1 -2,0 -1,-1 -2,0 -1,1 -3,0 -1,-1 0,-4 1,-1 -1,0 -1,1 -2,0 0,4 -1,1 -3,0 -1,-1 0,-2 -2,0 2,3 0,1 -1,1 -1,1 -2,0 0,1 -1,1 -2,0 -1,-1 -2,0 -1,1 -2,0 5,27 0,0 -5,-27Z"/>
<path onmouseover="hoverPath(evt)" onmouseout="recoverPath(evt)" fill="rgb(244,243,236)" d="M  0,159l 0,49 2,0 1,1 1,-1 0,-1 1,-1 2,0 1,1 1,0 1,-1 0,-1 1,-1 3,0 1,1 1,0 1,-1 2,0 1,-1 0,-1 1,-1 3,0 1,1 1,0 1,-1 1,0 0,-1 -1,-1 0,-2 -1,-1 0,-2 -1,-1 0,-1 -1,-1 0,-2 -1,-1 0,-2 -1,-1 0,-2 -1,-1 0,-2 -1,-1 0,-1 -1,-1 0,-2 -1,-1 0,-2 -1,-1 0,-2 -1,-1 0,-3 -1,-1 -1,-1 0,-2 -1,-1 0,-3 -1,-1 0,-1 -3,0 -1,1 -2,0 -1,1 -1,0 -1,1 -2,0 -1,1Z"/>
<path onmouseover="hoverPath(evt)" onmouseout="recoverPath(evt)" fill="rgb(171,198,238)" d="M  58,7l -5,0 -1,1 -5,0 -1,1 -3,0 -1,1 -1,0 -1,1 -1,1 -1,1 -1,1 -1,1 -1,0 -1,1 -1,1 -1,1 -1,0 -1,1 -2,2 -1,0 -1,1 -1,1 -1,0 -1,1 -2,2 -1,0 -1,1 -1,1 -1,0 -1,1 -1,0 -1,1 -4,0 -1,-1 -1,-1 0,-1 -1,-1 -1,-1 0,-1 -1,-1 -1,-1 0,-1 -1,-1 0,-1 -1,-1 -1,-1 0,-1 -1,-1 0,7 2,0 1,1 0,1 1,1 0,1 1,1 1,1 0,1 1,1 0,1 1,1 0,1 1,1 1,1 0,1 1,1 0,1 2,2 0,1 1,1 1,1 0,1 1,1 1,1 1,1 0,1 1,1 1,1 0,1 2,2 0,1 1,1 1,1 0,1 1,1 1,1 1,1 0,1 1,1 1,1 0,1 1,1 1,1 1,1 0,1 1,1 1,1 0,1 1,1 1,1 0,1 1,1 0,1 1,1 1,0 0,-3 -1,-1 0,0 -1,-1 0,-1 -1,-1 -1,-1 0,-1 -1,-1 -1,-1 0,-1 -1,-1 -1,-1 -1,-1 0,-1 -1,-1 -1,-1 0,-1 -1,-1 -1,-1 0,-1 -1,-1 -1,-1 0,-1 -1,-1 -1,-1 0,-1 -1,-1 -1,-1 0,-1 -1,-1 -1,-1 -1,-1 0,-1 -1,-1 0,-1 -1,-1 -1,-1 0,-1 -1,-1 0,-2 1,-1 2,-2 1,0 2,-2 1,-1 1,0 1,-1 1,-1 1,0 1,-1 1,-1 1,0 1,-1 1,-1 1,0 1,-1 1,-1 1,-1 1,0 1,-1 1,-1 1,-1 1,0 1,-1 2,-2 1,0 1,-1 1,-1 2,0 1,-1 3,0 1,-1 3,0 1,-1 2,0 1,-1 1,1 1,-1 6,0 1,-1 1,0 0,-1 -3,0 -1,1 -5,0 0,2 -1,-1Z"/>
<path onmouseover="hoverPath(evt)" onmouseout="recoverPath(evt)" fill="rgb(170,198,238)" d="M  63,79l -2,0 0,2 1,-1 2,0 1,-1 1,0 1,-1 3,0 1,-1 2,0 1,-1 2,0 1,-1 2,0 1,-1 3,0 1,-1 2,0 1,-1 2,0 1,-1 2,0 1,-1 2,0 1,-1 2,0 1,-1 3,0 1,-1 2,0 1,-1 3,0 1,-1 2,0 1,-1 3,0 1,-1 2,0 1,-1 -2,0 -2,1 -2,0 -2,1 -2,0 -1,1 -3,0 -1,1 -3,0 -1,1 -3,0 -1,1 -2,0 -1,1 -3,0 -1,1 -2,0 -1,1 -2,0 -1,1 -2,0 -1,1 -2,0 -1,1 -2,0 -1,1 -2,0 -1,1 -1,0 -1,1 -1,0 4,-1 3,-1 3,-1 -16,5 3,-1 -2,0Z"/>
<path onmouseover="hoverPath(evt)" onmouseout="recoverPath(evt)" fill="rgb(173,199,238)" d="M  75,127l -1,0 -1,1 -5,0 -1,-1 -1,-1 0,-5 -1,-1 0,-2 -1,-1 0,-1 -1,-1 -1,-1 0,-1 -1,-1 0,-2 -1,-1 0,-1 -1,0 -1,-1 0,-2 -1,-1 0,-1 -1,-1 -1,-1 0,2 1,0 1,2 0,1 1,2 1,1 0,1 1,1 0,-1 1,3 1,2 1,1 0,2 1,1 0,2 1,1 0,4 -1,1 0,2 -1,1 -1,1 -1,0 -1,1 -2,0 -1,1 -1,0 -1,1 -1,0 -1,1 -1,0 -1,1 -2,0 -1,1 -1,0 -1,1 -2,0 -1,1 -2,0 -1,1 -2,0 -1,1 -1,0 -1,1 -2,0 -1,1 -2,0 -1,1 -2,0 -1,1 -2,0 -1,1 -1,0 -1,1 -2,0 -1,1 -1,0 -1,1 -2,0 -1,1 -2,0 -1,1 -1,0 -1,1 -2,0 -1,1 -1,0 -1,1 -3,0 0,2 2,0 1,-1 1,0 1,-1 2,0 1,-1 5,0 1,1 0,-2 1,-1 1,-1 2,0 1,-1 2,0 1,-1 1,0 1,-1 2,0 1,-1 2,0 1,-1 2,0 1,-1 2,0 1,-1 1,0 1,-1 2,0 1,-1 2,0 1,-1 1,0 1,-1 1,0 1,-1 1,0 1,-1 2,0 1,-1 2,0 1,-1 2,0 1,-1 1,0 1,-1 2,0 1,-1 2,0 1,-1 1,0 1,-1 2,0 1,-1 1,0 1,-1 1,-1 -61,28 1,1 0,3 1,1 0,2 1,1 1,1 0,3 1,1 0,2 1,1 0,2 1,1 0,2 1,1 0,1 1,1 0,2 1,1 0,2 1,1 0,2 1,1 0,2 1,1 0,1 1,1 0,2 1,1 0,2 1,1 0,-3 -1,-1 0,-2 -1,-1 0,-2 -1,-1 0,-1 -1,-1 0,-2 -1,-1 0,-2 -1,-1 0,-2 -1,-1 0,-2 -1,-1 0,-1 -1,-1 0,-2 -1,-1 0,-2 -1,-1 3,9 0,0 5,14 -9,-27 -1,-1 0,-2 -1,-1 -1,-4 -1,0 61,-28 2,-1 0,1 1,0 1,-1 1,0 1,-1 2,0 1,-1 1,0 1,-1 1,0 1,-1 1,-1 3,0 1,-1 2,0 1,-1 2,0 1,-1 2,0 1,-1 2,0 1,-1 2,0 1,-1 1,-1 3,0 1,-1 2,0 1,-1 2,0 1,-1 2,0 1,-1 1,-1 2,0 1,-1 3,0 1,-1 2,0 1,-1 2,0 1,-1 2,0 1,1 0,-2 1,-1 5,0 1,-1 2,0 1,-1 2,0 1,-1 2,0 1,-1 2,0 1,-1 2,0 1,-1 2,0 1,-1 1,0 1,-1 3,0 1,-1 2,0 1,-1 3,0 1,-1 3,0 1,-1 2,0 1,-1 1,0 1,-1 2,0 1,-1 1,-1 3,0 1,-1 2,0 1,-1 2,0 1,-1 3,0 1,-1 2,0 1,-1 2,0 1,-1 2,0 1,-1 1,-1 4,0 1,-1 2,0 1,-1 3,0 1,-1 2,0 1,-1 1,0 0,-1 -1,0 -1,1 -2,0 -1,1 -1,0 -3,1 -3,1 -2,0 -3,1 -1,1 -2,0 -1,1 -2,0 -1,1 -2,0 -1,1 -2,0 -2,1 -2,0 -1,1 -2,0 -1,1 -4,1 -1,1 -2,0 -1,1 -2,0 -1,1 -2,0 -1,1 -2,0 -1,1 -3,0 -1,1 -3,0 -1,1 -2,0 -1,1 -2,0 -1,1 -2,0 -1,1 -1,0 -1,1 -2,0 -1,1 -2,0 -1,1 -2,0 -1,1 -2,0 -1,1 -3,0 18,-5 0,0 3,-1 6,-2 11,-3 3,-1 -44,13 0,0 -1,-1 0,0 -1,-1 0,3 2,3 -4,-2 -1,0 -2,1 -3,1 -4,1 -3,1 -1,1 -2,0 -1,1 -2,0 -1,1 -2,0 -1,1 -2,0 -2,1 -1,1 -2,0 -1,1 -2,0 -1,1 -2,0 -1,1 -2,0 -1,1 -2,0 -1,1 -2,0 -2,1 -1,1 -2,0 -1,1 -1,0 -1,1 -1,0 -1,1 3,-1 2,-1 -7,3 -1,0 -2,1Z"/>
<path onmouseover="hoverPath(evt)" onmouseout="recoverPath(evt)" fill="rgb(243,242,234)" d="M  77,7l -3,0 -1,-1 0,-3 1,-1 1,-1 4,0 0,-1 -10,0 0,1 1,1 0,5 1,1 1,1 2,0 1,1 2,2 1,1 1,1 1,1 0,1 5,0 1,1 0,1 1,1 1,1 3,3 10,0 0,-1 1,-1 0,-4 1,-1 1,-1 1,-1 1,-1 1,-1 1,0 1,-1 3,0 1,1 0,1 1,1 0,1 1,1 1,-1 0,-2 -1,-1 0,-3 -1,-1 0,-5 -11,0 -1,1 -11,0 -1,1 -7,0 -1,1 -4,0 -1,1Z"/>
<path onmouseover="hoverPath(evt)" onmouseout="recoverPath(evt)" fill="rgb(244,242,234)" d="M  134,78l -1,0 -1,1 1,1 0,2 1,1 0,2 1,1 0,2 1,1 0,2 1,1 0,2 1,1 0,3 1,1 0,1 1,1 1,-1 3,0 1,-1 2,0 1,-1 2,0 1,-1 2,0 1,-1 2,0 1,-1 1,0 1,-1 2,0 1,-1 2,0 1,-1 2,0 1,-1 3,0 1,-1 3,0 1,-1 2,0 1,-1 2,0 1,-1 2,0 1,-1 2,0 1,-1 3,0 1,-1 1,-1 2,0 1,-1 3,0 1,-1 2,0 1,-1 2,0 1,-1 2,0 1,-1 2,0 1,-1 2,0 1,-1 4,0 1,-1 2,0 1,-1 1,0 1,-1 2,0 1,-1 2,0 0,-4 -1,-1 0,-3 -1,-1 0,-3 -1,-1 0,-2 -4,0 -1,-1 -4,0 -1,-1 -1,0 -1,-1 -7,0 -1,1 -2,0 0,2 -1,1 -3,0 0,2 -1,1 -3,0 -1,1 -4,0 -1,1 -4,0 -1,1 -4,0 -1,1 -4,0 -1,1 -3,0 -1,1 -4,0 -1,1 -3,0 -1,1 -3,0 -1,1 -3,0 -1,1 -3,0 -1,1 -3,0 0,2 -1,1 -5,0 -1,-1 -2,0 -1,1 -3,0 0,2 -1,1Z"/>
<path onmouseover="hoverPath(evt)" onmouseout="recoverPath(evt)" fill="rgb(171,198,238)" d="M  155,55l -3,0 -1,1 -6,0 -1,1 -5,0 -1,1 -4,0 -1,1 -4,0 -1,1 -2,0 0,1 3,0 1,-1 3,0 1,-1 3,0 -8,1 0,0 10,-2 3,0 3,-1 2,0 5,-1 2,0 1,-1 9,-1 0,1 1,-1 15,0 1,-1 25,0 1,-1 8,0 1,-1 0,-1 -1,-1 0,-2 -1,-1 -1,-1 0,-2 -1,-1 0,-3 -1,-1 0,-1 -1,-1 0,-2 -1,-1 0,-1 -1,-1 0,1 1,2 1,3 0,1 1,1 0,0 1,4 1,3 1,1 0,4 -8,1 -20,0 -6,1Z"/>
<path onmouseover="hoverPath(evt)" onmouseout="recoverPath(evt)" fill="rgb(171,198,237)" d="M  171,199l -3,0 -1,1 -2,0 -1,1 -2,0 -1,1 -2,0 -1,1 -2,0 -1,1 -2,0 -1,1 -3,0 -1,1 -2,0 -1,1 -3,0 -1,1 -3,0 -1,1 -3,0 -1,1 -3,0 0,2 2,0 1,-1 2,0 1,-1 3,0 1,-1 2,0 1,-1 3,0 1,-1 2,0 1,-1 2,0 1,-1 2,0 1,-1 2,0 1,-1 2,0 1,-1 3,0 1,-1 2,0 1,-1 1,0 1,-1 3,0 1,-1 2,0 1,-1 1,-1 2,0 1,-1 3,0 1,-1 1,0 1,-1 2,0 1,-1 1,0 1,-1 2,0 1,-1 1,0 1,-1 2,0 1,-1 2,0 1,-1 2,0 1,-1 1,0 1,-1 2,0 2,-2 1,0 2,-2 1,0 1,-1 1,-1 1,0 1,-1 1,-1 1,0 1,-1 1,-1 1,0 1,-1 1,0 1,-1 1,-1 1,0 1,-1 1,0 1,-1 1,-1 1,0 1,-1 1,-1 2,0 0,-1 1,-1 -3,0 -1,1 -2,0 -1,1 -1,0 -1,1 -1,1 -1,1 -1,0 -1,1 -1,1 -1,0 -1,1 -1,1 -1,1 -1,0 -1,1 -1,1 -1,1 -1,0 -2,2 -1,0 -1,1 -1,0 -1,1 -1,0 -1,1 -1,0 -1,1 -2,0 -1,1 -1,0 -1,1 -2,0 -1,1 -1,0 -1,1 -2,0 -1,1 -1,0 -1,1 -1,0 -1,1 -1,0 -1,1 -1,0 -1,1 3,-1 0,0 2,-1 -20,8 -1,0 14,-5 -2,0 -2,1 -3,1 -1,1 -2,0 -1,1Z"/>
<path onmouseover="hoverPath(evt)" onmouseout="recoverPath(evt)" fill="rgb(181,223,214)" d="M  180,166l -1,1 -5,0 -1,1 0,1 1,0 1,-1 7,0 1,-1 7,0 1,-1 8,0 1,-1 7,0 1,-1 8,0 1,-1 15,0 1,1 3,0 1,-1 5,0 1,1 0,1 1,1 0,-3 1,-1 10,0 0,-3 -2,0 -1,1 -1,0 -1,1 -7,0 -1,-1 0,-1 -1,-1 0,2 -1,1 -13,0 -1,-1 -4,0 0,1 -1,1 -7,0 -1,1 -7,0 -1,-1 -1,0 0,1 -1,1 -6,0 -1,1 -6,0 0,1 -9,0 -7,2Z"/>
</svg>