<svg width="256" height="256" xmlns="http://www.w3.org/2000/svg"><script> 
var tempColor;
function hoverPath(evt){
obj = evt.target;
tempColor = obj.getAttribute("fill");
obj.setAttribute("fill","red");
//alert(tempColor);
//obj.setAttribute("stroke","red");}
function recoverPath(evt){
obj = evt.target;
obj.setAttribute("fill", tempColor);
//obj.setAttribute("stroke", tempColor);
}</script><path onmouseover="hoverPath(evt)" onmouseout="recoverPath(evt)" fill="rgb(250,248,229)" d="M  1,92l -1,0 0,1 7,0 1,-1 1,0 1,-1 1,-1 0,-2 1,-1 0,-1 -1,-1 0,-5 -1,-1 0,-6 -1,-1 0,-11 -1,-1 0,-3 -1,-1 0,-7 -1,-1 0,-7 -1,-1 0,-8 -1,-1 0,-7 -1,-1 0,-8 -1,-1 0,-10 1,-1 2,0 1,-1 6,0 1,-1 5,0 0,-1 -18,0 0,24 2,0 1,1 0,8 1,1 0,6 1,1 0,8 1,1 0,7 1,1 0,8 1,1 0,5 1,1 0,6 1,1 0,9 -1,1 -1,1 -1,0 -1,1Z"/>
<path onmouseover="hoverPath(evt)" onmouseout="recoverPath(evt)" fill="rgb(244,243,236)" d="M  40,100l 0,2 1,1 1,1 0,3 1,1 1,1 0,1 1,1 0,1 1,1 0,1 1,1 0,2 1,1 1,1 0,2 1,1 0,2 1,1 0,1 1,1 0,1 1,1 0,1 1,1 0,1 1,1 0,1 1,1 0,1 1,1 0,1 1,1 0,1 1,1 0,2 1,1 0,2 1,1 1,1 1,1 1,1 1,1 1,1 1,1 1,1 1,1 1,1 6,0 1,-1 10,0 1,-1 22,0 1,-1 17,0 1,-1 17,0 1,-1 18,0 1,-1 16,0 1,-1 15,0 1,-1 13,0 1,-1 14,0 1,-1 14,0 1,-1 12,0 0,-53 -5,0 -1,1 -10,0 -1,1 -10,0 0,2 -1,1 -9,0 -1,1 -10,0 -1,1 -10,0 -1,1 -12,0 -1,-1 -13,0 -1,-1 0,-4 -2,0 -1,-1 0,-4 -1,-1 0,-4 -1,-1 0,-4 -1,-1 0,-6 -1,-1 0,-3 -1,-1 0,-1 -50,0 -1,1 -7,0 -1,-1 -6,0 -1,-1 -5,0 -1,-1 -1,0 -1,-1 0,-3 -1,0 -1,-1 -1,0 -1,1 -5,0 -1,-1 -6,0 -1,-1 -5,0 -1,-1 -2,0 0,3 -1,1 -3,0 -1,-1 -6,0 -1,-1 -12,0 -1,1 -6,0 -1,1 -2,0 -1,1 0,2 1,1 0,4 1,1 0,4 1,1 0,5 1,1 0,5 1,1 0,3 1,1 0,1 1,1 1,0 1,1 0,2 3,0 1,1 0,2 1,1Z"/>
<path onmouseover="hoverPath(evt)" onmouseout="recoverPath(evt)" fill="rgb(244,243,236)" d="M  75,162l 0,1 1,1 0,2 1,1 0,1 1,0 1,1 0,1 1,1 0,1 1,1 0,1 1,1 0,1 1,1 0,2 1,0 1,1 2,0 1,1 3,0 1,1 1,1 0,13 -1,1 0,15 -1,1 0,14 -1,1 0,17 -1,1 0,9 73,0 0,-2 1,-1 1,0 1,-1 1,0 1,-1 1,0 1,-1 1,0 1,-1 1,0 1,-1 2,0 0,-4 1,-1 1,0 1,-1 1,0 1,-1 1,0 1,-1 1,0 1,-1 1,0 1,-1 1,0 1,-1 1,0 1,-1 1,0 1,-1 1,0 1,-1 1,0 1,-1 1,0 1,-1 1,0 1,-1 1,0 1,-1 1,0 1,-1 1,0 1,-1 1,0 1,-1 2,0 1,-1 1,0 1,-1 1,0 1,-1 1,0 1,-1 1,0 1,-1 1,0 1,-1 1,0 1,-1 1,0 1,-1 1,0 1,-1 1,-1 1,0 1,-1 1,-1 1,0 1,-1 2,0 1,-1 5,0 1,-1 9,0 1,-1 3,0 0,-60 -7,0 -1,1 -15,0 -1,1 -15,0 -1,1 -13,0 -1,1 -13,0 -1,1 -14,0 -1,1 -19,0 -1,1 -18,0 -1,1 -21,0 -1,1 -21,0 -1,1 -10,0 -1,1 -2,0 -1,1 101,85 0,1 1,1 1,0 -1,-1 0,-1 -1,0 -101,-85Z"/>
<path onmouseover="hoverPath(evt)" onmouseout="recoverPath(evt)" fill="rgb(244,243,235)" d="M  166,65l -1,0 0,6 -1,1 0,5 1,1 0,4 1,1 0,4 1,1 0,4 2,0 1,1 0,4 13,0 1,1 10,0 1,-1 10,0 1,-1 10,0 1,-1 9,0 0,-2 1,-1 10,0 1,-1 10,0 1,-1 6,0 0,-26 -38,0 -1,1Z"/>
<path onmouseover="hoverPath(evt)" onmouseout="recoverPath(evt)" fill="rgb(243,242,234)" d="M  182,246l 0,0 -1,1 -2,0 1,1 14,0 1,-1 13,0 1,-1 17,0 1,-1 18,0 1,-1 9,0 0,-28 -6,0 -1,1 -6,0 -1,1 -3,0 -1,1 -2,0 -1,1 -1,0 -1,1 -1,1 -1,0 -1,1 -1,0 -1,1 -1,0 -1,1 -1,0 -1,1 -1,1 -1,0 -1,1 -1,0 -1,1 -1,0 -1,1 -1,0 -1,1 -1,0 -1,1 -2,0 -1,1 -1,0 -1,1 -1,0 -1,1 -1,0 -1,1 -1,0 -1,1 -1,0 -1,1 -1,0 -1,1 -1,0 -1,1 -1,0 -1,1 -1,0 -1,1 -2,0 -1,1 -1,0 -1,1 -1,0 -1,1 -1,0 -1,1Z"/>
<path onmouseover="hoverPath(evt)" onmouseout="recoverPath(evt)" fill="rgb(234,235,223)" d="M  0,69l 0,21 5,0 1,-1 1,0 1,-1 0,-7 -1,-1 0,-6 -1,-1 0,-5 -1,-1 0,-8 -1,-1 0,-7 -1,-1 0,-8 -1,-1 0,-6 -1,-1 0,-8 -1,0Z"/>
<path onmouseover="hoverPath(evt)" onmouseout="recoverPath(evt)" fill="rgb(244,243,237)" d="M  0,175l 0,80 84,0 0,-6 1,-1 0,-20 1,-1 0,-11 1,-1 0,-15 1,-1 0,-13 -1,0 -1,-1 -3,0 -1,-1 -1,0 -1,-1 0,-2 -1,0 -1,-1 0,-1 -1,-1 0,-1 -1,-1 0,-2 -1,-1 0,-1 -1,0 -1,-1 0,-1 -1,-1 0,-1 -1,-1 -1,-1 0,-1 -1,-1 0,-1 -6,0 -1,1 -4,0 -1,1 -4,0 -1,1 -4,0 -1,1 -5,0 -1,1 -5,0 -1,1 -7,0 -1,1 -6,0 -1,1 -6,0 -1,1 -5,0 -1,1 -4,0 -1,1 -1,0 -1,1Z"/>
<path onmouseover="hoverPath(evt)" onmouseout="recoverPath(evt)" fill="rgb(243,242,234)" d="M  6,5l -2,0 0,8 1,1 0,8 1,1 0,7 1,1 0,8 1,1 0,7 1,1 0,7 1,1 0,3 1,-1 2,0 1,-1 2,0 1,-1 3,0 1,-1 4,0 1,-1 9,0 1,-1 12,0 1,1 6,0 1,1 8,0 1,1 5,0 1,1 6,0 1,1 3,0 0,-3 -5,0 -1,-1 0,1 -1,1 -3,0 -65,-51 63,50 0,-3 -4,0 -1,-1 0,-2 -1,-1 0,-4 -1,-1 0,-5 -2,0 -1,-1 0,-9 -1,-1 0,-8 1,-1 0,-5 -2,0 -1,-1 0,-5 1,-1 0,-6 -37,0 0,2 -1,1 -5,0 -1,1 -6,0 62,51 -63,-50Z"/>
<path onmouseover="hoverPath(evt)" onmouseout="recoverPath(evt)" fill="rgb(241,240,234)" d="M  0,117l 0,51 4,0 1,-1 6,0 1,-1 7,0 1,-1 5,0 1,-1 5,0 1,-1 4,0 1,-1 5,0 1,-1 5,0 1,-1 4,0 1,-1 5,0 1,-1 5,0 -1,-1 0,0 -1,-1 -1,-1 -1,-1 -1,-1 -1,-1 -2,-2 0,-3 1,-1 0,-1 -1,-1 0,-2 -1,-1 0,-1 -1,-1 0,-1 -1,-1 0,-1 -1,-1 0,-1 -1,-1 0,-1 -1,-1 0,-1 -1,-1 0,-1 -1,-1 0,-1 -1,-1 0,-2 -1,-1 0,-2 -1,-1 -1,-1 0,-2 -1,-1 0,-1 -1,-1 0,-1 -1,-1 0,-1 -1,-1 -1,-1 0,-3 -1,-1 -1,-1 0,-2 -1,-1 0,-2 -3,0 -1,-1 0,-2 -1,0 -1,-1 -1,-1 0,-1 -1,-1 0,-1 -2,0 -1,-1 0,-3 -1,-1 0,-5 -1,-1 0,-6 -1,-1 0,-4 -1,-1 0,-4 -1,0 -1,-1 -1,1 -3,0 -1,1 -2,0 -1,1 -1,0 0,6 1,1 0,6 1,1 0,5 1,1 0,3 -1,1 0,2 -1,1 -1,1 -1,1 -1,0 -1,1 -8,0Z"/>
<path onmouseover="hoverPath(evt)" onmouseout="recoverPath(evt)" fill="rgb(171,198,237)" d="M  50,57l 0,0 1,1 6,0 1,1 1,0 0,-2 -4,0 -1,-1 -3,0 -1,1 -13,0 -1,-1 -9,0 -1,1 -4,0 -1,1 -3,0 -1,1 -2,0 -1,1 -2,0 -1,1 0,2 1,-1 2,0 1,-1 3,0 1,-1 2,0 1,1 1,0 1,1 0,-1 1,-1 1,-1 2,0 1,-1 6,0 1,-1 14,0 -13,-2 0,0 13,2 -24,14 -1,0 1,1 0,6 1,1 0,5 1,1 0,3 1,0 -1,-4 0,-2 -1,-4Z"/>
<path onmouseover="hoverPath(evt)" onmouseout="recoverPath(evt)" fill="rgb(171,198,238)" d="M  90,196l 0,0 1,-1 0,-11 -1,-1 -3,0 -1,-1 -2,0 -1,-1 -1,0 0,1 1,0 1,1 2,0 2,1 1,0 1,1 0,18 -1,0 0,13 -1,1 0,11 -1,1 0,20 -1,1 0,5 1,0 0,-5 1,-6 0,-15 1,-3 0,-9 1,-6Z"/>
<path onmouseover="hoverPath(evt)" onmouseout="recoverPath(evt)" fill="rgb(241,240,233)" d="M  92,58l 0,0 1,1 5,0 1,1 5,0 1,1 19,0 1,-1 2,0 1,1 25,0 1,-1 5,0 0,-1 1,-1 0,-6 -1,-1 0,-3 -1,-1 0,-7 -2,0 -1,-1 0,-5 1,-1 0,-1 1,-1 0,-1 1,-1 2,0 0,-2 1,-1 4,0 1,-1 9,0 1,1 2,0 1,-1 0,-5 -2,0 -1,-1 0,-9 1,-1 0,-9 -118,0 0,7 -1,1 0,3 2,0 1,1 0,7 -1,1 0,6 1,1 0,9 2,0 1,1 0,5 1,1 0,4 1,1 0,2 4,0 1,1 0,3 2,0 0,-1 1,-1 2,0 1,1 5,0 1,1 0,3 2,0 1,1Z"/>
<path onmouseover="hoverPath(evt)" onmouseout="recoverPath(evt)" fill="rgb(244,243,236)" d="M  159,32l 0,0 -1,1 0,1 -1,1 0,3 2,0 1,1 0,7 1,1 0,3 1,1 0,7 1,1 0,1 5,0 1,-1 61,0 1,-1 24,0 0,-58 -76,0 0,10 -1,1 0,7 2,0 1,1 0,7 -1,1 -1,1 -4,0 -1,-1 -7,0 -1,1 -4,0 0,2 -1,1 -1,0 -1,1Z"/>
<path onmouseover="hoverPath(evt)" onmouseout="recoverPath(evt)" fill="rgb(171,198,238)" d="M  166,153l -18,0 -1,1 -17,0 -1,1 -17,0 -1,1 -22,0 -1,1 -10,0 -1,1 -8,0 -1,-1 -1,-1 -1,-1 -1,-1 -1,-1 -1,-1 -1,-1 -1,-1 -1,-1 -1,-1 0,1 1,1 0,0 1,1 1,1 1,1 1,1 1,1 1,1 1,1 0,2 -1,1 -5,0 -1,1 -5,0 -1,1 -4,0 -1,1 -5,0 -1,1 -5,0 -1,1 -4,0 -1,1 -5,0 -1,1 -5,0 -1,1 -7,0 -1,1 -6,0 -1,1 -5,0 0,2 1,0 1,-1 4,0 1,-1 5,0 1,-1 6,0 -13,1 0,0 160,-17 -137,14 5,0 1,-1 5,0 1,-1 5,0 1,-1 4,0 1,-1 4,0 1,-1 4,0 1,-1 8,0 1,1 0,1 1,1 0,1 1,1 1,1 0,1 1,1 0,1 1,0 1,1 0,1 1,1 0,2 1,1 0,1 1,1 0,1 1,0 0,-1 -1,-1 0,-1 -1,-1 0,-1 -1,-2 -1,-2 -2,-2 -1,-2 0,-1 -1,-1 0,-4 1,-1 3,0 1,-1 10,0 1,-1 21,0 -81,10 137,-14 -54,3 20,0 1,-1 18,0 1,-1 19,0 1,-1 14,0 1,-1 13,0 1,-1 13,0 1,-1 15,0 1,-1 15,0 1,-1 8,0 0,-1 -11,0 -1,1 -14,0 -1,1 -14,0 -1,1 -13,0 -1,1 -15,0 -1,1 -16,0 -55,4 54,-3Z"/>
<path onmouseover="hoverPath(evt)" onmouseout="recoverPath(evt)" fill="rgb(243,241,233)" d="M  174,249l -1,1 -1,0 -1,1 -1,0 -1,1 -1,0 -1,1 -1,0 -1,1 -1,0 0,1 91,0 0,-9 -8,0 -1,1 -18,0 -1,1 -17,0 -1,1 -13,0 -1,1 -15,0 -1,1 -3,0 -1,-1 -1,-1Z"/>
<path onmouseover="hoverPath(evt)" onmouseout="recoverPath(evt)" fill="rgb(174,200,238)" d="M  229,61l -59,0 -1,1 -7,0 -1,-1 0,0 -1,1 -5,0 -1,1 -27,0 -1,-1 -1,1 -21,0 -1,-1 -5,0 -1,-1 -5,0 -1,-1 -3,0 0,2 1,0 1,1 5,0 1,1 6,0 1,1 5,0 1,-1 52,0 1,1 0,1 1,1 0,-3 1,-1 51,0 1,-1 12,0 1,-1 1,1 25,0 0,-2 -23,0 -1,1 -1,1 -1,-1Z"/>
<path onmouseover="hoverPath(evt)" onmouseout="recoverPath(evt)" fill="rgb(170,198,237)" d="M  252,213l -9,0 -1,1 -5,0 -1,1 -2,0 -1,1 -1,0 -1,1 -1,1 -1,0 -1,1 -1,1 -1,0 -1,1 -1,0 -1,1 -1,0 -1,1 -1,0 -1,1 -1,0 -1,1 -1,0 -1,1 -1,0 -1,1 -1,0 -1,1 -2,0 -1,1 -1,0 -1,1 -1,0 -1,1 -1,0 -1,1 -1,0 -1,1 -1,0 -1,1 -1,0 -1,1 -1,0 -1,1 -1,0 -1,1 -1,0 -1,1 -1,0 -1,1 -1,0 -1,1 -1,0 -1,1 -1,0 -1,1 -1,0 -1,1 -1,0 -1,1 -1,0 0,1 3,0 1,-1 0,0 1,-1 1,0 1,-1 1,0 1,-1 1,0 1,-1 2,0 1,-1 1,0 1,-1 1,0 1,-1 1,0 1,-1 1,0 1,-1 1,0 1,-1 1,0 1,-1 1,0 1,-1 1,0 1,-1 1,0 1,-1 2,0 1,-1 1,0 1,-1 1,0 1,-1 1,0 1,-1 1,0 1,-1 1,0 1,-1 1,-1 1,0 1,-1 1,0 1,-1 1,0 1,-1 1,0 1,-1 1,-1 1,0 1,-1 2,0 1,-1 3,0 1,-1 6,0 1,-1 3,0 1,-1 1,1 2,0 0,-2 -2,0 0,2 -1,-1Z"/>
</svg>