<svg width="256" height="256" xmlns="http://www.w3.org/2000/svg"><script> 
var tempColor;
function hoverPath(evt){
obj = evt.target;
tempColor = obj.getAttribute("fill");
obj.setAttribute("fill","red");
//alert(tempColor);
//obj.setAttribute("stroke","red");}
function recoverPath(evt){
obj = evt.target;
obj.setAttribute("fill", tempColor);
//obj.setAttribute("stroke", tempColor);
}</script><path onmouseover="hoverPath(evt)" onmouseout="recoverPath(evt)" fill="rgb(245,199,112)" d="M  0,248l 0,7 48,0 0,-3 1,-1 0,-1 1,-1 0,-1 1,-1 0,-1 1,-1 2,0 0,-4 1,-1 1,0 1,-1 2,0 0,-5 1,-1 1,0 1,-1 1,-1 2,0 1,-1 1,-1 1,-1 1,-1 0,-4 1,-1 1,-1 1,-1 1,-1 1,-1 2,0 1,-1 5,0 0,-1 1,-1 1,0 0,-1 1,-1 2,0 1,1 0,-3 1,-1 0,-1 1,-1 3,0 0,-2 1,-1 1,0 1,-1 2,0 1,1 1,1 0,-1 1,-1 2,0 1,-1 1,0 1,-1 1,0 1,-1 2,0 1,-1 2,0 1,-1 2,0 1,-1 1,0 1,-1 2,0 1,-1 2,0 1,-1 1,0 1,-1 2,0 1,-1 3,0 1,1 1,0 1,-1 2,0 1,-1 2,0 1,-1 3,0 0,-4 1,-1 1,-1 2,0 1,1 3,0 1,1 1,0 1,-1 2,0 1,-1 2,0 1,-1 2,0 1,-1 2,0 1,-1 1,0 1,-1 2,0 1,-1 2,0 1,-1 2,0 0,-2 1,-1 1,0 1,-1 2,0 1,-1 2,0 1,-1 2,0 1,-1 2,0 1,-1 2,0 1,-1 2,0 1,-1 3,0 1,-1 1,0 0,-2 1,-1 2,0 1,-1 2,0 1,1 2,0 1,-1 4,0 1,1 3,0 1,-1 3,0 1,-1 1,0 1,-1 3,0 1,-1 5,0 1,-1 2,0 1,-1 2,0 0,-2 1,-1 2,0 1,-1 4,0 1,-1 2,0 0,-11 -2,0 -1,-1 0,-1 -1,0 -1,1 -2,0 -1,1 -1,0 0,1 -1,1 -1,1 -2,0 -1,1 -3,0 -1,1 -4,0 -1,-1 -6,0 -1,1 -3,0 0,3 -1,1 -4,0 -1,-1 0,-1 -2,0 -1,1 -2,0 0,1 -1,1 -3,0 -1,1 -3,0 -1,-1 0,2 -1,1 -6,0 -1,1 -1,0 -1,1 -2,0 -1,1 -3,0 -1,1 -1,0 0,1 -1,1 -2,0 -1,1 -2,0 0,2 -1,1 -2,0 -1,1 -3,0 -1,-1 -1,1 -2,0 -1,1 -2,0 0,2 -1,1 -3,0 -1,1 -1,0 -1,1 -2,0 -1,1 -1,0 -1,1 -2,0 -1,1 -3,0 -1,-1 -1,0 -1,1 -1,0 0,1 -1,1 -1,1 -2,0 -1,1 -3,0 -1,-1 -1,1 -2,0 -1,1 -2,0 -1,1 -2,0 -1,1 -2,0 -1,1 -2,0 -1,1 -2,0 -1,1 -2,0 -1,1 -2,0 -1,1 -3,0 -1,1 -2,0 0,2 -1,1 -5,0 -1,1 -4,0 -1,-1 -4,0 -1,1 -20,0 -1,-1 -3,0 -1,-1 -1,0 -1,1 -2,0 -1,-1 -1,0 -1,-1 -1,0 -1,-1 -1,-1 -1,-1 0,-2 -1,-1 -1,-1 -1,-1 -3,-3 -1,-1 -1,-1 -2,0 -1,-1 0,-2 -1,-1 0,-2 -1,-1 0,-2 -1,-1 0,-2 -1,-1 0,-3 1,-1 0,-5 -1,-1 0,-7 -1,-1 0,-7 -2,0 -1,-1 0,-7 -1,-1 0,-6 -1,-1 0,-6 -1,-1 0,-2 1,-1 1,0 0,-3 -1,-1 0,-3 -1,-1 0,-5 -1,-1 0,-9 -1,0 0,3 -1,1 -2,0 -1,-1 0,-1 -1,-1 0,-1 -1,-1 0,3 1,1 0,8 1,1 0,7 1,1 0,8 1,1 0,7 -1,1 -3,0 0,2 -1,1 -1,1 -2,0 -1,-1 0,-5 -1,-1 -2,0 -1,-1 0,-2 -1,0 -1,-1 0,-4 -1,0 0,5 1,1 0,11 -1,1 0,4 -1,1 0,2 1,1 1,0 1,1 0,5 -1,1 0,9 1,1 0,6 -1,1 0,5 -1,1 0,2 -1,1 -1,0 0,1 -1,1 0,2 -1,1 0,1 -1,1 -2,0 0,24 3,0 0,-4 1,-1 2,0 1,1 1,0 1,-1 0,-2 1,-1 3,0 1,1 1,0 1,1 0,8 3,0 1,1 1,0 1,1 0,6 -1,1 -1,0 -1,1 -1,0 -1,1 -1,0 0,1 -1,1 -1,1 -2,0 -1,1 -3,0 -1,-1 0,1 -1,1 -1,1 -4,0 -1,-1 0,24 55,-18 -1,1 0,1 -1,1 0,1 -1,1 -2,0 0,1 -1,1 0,1 -1,1 -1,1 -2,0 -1,-1 -5,0 -1,-1 0,-9 1,-1 1,-1 2,0 1,-1 1,0 1,-1 2,0 0,-2 1,-1 1,0 1,-1 2,0 0,-1 1,-1 2,0 1,1 0,5 -1,1 -1,0 1,1 0,3 -55,18Z"/>
<path onmouseover="hoverPath(evt)" onmouseout="recoverPath(evt)" fill="rgb(242,235,219)" d="M  8,204l -2,0 -1,-1 0,4 -1,1 -4,0 0,5 2,0 1,1 0,1 1,-1 3,0 1,-1 2,0 1,-1 2,0 1,-1 1,0 0,-1 -1,-1 0,-8 -1,0 -1,-1 -1,0 0,2 -1,1 -1,1Z"/>
<path onmouseover="hoverPath(evt)" onmouseout="recoverPath(evt)" fill="rgb(244,242,235)" d="M  13,8l 0,3 -1,1 0,3 1,1 0,1 1,1 0,2 -1,1 -2,0 2,1 0,2 -1,1 0,3 1,1 0,4 1,1 0,1 1,1 0,1 2,0 1,1 0,1 1,1 1,0 1,-1 6,0 1,-1 6,0 1,-1 8,0 1,-1 7,0 1,-1 8,0 1,-1 6,0 1,-1 4,0 1,-1 5,0 1,-1 4,0 1,-1 3,0 1,-1 2,0 1,-1 4,0 1,-1 2,0 0,-2 -1,-1 0,-3 2,-2 2,0 0,-1 1,-1 1,-1 1,-1 0,-1 1,-1 0,-2 1,-1 -1,-1 0,-1 -1,-1 0,-1 -1,-1 0,-1 -2,-2 0,-2 -70,0 0,2 -1,1 -2,0 -1,1 -2,0 0,2 -1,1 -2,0 -1,-1 -1,0 -1,1 -5,0 -1,1 -2,4 2,-4Z"/>
<path onmouseover="hoverPath(evt)" onmouseout="recoverPath(evt)" fill="rgb(243,241,232)" d="M  78,219l 0,0 -1,1 -2,0 -1,1 -1,1 -1,1 -1,1 0,4 -1,1 -1,1 -1,1 -1,1 -1,1 -2,0 -1,1 -1,1 -1,0 0,5 -1,1 -2,0 -1,1 -1,0 0,4 -1,1 -2,0 0,1 -1,1 0,1 -1,1 0,1 -1,1 0,2 45,0 0,-1 -1,-1 0,-3 1,-1 0,-1 -1,-1 0,-3 -1,-1 0,-2 -1,-1 0,-3 -1,-1 0,-2 -1,-1 0,-3 -1,-1 0,-2 -1,-1 0,-1 -1,-1 0,-1 -1,0 -1,-1 0,-2 -1,-1 0,-2 -1,2Z"/>
<path onmouseover="hoverPath(evt)" onmouseout="recoverPath(evt)" fill="rgb(170,198,238)" d="M  82,68l -1,0 0,5 1,1 0,0 1,1 1,0 1,1 1,0 1,-1 0,0 4,-4 1,0 1,-1 6,0 1,1 2,0 1,1 4,0 1,-1 1,-1 1,-1 3,0 0,-3 -1,-1 0,0 -1,-1 -1,1 -5,0 -1,1 -2,0 -1,1 -3,0 -1,1 -9,0 -1,-1 -4,0 -1,1Z"/>
<path onmouseover="hoverPath(evt)" onmouseout="recoverPath(evt)" fill="rgb(191,211,238)" d="M  123,28l 0,0 -1,1 0,2 -1,1 -1,0 0,1 1,1 0,1 1,1 0,1 1,1 0,1 1,1 0,1 1,1 1,1 0,1 1,1 0,1 1,1 0,1 1,1 0,1 1,1 0,1 1,1 3,0 1,1 1,0 1,-1 0,-1 -1,-1 0,0 -1,-1 0,-1 -1,-1 0,-1 -1,-1 0,-1 -1,-1 0,-1 -1,-1 0,-1 -1,-1 0,-1 -1,-1 0,-1 -1,-1 0,-1 -1,-1 0,-1 -1,-1 -1,-1 0,-1 -1,-1 -1,-1Z"/>
<path onmouseover="hoverPath(evt)" onmouseout="recoverPath(evt)" fill="rgb(241,241,233)" d="M  128,24l -1,0 -1,1 0,3 1,1 0,1 1,1 1,1 0,1 1,1 0,1 1,1 0,1 1,1 0,1 1,1 0,1 1,1 0,1 1,1 0,1 1,1 0,1 1,1 0,1 1,1 1,1 0,2 3,0 1,1 1,0 0,-2 1,-1 3,0 1,-1 2,0 1,-1 2,0 1,-1 1,-1 0,-6 1,-1 1,0 1,-1 0,-3 -1,-1 0,-1 -1,-1 -1,-1 -1,-1 0,-2 -1,-1 0,-1 -1,-1 0,-1 -1,-1 0,-1 -1,-1 0,-1 -1,-1 0,-1 -1,-1 -1,-1 0,-1 -1,-1 0,-1 -1,1 -1,0 -1,1 -1,0 -1,1 -3,0 -1,1 -1,1 -1,0 -1,1 -3,0 -1,-1 0,2 -1,1 -1,1 -1,1 2,-6 1,-1 0,-1 1,-1 1,0 1,-1 1,0 1,-1 3,0 1,-1 1,-1 1,0 1,-1 0,-1 1,-1 -1,-1 0,-1 -1,-1 0,-1 -1,-1 0,-3 -28,0 0,1 1,1 0,2 1,0 1,1 0,2 2,0 1,1 0,1 1,1 0,4 1,1 0,1 1,1 0,2 1,1 1,-1 0,0 1,-1 5,0 -2,6Z"/>
<path onmouseover="hoverPath(evt)" onmouseout="recoverPath(evt)" fill="rgb(244,243,234)" d="M  141,255l 27,0 0,-2 1,-1 0,-1 -2,0 -1,-1 0,-2 1,-1 0,-1 -1,-1 0,-2 -2,0 -1,-1 0,-2 1,-1 0,-1 -2,0 -1,-1 0,-2 1,-1 0,-1 -1,-1 0,-1 -1,-1 0,-2 -1,-1 0,-1 -1,-1 0,-2 -1,-1 0,-1 -1,-1 0,-2 -2,0 -1,-1 0,-2 1,-1 0,-1 -2,0 -1,-1 0,-2 1,-1 -1,-1 0,-2 -2,0 -1,-1 0,-2 1,-1 0,-1 -2,0 -1,-1 0,-2 1,-1 0,-1 -2,0 -1,-1 0,-2 -1,0 -1,1 -2,0 -1,1 -2,0 -1,1 -3,0 -1,-1 -1,0 -1,1 -2,0 -1,1 -1,0 -1,1 -2,0 -1,1 -2,0 -1,1 -1,0 -1,1 -2,0 -1,1 -2,0 -1,1 -2,0 -1,1 -1,0 -1,1 -1,0 -1,1 -2,0 0,1 -1,1 -2,0 -1,-1 -1,-1 -1,1 -1,0 0,2 -1,1 -3,0 0,1 -1,1 0,3 -1,1 -2,0 -1,-1 0,3 1,1 0,2 1,0 1,1 0,1 1,1 0,1 1,1 0,2 1,1 0,3 1,1 0,2 1,1 0,3 1,1 0,2 1,1 0,3 1,1 0,3 -1,1 0,1 1,1 0,2Z"/>
<path onmouseover="hoverPath(evt)" onmouseout="recoverPath(evt)" fill="rgb(240,240,232)" d="M  154,12l 0,0 1,1 0,2 -1,1 1,1 0,1 1,1 0,1 1,1 0,1 1,1 0,1 1,1 1,1 1,-1 2,0 1,-1 2,0 1,-1 2,0 1,-1 2,0 1,-1 2,0 0,-2 1,-1 2,0 1,1 1,0 1,-1 2,0 1,-1 2,0 1,-1 2,0 1,-1 2,0 1,-1 2,0 1,-1 3,0 1,-1 3,0 1,-1 2,0 1,-1 2,0 1,-1 4,0 1,-1 2,0 1,-1 3,0 1,-1 3,0 0,-2 1,-1 2,0 1,-1 3,0 1,1 1,0 1,-1 2,0 1,-1 3,0 0,-1 -95,0 0,1 1,1 0,1 1,1 1,1 0,1 1,1 0,1 1,1 0,1 1,1 0,1Z"/>
<path onmouseover="hoverPath(evt)" onmouseout="recoverPath(evt)" fill="rgb(242,241,231)" d="M  166,31l 0,0 -1,-1 -1,0 -1,1 -1,0 0,4 -1,1 0,4 -1,1 -1,1 -1,0 0,6 -1,1 -1,1 2,0 1,-1 2,0 1,-1 2,0 1,-1 2,0 0,-2 1,-1 3,0 1,1 2,0 1,-1 1,0 1,-1 1,0 1,-1 1,0 1,-1 1,0 1,-1 1,0 1,-1 1,0 0,-2 1,-1 1,0 1,-1 1,0 1,-1 2,0 1,1 1,0 1,-1 1,0 1,-1 2,0 1,-1 1,0 1,-1 2,0 1,-1 1,0 1,-1 1,0 0,-2 1,-1 2,0 1,1 2,0 1,-1 1,0 1,-1 2,0 1,-1 1,0 1,-1 2,0 1,-1 1,0 1,-1 1,0 0,-2 1,-1 1,0 0,-1 -1,-1 0,-2 -1,-1 0,-1 -1,-1 -4,0 -1,1 -2,0 -1,1 -3,0 -1,1 -3,0 -1,1 -2,0 -1,1 -3,0 -1,1 -3,0 -1,1 -2,0 -1,1 -3,0 -1,1 -2,0 0,2 -1,1 -2,0 -1,-1 -1,0 -1,1 -2,0 -1,1 -2,0 -1,1 -2,0 -1,1 -2,0 -1,1 -2,0 -1,1 -2,0 0,2 -1,1Z"/>
<path onmouseover="hoverPath(evt)" onmouseout="recoverPath(evt)" fill="rgb(242,237,227)" d="M  0,125l 0,55 1,0 0,-1 1,-1 0,-2 1,-1 0,-1 1,-1 1,0 0,-2 1,-1 0,-5 1,-1 0,-4 -1,-1 0,-11 1,-1 0,-3 -1,0 -1,-1 -1,-1 0,-4 1,-1 0,-4 1,-1 0,-2 -1,0 -1,-1 -1,-1 0,-4 -2,0 -1,1Z"/>
<path onmouseover="hoverPath(evt)" onmouseout="recoverPath(evt)" fill="rgb(185,211,167)" d="M  36,149l 0,4 1,1 0,7 -1,1 0,1 1,1 0,2 1,1 0,2 1,1 0,2 1,1 0,2 2,0 1,1 1,1 1,1 1,1 1,1 1,1 2,2 1,1 0,2 1,1 1,1 1,0 1,1 1,0 1,1 1,-1 3,0 1,1 3,0 1,1 18,0 1,-1 4,0 0,-11 1,-1 0,-1 1,-1 0,-1 1,-1 1,0 1,-1 3,0 -1,-1 -1,0 -1,-1 0,-2 -1,-1 0,-7 -1,-1 0,-3 -1,-1 0,-2 -1,0 -1,-1 0,-2 -1,-1 -1,-1 -1,-1 0,-1 -2,0 -1,-1 0,-2 -1,-1 -1,1 -2,0 -1,-1 0,-1 -1,0 -1,-1 -1,-1 0,-2 -1,-1 0,-5 -1,-1 -1,1 -11,0 0,2 -1,1 0,1 -1,1 0,1 -1,1 -2,0 -1,1 0,1 -1,1 0,2 1,1 0,4 -1,1 -3,0 0,4 -1,1 -6,0 -1,-1 -1,-1 -1,-1 -1,0 -1,-1 -1,-1 -1,-1 -1,0 0,-2Z"/>
<path onmouseover="hoverPath(evt)" onmouseout="recoverPath(evt)" fill="rgb(240,233,218)" d="M  42,229l -1,0 -1,1 0,7 5,0 1,1 1,-1 0,-1 1,-1 0,-1 1,-1 2,0 0,-1 1,-1 0,-1 1,-1 0,-1 -1,-1 0,-2 1,-1 1,0 0,-3 -1,2 -2,0 -1,1 -1,0 0,2 -1,1 -2,0 -1,1 -1,0 -1,1Z"/>
<path onmouseover="hoverPath(evt)" onmouseout="recoverPath(evt)" fill="rgb(241,237,222)" d="M  93,177l 0,0 -1,1 0,1 -1,1 0,10 1,1 2,0 1,-1 5,0 0,-2 1,-1 2,0 1,-1 3,0 0,-3 -1,-1 0,-1 -1,-1 0,-1 -1,-1 0,-1 -1,0 -1,-1 -4,0 -1,-1 -2,0 -1,1 -1,1Z"/>
<path onmouseover="hoverPath(evt)" onmouseout="recoverPath(evt)" fill="rgb(181,207,189)" d="M  106,145l -1,0 -1,1 0,1 -1,1 -1,0 0,1 1,1 0,1 1,1 0,4 1,1 0,2 3,0 1,1 0,2 1,1 0,2 5,0 1,1 0,2 -1,1 -5,0 0,2 -1,1 0,1 -1,1 -1,1 -3,0 2,1 0,1 1,1 0,1 1,1 0,1 1,1 0,3 1,0 1,-1 2,0 1,-1 2,0 1,-1 2,0 1,-1 2,0 1,-1 2,0 1,-1 2,0 1,-1 2,0 1,-1 2,0 1,1 1,0 1,-1 2,0 1,-1 0,-1 1,-1 1,0 1,-1 3,0 1,1 1,0 1,-1 2,0 1,-1 1,0 1,-1 2,0 1,-1 1,0 1,-1 3,0 0,-2 1,-1 2,0 1,-1 2,0 1,-1 2,0 1,1 1,0 1,-1 2,0 0,-2 1,-1 2,0 0,-1 -1,-1 0,-2 -1,-1 0,-3 -1,-1 0,-2 -1,-1 0,-3 -1,-1 0,-3 -1,-1 0,-2 -1,-1 0,-3 -1,-1 0,-2 -1,-1 0,-3 -1,-1 0,-3 -1,-1 0,-2 -1,-1 0,-3 -1,-1 0,-2 -1,-1 0,-3 -1,-1 0,-2 -1,-1 0,-2 -1,-1 0,-2 -1,-1 0,-7 1,-1 1,0 1,-1 5,0 1,-1 5,0 1,-1 4,0 1,-1 5,0 1,-1 4,0 1,-1 4,0 1,-1 3,0 1,-1 4,0 1,-1 4,0 1,-1 5,0 1,-1 4,0 1,-1 4,0 1,-1 4,0 1,-1 4,0 1,-1 4,0 1,-1 5,0 1,-1 3,0 1,-1 3,0 0,-11 -3,0 -1,1 -4,0 -1,1 -4,0 -1,1 -5,0 -1,1 -4,0 -1,1 -4,0 -1,1 -5,0 -1,1 -4,0 -1,1 -4,0 -1,1 -5,0 -1,1 -4,0 -1,1 -4,0 -1,1 -4,0 -1,1 -4,0 -1,1 -4,0 -1,1 -4,0 -1,1 -4,0 -1,1 -4,0 -1,1 -4,0 -1,1 -5,0 -1,-1 -1,-1 0,-1 -1,-1 0,-1 -1,-1 0,-1 -1,-1 0,-1 -1,-1 0,-1 -1,-1 0,-1 -1,-1 -1,-1 0,-1 -1,-1 0,-1 -1,-1 0,-1 -1,-1 0,-1 -1,-1 0,-3 1,-1 -3,0 -1,1 -3,0 -1,-1 -1,0 0,1 1,0 1,1 3,0 1,1 0,3 1,1 0,1 1,1 0,1 1,1 1,1 0,1 1,1 0,2 1,1 0,1 1,1 0,2 1,1 0,1 1,1 0,4 -1,1 -2,0 -1,1 -5,0 -1,1 -5,0 -1,1 -5,0 -1,1 -4,0 -1,1 -4,0 -1,1 -5,0 -1,1 -4,0 -1,1 -4,0 -1,1 -4,0 -1,1 -4,0 -1,1 -4,0 -1,1 -4,0 -1,1 -5,0 -1,1 -4,0 -1,1 -4,0 -1,1 -5,0 -1,1 -4,0 -1,1 -3,0 -1,1 -5,0 -1,1 -4,0 -1,1 -3,0 0,8 -1,1 -2,0 -1,1 -1,0 1,1 0,6 1,1 0,6 1,1 0,7 2,0 1,1 0,7 3,0 1,1 0,2 1,1 1,1 1,0 1,1 2,2 4,0 0,-4 1,-1 3,0 0,-2 -1,-1 0,-4 1,-1 0,-1 1,-1 1,-1 2,0 0,-1 1,-1 0,-1 1,-1 0,-2 1,-1 11,0 1,-1 2,0 1,1 1,1 0,-2 1,-1 1,-1 1,0 1,-1 1,0 0,-2 1,-1 2,0 1,-1 4,0 1,-1 5,0 1,-1 13,0 1,1 1,1 0,2 2,0 1,1 0,8 -1,1 0,3 -1,1 0,1 -1,1 -2,2 -1,1 -1,1 -1,1Z"/>
<path onmouseover="hoverPath(evt)" onmouseout="recoverPath(evt)" fill="rgb(186,204,228)" d="M  120,25l 0,1 1,1 1,-1 2,0 0,-2 1,-1 1,-1 1,0 1,-1 1,-1 -3,0 -1,1 0,0 -1,1 -2,0 -1,-1 -1,-1 0,-2 -1,-1 0,-1 -1,-1 0,-4 -1,-1 0,-1 -2,0 -1,-1 0,-2 -1,0 -1,-1 0,-2 -1,-1 0,-2 -4,0 0,2 1,1 0,1 1,1 0,1 1,1 1,1 0,3 1,1 1,1 1,1 0,1 1,1 1,1 0,1 1,1 0,1 1,1 0,1 1,1 0,1 1,1Z"/>
<path onmouseover="hoverPath(evt)" onmouseout="recoverPath(evt)" fill="rgb(246,248,247)" d="M  143,1l 0,1 1,1 0,1 1,1 0,1 1,1 0,2 -1,1 0,1 -1,1 -1,1 2,0 1,-1 2,0 1,1 0,1 1,1 0,1 1,1 1,1 0,1 1,1 0,1 1,1 0,1 1,1 0,1 1,1 0,1 1,1 0,2 1,1 1,1 1,1 0,-3 1,-1 1,0 1,-1 3,0 1,1 0,-2 1,-1 2,0 1,-1 2,0 1,-1 2,0 1,-1 2,0 1,-1 2,0 1,-1 2,0 1,-1 3,0 1,1 0,-2 1,-1 2,0 1,-1 3,0 1,-1 2,0 1,-1 3,0 1,-1 3,0 1,-1 2,0 1,-1 3,0 1,-1 3,0 1,-1 2,0 1,-1 6,0 2,2 0,-3 1,-1 1,-1 3,0 1,-1 3,0 1,1 1,0 0,-2 1,-1 3,0 1,-1 3,0 1,1 1,-1 3,0 0,-2 -12,0 0,2 -1,1 -3,0 -1,1 -2,0 -1,1 -3,0 -1,-1 -1,0 -1,1 -2,0 0,2 -1,1 -3,0 -1,1 -3,0 -1,1 -2,0 -1,1 -4,0 -1,1 -2,0 -1,1 -2,0 -1,1 -3,0 -1,1 -3,0 -1,1 -2,0 -1,1 -2,0 -1,1 -2,0 -1,1 -2,0 -1,1 -2,0 -1,1 -3,0 -1,-1 0,2 -1,1 -2,0 -1,1 -2,0 -1,1 -2,0 -1,1 -2,0 -1,1 -2,0 -1,1 -2,0 -1,-1 -1,-1 -1,-1 0,-1 -1,-1 0,-1 -1,-1 0,-1 -1,-1 0,-1 -1,-1 0,-2 1,-1 -2,0 -1,-1 0,-1 -1,-1 0,-1 -1,-1 0,-1 -1,-1 0,-1 -1,-1 -1,-1 0,-1 -1,-1 -1,-1 0,13 -1,-1 0,0 -1,1 -1,1 -3,0 -1,1 -1,0 -1,1 -1,0 0,1 1,0 1,-1 1,0 1,-1 4,-1 1,-1 1,0Z"/>
<path onmouseover="hoverPath(evt)" onmouseout="recoverPath(evt)" fill="rgb(250,248,242)" d="M  210,169l 0,0 -1,-1 0,-2 -1,1 -2,0 0,2 -1,1 4,0 1,-1 1,0 0,2 -1,1 0,2 1,1 0,4 -1,1 1,0 1,1 0,1 1,1 0,3 1,1 0,2 1,1 0,3 1,1 0,2 1,1 0,3 1,1 0,2 1,1 0,3 1,1 0,2 1,1 0,3 1,1 0,3 1,1 0,2 1,1 0,3 1,1 0,3 1,1 0,3 1,1 0,4 -1,1 0,2 1,1 0,2 2,0 1,1 0,3 1,1 0,3 -1,1 0,2 3,0 0,-3 -1,-1 0,-3 -1,-1 0,-4 1,-1 1,0 1,-1 3,0 1,1 0,-2 1,-1 2,0 1,-1 3,0 1,1 0,-2 1,-1 2,0 1,-1 2,0 1,-1 2,0 0,-1 -3,0 -1,1 -2,0 -1,1 -1,0 -1,1 -2,0 -1,1 -3,0 -1,-1 0,2 -1,1 -2,0 -1,1 -5,0 -1,-1 0,-2 -1,-1 0,-2 -1,-1 0,-3 -1,-1 0,-3 -1,-1 0,-4 1,-1 0,-1 -2,0 -1,-1 0,-3 -1,-1 0,-3 -1,-1 0,-3 -1,-1 0,-2 -1,-1 0,-2 -1,-1 0,-4 1,-1 0,-1 -2,0 -1,-1 0,-3 -1,-1 0,-3 -1,-1 0,-3 -1,-1 0,-4 -1,-1 0,-2 -1,-1 0,-4Z"/>
<path onmouseover="hoverPath(evt)" onmouseout="recoverPath(evt)" fill="rgb(244,242,234)" d="M  213,169l 0,3 1,1 0,2 1,1 0,4 1,1 0,3 1,1 0,3 1,1 0,3 2,0 1,1 0,3 -1,1 0,2 1,1 0,2 1,1 0,2 1,1 0,3 1,1 0,3 1,1 0,3 2,0 1,1 0,3 -1,1 0,2 1,1 0,3 1,1 0,3 1,1 0,2 1,1 0,2 3,0 1,-1 2,0 0,-2 1,-1 2,0 1,1 1,0 1,-1 2,0 1,-1 1,0 1,-1 2,0 1,-1 4,0 0,-75 -1,0 -1,1 -4,0 -1,1 -2,0 0,2 -1,1 -2,0 -1,1 -2,0 -1,1 -5,0 -1,1 -3,0 -1,1 -1,0 -1,1 -3,0 -1,1 -5,0 -1,-1 -2,0 -1,1 -3,0 2,1Z"/>
<path onmouseover="hoverPath(evt)" onmouseout="recoverPath(evt)" fill="rgb(242,241,230)" d="M  237,244l 0,0 -1,-1 -1,0 -1,1 -1,0 0,2 1,1 0,3 1,1 0,4 20,0 0,-19 -1,0 -1,1 -2,0 -1,1 -2,0 0,2 -1,1 -2,0 -1,-1 -1,0 -1,1 -2,0 0,2 -1,1Z"/>
<path onmouseover="hoverPath(evt)" onmouseout="recoverPath(evt)" fill="rgb(217,220,224)" d="M  3,82l 0,-1 -3,0 0,41 3,0 0,-18 1,-1 0,-3 -1,0 -1,-1 -1,-1 0,-4 1,-1 0,-3 1,-1Z"/>
<path onmouseover="hoverPath(evt)" onmouseout="recoverPath(evt)" fill="rgb(240,239,232)" d="M  58,98l 4,0 1,-1 4,0 1,-1 4,0 1,-1 5,0 1,-1 4,0 1,-1 4,0 1,-1 4,0 1,-1 4,0 1,-1 4,0 1,-1 4,0 1,-1 5,0 1,-1 4,0 1,-1 4,0 1,-1 5,0 1,-1 5,0 1,-1 5,0 1,-1 2,0 0,-2 -1,-1 0,-1 -1,-1 0,-2 -1,-1 0,-1 -1,-1 0,-2 -1,-1 0,-1 -1,-1 -1,-1 0,-1 -1,-1 0,-1 -1,-1 0,-3 -3,0 -1,-1 -1,0 -1,-1 0,-2 -1,-1 -1,-1 0,-1 -1,-1 0,-1 -1,-1 0,-1 -1,-1 0,-1 -1,-1 0,-1 -1,-1 -1,-1 0,-1 -1,-1 0,-1 -1,-1 0,-1 -1,-1 0,-1 -1,-1 0,-3 1,-1 1,0 0,-1 -1,-1 0,0 -1,-1 0,-1 -1,-1 0,-1 -1,-1 0,-1 -1,-1 0,-1 -1,-1 0,-1 -1,-1 -1,-1 0,-1 -1,-1 -1,-1 -1,-1 0,-3 -1,-1 -1,-1 0,-1 -1,-1 0,-1 -1,-1 0,-3 -2,0 0,1 1,1 0,0 1,2 1,2 1,2 1,1 0,2 -1,1 0,2 -1,1 0,1 -1,1 -1,1 -1,1 0,1 -1,1 -2,0 -1,1 0,1 1,1 0,3 1,-1 1,0 1,-1 9,0 1,1 0,2 -1,1 -1,0 -1,1 -1,0 0,12 1,0 1,1 3,0 1,1 1,0 1,1 0,4 -1,1 -1,1 -4,0 -1,-1 -1,-1 0,-1 -1,0 -1,-1 -1,0 -1,-1 0,-1 -7,0 -1,1 -2,0 0,2 -1,1 -2,0 0,12 -1,1 -1,1 -4,0 -1,-1 0,-1 -1,-1 0,-4 -1,-1 0,-1 -1,-1 0,-1 -1,-1 0,-4 1,-1 0,-1 -5,0 -1,-1 0,-3 1,-1 1,-1 1,-1 1,-1 2,0 1,-1 -2,0 -2,1 -4,0 -1,1 -6,0 -1,1 -6,0 -1,1 -6,0 -1,1 -9,0 -1,1 -8,0 -1,1 -6,0 -1,1 -10,0 0,1 2,0 1,1 0,2 -1,1 -1,0 0,4 1,1 0,1 1,0 1,1 1,1 0,2 -1,1 -1,0 0,4 1,1 0,1 1,0 1,1 1,1 0,2 -1,1 -1,0 0,4 1,1 0,1 1,0 1,1 1,1 0,2 -1,1 -1,0 0,4 1,1 0,1 2,0 1,1 0,9 1,1 0,5 1,1 0,3 1,1 0,3 1,0 0,-8 1,-1 3,0 1,-1 4,0 1,-1 5,0 1,-1 3,0 1,-1 4,0 1,-1 1,0 28,-33 2,0 1,1 7,0 1,-1 3,0 1,-1 2,0 1,-1 5,0 1,-1 2,0 1,1 1,1 1,1 0,5 -1,1 -3,0 -2,2 -1,1 -6,0 -1,-1 -2,0 -1,-1 -4,0 -1,1 -1,0 -1,1 -1,1 -1,1 -1,1 -1,1 -3,0 -1,-1 -1,0 -1,-1 -1,-1 -1,-1 0,-7 1,-1 1,0 1,-1 4,0 -28,33Z"/>
<path onmouseover="hoverPath(evt)" onmouseout="recoverPath(evt)" fill="rgb(187,210,202)" d="M  78,130l 0,3 -1,1 -1,0 0,2 1,1 0,2 1,1 1,0 1,1 0,1 1,-1 2,0 1,1 1,1 0,2 2,0 1,1 0,1 1,1 1,1 1,1 0,2 1,0 1,1 0,2 1,1 0,3 1,1 0,7 1,1 0,2 1,0 1,1 1,1 0,2 3,0 1,-1 3,0 1,-1 0,-1 1,-1 0,-2 1,-1 5,0 -6,-1 0,-2 -1,-1 0,-2 -3,0 -1,-1 0,-2 -1,-1 0,-4 -1,-1 0,-1 -1,-1 0,-3 1,-1 1,0 0,-1 1,-1 1,-1 1,0 1,-1 1,-1 2,-2 1,-1 0,-1 1,-1 0,-3 1,-1 0,-6 -2,0 -1,-1 0,-2 -1,-1 -11,0 -1,1 -5,0 -1,1 -4,0 -1,1 -2,0 0,2 -1,1 -1,0 -1,1 -1,0 -1,1Z"/>
<path onmouseover="hoverPath(evt)" onmouseout="recoverPath(evt)" fill="rgb(243,242,235)" d="M  143,59l 0,1 1,1 0,1 1,1 0,1 1,1 0,1 1,1 1,1 0,1 1,1 0,1 1,1 0,1 1,1 0,1 1,1 0,1 1,1 0,1 1,1 3,0 1,-1 4,0 1,-1 4,0 1,-1 4,0 1,-1 4,0 1,-1 4,0 1,-1 4,0 1,-1 4,0 1,-1 4,0 1,-1 4,0 1,-1 5,0 1,-1 4,0 1,-1 4,0 1,-1 5,0 1,-1 4,0 1,-1 4,0 1,-1 5,0 1,-1 4,0 1,-1 4,0 1,-1 4,0 0,-49 -2,0 -1,1 -2,0 -1,1 -3,0 -1,1 -2,0 -1,1 -3,0 -1,1 -2,0 1,1 0,1 1,1 0,1 1,1 0,2 -1,1 -2,0 -1,-1 0,-1 -1,-1 -3,0 -1,1 -1,0 -1,1 -1,0 -1,1 -2,0 -1,1 -1,0 -1,1 -2,0 -1,1 -1,0 -1,1 -3,0 -1,1 -1,0 -1,1 -1,0 -1,1 -1,0 -1,1 -2,0 -1,1 -1,0 -1,1 -2,0 -1,1 -1,0 -1,1 -2,0 -1,1 -1,0 -1,1 -2,0 -1,-1 0,2 -1,1 -1,0 -1,1 -1,0 -1,1 -1,0 -1,1 -1,0 -1,1 -1,0 -1,1 -1,0 -1,1 -4,0 -1,-1 -1,0 0,2 -1,1 -2,0 -1,1 -2,0 -1,1 -2,0 -1,1 -4,0 -1,-1 -1,0 -1,1 -2,0 -1,1 -3,0 0,2 -1,1 -2,0 -1,1 0,1 1,1Z"/>
<path onmouseover="hoverPath(evt)" onmouseout="recoverPath(evt)" fill="rgb(244,243,235)" d="M  153,190l -1,0 0,1 -1,1 0,1 2,0 1,1 0,2 -1,1 1,1 0,2 1,1 0,1 1,1 0,2 2,0 1,1 0,2 -1,1 0,1 1,1 0,1 1,1 0,1 1,1 0,2 1,1 0,1 1,1 0,2 1,1 0,1 1,1 0,2 1,1 0,1 1,1 0,2 1,1 0,1 1,1 0,2 1,1 0,2 2,0 1,1 0,2 -1,1 0,1 1,1 0,2 1,1 0,2 1,1 0,3 26,0 0,-4 -1,-1 0,-3 -1,-1 0,-1 -1,-1 0,-3 -1,-1 0,-2 -1,-1 0,-3 -1,-1 0,-2 -1,-1 0,-3 -1,-1 0,-3 -1,-1 0,-2 -1,-1 0,-3 -1,-1 0,-3 -1,-1 0,-3 -1,-1 0,-2 -1,-1 0,-3 -1,-1 0,-3 -1,-1 0,-5 -3,0 -1,-1 0,-2 1,-1 2,0 -1,-1 0,0 -1,-1 0,-3 -1,-1 0,-1 -1,0 -1,1 -2,0 -1,1 -2,0 -1,1 -2,0 -1,1 -1,0 -1,1 -2,0 -1,1 -2,0 -1,1 -2,0 -1,1 -2,0 -1,1 -2,0 -1,1Z"/>
<path onmouseover="hoverPath(evt)" onmouseout="recoverPath(evt)" fill="rgb(244,243,235)" d="M  164,94l -1,0 0,5 1,1 0,2 1,1 0,2 1,1 0,2 1,1 0,3 1,1 0,2 1,1 0,3 1,1 0,2 1,1 0,3 1,1 0,3 1,1 0,2 1,1 0,3 1,1 0,2 1,1 0,3 1,1 0,3 1,1 0,2 1,1 0,3 1,1 0,2 1,1 0,1 1,0 0,-1 1,-1 1,0 1,-1 3,0 1,-1 2,0 1,-1 1,0 1,-1 6,0 0,-5 1,-1 2,0 1,1 0,3 1,0 1,-1 3,0 0,-1 1,-1 2,0 1,-1 4,0 1,1 0,1 2,0 0,-3 1,-1 3,0 1,-1 6,0 0,-2 2,-2 1,-1 1,0 1,-1 3,0 1,1 2,0 1,-1 1,0 0,-2 -1,-1 0,-1 -1,-1 0,-2 -1,-1 0,-2 -1,-1 0,-2 -1,-1 0,-2 -1,-1 0,-2 -1,-1 0,-2 -1,-1 0,-2 -1,-1 0,-2 -1,-1 0,-2 -1,-1 0,-2 -2,0 -1,-1 0,-2 1,-1 1,0 1,-1 3,0 1,1 0,1 1,1 0,2 1,1 0,2 1,1 0,2 1,1 0,2 1,1 0,2 1,1 0,2 2,0 1,1 0,2 -1,1 0,2 1,1 0,1 1,1 0,2 1,1 0,2 2,0 1,1 0,1 1,0 1,1 2,0 0,-61 -2,0 -1,1 -3,0 -1,1 -5,0 -1,1 -4,0 -1,1 -4,0 -1,1 -4,0 -1,1 -4,0 -1,1 -4,0 -1,1 -5,0 -1,1 -4,0 -1,1 -4,0 -1,1 -3,0 -1,1 -4,0 -1,1 -4,0 -1,1 -5,0 -1,1 -4,0 -1,1 -5,0 -1,1 -5,0 -1,1Z"/>
<path onmouseover="hoverPath(evt)" onmouseout="recoverPath(evt)" fill="rgb(201,216,233)" d="M  247,5l -3,0 0,2 -1,1 -3,0 -1,-1 -1,0 -1,1 -3,0 -1,1 0,4 -1,1 0,1 1,1 0,3 -1,1 3,0 1,1 -1,-2 0,0 -1,-1 0,-2 1,-1 2,0 1,-1 3,0 1,-1 2,0 1,-1 3,0 1,-1 2,0 1,-1 3,0 0,-6 -2,0 -1,1 -2,0 -1,-1 -1,0 -1,1Z"/>
<path onmouseover="hoverPath(evt)" onmouseout="recoverPath(evt)" fill="rgb(240,218,128)" d="M  2,217l 0,0 -1,-1 0,-1 -1,0 0,7 1,0 1,1 2,0 1,-1 0,-1 1,-1 2,0 1,1 1,0 1,-1 2,0 1,-1 0,-1 1,-1 1,0 1,-1 1,0 1,-1 1,0 0,-4 -1,0 -1,-1 -1,0 0,2 -1,1 -1,0 -1,1 -2,0 -1,1 -2,0 -1,1 -3,0 -1,1Z"/>
<path onmouseover="hoverPath(evt)" onmouseout="recoverPath(evt)" fill="rgb(248,202,116)" d="M  10,115l 0,4 1,0 1,1 0,2 2,0 1,1 1,1 0,5 1,-1 0,-2 1,-1 3,0 0,-5 -1,-1 0,-8 -1,-1 0,-7 -1,-1 0,-8 -1,-1 0,-11 1,-1 2,0 1,1 0,6 1,1 0,1 1,1 0,-3 -1,-1 0,-6 1,-1 0,-1 -1,0 -1,-1 0,-1 -1,-1 0,-6 1,-1 1,0 -1,-1 -1,0 -1,-1 0,-1 -1,-1 0,-6 1,-1 1,0 -1,-1 -1,0 -1,-1 0,-1 -1,-1 0,-6 1,-1 -1,0 -1,-1 0,-2 -1,-1 0,-3 1,-1 -1,0 -1,-1 0,-1 -1,-1 0,-1 -1,-1 0,-4 -1,-1 0,-5 1,-1 -1,0 -1,-1 0,-2 1,-1 2,0 -1,-1 0,-1 -1,-1 0,-2 -1,0 -1,-1 0,-2 1,-1 2,0 -1,-1 0,-2 1,-1 1,0 1,-1 5,0 1,-1 3,0 1,1 0,-2 1,-1 2,0 1,-1 2,0 0,-1 -29,0 0,79 4,0 1,1 0,10 -1,1 0,3 -1,1 0,2 1,1 1,0 1,1 0,5 -1,1 0,22 1,1 0,-14 3,0 1,1Z"/>
<path onmouseover="hoverPath(evt)" onmouseout="recoverPath(evt)" fill="rgb(172,197,235)" d="M  74,35l 5,0 1,-1 3,0 1,-1 1,0 0,-1 -2,1 -3,0 -1,1 -4,0 -1,1 -4,1 0,0 -1,-1 -1,1 -6,0 -1,1 -8,0 -1,1 -7,0 -1,1 -8,0 -1,1 -6,0 -1,1 -6,0 -1,1 -3,0 -1,-1 -1,0 0,1 10,0 3,-1 4,0 3,-1 6,0 3,-1 7,0 1,-1 6,0 3,-1 4,0 3,-1 1,0 4,-1Z"/>
<path onmouseover="hoverPath(evt)" onmouseout="recoverPath(evt)" fill="rgb(205,214,225)" d="M  87,34l 0,0 -1,1 -1,0 0,2 -1,1 -1,1 -2,0 -1,1 -1,1 -1,1 0,1 5,0 1,1 0,3 -1,1 0,2 1,1 0,1 1,1 0,1 1,1 0,4 1,1 0,1 2,0 1,-1 0,-12 1,-1 2,0 0,-2 1,-1 2,0 1,-1 9,0 1,1 0,1 1,0 1,1 1,0 1,1 0,1 1,1 2,0 1,-1 0,-2 -1,0 -1,-1 -3,0 -1,-1 -1,0 -1,-1 0,-14 1,-1 1,0 1,-1 -6,0 -1,1 -1,0 -1,1 -4,0 -1,1 -4,0 -1,1 -2,0 -1,1 -1,0Z"/>
<path onmouseover="hoverPath(evt)" onmouseout="recoverPath(evt)" fill="rgb(249,248,240)" d="M  147,191l 0,1 -1,1 0,1 2,0 1,1 0,3 -1,1 2,0 1,1 0,3 -1,1 2,0 1,1 0,2 1,1 0,2 -1,1 2,0 1,1 0,3 -1,1 2,0 1,1 0,2 1,1 0,1 1,1 0,2 1,1 0,1 1,1 0,2 1,1 0,1 1,1 0,3 -1,1 2,0 1,1 0,3 -1,1 2,0 1,1 0,2 1,1 0,3 -1,1 2,0 1,1 0,3 -1,1 0,1 3,0 0,-2 -1,-1 0,-2 -1,-1 0,-2 -1,-1 0,-3 1,-1 -2,0 -1,-1 0,-2 -1,-1 0,-2 -1,-1 0,-1 -1,-1 0,-2 -1,-1 0,-1 -1,-1 0,-2 -1,-1 0,-1 -1,-1 0,-2 -1,-1 0,-1 -1,-1 0,-2 -1,-1 0,-1 -1,-1 0,-1 -1,-1 0,-3 1,-1 -2,0 -1,-1 0,-2 -1,-1 0,-1 -1,-1 0,-2 -1,-1 0,-2 1,-1 -2,0 -1,-1 0,-3 1,-1 0,-1 1,-1 -2,0 -1,-1 -1,1Z"/>
<path onmouseover="hoverPath(evt)" onmouseout="recoverPath(evt)" fill="rgb(243,242,233)" d="M  190,191l 0,3 1,1 0,2 1,1 0,3 1,1 0,2 1,1 0,3 1,1 0,2 1,1 0,3 1,1 0,2 1,1 0,4 1,1 0,3 1,1 0,3 1,1 0,3 1,1 0,3 1,1 0,3 1,1 0,3 1,1 0,2 1,1 0,4 22,0 0,-3 1,-1 0,-1 -1,-1 0,-3 -2,0 -1,-1 0,-2 -1,-1 0,-4 1,-1 0,-2 -1,-1 0,-3 -1,-1 0,-3 -1,-1 0,-3 -1,-1 0,-2 -1,-1 0,-3 -1,-1 0,-3 -1,-1 0,-2 -1,-1 0,-3 -1,-1 0,-2 -1,-1 0,-3 -1,-1 0,-2 -1,-1 0,-3 -1,-1 0,-2 -1,-1 0,-3 -1,-1 0,-1 -3,0 -1,-1 0,-2 1,-1 2,0 0,-2 -1,-1 0,-3 -5,0 -1,-1 -2,0 -1,1 -2,0 -1,1 -2,0 -1,1 -2,0 -1,1 -2,0 -1,1 -2,0 -1,1 -2,0 -1,1 1,0 1,1 0,1 1,1 0,3 1,1 1,1 0,2 -1,1 3,0 1,1 1,1Z"/>
<path onmouseover="hoverPath(evt)" onmouseout="recoverPath(evt)" fill="rgb(171,198,237)" d="M  203,251l 0,4 1,0 0,-3 -1,-1 -2,-7 0,-3 -1,-1 0,-3 -1,-1 0,-3 -1,-1 0,-3 -1,-1 0,-3 -1,-1 0,-4 -1,-1 0,-2 -1,-1 0,-3 -1,-1 0,-2 -1,-1 0,-3 -1,-1 0,-2 -1,-1 0,-3 -1,-1 0,-2 -1,-1 0,-3 -1,-1 0,4 1,1 0,3 1,1 0,3 1,1 0,2 1,1 0,3 1,1 0,3 1,1 0,3 1,1 0,2 1,1 0,3 1,1 0,3 1,1 0,2 1,1 0,3 1,1 0,2 -2,-10 0,0 -1,-4 5,19 2,7 -3,-10Z"/>
<path onmouseover="hoverPath(evt)" onmouseout="recoverPath(evt)" fill="rgb(246,239,226)" d="M  235,103l 0,-1 -1,0 -1,1 1,0 1,1 0,2 1,1 0,2 1,1 0,2 1,1 0,2 1,1 0,2 1,1 0,2 1,1 0,2 1,1 0,2 1,1 0,2 1,1 0,2 1,1 0,1 1,1 0,4 -1,1 1,0 1,-1 2,0 1,-1 3,0 1,1 0,1 1,0 0,-2 -1,0 -3,-1 -1,0 -1,-1 0,-1 -2,0 -1,-1 0,-2 -1,-1 0,-2 -1,-1 0,-1 -1,-1 0,-4 1,-1 -2,0 -1,-1 0,-2 -1,-1 0,-2 -1,-1 0,-2 -1,-1 0,-2 -1,-1 0,-2 -1,-1 0,-2 -1,-1 9,38 -1,1 -4,0 -1,-1 -1,0 -1,1 -1,0 -1,1 -1,1 0,1 1,1 2,0 1,-1 3,0 1,-1 2,0 1,-1 0,-2 -9,-38Z"/>
</svg>