<svg width="256" height="256" xmlns="http://www.w3.org/2000/svg"><script> 
var tempColor;
function hoverPath(evt){
obj = evt.target;
tempColor = obj.getAttribute("fill");
obj.setAttribute("fill","red");
//alert(tempColor);
//obj.setAttribute("stroke","red");}
function recoverPath(evt){
obj = evt.target;
obj.setAttribute("fill", tempColor);
//obj.setAttribute("stroke", tempColor);
}</script><path onmouseover="hoverPath(evt)" onmouseout="recoverPath(evt)" fill="rgb(244,242,234)" d="M  92,112l 0,53 33,0 1,1 0,1 20,0 1,1 5,0 1,-1 1,0 0,-4 1,-1 0,-26 -1,-1 0,-1 -6,0 -1,-1 -23,0 -1,-1 0,-2 1,-1 30,0 0,-3 1,-1 0,-19 -2,0 -1,-1 -1,1 -8,0 -1,1 -8,0 -1,1 -8,0 -1,1 -9,0 -1,1 -9,0 -1,1 -10,0 -1,1Z"/>
<path onmouseover="hoverPath(evt)" onmouseout="recoverPath(evt)" fill="rgb(239,237,228)" d="M  113,34l 7,0 1,-1 32,0 1,-1 1,0 0,-32 -63,0 0,17 1,1 0,2 -1,1 -1,1 0,4 -1,1 0,4 1,1 15,0 1,1 0,1 6,0 -19,-14 0,-2 1,-1 2,0 1,1 0,2 -1,1 -2,0 -1,-1 19,14Z"/>
<path onmouseover="hoverPath(evt)" onmouseout="recoverPath(evt)" fill="rgb(243,241,233)" d="M  32,0l -2,0 0,2 1,1 0,1 1,1 0,3 1,1 0,3 1,1 0,15 1,-1 23,0 1,1 0,-3 1,-1 2,0 0,-9 -2,0 -1,-1 0,-8 -1,-1 0,-5Z"/>
<path onmouseover="hoverPath(evt)" onmouseout="recoverPath(evt)" fill="rgb(242,241,232)" d="M  55,31l -2,0 -1,1 -3,0 -1,1 1,1 0,1 31,0 0,-7 -1,-1 0,-27 -19,0 0,4 1,1 0,8 2,0 1,1 0,11 -1,1 -2,0 0,3 -1,1 -1,0 -1,1Z"/>
<path onmouseover="hoverPath(evt)" onmouseout="recoverPath(evt)" fill="rgb(252,252,251)" d="M  91,169l 0,1 31,0 1,1 1,1 0,8 16,0 1,1 0,-1 1,-1 1,0 1,-1 7,0 1,-1 11,0 1,1 5,0 -2,-1 0,-5 1,-1 25,0 1,1 4,0 1,-1 6,0 1,1 36,0 1,1 5,0 1,1 6,0 0,-1 -5,0 -1,-1 -5,0 -1,-1 -3,0 -1,-1 -1,-1 0,-23 1,-1 1,-1 4,0 1,1 -5,-2 -1,-1 -1,-1 0,-4 1,-1 0,-4 -1,-1 0,-23 1,-1 4,0 1,1 0,-3 -5,0 -1,-1 0,-5 -1,-1 0,-4 -1,0 0,6 1,1 0,26 -1,1 -4,0 1,1 0,31 -1,1 0,1 -1,1 1,0 1,-1 0,-1 -3,2 -32,0 -1,-1 0,-1 -1,-1 0,-1 -1,2 0,1 -1,1 -26,0 -1,-1 0,-1 -1,-1 0,-12 1,-1 0,-16 1,-1 1,0 1,-1 2,0 0,-2 1,-1 1,-1 1,-1 2,0 1,-1 1,-1 1,-1 0,-1 1,-1 0,-1 1,-1 1,0 1,-1 -9,0 -1,-1 -3,0 -1,-1 -1,-1 0,4 -1,1 0,1 -1,1 0,6 -1,1 0,1 -1,1 -5,0 -1,-1 0,0 -1,-1 0,-23 -2,0 1,1 0,21 -1,1 0,3 -1,1 -30,0 24,1 6,0 1,1 0,1 1,1 0,28 -1,1 0,4 -1,1 -1,0 -1,1 -7,0 -1,-1 -54,0 40,1 10,0 1,1 22,0 1,1 0,4 -1,1 0,0 -33,-7 -40,-1 70,1 -1,-1 -1,0 -1,-1 0,-37 1,-1 1,0 1,40 -70,-1 74,-39 1,1 -1,-1 -74,39 75,-30 0,8 28,17 1,0 1,1 0,3 -1,1 0,0 -1,1 -28,0 0,-31 -75,30 143,-34 2,0 1,1 0,33 -1,1 -1,1 -19,0 -1,-1 -17,0 36,-35 -143,34 60,8 -8,1 -2,0 -1,1 -14,0 -1,-1 0,-6 1,-1 25,6 -60,-8Z"/>
<path onmouseover="hoverPath(evt)" onmouseout="recoverPath(evt)" fill="rgb(238,238,232)" d="M  162,0l -2,0 0,31 1,1 2,0 1,-1 3,0 1,-1 4,0 1,-1 3,0 1,-1 3,0 1,-1 3,0 1,-1 4,0 1,-1 3,0 1,-1 1,0 1,-1 1,0 -1,-1 0,-1 -1,-1 -1,-1 0,-1 -1,-1 0,-1 -1,-1 0,-1 -1,-1 0,-1 -1,-1 -1,-1 0,-1 -1,-1 0,-1 -1,-1 0,-1 -1,-1 0,-1 -1,-1 0,-2Z"/>
<path onmouseover="hoverPath(evt)" onmouseout="recoverPath(evt)" fill="rgb(243,242,233)" d="M  187,1l 0,0 1,1 0,1 1,1 0,1 1,1 0,1 1,1 0,1 1,1 1,1 0,1 1,1 0,1 1,1 0,1 1,1 0,1 1,1 1,1 0,1 1,1 0,1 2,0 1,-1 3,0 1,-1 3,0 1,-1 3,0 1,-1 3,0 1,-1 4,0 1,-1 4,0 1,-1 3,0 0,-1 1,-1 0,-8 -1,-1 0,-5 -43,0 -1,1Z"/>
<path onmouseover="hoverPath(evt)" onmouseout="recoverPath(evt)" fill="rgb(242,241,231)" d="M  238,0l -1,0 0,15 1,0 1,1 8,0 1,-1 7,0 0,-15Z"/>
<path onmouseover="hoverPath(evt)" onmouseout="recoverPath(evt)" fill="rgb(240,238,230)" d="M  23,58l 0,21 -1,1 0,11 1,1 0,5 18,0 0,-1 1,-1 1,0 1,-1 12,0 1,1 1,0 1,-1 1,0 1,-1 1,0 1,-1 0,-1 1,-1 0,-15 -1,-1 0,-2 -1,-1 0,-11 1,-1 1,0 0,-3 -1,-1 -1,0 -1,1 -7,0 -1,-1 -26,0 -1,1 -2,0 -1,1Z"/>
<path onmouseover="hoverPath(evt)" onmouseout="recoverPath(evt)" fill="rgb(244,242,235)" d="M  0,227l 0,17 5,0 1,1 2,0 1,1 3,0 1,1 3,0 1,1 3,0 1,1 3,0 1,1 3,0 1,1 3,0 1,1 3,0 1,1 2,0 1,1 0,1 39,0 0,-27 -1,-1 0,1 -1,1 -20,0 -1,-1 -12,0 -1,-1 -12,0 -1,-1 -10,0 -1,-1 -9,0 -1,-1 -4,0 -1,-1 -1,0 -1,-1 0,-12 1,-1 0,-9 -1,0 -1,-1 -1,0Z"/>
<path onmouseover="hoverPath(evt)" onmouseout="recoverPath(evt)" fill="rgb(240,239,227)" d="M  14,43l 0,26 4,0 0,-1 1,-1 0,-1 -1,-1 0,-9 1,-1 0,-1 1,-1 1,-1 2,0 1,-1 30,0 1,1 0,2 5,0 1,-1 0,-1 1,-1 7,0 0,-3 1,-1 1,-1 1,-1 2,0 1,-1 0,-2 -2,0 -1,-1 0,-1 -20,0 -1,1 -37,0Z"/>
<path onmouseover="hoverPath(evt)" onmouseout="recoverPath(evt)" fill="rgb(253,253,252)" d="M  174,203l 0,-7 1,-1 1,0 1,-1 13,0 -14,-1 0,-8 1,-1 0,-1 1,-1 -2,0 -1,-1 -1,0 -1,-1 -1,1 0,1 1,1 2,0 1,1 -3,-3 0,0 2,10 0,1 -1,1 -1,1 -10,0 -1,1 10,0 1,1 3,-2 0,0 -2,9 0,3 -1,0 1,1 0,3 -1,1 3,0 1,-1 11,0 -2,-1 -1,0 -9,1 -1,0 -5,-5Z"/>
<path onmouseover="hoverPath(evt)" onmouseout="recoverPath(evt)" fill="rgb(244,242,235)" d="M  0,124l 0,73 2,0 1,1 1,0 1,1 0,11 -1,1 0,10 1,0 1,1 4,0 1,1 9,0 1,1 10,0 1,1 12,0 1,1 12,0 1,1 15,0 0,-1 1,-1 0,-30 -1,-1 0,-20 1,-1 0,-28 1,-1 0,-6 -1,-1 0,-7 1,-1 2,0 1,1 0,1 1,1 0,18 1,1 1,0 0,-16 -1,0 -80,-11 79,7 0,-18 -7,0 -1,1 -9,0 0,2 -1,1 -12,0 -1,1 -7,0 -1,1 -3,0 -1,1 1,1 0,3 -1,1 -2,0 -1,-1 0,-1 -1,-1 -1,-1 0,-4 -1,0 -1,1 -9,0 -1,1 -11,0 0,2 -1,1 -7,0 0,1 79,8 -79,-7 70,3 -1,1 -2,0 -1,-1 0,-2 1,-1 2,0 1,1 0,2 -70,-3Z"/>
<path onmouseover="hoverPath(evt)" onmouseout="recoverPath(evt)" fill="rgb(248,238,146)" d="M  34,106l 0,0 -1,1 -12,0 -1,1 -7,0 -1,1 -12,0 0,11 6,0 0,-2 1,-1 11,0 1,-1 9,0 1,-1 3,0 1,1 0,4 1,1 1,1 0,1 -1,-3 0,-1 1,-1 1,-1 3,0 1,-1 7,0 1,-1 12,0 0,-2 1,-1 9,0 1,-1 9,0 1,1 0,21 1,0 1,1 0,20 -1,1 -3,0 1,1 0,10 1,1 0,5 1,1 0,17 -1,1 -2,0 -1,-1 0,17 1,-12 1,-1 2,0 1,1 0,15 1,1 0,21 -1,1 0,22 8,0 0,-54 -1,-1 0,-6 1,-1 -1,-1 0,-20 -1,-1 0,-3 1,-1 0,-56 1,-1 1,0 1,-1 10,0 1,-1 9,0 1,-1 9,0 1,-1 8,0 1,-1 8,0 1,-1 8,0 1,-1 2,0 1,1 0,-1 1,-1 9,0 1,-1 2,0 0,-1 1,-1 5,0 1,1 0,-1 1,-1 5,0 1,1 1,0 0,-1 1,-1 4,0 1,1 1,0 0,-1 1,-1 4,0 1,1 1,0 0,-1 1,-1 4,0 1,1 1,0 0,-1 1,-1 4,0 1,1 4,0 1,1 0,-1 1,-1 5,0 1,1 5,0 1,-1 7,0 0,-1 1,-1 3,0 1,1 0,4 1,-5 5,0 0,-1 1,-1 3,0 1,-1 5,0 0,-7 -2,0 -1,1 -8,0 0,1 -1,1 -10,0 -1,-1 -1,0 -1,1 -5,0 -1,1 -7,0 -1,1 -7,0 -1,1 -7,0 -1,1 -6,0 -1,1 -6,0 -1,1 -6,0 -1,1 -6,0 -1,1 -8,0 -1,1 -3,0 -1,1 -3,0 -1,-1 -1,0 -1,1 -5,0 -1,1 -9,0 -1,1 -9,0 -1,1 -9,0 -1,1 -9,0 -1,1 -10,0 -1,1 -7,0 -1,-1 0,-44 -1,1 -4,0 0,45 -1,1 -1,1 -7,0 -1,-1 -8,0 -1,1 -10,0 -1,1 -9,0 -1,1 -9,0 57,61 0,0 -57,-61Z"/>
<path onmouseover="hoverPath(evt)" onmouseout="recoverPath(evt)" fill="rgb(249,248,244)" d="M  81,197l -1,0 0,11 -1,1 -2,0 -1,-1 0,-23 1,-1 2,0 1,1 0,-11 -1,-1 0,-5 -1,-1 0,-10 -1,-1 0,-2 1,-1 0,-1 -1,-1 0,-18 -1,-1 0,42 -1,1 0,18 6,4 -2,-44 0,0 2,44 -5,12 0,17 -1,1 1,0 1,-3 2,0 1,1 0,1 1,1 0,28 1,-24 0,-19 -1,-1 0,-13 -5,11 5,-12Z"/>
<path onmouseover="hoverPath(evt)" onmouseout="recoverPath(evt)" fill="rgb(254,254,254)" d="M  115,36l -1,0 0,1 13,0 1,-1 27,0 1,1 1,1 0,55 1,0 0,-56 1,-1 1,0 1,-1 4,0 1,-1 4,0 1,-1 2,0 1,-1 3,0 1,-1 4,0 1,-1 3,0 1,-1 3,0 1,-1 3,0 1,-1 5,0 1,-1 2,0 1,-1 3,0 1,-1 3,0 1,-1 3,0 1,-1 3,0 1,-1 3,0 1,-1 8,0 1,1 0,1 1,1 0,12 -1,1 0,42 1,1 0,4 1,0 0,-6 -1,-1 0,-11 1,-1 0,-44 1,-1 19,0 0,-2 -6,0 -1,1 -10,0 -1,-1 -1,0 -1,-1 0,-16 -2,0 0,4 1,1 0,10 -1,1 0,1 -1,1 -3,0 -1,1 -4,0 -1,1 -4,0 -1,1 -3,0 -1,1 -3,0 -1,1 -3,0 -1,1 -3,0 -1,1 -5,0 -1,1 -1,0 -1,1 -3,0 -1,1 -4,0 -1,1 -3,0 -1,1 -3,0 -1,1 -3,0 -1,1 -4,0 -1,1 -3,0 -1,1 -4,0 -1,-1 -1,-1 0,-32 -1,0 0,33 -1,1 -1,0 -1,1 -32,0 -1,1Z"/>
<path onmouseover="hoverPath(evt)" onmouseout="recoverPath(evt)" fill="rgb(243,242,234)" d="M  191,220l 0,1 1,0 1,1 1,1 0,4 2,0 1,-1 2,0 1,-1 2,0 1,-1 1,0 1,-1 2,0 1,-1 2,0 1,-1 2,0 1,-1 1,0 1,-1 3,0 1,-1 2,0 1,-1 2,0 1,-1 2,0 1,-1 3,0 1,-1 1,0 1,-1 2,0 1,-1 2,0 1,-1 1,0 1,-1 2,0 1,-1 2,0 1,-1 1,0 1,-1 4,0 0,-31 -7,0 -1,-1 -5,0 -1,-1 -36,0 -1,-1 -4,0 -1,1 -6,0 -1,-1 -23,0 0,3 1,0 1,1 1,0 1,1 1,0 1,1 1,0 1,1 2,0 1,1 0,2 -1,1 0,1 -1,1 0,6 13,0 1,1 0,2 -1,1 -13,0 -1,1 -1,0 0,11 7,0 1,-1 3,0 1,1 1,0 1,1 0,2 1,1 0,2 -1,1 0,2 1,1 0,2 -10,-38 2,0 1,-1 0,0 -3,1 10,38 -7,-40 0,-1 -1,-1 0,0 1,2 7,40 -9,-42 -1,0 -1,1 0,0 2,-1 9,42 -11,-40 0,0 11,40Z"/>
<path onmouseover="hoverPath(evt)" onmouseout="recoverPath(evt)" fill="rgb(241,238,226)" d="M  200,100l 0,3 -1,1 10,0 1,-1 10,0 1,-1 3,0 1,1 6,0 1,1 1,1 0,12 -1,1 0,1 -1,1 0,6 4,0 0,-24 -1,-1 0,-5 -6,0 -1,1 -7,0 -1,-1 -3,0 0,1 -1,1 -2,0 -1,-1 -4,0 -1,-1 -2,0 0,1 -1,1 -3,0 -1,-1 -2,0 2,1 0,2 -12,4 -1,0 -1,1Z"/>
<path onmouseover="hoverPath(evt)" onmouseout="recoverPath(evt)" fill="rgb(240,239,227)" d="M  0,45l 0,38 8,0 0,-1 1,-1 0,-39 -5,0 -1,1 -3,0Z"/>
<path onmouseover="hoverPath(evt)" onmouseout="recoverPath(evt)" fill="rgb(251,251,249)" d="M  1,85l -1,0 0,3 4,0 1,1 0,4 1,1 1,0 1,1 1,0 1,1 0,11 1,0 0,-17 1,-1 0,-16 1,-1 7,0 1,1 0,-17 1,-1 1,-1 2,0 1,-1 -1,0 -3,1 -1,1 -1,2 0,13 -1,1 -6,0 -1,-1 0,-30 1,-1 37,0 1,-1 29,0 0,-1 -32,0 -1,-1 0,-1 -1,-1 0,-2 1,-1 0,0 1,-1 3,0 1,-1 -16,0 7,1 2,0 1,1 0,5 -1,1 -32,0 -1,-1 -1,-1 0,-2 -1,-1 0,-4 -1,-1 0,-2 -1,-1 0,-3 -1,-1 0,-4 -1,-1 0,-4 1,-1 5,0 1,-1 6,0 1,-1 5,0 1,-1 2,0 1,1 1,1 0,1 1,1 0,6 1,1 0,-4 -1,-4 -1,-2 0,-2 -1,-1 0,-1 -1,-1 0,-3 -28,0 0,3 2,0 1,1 0,4 1,1 0,3 1,1 0,3 1,1 0,3 1,1 0,3 1,1 0,3 1,1 0,3 1,1 0,3 -1,1 -1,1 -2,0 -1,1 -5,0 0,2 2,0 1,-1 7,0 1,1 0,41 -1,1 0,1 -1,1Z"/>
<path onmouseover="hoverPath(evt)" onmouseout="recoverPath(evt)" fill="rgb(236,234,224)" d="M  42,99l -20,0 -1,-1 0,-5 -1,-1 0,-12 -1,-1 0,-5 -5,0 0,16 -1,1 0,15 6,0 1,-1 12,0 1,-1 9,0 1,-1 9,0 1,-1 10,0 1,-1 9,0 1,-1 5,0 0,-56 1,-1 0,-3 -6,0 3,1 0,4 -1,1 -1,1 -2,0 -1,1 -1,1 0,3 -1,1 -7,0 2,1 0,0 1,1 0,5 -1,1 -1,0 0,9 1,1 0,2 1,1 0,17 -1,1 0,1 -1,1 -1,1 -1,0 -1,1 -1,0 -1,1 -3,0 -1,-1 -10,0 -1,1 -1,0 0,1 -1,1Z"/>
<path onmouseover="hoverPath(evt)" onmouseout="recoverPath(evt)" fill="rgb(239,228,139)" d="M  90,53l 0,-12 1,-1 0,-6 -1,0 -1,-1 -1,-1 0,-6 1,-1 0,-4 1,-1 1,-1 -1,-1 0,-18 -9,0 0,26 1,1 0,17 -1,1 0,56 -1,1 -5,0 7,-47 4,0 1,-1 2,0 1,-1Z"/>
<path onmouseover="hoverPath(evt)" onmouseout="recoverPath(evt)" fill="rgb(241,240,230)" d="M  110,205l 0,9 1,1 0,4 1,1 0,1 1,0 1,1 0,2 3,0 1,1 4,0 1,1 1,0 1,1 0,1 1,1 0,1 1,1 0,2 1,1 0,6 1,1 0,4 2,0 1,-1 1,0 0,-2 -1,-1 0,-3 1,-1 3,0 1,1 0,4 2,0 1,-1 2,0 1,-1 1,0 0,-2 -1,-1 0,-1 -1,-1 0,-3 1,-1 2,0 1,-1 2,0 1,-1 1,0 1,-1 1,0 0,-2 -1,-1 0,-5 -4,0 -1,-1 0,-2 1,-1 1,0 1,-1 4,0 1,-1 4,0 1,1 3,0 0,-2 1,-1 3,0 1,-1 2,0 1,-1 1,0 1,-1 0,-1 -1,-1 -16,0 -1,-1 0,-2 1,-1 15,0 1,-1 1,-1 0,-3 -1,-1 0,0 -1,-1 -3,0 -1,1 -15,0 -1,-1 0,-2 1,-1 10,0 1,-1 10,0 1,-1 0,-1 1,-1 0,-4 -2,0 -1,-1 -1,-1 0,-2 -1,-1 -6,0 -1,-1 -9,0 -1,1 -7,0 -1,1 -1,0 0,5 -1,1 -2,0 -1,-1 0,-4 -15,0 -1,1 -4,0 -1,1 -8,0 0,1 -1,1 0,8 1,1 0,3 13,0 1,1 0,3 -1,1 -5,0 -1,-1 -5,0 -1,1 -1,0Z"/>
<path onmouseover="hoverPath(evt)" onmouseout="recoverPath(evt)" fill="rgb(243,242,234)" d="M  170,132l -1,0 0,16 -1,1 0,10 1,1 0,1 24,0 0,-1 1,-1 0,-1 1,-1 2,0 1,-1 1,-1 0,-2 1,-1 3,0 1,1 2,0 1,-1 1,0 1,-1 1,0 1,-1 1,-1 1,0 0,-1 1,-1 1,0 1,-1 1,-1 0,-1 1,-1 -1,-1 0,-3 1,-1 0,-9 -1,-1 0,-1 -1,-1 0,-1 -1,-1 -1,-1 0,-1 -1,0 -1,-1 -1,-1 -1,-1 -1,0 -1,-1 -1,0 -1,-1 -2,0 -1,-1 -14,0 -1,-1 -1,0 0,2 -1,1 -1,0 -1,1 -1,0 0,1 -1,1 0,1 -2,2 -1,1 -1,1 0,1 -2,2 -1,1 -1,0 -1,1 -2,0 -1,1Z"/>
<path onmouseover="hoverPath(evt)" onmouseout="recoverPath(evt)" fill="rgb(230,227,204)" d="M  232,165l -33,0 -1,1 0,1 1,1 17,0 1,1 17,0 1,-1 0,-31 -1,27 0,0 -1,1Z"/>
<path onmouseover="hoverPath(evt)" onmouseout="recoverPath(evt)" fill="rgb(241,239,228)" d="M  9,15l 0,4 1,1 0,3 1,1 0,2 1,1 0,4 1,1 0,2 1,1 30,0 0,-3 -2,0 -1,-1 -6,0 -1,-1 -1,0 -1,-1 -1,0 -1,-1 0,-9 -1,-1 0,-6 -1,-1 0,-1 -1,-1 -1,1 -5,0 -1,1 -6,0 -1,1 -5,0 0,2 1,1Z"/>
<path onmouseover="hoverPath(evt)" onmouseout="recoverPath(evt)" fill="rgb(236,234,219)" d="M  92,174l 0,17 1,1 0,2 -1,1 0,4 1,1 0,55 4,0 0,-2 -3,0 0,-44 6,0 1,1 4,0 1,-1 0,-5 -1,-1 0,-1 -7,0 -1,-1 0,-2 1,-1 7,0 0,-14 -10,0 -1,-1 0,-2 1,-1 11,0 1,-1 15,0 0,-6 -1,-1 -29,0Z"/>
<path onmouseover="hoverPath(evt)" onmouseout="recoverPath(evt)" fill="rgb(242,241,232)" d="M  95,222l 0,29 3,0 1,1 6,0 1,-1 4,0 1,-1 4,0 1,-1 1,0 1,-1 3,0 1,-1 3,0 1,1 2,0 0,-1 -1,-1 0,-4 -1,-1 0,-6 -1,-1 0,-2 -1,-1 0,-1 -1,-1 0,-1 -1,0 -1,-1 -4,0 -1,-1 -3,0 -1,-1 0,-2 -1,1 -2,0 -1,-1 -1,-1 0,-1 -1,0 -1,-1 -8,0 -1,-1 0,-2 1,-1 9,0 0,-1 -1,-1 -7,0 -1,-1 -1,-1 0,-1 -1,0Z"/>
<path onmouseover="hoverPath(evt)" onmouseout="recoverPath(evt)" fill="rgb(254,254,254)" d="M  106,182l -10,0 11,1 -1,-1 3,-1 0,0 1,1 7,0 1,-1 -9,0 -3,1 1,13 0,4 -1,1 0,0 1,1 0,1 1,1 0,7 -1,1 0,0 -1,1 -6,0 -1,-1 -1,0 1,1 0,0 8,1 1,1 0,3 -1,1 0,1 1,0 1,1 0,1 1,1 0,-1 -1,-2 0,-3 -3,2 -8,0 10,-5 0,-2 -1,1 0,0 1,-10 0,0 1,-1 1,0 1,-1 7,0 1,1 3,0 0,-1 -13,0 -1,-1 0,-3 -1,-1 -1,-13Z"/>
<path onmouseover="hoverPath(evt)" onmouseout="recoverPath(evt)" fill="rgb(179,202,237)" d="M  126,254l -2,0 0,1 39,0 0,-2 1,-1 3,0 1,-1 5,0 1,1 1,0 1,-1 2,0 1,-1 2,0 1,-1 1,0 1,-1 2,0 1,-1 2,0 1,-1 2,0 1,-1 2,0 1,-1 2,0 1,-1 1,0 1,-1 1,0 1,-1 3,0 1,-1 2,0 1,-1 2,0 1,-1 1,0 1,-1 2,0 1,-1 2,0 1,-1 2,0 1,-1 2,0 1,-1 2,0 1,-1 2,0 1,-1 1,0 1,-1 2,0 1,-1 1,0 0,-2 1,-1 1,0 1,-1 1,0 1,-1 4,0 1,1 2,0 1,-1 3,0 0,-15 -3,0 -1,1 -1,0 -1,1 -2,0 -1,1 -2,0 -1,1 -1,0 -1,1 -2,0 -1,1 -2,0 -1,1 -1,0 -1,1 -3,0 -1,1 -2,0 -1,1 -2,0 -1,1 -2,0 -1,1 -3,0 -1,1 -1,0 -1,1 -2,0 -1,1 -2,0 -1,1 -2,0 -1,1 -1,0 -1,1 -2,0 -1,1 -2,0 -1,1 -3,0 -1,1 -2,0 -1,1 -1,1 -3,0 -1,1 -2,0 -1,1 -1,0 -1,1 -1,0 -1,1 -2,0 -1,1 -2,0 -1,1 -2,0 -1,1 -1,0 -1,1 -2,0 -1,1 -2,0 -1,1 -2,0 -1,1 -2,0 -1,1 -1,0 -1,1 -2,0 -1,1 -3,0 -1,1 -1,0 -1,1 -2,0 -1,1 -2,0 -1,1 -2,0 -1,1 -3,0 -1,1 -1,0 -1,1 -2,0 -1,1Z"/>
<path onmouseover="hoverPath(evt)" onmouseout="recoverPath(evt)" fill="rgb(230,227,204)" d="M  127,174l 0,3 1,1 9,0 1,-1 1,0 1,-1 9,0 1,-1 13,0 0,-2 -22,0 -1,-1 -12,0 -1,1Z"/>
<path onmouseover="hoverPath(evt)" onmouseout="recoverPath(evt)" fill="rgb(239,237,226)" d="M  171,236l 0,0 1,-1 2,0 1,-1 2,0 1,-1 1,0 1,-1 1,0 1,-1 2,0 1,-1 3,0 1,-1 1,-1 2,0 0,-4 -1,-1 -1,0 -1,-1 0,-3 -1,-1 0,-4 1,-1 -1,-1 -10,0 -1,1 -5,0 -1,-1 -1,1 -2,0 -1,1 -3,0 0,2 -1,1 -5,0 -1,-1 -2,0 -1,1 -4,0 -1,1 3,0 1,1 0,5 1,1 0,4 -1,1 -1,0 -1,1 -1,0 -1,1 -2,0 -1,1 -2,0 0,1 1,1 0,1 1,1 0,4 -1,1 -1,0 -1,1 -2,0 -1,1 -4,0 -1,-1 0,2 -1,1 -1,0 -1,1 -2,0 0,2 -1,1 -4,0 -1,-1 -1,0 -1,1 -3,0 -1,1 -1,0 -1,1 -4,0 -1,1 -4,0 -1,1 -7,0 0,1 23,0 0,-2 1,-1 2,0 1,-1 2,0 43,-15 -41,14 0,0 1,-1 3,0 1,-1 2,0 1,-1 2,0 1,-1 2,0 1,-1 1,0 1,-1 3,0 1,-1 2,0 1,-1 1,0 1,-1 2,0 1,-1 2,0 1,-1 2,0 1,-1 2,0 1,-1 1,0 1,-1 1,0 -40,14 41,-14 -36,5 0,-2 -1,0 0,1 1,1 36,-5Z"/>
<path onmouseover="hoverPath(evt)" onmouseout="recoverPath(evt)" fill="rgb(230,227,205)" d="M  167,165l 0,0 -1,-1 -1,-1 -1,-1 0,-24 1,-1 0,-4 -2,-2 -1,0 -1,1 -1,0 0,35 1,0 1,1 31,0 1,-1 0,-1 -1,0 -1,-1Z"/>
<path onmouseover="hoverPath(evt)" onmouseout="recoverPath(evt)" fill="rgb(243,241,233)" d="M  179,253l -2,0 -1,1 -3,0 -1,-1 -3,0 -1,1 -3,0 0,1 90,0 0,-29 -2,0 -1,1 -4,0 -1,-1 -2,0 -1,1 -1,0 -1,1 -1,0 0,2 -1,1 -1,0 -1,1 -2,0 -1,1 -1,0 -1,1 -2,0 -1,1 -2,0 -1,1 -2,0 -1,1 -2,0 -1,1 -2,0 -1,1 -2,0 -1,1 -1,0 -1,1 -2,0 -1,1 -2,0 -1,1 -3,0 -1,1 -1,0 -1,1 -1,0 -1,1 -2,0 -1,1 -2,0 -1,1 -2,0 -1,1 -2,0 -1,1 -2,0 -1,1 -1,0 -1,1 -2,0 -1,1Z"/>
<path onmouseover="hoverPath(evt)" onmouseout="recoverPath(evt)" fill="rgb(240,238,226)" d="M  200,157l 0,0 -1,1 -1,1 1,1 0,1 31,0 0,-1 1,-1 0,-29 -1,-1 0,-1 -1,-1 0,-8 1,-1 0,-1 1,-1 0,-10 -1,-1 -6,0 -1,-1 -1,0 -1,1 -10,0 -1,1 -21,0 -1,1 -4,0 -1,-1 0,-2 1,-1 1,0 1,-1 12,0 0,-3 -4,0 -1,-1 -2,0 0,1 -1,1 -3,0 -1,-1 -2,0 0,1 -1,1 -3,0 -1,-1 -3,0 0,1 -1,1 -2,0 -1,-1 -3,0 0,1 -1,1 -2,0 -1,1 -5,0 0,22 1,1 3,0 0,-1 1,-1 0,-6 1,-1 0,-1 1,-1 0,-6 1,-1 2,0 1,1 0,2 1,1 3,0 1,1 9,0 1,-1 3,0 1,1 14,0 1,1 1,0 1,-1 2,0 1,1 1,0 1,1 0,2 1,1 1,1 1,0 1,1 0,1 1,1 2,0 1,1 0,1 1,1 0,2 -1,1 0,10 -1,1 0,1 1,1 0,2 -1,1 0,1 -1,1 -1,1 -1,1 -1,0 0,1 -1,1 -1,0 -1,1 -1,1 -1,0 -1,1 -1,0 -1,1 -4,0 -1,-1 -1,0 0,2 -1,1Z"/>
<path onmouseover="hoverPath(evt)" onmouseout="recoverPath(evt)" fill="rgb(235,237,232)" d="M  202,28l 0,0 -1,1 -2,0 0,2 1,1 0,0 1,1 0,1 1,1 0,1 1,1 0,1 1,1 0,1 1,1 1,1 0,1 1,1 1,1 0,1 1,1 1,0 1,1 0,2 1,1 1,1 1,0 1,1 0,2 1,1 1,1 1,1 1,1 1,1 1,1 0,1 1,1 1,1 1,1 1,1 1,1 0,1 1,1 1,1 1,1 1,1 1,0 0,-37 1,-1 0,-10 -1,-1 0,-1 -6,0 -1,1 -3,0 -1,1 -3,0 -1,1 -3,0 -1,1 -3,0 -1,1 -3,0 -1,1Z"/>
<path onmouseover="hoverPath(evt)" onmouseout="recoverPath(evt)" fill="rgb(238,237,223)" d="M  0,15l 0,22 4,0 1,-1 2,0 1,-1 0,-1 -1,-1 0,-3 -1,-1 0,-3 -1,-1 0,-3 -1,-1 0,-3 -1,-1 0,-3 -1,-1 0,-3 -1,-1 0,-4 -1,0Z"/>
<path onmouseover="hoverPath(evt)" onmouseout="recoverPath(evt)" fill="rgb(171,198,238)" d="M  0,247l 0,8 38,0 -3,-1 -3,0 -1,-1 -3,0 -1,-1 -3,0 -1,-1 -3,0 -1,-1 -3,0 -1,-1 -3,0 -1,-1 -3,0 -1,-1 -2,0 -1,-1 -3,0 -1,1Z"/>
<path onmouseover="hoverPath(evt)" onmouseout="recoverPath(evt)" fill="rgb(240,238,227)" d="M  4,95l -1,-1 0,-4 -3,0 0,17 8,0 0,-10 -1,0 -1,-1 -1,0 -1,-1Z"/>
<path onmouseover="hoverPath(evt)" onmouseout="recoverPath(evt)" fill="rgb(243,242,234)" d="M  92,47l 0,52 3,0 1,-1 10,0 1,-1 9,0 1,-1 9,0 1,-1 9,0 1,-1 9,0 1,-1 5,0 1,-1 2,0 0,-53 -1,-1 -25,0 -1,1 -15,0 -1,-1 0,-2 -6,0 -1,-1 0,-1 -12,0 0,7 -1,1Z"/>
<path onmouseover="hoverPath(evt)" onmouseout="recoverPath(evt)" fill="rgb(244,243,235)" d="M  161,38l -1,0 0,54 2,0 1,-1 8,0 1,-1 6,0 1,-1 6,0 1,-1 6,0 1,-1 6,0 1,-1 7,0 1,-1 7,0 1,-1 7,0 1,-1 5,0 1,-1 2,0 0,-2 -1,-1 0,-5 -2,0 -1,-1 -1,-1 -1,-1 -1,-1 -1,-1 0,-1 -1,-1 -1,-1 -1,-1 -1,-1 -1,-1 0,-1 -1,-1 -1,-1 -2,-2 -1,-1 -1,-1 0,-2 -1,0 -1,-1 -1,-1 -1,-1 0,-2 -1,0 -1,-1 -1,-1 0,-1 -1,-1 -1,-1 0,-1 -1,-1 -1,-1 0,-1 -1,-1 0,-1 -1,-1 0,-1 -1,-1 0,-1 -1,-1 -1,-1 0,-3 -1,0 -1,1 -3,0 -1,1 -3,0 -1,1 -3,0 -1,1 -4,0 -1,1 -3,0 -1,1 -2,0 -1,1 -4,0 -1,1 -4,0 -1,1Z"/>
<path onmouseover="hoverPath(evt)" onmouseout="recoverPath(evt)" fill="rgb(242,241,233)" d="M  237,23l 0,42 -1,1 0,9 1,1 0,7 5,0 0,-1 1,-1 8,0 1,-1 3,0 0,-59 -18,0Z"/>
<path onmouseover="hoverPath(evt)" onmouseout="recoverPath(evt)" fill="rgb(239,238,228)" d="M  241,95l 0,3 -1,1 0,4 5,0 1,1 0,5 1,1 0,1 1,1 0,1 1,1 0,2 -1,1 -2,0 -1,-1 -1,-1 0,-1 -1,-1 0,-1 -1,-1 0,-2 -2,0 0,21 1,1 0,6 -1,1 0,2 1,1 1,1 3,0 2,2 0,2 -1,1 -2,0 -1,-1 -2,0 -1,1 0,21 1,1 3,0 1,1 5,0 1,1 4,0 0,-80 -4,0 -1,1 -3,0 0,1 -1,1 -4,0 -1,1Z"/>
</svg>