<svg width="256" height="256" xmlns="http://www.w3.org/2000/svg"><script> 
var tempColor;
function hoverPath(evt){
obj = evt.target;
tempColor = obj.getAttribute("fill");
obj.setAttribute("fill","red");
//alert(tempColor);
//obj.setAttribute("stroke","red");}
function recoverPath(evt){
obj = evt.target;
obj.setAttribute("fill", tempColor);
//obj.setAttribute("stroke", tempColor);
}</script><path onmouseover="hoverPath(evt)" onmouseout="recoverPath(evt)" fill="rgb(244,243,236)" d="M  0,1l 0,168 50,0 0,-38 -25,0 -1,-1 0,-2 1,-1 10,0 1,-1 14,0 0,-126 -49,0 -1,1Z"/>
<path onmouseover="hoverPath(evt)" onmouseout="recoverPath(evt)" fill="rgb(254,254,254)" d="M  1,172l 50,0 0,-1 -49,0 -1,1Z"/>
<path onmouseover="hoverPath(evt)" onmouseout="recoverPath(evt)" fill="rgb(244,243,236)" d="M  0,177l 0,78 50,0 0,-45 -1,-1 0,-2 1,-1 -1,-1 0,-2 1,-1 0,-28 -50,0Z"/>
<path onmouseover="hoverPath(evt)" onmouseout="recoverPath(evt)" fill="rgb(245,234,138)" d="M  53,0l -1,0 0,127 -1,1 -14,0 -1,1 15,0 1,1 0,39 1,1 0,3 -1,1 0,29 -1,1 1,1 0,2 -1,1 1,1 0,46 8,0 0,-46 -1,-1 0,-3 1,-1 0,-73 -1,-1 0,-2 -1,-1 0,-3 1,-1 1,0 0,-66 -1,-1 0,-3 1,-1 0,-52Z"/>
<path onmouseover="hoverPath(evt)" onmouseout="recoverPath(evt)" fill="rgb(253,253,252)" d="M  61,206l 0,1 13,0 1,1 0,1 1,1 0,8 -1,1 0,15 1,-7 0,-19 1,-1 50,0 1,1 1,1 0,1 14,0 1,1 1,0 -1,-1 0,-2 1,-1 7,0 1,-1 46,0 1,1 1,1 1,1 0,46 1,0 0,-47 1,-1 1,0 1,-1 6,0 1,1 42,0 0,-2 -51,0 -1,-1 0,-71 1,-1 0,-1 1,-1 25,0 1,1 0,2 -1,1 1,0 1,1 0,7 -2,2 19,0 1,-1 5,0 0,-18 -11,0 -1,-1 -1,-1 0,-16 -3,0 -1,-1 0,-17 -1,-1 0,-4 -1,0 1,5 0,32 -1,1 -24,0 25,1 0,5 -1,1 -31,0 -1,-1 0,-1 -1,-1 0,-49 1,-1 1,0 1,-1 5,0 1,1 10,0 1,-1 -8,0 -1,-1 0,-7 1,-1 -1,0 -1,7 0,1 -1,1 -8,0 -1,-1 0,-17 1,-1 1,0 1,-1 17,0 1,1 31,0 0,-1 -19,0 -1,-1 -102,0 -1,-1 -5,0 -1,1 -65,0 0,1 67,0 1,1 0,69 -1,1 0,1 -1,1 -66,0 0,1 46,0 1,1 1,1 0,16 1,1 0,55 -1,1 0,0 -1,1 -1,1 -27,0 -1,-1 -6,0 -1,1 -11,0 49,-2 0,0 1,1 1,0 1,1 13,0 1,-1 4,0 1,1 -22,-2 -49,2 49,-59 0,-16 1,-1 1,0 1,-1 14,0 1,1 3,0 1,-1 27,0 1,1 40,0 1,1 0,1 1,1 0,69 -1,1 0,1 -1,1 -50,0 -1,1 -15,0 -24,-59 -49,59 138,-77 -26,0 -1,-1 -1,0 -1,-1 0,-17 1,-1 27,0 0,-29 -1,-1 0,-3 -1,0 -1,-1 -18,0 -1,1 -29,0 -1,-1 -5,0 -1,-1 -1,-1 0,1 -1,1 -1,0 -1,1 -1,1 -1,1 0,43 1,0 0,-11 1,-1 30,0 1,1 0,13 -1,1 -16,0 15,1 0,2 -1,1 -17,0 52,1 -138,77 105,-98 -1,0 2,-1 -1,1 -105,98 76,-98 -1,0 -1,-1 0,-14 1,-1 30,0 1,1 0,1 1,1 0,10 2,2 0,-12 1,-1 1,-1 1,-1 -1,0 -1,-1 0,-1 -1,-1 0,-6 1,-1 0,-5 -34,31 -76,98 110,-98 0,0 -110,98 74,-116 0,-12 2,-2 9,0 -11,14 -74,116 121,-130 13,0 2,4 0,11 -1,1 -21,0 21,1 1,0 0,15 -15,-32 -121,130 139,-78 1,0 1,-1 0,0 -2,1 -139,78 73,-78 -2,0 -1,-1 0,-1 -1,-1 0,-67 1,-1 0,-1 1,-1 34,0 1,1 0,2 -1,1 2,0 0,-2 2,-2 29,0 1,1 1,0 1,1 0,68 -68,3 -73,78 181,-100 1,0 1,-1 11,0 -12,-1 -1,-1 0,-13 1,-1 0,-1 1,-1 1,-1 1,0 -4,3 0,17 -181,100 192,-64 0,-7 -1,-1 -18,0 19,8 -192,64 172,-71 -172,71 188,-63 -15,0 -1,-1 0,-5 16,6 -188,63 107,-125 0,9 -29,-19 0,-9 29,19 -107,125 156,-62 -2,0 -1,-1 0,3 1,-1 1,0 1,-1 -156,62 153,-69 1,-1 0,-1 1,-1 -2,0 0,2 -67,-77 -7,0Z"/>
<path onmouseover="hoverPath(evt)" onmouseout="recoverPath(evt)" fill="rgb(243,242,234)" d="M  62,134l 0,70 9,0 1,-1 8,0 1,1 25,0 1,-1 1,-1 0,-53 -1,-1 0,-16 -1,-1 -44,0Z"/>
<path onmouseover="hoverPath(evt)" onmouseout="recoverPath(evt)" fill="rgb(244,243,234)" d="M  62,211l 0,44 138,0 0,-45 -1,-1 0,0 -1,-1 -44,0 -1,1 -7,0 1,1 0,2 -1,1 -3,0 -1,-1 -14,0 -1,-1 0,-1 -1,-1 -48,0 0,19 -1,1 0,6 -1,1 -2,0 -1,-1 0,-17 1,-1 0,-6 -1,-1 0,-1 -11,0Z"/>
<path onmouseover="hoverPath(evt)" onmouseout="recoverPath(evt)" fill="rgb(244,243,235)" d="M  62,1l 0,51 63,0 1,-1 7,0 1,1 102,0 1,1 18,0 0,-53 -192,0 -1,1Z"/>
<path onmouseover="hoverPath(evt)" onmouseout="recoverPath(evt)" fill="rgb(244,243,236)" d="M  62,60l 0,64 -1,1 -1,0 0,1 66,0 -1,-1 0,-66 -62,0 -1,1Z"/>
<path onmouseover="hoverPath(evt)" onmouseout="recoverPath(evt)" fill="rgb(243,242,234)" d="M  112,134l 0,69 1,0 1,1 11,0 1,-1 6,0 1,1 15,0 1,-1 50,0 0,-1 1,-1 0,-67 -1,-1 0,-1 -40,0 -1,-1 -25,0 -1,1 -5,0 -1,-1 -12,0 -1,1 -1,0Z"/>
<path onmouseover="hoverPath(evt)" onmouseout="recoverPath(evt)" fill="rgb(215,214,171)" d="M  127,58l 0,-1 -65,0 65,3Z"/>
<path onmouseover="hoverPath(evt)" onmouseout="recoverPath(evt)" fill="rgb(240,237,226)" d="M  137,80l 0,9 1,0 1,1 26,0 1,-1 0,-10 -1,-1 -28,0Z"/>
<path onmouseover="hoverPath(evt)" onmouseout="recoverPath(evt)" fill="rgb(240,238,227)" d="M  137,96l 0,10 1,0 1,1 24,0 1,-1 1,0 0,-1 1,-1 0,-8 -1,-1 0,-1 -28,0Z"/>
<path onmouseover="hoverPath(evt)" onmouseout="recoverPath(evt)" fill="rgb(235,233,215)" d="M  137,113l 0,9 -1,1 -3,0 -1,-1 0,2 1,1 0,1 2,0 1,1 9,0 1,-1 17,0 -15,-1 0,-2 1,-1 16,0 0,-11 -28,0 0,2 -5,-36 1,-1 0,0 1,-1 1,-1 1,-1 1,0 0,-12 1,-1 0,-2 1,-1 -6,0 0,1 -1,1 0,18 5,36Z"/>
<path onmouseover="hoverPath(evt)" onmouseout="recoverPath(evt)" fill="rgb(240,238,226)" d="M  142,61l 0,0 -1,1 0,10 1,1 5,0 1,1 27,0 1,-1 20,0 1,1 1,0 1,1 0,3 1,1 0,31 -1,1 -27,0 0,15 1,0 1,1 24,0 1,-1 1,0 0,-15 -58,-50 58,17 0,-20 -1,0 -1,-1 -27,0 -1,1 0,2 -1,1 -26,0 57,17 -58,-17Z"/>
<path onmouseover="hoverPath(evt)" onmouseout="recoverPath(evt)" fill="rgb(240,238,227)" d="M  175,90l 20,0 0,-12 -1,0 -1,-1 -9,0 -1,1 -10,0 0,5 -1,1 0,4 1,1 0,1Z"/>
<path onmouseover="hoverPath(evt)" onmouseout="recoverPath(evt)" fill="rgb(240,237,226)" d="M  173,95l -1,1 0,10 1,0 1,1 21,0 1,-1 0,-11 -1,0 -1,-1 -20,0 -1,1Z"/>
<path onmouseover="hoverPath(evt)" onmouseout="recoverPath(evt)" fill="rgb(235,233,215)" d="M  206,85l 0,0 -1,-1 0,41 1,-3 0,-1 1,-1 1,0 1,-1 0,-33 1,-1 1,-1 4,0 1,-1 -4,0 -2,1 -1,1Z"/>
<path onmouseover="hoverPath(evt)" onmouseout="recoverPath(evt)" fill="rgb(244,243,234)" d="M  205,211l 0,44 50,0 0,-46 -43,0 -1,-1 -4,0 -1,1 -1,0Z"/>
<path onmouseover="hoverPath(evt)" onmouseout="recoverPath(evt)" fill="rgb(229,226,203)" d="M  207,125l 0,1 -1,1 29,0 0,-3 -24,0 -1,-1 -1,0 -1,-1 0,1 -1,1Z"/>
<path onmouseover="hoverPath(evt)" onmouseout="recoverPath(evt)" fill="rgb(243,242,233)" d="M  206,133l 0,0 -1,1 0,69 50,0 0,-58 -4,0 -1,1 -32,0 -1,1 -1,0 -1,1 -2,0 -1,-1 0,-14 1,-1 -6,0 -1,1 11,-1 0,0 1,1 0,2 -1,1 0,1 -1,1 0,4 13,0 1,-1 0,-5 -2,0 -1,-1 0,-2 1,-1 -11,0 -11,1Z"/>
<path onmouseover="hoverPath(evt)" onmouseout="recoverPath(evt)" fill="rgb(242,240,230)" d="M  212,86l 0,0 -1,1 0,32 1,1 23,0 0,-34 -1,-1 -17,0 -1,1Z"/>
<path onmouseover="hoverPath(evt)" onmouseout="recoverPath(evt)" fill="rgb(240,239,227)" d="M  223,78l -12,0 -1,-1 -3,0 0,6 1,0 1,-1 1,0 1,-1 24,0 1,1 2,0 1,1 0,4 1,1 0,17 1,-18 0,0 1,-1 1,-1 1,-1 3,0 1,1 0,2 -1,1 -1,0 -1,1 0,1 -1,1 0,11 1,1 10,0 0,-45 -32,0 -1,-1 -15,0 -1,1 -1,0 0,15 6,0 0,-1 1,-1 0,-6 1,-1 3,0 1,1 0,2 -1,1 0,5 9,0 1,1 0,2 -1,1 -1,0 -1,1Z"/>
<path onmouseover="hoverPath(evt)" onmouseout="recoverPath(evt)" fill="rgb(238,235,222)" d="M  235,138l 0,3 1,1 6,0 1,-1 8,0 0,-5 -16,0Z"/>
<path onmouseover="hoverPath(evt)" onmouseout="recoverPath(evt)" fill="rgb(240,238,227)" d="M  244,109l 0,13 1,1 10,0 0,-16 -10,0 -1,1Z"/>
</svg>