<svg width="256" height="256" xmlns="http://www.w3.org/2000/svg"><script> 
var tempColor;
function hoverPath(evt){
obj = evt.target;
tempColor = obj.getAttribute("fill");
obj.setAttribute("fill","red");
//alert(tempColor);
//obj.setAttribute("stroke","red");}
function recoverPath(evt){
obj = evt.target;
obj.setAttribute("fill", tempColor);
//obj.setAttribute("stroke", tempColor);
}</script><path onmouseover="hoverPath(evt)" onmouseout="recoverPath(evt)" fill="rgb(170,197,237)" d="M  0,1l 0,7 27,0 1,1 27,0 1,1 6,0 0,-1 -1,0 -1,-1 0,-5 1,-1 0,-2 -60,0 -1,1Z"/>
<path onmouseover="hoverPath(evt)" onmouseout="recoverPath(evt)" fill="rgb(182,142,237)" d="M  64,0l -1,0 0,3 -1,1 0,3 1,0 1,1 0,3 -1,1 -1,0 0,1 1,1 0,2 -1,1 0,2 -1,1 0,1 1,1 0,6 -1,1 0,6 1,1 0,2 -1,1 0,2 -1,1 0,2 1,1 0,5 -1,1 0,6 1,1 0,2 -1,1 0,2 -1,1 0,2 1,1 0,5 -1,1 0,6 1,1 0,2 -1,1 0,2 -1,1 0,1 1,1 0,5 -1,1 0,6 1,1 0,2 -1,1 0,2 -1,1 0,1 1,1 0,5 -1,1 0,6 1,1 0,2 -1,1 0,2 -1,1 0,1 1,1 0,4 1,1 0,22 -1,1 -2,0 0,7 1,1 0,3 -1,1 0,2 -1,1 0,2 1,1 0,5 -1,1 0,7 1,1 0,3 -1,1 0,2 -1,1 0,2 1,1 0,5 -1,1 0,7 1,1 0,3 -1,1 0,2 -1,1 0,2 1,1 0,6 -1,1 0,8 1,1 0,2 -1,1 0,2 -1,1 0,1 1,1 0,7 11,0 0,-3 1,-1 0,-8 -1,-1 0,-3 1,-1 0,-3 1,-1 0,-2 -1,-1 0,-6 1,-1 0,-7 -1,-1 0,-2 1,-1 0,-2 1,-1 0,-1 -1,-1 0,-6 1,-1 0,-6 -1,-1 0,-2 1,-1 0,-2 1,-1 0,-2 -1,-1 0,-5 1,-1 0,-13 1,-1 0,-1 -1,-1 0,-4 1,-1 0,-2 -1,0 -1,-1 0,-8 1,-1 1,0 0,-2 1,-1 0,-2 -1,-1 0,-5 1,-1 0,-13 1,-1 0,-1 -1,-1 0,-5 1,-1 0,-7 -1,-1 0,-2 1,-1 0,-2 1,-1 0,-2 -1,-1 0,-5 1,-1 0,-6 -1,-1 0,-2 1,-1 0,-2 1,-1 0,-2 -1,-1 0,-5 1,-1 0,-13 1,-1 0,-1 -1,-1 0,-5 1,-1 0,-7 -1,-1 0,-2 1,-1 0,-2 1,-1 0,-1 -1,-1 0,-6 1,-1 0,-6 -1,-1 0,-2 -1,-1 0,-8 1,-1 2,0 0,-3Z"/>
<path onmouseover="hoverPath(evt)" onmouseout="recoverPath(evt)" fill="rgb(243,243,237)" d="M  0,11l 0,18 2,0 1,1 0,2 1,1 0,1 1,1 0,2 1,1 0,1 1,1 0,2 1,1 0,1 1,1 0,2 1,1 0,2 1,1 0,2 1,1 0,1 1,1 0,2 1,1 0,2 1,1 0,2 1,1 0,2 1,1 0,1 1,1 0,1 1,1 0,2 1,1 0,1 1,1 0,1 1,1 0,2 1,1 0,1 1,1 0,1 1,1 0,2 1,1 0,1 1,1 0,2 1,1 0,1 1,1 0,2 1,1 0,1 1,1 0,1 1,1 0,2 1,1 0,1 1,1 0,1 1,1 0,1 1,1 0,1 1,1 0,1 1,1 0,1 1,1 0,1 1,1 1,1 0,1 1,1 1,1 1,1 0,1 1,1 1,1 1,1 1,0 1,1 1,1 1,1 1,1 1,1 2,0 0,-3 -1,-1 0,-3 1,-1 0,-2 1,-1 -1,-1 0,-8 1,-1 0,-3 -1,-1 0,-3 1,-1 0,-2 1,-1 -1,-1 0,-8 1,-1 0,-3 -1,-1 0,-3 1,-1 0,-2 1,-1 -1,-1 0,-8 1,-1 0,-3 -1,-1 0,-4 1,-1 0,-2 1,-1 -1,-1 0,-8 1,-1 0,-3 -1,-1 0,-4 1,-1 0,-2 1,-1 -1,-1 0,-8 1,-1 0,-4 -1,-1 0,-3 1,-1 0,-2 1,-1 -1,-1 0,-2 -5,0 -1,-1 -27,0 -1,-1 -25,0 -1,1Z"/>
<path onmouseover="hoverPath(evt)" onmouseout="recoverPath(evt)" fill="rgb(243,243,238)" d="M  1,56l 0,-2 -1,0 0,69 4,0 1,-1 5,0 0,-9 2,-2 7,0 1,1 4,0 0,-1 -1,-1 0,-1 -1,-1 0,-2 -1,-1 0,-1 -1,-1 0,-1 -1,-1 0,-2 -1,-1 0,-1 -1,-1 0,-1 -1,-1 0,-2 -1,-1 0,-1 -1,-1 0,-1 -1,-1 0,-1 -1,-1 0,-3 -1,-1 0,-1 -1,-1 0,-1 -1,-1 0,-2 -1,-1 0,-1 -1,-1 0,-2 -1,-1 0,-2 -1,-1 0,-1 -1,-1 0,-2 -1,-1 0,-2 -1,-1 0,-1 -1,-1Z"/>
<path onmouseover="hoverPath(evt)" onmouseout="recoverPath(evt)" fill="rgb(243,243,237)" d="M  0,128l 0,127 50,0 0,-6 -1,-1 0,-3 1,-1 0,-2 1,-1 -1,-1 0,-10 1,-1 0,-4 -1,-1 0,-4 1,-1 0,-2 1,-1 0,-1 -1,-1 0,-9 1,-1 0,-3 -1,-1 0,-4 1,-1 0,-2 1,-1 0,-1 -1,-1 0,-9 1,-1 0,-3 -1,-1 0,-4 1,-1 0,-2 1,-1 0,-1 -1,-1 0,-9 1,-1 0,-3 -1,-1 0,-6 -1,-1 -1,0 -1,-1 -1,-1 -2,-2 -1,0 -1,-1 -1,-1 -1,-1 -1,0 -1,-1 -2,-2 0,-1 -1,-1 -1,-1 -1,-1 -1,-1 -1,-1 -1,-1 -1,-1 -1,-1 0,-1 -1,-1 0,-1 -2,-2 0,-1 -1,-1 -1,-1 -2,0 -1,-1 -4,0 -1,-1 -3,0 -1,1 0,8 -1,1 -1,1 -11,0 -1,1Z"/>
<path onmouseover="hoverPath(evt)" onmouseout="recoverPath(evt)" fill="rgb(170,197,237)" d="M  70,150l 0,0 -1,-1 -1,-1 0,6 1,0 1,1 0,3 1,0 1,1 1,1 1,1 1,1 1,1 1,0 1,1 1,1 1,0 1,1 1,1 1,1 1,1 1,0 1,1 1,1 1,0 1,1 1,1 1,1 1,0 1,1 1,1 1,1 1,0 1,1 1,1 1,1 1,1 1,0 1,1 1,1 1,1 1,1 1,1 1,1 1,1 1,0 1,1 1,1 1,1 1,1 1,0 1,1 1,1 1,1 1,0 1,1 1,1 1,1 1,0 1,1 1,1 1,1 1,0 1,1 1,1 1,1 1,0 1,1 1,1 1,0 1,1 1,0 1,1 2,0 1,1 2,0 1,1 3,0 1,1 4,0 1,1 4,0 1,1 5,0 1,1 5,0 1,1 6,0 1,1 5,0 1,1 4,0 1,1 5,0 1,1 11,0 1,1 12,0 1,1 11,0 1,1 1,1 0,2 -1,1 0,3 -1,1 0,3 -1,1 0,3 -1,1 0,2 -1,1 0,3 -1,1 0,5 -1,1 0,4 2,0 0,-4 1,-1 0,-4 1,-1 0,-4 1,-1 0,-4 1,-1 0,-3 1,-1 0,-4 1,-1 0,-2 1,-1 1,-1 9,0 1,1 12,0 0,-6 -13,0 -1,-1 -12,0 -1,-1 -12,0 -1,-1 -11,0 -1,-1 -8,0 -1,-1 -7,0 -1,-1 -6,0 -1,-1 -6,0 -1,-1 -6,0 -1,-1 -6,0 -1,-1 -4,0 -1,-1 -5,0 -1,-1 -2,0 -1,-1 -3,0 -1,-1 -1,0 -1,-1 -1,0 -1,-1 -1,0 -1,-1 -1,-1 -1,0 -1,-1 -1,-1 -1,-1 -1,-1 -1,0 -1,-1 -1,-1 -1,-1 -1,0 -1,-1 -1,-1 -1,-1 -1,-1 -1,0 -1,-1 -1,-1 -1,-1 -1,0 -1,-1 -1,-1 -1,-1 -1,-1 -1,0 -1,-1 -1,-1 -1,-1 -1,-1 -1,0 -1,-1 -3,-3 -1,0 -2,-2 -1,-1 -1,-1 -1,-1 -1,0 -1,-1 -1,-1 -1,-1 -1,-1 -1,0 -1,-1 -1,-1 -1,-1 -1,-1 -1,0 -1,-1 -1,-1 -1,0 -1,-1 -1,-1 -1,0 -1,-1 -1,-1 -1,-1 -1,0 -1,-1 -1,-1 -1,-1Z"/>
<path onmouseover="hoverPath(evt)" onmouseout="recoverPath(evt)" fill="rgb(243,243,237)" d="M  69,162l 0,0 1,1 0,3 -1,1 0,13 -1,1 0,3 1,1 0,4 -1,1 0,2 -1,1 1,1 0,8 -1,1 0,4 1,1 0,3 -1,1 0,2 -1,1 1,1 0,9 -1,1 0,4 1,1 0,4 -1,1 0,3 -1,1 0,1 1,1 0,10 -1,1 0,2 156,0 0,-5 1,-1 0,-5 1,-1 0,-3 1,-1 0,-2 1,-1 0,-3 1,-1 0,-3 1,-1 0,-3 1,-1 -1,-1 -11,0 -1,-1 -12,0 -1,-1 -11,0 -1,-1 -5,0 -1,-1 -4,0 -1,-1 -5,0 -1,-1 -6,0 -1,-1 -5,0 -1,-1 -5,0 -1,-1 -4,0 -1,-1 -4,0 -1,-1 -3,0 -1,-1 -2,0 -1,-1 -2,0 -1,-1 -1,0 -1,-1 -1,0 -1,-1 -1,-1 -1,0 -1,-1 -1,-1 -1,-1 -1,0 -1,-1 -1,-1 -1,-1 -1,0 -1,-1 -1,-1 -1,-1 -1,0 -1,-1 -1,-1 -1,-1 -1,0 -1,-1 -1,-1 -1,-1 -1,-1 -1,0 -1,-1 -1,-1 -1,-1 -1,-1 -1,-1 -1,-1 -1,-1 -1,0 -1,-1 -1,-1 -1,-1 -1,-1 -1,0 -1,-1 -1,-1 -1,-1 -1,0 -1,-1 -1,-1 -1,-1 -1,0 -1,-1 -1,-1 -1,0 -1,-1 -1,-1 -1,-1 -1,-1 -1,0 -1,-1 -1,-1 -1,0 -1,-1 -1,-1 -1,-1 -1,-1 -1,-1 -1,0Z"/>
<path onmouseover="hoverPath(evt)" onmouseout="recoverPath(evt)" fill="rgb(170,197,237)" d="M  77,1l 0,3 -1,1 -2,0 0,6 21,0 1,1 27,0 1,1 25,0 1,1 27,0 1,1 26,0 1,1 26,0 1,1 23,0 0,-17 -177,0 -1,1Z"/>
<path onmouseover="hoverPath(evt)" onmouseout="recoverPath(evt)" fill="rgb(243,243,237)" d="M  76,13l -1,0 0,1 1,1 0,8 -1,1 0,4 1,1 0,3 -1,1 0,2 -1,1 1,1 0,9 -1,1 0,3 1,1 0,3 -1,1 0,13 -1,1 0,3 1,1 0,4 -1,1 0,2 -1,1 1,1 0,8 -1,1 0,3 1,1 0,4 -1,1 0,2 -1,1 1,1 0,9 -1,1 0,3 1,1 0,3 -1,1 0,13 -1,1 0,3 1,1 0,4 -1,1 0,2 1,1 1,1 1,1 1,1 1,0 1,1 1,1 1,1 1,0 1,1 1,1 1,0 1,1 1,1 1,0 1,1 1,1 1,1 1,1 1,0 1,1 1,1 1,1 1,1 1,0 1,1 2,2 1,1 1,1 1,0 1,1 1,1 1,1 1,1 1,0 1,1 1,1 1,1 1,1 1,0 1,1 1,1 1,1 1,1 1,0 1,1 1,1 1,1 1,0 1,1 1,1 1,1 1,1 1,0 1,1 1,1 1,1 1,0 1,1 1,1 1,1 1,1 1,0 1,1 1,1 1,0 1,1 1,0 1,1 1,0 1,1 3,0 1,1 2,0 1,1 5,0 1,1 4,0 1,1 6,0 1,1 6,0 1,1 6,0 1,1 6,0 1,1 7,0 1,1 8,0 1,1 11,0 1,1 12,0 1,1 12,0 1,1 12,0 0,-196 -24,0 -1,-1 -26,0 -1,-1 -26,0 -1,-1 -27,0 -1,-1 -25,0 -1,-1 -27,0 -1,-1Z"/>
<path onmouseover="hoverPath(evt)" onmouseout="recoverPath(evt)" fill="rgb(170,196,237)" d="M  24,115l 1,1 2,0 1,1 1,1 1,1 0,1 1,1 1,1 0,1 1,1 0,1 1,1 1,1 1,1 1,1 1,1 1,1 1,1 1,1 0,1 1,1 1,1 1,0 1,1 1,1 1,1 1,0 1,1 1,1 1,1 1,1 1,0 1,1 1,1 0,6 1,1 0,-16 -4,0 -1,-1 -1,-1 -1,-1 -1,-1 -1,-1 -1,0 -1,-1 -1,-1 -1,-1 -1,-1 0,-1 -2,-2 -1,-1 0,-1 -1,-1 -1,-1 0,-1 -1,-1 0,-1 -1,-1 0,-1 -1,-1 0,-1 -1,-1 0,-1 -1,-1 0,-1 -1,-1 0,-1 -1,-1 0,-2 -1,-1 0,-1 -1,-1 0,-1 -1,-1 0,-2 -1,-1 0,-1 -1,-1 0,-2 -1,-1 0,-1 -1,-1 0,-2 -1,-1 0,-1 -1,-1 0,-1 -1,-1 0,-2 -1,-1 0,-1 -1,-1 0,-1 -1,-1 0,-2 -1,-1 0,-1 -1,-1 0,-1 -1,-1 0,-2 -1,-1 0,-2 -1,-1 0,-2 -1,-1 0,-2 -1,-1 0,-1 -1,-1 0,-2 -1,-1 0,-2 -1,-1 0,-2 -1,-1 0,-1 -1,-1 0,-2 -1,-1 0,-1 -1,-1 0,-2 -1,-1 0,-1 -1,-1 0,-2 -1,0 0,21 2,0 1,1 0,2 1,1 0,1 1,1 0,2 1,1 0,2 1,1 0,1 1,1 0,2 1,1 0,2 1,1 0,1 1,1 0,2 1,1 0,1 1,1 0,1 1,1 0,3 1,1 0,1 1,1 0,1 1,1 0,1 1,1 0,2 1,1 0,1 1,1 0,1 1,1 0,2 1,1 0,1 1,1 0,1 1,1 0,2 1,1 0,1 1,1 0,3 -1,1 -1,1 -1,-1 -4,0 -1,-1 -5,0 -1,1 0,9 -1,1 -5,0 -1,1 6,0 1,-1 0,0 1,-9 1,-1 -1,0 7,1 2,0 1,-1 1,1Z"/>
<path onmouseover="hoverPath(evt)" onmouseout="recoverPath(evt)" fill="rgb(244,244,238)" d="M  233,225l 0,2 -1,1 0,4 -1,1 0,3 -1,1 0,4 -1,1 0,4 -1,1 0,4 -1,1 0,3 28,0 0,-30 -13,0 -1,-1 -7,0 -1,1Z"/>
</svg>