<svg width="256" height="256" xmlns="http://www.w3.org/2000/svg"><script> 
var tempColor;
function hoverPath(evt){
obj = evt.target;
tempColor = obj.getAttribute("fill");
obj.setAttribute("fill","red");
//alert(tempColor);
//obj.setAttribute("stroke","red");}
function recoverPath(evt){
obj = evt.target;
obj.setAttribute("fill", tempColor);
//obj.setAttribute("stroke", tempColor);
}</script><path onmouseover="hoverPath(evt)" onmouseout="recoverPath(evt)" fill="rgb(243,242,234)" d="M  0,1l 0,18 22,0 1,-1 6,0 1,-1 6,0 1,-1 6,0 1,-1 6,0 1,-1 7,0 1,-1 7,0 1,-1 5,0 0,-3 -1,-1 0,-3 1,-1 0,-4 -71,0 -1,1Z"/>
<path onmouseover="hoverPath(evt)" onmouseout="recoverPath(evt)" fill="rgb(243,242,235)" d="M  0,28l 0,94 8,0 1,-1 6,0 0,-5 1,-1 10,0 0,-2 1,-1 1,0 0,-3 1,-1 0,-12 -2,0 -1,-1 -1,-1 0,-4 1,-1 3,0 0,-19 1,-1 0,-26 1,-1 0,-15 -1,-1 -7,0 -1,1 -21,0 -1,1Z"/>
<path onmouseover="hoverPath(evt)" onmouseout="recoverPath(evt)" fill="rgb(244,243,236)" d="M  0,129l 0,113 6,0 1,1 24,0 1,1 18,0 1,1 10,0 0,-6 1,-1 0,-3 -1,-1 0,-4 1,-1 0,-14 1,-1 0,-8 -1,-1 0,-3 1,-1 0,-10 1,-1 0,-4 -1,-1 0,-4 1,-1 0,-3 1,-1 -1,-1 0,-10 1,-1 0,-3 -1,-1 0,-2 1,-1 0,-11 1,-1 0,-4 -1,-1 0,-3 1,-1 0,-12 1,-1 0,-3 -1,-1 -3,0 -1,1 -4,0 -1,1 -6,0 -1,1 -7,0 -1,1 -9,0 -1,1 -5,0 -1,1 -5,0 -1,1 -1,0 0,3 -1,1 -5,0 -1,-1 -1,-1 0,-1 -8,0 -1,1 -1,0 -1,1Z"/>
<path onmouseover="hoverPath(evt)" onmouseout="recoverPath(evt)" fill="rgb(169,196,237)" d="M  0,245l 0,10 63,0 0,-8 -13,0 -1,-1 -18,0 -1,-1 -24,0 -1,-1 -4,0 -1,1Z"/>
<path onmouseover="hoverPath(evt)" onmouseout="recoverPath(evt)" fill="rgb(201,213,228)" d="M  24,123l 1,0 1,-1 1,0 0,-2 1,-1 1,-1 2,0 0,-29 1,-1 0,-2 -1,0 0,2 -1,3 -3,0 0,2 1,1 2,0 0,19 -1,1 -1,0 0,2 -1,1 -10,0 0,5 -1,1 -6,0 -1,1 -9,0 0,2 1,0 1,-1 10,0 1,1 0,1 1,1 3,0 0,-3 1,-1 1,0 1,-1Z"/>
<path onmouseover="hoverPath(evt)" onmouseout="recoverPath(evt)" fill="rgb(242,241,234)" d="M  33,106l 0,12 7,0 1,-1 9,0 1,-1 8,0 1,-1 6,0 1,-1 1,-1 0,-2 -1,-1 0,-8 1,-1 0,-3 -1,-1 0,-3 1,-1 0,-3 1,-1 -1,-1 0,-8 1,-1 0,-1 -1,-1 0,-3 1,-1 0,-18 1,-1 0,-3 -1,-1 0,-3 1,-1 1,0 0,-1 -1,-1 0,-8 1,-1 0,-4 -1,-1 0,-4 1,-1 0,-3 1,-1 -8,0 -1,1 -10,0 -1,1 -6,0 -1,1 -6,0 -1,1 -2,0 -1,1 0,34 -1,1 0,28 -1,1Z"/>
<path onmouseover="hoverPath(evt)" onmouseout="recoverPath(evt)" fill="rgb(253,253,253)" d="M  55,16l -3,0 -1,1 -6,0 -1,1 -6,0 -1,1 -6,0 -1,1 -6,0 -1,1 -23,0 0,1 20,0 4,-1 4,0 3,-1 4,0 3,-1 3,0 4,-1 4,0 3,-1 2,0 1,-1 10,0 1,-1 5,0 0,-1 -3,0 -3,1 -4,0 -1,1Z"/>
<path onmouseover="hoverPath(evt)" onmouseout="recoverPath(evt)" fill="rgb(184,162,235)" d="M  72,54l 0,1 -1,1 0,18 -1,1 0,1 1,1 0,3 -1,1 0,6 1,1 0,2 -1,1 0,3 -1,1 0,1 1,1 0,5 -1,1 0,6 1,1 0,4 -1,1 -1,1 -1,1 0,0 1,1 1,1 0,5 -1,1 0,12 -1,1 0,1 1,1 0,6 -1,1 0,11 -1,1 1,1 0,5 -1,1 0,8 1,1 0,2 -1,1 0,3 -1,1 0,2 1,1 0,6 -1,1 0,10 -1,1 0,1 1,1 0,10 -1,1 0,14 -1,1 0,2 1,1 0,5 -1,1 0,5 1,0 1,1 0,9 8,0 0,-9 1,-1 1,0 0,-2 1,-1 0,-1 -1,-1 0,-5 1,-1 0,-7 -1,-1 0,-3 1,-1 0,-2 1,-1 0,-2 -1,-1 0,-5 1,-1 0,-15 1,-1 0,-1 -1,-1 0,-6 1,-1 0,-7 -1,-1 0,-2 1,-1 0,-2 1,-1 -1,-1 0,-5 1,-1 0,-14 1,-1 0,-1 -1,-1 0,-5 1,-1 0,-11 1,-1 0,-2 -1,-1 0,-4 1,-1 0,-5 1,-1 0,-1 -1,-1 0,-4 1,-1 0,-1 -1,-1 0,-4 1,-1 0,-12 1,-1 0,-1 -1,-1 0,-5 1,-1 0,-8 -1,-1 0,-4 1,-1 0,-1 1,-1 0,-2 -1,-1 0,-6 1,-1 2,0 2,-2 1,-1 0,-7 -1,-1 0,-4 -1,-1 0,-3 1,-1 1,0 0,-1 -3,0 -1,-1 0,-11 1,-1 0,-1 1,-1 0,-1 1,-1 5,0 1,-1 5,0 1,-1 3,0 1,-1 9,0 1,-1 6,0 1,-1 5,0 1,-1 5,0 1,-1 4,0 1,-1 6,0 1,-1 4,0 1,-1 5,0 1,-1 5,0 1,-1 7,0 1,-1 22,0 1,1 25,0 1,1 2,0 1,1 1,0 1,1 1,0 1,1 3,0 1,1 1,1 1,0 1,1 4,0 1,1 17,0 0,-5 -17,0 -1,-1 -2,0 -1,-1 -2,0 -1,-1 -2,0 -1,-1 -2,0 -1,-1 0,-2 -76,0 0,2 -1,1 -6,0 -1,1 -3,0 -1,1 -5,0 -1,1 -6,0 0,3 -1,1 -6,0 -1,1 -5,0 -1,-1 0,-1 -3,0 -1,1 -6,0 -1,1 -6,0 -1,1 -2,0 -1,-1 0,-1 -3,0 -1,-1 0,-9 -12,0 0,5 -1,1 0,1 1,1 0,5 -1,1 0,2 -1,1 -5,0 -1,1 -7,0 -1,1 -7,0 -1,1 -7,0 -1,1 -5,0 -1,1 -6,0 -1,1 -7,0 -1,1 -21,0 0,1 21,0 1,-1 9,0 1,1 1,1 0,-1 1,-1 1,-1 2,0 1,-1 6,0 1,-1 6,0 1,-1 10,0 1,-1 10,0 1,1 0,2 -1,1 0,3 -1,1 0,2 1,1 0,6 -1,1 0,6 1,1 0,3 -1,1 -1,0 0,1 1,1 0,4 11,61 10,0 1,-1 10,0 1,-1 8,0 1,-1 8,0 1,-1 8,0 1,-1 8,0 1,-1 8,0 1,-1 8,0 1,-1 8,0 1,-1 8,0 1,-1 8,0 1,-1 8,0 1,-1 8,0 1,-1 8,0 1,-1 9,0 1,-1 10,0 1,-1 8,0 1,-1 8,0 1,-1 3,0 0,-1 -2,0 -2,1 -5,0 -4,1 -8,0 -1,1 -9,0 -2,1 -6,0 -4,1 -5,0 -4,1 -5,0 -4,1 -5,0 -4,1 -4,0 -5,1 -4,0 -5,1 -5,0 -4,1 -5,0 -4,1 -7,0 -2,1 -8,0 -1,1 -7,0 -2,1 -6,0 -3,1 -5,0 -4,1 -5,0 -6,1 -3,0 -7,1 -11,-61 -10,63 -1,0 -1,1 -8,0 -1,1 -9,0 -1,1 -11,0 -1,1 0,1 2,0 1,-1 9,0 1,-1 7,0 13,-3 10,-63 -39,-11 -1,1 0,26 -1,1 0,13 1,0 0,-13 1,-12 0,-16 39,11Z"/>
<path onmouseover="hoverPath(evt)" onmouseout="recoverPath(evt)" fill="rgb(170,197,237)" d="M  77,248l 0,0 -1,-1 -1,0 0,8 180,0 0,-2 -17,0 -1,-1 -31,0 -1,-1 -30,0 -1,-1 -27,0 -1,-1 -26,0 -1,-1Z"/>
<path onmouseover="hoverPath(evt)" onmouseout="recoverPath(evt)" fill="rgb(244,243,236)" d="M  83,118l 0,4 -1,1 0,2 1,1 0,4 -1,1 0,11 -1,1 0,3 1,1 0,3 -1,1 0,14 -1,1 0,3 1,1 0,2 -1,1 0,2 -1,1 1,1 0,9 -1,1 0,4 1,1 0,3 -1,1 0,15 -1,1 0,3 1,1 0,4 -1,1 0,2 -1,1 0,1 1,1 0,9 -1,1 0,3 1,1 0,3 -1,1 0,1 1,1 42,0 1,1 26,0 1,1 27,0 1,1 30,0 1,1 31,0 1,1 16,0 0,-152 -2,0 -1,1 -8,0 -1,1 -8,0 -1,1 -10,0 -1,1 -9,0 -1,1 -8,0 -1,1 -8,0 -1,1 -8,0 -1,1 -8,0 -1,1 -8,0 -1,1 -8,0 -1,1 -8,0 -1,1 -8,0 -1,1 -8,0 -1,1 -8,0 -1,1 -8,0 -1,1 -8,0 -1,1 -10,0 -1,1 -10,0 -1,1Z"/>
<path onmouseover="hoverPath(evt)" onmouseout="recoverPath(evt)" fill="rgb(244,243,236)" d="M  91,52l -1,1 -1,1 -1,1 -1,1 -2,0 0,4 1,1 0,4 -1,1 0,1 -1,1 0,2 1,1 0,10 -1,1 0,3 1,1 0,3 -1,1 0,12 -1,1 0,2 1,1 0,3 -1,1 0,2 1,1 4,0 1,-1 8,0 1,-1 8,0 1,-1 7,0 1,-1 7,0 1,-1 7,0 1,-1 9,0 1,-1 10,0 1,-1 8,0 1,-1 9,0 1,-1 8,0 1,-1 7,0 1,-1 8,0 1,-1 8,0 1,-1 8,0 1,-1 7,0 1,-1 9,0 1,-1 11,0 1,-1 6,0 1,-1 3,0 0,-80 -18,0 -1,-1 -4,0 -1,-1 -1,0 -1,-1 -1,-1 -3,0 -1,-1 -1,0 -1,-1 -1,0 -1,-1 -2,0 -1,-1 -25,0 -1,-1 -20,0 -1,1 -7,0 -1,1 -5,0 -1,1 -5,0 -1,1 -4,0 -1,1 -6,0 -1,1 -4,0 -1,1 -5,0 -1,1 -5,0 -1,1 -6,0 -1,1 -9,0 -1,1 -3,0 -1,1 -5,0 -1,1 -5,0 0,1 -1,1 0,1 -1,1 0,9 3,0 1,1 0,3 -1,1 -1,0 0,1 1,1 0,4 1,1Z"/>
<path onmouseover="hoverPath(evt)" onmouseout="recoverPath(evt)" fill="rgb(240,239,230)" d="M  95,9l 4,0 1,-1 6,0 1,-1 5,0 1,1 0,1 3,0 1,-1 6,0 0,-3 1,-1 6,0 1,-1 5,0 1,-1 3,0 1,-1 6,0 0,-1 -59,0 0,8 3,0 1,1 0,1 1,-1Z"/>
<path onmouseover="hoverPath(evt)" onmouseout="recoverPath(evt)" fill="rgb(240,237,226)" d="M  237,4l 1,0 1,1 16,0 0,-5 -28,0 0,1 2,0 1,1 2,0 1,1 2,0 1,1Z"/>
</svg>