<svg width="256" height="256" xmlns="http://www.w3.org/2000/svg"><script> 
var tempColor;
function hoverPath(evt){
obj = evt.target;
tempColor = obj.getAttribute("fill");
obj.setAttribute("fill","red");
//alert(tempColor);
//obj.setAttribute("stroke","red");}
function recoverPath(evt){
obj = evt.target;
obj.setAttribute("fill", tempColor);
//obj.setAttribute("stroke", tempColor);
}</script><path onmouseover="hoverPath(evt)" onmouseout="recoverPath(evt)" fill="rgb(242,240,231)" d="M  129,176l -1,1 -1,1 0,1 -1,1 -1,1 -1,0 0,1 -1,1 -1,1 0,1 -1,1 0,5 1,1 4,0 1,-1 3,0 1,-1 4,0 1,-1 3,0 1,-1 3,0 1,-1 2,0 1,-1 2,0 1,-1 3,0 1,-1 3,0 1,1 1,0 0,-2 1,-1 2,0 1,-1 3,0 1,-1 2,0 1,-1 1,0 1,-1 3,0 1,-1 1,0 1,-1 2,0 1,-1 0,-5 -1,-1 0,-2 1,-1 -1,-1 0,-1 -1,-1 -2,0 -1,-1 0,-2 1,-1 0,-1 -1,0 -1,-1 0,-1 -1,-1 -1,-1 -2,0 -1,-1 -1,-1 0,-2 -18,0 -1,1 -3,0 -1,1 -1,0 0,1 -1,1 -1,0 -1,1 -1,0 0,1 -1,1 -1,1 0,1 -1,1 -2,0 -1,1 1,1 0,2 -1,1 -1,1 0,1 -1,1 0,1 11,0 1,1 0,2 -1,1 -1,0 -1,1 -12,0 -1,1Z"/>
<path onmouseover="hoverPath(evt)" onmouseout="recoverPath(evt)" fill="rgb(242,240,231)" d="M  174,79l 0,0 -1,1 0,1 -1,1 -1,1 0,1 -1,1 0,1 -1,1 -1,1 0,1 -1,1 0,1 -2,2 0,1 -1,1 0,1 -1,1 0,1 -2,2 0,1 -1,1 0,1 -1,1 -1,1 0,1 -1,1 0,1 -2,2 0,1 -2,2 0,1 -1,1 0,1 -1,1 -1,1 0,1 -1,1 -1,1 0,1 -1,1 0,1 -1,1 -1,1 0,1 -1,1 -1,1 0,1 -1,1 0,1 -2,2 0,1 -1,1 0,1 -1,1 -1,1 0,1 -1,1 0,1 -1,1 0,1 1,0 1,1 1,0 1,1 1,0 1,1 8,0 1,-1 18,0 1,-1 1,0 0,-12 -1,0 -1,-1 -2,0 -1,1 -8,0 -1,-1 0,-3 1,-1 12,0 0,-22 1,-1 0,-3 1,-1 2,0 1,-1 -1,-1 0,-2 1,-1 18,0 -13,-1 0,-3 -1,-1 0,-2 1,-1 0,-7 -1,-1 0,-1 -1,-1 -2,0 -1,1Z"/>
<path onmouseover="hoverPath(evt)" onmouseout="recoverPath(evt)" fill="rgb(244,243,235)" d="M  175,153l 0,0 1,1 1,1 0,1 1,0 1,1 0,2 1,1 0,1 1,1 1,1 0,1 1,1 0,2 -1,1 2,0 1,1 0,3 1,1 0,6 1,1 0,4 1,1 0,2 2,0 1,-1 1,0 2,-2 1,0 1,-1 1,0 1,-1 1,0 1,-1 1,-1 1,0 1,-1 1,-1 1,0 1,-1 1,-1 2,0 0,-1 1,-1 1,-1 1,0 1,-1 1,-1 1,0 1,-1 1,-1 1,0 1,-1 1,-1 2,0 0,-1 1,-1 1,-1 1,0 1,-1 1,-1 1,0 2,-2 1,0 1,-1 1,-1 2,0 0,-1 1,-1 1,-1 1,0 1,-1 1,-1 1,0 1,-1 1,-1 2,0 0,-1 1,-1 1,-1 1,0 1,-1 1,-1 1,0 1,-1 1,-1 2,0 0,-144 -67,0 0,18 -1,1 -1,0 -1,1 -3,0 -1,1 -1,0 0,30 1,1 0,3 1,0 1,1 0,1 3,0 1,1 1,1 0,6 -1,1 -2,0 -1,-1 0,-3 -1,-1 -1,0 0,2 -1,1 0,2 -1,1 0,2 -1,1 0,1 -1,1 0,2 2,0 1,1 9,0 1,1 0,2 -1,1 -5,0 -1,1 -1,0 0,9 -1,1 0,1 -1,1 0,2 12,0 1,1 0,2 -1,1 -18,0 1,1 0,2 -1,1 -1,1 0,9 19,0 1,1 0,2 -1,1 -17,0 -1,1 -1,0 0,11 20,0 1,1 0,2 -1,1 -18,0 -1,1 -1,1 0,11 1,0 1,1 3,0 1,-1 15,0 1,1 0,2 -1,1 -7,0 -1,1 -13,0 0,2 1,1Z"/>
<path onmouseover="hoverPath(evt)" onmouseout="recoverPath(evt)" fill="rgb(243,242,234)" d="M  20,161l 0,0 -1,1 1,1 0,4 1,1 0,5 -1,1 0,3 1,1 0,3 1,1 0,2 1,1 0,1 1,1 1,1 0,1 1,0 1,-1 2,0 1,1 1,0 1,1 1,0 1,1 1,0 1,1 1,1 1,1 1,1 1,1 0,1 1,1 0,2 -1,1 0,1 1,1 0,1 1,1 0,4 1,1 0,2 2,0 1,1 0,1 1,1 1,1 7,0 1,-1 4,0 1,-1 3,0 1,-1 3,0 1,-1 1,0 1,-1 2,0 1,1 0,1 1,1 1,1 2,0 1,-1 4,0 1,-1 4,0 1,-1 2,0 -1,-1 0,-1 -1,-1 0,-1 -5,0 -1,-1 0,-2 1,-1 2,0 1,-1 0,-7 1,-1 0,-2 1,-1 1,0 1,-1 1,-1 0,-4 -1,-1 0,0 -1,1 -2,0 -1,-1 -1,-1 -1,-1 -2,0 -1,-1 0,-1 -1,-1 -1,-1 0,-2 -1,-1 -1,0 -1,-1 -1,-1 -1,-1 -1,1 -2,0 -1,-1 -1,-1 -1,0 -1,-1 -1,0 -1,-1 -3,0 -1,-1 -6,0 -1,-1 -15,0 -1,-1 -3,0 -1,-1 0,-2 -2,0 -1,-1 -1,-1 -1,-1 -2,0 -1,-1 0,-1 -1,-1 -4,0 -1,-1 0,2 -1,1Z"/>
<path onmouseover="hoverPath(evt)" onmouseout="recoverPath(evt)" fill="rgb(252,252,251)" d="M  89,201l 0,3 -1,1 -1,1 3,0 1,1 0,1 1,1 0,1 1,1 0,2 1,0 1,-1 0,-2 -1,-1 0,-3 1,-1 0,-1 -1,-1 -1,-1 0,-1 -1,-1 0,-2 1,-1 0,-1 1,-1 1,-1 1,-1 0,-1 1,-1 1,0 1,-1 1,0 1,-1 0,-2 1,-1 1,-1 1,-1 1,-1 0,-1 2,-2 1,0 1,-1 0,-1 1,-1 1,0 0,-2 1,-1 2,-2 1,0 0,-2 1,-1 1,-1 0,-1 1,-1 1,-1 0,-1 1,-1 1,-1 0,-1 1,-1 1,-1 0,-1 1,-1 1,-1 0,-1 1,-1 0,-1 1,-1 1,-1 0,-1 2,-2 2,0 1,1 1,0 1,1 1,0 1,1 1,0 1,1 0,3 -1,1 2,-3 1,0 1,-1 1,0 0,-1 1,-1 1,0 1,-1 -6,0 -1,-1 -1,0 -1,-1 -1,0 -1,-1 -1,0 -1,-1 0,-3 1,-1 0,-1 1,-1 0,-1 1,-1 1,-1 0,-1 1,-1 0,-1 1,-1 1,-1 0,-1 1,-1 0,-1 1,-1 1,-1 0,-1 1,-1 1,-1 0,-1 1,-1 0,-1 2,-2 0,-1 2,-2 0,-1 1,-1 0,-1 1,-1 1,-1 0,-1 1,-1 1,-1 0,-1 1,-1 0,-1 1,-1 1,-1 0,-1 1,-1 0,-1 2,-2 0,-1 1,-1 0,-1 1,-1 0,-1 1,-1 1,-1 0,-1 1,-1 0,-1 1,-1 1,-1 0,-1 1,-1 0,-1 1,-1 1,-1 0,-1 1,-1 0,-1 1,-1 5,0 1,1 0,-1 1,1 0,2 1,1 0,-1 1,-1 1,0 1,-1 -3,0 -5,-2 0,-4 1,-1 0,-1 1,-1 0,-2 1,-1 0,-2 1,-1 0,-2 1,-1 3,0 1,1 0,-1 1,1 0,4 -5,-6 0,-1 -1,0 -1,-1 0,-3 -1,-1 0,-32 1,-1 1,0 1,-1 -3,0 0,1 -1,22 0,2 -1,1 -1,0 0,1 -1,1 -1,1 0,1 -1,1 -6,0 -1,-1 0,-14 -1,8 0,7 1,1 0,6 -1,1 0,1 -1,1 -1,1 -1,0 -1,1 -2,2 -1,0 -1,1 -1,1 -1,0 3,-1 2,0 1,1 0,2 1,-2 0,-1 2,-2 1,-1 1,0 0,-1 1,-1 1,-1 8,0 1,1 1,1 0,3 -1,1 0,2 -1,1 0,1 -1,1 0,1 -1,1 0,1 -1,1 -1,1 0,1 -1,1 -1,1 0,1 -1,1 -1,1 0,1 -1,1 -1,1 0,1 -1,1 0,1 -2,2 0,1 -1,1 0,1 -1,1 -1,1 0,1 -1,1 0,1 -1,1 0,1 -1,1 0,1 -1,1 -1,1 0,1 -1,1 -1,1 0,1 -1,1 -1,1 0,1 -1,1 0,1 -1,1 -1,1 0,1 -1,1 0,1 -1,1 -1,1 0,1 -1,1 -1,1 0,1 -1,1 0,1 -1,1 -1,1 0,1 -1,1 0,1 -1,1 -1,1 0,1 -1,1 -1,1 0,1 -1,1 0,1 -1,1 -1,1 0,1 -1,1 0,1 -1,1 -1,1 0,1 -1,1 0,1 -1,1 0,1 -2,2 0,1 -1,1 0,1 -1,1 -1,1 0,1 -1,1 -1,1 0,1 -1,1 -1,1 0,1 -1,1 -1,1 0,1 -1,1 -1,1 0,1 -1,1 -1,1 -1,0 0,1 -1,1 0,1 -1,1 -1,1 -2,0 -1,1 0,3 -1,1 -1,1 -2,2 -1,1 -1,1 -1,0 -1,1 -2,0 0,4 -1,1 -2,2 -1,0 0,2 -1,1Z"/>
<path onmouseover="hoverPath(evt)" onmouseout="recoverPath(evt)" fill="rgb(242,240,231)" d="M  155,1l 0,4 1,1 0,8 1,1 0,5 1,1 0,5 1,1 0,5 1,1 0,2 1,1 1,1 0,3 1,0 0,-7 1,-1 2,0 1,1 0,14 4,0 0,-1 1,-1 1,-1 0,-1 1,-1 1,0 0,-2 1,-1 0,-22 1,-1 8,0 1,1 0,-17 -30,0 -1,1Z"/>
<path onmouseover="hoverPath(evt)" onmouseout="recoverPath(evt)" fill="rgb(244,243,235)" d="M  210,241l 0,1 1,1 0,2 1,1 0,4 1,1 0,4 42,0 0,-33 -1,0 -1,1 -2,0 -1,1 -1,0 -1,1 -2,0 -1,1 -1,0 -1,1 -2,0 -1,1 -2,0 -1,1 -1,0 -1,1 -2,0 -1,1 -2,0 -1,1 -1,0 -1,1 -2,0 -1,1 -1,0 -1,1 -2,0 -1,1 -2,0 -1,1 -1,0 -1,1 -2,0 -1,1 -1,0Z"/>
<path onmouseover="hoverPath(evt)" onmouseout="recoverPath(evt)" fill="rgb(248,237,139)" d="M  0,243l 0,12 2,0 0,-2 1,-1 1,0 1,-1 1,0 1,-1 2,0 1,-1 1,0 1,-1 2,0 1,-1 2,0 1,-1 2,0 1,-1 3,0 1,-1 3,0 1,-1 3,0 1,-1 2,0 1,-1 3,0 1,-1 3,0 1,-1 3,0 1,-1 4,0 1,-1 2,0 1,-1 2,0 1,-1 2,0 1,-1 2,0 1,-1 2,0 1,-1 2,0 1,-1 1,0 1,-1 2,0 1,-1 3,0 1,-1 2,0 1,-1 3,0 1,-1 5,0 1,-1 2,0 1,-1 3,0 1,-1 3,0 1,-1 3,0 1,-1 4,0 1,-1 3,0 1,-1 4,0 1,-1 3,0 0,-1 1,-1 8,0 1,-1 4,0 1,-1 3,0 1,-1 3,0 1,-1 3,0 1,-1 2,0 1,-1 3,0 1,-1 3,0 1,-1 2,0 1,-1 2,0 1,-1 3,0 1,-1 1,0 1,-1 2,0 1,-1 2,0 1,-1 1,0 1,-1 3,0 1,1 0,1 1,1 0,1 1,1 0,1 1,1 0,2 1,1 0,1 1,1 0,1 2,0 1,1 0,3 -1,1 2,0 1,1 0,2 1,1 0,3 -1,1 1,1 0,1 1,1 0,2 1,1 0,5 1,1 0,1 1,1 0,1 1,1 0,3 1,1 0,2 1,1 0,5 6,0 0,-3 -1,-1 0,-4 -1,-1 0,-2 -1,-1 0,-3 -1,0 -1,-1 0,-5 -1,-1 0,-2 -1,-1 0,-2 -1,-1 0,-1 -1,-1 0,-2 -1,-1 0,-1 -1,-1 0,-2 -1,-1 0,-1 -1,-1 0,-2 -1,-1 0,-1 -1,-1 0,-1 -1,-1 0,-2 -1,-1 0,-1 -1,-1 0,-2 -1,-1 0,-2 1,-1 1,-1 2,0 1,-1 1,0 1,-1 1,-1 1,0 1,-1 1,0 1,-1 1,-1 1,0 1,-1 1,0 1,-1 1,-1 1,0 0,-1 1,-1 2,0 1,-1 1,0 0,-2 1,-1 3,0 1,-1 1,-1 1,-1 1,0 1,-1 0,-1 1,-1 2,0 1,-1 1,-1 1,0 1,-1 1,-1 1,0 1,-1 1,-1 1,0 1,-1 0,-1 1,-1 2,0 1,-1 1,-1 1,0 1,-1 1,-1 1,0 1,-1 0,-1 1,-1 2,0 1,-1 1,-1 2,0 0,-11 -1,0 -1,1 0,0 -1,1 -1,0 -1,1 -1,1 -1,0 -1,1 0,1 -1,1 -2,0 -1,1 -1,1 -1,0 -1,1 -1,1 -1,0 -1,1 0,1 -1,1 -2,0 -1,1 -1,1 -1,0 -1,1 -1,1 -1,0 -1,1 -1,1 -1,0 -1,1 0,1 -1,1 -2,0 -1,1 -1,1 -1,0 -1,1 -1,1 -1,0 -1,1 -1,1 -1,0 -1,1 0,1 -1,1 -2,0 -1,1 -1,1 -1,0 -1,1 -1,1 -1,0 -1,1 -1,1 -1,0 -1,1 -1,0 -1,1 -1,0 -1,1 -1,1 -1,0 -1,1 -2,0 0,1 -1,1 -1,1 -1,0 -1,1 -1,1 -2,0 -1,-1 -1,1 -2,0 -1,1 -2,0 -1,1 -2,0 -1,1 -2,0 -1,1 -2,0 -1,1 -3,0 -1,1 -3,0 -1,1 -2,0 -1,1 -3,0 -1,1 -4,0 -1,1 -9,0 -1,1 -3,0 -1,1 -4,0 -1,1 -3,0 -1,1 -4,0 -1,1 -3,0 -1,1 -4,0 -1,1 -3,0 -1,1 -4,0 0,1 -1,1 -3,0 -1,1 -3,0 -1,-1 -1,0 -1,1 -4,0 -1,1 -4,0 -1,1 -4,0 -1,-1 -1,-1 -2,0 -1,-1 -1,1 -3,0 -1,1 -3,0 -1,1 -4,0 -1,1 -8,0 3,1 0,2 -2,2 -5,0 -1,1 -3,0 -1,1 -4,0 -1,1 -3,0 -1,1 -3,0 -1,1 -3,0 -1,1 -3,0 -1,1 -3,0 -1,1 -2,0 -1,1 -2,0 -1,1 -3,0 -1,1 -4,0Z"/>
<path onmouseover="hoverPath(evt)" onmouseout="recoverPath(evt)" fill="rgb(242,241,232)" d="M  41,147l -3,0 -1,1 -2,0 -1,1 -2,0 -1,1 -4,0 -1,1 -2,0 0,4 -1,1 4,0 1,1 0,-3 1,-1 3,0 1,-1 4,0 1,-1 8,0 1,1 19,0 1,1 4,0 1,1 1,0 1,-1 2,0 1,1 1,0 1,1 1,0 1,1 1,1 1,0 1,1 1,1 1,1 1,0 1,1 1,1 1,1 1,0 1,1 1,1 0,2 1,1 1,1 1,-1 2,0 1,1 1,1 0,2 1,1 1,1 1,1 1,-1 2,0 1,-1 0,-1 1,-1 0,-1 1,-1 1,0 1,-1 0,-1 1,-1 1,-1 0,-1 1,-1 1,-1 0,-1 1,-1 1,-1 0,-1 1,-1 1,-1 0,-1 2,-2 0,-1 1,-1 0,-1 1,-1 1,-1 0,-1 1,-1 0,-1 1,-1 0,-1 1,-1 1,-1 0,-1 1,-1 0,-1 2,-2 0,-1 1,-1 0,-1 2,-2 0,-1 1,-1 1,-1 0,-1 1,-1 0,-1 1,-1 1,-1 0,-1 1,-1 0,-1 1,-1 1,-1 0,-1 1,-1 1,-1 0,-1 1,-1 0,-1 1,-1 1,-1 0,-1 1,-1 0,-1 1,-1 1,-1 0,-1 1,-1 1,-1 0,-1 1,-1 1,-1 0,-1 1,-1 0,-1 1,-1 0,-1 1,-1 0,-1 1,-1 1,-1 0,-1 1,-1 0,-1 1,-1 1,-1 0,-1 1,-1 0,-1 1,-1 1,-1 0,-1 1,-1 1,-1 0,-1 1,-1 1,-1 0,-1 1,-1 1,-1 0,-1 1,-1 0,-1 1,-1 0,-1 1,-1 0,-2 1,-1 0,-1 -1,-1 -6,0 -1,1 0,1 -1,1 -1,0 -2,2 0,1 -1,1 0,1 -1,1 -2,0 -1,-1 0,-2 -1,0 -1,1 -3,0 -1,-1 0,-2 1,-1 1,0 2,-2 1,0 1,-1 1,-1 1,-1 1,0 1,-1 0,-1 1,-1 0,-4 -1,-1 0,1 -1,1 -1,0 -1,1 -1,0 -1,1 -1,0 -1,1 -2,0 -1,1 -1,0 -1,1 0,1 -1,1 0,1 -1,1 0,1 -1,1 0,2 -1,1 0,2 1,1 0,2 2,0 1,1 0,2 -1,1 0,2 1,1 0,2 1,1 0,3 1,1 0,5 -1,1 0,1 -1,1 0,1 -1,1 -1,1 0,1 -1,1 -1,1 0,1 -1,1 -1,1 -1,1 0,1 -2,2 0,1 -2,2 -1,1 0,1 -1,1 -1,1 0,1 -1,1 -1,1 -1,1 0,1 -2,2 0,1 -1,1 -1,1 0,1 -1,1 0,1 -1,1 0,1 -1,1 0,1 -1,1 0,1 -1,1 0,1 -1,1 0,1 -1,1 0,1 -1,1 0,1 -1,1 0,1 -1,1 0,1 -1,1 0,1 -1,1 0,1 -1,1 0,2 -1,1 0,1 -1,1 -1,1 0,1 -1,1 -1,1 -2,0 -1,1 -8,0 -1,-1 -1,0 -1,-1 -1,0 -1,-1 -2,0 -1,-1 -1,0 -1,-1 -1,0 -1,-1 -1,0 -1,-1 -1,-1 -1,0 -1,-1 -1,0 -1,-1 -1,0 -1,-1 -1,-1 -1,0 -1,-1 -1,0 -1,-1 -1,-1 -1,0 -1,-1 -1,0 -1,-1 -3,0 -1,1 -7,0 -1,1 -7,0 -1,1 -4,0 -1,1 -2,0 -1,1Z"/>
<path onmouseover="hoverPath(evt)" onmouseout="recoverPath(evt)" fill="rgb(243,242,233)" d="M  98,194l 0,0 -1,1 -1,1 -1,1 0,1 -1,1 1,1 0,1 1,1 1,1 0,3 -1,1 0,1 1,1 0,3 1,0 0,-1 1,-1 4,0 1,-1 3,0 1,-1 4,0 1,-1 3,0 1,-1 4,0 1,-1 3,0 1,-1 4,0 1,-1 3,0 1,-1 9,0 1,-1 4,0 1,-1 3,0 1,-1 2,0 1,-1 3,0 1,-1 3,0 1,-1 2,0 1,-1 2,0 1,-1 2,0 1,-1 2,0 1,-1 2,0 1,-1 2,0 1,1 1,-1 1,-1 1,0 1,-1 -1,-1 0,-2 -1,-1 0,-4 -1,-1 0,-6 -1,-1 0,3 -1,1 -1,1 -2,0 -1,1 -1,0 -1,1 -3,0 -1,1 -1,0 -1,1 -2,0 -1,1 -3,0 -1,1 -2,0 0,2 -1,1 -3,0 -1,-1 -1,0 -1,1 -3,0 -1,1 -2,0 -1,1 -2,0 -1,1 -3,0 -1,1 -3,0 -1,1 -4,0 -1,1 -3,0 -1,1 -6,0 -1,-1 -1,-1 0,-7 1,-1 0,-1 1,-1 1,-1 0,-1 1,-1 1,0 1,-1 0,-1 1,-1 1,-1 -1,-1 0,-2 1,-1 2,0 1,1 11,0 1,-1 -10,0 -1,-1 0,-2 -1,-1 0,-2 1,-1 2,0 1,-1 -1,-1 0,-2 1,-1 1,-1 0,-1 1,-1 0,-1 1,-1 0,-1 -1,0 -1,-1 -1,0 -1,-1 -1,0 -1,-1 -1,1 0,1 -1,1 -1,1 0,1 -1,1 0,1 -1,1 -1,1 0,1 -1,1 -1,1 0,1 -1,1 -1,1 0,1 -1,1 -1,1 0,1 -1,1 -1,1 0,2 -1,1 -1,0 -1,1 -1,1 0,2 -1,1 -1,0 0,1 -1,1 -1,1 -1,0 -1,1 0,1 -1,1 -1,1 -1,1 -1,1 0,2 -1,1 -1,1 -1,0 -1,1 -1,1Z"/>
<path onmouseover="hoverPath(evt)" onmouseout="recoverPath(evt)" fill="rgb(242,240,230)" d="M  33,155l -3,0 0,2 1,1 0,1 1,1 2,2 2,0 1,1 0,2 3,0 1,1 15,0 1,1 6,0 1,1 2,0 1,-1 2,0 1,1 1,0 1,1 1,0 1,1 1,1 1,0 2,2 1,1 1,0 1,1 1,1 0,2 1,1 1,1 0,1 2,0 1,1 2,2 1,-1 2,0 1,1 1,1 1,0 1,-1 1,0 1,-1 1,-1 1,-1 1,-1 1,-1 0,-2 -1,-1 0,0 -1,-1 -1,-1 -1,-1 -1,0 -1,-1 -1,-1 -1,0 -1,-1 -1,-1 -1,-1 -1,0 -1,-1 -1,-1 0,-2 -1,-1 -1,-1 -1,0 -1,-1 -1,-1 -1,-1 -1,0 -1,-1 -1,-1 -1,1 -2,0 -1,-1 -1,0 -1,-1 -2,0 -1,-1 -4,0 -1,-1 -19,0 -1,-1 -6,0 -1,1 -4,0 -1,1Z"/>
<path onmouseover="hoverPath(evt)" onmouseout="recoverPath(evt)" fill="rgb(254,254,254)" d="M  169,148l 1,0 1,1 0,2 1,1 0,-3 1,-1 13,0 1,-1 -14,0 -1,-1 0,-13 1,-1 2,-2 -2,0 -1,-1 0,-13 1,-1 1,0 1,-1 -2,0 -1,-1 0,-10 -1,4 0,22 -1,1 -12,0 0,1 13,0 1,1 -3,16Z"/>
<path onmouseover="hoverPath(evt)" onmouseout="recoverPath(evt)" fill="rgb(254,254,254)" d="M  209,236l -1,0 0,2 1,-1 1,0 1,-1 2,0 1,-1 1,0 1,-1 2,0 1,-1 2,0 1,-1 1,0 1,-1 2,0 1,-1 1,0 1,-1 2,0 1,-1 2,0 1,-1 1,0 1,-1 2,0 1,-1 2,0 1,-1 1,0 1,-1 2,0 1,-1 1,0 1,-1 2,0 1,-1 2,0 0,-1 -3,0 -1,1 -1,0 -1,1 -2,0 -1,1 -2,0 -1,1 -1,0 -1,1 -2,0 -1,1 -1,0 -1,1 -2,0 -1,1 -2,0 -1,1 -1,0 -1,1 -2,0 -1,1 -2,0 -1,1 -1,0 -1,1 -2,0 -1,1 -1,0 -1,1 -2,0 -1,1 -2,0 -1,1Z"/>
<path onmouseover="hoverPath(evt)" onmouseout="recoverPath(evt)" fill="rgb(183,211,147)" d="M  6,117l 0,24 1,1 0,1 2,2 1,1 1,1 1,0 1,1 1,0 1,1 3,0 1,1 3,0 1,-1 2,0 1,-1 4,0 1,-1 2,0 1,-1 2,0 1,-1 3,0 1,-1 2,0 1,-1 4,0 1,-1 7,0 1,-1 7,0 1,-1 5,0 1,1 1,0 1,1 1,0 1,1 1,1 1,0 1,1 1,0 1,1 1,1 1,0 1,1 1,0 1,1 1,0 1,1 1,1 1,0 1,1 1,0 1,1 1,0 1,1 2,0 1,1 1,0 1,1 1,0 1,1 6,0 1,-1 2,0 1,-1 0,-1 1,-1 1,-1 0,-1 1,-1 0,-2 1,-1 0,-1 1,-1 0,-1 1,-1 0,-1 1,-1 0,-1 1,-1 0,-1 1,-1 0,-1 1,-1 0,-1 1,-1 0,-1 1,-1 0,-1 1,-1 0,-1 1,-1 0,-1 1,-1 0,-1 1,-1 0,-1 1,-1 1,-1 0,-1 1,-1 1,-1 0,-1 1,-1 2,-2 0,-1 2,-2 0,-1 2,-2 1,-1 0,-1 1,-1 1,-1 0,-1 1,-1 1,-1 1,-1 0,-1 1,-1 1,-1 0,-1 1,-1 1,-1 0,-1 1,-1 0,-1 1,-1 0,-3 -1,-1 0,-3 -1,-1 0,-2 -1,-1 0,-4 1,-1 -2,0 -1,-1 0,-2 -1,-1 0,-4 1,-1 0,-2 1,-1 0,-1 1,-1 0,-1 1,-1 0,-1 1,-1 1,-1 1,0 1,-1 2,0 1,-1 1,0 1,-1 1,0 1,-1 1,0 0,-1 1,-1 1,0 0,-6 -1,0 -1,-1 0,-3 -1,-1 -1,-1 0,-2 -1,-1 0,-5 -1,-1 0,-5 -1,-1 0,-5 -1,-1 0,-8 -1,-1 0,-6 -153,0 0,98 2,0 1,1 0,4 1,1 0,4 1,1 0,7 1,1Z"/>
<path onmouseover="hoverPath(evt)" onmouseout="recoverPath(evt)" fill="rgb(243,242,234)" d="M  17,157l 0,0 1,-1 1,0 1,-1 1,0 1,-1 0,-2 -4,0 -1,-1 -3,0 -1,-1 -1,0 -1,-1 -1,0 -1,-1 -1,-1 -1,-1 -1,-1 -1,-1 0,-1 -1,-1 0,-24 -1,-1 0,-7 -1,-1 0,-4 -1,-1 0,-4 -1,0 0,71 1,0 1,-1 6,0 1,1 9,0 1,1 0,-3 -1,-1 0,-4 -1,-1 0,-2 1,-1 -1,-1Z"/>
<path onmouseover="hoverPath(evt)" onmouseout="recoverPath(evt)" fill="rgb(243,241,233)" d="M  170,239l 0,3 -1,1 0,1 1,1 0,2 1,1 0,2 1,1 0,4 31,0 0,-4 -1,-1 0,-2 -1,-1 0,-3 -1,-1 0,-1 -1,-1 0,-1 -1,-1 0,-5 -1,-1 0,-2 -1,-1 0,-1 -1,-1 0,-2 1,-1 0,-1 -1,-1 0,-2 -2,0 -1,-1 0,-2 1,-1 0,-1 -2,0 -1,-1 0,-1 -1,-1 0,-1 -1,-1 0,-2 -1,-1 0,-1 -1,-1 0,-1 -1,-1 0,-1 -1,0 -1,1 -1,0 -1,1 -2,0 -1,1 -2,0 -1,1 -1,0 -1,1 -3,0 0,4 -1,1 -2,0 -1,1 -1,0 -1,1 -1,0 -1,1 0,1 -1,1 -1,1 -1,0 -1,1 0,1 1,1 0,1 1,1 0,1 1,1 0,1 1,1 0,1 1,1 0,1 1,1 0,1 1,1 0,1 1,1 2,0 1,1 0,1 1,1Z"/>
<path onmouseover="hoverPath(evt)" onmouseout="recoverPath(evt)" fill="rgb(244,243,236)" d="M  5,254l -1,0 0,1 99,0 0,-2 1,-1 0,-7 -1,-1 0,-2 1,-1 0,-1 1,-1 1,-1 0,-1 1,-1 0,-1 1,-1 0,-1 1,-1 1,-1 0,-1 1,-1 1,-1 0,-1 1,-1 1,0 1,-1 2,0 1,1 1,0 0,-2 1,-1 3,0 1,-1 1,0 1,-1 -1,-1 -2,0 -1,1 -4,0 -1,1 -3,0 -1,1 -4,0 -1,1 -3,0 -1,1 -3,0 -1,1 -3,0 -1,1 -2,0 -1,1 -5,0 -1,1 -3,0 -1,1 -2,0 -1,1 -3,0 -1,1 -2,0 -1,1 -1,0 -1,1 -2,0 -1,1 -2,0 -1,1 -2,0 -1,1 -2,0 -1,1 -2,0 -1,1 -2,0 -1,1 -4,0 -1,1 -3,0 -1,1 -3,0 -1,1 -3,0 -1,1 -2,0 -1,1 -3,0 -1,1 -3,0 -1,1 -3,0 -1,1 -2,0 -1,1 -2,0 -1,1 -2,0 -1,1 -1,0 -1,1 -2,0 -1,1 -1,0 -1,1Z"/>
<path onmouseover="hoverPath(evt)" onmouseout="recoverPath(evt)" fill="rgb(244,243,235)" d="M  0,175l 0,57 3,0 1,-1 3,0 1,-1 2,0 1,-1 2,0 1,-1 3,0 1,-1 3,0 1,-1 3,0 1,-1 3,0 1,-1 3,0 1,-1 4,0 1,-1 3,0 1,-1 5,0 1,-1 -2,0 -1,-1 0,-2 -1,-1 -1,-1 0,-1 -2,0 -1,-1 0,-2 -1,-1 0,-4 -1,-1 0,-1 -1,-1 0,-3 1,-1 -1,-1 0,-1 -1,-1 -1,-1 -1,-1 -1,-1 -1,0 -1,-1 -1,1 -2,0 -1,-1 -1,0 -1,-1 -2,0 -1,-1 0,-1 -1,-1 -1,-1 0,-1 -1,-1 0,-2 -1,-1 0,-3 -1,-1 0,-4 -1,-1 -9,0 -1,-1 -4,0 -1,1 -2,0Z"/>
<path onmouseover="hoverPath(evt)" onmouseout="recoverPath(evt)" fill="rgb(244,242,234)" d="M  115,228l -1,0 0,1 -1,1 -1,1 0,1 -1,1 -1,1 0,1 -1,1 1,1 0,2 -1,1 -2,0 -1,1 0,1 -1,1 1,1 0,9 -1,1 0,1 65,0 0,-3 -1,-1 0,-2 -1,-1 0,-2 -1,-1 0,-3 1,-1 0,-1 -1,-1 0,-1 -2,0 -1,-1 -1,-1 0,-1 -1,-1 0,-1 -1,-1 0,-1 -1,-1 0,-1 -1,-1 0,-1 -1,-1 0,-1 -1,-1 0,-1 -1,-1 0,-3 1,-1 1,-1 1,0 1,-1 0,-1 1,-1 1,-1 1,0 1,-1 1,0 1,-1 2,0 0,-2 -1,0 -1,1 -2,0 -1,1 -3,0 -1,1 -3,0 -1,1 -2,0 -1,1 -3,0 -1,1 -3,0 -1,1 -3,0 -1,1 -4,0 -1,1 -8,0 0,1 1,1 0,2 -1,1 -1,1 -1,0 -1,1 -3,0 0,2 -1,1 -3,0 -1,-1 -1,1Z"/>
<path onmouseover="hoverPath(evt)" onmouseout="recoverPath(evt)" fill="rgb(244,243,235)" d="M  194,199l 0,0 1,1 0,2 1,1 0,1 1,1 0,2 1,1 0,1 1,1 0,1 1,1 0,2 1,1 0,1 1,1 0,2 1,1 0,1 1,1 0,2 1,1 0,1 1,1 0,2 1,1 0,2 1,1 0,1 1,-1 2,0 1,-1 2,0 1,-1 1,0 1,-1 2,0 1,-1 1,0 1,-1 2,0 1,-1 2,0 1,-1 1,0 1,-1 2,0 1,-1 2,0 1,-1 1,0 1,-1 2,0 1,-1 1,0 1,-1 2,0 1,-1 2,0 1,-1 1,0 1,-1 4,0 0,-58 -1,0 -2,2 -2,0 0,1 -1,1 -1,1 -1,0 -1,1 -1,1 -1,0 -1,1 -1,1 -2,0 0,1 -1,1 -1,1 -1,0 -1,1 -1,1 -1,0 -1,1 -1,1 -1,0 -1,1 -1,1 -2,0 0,1 -1,1 -1,1 -1,0 -1,1 -1,1 -1,1 -3,0 0,2 -1,1 -1,0 -1,1 -2,0 0,1 -1,1 -1,0 -1,1 -1,1 -1,0 -1,1 -1,0 -1,1 -1,1 -1,0 -1,1 -1,0 -1,1 -1,1 -1,0 -1,1 -2,0 -1,1Z"/>
</svg>