<svg width="256" height="256" xmlns="http://www.w3.org/2000/svg"><script> 
var tempColor;
function hoverPath(evt){
obj = evt.target;
tempColor = obj.getAttribute("fill");
obj.setAttribute("fill","red");
//alert(tempColor);
//obj.setAttribute("stroke","red");}
function recoverPath(evt){
obj = evt.target;
obj.setAttribute("fill", tempColor);
//obj.setAttribute("stroke", tempColor);
}</script><path onmouseover="hoverPath(evt)" onmouseout="recoverPath(evt)" fill="rgb(244,243,235)" d="M  33,224l -1,0 0,3 1,1 0,2 1,1 0,3 1,1 0,2 1,1 0,3 1,1 0,2 1,1 0,3 1,1 0,1 1,1 0,4 162,0 0,-3 -1,-1 0,-2 -1,-1 0,-3 -1,-1 0,-2 -1,-1 0,-3 -1,-1 0,-2 -1,-1 0,-3 -1,-1 0,-2 -1,-1 0,-3 -1,-1 0,-2 -1,-1 0,-3 -1,-1 0,-1 -3,0 -1,1 -3,0 -1,1 -3,0 -1,1 -4,0 -1,1 -3,0 -1,1 -3,0 -1,1 -2,0 -1,1 -4,0 -1,1 -3,0 -1,1 -3,0 -1,1 -4,0 -1,1 -3,0 -1,1 -2,0 -1,1 -4,0 -1,1 -7,0 -1,-1 0,-2 1,-1 3,0 1,-1 1,0 0,-3 -1,-1 0,-3 -1,-1 0,-3 -1,-1 0,-3 -1,-1 0,-3 -1,-1 0,-3 -1,-1 0,-3 -1,-1 0,-3 -1,-1 0,-1 -2,0 -1,1 -1,0 -1,1 -2,0 -1,1 -2,0 -1,1 -1,0 -1,1 -2,0 -1,1 -2,0 -1,1 -2,0 -1,1 -1,0 -1,1 -2,0 -1,1 -2,0 -1,1 -2,0 -1,1 -1,0 -1,1 -2,0 -1,1 -2,0 -1,1 -2,0 -1,1 -1,0 -1,1 -2,0 -1,1 -2,0 -1,1 -1,0 -1,1 -2,0 -1,1 -2,0 -1,1 -2,0 -1,1 -1,0 -1,1 -2,0 -1,1 -2,0 -1,1 -2,0 -1,1 -1,0 -1,1 -2,0 -1,1 -2,0 -1,1 -1,0 -1,1 -2,0 -1,1 -2,0 -1,1Z"/>
<path onmouseover="hoverPath(evt)" onmouseout="recoverPath(evt)" fill="rgb(248,236,138)" d="M  130,0l -1,0 0,4 1,1 0,2 1,1 0,2 1,1 0,3 1,1 0,2 1,0 1,1 0,3 1,0 1,1 0,1 1,1 0,3 1,1 0,4 -1,1 0,3 2,0 1,1 0,3 1,1 0,3 1,1 0,1 1,1 0,3 -1,1 0,1 1,1 0,3 1,1 0,2 1,1 0,3 1,1 0,3 1,1 0,3 1,1 0,3 1,1 0,3 1,1 0,2 1,1 0,3 1,1 0,3 1,1 0,3 1,1 0,2 1,1 0,2 1,1 0,1 2,0 1,-1 3,0 0,-2 1,-1 -1,-1 0,-2 -1,-1 0,-2 -1,-1 0,-3 -1,-1 0,-3 -1,-1 0,-3 -1,-1 0,-3 -1,-1 0,-2 -1,-1 0,-3 -1,-1 0,-3 -1,-1 0,-3 -1,-1 0,-3 -1,-1 0,-2 -1,-1 0,-2 -1,-1 0,-3 -1,0 -1,-1 0,-1 -1,-1 0,-3 -1,-1 0,-8 -1,-1 0,-2 -1,-1 0,-3 -1,-1 0,-3 -1,0 -1,-1 0,-5 -1,0 -1,-1 0,-3 1,-1 3,0 -4,-1 0,-1 -1,-1 0,-2 -1,-1 0,-4Z"/>
<path onmouseover="hoverPath(evt)" onmouseout="recoverPath(evt)" fill="rgb(243,242,233)" d="M  143,17l 0,2 1,0 1,1 0,3 1,1 0,3 1,1 0,2 1,1 0,3 1,-1 4,0 1,-1 2,0 0,-4 -1,-1 0,-2 -1,-1 0,-2 -1,-1 0,-2 -1,-1 0,-2 -1,-1 0,-1 -4,0 -1,1 -3,0Z"/>
<path onmouseover="hoverPath(evt)" onmouseout="recoverPath(evt)" fill="rgb(243,242,233)" d="M  0,90l 0,46 2,0 1,-1 3,0 1,-1 4,0 1,-1 3,0 1,-1 3,0 1,-1 0,-4 -1,-1 0,-2 -1,-1 0,-2 -1,-1 0,-2 -1,-1 0,-4 1,-1 0,-1 -1,-1 0,-2 -1,-1 0,-3 -1,-1 0,-2 -2,0 -1,-1 0,-1 -1,-1 0,-2 -1,-1 0,-3 -1,-1 0,-1 -1,-1 0,-1 -1,-1 -1,1 -5,0Z"/>
<path onmouseover="hoverPath(evt)" onmouseout="recoverPath(evt)" fill="rgb(228,232,229)" d="M  180,2l 2,0 1,-1 4,0 0,-1 -48,0 0,3 1,1 0,2 1,1 0,1 3,0 1,1 3,0 1,-1 2,0 1,-1 6,0 1,-1 4,0 1,-1 4,0 1,-1 4,0 1,-1 3,0 1,-1Z"/>
<path onmouseover="hoverPath(evt)" onmouseout="recoverPath(evt)" fill="rgb(238,220,190)" d="M  30,131l -1,0 -1,1 -3,0 -1,-1 -1,-1 -1,-1 0,3 -1,1 -1,1 -3,0 3,1 0,1 1,0 1,-1 3,0 1,-1 3,0 1,-1 3,0 1,-1 3,0 1,-1 3,0 1,-1 3,0 1,-1 3,0 1,-1 3,0 1,-1 0,-1 1,-1 3,0 1,-1 -2,0 -1,-1 -3,0 -1,1 -3,0 -1,1 -3,0 0,2 -1,1 -3,0 -1,1 -3,0 -1,1 -3,0 -1,1Z"/>
<path onmouseover="hoverPath(evt)" onmouseout="recoverPath(evt)" fill="rgb(243,242,234)" d="M  0,12l 0,20 8,0 1,-1 5,0 1,-1 5,0 1,-1 4,0 1,-1 4,0 1,-1 5,0 1,-1 4,0 1,-1 4,0 1,-1 5,0 1,-1 8,0 1,-1 9,0 1,1 3,0 1,1 1,0 1,1 0,-1 1,-1 1,0 1,-1 4,0 0,-2 1,-1 4,0 1,-1 8,0 1,1 5,0 1,-1 6,0 1,-1 6,0 1,-1 9,0 1,1 1,1 0,-2 -1,-1 0,-3 -1,-1 0,-2 -1,-1 0,-2 -1,-1 0,-5 -93,0 0,1 -1,1 -2,0 -1,1 -2,0 -1,1 -3,0 -1,1 -2,0 -1,1 -2,0 -1,1 -3,0 -1,1 -2,0 -1,1 -3,0 -1,1 -2,0 -1,1 -2,0 -1,1 131,7 0,4 1,1 0,3 1,1 0,-1 -1,-4 0,-1 1,-1 0,-2 -2,0 -131,-7Z"/>
<path onmouseover="hoverPath(evt)" onmouseout="recoverPath(evt)" fill="rgb(244,243,235)" d="M  0,76l 0,10 4,0 1,-1 2,0 1,1 1,1 0,1 1,1 0,1 1,1 0,3 1,1 0,2 1,1 0,1 2,0 1,1 0,2 1,1 0,3 1,1 0,2 1,1 0,3 -1,1 0,2 1,1 0,2 1,1 0,2 1,1 0,2 2,0 1,1 0,2 1,1 1,1 1,0 1,-1 3,0 1,-1 3,0 1,-1 3,0 1,-1 3,0 0,-2 1,-1 3,0 1,-1 3,0 1,-1 5,0 1,1 2,0 1,-1 3,0 1,-1 3,0 1,-1 3,0 1,-1 3,0 1,-1 3,0 1,-1 3,0 1,-1 3,0 0,-2 1,-1 3,0 1,-1 4,0 1,1 1,0 0,-3 -1,-1 0,-2 -1,-1 0,-2 -1,-1 0,-2 -1,-1 0,-4 -1,-1 0,-5 1,-1 3,0 1,1 0,3 1,1 0,3 1,1 0,3 1,1 0,2 1,1 0,2 1,1 0,2 1,1 5,0 1,1 0,2 4,0 -1,-1 0,-2 1,-1 3,0 1,-1 3,0 1,-1 3,0 1,-1 3,0 1,-1 3,0 1,-1 3,0 1,-1 3,0 1,-1 3,0 1,-1 3,0 1,-1 3,0 0,-1 -1,-1 0,-2 -1,-1 0,-3 -1,-1 0,-3 -1,-1 0,-3 -1,-1 0,-2 -1,-1 0,-3 -1,-1 0,-3 -1,-1 0,-3 -1,-1 0,-3 -1,-1 0,-3 -1,-1 0,-2 -1,-1 0,-3 -1,-1 0,-2 -1,-1 -5,0 -1,1 -4,0 -1,1 -4,0 -1,1 -4,0 -1,1 -4,0 -1,1 -5,0 -1,1 -4,0 -1,1 -4,0 -1,1 -4,0 -1,1 -5,0 -1,1 -4,0 -1,1 -5,0 -1,1 -4,0 -1,1 -5,0 -1,1 -5,0 -1,1 -4,0 -1,1 -5,0 -1,1 -4,0 -1,1 -5,0 -1,1 -4,0 -1,1 -4,0 -1,1 -4,0 -1,1 -5,0 -1,1 -3,0 -1,1 -4,0 -1,1 -6,0 -1,1Z"/>
<path onmouseover="hoverPath(evt)" onmouseout="recoverPath(evt)" fill="rgb(251,251,249)" d="M  143,12l -2,0 0,1 4,0 1,-1 6,0 1,-1 4,0 1,-1 2,0 1,-1 3,0 1,-1 4,0 1,-1 4,0 1,-1 4,0 1,-1 3,0 1,-1 4,0 1,-1 5,0 1,-1 4,0 1,-1 4,0 1,1 3,0 1,-1 4,0 0,-1 -24,0 0,2 -1,1 -4,0 -1,1 -4,0 -1,1 -3,0 -1,1 -4,0 -1,1 -4,0 -1,1 -4,0 -1,1 -6,0 -1,1 -2,0 -1,1 -4,0 -1,1Z"/>
<path onmouseover="hoverPath(evt)" onmouseout="recoverPath(evt)" fill="rgb(171,198,237)" d="M  148,36l 0,3 1,1 0,3 1,1 0,1 2,0 1,-1 4,0 1,-1 4,0 1,1 1,1 0,1 1,1 0,2 1,1 0,2 1,1 0,1 1,1 0,2 1,1 0,2 1,1 0,2 1,1 0,2 1,1 0,2 1,1 0,2 1,1 0,3 1,1 0,2 1,1 0,2 1,1 0,2 1,1 0,2 1,1 0,2 1,1 0,3 1,-1 3,0 -1,-1 0,-1 -1,-1 0,-3 -1,-1 0,-2 -1,-1 0,-2 -1,-1 0,-2 -1,-1 0,-3 -1,-1 0,-2 -1,-1 0,-2 -1,-1 0,-3 -1,-1 0,-2 -1,-1 0,-2 -1,-1 0,-1 -1,-1 0,-2 -1,-1 0,-2 -1,-1 0,-1 -1,-1 0,-4 1,-1 1,-1 1,-1 3,0 1,-1 4,0 1,-1 4,0 1,-1 4,0 1,-1 5,0 1,-1 4,0 1,-1 4,0 1,-1 4,0 1,-1 5,0 1,-1 4,0 1,-1 4,0 1,-1 4,0 1,-1 5,0 1,-1 4,0 1,-1 4,0 1,-1 4,0 1,-1 2,0 0,-8 -5,0 -1,1 -4,0 -1,1 -5,0 -1,1 -4,0 -1,1 -5,0 -1,1 -4,0 -1,1 -5,0 -1,1 -5,0 -1,1 -4,0 -1,1 -5,0 -1,1 -4,0 -1,1 -5,0 -1,1 -4,0 -1,1 -5,0 -1,1 -4,0 -1,1 -7,0 -1,-1 0,-1 -1,-1 0,-1 -1,-1 0,-2 -1,-1 0,-2 -1,-1 0,-2 -1,-1 0,-2 -1,-1 0,-1 -1,-1 -3,0 -1,1 1,1 0,2 1,1 0,2 1,1 0,2 1,1 0,2 1,1 0,6 -1,1 -2,0 -1,1 -4,0 -1,1Z"/>
<path onmouseover="hoverPath(evt)" onmouseout="recoverPath(evt)" fill="rgb(245,233,140)" d="M  163,117l 0,0 1,1 0,1 1,1 0,2 1,1 0,1 1,1 0,2 1,1 0,1 1,1 0,2 1,1 0,2 1,1 0,1 1,1 0,2 1,1 0,2 1,1 0,2 1,1 0,2 1,1 0,3 1,1 0,2 1,1 0,2 1,1 0,2 1,1 0,3 1,1 0,3 1,1 0,2 1,1 0,3 1,1 0,3 1,1 0,3 1,1 0,3 1,1 0,2 1,1 0,3 1,1 0,3 1,1 0,3 1,1 0,4 1,0 1,1 0,5 1,1 0,3 1,1 0,2 1,1 0,3 1,1 0,2 1,1 0,3 1,1 0,2 1,1 0,3 1,1 0,2 1,1 0,3 1,1 0,2 1,1 0,4 6,0 0,-3 -1,-1 0,-3 -1,-1 0,-2 -1,-1 0,-3 -1,-1 0,-2 -1,-1 0,-3 -1,-1 0,-2 -1,-1 0,-3 -1,-1 0,-2 -1,-1 0,-3 -1,-1 0,-2 -1,-1 0,-4 -1,-1 0,-2 -1,-1 0,-2 -1,-1 0,-3 -1,-1 0,-3 -1,-1 0,-3 -1,-1 0,-3 -1,-1 0,-2 -1,-1 0,-3 -1,-1 0,-3 -1,-1 0,-3 -1,-1 0,-3 -1,-1 0,-2 -1,-1 0,-6 1,-1 -2,0 -1,-1 -1,-1 0,-5 -1,-1 -1,-1 0,-2 -1,-1 0,-3 -1,-1 -1,0 -1,-1 0,-2 -1,-1 0,-3 1,-1 0,-1 -1,-1 0,-2 -1,-1 0,-3 -1,-1 0,-2 -1,-1 0,-1 -2,0 -1,-1 -1,-1 0,-2 1,-1 -1,-1 0,-3 -1,0 -1,-1 -2,0 -1,1 -3,0 -1,1 -3,0 1,1 4,0 1,1Z"/>
<path onmouseover="hoverPath(evt)" onmouseout="recoverPath(evt)" fill="rgb(244,243,236)" d="M  171,44l -1,1 0,2 1,1 0,1 1,1 0,2 1,1 0,2 1,1 0,1 1,1 0,2 1,1 0,2 1,1 0,3 1,1 0,2 1,1 0,2 1,1 0,3 1,1 0,2 1,1 0,2 1,1 0,2 1,1 0,3 1,1 0,1 3,0 1,-1 3,0 1,-1 4,0 1,-1 3,0 1,-1 2,0 1,1 1,-1 2,0 1,-1 1,0 1,-1 3,0 1,-1 6,0 1,-1 1,0 0,-2 1,-1 0,-2 -1,-1 0,-3 -1,-1 0,-4 -1,-1 0,-3 -1,-1 0,-6 1,-1 3,0 1,1 0,3 1,1 0,4 1,1 0,4 1,1 0,2 1,1 0,3 1,1 0,2 4,0 1,-1 1,0 1,-1 3,0 1,-1 3,0 1,-1 4,0 1,-1 5,0 0,-50 -1,0 -1,1 -4,0 -1,1 -4,0 -1,1 -4,0 -1,1 -5,0 -1,1 -4,0 -1,1 -4,0 -1,1 -4,0 -1,1 -5,0 -1,1 -4,0 -1,1 -4,0 -1,1 -4,0 -1,1 -5,0 -1,1 -4,0 -1,1 -4,0 -1,1 -4,0 -1,1 -3,0 -1,1Z"/>
<path onmouseover="hoverPath(evt)" onmouseout="recoverPath(evt)" fill="rgb(243,242,234)" d="M  188,164l 0,2 1,1 0,2 1,1 0,3 1,1 0,3 1,1 0,3 1,1 0,3 1,1 0,2 1,1 0,3 1,1 0,3 1,1 0,3 1,1 0,3 1,1 0,2 1,1 0,2 1,1 0,4 1,1 0,2 1,1 0,3 1,1 0,2 1,1 0,3 1,1 0,2 1,1 0,3 1,1 0,2 1,1 0,3 1,1 0,2 1,1 0,3 1,1 0,4 14,0 0,-2 -1,-1 0,-2 -1,-1 0,-3 -1,-1 0,-3 -1,-1 0,-3 -1,-1 0,-3 -1,-1 0,-2 -1,-1 0,-3 -1,-1 0,-3 -1,-1 0,-2 -1,-1 0,-3 -1,-1 0,-3 -1,-1 0,-2 -1,-1 0,-3 -1,-1 0,-2 -1,-1 0,-3 -1,-1 0,-2 -1,-1 0,-3 -1,-1 0,-2 -1,-1 0,-2 -1,-1 0,-2 -1,-1 0,-2 -1,-1 0,-2 -1,-1 0,-3 -1,-1 0,-2 -1,-1 0,-2 -1,-1 0,-2 -1,-1 0,-2 -1,-1 0,-2 -1,-1 0,-1 -1,-1 0,-1 -3,0 -1,-1 0,-2 1,-1 0,-4 -1,-1 0,-2 -1,-1 0,-2 -1,-1 0,-2 -1,-1 0,-2 -1,-1 0,-3 -1,-1 0,-2 -1,-1 0,-2 -1,-1 0,-2 -1,-1 0,-2 -5,0 -1,-1 0,-2 1,-1 3,0 -1,-1 0,-1 -1,1 -2,0 -1,1 -5,0 -1,-1 -2,0 2,1 0,3 1,1 0,2 -1,1 1,1 2,0 1,1 0,1 1,1 0,2 1,1 0,3 1,1 0,2 1,1 0,3 -1,1 0,1 1,1 0,2 1,0 1,1 1,1 0,3 1,1 0,2 1,1 1,1 0,5 1,1 2,0 1,1 0,2 -1,1Z"/>
<path onmouseover="hoverPath(evt)" onmouseout="recoverPath(evt)" fill="rgb(242,242,232)" d="M  0,237l 0,18 30,0 0,-2 1,-1 2,0 0,-4 -1,-1 0,-3 -1,-1 0,-2 -1,-1 0,-3 -1,-1 0,-3 -1,-1 0,-2 -1,-1 0,-2 -1,-1 -1,0 -1,1 -1,0 -1,1 -2,0 -1,1 -2,0 -1,1 -2,0 -1,1 -1,0 -1,1 -2,0 -1,1 -2,0 -1,1 -2,0 -1,1 -2,0Z"/>
<path onmouseover="hoverPath(evt)" onmouseout="recoverPath(evt)" fill="rgb(244,243,234)" d="M  12,157l 0,1 1,1 0,2 1,1 0,2 1,1 0,2 1,1 0,2 1,1 0,3 1,1 0,2 1,1 0,3 1,1 0,3 1,1 0,2 1,1 0,3 1,1 0,3 1,1 0,2 1,1 0,3 1,1 0,2 1,1 0,2 1,1 0,3 1,1 0,2 1,1 0,1 3,0 1,-1 2,0 1,-1 2,0 1,-1 1,0 1,-1 2,0 1,-1 2,0 1,-1 1,0 1,-1 2,0 1,-1 2,0 1,-1 2,0 1,-1 1,0 1,-1 2,0 1,-1 2,0 1,-1 1,0 1,-1 2,0 1,-1 2,0 1,-1 2,0 1,-1 1,0 1,-1 2,0 1,-1 2,0 1,-1 2,0 1,-1 1,0 1,-1 2,0 1,-1 2,0 1,-1 2,0 1,-1 1,0 1,-1 2,0 1,-1 2,0 1,-1 2,0 1,-1 1,0 1,-1 2,0 1,-1 2,0 1,-1 1,0 1,-1 0,-3 -1,-1 0,-3 -1,-1 0,-2 -1,-1 0,-3 -1,-1 0,-2 -1,-1 0,-3 -1,-1 0,-2 -1,-1 0,-3 -1,-1 0,-2 -1,-1 0,-3 -1,-1 0,-3 -1,-1 0,-2 -1,-1 0,-3 -1,-1 0,-2 -3,0 -1,1 -4,0 -1,-1 -3,0 -1,1 -3,0 0,2 -1,1 -4,0 -1,-1 -3,0 -1,1 -4,0 -1,1 -2,0 0,2 -1,1 -3,0 -1,1 -4,0 -1,-1 -3,0 -1,1 -3,0 -1,1 -3,0 0,2 -1,1 -4,0 -1,-1 -2,0 0,2 -1,1 -1,0 -1,1 -7,0 -1,1 -4,0 -1,1 -3,0 -1,-1 -3,0 -1,1 -4,0 -1,1 -5,0Z"/>
<path onmouseover="hoverPath(evt)" onmouseout="recoverPath(evt)" fill="rgb(244,243,235)" d="M  161,12l -2,0 1,1 0,1 1,1 0,2 1,1 0,2 1,1 0,2 1,1 0,2 1,1 0,1 1,1 0,1 5,0 1,-1 4,0 1,-1 5,0 1,-1 4,0 1,-1 5,0 1,-1 4,0 1,-1 5,0 1,-1 4,0 1,-1 5,0 1,-1 5,0 1,-1 4,0 1,-1 5,0 1,-1 4,0 1,-1 5,0 1,-1 4,0 1,-1 6,0 0,-15 -40,0 0,2 -1,1 -4,0 -1,1 -5,0 -1,-1 -2,0 -1,1 -4,0 -1,1 -5,0 -1,1 -4,0 -1,1 -3,0 -1,1 -4,0 -1,1 -4,0 -1,1 -4,0 -1,1 -3,0 -1,1Z"/>
<path onmouseover="hoverPath(evt)" onmouseout="recoverPath(evt)" fill="rgb(243,242,232)" d="M  0,158l 0,71 2,0 1,-1 2,0 1,-1 2,0 1,-1 2,0 1,-1 1,0 1,-1 2,0 1,-1 2,0 1,-1 2,0 1,-1 1,0 1,-1 -1,-1 0,-3 -1,-1 0,-2 -1,-1 0,-3 -1,-1 0,-2 -1,-1 0,-2 -1,-1 0,-3 -1,-1 0,-3 -1,-1 0,-2 -1,-1 0,-3 -1,-1 0,-3 -1,-1 0,-3 -1,-1 0,-2 -1,-1 0,-2 -1,-1 0,-2 -1,-1 0,-2 -1,-1 0,-3 -1,-1 0,-2 -1,-1 0,-2 -1,-1 0,-2 -6,0Z"/>
<path onmouseover="hoverPath(evt)" onmouseout="recoverPath(evt)" fill="rgb(253,253,253)" d="M  34,254l -2,0 0,1 6,0 0,-3 -1,-1 0,-1 -1,-1 0,-3 -1,-1 0,-2 -1,-1 0,-3 -1,-1 0,-2 -1,-1 0,-3 -1,-1 0,-2 -1,-1 0,-5 1,-1 1,0 1,-1 2,0 1,-1 2,0 1,-1 1,0 1,-1 2,0 1,-1 2,0 1,-1 1,0 1,-1 2,0 1,-1 2,0 1,-1 2,0 1,-1 1,0 1,-1 2,0 1,-1 2,0 1,-1 2,0 1,-1 1,0 1,-1 2,0 1,-1 2,0 1,-1 1,0 1,-1 2,0 1,-1 2,0 1,-1 2,0 1,-1 1,0 1,-1 2,0 1,-1 2,0 1,-1 2,0 1,-1 1,0 1,-1 2,0 1,-1 2,0 1,-1 2,0 1,-1 1,0 1,-1 2,0 1,-1 2,0 1,-1 1,0 1,-1 4,0 1,1 0,1 1,1 0,3 1,1 0,3 1,1 0,3 1,1 0,3 1,1 0,3 1,1 0,3 1,1 0,3 1,1 0,5 -1,1 5,0 1,-1 2,0 1,-1 3,0 1,-1 4,0 1,-1 3,0 1,-1 3,0 1,-1 4,0 1,-1 2,0 1,-1 3,0 1,-1 3,0 1,-1 4,0 1,-1 3,0 1,-1 3,0 1,-1 4,0 0,-2 -1,1 -3,0 -1,1 -3,0 -1,1 -4,0 -1,1 -3,0 -1,1 -3,0 -1,1 -4,0 -1,1 -2,0 -1,1 -3,0 -1,1 -3,0 -1,1 -4,0 -1,1 -3,0 -1,1 -3,0 -1,1 -4,0 -1,-1 -1,-1 0,-3 -1,-1 0,-2 -1,-1 0,-3 -1,-1 0,-3 -1,-1 0,-3 -1,-1 0,-3 -1,-1 0,-3 -1,-1 0,-4 -1,-1 0,-3 -1,-1 0,-2 -1,-1 0,-2 -1,-1 0,-3 -1,-1 0,-2 -1,-1 0,-3 -1,-1 0,-2 -1,-1 0,-3 -1,-1 0,-3 -1,-1 0,-2 -1,-1 0,-3 -1,-1 0,-2 -1,-1 0,-3 -1,-1 0,-2 -1,-1 0,-3 -1,-1 0,-6 1,-1 -3,0 -1,1 0,1 1,1 0,1 1,1 0,2 1,1 0,3 1,1 0,2 1,1 0,3 1,1 0,3 1,1 0,2 1,1 0,3 1,1 0,2 1,1 0,3 1,1 0,2 1,1 0,3 1,1 0,2 1,1 0,3 1,1 0,5 -1,1 -1,1 -1,0 -1,1 -2,0 -1,1 -2,0 -1,1 -1,0 -1,1 -2,0 -1,1 -2,0 -1,1 -2,0 -1,1 -1,0 -1,1 -2,0 -1,1 -2,0 -1,1 -2,0 -1,1 -1,0 -1,1 -2,0 -1,1 -2,0 -1,1 -2,0 -1,1 -1,0 -1,1 -2,0 -1,1 -2,0 -1,1 -2,0 -1,1 -1,0 -1,1 -2,0 -1,1 -2,0 -1,1 -1,0 -1,1 -2,0 -1,1 -2,0 -1,1 -2,0 -1,1 -1,0 -1,1 -2,0 -1,1 -2,0 -1,1 -1,0 -1,1 -2,0 -1,1 -2,0 -1,1 -5,0 -1,-1 0,-1 -1,-1 0,-2 -1,-1 0,-3 -1,-1 0,-2 -1,-1 0,-2 -1,-1 0,-3 -1,-1 0,-2 -1,-1 0,-3 -1,-1 0,-3 -1,-1 0,-2 -1,-1 0,-3 -1,-1 0,-3 -1,-1 0,-2 -1,-1 0,-3 -1,-1 0,-2 -1,-1 0,-2 -1,-1 0,-2 -1,-1 0,-2 -1,-1 0,-4 -2,0 0,1 1,1 0,2 1,1 0,2 1,1 0,3 1,1 0,2 1,1 0,2 1,1 0,2 1,1 0,2 1,1 0,3 1,1 0,3 1,1 0,3 1,1 0,2 1,1 0,3 1,1 0,3 1,1 0,2 1,1 0,2 1,1 0,3 1,1 0,2 1,1 0,3 1,1 0,2 -1,1 -1,1 -1,0 -1,1 -2,0 -1,1 -2,0 -1,1 -2,0 -1,1 -1,0 -1,1 -2,0 -1,1 -2,0 -1,1 -2,0 -1,1 -3,0 0,2 1,0 1,-1 2,0 1,-1 2,0 1,-1 2,0 1,-1 1,0 1,-1 2,0 1,-1 2,0 1,-1 2,0 1,-1 1,0 1,-1 3,0 1,1 1,1 0,2 1,1 0,2 1,1 0,3 1,1 0,3 1,1 0,2 1,1 0,3 1,1 0,6 -1,1 98,-27 -1,-1 0,0 -1,1 2,0 -98,27Z"/>
<path onmouseover="hoverPath(evt)" onmouseout="recoverPath(evt)" fill="rgb(243,229,209)" d="M  83,118l -1,0 -1,1 -3,0 -1,1 -3,0 2,1 0,1 2,0 1,-1 3,0 1,-1 3,0 1,-1 3,0 1,-1 3,0 1,-1 3,0 1,-1 3,0 1,-1 0,-1 1,-1 0,-1 -1,-1 0,0 -1,-1 0,-2 -1,-1 0,-2 -1,-1 0,-2 -1,-1 0,-3 -1,-1 0,-3 -1,-1 0,-3 -1,0 0,3 1,1 0,4 1,1 0,2 1,1 0,2 1,1 0,2 1,1 0,5 -1,1 -3,0 -1,-1 -2,0 -1,1 -3,0 0,2 -1,1 -3,0 -1,1Z"/>
<path onmouseover="hoverPath(evt)" onmouseout="recoverPath(evt)" fill="rgb(241,238,228)" d="M  108,29l 0,-1 1,-1 2,0 1,-1 5,0 0,-1 -1,-1 0,0 -1,-1 0,-1 -9,0 -1,-1 -6,0 -1,-1 -6,0 -1,1 -4,0 0,2 -1,1 -4,0 -1,1 -1,0 0,4 1,1 0,1 6,0 1,1 5,0 1,1 0,1 1,1 1,0 1,1 4,0 1,-1 5,0 1,-1 2,0 -1,-1 0,-1 -1,-1Z"/>
<path onmouseover="hoverPath(evt)" onmouseout="recoverPath(evt)" fill="rgb(244,243,235)" d="M  115,133l 0,0 -1,-1 -1,0 0,4 1,1 0,3 1,1 0,2 1,1 0,3 1,1 0,2 1,1 0,3 1,1 0,2 1,1 0,3 1,1 0,3 1,1 0,2 1,1 0,3 1,1 0,2 1,1 0,3 1,1 0,2 1,1 0,2 1,1 0,3 1,1 0,4 1,1 0,3 1,1 0,3 1,1 0,3 1,1 0,3 1,1 0,3 1,1 0,2 1,1 0,3 1,1 2,0 1,-1 3,0 1,-1 3,0 1,-1 4,0 1,-1 3,0 1,-1 3,0 1,-1 2,0 1,-1 4,0 1,-1 3,0 1,-1 3,0 1,-1 4,0 1,-1 3,0 1,-1 3,0 0,-4 -1,-1 0,-3 -1,-1 0,-3 -1,-1 0,-3 -1,-1 0,-2 -1,-1 0,-3 -1,-1 0,-3 -1,-1 0,-3 -1,-1 0,-3 -1,-1 0,-2 -1,-1 0,-3 -1,-1 0,-3 -1,-1 0,-2 -1,-1 0,-2 -1,-1 0,-2 -1,-1 0,-3 -1,-1 0,-2 -1,-1 0,-2 -1,-1 0,-2 -1,-1 0,-2 -1,-1 0,-1 -1,-1 0,-2 -1,-1 0,-2 -1,-1 0,-1 -1,-1 0,-2 -1,-1 0,-1 -1,-1 0,-2 -1,-1 0,-1 -1,-1 -3,0 -1,1 -4,0 -1,1 -3,0 -1,1 -3,0 -1,1 -4,0 -1,1 -3,0 -1,1 -5,0 -1,1 -3,0 -1,1 -5,0 1,1 0,2 -1,1 -1,1 -1,0 0,1 -1,1Z"/>
<path onmouseover="hoverPath(evt)" onmouseout="recoverPath(evt)" fill="rgb(243,242,234)" d="M  0,39l 0,21 5,0 1,-1 5,0 1,-1 4,0 1,-1 5,0 1,-1 4,0 1,-1 5,0 1,-1 4,0 1,-1 5,0 1,-1 5,0 1,-1 4,0 1,-1 5,0 1,-1 4,0 1,-1 5,0 1,-1 4,0 1,-1 5,0 1,-1 4,0 1,-1 5,0 1,-1 4,0 1,-1 5,0 1,-1 4,0 1,-1 5,0 1,-1 4,0 1,-1 5,0 1,-1 4,0 1,-1 3,0 0,-4 1,-1 0,-2 -1,-1 0,-3 -1,-1 0,-1 -1,0 0,2 1,1 0,5 -1,1 -2,0 -1,-1 0,-2 -1,-1 0,-3 -1,-1 0,-5 -1,-1 -7,0 -1,1 -6,0 -1,1 3,0 1,1 0,1 1,1 1,1 0,3 -1,1 -5,0 -1,1 -2,0 0,1 1,1 0,1 1,1 0,2 -1,1 -2,0 -1,1 -5,0 -1,1 -6,0 -1,-1 -1,0 -1,-1 -1,-1 0,-1 -5,0 -1,-1 -6,0 -1,-1 0,-1 -2,0 -1,-1 0,-4 -1,0 -1,-1 -3,0 -1,-1 -7,0 -1,1 -8,0 -1,1 -5,0 -1,1 -4,0 -1,1 -4,0 -1,1 -5,0 -1,1 -4,0 -1,1 -4,0 -1,1 -5,0 -1,1 -5,0 -1,1 -9,0Z"/>
<path onmouseover="hoverPath(evt)" onmouseout="recoverPath(evt)" fill="rgb(247,202,115)" d="M  0,143l 0,10 9,0 0,-1 1,-1 1,0 0,-1 1,-1 1,-1 3,0 1,-1 3,0 1,-1 4,0 1,-1 2,0 1,-1 3,0 1,-1 4,0 1,-1 4,0 1,-1 2,0 1,-1 3,0 1,-1 3,0 1,-1 3,0 1,-1 3,0 1,-1 3,0 1,-1 3,0 1,-1 3,0 1,-1 4,0 1,-1 3,0 1,-1 3,0 1,-1 2,0 1,1 0,2 1,-1 1,0 0,-2 1,-1 1,0 1,-1 3,0 1,-1 3,0 1,-1 3,0 1,-1 3,0 1,-1 3,0 1,-1 3,0 1,1 5,0 1,-1 3,0 1,-1 5,0 1,-1 3,0 1,-1 4,0 1,-1 3,0 1,-1 3,0 1,-1 4,0 -1,-1 0,-2 1,-1 3,0 1,-1 3,0 1,-1 3,0 1,-1 4,0 1,1 3,0 1,-1 2,0 1,-1 3,0 1,-1 3,0 1,-1 5,0 1,1 3,0 1,-1 3,0 1,-1 3,0 1,-1 6,0 1,-1 2,0 1,-1 8,0 1,1 0,-2 1,-1 3,0 1,-1 5,0 1,-1 3,0 1,-1 3,0 1,-1 3,0 1,-1 3,0 1,-1 3,0 0,-16 -4,0 -1,1 -4,0 -1,1 -3,0 -1,1 -3,0 -1,1 -1,0 -1,1 -6,0 -1,-1 0,-2 -1,-1 0,-3 -1,-1 0,-2 -1,-1 0,-4 -1,-1 0,-4 -1,-1 0,-3 -1,0 0,4 1,1 0,3 1,1 0,4 1,1 0,3 1,1 0,4 -1,1 0,2 -1,1 -1,0 -1,1 -6,0 -1,1 -3,0 -1,1 -1,0 -1,1 -2,0 -1,1 -2,0 -1,-1 -1,1 -3,0 -1,1 -4,0 -1,1 -3,0 -1,1 -3,0 0,1 -1,1 -3,0 -1,1 -2,0 -1,-1 -1,0 -1,1 -3,0 -1,1 -3,0 0,1 -1,1 -3,0 0,2 -1,1 -3,0 -1,1 -4,0 -1,-1 0,-1 -3,0 -1,1 -3,0 -1,1 -3,0 -1,1 -3,0 -1,1 -3,0 -1,1 -3,0 -1,1 -3,0 -1,1 -3,0 -1,1 -3,0 -1,1 -3,0 1,1 0,2 -1,1 -4,0 -1,1 -3,0 -1,-1 0,-2 1,-1 -2,0 0,2 -1,1 0,1 -1,1 -1,1 -3,0 -1,1 -3,0 -1,1 -3,0 -1,1 -3,0 -1,1 -3,0 -1,1 -3,0 -1,1 -4,0 -1,-1 0,-1 -1,0 -1,-1 -2,0 -1,1 -3,0 -1,1 -3,0 -1,1 0,1 -1,1 -1,1 -3,0 0,1 -1,1 -1,1 -3,0 -1,1 -3,0 -1,1 -3,0 -1,1 -3,0 -1,1 -3,0 -1,1 -3,0 -1,1 -3,0 -1,1 -3,0 -1,1 -3,0 -1,-1 0,-1 -2,0 -1,-1 -2,0 -1,1 -4,0 -1,1 -3,0 -1,1 -3,0 0,5 225,-38 0,1 -1,1 -1,1 3,0 1,1 1,1 0,2 1,1 0,1 1,1 0,2 -1,-5 0,-4 1,-1 -3,0 -1,-1 -1,-1 -225,38Z"/>
<path onmouseover="hoverPath(evt)" onmouseout="recoverPath(evt)" fill="rgb(198,214,234)" d="M  3,8l 2,0 1,-1 3,0 1,-1 2,0 1,-1 3,0 1,-1 2,0 1,-1 2,0 1,-1 3,0 1,-1 2,0 1,-1 -30,0 0,9 2,0 1,-1Z"/>
<path onmouseover="hoverPath(evt)" onmouseout="recoverPath(evt)" fill="rgb(171,198,237)" d="M  1,62l -1,0 0,11 6,0 1,-1 4,0 1,-1 3,0 1,-1 5,0 1,-1 4,0 1,-1 4,0 1,-1 4,0 1,-1 5,0 1,-1 4,0 1,-1 5,0 1,-1 4,0 1,-1 5,0 1,-1 5,0 1,-1 4,0 1,-1 5,0 1,-1 4,0 1,-1 5,0 1,-1 4,0 1,-1 4,0 1,-1 4,0 1,-1 5,0 1,-1 4,0 1,-1 4,0 1,-1 4,0 1,-1 4,0 1,-1 7,0 1,1 0,-1 -1,-1 0,-1 -1,-1 0,-3 -1,-1 0,-3 -5,0 -1,1 -4,0 -1,1 -5,0 -1,1 -4,0 -1,1 -5,0 -1,1 -4,0 -1,1 -5,0 -1,1 -4,0 -1,1 -5,0 -1,1 -4,0 -1,1 -5,0 -1,1 -4,0 -1,1 -5,0 -1,1 -4,0 -1,1 -5,0 -1,1 -4,0 -1,1 -5,0 -1,1 -5,0 -1,1 -4,0 -1,1 -5,0 -1,1 -4,0 -1,1 -5,0 -1,1 -4,0 -1,1 -5,0 -1,1Z"/>
<path onmouseover="hoverPath(evt)" onmouseout="recoverPath(evt)" fill="rgb(238,219,170)" d="M  58,143l 2,0 1,-1 5,0 1,1 2,0 1,-1 3,0 0,-2 1,-1 2,0 1,-1 4,0 1,-1 5,0 1,1 2,0 0,-2 1,-1 3,0 1,-1 5,0 1,1 2,0 1,-1 3,0 -1,-1 0,-3 1,-1 1,-1 -4,0 -1,1 -3,0 -1,1 -3,0 -1,1 -1,0 0,2 -1,1 1,0 -36,9 50,-16 1,1 2,0 1,-1 2,0 1,1 0,2 1,1 0,-1 1,-1 1,0 1,-1 -1,-1 0,-1 -1,-1 -1,0 -1,1 -3,0 -1,1 -3,0 -50,16 32,-8 -1,0 -1,-1 0,-2 -1,1 -3,0 -1,1 -3,0 -1,1 -4,0 -1,1 -3,0 -1,1 -3,0 -1,1 -3,0 -1,1 -3,0 -1,1 -3,0 -1,1 -3,0 -1,1 -3,0 -1,1 -2,0 -1,1 -4,0 -1,1 -4,0 -1,1 -3,0 -1,1 -2,0 -1,1 -4,0 -1,1 -3,0 -1,1 -3,0 -1,1 0,1 -1,1 4,0 1,-1 4,0 1,-1 5,0 1,1 1,0 1,-1 4,0 1,-1 7,0 1,-1 1,0 0,-2 1,-1 4,0 1,1 2,0 0,-2 1,-1 3,0 1,-1 33,-8 -32,8Z"/>
<path onmouseover="hoverPath(evt)" onmouseout="recoverPath(evt)" fill="rgb(244,243,236)" d="M  153,47l -1,0 0,2 1,1 0,2 1,1 0,2 1,1 0,3 1,1 0,3 1,1 0,3 1,1 0,3 1,1 0,2 1,1 0,3 1,1 0,3 1,1 0,3 1,1 0,3 1,1 0,2 1,1 0,2 1,1 0,1 1,0 0,-1 1,-1 3,0 1,-1 3,0 1,-1 2,0 0,-1 -1,-1 0,-2 -1,-1 0,-2 -1,-1 0,-2 -1,-1 0,-2 -1,-1 0,-2 -1,-1 0,-3 -1,-1 0,-2 -1,-1 0,-2 -1,-1 0,-2 -1,-1 0,-2 -1,-1 0,-2 -1,-1 0,-2 -1,-1 0,-1 -1,-1 0,-2 -1,-1 0,-2 -1,-1 0,-1 -1,-1 -2,0 -1,1 -4,0 -1,1Z"/>
<path onmouseover="hoverPath(evt)" onmouseout="recoverPath(evt)" fill="rgb(242,241,234)" d="M  192,111l -1,0 0,2 1,1 0,2 1,1 0,2 1,1 0,4 1,1 0,1 1,1 0,2 1,1 0,2 1,1 0,3 1,1 0,2 1,1 0,2 1,1 0,4 1,1 0,1 1,1 0,2 1,1 0,2 1,1 0,3 1,1 0,2 1,1 0,2 1,1 0,3 1,1 0,2 1,1 0,2 1,1 0,3 1,1 0,2 1,1 0,2 1,1 0,2 1,1 0,3 1,1 0,2 1,1 0,2 1,1 0,3 1,1 0,2 1,1 0,2 1,1 0,2 1,1 0,3 1,1 0,2 1,1 0,2 1,1 0,3 1,1 0,2 1,1 0,2 1,1 0,3 1,1 0,2 1,1 0,4 1,1 0,3 1,1 0,1 1,1 0,1 1,1 1,1 0,2 20,0 0,-158 -2,0 -1,1 -3,0 -1,1 -3,0 -1,1 -3,0 -1,1 -3,0 -1,1 -5,0 -1,1 -3,0 0,1 1,1 6,0 1,1 0,2 -1,1 -3,0 0,4 1,1 0,4 -1,1 -2,0 -1,-1 0,-2 -1,-1 0,-1 -1,-1 0,-2 -1,-1 -3,0 -1,-1 0,-2 1,-1 1,-1 -6,0 -1,1 -2,0 -1,1 -6,0 -1,1 -3,0 -1,1 -3,0 -1,1 -4,0 -1,1Z"/>
<path onmouseover="hoverPath(evt)" onmouseout="recoverPath(evt)" fill="rgb(182,205,236)" d="M  200,150l 0,-1 -1,-1 0,-4 -1,-1 0,-2 -1,-1 0,-2 -1,-1 0,-3 -1,-1 0,-2 -1,-1 0,-2 -1,-1 0,-1 -1,-1 0,-4 -1,-1 0,-2 -1,-1 0,-2 -1,-1 0,-4 1,-1 -1,0 -1,1 -3,0 -1,1 -1,0 1,1 0,2 -1,1 2,0 1,1 0,2 1,1 0,2 1,1 0,2 1,1 0,2 1,1 0,3 1,1 0,2 1,1 0,2 1,1 0,2 1,1 0,2 1,1 0,6 -1,1 3,0 1,1 0,1 1,1 0,1 1,1 0,2 1,1 0,2 1,1 0,2 1,1 0,2 1,1 0,2 1,1 0,3 1,1 0,2 1,1 0,2 1,1 0,2 1,1 0,2 1,1 0,2 1,1 0,3 1,1 0,2 1,1 0,3 1,1 0,2 1,1 0,3 1,1 0,2 1,1 0,3 1,1 0,3 1,1 0,2 1,1 0,3 1,1 0,3 1,1 0,2 1,1 0,3 1,1 0,3 1,1 0,3 1,1 0,3 1,1 0,2 1,1 0,3 5,0 0,-1 -1,-1 0,0 -1,-1 0,-1 -1,-1 0,-1 -1,-1 0,-3 -1,-1 0,-4 -1,-1 0,-2 -1,-1 0,-3 -1,-1 0,-2 -1,-1 0,-2 -1,-1 0,-3 -1,-1 0,-2 -1,-1 0,-2 -1,-1 0,-3 -1,-1 0,-2 -1,-1 0,-2 -1,-1 0,-2 -1,-1 0,-3 -1,-1 0,-2 -1,-1 0,-2 -1,-1 0,-3 -1,-1 0,-2 -1,-1 0,-2 -1,-1 0,-2 -1,-1 0,-3 -1,-1 0,-2 -1,-1 0,-2 -1,-1 0,-3 -1,-1 0,-2 -1,-1 0,-2 -1,-1 0,-3 -1,-1 0,-2 -1,-1 0,-2 -1,-1Z"/>
</svg>