<svg width="256" height="256" xmlns="http://www.w3.org/2000/svg"><script> 
var tempColor;
function hoverPath(evt){
obj = evt.target;
tempColor = obj.getAttribute("fill");
obj.setAttribute("fill","red");
//alert(tempColor);
//obj.setAttribute("stroke","red");}
function recoverPath(evt){
obj = evt.target;
obj.setAttribute("fill", tempColor);
//obj.setAttribute("stroke", tempColor);
}</script><path onmouseover="hoverPath(evt)" onmouseout="recoverPath(evt)" fill="rgb(244,243,236)" d="M  0,22l 0,196 16,0 1,-1 28,0 1,-1 11,0 1,-1 3,0 1,-1 2,0 1,-1 1,0 1,-1 1,0 1,-1 1,0 1,-1 2,0 1,-1 1,0 1,-1 4,0 1,-1 2,0 1,-1 2,0 1,-1 2,0 1,-1 2,0 1,-1 2,0 1,-1 1,0 1,-1 1,-1 1,0 1,-1 1,0 1,-1 2,0 1,-1 1,0 1,-1 2,0 1,-1 1,0 1,-1 2,0 1,-1 2,0 1,-1 2,0 1,-1 2,0 1,-1 5,0 1,1 1,1 1,1 1,1 3,0 1,-1 1,0 1,-1 1,0 1,-1 1,0 1,-1 1,0 1,-1 1,0 1,-1 1,0 1,-1 1,-1 1,0 1,-1 1,0 1,-1 1,0 1,-1 1,0 1,-1 1,0 1,-1 1,0 1,-1 1,0 1,-1 1,0 1,-1 1,0 1,-1 1,0 1,-1 1,0 1,-1 1,-1 1,0 1,-1 1,0 1,-1 2,0 1,-1 2,0 1,-1 3,0 1,-1 3,0 1,-1 2,0 1,-1 4,0 1,1 0,2 1,1 1,1 0,-2 -1,-1 0,-3 1,-1 2,0 1,-1 2,0 1,-1 2,0 1,-1 2,0 1,-1 2,0 1,-1 1,0 1,-1 1,0 1,-1 1,0 1,-1 2,0 1,-1 2,0 1,-1 7,0 1,-1 4,0 1,-1 -1,-1 0,-5 -1,-1 0,-2 -1,-1 0,-1 -3,0 -1,-1 0,-2 1,-1 3,0 0,-3 1,-1 -1,0 -1,-1 0,0 -1,-1 0,-7 -1,-1 0,-6 1,-1 -1,0 -1,-1 0,-4 1,-1 -1,0 -1,-1 0,0 -1,-1 0,-8 1,-1 -1,0 -1,-1 0,-2 -1,-1 0,-2 -1,-1 0,-8 1,-1 -1,0 -1,-1 0,-2 -1,-1 0,-2 -1,-1 0,-4 -1,-1 0,-5 -1,-1 0,-3 -1,-1 0,-1 -1,-1 0,-7 -1,0 -1,-1 0,-1 -1,-1 0,-1 -1,0 -1,-1 0,-2 -1,0 -1,-1 0,-2 -1,-1 -1,0 -1,-1 0,-2 -1,0 -1,-1 0,-2 -1,-1 -1,-1 -1,-1 -1,0 -1,-1 -1,-1 -1,-1 -1,-1 0,-1 -1,-1 -1,-1 0,-1 -2,0 -1,1 -5,0 -1,-1 -4,0 -1,-1 -4,0 -1,-1 -3,0 -1,-1 -1,0 -1,-1 -1,-1 -1,0 -1,-1 -1,-1 -1,-1 -1,0 -1,-1 -1,-1 -1,-1 0,-1 -2,0 -1,-1 0,-1 -1,0 -1,-1 -1,-1 0,-2 -1,-1 -1,1 -2,0 -1,-1 -1,-1 0,-2 -1,-1 0,-2 -119,0 0,3 -1,1 -3,0 -1,1 -3,0 -1,-1 -1,1 -3,0 -1,1 -3,0 -1,1 -1,0 -1,1 -4,0 -1,-1 -1,1 -1,0 -1,1 -3,0 -1,-1 0,-1 -1,0 -1,-1 -1,0 0,16 141,-13 2,0 1,1 0,2 -1,1 0,1 -1,1 0,1 -1,1 -2,0 -1,-1 0,-2 1,-1 0,-1 1,-1 0,-1 1,-1 -141,13Z"/>
<path onmouseover="hoverPath(evt)" onmouseout="recoverPath(evt)" fill="rgb(244,243,237)" d="M  0,242l 0,13 4,0 0,-1 1,-1 1,-1 1,0 1,-1 1,0 2,-2 0,-1 -1,-1 -1,0 -1,-1 -1,-1 -1,-1 -1,0 -1,-1 -1,-1 -1,0 -1,-1 -1,1Z"/>
<path onmouseover="hoverPath(evt)" onmouseout="recoverPath(evt)" fill="rgb(177,202,238)" d="M  8,254l -1,0 -1,1 23,0 -1,-1 -1,-1 -1,-1 -1,0 -1,-1 -1,-1 -1,0 -1,-1 -1,-1 -1,-1 -1,0 -1,-1 -1,-1 -1,0 -1,-1 -1,-1 -1,0 -1,-1 -1,-1 -1,-1 -1,0 -1,-1 -1,-1 -1,0 -1,-1 -1,-1 -1,-1 -2,0 0,4 2,0 1,1 1,0 1,1 1,1 1,0 1,1 1,1 1,1 1,0 1,1 1,1 0,3 -1,1 -1,1 -1,1 -1,0 -1,1Z"/>
<path onmouseover="hoverPath(evt)" onmouseout="recoverPath(evt)" fill="rgb(244,243,235)" d="M  171,255l 84,0 0,-30 -1,0 -1,-1 0,-1 -3,0 -1,-1 -1,0 0,2 -1,1 -1,1 -2,0 -1,1 -2,0 -1,1 -1,0 -1,1 -4,0 -1,-1 -2,0 -1,1 -3,0 0,2 -1,1 -3,0 -1,1 -5,0 -1,-1 -2,0 -1,1 -3,0 0,2 -1,1 -3,0 -1,-1 -2,0 -1,1 -3,0 0,2 -1,1 -3,0 -1,-1 -2,0 0,2 -1,1 -1,0 -1,1 -2,0 -1,1 -1,0 -1,1 -1,0 -1,1 -1,0 -1,1 -1,0 -1,1 -1,1 -1,0 -1,1 -1,0 -1,1 -1,1 -1,0 -1,1 -2,0 -1,-1 -1,1 0,3Z"/>
<path onmouseover="hoverPath(evt)" onmouseout="recoverPath(evt)" fill="rgb(243,241,235)" d="M  209,191l 0,0 1,1 0,2 1,1 0,4 -1,1 0,2 1,1 0,2 1,1 0,2 1,1 0,3 1,1 0,2 2,0 1,1 0,3 -1,1 0,2 1,1 0,2 1,1 0,5 3,0 1,-1 3,0 0,-2 1,-1 3,0 1,-1 4,0 1,1 2,0 1,-1 1,0 1,-1 2,0 1,-1 2,0 1,-1 0,-2 1,-1 3,0 1,1 3,0 1,1 0,-15 -3,0 -1,-1 0,-4 1,-1 -1,0 -1,-1 0,-4 1,-1 -1,0 -1,-1 0,-3 -1,-1 0,-4 -1,-1 0,-6 1,-1 -1,0 -1,-1 0,-2 -1,-1 0,-5 -1,-1 0,-4 -1,-1 0,-2 1,-1 1,-1 -1,-1 -1,1 -1,0 -1,1 -6,0 -1,1 -4,0 -1,1 -1,0 -1,1 -1,0 -1,1 -2,0 -1,1 -2,0 -1,1 -1,0 -1,1 -3,0 -1,1 -1,0 -1,1 -2,0 -1,1 -2,0 -1,1 -1,0 0,3 -1,1 0,2 2,0 1,1 0,3 -1,1 0,3 1,1 0,2 1,1 0,2Z"/>
<path onmouseover="hoverPath(evt)" onmouseout="recoverPath(evt)" fill="rgb(183,145,234)" d="M  0,1l 0,3 2,0 1,1 1,0 1,1 0,1 1,0 1,-1 1,0 1,-1 2,0 1,1 2,0 1,-1 1,0 1,-1 3,0 1,-1 3,0 1,-1 2,0 1,1 1,0 1,-1 3,0 0,-2 -32,0 -1,1Z"/>
<path onmouseover="hoverPath(evt)" onmouseout="recoverPath(evt)" fill="rgb(244,243,236)" d="M  0,225l 0,8 3,0 1,1 1,1 1,1 1,0 1,1 1,1 1,0 1,1 1,1 1,1 1,0 1,1 1,1 1,0 1,1 1,1 1,0 1,1 1,1 1,1 1,0 1,1 1,1 1,0 1,1 1,1 1,1 1,1 0,1 133,0 0,-4 1,-1 1,-1 2,0 1,1 1,-1 1,0 1,-1 0,-2 1,-1 2,0 1,1 1,-1 0,-2 1,-1 1,0 1,-1 2,0 1,1 1,-1 1,0 1,-1 2,0 1,-1 1,0 0,-2 1,-1 4,0 1,1 1,0 0,-2 1,-1 3,0 1,-1 4,0 1,1 1,0 0,-2 1,-1 3,0 1,-1 3,0 0,-3 -1,-1 0,-2 -1,-1 0,-4 1,-1 0,-1 -2,0 -1,-1 0,-2 -1,-1 0,-3 -1,-1 0,-2 -1,-1 0,-2 -1,-1 0,-4 1,-1 0,-2 -1,-1 0,-2 -2,0 -1,-1 0,-2 -1,-1 0,-2 -1,-1 0,-5 1,-1 0,-1 -2,0 -1,-1 0,-3 -1,-1 0,-1 -1,-1 -1,1 -1,0 -1,1 -2,0 -1,1 -3,0 -1,1 -2,0 -1,1 -2,0 -1,1 -3,0 -1,1 -1,0 -1,1 -1,0 -1,1 -2,0 -1,1 -1,0 -1,1 -2,0 0,1 -1,1 -1,0 -1,1 -1,0 -1,1 -1,0 -1,1 -1,1 -1,0 -1,1 -1,0 -1,1 -1,0 -1,1 -1,0 -1,1 -1,0 -1,1 -1,0 -1,1 -1,0 -1,1 -3,0 -1,1 -1,0 -1,1 -1,0 -1,1 -1,1 -1,0 -1,1 -2,0 -1,-1 -2,0 -1,-1 -1,-1 -1,-1 -1,-1 -1,1 -2,0 -1,1 -2,0 -1,1 -3,0 -1,1 -1,0 -1,1 -1,0 -1,1 -2,0 -1,1 -1,0 -1,1 -1,0 -1,1 -1,0 -1,1 -1,0 -1,1 -1,0 -1,1 -2,0 -1,1 -2,0 -1,1 -2,0 -1,1 -2,0 -1,1 -2,0 -1,1 -3,0 -1,1 -2,0 -1,1 -1,0 -1,1 -1,0 -1,1 -2,0 -1,1 -1,0 -1,1 -2,0 -1,1 -2,0 -1,1 -5,0 -1,1 -15,0 -1,1 -22,0 -1,1 -15,0 -1,1Z"/>
<path onmouseover="hoverPath(evt)" onmouseout="recoverPath(evt)" fill="rgb(171,198,238)" d="M  125,193l -2,0 -1,1 -2,0 -1,1 -2,0 -1,1 -2,0 -1,1 -1,0 -1,1 -2,0 -1,1 -1,0 -1,1 -2,0 -1,1 -1,0 -1,1 -1,0 -1,1 -1,1 -1,0 -1,1 -2,0 -1,1 -2,0 -1,1 -2,0 -1,1 -2,0 -1,1 -2,0 -1,1 -4,0 -1,1 -1,0 -1,1 -2,0 -1,1 -1,0 -1,1 -1,0 -1,1 -1,0 -1,1 -2,0 -1,1 -3,0 -1,1 -11,0 -1,1 -28,0 -1,1 -17,0 0,2 15,0 1,-1 22,0 1,-1 15,0 1,-1 5,0 1,-1 2,0 1,-1 2,0 1,-1 1,0 1,-1 2,0 1,-1 1,0 1,-1 1,0 1,-1 2,0 1,-1 3,0 1,-1 2,0 1,-1 2,0 1,-1 2,0 1,-1 2,0 1,-1 2,0 1,-1 1,0 1,-1 1,0 1,-1 1,0 1,-1 1,0 1,-1 1,0 1,-1 2,0 1,-1 1,0 1,-1 1,0 1,-1 3,0 1,-1 2,0 1,-1 2,0 1,-1 0,-1 1,-1 1,2 0,0 1,1 1,1 1,1 1,1 2,0 1,1 1,-1 1,0 1,-1 1,-1 1,0 1,-1 1,0 1,-1 3,0 1,-1 1,0 1,-1 1,0 1,-1 1,0 1,-1 1,0 1,-1 1,0 1,-1 1,0 1,-1 1,0 1,-1 1,-1 1,0 1,-1 1,0 1,-1 1,0 0,-1 1,-1 2,0 1,-1 1,0 1,-1 2,0 1,-1 1,0 1,-1 1,0 1,-1 3,0 1,-1 2,0 1,-1 2,0 1,-1 3,0 1,-1 2,0 1,-1 1,0 1,-1 0,-1 -2,0 -1,1 -2,0 -1,1 -3,0 -1,1 -3,0 -1,1 -2,0 -1,1 -2,0 -1,1 -1,0 -1,1 -1,0 -1,1 -1,1 -1,0 -1,1 -1,0 -1,1 -1,0 6,-2 0,0 -48,14 -1,1 41,-12 -1,1 -1,0 -1,1 -1,0 -1,1 -1,0 -1,1 -1,0 -1,1 -1,0 -1,1 -1,0 -1,1 -1,0 -1,1 -1,1 -1,0 -1,1 -1,0 -1,1 -1,0 -1,1 1,0 2,-1 2,-1 2,-1 15,-9 -41,12 16,1 -2,1 -2,1 -4,0 -1,-1 -1,-1 -1,-1 -1,-1 -2,0 14,2 -16,-1Z"/>
<path onmouseover="hoverPath(evt)" onmouseout="recoverPath(evt)" fill="rgb(185,153,237)" d="M  164,0l -8,0 0,1 1,1 0,2 1,1 1,-1 2,0 1,1 1,1 0,2 1,1 1,0 1,1 0,1 2,0 1,1 0,1 1,1 1,1 1,0 1,1 2,2 1,0 1,1 1,1 1,0 1,1 3,0 1,1 4,0 1,1 4,0 1,1 3,0 1,-1 4,0 1,1 0,1 1,1 1,1 0,1 1,1 1,1 1,1 1,0 1,1 1,1 1,1 1,1 0,2 1,0 1,1 0,2 1,0 1,1 1,1 0,2 1,0 1,1 0,2 1,0 1,1 0,1 1,1 0,1 1,0 1,1 0,7 1,1 0,1 1,1 0,3 1,1 0,5 1,1 0,4 1,1 0,2 1,1 0,2 1,0 1,1 0,2 -1,1 0,6 1,1 0,2 1,1 0,2 1,0 1,1 0,2 -1,1 0,6 1,1 1,0 1,1 0,2 -1,1 0,2 1,0 1,1 0,2 -1,1 0,4 1,1 0,7 1,1 1,0 1,1 0,2 -1,1 0,3 -1,1 -3,0 4,1 0,1 1,1 0,2 1,1 0,5 1,1 0,2 -1,1 -1,1 3,0 1,1 1,1 0,2 -1,1 -1,1 1,1 0,4 1,1 0,5 1,1 0,2 1,0 1,1 0,2 -1,1 0,4 1,1 0,4 1,1 0,3 1,0 1,1 0,2 -1,1 0,2 1,0 1,1 0,2 -1,1 0,2 2,0 0,-72 -1,0 -1,-1 -1,-1 0,-2 -1,-1 0,-5 -1,-1 0,-4 -1,-1 0,-6 -1,-1 0,-4 -1,-1 0,-4 -1,-1 0,-2 -1,0 -1,-1 0,-2 1,-1 0,-6 -1,-1 0,-2 -1,-1 0,-4 -1,-1 0,-2 -1,-1 0,-3 -1,0 -1,-1 0,-2 1,-1 0,-6 -1,-1 0,-3 -1,-1 0,-7 -1,-1 0,-2 1,-1 0,-1 -1,0 -1,-1 0,-3 1,-1 -1,-1 0,-2 -1,-1 -1,-1 0,-2 1,-1 0,-2 1,-1 1,-1 1,-1 2,0 1,1 9,0 1,1 4,0 0,-3 -8,0 -1,-1 -8,0 -1,-1 -1,0 -1,-1 0,-6 1,-1 0,-3 1,-1 0,-2 1,-1 1,-1 2,0 0,-1 1,-1 0,-1 1,-1 0,-1 1,-1 0,-1 1,-1 0,-1 -34,0 0,2 -1,1 -1,0 -1,1 -1,1 -1,0 0,2 -1,1 -3,0 -1,-1 -10,0 -1,-1 -1,0 -1,-1 -3,0 -1,-1 -1,-1 -1,-1 0,-2 -18,0 78,157 -1,-1 -3,0 -1,1 -7,0 -1,1 -2,0 -1,1 -2,0 -1,1 -1,0 -1,1 -1,0 -1,1 -1,0 -1,1 -2,0 -1,1 -2,0 -1,1 -2,0 -1,1 -2,0 -1,1 -2,0 0,1 1,1 0,0 1,-1 2,0 1,-1 2,0 1,-1 1,0 1,-1 3,0 1,-1 1,0 1,-1 2,0 1,-1 2,0 1,-1 1,0 1,-1 1,0 1,-1 4,0 1,-1 6,0 1,-1 1,0 -78,-157Z"/>
<path onmouseover="hoverPath(evt)" onmouseout="recoverPath(evt)" fill="rgb(243,242,236)" d="M  185,0l -1,0 0,1 1,1 0,0 1,1 3,0 1,1 1,0 1,1 10,0 1,1 1,0 0,-2 1,-1 1,0 1,-1 1,-1 1,0 0,-1Z"/>
<path onmouseover="hoverPath(evt)" onmouseout="recoverPath(evt)" fill="rgb(244,243,236)" d="M  238,31l 0,0 -1,1 0,2 -1,1 1,1 1,1 0,2 1,1 0,2 -1,1 0,1 1,0 1,1 0,3 -1,1 1,1 0,7 1,1 0,3 1,1 0,8 -1,1 1,0 1,1 0,3 1,1 0,2 1,1 0,4 1,1 0,2 1,1 0,8 -1,1 1,0 1,1 0,2 1,1 0,4 1,1 0,4 1,1 0,6 1,1 0,4 1,1 0,5 1,1 0,2 1,1 0,-99 -5,0 -1,-1 -9,0 -1,-1 -1,1Z"/>
<path onmouseover="hoverPath(evt)" onmouseout="recoverPath(evt)" fill="rgb(243,242,234)" d="M  240,11l -1,1 0,2 -1,1 0,3 -1,1 0,4 1,0 1,1 8,0 1,1 7,0 0,-25 -8,0 0,2 -1,1 0,1 -1,1 0,1 -1,1 0,1 -1,1 0,1 -1,1Z"/>
</svg>