<svg width="256" height="256" xmlns="http://www.w3.org/2000/svg"><script> 
var tempColor;
function hoverPath(evt){
obj = evt.target;
tempColor = obj.getAttribute("fill");
obj.setAttribute("fill","red");
//alert(tempColor);
//obj.setAttribute("stroke","red");}
function recoverPath(evt){
obj = evt.target;
obj.setAttribute("fill", tempColor);
//obj.setAttribute("stroke", tempColor);
}</script><path onmouseover="hoverPath(evt)" onmouseout="recoverPath(evt)" fill="rgb(245,234,139)" d="M  0,184l 0,4 2,0 1,1 2,0 1,1 2,0 1,1 5,0 1,1 0,2 3,0 1,1 2,0 1,1 1,0 1,1 2,0 1,1 1,0 1,1 4,0 1,1 0,1 2,0 1,1 2,0 1,1 2,0 1,1 1,0 1,1 2,0 1,1 2,0 1,1 1,0 1,1 2,0 1,1 2,0 1,1 1,0 1,1 2,0 1,1 2,0 1,1 1,0 1,1 2,0 1,1 1,0 1,1 2,0 1,1 2,0 1,1 1,0 1,1 2,0 1,1 1,0 1,1 2,0 1,1 2,0 1,1 1,0 1,1 2,0 1,1 1,0 1,1 5,0 1,1 0,1 3,0 1,1 0,2 4,0 1,1 2,0 1,1 1,0 1,1 2,0 1,1 2,0 1,1 1,0 1,1 2,0 1,1 2,0 1,1 1,0 1,1 2,0 1,1 2,0 1,1 1,0 1,1 2,0 1,1 1,0 1,1 2,0 1,1 1,0 1,1 2,0 1,1 1,0 1,1 2,0 1,1 2,0 1,1 1,0 1,1 1,0 1,-1 2,0 1,1 0,3 17,0 0,-1 -1,0 -1,-1 -2,0 -1,-1 -2,0 -1,-1 -1,0 -1,-1 -2,0 -1,-1 -2,0 -1,-1 -1,0 -1,-1 -2,0 -1,-1 -1,0 -1,-1 -2,0 -1,-1 -2,0 -1,-1 -1,0 -1,-1 -2,0 -1,-1 -1,0 -1,-1 -2,0 -1,-1 -1,0 -1,-1 -2,0 -1,-1 -1,0 -1,-1 -2,0 -1,-1 -2,0 -1,-1 -1,0 -1,-1 -2,0 -1,-1 -1,0 -1,-1 -2,0 -1,-1 -2,0 -1,-1 -1,0 -1,-1 -2,0 -1,-1 -2,0 -1,-1 -1,0 -1,-1 -1,0 -1,-1 0,-3 1,-1 1,-1 1,-1 0,-1 1,-1 1,-1 1,-1 1,-1 -1,-1 0,-2 1,-1 1,-1 0,-1 -1,0 0,1 -1,1 -1,1 -1,1 -1,1 -1,1 -1,1 -1,0 0,2 -1,1 -1,1 -1,1 -1,1 -1,1 -1,1 -2,0 -1,-1 -1,0 -1,-1 -1,0 -1,-1 -2,0 -1,-1 -1,0 -1,-1 -2,0 -1,-1 -1,0 -1,-1 -2,0 -1,-1 -2,0 -1,-1 -1,0 -1,-1 -2,0 -1,-1 -1,0 -1,-1 -2,0 -1,-1 -2,0 -1,-1 -1,0 -1,-1 -2,0 -1,-1 -1,0 -1,-1 -2,0 -1,-1 -2,0 -1,-1 -1,0 -1,-1 -2,0 -1,-1 -2,0 -1,-1 -1,0 -1,-1 -2,0 -1,-1 -2,0 -1,-1 -1,0 -1,-1 -1,-1 0,-2 1,-1 0,-1 1,-1 0,-1 1,-1 0,-1 1,-1 0,-1 1,-1 0,-1 1,-1 0,-1 1,-1 0,-1 1,-1 0,-1 1,-1 0,-1 1,-1 0,-1 1,-1 1,-1 0,-1 1,-1 0,-1 1,-1 0,-2 1,-1 0,-1 1,-1 0,-1 1,-1 0,-1 1,-1 0,-1 1,-1 0,-1 1,-1 0,-1 1,-1 1,-1 0,-1 1,-1 0,-1 1,-1 0,-1 1,-1 0,-1 1,-1 0,-1 1,-1 0,-1 1,-1 0,-1 1,-1 1,-1 0,-1 1,-1 0,-1 1,-1 0,-1 1,-1 0,-1 1,-1 0,-1 1,-1 0,-1 1,-1 0,-1 1,-1 3,0 -1,-1 0,-3 1,-1 0,-1 1,-1 1,-1 0,-1 1,-1 1,-1 0,-1 1,-1 0,-1 1,-1 1,-1 0,-1 1,-1 0,-1 1,-1 1,-1 0,-2 1,-1 0,-1 1,-1 0,-1 1,-1 0,-1 1,-1 1,-1 0,-2 1,-1 0,-1 1,-1 0,-2 1,-1 0,-1 1,-1 0,-1 1,-1 0,-2 1,-1 0,-1 1,-1 0,-1 1,-1 0,-2 1,-1 0,-1 1,-1 0,-1 1,-1 0,-2 1,-1 0,-1 1,-1 0,-2 1,-1 0,-1 1,-1 0,-1 1,-1 0,-2 1,-1 0,-1 1,-1 0,-2 1,-1 0,-1 1,-1 0,-2 1,-1 0,-1 1,-1 0,-1 1,-1 0,-2 1,-1 0,-1 1,-1 0,-2 1,-1 0,-1 1,-1 0,-2 1,-1 0,-1 1,-1 0,-2 1,-1 0,-1 1,-1 0,-2 1,-1 0,-2 1,-1 0,-1 1,-1 0,-2 1,-1 0,-1 1,-1 0,-3 -6,0 0,3 -1,1 0,2 -1,1 0,1 -1,1 0,2 -1,1 0,1 -1,1 0,2 -1,1 0,2 -1,1 0,1 -1,1 0,2 -1,1 0,1 -1,1 0,2 -1,1 0,1 -1,1 0,2 -1,1 0,1 -1,1 0,1 -1,1 0,2 -1,1 0,1 -1,1 0,2 -1,1 0,1 -1,1 0,2 -1,1 0,1 -1,1 0,1 -1,1 0,2 -1,1 0,1 -1,1 0,1 -1,1 0,2 -1,1 0,1 -1,1 0,2 -1,1 0,1 -1,1 0,1 -1,1 0,2 -1,1 0,1 -1,1 0,1 -1,1 0,2 -1,1 0,1 -1,1 0,1 -1,1 0,1 -1,1 0,1 -1,1 0,1 -1,1 0,1 -1,1 0,1 -1,1 0,1 -1,1 0,1 -1,1 -1,1 0,1 -1,1 0,2 -1,1 -1,0 0,1 -2,2 0,1 -1,1 -1,1 0,1 -1,1 -1,1 0,1 -1,1 0,1 -1,1 0,2 -1,1 0,1 -1,1 0,1 -1,1 -1,1 0,1 -1,1 0,1 -1,1 0,1 -1,1 0,1 -1,1 0,1 -1,1 0,1 -1,1 0,1 -1,1 -1,1 0,1 -1,1 0,1 -1,1 0,1 -1,1 0,1 -1,1 0,1 -1,1 0,1 -1,1 0,1 -1,1 0,1 -1,1 0,1 -1,1 0,1 -1,1 0,1 -1,1 0,1 -1,1 0,1 -1,1 0,1 -1,1 0,1 -1,1 0,1 -1,1 0,1 -1,1 0,1 -1,1 -1,1 0,1 -1,1 0,1 -1,1 0,1 -1,1 0,1 -1,1 0,2 -1,1 -3,0 -1,-1 -2,0 -1,-1 -1,0 -1,-1 -2,0 -1,-1 -1,0 -1,-1 -2,0 -1,-1 -2,0 -1,-1 -1,0 -1,-1 -2,0 -1,-1 -1,0 -1,-1 -2,0 -1,-1 -2,0 0,2 79,-61 1,0 -1,-1 0,1 -79,61Z"/>
<path onmouseover="hoverPath(evt)" onmouseout="recoverPath(evt)" fill="rgb(242,241,231)" d="M  16,196l -2,0 -1,-1 0,-2 -5,0 -1,-1 -2,0 -1,-1 -2,0 -1,-1 -1,0 0,65 1,0 0,-3 1,-1 0,-1 1,-1 0,-1 1,-1 0,-1 1,-1 0,-1 1,-1 0,-1 1,-1 0,-1 1,-1 0,-1 1,-1 1,-1 0,-1 1,-1 0,-1 1,-1 0,-1 1,-1 0,-1 1,-1 0,-1 1,-1 0,-1 1,-1 0,-1 1,-1 0,-1 1,-1 0,-1 1,-1 0,-1 1,-1 1,-1 0,-1 1,-1 0,-1 1,-1 0,-1 1,-1 0,-1 1,-1 0,-1 1,-1 0,-1 1,-1 0,-1 1,-1 -1,-1 -1,0 -1,-1 -2,0 -1,-1 -1,0 -1,-1 -2,0 -1,-1Z"/>
<path onmouseover="hoverPath(evt)" onmouseout="recoverPath(evt)" fill="rgb(221,230,244)" d="M  156,168l -1,1 -1,0 0,2 -1,1 -1,1 1,0 -1,1 -2,0 0,2 -1,1 -1,1 -5,5 -1,1 0,1 -1,1 -1,0 -2,2 -1,1 -5,5 -1,1 -1,1 -1,0 0,1 -2,2 -1,1 -2,2 -1,1 -1,1 -1,0 0,1 1,1 0,3 -1,1 -1,1 1,0 1,-1 0,0 1,-1 1,-1 0,-1 1,-1 1,-1 1,-1 1,-1 1,-1 1,-1 1,-1 1,-1 11,-11 1,-1 0,-1 1,-1 1,0 1,-1 0,-1 1,-1 1,-1 1,-1 1,-1 1,-1 -1,-1 0,-2 5,-7 1,-1 4,0 0,-1 -1,0 -1,-1 -2,0 -1,-1 0,2 1,1 -1,1Z"/>
<path onmouseover="hoverPath(evt)" onmouseout="recoverPath(evt)" fill="rgb(186,149,235)" d="M  4,0l -4,0 0,39 1,-2 0,-1 1,-1 0,-1 1,-1 0,-1 1,-1 1,0 0,-1 -1,-1 0,-2 1,-1 1,0 0,-1 1,-1 0,-1 1,-1 0,-1 1,-1 1,-1 0,-1 1,-1 0,-3 1,-1 0,-3 1,-1 2,0 1,1 0,-2 1,-1 1,0 0,-1 1,-1 1,-1 0,-1 1,-1 1,-1 0,-1Z"/>
<path onmouseover="hoverPath(evt)" onmouseout="recoverPath(evt)" fill="rgb(244,243,236)" d="M  19,16l 0,0 -1,1 -1,1 -1,0 -1,1 -3,0 0,1 -1,1 -1,1 0,1 -1,1 0,1 -1,1 0,1 -1,1 -1,0 1,1 0,3 -1,1 -1,0 0,1 -1,1 0,1 -1,1 0,1 -1,1 0,1 -1,1 -1,0 0,57 2,0 1,1 2,0 1,1 1,0 1,1 2,0 1,1 2,0 1,-1 2,0 1,1 0,2 2,0 1,1 1,0 1,1 2,0 1,1 0,4 1,1 0,2 -1,1 0,1 -1,1 -2,0 -1,1 0,1 -1,1 0,1 -1,1 1,1 0,2 -1,1 0,1 -1,1 -2,0 -1,1 0,1 -1,1 0,1 -1,1 1,1 0,2 -1,1 0,1 -1,1 0,1 -1,1 -2,0 -1,1 0,1 -1,1 0,1 -1,1 1,1 0,2 -1,1 0,1 -1,1 -1,1 -4,0 0,27 3,0 1,1 2,0 1,1 1,0 1,1 2,0 1,1 1,0 1,1 2,0 1,1 2,0 1,1 1,0 1,1 2,0 1,1 1,0 1,1 2,0 1,1 1,0 0,-2 1,-1 0,-1 1,-1 0,-1 1,-1 0,-1 1,-1 0,-1 2,-2 0,-1 1,-1 0,-1 1,-1 0,-1 1,-1 0,-1 1,-1 0,-1 1,-1 0,-1 1,-1 0,-1 1,-1 0,-1 1,-1 0,-1 1,-1 0,-1 1,-1 0,-1 1,-1 0,-1 1,-1 0,-1 1,-1 0,-1 1,-1 0,-1 1,-1 0,-1 1,-1 0,-1 1,-1 0,-1 1,-1 1,-1 0,-1 1,-1 0,-1 1,-1 0,-1 1,-1 0,-1 1,-1 0,-1 1,-1 0,-1 1,-1 0,-1 1,-1 1,-1 0,-1 1,-1 0,-1 1,-1 0,-2 1,-1 0,-1 1,-1 0,-1 1,-1 1,-1 0,-1 1,-1 1,-1 0,-1 1,-1 1,-1 0,-1 1,-1 1,0 0,-2 1,-1 0,-1 1,-1 1,-1 0,-1 1,-1 0,-1 1,-1 0,-1 1,-1 0,-1 1,-1 0,-1 1,-1 0,-1 1,-1 0,-1 1,-1 0,-1 1,-1 0,-1 1,-1 0,-2 1,-1 0,-1 1,-1 0,-1 1,-1 0,-2 1,-1 0,-1 1,-1 0,-1 1,-1 0,-2 1,-1 0,-1 1,-1 0,-2 1,-1 0,-1 1,-1 0,-1 1,-1 0,-2 1,-1 0,-1 1,-1 0,-1 1,-1 0,-2 1,-1 0,-1 1,-1 0,-2 1,-1 0,-1 1,-1 0,-2 1,-1 0,-1 1,-1 0,-1 1,-1 0,-2 1,-1 0,-1 1,-1 0,-2 1,-1 0,-1 1,-1 0,-2 1,-1 0,-1 1,-1 0,-2 1,-1 0,-2 1,-1 0,-1 1,-1 0,-2 1,-1 0,-1 1,-1 0,-2 1,-1 0,-2 -84,0 0,3 1,1 0,2 -1,1 -2,0 -1,1 1,1 0,2 -1,1 -2,0 -1,1 0,1 -1,1 -10,0 -1,1Z"/>
<path onmouseover="hoverPath(evt)" onmouseout="recoverPath(evt)" fill="rgb(244,243,235)" d="M  22,225l 0,0 -1,1 0,1 -1,1 -1,1 0,1 -1,1 0,1 -1,1 0,1 -1,1 0,1 -1,1 0,1 -1,1 0,1 -1,1 0,1 -1,1 0,1 -1,1 -1,1 0,1 -1,1 0,1 -1,1 0,1 -1,1 0,1 -1,1 0,1 70,0 0,-2 1,-1 1,-1 1,-1 1,-1 1,-1 1,-1 1,-1 1,-1 1,-1 1,-1 1,-1 1,-1 1,-1 1,-1 0,-1 1,-1 1,-1 1,-1 1,0 0,-1 1,-1 0,-1 1,-1 1,-1 1,-1 1,-1 -1,-1 -1,0 -1,-1 -2,0 -1,-1 -1,0 -1,-1 -2,0 -1,-1 -2,0 -1,-1 -1,0 -1,-1 -2,0 -1,-1 -1,0 -1,-1 -2,0 -1,-1 -2,0 -1,-1 -1,0 -1,-1 -2,0 -1,-1 -1,0 -1,-1 -2,0 -1,-1 -2,0 -1,-1 -1,0 -1,-1 -2,0 -1,-1 -2,0 -1,-1 -1,0 -1,-1 -2,0 -1,-1 -2,0 -1,-1 -1,0 -1,-1 -2,0 -1,-1 -2,0 -1,-1 -2,0 0,1 -1,1 0,1 -1,1 0,1 -1,1 -1,1 0,1 -1,1 0,1 -1,1 0,1 -1,1 0,2 1,1 0,2 -1,1 -3,0 0,1 -1,1Z"/>
<path onmouseover="hoverPath(evt)" onmouseout="recoverPath(evt)" fill="rgb(246,245,239)" d="M  24,1l 0,1 -1,1 -1,1 0,1 -1,1 -1,1 0,1 -1,1 -1,0 0,2 -1,1 -2,0 -1,-1 0,3 -1,1 0,2 1,0 1,-1 1,0 1,-1 0,-1 1,-1 11,0 0,-1 1,-1 1,-1 2,0 -1,-1 0,-2 1,-1 1,-1 2,0 -1,-1 0,-4 -10,0 -1,1Z"/>
<path onmouseover="hoverPath(evt)" onmouseout="recoverPath(evt)" fill="rgb(253,253,253)" d="M  31,201l -1,0 0,1 -1,1 0,1 -1,1 0,1 -1,1 0,1 -1,1 0,1 -1,1 0,1 -1,1 0,1 -1,1 0,1 -1,1 -1,1 0,1 -1,1 0,1 -1,1 0,1 -1,1 0,1 -1,1 0,1 -1,1 0,1 -1,1 0,1 -1,1 0,1 -1,1 0,1 -1,1 0,1 -1,1 -1,1 0,1 -1,1 0,1 -1,1 0,1 -1,1 0,1 -1,1 0,1 -1,1 0,1 -1,1 0,1 -1,1 0,2 1,0 0,-2 1,-1 0,-1 1,-1 0,-1 1,-1 0,-1 1,-1 0,-1 1,-1 1,-1 0,-1 1,-1 0,-1 1,-1 0,-1 1,-1 0,-1 1,-1 0,-1 1,-1 0,-1 1,-1 0,-1 1,-1 0,-1 1,-1 1,-1 0,-1 1,-1 0,-1 1,-1 0,-1 1,-1 3,0 -1,-1 0,-4 1,-1 0,-1 1,-1 0,-1 1,-1 0,-1 2,-2 0,-1 1,-1 0,-1 1,-1Z"/>
<path onmouseover="hoverPath(evt)" onmouseout="recoverPath(evt)" fill="rgb(244,243,236)" d="M  75,126l 0,1 -1,1 0,1 -1,1 0,1 -1,1 0,1 -1,1 0,1 -1,1 0,1 -1,1 -1,1 0,1 -1,1 0,1 -1,1 0,1 -1,1 0,1 -1,1 0,1 -1,1 0,1 -1,1 0,1 -1,1 -1,1 0,1 -1,1 0,1 -1,1 0,1 -1,1 0,1 -1,1 0,1 -1,1 0,1 -1,1 0,2 -1,1 0,1 -1,1 0,1 -1,1 -1,1 0,1 -1,1 0,1 -1,1 0,1 -1,1 0,1 -1,1 0,1 -1,1 0,1 -1,1 0,1 -1,1 0,1 -1,1 0,1 -1,1 0,1 -1,1 1,1 1,0 1,1 2,0 1,1 2,0 1,1 1,0 1,1 2,0 1,1 2,0 1,1 1,0 1,1 2,0 1,1 2,0 1,1 1,0 1,1 2,0 1,1 1,0 1,1 2,0 1,1 2,0 1,1 1,0 1,1 2,0 1,1 1,0 1,1 2,0 1,1 2,0 1,1 1,0 1,1 2,0 1,1 1,0 1,1 2,0 1,1 1,0 1,1 1,0 1,1 2,-2 1,-1 1,-1 1,-1 0,-2 1,-1 1,0 1,-1 1,-1 1,-1 1,-1 1,-1 0,-1 1,-1 1,0 0,-2 1,-1 1,0 1,-1 1,-1 1,-1 3,-3 0,-1 1,-1 1,0 1,-1 1,-1 3,-3 1,-1 3,-3 1,-1 1,0 0,-1 1,-1 1,-1 3,-3 1,-1 1,-1 1,-1 0,-2 1,-1 1,0 1,-1 1,-1 0,-2 1,-1 1,0 0,-4 -1,-1 -1,0 -1,-1 -1,-1 -1,1 -2,0 -1,-1 -1,-1 -1,0 -1,-1 -1,-1 -1,0 -1,-1 -1,0 -1,-1 -1,-1 -1,-1 0,-2 -1,-1 -1,0 -1,-1 -1,-1 -1,0 -1,-1 -1,-1 -1,1 -2,0 -1,-1 -1,-1 0,-2 -1,1 -2,0 -1,-1 -1,0 -1,-1 -1,0 -1,-1 -1,0 -1,-1 -1,0 -1,-1 -1,0 -1,-1 -1,0 -1,-1 0,-2 -1,1 -3,0 -1,-1 -1,0 -1,-1 -1,0 -1,-1 -2,0 -1,-1 -1,0 -1,-1 -1,0 -1,-1 -1,0 -1,-1 0,-2 -1,0 -1,1 -2,0 -1,-1 -2,0 -1,-1 -1,0 -1,-1 -2,0 -1,-1 -1,0 0,1 -1,1Z"/>
<path onmouseover="hoverPath(evt)" onmouseout="recoverPath(evt)" fill="rgb(244,243,236)" d="M  92,249l -1,0 -1,1 -1,1 -2,0 -1,-1 -1,1 -2,2 -1,1 0,1 88,0 0,-2 -1,1 -3,0 -1,-1 -1,0 -1,-1 -2,0 -1,-1 -2,0 -1,-1 -1,0 -1,-1 -2,0 -1,-1 -1,0 -1,-1 -2,0 -1,-1 -1,0 -1,-1 -2,0 -1,-1 -1,0 -1,-1 -2,0 -1,-1 -2,0 -1,-1 -1,0 -1,-1 -2,0 -1,-1 -2,0 -1,-1 -1,0 -1,-1 -2,0 -1,-1 -2,0 -1,-1 -1,0 -1,-1 -2,0 -1,-1 -4,0 -1,-1 -1,1 -1,1 -1,1 -1,0 -1,1 -1,1 -1,1 0,1 -1,1 0,1 -1,1 -1,0 -1,1 -1,1 -1,1 -1,1 0,1 -1,1 -1,1Z"/>
<path onmouseover="hoverPath(evt)" onmouseout="recoverPath(evt)" fill="rgb(243,241,233)" d="M  0,103l 0,48 3,0 1,-1 0,-1 1,-1 -1,-1 0,-2 1,-1 0,-1 1,-1 0,-1 1,-1 1,-1 0,-1 1,-1 0,-1 1,-1 0,-1 1,-1 0,-1 1,-1 0,-1 1,-1 0,-1 1,-1 1,-1 0,-1 1,-1 0,-1 1,-1 0,-1 1,-1 0,-1 1,-1 0,-1 1,-1 1,-1 0,-1 1,-1 0,-1 1,-1 0,-3 -2,0 -1,-1 -1,0 -1,-1 -2,0 -1,-1 0,-2 -1,1 -4,0 -1,-1 -2,0 -1,-1 -1,0 -1,-1 -2,0 -1,-1 -1,0Z"/>
<path onmouseover="hoverPath(evt)" onmouseout="recoverPath(evt)" fill="rgb(204,218,238)" d="M  92,239l 0,1 -1,1 -1,1 -1,1 -3,3 -1,1 -3,3 -1,1 -3,3 0,1 2,0 0,-2 1,-1 1,-1 1,-1 1,-1 1,-1 2,0 1,1 1,-1 0,0 1,-1 1,0 1,-1 0,-1 1,-1 1,-1 1,-1 1,-1 1,-1 1,0 0,-1 1,-1 0,-1 1,-1 1,-1 1,-1 1,-1 1,0 1,-1 1,-1 1,-1 -2,0 -1,-1 0,-1 -3,0 0,1 -1,1 -1,1 -1,1 -1,1 0,1 -1,1 0,1 -1,1 -1,0 -1,1 -1,1Z"/>
<path onmouseover="hoverPath(evt)" onmouseout="recoverPath(evt)" fill="rgb(244,243,236)" d="M  139,195l -3,3 -1,1 -2,2 -1,1 -2,2 -1,1 -2,2 -1,1 0,1 -1,1 -1,1 -2,2 -1,0 0,1 -1,1 -1,1 -2,2 0,1 -2,2 -1,1 0,1 1,0 1,1 1,0 1,1 2,0 1,1 2,0 1,1 1,0 1,1 2,0 1,1 2,0 1,1 1,0 1,1 2,0 1,1 1,0 1,1 2,0 1,1 2,0 1,1 1,0 1,1 2,0 1,1 1,0 1,1 2,0 1,1 1,0 1,1 2,0 1,1 1,0 1,1 2,0 1,1 2,0 1,1 1,0 1,1 2,0 1,1 1,0 1,1 2,0 1,1 2,0 1,1 1,0 1,1 2,0 1,1 2,0 1,1 1,0 1,1 0,2 64,0 0,-50 -3,0 -1,1 -2,0 -1,-1 0,-2 -1,0 -1,-1 -2,0 -1,-1 -1,0 -1,-1 -1,1 -2,0 -1,-1 -1,0 -1,-1 -1,0 -1,-1 -2,0 -1,-1 -1,0 -1,-1 -1,-1 -1,0 -1,-1 -1,0 -1,-1 -1,0 -1,-1 -1,0 -1,-1 -1,-1 -1,-1 0,-2 1,-1 0,-1 1,-1 0,-1 -1,0 -1,-1 0,-2 -3,0 -1,1 -6,0 -1,-1 -3,0 -1,-1 -5,0 -1,-1 -3,0 -1,-1 0,-2 -3,0 -1,1 -5,0 -1,-1 -3,0 -1,-1 -3,0 -1,-1 -3,0 -1,-1 -2,0 -1,-1 -3,0 -1,-1 -1,0 -1,-1 -3,0 0,1 -1,1 -1,0 0,1 -1,1 0,1 -1,1 -1,1 1,1 0,2 -1,1 -1,1 -1,1 -1,1 -1,1 0,1 -2,2 -1,0 0,1 -1,1 -1,1 -2,2 -1,1 -2,2Z"/>
<path onmouseover="hoverPath(evt)" onmouseout="recoverPath(evt)" fill="rgb(244,243,236)" d="M  226,190l 0,0 1,1 1,0 1,1 0,2 1,1 1,0 1,1 1,0 1,-1 2,0 1,1 1,0 1,1 1,0 1,1 1,0 1,1 1,0 1,1 2,0 1,1 1,0 1,1 1,0 1,1 3,0 0,-203 -124,0 0,4 -1,1 0,1 -1,1 0,2 -1,1 0,1 -1,1 0,2 -1,1 0,2 -1,1 0,1 -1,1 0,2 -1,1 0,1 -1,1 0,2 -1,1 0,1 -1,1 0,2 -1,1 0,1 -1,1 0,2 -1,1 0,1 -1,1 0,1 -1,1 0,2 -1,1 0,1 -1,1 0,2 -1,1 0,1 -1,1 0,2 -1,1 0,1 -1,1 0,1 -1,1 0,2 -1,1 0,1 -1,1 0,2 -1,1 0,1 -1,1 0,1 -1,1 0,2 -1,1 0,1 -1,1 0,1 -1,1 0,2 -1,1 0,1 -1,1 0,1 -1,1 0,2 -1,1 0,1 -1,1 0,2 -1,1 -1,1 0,1 -1,1 0,1 -1,1 0,1 -1,1 0,2 -1,1 -1,1 0,1 -1,1 0,1 -1,1 -1,1 0,1 -1,1 0,1 -1,1 -1,1 0,1 -1,1 -1,1 0,1 -1,1 0,1 1,0 1,1 1,1 0,2 1,0 1,1 1,0 1,-1 2,0 1,1 2,0 1,1 0,2 1,-1 2,0 1,1 0,2 1,0 1,1 1,0 1,-1 2,0 1,1 0,2 1,0 1,1 1,0 1,-1 2,0 1,1 0,2 1,0 1,1 1,0 1,1 1,0 1,1 1,0 1,1 1,0 1,1 1,0 1,1 1,-1 2,0 1,1 0,2 1,1 1,-1 2,0 1,1 1,1 1,0 1,1 1,1 1,0 1,1 1,1 0,2 1,1 1,1 1,0 1,1 1,0 1,1 1,1 1,0 1,1 1,1 1,-1 2,0 1,1 1,1 1,0 1,1 1,1 1,0 1,1 2,0 1,1 1,0 1,1 0,3 1,0 1,1 3,0 1,1 2,0 1,1 3,0 1,1 3,0 1,1 3,0 1,1 3,0 1,-1 5,0 1,1 0,2 3,0 1,1 5,0 1,1 3,0 1,1 4,0 1,-1 5,0 1,1 0,2 1,0 1,1 0,3 -1,1 0,1 -1,1 1,1 0,0 1,1 1,0 1,1 1,-1Z"/>
</svg>