<svg width="256" height="256" xmlns="http://www.w3.org/2000/svg"><script> 
var tempColor;
function hoverPath(evt){
obj = evt.target;
tempColor = obj.getAttribute("fill");
obj.setAttribute("fill","red");
//alert(tempColor);
//obj.setAttribute("stroke","red");}
function recoverPath(evt){
obj = evt.target;
obj.setAttribute("fill", tempColor);
//obj.setAttribute("stroke", tempColor);
}</script><path onmouseover="hoverPath(evt)" onmouseout="recoverPath(evt)" fill="rgb(252,252,250)" d="M  0,162l 0,2 2,0 1,1 0,1 1,1 1,1 1,1 0,1 1,1 1,1 0,4 1,1 2,0 1,1 1,1 1,1 0,1 2,2 1,1 0,1 1,1 1,1 0,1 1,1 1,1 0,1 1,1 1,1 0,1 1,1 0,2 1,1 0,15 1,1 0,14 1,1 0,14 1,1 0,11 1,0 0,-12 -1,-1 0,-14 -1,-1 0,-14 -1,-1 0,-15 -1,-1 0,-3 1,-1 -1,-1 -2,0 -1,-1 -1,-1 0,-1 -1,-1 -1,-1 0,-4 -1,-1 -2,0 -1,-1 -2,-2 0,-1 -1,-1 -1,-1 -1,-1 0,-1 -1,-1 -1,-1 0,-4 -1,-1 -2,0 -1,-1 -1,-1 -1,-1 0,-1 -1,-1 -1,1Z"/>
<path onmouseover="hoverPath(evt)" onmouseout="recoverPath(evt)" fill="rgb(243,242,234)" d="M  0,170l 0,85 26,0 0,-10 -1,-1 0,-14 -1,-1 0,-14 -1,-1 0,-15 -1,-1 0,-2 -1,-1 0,-1 -1,-1 -1,-1 0,-1 -1,-1 -1,-1 0,-1 -1,-1 -1,-1 0,-1 -1,-1 -1,-1 -1,-1 0,-1 -1,-1 -1,-1 -2,0 -1,-1 -1,-1 0,-4 -1,-1 -1,-1 0,-1 -1,-1 -1,-1 -1,-1 0,-1 -1,0Z"/>
<path onmouseover="hoverPath(evt)" onmouseout="recoverPath(evt)" fill="rgb(243,242,234)" d="M  2,135l 0,-2 1,-1 1,0 0,-1 1,-1 1,-1 1,-1 0,-1 1,-1 1,-1 2,0 1,1 0,3 2,0 1,-1 2,0 0,-1 -2,0 -1,-1 0,-1 -1,-1 0,-1 -1,1 -3,0 -1,-1 0,-2 1,-1 0,-4 -5,0 -1,-1 0,-4 1,-1 1,-1 1,-1 1,-1 1,0 1,-1 0,-1 1,-1 0,-3 1,-1 -1,-1 0,-1 -1,-1 0,-1 -1,-1 0,-1 -1,-1 0,-1 -1,-1 0,-1 -1,-1 0,-1 -1,-1 0,-1 -1,-1 0,-2 -1,-1 0,-1 -1,-1 0,-1 -1,0 0,80 2,0 1,1 1,1 0,1 1,1 1,1 2,0 1,1 1,1 0,4 1,1 1,1 0,1 3,3 0,1 1,1 1,1 2,0 1,1 1,1 0,4 1,1 1,1 0,1 1,1 2,0 1,1 1,1 0,2 -1,1 0,1 1,1 0,15 1,1 0,14 1,1 0,14 1,1 0,13 35,0 0,-54 -1,-1 0,-52 -1,-1 0,-1 -1,-1 -1,-1 -7,0 -1,-1 -7,0 -1,-1 -7,0 -1,-1 -7,0 -1,-1 -6,0 -1,-1 -7,0 -1,-1 -7,0 -1,-1 -4,0 -1,-1Z"/>
<path onmouseover="hoverPath(evt)" onmouseout="recoverPath(evt)" fill="rgb(239,237,229)" d="M  13,131l -2,0 -1,-1 0,-3 -1,1 0,1 -2,2 -1,1 0,1 -1,1 -1,0 0,1 4,0 1,1 7,0 1,1 7,0 1,1 6,0 1,1 7,0 1,1 7,0 1,1 7,0 1,1 6,0 1,-1 3,0 1,1 1,1 0,1 1,1 0,48 1,1 0,57 1,1 0,3 1,0 0,-33 -1,-1 0,-73 -1,-1 0,-6 -1,-1 0,-1 -1,-1 -1,-1 -1,-1 -1,-1 -2,0 -1,-1 -1,0 -1,-1 -2,0 -1,-1 -2,0 -1,-1 -1,0 -1,-1 -1,0 -1,-1 -1,0 -1,-1 -1,0 -1,-1 -2,0 -1,-1 -1,0 -1,-1 -1,0 -1,-1 -1,0 -1,-1 -1,0 -1,-1 -1,0 -1,-1 -1,0 -1,-1 -2,0 -1,-1 -1,-1 0,-4 -3,0 -1,-1 0,-2 -2,0 -1,-1 -1,-1 0,-1 -1,-1 0,-1 -1,-1 0,-1 -1,-1 0,-1 -1,0 -1,-1 0,-2 -1,-1 0,-1 -1,-1 0,-1 -1,-1 0,-1 -1,-1 0,-1 -1,-1 0,-1 -1,-1 0,-1 -1,-1 0,-1 -1,-1 0,-1 -1,-1 0,-1 -1,-1 0,-1 -1,-1 0,-1 -1,-1 0,-1 -1,-1 0,-1 -1,0 0,4 2,0 1,2 1,2 1,2 0,1 1,1 0,1 1,1 0,1 1,1 0,1 1,1 0,1 1,1 0,1 1,1 0,1 1,1 0,1 1,1 0,2 -1,1 0,3 -1,1 0,1 -2,2 -1,0 -1,1 -1,1 -1,1 0,2 5,0 1,1 0,6 3,0 1,1 0,1 1,1 0,1 2,0 1,1 0,3 -1,1 -2,0 -1,1 -2,0 -2,-9 0,0 2,9Z"/>
<path onmouseover="hoverPath(evt)" onmouseout="recoverPath(evt)" fill="rgb(169,196,237)" d="M  28,112l 0,0 1,1 0,4 1,1 2,0 1,1 1,0 1,1 1,0 1,1 1,0 1,1 1,0 1,1 1,0 1,1 1,0 1,1 2,0 1,1 1,0 1,1 1,0 1,1 1,0 1,1 1,0 1,1 2,0 1,1 2,0 1,1 1,0 1,1 2,0 1,1 1,1 1,1 1,1 1,1 0,1 1,1 0,6 1,1 0,73 1,1 0,34 181,0 0,-255 -255,0 0,48 3,0 1,-1 10,0 1,-1 13,0 1,-1 9,0 1,-1 12,0 1,-1 9,0 1,-1 8,0 1,-1 5,0 1,-1 7,0 1,1 0,5 -1,1 -5,0 -1,1 -6,0 -1,1 -7,0 -1,1 -9,0 -1,1 -11,0 -1,1 -9,0 -1,1 -13,0 -1,1 -12,0 -1,1 -4,0 0,16 2,0 1,1 0,1 1,1 0,1 1,1 0,1 1,1 0,1 1,1 0,1 1,1 0,1 1,1 0,1 1,1 0,1 1,1 0,1 1,1 0,1 1,1 0,1 1,1 0,1 1,1 0,1 1,1 0,2 1,0 1,1 0,1 1,1 0,1 1,1 0,1 1,1 0,1 1,1 2,0 1,1 0,2Z"/>
<path onmouseover="hoverPath(evt)" onmouseout="recoverPath(evt)" fill="rgb(254,254,254)" d="M  68,252l 0,3 1,0 0,-2 -1,-48 0,-10 -1,-1 0,-48 -1,-1 0,-1 -1,-1 -1,0 1,1 1,2 1,49Z"/>
<path onmouseover="hoverPath(evt)" onmouseout="recoverPath(evt)" fill="rgb(251,241,141)" d="M  77,43l -5,0 -1,1 -8,0 -1,1 -9,0 -1,1 -12,0 -1,1 -9,0 -1,1 -13,0 -1,1 -10,0 -1,1 -4,0 0,3 3,0 1,-1 12,0 1,-1 13,0 1,-1 9,0 1,-1 11,0 1,-1 9,0 1,-1 7,0 1,-1 6,0 1,-1 5,0 0,-3 -5,0 -1,1Z"/>
</svg>