<svg width="256" height="256" xmlns="http://www.w3.org/2000/svg"><script> 
var tempColor;
function hoverPath(evt){
obj = evt.target;
tempColor = obj.getAttribute("fill");
obj.setAttribute("fill","red");
//alert(tempColor);
//obj.setAttribute("stroke","red");}
function recoverPath(evt){
obj = evt.target;
obj.setAttribute("fill", tempColor);
//obj.setAttribute("stroke", tempColor);
}</script><path onmouseover="hoverPath(evt)" onmouseout="recoverPath(evt)" fill="rgb(244,243,236)" d="M  0,2l 0,47 7,0 1,-1 12,0 1,-1 9,0 1,-1 10,0 1,-1 3,0 0,-45 -45,0Z"/>
<path onmouseover="hoverPath(evt)" onmouseout="recoverPath(evt)" fill="rgb(244,243,237)" d="M  0,56l 0,78 13,0 1,-1 15,0 1,-1 9,0 1,-1 6,0 0,-79 -7,0 -1,1 -10,0 -1,1 -20,0 -1,1 -5,0 -1,1Z"/>
<path onmouseover="hoverPath(evt)" onmouseout="recoverPath(evt)" fill="rgb(250,239,143)" d="M  0,162l 0,7 15,0 1,1 1,-1 5,0 1,1 25,0 1,1 0,72 1,1 0,5 -1,1 0,5 8,0 0,-3 -1,-1 0,-5 1,-1 0,-76 1,-1 18,0 1,-1 19,0 1,1 1,-1 8,0 1,-1 1,0 0,-1 1,-1 9,0 1,1 0,-1 1,-1 5,0 1,1 0,-1 1,-1 5,0 1,1 1,0 0,-1 1,-1 4,0 1,1 1,0 0,-1 1,-1 5,0 1,1 0,-1 1,-1 5,0 1,1 0,-1 1,-1 5,0 1,1 1,0 0,-1 1,-1 4,0 1,1 1,0 0,-1 1,-1 5,0 1,1 0,-1 1,-1 5,0 1,1 0,-1 1,-1 5,0 1,1 1,0 0,-1 1,-1 4,0 1,1 1,0 0,-1 1,-1 7,0 1,1 2,0 1,-1 1,0 0,-1 1,-1 4,0 1,1 0,-1 1,-1 5,0 1,1 0,-1 1,-1 4,0 1,1 1,0 0,-1 1,-1 4,0 1,1 0,2 3,0 1,-1 0,-1 1,-1 2,0 0,-1 1,-1 4,0 1,1 0,-1 1,-1 3,0 0,-6 -5,0 -1,1 -6,0 -1,1 -6,0 -1,-1 -5,0 0,2 -1,1 -6,0 -1,1 -5,0 -1,1 -6,0 -1,1 -7,0 -1,1 -4,0 -1,1 -6,0 -1,1 -6,0 -1,1 -5,0 -1,1 -6,0 -1,1 -5,0 -1,1 -5,0 -1,1 -5,0 -1,-1 -5,0 -1,1 -1,0 0,1 -1,1 -5,0 -1,-1 0,1 -1,1 -8,0 -1,-1 0,1 -1,1 -9,0 -1,-1 -1,0 0,1 -1,1 -7,0 -1,-1 0,-1 -1,1 -2,0 0,1 -1,1 -7,0 -1,-1 -2,0 0,1 -1,1 -8,0 -1,-1 0,-2 -9,0 0,1 -1,1 -2,0 -1,-1 -11,0 -1,-1 0,-21 -1,-1 0,-4 1,-1 0,-50 -1,-1 0,-28 -1,-1 0,-4 1,-1 1,-1 0,-2 -2,0 -1,-1 0,-4 1,-1 0,-2 -1,-1 0,-7 1,-1 1,0 0,-25 -9,0 0,45 1,0 1,1 0,5 -1,1 0,77 1,0 1,1 0,6 -1,1 -1,0 1,1 0,20 -1,1 -13,0 -1,1 -3,0 -1,-1 -13,0 -1,1 -16,0Z"/>
<path onmouseover="hoverPath(evt)" onmouseout="recoverPath(evt)" fill="rgb(171,198,238)" d="M  0,242l 0,2 3,0 1,-1 17,0 1,1 5,0 1,1 2,2 0,3 -1,1 0,4 2,0 0,-4 1,-1 0,-3 1,-1 5,0 1,1 4,0 1,1 4,0 0,-3 -4,0 -1,-1 -4,0 -1,-1 -5,0 -1,-1 -4,0 -1,-1 -5,0 -1,-1 -1,0 -1,-1 0,-13 1,-1 0,-5 1,-1 0,-1 1,-1 1,-1 0,-1 1,-1 0,-1 1,-1 0,-5 -1,-1 0,-12 -1,-1 0,-9 -1,-1 0,-9 -1,-1 0,-2 -3,0 1,1 0,6 1,1 0,7 1,1 0,9 1,1 0,14 -1,1 0,1 -1,1 0,1 -1,1 0,2 -1,1 0,2 -1,1 0,8 -1,1 0,7 -1,1 -1,1 -3,0 -1,1 -9,0 -1,1Z"/>
<path onmouseover="hoverPath(evt)" onmouseout="recoverPath(evt)" fill="rgb(244,243,236)" d="M  20,140l 0,8 1,1 0,8 10,0 1,1 1,0 1,-1 13,0 0,-18 -1,-1 0,-1 -6,0 -1,1 -10,0 -1,1 -7,0 -1,1Z"/>
<path onmouseover="hoverPath(evt)" onmouseout="recoverPath(evt)" fill="rgb(245,244,237)" d="M  24,172l -1,0 1,1 0,9 1,1 0,9 1,1 0,12 1,1 0,7 -1,1 0,1 -1,1 0,1 -1,1 -1,1 0,1 -1,1 0,5 -1,1 0,11 1,0 1,1 5,0 1,1 4,0 1,1 5,0 1,1 4,0 1,1 2,0 0,-71Z"/>
<path onmouseover="hoverPath(evt)" onmouseout="recoverPath(evt)" fill="rgb(175,200,238)" d="M  58,248l 0,2 1,1 0,4 27,0 0,-2 1,-1 3,0 1,-1 2,0 1,-1 2,0 1,-1 3,0 1,-1 2,0 1,-1 2,0 1,-1 3,0 1,-1 2,0 1,-1 2,0 1,-1 3,0 1,-1 3,0 1,-1 3,0 1,-1 2,0 1,-1 2,0 1,-1 3,0 1,-1 3,0 1,-1 3,0 1,-1 2,0 1,-1 3,0 1,-1 2,0 1,-1 2,0 1,-1 5,0 1,1 0,2 1,1 0,3 1,1 0,2 1,1 0,2 1,1 0,3 1,1 0,3 1,1 0,2 3,0 0,-2 -1,-1 0,-3 -1,-1 0,-3 -1,-1 0,-3 -1,-1 0,-3 -1,-1 0,-2 -1,-1 0,-2 1,-1 1,-1 2,0 1,-1 3,0 1,-1 4,0 1,-1 2,0 1,-1 3,0 1,-1 2,0 1,-1 2,0 1,-1 3,0 1,-1 2,0 1,-1 3,0 1,-1 2,0 1,-1 3,0 1,-1 3,0 1,-1 1,0 0,-2 -5,0 -1,1 -2,0 -1,1 -2,0 -1,1 -3,0 -1,1 -2,0 -1,1 -3,0 -1,1 -3,0 -1,1 -3,0 -1,1 -3,0 -1,1 -4,0 -1,1 -3,0 -1,1 -4,0 -1,1 -3,0 -1,1 -4,0 -1,1 -3,0 -1,1 -3,0 -1,1 -2,0 -1,1 -3,0 -1,1 -2,0 -1,1 -2,0 -1,1 -3,0 -1,1 -3,0 -1,1 -2,0 -1,1 -3,0 -1,1 -3,0 -1,1 -3,0 -1,1 -2,0 -1,1 -3,0 -1,1 -3,0 -1,1 -2,0 -1,1 -3,0 -1,1 -2,0 -1,1 -2,0 -1,1 -2,0 -1,1 -3,0 -1,1 -3,0 -1,1 -12,0 -1,-1 -4,0 -1,-1 -4,0 -1,-1 -1,1Z"/>
<path onmouseover="hoverPath(evt)" onmouseout="recoverPath(evt)" fill="rgb(171,198,237)" d="M  60,132l -2,0 0,2 7,0 1,-1 9,0 1,-1 1,0 0,-7 -1,-1 0,-6 -1,-1 0,-6 -1,-1 0,-7 -1,-1 0,-5 -1,-1 0,-5 -1,-1 0,-5 -1,-1 0,-5 -1,-1 0,-5 -1,-1 0,-5 -1,-1 0,-5 -1,-1 0,-5 -1,-1 0,-4 1,-1 1,-1 7,0 1,-1 9,0 1,-1 8,0 1,-1 8,0 1,-1 11,0 1,-1 11,0 1,-1 10,0 1,-1 9,0 1,-1 9,0 1,-1 10,0 1,-1 7,0 0,-2 -10,0 -1,1 -9,0 -1,1 -10,0 -1,1 -9,0 -1,1 -10,0 -1,1 -3,0 -1,-1 -1,-1 0,-3 -1,-1 0,-2 -1,-1 0,-3 -1,-1 0,-2 -1,-1 0,-2 -1,-1 0,-2 -1,-1 0,-2 -1,-1 0,-2 -1,-1 0,-2 -1,-1 0,-2 -1,-1 0,-2 -1,-1 0,-1 -1,-1 0,-2 -3,0 0,2 1,1 0,2 1,1 0,2 1,1 0,3 1,1 0,2 1,1 0,2 1,1 0,2 1,1 0,2 1,1 0,2 1,1 0,2 1,1 0,2 1,1 0,2 1,1 0,3 -2,2 -8,0 -1,1 -10,0 -1,1 -10,0 -1,1 -11,0 -1,1 -6,0 -1,-1 -1,-1 0,-2 -1,-1 0,-2 -1,-1 0,-2 -1,-1 0,-3 -1,-1 0,-2 -1,-1 0,-1 -1,0 0,5 1,1 0,4 -1,1 0,2 2,0 1,1 0,4 -2,2 0,2 2,0 1,1 1,1 0,3 1,1 0,3 1,1 0,4 1,1 0,4 1,1 0,5 1,1 0,5 1,1 0,5 1,1 0,5 1,1 0,5 1,1 0,5 1,1 0,5 1,1 0,6 1,1 0,6 1,1 0,4 -1,1 -1,0 -1,1 -10,0 -1,1Z"/>
<path onmouseover="hoverPath(evt)" onmouseout="recoverPath(evt)" fill="rgb(244,243,236)" d="M  60,170l -1,0 0,75 1,0 1,1 4,0 1,1 4,0 1,1 10,0 1,-1 3,0 1,-1 3,0 1,-1 2,0 1,-1 2,0 1,-1 2,0 1,-1 3,0 1,-1 2,0 1,-1 3,0 1,-1 3,0 1,-1 2,0 1,-1 3,0 1,-1 3,0 1,-1 3,0 1,-1 2,0 1,-1 3,0 1,-1 3,0 1,-1 2,0 1,-1 2,0 1,-1 3,0 1,-1 2,0 1,-1 3,0 1,-1 3,0 1,-1 4,0 1,-1 3,0 1,-1 4,0 1,-1 3,0 1,-1 4,0 1,-1 3,0 1,-1 3,0 1,-1 3,0 1,-1 3,0 1,-1 2,0 1,-1 3,0 1,-1 2,0 1,-1 2,0 1,-1 6,0 0,-2 -1,-1 0,-2 -1,-1 0,-3 -1,-1 0,-2 -1,-1 0,-3 -1,-1 0,-3 -1,-1 0,-2 -1,-1 0,-3 -1,-1 0,-2 -1,-1 0,-5 1,-1 2,0 1,1 1,1 1,-1 2,0 1,-1 2,0 1,1 1,0 0,-2 1,-1 2,0 1,-1 1,0 1,-1 1,0 1,-1 5,0 1,1 3,0 0,-1 1,-1 -1,0 -1,-1 0,-3 -1,-1 0,-4 -1,-1 0,-3 -1,-1 0,-6 -2,0 0,1 -1,1 -3,0 -1,-1 -2,0 0,1 -1,1 -2,0 -1,-1 -3,0 0,1 -1,1 -2,0 -1,-1 -2,0 0,1 -1,1 -1,0 -1,1 -4,0 -1,-1 -5,0 0,1 -1,1 -3,0 -1,-1 -2,0 0,1 -1,1 -3,0 -1,-1 -3,0 0,1 -1,1 -2,0 -1,-1 -3,0 0,1 -1,1 -2,0 -1,-1 -3,0 0,1 -1,1 -3,0 -1,-1 -2,0 0,1 -1,1 -3,0 -1,-1 -3,0 0,1 -1,1 -2,0 -1,-1 -3,0 0,1 -1,1 -2,0 -1,-1 -3,0 0,1 -1,1 -3,0 -1,-1 -2,0 0,1 -1,1 -3,0 -1,-1 -3,0 0,1 -1,1 -2,0 -1,-1 -3,0 0,1 -1,1 -2,0 -1,-1 -7,0 0,1 -1,1 -1,0 -1,1 -8,0 -1,1 -2,0 -1,-1 -17,0 -1,1Z"/>
<path onmouseover="hoverPath(evt)" onmouseout="recoverPath(evt)" fill="rgb(245,244,237)" d="M  91,254l -3,0 0,1 4,0 -1,-1 4,1 75,0 0,-1 -1,-1 0,-3 -1,-1 0,-3 -1,-1 0,-2 -1,-1 0,-2 -1,-1 0,-3 -1,-1 0,-2 -3,0 -1,1 -2,0 -1,1 -2,0 -1,1 -3,0 -1,1 -2,0 -1,1 -3,0 -1,1 -3,0 -1,1 -3,0 -1,1 -2,0 -1,1 -2,0 -1,1 -3,0 -1,1 -3,0 -1,1 -3,0 -1,1 -2,0 -1,1 -2,0 -1,1 -3,0 -1,1 -2,0 -1,1 -2,0 -1,1 -3,0 -1,1 -2,0 0,3 -4,-1Z"/>
<path onmouseover="hoverPath(evt)" onmouseout="recoverPath(evt)" fill="rgb(244,243,236)" d="M  171,232l 0,0 1,1 0,2 1,1 0,3 1,1 0,3 1,1 0,3 1,1 0,3 1,1 0,3 78,0 0,-45 -4,0 -1,1 -6,0 -1,1 -4,0 -1,1 -3,0 -1,1 -2,0 -1,1 -2,0 -1,1 -3,0 0,4 -1,1 -2,0 -1,-1 0,-3 -1,1 -1,0 -1,1 -3,0 -1,1 -3,0 -1,1 -2,0 -1,1 -3,0 -1,1 -2,0 -1,1 -3,0 -1,1 -2,0 -1,1 -2,0 -1,1 -3,0 -1,1 -2,0 -1,1 -4,0 -1,1 -3,0 -1,1 -2,0 -1,1Z"/>
<path onmouseover="hoverPath(evt)" onmouseout="recoverPath(evt)" fill="rgb(171,198,238)" d="M  182,35l -1,0 0,2 9,0 1,-1 9,0 1,-1 9,0 1,1 0,1 1,1 0,4 1,1 0,4 1,1 0,4 1,1 0,4 1,1 0,5 1,1 0,5 1,1 0,5 1,1 0,6 1,1 0,5 1,1 0,2 1,1 0,3 1,1 0,2 1,1 0,3 1,1 0,7 1,1 0,3 1,1 0,4 1,1 0,4 1,1 0,3 1,1 0,4 1,1 0,2 -1,1 2,0 0,-6 -1,-1 0,-5 -1,-1 0,-6 -1,-1 0,-4 -1,-1 0,-4 -1,-1 0,-3 -1,-1 0,-3 -1,-1 0,-3 -1,-1 0,-3 -1,-1 0,-2 -1,-1 0,-2 1,-1 1,-1 1,-1 2,0 1,-1 3,0 1,-1 2,0 1,-1 2,0 1,-1 4,0 1,-1 3,0 1,-1 3,0 1,-1 4,0 0,-2 -3,0 -1,1 -2,0 -1,1 -3,0 -1,1 -3,0 -1,1 -3,0 -1,1 -3,0 -1,1 -4,0 -1,1 -4,0 -1,-1 -1,-1 0,-4 -1,-1 0,-5 -1,-1 0,-4 -1,-1 0,-5 -1,-1 0,-5 -1,-1 0,-5 -1,-1 0,-6 -1,-1 0,-2 1,-1 1,-1 6,0 1,-1 9,0 1,-1 8,0 1,-1 8,0 1,-1 4,0 0,-2 -7,0 -1,1 -5,0 -1,-1 -1,-1 0,-10 -1,-1 0,-9 -1,-1 0,-6 -2,0 0,8 1,1 0,19 -1,1 -1,1 -5,0 -1,1 -8,0 -1,1 -10,0 -1,1 -10,0 -1,1 -10,0 -1,1Z"/>
<path onmouseover="hoverPath(evt)" onmouseout="recoverPath(evt)" fill="rgb(244,243,235)" d="M  182,39l -2,0 -1,-1 0,5 1,1 0,4 1,1 0,3 1,1 0,3 1,1 0,3 1,1 0,4 1,1 0,3 1,1 0,3 1,1 0,3 1,1 0,4 1,1 0,3 2,0 1,1 0,4 1,1 0,5 1,1 0,4 1,1 0,4 -1,1 0,2 1,1 0,4 1,1 0,4 1,1 0,3 1,1 0,3 1,1 0,2 1,1 0,3 1,1 0,2 1,1 0,4 6,0 1,-1 6,0 1,-1 5,0 1,-1 6,0 0,-4 1,-1 -1,-1 0,-4 -1,-1 0,-3 -1,-1 0,-4 -1,-1 0,-4 -1,-1 0,-3 -1,-1 0,-7 -1,-1 0,-3 -1,-1 0,-2 -1,-1 0,-3 -1,-1 0,-2 -1,-1 0,-5 -1,-1 0,-6 -1,-1 0,-5 -1,-1 0,-5 -1,-1 0,-5 -1,-1 0,-4 -1,-1 0,-4 -1,-1 0,-4 -1,-1 0,-4 -1,-1 0,-1 -7,0 -1,1 -9,0 -1,1 -9,0 -4,-1 1,-1 0,-2 -1,-1 0,4 4,1Z"/>
<path onmouseover="hoverPath(evt)" onmouseout="recoverPath(evt)" fill="rgb(244,243,235)" d="M  215,179l -1,0 -1,-1 -1,-1 0,3 1,1 0,2 1,1 0,3 1,1 0,2 1,1 0,3 1,1 0,3 1,1 0,2 1,1 0,3 1,1 0,2 1,1 0,6 1,0 1,1 0,-1 -1,-1 0,-3 1,-1 1,0 1,-1 2,0 1,-1 3,0 1,-1 2,0 1,-1 4,0 1,-1 3,0 0,-3 -1,-1 0,-4 -1,-1 0,-4 -1,-1 0,-3 -1,-1 0,-4 -1,-1 0,-3 -1,-1 0,-5 -1,0 -1,-1 -3,0 -1,1 -1,0 -1,1 -1,0 -1,1 -2,0 0,2 -1,1 -3,0 -1,-1 -1,1 -2,0 -1,1Z"/>
<path onmouseover="hoverPath(evt)" onmouseout="recoverPath(evt)" fill="rgb(244,243,236)" d="M  225,86l 0,0 -1,1 1,1 0,2 1,1 0,3 1,1 0,3 1,1 0,3 1,1 0,3 1,1 0,4 1,1 0,4 1,1 0,6 1,1 0,5 1,1 0,7 2,0 1,1 4,0 1,-1 6,0 1,-1 6,0 0,-58 -3,0 -1,1 -3,0 -1,1 -3,0 -1,1 -4,0 -1,1 -2,0 -1,1 -2,0 -1,1 -3,0 -1,1 -2,0 -1,1Z"/>
<path onmouseover="hoverPath(evt)" onmouseout="recoverPath(evt)" fill="rgb(243,242,232)" d="M  0,141l 0,17 15,0 0,-3 -1,-1 0,-6 -1,-1 0,-5 -1,-1 0,-1 -11,0 -1,1Z"/>
<path onmouseover="hoverPath(evt)" onmouseout="recoverPath(evt)" fill="rgb(244,243,236)" d="M  0,173l 0,66 9,0 1,-1 3,0 1,-1 0,-7 1,-1 0,-8 1,-1 0,-2 1,-1 0,-2 1,-1 0,-1 1,-1 0,-1 1,-1 0,-12 -1,-1 0,-9 -1,-1 0,-7 -1,-1 0,-6 -1,-1 -1,0 -1,-1 -14,0Z"/>
<path onmouseover="hoverPath(evt)" onmouseout="recoverPath(evt)" fill="rgb(244,243,237)" d="M  0,247l 0,8 27,0 0,-5 1,-1 0,-1 -1,-1 0,0 -1,-1 -5,0 -1,-1 -15,0 -1,1 -3,0 -1,1Z"/>
<path onmouseover="hoverPath(evt)" onmouseout="recoverPath(evt)" fill="rgb(171,198,237)" d="M  8,51l -8,0 0,2 5,0 1,-1 1,0 1,-1 2,-1 0,2 16,0 1,-1 10,0 1,-1 9,0 0,-3 -4,0 -1,1 -10,0 -1,1 -9,0 -1,1 -11,0 -2,1Z"/>
<path onmouseover="hoverPath(evt)" onmouseout="recoverPath(evt)" fill="rgb(172,198,236)" d="M  30,135l -15,0 -1,1 -14,0 0,2 13,0 1,1 0,1 1,1 0,5 1,1 0,6 1,1 0,3 2,0 0,-7 -1,-1 0,-11 1,-1 8,0 1,-1 1,0 1,-1 1,1 7,0 1,-1 9,0 0,-4 -1,2 -6,0 -1,1 -9,0 0,2 -1,-1Z"/>
<path onmouseover="hoverPath(evt)" onmouseout="recoverPath(evt)" fill="rgb(245,244,237)" d="M  34,249l 0,2 -1,1 0,3 14,0 0,-5 -4,0 -1,-1 -4,0 -1,-1 -2,0 -1,1Z"/>
<path onmouseover="hoverPath(evt)" onmouseout="recoverPath(evt)" fill="rgb(244,243,237)" d="M  58,1l 0,24 1,1 0,1 1,1 0,2 1,1 0,3 1,1 0,2 1,1 0,2 1,1 0,2 1,1 4,0 1,-1 11,0 1,-1 10,0 1,-1 10,0 1,-1 8,0 1,-1 0,-1 -1,-1 0,-2 -1,-1 0,-2 -1,-1 0,-2 -1,-1 0,-2 -1,-1 0,-2 -1,-1 0,-2 -1,-1 0,-2 -1,-1 0,-2 -1,-1 0,-3 -1,-1 0,-2 -1,-1 0,-2 -1,-1 0,-3 -42,0 -1,1Z"/>
<path onmouseover="hoverPath(evt)" onmouseout="recoverPath(evt)" fill="rgb(245,244,237)" d="M  59,55l 0,-3 -1,-1 0,4 1,0 -1,3 0,20 1,1 0,51 1,-1 10,0 1,-1 1,0 0,-2 -1,-1 0,-6 -1,-1 0,-6 -1,-1 0,-5 -1,-1 0,-5 -1,-1 0,-5 -1,-1 0,-5 -1,-1 0,-5 -1,-1 0,-5 -1,-1 0,-5 -1,-1 0,-4 -1,-1 0,-4 -1,-1 -2,-1 1,-3Z"/>
<path onmouseover="hoverPath(evt)" onmouseout="recoverPath(evt)" fill="rgb(244,243,236)" d="M  59,137l 0,19 11,0 1,1 0,-1 1,-1 11,0 1,1 0,2 6,0 0,-1 1,-1 4,0 1,1 5,0 0,-1 1,-1 2,0 1,-1 2,0 1,1 0,1 5,0 0,-1 1,-1 3,0 1,1 7,0 0,-1 1,-1 2,0 1,1 6,0 0,-1 1,-1 2,0 1,1 3,0 0,-1 1,-1 1,0 1,-1 7,0 1,1 3,0 1,-1 5,0 1,-1 5,0 1,-1 6,0 1,-1 5,0 1,-1 6,0 1,-1 6,0 1,-1 4,0 0,-4 -1,-1 0,-2 -1,-1 0,-3 -1,-1 0,-2 -1,-1 0,-3 -1,-1 0,-3 -1,-1 0,-4 -1,-1 0,-4 -1,-1 0,-4 1,-1 0,-2 -1,-1 0,-4 -1,-1 0,-5 -1,-1 0,-4 -2,0 -1,-1 0,-3 -1,-1 0,-4 -1,-1 0,-3 -1,-1 0,-3 -1,-1 0,-3 -1,-1 0,-4 -1,-1 0,-3 -1,-1 0,-3 -1,-1 0,-3 -1,-1 0,-4 -1,-1 0,-4 -7,0 -1,1 -10,0 -1,1 -9,0 -1,1 -9,0 -1,1 -10,0 -1,1 -11,0 -1,1 -11,0 -1,1 -8,0 -1,1 -8,0 -1,1 -9,0 -1,1 -7,0 -1,1 0,2 1,1 0,5 1,1 0,5 1,1 0,5 1,1 0,5 1,1 0,5 1,1 0,5 1,1 0,5 1,1 0,5 1,1 0,7 1,1 0,6 1,1 0,6 1,1 0,9 -1,1 -1,0 -1,1 -9,0 -1,1 -6,0 -1,1Z"/>
<path onmouseover="hoverPath(evt)" onmouseout="recoverPath(evt)" fill="rgb(244,243,236)" d="M  108,1l 0,0 1,1 0,1 1,1 0,2 1,1 0,2 1,1 0,2 1,1 0,2 1,1 0,2 1,1 0,2 1,1 0,2 1,1 0,2 1,1 0,3 1,1 0,2 1,1 0,3 1,1 1,0 1,-1 10,0 1,-1 9,0 1,-1 10,0 1,-1 9,0 1,-1 11,0 0,-3 1,-1 0,-3 -1,-1 0,-4 -1,-1 0,-6 -1,-1 0,-4 -2,0 -1,-1 0,-4 -1,-1 0,-4 -61,0 -1,1Z"/>
<path onmouseover="hoverPath(evt)" onmouseout="recoverPath(evt)" fill="rgb(244,243,236)" d="M  176,0l -4,0 0,3 1,1 0,4 2,0 1,1 0,4 1,1 0,6 1,1 0,4 1,1 0,4 1,1 0,2 6,0 1,-1 10,0 1,-1 10,0 1,-1 10,0 1,-1 8,0 1,-1 5,0 1,-1 0,-17 -1,-1 0,-9Z"/>
<path onmouseover="hoverPath(evt)" onmouseout="recoverPath(evt)" fill="rgb(244,243,237)" d="M  216,37l 0,0 1,1 0,6 1,1 0,5 1,1 0,5 1,1 0,5 1,1 0,4 1,1 0,5 1,1 0,4 1,1 2,0 1,-1 4,0 1,-1 3,0 1,-1 3,0 1,-1 3,0 1,-1 3,0 1,-1 2,0 1,-1 4,0 0,-40 -3,0 -1,1 -8,0 -1,1 -8,0 -1,1 -9,0 -1,1 -6,0 -1,1Z"/>
<path onmouseover="hoverPath(evt)" onmouseout="recoverPath(evt)" fill="rgb(244,243,237)" d="M  240,1l 0,4 1,1 0,9 1,1 0,10 1,1 3,0 1,-1 8,0 0,-26 -14,0 -1,1Z"/>
<path onmouseover="hoverPath(evt)" onmouseout="recoverPath(evt)" fill="rgb(172,198,238)" d="M  241,183l 0,3 1,1 0,3 1,1 0,4 1,1 0,4 1,1 0,5 -1,1 -3,0 -1,1 -4,0 -1,1 -2,0 -1,1 -3,0 -1,1 -2,0 -1,1 -1,0 0,1 1,1 2,0 1,-1 2,0 1,-1 2,0 1,-1 3,0 1,-1 4,0 1,-1 6,0 1,-1 5,0 0,-3 -2,0 -1,1 -3,0 -1,-1 -1,-1 0,-1 -1,-1 0,-4 -1,-1 0,-4 -1,-1 0,-5 -1,-1 0,-3 -1,-1 -1,1 1,-3 0,-1 -1,-1 0,-5 -2,0 0,4 1,1 0,3 2,-1 -1,3Z"/>
<path onmouseover="hoverPath(evt)" onmouseout="recoverPath(evt)" fill="rgb(244,242,234)" d="M  255,162l 0,-16 -2,0 0,1 -1,1 -2,0 -1,-1 -2,0 0,1 -1,1 -2,0 0,1 -1,1 -1,1 -4,0 0,2 1,1 0,3 1,1 0,4 1,1 0,3 3,0 1,1 0,2 -1,1 -2,0 1,1 0,5 1,1 0,3 1,1 0,3 1,1 0,5 1,1 0,4 1,1 0,4 1,1 0,1 1,1 1,0 1,-1 3,0Z"/>
</svg>