<svg width="256" height="256" xmlns="http://www.w3.org/2000/svg"><script> 
var tempColor;
function hoverPath(evt){
obj = evt.target;
tempColor = obj.getAttribute("fill");
obj.setAttribute("fill","red");
//alert(tempColor);
//obj.setAttribute("stroke","red");}
function recoverPath(evt){
obj = evt.target;
obj.setAttribute("fill", tempColor);
//obj.setAttribute("stroke", tempColor);
}</script><path onmouseover="hoverPath(evt)" onmouseout="recoverPath(evt)" fill="rgb(246,236,139)" d="M  103,235l -7,0 -1,1 -4,0 -1,1 -3,0 1,1 0,0 1,1 0,3 1,1 1,1 1,1 1,0 1,-1 3,0 1,-1 2,0 1,-1 4,0 1,1 0,-1 1,-1 3,0 1,1 1,0 1,-1 1,0 1,-1 3,0 1,-1 3,0 1,-1 2,0 1,-1 3,0 1,-1 3,0 1,-1 2,0 1,-1 3,0 0,-2 1,-1 4,0 1,-1 2,0 1,-1 4,0 1,1 0,-1 1,-1 3,0 1,1 0,0 1,-1 2,0 1,-1 3,0 0,-2 1,-1 2,0 1,-1 4,0 1,1 1,0 1,-1 3,0 1,1 1,0 0,-1 1,-1 1,-1 3,0 1,-1 3,0 1,-1 2,0 1,-1 3,0 1,-1 4,0 1,-1 2,0 1,-1 3,0 1,1 0,2 2,0 1,-1 2,0 0,-4 1,-1 2,0 1,-1 3,0 0,-1 1,-1 1,0 1,-1 2,0 1,-1 3,0 1,1 1,0 1,-1 2,0 1,-1 3,0 1,-1 3,0 0,-1 1,-1 1,0 1,-1 7,0 0,-10 -2,0 -1,1 -4,0 -1,1 -2,0 -1,1 -2,0 -1,1 -3,0 -1,1 -2,0 -1,1 -3,0 -1,1 -2,0 -1,1 -3,0 -1,1 -2,0 -1,1 -3,0 -1,1 -2,0 -1,1 -3,0 -1,1 -3,0 -1,1 -2,0 -1,1 -3,0 -1,1 -2,0 -1,1 -3,0 -1,1 -3,0 -1,1 -2,0 -1,1 -3,0 -1,1 -2,0 -1,1 -3,0 -1,1 -2,0 -1,1 -3,0 -1,1 -2,0 -1,1 -3,0 -1,1 -4,0 -1,-1 0,-2 -1,-1 0,-2 -1,-1 0,-2 -1,-1 0,-2 -1,-1 0,-2 -1,-1 0,-2 -1,-1 0,-2 -1,-1 0,-2 -1,-1 0,-2 -1,-1 0,-1 -1,-1 0,-2 -1,-1 0,-2 -1,-1 0,-2 -1,-1 0,-2 -1,-1 0,-1 -1,-1 0,-2 -1,-1 0,-2 -1,-1 0,-2 -1,-1 0,-2 -1,-1 0,-1 -1,-1 0,-2 -1,-1 0,-2 -1,-1 0,-2 -1,-1 0,-2 -1,-1 0,-2 -1,-1 0,-19 1,-1 0,-3 1,-1 0,-1 1,-1 0,-1 1,-1 0,-1 1,-1 0,-1 1,-1 1,-1 0,-1 1,-1 1,-1 1,-1 1,-1 1,-1 0,-1 1,-1 1,0 1,-1 1,-1 0,-1 1,-1 2,0 1,-1 1,-1 1,0 1,-1 1,-1 1,0 1,-1 1,0 1,-1 1,0 1,-1 2,0 1,-1 2,0 1,-1 2,0 1,-1 3,0 1,-1 5,0 0,-1 1,-1 1,-1 2,0 1,1 1,1 0,-1 1,-1 1,0 1,-1 3,0 1,-1 2,0 1,-1 3,0 1,-1 3,0 1,-1 2,0 1,-1 3,0 1,-1 2,0 1,-1 3,0 1,-1 2,0 1,-1 3,0 1,-1 2,0 1,-1 3,0 1,-1 3,0 1,-1 2,0 1,-1 3,0 1,-1 2,0 0,-2 1,-1 5,0 1,-1 2,0 1,1 3,0 0,-5 -2,0 -1,-1 -1,0 -1,1 -3,0 -1,1 -2,0 -1,1 -3,0 -1,1 -2,0 -1,1 -3,0 -1,1 -2,0 -1,1 -3,0 -1,1 -3,0 -1,1 -2,0 -1,1 -3,0 -1,1 -2,0 -1,1 -3,0 -1,1 -2,0 -1,1 -3,0 -1,1 -3,0 -1,1 -2,0 -1,1 -3,0 -1,1 -2,0 -1,1 -3,0 -1,1 -3,0 -1,1 -2,0 -1,1 -3,0 -1,1 -3,0 -1,1 -2,0 -1,1 -2,0 -1,1 -1,0 -1,1 -2,0 -1,1 -1,0 -1,1 -1,0 -1,1 -1,0 -1,1 -1,0 -1,1 -1,1 -1,0 -1,1 -1,1 -1,0 -1,1 -1,1 0,2 -1,1 -1,1 -2,0 -3,3 0,1 -1,1 -1,0 0,1 -1,1 -1,1 0,1 -1,1 0,1 -1,1 0,1 -1,1 0,1 -1,1 0,1 -1,1 0,2 -1,1 0,2 -1,1 0,18 1,1 0,4 1,1 0,1 1,1 0,2 1,1 0,1 1,1 0,2 1,1 0,3 -1,1 0,1 1,1 0,1 1,1 0,3 1,1 0,1 2,0 1,1 0,2 -1,1 0,1 1,1 0,2 2,0 1,1 0,2 1,1 0,2 -1,1 0,2 1,1 0,1 1,1 0,2 2,0 1,1 0,2 1,1 0,2 1,1 0,2 1,1 0,2 1,1 0,3 -1,1 0,1 1,1 0,2 1,1 0,5 -1,1 -2,0 -1,1 -1,0 -1,1 -3,0 -1,-1 -2,0 -1,1 -2,0 -1,1 -3,0 -1,1 -2,0 -1,1 -3,0 -1,1 -2,0 -1,1 -3,0 -1,1 -2,0 -1,1 -3,0 -1,1 -2,0 -1,1Z"/>
<path onmouseover="hoverPath(evt)" onmouseout="recoverPath(evt)" fill="rgb(236,236,208)" d="M  212,255l 12,0 0,-5 1,-1 1,0 1,-1 1,0 1,-1 0,-1 1,-1 1,-1 0,-1 1,-1 -1,-1 -1,0 -1,-1 -1,-1 0,-3 1,-1 2,0 1,-1 0,-1 1,-1 1,0 0,-2 1,-1 1,0 0,-1 1,-1 1,-1 1,-1 0,-2 -5,0 -1,-1 0,-2 1,-1 2,0 1,-1 4,0 1,1 1,1 0,2 1,1 0,2 1,0 1,-1 0,-1 1,-1 1,-1 1,-1 0,-1 1,-1 1,-1 0,-1 -1,-1 0,-2 -1,-1 0,-2 -1,-1 0,-1 -1,-1 0,-2 -1,2 -3,0 -1,1 -3,0 -1,1 -2,0 -1,1 -3,0 -1,-1 -1,0 -1,1 -2,0 -1,1 -1,0 0,1 -1,1 -3,0 -1,1 -2,0 0,4 -1,1 -2,0 -1,1 -4,0 -1,-1 0,-2 -1,0 -1,1 -2,0 -1,1 -4,0 -1,1 -3,0 -1,1 -2,0 -1,1 -3,0 -1,1 -3,0 -1,1 0,1 -1,1 -3,0 -1,-1 -1,0 -1,1 -3,0 -1,-1 -2,0 -1,1 -2,0 0,2 -1,1 -3,0 -1,1 -2,0 0,2 -1,1 -2,0 -1,-1 0,-2 -1,0 0,1 -1,1 -1,0 -1,1 -2,0 0,2 1,1 0,2 1,1 0,3 1,1 0,2 1,1 0,2 1,1 0,2 1,1 0,3 55,0 32,-29 -1,0 0,1 1,-1 -32,29 -20,-23 -1,-1 0,-2 1,-1 2,0 1,1 0,2 -1,1 -2,0 20,23 -2,-23 -1,-1 0,-2 1,-1 2,0 1,1 0,2 -1,1 -2,0 2,23Z"/>
<path onmouseover="hoverPath(evt)" onmouseout="recoverPath(evt)" fill="rgb(244,242,234)" d="M  226,0l -4,0 0,2 1,1 0,0 1,1 0,2 1,1 0,1 1,1 0,1 1,1 0,1 1,1 0,1 1,1 0,1 1,1 2,0 1,1 0,2 -1,1 1,1 0,1 1,1 2,0 1,1 0,1 1,1 0,2 -1,1 0,1 1,1 0,2 1,1 0,2 1,1 0,1 2,0 1,1 0,3 1,1 1,1 1,-1 3,0 1,-1 2,0 1,-1 2,0 0,-42Z"/>
<path onmouseover="hoverPath(evt)" onmouseout="recoverPath(evt)" fill="rgb(244,243,235)" d="M  0,1l 0,39 2,0 1,1 0,2 2,0 1,1 0,2 -1,1 0,1 1,1 0,2 2,0 1,1 0,2 -1,1 0,1 1,1 0,2 1,1 0,1 1,1 0,2 2,0 1,1 0,2 1,1 0,3 -1,1 1,1 0,0 1,1 7,0 1,1 1,0 1,1 1,0 1,1 3,0 1,-1 7,0 1,-1 7,0 1,-1 7,0 1,-1 7,0 1,-1 8,0 1,-1 5,0 1,-1 1,0 0,-2 -1,-1 0,-3 -1,-1 0,-1 -1,-1 0,-2 -1,-1 0,-2 -1,-1 0,-2 -1,-1 0,-2 -1,-1 0,-2 -1,-1 0,-3 -1,-1 0,-1 -1,-1 0,-3 -1,-1 0,-2 -1,-1 0,-2 -1,-1 0,-1 -1,-1 0,-1 -1,-1 0,-2 -1,-1 0,-1 -1,-1 0,-2 -1,-1 0,-1 -1,-1 0,-2 -1,-1 0,-3 -1,-1 -1,-1 0,-2 -1,-1 0,-2 -1,-1 0,-2 -55,0 -1,1Z"/>
<path onmouseover="hoverPath(evt)" onmouseout="recoverPath(evt)" fill="rgb(245,244,237)" d="M  1,97l 0,-3 -1,0 0,4 1,-1 -1,4 0,116 6,0 1,-1 5,0 1,-1 0,-8 -1,-1 0,-7 -1,-1 0,-6 -1,-1 0,-7 -1,-1 0,-6 -1,-1 0,-6 -1,-1 0,-5 -1,-1 0,-5 -1,-1 0,-4 -1,-1 0,-26 1,-1 0,-15 -1,-1 0,-4 -1,-1 0,-3 -3,0 1,-4Z"/>
<path onmouseover="hoverPath(evt)" onmouseout="recoverPath(evt)" fill="rgb(244,243,235)" d="M  66,1l 0,0 1,1 0,2 1,1 0,2 1,1 0,1 1,1 0,2 1,1 0,2 1,1 0,2 1,1 0,3 1,1 0,2 1,1 1,1 0,2 1,1 0,2 1,1 0,2 1,1 0,2 1,1 0,2 1,1 0,2 1,1 0,2 1,1 0,1 1,1 0,2 1,1 0,2 1,1 0,1 1,1 0,2 1,1 0,2 1,1 0,1 1,1 0,3 7,0 1,-1 8,0 1,-1 7,0 1,-1 8,0 1,-1 8,0 1,-1 8,0 1,-1 9,0 1,-1 8,0 1,-1 9,0 1,-1 8,0 1,-1 8,0 1,-1 7,0 1,-1 4,0 1,-1 3,0 1,-1 3,0 1,-1 3,0 1,-1 2,0 1,-1 3,0 1,-1 3,0 1,-1 2,0 1,-1 2,0 1,-1 4,0 1,-1 2,0 1,-1 0,-5 -1,-1 0,-1 -1,-1 0,-2 -1,-1 0,-2 -1,-1 0,-2 -1,-1 0,-1 -1,-1 0,-1 -1,-1 -1,-1 0,-1 -1,-1 0,-1 -1,-1 0,-1 -1,-1 -1,-1 0,-1 -1,-1 0,-1 -1,-1 0,-1 -1,-1 0,-1 -1,-1 0,-1 -1,-1 0,-2 -1,-1 -1,-1 0,-3 -153,0 -1,1Z"/>
<path onmouseover="hoverPath(evt)" onmouseout="recoverPath(evt)" fill="rgb(174,198,231)" d="M  146,233l -4,0 3,1 0,2 1,1 0,2 1,1 0,2 1,1 0,2 1,1 0,2 1,1 0,2 1,1 0,3 4,0 0,-2 -1,-1 0,-2 -1,-1 0,-2 -1,-1 0,-2 -1,-1 0,-3 -1,-1 0,-2 -1,-1 0,-4 1,-1 2,0 -4,1 -1,0 -1,1Z"/>
<path onmouseover="hoverPath(evt)" onmouseout="recoverPath(evt)" fill="rgb(244,243,235)" d="M  186,89l -1,0 0,2 -1,1 0,1 1,1 0,2 2,0 1,1 0,2 -1,1 0,1 1,1 0,1 1,1 0,2 1,1 0,2 2,0 1,1 0,2 -1,1 0,1 1,1 0,2 2,0 1,1 0,2 -1,1 0,1 1,1 0,1 1,1 0,2 1,1 0,2 2,0 1,1 0,2 -1,1 0,1 1,1 0,1 1,1 0,1 2,0 1,1 0,1 4,0 1,-1 2,0 1,-1 3,0 1,-1 2,0 1,-1 3,0 1,-1 2,0 1,-1 3,0 1,-1 2,0 1,-1 3,0 1,-1 2,0 1,-1 3,0 1,-1 2,0 1,-1 0,-1 1,-1 3,0 1,1 2,0 0,-58 -4,0 -1,-1 -1,1 -5,0 0,2 -1,1 -2,0 -1,1 -3,0 -1,1 -2,0 -1,1 -3,0 -1,1 -3,0 -1,1 -2,0 -1,1 -3,0 -1,1 -2,0 -1,1 -3,0 -1,1 -2,0 -1,1 -3,0 -1,1 -2,0 -1,1 -3,0 -1,1 -3,0 -1,1 -2,0 -1,1 -3,0 -1,1Z"/>
<path onmouseover="hoverPath(evt)" onmouseout="recoverPath(evt)" fill="rgb(223,225,208)" d="M  16,94l 0,-1 -1,-1 0,-1 -1,-1 0,-2 -1,-1 0,-1 -1,-1 0,-3 -1,-1 0,-1 -1,-1 0,-2 -1,-1 0,-2 -1,-1 0,-1 -3,0 0,2 1,1 0,1 1,1 0,2 1,1 0,2 1,1 0,2 1,1 0,5 1,1 0,3 1,1 0,3 1,1 0,2 4,0 0,-5 -1,-1Z"/>
<path onmouseover="hoverPath(evt)" onmouseout="recoverPath(evt)" fill="rgb(244,242,229)" d="M  114,255l 35,0 0,-2 -1,-1 0,-2 -1,-1 0,-2 -1,-1 0,-2 -1,-1 0,-2 -1,-1 0,-2 -1,-1 0,-2 -1,0 -1,1 -3,0 -1,1 -2,0 -1,1 -3,0 -1,1 -3,0 -1,1 -2,0 -1,1 -3,0 -1,1 -3,0 -1,1 -1,0 -1,1 -3,0 -1,-1 -1,0 0,1 -1,1 -2,0 -1,-1 -2,0 -1,1 -2,0 -1,1 -3,0 -1,1 -3,0 -1,-1 -1,-1 -1,-1 -1,-1 0,-1 -2,0 -1,1 -2,0 0,2 1,1 0,0 1,1 0,2 -1,1 -3,0 -1,-1 -1,-1 -1,-1 -1,-1 0,-1 -4,0 -1,-1 -1,-1 -1,-1 -3,0 0,2 1,1 0,2 -1,1 -2,0 0,2 1,1 0,0 1,1 0,3Z"/>
<path onmouseover="hoverPath(evt)" onmouseout="recoverPath(evt)" fill="rgb(244,243,236)" d="M  138,86l 0,0 -1,1 -1,1 -1,1 -1,1 -1,1 -1,1 -1,1 -1,1 -1,1 0,1 -1,1 -1,1 -1,1 0,1 -1,1 -1,1 0,1 -1,1 0,1 -1,1 0,1 -1,1 0,1 -1,1 0,2 -1,1 0,2 -1,1 0,2 -1,1 0,3 -1,1 0,11 1,1 0,3 1,1 0,3 1,1 0,1 1,1 0,2 1,1 0,1 1,1 0,2 1,1 0,1 1,1 0,2 1,1 0,1 1,1 0,2 1,1 0,-1 -1,-3 -1,-2 -1,-3 -1,-2 -1,-3 0,-2 -1,-1 0,-20 1,-1 0,-2 1,-1 0,-2 1,-1 0,-1 1,-1 0,-1 1,-1 0,-1 1,-1 0,-1 1,-1 0,-1 1,-1 1,-1 0,-1 1,-1 1,0 0,-1 2,-2 1,-1 1,-1 2,0 1,-1 0,-2 2,-2 1,-1 1,0 1,-1 1,-1 1,0 2,-2 1,0 1,-1 1,0 1,-1 1,0 1,-1 1,0 1,-1 2,0 1,-1 1,0 1,-1 2,0 1,-1 2,0 1,-1 3,0 1,-1 3,0 1,-1 2,0 1,-1 3,0 1,-1 3,0 1,-1 2,0 1,-1 3,0 1,-1 2,0 1,-1 3,0 1,-1 3,0 1,-1 2,0 1,-1 3,0 1,-1 2,0 1,-1 3,0 1,-1 2,0 1,-1 3,0 1,-1 3,0 1,-1 2,0 1,-1 3,0 1,-1 2,0 1,-1 3,0 1,-1 2,0 1,-1 3,0 1,-1 3,0 1,1 1,0 0,-4 -3,0 -1,1 -3,0 -1,1 -3,0 -1,1 -3,0 -1,1 -2,0 -1,1 -3,0 -1,1 -3,0 -1,1 -3,0 -1,1 -2,0 -1,1 -3,0 -1,1 -3,0 -1,1 -3,0 -1,1 -5,0 -1,1 -7,0 -1,1 -5,0 -1,1 -5,0 -1,1 -5,0 -1,1 -5,0 -1,1 -5,0 -1,1 -3,0 -1,1 -3,0 -1,1 -2,0 -1,1 -3,0 -1,1 -1,0 -1,1 -1,0 -1,1 -2,0 -1,1 -1,0 -1,1 -1,1 -1,0 -1,1Z"/>
<path onmouseover="hoverPath(evt)" onmouseout="recoverPath(evt)" fill="rgb(244,243,236)" d="M  145,106l 0,0 -1,1 -1,0 0,1 -1,1 -1,1 -1,1 -2,2 0,1 -1,1 -1,1 0,1 -1,1 0,1 -1,1 0,1 -1,1 0,1 -1,1 0,3 -1,1 0,17 1,1 0,2 1,1 0,2 1,1 0,2 1,1 0,2 1,1 0,2 1,1 0,1 1,1 0,2 1,1 0,2 1,1 0,2 1,1 0,2 1,1 0,1 1,1 0,2 1,1 0,2 1,1 0,2 1,1 0,2 1,1 0,1 1,1 0,2 1,1 0,2 1,1 0,2 1,1 0,2 1,1 0,2 1,1 0,2 1,1 0,2 1,1 0,2 1,1 0,2 2,0 1,-1 3,0 1,-1 2,0 1,-1 3,0 1,-1 2,0 1,-1 3,0 1,-1 2,0 1,-1 3,0 1,-1 2,0 1,-1 3,0 1,-1 3,0 1,-1 2,0 1,-1 3,0 1,-1 2,0 1,-1 3,0 1,-1 3,0 1,-1 2,0 1,-1 3,0 1,-1 2,0 1,-1 3,0 1,-1 2,0 1,-1 3,0 1,-1 2,0 1,-1 3,0 1,-1 2,0 1,-1 2,0 1,-1 4,0 1,-1 3,0 0,-55 -2,0 -1,-1 -1,0 -1,1 -3,0 -1,1 -3,0 0,2 -1,1 -3,0 -1,-1 -2,0 0,2 -1,1 -3,0 -1,-1 -2,0 0,2 -1,1 -3,0 -1,-1 -2,0 -1,1 -2,0 -1,1 -3,0 -1,1 -2,0 -1,1 -3,0 -1,1 -5,0 -1,-1 -1,0 -1,-1 -1,-1 -1,-1 0,-1 -1,-1 0,-2 -1,-1 0,-2 -1,-1 0,-2 -2,0 -1,-1 0,-2 1,-1 0,-1 -1,-1 0,-1 -1,-1 0,-2 -1,-1 0,-2 -2,0 -1,-1 0,-2 1,-1 0,-1 -1,-1 0,-2 -2,0 -1,-1 0,-2 1,-1 0,-1 -1,-1 0,-1 -1,-1 0,-2 -1,-1 0,-2 -2,0 -1,-1 0,-2 1,-1 0,-1 -1,-1 0,-1 -5,0 -1,1 -3,0 -1,1 -2,0 -1,1 -2,0 -1,1 -2,0 -1,1 -1,0 -1,1 -1,0 -1,1 -1,0 -1,1 -1,1 -1,0 -1,1 -1,1 -2,0 0,1 -1,1 -1,1Z"/>
<path onmouseover="hoverPath(evt)" onmouseout="recoverPath(evt)" fill="rgb(251,251,247)" d="M  179,90l 0,0 1,1 0,1 1,1 0,3 -1,1 2,0 1,1 0,2 1,1 0,2 1,1 0,1 1,1 0,3 -1,1 2,0 1,1 0,2 1,1 0,3 -1,1 2,0 1,1 0,2 1,1 0,2 1,1 0,1 1,1 0,3 -1,1 2,0 1,1 0,2 1,1 0,2 1,1 0,2 1,1 0,1 1,1 1,1 1,0 1,1 3,0 1,-1 3,0 1,-1 2,0 1,-1 3,0 1,-1 2,0 1,-1 4,0 1,1 1,0 0,-2 1,-1 4,0 1,1 1,0 0,-2 1,-1 4,0 1,1 1,0 0,-2 1,-1 3,0 1,-1 3,0 1,-1 3,0 1,1 1,0 0,-3 -3,0 -1,-1 -1,0 0,1 -1,1 -1,1 -2,0 -1,1 -3,0 -1,1 -2,0 -1,1 -3,0 -1,1 -2,0 -1,1 -3,0 -1,1 -2,0 -1,1 -3,0 -1,1 -2,0 -1,1 -3,0 -1,1 -2,0 -1,1 -6,0 -1,-1 0,-1 -2,0 -1,-1 0,-1 -1,-1 0,-1 -1,-1 0,-3 1,-1 -2,0 -1,-1 0,-2 -1,-1 0,-2 -1,-1 0,-1 -1,-1 0,-3 1,-1 -2,0 -1,-1 0,-2 -1,-1 0,-3 1,-1 -2,0 -1,-1 0,-2 -1,-1 0,-2 -1,-1 0,-1 -1,-1 0,-3 1,-1 -2,0 -1,-1 0,-2 -1,-1 0,-2 -1,-1 0,-1 -1,-1 -1,1Z"/>
<path onmouseover="hoverPath(evt)" onmouseout="recoverPath(evt)" fill="rgb(244,243,235)" d="M  0,223l 0,32 29,0 0,-2 1,-1 2,0 1,-1 2,0 1,-1 2,0 1,-1 2,0 1,-1 1,0 1,-1 2,0 1,-1 2,0 1,-1 2,0 1,-1 2,0 1,-1 2,0 1,-1 3,0 1,-1 1,0 1,-1 5,0 1,1 1,1 1,1 4,0 1,1 0,1 1,1 1,1 1,1 1,0 -1,-1 -1,-1 0,-4 1,-1 2,0 1,-1 3,0 -1,-1 0,0 -1,-1 0,-2 1,-1 3,0 1,-1 4,0 1,-1 7,0 1,-1 2,0 1,-1 3,0 1,-1 2,0 1,-1 3,0 1,-1 2,0 1,-1 3,0 1,-1 2,0 1,-1 3,0 1,-1 2,0 1,-1 3,0 1,-1 1,0 0,-1 -1,-1 0,-2 -1,-1 0,-2 -1,-1 0,-3 -1,-1 0,-2 -1,-1 0,-2 -1,-1 0,-2 -1,-1 0,-2 -1,-1 0,-2 -1,-1 0,-2 -1,-1 0,-2 -1,-1 0,-1 -1,-1 0,-2 -1,-1 0,-1 -1,-1 0,-2 -1,-1 0,-2 -1,-1 0,-1 -1,-1 0,-2 -1,-1 0,-2 -1,-1 0,-1 -1,-1 0,-2 -1,-1 0,-2 -1,-1 0,-1 -1,-1 0,-2 -1,-1 0,-1 -1,-1 0,-2 -1,-1 0,-2 -1,-1 0,-1 -1,-1 0,-2 -1,-1 0,-2 -1,-1 0,-4 -1,-1 0,-13 1,-1 0,-2 1,-1 0,-3 1,-1 0,-2 1,-1 0,-1 1,-1 0,-2 1,-1 0,-1 1,-1 0,-1 1,-1 0,-1 2,-2 1,-1 0,-1 1,-1 1,-1 0,-1 1,-1 1,-1 1,-1 1,-1 0,-1 1,-1 1,-1 1,-1 1,-1 0,-2 -1,-1 -1,-1 -2,0 -1,-1 -6,0 -1,1 -18,0 -1,1 -10,0 -1,1 -10,0 -1,1 -10,0 -1,1 -11,0 -1,1 -10,0 -1,1 -9,0 -1,1 -9,0 -1,1 -2,0 0,2 1,1 0,2 1,1 0,3 1,1 0,2 1,1 0,5 1,1 0,2 1,1 0,4 1,1 0,3 1,1 0,3 1,1 0,3 1,1 0,2 1,1 0,3 1,1 0,3 1,1 0,3 1,1 0,3 1,1 0,2 1,1 0,4 1,1 0,4 1,1 0,2 1,1 0,4 1,1 0,3 1,1 0,4 1,1 0,3 1,1 0,3 1,1 0,4 1,1 0,4 1,1 0,4 1,1 0,3 1,1 0,4 1,1 0,2 1,1 0,3 1,1 0,5 1,1 0,3 1,1 0,4 1,1 0,4 -1,1 -3,0 -1,-1 0,-1 -1,-1 0,-3 -1,-1 0,-4 -1,-1 0,-4 -1,-1 -3,0 0,6 1,1 0,4 1,1 0,5 -1,1 -3,0 -1,-1 0,-3 -1,-1 0,-3 -1,-1 0,-4 -1,-1 0,-3 -1,-1 0,-3 -1,-1 0,-4 -1,-1 0,-4 -1,-1 0,-3 -1,-1 0,-3 -1,-1 0,-4 -1,-1 0,-3 -1,-1 0,-4 -1,-1 0,-4 -1,-1 0,-3 -1,-1 0,-3 -1,-1 0,-3 -1,-1 0,-3 -1,-1 0,-4 -1,-1 0,-2 -1,-1 0,-4 -1,-1 0,-2 -1,-1 0,-3 -1,-1 0,-3 -1,-1 0,-2 -1,-1 0,-3 -1,-1 0,-3 -1,-1 0,-3 -1,-1 0,-3 -1,-1 0,9 -1,1 0,19 1,1 0,6 1,1 0,5 1,1 0,5 1,1 0,7 1,1 0,6 1,1 0,7 1,1 0,6 1,1 0,6 1,1 0,6 1,1 0,6 -1,1 -1,1 -1,1 -1,0 -1,1 -2,0 -1,1 -11,0 -1,1 52,-7 0,-3 1,-1 6,0 1,-1 9,0 1,-1 9,0 1,-1 8,0 1,1 1,1 0,2 1,1 0,3 13,0 1,-1 10,0 1,-1 3,0 1,1 0,3 -1,1 -7,0 -1,1 -9,0 -1,1 -9,0 -1,1 -2,0 -1,-1 -1,0 -1,-1 -1,-1 0,-4 -1,-1 -1,-1 -1,0 -1,1 -9,0 -1,1 -9,0 -1,1 -8,0 -1,-1 -52,7Z"/>
<path onmouseover="hoverPath(evt)" onmouseout="recoverPath(evt)" fill="rgb(174,199,236)" d="M  7,219l -7,0 0,1 6,0 1,-1 3,1 1,0 1,-1 2,0 1,-1 1,0 1,-1 1,-1 0,-4 -1,-1 0,-6 -1,-1 0,-6 -1,-1 0,-6 -1,-1 0,-7 -1,-1 0,-6 -1,-1 0,-7 -1,-1 0,-5 -1,-1 0,-5 -1,-1 0,-6 -1,-1 0,-21 1,-1 0,-9 1,-1 0,-4 -1,-1 0,-1 -1,-1 0,-3 -1,-1 0,-5 -1,-1 0,-3 -1,-1 0,-3 -1,-1 0,-3 -1,-1 0,-4 -2,-2 -1,0 0,11 2,0 1,1 0,3 1,1 0,2 1,1 0,3 1,1 0,4 1,1 0,17 -1,1 0,24 1,1 0,4 1,1 0,5 1,1 0,5 1,1 0,6 1,1 0,6 1,1 0,7 1,1 0,6 1,1 0,7 1,1 0,10 -2,2 -2,0 -1,2 -3,-1Z"/>
<path onmouseover="hoverPath(evt)" onmouseout="recoverPath(evt)" fill="rgb(178,201,233)" d="M  33,82l -2,0 -1,1 -5,0 -1,-1 0,-1 -1,-1 -2,0 -1,-1 -3,0 0,2 1,1 0,0 1,1 0,3 2,0 1,-1 9,0 1,-1 9,0 1,-1 10,0 1,-1 11,0 1,-1 10,0 1,-1 10,0 1,-1 10,0 1,-1 18,0 1,-1 8,0 1,1 2,0 1,1 1,1 1,1 0,4 -2,2 -1,1 -1,1 0,1 -1,1 -1,1 -1,1 -1,1 0,1 -1,1 -1,1 0,1 -1,1 -2,2 0,1 -1,1 0,1 -1,1 0,1 -1,1 0,2 -1,1 0,1 -1,1 0,2 -1,1 0,3 -1,1 0,2 -1,1 0,11 1,1 0,4 1,1 0,2 1,1 0,2 1,1 0,1 1,1 0,2 1,1 0,2 1,1 0,1 1,1 0,2 1,1 0,1 1,1 0,2 1,1 0,2 1,1 0,1 1,1 0,2 1,1 0,2 1,1 0,1 1,1 0,2 1,1 0,2 1,1 0,1 1,1 0,2 1,1 0,1 1,1 0,2 1,1 0,2 1,1 0,2 1,1 0,2 1,1 0,2 1,1 0,2 1,1 0,2 1,1 0,3 1,1 0,2 1,1 0,2 1,1 0,3 -1,1 -1,0 3,-1 1,-1 2,0 0,-3 -1,-1 0,-2 -1,-1 0,-3 1,-1 0,-1 -1,-1 0,-2 -1,-1 0,-2 -1,-1 0,-2 -1,-1 0,-2 -2,0 -1,-1 0,-2 -1,-1 0,-1 -1,-1 0,-4 1,-1 -1,-1 0,-2 -2,0 -1,-1 0,-2 -1,-1 0,-3 1,-1 -2,0 -1,-1 0,-1 -1,-1 0,-3 -1,-1 0,-1 -1,-1 0,-2 -1,-1 -1,-1 0,-2 -1,-1 0,-1 -1,-1 0,-2 -1,-1 0,-1 -1,-1 0,-2 -1,-1 0,-1 -1,-1 0,-2 -1,-1 0,-1 -1,-1 0,-3 -1,-1 0,-3 -1,-1 0,-13 1,-1 0,-3 1,-1 0,-2 1,-1 0,-2 1,-1 0,-2 1,-1 0,-1 1,-1 0,-1 1,-1 0,-1 1,-1 0,-1 1,-1 1,-1 0,-1 1,-1 1,-1 1,-1 0,-1 1,-1 1,-1 1,-1 2,-2 1,-1 5,-5 1,0 1,-1 1,-1 1,0 1,-1 2,0 1,-1 1,0 1,-1 1,0 1,-1 3,0 1,-1 2,0 1,-1 3,0 1,-1 3,0 1,-1 5,0 1,-1 5,0 1,-1 5,0 1,-1 5,0 1,-1 5,0 1,-1 7,0 1,-1 5,0 1,-1 3,0 1,-1 3,0 1,-1 3,0 1,-1 2,0 1,-1 3,0 1,-1 3,0 1,-1 3,0 1,-1 2,0 1,-1 3,0 1,-1 3,0 1,-1 3,0 1,-1 4,0 0,-7 -3,0 -1,1 -2,0 -1,1 -2,0 -1,1 -3,0 -1,1 -3,0 -1,1 -2,0 -1,1 -3,0 -1,1 -3,0 -1,1 -3,0 -1,1 -2,0 -1,1 -3,0 -1,1 -3,0 -1,1 -2,0 -1,1 -4,0 -1,1 -3,0 -1,1 -5,0 -1,1 -8,0 -1,1 -10,0 -1,1 -9,0 -1,1 -9,0 -1,1 -8,0 -1,1 -8,0 -1,1 -8,0 -1,1 -8,0 -1,1 -7,0 -1,1 -8,0 -1,1 -4,0 -1,1 -7,0 -1,1 -6,0 -1,1 -8,0 -1,1 -7,0 -1,1 -8,0 -1,1 -7,0 -1,1 -7,0 -1,1Z"/>
<path onmouseover="hoverPath(evt)" onmouseout="recoverPath(evt)" fill="rgb(237,228,159)" d="M  40,251l 0,0 -1,1 -2,0 -1,1 -2,0 -1,1 -2,0 0,1 33,0 0,-2 -1,-1 0,0 -1,-1 0,-4 1,-1 2,0 -1,-1 0,-2 -1,1 -3,0 -1,1 -2,0 -1,1 -2,0 -1,1 -2,0 -1,1 -2,0 -1,1 -2,0 -1,1 -1,0 -1,1Z"/>
<path onmouseover="hoverPath(evt)" onmouseout="recoverPath(evt)" fill="rgb(232,232,210)" d="M  43,207l 0,-2 -1,-1 0,-3 -1,-1 0,-3 -1,-1 0,-4 -1,-1 0,-4 -1,-1 0,-4 -1,-1 0,-3 -1,-1 0,-4 -1,-1 0,-2 -1,-1 0,-4 -1,-1 0,-3 -1,-1 0,-3 -1,-1 0,-3 -1,-1 0,-4 -1,-1 0,-3 -1,-1 0,-3 -1,-1 0,-2 -1,-1 0,-3 -1,-1 0,-3 -1,-1 0,-3 -1,-1 0,-3 -1,-1 0,-3 -1,-1 0,-3 -1,-1 0,-3 -1,-1 0,-1 -3,0 -1,1 0,3 1,1 0,3 1,1 0,3 1,1 0,3 1,1 0,4 1,1 0,2 1,1 0,3 1,1 0,3 1,1 0,2 1,1 0,3 1,1 0,3 1,1 0,3 1,1 0,3 1,1 0,3 1,1 0,3 1,1 0,3 1,1 0,3 1,1 0,4 1,1 0,3 1,1 0,4 1,1 0,4 1,1 0,4 1,1 0,3 1,1 0,3 1,1 0,4 1,1 0,1 3,0 1,-1 0,-2 -1,-1Z"/>
<path onmouseover="hoverPath(evt)" onmouseout="recoverPath(evt)" fill="rgb(253,253,252)" d="M  43,215l -4,0 -1,-1 0,-1 -1,-1 0,-4 -1,-1 0,-3 -1,-1 0,-3 -1,-1 0,-4 -1,-1 0,-4 -1,-1 0,-4 -1,-1 0,-3 -1,-1 0,-4 -1,-1 0,-3 -1,-1 0,-3 -1,-1 0,-3 -1,-1 0,-3 -1,-1 0,-3 -1,-1 0,-3 -1,-1 0,-3 -1,-1 0,-3 -1,-1 0,-2 -1,-1 0,-3 -1,-1 0,-3 -1,-1 0,-2 -1,-1 0,-4 -1,-1 0,-3 -1,-1 0,-3 -1,-1 0,-3 -1,-1 0,-5 1,-1 1,-1 5,0 1,1 0,1 1,1 0,3 1,1 0,3 1,1 0,3 1,1 0,3 1,1 0,3 1,1 0,3 1,1 0,3 1,1 0,2 1,1 0,3 1,1 0,3 1,1 0,4 1,1 0,3 1,1 0,3 1,1 0,3 1,1 0,4 1,1 0,2 1,1 0,4 1,1 0,3 1,1 0,4 1,1 0,4 1,1 0,4 1,1 0,3 1,1 0,3 1,1 0,4 1,1 0,4 -1,1 -1,1 -1,0 4,-4 0,-2 -1,-1 0,-4 -1,-1 0,-3 -1,-1 0,-4 -1,-1 0,-4 -1,-1 0,-4 -1,-1 0,-3 -1,-1 0,-3 -1,-1 0,-4 -1,-1 0,-3 -1,-1 0,-4 -1,-1 0,-2 -1,-1 0,-4 -1,-1 0,-4 -1,-1 0,-2 -1,-1 0,-3 -1,-1 0,-3 -1,-1 0,-3 -1,-1 0,-3 -1,-1 0,-2 -1,-1 0,-3 -1,-1 0,-3 -1,-1 0,-3 -1,-1 0,-4 -1,-1 0,-2 -1,-1 0,-5 -1,-1 0,-2 -1,-1 0,-3 -1,-1 0,-2 -1,-1 0,-3 -1,-1 0,-3 -1,-1 -1,-1 0,-4 1,-1 5,0 1,1 2,0 1,1 1,1 0,1 3,0 1,-1 7,0 1,-1 7,0 1,-1 7,0 1,-1 8,0 1,-1 7,0 1,-1 8,0 1,-1 6,0 1,-1 7,0 1,-1 4,0 1,-1 8,0 1,-1 7,0 1,-1 8,0 1,-1 8,0 1,-1 8,0 1,-1 8,0 1,-1 9,0 1,-1 9,0 1,-1 10,0 1,-1 8,0 1,-1 5,0 1,-1 3,0 1,-1 4,0 1,-1 2,0 1,-1 3,0 1,-1 3,0 1,-1 2,0 1,-1 3,0 1,-1 3,0 1,-1 3,0 1,-1 2,0 1,-1 3,0 1,-1 3,0 1,-1 2,0 1,-1 2,0 1,-1 4,0 0,-2 -1,0 -1,1 -2,0 -1,1 -3,0 -1,1 -2,0 -1,-1 -1,-1 -1,-1 0,3 -1,1 -1,1 -2,0 -1,1 -4,0 -1,1 -2,0 -1,1 -2,0 -1,1 -3,0 -1,1 -3,0 -1,1 -2,0 -1,1 -3,0 -1,1 -3,0 -1,1 -3,0 -1,1 -4,0 -1,1 -7,0 -1,1 -8,0 -1,1 -8,0 -1,1 -9,0 -1,1 -8,0 -1,1 -9,0 -1,1 -8,0 -1,1 -8,0 -1,1 -8,0 -1,1 -7,0 -1,1 -8,0 -1,1 -14,0 -1,-1 0,-3 -1,-1 0,-2 -1,-1 0,-1 -1,-1 0,-2 -1,-1 0,-2 -1,-1 0,-2 -1,-1 0,-2 -1,-1 0,-2 -1,-1 0,-2 -1,-1 0,-4 -1,-1 0,-2 -1,-1 0,-1 -1,-1 0,-2 -1,-1 0,-2 -1,-1 0,-1 -1,-1 0,-1 -1,-1 0,-1 -1,-1 0,-2 -1,-1 0,-2 -1,-1 0,-2 -1,-1 -1,-1 0,1 1,1 0,2 1,1 0,1 1,2 0,1 1,2 1,2 0,1 1,1 0,1 1,1 0,1 1,2 0,1 1,2 0,1 1,1 0,3 1,1 0,-1 1,5 0,1 1,2 0,1 1,2 0,1 1,2 0,1 1,2 0,1 1,2 0,1 1,2 1,2 0,2 1,1 0,4 -1,1 -1,0 -1,1 -5,0 -1,1 -8,0 -1,1 -7,0 -1,1 -7,0 -1,1 -7,0 -1,1 -7,0 -1,1 -5,0 -1,-1 -1,0 -1,-1 -1,0 -1,-1 -7,0 -1,-1 -1,-1 -1,-1 0,-2 1,-1 0,-1 -1,-1 0,-2 -2,0 -1,-1 0,-2 -1,-1 0,-1 -1,-1 0,-2 -1,-1 0,-3 1,-1 -2,0 -1,-1 0,-2 -1,-1 0,-3 1,-1 -2,0 -1,-1 0,-2 -1,0 0,37 2,0 1,1 1,1 1,1 0,4 1,1 0,3 1,1 0,3 1,1 0,3 1,1 0,5 1,1 0,3 1,1 0,1 1,1 0,5 1,1 1,1 0,3 1,1 0,3 1,1 0,3 1,1 0,3 1,1 0,2 1,1 0,3 1,1 0,3 1,1 0,2 1,1 0,4 1,1 0,2 1,1 0,4 1,1 0,3 1,1 0,3 1,1 0,3 1,1 0,3 1,1 0,4 1,1 0,4 1,1 0,3 1,1 0,4 1,1 0,3 1,1 0,3 1,1 0,4 1,1 0,4 1,1 0,3 1,1 0,3 1,1 0,4 1,1 0,3 1,1 0,3 1,0 0,-3 -1,-1 0,-4 -1,-1 0,-8 1,-1 1,0 5,-5 -4,4 -33,-115 0,-3 -1,-1 0,-3 -1,-1 0,-5 -1,-1 0,-2 -1,-1 0,-2 -1,-1 0,-2 -1,-1 0,-1 -1,-1 0,-4 1,-1 5,0 1,1 0,1 1,1 0,2 1,1 0,2 1,1 0,1 1,1 0,3 1,1 0,1 1,1 0,2 1,1 0,1 1,1 0,3 1,1 0,7 -1,1 -6,0 -1,-1 0,-2 -1,-1 33,115 5,-3 0,2 1,3 0,-1 -1,-1 0,0 -2,1 0,0 1,1 1,1 0,4 1,1 0,4 1,1 0,3 1,1 0,1 1,0 0,-2 -1,-1 0,-4 -1,-1 0,-3 -1,-1 0,1 -1,-10 -5,3Z"/>
<path onmouseover="hoverPath(evt)" onmouseout="recoverPath(evt)" fill="rgb(189,208,234)" d="M  87,66l 0,-1 -1,-1 0,-2 -1,-1 0,-2 -1,-1 0,-1 -1,-1 0,-2 -1,-1 0,-2 -1,-1 0,-1 -1,-1 0,-2 -1,-1 0,-2 -1,-1 0,-2 -1,-1 0,-2 -1,-1 0,-2 -1,-1 0,-2 -1,-1 0,-2 -1,-1 -1,-1 0,-2 -1,-1 0,-3 -1,-1 0,-2 -1,-1 0,-2 -1,-1 0,-2 -1,-1 0,-1 -1,-1 0,-2 -1,-1 0,-2 -1,-1 0,-2 -6,0 0,1 1,1 0,2 1,1 0,2 1,1 2,0 1,1 0,1 2,2 0,2 1,1 0,2 1,1 0,2 1,1 0,1 1,1 0,1 1,1 0,1 1,1 0,2 1,1 0,2 1,1 0,1 1,1 0,2 1,1 0,4 1,1 0,2 1,1 0,2 1,1 0,2 1,1 0,2 1,1 0,2 1,1 0,2 1,1 0,1 1,1 0,2 1,1 0,3 3,0 0,-2 -1,-1Z"/>
<path onmouseover="hoverPath(evt)" onmouseout="recoverPath(evt)" fill="rgb(172,198,238)" d="M  101,219l -11,0 -1,-1 0,-3 -1,-1 0,-2 -1,-1 -6,0 -1,1 -9,0 -1,1 -9,0 -1,1 -6,0 0,1 6,0 1,-1 9,0 1,-1 9,0 1,-1 3,0 1,1 1,1 1,1 0,4 1,1 1,0 1,1 1,-1 9,0 1,-1 9,0 1,-1 7,0 0,-1 -1,0 -7,1 -4,0 -1,1Z"/>
<path onmouseover="hoverPath(evt)" onmouseout="recoverPath(evt)" fill="rgb(249,249,244)" d="M  237,231l -1,0 0,2 -1,1 -1,0 0,1 -1,1 -1,1 -2,0 0,1 1,1 1,0 1,1 1,1 0,2 -1,1 0,1 -1,1 -1,1 0,1 -1,1 -1,1 -1,0 -1,1 -1,0 0,4 3,0 0,-3 2,-2 1,-1 1,-1 0,-1 1,-1 1,0 0,-1 1,-1 2,0 0,-4 1,-1 1,-1 1,0 0,-2 2,-2 0,-1 2,-2 1,-1 1,-1 0,-1 1,-1 1,0 0,-2 1,-1 2,-2 3,0 0,-18 -6,0 0,2 1,1 0,1 1,1 0,2 1,1 0,2 1,1 0,3 -1,1 -1,1 0,1 -1,1 -2,2 0,1 -2,2 -1,1 -1,1 -2,0 -1,-1 0,-3 1,-1 -1,-1 0,-2 -1,-1 -2,0 -1,1 3,0 1,3 -1,3 -1,1 -1,1 0,1 -1,1Z"/>
<path onmouseover="hoverPath(evt)" onmouseout="recoverPath(evt)" fill="rgb(235,235,201)" d="M  251,227l 0,1 -1,1 -1,0 0,1 -3,3 -1,1 0,1 -1,1 -1,1 0,2 -1,1 -1,0 -1,1 0,4 -1,1 -2,0 0,1 -1,1 -1,0 0,1 -1,1 -1,1 -1,1 -1,1 0,2 24,0 0,-31 -2,0 -1,1 -1,1Z"/>
</svg>