<svg width="256" height="256" xmlns="http://www.w3.org/2000/svg"><script> 
var tempColor;
function hoverPath(evt){
obj = evt.target;
tempColor = obj.getAttribute("fill");
obj.setAttribute("fill","red");
//alert(tempColor);
//obj.setAttribute("stroke","red");}
function recoverPath(evt){
obj = evt.target;
obj.setAttribute("fill", tempColor);
//obj.setAttribute("stroke", tempColor);
}</script><path onmouseover="hoverPath(evt)" onmouseout="recoverPath(evt)" fill="rgb(171,198,238)" d="M  0,18l 0,2 97,0 1,1 13,0 0,-5 -31,0 -1,1 -7,0 -1,-1 -14,0 -1,1 -55,0 -1,1Z"/>
<path onmouseover="hoverPath(evt)" onmouseout="recoverPath(evt)" fill="rgb(243,242,234)" d="M  117,8l 0,7 12,0 1,1 10,0 1,1 10,0 1,1 6,0 1,-1 1,0 1,-1 1,-1 0,-3 -1,0 -1,-1 -3,0 -1,-1 -4,0 -1,-1 -3,0 -1,-1 -4,0 -1,-1 -6,0 -1,-1 -7,0 -1,1 -3,0 -1,-1 -2,0 -1,-1 -3,0Z"/>
<path onmouseover="hoverPath(evt)" onmouseout="recoverPath(evt)" fill="rgb(171,198,238)" d="M  118,17l -1,0 0,3 1,0 1,1 21,0 1,1 8,0 1,1 2,0 1,-1 8,0 1,1 6,0 1,1 3,0 1,1 2,0 1,1 2,0 1,1 1,0 1,1 0,1 1,1 1,0 1,-1 1,-1 3,0 1,1 2,0 1,1 3,0 1,1 1,0 1,1 2,0 1,1 2,0 1,1 2,0 1,1 2,0 1,1 1,0 1,1 2,0 1,1 2,0 1,1 2,0 1,1 2,0 1,1 4,0 1,1 1,0 1,1 1,0 1,1 2,0 1,1 1,0 1,1 1,0 1,1 1,0 1,1 1,0 1,1 2,0 1,1 2,0 1,1 2,0 1,1 2,0 0,-4 -2,0 -1,-1 -2,0 -1,-1 -1,0 -2,-2 -2,0 -1,-1 -1,0 -1,-1 -2,0 -1,-1 -1,0 -1,-1 -2,0 -1,-1 -1,0 -1,-1 -2,0 -1,-1 -2,0 -1,-1 -3,0 -1,-1 -2,0 -1,-1 -2,0 -1,-1 -2,0 -1,-1 -2,0 -1,-1 -3,0 -1,-1 -2,0 -1,-1 -2,0 -1,-1 -2,0 -1,-1 -2,0 -1,-1 -3,0 -1,-1 -3,0 -1,-1 -3,0 -1,-1 -3,0 -1,-1 -4,0 -1,-1 -3,0 -1,-1 -1,-1 0,-3 1,-1 0,-3 -1,0 -1,-1 -1,0 -1,1 0,4 -1,1 -1,1 -1,1 -1,0 -1,1 -8,0 -1,-1 -10,0 -1,-1 -10,0 -1,-1Z"/>
<path onmouseover="hoverPath(evt)" onmouseout="recoverPath(evt)" fill="rgb(244,243,235)" d="M  118,23l 0,0 -1,-1 0,14 -1,1 0,7 1,1 0,2 -1,1 -2,0 -1,1 -1,1 -1,1 0,1 -1,1 0,2 -1,1 0,1 -1,1 0,10 1,1 0,8 1,1 0,7 1,1 0,8 1,1 0,8 1,1 0,8 1,1 0,6 1,1 0,8 1,1 0,3 9,0 1,1 8,0 0,-2 1,-1 9,0 1,-1 9,0 1,-1 12,0 1,1 1,0 1,1 1,1 0,2 -1,1 0,1 2,0 1,1 0,16 1,1 0,7 1,0 1,1 1,1 3,0 1,1 3,0 1,1 0,6 -1,1 0,10 1,1 0,8 2,0 1,1 0,8 1,1 1,0 1,1 1,0 1,-1 6,0 0,-4 -1,-1 0,-10 -1,-1 0,-7 -1,-1 0,-7 -1,-1 0,-6 -1,-1 0,-8 -1,-1 0,-8 -1,-1 0,-8 -1,-1 0,-8 -1,-1 0,-8 -1,-1 0,-7 -1,-1 0,-8 -1,-1 0,-8 -1,-1 0,-8 -1,-1 0,-7 -1,-1 0,-10 -1,-1 0,-5 -1,-1 0,-8 -1,-1 0,-8 -1,-1 0,-7 -1,-1 0,-1 -1,0 -1,-1 -2,0 -1,-1 -2,0 -1,-1 -3,0 -1,-1 -6,0 -1,-1 -6,0 -1,1 -4,0 -1,-1 -8,0 -1,-1Z"/>
<path onmouseover="hoverPath(evt)" onmouseout="recoverPath(evt)" fill="rgb(243,242,234)" d="M  118,137l -1,0 0,8 1,1 0,8 1,1 0,9 1,1 0,10 1,1 0,9 1,1 0,5 1,1 0,1 1,1 1,0 1,1 1,0 1,1 1,0 1,1 1,0 1,1 1,0 1,1 1,0 1,1 1,0 1,1 44,0 1,-1 1,0 0,-8 -1,-1 0,-8 -1,-1 0,-12 1,-1 0,-4 -3,0 -1,-1 -3,0 -1,-1 -1,-1 -1,0 -1,-1 0,-7 -1,-1 0,-16 -2,0 -1,-1 0,-1 -2,0 -1,-1 0,-2 1,-1 0,-1 -10,0 -1,1 -9,0 -1,1 -9,0 0,2 -1,1 -9,0 -1,1 -6,0 -1,1Z"/>
<path onmouseover="hoverPath(evt)" onmouseout="recoverPath(evt)" fill="rgb(244,243,235)" d="M  207,208l 0,4 1,1 0,11 1,1 0,9 1,1 0,7 1,1 0,7 1,1 0,4 43,0 0,-51 -10,0 -1,1 -37,0Z"/>
<path onmouseover="hoverPath(evt)" onmouseout="recoverPath(evt)" fill="rgb(244,243,237)" d="M  1,11l -1,0 0,4 55,0 1,-1 16,0 1,1 5,0 1,-1 31,0 0,-9 -23,0 -1,1 -17,0 -1,1 -17,0 -1,1 -15,0 -1,1 -15,0 -1,1 -14,0 -1,1Z"/>
<path onmouseover="hoverPath(evt)" onmouseout="recoverPath(evt)" fill="rgb(244,243,235)" d="M  0,23l 0,186 25,0 0,-2 1,-1 7,0 1,-1 8,0 1,-1 16,0 1,-1 56,0 1,-1 1,0 0,-3 -1,-1 0,-9 -1,-1 0,-9 -1,-1 0,-10 -1,-1 0,-9 -1,-1 0,-9 -1,-1 0,-7 -1,-1 0,-7 -1,-1 0,-6 -1,-1 0,-1 -5,0 -1,-1 0,-2 1,-1 4,0 1,-1 0,-2 -1,-1 0,-8 -1,-1 0,-9 -1,-1 0,-7 -1,-1 0,-7 -1,-1 0,-5 -1,0 -1,-1 -9,0 -1,-1 0,-2 1,-1 7,0 1,-1 2,0 0,-6 -1,-1 0,-3 1,-1 0,-3 1,-1 0,-1 1,-1 0,-1 1,-1 0,-1 1,-1 0,-2 1,-1 1,0 1,-1 0,-1 1,-1 0,-5 -1,0 -1,-1 -5,0 -1,1 -35,0 -1,1 -31,0 -1,-1 0,-2 1,-1 23,0 1,-1 36,0 1,-1 14,0 0,-6 1,-1 0,-2 -15,0 -1,-1 -95,0 -1,1Z"/>
<path onmouseover="hoverPath(evt)" onmouseout="recoverPath(evt)" fill="rgb(244,243,235)" d="M  0,213l 0,42 123,0 0,-2 -1,-1 0,-10 -1,-1 0,-12 -1,-1 0,-11 -1,-1 0,-6 -1,-1 0,-2 -52,0 -1,1 -19,0 -1,1 -11,0 -1,-1 -6,0 0,2 -1,1 -26,0Z"/>
<path onmouseover="hoverPath(evt)" onmouseout="recoverPath(evt)" fill="rgb(253,253,252)" d="M  109,121l 1,0 1,1 0,1 1,1 0,6 1,1 0,7 1,1 0,7 1,1 0,9 1,1 0,9 1,1 0,10 1,1 0,9 1,1 0,9 1,1 0,5 -1,1 -1,0 -1,1 -56,0 -1,1 -16,0 -1,1 1,0 17,-1 3,0 54,-1 1,0 1,1 0,2 1,1 0,6 1,1 0,11 1,1 0,12 1,1 0,10 1,1 0,3 1,0 0,-4 -1,-1 0,-14 -1,-1 0,-8 -1,-1 0,-10 -1,-1 0,-9 1,-1 24,0 1,-1 48,0 1,-1 3,0 1,1 4,0 1,-1 37,0 1,-1 11,0 0,-1 -16,0 -1,1 -44,0 -1,1 -3,0 -1,-1 -1,0 -1,-1 -1,-1 0,1 -1,1 -1,0 -1,1 -46,0 -1,-1 -1,0 -1,-1 -1,0 -1,-1 -1,0 -1,-1 -1,0 -1,-1 -1,0 -1,-1 -1,0 -1,-1 -1,0 -1,-1 -1,-1 0,-1 -1,-1 0,-5 -1,-1 0,-9 -1,-1 0,-10 -1,-1 0,-9 -1,-1 0,-8 -1,-1 0,-10 1,-1 1,0 1,-1 -3,0 -1,-1 0,-3 -1,-1 0,-8 -1,-1 0,-6 -1,-1 0,-8 -1,-1 0,-8 -1,-1 0,-8 -1,-1 0,-7 -1,-1 0,-8 -1,-1 0,-12 1,-1 0,-1 1,-1 0,-2 1,-1 0,-1 1,-1 1,-1 1,-1 1,-1 2,0 -1,-1 0,-9 1,-1 0,-31 -1,0 0,11 -1,1 0,5 1,1 0,4 -1,1 0,6 -1,1 -14,0 -1,1 -36,0 -1,1 6,0 32,-1 14,0 1,1 0,7 -1,1 0,1 -1,1 -1,1 -1,0 0,2 -1,1 0,1 -1,1 0,1 -1,1 0,1 -1,1 0,3 -1,1 0,1 1,1 0,8 -1,1 -2,0 -1,1 2,0 1,1 1,0 1,1 0,5 1,1 0,7 1,1 0,7 1,1 0,9 1,1 0,8 1,1 0,4 -1,1 -1,1Z"/>
<path onmouseover="hoverPath(evt)" onmouseout="recoverPath(evt)" fill="rgb(243,233,147)" d="M  111,0l -111,0 0,9 2,0 1,-1 14,0 1,-1 15,0 1,-1 15,0 1,-1 17,0 1,-1 17,0 1,-1 25,0 1,1 0,-1 1,-1 3,0 1,1 4,0 1,1 2,0 1,1 1,0 1,-1 9,0 1,1 6,0 1,1 4,0 1,1 3,0 1,1 4,0 1,1 3,0 1,1 1,0 1,-1 3,0 1,1 1,0 1,1 0,1 3,0 1,1 3,0 1,1 3,0 1,1 2,0 1,1 2,0 1,1 2,0 1,1 3,0 1,1 2,0 1,1 2,0 1,1 2,0 1,1 2,0 1,1 2,0 1,1 3,0 1,1 2,0 1,1 2,0 1,1 2,0 1,1 2,0 1,1 2,0 1,1 2,0 1,1 2,0 1,1 2,0 1,1 2,0 1,1 2,0 1,1 2,0 1,1 2,0 1,1 2,0 1,1 2,0 0,-6 -2,0 -1,-1 -2,0 -1,-1 -2,0 -1,-1 -2,0 -1,-1 -2,0 -1,-1 -2,0 -1,-1 -2,0 -1,-1 -3,0 -1,-1 -2,0 -1,-1 -2,0 -1,-1 -2,0 -1,-1 -2,0 -1,-1 -2,0 -1,-1 -2,0 -1,-1 -2,0 -1,-1 -2,0 -1,-1 -2,0 -1,-1 -2,0 -1,-1 -3,0 -1,-1 -2,0 -1,-1 -2,0 -1,-1 -2,0 -1,-1 -1,0 -1,-1 0,-4 -1,3 -7,0 -1,-1 -3,0 -1,-1 -1,-1 0,-5Z"/>
<path onmouseover="hoverPath(evt)" onmouseout="recoverPath(evt)" fill="rgb(244,243,235)" d="M  124,209l 0,5 1,1 0,10 1,1 0,8 1,1 0,14 1,1 0,5 77,0 0,-7 -1,-1 0,-6 -1,-1 0,-7 -1,-1 0,-7 -1,-1 0,-9 -1,-1 0,-8 -1,-1 -1,0 -1,1 -48,0 -1,1 -24,0Z"/>
<path onmouseover="hoverPath(evt)" onmouseout="recoverPath(evt)" fill="rgb(245,244,237)" d="M  170,15l 0,1 -1,1 0,1 1,1 3,0 1,1 4,0 1,1 3,0 1,1 3,0 1,1 3,0 1,1 3,0 1,1 2,0 1,1 2,0 1,1 2,0 1,1 2,0 1,1 3,0 1,1 2,0 1,1 2,0 1,1 2,0 1,1 2,0 1,1 3,0 1,1 2,0 1,1 2,0 1,1 1,0 1,1 2,0 1,1 1,0 1,1 2,0 1,1 1,0 1,1 2,0 1,1 1,1 1,0 1,1 2,0 1,1 1,0 0,-6 -3,0 -1,-1 -2,0 -1,-1 -2,0 -1,-1 -2,0 -1,-1 -2,0 -1,-1 -2,0 -1,-1 -2,0 -1,-1 -2,0 -1,-1 -2,0 -1,-1 -2,0 -1,-1 -2,0 -1,-1 -2,0 -1,-1 -2,0 -1,-1 -2,0 -1,-1 -3,0 -1,-1 -2,0 -1,-1 -2,0 -1,-1 -2,0 -1,-1 -2,0 -1,-1 -2,0 -1,-1 -3,0 -1,-1 -2,0 -1,-1 -2,0 -1,-1 -2,0 -1,-1 -3,0 -1,-1 -3,0 -1,-1 -1,0 -1,1Z"/>
<path onmouseover="hoverPath(evt)" onmouseout="recoverPath(evt)" fill="rgb(244,243,236)" d="M  185,31l 0,1 1,1 0,7 1,1 0,7 1,1 0,7 1,1 0,7 1,1 0,8 1,1 0,9 1,1 0,6 1,1 0,5 1,1 0,6 1,1 0,5 1,1 0,7 1,1 0,6 1,1 0,8 1,1 0,9 1,1 0,10 1,1 0,7 1,1 0,8 1,1 0,8 1,1 0,7 1,1 0,6 1,1 0,4 31,0 1,-1 17,0 0,-145 -3,0 -1,-1 -2,0 -1,-1 -2,0 -1,-1 -2,0 -1,-1 -1,0 -1,-1 -1,0 -1,-1 -1,0 -1,-1 -1,0 -1,-1 -2,0 -1,-1 -1,0 -1,-1 -1,0 -1,-1 -4,0 -1,-1 -2,0 -1,-1 -2,0 -1,-1 -2,0 -1,-1 -2,0 -1,-1 -1,0 -1,-1 -2,0 -1,-1 -2,0 -1,-1 -2,0 -1,-1 -2,0 -1,-1 -1,0 -1,-1 -3,0 -1,-1 -2,0 -1,-1 -1,0 -1,1Z"/>
<path onmouseover="hoverPath(evt)" onmouseout="recoverPath(evt)" fill="rgb(171,198,238)" d="M  187,75l 0,5 1,1 0,8 1,1 0,8 1,1 0,8 1,1 0,7 1,1 0,8 1,1 0,8 1,1 0,8 1,1 0,8 1,1 0,8 1,1 0,6 1,1 0,7 1,1 0,7 1,1 0,10 1,1 0,5 3,0 0,-3 -1,-1 0,-6 -1,-1 0,-7 -1,-1 0,-8 -1,-1 0,-8 -1,-1 0,-7 -1,-1 0,-10 -1,-1 0,-9 -1,-1 0,-8 -1,-1 0,-6 -1,-1 0,-7 -1,-1 0,-5 -1,-1 0,-6 -1,-1 0,-5 -1,-1 0,-6 -1,-1 0,-9 -1,-1 -1,1 1,-3 0,-6 -1,-1 0,-7 -1,-1 0,-7 -1,-1 0,-7 -1,-1 0,-7 -1,-1 0,-1 -1,0 0,5 1,1 0,8 1,1 0,8 1,1 0,5 1,1 0,10 2,0 -1,3Z"/>
<path onmouseover="hoverPath(evt)" onmouseout="recoverPath(evt)" fill="rgb(244,243,236)" d="M  190,0l -17,0 0,4 1,1 3,0 1,1 5,0 0,-2 1,-1 2,0 1,1 0,4 1,0 1,1 2,0 1,1 2,0 1,1 2,0 1,1 3,0 1,1 2,0 1,1 2,0 1,1 2,0 1,1 2,0 1,1 2,0 1,1 2,0 1,1 2,0 1,1 2,0 1,1 2,0 1,1 2,0 1,1 3,0 1,1 2,0 1,1 2,0 1,1 2,0 1,1 2,0 1,1 2,0 1,1 2,0 1,1 1,0 0,-30Z"/>
<path onmouseover="hoverPath(evt)" onmouseout="recoverPath(evt)" fill="rgb(171,198,238)" d="M  202,207l 0,6 1,1 0,9 1,1 0,7 1,1 0,7 1,1 0,6 1,1 0,8 3,0 0,-3 -1,-1 0,-7 -1,-1 0,-7 -1,-1 0,-9 -1,-1 0,-11 -1,-1 0,-7 -2,0 -1,1Z"/>
</svg>