<svg width="256" height="256" xmlns="http://www.w3.org/2000/svg"><script> 
var tempColor;
function hoverPath(evt){
obj = evt.target;
tempColor = obj.getAttribute("fill");
obj.setAttribute("fill","red");
//alert(tempColor);
//obj.setAttribute("stroke","red");}
function recoverPath(evt){
obj = evt.target;
obj.setAttribute("fill", tempColor);
//obj.setAttribute("stroke", tempColor);
}</script><path onmouseover="hoverPath(evt)" onmouseout="recoverPath(evt)" fill="rgb(243,242,235)" d="M  17,102l -1,0 -1,1 0,2 -1,1 0,2 2,0 1,1 0,6 8,0 1,1 0,8 1,1 2,0 1,1 2,0 1,1 2,0 1,1 2,0 1,1 2,0 1,1 2,0 1,1 2,0 1,1 2,0 1,1 2,0 1,1 2,0 1,1 2,0 1,1 2,0 1,1 2,0 1,1 3,0 1,1 2,0 1,1 2,0 1,1 2,0 1,1 2,0 1,1 2,0 1,1 2,0 1,1 2,0 1,1 2,0 1,1 2,0 1,1 2,0 1,1 2,0 1,1 2,0 1,1 2,0 1,1 2,0 1,1 1,0 1,1 2,0 1,1 4,0 1,1 2,0 1,1 2,0 1,1 2,0 1,1 2,0 1,1 2,0 1,1 2,0 1,1 2,0 1,1 2,0 1,1 2,0 1,1 2,0 1,1 1,0 1,1 2,0 1,1 2,0 1,1 2,0 1,1 3,0 1,1 2,0 1,1 3,0 1,1 1,0 1,1 0,-3 1,-1 1,-1 1,0 1,-1 1,0 1,-1 1,-1 0,-1 1,-1 1,-1 1,-1 1,-1 0,-1 1,-1 1,-1 1,-1 0,-1 1,-1 1,-1 0,-1 1,-1 -1,0 -1,-1 0,0 -1,-1 -1,0 -1,-1 -1,0 -1,-1 -1,0 -1,-1 -1,-1 -1,-1 0,-2 -1,0 -1,-1 -1,-1 -1,0 -1,-1 -1,-1 -1,-1 -2,0 -1,-1 -1,-1 -1,1 -2,0 -1,-1 -1,0 -1,-1 -1,0 -1,-1 -1,-1 -1,-1 0,-3 1,-1 0,-1 1,-1 2,0 1,-1 1,-1 0,-1 1,-1 -1,-1 0,-2 1,-1 1,-1 1,-1 0,-1 1,-1 1,-1 0,-1 1,-1 1,-1 0,-1 1,-1 1,-1 2,0 1,-1 1,-1 0,-1 1,-1 -1,-1 0,-2 2,-2 1,-1 0,-1 1,-1 1,-1 0,-1 1,-1 1,-1 2,0 1,-1 1,-1 0,-1 1,-1 1,-1 -1,-1 0,-2 1,-1 1,-1 0,-1 1,-1 1,-1 2,0 1,-1 -1,-1 0,-2 1,-1 1,-1 1,-1 0,-1 1,-1 1,-1 0,-1 1,-1 1,-1 2,0 1,-1 1,-1 0,-1 1,-1 1,-1 -1,-1 0,-2 1,-1 1,-1 0,-1 1,-1 1,-1 2,0 1,-1 1,-1 0,-1 1,-1 1,-1 0,-1 1,-1 1,-1 -1,-1 0,-2 1,-1 1,-1 2,0 0,-3 -1,0 -1,-1 -1,1 -2,0 -1,-1 -1,-1 0,-2 1,-1 0,-1 1,-1 0,-1 1,-1 0,-1 1,-1 0,-1 -1,0 -1,-1 -1,0 -1,-1 -1,-1 -2,0 -1,-1 -1,-1 -1,0 -1,-1 -1,0 -1,-1 -1,0 -1,-1 -1,0 -1,-1 0,-2 -1,0 -1,-1 -1,-1 -1,0 -1,-1 -1,0 -1,-1 -1,0 -1,-1 -1,1 -2,0 -1,-1 -1,0 -1,-1 -1,0 -1,-1 -1,0 -1,-1 0,-2 -1,-1 0,-2 -88,0 0,2 -1,1 -1,1 -1,1 -1,1 0,1 -1,1 -1,1 -1,1 -1,1 0,1 -1,1 -2,2 0,1 -1,1 -1,1 -1,1 -1,1 0,1 -1,1 -3,3 0,1 -2,2 -1,1 -1,1 0,1 -1,1 -1,1 -1,1 0,1 -3,3 -1,1 0,1 -1,1 -1,1 -1,1 -1,1 0,1 -2,2 -1,1 -1,1 0,1 -1,1 -1,1 -1,1 0,1 -1,1 -1,1 -1,1 -1,1 0,1 -1,1 -1,1 -1,1 -1,1 0,1 -1,1 -1,1 -1,1 -1,1 0,1 -1,1 -1,1 -2,2 0,1 -1,1 -1,1 -1,1 0,1 -1,1 -1,1 -1,1 -1,1 0,1 -1,1 -2,2 -1,1 0,1 -1,1 0,1 -1,1 -1,0 -1,1 0,1 -1,1 0,1 -1,1 -2,0 0,1 -1,1 -1,1 0,2 -1,1Z"/>
<path onmouseover="hoverPath(evt)" onmouseout="recoverPath(evt)" fill="rgb(242,242,237)" d="M  0,1l 0,22 3,0 1,1 3,0 1,1 1,0 1,1 1,1 1,0 1,1 3,0 1,1 1,1 1,0 1,1 1,0 1,1 3,0 1,1 1,1 1,0 1,1 1,0 1,1 3,0 1,1 1,1 1,0 1,1 1,0 1,1 3,0 1,1 1,-1 6,0 0,-1 1,-1 1,-1 1,-1 1,-1 0,-1 1,-1 1,-1 1,-1 0,-1 1,-1 1,-1 1,-1 1,-1 0,-1 1,-1 1,-1 1,-1 1,-1 0,-1 2,-2 1,-1 0,-1 1,-1 1,-1 1,-1 1,-1 0,-1 1,-1 2,-2 1,-1 0,-1 1,-1 2,-2 0,-1 1,-1 0,-1 -80,0 -1,1Z"/>
<path onmouseover="hoverPath(evt)" onmouseout="recoverPath(evt)" fill="rgb(242,240,232)" d="M  190,0l -3,0 0,1 1,1 1,0 1,1 1,0 1,1 1,0 1,1 1,0 1,1 1,0 1,1 1,0 1,1 1,0 1,1 1,0 1,1 1,1 1,0 1,1 1,0 1,1 1,0 1,1 1,0 1,1 1,0 1,1 0,2 1,1 1,0 1,-1 2,0 1,1 1,0 1,1 1,0 1,1 1,0 1,1 1,0 1,1 1,1 1,0 1,1 1,0 1,1 1,0 1,1 1,0 1,1 1,0 1,1 1,0 1,1 1,0 1,1 1,0 1,1 1,0 1,1 1,0 1,1 0,2 1,1 1,0 1,1 2,0 0,-38Z"/>
<path onmouseover="hoverPath(evt)" onmouseout="recoverPath(evt)" fill="rgb(244,243,235)" d="M  224,26l 0,0 -1,1 0,1 -1,1 0,1 -1,1 0,1 -1,1 1,1 1,-1 2,0 1,1 1,0 1,1 0,5 -1,1 -2,0 -1,1 1,1 0,2 -1,1 -1,1 0,1 -1,1 -1,1 0,1 -1,1 -1,1 -1,1 -2,0 -1,1 0,1 -1,1 -1,1 1,1 0,2 -1,1 -1,1 0,1 -1,1 -1,1 -1,1 0,1 -1,1 -1,1 -2,0 -1,1 0,1 -1,1 -1,1 -1,1 1,1 0,2 -1,1 -1,1 -2,0 -1,1 0,1 -1,1 -1,1 1,1 0,2 -1,1 -1,1 0,1 -3,3 0,1 -1,1 -1,1 -2,0 -1,1 0,1 -1,1 -1,1 -1,1 1,1 0,2 -1,1 0,1 -1,1 -1,1 -1,1 -2,0 -1,1 0,1 -1,1 -1,1 0,1 -1,1 -1,1 0,1 -1,1 -1,1 -1,1 1,1 0,2 -1,1 0,1 -1,1 -1,1 -1,1 -2,0 0,1 -1,1 0,1 1,1 0,0 1,1 1,0 1,1 1,0 1,1 1,-1 2,0 1,1 1,1 2,0 1,1 1,1 1,1 1,0 1,1 1,1 1,0 1,1 0,2 1,1 1,1 1,0 1,1 1,0 1,1 1,-1 2,0 1,1 2,0 1,-1 1,-1 1,-1 0,-1 1,-1 1,-1 1,-1 0,-1 1,-1 1,-1 1,-1 0,-1 1,-1 1,-1 1,-1 0,-1 1,-1 1,-1 1,-1 0,-1 1,-1 1,-1 1,-1 0,-4 1,-1 1,-1 2,0 -2,-1 -1,0 -1,1 -2,0 -1,-1 0,-2 -1,0 -1,-1 0,-2 1,-1 1,-1 2,0 1,1 1,0 1,-1 2,0 1,1 0,2 3,0 1,-1 0,0 1,-1 0,-4 1,-1 1,-1 1,0 1,-1 1,0 1,-1 0,-2 1,-1 1,0 1,-1 0,-2 1,-1 1,0 1,-1 0,-2 1,-1 1,0 1,-1 0,-2 1,-1 1,0 1,-1 0,-2 1,-1 1,0 1,-1 0,-4 1,-1 1,-1 1,0 0,-2 1,-1 1,-1 1,0 1,-1 3,0 0,-33 -3,0 -1,-1 -1,0 -1,-1 -1,-1 -1,0 -1,-1 -1,0 -1,-1 -1,0 -1,-1 -1,0 -1,-1 -1,0 -1,-1 -1,0 -1,-1 0,-2 -1,0 -1,-1 -1,0 -1,-1 -1,0 -1,-1 -1,0 -1,-1 -1,-1 -1,0 -1,-1 -1,0 -1,-1 -1,0 -1,-1 -1,0 -1,-1 5,4Z"/>
<path onmouseover="hoverPath(evt)" onmouseout="recoverPath(evt)" fill="rgb(244,243,237)" d="M  0,26l 0,76 1,0 1,-1 1,-1 0,-1 1,-1 1,-1 1,-1 1,-1 0,-1 1,-1 2,-2 1,-1 0,-1 1,-1 1,-1 2,-2 0,-1 2,-2 1,-1 1,-1 0,-1 1,-1 2,-2 1,-1 0,-1 1,-1 1,-1 1,-1 1,-1 0,-1 5,-5 0,-1 1,-1 1,-1 1,-1 1,-1 0,-1 1,-1 2,-2 1,-1 0,-1 1,-1 1,-1 2,-2 0,-1 1,-1 1,-1 0,-2 -1,0 -1,-1 -1,0 -1,-1 -3,0 -1,-1 -1,0 -1,-1 -1,0 -1,-1 -1,-1 -3,0 -1,-1 -1,0 -1,-1 -1,0 -1,-1 -1,-1 -3,0 -1,-1 -1,0 -1,-1 -1,0 -1,-1 -1,-1 -3,0 -1,-1 -1,0 -1,-1 -1,-1 -1,0 -1,-1 -3,0 -1,-1 -1,0 -1,1Z"/>
<path onmouseover="hoverPath(evt)" onmouseout="recoverPath(evt)" fill="rgb(244,243,236)" d="M  0,210l 0,45 73,0 0,-1 -1,0 -1,-1 -1,-1 -1,0 -1,-1 -1,-1 0,-1 -2,0 -1,-1 0,-1 -2,0 -1,-1 -1,-1 -1,0 -1,-1 -1,0 -1,-1 -1,-1 -1,0 -1,-1 -1,-1 -4,0 -1,-1 0,-2 1,-1 -4,0 -1,-1 -1,-1 -1,0 -1,-1 -1,-1 -1,0 -1,-1 -1,0 -1,-1 -1,-1 -1,0 -1,-1 -1,0 -1,-1 -1,-1 -1,0 -1,-1 -1,0 -1,-1 -1,-1 -1,0 -1,-1 -1,0 -1,-1 -1,0 -1,-1 -1,-1 -1,0 -1,-1 -1,0 -1,-1 -1,-1 -1,0 -1,-1 -1,0 -1,-1 -1,-1 -1,0 -1,-1 -1,-1 -1,0 -1,-1 -1,-1 -1,1Z"/>
<path onmouseover="hoverPath(evt)" onmouseout="recoverPath(evt)" fill="rgb(217,222,225)" d="M  7,118l 1,1 0,3 1,1 1,0 1,1 4,0 2,2 4,0 0,-1 1,-1 2,0 0,-7 -8,0 -1,-1 0,-6 -2,0 0,2 -1,1 -2,0 0,1 -1,1 -1,0 -1,1 -1,0 0,1 1,1Z"/>
<path onmouseover="hoverPath(evt)" onmouseout="recoverPath(evt)" fill="rgb(243,242,234)" d="M  226,126l 0,1 -1,1 -1,0 -1,1 0,2 -1,1 -1,0 -1,1 0,1 -1,1 -1,1 -1,1 -1,1 0,1 -1,1 -2,2 0,1 -1,1 -1,1 -1,1 0,1 -1,1 -1,1 0,2 -1,1 -1,0 -1,1 0,4 -1,1 -1,1 -1,0 0,2 -1,1 -1,1 -1,0 -1,1 -1,0 -1,1 0,1 -1,1 -1,1 -1,1 -1,1 0,1 -1,1 -1,1 -1,1 0,1 -1,1 -1,1 1,0 1,1 2,0 1,1 1,0 1,1 2,0 1,1 2,0 1,1 2,0 1,1 3,0 1,1 2,0 1,1 1,0 1,1 0,2 1,0 1,1 3,0 1,1 2,0 1,1 2,0 1,1 2,0 1,1 2,0 1,1 1,0 1,1 2,0 1,1 3,0 1,1 2,0 1,1 2,0 1,1 2,0 1,1 2,0 1,1 2,0 1,1 1,0 0,-114 -1,0 0,1 -1,1 -1,1 -1,1 0,1 -1,1 -1,1 -1,1 0,4 -1,1 -1,1 -1,0 0,2 -1,1 -1,1 -1,0 0,2 -1,1 -1,1 -1,0 0,2 -1,1 -1,1 -1,0 0,2 -1,1 -1,1 -2,0 0,1 1,1 1,0 1,1 1,0 1,1 1,0 1,1 0,3 -1,1 -3,0 -1,-1 -1,0 -1,-1 -1,0 -1,-1 -3,0 -1,1Z"/>
<path onmouseover="hoverPath(evt)" onmouseout="recoverPath(evt)" fill="rgb(244,243,236)" d="M  0,123l 0,75 2,0 1,1 1,0 1,1 1,1 1,0 1,1 1,1 1,0 1,1 1,1 1,0 1,1 1,1 1,0 1,1 1,0 1,1 1,1 1,0 1,1 1,0 1,1 1,1 1,0 1,1 1,0 1,1 1,0 1,1 1,1 1,0 1,1 1,0 1,1 1,1 1,0 1,1 1,0 1,1 1,1 1,0 1,1 1,0 1,1 1,1 1,0 1,1 1,0 1,1 1,1 1,0 1,1 1,0 1,1 1,1 1,0 1,1 1,1 1,0 1,1 0,1 2,0 1,1 1,0 1,1 1,1 1,0 1,1 1,1 1,0 1,1 1,1 0,1 2,0 1,1 1,1 1,0 1,1 1,1 1,0 1,1 1,1 1,0 1,1 1,1 1,0 1,1 0,2 30,0 0,-2 1,-1 1,-1 0,-1 1,-1 1,-1 0,-1 1,-1 1,-1 0,-1 1,-1 1,-1 0,-4 1,-1 1,0 0,-2 1,-1 1,-1 2,0 1,-1 0,-1 1,-1 1,-1 1,-1 0,-1 2,-2 1,-1 0,-1 1,-1 1,-1 1,-1 0,-1 1,-1 1,-1 0,-1 1,-1 1,-1 0,-4 1,-1 1,-1 2,0 1,-1 1,-1 0,-4 1,-1 1,-1 2,0 1,-1 1,-1 0,-1 1,-1 1,-1 1,-1 0,-1 1,-1 1,-1 1,-1 0,-1 1,-1 2,-2 0,-1 3,-3 0,-1 1,-1 1,-1 0,-1 -1,0 -1,-1 -2,0 -1,-1 -2,0 -1,-1 -2,0 -1,-1 -2,0 -1,-1 -2,0 -1,-1 -2,0 -1,-1 -2,0 -1,-1 -1,0 -1,-1 -2,0 -1,-1 -2,0 -1,-1 -4,0 -1,-1 -2,0 -1,-1 -2,0 -1,-1 -2,0 -1,-1 -2,0 -1,-1 -2,0 -1,-1 -2,0 -1,-1 -2,0 -1,-1 -2,0 -1,-1 -2,0 -1,-1 -3,0 -1,-1 -2,0 -1,-1 -2,0 -1,-1 -2,0 -1,-1 -2,0 -1,-1 -2,0 -1,-1 -2,0 -1,-1 -2,0 -1,-1 -2,0 -1,-1 -2,0 -1,-1 -2,0 -1,-1 -3,0 -1,-1 -2,0 -1,-1 -2,0 -1,-1 -2,0 -1,-1 -2,0 -1,-1 -2,0 -1,-1 -2,0 -1,-1 -2,0 -1,-1 -2,0 -1,-1 -2,0 -1,-1 -3,0 -1,-1 -2,0 -1,-1 -2,0 -1,-1 -2,0 -1,-1 -2,0 -1,-1 -2,0 -1,-1 -2,0 -1,-1 -1,0 -1,-1 -5,0 -1,-1 -1,-1 -4,0 -1,-1 -1,0 -1,-1 -2,0 -1,-1 -2,0 -1,-1 -1,1Z"/>
<path onmouseover="hoverPath(evt)" onmouseout="recoverPath(evt)" fill="rgb(246,235,137)" d="M  0,203l 0,4 2,0 1,1 1,1 1,0 1,1 1,1 1,0 1,1 1,1 1,0 1,1 1,0 1,1 1,1 1,0 1,1 1,0 1,1 1,1 1,0 1,1 1,0 1,1 1,0 1,1 1,1 1,0 1,1 1,0 1,1 1,1 1,0 1,1 1,0 1,1 1,1 1,0 1,1 1,0 1,1 1,1 1,0 1,1 1,1 4,0 1,1 0,2 -1,1 4,0 1,1 1,1 1,0 1,1 1,1 1,0 1,1 1,0 1,1 1,1 2,0 1,1 0,1 2,0 1,1 0,1 1,1 1,0 1,1 1,1 1,0 1,1 0,2 12,0 0,-1 -1,0 -1,-1 -1,-1 -1,0 -1,-1 -1,-1 -1,0 -1,-1 -1,-1 -1,0 -1,-1 -1,-1 -2,0 -1,-1 0,-1 -1,-1 -1,0 -1,-1 -1,-1 -1,0 -1,-1 -1,-1 -1,0 -1,-1 -2,0 -1,-1 0,-1 -1,0 -1,-1 -1,-1 -1,0 -1,-1 -1,-1 -1,0 -1,-1 -1,0 -1,-1 -1,-1 -1,0 -1,-1 -1,0 -2,-2 -1,0 -1,-1 -1,0 -1,-1 -1,-1 -1,0 -1,-1 -1,0 -1,-1 -1,-1 -1,0 -1,-1 -1,0 -1,-1 -1,-1 -1,0 -1,-1 -1,0 -1,-1 -1,0 -1,-1 -1,-1 -1,0 -1,-1 -1,0 -1,-1 -1,-1 -1,0 -1,-1 -1,0 -1,-1 -1,-1 -1,0 -1,-1 -1,-1 -1,0 -2,-2 -1,0 -2,-2 -1,0 -1,-1 -1,0Z"/>
<path onmouseover="hoverPath(evt)" onmouseout="recoverPath(evt)" fill="rgb(170,198,237)" d="M  48,43l 0,4 -1,1 -1,1 0,1 -1,1 -1,1 -1,1 -1,1 0,1 -1,1 -1,1 -1,1 -1,1 0,1 -2,2 -1,1 -1,1 0,1 -1,1 -1,1 -1,1 -1,1 -1,1 0,1 -3,3 -1,1 0,1 -1,1 -1,1 -1,1 -1,1 0,1 -1,1 -1,1 -1,1 -1,1 0,1 -1,1 -1,1 -1,1 -1,1 0,1 -1,1 -1,1 -1,1 -1,1 0,1 -1,1 -1,1 -1,1 -1,1 0,1 -1,1 -1,1 -1,1 -2,0 0,16 2,0 1,1 2,0 1,1 0,-2 -2,0 -1,-1 0,-2 1,-1 0,-1 1,-1 1,0 1,-1 1,0 0,-1 1,-1 2,0 0,-2 1,-1 0,-3 1,-1 0,-2 1,-1 1,-1 2,0 0,-2 1,-1 1,-1 0,-1 1,-1 2,0 0,-1 1,-1 0,-1 1,-1 1,-1 1,0 0,-1 1,-1 0,-1 1,-1 1,-1 2,-2 0,-1 1,-1 1,-1 1,-1 1,-1 0,-1 1,-1 1,-1 1,-1 0,-1 1,-1 1,-1 1,-1 1,-1 0,-1 1,-1 1,-1 1,-1 1,-1 0,-1 2,-2 1,-1 1,-1 0,-1 1,-1 1,-1 1,-1 1,-1 0,-1 3,-3 0,-1 3,-3 1,-1 0,-1 1,-1 1,-1 1,-1 1,-1 0,-1 1,-1 3,-3 0,-1 1,-1 1,-1 1,-1 0,-1 1,-1 1,-1 1,-1 1,-1 0,-1 1,-1 3,-3 0,-1 1,-1 1,-1 1,-1 1,-1 0,-1 1,-1 1,-1 1,-1 0,-1 1,-1 1,-1 1,-1 1,-1 0,-1 1,-1 2,-2 1,-1 0,-1 -12,0 0,2 -1,1 0,1 -1,1 -1,1 -1,1 0,1 -1,1 -1,1 -1,1 -1,1 0,1 -1,1 -3,3 0,1 -2,2 -1,1 0,1 -1,1 -1,1 -1,1 -1,1 0,1 -1,1 -1,1 -1,1 -1,1 0,1 -1,1 -1,1 -1,1 0,1 -3,3 -1,1 0,1 -1,1 -3,0 -1,1 -1,-1 0,0 1,1Z"/>
<path onmouseover="hoverPath(evt)" onmouseout="recoverPath(evt)" fill="rgb(171,198,238)" d="M  111,155l 0,0 -1,-1 -2,0 -1,-1 -2,0 -1,-1 -2,0 -1,-1 -2,0 -1,-1 -2,0 -1,-1 -2,0 -1,-1 -2,0 -1,-1 -2,0 -1,-1 -2,0 -1,-1 -2,0 -1,-1 -2,0 -1,-1 -2,0 -1,-1 -2,0 -1,-1 -2,0 -1,-1 -3,0 -1,-1 -2,0 -1,-1 -2,0 -1,-1 -2,0 -1,-1 -2,0 -1,-1 -2,0 -1,-1 -2,0 -1,-1 -2,0 -1,-1 -2,0 -1,-1 -2,0 -1,-1 -2,0 -1,-1 -2,0 -1,-1 -2,0 -1,-1 -2,0 -1,-1 -2,0 0,1 1,0 1,1 2,0 1,1 2,0 1,1 2,0 1,1 2,0 1,1 2,0 1,1 2,0 1,1 3,0 1,1 2,0 1,1 2,0 1,1 2,0 1,1 2,0 1,1 2,0 1,1 2,0 1,1 2,0 1,1 2,0 1,1 2,0 1,1 3,0 1,1 2,0 1,1 2,0 1,1 2,0 1,1 2,0 1,1 2,0 1,1 2,0 1,1 2,0 1,1 2,0 1,1 2,0 1,1 2,0 1,1 3,0 1,1 2,0 1,1 2,0 1,1 2,0 1,1 2,0 1,1 2,0 1,1 2,0 1,1 2,0 1,1 2,0 1,1 2,0 1,1 4,0 1,1 2,0 1,1 2,0 1,1 1,0 1,1 2,0 1,1 2,0 1,1 2,0 1,1 2,0 1,1 2,0 1,1 2,0 1,1 2,0 1,1 1,0 0,-1 -1,0 -1,-1 -2,0 -2,-1 -1,0 -2,-1 -1,0 -6,-2 -3,-1 -3,-1 -2,-1 -3,-1 -3,-1 -3,-1 -2,0 -1,-1 -2,0 -1,-1 -2,0 -1,-1 -2,0 -1,-1 -2,0 -1,-1 -2,0 -1,-1 -2,0 -1,-1 -2,0 -3,-1 -3,-1 0,1 -1,-1Z"/>
<path onmouseover="hoverPath(evt)" onmouseout="recoverPath(evt)" fill="rgb(244,243,236)" d="M  185,183l 0,0 -1,1 -1,0 0,2 -1,1 -1,1 -1,0 -1,1 -1,0 -1,1 0,2 -1,1 -1,0 -1,1 -1,1 0,1 -1,1 -1,1 -1,1 0,1 -1,1 -1,1 0,2 -1,1 -1,0 -1,1 0,2 -1,1 -1,0 -2,2 0,1 -1,1 -1,1 0,1 -1,1 -1,1 -1,1 0,4 -1,1 -1,1 -2,0 -1,1 0,1 -2,2 0,2 -1,1 -1,0 -1,1 0,4 -1,1 -1,1 -2,0 -1,1 0,1 -1,1 -1,1 0,4 -2,2 -2,0 -1,1 0,1 -1,1 -1,1 0,1 -1,1 0,1 124,0 0,-51 -2,0 -1,-1 -2,0 -1,-1 -2,0 -1,-1 -2,0 -1,-1 -2,0 -1,-1 -2,0 -1,-1 -3,0 -1,-1 -2,0 -1,-1 -1,0 -1,-1 -2,0 -1,-1 -2,0 -1,-1 -2,0 -1,-1 -2,0 -1,-1 -3,0 -1,-1 -1,0 -1,-1 -3,0 -1,-1 -3,0 -1,-1 -2,0 -1,-1 -2,0 -1,-1 -2,0 -1,-1 -2,0 -1,-1 -1,0 -1,-1 -2,0 -1,1Z"/>
<path onmouseover="hoverPath(evt)" onmouseout="recoverPath(evt)" fill="rgb(247,247,243)" d="M  195,151l 0,2 -1,1 0,1 -1,1 -1,1 0,1 -1,1 -1,1 -1,1 0,1 -1,1 -1,1 -1,1 -1,1 0,1 -1,1 -1,1 -1,1 -1,0 -1,1 -1,0 -1,1 0,3 -1,1 -1,0 0,1 -1,1 0,2 -1,1 -1,1 0,1 -1,1 -1,1 -1,1 0,1 -1,1 -1,1 -1,1 0,1 -1,1 -1,1 -1,1 0,1 -1,1 -1,1 -1,1 0,1 -1,1 -1,1 -1,1 -2,0 -1,1 0,4 -1,1 -1,1 -1,1 -2,0 -1,1 0,4 -1,1 -1,1 0,1 -1,1 -1,1 0,1 -1,1 -1,1 -1,1 0,1 -1,1 -1,1 -1,1 0,1 -1,1 -1,1 -1,1 0,1 -1,1 -1,1 -2,0 -1,1 0,2 -1,1 -1,0 0,4 -1,1 -1,1 0,1 -1,1 -1,1 0,1 -1,1 -1,1 0,1 -1,1 -1,1 0,1 8,0 0,-2 1,-1 0,-1 1,-1 1,-1 0,-1 1,-1 1,-1 2,0 1,-1 0,-4 2,-2 0,-1 2,-2 2,0 1,-1 0,-4 1,-1 1,-1 1,0 0,-2 2,-2 0,-1 2,-2 2,0 1,-1 0,-4 1,-1 2,-2 0,-1 1,-1 1,-1 0,-1 1,-1 1,-1 1,-1 1,0 0,-2 1,-1 1,-1 1,0 0,-2 1,-1 1,-1 0,-1 2,-2 1,-1 0,-1 1,-1 1,-1 1,-1 1,0 0,-2 2,-2 1,0 1,-1 1,0 1,-1 0,-2 1,-1 1,0 2,-2 4,0 1,1 0,-1 1,1 1,1 0,-1 1,1 1,0 1,1 0,-1 1,1 1,0 1,1 0,-1 1,1 1,0 1,1 0,-1 1,1 1,0 1,1 3,0 1,1 2,0 -2,-1 -3,-1 -1,0 -17,-6 -1,0 -1,-1 0,-2 1,-1 1,-1 0,-1 1,-1 1,-1 1,-1 0,-1 1,-1 1,-1 1,-1 1,-1 0,-1 1,-1 1,-1 1,0 1,-1 1,0 1,-1 0,-2 1,-1 1,0 1,-1 0,-4 1,-1 1,-1 1,0 0,-2 1,-1 1,-1 0,-1 1,-1 1,-1 1,-1 0,-1 1,-1 1,-1 1,-1 0,-1 1,-1 1,-1 1,-1 1,-1 0,-1 1,-1 1,-1 1,0 0,-2 1,-1 1,-1 1,0 0,-2 1,-1 1,-1 5,0 0,-1 -1,-1 0,-3 1,-1 2,0 1,-1 0,-2 1,-1 1,0 1,-1 0,-2 1,-1 1,0 1,-1 0,-2 1,-1 1,0 1,-1 0,-2 1,-1 1,0 1,-1 0,-4 1,-1 1,-1 1,-1 0,-1 1,-1 2,-2 0,-1 1,-1 2,0 0,-11 -2,0 -1,1 -1,0 -1,1 0,2 -1,1 -1,0 -1,1 0,4 -1,1 -1,1 -1,0 0,2 -1,1 -1,1 -1,0 0,2 -1,1 -1,1 -1,0 0,2 -1,1 -1,1 -1,0 0,2 -2,2 -1,0 0,2 -1,1 -1,1 -1,0 -1,1 -1,0 -1,1 0,4 -1,1 -1,1 -1,1 -5,0 0,1 1,0 1,1 0,2 -1,1 -2,0 -1,1 0,4 -1,1 -1,1 -1,1 0,1 -1,1 -1,1 -1,1 0,1 -1,1 -1,1 -1,1 0,1 -1,1 -2,2 0,1 -2,2 -1,1 0,1 -1,1 -1,1 -2,2 -1,0 -1,1 22,-35 0,-3 -1,1 -3,0 -1,-1 -1,1 1,0 1,1 0,2 1,-1 3,0 -22,35 37,-29 0,1 1,0 1,1 1,0 1,1 1,0 0,-1 -1,0 -1,-1 -1,0 -1,-1 -1,0 -37,29Z"/>
</svg>