<svg width="256" height="256" xmlns="http://www.w3.org/2000/svg"><script> 
var tempColor;
function hoverPath(evt){
obj = evt.target;
tempColor = obj.getAttribute("fill");
obj.setAttribute("fill","red");
//alert(tempColor);
//obj.setAttribute("stroke","red");}
function recoverPath(evt){
obj = evt.target;
obj.setAttribute("fill", tempColor);
//obj.setAttribute("stroke", tempColor);
}</script><path onmouseover="hoverPath(evt)" onmouseout="recoverPath(evt)" fill="rgb(244,243,238)" d="M  0,1l 0,254 35,0 0,-2 1,-1 0,-5 1,-1 0,-7 1,-1 0,-7 1,-1 0,-6 1,-1 0,-5 1,-1 0,-4 1,-1 0,-5 1,-1 0,-9 1,-1 0,-9 1,-1 0,-2 1,-1 0,-2 1,-1 0,-1 1,-1 0,-2 1,-1 0,-1 1,-1 0,-3 1,-1 0,-3 1,-1 0,-8 1,-1 0,-25 1,-1 0,-8 -1,-1 0,-9 -1,-1 0,-14 -1,-1 0,-4 -1,-1 0,-5 -1,-1 0,-3 -1,-1 0,-2 -1,-1 0,-1 -1,-1 0,-1 -1,-1 0,-1 -1,-1 0,-1 -1,-1 0,-2 -1,-1 -1,-1 -1,-1 -1,-1 -1,0 -1,-1 -1,-1 -1,0 -1,-1 -1,-1 -1,-1 0,-2 1,-1 1,-1 0,-1 1,-1 1,-1 0,-1 1,-1 1,-1 0,-1 1,-1 1,-1 1,-1 0,-1 1,-1 1,-1 0,-4 -1,-1 0,-1 -1,-1 -1,-1 -1,-1 -1,0 -1,-1 -1,0 -1,-1 -1,-1 -1,0 -1,-1 -1,0 -1,-1 -1,0 -1,-1 -1,-1 -1,0 -1,-1 -1,0 -1,-1 0,-2 1,-1 0,-6 -1,-1 0,-6 1,-1 0,-3 1,-1 4,0 1,1 2,0 1,-1 0,-1 1,-1 0,-1 -33,0 -1,1Z"/>
<path onmouseover="hoverPath(evt)" onmouseout="recoverPath(evt)" fill="rgb(171,198,238)" d="M  26,6l 0,2 -1,1 0,4 1,1 0,8 -1,1 1,0 1,1 1,0 1,1 1,1 1,0 1,1 1,0 1,1 1,0 1,1 1,1 1,0 1,1 1,0 1,1 1,1 1,1 1,1 0,1 1,1 0,6 -1,1 -1,1 0,1 -1,1 -1,1 -1,1 0,1 -1,1 -1,1 0,1 -1,1 -1,1 0,1 -1,1 -1,1 1,1 0,0 1,1 1,0 1,1 1,1 1,0 1,1 1,1 1,1 1,1 1,1 0,2 1,1 0,1 1,1 0,1 1,1 0,1 1,1 0,1 1,1 0,2 1,1 0,3 1,1 0,5 1,1 0,4 1,1 0,14 1,1 0,9 1,1 0,10 -1,1 0,25 -1,1 0,8 -1,1 0,3 -1,1 0,3 -1,1 0,1 -1,1 0,2 -1,1 0,1 -1,1 0,2 -1,1 0,2 -1,1 0,9 -1,1 0,9 -1,1 0,5 -1,1 0,4 -1,1 0,5 -1,1 0,6 -1,1 0,7 -1,1 0,7 -1,1 0,5 -1,1 0,1 218,0 0,-255 -219,0 0,2 -1,1 0,1 -1,1 -1,1 -4,0 -1,-1 -1,0 -1,1Z"/>
</svg>