<svg width="256" height="256" xmlns="http://www.w3.org/2000/svg"><script> 
var tempColor;
function hoverPath(evt){
obj = evt.target;
tempColor = obj.getAttribute("fill");
obj.setAttribute("fill","red");
//alert(tempColor);
//obj.setAttribute("stroke","red");}
function recoverPath(evt){
obj = evt.target;
obj.setAttribute("fill", tempColor);
//obj.setAttribute("stroke", tempColor);
}</script><path onmouseover="hoverPath(evt)" onmouseout="recoverPath(evt)" fill="rgb(235,236,201)" d="M  0,88l 0,167 138,0 0,-1 -1,-1 0,-1 -1,-1 0,-2 -1,-1 0,-1 -1,-1 0,-3 -1,-1 0,-1 -1,-1 0,-2 -1,-1 0,-1 -1,-1 0,-3 -1,-1 0,-1 -1,-1 0,-1 -1,-1 -2,0 -1,-1 0,-2 1,-1 1,0 0,-1 -1,-1 0,-1 -1,-1 0,-3 -1,-1 0,-1 -1,-1 0,-1 -1,-1 0,-2 -1,-1 0,-2 -1,-1 0,-1 -1,-1 0,-2 -1,-1 0,-2 -1,-1 0,-1 -1,-1 0,-2 -1,-1 -2,0 -1,1 -3,0 -1,1 -2,0 -1,1 -3,0 -1,1 -3,0 -1,1 -2,0 -1,1 -3,0 -1,1 -3,0 -1,1 -2,0 -1,1 -3,0 -1,1 -3,0 -1,1 -9,0 -1,-1 -1,0 -1,-1 -1,-1 -1,-1 0,-2 -1,-1 0,-1 -1,-1 0,-2 -1,-1 0,-4 1,-1 2,0 1,1 1,1 0,2 1,1 0,1 1,1 0,1 1,1 1,1 0,1 1,0 1,1 3,0 1,-1 3,0 1,-1 2,0 1,-1 3,0 1,-1 3,0 1,-1 2,0 1,-1 3,0 1,-1 2,0 1,-1 3,0 1,-1 3,0 1,-1 2,0 1,-1 2,0 1,-1 1,0 0,-1 -1,-1 0,-2 -1,-1 0,-2 -1,-1 0,-1 -1,-1 0,-2 -1,-1 0,-2 -1,-1 0,-2 -1,-1 -2,0 -1,1 -3,0 -1,1 -2,0 -1,1 -3,0 -1,1 -2,0 -1,1 -3,0 -1,1 -3,0 -1,1 -5,0 -2,-2 0,-2 1,-1 1,-1 1,0 1,-1 2,0 1,-1 2,0 1,-1 3,0 1,-1 2,0 1,-1 3,0 1,-1 3,0 1,-1 2,0 1,-1 2,0 -1,-1 0,-4 -1,-1 -1,-1 0,-3 -1,-1 -1,-1 0,-4 -1,-1 -1,-1 0,-3 -1,-1 -1,-1 0,-3 -1,-1 0,-1 -1,-1 0,-3 -1,-1 -1,-1 0,-3 -1,-1 0,-2 -1,-1 -1,-1 0,-3 -1,-1 -1,-1 0,-4 -1,0 -1,-1 0,-4 -1,-1 -1,-1 0,-4 -1,0 -1,-1 0,-4 -1,-1 -1,-1 0,-3 -1,-1 -1,-1 0,-2 -1,-1 0,-2 -1,-1 0,-1 -1,-1 0,-3 -1,-1 -1,-1 0,-3 -1,-1 -1,-1 0,-3 -1,-1 -1,-1 0,-3 -1,-1 0,-1 -1,-1 0,-4 -1,0 -1,-1 0,-4 -1,-1 -1,-1 0,-2 -1,-1 0,-1 -1,-1 0,-4 -1,-1 -1,-1 0,-4 1,-1 0,-3 -1,-1 0,0 -1,-1 0,-3 -1,-1 -2,0 -1,-1 0,-1 -1,-1 0,-2 -1,-1 0,-2 -1,-1 -1,-1 -1,1 -3,0 -1,-1 -1,-1 -1,-1 0,-1 -1,-1 0,-1 -1,-1 0,-1 -1,-1 0,-3 -37,0Z"/>
<path onmouseover="hoverPath(evt)" onmouseout="recoverPath(evt)" fill="rgb(253,253,253)" d="M  62,196l 0,2 1,1 1,1 1,0 1,1 7,0 1,-1 3,0 1,-1 3,0 1,-1 2,0 1,-1 3,0 1,-1 3,0 1,-1 2,0 1,-1 3,0 1,-1 3,0 1,-1 2,0 1,-1 3,0 1,-1 4,0 1,1 1,1 0,2 1,1 0,1 1,1 0,2 1,1 0,2 1,1 0,1 1,1 0,2 1,1 0,2 1,1 0,1 1,1 0,1 1,1 0,3 1,1 0,1 1,1 0,3 -1,1 1,0 1,1 1,1 0,1 1,1 0,1 1,1 0,3 1,1 0,1 1,1 0,2 1,1 0,1 1,1 0,3 1,1 0,1 1,1 0,2 1,1 0,1 1,1 0,2 1,0 0,-3 -1,-1 0,-2 -1,-1 0,-1 -1,-1 0,-2 -1,-1 0,-1 -1,-1 0,-3 -1,-1 0,-1 -1,-1 0,-2 -1,-1 0,-1 -1,-1 0,-2 -1,-1 0,-2 -1,-1 0,-2 -1,-1 0,-2 -1,-1 0,-1 -1,-1 0,-2 -1,-1 0,-2 -1,-1 0,-1 -1,-1 0,-1 -1,-1 0,-3 -1,-1 0,-1 -1,-1 0,-1 -1,-1 0,-3 -1,-1 0,-1 -1,-1 0,-2 -1,-1 0,-2 -1,-1 0,-2 -1,-1 0,-1 -1,-1 0,-1 -1,-1 0,-3 -1,-1 0,-1 -1,-1 0,-1 -1,-1 0,-2 -1,-1 0,-4 1,-1 3,0 1,-1 1,0 -1,-1 0,-1 -7,0 -1,-1 -1,-1 0,-2 -1,-1 0,3 1,1 0,2 -1,1 -2,0 -1,1 -2,0 -1,1 -3,0 -1,1 -3,0 -1,1 -2,0 -1,1 -3,0 -1,1 -2,0 -1,1 -2,0 -1,1 -1,0 -1,1 1,1 3,0 1,-1 3,0 1,-1 3,0 1,-1 2,0 1,-1 3,0 1,-1 2,0 1,-1 3,0 1,-1 4,0 1,1 1,1 0,2 1,1 0,2 1,1 0,2 1,1 0,1 1,1 0,2 1,1 0,2 1,1 0,3 -1,1 -1,0 -1,1 -2,0 -1,1 -2,0 -1,1 -3,0 -1,1 -3,0 -1,1 -2,0 -1,1 -3,0 -1,1 -2,0 -1,1 -3,0 -1,1 -3,0 -1,1 -2,0 -1,1 -3,0 -1,1 -5,0 -1,-1 -1,0 -1,-1 0,-1 -1,-1 -1,0 -1,-1 1,-1 0,0 -1,-1 0,-1 -1,-1 0,-2 -1,-1 0,2 1,2 0,1 1,1 0,1 1,1Z"/>
<path onmouseover="hoverPath(evt)" onmouseout="recoverPath(evt)" fill="rgb(236,237,210)" d="M  70,52l 0,-3 -1,-1 -1,-1 0,-3 -1,-1 -1,-1 0,-3 -1,0 -1,-1 0,-4 -1,0 -1,1 0,1 1,1 0,3 1,1 1,1 0,2 1,1 0,2 1,1 0,4 -1,1 0,3 1,1 0,1 1,1 0,3 1,1 1,1 0,3 1,1 1,1 0,3 1,1 1,1 0,3 1,1 0,1 1,1 0,2 1,1 0,2 1,1 1,1 0,3 1,1 1,1 0,4 1,0 1,1 0,4 1,1 1,1 0,4 1,0 1,1 0,4 1,1 1,1 0,3 1,1 1,1 0,2 1,1 0,3 1,1 1,1 0,3 1,1 0,1 1,1 0,3 1,1 1,1 0,3 1,1 1,1 0,4 1,1 1,1 0,3 1,1 2,0 1,1 1,1 0,2 1,1 6,0 -1,-1 0,0 -1,-1 0,-3 -1,-1 -1,-1 0,-3 -1,-1 -1,-1 0,-3 -1,-1 -1,-1 0,-3 -1,-1 -1,-1 0,-3 -1,0 -1,-1 0,-2 -1,-1 0,-1 -1,-1 0,-2 -1,-1 0,-3 -1,-1 -1,-1 0,-3 -1,-1 -1,-1 0,-3 -1,-1 -1,-1 0,-3 -1,-1 -1,-1 0,-3 -1,-1 -1,-1 0,-3 -1,-1 -1,-1 0,-3 -1,-1 -1,-1 0,-3 -1,-1 -1,-1 0,-3 -1,0 -1,-1 0,-2 -1,-1 0,-3 -1,-1 -1,-1 0,-3 -1,-1 -1,-1 0,-3 -1,-1 -1,-1 0,-3 -1,-1 -1,-1 0,-3 -1,-1 -1,-1Z"/>
<path onmouseover="hoverPath(evt)" onmouseout="recoverPath(evt)" fill="rgb(233,233,198)" d="M  113,165l -2,0 0,2 1,1 0,2 1,1 0,1 1,1 0,1 1,1 0,3 1,1 0,1 1,1 0,1 1,1 0,2 1,1 0,2 1,1 0,2 1,1 0,1 1,1 0,3 1,1 0,1 1,1 0,1 1,1 0,3 1,1 0,1 1,1 0,1 1,1 0,2 1,1 0,2 1,1 0,1 1,1 0,2 1,1 0,2 1,1 0,2 1,1 0,2 1,1 0,1 1,1 0,2 1,1 0,1 1,1 0,3 1,1 0,1 1,1 0,2 1,1 0,1 1,1 0,2 1,1 0,4 7,0 0,-1 -1,-1 0,-2 1,-1 0,-1 -1,0 -1,-1 0,-1 -1,-1 0,-2 -1,-1 -1,-1 0,-3 -1,-1 -1,-1 0,-2 -1,-1 0,-3 -1,-1 -1,-1 0,-3 -1,-1 -1,-1 0,-2 -1,-1 0,-3 -1,-1 -1,-1 0,-3 -1,-1 -1,-1 0,-2 -1,-1 0,-3 -1,-1 -1,-1 0,-1 -1,-1 0,-4 -1,-1 -1,-1 0,-1 -1,-1 0,-4 -1,-1 -1,-1 0,-3 -1,-1 -1,-1 0,-3 -1,-1 -1,-1 0,-4 -1,-1 -1,-1 0,-1 -1,-1 0,-4 -1,0 -1,-1 -1,1Z"/>
<path onmouseover="hoverPath(evt)" onmouseout="recoverPath(evt)" fill="rgb(253,253,253)" d="M  141,152l -2,0 1,1 0,2 1,0 1,-1 5,0 1,1 1,0 1,1 0,1 1,1 1,1 0,3 1,1 0,1 1,1 0,1 1,1 0,2 1,1 0,1 1,1 0,2 1,1 0,2 1,1 0,2 1,1 0,1 1,1 0,2 1,1 0,2 1,1 0,1 1,1 0,2 1,1 0,1 1,1 0,2 1,1 0,2 1,1 0,1 1,1 0,1 1,1 0,3 1,1 0,1 1,1 0,2 1,1 0,2 1,1 0,1 1,1 0,2 1,1 0,2 1,1 0,1 1,1 0,2 1,1 0,2 1,1 0,1 1,1 0,2 1,1 0,2 1,1 0,1 1,1 0,2 1,1 0,2 1,1 0,1 1,1 0,3 4,0 0,-2 -1,-1 0,-2 -1,-1 0,-1 -1,-1 0,-2 -1,-1 0,-2 -1,-1 0,-1 -1,-1 0,-1 -1,-1 0,-3 -1,-1 0,-1 -1,-1 0,-1 -1,-1 0,-3 -1,-1 0,-1 -1,-1 0,-2 -1,-1 0,-1 -1,-1 0,-2 -1,-1 0,-2 -1,-1 0,-1 -1,-1 0,-2 -1,-1 0,-1 -1,-1 0,-2 -1,-1 0,-2 -1,-1 0,-1 -1,-1 0,-1 -1,-1 0,-3 -1,-1 0,-1 -1,-1 0,-2 -1,-1 0,-1 -1,-1 0,-2 -1,-1 0,-2 -1,-1 0,-1 -1,-1 0,-2 -1,-1 0,-2 -1,-1 0,-1 -1,-1 0,-1 -1,-1 0,-3 -1,-1 0,-1 -1,-1 0,-2 -1,-1 0,-1 -1,-1 -1,-1 0,-1 -1,-1 0,-1 -8,0 -1,1Z"/>
<path onmouseover="hoverPath(evt)" onmouseout="recoverPath(evt)" fill="rgb(180,141,235)" d="M  54,0l -1,0 0,4 1,1 1,1 0,3 1,1 1,1 0,3 1,1 1,1 0,3 1,1 1,1 0,4 1,1 0,1 1,1 0,2 1,1 0,1 1,0 1,1 0,4 1,0 1,1 0,3 1,1 1,1 0,3 1,1 1,1 0,3 1,1 1,1 0,3 1,1 1,1 0,3 1,1 1,1 0,3 1,1 1,1 0,3 1,1 1,1 0,3 1,1 0,2 1,0 1,1 0,3 1,1 1,1 0,3 1,1 1,1 0,3 1,1 1,1 0,3 1,1 1,1 0,3 1,1 1,1 0,3 1,1 1,1 0,3 1,1 1,1 0,3 1,1 1,1 0,3 1,1 0,2 1,1 0,1 1,1 0,2 1,0 1,1 0,3 1,1 1,1 0,3 1,1 1,1 0,3 1,1 1,1 0,3 1,1 1,1 0,3 1,1 1,1 0,3 1,1 0,2 1,0 1,1 0,4 1,1 0,1 1,1 1,1 0,4 2,2 0,3 1,1 1,1 0,3 1,1 1,1 0,4 1,1 0,1 1,1 1,1 0,4 1,1 0,1 1,1 1,1 0,3 1,1 0,2 1,1 1,1 0,3 1,1 1,1 0,3 1,1 0,2 1,1 1,1 0,3 1,1 1,1 0,3 1,1 0,2 1,1 1,1 0,3 1,1 1,1 0,2 1,1 0,1 1,0 1,1 1,1 0,2 -1,1 -1,0 1,1 0,2 10,0 0,-2 -1,-1 0,-2 1,-1 0,-2 1,-1 -1,0 -1,-1 -2,0 -1,-1 0,-1 -1,-1 0,-1 -1,-1 -1,-1 0,-1 -1,0 -1,-1 -1,-1 0,-2 1,-1 1,0 -1,-1 0,0 -1,-1 0,-4 -1,0 -1,-1 0,-2 -1,-1 0,-3 -1,-1 -1,-1 0,-4 -1,0 -1,-1 0,-2 -1,-1 0,-3 -1,-1 -1,-1 0,-4 -1,-1 0,-1 -1,-1 -1,-1 0,-4 -1,0 -1,-1 0,-2 -1,-1 0,-4 -1,0 -1,-1 0,-2 -1,-1 0,-2 -1,-1 0,-4 -1,0 -1,-1 0,-4 -1,0 -1,-1 0,-1 -1,-1 0,-7 -1,0 -1,-1 0,-2 -1,-1 0,-1 -1,0 -1,-1 0,-4 -1,0 -1,-1 0,-4 -1,0 -1,-1 0,-3 -1,-1 -1,-1 0,-3 -1,-1 -1,-1 0,-3 -1,-1 -1,-1 0,-3 -1,-1 -1,-1 0,-3 -1,-1 -1,-1 0,-3 -1,-1 0,-1 -1,-1 -1,-1 0,-3 -1,-1 -1,-1 0,-3 -1,-1 -1,-1 0,-3 -1,-1 -1,-1 0,-3 -1,-1 -1,-1 0,-3 -1,-1 -1,-1 0,-3 -1,-1 -1,-1 0,-3 -1,-1 -1,-1 0,-3 -1,-1 -1,-1 0,-3 -1,-1 -1,-1 0,-3 -1,-1 0,-1 -1,-1 -1,-1 0,-3 -1,-1 -1,-1 0,-3 -1,-1 -1,-1 0,-3 -1,-1 -1,-1 0,-3 -1,-1 -1,-1 0,-3 -1,-1 -1,-1 0,-3 -1,-1 -1,-1 0,-3 -1,-1 -1,-1 0,-3 -1,-1 -1,-1 0,-3 -1,-1 0,-1 -1,-1 -1,-1 0,-3 -1,-1 -1,-1 0,-3 -1,-1 -1,-1 0,-2Z"/>
<path onmouseover="hoverPath(evt)" onmouseout="recoverPath(evt)" fill="rgb(222,229,228)" d="M  60,27l 0,0 -1,-1 0,5 -1,1 0,2 1,1 1,1 0,4 1,1 0,1 1,1 0,2 1,1 1,1 0,4 1,0 0,-2 -1,-3 -1,-1 0,-2 -1,-1 -1,-2 0,-2 -1,-3 0,-1 1,-1 1,-1 -1,-1 0,-2 -1,-1 0,-1 -1,-2 0,-3 -1,-1 -1,-1 0,-3 -1,-1 -1,-1 0,-3 -1,-1 -1,-1 0,-3 -1,-1 -1,-1 0,-5 -12,0 0,2 1,1 0,1 1,1 0,1 1,1 0,1 1,1 1,1 1,0 1,-1 2,0 1,1 1,1 1,1 0,2 1,1 0,2 1,1 0,1 2,0 1,1 1,1 0,3 1,1 1,0 1,2Z"/>
<path onmouseover="hoverPath(evt)" onmouseout="recoverPath(evt)" fill="rgb(183,155,233)" d="M  71,0l -1,0 0,3 1,1 0,0 1,1 0,4 1,1 0,1 1,1 1,1 0,3 1,1 1,1 0,3 1,1 1,1 0,4 1,1 0,1 1,1 1,1 0,3 1,1 1,1 0,4 1,1 0,1 1,1 1,1 0,3 1,1 1,1 0,3 2,2 0,4 1,1 0,1 1,1 1,1 0,3 1,1 1,1 0,3 1,1 0,2 1,1 1,1 0,3 1,1 1,1 0,3 1,1 1,1 0,4 1,1 0,1 1,1 1,1 0,3 1,1 1,1 0,3 1,1 1,1 0,4 1,1 0,1 1,1 1,1 0,3 1,1 1,1 0,3 1,1 0,2 1,1 1,1 0,3 1,1 0,2 1,1 1,1 0,3 1,1 1,1 0,6 -1,1 0,3 1,0 1,1 0,4 1,0 1,1 0,1 1,1 0,2 1,0 1,1 0,7 1,1 0,1 1,0 1,1 0,4 1,0 1,1 0,4 1,1 0,2 1,1 0,2 1,0 1,1 0,4 1,1 0,2 1,0 1,1 0,4 1,1 1,1 0,1 1,1 0,4 1,1 1,1 0,3 1,1 0,2 1,0 1,1 0,4 1,1 1,1 0,3 1,1 0,2 1,0 1,1 0,4 1,1 1,1 0,2 -1,1 -1,0 1,1 1,0 1,1 0,1 1,1 1,1 0,1 1,1 0,1 2,0 1,1 2,0 1,1 0,2 -1,1 -1,0 0,2 -1,1 1,1 0,3 18,0 0,-1 -1,-1 0,-2 -1,-1 0,-2 -1,-1 0,-1 -1,-1 0,-2 -1,-1 0,-2 -1,-1 0,-1 -1,-1 0,-2 -1,-1 0,-2 -1,-1 0,-2 -1,-1 0,-1 -1,-1 0,-2 -1,-1 0,-2 -1,-1 0,-1 -1,-1 0,-2 -1,-1 0,-1 -1,-1 0,-2 -1,-1 0,-2 -1,-1 0,-2 -1,-1 0,-1 -1,-1 0,-2 -1,-1 0,-2 -1,-1 0,-1 -1,-1 0,-2 -1,-1 0,-1 -1,-1 0,-2 -1,-1 0,-2 -1,-1 0,-1 -1,-1 0,-2 -1,-1 0,-3 -1,-1 -1,-1 0,-2 -1,-1 0,-1 -1,-1 0,-5 1,-1 0,-2 -1,-1 -1,-1 0,-1 -1,0 -1,-1 -3,0 -1,1 -3,0 -1,-1 0,-2 -1,-1 0,-1 -1,-1 0,-3 -1,-1 -1,-1 0,-3 -1,-1 0,-2 -1,-1 -1,-1 0,-3 -1,-1 -1,-1 0,-3 -1,-1 -1,-1 0,-2 -1,-1 0,-1 -1,-1 0,-4 -1,-1 -1,-1 0,-3 -1,-1 -1,-1 0,-3 -1,-1 -1,-1 0,-2 -1,-1 0,-3 -1,-1 -1,-1 0,-3 -1,-1 -1,-1 0,-3 -1,-1 0,-2 -1,-1 -1,-1 0,-3 -1,-1 -1,-1 0,-3 -1,-1 -1,-1 0,-2 -1,-1 0,-3 -1,-1 -1,-1 0,-3 -1,-1 -1,-1 0,-3 -1,-1 0,-2 -1,-1 -1,-1 0,-3 -1,-1 -1,-1 0,-3 -1,-1 -1,-1 0,-2 -1,-1 0,-3 -1,-1 -1,-1 0,-3 -1,-1 -1,-1 0,-3 -1,-1 -1,-1 0,-2 -1,-1 0,-3 -1,-1 -1,-1 0,-3 -1,-1 -1,-1 0,-3 -1,-1 0,-2 -2,-2 0,-3 -1,-1 0,-2Z"/>
<path onmouseover="hoverPath(evt)" onmouseout="recoverPath(evt)" fill="rgb(235,236,202)" d="M  81,1l 0,0 1,1 0,3 1,1 1,1 0,2 1,1 0,3 1,1 1,1 0,3 1,1 1,1 0,3 1,1 0,2 1,1 1,1 0,3 1,1 1,1 0,3 1,1 1,1 0,3 1,1 0,2 1,1 1,1 0,3 1,1 1,1 0,3 1,1 1,1 0,2 1,1 0,3 1,1 1,1 0,3 1,1 1,1 0,3 1,1 0,2 1,1 1,1 0,3 1,1 1,1 0,3 1,1 1,1 0,2 1,1 0,3 1,1 1,1 0,3 1,1 1,1 0,3 1,1 0,2 1,1 1,1 0,3 1,1 1,1 0,3 1,1 1,1 0,4 1,1 0,1 1,1 0,2 1,1 1,1 0,3 1,1 1,1 0,3 1,1 1,1 0,2 1,1 0,3 1,1 1,1 0,3 3,0 1,-1 10,0 1,1 0,1 1,1 0,1 1,1 1,1 0,1 1,1 0,2 1,1 0,1 1,1 0,3 1,1 0,1 1,1 0,1 1,1 0,2 1,1 0,2 1,1 0,1 1,1 0,2 1,1 0,2 1,1 0,1 1,1 0,2 1,1 0,1 1,1 0,3 1,1 0,1 1,1 0,1 1,1 0,2 1,1 0,2 1,1 0,1 1,1 0,2 1,1 0,1 1,1 0,2 1,1 0,2 1,1 0,1 1,1 0,2 1,1 0,1 1,1 0,3 1,1 0,1 1,1 0,1 1,1 0,3 1,1 0,1 1,1 0,1 1,1 0,2 1,1 0,2 1,1 0,1 1,1 0,2 1,1 0,3 62,0 0,-99 -1,0 -1,1 -6,0 -1,1 -6,0 -1,1 -7,0 -1,1 -6,0 -1,1 -6,0 -1,1 -6,0 -1,1 -11,0 -1,-1 0,-2 1,-1 1,-1 6,0 1,-1 6,0 1,-1 6,0 1,-1 6,0 1,-1 6,0 1,-1 6,0 1,-1 6,0 1,-1 6,0 0,-86 -2,0 -1,-1 0,-1 -1,-1 0,-1 -1,-1 0,-1 -1,-1 0,-1 -1,-1 0,-1 -1,-1 0,-1 -1,-1 0,-1 -1,-1 0,-1 -1,-1 0,-1 -1,-1 0,-1 -1,-1 0,-1 -1,-1 0,-1 -1,-1 0,-1 -1,-1 0,-1 -1,-1 0,-1 -1,-1 0,-1 -1,-1 0,-1 -1,-1 0,-1 -1,-1 0,-1 -1,-1 0,-1 -1,-1 0,-1 -1,-1 0,-1 -1,-1 0,-1 -1,-1 0,-1 -1,-1 0,-1 -1,-1 0,-1 -1,-1 -1,-1 0,-1 -1,-1 0,-1 -1,-1 0,-1 -1,-1 0,-1 -1,-1 0,-3 -139,0 -1,1Z"/>
<path onmouseover="hoverPath(evt)" onmouseout="recoverPath(evt)" fill="rgb(235,236,202)" d="M  121,141l 0,-3 -1,-1 -1,-1 0,-3 -1,-1 -1,-1 0,-2 -1,-1 0,-3 -1,-1 -1,-1 0,-2 -1,-1 0,-3 -1,-1 -1,-1 0,-3 -1,-1 -1,-1 0,-1 -1,-1 0,-4 -1,-1 -1,-1 0,-3 -1,-1 -1,-1 0,-3 -1,-1 -1,-1 0,-1 -1,-1 0,-4 -1,-1 -1,-1 0,-3 -1,-1 -1,-1 0,-3 -1,-1 -1,-1 0,-2 -1,-1 0,-3 -1,-1 -1,-1 0,-3 -1,-1 -1,-1 0,-1 -1,-1 0,-4 -1,-1 -1,-1 0,-3 -1,-1 -1,-1 0,-3 -1,-1 -1,-1 0,-1 -1,-1 0,-4 -1,-1 -1,-1 0,-3 -1,-1 -1,-1 0,-1 -1,-1 0,-4 -1,-1 -1,-1 0,-3 -1,-1 -1,-1 0,-3 -2,-2 0,-1 -1,-1 0,-4 -1,-1 -1,-1 0,-4 -5,0 0,1 1,1 0,0 1,1 0,3 2,2 0,3 1,1 1,1 0,1 1,1 0,3 1,1 1,1 0,3 2,2 0,3 1,1 1,1 0,3 1,1 1,1 0,3 1,1 1,1 0,3 1,1 1,1 0,3 1,1 1,1 0,3 1,1 1,1 0,3 1,1 1,1 0,1 1,1 0,3 1,1 1,1 0,3 1,1 1,1 0,3 1,1 1,1 0,3 1,1 1,1 0,3 1,1 1,1 0,3 1,1 1,1 0,3 1,1 1,1 0,3 1,1 1,1 0,3 2,2 0,3 1,1 1,1 0,1 1,1 0,3 1,1 1,1 0,3 1,1 1,1 0,3 1,1 1,1 0,3 1,1 1,1 0,3 1,1 1,1 0,1 1,1 -1,1Z"/>
<path onmouseover="hoverPath(evt)" onmouseout="recoverPath(evt)" fill="rgb(227,228,189)" d="M  177,235l 0,1 1,1 0,1 1,1 0,2 1,1 0,2 1,1 0,1 1,1 0,2 1,1 0,2 1,1 0,2 1,0 0,-2 -1,-1 0,-1 -1,-2 0,-1 -1,-2 0,-1 -1,-1 0,-1 -1,-2 0,-1 -1,-2 0,-1 -1,-1 -1,-1 -1,-5 0,-1 -1,-1 0,-1 -1,-1 0,-2 -1,-1 0,-2 -1,-1 0,-1 -1,-1 0,-2 -1,-1 0,-2 -1,-1 0,-1 -1,-1 0,-3 -1,-1 0,-1 -1,-1 0,-1 -1,-1 0,-2 -1,-1 0,-2 -1,-1 0,-1 -1,-1 0,-2 -1,-1 0,-1 -1,-1 0,-2 -1,-1 0,-2 -1,-1 0,-1 -1,-1 0,-2 -1,-1 0,-2 -1,-1 0,-2 -1,-1 0,-1 -1,-1 0,-2 -1,-1 0,-1 -1,-1 0,2 1,1 0,1 1,2 0,1 1,1 1,3 0,1 1,2 0,1 1,2 1,2 0,1 1,2 0,1 1,2 1,2 0,1 1,2 1,2 0,1 1,2 0,1 1,2 1,2 0,1 1,1 0,2 1,2 0,1 1,1 0,1 1,2 0,1 1,2 1,2 0,1 1,2 0,1 1,2 1,2 1,1 1,5Z"/>
<path onmouseover="hoverPath(evt)" onmouseout="recoverPath(evt)" fill="rgb(171,198,238)" d="M  201,160l 0,1 8,0 1,-1 6,0 1,-1 6,0 1,-1 6,0 1,-1 7,0 1,-1 6,0 1,-1 6,0 1,-1 2,0 0,-1 -5,0 -1,1 -6,0 -1,1 -6,0 -1,1 -6,0 -1,1 -6,0 -1,1 -6,0 -1,1 -6,0 -1,1Z"/>
<path onmouseover="hoverPath(evt)" onmouseout="recoverPath(evt)" fill="rgb(171,198,238)" d="M  223,1l 0,1 1,1 0,1 1,1 0,1 1,1 0,1 1,1 0,1 1,1 1,1 0,1 1,1 0,1 1,1 0,1 1,1 0,1 1,1 0,1 1,1 0,1 1,1 0,1 1,1 0,1 1,1 0,1 1,1 0,1 1,1 0,1 1,1 0,1 1,1 0,1 1,1 0,1 1,1 0,1 1,1 0,1 1,1 0,1 1,1 0,1 1,1 0,1 1,1 0,1 1,1 0,1 1,1 0,1 1,1 0,1 1,1 0,1 1,1 0,1 1,1 0,1 1,0 0,-10 -2,0 -1,-1 0,-1 -1,-1 0,-1 -1,-1 0,-1 -1,-1 0,-1 -1,-1 0,-1 -1,-1 0,-1 -1,-1 0,-1 -1,-1 0,-1 -1,-1 0,-1 -1,-1 0,-1 -1,-1 0,-1 -1,-1 0,-1 -1,-1 0,-1 -1,-1 0,-1 -1,-1 0,-1 -1,-1 0,-1 -1,-1 0,-1 -1,-1 0,-1 -1,-1 0,-1 -1,-1 0,-1 -1,-1 0,-1 -1,-1 0,-1 -1,-1 0,-1 -1,-1 0,-1 -1,-1 0,-1 -1,-1 0,-2 -3,0 -1,1Z"/>
<path onmouseover="hoverPath(evt)" onmouseout="recoverPath(evt)" fill="rgb(236,237,202)" d="M  229,1l 0,0 1,1 0,1 1,1 0,1 1,1 0,1 1,1 0,1 1,1 0,1 1,1 0,1 1,1 0,1 1,1 0,1 1,1 0,1 1,1 0,1 1,1 0,1 1,1 0,1 1,1 0,1 1,1 0,1 1,1 0,1 1,1 0,1 1,1 0,1 1,1 0,1 1,1 0,1 1,1 0,1 1,1 0,1 1,1 0,1 1,1 0,1 1,1 0,1 1,1 0,1 1,0 0,-51 -25,0 -1,1Z"/>
</svg>