<svg width="256" height="256" xmlns="http://www.w3.org/2000/svg"><script> 
var tempColor;
function hoverPath(evt){
obj = evt.target;
tempColor = obj.getAttribute("fill");
obj.setAttribute("fill","red");
//alert(tempColor);
//obj.setAttribute("stroke","red");}
function recoverPath(evt){
obj = evt.target;
obj.setAttribute("fill", tempColor);
//obj.setAttribute("stroke", tempColor);
}</script><path onmouseover="hoverPath(evt)" onmouseout="recoverPath(evt)" fill="rgb(244,243,235)" d="M  0,236l 0,19 85,0 0,-4 1,-1 1,-1 1,-1 1,-1 1,0 1,-1 1,-1 1,-1 1,-1 0,-2 1,-1 0,-2 -1,-1 0,0 -1,-1 0,-1 -1,-1 -1,0 -1,-1 0,-2 -1,-1 -1,-1 0,-1 -1,-1 -1,-1 -1,-1 0,-1 -1,-1 -1,-1 -1,-1 0,-1 -1,-1 -1,-1 0,-1 -1,-1 -1,-1 -1,-1 0,-1 -3,-3 0,-2 1,-1 -1,-1 -2,0 -1,-1 -1,-1 0,-1 -1,-1 -1,-1 -1,-1 0,-1 -1,-1 0,-1 -1,0 -1,1 -2,0 -1,1 -1,1 -1,0 -1,1 -1,0 -1,1 -1,0 -1,1 -1,1 -1,1 -3,0 -1,-1 -1,1 0,2 -1,1 -2,0 -1,-1 -1,1 0,2 -1,1 -1,0 -1,1 -1,0 -1,1 -1,1 -1,0 -1,1 -1,0 -1,1 -1,1 -1,0 -1,1 -1,0 -1,1 -2,0 -1,-1 -1,1 0,2 -1,1 -1,0 -1,1 -1,0 -1,1 -2,0 -1,-1 -1,1 0,2 -1,1 -1,0 -1,1 -1,0 -1,1 -1,1 -1,0 -1,1 -1,0 -1,1 -2,0 -1,-1 -1,0Z"/>
<path onmouseover="hoverPath(evt)" onmouseout="recoverPath(evt)" fill="rgb(242,241,234)" d="M  169,106l 1,-1 0,-2 1,-1 2,0 0,-2 1,-1 0,-2 1,-1 0,-2 1,-1 0,-2 1,-1 0,-2 -1,-1 0,-3 1,-1 0,-2 1,-1 0,-3 1,-1 0,-2 1,-1 2,0 0,-1 1,-1 0,-2 -1,-1 0,-4 1,-1 0,-2 1,-1 2,0 0,-1 -1,-1 0,-3 1,-1 0,-5 -4,0 -1,-1 -5,0 -1,-1 -5,0 -1,-1 -5,0 -1,-1 -5,0 -1,-1 -5,0 -1,-1 -5,0 -1,-1 0,-2 -4,0 -1,1 -6,0 -1,-1 -6,0 -1,-1 -5,0 -1,-1 -4,0 -1,-1 0,-2 -6,0 -1,-1 -4,0 0,5 -1,1 -1,1 -1,1 -1,1 -1,0 -1,1 0,1 -1,1 -3,0 -1,-1 0,-6 -1,-1 0,-2 -1,-1 0,-2 1,-1 0,-3 -1,2 -6,0 -1,1 -7,0 0,1 -1,1 1,1 0,4 -1,1 -2,0 -1,-1 0,1 1,1 1,1 0,3 1,1 0,1 1,1 0,1 1,1 1,0 1,1 0,3 2,0 1,1 1,1 0,1 1,0 1,1 0,2 1,0 1,1 1,1 1,0 1,1 0,2 -1,1 -1,1 2,-1 3,0 1,1 1,1 1,1 0,1 1,1 1,1 1,1 0,1 1,1 1,1 0,1 1,1 1,1 1,1 1,-1 1,0 1,-1 2,0 1,1 1,1 1,1 0,1 1,1 1,1 0,2 -1,1 1,1 1,1 0,1 1,1 1,1 1,1 0,2 1,0 1,1 1,1 0,2 1,0 1,1 0,1 1,1 1,1 1,1 1,1 0,1 1,1 1,1 0,2 1,0 1,1 1,1 0,2 1,0 1,1 0,1 1,1 1,1 0,3 -1,1 -1,1 -2,0 0,1 4,-2 3,0 1,1 2,0 1,1 1,1 1,1 0,1 1,1 1,1 0,1 1,1 1,1 1,1 0,1 1,1 1,1 2,0 1,1 1,1 1,-1 2,0 0,-2 1,-1 0,-2 1,-1 2,0 0,-2 1,-1 0,-1 -1,-1 0,-4 1,-1 2,0 0,-1 1,-1 0,-2 -1,-1 0,-3 1,-1 0,-2 1,-1 0,-3 -68,-34 -1,-1 0,-2 1,-1 2,0 1,1 1,1 0,2 -1,1 -2,0 -1,-1 68,34Z"/>
<path onmouseover="hoverPath(evt)" onmouseout="recoverPath(evt)" fill="rgb(243,242,234)" d="M  0,1l 0,23 52,0 1,-1 1,0 0,-2 1,-1 0,-3 1,-1 0,-4 1,-1 0,-3 1,-1 0,-4 1,-1 0,-2 -58,0 -1,1Z"/>
<path onmouseover="hoverPath(evt)" onmouseout="recoverPath(evt)" fill="rgb(242,241,234)" d="M  116,33l 0,0 1,1 0,2 4,0 1,1 5,0 1,1 6,0 1,1 4,0 1,-1 6,0 1,1 0,2 5,0 1,1 5,0 1,1 5,0 1,1 5,0 1,1 5,0 1,1 5,0 1,1 4,0 1,1 0,6 1,-2 0,-2 1,-1 0,-3 1,-1 0,-3 -1,-1 0,-4 1,-1 0,-2 1,-1 0,-2 1,-1 0,-3 1,-1 0,-2 1,-1 0,-3 1,-1 0,-3 1,-1 0,-2 1,-1 0,-3 1,-1 0,-3 1,-1 0,-2 1,-1 0,-1 -134,0 0,3 -1,1 0,3 -1,1 0,1 -1,1 0,3 -1,1 0,3 -1,1 0,4 1,1 0,2 2,0 1,1 7,0 1,1 3,0 1,1 6,0 1,1 5,0 0,-1 1,-1 2,0 1,1 0,5 -1,1 1,1 0,2 1,1 0,6 1,0 0,-1 1,-1 1,-1 1,0 1,-1 1,-1 1,-1 0,-5 1,-1 6,0 1,1Z"/>
<path onmouseover="hoverPath(evt)" onmouseout="recoverPath(evt)" fill="rgb(246,235,140)" d="M  201,203l -1,0 -1,-1 -1,-1 2,3 0,1 -1,1 0,1 -1,1 -1,1 -3,3 0,1 -1,1 -1,1 -1,1 0,1 -1,1 -1,1 0,1 -1,1 -1,1 0,1 -1,1 0,1 -1,1 -1,1 0,1 -1,1 0,1 -2,2 -1,1 -1,1 0,2 1,1 0,3 -1,1 -1,1 -1,1 -1,1 0,1 -1,1 -1,1 -1,0 -1,1 1,0 1,1 0,2 -1,1 1,1 0,2 5,0 0,-3 1,-1 0,-2 1,-1 0,-1 1,-1 0,-2 1,-1 0,-1 1,-1 0,-1 1,-1 0,-2 1,-1 0,-1 1,-1 0,-1 1,-1 0,-1 1,-1 1,-1 0,-1 1,-1 0,-1 1,-1 1,-1 0,-1 1,-1 1,-1 0,-1 1,-1 2,0 -1,-1 0,-2 1,-1 0,-1 1,-1 2,0 1,-1 1,-1 1,-1 2,-2 1,-1 1,-1 1,-1 1,-1 1,-1 2,-2 1,-1 1,-1 1,-1 1,-1 1,-1 5,-5 1,-1 0,-1 1,-1 0,-1 1,-1 1,0 1,-1 1,-1 0,-2 1,-1 1,0 3,-3 0,-2 1,-1 1,0 1,-1 1,-1 1,-1 0,-2 1,-1 1,0 1,-1 1,-1 0,-1 1,-1 1,-1 1,-1 1,-1 1,-1 1,-1 0,-2 1,-1 1,0 1,-1 1,-1 2,0 0,-10 -1,0 -1,1 0,0 -2,2 0,1 -1,1 0,1 -1,1 -1,0 -1,1 -1,1 -1,1 -1,1 -1,1 0,2 -1,1 -1,0 -1,1 -1,1 0,2 -1,1 -1,0 -2,2 0,1 -1,1 0,1 -1,1 -1,0 -2,2 0,2 -1,1 -1,0 -1,1 -1,1 -1,1 0,2 -1,1 -1,0 -1,1 -1,1 -1,1 0,1 -1,1 -3,3 -1,1 -6,6 -1,1 -1,1 -1,1 -1,1 -1,1 -1,0 -1,1Z"/>
<path onmouseover="hoverPath(evt)" onmouseout="recoverPath(evt)" fill="rgb(244,243,236)" d="M  206,0l -3,0 0,2 -1,1 0,2 -1,1 0,3 -1,1 0,3 -1,1 0,2 -1,1 0,3 -1,1 0,3 -1,1 0,2 -1,1 0,3 -1,1 0,2 -1,1 0,2 -1,1 0,2 1,1 0,5 -1,1 0,3 -1,1 0,2 -1,1 0,1 -1,1 -2,0 0,1 1,1 0,3 -1,1 -2,0 0,2 -1,1 0,2 1,1 0,4 -1,1 0,1 -1,1 -2,0 0,2 -1,1 0,3 -1,1 0,2 -1,1 0,1 1,1 0,4 -1,1 0,2 -1,1 0,2 -1,1 0,2 -1,1 0,2 -1,1 -2,0 0,2 -1,1 0,3 -1,1 0,2 -1,1 0,1 1,1 0,4 -1,1 0,1 -1,1 -2,0 0,2 1,1 0,3 -1,1 0,2 -1,1 -2,0 0,2 -1,1 0,2 -1,1 -2,0 -1,1 -2,0 -1,-1 -1,-1 -2,0 -1,-1 -1,-1 -1,-1 0,-1 -1,-1 -1,-1 2,4 3,3 0,0 1,1 0,0 1,1 1,1 0,1 1,1 1,1 0,1 1,1 1,1 1,1 2,0 1,1 1,1 1,1 0,1 1,1 1,1 0,2 -1,1 1,1 0,0 1,1 0,1 1,1 1,1 1,1 2,0 1,1 1,1 1,1 0,1 1,1 1,1 0,1 1,1 1,1 1,1 1,1 0,2 -1,1 1,1 2,0 1,1 1,1 0,2 -1,1 1,1 0,0 1,1 1,1 0,1 1,1 1,1 0,1 1,1 1,1 1,1 0,2 1,0 1,1 1,1 1,1 2,0 1,1 1,1 1,-1 1,0 1,-1 1,-1 1,-1 6,-6 1,-1 1,-1 1,-1 1,-1 1,-1 1,-1 0,-1 1,-1 1,-1 1,-1 1,-1 1,0 0,-2 1,-1 1,-1 1,-1 1,-1 1,0 0,-2 3,-3 1,0 0,-1 1,-1 0,-1 3,-3 1,0 0,-2 1,-1 1,-1 1,-1 1,0 0,-2 1,-1 1,-1 2,-2 1,-1 1,-1 1,0 0,-1 1,-1 0,-1 1,-1 1,-1 1,-1 1,-1 2,0 0,-143Z"/>
<path onmouseover="hoverPath(evt)" onmouseout="recoverPath(evt)" fill="rgb(243,242,236)" d="M  61,175l -2,2 -1,0 0,3 2,0 1,1 0,2 -1,1 1,1 2,0 1,1 0,1 1,1 0,2 -1,1 0,3 -1,1 -1,1 1,0 1,-1 3,0 1,1 0,1 1,1 0,1 1,1 1,1 1,1 0,1 1,1 2,0 1,1 1,1 0,2 -1,1 1,1 0,0 1,1 2,0 1,1 1,1 1,1 0,1 1,1 1,1 0,1 1,1 1,1 1,1 0,2 -1,1 1,1 0,0 1,1 1,1 0,1 1,1 1,1 0,2 1,0 1,1 1,1 0,1 1,1 1,1 0,4 3,0 1,1 -1,-2 0,-2 1,-1 1,0 1,-1 1,-1 1,-1 1,0 1,-1 1,-1 1,-1 1,-1 1,0 1,-1 1,-1 1,-1 1,-1 1,0 1,-1 1,-1 1,-1 1,-1 1,0 1,-1 1,-1 1,-1 1,-1 1,0 1,-1 1,-1 1,-1 1,-1 1,0 1,-1 1,-1 1,-1 1,-1 1,0 1,-1 1,-1 1,-1 1,-1 1,0 1,-1 1,-1 2,-2 1,0 1,-1 1,-1 1,-1 1,-1 1,0 1,-1 1,-1 1,-1 1,-1 1,0 1,-1 1,-1 1,-1 1,-1 1,0 1,-1 1,-1 1,-1 1,-1 1,0 1,-1 1,-1 1,-1 1,-1 1,0 1,-1 1,-1 1,-1 1,0 1,-1 1,-1 2,0 1,-1 -1,-1 0,0 -1,-1 -1,-1 -1,-1 0,-1 -1,-1 -1,-1 0,-1 -1,-1 -1,-1 -2,0 -1,-1 -1,-1 -1,-1 -1,-1 0,-1 -1,-1 -1,-1 0,-1 -1,-1 -1,-1 0,-2 1,-1 -1,-1 0,0 -1,-1 -2,0 -1,-1 -1,-1 -1,-1 -1,-1 0,-1 -1,-1 -1,-1 0,-1 -1,-1 -1,-1 -1,-1 0,-1 -1,-1 -1,0 -1,-1 0,-2 -1,-1 -1,-1 0,-1 -1,-1 -1,-1 0,-2 1,-1 -1,-1 0,0 -1,-1 -2,0 -1,-1 -2,0 -1,1 -1,0 -1,1 -1,0 -1,1 -1,1 -1,1 -1,0 -1,1 -1,0 -1,1 -1,0 -1,1 -1,1 -2,0 -1,-1 -1,1 -1,1 0,2 -1,1 -1,1 -1,0 -1,1 -1,1 -1,1 -1,0 -1,1 -1,1 -1,1 -2,0 -1,-1 -1,1 0,0 -1,1 0,2 -1,1 -1,1 -2,0 -1,-1 -1,1 0,0 -1,1 -2,0 0,1 -1,1 -1,1 0,2 -1,1 -1,1 -2,0 -1,-1 -1,1 0,0 -1,1 -2,0 0,1 -1,1 -1,1 0,2 -1,1 -1,1 -2,0 -1,-1 -1,1 0,0 -1,1 -2,0 0,1 -1,1 -1,1 0,2 -1,1 -1,1 -2,0 -1,-1 -1,1 0,0 -1,1 -1,0 -1,1Z"/>
<path onmouseover="hoverPath(evt)" onmouseout="recoverPath(evt)" fill="rgb(244,243,235)" d="M  105,237l 0,0 -1,1 -1,1 -1,0 0,1 1,1 0,2 -1,1 -2,0 -1,-1 -1,0 -1,1 -1,0 -1,1 -1,1 -1,1 -1,1 -1,1 -1,0 -1,1 -1,1 -1,1 0,3 71,0 0,-4 1,-1 1,-1 1,-1 1,-1 1,-1 1,-1 1,-1 1,-1 1,-1 1,-1 1,-1 1,-1 1,-1 1,-1 3,0 1,-1 1,0 0,-3 4,-4 0,-1 1,-1 0,-1 1,-1 1,-1 0,-1 1,-1 0,-1 1,-1 1,-1 0,-1 1,-1 1,-1 0,-1 1,-1 2,-2 0,-1 1,-1 1,-1 1,-1 1,-1 1,-1 0,-1 1,-1 -1,-1 0,0 -1,-1 0,-1 -1,-1 -1,-1 -1,-1 -1,0 -1,-1 0,-2 -1,-1 -1,-1 -1,-1 0,-1 -1,-1 -1,-1 0,-1 -1,-1 -1,-1 -1,-1 0,-1 -1,-1 -1,-1 0,-1 -1,-1 -1,-1 -1,0 -1,1 -1,1 -1,0 -1,1 -1,1 -1,1 -1,0 -1,1 -1,1 -1,1 -1,1 -1,0 -1,1 -2,2 -1,1 -1,0 -1,1 -1,1 -1,1 -1,1 -1,0 -1,1 -1,1 -1,1 -1,1 -1,0 -1,1 -1,1 -1,1 -1,1 -1,0 -1,1 -1,1 -1,1 -1,1 -1,0 -1,1 -1,1 -1,1 -1,1 -1,0 -1,1 -1,1 -1,1 -1,1 -1,0 -1,1 -1,1 -1,1 -1,1 -1,0 -1,1 -1,1 -1,1 -1,1 -1,0 -2,2 -1,1 -1,1 -1,0 -1,1 -1,1 -1,1 -1,1 -1,0 -1,1 -1,1 -1,1 -1,1 -1,0 -1,1Z"/>
<path onmouseover="hoverPath(evt)" onmouseout="recoverPath(evt)" fill="rgb(243,242,229)" d="M  170,242l -7,7 -1,1 -1,1 -1,1 0,3 12,0 0,-1 -1,-1 0,-2 1,-1 -1,0 -1,-1 0,-2 1,-1 1,-1 1,0 1,-1 0,-1 1,-1 1,-1 1,-1 1,-1 0,-1 -1,0 -1,1 -3,0 -1,1 -2,2Z"/>
<path onmouseover="hoverPath(evt)" onmouseout="recoverPath(evt)" fill="rgb(244,243,236)" d="M  197,222l 0,0 -1,1 -1,1 0,1 -1,1 -1,1 0,1 -1,1 0,1 -1,1 -1,1 0,1 -1,1 0,1 -1,1 0,1 -1,1 0,2 -1,1 0,1 -1,1 0,1 -1,1 0,2 -1,1 0,1 -1,1 0,2 -1,1 0,2 74,0 0,-11 -2,0 -1,-1 -1,-1 -1,0 -1,-1 -1,-1 -1,0 -1,-1 -1,-1 -1,-1 -1,0 -1,-1 -1,-1 0,-2 -1,-1 -1,-1 -1,0 -1,-1 -2,0 -1,-1 -1,1 -3,0 -1,-1 -1,0 -1,-1 0,-2 -2,0 -1,-1 -2,0 -1,1 -4,0 -1,-1 -3,0 -1,-1 -2,0 -1,-1 -2,0 -1,-1 -2,0 -1,-1 -1,0 -1,-1 -1,0 -1,1 -1,0 -1,1Z"/>
<path onmouseover="hoverPath(evt)" onmouseout="recoverPath(evt)" fill="rgb(244,243,236)" d="M  253,158l -1,1 -1,0 0,2 -1,1 -1,1 -2,2 -1,1 -1,1 0,1 -1,1 -1,1 -1,1 -1,0 0,2 -1,1 -1,1 -1,1 -1,1 -1,0 0,2 -1,1 -1,1 -1,1 -1,1 -1,0 0,2 -1,1 -1,1 -1,1 -1,0 0,1 -1,1 0,1 -1,1 -1,1 -1,1 -1,1 -1,1 -1,1 -13,13 -1,1 -2,2 -1,1 -1,1 -2,0 0,1 -1,1 1,1 2,0 1,1 1,0 1,1 2,0 1,1 2,0 1,1 2,0 1,1 3,0 1,1 2,0 1,-1 4,0 1,1 2,0 1,1 0,2 1,0 1,1 1,0 1,-1 2,0 1,1 2,0 1,1 1,0 1,1 1,1 1,1 0,2 1,1 1,0 1,1 1,1 1,1 1,0 1,1 1,1 1,0 1,1 1,1 1,0 0,-85 -1,0 -1,1Z"/>
<path onmouseover="hoverPath(evt)" onmouseout="recoverPath(evt)" fill="rgb(243,242,235)" d="M  0,131l 0,98 1,0 1,-1 2,0 1,1 1,-1 1,0 1,-1 0,-2 1,-1 1,0 1,-1 1,0 1,-1 1,-1 1,0 1,-1 2,0 1,1 1,-1 1,0 0,-2 1,-1 1,-1 1,0 1,-1 2,0 1,1 1,-1 1,0 1,-1 0,-2 1,-1 2,0 1,1 1,-1 0,-2 1,-1 1,0 1,-1 1,0 1,-1 1,-1 1,0 1,-1 1,0 1,-1 1,-1 2,0 1,1 1,0 1,-1 0,0 1,-1 0,-2 1,-1 2,0 1,1 1,-1 1,0 1,-1 0,-2 1,-1 1,-1 0,-2 -1,-1 0,-1 -1,-1 0,-1 -1,-1 -1,-1 0,-1 -1,-1 0,-1 -1,-1 0,-5 1,-1 1,0 1,-1 0,-1 1,-1 2,0 1,-1 1,-1 1,0 1,-1 1,-1 1,0 1,-1 1,-1 0,-1 1,-1 2,0 1,-1 1,-1 1,0 1,-1 1,-1 1,0 1,-1 1,-1 0,-1 1,-1 2,0 1,-1 1,-1 1,0 1,-1 1,-1 1,0 1,-1 1,-1 0,-1 1,-1 2,0 1,-1 1,-1 1,0 1,-1 1,-1 1,0 1,-1 1,-1 1,-1 2,0 1,1 1,-1 0,0 1,-1 0,-2 1,-1 2,-2 1,0 1,-1 1,-1 1,0 1,-1 1,-1 1,-1 2,0 1,1 1,-1 0,0 1,-1 1,0 1,-1 1,0 1,-1 1,0 1,-1 1,-1 0,-3 1,-1 2,0 1,-1 0,-1 -1,-1 0,0 -1,-1 0,-1 -1,0 -1,-1 0,-2 -1,-1 -1,0 -1,-1 0,-2 -1,-1 -1,-1 0,-1 -3,-3 -1,-1 0,-1 -1,0 -1,-1 0,-2 -1,-1 -1,0 -1,-1 0,-2 -1,-1 -1,-1 -1,-1 0,-1 -1,-1 -1,-1 0,-2 1,-1 -1,-1 0,0 -1,-1 0,-1 -1,-1 -1,-1 -1,1 -1,0 -1,1 -2,0 -1,-1 -1,-1 -1,-1 -1,-1 0,-1 -1,-1 -1,-1 0,-1 -1,-1 -1,-1 -1,-1 0,-1 -1,-1 -1,-1 -2,0 -1,1 -2,0 -1,-1 0,-2 1,-1 1,-1 -1,0 -1,-1 -1,-1 -1,0 -1,-1 0,-2 -1,0 -1,-1 0,-1 -1,-1 -2,0 -1,-1 0,-3 -1,0 -1,-1 -1,-1 0,-1 -1,-1 0,-1 -1,-1 0,-3 -1,-1 -1,-1 0,-1 -1,-1 0,-2 1,-1 3,0 0,-2 -1,0 -1,-1 0,-1 -1,-1 -5,0 -1,-1 -2,0 -1,-1 -4,0 -1,-1 -43,0 -1,1 -13,0 0,102 75,-95 -75,95Z"/>
<path onmouseover="hoverPath(evt)" onmouseout="recoverPath(evt)" fill="rgb(239,243,248)" d="M  62,27l 0,0 -1,-1 0,-2 -1,-1 0,-6 1,-1 0,-3 1,-1 0,-3 1,-1 0,-1 1,-1 0,-3 1,-1 0,-2 -4,0 0,3 -1,1 0,4 -1,1 0,3 -1,1 0,4 -1,1 0,3 -1,1 0,2 -1,1 -1,0 -1,1 -53,0 0,1 12,0 42,-1 4,0 1,1 4,0 1,1 2,0 1,1 5,0 1,1 1,1 0,1 1,0 0,-1 1,-1 7,0 -7,-1 -3,0 -1,-1 -5,0 -4,-1Z"/>
</svg>