<svg width="256" height="256" xmlns="http://www.w3.org/2000/svg"><script> 
var tempColor;
function hoverPath(evt){
obj = evt.target;
tempColor = obj.getAttribute("fill");
obj.setAttribute("fill","red");
//alert(tempColor);
//obj.setAttribute("stroke","red");}
function recoverPath(evt){
obj = evt.target;
obj.setAttribute("fill", tempColor);
//obj.setAttribute("stroke", tempColor);
}</script><path onmouseover="hoverPath(evt)" onmouseout="recoverPath(evt)" fill="rgb(244,243,237)" d="M  1,100l -1,0 0,12 2,0 1,-1 7,0 1,-1 7,0 1,-1 7,0 1,-1 8,0 0,-7 -1,-1Z"/>
<path onmouseover="hoverPath(evt)" onmouseout="recoverPath(evt)" fill="rgb(242,241,231)" d="M  53,148l 0,2 1,1 0,3 1,1 0,2 1,1 0,3 1,1 0,2 1,1 0,2 1,1 0,1 6,0 1,-1 5,0 1,-1 5,0 1,-1 6,0 1,-1 4,0 0,-5 -1,-1 0,0 -1,-1 0,-8 -1,-1 0,-4 -1,-1 0,-3 -1,-1 -2,0 -1,1 -4,0 -1,1 -4,0 -1,1 -5,0 -1,1 -5,0 -1,1 -3,0 -1,1 -3,0 0,1 1,1Z"/>
<path onmouseover="hoverPath(evt)" onmouseout="recoverPath(evt)" fill="rgb(249,251,252)" d="M  58,172l 0,0 1,1 1,-1 6,0 1,-1 5,0 1,-1 5,0 1,-1 6,0 1,-1 5,0 1,1 1,1 0,0 1,-1 0,-1 1,-1 3,0 1,-1 6,0 1,-1 5,0 1,-1 4,0 1,-1 3,0 1,-1 5,0 1,-1 5,0 1,-1 5,0 1,-1 3,0 1,-1 4,0 1,-1 6,0 1,-1 5,0 1,-1 4,0 1,-1 5,0 1,-1 3,0 1,-1 4,0 1,-1 6,0 1,1 0,1 1,1 0,3 1,1 0,3 1,1 0,3 1,1 0,3 1,1 0,3 1,1 0,5 1,1 0,1 1,1 0,1 1,0 0,-2 1,-1 6,0 1,-1 5,0 1,-1 5,0 1,-1 4,0 1,-1 5,0 1,-1 5,0 1,-1 4,0 1,-1 2,0 1,1 0,1 2,0 0,-4 -1,-1 0,-1 -1,-1 0,-3 -1,-1 0,-3 -1,-1 0,-4 -1,-1 0,-2 -1,-1 0,-4 -1,-1 0,-4 1,-1 1,0 1,-1 -3,0 -1,-1 -1,-1 0,-3 -1,-1 0,-2 -1,-1 0,-2 -1,-1 0,-3 -1,-1 0,-2 -1,-1 0,-3 -1,-1 0,-2 -1,-1 0,-4 -1,-1 0,-2 -1,-1 0,-2 -1,-1 0,-3 1,-1 -1,0 -1,-1 -1,0 0,2 1,1 0,2 1,1 0,5 -1,1 -2,0 -1,1 -3,0 -1,1 -4,0 -1,1 -8,0 -1,-1 0,1 -1,1 -1,1 -6,0 -1,-1 -1,-1 0,1 -1,1 0,1 -1,1 -3,0 -1,1 -5,0 -1,-1 -1,-1 0,-3 -1,-1 0,-3 -1,-1 0,-3 -2,0 1,1 0,3 1,1 0,2 1,1 0,5 -1,1 -2,0 -1,1 -4,0 -1,1 -5,0 -1,1 -4,0 -1,1 -5,0 -1,1 -5,0 -1,1 -5,0 -1,1 -5,0 -1,1 -7,0 -1,-1 0,-1 -1,-1 0,-2 -1,-1 0,-2 -1,-1 0,-1 -1,-1 0,-2 -2,0 0,1 -1,1 2,0 1,1 0,2 1,1 0,2 1,1 0,1 1,1 0,2 -1,1 -1,0 -1,1 -4,0 -1,1 -4,0 -1,1 -5,0 -1,1 -4,0 -1,1 -5,0 -1,1 -4,0 -1,1 -5,0 -1,1 -4,0 -1,1 -5,0 -1,1 -4,0 -1,1 -4,0 -1,1 -5,0 -1,1 -4,0 -1,1 -3,0 0,1 4,0 1,-1 3,0 1,-1 5,0 1,-1 5,0 1,-1 4,0 1,-1 4,0 1,-1 4,0 1,1 1,1 0,-2 1,-1 4,0 1,-1 4,0 1,-1 4,0 1,-1 5,0 1,-1 4,0 1,-1 5,0 1,-1 7,0 1,1 0,2 1,1 0,1 1,1 0,2 1,1 0,2 1,1 0,3 -1,1 -1,1 -2,0 -1,1 -4,0 -1,1 -3,0 -1,1 -4,0 -1,1 -3,0 -1,1 -6,0 -1,1 -7,0 -1,1 -2,0 -1,-1 -1,0 -1,-1 0,4 1,1 0,0 1,1 0,7 -1,1 -4,0 -1,1 -6,0 -1,1 -5,0 -1,1 -5,0 -1,1 -7,0 -1,1 34,-16 2,0 1,-1 7,0 1,-1 6,0 1,-1 4,0 1,-1 4,0 1,-1 2,0 1,-1 4,0 1,-1 5,0 1,1 0,2 1,1 0,5 -1,1 -3,0 -1,1 -4,0 -1,1 -4,0 -1,1 -4,0 -1,1 -4,0 -1,1 -5,0 -1,1 -5,0 -1,1 -5,0 0,3 12,-4 0,0 6,-1 5,-1 10,-2 -34,-5 -34,16 78,-19 0,-1 -1,-1 0,-3 -1,-1 0,-2 -1,-1 0,-1 -1,-1 0,-2 -1,-1 0,-2 -1,-1 0,-4 1,-1 0,-1 1,-1 4,0 1,-1 5,0 1,-1 4,0 1,-1 5,0 1,-1 5,0 1,-1 5,0 1,-1 5,0 1,-1 8,0 1,1 0,2 1,1 0,3 1,1 0,4 1,1 0,5 -1,1 0,0 1,1 1,0 1,1 0,4 -1,1 0,1 -1,1 -7,0 -1,-1 0,1 -1,1 0,0 -1,1 -3,0 -1,1 -4,0 -1,1 -4,0 -1,1 -7,0 -1,-1 0,-1 -1,-1 -1,-1 0,-3 1,-1 -1,0 -1,1 0,1 3,-2 -2,5 1,1 0,2 -1,1 -3,0 -1,1 -3,0 -1,1 -3,0 -1,-1 -1,-1 0,-1 -1,-2 -78,19 129,-27 0,-3 -1,-1 0,-3 -1,-1 0,-4 -1,-1 0,-2 -1,-1 0,-4 1,-1 -1,-1 0,-2 1,-1 3,0 1,-1 4,0 1,-1 6,0 1,1 0,1 1,1 0,2 1,1 0,2 1,1 0,3 1,1 0,2 1,1 0,3 1,1 0,2 1,1 0,3 -1,1 -1,1 -2,0 -1,1 -4,0 -1,1 -8,0 -1,-1 0,-1 -1,-1 -129,27 137,-23 2,0 1,-1 7,0 1,1 0,2 1,1 0,-4 1,-1 2,0 1,-1 4,0 1,-1 5,0 1,-1 5,0 1,-1 6,0 1,1 0,1 1,1 0,2 1,1 0,3 1,1 0,4 1,1 0,2 1,1 0,4 1,1 0,3 1,1 0,-1 -1,-4 -46,-16 -137,23 173,-30 -4,0 -1,1 -5,0 -1,1 -5,0 -1,1 -4,0 -1,-1 -1,-1 0,-4 1,-1 -1,0 -1,-1 -1,-1 0,-2 -1,-1 0,-3 -1,-1 0,-2 -1,-1 0,-3 -1,-1 0,-4 1,-1 1,0 1,-1 3,0 1,-1 4,0 1,-1 4,0 1,-1 7,0 1,1 0,1 1,1 0,2 1,1 0,3 1,1 0,3 1,1 0,6 -1,1 2,0 1,1 0,1 1,1 0,3 -1,1 -1,0 -1,1 -173,30 180,1 -4,0 -1,1 -5,0 -1,1 -5,0 -1,1 -4,0 -1,1 -3,0 -1,-1 0,-2 -1,-1 0,3 -1,1 -2,0 -1,1 -6,0 -1,1 -3,0 -1,-1 0,-1 -1,-1 0,-2 -1,-1 0,-3 -1,-1 0,-3 -1,-1 0,-3 -1,-1 0,-3 -1,-1 0,-6 1,-1 1,0 46,23 -180,-1Z"/>
<path onmouseover="hoverPath(evt)" onmouseout="recoverPath(evt)" fill="rgb(243,242,233)" d="M  61,176l 0,0 -1,1 1,1 0,5 1,1 0,4 1,1 0,6 -1,1 2,-1 14,0 1,-1 8,0 1,-1 4,0 1,-1 1,0 0,-4 1,-1 0,-4 -2,0 -1,-1 0,-9 -1,-1 0,-1 -1,-1 -3,0 -1,1 -6,0 -1,1 -5,0 -1,1 -5,0 -1,1 -6,0Z"/>
<path onmouseover="hoverPath(evt)" onmouseout="recoverPath(evt)" fill="rgb(244,243,236)" d="M  71,216l -3,0 -1,-1 -2,0 0,1 1,1 0,2 1,1 0,1 1,1 0,2 1,1 0,2 1,1 0,2 1,1 0,1 1,1 0,2 1,1 0,2 1,1 0,2 1,1 0,1 1,1 0,2 1,1 0,2 1,1 0,2 1,1 0,2 94,0 0,-1 -1,0 -1,-1 -11,0 -1,-1 -9,0 -1,-1 0,-4 -1,-1 0,-1 -1,-1 0,-3 -1,-1 0,-3 -1,-1 0,-3 -1,-1 0,-3 -1,-1 0,-3 -1,-1 0,-3 -1,-1 0,-3 -1,-1 0,-2 -1,-1 0,-3 -1,-1 0,-1 -1,0 -1,1 -6,0 -1,1 -4,0 -1,1 -6,0 -1,1 -8,0 -1,1 -8,0 -1,1 -10,0 -1,1 -10,0 -1,1Z"/>
<path onmouseover="hoverPath(evt)" onmouseout="recoverPath(evt)" fill="rgb(235,234,215)" d="M  93,160l 0,3 1,1 3,0 1,-1 5,0 1,-1 5,0 1,-1 4,0 1,-1 4,0 1,-1 4,0 1,-1 4,0 1,-1 3,0 0,-3 -1,-1 0,-2 -3,0 -1,1 -4,0 -1,1 -2,0 -1,1 -4,0 -1,1 -4,0 -1,1 -6,0 -1,1 -7,0 -1,1 -2,0Z"/>
<path onmouseover="hoverPath(evt)" onmouseout="recoverPath(evt)" fill="rgb(185,210,157)" d="M  140,208l 0,0 1,1 0,3 1,1 0,2 1,1 0,3 1,1 0,3 1,1 0,3 1,1 0,3 1,1 0,3 1,1 0,3 1,1 0,3 1,1 0,1 1,1 5,0 1,1 13,0 1,1 6,0 1,1 1,0 0,-5 -1,-1 0,-3 -1,-1 0,-3 -1,-1 0,-3 -1,-1 0,-3 -1,-1 0,-3 -1,-1 0,-2 -1,-1 0,-3 -1,-1 0,-3 -1,-1 0,-3 -1,-1 0,-2 1,-1 1,-1 3,0 1,-1 5,0 1,-1 5,0 1,-1 4,0 1,-1 4,0 1,-1 1,0 -1,-1 0,-2 -3,0 -1,1 -5,0 -1,1 -4,0 -1,1 -4,0 -1,1 -5,0 -1,1 -4,0 -1,1 -5,0 -1,1 -4,0 -1,1 -5,0 -1,1 -4,0 -1,1 -3,0 0,1 -1,1Z"/>
<path onmouseover="hoverPath(evt)" onmouseout="recoverPath(evt)" fill="rgb(244,243,235)" d="M  204,194l -1,1 0,2 1,1 0,3 1,1 0,2 1,1 0,3 1,1 0,2 1,1 0,3 1,1 0,2 1,1 0,3 1,1 0,3 1,1 0,3 1,1 0,3 1,1 0,2 1,1 0,4 1,1 0,3 1,1 0,3 1,1 0,4 37,0 0,-68 -2,0 -1,1 -3,0 -1,1 -5,0 -1,1 -5,0 -1,1 -5,0 -1,1 -5,0 -1,1 -4,0 -1,1 -5,0 -1,1 -5,0 -1,-1Z"/>
<path onmouseover="hoverPath(evt)" onmouseout="recoverPath(evt)" fill="rgb(240,240,233)" d="M  229,100l -1,0 0,1 -1,1 0,1 1,1 0,2 1,1 0,2 1,1 0,4 1,1 0,2 1,1 0,3 1,1 0,2 1,1 0,3 1,1 0,2 1,1 0,2 1,1 0,3 1,1 4,0 1,1 0,2 -1,1 -1,0 -1,1 -1,0 0,2 1,1 0,4 1,1 0,2 1,1 0,4 1,1 0,3 1,1 0,3 1,1 0,1 4,0 1,-1 5,0 0,-74 -2,0 -1,1 -2,0 0,1 -1,1 -5,0 -1,1 -6,0 -1,1 -6,0 -1,1Z"/>
<path onmouseover="hoverPath(evt)" onmouseout="recoverPath(evt)" fill="rgb(244,243,236)" d="M  0,1l 0,93 34,0 0,-14 -1,-1 0,-21 -1,-1 0,-21 -1,-1 0,-25 -1,-1 0,-9 -29,0 -1,1Z"/>
<path onmouseover="hoverPath(evt)" onmouseout="recoverPath(evt)" fill="rgb(245,244,237)" d="M  40,1l 0,10 1,1 0,24 1,1 0,21 1,1 0,21 1,1 0,19 1,1 0,5 5,0 1,-1 7,0 1,-1 8,0 1,-1 6,0 1,-1 7,0 1,-1 7,0 1,-1 6,0 1,-1 7,0 1,-1 6,0 1,-1 5,0 1,-1 6,0 1,-1 5,0 1,-1 5,0 1,-1 5,0 1,-1 5,0 1,-1 6,0 1,-1 5,0 1,-1 5,0 1,-1 5,0 1,-1 5,0 1,-1 5,0 1,-1 6,0 1,-1 5,0 1,-1 5,0 1,-1 5,0 1,-1 5,0 1,-1 4,0 1,-1 4,0 1,-1 4,0 1,-1 3,0 1,-1 3,0 0,-3 -1,-1 0,-2 -1,-1 0,-2 -1,-1 0,-2 -1,-1 0,-2 -1,-1 0,-2 -1,-1 0,-1 -1,-1 0,-2 -1,-1 0,-2 -1,-1 0,-2 -1,-1 0,-2 -1,-1 0,-3 -1,-1 0,-1 -1,-1 0,-2 -1,-1 0,-2 -1,-1 0,-2 -1,-1 0,-2 -1,-1 0,-2 -1,-1 0,-1 -1,-1 0,-2 -1,-1 0,-2 -1,-1 0,-2 -1,-1 0,-2 -1,-1 0,-2 -1,-1 0,-2 -1,-1 0,-2 -174,0 -1,1Z"/>
<path onmouseover="hoverPath(evt)" onmouseout="recoverPath(evt)" fill="rgb(171,198,237)" d="M  44,109l -1,0 1,1 0,7 4,0 1,-1 5,0 1,-1 5,0 1,-1 6,0 1,-1 5,0 1,-1 5,0 1,-1 5,0 1,-1 5,0 1,-1 5,0 1,-1 7,0 1,1 4,0 0,-2 1,-1 6,0 1,-1 4,0 1,-1 6,0 1,-1 6,0 1,-1 5,0 1,-1 6,0 1,-1 5,0 1,-1 5,0 1,-1 5,0 1,-1 4,0 1,-1 6,0 1,-1 6,0 1,-1 5,0 1,-1 6,0 1,-1 5,0 1,-1 6,0 1,-1 5,0 1,-1 5,0 1,-1 5,0 1,-1 12,0 1,1 0,1 1,0 1,-1 4,0 1,-1 4,0 0,-9 -2,0 -1,-1 -1,0 -1,-1 -1,-1 -1,-1 0,-1 -1,-1 0,-1 -1,-1 0,-2 -1,-1 0,-2 -1,-1 0,-1 -1,-1 0,-2 -1,-1 0,-2 -1,-1 0,-1 -1,-1 0,-2 -1,-1 0,-1 -1,-1 0,-2 -1,-1 0,-2 -1,-1 0,-2 -1,-1 0,-2 -1,-1 0,-2 -1,-1 0,-3 -1,-1 0,-2 -1,-1 0,-2 -1,-1 0,-1 -1,-1 0,-2 -1,-1 0,-2 -1,-1 0,-2 -1,-1 0,-2 -1,-1 0,-2 -1,-1 0,-2 -1,-1 0,-4 -6,0 0,1 1,1 0,2 1,1 0,2 1,1 0,2 1,1 0,2 1,1 0,2 1,1 0,2 1,1 0,1 1,1 0,2 1,1 0,2 1,1 0,2 1,1 0,2 1,1 0,2 1,1 0,1 1,1 0,3 1,1 0,2 1,1 0,2 1,1 0,2 1,1 0,2 1,1 0,1 1,1 0,2 1,1 0,2 1,1 0,2 1,1 0,2 1,1 0,2 1,1 0,5 -1,1 -3,0 -1,1 -3,0 -1,1 -4,0 -1,1 -4,0 -1,1 -4,0 -1,1 -5,0 -1,1 -5,0 -1,1 -5,0 -1,1 -5,0 -1,1 -6,0 -1,1 -5,0 -1,1 -5,0 -1,1 -5,0 -1,1 -5,0 -1,1 -5,0 -1,1 -6,0 -1,1 -5,0 -1,1 -5,0 -1,1 -5,0 -1,1 -5,0 -1,1 -6,0 -1,1 -5,0 -1,1 -6,0 -1,1 -7,0 -1,1 -6,0 -1,1 -7,0 -1,1 -7,0 -1,1 -6,0 -1,1 -8,0 -1,1 -7,0 -1,1 -6,0 -1,1Z"/>
<path onmouseover="hoverPath(evt)" onmouseout="recoverPath(evt)" fill="rgb(242,241,232)" d="M  48,129l -1,0 0,1 1,1 0,2 1,1 0,2 1,1 0,2 3,0 1,1 3,0 1,-1 5,0 1,-1 4,0 1,-1 4,0 1,-1 5,0 1,-1 4,0 1,-1 5,0 1,-1 4,0 1,-1 5,0 1,-1 4,0 1,-1 5,0 1,-1 4,0 1,-1 4,0 1,-1 1,0 -1,-1 0,-1 -1,-1 0,-2 -1,-1 0,-2 -2,0 -1,-1 0,-1 -1,0 -1,1 -5,0 -1,1 -4,0 -1,1 -4,0 -1,1 -4,0 -1,1 -5,0 -1,1 -4,0 -1,1 -4,0 -1,1 -7,0 -1,1 -7,0 -1,1 -6,0 -1,1 -7,0 -1,1Z"/>
<path onmouseover="hoverPath(evt)" onmouseout="recoverPath(evt)" fill="rgb(243,242,234)" d="M  53,217l 0,1 1,1 0,3 1,1 0,18 -1,1 0,4 -1,1 -1,1 0,1 -1,1 0,2 1,1 0,2 25,0 0,-1 -1,-1 0,-2 -1,-1 0,-2 -1,-1 0,-2 -1,-1 0,-1 -1,-1 0,-2 -1,-1 0,-2 -1,-1 0,-2 -1,-1 0,-1 -1,-1 0,-2 -1,-1 0,-2 -1,-1 0,-2 -1,-1 0,-1 -1,-1 0,-2 -1,-1 -3,0 -1,-1 -5,0 -1,1Z"/>
<path onmouseover="hoverPath(evt)" onmouseout="recoverPath(evt)" fill="rgb(240,239,227)" d="M  89,141l 0,3 -1,1 0,3 2,0 1,1 0,3 1,0 1,1 1,-1 7,0 1,-1 6,0 1,-1 3,0 1,-1 4,0 1,-1 3,0 1,-1 4,0 1,-1 2,0 1,-1 0,-1 -1,-1 0,-2 -1,-1 0,-2 -1,-1 0,-1 -1,-1 0,-2 -5,0 -1,1 -5,0 -1,1 -4,0 -1,1 -5,0 -1,1 -4,0 -1,1 -4,0 -1,1 -4,0Z"/>
<path onmouseover="hoverPath(evt)" onmouseout="recoverPath(evt)" fill="rgb(240,239,227)" d="M  133,132l 0,0 -1,1 0,2 1,1 0,2 1,1 0,2 1,1 0,1 1,1 0,2 1,1 0,3 1,1 0,2 1,1 0,1 1,1 1,0 1,-1 3,0 1,-1 3,0 -1,-1 0,-2 -1,-1 0,-3 1,-1 1,-1 4,0 1,1 0,2 -1,1 -1,0 0,1 1,1 0,0 1,1 0,1 5,0 1,-1 4,0 1,-1 4,0 1,-1 3,0 1,-1 0,-2 1,-1 2,0 1,1 0,1 5,0 0,-1 1,-1 0,-2 -1,0 -1,-1 -2,0 -1,-1 0,-2 1,-1 2,0 0,-3 -1,-1 0,-4 -1,-1 0,-3 -1,-1 0,-2 -6,0 -1,1 -5,0 -1,1 -5,0 -1,1 -5,0 -1,1 -5,0 -1,1 -4,0 -1,1 -5,0 -1,1 -3,0 -1,1Z"/>
<path onmouseover="hoverPath(evt)" onmouseout="recoverPath(evt)" fill="rgb(249,249,244)" d="M  151,249l 0,1 9,0 1,1 11,0 1,1 1,0 1,1 0,2 41,0 0,-3 -1,-1 0,-3 -1,-1 0,-3 -1,-1 0,-4 -1,-1 0,-2 -1,-1 0,-3 -1,-1 0,-3 -1,-1 0,-3 -1,-1 0,-3 -1,-1 0,-2 -1,-1 0,-3 -1,-1 0,-2 -1,-1 0,-3 -1,-1 0,-2 -1,-1 0,-3 -1,-1 0,-2 -2,0 0,1 1,1 0,1 1,1 0,2 1,1 0,2 1,1 0,3 1,1 0,2 1,1 0,3 1,1 0,3 1,1 0,3 1,1 0,2 1,1 0,3 1,1 0,3 1,1 0,4 1,1 0,7 -1,1 -5,0 -1,1 -8,0 -1,1 -19,0 -1,-1 -6,0 -1,-1 -13,0 -1,-1 -3,0 -1,1Z"/>
<path onmouseover="hoverPath(evt)" onmouseout="recoverPath(evt)" fill="rgb(243,241,233)" d="M  234,0l -9,0 0,3 1,1 0,2 1,1 0,2 1,1 0,2 1,1 0,2 1,1 0,2 1,1 0,2 1,1 0,1 1,1 0,2 1,1 0,2 1,1 0,3 1,1 0,2 1,1 0,2 1,1 0,2 1,1 0,2 1,1 0,2 1,1 0,1 1,1 0,2 1,1 0,1 1,1 0,2 1,1 0,2 1,1 0,1 1,1 0,2 1,1 0,2 1,1 0,1 1,1 0,1 1,1 1,1 1,0 1,1 1,0 0,-76Z"/>
<path onmouseover="hoverPath(evt)" onmouseout="recoverPath(evt)" fill="rgb(244,243,237)" d="M  0,134l 0,63 37,0 1,-1 15,0 0,-6 -1,-1 0,-4 -1,-1 0,-5 -1,-1 0,-4 -1,-1 0,-3 -1,-1 0,-2 -1,-1 0,-3 -1,-1 0,-2 -1,-1 0,-3 -1,-1 0,-2 -1,-1 0,-3 -1,-1 0,-2 -1,-1 0,-3 -1,-1 0,-2 -1,-1 0,-2 -1,-1 0,-3 -1,-1 0,-1 -5,0 -1,1 -9,0 -1,1 -9,0 -1,1 -10,0 -1,1Z"/>
<path onmouseover="hoverPath(evt)" onmouseout="recoverPath(evt)" fill="rgb(245,233,143)" d="M  0,206l 0,9 49,0 1,1 0,1 1,1 0,2 1,1 0,21 -1,1 0,2 -1,1 0,1 -1,1 -1,1 0,3 1,1 0,2 1,0 0,-1 -1,-2 0,-3 1,-1 1,-2 1,-1 0,-2 1,-3 0,-16 -1,-4 -1,-3 0,-2 1,-1 8,0 1,1 2,0 0,-1 1,-1 4,0 1,1 7,0 1,-1 10,0 1,-1 10,0 1,-1 8,0 1,-1 8,0 1,-1 6,0 1,-1 4,0 1,-1 6,0 1,-1 3,0 0,-1 1,-1 3,0 1,-1 4,0 1,-1 5,0 1,-1 4,0 1,-1 5,0 1,-1 4,0 1,-1 5,0 1,-1 4,0 1,-1 4,0 1,-1 5,0 1,-1 8,0 1,-1 1,-1 5,0 1,1 3,0 1,-1 5,0 1,-1 4,0 1,-1 5,0 1,-1 5,0 1,-1 5,0 1,-1 5,0 1,-1 3,0 1,-1 3,0 0,-15 -4,0 -1,1 -4,0 0,5 -1,1 -4,0 -1,-1 0,-1 -1,1 -4,0 -1,1 -5,0 -1,1 -5,0 -1,1 -4,0 -1,1 -5,0 -1,1 -5,0 -1,1 -6,0 0,2 -1,1 -5,0 -1,-1 -3,0 -1,1 -5,0 -1,1 -4,0 -1,1 -5,0 0,1 -1,1 -1,1 -5,0 -1,-1 -3,0 -1,1 -5,0 -1,1 -6,0 -1,1 -5,0 -1,1 -5,0 -1,1 -5,0 -1,1 -7,0 -1,1 -6,0 -1,1 -7,0 -1,1 -7,0 -1,1 -7,0 -1,1 -13,0 -1,1 -14,0 -1,-1 0,-2 -1,-1 0,-2 1,-1 0,-4 -1,-1 0,-4 -1,-1 0,-5 -1,-1 0,-2 1,-1 -1,0 -1,-1 -1,-1 0,-3 1,-1 -1,-1 0,-2 -1,-1 0,-2 -1,-1 0,-3 -1,-1 0,-2 -1,-1 0,-3 -1,-1 0,-2 -1,-1 0,-2 -1,0 -1,-1 0,-3 1,-1 3,0 -4,-1 0,-2 -1,-1 0,-2 -1,-1 0,-2 -1,-1 0,-3 1,-1 1,0 1,-1 7,0 1,-1 6,0 1,-1 7,0 1,-1 7,0 1,-1 4,0 1,-1 4,0 1,-1 5,0 1,-1 4,0 1,-1 4,0 1,-1 4,0 1,-1 5,0 1,-1 3,0 0,-1 1,-1 4,0 1,1 0,2 1,-3 4,0 1,-1 5,0 1,-1 5,0 1,-1 5,0 1,-1 6,0 1,-1 5,0 1,-1 5,0 1,-1 6,0 0,-1 1,-1 4,0 1,1 1,0 1,-1 8,0 1,1 0,-1 1,-1 3,0 1,-1 5,0 1,1 0,-1 1,-1 5,0 1,-1 6,0 1,-1 5,0 0,-1 1,-1 3,0 1,1 2,0 1,-1 6,0 1,-1 6,0 1,-1 5,0 0,-1 1,-1 2,0 1,-1 3,0 0,-3 -3,0 -1,1 -4,0 -1,1 -3,0 -1,-1 0,-1 -10,0 -1,1 -5,0 -1,1 -5,0 -1,1 -5,0 -1,1 -6,0 -1,1 -5,0 -1,1 -6,0 -1,1 -5,0 -1,1 -6,0 -1,1 -6,0 -1,1 -4,0 -1,1 -5,0 -1,1 -5,0 -1,1 -5,0 -1,1 -6,0 -1,1 -5,0 -1,1 -6,0 -1,1 -6,0 -1,1 -4,0 -1,1 -6,0 0,2 -1,1 -6,0 -1,-1 -5,0 -1,1 -5,0 -1,1 -5,0 -1,1 -5,0 -1,1 -5,0 -1,1 -5,0 -1,1 -6,0 -1,1 -5,0 -1,1 -5,0 -1,1 -6,0 -1,-1 0,-7 -1,-1 0,-2 1,-1 1,0 0,-5 -1,-1 0,-19 -1,-1 0,-21 -1,-1 0,-21 -1,-1 0,-24 -1,-1 0,-12 -6,0 0,8 1,1 0,25 1,1 0,21 1,1 0,21 1,1 0,16 -1,1 -35,0 0,2 35,0 1,1 1,1 0,8 1,1 0,2 1,1 0,7 -1,1 -2,0 -1,1 -7,0 -1,1 -7,0 -1,1 -8,0 -1,1 -10,0 0,7 10,0 1,-1 9,0 1,-1 9,0 1,-1 7,0 1,1 0,1 1,1 0,3 1,1 0,2 1,1 0,2 1,1 0,3 1,1 0,2 1,1 0,3 1,1 0,2 1,1 0,3 1,1 0,2 1,1 0,3 1,1 0,2 1,1 0,3 1,1 0,4 1,1 0,5 1,1 0,4 1,1 0,7 1,0 1,1 1,1 0,2 -1,1 -1,0 -1,1 -5,0 0,2 -1,1 -7,0 -1,-1 0,-2 -33,0 -1,1 -7,0Z"/>
<path onmouseover="hoverPath(evt)" onmouseout="recoverPath(evt)" fill="rgb(245,244,237)" d="M  0,218l 0,37 47,0 0,-1 -1,-1 0,-5 1,-1 1,-1 0,-1 1,-1 0,-2 1,-1 0,-19 -1,-1 0,-2 -1,-1 0,-1 -47,0 -1,1Z"/>
<path onmouseover="hoverPath(evt)" onmouseout="recoverPath(evt)" fill="rgb(173,199,237)" d="M  63,198l 0,1 12,0 1,-1 13,0 1,-1 7,0 1,-1 7,0 1,-1 7,0 1,-1 6,0 1,-1 7,0 1,-1 5,0 1,-1 5,0 1,-1 5,0 1,-1 6,0 1,-1 5,0 1,-1 5,0 1,1 3,0 1,-1 0,-1 1,-1 5,0 1,-1 4,0 1,-1 5,0 1,-1 5,0 0,-1 -1,-1 -4,0 -1,1 -6,0 -1,1 -5,0 -1,1 -5,0 -1,1 -5,0 -1,1 -5,0 -1,1 -6,0 -1,1 -5,0 -1,1 -5,0 -1,1 -6,0 -1,1 -5,0 -1,1 -6,0 -1,1 -6,0 -1,1 -6,0 -1,1 -6,0 -1,-1 0,0 -1,1 -1,0 -1,1 -4,0 -1,1 -8,0 -1,1 -15,0 -1,1Z"/>
<path onmouseover="hoverPath(evt)" onmouseout="recoverPath(evt)" fill="rgb(240,239,226)" d="M  193,146l 3,0 1,-1 4,0 1,-1 2,0 1,-1 0,-1 -1,-1 0,-2 -1,-1 0,-3 -1,-1 0,-2 -1,-1 0,-3 -1,-1 0,-2 -1,-1 0,-2 -1,-1 0,-1 -4,0 -1,1 -4,0 -1,1 -3,0 1,1 0,2 -1,1 0,2 1,1 0,2 1,1 0,4 1,1 0,3 1,1 0,3 1,1 0,1Z"/>
<path onmouseover="hoverPath(evt)" onmouseout="recoverPath(evt)" fill="rgb(242,241,230)" d="M  211,149l -2,0 0,6 -1,1 -2,0 -1,-1 0,-2 -1,-1 0,-2 -5,0 -1,1 -4,0 -1,1 -1,0 0,4 1,1 0,3 1,1 0,3 1,1 0,3 1,1 0,3 1,1 0,2 1,1 0,1 1,0 1,-1 6,0 1,-1 2,0 0,-6 1,-1 2,0 1,1 0,3 1,1 0,2 1,0 1,-1 4,0 1,-1 5,0 1,-1 5,0 1,-1 7,0 -1,-1 0,-3 -1,-1 0,-4 -1,-1 0,-2 -1,-1 0,-4 -1,-1 0,-3 -1,-1 0,-2 -1,-1 0,-1 -4,0 -1,1 -5,0 -1,1 -5,0 -1,1 -4,0 -1,1Z"/>
<path onmouseover="hoverPath(evt)" onmouseout="recoverPath(evt)" fill="rgb(171,198,236)" d="M  0,115l 0,7 9,0 1,-1 8,0 1,-1 7,0 1,-1 7,0 1,-1 2,0 0,-5 -1,-1 0,-2 -8,0 -1,1 -7,0 -1,1 -7,0 -1,1 -7,0 -1,1 -2,0 -1,1Z"/>
<path onmouseover="hoverPath(evt)" onmouseout="recoverPath(evt)" fill="rgb(175,199,233)" d="M  37,199l -37,0 0,2 6,0 1,-1 29,0 1,-1 1,0 1,1 3,0 1,1 0,2 5,0 0,-2 1,-1 5,0 1,-1 1,0 -1,-1 -16,0 -1,1Z"/>
<path onmouseover="hoverPath(evt)" onmouseout="recoverPath(evt)" fill="rgb(243,242,234)" d="M  96,170l 0,0 -1,1 0,1 -1,1 0,8 2,0 1,1 0,5 1,1 0,4 4,0 1,-1 6,0 1,-1 6,0 1,-1 6,0 1,-1 5,0 1,-1 6,0 1,-1 5,0 1,-1 5,0 1,-1 6,0 1,-1 5,0 1,-1 5,0 1,-1 5,0 1,-1 5,0 1,-1 6,0 1,-1 5,0 0,-3 -1,-1 0,-3 -1,-1 0,-3 -1,-1 0,-3 -1,-1 0,-3 -1,-1 0,-3 -1,-1 0,-1 -4,0 -1,1 -4,0 -1,1 -3,0 -1,1 -5,0 -1,1 -4,0 -1,1 -5,0 -1,1 -6,0 -1,1 -4,0 -1,1 -3,0 -1,1 -5,0 -1,1 -5,0 -1,1 -5,0 -1,1 -3,0 -1,1 -4,0 -1,1 -5,0 -1,1 -6,0 -1,1 -2,0 -1,1Z"/>
<path onmouseover="hoverPath(evt)" onmouseout="recoverPath(evt)" fill="rgb(242,241,230)" d="M  128,115l -1,0 0,2 -1,1 1,1 0,2 1,1 0,2 1,1 0,1 5,0 1,-1 5,0 1,-1 5,0 1,-1 5,0 1,-1 5,0 1,-1 4,0 1,-1 5,0 1,-1 4,0 1,-1 2,0 0,-3 -1,-1 0,-2 -1,-1 0,-3 -6,0 -1,1 -5,0 -1,1 -5,0 -1,1 -6,0 -1,1 -5,0 -1,1 -5,0 -1,1 -5,0 -1,1Z"/>
<path onmouseover="hoverPath(evt)" onmouseout="recoverPath(evt)" fill="rgb(243,242,234)" d="M  171,207l 0,0 1,1 0,3 1,1 0,3 1,1 0,3 1,1 0,2 1,1 0,3 1,1 0,3 1,1 0,3 1,1 0,3 1,1 0,3 1,1 0,6 14,0 1,-1 8,0 1,-1 5,0 0,-5 -1,-1 0,-4 -1,-1 0,-3 -1,-1 0,-3 -1,-1 0,-2 -1,-1 0,-3 -1,-1 0,-3 -1,-1 0,-3 -1,-1 0,-2 -1,-1 0,-3 -1,-1 0,-2 -1,-1 0,-2 -1,0 -1,1 -4,0 -1,1 -4,0 -1,1 -5,0 -1,1 -5,0 -1,1 -3,0 -1,1Z"/>
<path onmouseover="hoverPath(evt)" onmouseout="recoverPath(evt)" fill="rgb(237,236,221)" d="M  200,107l 0,-3 -3,0 -1,1 -3,0 0,1 -1,1 -2,0 -1,-1 -6,0 -1,1 -2,0 0,1 1,1 0,3 1,1 0,3 1,1 3,0 1,-1 3,0 0,-1 1,-1 0,-4 1,-1 2,0 1,1 0,3 1,1 4,0 1,-1 0,-4 -1,-1Z"/>
<path onmouseover="hoverPath(evt)" onmouseout="recoverPath(evt)" fill="rgb(240,239,226)" d="M  206,103l -2,0 0,4 1,1 0,4 6,0 1,-1 4,0 1,-1 3,0 1,-1 2,0 0,-3 -1,-1 0,-2 -1,-1 0,-1 -4,0 -1,1 -6,0 -1,1Z"/>
<path onmouseover="hoverPath(evt)" onmouseout="recoverPath(evt)" fill="rgb(239,238,224)" d="M  213,139l 0,0 -1,1 -2,0 0,2 1,1 2,0 1,-1 5,0 1,-1 5,0 1,-1 4,0 1,-1 1,0 0,-1 -1,-1 0,-1 -5,0 -1,-1 0,-2 1,-1 3,0 0,-4 -1,-1 0,-3 -1,-1 0,-3 -1,-1 0,-2 -1,-1 0,-1 -5,0 -1,1 -4,0 -1,1 -4,0 -1,1 -3,0 -1,1 -1,0 0,2 1,1 0,3 1,1 0,2 1,1 0,3 1,1 0,2 1,1 3,0 1,1Z"/>
</svg>