<svg width="256" height="256" xmlns="http://www.w3.org/2000/svg"><script> 
var tempColor;
function hoverPath(evt){
obj = evt.target;
tempColor = obj.getAttribute("fill");
obj.setAttribute("fill","red");
//alert(tempColor);
//obj.setAttribute("stroke","red");}
function recoverPath(evt){
obj = evt.target;
obj.setAttribute("fill", tempColor);
//obj.setAttribute("stroke", tempColor);
}</script><path onmouseover="hoverPath(evt)" onmouseout="recoverPath(evt)" fill="rgb(244,243,236)" d="M  0,1l 0,99 1,0 1,-1 2,0 1,1 0,2 2,0 1,1 2,0 1,1 2,0 1,1 1,0 1,-1 2,0 1,1 0,2 2,0 1,1 2,0 1,1 1,0 1,-1 2,0 1,1 0,2 2,0 1,1 2,0 1,1 2,0 1,1 1,0 1,-1 2,0 1,1 0,2 2,0 1,1 2,0 1,1 2,0 1,1 1,0 1,-1 2,0 1,1 0,2 2,0 1,1 2,0 1,1 2,0 1,1 1,0 1,-1 2,0 1,1 0,2 2,0 1,1 2,0 1,1 2,0 1,1 1,0 1,-1 2,0 1,1 0,2 2,0 1,1 2,0 1,1 2,0 1,1 1,0 1,-1 2,0 1,1 0,2 2,0 1,1 2,0 1,1 2,0 1,1 1,0 1,-1 2,0 1,1 0,2 2,0 1,1 2,0 1,1 2,0 1,1 2,0 1,1 1,0 1,-1 2,0 1,1 0,2 2,0 1,1 2,0 1,1 2,0 1,1 2,0 1,1 1,0 1,-1 2,0 1,1 0,2 2,0 1,1 2,0 1,1 2,0 1,1 2,0 1,1 1,0 1,-1 2,0 1,1 0,2 2,0 1,1 2,0 1,1 2,0 1,1 1,0 1,-1 2,0 1,1 0,2 2,0 1,1 2,0 1,1 2,0 1,1 1,0 1,-1 2,0 1,1 0,2 2,0 1,1 2,0 1,1 2,0 1,1 1,0 1,-1 2,0 1,1 0,2 2,0 1,1 2,0 1,1 2,0 1,1 1,0 1,-1 2,0 1,1 0,2 2,0 1,1 2,0 1,1 2,0 1,1 1,0 1,-1 2,0 1,1 0,2 2,0 1,1 2,0 1,1 2,0 1,1 1,0 1,-1 2,0 1,1 0,2 2,0 1,1 3,0 0,-190 -254,0 -1,1Z"/>
<path onmouseover="hoverPath(evt)" onmouseout="recoverPath(evt)" fill="rgb(250,250,245)" d="M  0,108l 0,1 2,0 1,1 2,0 1,1 2,0 1,1 2,0 1,1 2,0 1,1 2,0 1,1 0,2 1,-1 3,0 1,1 2,0 1,1 2,0 1,1 2,0 1,1 2,0 1,1 0,2 1,-1 3,0 1,1 2,0 1,1 2,0 1,1 2,0 1,1 2,0 1,1 2,0 1,1 0,2 1,-1 3,0 1,1 2,0 1,1 2,0 1,1 2,0 1,1 2,0 1,1 0,2 1,-1 3,0 1,1 2,0 1,1 2,0 1,1 2,0 1,1 2,0 1,1 2,0 1,1 0,2 1,-1 3,0 1,1 2,0 1,1 2,0 1,1 2,0 1,1 0,2 1,-1 3,0 1,1 2,0 1,1 2,0 1,1 2,0 1,1 2,0 1,1 0,2 1,-1 3,0 1,1 2,0 1,1 2,0 1,1 2,0 1,1 2,0 1,1 0,2 1,-1 3,0 1,1 2,0 1,1 2,0 1,1 2,0 1,1 0,2 1,-1 3,0 1,1 2,0 1,1 2,0 1,1 2,0 1,1 0,2 1,-1 3,0 1,1 2,0 1,1 2,0 1,1 2,0 1,1 0,2 1,-1 3,0 1,1 2,0 1,1 2,0 1,1 2,0 1,1 2,0 1,1 0,2 1,-1 3,0 1,1 2,0 1,1 2,0 1,1 2,0 1,1 2,0 1,1 0,2 1,-1 3,0 1,1 2,0 1,1 2,0 1,1 2,0 1,1 2,0 1,1 0,2 1,-1 3,0 1,1 2,0 1,1 2,0 1,1 2,0 1,1 2,0 1,1 0,2 1,-1 4,0 0,-6 -4,0 -1,-1 -2,0 -1,-1 0,-2 -1,1 -3,0 -1,-1 -2,0 -1,-1 -2,0 -1,-1 -2,0 -1,-1 0,-2 -1,1 -3,0 -1,-1 -2,0 -1,-1 -2,0 -1,-1 -2,0 -1,-1 0,-2 -1,1 -3,0 -1,-1 -2,0 -1,-1 -2,0 -1,-1 -2,0 -1,-1 0,-2 -1,1 -3,0 -1,-1 -2,0 -1,-1 -2,0 -1,-1 -2,0 -1,-1 0,-2 -1,1 -3,0 -1,-1 -2,0 -1,-1 -2,0 -1,-1 -2,0 -1,-1 0,-2 -1,1 -3,0 -1,-1 -2,0 -1,-1 -2,0 -1,-1 -2,0 -1,-1 0,-2 -1,1 -3,0 -1,-1 -2,0 -1,-1 -2,0 -1,-1 -2,0 -1,-1 -2,0 -1,-1 0,-2 -1,1 -3,0 -1,-1 -2,0 -1,-1 -2,0 -1,-1 -2,0 -1,-1 -2,0 -1,-1 0,-2 -1,1 -3,0 -1,-1 -2,0 -1,-1 -2,0 -1,-1 -2,0 -1,-1 -2,0 -1,-1 0,-2 -1,1 -3,0 -1,-1 -2,0 -1,-1 -2,0 -1,-1 -2,0 -1,-1 0,-2 -1,1 -3,0 -1,-1 -2,0 -1,-1 -2,0 -1,-1 -2,0 -1,-1 0,-2 -1,1 -3,0 -1,-1 -2,0 -1,-1 -2,0 -1,-1 -2,0 -1,-1 0,-2 -1,1 -3,0 -1,-1 -2,0 -1,-1 -2,0 -1,-1 -2,0 -1,-1 0,-2 -1,1 -3,0 -1,-1 -2,0 -1,-1 -2,0 -1,-1 -2,0 -1,-1 0,-2 -1,1 -3,0 -1,-1 -2,0 -1,-1 -2,0 -1,-1 -2,0 -1,-1 0,-2 -1,1 -3,0 -1,-1 -2,0 -1,-1 -2,0 -1,-1 0,-2 -1,1 -3,0 -1,-1 -2,0 -1,-1 -2,0 -1,-1 -2,0 -1,-1 0,-2 -1,1 -2,0Z"/>
<path onmouseover="hoverPath(evt)" onmouseout="recoverPath(evt)" fill="rgb(244,243,236)" d="M  0,113l 0,142 255,0 0,-55 -3,0 -1,1 -2,0 -1,-1 0,-2 -2,0 -1,-1 -2,0 -1,-1 -2,0 -1,-1 -2,0 -1,-1 -1,0 -1,1 -2,0 -1,-1 0,-2 -2,0 -1,-1 -2,0 -1,-1 -2,0 -1,-1 -2,0 -1,-1 -1,0 -1,1 -2,0 -1,-1 0,-2 -2,0 -1,-1 -2,0 -1,-1 -2,0 -1,-1 -2,0 -1,-1 -1,0 -1,1 -2,0 -1,-1 0,-2 -2,0 -1,-1 -2,0 -1,-1 -2,0 -1,-1 -2,0 -1,-1 -1,0 -1,1 -2,0 -1,-1 0,-2 -2,0 -1,-1 -2,0 -1,-1 -2,0 -1,-1 -1,0 -1,1 -2,0 -1,-1 0,-2 -2,0 -1,-1 -2,0 -1,-1 -2,0 -1,-1 -1,0 -1,1 -2,0 -1,-1 0,-2 -2,0 -1,-1 -2,0 -1,-1 -2,0 -1,-1 -1,0 -1,1 -2,0 -1,-1 0,-2 -2,0 -1,-1 -2,0 -1,-1 -2,0 -1,-1 -2,0 -1,-1 -1,0 -1,1 -2,0 -1,-1 0,-2 -2,0 -1,-1 -2,0 -1,-1 -2,0 -1,-1 -2,0 -1,-1 -1,0 -1,1 -2,0 -1,-1 0,-2 -2,0 -1,-1 -2,0 -1,-1 -2,0 -1,-1 -1,0 -1,1 -2,0 -1,-1 0,-2 -2,0 -1,-1 -2,0 -1,-1 -2,0 -1,-1 -2,0 -1,-1 -2,0 -1,-1 -1,0 -1,1 -2,0 -1,-1 0,-2 -2,0 -1,-1 -2,0 -1,-1 -2,0 -1,-1 -2,0 -1,-1 -1,0 -1,1 -2,0 -1,-1 0,-2 -2,0 -1,-1 -2,0 -1,-1 -2,0 -1,-1 -2,0 -1,-1 -2,0 -1,-1 -1,0 -1,1 -2,0 -1,-1 0,-2 -2,0 -1,-1 -2,0 -1,-1 -2,0 -1,-1 -2,0 -1,-1 -1,0 -1,1 -2,0 -1,-1 0,-2 -2,0 -1,-1 -2,0 -1,-1 -2,0 -1,-1 -2,0 -1,-1 -2,0 -1,-1 -1,0Z"/>
</svg>