<svg width="256" height="256" xmlns="http://www.w3.org/2000/svg"><script> 
var tempColor;
function hoverPath(evt){
obj = evt.target;
tempColor = obj.getAttribute("fill");
obj.setAttribute("fill","red");
//alert(tempColor);
//obj.setAttribute("stroke","red");}
function recoverPath(evt){
obj = evt.target;
obj.setAttribute("fill", tempColor);
//obj.setAttribute("stroke", tempColor);
}</script><path onmouseover="hoverPath(evt)" onmouseout="recoverPath(evt)" fill="rgb(244,242,235)" d="M  0,240l 0,15 99,0 0,-3 1,-1 0,-1 -1,-1 0,-1 -1,-1 -1,-1 -1,-1 0,-8 1,-1 -1,-1 0,-6 1,-1 0,-2 1,-1 0,-2 1,-1 1,0 1,-1 -1,-1 0,-2 2,-2 1,0 1,-1 1,0 0,-1 1,-1 2,0 0,-1 1,-1 2,0 -1,-1 0,-6 -1,0 -1,-1 -1,-1 0,-3 -1,-1 0,-2 -2,0 -1,-1 0,-2 1,-1 0,-2 1,-1 0,-18 1,-1 0,-12 -2,0 -1,-1 0,-5 1,-1 0,-1 1,-1 0,-1 1,-1 1,-1 3,0 1,-1 0,-2 1,-1 1,0 1,-1 1,-1 1,0 1,-1 1,0 1,-1 3,0 1,1 0,-2 1,-1 1,0 1,-1 2,0 1,1 2,0 1,1 0,-2 1,-1 1,-1 2,0 1,1 0,-2 1,-1 0,-2 1,-1 1,-1 1,0 1,-1 1,0 1,-1 1,-1 1,0 0,-1 1,-1 2,0 0,-1 1,-1 2,0 1,-1 1,-1 2,0 1,1 2,-2 1,-1 1,0 1,-1 0,-2 1,-1 5,0 1,1 5,0 1,-1 0,-1 1,-1 4,0 1,-1 3,0 1,-1 1,0 1,-1 0,-1 1,-1 1,0 0,-1 1,-1 1,-1 -1,-1 0,-3 1,-1 4,0 1,1 0,2 1,1 0,1 1,1 0,-10 -1,2 -2,0 -1,-1 0,-2 -1,-1 -28,0 -1,1 -7,0 -1,1 -1,0 -1,1 0,1 -1,1 0,7 -1,1 -2,0 -1,-1 0,-9 -1,2 0,3 -1,1 0,3 -1,1 0,2 -1,1 0,3 -1,1 0,1 -1,1 0,1 -1,1 -1,1 0,1 -1,1 -1,1 -1,1 -1,1 -1,0 -1,1 -1,0 -1,1 -1,0 -1,1 -1,0 -1,1 -1,0 -1,1 -1,0 -1,1 -1,0 -1,1 -2,0 -1,1 -1,0 -1,1 -1,0 -1,1 -1,0 -1,1 -1,0 -1,1 -1,0 -1,1 -1,0 -1,1 -1,0 -1,1 -2,0 -1,1 -1,0 -1,1 -1,0 -1,1 -1,0 -1,1 -1,0 -1,1 -1,0 -1,1 -1,1 0,7 -1,1 0,8 -1,1 0,1 -1,1 -1,0 -1,1 -2,0 -1,-1 -1,1 -3,0 -1,-1 -3,0 -1,-1 -3,0 -1,-1 -4,0 -1,-1 -2,0 -1,-1 -3,0 -1,1 -3,0 -1,-1 -4,0 -1,-1 -4,0 -1,-1 -6,0 -1,1 -1,1 0,3 -1,1 0,9 -1,1 0,14 -1,1 0,2 1,1 0,13 1,1 0,11 -1,1 0,4 -1,1 2,0 1,1 0,1 1,1 0,5 1,1 0,8 -1,1 -1,1 -1,1 -14,0 -1,-1 -10,0 -1,-1 -9,0 -1,1Z"/>
<path onmouseover="hoverPath(evt)" onmouseout="recoverPath(evt)" fill="rgb(181,207,165)" d="M  25,132l 0,2 1,1 1,1 1,0 1,1 2,0 1,1 2,0 1,-1 0,-5 1,-1 0,-3 1,-1 0,-1 1,-1 1,-1 1,0 0,-1 1,-1 2,0 1,-1 3,0 1,-1 1,0 1,-1 1,0 1,-1 1,-1 1,-1 1,-1 1,-1 1,0 0,-1 1,-1 3,-3 2,0 0,-1 1,-1 1,-1 1,-1 1,-1 1,-1 1,0 1,-1 1,0 0,-1 1,-1 1,-1 1,-1 2,-2 1,-1 2,-2 1,-1 2,-2 1,-1 1,-1 1,-1 1,-1 1,0 0,-1 1,-1 1,-1 2,-2 1,-1 0,-1 1,-1 1,-1 1,-1 0,-3 1,-1 0,-2 1,-1 0,-1 1,-1 0,-1 1,-1 1,-1 0,-1 1,-1 1,-1 1,-1 1,-1 1,-1 1,-1 2,-2 1,-1 1,-1 4,0 1,-1 2,-2 1,-1 1,-1 0,-1 1,-1 0,-10 -1,-1 0,-2 -1,-1 0,-2 -1,-1 0,-4 -1,-1 0,-9 -4,0 -1,-1 0,-2 -7,0 -1,-1 -2,0 -1,-1 -1,0 -1,-1 -19,0 -1,1 -11,0 -1,1 -9,0 -1,1 -5,0 0,1 -1,1 -1,1 -1,0 -1,1 -3,0 0,1 -1,1 0,8 -1,1 0,1 -3,3 -1,0 -1,1 -2,0 -1,1 -1,0 -1,1 -1,0 -1,1 -4,0 -1,1 -2,0 -1,1 -2,0 0,1 -1,1 -3,0 -1,-1 -1,0 -1,1 0,0 -2,2 -1,0 -1,1 -1,1 -1,0 -1,1 0,1 -1,1 0,2 -1,1 0,1 -1,1 0,1 -1,1 -2,0 0,46 2,0 1,1 1,-1 3,0 1,1 1,1 1,1 6,0 1,1 6,0 1,1 1,1 0,4 -1,1 0,4 -1,1 1,1 1,1 1,0 1,1 1,1 0,4 1,1 0,4 -1,1 -1,1 -1,1 -1,1Z"/>
<path onmouseover="hoverPath(evt)" onmouseout="recoverPath(evt)" fill="rgb(243,242,234)" d="M  112,147l 0,0 -1,1 -3,0 -1,1 0,1 -1,1 0,1 -1,1 0,3 2,0 1,1 0,14 -1,1 0,18 -1,1 0,2 -1,1 2,0 1,1 0,2 1,1 0,3 1,1 1,0 1,1 0,6 1,1 0,2 -1,1 -2,0 0,1 -1,1 -2,0 0,1 -1,1 -1,0 -1,1 -1,0 -1,1 1,1 0,2 -2,2 -1,0 0,2 -1,1 0,2 -1,1 0,4 1,1 0,2 -1,1 0,6 1,1 1,1 1,1 0,1 1,1 0,3 -1,1 0,2 111,0 0,-2 1,-1 5,0 1,-1 4,0 1,-1 5,0 1,-1 5,0 1,-1 4,0 1,-1 5,0 1,-1 5,0 1,-1 2,0 0,-29 -2,0 -1,-1 0,-2 -1,-1 0,-1 -1,-1 0,-1 -1,-1 0,-1 -1,-1 0,-1 -2,0 -1,-1 0,-1 -1,-1 0,-2 1,-1 -1,-1 0,-2 -1,-1 0,-1 -1,-1 0,-1 -1,-1 0,-1 -1,-1 0,-1 -2,0 -1,-1 0,-1 -1,-1 0,-2 1,-1 -1,-1 0,-1 -1,-1 0,-2 -1,-1 0,-1 -1,-1 0,-1 -1,-1 0,-1 -1,-1 0,-1 -2,0 -1,-1 0,-1 -1,-1 0,-2 1,-1 -1,-1 0,-1 -1,-1 0,-1 -1,-1 0,-2 -1,-1 0,-5 1,-1 0,-1 -1,-1 0,-1 -1,-1 0,-3 -1,-1 0,-16 -1,-1 -15,0 -1,-1 -4,0 -1,-1 0,-1 -1,-1 0,-2 -1,-1 0,-2 -1,0 -1,-1 0,-10 -1,-1 0,-1 -1,-1 0,-2 -2,0 0,1 1,1 0,2 -2,2 0,1 -1,1 -1,0 0,1 -2,2 -1,0 -1,1 -3,0 -1,1 -4,0 0,1 -2,2 -7,0 -1,-1 -3,0 0,2 -1,1 -1,1 -1,0 -1,1 -1,1 -1,1 -2,0 -1,-1 -1,1 -1,1 -2,0 0,1 -1,1 -2,0 0,1 -1,1 -1,0 -1,1 -1,1 -1,0 -1,1 -1,0 -1,1 0,2 -1,1 0,2 -1,1 -2,0 -1,-1 -1,1 0,2 -1,1 -2,0 -1,-1 -2,0 -1,-1 -1,1 -1,0 0,4 -1,1 -2,0 -1,-1 0,-2 -1,0 -1,1 -1,0 -1,1 -1,0 -2,2 -1,0 0,2 -1,1 109,93 -1,0 -1,1 -5,0 -1,1 -2,0 -1,-1 -2,0 -1,-1 0,-2 -2,0 -1,-1 -1,-1 -1,0 -1,-1 -1,-1 -1,0 -1,-1 -1,0 -1,-1 -1,-1 -1,0 -1,-1 -1,0 -1,1 -5,0 -1,-1 -7,0 -1,-1 -1,0 -1,-1 0,-3 -1,-1 0,-6 1,-1 0,-7 1,-1 0,-2 -1,-1 0,-2 1,-1 1,0 1,-1 21,0 1,-1 3,0 -3,-1 0,-2 -1,-1 0,-2 -1,-1 0,-2 -1,-1 0,-2 -1,-1 0,-4 1,-1 1,-1 2,0 1,-1 2,0 1,-1 5,0 1,1 0,1 1,1 0,1 1,1 0,2 1,1 0,1 1,1 0,1 1,1 0,1 1,1 0,3 -1,1 -1,1 -1,0 0,2 1,1 0,0 1,1 0,1 1,1 0,3 -1,1 0,1 1,1 0,2 1,1 0,2 1,1 0,1 1,1 0,2 1,1 0,1 1,1 0,3 1,1 0,2 1,1 0,3 1,1 0,2 -1,1 -1,1 -1,1 -109,-93Z"/>
<path onmouseover="hoverPath(evt)" onmouseout="recoverPath(evt)" fill="rgb(235,236,233)" d="M  199,184l 0,0 -1,1 0,2 1,1 0,2 1,1 0,2 1,1 0,2 1,1 0,2 2,0 1,1 0,1 1,0 1,-1 4,0 0,-2 1,-1 1,0 1,-1 0,-1 -1,-1 0,-1 -1,-1 0,-1 -1,-1 0,-1 -1,-1 0,-2 -1,-1 0,-1 -1,-1 0,-1 -3,0 -1,1 -2,0 -1,1Z"/>
<path onmouseover="hoverPath(evt)" onmouseout="recoverPath(evt)" fill="rgb(241,240,229)" d="M  203,112l 0,0 -1,1 0,4 -1,1 0,1 1,1 0,1 4,0 1,1 15,0 1,1 1,1 0,16 1,1 0,3 1,1 0,1 1,1 0,2 1,-2 0,-3 1,-1 0,-2 1,-1 0,-2 1,-1 0,-2 1,-1 0,-3 1,-1 0,-2 1,-1 0,-2 1,-1 0,-3 1,-1 0,-2 1,-1 0,-2 1,-1 0,-2 1,-1 0,-2 1,-1 0,-3 1,-1 0,-2 1,-1 0,-2 1,-1 0,-4 -3,0 -1,-1 -17,0 0,1 -1,1 -2,0 -1,1 -1,0 -1,1 -2,0 -1,-1 0,-2 1,-1 -1,-1 -9,0 0,1 -1,1 0,6 -1,1 0,4 2,0 1,-1 0,0 1,-1 2,0 1,1 0,2 -1,1 0,1 -1,1 -1,0 -1,1 -2,0Z"/>
<path onmouseover="hoverPath(evt)" onmouseout="recoverPath(evt)" fill="rgb(173,198,234)" d="M  1,32l -1,0 0,19 1,0 0,-1 1,-1 0,-1 1,-1 0,-2 1,-1 0,-1 1,-1 1,-1 1,0 1,-1 1,-1 1,0 1,-1 1,-1 1,-1 2,0 0,-1 1,-1 1,-1 1,0 1,-1 1,0 1,-1 1,0 1,-1 4,0 1,-1 2,0 1,-1 1,0 1,-1 1,0 1,-1 1,0 1,-1 1,-1 0,-4 -1,0 -1,1 -1,0 -1,1 -3,0 -1,1 -1,0 -2,2 -1,0 -1,1 -1,0 -1,1 -1,0 -1,1 -3,0 -1,1 -3,0 -1,-1 -3,0 -1,1 -1,0 -1,1 -1,0 -1,1 -1,0 -1,1Z"/>
<path onmouseover="hoverPath(evt)" onmouseout="recoverPath(evt)" fill="rgb(214,224,194)" d="M  16,111l 2,0 1,1 0,8 4,0 1,1 1,1 1,0 0,-2 -1,-1 -1,0 -1,-1 -1,-1 -1,-1 0,-2 1,-1 0,-4 1,-1 0,-2 -1,-1 -6,0 -1,-1 -6,0 -1,-1 -1,-1 -1,-1 -1,0 -1,1 -2,0 -1,-1 -1,0 0,14 2,0 1,-1 2,0 1,-1 1,0 1,-1 1,0 1,-1Z"/>
<path onmouseover="hoverPath(evt)" onmouseout="recoverPath(evt)" fill="rgb(187,211,183)" d="M  42,129l 0,1 -1,1 0,5 -1,1 0,6 -1,1 3,0 1,1 7,0 1,1 2,0 1,1 5,0 1,1 1,0 1,1 1,1 0,3 1,1 3,0 1,1 3,0 1,1 3,0 1,1 4,0 1,1 0,-5 1,-1 0,-5 -1,0 -1,-1 -1,-1 -1,-1 -1,-1 -1,0 -1,-1 -2,0 -1,-1 -1,-1 0,-4 1,-1 0,-1 1,-1 1,-1 3,0 1,-1 3,0 0,-1 1,-1 1,0 0,-1 1,-1 2,-2 1,0 0,-1 1,-1 1,-1 1,-1 1,0 1,-1 1,0 1,-1 1,-1 0,-1 1,-1 1,0 1,-1 1,-1 0,-1 1,-1 0,-1 1,-1 1,-1 1,0 1,-1 1,-1 1,0 0,-1 -1,-1 0,-1 -1,0 -2,-2 -1,-1 -1,-1 0,-1 -1,-1 0,-1 -2,0 -1,-1 -1,-1 0,-3 1,-1 0,-1 1,-1 1,-1 1,0 0,-2 1,-1 1,-1 0,-2 1,-1 0,-1 -1,-1 0,-1 -1,-1 -1,-1 0,-5 1,-1 0,-1 1,-1 1,-1 0,-2 1,-1 -1,0 1,-1 1,1 0,0 4,-4 1,-1 2,-2 1,-1 0,-1 -1,0 -1,1 0,0 -1,1 -1,1 -1,1 -1,1 -1,1 -1,1 0,1 1,-1 1,-1 1,-1 1,-1 1,-1 1,-1 1,-1 -10,10 -1,1 0,1 -1,1 0,1 -1,1 0,2 -1,1 0,3 -1,1 -1,1 -1,1 0,1 -1,1 -1,1 -1,1 -2,2 0,1 -1,1 -1,0 -1,1 -3,3 -1,1 -6,6 -1,1 -1,1 -1,1 0,1 -1,1 -1,0 -1,1 -1,0 -1,1 -1,1 -1,1 -1,1 0,1 -1,1 -2,0 -1,1 -1,1 -1,1 0,4 -1,1 -1,1 -1,1 0,1 -1,1 -1,0 -1,1 -1,1 -1,0 -1,1 -3,0 -1,1 -2,0 -1,1 -1,1Z"/>
<path onmouseover="hoverPath(evt)" onmouseout="recoverPath(evt)" fill="rgb(184,211,157)" d="M  81,136l 0,0 -1,1 -4,0 2,1 2,0 1,1 1,1 1,1 0,1 1,1 1,0 1,1 1,1 1,1 0,6 -1,1 0,6 -1,1 0,1 1,-1 1,0 0,-1 1,-1 0,-8 1,-1 0,-7 2,-2 1,-1 1,0 1,-1 1,0 1,-1 1,0 1,-1 1,0 1,-1 1,0 1,-1 2,0 1,-1 1,0 1,-1 1,0 1,-1 1,0 1,-1 1,0 1,-1 1,0 1,-1 1,0 1,-1 1,0 1,-1 2,0 1,-1 1,0 1,-1 1,0 1,-1 1,0 1,-1 1,0 1,-1 1,0 1,-1 1,0 1,-1 1,0 2,-2 1,-1 0,-1 1,-1 1,-1 0,-1 1,-1 0,-1 1,-1 0,-3 1,-1 0,-2 1,-1 0,-3 1,-1 0,-3 1,-1 0,-1 1,-1 1,0 2,-2 1,-1 1,-1 2,0 1,-1 15,0 1,-1 21,0 0,-1 1,-1 0,-6 1,-1 0,-6 1,-1 0,-4 1,-1 0,-5 1,-1 0,-4 1,-1 0,-5 1,-1 0,-4 1,-1 0,-5 1,-1 0,-4 1,-1 0,-5 1,-1 0,-4 1,-1 0,-5 1,-1 0,-5 1,-1 0,-5 1,-1 0,-3 -43,0 0,1 1,1 0,1 1,1 0,7 1,1 1,0 1,1 1,1 0,1 1,0 1,1 0,-3 1,-1 1,-1 1,0 1,-1 4,0 1,-1 3,0 1,1 1,1 1,1 1,1 0,1 1,1 0,2 1,1 0,5 -1,1 0,1 -1,1 0,3 1,1 0,4 -1,1 0,1 -1,1 0,3 1,1 0,5 1,1 0,1 1,1 0,2 1,1 0,9 -1,1 0,1 -1,1 0,3 -1,1 0,2 1,1 0,1 1,1 0,9 -1,1 -4,0 -1,-1 -1,0 -1,-1 0,-1 -2,0 -1,-1 -1,-1 -1,-1 0,-4 1,-1 0,-3 1,-1 0,-5 -1,-1 0,-5 -1,-1 0,-1 -1,-1 0,-5 -1,-1 0,-3 -1,-1 0,-3 -1,-1 0,-2 -2,0 -2,-2 -1,0 -2,-2 0,-1 -1,0 -1,-1 -1,-1 -2,-2 -1,-1 -1,-1 0,-1 -1,-1 -1,-1 -1,-1 -1,-1 -1,0 -1,-1 -2,0 -1,-1 -1,1 -2,0 -1,1 -1,1 0,1 -1,1 -1,1 -1,1 -6,0 -1,-1 -1,-1 -1,0 -1,-1 -1,-1 -1,-1 -1,-1 0,-1 -2,0 -1,-1 0,-1 -1,-1 0,-2 -1,-1 0,-1 -1,-1 0,-3 -2,0 -1,1 -4,0 0,3 1,1 0,9 1,1 0,4 1,1 0,2 1,1 0,2 1,1 0,12 -1,1 0,1 -1,1 -1,1 -1,1 -1,1 -1,1 -1,1 -1,0 0,2 -1,1 -1,1 -1,1 -1,1 -1,1 -1,1 -1,1 -1,1 -1,1 -1,0 0,2 -1,1 -1,1 0,1 -1,1 0,3 1,1 0,0 1,1 0,1 1,1 0,1 1,0 1,1 1,1 0,3 -1,1 0,1 -1,1 -1,1 -1,1 0,1 -1,1 -1,1 1,0 1,1 0,0 1,1 1,1 0,1 1,1 1,1 1,1 1,1 0,1 1,0 1,1 1,0 1,1 1,1 0,3 -1,1 -1,1 -1,0 -1,1 -1,0 -1,1 -1,0 -2,2 0,1 -1,1 0,2 -1,1 -1,0 -1,1 -1,0 0,1 -1,1 -1,1 -1,1 -1,0 -1,1 -2,0 0,1 -1,1 -1,1 -2,0 0,2 -1,1 -1,1 -1,1 -1,0 0,1 -1,1 -1,0 -1,1Z"/>
<path onmouseover="hoverPath(evt)" onmouseout="recoverPath(evt)" fill="rgb(184,207,210)" d="M  133,0l -4,0 0,2 -1,1 -1,0 -1,1 -2,0 0,1 1,1 0,1 1,1 0,3 1,1 0,1 1,1 0,2 1,1 0,1 1,0 1,-1 3,0 1,1 1,1 1,1 1,1 1,1 1,0 1,-1 0,-1 1,-1 1,-1 1,-1 2,0 0,-1 1,-1 7,0 1,1 1,0 1,1 1,1 2,0 1,1 1,1 1,1 1,1 0,1 1,1 1,1 0,1 1,1 1,1 1,1 1,0 1,1 1,1 0,1 2,0 1,1 1,1 1,0 1,1 1,1 0,1 1,1 0,2 1,1 0,4 1,1 0,4 1,1 0,2 1,1 0,5 1,1 0,7 -1,1 1,0 -1,1 0,6 1,1 1,0 -1,-1 0,-2 1,-12 0,-4 1,-1 0,-1 -1,-1 0,0 -1,-1 0,-3 -1,-1 0,-1 -1,-1 0,-5 -1,-1 0,-4 1,-1 0,-2 1,-1 0,-2 -1,-1 0,-5 1,-1 0,-1 1,-1 0,-4 -1,-1 0,-1 -1,-1 -3,0 -1,1 0,10 -1,1 -1,1 -5,0 -1,-1 -1,-1 0,-2 -1,-1 0,-4 -1,-1 0,-2 1,-1 -1,-1 -1,0 -1,-1 -1,-1 0,-7 -1,-1 0,-1 -1,-1 0,-2Z"/>
<path onmouseover="hoverPath(evt)" onmouseout="recoverPath(evt)" fill="rgb(243,241,233)" d="M  178,209l 0,1 -1,1 0,7 -1,1 0,4 1,1 0,3 1,0 1,1 7,0 1,1 3,0 1,-1 3,0 1,1 1,0 1,1 1,1 1,0 1,1 1,0 1,1 1,1 1,0 1,1 1,1 2,0 1,1 0,2 2,0 1,1 1,-1 5,0 0,-2 1,-1 1,-1 1,-1 0,-2 -1,-1 0,-2 -1,-1 0,-3 -1,-1 0,-1 -1,-1 0,-2 -1,-1 0,-1 -1,-1 0,-2 -1,-1 0,-2 -1,-1 0,-3 1,-1 0,-1 -1,-1 0,-1 -1,-1 -1,-1 -3,0 -1,1 -6,0 -1,1 -21,0 0,2 -1,1Z"/>
<path onmouseover="hoverPath(evt)" onmouseout="recoverPath(evt)" fill="rgb(252,252,250)" d="M  194,89l 0,0 1,1 1,1 3,0 1,1 0,24 1,-5 0,-2 1,-1 2,0 1,-1 1,0 0,-1 1,-1 -3,2 -3,0 0,-14 1,-1 0,-1 1,-1 11,0 1,1 1,1 0,1 1,1 1,-1 2,0 0,-1 1,-1 19,0 1,1 3,0 1,1 0,6 -1,1 0,2 -1,1 0,2 -1,1 0,3 -1,1 0,2 -1,1 0,2 -1,1 0,2 -1,1 0,2 -1,1 0,3 -1,1 0,2 -1,1 0,2 -1,1 0,3 -1,1 0,2 -1,1 0,2 -1,1 0,2 -1,1 0,3 -1,1 0,1 -1,1 -2,0 0,3 1,1 0,2 1,1 0,1 1,1 0,1 1,1 0,2 -1,1 1,1 0,1 2,0 1,1 0,1 1,1 0,1 1,1 0,1 1,1 0,1 1,1 0,2 1,1 0,1 1,1 0,2 -1,1 1,1 0,1 2,0 1,1 0,1 1,1 0,1 1,1 0,1 1,1 0,1 1,1 0,2 1,1 0,2 -1,1 1,1 0,1 2,0 1,1 0,1 1,1 0,1 1,1 0,1 1,1 0,1 1,1 0,2 1,0 0,-6 -2,0 -1,-1 0,-1 -1,-1 0,-1 -1,-1 0,-2 -1,-1 0,-2 1,-1 -1,-1 0,-1 -2,0 -1,-1 0,-1 -1,-1 0,-1 -1,-1 0,-1 -1,-1 0,-1 -1,-1 0,-2 -1,-1 0,-1 -1,-1 0,-2 1,-1 -1,-1 0,-1 -2,0 -1,-1 0,-1 -1,-1 0,-1 -1,-1 0,-1 -1,-1 0,-1 -1,-1 0,-2 -1,-1 0,-2 1,-1 -1,-1 0,-1 -2,0 -1,-1 0,-6 1,-1 0,-2 1,-1 0,-2 1,-1 0,-2 1,-1 0,-3 1,-1 2,0 0,-1 -1,-1 0,-3 1,-1 0,-3 1,-1 0,-2 1,-1 0,-2 1,-1 0,-2 1,-1 0,-3 1,-1 0,-2 1,-1 0,-2 1,-1 0,-2 1,-1 0,-3 1,-1 2,0 0,-1 -1,-1 0,-3 1,-1 0,-2 1,-1 0,-3 1,-1 2,0 0,-1 -1,-1 0,-3 1,-1 0,-2 1,-1 0,-3 1,-1 2,0 0,-16 -1,0 0,2 -1,1 0,1 1,1 0,4 -1,1 0,2 -1,1 0,2 -1,1 0,3 -1,1 0,2 -1,1 0,3 -1,1 0,2 -1,1 -1,0 -1,1 -3,0 -1,-1 -23,0 -1,-1 -18,0 -1,-1 -1,-1 0,-4 1,-1 0,-6 1,-1 0,-5 1,-1 0,-5 1,-1 0,-4 1,-1 0,-4 1,-1 0,-5 1,-1 0,-4 1,-1 0,-5 1,-1 0,-4 1,-1 0,-5 1,-1 0,-4 1,-1 0,-5 1,-1 0,-5 1,-1 0,-5 1,-1 2,0 0,-2 -4,0 0,4 -1,1 0,5 -1,1 0,5 -1,1 0,5 -1,1 0,4 -1,1 0,5 -1,1 0,4 -1,1 0,5 -1,1 0,4 -1,1 0,5 -1,1 0,4 -1,1 0,5 -1,1 0,4 -1,1 0,6 -1,1 0,6 -1,1 0,1 -1,1 0,1 2,3 0,0 -2,-3 -6,-1 -15,0 -1,1 -15,0 -1,1 -2,0 -1,1 -1,1 -1,1 0,9 1,-8 0,-1 1,-1 1,-1 1,0 2,-1 6,0 10,-1 14,0 1,-1 6,1Z"/>
<path onmouseover="hoverPath(evt)" onmouseout="recoverPath(evt)" fill="rgb(244,243,234)" d="M  216,1l 0,2 -1,1 -2,0 0,5 -1,1 0,5 -1,1 0,5 -1,1 0,4 -1,1 0,5 -1,1 0,4 -1,1 0,5 -1,1 0,4 -1,1 0,5 -1,1 0,4 -1,1 0,4 -1,1 0,5 -1,1 0,5 -1,1 0,6 -1,1 0,2 1,1 18,0 1,1 23,0 1,1 1,0 1,-1 1,0 0,-2 1,-1 0,-3 1,-1 0,-2 1,-1 0,-3 1,-1 0,-2 1,-1 0,-2 1,-1 0,-2 -1,-1 0,-3 1,-1 0,-2 1,-1 2,0 0,-58 -38,0 -1,1Z"/>
<path onmouseover="hoverPath(evt)" onmouseout="recoverPath(evt)" fill="rgb(203,220,216)" d="M  0,202l 0,17 11,0 1,1 2,0 1,1 8,0 1,1 1,0 1,1 2,0 1,1 5,0 1,-1 -3,0 -1,-1 0,-2 1,-1 1,0 0,-3 -1,-1 0,-2 -1,-1 -1,0 -1,-1 0,-1 -1,-1 -1,0 -1,-1 -5,0 -1,-1 -2,0 -1,-1 -2,0 -1,-1 -2,0 -1,-1 -1,0 -1,-1 0,-1 -1,-1 -1,-1 -1,-1 -2,0 -1,-1 0,-1 -1,-1 -1,-1 -1,0Z"/>
<path onmouseover="hoverPath(evt)" onmouseout="recoverPath(evt)" fill="rgb(186,213,142)" d="M  0,222l 0,15 11,0 1,1 10,0 1,1 12,0 1,-1 0,0 1,-1 0,-6 -1,-1 0,-5 -1,1 -7,0 -1,-1 -2,0 -1,-1 -1,0 -1,-1 -8,0 -1,-1 -2,0 -1,-1 -9,0 -1,1Z"/>
<path onmouseover="hoverPath(evt)" onmouseout="recoverPath(evt)" fill="rgb(197,218,158)" d="M  84,0l -84,0 0,26 2,0 1,-1 1,0 1,-1 1,0 1,-1 12,0 1,-1 2,0 0,-1 1,-1 1,0 1,-1 1,0 1,-1 1,0 1,-1 2,0 1,-1 1,0 0,-1 1,-1 1,0 0,-1 -2,0 -1,-1 0,-3 1,-1 2,0 1,-1 12,0 1,-1 11,0 1,-1 9,0 1,-1 20,0 1,-1 4,0 1,1 3,0 1,1 1,0 1,1 9,0 1,1 0,2 -1,1 -1,0 2,1 0,2 2,0 0,-4 1,-1 4,0 1,-1 2,0 -1,-1 0,-3 1,-1 2,0 1,-1 1,0 0,-1Z"/>
<path onmouseover="hoverPath(evt)" onmouseout="recoverPath(evt)" fill="rgb(246,246,238)" d="M  216,254l -2,0 0,1 41,0 0,-8 -1,0 -1,1 -5,0 -1,1 -5,0 -1,1 -4,0 -1,1 -5,0 -1,1 -5,0 -1,1 -4,0 -1,1Z"/>
<path onmouseover="hoverPath(evt)" onmouseout="recoverPath(evt)" fill="rgb(243,242,233)" d="M  255,85l 0,-7 -1,0 0,3 -1,1 0,2 -1,1 0,1 1,1 0,3 -1,1 -2,0 0,3 -1,1 0,2 -1,1 0,1 1,1 0,3 -1,1 -2,0 0,3 -1,1 0,2 -1,1 0,2 -1,1 0,2 -1,1 0,3 -1,1 0,2 -1,1 0,2 -1,1 0,2 -1,1 0,3 -1,1 0,1 1,1 0,3 -1,1 -2,0 0,3 -1,1 0,2 -1,1 0,2 -1,1 0,2 -1,1 0,4 2,0 1,1 0,1 1,1 0,2 -1,1 1,1 0,2 1,1 0,1 1,1 0,1 1,1 0,1 1,1 0,1 2,0 1,1 0,1 1,1 0,2 -1,1 1,1 0,1 1,1 0,2 1,1 0,1 1,1 0,1 1,1 0,1 1,1 0,1 2,0 1,1 0,1 1,1 0,2 -1,1 1,1 0,2 1,1 0,1 1,1 0,1 1,0Z"/>
<path onmouseover="hoverPath(evt)" onmouseout="recoverPath(evt)" fill="rgb(186,213,147)" d="M  0,143l 0,50 2,0 1,1 1,1 1,1 0,1 2,0 1,1 1,1 1,1 1,1 0,1 1,0 1,1 2,0 1,1 2,0 1,1 2,0 1,1 5,0 1,1 1,0 1,1 1,1 0,1 1,0 1,1 1,1 0,-7 -1,-1 0,-13 -1,-1 0,-4 1,-1 0,-14 1,-1 0,-9 1,-1 0,-3 1,-1 1,-1 1,-1 8,0 1,1 4,0 1,1 4,0 1,1 1,0 0,-1 -1,-1 0,-3 -6,0 -1,-1 -6,0 -1,-1 -4,0 -1,-1 -2,0 -2,-2 0,-3 -1,-1 -4,0 -1,-1 -1,-1 -1,0 -1,-1 -2,0 -1,-1 -1,-1 -1,-1 0,-2 -1,-1 0,-3 1,-1 0,-2 1,-1 1,0 1,-1 0,-3 -1,-1 -4,0 -1,-1 0,-8 -6,0 -1,1 -1,0 -1,1 -1,0 -1,1 -2,0 -1,1 -3,0Z"/>
<path onmouseover="hoverPath(evt)" onmouseout="recoverPath(evt)" fill="rgb(253,253,253)" d="M  39,147l 1,1 4,0 1,1 6,0 1,1 6,0 1,1 0,3 1,1 0,1 4,0 1,1 2,0 1,1 4,0 1,1 3,0 1,1 3,0 1,1 1,0 1,-1 1,0 0,-1 1,-1 0,-6 1,-1 0,-4 -1,-1 0,0 -1,-1 -1,0 -1,-1 -1,-1 0,-1 -1,-1 -1,-1 -2,0 -1,-1 -1,0 -1,-1 0,-2 -1,1 0,2 1,1 2,0 1,1 1,0 1,1 1,1 1,1 1,1 -2,-3 -1,-1 -5,-2 1,-4 4,0 1,-1 1,0 1,-1 1,0 0,-1 1,-1 1,0 2,-2 0,-2 -1,1 0,0 -1,1 0,1 1,-1 -3,2 -2,2 -2,0 -1,1 -3,0 -1,1 5,-1 5,12 0,7 -1,1 0,5 -1,1 -1,0 -42,-13 40,12 -2,0 -3,-1 -1,0 -3,-1 -2,0 -2,-1 -1,0 -3,-1 -1,-1 0,-3 -1,-1 -1,0 -1,-1 -5,0 -1,-1 -2,0 -1,-1 -7,0 -1,-1 -3,0 -1,-1 0,-2 1,-1 0,-6 1,-1 0,-5 1,-1 0,-2 1,-1 1,0 1,-1 2,0 1,-1 3,0 1,-1 1,0 1,-1 1,-1 1,0 0,-1 1,-1 1,-1 1,-1 0,-1 -1,1 -1,1 -2,2 0,0 -1,1 -1,0 -1,1 -1,0 -1,1 -3,0 -1,1 -2,0 0,1 3,-1 4,-1 2,-1 -11,4 -1,1 0,1 -1,1 0,3 -1,1 0,5 -1,1 -1,1 -4,0 -1,-1 -2,0 -1,-1 -1,0 -1,-1 -1,-1 -1,-1 0,-5 1,-1 1,0 1,-1 1,-1 0,-2 -1,-1 -1,0 0,3 -1,1 -1,1 -1,0 0,2 -1,1 0,1 1,1 0,2 1,1 1,1 1,0 -1,-1 -1,-1 56,23 -40,-12 -9,-6 4,0 1,1 1,1 0,3 1,1 1,0 -1,-1 -7,-5 9,6Z"/>
<path onmouseover="hoverPath(evt)" onmouseout="recoverPath(evt)" fill="rgb(252,252,251)" d="M  71,7l -9,0 -1,1 -11,0 -1,1 -12,0 -1,1 -2,0 0,1 2,0 1,1 0,3 -1,1 -1,0 0,1 -1,1 -1,0 -1,1 -2,0 -1,1 -1,0 -1,1 -1,0 -1,1 -1,0 0,1 -1,1 -2,0 -1,1 -12,0 -1,1 -1,0 -1,1 -1,0 -1,1 -3,0 0,2 2,0 1,-1 1,0 1,-1 1,0 1,-1 1,0 1,-1 5,0 1,1 1,0 1,-1 3,0 1,-1 1,0 49,-18 -45,16 1,-1 1,-1 1,0 1,-1 3,0 1,-1 1,0 1,-1 3,0 1,1 0,6 -1,1 -1,1 -1,1 -1,0 -1,1 -1,0 -1,1 -1,0 -1,1 -2,0 -1,1 -4,0 -1,1 -1,0 -1,1 -1,0 -1,1 -1,0 -1,1 0,1 1,0 0,-1 2,-1 1,0 1,-1 2,0 1,-1 4,0 1,-1 1,0 1,-1 1,0 1,-1 2,0 1,-1 1,0 1,-1 1,-1 0,-1 1,-1 0,-8 1,-1 0,-1 1,-1 3,0 1,-1 1,0 1,-1 0,-1 1,-1 5,0 1,-1 9,0 1,-1 11,0 1,-1 21,0 0,-1 -3,0 -1,-1 -2,0 -1,1 -20,0 -46,17 45,-16 30,0 0,1 1,1 2,0 1,1 4,0 0,-1 1,-1 -8,0 -1,-1Z"/>
<path onmouseover="hoverPath(evt)" onmouseout="recoverPath(evt)" fill="rgb(253,253,253)" d="M  102,99l 0,0 1,1 1,1 1,1 1,0 1,1 0,1 1,1 0,3 -1,1 -1,0 -1,1 -1,1 -1,0 -1,1 0,1 -1,1 0,1 -1,1 -1,1 -1,1 -1,0 0,1 -3,3 -1,0 -1,1 -1,0 -1,1 -1,1 0,1 1,0 1,-1 0,-1 -1,1 3,-2 1,0 1,-1 1,0 1,-1 1,-1 0,-1 1,-1 1,0 1,-1 1,0 0,-2 1,-1 0,-1 1,-1 1,-1 1,-1 1,0 1,-1 1,0 1,-1 1,0 1,-1 0,-1 -1,-1 -1,0 -1,-1 -1,0 -6,-5 5,3 -1,-1 -1,-1 -1,-1 -1,-1 0,-1 -1,-1 -1,-1 -1,0 -1,-1 0,-2 1,-1 1,-1 0,-1 3,-3 0,-1 1,-1 0,-1 -1,-1 0,0 -1,1 0,2 -1,1 -1,1 0,1 1,-1 1,-1 1,-3 -4,7 -1,0 -1,1 0,1 -1,1 0,1 1,1 1,0 0,-4 2,5 0,1 1,1 0,-1 2,3 1,1Z"/>
<path onmouseover="hoverPath(evt)" onmouseout="recoverPath(evt)" fill="rgb(253,253,252)" d="M  187,19l 0,4 -1,1 0,1 -1,1 0,3 1,1 0,4 -1,1 0,2 -1,1 0,2 1,1 0,5 1,1 0,1 1,1 0,3 1,1 1,1 0,3 -1,1 0,4 -1,1 0,6 -1,1 0,1 1,1 0,2 1,1 0,2 -1,1 -3,0 -1,-1 -1,-1 0,-9 1,-1 0,-5 -1,-1 0,-5 -1,-1 0,-2 -1,-1 0,-4 -1,-1 0,-4 -1,-1 0,-2 -1,-1 0,-1 -1,-1 -1,0 -1,-1 -1,-1 -2,0 -1,-1 0,-1 -1,-1 -1,0 -1,-1 -1,-1 -1,-1 -1,-1 0,-1 -1,-1 -1,-1 0,-1 -1,-1 -1,-1 -1,-1 -2,0 -1,-1 -1,-1 -1,0 -1,-1 -5,0 0,1 -1,1 -2,0 -1,1 -1,1 0,1 -1,1 -1,1 -3,0 0,1 4,0 1,-1 0,0 1,-1 0,-1 1,-1 1,-1 -1,0 -1,1 -1,2 -1,1 -5,0 0,-1 -1,-1 -1,-1 -1,-1 -1,-1 -1,0 0,1 1,1 0,0 1,1 1,1 1,0 -1,-1 -1,-1 -1,-1 15,-1 1,0 1,-1 2,0 1,1 2,0 1,1 -3,-2 0,0 34,1 -25,7 1,1 1,1 1,1 1,1 1,1 -4,-5 0,0 6,6 0,1 1,1 2,1 1,1 1,0 -1,-1 3,2 0,2 1,1 0,3 1,1 0,3 1,1 0,5 1,1 0,1 1,1 0,5 1,1 0,-1 -1,-6 -19,-29 25,-7 -6,58 1,1 1,0 -1,-1 -2,-1 0,-2 5,5 0,1 1,0 1,1 2,0 0,-7 -1,-1 0,-1 -1,-1 0,-1 1,4 0,0 -7,3 6,-58 1,44 0,0 1,-1 0,-1 1,-1 0,-7 -1,-1 0,-2 -1,-1 0,-1 -1,-1 0,-5 -1,-1 0,-5 1,-1 0,-1 1,-1 0,-2 -1,-1 0,-5 1,-1 0,-1 1,-1 0,-3 -1,-1 0,-2 -1,-1 0,-1 -1,-1 -1,-1 -1,-1 -1,0 -1,1 -4,0 -1,1 -1,0 -1,1 0,4 -1,1 -2,0 -1,-1 0,-1 -1,0 1,2 0,3 1,1 0,2 1,1 3,0 1,-1 0,-10 1,-1 1,-1 5,0 1,1 1,1 0,1 1,1 0,-1 -1,-2 -1,-1 -7,0 10,50 -1,-44Z"/>
</svg>