<svg width="256" height="256" xmlns="http://www.w3.org/2000/svg"><script> 
var tempColor;
function hoverPath(evt){
obj = evt.target;
tempColor = obj.getAttribute("fill");
obj.setAttribute("fill","red");
//alert(tempColor);
//obj.setAttribute("stroke","red");}
function recoverPath(evt){
obj = evt.target;
obj.setAttribute("fill", tempColor);
//obj.setAttribute("stroke", tempColor);
}</script><path onmouseover="hoverPath(evt)" onmouseout="recoverPath(evt)" fill="rgb(243,242,234)" d="M  134,140l 0,0 -1,1 0,1 1,1 0,7 -1,1 0,2 -1,1 0,1 1,-1 0,0 1,-1 5,0 1,1 7,0 1,1 8,0 1,1 1,0 1,-1 4,0 1,-1 3,0 1,-1 2,0 1,-1 1,0 1,-1 1,-1 1,0 1,-1 5,0 0,-1 -1,0 -1,-1 -1,-1 -1,0 -1,-1 -1,0 -1,-1 -1,0 -1,-1 -1,0 -1,-1 -1,0 -1,-1 -1,0 -1,-1 -1,0 -1,-1 -1,0 -1,-1 -1,0 -1,-1 -1,0 -1,-1 0,-1 -1,-1 -1,-1 -1,-1 0,-1 -1,-1 0,-1 -1,-1 0,-1 -1,-1 0,-9 1,-1 0,-1 1,-1 0,-1 1,-1 1,0 1,-1 3,0 0,-1 1,-1 0,-1 1,-1 1,-1 -8,0 -1,-1 -1,-1 0,-1 -1,-1 -1,-1 0,-1 -1,0 -1,1 -1,0 -1,1 -2,0 -1,1 -1,0 -1,1 0,1 1,1 0,0 1,1 0,4 -1,1 0,1 -1,1 0,1 -1,1 -1,1 -1,1 -1,1 -1,1 -1,1 -1,0 -1,1 -1,0 -1,1 -2,0 -1,1 0,5 3,0 1,1 2,0 1,1 1,1 1,0 1,1 3,0 1,1 0,4 -1,1 -7,0 -1,1Z"/>
<path onmouseover="hoverPath(evt)" onmouseout="recoverPath(evt)" fill="rgb(244,243,235)" d="M  153,27l -1,0 0,3 1,1 0,6 4,0 1,1 3,0 1,1 8,0 1,-1 17,0 1,1 2,0 1,-1 1,0 1,-1 0,-3 -1,-1 -13,0 -1,-1 -3,0 -1,-1 0,-2 -1,0 -1,-1 -10,0 -1,-1Z"/>
<path onmouseover="hoverPath(evt)" onmouseout="recoverPath(evt)" fill="rgb(243,241,233)" d="M  156,115l 0,0 -1,1 0,1 -1,1 0,7 1,1 0,1 1,1 0,1 1,1 0,1 1,1 1,1 1,1 0,1 1,0 1,1 1,0 1,1 1,0 1,1 1,0 1,1 1,0 1,1 1,0 1,1 1,0 1,1 1,0 1,1 1,0 1,1 1,0 1,1 1,1 1,0 0,-1 2,-2 0,-1 2,-2 0,-1 1,-1 0,-2 1,-1 0,-2 1,-1 0,-3 1,-1 0,-4 1,-1 0,-1 1,-1 0,-1 1,-1 5,0 0,-2 1,-1 4,0 -5,-1 -1,0 -1,1 -4,0 -1,-1 0,-2 -1,0 -1,-1 -1,0 -1,-1 -1,0 -1,-1 -1,0 -1,-1 -1,0 -1,-1 -1,0 -1,-1 -1,0 -1,1 -2,0 -1,1 -8,0 -1,-1 -1,0 -1,1 0,1 -1,1 0,1 -1,1 -3,0 -2,2Z"/>
<path onmouseover="hoverPath(evt)" onmouseout="recoverPath(evt)" fill="rgb(243,242,234)" d="M  201,120l -1,0 1,1 0,6 -1,1 0,2 -1,1 0,2 -1,1 0,2 -1,1 0,2 -1,1 0,1 -1,1 0,1 -1,1 -1,1 0,1 -1,1 -1,1 0,1 -1,1 -1,1 1,1 0,2 -1,1 1,1 0,2 1,1 0,7 -1,1 0,1 -1,1 1,1 0,1 1,1 0,2 -1,1 -2,0 -1,1 1,1 0,1 1,0 1,1 0,2 -1,1 -2,0 3,1 1,0 1,1 2,0 1,1 1,0 0,-2 1,-1 4,0 1,1 0,4 19,0 1,-1 5,0 1,-1 3,0 1,-1 1,0 0,-4 1,-1 2,0 1,1 1,0 1,1 1,0 0,-1 1,-1 1,0 0,-1 3,-3 1,0 0,-2 1,-1 1,-1 0,-1 1,-1 6,0 0,-30 -1,0 0,8 -2,0 -1,-1 0,-1 -4,0 -1,-1 -5,0 -1,-1 -1,0 -1,-1 -1,-1 -1,-1 0,-1 -1,-1 0,-6 1,-1 0,-1 1,-1 0,-1 1,-1 0,-1 1,-1 -1,-1 -1,0 0,2 -1,1 0,1 -1,1 -2,2 -2,0 -1,-1 0,-5 1,-1 0,-2 1,-1 0,-2 -2,0 -1,-1 -2,0 -1,-1 -2,0 -1,1 -6,0 -1,-1 -9,0 0,2 -1,1Z"/>
<path onmouseover="hoverPath(evt)" onmouseout="recoverPath(evt)" fill="rgb(171,198,237)" d="M  253,220l 0,1 -1,1 0,1 -1,1 0,1 -1,1 -1,1 0,1 -1,1 0,2 -1,1 0,3 -1,1 0,3 -1,1 0,3 -1,1 0,3 -1,1 0,2 -1,1 0,4 13,0 0,-38 -1,0 0,2 -1,1Z"/>
<path onmouseover="hoverPath(evt)" onmouseout="recoverPath(evt)" fill="rgb(171,198,237)" d="M  0,153l 0,102 115,0 0,-3 -1,-1 0,-1 -1,-1 -2,0 -1,-1 0,-2 -1,-1 0,-1 -1,-1 0,-4 -1,-1 0,-1 -1,-1 0,-4 -1,-1 0,-6 -1,-1 0,-7 1,-1 0,-5 1,-1 0,-2 1,-1 0,-3 1,-1 0,-2 1,-1 0,-1 1,-1 0,-2 1,-1 0,-1 1,-1 0,-2 1,-1 0,-1 1,-1 0,-2 1,-1 0,-1 1,-1 0,-2 1,-1 0,-1 1,-1 0,-2 1,-1 0,-1 1,-1 0,-1 1,-1 0,-1 1,-1 0,-1 1,-1 0,-1 1,-1 0,-1 1,-1 0,-1 2,-2 0,-1 1,-1 0,-1 2,-2 0,-2 1,-1 0,-2 1,-1 0,-5 -1,-1 0,-3 1,-1 1,-1 1,-1 7,0 0,-2 -3,0 -1,-1 -1,0 -1,-1 -1,-1 -2,0 -1,-1 -3,0 -1,-1 0,-7 1,-1 1,-1 2,0 1,-1 1,0 1,-1 1,0 1,-1 1,-1 1,-1 1,-1 1,-1 0,-1 1,-1 0,-1 1,-1 0,-2 -1,-1 0,0 -1,-1 0,-3 1,-1 1,-1 1,0 1,-1 2,0 1,-1 1,0 -2,-1 0,-2 1,-1 1,-1 0,-1 -1,0 -1,1 -7,0 -1,-1 -1,-1 -1,0 -1,-1 -7,0 -1,-1 -1,0 -1,-1 0,-7 -1,1 0,1 -1,1 1,1 0,2 -1,1 0,1 -1,1 -1,1 1,1 1,1 0,2 1,1 0,1 1,1 0,6 -1,1 -1,1 0,2 -1,1 0,1 -1,1 -1,1 0,1 -1,1 0,1 -1,1 -1,0 -1,1 -2,0 -1,1 -4,0 -1,1 -28,0 -1,-1 -2,0 -1,-1 -2,0 -1,-1 -3,0 -1,-1 -5,0 -1,-1 -2,0 -1,-1 -1,-1 -1,-1 0,-1 -1,-1 0,-1 -1,-1 -1,-1 -1,-1 0,-1 -1,-1 0,-3 1,-1 0,-1 4,-4 1,-1 2,-2 1,-1 1,0 1,-1 1,-1 0,-1 1,-1 2,-2 1,-1 1,-1 1,-1 1,-1 0,-2 1,-1 4,0 -1,-1 0,0 -1,-1 -1,0 -1,-1 -3,0 -1,-1 -3,0 -1,-1 -8,0 -1,-1 -1,-1 -1,-1 0,-1 -1,-1 -1,-1 0,-1 -1,-1 -1,-1 0,-1 -1,-1 -1,-1 -1,-1 -1,0 -1,-1 -1,0 -1,-1 -2,0 -1,-1 -1,0 -1,-1 -1,0 -1,-1 -2,0 -1,-1 -2,0 -1,-1 -2,0 -1,-1 -2,0 -1,-1 -2,0 -1,-1 -1,0 -1,-1 -1,-1 0,-3 1,-1 0,-1 1,-1 1,-1 1,-1 6,0 0,-3 -1,-1 0,0 -1,-1 -1,0 -1,-1 -1,-1 -1,-1 -1,-1 0,-4 1,-1 0,-2 1,-1 0,-2 1,-1 0,-1 1,-1 0,-1 1,-1 1,0 1,-1 2,0 1,-1 1,0 0,-1 1,-1 0,-5 -1,-1 0,0 -1,-1 -2,-2 -1,0 -1,-1 0,-2 -27,0 0,136 4,0 1,1 0,1 1,1 0,1 1,1 0,1 1,1 2,0 2,2 1,1 0,3 -1,1 -1,1 -1,0 -1,1 -1,0 -1,1 -5,0 -1,-1 -1,1Z"/>
<path onmouseover="hoverPath(evt)" onmouseout="recoverPath(evt)" fill="rgb(246,235,139)" d="M  30,1l 2,2 1,1 1,1 1,1 0,4 1,-1 3,0 1,1 0,2 1,0 1,1 1,1 1,1 1,0 1,1 1,1 2,0 1,1 0,1 1,1 1,1 2,0 1,1 0,1 1,1 1,0 1,1 1,1 1,1 1,0 1,1 1,1 2,0 1,1 0,1 1,1 1,0 1,1 1,1 1,0 1,1 1,1 1,0 1,1 1,0 1,1 1,0 1,1 1,0 1,1 1,0 1,1 1,1 1,0 1,1 1,0 1,1 2,0 1,1 1,0 1,1 1,0 1,1 1,0 1,1 2,0 1,1 1,0 1,1 1,0 1,1 1,0 1,1 2,0 1,1 3,0 1,1 3,0 1,1 2,0 1,1 2,0 1,1 3,0 1,1 2,0 1,-1 2,0 1,1 0,1 2,0 1,1 3,0 1,1 4,0 1,1 2,0 1,1 1,1 0,2 -1,1 0,1 2,-4 7,0 1,1 4,0 1,1 3,0 1,1 4,0 1,1 4,0 1,1 3,0 1,1 2,0 1,1 1,0 1,1 3,0 1,1 4,0 1,1 3,0 1,1 3,0 1,1 3,0 1,1 3,0 1,1 3,0 1,1 3,0 1,1 4,0 1,1 3,0 1,1 4,0 1,1 4,0 1,1 3,0 1,1 4,0 1,1 3,0 1,1 4,0 0,-7 -5,0 -1,-1 -2,0 -1,-1 0,-1 -4,0 -1,-1 -3,0 -1,-1 -4,0 -1,-1 -3,0 -1,-1 -4,0 -1,-1 -4,0 -1,-1 -3,0 -1,-1 -3,0 -1,-1 -3,0 -1,-1 -3,0 -1,-1 -3,0 -1,-1 -4,0 -1,-1 -4,0 -1,-1 -8,0 -1,-1 -3,0 -1,-1 -4,0 -1,-1 -4,0 -1,-1 -3,0 -1,-1 -2,0 -1,1 -4,0 -1,-1 -1,-1 0,-1 -4,0 -1,-1 -4,0 -1,-1 -2,0 -1,-1 -3,0 -1,1 -3,0 -1,-1 -2,0 -1,-1 0,-2 -1,0 -1,-1 -3,0 -1,-1 -1,0 -1,-1 -1,1 -3,0 -1,-1 -2,0 -1,-1 -2,0 -1,-1 -2,0 -1,-1 -2,0 -1,-1 -1,0 -1,-1 -1,0 -1,-1 -2,0 -1,-1 -1,0 -1,-1 -1,0 -1,-1 -1,0 -1,-1 -1,0 -1,-1 -1,0 -1,-1 -1,0 -1,-1 -1,0 -1,-1 -1,0 -1,-1 -1,0 -1,-1 -1,0 -1,-1 -1,-1 -1,0 -1,-1 -1,-1 -1,0 -1,-1 -1,-1 -1,-1 -1,0 -1,-1 -1,-1 -1,0 -1,-1 -1,-1 -1,-1 -1,-1 -1,0 -1,-1 -1,0 -1,-1 -2,0 -1,-1 0,-2 -1,-1 0,-2 -1,1 -3,0 -1,-1 0,-1 -2,0 -1,-1 0,-2 -2,-2 -1,0 -1,-1 -1,-1 -1,-1 0,-2 -7,0 -1,1 -1,-1 1,1Z"/>
<path onmouseover="hoverPath(evt)" onmouseout="recoverPath(evt)" fill="rgb(171,198,238)" d="M  109,225l 0,1 1,1 0,3 1,1 0,4 1,1 0,2 1,1 0,3 1,1 0,4 1,1 1,1 0,1 1,1 0,4 49,0 0,-2 -1,-1 0,-2 -1,-1 0,-3 -1,-1 0,-2 -1,-1 0,-3 -1,-1 0,-2 -1,-1 0,-3 -1,-1 0,-3 -1,-1 0,-1 -1,-1 0,-2 1,-1 0,-1 1,-1 0,-8 -3,0 -1,1 -2,0 -1,1 -2,0 -1,-1 -1,-1 0,-3 1,-1 0,-2 1,-1 0,-3 -1,-1 0,-5 -1,-1 0,-5 1,-1 1,0 1,-1 1,0 1,-1 3,0 1,-1 6,0 1,1 1,0 1,1 0,3 -1,1 -1,1 0,1 1,1 1,0 0,-1 1,-1 0,-1 1,-1 0,-1 1,-1 0,-1 1,-1 0,-2 1,-1 0,-1 1,-1 0,-2 -1,0 -1,1 0,2 -1,1 0,1 -1,1 -4,0 -1,-1 -9,0 -1,1 -4,0 -1,1 -2,0 -1,1 -1,1 -1,1 0,4 1,1 0,1 1,1 0,2 1,1 0,2 -1,1 0,8 -1,1 1,1 0,3 -1,1 -1,1 -2,0 -1,1 -4,0 -1,1 -4,0 -1,1 -2,0 -1,1 -2,0 -1,1 -2,0 -1,1 -11,0 -1,1Z"/>
<path onmouseover="hoverPath(evt)" onmouseout="recoverPath(evt)" fill="rgb(171,198,237)" d="M  122,37l 0,0 -1,1 0,2 -1,1 0,5 1,0 1,1 1,0 1,1 3,0 1,1 1,0 1,1 0,2 2,0 1,1 1,0 -1,-1 0,-2 1,-1 11,0 1,-1 2,0 0,-1 -4,0 -1,1 -8,0 -1,-1 -1,-1 0,-2 1,-1 1,-1 0,-1 1,-1 0,-10 1,-1 1,-1 0,-1 1,-1 0,-1 1,-1 0,-3 1,-1 0,-7 1,-1 0,-5 1,-1 0,-6 -8,0 0,5 -1,1 0,6 -1,1 0,6 -1,1 0,4 -1,1 0,4 -1,1 0,2 -1,1 -1,1 -1,0 -1,1 -1,0 -1,1 -1,0 -1,1Z"/>
<path onmouseover="hoverPath(evt)" onmouseout="recoverPath(evt)" fill="rgb(243,242,234)" d="M  145,1l 0,6 -1,1 0,5 -1,1 0,7 -1,1 0,3 -1,1 0,1 -1,1 0,1 -1,1 -1,1 0,10 -1,1 0,1 -1,1 -1,1 1,1 6,0 1,-1 5,0 0,-8 1,-1 0,-2 -1,-1 0,0 -1,-1 0,-4 1,-1 0,-4 1,-1 0,-3 1,-1 0,-2 1,-1 1,-1 16,0 1,-1 2,0 1,1 0,2 -1,1 -1,1 0,2 5,0 1,1 8,0 1,1 10,0 0,-4 1,-1 0,-12 -14,0 -1,-1 -7,0 0,4 -1,1 -2,0 -1,-1 0,-8 -24,0 -1,1Z"/>
<path onmouseover="hoverPath(evt)" onmouseout="recoverPath(evt)" fill="rgb(172,198,237)" d="M  151,92l 0,0 -1,1 0,2 -2,2 1,0 1,1 1,0 1,-1 1,-1 4,0 1,-1 4,0 1,-1 6,0 1,1 2,0 1,1 2,0 1,-1 1,0 1,-1 1,-1 8,0 1,1 9,0 1,1 1,0 1,1 1,1 1,0 1,1 5,0 1,1 9,0 1,1 3,0 1,1 3,0 1,1 3,0 1,1 2,0 1,1 1,0 1,1 0,1 1,1 1,1 0,6 1,0 1,-1 0,-3 1,-1 1,-1 1,0 1,-1 2,0 1,1 3,0 1,1 4,0 0,-6 -5,0 -1,-1 -3,0 -1,-1 -4,0 -1,-1 -3,0 -1,-1 -3,0 -1,-1 -2,0 -1,-1 -5,0 -1,-1 -4,0 -1,-1 -4,0 -1,-1 -5,0 -1,-1 -4,0 -1,-1 -5,0 -1,-1 -5,0 -1,-1 -5,0 -1,-1 -16,0 -1,1 -5,0 -1,1 -4,0 -1,1Z"/>
<path onmouseover="hoverPath(evt)" onmouseout="recoverPath(evt)" fill="rgb(244,243,237)" d="M  130,158l 0,1 -1,1 0,1 -1,1 -1,1 0,1 -1,1 0,1 -1,1 0,1 -1,1 0,1 -1,1 0,1 -1,1 0,1 -1,1 0,1 -1,1 0,2 -1,1 0,1 -1,1 0,2 -1,1 0,1 -1,1 0,2 -1,1 0,1 -1,1 0,2 -1,1 0,1 -1,1 0,2 -1,1 0,1 -1,1 0,2 -1,1 0,3 -1,1 0,2 -1,1 0,5 -1,1 0,5 1,1 0,6 1,1 0,4 1,1 0,1 1,1 0,4 1,1 0,1 1,1 0,-1 -1,-2 0,-2 -1,-3 -1,-2 0,-3 -1,-2 0,-2 -1,-5 1,-1 12,0 1,-1 2,0 1,-1 2,0 1,-1 2,0 1,-1 4,0 1,-1 4,0 1,-1 2,0 1,-1 0,-1 -1,-1 0,-2 1,-1 0,-8 1,-1 -1,-1 0,-2 -1,-1 0,-1 -1,-1 0,-6 1,-1 3,-3 2,0 1,-1 4,0 1,-1 11,0 1,1 2,0 0,-1 1,-1 0,-2 1,-1 1,-1 1,0 0,-1 -1,0 -1,-1 -1,-1 0,-15 -7,0 -1,1 -6,0 -1,-1 -19,0 -1,-1 -1,-1 0,-1 -1,0 -1,1Z"/>
<path onmouseover="hoverPath(evt)" onmouseout="recoverPath(evt)" fill="rgb(171,198,238)" d="M  152,158l 2,0 1,1 4,0 1,-1 9,0 1,1 0,15 1,1 1,0 1,-1 0,-1 1,-1 0,-1 1,-1 0,-4 -1,-1 0,-10 1,-1 1,-1 1,0 1,-1 1,-1 -2,0 -1,1 -1,0 -1,1 -1,1 -1,0 -1,1 -2,0 -1,1 -3,0 -1,1 -4,0 -1,1 -3,0 -1,-1 -2,0 -1,1 -1,-1 -4,0 -1,-1 -7,0 -1,-1 -3,0 -1,1 0,1 1,1 15,0 1,-1 1,1Z"/>
<path onmouseover="hoverPath(evt)" onmouseout="recoverPath(evt)" fill="rgb(244,243,235)" d="M  154,66l -3,0 0,1 -1,1 0,1 -1,1 -2,0 -1,-1 0,-3 1,-1 -1,-1 -2,0 -1,-1 -4,0 -1,-1 -3,0 -1,-1 -1,0 0,5 1,1 0,6 3,0 1,1 6,0 0,-2 1,-1 2,0 1,1 0,14 1,1 0,4 1,-1 5,0 1,-1 4,0 1,-1 5,0 1,-1 18,0 1,1 5,0 1,1 5,0 1,1 5,0 1,1 4,0 1,1 5,0 1,1 4,0 1,1 4,0 1,1 5,0 1,1 2,0 1,1 3,0 1,1 3,0 1,1 4,0 1,1 3,0 1,1 4,0 0,-12 -5,0 -1,-1 -3,0 -1,-1 -4,0 -1,-1 -3,0 -1,-1 -4,0 -1,-1 -4,0 -1,-1 -3,0 -1,-1 -4,0 -1,-1 -3,0 -1,-1 -3,0 -1,-1 -3,0 -1,-1 -3,0 -1,-1 -3,0 -1,-1 -3,0 -1,-1 -4,0 -1,-1 -3,0 -1,-1 -1,0 -1,-1 -2,0 -1,-1 -3,0 -1,-1 -4,0 -1,-1 -4,0 -1,-1 -3,0 -1,-1 -4,0 -1,-1Z"/>
<path onmouseover="hoverPath(evt)" onmouseout="recoverPath(evt)" fill="rgb(174,200,237)" d="M  161,42l 0,0 1,1 0,3 -1,1 -5,0 -1,1 9,0 1,1 4,0 1,1 4,0 1,1 9,0 1,1 6,0 1,1 5,0 1,1 7,0 1,1 3,0 1,1 12,0 1,1 4,0 1,1 3,0 1,1 3,0 1,1 3,0 1,1 2,0 1,1 1,-1 2,0 1,1 0,3 1,0 1,1 1,1 0,1 1,1 0,2 -1,1 0,1 -1,1 0,1 -1,1 0,1 2,0 1,1 4,0 0,-29 -2,0 -1,-1 0,-6 -1,-1 -7,0 -1,-1 0,-2 1,-1 7,0 0,-4 -6,0 -1,-1 -6,0 -1,-1 -5,0 -1,1 0,3 5,0 1,1 0,2 -1,1 -8,0 -1,-1 0,-5 -6,0 -1,-1 0,-2 1,-1 7,0 0,-5 1,-1 0,-5 -9,0 -1,-1 -6,0 -1,-1 -8,0 -1,-1 0,-11 1,-1 2,0 1,1 0,8 3,0 0,-4 1,-1 2,0 0,-7 -41,0 0,7 1,-5 9,0 1,1 14,0 1,1 0,14 -1,1 0,4 -1,1 -12,0 -1,-1 -8,0 -1,-1 -5,0 -1,-1 0,-1 -1,-1 -13,0 0,3 -1,1 0,2 10,0 1,1 10,0 1,1 1,0 1,1 0,2 3,0 1,1 13,0 1,1 1,1 0,5 -1,1 -1,1 -1,0 -1,1 -4,0 -1,-1 -15,0 -1,1 -9,0 -1,1 -3,0 -1,-1 1,-1 -1,0 -1,-1 -3,0 0,1 1,1 2,0 3,-1 1,0 0,2Z"/>
<path onmouseover="hoverPath(evt)" onmouseout="recoverPath(evt)" fill="rgb(177,201,236)" d="M  194,122l -1,1 0,1 -1,1 0,4 -1,1 0,3 -1,1 0,2 -1,1 0,2 -1,1 0,1 -1,1 -1,1 0,1 -1,1 -1,1 0,1 -1,1 0,1 1,1 1,0 1,1 0,2 2,0 -1,-1 0,-2 1,-1 1,-1 0,-1 1,-1 1,-1 0,-1 1,-1 1,-1 0,-1 1,-1 0,-1 1,-1 0,-2 1,-1 0,-2 1,-1 0,-2 1,-1 0,-2 1,-1 0,-4 -1,-1 -3,0 -1,1Z"/>
<path onmouseover="hoverPath(evt)" onmouseout="recoverPath(evt)" fill="rgb(254,254,254)" d="M  233,214l 0,0 -1,1 0,1 -1,1 0,6 -1,1 0,11 1,0 0,-10 1,-1 0,-6 1,-1 0,-1 1,-1 -1,-1 3,-1 1,0 1,-1 3,0 1,1 0,2 1,-1 1,0 1,-1 2,0 1,1 5,0 1,1 1,0 0,-3 -4,0 -1,-1 -13,0 -1,1 0,1 -3,1Z"/>
<path onmouseover="hoverPath(evt)" onmouseout="recoverPath(evt)" fill="rgb(191,209,233)" d="M  247,142l 0,0 1,1 4,0 1,1 0,-2 -1,-1 0,-2 -1,-1 0,-1 -1,-1 0,-2 -1,-1 -1,-1 -1,-1 0,-1 -1,-1 -1,-1 -1,-1 0,-1 -1,0 -1,-1 -1,-1 0,-1 -1,0 1,2 0,1 -1,1 0,1 -1,1 0,1 -1,1 0,1 -1,1 0,4 1,1 0,1 1,1 1,1 1,0 1,1Z"/>
<path onmouseover="hoverPath(evt)" onmouseout="recoverPath(evt)" fill="rgb(242,242,237)" d="M  1,138l -1,0 0,12 2,0 1,1 3,0 1,-1 1,0 1,-1 1,0 1,-1 0,-1 -1,-1 0,0 -1,-1 -2,0 -1,-1 -1,-1 0,-1 -1,-1 0,-1 -1,-1 0,-1Z"/>
<path onmouseover="hoverPath(evt)" onmouseout="recoverPath(evt)" fill="rgb(242,241,234)" d="M  39,14l -1,0 -1,1 1,1 0,1 1,1 1,1 1,1 1,1 1,1 1,1 0,1 1,1 1,1 0,1 1,1 0,2 1,1 0,2 1,1 1,1 0,2 -1,1 1,1 1,1 3,0 1,1 1,1 1,1 2,0 1,1 1,0 1,1 0,2 1,1 1,0 1,1 1,1 1,1 0,1 2,0 1,1 1,1 1,1 0,1 2,0 1,1 1,-1 2,0 1,1 2,0 1,1 0,2 2,0 1,1 2,0 1,-1 2,0 1,1 0,2 1,1 1,1 1,1 1,1 1,-1 2,0 1,1 1,1 0,2 2,0 1,1 6,0 1,-1 7,0 1,1 0,2 5,0 1,1 5,0 1,1 6,0 -4,-1 0,-6 -1,-1 0,-8 -1,1 -4,0 -1,-1 -3,0 -1,-1 -2,0 -1,-1 -2,0 -1,-1 -3,0 -1,-1 -3,0 -1,-1 -2,0 -1,-1 -1,0 -1,-1 -1,0 -1,-1 -1,0 -1,-1 -2,0 -1,-1 -1,0 -1,-1 -1,0 -1,-1 -1,0 -1,-1 -2,0 -1,-1 -1,0 -1,-1 -1,0 -1,-1 -1,-1 -1,0 -1,-1 -1,0 -1,-1 -1,0 -1,-1 -1,0 -1,-1 -1,0 -1,-1 -1,-1 -1,0 -1,-1 -1,-1 -1,0 -1,-1 -1,-1 0,-1 -2,0 -1,-1 -1,-1 -1,0 -1,-1 -1,-1 -1,-1 -1,0 -1,-1 -1,-1 0,-1 -2,0 -1,-1 -1,-1 -1,-1 0,-1 -2,0 -1,-1 -1,-1 -1,0 -1,-1 -2,-2Z"/>
<path onmouseover="hoverPath(evt)" onmouseout="recoverPath(evt)" fill="rgb(244,243,236)" d="M  61,95l 0,0 -1,1 -1,1 -1,1 -1,1 -1,1 0,1 -1,1 0,1 1,1 0,1 1,1 1,1 1,1 0,1 1,1 0,1 1,1 1,1 2,0 1,1 5,0 1,1 3,0 1,1 2,0 1,1 2,0 1,1 26,0 1,-1 4,0 1,-1 2,0 1,-1 1,0 0,-1 1,-1 0,-1 1,-1 1,-1 0,-1 1,-1 0,-2 1,-1 1,-1 0,-4 -1,-1 0,-1 -1,-1 0,-2 -1,-1 -1,-1 0,-2 1,-1 1,-1 0,-1 1,-1 -1,-1 0,-2 1,-1 0,-1 1,-1 1,-1 2,0 1,1 0,7 1,0 1,1 7,0 1,1 1,0 1,1 1,1 5,0 1,-1 1,0 0,-3 -1,-1 0,-14 -1,3 -7,0 -1,1 -8,0 -1,-1 -5,0 -1,-1 -5,0 -1,-1 0,-2 -5,0 -1,1 -8,0 -1,-1 -2,0 -1,-1 0,-2 -1,-1 -1,1 -2,0 -1,-1 -1,-1 -1,-1 -1,-1 -1,-1 -1,0 -1,-1 -3,0 -1,-1 -2,0 -1,-1 0,-2 -1,0 -1,1 -2,0 -1,-1 -1,0 -1,-1 -2,0 -1,-1 0,-1 -1,-1 -1,-1 -2,0 -1,-1 0,-1 -1,-1 -1,-1 -1,0 -1,-1 -1,-1 0,-2 -1,0 -1,-1 -2,0 -1,-1 -1,-1 -1,-1 -3,0 -1,-1 -1,-1 -1,-1 0,-2 1,-1 -1,-1 0,0 -1,-1 0,-2 -1,-1 0,-2 -1,-1 0,-1 -1,-1 -1,-1 0,-1 -1,-1 -1,-1 -1,-1 -1,-1 -1,-1 -1,-1 0,-1 -1,-1 0,-2 1,-1 1,-1 -2,0 0,1 -1,1 0,1 -1,1 -1,0 -1,1 -2,0 -1,1 -1,0 0,1 -1,1 0,1 -1,1 0,2 -1,1 0,2 -1,1 0,2 1,1 0,0 1,1 1,1 1,0 1,1 1,1 1,1 0,5 -1,1 -6,0 -1,1 -1,1 0,1 -1,1 0,1 1,1 1,0 1,1 2,0 1,1 2,0 1,1 2,0 1,1 2,0 1,1 2,0 1,1 1,0 1,1 1,0 1,1 2,0 1,1 1,0 1,1 1,0 3,3 1,1 0,1 1,1 1,1 0,1 1,1 1,1 0,1 1,1 1,1 8,0 1,1 3,0 1,1 3,0 1,1 1,0 1,1 1,1 1,1 0,2 -1,1 -4,0 0,2 -1,1 -1,1 -1,1 -3,3 -1,1 0,1 -1,1 -1,1 -1,1 -1,0 -1,1 -1,1 -24,-84 1,1 0,-1 -1,0 24,84Z"/>
<path onmouseover="hoverPath(evt)" onmouseout="recoverPath(evt)" fill="rgb(243,242,235)" d="M  62,18l 0,0 1,1 1,1 1,1 1,0 1,1 1,1 1,0 1,1 1,1 1,1 1,0 1,1 1,1 1,0 1,1 1,1 1,0 1,1 1,0 1,1 1,0 1,1 1,0 1,1 1,0 1,1 1,0 1,1 1,0 1,1 1,0 1,1 1,0 1,1 1,0 1,1 2,0 1,1 1,0 1,1 1,0 1,1 2,0 1,1 2,0 1,1 2,0 1,1 2,0 1,1 1,0 0,-7 1,-1 0,-2 1,-1 1,-1 1,-1 1,0 1,-1 1,0 1,-1 1,0 1,-1 0,-2 1,-1 0,-4 1,-1 0,-4 1,-1 0,-6 1,-1 0,-6 1,-1 0,-4 -27,0 0,4 1,1 0,0 1,1 0,2 -1,1 -1,1 -1,1 0,3 -1,1 0,2 -1,1 -2,0 -1,-1 0,-7 -5,0 -1,-1 -6,0 -1,-1 -7,0 -1,-1 -7,0 -1,-1 -1,0 -1,1 -3,0 -1,-1 0,-6 -25,0 0,1 1,1 0,0 1,1 1,0 3,3 0,2 2,0 1,1 0,1 1,0 1,-1 2,0 1,1 0,2 1,1 0,2 2,0 1,1 1,0 1,1 1,0 1,1Z"/>
<path onmouseover="hoverPath(evt)" onmouseout="recoverPath(evt)" fill="rgb(247,246,241)" d="M  102,14l 1,-1 0,-3 2,-2 1,-1 -1,-1 0,0 -1,-1 0,-5 -37,0 0,5 1,0 1,-1 3,0 1,1 7,0 1,1 7,0 1,1 6,0 1,1 5,0 1,1Z"/>
<path onmouseover="hoverPath(evt)" onmouseout="recoverPath(evt)" fill="rgb(243,242,234)" d="M  151,191l -1,0 0,3 1,1 0,5 1,1 0,5 -1,1 0,2 -1,1 0,1 1,1 1,-1 2,0 1,-1 5,0 1,1 0,10 -1,1 0,1 -1,1 1,1 0,1 1,1 0,3 1,1 0,3 1,1 0,2 1,1 0,3 1,1 0,2 1,1 0,3 1,1 0,2 1,1 0,3 72,0 0,-5 1,-1 0,-2 1,-1 0,-3 1,-1 0,-3 1,-1 0,-3 1,-1 0,-3 1,-1 0,-2 1,-1 0,-1 1,-1 1,-1 0,-1 1,-1 0,-1 1,-1 0,-1 1,-1 0,-2 -5,0 -1,-1 -1,1 -1,0 -1,1 -2,0 -1,-1 0,-2 -1,0 -1,1 -1,0 -1,1 -1,1 0,1 -1,1 0,6 -1,1 0,10 -1,1 -3,0 -1,-1 0,-13 1,-1 0,-6 1,-1 0,-1 1,-1 0,-1 1,-1 1,0 1,-1 1,0 1,-1 15,0 1,1 3,0 0,-39 -5,0 0,1 -1,1 -1,1 0,2 -1,1 -1,0 -2,2 0,1 -1,1 -1,0 0,1 -1,1 -3,0 -1,-1 -1,0 -1,-1 0,4 -1,1 -1,0 -1,1 -3,0 -1,1 -5,0 -1,1 -21,0 -1,-1 0,-4 -2,0 0,2 -1,1 -3,0 -1,-1 -2,0 -1,-1 -1,0 -1,-1 -2,0 -1,-1 0,-2 1,-1 2,0 -2,-1 0,-1 -1,-1 0,-2 1,-1 1,-1 2,0 -1,-1 0,-1 -1,-1 0,-2 1,-1 0,-1 1,-1 0,-5 -1,-1 0,-2 -1,-1 0,-1 -2,0 -1,-1 0,-2 -1,0 -1,-1 -1,0 0,1 -1,1 -1,1 -1,1 -1,0 -1,1 0,8 1,1 0,6 -1,1 0,1 -1,1 0,1 -1,1 -1,1 0,1 1,1 0,4 -1,1 0,1 -1,1 0,2 -1,1 0,1 -1,1 0,1 -1,1 0,1 -1,1 0,1 -1,1 -3,0 -1,-1 -1,-1 0,-3 1,-1 1,-1 0,-1 -1,0 -1,-1 -4,0 -1,1 -3,0 -1,1 -1,0 -1,1Z"/>
<path onmouseover="hoverPath(evt)" onmouseout="recoverPath(evt)" fill="rgb(240,239,232)" d="M  154,98l 0,0 -1,1 0,1 1,1 1,1 0,1 1,1 10,0 1,1 0,2 6,0 1,-1 2,0 1,-1 3,0 1,1 1,0 1,1 1,0 1,1 1,0 1,1 1,0 1,1 1,0 1,1 1,0 1,1 0,2 2,0 1,-1 3,0 1,1 4,0 1,1 12,0 1,1 4,0 1,-1 4,0 1,1 2,0 1,1 2,0 1,1 0,4 -1,1 0,2 -1,1 0,3 1,-1 0,0 1,-1 0,-1 1,-1 0,-2 1,-1 2,0 1,-1 3,0 1,1 0,1 1,1 1,0 1,1 0,1 1,1 1,1 1,1 0,1 1,1 1,1 1,1 0,2 1,1 0,1 2,0 0,-26 -5,0 -1,-1 -3,0 -1,-1 -1,1 -1,0 -1,1 0,3 -1,1 -1,1 -3,0 -1,-1 0,-6 -1,-1 -1,-1 0,-1 -1,0 -1,-1 -2,0 -1,-1 -3,0 -1,-1 -3,0 -1,-1 -3,0 -1,-1 -9,0 -1,-1 -5,0 -1,-1 -1,0 -1,-1 -1,-1 -1,0 -1,-1 -9,0 -1,-1 -6,0 -1,1 -1,1 -1,0 -1,1 -4,0 -1,-1 -2,0 -1,-1 -4,0 -1,1 -4,0 -1,1 -4,0 51,18 0,1 -1,1 -4,0 5,-2 -51,-18Z"/>
<path onmouseover="hoverPath(evt)" onmouseout="recoverPath(evt)" fill="rgb(244,243,236)" d="M  155,50l -2,0 0,3 1,1 0,3 1,1 2,0 1,-1 4,0 1,1 3,0 1,1 4,0 1,1 4,0 1,1 3,0 1,1 8,0 1,1 4,0 1,1 4,0 1,1 3,0 1,1 3,0 1,1 3,0 1,1 3,0 1,1 3,0 1,1 4,0 1,1 4,0 1,1 3,0 1,1 4,0 1,1 3,0 1,1 3,0 1,-1 0,-1 1,-1 0,-1 1,-1 -1,-1 0,-1 -1,-1 -1,0 -1,-1 0,-3 -1,1 -2,0 -1,-1 -2,0 -1,-1 -3,0 -1,-1 -3,0 -1,-1 -3,0 -1,-1 -4,0 -1,-1 -12,0 -1,-1 -3,0 -1,-1 -7,0 -1,-1 -5,0 -1,-1 -6,0 -1,-1 -9,0 -1,-1 -4,0 -1,-1 -4,0 -1,-1Z"/>
<path onmouseover="hoverPath(evt)" onmouseout="recoverPath(evt)" fill="rgb(248,247,243)" d="M  168,16l -15,0 -1,1 0,2 -1,1 0,3 -1,1 0,4 -1,1 0,2 2,2 0,4 -1,1 0,11 -1,1 -2,0 -1,1 -11,0 1,1 4,0 1,1 2,0 1,1 4,0 1,1 3,0 -1,-1 0,-5 1,-1 0,-1 1,-1 1,0 1,-1 5,0 0,-1 -3,0 -1,-1 -3,0 -1,-1 -1,-1 0,-3 17,-22 -17,16 -1,-1 0,-2 1,-4 0,-1 1,-3 0,-1 1,-3 14,0 -16,15 17,-16Z"/>
<path onmouseover="hoverPath(evt)" onmouseout="recoverPath(evt)" fill="rgb(182,205,237)" d="M  215,3l 0,5 -1,1 -2,0 0,4 -1,1 -5,0 -1,-1 0,-8 7,9 1,0 1,1 6,0 1,1 9,0 1,1 0,7 -1,1 0,5 -1,1 -7,0 7,1 0,5 6,0 -4,-8 7,0 1,1 6,0 1,1 6,0 1,1 0,6 -1,1 1,1 1,1 0,6 1,0 0,-47 -40,0Z"/>
</svg>