<svg width="256" height="256" xmlns="http://www.w3.org/2000/svg"><script> 
var tempColor;
function hoverPath(evt){
obj = evt.target;
tempColor = obj.getAttribute("fill");
obj.setAttribute("fill","red");
//alert(tempColor);
//obj.setAttribute("stroke","red");}
function recoverPath(evt){
obj = evt.target;
obj.setAttribute("fill", tempColor);
//obj.setAttribute("stroke", tempColor);
}</script><path onmouseover="hoverPath(evt)" onmouseout="recoverPath(evt)" fill="rgb(172,198,235)" d="M  0,41l 0,3 2,0 1,1 1,0 1,1 1,0 1,1 1,0 1,1 2,0 1,1 1,0 1,1 1,0 1,1 1,0 1,1 1,0 1,1 1,0 1,1 1,0 1,1 1,0 1,1 1,0 1,1 1,0 1,1 1,0 1,1 1,0 1,1 0,-1 1,-1 0,-1 1,-1 1,-1 -2,1 -1,0 -1,-1 -1,0 -1,-1 -1,0 -1,-1 0,-1 -2,0 -1,-1 -1,0 -1,-1 -2,0 -1,-1 -1,0 -1,-1 -1,-1 -2,0 -1,-1 -1,0 -1,-1 -1,0 -1,-1 -2,0 -1,-1 -1,-1 -2,0 -1,-1 -1,0 -1,-1 -1,0 -1,1Z"/>
<path onmouseover="hoverPath(evt)" onmouseout="recoverPath(evt)" fill="rgb(243,241,232)" d="M  0,225l 0,14 3,0 1,1 1,0 1,1 1,0 1,1 1,0 1,1 1,0 1,1 1,0 1,1 1,0 1,1 1,0 1,1 1,0 1,1 1,0 1,1 2,0 1,1 1,0 1,1 1,0 1,1 0,3 9,0 0,-6 1,-1 0,-8 1,-1 0,-4 1,-1 -3,0 -1,-1 0,-2 1,-1 1,-1 0,-1 1,-1 0,-1 1,-1 0,-3 -2,0 -1,-1 -1,0 -1,-1 -2,0 0,1 -1,1 0,1 -1,1 -2,0 -1,-1 0,-2 1,-1 0,-2 -1,-1 -2,0 -1,-1 -1,0 -1,-1 0,-2 -1,1 -2,0 -1,-1 -1,0 -1,-1 -1,1 -1,0 -1,1 -1,1 0,1 -1,1 0,1 -1,1 0,1 -1,1 -1,1 -6,0 -1,-1 -1,-1 -2,0 0,5 10,2 2,0 1,1 1,0 1,1 0,2 -1,1 -2,0 -1,-1 -1,0 -1,-1 0,-2 1,-1 -10,-2Z"/>
<path onmouseover="hoverPath(evt)" onmouseout="recoverPath(evt)" fill="rgb(225,230,229)" d="M  24,0l -24,0 0,3 3,0 1,1 2,0 1,1 2,0 1,1 1,0 1,1 8,0 1,1 26,0 0,-3 1,-1 0,-4Z"/>
<path onmouseover="hoverPath(evt)" onmouseout="recoverPath(evt)" fill="rgb(172,198,235)" d="M  37,25l 0,0 1,1 1,1 1,1 1,1 1,1 1,1 0,1 1,1 1,1 0,-1 1,-1 0,-1 1,-1 -2,0 -1,-1 -1,-1 0,-1 -1,-1 -1,-1 -1,0 -1,-1 -1,0 -1,1 -1,-1 -3,0 -1,-1 -1,0 -1,-1 -1,-1 0,-2 -1,-1 0,-2 -8,0 1,1 0,2 -1,1 -1,1 -1,0 -1,1 -2,0 -1,1 -1,0 -1,1 -1,0 -1,1 -5,0 -1,-1 -1,0 -1,-1 -2,0 0,4 3,0 1,1 1,0 1,1 1,1 1,0 1,1 1,0 1,-1 1,0 1,-1 1,-1 1,0 1,-1 1,-1 1,0 1,-1 1,-1 1,0 1,-1 5,0 1,1 8,0 1,1Z"/>
<path onmouseover="hoverPath(evt)" onmouseout="recoverPath(evt)" fill="rgb(248,238,143)" d="M  51,0l -1,0 0,5 -1,1 0,2 1,1 0,2 -1,1 0,2 -1,1 1,0 1,1 0,6 -1,1 0,3 -1,1 0,1 1,1 0,2 -1,1 0,1 -1,1 0,1 -1,1 -1,0 0,2 -1,1 0,1 -1,1 0,2 -1,1 0,2 -1,1 0,1 -1,1 1,1 0,2 -1,1 0,1 -1,1 0,1 -1,1 -1,1 0,1 -1,1 0,2 -1,1 -2,0 0,1 -1,1 0,1 -1,1 -1,0 -1,1 0,3 -1,1 0,1 -1,1 0,1 -1,1 0,1 -1,1 0,1 -1,1 0,1 -1,1 0,1 -1,1 -1,1 0,1 -1,1 0,1 -1,1 0,3 -1,1 -1,0 -1,1 -2,0 1,1 0,2 -1,1 -1,1 0,1 -1,1 -2,0 1,1 0,2 -1,1 0,1 -1,1 0,1 -1,1 -1,1 0,1 -1,1 0,1 -1,1 0,1 -1,1 -1,0 0,1 -1,1 -2,0 0,25 4,0 1,1 5,0 1,1 3,0 1,1 3,0 1,1 1,0 1,-1 3,0 1,1 1,0 1,1 0,1 2,0 1,1 3,0 1,1 2,0 1,1 2,0 1,1 3,0 1,1 2,0 1,1 0,2 1,-1 5,0 1,1 2,0 1,1 3,0 1,1 2,0 1,1 2,0 1,1 3,0 1,1 2,0 1,1 2,0 1,-1 2,0 1,1 2,0 1,1 2,0 1,1 2,0 1,1 4,0 1,1 0,2 1,0 1,1 1,-1 2,0 1,1 1,1 0,1 3,0 1,1 1,0 1,1 1,0 1,1 2,0 1,1 1,0 1,1 1,0 1,1 2,0 1,1 1,0 1,1 2,0 1,1 1,0 1,1 1,0 1,1 1,0 1,1 1,1 1,0 1,1 0,2 1,-1 5,0 1,1 1,0 1,1 1,0 1,1 1,0 1,1 2,0 1,1 1,0 1,1 1,0 1,1 2,0 1,1 1,0 1,1 1,0 1,1 1,0 1,1 2,0 1,1 1,0 1,1 1,0 1,1 2,0 1,1 1,0 1,1 1,0 1,1 1,0 1,1 2,0 1,1 1,0 1,1 1,0 1,1 1,0 1,1 2,0 1,1 4,0 1,1 0,2 3,0 1,1 1,0 1,1 2,0 1,1 1,0 1,1 1,0 1,1 2,0 1,1 1,0 1,1 1,0 1,1 2,0 1,1 1,0 1,1 1,0 1,1 2,0 1,1 1,0 1,1 1,0 1,1 1,0 1,1 1,0 1,1 2,0 1,1 1,1 2,0 1,1 1,0 1,1 2,0 1,1 1,0 1,1 1,0 1,1 1,0 1,1 1,0 1,1 2,0 0,-9 -3,0 -1,-1 -1,0 -1,-1 -1,0 -1,-1 -1,0 -1,-1 -1,0 -1,-1 -2,0 -1,-1 -1,0 -1,-1 -1,0 -1,-1 -2,0 -1,-1 -1,0 -1,-1 -1,0 -1,-1 -1,0 -1,-1 -2,0 -1,-1 -1,0 -1,-1 -1,0 -1,-1 -1,0 -1,-1 -1,0 -1,-1 -2,0 -1,-1 -1,0 -1,-1 -2,0 -1,-1 -1,0 -1,-1 -1,0 -1,-1 -1,0 -1,-1 -1,0 -1,-1 -4,0 -1,-1 -1,0 -1,-1 0,-1 -2,0 -1,-1 -1,0 -1,-1 -1,0 -1,-1 -2,0 -1,-1 -1,0 -1,-1 -1,0 -1,-1 -1,0 -1,-1 -2,0 -1,-1 -1,0 -1,-1 -1,0 -1,-1 -2,0 -1,-1 -1,0 -1,-1 -1,0 -1,-1 -2,0 -1,-1 -1,0 -1,-1 -1,0 -1,-1 -2,0 -1,-1 -1,0 -1,-1 -1,0 -1,-1 -4,0 -1,-1 -1,0 -1,-1 0,-1 -1,0 -1,-1 -1,0 -1,-1 -2,0 -1,-1 -1,0 -1,-1 -2,0 -1,-1 -1,0 -1,-1 -1,0 -1,-1 -2,0 -1,-1 -1,0 -1,-1 -1,0 -1,-1 -2,0 -1,-1 -1,0 -1,-1 -1,0 -1,-1 -2,0 -1,-1 -1,0 -1,-1 -1,-1 -1,1 -3,0 -1,-1 0,-2 -3,0 -1,-1 -2,0 -1,-1 -2,0 -1,-1 -1,1 -3,0 -1,-1 -3,0 -1,-1 0,-2 -4,0 -1,-1 -2,0 -1,-1 -2,0 -1,-1 -3,0 -1,-1 -2,0 -1,-1 -3,0 -1,-1 -2,0 -1,-1 -2,0 -1,-1 -3,0 -1,-1 -2,0 -1,1 -3,0 -1,-1 -1,-1 0,-3 -1,1 -3,0 -1,-1 -3,0 -1,-1 -2,0 -1,-1 -3,0 -1,-1 -2,0 -1,-1 -2,0 -1,-1 0,-3 1,-1 0,-1 1,-1 0,-2 -1,-1 0,-1 -1,-1 -1,0 -1,-1 -2,0 -1,-1 -1,-1 -1,-1 0,-4 1,-1 0,-1 1,-1 1,0 0,-1 1,-1 0,-1 1,-1 1,-1 0,-1 1,-1 0,-1 1,-1 0,-1 1,-1 1,-1 0,-1 1,-1 0,-1 1,-1 0,-1 1,-1 0,-3 1,-1 0,-3 1,-1 0,-1 1,-1 0,-1 1,-1 0,-1 1,-1 1,-1 0,-1 1,-1 0,-1 1,-1 0,-1 1,-1 0,-1 1,-1 0,-1 1,-1 0,-1 1,-1 1,-1 0,-1 1,-1 0,-1 1,-1 0,-4 1,-1 0,-2 1,-1 2,0 -1,-1 0,-2 1,-1 0,-1 1,-1 2,0 0,-1 1,-1 0,-2 1,-1 0,-2 1,-1 0,-1 1,-1 0,-1 -1,-1 0,-2 1,-1 0,-1 1,-1 1,-1 1,0 0,-2 1,-1 0,-2 1,-1 0,-3 1,-1 0,-3 1,-1 0,-1 1,-1 4,0 1,1 2,0 1,1 2,0 1,1 1,0 1,1 1,0 1,1 0,2 3,0 1,1 1,0 1,-1 4,0 1,1 1,0 1,1 1,1 3,0 1,1 1,0 1,1 7,0 1,1 0,1 3,0 1,1 2,0 1,1 3,0 1,1 1,0 1,1 2,0 1,1 2,0 1,1 1,0 1,1 1,0 1,1 2,0 1,1 2,0 1,1 1,1 0,1 1,-1 2,0 1,1 2,0 1,1 2,0 1,1 2,0 1,1 2,0 1,1 2,0 1,1 1,0 1,1 2,0 1,1 2,0 1,1 2,0 1,1 2,0 1,1 3,0 1,1 2,0 1,1 2,0 1,1 2,0 1,1 2,0 1,1 2,0 1,1 2,0 1,1 2,0 1,1 2,0 1,1 2,0 1,1 2,0 1,1 2,0 1,1 3,0 1,1 2,0 1,1 2,0 1,1 1,0 1,1 2,0 1,1 2,0 1,1 1,0 1,1 0,0 1,-1 3,0 1,1 0,1 2,0 1,1 3,0 1,1 1,0 1,-1 3,0 1,1 0,2 7,0 1,1 1,0 1,1 4,0 0,-7 -4,0 -1,-1 -2,0 -1,-1 -2,0 -1,-1 -2,0 -1,-1 -2,0 -1,-1 -2,0 -1,-1 -1,0 -1,-1 0,-1 -1,2 -4,0 -1,-1 -1,0 -1,-1 0,-1 -3,0 -1,-1 -2,0 -1,-1 -2,0 -1,-1 -2,0 -1,-1 -2,0 -1,-1 -2,0 -1,-1 -2,0 -1,-1 -2,0 -1,-1 -2,0 -1,-1 -2,0 -1,-1 -2,0 -1,-1 -2,0 -1,-1 -1,-1 0,-4 -1,2 0,2 -1,1 -2,0 -1,-1 0,-1 -2,0 -1,-1 -2,0 -1,-1 -2,0 -1,-1 -2,0 -1,-1 -2,0 -1,-1 -6,0 -1,-1 -2,0 -1,-1 -3,0 -1,-1 -1,0 -1,-1 -2,0 -1,-1 -3,0 -1,-1 -3,0 -1,-1 -2,0 -1,-1 0,-2 -1,0 -1,-1 -7,0 -1,-1 -1,0 -1,-1 0,-1 -2,0 -1,-1 -2,0 -1,-1 -2,0 -1,-1 -1,0 -1,-1 -3,0 -1,-1 -2,0 -1,-1 -2,0 -1,-1 -2,0 -1,-1 -2,0 -1,-1 -2,0 -1,-1 -2,0 -1,-1 -2,0 -1,-1 -2,0 -1,-1 -2,0 -1,-1 -2,0 -1,-1 -2,0 -1,-1 -2,0 -1,-1 -2,0 -1,-1 -2,0 -1,-1 -1,0 -1,-1 -1,-1 0,-2 1,-1 0,-4 -1,-1 0,-2 -14,0 22,27 -1,1 1,0 0,-1 -22,-27Z"/>
<path onmouseover="hoverPath(evt)" onmouseout="recoverPath(evt)" fill="rgb(172,198,236)" d="M  145,97l 0,1 -1,1 -1,1 -1,1 1,1 1,0 1,1 0,1 3,0 1,1 1,0 1,1 1,0 1,1 1,1 2,0 1,1 1,0 1,1 1,0 1,1 1,1 1,1 3,0 1,1 1,0 1,1 1,0 1,1 0,1 1,1 3,0 1,1 1,0 1,1 1,0 2,2 3,0 1,1 0,1 1,1 1,-1 2,0 1,1 0,1 3,0 1,1 1,0 1,1 2,0 1,1 0,2 1,0 1,-1 2,0 1,1 0,1 1,1 1,-1 2,0 1,1 1,0 1,1 2,0 1,1 1,1 2,0 1,1 2,0 1,1 1,0 1,1 1,0 1,1 0,1 4,0 1,1 1,0 1,1 2,0 1,1 1,0 1,1 1,0 1,1 2,0 1,1 1,0 1,1 0,1 4,0 1,1 1,0 1,1 2,0 1,1 1,0 0,-4 -4,0 -1,-1 -1,0 -1,-1 -2,0 -1,-1 -1,0 -1,-1 -1,0 -1,-1 -2,0 -1,-1 -1,0 -1,-1 -2,0 -1,-1 -1,0 -1,-1 -2,0 -1,-1 -1,0 -1,-1 -2,0 -1,-1 -1,0 -1,-1 -2,0 -1,-1 -1,0 -1,-1 -1,0 -1,-1 -2,0 -1,-1 -1,0 -1,-1 -1,0 -1,-1 -1,0 -1,-1 -1,0 -1,-1 -1,0 -1,-1 -1,0 -1,-1 -1,-1 -1,-1 -1,-1 -1,-1 -1,-1 -1,0 -1,-1 -1,0 -1,-1 -1,0 -1,-1 -2,0 -1,-1 -1,0 -1,-1 -2,0 -1,-1 -2,0 -1,-1 -1,0 -1,-1 -1,0 -1,-1 -1,0 -1,-1 -1,0 -1,-1 -1,0 -1,-1 -1,0 -1,-1 -1,0 -1,-1 -1,0 -1,-1 -1,0 -1,-1 -1,0 -1,-1 -1,0 -1,-1 -1,-1 -1,-1 -1,0 -1,-1 -1,0 -1,-1 -1,-1 -1,0 -1,-1 -1,1Z"/>
<path onmouseover="hoverPath(evt)" onmouseout="recoverPath(evt)" fill="rgb(244,243,236)" d="M  177,0l -1,0 0,3 1,1 0,3 -1,1 -1,1 1,0 1,1 3,0 1,1 0,2 1,-1 1,0 1,-1 1,0 2,-2 -1,-1 0,-2 -1,-1 0,-3 1,-1 0,-1Z"/>
<path onmouseover="hoverPath(evt)" onmouseout="recoverPath(evt)" fill="rgb(243,242,234)" d="M  247,25l -1,1 0,1 1,1 0,3 -1,1 -2,0 0,2 -1,1 0,2 -1,1 0,2 -1,1 0,2 -1,1 0,2 -1,1 0,2 -1,1 0,2 -1,1 0,2 -1,1 0,2 -1,1 0,2 -1,1 0,1 1,1 0,1 1,0 1,1 2,0 1,1 2,0 1,1 2,0 1,1 2,0 1,1 2,0 1,1 3,0 0,-47 -3,0 -1,-1 -4,0Z"/>
<path onmouseover="hoverPath(evt)" onmouseout="recoverPath(evt)" fill="rgb(245,244,237)" d="M  31,18l 0,2 1,1 1,0 1,1 6,0 1,1 1,0 2,2 1,1 0,1 1,1 0,-2 1,-1 0,-3 1,-1 0,-4 -16,0 -1,1Z"/>
<path onmouseover="hoverPath(evt)" onmouseout="recoverPath(evt)" fill="rgb(243,242,234)" d="M  107,210l -1,1 -1,1 -2,0 -1,1 0,1 -1,1 0,1 -1,1 0,1 -1,1 -2,0 1,1 0,4 1,0 1,1 0,2 1,1 2,0 1,1 1,0 1,1 2,0 1,1 1,0 1,-1 2,0 1,1 0,2 2,0 1,1 5,0 1,1 3,0 1,1 1,1 0,-1 1,-1 1,0 1,-1 4,0 0,-2 1,-1 2,0 1,1 1,0 0,-2 1,-1 1,0 1,-1 1,0 1,-1 2,0 1,1 1,-1 5,0 1,1 1,0 1,-1 4,0 0,-1 1,-1 2,0 1,-1 0,-1 1,-1 0,-1 -1,-1 0,-1 -1,-1 0,-1 -2,0 -1,-1 -1,-1 -1,0 -1,-1 -1,0 -1,-1 0,-2 -1,1 -2,0 -1,-1 -2,0 -1,-1 -1,0 -1,-1 -1,0 -1,-1 -2,0 -1,-1 -1,0 -1,-1 -1,0 -1,-1 -2,0 -1,-1 -1,0 -1,-1 -2,0 -1,-1 -1,-1 -4,0 -1,1 -1,1 -2,0 -1,1 -4,0 0,2 -1,1 -7,0 -1,-1 -1,0 0,1 1,1Z"/>
<path onmouseover="hoverPath(evt)" onmouseout="recoverPath(evt)" fill="rgb(236,238,234)" d="M  166,90l 0,1 -1,1 0,1 -1,1 0,1 -1,1 0,1 -1,1 0,2 1,0 1,1 2,0 1,1 2,0 1,1 1,0 1,1 2,0 0,-1 1,-1 0,-1 1,-1 0,-1 1,-1 0,-1 1,-1 0,-2 -1,-1 -2,0 -1,-1 -2,0 -1,-1 -1,0 -1,-1Z"/>
<path onmouseover="hoverPath(evt)" onmouseout="recoverPath(evt)" fill="rgb(236,236,231)" d="M  47,59l -1,1 1,1 1,0 1,1 1,0 1,1 1,1 1,0 1,1 1,0 1,1 1,1 1,0 1,1 1,0 1,1 1,0 1,1 1,1 1,0 1,1 1,0 1,1 1,0 1,1 1,1 1,0 1,1 1,0 1,1 1,0 1,1 1,1 1,0 1,1 1,0 1,1 1,0 1,1 1,1 1,0 1,1 1,0 1,1 1,0 1,1 1,0 1,1 1,1 1,0 1,1 1,0 1,1 1,0 1,1 1,1 1,0 1,1 1,0 1,1 1,0 1,1 1,0 1,1 1,1 1,0 1,1 1,0 1,1 1,0 1,1 1,0 1,1 2,0 1,1 1,0 1,1 1,0 1,1 1,0 1,1 1,0 1,1 2,0 1,1 1,0 1,1 1,0 1,1 1,0 1,1 1,0 1,1 2,0 1,1 4,0 1,1 1,0 1,1 1,0 1,1 2,0 1,1 1,0 1,1 2,0 1,1 1,0 1,1 1,0 1,1 1,0 1,1 2,0 1,1 1,0 1,1 1,0 1,1 2,0 1,1 1,0 1,1 1,0 1,1 2,0 1,1 1,0 1,1 2,0 1,1 1,0 1,1 2,0 1,1 1,0 1,1 3,0 1,1 1,1 1,0 1,1 2,0 1,1 1,0 1,1 2,0 1,1 1,0 1,1 3,0 1,1 1,1 1,0 1,1 2,0 1,1 1,0 1,1 3,0 1,1 1,1 2,0 1,1 2,0 1,1 1,0 1,1 2,0 1,1 1,0 1,1 2,0 1,1 2,0 1,1 1,0 1,1 1,0 1,1 1,0 1,1 1,0 0,-3 -2,0 -1,-1 -2,0 -1,-1 -1,0 -1,-1 -4,0 -1,-1 0,-1 -1,0 -1,-1 -2,0 -1,-1 -1,0 -1,-1 -1,0 -1,-1 -2,0 -1,-1 -1,0 -1,-1 -4,0 -1,-1 0,-1 -1,0 -1,-1 -1,0 -1,-1 -2,0 -1,-1 -2,0 -1,-1 -1,-1 -2,0 -1,-1 -1,0 -1,-1 -1,1 -2,0 -1,-1 -1,-1 -3,0 -152,-74 150,73 0,-2 -2,0 -1,-1 -1,0 -1,-1 -3,0 -1,-1 0,-1 -1,1 -2,0 -1,-1 -1,-1 0,-1 -3,0 -1,-1 -1,-1 -1,0 -1,-1 -1,0 -1,-1 -3,0 -1,-1 -1,-1 0,-1 -1,0 -1,-1 -1,0 -1,-1 -3,0 -1,-1 -1,-1 -1,-1 -1,0 -1,-1 -1,0 -1,-1 -2,0 -1,-1 -1,-1 -1,0 -1,-1 -1,0 -1,-1 -3,0 -1,-1 0,-1 -1,0 -1,-1 -1,1 -1,0 -1,1 -2,0 -1,-1 -1,0 -1,-1 -1,0 -1,-1 -2,0 -1,-1 -1,0 -1,-1 -1,-1 -2,0 -1,-1 -1,0 -1,-1 -1,0 -1,-1 -1,0 -1,-1 -1,0 -1,-1 -1,0 -1,-1 -1,0 -1,-1 -1,0 -1,-1 -1,-1 -1,0 -1,-1 -1,0 -1,-1 -1,-1 -1,0 -1,-1 -1,0 -1,-1 -1,0 -1,-1 -1,-1 -1,0 -1,-1 -1,0 -1,-1 0,-3 -1,-1 -1,0 -1,-1 -1,0 -1,-1 -1,0 -1,-1 -2,0 -1,-1 -1,-1 -1,0 -1,-1 -1,0 -1,-1 -2,0 -1,-1 0,-2 1,-1 1,0 1,-1 -1,0 -1,-1 -1,0 -1,-1 -1,0 -1,-1 -1,0 -1,-1 -1,0 -1,-1 -1,0 -1,-1 -1,0 -1,-1 -1,0 -1,-1 -1,0 -1,-1 -1,0 -1,-1 -1,0 -1,-1 0,-7 1,-1 0,-2 1,-1 0,-1 -1,-1 -1,0 0,2 -1,1 0,1 -1,1 0,2 -1,1 0,2 -1,1 0,1 -1,1 -2,0 0,1 -1,1 1,1 0,3 150,72 -150,-73Z"/>
<path onmouseover="hoverPath(evt)" onmouseout="recoverPath(evt)" fill="rgb(243,241,232)" d="M  49,138l 0,0 -1,1 0,1 -1,1 -1,1 -1,1 -1,0 0,2 1,1 1,0 1,-1 4,0 1,1 3,0 1,1 2,0 1,1 2,0 1,1 3,0 1,1 2,0 1,1 3,0 1,1 2,0 1,1 2,0 1,1 4,0 0,-1 1,-1 0,-1 1,-1 0,-1 1,-1 0,-1 1,-1 0,-1 1,-1 1,-1 0,-1 1,-1 0,-1 1,-1 0,-1 1,-1 1,-1 0,-1 1,-1 0,-1 1,-1 0,-1 1,-1 0,-1 1,-1 1,-1 0,-1 1,-1 0,-1 1,-1 0,-1 1,-1 0,-1 1,-1 0,-4 -1,-1 0,0 -1,-1 -1,0 -1,-1 -1,0 -1,-1 -1,0 -1,-1 -2,0 -1,-1 -1,0 -1,-1 -2,0 -1,-1 -1,0 -1,-1 -2,0 -1,-1 -2,0 -1,-1 -1,1 -1,1 -5,0 -1,-1 -1,0 -1,-1 -1,1 1,0 1,1 1,0 1,1 1,0 1,1 0,2 -1,1 -2,0 -1,-1 -3,0 0,3 -1,1 -1,1 0,1 -1,1 0,1 -1,1 -1,1 0,1 -1,1 0,1 -1,1 -2,0 0,1 1,1 0,4 3,0 1,1 0,2 -1,1 -4,0 -1,1 -3,0 -1,1 -1,1 -1,0 -1,1 27,-27 1,-1 2,0 1,1 0,2 -1,1 -2,0 -1,-1 0,-2 -27,27Z"/>
<path onmouseover="hoverPath(evt)" onmouseout="recoverPath(evt)" fill="rgb(235,235,217)" d="M  64,219l 0,0 -1,1 0,1 -1,1 0,1 -1,1 0,1 -1,1 0,1 -1,1 0,1 -1,1 0,1 -1,1 0,1 -1,1 -1,1 0,1 -1,1 0,1 -1,1 0,1 -1,1 0,1 -1,1 0,1 -1,1 1,1 0,1 1,0 1,1 1,0 1,-1 1,-1 0,-1 1,-1 0,-1 1,-1 0,-1 1,-1 0,-1 1,-1 0,-1 1,-1 0,-1 1,-1 0,-1 1,-1 0,-1 2,-2 0,-1 1,-1 0,-1 1,-1 0,-1 1,-1 0,-1 1,-1 0,-1 1,-1 0,-1 -1,-1 -1,0 -1,-1 -1,0 -1,1 -1,1Z"/>
<path onmouseover="hoverPath(evt)" onmouseout="recoverPath(evt)" fill="rgb(244,243,235)" d="M  70,99l 0,1 2,0 1,-1 0,-1 1,-1 1,-1 5,0 1,1 1,0 1,1 2,0 1,1 2,0 1,1 2,0 1,1 1,0 1,1 2,0 1,1 1,0 1,1 2,0 1,1 1,0 1,1 1,0 1,1 1,1 1,1 1,1 0,2 1,1 0,3 1,1 0,6 -1,1 0,2 -1,1 0,1 -1,1 0,1 -1,1 0,1 -1,1 -1,1 0,1 -1,1 0,1 -1,1 -1,1 0,1 -1,1 0,1 -1,1 0,1 -1,1 -1,1 0,1 -1,1 0,1 -1,1 -1,1 0,1 -1,1 0,1 -1,1 0,1 -1,1 1,1 2,0 1,1 2,0 1,1 3,0 1,1 0,2 1,0 1,-1 2,0 1,1 1,1 1,0 1,1 2,0 1,1 1,0 1,1 1,0 1,1 2,0 1,1 1,0 1,1 1,0 1,1 2,0 1,1 1,0 1,1 1,0 1,1 2,0 1,1 1,0 1,1 2,0 1,1 1,0 1,1 1,0 1,1 0,1 1,0 1,1 2,0 0,-1 1,-1 0,-1 1,-1 0,-1 1,-1 0,-1 1,-1 0,-1 1,-1 0,-1 1,-1 0,-1 1,-1 0,-1 1,-1 0,-1 1,-1 0,-1 1,-1 0,-1 1,-1 1,-1 0,-1 1,-1 0,-1 1,-1 0,-1 1,-1 0,-1 1,-1 0,-1 1,-1 1,-1 2,0 1,-1 0,-1 1,-1 1,0 -1,-1 0,-1 -1,-1 -1,0 -1,-1 -1,0 -1,1 -4,0 -1,-1 -2,0 -1,-1 -3,0 -1,-1 -2,0 -1,-1 -1,0 -1,-1 -1,0 -1,-1 -2,0 -1,-1 -1,0 -1,-1 0,-3 1,-1 0,-1 1,-1 0,-1 1,-1 0,-1 1,-1 5,0 1,1 2,0 1,1 1,0 -8,-3 -1,0 -1,-1 -1,0 -1,-1 -1,0 -1,-1 -1,0 -1,-1 -2,0 -1,-1 -1,0 -1,-1 -1,0 -1,-1 -1,0 -1,-1 -1,0 -1,-1 -1,0 -1,-1 -2,0 -1,-1 -1,0 -1,-1 -1,0 -1,-1 -1,0 -1,-1 -1,0 -1,-1 -2,0 -1,-1 -1,0 -1,-1 -1,0 -1,-1 -2,0 -1,-1 -1,0 -1,-1 -1,0 -1,-1 -2,0 -1,-1 -1,-1 -1,0 -1,-1 -1,0 -1,-1 -1,0 -1,-1 -1,0 -1,-1 -1,0 -1,-1 -1,0 -1,-1 -1,0 -1,-1 -1,-1 -1,0 -1,-1 -1,0 -1,-1 -1,0 -1,-1 -2,0 -1,1 0,4 -1,1 0,3 -1,1 -1,1Z"/>
<path onmouseover="hoverPath(evt)" onmouseout="recoverPath(evt)" fill="rgb(236,238,234)" d="M  134,51l -1,0 0,1 -1,1 0,1 -1,1 0,1 -1,1 0,1 -1,1 0,1 -1,1 0,1 -1,1 0,1 -1,1 0,2 -1,1 0,1 -1,1 0,1 -1,1 0,1 -1,1 0,1 -1,1 0,1 1,1 1,0 1,1 1,1 1,0 1,1 1,1 1,0 1,1 1,0 0,-1 1,-1 0,-1 1,-1 0,-1 1,-1 0,-1 1,-1 0,-2 1,-1 0,-1 1,-1 0,-1 1,-1 0,-1 1,-1 0,-2 1,-1 0,-1 1,-1 0,-1 1,-1 0,-2 1,-1 0,-1 1,-1 -1,-1 -2,0 -1,-1 -2,0 -1,-1Z"/>
<path onmouseover="hoverPath(evt)" onmouseout="recoverPath(evt)" fill="rgb(244,243,235)" d="M  171,147l -1,1 -1,1 -2,0 -1,1 0,1 -1,1 0,1 -1,1 0,1 -1,1 0,1 -1,1 0,1 -1,1 -1,1 0,1 -1,1 0,1 -1,1 0,1 -1,1 0,1 -1,1 0,1 -1,1 0,1 -1,1 0,1 -1,1 0,1 -1,1 0,1 -1,1 0,1 -1,1 1,1 1,0 1,1 1,0 1,1 2,0 1,1 1,0 1,1 1,0 1,1 2,0 1,1 1,0 1,1 1,0 1,1 2,0 1,1 1,0 1,1 1,0 1,1 2,0 1,1 1,0 1,1 1,0 1,1 1,0 1,1 2,0 1,1 1,0 1,1 1,0 1,1 2,0 1,1 0,1 1,0 1,1 4,0 1,1 1,0 1,1 1,0 1,1 1,0 1,1 1,0 1,1 2,0 1,1 1,0 1,1 2,0 1,1 1,0 1,1 1,0 1,1 1,0 1,1 1,0 1,1 2,0 1,1 1,0 1,1 1,0 1,1 1,0 1,1 2,0 1,1 1,0 1,1 1,0 1,1 2,0 1,1 1,0 1,1 1,0 1,1 1,0 1,1 1,0 1,1 2,0 0,-48 -3,0 -1,1 -4,0 -1,-1 -1,0 -1,-1 -2,0 -1,-1 -1,-1 0,-3 -1,-1 -2,0 -1,-1 -1,0 -1,-1 -2,0 -1,-1 -1,-1 0,-3 1,-1 -2,3 -4,0 -1,-1 -2,0 -1,-1 -2,0 -1,-1 -1,0 -1,-1 -2,0 -1,-1 -1,0 -1,-1 -2,0 -1,-1 -1,0 -1,-1 -2,0 -1,-1 -1,0 -1,-1 -2,0 -1,-1 -1,0 -1,-1 -2,0 -1,-1 -2,0 -1,-1 -1,0 -1,-1 -1,0 -1,-1 -1,-1 0,-1 -1,-1 0,-2 -1,2 0,0 -1,1 -3,0 -1,-1 -2,0 -1,-1 -2,0 -1,-1 -1,1Z"/>
<path onmouseover="hoverPath(evt)" onmouseout="recoverPath(evt)" fill="rgb(239,240,235)" d="M  189,36l 0,7 -1,1 0,1 1,1 0,4 1,1 2,0 1,1 2,0 1,1 2,0 1,1 2,0 1,1 2,0 1,1 2,0 1,1 2,0 1,1 2,0 1,1 2,0 1,1 2,0 1,1 2,0 1,1 3,0 0,-2 1,-1 0,-2 1,-1 0,-2 1,-1 0,-2 1,-1 0,-2 1,-1 0,-2 1,-1 0,-2 1,-1 0,-1 1,-1 0,-2 1,-1 0,-2 1,-1 0,-2 1,-1 0,-2 1,-1 0,-2 1,-1 0,-2 -1,-1 0,-2 -1,-1 0,-5 1,-1 0,-2 1,-1 1,-1 1,0 1,-1 1,0 0,-1 1,-1 1,0 0,-2 1,-1 0,-2 -47,0 0,4 -1,1 0,6 -1,1 0,3 -1,1 -1,1 -7,0 -1,-1 -1,1 0,0 -1,1 0,1 -1,1 -1,0 -1,1 -1,0 0,1 -1,1 0,2 -1,1 0,1 -1,1 -1,1 -1,0 0,2 3,0 1,1 0,2 3,0 1,1 4,0 1,1Z"/>
<path onmouseover="hoverPath(evt)" onmouseout="recoverPath(evt)" fill="rgb(254,254,254)" d="M  225,75l 0,0 -1,1 0,2 -1,1 0,3 -1,1 0,2 -1,1 0,3 -1,1 0,2 -1,1 0,3 -1,1 0,2 -1,1 0,2 -1,1 0,2 -1,1 0,2 -1,1 0,2 -1,1 0,5 1,0 1,1 1,0 1,1 1,0 1,1 2,0 1,1 2,0 1,1 1,0 1,1 2,0 1,1 1,0 1,1 1,0 1,1 2,0 1,1 1,0 1,1 2,0 1,1 1,0 1,1 2,0 1,1 1,0 1,1 1,0 1,1 2,0 1,1 1,0 0,-2 -3,0 -1,-1 -1,0 -1,-1 -2,0 -1,-1 -1,0 -1,-1 -2,0 -1,-1 -1,0 -1,-1 -2,0 -1,-1 -1,0 -1,-1 -1,0 -1,-1 -2,0 -1,-1 -1,0 -1,-1 -2,0 -1,-1 -1,0 -1,-1 -2,0 -1,-1 -2,0 -1,-1 -1,-1 -1,-1 0,-2 1,-1 0,-2 1,-1 0,-2 1,-1 0,-2 1,-1 0,-3 1,-1 0,-2 1,-1 0,-2 1,-1 0,-3 1,-1 0,-2 1,-1 0,-3 1,-1 0,-2 1,-1 0,-4 1,-1Z"/>
<path onmouseover="hoverPath(evt)" onmouseout="recoverPath(evt)" fill="rgb(237,236,219)" d="M  78,204l 0,-1 1,-1 1,-1 0,-1 1,-1 0,-1 1,-1 0,-1 1,-1 0,-1 1,-1 0,-1 1,-1 0,-1 1,-1 0,-1 1,-1 1,-1 0,-1 1,-1 0,-1 1,-1 0,-1 1,-1 0,-1 1,-1 0,-1 1,-1 0,-1 1,-1 1,-1 0,-1 -1,-1 -1,0 -1,-1 0,-2 -3,0 0,2 -1,1 -1,1 0,1 -1,1 0,1 -1,1 0,1 -1,1 0,1 -1,1 0,1 -1,1 0,1 -1,1 0,1 -1,1 0,1 -1,1 0,1 -1,1 0,1 -1,1 0,1 -1,1 0,1 -1,1 0,1 -1,1 0,1 -1,1 0,1 -1,1 0,1 -1,1 0,1 -1,1 0,1 -1,1 0,2 -1,1 1,0 1,1 2,0 1,1 1,-1 0,-1 1,-1 0,-1 1,-1 0,-1 1,-1 0,-1 1,-1Z"/>
<path onmouseover="hoverPath(evt)" onmouseout="recoverPath(evt)" fill="rgb(253,253,253)" d="M  1,5l -1,0 0,4 3,0 1,1 1,0 1,1 2,0 1,1 4,0 1,1 5,0 1,1 8,0 1,-1 18,0 0,-2 1,-1 -28,0 -1,-1 -8,0 -1,-1 -1,0 -1,-1 -2,0 -1,-1 -2,0 -1,-1Z"/>
<path onmouseover="hoverPath(evt)" onmouseout="recoverPath(evt)" fill="rgb(243,242,233)" d="M  42,69l 0,0 -1,1 0,1 -1,1 -1,1 0,1 -1,1 0,1 -1,1 0,1 -1,1 0,1 -1,1 0,1 -1,1 0,1 -1,1 -1,1 0,1 -1,1 0,1 -1,1 0,1 -1,1 0,3 -1,1 0,3 -1,1 0,1 -1,1 0,1 -1,1 0,1 -1,1 -1,1 0,1 -1,1 0,1 -1,1 0,1 -2,2 0,1 -1,1 0,1 -1,1 -1,0 0,1 -1,1 0,2 1,1 0,0 1,1 2,0 1,1 1,0 1,1 1,1 0,1 1,1 0,4 -1,1 0,1 -1,1 0,1 2,0 1,1 2,0 1,1 3,0 1,1 2,0 1,1 3,0 1,1 1,0 1,-1 0,-1 1,-1 1,-1 1,-1 1,-1 1,-1 1,-1 -1,-1 0,-1 -1,-1 -1,0 -1,-1 -1,0 -1,-1 -2,0 -1,-1 -1,0 -1,-1 0,-2 -1,0 -1,1 -3,0 -1,-1 -1,-1 -1,-1 0,-3 1,-1 0,-1 1,-1 0,-1 1,-1 1,-1 0,-1 1,-1 0,-1 1,-1 0,-2 1,-1 1,-1 0,-1 1,-1 2,0 0,-1 1,-1 0,-1 -1,-1 0,-2 1,-1 0,-1 1,-1 1,-1 4,0 1,1 1,0 1,1 1,0 1,1 1,0 1,1 1,0 1,1 0,2 1,1 1,0 1,1 1,0 1,1 1,0 1,1 1,-1 2,0 1,-1 -1,0 -1,-1 0,-4 -1,-1 0,-4 1,-1 0,-4 1,-1 0,-1 1,-1 1,-1 0,-2 -1,0 -1,-1 -1,-1 -1,0 -1,-1 -1,-1 -1,0 -1,-1 -1,0 -1,-1 -1,-1 -1,0 -1,-1 -1,0 -1,-1 -1,0 -1,-1 -1,0 -1,-1 -1,-1 -1,0 -1,-1 -1,0 -1,-1 -1,1Z"/>
<path onmouseover="hoverPath(evt)" onmouseout="recoverPath(evt)" fill="rgb(190,209,230)" d="M  52,213l 0,1 -1,1 -1,1 0,1 -1,1 0,1 -1,1 -1,1 0,1 -1,1 -2,0 -1,-1 0,4 -1,1 0,1 -1,1 0,1 -1,1 -1,1 3,0 1,1 0,2 -1,1 0,4 -1,1 0,8 -1,1 0,5 11,0 0,-2 -1,-1 -1,0 -1,-1 -1,0 -1,-1 0,-1 -1,-1 -1,-1 0,-3 1,-1 0,-1 1,-1 1,-1 0,-1 1,-1 0,-1 1,-1 0,-1 1,-1 0,-1 1,-1 0,-1 1,-1 0,-1 1,-1 0,-1 1,-1 0,-1 1,-1 0,-1 1,-1 1,-1 0,-1 1,-1 0,-1 1,-1 0,-1 1,-1 0,-1 -1,-1 -3,0 -1,-1 -1,0 -1,-1 -1,-1Z"/>
<path onmouseover="hoverPath(evt)" onmouseout="recoverPath(evt)" fill="rgb(173,198,236)" d="M  54,37l 0,1 -1,1 3,0 1,1 1,1 0,3 -1,1 0,2 -1,1 0,5 1,0 1,1 1,0 1,1 1,0 1,1 1,0 1,1 1,0 1,1 1,0 1,1 1,0 1,1 1,0 1,1 1,0 1,1 1,0 1,1 1,0 1,1 0,2 -1,1 -1,1 1,0 1,1 1,0 1,1 1,0 1,1 1,1 2,0 1,1 1,0 1,1 1,0 1,1 1,0 1,1 1,1 0,3 1,0 1,1 1,0 1,1 1,1 1,0 1,1 1,-1 1,-1 4,0 0,-3 1,-1 2,0 1,1 1,0 1,1 1,0 1,1 1,0 1,1 1,0 1,1 1,0 1,1 1,1 1,0 1,1 1,1 1,1 1,1 1,1 1,0 1,1 1,1 1,0 1,1 1,1 1,1 1,0 1,1 1,1 1,0 1,1 1,-1 2,-2 0,-1 -1,-1 0,0 -1,-1 -1,-1 -1,0 -1,-1 -1,-1 -1,-1 -1,0 -1,-1 -1,0 -1,-1 0,-1 -2,0 -1,-1 -1,0 -1,-1 -1,-1 -1,0 -1,-1 -1,-1 -1,0 -1,-1 -1,-1 0,-3 1,-1 0,-1 1,-1 0,-1 1,-1 0,-1 1,-1 0,-1 1,-1 0,-2 1,-1 0,-1 1,-1 0,-1 1,-1 0,-1 1,-1 0,-1 1,-1 0,-1 1,-1 0,-1 1,-1 0,-1 1,-1 0,-1 1,-1 0,-1 -1,0 -1,1 0,0 -1,1 0,1 -1,1 0,1 -1,1 0,2 -1,1 0,1 -1,1 0,1 -1,1 0,1 -1,1 0,1 -1,1 0,2 -1,1 0,1 -1,1 0,1 -1,1 0,1 -1,1 0,1 -1,1 0,1 -1,1 -4,0 -1,-1 -1,0 -1,-1 -1,0 -1,-1 -1,0 -1,-1 -2,0 -1,-1 -1,0 -1,-1 -1,0 -1,-1 -1,0 -1,-1 -1,0 -1,-1 -1,0 -1,-1 -1,0 -1,-1 -1,0 -1,-1 -1,0 -1,-1 -1,-1 -1,0 -1,-1 -2,0 -1,-1 0,-2 1,-1 2,0 0,-1 -2,0 -1,-1 -1,-1 -2,0 -1,-1 -2,0 -1,1 -4,0 -1,-1 -1,0 -1,-1 -1,0 -1,-1 -1,0 -1,-1 -1,0 -1,-1 -1,-1 0,-11 -1,0 -1,-1 -3,0 -1,1Z"/>
<path onmouseover="hoverPath(evt)" onmouseout="recoverPath(evt)" fill="rgb(214,219,223)" d="M  126,92l 0,0 -1,-1 -1,-1 -1,-1 -1,-1 -1,-1 -1,0 -1,-1 -1,-1 -1,0 -1,-1 -1,0 -1,-1 -1,0 -1,-1 -1,0 -1,-1 -1,0 -1,-1 0,3 -1,1 -4,0 -1,1 1,0 1,1 0,0 1,1 1,0 1,1 1,0 1,1 1,1 1,0 1,1 1,0 1,1 1,0 1,1 1,0 1,1 1,0 1,1 1,0 1,1 1,0 1,1 2,0 1,1 1,1 1,0 1,1 2,0 1,1 1,0 1,1 1,0 1,1 1,-1 1,0 1,-1 0,-1 1,-1 1,-1 1,-1 -4,3 -1,0 -1,-1 -1,0 -1,-1 -1,-1 -1,0 -1,-1 -1,-1 -1,-1 -1,0 -1,-1 -1,-1Z"/>
<path onmouseover="hoverPath(evt)" onmouseout="recoverPath(evt)" fill="rgb(253,253,253)" d="M  156,37l -1,0 -1,-1 -4,0 -1,-1 -3,0 -1,-1 -3,0 -1,-1 -3,0 -1,-1 -2,0 -1,-1 0,-6 1,-1 0,-2 1,-1 0,-4 1,-1 0,-2 1,-1 0,-2 1,-1 1,-1 10,0 1,1 1,0 1,1 0,5 -1,1 0,1 1,-1 4,0 1,1 3,0 -2,-1 -1,0 -4,-1 0,-8 -1,1 -2,0 -9,-1 -1,0 -1,-1 0,-7 -1,0 0,3 -1,1 0,2 -1,1 0,2 -1,1 0,2 -1,1 0,2 -1,1 0,2 -1,1 0,2 -1,1 0,2 -1,1 0,2 -1,1 0,1 -1,1 0,2 5,0 22,5 -19,-4 2,1 2,0 3,1 1,0 3,1 1,0 3,1 2,0 2,1 2,0 1,1 1,-1 0,0 2,-2 1,-1 0,-1 1,-1 -1,0 -1,2 -1,1 -1,1 -3,0 2,1Z"/>
<path onmouseover="hoverPath(evt)" onmouseout="recoverPath(evt)" fill="rgb(254,254,254)" d="M  177,237l 0,3 -1,1 0,1 -1,1 0,1 -1,1 0,1 -1,1 0,1 -1,1 -1,1 0,1 -1,1 0,1 -1,1 0,1 2,0 0,-2 1,-1 0,-1 1,-1 0,-1 1,-1 0,-1 1,-1 1,-1 0,-1 1,-1 4,0 -2,-1 0,-4 1,-1 0,-1 1,-1 0,-1 1,-1 0,-1 1,-1 0,-1 1,-1 0,-1 1,-1 0,-1 1,-1 0,-1 1,-1 0,-1 1,-1 1,-1 0,-1 1,-1 0,-1 1,-1 0,-1 1,-1 1,-1 0,-1 -2,0 0,2 -1,1 -1,1 0,1 -1,1 0,1 -1,1 0,1 -1,1 0,1 -1,1 0,1 -1,1 0,1 -1,1 0,1 -1,1 -1,1 0,1 -1,1 0,1 -1,1 -2,2 -1,-1 -2,0 -1,-1Z"/>
<path onmouseover="hoverPath(evt)" onmouseout="recoverPath(evt)" fill="rgb(242,240,231)" d="M  185,37l -2,0 -1,-1 -3,0 -1,-1 0,-2 -2,0 -1,1 -4,0 -1,-1 -1,0 0,3 -1,1 0,2 -1,1 0,2 -1,1 2,0 1,1 2,0 1,1 2,0 1,1 2,0 1,1 2,0 1,1 2,0 1,1 0,-1 1,-1 0,-1 1,-1 0,-2 1,-1 0,-5Z"/>
<path onmouseover="hoverPath(evt)" onmouseout="recoverPath(evt)" fill="rgb(171,198,238)" d="M  186,13l -1,0 -1,1 -1,0 -1,1 -2,0 -1,1 -1,1 0,1 -1,1 0,2 -1,1 0,2 -1,1 0,1 1,1 0,0 1,-1 0,-1 1,-1 0,-2 1,-1 0,-1 1,-1 1,0 1,-1 1,0 0,-1 1,-1 1,-1 1,-1 0,-1 1,-1 1,2 0,0 1,1 5,0 1,-1 0,-3 1,-1 0,-6 1,-1 0,-3 -9,0 0,2 -1,1 0,1 1,1 0,2 1,1 0,2 -1,1 -1,1 -1,1Z"/>
<path onmouseover="hoverPath(evt)" onmouseout="recoverPath(evt)" fill="rgb(243,242,233)" d="M  230,77l 0,0 -1,-1 -1,0 -1,1 0,3 -1,1 0,2 -1,1 0,3 -1,1 0,2 -1,1 0,3 -1,1 0,2 -1,1 0,2 -1,1 0,3 -1,1 0,2 -1,1 0,2 -1,1 0,2 -1,1 1,1 0,0 1,1 2,0 1,1 2,0 1,1 1,0 1,1 2,0 1,1 1,0 1,1 2,0 1,1 1,0 1,1 1,0 1,1 2,0 1,1 1,0 1,1 2,0 1,1 1,0 1,1 2,0 1,1 1,0 1,1 2,0 0,-48 -5,0 -1,-1 -1,0 -1,-1 -7,0 -1,-1 0,-2 -1,0 -1,1 -3,0 -1,-1Z"/>
<path onmouseover="hoverPath(evt)" onmouseout="recoverPath(evt)" fill="rgb(241,240,233)" d="M  0,30l 0,8 3,0 1,1 1,0 1,1 2,0 1,1 1,1 2,0 1,1 1,0 1,1 1,0 1,1 2,0 1,1 1,1 1,0 1,1 2,0 1,1 1,0 1,1 2,0 1,1 0,1 1,0 1,1 1,0 1,1 1,-1 2,0 0,-1 1,-1 -1,-1 0,-2 1,-1 0,-1 1,-1 0,-2 1,-1 0,-2 1,-1 0,-1 1,-1 0,-2 -1,-1 -1,-1 0,-1 -1,-1 -1,-1 -1,-1 -1,-1 -1,-1 -1,0 -1,-1 -7,0 -1,-1 -3,0 -1,1 -1,0 -1,1 -1,1 -1,0 -1,1 -1,1 -1,0 -1,1 -1,1 -1,0 -1,1 -3,0 -1,-1 -1,0 -1,-1 -1,-1 -1,0 -1,-1 -1,0 -1,1Z"/>
<path onmouseover="hoverPath(evt)" onmouseout="recoverPath(evt)" fill="rgb(253,253,252)" d="M  14,166l -1,1 -2,0 -1,-1 -1,-1 0,4 -1,1 0,2 -1,1 0,1 -1,1 0,1 -1,1 0,1 -1,1 0,1 -1,1 0,1 -1,1 -2,0 0,9 1,0 1,-1 0,-1 1,-1 1,-1 3,0 -1,-1 0,-3 1,-1 1,-1 0,-1 1,-1 1,-1 0,-1 1,-1 1,-1 0,-1 1,-1 1,-1 0,-1 1,-1 1,-1 0,-1 1,-1 0,-1 1,-1 -4,0 -5,-2 0,-1 -1,0 1,1 5,2 7,-2 0,-3 1,-1 -2,3 0,0 1,2Z"/>
<path onmouseover="hoverPath(evt)" onmouseout="recoverPath(evt)" fill="rgb(253,253,253)" d="M  50,206l 0,3 1,-1 2,0 1,1 1,1 1,0 1,1 3,0 1,1 1,1 0,3 -1,1 0,1 -1,1 0,1 -1,1 0,1 -1,1 -1,1 0,1 -1,1 0,1 -1,1 0,1 -1,1 0,1 -1,1 0,1 -1,1 0,1 -1,1 0,1 -1,1 0,1 -1,1 0,1 -1,1 -1,1 0,1 -1,1 0,1 1,1 1,1 0,1 1,0 1,1 1,0 1,1 1,1 0,3 3,0 0,-3 1,-1 0,-1 1,-1 0,-1 1,-1 0,-1 1,-1 0,-1 1,-1 0,-1 1,-1 0,-1 1,-1 0,-1 2,-2 0,-1 1,-1 0,-1 1,-1 0,-1 1,-1 0,-1 1,-1 0,-1 1,-1 0,-1 1,-1 1,-1 0,-1 1,-1 0,-1 1,-1 4,0 0,-1 -1,-1 -1,-1 0,-2 -1,0 -1,1 -2,0 -1,-1 -2,0 -1,-1 -1,0 -1,-1 0,-2 1,-1 0,-2 1,-1 0,-1 1,-1 0,-1 1,-1 0,-1 1,-1 0,-1 1,-1 0,-1 1,-1 0,-1 1,-1 0,-1 1,-1 0,-1 1,-1 0,-1 1,-1 0,-1 1,-1 0,-1 1,-1 0,-1 1,-1 0,-1 1,-1 0,-1 1,-1 0,-1 1,-1 0,-1 1,-1 0,-1 1,-1 0,-1 1,-1 1,-1 0,-2 -1,0 -1,1 0,1 -1,1 0,1 -1,1 0,1 -1,1 0,1 -1,1 0,1 -1,1 0,1 -1,1 0,1 -1,1 0,1 -1,1 0,1 -1,1 0,1 -1,1 0,1 -1,1 0,1 -1,1 0,1 -1,1 0,1 -1,1 0,1 -1,1 0,1 -1,1 0,2 -1,1 0,1 -1,1 0,1 -1,1 0,1 -1,1 -1,1 -4,0 -1,-1 -1,0 -1,-1 -1,0 -1,-1 -2,0 -1,-1 -2,0 16,8 2,0 1,1 1,0 1,1 1,1 0,3 -1,1 0,1 -1,1 0,1 -1,1 0,1 -1,1 0,1 -1,1 0,1 -1,1 -1,1 0,1 -1,1 0,1 -1,1 0,1 -1,1 0,1 -1,1 0,1 -1,1 0,1 -1,1 0,1 -1,1 0,1 -2,2 -1,1 -3,0 -1,-1 -1,0 -1,-1 0,-1 -1,-1 0,-2 1,-1 0,-1 1,-1 0,-1 1,-1 0,-1 1,-1 0,-1 1,-1 0,-1 1,-1 1,-1 0,-1 1,-1 0,-1 1,-1 0,-1 1,-1 0,-1 1,-1 0,-1 1,-1 0,-1 1,-1 0,-1 1,-1 0,-1 1,-1 1,-1 1,-1 1,0 -16,-8 26,7 1,0 0,-1 1,-1 0,-1 1,-1 1,-1 0,-1 1,-1 0,-1 1,-1 0,-1 1,-1 0,-1 1,-1 0,-1 1,-1 0,-1 1,-1 0,-1 1,-1 1,-1 0,-1 1,-1 0,-1 1,-1 0,-1 1,-1 0,-1 1,-1 0,-1 1,-1 0,-1 2,-2 0,-1 1,-1 0,-1 1,-1 0,-1 1,-1 0,-1 1,-1 -1,-1 0,0 -1,1 0,2 -1,1 -1,1 0,1 -1,1 0,1 -1,1 0,1 -1,1 0,1 -1,1 0,1 -1,1 0,1 -2,2 0,1 -1,1 0,1 -1,1 0,1 -1,1 0,1 -1,1 0,1 -1,1 0,1 -1,1 0,1 -1,1 -1,1 0,1 -1,1 0,1 -1,1 0,1 -1,1 0,1 -1,1 0,1 -26,-7 29,13 0,1 1,0 1,1 1,0 1,1 2,0 1,1 2,0 1,1 2,0 1,1 0,4 1,-1 0,-1 1,-1 4,0 -2,-1 0,-4 -1,2 -6,0 -1,-1 -1,0 -1,-1 -2,0 -1,-1 -1,0 -1,-1 -2,0 -29,-13Z"/>
<path onmouseover="hoverPath(evt)" onmouseout="recoverPath(evt)" fill="rgb(243,241,233)" d="M  64,109l 1,-1 4,0 -2,-1 -1,0 -1,-1 -1,0 -1,1 -2,0 -1,-1 -1,0 -1,-1 -1,0 -1,-1 -1,0 -1,-1 -1,-1 -1,0 -1,-1 -1,0 -1,-1 0,-2 -1,0 -1,-1 -1,0 -1,-1 -2,0 -1,1 0,1 -1,1 1,1 0,3 -1,1 0,1 -1,1 -2,0 0,1 -1,1 -1,1 0,2 -1,1 0,1 -1,1 0,1 -1,1 -1,1 0,1 -1,1 0,1 -1,1 0,1 1,1 0,0 1,1 1,0 1,-1 3,0 1,1 0,2 1,0 1,1 2,0 1,1 1,0 1,1 1,0 1,1 1,1 0,1 1,1 0,2 1,0 1,-1 1,-1 3,0 1,-1 4,0 -4,-1 0,-4 -1,-1 0,-3 1,-1 2,0 0,-1 1,-1 0,-1 1,-1 1,-1 0,-1 1,-1 0,-1 1,-1 1,-1 0,-3 -18,29 -1,1 -1,1 -1,1 1,0 1,-1 0,0 1,-1 0,-1 18,-29Z"/>
<path onmouseover="hoverPath(evt)" onmouseout="recoverPath(evt)" fill="rgb(241,241,235)" d="M  62,46l 0,1 1,1 1,0 1,1 1,0 1,1 1,0 1,1 1,0 1,1 2,0 1,-1 4,0 1,1 2,0 1,1 1,1 2,0 1,1 0,3 -1,1 0,0 1,1 1,0 1,1 1,1 1,0 1,1 1,0 1,1 1,0 1,1 1,0 1,1 1,0 1,1 1,0 1,1 1,0 1,1 1,0 1,1 2,0 1,1 1,0 1,1 1,0 1,1 1,0 1,1 2,0 0,-1 1,-1 0,-1 1,-1 0,-1 1,-1 0,-1 1,-1 0,-1 1,-1 0,-2 1,-1 0,-1 1,-1 0,-1 1,-1 0,-1 1,-1 0,-1 1,-1 0,-2 1,-1 0,-1 1,-1 0,-1 1,-1 1,-1 1,-1 -1,-1 -2,0 -1,-1 -2,0 -1,-1 -1,0 -1,-1 -1,0 -1,-1 -2,0 -1,-1 -2,0 -1,-1 -1,0 -1,-1 -3,0 -1,-1 -2,0 -1,-1 -3,0 -1,-1 0,-1 -7,0 -1,-1 -1,0 -1,-1 -3,0 -1,-1 -1,-1 -1,0 -1,-1 -2,0 2,1 0,5 -1,1 -1,1 -1,1 -1,1 1,1 0,2 -1,1 -1,1 -2,0 -1,1 0,1 -1,1 -5,0 -1,-1 -1,0 -1,1 -4,0 -1,1Z"/>
<path onmouseover="hoverPath(evt)" onmouseout="recoverPath(evt)" fill="rgb(243,242,235)" d="M  68,6l 0,2 -1,1 1,1 1,0 1,1 2,0 1,1 2,0 1,1 2,0 1,1 2,0 1,1 2,0 1,1 2,0 1,1 2,0 1,1 2,0 1,1 2,0 1,1 2,0 1,1 2,0 1,1 2,0 1,1 2,0 1,1 2,0 1,1 3,0 1,1 1,0 1,1 2,0 1,1 2,0 1,1 2,0 1,1 0,-1 1,-1 0,-1 1,-1 0,-2 1,-1 0,-2 1,-1 0,-2 1,-1 0,-2 1,-1 0,-2 1,-1 0,-2 1,-1 0,-2 1,-1 0,-2 1,-1 0,-2 -70,0 0,1 1,1Z"/>
<path onmouseover="hoverPath(evt)" onmouseout="recoverPath(evt)" fill="rgb(241,239,229)" d="M  75,29l 0,0 -1,1 -3,0 -1,-1 0,-2 1,-1 1,-1 1,-1 -1,0 -1,-1 -1,0 -1,-1 -2,0 -1,-1 -2,0 -1,-1 -2,0 0,1 -1,1 0,3 -1,1 0,3 -1,1 0,2 -1,1 0,1 2,0 1,1 1,0 1,1 0,7 4,0 1,-1 3,0 1,1 3,0 0,-1 2,-2 0,-1 1,-1 1,-1 0,-1 4,-4 0,-3 -1,0 -1,-1 -2,0 -1,-1 -1,0 -1,1 0,1 -6,1 1,0 -2,1 1,-1 6,-1 -7,3 -1,1 1,-1 7,-3 -8,5 0,1 1,1 0,0 -1,-2 8,-5 -6,7 1,0 1,-1 0,0 -2,1 6,-7 -4,5 1,-1 -1,1 4,-5 -3,3 0,0 3,-3Z"/>
<path onmouseover="hoverPath(evt)" onmouseout="recoverPath(evt)" fill="rgb(243,241,233)" d="M  95,229l -1,1 -1,1 -2,0 0,1 -1,1 0,1 -1,1 0,1 -1,1 0,1 -1,1 0,1 -1,1 0,1 -1,1 -1,1 0,1 -1,1 -1,1 0,2 -1,1 0,2 2,0 1,1 0,2 83,0 0,-2 1,-1 0,-1 1,-1 0,-1 1,-1 1,-1 0,-1 1,-1 0,-1 1,-1 0,-1 1,-1 0,-1 1,-1 0,-1 -2,0 -1,-1 -1,0 -1,-1 -1,0 -1,-1 0,-2 -1,0 -1,-1 -2,0 -1,-1 0,-4 -1,2 -4,0 -1,1 -3,0 -1,-1 -3,0 -1,1 -1,0 -1,1 -1,0 -1,1 -1,0 -1,1 -1,0 -1,1 -3,0 -1,-1 0,2 -1,1 -4,0 -1,1 -1,0 0,5 -1,1 -2,0 -1,-1 0,-4 -1,-1 -3,0 -1,-1 -5,0 -1,-1 -2,0 -1,-1 0,-2 -1,1 -3,0 -1,-1 -2,0 -1,-1 -1,0 -1,-1 -2,0 -1,-1 -1,-1 -2,0 -1,1 64,7 1,1 0,2 -1,1 -2,0 -1,-1 0,-2 1,-1 2,0 -64,-7 59,21 -2,0 -1,-1 0,-2 1,-1 2,0 1,1 0,2 -1,1 -59,-21Z"/>
<path onmouseover="hoverPath(evt)" onmouseout="recoverPath(evt)" fill="rgb(244,243,236)" d="M  136,46l 0,0 -1,-1 0,3 -1,1 4,0 1,1 2,0 1,1 2,0 1,1 1,1 0,2 -1,1 0,1 -1,1 0,2 -1,1 0,1 -1,1 0,1 -1,1 0,2 -1,1 0,1 -1,1 0,1 -1,1 0,1 -1,1 0,2 -1,1 0,1 -1,1 0,1 -1,1 0,1 -1,1 0,2 1,0 1,1 1,0 1,1 1,1 1,1 1,0 1,1 1,1 1,1 1,1 0,2 1,-1 2,0 1,1 1,0 2,2 1,0 1,1 1,0 1,1 1,1 1,1 1,0 1,1 1,0 1,1 1,0 1,1 1,0 1,1 1,0 1,1 1,0 1,1 1,0 1,1 1,0 1,1 1,0 1,1 1,0 1,1 1,0 1,1 2,0 1,1 2,0 1,1 1,0 1,1 2,0 1,1 1,0 1,1 1,0 1,1 1,0 1,1 1,1 1,1 1,1 1,1 1,1 1,0 1,1 1,0 1,1 1,0 1,1 1,0 1,1 1,0 1,1 1,0 1,1 2,0 1,1 1,0 1,1 1,0 1,1 2,0 1,1 1,0 1,1 2,0 1,1 1,0 1,1 2,0 1,1 1,0 1,1 2,0 1,1 1,0 1,1 2,0 1,1 1,0 1,1 1,0 1,1 2,0 1,1 1,0 1,1 3,0 0,-10 -2,0 -1,-1 -2,0 -1,-1 -1,0 -1,-1 -1,0 -1,-1 -2,0 -1,-1 -1,0 -1,-1 -2,0 -1,-1 -1,0 -1,-1 -2,0 -1,-1 -1,0 -1,-1 -1,0 -1,-1 -2,0 -1,-1 -1,0 -1,-1 -2,0 -1,-1 -2,0 -1,-1 -1,0 -1,-1 -1,0 -1,-1 -1,0 -1,-1 0,-7 1,-1 0,-2 1,-1 0,-2 1,-1 0,-2 1,-1 0,-2 1,-1 0,-2 1,-1 0,-3 1,-1 0,-2 1,-1 0,-3 1,-1 0,-2 1,-1 0,-3 1,-1 0,-1 -1,-1 0,-1 -1,0 -1,-1 -2,0 -1,-1 -2,0 -1,-1 -1,0 -1,-1 -2,0 -1,-1 -2,0 -1,-1 -3,0 -1,-1 -2,0 -1,-1 -2,0 -1,-1 -2,0 -1,-1 -2,0 -1,-1 -2,0 -1,-1 -2,0 -1,-1 -2,0 -1,-1 -2,0 -1,-1 -2,0 -1,-1 -2,0 -1,-1 -2,0 -1,-1 -3,0 -1,-1 -2,0 -1,-1 -2,0 -1,-1 -2,0 -1,-1 -2,0 -1,-1 -1,0 -1,-1 -2,0 -1,-1 -2,0 -1,-1 -2,0 -1,-1 -2,0 -1,-1 -2,0 35,60 -1,-1 -1,0 -1,-1 -2,0 -1,-1 -2,0 -1,-1 -1,0 -1,-1 0,-4 1,-1 0,-1 1,-1 0,-1 1,-1 0,-1 1,-1 0,-1 1,-1 5,0 1,1 1,0 1,1 2,0 1,1 2,0 1,1 1,1 0,4 -1,1 0,1 -1,1 0,1 -1,1 0,1 -1,1 0,1 -1,1 -4,0 -35,-60Z"/>
<path onmouseover="hoverPath(evt)" onmouseout="recoverPath(evt)" fill="rgb(243,242,233)" d="M  136,189l -1,0 -1,1 0,1 -1,1 0,1 -1,1 0,1 -1,1 0,4 1,1 2,0 1,1 1,0 1,1 1,0 1,-1 2,0 1,1 0,2 1,0 1,1 1,0 1,-1 2,0 1,1 0,2 1,0 1,1 1,0 1,-1 2,0 1,1 1,0 1,1 0,2 1,0 1,1 1,0 1,1 1,1 2,0 1,1 0,1 1,1 0,1 1,1 0,3 -1,1 0,1 -1,1 -1,1 0,3 2,0 1,1 1,0 1,1 1,0 1,1 2,0 1,1 2,0 1,-1 0,-1 1,-1 0,-1 1,-1 1,-1 0,-1 1,-1 0,-1 1,-1 0,-1 1,-1 0,-1 1,-1 0,-1 1,-1 0,-1 1,-1 0,-1 1,-1 1,-1 0,-1 -1,-1 -2,0 -1,-1 -1,0 -1,-1 -1,0 -1,-1 -1,0 -1,-1 -2,0 -1,-1 -1,0 -1,-1 -1,0 -1,-1 -1,0 -1,-1 -2,0 -1,-1 -1,0 -1,-1 -1,0 -1,-1 -2,0 -1,-1 -1,0 -1,-1 -1,0 -1,-1 -1,0 -1,-1 -2,0 -1,-1 -1,0 -1,-1 -1,0 -1,-1 -2,0 -1,-1 -1,0 -1,-1 -1,0 -1,-1 -1,0 -1,-1Z"/>
<path onmouseover="hoverPath(evt)" onmouseout="recoverPath(evt)" fill="rgb(237,234,220)" d="M  151,20l 0,0 -1,-1 0,-3 1,-1 0,-3 -1,0 -1,-1 -8,0 -1,1 0,2 -1,1 0,2 -1,1 0,4 -1,1 0,2 -1,1 0,4 2,0 1,1 3,0 1,1 3,0 1,1 3,0 1,1 3,0 0,-4 1,-1 0,-1 1,-1 6,0 0,-6 -1,-1 -4,0 -1,-1 -2,0 -1,1Z"/>
<path onmouseover="hoverPath(evt)" onmouseout="recoverPath(evt)" fill="rgb(207,218,230)" d="M  164,37l -4,4 -2,0 -1,-1 -2,0 -1,-1 -3,0 -1,-1 -3,0 -1,-1 -3,0 -1,-1 -3,0 3,1 0,0 4,1 4,1 3,1 1,0 1,1 2,0 2,1 2,0 1,1 2,0 0,-1 1,-1 0,-2 1,-1 0,-2 1,-1 0,-3 1,-1 1,-1 2,0 1,1 0,1 2,0 0,-4 -1,-1 0,-3 1,-1 0,-2 1,-1 0,-2 1,-1 0,-1 1,-1 1,-1 1,-1 0,-1 -3,0 -1,-1 -1,0 -1,-1 0,-2 1,-1 1,-1 0,-1 -1,-1 0,-4 -1,4 0,1 -1,1 0,1 -1,1 -1,1 0,1 -1,1 0,2 -1,1 0,5 -1,1 -2,0 -1,-1 -1,0 1,1 0,8 -1,1 -6,0 0,1 -1,1 0,4 3,0 1,-1 0,0 1,-1 0,-1 1,-1 3,0 1,1 0,2 -1,1 0,1 -1,1Z"/>
<path onmouseover="hoverPath(evt)" onmouseout="recoverPath(evt)" fill="rgb(240,240,234)" d="M  0,47l 0,69 1,0 0,-1 1,-1 1,0 0,-1 1,-1 0,-1 1,-1 0,-1 1,-1 1,-1 0,-1 1,-1 0,-1 1,-1 -1,-1 0,-2 1,-1 2,0 0,-1 2,-2 -1,-1 0,-2 1,-1 2,0 1,-1 1,0 0,-3 1,-1 0,-1 1,-1 0,-1 1,-1 1,-1 0,-1 1,-1 0,-1 1,-1 0,-1 1,-1 0,-1 1,-1 0,-1 1,-1 0,-1 1,-1 0,-3 2,-2 1,0 0,-1 1,-1 0,-1 1,-1 -1,0 -1,-1 -1,0 -1,-1 -1,0 -1,-1 -1,0 -1,-1 -1,0 -1,-1 -1,0 -1,-1 -1,0 -1,-1 -1,0 -1,-1 -1,0 -1,-1 -1,0 -1,-1 -1,0 -1,-1 -2,0 -1,-1 -1,0 -1,-1 -1,0 -1,-1 -1,0 -1,-1 -1,1 4,36 0,-2 1,-1 2,0 1,1 0,2 -1,1 -2,0 -1,-1 -4,-36Z"/>
<path onmouseover="hoverPath(evt)" onmouseout="recoverPath(evt)" fill="rgb(248,238,149)" d="M  14,247l -1,0 -1,-1 -1,0 -1,-1 -1,0 -1,-1 -1,0 -1,-1 -1,0 -1,-1 -1,0 -1,-1 -2,0 0,14 27,0 0,-2 -1,0 -1,-1 -1,0 -1,-1 -2,0 -1,-1 -1,0 -1,-1 -1,0 -1,-1 -1,0 -1,-1Z"/>
<path onmouseover="hoverPath(evt)" onmouseout="recoverPath(evt)" fill="rgb(241,240,230)" d="M  15,15l -2,0 -1,-1 -4,0 -1,-1 -2,0 -1,-1 -1,0 -1,-1 -2,0 0,10 3,0 1,1 1,0 1,1 3,0 1,-1 1,0 1,-1 1,0 1,-1 2,0 1,-1 1,0 1,-1 -1,-1 0,-2Z"/>
<path onmouseover="hoverPath(evt)" onmouseout="recoverPath(evt)" fill="rgb(243,241,232)" d="M  16,194l -1,-1 0,-2 -1,-1 -2,0 -1,1 -3,0 -1,-1 -2,0 -1,1 0,1 -1,1 -1,1 -2,0 0,24 3,0 1,1 1,1 4,0 1,-1 0,0 -1,-1 0,-2 1,-1 0,-1 1,-1 2,0 1,-1 1,-1 1,0 1,-1 2,0 1,1 1,-1 2,0 1,1 1,0 1,1 0,2 1,0 1,1 2,0 1,1 1,1 0,3 1,-2 4,0 1,1 1,0 1,1 4,0 1,1 0,-1 1,-1 1,-1 0,-1 1,-1 0,-1 1,-1 1,-1 0,-2 -1,0 -1,-1 0,-2 -1,-1 0,-2 1,-1 5,0 1,1 1,0 0,-2 2,-2 0,-1 1,-1 0,-1 1,-1 0,-1 2,-2 0,-1 1,-1 0,-1 1,-1 0,-1 1,-1 1,-1 0,-1 1,-1 -3,0 -1,-1 -1,-1 0,-2 1,-1 2,0 0,-3 1,-1 3,0 1,1 0,2 1,-1 0,-1 1,-1 0,-1 2,-2 0,-1 1,-1 0,-1 1,-1 0,-1 1,-1 0,-2 -3,0 -1,-1 -2,0 -1,-1 -3,0 -1,-1 -2,0 -1,-1 -2,0 -1,-1 -3,0 -1,-1 -2,0 -1,-1 -3,0 -1,1 0,0 -1,1 0,1 -1,1 -2,2 0,1 -1,1 0,1 -1,1 0,1 -1,1 -2,0 -1,1 -5,0 2,1 0,0 1,1 0,4 -1,1 0,1 -1,1 0,1 -1,1 -1,1 0,1 -1,1 -1,1 0,1 -1,1 1,1 0,2 -1,1 -1,1 -3,0 -1,1 -3,0 -1,-1 -1,1 -3,0 29,6 -2,0 -1,-1 0,-2 1,-1 0,-1 1,-1 2,0 1,1 0,2 -1,1 0,1 -1,1 -29,-6 31,-1 -1,-1 0,-2 1,-1 0,-1 1,-1 2,0 1,1 0,2 -1,1 0,1 -1,1 -2,0 -31,1 20,16 -1,-1 0,-2 1,-1 2,0 1,1 0,2 -1,1 -2,0 -20,-16Z"/>
<path onmouseover="hoverPath(evt)" onmouseout="recoverPath(evt)" fill="rgb(241,239,229)" d="M  28,167l 0,2 -1,1 -2,0 -1,-1 0,-2 1,-1 2,0 1,1 -5,-2 0,-3 1,-1 -1,4 5,2 -7,0 -1,1 -1,0 0,1 -1,1 0,1 -1,1 -1,1 0,1 -1,1 -1,1 0,1 -1,1 -1,1 0,1 -1,1 -1,1 0,1 -1,1 -1,1 0,1 1,1 0,2 1,0 1,-1 4,0 1,1 1,1 0,2 1,0 1,-1 2,0 1,1 1,0 1,-1 3,0 1,-1 -1,-1 0,-2 1,-1 0,-1 1,-1 1,-1 0,-1 1,-1 1,-1 0,-1 1,-1 0,-1 1,-1 0,-2 -1,-1 -1,0 -1,-1 0,-2 1,-1 5,0 1,-1 0,-1 1,-1 0,-1 1,-1 0,-1 1,-1 0,-1 1,-1 1,-1 1,-1 0,-1 1,-1 -2,0 -1,-1 -3,0 -1,-1 -2,0 -1,-1 -2,0 -1,-1 -3,0 -1,-1 -2,0 -1,-1 0,-1 -1,0 -1,-1 -1,0 -1,1 -3,0 -1,-1 -3,0 -1,-1 -3,0 -1,-1 -5,0 -1,-1 -3,0 0,36 1,0 0,-1 1,-1 0,-1 1,-1 0,-1 1,-1 0,-1 1,-1 0,-1 1,-1 0,-2 1,-1 0,-3 -1,-1 0,-2 1,-1 3,0 1,1 0,2 1,1 1,-1 4,0 0,-1 1,-1 1,-1 0,-1 1,-1 1,-1 2,0 1,1 -2,8Z"/>
<path onmouseover="hoverPath(evt)" onmouseout="recoverPath(evt)" fill="rgb(174,199,237)" d="M  67,87l 0,1 -1,1 0,4 -1,1 0,2 1,1 0,4 1,0 1,1 1,0 1,1 1,0 1,1 3,0 1,-1 0,0 1,-1 2,0 1,1 2,0 1,1 2,0 1,1 1,0 1,1 2,0 1,1 1,0 1,1 2,0 1,1 1,0 1,1 1,0 1,1 1,0 1,1 1,1 1,1 0,6 -1,1 0,1 -1,1 0,1 -1,1 0,1 -1,1 0,1 -1,1 -1,1 0,1 -1,1 0,1 -1,1 0,1 -1,1 0,1 -1,1 -1,1 0,1 -1,1 0,1 -1,1 0,1 -1,1 -1,1 0,1 -1,1 0,1 -1,1 0,1 -1,1 0,1 -1,1 0,1 -1,1 0,1 3,0 1,1 1,0 1,-1 0,-1 1,-1 0,-1 1,-1 0,-1 1,-1 0,-1 1,-1 1,-1 0,-1 1,-1 0,-1 1,-1 1,-1 0,-1 1,-1 0,-1 1,-1 0,-1 1,-1 1,-1 0,-1 1,-1 0,-1 1,-1 1,-1 0,-1 1,-1 0,-1 1,-1 0,-1 1,-1 0,-2 1,-1 0,-4 -1,-1 0,-3 -1,-1 0,-2 -1,-1 -1,-1 -1,-1 -1,0 -1,-1 -1,0 -1,-1 -2,0 -1,-1 -1,0 -1,-1 -2,0 -1,-1 -1,0 -1,-1 -2,0 -1,-1 -2,0 -1,-1 -2,0 -1,-1 -1,0 -1,-1 -3,0 -1,1 0,1 -1,1 -1,1 -3,0 -3,-15 1,14 0,-4 1,-1 1,0 0,-3 1,-1 0,-4 1,-1 1,-1 4,0 1,1 1,0 1,1 1,0 1,1 1,0 1,1 1,1 1,0 1,1 1,0 1,1 1,0 1,1 1,0 1,1 1,0 1,1 1,0 1,1 1,0 1,1 1,1 2,0 1,1 1,0 1,1 1,0 1,1 2,0 1,1 1,0 1,1 1,0 1,1 2,0 1,1 1,0 1,1 1,0 1,1 1,0 1,1 1,0 1,1 2,0 1,1 1,0 1,1 1,0 1,1 1,0 1,1 1,0 1,1 1,0 1,1 2,0 1,1 1,0 1,1 1,0 1,1 1,0 1,1 1,0 1,1 2,0 1,1 2,0 1,1 1,0 1,1 0,2 -1,1 -3,0 -1,-1 -2,0 -1,-1 -3,0 0,1 -1,1 0,1 -1,1 0,1 -1,1 0,1 1,0 1,1 2,0 1,1 1,0 1,1 1,0 1,1 2,0 1,1 3,0 1,1 2,0 1,1 2,0 1,-1 3,0 1,1 1,0 1,1 1,1 0,1 1,1 0,1 1,1 2,0 1,1 2,0 1,1 1,0 1,-1 0,-1 1,-1 2,0 1,1 0,2 1,1 0,1 1,1 1,0 1,1 1,0 1,1 2,0 1,1 2,0 1,1 1,0 1,1 2,0 1,1 1,0 1,1 2,0 1,1 1,0 1,1 2,0 1,1 1,0 1,1 2,0 1,1 1,0 1,1 2,0 1,1 2,0 1,1 2,0 0,-1 1,-1 1,-1 2,0 1,1 0,2 -1,1 0,1 1,1 2,0 1,1 1,0 1,1 2,0 1,1 1,1 0,3 1,1 2,0 1,1 1,0 1,1 2,0 1,-1 4,0 0,-18 -2,0 -1,-1 -1,0 -1,-1 -1,0 -1,-1 -1,0 -1,-1 -2,0 -1,-1 -2,0 -1,-1 -1,0 -1,-1 -2,0 -1,-1 -1,0 -1,-1 -2,0 -1,-1 -2,0 -1,-1 -1,-1 -3,0 -1,-1 -1,0 -1,-1 -2,0 -1,-1 -1,0 -1,-1 -1,-1 -3,0 -1,-1 -1,0 -1,-1 -2,0 -1,-1 -1,0 -1,-1 -2,0 -1,-1 -1,0 -1,-1 -1,-1 -3,0 -1,-1 -1,0 -1,-1 -2,0 -1,-1 -1,0 -1,-1 -2,0 -1,-1 -1,0 -1,-1 -2,0 -1,-1 -1,0 -1,-1 -1,0 -1,-1 -2,0 -1,-1 -1,0 -1,-1 -1,0 -1,-1 -2,0 -1,-1 -1,0 -1,-1 -1,0 -1,-1 -1,0 -1,-1 -2,0 -1,-1 -1,0 -1,-1 -2,0 -1,-1 -1,0 -1,-1 -1,0 -1,-1 -4,0 -1,-1 -2,0 -1,-1 -1,0 -1,-1 -1,0 -1,-1 -1,0 -1,-1 -1,0 -1,-1 -2,0 -1,-1 -1,0 -1,-1 -1,0 -1,-1 -1,0 -1,-1 -1,0 -1,-1 -2,0 -1,-1 -1,0 -1,-1 -1,0 -1,-1 -1,0 -1,-1 -1,0 -1,-1 -1,-1 -1,0 -1,-1 -1,0 -1,-1 -1,0 -1,-1 -1,0 -1,-1 -1,-1 -1,0 -1,-1 -1,0 -1,-1 -1,0 -1,-1 -1,-1 -1,0 -1,-1 -1,0 -1,-1 -1,0 -1,-1 -1,0 -1,-1 -1,-1 -1,0 -1,-1 -1,0 -1,-1 -1,0 -1,-1 -1,-1 -1,0 -1,-1 -1,0 -1,-1 -1,0 -1,-1 -1,-1 -1,0 -1,-1 -1,0 -1,-1 -1,0 -1,-1 -1,-1 -1,0 -1,-1 -1,0 -1,-1 -1,0 -1,-1 -1,-1 -1,0 -1,-1 -1,0 -1,-1 -1,-1 -1,0 -1,-1 -1,0 -1,-1 -1,-1 0,1 -1,1 0,3 1,0 1,1 1,0 1,1 1,0 1,1 1,1 1,0 1,1 1,0 1,1 1,0 1,1 1,0 1,1 1,1 1,0 1,1 1,0 1,1 1,1 1,0 1,1 1,1 1,0 1,1 0,4 -1,1 0,15 -1,-14Z"/>
<path onmouseover="hoverPath(evt)" onmouseout="recoverPath(evt)" fill="rgb(242,241,231)" d="M  75,222l 0,0 -1,1 0,1 -1,1 -1,1 0,1 -1,1 0,1 -1,1 0,1 -1,1 0,1 -1,1 0,1 -1,1 0,1 -1,1 -1,1 0,1 -1,1 0,1 -1,1 0,1 -1,1 0,1 -1,1 0,1 -1,1 0,1 -1,1 0,1 -1,1 0,2 24,0 0,-1 -2,0 -1,-1 0,-4 1,-1 0,-2 1,-1 1,-1 0,-1 1,-1 1,-1 0,-1 1,-1 0,-1 1,-1 0,-1 1,-1 0,-1 1,-1 0,-1 1,-1 0,-1 1,-1 0,-3 -2,0 -1,-1 -2,0 -1,-1 -2,0 -1,-1 -1,0 -1,-1 -1,0 -1,-1 -1,0 -1,1Z"/>
<path onmouseover="hoverPath(evt)" onmouseout="recoverPath(evt)" fill="rgb(180,202,233)" d="M  78,167l 0,1 -1,1 0,1 -1,1 0,1 -1,1 0,1 -1,1 -1,1 0,1 -1,1 0,1 -1,1 -1,1 -2,0 -1,-1 0,-2 -1,0 0,3 -1,1 -2,0 1,1 3,0 1,1 0,2 -1,1 0,1 -1,1 -1,1 0,1 -1,1 0,1 -1,1 0,1 -1,1 -1,1 0,1 -1,1 0,1 -1,1 0,1 -1,1 -1,1 0,2 1,0 1,1 1,0 1,1 2,0 1,-1 0,-1 1,-1 0,-1 1,-1 0,-1 1,-1 0,-2 1,-1 0,-1 1,-1 0,-1 1,-1 0,-1 1,-1 0,-1 1,-1 0,-1 1,-1 0,-1 1,-1 0,-1 1,-1 0,-1 1,-1 0,-1 1,-1 0,-1 1,-1 0,-1 1,-1 0,-1 1,-1 0,-1 1,-1 0,-1 1,-1 0,-1 1,-1 0,-1 1,-1 -2,0 -1,-1 -2,0 -1,-1Z"/>
<path onmouseover="hoverPath(evt)" onmouseout="recoverPath(evt)" fill="rgb(243,242,233)" d="M  101,174l -1,0 0,1 -1,1 0,1 -1,1 0,1 -1,1 0,1 -1,1 -1,1 0,1 -1,1 0,1 -1,1 0,1 -1,1 0,1 -1,1 0,1 -1,1 0,1 -1,1 -1,1 0,1 -1,1 0,1 -1,1 0,1 -1,1 0,1 -1,1 0,1 -1,1 0,1 -1,1 0,1 -1,1 -1,1 0,1 -1,1 0,1 -1,1 1,1 1,1 2,0 1,1 1,0 1,1 2,0 1,1 1,0 1,1 4,0 0,-1 1,-1 0,-1 1,-1 0,-1 1,-1 0,-1 1,-1 0,-1 1,-1 0,-1 1,-1 2,0 1,-1 1,-1 0,-2 1,-1 3,0 1,1 5,0 0,-2 1,-1 4,0 1,-1 2,0 1,-1 1,-1 5,0 0,-4 1,-1 0,-1 1,-1 0,-1 1,-1 -1,-1 0,-2 -1,0 -1,-1 -1,-1 -1,0 -1,-1 -1,0 -1,-1 -1,0 -1,-1 -2,0 -1,-1 -1,0 -1,-1 -2,0 -1,-1 -1,0 -1,-1 -1,0 -1,-1 -2,0 -1,-1 -1,0 -1,-1 -1,0 -1,-1Z"/>
<path onmouseover="hoverPath(evt)" onmouseout="recoverPath(evt)" fill="rgb(242,240,230)" d="M  158,15l 2,0 1,1 1,0 1,1 2,0 1,1 0,-5 1,-1 0,-2 1,-1 0,-1 1,-1 1,-1 0,-1 1,-1 0,-1 1,-1 0,-2 -30,0 0,6 1,0 1,1 8,0 1,-1 2,0 1,1 0,8Z"/>
<path onmouseover="hoverPath(evt)" onmouseout="recoverPath(evt)" fill="rgb(240,239,228)" d="M  178,246l -1,1 -1,1 0,1 -1,1 0,1 -1,1 0,1 -1,1 0,1 20,0 0,-2 -1,-1 0,-3 -2,0 -1,-1 -2,0 -1,-1 -1,0 -1,-1 -2,0 -1,-1 -2,0 -1,1Z"/>
<path onmouseover="hoverPath(evt)" onmouseout="recoverPath(evt)" fill="rgb(240,240,234)" d="M  186,230l 0,0 -1,1 0,1 -1,1 0,1 -1,1 0,1 -1,1 0,1 -1,1 0,2 1,0 1,1 0,2 2,0 1,1 1,0 1,1 2,0 1,1 2,0 1,1 0,3 1,1 0,3 60,0 0,-15 -3,0 -1,-1 -1,0 -1,-1 -1,0 -1,-1 -1,0 -1,-1 -1,0 -1,-1 -2,0 -1,-1 -1,0 -1,-1 -2,0 -1,-1 -1,-1 -2,0 -1,-1 -1,0 -1,-1 -1,0 -1,-1 -1,0 -1,-1 -1,0 -1,-1 -2,0 -1,-1 -1,0 -1,-1 -1,0 -1,-1 -2,0 -1,-1 -1,0 -1,-1 -1,0 -1,-1 -2,0 -1,-1 -1,0 -1,-1 -1,0 -1,-1 -2,0 -1,-1 -1,0 -1,-1 -3,0 -1,1 0,1 -1,1 0,1 -1,1 0,1 -2,2 0,1 -1,1 0,1 -1,1 0,1 -1,1Z"/>
<path onmouseover="hoverPath(evt)" onmouseout="recoverPath(evt)" fill="rgb(250,250,246)" d="M  239,15l 0,2 1,1 0,2 1,1 0,4 -1,1 0,2 -1,1 0,2 -1,1 0,2 -1,1 0,2 -1,1 0,2 -1,1 0,1 -1,1 0,2 -1,1 0,2 -1,1 0,2 -1,1 0,2 -1,1 0,2 -1,1 0,2 -1,1 0,2 -1,1 1,0 1,1 2,0 0,-1 1,-1 0,-2 1,-1 0,-2 1,-1 0,-2 1,-1 0,-2 1,-1 0,-2 1,-1 0,-2 1,-1 0,-2 1,-1 0,-2 1,-1 0,-2 1,-1 0,-2 1,-1 0,-2 1,-1 2,0 0,-1 -1,-1 0,-3 1,-1 0,-2 1,-1 6,0 1,1 2,0 0,-22 -7,0 0,3 -1,1 0,2 -1,1 -1,0 0,1 -1,1 -1,0 -1,1 -1,0 -1,1 0,2 -1,1Z"/>
</svg>