<svg width="256" height="256" xmlns="http://www.w3.org/2000/svg"><script> 
var tempColor;
function hoverPath(evt){
obj = evt.target;
tempColor = obj.getAttribute("fill");
obj.setAttribute("fill","red");
//alert(tempColor);
//obj.setAttribute("stroke","red");}
function recoverPath(evt){
obj = evt.target;
obj.setAttribute("fill", tempColor);
//obj.setAttribute("stroke", tempColor);
}</script><path onmouseover="hoverPath(evt)" onmouseout="recoverPath(evt)" fill="rgb(243,242,234)" d="M  0,42l 0,53 1,0 1,1 1,1 0,1 1,1 0,2 1,1 0,2 -1,1 0,14 1,1 0,2 -1,1 0,2 -1,1 0,1 2,0 1,-1 38,0 1,-1 1,0 0,-4 1,-1 0,-10 1,-1 0,-41 1,-1 0,-6 1,-1 0,-29 1,-1 0,-17 -1,0 -1,-1 -2,0 -1,1 0,1 -1,1 -2,0 0,3 -1,1 0,2 -1,1 0,1 -1,1 0,4 -1,1 -2,0 -1,1 -2,0 -1,1 -2,0 -1,1 -2,0 -1,1 -2,0 -1,1 -3,0 -1,1 -2,0 -1,1 -2,0 -1,1 -2,0 -1,1 -2,0 -1,1 -3,0 -1,1 -1,0 -1,1 -1,0 -1,1Z"/>
<path onmouseover="hoverPath(evt)" onmouseout="recoverPath(evt)" fill="rgb(241,240,229)" d="M  10,134l 0,0 1,1 1,1 1,1 1,0 4,4 1,1 1,0 1,1 6,0 0,-12 -18,0 -1,1 -1,0 1,1 1,0 1,1Z"/>
<path onmouseover="hoverPath(evt)" onmouseout="recoverPath(evt)" fill="rgb(232,232,214)" d="M  45,144l 0,-3 1,-1 0,-8 -1,-1 0,2 -1,1 0,9 1,1 -1,1 0,2 -1,1 -1,0 0,12 -1,1 -1,1 -9,0 8,1 0,0 1,1 1,1 1,1 2,0 0,-16 1,-1 0,-3 -1,-1 1,-1Z"/>
<path onmouseover="hoverPath(evt)" onmouseout="recoverPath(evt)" fill="rgb(239,238,226)" d="M  50,173l -1,0 0,4 1,0 1,1 27,0 1,1 17,0 1,1 33,0 1,1 16,0 0,-10 -1,-1 0,-5 -1,0 -1,-1 -11,0 -1,1 -2,0 -1,1 -1,0 -1,1 -1,0 -1,1 -4,0 -1,1 -42,0 -1,1 -13,0 -1,1 -7,0 -1,1 -4,0 -1,1Z"/>
<path onmouseover="hoverPath(evt)" onmouseout="recoverPath(evt)" fill="rgb(171,198,238)" d="M  59,34l 0,17 -1,1 0,14 1,1 0,3 -1,1 0,1 -1,1 0,11 16,0 0,-15 -6,0 -1,-1 0,-2 1,-1 6,0 0,-34 -6,0 -1,1 -2,0 -1,1 -3,0 -1,1Z"/>
<path onmouseover="hoverPath(evt)" onmouseout="recoverPath(evt)" fill="rgb(236,238,234)" d="M  86,134l 0,3 -1,1 0,4 -1,1 0,3 -1,1 0,2 4,0 1,-1 3,0 1,-1 0,-1 1,-1 0,-2 1,-1 0,-1 1,-1 0,-2 1,-1 0,-1 1,-1 0,-1Z"/>
<path onmouseover="hoverPath(evt)" onmouseout="recoverPath(evt)" fill="rgb(243,243,236)" d="M  113,167l 6,0 1,-1 4,0 1,-1 1,0 1,-1 1,0 1,-1 2,0 1,-1 13,0 1,1 1,0 1,1 0,5 2,0 1,1 0,10 1,1 4,0 1,1 32,0 1,1 30,0 1,1 13,0 0,-74 -1,-1 0,-68 -1,-1 0,-35 -1,-1 0,-4 -163,0 0,9 -1,1 0,3 1,1 0,1 1,1 0,-2 1,-1 1,-1 1,-1 2,0 1,1 0,10 -1,1 -5,0 -1,-1 -3,0 -1,1 -1,0 0,7 -1,1 -3,0 -1,-1 0,-1 -1,-1 0,-6 -1,0 0,12 -1,1 0,28 -1,1 0,6 -1,1 0,40 -1,1 0,11 -1,1 0,20 -1,1 0,6 -1,1 0,16 6,0 1,1 6,0 1,-1 13,0 1,-1 36,0 -57,-103 0,-13 1,-1 0,-17 1,-1 0,-1 -2,33 57,103 -57,-102 0,2 1,1 0,1 -1,1 0,1 -1,1 0,13 1,1 18,0 -18,-21 57,102 -38,-82 0,0 38,82 -38,-83 0,0 38,83 -38,-102 0,1 -1,1 -6,0 7,-2 38,102 -49,-137 1,0 1,-1 8,0 1,1 0,32 -11,-32 49,137 -19,-19 -1,1 -1,1 -3,0 -1,1 -6,0 -1,-1 0,-4 1,-1 0,-3 1,-1 0,-4 1,-1 0,-3 1,-1 13,0 1,1 0,3 -1,1 0,1 -1,1 0,2 -1,1 0,1 -1,1 0,2 -1,1 0,1 19,19 -57,-57 1,-1 1,0 1,-1 2,0 1,-1 6,0 1,-1 5,0 1,1 0,34 -1,1 -2,0 -1,-1 0,-1 -1,-1 0,-1 -1,-1 -2,0 -1,-1 -2,0 -1,-1 -1,-1 -1,-1 -1,-1 0,-1 -1,-1 0,-4 -1,-1 0,-1 -1,-1 0,-5 -1,-1 0,-7 57,57 44,-20 -1,-1 0,-3 1,-1 1,-1 0,-1 1,-1 1,-1 0,-1 1,-1 1,-1 1,-1 7,0 1,1 4,0 1,1 0,7 -1,1 0,3 -1,1 -5,0 -1,-1 -11,0 -44,20Z"/>
<path onmouseover="hoverPath(evt)" onmouseout="recoverPath(evt)" fill="rgb(236,238,234)" d="M  164,136l -2,2 0,1 -1,1 -1,1 0,1 -1,1 -1,1 0,1 11,0 1,1 3,0 0,-3 1,-1 0,-5 -4,0 -1,-1Z"/>
<path onmouseover="hoverPath(evt)" onmouseout="recoverPath(evt)" fill="rgb(244,243,236)" d="M  244,24l 0,16 1,1 0,65 1,1 0,74 1,1 8,0 0,-182 -11,0 0,18 -1,1 0,2 1,1Z"/>
<path onmouseover="hoverPath(evt)" onmouseout="recoverPath(evt)" fill="rgb(245,244,237)" d="M  247,194l 0,26 1,1 0,34 7,0 0,-61Z"/>
<path onmouseover="hoverPath(evt)" onmouseout="recoverPath(evt)" fill="rgb(171,198,238)" d="M  0,33l 0,6 1,0 1,-1 1,0 1,-1 3,0 1,-1 2,0 1,-1 2,0 1,-1 2,0 1,-1 2,0 1,-1 3,0 1,-1 2,0 1,-1 2,0 1,-1 2,0 1,-1 2,0 1,-1 2,0 0,-4 1,-1 -2,1 -2,0 -1,1 -3,0 -1,1 -1,0 -1,1 -2,0 -1,1 -2,0 -1,1 -2,0 -1,1 -1,0 -1,1 -2,0 -1,1 -2,0 -1,1 -1,0 -1,1 -7,0 -1,-1 -1,1 0,-3 1,0 0,-11 1,-1 0,-11 1,-1 0,-6 -3,0Z"/>
<path onmouseover="hoverPath(evt)" onmouseout="recoverPath(evt)" fill="rgb(173,199,238)" d="M  0,133l 0,112 1,0 0,-1 1,-1 0,-1 1,-1 0,-1 1,-1 0,-1 1,-1 1,-1 0,-1 1,-1 -1,-1 0,0 -1,-1 0,-2 1,-1 1,-1 1,-1 0,-1 1,-1 1,-1 1,-1 0,-1 1,-1 1,0 0,-1 1,-1 0,-1 1,-1 1,0 0,-1 1,-1 1,-1 0,-1 1,-1 1,-1 1,-1 0,-1 1,-1 0,-1 1,-1 0,-5 1,-1 0,-3 1,-1 0,-6 -1,-1 0,-3 1,-1 2,0 1,1 12,0 1,-1 0,-2 1,-1 0,-1 1,-1 0,-2 1,-1 0,-2 -1,-1 0,-6 -2,0 -1,-1 -1,-1 -1,-1 -1,-1 -7,0 -1,-1 0,-2 1,-1 9,0 1,-1 0,-12 1,-1 1,0 0,-13 1,-1 -13,0 -1,-1 0,13 -1,1 -8,0 -1,-1 -1,0 -1,-1 -1,-1 -1,-1 -1,-1 -1,-1 -1,0 -1,-1 -1,-1 -1,-1 -1,-1 -1,0 -2,-2 0,-1 -2,0 -1,-1 -2,0Z"/>
<path onmouseover="hoverPath(evt)" onmouseout="recoverPath(evt)" fill="rgb(243,242,234)" d="M  5,1l 0,6 -1,1 0,11 -1,1 0,11 5,0 1,-1 1,0 1,-1 2,0 1,-1 2,0 1,-1 1,0 1,-1 2,0 1,-1 2,0 1,-1 2,0 1,-1 1,0 1,-1 3,0 1,-1 3,0 1,-1 2,0 0,-2 1,-1 0,-3 1,-1 0,-7 1,-1 2,0 1,1 0,1 1,1 3,0 1,-1 1,0 0,-7 -46,0 -1,1Z"/>
<path onmouseover="hoverPath(evt)" onmouseout="recoverPath(evt)" fill="rgb(249,250,251)" d="M  6,129l -4,0 -1,-1 0,-3 1,-1 0,-2 1,-1 -1,-1 0,-16 1,-1 -1,-1 0,-2 -1,-1 0,-1 -1,-1 0,32 6,0 -2,1 3,0 1,-1 22,0 1,1 12,0 1,-1 2,0 1,1 1,1 0,10 -1,1 0,8 -1,1 0,16 -1,1 0,5 1,1 0,4 -1,1 0,2 -1,1 0,1 -1,1 0,2 -1,1 0,3 -1,1 -1,1 -2,0 0,4 -1,1 -1,1 0,1 -1,1 -1,1 -1,1 -1,0 0,2 -1,1 -1,1 -1,1 -1,0 0,2 -1,1 -1,1 -1,1 -1,1 0,1 -1,1 -1,1 -1,1 0,1 -1,1 -4,0 0,1 -1,1 0,1 -1,1 -1,0 0,1 -1,1 -1,1 -1,1 0,1 -1,1 -1,1 -1,1 1,1 0,0 1,1 0,2 -1,1 0,1 -1,1 -1,1 0,1 -1,1 0,1 -1,1 0,1 -1,1 0,1 -1,1 -2,0 0,8 3,0 0,-3 1,-1 0,-1 1,-1 0,-1 1,-1 1,-1 2,0 -1,-1 0,-2 1,-1 2,0 -1,-1 0,-2 1,-1 0,-1 1,-1 1,-1 0,-1 1,-1 1,-1 1,0 0,-1 1,-1 0,-1 1,-1 1,-1 1,-1 0,-1 1,-1 1,-1 1,-1 0,-1 1,-1 0,-1 1,-1 1,-1 1,-1 1,-1 1,-1 0,-1 1,-1 1,-1 1,-1 1,-1 0,-1 1,-1 1,-1 1,-1 1,-1 0,-1 1,-1 0,-1 1,-1 1,-1 1,-1 0,-1 1,-1 1,-1 0,-1 1,-1 0,-1 1,-1 0,-1 1,-1 0,-1 1,-1 0,-2 1,-1 1,0 1,-1 21,0 1,1 19,0 1,1 26,0 1,1 30,0 1,1 32,0 1,1 30,0 1,1 21,0 0,-3 -15,0 -1,-1 -30,0 -1,-1 -32,0 -1,-1 -4,0 -1,-1 -1,-1 0,1 -1,1 -18,0 -1,-1 -33,0 -1,-1 -17,0 -1,-1 -27,0 -1,-1 -1,0 -1,-1 0,-6 1,-1 1,0 1,-1 -2,0 -1,-1 0,-18 1,-1 0,-6 1,-1 0,-20 1,-1 0,-11 1,-1 0,-40 1,-1 0,-6 1,-1 0,-28 1,-1 0,-12 1,-1 0,-2 1,-1 1,0 0,-2 1,-1 0,-1 1,-1 1,0 1,-1 0,-2 1,-1 0,-5 1,-1 0,-2 -9,0 0,8 -1,1 -1,0 -1,1 -5,0 -1,-1 0,0 -1,-1 0,5 1,-2 0,-1 6,1 1,0 1,1 0,19 -1,1 0,29 -1,1 0,6 -1,1 0,41 -1,1 0,10 -1,1 0,4 -1,1 -1,0 -1,1 -38,0 0,1 -3,1 2,-1Z"/>
<path onmouseover="hoverPath(evt)" onmouseout="recoverPath(evt)" fill="rgb(244,243,236)" d="M  16,238l 0,-3 1,-1 -1,0 -1,1 0,1 -1,1 -1,1 0,1 -1,1 1,1 0,2 -1,1 -2,0 1,1 0,2 -1,1 -2,0 -1,1 0,1 -1,1 0,1 -1,1 0,2 230,0 0,-53 -1,-1 0,-10 -21,0 -1,-1 -30,0 -1,-1 -32,0 -1,-1 -30,0 -1,-1 -26,0 -1,-1 -19,0 -1,-1 -19,0 -1,1 -1,0 0,2 -1,1 0,1 -1,1 0,1 -1,1 0,1 -1,1 0,1 -1,1 -1,1 0,1 -1,1 -1,1 -1,1 0,1 -1,1 3,0 1,1 3,0 1,1 0,20 -1,1 -1,1 0,1 1,-1 3,0 1,1 0,-1 1,-1 1,0 1,-1 10,0 0,-9 1,-1 1,0 1,-1 1,-1 3,0 1,1 0,11 3,0 1,1 0,16 -1,1 -9,0 -1,-1 -36,0 -1,-1 0,-3 -1,0 -1,1 -1,0 -1,1 -1,0 -1,1 -4,0 -1,-1Z"/>
<path onmouseover="hoverPath(evt)" onmouseout="recoverPath(evt)" fill="rgb(179,202,237)" d="M  25,223l 0,0 -1,1 -1,1 -1,1 0,1 -1,1 -1,1 -1,1 0,1 -1,1 1,1 0,2 -1,1 0,4 2,0 1,-1 1,0 1,-1 1,0 1,-1 1,0 1,-1 2,0 1,1 1,-1 1,0 1,-1 1,0 1,-1 1,0 1,-1 1,0 1,-1 1,0 1,-1 1,0 1,-1 0,-3 1,-1 1,-1 0,-18 -3,0 -1,-1 -3,0 -1,1 0,0 -1,1 -1,1 0,1 -1,1 -1,1 -1,1 -1,1 0,1 -3,3 -1,1 -1,1 0,1 -1,1Z"/>
<path onmouseover="hoverPath(evt)" onmouseout="recoverPath(evt)" fill="rgb(240,240,228)" d="M  27,189l 0,8 -1,1 0,3 -1,1 0,5 -1,1 0,1 -1,1 0,1 -1,1 -1,1 -1,1 0,1 -1,1 -1,1 1,0 2,-3 0,0 1,-1 2,-3 1,-1 1,-1 0,-2 1,-1 1,0 1,-1 1,-1 0,-2 1,-1 1,0 1,-1 1,-1 0,-1 1,-1 1,-1 0,-4 1,-1 2,0 1,-1 0,-1 -12,0 -1,1 -1,-1 0,0 1,1Z"/>
<path onmouseover="hoverPath(evt)" onmouseout="recoverPath(evt)" fill="rgb(172,198,238)" d="M  59,111l -1,0 0,5 1,1 0,5 1,1 0,1 1,1 0,4 1,1 0,1 1,1 1,1 1,1 2,0 1,1 2,0 1,1 1,1 0,1 1,1 0,-31 -3,0 -1,1 -6,0 -1,1 -2,0 -1,1Z"/>
<path onmouseover="hoverPath(evt)" onmouseout="recoverPath(evt)" fill="rgb(171,198,238)" d="M  65,3l -1,1 0,5 -1,1 0,2 -1,1 -1,1 -1,0 0,1 -1,1 0,2 -1,1 -1,0 0,1 1,0 1,1 0,6 1,1 0,1 1,0 0,-7 1,-1 1,0 1,-1 5,0 1,1 3,0 0,-8 -1,1 0,0 -1,1 0,2 -1,1 -2,0 -1,-1 -1,-1 0,-1 -1,-1 0,-5 1,-1 0,-4 -1,-1 1,-1 0,-2 -1,0 0,2 1,0 -1,1Z"/>
<path onmouseover="hoverPath(evt)" onmouseout="recoverPath(evt)" fill="rgb(172,198,238)" d="M  67,217l 0,0 -1,1 -1,0 0,9 -1,1 -10,0 -1,1 -1,0 0,1 -1,1 -2,0 -1,-1 -1,0 -1,1 -1,0 -2,2 -1,0 -1,1 -1,0 -1,1 -1,0 -1,1 -1,0 -1,1 -1,0 -1,1 -1,0 -1,1 -1,0 -1,1 0,1 36,0 1,1 7,0 0,-14 -3,0 -1,-1 0,-11 -1,0 -1,1Z"/>
<path onmouseover="hoverPath(evt)" onmouseout="recoverPath(evt)" fill="rgb(245,234,138)" d="M  235,0l -2,0 0,3 1,1 0,35 1,1 0,68 1,1 0,75 1,1 0,5 -1,1 0,9 1,1 0,54 9,0 0,-33 -1,-1 0,-28 1,-1 9,0 0,-8 -9,0 -1,-1 -1,-1 0,-74 -1,-1 0,-65 -1,-1 0,-18 -1,-1 0,-4 1,-1 0,-17Z"/>
</svg>