<svg width="256" height="256" xmlns="http://www.w3.org/2000/svg"><script> 
var tempColor;
function hoverPath(evt){
obj = evt.target;
tempColor = obj.getAttribute("fill");
obj.setAttribute("fill","red");
//alert(tempColor);
//obj.setAttribute("stroke","red");}
function recoverPath(evt){
obj = evt.target;
obj.setAttribute("fill", tempColor);
//obj.setAttribute("stroke", tempColor);
}</script><path onmouseover="hoverPath(evt)" onmouseout="recoverPath(evt)" fill="rgb(242,241,233)" d="M  22,144l 0,2 -1,1 0,1 -1,1 0,5 -1,1 0,4 -1,1 0,5 -1,1 0,4 -1,1 0,3 2,0 1,-1 8,0 0,-4 1,-1 0,-2 1,-1 0,-1 1,-1 0,-2 1,-1 0,-2 1,-1 0,-3 1,-1 0,-9 -1,-1 0,0 -1,-1 -2,0 -1,-1 -5,0 0,1 -1,1Z"/>
<path onmouseover="hoverPath(evt)" onmouseout="recoverPath(evt)" fill="rgb(244,243,236)" d="M  97,76l -1,1 0,6 -1,1 0,3 -1,1 0,10 -1,1 0,9 -1,1 0,4 -1,1 -3,0 -1,-1 -1,0 -1,-1 -1,-1 -2,0 -1,-1 -1,0 -1,-1 -1,-1 -1,-1 0,-6 -3,0 -1,-1 -2,0 -1,-1 -1,-1 0,-2 -1,1 0,0 -1,1 0,3 -1,1 -1,1 -2,0 0,2 -1,1 0,2 -1,1 0,2 -1,1 0,1 -1,1 2,0 1,1 4,0 1,1 7,0 1,-1 20,0 1,-1 17,0 1,1 10,0 1,1 6,0 1,1 6,0 1,1 4,0 1,1 1,0 1,1 2,0 1,1 6,0 1,-1 6,0 2,2 0,2 1,0 1,1 11,0 1,-1 1,0 0,-1 1,-1 6,0 1,1 1,1 1,1 1,0 1,1 0,-1 1,-1 0,-7 1,-1 0,-8 1,-1 0,-7 1,-1 0,-7 1,-1 0,-8 1,-1 0,-7 1,-1 0,-8 1,-1 0,-7 1,-1 0,-8 1,-1 0,-7 1,-1 0,-14 1,-1 0,-7 1,-1 0,-7 1,-1 0,-6 1,-1 0,-2 -51,0 0,4 2,0 1,1 11,0 1,1 0,11 -1,1 0,4 -1,1 -1,1 -4,0 -1,-1 -9,0 -1,1 0,6 -1,1 -9,0 -1,-1 -6,0 -1,-1 -6,0 -1,-1 -5,0 -1,-1 -6,0 -1,-1 -5,0 -1,-1 -4,0 -1,-1 -4,0 -1,-1 -2,0 -1,-1 0,-4 -1,0 -1,-1 0,-3 -1,3 0,2 -1,1 0,1 -1,1 0,1 -1,1 0,2 -1,1 2,-3 1,-1 2,0 1,1 3,0 1,1 2,0 1,1 0,14 -1,1 0,6 -1,1 0,5 3,0 1,1 13,0 1,1 11,0 1,1 1,0 1,1 0,7 -1,1 0,8 -1,1 0,3 -1,1 -8,0 -1,-1 -11,0 -1,-1Z"/>
<path onmouseover="hoverPath(evt)" onmouseout="recoverPath(evt)" fill="rgb(171,198,238)" d="M  97,17l 0,4 2,0 1,1 4,0 1,1 4,0 1,1 5,0 1,1 6,0 1,1 5,0 1,1 6,0 1,1 6,0 1,1 7,0 0,-6 1,-1 0,-7 1,-1 0,-7 1,-1 0,-6 -53,0 0,2 -1,1 0,2 -1,1 0,2 -1,1 0,2 -1,1 0,1 -1,1 0,2 1,0 1,1Z"/>
<path onmouseover="hoverPath(evt)" onmouseout="recoverPath(evt)" fill="rgb(241,239,230)" d="M  99,188l 0,0 -1,1 0,10 3,0 1,1 10,0 1,1 10,0 1,1 10,0 1,1 10,0 1,1 10,0 1,1 10,0 1,1 9,0 1,1 1,0 1,1 0,4 -1,1 0,4 -1,1 -2,0 0,8 -1,1 0,6 -1,1 0,6 -1,1 0,6 -1,1 1,1 0,1 4,0 0,-7 1,-1 0,-7 1,-1 0,-7 1,-1 0,-7 1,-1 0,-8 1,-1 0,-9 1,-1 0,-8 1,-1 0,-8 1,-1 0,-10 1,-1 0,-3 -10,0 -1,-1 -7,0 -1,1 -8,0 -1,1 -7,0 -1,-1 -9,0 -1,-1 -2,0 -1,1 0,6 -1,1 -1,0 0,1 1,1 0,9 2,0 1,1 0,2 -1,1 -7,0 -1,-1 -11,0 -1,-1 -11,0 -1,-1 0,-2 1,-1 8,0 -10,3 -6,0Z"/>
<path onmouseover="hoverPath(evt)" onmouseout="recoverPath(evt)" fill="rgb(239,238,229)" d="M  99,212l 0,0 -1,-1 -1,0 -1,-1 -1,1 -1,1 -8,0 0,2 3,0 1,1 2,0 1,1 0,11 -1,1 0,7 -1,1 0,8 -1,1 0,5 1,0 1,1 0,2 -1,1 -2,0 0,1 48,0 0,-5 1,-1 10,0 -11,-1 -8,0 -1,-1 0,-1 -1,-1 -1,-1 0,-2 -1,-1 0,-3 1,-1 2,0 -1,-1 0,-3 1,-1 0,-9 1,-1 0,-6 1,-1 11,0 1,1 10,0 1,1 10,0 1,1 7,0 1,1 1,0 1,1 0,-2 -2,0 2,3 0,4 -10,-8 -11,-1 -11,-1 -11,-1 -11,0 -1,-1 -10,0 -1,-1Z"/>
<path onmouseover="hoverPath(evt)" onmouseout="recoverPath(evt)" fill="rgb(241,239,230)" d="M  107,140l -1,0 -1,-1 -1,0 0,1 -1,1 -1,0 0,8 -1,1 0,4 1,1 0,3 1,1 3,0 1,1 10,0 1,1 9,0 1,-1 4,0 0,-4 1,-1 2,0 0,-7 1,-1 0,-5 -1,0 -1,-1 -5,0 -1,-1 -6,0 -1,-1 -6,0 -1,1Z"/>
<path onmouseover="hoverPath(evt)" onmouseout="recoverPath(evt)" fill="rgb(242,241,232)" d="M  140,140l 0,5 1,1 0,8 -1,1 -3,0 1,1 0,6 1,0 1,1 0,1 1,0 1,1 9,0 1,1 5,0 1,-1 8,0 1,-1 9,0 1,1 9,0 0,-1 1,-1 0,-7 1,-1 0,-6 1,-1 0,-4 -6,0 -1,-1 -6,0 -1,-1 -6,0 -1,-1 -6,0 -1,-1 -7,0 -1,-1 -6,0 -1,-1 -8,0 2,1Z"/>
<path onmouseover="hoverPath(evt)" onmouseout="recoverPath(evt)" fill="rgb(241,239,230)" d="M  145,220l 0,1 -1,1 0,10 -1,1 0,9 -1,1 0,3 -1,1 8,0 1,1 0,2 -1,1 -10,0 0,4 31,0 0,-2 1,-1 6,0 -6,-1 0,-1 -1,-1 0,-2 1,-1 0,-6 1,-1 0,-6 1,-1 0,-5 -1,-1 0,-5 -1,0 -1,-1 -7,0 -1,-1 -10,0 -1,-1 -9,0 3,1Z"/>
<path onmouseover="hoverPath(evt)" onmouseout="recoverPath(evt)" fill="rgb(223,230,235)" d="M  216,44l 0,1 -1,1 0,4 4,0 1,1 2,0 1,1 3,0 1,1 3,0 1,1 3,0 1,1 3,0 1,1 4,0 1,1 3,0 1,1 3,0 1,1 3,0 0,-11 -2,0 -1,-1 -1,0 -1,1 -6,0 -1,-1 -7,0 -1,-1 -8,0 -1,-1 -7,0 -1,-1 -2,0 -2,2 0,0 2,-2Z"/>
<path onmouseover="hoverPath(evt)" onmouseout="recoverPath(evt)" fill="rgb(244,243,236)" d="M  235,248l -1,0 0,2 1,1 1,0 1,1 18,0 0,-89 -1,0 -1,1 -9,0 10,1 0,11 -1,1 -1,1 -14,0 -1,-1 -2,0 -1,-1 0,-3 -1,0 0,8 -1,1 0,7 -1,1 0,3 -1,1 0,5 -1,1 1,1 0,12 1,1 0,8 1,1 0,1 1,1 1,1 1,1 0,1 1,1 0,7 1,1 2,2 0,7 -1,1 -1,1Z"/>
<path onmouseover="hoverPath(evt)" onmouseout="recoverPath(evt)" fill="rgb(243,242,234)" d="M  0,53l 0,1 2,0 1,-1 4,0 1,1 0,3 -1,1 -1,1 1,0 1,-1 1,0 0,-3 1,-1 3,0 1,-1 1,0 1,-1 3,0 1,1 1,0 1,1 0,3 1,-1 2,0 1,-1 2,0 1,-1 2,0 1,-1 1,0 2,-2 1,-1 0,-1 1,-1 0,-3 1,-1 0,-3 1,-1 0,-1 1,-1 1,-1 0,-1 1,-1 1,-1 1,-1 1,0 1,-1 1,0 -2,-1 -1,0 -1,-1 -3,0 -1,1 -1,0 -1,1 -1,0 -1,1 -2,0 -1,1 -3,0 -1,1 -1,0 -1,1 -1,0 -1,1 -1,0 -1,1 -1,1 -1,1 -1,1 -1,1 -1,1 -1,1 -1,0 -1,1 -1,1 -2,2 -1,1 -1,0 -1,1 -1,0 -1,1 -2,0 -1,1 -2,0 -1,1Z"/>
<path onmouseover="hoverPath(evt)" onmouseout="recoverPath(evt)" fill="rgb(250,250,247)" d="M  13,145l -8,0 -1,1 -4,0 0,1 7,0 1,-1 4,0 1,-1 2,1 2,0 1,1 1,0 0,-1 1,-1 0,-3 1,-1 0,-1 1,-1 6,0 1,-1 12,0 1,1 4,0 1,1 0,5 1,-1 0,-2 1,-1 0,-2 1,-1 1,-1 0,-1 1,-1 0,-1 1,-1 0,-1 1,-1 0,-2 1,-1 0,-2 1,-1 1,-1 5,0 0,-1 -3,0 -1,-1 -8,0 -1,-1 -2,0 -1,-1 -6,0 -1,-1 -8,0 -1,-1 -4,0 -1,-1 -4,0 -1,-1 -6,0 -1,-1 -5,0 -1,-1 -7,0 0,1 3,0 1,1 5,0 1,1 6,0 1,1 4,0 1,1 2,0 1,1 0,2 -1,1 0,2 -1,1 0,3 -1,1 0,2 -1,1 0,2 -1,1 0,4 -1,1 0,1 -1,1 -1,1 -1,0 -1,2 -2,-1 10,-12 0,-1 1,-1 0,-3 1,-1 0,-2 1,-1 0,-1 1,-1 0,-1 1,-1 4,0 1,1 8,0 1,1 3,0 1,1 6,0 1,1 0,5 -1,1 0,1 -1,1 0,2 -1,1 0,1 -1,1 -5,0 -1,-1 -11,0 -1,1 -7,0 -1,-1 0,-3 -10,12 50,-21 0,1 6,0 1,1 6,0 1,1 6,0 1,1 6,0 1,1 6,0 1,1 2,0 1,1 1,0 1,1 0,5 1,-1 2,0 1,1 0,1 6,0 1,-1 8,0 1,1 6,0 1,1 5,0 1,1 1,0 1,1 0,7 -1,1 0,4 2,0 0,-6 -76,-23 -50,21 85,-17 -2,0 -1,-1 -8,0 -1,-1 0,-3 -1,-1 -1,-1 -5,0 -1,1 -7,0 0,1 -1,1 -6,0 34,4 -85,17 86,-17 3,0 1,1 6,0 1,1 -11,-2 -86,17 98,-15 5,0 1,1 -6,-1 -98,15 105,-14 5,0 1,1 -6,-1 -105,14 112,-13 5,0 1,1 -6,-1 -112,13 119,-12 5,0 1,1 -6,-1 -119,12 126,-11 6,0 1,1 -1,1 2,0 1,1 6,0 1,1 7,0 1,1 6,0 1,1 6,0 1,1 6,0 1,1 7,0 0,-1 -7,0 -1,-1 -6,0 -1,-1 -6,0 -1,-1 -6,0 -1,-1 -6,0 -1,-1 -4,0 -1,-1 -3,0 -8,-1 -126,11 33,1 0,2 -1,1 0,2 -1,1 0,2 -1,1 0,2 -1,1 0,4 1,-3 0,-1 1,-2 0,-1 1,-2 0,-1 1,-2 0,-1 1,-2 -1,-1 -33,-1 123,-8 0,0 -123,8 5,4 -1,1 0,4 -1,1 0,5 -1,1 0,8 1,-5 0,-3 1,-3 0,-3 1,-2 0,-4 -5,-4Z"/>
<path onmouseover="hoverPath(evt)" onmouseout="recoverPath(evt)" fill="rgb(243,242,234)" d="M  61,129l 0,2 -1,1 0,2 -1,1 0,2 -1,1 0,2 -1,1 0,2 -1,1 0,2 -1,1 0,3 -1,1 0,2 -1,1 0,2 -1,1 0,2 -1,1 0,2 -1,1 0,3 -1,1 0,2 -1,1 0,2 -1,1 0,3 -1,1 0,2 -1,1 0,2 -1,1 0,2 -1,1 0,3 -1,1 0,2 -1,1 0,2 -1,1 0,1 2,-2 6,0 1,1 7,0 1,1 16,0 1,1 9,0 1,1 8,0 1,1 0,-4 1,-1 0,-4 1,-1 1,0 0,-1 -1,-1 0,-2 -1,0 -1,-1 0,-2 1,-1 1,-1 0,-1 1,-1 0,-6 1,-1 0,-5 -1,-1 0,-8 1,-1 3,0 0,-1 -1,-1 0,-6 1,-1 0,-8 1,-1 0,-6 -1,0 -1,-1 -2,0 -1,-1 -6,0 -1,-1 -6,0 -1,-1 -6,0 -1,-1 -6,0 -1,-1 -6,0 -1,-1 -3,0 -1,1 3,0 1,1 0,1 30,51 -1,1 -7,0 0,2 -1,1 -2,0 -1,-1 0,-3 -5,0 -1,-1 0,-3 1,-1 0,-10 1,-1 0,-2 1,-1 7,0 1,1 7,0 1,1 0,11 -1,1 0,5 -30,-51Z"/>
<path onmouseover="hoverPath(evt)" onmouseout="recoverPath(evt)" fill="rgb(244,243,236)" d="M  87,30l -1,0 0,1 -1,1 -1,1 0,1 -1,1 0,1 -1,1 0,1 -1,1 0,1 -1,1 0,2 -1,1 0,1 -1,1 0,2 -1,1 0,2 -1,1 0,2 -1,1 0,1 -1,1 0,1 -1,1 0,1 3,-4 3,0 0,-1 1,-1 0,-1 1,-1 0,-1 1,-1 0,-1 1,-1 0,-4 1,-1 0,-2 1,-1 0,-1 1,-1 0,-1 1,-1 -1,-1 0,-3 1,-2Z"/>
<path onmouseover="hoverPath(evt)" onmouseout="recoverPath(evt)" fill="rgb(246,235,140)" d="M  209,0l -1,0 0,3 -1,1 0,6 -1,1 0,7 -1,1 0,7 -1,1 0,14 -1,1 0,7 -1,1 0,8 -1,1 0,7 -1,1 0,8 -1,1 0,7 -1,1 0,8 -1,1 0,7 -1,1 0,7 -1,1 0,8 -1,1 0,7 -1,1 0,1 1,1 0,2 -1,1 0,3 -1,1 0,4 1,1 0,3 -1,1 -1,0 0,5 -1,1 0,6 -1,1 0,7 -1,1 0,6 -1,1 0,10 -1,1 0,8 -1,1 0,8 -1,1 0,9 -1,1 0,8 -1,1 0,7 -1,1 0,7 -1,1 0,7 -1,1 0,9 -1,1 -6,0 0,1 15,0 0,-6 1,-1 0,-7 1,-1 0,-6 -1,-1 0,-2 1,-1 0,-1 1,-1 0,-5 1,-1 0,-8 1,-1 0,-8 1,-1 0,-8 1,-1 0,-9 1,-1 0,-8 1,-1 0,-8 1,-1 0,-7 1,-1 0,-7 1,-1 0,-4 1,-1 -1,0 -1,-1 0,-3 1,-1 1,-1 0,-3 1,-1 0,-5 1,-1 2,0 1,1 0,-1 -3,-1 0,-8 1,-1 0,-8 1,-1 0,-7 1,-1 0,-7 1,-1 0,-8 1,-1 0,-7 1,-1 0,-7 1,-1 0,-8 1,-1 0,-7 1,-1 0,-8 1,-1 0,-6 1,-1 4,0 -5,-1 0,-3 1,-1 1,0 0,-7 1,-1 0,-7 1,-1 0,-7 1,-1 0,-8Z"/>
<path onmouseover="hoverPath(evt)" onmouseout="recoverPath(evt)" fill="rgb(244,243,237)" d="M  213,51l 0,3 -1,1 0,7 -1,1 0,8 -1,1 0,7 -1,1 0,7 -1,1 0,8 -1,1 0,7 -1,1 0,7 -1,1 0,8 -1,1 0,6 4,0 1,1 8,0 1,1 7,0 1,1 16,0 0,-1 1,-1 0,-2 1,-1 -1,-1 0,0 -1,-1 -1,-1 0,-3 1,-1 0,-8 1,-1 5,0 1,1 1,0 1,-1 0,-4 1,-1 0,-8 1,-1 2,0 0,-35 -4,0 -1,-1 -3,0 -1,-1 -3,0 -1,-1 -4,0 -1,-1 -3,0 -1,-1 -3,0 -1,-1 -3,0 -1,-1 -3,0 -1,-1 -2,0 -1,-1 -4,0 -1,-1Z"/>
<path onmouseover="hoverPath(evt)" onmouseout="recoverPath(evt)" fill="rgb(244,243,235)" d="M  219,1l 0,8 -1,1 0,7 -1,1 0,7 -1,1 0,6 4,0 1,1 6,0 1,1 7,0 1,1 6,0 1,1 7,0 1,1 4,0 0,-37 -35,0 -1,1Z"/>
<path onmouseover="hoverPath(evt)" onmouseout="recoverPath(evt)" fill="rgb(172,198,235)" d="M  0,62l 0,7 6,0 1,-1 2,0 1,-1 1,-1 1,-1 1,-1 1,0 0,-1 1,-1 1,-1 1,-1 1,-1 1,-1 1,-1 0,-2 -1,0 -1,-1 -1,0 -1,1 -1,0 -1,1 -3,0 0,3 -1,1 -1,0 -1,1 -6,0 -1,-1 0,-2 1,-1 3,0 1,-1 0,-1 -2,0 -1,1 -3,0Z"/>
<path onmouseover="hoverPath(evt)" onmouseout="recoverPath(evt)" fill="rgb(178,204,211)" d="M  0,14l 0,36 2,0 1,-1 2,0 1,-1 1,0 1,-1 1,0 1,-1 1,-1 1,-1 1,-1 1,-1 1,0 2,-2 1,-1 1,-1 1,-1 1,-1 1,-1 1,0 1,-1 1,0 1,-1 1,0 1,-1 3,0 1,-1 2,0 1,-1 1,0 1,-1 1,0 1,-1 5,0 1,1 1,0 1,1 2,0 1,-1 1,0 1,-1 3,0 1,-1 3,0 1,-1 1,0 1,-1 1,0 1,-1 1,0 1,-1 2,0 0,-1 1,-1 2,0 0,-1 1,-1 1,-1 0,-1 1,-1 1,-1 0,-1 1,-1 0,-3 1,-1 -1,-1 0,-3 -1,-1 0,-1 -1,-1 0,-2 -60,0 0,1 1,1 2,0 1,-1 9,0 1,1 5,0 1,1 5,0 1,1 4,0 1,1 6,0 1,1 4,0 1,1 0,2 -1,1 -1,1 -2,0 0,3 -1,1 -1,1 -4,0 -1,-1 0,-1 -1,-1 0,-3 1,-1 -5,0 0,1 -1,1 0,7 -3,3 -1,1 -1,0 -1,1 -1,0 -1,1 -2,0 -1,1 -4,0 -1,1 -4,0 -1,-1 -4,0 -1,-1 -1,0 -1,-1 -1,-1 -1,-1 -1,-1 -1,-1 -1,-1 -1,-1 -1,-1 -1,-1 -1,-1 -1,-1 -1,0 -1,1Z"/>
<path onmouseover="hoverPath(evt)" onmouseout="recoverPath(evt)" fill="rgb(241,241,235)" d="M  20,249l 0,0 -1,-1 -1,0 0,1 -1,1 -2,0 -1,-1 0,-2 -3,0 0,1 -1,1 0,6 70,0 0,-15 -1,0 -1,-1 -2,0 -1,-1 -1,-1 -1,-1 0,-2 1,-1 3,-3 0,-1 1,-1 0,-3 1,-1 0,-3 1,-1 0,-3 1,-1 1,-1 2,0 0,-4 1,-1 8,0 1,-1 1,-1 0,-1 1,-1 0,-14 -1,5 0,4 -1,1 0,3 -1,1 0,1 -1,1 -4,0 -1,1 -6,0 -1,1 -14,0 -1,1 -3,0 -1,1 0,2 -1,1 -2,0 -1,-1 0,-5 1,-1 0,-1 -5,0 -1,-1 -9,0 -1,-1 -2,0 -1,-1 0,-5 -1,3 0,2 -1,1 0,1 5,0 -22,43 3,0 1,-1 1,-1 0,0 -4,2 -1,0 5,-3 0,-2 1,-1 -1,3 -5,3 28,-41 0,10 -1,1 0,4 1,0 1,1 3,0 1,1 0,2 -1,1 -1,1 -5,0 -1,-1 -7,0 -1,-1 -1,0 -1,-1 -1,0 -1,-1 -1,-1 -1,0 0,3 -1,1 0,2 -1,1 0,2 -1,1 0,3 -1,1 0,2 -1,1 22,-33 -28,41Z"/>
<path onmouseover="hoverPath(evt)" onmouseout="recoverPath(evt)" fill="rgb(191,208,227)" d="M  41,124l 0,0 -1,-1 -8,0 -1,-1 -2,0 0,1 -1,1 0,1 -1,1 0,2 -1,1 0,3 -1,1 0,2 5,0 1,-1 13,0 1,1 3,0 0,-1 1,-1 0,-2 1,-1 0,-1 1,-1 0,-3 -6,0 -1,-1Z"/>
<path onmouseover="hoverPath(evt)" onmouseout="recoverPath(evt)" fill="rgb(171,198,238)" d="M  82,218l 0,3 -1,1 0,3 -1,1 0,3 -1,1 0,1 -1,1 -1,1 -1,1 -1,1 1,1 1,1 2,0 1,1 1,0 1,1 0,16 5,0 0,-2 1,-1 2,0 -2,-1 0,-7 1,-1 0,-8 1,-1 0,-7 1,-1 0,-9 -2,0 -1,-1 -2,0 -1,1 -2,0 -1,1Z"/>
<path onmouseover="hoverPath(evt)" onmouseout="recoverPath(evt)" fill="rgb(172,197,234)" d="M  99,201l -1,0 0,6 -1,1 1,1 1,0 1,1 9,0 1,1 10,0 1,1 11,0 1,1 10,0 1,1 10,0 1,1 10,0 1,1 11,0 0,-4 1,-1 0,-2 -1,0 -1,-1 -9,0 -1,-1 -10,0 -1,-1 -10,0 -1,-1 -10,0 -1,-1 -10,0 -1,-1 -10,0 -1,-1 -10,0 -1,-1Z"/>
<path onmouseover="hoverPath(evt)" onmouseout="recoverPath(evt)" fill="rgb(241,239,231)" d="M  106,162l 0,0 -1,-1 -3,0 -2,-2 -2,0 0,6 1,1 0,7 -1,1 0,6 -1,1 0,1 -1,1 -1,1 1,0 1,1 0,2 1,-3 6,0 0,-2 1,-1 11,0 1,1 0,2 -1,1 3,0 1,1 11,0 1,1 5,0 -3,-1 0,-9 -1,-1 0,-3 1,-1 1,0 0,-6 1,-1 1,-1 1,0 -2,-1 0,-6 -2,0 0,4 -1,1 -4,0 -1,1 -11,0 -1,-1Z"/>
<path onmouseover="hoverPath(evt)" onmouseout="recoverPath(evt)" fill="rgb(240,239,227)" d="M  156,130l -1,1 0,1 -1,1 -2,0 0,1 4,0 1,1 6,0 1,1 6,0 1,1 6,0 1,1 6,0 1,1 5,0 0,-5 1,-1 0,-2 -9,0 -1,1 -11,0 -1,-1 -4,0 -1,-1 -4,0 -1,-1 -2,0 -1,1Z"/>
<path onmouseover="hoverPath(evt)" onmouseout="recoverPath(evt)" fill="rgb(243,242,235)" d="M  191,234l 0,7 -1,1 0,7 -1,1 0,5 40,0 0,-2 1,-1 0,-3 -1,-1 0,-2 -1,0 0,1 -1,1 -1,0 -1,1 -10,0 -1,1 -5,0 -1,-1 0,-2 -1,-1 0,-5 1,-1 1,0 1,-1 11,0 1,-1 3,0 0,-2 1,-1 0,-3 -1,-1 0,-2 -1,-1 0,-2 -1,-1 0,-9 -1,-1 0,-1 -1,2 -1,1 -5,0 -1,-1 -10,0 -1,-1 -1,-1 0,-7 1,-1 0,-11 1,-1 0,-5 1,-1 15,0 1,1 2,0 0,-1 1,-1 0,-12 1,-1 0,-11 1,-1 0,-5 1,-1 0,-3 1,-1 0,-3 1,-1 -4,0 -1,-1 -11,0 -1,-1 -10,0 0,1 -1,1 0,4 -1,1 0,7 -1,1 0,7 -1,1 0,8 -1,1 0,8 -1,1 0,9 -1,1 0,8 -1,1 0,8 -1,1 0,8 -1,1 0,5 -1,1 0,1 -1,1 1,1Z"/>
<path onmouseover="hoverPath(evt)" onmouseout="recoverPath(evt)" fill="rgb(236,238,234)" d="M  206,190l 0,5 -1,1 0,11 -1,1 0,5 1,1 10,0 1,1 3,0 1,-1 0,-1 1,-1 1,0 0,-4 -1,-1 0,-5 1,-1 0,-6 1,-1 0,-3 -3,0 -1,-1Z"/>
<path onmouseover="hoverPath(evt)" onmouseout="recoverPath(evt)" fill="rgb(236,238,234)" d="M  209,242l 0,3 1,1 0,2 3,0 1,-1 10,0 1,-1 1,0 0,-1 -1,-1 0,-4 -2,0 -1,1 -11,0 -1,1Z"/>
<path onmouseover="hoverPath(evt)" onmouseout="recoverPath(evt)" fill="rgb(241,240,228)" d="M  222,142l 5,0 1,1 0,-5 -1,-1 -1,0 -1,-1 -2,0 -1,-1 -6,0 -1,1 0,0 -1,1 -3,0 -1,-1 0,-1 -1,-1 0,-1 -5,0 -1,-1 0,5 -1,1 0,2 2,0 1,1 10,0 1,1Z"/>
<path onmouseover="hoverPath(evt)" onmouseout="recoverPath(evt)" fill="rgb(177,202,237)" d="M  230,150l 0,3 -1,1 0,3 -1,1 0,5 -1,1 0,11 -1,1 0,12 -1,1 0,6 -1,1 0,6 -1,1 0,3 1,1 0,7 1,1 0,9 1,1 0,2 1,1 0,2 1,1 0,5 -1,1 0,6 1,1 2,0 1,1 0,2 1,1 0,5 -1,1 0,1 24,0 0,-1 -19,0 -1,-1 -1,0 -1,-1 -1,-5 0,0 1,-1 3,0 1,-1 0,-5 -1,-1 0,0 -1,-1 -1,-1 0,-7 -1,-1 0,-1 -1,-1 -1,-1 -1,-1 0,-1 -1,-1 0,-8 -1,-1 0,-12 -1,-1 0,-2 1,-1 0,-5 1,-1 0,-3 1,-1 0,-7 1,-1 0,-8 1,-1 3,0 1,1 0,3 2,0 1,1 12,0 1,-1 0,-9 -9,0 -1,-1 0,-2 1,-1 9,0 1,-1 2,0 0,-11 -8,0 -1,-1 -9,0 -1,-1 -2,0 -1,1 -2,0 -1,1Z"/>
<path onmouseover="hoverPath(evt)" onmouseout="recoverPath(evt)" fill="rgb(174,199,237)" d="M  255,125l 0,-27 -1,0 0,8 -1,1 0,4 -1,1 -1,1 -3,0 -1,-1 -3,0 0,8 -1,1 0,1 1,1 0,0 1,1 1,1 0,2 -1,1 0,2 -1,1 0,1 -1,1 -18,0 -1,-1 -7,0 -1,-1 -8,0 -1,-1 0,1 4,1 0,1 1,1 0,1 1,0 1,-1 0,0 1,-1 8,0 1,1 2,0 1,1 1,0 1,1 1,1 0,5 2,0 1,1 11,0 1,1 7,0 1,1 2,0Z"/>
<path onmouseover="hoverPath(evt)" onmouseout="recoverPath(evt)" fill="rgb(244,243,237)" d="M  0,3l 0,8 3,0 1,1 1,1 1,1 1,1 1,1 1,1 1,1 1,1 1,1 1,1 1,1 1,0 1,1 4,0 1,1 2,0 1,-1 4,0 1,-1 2,0 1,-1 1,0 1,-1 1,0 1,-1 1,-1 1,-1 0,-7 1,-1 0,-1 1,-1 7,0 1,1 0,2 -1,1 0,1 1,1 0,1 2,0 1,-1 0,-3 1,-1 2,0 1,-1 -4,0 -1,-1 -2,0 -48,-4 43,3 -4,0 -1,-1 -5,0 -1,-1 -5,0 -1,-1 -7,0 -1,1 -4,0 -1,-1 -1,-1 0,-2 -12,0 0,2 43,4 -43,-3Z"/>
<path onmouseover="hoverPath(evt)" onmouseout="recoverPath(evt)" fill="rgb(175,200,237)" d="M  0,91l 0,21 8,0 1,1 5,0 1,1 6,0 1,1 3,0 1,-1 0,-3 1,-1 0,-3 1,-1 0,-2 1,-1 0,-3 1,-1 0,-3 -1,-1 0,-2 -1,-1 -6,0 -1,-1 -16,0 -1,-1 -3,0 -1,1Z"/>
<path onmouseover="hoverPath(evt)" onmouseout="recoverPath(evt)" fill="rgb(174,199,236)" d="M  0,151l 0,13 9,0 1,1 1,0 1,-1 1,0 0,-4 1,-1 0,-5 1,-1 0,-4 1,-1 -7,0 -1,1 -8,0Z"/>
<path onmouseover="hoverPath(evt)" onmouseout="recoverPath(evt)" fill="rgb(186,210,187)" d="M  0,79l 0,7 7,0 1,1 18,0 1,-1 0,-1 1,-1 1,-1 1,-1 1,0 1,-1 1,0 1,-1 1,-1 1,0 1,-1 1,0 1,-1 2,0 1,-1 15,0 1,1 1,1 0,2 -1,1 0,2 -1,1 0,1 -1,1 0,2 -1,1 0,1 -1,1 -1,1 0,1 -1,1 0,1 -1,1 0,2 -1,1 0,6 -1,1 0,2 -1,1 0,2 -1,1 0,2 -1,1 0,1 -1,1 -2,0 -1,-1 -1,0 -1,-1 -1,0 -1,1 -1,0 -1,1 4,0 1,1 6,0 1,1 2,0 1,1 3,0 0,-2 -1,-1 0,-8 1,-1 2,0 0,-2 1,-1 0,-2 1,-1 0,-2 1,-1 0,-3 1,-1 0,-2 1,-1 0,-2 1,-1 0,-1 1,-1 5,0 -4,-1 0,-3 1,-1 0,-1 1,-1 0,-2 1,-1 0,-2 1,-1 0,-2 1,-1 0,-2 1,-1 0,-1 1,-1 0,-1 -1,-1 0,-3 1,-1 0,-2 1,-1 0,-1 1,-1 0,-1 1,-1 0,-2 1,-1 0,-2 1,-1 0,-2 1,-1 0,-1 1,-1 0,-2 1,-1 0,-1 1,-1 0,-1 1,-1 0,-1 1,-1 0,-1 1,-1 1,-1 0,-1 1,-1 1,-1 0,-1 1,-1 0,-2 1,-1 0,-1 1,-1 0,-1 1,-1 0,-2 1,-1 0,-2 1,-1 2,0 0,-1 1,-1 0,-2 1,-1 0,-2 1,-1 0,-2 1,-1 0,-1 -22,0 0,1 1,1 0,1 1,1 0,3 1,1 0,2 -1,1 0,3 -1,1 0,1 -1,1 -1,1 0,1 -1,1 -1,1 0,1 -1,1 -2,0 0,1 -1,1 -2,0 -1,1 -1,0 -1,1 -1,0 -1,1 -1,0 -1,1 -3,0 -1,1 -3,0 -1,1 -1,0 -1,1 -1,0 0,1 -1,1 -1,0 -1,1 -1,0 -1,1 -1,1 0,1 -1,1 -1,1 0,1 -1,1 0,3 -1,1 0,3 -1,1 0,1 -1,1 -1,1 -1,1 -1,1 -1,0 -1,1 -2,0 -1,1 -2,0 -1,1 -2,0 -1,1 -2,0 -1,1 -1,1 -1,1 -1,1 -1,1 0,1 -1,1 -1,0 -1,1 -1,1 -1,1 -1,1 -2,0 -1,1 -7,0Z"/>
<path onmouseover="hoverPath(evt)" onmouseout="recoverPath(evt)" fill="rgb(249,249,245)" d="M  7,207l 0,8 -1,1 0,5 -1,1 0,3 -1,1 0,2 -1,1 0,4 -1,1 0,4 -1,1 -1,0 0,12 1,0 0,-3 1,-1 0,-5 1,-1 0,-4 1,-1 0,-6 1,-1 0,-3 -1,3 3,-22 -1,17 0,-2 1,-3 0,-3 1,-3 0,-4 1,-1 0,-5 1,-1 0,-1 1,-1 9,0 1,-1 0,-2 1,-1 0,-1 -9,0 -1,-1 -1,-1 0,-2 -1,0 0,7 -1,1 0,3 -3,22 1,-17 4,-17 1,0 0,-4 1,-1 0,-5 1,-1 0,-8 -1,4 0,1 -1,1 0,6 -1,1 0,6 -4,17 1,-2 -1,1 1,-1 -1,2Z"/>
<path onmouseover="hoverPath(evt)" onmouseout="recoverPath(evt)" fill="rgb(198,213,233)" d="M  10,176l 1,-1 0,-1 1,-1 0,-3 1,-1 0,-3 -1,1 -3,0 -1,-1 -8,0 0,71 1,-5 0,-4 1,-1 0,-2 1,-1 0,-3 1,-1 0,-5 1,-1 0,-9 1,-1 1,-1 0,-5 1,-1 0,-7 1,-1 0,-6 1,-1Z"/>
<path onmouseover="hoverPath(evt)" onmouseout="recoverPath(evt)" fill="rgb(235,236,231)" d="M  11,119l -2,0 -1,-1 -5,0 -1,-1 -2,0 0,27 3,0 1,-1 8,0 1,-1 3,0 1,-1 0,-1 1,-1 0,-4 1,-1 0,-2 1,-1 0,-2 1,-1 0,-3 1,-1 0,-2 1,-1 -2,0 -1,-1 -4,0 -1,-1Z"/>
<path onmouseover="hoverPath(evt)" onmouseout="recoverPath(evt)" fill="rgb(176,200,236)" d="M  12,203l 0,0 -1,1 0,5 -1,1 0,4 -1,1 0,5 -1,1 0,4 -1,1 0,4 -1,1 0,6 -1,1 0,4 -1,1 0,5 -1,1 0,3 -1,1 -2,0 0,2 8,0 0,-7 1,-1 0,-1 1,-1 4,0 0,-2 1,-1 0,-1 1,-1 0,-2 1,-1 0,-2 1,-1 0,-2 1,-1 0,-2 1,-1 0,-2 1,-1 0,-3 1,-1 0,-1 1,-1 0,-2 2,-2 0,-2 1,-1 0,-4 1,-1 0,-3 1,-1 0,-2 1,-1 0,-2 1,-1 0,-4 1,-1 0,-3 1,-1 0,-2 1,-1 0,-2 1,-1 -1,0 -1,-1 0,-3 1,-1 0,-4 1,-1 0,-3 1,-1 0,-2 1,-1 0,-3 1,-1 0,-2 1,-1 2,0 0,-1 1,-1 0,-2 1,-1 0,-2 1,-1 0,-2 1,-1 0,-2 1,-1 0,-3 -4,0 -1,-1 -10,0 3,1 1,1 1,1 0,11 -1,1 0,3 -1,1 0,2 -1,1 0,2 -1,1 0,1 -1,1 0,2 -1,1 0,4 -1,1 -8,0 -1,1 -3,0 0,4 -1,1 0,5 -1,1 0,4 -1,1 1,1 9,0 1,1 0,3 -1,1 0,2 -1,1 -1,1 -8,0 -1,1Z"/>
<path onmouseover="hoverPath(evt)" onmouseout="recoverPath(evt)" fill="rgb(253,253,253)" d="M  22,227l 0,2 -1,1 0,2 -1,1 0,2 -1,1 0,2 -1,1 0,2 -1,1 0,1 -1,1 0,4 1,-2 1,0 0,-3 1,-1 0,-2 1,-1 0,-2 1,-1 0,-2 1,-1 0,-2 1,-1 0,-2 -1,-1 1,-1 1,0 0,-1 1,-1 0,-2 1,-1 0,-3 1,-1 0,-2 1,-1 0,-2 1,-1 0,-2 1,-1 0,-2 1,-1 0,-2 1,-1 0,-2 1,-1 0,-3 1,-1 0,-5 1,-1 0,-4 1,-1 0,-2 -1,2 -1,3 0,2 -1,1 0,3 -1,1 0,4 -1,1 0,2 -1,1 0,2 -1,1 0,3 -1,1 0,2 3,-9 1,-3 -9,27 -1,1 2,-5 -1,1Z"/>
<path onmouseover="hoverPath(evt)" onmouseout="recoverPath(evt)" fill="rgb(243,242,236)" d="M  32,100l 0,0 -1,1 0,3 -1,1 0,2 -1,1 0,3 -1,1 0,3 -1,1 3,0 1,-1 4,0 1,-1 1,0 1,-1 3,0 1,1 1,0 1,1 0,-1 1,-1 0,-2 1,-1 0,-2 1,-1 0,-2 1,-1 0,-6 1,-1 0,-2 1,-1 0,-1 1,-1 0,-1 1,-1 1,-1 0,-1 1,-1 0,-2 1,-1 0,-1 1,-1 0,-2 1,-1 -1,-1 -13,0 -1,1 -2,0 -1,1 -1,0 -1,1 -1,0 -1,1 -1,1 -1,0 -1,1 -1,0 -1,1 -1,1 0,1 -1,1 -1,1 -20,0 -1,-1 0,1 -1,-1 -5,0 23,2 6,0 1,1 1,1 0,2 1,1Z"/>
<path onmouseover="hoverPath(evt)" onmouseout="recoverPath(evt)" fill="rgb(175,200,237)" d="M  34,203l 0,0 -1,1 0,2 -1,1 0,2 -1,1 0,2 -1,1 0,2 -1,1 0,2 -1,1 0,3 -1,1 0,2 -1,1 0,2 -1,1 0,2 -1,1 0,2 -1,1 0,2 -1,1 0,2 -1,1 0,2 -1,1 0,2 1,1 1,0 1,-1 0,-3 1,-1 0,-2 1,-1 0,-2 1,-1 0,-3 1,-1 0,-2 1,-1 0,-2 1,-1 0,-3 1,-1 3,0 1,1 1,1 1,0 1,1 1,0 1,1 7,0 1,1 3,0 1,-1 -3,0 -1,-1 -1,0 -1,-1 0,-6 1,-1 0,-8 -3,0 -1,-1 -6,0 -1,-1 0,-3 -1,-1 0,-2 1,-1 1,1 0,0 1,-1 0,-2 1,-1 0,-2 1,-1 0,-2 1,-1 0,-2 1,-1 0,-3 1,-1 0,-2 1,-1 0,-2 1,-1 0,-2 1,-1 0,-3 1,-1 0,-2 1,-1 0,-2 1,-1 0,-3 1,-1 0,-2 1,-1 0,-2 1,-1 0,-2 1,-1 0,-2 1,-1 0,-3 1,-1 0,-2 1,-1 0,-2 1,-1 0,-2 1,-1 0,-2 1,-1 0,-2 1,-1 0,-1 -2,0 -1,1 0,2 -1,1 0,1 -1,1 1,1 0,3 -21,63 0,1 20,-61 -1,1 0,2 -1,1 0,2 -1,1 0,2 -1,1 0,2 -1,1 0,3 -1,1 0,2 -1,1 0,2 -1,1 0,2 -1,1 0,1 -1,1 0,4 -1,1 0,2 -1,1 0,2 -1,1 0,3 -1,1 0,2 -2,2 -1,0 0,1 -1,1 0,5 -1,1 0,2 19,-57 -20,61 2,-1 -2,1Z"/>
<path onmouseover="hoverPath(evt)" onmouseout="recoverPath(evt)" fill="rgb(234,230,216)" d="M  44,163l 0,0 -1,1 -2,0 -1,-1 0,-3 -1,0 0,2 -1,1 0,3 -1,1 0,2 -1,1 0,3 -1,1 0,4 -1,1 0,1 3,0 1,1 0,4 -1,1 1,0 -1,1 2,-4 0,-3 1,-1 0,-2 1,-1 0,-2 1,-1 0,-4 1,-1 0,-1 1,-1 0,-3 1,-1 0,-1 1,-1 0,-2 1,-1 0,-3 1,-1 0,-2 1,-1 0,-2 1,-1 0,-2 1,-1 0,-2 1,-1 1,-1 0,-3 -1,2 0,0 -1,1 0,1 1,-1 -2,3 0,1 -1,2 0,1 -1,2 0,1 -1,2 0,1 -1,2 0,2 -1,1 0,2 -1,1 1,1 -1,1Z"/>
<path onmouseover="hoverPath(evt)" onmouseout="recoverPath(evt)" fill="rgb(174,199,236)" d="M  66,118l 0,0 -1,-1 -4,0 -1,-1 -4,0 -1,-1 0,1 1,1 0,3 3,0 1,1 3,0 1,1 5,0 0,-1 1,-1 7,0 1,-1 7,0 1,1 1,1 1,1 0,3 8,0 1,1 6,0 1,1 6,0 1,1 6,0 1,1 6,0 1,1 6,0 1,1 6,0 1,1 7,0 1,1 3,0 0,-1 1,-1 2,0 0,-1 1,-1 0,-1 1,-1 5,0 1,1 4,0 1,1 4,0 1,1 9,0 1,-1 11,0 -1,-1 -1,0 -1,-1 -1,0 -1,-1 -1,-1 -1,-1 -4,0 0,1 -1,1 -1,0 -1,1 -13,0 -1,-1 -1,0 -1,-1 0,-2 -1,-1 -4,0 -1,1 -8,0 -1,-1 -2,0 -1,-1 -1,0 -1,-1 -4,0 -1,-1 -6,0 -1,-1 -6,0 -1,-1 -10,0 -1,-1 -15,0 -1,1 -20,0 -1,1 -9,0 -11,-5 1,-1 2,0 0,-1 1,-1 0,-2 1,-1 0,-2 1,-1 0,-2 1,-1 2,0 1,-1 0,-3 1,-1 1,-1 1,-1 2,0 0,-2 1,-1 0,-2 1,-1 1,-1 17,0 -19,1 -1,0 -1,1 -5,0 0,1 -1,1 0,2 -1,1 0,2 -1,1 0,3 -1,1 0,2 -1,1 0,2 -1,1 0,2 -1,1 -2,0 0,3 11,5Z"/>
<path onmouseover="hoverPath(evt)" onmouseout="recoverPath(evt)" fill="rgb(176,200,235)" d="M  70,208l 9,0 1,-1 6,0 1,-1 4,0 0,-1 1,-1 0,-2 -1,-1 -8,0 -1,-1 -9,0 -1,-1 -16,0 -1,-1 -7,0 -1,-1 -5,0 0,1 -1,1 0,4 2,0 1,1 9,0 1,1 5,0 1,1 0,3 4,0 1,-1 5,0 -10,2 -1,0 0,3 1,-3 10,-2Z"/>
<path onmouseover="hoverPath(evt)" onmouseout="recoverPath(evt)" fill="rgb(235,237,233)" d="M  77,163l 0,2 -1,1 0,10 -1,1 0,1 5,0 1,1 0,3 1,-3 7,0 0,-5 1,-1 0,-9 -7,0 -1,-1Z"/>
<path onmouseover="hoverPath(evt)" onmouseout="recoverPath(evt)" fill="rgb(172,198,238)" d="M  88,39l 0,0 -1,1 0,1 -1,1 0,2 -1,1 0,4 -1,1 0,1 -1,1 0,1 -1,1 0,1 -1,1 0,1 -1,1 -4,0 0,1 -1,1 0,1 -1,1 -2,0 0,1 1,1 0,3 -1,1 0,1 -1,1 0,2 -1,1 0,2 -1,1 0,2 -1,1 0,2 -1,1 0,1 -1,1 0,1 3,0 1,1 1,0 1,-1 19,0 1,1 1,0 0,-3 1,-1 0,-6 1,-1 0,-7 1,-1 0,-10 1,-1 0,-9 1,-1 0,-6 1,-1 0,-12 -2,0 -1,-1 -3,0 -1,-1 -1,1 0,1 -1,1 -1,1 0,2 -1,1 0,2 1,1 0,2 -1,1 0,1 4,48 0,1 -1,1 -17,0 -1,1 0,2 -1,1 0,2 -1,1 0,1 1,1 2,0 1,1 3,0 1,1 0,6 1,1 1,1 1,0 1,1 2,0 1,1 1,1 1,0 1,1 1,0 0,-4 1,-1 0,-9 1,-1 0,-10 -4,-48Z"/>
<path onmouseover="hoverPath(evt)" onmouseout="recoverPath(evt)" fill="rgb(236,238,234)" d="M  100,55l -1,0 0,2 -1,1 0,10 -1,1 0,5 11,0 1,1 11,0 1,1 6,0 0,-3 1,-1 0,-8 1,-1 0,-5 -1,0 -1,-1 -11,0 -1,-1 -13,0 -1,-1Z"/>
<path onmouseover="hoverPath(evt)" onmouseout="recoverPath(evt)" fill="rgb(234,235,230)" d="M  131,219l 0,4 -1,1 0,9 -1,1 0,1 1,1 1,1 0,2 -1,1 -2,0 -1,-1 0,1 1,1 0,2 1,1 1,1 0,1 7,0 1,-1 2,0 0,-3 1,-1 0,-9 1,-1 0,-10 1,-1 -2,0 -1,-1 0,-2 -9,0Z"/>
<path onmouseover="hoverPath(evt)" onmouseout="recoverPath(evt)" fill="rgb(236,238,234)" d="M  155,7l 0,0 -1,1 0,7 -1,1 0,5 10,0 1,1 2,0 1,-1 0,-4 1,-1 0,-9 -11,0 -1,-1 -1,1Z"/>
<path onmouseover="hoverPath(evt)" onmouseout="recoverPath(evt)" fill="rgb(253,253,253)" d="M  200,143l 0,1 13,0 1,1 11,0 1,1 4,0 1,1 1,0 1,-1 4,0 1,1 9,0 1,1 7,0 0,-1 -3,0 -1,-1 -7,0 -1,-1 -11,0 -1,-1 -1,0 -1,1 -2,0 -1,-1 -11,0 -1,-1 -10,0 -1,-1 -2,0 -1,1Z"/>
<path onmouseover="hoverPath(evt)" onmouseout="recoverPath(evt)" fill="rgb(242,242,235)" d="M  215,39l -1,0 0,5 1,-2 4,0 1,1 7,0 1,1 8,0 1,1 7,0 1,1 4,0 1,-1 3,0 1,1 1,0 0,-7 -5,0 -1,-1 -7,0 -1,-1 -6,0 -1,-1 -7,0 -1,-1 -6,0 -1,-1 -5,0 0,1 4,0 1,1 0,2 -1,1Z"/>
</svg>