<svg width="256" height="256" xmlns="http://www.w3.org/2000/svg"><script> 
var tempColor;
function hoverPath(evt){
obj = evt.target;
tempColor = obj.getAttribute("fill");
obj.setAttribute("fill","red");
//alert(tempColor);
//obj.setAttribute("stroke","red");}
function recoverPath(evt){
obj = evt.target;
obj.setAttribute("fill", tempColor);
//obj.setAttribute("stroke", tempColor);
}</script><path onmouseover="hoverPath(evt)" onmouseout="recoverPath(evt)" fill="rgb(173,200,237)" d="M  0,56l 0,50 2,0 1,-1 0,-3 -1,-1 0,-4 -1,-1 0,-4 1,-1 3,0 1,1 1,1 0,1 1,1 0,1 1,1 0,1 1,1 0,1 1,0 1,-1 2,0 1,-1 1,0 1,-1 1,0 1,-1 4,0 0,-6 -1,-1 0,-2 -1,-1 0,-1 -1,-1 -1,1 -3,0 -1,-1 0,-2 1,-1 0,-1 -1,-1 0,-3 -1,-1 0,-5 1,-1 1,-1 2,0 1,-1 3,0 1,1 0,2 1,1 0,2 1,1 0,3 1,1 0,3 1,1 0,8 1,1 2,0 0,-1 1,-1 0,-1 -1,-1 0,-7 -1,-1 0,-5 -1,-1 0,-12 -1,-1 0,-3 -1,-1 0,-1 -1,-1 0,-11 -1,-1 0,-1 -1,-1 0,-2 1,-1 0,-3 -2,0 -1,-1 0,-4 -1,-1 0,-5 1,-1 0,-8 -1,0 -1,-1 0,-1 -1,-1 0,-4 -1,-1 0,-6 -11,0 0,1 1,1 0,2 1,1 0,3 1,1 0,2 1,1 0,1 1,1 0,3 -1,1 0,1 1,1 0,2 1,1 0,1 1,1 0,1 1,1 0,2 1,1 0,4 1,1 0,3 -1,1 -1,1 -5,0 -1,1 -4,0 -1,1 -3,0Z"/>
<path onmouseover="hoverPath(evt)" onmouseout="recoverPath(evt)" fill="rgb(175,200,237)" d="M  102,200l 0,8 -1,1 0,18 -1,1 0,9 1,1 4,0 0,-1 1,-1 3,0 1,1 1,0 1,1 2,0 1,-1 5,0 1,-1 4,0 0,-1 1,-1 1,0 0,-1 1,-1 0,-2 1,-1 2,0 0,-2 -1,-1 0,-5 -1,-1 0,-7 -1,-1 0,-6 -1,-1 0,-7 -1,-1 0,-7 -1,-1 -1,-1 0,-4 -1,-1 0,-3 -1,-1 0,-1 -3,0 -1,-1 -2,0 0,2 -1,1 -2,0 -1,1 -2,0 -1,1 -3,0 -1,1 -2,0 -1,1 0,8 -1,1 0,4 1,1Z"/>
<path onmouseover="hoverPath(evt)" onmouseout="recoverPath(evt)" fill="rgb(244,243,235)" d="M  164,144l 0,26 -1,1 0,2 1,1 0,4 -1,1 2,0 1,1 0,1 1,1 1,1 0,2 1,1 0,2 1,1 0,9 -1,1 0,4 -1,1 0,1 -1,1 0,3 -1,1 0,8 1,1 0,3 1,1 0,2 1,0 1,-1 6,0 0,-4 1,-1 1,0 -1,-1 0,-1 -1,-1 -1,-1 0,-2 -1,-1 0,-3 1,-1 0,-1 1,-1 2,0 1,-1 4,0 1,1 1,0 1,1 0,2 1,1 0,6 2,0 1,-1 3,0 1,-1 3,0 0,-4 -1,-1 0,-8 -1,-1 0,-8 -1,-1 0,-4 -5,0 -1,1 -5,0 -1,-1 -1,-1 0,-2 -6,0 -1,-1 -1,-1 0,-4 1,-1 1,0 1,-1 6,0 1,-1 6,0 1,-1 3,0 0,-1 -5,0 -1,1 -6,0 -1,1 -3,0 -1,-1 0,-1 -1,-1 0,-1 -3,0 -1,-1 0,-3 1,-1 1,0 1,-1 -1,-1 0,-4 1,-1 1,0 1,-1 6,0 1,-1 7,0 -1,-1 0,-2 -1,-1 0,-2 -1,-1 0,-3 -1,-1 0,-2 -1,-1 0,-1 -1,1 -4,0 -1,1 -9,0 -1,-1 -4,0 -1,1Z"/>
<path onmouseover="hoverPath(evt)" onmouseout="recoverPath(evt)" fill="rgb(171,198,237)" d="M  174,168l -1,0 0,1 3,0 1,1 0,1 1,1 0,1 1,0 1,-1 6,0 1,-1 5,0 0,-1 -1,-1 0,-5 -1,-1 0,-4 -6,0 -1,1 -6,0 -1,1 -1,0 0,2 1,1 0,2 -1,1 -1,1Z"/>
<path onmouseover="hoverPath(evt)" onmouseout="recoverPath(evt)" fill="rgb(245,244,237)" d="M  0,1l 0,39 2,0 1,-1 4,0 1,-1 5,0 1,-1 0,-1 -1,-1 0,-4 -1,-1 0,-2 -1,-1 0,-1 -1,-1 0,-1 -1,-1 0,-2 -1,-1 0,-3 1,-1 0,-1 -1,-1 0,-1 -1,-1 0,-2 -1,-1 0,-3 -1,-1 0,-2 -1,-1 0,-2 -3,0 -1,1Z"/>
<path onmouseover="hoverPath(evt)" onmouseout="recoverPath(evt)" fill="rgb(244,243,237)" d="M  19,1l 0,4 1,1 0,4 1,1 0,1 3,0 1,-1 3,0 1,-1 2,0 1,-1 2,0 1,-1 2,0 1,-1 2,0 1,-1 3,0 1,-1 0,-1 1,-1 0,-3 -26,0 -1,1Z"/>
<path onmouseover="hoverPath(evt)" onmouseout="recoverPath(evt)" fill="rgb(174,199,234)" d="M  56,145l -1,0 -1,1 -3,0 -1,-1 0,-4 -1,-1 -1,-1 -1,-1 0,-1 -1,-1 -2,0 -1,-1 0,-2 1,-1 1,-1 0,-1 -1,-1 0,0 -1,-1 0,-2 -1,-1 0,-1 -1,-1 0,-2 -1,-1 0,-1 -1,-1 0,-2 -1,-1 0,-1 -1,-1 0,-2 -4,0 -1,-1 0,-6 1,-1 1,-1 4,0 0,-3 -1,-1 0,-8 -4,0 -1,1 0,1 -1,1 -4,0 -1,-1 -1,0 0,5 -1,1 -4,0 0,1 1,0 1,1 1,0 1,1 0,1 1,1 0,5 -1,1 -1,0 -1,1 -1,1 -1,1 -4,0 0,1 -1,1 0,1 -1,1 -2,0 -1,1 -1,0 -1,1 -3,0 0,1 -1,1 -1,0 -1,1 -3,0 0,8 1,0 1,-1 1,0 1,-1 1,-1 1,0 1,-1 1,0 1,-1 9,0 1,1 3,0 1,1 1,1 0,2 1,1 0,2 1,1 0,1 1,1 0,2 1,1 0,1 2,0 1,1 0,2 -1,1 -1,0 0,1 1,1 0,1 1,1 0,1 1,1 1,1 0,1 1,1 0,1 1,1 0,1 1,1 0,1 1,1 1,1 2,0 1,1 0,2 -1,1 0,3 -1,1 -2,0 -1,-1 -3,0 -1,1 -1,0 -1,1 -2,0 -1,1 -2,0 -1,1 0,1 1,1 0,0 1,1 0,1 1,1 0,1 1,1 1,1 1,1 1,-1 1,0 1,-1 1,0 1,-1 1,0 1,-1 1,0 1,-1 0,-3 -1,-1 0,-2 18,-23 -16,22 1,0 1,1 1,1 0,1 1,1 2,0 1,-1 1,0 1,-1 2,0 1,-1 1,0 1,-1 1,0 1,-1 2,0 1,-1 1,0 0,-2 -1,-1 0,-1 -1,-1 0,-1 -1,-1 0,-1 -1,-1 -1,0 -1,1 -3,0 -1,-1 0,-2 1,-1 1,0 1,-1 1,0 0,-2 1,-1 2,0 1,1 1,0 1,-1 2,0 1,-1 1,0 1,-1 1,0 1,-1 1,0 1,-1 1,0 0,-1 -1,-1 0,-1 -1,-1 0,-3 1,-1 3,0 1,-1 1,0 1,-1 1,-1 0,-3 1,-1 0,-1 -2,0 -1,-1 0,-1 -1,1 -2,0 -1,1 1,1 0,1 1,1 0,2 -1,1 -1,0 -1,1 -2,0 -1,1 -1,0 -1,1 -1,0 -1,1 -2,0 0,3 -1,1 -1,1 -1,0 -17,23 16,-22Z"/>
<path onmouseover="hoverPath(evt)" onmouseout="recoverPath(evt)" fill="rgb(240,240,235)" d="M  130,0l -7,0 0,3 1,1 0,4 -1,1 3,0 1,1 0,2 1,1 0,6 3,0 1,1 0,3 1,1 0,5 1,1 0,4 1,1 0,5 1,1 0,4 3,0 0,-3 1,-1 0,-5 1,-1 0,-3 1,-1 0,-3 1,-1 0,-2 -1,-1 0,-14 -1,-1 0,-4 -1,-1 0,-4 -10,0 -10,9 -1,0 -1,1 -4,0 -1,1 -4,0 -1,1 -2,0 0,1 3,-1 5,-1 1,0 4,-1 1,-1 10,-9Z"/>
<path onmouseover="hoverPath(evt)" onmouseout="recoverPath(evt)" fill="rgb(244,243,237)" d="M  240,1l 0,0 1,1 0,1 2,2 0,3 1,0 1,1 1,1 0,1 1,1 0,2 2,0 1,1 0,1 1,1 -1,-3 0,-1 1,-1 1,-1 3,0 0,-11 -14,0 -1,1Z"/>
<path onmouseover="hoverPath(evt)" onmouseout="recoverPath(evt)" fill="rgb(174,200,236)" d="M  40,98l 0,5 -1,1 -4,0 -1,1 0,4 4,0 1,1 0,2 1,1 0,1 1,1 0,2 1,1 0,1 1,1 0,2 1,1 0,1 1,1 0,2 1,1 1,0 1,-1 1,0 1,-1 1,-1 1,0 1,-1 1,0 1,-1 1,-1 1,0 1,-1 1,0 -1,-1 0,-3 1,-1 2,0 1,-1 0,-1 -1,-1 0,-2 1,-1 1,-1 0,-4 -1,-1 -1,-1 -1,0 -1,-1 0,-1 -1,-1 -1,0 -1,-1 0,-2 1,-1 2,0 1,-1 1,0 1,-1 2,0 1,-1 2,0 1,1 1,1 1,1 0,2 1,1 0,2 1,1 0,3 1,1 0,2 1,1 0,3 1,1 0,2 1,1 0,3 1,1 0,3 1,1 0,3 1,1 0,2 1,1 0,1 1,1 0,2 1,1 0,8 -1,1 0,2 1,1 0,1 1,1 0,1 1,1 0,1 1,1 0,1 1,1 0,3 1,1 0,2 -1,1 0,6 1,1 0,3 1,1 0,7 -1,1 -3,0 -1,1 -2,0 -1,1 -2,0 -1,1 -2,0 -1,-1 0,-1 -1,-1 -1,-1 0,-1 -1,-1 -1,-1 0,-1 -1,0 -2,-2 0,-2 -1,-1 0,-1 -1,-1 -1,-1 -1,-1 -2,0 -1,-1 -1,1 -2,0 -1,1 -1,0 -1,1 -1,0 -1,1 -2,0 -1,1 -1,0 -1,1 -4,0 -1,-1 -1,-1 0,4 -1,1 -1,1 -1,0 -1,1 -1,0 -1,1 -1,0 -1,1 -1,0 0,2 -1,1 0,1 1,1 0,1 1,1 0,1 1,0 1,1 1,1 0,2 1,1 0,1 1,1 0,1 2,2 3,0 1,-1 3,0 1,-1 2,0 1,-1 0,-1 -1,-1 0,-2 -1,-1 0,-3 -1,-1 0,-4 1,-1 10,0 1,1 0,1 1,1 0,2 1,1 0,1 1,1 0,3 2,0 1,-1 4,0 1,1 1,-1 3,0 1,-1 2,0 1,-1 3,0 1,-1 5,0 1,1 0,4 -1,1 -3,0 -1,1 -3,0 -1,1 -3,0 -1,1 -1,0 0,1 1,1 1,-1 6,0 1,-1 5,0 1,1 0,28 -1,1 0,12 1,0 1,1 1,-1 2,0 1,1 0,1 2,0 0,-1 1,-1 1,0 -1,-1 0,-11 1,-1 0,-18 1,-1 0,-8 -1,-1 0,-5 -1,-1 0,-11 -1,-1 0,-3 -1,-1 0,-5 -1,-1 0,-2 -1,-1 0,-2 -1,-1 0,-4 -1,-1 0,-5 -1,-1 0,-10 1,-1 -2,0 -1,-1 0,-4 -1,-1 0,-4 1,-1 2,0 1,1 2,0 1,-1 2,0 1,-1 4,0 1,-1 1,-1 5,0 -2,-1 -1,-1 0,-1 -7,0 0,2 -1,1 -4,0 -1,-1 -3,0 -1,-1 0,-2 -1,-1 0,-4 -1,-1 0,-4 -1,-1 0,-3 -2,0 -1,-1 0,-7 -1,-1 0,-2 -1,-1 0,-4 -1,-1 0,-2 -1,-1 0,-5 1,-1 1,-1 1,0 1,-1 1,-1 2,0 1,1 2,0 0,-3 -7,0 -1,1 -2,0 -1,-1 -1,1 -1,1 -1,0 -1,1 -1,1 -1,1 -2,0 -1,1 -4,0 -1,1 -3,0 -1,1 -8,0 -1,1 -6,0 -1,1 -2,0 -1,1 -2,0 0,7 1,1Z"/>
<path onmouseover="hoverPath(evt)" onmouseout="recoverPath(evt)" fill="rgb(244,243,237)" d="M  94,154l 0,4 1,1 0,4 1,1 0,2 1,1 0,2 1,-3 1,0 1,-1 2,0 1,-1 2,0 1,-1 1,-1 4,0 -4,-1 0,-1 -1,-1 0,-1 -1,-1 -2,-2 0,-1 -1,-1 0,-1 -4,0 -1,1 -2,0 -1,1 -1,-8 1,-1 7,0 1,1 0,1 1,0 1,-1 1,0 0,-2 -1,0 -1,1 -1,0 -5,-1 -1,-1 -2,0 -1,1 0,2 1,8Z"/>
<path onmouseover="hoverPath(evt)" onmouseout="recoverPath(evt)" fill="rgb(173,200,237)" d="M  191,42l 0,5 -1,1 -3,0 -1,1 1,1 0,1 1,1 0,5 -1,1 0,18 5,0 1,1 1,0 0,-2 1,-1 5,0 1,-1 2,0 0,-4 -12,0 -1,-1 0,-2 1,-1 12,0 0,-9 -3,0 -1,-1 0,-2 1,-1 8,0 1,1 0,2 -1,1 -1,0 0,16 3,0 1,1 3,0 1,-1 4,0 1,1 3,0 1,-1 2,0 1,-1 3,0 1,-1 8,0 1,1 0,4 1,1 0,3 1,1 0,2 1,1 0,2 1,1 0,2 4,0 1,-1 6,0 0,-74 -2,0 -1,1 0,1 1,1 0,2 -1,1 -2,0 -2,-2 0,-1 -2,0 -1,-1 0,-2 -1,-1 0,-1 -1,-1 -1,0 -1,-1 0,-3 -2,-2 0,-1 -1,-1 0,-2 -37,0 0,1 1,1 0,1 1,1 0,1 1,1 0,1 1,1 0,1 1,1 0,1 1,1 0,1 1,1 0,1 1,1 1,1 2,0 1,1 0,2 -1,1 -1,1 -1,1 -4,0 -1,1 -1,1 0,4 -1,1 -1,1 -1,0 -1,1 -2,0 0,1 -1,1 -3,0 -1,-1 -1,-1 -1,-1 -1,-1 -1,-1 -1,-1 0,-1 -1,-1 -1,-1 0,-1 -1,-1 -1,-1 -1,-1 -1,-1 -1,-1 -1,0 -1,-1 -3,0 -1,-1 -1,0 -1,-1 -1,0 -1,-1 -1,0 -1,-1 -2,-2 0,-1 -1,0 -1,-1 -1,-1 -1,-1 -1,1 -2,0 0,2 1,1 0,3 1,1 0,7 1,1 1,1 0,3 1,1 0,3 6,0 1,-1 2,0 1,-1 3,0 1,1 1,0 1,1 1,1 1,0 1,1 1,1 1,1 1,1 1,1 1,0 1,1 0,2 1,1Z"/>
<path onmouseover="hoverPath(evt)" onmouseout="recoverPath(evt)" fill="rgb(173,199,237)" d="M  202,82l 0,1 -1,1 -2,0 -1,-1 -3,0 -1,1 -4,0 0,4 -1,1 -2,0 -1,-1 0,-3 -1,0 -1,1 -5,0 -1,1 -3,0 0,1 1,1 0,4 1,1 0,4 1,1 0,2 1,1 0,2 1,1 0,3 1,1 0,3 1,1 0,2 1,1 0,3 1,1 0,2 1,1 0,1 2,0 1,-1 2,0 1,-1 2,0 1,-1 4,0 1,-1 1,-1 4,0 1,-1 2,0 1,-1 3,0 1,-1 2,0 1,-1 3,0 1,-1 2,0 1,-1 3,0 1,-1 2,0 1,-1 2,0 0,-2 -1,-1 0,-3 -1,-1 0,-3 -1,-1 0,-2 -1,-1 0,-3 -1,-1 0,-4 -1,-1 0,-1 -1,-1 0,-3 -1,-1 0,-2 -1,-1 0,-3 1,-1 -4,0 -1,-1 -2,0 -1,1 -3,0 0,2 -1,1 -3,0 -1,1 -4,0 -1,1 -1,0 1,1Z"/>
<path onmouseover="hoverPath(evt)" onmouseout="recoverPath(evt)" fill="rgb(243,242,237)" d="M  67,169l 0,0 1,1 0,1 1,1 0,2 1,1 1,0 1,1 0,1 1,1 1,1 0,1 1,1 1,1 0,1 1,-1 2,0 1,-1 2,0 1,-1 3,0 0,-5 -1,-1 0,-3 -1,-1 0,-8 1,-1 -1,-1 0,-3 -1,-1 0,-1 -1,-1 0,-1 -1,-1 0,-1 -1,-1 0,-1 -1,-1 0,-4 1,-1 0,-6 -1,-1 0,-2 -1,-1 0,2 -1,1 -1,1 -1,1 -1,0 -1,1 -3,0 0,1 1,1 0,1 1,1 0,3 -1,1 -1,0 -1,1 -1,0 -1,1 -1,0 -1,1 -1,0 -1,1 -2,0 -1,1 -3,0 -1,-1 0,2 -1,1 -1,0 -1,1 -1,0 4,-1 1,0 1,1 1,1 0,1 1,1 0,1 1,1 0,1 1,1 0,4 2,0 1,1 1,1 1,1Z"/>
<path onmouseover="hoverPath(evt)" onmouseout="recoverPath(evt)" fill="rgb(170,197,236)" d="M  80,51l 0,3 1,1 0,6 1,1 0,7 1,1 0,6 -1,1 7,0 -1,-1 0,0 -1,-1 0,-2 1,-1 2,0 1,-1 7,0 1,1 1,0 1,-1 0,-2 1,-1 1,0 1,-1 1,0 1,-1 1,-1 1,0 1,-1 1,0 1,-1 1,-1 1,-1 0,-5 1,-1 3,0 1,-1 2,0 1,1 1,1 1,-1 1,0 1,-1 1,0 1,-1 2,0 1,-1 2,0 0,-1 -1,-1 0,-6 -1,-1 0,-4 -1,0 -1,1 -3,0 -1,1 -3,0 -1,1 -3,0 -1,1 -4,0 -1,-1 0,-1 -1,-1 0,-2 -1,-1 0,-3 -1,1 0,0 -1,1 -1,0 -1,1 0,1 -1,1 -1,1 -1,1 0,2 1,1 0,2 -1,1 -4,0 -1,1 -3,0 -1,1 -4,0 -1,1 -6,0 -1,-1 -1,0Z"/>
<path onmouseover="hoverPath(evt)" onmouseout="recoverPath(evt)" fill="rgb(178,202,237)" d="M  115,62l -4,4 -1,0 -1,1 -1,0 -1,1 -1,1 -1,0 -1,1 -1,0 0,2 -1,1 -1,1 -3,0 -1,-1 -5,0 -1,1 -2,0 1,1 0,0 1,1 0,7 -1,1 -4,0 -1,-1 -1,1 -1,1 -1,0 -1,1 0,3 1,1 0,2 1,1 0,4 1,1 0,2 1,1 0,7 1,-7 2,0 1,-1 3,0 1,-1 3,0 1,-1 3,0 1,-1 3,0 1,-1 3,0 0,-2 1,-1 3,0 1,-1 3,0 1,-1 3,0 0,-7 1,-1 2,0 1,1 0,5 3,0 1,-1 3,0 1,-1 3,0 1,-1 1,0 1,-1 1,0 1,-1 1,0 0,-1 -1,-1 0,-8 -1,-1 0,-3 -1,-1 0,-1 -1,0 -1,-1 0,-1 -1,-1 0,-2 -1,-1 0,-2 -1,-1 0,-5 -2,0 -1,1 -2,0 -1,1 -1,0 -1,1 -1,0 -1,1 -2,0 -1,-1 -1,-1 -1,1 -3,0Z"/>
<path onmouseover="hoverPath(evt)" onmouseout="recoverPath(evt)" fill="rgb(243,242,234)" d="M  167,34l -2,0 0,2 1,1 0,3 1,1 0,2 6,0 1,-1 6,0 1,-1 3,0 1,1 1,1 0,1 1,1 0,1 2,0 0,-3 -1,-1 0,-2 -1,0 -1,-1 -1,-1 -1,-1 -1,-1 -1,-1 -1,0 -1,-1 -1,-1 -1,0 -1,-1 -1,0 -1,1 -2,0 -1,1Z"/>
<path onmouseover="hoverPath(evt)" onmouseout="recoverPath(evt)" fill="rgb(240,241,236)" d="M  170,12l 1,1 1,0 1,1 1,0 1,1 1,0 1,1 3,0 1,1 1,0 1,1 1,1 1,1 1,1 1,1 1,1 0,1 1,1 1,1 0,1 1,1 1,1 1,1 1,1 1,1 1,0 0,-1 1,-1 2,0 1,-1 1,0 1,-1 0,-4 2,-2 1,-1 4,0 1,-1 1,-1 -2,0 -1,-1 -1,-1 -1,-1 0,-1 -1,-1 0,-1 -1,-1 0,-1 -1,-1 0,-1 -1,-1 0,-1 -1,-1 0,-1 -1,-1 0,-1 -1,-1 0,-2 -54,0 0,3 1,1 0,4 1,1 0,6 1,1 0,6 1,1 0,9 -1,1 0,2 -1,1 0,3 4,0 1,-1 6,0 1,-1 2,0 0,-3 -1,-1 0,-3 -1,-1 0,-5 1,-1 0,-6 -1,-1 0,-3 -1,-1 0,-4 1,-1 2,0 1,-1 2,0 1,1 2,2 1,0 1,1 0,1 1,1Z"/>
<path onmouseover="hoverPath(evt)" onmouseout="recoverPath(evt)" fill="rgb(175,201,236)" d="M  187,131l 0,1 1,1 0,3 1,1 0,2 1,1 0,2 1,1 0,2 1,1 0,3 1,1 0,2 1,1 0,3 1,1 0,2 1,1 0,5 1,1 0,4 3,0 0,-2 1,-1 4,0 1,1 1,0 1,-1 1,-1 5,0 1,1 0,-1 1,-1 4,0 1,-1 3,0 1,-1 2,0 -3,-1 0,-2 -1,-1 0,-1 -1,-1 0,-2 -1,-1 0,-1 -1,-1 0,-1 -1,-1 0,-2 -1,-1 0,-1 -1,-1 0,-2 1,-1 -2,0 -1,-1 0,-2 -1,-1 0,-1 -1,-1 0,-1 -1,-1 0,-1 -2,0 -1,-1 0,-3 1,-1 -1,-1 0,-4 -2,0 -1,1 -3,0 -1,1 -2,0 -1,1 -4,0 -1,1 -1,1 -2,0 -1,1 -3,0Z"/>
<path onmouseover="hoverPath(evt)" onmouseout="recoverPath(evt)" fill="rgb(175,201,236)" d="M  199,187l 0,5 1,1 0,7 1,1 0,9 1,1 0,1 2,0 1,1 0,2 -1,1 -1,1 -1,0 0,1 1,1 0,1 4,0 1,-1 2,0 1,1 1,-1 6,0 1,-1 5,0 0,-1 -1,-1 0,-2 1,-1 1,0 1,-1 1,0 1,-1 1,0 1,-1 1,-1 1,-1 0,-1 1,-1 1,-1 1,-1 1,0 1,-1 1,-1 3,0 1,-1 1,0 0,-1 1,-1 0,-2 -1,-1 0,-3 -2,0 -1,-1 0,-2 -4,0 -1,1 -1,0 0,1 1,1 0,3 -1,1 -2,0 -1,-1 0,-1 -5,0 -1,-1 0,-2 1,-1 3,0 0,-1 -1,-1 0,-2 -1,-1 0,-2 -1,-1 -1,1 -5,0 -1,-1 -1,-1 0,-3 -1,-1 0,-1 -1,-1 0,-2 -1,-1 0,-1 -1,-1 0,-1 -1,-1 0,-1 -3,0 -1,1 -1,1 -3,0 -1,-1 -2,0 0,2 -1,1 -4,0 1,1 0,13 1,1Z"/>
<path onmouseover="hoverPath(evt)" onmouseout="recoverPath(evt)" fill="rgb(244,243,235)" d="M  0,132l 0,77 1,0 1,-1 3,0 1,-1 3,0 1,-1 2,0 1,-1 4,0 1,-1 3,0 1,-1 3,0 1,-1 3,0 1,-1 3,0 1,-1 3,0 1,-1 -1,-1 0,0 -1,-1 0,-1 -1,-1 0,-1 -1,-1 0,-2 -1,-1 -1,0 -1,-1 0,-1 -1,-1 0,-1 -1,-1 0,-3 1,-1 -1,0 -1,-1 -1,-1 -1,-1 -1,-1 0,-1 -1,-1 0,-1 -1,-1 -1,-1 0,-3 1,-1 1,-1 2,0 1,-1 2,0 1,-1 1,0 1,-1 5,0 1,1 0,-3 1,-1 -2,0 -1,-1 -1,-1 -1,-1 0,-1 -1,-1 0,-1 -1,-1 0,-1 -1,-1 0,-1 -1,-1 -1,-1 0,-1 -1,-1 0,-1 -1,-1 0,-3 1,-1 -1,0 -1,-1 0,-1 -1,-1 0,-2 -1,-1 0,-1 -1,-1 0,-2 -1,-1 0,-2 -1,-1 -3,0 -1,-1 -7,0 -1,1 -1,0 -1,1 -1,0 -1,1 -1,1 -1,0 -1,1 -1,0 -1,1Z"/>
<path onmouseover="hoverPath(evt)" onmouseout="recoverPath(evt)" fill="rgb(239,237,235)" d="M  115,252l -5,0 -1,-1 0,1 -1,1 -4,0 -1,-1 0,1 -1,1 0,1 12,0 0,-2 1,-1 5,0 1,-1 5,0 1,-1 6,0 1,-1 7,0 1,-1 4,0 1,-1 3,0 1,-1 5,0 1,1 0,5 1,-1 0,0 1,-1 1,-1 1,0 1,-1 1,-1 11,0 -10,-1 0,-2 -2,0 -1,1 -9,0 -1,-1 -1,0 0,1 -1,1 -2,0 -1,1 -7,0 -1,-1 0,1 -1,1 -4,0 -1,-1 0,1 -1,1 -4,0 -1,-1 0,1 -1,1 1,0 -10,2 -1,0 5,-1 -5,1Z"/>
<path onmouseover="hoverPath(evt)" onmouseout="recoverPath(evt)" fill="rgb(242,241,231)" d="M  150,123l 0,-1 -1,-1 0,-5 -1,-1 0,30 1,1 0,24 1,1 0,6 1,1 0,5 1,1 0,4 1,1 0,4 1,1 0,5 1,1 0,5 1,1 0,2 1,0 1,-1 3,0 0,-2 1,-1 0,-2 1,-1 0,-2 1,-1 1,0 0,-9 -1,-1 0,-1 -1,-1 0,-1 -1,-1 0,-3 -1,-1 0,-1 -1,-1 -1,-1 0,-1 -1,-1 0,-1 -1,-1 0,-4 1,-1 0,-1 1,-1 0,-3 -1,-1 0,-4 -1,-1 0,-11 -1,-1 0,-5 -1,-1 0,-3 -1,-1 0,-3 -1,-1 0,-2 -1,-1 0,-1 -1,-1 0,-2 -1,-1Z"/>
<path onmouseover="hoverPath(evt)" onmouseout="recoverPath(evt)" fill="rgb(174,200,237)" d="M  211,124l 0,2 1,1 0,2 -1,1 0,1 2,0 1,1 0,1 1,1 0,1 1,1 0,1 1,1 0,2 2,0 1,1 0,2 -1,1 1,1 0,1 1,1 0,2 1,1 0,1 1,1 0,1 1,1 0,2 1,1 0,1 1,1 0,2 2,0 1,1 0,2 -1,1 -2,0 -1,1 -3,0 -1,1 -4,0 1,1 0,2 7,0 1,-1 9,0 0,-1 1,-1 2,0 1,-1 3,0 1,-1 3,0 1,-1 1,0 0,-9 1,-1 6,0 0,-44 -3,0 -1,1 -4,0 -1,1 -1,0 -1,1 -4,0 -1,1 -1,0 -1,1 -4,0 -1,1 -1,0 -1,1 -4,0 -1,1 -1,0 -1,1 -2,0 -1,1 -4,0 -1,1 -1,0 -1,1 -2,0Z"/>
<path onmouseover="hoverPath(evt)" onmouseout="recoverPath(evt)" fill="rgb(176,201,237)" d="M  225,76l 0,0 -1,1 0,1 1,1 0,2 1,1 0,3 1,1 0,1 1,1 0,4 1,1 0,3 1,1 0,2 1,1 0,3 1,1 0,3 1,1 0,3 1,0 1,-1 0,0 1,-1 2,0 1,-1 3,0 1,-1 5,0 1,-1 1,-1 2,0 1,-1 2,0 0,-15 -5,0 -1,1 -6,0 -1,-1 0,-2 -1,-1 0,-2 -1,-1 0,-2 -1,-1 0,-3 -1,-1 0,-4 -6,0 -1,1 -3,0 -1,1 -2,0Z"/>
<path onmouseover="hoverPath(evt)" onmouseout="recoverPath(evt)" fill="rgb(241,239,229)" d="M  252,252l 3,0 0,-2 -1,0 -1,1 -1,0 0,1 -5,-3 -1,-1 0,-1 -1,-1 0,-1 -2,0 -1,1 -3,0 -1,1 -4,0 -1,1 -4,0 -1,1 0,2 1,1 13,0 1,-1 3,0 1,-2 5,3Z"/>
<path onmouseover="hoverPath(evt)" onmouseout="recoverPath(evt)" fill="rgb(241,240,233)" d="M  0,237l 0,18 30,0 0,-3 1,-1 1,0 1,-1 7,0 1,1 0,-1 1,-1 3,0 1,1 0,-1 1,-1 2,0 1,-1 4,0 1,-1 2,0 1,-1 7,0 1,-1 5,0 1,1 0,-1 1,-1 2,0 1,-1 6,0 1,1 0,-1 1,-1 3,0 0,-14 -1,0 -1,1 -6,0 -1,-1 0,-5 -1,-1 0,-9 1,-1 2,0 1,-1 1,0 1,-1 4,0 1,1 0,-11 -3,0 -1,1 -6,0 -1,1 -2,0 -1,-1 -1,-1 0,-2 -1,1 -1,0 -1,1 -2,0 -1,1 -2,0 -1,1 -4,0 -1,1 -3,0 -1,1 -3,0 -1,1 -3,0 -1,1 -3,0 -1,1 -3,0 -1,1 -2,0 -1,1 -4,0 -1,1 -3,0 -1,1 -3,0 -1,1 -3,0 -1,1 -3,0 -1,1 -3,0 -1,1 -3,0 -1,1 -3,0 -1,1 -3,0 0,4 1,0 1,-1 3,0 1,-1 3,0 1,-1 3,0 1,-1 3,0 1,-1 3,0 1,-1 3,0 1,-1 3,0 1,-1 4,0 1,-1 3,0 1,-1 3,0 1,-1 3,0 1,-1 4,0 1,-1 3,0 1,-1 3,0 1,-1 3,0 1,-1 3,0 1,-1 4,0 1,1 0,2 -1,1 0,1 2,0 1,1 0,1 1,1 0,3 -76,23 77,-15 0,6 1,1 5,0 1,1 0,4 -1,1 -4,0 -1,1 -5,0 -1,1 -3,0 -1,1 -3,0 -1,1 -3,0 -1,1 -4,0 -1,1 -10,0 -1,1 -4,0 -1,1 -4,0 -1,1 -4,0 -1,1 -3,0 -1,1 -3,0 -1,1 -3,0 -1,1 -5,0 -1,-1 0,-1 -1,-1 0,-3 -1,-1 0,-2 -1,-1 -1,-1 -1,0 -1,-1 -5,0 77,-14 -77,15Z"/>
<path onmouseover="hoverPath(evt)" onmouseout="recoverPath(evt)" fill="rgb(235,236,232)" d="M  1,108l -1,0 0,11 2,0 1,-1 1,0 0,-1 1,-1 3,0 1,-1 1,0 1,-1 2,0 0,-1 1,-1 0,-1 1,-1 4,0 1,-1 1,-1 1,-1 1,0 0,-3 -1,-1 0,-1 -1,0 -1,-1 -1,0 -1,-1 0,-1 -1,1 -1,0 -1,1 -2,0 -1,1 -3,0 -1,-1 0,-1 -1,-1 0,-1 -1,-1 0,-1 -1,-1 0,-1 -1,-1 -1,0 0,2 1,1 0,4 1,1 0,5 -1,1 -1,1Z"/>
<path onmouseover="hoverPath(evt)" onmouseout="recoverPath(evt)" fill="rgb(220,227,234)" d="M  63,21l 0,5 -1,1 10,0 1,1 1,1 0,5 1,1 0,4 -1,1 1,1 0,1 1,1 0,8 1,1 0,3 -1,1 1,0 1,1 0,1 1,1 0,6 1,1 0,5 1,1 0,2 -1,1 1,0 -1,1 -1,-1 0,0 -1,1 -4,0 -1,1 -2,0 -1,1 -1,1 -1,0 -1,1 -1,0 -1,1 -1,1 -1,0 0,2 1,-1 4,0 1,-1 2,0 1,-1 1,-1 1,-1 1,0 1,-1 1,-1 2,0 1,1 0,-1 -17,-56 18,50 -1,-6 0,-2 -1,-5 0,-2 -1,-1 0,-7 -1,-1 0,-5 -1,-1 0,-5 -1,4 0,0 1,2 0,0 5,29 -18,-50 12,10 0,-1 -1,-2 0,-2 1,-1 0,0 -1,-1 0,-2 -1,-1 0,-5 -1,0 -1,-1 -5,0 -1,-1 0,-2 -1,-1 -3,0 0,1 1,1 0,5 1,1 0,1 12,11 -12,-10Z"/>
<path onmouseover="hoverPath(evt)" onmouseout="recoverPath(evt)" fill="rgb(170,198,238)" d="M  81,213l -2,0 0,7 1,1 0,5 4,0 1,-1 1,0 0,-14 -2,0 -1,1 -1,0 -1,1Z"/>
<path onmouseover="hoverPath(evt)" onmouseout="recoverPath(evt)" fill="rgb(168,193,228)" d="M  79,41l 0,5 1,1 2,0 1,1 4,0 1,-1 4,0 1,-1 3,0 1,-1 4,0 -1,-1 0,-4 1,-1 1,-1 1,-1 0,-1 1,-1 1,-1 1,0 1,-1 1,-1 2,0 1,1 0,3 1,1 0,2 1,1 0,1 2,0 1,-1 3,0 1,-1 3,0 1,-1 3,0 1,-1 2,0 0,-1 -1,-1 0,-1 -1,-1 0,-7 -1,-1 0,-4 -1,-1 0,-6 -1,-1 0,-2 -4,0 -1,1 -3,0 -1,1 -5,0 -1,1 -2,0 -1,1 -2,0 0,3 -1,1 -2,0 -1,1 -9,0 -1,-1 -1,0 0,5 -1,1 -3,0 -1,1 -5,0 -1,1 -3,0 0,1 1,1 0,5 1,1 0,5 1,1Z"/>
<path onmouseover="hoverPath(evt)" onmouseout="recoverPath(evt)" fill="rgb(182,205,237)" d="M  115,109l 0,3 1,1 0,3 1,1 0,3 -1,1 1,0 1,1 0,4 -1,1 -6,0 7,1 0,5 1,1 0,7 1,-6 2,0 -3,-2 0,-6 4,0 1,-1 3,0 1,-1 3,0 1,-1 3,0 1,-1 3,0 1,-1 4,0 0,-1 -1,-1 0,-5 -2,0 -1,-1 0,-2 1,-1 1,-1 1,0 0,-1 -1,-1 0,-6 1,-1 0,-1 -1,-1 0,-5 -1,-1 0,-4 -1,0 -1,1 -3,0 -1,-1 -2,0 -1,1 -3,0 -1,1 -5,0 -1,-1 0,2 -1,1 -3,0 -1,1 -3,0 -1,1 -3,0 3,1 0,5 1,1 0,5 1,1Z"/>
<path onmouseover="hoverPath(evt)" onmouseout="recoverPath(evt)" fill="rgb(172,199,237)" d="M  167,189l 0,10 -1,1 -1,0 0,2 -1,1 0,2 -1,1 0,2 -1,1 -3,0 -1,1 -1,0 0,7 4,0 1,1 0,5 2,0 1,1 0,1 1,0 0,-1 -1,-1 0,-3 -1,-1 0,-10 1,-1 0,-3 1,-1 0,-1 1,-1 0,-13 1,8 0,-7 -1,-2 0,-1 -1,-1 0,-2 -1,-1 -1,-1 0,1 1,1 0,1 1,2 2,10 -1,-8Z"/>
<path onmouseover="hoverPath(evt)" onmouseout="recoverPath(evt)" fill="rgb(184,205,230)" d="M  179,221l -1,0 0,2 4,0 1,-1 12,0 1,-1 1,0 1,-1 0,-1 -1,-1 0,-2 -2,0 -1,1 -3,0 -1,1 -4,0 -1,-1 0,-6 -1,-1 0,-2 -1,0 -1,-1 -2,0 -1,1 -2,0 0,1 -1,1 0,1 1,1 0,2 1,1 1,1 0,1 1,1 0,2 -1,1Z"/>
<path onmouseover="hoverPath(evt)" onmouseout="recoverPath(evt)" fill="rgb(236,233,234)" d="M  225,236l -2,0 -1,-1 -2,0 3,2 1,0 1,1 1,1 1,1 5,0 1,-1 4,0 1,-1 4,0 1,-1 6,0 1,1 5,0 0,-5 -3,0 -1,-1 -2,0 -1,1 -1,0 0,1 -1,1 -2,0 -1,-1 -1,1 -10,0 -1,-1 -2,0 0,1 -1,1Z"/>
<path onmouseover="hoverPath(evt)" onmouseout="recoverPath(evt)" fill="rgb(228,233,238)" d="M  245,253l -1,0 -1,1 -15,0 -1,-1 -1,-1 0,-4 1,-1 1,-1 -1,0 -1,1 -2,0 -1,1 -10,0 -1,-1 0,-2 1,-1 3,0 1,-1 0,-2 -1,-1 -3,0 -1,1 -4,0 -1,1 -3,0 -1,1 0,4 -1,1 -10,0 -1,-1 -4,0 -1,-1 0,-4 -3,0 -1,-1 -1,0 -1,-1 -1,0 0,1 -1,1 1,0 1,1 0,3 -1,1 -1,1 1,0 1,1 2,0 1,1 0,2 1,1 0,2 71,0 0,-1 -5,0 -1,-1 -4,0 -59,-12 0,0 59,12 -16,-7 3,0 1,-1 4,0 1,-1 3,0 1,-1 4,0 1,1 0,1 1,1 0,1 1,1 1,1 2,0 1,-1 2,0 0,-8 -5,0 -1,1 -2,0 -1,1 -3,0 -14,4 16,7 -4,-10 -2,0 -2,1 -2,0 -3,1 -3,0 12,-2 4,10Z"/>
<path onmouseover="hoverPath(evt)" onmouseout="recoverPath(evt)" fill="rgb(182,149,237)" d="M  37,255l 63,0 0,-2 1,-1 0,-1 1,-1 2,0 1,1 2,0 0,-1 1,-1 2,0 1,1 4,0 1,-1 5,0 1,-1 2,0 0,-1 1,-1 2,0 1,1 2,0 0,-1 1,-1 2,0 1,1 2,0 0,-1 1,-1 2,0 1,1 5,0 1,-1 2,0 0,-1 1,-1 3,0 1,1 7,0 1,-1 4,0 1,1 0,2 9,0 1,1 1,0 1,-1 0,-1 -3,0 -1,-1 0,-2 1,-1 2,0 0,-1 1,-1 3,0 1,1 1,0 1,1 1,-1 3,0 1,1 0,2 -1,1 0,2 4,0 1,1 8,0 0,-4 1,-1 1,-1 3,0 1,-1 4,0 1,-1 5,0 1,1 1,1 0,4 -1,1 -1,1 5,0 1,-1 2,0 1,-1 1,0 1,-1 5,0 1,-1 3,0 1,-1 3,0 1,-1 3,0 1,-1 -2,0 -3,1 -2,0 -2,1 -3,0 -1,1 -7,0 -1,-1 -1,-1 -1,-1 -1,0 -1,-1 0,-1 -2,0 -1,-1 0,-2 1,-1 4,0 1,1 3,0 0,-1 1,-1 4,0 1,1 8,0 1,-1 2,0 1,1 0,-1 1,-1 1,0 1,-1 4,0 1,1 2,0 0,-13 -2,0 0,1 -1,1 -2,0 0,1 -1,1 -5,0 -1,-1 -4,0 0,1 -1,1 -3,0 -1,1 -4,0 -1,-1 0,-1 -3,0 -1,1 -8,0 -1,1 -8,0 -1,1 -4,0 0,1 -1,1 -4,0 -1,-1 -7,0 -1,1 -6,0 -1,1 -7,0 -1,1 -6,0 -1,1 -3,0 0,1 -1,1 -4,0 -1,-1 -3,0 0,1 -1,1 -2,0 -1,-1 -1,0 0,1 -1,1 -3,0 -1,-1 -2,0 0,1 -1,1 -2,0 -1,-1 -2,0 -1,1 -2,0 -1,-1 0,-1 -3,0 -1,1 0,1 -1,1 -1,0 0,1 -1,1 -4,0 -1,1 -5,0 -1,1 -4,0 -1,-1 -1,0 -1,-1 -1,0 0,1 -1,1 -5,0 -1,1 -1,0 0,1 -1,1 -4,0 -1,-1 0,-1 -1,1 -2,0 -1,-1 0,1 -1,1 -3,0 0,1 -1,1 -2,0 -1,-1 -4,0 -1,1 -2,0 0,1 -1,1 -2,0 -1,-1 -3,0 -1,1 -7,0 -1,1 -2,0 -1,1 -4,0 -1,1 -2,0 0,1 -1,1 -2,0 -1,-1 -1,0 0,1 -1,1 -2,0 -1,-1 -5,0 -1,1 -1,0 0,2Z"/>
<path onmouseover="hoverPath(evt)" onmouseout="recoverPath(evt)" fill="rgb(177,202,237)" d="M  34,11l -1,0 -1,1 -2,0 -1,1 -3,0 -1,1 -2,0 0,9 -1,1 0,3 1,1 0,4 2,0 1,1 0,3 3,0 1,1 1,1 0,3 1,1 0,4 1,1 1,0 1,-1 2,0 0,-5 1,-1 2,0 1,1 0,5 1,1 1,0 1,1 2,0 1,-1 2,0 1,-1 3,0 1,-1 2,0 1,-1 2,0 1,-1 4,0 -4,-1 0,-2 -1,-1 0,-4 -1,-1 0,-5 1,-1 1,0 0,-2 1,-1 0,-5 -1,-1 0,-5 -1,-1 0,-3 1,-1 0,-3 -1,-1 -1,-1 0,-2 1,-1 1,0 0,-1 -12,0 0,4 -1,1 0,1 -1,1 -1,1 -3,0 -1,1 -2,0 -1,1 -2,0 -1,1Z"/>
<path onmouseover="hoverPath(evt)" onmouseout="recoverPath(evt)" fill="rgb(250,251,251)" d="M  60,189l 0,-1 -1,-1 0,-2 -1,-1 0,-1 -8,0 0,2 1,1 0,3 1,1 0,2 1,1 0,3 -1,1 -1,1 -2,0 -1,1 -3,0 -1,1 -4,0 -1,1 -1,1 -3,0 -1,1 -3,0 -1,1 -3,0 -1,1 -3,0 -1,1 -3,0 -1,1 -4,0 -1,1 -2,0 -1,1 -3,0 -1,1 -3,0 -1,1 -2,0 0,3 2,0 1,-1 3,0 1,-1 3,0 1,-1 3,0 1,-1 3,0 1,-1 3,0 1,-1 3,0 1,-1 3,0 1,-1 4,0 1,-1 2,0 1,-1 3,0 1,-1 3,0 1,-1 3,0 1,-1 3,0 1,-1 3,0 1,-1 4,0 1,-1 2,0 1,-1 2,0 1,-1 1,0 1,-1 3,0 1,-1 3,0 1,-1 3,0 1,-1 3,0 0,-2 -3,0 -1,1 -3,0 -1,1 -2,0 -1,1 -3,0 -1,1 -2,0 -1,-1 -2,0 -1,1 -4,0 -1,-1 0,-3 -1,-1Z"/>
<path onmouseover="hoverPath(evt)" onmouseout="recoverPath(evt)" fill="rgb(177,201,237)" d="M  81,0l -19,0 0,2 -1,1 -1,0 1,1 0,0 1,1 0,4 3,0 1,1 1,1 0,2 5,0 1,1 1,0 1,1 0,5 1,1 0,2 3,0 1,1 4,0 1,-1 3,0 0,-5 1,-1 3,0 1,1 7,0 1,-1 2,0 0,-3 1,-1 0,-2 1,-1 2,0 1,-1 4,0 1,-1 4,0 1,-1 4,0 0,-2 -1,-1 0,-4Z"/>
<path onmouseover="hoverPath(evt)" onmouseout="recoverPath(evt)" fill="rgb(171,198,238)" d="M  95,126l 2,0 0,-2 1,-1 9,0 1,1 0,1 1,1 1,-1 6,0 0,-2 -3,0 -1,-1 0,-2 1,-1 2,0 0,-1 -1,-1 0,-3 -1,-1 0,-4 -1,-1 0,-5 -1,-1 0,-5 -1,0 -1,1 -3,0 -1,1 -3,0 -1,1 -3,0 -1,1 -3,0 -1,1 -3,0 -1,1 -2,0 0,5 1,1 0,3 1,1 0,4 1,1 0,4 1,1 0,2 3,0 1,1Z"/>
<path onmouseover="hoverPath(evt)" onmouseout="recoverPath(evt)" fill="rgb(173,200,237)" d="M  121,254l -5,0 0,1 4,0 1,-1 3,1 58,0 0,-1 -1,-1 0,-2 -2,0 -1,-1 -3,0 -1,-1 -10,0 -1,1 0,0 -1,1 -1,0 -1,1 -1,1 -1,1 -2,0 -1,-1 0,-5 -3,0 -1,1 -3,0 -1,1 -4,0 -1,1 -7,0 -1,1 -6,0 -1,1 -2,0 -1,2 -3,-1Z"/>
<path onmouseover="hoverPath(evt)" onmouseout="recoverPath(evt)" fill="rgb(180,203,236)" d="M  169,45l -1,0 0,2 1,1 0,6 1,1 0,5 1,1 0,6 1,1 0,5 1,1 0,4 1,1 0,6 3,0 1,-1 5,0 1,-1 3,0 1,1 0,-1 1,-1 4,0 1,-1 5,0 0,-2 1,-1 1,0 1,-1 4,0 1,-1 3,0 0,-1 -1,-1 -3,0 -1,-1 0,-18 1,-1 -5,0 3,13 -12,0 13,7 0,0 -1,1 -2,0 -1,1 -5,0 0,2 -1,1 -3,0 -1,-1 -5,0 -1,-1 0,-20 1,-1 0,-3 -1,-1 0,-1 -1,-1 0,-2 1,-1 0,-1 -1,-1 0,-1 -1,-1 -1,0 -1,1 -6,0 -1,1Z"/>
<path onmouseover="hoverPath(evt)" onmouseout="recoverPath(evt)" fill="rgb(173,199,237)" d="M  183,183l 0,2 1,1 3,0 1,-1 5,0 0,-7 -1,-1 0,-1 -1,0 -1,1 -6,0 -1,1 -6,0 -1,1 -1,0 0,2 1,1 6,0 1,1Z"/>
<path onmouseover="hoverPath(evt)" onmouseout="recoverPath(evt)" fill="rgb(182,205,237)" d="M  219,172l -2,0 1,1 0,2 1,1 0,1 1,1 0,3 1,1 3,0 1,-1 2,0 1,1 1,1 0,2 1,1 0,2 1,1 0,3 -1,1 2,0 1,1 0,1 -1,-3 0,-2 1,-1 1,0 1,-1 6,0 1,1 0,2 2,0 1,1 0,3 1,1 0,4 -1,1 0,1 -1,1 -1,0 -1,1 -3,0 -1,1 -1,1 -1,0 -2,2 0,1 -4,4 -1,0 -1,1 -1,0 -1,1 -1,0 1,1 0,2 1,-1 16,0 1,-1 1,0 0,-5 1,-1 2,0 1,1 0,1 6,0 0,-56 -5,0 0,9 -1,1 -1,0 -1,1 -3,0 -1,1 -3,0 -1,1 -2,0 0,1 -1,1 -9,0 -1,1Z"/>
<path onmouseover="hoverPath(evt)" onmouseout="recoverPath(evt)" fill="rgb(170,198,238)" d="M  0,223l 0,11 6,0 1,1 1,0 1,1 2,2 0,2 1,1 0,3 1,1 0,1 3,0 1,-1 3,0 1,-1 3,0 1,-1 3,0 1,-1 4,0 1,-1 4,0 1,-1 4,0 1,-1 10,0 1,-1 4,0 1,-1 3,0 1,-1 3,0 1,-1 3,0 1,-1 5,0 1,-1 4,0 0,-2 -5,0 -1,-1 -1,-1 0,-13 -1,-1 0,-3 -1,-1 0,-1 -2,0 -1,-1 -1,-1 0,-2 -4,0 -1,1 -3,0 -1,1 -3,0 -1,1 -3,0 -1,1 -4,0 -1,1 -3,0 -1,1 -3,0 -1,1 -3,0 -1,1 -4,0 -1,1 -3,0 -1,1 -3,0 -1,1 -3,0 -1,1 -3,0 -1,1 -3,0 -1,1 -3,0 -1,1 -3,0 -1,1 -1,0 -1,1 69,-18 -69,18Z"/>
<path onmouseover="hoverPath(evt)" onmouseout="recoverPath(evt)" fill="rgb(244,243,237)" d="M  25,87l 0,-4 -1,-1 0,-3 -1,-1 0,-3 -1,-1 0,-2 -1,-1 0,-2 -1,0 -1,1 -2,0 -1,1 0,3 1,1 0,3 1,1 0,3 -1,1 1,0 1,-1 2,0 1,1 1,1 0,1 1,1 1,1 -1,1 1,1 0,-1 -1,0 1,-1Z"/>
<path onmouseover="hoverPath(evt)" onmouseout="recoverPath(evt)" fill="rgb(241,241,235)" d="M  25,39l 0,0 1,1 0,1 1,1 0,11 1,1 0,1 1,1 0,3 1,1 0,12 1,1 0,5 1,1 0,7 1,1 0,1 7,0 1,-1 2,0 1,-1 1,0 0,-4 -1,-1 0,-9 -1,-1 0,-5 -1,-1 0,-4 1,-1 0,0 -1,-1 0,-2 -1,-1 0,-6 1,-1 -1,0 -1,-1 0,0 -1,-1 0,-5 -1,6 -2,0 -1,1 -3,0 -1,-1 -1,-1 0,-4 -1,-1 0,-3 -1,-1 -2,0 -1,1Z"/>
<path onmouseover="hoverPath(evt)" onmouseout="recoverPath(evt)" fill="rgb(170,196,233)" d="M  44,63l 0,1 1,1 0,5 1,1 0,9 1,1 0,5 3,0 1,-1 8,0 1,-1 1,0 0,-3 1,-1 1,0 2,-2 1,0 1,-1 1,0 1,-1 1,-1 2,0 1,-1 4,0 1,-1 1,0 -1,-1 0,-5 -1,-1 0,-6 -1,-1 0,-1 -5,0 -1,-1 0,-2 1,-1 4,0 0,-1 -1,-1 0,-8 -1,-1 0,-1 -1,-1 0,-2 1,-1 0,-2 -1,-1 0,-5 -1,-1 -9,0 -1,1 -1,0 0,3 1,1 0,4 1,1 0,2 3,0 1,1 0,2 -1,1 -4,0 -1,1 -2,0 -1,1 -2,0 -1,1 -3,0 -1,1 -2,0 -1,1 -3,0 -1,1 0,4 1,1 0,2 7,0 1,1 0,2 -1,1 -6,0 -1,1Z"/>
<path onmouseover="hoverPath(evt)" onmouseout="recoverPath(evt)" fill="rgb(237,239,237)" d="M  53,127l -1,0 -1,1 -1,1 -1,0 -1,1 -1,0 0,2 -1,1 -1,1 2,0 1,1 1,1 0,1 1,1 1,1 1,1 0,4 1,0 1,-1 1,0 1,-1 1,0 1,-1 0,-3 1,-1 2,0 1,-1 1,0 1,-1 1,0 1,-1 2,0 1,-1 1,0 -1,-1 0,-1 -1,-1 0,-2 1,-1 1,-1 2,0 1,-1 2,0 1,1 0,-1 -1,-1 0,-3 -1,-1 0,-3 -1,-1 0,-2 -1,-1 0,-3 -1,-1 0,-2 -1,-1 0,-3 -1,-1 0,-2 -1,-1 0,-2 -1,-1 -1,-1 -1,1 -2,0 -1,1 -1,0 -1,1 -2,0 2,1 1,1 0,1 1,0 1,1 1,1 1,1 0,6 -1,1 -1,1 1,1 0,3 -1,1 -1,1 -2,0 0,1 1,1 0,2 -1,1 -1,0 -1,1 -1,0 -1,1 -1,1 -1,0 -1,1Z"/>
<path onmouseover="hoverPath(evt)" onmouseout="recoverPath(evt)" fill="rgb(178,203,237)" d="M  104,151l 0,1 1,1 0,1 1,1 1,1 1,1 0,1 1,1 0,1 3,0 1,1 0,2 -1,1 -4,0 -1,1 -1,1 -2,0 -1,1 -2,0 -1,1 -1,0 0,2 -1,1 0,4 1,1 0,3 1,1 0,11 1,-9 0,0 1,-1 2,0 1,-1 3,0 1,-1 2,0 1,-1 2,0 0,-2 1,-1 4,0 1,1 3,0 1,1 0,1 1,1 0,3 1,1 0,4 1,1 4,0 1,-1 3,0 1,-1 2,0 1,1 0,2 -1,1 0,6 -1,1 -3,0 -1,1 -1,0 0,4 1,1 0,7 1,1 1,-1 4,0 1,1 0,2 -1,1 -2,0 -1,1 -2,0 0,4 1,1 0,7 5,0 1,-1 2,0 1,-1 3,0 1,-1 2,0 0,-1 -2,0 -1,-1 -1,-1 0,-2 1,-1 1,-1 1,0 0,-6 -1,-1 0,-3 1,-1 1,-1 0,-7 -1,-1 0,-3 -1,-1 0,-4 -1,-1 0,-5 -1,-1 0,-5 -1,-1 0,-7 -1,-1 0,-28 -1,-1 0,-8 1,-1 0,-1 -1,-1 0,-4 -2,0 -1,1 -3,0 -1,1 -3,0 -1,1 -3,0 -1,1 -3,0 -1,1 -4,0 0,2 1,1 0,1 2,0 1,1 0,2 -1,1 -2,0 0,5 -1,1 -2,0 -1,-1 0,-7 -1,-1 0,-5 -5,0 -1,1 -5,0 -1,1 -1,1 -4,0 -1,1 -2,0 -1,1 -4,0 -1,-1 0,2 1,1 0,4 2,0 1,1 3,0 1,1 1,1 3,0 1,-1 3,0 1,1 0,4 -1,1 -1,0 -1,1 -3,0 -1,-1 0,-1 -5,0 0,4 1,0 1,-1 6,0 1,1Z"/>
<path onmouseover="hoverPath(evt)" onmouseout="recoverPath(evt)" fill="rgb(241,239,232)" d="M  128,191l 0,5 1,1 0,7 1,1 0,6 1,1 0,7 1,1 0,5 1,1 0,4 -1,1 2,0 1,1 0,1 1,-1 4,0 1,1 0,-1 1,-1 4,0 1,1 1,0 0,-1 1,-1 3,0 1,1 0,-1 1,-1 0,0 -1,-1 0,-3 -1,-1 0,-15 -1,-1 0,-1 -1,1 0,1 1,1 0,8 -1,1 -1,0 -1,1 1,1 2,0 -2,-1 2,-11 1,16 -1,1 -2,0 -1,1 -3,0 -1,1 -2,0 -1,1 -7,0 -6,-38 5,34 0,-4 -1,-2 0,-5 1,-1 0,0 -1,-1 -1,-1 0,-7 -1,-1 0,-6 1,-1 1,0 1,-1 3,0 0,-6 1,-1 -2,1 -2,0 -1,1 -4,0 5,35 -5,-34Z"/>
<path onmouseover="hoverPath(evt)" onmouseout="recoverPath(evt)" fill="rgb(175,200,237)" d="M  147,95l 0,4 1,1 0,12 1,0 1,1 0,1 1,1 0,5 1,1 0,1 1,1 0,2 1,1 0,1 1,1 0,2 1,1 0,3 1,1 0,3 1,1 0,5 1,1 0,11 1,1 0,4 1,1 0,5 -1,1 0,1 -1,1 0,2 1,1 0,1 1,1 0,1 1,1 0,-2 -1,-1 0,-4 1,-1 0,-27 1,-1 7,0 1,1 7,0 1,-1 4,0 1,-1 0,-1 -1,-1 0,-2 -1,-1 0,-2 -1,-1 0,-2 -6,0 -1,-1 0,-2 1,-1 5,0 -1,-1 0,-2 -1,-1 0,-4 -1,-1 0,-1 -1,-1 0,-3 -1,-1 0,-3 -1,-1 0,-1 -1,-1 0,-4 -1,-1 0,-2 -1,-1 0,-4 -1,-1 0,-6 -1,-1 0,-2 -1,-1 0,-5 -1,-1 0,-4 -1,-1 0,-6 -1,-1 0,-5 -1,-1 0,-6 -1,-1 0,-5 -1,-1 0,-4 -1,-1 0,-1 -1,0 -1,1 -6,0 -1,1 -6,0 -1,-1 0,-5 1,-1 0,-2 1,-1 0,-7 -1,-1 0,-6 -1,-1 0,-6 -1,-1 0,-4 -1,-1 0,-4 -1,0 0,3 1,2 0,3 1,2 0,13 1,1 0,4 -1,1 0,3 -1,1 0,3 -1,1 0,5 -1,1 0,3 -1,1 -3,0 0,5 1,1 0,3 1,1 0,2 1,1 0,2 1,1 0,1 1,1 0,1 1,1 0,2 1,1 0,2 1,1 0,3 1,1 0,7 1,1Z"/>
<path onmouseover="hoverPath(evt)" onmouseout="recoverPath(evt)" fill="rgb(250,249,250)" d="M  175,103l 0,1 1,1 0,1 1,1 0,3 1,1 0,3 1,1 0,1 1,1 0,4 1,1 0,2 1,1 0,2 -1,1 1,0 1,1 0,2 1,1 0,2 1,1 0,2 1,1 0,2 1,1 0,1 1,1 0,2 1,1 0,3 1,1 0,2 1,1 0,2 1,1 0,6 1,1 0,5 1,1 0,2 1,1 0,3 -1,1 1,1 0,8 1,1 0,4 1,1 0,8 1,1 0,8 1,1 0,8 1,1 0,3 -1,1 -1,1 -1,0 -1,1 -12,0 -1,1 -5,0 -1,1 -6,0 -1,1 -6,0 -1,-1 0,-1 -2,0 -1,-1 0,-5 -4,0 -1,-1 0,-8 -1,-1 0,-2 -1,-1 0,-5 -1,-1 0,-5 -1,-1 0,-4 -1,-1 0,-4 -1,-1 0,-5 -1,-1 0,-6 -1,-1 0,-24 -1,-1 0,-45 -1,-1 0,-14 -1,-1 0,-7 -1,-1 0,-3 -1,-1 0,-2 -1,-1 0,-2 -1,-1 0,-1 -1,-1 0,-1 -1,-1 0,-2 -1,-1 0,-2 -1,-1 0,-3 -1,-1 0,-6 -1,-1 0,-4 -1,-1 0,-5 -1,-1 0,-4 -1,-1 0,-5 -1,-1 0,-3 -1,0 0,3 1,1 0,7 1,1 0,1 44,69 -42,-60 0,6 1,1 0,2 -1,-9 42,60 -39,-44 0,2 1,1 0,2 1,1 0,1 1,0 -1,-2 -1,-3 3,7 1,3 0,1 1,2 0,7 1,1 0,3 -1,1 -1,0 -1,1 -1,0 -1,1 -1,0 4,-1 1,0 1,1 0,4 1,1 0,5 -8,-39 39,44 -30,-2 0,1 -1,1 0,4 1,1 0,3 -1,1 -1,0 -1,1 2,0 1,1 0,-13 30,2 -30,23 0,12 1,9 0,20 1,5 0,3 1,4 0,2 1,4 0,2 1,3 0,2 1,3 0,1 1,5 0,4 1,2 1,3 0,13 1,1 0,3 1,1 0,1 3,0 1,1 2,0 0,-1 1,-1 3,0 -21,-102 30,-23 -4,124 2,0 5,-1 3,0 3,-1 4,0 9,-1 1,0 1,1 2,0 0,-1 1,-1 4,0 1,-1 8,0 1,-1 8,0 1,-1 5,0 1,1 0,1 2,0 1,-1 3,0 0,-1 1,-1 6,0 1,1 3,0 0,-1 1,-1 2,0 0,-1 1,-1 3,0 0,-2 -7,0 -1,-1 0,4 -1,1 -1,0 0,1 -74,8 4,-124 62,116 0,0 -62,-116 48,117 -3,0 -5,1 -6,0 -3,1 -4,0 -1,-1 0,-1 22,0 -48,-117 25,110 0,-1 1,2 0,1 1,0 1,-1 -1,0 -3,-6 0,-6 -1,-3 0,-5 -1,-4 0,-2 -1,-3 0,-11 -1,2 0,-9 -1,-1 0,-5 -1,-1 0,-2 7,55 -25,-110 15,45 0,-1 -1,-2 0,-1 -1,-2 0,-1 -1,-1 0,-2 -1,-1 0,-3 -1,-1 0,-5 1,-1 3,0 1,-1 2,0 1,-1 1,-1 4,0 1,-1 2,0 1,-1 3,0 1,-1 3,0 1,-1 2,0 1,-1 1,0 1,-1 4,0 1,-1 2,0 1,-1 1,0 1,-1 4,0 1,-1 1,0 1,-1 4,0 1,-1 1,0 1,-1 4,0 1,-1 1,0 1,-1 4,0 1,-1 4,0 0,-2 -1,0 -1,1 -2,0 -1,1 -60,40 -15,-45 61,9 -5,1 -1,0 -1,1 -2,0 -3,1 -1,0 -1,1 -2,0 -1,1 -3,0 -2,1 -1,0 -1,1 -3,0 -1,1 -2,0 -1,1 -4,0 -1,1 1,0 8,-2 -11,3 -3,0 -2,1 -1,0 -1,1 -2,0 -1,1 -4,0 -1,-1 0,-1 -1,-1 0,-2 -1,-1 0,-3 -1,-1 0,-2 -1,-1 0,-3 -1,-1 0,-3 -1,-1 0,-2 -1,-1 0,-2 -1,-1 0,-4 -1,-1 0,-4 -1,-1 0,-2 -1,-1 0,-6 -1,-1 0,-4 -1,-1 0,-5 -1,-1 0,-6 -1,-1 0,-5 -1,-1 0,-6 -1,-1 0,-3 -1,-1 0,-2 -1,-1 0,-3 -1,-1 0,-7 -1,-1 0,-3 -1,-1 0,3 1,2 0,2 1,6 0,1 1,3 0,2 1,1 0,5 1,1 0,6 1,1 0,5 1,1 0,6 1,1 0,4 1,1 0,5 1,1 0,2 65,28 -61,-9 -3,-16 0,4 1,1 0,4 1,1 0,2 1,1 0,2 -3,-15 3,16Z"/>
</svg>