<svg width="256" height="256" xmlns="http://www.w3.org/2000/svg"><script> 
var tempColor;
function hoverPath(evt){
obj = evt.target;
tempColor = obj.getAttribute("fill");
obj.setAttribute("fill","red");
//alert(tempColor);
//obj.setAttribute("stroke","red");}
function recoverPath(evt){
obj = evt.target;
obj.setAttribute("fill", tempColor);
//obj.setAttribute("stroke", tempColor);
}</script><path onmouseover="hoverPath(evt)" onmouseout="recoverPath(evt)" fill="rgb(175,199,232)" d="M  0,112l 0,17 10,0 1,1 9,0 1,1 3,0 1,-1 0,0 1,-1 1,0 0,-2 1,-1 0,-1 1,-1 0,-2 1,-1 0,-1 1,-1 1,-1 -1,0 -1,-1 0,-3 -2,0 -1,-1 0,-3 -3,0 -1,-1 0,-5 -1,-1 -1,-1 0,-3 1,-1 6,0 0,-2 -1,0 -1,-1 0,-1 -1,-1 -3,0 -1,-1 -1,0 -1,-1 -1,0 -1,-1 -1,0 -1,-1 -2,0 -1,-1 -1,0 -1,-1 -1,0 -1,-1 -1,0 -1,-1 -1,0 -1,1 -2,0 -1,-1 -1,0Z"/>
<path onmouseover="hoverPath(evt)" onmouseout="recoverPath(evt)" fill="rgb(242,241,235)" d="M  65,66l 0,0 1,1 2,0 1,1 4,0 1,1 1,1 0,11 1,1 0,2 -1,1 0,32 -3,3 -1,1 -1,1 0,1 1,0 1,-1 0,0 1,-1 1,0 1,-1 1,-1 1,0 1,-1 1,-1 1,0 1,-1 1,-1 1,0 1,-1 1,-1 1,0 1,-1 1,0 1,-1 1,-1 1,0 1,-1 1,-1 1,0 1,-1 1,-1 1,0 1,-1 1,-1 1,-1 1,-1 3,-3 0,-1 3,-3 1,-1 1,-1 1,-1 0,-1 1,-1 4,-4 1,-1 0,-1 1,-1 1,-1 1,-1 3,-3 0,-1 1,-1 1,-1 0,-1 1,-1 0,-1 1,-1 0,-1 1,-1 0,-1 1,-1 0,-1 1,-1 1,-1 0,-1 1,-1 0,-1 1,-1 0,-1 1,-1 0,-1 1,-1 0,-1 1,-1 0,-3 1,-1 0,-3 1,-1 0,-3 1,-1 0,-2 1,-1 0,-3 1,-1 0,-4 1,-1 0,-10 1,-1 0,-2 -1,-1 0,-1 -1,-1 0,-1 -1,-1 0,-1 -1,-1 0,-1 -1,-1 0,-1 -1,-1 -1,-1 0,-1 -1,-1 0,-3 -119,0 0,3 -1,1 0,4 -1,1 0,3 3,0 0,-8 1,-1 2,0 1,1 0,7 1,1 0,1 1,1 0,2 1,1 0,4 -1,1 -2,0 -1,-1 0,-2 -1,-1 -1,1 -3,0 -1,-1 -1,0 -1,-1 -1,0 -1,1 -1,1 0,1 3,0 1,-1 1,0 52,47 -5,0 -1,-1 5,1 1,0 -49,-45 0,2 -1,1 0,3 -1,1 -4,0 -1,-1 0,2 1,0 1,1 0,5 3,0 1,1 1,0 1,1 0,2 -1,1 -5,0 -1,-1 -2,0 -1,1 0,1 -1,1 0,2 -1,1 1,0 1,1 1,0 3,-3 4,0 1,1 0,8 -1,1 0,1 -1,1 0,1 -1,1 -4,0 -1,-1 0,-4 -1,0 -1,-1 -1,0 -1,1 0,2 -1,1 -1,1 -2,0 0,18 3,0 1,1 2,0 1,1 1,0 1,1 2,0 1,1 1,0 1,1 2,0 1,1 1,0 1,1 2,0 1,1 1,0 1,1 1,0 1,1 1,1 0,-3 1,-1 5,0 1,1 2,0 1,1 1,0 1,-1 0,-5 1,-1 0,-2 1,-1 0,-1 1,-1 2,0 0,-5 1,-1 0,-1 1,-1 1,-1 5,0 1,1 2,0 1,1 1,0 -41,-43 49,45Z"/>
<path onmouseover="hoverPath(evt)" onmouseout="recoverPath(evt)" fill="rgb(244,243,237)" d="M  0,247l 0,8 24,0 0,-1 -1,-1 0,0 -1,-1 0,-1 -1,-1 -1,-1 0,-1 -1,-1 -1,-1 -1,-1 0,-1 -1,-1 -1,-1 0,-1 -1,-1 1,3 0,0 -1,1 -1,0 -1,1 -4,0 -1,1 -6,0 -1,1Z"/>
<path onmouseover="hoverPath(evt)" onmouseout="recoverPath(evt)" fill="rgb(177,202,237)" d="M  7,49l 0,0 1,1 1,0 1,1 0,4 2,0 0,-1 1,-1 0,-1 1,-1 0,-6 -2,0 -1,1 -1,1 -1,1 -1,0 -1,1 -1,-1 -1,-1 -1,0 -1,-1 0,-2 1,-1 0,-2 1,-1 0,-1 1,-1 1,-1 4,0 1,1 3,0 -2,-1 -1,0 -3,-1 0,-5 -1,0 -1,-1 0,-3 -5,0 -1,-1 -1,0 0,28 1,0 1,-1 0,-2 1,-1 1,-1 1,0 1,-1 1,1Z"/>
<path onmouseover="hoverPath(evt)" onmouseout="recoverPath(evt)" fill="rgb(170,198,238)" d="M  7,189l -2,0 -1,-1 -4,0 0,56 6,0 1,-1 4,0 1,-1 1,0 -1,-1 0,-1 -1,-1 0,-2 1,-1 -2,0 -1,-1 0,-2 -1,-1 0,-3 -1,-1 0,-2 -1,-1 0,-3 -1,-1 0,-9 1,-1 0,-3 1,-1 0,-2 1,-1 0,-1 1,-1 0,-2 1,-1 0,-2 1,-1 0,-3 -1,-1 0,0 -1,-1 0,-2Z"/>
<path onmouseover="hoverPath(evt)" onmouseout="recoverPath(evt)" fill="rgb(206,220,239)" d="M  9,0l -9,0 0,24 2,0 1,1 7,0 1,1 2,0 0,-3 1,-1 0,-1 -1,0 -1,1 -5,0 -1,-1 0,-3 2,-2 1,-1 3,0 1,1 1,0 1,1 1,0 1,-1 2,0 1,1 1,1 0,2 -1,-4 0,-1 -1,-1 0,-1 -1,-1 0,1 -1,1 -5,0 -1,-1 0,-5 1,-1 0,-4 1,-1 0,-2Z"/>
<path onmouseover="hoverPath(evt)" onmouseout="recoverPath(evt)" fill="rgb(177,202,237)" d="M  12,206l 0,0 -1,-1 0,-4 1,-1 0,-2 -2,6 0,1 -1,1 0,2 -1,1 0,3 -1,1 0,7 1,1 0,3 1,1 0,2 1,1 0,3 1,1 0,2 2,0 1,1 0,2 -1,1 2,0 1,1 1,1 0,1 1,1 1,1 0,1 1,1 1,1 1,1 0,1 1,1 1,1 0,1 1,1 1,1 0,2 12,0 0,-2 -1,-1 0,0 -1,-1 -1,-1 0,-1 -1,-1 0,-1 -1,-1 0,-1 -1,-1 0,-1 -1,-1 0,-1 -1,-1 0,-1 -1,-1 0,-1 -1,-1 0,-1 -1,-1 0,-1 -1,-1 0,-16 -1,-1 0,-9 -1,2 -3,0 -1,-1 0,-2 -4,0 -1,1Z"/>
<path onmouseover="hoverPath(evt)" onmouseout="recoverPath(evt)" fill="rgb(170,198,237)" d="M  13,192l 0,4 1,1 0,4 -1,1 0,2 1,0 1,-1 6,0 1,1 0,2 1,0 0,-1 1,-1 2,0 1,1 0,9 1,1 0,16 1,1 0,1 1,1 0,1 1,1 0,1 1,1 0,1 1,1 0,1 1,1 0,1 1,1 0,1 1,1 0,1 1,1 0,1 1,1 1,1 1,1 0,3 31,0 -1,-1 0,0 -1,-1 -1,-1 -1,-1 -1,-1 -1,-1 -1,-1 -1,0 -1,-1 -1,-1 -1,-1 -1,-1 -1,-1 -1,-1 -1,-1 -1,-1 -1,-1 -1,-1 0,-1 -1,-1 0,-1 -1,-1 0,-1 -1,-1 0,-1 -1,-1 0,-1 -1,-1 0,-5 -1,-1 0,-5 -1,-1 0,-11 1,-1 2,0 0,-5 1,-1 0,-2 1,-1 0,-5 1,-1 0,-1 1,-1 0,-2 1,-1 0,-1 1,-1 0,-2 1,-1 0,-1 1,-1 0,-1 1,-1 0,-1 1,-1 0,-1 1,-1 0,-2 1,-1 0,-1 1,-1 0,-1 1,-1 1,-1 1,-1 1,-1 1,0 0,-2 1,-1 5,0 1,-1 1,0 1,-1 1,-1 1,-1 1,0 1,-1 1,-1 1,-1 1,0 1,-1 1,-1 1,-1 1,0 1,-1 1,-1 1,0 1,-1 2,-2 1,0 1,-1 1,-1 1,-1 1,0 1,-1 1,-1 1,0 1,-1 1,-1 1,-1 1,0 1,-1 1,-1 1,-1 1,0 3,-3 1,-1 6,-6 1,-1 0,-1 1,-1 1,-1 3,-3 1,-1 1,-1 1,-1 0,-1 1,-1 1,-1 1,-1 1,-1 1,-1 2,-2 1,-1 0,-1 1,-1 1,-1 1,-1 2,-2 1,-1 1,-1 1,-1 0,-1 1,-1 2,-2 1,-1 1,-1 1,-1 0,-2 1,-1 0,-2 1,-1 0,-2 1,-1 0,-2 1,-1 0,-2 1,-1 0,-2 1,-1 0,-2 1,-1 0,-2 1,-1 0,-2 1,-1 0,-2 1,-1 0,-2 1,-1 0,-16 1,-1 0,-27 -1,-1 0,-9 -25,0 0,2 1,1 0,1 1,1 1,1 0,1 1,1 0,1 1,1 0,1 1,1 0,1 1,1 0,1 1,1 0,4 -1,1 0,10 -1,1 0,4 -1,1 0,3 -1,1 0,2 -1,1 0,3 -1,1 0,3 -1,1 0,3 -1,1 0,1 -1,1 0,1 -1,1 0,1 -1,1 0,1 -1,1 0,1 -1,1 -1,1 0,1 -1,1 0,1 -1,1 0,1 -1,1 0,1 -1,1 0,1 -1,1 -1,1 0,1 -1,1 -1,1 -1,1 -1,1 -1,1 -1,1 0,1 -1,1 -1,1 -1,1 -1,1 -1,1 -1,1 0,1 -1,1 -1,1 -2,2 -1,1 -1,1 0,1 -1,1 -1,1 -6,6 -1,0 -2,2 -1,0 -1,1 -1,1 -1,0 -1,1 -1,1 -1,0 -1,1 -1,0 -1,1 -1,1 -1,0 -1,1 -1,1 -1,0 -1,1 -1,1 -1,0 -1,1 -1,1 -1,0 -1,1 -1,1 -3,0 -1,-1 0,-3 1,-1 1,-1 2,-2 1,-1 0,-32 1,-1 -1,-1 0,-11 -1,-1 -4,0 -1,-1 -2,0 -1,-1 -5,0 -1,-1 -1,-1 -2,0 -1,-1 -2,0 -1,-1 -3,0 -1,1 0,1 -1,1 0,5 -1,1 -2,0 0,1 -1,1 0,2 -1,1 0,5 -1,1 -1,1 -3,0 -1,-1 -2,0 -1,-1 -3,0 0,3 -1,1 -2,0 -1,-1 -1,-1 -1,0 -1,-1 -1,0 -1,-1 -2,0 -1,-1 -1,0 -1,-1 -2,0 -1,-1 -1,0 -1,-1 -2,0 -1,-1 -1,0 -1,-1 -2,0 -1,-1 -2,0 0,7 2,0 1,1 1,-1 3,0 1,1 1,0 1,1 1,0 1,1 1,0 1,1 2,0 1,1 1,0 1,1 1,0 1,1 1,0 1,1 3,0 1,1 1,1 0,1 1,0 1,1 0,4 -1,1 -6,0 0,1 1,1 0,0 1,1 0,5 3,0 1,1 0,3 2,0 1,1 0,3 1,0 1,1 0,2 -1,1 -1,1 0,1 -1,1 0,2 -1,1 0,1 -1,1 0,2 -1,1 -1,0 -1,1 -1,1 -5,0 -1,-1 -9,0 -1,-1 -9,0 0,55 5,0 1,1 4,0 1,1 0,2 1,1 1,1Z"/>
<path onmouseover="hoverPath(evt)" onmouseout="recoverPath(evt)" fill="rgb(243,243,235)" d="M  49,221l 0,0 1,1 0,5 1,1 0,1 1,1 0,1 1,1 0,1 1,1 0,1 1,1 0,1 1,1 1,1 1,1 1,1 1,1 1,1 1,1 1,1 1,1 1,0 1,1 1,1 1,1 1,1 1,1 1,1 1,1 1,1 0,1 182,0 0,-32 -1,0 -1,1 -3,0 -1,1 -2,0 -1,1 -2,0 -1,1 -3,0 -1,1 -3,0 -1,1 -3,0 -1,1 -6,0 -1,1 -8,0 -1,1 -18,0 -1,1 -25,0 -1,1 -26,0 -1,1 -19,0 -1,-1 -2,0 -1,-1 -1,0 -1,-1 -1,-1 -3,0 -1,-1 -1,-1 0,-2 1,-1 0,-1 -1,-1 0,-3 -1,-1 0,-20 1,-1 0,-28 -1,-1 0,-2 1,-1 0,-1 1,-1 0,-1 1,-1 2,0 0,-1 1,-1 0,-1 1,-1 0,-1 1,-1 0,-1 1,-1 0,-1 1,-1 0,-1 1,-1 0,-2 -1,0 -1,-1 0,-3 1,-1 2,0 0,-1 1,-1 1,0 1,-1 0,-2 1,-1 1,0 1,-1 0,-2 1,-1 1,0 1,-1 0,-2 1,-1 1,0 1,-1 1,-1 0,-1 1,-1 0,-1 1,-1 1,0 1,-1 1,-1 0,-2 1,-1 1,0 1,-1 1,-1 1,-1 0,-2 1,-1 1,0 1,-1 1,-1 0,-2 1,-1 1,0 1,-1 1,-1 1,-1 0,-2 1,-1 1,0 1,-1 1,-1 0,-1 2,-2 0,-1 2,-2 0,-1 2,-2 0,-1 1,-1 1,-1 -1,-1 0,-2 1,-1 1,-1 0,-1 1,-1 2,0 1,-1 -1,-1 0,-2 1,-1 1,-1 2,0 1,-1 0,-2 1,-1 0,-1 1,-1 0,-2 1,-1 0,-1 1,-1 0,-2 1,-1 0,-3 1,-1 0,-2 1,-1 0,-3 1,-1 0,-7 1,-1 0,-5 -1,-1 0,-13 -1,-1 0,-3 -1,-1 0,-3 -1,-1 0,-3 -1,-1 0,-2 -1,-1 0,-2 -2,0 -1,-1 0,-2 1,-1 0,-1 -14,0 0,8 1,1 0,29 -1,1 0,16 -1,1 0,2 -1,1 0,2 -1,1 0,2 -1,1 0,2 -1,1 0,2 -1,1 0,2 -1,1 0,2 -1,1 0,2 -1,1 0,2 -1,1 0,2 -1,1 0,2 -1,1 -1,1 -1,1 -1,1 -1,1 -1,1 0,1 -1,1 -1,1 -1,1 -2,2 -1,1 -1,1 -1,1 0,1 -1,1 -1,1 -2,2 -1,1 -1,1 -1,1 -1,1 0,1 -1,1 -1,1 -1,1 -1,1 -1,1 -1,1 -1,1 -1,1 0,1 -1,1 -1,1 -1,1 -1,1 -1,1 -1,1 -1,1 -1,1 -1,1 -1,1 -1,1 -1,1 -1,0 -1,1 -1,1 -1,1 -1,0 -1,1 -1,1 -1,1 -1,0 -1,1 -1,1 -1,0 -1,1 -1,1 -1,1 -1,0 -1,1 -1,1 -1,1 -1,0 -2,2 -1,0 -1,1 -1,1 -1,1 -1,0 -1,1 -2,2 -1,0 -2,2 -1,1 -1,0 -1,1 -5,0 6,1 0,63 -1,1 -3,0 -1,-1 -5,0 -1,-1 -4,0 -1,-1 -5,0 -1,-1 -2,0 -1,-1 -1,1 0,-15 -1,0 0,9 1,3Z"/>
<path onmouseover="hoverPath(evt)" onmouseout="recoverPath(evt)" fill="rgb(171,198,238)" d="M  52,197l 0,2 -1,1 0,17 1,1 0,1 2,0 1,1 5,0 1,1 4,0 1,1 5,0 1,1 1,0 0,-24 -5,0 -1,-1 -3,0 -1,-1 -2,0 -1,-1 -3,0 -1,-1 -3,0 0,1 -1,1Z"/>
<path onmouseover="hoverPath(evt)" onmouseout="recoverPath(evt)" fill="rgb(170,198,238)" d="M  68,163l -1,0 -1,1 -1,1 -1,1 0,1 -1,1 0,1 -1,1 0,2 -1,1 0,1 -1,1 0,1 -1,1 0,1 -1,1 0,1 -1,1 0,2 -1,1 0,1 -1,1 0,2 -1,1 0,1 -1,1 0,2 4,0 1,1 3,0 1,1 2,0 1,1 3,0 1,1 4,0 0,-35 -4,0 -1,1Z"/>
<path onmouseover="hoverPath(evt)" onmouseout="recoverPath(evt)" fill="rgb(244,243,235)" d="M  128,152l -1,0 0,1 -1,1 0,1 -1,1 0,1 -1,1 0,1 -1,1 0,1 -1,1 0,1 -1,1 0,1 -1,1 0,2 -1,1 0,1 -1,1 0,1 -1,1 0,44 -1,1 1,1 0,3 1,1 0,1 1,1 1,1 1,0 1,1 0,1 1,0 1,1 2,0 1,1 12,0 1,-1 26,0 1,-1 24,0 1,-1 20,0 1,-1 8,0 1,-1 6,0 1,-1 3,0 1,-1 4,0 1,-1 3,0 1,-1 2,0 1,-1 2,0 1,-1 2,0 1,-1 4,0 0,-73 -16,0 -1,1 -13,0 -1,1 -11,0 -1,1 -14,0 -1,1 -14,0 -1,1 -28,0 -1,1 -24,0 -1,1Z"/>
<path onmouseover="hoverPath(evt)" onmouseout="recoverPath(evt)" fill="rgb(253,253,253)" d="M  184,58l -1,1 0,3 -1,1 0,2 -1,1 0,1 -1,1 0,2 -1,1 0,1 -1,1 0,2 -1,1 -1,1 -2,0 -1,1 1,1 0,2 -1,1 -1,1 -2,0 0,1 -1,1 -1,1 1,1 0,2 -2,2 0,1 -2,2 0,1 -1,1 -1,1 0,1 -2,2 0,1 -1,1 -1,1 -1,1 -1,0 0,2 -1,1 -1,1 -1,1 -1,1 -1,0 0,2 -1,1 -1,1 -1,1 -1,0 0,2 -1,1 -1,1 -2,2 -1,0 0,2 -1,1 -1,1 -1,1 -1,0 0,1 -1,1 0,1 -1,1 -2,2 -1,0 0,2 -1,1 -1,1 -1,0 0,2 -1,1 -1,1 -1,0 0,2 -1,1 -1,1 -1,0 0,1 -1,1 -2,0 0,1 1,0 1,1 0,4 1,0 0,-1 1,-1 1,0 1,-1 24,0 1,-1 28,0 1,-1 14,0 1,-1 14,0 1,-1 11,0 1,-1 13,0 1,-1 17,0 0,-4 -14,0 -1,1 -14,0 -1,1 -11,0 -1,1 -14,0 -1,1 -14,0 -1,1 -24,0 -1,1 -24,0 -1,-1 0,-2 1,-1 0,-1 1,-1 1,-1 1,-1 0,-1 1,-1 1,-1 1,-1 1,0 0,-2 1,-1 1,-1 1,-1 1,-1 1,0 0,-2 1,-1 1,-1 1,-1 1,-1 1,0 0,-2 1,-1 1,-1 2,-2 1,0 0,-2 1,-1 1,-1 1,-1 1,-1 1,0 0,-2 1,-1 1,-1 2,-2 0,-1 2,-2 0,-1 2,-2 0,-1 1,-1 0,-1 1,-1 1,-1 0,-1 1,-1 1,-1 0,-1 1,-1 1,-1 0,-1 1,-1 1,-1 0,-1 1,-1 1,-1 0,-1 1,-1 0,-1 1,-1 1,-1 0,-1 1,-1 0,-1 2,-2 1,-1 2,0 1,-1 21,0 1,-1 15,0 1,-1 16,0 1,-1 10,0 0,-4 -15,0 -1,1 -16,0 -1,1 -16,0 -1,1 -15,0 -1,-1 -1,-1 0,-3 1,-1 0,-3 1,-1 0,-6 1,-1 0,-21 -1,-1 0,-5 -1,-1 0,-3 -1,-1 0,-3 -1,-1 0,-3 -1,-1 0,-2 -1,-1 0,-4 -6,0 0,2 -1,1 2,0 1,1 0,2 1,1 0,2 1,1 0,3 1,1 0,3 1,1 0,3 1,1 0,13 1,1 0,7 -1,1 0,7 -1,1 0,3 -1,1 0,2 -60,95 -1,0 0,1 -1,1 0,1 -1,1 0,1 -1,1 0,1 -1,1 0,1 -1,1 0,1 -1,1 -2,0 0,1 -1,1 0,1 -1,1 1,1 0,30 -1,1 0,18 1,1 0,3 1,1 0,3 -1,1 1,1 3,0 1,1 1,1 1,0 1,1 2,0 1,1 17,0 1,-1 26,0 1,-1 25,0 1,-1 18,0 1,-1 8,0 1,-1 6,0 1,-1 3,0 1,-1 3,0 1,-1 3,0 1,-1 2,0 1,-1 2,0 1,-1 3,0 1,-1 2,0 0,-1 -3,0 -1,1 -2,0 -1,1 -2,0 -1,1 -2,0 -1,1 -3,0 -1,1 -4,0 -1,1 -3,0 -1,1 -6,0 -1,1 -8,0 -1,1 -20,0 -1,1 -24,0 -1,1 -26,0 -1,1 -14,0 -1,-1 -2,0 -1,-1 -1,0 -1,-1 0,-1 -1,0 -2,-2 -1,-1 0,-1 -1,-1 0,-3 -1,-1 0,-2 1,-1 0,-44 1,-1 0,-1 1,-1 0,-1 1,-1 0,-2 1,-1 0,-1 1,-1 0,-1 1,-1 0,-1 1,-1 0,-1 1,-1 0,-1 1,-1 0,-1 60,-95Z"/>
<path onmouseover="hoverPath(evt)" onmouseout="recoverPath(evt)" fill="rgb(244,243,235)" d="M  188,0l -1,0 0,3 1,1 0,2 1,1 0,3 1,1 0,3 1,1 0,3 1,1 0,5 1,1 0,23 -1,1 0,6 -1,1 0,3 -1,1 0,1 1,1 13,0 1,-1 16,0 1,-1 16,0 1,-1 16,0 0,-59Z"/>
<path onmouseover="hoverPath(evt)" onmouseout="recoverPath(evt)" fill="rgb(243,242,234)" d="M  187,72l 0,0 -1,1 0,1 -1,1 0,1 -1,1 -1,1 0,1 -1,1 0,1 -1,1 -1,1 0,1 -1,1 -1,1 0,1 -1,1 -1,1 0,1 -1,1 -1,1 0,1 -1,1 -1,1 0,1 -1,1 0,1 -1,1 -1,1 0,1 -1,1 -1,1 0,1 -2,2 -1,1 -1,1 0,2 -1,1 -1,0 -1,1 -1,1 -1,1 0,2 -1,1 -1,0 -1,1 -1,1 -1,1 0,2 -1,1 -1,0 -1,1 -1,1 -1,1 0,2 -1,1 -1,0 -1,1 -1,1 -1,1 0,2 -1,1 -1,0 -1,1 -1,1 0,1 -1,1 -1,1 -1,1 0,1 -1,1 22,0 1,-1 24,0 1,-1 14,0 1,-1 14,0 1,-1 11,0 1,-1 14,0 1,-1 15,0 0,-70 -9,0 -1,1 -16,0 -1,1 -15,0 -1,1 -21,0 -1,1 -2,0 -1,1Z"/>
</svg>