<svg width="256" height="256" xmlns="http://www.w3.org/2000/svg"><script> 
var tempColor;
function hoverPath(evt){
obj = evt.target;
tempColor = obj.getAttribute("fill");
obj.setAttribute("fill","red");
//alert(tempColor);
//obj.setAttribute("stroke","red");}
function recoverPath(evt){
obj = evt.target;
obj.setAttribute("fill", tempColor);
//obj.setAttribute("stroke", tempColor);
}</script><path onmouseover="hoverPath(evt)" onmouseout="recoverPath(evt)" fill="rgb(246,232,138)" d="M  0,24l 0,6 2,0 1,-1 13,0 0,-1 1,-1 14,0 1,-1 3,0 1,1 1,-1 15,0 1,-1 16,0 1,-1 11,0 1,1 0,1 12,0 0,-1 1,-1 2,0 1,1 5,0 0,-2 1,-1 4,0 1,1 4,0 1,1 21,0 0,-2 1,-1 20,0 0,-1 1,-1 10,0 1,1 7,0 1,1 15,0 0,-3 1,-1 12,0 1,1 11,0 1,-1 20,0 1,-1 11,0 1,-1 5,0 0,-9 -2,0 -1,1 -11,0 -1,1 -13,0 -1,1 -1,0 0,1 -1,1 -10,0 -1,1 -11,0 -1,1 -9,0 -1,-1 -4,0 -1,-1 -17,0 -1,-1 -1,-1 0,-6 1,-1 0,-2 -1,0 0,2 2,10 0,1 -1,1 -10,0 -1,-1 -9,0 0,1 -1,1 -9,0 -1,1 -2,0 -1,-1 0,-1 -1,-1 0,-1 -1,0 -1,1 -10,0 -1,1 -6,0 -1,1 -6,0 -1,-1 -3,0 -1,-1 0,-4 -4,0 -1,-1 -3,0 -1,-1 -1,0 0,6 -1,1 0,1 -1,1 -12,0 -1,1 -15,0 -1,1 -7,0 -1,1 -1,0 0,1 -1,1 -7,0 -1,-1 -2,0 -1,1 -4,0 -1,-1 -6,0 -1,1 -22,0 -1,1 -5,0 0,2 35,-5 -35,5Z"/>
<path onmouseover="hoverPath(evt)" onmouseout="recoverPath(evt)" fill="rgb(244,243,237)" d="M  1,32l -1,0 0,45 34,0 1,-1 1,0 1,-1 1,-1 0,-3 1,-1 0,-5 1,-1 3,0 0,-8 -4,8 -17,0 -1,-1 0,-2 -1,-1 0,-13 -1,-1 0,-3 1,-1 0,-1 -1,-1 0,0 -1,-1 0,-8 -14,0 -1,1Z"/>
<path onmouseover="hoverPath(evt)" onmouseout="recoverPath(evt)" fill="rgb(174,199,234)" d="M  0,80l 0,5 16,0 1,-1 3,0 1,1 1,0 1,-1 3,0 1,1 18,0 1,1 1,1 0,3 1,0 1,1 0,1 1,1 0,4 1,1 0,1 1,1 0,2 1,1 0,2 1,1 0,1 1,1 0,2 1,1 0,17 1,1 3,0 1,1 0,5 2,0 1,1 0,13 1,1 0,7 1,1 0,7 1,1 0,8 1,1 0,3 1,1 6,0 0,-1 -1,-1 0,-3 -1,-1 0,-5 -1,-1 0,-5 -1,-1 0,-5 -1,-1 0,-5 -1,-1 0,-5 -1,-1 0,-6 -1,-1 0,-5 -1,-1 0,-3 -1,-1 0,-3 -1,-1 0,-3 -1,-1 0,-4 -1,-1 0,-2 -1,-1 0,-2 -1,-1 0,-2 -1,-1 0,-1 -1,-1 0,-2 -1,-1 0,-2 -1,-1 0,-2 -1,-1 0,-1 -1,-1 0,-2 -1,-1 0,-2 -1,-1 0,-2 -1,-1 0,-3 -1,-1 0,-4 -1,-1 0,-12 1,-1 1,-1 1,-1 12,0 1,1 6,0 1,1 7,0 1,1 10,0 1,1 6,0 1,1 6,0 -2,-1 -4,0 -1,-1 -3,0 -1,-1 -2,0 -1,-1 -3,0 -1,-1 -3,0 -1,-1 -3,0 -1,-1 -5,0 -1,-1 -5,0 -1,-1 -5,0 -1,-1 -3,0 -1,-1 -1,0 -1,-1 0,-1 -1,-1 -1,-1 0,-1 -1,-1 0,-9 1,-1 0,-5 1,-1 1,-1 6,0 1,1 10,0 1,1 11,0 2,-2 4,0 1,1 0,5 -1,1 0,3 1,1 1,1 0,-3 1,-1 0,-7 1,-1 4,0 1,-1 5,0 0,-1 -6,0 -1,-1 0,1 -1,1 -14,0 -1,-1 0,-1 -9,0 -1,1 -16,0 -1,1 -15,0 -1,1 -2,0 -1,-1 -1,0 -1,1 -14,0 2,1 0,8 1,1 1,1 0,3 -1,1 0,1 1,1 0,13 1,1 0,2 18,0 0,-7 1,-1 2,0 1,1 0,10 -1,1 -3,0 0,5 -1,1 0,3 -1,1 -1,1 -1,1 -1,0 -1,1 -34,0 -1,1Z"/>
<path onmouseover="hoverPath(evt)" onmouseout="recoverPath(evt)" fill="rgb(241,239,230)" d="M  0,92l 0,36 18,0 1,-1 0,-38 -17,0 -1,-1 0,-1 -1,0Z"/>
<path onmouseover="hoverPath(evt)" onmouseout="recoverPath(evt)" fill="rgb(243,242,236)" d="M  0,222l 0,33 64,0 0,-1 -1,-1 0,-5 -1,-1 0,-13 1,-1 0,-1 1,-1 1,-1 3,0 1,-1 1,-1 0,-1 1,-1 0,-16 -1,-1 0,-24 -10,0 -1,1 -26,0 -1,1 -22,0 -1,1 -9,0Z"/>
<path onmouseover="hoverPath(evt)" onmouseout="recoverPath(evt)" fill="rgb(244,243,235)" d="M  54,32l 0,5 -1,1 0,7 1,1 0,1 1,1 1,1 0,1 1,0 1,1 3,0 1,1 5,0 1,1 5,0 1,1 5,0 1,1 3,0 1,1 3,0 1,1 3,0 1,1 2,0 1,1 3,0 1,1 4,0 1,1 0,-30 -1,-1 -4,0 -1,1 -4,0 0,7 -1,1 0,3 -1,1 -2,0 -1,-1 -1,-1 -1,-1 0,-5 1,-1 0,-3 -2,0 -1,1 0,0 -1,1 -13,0 -1,-1 -10,0 -1,-1 -4,0 -1,1Z"/>
<path onmouseover="hoverPath(evt)" onmouseout="recoverPath(evt)" fill="rgb(171,198,238)" d="M  75,126l 0,1 1,1 22,0 1,-1 1,0 0,-2 -1,-1 -3,0 -1,-1 -12,0 -1,1 -3,0 -1,1 -2,0 -1,1Z"/>
<path onmouseover="hoverPath(evt)" onmouseout="recoverPath(evt)" fill="rgb(244,243,235)" d="M  99,130l -24,0 -1,-1 -1,-1 0,-3 1,-1 1,-1 2,0 1,-1 3,0 1,-1 14,0 1,1 3,0 1,1 1,1 0,4 -1,1 -1,0 -1,1 -30,0 0,5 1,1 0,6 1,1 0,5 1,1 0,5 1,1 0,5 1,1 0,5 1,1 0,5 1,1 0,3 1,1 0,3 8,0 1,-1 21,0 1,-1 1,0 0,-11 -1,-1 0,-24 -1,-1 0,-24 -1,-1 0,-25 -1,-1 0,-24 -1,-1 -7,0 -1,-1 -6,0 -1,-1 -10,0 -1,-1 -7,0 -1,-1 -6,0 -1,-1 -10,0 -1,1 -1,1 0,10 1,1 0,4 1,1 0,3 1,1 0,2 1,1 0,2 1,1 0,2 1,1 0,1 1,1 0,2 1,1 0,2 1,1 0,2 1,1 0,1 1,1 0,2 1,1 0,2 1,1 0,2 1,1 0,4 1,1 0,3 1,1 0,3 1,1 0,3 1,1Z"/>
<path onmouseover="hoverPath(evt)" onmouseout="recoverPath(evt)" fill="rgb(241,241,234)" d="M  114,85l 0,-5 -1,-1 0,-4 1,-1 1,-1 7,0 1,1 2,0 1,1 1,0 1,1 0,0 1,-1 3,0 -2,-1 -2,0 -1,-1 -1,0 -1,-1 -1,-1 -1,-1 0,-1 -1,-1 -4,0 -1,1 -7,0 0,6 2,0 2,10 -1,-5 0,0 1,5Z"/>
<path onmouseover="hoverPath(evt)" onmouseout="recoverPath(evt)" fill="rgb(171,198,238)" d="M  115,122l 0,18 18,0 1,-1 31,0 1,-1 2,0 0,-10 -1,-1 0,-7 -1,-1 0,-2 -1,0 -1,-1 -11,0 -1,1 -13,0 -1,-1 -6,0 -1,1 -2,0 0,2 -1,1 -1,1 -11,0 -1,1Z"/>
<path onmouseover="hoverPath(evt)" onmouseout="recoverPath(evt)" fill="rgb(181,204,237)" d="M  130,78l 0,23 -1,1 -2,0 -1,-1 0,-24 -1,0 -1,-1 -2,0 -1,-1 -5,0 -1,1 0,2 1,1 0,16 -1,1 -2,0 -1,-1 0,18 1,0 1,1 0,1 4,0 1,1 0,1 2,0 1,-1 2,0 1,-1 5,0 1,-1 8,0 1,1 11,0 1,-1 13,0 1,1 1,0 -1,-1 0,-1 -1,-1 0,-1 -3,0 -1,1 -6,0 -1,1 -3,0 -1,1 1,0 -21,-36 11,36 -1,-1 0,-7 -1,-1 0,-7 -1,-1 0,-17 -1,0 -1,-1 -1,0 -1,-1 -1,0 -1,-1 -2,0 11,37 -11,-36 -19,17 1,-1 0,-8 -1,-1 0,10 19,-17Z"/>
<path onmouseover="hoverPath(evt)" onmouseout="recoverPath(evt)" fill="rgb(171,198,238)" d="M  176,186l 0,18 1,1 0,18 1,1 0,6 1,1 21,0 1,1 4,0 1,-1 0,-1 1,-1 0,-1 2,-2 1,0 1,-1 6,0 1,-1 11,0 1,-1 11,0 1,-1 10,0 1,-1 2,0 0,-2 -5,0 -1,1 -41,0 -1,-1 -2,0 -1,-1 0,-1 -1,-1 0,-2 -1,-1 0,-3 -1,-1 0,-3 -1,-1 0,-3 -1,-1 0,-3 -1,-1 0,-2 -1,-1 0,-3 -1,-1 0,-2 -1,-1 0,-2 -18,0 -1,1Z"/>
<path onmouseover="hoverPath(evt)" onmouseout="recoverPath(evt)" fill="rgb(241,241,235)" d="M  202,204l 0,0 1,1 0,3 1,1 0,3 1,1 0,2 1,1 0,1 2,0 1,1 39,0 1,-1 6,0 0,-38 -26,0 -1,1 -28,0 0,2 -1,1 -3,0 1,1 0,2 1,1 0,2 1,1 0,3 1,1 0,2 1,1 0,3 1,1Z"/>
<path onmouseover="hoverPath(evt)" onmouseout="recoverPath(evt)" fill="rgb(243,240,227)" d="M  221,20l 0,0 1,1 25,0 1,-1 7,0 0,-3 -4,0 -1,1 -11,0 -1,1 -16,0 -1,1 -1,-1 -2,0 -1,1 -13,0 -1,-1 -10,0 0,1 26,0 1,-1 1,1Z"/>
<path onmouseover="hoverPath(evt)" onmouseout="recoverPath(evt)" fill="rgb(244,243,235)" d="M  0,1l 0,19 4,0 1,-1 22,0 1,-1 5,0 0,-1 1,-1 2,0 0,-1 -1,-1 0,-2 1,-1 1,0 1,-1 0,-6 -1,-1 0,-3 -36,0 -1,1Z"/>
<path onmouseover="hoverPath(evt)" onmouseout="recoverPath(evt)" fill="rgb(253,253,253)" d="M  1,185l -1,0 0,1 8,0 1,-1 22,0 1,-1 26,0 1,-1 12,0 1,1 4,0 1,-1 11,0 1,-1 31,0 1,-1 19,0 1,1 1,1 0,8 1,1 0,16 1,1 0,23 1,1 0,22 1,0 0,-25 -1,-1 0,-21 -1,-1 0,-19 -1,-1 0,-3 1,-1 0,-1 1,-1 7,0 1,-1 26,0 1,-1 18,0 1,-1 28,0 1,-1 27,0 0,-1 -30,0 -1,1 -27,0 -1,1 -6,0 -1,-1 -5,0 -1,1 -12,0 -1,-1 -1,0 0,1 -1,1 -18,0 -1,1 -4,0 -1,-1 -2,0 -1,1 -28,0 -1,-1 0,-15 -1,-1 0,-5 1,-1 -1,-1 0,-18 -1,-1 0,-40 -1,-1 0,-19 -1,-1 0,-16 -1,-1 0,-35 -2,0 0,5 1,1 0,34 1,1 0,24 1,1 0,25 1,1 0,24 1,1 0,24 1,1 0,13 -1,1 -1,0 -1,1 -21,0 -1,1 -10,0 -1,-1 -6,0 -1,1 -17,0 -1,1 -21,0 -1,1 -22,0 -1,1Z"/>
<path onmouseover="hoverPath(evt)" onmouseout="recoverPath(evt)" fill="rgb(239,238,228)" d="M  20,180l -9,0 -1,-1 0,-1 -1,-1 0,-42 -1,-1 -8,0 0,49 4,0 1,-1 19,0 0,-2Z"/>
<path onmouseover="hoverPath(evt)" onmouseout="recoverPath(evt)" fill="rgb(237,234,223)" d="M  25,119l 0,8 26,0 1,1 0,-12 -22,0 -1,-1 0,-2 1,-1 13,0 0,-3 -1,-1 0,-1 -19,0 0,5 1,0 1,1Z"/>
<path onmouseover="hoverPath(evt)" onmouseout="recoverPath(evt)" fill="rgb(239,237,227)" d="M  30,133l 0,0 -1,1 -3,0 -1,-1 -2,0 -1,1 -7,0 0,40 14,0 1,1 0,1 8,0 1,-1 0,-31 1,-1 0,-8 -1,0 -1,-1 0,-1Z"/>
<path onmouseover="hoverPath(evt)" onmouseout="recoverPath(evt)" fill="rgb(236,234,222)" d="M  43,134l 0,0 -1,1 0,9 -1,1 0,18 1,0 1,1 0,11 1,1 1,1 0,2 -1,1 -18,0 0,2 1,0 1,-1 21,0 1,-1 17,0 -1,-1 0,-3 -1,-1 0,-8 -1,-1 0,-7 -1,-1 0,-7 -1,-1 0,-13 -1,0 0,37 -1,1 -2,0 -1,-1 0,-41 -13,0 -1,1Z"/>
<path onmouseover="hoverPath(evt)" onmouseout="recoverPath(evt)" fill="rgb(231,228,214)" d="M  49,100l 0,-1 -1,-1 0,-4 -1,-1 0,-1 -1,0 -1,-1 0,-1 -2,0 -1,-1 -19,0 0,4 1,1 18,0 1,-1 0,0 1,-1 1,0 4,8 -2,-6 0,18 7,0 -1,-1 0,-2 -1,-1 0,-1 -1,-1 0,-2 -1,-1 0,-2 -3,-7 2,6Z"/>
<path onmouseover="hoverPath(evt)" onmouseout="recoverPath(evt)" fill="rgb(242,241,235)" d="M  59,132l 0,-1 -3,0 -1,-1 0,0 -1,-1 0,-15 -8,0 -1,-1 0,-19 -1,1 0,0 -1,1 -20,0 -1,-1 -1,-1 0,34 -1,1 -1,1 -19,0 0,2 9,0 1,1 1,1 0,42 1,1 0,1 31,0 -1,-1 -1,-1 0,-11 -1,12 -12,0 0,-1 -14,0 -1,-1 0,-42 1,-1 7,0 1,-1 4,0 1,1 1,0 1,-1 10,0 1,1 0,1 1,0 0,-1 1,-1 13,0 -1,-1 -3,0 -1,-1 -26,0 -1,-1 0,-14 -1,0 37,18 -37,-27 21,0 1,1 0,1 -22,-2 37,27 -15,-18 0,0 15,18 -38,-44 1,-1 21,0 1,1 1,0 -1,-1 0,0 -19,-1 -1,0 -3,1 0,1 38,44 -42,-45 -14,0 56,79Z"/>
<path onmouseover="hoverPath(evt)" onmouseout="recoverPath(evt)" fill="rgb(171,198,238)" d="M  65,233l 0,1 -1,1 0,11 1,1 0,5 1,1 0,2 6,0 0,-9 -1,-1 0,-3 1,-1 0,-1 1,-1 1,-1 9,0 1,-1 2,0 1,-1 0,-2 1,-1 0,-4 -1,-1 0,-7 -1,-1 0,-10 -1,-1 0,-2 -1,-1 0,-3 -1,-1 0,-2 -1,-1 0,-2 -1,-1 0,-2 -1,-1 -1,0 -1,-1 -1,-1 0,-4 -1,-1 -4,0 0,22 1,1 0,18 -1,1 0,1 -1,1 -1,1 -1,1 -3,0 -1,1Z"/>
<path onmouseover="hoverPath(evt)" onmouseout="recoverPath(evt)" fill="rgb(243,243,235)" d="M  74,241l 0,1 -1,1 0,1 1,1 0,10 69,0 0,-21 -1,-1 0,-23 -1,-1 0,-16 -1,-1 0,-8 -1,-1 -17,0 -1,1 -31,0 -1,1 -11,0 1,1 0,4 1,1 1,0 1,1 1,1 0,2 1,1 0,2 1,1 0,2 1,1 0,3 1,1 0,2 1,1 0,10 1,1 0,7 1,1 0,6 -1,1 0,2 -1,1 -1,1 -2,0 -1,1 -9,0 -1,1Z"/>
<path onmouseover="hoverPath(evt)" onmouseout="recoverPath(evt)" fill="rgb(182,205,237)" d="M  95,0l -56,0 0,2 1,1 0,8 -1,1 -1,1 0,4 -1,1 0,1 2,0 1,-1 4,0 1,1 5,0 0,-1 1,-1 1,0 1,-1 7,0 1,-1 15,0 1,-1 12,0 0,-1 1,-1 0,-6 1,-1 3,0 1,1 3,0 1,1 4,0 1,1 0,4 3,0 1,1 4,0 -3,-1 0,-12Z"/>
<path onmouseover="hoverPath(evt)" onmouseout="recoverPath(evt)" fill="rgb(244,243,236)" d="M  110,30l -1,0 0,28 1,1 0,3 5,0 1,-1 2,0 1,1 2,0 1,1 1,-1 0,-1 1,-1 1,-1 1,-1 2,0 1,1 0,6 1,1 1,1 1,0 1,1 1,0 1,1 1,0 1,1 1,0 1,1 1,0 1,1 1,1 0,4 -1,1 -3,0 -1,-1 -1,0 -1,-1 -1,0 8,2 1,0 1,1 2,0 1,1 0,1 1,1 0,3 1,0 1,1 4,0 0,-3 1,-1 0,-2 1,-1 0,-1 -1,-1 0,0 -1,-1 -1,-1 -1,0 -1,-1 -3,0 -1,-1 -2,0 -1,-1 0,-4 1,-1 1,0 1,-1 1,0 1,-1 3,0 1,-1 4,0 1,-1 1,-1 0,-18 -1,-1 0,-3 1,-1 0,-2 1,-1 0,-2 -1,-1 0,-1 -1,-1 -1,-1 -4,0 -1,-1 -2,0 -1,-1 -11,0 -1,1 -17,0 -1,1Z"/>
<path onmouseover="hoverPath(evt)" onmouseout="recoverPath(evt)" fill="rgb(243,242,234)" d="M  115,143l 0,8 24,0 1,1 26,0 0,-1 1,-1 3,0 0,-9 -1,0 -1,-1 -1,0 -1,1 -31,0 -1,1 -18,0 -1,1Z"/>
<path onmouseover="hoverPath(evt)" onmouseout="recoverPath(evt)" fill="rgb(235,234,221)" d="M  114,165l 0,13 26,0 1,-1 4,0 1,1 2,0 1,-1 18,0 0,-1 1,-1 3,0 1,1 1,0 -1,-1 0,-14 -2,0 -1,-1 0,-4 1,-1 1,0 0,-3 -3,0 0,1 -1,1 -28,0 -1,-1 -24,0 -1,-1 0,-32 1,-1 12,0 1,-1 0,-1 -1,0 -1,1 -8,0 0,-1 -4,0 -1,-1 0,20 2,29 0,-2 -1,-1 0,-3 1,-1 0,7 -1,-10 1,1 -1,-1 1,10Z"/>
<path onmouseover="hoverPath(evt)" onmouseout="recoverPath(evt)" fill="rgb(172,198,236)" d="M  121,65l 0,0 -1,-1 -2,0 -1,-1 -1,1 -6,0 0,3 6,0 1,-1 3,0 1,-1 1,1 1,0 1,1 1,1 0,1 1,1 1,1 1,0 1,1 2,0 1,1 1,0 1,1 2,0 1,1 1,0 1,1 1,0 0,-2 -1,-1 -1,0 -1,-1 -1,0 -1,-1 -1,0 -1,-1 -1,0 -1,-1 -1,0 -1,-1 -1,-1 -1,-1 0,-6 -1,1 0,0 -1,1 0,1 -1,1 -1,1 -1,1 -1,-1Z"/>
<path onmouseover="hoverPath(evt)" onmouseout="recoverPath(evt)" fill="rgb(179,202,234)" d="M  138,0l -27,0 0,11 2,0 1,1 5,0 1,-1 10,0 1,-1 3,0 1,1 0,1 1,1 0,1 1,-1 9,0 0,-1 1,-1 11,0 1,1 8,0 -1,-1 0,0 -1,-1 0,-10Z"/>
<path onmouseover="hoverPath(evt)" onmouseout="recoverPath(evt)" fill="rgb(172,198,237)" d="M  147,69l -1,0 0,2 2,0 1,1 3,0 1,1 1,0 1,1 1,1 1,1 1,1 0,3 -1,1 0,2 -1,1 0,3 -1,1 -6,0 -1,-1 -1,0 -1,-1 0,-3 -1,-1 0,-1 -2,0 -1,-1 -2,0 0,16 1,1 0,7 1,1 0,7 1,1 5,0 1,-1 0,0 1,-1 3,0 1,-1 6,0 1,-1 5,0 1,1 0,1 1,1 0,1 1,1 0,2 -1,1 0,1 1,1 0,7 1,1 0,12 1,0 1,1 0,10 1,1 0,5 -1,1 -1,0 0,2 2,0 1,1 0,14 1,1 0,1 7,0 1,-1 6,0 0,-7 -1,-1 0,-5 -1,-1 0,-5 -1,-1 0,-4 -1,-1 0,-4 -1,-1 0,-3 -1,-1 0,-4 -1,-1 0,-3 -1,-1 0,-6 -1,-1 0,-3 1,-1 0,-1 1,-1 1,0 1,-1 1,0 1,-1 1,-1 1,-1 0,-3 -1,-1 0,0 -1,-1 0,-1 -1,-1 -1,-1 0,-2 1,-1 1,-1 1,0 1,-1 1,0 1,-1 3,0 1,-1 3,0 1,-1 4,0 1,-1 4,0 1,-1 6,0 1,1 0,2 -1,1 0,1 1,1 0,2 1,1 0,2 8,0 1,-1 0,-3 1,-1 1,-1 3,0 0,-1 1,-1 2,0 1,1 5,0 1,-1 9,0 1,-1 5,0 0,-77 -6,0 -1,1 -27,0 -1,-1 -27,0 -1,1 -17,0 -1,-1 -7,0 -1,-1 -8,0 0,1 -1,1 -20,0 0,2 -1,1 -23,0 -1,-1 -3,0 0,3 9,0 1,-1 17,0 1,-1 13,0 1,1 2,0 1,1 4,0 1,1 1,1 1,1 0,1 1,1 0,4 -1,1 0,2 -1,1 0,1 1,1 0,20 -1,1 -1,1 -1,1 -4,0 -1,1 -3,0 -1,1 -1,0 -1,1Z"/>
<path onmouseover="hoverPath(evt)" onmouseout="recoverPath(evt)" fill="rgb(243,242,235)" d="M  202,255l 53,0 0,-32 -1,0 -1,1 -10,0 -1,1 -11,0 -1,1 -11,0 -1,1 -6,0 -1,1 -1,0 -1,1 0,1 -1,1 0,1 -1,1 -1,1 -6,0 -1,-1 -21,0 -1,-1 -1,-1 0,-6 -1,-1 0,-18 -1,-1 0,-21 1,-1 19,0 0,-1 1,-1 -14,0 -1,1 -26,0 -1,1 -7,0 0,1 -1,1 0,1 1,1 0,19 1,1 0,21 1,1 0,26Z"/>
<path onmouseover="hoverPath(evt)" onmouseout="recoverPath(evt)" fill="rgb(178,201,233)" d="M  222,0l -52,0 0,3 -1,1 0,4 1,1 17,0 1,1 4,0 1,1 7,0 1,-1 11,0 1,-1 10,0 0,-1 1,-1 1,0 1,-1 13,0 1,-1 11,0 1,-1 3,0 0,-4Z"/>
<path onmouseover="hoverPath(evt)" onmouseout="recoverPath(evt)" fill="rgb(244,243,236)" d="M  238,174l 17,0 0,-73 -4,0 -1,1 -9,0 -1,1 -7,0 -1,-1 0,1 -1,1 -3,0 -1,1 0,3 -1,1 -1,1 -10,0 -1,-1 0,-2 -1,-1 0,-2 -1,-1 0,-3 1,-1 -4,0 -1,1 -4,0 -1,1 -4,0 -1,1 -3,0 -1,1 -3,0 -1,1 -1,0 -1,1 -1,0 -1,1 1,1 0,0 1,1 0,1 1,1 1,1 0,5 -2,2 -1,1 -1,1 -1,0 -1,1 -1,0 0,1 -1,1 0,1 1,1 0,6 1,1 0,3 1,1 0,4 1,1 0,3 1,1 0,4 1,1 0,4 1,1 0,5 1,1 0,5 1,1 0,9 4,0 1,-1 27,0 1,-1Z"/>
</svg>