<svg width="256" height="256" xmlns="http://www.w3.org/2000/svg"><script> 
var tempColor;
function hoverPath(evt){
obj = evt.target;
tempColor = obj.getAttribute("fill");
obj.setAttribute("fill","red");
//alert(tempColor);
//obj.setAttribute("stroke","red");}
function recoverPath(evt){
obj = evt.target;
obj.setAttribute("fill", tempColor);
//obj.setAttribute("stroke", tempColor);
}</script><path onmouseover="hoverPath(evt)" onmouseout="recoverPath(evt)" fill="rgb(238,239,236)" d="M  0,4l 0,18 3,0 1,1 4,0 1,1 4,0 1,1 9,0 1,-1 5,0 1,1 1,0 1,1 2,0 1,1 2,0 1,1 6,0 1,-1 1,-1 2,0 1,-1 2,0 0,-2 1,-1 3,0 1,-1 2,0 1,-1 2,0 1,-1 0,-2 1,-1 0,-3 2,-2 0,-1 1,-1 1,-1 1,0 1,-1 1,0 1,-1 0,-6 -71,0Z"/>
<path onmouseover="hoverPath(evt)" onmouseout="recoverPath(evt)" fill="rgb(254,254,254)" d="M  1,68l -1,0 0,1 7,0 1,1 6,0 1,1 5,0 1,1 8,0 1,1 1,0 1,-1 -2,0 -1,-1 -4,0 -1,-1 -1,0 -1,-1 0,-3 -1,0 0,2 -1,1 -1,1 -3,0 -1,-1 -7,0 -1,-1 -6,0 21,-4 1,0 0,-2 1,-1 0,-3 1,-1 0,-2 1,-1 0,-2 1,-1 0,-2 -1,0 0,1 -1,1 0,3 -1,1 0,2 -1,1 0,3 -1,1 0,2 -21,4Z"/>
<path onmouseover="hoverPath(evt)" onmouseout="recoverPath(evt)" fill="rgb(244,243,236)" d="M  0,108l 0,63 4,0 1,1 7,0 0,-10 1,-1 0,-3 1,-1 0,-2 1,-1 0,-2 1,-1 0,-2 1,-1 0,-1 1,-1 0,-2 1,-1 0,-3 1,-1 0,-6 1,-1 0,-2 1,-1 5,0 1,-1 1,0 0,-1 1,-1 0,-6 1,-1 1,-1 1,-1 1,0 1,-1 0,-5 1,-1 1,-1 1,-1 1,0 1,-1 -3,1 -1,-1 0,0 -1,-1 0,-2 1,-1 -1,0 -1,1 -2,0 -1,1 -1,0 -1,1 -14,0 -1,-1 -7,0 -1,1 -3,0 -1,1 -1,0 -1,1Z"/>
<path onmouseover="hoverPath(evt)" onmouseout="recoverPath(evt)" fill="rgb(244,243,237)" d="M  0,184l 0,25 1,0 0,-1 1,-1 0,-1 1,-1 0,-3 1,-1 0,-5 1,-1 1,-1 1,-1 1,-1 1,-1 0,-1 1,-1 0,-3 -1,-1 0,-1 -1,-1 -1,0 -1,-1 -1,0 -1,1 -3,0 -1,1Z"/>
<path onmouseover="hoverPath(evt)" onmouseout="recoverPath(evt)" fill="rgb(244,243,237)" d="M  135,220l 0,0 -1,1 0,4 -1,1 0,5 -1,1 0,3 -1,1 0,4 -1,1 0,3 -1,1 -1,1 0,3 -1,1 0,5 66,0 0,-3 1,-1 0,-4 1,-1 0,-3 1,-1 0,-3 1,-1 0,-3 1,-1 0,-1 -5,0 -1,-1 -6,0 -1,-1 -4,0 -1,-1 -2,0 -1,-1 -2,0 -1,-1 -1,0 -1,-1 -1,1 0,3 -1,1 -4,0 -1,-1 0,-6 -2,0 -1,1 -5,0 -1,-1 -7,0 -1,-1 -1,0 -1,-1 -2,0 -1,-1 -1,-1 -1,0 -1,-1 -2,0 -1,-1 -1,0 -1,1Z"/>
<path onmouseover="hoverPath(evt)" onmouseout="recoverPath(evt)" fill="rgb(242,241,231)" d="M  200,220l -1,0 -1,-1 -3,0 -1,-1 -3,0 -1,-1 -4,0 -1,-1 -3,0 -1,-1 -3,0 -1,-1 -3,0 0,2 -1,1 0,2 1,1 0,0 1,1 1,0 1,1 1,1 2,0 1,1 2,0 1,1 2,0 1,1 3,0 1,1 4,0 1,1 3,0 0,-4 1,-1Z"/>
<path onmouseover="hoverPath(evt)" onmouseout="recoverPath(evt)" fill="rgb(243,242,236)" d="M  207,236l 0,3 -1,1 0,3 -1,1 0,3 -1,1 0,3 -1,1 0,3 52,0 0,-11 -2,0 -1,-1 -1,0 -1,-1 -5,0 0,4 -1,1 0,1 -1,1 -3,0 -1,-1 0,-6 -12,0 -1,-1 -3,0 -1,-1 -1,-1 -1,0 -1,-1 -1,-1 -1,0 -1,-1 -3,0 -1,-1 -4,0 -1,1Z"/>
<path onmouseover="hoverPath(evt)" onmouseout="recoverPath(evt)" fill="rgb(171,198,238)" d="M  235,48l 0,1 -1,1 0,10 1,0 0,-1 1,-1 0,-8 1,-1 0,-2 1,-1 0,-1 1,-1 0,-1 1,-1 0,-1 1,-1 0,-1 1,-1 0,-1 1,-1 0,-1 1,-1 0,-1 1,-1 0,-1 1,-1 1,-1 0,-3 1,-1 0,-9 1,-1 0,-9 -3,0 0,2 1,1 0,10 -1,1 0,5 -1,1 0,2 -1,1 0,1 -1,1 0,1 -1,1 0,1 -1,1 0,1 -1,1 0,1 -1,1 0,1 -1,1 0,1 -1,1 0,1 -1,1 0,2 -1,1Z"/>
<path onmouseover="hoverPath(evt)" onmouseout="recoverPath(evt)" fill="rgb(243,242,234)" d="M  0,73l 0,28 1,0 1,-1 8,0 1,-1 4,0 1,1 13,0 1,-1 1,0 1,-1 1,-1 11,0 1,-1 0,-1 1,-1 0,-4 1,-1 0,-4 1,-1 0,-3 1,-1 0,-1 1,-1 0,-2 1,-1 0,-2 -1,-1 0,-2 1,-1 1,-1 1,0 1,-1 1,-1 1,-1 0,-2 1,-1 0,-3 1,-1 0,-3 1,-1 0,-5 1,-1 0,-3 -1,-1 0,0 -1,-1 0,-3 1,-1 1,-1 1,0 1,-1 1,-1 0,-1 1,-1 0,-1 1,-1 0,-4 -1,-1 0,0 -1,-1 -1,0 -1,-1 -1,0 -1,1 -6,0 -1,1 -2,0 -1,1 -2,0 -1,1 -1,1 -8,0 -1,-1 -2,0 -1,-1 -2,0 -1,-1 -1,0 -1,-1 -3,0 -1,1 -11,0 -1,-1 -4,0 -1,-1 -4,0 -1,-1 -2,0 0,1 2,0 3,1 2,0 3,1 2,0 4,1 1,0 1,1 0,6 -1,1 0,3 -1,1 -1,1 -7,0 -1,-1 -5,0 -1,-1 -1,0 0,6 7,0 1,1 5,0 1,1 3,0 1,1 0,5 -1,1 0,4 -1,1 0,2 -1,1 -6,0 -1,-1 -5,0 -1,-1 -2,0 0,6 8,0 1,1 7,0 1,1 1,0 1,-1 0,-2 1,-1 0,-3 1,-1 0,-3 1,-1 0,-2 1,-1 0,-3 1,-1 0,-1 1,-1 3,0 1,1 0,4 -1,1 0,2 -1,1 0,2 -1,1 0,3 -1,1 0,3 -1,1 0,1 1,0 1,1 4,0 1,1 2,0 1,1 0,2 -1,1 -1,1 -3,0 -1,-1 -8,0 -1,-1 -5,0 -1,-1 -6,0 -1,-1 -6,0Z"/>
<path onmouseover="hoverPath(evt)" onmouseout="recoverPath(evt)" fill="rgb(242,241,231)" d="M  19,181l 0,5 -1,1 0,1 4,0 1,1 5,0 1,1 3,0 1,1 3,0 1,1 3,0 1,1 4,0 1,1 3,0 1,1 3,0 1,1 7,0 1,1 2,0 1,1 2,0 1,1 5,0 1,1 8,0 1,1 5,0 1,1 3,0 1,1 4,0 1,1 10,0 1,-1 1,-1 0,-1 1,-1 0,-1 -2,0 -1,-1 -3,0 -1,-1 -3,0 -1,-1 -3,0 -1,-1 -4,0 -1,-1 -4,0 -1,-1 -3,0 -1,-1 -3,0 -1,-1 -4,0 -1,-1 -3,0 -1,-1 -3,0 -1,-1 -3,0 -1,-1 -4,0 -1,-1 -4,0 -1,-1 -3,0 -1,-1 -4,0 -1,-1 -3,0 -1,-1 -4,0 -1,-1 -4,0 -1,-1 -4,0 -1,-1 -4,0Z"/>
<path onmouseover="hoverPath(evt)" onmouseout="recoverPath(evt)" fill="rgb(242,241,232)" d="M  70,21l 0,4 1,1 0,7 -1,1 0,3 -1,1 0,3 -1,1 0,3 -1,1 0,4 -1,1 0,6 -1,1 0,4 -1,1 0,1 -1,1 0,1 -1,1 0,1 -1,1 0,2 -1,1 0,1 -1,1 0,1 -1,1 0,2 -1,1 0,1 -1,1 0,1 -1,1 0,2 -1,1 0,5 -1,1 0,4 -1,1 0,2 -1,1 -1,1 -1,1 0,2 1,1 0,3 1,0 0,-1 1,-1 0,-2 1,-1 0,-1 1,-1 0,-1 1,-1 0,-1 1,-1 0,-1 1,-1 0,-2 1,-1 0,-1 1,-1 0,-1 1,-1 0,-2 1,-1 0,-1 1,-1 0,-2 1,-1 0,-1 1,-1 0,-1 1,-1 0,-2 1,-1 0,-1 1,-1 0,-1 1,-1 0,-2 1,-1 0,-1 1,-1 1,-1 0,-1 1,-1 0,-1 1,-1 2,0 -1,-1 0,-2 1,-1 0,-1 1,-1 2,0 0,-1 1,-1 0,-1 1,-1 0,-1 -1,-1 0,-2 1,-1 0,-1 1,-1 0,-2 1,-1 0,-1 1,-1 -1,0 -1,-1 -1,-1 0,-3 1,-1 0,-6 -1,-1 -1,0 -1,-1 0,-1 -1,0 -1,-1 -3,0 -1,-1 -1,0 -1,1Z"/>
<path onmouseover="hoverPath(evt)" onmouseout="recoverPath(evt)" fill="rgb(242,241,231)" d="M  122,216l -1,0 0,3 -1,1 0,3 -1,1 0,3 -1,1 0,4 -1,1 0,3 -1,1 0,2 -1,1 0,4 -1,1 0,2 -1,1 0,3 -1,1 0,3 8,0 0,-4 1,-1 0,-1 1,-1 0,-1 1,-1 0,-1 1,-1 0,-1 1,-1 0,-2 1,-1 0,-11 1,-1 0,-2 1,-1 0,-3 1,-1 0,-3 -3,0 -1,-1Z"/>
<path onmouseover="hoverPath(evt)" onmouseout="recoverPath(evt)" fill="rgb(242,241,231)" d="M  124,205l 0,1 1,1 0,2 1,1 3,0 1,1 2,0 0,-2 1,-1 2,0 1,1 0,3 1,1 0,1 2,0 1,1 2,0 1,1 2,0 1,1 1,1 1,1 1,0 1,1 4,0 1,1 1,0 1,-1 4,0 1,-1 4,0 1,-1 1,0 0,-2 1,-1 0,-1 1,-1 -1,0 -1,-1 -3,0 -1,-1 -4,0 -1,-1 -2,0 -1,-1 -4,0 -1,-1 -3,0 -1,-1 -4,0 -1,-1 -3,0 -1,-1 -3,0 -1,-1 -4,0 -1,-1 -3,0 -1,-1 0,1 -1,1Z"/>
<path onmouseover="hoverPath(evt)" onmouseout="recoverPath(evt)" fill="rgb(179,203,238)" d="M  200,184l 1,-1 4,0 1,-1 0,-1 1,-1 0,-1 1,-1 0,-1 1,-1 0,-1 1,-1 0,-2 1,-1 0,-1 1,-1 0,-3 1,-1 0,-1 1,-1 2,0 0,-3 1,-1 0,-2 1,-1 0,-1 -2,2 -3,0 -1,-1 -2,0 -1,-1 -2,0 -1,-1 -4,0 -1,-1 0,-4 -1,-1 -2,0 -1,-1 -6,0 -1,-1 -1,0 -1,-1 -3,0 -1,-1 -1,0 -1,1 -2,0 0,2 -1,1 0,2 -1,1 0,2 -1,1 0,2 -1,1 0,1 -1,1 0,2 -1,1 0,2 -1,1 -1,1 -2,0 -1,-1 -3,0 -1,-1 0,2 -1,1 -3,0 2,1 5,0 1,1 1,0 1,1 1,0 1,1 0,1 1,1 0,2 3,0 1,1 2,0 1,1 0,3 1,0 1,-1 7,0 1,1 0,4 -1,1 0,2 -1,1 0,2 -1,1 0,3 5,0 1,-1 1,0 0,-1 1,-1 1,-1 0,-1 1,-1 0,-1 1,-1 1,-1Z"/>
<path onmouseover="hoverPath(evt)" onmouseout="recoverPath(evt)" fill="rgb(238,239,237)" d="M  254,49l 0,1 -1,1 0,4 -1,1 0,3 -1,1 0,2 -1,1 0,3 -1,1 0,2 -1,1 0,2 -1,1 0,2 -1,1 0,3 -1,1 0,3 -1,1 0,2 -1,1 0,3 -1,1 0,3 -1,1 0,3 -1,1 0,2 -1,1 0,3 -1,1 0,3 -1,1 0,3 -1,1 0,3 -1,1 -1,0 -1,1 1,1 1,0 1,1 1,0 1,1 1,0 1,1 1,0 1,1 1,0 1,1 1,0 1,1 1,0 1,1 1,0 1,1 1,0 1,1 1,0 1,1 1,1 0,-81 -1,-1 1,-1 0,-1 -1,0 0,1 1,0 -1,1Z"/>
<path onmouseover="hoverPath(evt)" onmouseout="recoverPath(evt)" fill="rgb(244,243,235)" d="M  253,165l 0,2 -1,1 0,2 -1,1 0,3 -1,1 0,2 -1,1 0,3 -1,1 0,1 -1,1 0,2 -1,1 0,1 -1,1 0,2 -1,1 0,2 -1,1 0,1 -1,1 0,1 -1,1 0,2 -1,1 0,1 -1,1 0,2 -1,1 0,3 -1,1 0,6 -1,1 0,5 -1,1 0,2 1,0 1,1 3,0 1,1 3,0 1,1 4,0 1,1 5,0 0,-68 -1,0 0,2 -1,1Z"/>
<path onmouseover="hoverPath(evt)" onmouseout="recoverPath(evt)" fill="rgb(244,244,234)" d="M  65,254l -6,0 -1,-1 -6,0 -1,1 -8,0 -1,-1 -7,0 -1,-1 -8,0 -1,-1 -7,0 -1,-1 -7,0 -1,-1 -6,0 -1,-1 -2,0 0,7 64,0 1,-1 1,1 1,0 0,-1 -1,0 0,1 -1,-1Z"/>
<path onmouseover="hoverPath(evt)" onmouseout="recoverPath(evt)" fill="rgb(174,199,238)" d="M  126,134l 0,2 -1,1 0,2 -1,1 0,4 1,0 1,1 0,1 1,1 1,1 1,1 0,2 -1,1 0,1 1,-1 3,0 1,1 2,0 1,1 0,5 -1,1 0,3 -1,1 0,3 -1,1 0,2 -1,1 0,3 -1,1 1,0 1,1 0,4 2,0 1,1 2,0 0,-2 1,-1 0,-2 1,-1 0,-2 1,-1 0,-2 1,-1 0,-2 1,-1 0,-1 1,-1 0,-2 1,-1 0,-1 1,-1 0,-1 2,-2 3,0 1,1 1,0 1,1 2,0 1,1 0,4 -1,1 2,0 1,1 4,0 0,-2 1,-1 2,0 1,1 3,0 1,1 1,-1 0,-2 1,-1 0,-2 1,-1 0,-1 1,-1 0,-2 1,-1 0,-2 1,-1 0,-2 1,-1 0,-3 -2,0 -1,-1 -7,0 -1,1 0,2 -1,1 0,2 -1,1 0,2 -1,1 -5,0 -1,-1 -1,0 -1,-1 -2,0 -1,-1 -2,0 -1,-1 -2,0 -1,-1 -2,0 -1,-1 -2,0 -1,-1 -2,0 -1,-1 -1,0 -1,-1 -2,0 -1,-1 -2,0 -1,-1 -3,0 -1,-1 0,-2 1,-1 0,-1 1,-1 0,-3 1,-1 0,-2 1,-1 0,-3 1,-1 0,-2 1,-1 0,-1 1,-1 0,-1 1,-1 0,-1 1,-1 0,-2 1,-1 0,-1 1,-1 0,-2 1,-1 0,-1 1,-1 1,-1 0,-2 1,-1 2,0 -2,-1 -1,0 0,1 -1,2 -1,0 -1,1 0,1 -1,1 0,2 -1,1 0,1 -1,1 0,1 -1,1 0,2 -1,1 0,1 -1,1 0,2 -1,1 0,2 -1,1 0,2 -1,1 0,3 -1,1 0,2 -1,1Z"/>
<path onmouseover="hoverPath(evt)" onmouseout="recoverPath(evt)" fill="rgb(244,243,236)" d="M  141,106l 0,0 -1,1 0,1 -1,1 0,2 -1,1 0,1 -1,1 0,2 -1,1 0,1 -1,1 0,1 -1,1 0,1 -1,1 0,2 -1,1 0,3 -1,1 0,2 -1,1 0,3 -1,1 0,1 -1,1 3,0 1,1 2,0 1,1 2,0 1,1 1,0 1,1 2,0 1,1 2,0 1,1 2,0 1,1 2,0 1,1 2,0 1,1 2,0 1,1 1,0 1,1 3,0 0,-2 1,-1 0,-2 1,-1 0,-2 2,-2 9,0 1,1 2,0 1,1 0,1 1,0 1,-1 3,0 1,1 3,0 1,1 1,0 1,1 6,0 1,1 2,0 1,1 1,1 0,4 4,0 1,1 2,0 1,1 2,0 1,1 2,0 0,-1 1,-1 0,-3 1,-1 0,-4 1,-1 0,-3 1,-1 0,-3 1,-1 0,-4 1,-1 0,-3 1,-1 0,-3 1,-1 0,-3 1,-1 0,-1 -1,0 -1,-1 -1,0 -1,-1 -1,0 -1,-1 -1,0 -1,-1 -1,0 -1,-1 -1,0 -1,-1 -1,0 -1,-1 -1,0 -1,-1 -1,0 -1,-1 -2,0 -1,-1 -2,0 -1,-1 -2,0 -1,-1 -1,-1 -1,-1 -1,-1 -1,0 -1,-1 -1,0 -1,-1 -1,0 -1,-1 -1,0 -1,-1 -1,1 0,1 -1,1 0,1 -1,1 -1,1 0,2 -1,1 0,2 -1,1 0,2 -1,1 0,2 -1,1 0,3 -1,1 -1,1 -4,0 -1,-1 0,-5 1,-1 0,-1 1,-1 0,-2 1,-1 0,-2 1,-1 0,-2 1,-1 0,-1 1,-1 0,-2 1,-1 0,-1 1,-1 -1,-1 0,-1 -1,-1 -1,0 -1,-1 -1,-1 -1,-1 -1,0 -1,-1 -1,0 -1,-1 -1,0 -1,-1 -2,0 -1,-1 -1,0 -1,-1 -1,0 -1,-1 -2,0 -1,-1 -2,0 -1,-1 -1,0 -1,-1 -1,0 -1,-1 -1,-1 -1,0 -1,-1 -1,-1 -1,-1 -1,-1 -1,-1 -1,-1 -1,-1 -1,0 -1,-1 -1,0 -1,-1 -3,0 -1,-1 -3,0 -1,-1 -1,-1 -1,0 -1,-1 0,-1 -1,0 -1,-1 -1,-1 0,-1 -2,0 -1,-1 -1,0 -1,-1 -1,-1 -1,0 -1,-1 -1,0 -1,-1 -1,0 -1,-1 -2,0 -1,-1 -6,0 -1,-1 -2,0 -1,-1 -2,0 -1,-1 -1,0 -1,-1 -1,-1 -1,0 -1,-1 -1,-1 -1,-1 0,-1 -1,-1 -1,-1 0,-1 -1,-1 0,-1 -1,0 0,1 -1,1 -2,0 1,1 0,2 -1,1 0,2 -1,1 0,1 -1,1 0,1 -1,1 -2,0 1,1 0,2 -1,1 0,1 -1,1 0,3 -1,1 0,2 -1,1 0,3 1,0 1,1 0,2 1,0 1,-1 4,0 1,1 0,2 1,0 1,-1 4,0 1,1 1,0 1,1 0,2 2,0 1,-1 3,0 1,1 3,0 1,1 1,0 1,1 0,2 1,1 1,1 1,-1 2,0 1,1 1,0 1,1 1,1 2,0 1,1 1,0 1,1 2,0 1,1 1,0 1,1 1,0 1,1 2,0 1,1 1,0 1,1 1,0 1,1 2,0 1,1 1,0 1,1 1,0 1,1 2,0 1,1 1,0 1,1 0,2 -1,1 -2,0 0,2 -1,1Z"/>
<path onmouseover="hoverPath(evt)" onmouseout="recoverPath(evt)" fill="rgb(171,198,238)" d="M  180,82l 0,1 -1,1 -1,1 -1,1 -4,0 -1,-1 -1,-1 -1,0 -1,-1 -5,0 -1,-1 -1,0 -1,-1 -2,0 -1,-1 -1,0 -1,-1 -1,0 -1,-1 -1,0 -1,-1 -1,-1 -1,-1 -1,-1 -1,0 -1,-1 -1,-1 -1,-1 -1,-1 -1,0 -1,-1 -1,0 -1,-1 -4,0 -1,-1 -1,0 -1,-1 -1,0 -1,-1 -1,-1 -2,0 -1,-1 0,1 -1,-1 1,-1 -1,-1 -1,0 -1,-1 -1,-1 -1,-1 -1,0 -1,-1 -1,-1 -1,-1 -1,0 -1,-1 -2,0 -1,-1 -7,0 -1,-1 -4,0 -1,-1 -3,0 -1,-1 0,-1 -1,-1 -1,-1 -1,-1 -1,-1 -1,-1 0,-1 -1,-1 0,-1 -1,-1 0,-2 -1,-1 0,1 -1,1 0,1 1,1 0,1 1,1 0,1 1,1 1,1 0,1 1,1 1,1 1,0 1,1 1,1 -1,-2 85,33 -82,-30 2,0 1,1 2,0 1,1 6,0 1,1 2,0 1,1 1,0 1,1 1,0 1,1 1,0 1,1 1,1 1,0 1,1 1,0 -1,-1 -3,-2 -22,-6 82,30 -54,-20 3,3 0,1 1,0 1,1 1,1 3,0 1,1 3,0 1,1 1,0 1,1 1,0 1,1 1,1 1,1 1,1 1,1 1,1 1,1 1,0 1,1 1,1 1,0 1,1 1,0 1,1 2,0 1,1 2,0 1,1 1,0 1,1 1,0 1,1 2,0 1,1 1,0 1,1 1,0 1,1 1,0 1,1 1,1 1,1 1,0 1,1 1,1 0,1 1,1 0,2 -1,1 0,1 -1,1 0,2 -1,1 0,1 -1,1 0,2 -1,1 0,2 -1,1 0,2 -1,1 0,1 -1,1 0,3 2,0 1,-1 0,-3 1,-1 0,-2 1,-1 0,-2 1,-1 0,-2 1,-1 0,-2 1,-1 1,-1 0,-1 1,-1 0,-1 1,-1 1,-1 2,0 1,1 1,0 1,1 1,0 1,1 1,0 1,1 1,0 1,1 1,1 1,1 1,1 2,0 1,1 2,0 1,1 2,0 1,1 1,0 1,1 1,0 1,1 1,0 1,1 1,0 1,1 1,0 1,1 1,0 1,1 1,0 1,1 1,0 1,1 2,0 0,-3 -2,0 -1,-1 -1,0 -1,-1 -1,0 -1,-1 -1,0 -1,-1 -1,0 -1,-1 -1,0 -1,-1 -1,0 -1,-1 -1,0 -1,-1 0,-6 1,-1 0,-1 1,-1 0,-1 1,-1 0,-1 1,-1 0,-1 1,-1 1,-1 1,-1 0,-1 1,-1 1,-1 1,-1 0,-1 1,-1 1,-1 0,-1 1,-1 0,-1 1,-1 1,-1 0,-1 1,-1 0,-2 1,-1 0,-1 1,-1 0,-1 1,-1 1,-1 0,-1 1,-1 2,-2 -1,0 -4,4 -1,1 -2,2 0,2 -1,1 0,1 -1,1 0,1 -1,1 0,1 -1,1 0,1 -1,1 -1,1 0,1 -1,1 -1,1 0,1 -1,1 -1,1 -1,1 0,1 -1,1 0,1 -1,1 0,1 -1,1 0,1 -2,2 0,1 -1,1 0,1 -1,1 0,1 -1,1 -4,0 -1,-1 -1,0 -1,-1 -1,-1 -1,0 -1,-1 -1,-1 -1,0 -1,-1 -1,0 -1,-1 -1,-1 -1,0 -1,-1 -4,0 -1,-1 -1,0 -1,-1 -1,0 -1,-1 0,-1 -1,-1 0,-2 1,-1 0,-1 1,-1 -2,2 -52,-24 54,20 1,-2 1,0 0,-1 1,-1 0,-1 1,-1 0,-3 -1,-1 0,0 -1,-1 -3,0 -1,1 3,0 1,1 0,4 -1,1 0,2 -1,2Z"/>
<path onmouseover="hoverPath(evt)" onmouseout="recoverPath(evt)" fill="rgb(241,241,235)" d="M  182,210l 3,0 1,1 5,0 1,1 1,0 1,1 3,0 1,1 1,0 1,-1 2,0 0,-1 1,-1 0,-3 1,-1 0,-4 1,-1 0,-3 1,-1 0,-3 1,-1 0,-3 1,-1 0,-4 1,-1 0,-3 1,-1 0,-3 1,-1 0,-1 -2,4 0,1 -1,1 0,1 -1,1 -1,1 -4,0 0,1 -1,1 -1,1 0,1 -1,1 0,1 -1,1 -1,1 0,1 -1,1 -1,0 -1,1 -7,0 -1,-1 -3,0 -1,-1 -1,0 -1,1 0,2 -1,1 -1,1 0,4 1,0 1,1 1,1 0,2 -1,1 -4,0 0,1 4,0 1,1Z"/>
<path onmouseover="hoverPath(evt)" onmouseout="recoverPath(evt)" fill="rgb(244,234,146)" d="M  255,21l 0,-21 -21,0 0,2 1,1 5,0 1,1 9,0 1,1 0,11 -1,1 0,9 -1,1 0,2 1,1 0,3 -1,1 0,3 -1,1 0,4 -1,1 0,3 -1,1 0,3 -1,1 0,4 -1,1 0,3 -1,1 0,2 -1,1 0,2 -1,1 0,2 -1,1 0,3 -1,1 0,2 -1,1 0,3 -1,1 0,2 -1,1 0,3 -1,1 0,3 -1,1 0,2 -1,1 0,3 -1,1 0,3 -1,1 0,3 -1,1 0,2 -1,1 0,8 -1,1 -1,0 0,2 -1,1 0,3 -1,1 0,3 -1,1 0,3 -1,1 0,4 -1,1 0,3 -1,1 0,3 -1,1 0,4 -1,1 0,2 1,1 0,3 -1,1 0,2 -1,1 0,3 -1,1 -2,0 0,1 -1,1 0,3 -1,1 0,1 -1,1 0,1 1,1 0,3 -1,1 0,3 -1,1 0,3 -1,1 0,4 -1,1 0,3 -1,1 0,3 -1,1 0,3 -1,1 0,4 -1,1 0,3 -1,1 0,1 -1,1 0,0 1,1 0,3 -1,1 -1,0 0,4 -1,1 0,3 1,1 0,3 -1,1 -1,0 0,2 -1,1 0,3 -1,1 0,3 -1,1 0,3 -1,1 0,4 -1,1 0,2 6,0 0,-4 1,-1 0,-3 1,-1 0,-3 1,-1 0,-3 1,-1 0,-8 1,-1 5,0 1,1 3,0 1,1 3,0 1,1 1,0 1,1 1,1 1,0 1,1 2,0 1,-1 0,-4 -3,0 -1,-1 -4,0 -1,-1 -4,0 -1,-1 -3,0 -1,-1 -2,0 -1,-1 0,-3 1,-1 1,0 0,-4 1,-1 0,-4 1,-1 0,-4 1,-1 0,-3 1,-1 0,-3 1,-1 0,-3 1,-1 0,-4 1,-1 0,-3 1,-1 0,-3 1,-1 0,-3 1,-1 0,-3 1,-1 0,-3 1,-1 0,-2 1,-1 0,-4 1,-1 0,-3 1,-1 0,-3 1,-1 0,-4 1,-1 0,-3 1,-1 0,-3 1,-1 0,-4 1,-1 0,-3 1,-1 0,-3 1,-1 0,-3 1,-1 0,-2 -1,-1 0,-2 1,-1 1,-1 1,0 0,-3 1,-1 0,-3 1,-1 0,-3 1,-1 0,-3 1,-1 0,-2 1,-1 0,-3 1,-1 0,-3 1,-1 0,-3 1,-1 0,-2 1,-1 0,-3 1,-1 0,-3 1,-1 0,-2 1,-1 0,-2 1,-1 0,-2 1,-1 0,-3 1,-1 0,-2 1,-1 0,-3 1,-1 0,-4 1,-1 0,-3 1,-1 2,0Z"/>
<path onmouseover="hoverPath(evt)" onmouseout="recoverPath(evt)" fill="rgb(236,238,235)" d="M  1,27l -1,0 0,10 2,0 1,1 5,0 1,1 5,0 1,-1 0,-3 1,-1 0,-4 -1,0 -1,-1 -5,0 -1,-1 -4,0 -1,-1Z"/>
<path onmouseover="hoverPath(evt)" onmouseout="recoverPath(evt)" fill="rgb(236,238,235)" d="M  2,47l -2,0 0,11 3,0 1,1 5,0 1,1 4,0 0,-2 1,-1 0,-4 1,-1 0,-3 -3,0 -1,-1 -5,0 -1,-1Z"/>
<path onmouseover="hoverPath(evt)" onmouseout="recoverPath(evt)" fill="rgb(243,242,234)" d="M  15,195l 0,1 -1,1 0,2 -1,1 0,1 -1,1 0,1 -1,1 0,2 -1,1 0,2 -1,1 0,1 -1,1 0,2 -1,1 0,2 -1,1 0,2 -1,1 0,1 -1,1 0,2 -1,1 0,2 -1,1 0,1 -1,1 -1,0 0,15 3,0 1,1 6,0 1,1 7,0 1,1 7,0 1,1 8,0 1,1 7,0 1,1 6,0 1,-1 8,0 1,1 8,0 1,1 0,2 38,0 0,-5 1,-1 0,-3 1,-1 0,-3 1,-1 0,-3 1,-1 0,-1 -1,-1 -3,0 -1,-1 -4,0 -1,-1 -6,0 -1,-1 -5,0 -1,-1 -5,0 -1,-1 -5,0 -1,-1 -5,0 -1,-1 -6,0 -1,-1 -5,0 -1,-1 -5,0 -1,-1 -5,0 -1,-1 -6,0 -1,-1 -5,0 -1,-1 -5,0 -1,-1 0,-3 1,-1 8,0 1,1 5,0 1,1 5,0 1,1 5,0 1,1 6,0 1,1 5,0 1,1 5,0 1,1 5,0 1,1 5,0 1,1 6,0 1,1 5,0 1,1 5,0 1,1 5,0 1,1 2,0 0,-1 1,-1 0,-2 1,-1 0,-3 1,-1 0,-4 1,-1 0,-2 -2,0 -1,-1 -2,0 -1,-1 -1,0 -1,-1 -1,0 -1,-1 -5,0 -1,1 -4,0 -1,-1 -1,0 -1,-1 -3,0 -1,-1 -6,0 -1,-1 -7,0 -1,-1 -6,0 -1,-1 -3,0 -1,-1 -2,0 -1,-1 -4,0 -1,-1 -6,0 -1,-1 -3,0 -1,-1 -2,0 -1,-1 -3,0 -1,-1 -2,0 -1,-1 -2,0 -1,-1 -4,0 -1,-1 -3,0 -1,-1 -6,0 -1,1Z"/>
<path onmouseover="hoverPath(evt)" onmouseout="recoverPath(evt)" fill="rgb(174,199,237)" d="M  24,131l -1,0 0,2 -1,1 0,6 -1,1 0,3 -1,1 0,2 -1,1 0,1 -1,1 0,2 -1,1 0,2 -1,1 0,2 -1,1 0,3 -1,1 0,9 3,0 1,1 2,0 1,1 1,0 1,-1 0,-1 1,-1 0,-3 1,-1 0,-2 1,-1 0,-2 1,-1 0,-1 1,-1 0,-1 1,-1 0,-2 1,-1 0,-1 1,-1 0,-1 1,-1 0,-1 1,-1 0,-2 1,-1 0,-1 1,-1 0,-1 1,-1 0,-1 1,-1 0,-2 1,-1 0,-1 1,-1 0,-1 1,-1 0,-2 1,-1 0,-1 1,-1 0,-1 1,-1 0,-1 1,-1 0,-2 1,-1 0,-1 1,-1 0,-1 1,-1 0,-2 1,-1 0,-1 1,-1 0,-1 -1,-1 0,-3 -1,-1 0,-4 2,-2 1,-1 0,-2 1,-1 0,-4 1,-1 0,-5 1,-1 0,-2 1,-1 0,-1 1,-1 0,-1 1,-1 0,-2 1,-1 0,-1 1,-1 0,-1 1,-1 0,-2 1,-1 0,-1 1,-1 0,-1 1,-1 0,-1 1,-1 0,-4 1,-1 0,-6 1,-1 0,-4 1,-1 0,-3 1,-1 0,-3 1,-1 0,-3 1,-1 0,-5 -1,-1 0,-7 1,-1 4,0 1,1 3,0 1,1 1,0 1,1 0,-1 1,1 -1,1 1,0 1,1 1,1 0,8 -1,1 0,1 1,1 0,-1 1,-1 0,-2 1,-1 1,-1 0,-1 -1,-1 0,-4 -1,-1 -1,0 -1,-1 0,1 -58,109 54,-112 0,0 -3,-1 -1,0 -1,-1 -2,0 -1,-1 0,-3 1,-1 1,-1 1,0 1,-1 1,0 1,-1 1,0 1,-1 2,0 1,-1 1,0 1,-1 1,0 1,-1 0,-1 1,-1 0,-3 -13,0 0,7 -1,1 -1,1 -1,0 -1,1 -1,0 -1,1 0,1 -1,1 -1,1 0,3 -1,1 0,2 -1,1 -1,1 -2,0 -1,1 -2,0 -1,1 2,0 2,-1 2,0 1,1 1,0 1,1 1,1 1,1 0,6 -1,1 0,1 -1,1 0,1 -1,1 -1,1 -1,1 -1,0 -1,1 0,1 1,1 0,0 1,1 0,5 -1,1 0,5 -1,1 0,3 -1,1 0,3 -1,1 0,2 -1,1 -1,1 -1,1 -1,1 -1,0 -1,1 1,1 0,4 -1,1 0,2 -1,1 0,1 -1,1 0,3 -1,1 0,4 -1,1 0,4 -1,1 0,1 -2,2 -11,0 -1,1 -1,1 -1,0 -1,1 -15,0 -1,-1 -2,0 -1,1 -8,0 -1,1 -2,0 0,2 1,0 1,-1 3,0 1,-1 9,0 1,1 12,0 1,-1 1,0 1,-1 2,0 1,-1 3,0 1,1 0,2 -1,1 1,1 1,-1 2,0 1,1 0,2 -1,1 -1,1 -1,0 -1,1 -1,1 0,5 -1,1 -1,1 -1,0 -1,1 -1,1 0,6 -1,1 0,1 -1,1 -1,0 -1,1 -3,0 53,-112 -54,112Z"/>
<path onmouseover="hoverPath(evt)" onmouseout="recoverPath(evt)" fill="rgb(253,253,253)" d="M  29,219l -1,0 0,1 5,0 1,1 5,0 1,1 6,0 1,1 5,0 1,1 5,0 1,1 5,0 1,1 6,0 1,1 5,0 1,1 5,0 1,1 5,0 1,1 5,0 1,1 6,0 1,1 4,0 1,1 3,0 1,1 1,1 0,3 1,0 0,-2 1,-1 0,-3 1,-1 0,-4 1,-1 0,-3 1,-1 0,-3 1,-1 0,-3 1,-1 0,-1 1,-1 0,-5 1,-1 0,-3 1,-1 0,-1 1,-1 2,0 1,1 3,0 1,1 4,0 1,1 3,0 1,1 3,0 1,1 4,0 1,1 3,0 1,1 4,0 1,1 2,0 1,1 4,0 1,1 3,0 1,1 1,0 1,1 6,0 1,1 3,0 1,1 3,0 1,1 4,0 1,1 3,0 1,1 3,0 1,1 2,0 0,-1 -2,0 -1,-1 -2,0 -1,-1 -3,0 -1,-1 -1,0 -1,-1 -5,0 -1,-1 -4,0 -1,-1 -4,0 -1,-1 -1,0 -1,-1 -5,0 -1,-1 -3,0 -1,-1 -4,0 -1,-1 -3,0 -1,-1 -4,0 -1,-1 -2,0 -1,-1 -4,0 -1,-1 -3,0 -1,-1 -3,0 -1,-1 -4,0 -1,-1 -2,0 -1,-1 0,-5 -1,4 -6,0 -1,-1 -5,0 -1,-1 -3,0 -1,-1 -3,0 -1,-1 -4,0 -1,-1 -3,0 -1,-1 -3,0 -1,-1 -4,0 -1,-1 -4,0 -1,-1 -3,0 -1,-1 -3,0 -1,-1 -4,0 -1,-1 -3,0 -1,-1 -4,0 -1,-1 -2,0 -1,-1 -4,0 -1,-1 -4,0 -1,-1 -4,0 -1,-1 -3,0 -1,-1 -3,0 -1,-1 -3,0 -1,-1 0,-5 1,-1 0,-2 1,-1 0,-2 1,-1 0,-1 1,-1 0,-2 1,-1 0,-1 1,-1 0,-1 1,-1 0,-1 1,-1 0,-2 1,-1 0,-1 1,-1 1,-1 4,0 1,1 4,0 1,-1 1,0 0,-1 1,-1 0,-1 1,-1 -2,0 0,1 -1,1 -1,1 -1,1 -3,0 -1,-1 -1,0 -1,-1 0,-5 1,-1 0,-1 1,-1 0,-2 1,-1 0,-1 1,-1 0,-1 1,-1 0,-2 1,-1 0,-1 1,-1 0,-1 1,-1 0,-1 1,-1 0,-2 1,-1 0,-1 1,-1 0,-1 1,-1 0,-1 1,-1 0,-2 1,-1 0,-1 1,-1 0,-1 1,-1 0,-1 1,-1 0,-2 1,-1 0,-1 1,-1 0,-1 1,-1 0,-1 1,-1 0,-1 1,-1 0,-2 1,-1 0,-1 1,-1 0,-2 1,-1 0,-1 1,-1 0,-1 1,-1 0,-2 1,-1 0,-1 1,-1 0,-1 1,-1 4,0 -2,-1 0,-5 1,-1 0,-2 1,-1 0,-2 -1,2 -1,2 -1,1 0,1 -1,1 0,2 -1,1 0,1 -1,1 0,1 -1,1 0,2 -1,1 0,1 -1,1 0,1 -1,1 0,2 -1,1 0,1 -1,1 0,2 -1,1 0,1 -1,1 0,1 -1,1 0,2 -1,1 0,1 -1,1 0,1 -1,1 0,1 -1,1 0,1 -1,1 0,2 -1,1 0,1 -1,1 -1,0 0,2 -1,1 0,1 -1,1 0,2 -1,1 0,1 -1,1 0,1 -1,1 0,2 -1,1 0,1 -1,1 0,1 -1,1 0,1 -1,1 0,2 -1,1 0,1 -1,1 0,1 -1,1 0,2 -1,1 0,1 -1,1 0,1 -1,1 0,1 -1,1 0,2 -1,1 0,1 -1,1 0,1 -1,1 0,1 -1,1 0,2 -1,1 0,1 -1,1 0,1 -1,1 0,2 -1,1 0,2 -1,1 0,3 -1,1 0,1 -1,1 -1,1 -3,0 -1,-1 -2,0 -1,-1 -12,0 -1,-1 -3,0 0,1 2,0 1,1 6,0 1,1 4,0 1,1 9,0 1,1 4,0 1,1 4,0 1,1 4,0 1,1 3,0 1,1 4,0 1,1 3,0 1,1 4,0 1,1 4,0 1,1 3,0 1,1 3,0 1,1 3,0 1,1 4,0 1,1 3,0 1,1 3,0 1,1 4,0 1,1 4,0 1,1 3,0 1,1 3,0 1,1 3,0 1,1 2,0 1,1 5,0 1,1 1,0 1,1 0,5 -1,1 0,2 -1,1 0,2 -1,1 0,5 -1,1 0,4 -1,1 0,3 -1,1 0,2 -1,1 0,1 -1,1 -4,0 -1,-1 -5,0 -1,-1 -5,0 -1,-1 -5,0 -1,-1 -6,0 -1,-1 -5,0 -1,-1 -5,0 -1,-1 -5,0 -1,-1 -5,0 -1,-1 -6,0 -1,-1 -5,0 -1,-1 -5,0 -1,-1 -5,0 -1,-1 -5,0 84,20 -1,0 0,3 -1,1 0,3 -1,1 0,3 -1,1 0,4 1,0 0,-4 1,-1 0,-3 1,-1 0,-2 1,-1 0,-4 -84,-20Z"/>
<path onmouseover="hoverPath(evt)" onmouseout="recoverPath(evt)" fill="rgb(244,243,235)" d="M  38,151l 0,0 -1,1 0,2 -1,1 0,1 -1,1 0,1 -1,1 0,1 -1,1 0,2 -1,1 0,1 -1,1 0,2 -1,1 0,2 -1,1 0,3 3,0 1,1 3,0 1,1 3,0 1,1 4,0 1,1 4,0 1,1 4,0 1,1 2,0 1,1 4,0 1,1 3,0 1,1 4,0 1,1 3,0 1,1 3,0 1,1 4,0 1,1 4,0 1,1 3,0 1,1 3,0 1,1 4,0 1,1 3,0 1,1 3,0 1,1 2,0 0,-4 1,-1 0,-2 1,-1 0,-1 1,-1 0,-4 -1,-1 -1,0 -1,-1 -3,0 -1,-1 -1,1 -3,0 -1,1 -1,1 -3,0 -1,-1 -2,0 -1,-1 -2,0 -1,-1 -2,0 -1,-1 -3,0 -1,-1 -2,0 -1,-1 -1,0 -1,-1 -1,-1 -1,-1 -1,-1 0,-2 -1,-1 0,-3 1,-1 4,0 1,1 1,1 1,1 0,3 1,0 1,1 1,0 1,1 2,0 1,1 1,0 1,1 1,0 0,-3 1,-1 0,-2 1,-1 0,-2 1,-1 0,-1 1,-1 0,-1 1,-1 0,-2 1,-1 0,-1 1,-1 0,-1 1,-1 0,-2 1,-1 0,-1 1,-1 0,-1 1,-1 0,-2 1,-1 1,-1 1,-1 2,0 1,1 2,0 1,1 1,1 0,1 2,0 1,1 1,0 1,1 1,0 1,1 1,1 1,1 1,1 -3,-4 -2,-1 0,-6 1,-1 0,-2 1,-1 0,-2 1,-1 0,-2 1,-1 0,-3 1,-1 0,-2 1,-1 0,-2 1,-1 0,-2 1,-1 0,-1 1,-1 0,-2 1,-1 0,-1 1,-1 0,-1 1,-1 0,-2 1,-1 0,-1 1,-1 1,-1 1,0 0,-2 -1,0 -1,-1 -1,0 -1,-1 -1,0 -1,1 -2,0 -1,-1 0,-2 -1,0 -1,-1 -1,0 -1,1 -2,0 -1,-1 0,-2 -1,0 -1,-1 -2,0 -1,-1 -1,0 -1,-1 -2,0 -1,-1 -1,-1 -1,0 -1,-1 -1,1 -2,0 -1,-1 -1,-1 -1,-1 0,-2 -1,0 -1,-1 -3,0 -1,-1 -1,0 -1,1 -4,0 -1,-1 0,-2 -1,0 -1,-1 -2,0 -1,1 -3,0 -1,-1 0,-2 -2,0 -1,1 -3,0 -1,-1 -3,0 0,1 -1,1 0,1 -1,1 0,2 -1,1 0,1 -1,1 0,1 -1,1 0,2 -1,1 0,1 -1,1 0,2 -1,1 0,1 -1,1 0,1 -1,1 0,1 -1,1 0,1 -1,1 0,2 -1,1 0,1 -1,1 0,1 -1,1 0,1 -1,1 0,2 -1,1 0,1 -1,1 0,1 -1,1 0,1 -1,1 0,2 -1,1 0,1 -1,1 0,1 -1,1 0,1 -1,1 0,2 -1,1 0,1 -1,1 0,1 -1,1 0,2 -1,1 0,1 -1,1 0,3 1,0 1,1 1,0 1,-1 0,0 1,-1 0,-1 1,-1 4,0 1,1 0,2 -1,1 0,1 -1,1 0,1 -1,1 -1,0 -1,1 -6,0 -1,-1 -2,0 -1,1Z"/>
<path onmouseover="hoverPath(evt)" onmouseout="recoverPath(evt)" fill="rgb(181,204,239)" d="M  95,175l -1,0 -1,-1 -1,0 -1,-1 -2,0 -1,-1 -1,0 -1,-1 -1,0 -1,-1 0,-3 -1,-1 -1,-1 -2,0 0,1 1,1 0,2 1,1 1,1 1,1 1,0 1,1 2,0 1,1 2,0 -5,-2 -2,-1 11,4 1,0 1,1 1,0 1,1 2,0 1,1 1,0 1,-1 0,0 1,-1 3,0 1,-1 2,0 1,1 3,0 1,1 1,0 1,1 1,1 0,6 -1,1 0,1 -1,1 0,2 -1,1 0,3 1,0 1,1 4,0 0,-3 -2,0 -1,-1 0,-3 1,-1 0,-1 1,-1 0,-7 1,-1 4,0 1,1 0,5 1,-4 0,-1 1,-1 0,-3 1,-1 0,-3 1,-1 0,-2 1,-1 0,-3 1,-1 0,-3 1,-1 0,-3 -2,0 -1,-1 -1,0 -1,1 -2,0 -1,-1 0,-2 -1,-1 -1,-1 -1,-1 -1,-1 -1,0 -1,-1 -1,0 -1,-1 -2,0 -1,-1 0,-1 -1,-1 -2,0 -1,-1 -1,1 0,0 -1,1 0,2 -1,1 0,1 -1,1 0,1 -1,1 0,2 -1,1 0,1 -1,1 0,1 -1,1 0,2 -1,1 0,1 -1,1 0,1 -1,1 0,2 -1,1 0,2 -1,1 0,3 -1,1Z"/>
<path onmouseover="hoverPath(evt)" onmouseout="recoverPath(evt)" fill="rgb(243,243,236)" d="M  99,0l -11,0 0,4 -1,1 0,1 -1,1 -1,1 -1,0 -1,1 -1,0 -1,1 -2,0 -1,1 -1,0 -1,1 -1,0 -1,1 -1,0 -1,1 0,1 2,0 1,1 1,0 1,1 2,0 1,1 1,0 1,1 1,0 1,1 1,0 1,1 1,1 0,4 1,1 0,3 -1,1 -1,1 0,2 -1,1 0,3 -1,1 0,1 -1,1 0,1 2,-2 0,-1 1,-2 0,-1 1,-1 2,0 1,1 1,1 0,2 1,1 0,1 1,1 0,1 1,1 1,1 1,1 1,1 1,1 0,1 3,0 1,1 4,0 1,1 7,0 1,1 2,0 1,1 1,0 1,1 1,1 1,1 1,0 1,1 1,1 1,1 1,0 1,1 1,1 0,1 2,0 1,1 1,1 1,0 1,1 1,0 1,1 4,0 1,1 1,0 1,1 1,0 1,1 1,1 1,1 1,1 1,0 1,1 1,1 1,1 1,1 1,0 1,1 1,0 1,1 1,0 1,1 2,0 1,1 1,0 1,1 5,0 1,1 1,0 1,1 1,1 2,0 2,-2 0,-1 1,-1 0,-3 1,-1 0,-2 -4,0 -1,-1 0,-2 1,-1 1,0 1,-1 5,0 1,1 1,1 1,1 0,5 -1,1 0,1 -1,1 0,1 -1,1 0,1 -1,1 0,1 -1,1 0,1 -1,1 1,1 0,1 1,0 1,1 1,0 1,1 4,0 1,1 1,0 1,1 1,1 1,0 1,1 1,0 1,1 1,1 1,0 1,1 1,1 1,0 1,1 2,0 0,-1 1,-1 0,-1 1,-1 0,-1 1,-1 1,-1 0,-1 1,-1 0,-1 1,-1 0,-1 1,-1 0,-1 1,-1 1,-1 1,-1 0,-1 1,-1 1,-1 0,-1 1,-1 1,-1 0,-1 1,-1 0,-1 1,-1 0,-1 1,-1 0,-1 1,-1 0,-2 1,-1 3,-3 1,-1 3,-3 1,0 0,-11 1,-1 0,-1 1,-1 0,-2 1,-1 0,-1 1,-1 0,-1 1,-1 0,-1 1,-1 0,-1 1,-1 0,-1 1,-1 0,-1 1,-1 0,-1 1,-1 0,-1 1,-1 0,-2 1,-1 0,-5 1,-1 0,-8 -1,-1 0,-3 -4,0 -1,-1 -5,0 -1,-1 -1,-1 0,-3Z"/>
<path onmouseover="hoverPath(evt)" onmouseout="recoverPath(evt)" fill="rgb(175,200,236)" d="M  103,206l -6,0 -1,-1 -4,0 -1,-1 -3,0 -1,-1 -5,0 -1,-1 -8,0 -1,-1 -5,0 -1,-1 -2,0 -1,-1 -2,0 -1,-1 -7,0 -1,-1 -3,0 -1,-1 -3,0 -1,-1 -4,0 -1,-1 -3,0 -1,-1 -3,0 -1,-1 -3,0 -1,-1 -5,0 -1,-1 -4,0 -1,-1 0,-3 1,-1 0,-6 -3,0 -1,-1 -4,0 -1,-1 -6,0 -1,-1 -1,0 0,5 3,0 1,-1 3,0 1,1 1,0 1,1 1,1 0,1 1,1 0,5 -1,1 0,1 -2,2 -1,1 -1,1 -1,1 0,5 -1,1 0,3 -1,1 0,1 -1,1 0,1 -1,1 -2,0 0,18 1,-2 0,-2 1,-1 0,-2 1,-1 0,-1 1,-1 0,-2 1,-1 0,-2 1,-1 0,-2 1,-1 0,-1 1,-1 0,-2 1,-1 0,-2 1,-1 0,-1 1,-1 0,-1 1,-1 0,-2 1,-1 0,-1 2,-2 8,0 1,1 3,0 1,1 4,0 1,1 2,0 1,1 2,0 1,1 3,0 1,1 2,0 1,1 3,0 1,1 6,0 1,1 4,0 1,1 2,0 1,1 3,0 1,1 6,0 1,1 7,0 1,1 6,0 1,1 3,0 1,1 1,0 1,1 2,0 1,-1 7,0 1,1 1,0 1,1 1,0 1,1 2,0 1,1 1,0 0,-1 1,-1 0,-2 1,-1 0,-2 1,-1 0,-3 -1,0 -1,-1 -4,0 0,1 -1,1 0,1 -1,1 -2,2Z"/>
<path onmouseover="hoverPath(evt)" onmouseout="recoverPath(evt)" fill="rgb(242,241,232)" d="M  132,182l 0,0 -1,-1 0,-4 -1,2 0,1 -1,1 0,3 -1,1 -2,0 -1,-1 0,-5 -2,0 0,7 -1,1 0,1 -1,1 0,1 2,0 1,1 1,0 1,1 0,5 2,0 1,1 4,0 1,1 3,0 1,1 3,0 1,1 4,0 1,1 2,0 1,1 4,0 1,1 3,0 1,1 4,0 1,1 3,0 1,1 3,0 0,-1 1,-1 0,-2 1,-1 0,-3 1,-1 0,-2 1,-1 0,-1 -1,-1 -3,0 -1,-1 -1,0 -1,-1 -4,0 -1,-1 -2,0 -1,-1 -1,0 -1,-1 0,-1 -7,0 -1,-1 -3,0 -1,-1 -2,0 -1,-1 -2,0 -1,-1 -5,0 -1,-1Z"/>
<path onmouseover="hoverPath(evt)" onmouseout="recoverPath(evt)" fill="rgb(172,198,237)" d="M  154,223l 0,0 -1,-1 -4,0 -1,-1 -1,0 -1,-1 -1,-1 -1,-1 -2,0 -1,-1 -2,0 -1,-1 -2,0 -1,-1 0,-1 -1,-1 0,-3 -1,3 -4,0 -1,-1 -3,0 -1,-1 -1,-1 0,3 -1,1 4,0 1,1 3,0 1,1 0,5 -1,1 0,3 -1,1 0,2 -1,1 0,11 -1,1 0,2 -1,1 0,1 -1,1 0,1 -1,1 0,1 -1,1 0,1 -1,1 0,3 3,0 0,-6 1,-1 0,-2 -1,2 29,-25 -26,19 0,-1 1,-2 0,-4 1,-1 0,-3 1,-1 0,-5 1,-1 0,-4 1,-1 0,-1 1,-1 4,0 1,1 2,0 1,1 1,0 1,1 1,1 1,0 -1,-1 0,0 -1,-1 -16,23 26,-19 -6,-1 2,1 7,0 1,1 3,0 1,-1 4,0 1,1 0,6 2,0 0,-3 1,-1 1,-1 2,0 1,1 1,0 1,1 2,0 1,1 2,0 1,1 4,0 1,1 6,0 1,1 6,0 0,-1 -5,0 -1,-1 -4,0 -1,-1 -3,0 -1,-1 -2,0 -1,-1 -2,0 -1,-1 -2,0 -1,-1 -1,-1 -1,0 -1,-1 -1,-1 -1,-1 0,-4 -1,1 0,2 -1,1 -1,0 -1,1 -4,0 -1,1 -4,0 0,1 -10,-1 6,1 18,-8 0,-1 -1,1 1,0 -18,8Z"/>
<path onmouseover="hoverPath(evt)" onmouseout="recoverPath(evt)" fill="rgb(174,200,238)" d="M  165,170l -3,0 -1,-1 -1,0 -1,-1 0,-1 -1,0 -1,-1 -2,0 -1,-1 0,-2 1,-1 0,-2 -2,0 -1,-1 -1,0 -1,-1 -1,0 -1,1 0,1 -1,1 0,1 -1,1 0,2 -1,1 0,1 -1,1 0,2 -1,1 0,2 -1,1 0,2 -1,1 0,2 -1,1 0,1 1,0 1,1 2,0 1,1 2,0 1,1 3,0 1,1 7,0 1,1 0,1 1,0 1,1 2,0 1,1 4,0 1,1 1,0 1,1 3,0 1,1 1,1 0,3 1,0 0,-2 2,-2 3,0 1,1 2,0 0,-3 1,-1 0,-2 1,-1 0,-2 1,-1 0,-2 -5,0 -1,1 -3,0 -1,-1 0,-3 -2,0 -1,-1 -3,0 -1,-1 0,-2 -1,-1 0,-1 -1,0 -1,-1 -1,0 -1,-1 -2,0 12,27 -1,0 0,2 -1,1 0,3 -1,1 0,2 -1,1 1,1 0,-1 1,-1 4,0 -1,-1 -1,0 -1,-1 0,-4 1,-3 -12,-27Z"/>
<path onmouseover="hoverPath(evt)" onmouseout="recoverPath(evt)" fill="rgb(253,253,253)" d="M  209,223l 0,1 2,0 1,1 3,0 1,1 4,0 1,1 4,0 1,1 3,0 1,1 2,0 1,1 6,0 1,1 3,0 1,1 3,0 1,1 4,0 1,1 2,0 0,-2 -6,0 -1,-1 -4,0 -1,-1 -3,0 -1,-1 -3,0 -1,-1 -1,0 -1,-1 -7,0 -1,-1 -3,0 -1,-1 -4,0 -1,-1 -3,0 -1,-1Z"/>
<path onmouseover="hoverPath(evt)" onmouseout="recoverPath(evt)" fill="rgb(188,207,232)" d="M  219,235l 0,0 1,1 1,1 1,0 1,1 1,1 3,0 1,1 12,0 1,1 0,6 1,0 0,-1 1,-1 0,-4 1,-1 7,0 1,1 1,0 1,1 1,0 0,-6 -3,0 -1,-1 -4,0 -1,-1 -3,0 -1,-1 -3,0 -1,-1 -6,0 -1,-1 -1,0 0,4 -1,1 -1,1 -4,0 -1,-1 -1,0 -1,-1 -1,-1 -1,1 -1,0 -1,-1 0,0 1,-1 -3,0 -1,-1 -3,0 -1,-1 -3,0 0,2 6,0 1,1 2,0 -2,-1 4,2Z"/>
<path onmouseover="hoverPath(evt)" onmouseout="recoverPath(evt)" fill="rgb(244,243,236)" d="M  234,123l 0,1 -1,1 0,3 -1,1 0,3 -1,1 0,3 -1,1 0,4 -1,1 0,3 -1,1 0,3 -1,1 0,4 -1,1 0,3 -1,1 0,3 -1,1 0,4 -1,1 0,2 -1,1 0,3 -1,1 0,3 -1,1 0,3 -1,1 0,3 -1,1 0,3 -1,1 0,4 -1,1 0,3 -1,1 0,3 -1,1 0,3 -1,1 0,4 -1,1 0,4 -1,1 0,3 2,0 1,1 3,0 1,1 4,0 1,1 3,0 1,1 2,0 0,-6 1,-1 0,-6 1,-1 0,-4 1,-1 0,-3 1,-1 0,-2 1,-1 0,-1 1,-1 0,-2 1,-1 0,-1 1,-1 0,-1 1,-1 0,-1 1,-1 0,-1 1,-1 0,-1 1,-1 0,-1 1,-1 0,-1 1,-1 0,-1 1,-1 0,-2 1,-1 0,-3 1,-1 0,-3 1,-1 0,-2 1,-1 0,-2 1,-1 0,-2 1,-1 0,-2 1,-1 0,-2 1,-1 0,-1 1,-1 2,0 0,-17 -1,0 -1,-1 -1,-1 -1,0 -1,-1 -1,0 -1,-1 -1,0 -1,-1 -1,0 -1,-1 -1,0 -1,-1 -1,0 -1,-1 -1,0 -1,-1 -1,0 -1,-1Z"/>
<path onmouseover="hoverPath(evt)" onmouseout="recoverPath(evt)" fill="rgb(244,243,237)" d="M  235,63l 0,0 -1,1 -1,1 -1,1 0,1 -1,1 -1,1 0,1 -1,1 0,1 -1,1 0,2 -1,1 0,1 -1,1 -1,1 0,1 -1,1 0,1 -1,1 -1,1 0,1 -1,1 -1,1 -1,1 0,1 -1,1 -1,1 -1,1 0,1 -1,1 0,1 -1,1 0,1 -1,1 0,1 -1,1 0,4 1,0 1,1 1,0 1,1 1,0 1,1 1,0 1,1 1,0 1,1 1,0 1,1 1,0 1,1 1,0 0,-3 1,-1 0,-2 1,-1 0,-3 1,-1 0,-3 1,-1 0,-3 1,-1 0,-2 1,-1 0,-3 1,-1 0,-3 1,-1 0,-2 1,-1 0,-3 1,-1 0,-2 1,-1 0,-3 1,-1 0,-2 1,-1 0,-2 1,-1 0,-2 1,-1 0,-3 1,-1 0,-4 1,-1 0,-3 1,-1 0,-3 1,-1 0,-4 1,-1 0,-3 1,-1 0,-1 -1,1 -1,2 0,1 -1,1 0,1 -1,1 0,1 -1,1 0,1 -1,1 0,1 -1,1 0,1 -1,1 0,1 -1,1 0,2 -1,1 0,8 -1,1 0,1 -1,1 -1,1Z"/>
<path onmouseover="hoverPath(evt)" onmouseout="recoverPath(evt)" fill="rgb(172,198,238)" d="M  250,163l 0,2 -1,1 0,2 -1,1 0,3 -1,1 0,3 -1,1 0,2 -1,1 0,1 -1,1 0,1 -1,1 0,1 -1,1 0,1 -1,1 0,1 -1,1 0,1 -1,1 0,1 -1,1 0,1 -1,1 0,2 -1,1 0,1 -1,1 0,2 -1,1 0,3 -1,1 0,4 -1,1 0,6 -1,1 0,5 2,0 0,-2 1,-1 0,-5 1,-1 0,-6 1,-1 0,-3 1,-1 0,-2 1,-1 0,-1 1,-1 0,-2 1,-1 0,-1 1,-1 0,-1 1,-1 0,-2 1,-1 0,-2 1,-1 0,-1 1,-1 0,-2 1,-1 0,-1 1,-1 0,-3 1,-1 0,-2 1,-1 0,-3 1,-1 0,-2 1,-1 0,-2 -1,-1 1,-1 1,0 0,-1 1,-1 2,0 0,-8 -1,0 0,1 -1,1 0,2 -1,1 0,2 -1,1 0,2 -1,1Z"/>
</svg>