<svg width="256" height="256" xmlns="http://www.w3.org/2000/svg"><script> 
var tempColor;
function hoverPath(evt){
obj = evt.target;
tempColor = obj.getAttribute("fill");
obj.setAttribute("fill","red");
//alert(tempColor);
//obj.setAttribute("stroke","red");}
function recoverPath(evt){
obj = evt.target;
obj.setAttribute("fill", tempColor);
//obj.setAttribute("stroke", tempColor);
}</script><path onmouseover="hoverPath(evt)" onmouseout="recoverPath(evt)" fill="rgb(170,198,238)" d="M  0,96l 0,12 7,0 1,-1 0,-3 -1,-1 0,-8 -1,-1 -1,1 -4,0 -1,1Z"/>
<path onmouseover="hoverPath(evt)" onmouseout="recoverPath(evt)" fill="rgb(175,201,223)" d="M  159,47l -1,0 0,3 3,0 1,1 5,0 1,1 10,0 1,1 0,6 -1,1 0,4 -1,1 0,8 1,1 0,11 1,1 0,6 1,1 0,2 1,1 0,4 1,1 0,2 1,1 0,2 1,1 0,1 1,1 1,1 0,1 1,1 1,1 0,1 1,1 1,1 1,1 1,1 1,1 1,1 1,1 1,1 1,1 1,1 0,3 -1,1 0,2 1,1 1,1 4,0 1,1 1,1 0,1 1,1 0,1 1,1 0,1 1,1 0,1 1,1 0,2 1,1 0,1 1,1 0,1 1,1 0,1 1,1 0,2 1,1 0,1 1,1 0,2 1,1 0,2 1,1 0,1 1,1 0,1 1,1 1,1 0,1 1,1 0,2 1,1 0,1 1,1 0,1 1,1 1,1 1,1 1,1 1,0 1,1 1,1 1,0 -1,-1 -1,-1 0,-1 -1,-1 0,0 -1,-1 0,-1 -1,-1 -1,-1 0,-1 -1,-1 0,-1 -1,-1 0,-2 -1,-1 0,-1 -1,-1 0,-1 -1,-1 0,-1 -1,-1 0,-1 -1,-1 0,-1 -1,-1 0,-2 -1,-1 0,-1 -1,-1 0,-2 -1,-1 0,-1 -1,-1 0,-2 -1,-1 0,-1 -1,-1 0,-1 -1,-1 0,-1 -1,-1 -1,-1 0,-1 -1,-1 0,-1 -1,-1 0,-1 -1,-1 0,-1 -1,-1 -1,-1 0,-1 -1,-1 0,-1 -1,-1 0,-1 -1,-1 -1,-1 0,-3 1,-1 -3,0 -1,-1 0,-1 -1,-1 -1,-1 -1,-1 -1,-1 0,-1 -1,-1 0,-2 -1,-1 0,-2 1,-1 1,-1 0,-1 -1,-1 0,-1 -1,-1 0,-1 -1,-1 -1,-1 0,-2 -1,-1 -1,-1 -1,-1 0,-1 -1,-1 0,-1 -1,-1 0,-2 -1,-1 0,-1 -1,-1 0,-9 1,-1 0,-5 1,-1 0,-5 1,-1 0,-3 1,-1 1,-1 6,0 1,-1 6,0 1,-1 10,0 -1,-1 0,-4 -1,0 -1,-1 0,-4 -1,0 -1,-1 -1,-1 0,-2 -1,-1 -1,-1 -16,0 -1,-1 0,-1 -4,0 0,1 -1,1 0,9 -1,1 -1,1 -3,0 -1,1Z"/>
<path onmouseover="hoverPath(evt)" onmouseout="recoverPath(evt)" fill="rgb(236,238,234)" d="M  189,56l 0,0 1,1 0,5 1,1 0,5 1,1 0,4 4,0 1,-1 5,0 1,-1 5,0 1,-1 2,0 0,-6 -1,-1 0,-5 -1,-1 0,-4 -8,0 -1,1 -6,0 -1,1 -3,0 -1,1Z"/>
<path onmouseover="hoverPath(evt)" onmouseout="recoverPath(evt)" fill="rgb(171,198,236)" d="M  196,231l -1,0 0,2 -1,1 -1,1 0,2 1,1 0,2 1,1 0,1 1,1 1,1 1,0 0,-2 1,-1 1,0 1,-1 1,0 0,-2 -1,-1 0,-3 1,-1 0,-3 -1,-1 -1,1 -2,0 -1,1Z"/>
<path onmouseover="hoverPath(evt)" onmouseout="recoverPath(evt)" fill="rgb(170,198,238)" d="M  237,128l -1,0 1,1 0,2 4,0 1,-1 6,0 1,-1 2,0 1,-1 3,0 0,-5 -4,0 -1,1 -2,0 -1,1 -3,0 -1,1 -1,0 -1,1 -3,0 -1,1Z"/>
<path onmouseover="hoverPath(evt)" onmouseout="recoverPath(evt)" fill="rgb(241,241,234)" d="M  175,1l 0,0 1,1 0,3 -1,1 0,1 1,1 0,1 1,1 0,1 1,1 0,3 1,1 1,1 0,3 1,1 1,1 0,3 -1,1 -1,1 22,0 0,-2 -1,-1 0,-3 -1,-1 0,-4 -1,-1 0,-4 -1,-1 0,-3 -1,-1 0,-6 -21,0 -1,1Z"/>
<path onmouseover="hoverPath(evt)" onmouseout="recoverPath(evt)" fill="rgb(236,238,234)" d="M  194,81l 0,5 1,1 0,4 1,1 0,3 1,1 1,0 1,-1 6,0 1,-1 5,0 1,-1 3,0 0,-3 -1,-1 0,-5 -1,-1 0,-4 -1,-1 -4,0 -1,1 -5,0 -1,1 -5,0 -1,1Z"/>
<path onmouseover="hoverPath(evt)" onmouseout="recoverPath(evt)" fill="rgb(244,233,141)" d="M  200,0l -1,0 0,5 1,1 0,3 1,1 0,4 1,1 0,4 1,1 0,3 1,1 0,3 2,0 1,1 0,3 -1,1 -15,0 -1,1 13,0 1,1 1,1 1,1 0,2 1,1 1,0 1,1 0,4 1,0 1,1 0,4 1,1 0,2 -1,1 0,3 1,1 0,5 1,1 0,7 1,1 0,6 1,1 0,4 1,1 0,5 1,1 0,4 1,1 0,5 1,1 0,4 1,1 0,4 1,1 0,4 1,1 0,4 1,1 0,4 1,1 0,2 1,1 0,3 1,1 0,2 1,1 0,3 1,1 0,1 1,1 0,2 1,1 0,1 1,1 0,2 1,1 0,1 1,1 0,2 1,1 0,2 1,1 0,2 1,1 0,1 1,1 0,1 1,1 0,1 1,1 0,1 1,1 0,1 1,1 0,1 1,1 0,2 1,1 0,1 1,1 0,2 1,1 0,1 1,1 0,1 1,1 0,2 1,1 0,1 1,1 0,1 1,1 0,1 1,1 0,1 1,1 0,1 1,1 1,1 0,1 1,0 0,-15 -2,0 -1,-1 0,-1 -1,-1 0,-1 -1,-1 0,-2 -1,-1 0,-1 -1,-1 0,-1 -1,-1 0,-2 -1,-1 0,-1 -1,-1 0,-2 -1,-1 0,-1 -1,-1 -1,-1 0,-1 -1,-1 0,-2 -1,-1 0,-2 -1,-1 0,-2 -1,-1 0,-1 -1,-1 0,-2 -1,-1 0,-1 -1,-1 0,-1 -1,-1 0,-2 -1,-1 0,-2 -1,-1 0,-3 -1,-1 0,-2 -1,-1 0,-3 -1,-1 0,-3 -1,-1 0,-4 -1,-1 0,-4 -1,-1 0,-4 -1,-1 0,-5 -1,-1 0,-4 -1,-1 0,-5 -1,-1 0,-4 -1,-1 0,-4 -1,0 -1,-1 0,-3 1,-1 4,0 -4,-1 0,-2 -1,-1 0,-5 -1,-1 0,-5 -1,-1 0,-4 -1,-1 0,-2 -1,-1 -1,-1 0,-3 -1,-1 0,-4 1,-1 0,-3 -1,-1 0,-4 -1,-1 -1,-1 0,-3 1,-1 0,-4 -1,-1 0,-4 -1,-1 0,-3 -1,-1 0,-4 -1,-1 0,-4 -1,-1 0,-2 -7,0 13,26 21,0 -1,-1 0,-9 -20,10 -13,-26Z"/>
<path onmouseover="hoverPath(evt)" onmouseout="recoverPath(evt)" fill="rgb(244,243,235)" d="M  209,1l 0,0 1,1 0,4 1,1 0,2 11,0 1,-1 8,0 1,1 3,0 0,-5 -1,-1 0,-3 -24,0 -1,1Z"/>
<path onmouseover="hoverPath(evt)" onmouseout="recoverPath(evt)" fill="rgb(243,243,236)" d="M  230,113l -1,0 0,1 1,1 0,4 1,1 0,3 1,1 0,3 1,1 0,2 1,1 0,3 1,1 0,2 1,1 0,2 1,1 0,1 1,1 0,1 1,1 0,2 1,1 0,1 1,1 0,2 1,1 0,2 1,1 0,2 1,1 0,1 1,1 1,1 0,1 1,1 0,2 1,1 0,1 1,1 0,2 1,1 0,1 1,1 0,1 1,1 0,2 1,1 0,1 1,1 0,1 1,0 0,-52 -2,0 -1,1 -2,0 -1,1 -6,0 -1,1 -6,0 -1,-1 0,-2 -1,-1 0,-2 1,-1 1,0 1,-1 3,0 1,-1 1,0 1,-1 3,0 1,-1 2,0 1,-1 5,0 0,-50 -5,0 -1,1 -4,0 -1,1 -5,0 -1,1 -6,0 -1,1 -5,0 -1,1 -4,0 0,1 1,0 1,1 0,4 1,1 0,4 1,1 3,0 1,-1 4,0 1,-1 4,0 1,1 0,1 1,1 0,2 1,1 0,3 1,1 0,3 1,1 0,3 1,1 0,6 -1,1 -3,0 -1,1 -5,0 -1,1Z"/>
<path onmouseover="hoverPath(evt)" onmouseout="recoverPath(evt)" fill="rgb(242,241,232)" d="M  240,0l -1,0 0,25 1,0 1,1 14,0 0,-26Z"/>
<path onmouseover="hoverPath(evt)" onmouseout="recoverPath(evt)" fill="rgb(244,243,237)" d="M  0,10l 0,13 3,0 1,1 0,3 1,-1 7,0 -1,-1 0,-4 -1,-1 0,-2 -1,-1 0,-9 -1,0 -1,1 -6,0 -1,1Z"/>
<path onmouseover="hoverPath(evt)" onmouseout="recoverPath(evt)" fill="rgb(173,200,238)" d="M  12,17l 0,2 1,1 0,4 1,1 0,1 3,0 0,-1 1,-1 1,-1 13,0 1,-1 4,0 0,-3 1,-1 0,-8 -1,-1 0,-9 -37,0 0,7 6,0 1,-1 3,0 1,1 0,9 1,1Z"/>
<path onmouseover="hoverPath(evt)" onmouseout="recoverPath(evt)" fill="rgb(235,237,234)" d="M  19,26l 0,4 1,1 0,5 9,0 1,-1 9,0 1,-1 2,0 0,-10 -1,-1 0,-8 -1,0 0,4 -1,1 0,3 -1,1 -4,0 -1,1 -13,0 -1,1Z"/>
<path onmouseover="hoverPath(evt)" onmouseout="recoverPath(evt)" fill="rgb(244,243,235)" d="M  40,154l -3,0 -1,1 -3,0 -1,1 -3,0 -1,1 -4,0 -1,1 -4,0 -1,1 -5,0 5,1 0,0 1,1 1,1 0,2 1,0 1,-1 3,0 1,-1 5,0 1,-1 1,0 -1,-1 0,-2 1,-1 1,0 1,-1 2,0 1,-1 1,0 1,-1 10,0 1,1 1,1 0,1 1,1 0,2 1,1 0,2 1,1 0,3 3,0 0,-4 -1,-1 0,-3 -1,-1 0,-7 1,-1 -2,0 -1,1 -4,0 -1,1 -3,0 -1,1 -3,0 -1,1Z"/>
<path onmouseover="hoverPath(evt)" onmouseout="recoverPath(evt)" fill="rgb(173,199,236)" d="M  48,50l -11,0 -1,1 -26,0 -1,1 -9,0 0,4 10,0 1,1 13,0 1,1 0,2 8,0 1,-1 1,0 0,-1 1,-1 0,-1 1,-1 1,0 0,-1 1,-1 1,-1 2,0 1,-1 4,0 1,-1 -23,11 0,0 23,-11 12,0 1,-1 7,0 0,-1 -8,1 -5,0 -1,1Z"/>
<path onmouseover="hoverPath(evt)" onmouseout="recoverPath(evt)" fill="rgb(244,243,236)" d="M  209,122l 0,2 1,1 0,5 -1,1 0,2 1,1 0,1 1,1 1,1 0,1 1,1 0,1 1,1 0,1 1,1 0,2 1,1 0,1 1,1 0,2 1,1 0,1 1,1 0,2 1,1 0,1 1,1 0,1 1,1 0,1 1,1 0,1 1,1 0,1 1,1 0,2 1,1 0,1 1,1 0,1 1,1 1,1 0,1 1,1 1,1 0,1 1,1 1,1 0,1 1,1 1,1 1,1 0,1 1,0 1,1 1,1 0,1 1,1 0,1 1,0 1,1 1,1 1,1 1,1 0,1 3,3 1,1 0,1 1,1 1,1 1,1 1,1 0,1 1,1 1,0 0,-5 -2,0 -1,-1 0,-1 -1,-1 -1,-1 0,-1 -1,-1 0,-1 -1,-1 0,-1 -1,-1 0,-1 -1,-1 0,-1 -1,-1 0,-2 -1,-1 0,-1 -1,-1 0,-1 -1,-1 0,-2 -1,-1 0,-1 -1,-1 0,-2 -1,-1 0,-1 -1,-1 0,-1 -1,-1 0,-1 -1,-1 0,-1 -1,-1 0,-1 -1,-1 0,-1 -1,-1 0,-2 -1,-1 0,-2 -1,-1 0,-2 -1,-1 0,-1 -1,-1 0,-2 -1,-1 0,-1 -1,-1 0,-2 -1,-1 0,-1 -1,-1 0,-3 -1,-1 0,-2 -1,-1 0,-3 -1,-1 0,-2 -1,-1 0,-4 -1,-1 0,-4 -1,-1 0,-4 -1,-1 0,-4 -1,-1 0,-4 -1,-1 0,-5 -3,0 -1,1 -5,0 -1,1 -6,0 -1,1 -3,0 -1,-1 -1,-1 0,-3 -1,-1 0,-4 -1,-1 0,-7 1,-1 1,0 1,-1 5,0 1,-1 5,0 1,-1 5,0 0,-4 -2,0 -1,1 -5,0 -1,1 -5,0 -1,1 -6,0 -1,-1 0,-4 -1,-1 0,-5 -1,-1 0,-5 -1,-1 0,-2 -1,1 0,3 -1,1 0,5 -1,1 0,5 -1,1 0,7 1,1 0,1 1,1 0,2 1,1 0,1 1,1 0,1 1,1 1,1 1,1 0,2 1,1 1,1 0,1 1,1 0,1 1,1 0,3 -1,1 -1,1 1,1 0,2 1,1 0,1 1,1 1,1 1,1 1,1 0,1 1,0 0,-2 -1,-1 0,-3 -1,-1 0,-5 1,-1 1,0 1,-1 4,0 1,1 0,1 1,1 0,2 1,1 1,0 1,-1 4,0 1,1 1,1 0,2 1,1 0,3 1,1 0,2 1,1 0,2 -1,1 -1,1 -4,0 -1,1Z"/>
<path onmouseover="hoverPath(evt)" onmouseout="recoverPath(evt)" fill="rgb(242,241,230)" d="M  215,34l 0,1 1,1 0,5 -1,1 0,2 1,-1 13,0 1,-1 18,0 1,-1 6,0 0,-10 -36,0 -1,1 -3,0Z"/>
<path onmouseover="hoverPath(evt)" onmouseout="recoverPath(evt)" fill="rgb(236,238,234)" d="M  225,90l 0,3 1,1 0,4 1,1 0,5 1,1 0,4 1,1 0,1 3,0 1,-1 5,0 1,-1 3,0 0,-4 -1,-1 0,-3 -1,-1 0,-3 -1,-1 0,-3 -1,-1 0,-2 -1,-1 0,-1 -2,0 -1,1 -4,0 -1,1Z"/>
<path onmouseover="hoverPath(evt)" onmouseout="recoverPath(evt)" fill="rgb(243,242,233)" d="M  0,235l 0,6 2,0 1,-1 3,0 1,1 1,0 1,-1 3,0 1,-1 2,0 1,-1 3,0 0,-1 -1,-1 0,0 -1,-1 0,-7 1,-1 1,-1 1,-1 1,-1 -3,2 0,0 -1,1 -1,0 -1,1 -1,0 -1,1 -1,0 -1,1 -1,0 -1,1 -2,0 -1,1 -1,0 -1,1 -1,0 -1,1 -1,0 -1,1Z"/>
<path onmouseover="hoverPath(evt)" onmouseout="recoverPath(evt)" fill="rgb(173,200,238)" d="M  13,139l 0,6 1,1 1,1 1,-1 4,0 1,-1 2,0 1,-1 1,0 1,-1 1,0 1,-1 1,0 1,-1 1,-1 0,-1 -1,-1 0,-2 -1,-1 -1,-1 -1,0 -1,1 -3,0 -1,1 -2,0 -1,1 -3,0 -1,-1 -6,0 -1,1 -8,0 0,7 9,0 0,-5 1,-1 2,0 1,1Z"/>
<path onmouseover="hoverPath(evt)" onmouseout="recoverPath(evt)" fill="rgb(236,238,234)" d="M  49,19l 0,9 1,1 0,4 6,0 1,-1 8,0 1,-1 7,0 1,-1 3,0 0,-5 -1,-1 0,-6 -1,-1 0,-2 -1,1 -7,0 -1,1 -7,0 -1,1 -7,0 -1,1Z"/>
<path onmouseover="hoverPath(evt)" onmouseout="recoverPath(evt)" fill="rgb(240,239,231)" d="M  54,89l -1,0 0,3 1,1 0,4 1,1 0,3 -1,1 0,4 -1,1 -1,1 1,1 0,6 1,0 1,-1 0,-3 1,-1 2,0 1,1 0,3 4,0 1,-1 5,0 1,-1 5,0 1,-1 6,0 1,-1 5,0 1,-1 5,0 1,-1 1,0 0,-4 1,-1 2,0 1,1 0,2 1,1 7,0 1,-1 5,0 1,-1 1,0 -1,-1 0,-3 -1,-1 0,-2 -1,-1 0,-2 -1,-1 0,-2 -1,-1 0,-2 -1,-1 0,-3 -1,-1 0,-3 -1,-1 0,-14 1,-1 0,-13 -18,0 -1,-1 0,-1 -3,0 0,2 -1,1 -15,0 -1,1 -9,0 -1,1 -11,0 -1,1 -5,0 0,2 1,1 0,3 1,1 6,0 1,1 0,2 1,1 0,3 1,1 0,4 1,1 1,0 1,1 1,1 1,0 1,1 1,1 1,1 0,1 1,1 0,4 -1,1 -4,0 -1,1Z"/>
<path onmouseover="hoverPath(evt)" onmouseout="recoverPath(evt)" fill="rgb(242,241,231)" d="M  57,219l 0,2 1,1 0,4 2,0 1,-1 3,0 1,-1 2,0 1,-1 3,0 1,-1 2,0 1,-1 1,0 0,-2 -1,-1 0,-3 -1,-1 0,-1 -1,0 -1,1 -2,0 -1,1 -3,0 -1,1 -2,0 -1,1 -2,0 -1,1 -1,0 -1,1Z"/>
<path onmouseover="hoverPath(evt)" onmouseout="recoverPath(evt)" fill="rgb(243,242,233)" d="M  80,178l 0,0 -1,1 0,1 -1,1 -2,0 -1,-1 0,-1 -1,-1 0,-1 -1,-1 0,-1 -1,-1 0,-2 -3,0 -1,1 0,4 1,1 0,2 1,1 0,2 1,1 0,1 1,1 0,2 7,0 1,1 0,2 -1,1 -1,0 -1,1 -2,0 -1,1 1,1 0,3 1,1 0,1 1,1 0,1 1,1 0,1 1,1 0,1 1,1 0,2 1,1 0,2 1,1 0,2 1,1 1,1 0,2 1,-1 3,0 0,-4 1,-1 2,0 1,1 0,1 1,1 2,0 1,-1 2,0 1,-1 3,0 1,-1 2,0 1,-1 3,0 1,-1 2,0 1,-1 3,0 1,-1 2,0 1,-1 3,0 1,-1 2,0 1,-1 2,0 1,-1 3,0 1,-1 2,0 1,-1 3,0 1,-1 2,0 1,-1 1,0 0,-2 -1,-1 0,-2 -2,0 -1,-1 0,-2 1,-1 0,-1 -1,-1 0,-2 -1,-1 0,-3 -1,-1 0,-2 -1,-1 0,-2 -1,-1 0,-2 -1,-1 0,-3 -1,-1 -2,0 -1,1 -3,0 -1,1 -2,0 -1,-1 -1,-1 0,-2 -5,0 -1,1 -4,0 -1,1 -3,0 -1,1 -4,0 -1,1 -3,0 0,2 -1,1 -3,0 -1,-1 -3,0 -1,1 -4,0 -1,1 -3,0 -1,1 -2,0 -1,1Z"/>
<path onmouseover="hoverPath(evt)" onmouseout="recoverPath(evt)" fill="rgb(240,239,231)" d="M  146,101l 1,-1 5,0 1,-1 3,0 1,-1 3,0 1,-1 3,0 1,-1 3,0 1,-1 5,0 0,-9 -1,-1 0,-10 -1,0 -1,-1 -2,0 -1,-1 0,-2 1,-1 6,0 0,-6 1,-1 0,-4 1,-1 0,-4 -10,0 -1,-1 -5,0 -1,-1 -2,0 0,5 -1,1 -2,0 -1,-1 0,-4 -1,0 -1,-1 -37,0 -1,1 0,2 -1,1 0,17 1,1 0,2 1,1 1,1 0,3 1,1 0,1 1,1 4,0 1,1 0,2 -1,1 -3,0 0,2 1,1 0,3 2,0 1,1 0,3 -1,1 0,1 1,1 0,2 1,1 3,0 1,-1 5,0 1,-1 6,0 1,-1 5,0 -17,-48 0,9 1,1 0,0 -1,-10 17,48 -15,-38 16,0 1,-1 1,-1 0,0 -18,2 15,38 3,-41 0,0 -3,41 -12,-23 0,-2 1,-1 2,0 1,1 1,1 0,2 -1,1 -2,0 -1,-1 -1,-1 12,23Z"/>
<path onmouseover="hoverPath(evt)" onmouseout="recoverPath(evt)" fill="rgb(243,242,234)" d="M  201,243l -1,0 0,2 -1,1 -3,0 -1,-1 -1,-1 -1,-1 0,-1 -1,-1 0,-2 -1,-1 0,-4 1,-1 1,-1 0,-2 1,-1 2,0 1,-1 2,0 1,-1 2,0 1,1 0,0 1,1 0,5 -1,1 0,1 1,1 0,4 -1,1 -1,0 -1,1 2,-17 1,0 1,-1 2,0 1,-1 3,0 1,-1 1,0 1,1 -11,2 -2,17 14,-19 2,0 1,-1 3,0 1,-1 1,0 1,-1 0,0 -9,3 -14,19 23,-23 1,-1 -1,0 0,1 -23,23 -2,-16 -3,1 -1,0 -2,1 -1,1 -2,0 -1,1 -3,0 -1,1 -2,0 -1,1 -2,0 -1,1 -2,0 -1,1 -3,0 -1,1 -1,0 -1,1 -1,0 -1,1 -1,0 0,2 -1,1 -1,1 -1,0 0,2 1,1 0,3 1,1 0,3 1,1 0,2 11,0 0,-1 1,-1 1,0 1,-1 2,0 1,-1 2,0 1,-1 2,0 1,-1 2,0 1,-1 2,0 1,-1 1,0 2,-20 2,16 -1,3 2,0 1,-1 2,0 1,-1 4,0 1,-1 3,0 1,-1 1,0 1,-1 1,0 1,-1 1,0 1,-1 2,0 1,-1 1,0 1,-1 2,0 1,-1 4,0 1,-1 3,0 1,-1 2,0 1,-1 1,0 1,-1 2,0 1,-1 1,0 1,-1 1,0 1,-1 2,0 1,-1 2,0 0,-5 -2,0 -1,-1 0,-1 -1,-1 -1,-1 0,-1 -1,-1 0,-1 -1,-1 0,-1 -1,0 -1,1 -3,0 -1,1 -1,0 -1,1 -2,0 -1,1 -3,0 -1,1 -3,0 -1,-1 -29,28 1,-3Z"/>
<path onmouseover="hoverPath(evt)" onmouseout="recoverPath(evt)" fill="rgb(235,237,232)" d="M  212,11l -1,0 1,1 0,3 1,1 0,4 1,1 0,3 17,0 0,-9 1,-1 2,0 1,1 0,-4 -4,0 -1,-1 -6,0 -1,1Z"/>
<path onmouseover="hoverPath(evt)" onmouseout="recoverPath(evt)" fill="rgb(236,238,234)" d="M  240,51l 0,0 1,1 0,3 1,1 0,3 1,1 0,4 7,0 1,-1 4,0 0,-14 -7,0 -1,1 -6,0 -1,1Z"/>
<path onmouseover="hoverPath(evt)" onmouseout="recoverPath(evt)" fill="rgb(174,199,235)" d="M  0,156l 0,4 3,0 1,1 2,0 1,-1 3,0 1,-1 0,-1 1,-1 5,0 1,-1 4,0 1,-1 4,0 1,-1 3,0 1,-1 3,0 1,-1 3,0 1,-1 4,0 1,-1 3,0 1,-1 4,0 1,-1 4,0 1,1 0,2 -1,1 0,5 1,1 0,3 1,1 0,4 1,-1 4,0 1,-1 3,0 0,-2 -1,-1 0,-3 -1,3 -3,0 -1,-1 -1,-1 0,-1 -1,-1 0,-3 -1,-1 0,-5 1,-1 2,0 1,-1 6,0 1,-1 4,0 1,-1 4,0 1,-1 3,0 1,-1 5,0 1,-1 3,0 1,-1 3,0 1,-1 5,0 1,-1 3,0 1,-1 4,0 1,-1 3,0 1,-1 2,0 1,-1 1,0 0,-1 1,-1 1,0 -1,-1 0,-4 -1,3 -2,0 -1,1 -3,0 -1,-1 -1,-1 0,-2 -1,-1 0,-2 -1,-1 0,-2 -1,-1 -4,0 0,9 -1,1 -4,0 -1,1 -10,0 -1,1 -4,0 -1,1 -4,0 -1,1 -13,0 -1,-1 0,-2 1,-1 1,-1 4,0 0,-2 -1,-1 -4,0 -1,1 -3,0 -1,1 1,1 0,3 1,1 0,2 1,1 0,1 1,1 0,3 -1,1 -2,0 -1,1 -2,0 -1,-1 0,-4 -1,-1 0,-3 -1,-1 0,-2 -1,-1 0,-7 -3,0 -1,1 -1,0 0,1 1,1 0,5 1,1 0,1 1,1 0,3 -1,1 -6,0 0,1 -1,1 0,1 -1,1 -1,0 -1,1 -2,0 -1,1 -4,0 0,3 -1,1 -3,0 -1,1 -3,0 -1,1 -4,0 -1,1 -4,0 -1,1 -4,0 -1,1 -4,0 -1,1 -2,0 -1,1 -3,0 -1,1Z"/>
<path onmouseover="hoverPath(evt)" onmouseout="recoverPath(evt)" fill="rgb(199,214,229)" d="M  81,228l 0,1 -1,1 -5,0 -1,-1 -1,1 -4,0 -1,1 -2,0 -1,1 -3,0 -1,1 -2,0 -1,1 -3,0 -1,1 0,2 2,0 1,-1 3,0 1,-1 8,0 1,1 1,0 1,1 0,1 1,1 0,1 10,0 1,1 1,1 1,1 0,2 1,1 0,1 1,1 0,3 1,1 0,3 1,0 0,-1 -1,-3 -1,-4 0,-1 1,-1 0,-1 1,-1 1,0 1,-1 2,0 1,-1 3,0 1,1 0,1 1,1 0,-3 -1,-1 0,-2 -1,0 -1,-1 0,-3 -1,-1 0,-1 -1,-1 0,-2 -1,-1 0,-2 -2,0 -1,-1 -1,-1 -1,1 -2,0 -1,1 -1,0 -1,1 -2,0 -1,1Z"/>
<path onmouseover="hoverPath(evt)" onmouseout="recoverPath(evt)" fill="rgb(231,231,225)" d="M  99,31l 6,0 1,-1 6,0 1,1 0,1 3,0 1,-1 4,0 1,-1 9,0 0,-7 -1,-1 0,-5 -1,-1 0,-2 -1,-1 0,-3 1,-1 2,0 0,-6 -1,-1 0,-2 -1,0 0,3 1,1 0,3 -1,1 -5,0 -1,-1 -1,-1 0,-1 -1,-1 -2,0 -1,1 -1,0 -1,1 -3,0 -1,-1 -1,1 -6,0 -1,1 -6,0 0,6 -1,1 -2,0 -1,1 -9,0 -1,1 -3,0 1,1 0,6 1,1 0,5 1,1 1,0 1,-1 3,0 1,1 0,3 1,-1 5,0 1,1 0,1 1,0 0,-2 1,-1Z"/>
<path onmouseover="hoverPath(evt)" onmouseout="recoverPath(evt)" fill="rgb(206,217,222)" d="M  144,108l 0,1 1,1 0,1 1,1 0,2 1,1 0,3 8,0 1,-1 1,0 1,-1 0,-8 -1,-1 0,-2 -7,0 -1,1 -4,0 -1,1Z"/>
<path onmouseover="hoverPath(evt)" onmouseout="recoverPath(evt)" fill="rgb(241,240,229)" d="M  157,37l 0,8 16,0 1,-1 3,0 1,-1 0,-9 1,-1 -15,0 -1,1 -6,0 -1,1 0,1 1,1Z"/>
<path onmouseover="hoverPath(evt)" onmouseout="recoverPath(evt)" fill="rgb(243,242,233)" d="M  219,52l -1,0 1,1 0,4 1,1 0,5 1,1 0,5 1,1 0,2 3,0 1,1 4,0 1,-1 6,0 1,-1 5,0 1,-1 4,0 1,-1 6,0 0,-4 -3,0 -1,1 -9,0 -1,-1 0,-4 -1,-1 0,-3 -1,-1 0,-3 -1,-1 0,-2 -4,0 -1,1 -13,0 -1,1Z"/>
<path onmouseover="hoverPath(evt)" onmouseout="recoverPath(evt)" fill="rgb(176,201,236)" d="M  0,229l 0,3 1,0 1,-1 1,0 1,-1 1,0 1,-1 2,0 1,-1 1,0 1,-1 1,0 1,-1 1,0 1,-1 1,0 1,-1 1,0 1,-1 1,-1 2,0 1,1 0,2 -1,1 -1,1 -1,1 -1,1 0,5 1,1 1,1 0,1 1,-1 1,0 0,-2 1,-1 2,0 1,-1 2,0 1,-1 1,0 0,-3 -1,-1 0,-6 1,-1 -4,0 -1,-1 0,-2 -3,0 -1,-1 0,-2 -1,-1 0,-2 -1,-1 0,-3 -1,-1 0,-2 -1,-1 0,-3 -1,-1 0,-3 -1,-1 0,-5 1,-1 2,0 1,1 2,0 1,-1 2,0 1,-1 4,0 0,-2 1,-1 2,0 1,1 3,0 1,-1 3,0 0,-2 1,-1 10,0 0,-1 1,-1 1,0 0,-1 -1,0 -1,-1 0,-1 -1,-1 0,-2 -1,0 -1,1 -4,0 -1,1 -4,0 -1,1 -3,0 -1,1 -4,0 -1,1 -4,0 -1,1 -4,0 -1,1 -4,0 -1,1 -3,0 -1,1 -4,0 -1,1 -6,0Z"/>
<path onmouseover="hoverPath(evt)" onmouseout="recoverPath(evt)" fill="rgb(186,207,234)" d="M  5,29l -2,0 -1,-1 0,-3 -2,0 0,19 3,0 1,-1 8,0 0,-3 1,-1 0,-5 -1,-1 0,-5 -6,0 -1,1Z"/>
<path onmouseover="hoverPath(evt)" onmouseout="recoverPath(evt)" fill="rgb(236,236,230)" d="M  31,107l 5,0 1,1 1,1 6,0 0,-3 -1,-1 0,-4 -1,-1 0,-7 -1,-1 0,-1 -1,-1 0,-1 -1,-1 -1,-1 0,-5 -1,-1 0,-1 -1,-1 0,-2 -1,-1 0,-2 -1,-1 0,-2 -1,-1 0,-1 -1,-1 0,-2 1,-1 -5,0 -1,1 -2,0 -1,1 -2,0 -1,1 -7,0 -1,-1 0,-2 1,-1 3,0 0,-3 1,-1 4,0 1,-1 -13,0 -1,-1 -9,0 0,35 4,0 1,-1 2,0 1,1 1,1 0,8 1,1 0,5 -1,1 -1,1 -8,0 0,25 7,0 1,-1 8,0 1,1 1,0 1,-1 2,0 1,-1 3,0 1,-1 3,0 1,1 1,1 1,1 0,2 1,1 0,3 -1,1 -1,1 -1,1 -1,0 -1,1 -1,0 -1,1 -1,0 -1,1 -2,0 -1,1 -4,0 -1,1 -2,0 -2,-2 -1,-1 -11,0 0,7 3,0 1,-1 2,0 1,-1 4,0 1,-1 4,0 1,-1 4,0 1,-1 4,0 1,-1 3,0 1,-1 3,0 0,-3 1,-1 4,0 1,-1 2,0 1,-1 1,0 0,-1 1,-1 0,-1 1,-1 6,0 0,-1 -1,-1 0,-1 -1,-1 0,-5 -1,-1 0,-3 1,-1 1,0 1,-1 5,0 1,1 0,7 1,1 0,2 1,1 0,3 1,1 0,4 1,-1 2,0 0,-1 -1,-1 0,-1 -1,-1 0,-2 -1,-1 0,-3 -1,-1 0,-2 1,-1 1,-1 3,0 1,-1 6,0 1,1 1,1 0,3 4,0 0,-5 1,-1 2,0 1,1 1,1 0,2 1,1 1,0 1,-1 2,0 1,-1 7,0 1,-1 -11,0 -1,-1 0,-2 1,-1 8,0 1,-1 5,0 0,-2 -1,-1 0,-2 -1,-1 -7,0 -1,1 -5,0 -1,1 -5,0 -1,1 -6,0 -1,1 -5,0 -1,1 -5,0 -1,1 -5,0 -23,-13 20,14 -3,0 -1,1 -5,0 -1,1 -6,0 -1,1 -5,0 -1,1 -2,0 -1,-1 0,-3 1,-1 1,-1 5,0 1,-1 5,0 1,-1 4,0 1,-1 2,0 -1,-1 0,-2 -18,0 -1,-1 0,-4 1,-1 3,0 21,14 -20,-14 -20,38 0,0 20,-38 2,-43 1,1 2,0 1,1 4,0 0,-2 -1,-1 -2,0 -1,1 -4,0 -2,43Z"/>
<path onmouseover="hoverPath(evt)" onmouseout="recoverPath(evt)" fill="rgb(175,201,236)" d="M  32,189l 0,0 -1,1 -4,0 -1,1 -2,0 -1,1 -4,0 -1,-1 0,3 1,1 0,3 1,1 0,3 1,1 0,2 1,1 0,3 1,1 0,2 1,1 0,2 1,0 1,-1 4,0 1,1 0,2 -1,1 2,0 1,1 0,2 -1,1 0,4 1,1 0,5 -1,1 2,0 1,-1 4,0 1,-1 3,0 1,-1 1,0 1,-1 3,0 1,-1 3,0 1,-1 2,0 0,-4 -1,-1 0,-4 1,-1 1,-1 1,0 1,-1 2,0 1,-1 2,0 1,-1 3,0 1,-1 2,0 1,-1 3,0 1,1 0,1 1,1 0,3 1,1 0,2 1,0 1,-1 2,0 0,-1 -1,-1 0,0 -1,-1 0,-2 -1,-1 0,-2 -1,-1 0,-2 -1,-1 0,-1 -1,-1 0,-1 -1,-1 0,-1 -1,-1 0,-1 -1,-1 0,-3 -1,-1 0,-2 2,-2 2,0 1,-1 -6,0 -1,-1 0,-2 -1,-1 0,-1 -1,-1 0,-2 -1,-1 0,-2 -1,-1 0,-6 1,-1 -3,0 -1,1 0,3 1,1 0,2 1,1 0,3 1,1 0,1 1,1 0,2 1,1 1,1 0,1 1,1 0,1 1,1 0,3 1,1 0,6 -1,1 -2,0 -1,1 -2,0 -1,1 -3,0 -1,-1 0,-3 -1,-1 0,-2 -1,-1 0,-3 -1,-1 0,-2 -1,-1 0,-3 1,-1 1,0 0,-2 -1,-1 0,-3 -1,-1 0,-1 -1,0 0,2 -1,1 -1,0 0,1 -1,1 -10,0 0,2 -1,1 -3,0 -1,1 -5,0 -1,1 0,45 -1,-1 0,0 -1,1 -2,0 -1,1 -2,0 0,1 3,-1 1,0 2,-1 1,0Z"/>
<path onmouseover="hoverPath(evt)" onmouseout="recoverPath(evt)" fill="rgb(234,234,222)" d="M  85,35l -1,0 -1,1 -1,0 0,4 -1,1 -4,0 -1,1 -8,0 -1,1 -7,0 -1,1 -8,0 -1,1 -9,0 -1,1 -8,0 -1,1 -8,0 -1,1 -9,0 -1,1 -12,0 0,1 8,0 5,-1 22,0 1,-1 17,0 1,-1 12,0 1,-1 19,0 1,-1 65,0 0,-5 -1,-1 0,-4 -1,-1 -2,0 3,6 -1,1 -1,0 0,1 -1,1 -15,0 -1,1 -2,0 -1,-1 -1,0 -1,-1 0,-5 1,-1 -8,0 -1,1 -5,0 -1,-1 0,-2 -1,0 -1,-1 0,-1 -4,0 -1,1 -6,0 0,2 -1,1 -3,0 -1,-1 0,-1 -3,0 -1,1Z"/>
<path onmouseover="hoverPath(evt)" onmouseout="recoverPath(evt)" fill="rgb(237,237,229)" d="M  180,117l 0,1 1,1 0,2 1,1 0,1 1,1 0,2 1,1 0,1 1,1 0,1 1,1 0,1 1,0 1,-1 3,0 1,-1 3,0 0,-2 -1,-1 0,0 -1,-1 -1,-1 -1,-1 -1,-1 -1,-1 -1,-1 -1,-1 -1,-1 -1,0 -1,-1 0,-2 -1,-1 -1,0 -1,-1 0,-1 -1,-1 0,-1 -1,-1 0,-1 -1,-1 0,-3 -1,-1 0,-3 -7,0 -1,1 -3,0 -1,1 -2,0 0,12 2,0 1,-1 4,0 1,-1 2,0 1,-1 2,0 1,1 1,1 1,1 0,1 1,1Z"/>
<path onmouseover="hoverPath(evt)" onmouseout="recoverPath(evt)" fill="rgb(240,240,233)" d="M  196,165l -1,0 1,1 0,1 1,1 0,2 1,1 0,2 1,1 0,2 1,1 0,3 -1,1 16,0 0,-2 1,-1 3,0 0,-1 -1,-1 0,0 -1,-1 0,-2 -1,-1 0,-1 -1,-1 0,-1 -1,-1 0,-1 -1,-1 -1,-1 0,-3 -1,-1 0,-1 -1,-1 0,-1 -1,-1 0,-2 -1,-1 0,-1 -1,-1 0,-1 -1,-1 0,-1 -1,-1 0,-2 -1,-1 0,-1 -1,-1 0,-1 -1,-1 0,-2 -1,-1 -1,-1 0,-1 -1,-1 0,-1 -1,1 -5,0 -1,1 -3,0 -1,1 -2,0 -1,1 -1,0 -1,1 -1,0 1,1 0,0 1,1 0,1 1,1 0,1 1,1 0,1 1,1 0,-1 -1,-2 -1,-2 0,-1 1,-1 1,0 1,-1 1,0 1,-1 6,0 1,1 1,1 0,1 1,1 0,2 1,1 0,1 1,1 0,1 1,1 0,1 1,1 0,1 1,1 0,2 1,1 0,1 1,1 0,4 -1,1 -1,0 -1,1 -2,0 -1,1Z"/>
<path onmouseover="hoverPath(evt)" onmouseout="recoverPath(evt)" fill="rgb(254,254,254)" d="M  213,29l 0,0 1,1 3,0 1,-1 37,0 0,-1 -15,0 -1,-1 -1,0 -1,-1 0,-26 -1,0 0,27 -1,1 -21,0 -1,1Z"/>
<path onmouseover="hoverPath(evt)" onmouseout="recoverPath(evt)" fill="rgb(221,230,244)" d="M  243,196l 0,-1 -1,-1 -1,-1 -1,-1 -1,0 -1,-1 0,-1 -1,-1 0,-1 -1,-1 -1,0 -1,-1 0,-1 -1,-1 -1,-1 -3,0 -1,-1 -1,-1 -1,0 -1,-1 -1,-1 -1,-1 -1,-1 -1,-1 0,-1 -1,-1 0,-1 -1,-1 0,-2 -1,-1 0,-1 -1,-1 -1,-1 0,-1 -1,-1 0,-1 -1,-1 0,-2 -1,-1 0,-2 -1,-1 0,-1 -1,-1 0,-2 -1,-1 0,-1 -1,-1 0,-1 -1,-1 0,-1 -1,-1 0,-2 -1,-1 0,-1 -1,-1 0,-1 -1,-1 0,-1 -1,-1 0,-1 -1,-1 -1,0 1,1 0,1 1,1 0,0 1,2 0,1 1,1 0,1 1,1 0,1 1,2 0,1 1,1 0,1 1,1 0,1 1,1 0,1 1,2 0,1 1,1 0,1 1,2 1,3 0,1 1,1 1,2 1,1 0,1 1,1 0,1 1,2 0,1 1,1 1,2 0,1 1,1 1,1 1,1 1,1 2,0 1,1 1,1 1,1 0,1 1,1 1,1 1,1 0,1 1,1 1,1 1,1 0,2 1,0 1,1 1,1 0,1 1,1 1,1 1,1 0,1 1,1 1,1 0,1 1,1 0,1 1,1 1,1 0,2 -1,1 -1,0 -1,1 1,0 2,-1 2,0 1,1 0,1 1,1 0,1 1,1 0,1 1,1 1,1 0,1 1,0 0,-13 -2,0 -1,-1 -1,-1 0,-1 -1,-1 -1,-1 -1,-1 -1,-1 0,-1 -1,-1 -1,-1 -1,-1 -1,-1Z"/>
<path onmouseover="hoverPath(evt)" onmouseout="recoverPath(evt)" fill="rgb(247,248,244)" d="M  4,255l 83,0 0,-2 -1,-1 0,-3 -1,-1 0,-1 -1,-1 0,-2 -1,-1 -1,-1 -10,0 -1,-1 0,-1 -1,-1 0,-1 -1,0 -1,-1 -6,0 -1,1 -3,0 -1,1 -4,0 -1,-1 0,-4 2,-2 3,0 1,-1 2,0 1,-1 3,0 1,-1 2,0 1,-1 4,0 1,-1 2,0 1,1 3,0 0,-1 1,-1 1,-1 2,0 1,-1 1,0 1,-1 2,0 1,-1 2,0 1,1 1,1 0,-1 1,-1 0,0 1,-1 1,0 1,-1 2,0 1,-1 2,0 1,-1 3,0 1,-1 3,0 1,1 1,0 0,-2 1,-1 3,0 1,-1 2,0 1,-1 2,0 1,-1 3,0 1,-1 2,0 1,-1 2,0 1,-1 3,0 1,-1 3,0 1,-1 3,0 1,-1 3,0 1,1 1,1 0,3 1,1 0,3 1,1 0,3 1,1 0,2 1,1 0,3 1,1 0,3 1,1 0,3 1,1 0,5 -1,1 -1,1 2,0 1,1 1,1 0,2 1,1 0,3 1,1 0,4 4,0 0,-1 -1,-1 0,-3 -1,-1 0,-3 -1,-1 0,-4 1,-1 1,0 1,-1 -4,0 -1,-1 0,-3 -1,-1 0,-3 -1,-1 0,-3 -1,-1 0,-2 -1,-1 0,-3 -1,-1 0,-3 -1,-1 0,-4 1,-1 0,-1 -2,0 -1,-1 0,-3 -1,-1 0,-3 -1,-1 0,-2 -1,-1 0,-2 -1,-1 0,-2 -1,-1 0,-2 -1,-1 0,-2 -1,-1 0,-3 -1,-1 0,-2 -1,-1 0,-2 -1,-1 0,-3 -1,-1 0,-2 -1,-1 0,-3 -1,-1 0,-2 -1,-1 0,-2 -1,-1 0,-2 -1,-1 0,-3 -1,-1 0,-2 -1,-1 0,-2 -1,-1 0,-3 -1,-1 0,-2 -1,-1 0,-2 -1,-1 0,-3 -1,-1 0,-3 -1,-1 0,-3 1,-1 0,-1 -2,0 -1,-1 0,-3 -1,-1 0,-2 -1,-1 0,-6 1,-1 3,0 1,-1 6,0 1,-1 2,0 1,1 1,1 1,1 0,4 1,1 0,4 1,1 0,1 1,1 0,1 1,1 1,1 4,0 1,-1 4,0 1,-1 3,0 1,-1 1,0 0,-1 1,-1 0,-1 -1,-1 0,-14 1,-1 2,0 1,-1 3,0 1,-1 9,0 1,1 0,-3 -1,-1 0,-2 -1,-1 0,-6 -1,-1 0,-11 -1,-1 0,-2 -5,0 3,1 1,0 1,2 0,9 1,3 0,9 -1,1 -5,0 -1,1 -3,0 -1,1 -3,0 -1,1 -3,0 -1,1 -3,0 -1,1 -5,0 -1,1 -5,0 -1,1 -6,0 -1,1 -5,0 -1,1 -5,0 -1,-1 -1,-1 0,-2 -1,-1 0,-3 1,-1 0,-1 -2,0 -1,-1 0,-3 -1,-1 0,-4 1,-1 -1,0 -1,-1 0,0 -1,-1 0,-1 -1,-1 0,-3 -1,-1 -1,-1 0,-2 -1,-1 0,-5 -1,0 0,10 1,1 0,3 1,1 0,3 1,1 0,2 1,1 0,2 1,1 0,2 1,1 0,2 1,1 0,3 1,1 0,2 -1,1 -1,0 -1,1 -5,0 -1,1 -9,0 -1,-1 -1,-1 0,2 -1,1 -1,0 -1,1 -5,0 -1,1 -5,0 -1,1 -6,0 -1,1 -5,0 -1,1 -5,0 -1,1 -6,0 -1,-1 0,-3 -1,4 -1,1 -5,0 -1,1 -4,0 -1,1 -4,0 -1,1 -5,0 -1,1 -5,0 -1,1 0,1 1,-1 5,0 1,-1 6,0 1,-1 5,0 1,-1 5,0 1,-1 5,0 1,-1 5,0 1,-1 5,0 1,-1 6,0 1,-1 5,0 1,-1 5,0 1,-1 9,0 1,1 1,1 0,-2 1,-1 2,0 1,-1 5,0 1,-1 7,0 1,1 0,1 1,1 0,1 1,1 0,2 1,1 0,1 1,1 0,3 1,1 0,2 1,1 0,4 1,1 0,2 -1,1 -1,0 0,1 -1,1 -1,0 -1,1 -2,0 -1,1 -3,0 -1,1 -4,0 -1,1 -3,0 -1,1 -5,0 -1,1 -3,0 -1,1 -3,0 -1,1 -5,0 -1,1 -3,0 -1,1 -4,0 -1,1 -4,0 -1,1 -6,0 -1,1 -2,0 0,3 1,1 0,3 1,1 0,1 1,1 1,0 0,-2 1,-1 2,0 1,1 0,3 1,1 0,4 -1,1 -3,0 -1,1 -4,0 -1,1 -1,0 -1,1 -6,0 -1,1 -4,0 -1,1 -3,0 -1,1 -5,0 -1,1 -3,0 -1,1 -4,0 -1,1 -4,0 -1,1 -3,0 -1,1 -4,0 -1,1 -4,0 -1,1 -3,0 -1,1 -5,0 0,2 5,0 1,-1 4,0 1,-1 3,0 1,-1 4,0 1,-1 4,0 1,-1 4,0 1,-1 4,0 1,-1 3,0 1,-1 4,0 1,-1 4,0 1,-1 2,0 1,-1 3,0 1,-1 6,0 1,-1 5,0 1,1 4,0 1,1 0,2 1,1 0,1 1,1 0,1 1,1 0,1 1,-2 0,-1 1,-1 3,0 1,-1 3,0 1,-1 4,0 1,-1 5,0 1,1 1,0 0,-2 1,-1 3,0 1,-1 4,0 1,-1 3,0 1,-1 4,0 1,-1 7,0 1,1 0,2 1,1 1,-1 3,0 1,-1 4,0 1,1 1,1 0,3 1,1 0,2 1,1 0,2 1,1 0,2 1,1 0,3 1,1 0,2 1,1 0,3 -1,1 2,0 1,1 0,2 1,1 0,4 -1,1 -1,0 -1,1 -2,0 -1,1 -3,0 -1,1 -2,0 -1,1 -3,0 -1,1 -2,0 -1,1 -2,0 -1,1 -3,0 -1,1 -2,0 -1,1 -3,0 -1,1 -2,0 -1,1 -3,0 -1,1 -2,0 -1,1 -3,0 -1,1 -2,0 -1,1 -4,0 -1,-1 -1,-1 0,3 -1,1 -3,0 -1,1 -4,0 -1,1 -2,0 -1,1 -1,0 -1,1 -2,0 -1,1 -3,0 -1,1 -2,0 -1,1 -3,0 -1,1 -3,0 -1,1 -2,0 -1,1 -3,0 -1,1 -3,0 -1,1 -1,0 -1,1 -3,0 -1,1 -4,0 -1,1 -1,0 -1,1 -2,0 -1,1 -3,0 -1,1 -3,0 -1,1 -1,0 -1,1 -3,0 -1,1 -2,0 -1,1 -3,0 -1,1 -3,0 -1,-1 -1,0 -1,1 -3,0 0,12 4,0 97,-140 0,1 1,1 0,4 -1,1 -5,0 -1,1 -8,0 3,1 1,0 5,-1 7,0 1,1 0,2 -1,1 -5,0 -1,1 -7,0 -1,1 -2,0 -1,1 -3,0 -1,-1 -1,-1 0,-2 -1,-1 0,5 -1,1 -10,0 -1,1 11,0 1,-1 4,0 17,-16 -97,140 90,-126 6,0 1,-1 4,0 0,-7 -1,0 -1,-1 0,-1 -9,10 -90,126 98,-140 0,0 -98,140 140,-151 4,0 1,-1 9,0 1,1 0,2 1,1 0,10 -1,1 -1,1 -1,0 -1,1 -10,0 -1,-1 0,-3 -1,-1 0,-2 -1,-1 0,-1 -1,-1 0,-4 1,-1 1,-1 -140,151 175,-154 0,2 1,1 0,3 1,1 0,1 1,1 0,1 1,1 0,1 1,0 1,1 1,1 0,2 1,0 1,1 1,1 1,1 1,1 1,1 1,1 1,1 1,1 1,1 0,-1 -1,-1 -1,-1 -1,-1 -1,-1 -1,-1 -1,-1 -1,-1 -1,-1 -1,-1 0,0 -1,-2 -1,-1 -1,-1 0,-1 -1,-1 -1,-1 0,-1 -1,-1 0,-2 2,6 0,0 -3,-8 0,-1 -1,-1 -175,154Z"/>
<path onmouseover="hoverPath(evt)" onmouseout="recoverPath(evt)" fill="rgb(191,207,229)" d="M  53,87l 3,0 1,-1 4,0 0,-2 -1,-1 0,-1 -1,-1 -1,-1 -1,0 -1,-1 -1,-1 -1,0 -1,-1 -1,-1 0,-4 -1,-1 0,-3 -1,-1 0,-2 -6,0 -1,-1 0,3 -1,1 -6,0 -1,-1 -1,0 1,1 0,1 1,1 0,2 1,1 0,2 1,1 0,2 1,1 0,1 1,1 0,5 1,1 1,1 0,1 1,1 0,1 1,1 0,7 1,1 0,4 1,1 0,5 -1,1 1,0 1,1 0,2 1,1 0,1 1,-1 2,0 0,-5 -1,-1 0,-2 1,-1 1,-1 0,-4 1,-1 0,-1 -1,-1 0,-4 -1,-1 0,-5 1,-1 1,0 -16,24 -1,-1 -1,-1 -7,0 0,2 9,0 16,-24Z"/>
<path onmouseover="hoverPath(evt)" onmouseout="recoverPath(evt)" fill="rgb(253,253,253)" d="M  79,38l -4,0 -1,1 -7,0 -1,1 -8,0 -1,1 -8,0 -1,1 -9,0 -1,1 -8,0 -1,1 -8,0 -1,1 -15,0 -1,1 -4,0 0,1 11,0 1,-1 9,0 1,-1 8,0 1,-1 8,0 1,-1 9,0 1,-1 8,0 1,-1 7,0 1,-1 8,0 1,-1 2,0 1,-1 1,1Z"/>
<path onmouseover="hoverPath(evt)" onmouseout="recoverPath(evt)" fill="rgb(171,198,237)" d="M  101,238l 0,1 1,1 0,1 1,-1 3,0 1,-1 3,0 1,-1 2,0 1,-1 3,0 1,1 0,1 1,1 0,2 1,1 0,1 1,1 0,2 1,1 0,1 1,-1 0,-2 -1,-1 0,-1 -1,-1 0,-1 -1,-1 0,-1 -1,-1 0,-3 1,-1 2,0 1,-1 3,0 1,-1 2,0 1,-1 1,0 0,-1 -1,0 -1,-1 -3,0 -1,1 -3,0 -1,1 -3,0 -1,1 -3,0 -1,1 -3,0 -1,1 -2,0 -1,1 -2,0 -1,1 -1,0 -1,1Z"/>
<path onmouseover="hoverPath(evt)" onmouseout="recoverPath(evt)" fill="rgb(240,239,227)" d="M  120,118l 0,0 -1,-1 0,-2 -1,-1 0,-1 -1,-1 0,-1 -5,0 -1,1 -5,0 -1,1 -2,0 1,1 0,3 1,1 0,1 1,-1 6,0 1,1 1,1 0,2 1,1 0,2 1,1 0,2 1,1 1,0 1,-1 2,0 0,-2 1,-1 0,-1 -1,-1 0,-3 -1,-1Z"/>
<path onmouseover="hoverPath(evt)" onmouseout="recoverPath(evt)" fill="rgb(242,241,232)" d="M  121,238l 0,0 1,1 0,1 1,1 0,1 1,1 0,1 1,1 0,4 -1,1 -1,1 -2,0 -1,-1 0,-1 -1,-1 0,-2 -1,-1 0,-1 -1,-1 0,-2 -1,-1 0,-1 -1,0 -1,1 -2,0 -1,1 -3,0 -1,1 -3,0 -1,1 -1,0 0,2 -1,1 -2,0 -1,-1 -1,-1 0,-1 -1,0 -1,1 -2,0 -1,1 -1,0 0,1 -1,1 0,2 1,1 0,2 1,1 0,2 67,0 0,-3 -1,-1 0,-3 -1,-1 0,-2 -1,-1 -5,0 -1,-1 0,-2 1,-1 3,0 1,-1 0,-3 -1,-1 0,-3 -1,-1 0,-3 -1,-1 0,-3 -1,-1 0,-2 -1,-1 0,-3 -1,-1 0,-3 -1,-1 0,-3 -1,-1 -1,0 -1,1 -3,0 -1,1 -3,0 -1,1 -3,0 -1,1 -2,0 -1,1 -2,0 -1,1 -3,0 -1,1 -2,0 -1,1 -2,0 -1,1 -3,0 0,2 -1,1 -3,0 -1,-1 -1,0 -1,1 -3,0 -1,1 -2,0 -1,1 -2,0 -1,1 -1,0 -1,1 1,1 0,2 1,1 0,2 1,1 0,1 1,1 0,3 1,-1 2,0 1,-1 2,0 1,-1 2,0 1,-1 3,0 1,-1 3,0 1,-1 3,0 1,-1 3,0 1,-1 5,0 1,1 1,0 1,1 0,3 -1,1 -1,0 -1,1 -2,0 -1,1 -3,0 -1,1 -1,0 -1,1Z"/>
<path onmouseover="hoverPath(evt)" onmouseout="recoverPath(evt)" fill="rgb(234,235,227)" d="M  129,38l 0,3 1,0 1,1 1,-1 15,0 0,-1 1,-1 1,0 0,-3 -2,0 -1,-1 0,-1 -1,0 -1,1 -13,0 0,2 -1,1Z"/>
<path onmouseover="hoverPath(evt)" onmouseout="recoverPath(evt)" fill="rgb(236,238,234)" d="M  131,54l 0,7 15,0 1,-1 0,-6Z"/>
<path onmouseover="hoverPath(evt)" onmouseout="recoverPath(evt)" fill="rgb(241,240,229)" d="M  132,14l 0,-2 1,-1 -3,0 0,1 1,1 1,1 3,-3 1,0 1,-1 4,0 1,-1 3,0 1,1 1,1 0,3 1,1 0,8 1,1 0,4 1,0 1,1 1,-1 4,0 1,1 1,0 1,-1 11,0 -12,-1 0,-1 -1,-1 -1,-1 0,-1 -1,-1 0,-2 -1,-1 0,-2 -1,-1 0,-2 -1,-1 0,-2 -1,-1 0,-4 1,-1 3,0 1,-1 3,0 1,-1 2,0 1,-1 5,0 0,-2 -36,0 0,1 1,1 0,6 2,3 -3,3Z"/>
<path onmouseover="hoverPath(evt)" onmouseout="recoverPath(evt)" fill="rgb(171,198,238)" d="M  184,254l -2,0 -1,1 4,0 -1,-1 4,1 16,0 0,-2 1,-1 1,0 1,-1 2,0 1,-1 3,0 1,-1 3,0 1,-1 2,0 1,-1 3,0 1,-1 4,0 1,-1 2,0 1,-1 2,0 1,-1 2,0 1,-1 3,0 1,-1 3,0 1,-1 2,0 1,1 0,2 1,1 0,1 1,1 1,0 1,1 1,0 0,-17 -1,0 -1,1 -2,0 -1,1 -1,0 -1,1 -1,0 -1,1 -2,0 -1,1 -1,0 -1,1 -2,0 -1,1 -3,0 -1,1 -4,0 -1,1 -2,0 -1,1 -1,0 -1,1 -2,0 -1,1 -1,0 -1,1 -1,0 -1,1 -1,0 -1,1 -3,0 -1,1 -4,0 -1,1 -2,0 -1,1 -4,0 -1,1 -1,0 -1,1 -2,0 -1,1 -2,0 -1,1 -2,0 0,3 -4,-1Z"/>
<path onmouseover="hoverPath(evt)" onmouseout="recoverPath(evt)" fill="rgb(236,238,234)" d="M  188,142l 0,2 1,1 0,2 1,1 0,1 1,1 0,1 1,1 0,1 1,1 0,2 -1,1 0,3 1,1 1,1 0,1 5,0 1,-1 2,0 1,-1 1,0 0,-2 -1,-1 0,-1 -1,-1 0,-2 -1,-1 0,-1 -1,-1 0,-1 -1,-1 0,-1 -1,-1 0,-1 -1,-1 0,-2 -1,-1 0,-1 -1,-1 -4,0 -1,1 -1,0 -1,1Z"/>
<path onmouseover="hoverPath(evt)" onmouseout="recoverPath(evt)" fill="rgb(244,243,237)" d="M  207,254l -1,0 0,1 49,0 0,-6 -2,0 -1,-1 -1,0 -1,-1 -1,-1 0,-1 -1,-1 0,-2 -1,1 -3,0 -1,1 -3,0 -1,1 -2,0 -1,1 -2,0 -1,1 -2,0 -1,1 -4,0 -1,1 -3,0 -1,1 -2,0 -1,1 -3,0 -1,1 -3,0 -1,1 -2,0 -1,1Z"/>
<path onmouseover="hoverPath(evt)" onmouseout="recoverPath(evt)" fill="rgb(170,198,236)" d="M  216,46l 0,2 1,1 1,1 1,-1 13,0 1,-1 13,0 1,-1 8,0 0,-4 -5,0 -1,1 -18,0 -1,1 -13,0 -1,1Z"/>
<path onmouseover="hoverPath(evt)" onmouseout="recoverPath(evt)" fill="rgb(239,240,234)" d="M  20,38l -1,0 -1,-1 0,-5 -1,-1 0,-3 -3,0 0,4 1,1 0,7 -1,1 0,2 5,0 1,-1 8,0 1,-1 8,0 1,-1 9,0 1,-1 8,0 1,-1 8,0 1,-1 7,0 1,-1 6,0 0,-1 1,-1 1,0 1,-1 5,0 0,-2 -1,0 -1,1 -3,0 -1,-1 -1,-1 0,-5 -1,-1 0,-6 -1,-1 0,-2 1,-1 3,0 1,-1 9,0 1,-1 2,0 0,-6 1,-1 6,0 1,-1 6,0 1,-1 2,0 1,1 1,0 1,-1 1,0 1,-1 4,0 1,1 1,1 0,1 1,1 3,0 0,-1 -1,-1 0,-4 -88,0 0,8 1,1 0,4 2,0 1,1 0,8 1,1 0,12 -1,1 -2,0 -1,1 -9,0 -1,1 -10,0 58,-21 0,6 1,1 0,7 -1,1 -3,0 -1,1 -7,0 -1,1 -8,0 -1,1 -8,0 -1,-1 0,-4 -1,-1 0,-11 1,-1 1,0 1,-1 7,0 1,-1 7,0 1,-1 7,0 1,-1 2,0 1,1 0,2 1,1 -58,21Z"/>
<path onmouseover="hoverPath(evt)" onmouseout="recoverPath(evt)" fill="rgb(247,248,248)" d="M  27,63l 4,0 1,-1 4,0 1,-1 4,0 1,1 0,-2 -1,-1 0,-4 1,-1 -1,0 -1,1 0,1 -1,1 -1,0 0,1 -1,1 0,1 -1,1 -1,0 -8,2 4,-1 -4,0 -1,1 -3,0 -1,-1 -3,0 0,3 -1,1 2,0 1,-1 2,0 1,-1 2,0 5,-2 -4,1 17,-9 3,0 1,-1 11,0 1,-1 5,0 0,-1 -3,0 -3,1 -9,0 -3,1 -2,0 -1,1 -17,9Z"/>
<path onmouseover="hoverPath(evt)" onmouseout="recoverPath(evt)" fill="rgb(173,199,236)" d="M  35,159l -1,0 1,1 0,2 -1,1 -1,0 -1,1 -5,0 -1,1 -3,0 -1,1 -3,0 -1,-1 0,-2 -1,-1 -1,-1 -4,0 -1,1 -3,0 -1,1 -4,0 -1,-1 -2,0 0,16 4,0 1,-1 3,0 1,-1 4,0 1,-1 4,0 1,-1 3,0 1,-1 4,0 1,-1 4,0 1,-1 3,0 1,-1 5,0 1,-1 3,0 1,-1 4,0 1,-1 1,0 0,-2 -1,-1 0,-2 -1,-1 0,-2 -1,-1 0,-1 -1,-1 -7,0 -1,1 -2,0 -1,1 -2,0 -1,1Z"/>
<path onmouseover="hoverPath(evt)" onmouseout="recoverPath(evt)" fill="rgb(244,243,234)" d="M  53,175l 0,0 1,1 0,1 4,0 1,1 0,1 1,1 0,3 1,1 0,4 -1,1 -1,0 0,1 1,1 0,2 1,1 0,3 1,1 0,2 1,1 0,3 1,0 1,-1 2,0 1,-1 2,0 0,-4 -1,-1 0,-3 -1,-1 0,-1 -1,-1 0,-1 -1,-1 -1,-1 0,-2 -1,-1 0,-1 -1,-1 0,-3 -1,-1 0,-2 -1,-1 0,-4 -4,0 -1,1 -3,0Z"/>
<path onmouseover="hoverPath(evt)" onmouseout="recoverPath(evt)" fill="rgb(196,210,227)" d="M  91,47l -3,0 -1,1 -17,0 0,2 -1,1 -2,0 0,1 2,0 1,-1 15,0 0,-2 6,-2 -3,1 2,0 3,-1Z"/>
<path onmouseover="hoverPath(evt)" onmouseout="recoverPath(evt)" fill="rgb(243,242,234)" d="M  126,111l 0,2 1,1 0,2 1,1 0,3 2,0 1,1 0,3 -1,1 0,1 1,1 0,3 1,1 0,3 1,1 0,2 1,1 0,2 1,1 0,3 1,1 0,2 1,1 0,2 1,1 0,3 1,1 0,2 1,1 0,2 1,1 0,2 1,1 0,3 1,1 0,2 1,1 0,3 1,1 0,2 1,1 0,2 1,1 0,3 1,1 0,2 1,1 0,2 1,1 0,2 1,1 0,2 1,1 0,2 1,1 0,3 1,1 0,3 2,0 1,1 0,3 -1,1 0,2 1,1 0,3 1,1 0,3 1,1 0,2 1,1 0,3 1,1 0,3 1,1 0,3 3,0 1,-1 1,0 1,-1 1,0 1,-1 1,0 1,-1 3,0 1,-1 2,0 1,-1 2,0 1,-1 2,0 1,-1 3,0 1,-1 2,0 1,-1 1,0 1,-1 3,0 1,-1 2,0 1,-1 2,0 1,-1 2,0 1,-1 3,0 1,-1 3,0 1,1 1,0 1,-1 3,0 1,-1 1,0 0,-2 1,-1 2,0 1,-1 4,0 1,1 1,0 1,-1 3,0 1,-1 2,0 1,-1 1,0 0,-2 1,-1 1,0 1,-1 1,0 -1,-1 0,0 -1,-1 0,-1 -1,-1 0,-1 -1,-1 -1,-1 0,-1 -1,-1 -1,-1 -1,-1 0,-1 -1,-1 -1,0 -1,-1 0,-2 -1,-1 -1,-1 -1,-1 0,-1 -1,-1 -1,-1 -1,-1 0,-1 -1,-1 -1,-1 0,1 -1,1 -3,0 -1,-1 -8,0 -1,1 -12,0 -1,1 -6,0 -1,1 -1,0 1,1 0,3 1,1 0,2 1,1 0,1 1,1 0,2 1,1 0,1 1,1 0,2 1,1 0,2 1,1 0,1 1,1 0,5 -1,1 -4,0 -1,-1 -1,-1 0,-1 -1,-1 0,-1 -1,-1 0,-2 -1,-1 0,-2 -1,-1 0,-1 -1,-1 0,-2 -1,-1 0,-2 -1,-1 0,-2 -1,-1 0,-2 -1,-1 0,-1 -1,-1 -1,-1 -3,0 -1,1 -14,0 -1,1 -4,0 -1,1 -2,0 -1,-1 -1,-1 0,-1 -1,-1 0,-5 1,-1 -1,0 -1,-1 0,-1 -1,-1 0,-3 2,-2 7,0 1,-1 3,0 1,-1 1,0 -1,-1 0,0 -1,-1 0,-1 -1,-1 -1,-1 0,-1 -1,-1 -1,-1 0,-1 -1,-1 0,-1 -2,0 -1,1 -2,0 -1,1 -1,1 -1,0 0,1 -1,1 -2,0 -1,-1 0,-1 -1,-1 0,-7 1,-1 4,0 1,-1 3,0 0,-2 -1,0 -1,-1 0,-1 -1,-1 -1,0 -1,1 -1,0 0,3 -1,1 -3,0 -1,-1 0,-1 -1,-1 0,-2 -1,-1 0,-2 -1,-1 0,-3 -1,0 -1,-1 0,-2 -1,-1 0,-4 -1,-1 0,-1 -1,-1 0,-4 1,-1 0,-2 -2,0 -1,-1 0,-1 -1,-1 0,-2 -1,-1 0,-2 -1,-1 0,-2 1,-1 4,0 1,-1 2,0 0,-1 -1,-1 0,0 -1,-1 -1,1 -6,0 -1,1 -3,0Z"/>
<path onmouseover="hoverPath(evt)" onmouseout="recoverPath(evt)" fill="rgb(176,201,237)" d="M  144,144l 0,2 1,1 0,2 1,1 0,1 1,0 0,-3 1,-1 1,0 1,-1 3,0 1,1 1,1 0,1 3,0 1,1 0,1 1,1 1,1 0,1 1,1 0,1 1,1 1,1 1,-1 2,0 1,-1 4,0 1,-1 4,0 1,-1 4,0 1,-1 4,0 -1,-1 0,-3 -1,-1 -1,-1 0,-1 -1,-1 0,-1 -1,-1 0,-1 -1,-1 -1,-1 0,-2 1,-1 1,0 1,-1 1,0 1,-1 2,0 1,-1 3,0 1,-1 5,0 -1,-1 -3,0 -2,1 -2,0 -2,1 -2,0 -1,-1 0,-1 -1,-1 0,-1 -1,-1 0,-1 -1,-1 0,-2 -1,-1 0,-1 -1,-1 0,-2 -1,-1 0,-1 -1,-1 0,-1 -1,-1 -1,-1 -1,1 -2,0 -1,1 -4,0 -1,1 -2,0 0,2 -1,1 0,1 -1,1 -1,0 -1,1 -3,0 -1,1 -4,0 -1,1 -6,0 -1,-1 -1,-1 -1,-1 0,-1 -1,-1 0,-1 -1,-1 0,-4 -1,-1 0,-1 -1,0 -1,1 -4,0 1,1 0,2 1,1 0,2 1,1 0,1 2,0 1,1 0,4 -1,1 0,2 1,1 0,1 1,1 0,4 1,1 0,2 1,0 1,1 0,3 1,1Z"/>
<path onmouseover="hoverPath(evt)" onmouseout="recoverPath(evt)" fill="rgb(236,238,233)" d="M  153,7l 0,2 1,1 0,2 1,1 0,2 1,1 0,2 1,1 0,2 1,1 0,1 2,2 0,1 11,0 0,-1 1,-1 4,0 1,-1 0,-2 1,-1 0,-2 -1,-1 0,0 -1,-1 0,-3 -1,-1 0,-1 -1,-1 0,-1 -1,-1 0,-3 1,-1 0,-1 -1,-1 0,-2 -3,0 0,3 -1,1 -5,0 -1,1 -2,0 -1,1 -3,0 -1,1Z"/>
<path onmouseover="hoverPath(evt)" onmouseout="recoverPath(evt)" fill="rgb(174,200,237)" d="M  167,159l -1,0 -1,1 -2,0 -1,-1 -1,-1 -1,-1 0,-1 -1,-1 0,-1 -1,-1 -1,-1 0,2 -1,1 -3,0 -1,1 -4,0 0,5 1,1 0,1 1,-2 1,0 1,-1 1,-1 2,0 1,-1 4,0 1,1 0,1 1,1 0,1 1,1 1,1 0,1 1,1 1,1 0,1 1,1 1,1 0,2 -1,1 -1,0 -1,1 -3,0 -1,1 -7,0 -1,1 0,1 1,1 0,1 20,0 1,1 0,2 -1,1 -19,0 0,3 1,1 0,1 1,1 1,-1 4,0 1,-1 14,0 1,-1 5,0 1,1 1,1 1,1 0,1 1,1 0,2 1,1 0,2 1,1 0,2 1,1 0,2 1,1 0,1 1,1 0,2 1,1 0,2 1,1 0,1 1,1 0,1 1,1 2,0 0,-3 -1,-1 0,-1 -1,-1 0,-2 -1,-1 0,-2 -1,-1 0,-1 -1,-1 0,-2 -1,-1 0,-1 -1,-1 0,-2 -1,-1 0,-3 -1,-1 0,-2 1,-1 1,0 1,-1 6,0 1,-1 12,0 1,-1 10,0 1,1 1,0 -1,-1 0,0 -1,-1 -1,-1 -1,-1 -3,0 0,2 -50,-23 38,24 -19,0 -1,-1 0,-2 1,-1 12,0 0,-1 -1,-1 0,-2 -1,-1 0,-2 -1,-1 0,-2 -1,-1 0,-1 -1,-1 0,-1 -1,-1 0,-1 -1,-1 -1,-1 0,-2 -1,-1 0,-2 1,-1 0,-2 -1,-1 0,-1 -1,-1 0,1 1,2 0,1 -1,1 -4,0 -1,1 -4,0 -1,1 -4,0 -1,1 -4,0 -1,1 37,24 -38,-24Z"/>
<path onmouseover="hoverPath(evt)" onmouseout="recoverPath(evt)" fill="rgb(250,249,246)" d="M  179,23l 0,1 -1,1 -1,1 -4,0 0,1 -1,1 0,1 -1,1 -11,0 -1,1 -3,0 -1,-1 -2,0 -1,1 -2,0 -1,-1 -1,0 -1,-1 0,-4 -1,-1 0,-8 -1,-1 0,-3 -1,-1 -1,0 -1,1 -4,0 -1,1 -3,0 0,2 -1,1 -1,1 0,4 1,1 0,9 -1,1 -9,0 -1,1 -4,0 -1,1 -2,0 0,1 3,0 1,-1 10,0 1,-1 13,0 1,-1 7,0 1,1 1,1 0,4 1,1 0,9 -1,1 -61,0 0,1 18,0 1,1 0,15 -1,1 1,0 1,-13 0,-2 1,-1 1,-1 39,0 1,1 1,0 1,1 0,-5 -1,-1 0,-8 -1,-1 0,-3 2,-2 6,0 1,-1 26,0 1,-1 15,0 0,-1 -26,0 -1,-1 0,-2 1,-3 1,1 0,-1 -1,-1 1,2 -1,-1Z"/>
<path onmouseover="hoverPath(evt)" onmouseout="recoverPath(evt)" fill="rgb(236,238,234)" d="M  199,103l 0,3 1,1 0,3 1,1 0,3 1,1 0,2 -1,1 0,1 1,1 1,1 0,1 1,1 0,1 1,1 0,1 1,1 1,1 0,1 1,0 0,-3 -1,-1 0,-4 1,-1 2,0 1,-1 4,0 1,-1 -1,-1 0,-2 -1,-1 0,-3 -1,-1 0,-2 -1,-1 -2,0 -1,1 -3,0 -1,-1 -1,-1 0,-2 -1,-1 0,-1 -2,0 -1,1Z"/>
</svg>