<svg width="256" height="256" xmlns="http://www.w3.org/2000/svg"><script> 
var tempColor;
function hoverPath(evt){
obj = evt.target;
tempColor = obj.getAttribute("fill");
obj.setAttribute("fill","red");
//alert(tempColor);
//obj.setAttribute("stroke","red");}
function recoverPath(evt){
obj = evt.target;
obj.setAttribute("fill", tempColor);
//obj.setAttribute("stroke", tempColor);
}</script><path onmouseover="hoverPath(evt)" onmouseout="recoverPath(evt)" fill="rgb(172,198,238)" d="M  0,66l 0,148 3,0 1,1 2,0 1,-1 6,0 1,-1 5,0 1,-1 6,0 1,-1 6,0 1,-1 6,0 1,-1 7,0 1,-1 5,0 1,-1 6,0 1,-1 7,0 1,-1 6,0 1,-1 4,0 1,-1 0,-1 1,-1 0,-24 1,-1 0,-28 1,-1 0,-36 1,-1 0,-23 -1,-1 0,-24 -3,0 -1,-1 0,-2 1,-1 4,0 0,-1 1,-1 0,-1 1,-1 0,-2 -1,-1 0,-3 -1,-1 0,-5 -1,-1 0,-3 -1,-1 0,-1 -1,0 -1,-1 -9,0 -1,1 -1,0 0,1 -1,1 0,1 -1,1 0,1 -1,1 0,2 -1,1 0,8 -1,1 -2,0 0,2 -1,1 -11,0 -1,-1 0,-7 -1,-1 0,-6 -1,-1 0,-6 -3,0 0,2 -1,1 -2,0 -1,1 -2,0 -1,1 -1,0 -1,1 0,25 2,0 1,1 0,2 -1,1 -12,0 -1,-1 -8,0 -1,-1 -5,0 -1,-1 -3,0 -1,-1 -3,0 -1,-1 -2,0 -1,1Z"/>
<path onmouseover="hoverPath(evt)" onmouseout="recoverPath(evt)" fill="rgb(171,198,238)" d="M  0,218l 0,37 255,0 0,-255 -106,0 0,8 -1,1 0,1 1,1 0,6 -1,1 -2,0 -1,-1 0,-2 -2,0 -1,1 -2,0 0,4 1,1 0,3 1,1 0,3 1,1 0,3 1,1 0,4 -1,1 -1,0 -1,1 -6,0 -1,1 -2,0 -1,1 -1,0 0,1 -1,1 -20,0 -1,1 -1,1 -5,0 -1,1 -5,0 -1,-1 -1,-1 0,-1 -1,-1 0,-7 -1,-1 0,-1 -1,-1 -1,-1 -1,0 -1,-1 -1,0 -1,-1 -2,0 -1,-1 -2,0 -1,-1 -1,0 -1,-1 0,-1 -1,-1 0,-6 1,-1 0,-3 1,-1 0,-2 1,-1 0,-1 1,-1 0,-1 1,-1 0,-1 1,-1 1,-1 1,-1 0,-1 1,-1 -52,0 0,4 -1,1 0,3 -1,1 0,2 -1,1 0,1 -1,1 0,1 -1,1 0,2 -1,1 1,1 0,0 1,1 0,2 -1,1 0,2 -1,1 1,1 5,0 1,-1 7,0 1,-1 2,0 1,-1 1,-1 0,-2 1,-1 0,-4 1,-1 0,-3 1,-1 0,-3 1,-1 0,-3 1,-1 2,0 1,1 0,9 -1,1 -1,1 0,6 -1,1 3,0 1,1 0,2 -1,1 -1,0 -1,1 -1,0 -1,1 -1,0 -1,1 -3,0 -1,1 -5,0 -1,1 -4,0 -1,1 -19,0 -1,1 -3,0 -1,-1 0,-1 -3,0 -1,1 -2,0 -1,-1 -3,0 0,27 3,0 1,1 4,0 1,1 1,0 1,-1 0,-7 1,-1 0,-2 1,-1 0,-1 1,-1 0,-1 1,-1 1,-1 1,-1 1,-1 1,0 1,-1 1,0 1,-1 2,0 1,-1 2,0 1,-1 3,0 1,-1 1,0 1,-1 2,0 1,-1 3,0 1,-1 3,0 1,-1 5,0 1,1 0,6 1,1 0,6 1,1 0,7 9,0 0,-2 1,-1 0,-7 -1,-1 0,0 -1,-1 -1,-1 0,-2 1,-1 2,0 1,1 1,-1 0,-1 1,-1 0,-1 1,-1 0,-1 1,-1 1,-1 1,0 1,-1 3,0 1,-1 7,0 1,1 2,0 2,2 1,1 1,1 0,1 1,1 0,4 1,1 0,6 1,1 0,7 -1,1 0,1 -1,1 0,1 -1,1 0,25 -1,1 0,24 -1,1 0,36 -1,1 0,28 -1,1 0,24 -1,1 0,1 -1,1 -1,1 -4,0 -1,1 -6,0 -1,1 -7,0 -1,1 -6,0 -1,1 -5,0 -1,1 -7,0 -1,1 -6,0 -1,1 -6,0 -1,1 -6,0 -1,1 -5,0 -1,1 -6,0 -1,1 -4,0 -1,-1 -2,0Z"/>
<path onmouseover="hoverPath(evt)" onmouseout="recoverPath(evt)" fill="rgb(250,240,147)" d="M  0,18l 0,10 1,0 1,-1 1,0 0,-2 1,-1 1,-1 1,-1 1,-1 1,-1 0,-1 4,-4 1,-1 2,0 1,-1 1,0 0,-4 1,-1 0,-1 1,-1 1,-1 1,-1 1,-1 1,-1 0,-2 -7,0 0,2 -1,1 0,1 -1,1 -2,2 -1,1 0,1 -1,1 -1,1 -2,2 -2,0 -1,-1 -4,0Z"/>
<path onmouseover="hoverPath(evt)" onmouseout="recoverPath(evt)" fill="rgb(253,253,252)" d="M  3,29l 0,0 -1,1 2,0 1,1 1,-1 4,0 1,-1 2,0 1,-1 2,0 1,-1 1,-1 1,0 1,-1 1,0 1,-1 1,-1 1,-1 1,-1 2,0 1,1 -2,-2 0,-2 1,-1 0,-2 1,-1 0,-1 1,-1 0,-1 1,-1 0,-2 1,-1 0,-3 1,-1 0,-3 -1,0 0,2 -1,1 0,2 -1,1 0,2 -1,1 0,3 -1,1 0,1 -1,1 0,1 -1,1 -1,1 0,1 -1,1 0,1 -1,1 -1,0 -1,1 -1,1 -1,1 -1,0 -1,1 -1,0 -1,1 -2,0 -1,1 -6,0 -1,1Z"/>
<path onmouseover="hoverPath(evt)" onmouseout="recoverPath(evt)" fill="rgb(185,206,234)" d="M  5,0l -5,0 0,10 5,0 1,1 1,-1 0,0 1,-1 1,-1 0,-1 1,-1 1,-1 1,-1 1,-1 0,-1 1,-1 0,-1Z"/>
<path onmouseover="hoverPath(evt)" onmouseout="recoverPath(evt)" fill="rgb(187,205,223)" d="M  7,24l 0,0 -1,1 -1,1 5,0 1,-1 2,0 1,-1 1,0 1,-1 1,0 1,-1 1,-1 1,-1 1,0 0,-1 1,-1 0,-1 1,-1 1,-1 0,-1 1,-1 0,-1 1,-1 0,-3 1,-1 0,-2 1,-1 0,-2 1,-1 0,-1 -4,0 0,3 -1,1 -1,1 -1,1 -1,1 -1,1 0,1 -1,1 0,4 -1,1 -1,0 -1,1 -2,0 -1,1 -1,1 -1,1 -1,1 0,1 -1,1 -1,1 -1,1Z"/>
<path onmouseover="hoverPath(evt)" onmouseout="recoverPath(evt)" fill="rgb(171,198,238)" d="M  19,47l 0,1 -1,1 0,1 -1,1 0,1 -1,1 0,11 14,0 1,1 2,0 0,-23 -3,0 -1,1 -2,0 -1,1 -2,0 -1,1 -1,0 -1,1 -1,0 -1,1Z"/>
<path onmouseover="hoverPath(evt)" onmouseout="recoverPath(evt)" fill="rgb(243,243,237)" d="M  39,37l -1,0 -1,1 -2,0 -1,1 -1,0 -1,1 -3,0 -1,1 -2,0 -1,1 -2,0 -1,1 -1,0 -1,1 -1,0 -1,1 -1,1 -1,1 0,1 -1,1 0,1 -1,1 0,2 -1,1 0,7 -1,1 -1,1 -3,0 -1,-1 -4,0 -1,-1 -2,0 0,2 4,0 1,1 3,0 1,1 3,0 1,1 5,0 1,1 8,0 1,1 10,0 -3,-1 0,-27 1,-1 -1,0 -1,1 -1,0 1,27 -4,0 -1,-1 -10,0 20,-29 -25,25 0,0 25,-25Z"/>
<path onmouseover="hoverPath(evt)" onmouseout="recoverPath(evt)" fill="rgb(240,241,231)" d="M  51,17l 0,0 -1,1 0,4 -1,1 0,2 -1,1 -1,1 -1,1 2,0 1,-1 1,0 1,-1 1,0 1,-1 -2,0 -1,-1 0,-1 1,-6 -7,11 -1,1 -7,0 -1,1 -7,0 -1,-1 -1,-1 0,-2 1,-1 0,-1 -1,-1 -1,1 -1,1 -1,1 -1,1 -1,0 -1,1 -1,0 -1,1 -1,1 -2,0 -1,1 -2,0 0,1 1,0 2,-1 18,0 11,-3 7,-11 -15,13 2,0 13,-15 0,0 1,-1 1,-1 0,-7 -1,4 0,3 -1,1 -15,16 15,-13Z"/>
<path onmouseover="hoverPath(evt)" onmouseout="recoverPath(evt)" fill="rgb(240,241,237)" d="M  88,42l 0,4 1,1 0,3 1,1 0,4 -1,1 0,1 -1,1 0,1 -1,1 0,25 -1,-25 -3,0 7,-10 -1,-4 0,-3 -1,-1 -2,-6 1,0 -1,-1 -1,-1 -1,-1 0,1 -1,-1 -1,0 -1,-1 -5,0 -1,1 -3,0 -1,1 -1,0 -1,1 0,1 -1,1 0,1 -1,1 0,1 -1,1 -1,1 -2,0 2,2 0,8 1,-9 0,-1 -1,1 -3,-2 0,0 14,-8Z"/>
<path onmouseover="hoverPath(evt)" onmouseout="recoverPath(evt)" fill="rgb(243,243,237)" d="M  88,1l 0,0 -1,1 0,1 -1,1 -1,1 -1,1 0,1 -1,1 0,1 -1,1 0,1 -1,1 0,2 -1,1 0,3 -1,1 0,4 1,1 0,1 1,0 1,1 2,0 1,1 2,0 1,1 1,0 1,1 1,0 1,1 1,1 1,1 0,1 1,1 0,7 1,1 0,1 1,1 3,0 1,-1 5,0 1,-1 1,-1 20,0 0,-1 1,-1 1,0 1,-1 2,0 1,-1 6,0 1,-1 1,0 0,-2 -1,-1 0,-3 -1,-1 0,-3 -1,-1 0,-3 -1,-1 0,-6 1,-1 2,0 1,-1 4,0 1,1 0,-2 -1,-1 0,-3 1,-1 0,-7 -58,0 -1,1Z"/>
</svg>