<svg width="256" height="256" xmlns="http://www.w3.org/2000/svg"><script> 
var tempColor;
function hoverPath(evt){
obj = evt.target;
tempColor = obj.getAttribute("fill");
obj.setAttribute("fill","red");
//alert(tempColor);
//obj.setAttribute("stroke","red");}
function recoverPath(evt){
obj = evt.target;
obj.setAttribute("fill", tempColor);
//obj.setAttribute("stroke", tempColor);
}</script><path onmouseover="hoverPath(evt)" onmouseout="recoverPath(evt)" fill="rgb(171,198,238)" d="M  0,1l 0,57 1,-1 0,0 1,-1 0,-1 1,-1 1,-1 0,-1 1,-1 1,-1 1,-1 0,-1 1,-1 1,-1 0,-1 2,-2 1,-1 0,-1 1,-1 1,-1 1,-1 1,-1 1,-1 0,-1 1,-1 2,-2 1,-1 1,-1 1,0 1,-1 1,-1 1,-1 1,-1 1,0 1,-1 1,0 1,-1 1,-1 1,0 1,-1 1,-1 1,0 1,-1 1,0 1,-1 1,0 1,-1 1,0 1,-1 1,0 1,-1 2,0 1,-1 1,0 1,-1 1,0 1,-1 1,0 1,-1 1,0 1,-1 1,0 1,-1 1,0 1,-1 1,-1 1,0 1,-1 1,0 1,-1 2,0 1,-1 1,0 1,-1 1,0 1,-1 1,0 1,-1 1,0 1,-1 1,0 1,-1 -77,0 -1,1Z"/>
<path onmouseover="hoverPath(evt)" onmouseout="recoverPath(evt)" fill="rgb(182,209,169)" d="M  0,120l 0,58 5,0 1,1 4,0 1,1 2,0 1,1 1,0 1,1 2,0 1,1 2,0 1,1 2,0 1,1 2,0 1,1 3,0 1,1 3,0 1,1 3,0 1,1 9,0 1,1 4,0 1,-1 0,-2 1,-1 0,-1 1,-1 0,-1 1,-1 1,-1 0,-1 1,-1 0,-1 1,-1 0,-1 1,-1 0,-1 1,-1 1,-1 0,-1 1,-1 0,-1 1,-1 1,-1 2,0 1,1 1,0 0,-1 -1,-1 0,-4 1,-1 1,-1 1,0 1,-1 1,-1 1,0 1,-1 1,-1 1,0 1,-1 1,0 2,-2 1,-1 1,0 0,-1 1,-1 0,-6 -1,-1 0,-3 -1,-1 0,-3 -1,-1 0,-3 -1,-1 0,-2 -1,-1 0,-3 -1,-1 0,-3 -1,-1 0,-3 -1,-1 0,-2 -1,-1 0,-2 -1,-1 -2,0 -1,-1 -16,0 -1,1 -5,0 -1,1 -6,0 -1,1 -6,0 -1,1 -4,0 -1,1 -4,0 -1,1 -4,0 -1,1 -4,0 -1,1 -5,0 -1,1 -4,0 -1,1 -4,0 -1,1Z"/>
<path onmouseover="hoverPath(evt)" onmouseout="recoverPath(evt)" fill="rgb(185,212,151)" d="M  0,194l 0,61 36,0 0,-10 1,-1 0,-7 1,-1 0,-8 1,-1 0,-2 1,-1 0,-3 1,-1 0,-2 1,-1 0,-2 1,-1 0,-3 1,-1 0,-1 1,-1 4,0 1,1 2,0 1,1 1,0 1,1 2,0 0,-2 -1,-1 -1,0 -1,-1 -1,0 -1,-1 -2,0 -1,-1 -1,0 -1,-1 0,-3 1,-1 1,-1 0,-1 1,-1 0,-2 -8,0 -1,-1 -3,0 -1,-1 -4,0 -1,-1 -3,0 -1,-1 -3,0 -1,-1 -2,0 -1,-1 -2,0 -1,-1 -1,0 -1,-1 -2,0 -1,-1 -2,0 -1,-1 -2,0 -1,-1 -5,0 -1,-1 -1,0Z"/>
<path onmouseover="hoverPath(evt)" onmouseout="recoverPath(evt)" fill="rgb(241,240,229)" d="M  47,231l 0,-1 1,-1 0,-1 2,-2 0,-1 1,-1 0,-1 1,-1 0,-1 1,-1 0,-1 1,-1 0,-1 1,-1 0,-1 1,-1 0,-1 -2,0 -1,-1 -1,0 -1,-1 -2,0 -1,-1 -2,0 0,1 -1,1 0,3 -1,1 0,2 -1,1 0,2 -1,1 0,3 -1,1 0,2 -1,1 0,8 -1,1 0,7 -1,1 0,9 3,0 0,-13 1,-1 0,-2 1,-1 1,-1 0,-1 1,-1 0,-1 1,-1 0,-1 1,-1Z"/>
<path onmouseover="hoverPath(evt)" onmouseout="recoverPath(evt)" fill="rgb(253,253,252)" d="M  52,192l -3,0 -1,-1 -9,0 -1,-1 -3,0 -1,-1 -3,0 -1,-1 -3,0 -1,-1 -2,0 -1,-1 -2,0 -1,-1 -2,0 -1,-1 -2,0 -1,-1 -1,0 -1,-1 -2,0 -1,-1 -4,0 -1,-1 -4,0 0,1 2,0 1,1 5,0 1,1 2,0 1,1 2,0 1,1 2,0 1,1 1,0 1,1 2,0 1,1 2,0 1,1 3,0 1,1 3,0 1,1 4,0 1,1 3,0 1,1 8,0 1,-1 2,0 1,1 -1,1 1,0 1,1 2,0 1,1 2,0 1,1 1,1 1,0 1,1 0,3 -1,1 0,1 -1,1 0,1 -1,1 0,1 -1,1 -1,1 -1,0 0,2 -1,1 0,2 -1,1 0,1 -1,1 0,1 -1,1 0,1 -1,1 0,1 -1,1 0,1 -1,1 0,1 -1,1 -1,1 0,1 -1,1 0,1 -1,1 0,1 -1,1 0,1 -1,1 0,1 -1,1 -1,1 0,2 -1,1 0,12 1,0 0,-11 1,-1 0,-2 1,-1 0,-1 1,-1 0,-1 1,-1 1,-1 0,-1 1,-1 2,0 0,-1 1,-1 -1,-1 0,-2 1,-1 0,-1 1,-1 0,-1 1,-1 0,-1 1,-1 0,-1 1,-1 0,-1 1,-1 0,-1 1,-1 1,-1 1,0 0,-2 1,-1 0,-2 1,-1 0,-1 1,-1 0,-1 1,-1 1,-1 0,-1 1,-1 3,0 1,1 1,1 1,1 0,1 1,1 1,1 1,1 1,1 0,2 1,0 2,2 1,1 1,1 1,1 0,1 1,1 1,0 1,1 1,1 1,1 2,0 1,1 2,0 1,1 3,0 1,1 3,0 1,1 2,0 1,1 3,0 1,1 4,0 1,1 2,0 1,1 3,0 1,1 3,0 1,1 3,0 1,1 2,0 1,1 4,0 1,1 4,0 1,1 7,0 1,-1 4,0 1,-1 11,0 1,-1 7,0 1,-1 8,0 1,-1 7,0 1,-1 12,0 1,-1 6,0 1,-1 7,0 1,-1 5,0 1,-1 11,0 1,-1 17,0 0,-1 -18,0 -1,1 -11,0 -1,1 -8,0 -1,1 -8,0 -1,1 -12,0 -1,1 -3,0 -1,1 -6,0 -1,1 -8,0 -1,1 -7,0 -1,1 -10,0 -1,1 -14,0 -1,-1 -4,0 -1,-1 -3,0 -1,-1 -3,0 -1,-1 -2,0 -1,-1 -3,0 -1,-1 -3,0 -1,-1 -3,0 -1,-1 -3,0 -1,-1 -3,0 -1,-1 -3,0 -1,-1 -2,0 -1,-1 -3,0 -1,-1 -2,0 -1,-1 -1,0 -1,-1 0,-2 -1,-1 -1,-1 -1,-1 -1,-1 -1,0 -1,-1 -1,0 -1,-1 -1,-1 -1,-1 -1,-1 0,-2 -1,0 -1,-1 -1,-1 0,-2 -1,0 -1,-1 -1,-1 0,-4 1,-1 0,-2 1,-1 1,-1 2,0 -1,-1 0,-2 1,-1 0,-1 1,-1 1,-1 0,-1 1,-1 0,-1 1,-1 0,-1 1,-1 0,-1 1,-1 1,-1 0,-3 1,-1 0,-1 1,-1 1,-1 2,0 -1,-1 0,-2 1,-1 1,-1 2,0 -1,-1 0,-2 1,-1 1,-1 0,-1 1,-1 1,0 0,-1 1,-1 1,-1 1,-1 1,-1 1,0 1,-1 1,0 1,-1 2,0 1,-1 4,0 1,-1 5,0 1,-1 5,0 1,-1 2,0 1,-1 0,-6 -1,-1 0,-2 -1,-1 0,-1 -1,-1 0,-2 -1,-1 0,-2 -1,-1 0,-1 -1,-1 0,-1 -1,-1 0,-1 -1,-1 0,-1 -1,-1 -1,0 -1,-1 -1,-1 -1,-1 -1,-1 -1,-1 -1,0 1,1 1,1 1,1 1,1 1,1 1,1 0,0 1,1 1,1 0,1 1,1 0,1 1,1 0,3 -1,1 2,0 1,1 0,2 1,1 0,2 1,1 0,2 1,1 0,4 -1,1 -2,0 -1,1 -5,0 -1,1 -5,0 -1,1 -4,0 -1,1 -1,0 -1,1 -1,0 -1,1 -1,0 -1,1 -1,0 -2,2 -1,1 -1,1 -1,0 0,2 -1,1 0,1 -1,1 -1,1 0,1 -1,1 0,1 -1,1 -1,1 0,1 -1,1 0,1 -1,1 0,1 -1,1 0,1 -1,1 -1,0 0,3 -1,1 0,1 -1,1 0,1 -1,1 0,1 -1,1 0,1 -1,1 0,1 -1,1 -1,1 0,1 -1,1 0,1 -1,1 0,1 -1,1 -9,0 -1,-1 -3,0 -3,-1 -1,0 1,2 0,0 -1,-2Z"/>
<path onmouseover="hoverPath(evt)" onmouseout="recoverPath(evt)" fill="rgb(240,239,226)" d="M  52,198l 0,0 -1,1 0,1 -1,1 -1,1 0,1 1,0 1,1 2,0 1,1 1,0 1,1 1,0 1,1 1,1 1,-1 0,-1 1,-1 0,-1 1,-1 0,-1 1,-1 0,-1 -1,0 -1,-1 -1,-1 -2,0 -1,-1 -2,0 -1,-1 -2,0Z"/>
<path onmouseover="hoverPath(evt)" onmouseout="recoverPath(evt)" fill="rgb(244,243,236)" d="M  63,218l 0,0 -1,-1 -1,-1 -1,1 0,1 -1,1 0,1 -1,1 0,1 -1,1 0,1 -1,1 0,1 -1,1 0,1 -1,1 1,1 0,2 -1,1 0,1 -1,1 -2,0 0,1 -1,1 -1,1 0,1 -1,1 0,1 -1,1 0,2 -1,1 0,10 123,0 0,-2 -1,-1 0,0 -1,-1 0,-1 -1,-1 -1,-1 -1,-1 -1,0 -1,-1 -1,0 -1,-1 -2,0 -1,-1 -2,0 -1,-1 -4,0 -1,-1 -5,0 -1,-1 -5,0 -1,-1 -5,0 -1,-1 -5,0 -1,-1 -5,0 -1,-1 -2,0 -1,-1 -1,0 -1,-1 -1,0 -1,-1 -2,0 -1,-1 -1,0 -1,-1 -2,0 -1,-1 -2,0 -1,-1 -2,0 -1,-1 -4,0 -1,-1 -9,0 -1,-1 -3,0 -1,-1 -2,0 -1,-1 -1,0 -1,-1 -2,0 -1,-1 -1,0 -1,-1 -1,-1 -1,0 -1,-1 -1,-1 -1,0 -1,-1Z"/>
<path onmouseover="hoverPath(evt)" onmouseout="recoverPath(evt)" fill="rgb(239,238,225)" d="M  67,205l 0,0 -1,1 0,1 -1,1 0,1 -1,1 0,1 1,0 1,1 1,0 1,1 1,1 1,0 1,1 1,0 1,1 1,1 1,0 1,1 1,0 1,1 1,0 1,1 1,0 1,-1 0,0 -1,-1 0,-1 -1,-1 -1,-1 -1,-1 -1,-1 -1,0 -1,-1 0,-2 -1,-1 -1,-1 -1,-1 -1,-1 0,-1 -1,-1 -1,-1 -1,0 0,1 -1,1Z"/>
<path onmouseover="hoverPath(evt)" onmouseout="recoverPath(evt)" fill="rgb(244,243,235)" d="M  82,179l -1,0 0,1 -1,1 0,1 -1,1 0,1 -1,1 -1,1 0,1 -1,1 1,1 0,2 -1,1 -2,0 -1,1 0,2 -1,1 0,2 1,1 1,0 1,1 0,2 1,1 1,0 1,1 0,2 1,1 1,1 1,1 1,0 1,1 1,0 1,1 1,1 1,1 1,1 1,1 0,2 1,0 1,1 2,0 1,1 3,0 1,1 2,0 1,1 3,0 1,1 3,0 1,1 3,0 1,1 3,0 1,1 3,0 1,1 3,0 1,1 2,0 1,1 3,0 1,1 3,0 1,1 4,0 1,1 12,0 1,-1 10,0 1,-1 7,0 1,-1 8,0 1,-1 6,0 1,-1 3,0 0,-1 -1,-1 0,-2 -1,-1 0,-2 -1,-1 0,-2 -1,-1 0,-6 1,-1 0,-1 1,-1 1,-1 1,-1 1,-1 1,-1 1,-1 0,-1 1,-1 2,-2 1,-1 0,-1 -1,-1 -1,-1 -1,-1 -1,-1 0,-1 -1,-1 -1,-1 -1,-1 -3,-3 -1,-1 -1,-1 -1,-1 -1,-1 -1,-1 -1,-1 -1,-1 0,-1 -1,-1 -1,-1 -1,0 -1,-1 -7,0 -1,1 -4,0 -1,1 -4,0 -1,1 -7,0 -1,1 -19,0 -1,1 -15,0 -1,1 -7,0 -1,1 -4,0 -1,1 -15,0 -1,-1 -2,0 -1,-1Z"/>
<path onmouseover="hoverPath(evt)" onmouseout="recoverPath(evt)" fill="rgb(244,243,236)" d="M  97,153l 0,0 -1,1 -1,1 0,1 -1,1 -1,0 0,1 -1,1 -1,1 1,1 0,2 -1,1 -2,0 -1,1 1,1 0,2 -1,1 -2,0 -1,1 0,1 -1,1 0,2 3,0 1,1 2,0 1,1 8,0 1,-1 4,0 1,-1 5,0 1,-1 6,0 1,-1 17,0 1,-1 17,0 1,-1 5,0 1,-1 5,0 1,-1 7,0 1,-1 6,0 1,1 2,0 1,1 1,0 1,1 1,1 1,1 0,1 1,1 1,1 1,1 1,1 1,1 1,1 0,1 1,1 1,1 1,1 1,1 1,1 0,1 1,1 1,1 1,1 1,1 0,1 1,1 1,1 0,1 1,1 0,3 -1,1 0,1 -1,1 -1,1 -1,1 -3,3 -1,1 -1,1 -1,1 0,1 -1,1 0,3 1,1 0,2 1,1 0,2 1,1 0,2 1,1 0,1 6,0 1,-1 8,0 1,-1 8,0 1,-1 11,0 1,-1 19,0 0,-149 -7,0 -1,1 -7,0 -1,1 -8,0 -1,1 -8,0 -1,1 -8,0 -1,1 -6,0 -1,1 -7,0 -1,1 -6,0 -1,1 -6,0 -1,1 -7,0 -1,1 -6,0 -1,1 -5,0 -1,1 -3,0 -1,1 -10,0 -1,-1 -1,-1 -1,-1 0,-1 -1,-1 -1,-1 0,-1 -1,-1 -1,-1 -1,-1 0,-1 -1,-1 -1,-1 0,-1 -1,-1 -1,-1 -1,0 -1,-1 -13,0 -1,-1 0,-2 -1,-1 -1,0 -1,-1 0,-1 -1,-1 -1,-1 -1,0 -1,-1 -1,-1 -1,-1 -1,-1 -1,-1 -1,-1 -1,0 -1,-1 0,-1 -1,-1 -1,-1 -1,-1 0,-1 -1,-1 -1,-1 -1,-1 0,-1 -1,-1 0,-4 1,-1 0,-2 1,-1 0,-2 1,-1 0,-3 1,-1 0,-22 -1,-1 0,-2 -1,-1 0,-2 -21,0 0,1 -1,1 -1,1 -1,0 -1,1 -1,0 -1,1 -1,0 -1,1 -1,0 -1,1 -1,0 -1,1 -2,0 -1,1 -1,0 -1,1 -1,0 -1,1 -1,1 -1,0 -1,1 -1,0 -1,1 -1,0 -1,1 -1,0 -1,1 -1,0 -1,1 -1,0 -1,1 -2,0 -1,1 -1,0 -1,1 -1,0 -1,1 -1,0 -1,1 -1,0 -1,1 -1,0 -1,1 -1,1 -1,0 -1,1 -1,1 -1,0 -1,1 -1,0 -1,1 -1,1 -1,1 -1,1 -1,0 -1,1 -3,3 0,1 -1,1 -1,1 -1,1 -1,1 -1,1 0,1 -1,1 -1,1 -1,1 0,1 -1,1 -1,1 0,1 -1,1 -1,1 -1,1 0,1 -1,1 -1,1 0,1 -1,1 -1,1 -1,1 -1,0 0,57 4,0 1,-1 4,0 1,-1 5,0 1,-1 4,0 1,-1 4,0 1,-1 4,0 1,-1 4,0 1,-1 6,0 1,-1 6,0 1,-1 5,0 1,-1 18,0 1,1 2,0 1,1 1,1 0,2 1,1 0,2 1,1 0,3 1,1 0,3 1,1 0,3 1,1 0,2 1,1 0,3 1,1 0,3 1,1 0,3 1,1 0,8 -1,1 0,1 -1,1 -1,0 -1,1 -1,1 -1,1 -1,0 -1,1 -1,0 -1,1 -1,1 -1,0 -1,1 -1,1 -1,0 -1,1 0,2 1,1 0,3 -1,1 -3,0 -1,-1 -1,1 0,1 -1,1 0,1 -1,1 -1,1 0,1 -1,1 0,1 -1,1 0,1 -1,1 0,1 -1,1 -1,1 0,1 -1,1 0,1 -1,1 0,2 -1,1 4,0 1,1 7,0 0,-1 1,-1 0,-1 1,-1 0,-1 1,-1 1,-1 0,-1 1,-1 0,-1 1,-1 0,-1 1,-1 0,-1 1,-1 0,-1 1,-1 0,-3 1,-1 1,0 0,-1 1,-1 0,-1 1,-1 0,-1 1,-1 0,-1 1,-1 1,-1 0,-1 1,-1 0,-1 1,-1 1,-1 0,-1 1,-1 0,-2 1,-1 1,0 1,-1 3,-3 1,0 1,-1 1,0 1,-1 1,0 1,-1 1,0 1,-1 4,0 1,-1 5,0 1,-1 5,0 1,-1 2,0 0,-2 -1,-1 0,-2 -1,-1 0,-2 -1,-1 0,-2 -2,0 -1,-1 0,-2 1,-1 0,-1 -1,-1 0,-1 -1,-1 0,-1 -1,-1 -1,-1 -1,-1 -1,-1 -1,-1 -1,-1 -1,-1 -1,-1 0,-2 1,-1 3,0 1,1 1,1 3,3 1,0 1,1 1,1 0,1 1,1 0,1 1,1 0,1 1,1 0,1 1,1 0,2 1,1 0,2 1,1 0,1 1,1 0,2 1,1 0,8 -1,1 -1,1 -2,0 -1,1 -5,0 -1,1 -5,0 -1,1 -4,0 -1,1 -2,0 -1,1 -1,0 -1,1 -1,0 -1,1Z"/>
<path onmouseover="hoverPath(evt)" onmouseout="recoverPath(evt)" fill="rgb(244,243,237)" d="M  103,1l 0,0 1,1 0,2 1,1 0,24 -1,1 0,3 -1,1 0,2 -1,1 0,2 -1,1 0,2 1,1 0,1 1,1 1,1 1,1 0,1 1,1 1,1 1,1 0,1 1,0 1,1 1,1 1,1 1,1 1,1 1,1 1,0 1,1 1,1 1,1 0,1 1,0 1,1 1,1 17,0 1,1 1,1 1,1 1,1 1,1 0,1 1,1 1,1 1,1 0,1 1,1 1,1 0,1 1,1 1,1 8,0 1,-1 6,0 1,-1 6,0 1,-1 6,0 1,-1 7,0 1,-1 6,0 1,-1 6,0 1,-1 6,0 1,-1 8,0 1,-1 7,0 1,-1 8,0 1,-1 7,0 1,-1 6,0 1,-1 4,0 0,-66 -151,0 -1,1Z"/>
<path onmouseover="hoverPath(evt)" onmouseout="recoverPath(evt)" fill="rgb(173,199,235)" d="M  105,229l 0,0 1,1 2,0 1,1 1,0 1,1 2,0 1,1 1,0 1,1 1,0 1,1 2,0 1,1 5,0 1,1 5,0 1,1 5,0 1,1 5,0 1,1 5,0 1,1 4,0 1,1 2,0 1,1 2,0 1,1 1,0 1,1 1,0 1,1 1,1 1,1 1,1 0,1 1,1 1,1 0,3 6,0 0,-2 -1,-1 0,0 -1,-1 0,-1 -1,-1 0,-1 -1,-1 -1,-1 0,-1 -1,-1 -1,-1 -1,0 -1,-1 -1,-1 -1,-1 -2,0 -1,-1 -5,0 -1,-1 -4,0 -1,-1 0,-1 -1,0 -1,1 -9,0 -1,-1 -4,0 -1,-1 -4,0 -1,-1 -2,0 -1,-1 -3,0 -1,-1 -3,0 -1,-1 -3,0 -1,-1 -2,0 -1,-1 -4,0 -1,-1 -1,0 -1,1 -1,-1 -1,-1 -2,0 -1,-1 -3,0 -1,-1 -3,0 -1,-1 -2,0 -1,-1 -2,0 -1,-1 -1,-1 -1,-1 -1,1 -1,1 -3,0 -1,-1 -1,0 -1,-1 -1,0 -1,-1 -1,0 -1,-1 -1,-1 -1,0 -1,-1 -1,0 -1,-1 -1,-1 -1,0 -1,-1 -1,0 0,2 1,1 1,1 1,0 1,1 1,1 1,0 1,1 1,1 1,0 1,1 2,0 1,1 1,0 1,1 2,0 1,1 3,0 1,1 9,0 1,1 4,0 1,1 2,0 1,1 1,-1 1,1Z"/>
<path onmouseover="hoverPath(evt)" onmouseout="recoverPath(evt)" fill="rgb(171,198,238)" d="M  154,173l -17,0 -1,1 -17,0 -1,1 -6,0 -1,1 -5,0 -1,1 -4,0 -1,1 -10,0 -1,-1 -2,0 -1,-1 -3,0 -1,1 3,0 1,1 2,0 1,1 13,0 1,-1 4,0 1,-1 7,0 1,-1 15,0 1,-1 19,0 1,-1 1,0 1,-1 1,1 4,0 1,-1 4,0 1,-1 4,0 1,-1 9,0 1,1 1,0 1,1 1,1 1,1 0,1 1,1 1,1 1,1 1,1 1,1 1,1 1,1 1,1 1,1 1,1 1,1 1,1 1,1 0,1 1,1 1,1 1,1 1,1 0,3 -1,1 -2,2 -1,1 0,1 -1,1 -2,2 -1,1 -1,1 -1,1 0,1 -1,1 0,4 1,1 0,2 1,1 0,2 1,1 0,2 1,1 0,1 3,0 -1,-1 0,-2 -1,-1 0,-2 -1,-1 0,-2 -1,-1 0,-5 1,-1 0,-1 1,-1 1,-1 1,-1 1,-1 1,-1 1,-1 1,-1 1,-1 1,-1 0,-1 1,-1 0,-1 -1,-1 0,-1 -1,-1 -1,-1 0,-1 -1,-1 -1,-1 -1,-1 -1,-1 0,-1 -1,-1 -1,-1 -1,-1 -1,-1 -1,-1 0,-1 -1,-1 -1,-1 -1,-1 -1,-1 -1,-1 -1,-1 0,-1 -1,-1 -1,-1 -1,0 -1,-1 -2,0 -1,-1 -4,0 -1,1 -7,0 -1,1 -5,0 -1,1 -5,0 0,2 -1,-1Z"/>
<path onmouseover="hoverPath(evt)" onmouseout="recoverPath(evt)" fill="rgb(243,242,234)" d="M  164,237l 0,0 1,1 2,0 1,1 1,1 1,1 1,0 1,1 1,1 1,1 0,1 1,1 1,1 0,1 1,1 0,1 1,1 1,1 0,3 39,0 0,-6 1,-1 0,-3 1,-1 0,-4 -1,-1 0,-1 -1,-1 0,-1 -1,-1 -1,-1 0,-1 -1,-1 -1,0 -1,1 -3,0 -1,1 -4,0 -1,1 -5,0 -1,-1 -1,0 -1,-1 0,-2 -3,0 -1,1 -7,0 -1,1 -8,0 -1,1 -7,0 -1,1 -11,0 -1,1 3,0 1,1Z"/>
<path onmouseover="hoverPath(evt)" onmouseout="recoverPath(evt)" fill="rgb(171,198,238)" d="M  174,79l -6,0 -1,1 -6,0 -1,1 -10,0 -1,-1 -1,-1 -1,-1 0,-1 -1,-1 -1,-1 0,-1 -1,-1 -1,-1 -1,-1 0,-1 -1,-1 -1,-1 -1,-1 -1,-1 -16,0 14,1 1,0 1,1 1,1 1,1 0,1 1,1 1,1 0,1 1,1 1,1 1,1 0,1 1,1 1,1 0,1 1,1 1,1 8,0 1,-1 3,0 1,-1 5,0 1,-1 5,0 1,-1 8,0 1,-1 6,0 1,-1 6,0 1,-1 7,0 1,-1 6,0 1,-1 8,0 1,-1 8,0 1,-1 8,0 1,-1 7,0 1,-1 8,0 0,-2 -3,0 -1,1 -6,0 -1,1 -7,0 -1,1 -8,0 -1,1 -7,0 -1,1 -8,0 -1,1 -6,0 -1,1 -6,0 -1,1 -6,0 -1,1 -7,0 -1,1 -5,0 -1,1Z"/>
<path onmouseover="hoverPath(evt)" onmouseout="recoverPath(evt)" fill="rgb(173,198,235)" d="M  206,230l 0,0 -1,1 -7,0 0,1 1,0 1,1 3,0 1,-1 4,0 1,-1 3,0 1,-1 3,0 1,1 1,1 0,1 1,1 1,1 0,1 1,1 0,1 1,1 0,6 -1,1 0,3 -1,1 0,5 4,0 0,-16 -1,-1 0,-2 -1,-1 0,-1 -1,-1 0,-1 -1,-1 0,-1 -1,-1 -6,0 -1,1Z"/>
<path onmouseover="hoverPath(evt)" onmouseout="recoverPath(evt)" fill="rgb(243,242,234)" d="M  222,230l 0,0 1,1 0,1 1,1 0,1 1,1 0,2 1,1 0,17 29,0 0,-29 -16,0 -1,1 -11,0 -1,1 -5,0 1,1Z"/>
</svg>