<svg width="256" height="256" xmlns="http://www.w3.org/2000/svg"><script> 
var tempColor;
function hoverPath(evt){
obj = evt.target;
tempColor = obj.getAttribute("fill");
obj.setAttribute("fill","red");
//alert(tempColor);
//obj.setAttribute("stroke","red");}
function recoverPath(evt){
obj = evt.target;
obj.setAttribute("fill", tempColor);
//obj.setAttribute("stroke", tempColor);
}</script><path onmouseover="hoverPath(evt)" onmouseout="recoverPath(evt)" fill="rgb(253,253,253)" d="M  0,244l 0,1 2,0 1,-1 18,0 1,-1 19,0 1,-1 24,0 1,-1 4,0 1,1 3,0 1,1 0,12 2,0 0,-13 1,-1 18,0 1,-1 31,0 1,-1 25,0 1,-1 20,0 1,1 0,1 1,1 0,11 1,1 0,2 1,0 0,-4 -1,-1 0,-11 1,-1 1,0 1,-1 31,0 1,-1 27,0 1,-1 13,0 0,-1 -16,0 -1,1 -27,0 -1,1 -30,0 -1,-1 0,-3 -1,-1 0,-23 -1,-1 0,-5 1,-1 1,-1 8,0 1,-1 37,0 1,-1 29,0 0,-1 -34,0 -1,1 -35,0 -1,1 -4,0 -1,-1 -1,-1 0,-1 -1,-1 0,-16 -1,-1 0,-18 1,-1 1,0 1,-1 29,0 1,-1 46,0 0,-1 -54,0 -1,1 -23,0 -1,-1 0,-1 -1,-1 0,-16 -1,-1 0,-4 1,-1 0,-4 -1,-1 0,-6 -1,-1 0,-43 -1,0 0,44 1,1 0,4 -1,1 0,5 1,1 0,5 1,1 0,17 -1,1 -1,0 -1,1 -23,0 -1,1 -26,0 -1,1 -25,0 -1,1 -17,0 -1,-1 -1,-1 0,-15 -1,-1 0,-7 1,-1 0,-1 -1,-1 0,-4 -1,-1 0,-3 -1,-1 0,-3 -1,-1 0,-2 -1,-1 0,-3 -1,-1 0,-6 -1,-1 0,-5 -1,-1 0,4 1,3 0,3 1,4 0,1 1,3 0,1 1,2 0,3 1,1 0,4 1,1 0,4 -1,1 1,1 0,17 -1,1 -1,1 -2,0 -1,1 4,0 1,1 0,6 1,1 0,32 1,1 0,33 1,1 0,7 -1,1 -1,0 -1,1 -8,0 -1,1 -25,0 -1,-1 0,-5 -1,-1 0,-13 -1,-1 0,-13 -1,-1 0,-11 -1,-1 0,-12 -1,-1 0,-11 -1,-1 0,-6 1,-1 1,0 1,-1 -4,0 -1,1 -1,0 -1,1 2,0 1,1 0,6 1,1 0,11 1,1 0,12 1,1 0,11 1,1 0,13 1,1 0,14 1,1 0,2 -1,1 -1,1 -1,0 -1,1 -13,0 -1,1 -18,0 -1,1 77,-7 0,-30 -1,-1 0,-33 -1,-1 0,-7 1,-1 0,-1 1,-1 19,0 1,-1 27,0 1,-1 24,0 1,-1 23,0 1,1 0,1 1,1 0,19 1,1 0,27 1,1 0,25 -1,1 -1,0 -1,1 -21,0 -1,1 -26,0 -1,1 -32,0 -1,1 -13,0 -1,-1 0,-1 -1,-1 -77,7Z"/>
<path onmouseover="hoverPath(evt)" onmouseout="recoverPath(evt)" fill="rgb(235,237,234)" d="M  15,148l 0,2 1,1 4,0 1,-1 5,0 1,-1 6,0 1,-1 4,0 0,-4 -3,0 -1,1 -4,0 -1,1 -3,0 -1,1 -3,0 -1,1 -4,0 -1,-1 -1,1Z"/>
<path onmouseover="hoverPath(evt)" onmouseout="recoverPath(evt)" fill="rgb(176,200,236)" d="M  74,100l -1,0 -1,1 -2,0 0,4 1,1 0,6 1,1 0,3 1,1 0,2 1,1 0,3 1,1 0,3 1,1 0,4 -1,-9 0,-1 -1,-3 0,-3 1,-1 9,0 1,-1 1,0 0,-2 -1,-1 0,-5 -1,-1 0,-4 -1,-1 0,-2 -5,0 -1,1 -2,0 -1,1Z"/>
<path onmouseover="hoverPath(evt)" onmouseout="recoverPath(evt)" fill="rgb(171,198,238)" d="M  116,64l 0,3 1,1 0,4 1,1 0,3 1,1 0,1 1,0 1,-1 4,0 1,-1 0,-1 -1,-1 0,-2 -1,-1 0,-2 -1,-1 0,-2 -1,-1 0,-2 -5,0 -1,1Z"/>
<path onmouseover="hoverPath(evt)" onmouseout="recoverPath(evt)" fill="rgb(244,243,236)" d="M  120,112l -1,0 0,1 1,1 0,2 1,1 0,2 1,1 0,1 1,1 1,1 0,1 1,1 1,1 0,1 1,1 0,6 2,0 1,-1 0,0 1,-1 3,0 1,-1 4,0 1,-1 4,0 1,-1 2,0 1,-1 3,0 1,-1 1,-1 1,0 1,-1 16,0 0,-2 -2,0 -1,-1 0,-43 -1,1 -3,0 -1,1 -4,0 -1,1 -4,0 -1,1 -4,0 -1,1 -4,0 -1,1 -5,0 -1,1 -4,0 -1,1 -4,0 -1,1 -4,0 -1,1 -4,0 0,6 -1,1 0,1 3,0 1,1 0,4 1,1 0,7 -1,1 -1,1Z"/>
<path onmouseover="hoverPath(evt)" onmouseout="recoverPath(evt)" fill="rgb(176,201,237)" d="M  168,4l 0,5 3,0 1,-1 2,0 1,-1 2,0 1,-1 2,0 1,-1 2,0 1,-1 2,0 1,-1 2,0 1,-1 2,0 1,-1 2,0 1,-1 -29,0 0,2 1,1Z"/>
<path onmouseover="hoverPath(evt)" onmouseout="recoverPath(evt)" fill="rgb(243,242,234)" d="M  169,11l -1,0 0,7 1,1 0,6 1,1 0,6 1,1 0,8 1,1 0,1 4,0 1,-1 2,0 1,-1 3,0 1,-1 1,0 0,-1 -1,-1 0,-1 -1,-1 0,-1 -1,-1 0,-1 -1,-1 0,-3 -1,-1 0,-3 1,-1 2,-2 1,0 1,-1 2,0 1,-1 1,0 1,-1 1,-1 0,-3 1,-1 1,-1 1,0 1,-1 6,0 1,-1 2,0 1,-1 3,0 1,-1 1,0 1,-1 3,0 1,1 2,0 1,1 1,1 0,1 1,1 8,0 0,-2 1,-1 2,0 1,1 0,1 1,1 0,2 1,1 0,3 1,1 0,1 1,1 0,3 1,1 0,5 -1,1 -4,0 -1,1 -3,0 -1,1 -3,0 -1,1 -2,0 0,1 4,0 1,1 1,1 0,3 2,0 -1,-1 0,-1 -1,-2 0,-2 1,-1 1,0 -60,-23 3,0 1,-1 2,0 1,-1 2,0 1,-1 2,0 1,-1 2,0 1,-1 2,0 1,-1 2,0 1,-1 2,0 1,-1 2,0 1,-1 1,0 1,-1 0,0 -29,10 -1,0 31,-11 54,0 1,1 0,18 -1,0 -54,-19 -31,11 70,22 1,1 0,1 1,1 0,1 1,1 2,0 0,-1 -1,-1 0,-5 1,-1 1,-1 0,-2 -1,-1 0,-3 1,-1 1,-1 2,0 1,-1 2,0 -12,13 -70,-22 77,18 -77,-18Z"/>
<path onmouseover="hoverPath(evt)" onmouseout="recoverPath(evt)" fill="rgb(242,241,231)" d="M  213,228l -6,0 -1,-1 -1,-1 0,-10 1,-1 4,0 1,-1 21,0 1,1 1,1 0,10 -1,1 -1,0 -1,1 -18,0 19,-16 -11,0 -1,-1 0,-5 -1,-1 0,-3 1,-1 -31,0 -1,1 -8,0 -1,1 0,3 1,1 0,23 1,1 0,3 28,0 1,-1 27,0 1,-1 17,0 0,-32 -22,0 1,1 0,10 -1,1 -1,0 -19,16Z"/>
<path onmouseover="hoverPath(evt)" onmouseout="recoverPath(evt)" fill="rgb(244,243,236)" d="M  0,113l 0,30 4,0 1,-1 3,0 1,-1 1,0 1,-1 0,-8 -1,-1 0,-9 -1,-1 0,-5 1,-1 2,0 2,2 0,6 1,1 0,13 1,1 0,3 5,0 1,1 1,-1 4,0 1,-1 2,0 1,-1 2,0 1,-1 3,0 1,-1 4,0 1,-1 5,0 1,-1 5,0 1,-1 6,0 1,-1 2,0 0,-5 -1,-1 0,-4 -1,-1 0,-4 -1,-1 0,-4 -1,-1 0,-4 -1,-1 0,-4 1,-1 3,0 1,1 0,1 1,1 0,4 1,1 0,4 1,1 0,4 1,1 0,4 1,1 0,5 1,1 0,1 1,1 0,-2 -1,-1 0,-4 -1,-2 0,-3 -1,-2 0,-2 -1,-3 0,-2 -1,-3 0,-3 -1,-2 0,-4 -1,-1 -1,-1 -1,1 -2,0 0,1 -1,1 -2,0 -1,1 -3,0 -1,1 -5,0 -1,1 -4,0 -1,1 -4,0 -1,1 -4,0 -1,1 -4,0 -1,1 -4,0 -1,1 -4,0 -1,1 -4,0 -1,1 -4,0 -1,1 -5,0 -1,1Z"/>
<path onmouseover="hoverPath(evt)" onmouseout="recoverPath(evt)" fill="rgb(239,239,231)" d="M  0,249l 0,6 74,0 0,-11 -3,0 -1,-1 -2,0 -1,1 -24,0 -1,1 -19,0 -1,1 -18,0 -1,1 -3,0Z"/>
<path onmouseover="hoverPath(evt)" onmouseout="recoverPath(evt)" fill="rgb(242,241,234)" d="M  2,73l -2,0 0,29 4,0 1,-1 3,0 0,-3 -1,-1 0,-5 1,-1 1,0 1,-1 3,0 1,-1 4,0 0,-1 -5,0 -1,-1 0,-2 1,-1 3,0 1,-1 0,-2 1,-1 4,0 1,1 6,0 1,1 0,2 -1,1 -3,0 -1,1 0,2 1,1 0,5 1,1 0,2 3,0 1,-1 4,0 1,-1 4,0 1,-1 4,0 1,-1 4,0 1,-1 5,0 1,1 -1,-2 0,-3 -1,-1 0,-5 -1,-1 0,-2 -5,0 -1,-1 0,-2 1,-1 3,0 1,-1 0,-3 -1,-1 0,-4 -1,-1 0,-6 -1,0 -1,1 -2,0 -1,1 -2,0 -1,1 -2,0 -1,1 -1,0 0,2 1,1 0,6 -1,1 -3,0 -1,1 -6,0 -1,-1 -1,-1 0,-2 -1,-1 0,-2 -1,-1 -1,0 -1,1 -2,0 -1,1 -2,0 -1,1 -2,0 -1,1 -2,0 -1,1 -2,0 -1,1 -5,0 -1,1Z"/>
<path onmouseover="hoverPath(evt)" onmouseout="recoverPath(evt)" fill="rgb(183,205,236)" d="M  20,89l 0,1 -1,1 -4,0 -1,1 -3,0 -1,1 -1,0 0,3 1,1 0,4 1,1 1,0 1,-1 4,0 1,-1 4,0 1,-1 2,0 0,-3 -1,-1 0,-5 -1,-1 0,-4 1,-1 1,-1 -3,0 -1,-1 -2,0 0,2 -1,1 -1,1 2,0 1,1Z"/>
<path onmouseover="hoverPath(evt)" onmouseout="recoverPath(evt)" fill="rgb(243,242,234)" d="M  35,164l -1,0 0,4 1,1 0,11 1,1 0,12 1,1 0,11 1,1 0,13 1,1 0,13 1,1 0,5 23,0 1,-1 6,0 0,-6 -1,-1 0,-32 -1,-1 0,-40 -4,0 -1,-1 -4,0 -1,1 -5,0 0,2 -1,1 -6,0 -1,-1 -4,0 0,2 -1,1 -4,0 -1,1Z"/>
<path onmouseover="hoverPath(evt)" onmouseout="recoverPath(evt)" fill="rgb(243,242,235)" d="M  66,72l -1,0 0,2 -1,1 0,3 1,1 0,4 1,1 0,2 1,0 1,1 1,1 1,1 0,1 1,0 0,-1 1,-1 4,0 1,-1 4,0 1,-1 4,0 1,-1 4,0 1,-1 4,0 1,-1 4,0 1,-1 4,0 1,-1 5,0 1,1 0,-1 1,-1 2,0 1,-1 0,-1 -1,-1 0,-3 -1,-1 0,-4 -1,-1 0,-5 1,-1 1,-1 7,0 1,1 0,2 1,1 0,2 1,1 0,2 1,1 0,2 1,1 0,2 1,1 2,0 1,-1 4,0 1,-1 4,0 1,-1 4,0 1,-1 4,0 1,-1 4,0 1,-1 4,0 1,-1 4,0 1,-1 2,0 0,-4 -1,-1 0,-8 -1,-1 0,-9 -1,-1 0,-9 -1,-1 0,-7 -1,-1 0,-5 -1,-1 0,-7 -2,0 -1,1 -2,0 -1,1 -1,0 -2,2 -2,0 -1,1 -1,0 -1,1 -2,0 0,2 1,1 0,2 1,1 0,2 1,1 0,3 -1,1 -1,1 -1,0 -1,1 -4,0 -1,-1 0,-2 -1,-1 0,-2 -1,-1 0,-2 -1,-1 0,-1 -2,0 -1,1 -2,0 -1,1 -2,0 -1,1 -1,0 -1,1 -1,0 -1,1 -2,0 -1,1 -1,0 -1,1 -1,0 -1,1 -1,0 -1,1 -1,0 -1,1 -2,0 -1,1 -1,0 -1,1 -1,0 -1,1 -2,0 -1,1 -1,0 -1,1 -2,0 -1,1 -1,0 -1,1 -2,0 -1,1 -1,0 1,1 1,0 1,1 1,1 0,5 1,1 0,2 1,1 0,2 1,1 0,1 1,1 0,3 -1,1 -1,1 -3,0 -1,1 -4,0 -1,1 -5,0 -1,-1 0,-2 -1,-1 0,-3 -1,-1 0,-3 -1,-1 0,-7 -1,0 -1,1 -2,0 -1,1 -1,0 -1,1 -1,0 -1,1 -2,0 0,2 1,1 0,16 -1,1 -1,1Z"/>
<path onmouseover="hoverPath(evt)" onmouseout="recoverPath(evt)" fill="rgb(176,199,229)" d="M  70,177l 0,20 1,1 0,32 1,1 0,7 1,-1 1,0 0,-5 -1,-1 0,-33 -1,-1 0,-32 -1,-1 0,-6 -1,0Z"/>
<path onmouseover="hoverPath(evt)" onmouseout="recoverPath(evt)" fill="rgb(236,238,234)" d="M  91,209l 0,21 1,1 14,0 1,-1 0,-21 -1,0 -1,-1 -1,1Z"/>
<path onmouseover="hoverPath(evt)" onmouseout="recoverPath(evt)" fill="rgb(235,237,230)" d="M  94,245l 0,10 47,0 0,-12 -4,0 -1,-1 0,-1 -5,0 -1,1 -31,0 0,2 -1,1Z"/>
<path onmouseover="hoverPath(evt)" onmouseout="recoverPath(evt)" fill="rgb(244,242,235)" d="M  100,17l 0,2 1,1 6,0 1,1 0,2 2,0 1,-1 2,0 1,-1 2,0 1,-1 1,0 1,-1 2,0 1,-1 1,0 1,-1 2,0 1,-1 2,0 1,-1 1,0 1,-1 2,0 1,-1 2,0 1,-1 1,0 1,-1 2,0 1,-1 2,0 1,-1 1,0 1,-1 2,0 1,-1 2,0 1,-1 1,0 1,-1 2,0 1,-1 2,0 0,-1 -1,-1 0,-2 -51,0 0,3 -1,1 0,3 1,1 0,3 -1,1 -1,1 -3,0 -1,-1 0,-2 1,-1 0,-3 -1,-1 0,-1 -1,1 -1,0 -1,1 -3,0 -1,1 0,5 1,-1 4,0 1,1 0,2 -1,1 -1,0 0,2 8,7 -1,0 -1,1 -1,0 3,-1 -8,-7Z"/>
<path onmouseover="hoverPath(evt)" onmouseout="recoverPath(evt)" fill="rgb(235,237,233)" d="M  118,165l 0,13 1,1 22,0 0,-15 -11,0 -1,-1 0,-1 -3,0 0,2 -1,1Z"/>
<path onmouseover="hoverPath(evt)" onmouseout="recoverPath(evt)" fill="rgb(253,253,253)" d="M  173,45l -2,0 -1,-1 0,-1 -1,-1 0,-8 -1,-1 0,-6 -1,-1 0,-6 -1,-1 0,-15 -1,-1 0,-3 -3,0 0,1 1,1 0,4 1,1 0,5 1,1 0,7 1,1 0,5 1,1 0,7 1,1 0,9 1,1 0,9 1,1 0,8 1,1 0,5 1,0 0,-6 -1,-1 0,-8 -1,-1 0,-5 1,-1 2,-2Z"/>
<path onmouseover="hoverPath(evt)" onmouseout="recoverPath(evt)" fill="rgb(172,199,238)" d="M  177,129l 0,3 1,0 1,-1 13,0 1,-1 6,0 1,-1 4,0 1,-1 4,0 1,-1 3,0 1,-1 3,0 1,-1 7,0 1,-1 10,0 1,-1 18,0 0,-2 -9,0 -1,-1 -1,-1 0,-6 -1,-1 0,-2 -1,-1 0,-2 -1,-1 0,-2 -1,-1 0,-1 -1,-1 0,-1 -1,-1 -1,-1 -1,-1 -1,-1 -1,-1 0,-1 -1,-1 -1,-1 -1,-1 -1,-1 -1,-1 -1,-1 -1,-1 -1,0 -1,-1 -1,-1 -1,-1 -1,0 -1,-1 -1,-1 -1,-1 -1,-1 -2,-2 -1,-1 -6,0 0,1 -1,1 -3,0 -1,1 -2,0 -1,1 -2,0 -1,1 -1,0 0,2 1,1 0,2 1,1 0,1 1,1 0,1 6,0 1,1 0,2 -1,1 -4,0 -1,1 -1,0 0,1 1,1 0,1 1,1 0,1 1,1 0,1 1,1 4,0 1,-1 3,0 1,-1 3,0 1,-1 2,0 1,-1 3,0 1,-1 1,0 0,-1 -1,-1 0,0 -1,-1 -1,-1 -1,-1 0,-2 1,-1 2,0 1,1 1,1 1,1 1,1 1,1 1,0 1,1 1,1 1,1 1,1 0,1 1,1 0,1 1,1 0,1 1,1 0,1 1,1 0,2 1,1 0,1 1,1 1,1 0,3 -1,1 -2,0 -1,-1 0,-1 -1,0 -1,1 -2,0 -1,1 0,3 -1,1 -10,0 -1,1 -4,0 -1,1 -3,0 -1,1 -2,0 -1,1 -3,0 -1,1 -4,0 -1,1 -21,0 -1,1Z"/>
<path onmouseover="hoverPath(evt)" onmouseout="recoverPath(evt)" fill="rgb(171,198,238)" d="M  183,25l 0,0 -1,1 0,1 1,1 0,3 1,1 0,1 1,1 0,1 1,1 0,1 1,1 0,1 1,0 1,-1 4,0 1,-1 2,0 1,-1 3,0 1,-1 3,0 1,-1 3,0 1,-1 3,0 1,-1 3,0 1,-1 2,0 1,-1 3,0 1,-1 3,0 1,-1 3,0 1,-1 0,-1 -1,-1 0,-2 -1,-1 0,-1 -1,-1 0,-2 -1,-1 0,-2 -9,0 -1,-1 -1,-1 0,-1 -1,-1 -2,0 -1,-1 -1,0 -1,1 -1,0 -1,1 -3,0 -1,1 -2,0 -1,1 -6,0 -1,1 -1,0 -1,1 0,3 -1,1 -1,1 -1,1 -1,0 -1,1 -2,0 -1,1 -1,0 -1,1Z"/>
<path onmouseover="hoverPath(evt)" onmouseout="recoverPath(evt)" fill="rgb(236,238,234)" d="M  207,217l 0,8 1,1 22,0 1,-1 1,0 0,-8 -1,-1 -19,0 -1,1Z"/>
<path onmouseover="hoverPath(evt)" onmouseout="recoverPath(evt)" fill="rgb(172,198,236)" d="M  54,66l 0,3 1,1 0,3 1,0 0,-7 -1,-1 -1,1 -1,-2 0,-2 1,-1 0,-5 1,-1 0,-4 -1,-1 -1,1 -1,0 -1,1 -2,0 -1,1 -2,0 -1,1 -4,0 -1,1 -2,0 -1,1 -2,0 -1,1 -2,0 -1,1 -2,0 -1,1 -2,0 -1,1 -1,0 -1,1 -2,0 -1,1 -2,0 -1,1 -2,0 -1,1 -2,0 -1,1 -3,0 -1,1 -7,0 0,5 1,0 1,-1 5,0 1,-1 2,0 1,-1 2,0 1,-1 2,0 1,-1 2,0 1,-1 2,0 1,-1 3,0 2,2 0,2 1,1 0,2 1,1 4,0 1,-1 3,0 0,-4 -1,-1 0,-4 1,-1 1,0 1,-1 2,0 1,-1 2,0 1,-1 2,0 1,-1 3,0 1,1 0,6 1,2 1,-4 -1,4Z"/>
<path onmouseover="hoverPath(evt)" onmouseout="recoverPath(evt)" fill="rgb(235,237,233)" d="M  57,29l -1,0 -1,1 1,1 0,3 1,1 0,3 1,1 0,3 1,1 0,2 2,0 1,-1 2,0 1,-1 1,0 1,-1 2,0 1,-1 1,0 1,-1 1,0 1,-1 2,0 1,-1 1,-1 1,0 1,-1 1,0 1,-1 1,0 1,-1 1,0 2,-2 1,0 1,-1 1,0 1,-1 1,0 1,-1 1,0 1,-1 2,0 1,-1 1,0 1,-1 3,0 0,-2 1,-1 1,0 1,-1 -6,0 -1,-1 -1,-1 0,-4 -1,1 -2,0 -1,1 -7,0 0,2 -1,1 -2,0 -1,-1 -1,0 -1,1 -2,0 -1,1 -3,0 -1,1 -3,0 0,2 -1,1 -2,0 -1,1 -2,0 -1,1 -2,0 -1,-1 -1,0 -1,1 -1,0 -1,1Z"/>
<path onmouseover="hoverPath(evt)" onmouseout="recoverPath(evt)" fill="rgb(244,243,236)" d="M  76,118l 0,2 1,1 0,5 1,1 0,5 2,0 1,-1 2,0 0,-1 1,-1 5,0 1,-1 8,0 1,-1 9,0 1,-1 5,0 1,-1 0,-2 -1,-1 0,-4 -1,-1 0,-4 -1,-1 0,-13 -1,-1 0,-6 -1,-1 -2,0 -1,1 -4,0 -1,1 -4,0 -1,1 -4,0 -1,1 -4,0 -1,1 -5,0 -1,-1 0,1 4,1 0,2 1,1 0,4 1,1 0,5 1,1 0,4 -1,1 -1,0 -1,1 -8,0 -1,1Z"/>
<path onmouseover="hoverPath(evt)" onmouseout="recoverPath(evt)" fill="rgb(243,242,233)" d="M  78,137l -2,0 0,5 1,1 0,15 1,1 15,0 1,-1 25,0 1,-1 26,0 1,-1 23,0 1,-1 1,0 0,-15 -1,-1 0,-5 -1,1 -3,0 -1,1 -9,0 -1,-1 -1,-1 -1,-1 -3,0 -1,1 -4,0 -1,1 -4,0 -1,1 -4,0 -1,1 -4,0 -1,1 -3,0 -1,1 -1,0 -1,1 -5,0 -1,-1 -1,-1 0,-4 -1,-1 0,-1 -3,0 -1,-1 -1,1 -10,0 -1,1 -5,0 -1,1 -3,0 -1,1 -3,0 -1,1 -3,0 -1,1Z"/>
<path onmouseover="hoverPath(evt)" onmouseout="recoverPath(evt)" fill="rgb(243,242,233)" d="M  78,165l -1,1 0,5 1,1 0,33 1,1 0,30 1,1 0,1 11,0 1,-1 32,0 1,-1 26,0 1,-1 21,0 1,-1 1,0 0,-23 -1,-1 0,-27 -1,-1 0,-19 -1,-1 0,-1 -21,0 -1,1 -19,0 12,1 0,17 -1,1 -24,0 -1,-1 -1,-1 0,-15 1,-1 -19,0 -1,1 -18,0 -1,1 29,68 -16,0 -1,-1 -1,-1 0,-23 1,-1 13,0 1,-1 2,0 1,1 1,0 1,1 0,23 -1,1 -1,1 -29,-68Z"/>
<path onmouseover="hoverPath(evt)" onmouseout="recoverPath(evt)" fill="rgb(240,239,226)" d="M  80,250l 0,5 12,0 0,-11 1,-1 -13,0Z"/>
<path onmouseover="hoverPath(evt)" onmouseout="recoverPath(evt)" fill="rgb(243,242,234)" d="M  172,50l 0,2 1,1 0,8 1,1 0,5 4,0 1,-1 5,0 1,-1 5,0 1,-1 5,0 1,-1 6,0 1,-1 5,0 1,-1 5,0 1,-1 5,0 1,-1 5,0 1,-1 6,0 1,-1 5,0 1,-1 6,0 1,-1 7,0 0,-1 -5,0 -3,1 -4,0 -3,1 -3,0 -1,-1 -1,0 -1,-1 0,-1 -1,-1 0,-2 -1,-1 0,-2 -1,-1 0,-1 -1,-1 0,-1 -2,0 0,1 1,1 0,4 -1,1 -1,1 -2,0 -1,1 -5,0 -1,-1 0,2 -1,1 -1,0 -1,1 -2,0 -1,1 -2,0 -1,1 -2,0 0,1 -1,1 -1,0 -1,1 -3,0 -1,1 -9,0 -1,-1 0,-1 -1,-1 0,-1 -1,-1 0,-1 -1,-1 0,-1 -1,-1 0,-1 -1,-1 0,-1 -1,-1 0,-2 1,-1 1,0 1,-1 -3,0 -1,-1 -2,0 -1,1 -2,0 0,2 -1,1 -3,0 -1,1 -1,1Z"/>
<path onmouseover="hoverPath(evt)" onmouseout="recoverPath(evt)" fill="rgb(243,242,234)" d="M  179,134l -3,0 0,2 1,1 0,16 1,1 0,1 21,0 1,-1 55,0 0,-29 -17,0 -1,1 -10,0 -1,1 -7,0 -1,1 -3,0 -1,1 -3,0 -1,1 -4,0 -1,1 -4,0 -1,1 -6,0 -1,1 -13,0 -1,1Z"/>
<path onmouseover="hoverPath(evt)" onmouseout="recoverPath(evt)" fill="rgb(243,242,232)" d="M  181,242l 0,7 1,1 0,5 73,0 0,-18 -12,0 -1,1 -27,0 -1,1 -31,0 -1,1 -1,0Z"/>
<path onmouseover="hoverPath(evt)" onmouseout="recoverPath(evt)" fill="rgb(174,200,238)" d="M  255,29l 0,-8 -2,0 -1,1 -2,0 -1,1 -2,0 -1,1 0,1 1,1 0,1 2,0 1,1 0,2 -1,1 -3,0 -1,1 0,3 1,1 0,3 -1,1 -4,0 -1,-1 -1,-1 0,-1 -1,-1 0,-1 -1,-1 -1,0 -1,1 -4,0 -1,1 -1,0 0,1 1,1 0,1 1,1 0,1 1,1 0,1 1,1 0,1 1,1 0,2 1,1 0,2 1,1 0,1 1,0 1,1 3,0 1,-1 6,0 1,-1 6,0Z"/>
<path onmouseover="hoverPath(evt)" onmouseout="recoverPath(evt)" fill="rgb(242,240,230)" d="M  0,47l 0,14 7,0 1,-1 3,0 1,-1 2,0 1,-1 2,0 1,-1 1,0 1,-1 1,0 1,-1 3,0 1,-1 1,0 1,-1 3,0 1,-1 1,0 1,-1 2,0 1,-1 3,0 1,-1 4,0 1,-1 1,0 1,-1 2,0 1,-1 1,0 0,-1 1,-1 0,-3 -1,-1 0,-2 -1,-1 0,-3 -1,-1 0,-2 -1,0 -1,1 -2,0 -1,1 -2,0 0,2 -1,1 -2,0 -1,-1 -2,0 -1,1 -1,0 -1,1 -2,0 -1,1 -2,0 0,2 -1,1 -2,0 -1,-1 -1,0 0,2 -1,1 -2,0 -1,1 -2,0 -1,-1 -1,0 -1,1 -2,0 -1,1 -2,0 -1,1 -3,0 -1,-1 0,-2 -2,-2 0,3 -1,1 -2,0Z"/>
<path onmouseover="hoverPath(evt)" onmouseout="recoverPath(evt)" fill="rgb(242,232,141)" d="M  0,107l 0,3 5,0 1,-1 4,0 1,-1 4,0 1,-1 4,0 1,-1 4,0 1,-1 4,0 1,-1 4,0 1,-1 4,0 1,-1 4,0 1,-1 5,0 1,-1 3,0 1,-1 2,0 0,-1 1,-1 2,0 1,-1 2,0 1,1 1,1 2,0 1,1 2,0 1,-1 1,0 1,-1 2,0 1,-1 2,0 0,-2 1,-1 2,0 1,1 3,0 1,-1 4,0 1,-1 4,0 1,-1 4,0 1,-1 4,0 1,-1 4,0 1,1 1,0 1,-1 2,0 0,-1 1,-1 4,0 1,-1 4,0 1,-1 4,0 1,-1 4,0 1,-1 5,0 1,-1 4,0 1,-1 4,0 1,-1 4,0 1,-1 4,0 1,-1 3,0 1,-1 2,0 1,1 0,-2 1,-1 3,0 1,1 0,40 1,-40 5,0 1,-1 5,0 1,-1 6,0 1,-1 5,0 1,-1 5,0 1,-1 5,0 1,-1 6,0 1,-1 5,0 1,-1 5,0 1,-1 6,0 1,-1 5,0 1,-1 10,0 0,-8 -6,0 -1,1 -6,0 -1,1 -5,0 -1,1 -6,0 -1,1 -5,0 -1,1 -5,0 -1,1 -5,0 -1,1 -5,0 -1,1 -6,0 -1,1 -5,0 -1,1 -5,0 -1,1 -5,0 -1,1 -5,0 0,1 -1,1 -5,0 -1,1 -4,0 -1,1 -4,0 -1,1 -4,0 -1,1 -4,0 -1,1 -4,0 -1,1 -4,0 -1,1 -4,0 -1,1 -4,0 -1,-1 -1,1 -4,0 -1,1 -2,0 -1,1 -1,1 -2,0 0,1 -1,1 -2,0 -1,-1 -3,0 -1,1 -4,0 -1,1 -4,0 -1,1 -4,0 -1,1 -4,0 -1,1 -4,0 -1,1 -4,0 -1,1 -4,0 0,1 -1,1 -8,0 -1,-1 -1,-1 0,3 -1,1 -2,0 -1,1 -2,0 -1,-1 -3,0 -1,1 -4,0 -1,1 -4,0 -1,1 -4,0 -1,1 -4,0 -1,1 -4,0 0,1 -1,1 -2,0 -1,1 -4,0 -1,1 -4,0 -1,1 -3,0 -1,-1 -3,0 -1,1 -5,0Z"/>
<path onmouseover="hoverPath(evt)" onmouseout="recoverPath(evt)" fill="rgb(241,241,234)" d="M  0,155l 0,12 4,0 1,-1 5,0 1,-1 5,0 1,-1 4,0 0,-2 1,-1 5,0 1,-1 1,0 1,-1 9,0 1,-1 6,0 1,1 4,0 0,-2 1,-1 5,0 1,-1 5,0 1,-1 3,0 0,-15 -1,-1 -1,0 -1,1 -5,0 -1,1 -5,0 -1,1 -4,0 -1,1 -3,0 -1,1 -3,0 0,6 -1,1 -4,0 -1,1 -6,0 -1,1 -5,0 -1,1 -6,0 -1,-1 -1,-1 0,-3 -1,1 -9,0 -1,1 -2,0Z"/>
<path onmouseover="hoverPath(evt)" onmouseout="recoverPath(evt)" fill="rgb(243,242,234)" d="M  0,171l 0,70 18,0 1,-1 13,0 1,-1 1,0 1,-1 -1,-1 0,-14 -1,-1 0,-13 -1,-1 0,-11 -1,-1 0,-12 -1,-1 0,-11 -1,-1 0,-6 -6,0 -1,1 -4,0 -1,1 -5,0 -1,1 -5,0 -1,1 -5,0Z"/>
<path onmouseover="hoverPath(evt)" onmouseout="recoverPath(evt)" fill="rgb(236,233,217)" d="M  6,4l 1,0 0,-1 1,-1 10,0 1,1 0,2 -1,1 -3,0 -1,1 -1,0 1,1 0,1 2,0 1,-1 4,0 1,-1 2,0 1,-1 1,0 0,-2 -1,0 -1,-1 0,-3 -24,0 0,8 2,0 1,-1 2,0 0,-2 1,-1Z"/>
<path onmouseover="hoverPath(evt)" onmouseout="recoverPath(evt)" fill="rgb(241,242,238)" d="M  58,74l 0,0 -1,1 -2,0 -1,1 -1,1 2,0 1,1 0,2 1,1 0,5 1,1 0,4 1,1 1,0 0,-3 1,-1 2,0 1,1 1,1 3,0 -1,-1 0,0 -1,-1 -1,0 -1,-1 0,-2 -1,-1 0,-4 -1,-1 0,-5 1,-1 0,-7 -1,-1 0,-3 -1,-1 0,-3 -1,-1 0,-3 -1,-1 0,-3 -1,-1 0,-2 -1,-1 0,-2 -1,-1 0,-3 -1,-1 0,-3 -1,-1 0,-3 -1,-1 0,-2 1,-1 1,-1 1,0 1,-1 1,0 1,-1 3,0 1,1 1,-1 2,0 1,-1 2,0 0,-2 1,-1 3,0 1,-1 3,0 1,-1 2,0 1,-1 3,0 1,1 0,-2 1,-1 7,0 1,-1 2,0 1,-1 1,0 1,-1 -1,0 -2,1 -1,0 -1,-1 0,-7 1,-1 1,-1 3,0 1,-1 1,0 1,-1 2,0 1,1 0,1 1,1 0,5 1,0 0,-1 -1,2 -1,0 1,-7 0,-1 1,-1 0,-2 -81,0 0,2 1,0 1,1 0,4 -1,1 -1,0 -1,1 -2,0 -1,1 -4,0 -1,1 -4,0 -1,-1 0,-1 -1,-1 0,-2 1,-1 1,0 1,-1 -5,0 0,1 -1,1 -1,0 0,2 -1,1 -2,0 -1,1 -3,0 0,33 1,0 0,-3 1,-1 2,0 3,3 0,2 1,0 1,-1 2,0 1,-1 2,0 1,-1 3,0 1,1 1,-1 2,0 0,-2 1,-1 3,0 1,1 0,-2 1,-1 2,0 1,-1 2,0 1,-1 1,0 1,-1 4,0 1,1 0,-2 1,-1 2,0 1,-1 2,0 1,-1 3,0 1,1 0,2 1,1 0,3 1,1 0,2 1,1 0,5 -1,1 0,1 -1,1 -1,0 -1,1 -2,0 -1,1 -1,0 -1,1 -4,0 -1,1 -3,0 -1,1 -2,0 -1,1 -1,0 -1,1 -3,0 -1,1 -1,0 -1,1 -3,0 -1,1 -1,0 -1,1 -1,0 -1,1 -2,0 -1,1 -2,0 -1,1 -3,0 -1,1 -8,0 0,1 6,0 3,-1 1,0 3,-1 3,-1 3,-1 2,-1 1,0 1,-1 1,0 3,-1 2,-1 1,0 3,-1 2,-1 1,0 2,-1 1,0 3,-1 2,0 3,-1 2,-1 1,0 2,-1 2,-1 1,0 1,1 1,1 0,3 1,1 0,2 -1,1 -1,0 0,3 1,1 0,3 1,1Z"/>
<path onmouseover="hoverPath(evt)" onmouseout="recoverPath(evt)" fill="rgb(171,198,238)" d="M  62,47l -2,0 0,1 1,1 0,3 1,1 0,3 1,1 0,3 1,1 0,3 1,1 0,5 3,0 1,-1 0,-14 -1,-1 0,-4 1,-1 2,0 1,-1 1,0 1,-1 1,0 1,-1 2,0 1,-1 3,0 1,1 0,7 1,1 0,3 1,1 0,3 1,1 0,2 3,0 1,-1 4,0 1,-1 3,0 1,-1 0,-1 -1,-1 0,-1 -1,-1 0,-2 -1,-1 0,-2 -1,-1 0,-5 -1,-1 -1,0 -1,-1 -1,-1 0,-2 1,-1 1,0 1,-1 2,0 1,-1 1,0 1,-1 2,0 1,-1 1,0 1,-1 2,0 1,-1 1,0 1,-1 1,0 1,-1 2,0 1,-1 1,0 1,-1 1,0 1,-1 1,0 1,-1 1,0 1,-1 2,0 1,-1 1,0 1,-1 1,0 1,-1 2,0 1,-1 2,0 1,-1 4,0 1,1 0,1 1,1 0,2 1,1 0,2 1,1 0,2 2,0 1,-1 1,0 1,-1 0,-1 -1,-1 0,-2 -1,-1 0,-2 -1,-1 0,-4 1,-1 2,0 1,-1 1,0 1,-1 2,0 1,-1 1,-1 1,0 1,-1 2,0 1,-1 2,0 0,-4 -1,-1 0,-1 -1,0 -1,1 -2,0 -1,1 -1,0 -1,1 -2,0 -1,1 -2,0 -1,1 -1,0 -1,1 -2,0 -1,1 -2,0 -1,1 -1,0 -1,1 -2,0 -1,1 -2,0 -1,1 -1,0 -1,1 -2,0 -1,1 -2,0 -1,1 -1,0 -1,1 -2,0 -1,1 -1,0 -1,1 -2,0 -1,1 -2,0 -1,1 -1,0 -1,1 -1,0 -1,1 -2,0 -1,1 -3,0 -1,1 -1,0 -1,1 -2,0 -1,1 -1,0 -1,1 -1,0 -1,1 -1,0 -1,1 -1,0 -1,1 -1,1 -1,0 -1,1 -1,0 -1,1 -1,0 -1,1 -1,0 -1,1 -1,1 -2,0 -1,1 -1,0 -1,1 -1,0 -1,1 -2,0 -1,1 -1,0 -1,1 -2,0 -1,1Z"/>
<path onmouseover="hoverPath(evt)" onmouseout="recoverPath(evt)" fill="rgb(173,198,236)" d="M  65,119l 0,-3 -1,-1 0,-4 -1,-1 0,-4 -1,-1 0,-1 -1,0 0,2 1,1 0,4 1,1 0,4 1,1 0,1 1,1 1,2 -1,1 0,4 1,1 0,7 -1,1 -2,0 -1,1 -6,0 -1,1 -5,0 -1,1 -5,0 -1,1 -4,0 -1,1 -3,0 -1,1 -2,0 -1,1 -2,0 -1,1 -4,0 -1,1 -2,0 -1,-1 -5,0 -1,-1 0,-3 -1,-1 0,-13 -1,-1 0,-6 -1,-1 0,3 1,5 0,5 1,9 0,2 -1,1 -1,1 -1,0 -1,1 -3,0 -1,1 -5,0 0,3 1,0 1,-1 9,0 1,-1 1,0 1,-1 3,0 1,1 2,0 1,-1 3,0 1,-1 3,0 1,-1 4,0 1,-1 4,0 1,-1 3,0 1,-1 3,0 1,-1 4,0 1,-1 5,0 1,-1 5,0 1,-1 3,0 1,1 1,1 0,15 1,0 1,-1 0,-15 -1,-1 0,-1 -1,-1 -1,-1 0,-1 -1,-1 0,-5 -1,-1 0,-4 -1,-2Z"/>
<path onmouseover="hoverPath(evt)" onmouseout="recoverPath(evt)" fill="rgb(171,198,238)" d="M  119,103l 0,-4 -3,0 -1,-1 0,-3 1,-1 0,-3 -1,0 -1,1 -1,0 0,5 1,1 0,13 1,1 0,4 1,1 0,4 1,1 0,4 -1,1 -1,1 -5,0 -1,1 -9,0 -1,1 -8,0 -1,1 -5,0 0,1 -1,1 -2,0 -1,1 -4,0 0,1 4,0 1,-1 3,0 1,-1 3,0 1,-1 3,0 1,-1 5,0 1,-1 10,0 1,-1 2,0 1,1 3,0 1,1 0,1 1,1 0,4 1,1 3,0 1,-1 1,0 1,-1 3,0 -4,-1 0,-6 -1,-1 0,-1 -1,-1 -1,-1 0,-1 -1,-1 -1,-1 0,-1 -1,-1 0,-2 -1,-1 0,-2 -1,-1 0,-3 1,-1 1,0 1,-1 0,-5 -1,-1Z"/>
<path onmouseover="hoverPath(evt)" onmouseout="recoverPath(evt)" fill="rgb(171,198,238)" d="M  148,131l -2,0 -1,1 -4,0 -1,1 -4,0 -1,1 -3,0 -1,1 3,0 2,-1 3,0 2,-1 3,0 2,-1 1,0 1,-1 7,0 1,1 1,1 1,1 7,0 1,-1 3,0 1,-1 0,-5 -14,0 -1,1 -1,0 -1,1 -1,2Z"/>
<path onmouseover="hoverPath(evt)" onmouseout="recoverPath(evt)" fill="rgb(242,241,230)" d="M  176,243l 0,-1 -1,-1 0,-1 -18,0 -1,1 -18,0 5,1 0,13 34,0 0,-1 -1,-1Z"/>
<path onmouseover="hoverPath(evt)" onmouseout="recoverPath(evt)" fill="rgb(244,243,236)" d="M  177,79l 0,38 -1,1 -1,0 0,1 1,1 0,6 22,0 1,-1 4,0 1,-1 3,0 1,-1 2,0 1,-1 3,0 1,-1 4,0 1,-1 10,0 0,-3 1,-1 1,-1 2,0 1,-1 3,0 -1,-1 0,-1 -1,-1 0,-2 -1,-1 0,-1 -1,-1 0,-1 -1,-1 0,-1 -1,-1 0,-1 -1,-1 -1,-1 -1,-1 -1,0 -1,-1 -1,-1 -1,-1 -1,-1 -1,-1 4,5 0,2 -1,1 -1,0 -1,1 -3,0 -1,1 -2,0 -1,1 -3,0 -1,1 -3,0 -1,1 -6,0 -1,-1 -1,-1 0,-1 -1,-1 0,-1 -1,-1 0,-1 -1,-1 0,-3 1,-1 1,0 1,-1 -2,0 -1,-1 0,-1 -1,-1 0,-1 -1,-1 0,-2 -1,-1 0,-4 1,-1 1,0 1,-1 2,0 1,-1 2,0 1,-1 3,0 0,-1 1,-1 8,0 1,1 1,1 1,1 1,1 1,1 1,1 1,1 1,0 1,1 1,1 1,1 1,0 1,1 1,1 1,1 1,1 1,1 1,1 1,1 1,1 0,1 1,1 1,1 1,1 1,1 1,1 0,1 1,1 0,1 1,1 0,2 1,1 0,2 1,1 0,2 1,1 0,6 1,1 8,0 0,-52 -9,0 -1,1 -5,0 -1,1 -6,0 -1,1 -5,0 -1,1 -5,0 -1,1 -6,0 -1,1 -5,0 -1,1 -5,0 -1,1 -5,0 -1,1 -6,0 -1,1 -5,0 -1,1 -4,0 -1,1Z"/>
<path onmouseover="hoverPath(evt)" onmouseout="recoverPath(evt)" fill="rgb(189,209,239)" d="M  198,38l -1,1 -2,0 -1,1 -4,0 -1,1 -2,0 -1,1 2,0 1,1 0,2 -1,1 -1,1 -1,0 1,1 0,1 1,1 0,1 1,1 0,1 1,1 0,1 1,1 0,1 1,1 0,1 7,0 1,-1 3,0 1,-1 1,0 0,-1 1,-1 2,0 1,-1 2,0 1,-1 2,0 1,-1 1,0 0,-2 1,-1 2,0 1,1 3,0 1,-1 2,0 1,-1 0,-2 -1,-1 0,-2 -1,-1 0,-3 -1,-1 -4,0 -1,-1 0,-3 1,-1 2,0 1,-1 3,0 1,-1 3,0 1,-1 4,0 0,-3 -1,-1 0,-3 -1,-1 0,-1 -1,-1 0,-3 -1,-1 0,-2 -1,-1 0,3 1,1 0,2 1,2 1,2 0,1 1,3 0,1 -1,1 -3,1 -1,0 -3,1 -1,0 -3,1 -1,0 -2,1 -1,0 -1,1 -3,0 -1,1 -3,0 -1,1 -3,0 -1,1 -3,0 -1,1Z"/>
<path onmouseover="hoverPath(evt)" onmouseout="recoverPath(evt)" fill="rgb(241,241,232)" d="M  219,196l 0,0 1,-1 35,0 0,-36 -45,0 -1,1 -29,0 -1,1 -1,0 0,16 1,1 0,16 1,1 0,1 1,1 2,0 1,-1Z"/>
<path onmouseover="hoverPath(evt)" onmouseout="recoverPath(evt)" fill="rgb(235,236,230)" d="M  222,203l -1,0 0,1 1,1 0,5 10,0 0,-8 -1,-1 0,-1 -4,0 0,2 -1,1Z"/>
</svg>