<svg width="256" height="256" xmlns="http://www.w3.org/2000/svg"><script> 
var tempColor;
function hoverPath(evt){
obj = evt.target;
tempColor = obj.getAttribute("fill");
obj.setAttribute("fill","red");
//alert(tempColor);
//obj.setAttribute("stroke","red");}
function recoverPath(evt){
obj = evt.target;
obj.setAttribute("fill", tempColor);
//obj.setAttribute("stroke", tempColor);
}</script><path onmouseover="hoverPath(evt)" onmouseout="recoverPath(evt)" fill="rgb(239,240,237)" d="M  95,176l -1,0 -1,-1 -1,-1 0,-1 -1,-1 0,-1 -1,-1 1,3 0,1 -1,1 -1,0 2,1 0,3 -1,1 -1,0 -1,1 -1,0 -1,1 -1,0 -1,1 -1,1 -1,0 -1,1 -1,0 -1,1 -1,0 -1,1 -1,0 -1,1 -1,0 -1,1 -1,0 0,2 1,-1 2,0 1,-1 2,0 1,-1 2,0 1,-1 4,0 1,-1 2,0 1,-1 1,-1 1,0 0,-3 -1,-1 0,0 4,-4 -3,1 2,0 -3,-2 8,0 1,1 0,0 1,1 0,1 1,1 -2,-4 0,0 -8,2 3,-1Z"/>
<path onmouseover="hoverPath(evt)" onmouseout="recoverPath(evt)" fill="rgb(244,243,236)" d="M  130,160l -1,0 -1,1 -2,0 3,1 0,0 1,1 0,1 1,1 1,1 0,1 1,1 0,1 1,1 1,1 0,3 -1,1 -1,1 -2,0 4,-1 1,0 1,-1 2,0 0,-2 1,-1 1,-1 2,0 1,-1 1,0 1,-1 1,0 1,-1 1,0 1,-1 5,0 1,1 0,1 1,1 1,1 0,1 5,0 1,-1 6,0 1,-1 2,0 1,-1 1,0 -1,-1 0,-1 -1,-1 -1,-1 0,-1 -1,-1 0,-1 -1,-1 0,-3 2,-2 1,0 1,-1 1,0 0,-1 -1,-1 0,0 -1,-1 0,-1 -1,-1 0,-1 -1,-1 -1,-1 -1,-1 0,-1 -2,0 -1,-1 -1,-1 -1,0 -1,1 -1,0 -1,1 -1,0 -1,1 -1,0 -1,1 -1,0 -1,1 -1,0 -1,1 -1,0 -1,1 -1,0 -1,1 -1,0 -1,1 -2,0 -1,1 -1,0 -1,1 -1,0 -1,1 -1,0 0,1 -1,1 -1,0 -1,1 -1,0 -1,1 -1,0 -1,1 -1,0 -1,1Z"/>
<path onmouseover="hoverPath(evt)" onmouseout="recoverPath(evt)" fill="rgb(177,202,238)" d="M  73,193l -2,0 -1,-1 0,-4 1,-1 1,0 1,-1 1,0 1,-1 1,0 1,-1 1,0 1,-1 1,0 1,-1 1,0 1,-1 1,-1 1,0 1,-1 1,0 1,-1 1,0 0,-1 -1,0 -1,-1 0,-2 1,-1 1,0 0,-1 -1,-1 0,-2 1,-1 2,0 1,1 1,1 0,1 1,1 0,1 1,1 1,-1 5,0 1,1 0,1 1,1 0,1 1,1 0,2 -1,1 -2,0 -1,-1 -1,-1 0,-1 -1,-1 -1,1 -1,0 -1,1 -2,0 1,1 0,5 -1,1 -1,0 -1,1 -1,1 -2,0 -1,1 -4,0 -1,1 -2,0 -1,1 -2,0 -1,1 -2,0 -1,1 -2,1 2,0 1,1 0,1 1,1 0,8 1,1 6,0 1,-1 10,0 1,-1 0,-4 1,-1 2,0 1,1 0,8 -1,1 -3,0 -1,1 -1,0 -1,1 0,1 1,1 0,12 1,1 0,4 1,1 2,0 1,1 1,-1 1,0 1,-1 1,0 1,-1 1,0 1,-1 4,0 0,-2 1,-1 1,0 1,-1 2,0 1,-1 1,0 1,-1 1,-1 1,0 1,-1 1,-1 3,0 1,1 0,-2 1,-1 1,0 1,-1 1,0 1,-1 1,0 1,-1 1,0 1,-1 4,0 1,1 0,-2 1,-1 1,-1 1,0 1,-1 1,0 1,-1 1,0 0,-1 1,-1 1,-1 6,0 0,-1 1,-1 1,-1 1,0 1,-1 1,0 1,-1 2,0 1,-1 1,0 1,-1 1,-1 1,0 0,-2 1,-1 1,0 1,-1 1,-1 1,0 1,-1 1,0 1,-1 1,0 1,-1 1,0 1,-1 1,0 1,-1 1,0 1,-1 1,0 1,-1 1,0 1,-1 1,0 1,-1 1,0 1,-1 0,-3 1,-1 2,0 1,1 1,1 1,1 0,1 1,1 1,1 0,1 1,1 1,1 0,-1 -1,-1 -1,-2 -1,-1 -1,-2 -1,-1 -1,-1 0,-1 -1,-1 0,-1 -1,-1 -1,-1 0,-1 -1,0 -1,-1 0,-2 -1,-1 -1,-1 0,-1 -1,-1 -1,-1 0,-1 -1,-1 -1,-1 0,-1 -1,-1 -1,-1 0,-1 -1,-1 -1,0 -1,-1 0,-2 -1,-1 0,-1 -1,-1 -1,-1 0,-1 -1,0 1,2 1,1 1,2 0,2 -1,1 -1,0 -1,1 -1,0 -1,1 0,1 1,1 0,1 1,1 0,1 1,1 1,1 0,1 1,1 0,2 -1,1 -1,0 -1,1 -2,0 -1,1 -6,0 -1,1 -7,0 -1,-1 0,-1 -1,-1 -1,-1 0,-1 -3,0 -1,1 -1,0 -1,1 -1,0 -1,1 -1,0 -1,1 -2,0 -1,1 0,2 -1,1 -2,0 -1,1 -2,0 -1,1 -4,0 -1,-1 0,-2 1,-1 2,0 1,-1 0,-1 -1,-1 0,0 -1,-1 0,-1 -1,-1 0,-1 -1,-1 -1,-1 0,-1 -1,-1 -2,0 -1,-1 0,-2 1,-1 2,0 1,-1 1,0 1,-1 1,0 1,-1 1,0 1,-1 1,0 1,-1 1,0 0,-1 1,-1 1,0 1,-1 1,0 1,-1 1,0 1,-1 2,0 1,-1 1,0 1,-1 1,0 1,-1 1,0 1,-1 1,0 1,-1 1,0 1,-1 1,0 1,-1 1,0 1,-1 1,0 1,-1 1,0 0,-2 -1,1 -1,0 -1,1 -1,0 0,1 2,-1 -4,2 -2,0 -1,1 -1,0 -1,1 -1,0 -1,1 -1,0 -1,1 -1,0 -1,1 -1,1 -1,0 3,-1 2,-1 2,-1 2,-1 2,-1 -13,6 -2,1 -2,1 -2,1 -2,2 -2,0 -1,-1 0,-4 -1,-1 0,-3 1,-1 1,0 1,-1 0,-1 1,-1 3,0 0,-1 -1,-1 0,-1 -1,-1 -1,-1 -1,0 -1,1 -1,0 -1,1 -1,0 -1,1 -1,1 -2,0 -1,1 -1,0 -1,1 0,2 1,1 0,0 1,1 0,1 1,1 0,1 1,1 1,1 0,1 1,1 0,3 -1,1 -1,0 -1,1 -1,0 -1,1 -1,0 -1,1 -1,0 -1,1 -1,0 -1,1 -1,0 -1,1 -1,0 -1,1 -1,0 -1,1 -1,0 -1,1 -1,0 -1,1 -1,0 -1,1 -1,0 -1,1 -2,0 -1,-1 -1,-1 0,-2 -1,-1 0,-1 -2,-2 0,-1 -1,-1 0,-1 -1,-1 -1,-1 -1,1 -1,0 -1,1 -1,0 -1,1 -1,1 -1,0 0,1 1,1 0,2 -1,1 -2,0 -1,-1 -1,-1 -2,0 -1,1 -1,0 -1,1 -1,0 -1,1 -1,0 -1,1 -1,1 -1,1 -1,0 -1,1 -3,0 -1,1 -1,0 0,1 -1,1 -3,0 -1,1 -1,0 -1,1 -1,0 1,1 0,2 -1,1 -2,0 -1,-1 -1,-1 -1,1 -1,0 -1,1 -1,0 -1,1 -1,0 -1,1 -1,0 -1,1 -1,0 0,1 -1,1 -2,0 -1,1 -2,0 -1,1 -1,1 -1,0 -1,1 -1,0 -1,1 -1,0 0,1 1,1 0,1 1,1 1,1 0,1 1,1 1,1 0,1 1,1 1,1 0,3 -1,1 -1,1 2,0 1,1 1,0 1,1 0,13 1,1 0,6 1,1 0,1 1,1 2,0 1,-1 9,0 0,-10 -1,-1 0,-12 -1,-1 -5,0 -1,1 -5,0 -1,-1 0,-2 1,-1 1,-1 1,0 1,-1 1,0 1,-1 1,0 1,-1 1,0 1,-1 1,0 1,-1 1,0 1,-1 4,0 1,1 5,0 1,-1 4,0 1,-1 2,-1Z"/>
<path onmouseover="hoverPath(evt)" onmouseout="recoverPath(evt)" fill="rgb(174,199,235)" d="M  87,47l -2,0 0,2 1,1 0,2 1,1 0,1 1,1 0,1 1,1 0,3 1,1 0,1 1,1 0,2 1,1 1,-1 1,0 1,-1 1,0 1,-1 1,-1 1,0 1,-1 1,0 1,-1 1,0 1,-1 3,0 1,1 0,2 -1,1 -1,0 0,1 1,1 0,2 1,1 0,2 1,1 0,4 1,1 1,-1 3,0 1,-1 3,0 1,-1 6,0 1,-1 1,0 1,-1 1,0 1,-1 0,-4 -1,-1 0,-5 -1,-1 0,-3 -1,-1 0,-2 -2,0 -1,1 -1,0 -1,1 0,1 1,1 0,3 1,1 0,3 -1,1 -2,0 -1,-1 0,-1 -1,-1 0,-2 -1,-1 0,-1 -1,-1 -1,1 -2,0 -1,-1 0,-2 1,-1 2,-2 -1,-1 0,-7 -1,-1 0,-6 -15,0 -1,1 -2,0 0,6 -1,1 -4,0 0,1 -1,1Z"/>
<path onmouseover="hoverPath(evt)" onmouseout="recoverPath(evt)" fill="rgb(171,196,231)" d="M  72,19l 0,1 1,1 0,1 1,1 0,1 1,1 0,2 1,1 0,1 1,1 0,1 1,1 0,1 1,1 0,1 1,1 0,3 1,0 1,1 1,1 1,1 0,3 5,0 0,-1 1,-1 4,0 0,-6 1,-1 2,0 1,-1 16,0 0,-13 -10,0 0,2 -1,1 -9,0 -1,-1 0,-7 1,-1 0,-4 -2,0 -1,-1 0,-2 1,-1 2,0 1,-1 1,0 0,-1 -1,-1 0,-1 -1,-1 0,-3 -32,0 1,1 0,1 1,1 0,1 1,0 1,1 0,2 1,1 0,1 1,1 0,1 1,1 0,1 1,1 0,3 1,1 1,1Z"/>
<path onmouseover="hoverPath(evt)" onmouseout="recoverPath(evt)" fill="rgb(242,242,236)" d="M  128,50l -1,1 1,0 1,1 0,2 1,1 0,3 1,1 0,5 1,1 0,5 2,0 1,-1 3,0 1,1 1,0 0,-2 1,-1 1,-1 3,0 1,-1 1,0 1,-1 1,0 1,-1 1,0 1,-1 2,0 1,1 1,-1 1,0 1,-1 1,-1 1,0 1,-1 1,-1 1,0 1,-1 1,-1 0,-2 1,-1 1,0 1,-1 1,-1 0,-1 1,-1 2,0 1,-1 1,-1 1,0 1,-1 1,-1 1,0 1,-1 1,-1 0,-1 1,-1 2,0 1,-1 1,-1 1,0 1,-1 1,0 1,-1 1,0 1,-1 1,-1 1,0 1,-1 1,0 1,-1 1,0 1,-1 1,0 1,-1 1,-1 1,0 1,-1 2,0 1,1 1,-1 0,-2 1,-1 1,0 1,-1 1,0 1,-1 1,0 1,-1 1,-1 4,0 1,1 1,0 1,-1 1,0 0,-2 1,-1 2,0 1,-1 1,0 1,-1 1,0 1,-1 2,0 1,-1 2,0 1,-1 3,0 1,1 1,0 0,-2 1,-1 1,0 1,-1 1,0 1,-1 1,0 1,-1 2,0 1,-1 1,-1 2,0 0,-7 -83,0 0,3 -1,1 -1,0 -1,1 -2,0 -1,1 -2,0 -1,1 -2,0 -1,1 -4,0 -1,1 -3,0 3,1 0,0 1,1 0,2 1,1 0,1 1,1 0,1 1,1 0,1 1,1 0,3 -1,1 -1,0 -1,1 -4,0 -1,-1 0,1 1,1 0,0 1,1 0,2 1,1 0,1 1,1 0,2 1,1 0,1 1,1 0,3 -1,1 -1,1 -5,0 -1,1 -6,0 -1,-1 0,2 -1,1 -1,1 -1,0 -1,1 -2,0 -1,1 -2,0 -1,1 -4,0 -1,1 15,-9 0,-1 -1,-1 0,-2 -1,-1 0,-2 -1,-1 0,-2 -1,-1 0,-2 -1,-1 0,-2 -1,-1 0,-2 -1,-1 0,-2 -1,-1 0,-3 1,-1 -2,0 0,3 9,24 -15,9 -4,1 -1,0 -1,-1 0,-1 -1,-1 0,-4 -1,-1 0,-4 -1,-1 0,-5 -3,0 0,9 1,1 0,7 1,1 0,2 -1,1 -1,1 -1,1 2,-1 1,0 1,1 1,1 0,1 1,1 0,2 1,1 0,1 -1,-5 -1,-2 0,-2 1,-1 1,-1 1,0 1,-1 4,-1Z"/>
<path onmouseover="hoverPath(evt)" onmouseout="recoverPath(evt)" fill="rgb(180,204,237)" d="M  231,107l 0,0 -1,-1 0,-2 -1,-1 -1,-1 0,-1 -1,-1 -1,-1 0,-1 -1,-1 -1,-1 0,-1 -1,0 -1,-1 0,-3 -1,1 -1,0 -1,1 -1,1 -2,0 -1,1 -1,0 -1,1 -1,0 -1,1 -1,1 -1,0 0,1 1,1 0,1 1,1 1,1 1,1 0,1 1,1 0,2 -1,1 0,3 -1,1 -1,0 -1,1 -2,0 0,2 -1,1 0,3 1,-1 1,0 1,-1 2,0 1,1 1,1 1,1 0,1 1,1 1,1 0,1 1,1 1,1 0,1 3,0 1,1 0,3 1,1 0,1 1,1 1,1 0,1 1,1 2,0 1,1 1,1 0,4 1,0 1,-1 4,0 1,-1 1,0 0,-1 1,-1 2,0 1,-1 1,0 1,-1 1,-1 1,0 0,-2 1,-1 0,-1 1,-1 -1,-1 0,-1 -1,-1 0,-1 -1,-1 -1,-1 -1,-1 0,-1 -1,-1 -1,-1 0,-1 -1,-1 -1,-1 0,-1 -1,-1 -1,0 -1,-1 0,-2 -1,-1 -1,-1 0,-1 -1,-1 -1,-1 0,-2 -2,0 0,38 -1,0 -1,1 -1,0 -1,1 4,-2Z"/>
<path onmouseover="hoverPath(evt)" onmouseout="recoverPath(evt)" fill="rgb(241,241,235)" d="M  0,196l 0,13 2,0 1,1 1,1 0,12 1,0 1,1 1,0 1,-1 0,-2 -1,-1 0,-4 1,-1 1,-1 2,0 1,-1 1,0 1,-1 3,0 1,1 0,2 -1,1 -1,1 -1,1 -1,0 -1,1 -1,0 0,6 1,1 1,0 2,2 1,1 0,8 -1,1 0,0 -1,1 0,1 -1,1 3,0 0,-3 1,-4 7,0 -8,-6 0,-6 1,-1 -1,-1 0,-3 1,-1 1,-1 1,-1 1,0 1,-1 1,0 0,-2 1,-1 1,0 1,-1 0,-2 1,-1 1,0 1,-1 1,0 1,-1 1,0 1,-1 1,0 1,-1 0,-1 -1,-1 0,0 -1,-1 0,-1 -1,-1 -1,-1 0,-1 -1,-1 -1,-1 0,-1 -1,-1 0,-3 1,-1 1,0 1,-1 1,0 1,-1 1,0 1,-1 1,-1 2,0 1,-1 2,0 0,-1 1,-1 1,0 1,-1 1,0 1,-1 1,0 1,-1 1,0 1,-1 1,0 1,-1 2,0 1,1 1,1 -1,-2 0,-1 1,-1 1,0 1,-1 1,0 1,-1 3,0 0,-1 1,-1 1,0 1,-1 3,0 1,-1 1,0 1,-1 1,-1 1,-1 1,0 1,-1 1,0 1,-1 1,0 1,-1 1,0 1,-1 2,0 1,1 0,1 1,1 -1,-3 0,-1 1,-1 1,0 2,-2 1,0 1,-1 1,0 1,-1 2,0 2,2 1,1 0,1 1,1 0,1 1,1 1,1 0,1 1,1 0,2 1,1 1,-1 1,0 1,-1 1,0 1,-1 1,0 1,-1 1,0 1,-1 1,0 1,-1 1,0 1,-1 1,0 1,-1 1,0 1,-1 1,0 1,-1 1,0 1,-1 1,0 1,-1 1,0 0,-1 -1,-1 0,-1 -1,-1 -1,-1 0,-1 -1,-1 0,-1 -1,-1 -1,-1 0,-4 1,-1 1,-1 1,0 1,-1 2,0 1,-1 1,-1 1,0 1,-1 1,0 1,-1 3,0 1,1 1,1 1,1 0,1 1,1 0,3 -1,1 -3,0 0,1 -1,1 -1,1 -1,0 0,1 1,1 0,4 1,0 0,-1 1,-1 1,0 1,-1 1,0 1,-1 1,0 1,-1 1,0 1,-1 1,0 1,-1 1,-1 1,0 1,-1 1,0 1,-1 1,0 1,-1 1,0 1,-1 3,0 0,-1 1,-1 1,0 1,-1 1,0 1,-1 2,0 1,1 0,3 1,1 1,1 1,0 1,-1 0,-1 -1,-1 0,0 -1,-1 0,-1 -1,-1 -1,0 -166,60 0,-20 1,-1 3,0 -4,20 0,1 5,-22 0,0 -5,22 5,-23 1,-1 4,0 -5,1 -5,23 11,-25 0,0 -11,25 162,-62 -1,-1 0,-1 -1,-1 0,-1 -1,-1 -1,-1 0,-1 -1,-1 -1,-1 0,-2 -1,0 -1,-1 -1,-1 0,-1 -1,-1 0,-1 -1,-1 -1,-1 0,-1 -1,-1 -1,-1 0,-1 -3,0 -1,1 -1,0 -1,1 -1,0 -1,1 -1,0 -1,1 -1,1 -1,0 -1,1 -3,0 -1,-1 -1,1 -1,0 -1,1 -1,0 -1,1 -1,0 -1,1 -1,0 -1,1 -1,0 -1,1 -1,0 -1,1 -1,0 -1,1 -1,0 -1,1 -1,1 -1,0 -1,1 -1,0 -1,1 -1,0 -1,1 -1,0 0,2 -1,1 -1,0 -1,1 -1,0 -1,1 -1,0 -1,1 -1,0 -1,1 -1,0 -1,1 -1,0 -1,1 -1,0 -1,1 -1,0 -1,1 -1,0 -1,1 -1,0 -1,1 -1,0 -1,1 -1,0 -1,1 -1,0 -1,1 -1,0 -1,1 -1,0 -1,1 -1,1 -3,0 -1,-1 -1,1 -1,0 -1,1 -1,0 -1,1 -1,0 -1,1 -1,0 -1,1 -1,0 -1,1 -2,0 -1,1 -1,0 0,1 -1,1 -1,0 -1,1 -1,0 -1,1 -1,0 -1,1 -1,0 -1,1 -1,0 -1,1 -1,0 -1,1 -1,0 -1,1 -1,0 -1,1 -1,0 0,2 -1,1 -1,0 -1,1 -1,0 -1,1 -1,0 -1,1 -1,0 -1,1 -1,0 -1,1 -1,0 -1,1 -2,0 -1,-1 -3,0 -1,-1 -1,-1 -2,0 148,-37 -162,62Z"/>
<path onmouseover="hoverPath(evt)" onmouseout="recoverPath(evt)" fill="rgb(182,205,237)" d="M  78,244l 0,0 -1,1 1,1 0,9 15,0 0,-3 -2,0 -1,-1 -1,-1 0,-1 -1,-1 -1,-1 0,-1 -1,-1 -1,-1 0,-1 -1,-1 -1,0 -1,-1 0,-2 1,-1 1,0 1,-1 2,0 1,1 0,-2 1,-1 1,0 1,-1 1,0 1,-1 2,0 -3,-1 0,0 -1,-1 0,-4 -1,-1 0,-12 -1,-1 0,-3 1,-1 1,-1 1,0 1,-1 3,0 0,-6 -1,5 0,0 -3,1 -8,0 0,2 -1,1 -6,0 -1,1 0,4 1,1 0,10 -1,1 0,3 1,1 0,9 1,1Z"/>
<path onmouseover="hoverPath(evt)" onmouseout="recoverPath(evt)" fill="rgb(238,239,235)" d="M  138,89l 0,0 1,1 1,1 0,1 4,0 1,1 0,1 1,1 0,1 1,0 1,1 0,1 1,1 0,1 1,0 1,1 1,1 1,1 0,1 1,1 1,1 1,1 1,1 1,1 1,1 0,1 1,1 1,1 1,1 0,2 2,0 1,1 0,2 1,0 1,1 0,1 1,1 1,1 1,1 0,1 3,3 0,1 1,1 1,1 2,0 1,-1 1,0 0,-1 -2,1 -1,0 -1,-1 -1,0 1,1 -2,-3 0,-1 -1,-1 -1,-1 0,-1 -1,-1 -1,-1 0,-1 -1,-1 0,-2 1,-1 1,-1 1,0 1,-1 1,0 1,-1 1,0 1,-1 1,0 0,-1 1,-1 3,0 1,-1 1,0 1,-1 1,0 1,-1 1,0 1,-1 1,0 1,-1 1,0 1,-1 1,0 1,-1 1,0 0,-1 -2,1 -2,1 -2,1 -2,1 -2,1 -2,0 -1,1 -1,0 -1,1 1,0 2,-1 -6,2 -2,0 -1,-1 -1,-1 -1,-1 0,-2 -1,0 -1,-1 0,-2 -3,0 -1,-1 -1,-1 0,-1 -1,-1 -1,-1 0,-2 1,-1 -1,-1 0,0 -1,-1 -1,-1 0,-1 -1,-1 -1,-1 0,-7 1,-1 2,0 1,1 1,-1 1,0 1,-1 1,0 1,-1 1,0 0,-2 1,-1 1,0 1,-1 2,0 1,1 1,-1 1,0 1,-1 1,0 1,-1 1,0 0,-2 -1,-1 0,0 -1,-1 0,-1 -1,-1 0,-2 1,-1 0,-2 1,-1 1,-1 1,-1 1,-1 1,-1 1,-1 1,0 1,-1 1,0 1,-1 1,-1 1,0 1,-1 1,0 0,-2 -1,-1 0,0 -1,-1 0,-1 -1,-1 -1,1 -1,0 -1,1 -1,1 0,1 -1,1 -3,0 -1,-1 0,-1 -1,0 -1,1 0,0 -1,1 -2,0 -1,-1 -1,1 -1,1 -2,0 0,1 -1,1 -1,1 0,2 -1,1 -1,0 -1,1 -1,1 -1,1 -1,0 -1,1 -1,1 -1,0 -1,1 -1,1 -1,0 -1,1 -2,0 -1,-1 -1,1 -1,0 -1,1 -1,0 0,2 -1,1 -2,0 -1,-1 -2,0 -1,1 0,2 -1,1 -3,0 -1,-1 -1,0 -1,1 -4,0 -1,1 -1,0 -1,1 -1,0 -1,1 -6,0 -1,1 -3,0 -1,1 -3,0 -1,1 3,0 2,-1 2,0 2,-1 7,0 1,1 0,1 2,0 1,1 0,2 -1,1 0,2 1,1 1,0 1,1 0,1 1,1 1,1Z"/>
<path onmouseover="hoverPath(evt)" onmouseout="recoverPath(evt)" fill="rgb(239,239,234)" d="M  162,83l 0,0 -1,-1 0,5 1,1 0,0 1,1 0,1 1,1 1,1 1,1 0,1 1,1 2,0 1,1 1,1 0,2 -1,1 -2,0 -1,-1 4,1 0,0 1,1 0,2 1,0 1,1 0,2 1,1 1,1 1,0 1,-1 1,0 1,-1 1,0 1,-1 3,0 1,-1 1,0 1,-1 1,0 1,-1 1,0 1,-1 1,0 1,-1 2,0 1,1 2,0 1,-1 1,0 1,-1 4,0 1,1 1,1 -1,-2 0,-2 1,-1 1,0 1,-1 1,-1 1,0 1,-1 1,0 1,-1 2,0 1,-1 1,-1 1,0 1,-1 1,0 1,-1 2,0 1,1 1,1 0,-4 1,-1 0,-2 1,-1 1,0 1,-1 1,0 1,-1 1,0 1,-1 1,-1 2,0 1,-1 1,0 1,-1 1,0 0,-1 -1,-1 0,-1 -1,-1 -1,-1 -1,-1 -1,-1 -1,-1 0,-1 -1,-1 0,-1 -2,0 -1,-1 0,-1 -1,-1 0,-1 -1,-1 -1,-1 0,-2 1,-1 -1,-1 -2,0 -1,-1 -1,-1 -3,0 -1,1 -1,0 -1,1 -1,0 -1,1 -1,0 -1,1 -2,0 -1,-1 -1,1 -1,0 -1,1 -2,0 -1,1 -1,1 -1,0 -1,1 -1,0 -1,1 -1,0 -1,1 -1,0 -1,1 -1,0 -1,1 -1,0 -1,1 -1,0 -1,1 -1,0 0,2 -1,1 -1,1 -1,0 -1,1 -1,0 -1,1 -1,0 -1,1 -1,0 -1,1 -1,0 -1,1 -1,0 -1,1 -2,0 -1,-1 -1,1 -1,0 0,2 -1,1 -1,0 -1,1 -1,0 -1,1 -1,0 -1,1Z"/>
<path onmouseover="hoverPath(evt)" onmouseout="recoverPath(evt)" fill="rgb(236,238,237)" d="M  0,6l 0,20 3,0 1,-1 0,0 1,-1 1,0 1,-1 2,0 1,-1 2,0 1,-1 1,0 1,-1 2,0 1,-1 4,0 1,1 1,1 1,1 0,-1 -1,-1 0,-2 1,-1 -2,0 -1,-1 0,-1 -1,-1 0,-1 -1,-1 -1,-1 0,-3 1,-1 1,-1 1,0 1,-1 2,0 1,-1 1,0 1,-1 2,0 1,-1 1,0 1,-1 1,0 0,-1 -34,0Z"/>
<path onmouseover="hoverPath(evt)" onmouseout="recoverPath(evt)" fill="rgb(241,241,235)" d="M  2,150l -2,0 0,23 3,0 0,-2 1,-1 5,0 1,-1 7,0 1,1 1,1 2,0 1,-1 1,0 1,-1 2,0 1,1 0,-2 1,-1 1,0 1,-1 1,0 1,-1 1,0 1,-1 1,0 1,-1 1,0 1,-1 1,0 1,-1 1,0 1,-1 1,0 1,-1 1,0 1,-1 1,0 1,-1 1,0 1,-1 1,0 1,-1 1,0 0,-1 1,-1 1,0 1,-1 2,0 1,-1 1,0 1,-1 1,0 1,-1 1,0 1,-1 1,0 1,-1 1,0 1,-1 2,0 1,1 1,0 1,-1 0,-2 1,-1 1,0 1,-1 1,0 1,-1 1,0 1,-1 1,0 1,-1 1,0 1,-1 1,0 1,-1 1,0 1,-1 1,0 1,-1 1,0 1,-1 1,0 1,-1 1,0 1,-1 1,0 1,-1 1,0 1,-1 1,0 1,-1 1,0 1,-1 1,0 1,-1 1,0 1,-1 1,0 1,-1 1,0 1,-1 1,-1 1,0 1,-1 1,0 1,-1 1,0 1,-1 1,0 1,-1 1,0 1,-1 1,0 1,-1 1,0 1,-1 1,0 1,-1 2,0 1,1 1,0 1,-1 1,0 1,-1 0,-2 1,-1 1,0 1,-1 1,0 1,-1 1,0 1,-1 0,-2 -1,-1 0,-1 -1,-1 -1,-1 -1,-1 0,-1 -1,-1 -1,-1 0,-1 -1,-1 -1,-1 0,-1 -1,-1 -1,-1 0,-1 -1,-1 -1,-1 -4,0 -1,1 -1,0 -1,1 -3,0 -1,1 -1,1 -3,0 -1,1 -1,1 -2,0 -1,1 -2,0 -1,1 -9,0 -1,1 -2,0 -1,1 -1,0 -1,1 -1,0 -1,1 -1,0 -1,1 -2,0 -1,1 -1,0 -1,1 -1,0 -1,1 -1,0 -1,1 -1,0 0,1 1,1 0,4 -1,1 -3,0 -1,-1 -1,0 -1,-1 -2,0 -1,1 -1,0 -1,1 -1,0 -1,1 -1,1 -1,1 -1,1 -1,0 -1,1 -1,1 -1,1 -1,0 -1,1 -1,1 -1,0 -1,1 -1,1 -1,0 -1,1 -1,1 -1,0 -1,1 -1,0 -1,1 -1,1 -1,0 -1,1 -1,0 -1,1 -1,1 -2,0 -1,1 -1,0 -1,1 -1,0 -1,1 -3,0 -1,1 -1,1 -1,0 -1,1 -2,0 0,1 -1,1 -1,0 -1,1 -1,0 -1,1 -1,1 -1,0 -1,1 -4,0 -1,1 -2,0 -1,1 -1,0 -1,1 -2,0 0,1 -1,1 -1,0 -1,1Z"/>
<path onmouseover="hoverPath(evt)" onmouseout="recoverPath(evt)" fill="rgb(229,234,237)" d="M  57,215l 0,-16 1,-1 0,-1 -2,0 -1,1 -1,0 -1,1 -1,0 -1,1 -1,0 -1,1 -1,0 -1,1 -1,0 -1,1 -1,0 -1,1 3,0 1,-1 7,0 1,1 1,1 0,9 1,1 -1,1 0,1 1,1 0,12 -1,1 1,1 0,12 -1,1 0,1 -1,1 0,8 6,0 0,-7 -1,0 -1,-1 0,-2 -1,-1 0,-28 -2,0 1,-1Z"/>
<path onmouseover="hoverPath(evt)" onmouseout="recoverPath(evt)" fill="rgb(172,199,237)" d="M  59,200l 0,14 1,1 0,28 1,1 0,2 1,0 1,1 0,8 11,0 0,-2 -1,-1 0,-5 -3,0 -1,-1 0,-2 1,-1 1,0 1,-1 1,-1 0,-4 -1,-1 0,-8 -1,-1 0,-10 -1,-1 0,-16 -1,-1 -3,0 -1,-1 -5,0 0,1 -1,1Z"/>
<path onmouseover="hoverPath(evt)" onmouseout="recoverPath(evt)" fill="rgb(221,227,232)" d="M  237,248l 0,-2 1,-1 2,0 1,1 1,1 1,-1 1,0 0,-1 -1,-1 0,0 -1,-1 0,-1 -1,-1 -3,0 -1,-1 -1,-1 -2,0 -1,-1 -1,-1 1,2 0,2 -2,2 -2,0 -1,1 -1,0 -1,1 -1,0 -1,1 -1,0 -2,2 -1,0 -1,1 1,0 1,1 0,1 1,1 0,3 8,0 0,-2 1,-1 4,0 1,-1 1,-1 2,0 -1,-1 -1,-1Z"/>
<path onmouseover="hoverPath(evt)" onmouseout="recoverPath(evt)" fill="rgb(178,202,237)" d="M  0,41l 0,51 1,0 1,-1 0,0 1,-1 1,-1 0,-1 1,-1 0,-1 1,-1 1,-1 1,0 0,-2 1,-1 1,-1 0,-1 1,-1 1,-1 1,-1 2,0 0,-2 1,-1 3,0 2,2 0,1 5,0 1,1 0,-2 1,-1 4,0 1,-1 4,0 -1,-1 0,-1 -1,-1 0,-1 -1,-1 0,-1 -1,-1 0,-2 1,-1 -3,0 -1,-1 0,-6 1,-1 -1,-1 0,-1 -1,-1 0,-1 -2,0 -1,-1 0,-4 -1,-1 0,-2 1,-1 1,-1 1,0 1,-1 5,0 0,-1 -1,-1 0,-3 1,-1 -1,0 -1,-1 -1,0 -1,-1 0,-2 -1,-1 0,-1 -1,-1 -1,-1 -1,-1 0,-1 -2,0 -2,-2 -1,-1 -2,0 -1,1 -2,0 -1,1 -1,0 -1,1 -2,0 -1,1 -2,0 -1,1 -1,0 -1,1 -1,1 -4,0Z"/>
<path onmouseover="hoverPath(evt)" onmouseout="recoverPath(evt)" fill="rgb(174,200,237)" d="M  21,9l 0,1 1,1 1,1 0,1 1,1 0,1 3,0 1,1 0,2 -1,1 -1,0 1,1 0,2 1,1 0,1 1,1 1,1 1,1 0,1 1,1 0,2 1,0 1,1 1,0 1,1 0,2 -1,1 0,1 1,1 0,3 -1,1 -5,0 -1,1 -1,0 -1,1 1,1 0,4 2,0 1,1 0,1 1,1 0,1 1,1 0,2 -1,1 0,4 2,0 1,-1 3,0 0,-10 1,-1 2,0 1,1 1,1 0,2 1,1 2,0 1,1 0,1 1,1 0,1 1,1 0,2 1,1 0,1 1,1 0,1 1,1 0,2 1,1 1,0 1,-1 2,0 1,-1 5,0 1,-1 1,0 0,-4 -1,-1 0,-3 -1,-1 -1,-1 0,-2 -4,0 -1,-1 -2,0 -1,1 -2,0 -1,-1 -2,0 -1,-1 0,-2 1,-1 2,0 0,-2 -1,-1 0,-1 -1,-1 0,-1 -1,-1 0,-1 -1,-1 0,-1 -1,-1 0,-1 -1,-1 0,-2 1,-1 -5,0 -1,-1 0,-2 1,-1 4,0 1,-1 1,-1 2,0 1,-1 1,0 0,-1 1,-1 2,0 1,-1 1,-1 1,0 1,-1 1,0 1,-1 1,0 1,-1 1,0 1,-1 1,0 0,-1 -1,-1 0,-1 -1,-1 0,-1 -1,-1 0,-1 -1,-1 0,-1 -1,-1 -4,0 -1,1 -3,0 -1,-1 0,-2 1,-1 1,0 1,-1 2,0 1,-1 0,-3 -21,0 0,2 -1,1 -1,0 -1,1 -1,0 -1,1 -2,0 -1,1 -1,0 -1,1 -2,0 -1,1 -1,0 -1,1Z"/>
<path onmouseover="hoverPath(evt)" onmouseout="recoverPath(evt)" fill="rgb(174,200,237)" d="M  166,217l 0,1 1,0 1,1 1,1 0,2 -1,1 1,1 0,0 1,1 0,1 1,1 1,1 2,0 1,1 1,1 0,5 -1,1 1,1 0,1 1,1 1,1 0,1 1,1 0,1 1,1 1,1 0,1 2,0 1,-1 0,0 1,-1 1,0 1,-1 1,0 1,-1 1,0 1,-1 0,-1 -1,-1 0,-1 -1,-1 -1,-1 0,-1 -1,-1 -1,-1 0,-1 -1,-1 -1,0 -1,1 -1,0 -1,1 -2,0 -1,-1 0,-2 1,-1 1,-1 1,0 1,-1 1,0 -1,-1 0,0 -1,-1 0,-1 -1,-1 -1,-1 -1,-1 0,-1 -1,-1 -1,-1 0,-1 -1,-1 0,-2 1,-1 1,-1 1,0 1,-1 1,0 1,-1 1,0 1,-1 1,0 1,-1 1,0 1,-1 1,0 1,-1 1,0 1,-1 1,0 1,-1 1,0 1,-1 1,0 1,-1 1,0 1,-1 1,0 1,-1 1,0 1,-1 0,-2 -1,0 -1,1 0,0 -1,1 -1,0 -1,1 -1,0 -1,1 -1,0 -1,1 -1,0 -1,1 -1,0 -1,1 -1,0 -1,1 -2,0 -1,-1 0,-2 -1,-1 0,-1 -1,-1 0,-1 -1,-1 -1,-1 -1,-1 0,-1 -1,-1 -1,0 -1,1 -1,0 -1,1 -1,0 -1,1 -1,0 -1,1 -2,0 -1,-1 0,2 -1,1 -1,0 -1,1 -1,1 -1,0 -1,1 -2,0 -1,1 -1,0 -1,1 -1,0 -1,1 0,1 -1,1 -6,0 -1,1 0,1 -1,1 -1,0 -1,1 -1,0 -1,1 -1,0 -1,1 0,2 -1,1 1,1 0,1 1,1 1,1 2,0 1,1 1,1 2,0 1,-1 1,0 0,-1 1,-1 3,0 1,-1 2,0 1,1 0,3 1,-1 1,0 1,-1 1,0 0,-2 -1,1 -2,0 -1,-1 0,-1 -1,-1 0,0 -1,-1 0,-1 -1,-1 0,-2 1,-1 2,0 1,1 1,1 1,1 0,1 1,0 1,-1 2,0 1,1Z"/>
<path onmouseover="hoverPath(evt)" onmouseout="recoverPath(evt)" fill="rgb(241,240,233)" d="M  194,42l 0,0 1,1 0,1 1,1 1,1 0,1 1,1 3,0 1,-1 2,0 1,-1 1,0 1,-1 1,0 1,-1 1,0 1,-1 2,0 1,-1 1,0 1,-1 1,-1 1,0 1,-1 3,0 1,-1 1,-1 1,-1 1,0 1,-1 1,0 1,-1 2,0 1,-1 2,0 1,1 0,3 -1,1 -1,0 0,1 -1,1 -1,1 -1,1 -2,0 -1,1 -5,0 -1,1 -1,1 -1,0 -1,1 -1,0 -1,1 -1,0 -1,1 -1,1 -2,0 -1,1 -1,1 -1,1 0,2 -1,1 -1,0 1,1 1,0 1,-1 1,0 1,-1 1,0 1,-1 1,0 1,-1 1,0 1,-1 1,0 1,-1 2,0 1,1 4,0 1,1 1,1 2,0 1,1 1,1 0,2 -1,1 1,1 1,1 0,1 1,1 0,1 2,0 1,1 0,1 1,1 0,1 1,1 1,1 1,1 1,1 1,1 0,1 1,1 0,3 5,0 0,-1 1,-1 1,0 1,-1 3,0 0,-65 -1,0 -1,1 0,0 -1,1 -2,0 -1,1 -1,0 0,2 -1,1 -2,0 -1,-1 0,2 -1,1 -3,0 -1,-1 -1,0 -1,1 -2,0 -1,1 -2,0 -1,1 -1,0 -1,1 -1,0 -1,1 -2,0 0,2 -1,1 -1,0 -1,1 -3,0 -1,-1 -2,0 -1,1 0,0 -1,1 -1,0 0,2 -1,1 -1,0 -1,1 -1,0 -1,1 -1,1 -1,0 -1,1 -2,0 -1,-1 -1,1 0,2 -1,1 -1,0 -1,1 -2,0 -1,-1 -1,1 -1,0 -1,1 -1,1 -1,0 -1,1 -1,0 -1,1 -1,0 -1,1 -1,1 -2,0 0,1 -1,1 -1,1 2,0 1,1 0,1 1,0 0,-1 1,-1 1,-1 1,-1 1,0 1,-1 1,0 1,-1 3,0 33,8 -1,-1 0,-2 1,-1 2,0 1,1 0,2 -1,1 -2,0 -33,-8 59,12 0,2 -1,1 -1,0 -1,1 -1,0 -1,1 -1,0 -1,1 -2,0 -1,-1 0,-2 1,-1 1,0 1,-1 1,0 1,-1 1,0 1,-1 2,0 1,1 -59,-12Z"/>
<path onmouseover="hoverPath(evt)" onmouseout="recoverPath(evt)" fill="rgb(216,225,234)" d="M  255,88l 0,-12 -2,0 -1,1 -1,0 0,1 -1,1 -2,0 0,1 1,1 0,0 1,1 0,2 -2,2 1,1 0,3 -1,1 -1,1 -1,0 -1,1 -1,0 0,2 -1,1 -1,1 -1,0 4,-2 1,0 1,1 0,1 1,0 1,1 0,2 1,1 0,2 1,1 1,1 -2,-5 0,-1 1,-1 4,0Z"/>
<path onmouseover="hoverPath(evt)" onmouseout="recoverPath(evt)" fill="rgb(176,201,236)" d="M  163,121l -2,2 1,1 0,1 1,1 1,1 0,1 1,1 1,1 0,1 1,1 0,2 1,0 1,1 1,1 0,1 1,1 1,1 0,3 -1,1 0,1 1,1 0,0 1,1 3,0 1,1 0,1 1,1 1,1 0,1 1,1 0,2 1,0 1,1 1,1 0,1 1,1 1,1 0,1 1,1 1,1 0,1 1,1 1,1 0,1 1,1 1,1 0,2 1,0 1,1 0,1 1,1 1,1 0,1 1,1 0,1 1,1 1,1 0,1 1,1 1,1 0,1 1,1 1,1 0,3 -1,1 1,1 0,1 1,1 3,0 1,1 1,1 0,1 1,1 0,1 2,0 1,1 1,1 1,1 1,1 0,1 1,1 1,1 0,1 1,1 1,1 1,1 0,1 1,1 1,1 0,1 1,1 0,1 1,1 1,1 0,1 1,1 1,1 0,6 1,1 0,2 -1,1 1,1 2,0 1,1 0,1 1,1 1,1 0,1 1,1 1,1 2,0 1,1 1,1 3,0 1,1 1,1 0,1 1,1 1,1 0,3 -1,1 -1,0 -1,1 -1,0 -1,1 0,1 -1,1 -2,0 -2,2 -4,0 0,1 23,0 0,-12 -1,0 -1,1 -1,0 -1,1 -4,0 -84,-124 83,122 0,-1 -1,-1 0,-1 -1,-1 -1,-1 -1,-1 -1,-1 -1,-1 0,-6 -1,-1 -1,-1 0,-1 -1,-1 -1,-1 -1,-1 0,-1 -1,-1 -1,-1 0,-1 -1,-1 -1,-1 -1,-1 0,-1 -1,-1 -1,-1 0,-1 -1,-1 -1,-1 0,-1 -1,-1 0,-1 -1,-1 -1,-1 -1,-1 0,-1 -1,-1 0,-1 -1,-1 -1,-1 -1,-1 0,-1 -1,-1 -1,-1 0,-3 1,-1 -4,0 -1,-1 0,-2 -1,-1 -1,-1 0,-1 -1,-1 0,-1 -1,-1 -1,-1 0,-1 -1,-1 0,-1 -1,0 -1,-1 0,-1 -1,-1 -1,-1 0,-2 1,-1 -1,-1 0,0 -1,-1 -1,-1 0,-1 -1,-1 -2,0 -1,-1 0,-1 -1,-1 0,-3 -1,-1 -1,-1 -1,-1 -1,-1 0,-1 -1,-1 -2,0 -1,-1 -1,-1 0,-1 -1,-1 0,-1 -1,-1 -1,-1 0,-1 -1,-1 0,-2 1,-1 2,0 1,1 1,1 1,1 0,1 1,0 0,-1 1,-1 1,0 1,-1 2,0 1,-1 3,0 0,-1 1,-1 2,0 1,1 1,-1 2,0 1,-1 -4,0 -1,-1 -2,0 -1,-1 -1,-1 0,-2 -1,0 -1,-1 0,-1 -1,-1 -1,-1 0,-1 -1,0 -1,-1 -1,-1 0,-1 -2,0 0,1 -1,1 -1,0 -1,1 -1,0 -1,1 -2,0 0,1 -1,1 -1,0 -1,1 -4,0 -1,-1 -1,-1 -1,-1 0,-1 -1,-1 -2,-2 0,-1 -1,-1 -1,-1 -1,-1 0,-1 -1,0 -2,2 0,0 84,120 -83,-122Z"/>
<path onmouseover="hoverPath(evt)" onmouseout="recoverPath(evt)" fill="rgb(190,209,235)" d="M  220,42l 0,0 1,-1 -1,0 -1,1 -1,0 -1,1 -1,1 -1,0 -1,1 -2,0 -1,1 -1,0 -1,1 -1,0 -1,1 -1,0 -1,1 -2,0 -1,1 -5,0 -1,-1 -1,-1 0,4 -1,1 -1,0 -1,1 -1,0 -1,1 -1,1 -1,0 -1,1 -1,0 -1,1 -1,1 -1,1 -1,1 -1,1 0,2 -1,1 1,1 0,1 1,1 1,1 0,2 1,-1 1,0 1,-1 1,0 1,-1 0,-2 1,-1 1,0 1,-1 1,0 1,-1 1,0 1,-1 1,0 1,-1 1,0 1,-1 1,0 1,-1 1,0 1,-1 1,0 1,-1 -1,-1 0,-2 1,-1 1,0 0,-2 2,-2 1,-1 1,-1 2,0 1,-1 -1,0 -4,2 12,-6 -25,5 -1,-1 -1,-1 0,1 1,1 -1,-3 -1,0 3,3 25,-5 -5,3 0,0 2,-1 1,-1 1,0 3,-2 4,0 1,-1 2,0 1,-1 1,-1 0,-1 1,-1 1,0 0,-1 -2,1 -1,0 -1,1 -1,0 -1,1 -1,0 -1,1 -1,1 -9,5 5,-3Z"/>
<path onmouseover="hoverPath(evt)" onmouseout="recoverPath(evt)" fill="rgb(213,225,241)" d="M  146,107l 0,2 -1,1 4,0 1,1 0,1 1,1 1,1 0,1 2,2 0,1 1,1 0,1 1,1 1,0 1,1 0,2 1,1 1,1 0,1 1,1 1,1 0,1 1,1 0,1 1,1 1,1 0,-1 -1,-1 0,-1 -1,-1 0,0 -1,-2 -1,-1 -1,-2 -1,-1 0,-2 1,-1 2,-2 1,0 0,-1 -2,0 -1,-1 0,-2 -1,-1 -1,-1 -1,-1 0,-1 -1,-1 -1,-1 -1,-1 -1,-1 -1,-1 -1,-1 0,-1 -1,-1 -1,-1 -1,0 -1,-1 0,-1 -1,-1 0,-1 -1,0 -1,-1 0,-1 -1,-1 0,-1 -4,0 -1,-1 0,-1 -1,-1 -1,0 1,1 1,2 1,1 0,0 1,1 0,1 1,1 1,1 0,1 2,2 1,1 0,1 1,1Z"/>
<path onmouseover="hoverPath(evt)" onmouseout="recoverPath(evt)" fill="rgb(177,202,237)" d="M  234,184l 0,0 -1,-1 -4,0 0,2 -1,1 -1,0 -1,1 -2,0 -1,-1 -1,1 -1,0 1,1 0,2 -1,1 0,2 1,1 0,1 1,1 0,1 1,1 0,2 -1,1 1,1 0,1 1,1 1,1 1,-1 3,0 1,-1 1,0 1,-1 1,-1 1,0 1,-1 1,0 1,-1 1,-1 3,0 1,-1 1,-1 1,0 1,-1 1,0 1,-1 1,0 1,-1 1,0 1,-1 3,0 0,-17 -2,0 -1,1 -2,0 -1,-1 -1,1 -1,0 -1,1 -3,0 0,1 -1,1 -1,0 0,2 -1,1 -1,0 -1,1 -1,0 -1,1Z"/>
<path onmouseover="hoverPath(evt)" onmouseout="recoverPath(evt)" fill="rgb(242,241,233)" d="M  0,140l 0,4 1,0 1,-1 1,0 1,-1 2,0 1,-1 1,0 0,-1 1,-1 2,0 1,-1 2,0 1,-1 1,0 1,-1 2,0 1,-1 1,0 1,-1 1,0 1,-1 1,0 1,-1 1,0 1,-1 1,0 1,-1 1,0 1,-1 1,0 1,-1 1,0 1,-1 1,0 1,-1 1,-1 1,0 1,-1 1,-1 1,0 1,-1 1,0 1,-1 1,0 1,-1 1,0 1,-1 1,-1 1,-1 1,-1 1,-1 1,-1 1,0 1,-1 1,-1 1,-1 1,0 1,-1 1,-1 1,0 1,-1 1,-1 1,0 1,-1 1,0 1,-1 1,0 1,-1 1,0 1,-1 1,0 1,-1 1,0 1,-1 1,0 1,-1 1,0 1,-1 1,0 1,-1 1,0 1,-1 1,0 1,-1 2,0 1,-1 1,0 1,-1 2,0 1,-1 3,0 1,-1 7,0 1,-1 5,0 1,-1 1,-1 1,0 1,-1 2,0 1,-1 3,0 1,-1 1,0 1,-1 2,0 1,-1 0,-2 -1,-1 0,-1 -1,-1 0,-1 -1,0 -1,-1 -1,1 -3,0 -1,1 -3,0 -1,1 -5,0 -1,-1 0,-1 -1,-1 -1,-1 0,-4 -1,-1 0,-2 -1,-1 0,-2 -1,-1 0,-3 1,-1 1,0 -3,1 -1,1 -1,0 -1,1 -1,0 -1,1 -1,1 -1,0 -1,1 -1,0 -1,1 -1,0 0,2 1,1 0,2 1,1 0,2 1,1 0,1 1,1 6,0 1,1 0,2 -1,1 -3,0 -1,1 -4,0 0,5 -1,1 -5,0 -1,-1 -1,0 -2,2 -1,1 -1,0 -1,1 -5,0 -1,-1 -1,1 -1,0 -1,1 -1,1 -1,0 -1,1 -1,1 0,1 -1,1 -2,0 -1,1 -1,1 -1,0 -1,1 -1,1 -1,0 -1,1 -1,1 0,1 -1,1 -2,0 -1,1 0,1 -1,1 -2,0 -1,1 -1,1 -1,0 -1,1 -1,0 -1,1 -1,0 -1,1 -2,0 -1,-1 0,2 -1,1 -1,1 -1,1 -1,0 -1,1 -1,0 -1,1 -1,0 -1,1 -2,0 -1,-1 -2,0 -1,-1 0,-3 -7,0 0,3 1,1 0,0 1,1 0,3 1,1 0,3 -1,1 -1,1 -1,0 -1,1 -6,0 -1,-1 0,-2 1,-1 4,0 0,-3 -1,-1 -4,0 -1,-1 0,-2 1,-1 0,-5 -1,1 -2,0 -1,1 -1,1 -1,0 -1,1 -2,0 0,21 8,-8 0,2 -1,1 -2,0 -1,-1 0,-2 1,-1 2,0 1,1 -8,8Z"/>
<path onmouseover="hoverPath(evt)" onmouseout="recoverPath(evt)" fill="rgb(178,203,237)" d="M  20,236l -1,0 0,6 -1,1 -5,0 -1,-1 0,-2 1,-1 0,-1 1,-1 1,-1 0,-6 -1,-1 0,0 -1,-1 -1,0 -2,-2 0,-8 1,-1 1,0 1,-1 1,0 1,-1 1,-1 -1,0 -1,1 -1,0 -1,1 -2,0 -1,1 0,2 1,-2 -1,8 -1,1 -3,0 -1,-1 -1,0 -1,-1 0,-12 -1,-1 -1,0 0,44 53,0 0,-9 1,-1 0,-1 1,-1 0,-10 -9,0 -1,-1 -3,0 -1,-1 -1,-1 0,-1 -1,-1 0,-6 -1,-1 0,-13 -1,0 -1,-1 -3,0 -1,-1 -1,1 -1,0 -1,1 -1,0 0,2 -1,1 -1,1 -1,0 0,2 -1,1 -1,0 -1,1 -1,0 -1,1 -1,1 0,1 1,1 0,2 -1,1 0,9 7,0 1,1 0,2 -1,1Z"/>
<path onmouseover="hoverPath(evt)" onmouseout="recoverPath(evt)" fill="rgb(178,202,237)" d="M  236,109l 0,0 1,1 0,1 1,1 1,1 0,2 1,0 1,1 1,1 0,1 1,1 1,1 0,1 1,1 1,1 0,1 1,1 1,1 1,1 0,1 1,1 0,1 1,1 0,1 1,0 1,-1 2,0 0,-31 -3,0 0,2 1,1 0,0 1,1 0,2 -1,1 -2,0 -1,-1 -1,-1 -1,-1 0,-2 -1,-1 0,-2 -1,0 -1,-1 0,-1 -1,1 0,0 -1,1 -3,0 -1,-1 0,-2 1,-1 1,0 1,-1 0,-2 1,-1 1,0 1,-1 1,0 1,-1 0,-1 -1,-1 0,-2 1,-1 1,-1 -1,-1 -1,-1 0,-2 -3,0 -1,-1 -1,1 -1,0 -1,1 -2,0 -1,1 -1,1 -1,0 -1,1 -1,0 -1,1 -1,0 0,2 -1,1 0,4 -1,1 -2,0 -1,-1 -1,-1 0,3 1,0 1,1 0,1 2,2 0,1 1,1 1,1 0,1 1,1 1,1 0,2 2,0 1,1 0,2 1,1Z"/>
<path onmouseover="hoverPath(evt)" onmouseout="recoverPath(evt)" fill="rgb(175,201,238)" d="M  91,237l -1,0 0,3 -1,1 -2,0 0,2 1,1 1,1 0,1 1,1 1,1 0,1 1,1 2,0 1,1 0,4 20,0 0,-1 -1,-1 0,-1 -1,-1 -1,-1 0,-1 -1,1 -2,0 -1,-1 0,-4 1,-1 0,-2 1,-1 1,0 1,-1 1,0 0,-2 1,-1 2,0 1,1 1,0 1,1 1,-1 1,0 1,-1 2,0 1,1 1,0 1,-1 0,-2 1,-1 1,0 0,-2 1,-1 2,0 1,1 0,3 1,-2 1,0 0,-2 1,-1 1,0 1,-1 1,0 1,-1 1,0 1,-1 0,-3 -1,-1 0,-1 -1,-1 -1,-1 -1,-1 0,-1 -1,-1 0,-1 -1,-1 -2,0 -1,1 -1,0 -1,1 -1,0 -1,1 -1,0 -1,1 -1,0 0,2 -1,1 -2,0 -1,-1 -1,0 -1,1 0,0 -1,1 -1,0 -1,1 -1,1 -1,0 -1,1 -2,0 -1,1 -1,0 0,2 -1,1 -4,0 -1,1 -1,0 -1,1 -1,0 -1,1 -1,0 -1,1 -1,0 -1,1 -2,0 -1,1 -1,0 -1,1 -5,4 0,-2 -1,1 -1,0 2,1 5,-4Z"/>
<path onmouseover="hoverPath(evt)" onmouseout="recoverPath(evt)" fill="rgb(184,204,232)" d="M  115,20l 0,0 1,1 0,10 3,0 0,-1 -1,-1 0,-1 -1,-1 0,-3 1,-1 3,0 1,1 0,1 1,1 0,-7 1,-1 2,0 1,-1 5,0 0,-3 -1,-1 0,-1 -1,-1 -1,-1 0,-1 -1,-1 0,-1 -1,-1 0,-1 -1,-1 0,-1 -1,-1 0,-2 -29,0 0,2 1,1 0,1 1,1 0,3 -1,1 -1,0 -1,1 -2,0 3,1 0,6 -1,1 0,5 7,0 0,-2 1,-1Z"/>
<path onmouseover="hoverPath(evt)" onmouseout="recoverPath(evt)" fill="rgb(176,200,232)" d="M  3,93l -1,1 -2,0 0,23 1,0 1,-1 1,0 1,-1 1,-1 2,0 1,-1 2,0 1,-1 1,-1 0,-1 1,-1 4,0 0,-2 1,-1 1,0 1,-1 2,0 1,-1 2,0 1,-1 1,0 1,-1 10,0 0,-4 1,-1 2,0 0,-2 1,-1 1,-1 3,0 1,-1 1,-1 0,-1 1,-1 1,0 1,-1 2,0 1,-1 1,0 0,-1 -1,-1 0,-3 -1,-1 0,-1 -1,-1 0,-3 -1,-1 -1,-1 0,-2 -1,-1 0,-2 1,-1 0,-1 -1,-1 0,-1 -1,-1 0,-1 -1,-1 0,-2 -1,-1 0,-1 -1,-1 0,-1 -2,0 -1,-1 -1,-1 0,-2 -1,-1 0,10 -1,1 -3,0 0,2 -1,1 1,1 0,1 1,1 0,1 1,1 0,1 1,1 0,2 -1,1 -4,0 -1,1 -4,0 0,2 -1,1 -2,0 -1,-1 -5,0 -1,-1 0,-1 -1,-1 -1,0 0,2 -1,1 -2,0 -1,1 -1,1 0,1 -1,1 -1,1 0,2 -1,1 -1,0 -1,1 0,1 -1,1 0,1 -1,1 -1,1 -1,1Z"/>
<path onmouseover="hoverPath(evt)" onmouseout="recoverPath(evt)" fill="rgb(231,235,241)" d="M  93,78l 0,0 -1,-1 0,4 -1,1 -3,0 -1,1 -4,0 0,1 -1,1 -1,0 -1,1 -1,1 -1,0 -1,1 -1,1 -1,0 -1,1 -1,1 -2,0 0,1 -1,1 5,-3 1,0 1,1 3,0 1,-1 1,0 1,-1 2,-2 3,0 1,1 3,0 0,-5 1,-1 4,0 1,-1 -3,0 -1,-1 -1,-1 0,-1 -1,-2 0,-1 -1,-1 0,-2 -1,-1 0,-4 -1,-1 0,-2 -1,-1 0,-1 -1,-1 0,-3 -1,-1 0,-1 -1,-1 0,-1 -1,-1 0,-2 -1,-1 0,-3 -1,-1 0,-3 -1,-1 -1,-1 -1,0 -1,-1 0,-3 -1,-1 0,-1 -1,-1 0,-1 -1,-1 0,-1 -1,-1 0,-1 -1,-1 0,-2 -1,-1 0,-1 -1,-1 0,-1 -1,-1 0,-1 -1,-1 -1,-1 0,-3 -1,-1 0,-1 -1,-1 0,-1 -1,-1 0,-1 -1,-1 0,-2 -1,0 -1,-1 0,-1 -1,-1 0,-1 -1,-1 0,-1 -1,0 0,4 -1,1 -1,1 -2,0 -1,1 -1,0 5,-1 3,0 1,1 1,1 0,1 1,1 0,1 1,1 0,1 1,1 0,1 1,1 0,2 1,1 1,1 0,2 1,1 0,1 1,1 0,1 1,1 0,1 1,1 0,1 1,1 0,2 1,1 0,1 1,1 0,1 1,1 0,5 -2,2 3,0 1,1 0,2 -1,1 3,0 1,1 0,2 1,1 0,2 1,1 1,1 0,3 1,0 -1,-4 7,20 1,2 -6,-16 0,2 1,1 0,3 1,0 -1,-4 -1,-2 6,16Z"/>
<path onmouseover="hoverPath(evt)" onmouseout="recoverPath(evt)" fill="rgb(174,200,237)" d="M  150,9l 0,-1 1,-1 3,0 1,-1 4,0 1,-1 2,0 1,-1 2,0 1,-1 2,0 1,-1 1,0 0,-2 -43,0 0,1 1,1 0,1 1,1 0,1 1,1 0,1 1,1 0,1 1,1 1,1 0,1 5,0 1,1 0,2 -1,1 -1,0 0,1 1,1 0,2 1,1 0,2 1,1 0,2 1,1 0,2 1,1 0,2 1,1 0,2 1,1 0,2 1,1 0,2 4,0 1,-1 5,0 1,-1 0,-1 -1,-1 0,-1 -1,-1 0,-2 -1,-1 0,-1 -1,-1 0,-2 -1,-1 -1,-1 0,-3 1,-1 2,0 1,1 2,0 1,-1 1,0 0,-1 -1,-1 0,-1 -1,-1 0,-1 -1,-1 0,-1 -1,-1 0,-2 -1,-1 -2,0 -1,-1Z"/>
<path onmouseover="hoverPath(evt)" onmouseout="recoverPath(evt)" fill="rgb(244,242,235)" d="M  172,254l 0,1 48,0 0,-2 -1,-1 0,-1 -2,0 -1,-1 0,-2 1,-1 1,0 1,-1 1,0 1,-1 1,-1 1,0 1,-1 1,0 1,-1 1,0 1,-1 2,0 1,-1 0,-1 -1,-1 0,-2 1,-1 -1,-1 -2,0 -1,-1 0,-1 -1,-1 -1,-1 0,-2 1,-1 -1,-1 0,-6 -1,-1 -1,-1 0,-1 -1,-1 -1,-1 0,-1 -1,-1 0,-1 -1,-1 -1,-1 0,-1 -1,-1 -1,-1 -1,-1 0,-1 -1,-1 -1,-1 0,-1 -1,-1 -1,-1 -1,-1 -2,0 -1,-1 0,-1 -1,-1 0,-1 -1,-1 -3,0 -1,-1 -1,-1 0,-1 -1,-1 0,-1 -1,-1 -1,-1 -1,-1 0,-1 -1,-1 -1,-1 0,-1 -1,-1 -1,-1 0,3 -1,1 -1,1 -1,0 -1,1 -1,0 -1,1 -1,0 -1,1 -1,0 -1,1 -1,0 -1,1 -1,0 -1,1 -1,0 -1,1 -1,0 -1,1 -1,0 -1,1 -1,0 -1,1 9,-4 1,0 1,1 1,1 0,1 1,1 1,1 1,1 0,1 1,1 0,1 1,1 0,2 1,-1 1,0 1,-1 1,0 1,-1 1,0 1,-1 1,0 1,-1 1,0 1,-1 1,0 1,-1 1,-1 3,0 1,1 0,4 -1,1 -1,1 -1,0 -1,1 -1,0 -1,1 -1,0 -1,1 -1,0 -1,1 -1,0 -1,1 -1,0 -1,1 -1,0 -1,1 -1,0 -1,1 -1,0 -1,1 -1,0 -1,1 -1,0 -1,1 -1,0 -1,1 -1,0 -1,1 1,1 0,1 1,1 1,1 0,1 1,1 1,1 1,1 0,1 1,1 1,1 0,2 -1,1 2,0 1,1 1,1 0,1 1,1 1,1 0,1 1,1 1,1 0,1 1,1 0,3 -1,1 -1,1 -1,0 -1,1 -1,0 -1,1 -1,0 -1,1 -1,1 -4,0 0,2 -1,1 -1,0 -1,1 -4,0 0,1 -1,1 36,-54 2,0 1,1 1,1 0,1 1,1 0,0 1,1 0,2 -1,1 -2,0 -1,-1 -1,-1 0,-1 -1,-1 -1,-1 0,-2 1,-1 -36,54 50,-36 1,1 1,1 0,2 -1,1 -2,0 -1,-1 -1,-1 0,-2 1,-1 2,0 -50,36Z"/>
<path onmouseover="hoverPath(evt)" onmouseout="recoverPath(evt)" fill="rgb(171,198,237)" d="M  8,143l -1,1 1,0 1,-1 2,0 1,-1 4,0 1,-1 1,0 1,-1 1,-1 1,0 1,-1 1,0 0,-1 1,-1 2,0 1,-1 1,0 1,-1 1,-1 3,0 1,-1 1,0 1,-1 1,0 1,-1 2,0 1,-1 1,-1 1,0 1,-1 1,0 2,-2 1,0 1,-1 1,0 1,-1 1,-1 1,0 1,-1 1,-1 1,0 1,-1 1,-1 1,0 2,-2 1,-1 1,0 1,-1 1,-1 1,-1 1,-1 1,0 1,-1 1,0 1,-1 4,0 1,1 1,0 1,1 1,0 0,-2 -1,-1 0,-3 1,-1 1,0 1,-1 1,0 1,-1 1,0 1,-1 1,0 1,-1 2,0 1,-1 1,0 1,-1 1,0 1,-1 1,0 1,-1 2,0 1,-1 9,0 1,-1 2,0 1,-1 2,0 1,-1 1,-1 3,0 1,-1 1,-1 3,0 1,-1 1,0 1,-1 4,0 -2,-1 0,0 -3,1 0,0 -2,1 -4,1 -1,1 -2,0 -2,1 -1,1 -3,1 -3,0 -1,1 1,0 -10,1 -2,0 -1,1 -2,0 -1,1 -1,0 -1,1 -2,0 -1,1 -1,0 -1,1 -1,0 -1,1 -1,0 -1,1 -1,0 -1,1 -1,0 -1,1 -1,0 -1,1 -1,0 -1,1 -1,0 -1,1 -1,0 -1,1 -1,0 -1,1 -1,0 -1,1 -1,1 -1,0 -1,1 -1,1 -1,0 -1,1 -1,1 -1,1 -1,0 -2,2 -1,1 -1,1 -1,1 -1,1 -1,0 -1,1 -1,0 -1,1 -1,0 -1,1 -1,0 -1,1 -1,1 -1,0 -1,1 -1,1 -1,0 -1,1 -1,0 -1,1 -1,0 -1,1 1,0 2,-1 2,-1 -29,13 21,-10 -1,1 -1,0 -1,1 -1,0 -2,1 -1,1 -1,0 -1,1 -2,0 -1,1 -1,0 -1,1 -2,0 -1,1 -2,0 0,1 19,-9 -21,10 -2,1 -1,0 -1,1 -1,0 -1,1 -2,0 0,2 1,0 1,-1 1,0 0,-1 2,-1 1,-1 2,-1Z"/>
<path onmouseover="hoverPath(evt)" onmouseout="recoverPath(evt)" fill="rgb(234,235,231)" d="M  19,110l 0,0 -1,1 -4,0 0,1 -1,1 -1,1 -1,1 0,6 -1,1 4,0 1,1 1,1 0,5 1,0 1,-1 0,-1 -1,-1 0,-3 -1,-1 -1,-1 0,-5 1,-1 9,0 1,1 0,3 2,0 1,1 1,-1 1,0 1,-1 1,0 1,-1 1,0 1,-1 1,-1 0,-2 1,-1 1,0 1,-1 2,0 1,1 1,-1 1,0 1,-1 1,0 1,-1 1,-1 2,0 0,-1 1,-1 1,-1 2,0 0,-1 1,-1 1,-1 0,-2 2,-2 2,0 1,1 1,-1 0,0 1,-1 2,0 0,-1 1,-1 1,-1 0,-2 1,-1 0,-1 1,-1 2,0 1,-1 1,-1 1,0 1,-1 1,-1 1,0 1,-1 1,-1 1,0 0,-1 1,-1 4,0 1,-1 3,0 0,-3 -1,-1 0,-2 -1,-1 0,-3 -1,1 -1,0 -1,1 -1,1 -1,0 -1,1 -1,1 -1,1 -2,0 -1,1 -3,0 -1,-1 0,-2 -1,-1 0,-1 -1,-1 0,-2 -1,-1 0,-1 -3,0 -1,1 -1,0 -1,1 -5,0 -1,1 -2,0 -1,1 -3,0 -1,-1 1,2 0,1 1,1 0,0 1,1 0,3 1,1 0,1 1,1 0,3 1,1 0,3 -1,1 -1,0 -1,1 -2,0 -1,1 -1,0 0,1 -1,1 -1,1 -1,1 -3,0 -1,1 0,2 -1,1 -2,0 0,4 -1,1 -10,0 -1,1 -1,0 -1,1 -2,0 -1,1 -2,0 -1,1 -1,0Z"/>
<path onmouseover="hoverPath(evt)" onmouseout="recoverPath(evt)" fill="rgb(244,243,237)" d="M  72,207l 0,8 1,1 0,10 1,1 0,8 1,1 0,6 -1,1 -1,1 -1,1 2,0 1,1 0,5 1,1 0,-5 -1,-2 0,-1 1,-1 0,-1 -1,1 -4,2 4,-10 0,-3 -1,-6 1,-1 0,-8 -1,-1 0,-6 1,-1 1,-1 -1,0 -1,-1 -1,-1 -1,1 0,-3 1,0 0,-6 -1,-1 0,-1 -1,1 -4,0 4,1 1,1Z"/>
<path onmouseover="hoverPath(evt)" onmouseout="recoverPath(evt)" fill="rgb(175,199,233)" d="M  74,47l -2,0 -1,-1 0,-2 1,-1 2,0 1,-1 0,-3 -1,-1 0,-1 -1,-1 0,-1 -1,-1 0,-2 -1,-1 0,-1 -1,-1 0,-1 -1,-1 0,-1 -1,-1 0,-1 -1,-1 0,-2 -1,-1 -1,0 -1,1 -1,0 -1,1 -1,0 -1,1 -1,0 -1,1 -1,0 -2,2 -2,0 0,1 -1,1 -1,0 -1,1 -2,0 -1,1 -1,1 1,0 1,1 0,2 -1,1 1,1 0,1 1,1 0,1 1,1 0,1 1,1 0,1 1,1 0,1 1,1 0,4 -1,1 0,0 1,1 1,-1 4,0 1,1 4,0 1,1 0,2 1,1 1,1 0,3 1,1 0,4 4,0 1,1 0,1 1,1 0,2 1,1 0,1 1,1 0,2 1,0 1,-1 2,0 1,-1 1,-1 1,-1 1,0 1,-1 1,-1 1,0 0,-3 -1,-1 0,-3 -1,0 -1,-1 0,-3 -1,-1 -1,-1 0,-2 -1,-1 0,-2 -6,0 -1,-1 0,-2 1,-1Z"/>
<path onmouseover="hoverPath(evt)" onmouseout="recoverPath(evt)" fill="rgb(173,199,237)" d="M  121,31l 0,6 1,1 0,4 1,1 0,4 1,1 0,1 2,0 0,-4 1,-1 2,0 1,1 0,2 2,0 1,-1 2,0 1,-1 2,0 1,-1 1,0 1,-1 0,-1 -1,-1 0,-2 -1,-1 0,-2 -1,-1 0,-2 -1,-1 0,-2 -1,-1 0,-2 -1,-1 0,-2 -1,-1 0,-2 -1,-1 0,-1 -5,0 -1,1 -2,0 0,8 -1,1 -2,0 -1,-1 0,-1 -1,-1 0,-1 -1,0 0,1 1,1 0,1 1,1Z"/>
<path onmouseover="hoverPath(evt)" onmouseout="recoverPath(evt)" fill="rgb(186,208,237)" d="M  173,235l 0,0 1,-1 0,-3 -1,-1 -2,0 -1,-1 -1,-1 -1,-1 0,-1 -1,-1 -1,-1 0,-2 1,-1 -1,-1 -1,0 -1,-1 0,-4 -1,1 -3,0 -1,-1 0,-1 -1,-1 0,1 -1,-2 3,5 4,3 0,1 -1,1 -1,0 -1,1 -1,0 -1,1 -2,0 -1,-1 0,-3 -1,1 -3,0 0,1 -1,1 -1,0 -1,1 -4,0 -1,-1 -1,-1 1,2 0,4 -1,1 -1,1 -1,0 -1,1 -1,0 -1,1 -1,0 0,2 -1,1 -1,0 0,1 -1,1 -2,0 -1,-1 0,-3 -1,3 -1,0 0,2 -1,1 -1,1 -3,0 -1,-1 -1,1 -1,0 -1,1 -2,0 -1,-1 -1,0 -1,-1 0,2 -1,1 -1,0 -1,1 -1,0 0,2 -1,1 0,2 1,-1 2,0 1,1 0,1 1,1 1,1 0,1 1,1 0,2 53,0 0,-2 1,-1 0,-1 1,-1 4,0 1,-1 1,0 0,-2 1,-1 -1,-1 0,0 -1,-1 0,-1 -1,-1 0,-1 -1,-1 -1,-1 0,-1 -1,-1Z"/>
<path onmouseover="hoverPath(evt)" onmouseout="recoverPath(evt)" fill="rgb(244,243,237)" d="M  229,206l -1,0 -1,1 1,1 0,1 1,1 1,1 0,1 1,1 1,1 0,1 1,1 1,1 1,1 0,1 1,1 1,1 0,1 1,1 1,1 1,1 0,1 1,1 1,1 0,6 1,1 1,1 1,1 1,1 1,1 0,1 1,1 0,2 2,0 1,-1 1,0 1,-1 2,0 0,-47 -2,0 -1,1 -1,0 -1,1 -1,0 -1,1 -1,0 -1,1 -1,0 -1,1 -1,1 -3,0 -1,1 -1,1 -1,0 -1,1 -1,0 -1,1 -1,1 -1,0 -1,1Z"/>
<path onmouseover="hoverPath(evt)" onmouseout="recoverPath(evt)" fill="rgb(179,203,237)" d="M  241,143l 0,0 -1,1 -1,0 -1,1 -4,0 -1,1 -1,1 -1,0 -1,1 -1,0 -1,1 -2,0 -1,-1 0,-2 2,-2 1,0 1,-1 0,-2 -1,-1 -2,0 -1,-1 -1,-1 0,-1 -1,-1 -1,-1 0,-1 -1,-1 0,-3 -3,0 -1,-1 0,-1 -1,-1 -1,-1 0,-1 -1,-1 -1,-1 0,-1 -1,-1 -1,-1 -1,1 -1,0 -1,1 -2,0 -1,-1 0,-5 1,-1 0,-2 1,-1 2,0 1,-1 1,0 0,-3 1,-1 -1,-1 0,-1 -1,-1 -1,-1 -2,0 -1,-1 -1,-1 -2,0 -1,1 -1,0 -1,1 -3,0 0,1 -1,1 -1,0 -1,1 -1,0 -1,1 -1,0 -1,1 -1,0 -1,1 -1,0 -1,1 -1,0 -1,1 -1,0 -1,1 -3,0 0,1 -1,1 -1,0 -1,1 -1,0 -1,1 -1,0 -1,1 -1,0 -1,1 1,1 0,1 1,1 1,1 0,1 1,1 1,1 0,2 1,0 1,1 1,-1 2,0 1,1 1,0 1,-1 1,0 1,-1 1,0 0,-1 1,-1 4,0 1,1 0,1 1,1 1,0 1,1 0,1 1,1 1,1 0,1 1,0 1,1 0,2 1,1 2,0 1,1 1,1 1,-1 3,0 1,1 0,2 -1,1 -1,0 -1,1 -2,0 -1,1 -2,0 -1,-1 0,1 -1,1 -3,0 -1,1 -2,0 -1,1 -1,0 0,1 -1,1 -3,0 0,1 1,1 0,1 1,1 2,0 1,1 1,1 0,1 1,1 1,1 1,1 1,1 0,3 1,1 0,1 2,0 1,1 1,1 0,1 1,1 1,1 1,1 0,2 -1,1 1,1 0,0 1,1 0,1 1,0 1,1 0,1 1,1 0,1 1,1 1,1 0,1 1,1 0,1 1,1 1,1 0,2 4,0 1,1 0,2 -1,1 0,1 1,1 0,0 1,1 0,1 1,1 1,1 -1,-2 0,0 -1,-2 -1,-1 0,-1 1,-4 -1,-1 0,-2 1,-1 1,0 1,-1 2,0 1,1 1,-1 1,0 0,-2 1,-1 6,0 1,1 1,-1 1,0 1,-1 1,0 0,-2 1,-1 1,0 0,-1 1,-1 3,0 1,-1 1,0 1,-1 2,0 1,1 1,-1 3,0 0,-40 -1,0 -1,1 -3,0 0,1 -1,1 0,2 -1,1 -1,0 -1,1 -1,1 -1,0 -1,1 -1,0 -1,1 -55,4 0,-1 -1,-1 0,1 -1,-2 2,3 55,-4 -46,-18 -1,-1 0,-2 1,-1 2,0 1,1 0,2 -1,1 -2,0 46,18Z"/>
</svg>