<svg width="256" height="256" xmlns="http://www.w3.org/2000/svg"><script> 
var tempColor;
function hoverPath(evt){
obj = evt.target;
tempColor = obj.getAttribute("fill");
obj.setAttribute("fill","red");
//alert(tempColor);
//obj.setAttribute("stroke","red");}
function recoverPath(evt){
obj = evt.target;
obj.setAttribute("fill", tempColor);
//obj.setAttribute("stroke", tempColor);
}</script><path onmouseover="hoverPath(evt)" onmouseout="recoverPath(evt)" fill="rgb(240,240,232)" d="M  1,58l -1,0 0,41 2,0 1,-1 4,0 1,-1 4,0 1,-1 4,0 1,1 2,0 1,1 1,1 0,1 1,0 1,1 0,1 1,1 0,5 3,0 1,1 0,3 2,0 1,-1 0,-8 1,-1 5,0 0,-1 1,-1 1,0 1,-1 0,-4 -3,0 -1,-1 0,-3 -1,-1 0,-3 1,-1 3,0 1,-1 0,-4 -1,0 -1,-1 0,-3 1,-1 0,-3 1,-1 1,-1 6,0 1,1 1,1 1,0 1,1 1,0 1,1 1,1 1,0 1,1 1,0 1,1 1,1 1,1 1,1 0,2 3,0 1,-1 4,0 1,-1 3,0 1,-1 5,0 1,-1 4,0 1,-1 3,0 1,-1 4,0 1,-1 4,0 1,-1 4,0 1,-1 4,0 1,-1 1,0 0,-13 -1,-1 0,-9 -1,1 -4,0 -1,1 -5,0 -1,1 -7,0 0,3 -1,1 -20,0 -1,-1 0,-3 -1,-1 0,-1 -1,-1 0,-1 -1,-1 0,-1 -1,-1 0,-1 -1,2 0,0 -1,1 -1,0 -1,1 -8,0 0,3 -1,1 -1,0 -1,1 0,1 -1,1 0,1 -1,1 -4,0 -1,-1 0,-1 -1,1 -11,0 -1,-1 -1,1 -24,0 -1,-1 0,1 -1,1Z"/>
<path onmouseover="hoverPath(evt)" onmouseout="recoverPath(evt)" fill="rgb(244,243,235)" d="M  0,192l 0,63 111,0 0,-65 -1,0 -1,-1 -97,0 -1,1 -11,0Z"/>
<path onmouseover="hoverPath(evt)" onmouseout="recoverPath(evt)" fill="rgb(219,224,229)" d="M  113,18l 0,4 -1,1 -3,0 -1,-1 -1,-1 0,-3 -1,0 -1,-1 0,-2 -1,2 -1,0 1,1 0,3 1,1 1,1 1,1 0,3 1,1 0,1 1,1 0,1 2,0 1,1 0,3 1,0 1,-1 0,0 1,-1 1,-1 2,0 0,-6 -1,-1 0,-8 -3,0 -1,1Z"/>
<path onmouseover="hoverPath(evt)" onmouseout="recoverPath(evt)" fill="rgb(243,242,235)" d="M  121,58l -1,0 -1,-1 0,14 1,1 0,1 135,0 0,-73 -63,0 0,1 1,1 0,0 1,1 0,3 -1,1 -1,1 -1,1 -4,0 -1,1 -1,1 -1,1 -1,1 -4,0 -1,-1 -1,-1 -1,-1 -1,-1 -1,-1 0,1 -1,1 -1,1 -1,0 -1,1 -1,0 -1,1 -1,1 -1,0 -1,1 -2,0 0,1 -1,1 0,1 -2,2 0,1 -1,1 -1,1 -1,1 -1,1 -1,1 -1,1 -1,1 -1,1 -1,1 -1,1 -1,1 -3,0 1,1 1,1 0,1 1,1 1,1 0,1 1,1 1,1 1,1 0,3 -4,4 -1,1 -1,0 -1,1 0,1 -2,2 -1,0 -2,2 -1,1 -1,1 -15,0 -1,1 -2,0 91,-49 5,0 2,2 1,1 0,1 3,0 1,1 0,2 -1,1 -1,1 -1,1 0,1 -1,1 -1,1 -1,0 0,1 -1,1 -1,0 0,1 -1,1 -1,1 -1,1 -1,1 -1,1 -1,0 0,1 -1,1 -1,1 0,1 -1,1 -1,1 -1,1 -1,1 -1,1 -2,2 -1,1 -1,1 -1,1 -1,1 -1,1 0,1 -1,1 -1,1 -1,1 -1,1 -1,1 -1,1 -1,1 -1,1 -1,1 -1,1 -3,0 -1,-1 0,-3 1,-1 1,-1 1,-1 1,-1 1,-1 1,-1 1,-1 1,-1 1,-1 0,-1 1,-1 1,-1 1,-1 1,-1 1,-1 1,-1 1,-1 1,-1 1,-1 0,-1 1,-1 1,-1 1,-1 1,-1 0,-1 1,-1 1,-1 1,0 1,-1 1,-1 1,-1 1,0 1,-1 0,-2 -1,-1 0,-9 1,-1 -91,49Z"/>
<path onmouseover="hoverPath(evt)" onmouseout="recoverPath(evt)" fill="rgb(244,242,234)" d="M  120,79l 0,0 -1,1 0,100 1,1 14,0 1,1 100,0 0,-5 -1,-1 0,-4 -1,-1 0,-4 -1,-1 0,-5 -1,-1 0,-4 -1,-1 0,-5 -1,-1 0,-5 -1,-1 0,-5 -1,-1 0,-5 -1,-1 0,-4 -1,-1 0,-8 -1,-1 0,-7 1,-1 0,-5 -1,-1 0,-5 -1,-1 0,-5 -1,-1 0,-6 -2,0 -1,-1 0,-4 -1,-1 0,-1 -97,0 -1,1Z"/>
<path onmouseover="hoverPath(evt)" onmouseout="recoverPath(evt)" fill="rgb(242,241,232)" d="M  120,190l 0,0 -1,1 0,64 58,0 0,-2 -1,-1 0,-1 -1,-1 0,-1 -1,-1 0,-1 -1,-1 0,-1 -2,0 -1,-1 -1,-1 0,-2 -1,-1 0,-1 -1,-1 0,-1 -1,-1 0,-2 1,-1 -1,-1 0,-1 -1,-1 0,-2 -1,-1 0,-1 -1,-1 0,-1 -1,-1 0,-1 -1,-1 0,-1 -2,0 -1,-1 0,-1 -1,-1 0,-2 1,-1 0,-3 1,-1 0,-2 1,-1 1,0 1,-1 1,0 1,-1 1,0 1,-1 1,0 1,-1 2,0 1,-1 3,0 1,1 0,-2 1,-1 2,0 1,-1 1,0 1,-1 1,-1 2,0 1,1 1,-1 1,0 1,-1 2,0 1,-1 4,0 1,-1 5,0 0,-2 1,-1 2,0 1,-1 13,0 1,1 1,0 1,-1 3,0 1,1 8,0 -8,-1 -77,0 0,2 1,1 0,3 -1,1 -2,0 -1,-1 -1,-1 0,-3 -1,-1 0,-1 -4,0 -1,-1 -17,0 -1,1Z"/>
<path onmouseover="hoverPath(evt)" onmouseout="recoverPath(evt)" fill="rgb(177,202,235)" d="M  120,28l 0,9 -1,1 0,17 1,0 1,1 1,0 1,-1 15,0 3,-3 1,-1 1,0 1,-1 0,-1 1,-1 -1,-1 0,0 -1,-1 -1,-1 -1,-1 -1,-1 -1,-1 -1,-1 -1,0 -1,-1 -1,-1 0,-1 -1,-1 -1,-1 -1,-1 -1,-1 0,-2 1,-1 1,-1 0,-1 1,-1 0,-1 1,-1 1,-1 1,-1 1,0 0,-1 1,-1 -1,-1 0,-1 -1,-1 -1,-1 0,-1 -1,-1 -2,0 -1,1 -2,0 -1,1 -1,0 -1,1 -1,0 -1,1 -1,1 -1,1 -4,0 0,2 1,1Z"/>
<path onmouseover="hoverPath(evt)" onmouseout="recoverPath(evt)" fill="rgb(243,242,233)" d="M  223,80l 0,3 1,1 0,6 1,1 0,5 1,1 0,5 1,1 0,7 -1,1 0,5 2,0 1,1 0,5 8,0 1,1 5,0 0,-2 1,-1 7,0 1,1 3,0 0,-43 -32,0Z"/>
<path onmouseover="hoverPath(evt)" onmouseout="recoverPath(evt)" fill="rgb(244,242,234)" d="M  229,131l 0,5 1,1 0,5 1,1 0,5 1,1 0,5 1,1 0,4 1,1 0,5 1,1 0,4 1,1 0,4 2,0 1,1 0,4 1,1 0,2 1,1 7,0 1,1 6,0 0,-62 -4,0 -1,-1 -5,0 0,2 -1,1 -7,0 -1,-1 -8,0 -1,-1 0,2 1,1 0,4 1,1Z"/>
<path onmouseover="hoverPath(evt)" onmouseout="recoverPath(evt)" fill="rgb(241,240,229)" d="M  247,230l 0,9 -1,1 0,15 9,0 0,-27 -3,0 -1,-1 -2,0 -1,1 -1,0Z"/>
<path onmouseover="hoverPath(evt)" onmouseout="recoverPath(evt)" fill="rgb(235,238,237)" d="M  0,29l 0,1 3,0 1,-1 1,0 1,-1 2,0 1,-1 2,0 1,1 1,1 0,2 -1,1 2,0 1,1 1,1 0,1 1,1 0,1 1,1 0,4 1,0 1,1 1,1 0,1 1,1 0,3 1,0 1,1 1,1 0,1 1,1 0,2 2,0 1,-1 2,0 1,1 9,0 1,-1 2,0 1,1 0,1 2,0 0,-1 1,-1 0,-1 1,-1 1,-1 1,0 0,-3 1,-1 1,0 -1,-1 0,0 -1,-1 -1,-1 0,-1 -1,-1 0,-2 1,-1 2,-2 2,0 1,-1 2,0 1,-1 2,0 -1,-1 0,-1 -1,-1 0,-1 -1,-1 0,-1 -1,-1 0,-1 -1,-1 -1,-1 -1,-1 -1,-1 -1,-1 -1,-1 -1,-1 -1,-1 -1,0 -1,-1 -1,-1 -1,-1 -1,-1 -1,-1 -1,0 -1,-1 -1,-1 -1,-1 -2,-2 -1,0 -1,-1 -1,-1 -1,-1 -1,-1 -2,-2 -1,-1 -1,-1 0,-1 -27,0Z"/>
<path onmouseover="hoverPath(evt)" onmouseout="recoverPath(evt)" fill="rgb(177,202,238)" d="M  6,31l -1,0 -1,1 -4,0 0,24 2,0 0,-2 1,-1 2,0 1,1 0,1 18,0 0,-1 -1,-1 0,-1 -1,-1 -1,0 -1,-1 0,-3 -1,-1 0,-1 -1,-1 -1,0 -1,-1 0,-4 -1,-1 0,-1 -1,-1 0,-1 -1,-1 -3,0 -1,-1 0,-2 1,-1 1,0 -1,-1 0,0 -1,1 -2,0 -1,1Z"/>
<path onmouseover="hoverPath(evt)" onmouseout="recoverPath(evt)" fill="rgb(243,242,234)" d="M  24,110l 0,0 -1,-1 0,-5 -1,-1 0,-1 -1,0 -1,-1 0,-1 -1,-1 -2,0 -1,-1 -2,0 -1,1 -4,0 -1,1 -4,0 -1,1 -3,0 0,81 16,0 1,-1 94,0 0,-102 -4,0 -1,1 -4,0 -1,1 -4,0 -1,1 -3,0 -1,1 -4,0 -1,1 -4,0 -1,1 -4,0 -1,1 -4,0 -1,1 -4,0 -1,1 -5,0 -1,-1 0,-2 -1,-1 0,-2 -1,-1 -1,-1 -1,-1 -1,0 -1,-1 -1,0 -1,-1 -1,-1 -1,0 -1,-1 -1,0 -2,-2 -4,0 -1,1 0,3 -1,1 0,1 1,0 1,1 0,6 -1,1 -1,1 -3,0 0,1 1,1 0,3 3,0 1,1 0,6 -1,1 -1,1 -1,0 0,1 -1,1 -5,0 0,8 -1,1 -1,1 -4,0 -1,-1 0,-3Z"/>
<path onmouseover="hoverPath(evt)" onmouseout="recoverPath(evt)" fill="rgb(244,243,236)" d="M  38,1l 3,3 1,1 2,2 2,0 1,-1 1,0 1,-1 4,0 1,1 1,1 1,1 1,1 2,2 1,1 1,1 1,1 1,0 4,4 1,1 2,2 1,1 1,0 1,1 1,1 1,1 1,1 1,1 0,1 1,1 1,0 1,1 1,1 1,1 0,1 1,1 6,0 0,-2 1,-1 2,0 0,-4 1,-1 0,-1 1,-1 0,-1 -1,1 -4,0 -1,1 -3,0 -1,1 -6,0 -1,-1 -1,-1 -2,-2 0,-3 2,-2 1,-1 5,0 -2,-1 0,-2 1,-1 1,-1 5,-5 1,-1 1,-1 -3,2 -1,0 -1,-1 -1,0 -1,-1 -1,-1 -1,-1 0,-2 -41,0 -1,1Z"/>
<path onmouseover="hoverPath(evt)" onmouseout="recoverPath(evt)" fill="rgb(176,200,235)" d="M  84,46l 0,0 -1,-1 0,-2 1,-1 0,-1 -1,-1 0,-1 -1,-1 0,-2 -1,-1 -1,-1 0,-1 -1,-1 -1,-1 -1,0 -1,-1 -1,-1 0,-1 -1,-1 -1,-1 -1,-1 -1,-1 -1,0 -1,-1 -1,-1 -1,-1 -1,-1 -1,-1 -1,-1 -1,-1 -1,-1 -1,0 -1,-1 -1,-1 -1,-1 -1,-1 -1,-1 -1,-1 -1,-1 -1,-1 -1,-1 -2,0 -1,1 -1,0 -1,1 -4,0 -1,-1 -1,-1 -1,-1 -1,-1 -1,-1 -1,-1 -1,-1 0,-2 -7,0 1,1 0,0 1,1 1,1 1,1 1,1 1,1 1,1 1,0 1,1 1,1 1,1 1,1 1,1 1,0 1,1 1,1 1,1 1,1 1,1 1,0 1,1 1,1 1,1 1,1 1,1 1,1 1,1 1,1 1,1 0,1 1,1 0,1 1,1 0,1 1,1 0,1 1,1 0,2 -1,1 -2,0 -1,1 -2,0 -1,1 -2,0 -1,1 -1,1 1,1 0,1 1,1 1,1 1,1 0,1 5,0 1,-1 1,0 1,-1 0,-1 1,-1 2,0 1,1 0,1 1,1 0,1 1,1 0,1 1,1 0,1 1,1 0,3 18,0 0,-2 -1,-1 0,-1 -1,-1 0,-1 -1,-1 0,-2Z"/>
<path onmouseover="hoverPath(evt)" onmouseout="recoverPath(evt)" fill="rgb(217,222,225)" d="M  93,33l -2,0 0,2 -1,1 -6,0 0,1 1,1 0,1 1,1 0,3 -1,1 2,0 1,1 0,2 1,1 0,1 1,1 0,1 7,0 1,-1 5,0 1,-1 4,0 1,-1 1,0 0,-15 -2,0 -1,-1 0,-1 -1,-1 0,-1 -1,-1 0,-3 -1,-1 -1,-1 -1,-1 0,-3 -1,0 0,2 -1,1 -3,0 -1,1 0,2 -1,1 0,1 -1,1 0,4 -1,1Z"/>
<path onmouseover="hoverPath(evt)" onmouseout="recoverPath(evt)" fill="rgb(178,203,237)" d="M  102,12l 0,-1 -1,-1 -1,-1 0,-1 -1,-1 0,-7 -17,0 0,1 1,1 0,0 1,1 1,0 1,1 1,-1 0,0 1,-1 2,0 1,1 0,2 -1,1 -1,1 -3,3 -1,1 -3,3 1,0 1,1 0,2 -1,1 -5,0 -1,1 -1,1 0,1 1,1 1,1 1,1 4,0 1,-1 3,0 1,-1 4,0 1,-1 2,0 1,-1 3,0 0,-2 1,-1 1,0 0,-1 1,-1 1,0 0,-2 -1,-1Z"/>
<path onmouseover="hoverPath(evt)" onmouseout="recoverPath(evt)" fill="rgb(235,235,228)" d="M  120,0l -19,0 0,6 1,1 0,1 1,1 1,1 0,1 1,1 0,1 1,0 1,1 0,2 1,0 1,1 0,3 1,1 1,0 0,-5 1,-1 6,0 1,1 0,4 3,0 1,-1 1,-1 1,-1 1,0 1,-1 1,0 1,-1 2,0 1,-1 1,0 0,-1 -1,-1 -1,-1 -1,-1 0,-2 -1,-1 0,-1 -1,-1 -1,-1 -1,-1 0,-3Z"/>
<path onmouseover="hoverPath(evt)" onmouseout="recoverPath(evt)" fill="rgb(175,201,237)" d="M  134,0l -6,0 0,2 1,1 2,2 0,1 1,1 0,2 1,1 1,1 1,1 0,2 1,0 1,1 1,1 0,1 1,1 1,1 0,1 1,1 0,2 -1,1 0,1 -1,1 -1,0 -1,1 -1,1 0,1 -1,1 0,1 -1,1 -1,1 1,1 0,0 1,1 1,1 1,1 0,1 1,1 1,0 3,3 1,1 3,3 1,1 1,-1 0,0 1,-1 1,-1 1,-1 0,-1 -1,-1 0,0 -1,-1 -1,-1 0,-1 -1,-1 -1,-1 0,-1 -1,-1 -1,-1 -1,-1 -1,-1 0,-2 1,-1 2,0 1,1 1,1 1,0 1,-1 1,-1 1,-1 2,-2 1,-1 1,-1 1,-1 1,-1 1,-1 0,-1 1,-1 1,-1 0,-1 1,-1 0,-1 1,-1 2,0 1,-1 1,0 1,-1 1,-1 1,0 1,-1 1,0 1,-1 0,-1 1,-1 2,0 1,1 1,1 1,1 1,1 1,1 2,0 1,-1 0,0 1,-1 1,-1 1,-1 4,0 1,-1 1,-1 0,-1 -1,-1 0,0 -1,-1 0,-2Z"/>
<path onmouseover="hoverPath(evt)" onmouseout="recoverPath(evt)" fill="rgb(244,243,235)" d="M  160,213l 0,1 1,1 0,2 -1,1 2,0 1,1 0,1 1,1 0,1 1,1 0,1 1,1 0,1 1,1 0,2 1,1 0,1 1,1 0,1 1,1 0,1 1,1 0,1 1,1 0,2 -1,1 0,1 1,1 2,0 1,1 0,1 1,1 0,1 1,1 0,1 1,1 0,1 1,1 0,3 62,0 0,-18 1,-1 0,-21 -1,-1 0,-4 -1,-1 0,-4 -1,-1 0,-3 -1,-1 0,-3 -1,-1 0,-1 -22,0 -1,-1 -3,0 -1,1 -7,0 -1,1 -5,0 -1,1 -4,0 -1,1 -2,0 -1,1 -1,0 -1,1 -2,0 -1,-1 -1,1 -1,1 -1,0 -1,1 -2,0 0,2 -1,1 -2,0 -1,-1 -1,0 -1,1 -2,0 -1,1 -1,0 0,2 -1,1 -1,0 -1,1 -2,0 -1,-1 0,2 -1,1Z"/>
<path onmouseover="hoverPath(evt)" onmouseout="recoverPath(evt)" fill="rgb(171,198,238)" d="M  219,18l 0,0 1,-1 2,-2 -3,0 -1,-1 0,-1 -1,-1 -1,-1 -3,0 0,7 1,1 0,4 -1,1 -1,1 1,0 1,-1 -2,2 -1,-1 0,0 -1,1 -1,1 -1,1 -1,0 -1,1 0,1 -1,1 -1,1 -2,2 0,1 -2,2 -1,1 -5,5 -1,1 0,1 -1,1 -1,1 -1,1 -1,1 -1,1 -2,2 -1,1 -1,1 0,1 1,0 1,-1 1,-1 1,-1 1,-1 1,-1 2,-2 1,-1 1,-1 0,-1 1,-1 1,-1 1,-1 1,-1 1,-1 1,-1 1,-1 1,-1 1,-1 1,-1 1,-1 1,-1 0,-1 2,-2 0,-1 1,-1 1,0 1,-1 0,-1 -1,1 9,-9 -4,4 1,0 0,-1 1,-1 1,0 1,-1 -4,3 4,-4Z"/>
<path onmouseover="hoverPath(evt)" onmouseout="recoverPath(evt)" fill="rgb(253,253,253)" d="M  224,193l 0,0 -1,-1 -1,0 -1,1 -3,0 -1,-1 -11,0 -1,1 33,0 1,1 0,1 1,1 0,3 1,1 0,3 1,1 0,4 1,1 0,4 1,1 0,23 -1,1 0,17 1,0 0,-16 1,-1 0,-11 1,-1 1,0 1,-1 4,0 1,1 2,0 0,-1 -8,0 -1,-1 0,-1 -1,-1 0,-8 -1,-1 0,-4 -1,-1 0,-4 -1,-1 0,-4 -1,-1 0,-3 -1,-1 0,-5 1,-1 14,0 0,-1 -7,0 -1,-1 -7,0 -2,-2 0,-2 -1,-1 0,2 -1,1 -102,0 -1,-1 -14,0 -1,-1 -1,-1 0,-102 1,-1 0,-1 1,-1 100,0 1,1 0,1 1,1 0,-2 1,-1 33,0 0,-1 -136,0 -1,-1 0,-1 -1,-1 0,-35 1,-1 0,-2 -1,0 -3,3 -2,0 0,21 1,1 0,15 -1,1 -1,0 -1,1 -4,0 -1,1 -4,0 -1,1 -4,0 -1,1 -4,0 -1,1 -3,0 -1,1 -4,0 -1,1 -5,0 -1,1 -3,0 -1,1 -4,0 -1,1 -3,0 0,1 3,0 1,-1 4,0 1,-1 4,0 1,-1 4,0 1,-1 4,0 1,-1 4,0 1,-1 3,0 1,-1 4,0 1,-1 4,0 1,-1 6,0 1,1 0,104 -1,1 -94,0 -1,1 -17,0 0,4 10,0 1,-1 99,0 1,1 1,0 1,1 0,66 4,0 0,-65 1,-1 1,-1 1,-1 19,0 1,1 4,0 1,1 0,1 1,1 0,3 1,1 0,-1 -1,-4 0,-1 1,-1 79,0 1,1 7,0 3,4Z"/>
<path onmouseover="hoverPath(evt)" onmouseout="recoverPath(evt)" fill="rgb(241,240,228)" d="M  250,223l 5,0 0,-33 -13,0 0,3 1,1 0,3 1,1 0,4 1,1 0,4 1,1 0,4 1,1 0,8 1,1 0,1Z"/>
</svg>