<svg width="256" height="256" xmlns="http://www.w3.org/2000/svg"><script> 
var tempColor;
function hoverPath(evt){
obj = evt.target;
tempColor = obj.getAttribute("fill");
obj.setAttribute("fill","red");
//alert(tempColor);
//obj.setAttribute("stroke","red");}
function recoverPath(evt){
obj = evt.target;
obj.setAttribute("fill", tempColor);
//obj.setAttribute("stroke", tempColor);
}</script><path onmouseover="hoverPath(evt)" onmouseout="recoverPath(evt)" fill="rgb(247,236,145)" d="M  0,48l 0,207 11,0 0,-16 1,-1 0,-58 -1,-1 0,-6 1,-1 0,-118 1,-1 1,-1 9,0 1,-1 10,0 1,-1 11,0 1,-1 11,0 1,-1 13,0 1,-1 8,0 1,-1 11,0 1,-1 9,0 1,-1 10,0 1,-1 9,0 1,-1 11,0 1,-1 1,0 1,-1 4,0 1,1 5,0 1,-1 10,0 1,-1 9,0 1,-1 9,0 1,-1 7,0 1,-1 12,0 1,-1 11,0 1,-1 10,0 1,-1 10,0 1,-1 13,0 1,-1 5,0 0,-8 -2,0 -1,1 -10,0 -1,1 -11,0 -1,1 -11,0 -1,1 -11,0 -1,1 -11,0 -1,1 -11,0 -1,-1 0,1 -1,1 -2,0 0,1 -1,1 -5,0 -1,-1 -10,0 -1,1 -8,0 -1,1 -5,0 -1,-1 0,-16 -1,0 -1,-1 0,-15 -6,0 0,8 -1,1 0,24 -1,1 -6,0 -1,1 -11,0 -1,1 -11,0 -1,1 -10,0 0,1 -1,1 -5,0 -1,-1 -1,-1 -1,0 -1,1 -3,0 -1,1 -2,0 -1,1 -3,0 -1,1 -4,0 -1,-1 -8,0 -1,-1 0,-10 -1,4 -3,0 0,7 -1,1 -4,0 -1,1 -13,0 -1,1 -11,0 -1,1 -10,0 -1,-1 0,-43 -12,0Z"/>
<path onmouseover="hoverPath(evt)" onmouseout="recoverPath(evt)" fill="rgb(253,253,253)" d="M  13,174l 0,4 18,0 1,-1 21,0 1,-1 21,0 1,-1 20,0 1,-1 19,0 1,-1 20,0 1,1 0,1 1,1 0,43 -1,1 0,8 -1,1 0,1 -1,1 1,0 1,1 0,23 6,0 0,-2 -1,-1 0,0 -1,-1 0,-59 1,-1 0,-1 1,-1 0,0 -1,-1 0,-1 -1,-1 0,-11 1,-1 0,-1 1,-1 10,0 1,-1 3,0 1,1 1,-1 24,0 1,-1 13,0 1,-1 20,0 1,-1 16,0 1,-1 18,0 0,-4 -18,0 -1,1 -23,0 -1,1 -19,0 -1,1 -19,0 -1,1 -20,0 -1,1 -6,0 -1,-1 -1,-1 0,-1 -1,-1 0,-8 1,-1 0,-4 -1,-1 0,-57 1,-1 0,-1 1,-1 9,0 1,-1 47,0 1,1 0,0 1,-1 30,0 1,-1 21,0 0,-1 -34,0 -1,1 -69,0 -1,1 -5,0 -1,-1 -1,-1 -1,-1 0,-44 -2,0 -1,1 -1,0 0,45 -1,1 -2,0 -1,1 -10,0 -1,-1 -15,0 -1,-1 -32,0 -1,-1 -3,0 -1,1 0,0 1,1 36,0 1,1 8,0 1,1 20,0 1,1 0,41 1,1 0,31 -1,1 0,1 -1,1 -7,0 -1,1 -19,0 -1,1 -19,0 -1,1 -21,0 -1,1 -25,0 -1,-1 0,-4 1,-1 8,0 1,-1 0,-3 -10,4 -2,0 0,6 -1,1 -14,0 -1,1 -10,0 116,57 -1,-1 0,-1 -1,0 0,4 2,-2 -116,-57 190,-72 -1,0 0,17 1,-16 0,-1 -190,72 145,15 0,0 -1,2 0,11 50,-100 8,0 -56,85Z"/>
<path onmouseover="hoverPath(evt)" onmouseout="recoverPath(evt)" fill="rgb(242,242,234)" d="M  55,164l 0,3 -1,1 11,0 1,1 0,1 1,-1 21,0 1,-1 19,0 1,-1 19,0 1,-1 7,0 0,-1 1,-1 0,-29 -1,-1 0,-41 -20,0 -1,-1 -8,0 -1,-1 -36,0 -1,-1 -1,-1 0,-2 1,-1 1,-1 5,0 1,1 32,0 1,1 15,0 1,1 8,0 1,-1 2,0 0,-43 -10,0 -1,1 -9,0 -1,1 -10,0 -1,1 -9,0 -1,1 -11,0 -1,1 -8,0 -1,1 -13,0 -1,1 -11,0 -1,1 -11,0 -1,1 -10,0 -1,1 -9,0 -1,1 0,117 8,0 1,-1 14,0 0,-6 -1,0 -1,-1 0,-3 1,-1 -1,-1 0,0 -1,1 -2,0 -1,-1 0,-21 1,-1 22,0 1,1 3,0 1,1 0,21 -1,1 -3,0 0,3 -36,-43 0,-9 1,-1 9,0 1,-1 4,0 1,1 1,1 0,9 -1,1 -15,0 -1,-1 36,43Z"/>
<path onmouseover="hoverPath(evt)" onmouseout="recoverPath(evt)" fill="rgb(235,237,233)" d="M  147,134l -3,0 0,15 1,1 0,5 35,0 1,-1 0,-20Z"/>
<path onmouseover="hoverPath(evt)" onmouseout="recoverPath(evt)" fill="rgb(238,236,225)" d="M  161,180l 0,8 -1,1 0,1 -1,1 0,12 1,1 0,1 1,0 1,1 0,2 -1,1 22,0 0,-2 -1,-1 0,-29 -21,0 -1,-1 -1,-1 0,-1 -1,0 -1,-1 -1,0 -1,1 -10,0 0,1 -1,1 0,9 1,1 0,1 10,0 1,-1 1,0 0,-7 1,-1 2,0 1,1Z"/>
<path onmouseover="hoverPath(evt)" onmouseout="recoverPath(evt)" fill="rgb(241,241,234)" d="M  168,86l 51,0 1,-1 35,0 0,-52 -4,0 -1,1 -13,0 -1,1 -10,0 -1,1 -10,0 -1,1 -11,0 -1,1 -12,0 -1,1 -7,0 -1,1 -9,0 -1,1 -9,0 -1,1 -10,0 -1,1 -6,0 0,42 1,1 0,0 1,1 3,0 1,-1Z"/>
<path onmouseover="hoverPath(evt)" onmouseout="recoverPath(evt)" fill="rgb(242,241,233)" d="M  168,255l 52,0 0,-1 -8,0 -1,-1 -3,0 -1,-1 0,-20 1,-1 1,0 0,-13 1,-1 1,-1 30,0 1,1 1,1 0,10 -1,1 -1,0 0,1 -1,1 -12,0 13,1 0,1 1,0 1,1 0,2 -1,1 0,6 3,0 1,1 0,5 9,0 0,-80 -17,0 -1,1 -16,0 -1,1 -20,0 -1,1 -13,0 -1,1 -24,0 0,1 1,1 21,0 1,1 0,29 1,1 0,4 -1,1 -24,0 -1,-1 0,-2 1,-1 -1,0 -1,-1 0,-1 -1,-1 -1,0 -1,-1 0,-12 -10,0 0,1 -1,1 0,57 1,1 0,0 1,1 0,3Z"/>
<path onmouseover="hoverPath(evt)" onmouseout="recoverPath(evt)" fill="rgb(244,242,237)" d="M  211,230l 0,2 -1,1 -1,0 0,18 2,0 0,-18 1,-1 4,0 -4,-1 -1,-1Z"/>
<path onmouseover="hoverPath(evt)" onmouseout="recoverPath(evt)" fill="rgb(237,235,224)" d="M  213,222l 0,7 1,1 3,0 1,1 0,2 -1,1 -4,0 0,16 14,0 1,1 0,1 2,0 1,-1 8,0 1,-1 0,-14 1,-1 -1,0 -1,-1 0,-1 -12,0 -1,-1 0,-2 1,-1 12,0 0,-1 1,-1 1,0 0,-1 -1,0 -1,-1 0,-5 -26,0Z"/>
<path onmouseover="hoverPath(evt)" onmouseout="recoverPath(evt)" fill="rgb(243,242,235)" d="M  14,1l 0,41 8,0 1,-1 11,0 1,-1 13,0 1,-1 4,0 0,-7 1,-1 3,0 0,-2 -1,0 -1,-1 0,-1 -23,0 -1,-1 -1,-1 0,-23 1,-1 2,0 0,-1 -18,0 -1,1Z"/>
<path onmouseover="hoverPath(evt)" onmouseout="recoverPath(evt)" fill="rgb(241,240,230)" d="M  14,183l 0,56 -1,1 0,15 17,0 0,-50 -2,0 -1,-1 0,-3 1,-1 1,0 1,-1 96,0 1,1 1,1 1,1 0,13 -1,1 -1,0 0,11 2,0 1,1 0,1 5,0 0,-1 1,-1 0,-8 1,-1 0,-41 -1,-1 0,-1 -18,0 -1,1 -19,0 -1,1 -20,0 -1,1 -21,0 -1,1 -21,0 -1,1 -18,0Z"/>
<path onmouseover="hoverPath(evt)" onmouseout="recoverPath(evt)" fill="rgb(236,238,235)" d="M  21,113l 0,7 13,0 0,-7 -1,-1 -2,0 -1,1Z"/>
<path onmouseover="hoverPath(evt)" onmouseout="recoverPath(evt)" fill="rgb(243,241,233)" d="M  32,205l 0,50 27,0 0,-30 -1,0 -1,-1 0,-10 1,-1 0,-8 -1,0 -1,-1 0,-1 -26,0 -1,-1 0,1 3,1Z"/>
<path onmouseover="hoverPath(evt)" onmouseout="recoverPath(evt)" fill="rgb(237,235,224)" d="M  33,141l 0,17 1,-1 2,0 1,1 1,1 0,2 -1,1 0,1 1,0 1,1 10,0 0,-3 1,-1 2,0 1,1 0,5 -1,1 -1,1 -8,0 0,2 21,0 -12,-1 0,-1 -19,-27 0,-1 1,-1 19,0 -20,1 0,1 21,-1 2,0 1,1 0,18 -1,0 -2,-19 -21,1Z"/>
<path onmouseover="hoverPath(evt)" onmouseout="recoverPath(evt)" fill="rgb(240,238,229)" d="M  37,0l -2,0 0,2 -1,1 -2,0 0,21 1,1 0,-1 1,-1 27,0 1,-1 0,-22Z"/>
<path onmouseover="hoverPath(evt)" onmouseout="recoverPath(evt)" fill="rgb(243,241,233)" d="M  61,204l 0,0 -1,1 0,9 -1,1 0,8 1,0 1,1 0,31 75,0 0,-22 -6,0 -1,1 -1,1 -2,0 -1,-1 0,-30 -1,-1 -62,0 -1,1Z"/>
<path onmouseover="hoverPath(evt)" onmouseout="recoverPath(evt)" fill="rgb(242,241,235)" d="M  96,35l 7,0 1,-1 11,0 1,-1 11,0 1,-1 6,0 0,-24 1,-1 0,-7 -71,0 0,23 -1,1 -1,1 -27,0 22,1 0,1 3,0 1,1 0,10 8,0 1,1 2,0 1,-1 3,0 1,-1 2,0 1,-1 3,0 1,-1 3,0 1,1 1,1 3,0 0,-1 1,-1Z"/>
<path onmouseover="hoverPath(evt)" onmouseout="recoverPath(evt)" fill="rgb(254,254,254)" d="M  60,201l -29,0 27,1 0,1 1,0 0,-1 1,-1Z"/>
<path onmouseover="hoverPath(evt)" onmouseout="recoverPath(evt)" fill="rgb(240,239,231)" d="M  147,157l -3,0 0,6 1,1 0,1 1,1 4,0 1,-1 20,0 1,-1 19,0 1,-1 19,0 1,-1 23,0 1,-1 19,0 0,-71 -20,0 -1,1 -30,0 0,9 12,0 1,1 0,2 -1,1 -11,0 -1,1 0,15 -1,1 -2,0 -1,-1 0,-29 -45,0 -1,1 -9,0 0,1 -1,1 0,38 38,0 1,1 0,22 -1,1 -1,1Z"/>
<path onmouseover="hoverPath(evt)" onmouseout="recoverPath(evt)" fill="rgb(238,235,223)" d="M  162,15l 14,0 1,-1 0,-14 -32,0 0,14 1,0 0,-1 1,-1 2,0 1,1 1,1 0,1Z"/>
<path onmouseover="hoverPath(evt)" onmouseout="recoverPath(evt)" fill="rgb(236,233,221)" d="M  166,21l 0,2 1,0 1,1 0,2 -1,1 -3,0 -1,-1 -1,-1 0,-6 -13,0 -1,-1 -1,-1 0,14 3,0 1,-1 8,0 1,-1 12,0 1,1 3,0 0,-2 -6,0 -1,-1 0,-2 1,-1 6,0 1,-1 0,-3 -1,-1 -10,0Z"/>
<path onmouseover="hoverPath(evt)" onmouseout="recoverPath(evt)" fill="rgb(241,241,236)" d="M  182,0l -3,0 0,15 -1,1 -1,1 -27,0 -1,-1 0,-1 -1,-1 0,1 16,3 0,6 1,1 1,0 12,-7 1,1 0,5 -1,1 0,0 -1,1 -6,0 7,1 0,1 1,0 0,-3 -1,1 0,0 1,-8 0,-2 -1,1 0,0 2,-3 2,0 1,1 0,12 9,0 1,-1 11,0 1,-1 11,0 1,-1 11,0 1,-1 11,0 1,-1 10,0 1,-1 3,0 0,-21Z"/>
<path onmouseover="hoverPath(evt)" onmouseout="recoverPath(evt)" fill="rgb(234,231,220)" d="M  247,251l -2,0 -1,-1 0,-5 -2,0 0,6 -1,1 -1,1 -8,0 -1,1 -4,0 -1,-1 0,-1 -13,0 9,1 0,2 33,0 0,-4Z"/>
</svg>