<svg width="256" height="256" xmlns="http://www.w3.org/2000/svg"><script> 
var tempColor;
function hoverPath(evt){
obj = evt.target;
tempColor = obj.getAttribute("fill");
obj.setAttribute("fill","red");
//alert(tempColor);
//obj.setAttribute("stroke","red");}
function recoverPath(evt){
obj = evt.target;
obj.setAttribute("fill", tempColor);
//obj.setAttribute("stroke", tempColor);
}</script><path onmouseover="hoverPath(evt)" onmouseout="recoverPath(evt)" fill="rgb(171,198,238)" d="M  50,16l 0,3 -1,1 0,3 -1,1 0,2 -1,1 0,1 -1,1 0,2 2,0 1,-1 16,0 1,-1 23,0 0,-2 -1,-1 0,-5 -1,-1 0,-3 -1,-1 -11,0 -1,-1 -23,0 -1,1Z"/>
<path onmouseover="hoverPath(evt)" onmouseout="recoverPath(evt)" fill="rgb(244,242,235)" d="M  184,200l -1,0 0,4 -1,1 0,2 1,1 0,1 1,1 1,1 1,1 0,8 1,1 0,11 1,1 0,2 -1,1 -1,1 1,0 1,1 1,1 0,10 1,-6 9,0 1,1 14,0 1,1 1,0 1,1 0,4 -1,1 -20,0 0,1 1,0 1,1 0,2 20,0 0,-40 1,-1 0,-2 1,-1 2,0 0,-2 -1,-1 0,-2 -6,0 -1,-1 -2,0 -1,-1 -4,0 -1,1 -2,0 -1,-1 0,-2 -3,0 0,5 -1,1 0,1 -1,1 -2,0 -1,-1 0,-3 1,-1 0,-4 -1,-1Z"/>
<path onmouseover="hoverPath(evt)" onmouseout="recoverPath(evt)" fill="rgb(239,239,233)" d="M  192,120l 1,1 0,6 -1,1 0,5 -1,1 0,8 1,-6 0,0 1,-1 3,0 1,1 2,0 1,1 7,0 1,1 6,0 1,1 2,0 1,1 0,8 -1,1 0,0 1,1 1,1 0,6 -1,1 0,2 1,1 0,6 1,0 0,-16 1,-1 5,0 0,-2 1,-1 11,0 0,-5 1,-1 0,-5 1,-1 0,-2 1,-1 0,-1 1,-1 3,0 1,1 0,3 -1,1 0,2 -1,1 0,3 1,1 0,12 1,-6 2,0 1,-1 2,0 1,1 1,1 1,1 0,2 1,0 0,-29 -2,0 -1,-1 -1,-1 -1,-1 -1,0 -1,-1 -1,-1 0,-1 -100,0 -1,1 -10,0 3,1 6,0 1,1 0,8 1,1 2,0 1,1 2,0 0,-1 1,-1 0,-6 1,-1 1,-1 7,0 1,1 4,0 1,1 0,-1 1,-1 0,-1 1,-1 2,0 1,1 3,0 1,1 1,0 1,-1 1,0 1,-1 6,0 1,1 2,0 1,1Z"/>
<path onmouseover="hoverPath(evt)" onmouseout="recoverPath(evt)" fill="rgb(241,240,230)" d="M  0,97l 0,14 72,0 1,-1 1,0 0,-25 -5,0 -1,1 -6,0 -1,1 -6,0 -1,1 -6,0 -1,1 -6,0 -1,1 -6,0 -1,1 -6,0 -1,1 -6,0 -1,1 -7,0 -1,1 -7,0 -1,1 -3,0Z"/>
<path onmouseover="hoverPath(evt)" onmouseout="recoverPath(evt)" fill="rgb(253,253,253)" d="M  1,113l -1,0 0,3 145,0 1,-1 100,0 -1,-1 0,0 -1,-1 -1,-1 -31,0 -1,-1 -1,1 -126,0 -1,1 -3,0 -1,-1 -1,0 -1,-1 0,-26 1,-1 0,-1 1,-1 3,0 1,-1 5,0 1,-1 3,0 1,-1 3,0 1,-1 2,0 1,-1 3,0 1,-1 5,0 1,-1 7,0 1,-1 7,0 1,-1 7,0 1,-1 7,0 1,-1 9,0 1,-1 6,0 1,-1 4,0 1,-1 6,0 1,-1 7,0 1,-1 6,0 1,-1 3,0 -1,-1 -3,0 -1,1 -5,0 -1,1 -3,0 -1,-1 -1,1 -6,0 -1,1 -8,0 -1,1 -5,0 -1,1 -3,0 -1,1 -6,0 -1,1 -6,0 -1,1 -7,0 -1,1 -8,0 -1,1 -7,0 -1,1 -4,0 -1,1 -3,0 -1,1 -3,0 -1,1 -2,0 -1,1 -3,0 -1,1 -9,0 -1,-1 0,-6 -1,1 -1,0 0,6 -1,1 -2,0 -1,1 -5,0 -1,1 -6,0 -1,1 -6,0 -1,1 -6,0 -1,1 -6,0 -1,1 -6,0 -1,1 -6,0 -1,1 -6,0 -1,1 -7,0 -1,1 -9,0 0,2 2,0 1,-1 7,0 1,-1 7,0 1,-1 6,0 1,-1 6,0 1,-1 6,0 1,-1 6,0 1,-1 6,0 1,-1 6,0 1,-1 6,0 1,-1 7,0 1,1 0,27 -1,1 -1,0 -1,1Z"/>
<path onmouseover="hoverPath(evt)" onmouseout="recoverPath(evt)" fill="rgb(242,241,230)" d="M  82,73l -2,0 0,5 7,0 1,-1 3,0 1,-1 2,0 1,-1 3,0 1,-1 3,0 1,-1 4,0 1,-1 7,0 1,-1 8,0 1,-1 7,0 1,-1 6,0 1,-1 6,0 1,-1 3,0 0,-1 -2,0 -1,-1 -1,0 -1,-1 -1,0 -1,-1 -1,0 -1,-1 -1,-1 -3,0 -1,1 -3,0 -1,-1 -5,0 -1,-1 -2,0 -1,-1 -7,0 -1,-1 -1,1 0,2 -1,1 -1,1 -7,0 -1,1 -4,0 -1,-1 -1,1 0,0 -1,1 -1,1 -1,0 -1,1 -1,1 -3,0 -1,1 -1,0 -1,1 -1,1 -1,0 -1,1 -1,0 -1,1Z"/>
<path onmouseover="hoverPath(evt)" onmouseout="recoverPath(evt)" fill="rgb(245,237,146)" d="M  97,1l 2,2 0,3 1,0 1,1 1,0 1,1 1,0 1,1 1,0 1,1 1,0 1,1 1,0 1,1 1,1 1,0 1,1 3,0 1,1 1,0 1,1 1,1 1,0 1,1 1,0 1,1 1,1 1,0 1,1 1,1 1,0 1,1 1,0 1,1 0,3 -1,1 0,2 1,1 0,7 6,0 1,-1 1,0 1,-1 3,0 -1,-1 0,-2 1,-1 1,-1 2,0 1,1 1,1 0,2 -1,1 2,0 1,1 1,0 1,1 1,1 2,0 1,1 0,1 1,1 1,0 1,1 1,1 2,0 1,1 0,1 1,1 2,0 1,1 0,1 1,1 2,0 1,1 0,1 1,1 1,0 1,1 1,1 1,1 1,0 1,1 1,1 1,0 1,1 1,1 0,1 1,1 4,0 1,1 1,1 0,2 1,0 1,1 1,0 1,1 1,0 1,1 0,1 1,1 1,1 1,1 1,0 1,1 1,0 1,1 0,1 1,1 2,2 1,0 1,1 1,1 1,1 1,0 1,1 0,1 1,1 1,1 1,1 1,1 1,0 1,1 1,1 1,0 1,1 0,1 1,1 1,1 1,1 1,1 1,1 1,1 1,1 1,0 1,1 1,1 1,0 1,1 0,1 1,1 1,1 1,1 1,1 0,2 -1,1 -19,0 -1,-1 -1,0 -1,1 29,0 1,1 1,1 2,2 0,1 1,1 0,1 1,1 1,0 1,1 1,1 1,1 1,0 0,-15 -2,0 -1,-1 -1,-1 -2,0 -1,-1 0,-1 -1,-1 -1,-1 -1,-1 -1,-1 -1,-1 -1,-1 -1,0 -1,-1 -1,-1 -1,-1 -2,0 -1,-1 -1,-1 -1,-1 -1,-1 -1,-1 -1,-1 -1,-1 -1,-1 -1,-1 0,-2 -2,0 -1,-1 0,-1 -1,-1 -1,-1 -1,-1 -1,-1 -1,-1 -1,0 -1,-1 -1,0 -1,-1 0,-1 -1,-1 0,-1 -1,0 -2,-2 -1,0 -1,-1 -1,0 -1,-1 0,-1 -1,-1 -1,-1 -1,-1 -1,-1 -1,-1 -1,0 -1,-1 -1,-1 -1,0 -1,-1 -1,-1 -1,-1 -1,0 -2,-2 -1,-1 -1,0 -1,-1 -2,-2 -1,0 -1,-1 -1,-1 -1,0 -1,-1 -1,-1 -1,-1 -1,0 -1,-1 -1,-1 -1,-1 -2,0 -1,-1 0,-1 -1,-1 -1,-1 -1,0 -1,-1 -1,-1 0,-2 -1,-1 -1,-1 -1,-1 -1,-1 -1,0 -1,-1 -2,0 -1,-1 0,-1 -1,0 -1,-1 -1,-1 0,-3 -5,0 -1,1 -2,0 -1,-1 -1,0 -1,-1 -1,-1 -1,0 -1,-1 -1,-1 -1,0 -1,-1 -1,0 -1,-1 -1,-1 -1,0 -1,-1 -1,-1 -1,0 -1,-1 -1,0 -1,-1 -1,-1 -1,0 -1,-1 -1,-1 0,-2 -1,-1 -1,-1 -1,0 -1,1 -2,0 -1,-1 -1,1 -2,0 -1,-1 0,-3 -16,0 -1,1 -1,-1 -4,0 0,1 1,0 1,1 1,-1 1,-1 1,1Z"/>
<path onmouseover="hoverPath(evt)" onmouseout="recoverPath(evt)" fill="rgb(172,198,237)" d="M  127,57l -2,0 -1,-1 -4,0 -1,-1 -9,0 -1,1 -3,0 -1,1 -4,0 -1,1 -1,0 0,2 -1,1 -1,0 -1,1 -3,0 -1,1 -1,0 0,1 -1,1 0,1 2,0 1,-1 1,-1 1,0 1,-1 1,-1 30,-5 -13,-1 2,0 1,1 7,0 1,1 2,0 1,1 5,0 1,1 1,0 1,-1 5,0 1,1 1,1 1,0 1,1 1,0 1,1 1,0 1,1 2,0 1,1 0,1 4,0 1,-1 8,0 1,-1 6,0 1,-1 1,0 0,-1 -1,-1 -6,0 -1,1 -2,0 -1,1 -3,0 -1,1 -3,0 -1,-1 -1,0 -1,-1 -2,0 -1,-1 -1,0 -1,-1 -2,0 -1,-1 -1,0 -1,-1 -7,0 -1,-1 -1,0 -1,-1 -19,0 13,1 0,0 -26,5 2,0 1,-1 7,0 1,-1 0,-1 -11,3 26,-5Z"/>
<path onmouseover="hoverPath(evt)" onmouseout="recoverPath(evt)" fill="rgb(238,239,234)" d="M  234,0l -3,0 0,1 1,1 0,0 1,1 0,1 1,1 0,1 1,1 0,1 1,1 0,1 1,1 0,1 1,1 0,2 1,1 0,1 1,1 0,1 1,1 1,-1 2,0 1,-1 3,0 1,-1 3,0 1,-1 2,0 0,-16Z"/>
<path onmouseover="hoverPath(evt)" onmouseout="recoverPath(evt)" fill="rgb(175,200,237)" d="M  11,2l 0,4 8,0 1,-1 4,0 0,-1 1,-1 0,-1 1,-1 2,0 1,1 0,3 -1,1 18,0 1,1 0,3 -1,1 0,2 28,0 1,-1 11,0 0,-4 -1,-1 0,-3 -1,-1 0,-3 -73,0Z"/>
<path onmouseover="hoverPath(evt)" onmouseout="recoverPath(evt)" fill="rgb(241,241,236)" d="M  88,64l 1,-1 0,-1 1,-1 1,0 1,-1 3,0 1,-1 1,0 0,-2 1,-1 1,0 1,-1 4,0 1,-1 3,0 1,-1 11,0 1,1 4,0 1,1 1,-1 7,0 1,1 1,0 1,1 7,0 1,1 1,0 1,1 2,0 1,1 1,0 1,1 2,0 1,1 1,0 1,1 1,0 1,-1 3,0 1,-1 2,0 1,-1 8,0 1,1 1,1 0,3 1,0 1,-1 5,0 -1,-1 0,-1 -1,-1 -1,0 -1,-1 -1,-1 -1,0 -1,-1 -1,-1 -1,-1 -1,0 -1,-1 -1,-1 0,-1 -2,0 -1,-1 -1,-1 0,-1 -2,0 -1,-1 -1,-1 0,-1 -2,0 -1,-1 -1,-1 -1,0 -1,-1 -1,-1 0,-1 -2,0 -1,-1 -1,-1 -1,0 -1,-1 -2,0 -1,-1 0,-2 1,-1 -1,-1 0,0 -1,1 1,0 -1,4 -3,0 -1,1 -1,0 -1,1 -8,0 -1,-1 0,-7 -1,-1 0,-4 1,-1 0,-1 -1,0 -1,-1 -1,0 -1,-1 -1,-1 -1,0 -1,-1 -1,-1 -1,0 -1,-1 -1,0 -1,-1 -1,-1 -1,0 -1,-1 -1,0 0,5 1,1 0,5 -1,1 -1,0 -1,1 -8,0 -1,1 -3,0 -1,1 -7,0 -1,-1 0,-2 -1,-1 0,-6 -1,-1 0,-5 -1,-1 0,-9 1,-1 7,0 -1,-1 -5,0 -1,-1 0,-2 -4,0 0,2 1,1 0,3 1,1 0,6 -1,1 0,0 1,1 1,1 0,-1 -1,-1 -12,0 12,50 2,-43 0,4 1,3 0,2 -1,1 0,4 -1,1 -3,0 -1,1 -19,0 0,1 1,1 0,1 1,0 1,1 0,4 -1,1 -2,0 -1,1 -4,0 -1,1 -4,0 -1,1 -4,0 -1,1 -4,0 2,1 0,0 1,1 1,1 0,1 1,1 0,2 1,1 1,1 1,1 0,1 1,1 0,1 1,1 0,3 -1,1 15,0 1,1 2,0 1,-1 4,0 1,-1 2,0 1,-1 2,0 1,-1 3,0 2,-44 -2,43 1,-33 0,0 -1,33Z"/>
<path onmouseover="hoverPath(evt)" onmouseout="recoverPath(evt)" fill="rgb(174,199,234)" d="M  246,25l -2,0 0,1 1,1 0,1 1,1 0,1 1,1 0,1 1,1 0,1 1,1 1,1 0,1 1,1 0,1 1,1 0,1 1,1 0,1 1,1 1,1 0,-22 -4,0 -1,1 -2,0 -1,1Z"/>
<path onmouseover="hoverPath(evt)" onmouseout="recoverPath(evt)" fill="rgb(244,243,237)" d="M  0,43l 0,16 6,0 1,-1 9,0 1,1 1,-1 17,0 0,-2 -1,-1 0,-3 -1,-1 0,-1 -1,-1 -5,0 -1,-1 -4,0 -1,-1 -4,0 -1,-1 -2,0 -1,-1 -2,0 -1,-1 -3,0 -1,-1 -2,0 -1,-1 -2,0 -1,1Z"/>
<path onmouseover="hoverPath(evt)" onmouseout="recoverPath(evt)" fill="rgb(177,202,238)" d="M  30,11l -3,0 -1,-1 -18,0 0,1 -1,1 0,1 -1,1 0,3 -1,1 0,2 2,0 1,1 6,0 1,1 4,0 1,1 5,0 1,1 0,3 -1,1 0,2 -1,1 0,2 -1,1 0,2 -1,1 0,4 -1,1 0,1 -1,1 -4,0 -1,-1 0,1 -1,-1 0,-1 -1,0 -1,-1 -1,0 -1,-1 -2,0 -1,-1 -3,0 -1,-1 -3,0 0,2 4,0 1,1 2,0 1,1 3,0 1,1 1,0 -1,-1 18,-31 -11,34 3,0 1,1 4,0 1,1 5,0 1,1 1,1 0,1 1,1 0,3 1,1 0,4 -1,1 -17,0 -1,1 -2,0 -1,-1 -7,0 -1,1 -7,0 0,18 2,0 1,-1 3,0 1,-1 3,0 1,-1 2,0 1,-1 5,0 1,-1 5,0 1,-1 9,0 1,1 1,1 0,4 1,1 1,-1 0,-3 1,-1 1,-1 1,0 1,-1 1,0 1,-1 1,0 1,-1 8,0 1,1 3,0 1,1 3,0 1,1 5,0 1,-1 2,0 1,-1 3,0 1,-1 4,0 1,-1 1,0 1,-1 1,0 1,-1 1,-1 -1,0 -1,1 -2,0 -1,1 -2,0 -1,1 -4,0 -1,1 -4,0 -1,-1 -20,0 -1,-1 0,-2 1,-1 5,0 0,-1 -1,-1 0,-1 -1,-1 0,-1 -1,-1 -1,-1 -1,-1 0,-2 -1,-1 0,-1 -1,-1 -1,-1 -1,0 -1,-1 0,-2 1,-1 4,0 1,-1 4,0 1,-1 4,0 1,-1 4,0 1,-1 2,0 0,-2 -1,0 -1,-1 0,-1 -1,-1 0,-3 1,-1 19,0 1,-1 3,0 0,-1 -22,0 -1,-1 -15,0 -1,1 -4,0 -1,-1 0,-4 1,-1 0,-1 1,-1 0,-2 1,-1 0,-3 1,-1 0,-3 -3,0 -1,-1 0,-2 -3,0 -1,-1 -2,0 -1,-1 -6,0 -12,35 11,-34Z"/>
<path onmouseover="hoverPath(evt)" onmouseout="recoverPath(evt)" fill="rgb(177,202,238)" d="M  52,123l -2,0 -1,-1 0,1 -1,1 -7,0 0,3 1,1 0,7 -1,1 0,4 1,1 0,3 1,0 1,1 0,2 8,0 0,-1 -1,-1 0,-2 1,-1 2,0 1,1 3,0 1,1 2,0 0,-2 1,-1 7,0 1,1 0,2 -1,1 -3,0 0,1 2,0 2,-1 8,0 1,-1 7,0 1,1 4,0 1,-1 3,0 -1,-1 0,-2 -1,-1 0,-7 -1,-1 0,-5 -2,0 -1,-1 0,-5 -17,0 0,7 -1,1 -2,0 -1,-1 0,-7 -2,0 -1,1 -4,0 -1,1 -2,0 -1,-1 -3,0 -1,1Z"/>
<path onmouseover="hoverPath(evt)" onmouseout="recoverPath(evt)" fill="rgb(172,198,238)" d="M  120,251l 0,4 22,0 0,-3 -1,-1 0,-5 -6,0 -1,-1 -15,0 0,4 1,1Z"/>
<path onmouseover="hoverPath(evt)" onmouseout="recoverPath(evt)" fill="rgb(243,243,236)" d="M  147,243l -1,0 0,1 16,0 1,1 1,1 3,0 1,1 1,1 0,2 1,1 2,0 1,1 1,0 1,1 0,2 7,0 0,-3 -1,0 -1,-1 -1,0 -1,-1 -1,-1 -1,-1 0,-5 1,-1 0,-3 1,-1 0,-1 -1,-1 0,-5 -1,-1 0,-10 1,-1 0,-5 1,-1 1,-1 0,-1 -1,-1 0,-6 1,-1 0,-5 -2,0 -1,-1 -2,0 -1,-1 -1,1 0,2 -1,1 -2,0 -1,-1 0,-3 -1,-1 -1,0 -1,-1 -6,0 -1,1 -1,1 0,1 -1,1 -3,0 -1,-1 0,-2 -1,-1 -1,0 -1,-1 -1,-1 -7,0 -1,-1 -5,0 -1,-1 -4,0 -1,-1 -5,0 -1,1 -1,0 -1,1 -1,1 -1,0 -1,1 -1,1 -1,0 -1,1 0,2 1,1 0,4 1,1 0,4 1,1 0,4 1,1 0,5 1,-1 6,0 1,1 5,0 1,1 0,1 1,0 1,-1 5,0 1,1 5,0 1,1 1,1 1,1 0,13 1,1 0,4 -1,1 -1,0 -1,1Z"/>
<path onmouseover="hoverPath(evt)" onmouseout="recoverPath(evt)" fill="rgb(180,204,238)" d="M  0,156l 0,31 4,0 1,-1 10,0 0,-7 1,-1 1,0 1,-1 5,0 1,1 0,1 2,0 1,1 7,0 1,1 3,0 0,-2 1,-1 1,-1 1,-1 2,0 1,-1 4,0 0,-2 1,-1 5,0 1,-1 1,0 0,-2 1,-1 2,0 1,-1 0,-2 1,-1 1,-1 1,-1 1,-1 5,0 1,1 1,0 1,-1 3,0 0,-4 1,-1 0,-1 1,-1 2,0 1,1 0,2 1,1 0,2 1,1 2,0 1,-1 1,0 0,-1 1,-1 3,0 -3,-1 0,-2 -1,-1 0,-2 -1,-1 0,-5 -5,0 -1,1 -9,0 -1,1 -4,0 -1,-1 0,-3 1,-1 -2,0 0,2 -1,1 -4,0 -1,-1 -3,0 -1,-1 1,2 0,2 -1,1 -10,0 -1,-1 0,-2 -9,0 -1,-1 0,1 -1,1 -8,0 -1,1 -10,0 -1,-1 0,-6 4,8 0,1 1,0 1,1 0,2 -1,1 -10,0 -1,-1 -5,0Z"/>
<path onmouseover="hoverPath(evt)" onmouseout="recoverPath(evt)" fill="rgb(230,230,196)" d="M  9,4l 0,-4 -9,0 0,20 1,-1 0,-2 1,-1 2,0 0,-3 1,-1 0,-1 1,-1 0,-1 1,-1 20,0 -1,-1 0,-2 1,-1 0,-1 -2,4 -4,0 7,2 1,0 1,-1 8,0 1,1 2,0 1,1 2,0 1,-1 0,-1 -6,0 -30,-4Z"/>
<path onmouseover="hoverPath(evt)" onmouseout="recoverPath(evt)" fill="rgb(184,206,238)" d="M  16,193l -2,0 -1,-1 -13,0 0,32 9,0 1,-1 1,0 1,-1 3,0 1,-1 5,0 1,-1 4,0 0,-2 1,-1 4,0 0,-3 -1,-1 0,-3 -1,-1 0,-3 -1,-1 0,-3 -1,-1 0,-3 1,-1 0,-1 -1,-1 0,-2Z"/>
<path onmouseover="hoverPath(evt)" onmouseout="recoverPath(evt)" fill="rgb(174,200,238)" d="M  109,124l 0,5 1,1 0,15 -1,1 0,8 1,1 0,3 1,1 0,2 1,-1 7,0 1,-1 6,0 1,1 0,2 3,0 1,-1 5,0 1,1 5,0 1,1 4,0 0,-10 1,-1 5,0 1,1 0,2 -1,1 -2,0 0,7 10,0 1,1 6,0 1,1 6,0 1,1 6,0 1,1 0,-6 -1,-1 0,-10 1,-1 1,0 0,-1 -1,0 -1,-1 -2,0 -1,-1 -1,0 -1,-1 -1,0 -1,-1 -1,0 -1,-1 -2,0 -1,-1 -1,0 -1,-1 0,-2 -1,0 -1,-1 0,-1 -1,2 -2,0 -1,-1 -1,0 -1,-1 0,-3 -1,0 -1,-1 0,-6 1,-1 0,-4 -3,0 -1,1 0,6 -1,1 0,1 -1,1 -4,0 -1,-1 -2,0 -1,-1 -1,-1 0,-8 -6,0 -1,-1 -2,0 -1,-1 0,-1 -24,0 0,1 -1,1Z"/>
<path onmouseover="hoverPath(evt)" onmouseout="recoverPath(evt)" fill="rgb(177,201,238)" d="M  162,123l 0,0 -1,-1 0,5 -1,1 0,4 1,0 1,1 0,3 1,0 1,1 0,-1 1,-1 2,0 1,1 0,1 1,0 1,1 0,2 1,0 1,1 2,0 1,1 1,0 1,1 1,0 1,1 1,0 1,1 2,0 1,1 1,0 1,1 0,3 -1,1 -1,0 0,8 1,1 0,7 1,0 1,1 0,1 2,0 1,1 1,0 1,1 1,0 1,1 2,0 0,-2 1,-1 0,-6 -1,-1 0,-12 1,-1 0,-1 1,-1 -6,0 -1,-1 -1,-1 0,-1 -1,-1 0,-10 1,-1 0,-5 1,-1 0,-4 -1,0 -1,-1 -2,0 -1,-1 -4,0 -1,1 -1,0 -1,1 -3,0 -1,-1 -3,0 -1,-1 0,1 -1,1 0,1 -1,1 -2,0 -1,-1Z"/>
<path onmouseover="hoverPath(evt)" onmouseout="recoverPath(evt)" fill="rgb(244,243,236)" d="M  173,36l 0,0 1,1 1,1 0,1 2,0 2,2 1,1 1,0 1,1 1,1 1,1 1,0 1,1 1,1 1,0 1,1 1,1 1,1 1,0 1,1 1,1 1,1 1,0 2,2 1,1 1,0 1,1 1,1 1,0 1,1 1,1 1,1 1,1 1,1 1,1 0,1 1,0 1,1 1,0 1,1 1,1 1,0 0,-6 -4,0 -1,-1 -1,-1 -1,-1 -1,0 -1,-1 0,-3 1,-1 2,0 1,-1 8,0 1,1 0,1 2,0 1,-1 10,0 0,-2 1,-1 1,0 1,-1 0,-4 -1,-1 0,0 -1,-1 0,-1 -1,-1 0,-2 -1,-1 0,-1 -1,0 -1,-1 -1,-1 -1,-1 0,-1 -1,-1 -1,-1 -1,-1 -1,-1 0,-1 -1,-1 0,-1 -1,-1 0,-2 -1,-1 0,-1 -1,-1 -1,1 -3,0 -2,2 -3,0 1,1 0,4 -1,1 -3,0 -1,1 -8,0 -1,-1 -1,1 -1,0 -1,1 -5,0 -1,1 -8,0 -1,-1 0,-3 -1,-1 0,-4 -1,-1 0,-3 2,-2 1,0 1,-1 5,0 1,-1 7,0 1,1 0,-1 1,-1 1,-1 4,0 1,-1 6,0 1,1 1,1 0,-2 1,-1 3,0 0,-1 -3,0 -1,1 -3,0 3,4 0,2 -1,1 0,3 -8,-9 -1,0 -5,2 -5,0 -4,1 -3,0 -3,1 -3,0 -1,-1 0,-1 -1,-1 0,-4 -1,-1 0,-5 1,-1 2,0 1,-1 5,0 1,-1 6,0 0,-1 -17,0 0,36 1,-26 1,5 0,1 1,1 0,4 -2,-11 -1,26 5,-3 -1,1 -1,0 -1,1 -4,0 -1,-1 8,-1 -5,3Z"/>
<path onmouseover="hoverPath(evt)" onmouseout="recoverPath(evt)" fill="rgb(172,198,238)" d="M  181,20l -1,0 -1,1 0,1 1,1 0,4 1,1 0,3 6,0 1,-1 5,0 1,-1 1,0 0,-3 1,-1 2,0 1,1 0,3 6,0 1,-1 3,0 0,-2 -1,-1 0,-1 -1,-1 0,-5 1,-1 0,-1 -1,-1 -4,0 -1,1 -4,0 -1,1 0,3 -1,1 -2,0 -1,-1 0,-2 -5,0 -1,1 -5,0 -1,1Z"/>
<path onmouseover="hoverPath(evt)" onmouseout="recoverPath(evt)" fill="rgb(200,216,239)" d="M  243,205l 4,0 1,-1 2,0 1,1 0,15 1,1 0,2 1,1 0,3 1,1 0,4 -1,1 0,2 -1,1 -1,1 0,1 -1,1 0,2 -1,1 0,3 -1,1 0,2 -1,1 0,4 -1,1 0,1 9,0 0,-66 -4,0 0,4 -1,1 0,4 -1,1 -1,0 -1,1 -19,0 -1,-1 -2,0 -1,1 0,0 -1,1 0,6 1,-4 6,0 1,1 3,0 1,1 1,1 0,0 1,-1Z"/>
<path onmouseover="hoverPath(evt)" onmouseout="recoverPath(evt)" fill="rgb(174,200,238)" d="M  1,189l -1,0 0,1 14,0 1,1 13,0 0,-1 1,-1 9,0 0,-1 1,-1 1,0 1,-1 2,0 1,-1 4,0 1,1 1,0 1,1 0,1 1,1 0,1 1,1 0,1 1,1 0,2 1,1 2,0 1,-1 2,0 1,-1 1,0 1,-1 2,0 1,-1 3,0 1,1 0,2 -1,1 -1,0 -1,1 0,3 1,1 0,2 1,1 0,2 1,1 0,4 1,1 1,0 1,1 1,0 1,1 1,1 1,0 1,-1 6,0 1,-1 1,0 1,-1 1,0 1,-1 1,0 0,-4 1,-1 1,-1 1,-1 1,0 1,-1 1,-1 -1,-1 -1,0 -1,1 -1,0 -1,1 -1,1 -1,1 -1,1 -1,1 -1,1 -2,0 -1,-1 0,-1 -1,-1 0,-1 -1,-1 0,-3 -1,-1 0,-2 -1,-1 0,-2 -1,-1 -1,0 -1,-1 0,-3 1,-1 1,-1 -1,-1 0,-1 -1,-1 0,-1 -1,-1 0,-1 -1,-1 0,-1 -1,-1 -1,0 -1,-1 -1,0 -1,-1 0,-2 1,-1 1,0 1,-1 1,0 1,-1 1,0 1,-1 1,0 1,-1 2,0 1,-1 1,0 1,-1 1,0 1,-1 2,0 1,-1 2,0 1,-1 3,0 1,-1 1,0 1,-1 1,0 1,-1 3,0 1,1 0,3 -1,1 -1,0 0,1 1,1 0,1 2,0 1,-1 1,0 1,-1 1,0 1,-1 1,0 1,-1 2,0 1,1 1,1 0,1 1,1 0,1 1,1 0,3 1,1 0,1 1,1 1,1 3,0 1,1 7,0 1,-1 3,0 0,-8 -1,-1 0,-4 -3,0 -1,-1 -4,0 -1,-1 0,-2 -4,0 -1,1 -7,0 -1,1 -2,0 -1,-1 0,-2 -1,-1 0,-3 -1,-1 0,-10 1,-1 0,-13 -2,0 -1,-1 0,-10 -1,0 -1,1 -2,0 -1,-1 -7,0 0,5 1,1 0,5 1,1 0,7 1,1 0,2 1,1 0,2 -1,1 -3,0 -1,1 -5,0 0,3 1,1 0,2 1,1 0,2 2,0 1,1 0,2 -1,1 -3,0 0,1 -1,1 -1,0 -1,1 -4,0 -1,-1 -1,-1 0,-2 -1,-1 0,-2 -1,2 0,4 -1,1 -3,0 -1,1 -3,0 -1,-1 -3,0 -1,1 0,0 -1,1 -1,1 0,2 -1,1 -1,1 -2,0 0,2 -1,1 -1,0 -1,1 -5,0 0,2 -1,1 -4,0 -1,1 -2,0 -1,1 -1,1 0,2 -1,1 -5,0 -1,-1 -7,0 -1,-1 -2,0 -1,-1 0,-1 -3,0 -1,1 -1,0 0,7 -1,1 -10,0 -1,1Z"/>
<path onmouseover="hoverPath(evt)" onmouseout="recoverPath(evt)" fill="rgb(172,198,238)" d="M  29,255l 7,0 0,-2 1,-1 0,-1 1,-1 0,-1 1,-1 1,0 0,-2 1,-1 0,-1 1,-1 0,-4 1,-1 0,-3 1,-1 0,-3 1,-1 0,-3 1,-1 0,-3 1,-1 -1,-1 -2,0 -1,-1 -5,0 -1,1 -1,0 0,5 -1,1 0,4 -1,1 0,3 -1,1 0,1 -1,1 -3,0 -1,1 -4,0 -1,1 -8,0 -1,-1 -3,0 0,10 -1,1 0,5Z"/>
<path onmouseover="hoverPath(evt)" onmouseout="recoverPath(evt)" fill="rgb(241,241,230)" d="M  41,77l 0,3 -1,1 -1,1 -2,0 -1,-1 -1,-1 0,-4 -1,-1 -7,0 -1,1 -5,0 -1,1 -5,0 -1,1 -2,0 -1,1 -3,0 -1,1 -3,0 -1,1 -3,0 0,8 8,0 1,-1 7,0 1,-1 6,0 1,-1 6,0 1,-1 6,0 1,-1 6,0 1,-1 6,0 1,-1 6,0 1,-1 6,0 1,-1 5,0 1,-1 2,0 0,-5 -1,1 -2,0 -1,1 -7,0 -1,-1 -3,0 -1,-1 -3,0 -1,-1 -6,0 -1,1 -1,0 -1,1 -1,0 -1,1 -1,0 -1,1Z"/>
<path onmouseover="hoverPath(evt)" onmouseout="recoverPath(evt)" fill="rgb(244,243,237)" d="M  61,197l -2,0 0,2 1,1 0,2 1,1 0,1 1,1 0,2 1,1 0,2 1,1 0,2 1,1 0,3 1,0 0,-1 1,-1 1,0 1,-1 2,0 -2,-1 -1,-1 0,-4 -1,-1 0,-2 -1,-1 0,-2 -1,-1 0,-5 1,-1 1,-1 1,0 -3,1 -1,0 -1,1 -1,0 -1,1Z"/>
<path onmouseover="hoverPath(evt)" onmouseout="recoverPath(evt)" fill="rgb(244,243,237)" d="M  68,229l 0,1 -1,1 0,6 -1,1 0,4 -1,1 -5,0 4,1 0,11 14,0 0,-3 -1,-1 0,-4 1,-1 0,-1 1,-1 37,0 1,1 0,5 -1,1 0,4 2,0 0,-4 -1,0 -49,-22 1,-1 0,0 -1,1 2,-2 0,0 -2,2 3,-3 0,-4 1,-1 -1,5 -3,3 4,-9 1,-1 -1,1 -4,9 6,-11 0,0 -6,11 7,-12 -1,-1 -1,-1 1,2 1,0 -7,12 9,-12 1,0 1,-1 6,0 1,-1 1,0 1,-1 1,0 1,-1 1,0 1,-1 0,0 -15,5 -9,12 24,-18 0,-3 1,-1 -1,4 -24,18 42,12 0,-7 -1,-1 0,-8 1,-1 0,-1 1,-1 0,-3 1,-1 0,-12 -1,-1 0,-4 -1,-1 -1,-1 0,-1 -3,0 -1,1 -1,0 -1,1 -1,0 -1,1 -1,0 -1,1 -1,0 0,1 -1,1 -1,1 -1,1 15,35 -42,-12Z"/>
<path onmouseover="hoverPath(evt)" onmouseout="recoverPath(evt)" fill="rgb(173,198,236)" d="M  85,109l 0,1 18,0 0,-2 -2,0 -1,-1 -1,0 -1,-1 0,-6 -1,0 -1,-1 0,-2 1,-1 4,0 1,-1 1,0 0,-4 1,-1 -1,-1 0,-1 -1,-1 -5,0 -1,1 -8,0 0,1 -1,1 0,9 1,0 1,-1 4,0 1,1 0,7 -1,1 -1,1 -6,0 -1,1Z"/>
<path onmouseover="hoverPath(evt)" onmouseout="recoverPath(evt)" fill="rgb(173,199,238)" d="M  91,13l 0,0 1,1 0,5 1,1 0,6 1,1 0,2 5,0 1,-1 3,0 1,-1 8,0 1,-1 1,0 0,-3 -1,-1 0,-6 -1,-1 -1,0 -1,-1 -1,-1 -1,0 -1,-1 -1,0 -1,-1 -1,0 -1,-1 -1,0 -1,-1 -1,0 -1,-1 -1,0 -1,-1 0,-1 -6,0Z"/>
<path onmouseover="hoverPath(evt)" onmouseout="recoverPath(evt)" fill="rgb(173,199,238)" d="M  140,189l 1,0 1,1 7,0 1,1 1,1 1,0 1,1 1,1 0,2 1,0 0,-1 1,-1 1,-1 1,-1 8,0 1,1 1,0 1,1 1,1 0,3 1,-3 0,0 1,-1 2,0 1,1 2,0 1,1 2,0 1,1 0,6 1,-5 14,0 1,1 1,1 6,0 1,1 0,2 1,-1 6,0 1,1 2,0 1,1 5,0 0,-3 -1,1 -3,0 -1,-1 -4,0 -1,-1 -4,0 -1,-1 -3,0 -1,-1 -2,0 -1,-1 -1,-1 0,-3 -1,-1 0,-5 -1,-1 0,-5 -1,-1 0,2 1,5 0,2 1,4 0,3 -1,1 -13,0 -1,-1 -1,0 -41,-7 58,12 0,5 -1,1 0,1 -19,-13 0,0 -1,-1 -2,0 -1,-1 -1,0 -1,-1 -2,0 -1,-1 -15,0 -1,-1 -3,0 48,11 -58,-12 2,0 -2,-1 -4,0 -1,-1 -4,0 -1,-1 -5,0 -1,-1 -1,0 -1,-1 -1,-1 -1,-1 -1,-1 0,-1 -1,-1 -1,-1 -1,-1 0,-1 -1,-1 -1,0 -1,1 0,0 1,1 0,1 1,1 1,1 0,1 1,1 1,1 0,3 -1,1 -1,1 -1,1 -1,1 -1,1 -2,2 -1,1 -2,0 -1,1 -2,0 -1,1 -1,1 -2,0 -1,1 -1,0 -1,1 -1,1 1,0 1,-1 1,0 1,-1 1,0 2,-1 1,-1 5,0 1,1 0,1 1,1 1,1 0,4 1,1 0,14 -1,1 0,3 -1,1 0,1 -1,1 0,6 1,1 0,8 1,1 4,0 0,-4 -1,-1 0,-7 1,-1 2,0 1,1 11,0 0,-10 -5,0 -1,-1 -4,0 -1,1 -2,0 -1,-1 0,-5 -1,-1 0,-4 -1,-1 0,-4 -1,-1 0,-4 -1,-1 0,-4 1,-1 1,-1 1,0 1,-1 1,-1 1,0 1,-1 1,-1 1,0 1,-1 7,0 1,1 4,0 1,1Z"/>
<path onmouseover="hoverPath(evt)" onmouseout="recoverPath(evt)" fill="rgb(171,198,238)" d="M  181,213l 0,0 -1,1 -1,1 0,5 -1,1 0,8 1,1 0,5 6,0 1,-1 0,0 -1,-1 0,-11 -1,-1 0,-8 -1,-1 -1,-1 -1,-1 0,-1 -1,-1 0,1 1,2Z"/>
<path onmouseover="hoverPath(evt)" onmouseout="recoverPath(evt)" fill="rgb(177,201,236)" d="M  190,77l 0,0 -1,1 0,15 -1,1 0,8 -1,1 0,5 1,1 0,1 21,0 1,-1 2,0 1,1 0,-1 1,-1 1,-1 1,0 0,-2 -1,-1 0,-10 -1,-1 -1,-1 -1,-1 -1,0 -1,-1 -1,-1 -1,0 -1,-1 -1,0 -1,-1 -1,0 -1,-1 0,-1 -1,-1 0,-1 -1,-1 -1,-1 -1,-1 -1,0 -1,-1 -1,0 -1,-1 0,-1 -3,0 -1,-1 -1,1Z"/>
<path onmouseover="hoverPath(evt)" onmouseout="recoverPath(evt)" fill="rgb(241,240,232)" d="M  221,61l 0,0 -1,1 0,1 -1,1 0,9 1,0 1,1 1,1 1,1 1,1 1,1 1,1 0,1 6,0 0,-1 1,-1 0,-10 -1,-1 0,-5 1,-1 1,-1 6,0 1,-1 5,0 1,-1 -20,0 -1,1 -5,0Z"/>
<path onmouseover="hoverPath(evt)" onmouseout="recoverPath(evt)" fill="rgb(224,226,209)" d="M  75,118l -75,0 0,1 48,0 1,1 1,0 1,1 1,0 1,-1 5,0 1,1 1,-1 4,0 1,-1 4,0 1,1 0,0 1,-1 3,0 1,-1 1,1 14,0 1,1 0,-1 1,-1 9,0 1,1 0,0 1,-1 3,0 1,1 0,0 1,-1 -1,0 0,11 -5,-11 -25,0 -1,1 -1,-1Z"/>
<path onmouseover="hoverPath(evt)" onmouseout="recoverPath(evt)" fill="rgb(242,241,230)" d="M  80,85l -1,1 0,24 1,0 1,1 1,0 1,-1 0,-2 1,-1 1,-1 6,0 1,-1 0,-5 -2,0 -1,1 -3,0 -1,-1 0,-11 1,-1 0,-1 1,-1 8,0 1,-1 7,0 1,1 1,1 0,1 1,1 0,2 -1,1 0,4 -1,1 -1,0 -1,1 -4,0 2,1 0,6 1,0 1,1 2,0 1,1 0,3 2,0 0,-8 -1,-1 0,-5 1,-1 0,-11 1,-1 5,0 1,1 2,0 1,1 1,1 4,0 1,1 2,0 1,1 1,1 1,1 0,4 3,0 1,1 3,0 -1,-1 0,-1 -1,-1 0,-2 1,-1 1,-1 3,0 1,-1 2,0 0,-1 1,-1 0,-1 1,-1 0,-2 1,-1 0,-1 1,-1 0,-2 1,-1 0,-1 1,-1 -4,0 -1,1 -7,0 -1,1 -7,0 -1,1 -7,0 -1,1 -7,0 -1,1 -5,0 -1,1 -3,0 -1,1 -2,0 -1,1 -3,0 -1,1 -3,0 -1,1 -5,0 -1,1 -2,0 -1,1Z"/>
<path onmouseover="hoverPath(evt)" onmouseout="recoverPath(evt)" fill="rgb(244,243,236)" d="M  123,182l 0,0 1,1 1,0 1,1 5,0 1,1 4,0 1,1 4,0 1,1 4,0 1,1 7,0 1,1 15,0 1,1 2,0 1,1 1,0 1,1 2,0 1,1 1,1 3,0 1,1 11,0 0,-4 -1,-1 0,-6 -1,-1 0,-5 1,-1 2,0 1,1 0,1 1,1 0,5 1,1 0,5 1,1 0,3 1,1 2,0 1,1 3,0 1,1 4,0 1,1 4,0 1,1 1,0 1,-1 2,0 1,-1 1,-1 4,0 1,1 17,0 1,-1 1,0 0,-4 1,-1 0,-4 1,-1 5,0 -6,-1 0,-3 -1,-1 0,-6 -1,-1 0,-2 -6,0 -1,-1 -11,0 -1,-1 -7,0 -1,-1 0,-1 -1,0 0,6 -1,1 -7,0 -1,-1 -6,0 -1,-1 -10,0 -1,-1 -1,0 -1,-1 -1,0 -1,-1 -2,0 -1,-1 0,-1 -3,0 -1,-1 -6,0 -1,-1 -6,0 -1,-1 -6,0 -1,-1 -10,0 -1,-1 0,-9 1,-1 2,0 -4,11 -6,0 -1,-1 -5,0 -1,-1 -3,0 4,2 0,3 1,1 0,10 -1,1 -3,0 -1,1 -8,0 -1,1 -1,-1 0,-1 -1,0 1,1 1,1Z"/>
<path onmouseover="hoverPath(evt)" onmouseout="recoverPath(evt)" fill="rgb(173,199,238)" d="M  135,222l 0,9 1,1 0,6 1,1 0,1 1,1 8,0 1,-1 1,0 0,-2 -1,-1 0,-13 -1,-1 -1,-1 -5,0 -1,-1 -3,0 -1,1Z"/>
<path onmouseover="hoverPath(evt)" onmouseout="recoverPath(evt)" fill="rgb(240,239,227)" d="M  150,101l 0,0 -1,-1 0,10 18,0 -1,-1 -2,0 -1,-1 0,-1 -1,-1 -1,0 -1,-1 -1,-1 -2,0 -1,-1 -1,0 -1,-1 -1,0 -1,-1Z"/>
<path onmouseover="hoverPath(evt)" onmouseout="recoverPath(evt)" fill="rgb(173,199,238)" d="M  160,24l 0,0 1,1 0,1 2,0 1,1 1,0 1,1 1,1 2,2 1,1 1,0 1,1 2,0 1,-1 1,0 0,-4 -1,-1 0,-4 -1,-1 0,-4 -1,-1 0,-5 -1,-1 0,-4 -1,-1 0,-6 -30,0 0,6 1,1 0,5 1,0 1,1 2,0 1,1 0,1 1,1 1,0 1,1 1,1 0,1 6,0 1,1 0,3 1,1Z"/>
<path onmouseover="hoverPath(evt)" onmouseout="recoverPath(evt)" fill="rgb(175,200,237)" d="M  167,75l 0,0 -1,-1 -1,-1 -3,0 -1,-1 0,-1 -1,0 -1,1 -6,0 -1,1 -3,0 0,1 -1,1 0,1 -1,1 0,2 -1,1 0,1 -1,1 0,2 -1,1 0,1 -1,1 0,1 -1,1 -2,0 -1,1 -3,0 -1,1 1,1 0,1 1,1 0,2 -1,1 -5,0 -1,-1 -3,0 -1,-1 0,-4 -1,-1 -1,-1 -2,0 -1,-1 -4,0 -1,-1 -1,-1 -2,0 -1,-1 -3,0 0,11 -1,1 0,3 1,1 0,9 38,0 0,-11 1,-1 2,0 1,1 2,0 1,1 1,0 1,1 1,0 1,1 2,0 1,1 1,1 1,0 2,2 0,1 2,0 1,1 1,1 0,1 9,0 0,-2 1,-1 1,0 0,-3 1,-1 1,0 0,-1 1,-1 0,-3 1,-1 0,-11 1,-1 0,-9 -1,0 -1,-1 -7,0 -1,-1 -5,0 -1,1Z"/>
<path onmouseover="hoverPath(evt)" onmouseout="recoverPath(evt)" fill="rgb(243,242,233)" d="M  185,102l 0,0 -1,1 0,1 -1,1 -1,0 0,3 -1,1 -1,0 0,1 6,0 -1,-1 0,-7 1,-1 0,-8 1,-1 0,-15 1,-1 0,-1 1,-1 3,0 1,1 3,0 1,1 0,1 1,0 1,1 1,0 1,1 1,1 1,1 1,1 0,1 1,1 0,1 1,0 1,1 1,0 1,1 1,0 1,1 1,1 1,0 1,1 1,1 1,1 1,1 0,10 1,1 0,3 1,1 17,0 -1,-1 0,0 -1,-1 -1,-1 -1,-1 0,-1 -1,0 -1,-1 -1,-1 -1,0 -1,-1 -1,-1 -1,-1 -1,-1 -1,-1 -1,-1 -1,-1 -1,-1 0,-1 -1,0 -1,-1 -1,-1 -1,0 -1,-1 -1,-1 -1,-1 -1,-1 -1,-1 0,-1 -1,0 -1,-1 -1,-1 -1,-1 -1,0 -1,-1 -1,-1 -1,-1 -1,-1 0,-1 -1,0 -1,-1 -1,0 -1,-1 -1,-1 -1,-1 -1,-1 0,-1 -1,0 -1,-1 -1,0 -1,-1 -1,0 -1,-1 -2,0 -1,1 -6,0 -1,1 -7,0 -1,1 -6,0 -1,1 2,0 1,1 1,1 1,-1 7,0 1,1 7,0 1,1 1,0 1,1 0,1 -1,25 -1,1 1,-15 0,5 -1,7 0,2 1,-14 -1,15Z"/>
<path onmouseover="hoverPath(evt)" onmouseout="recoverPath(evt)" fill="rgb(174,200,238)" d="M  191,246l 0,4 -1,1 -2,0 -1,-1 0,-10 -1,-1 -6,0 -1,1 0,3 -1,1 0,3 1,1 0,0 1,1 1,0 1,1 1,0 1,1 0,4 12,0 0,-1 -1,0 -1,-1 0,-3 1,-1 20,0 0,-2 -1,0 -1,-1 -14,0 -1,-1 -6,0 -1,1Z"/>
<path onmouseover="hoverPath(evt)" onmouseout="recoverPath(evt)" fill="rgb(178,202,236)" d="M  222,22l 0,0 1,1 0,2 1,1 0,1 1,1 0,1 2,2 1,1 1,1 0,1 1,1 1,1 1,0 1,1 0,1 1,1 0,2 1,1 0,1 1,1 1,1 0,6 -1,1 -1,1 17,0 -1,-1 0,0 -1,-1 0,-1 -1,-1 0,-1 -1,-1 0,-1 -1,-1 0,-1 -1,-1 0,-1 -1,-1 0,-1 -1,-1 -1,-1 0,-1 -1,-1 0,-1 -1,-1 0,-1 -1,-1 -1,-1 0,-1 -1,-1 -1,-1 0,-1 -1,-1 0,-1 -1,-1 0,-2 -1,-1 0,-1 -1,-1 -1,-1 0,-1 -1,-1 0,-2 -1,-1 0,-1 -1,-1 0,-1 -1,-1 0,-1 -1,-1 -1,-1 0,-1 -1,-1 0,-4 -33,0 0,2 -1,1 -6,0 -1,1 -5,0 -1,1 -2,0 0,3 1,1 0,4 1,1 0,1 3,0 1,-1 6,0 1,-1 6,0 1,-1 2,0 1,-1 6,0 1,-1 3,0 1,-1 5,0 1,1 0,3 -1,1 -3,0 0,5 -1,1 0,2 1,0 1,-1 0,0 1,-1 3,0 1,-1 2,0 1,1 1,1Z"/>
<path onmouseover="hoverPath(evt)" onmouseout="recoverPath(evt)" fill="rgb(241,241,236)" d="M  226,205l -1,0 0,3 -1,1 0,3 -1,1 -2,0 0,2 -1,1 0,39 24,0 0,-2 1,-1 0,-4 1,-1 0,-2 1,-1 0,-3 1,-1 0,-2 1,-1 0,-1 1,-1 1,-1 0,-2 1,-1 0,-2 -1,-1 0,-3 -1,-1 0,-2 -1,-1 0,-15 -1,1 -10,0 0,2 -1,1 -2,0 -1,-1 0,-2 -1,-1 -3,0 -1,-1Z"/>
<path onmouseover="hoverPath(evt)" onmouseout="recoverPath(evt)" fill="rgb(177,201,238)" d="M  241,142l -1,1 0,5 -1,1 -11,0 0,2 -1,1 -5,0 0,17 7,0 1,1 11,0 1,1 6,0 1,1 0,2 1,1 0,6 1,1 0,3 4,0 0,-31 -2,0 -1,-1 0,-2 -1,-1 -1,-1 -1,1 -2,0 0,5 -1,1 -2,0 -1,-1 0,-12 -1,-1 -1,0 0,-2 1,0 0,-3 1,-1 0,-2 1,-1 0,-1 -1,0 0,1 -1,1 0,2 -1,1Z"/>
<path onmouseover="hoverPath(evt)" onmouseout="recoverPath(evt)" fill="rgb(175,201,238)" d="M  0,127l 0,24 6,0 1,1 8,0 -2,-1 0,-1 -3,0 -1,-1 0,-9 1,-1 2,0 1,1 0,6 8,0 1,-1 8,0 0,-4 1,-1 2,0 1,1 0,3 6,0 0,-2 -1,-1 0,-6 1,-1 0,-5 -1,-1 0,-5 1,-1 7,0 0,-1 -47,0Z"/>
<path onmouseover="hoverPath(evt)" onmouseout="recoverPath(evt)" fill="rgb(234,237,237)" d="M  11,23l -4,0 -1,-1 -2,0 -1,-1 -1,0 -1,1 -1,0 0,14 4,0 1,1 3,0 1,1 2,0 1,1 1,0 1,1 1,0 1,1 1,1 2,0 0,-1 1,-1 0,-4 1,-1 0,-2 1,-1 0,-2 1,-1 0,-2 1,-1 0,-1 -5,0 -1,-1 -4,0 -1,-1 -2,0 -8,-3 0,0 8,3Z"/>
<path onmouseover="hoverPath(evt)" onmouseout="recoverPath(evt)" fill="rgb(179,203,238)" d="M  39,191l -9,0 0,1 -1,1 0,1 1,1 0,3 -1,1 0,1 1,1 0,3 1,1 0,3 1,1 0,3 1,1 0,5 -1,1 -4,0 0,2 -1,1 -4,0 -1,1 -5,0 -1,1 -3,0 -1,1 -1,0 -1,1 -10,0 0,29 8,0 0,-6 1,-1 0,-10 1,-1 5,0 1,1 6,0 1,-1 4,0 1,-1 3,0 0,-1 1,-1 0,-3 1,-1 0,-4 1,-1 0,-5 1,-1 1,0 1,-1 7,0 1,1 2,0 1,1 1,1 0,2 -1,1 0,3 -1,1 0,3 -1,1 0,3 -1,1 0,3 -1,1 0,4 -1,1 0,1 -1,1 0,2 -1,1 -1,0 0,1 -1,1 0,1 -1,1 0,1 24,0 0,-10 -3,0 -1,-1 0,-2 1,-1 5,0 0,-4 1,-1 0,-6 1,-1 0,-1 1,-1 1,-1 1,-1 0,-4 1,-1 0,-1 1,-1 1,-1 -1,-1 -1,0 -1,1 -1,0 0,1 -1,1 -3,0 -1,-1 0,-3 -1,-1 0,-2 -1,-1 0,-2 -1,-1 0,-2 -1,-1 0,-1 -1,-1 0,-2 -1,-1 0,-2 -3,0 -1,-1 -1,-1 0,-2 -1,-1 0,-1 -1,-1 0,-1 -1,-1 0,-1 -1,0 -1,-1 -2,0 -1,1 -2,0 -1,1 -1,0 0,1 -1,1Z"/>
<path onmouseover="hoverPath(evt)" onmouseout="recoverPath(evt)" fill="rgb(244,243,237)" d="M  72,175l -1,0 2,1 1,0 1,1 1,1 0,1 1,1 0,1 1,1 0,1 1,1 0,1 1,1 0,2 -1,1 -1,1 0,1 1,0 1,1 1,1 0,2 1,1 0,2 1,1 0,3 1,1 0,1 1,1 0,1 1,-1 0,0 1,-1 3,-3 1,-1 1,0 1,-1 2,0 1,-1 1,-1 1,-1 1,0 1,-1 2,0 1,-1 1,-1 2,0 1,-1 2,0 7,-7 0,-1 -1,-1 0,0 -1,-1 0,-1 -1,-1 -1,-1 0,-1 -1,-1 0,-2 1,-1 1,-1 2,0 0,-1 -1,-1 0,-1 -1,-1 0,-1 -1,-1 -1,1 -1,0 -1,1 -1,0 -1,1 -1,0 -1,1 -4,0 -1,-1 0,-1 -1,-1 0,-3 1,-1 -2,0 -1,1 -1,0 -1,1 -3,0 -1,1 -2,0 -1,1 -2,0 -1,1 -1,0 -1,1 -1,0 -1,1 -2,0 -1,1 -1,0 -1,1 -1,0 -1,1 -1,0 -1,1 28,-12 1,1 0,-1 -1,0 -28,12Z"/>
<path onmouseover="hoverPath(evt)" onmouseout="recoverPath(evt)" fill="rgb(175,200,238)" d="M  80,247l -1,1 0,2 1,1 0,4 34,0 0,-5 1,-1 0,-3 -34,0 -1,1Z"/>
<path onmouseover="hoverPath(evt)" onmouseout="recoverPath(evt)" fill="rgb(207,220,238)" d="M  119,239l 0,4 16,0 1,1 6,0 1,1 0,5 1,1 0,-8 -7,0 -1,-1 -1,-1 0,-1 -1,-1 0,-6 -1,-1 0,-10 -1,10 -13,0 -1,-1 0,5 1,1Z"/>
<path onmouseover="hoverPath(evt)" onmouseout="recoverPath(evt)" fill="rgb(211,223,236)" d="M  142,15l 0,0 1,1 1,1 1,0 1,1 1,1 1,0 1,1 0,-1 -1,-1 -1,0 -1,-1 -1,-1 0,-1 -3,0 -2,-3 0,-4 -1,-1 0,-7 -23,0 0,2 1,-1 2,0 1,1 1,-1 3,0 1,1 2,2 0,2 1,1 1,0 1,1 1,1 1,0 1,1 1,0 1,1 1,1 1,0 1,1 2,-1 2,3Z"/>
<path onmouseover="hoverPath(evt)" onmouseout="recoverPath(evt)" fill="rgb(172,198,238)" d="M  146,247l 0,8 27,0 0,-1 -1,0 -1,-1 -2,0 -1,-1 -1,-1 0,-2 -1,-1 -3,0 -1,-1 -1,-1 -14,0 -1,1Z"/>
<path onmouseover="hoverPath(evt)" onmouseout="recoverPath(evt)" fill="rgb(173,199,238)" d="M  198,159l 0,2 1,1 0,8 -1,1 0,1 6,0 1,1 6,0 1,1 5,0 0,-12 -1,-1 0,-4 1,-1 0,-4 -1,-1 -6,0 -1,-1 0,-2 1,-1 6,0 0,-6 -2,0 -1,-1 -6,0 -1,-1 -7,0 -1,-1 -2,0 -1,-1 -1,0 -1,1 0,5 -1,1 1,1 6,0 1,1 0,2 -1,1 0,1 -1,1Z"/>
<path onmouseover="hoverPath(evt)" onmouseout="recoverPath(evt)" fill="rgb(243,246,251)" d="M  217,63l 0,6 -1,1 1,1 0,-1 1,-8 -1,1 2,-4 0,-1 1,-1 -2,0 -1,-1 0,-1 -6,0 -1,1 -2,0 0,1 1,0 1,1 1,1 1,1 3,0 4,-1 -2,4 5,-6 3,0 1,-1 29,0 0,-9 -1,0 -1,-1 -1,-1 -1,-1 0,-1 -1,-1 0,-1 -1,-1 0,-1 -1,-1 0,-1 -1,-1 -1,-1 0,-1 -1,-1 0,-1 -1,-1 0,-1 -1,-1 0,-1 -1,-1 0,-3 1,-1 3,0 1,-1 2,0 1,-1 5,0 0,-3 -1,0 -1,1 -3,0 -1,1 -3,0 -1,1 -2,0 -1,1 -2,0 -1,-1 -1,-1 0,-1 -1,-1 0,-1 -1,-1 0,-2 -1,-1 0,-1 -1,-1 0,-1 -1,-1 0,-1 -1,-1 0,-1 -1,-1 0,-1 -1,-1 -1,-1 0,-2 -2,0 0,3 1,1 0,1 1,1 1,1 0,1 1,1 0,1 1,1 0,1 1,1 0,2 1,1 0,1 1,1 1,1 0,1 1,1 0,2 1,1 0,1 1,1 0,1 1,1 1,1 0,1 1,1 1,1 0,1 1,1 0,1 1,1 0,1 1,1 1,1 0,1 1,1 0,1 1,1 0,1 1,1 0,1 1,1 0,1 1,1 0,1 1,1 1,1 0,2 -1,1 -19,0 -12,2 -5,6 8,-7 0,0 -8,7Z"/>
<path onmouseover="hoverPath(evt)" onmouseout="recoverPath(evt)" fill="rgb(177,201,237)" d="M  234,63l 0,3 1,1 0,12 -1,1 0,1 -1,1 -4,0 0,1 1,1 3,3 1,1 1,1 1,1 1,1 1,0 0,-8 -1,-1 0,-2 1,-1 0,-10 1,-1 2,0 1,1 0,10 13,0 0,-21 -5,0 0,1 -1,1 -1,0 -1,1 -5,0 -1,1 -6,0 -1,1Z"/>
<path onmouseover="hoverPath(evt)" onmouseout="recoverPath(evt)" fill="rgb(240,241,237)" d="M  240,87l 0,5 1,1 1,1 1,0 1,1 1,1 1,1 1,1 1,1 1,1 1,1 0,1 2,0 1,1 1,1 1,0 0,-23 -14,0 -1,-1 0,-10 -1,11 0,0 1,1Z"/>
</svg>