<svg width="256" height="256" xmlns="http://www.w3.org/2000/svg"><script> 
var tempColor;
function hoverPath(evt){
obj = evt.target;
tempColor = obj.getAttribute("fill");
obj.setAttribute("fill","red");
//alert(tempColor);
//obj.setAttribute("stroke","red");}
function recoverPath(evt){
obj = evt.target;
obj.setAttribute("fill", tempColor);
//obj.setAttribute("stroke", tempColor);
}</script><path onmouseover="hoverPath(evt)" onmouseout="recoverPath(evt)" fill="rgb(170,198,238)" d="M  0,66l 0,2 13,0 1,-1 8,0 1,-1 3,0 1,-1 5,0 1,1 3,0 1,1 7,0 1,-1 4,0 1,-1 2,0 1,-1 2,0 0,-3 -2,0 -1,1 -4,0 -1,1 -10,0 -1,-1 -17,0 -1,1 -5,0 -1,1 -6,0 -1,1 -4,0 -1,1Z"/>
<path onmouseover="hoverPath(evt)" onmouseout="recoverPath(evt)" fill="rgb(174,198,228)" d="M  0,164l 0,3 7,0 1,1 4,0 1,1 5,0 1,1 5,0 1,1 3,0 1,1 3,0 1,1 12,0 1,1 7,0 1,1 3,0 1,1 3,0 1,1 3,0 1,1 11,0 1,-1 5,0 1,-1 4,0 1,-1 1,0 1,-1 3,0 1,-1 1,0 1,-1 2,0 1,-1 5,0 1,1 0,11 1,1 0,27 1,1 0,12 1,1 0,9 1,1 0,9 1,1 0,10 3,0 0,-4 -1,-1 0,-13 -1,-1 0,-13 -1,-1 0,-16 -1,-1 0,-13 -1,-1 0,-18 -1,-1 0,-17 -1,-1 0,-14 -1,-1 0,-13 -1,-1 0,-14 -1,-1 0,-14 -1,-1 0,-14 -1,-1 0,-12 -1,-1 -1,0 0,1 -1,1 0,1 1,1 0,16 1,1 0,18 1,1 0,13 1,1 0,14 1,1 0,19 1,1 0,11 -1,1 -2,0 -1,1 -3,0 -1,1 -2,0 -1,1 -3,0 -1,1 -2,0 -1,1 -2,0 -1,1 -2,0 -1,1 -5,0 -1,1 -9,0 -1,-1 -3,0 -1,-1 -2,0 -1,-1 -3,0 -1,-1 -4,0 -1,-1 -9,0 -1,-1 -6,0 -1,-1 -4,0 -1,-1 -4,0 -1,-1 -4,0 -1,-1 -3,0 -1,-1 -4,0 -1,-1 -4,0 -1,-1 -2,0 -1,1Z"/>
<path onmouseover="hoverPath(evt)" onmouseout="recoverPath(evt)" fill="rgb(245,244,237)" d="M  0,246l 0,9 28,0 0,-1 -2,0 -1,-1 -2,0 -1,-1 -2,0 -1,-1 -2,0 -1,-1 -2,0 -1,-1 -2,0 -1,-1 -2,0 -1,-1 -2,0 -1,-1 -2,0 -1,-1 -1,1Z"/>
<path onmouseover="hoverPath(evt)" onmouseout="recoverPath(evt)" fill="rgb(245,244,237)" d="M  110,60l 0,12 1,1 0,15 1,1 0,13 1,1 0,14 1,1 0,13 1,1 0,14 1,1 0,15 1,1 0,1 1,0 1,-1 7,0 1,-1 5,0 1,-1 5,0 1,-1 3,0 1,-1 2,0 1,-1 1,0 1,-1 1,0 1,-1 1,0 1,-1 1,-1 1,0 1,-1 1,0 1,-1 5,0 1,-1 7,0 1,-1 4,0 1,-1 3,0 1,-1 1,0 1,-1 3,0 1,-1 2,0 1,-1 3,0 1,-1 3,0 1,-1 3,0 1,-1 3,0 1,-1 2,0 1,-1 3,0 1,-1 3,0 1,-1 2,0 1,-1 3,0 1,-1 4,0 1,-1 4,0 1,-1 2,0 1,-1 2,0 1,-1 2,0 1,-1 2,0 1,-1 2,0 1,-1 1,0 1,-1 2,0 1,-1 2,0 0,-84 -4,0 -1,-1 -4,0 -1,-1 -7,0 -1,1 -2,0 -1,1 -1,0 -1,1 -1,0 -1,1 -2,0 -1,1 -1,0 -1,1 -2,0 -1,1 -3,0 -1,1 -9,0 -1,1 -18,0 -1,1 -2,0 -1,1 -2,0 -1,1 -2,0 -1,1 -1,0 -1,1 -3,0 -1,1 -3,0 -1,1 -22,0 -1,-1 -2,0 -1,1 -7,0 -1,1 -9,0 -1,1 -8,0 -1,1Z"/>
<path onmouseover="hoverPath(evt)" onmouseout="recoverPath(evt)" fill="rgb(244,243,235)" d="M  118,170l -1,0 0,10 1,1 0,8 1,0 1,-1 4,0 1,1 3,0 0,-2 1,-1 3,0 1,-1 4,0 1,-1 4,0 1,1 3,0 0,-2 1,-1 3,0 1,-1 4,0 1,-1 3,0 1,-1 3,0 1,-1 4,0 1,-1 4,0 1,1 3,0 0,-2 1,-1 3,0 1,-1 4,0 1,-1 3,0 1,-1 4,0 1,-1 3,0 1,-1 5,0 1,1 2,0 0,-2 1,-1 4,0 1,-1 2,0 1,-1 3,0 1,1 1,0 1,1 0,2 1,1 0,1 1,1 5,0 1,-1 6,0 1,1 4,0 0,-2 1,-1 5,0 1,-1 6,0 0,-33 -1,0 -1,1 -3,0 -1,1 -3,0 -1,1 -2,0 -1,1 -3,0 -1,1 -3,0 -1,1 -2,0 -1,1 -3,0 -1,1 -3,0 -1,1 -3,0 -1,1 -3,0 -1,1 -3,0 -1,1 -3,0 -1,1 -4,0 -1,1 -3,0 -1,1 -3,0 -1,1 -3,0 -1,1 -3,0 -1,1 -1,0 -1,1 -2,0 -1,1 -2,0 -1,1 -3,0 -1,1 -11,0 -1,1 -3,0 -1,1 -1,0 -1,1 -1,0 -1,1 -1,0 -1,1 -1,1 -2,0 -1,1 -1,0 -1,1 -3,0 -1,1 -8,0 -1,1 -6,0 -1,1 -7,0 -1,1Z"/>
<path onmouseover="hoverPath(evt)" onmouseout="recoverPath(evt)" fill="rgb(244,243,236)" d="M  0,1l 0,62 4,0 1,-1 6,0 1,-1 5,0 1,-1 19,0 1,1 8,0 1,-1 4,0 1,-1 4,0 1,-1 2,0 1,-1 3,0 1,-1 0,-3 1,-1 1,-1 8,0 1,1 0,1 1,1 0,1 6,0 1,-1 1,0 0,-3 1,-1 0,-1 1,-1 0,-1 -1,-1 0,-11 1,-1 3,0 0,-2 1,-1 2,0 0,-2 1,-1 2,0 0,-6 -1,-1 0,-13 -1,-1 0,-7 -92,0 -1,1Z"/>
<path onmouseover="hoverPath(evt)" onmouseout="recoverPath(evt)" fill="rgb(244,243,237)" d="M  1,169l -1,0 0,69 3,0 1,1 1,0 1,1 2,0 1,1 2,0 1,1 2,0 1,1 2,0 1,1 1,0 1,1 2,0 1,1 2,0 1,1 2,0 1,1 2,0 1,1 2,0 1,1 2,0 1,1 2,0 1,1 2,0 1,1 1,0 1,1 0,1 63,0 0,-9 -1,-1 0,-9 -1,-1 0,-9 -1,-1 0,-12 -1,-1 0,-27 -1,-1 0,-11 -3,0 -1,1 -2,0 -1,1 -1,0 -1,1 -3,0 -1,1 -1,0 -1,1 -4,0 -1,1 -5,0 -1,1 -13,0 -1,-1 -3,0 -1,-1 -3,0 -1,-1 -3,0 -1,-1 -7,0 -1,-1 -12,0 -1,-1 -3,0 -1,-1 -3,0 -1,-1 -5,0 -1,-1 -5,0 -1,-1 -4,0 -1,-1Z"/>
<path onmouseover="hoverPath(evt)" onmouseout="recoverPath(evt)" fill="rgb(173,199,238)" d="M  0,241l 0,2 2,0 1,1 2,0 1,1 2,0 1,1 2,0 1,1 2,0 1,1 2,0 1,1 2,0 1,1 2,0 1,1 2,0 1,1 2,0 1,1 0,2 14,0 -2,-1 -2,0 -1,-1 -2,0 -1,-1 -2,0 -1,-1 -2,0 -1,-1 -2,0 -1,-1 -2,0 -1,-1 -2,0 -1,-1 -2,0 -1,-1 -1,0 -1,-1 -2,0 -1,-1 -2,0 -1,-1 -2,0 -1,-1 -2,0 -1,-1 -1,0 -1,-1 -1,0 -1,1Z"/>
<path onmouseover="hoverPath(evt)" onmouseout="recoverPath(evt)" fill="rgb(243,242,235)" d="M  0,117l 0,44 4,0 1,1 4,0 1,1 4,0 1,1 3,0 1,1 4,0 1,1 4,0 1,1 4,0 1,1 6,0 1,1 9,0 1,1 4,0 1,1 3,0 1,1 2,0 1,1 3,0 1,1 7,0 1,-1 5,0 1,-1 2,0 1,-1 2,0 1,-1 2,0 1,-1 3,0 1,-1 2,0 1,-1 3,0 1,-1 2,0 0,-9 -1,-1 0,-19 -1,-1 0,-14 -1,-1 0,-13 -1,-1 0,-18 -1,-1 0,-16 -1,-1 0,-3 1,-1 0,-1 1,-1 2,0 0,-1 -3,0 -1,-1 0,-4 -3,0 -1,1 -1,0 -1,1 -1,0 -1,1 -8,0 -1,1 -12,0 -1,1 -6,0 -1,1 -3,0 -1,1 -2,0 -1,1 -2,0 0,2 2,0 1,1 0,1 1,1 0,2 -1,1 1,1 1,0 1,1 1,0 1,1 1,1 1,1 1,1 0,1 1,1 0,4 -1,1 -1,0 -1,1 -3,0 -1,1 -4,0 -1,-1 -1,0 0,5 -1,1 -4,0 -1,-1 0,-1 -1,-1 0,-2 1,-1 0,-7 -2,0 -1,-1 -3,0 -1,-1 -1,0 -1,1 -17,0 -1,1 -9,0 -1,-1 -3,0 -1,-1 -3,0Z"/>
<path onmouseover="hoverPath(evt)" onmouseout="recoverPath(evt)" fill="rgb(239,238,230)" d="M  45,69l -9,0 -1,-1 -3,0 -1,-1 -3,0 -1,1 -3,0 -1,1 -8,0 -1,1 -14,0 0,8 4,0 1,1 3,0 1,1 7,0 1,-1 17,0 1,-1 3,0 1,1 3,0 1,1 2,0 1,1 0,9 -1,1 1,1 0,1 2,0 0,-5 1,-1 3,0 1,1 2,0 1,-1 3,0 1,-1 1,0 0,-2 -1,-1 0,-1 -1,-1 -1,-1 -1,-1 -1,0 -1,-1 -1,0 -1,-1 -1,-1 0,-1 -1,-1 0,-2 1,-1 -2,0 -1,-1 0,-2 -3,0 -1,1Z"/>
<path onmouseover="hoverPath(evt)" onmouseout="recoverPath(evt)" fill="rgb(223,224,221)" d="M  87,37l 0,8 1,1 0,3 -1,1 0,1 -1,1 0,2 1,-1 6,0 1,-1 2,0 0,-1 1,-1 0,-1 -1,-1 0,-12 -1,-1 0,-5 -1,0 0,2 -1,1 -2,0 0,2 -1,1 -2,0 -1,1Z"/>
<path onmouseover="hoverPath(evt)" onmouseout="recoverPath(evt)" fill="rgb(181,199,220)" d="M  93,57l 5,0 1,1 0,4 2,0 0,-18 -1,-1 0,-13 -1,-1 0,-14 -1,-1 0,-14 -3,0 0,6 1,1 0,13 1,1 0,13 1,1 0,12 1,1 0,3 -1,1 0,1 -1,1 -2,0 -1,1 -6,0 -1,1 -3,0 -1,1 -8,0 -1,-1 0,-1 -1,-1 0,-1 -6,0 -1,1 0,3 -1,1 -1,1 -3,0 -1,1 -2,0 -1,1 0,2 2,0 1,-1 6,0 1,-1 12,0 1,-1 8,0 1,-1 1,0 1,-1 1,0 1,-1Z"/>
<path onmouseover="hoverPath(evt)" onmouseout="recoverPath(evt)" fill="rgb(246,235,139)" d="M  103,45l 0,21 1,1 0,12 1,1 0,14 1,1 0,14 1,1 0,14 1,1 0,13 1,1 0,14 1,1 0,17 1,1 0,18 1,1 0,13 1,1 0,16 1,1 0,13 1,1 0,13 1,1 0,5 4,0 0,-11 -1,-1 0,-11 -1,-1 0,-6 -1,-1 0,-2 1,-1 0,-8 -1,-1 0,-13 -1,-1 0,-6 1,-1 0,0 -1,-1 0,-8 -1,-1 0,-12 -1,0 -1,-1 0,-5 1,-1 0,-14 -1,-1 0,-14 -1,-1 0,-13 -1,-1 0,-14 -1,-1 0,-13 -1,-1 0,-15 -1,-1 0,-14 -1,0 -1,-1 0,-6 1,-1 0,-15 -1,-1 0,-12 -1,-1 0,-18 -1,-1 0,-3 -4,0 0,13 1,1 0,14 1,1 0,13 1,1Z"/>
<path onmouseover="hoverPath(evt)" onmouseout="recoverPath(evt)" fill="rgb(244,243,236)" d="M  108,25l 0,9 1,1 0,16 1,1 1,0 1,1 14,0 1,-1 3,0 1,-1 3,0 1,-1 4,0 1,-1 13,0 1,1 11,0 1,-1 4,0 1,-1 1,0 1,-1 2,0 1,-1 1,0 1,-1 1,0 1,-1 2,0 1,-1 2,0 1,-1 1,0 1,-1 1,0 1,-1 3,0 1,-1 4,0 1,1 2,0 1,1 11,0 1,-1 5,0 1,-1 2,0 1,-1 2,0 1,-1 1,0 1,-1 1,0 1,-1 1,0 1,-1 1,0 1,-1 2,0 1,-1 6,0 1,1 4,0 1,1 6,0 0,-34 -149,0 0,2 1,1 0,18 1,1Z"/>
<path onmouseover="hoverPath(evt)" onmouseout="recoverPath(evt)" fill="rgb(244,242,235)" d="M  118,195l 0,2 1,1 0,13 1,1 0,10 -1,1 4,0 1,-1 4,0 0,-2 1,-1 4,0 1,-1 5,0 1,1 2,0 1,-1 3,0 1,-1 1,0 0,-2 1,-1 2,0 1,-1 4,0 1,1 1,0 0,-4 1,-1 6,0 1,1 0,3 -1,1 1,1 1,0 1,1 4,0 1,-1 2,0 0,-2 1,-1 3,0 1,-1 2,0 1,-1 3,0 1,-1 4,0 1,1 3,0 1,-1 3,0 0,-2 1,-1 3,0 1,-1 3,0 1,-1 3,0 1,-1 3,0 1,-1 4,0 1,1 1,0 0,-2 1,-1 3,0 1,-1 3,0 1,-1 4,0 1,1 10,0 1,-1 1,0 1,-1 1,0 1,-1 1,-1 1,-1 2,0 0,-23 -5,0 -1,1 -5,0 0,2 -1,1 -6,0 -1,-1 -4,0 -1,1 -7,0 -1,-1 -1,-1 0,-1 -1,-1 0,-2 -1,0 -1,-1 -1,0 -1,1 -2,0 -1,1 -4,0 0,2 -1,1 -4,0 -1,-1 -3,0 -1,1 -3,0 -1,1 -4,0 -1,1 -3,0 -1,1 -4,0 -1,1 -3,0 0,2 -1,1 -5,0 -1,-1 -2,0 -1,1 -4,0 -1,1 -3,0 -1,1 -3,0 -1,1 -4,0 -1,1 -3,0 0,2 -1,1 -5,0 -1,-1 -2,0 -1,1 -4,0 -1,1 -3,0 0,2 -1,1 -5,0 -1,-1 -2,0 0,2 -1,1 -2,0Z"/>
<path onmouseover="hoverPath(evt)" onmouseout="recoverPath(evt)" fill="rgb(244,243,236)" d="M  120,227l 0,3 1,1 0,11 1,1 0,12 133,0 0,-59 -1,0 -1,1 0,0 -1,1 -1,1 -1,0 -1,1 -1,0 -1,1 -12,0 -1,-1 -2,0 -1,1 -3,0 -1,1 -3,0 0,2 -1,1 -3,0 -1,-1 -2,0 -1,1 -3,0 -1,1 -3,0 -1,1 -3,0 -1,1 -3,0 0,2 -1,1 -3,0 -1,1 -5,0 -1,-1 -2,0 -1,1 -3,0 -1,1 -2,0 -1,1 -3,0 0,2 -1,1 -2,0 -1,1 -6,0 -1,-1 -1,0 -1,-1 -1,-1 0,-2 1,-1 0,-1 -4,0 0,4 -1,1 -3,0 -1,-1 -2,0 -1,1 -2,0 0,2 -1,1 -1,0 -1,1 -3,0 -1,1 -4,0 -1,-1 -3,0 -1,1 -4,0 0,2 -1,1 -4,0 -1,1 -4,0Z"/>
<path onmouseover="hoverPath(evt)" onmouseout="recoverPath(evt)" fill="rgb(170,198,237)" d="M  127,165l -7,0 -1,1 -3,0 -1,-1 0,2 1,0 1,1 1,-1 7,0 1,-1 1,-1 1,1 4,0 1,-1 8,0 1,-1 3,0 1,-1 1,0 1,-1 2,0 1,-1 1,-1 1,0 1,-1 1,0 1,-1 1,0 1,-1 3,0 1,-1 11,0 1,-1 3,0 1,-1 2,0 1,-1 2,0 1,-1 1,0 1,-1 3,0 1,-1 3,0 1,-1 3,0 1,-1 3,0 1,-1 4,0 1,-1 3,0 1,-1 3,0 1,-1 3,0 1,-1 3,0 1,-1 3,0 1,-1 3,0 1,-1 2,0 1,-1 3,0 1,-1 3,0 1,-1 2,0 1,-1 3,0 1,-1 3,0 1,-1 2,0 0,-5 -1,0 -1,1 -2,0 -1,1 -1,0 -1,1 -2,0 -1,1 -2,0 -1,1 -2,0 -1,1 -2,0 -1,1 -2,0 -1,1 -4,0 -1,1 -4,0 -1,1 -3,0 -1,1 -2,0 -1,1 -3,0 -1,1 -3,0 -1,1 -2,0 -1,1 -3,0 -1,1 -3,0 -1,1 -3,0 -1,1 -3,0 -1,1 -2,0 -1,1 -3,0 -1,1 -1,0 -1,1 -3,0 -1,1 -4,0 -1,1 -7,0 -1,1 -5,0 -1,1 -1,0 -1,1 -1,0 -1,1 -1,1 -1,0 -1,1 -1,0 -1,1 -1,0 -1,1 -2,0 -1,1 -3,0 -1,1 -5,0 -1,1 -5,0 0,2 -1,-1Z"/>
<path onmouseover="hoverPath(evt)" onmouseout="recoverPath(evt)" fill="rgb(170,198,237)" d="M  127,55l -16,0 -1,-1 -1,0 -1,-1 0,4 3,0 1,1 4,0 1,-1 8,0 1,-1 1,-1 1,1 7,0 1,-1 7,0 1,-1 4,0 1,1 20,0 1,-1 3,0 1,-1 3,0 1,-1 1,0 1,-1 2,0 1,-1 2,0 1,-1 2,0 1,-1 18,0 1,-1 9,0 1,-1 3,0 1,-1 2,0 1,-1 1,0 1,-1 2,0 1,-1 1,0 1,-1 1,0 1,-1 2,0 1,-1 9,0 1,1 4,0 1,1 3,0 0,-5 -7,0 -1,-1 -4,0 -1,-1 -4,0 -1,1 -2,0 -1,1 -1,0 -1,1 -1,0 -1,1 -1,0 -1,1 -1,0 -1,1 -2,0 -1,1 -2,0 -1,1 -5,0 -1,1 -13,0 -1,-1 -2,0 -1,-1 -2,0 -1,1 -3,0 -1,1 -1,0 -1,1 -1,0 -1,1 -2,0 -1,1 -2,0 -1,1 -1,0 -1,1 -1,0 -1,1 -2,0 -1,1 -1,0 -1,1 -4,0 -1,1 -13,0 -1,-1 -11,0 -1,1 -4,0 -1,1 -3,0 -1,1 -3,0 0,2 -1,-1Z"/>
</svg>