<svg width="256" height="256" xmlns="http://www.w3.org/2000/svg"><script> 
var tempColor;
function hoverPath(evt){
obj = evt.target;
tempColor = obj.getAttribute("fill");
obj.setAttribute("fill","red");
//alert(tempColor);
//obj.setAttribute("stroke","red");}
function recoverPath(evt){
obj = evt.target;
obj.setAttribute("fill", tempColor);
//obj.setAttribute("stroke", tempColor);
}</script><path onmouseover="hoverPath(evt)" onmouseout="recoverPath(evt)" fill="rgb(242,240,231)" d="M  15,248l -12,0 -1,-1 -2,0 0,8 47,0 0,-3 1,-1 0,-1 1,-1 -8,0 -1,-1Z"/>
<path onmouseover="hoverPath(evt)" onmouseout="recoverPath(evt)" fill="rgb(244,243,236)" d="M  100,194l -1,0 -1,1 0,1 -1,1 0,1 -1,1 -1,1 0,1 -1,1 -1,1 0,1 -1,1 -1,1 0,1 -1,1 -1,1 0,1 -1,1 0,1 -1,1 -1,1 0,1 -1,1 -1,1 0,1 -1,1 -1,1 0,1 -1,1 -1,1 0,1 -1,1 0,1 -2,2 0,1 -1,1 -1,1 0,1 -1,1 -1,1 0,1 -1,1 -1,1 0,1 -1,1 0,1 -1,1 -1,1 0,1 -1,1 -1,1 0,1 -1,1 -1,1 0,1 -1,1 -1,1 0,1 -1,1 -1,1 0,1 131,0 0,-3 -1,-1 0,-2 -1,-1 0,-19 -1,-1 0,-5 1,-1 0,-2 1,-1 0,-2 1,-1 1,0 0,-3 1,-1 0,-3 -1,-1 0,-5 -1,-1 0,-5 1,-1 0,-2 1,-1 0,-2 1,-1 1,-1 0,-1 1,-1 0,-3 1,-1 1,0 0,-2 1,-1 1,0 0,-2 1,-1 1,-1 0,-2 1,-1 0,-1 -1,-1 0,0 -1,-1 -1,-1 0,-1 -1,0 -1,-1 -1,0 -1,-1 -1,-1 -2,0 -1,-1 -2,0 -1,-1 -1,0 -1,-1 -1,0 -1,-1 -1,-1 0,-2 -1,-1 0,-3 1,-1 0,-7 -3,0 -1,-1 -1,-1 -1,0 -1,-1 -1,-1 -1,-1 -1,-1 -1,-1 -7,0 -1,1 -1,0 -1,1 -3,0 -1,1 -5,0 -1,-1 -4,0 -1,-1 -3,0 -1,-1 -10,0 -1,1 -1,0 -1,1 -2,0 -1,1 -1,0 -1,1 -4,0 -1,1 -2,0 -1,1 -1,1 -1,0 -1,1 -1,0 -1,1 0,5 1,1 0,2 -1,1 -1,0 0,5 -1,1 0,6 -1,1 0,3 -1,1 0,2 -1,1 0,2 -1,1 0,1 -1,1 0,1 -1,1 -1,1 0,2 2,0 1,1 12,0 1,1 2,0 1,1 0,3 -1,1 -5,0 -1,-1 -11,0 -1,1Z"/>
<path onmouseover="hoverPath(evt)" onmouseout="recoverPath(evt)" fill="rgb(244,243,237)" d="M  191,150l -1,0 0,5 1,1 0,1 1,0 1,1 1,1 2,0 1,1 1,0 1,1 1,0 1,1 1,0 1,1 1,1 1,1 1,0 1,1 1,1 1,1 0,6 -1,1 0,2 -1,1 0,1 -1,1 -1,1 -1,1 0,1 -1,1 -1,1 0,1 -1,1 0,1 -1,1 0,1 -1,1 0,1 -1,1 0,3 -1,1 0,7 1,1 0,9 -1,1 -1,1 0,1 -1,1 -3,0 0,2 -1,1 0,2 -1,1 0,3 1,1 0,19 1,1 0,2 1,1 0,4 62,0 0,-111 -16,0 -1,-1 -9,0 -1,1 0,1 -2,2 0,1 -2,2 -1,1 -1,0 -1,1 -13,0 -1,-1 -2,0 -1,-1 -1,0 -1,-1 -10,0 -1,1Z"/>
<path onmouseover="hoverPath(evt)" onmouseout="recoverPath(evt)" fill="rgb(244,243,237)" d="M  201,26l 0,0 -1,1 -1,0 -1,1 0,1 -1,1 -1,1 -1,1 0,1 -1,1 0,2 -1,1 0,7 1,1 0,2 1,1 1,1 0,1 1,1 1,1 1,1 1,1 1,0 1,1 1,1 1,1 1,1 1,1 1,0 1,1 2,0 1,1 1,-1 1,0 1,-1 1,-1 1,0 1,-1 2,0 1,-1 2,0 1,1 2,0 1,1 1,0 1,1 3,0 1,-1 1,0 1,-1 11,0 1,1 1,0 1,1 1,1 1,0 1,1 4,0 0,-61 -38,0 0,3 1,1 0,8 -1,1 0,1 -1,1 -1,1 0,1 -1,1 -1,1 -1,0 -1,1 -1,1 -1,0 -1,1 -1,0 -1,1 -1,0 -1,1 -1,1 -1,0 -1,1Z"/>
<path onmouseover="hoverPath(evt)" onmouseout="recoverPath(evt)" fill="rgb(244,243,236)" d="M  0,177l 0,66 11,0 1,1 34,0 1,1 6,0 0,-2 1,-1 0,-1 1,-1 1,-1 0,-1 1,-1 1,-1 0,-1 1,-1 0,-1 1,-1 1,-1 0,-1 1,-1 1,-1 0,-1 1,-1 1,-1 0,-1 1,-1 0,-1 1,-1 1,-1 0,-1 1,-1 1,-1 0,-1 1,-1 1,-1 0,-1 1,-1 1,-1 0,-1 1,-1 1,-1 0,-1 1,-1 1,-1 0,-1 1,-1 1,-1 0,-1 1,-1 1,-1 0,-1 1,-1 1,0 0,-2 1,-1 0,-1 1,-1 1,-1 0,-1 1,-1 1,-1 0,-1 1,-1 0,-1 1,-1 0,-1 1,-1 1,-1 0,-1 1,-1 0,-1 1,-1 0,-1 1,-1 0,-1 1,-1 0,-1 1,-1 0,-4 1,-1 0,-8 1,-1 0,-5 -1,1 -2,0 -1,1 -2,0 -1,1 -2,0 -1,1 -3,0 -1,1 -2,0 -1,1 -3,0 -1,1 -2,0 -1,1 -3,0 -1,1 -3,0 -1,1 -3,0 -1,1 -5,0 -1,1 -4,0 -1,1 -6,0 -1,1 -5,0 -1,1 -3,0 -1,1 -3,0 -1,1 -3,0 -1,1 -2,0 -1,1 -2,0 -1,1 -2,0 -1,1 -2,0 -1,1 -2,0 -1,1 -2,0 -1,1 -9,0 -1,1Z"/>
<path onmouseover="hoverPath(evt)" onmouseout="recoverPath(evt)" fill="rgb(243,242,235)" d="M  0,117l 0,46 2,0 1,1 0,3 1,1 0,3 3,0 1,-1 2,0 1,-1 2,0 1,-1 2,0 1,-1 2,0 1,-1 1,0 1,-1 3,0 1,-1 3,0 1,-1 3,0 1,-1 3,0 1,-1 4,0 1,-1 4,0 1,-1 5,0 1,-1 4,0 1,-1 4,0 1,-1 4,0 1,-1 4,0 1,-1 2,0 1,-1 3,0 1,-1 2,0 1,-1 2,0 1,-1 2,0 1,-1 3,0 1,-1 2,0 1,-1 3,0 1,-1 0,-5 1,-1 0,-10 1,-1 0,-10 1,-1 0,-1 -3,0 -1,1 -4,0 -1,-1 0,-2 1,-1 2,0 1,-1 3,0 1,-1 1,0 0,-5 1,-1 0,-8 1,-1 0,-9 1,-1 0,-9 1,-1 0,-9 1,-1 0,-11 1,-1 0,-6 1,-1 0,-10 1,-1 0,-10 1,-1 0,-8 1,-1 0,-11 1,-1 0,-5 -115,0Z"/>
<path onmouseover="hoverPath(evt)" onmouseout="recoverPath(evt)" fill="rgb(172,198,237)" d="M  43,163l -4,0 -1,1 -3,0 -1,1 -3,0 -1,1 -3,0 -1,1 -3,0 -1,1 -1,0 -1,1 -2,0 -1,1 -2,0 -1,1 -2,0 -1,1 -2,0 -1,1 -5,0 -1,-1 0,-3 -1,-1 0,-3 -1,0 0,9 9,0 1,-1 2,0 1,-1 2,0 1,-1 2,0 1,-1 2,0 1,-1 2,0 1,-1 2,0 1,-1 3,0 1,-1 3,0 1,-1 3,0 1,-1 2,0 1,-1 1,1 1,0 1,-1 6,0 1,-1 4,0 1,-1 5,0 1,-1 3,0 1,-1 3,0 1,-1 3,0 1,-1 2,0 1,-1 3,0 1,-1 2,0 1,-1 3,0 1,-1 2,0 1,-1 2,0 1,-1 2,0 1,-1 1,0 1,-1 1,0 0,-1 -2,1 -2,0 -1,1 -2,0 -1,1 -3,0 -1,1 -2,0 -1,1 -2,0 -1,1 -2,0 -1,1 -3,0 -1,1 -2,0 -1,1 -4,0 -1,1 -4,0 -1,1 -4,0 -1,1 -4,0 -1,1 -5,0 -1,1 -4,0 0,2 -1,-1Z"/>
<path onmouseover="hoverPath(evt)" onmouseout="recoverPath(evt)" fill="rgb(245,235,146)" d="M  123,21l 0,-1 1,-1 0,-12 1,-1 0,-6 -8,0 0,6 -1,1 0,11 -1,1 0,8 -1,1 0,10 -1,1 0,10 -1,1 0,6 -1,1 0,11 -1,1 0,9 -1,1 0,9 -1,1 0,9 -1,1 0,8 -1,1 0,5 -1,1 -1,0 -1,1 -3,0 -1,1 -2,0 7,-1 1,0 1,1 0,3 -1,1 0,10 -1,1 0,10 -1,1 0,4 1,1 0,3 -1,1 -1,0 0,7 -1,1 0,8 -1,1 0,4 -1,1 0,1 -1,1 0,1 -1,1 0,1 -1,1 0,1 -1,1 0,1 -1,1 -1,1 0,1 -1,1 0,1 -1,1 0,1 -1,1 -1,1 0,1 -1,1 -1,1 0,1 -1,1 0,2 -1,1 -1,0 0,1 -1,1 -1,1 0,1 -1,1 -1,1 0,1 -1,1 -1,1 0,1 -1,1 -1,1 0,1 -1,1 -1,1 0,1 -1,1 -1,1 0,1 -1,1 -1,1 0,1 -1,1 -1,1 0,1 -1,1 0,1 -1,1 -1,1 0,1 -1,1 -1,1 0,1 -2,2 0,1 -1,1 0,1 -1,1 -1,1 0,1 -1,1 -1,1 0,1 -1,1 0,2 -1,1 -8,0 -1,-1 -34,0 -1,-1 -10,0 4,1 6,0 32,1 3,0 6,1 0,2 -1,1 0,1 -1,1 0,2 9,0 0,-2 1,-1 1,-1 0,-1 1,-1 1,-1 0,-1 1,-1 1,-1 0,-1 1,-1 1,-1 0,-1 1,-1 1,-1 0,-1 1,-1 0,-1 1,-1 1,-1 0,-1 1,-1 1,-1 0,-1 1,-1 1,-1 0,-1 1,-1 1,-1 0,-1 1,-1 0,-1 1,-1 1,-1 0,-1 1,-1 1,-1 0,-1 1,-1 1,-1 0,-1 1,-1 1,-1 0,-1 1,-1 0,-1 1,-1 1,-1 0,-1 1,-1 1,-1 0,-1 1,-1 1,-1 0,-1 1,-1 1,-1 0,-1 1,-1 0,-1 1,-1 1,-1 5,0 1,-1 13,0 1,1 3,0 0,-1 -2,0 -1,-1 -12,0 -1,-1 -2,0 -1,-1 0,-4 1,-1 1,-1 0,-1 1,-1 0,-1 1,-1 0,-2 1,-1 0,-2 1,-1 0,-3 1,-1 0,-6 1,-1 0,-5 1,-1 1,0 -1,-1 0,-7 1,-1 1,-1 1,0 1,-1 1,0 1,-1 1,-1 2,0 1,-1 4,0 1,-1 1,0 1,-1 2,0 1,-1 -1,0 -3,1 -2,1 -3,0 -2,1 -2,0 -1,1 -1,0 -1,1 -1,1 -2,0 -1,-1 0,-2 1,-1 0,-10 1,-1 0,-9 1,-1 0,-8 1,-1 0,-11 1,-1 0,-10 1,-1 0,-9 1,-1 0,-7 1,-1 0,-7 1,-1 0,-10 1,-1 0,-10 1,-1 0,-9 1,-1Z"/>
<path onmouseover="hoverPath(evt)" onmouseout="recoverPath(evt)" fill="rgb(244,243,236)" d="M  126,11l 0,9 -1,1 0,9 -1,1 0,9 -1,1 0,10 -1,1 0,10 -1,1 0,7 -1,1 0,7 -1,1 0,9 -1,1 0,10 -1,1 0,11 -1,1 0,8 -1,1 0,9 -1,1 0,10 -1,1 2,-2 1,0 1,-1 3,0 1,-1 4,0 1,-1 2,0 1,-1 3,0 1,-1 2,0 1,-1 8,0 1,1 4,0 1,1 9,0 1,-1 2,0 1,-1 11,0 1,1 1,0 1,1 1,0 1,1 1,1 1,1 1,0 1,1 1,1 2,0 1,1 1,0 1,1 7,0 1,1 2,0 1,1 5,0 1,1 1,0 1,1 10,0 1,-1 1,-1 0,-1 1,-1 0,-1 1,-1 2,-2 1,-1 3,0 1,-1 5,0 1,1 20,0 0,-71 -7,0 -1,-1 -1,0 -1,-1 -1,0 -1,-1 -1,-1 -2,0 -1,-1 -1,1 -2,0 -1,1 -1,0 -1,1 -8,0 -1,-1 -1,0 -1,-1 -3,0 -1,1 -1,1 -1,1 -9,0 -1,-1 -1,0 -1,-1 -1,0 -1,-1 -1,0 -1,-1 -1,0 -1,-1 -1,-1 -1,-1 -1,-1 -1,-1 -1,-1 -1,-1 -1,-1 -1,-1 -1,-1 0,-1 -1,-1 0,-1 -1,-1 0,-1 -1,-1 0,-14 1,-1 0,-1 1,-1 0,-1 1,-1 4,-4 1,0 2,-2 1,0 1,-1 1,0 1,-1 1,0 1,-1 1,-1 1,0 1,-1 1,0 1,-1 1,-1 2,-2 1,-1 0,-1 1,-1 0,-3 -1,-1 0,-1 -1,-1 0,-3 -83,0 0,7 -1,1Z"/>
<path onmouseover="hoverPath(evt)" onmouseout="recoverPath(evt)" fill="rgb(171,198,238)" d="M  212,63l -2,0 -1,-1 -2,0 -1,-1 -1,0 -1,-1 -1,-1 -1,-1 -1,-1 -1,-1 -1,0 -1,-1 -2,-2 -1,-1 -1,-1 0,-1 -1,-1 -1,-1 0,-2 -1,-1 0,-9 1,-1 0,-2 1,-1 0,-1 1,-1 1,-1 1,-1 0,-1 1,-1 1,-1 1,0 1,-1 1,-1 1,0 1,-1 1,-1 1,0 1,-1 1,0 1,-1 1,0 1,-1 1,-1 1,0 1,-1 0,-1 1,-1 1,-1 0,-1 1,-1 0,-6 -1,-1 0,-4 -3,0 0,2 1,1 0,1 1,1 0,5 -1,1 0,1 -1,1 -1,1 -1,1 -1,1 -1,1 -1,1 -1,0 -1,1 -1,0 -1,1 -1,1 -1,0 -1,1 -1,0 -1,1 -1,0 -1,1 -1,1 -1,0 -1,1 -1,1 -1,1 -1,1 0,1 -1,1 0,1 -1,1 0,12 1,1 0,1 1,1 0,1 1,1 0,1 1,1 1,1 1,1 1,1 1,1 1,1 1,1 1,1 1,1 1,0 1,1 1,0 1,1 1,0 1,1 1,0 1,1 3,0 1,-1 1,1 2,0 1,-1 1,-1 1,-1 5,0 1,1 1,0 1,1 6,0 1,-1 1,0 1,-1 2,0 1,-1 2,0 1,1 2,0 1,1 1,1 1,0 1,1 1,0 1,1 6,0 0,-2 -5,0 -1,-1 -1,0 -1,-1 -1,-1 -1,0 -1,-1 -9,0 -1,1 -1,0 -1,1 -5,0 -1,-1 -1,0 -1,-1 -2,0 -1,-1 -1,1 -2,0 -1,1 -1,0 -2,2 -1,0 0,2 -1,-1Z"/>
<path onmouseover="hoverPath(evt)" onmouseout="recoverPath(evt)" fill="rgb(171,198,238)" d="M  239,141l 0,0 1,1 15,0 0,-2 -15,0 -1,1 -1,-1 -4,0 -1,-1 -3,0 -1,1 -3,0 -1,1 -1,1 -1,1 0,1 -1,1 0,1 -1,1 -1,1 -1,1 -12,0 -1,-1 0,1 -1,-1 -1,-1 0,1 -1,-1 -4,0 -1,-1 -2,0 -1,-1 -7,0 -1,-1 -1,0 -1,-1 -2,0 -1,-1 -1,-1 -1,0 -1,-1 -1,-1 -1,-1 -1,0 -1,-1 -1,0 -1,-1 -9,0 -1,1 -2,0 -1,1 -11,0 -1,-1 -4,0 -1,-1 -6,0 -1,1 7,0 3,1 2,0 2,1 4,0 1,1 3,0 1,-1 3,0 1,-1 1,0 1,-1 -1,0 74,3 1,1 -61,0 1,1 1,0 1,1 1,1 3,0 1,1 0,9 -1,1 0,1 1,1 0,2 1,1 1,0 1,1 1,0 1,1 2,0 1,1 2,0 1,1 1,1 1,0 1,1 1,0 1,1 0,1 1,1 1,1 1,1 0,3 -1,1 0,2 -1,1 -1,1 0,2 -1,1 -1,0 0,2 -1,1 -1,0 0,3 -1,1 0,1 -1,1 -1,1 0,2 -1,1 0,2 -1,1 0,3 1,1 0,5 1,1 0,5 -1,1 0,2 1,-2 0,0 1,-1 0,-7 -1,-1 0,-9 1,-1 0,-3 1,-1 -2,4 0,0 -17,-54 61,0 -39,44 0,0 1,-2 1,-1 1,-2 2,-2 0,-1 1,-1 0,-2 1,-1 0,-4 -1,-1 -1,-1 -1,0 -1,-1 -1,-1 -1,-1 -1,0 -1,-1 -1,0 -1,-1 -1,0 -1,-1 -2,0 -1,-1 -1,-1 -1,0 -1,-1 0,-1 -1,-1 0,-7 1,-1 1,0 1,-1 7,0 2,38 39,-44 -30,9 11,0 1,-1 1,0 1,-1 1,-1 0,-1 1,-1 1,-1 0,-1 1,-1 1,-1 10,0 -29,9 30,-9Z"/>
</svg>