<svg width="256" height="256" xmlns="http://www.w3.org/2000/svg"><script> 
var tempColor;
function hoverPath(evt){
obj = evt.target;
tempColor = obj.getAttribute("fill");
obj.setAttribute("fill","red");
//alert(tempColor);
//obj.setAttribute("stroke","red");}
function recoverPath(evt){
obj = evt.target;
obj.setAttribute("fill", tempColor);
//obj.setAttribute("stroke", tempColor);
}</script><path onmouseover="hoverPath(evt)" onmouseout="recoverPath(evt)" fill="rgb(172,198,236)" d="M  8,156l -2,0 -1,-1 0,-3 1,-1 1,-1 0,-1 1,-1 0,-4 -1,-1 0,-2 -1,-1 0,-17 1,-1 0,-13 -1,-1 0,-10 1,-1 1,-1 1,0 1,-1 14,0 -2,-1 0,0 -13,1 -2,0 -1,1 -1,0 0,1 -1,1 0,1 -1,1 0,1 1,1 0,9 1,1 0,7 -1,1 0,20 1,1 0,7 -3,3 -2,0 0,6 7,0 1,-1 1,1 3,0 1,1 1,1 0,4 2,0 0,-1 1,-1 0,-2 -1,-1 0,-1 -1,-1 -1,-1 -5,0 0,2 -1,-1Z"/>
<path onmouseover="hoverPath(evt)" onmouseout="recoverPath(evt)" fill="rgb(199,215,230)" d="M  7,172l 0,0 -1,1 -1,1 -1,0 0,3 1,1 0,1 2,2 1,1 1,1 1,1 1,1 1,1 1,1 1,1 1,1 1,1 1,1 0,2 -1,1 -1,1 -5,0 -1,-1 -1,1 -2,0 -2,2 -1,1 0,1 1,1 0,2 1,1 0,3 -1,1 0,2 -1,1 0,1 -1,1 -2,0 0,4 14,0 0,-2 1,-1 1,-1 2,0 1,1 0,1 1,1 0,1 3,0 1,1 0,-1 1,-1 0,0 1,-1 0,-4 -3,0 -1,-1 0,-4 -1,-1 0,-8 -1,-1 0,-5 -1,0 -1,-1 -1,-1 -1,-1 -1,-1 -1,-1 -1,-1 -1,-1 -1,-1 -1,-1 -1,-1 0,-1 -1,-1 0,-2 1,-1 1,-1 0,-1 1,-1 0,-1 1,-1 -5,0Z"/>
<path onmouseover="hoverPath(evt)" onmouseout="recoverPath(evt)" fill="rgb(243,242,234)" d="M  46,168l 0,4 -1,1 -2,0 -1,-1 0,-5 -1,-1 -3,0 0,6 -1,1 0,18 -1,1 0,12 1,0 1,-1 8,0 0,-8 1,-1 2,0 1,1 0,9 1,-1 18,0 1,-1 8,0 1,-1 21,0 0,-5 1,-1 0,-2 1,-1 0,-4 1,-1 0,-6 1,-1 0,-8 1,-1 0,-9 1,-1 0,-8 1,-1 0,-8 1,-1 0,-8 1,-1 0,-8 1,-1 0,-8 1,-1 0,-8 -1,0 -1,-1 -1,0 -1,1 -14,0 -1,1 -26,0 -1,1 -4,0 -1,1 0,39 1,1 0,9 -1,1 0,1 -1,1 -1,1 -2,0 -1,1 -6,0 -1,1 -2,0Z"/>
<path onmouseover="hoverPath(evt)" onmouseout="recoverPath(evt)" fill="rgb(243,242,234)" d="M  53,223l -1,0 0,2 -1,1 0,1 1,1 0,2 1,1 0,3 1,1 0,3 1,1 0,3 1,1 0,2 1,1 0,3 1,1 0,5 47,0 0,-7 -1,-1 0,-12 1,-1 1,-1 0,-9 1,-1 0,-1 1,-1 -33,0 -1,1 -20,0 -1,1Z"/>
<path onmouseover="hoverPath(evt)" onmouseout="recoverPath(evt)" fill="rgb(238,237,229)" d="M  59,72l 0,6 -1,1 -3,0 -1,-1 0,-3 -1,1 -2,0 -1,-1 -1,0 -1,-1 -1,-1 -4,0 -1,1 0,2 -1,1 0,2 1,0 1,1 0,5 1,0 0,-2 1,-1 4,0 1,1 0,3 -1,1 10,0 1,1 0,3 7,0 1,-1 32,0 1,-1 4,0 1,-1 4,0 0,-13 -1,-1 0,-8 -1,-1 0,-6 -1,-1 0,-3 -1,-1 0,-3 -1,-1 0,-2 -1,-1 0,-4 1,-1 0,-2 -1,-1 0,-1 -1,-1 0,-2 -1,-1 -1,-1 0,-1 -1,-1 0,-2 -1,-1 0,-1 -1,-1 0,-1 -1,-1 0,3 -1,1 -1,0 -1,1 -2,0 -1,1 0,2 -1,1 -2,0 0,2 -1,1 -1,1 -2,0 0,4 1,1 1,0 1,1 0,2 1,1 5,0 1,1 0,2 -1,1 -2,2 -1,1 0,1 -1,1 -1,1 -1,1 -1,1 -1,1 -4,0 -1,-1 0,-9 1,-1 0,-1 -1,-1 0,-1 -3,0 -1,1 0,5 -1,1 -1,0 -1,1 -2,0 0,4 -1,1 -5,0 0,3 -1,1 -5,0Z"/>
<path onmouseover="hoverPath(evt)" onmouseout="recoverPath(evt)" fill="rgb(244,243,237)" d="M  0,1l 0,148 1,0 1,-1 1,-1 0,-5 -1,-1 0,-22 1,-1 0,-5 -1,-1 0,-9 -1,-1 0,-3 1,-1 0,-1 1,-1 0,-1 1,-1 1,0 1,-1 14,0 1,-1 1,0 0,-1 -1,-1 0,-11 -1,-1 0,-11 -1,-1 0,-11 -1,-1 0,-11 -1,-1 0,-11 -1,-1 0,-10 -1,-1 0,-10 -1,-1 0,-8 -13,0 -1,1Z"/>
<path onmouseover="hoverPath(evt)" onmouseout="recoverPath(evt)" fill="rgb(242,241,233)" d="M  8,125l 0,14 1,1 0,2 1,1 0,6 -1,1 0,1 -2,2 0,1 1,-1 7,0 1,1 1,1 1,1 0,1 1,1 0,4 -1,1 0,1 -1,1 -4,0 -1,-1 0,-4 -1,-1 -11,0 0,51 1,0 0,-1 1,-1 0,-2 1,-1 0,-1 -1,-1 0,-2 -1,-1 0,-3 1,-1 1,-1 1,-1 1,-1 2,0 1,-1 2,0 1,1 3,0 1,-1 -1,-1 0,0 -1,-1 -1,-1 -1,-1 -1,-1 -1,-1 -1,-1 -1,-1 -1,-1 -1,-1 -1,-1 -1,-1 0,-1 -1,-1 0,-5 1,-1 1,0 1,-1 0,-2 1,-1 7,0 1,1 0,2 -1,1 0,1 -1,1 0,1 -1,1 -1,1 1,1 0,1 1,1 1,1 1,1 1,1 1,1 1,1 1,1 1,1 1,1 1,0 0,-2 1,-1 0,-15 -4,0 -1,-1 0,-2 1,-1 6,0 0,-2 -1,0 -1,-1 0,-2 1,-1 0,-10 1,-1 0,-27 -1,-1 0,-17 -1,-1 0,-6 -11,0 -1,1 -1,0 -1,1 0,8 1,1 0,15 -1,1Z"/>
<path onmouseover="hoverPath(evt)" onmouseout="recoverPath(evt)" fill="rgb(252,252,250)" d="M  24,225l 0,4 -1,1 0,19 -1,1 0,5 6,0 0,-19 1,-1 0,-10Z"/>
<path onmouseover="hoverPath(evt)" onmouseout="recoverPath(evt)" fill="rgb(242,241,233)" d="M  29,1l 0,3 1,1 0,9 1,1 0,11 1,1 0,11 1,1 0,10 1,1 0,11 1,1 0,11 1,1 0,11 1,1 0,6 1,0 1,1 0,1 16,0 0,-5 -7,0 -1,-1 0,-2 1,-1 0,-1 -2,0 0,2 -1,1 -3,0 -1,-1 0,-5 -1,0 -1,-1 0,-4 1,-1 0,-2 1,-1 1,-1 6,0 1,1 1,1 1,0 1,1 1,-1 1,0 0,-34 -1,-1 0,-5 -1,-1 0,-5 -1,-1 0,-5 -1,-1 0,-7 1,-1 0,-1 1,-1 0,-1 1,-1 0,-1 1,-1 0,-1 1,-1 0,-1 1,-1 0,-2 -26,0 -1,1Z"/>
<path onmouseover="hoverPath(evt)" onmouseout="recoverPath(evt)" fill="rgb(248,249,247)" d="M  33,217l 0,4 16,0 1,1 0,2 1,-3 1,0 1,-1 20,0 1,-1 39,0 1,-1 33,0 1,1 0,4 1,0 1,-1 0,-3 1,-1 1,-1 1,-1 0,-2 1,-1 0,-2 1,-1 0,-3 1,-1 0,-2 1,-1 0,-2 1,-1 0,-2 1,-1 0,-3 1,-1 0,-2 1,-1 0,-2 1,-1 0,-2 1,-1 0,-2 1,-1 0,-3 1,-1 0,-2 1,-1 0,-2 1,-1 0,-2 1,-1 0,-2 1,-1 0,-3 1,-1 0,-2 1,-1 0,-2 1,-1 0,-2 1,-1 0,-2 1,-1 0,-3 1,-1 0,-2 1,-1 0,-2 1,-1 0,-2 1,-1 0,-2 1,-1 0,-3 1,-1 2,0 0,-1 -1,-1 0,-3 1,-1 0,-2 1,-1 0,-2 1,-1 0,-2 1,-1 0,-2 1,-1 0,-3 1,-1 0,-2 1,-1 2,0 -1,-1 0,-4 1,-1 0,-2 1,-1 2,0 -1,-1 0,-3 1,-1 0,-2 1,-1 1,-1 1,0 0,-2 1,-1 -1,-1 0,-3 1,-1 0,-2 1,-1 0,-2 1,-1 0,-2 1,-1 0,-2 1,-1 0,-2 1,-1 0,-2 1,-1 0,-2 1,-1 0,-2 1,-1 0,-2 1,-1 0,-2 1,-1 2,0 -1,-1 0,-3 1,-1 0,-2 1,-1 0,-2 1,-1 0,-2 1,-1 0,-2 1,-1 2,0 -1,-1 0,-3 1,-1 2,0 -1,-1 0,-4 1,-1 0,-2 1,-1 0,-2 1,-1 2,0 -1,-1 0,-3 1,-1 0,-2 1,-1 0,-2 1,-1 0,-3 -8,0 0,2 -1,1 1,1 0,3 -1,1 0,2 -1,1 0,2 -1,1 0,2 -1,1 -1,1 -3,0 -1,-1 -3,0 -1,-1 -3,0 -1,-1 -2,0 -1,-1 -3,0 -1,-1 -2,0 -1,-1 -3,0 -1,-1 -2,0 -1,-1 -3,0 -1,-1 0,-2 -1,0 -1,1 -4,0 -1,-1 -2,0 -1,-1 -3,0 -1,-1 -2,0 -1,-1 -2,0 -1,-1 -3,0 -1,-1 0,-2 -22,0 0,1 2,0 1,1 2,0 1,1 3,0 1,1 2,0 1,1 2,0 1,1 3,0 1,1 2,0 1,1 3,0 1,1 2,0 1,1 2,0 1,1 3,0 1,1 2,0 1,1 2,0 1,1 3,0 1,1 2,0 1,1 3,0 1,1 0,2 1,0 1,-1 3,0 1,1 3,0 1,1 2,0 1,1 2,0 1,1 2,0 1,1 2,0 2,2 0,2 -1,1 0,2 -1,1 -2,0 0,2 -1,1 0,1 1,1 0,3 -1,1 0,2 -1,1 -2,0 1,1 0,3 -1,1 0,2 -1,1 0,2 -1,1 0,2 -1,1 0,2 -1,1 0,2 -1,1 0,2 -1,1 0,2 -1,1 -2,0 0,1 1,1 0,3 -1,1 0,2 -1,1 -2,0 1,1 0,4 -1,1 0,1 -1,1 0,2 -1,1 0,1 -1,1 0,2 -1,1 0,2 -1,1 -1,0 -1,1 -8,0 -1,-1 -2,0 -1,1 -17,0 -1,1 -26,0 -1,1 -8,0 -1,-1 -1,-1 0,-7 1,-1 0,0 -1,-1 0,-3 -1,-1 0,-12 -1,-1 0,-8 -1,-1 0,-6 -1,-1 0,-3 -1,-1 0,-2 -1,-1 0,-2 -1,-1 0,-2 -1,0 0,2 1,1 0,2 1,1 0,3 1,1 0,3 1,1 0,6 1,1 0,8 1,1 0,17 1,1 0,7 -1,1 -5,0 -1,1 -10,0 -1,1 -24,0 -1,1 -9,0 -1,-1 0,-6 -1,0 -1,-1 0,-6 -1,0 0,6 -1,1 -18,0 0,7 -1,1 -3,0 0,4 21,0 1,1 1,1 0,50 -1,1 -3,0 -1,1 -5,0 -1,1 -9,0 0,1 5,0 1,1 1,1 0,-1 1,-1 2,0 1,-1 6,0 1,-1 2,0 1,-1 0,-1 1,-1 0,-7 -1,-1 0,-41 2,-2 4,0 1,-1 26,0 1,-1 14,0 1,-1 3,0 1,1 1,0 1,1 0,10 -1,1 0,8 -1,1 0,8 -1,1 0,8 -1,1 0,8 -1,1 0,8 -1,1 0,9 -1,1 0,8 -1,1 0,6 -1,1 0,4 -1,1 0,2 -1,1 0,16 -1,1 -1,1 -23,0 -1,1 -26,0 -1,-1 -1,-1 0,1 -1,1 -1,1 -13,0 70,-16 0,-3 1,-1 0,-3 1,-1 0,-4 1,-1 0,-6 1,-1 0,-8 1,-1 0,-8 1,-1 0,-8 1,-1 0,-9 1,-1 0,-8 1,-1 0,-8 1,-1 0,-7 1,-1 0,-10 1,-1 0,-1 1,-1 7,0 1,-1 20,0 1,-1 35,0 1,1 0,2 -1,1 0,3 -1,1 0,2 -1,1 0,2 -1,1 0,3 -1,1 0,2 -1,1 0,2 -1,1 0,2 -1,1 0,2 -1,1 0,3 -1,1 0,2 -1,1 0,2 -1,1 0,2 -1,1 0,2 -1,1 0,3 -1,1 0,2 -1,1 0,2 -1,1 0,2 -1,1 0,2 -1,1 0,2 -1,1 0,3 -1,1 0,2 -1,1 0,2 -1,1 0,2 -1,1 0,2 -1,1 0,3 -1,1 0,2 -1,1 0,2 -1,1 0,2 -1,1 0,2 -1,1 0,2 -1,1 0,2 -1,1 0,3 -1,1 0,2 -1,1 -2,0 -1,1 -34,0 -1,-1 0,-6 -1,-1 -3,0 -1,-1 0,-3 -1,-1 -70,16 84,-127 0,0 1,1 0,0 1,-1 39,0 1,-1 21,0 0,-1 -2,0 -20,1 -39,0 -1,1 -1,0 -84,127 15,-7 0,-3 1,-1 -1,-1 0,-9 -1,9 -8,0 -1,1 -4,0 0,1 5,0 1,1 3,0 1,1 3,0 1,1 -15,7Z"/>
<path onmouseover="hoverPath(evt)" onmouseout="recoverPath(evt)" fill="rgb(242,241,232)" d="M  34,225l -3,0 0,11 -1,1 0,18 26,0 0,-4 -1,-1 0,-3 -1,-1 0,-2 -1,-1 0,-3 -1,-1 0,-3 -1,-1 0,-3 -1,-1 0,-2 -1,-1 0,-2 -1,-1 0,-2 -5,0 0,1 -1,1Z"/>
<path onmouseover="hoverPath(evt)" onmouseout="recoverPath(evt)" fill="rgb(244,243,235)" d="M  39,113l 0,16 1,1 0,7 -1,1 0,15 -1,1 0,7 7,0 1,-1 5,0 1,-1 3,0 0,-1 -1,0 -1,-1 0,-45 -13,0 -1,1Z"/>
<path onmouseover="hoverPath(evt)" onmouseout="recoverPath(evt)" fill="rgb(239,238,224)" d="M  51,208l -1,0 0,5 1,1 24,0 1,-1 23,0 1,-1 0,-6 -3,0 -1,1 -9,0 -1,1Z"/>
<path onmouseover="hoverPath(evt)" onmouseout="recoverPath(evt)" fill="rgb(238,237,222)" d="M  62,97l 0,4 7,0 1,-1 24,0 1,-1 10,0 1,-1 5,0 0,-5 -2,0 -1,1 -5,0 -1,1 -8,0 -1,1 -18,0 -1,1 -4,0 -1,-1 -6,0 -1,1Z"/>
<path onmouseover="hoverPath(evt)" onmouseout="recoverPath(evt)" fill="rgb(242,242,233)" d="M  64,0l -2,0 0,2 -1,1 0,1 -1,1 0,1 -1,1 0,1 -1,1 0,1 -1,1 0,1 -1,1 0,1 -1,1 0,2 1,1 0,5 1,1 0,5 1,1 0,6 1,1 0,23 4,0 0,-3 1,-1 5,0 0,-4 1,-1 2,0 1,-1 1,0 0,-5 1,-1 1,-1 5,0 1,1 0,1 1,1 0,3 -1,1 0,7 2,0 3,-3 1,-1 0,-1 1,-1 1,-1 1,-1 1,-1 -5,0 -1,-1 -1,-1 0,-2 -1,0 -1,-1 -1,-1 0,-6 1,-1 2,0 1,-1 0,-2 1,-1 2,0 0,-2 1,-1 1,-1 2,0 1,-1 1,0 0,-3 1,-1 1,0 0,-1 -1,-1 0,-1 -1,-1 0,-2 -1,-1 0,-3 -1,-1 0,-4 -1,-1 0,-6Z"/>
<path onmouseover="hoverPath(evt)" onmouseout="recoverPath(evt)" fill="rgb(171,198,236)" d="M  67,93l -7,0 0,1 6,0 1,-1 3,1 1,1 2,0 1,-1 18,0 1,-1 8,0 1,-1 5,0 1,-1 2,0 0,-1 -3,0 -1,1 -4,0 -1,1 -30,0 -1,2 -3,-1Z"/>
<path onmouseover="hoverPath(evt)" onmouseout="recoverPath(evt)" fill="rgb(171,198,237)" d="M  70,205l -18,0 -1,1 18,0 1,-1 3,1 12,0 1,-1 9,0 1,-1 4,0 0,-1 -20,0 -1,1 -5,0 -1,2 -3,-1Z"/>
<path onmouseover="hoverPath(evt)" onmouseout="recoverPath(evt)" fill="rgb(243,242,234)" d="M  117,108l -1,1 0,10 -1,1 0,7 -1,1 0,8 -1,1 0,8 -1,1 0,9 -1,1 0,8 -1,1 0,8 -1,1 0,8 -1,1 0,6 -1,1 0,4 -1,1 0,3 -1,1 0,1 1,1 0,3 3,0 1,1 1,1 0,6 32,0 1,-1 2,0 0,-2 1,-1 0,-3 1,-1 0,-2 1,-1 0,-2 1,-1 0,-2 1,-1 0,-2 1,-1 0,-2 1,-1 0,-2 1,-1 0,-3 1,-1 0,-2 1,-1 0,-2 1,-1 0,-2 1,-1 0,-2 1,-1 0,-3 1,-1 0,-2 1,-1 0,-2 1,-1 0,-2 1,-1 0,-2 1,-1 0,-2 1,-1 0,-3 1,-1 0,-2 1,-1 0,-2 1,-1 0,-2 1,-1 0,-2 1,-1 0,-3 1,-1 0,-2 1,-1 0,-2 1,-1 0,-2 1,-1 0,-2 1,-1 0,-3 1,-1 0,-2 1,-1 0,-2 1,-1 0,-3 1,-1 -33,0 -1,1 -20,0 -1,1 -6,0 -1,1Z"/>
<path onmouseover="hoverPath(evt)" onmouseout="recoverPath(evt)" fill="rgb(173,200,238)" d="M  159,233l 0,0 1,1 1,1 1,1 1,1 0,2 -1,1 0,6 -1,1 0,8 3,0 0,-9 1,-1 0,-3 1,-1 0,-2 1,-1 0,-7 1,-1 0,-4 1,-1 0,-2 1,-1 0,-2 -1,-1 0,-3 1,-1 0,-3 1,-1 0,-3 1,-1 0,-2 1,-1 0,-2 1,-1 0,-1 1,-1 0,-2 1,-1 0,-1 1,-1 0,-3 1,-1 0,-1 1,-1 1,-1 1,-1 1,-1 0,-1 1,-1 0,-1 1,-1 0,-3 1,-1 0,-1 1,-1 0,-1 1,-1 0,-1 1,-1 0,-1 1,-1 0,-1 1,-1 0,-1 1,-1 0,-2 1,-1 0,-1 1,-1 0,-1 1,-1 0,-1 1,-1 0,-1 1,-1 0,-1 1,-1 0,-1 1,-1 0,-2 1,-1 1,-1 1,-1 4,0 1,1 1,0 1,1 2,0 1,1 2,0 1,1 3,0 1,1 4,0 1,1 3,0 1,1 2,0 1,1 2,0 1,1 2,0 1,1 2,0 1,1 3,0 1,1 2,0 1,1 3,0 1,1 3,0 1,1 0,4 -1,1 0,1 -1,1 -2,0 1,1 0,2 -1,1 0,1 -1,1 0,1 -1,1 -1,1 0,1 -1,1 1,1 1,-1 2,0 -1,-1 0,-2 1,-1 0,-1 1,-1 0,-1 2,-2 2,0 0,-10 -1,0 -95,74 93,-75 -2,0 -1,-1 -2,0 -1,-1 -2,0 -1,-1 -2,0 -1,-1 -3,0 -1,-1 -2,0 -1,-1 -2,0 -1,-1 -2,0 -1,-1 -2,0 -1,-1 -2,0 -1,-1 -2,0 -1,-1 -2,0 -1,-1 -3,0 -1,-1 -3,0 -1,-1 -2,0 -1,-1 -1,0 -1,-1 -1,-1 0,-4 1,-1 0,-1 1,-1 0,-2 1,-1 0,-1 1,-1 0,-2 1,-1 0,-1 1,-1 0,-1 1,-1 0,-1 1,-1 0,-2 1,-1 0,-1 1,-1 0,-2 1,-1 0,-2 1,-1 0,-2 1,-1 0,-2 1,-1 0,-1 1,-1 0,-2 1,-1 0,-2 1,-1 0,-1 1,-1 0,-1 1,-1 0,-1 1,-1 0,-1 1,-1 1,-1 0,-1 1,-1 0,-1 1,-1 0,-7 1,-1 0,-4 1,-1 0,-2 1,-1 0,-1 1,-1 0,-1 1,-1 0,-1 1,-1 0,-2 1,-1 0,-1 1,-1 0,-1 1,-1 0,-2 1,-1 0,-3 1,-1 0,-2 1,-1 0,-2 1,-1 0,-2 1,-1 0,-2 1,-1 0,-2 1,-1 0,-2 1,-1 0,-3 1,-1 0,-2 1,-1 0,-1 1,-1 0,-1 1,-1 0,-3 1,-1 0,-3 1,-1 0,-3 1,-1 0,-2 1,-1 0,-2 -3,0 0,2 -1,1 0,2 -1,1 0,3 -1,1 0,2 -1,1 0,2 -1,1 0,2 -1,1 0,2 -1,1 0,6 -1,1 0,1 -1,1 0,2 -1,1 0,2 -1,1 0,1 -1,1 0,3 -1,1 0,2 -1,1 0,2 -1,1 0,3 -1,1 0,2 -1,1 0,1 -1,1 -1,1 0,1 -1,1 0,1 -1,1 0,1 -1,1 0,2 -1,1 0,2 -1,1 0,3 -1,1 0,4 -1,1 0,3 -1,1 0,1 -1,1 -1,0 -1,1 -13,0 0,1 13,0 0,5 -1,1 0,1 -1,1 -1,1 0,2 -1,1 0,2 -1,1 0,1 -1,1 0,2 -1,1 0,2 -1,1 0,2 -1,1 0,2 -1,1 0,1 -1,1 0,1 -1,1 0,2 -1,1 0,1 -1,1 0,1 -1,1 0,1 -1,1 0,2 -1,1 0,2 -1,1 0,2 -1,1 0,2 -1,1 0,2 -1,1 0,2 -1,1 0,1 -1,1 0,2 -1,1 -1,1 0,1 -1,1 0,1 -1,1 0,1 -1,1 -1,1 0,1 -1,1 0,2 -1,1 0,2 -1,1 0,2 -1,1 0,1 -1,1 0,1 -1,1 0,1 -1,1 0,1 -1,1 0,1 -1,1 0,1 -1,1 0,1 -1,1 0,1 -1,1 -1,1 0,1 -1,1 0,2 -1,1 0,2 -1,1 0,2 -1,1 0,2 -1,1 0,1 -1,1 0,1 -1,1 0,1 -1,1 0,1 -1,1 0,3 -1,1 0,10 -1,1 0,5 -1,1 -3,0 92,-74 -93,75Z"/>
<path onmouseover="hoverPath(evt)" onmouseout="recoverPath(evt)" fill="rgb(242,241,231)" d="M  162,0l -7,0 0,1 3,0 1,1 2,0 1,1 2,0 1,1 3,0 1,1 2,0 1,1 2,0 1,-1 3,0 1,1 0,2 3,0 1,1 2,0 1,1 3,0 1,1 2,0 1,1 3,0 1,1 2,0 1,1 3,0 1,1 3,0 1,1 1,0 1,-1 0,-2 1,-1 0,-2 1,-1 0,-2 1,-1 0,-1 -1,-1 0,-2 1,-1 0,-1Z"/>
<path onmouseover="hoverPath(evt)" onmouseout="recoverPath(evt)" fill="rgb(244,243,235)" d="M  227,0l -2,0 0,4 -1,1 0,2 -1,1 0,2 -1,1 0,1 1,1 0,2 -1,1 -2,0 0,2 -1,1 0,2 -1,1 0,2 1,1 0,2 -1,1 -2,0 0,1 1,1 0,2 -1,1 -2,0 0,2 -1,1 0,2 -1,1 0,2 -1,1 0,2 -1,1 0,1 1,1 0,2 -1,1 -2,0 0,2 -1,1 0,2 -1,1 0,2 -1,1 0,2 -1,1 0,2 -1,1 0,2 -1,1 0,2 -1,1 0,2 -1,1 0,2 -1,1 0,2 -1,1 0,1 1,1 0,2 -1,1 0,1 1,0 1,-1 16,0 1,-1 1,0 0,-1 1,-1 0,-3 1,-1 0,-4 1,-1 0,-3 1,-1 0,-2 1,-1 0,-2 1,-1 0,-1 1,-1 0,-1 1,-1 0,-1 1,-1 1,-1 0,-1 1,-1 0,-2 1,-1 0,-3 1,-1 0,-2 1,-1 0,-2 1,-1 0,-3 1,-1 0,-1 1,-1 0,-2 1,-1 0,-2 1,-1 0,-1 1,-1 0,-6 1,-1 0,-2 1,-1 0,-2 1,-1 0,-2 1,-1 0,-2 1,-1 0,-3 1,-1 0,-2 1,-1 0,-1Z"/>
<path onmouseover="hoverPath(evt)" onmouseout="recoverPath(evt)" fill="rgb(244,243,236)" d="M  252,1l 0,2 -1,1 0,2 -1,1 0,3 -1,1 0,3 -1,1 0,3 -1,1 0,1 -1,1 0,1 -1,1 0,2 -1,1 0,3 -1,1 0,2 -1,1 0,2 -1,1 0,2 -1,1 0,2 -1,1 0,2 -1,1 0,2 -1,1 0,3 -1,1 0,2 -1,1 0,1 -1,1 0,1 -1,1 0,2 -1,1 0,1 -1,1 0,1 -1,1 0,1 -1,1 0,2 -1,1 0,4 -1,1 0,7 -1,1 0,1 -1,1 0,1 -1,1 -1,1 0,1 -1,1 0,1 -1,1 0,1 -1,1 0,1 -1,1 0,2 -1,1 0,2 -1,1 0,1 -1,1 0,2 -1,1 0,2 -1,1 0,2 -1,1 0,2 -1,1 0,1 -1,1 0,2 -1,1 0,1 -1,1 0,1 -1,1 0,1 -1,1 0,2 -1,1 0,1 -1,1 0,2 -1,1 0,1 -1,1 0,2 1,1 1,0 1,1 2,0 1,1 3,0 1,1 3,0 1,1 2,0 1,1 2,0 1,1 2,0 1,1 2,0 1,1 2,0 1,1 2,0 1,1 2,0 1,1 3,0 1,1 2,0 1,1 2,0 1,1 2,0 1,1 2,0 1,1 1,0 0,-157 -2,0 -1,1Z"/>
<path onmouseover="hoverPath(evt)" onmouseout="recoverPath(evt)" fill="rgb(253,253,253)" d="M  57,66l 0,-28 -1,-1 0,-6 -1,-1 0,-5 -1,-1 0,-5 -1,-1 0,-4 1,-1 0,-1 1,-1 0,-1 1,-1 0,-1 1,-1 0,-1 1,-1 0,-1 1,-1 0,-1 1,-1 0,-1 -2,0 0,3 -1,1 0,1 -1,1 0,1 -1,1 0,1 -1,1 0,1 -1,1 0,1 -1,1 0,5 1,1 0,5 1,1 0,5 1,1 0,5 1,1 0,27 1,1 -1,2 0,9 1,0 0,-8 -1,-1 1,-2Z"/>
<path onmouseover="hoverPath(evt)" onmouseout="recoverPath(evt)" fill="rgb(242,241,233)" d="M  106,38l 0,0 1,1 0,1 1,1 0,1 1,1 0,2 1,1 0,2 1,1 0,2 1,1 0,3 1,1 0,6 1,1 0,8 1,1 0,12 1,1 0,3 1,0 1,-1 10,0 1,1 7,0 1,-1 39,0 1,-1 4,0 1,1 0,3 -1,1 -21,0 -1,1 -39,0 -1,1 -2,0 -1,-1 0,5 1,1 6,0 1,-1 26,0 1,-1 17,0 1,-1 4,0 1,1 6,0 1,-1 1,0 0,-2 1,-1 0,-2 1,-1 0,-1 1,-1 0,-2 1,-1 0,-1 1,-1 0,-2 -1,-1 0,-2 1,-1 2,0 0,-2 1,-1 0,-1 -1,-1 0,-3 1,-1 2,0 0,-2 1,-1 0,-2 1,-1 0,-2 1,-1 0,-2 1,-1 0,-2 1,-1 0,-2 1,-1 0,-2 1,-1 0,-1 -1,-1 0,-2 1,-1 2,0 0,-2 1,-1 0,-1 -1,-1 0,-3 1,-1 0,-2 1,-1 2,0 0,-2 1,-1 -1,-1 -2,0 -1,-1 -2,0 -1,-1 -2,0 -1,-1 -2,0 -1,-1 -3,0 -1,-1 -1,0 -1,1 -3,0 -1,-1 0,-2 -3,0 -1,-1 -2,0 -1,-1 -3,0 -1,-1 -2,0 -1,-1 -2,0 -1,-1 -3,0 -1,-1 -2,0 -1,-1 -2,0 -1,-1 -3,0 -1,-1 -2,0 -1,-1 -3,0 -1,-1 -2,0 -1,-1 -2,0 -1,-1 -3,0 -1,-1 -2,0 -1,-1 -2,0 -1,-1 0,-2 -35,0 0,5 1,1 0,4 1,1 0,3 1,1 0,2 1,1 0,1 1,1 0,3 1,1 0,1 1,1 0,1 1,1 0,2 1,1 0,1 1,1 1,1 0,2 1,1Z"/>
<path onmouseover="hoverPath(evt)" onmouseout="recoverPath(evt)" fill="rgb(171,198,237)" d="M  110,222l 0,0 -1,1 0,1 -1,1 0,9 -1,1 -1,1 0,10 1,1 0,8 2,0 0,-10 -1,-1 0,-3 1,-1 0,-4 1,-1 0,-5 1,-1 0,-4 1,-1 0,-2 1,-1 -2,0 -1,1Z"/>
<path onmouseover="hoverPath(evt)" onmouseout="recoverPath(evt)" fill="rgb(244,243,236)" d="M  180,190l 0,1 -1,1 0,3 -1,1 0,1 -1,1 0,2 -1,1 0,1 -1,1 0,2 -1,1 0,2 -1,1 0,3 -1,1 0,3 -1,1 0,1 1,1 0,4 -1,1 0,2 -1,1 0,4 -1,1 0,7 -1,1 0,2 -1,1 0,3 -1,1 0,8 76,0 0,-3 1,-1 0,-1 1,-1 1,-1 0,-1 1,-1 0,-1 1,-1 0,-2 1,-1 0,-1 1,-1 0,-1 1,-1 0,-2 1,-1 0,-1 1,-1 0,-1 1,-1 2,0 0,-59 -1,0 -1,1 0,1 -1,1 0,1 -1,1 1,1 0,2 -1,1 -2,0 -1,1 -2,0 -1,-1 -1,-1 0,-2 1,-1 0,-1 1,-1 1,-1 0,-1 1,-1 0,-1 1,-1 -1,-1 0,-2 1,-1 2,0 0,-1 1,-1 0,-2 -3,0 -1,-1 -3,0 -1,-1 -2,0 -1,-1 -3,0 -1,-1 -2,0 -1,-1 -2,0 -1,-1 -2,0 -1,-1 -2,0 -1,-1 -3,0 -1,-1 -4,0 -1,-1 -3,0 -1,-1 -2,0 -1,-1 -2,0 -1,-1 -1,0 -1,-1 -2,0 -1,1 0,0 -1,1 0,2 -1,1 0,1 -1,1 0,1 -1,1 0,1 -1,1 0,1 -1,1 0,1 -1,1 0,1 -1,1 0,2 -1,1 0,1 -1,1 0,1 -1,1 0,1 -1,1 0,1 -1,1 0,1 -1,1 0,1 -1,1 0,3 -1,1 0,1 -1,1 0,1 -1,1 -1,1 -1,1 -1,1Z"/>
<path onmouseover="hoverPath(evt)" onmouseout="recoverPath(evt)" fill="rgb(170,198,238)" d="M  253,234l 0,1 -1,1 0,2 -1,1 0,1 -1,1 0,1 -1,1 0,2 -1,1 0,1 -1,1 0,1 -1,1 -1,1 0,1 -1,1 0,2 11,0 0,-23 -1,0 0,1 -1,1Z"/>
<path onmouseover="hoverPath(evt)" onmouseout="recoverPath(evt)" fill="rgb(245,235,146)" d="M  0,219l 0,5 22,0 1,-1 18,0 -10,-1 0,-6 1,-1 13,0 1,-1 0,-3 -3,0 -1,-1 -3,0 -1,-1 -5,0 -1,-1 0,-3 1,-1 1,0 0,-13 1,-1 0,-18 1,-1 0,-5 -1,-1 0,-3 1,-1 0,-8 1,-1 0,-15 1,-1 0,-5 -1,-1 0,-18 1,-1 1,-1 -5,0 0,2 -1,1 -1,1 -5,0 0,7 -1,1 0,28 -1,1 0,10 -1,1 1,0 1,1 0,4 -1,1 -6,0 5,1 0,17 -1,1 0,2 -1,1 0,4 1,1 0,8 1,1 0,4 3,0 1,1 0,6 -1,1 -1,1 0,1 -1,1 -2,0 -1,-1 -3,0 -1,-1 0,-1 -1,-1 0,-1 -1,1 0,2 -1,1 -14,0 -1,1Z"/>
<path onmouseover="hoverPath(evt)" onmouseout="recoverPath(evt)" fill="rgb(234,237,234)" d="M  0,227l 0,28 20,0 0,-6 1,-1 0,-19 1,-1 0,-2 -21,0 -1,1Z"/>
<path onmouseover="hoverPath(evt)" onmouseout="recoverPath(evt)" fill="rgb(242,231,138)" d="M  26,94l 0,2 -1,1 -1,0 0,5 1,1 0,17 1,-8 5,0 1,-1 0,-8 1,-1 3,0 0,-7 1,-1 -1,0 -1,-1 0,-6 -1,-1 0,-11 -1,-1 0,-11 -1,-1 0,-11 -1,-1 0,-10 -1,-1 0,-11 -1,-1 0,-11 -1,-1 0,-9 -1,-1 0,-5 -11,0 0,7 1,1 0,10 1,1 0,10 1,1 0,11 1,1 0,11 1,1 0,11 1,1 0,11 1,1 0,11 1,1 0,3 1,0 1,1Z"/>
<path onmouseover="hoverPath(evt)" onmouseout="recoverPath(evt)" fill="rgb(243,242,234)" d="M  114,223l 0,2 -1,1 0,4 -1,1 0,5 -1,1 0,4 -1,1 0,1 1,1 0,11 48,0 0,-9 1,-1 0,-6 1,-1 -1,-1 0,0 -1,-1 -1,-1 -1,-1 0,-2 1,-1 1,-1 3,0 0,-5 1,-1 0,-10 1,-1 0,-3 1,-1 0,-1 1,-1 0,-1 1,-1 0,-1 1,-1 0,-1 1,-1 0,-2 1,-1 0,-2 1,-1 0,-2 1,-1 0,-2 1,-1 0,-1 1,-1 1,-1 0,-1 1,-1 0,-1 1,-1 0,-1 1,-1 0,-1 1,-1 0,-1 1,-1 0,-1 1,-1 0,-1 1,-1 0,-1 1,-1 0,-2 1,-1 0,-2 1,-1 0,-2 1,-1 0,-1 1,-1 1,-1 0,-1 1,-1 0,-1 1,-1 0,-1 1,-1 1,-1 0,-2 1,-1 0,-1 1,-1 0,-2 1,-1 0,-2 1,-1 0,-2 1,-1 0,-2 1,-1 0,-2 1,-1 0,-2 1,-1 0,-1 1,-1 0,-1 1,-1 0,-1 1,-1 0,-2 1,-1 0,-1 1,-1 0,-1 1,-1 0,-2 1,-1 0,-2 1,-1 0,-2 1,-1 0,-2 1,-1 0,-1 1,-1 0,-2 1,-1 0,-2 1,-1 1,-1 0,-1 1,-1 0,-3 -5,0 -1,1 -6,0 -1,-1 0,-2 -1,0 -1,1 -4,0 -1,1 0,2 -1,1 0,1 1,1 0,2 -1,1 -2,0 0,2 -1,1 0,2 1,1 0,2 -1,1 -2,0 0,2 -1,1 0,3 -1,1 0,2 -1,1 0,2 -1,1 0,2 -1,1 0,2 -1,1 0,1 1,1 0,3 -1,1 -2,0 0,3 -1,1 0,2 -1,1 0,2 -1,1 0,2 -1,1 0,2 -1,1 0,3 -1,1 0,2 -1,1 0,2 -1,1 0,2 -1,1 0,2 -1,1 0,3 -1,1 0,2 -1,1 0,2 -1,1 0,2 -1,1 0,2 -1,1 0,3 -1,1 0,2 -1,1 0,2 -1,1 0,2 -1,1 0,2 -1,1 0,3 -1,1 0,2 -1,1 0,2 -1,1 0,2 -1,1 0,3 -1,1 0,2 -1,1 0,2 -1,1 -1,1 -1,1 0,3 -1,1 -1,1 -3,0 -1,-1 0,-4 -31,0 0,2 -1,1Z"/>
</svg>