<svg width="256" height="256" xmlns="http://www.w3.org/2000/svg"><script> 
var tempColor;
function hoverPath(evt){
obj = evt.target;
tempColor = obj.getAttribute("fill");
obj.setAttribute("fill","red");
//alert(tempColor);
//obj.setAttribute("stroke","red");}
function recoverPath(evt){
obj = evt.target;
obj.setAttribute("fill", tempColor);
//obj.setAttribute("stroke", tempColor);
}</script><path onmouseover="hoverPath(evt)" onmouseout="recoverPath(evt)" fill="rgb(243,242,233)" d="M  63,95l -2,0 -1,1 0,1 1,1 0,1 1,1 0,1 1,1 0,2 1,1 0,1 1,1 0,1 1,1 0,1 1,1 0,2 -1,1 0,1 1,1 0,1 1,1 2,0 1,1 0,1 1,1 0,1 1,1 0,1 1,1 0,1 3,0 1,1 1,0 0,-2 1,-1 1,0 1,-1 3,0 1,-1 1,0 1,-1 3,0 1,-1 2,0 1,-1 1,-1 3,0 1,-1 0,-1 -1,-1 0,-2 -1,-1 0,-1 -1,-1 0,-2 -1,-1 0,-1 -1,-1 0,-1 -1,-1 0,-1 -1,-1 0,-4 1,-1 -2,0 -1,-1 0,-2 -1,-1 0,-3 -1,-1 0,-1 -2,0 -1,1 -3,0 -1,1 -2,0 -1,1 -1,0 -1,1 -2,0 -1,1 -1,0 -1,1 -1,0 -1,1 -2,0 -1,1 -2,0 -1,-1 -1,1Z"/>
<path onmouseover="hoverPath(evt)" onmouseout="recoverPath(evt)" fill="rgb(244,243,236)" d="M  134,144l -1,0 0,4 -1,1 0,5 -1,1 0,4 -1,1 0,3 -1,1 0,3 -1,1 0,3 -1,1 0,1 -1,1 0,2 -1,1 0,2 -1,1 0,2 -1,1 0,1 -1,1 0,2 -1,1 0,2 -1,1 0,2 -1,1 0,2 -1,1 0,1 -1,1 0,2 -1,1 0,2 -1,1 0,2 -1,1 0,1 -1,1 0,2 -1,1 0,2 -1,1 0,2 -1,1 0,2 1,1 1,0 1,1 1,0 1,1 1,0 1,1 1,0 1,1 1,0 1,1 1,0 1,1 1,0 1,1 1,0 1,1 1,0 1,1 1,0 1,1 1,0 1,1 1,0 1,1 1,1 1,0 1,1 1,0 1,1 1,0 1,1 1,0 1,1 2,0 1,1 1,0 1,1 1,0 1,1 1,0 1,1 2,0 1,1 1,0 1,1 2,0 1,1 2,0 1,1 2,0 1,1 1,0 1,1 4,0 1,1 3,0 1,1 3,0 1,1 3,0 1,1 0,2 69,0 0,-99 -11,0 -1,-1 -9,0 -1,-1 -9,0 -1,-1 -9,0 -1,-1 -8,0 -1,-1 -9,0 -1,-1 -9,0 -1,-1 -9,0 -1,-1 -8,0 -1,-1 -7,0 -1,-1 -8,0 -1,-1 -7,0 -1,-1Z"/>
<path onmouseover="hoverPath(evt)" onmouseout="recoverPath(evt)" fill="rgb(243,242,233)" d="M  0,1l 0,55 3,0 1,-1 2,0 1,-1 2,0 1,-1 2,0 1,-1 2,0 1,-1 2,0 1,-1 2,0 1,-1 2,0 1,-1 2,0 1,-1 1,0 1,-1 0,-1 -1,-1 0,-1 -1,-1 0,-2 1,-1 2,0 1,1 0,1 1,1 0,1 1,1 0,1 2,0 1,-1 2,0 1,-1 2,0 1,-1 2,0 1,-1 2,0 1,-1 2,0 1,-1 2,0 1,-1 2,0 1,-1 2,0 1,-1 2,0 1,-1 2,0 1,-1 2,0 0,-2 1,-1 2,0 1,1 1,0 0,-3 -1,-1 0,-1 -1,-1 -2,0 -1,-1 0,-2 1,-1 -1,-1 0,-2 -1,-1 0,-1 -1,-1 0,-1 -1,-1 0,-1 -1,-1 0,-1 -1,-1 -1,-1 0,-1 -1,0 -1,-1 -1,0 -1,1 -1,0 -1,1 -1,0 -1,1 -1,0 -1,1 0,1 1,1 0,1 1,1 0,2 -1,1 -2,0 -1,-1 0,-1 -1,-1 0,-1 -1,-1 0,-1 -1,0 -1,1 -1,0 -1,1 -1,0 -1,1 -1,0 -1,1 -3,0 -1,-1 -1,-1 -1,-1 0,-1 -1,-1 0,-2 1,-1 0,-2 -1,-1 0,-1 -1,-1 -1,-1 0,-2 -31,0 -1,1 28,36 -2,0 -1,-1 0,-2 1,-1 2,0 1,1 0,2 -1,1 -28,-36Z"/>
<path onmouseover="hoverPath(evt)" onmouseout="recoverPath(evt)" fill="rgb(247,236,140)" d="M  0,177l 0,8 12,0 1,1 3,0 1,1 2,0 1,1 3,0 1,1 2,0 1,1 2,0 1,1 1,1 1,0 1,1 1,0 1,1 1,1 1,0 1,1 1,0 1,1 1,0 1,1 1,0 1,1 1,0 1,1 1,0 1,1 1,0 1,1 1,0 1,1 1,0 1,1 1,0 1,1 1,0 1,1 1,0 1,1 1,0 1,1 1,1 1,0 1,1 1,0 1,1 1,0 1,1 1,0 1,1 1,1 1,0 1,1 1,0 1,1 1,0 1,1 1,1 1,0 1,1 1,0 1,1 1,1 1,0 1,1 0,5 -1,1 0,3 -1,1 0,3 -1,1 0,3 -1,1 0,2 -1,1 0,2 -1,1 0,2 -1,1 0,2 -1,1 0,1 -1,1 0,1 16,0 0,-2 1,-1 0,-1 1,-1 0,-2 1,-1 0,-2 1,-1 0,-1 1,-1 0,-2 1,-1 0,-2 2,-2 0,-1 1,-1 2,0 1,-1 2,0 1,1 1,0 1,1 1,0 1,1 1,0 1,1 1,0 1,1 1,0 1,1 1,0 1,1 1,0 1,1 1,0 1,1 1,0 1,1 2,0 1,1 1,0 1,1 1,0 1,1 1,0 1,1 1,0 1,1 1,0 1,1 1,0 1,1 2,0 1,1 1,0 1,1 2,0 1,1 1,0 1,1 0,2 33,0 0,-1 -3,0 -1,-1 -3,0 -1,-1 -3,0 -1,-1 -4,0 -1,-1 -1,0 -1,-1 -2,0 -1,-1 -2,0 -1,-1 -2,0 -1,-1 -1,0 -1,-1 -2,0 -1,-1 -1,0 -1,-1 -1,0 -1,-1 -1,0 -1,-1 -2,0 -1,-1 -1,0 -1,-1 -1,0 -1,-1 -1,0 -1,-1 -1,0 -1,-1 -1,-1 -1,0 -1,-1 -1,0 -1,-1 -1,0 -1,-1 -1,0 -1,-1 -1,0 -1,-1 -1,0 -1,-1 -1,0 -1,-1 -1,0 -1,-1 -1,0 -1,-1 -1,0 -1,-1 -1,0 -1,-1 -1,0 -1,-1 -1,-1 0,-4 1,-1 0,-2 1,-1 0,-2 1,-1 0,-2 1,-1 0,-1 1,-1 0,-2 1,-1 0,-2 1,-1 0,-2 1,-1 0,-1 1,-1 0,-2 1,-1 0,-2 1,-1 0,-2 1,-1 0,-2 1,-1 0,-1 1,-1 0,-2 1,-1 0,-2 1,-1 0,-2 1,-1 0,-1 1,-1 0,-3 1,-1 0,-3 1,-1 0,-3 1,-1 0,-4 1,-1 0,-5 1,-1 0,-4 1,-1 9,0 1,1 7,0 1,1 8,0 1,1 7,0 1,1 8,0 1,1 9,0 1,1 9,0 1,1 9,0 1,1 8,0 1,1 9,0 1,1 9,0 1,1 9,0 1,1 10,0 0,-9 -8,0 -1,-1 -8,0 -1,-1 -9,0 -1,-1 -8,0 -1,-1 -8,0 -1,-1 -8,0 -1,-1 -9,0 -1,-1 -8,0 -1,-1 -8,0 -1,-1 -8,0 -1,-1 -7,0 -1,-1 -8,0 -1,-1 -9,0 -1,-1 -3,0 -1,-1 0,-20 1,-1 0,-3 -1,-1 0,-27 -1,-1 0,-5 1,-1 1,-1 7,0 1,-1 14,0 1,-1 11,0 1,-1 5,0 1,-1 1,-1 2,0 1,1 7,0 1,-1 10,0 1,-1 17,0 1,-1 8,0 1,-1 11,0 1,-1 11,0 1,-1 7,0 0,-10 -2,0 -1,1 -12,0 -1,1 -12,0 -1,1 -15,0 -1,1 -10,0 -1,1 -16,0 -1,1 -16,0 -1,1 -17,0 -1,1 -16,0 -1,-1 0,-9 -1,-1 0,-15 -1,-1 0,-11 -1,-1 0,-11 -1,-1 0,-8 -18,0 0,18 1,1 0,8 1,0 1,1 1,1 0,2 -1,1 -1,0 0,11 -1,1 0,4 1,1 0,3 1,1 0,11 -1,1 -3,0 -1,-1 0,0 -1,1 -1,1 -2,0 -1,1 -2,0 -1,1 -2,0 -1,1 -2,0 -1,1 -2,0 -1,1 -5,0 0,2 -1,1 -2,0 -1,-1 -1,1 -1,0 -1,1 -2,0 -1,1 -2,0 0,2 -1,1 -3,0 -1,-1 -2,0 -1,1 -1,0 -1,1 -1,0 1,1 0,1 1,1 0,2 -1,1 -4,0 -1,1 -4,0 -1,-1 0,-1 -3,0 -1,-1 -2,0 -1,1 -2,0 0,1 -1,1 -5,0 0,2 -1,1 -3,0 -1,1 -5,0 0,1 -1,1 -2,0 -1,1 -3,0 0,1 -1,1 -1,1 -2,0 -1,-1 -1,0 -1,1 -1,0 -1,1 -2,0 -1,1 -2,0 -1,1 -2,0 -1,1 -2,0 0,12 2,0 1,1 3,0 1,-1 2,0 1,-1 1,0 1,-1 1,-1 3,0 1,-1 7,0 1,-1 2,0 0,-1 1,-1 4,0 0,-1 1,-1 1,-1 3,0 1,-1 5,0 1,1 0,2 1,1 0,-2 1,-1 0,-4 1,-1 2,0 1,-1 2,0 1,1 1,0 0,-1 1,-1 2,0 1,1 0,1 1,1 0,1 1,1 0,1 1,1 0,1 -3,-8 0,-1 1,-1 1,-1 2,0 1,-1 2,0 1,1 1,-1 2,0 1,-1 1,0 1,-1 1,0 1,-1 2,0 1,-1 1,0 1,-1 2,0 1,-1 3,0 1,-1 4,0 1,1 0,-2 1,-1 1,0 1,-1 2,0 1,-1 1,0 1,-1 2,0 1,-1 2,0 1,-1 4,0 0,-1 1,-1 2,0 1,1 0,6 1,1 0,15 1,1 0,31 -1,1 -2,0 0,7 -1,1 -2,0 0,1 -1,1 0,4 -1,1 0,1 -1,1 0,3 -1,1 0,2 -1,1 0,2 -1,1 0,2 -1,1 0,2 -1,1 0,2 -1,1 0,2 -1,1 0,2 -1,1 0,2 -1,1 0,2 -1,1 0,3 -1,1 0,2 -1,1 0,2 -1,1 0,2 -1,1 0,4 -1,1 0,3 -1,1 0,3 -1,1 0,3 -1,1 -3,0 -1,-1 -1,-1 -1,0 -1,-1 -1,0 -1,-1 -1,-1 -1,0 -1,-1 -1,0 -1,-1 -1,0 -1,-1 -1,0 -1,-1 -1,-1 -1,0 -1,-1 -1,0 -1,-1 -1,0 -1,-1 -1,0 -1,-1 -1,-1 -1,0 -1,-1 -2,0 -1,-1 -1,0 -1,-1 -1,0 -1,-1 -1,0 -1,-1 -1,0 -1,-1 -1,0 -1,-1 -1,0 -1,-1 -1,0 -1,-1 -1,0 -1,-1 -1,0 -1,-1 -1,0 -2,-2 -2,0 -1,-1 -2,0 -1,-1 -4,0 -1,-1 -3,0 -1,-1 -3,0 -1,-1 -3,0 -1,-1 -7,0 -1,-1 -3,0 0,2 95,28 1,-1 0,-3 1,-1 0,-3 1,-1 0,-3 1,-1 0,-3 1,-1 0,-2 1,-1 0,-2 1,-1 0,-2 1,-1 0,-2 1,-1 0,-2 1,-1 0,-2 1,-1 0,-2 1,-1 0,-3 1,-1 0,-2 1,-1 0,-2 1,-1 0,-2 1,-1 0,-1 1,-1 2,0 1,1 0,6 -1,1 0,4 -1,1 0,4 -1,1 0,2 -1,1 0,3 -1,1 0,2 -1,1 0,2 -1,1 0,2 -1,1 0,2 -1,1 0,2 -1,1 0,1 -1,1 0,2 -1,1 0,2 -1,1 0,1 -1,1 0,2 -1,1 0,2 -1,1 0,1 -1,1 -2,0 -1,-1 0,-4 -95,-28Z"/>
<path onmouseover="hoverPath(evt)" onmouseout="recoverPath(evt)" fill="rgb(245,244,237)" d="M  102,237l 0,0 -1,1 0,2 -1,1 0,2 -1,1 0,1 -1,1 0,2 -1,1 0,2 -1,1 0,1 -1,1 0,1 54,0 0,-1 -1,0 -1,-1 -2,0 -1,-1 -1,0 -1,-1 -2,0 -1,-1 -1,0 -1,-1 -1,0 -1,-1 -1,0 -1,-1 -1,0 -1,-1 -1,0 -1,-1 -1,0 -1,-1 -2,0 -1,-1 -1,0 -1,-1 -1,0 -1,-1 -1,0 -1,-1 -1,0 -1,-1 -1,0 -1,-1 -1,0 -1,-1 -1,0 -1,-1 -1,0 -1,-1 -1,0 -1,-1 -1,1 -2,0 0,1 -1,1Z"/>
<path onmouseover="hoverPath(evt)" onmouseout="recoverPath(evt)" fill="rgb(241,241,236)" d="M  153,56l 11,0 1,-1 16,0 1,-1 16,0 1,-1 10,0 1,-1 15,0 1,-1 12,0 1,-1 12,0 1,-1 3,0 0,-49 -127,0 0,7 1,1 0,11 1,1 0,11 1,1 0,15 1,1 0,9 14,0 1,-1 6,0 51,-55 9,0 1,1 1,1 0,8 1,1 0,9 -1,1 -6,0 -1,1 -12,0 -1,1 -15,0 -1,-1 0,-3 -1,-1 0,-15 1,-1 11,0 1,-1 12,0 1,-1 -51,55Z"/>
<path onmouseover="hoverPath(evt)" onmouseout="recoverPath(evt)" fill="rgb(236,238,235)" d="M  180,5l 0,13 1,1 0,3 13,0 1,-1 12,0 1,-1 6,0 0,-7 -1,-1 0,-8 -1,-1 -7,0 -1,1 -12,0 -1,1Z"/>
<path onmouseover="hoverPath(evt)" onmouseout="recoverPath(evt)" fill="rgb(239,238,228)" d="M  92,50l 0,2 -1,1 -1,1 -1,1 0,3 1,1 0,2 -1,1 -1,1 -1,0 -1,1 -1,1 -3,0 -1,1 0,1 -1,1 1,1 0,2 1,1 0,-2 1,-1 5,0 1,-1 2,0 1,-1 2,0 1,-1 2,0 1,-1 2,0 1,-1 2,0 1,-1 0,-4 1,-1 2,0 1,1 0,4 1,0 0,-9 -1,-1 0,-3 -1,-1 0,-6 1,-1 0,-11 1,-1 0,-1 -1,0 -1,-1 0,-8 -1,-1 0,-19 -72,0 0,1 1,1 0,0 1,1 0,1 1,1 0,3 1,1 0,2 -1,1 1,1 1,1 1,0 1,-1 1,0 1,-1 1,0 1,-1 1,0 1,-1 3,0 1,1 0,-1 1,-1 1,-1 1,0 1,-1 1,0 1,-1 1,0 1,-1 3,0 1,1 1,0 1,1 0,1 1,1 2,0 1,1 0,1 1,1 0,1 1,1 0,1 1,1 0,2 -1,1 0,1 1,1 0,2 -1,1 2,0 1,1 2,0 1,1 1,1 0,1 1,1 1,1 1,0 1,-1 2,0 1,-1 4,0 1,1 0,2 -1,1 -1,0 0,1 -1,1 0,8 1,1 2,0 1,1 0,3 1,1 0,2 -13,-44 2,0 1,1 0,1 2,2 0,2 -1,1 -2,0 -1,-1 -1,-1 0,-1 -1,-1 0,-2 1,-1 13,44Z"/>
<path onmouseover="hoverPath(evt)" onmouseout="recoverPath(evt)" fill="rgb(244,243,236)" d="M  137,130l 0,0 1,1 9,0 1,1 8,0 1,1 7,0 1,1 8,0 1,1 8,0 1,1 8,0 1,1 9,0 1,1 8,0 1,1 8,0 1,1 8,0 1,1 9,0 1,1 8,0 1,1 7,0 0,-80 -6,0 -1,1 -11,0 -1,1 -11,0 -1,1 -8,0 -1,1 -17,0 -1,1 -10,0 -1,1 -9,0 -1,-1 -1,1 -1,1 -5,0 -1,1 -11,0 -1,1 -14,0 -1,1 -7,0 -1,1 0,3 1,1 0,27 1,1 0,5 -1,1 0,18Z"/>
<path onmouseover="hoverPath(evt)" onmouseout="recoverPath(evt)" fill="rgb(252,252,250)" d="M  0,59l 0,5 2,0 1,1 0,1 1,1 0,1 1,1 0,2 -1,1 1,1 0,1 2,0 1,1 0,1 1,1 0,1 1,1 0,2 1,1 0,2 -1,1 2,0 1,1 0,1 1,1 0,2 1,1 0,1 1,1 0,1 1,1 1,-1 -1,-1 0,-1 -1,-1 0,-1 -1,-1 0,-1 -1,-1 0,-1 -1,-1 0,-2 -1,-1 0,-1 -1,-1 0,-1 -1,-1 0,-1 -1,-1 0,-1 -1,-1 0,-2 -1,-1 0,-1 -1,-1 0,-1 -1,-1 0,-1 -1,-1 0,-1 -1,-1 0,-3 1,-1 1,0 1,-1 2,0 1,-1 2,0 1,-1 2,0 1,-1 2,0 1,-1 2,0 1,-1 2,0 1,-1 2,0 1,-1 1,0 1,-1 3,0 1,-1 2,0 1,-1 1,0 1,-1 3,0 1,-1 3,0 1,1 0,-2 1,-1 3,0 1,-1 1,0 1,-1 2,0 1,-1 2,0 1,-1 3,0 1,1 4,0 1,1 0,1 1,1 1,1 0,1 -1,-3 0,-2 1,-1 1,0 1,-1 2,0 0,-2 1,-1 3,0 1,1 1,-1 2,0 1,-1 2,0 0,-2 1,-1 0,-1 1,-1 -1,0 -1,1 -2,0 -1,1 -3,0 -1,-1 -2,-2 0,4 -1,1 -3,0 -1,-1 0,2 -1,1 -2,0 -1,1 -2,0 -1,1 -2,0 -1,1 -2,0 -1,1 -2,0 -1,1 -2,0 -1,1 -2,0 -1,1 -2,0 -1,1 -2,0 -1,1 -2,0 -1,1 -2,0 -1,1 -4,0 -1,-1 0,1 -1,1 -1,1 -1,0 -1,1 -2,0 -1,1 -2,0 -1,1 -2,0 -1,1 -2,0 -1,1 -2,0 -1,1 -2,0 -1,1 -2,0 -1,1 -2,0 -1,1 -3,0 -1,1Z"/>
<path onmouseover="hoverPath(evt)" onmouseout="recoverPath(evt)" fill="rgb(243,242,232)" d="M  0,71l 0,28 1,0 1,-1 2,0 1,-1 2,0 1,-1 2,0 1,-1 1,0 1,-1 1,0 -1,-1 0,-1 -1,-1 0,-2 -1,-1 0,-1 -2,0 -1,-1 0,-2 1,-1 -1,-1 0,-2 -1,-1 0,-1 -1,-1 0,-1 -2,0 -1,-1 0,-1 -1,-1 0,-2 1,-1 -1,-1 0,-1 -1,-1 0,-1 -1,0Z"/>
<path onmouseover="hoverPath(evt)" onmouseout="recoverPath(evt)" fill="rgb(244,242,235)" d="M  0,147l 0,26 4,0 1,1 7,0 1,1 3,0 1,1 3,0 1,1 3,0 1,1 4,0 1,1 2,0 1,1 2,0 1,1 1,1 1,0 1,1 1,0 1,1 1,0 1,1 1,0 1,1 1,0 1,1 1,0 1,1 1,0 1,1 1,0 1,1 1,0 1,1 1,0 1,1 2,0 1,1 1,0 1,1 1,1 1,0 1,1 1,0 1,1 1,0 1,1 1,0 1,1 1,1 1,0 1,1 1,0 1,1 1,0 1,1 1,0 1,1 1,1 1,0 1,1 1,0 1,1 1,1 1,0 0,-3 1,-1 0,-3 1,-1 0,-3 1,-1 0,-4 1,-1 0,-2 1,-1 0,-2 1,-1 0,-2 1,-1 0,-3 1,-1 0,-2 1,-1 0,-2 1,-1 0,-2 1,-1 0,-2 1,-1 0,-2 1,-1 0,-2 1,-1 0,-2 1,-1 0,-2 1,-1 0,-2 1,-1 0,-3 1,-1 0,-1 1,-1 0,-4 1,-1 0,-1 1,-1 2,0 0,-7 1,-1 2,0 0,-29 -1,-1 0,-15 -1,-1 0,-6 -1,2 -4,0 -1,1 -2,0 -1,1 -2,0 -1,1 -1,0 -1,1 -2,0 -1,1 -1,0 0,3 -1,1 0,2 1,1 0,2 2,0 1,1 0,2 -1,1 0,2 1,1 0,1 1,1 0,1 1,1 0,1 1,1 0,2 1,1 0,1 1,1 0,2 1,1 0,3 -1,1 -1,1 -3,0 -1,1 -1,1 -2,0 -1,1 -3,0 -1,1 -1,0 -1,1 -3,0 -1,1 -1,0 0,2 -1,1 -3,0 -1,-1 -3,0 -1,-1 0,-1 -1,-1 0,-1 -1,-1 0,-1 -1,-1 0,-1 -2,0 -1,-1 -1,-1 0,-1 -1,-1 0,-2 -1,-1 0,-1 -1,-1 0,-2 1,-1 -1,-1 0,-1 -2,0 -1,-1 0,-1 -1,-1 0,-1 -1,-1 0,-1 -1,-1 0,-1 -1,2 -3,0 -1,-1 -1,1 -2,0 0,4 -1,1 0,2 -1,1 -2,0 -1,-1 -1,-1 0,-2 -3,0 -1,1 -3,0 -1,1 0,1 -1,1 -4,0 0,1 -1,1 -2,0 -1,1 -7,0 -1,1 -3,0 -1,1 -1,1 -1,0 -1,1 -2,0 -1,1 -5,0 -1,-1 -1,0 0,32 53,-28 0,2 -1,1 -2,0 -1,-1 0,-2 1,-1 2,0 1,1 -53,28 55,-22 1,1 0,1 1,1 0,2 -1,1 -2,0 -1,-1 0,-1 -1,-1 0,-2 1,-1 2,0 -55,22 32,-15 1,-1 2,0 1,1 0,2 -1,1 -2,0 -1,-1 0,-2 -32,15Z"/>
<path onmouseover="hoverPath(evt)" onmouseout="recoverPath(evt)" fill="rgb(245,244,237)" d="M  1,187l -1,0 0,68 75,0 0,-2 1,-1 0,-1 1,-1 0,-2 1,-1 0,-2 1,-1 0,-2 1,-1 0,-2 1,-1 0,-3 1,-1 0,-3 1,-1 0,-3 1,-1 0,-3 -1,0 -1,-1 -1,-1 -1,0 -1,-1 -1,0 -1,-1 -1,-1 -1,0 -1,-1 -1,0 -1,-1 -1,0 -1,-1 -1,-1 -1,0 -1,-1 -1,0 -1,-1 -1,0 -1,-1 -1,0 -1,-1 -1,-1 -1,0 -1,-1 -1,0 -1,-1 -1,0 -1,-1 -1,0 -1,-1 -1,0 -1,-1 -1,0 -1,-1 -1,0 -1,-1 -1,0 -1,-1 -1,0 -1,-1 -1,0 -1,-1 -1,0 -1,-1 -1,0 -1,-1 -1,0 -2,-2 -1,0 -1,-1 -1,0 -1,-1 -1,-1 -2,0 -1,-1 -2,0 -1,-1 -3,0 -1,-1 -2,0 -1,-1 -3,0 -1,-1Z"/>
<path onmouseover="hoverPath(evt)" onmouseout="recoverPath(evt)" fill="rgb(241,239,229)" d="M  27,71l -2,0 -1,-1 0,-1 -1,-1 0,-1 -1,-1 0,-6 1,-1 -1,0 -1,-1 0,-2 -2,0 -1,1 -2,0 -1,1 -2,0 -1,1 -2,0 -1,1 -2,0 -1,1 -1,0 0,1 1,1 0,1 1,1 0,1 1,1 0,1 1,1 0,1 1,1 0,2 1,1 0,1 1,1 0,1 1,1 0,1 1,1 0,1 1,1 0,2 1,1 0,1 1,1 0,1 1,1 0,1 1,1 0,1 3,0 1,-1 2,0 0,-1 1,-1 5,0 1,-1 3,0 0,-2 1,-1 5,0 0,-1 1,-1 2,0 1,-1 2,0 0,-2 -1,-1 0,0 -1,-1 -1,-1 -1,-1 0,-4 -1,-1 0,-2 1,-1 -2,0 -1,-1 0,-1 -1,-1 0,-1 -1,-1 0,-1 -1,-1 0,-2 -4,0 -1,1 -1,0 -1,1 -1,0 -1,1 -1,0 -1,1 0,2 1,1 0,1 1,1 0,2 -1,1Z"/>
<path onmouseover="hoverPath(evt)" onmouseout="recoverPath(evt)" fill="rgb(236,234,222)" d="M  69,48l 0,0 -1,-1 0,-1 -1,-1 -1,-1 0,-1 -4,0 -1,-1 -1,0 -1,1 -2,0 -1,1 -2,0 -1,1 -1,0 -1,1 -3,0 0,2 -1,1 -2,0 -1,-1 -1,0 -1,1 -3,0 -1,1 -1,0 -1,1 -2,0 -1,1 -3,0 -1,1 -1,0 -1,1 -2,0 0,2 -1,1 -1,0 2,1 0,2 -1,1 0,4 1,-4 0,0 1,-1 1,0 1,-1 1,0 0,-2 1,-1 2,0 1,1 5,0 1,1 0,2 1,1 0,1 1,1 0,1 1,1 0,1 2,0 1,1 0,1 1,1 0,2 -1,1 0,3 1,1 0,0 1,1 1,1 1,1 0,3 1,1 3,0 1,1 0,1 2,0 1,-1 4,0 -1,-1 0,-1 -1,-1 0,-2 1,-1 1,0 1,-1 1,0 1,-1 4,0 1,1 1,0 0,-2 1,-1 2,0 1,-1 2,0 1,-1 1,0 1,-1 0,-1 -1,-1 0,-2 1,-1 0,-1 1,-1 1,-1 3,0 1,-1 1,-1 1,0 1,-1 -1,-1 0,-5 3,-3 0,-2 -1,-1 0,-3 -2,0 -1,-1 -1,-1 0,-6 -1,0 -1,1 -2,0 -1,1 -2,0 -1,-1 -1,0 0,2 -1,1 -2,0 -1,1 -1,0 0,1 1,1 0,3 -1,1Z"/>
<path onmouseover="hoverPath(evt)" onmouseout="recoverPath(evt)" fill="rgb(245,244,237)" d="M  113,155l 0,0 -1,1 0,2 -1,1 0,2 -1,1 0,2 -1,1 0,3 -1,1 0,2 -1,1 0,2 -1,1 0,2 -1,1 0,2 -1,1 0,2 -1,1 0,2 -1,1 0,2 -1,1 0,3 -1,1 0,3 -1,1 0,3 -1,1 0,3 -1,1 0,2 1,-2 0,0 1,-3 0,-1 1,-2 0,-1 1,-1 0,-2 1,-1 0,-2 1,-1 0,-1 1,-1 0,-2 1,-1 0,-2 1,-1 0,-2 1,-1 0,-2 1,-1 0,-2 1,-1 0,-3 1,-1 0,-2 1,-1 0,-4 1,-1 0,-4 1,-1Z"/>
</svg>