<svg width="256" height="256" xmlns="http://www.w3.org/2000/svg"><script> 
var tempColor;
function hoverPath(evt){
obj = evt.target;
tempColor = obj.getAttribute("fill");
obj.setAttribute("fill","red");
//alert(tempColor);
//obj.setAttribute("stroke","red");}
function recoverPath(evt){
obj = evt.target;
obj.setAttribute("fill", tempColor);
//obj.setAttribute("stroke", tempColor);
}</script><path onmouseover="hoverPath(evt)" onmouseout="recoverPath(evt)" fill="rgb(242,241,233)" d="M  1,152l -1,0 0,22 2,0 1,-1 1,0 1,-1 3,0 1,-1 2,0 1,-1 2,0 1,-1 3,0 1,1 0,1 1,1 0,1 1,1 0,2 3,0 1,1 1,1 0,2 -1,1 -2,0 0,2 -1,1 1,1 0,1 4,0 1,1 0,2 -1,1 0,2 -1,1 1,1 0,1 4,0 1,1 0,1 1,1 0,1 1,1 0,2 4,0 1,-1 2,0 1,1 1,0 1,-1 3,0 1,1 2,0 0,-2 1,-1 1,0 1,-1 2,0 1,-1 2,0 1,-1 2,0 1,-1 0,-4 1,-1 -2,0 -1,-1 0,-1 -2,0 -1,-1 0,-1 -1,-1 0,-1 -1,-1 0,-2 -1,-1 0,-1 -1,-1 0,-1 -1,-1 0,-1 -1,-1 0,-2 -1,-1 0,-1 -1,-1 0,-5 1,-1 1,-1 0,-1 1,-1 1,0 1,-1 1,-1 1,-1 3,0 1,1 0,2 14,0 1,1 0,1 -8,-3 0,-2 1,-1 3,0 0,-1 1,-1 0,-2 -1,-1 0,-2 -1,-1 0,-3 -1,-1 0,-2 -1,-1 0,-2 -1,-1 0,-2 -1,-1 0,-3 1,-1 -1,0 -1,-1 -1,-1 -2,0 -1,-1 -1,0 -1,-1 0,1 -1,1 -2,0 -1,-1 0,-1 -2,0 -1,-1 0,-1 -1,-1 0,1 -1,1 -2,0 -1,-1 -1,-1 0,-1 -1,-1 -1,0 -1,-1 -2,0 -1,-1 -1,0 0,1 -1,1 -2,0 -1,-1 -1,-1 0,-1 -1,0 -1,-1 0,1 -1,1 -2,0 -1,-1 -2,0 -1,-1 -5,0 -1,-1 -3,0 -1,-1 -7,0 -1,-1 -2,0 -1,-1 0,-1 -2,0 -1,-1 -1,0 0,31 26,0 1,1 1,1 0,6 -1,1Z"/>
<path onmouseover="hoverPath(evt)" onmouseout="recoverPath(evt)" fill="rgb(235,237,232)" d="M  1,176l -1,0 0,10 2,0 1,1 0,1 1,1 0,1 4,0 1,1 0,1 1,1 0,1 1,1 0,2 1,1 3,0 1,-1 2,0 1,-1 2,0 1,-1 3,0 -1,-1 0,-2 1,-1 0,-2 1,-1 -4,0 -1,-1 0,-1 -1,-1 0,-2 1,-1 0,-2 1,-1 2,0 -1,-1 -3,0 -1,-1 0,-2 -1,-1 0,-1 -1,-1 0,-1 -1,0 -1,1 -2,0 -1,1 -2,0 -1,1 -3,0 -1,1 -1,0 -1,1Z"/>
<path onmouseover="hoverPath(evt)" onmouseout="recoverPath(evt)" fill="rgb(241,240,232)" d="M  0,236l 0,11 1,0 1,-1 2,0 1,-1 2,0 1,-1 2,0 1,-1 2,0 1,-1 2,0 1,-1 2,0 1,-1 2,0 1,-1 2,0 1,-1 2,0 1,-1 2,0 1,-1 2,0 1,-1 2,0 1,-1 2,0 1,-1 2,0 1,-1 2,0 1,-1 2,0 1,-1 2,0 1,-1 2,0 1,-1 1,0 0,-2 1,-1 7,0 1,-1 2,0 1,-1 2,0 1,-1 1,0 1,-1 2,0 1,-1 2,0 1,-1 1,0 1,-1 2,0 1,-1 0,-2 -1,-1 0,-1 -1,-1 0,-1 -1,-1 0,-1 -3,0 -1,1 -2,0 -1,1 -2,0 -1,1 -3,0 -1,-1 -1,1 -3,0 -1,-1 -1,0 -1,1 -4,0 -1,-1 0,-1 -2,0 -1,-1 0,-2 -2,0 -1,-1 0,-2 -3,0 -1,-1 -1,0 -1,1 -3,0 -1,-1 -1,1 -6,0 -1,-1 0,-2 -1,-1 0,-1 -1,-1 0,-1 -7,0 -1,1 -2,0 -1,1 -2,0 -1,1 -5,0 -1,-1 -1,-1 0,-2 -1,-1 0,-1 -1,-1 0,-1 -4,0 -1,-1 0,-1 -1,-1 0,-1 -1,0Z"/>
<path onmouseover="hoverPath(evt)" onmouseout="recoverPath(evt)" fill="rgb(235,237,232)" d="M  33,64l 0,7 3,0 1,1 0,-1 1,-1 5,0 1,-1 1,0 1,-1 3,0 1,1 2,0 -3,-2 0,-3Z"/>
<path onmouseover="hoverPath(evt)" onmouseout="recoverPath(evt)" fill="rgb(243,241,232)" d="M  175,96l 0,0 -1,-1 0,-1 -1,-1 0,-3 1,-1 1,0 1,-1 1,0 1,-1 4,0 1,1 1,1 1,1 0,1 1,1 1,1 0,1 1,1 1,1 0,1 1,1 0,2 -1,1 -1,1 -1,0 -1,1 -1,0 -1,1 -3,0 -1,-1 -1,-1 -1,-1 0,-1 -1,-1 -1,-1 0,-1 -1,-1 -3,-2 0,1 1,1 0,1 1,1 0,1 1,1 0,2 1,1 0,2 1,1 0,1 1,1 0,2 1,1 0,3 1,1 0,4 1,1 0,17 -1,1 0,2 -1,1 0,1 -1,1 0,1 -1,1 0,1 -1,1 -1,0 0,3 -1,1 -1,0 -1,1 0,2 1,0 1,-1 2,0 1,1 0,2 3,0 1,-1 1,0 1,-1 2,0 1,-1 3,0 1,1 1,0 0,-2 1,-1 1,0 1,-1 2,0 1,-1 2,0 1,-1 1,0 1,-1 1,0 1,-1 4,0 1,1 1,0 0,-2 1,-1 1,-1 4,0 1,1 0,-2 1,-1 2,0 1,-1 1,0 1,-1 2,0 1,-1 3,0 1,1 1,0 1,-1 0,0 1,-1 -1,-1 0,0 -1,-1 0,-2 -1,0 -1,-1 -1,-1 -1,-1 0,-1 -1,-1 -1,-1 -1,-1 0,-2 -1,0 -1,-1 -1,-1 -1,-1 0,-1 -1,-1 -1,-1 -1,-1 0,-2 -1,0 -1,-1 -1,-1 0,-2 -1,0 -1,-1 -1,-1 -1,-1 0,-2 -1,0 -1,-1 -1,-1 -1,-1 0,-2 -1,0 -1,-1 -1,-1 0,-1 -1,-1 -1,-1 0,-1 -2,0 -1,-1 0,-2 1,-1 -1,-1 0,-1 -1,-1 0,-1 -1,-1 0,-1 -1,-1 0,-1 -1,-1 0,-1 -1,-1 0,-1 -1,-1 0,-1 -1,-1 0,-1 -1,-1 0,-1 -2,0 -1,-1 0,-1 -1,-1 0,-5 1,-1 19,0 0,-3 -10,0 -1,1 -39,0 -1,1 -9,0 -1,-1 -1,-1 0,-1 -1,-1 0,-2 1,-1 -3,0 -1,1 -31,0 0,2 -1,1 -8,0 0,5 1,0 1,1 20,0 1,1 1,0 1,1 2,0 1,1 2,0 1,1 1,0 1,1 2,0 1,1 1,0 1,1 2,0 1,1 1,0 1,1 2,0 1,1 2,0 1,1 1,0 1,1 1,0 1,1 1,0 1,1 1,0 1,1 1,1 2,0 1,1 0,1 1,1 2,0 1,1 0,1 1,1 1,1 1,0 1,1 0,1 1,1 1,1 1,1 3,2Z"/>
<path onmouseover="hoverPath(evt)" onmouseout="recoverPath(evt)" fill="rgb(244,243,235)" d="M  187,255l 38,0 0,-2 1,-1 2,0 -1,-1 -1,0 -1,-1 0,-1 -1,-1 0,-1 -1,-1 0,-1 -1,-1 0,-1 -1,-1 0,-1 -1,-1 0,-1 -1,-1 0,-1 -1,-1 0,-1 -1,-1 0,-1 -1,-1 0,-1 -1,-1 0,-1 -1,-1 0,-1 -1,-1 0,-1 -1,-1 0,-1 -1,-1 0,-1 -1,-1 0,-1 -1,-1 -1,-1 0,-1 -1,-1 0,-1 -1,-1 0,-1 -1,-1 0,-1 -1,-1 0,-1 -1,-1 0,-1 -1,-1 0,-1 -1,-1 0,-1 -1,-1 0,-2 -1,-1 0,-3 -1,-1 0,-1 -1,1 -1,0 -2,2 -1,0 -1,1 -1,0 -1,1 -2,0 -1,1 -2,0 -1,1 -1,0 -1,1 -2,0 -1,1 -2,0 -1,1 -2,0 -1,1 -2,0 -1,1 -2,0 -1,1 -2,0 -1,1 -2,0 -1,1 -2,0 -1,1 -2,0 -1,1 -3,0 -1,1 -2,0 -1,1 -2,0 -1,1 -2,0 -1,1 -2,0 -1,1 -2,0 -1,1 -2,0 -1,1 -2,0 -1,1 -3,0 -1,1 -2,0 -1,1 -1,0 -1,1 0,1 1,1 0,1 1,1 0,2 1,1 0,1 1,1 0,2 1,1 0,1 1,1 0,2 1,1 0,1 1,1 0,1 1,1 0,1 1,1 0,1 1,1 0,2 1,1 0,1 1,1 0,1 1,1 0,2 52,0 -31,-43 2,0 1,-1 2,0 1,1 1,1 1,1 0,1 1,1 0,1 1,1 0,2 -1,1 -1,1 -1,0 -1,1 -2,0 -1,1 -1,0 -1,1 -1,0 -1,1 -2,0 -1,-1 -1,-1 -1,-1 0,-1 -1,-1 0,-1 -1,-1 0,-3 1,-1 2,0 1,-1 1,0 1,-1 1,0 1,-1 31,43Z"/>
<path onmouseover="hoverPath(evt)" onmouseout="recoverPath(evt)" fill="rgb(243,240,231)" d="M  212,196l 0,2 1,1 0,1 1,1 0,1 1,1 0,1 1,1 1,1 0,1 1,1 0,1 1,1 0,1 1,1 0,1 1,1 0,1 1,1 0,1 1,1 0,1 1,1 0,1 1,1 0,1 1,1 0,1 1,1 0,1 1,1 0,1 1,1 0,1 1,1 0,1 1,1 0,1 1,1 0,1 1,1 0,1 1,1 0,1 1,1 0,1 1,1 1,1 0,1 1,1 0,3 1,-1 4,0 1,1 0,2 -1,1 -2,0 0,2 14,0 0,-49 -5,0 -1,-1 -1,-1 0,-1 -1,0 -1,-1 -3,0 -1,-1 -3,0 -1,-1 -2,0 -1,-1 -3,0 -1,-1 -3,0 -1,1 -2,0 -1,-1 0,-1 -1,-1 -1,0 -1,1 -2,0 -1,-1 0,-1 -1,-1 -3,0 -1,-1 -2,0 0,2 1,1Z"/>
<path onmouseover="hoverPath(evt)" onmouseout="recoverPath(evt)" fill="rgb(170,197,237)" d="M  234,16l 0,4 -1,1 0,3 -1,1 0,4 -1,1 0,3 -1,1 0,5 -1,1 0,6 -1,1 0,6 -1,1 0,7 -1,1 0,5 1,1 0,1 1,1 0,1 1,1 0,1 1,1 0,1 1,1 0,1 2,2 1,1 0,1 1,1 1,1 1,1 0,1 1,1 1,1 1,1 0,1 1,1 1,1 1,1 1,1 0,1 1,1 1,1 1,1 0,1 1,1 1,1 0,1 1,1 0,1 1,1 1,1 0,1 1,1 0,1 1,1 0,1 1,0 0,-23 -2,0 -1,-1 -1,-1 0,-1 -1,-1 0,-1 -1,-1 -1,-1 0,-1 -1,-1 -1,-1 0,-1 -1,-1 -1,-1 0,-1 -1,-1 0,-1 -1,-1 0,-3 -1,-1 0,-12 1,-1 0,-6 1,-1 0,-7 1,-1 0,-7 1,-1 0,-7 1,-1 0,-4 1,-1 1,-1 -1,0 -1,-1 -3,0 0,1 -1,1 -2,0 -1,-1 0,-2 -5,0 -1,-1 -2,0 2,1 0,1 1,1Z"/>
<path onmouseover="hoverPath(evt)" onmouseout="recoverPath(evt)" fill="rgb(239,238,230)" d="M  34,105l 0,2 4,0 1,1 1,1 0,1 1,0 1,1 3,0 1,1 1,0 1,-1 4,0 1,1 1,1 0,1 1,0 1,1 1,0 1,1 2,0 1,1 1,0 1,1 2,0 1,1 1,-1 1,0 0,-3 1,-1 0,-1 1,-1 1,-1 0,-1 1,-1 1,-1 0,-1 1,-1 0,-1 1,-1 1,-1 0,-1 1,-1 1,-1 0,-1 1,-1 1,-1 0,-1 1,-1 1,-1 0,-1 1,-1 0,-1 1,-1 1,-1 0,-1 1,-1 0,-1 1,-1 2,-2 0,-1 1,-1 0,-1 1,-1 0,-1 1,-1 1,-1 0,-2 1,-1 0,-7 1,-1 0,-1 -1,-1 0,-3 -1,-1 0,-3 -1,-1 0,-3 -1,-1 0,-3 -4,0 -1,-1 0,-2 -1,-1 -1,0 -1,-1 -1,-1 0,-6 1,-1 2,0 1,-1 1,0 -1,-1 0,-2 1,-1 1,0 0,-3 -1,-1 0,-1 -1,-1 -4,0 -1,1 -8,0 -1,-1 -4,0 -1,1 -48,0 0,12 1,1 0,8 1,1 0,8 1,1 0,7 1,1 0,7 1,1 0,1 1,1 6,0 1,1 0,2 -1,1 -6,0 0,1 -1,1 0,1 1,1 0,6 2,0 1,1 4,0 1,-1 4,0 1,1 1,1 0,5 3,0 1,1 0,5 -1,1 -2,0 0,1 -1,1 -4,0 -1,1 -2,-32 -1,-1 0,-9 1,-1 18,0 1,1 0,4 2,0 1,1 0,2 -1,1 -4,0 -1,-1 -1,0 -1,1 -1,0 -1,1 -5,0 0,2 -1,1 -2,0 -1,-1 0,-1 -3,0 2,32Z"/>
<path onmouseover="hoverPath(evt)" onmouseout="recoverPath(evt)" fill="rgb(183,145,238)" d="M  118,0l -26,0 0,1 1,0 1,1 1,-1 4,0 1,1 9,0 1,1 1,-1 3,0 1,-1 2,0 1,-1 2,0 1,1 2,0 1,1 1,1 0,1 1,0 1,-1 3,0 1,1 3,0 1,-1 2,0 1,1 4,0 1,1 4,0 1,-1 2,0 1,1 4,0 1,-1 5,0 1,1 1,0 1,1 4,0 1,-1 3,0 1,1 0,1 2,0 1,-1 3,0 1,1 0,1 6,0 1,1 3,0 1,-1 2,0 1,1 4,0 1,1 3,0 1,-1 1,0 1,-1 5,0 1,1 3,0 1,1 0,1 4,0 1,1 7,0 1,1 1,0 0,-1 1,-1 4,0 1,1 5,0 1,1 0,2 1,-2 5,0 1,1 2,0 1,1 0,1 4,0 0,-16 -137,0 2,2 -2,-2Z"/>
<path onmouseover="hoverPath(evt)" onmouseout="recoverPath(evt)" fill="rgb(243,242,233)" d="M  128,124l 0,2 -1,1 0,1 -1,1 -2,0 -1,-1 0,-2 1,-1 0,-1 1,-1 2,0 1,1 -9,13 1,1 0,2 -1,1 0,1 3,0 1,1 0,2 1,-2 2,0 1,1 0,2 1,1 1,0 1,1 1,0 1,1 1,-1 2,0 1,1 3,0 1,1 0,2 1,1 1,0 1,1 1,0 1,1 1,-1 2,0 1,1 1,0 1,1 3,0 1,1 0,2 1,1 0,-1 1,-1 1,0 1,-1 0,-1 1,-1 1,-1 2,0 1,-1 0,-1 1,-1 1,0 1,-1 0,-1 1,-1 0,-1 1,-1 1,0 1,-1 0,-1 1,-1 0,-1 1,-1 0,-1 1,-1 0,-1 1,-1 0,-1 1,-1 0,-13 -1,-1 0,-4 -1,-1 0,-2 -1,-1 0,-2 -1,-1 0,-2 -1,-1 0,-1 -1,-1 0,-2 -1,-1 0,-2 -1,-1 0,-1 -1,-1 -1,-1 0,-1 -1,-1 -1,-1 -1,-1 -1,-1 -1,0 -1,-1 -1,-1 -1,0 -1,-1 -1,-1 -1,-1 -1,0 -1,-1 -1,-1 -1,0 -1,-1 -2,0 -1,-1 -1,0 -1,-1 -2,0 -1,-1 -1,0 -1,-1 -2,0 -1,-1 -1,0 -1,-1 -2,0 -1,-1 -2,0 -1,-1 -1,0 -1,-1 -2,0 -1,-1 -1,0 -1,-1 -2,0 -1,-1 -19,0 0,1 -1,1 0,3 -1,1 0,1 -1,1 0,1 -1,1 0,1 -1,1 0,2 -1,1 -1,0 0,1 -1,1 -1,1 0,1 -1,1 -1,1 0,1 -1,1 -1,1 0,1 -1,1 0,1 -1,1 -1,1 0,1 -1,1 -1,1 0,1 -1,1 0,1 -1,1 -1,1 0,1 -1,1 -1,1 0,1 -1,1 -1,1 0,1 -1,1 0,1 -3,3 -1,0 1,1 1,0 1,1 1,-1 4,0 1,1 0,2 1,1 1,-1 2,0 1,1 0,2 1,0 1,1 0,-1 1,-1 2,0 1,1 1,0 1,1 0,2 1,1 1,0 1,1 1,0 1,1 1,-1 2,0 1,1 3,0 1,1 0,2 1,1 1,-1 2,0 1,1 0,2 1,0 1,-1 4,0 1,-1 2,0 9,-13 -27,10 0,0 27,-10 23,33 0,0 -23,-33 8,26 0,0 -8,-26Z"/>
<path onmouseover="hoverPath(evt)" onmouseout="recoverPath(evt)" fill="rgb(171,198,237)" d="M  148,13l 0,1 -1,1 3,0 1,1 0,3 -1,1 0,6 -1,1 -2,0 0,7 2,0 1,1 1,0 1,1 0,1 10,0 1,-1 13,0 1,-1 8,0 1,1 3,0 1,1 3,0 1,1 4,0 1,1 7,0 1,1 7,0 1,-1 1,-1 1,0 1,-1 1,-1 0,-1 1,-1 0,-6 1,-1 0,-4 -1,-1 0,-2 -1,-1 -1,-1 -1,0 -1,-1 -1,0 -1,-1 -1,0 -1,-1 -1,0 -1,-1 0,-2 1,-1 -1,0 -1,-1 -3,0 1,1 0,3 -1,1 -3,0 -1,-1 -20,0 -1,-1 -21,0 -1,-1 -10,0 -1,1Z"/>
<path onmouseover="hoverPath(evt)" onmouseout="recoverPath(evt)" fill="rgb(236,238,234)" d="M  150,217l 0,1 1,1 0,1 1,1 0,1 1,1 1,1 1,-1 1,0 1,-1 1,0 1,-1 2,0 1,-1 1,0 1,-1 -1,-1 0,-1 -1,-1 0,-1 -1,-1 -1,-1 -1,1 -2,0 -1,1 -1,0 -1,1 -1,0 -1,1Z"/>
<path onmouseover="hoverPath(evt)" onmouseout="recoverPath(evt)" fill="rgb(237,229,213)" d="M  220,181l 1,0 0,-4 -2,0 -1,-1 -1,0 -1,-1 -2,0 -1,-1 -2,0 -1,-1 -2,0 -1,-1 -2,0 -1,-1 -1,0 -1,-1 -2,0 -1,-1 -2,0 -1,-1 -2,0 -1,-1 -2,0 -1,-1 -1,0 -1,-1 -2,0 -1,-1 -2,0 -1,-1 -2,0 -1,-1 -2,0 -1,-1 -1,0 -1,-1 -2,0 -1,-1 -2,0 -1,-1 -1,0 -1,1 0,1 -2,2 -2,0 1,1 0,0 2,-1 1,0 1,1 0,2 2,0 1,1 1,0 1,1 1,0 1,1 0,-1 1,-1 2,0 1,1 0,2 1,1 1,-1 2,0 1,1 0,2 2,0 1,1 1,0 1,-1 2,0 1,1 0,1 1,1 1,0 1,1 1,-1 4,0 1,1 1,1 0,1 2,0 1,1 2,0 1,1 0,1 2,0 1,1 1,0 1,1 3,0 1,1 2,0 1,1 1,0 -1,-1 0,-2 1,-1Z"/>
<path onmouseover="hoverPath(evt)" onmouseout="recoverPath(evt)" fill="rgb(236,236,230)" d="M  0,58l 0,44 2,0 1,1 6,0 1,1 1,0 0,-1 1,-1 4,0 1,1 6,0 1,1 4,0 1,1 2,0 1,1 0,-3 1,-1 5,0 0,-1 1,-1 2,0 0,-3 -3,0 -1,-1 0,-5 -1,-1 -2,0 -1,1 -6,0 -1,-1 0,3 -1,1 -3,0 -1,-1 -1,-1 0,-8 -1,-1 0,-6 -1,-1 0,-9 -1,-1 0,-8 -1,-1 0,-7 -1,-1 0,-8 -1,-1 0,-10 -1,-1 0,-9 -1,-1 0,-9 -1,-1 0,-9 -11,0Z"/>
<path onmouseover="hoverPath(evt)" onmouseout="recoverPath(evt)" fill="rgb(233,233,210)" d="M  1,150l 25,0 0,-4 -1,-1 -25,0 0,4 1,1Z"/>
<path onmouseover="hoverPath(evt)" onmouseout="recoverPath(evt)" fill="rgb(249,201,110)" d="M  11,106l -2,0 -1,-1 -6,0 -1,-1 -1,0 0,6 2,0 1,1 2,0 1,1 0,1 2,0 1,1 7,0 1,1 3,0 1,1 5,0 1,1 2,0 1,1 0,-1 1,-1 2,0 1,1 1,0 1,1 0,1 1,1 0,-1 1,-1 3,0 1,1 2,0 1,1 1,0 1,1 1,1 0,1 1,1 0,-1 1,-1 2,0 1,1 1,1 0,1 2,0 1,1 0,1 1,-2 2,0 1,1 1,0 1,1 2,0 1,1 1,1 3,0 1,1 1,1 3,0 1,1 0,2 1,-1 2,0 1,1 1,0 1,1 1,1 0,2 1,0 1,1 0,-1 1,-1 2,0 1,1 0,2 1,0 1,1 1,-1 2,0 1,1 1,0 1,1 1,1 3,0 1,1 0,2 1,-1 2,0 1,1 1,0 1,1 1,1 3,0 1,1 0,2 1,-1 2,0 1,1 1,0 1,1 1,0 1,1 1,1 0,2 1,0 1,1 0,-1 1,-1 2,0 1,1 1,0 1,1 0,2 1,-1 2,0 1,1 1,0 1,1 1,1 3,0 1,1 0,2 1,-1 2,0 1,1 1,1 3,0 1,1 0,2 1,-1 2,0 1,1 1,1 3,0 1,1 1,0 1,1 1,1 0,2 1,-2 2,0 1,1 1,0 1,1 1,1 3,0 1,1 1,0 1,1 1,1 0,2 1,-2 2,0 1,1 0,2 1,-1 2,0 1,1 1,1 0,1 2,0 1,1 0,1 1,0 1,1 0,-1 1,-1 2,0 1,1 1,0 1,1 0,1 4,0 1,1 1,0 1,1 4,0 1,1 2,0 1,1 3,0 1,1 3,0 1,1 1,1 0,1 1,-1 3,0 1,1 1,1 6,0 1,1 3,0 1,1 2,0 1,1 3,0 1,1 3,0 1,1 1,0 1,1 0,1 1,1 4,0 0,-8 -3,0 -1,-1 -3,0 -1,-1 -3,0 -1,-1 -2,0 -1,-1 -3,0 -1,-1 -1,0 -1,-1 0,-1 -1,-1 -5,0 -3,-3 0,-2 -4,0 1,1 0,2 -1,1 -3,0 -1,-1 -2,0 -1,-1 -3,0 -1,-1 -1,0 -1,-1 -2,0 -1,-1 0,-1 -2,0 -1,-1 -2,0 -1,-1 0,-1 -1,-1 -2,0 -1,1 -2,0 -1,-1 -1,0 -1,-1 -1,-1 -4,0 -1,-1 -2,0 -1,-1 0,-2 -1,1 -2,0 -1,-1 -1,-1 -3,0 -1,-1 -1,0 -1,-1 -1,0 -1,-1 -2,0 -1,-1 0,-2 -1,1 -2,0 -1,-1 -1,-1 0,-4 -1,1 -1,0 0,1 -1,1 -2,0 -1,-1 -1,-1 0,-2 -1,2 -2,0 -1,-1 0,-2 -1,0 -1,-1 -1,1 -2,0 -1,-1 -1,0 -1,-1 -1,0 -1,-1 -1,-1 -3,0 -1,-1 0,-2 -1,1 -2,0 -1,-1 -1,0 -1,-1 -1,0 -1,-1 -1,-1 -3,0 -1,-1 0,-2 -3,0 -1,-1 0,-2 -1,-1 -3,0 -1,1 -3,0 -1,-1 0,-2 -1,1 -2,0 -1,-1 -1,-1 -3,0 -1,-1 0,-2 -1,1 -2,0 -1,-1 -1,0 -1,-1 -1,0 -1,-1 -1,-1 0,-2 -1,0 -1,-1 0,1 -1,1 -2,0 -1,-1 -1,0 -1,-1 0,-2 -1,1 -2,0 -1,-1 -1,-1 0,-2 -2,0 -1,1 -2,0 -1,-1 -1,0 -1,-1 -1,-1 -3,0 -1,-1 -2,0 -1,-1 -1,0 -1,-1 -2,0 -1,-1 -1,0 -1,-1 -1,0 -1,-1 0,-1 -1,-1 -2,0 -1,1 -3,0 -1,-1 -3,0 -1,-1 -1,0 -1,-1 0,-1 -1,-1 -4,0 -1,-1 -1,0 -1,-1 -2,0 -1,-1 -4,0 -1,-1 -6,0 -1,-1 -2,0 0,1 -1,1 -1,0 92,30 0,0 -92,-30 114,40 0,0 -114,-40 127,46 0,0 -127,-46 165,63 0,0 -165,-63 158,70 0,0 -158,-70 144,64 0,0 -144,-64 135,60 0,0 -135,-60 126,56 0,0 -126,-56 98,43 0,0 -98,-43 87,38 0,0 -87,-38Z"/>
<path onmouseover="hoverPath(evt)" onmouseout="recoverPath(evt)" fill="rgb(253,253,253)" d="M  13,2l 0,6 1,1 0,9 1,1 0,9 1,1 0,10 1,1 0,8 1,1 0,7 1,1 0,8 1,1 0,9 1,1 0,6 1,1 0,8 1,1 1,0 0,-2 -1,-1 0,-6 -1,-1 0,-3 1,-1 0,-1 1,-1 0,0 -2,-2 0,-1 -1,-1 0,-7 -1,-1 0,-7 -1,-1 0,-8 -1,-1 0,-8 -1,-1 0,-14 1,-1 48,0 1,-1 6,0 1,1 6,0 1,-1 6,0 1,1 1,1 0,1 1,1 0,2 1,0 0,-4 -1,-1 0,-4 -1,-1 0,-2 -1,-1 0,-2 -1,-1 0,-2 -1,-1 0,-3 -1,-1 0,-2 -1,0 0,3 1,1 0,2 1,1 0,3 1,1 0,6 -1,1 -22,0 -1,1 -44,0 -1,-1 -1,0 -1,-1 0,-3 -1,-1 0,-8 -1,-1 0,-4 -1,-1 1,-1 0,-1 -1,0 0,1 13,75Z"/>
<path onmouseover="hoverPath(evt)" onmouseout="recoverPath(evt)" fill="rgb(239,236,231)" d="M  16,2l 0,4 1,1 0,8 1,1 0,3 1,0 1,1 42,0 1,-1 22,0 0,-4 -1,-1 0,-3 -1,-1 0,-2 -1,-1 0,-5 1,-1 3,0 1,1 0,-1 1,-1 -72,0Z"/>
<path onmouseover="hoverPath(evt)" onmouseout="recoverPath(evt)" fill="rgb(243,243,235)" d="M  19,254l -2,0 0,1 88,0 0,-2 -1,-1 0,-3 -1,-1 0,-2 -1,-1 0,-2 -1,-1 0,-3 -1,-1 0,-2 -1,-1 0,-2 -1,-1 0,-2 -1,-1 0,-2 -1,2 -2,0 -1,1 -2,0 -1,1 -3,0 -1,1 -2,0 -1,1 -2,0 -1,1 -2,0 -1,1 -2,0 -1,1 -2,0 -1,1 -2,0 -1,1 -2,0 -1,1 -2,0 -1,1 -2,0 -1,1 -2,0 -1,1 -2,0 -1,1 -2,0 -1,1 -2,0 -1,1 -2,0 -1,1 -2,0 -1,1 -2,0 -1,1 -2,0 -1,1 -2,0 -1,1 -2,0 -1,1 -2,0 -1,1 -2,0 -1,1 -3,0 -1,1Z"/>
<path onmouseover="hoverPath(evt)" onmouseout="recoverPath(evt)" fill="rgb(240,239,231)" d="M  54,200l 0,0 -1,1 -1,0 0,4 2,0 1,1 0,2 2,0 1,1 0,1 2,0 1,-1 3,0 1,1 1,0 1,-1 2,0 1,1 1,0 1,-1 2,0 1,-1 2,0 1,-1 5,0 1,1 0,1 1,1 0,1 1,1 0,1 1,1 0,2 2,0 1,1 0,2 1,0 0,-2 1,-1 1,0 0,-1 -1,-1 0,-2 -1,-1 0,-1 -1,-1 0,-2 -1,-1 0,-1 -1,-1 0,-2 -1,-1 0,-2 -1,-1 0,-2 -1,-1 0,-2 -1,-1 0,-2 -1,-1 0,-3 -1,-1 0,-2 -1,-1 0,-2 -1,-1 0,-2 -1,-1 0,-2 -1,-1 0,-2 -1,-1 0,-3 -1,-1 0,-2 -2,0 -1,-1 0,-1 -14,0 -1,-1 0,-2 -1,0 -1,1 -2,2 -1,0 0,1 -1,1 -1,1 0,3 1,1 0,1 1,1 0,2 1,1 0,1 1,1 0,1 1,1 0,1 1,1 0,2 1,1 0,1 1,1 0,1 2,0 1,1 0,1 2,0 1,1 0,2 -1,1 0,4 -1,1 -1,1 -2,0 -1,1 -2,0 -1,1Z"/>
<path onmouseover="hoverPath(evt)" onmouseout="recoverPath(evt)" fill="rgb(253,252,251)" d="M  68,134l 0,0 1,1 0,2 1,1 0,2 1,1 0,2 1,1 0,3 1,1 0,2 1,1 0,4 -1,1 0,1 -1,1 3,0 1,1 1,1 0,2 1,1 0,2 1,1 0,3 1,1 0,2 1,1 0,2 1,1 0,2 1,1 0,2 1,1 0,2 1,1 0,3 1,1 0,2 1,1 0,2 1,1 0,2 1,1 0,2 1,1 0,2 1,1 0,1 1,1 0,2 1,1 0,1 1,1 0,2 1,1 0,2 2,0 1,-1 0,-2 -1,-1 0,-1 -1,-1 0,-2 -1,-1 0,-2 -1,-1 0,-1 -1,-1 0,-2 -1,-1 0,-2 -1,-1 0,-1 -1,-1 0,-3 -1,-1 0,-2 -1,-1 0,-2 -1,-1 0,-2 -1,-1 0,-2 -1,-1 0,-2 -1,-1 0,-2 -1,-1 0,-2 -1,-1 0,-2 -1,-1 0,-2 -1,-1 0,-3 -1,-1 0,-2 -1,-1 0,-2 -1,-1 0,-2 -1,-1 0,-2 -1,-1 0,-2 -1,-1 0,-2 -1,-1 0,-2 -1,-1 0,-3 1,-1 -2,0 -1,-1 0,-1 -1,-1 0,1 -1,1Z"/>
<path onmouseover="hoverPath(evt)" onmouseout="recoverPath(evt)" fill="rgb(243,242,234)" d="M  75,138l 0,2 1,1 0,2 1,1 0,2 1,1 0,2 1,1 0,2 1,1 0,2 1,1 0,2 1,1 0,3 1,1 0,2 1,1 0,2 1,1 0,2 1,1 0,2 1,1 0,2 1,1 0,2 1,1 0,2 1,1 0,2 1,1 0,2 1,1 0,3 1,1 0,1 1,1 0,2 1,1 0,2 1,1 0,1 1,1 0,2 1,1 0,2 1,1 0,1 1,1 0,3 1,0 0,-1 1,-1 2,0 1,-1 2,0 1,-1 2,0 1,-1 2,0 1,-1 3,0 1,-1 2,0 1,-1 2,0 1,-1 2,0 1,-1 2,0 1,-1 2,0 1,-1 2,0 1,-1 2,0 1,-1 2,0 1,-1 3,0 1,-1 2,0 1,-1 2,0 1,-1 2,0 1,-1 2,0 1,-1 2,0 1,-1 2,0 1,-1 2,0 1,-1 2,0 1,-1 2,0 1,-1 2,0 1,-1 2,0 1,-1 2,0 1,-1 2,0 1,-1 1,0 0,-1 -2,0 -1,-1 0,-1 -1,-1 -1,1 -2,0 -1,-1 -3,0 -1,-1 0,-2 -1,-1 -1,0 -1,-1 0,1 -1,1 -2,0 -1,-1 0,-2 -1,-1 -1,0 -1,-1 0,1 -1,1 -2,0 -1,-1 0,-2 -1,-1 -1,0 -1,-1 0,1 -1,1 -2,0 -1,-1 0,-2 -1,-1 -1,1 -2,0 -1,-1 -3,0 -1,-1 0,-2 -1,-1 -1,1 -2,0 -1,-1 -3,0 -1,-1 0,-2 -1,-1 -1,0 -1,-1 -1,1 -2,0 -1,-1 0,-2 -1,0 -1,-1 0,1 -1,1 -2,0 -1,-1 -1,0 -1,-1 0,-2 -1,-1 -1,0 -1,-1 -1,0 -1,-1 -1,1 -2,0 -1,-1 -3,0 -1,-1 0,-2 -1,-1 -1,0 -1,-1 -1,1 -2,0 -1,-1 -3,0 -1,-1 0,-2 -1,-1 -1,0 -1,-1 -1,1 -2,0 -1,-1 -1,0 -1,-1 -3,0 -1,-1 -1,0 -1,-1 0,-2 -1,-1 -1,0 -1,-1 -1,1 -3,0 0,1 1,1 12,2 0,0 -12,-2 25,8 -25,-8 36,13 0,0 -36,-13 64,26 0,0 -64,-26 73,30 0,0 -73,-30 103,43 0,0 -103,-43Z"/>
<path onmouseover="hoverPath(evt)" onmouseout="recoverPath(evt)" fill="rgb(236,234,226)" d="M  94,34l 0,0 1,1 0,1 1,0 0,-1 1,-1 8,0 1,-1 10,0 1,1 0,4 -1,1 0,2 1,1 0,0 1,1 7,0 0,-2 1,-1 2,0 1,1 0,1 16,0 1,-1 0,-5 -1,-1 0,-9 1,-1 2,0 0,-6 1,-1 0,-1 -7,0 -1,-1 0,-2 1,-1 4,0 0,-2 1,-1 13,0 1,1 21,0 1,1 20,0 1,1 1,0 0,-1 -1,-1 0,1 -7,-1 -5,0 0,-1 -1,1 -5,0 -1,-1 -6,0 -1,-1 0,-1 -1,0 -1,1 -4,0 -1,-1 0,-1 -1,0 -1,1 -6,0 -1,-1 -1,0 -1,-1 -3,0 -1,1 -6,0 -1,-1 -1,1 -6,0 -1,-1 -4,0 -1,-1 -1,1 -5,0 -1,-1 -1,0 -1,1 -3,0 -1,-1 0,-1 -1,-1 -1,1 -4,0 -1,-1 -1,1 -3,0 -1,1 -2,0 -1,-1 -9,0 -1,-1 -2,0 -1,1 -2,0 -1,-1 -1,0 -1,-1 -1,0 0,3 -1,1 0,2 1,1 0,2 1,1 0,2 1,1 0,2 1,1 0,4 1,1 0,6 -1,1 -2,0 0,1 -1,1 -1,0 1,1 0,1Z"/>
<path onmouseover="hoverPath(evt)" onmouseout="recoverPath(evt)" fill="rgb(254,254,254)" d="M  101,226l -1,0 -1,1 0,1 1,1 0,2 1,1 0,2 1,1 0,2 1,1 0,3 1,1 0,2 1,1 0,2 1,1 0,3 1,1 0,3 4,0 0,-1 -1,-1 0,-2 -1,-1 0,-2 -1,-1 0,-2 -1,-1 0,-3 -1,-1 0,-2 -1,-1 0,-2 -1,-1 0,-2 -1,-1 0,-3 -1,-1 -1,-1Z"/>
<path onmouseover="hoverPath(evt)" onmouseout="recoverPath(evt)" fill="rgb(243,242,234)" d="M  190,156l 0,0 -1,1 -1,0 -1,1 -1,0 0,1 2,0 1,1 1,0 1,1 2,0 1,1 2,0 1,1 1,0 1,-1 2,0 1,1 0,2 2,0 1,1 2,0 1,1 2,0 1,1 1,0 1,-1 2,0 1,1 0,2 2,0 1,1 2,0 1,1 1,0 1,-1 0,0 2,-2 0,-1 1,-1 0,-1 1,-1 2,0 0,-1 1,-1 0,-2 1,-1 0,-1 1,-1 4,0 1,1 0,1 1,1 0,2 -1,1 -2,0 0,1 -1,1 0,2 -1,1 1,1 0,2 -1,1 -2,0 -1,1 0,1 -1,1 -1,1 0,4 -1,1 -1,1 0,1 1,1 0,0 1,1 5,0 1,1 1,1 0,1 1,0 1,1 3,0 1,1 2,0 1,1 3,0 1,1 3,0 1,1 2,0 0,-82 -2,0 -1,-1 0,-1 -1,-1 0,-1 -1,-1 0,-1 -1,-1 -1,-1 0,-1 -1,-1 0,-1 -1,-1 -1,-1 0,-1 -1,-1 -1,-1 -1,-1 0,-1 -1,-1 -1,-1 -1,-1 -1,-1 0,-1 -1,-1 -1,-1 -1,-1 0,-1 -1,-1 -1,-1 -1,-1 0,-1 -1,-1 -1,-1 -1,-1 0,-1 -1,-1 0,-1 -1,-1 0,-1 -1,-1 0,-1 -1,-1 0,-1 -1,-1 0,-7 1,-1 0,-7 1,-1 0,-6 1,-1 0,-6 1,-1 0,-5 1,-1 0,-3 1,-1 0,-4 1,-1 0,-3 1,-1 0,-2 -1,-1 0,-1 -4,0 -1,-1 -7,0 -1,-1 -6,0 2,1 1,0 1,1 1,0 1,1 1,0 1,1 1,1 1,1 0,2 1,1 0,6 -1,1 0,6 -1,1 0,1 -1,1 -1,1 -1,1 -1,0 -1,1 -1,1 -9,0 -1,-1 -7,0 -1,-1 -4,0 -1,-1 -3,0 -1,-1 -3,0 -1,-1 -6,0 -1,1 -13,0 -1,1 -12,0 -1,-1 0,-1 -1,0 -1,-1 0,6 -1,1 -1,1 -18,0 -1,-1 0,1 -1,1 -9,0 -1,-1 -1,-1 -1,-1 0,-4 1,-1 0,-2 -8,0 -1,1 -8,0 0,1 -1,1 -3,0 -1,-1 0,-1 -6,0 -1,1 -2,0 0,4 1,1 1,0 1,1 1,1 0,2 4,0 1,1 0,3 1,1 0,1 2,0 1,1 1,1 0,2 9,0 1,-1 31,0 1,-1 5,0 1,1 0,2 -1,1 44,0 1,-1 11,0 1,-1 4,0 1,1 2,0 1,1 0,4 1,1 0,3 -1,1 0,1 -1,1 -11,0 -1,-1 -6,0 0,3 1,1 0,1 1,1 0,1 1,1 0,1 1,1 0,1 1,1 0,1 1,1 0,1 1,1 0,1 1,1 0,1 1,1 0,1 1,1 0,1 1,1 0,1 1,1 0,1 1,1 1,1 0,1 1,1 1,0 1,1 0,2 1,1 1,1 1,0 1,1 0,2 1,1 1,1 1,0 1,1 0,2 1,1 1,0 1,1 0,2 1,1 2,2 0,1 1,1 1,1 1,0 1,1 0,2 1,1 1,1 1,1 0,1 1,1 1,1 1,0 1,1 0,2 1,1 1,1 0,2 -2,2 -1,1 -3,0 -1,-1 -1,0 -1,1 -2,0 -1,1 -1,0 -1,1 -2,0 0,2 -1,1 -2,0 -1,-1 -2,0 -1,1 0,2 -1,1 -3,0 -1,-1 -2,0 -1,1 -1,0 -1,1 -1,0 -1,1 -2,0 -1,1 -2,0 -1,1 -1,0 0,2 -1,1Z"/>
<path onmouseover="hoverPath(evt)" onmouseout="recoverPath(evt)" fill="rgb(247,236,138)" d="M  203,194l -1,1 -1,0 0,2 1,1 0,2 1,1 0,1 1,1 0,1 1,1 0,1 1,1 0,1 1,1 0,1 1,1 0,1 1,1 0,1 1,1 0,1 1,1 1,1 0,1 1,1 0,1 1,1 0,1 1,1 0,1 1,1 0,1 1,1 0,1 1,1 0,1 1,1 0,1 1,1 0,1 1,1 0,1 1,1 0,1 1,1 0,1 1,1 0,1 1,1 0,1 1,1 0,1 1,1 0,1 1,0 1,1 1,1 0,2 -1,1 -2,0 0,1 12,0 0,-3 1,-1 2,0 -4,1 -1,0 -1,-1 0,-3 -1,-1 0,-1 -1,-1 -1,-1 0,-1 -1,-1 0,-1 -1,-1 0,-1 -1,-1 0,-1 -1,-1 0,-1 -1,-1 0,-1 -1,-1 0,-1 -1,-1 0,-1 -1,-1 0,-1 -1,-1 0,-1 -1,-1 0,-1 -1,-1 0,-1 -1,-1 0,-1 -1,-1 0,-1 -1,-1 0,-1 -1,-1 0,-1 -1,-1 0,-1 -1,-1 0,-1 -1,-1 0,-1 -1,-1 -1,-1 0,-1 -1,-1 0,-1 -1,-1 0,-1 -1,-1 0,-2 -1,-1 0,-4 -1,0 -1,1 -2,0 -1,1Z"/>
<path onmouseover="hoverPath(evt)" onmouseout="recoverPath(evt)" fill="rgb(245,244,237)" d="M  249,18l 0,0 -1,1 0,4 -1,1 0,7 -1,1 0,7 -1,1 0,7 -1,1 0,6 -1,1 0,10 1,1 0,3 1,1 0,1 1,1 0,1 1,1 1,1 0,1 1,1 1,1 0,1 1,1 1,1 0,1 1,1 0,1 1,1 1,0 0,-67Z"/>
<path onmouseover="hoverPath(evt)" onmouseout="recoverPath(evt)" fill="rgb(248,238,146)" d="M  0,251l 0,4 15,0 0,-2 1,-1 2,0 1,-1 3,0 1,-1 2,0 1,-1 2,0 1,-1 2,0 1,-1 2,0 1,-1 2,0 1,-1 2,0 1,-1 2,0 1,-1 2,0 1,-1 2,0 1,-1 2,0 1,-1 2,0 1,-1 2,0 1,-1 2,0 1,-1 2,0 1,-1 2,0 1,-1 2,0 1,-1 2,0 1,-1 2,0 1,-1 2,0 1,-1 2,0 1,-1 2,0 1,-1 3,0 1,-1 2,0 1,-1 2,0 0,-1 1,-1 2,0 1,-1 4,0 1,1 0,-1 1,-1 2,0 1,-1 2,0 1,-1 6,0 1,1 0,2 1,1 0,1 1,1 0,2 1,1 0,1 1,1 0,2 1,1 0,1 1,1 0,1 1,1 0,1 1,1 0,1 1,1 0,2 1,1 0,1 1,1 0,2 1,1 0,1 1,1 0,2 2,0 0,-1 -1,-1 0,-1 -1,-1 0,-1 -1,-1 0,-2 -1,-1 0,-1 -1,-1 0,-1 -1,-1 0,-1 -1,-1 0,-1 -1,-1 0,-2 -1,-1 0,-1 -1,-1 0,-2 -1,-1 0,-1 -1,-1 0,-2 -1,-1 0,-1 -1,-1 0,-3 1,-1 1,-1 1,0 1,-1 2,0 1,-1 3,0 1,-1 2,0 1,-1 2,0 1,-1 2,0 1,-1 2,0 1,-1 2,0 1,-1 2,0 1,-1 2,0 1,-1 3,0 1,-1 2,0 1,-1 2,0 1,-1 2,0 1,-1 2,0 1,-1 2,0 1,-1 2,0 1,-1 2,0 1,-1 2,0 1,-1 2,0 1,-1 1,0 1,-1 2,0 1,-1 2,0 1,-1 1,0 1,-1 1,0 1,-1 1,-1 1,0 1,-1 2,0 1,1 0,1 1,0 1,-1 1,0 1,-1 -2,0 -1,-1 -1,0 -1,-1 -4,0 -1,-1 0,-1 -1,0 -1,-1 0,1 -1,1 -2,0 -1,-1 -1,1 -1,0 -1,1 -2,0 -1,1 -2,0 -1,1 -2,0 -1,1 -2,0 -1,1 -2,0 -1,1 -2,0 -1,1 -2,0 -1,1 -2,0 -1,1 -2,0 -1,1 -2,0 -1,1 -2,0 -1,1 -2,0 -1,1 -2,0 -1,1 -3,0 -1,1 -2,0 -1,1 -2,0 -1,1 -2,0 -1,1 -2,0 -1,1 -2,0 -1,1 -2,0 -1,1 -2,0 -1,1 -2,0 -1,1 -3,0 -1,1 -2,0 -1,1 -2,0 -1,1 -2,0 -1,1 -2,0 0,1 -1,1 -3,0 -1,1 -5,0 0,2 -1,1 -3,0 -1,-1 0,-2 -1,0 -1,1 -1,1 -2,0 -1,1 -1,0 -1,1 -2,0 -1,1 -2,0 -1,1 -1,0 -1,1 -2,0 -1,1 -2,0 -1,1 -7,0 0,2 -1,1 -1,0 -1,1 -2,0 -1,1 -2,0 -1,1 -2,0 -1,1 -2,0 -1,1 -2,0 -1,1 -2,0 -1,1 -2,0 -1,1 -2,0 -1,1 -2,0 -1,1 -2,0 -1,1 -2,0 -1,1 -2,0 -1,1 -2,0 -1,1 -2,0 -1,1 -2,0 -1,1 -2,0 -1,1 -2,0 -1,1 -2,0 -1,1 -2,0Z"/>
<path onmouseover="hoverPath(evt)" onmouseout="recoverPath(evt)" fill="rgb(242,241,230)" d="M  126,247l -1,-1 0,-2 -1,-1 0,-1 -1,-1 0,-1 -1,-1 0,-1 -1,-1 0,-1 -1,-1 0,-2 -1,-1 0,-1 -1,-1 0,-2 -1,-1 0,-1 -1,-1 0,-2 -4,0 -1,1 -2,0 -1,1 -2,0 0,2 -1,1 0,2 1,1 0,2 1,1 0,2 1,1 0,2 1,1 0,3 1,1 0,2 1,1 0,2 1,1 0,2 1,1 0,2 16,0 0,-1 -1,-1 0,-1 -1,-1 0,-2 -1,-1Z"/>
<path onmouseover="hoverPath(evt)" onmouseout="recoverPath(evt)" fill="rgb(236,238,234)" d="M  175,91l 0,1 1,1 0,1 1,1 1,1 0,1 1,1 1,1 0,1 1,1 1,1 1,0 1,-1 1,0 1,-1 1,0 1,-1 -1,-1 0,-1 -1,-1 -1,-1 0,-1 -1,-1 -1,-1 0,-1 -1,-1 -1,-1 -2,0 -1,1 -1,0 -1,1Z"/>
<path onmouseover="hoverPath(evt)" onmouseout="recoverPath(evt)" fill="rgb(253,253,252)" d="M  185,156l -1,0 -1,1 -1,0 -1,1 -5,0 -1,-1 0,-2 -1,1 -3,0 -1,-1 0,-4 1,-1 1,-1 1,0 0,-3 1,-1 1,0 0,-1 1,-1 0,-1 1,-1 0,-1 1,-1 0,-2 1,-1 0,-15 -1,-1 0,-4 -1,-1 0,-3 -1,-1 0,-2 -1,-1 0,-1 -1,-1 0,-2 -1,-1 0,-2 -1,-1 0,-1 -1,-1 0,-1 -1,-1 0,-1 -1,-1 -1,-1 -1,-1 0,-1 -1,0 -1,-1 -1,-1 -1,-1 0,-1 -2,0 -1,-1 -1,-1 0,-1 -2,0 -1,-1 -1,-1 -1,0 -1,-1 -1,0 -1,-1 -1,0 -1,-1 -1,0 -1,-1 -2,0 -1,-1 -2,0 -1,-1 -1,0 -1,-1 -2,0 -1,-1 -1,0 -1,-1 -2,0 -1,-1 -1,0 -1,-1 -2,0 -1,-1 -2,0 -1,-1 -1,0 -1,-1 -20,0 -1,-1 -1,0 -1,-1 0,-7 1,-1 -2,0 -1,-1 0,-2 -1,-1 -1,0 1,1 0,3 1,1 0,3 1,1 0,3 -1,1 0,7 -1,1 0,2 -1,1 -1,1 0,1 -1,1 0,1 -1,1 0,1 -2,2 -1,1 0,1 -1,1 0,1 -1,1 -1,1 0,1 -1,1 0,1 -1,1 -1,1 0,1 -1,1 -1,1 0,1 -1,1 -1,1 0,1 -1,1 -1,1 0,1 -1,1 0,1 -1,1 -1,1 0,1 -1,1 -1,1 0,1 -1,1 0,2 1,-1 0,0 1,-1 0,-1 1,-1 0,-1 2,-2 0,-1 1,-1 1,-1 0,-1 1,-1 1,-1 0,-1 1,-1 0,-1 1,-1 1,-1 0,-1 1,-1 1,-1 0,-1 1,-1 0,-1 1,-1 1,-1 0,-1 2,-2 0,-1 2,-2 0,-1 1,-1 1,0 0,-2 1,-1 0,-1 1,-1 0,-1 1,-1 0,-1 1,-1 0,-3 1,-1 0,-1 1,-1 21,0 1,1 2,0 1,1 1,0 1,1 2,0 1,1 1,0 1,1 2,0 1,1 2,0 1,1 1,0 1,1 2,0 1,1 1,0 1,1 2,0 1,1 1,0 1,1 2,0 1,1 1,0 1,1 1,1 1,0 1,1 1,1 1,1 1,0 1,1 1,1 1,0 1,1 1,1 1,1 2,2 0,1 1,1 1,1 0,1 1,1 0,2 1,1 0,2 1,1 0,1 1,1 0,2 1,1 0,2 1,1 0,2 1,1 0,4 1,1 0,15 -1,1 0,1 -1,1 0,1 -1,1 0,1 -1,1 0,1 -1,1 2,-2 1,-2 1,-2 -1,-27 -1,-3 -2,-5 -1,-3 -3,-6 16,61 -13,-9 -1,1 -1,0 0,1 -1,1 0,1 -2,2 -1,0 0,1 -1,1 -1,1 -2,0 -1,1 1,1 0,2 1,0 1,-1 0,-1 1,-1 1,-1 3,0 1,1 2,0 1,1 2,0 1,1 1,0 1,1 2,0 1,1 2,0 1,1 2,0 1,1 2,0 1,1 1,0 1,1 2,0 1,1 2,0 1,1 2,0 1,1 2,0 1,1 1,0 1,1 2,0 1,1 2,0 1,1 2,0 1,1 2,0 1,1 1,0 1,1 2,0 1,1 0,5 3,0 1,-1 0,-4 1,-1 1,-1 0,-1 1,-1 1,-1 2,0 -1,-1 0,-2 1,-1 0,-2 1,-1 0,-1 1,-1 2,0 -1,-1 0,-1 -2,0 0,1 -1,1 0,2 -1,1 0,1 -1,1 -2,0 0,1 -1,1 0,1 -2,2 -1,1 -1,1 -3,0 -1,-1 -2,0 -1,-1 -2,0 -1,-1 0,-2 -1,1 -3,0 -1,-1 -2,0 -1,-1 -2,0 -1,-1 -2,0 -1,-1 0,-2 -1,1 -3,0 -1,-1 -2,0 -1,-1 -2,0 -1,-1 -1,0 -1,-1 -2,0 -1,-1 0,-3 -12,-10 13,9Z"/>
<path onmouseover="hoverPath(evt)" onmouseout="recoverPath(evt)" fill="rgb(253,253,253)" d="M  195,59l -4,0 -1,1 -44,0 1,1 7,0 37,-1 3,0 1,-1 12,0 1,1 0,5 -1,1 -19,0 0,3 1,1 0,-3 19,0 0,-1 1,-1 0,-1 -1,-5Z"/>
</svg>