<svg width="256" height="256" xmlns="http://www.w3.org/2000/svg"><script> 
var tempColor;
function hoverPath(evt){
obj = evt.target;
tempColor = obj.getAttribute("fill");
obj.setAttribute("fill","red");
//alert(tempColor);
//obj.setAttribute("stroke","red");}
function recoverPath(evt){
obj = evt.target;
obj.setAttribute("fill", tempColor);
//obj.setAttribute("stroke", tempColor);
}</script><path onmouseover="hoverPath(evt)" onmouseout="recoverPath(evt)" fill="rgb(245,244,237)" d="M  0,184l 0,71 8,0 0,-7 -1,-1 0,-8 -1,-1 0,-8 -1,-1 0,-10 -1,-1 0,-10 -1,-1 0,-15 -1,-1 0,-7 -1,-1 -1,1Z"/>
<path onmouseover="hoverPath(evt)" onmouseout="recoverPath(evt)" fill="rgb(238,238,233)" d="M  4,136l 0,5 1,1 0,11 1,1 0,9 1,1 1,0 2,-2 1,-1 1,0 1,-1 1,-1 1,-1 3,0 1,1 1,-1 1,0 0,-1 1,-1 1,0 1,-1 1,0 0,-1 1,-1 2,0 1,-1 1,-1 1,0 1,-1 0,-1 1,-1 2,0 1,-1 1,-1 1,-1 1,-1 1,-1 0,-1 1,-1 3,-3 1,-1 3,-3 1,-1 0,-1 1,-1 0,-1 1,-1 1,0 1,-1 1,0 0,-4 1,-1 1,-1 1,0 0,-1 1,-1 -1,-1 -1,0 -1,-1 0,-2 -1,-1 -1,-1 -1,1 -2,0 -1,1 -1,0 -1,1 -2,0 -1,-1 -1,1 -1,0 -1,1 -1,0 -1,1 0,2 -1,1 -1,0 -1,1 -2,0 -1,-1 -1,1 0,0 -1,1 -1,0 -1,1 -2,0 -1,1 -1,0 -1,1 -3,0 -1,1 -2,0 -1,-1 0,-3 -1,-1 0,-1 -1,-1 0,-8 -4,0 -1,-1 0,-19 -1,16 -2,0 -1,-1 0,3 -1,1 0,4 -1,1 -1,0 0,13 4,0 1,1 0,2 -1,1 -3,0Z"/>
<path onmouseover="hoverPath(evt)" onmouseout="recoverPath(evt)" fill="rgb(244,243,236)" d="M  19,162l 0,0 -1,1 -1,1 -1,1 -1,1 -1,1 -1,1 -1,1 -1,1 -1,1 -1,1 0,1 -1,1 0,1 -1,1 0,4 1,1 0,11 1,1 0,12 1,1 0,10 1,1 0,12 1,1 0,11 1,1 0,13 33,0 0,-2 1,-1 1,0 1,-1 1,-1 1,0 1,-1 1,-1 1,0 1,-1 1,-1 1,0 1,-1 1,0 1,-1 1,0 2,-2 1,0 1,-1 1,0 1,-1 2,0 1,-1 1,0 1,-1 1,0 1,-1 2,0 1,-1 1,0 1,-1 1,0 1,-1 2,0 1,-1 1,0 1,-1 2,0 1,-1 1,0 1,-1 1,0 1,-1 2,0 1,-1 1,0 1,-1 1,0 1,-1 2,0 1,-1 1,0 1,-1 1,0 1,-1 1,-1 1,0 1,-1 1,0 1,-1 1,-1 1,0 1,-1 1,-1 1,-1 1,-1 1,-1 1,0 1,-1 2,-2 1,-1 2,-2 1,-1 2,-2 1,0 4,-4 1,-1 2,-2 1,-1 1,0 1,-1 1,-1 10,-10 1,-1 10,-10 1,-1 4,-4 1,-1 2,-2 1,-1 0,-1 1,-1 1,-1 1,-1 1,-1 0,-1 1,-1 0,-6 -1,-1 0,-1 -1,-1 0,-1 -1,-1 0,-1 -1,-1 0,-1 -1,-1 -1,-1 -1,-1 0,-1 -1,-1 -1,-1 -1,-1 -1,-1 -1,-1 -1,-1 0,-1 -1,-1 -1,-1 -1,-1 -1,-1 0,-1 -1,-1 -1,-1 -1,-1 -1,-1 -1,-1 -1,-1 -1,-1 0,-1 -2,-2 0,-1 -1,-1 -1,-1 -1,-1 0,-1 -1,-1 -1,-1 -1,-1 -1,-1 0,-1 -1,-1 -1,-1 -1,-1 -1,-1 -1,-1 -1,-1 -1,-1 -1,-1 -1,-1 0,-2 -1,0 -1,-1 -1,-1 -1,-1 -1,-1 -1,-1 -1,-1 -1,-1 -1,-1 -1,-1 -1,-1 -1,-1 -1,-1 -1,-1 -2,0 -1,1 0,0 -1,1 -1,0 -2,2 -1,1 -1,1 -2,0 0,1 -1,1 -1,1 -2,0 0,1 -1,1 -1,1 -2,0 0,1 -2,2 -2,0 0,1 -1,1 -2,0 0,1 -1,1 -2,0 0,1 -1,1 -2,0 0,1 -1,1 -1,0 -1,1 -1,0 -4,4 -1,0 -2,2 -1,0 -1,1 -1,0 0,1 -1,1 -1,0 -1,1 -1,0 -1,1 -2,2 -1,1 -1,0 1,1 0,0 1,1 1,1 1,1 1,1 1,0 1,1 0,3 -1,1 -3,0 -1,-1 0,-1 -1,-1 -1,-1 -1,-1 -1,-1 -1,-1 -1,-1 0,1 -1,1 -1,1 -1,1 -2,0 0,1 -1,1 -1,0 -1,1 -1,0 0,1 -1,1 0,1 -1,1 -1,1 -1,1 -1,1 -1,1 -1,1 -1,1 -1,1 -1,1 0,1 -2,2 -1,1 -1,1 -1,1 -1,1 -2,0 0,1 -1,1 -1,1 -1,0 -1,1 -1,1 -2,0 0,1 -1,1 -1,0 -1,1 -1,0 0,1 -1,1 -1,0 -1,1 -1,1Z"/>
<path onmouseover="hoverPath(evt)" onmouseout="recoverPath(evt)" fill="rgb(234,224,143)" d="M  85,36l 0,1 -1,1 -3,0 0,1 -1,1 -1,1 -1,0 -1,1 -1,1 -1,0 -1,1 -1,1 -1,0 -1,1 -1,0 -2,2 -1,0 0,2 -1,1 3,0 1,-1 1,0 1,-1 1,0 1,-1 2,0 1,1 3,0 0,-3 1,-1 6,0 1,1 1,1 2,2 0,-3 1,-1 1,-1 4,0 1,-1 1,-1 1,-1 1,0 1,-1 1,-1 1,0 1,-1 1,0 1,-1 1,-1 3,0 1,-1 2,-2 1,0 3,-3 1,-1 1,-1 1,0 1,-1 1,-1 1,0 1,-1 1,-1 1,0 1,-1 1,-1 1,0 1,-1 1,-1 1,0 1,-1 1,0 1,-1 1,-1 1,0 1,-1 1,-1 1,0 1,-1 1,-1 1,0 1,-1 1,-1 1,0 1,-1 1,-1 1,0 1,-1 1,-1 1,0 1,-1 1,0 1,-1 1,-1 1,0 2,-2 1,0 1,-1 0,-1 -21,0 0,2 -1,1 -1,1 -2,0 -1,-1 -1,1 0,0 -1,1 -1,0 -1,1 -1,1 -1,0 -1,1 -1,1 -3,0 -1,1 -1,0 -1,1 -2,2 -2,0 0,2 -1,1 -1,1 -11,0 -1,1 -1,1 0,5 -1,1 -3,0 0,1 -1,1 -1,1 -2,0 0,1 -1,1 -2,0 -1,1 0,1 -1,1 -2,0 -1,1 -2,2Z"/>
<path onmouseover="hoverPath(evt)" onmouseout="recoverPath(evt)" fill="rgb(244,243,237)" d="M  116,66l 0,0 1,1 0,1 1,1 1,1 1,1 0,1 1,1 1,1 1,1 0,1 1,1 1,1 0,1 1,1 1,1 1,1 0,1 1,1 1,1 1,1 1,1 1,1 0,1 1,1 1,1 1,1 1,1 0,2 2,0 1,1 1,1 1,1 1,1 1,1 1,1 1,1 1,1 1,1 1,1 0,1 1,1 1,1 1,1 1,1 1,1 0,1 1,1 1,1 1,1 1,1 0,1 1,1 1,1 1,1 1,1 0,1 1,1 1,1 1,1 1,1 0,1 1,1 1,1 1,1 1,1 1,1 1,1 0,1 1,1 1,1 1,1 1,1 1,1 0,1 1,1 1,1 1,1 0,1 1,1 1,1 0,2 1,1 0,1 1,1 0,1 1,1 0,1 6,0 1,-1 1,0 1,-1 2,0 1,-1 1,-1 1,0 1,-1 1,0 1,-1 1,-1 1,0 1,-1 1,-1 1,0 1,-1 1,0 1,-1 1,-1 1,0 1,-1 1,-1 1,0 1,-1 1,0 1,-1 1,-1 1,0 1,-1 1,-1 1,0 1,-1 1,-1 1,0 1,-1 1,0 1,-1 1,-1 1,0 1,-1 1,-1 1,0 1,-1 1,-1 1,0 1,-1 1,-1 1,0 1,-1 1,0 1,-1 1,-1 1,0 1,-1 1,-1 1,0 1,-1 1,-1 1,0 1,-1 1,0 1,-1 1,0 0,-106 -1,0 -1,1 -2,0 -1,1 -2,0 -1,1 -3,0 -1,1 -2,0 -1,1 -3,0 -1,1 -2,0 -1,1 -3,0 -1,1 -3,0 -1,1 -3,0 -1,1 -2,0 -1,1 -3,0 -1,1 -1,0 -1,1 -1,0 -1,1 -1,0 0,1 -1,1 -2,0 -1,1 -1,0 0,1 -1,1 -1,0 -1,1 -1,0 -1,1 -1,1 -1,0 -1,1 -1,0 -1,1 -1,0 -1,1 -1,0 -1,1 -1,0 -1,1 -2,0 -1,1 -1,0 0,1 -1,1 -1,0 -1,1 -1,0 -1,1 -1,0 -1,1 -2,0 -1,1 -1,0 -1,1 -1,1 -1,0 -1,1 -2,0 -1,1 -1,0 -1,1 -2,0 -1,1 -1,0 -1,1 -1,0 -1,1 -1,0 -1,1 -1,0 -1,1 -3,0 -1,1 -1,1 -1,0 -1,1 -2,0 -1,1 -1,0 -1,1 -2,0 -1,1 -2,0 -1,1 -2,0 -1,1 -2,0 -1,1 -2,0 -1,1 -2,0 -1,1 -3,0 -1,1 -2,0 -1,1Z"/>
<path onmouseover="hoverPath(evt)" onmouseout="recoverPath(evt)" fill="rgb(247,201,115)" d="M  128,254l 0,1 32,0 0,-2 -1,-1 0,-1 -1,0 -1,-1 0,-2 1,-1 1,-1 2,0 1,1 0,-2 1,-1 2,0 1,1 0,1 1,-1 1,0 0,-2 2,-2 1,0 1,-1 2,0 1,1 0,-1 1,-1 3,0 1,-1 1,0 0,-1 1,-1 2,-2 2,0 1,1 0,-2 1,-1 1,0 1,-1 1,0 1,-1 3,0 1,1 1,-1 1,0 0,-3 1,-1 1,0 1,-1 2,0 1,1 0,-2 1,-1 1,0 1,-1 1,-1 1,0 1,-1 1,0 1,-1 1,-1 1,0 1,-1 2,0 0,-1 1,-1 4,0 1,-1 3,0 0,-2 1,-1 2,0 0,-1 1,-1 2,0 0,-1 1,-1 2,0 0,-3 1,-1 2,0 0,-1 1,-1 1,-1 1,0 1,-1 1,-1 4,0 1,1 1,0 1,1 0,1 1,1 -1,-3 1,-1 0,-2 -1,-1 0,-2 1,-1 1,-1 2,0 1,1 0,-10 -2,0 -1,1 0,1 -1,1 -2,2 -2,0 0,1 -1,1 -1,1 -2,0 0,1 -1,1 -1,1 -2,0 0,1 -1,1 -2,0 0,1 -1,1 -1,1 -5,0 0,3 -1,1 -5,0 -1,1 -3,0 0,4 -1,1 -1,1 -1,1 -1,0 -1,1 -1,0 -1,1 -1,1 -1,0 -1,1 -1,1 -2,0 -1,-1 0,2 -1,1 -3,0 -1,-1 0,3 -1,1 -2,0 -1,-1 0,2 -1,1 -1,0 -1,1 -3,0 -1,-1 0,1 -1,1 -1,0 0,2 -1,1 -1,0 -1,1 -1,0 -1,1 -1,0 -1,1 -2,0 -1,1 -1,1 -1,0 -1,1 -1,0 -1,1 -1,0 -1,1 -1,0 -1,1 -2,0 -1,-1 -2,0 -1,1 0,2 -1,1 -1,0 -1,1 -1,0 -1,1 -1,0 -1,1 -1,0 -1,1 -1,0 -1,1 -3,0 -1,-1 -1,1 -1,0 0,2 -1,1 -1,0 -1,1 -1,0 -1,1 -1,0 -1,1 -1,0 -1,1 -2,0 -1,1 -2,0 -1,-1 -1,1 -1,0Z"/>
<path onmouseover="hoverPath(evt)" onmouseout="recoverPath(evt)" fill="rgb(243,241,233)" d="M  186,237l 0,0 -1,-1 -1,1 -1,1 0,1 -1,1 -1,0 -1,1 -3,0 0,1 -1,1 -2,0 -1,-1 -1,1 -1,0 -1,1 0,2 -1,1 -1,0 -1,1 -2,0 -1,-1 0,1 -1,1 -2,0 -1,-1 -1,1 1,0 1,1 0,1 1,1 0,3 81,0 0,-2 -1,-1 0,0 -1,-1 0,-1 -1,-1 0,-1 -1,-1 0,-1 -1,-1 -1,-1 0,-1 -1,-1 0,-1 -1,-1 -1,-1 0,-1 -1,-1 0,-1 -1,-1 -1,-1 0,-1 -1,-1 0,-1 -1,-1 -1,-1 0,-1 -1,-1 -1,-1 0,-1 -1,-1 0,-1 -1,-1 -1,-1 0,-1 -1,-1 -1,-1 0,-1 -2,0 0,1 -1,1 -2,0 -1,1 -1,0 -1,1 -1,1 -1,0 -1,1 -1,0 -1,1 -1,1 -1,0 0,2 -1,1 -2,0 -1,-1 -1,1 -1,0 0,3 -1,1 -1,0 -1,1 -2,0 -1,-1 -1,0 -1,1 -1,0 -1,1 -1,0 0,2 -1,1Z"/>
<path onmouseover="hoverPath(evt)" onmouseout="recoverPath(evt)" fill="rgb(243,241,233)" d="M  218,180l 0,0 -1,1 -1,0 -1,1 0,1 -1,1 0,7 1,1 0,2 1,1 0,1 1,1 0,1 1,1 0,1 1,1 2,0 1,-1 5,0 0,-3 1,-1 5,0 1,-1 0,-1 1,-1 2,0 0,-1 1,-1 2,0 1,-1 0,-1 1,-1 2,0 1,-1 0,-1 1,-1 2,0 1,-1 1,-1 0,-1 1,-1 1,-1 3,0 0,-24 -2,0 -1,1 0,0 -1,1 -1,0 -1,1 -1,1 -1,0 -1,1 -1,1 -1,0 -1,1 -1,1 -1,0 -2,2 -1,0 -1,1 -1,1 -1,0 -1,1 -1,1 -1,0 -1,1 -1,1 -1,0 -1,1 -1,1 -1,0 -2,2 -1,1 -1,0 -1,1 -1,1 -1,0 -1,1Z"/>
<path onmouseover="hoverPath(evt)" onmouseout="recoverPath(evt)" fill="rgb(244,242,234)" d="M  228,214l 0,2 1,1 0,1 1,1 1,1 0,1 1,1 1,1 0,1 1,1 1,1 0,1 1,1 0,1 1,1 1,1 0,1 1,1 1,1 0,1 1,1 1,1 0,1 1,1 1,1 0,1 1,1 1,1 0,1 1,1 1,1 0,1 1,1 1,1 0,1 2,2 1,1 0,2 2,0 0,-61 -1,0 -1,-1 -1,1 0,0 1,1 0,4 -1,1 1,1 0,2 -1,1 -2,0 -1,-1 -1,-1 0,-1 -1,0 -1,-1 -2,0 -1,1 -1,1 -1,0 -1,1 0,1 -1,1 -2,0 0,3 -1,1 -2,0 0,1 -1,1 -2,0 0,1 -1,1 -1,0 -1,1Z"/>
<path onmouseover="hoverPath(evt)" onmouseout="recoverPath(evt)" fill="rgb(220,228,238)" d="M  3,115l 0,-4 1,-1 0,-10 1,-1 2,0 1,1 0,-4 -2,0 -1,-1 0,-1 -1,0 -1,1 -3,0 0,39 2,0 0,-1 1,-1 -1,0 -1,-1 0,-15 1,-1Z"/>
<path onmouseover="hoverPath(evt)" onmouseout="recoverPath(evt)" fill="rgb(244,243,236)" d="M  4,0l -4,0 0,77 7,0 0,-1 1,-1 3,0 1,-1 2,0 1,-1 3,0 1,-1 1,0 1,-1 2,0 1,-1 1,0 1,-1 2,0 1,-1 1,0 1,-1 1,0 1,-1 1,0 1,-1 1,0 1,-1 1,-1 1,0 1,-1 1,0 1,-1 1,0 1,-1 1,0 1,-1 1,-1 1,0 1,-1 1,-1 1,0 1,-1 1,0 2,-2 1,0 1,-1 1,-1 1,0 1,-1 1,-1 1,0 1,-1 1,-1 1,0 1,-1 1,0 1,-1 1,-1 1,0 1,-1 1,0 1,-1 1,-1 1,0 2,-2 1,0 1,-1 -1,-1 -1,0 -1,-1 -1,-1 -1,-1 -1,-1 -1,0 -1,-1 -1,-1 -1,-1 -1,-1 -1,-1 -1,-1 -1,-1 -1,-1 0,-1 -1,-1 -1,-1 -1,-1 0,-1 -1,-1 0,-2 -1,-1 0,-3 -1,-1 0,-4 -1,-1 0,-3 -1,-1 0,-3Z"/>
<path onmouseover="hoverPath(evt)" onmouseout="recoverPath(evt)" fill="rgb(177,201,237)" d="M  9,243l 0,3 1,1 0,8 1,0 0,-12 -1,-1 -1,1 0,-4 1,0 0,-8 -1,-1 0,-12 -1,-1 0,-10 -1,-1 0,-12 -1,-1 0,-11 -1,-1 0,-6 1,-1 0,-1 1,-1 0,-1 1,-1 3,-3 1,-1 1,-1 1,-1 1,-1 1,-1 1,-1 0,-1 -1,0 -1,1 0,0 -1,1 -1,1 -1,0 -1,1 -1,1 -1,1 -3,0 -1,-1 -1,-1 0,-9 -1,-1 0,-11 -1,-1 0,-6 -2,0 0,44 2,0 1,1 0,1 1,1 0,7 1,1 0,15 1,1 0,10 1,1 0,10 1,1 0,8 1,1Z"/>
<path onmouseover="hoverPath(evt)" onmouseout="recoverPath(evt)" fill="rgb(239,238,230)" d="M  17,117l 0,3 1,1 0,1 1,1 0,3 1,-1 3,0 1,-1 1,0 1,-1 2,0 1,-1 1,0 1,-1 1,-1 1,0 1,-1 1,0 1,-1 1,0 1,-1 1,-1 1,0 1,-1 1,0 1,-1 1,0 1,-1 1,0 1,-1 1,0 1,-1 1,-1 1,0 1,-1 1,-1 1,0 1,-1 1,0 2,-2 1,-1 1,0 1,-1 1,-1 2,0 1,1 1,-1 1,-1 1,0 1,-1 1,-1 1,0 1,-1 1,-1 1,0 1,-1 1,-1 0,-2 1,-1 1,-1 2,0 1,1 1,-1 0,0 1,-1 0,-2 1,-1 1,0 1,-1 1,-1 2,0 1,1 1,0 1,-1 1,0 1,-1 0,-2 1,-1 1,0 1,-1 1,0 1,-1 1,0 0,-2 -1,-1 -1,0 -1,-1 0,-2 -1,-1 -1,-1 -1,-1 -1,0 -1,-1 0,-2 -1,-1 -1,-1 -1,-1 -1,0 -1,-1 0,-4 1,-1 1,0 0,-1 -7,0 0,1 -1,1 -1,1 -5,0 0,1 -1,1 0,1 -1,1 -2,0 -1,1 -1,0 0,1 -1,1 -1,1 -1,1 -5,0 -1,1 -1,1 -1,0 -1,1 -1,0 -1,1 -1,1 -1,0 -1,1 0,1 -1,1 0,2 -1,1 -3,0 -1,-1 -1,0 0,2 -1,1 -2,0 -1,-1 -1,0 -1,1 -1,0 -1,1 -1,0 -1,1 -2,0 -1,1 -1,0 -1,1 -2,0 -1,1 -1,0 -1,1 -2,0 -1,1 -2,0 -1,1 -2,0 -1,1 -2,0 -1,1 -1,0 0,19 4,0 1,1Z"/>
<path onmouseover="hoverPath(evt)" onmouseout="recoverPath(evt)" fill="rgb(241,230,142)" d="M  53,72l 0,0 1,-1 1,-1 1,0 1,-1 1,0 1,-1 1,-1 5,0 1,-1 1,-1 0,-1 1,-1 1,0 1,-1 2,0 0,-1 1,-1 0,-1 1,-1 5,0 1,-1 0,-1 1,-1 6,0 0,-3 1,-1 1,-1 -1,-1 0,0 -1,-1 -1,-1 -4,0 0,3 -1,1 -2,0 -1,1 -2,0 -1,-1 0,-1 -1,1 -1,0 -1,1 -1,0 -1,1 -5,0 -1,-1 0,-2 1,-1 -2,2 -1,0 -2,2 -1,0 -1,1 -1,1 -1,0 -1,1 -1,1 -1,0 -1,1 -1,0 -1,1 -1,1 -1,0 -2,2 -1,0 -1,1 -1,0 -1,1 -1,0 -1,1 -1,0 -1,1 -1,1 -1,0 -1,1 -1,0 -1,1 -1,0 -1,1 -1,0 -1,1 -2,0 -1,1 -1,0 -1,1 -2,0 -1,1 -1,0 -1,1 -3,0 -1,1 -2,0 -1,1 -3,0 0,1 -1,1 -8,0 0,14 2,0 1,-1 3,0 1,1 0,1 1,0 0,-2 1,-1 1,0 1,-1 1,0 1,-1 2,0 1,-1 2,0 1,-1 2,0 1,-1 2,0 1,-1 1,0 1,-1 2,0 1,-1 1,0 1,-1 2,0 1,-1 1,0 1,-1 1,0 1,-1 3,0 1,1 0,-2 1,-1 3,0 1,1 1,0 0,-2 1,-1 0,-1 2,-2Z"/>
<path onmouseover="hoverPath(evt)" onmouseout="recoverPath(evt)" fill="rgb(171,197,237)" d="M  50,253l 0,0 -1,1 -1,0 0,1 78,0 0,-4 1,-1 1,0 1,-1 2,0 1,1 1,-1 2,0 1,-1 1,0 1,-1 1,0 1,-1 1,0 1,-1 1,0 0,-2 1,-1 1,0 1,-1 2,0 1,1 1,0 1,-1 1,0 1,-1 1,0 1,-1 1,0 1,-1 1,0 1,-1 1,0 0,-2 1,-1 0,-2 1,-1 0,-2 1,-1 0,-1 1,-1 0,-2 1,-1 0,-1 1,-1 1,-1 0,-1 1,-1 3,-3 1,-1 2,-2 1,-1 1,-1 1,-1 1,-1 1,-1 6,-6 1,0 1,-1 1,-1 1,0 1,-1 1,-1 1,0 1,-1 1,0 1,-1 1,-1 1,0 1,-1 2,0 1,-1 6,0 1,1 1,1 1,1 1,1 0,1 1,1 0,1 1,1 1,1 0,1 1,1 0,1 2,0 0,-2 -1,-1 0,-1 -1,-1 0,-1 -1,-1 0,-1 -1,-1 0,-2 -1,-1 0,-9 1,-1 0,-1 1,-1 1,-1 1,0 1,-1 1,-1 1,0 1,-1 1,-1 1,0 2,-2 1,-1 1,0 1,-1 1,-1 1,0 1,-1 1,-1 1,0 1,-1 1,-1 1,0 1,-1 1,-1 1,0 1,-1 1,-1 1,0 1,-1 1,-1 1,0 1,-1 1,-1 1,0 1,-1 1,-1 1,0 2,-2 3,0 0,-37 -1,1 -1,0 -1,1 -1,0 -1,1 -1,1 -1,0 -1,1 -1,1 -1,0 -1,1 -1,1 -1,0 -1,1 -1,0 -1,1 -1,1 -1,0 -2,2 -1,0 -1,1 -1,1 -1,0 -1,1 -1,1 -1,0 -1,1 -1,0 -1,1 -1,1 -1,0 -2,2 -1,0 -1,1 -1,1 -1,0 -1,1 -1,0 -1,1 -1,1 -1,0 -1,1 -1,1 -1,0 -1,1 -1,0 -1,1 -1,1 -1,0 -1,1 -1,1 -1,0 -1,1 -1,0 -1,1 -1,1 -2,0 -1,1 -1,0 -1,1 -8,0 -1,-1 0,-1 -1,-1 0,-1 -1,-1 0,-1 -1,-1 0,-2 -1,-1 -1,-1 0,-1 -1,-1 -1,-1 -1,-1 0,-1 -3,-3 -1,-1 -1,-1 0,-1 -1,-1 -1,-1 -1,-1 -1,-1 -1,-1 -1,-1 0,-1 -1,-1 -1,-1 -1,-1 -1,-1 0,-1 -1,-1 -1,-1 -1,-1 -1,-1 0,-1 -1,-1 -1,-1 -1,-1 -1,-1 0,-1 -3,-3 -1,-1 -1,-1 0,-1 -1,-1 -1,-1 -1,-1 -1,-1 -1,-1 -1,-1 -1,-1 -1,-1 -1,-1 -2,0 0,1 1,1 0,0 1,1 1,1 1,1 1,1 1,1 1,1 1,1 1,1 0,1 1,1 1,1 1,1 1,1 0,1 1,1 1,1 1,1 0,1 1,1 1,1 0,1 1,1 1,1 1,1 1,1 1,1 1,1 1,1 0,1 1,1 1,1 1,1 1,1 0,1 1,1 2,2 1,1 1,1 1,1 0,1 1,1 1,1 1,1 0,1 1,1 0,1 1,1 0,1 1,1 0,1 1,1 0,8 -1,1 0,1 -1,1 -1,1 -1,1 -1,1 0,1 -1,1 -1,1 -1,1 -1,1 -1,1 -1,1 -1,1 -1,1 -1,1 -1,1 -1,1 -1,1 -1,1 -1,1 -1,1 -1,1 -1,1 -1,1 -1,1 -1,1 -1,1 -1,1 -1,1 -1,1 -1,1 -1,1 -1,1 -1,1 -1,1 -1,1 -1,1 -1,1 -1,1 -1,0 -1,1 -1,1 -1,1 -1,1 -1,1 -1,1 -1,1 -1,1 -1,0 -1,1 -1,1 -1,1 -1,1 -1,1 -1,1 -1,1 -1,1 -1,1 -1,0 -1,1 -1,1 -1,1 -1,1 -1,1 -1,0 -1,1 -1,1 -1,0 -1,1 -1,0 -1,1 -1,1 -1,0 -1,1 -1,0 -1,1 -2,0 -1,1 -1,0 -1,1 -1,0 -1,1 -2,0 -1,1 -1,0 -1,1 -1,0 -1,1 -2,0 -1,1 -1,0 -1,1 -2,0 -1,1 -1,0 -1,1 -1,0 -1,1 -2,0 -1,1 -1,0 -1,1 -1,0 -1,1 -2,0 -1,1 -1,0 -1,1 -1,0 -1,1 -1,1 -1,0 -1,1 -1,0 -1,1 -1,0 -1,1 -1,1 -1,0 -1,1 -1,1 -1,0 -1,1Z"/>
<path onmouseover="hoverPath(evt)" onmouseout="recoverPath(evt)" fill="rgb(171,198,238)" d="M  58,1l 0,1 1,1 0,3 1,1 0,4 1,1 0,3 1,1 0,2 1,1 0,1 1,1 1,1 1,1 0,1 1,1 1,1 1,1 1,1 1,1 1,1 1,1 1,0 1,1 1,1 1,1 1,1 1,0 1,1 3,0 0,-2 -1,0 -1,-1 -1,-1 -1,-1 -1,-1 -1,-1 -1,0 -1,-1 -1,-1 -1,-1 -1,-1 -1,-1 -1,-1 0,-1 -1,-1 -1,-1 0,-1 -1,-1 0,-2 -1,-1 0,-2 -1,-1 0,-2 -1,-1 0,-2 -1,-1 0,-3 -1,-1 0,-2 -3,0 -1,1Z"/>
<path onmouseover="hoverPath(evt)" onmouseout="recoverPath(evt)" fill="rgb(235,237,234)" d="M  60,106l 0,0 -1,1 -1,1 0,2 -1,1 -2,0 -1,-1 -1,1 -1,1 -1,0 -1,1 1,0 2,-1 1,0 1,1 1,1 1,1 0,2 1,0 1,1 1,1 0,2 -1,1 0,1 -1,1 -1,0 -1,1 0,1 1,0 1,-1 1,-1 -2,1 3,-3 2,0 1,1 1,1 1,1 1,1 1,1 1,1 1,1 0,1 1,0 0,-1 -7,-7 0,-1 1,-1 1,0 1,-1 1,-1 1,-1 1,-1 1,0 1,-1 1,0 0,-1 1,-1 1,0 1,-1 1,0 1,-1 1,-1 1,0 1,-1 1,-1 2,-2 1,0 1,-1 1,0 0,-1 1,-1 2,0 0,-1 1,-1 2,0 0,-1 1,-1 2,0 0,-1 1,-1 2,0 1,-1 0,-1 1,-1 2,0 1,-1 0,-1 1,-1 2,0 1,-1 0,-4 1,-1 0,-1 1,-1 1,-1 0,-7 -1,-1 0,-1 -1,-1 0,-1 -1,-1 0,-1 -1,-1 0,-1 -1,-1 -1,-1 0,-1 -1,-1 -1,-1 -1,-1 0,-1 -1,-1 -1,-1 -1,-1 -1,-1 0,-1 -1,-1 0,-3 1,-1 1,-1 0,-1 -1,-1 0,-1 -3,0 -1,1 0,3 -1,1 -1,0 -1,1 -1,1 0,2 1,0 1,1 0,3 -1,1 -1,0 0,2 1,0 1,1 1,1 1,1 1,1 0,2 1,0 1,1 1,1 1,1 1,1 0,2 1,0 1,1 1,1 0,4 -1,1 -1,0 -1,1 -1,0 -1,1 -1,0 0,2 -1,1 -1,1 -1,0 -1,1 -3,0 -1,-1 -1,1 0,2 -1,1 -1,0 -1,1 -1,1 -1,1 -2,0 -1,-1 -1,1 0,2 -1,1 -1,1 -1,1 -1,0 -1,1 -1,1 -1,0 -1,1 -1,1 -1,0 -1,1 -1,1 -2,0 -1,-1 -2,2Z"/>
<path onmouseover="hoverPath(evt)" onmouseout="recoverPath(evt)" fill="rgb(243,242,235)" d="M  64,1l 0,0 1,1 0,3 1,1 0,2 1,1 0,2 1,1 0,2 1,1 0,2 1,1 0,1 1,1 1,1 0,1 1,1 1,1 3,3 1,0 1,1 1,1 1,1 1,1 1,1 1,0 1,1 1,-1 1,-1 2,0 0,-1 2,-2 2,0 0,-1 1,-1 2,0 1,-1 0,-1 1,-1 3,0 0,-5 1,-1 1,-1 1,-1 11,0 1,-1 0,-2 1,-1 2,0 1,-1 1,-1 1,-1 1,0 1,-1 3,0 1,-1 1,-1 1,0 1,-1 1,-1 1,0 1,-1 1,-1 2,0 1,1 1,-1 0,-1 -74,0 -1,1Z"/>
<path onmouseover="hoverPath(evt)" onmouseout="recoverPath(evt)" fill="rgb(244,243,236)" d="M  100,44l 0,0 -1,1 0,1 1,1 0,2 1,0 1,1 1,1 1,1 1,1 1,1 0,1 1,1 1,1 1,0 1,1 2,0 1,1 2,0 1,-1 5,0 1,-1 4,0 1,-1 3,0 1,-1 2,0 1,-1 2,0 1,-1 1,0 1,-1 2,0 1,-1 3,0 2,-2 1,0 1,-1 3,0 1,-1 1,0 1,-1 1,0 2,-2 1,0 1,-1 3,0 2,-2 3,0 1,-1 1,-1 1,0 1,-1 1,0 1,-1 1,0 1,-1 2,0 0,-1 1,-1 1,0 1,-1 1,0 1,-1 1,0 1,-1 2,0 1,-1 1,0 1,-1 1,0 0,-1 1,-1 1,0 1,-1 1,0 1,-1 1,0 1,-1 2,0 1,-1 2,0 1,1 1,-1 2,0 0,-4 1,-1 1,0 1,-1 1,0 1,-1 1,0 1,-1 2,0 1,-1 1,0 1,-1 2,0 1,-1 1,-1 1,0 1,-1 2,0 1,-1 2,0 1,-1 2,0 1,-1 2,0 1,-1 3,0 1,-1 2,0 1,-1 3,0 1,-1 3,0 1,-1 3,0 0,-2 -91,0 0,2 -1,1 -1,1 -1,0 -1,1 -1,1 -1,0 -1,1 -1,1 -1,0 -1,1 -1,0 -1,1 -1,1 -1,0 -1,1 -1,1 -1,0 -1,1 -1,1 -1,0 -1,1 -1,1 -1,0 -1,1 -1,1 -1,0 -1,1 -1,1 -1,0 -1,1 -1,0 -1,1 -1,1 -1,0 -1,1 -1,1 -1,0 -1,1 -1,1 -1,0 -1,1 -1,1 -1,0 -1,1 -1,1 -1,1 -1,1 -1,1 -1,0 -1,1 -1,1 -1,1 -3,0 -1,1 -1,1 -1,0 -1,1 -1,0 -1,1 -1,1 -1,0 -1,1Z"/>
<path onmouseover="hoverPath(evt)" onmouseout="recoverPath(evt)" fill="rgb(242,238,230)" d="M  184,205l 0,0 -1,1 -1,1 -1,1 -1,1 -1,1 -1,1 -1,1 -1,1 -1,1 -3,3 -1,1 -1,1 -1,1 0,1 -1,1 -1,1 0,1 -1,1 0,2 -1,1 0,1 -1,1 0,2 -1,1 3,0 1,1 1,-1 1,0 1,-1 1,0 1,-1 1,0 1,-1 1,0 1,-1 1,-1 2,0 1,-1 1,0 1,-1 1,0 1,-1 1,0 0,-2 1,-1 1,0 0,-1 1,-1 2,0 1,1 1,0 1,-1 1,0 0,-2 1,-1 2,0 1,1 0,-3 1,-1 2,0 1,1 1,0 0,-2 1,-1 2,0 1,1 1,-1 0,0 1,-1 1,0 1,-1 1,-1 1,0 1,-1 1,0 1,-1 1,-1 -3,0 -1,-1 0,-1 -1,-1 0,-1 -1,-1 -1,-1 0,-1 -1,-1 0,-1 -1,-1 -1,-1 -1,-1 -4,0 -1,1 -2,0 -1,1 -1,0 -2,2 -1,0 -1,1 -1,0 -1,1 -1,1 -1,0 -1,1 -1,1 -1,0 -1,1 -1,1Z"/>
<path onmouseover="hoverPath(evt)" onmouseout="recoverPath(evt)" fill="rgb(171,198,238)" d="M  191,31l 0,0 -1,1 1,0 1,-1 1,0 1,-1 1,0 1,-1 1,0 1,-1 1,-1 1,0 1,-1 1,0 0,-1 -2,1 -1,0 -1,1 -1,0 -1,1 -1,0 -1,1 -1,0 0,1 2,-1 2,-1 -8,4 -1,1 -2,0 -1,1 -1,0 -1,1 -1,0 -1,1 -1,0 0,1 -1,1 -2,0 -1,1 -1,0 -1,1 -1,0 -1,1 -1,0 -1,1 -1,1 -3,0 -1,1 -1,1 -3,0 -1,1 -1,0 -1,1 -1,1 -1,0 -1,1 -1,0 -1,1 -3,0 -1,1 -1,0 -1,1 -1,1 -3,0 -1,1 -2,0 -1,1 -1,0 -1,1 -2,0 -1,1 -2,0 -1,1 -3,0 -1,1 -4,0 -1,1 -5,0 -1,1 -4,0 -1,-1 -2,0 -1,-1 -1,0 -1,-1 -1,-1 -1,-1 0,-1 -1,-1 -1,-1 -1,-1 -1,-1 -1,0 -1,1 0,1 1,1 0,1 1,1 1,1 1,1 1,1 0,1 1,1 1,1 1,1 0,1 1,1 1,1 0,1 1,1 0,1 1,1 0,1 1,1 0,1 1,1 0,9 -2,2 0,1 -1,1 0,1 1,0 1,-1 1,-1 1,-1 1,-1 1,0 1,-1 1,-1 4,0 1,1 1,1 1,1 1,1 1,1 1,1 1,1 1,1 1,1 1,1 1,1 1,1 1,1 1,0 0,-1 -1,-1 0,0 -1,-1 -1,-1 -1,-1 0,-1 -1,-1 -1,-1 -1,-1 -1,-1 -1,-1 0,-1 -1,-1 -1,-1 -1,-1 0,-1 -1,-1 -1,-1 0,-1 -1,-1 -1,-1 -1,-1 0,-1 -1,-1 -1,-1 -1,-1 0,-1 -1,-1 0,-2 1,-1 1,-1 2,0 1,-1 3,0 1,-1 2,0 1,-1 2,0 1,-1 2,0 1,-1 2,0 1,-1 2,0 1,-1 2,0 1,-1 1,0 1,-1 2,0 -5,1 0,0 -12,4 63,-28 -44,22 0,0 1,-1 2,-1 2,0 2,-1 2,-1 2,-1 1,-1 1,0 1,-1 2,0 2,-1 1,-1 2,0 2,-1 1,-1 2,-1 2,-1 1,0 1,-1 1,0 2,-1 1,-1 1,0 0,-1 2,-1 2,-1 1,0 2,-1 -42,20 44,-22Z"/>
<path onmouseover="hoverPath(evt)" onmouseout="recoverPath(evt)" fill="rgb(171,198,238)" d="M  217,17l -2,0 -1,1 -1,0 -1,1 -1,0 -1,1 -1,0 0,1 2,-1 2,-1 2,-1 1,0 1,-1 4,-2 0,1 3,0 1,-1 3,0 1,-1 3,0 1,-1 2,0 1,-1 3,0 1,-1 2,0 1,-1 3,0 1,-1 2,0 1,-1 2,0 1,-1 2,0 0,-3 -2,0 -1,1 -3,0 -1,1 -3,0 -1,1 -2,0 -1,1 -3,0 -1,1 -2,0 -1,1 -2,0 -1,1 -2,0 -1,1 -2,0 -1,1 -1,0 -1,1 -1,1 -1,0 -4,2Z"/>
<path onmouseover="hoverPath(evt)" onmouseout="recoverPath(evt)" fill="rgb(171,198,238)" d="M  224,216l 0,0 -1,1 1,1 1,1 0,1 1,1 1,1 0,1 1,1 0,1 1,1 1,1 0,1 1,1 1,1 0,1 1,1 0,1 1,1 1,1 0,1 1,1 0,1 1,1 1,1 0,1 1,1 0,1 1,1 1,1 0,1 1,1 0,1 1,1 0,1 1,1 1,1 0,3 6,0 0,-1 -1,-1 0,0 -1,-1 -1,-1 0,-1 -1,-1 -1,-1 0,-1 -1,-1 -1,-1 0,-1 -1,-1 -1,-1 0,-1 -1,-1 -1,-1 0,-1 -1,-1 -1,-1 0,-1 -1,-1 -1,-1 0,-1 -1,-1 -1,-1 0,-1 -1,-1 0,-1 -1,-1 -1,-1 0,-1 -1,-1 -1,-1 0,-1 -1,-1 -1,-1 0,-1 -1,-1 0,-1Z"/>
</svg>