<svg width="256" height="256" xmlns="http://www.w3.org/2000/svg"><script> 
var tempColor;
function hoverPath(evt){
obj = evt.target;
tempColor = obj.getAttribute("fill");
obj.setAttribute("fill","red");
//alert(tempColor);
//obj.setAttribute("stroke","red");}
function recoverPath(evt){
obj = evt.target;
obj.setAttribute("fill", tempColor);
//obj.setAttribute("stroke", tempColor);
}</script><path onmouseover="hoverPath(evt)" onmouseout="recoverPath(evt)" fill="rgb(246,231,127)" d="M  0,42l 0,7 15,0 1,-1 9,0 1,-1 9,0 1,-1 9,0 1,-1 8,0 1,-1 9,0 1,-1 9,0 1,-1 9,0 1,-1 11,0 1,-1 7,0 1,-1 8,0 1,-1 9,0 1,-1 8,0 1,-1 9,0 1,-1 9,0 1,-1 8,0 1,-1 9,0 1,-1 7,0 0,-1 1,-1 12,0 1,1 1,-1 9,0 1,-1 11,0 1,-1 11,0 1,-1 12,0 1,-1 14,0 0,-10 -14,0 -1,1 -12,0 -1,1 -12,0 -1,1 -12,0 -1,1 -8,0 -1,-1 0,-19 -9,0 0,20 -1,1 -2,0 -1,1 -8,0 -1,1 -9,0 -1,1 -9,0 -1,1 -8,0 -1,1 -9,0 -1,1 -9,0 -1,1 -8,0 -1,1 -9,0 -1,1 -10,0 -1,1 -7,0 -1,1 -9,0 -1,1 -8,0 -1,1 -9,0 -1,1 -8,0 -1,1 -9,0 -1,1 -9,0 -1,1 -9,0 -1,1 -15,0Z"/>
<path onmouseover="hoverPath(evt)" onmouseout="recoverPath(evt)" fill="rgb(245,244,237)" d="M  0,1l 0,15 3,0 1,-1 7,0 1,-1 8,0 1,-1 3,0 1,-1 6,0 1,-1 7,0 1,-1 7,0 1,-1 7,0 1,-1 5,0 1,-1 3,0 1,-1 4,0 1,-1 4,0 1,-1 5,0 1,-1 5,0 1,-1 5,0 1,-1 4,0 0,-1 -97,0 -1,1Z"/>
<path onmouseover="hoverPath(evt)" onmouseout="recoverPath(evt)" fill="rgb(172,198,238)" d="M  0,19l 0,2 2,0 1,-1 8,0 1,-1 8,0 1,-1 6,0 1,-1 4,0 1,-1 4,0 1,-1 4,0 1,-1 7,0 1,-1 8,0 1,-1 4,0 1,-1 4,0 1,-1 5,0 1,-1 5,0 1,-1 4,0 1,-1 4,0 1,-1 3,0 1,-1 5,0 1,-1 8,0 1,-1 5,0 1,-1 3,0 1,-1 3,0 1,-1 -25,0 0,2 -1,1 -4,0 -1,1 -5,0 -1,1 -5,0 -1,1 -5,0 -1,1 -4,0 -1,1 -4,0 -1,1 -3,0 -1,1 -5,0 -1,1 -7,0 -1,1 -7,0 -1,1 -7,0 -1,1 -6,0 -1,1 -3,0 -1,1 -8,0 -1,1 -7,0 -1,1 -3,0 -1,1Z"/>
<path onmouseover="hoverPath(evt)" onmouseout="recoverPath(evt)" fill="rgb(244,243,237)" d="M  0,24l 0,13 14,0 1,-1 9,0 1,-1 9,0 1,-1 9,0 1,-1 8,0 1,-1 9,0 1,-1 8,0 1,-1 9,0 1,-1 7,0 1,-1 10,0 1,-1 9,0 1,-1 8,0 1,-1 9,0 1,-1 9,0 1,-1 8,0 1,-1 9,0 1,-1 9,0 1,-1 8,0 1,-1 2,0 0,-19 -52,0 0,1 -1,1 -2,0 -1,1 -3,0 -1,1 -3,0 -1,1 -5,0 -1,1 -8,0 -1,1 -5,0 -1,1 -3,0 -1,1 -4,0 -1,1 -4,0 -1,1 -5,0 -1,1 -5,0 -1,1 -4,0 -1,1 -4,0 -1,1 -8,0 -1,1 -7,0 -1,1 -4,0 -1,1 -4,0 -1,1 -4,0 -1,1 -6,0 -1,1 -8,0 -1,1 -8,0 -1,1 -2,0 -1,1Z"/>
<path onmouseover="hoverPath(evt)" onmouseout="recoverPath(evt)" fill="rgb(245,244,237)" d="M  0,52l 0,39 8,0 1,-1 6,0 1,-1 6,0 1,-1 7,0 1,-1 2,0 1,-1 2,0 1,-1 2,0 1,-1 3,0 1,-1 2,0 1,-1 2,0 1,-1 2,0 1,-1 3,0 1,-1 2,0 1,-1 2,0 1,-1 2,0 1,-1 2,0 1,-1 1,0 1,-1 2,0 1,-1 4,0 1,-1 4,0 1,-1 4,0 1,-1 4,0 1,-1 5,0 1,-1 4,0 1,-1 4,0 1,-1 4,0 1,-1 5,0 1,-1 2,0 1,-1 4,0 1,-1 5,0 1,-1 2,0 1,-1 1,-1 4,-4 1,0 3,-3 1,-1 1,-1 1,0 1,-1 1,-1 1,-1 1,0 1,-1 1,-1 1,-1 1,-1 1,0 1,-1 1,0 1,-1 1,0 1,-1 1,0 1,-1 1,0 1,-1 1,0 1,-1 1,0 1,-1 2,0 1,-1 2,0 1,-1 -5,0 -1,1 -9,0 -1,1 -8,0 -1,1 -9,0 -1,1 -9,0 -1,1 -8,0 -1,1 -9,0 -1,1 -8,0 -1,1 -7,0 -1,1 -11,0 -1,1 -9,0 -1,1 -9,0 -1,1 -9,0 -1,1 -8,0 -1,1 -9,0 -1,1 -9,0 -1,1 -9,0 -1,1 -15,0 -1,1Z"/>
<path onmouseover="hoverPath(evt)" onmouseout="recoverPath(evt)" fill="rgb(244,243,237)" d="M  0,100l 0,72 4,0 1,-1 42,0 1,-1 46,0 1,-1 46,0 1,-1 35,0 1,-1 0,-127 -1,0 -1,1 -1,0 -1,1 -1,0 -1,1 -1,0 -1,1 -1,0 -1,1 -1,0 -1,1 -1,1 -1,0 -1,1 -1,1 -1,0 -1,1 -1,1 -1,1 -1,1 -1,0 -1,1 -1,1 -1,1 -1,1 -1,0 -1,1 -1,1 -1,1 -1,1 -2,2 -1,1 -1,1 -1,1 -1,0 -1,1 -3,0 -1,1 -4,0 -1,1 -3,0 -1,1 -4,0 -1,1 -4,0 -1,1 -4,0 -1,1 -4,0 -1,1 -4,0 -1,1 -5,0 -1,1 -4,0 -1,1 -4,0 -1,1 -4,0 -1,1 -2,0 -1,1 -2,0 -1,1 -2,0 -1,1 -1,0 -1,1 -2,0 -1,1 -2,0 -1,1 -2,0 -1,1 -3,0 -1,1 -2,0 -1,1 -2,0 -1,1 -3,0 -1,1 -2,0 -1,1 -2,0 -1,1 -2,0 -1,1 -2,0 -1,1 -3,0 -1,1 -5,0 -1,1 -5,0 -1,1 -7,0 -1,1 -7,0 -1,1 -2,0 -1,1Z"/>
<path onmouseover="hoverPath(evt)" onmouseout="recoverPath(evt)" fill="rgb(241,240,229)" d="M  1,178l -1,0 0,3 54,0 1,1 28,0 1,-1 6,0 1,1 26,0 1,-1 60,0 0,-7 -1,0 -1,-1 -4,0 -1,1 -39,0 -1,1 -39,0 -1,1 -39,0 -1,1 -47,0 -1,1Z"/>
<path onmouseover="hoverPath(evt)" onmouseout="recoverPath(evt)" fill="rgb(253,253,253)" d="M  1,184l 12,0 1,1 71,0 1,1 0,50 1,1 0,18 1,0 0,-45 -1,-1 0,-21 1,-1 0,-1 1,-1 67,0 1,-1 22,0 1,1 5,0 0,-3 -3,0 -1,1 -62,0 -1,1 -28,0 -1,-1 -4,0 -1,1 -30,0 -1,-1 -51,0 -1,1 -1,-1Z"/>
<path onmouseover="hoverPath(evt)" onmouseout="recoverPath(evt)" fill="rgb(244,243,235)" d="M  0,189l 0,66 85,0 0,-17 -1,-1 0,-50 -71,0 -1,-1 -12,0Z"/>
<path onmouseover="hoverPath(evt)" onmouseout="recoverPath(evt)" fill="rgb(171,198,238)" d="M  1,93l -1,0 0,4 2,0 1,-1 7,0 1,-1 7,0 1,-1 5,0 1,-1 5,0 1,-1 3,0 1,-1 2,0 1,-1 2,0 1,-1 2,0 1,-1 2,0 1,-1 3,0 1,-1 2,0 1,-1 2,0 1,-1 3,0 1,-1 2,0 1,-1 2,0 1,-1 2,0 1,-1 1,0 1,-1 2,0 1,-1 2,0 1,-1 2,0 1,-1 4,0 1,-1 4,0 1,-1 4,0 1,-1 5,0 1,-1 4,0 1,-1 4,0 1,-1 4,0 1,-1 4,0 1,-1 4,0 1,-1 3,0 1,-1 4,0 1,-1 3,0 1,-1 1,0 1,-1 1,-1 3,-3 1,-1 2,-2 1,-1 1,0 1,-1 1,-1 2,-2 1,0 1,-1 1,-1 1,-1 1,-1 1,0 1,-1 1,-1 1,0 1,-1 1,-1 1,0 1,-1 1,0 1,-1 1,0 1,-1 1,0 1,-1 1,0 1,-1 0,-1 -1,1 -2,0 -1,1 -1,0 -1,1 -1,0 -1,1 -1,0 -1,1 -1,0 -1,1 -1,0 -1,1 -1,0 -1,1 -1,0 -1,1 -1,1 -1,1 -1,1 -1,0 -1,1 -1,1 -1,1 -1,0 -1,1 -1,1 -2,2 -1,1 -1,0 -1,1 -1,1 -1,1 -1,1 -1,1 -1,1 -2,0 -1,1 -5,0 -1,1 -4,0 -1,1 -2,0 -1,1 -5,0 -1,1 -4,0 -1,1 -4,0 -1,1 -4,0 -1,1 -5,0 -1,1 -4,0 -1,1 -4,0 -1,1 -4,0 -1,1 -4,0 -1,1 -2,0 -1,1 -1,0 -1,1 -2,0 -1,1 -2,0 -1,1 -2,0 -1,1 -2,0 -1,1 -3,0 -1,1 -2,0 -1,1 -2,0 -1,1 -2,0 -1,1 -3,0 -1,1 -2,0 -1,1 -2,0 -1,1 -2,0 -1,1 -7,0 -1,1 -6,0 -1,1 -6,0 -1,1Z"/>
<path onmouseover="hoverPath(evt)" onmouseout="recoverPath(evt)" fill="rgb(177,199,227)" d="M  178,170l 0,2 1,0 1,1 0,8 1,-1 5,0 0,-1 1,-1 0,-4 -1,-1 0,-5 1,-1 0,-12 -1,-1 0,-65 -1,-1 0,-39 -1,-1 0,-16 -3,0 0,3 -1,1 -1,0 -1,1 0,1 1,0 1,1 0,129 -1,1 -1,1Z"/>
<path onmouseover="hoverPath(evt)" onmouseout="recoverPath(evt)" fill="rgb(178,199,224)" d="M  180,188l 0,67 6,0 0,-67 -1,-1 -4,0 -1,1Z"/>
<path onmouseover="hoverPath(evt)" onmouseout="recoverPath(evt)" fill="rgb(246,236,143)" d="M  187,32l -1,0 0,15 1,1 0,39 1,1 0,65 1,1 0,14 -1,1 0,3 1,1 0,6 -1,1 0,1 -1,1 0,4 1,1 0,68 7,0 0,-69 1,-1 -1,0 -1,-1 0,-3 1,-1 3,0 1,-1 6,0 0,-6 -1,-1 0,-1 -1,0 -1,-1 -2,0 -1,1 -3,0 -1,-1 0,-77 -1,-1 0,-9 -1,-1 0,-3 1,-1 0,-16 -1,-1 0,-28 -1,0 -1,-1Z"/>
<path onmouseover="hoverPath(evt)" onmouseout="recoverPath(evt)" fill="rgb(245,244,237)" d="M  194,1l 0,17 6,0 1,-1 12,0 1,-1 12,0 1,-1 12,0 1,-1 15,0 0,-14 -60,0 -1,1Z"/>
<path onmouseover="hoverPath(evt)" onmouseout="recoverPath(evt)" fill="rgb(244,243,235)" d="M  195,33l 0,27 1,1 0,17 59,0 0,-50 -13,0 -1,1 -12,0 -1,1 -11,0 -1,1 -11,0 -1,1 -8,0 -1,1Z"/>
<path onmouseover="hoverPath(evt)" onmouseout="recoverPath(evt)" fill="rgb(254,254,254)" d="M  196,80l -1,0 0,1 60,0 0,-1Z"/>
<path onmouseover="hoverPath(evt)" onmouseout="recoverPath(evt)" fill="rgb(244,243,235)" d="M  196,85l 0,6 1,1 0,77 1,0 1,-1 4,0 1,1 1,0 1,1 0,1 1,1 0,8 21,0 1,1 26,0 0,-98 -59,0Z"/>
<path onmouseover="hoverPath(evt)" onmouseout="recoverPath(evt)" fill="rgb(254,254,254)" d="M  197,182l -1,0 0,1 30,0 1,1 28,0 0,-1 -27,0 -1,-1 -21,0 -1,-1 -5,0 -1,1Z"/>
<path onmouseover="hoverPath(evt)" onmouseout="recoverPath(evt)" fill="rgb(244,243,237)" d="M  198,188l 0,-1 -1,0 0,68 58,0 0,-29 -4,0 -1,-1 -3,0 -1,-1 -3,0 -1,-1 -1,0 -1,-1 -1,0 -1,-1 -1,0 -1,-1 -1,-1 -1,0 -1,-1 -1,-1 -1,-1 0,-1 -1,-1 -1,-1 -1,-1 0,-1 -1,-1 -1,-1 0,-1 -1,-1 0,-1 -1,-1 -1,-1 -1,-1 -1,-1 0,-1 -1,-1 -1,-1 -10,0 -1,1 -2,0 -1,1 -3,0 -1,-1 -1,0 -1,-1 0,-10 -1,-1Z"/>
<path onmouseover="hoverPath(evt)" onmouseout="recoverPath(evt)" fill="rgb(233,236,234)" d="M  206,185l -5,0 0,1 -1,1 1,1 0,10 1,0 1,1 1,0 1,-1 2,0 1,-1 12,0 1,1 1,1 1,1 0,1 1,1 1,1 1,1 1,1 0,1 1,1 0,1 1,1 1,1 0,1 1,1 1,1 1,1 0,1 1,1 1,1 1,0 1,1 1,1 1,0 1,1 1,0 1,1 1,0 1,1 3,0 1,1 3,0 1,1 3,0 0,-38 -29,0 -1,-1Z"/>
<path onmouseover="hoverPath(evt)" onmouseout="recoverPath(evt)" fill="rgb(244,243,235)" d="M  90,188l -1,1 0,19 1,1 0,46 88,0 0,-69 -20,0 -1,1 -66,0 -1,1Z"/>
<path onmouseover="hoverPath(evt)" onmouseout="recoverPath(evt)" fill="rgb(171,198,238)" d="M  93,172l -44,0 -1,1 -42,0 -1,1 -5,0 0,2 2,0 1,-1 47,0 1,-1 39,0 1,-1 1,0 1,-1 1,1 36,0 1,-1 39,0 1,-1 5,0 0,-1 -33,0 -1,1 -46,0 -1,1 -1,1 -1,-1Z"/>
</svg>