<svg width="256" height="256" xmlns="http://www.w3.org/2000/svg"><script> 
var tempColor;
function hoverPath(evt){
obj = evt.target;
tempColor = obj.getAttribute("fill");
obj.setAttribute("fill","red");
//alert(tempColor);
//obj.setAttribute("stroke","red");}
function recoverPath(evt){
obj = evt.target;
obj.setAttribute("fill", tempColor);
//obj.setAttribute("stroke", tempColor);
}</script><path onmouseover="hoverPath(evt)" onmouseout="recoverPath(evt)" fill="rgb(244,243,235)" d="M  0,162l 0,93 82,0 0,-5 1,-1 0,-10 1,-1 0,-11 1,-1 0,-6 1,-1 0,-1 2,-2 1,0 1,-1 2,0 1,-1 14,0 1,1 5,0 1,1 5,0 1,1 6,0 1,1 5,0 1,1 2,0 0,-1 1,-1 5,0 1,1 6,0 1,1 4,0 1,1 3,0 1,1 2,0 1,1 3,0 1,1 2,0 1,1 2,0 1,1 3,0 1,1 4,0 1,-1 1,0 0,-1 1,-1 0,-1 1,-1 2,0 1,1 0,3 -1,1 0,1 3,0 1,1 5,0 1,1 6,0 1,1 5,0 1,1 5,0 1,1 5,0 1,1 6,0 1,1 5,0 1,1 7,0 1,1 8,0 1,1 0,-2 1,-1 0,-1 1,-1 0,-4 -3,0 -1,-1 0,-2 1,-1 6,0 0,-33 -6,0 -1,-1 -5,0 -1,-1 -6,0 -1,-1 -5,0 -1,-1 -5,0 -1,-1 -5,0 -1,-1 -4,0 -1,-1 -5,0 -1,-1 -4,0 -1,-1 -6,0 -1,-1 -5,0 -1,-1 -7,0 -1,-1 -6,0 -1,-1 -7,0 -1,-1 -5,0 -1,-1 -8,0 -1,-1 -7,0 -1,-1 -6,0 -1,-1 -6,0 -1,-1 -5,0 -1,-1 -5,0 -1,-1 -4,0 -1,-1 -1,0 -1,-1 -3,0 -1,-1 -4,0 -1,-1 -3,0 -1,-1 0,-2 -2,0 -1,1 -5,0 -1,-1 -4,0 -1,-1 -4,0 -1,-1 -22,0 -1,-1 -54,0Z"/>
<path onmouseover="hoverPath(evt)" onmouseout="recoverPath(evt)" fill="rgb(244,243,235)" d="M  50,90l 0,3 2,0 1,1 3,0 1,1 1,0 1,1 2,0 1,1 1,0 1,1 2,0 1,1 2,0 1,1 1,0 1,1 2,0 1,1 2,0 1,1 1,0 1,1 1,0 1,1 2,0 1,1 1,0 1,1 2,0 1,1 1,0 1,1 5,0 1,1 7,0 1,1 1,0 1,1 1,1 1,0 1,1 0,1 1,1 1,1 0,1 1,1 1,1 1,0 1,1 0,2 1,1 1,1 0,1 1,1 0,9 -1,1 0,6 -1,1 0,9 -1,1 0,7 -1,1 0,2 1,1 2,0 1,1 4,0 1,1 6,0 1,1 5,0 1,1 6,0 1,1 8,0 1,1 7,0 1,1 6,0 1,1 6,0 1,1 7,0 1,1 6,0 1,1 6,0 1,1 5,0 1,1 5,0 1,1 4,0 1,1 5,0 1,1 5,0 1,1 5,0 1,1 5,0 1,1 5,0 1,1 5,0 1,1 4,0 0,-21 -11,0 -1,-1 -1,0 -1,-1 0,-12 1,-1 13,0 0,-150 -255,0 0,80 2,0 1,-1 3,0 1,1 2,0 1,1 3,0 1,1 2,0 1,1 2,0 1,1 2,0 1,1 2,0 1,1 0,2 1,-1 2,0 1,-1 -1,0 -1,-1 0,-2 1,-1 3,0 1,1 3,0 1,1 2,0 1,1 1,0 0,-5 -1,0 -1,-1 0,-2 1,-1 0,-3 2,-2 2,0 1,1 0,5 2,0 1,1 2,0 1,1 0,4 -1,1 -1,0 0,4 1,1 0,1 96,-68 14,0 1,1 4,0 1,1 0,2 -1,1 0,1 -1,1 0,1 -1,1 0,1 -1,1 0,1 -1,1 0,1 -1,1 -1,1 0,1 -2,2 -1,1 -1,1 -1,1 -1,1 -1,1 -2,2 -6,0 -1,-1 0,-6 1,-1 0,-3 1,-1 0,-3 -2,0 -1,-1 0,-3 1,-1 0,-1 1,-1 0,-1 1,-1 0,-1 1,-1 -96,68Z"/>
<path onmouseover="hoverPath(evt)" onmouseout="recoverPath(evt)" fill="rgb(236,238,234)" d="M  147,24l 0,1 -1,1 0,1 -1,1 0,1 -1,1 0,1 2,0 1,1 0,5 -1,1 0,3 -1,1 0,4 4,0 3,-3 1,-1 1,-1 1,-1 1,-1 1,-1 0,-1 1,-1 1,-1 0,-1 1,-1 0,-1 1,-1 0,-1 1,-1 0,-1 1,-1 0,-1 1,-1 -4,0 -1,-1Z"/>
<path onmouseover="hoverPath(evt)" onmouseout="recoverPath(evt)" fill="rgb(236,238,234)" d="M  243,152l 0,10 1,0 1,1 10,0 0,-11Z"/>
<path onmouseover="hoverPath(evt)" onmouseout="recoverPath(evt)" fill="rgb(242,240,233)" d="M  0,117l 0,39 61,0 1,1 12,0 1,-1 1,0 0,-2 1,-1 0,-3 -1,0 -1,-1 -1,-1 0,-5 1,-1 2,0 1,-1 1,-1 1,-1 0,-1 1,-1 0,-2 -1,-1 0,-3 1,-1 0,-1 1,-1 0,-2 1,-1 0,-2 1,-1 0,-1 1,-1 0,-2 1,-1 2,0 -1,-1 0,-3 -1,-1 -2,0 -1,-1 -1,0 -1,-1 -1,0 -1,-1 -2,0 -1,-1 -1,0 -1,-1 -2,0 -1,-1 -2,0 -1,-1 -1,0 -1,-1 -2,0 -1,-1 -1,0 -1,-1 -2,0 -1,-1 -2,0 -1,-1 -1,0 -1,-1 -1,0 -1,-1 0,-3 -2,0 -1,-1 0,-4 -1,-1 0,-6 1,-1 1,0 0,-2 -2,0 -1,-1 -2,0 -1,-1 0,-5 -1,1 0,3 -1,1 1,0 1,1 0,7 -1,1 -3,0 -1,-1 -2,0 -1,-1 -3,0 -1,-1 -1,0 2,2 0,1 -1,1 -1,1 -2,0 -1,1 -2,0 -1,-1 0,-2 -2,0 -1,-1 -2,0 -1,-1 -2,0 -1,-1 -2,0 -1,-1 -3,0 -1,-1 -2,0 -1,-1 -1,0 -1,1 -3,0Z"/>
<path onmouseover="hoverPath(evt)" onmouseout="recoverPath(evt)" fill="rgb(254,254,254)" d="M  54,97l 0,0 1,1 1,0 1,1 2,0 1,1 2,0 1,1 1,0 1,1 2,0 1,1 1,0 1,1 2,0 1,1 2,0 1,1 1,0 1,1 2,0 1,1 1,0 1,1 1,0 1,1 2,0 1,1 1,1 6,0 1,1 7,0 1,1 1,0 1,1 1,0 1,1 1,1 0,1 1,1 1,1 1,1 0,2 1,0 1,1 1,1 0,1 1,1 0,1 1,1 0,5 -1,1 0,7 -1,1 0,9 -1,1 0,7 -1,1 0,4 -1,1 -5,0 4,1 1,0 1,1 4,0 1,1 5,0 1,1 5,0 1,1 6,0 1,1 6,0 1,1 7,0 1,1 8,0 1,1 5,0 1,1 7,0 1,1 6,0 1,1 7,0 1,1 5,0 1,1 6,0 1,1 4,0 1,1 5,0 1,1 4,0 1,1 5,0 1,1 5,0 1,1 5,0 1,1 6,0 1,1 5,0 1,1 5,0 0,-1 -5,0 -1,-1 -5,0 -1,-1 -5,0 -1,-1 -5,0 -1,-1 -5,0 -1,-1 -5,0 -1,-1 -5,0 -1,-1 -4,0 -1,-1 -5,0 -1,-1 -5,0 -1,-1 -6,0 -1,-1 -6,0 -1,-1 -7,0 -1,-1 -6,0 -1,-1 -6,0 -1,-1 -7,0 -1,-1 -8,0 -1,-1 -6,0 -1,-1 -5,0 -1,-1 -6,0 -1,-1 -4,0 -1,-1 -2,0 -1,-1 -1,-1 0,-4 1,-1 0,-7 1,-1 0,-9 1,-1 0,-6 1,-1 0,-7 -1,-1 0,-1 -1,-1 -1,-1 0,-2 -1,0 -1,-1 -1,-1 -1,-1 0,-1 -1,-1 -1,-1 0,-1 -1,0 -1,-1 -1,-1 -1,0 -1,-1 -7,0 -1,-1 -5,0 -1,-1 -1,0 -1,-1 -2,0 -1,-1 -1,0 -1,-1 -2,0 -1,-1 -1,0 -1,-1 -1,0 -1,-1 -2,0 -1,-1 -2,0 -1,-1 -1,0 -1,-1 -2,0 -1,-1 -2,0 -1,-1 -1,0 -1,-1 -2,0 -1,-1 -1,0 -1,-1 -1,1 35,16 0,2 -36,-19Z"/>
<path onmouseover="hoverPath(evt)" onmouseout="recoverPath(evt)" fill="rgb(172,198,237)" d="M  88,219l 0,1 -1,1 0,6 -1,1 0,11 -1,1 0,10 -1,1 0,4 7,0 0,-4 1,-1 0,-14 1,-1 0,-10 1,-1 0,-1 1,-1 1,-1 1,-1 2,0 1,-1 2,0 1,1 4,0 1,1 5,0 1,1 4,0 1,1 5,0 1,1 4,0 1,1 5,0 1,1 4,0 1,1 5,0 1,1 4,0 1,1 5,0 1,1 4,0 1,1 5,0 1,1 4,0 1,1 3,0 0,-1 1,-1 0,-1 -7,0 -1,-1 -2,0 -1,-1 -3,0 -1,-1 -2,0 -1,-1 -3,0 -1,-1 -3,0 -1,-1 -3,0 -1,-1 -5,0 -1,-1 -6,0 -1,-1 -3,0 -1,-1 -5,0 -1,-1 -6,0 -1,-1 -5,0 -1,-1 -5,0 -1,-1 -12,0 -1,1 -2,0 -1,1 -1,0 -1,1Z"/>
<path onmouseover="hoverPath(evt)" onmouseout="recoverPath(evt)" fill="rgb(244,242,234)" d="M  91,116l 0,0 -1,1 0,1 -1,1 -2,0 0,2 -1,1 0,1 -1,1 0,2 -1,1 0,2 -1,1 0,1 -1,1 0,1 1,1 0,4 -1,1 0,1 -1,1 -1,1 -1,1 -1,1 -2,0 0,3 1,1 1,0 1,1 0,5 -1,1 0,2 -1,1 -1,0 -1,1 -14,0 -1,-1 -60,0 56,1 22,0 1,1 4,0 1,1 4,0 1,1 3,0 1,-1 4,0 1,1 0,2 3,0 1,1 3,0 1,-1 5,0 0,-4 1,-1 0,-7 1,-1 0,-9 1,-1 0,-7 1,-1 0,-3 -1,-1 0,-1 -1,-1 0,-1 -1,-1 -1,0 -1,-1 0,-2 -1,-1 -1,-1 -1,-1 0,-1 -1,-1 -1,0 -1,-1 -1,0 -1,-1 -7,0 -1,-1 -3,0Z"/>
<path onmouseover="hoverPath(evt)" onmouseout="recoverPath(evt)" fill="rgb(244,242,235)" d="M  97,223l 0,0 -1,1 0,1 -1,1 0,10 -1,1 0,14 -1,1 0,3 11,0 0,-4 1,-1 1,0 1,-1 18,0 1,-1 23,0 1,-1 27,0 0,-2 -1,-1 0,0 -1,-1 0,-5 1,-1 0,-2 -3,0 -1,-1 -4,0 -1,-1 -5,0 -1,-1 -4,0 -1,-1 -5,0 -1,-1 -4,0 -1,-1 -5,0 -1,-1 -4,0 -1,-1 -5,0 -1,-1 -4,0 -1,-1 -5,0 -1,-1 -4,0 -1,-1 -5,0 -1,-1 -4,0 -1,-1 -1,1 -2,0 -1,1Z"/>
<path onmouseover="hoverPath(evt)" onmouseout="recoverPath(evt)" fill="rgb(239,236,224)" d="M  121,253l -11,0 -1,1 0,1 73,0 0,-1 -1,-1 0,-2 -23,0 -1,1 -27,0 -1,1Z"/>
<path onmouseover="hoverPath(evt)" onmouseout="recoverPath(evt)" fill="rgb(241,240,232)" d="M  228,255l 27,0 0,-29 -5,0 4,1 0,6 -1,1 0,1 -1,1 0,2 -1,1 -1,0 0,1 -1,1 -12,0 -1,-1 -7,0 -1,-1 -7,0 -1,-1 -9,0 -1,-1 -13,0 -1,-1 -4,0 -1,1 -2,0 -1,1 0,1 -1,1 0,4 2,0 1,1 8,0 1,1 4,0 1,1 0,2 -1,1 -8,0 -1,-1 -6,0 1,1 0,5Z"/>
<path onmouseover="hoverPath(evt)" onmouseout="recoverPath(evt)" fill="rgb(207,222,244)" d="M  246,239l 2,0 0,-1 -8,0 -1,-1 -7,0 -1,-1 -5,0 -1,-1 -6,0 -1,-1 -5,0 -1,-1 -5,0 -1,-1 -5,0 -1,-1 -6,0 -1,-1 -5,0 -1,-1 -3,0 -1,-1 0,-3 1,-1 0,-1 -2,4 -1,0 -1,1 -6,0 -1,-1 -3,0 -1,-1 -2,0 -1,-1 -2,0 -1,-1 -3,0 -1,-1 -2,0 -1,-1 -3,0 -1,-1 -4,0 -1,-1 -6,0 -1,-1 -3,0 0,1 3,0 4,1 3,0 3,1 2,0 2,1 2,0 2,1 1,0 3,1 1,0 2,1 1,0 3,1 3,1 1,0 7,1 0,3 -1,1 0,1 -1,1 0,3 -1,1 0,3 1,1 0,0 1,1 0,4 -1,1 4,0 1,1 0,2 1,1 0,2 3,0 0,-4 -1,-1 0,-2 1,-1 8,0 1,1 6,0 -5,-1 -1,0 -8,-1 -2,0 -1,-1 0,-6 1,-1 0,-1 1,-1 1,-1 2,0 1,-1 6,0 1,1 13,0 1,1 9,0 1,1 7,0 1,1 7,0 1,1 8,0 -89,10 -6,0 -1,1 -23,0 -1,1 -18,0 -1,1 -1,0 0,3 1,0 0,-2 1,-1 19,-1 1,0 23,-1 5,0 1,-1 89,-10Z"/>
</svg>