<svg width="256" height="256" xmlns="http://www.w3.org/2000/svg"><script> 
var tempColor;
function hoverPath(evt){
obj = evt.target;
tempColor = obj.getAttribute("fill");
obj.setAttribute("fill","red");
//alert(tempColor);
//obj.setAttribute("stroke","red");}
function recoverPath(evt){
obj = evt.target;
obj.setAttribute("fill", tempColor);
//obj.setAttribute("stroke", tempColor);
}</script><path onmouseover="hoverPath(evt)" onmouseout="recoverPath(evt)" fill="rgb(243,242,234)" d="M  27,32l -1,1 -2,0 -1,-1 -1,1 -1,1 1,1 4,0 1,1 1,1 1,1 1,1 1,1 1,1 1,1 1,1 1,1 0,1 1,0 0,-1 1,-1 1,-1 3,-3 1,-1 1,0 1,-1 1,-1 1,-1 2,-2 1,-1 1,0 0,-1 1,-1 1,-1 1,-1 1,-1 1,0 1,-1 1,-1 1,0 0,-1 1,-1 1,0 1,-1 1,-1 1,-1 1,-1 1,0 1,-1 1,-1 1,-1 1,-1 1,0 1,-1 1,-1 1,0 1,-1 1,0 1,-1 1,-1 1,0 1,-1 4,0 0,-1 1,-1 0,-1 1,-1 1,-1 1,0 1,-1 1,0 1,-1 1,-1 1,0 0,-1 -26,0 0,2 -1,1 -1,1 -1,0 -1,1 -1,1 -1,1 -1,0 -1,1 -1,1 -1,1 -1,0 -1,1 -1,1 -1,1 -1,0 -1,1 -1,1 -1,1 -1,0 -1,1 -1,1 -1,0 -1,1 0,2 -1,1 -1,1 -1,0 -1,1 -1,1 -1,0 -1,1 -1,1 -2,0 -1,-1 -1,1 0,0 -1,1 -1,1 -1,0 -1,1Z"/>
<path onmouseover="hoverPath(evt)" onmouseout="recoverPath(evt)" fill="rgb(244,243,235)" d="M  0,145l 0,32 2,0 1,-1 2,-2 1,-1 1,0 1,-1 1,-1 1,-1 1,0 1,-1 1,-1 1,-1 1,-1 1,0 3,-3 1,-1 1,0 1,-1 1,-1 1,-1 1,-1 1,0 1,-1 1,-1 1,-1 1,-1 1,0 1,-1 1,-1 1,-1 1,0 1,-1 1,0 1,-1 1,0 1,-1 2,0 1,-1 1,0 1,-1 1,0 1,-1 1,0 1,-1 1,0 1,-1 1,-1 1,0 1,-1 1,0 -1,-1 0,-2 1,-1 -1,-1 -1,-1 -1,-1 0,-2 -1,0 -1,-1 -1,-1 -1,-1 0,-2 -1,0 -1,-1 -1,-1 -1,-1 -1,-1 0,-1 -1,-1 -1,-1 -5,0 -1,1 0,0 -1,1 -1,1 -1,0 -1,1 -1,0 -1,1 -1,1 -1,0 -1,1 -1,1 -1,0 -1,1 -1,1 -1,0 -1,1 -1,1 -1,0 -1,1 -1,1 -1,0 -1,1 -1,1 -2,0 -1,-1 -1,1 -1,1 -1,0 -1,1 0,2 -1,1 -1,0 -1,1 -1,1 -2,0Z"/>
<path onmouseover="hoverPath(evt)" onmouseout="recoverPath(evt)" fill="rgb(243,242,234)" d="M  4,0l -4,0 0,1 2,0 1,1 1,1 2,0 1,1 0,1 1,1 1,1 2,0 1,1 0,1 1,1 1,1 1,1 2,0 1,1 0,1 1,1 1,1 2,0 1,1 0,1 1,1 1,1 1,1 1,0 1,1 1,0 0,-1 1,-1 0,-1 1,-1 2,0 0,-1 1,-1 2,0 0,-1 1,-1 2,0 0,-1 1,-1 2,0 0,-1 1,-1 2,0 0,-1 1,-1 1,-1 4,0 1,-1 1,-1 1,-1 1,0 1,-1 1,-1 1,-1 1,0 0,-1Z"/>
<path onmouseover="hoverPath(evt)" onmouseout="recoverPath(evt)" fill="rgb(169,195,233)" d="M  34,57l -1,1 -1,1 1,1 1,1 1,1 1,1 1,1 1,1 1,1 1,1 1,1 1,1 1,1 0,1 3,0 1,1 0,1 2,2 2,0 1,1 1,1 0,2 1,0 1,1 1,1 1,1 5,0 1,-1 1,0 2,-2 1,-1 1,0 1,-1 1,-1 1,-1 1,-1 0,-1 1,-1 2,0 1,1 1,1 1,0 1,1 1,0 1,1 1,0 1,-1 1,0 1,-1 2,0 1,1 0,-2 1,-1 1,-1 1,-1 0,-1 -1,-1 -1,-1 -1,-1 -1,-1 0,-2 1,-1 2,-2 1,-1 1,-1 1,-1 1,-1 1,-1 -1,-1 -1,-1 0,-1 -1,-1 0,-1 -1,0 -2,-2 0,-3 -1,-1 -2,0 -1,-1 -1,-1 0,-1 -1,-1 -1,0 -1,-1 0,-1 -1,0 -2,-2 -1,-1 0,-1 -2,0 -1,1 0,0 -1,1 -2,0 -1,1 -1,0 -1,1 -1,0 -1,1 0,5 -1,1 -1,1 -1,1 -1,1 -1,1 -1,1 -1,1 -1,1 -3,0 -1,-1 0,-2 -1,-1 -1,0 -1,-1 -1,-1 -1,0 -1,-1 -1,-1 -1,1 -1,0 -1,1 1,0 1,1 0,0 1,1 1,1 1,1 1,1 0,2 -1,1 -2,0 -1,-1 -1,-1 -1,-1 -1,-1 -1,0 -1,1 -1,0 -6,6 54,19 0,1 -1,1 -1,1 -1,0 -1,1 -1,0 -1,1 -1,0 -1,1 -1,0 -1,1 -1,0 -1,1 -1,0 -1,1 -1,0 -1,1 -1,1 -2,2 0,2 1,-1 1,0 1,-1 1,0 2,-2 1,0 1,-1 1,0 1,-1 1,-1 1,0 1,-1 1,-1 1,0 1,-1 1,-1 1,0 1,-1 0,-1 1,-1 -1,-1 -54,-19 57,19 0,1 1,-1 0,-1 -1,1 -57,-19Z"/>
<path onmouseover="hoverPath(evt)" onmouseout="recoverPath(evt)" fill="rgb(170,198,238)" d="M  59,105l 0,1 1,1 1,1 1,1 1,1 1,1 1,1 1,0 1,1 1,1 1,1 1,1 0,1 1,1 1,1 1,1 1,1 1,1 0,1 1,1 1,1 1,-1 1,0 1,-1 1,0 1,-1 0,-1 -1,-1 0,0 -1,-1 -1,-1 -1,-1 -1,-1 0,-1 -1,-1 -1,-1 -1,-1 -1,-1 0,-1 -1,-1 -1,-1 -1,-1 -1,-1 0,-1 -1,-1 -1,-1 -1,-1 -2,0 -1,1 -1,0 -1,1 -1,0 -1,1Z"/>
<path onmouseover="hoverPath(evt)" onmouseout="recoverPath(evt)" fill="rgb(245,244,237)" d="M  67,81l -1,1 -1,1 -1,0 -1,1 0,3 -1,1 0,2 1,0 1,-1 1,0 1,-1 1,0 1,-1 1,-1 2,-2 1,-1 1,0 1,-1 1,0 1,-1 1,0 1,-1 1,0 1,-1 1,0 1,-1 1,0 1,-1 1,0 1,-1 -5,2 -1,0 -1,-1 -1,0 -1,-1 -1,0 -1,-1 -1,-1 0,1 -1,1 0,0 -2,2 -1,1 -1,1 -1,0 -1,1Z"/>
<path onmouseover="hoverPath(evt)" onmouseout="recoverPath(evt)" fill="rgb(244,243,236)" d="M  123,137l 0,1 -1,1 -1,0 -1,1 -1,1 -1,0 0,2 2,-2 1,0 1,-1 1,0 1,-1 3,0 1,1 1,1 1,1 1,1 1,1 1,1 1,1 0,1 1,1 1,1 1,1 1,1 0,4 -1,1 8,0 1,-1 1,0 1,-1 2,0 1,1 1,-1 1,-1 1,-1 0,-2 1,-1 1,-1 1,0 1,-1 1,0 1,-1 1,-1 1,0 1,-1 1,0 2,-2 1,0 1,-1 1,0 1,-1 1,0 1,-1 1,-1 1,-1 1,0 0,-1 1,-1 1,-1 1,-1 1,-1 2,0 0,-1 1,-1 1,0 1,-1 2,0 0,-1 1,-1 2,0 0,-1 1,-1 1,-1 1,0 1,-1 1,0 0,-3 1,-1 2,-2 1,0 0,-3 -1,-1 0,0 -1,-1 -1,-1 -1,-1 -1,0 -1,-1 0,-2 -1,-1 -1,-1 -1,-1 -1,-1 -1,-1 0,-1 -1,0 -1,-1 0,-3 1,-1 3,0 1,1 1,-1 1,0 1,-1 1,0 1,-1 1,-1 0,-2 1,-1 2,0 1,1 1,-1 1,0 1,-1 1,-1 0,-2 1,-1 1,0 2,-2 1,0 1,-1 1,0 1,-1 1,-1 1,0 1,-1 1,0 1,-1 1,-1 2,0 1,1 1,-1 0,-2 1,-1 2,0 1,1 1,-1 0,-2 1,-1 1,0 1,-1 1,-1 1,0 1,-1 1,0 1,-1 1,-1 2,0 1,1 1,-1 0,-2 1,-1 1,0 1,-1 2,0 1,1 1,0 1,-1 0,-2 1,-1 1,0 1,-1 1,0 1,-1 2,0 0,-17 -1,0 -1,-1 -1,-1 -4,0 -1,1 -1,0 -1,1 -2,0 -1,1 -1,1 -1,0 -1,1 -2,0 -1,1 -1,0 -1,1 -3,0 -2,2 -1,0 -1,1 -3,0 -1,1 -1,1 -1,0 -1,1 -1,0 -1,1 -2,0 -1,-1 0,-3 1,-1 1,-1 1,0 0,-1 -2,0 0,1 -1,1 -1,1 -1,1 -1,0 -1,1 -1,0 -1,1 -1,0 -1,1 -1,0 -1,1 1,0 4,-2 1,0 1,1 0,3 -1,1 -1,0 -1,1 -1,0 -1,1 -2,0 -1,1 -1,0 -1,1 -1,0 -1,1 -1,0 -1,1 -2,0 0,1 -1,1 -1,0 -1,1 -2,0 0,1 -1,1 -1,0 -1,1 -1,0 0,1 -2,2 -1,0 -1,1 -1,0 -1,1 -1,1 -1,0 -1,1 -1,0 -1,1 -1,1 -1,0 -1,1 -1,0 -1,1 -1,0 -1,1 -1,1 -1,0 -1,1 -1,0 -1,1 -1,1 -1,1 -2,0 -1,1 -1,0 -1,1 -1,0 -1,1 -2,0 -1,1 -2,0 -1,1 -1,0 -1,1 -1,0 0,1 -1,1 -1,1 -2,0 -1,-1 -1,0 -1,1 0,1 -1,1 -1,1 -5,0 -1,1 -1,1 -1,0 -1,1 1,1 0,0 1,1 0,4 -1,1 1,0 1,-1 0,-1 1,-1 1,-1 1,0 1,-1 1,0 1,-1 8,0 1,1 1,1 1,1 1,1 1,1 0,1 1,1 1,1 1,1 1,1 1,1 1,1 0,4 -1,1 -1,1 -1,1 -1,0 -1,1 -1,1 -1,0 -1,1 -3,0 -1,-1 0,3 -1,1 -1,1 -1,0 -2,2 -4,0 -1,-1 0,2 -1,1 -3,0 -1,1 0,1 -1,1 -1,1 -1,1 -2,0 -1,1 13,19 -1,1 -2,0 0,1 1,0 2,-2 -13,-19 4,-30 -1,0 -1,-1 -1,-1 -1,-1 -2,0 0,1 1,1 0,3 2,0 1,-1 1,0 1,-1 -4,30Z"/>
<path onmouseover="hoverPath(evt)" onmouseout="recoverPath(evt)" fill="rgb(240,240,234)" d="M  151,234l 0,0 1,1 1,1 1,1 1,1 1,1 3,0 1,-1 2,0 1,1 1,-1 1,0 1,-1 1,-1 1,0 1,-1 1,-1 1,0 1,-1 1,-1 1,-1 1,0 1,-1 1,-1 1,0 1,-1 1,-1 1,0 1,-1 1,-1 1,0 1,-1 1,0 2,-2 1,0 1,-1 1,-1 1,0 1,-1 1,0 0,-1 1,-1 2,0 1,-1 1,-1 1,0 0,-1 1,-1 1,0 1,-1 2,0 1,-1 1,0 1,-1 0,-1 1,-1 1,0 1,-1 1,0 0,-1 1,-1 2,0 1,-1 0,-1 1,-1 0,-1 -1,-1 0,0 -1,-1 0,-1 -1,-1 0,-1 -1,-1 -1,-1 0,-1 -1,-1 -1,-1 0,-1 -1,-1 0,-1 -1,-1 -1,-1 0,-1 -1,-1 -1,-1 0,-1 -1,-1 0,-1 -1,-1 -1,-1 0,-1 -1,-1 -1,-1 0,-1 -1,-1 0,-1 -1,-1 -1,-1 0,-1 -1,-1 -1,-1 0,-1 -1,-1 -1,-1 0,-1 -1,-1 0,-1 -1,-1 0,-1 -1,-1 -1,-1 -1,1 -1,0 -2,2 -1,0 -1,1 -1,0 -1,1 -1,1 -1,0 -1,1 -1,0 -1,1 -1,1 -1,0 -1,1 -1,0 -1,1 -1,0 -1,1 -1,1 -1,0 -1,1 -1,0 -1,1 -1,1 -1,0 -1,1 -1,0 -2,2 -1,0 -1,1 -1,0 -1,1 -1,1 -1,0 -1,1 -1,1 -1,0 -1,1 -1,1 -1,0 -1,1 -1,1 -1,0 0,1 -1,1 -2,0 -1,1 -1,0 -1,1 -1,1 -1,0 -1,1 -1,1 -4,0 -1,-1 0,-3 1,-1 1,0 1,-1 1,0 1,-1 1,-1 1,0 1,-1 1,0 1,-1 1,-1 1,0 1,-1 1,-1 1,0 1,-1 1,-1 1,0 1,-1 1,-1 1,0 2,-2 1,0 2,-2 1,0 1,-1 1,0 1,-1 1,-1 1,0 1,-1 1,0 1,-1 1,0 1,-1 1,-1 1,0 1,-1 1,0 1,-1 1,-1 1,0 1,-1 1,-1 1,0 1,-1 1,0 1,-1 1,0 2,-2 1,0 1,-1 1,0 1,-1 1,-1 1,0 1,-1 1,-1 1,0 1,-1 1,0 1,-1 1,-1 1,0 1,-1 1,-1 1,0 1,-1 1,0 2,-2 1,0 2,-2 1,0 -1,-1 0,-1 -1,0 -1,-1 0,-2 -1,-1 -1,-1 -1,-1 0,-2 1,-1 -1,-1 0,0 -1,-1 0,-1 -1,-1 0,-2 1,-1 2,0 1,-1 1,-1 -1,0 -1,-1 0,-4 -1,-1 0,-1 -1,-1 -1,-1 -1,-1 -1,-1 -1,-1 0,-1 -1,0 0,1 6,7 0,3 -1,1 -1,0 -1,1 -1,1 0,3 -1,1 -1,0 -1,1 -1,0 -1,1 0,1 -1,1 -2,0 0,1 -1,1 -2,0 -1,1 -1,0 0,1 -1,1 -2,0 -1,1 -1,1 -1,1 0,1 -1,1 -1,0 -1,1 -1,1 -1,1 -1,0 -1,1 -1,0 -1,1 -1,0 -1,1 -1,1 -1,0 -1,1 -1,0 -1,1 -1,1 -1,0 -1,1 -1,0 -1,1 0,2 -1,1 -1,1 -1,1 -1,1 -1,0 0,1 -1,1 3,-2 2,0 1,1 1,1 0,3 -1,1 -1,1 -4,0 -1,1 -2,0 -1,1 -2,0 -1,-1 -1,-1 0,-2 -1,-1 -1,0 -1,1 0,0 -1,1 0,4 -1,1 -1,1 -1,1 -11,0 -1,-1 -5,0 0,2 -1,1 0,2 -1,1 0,1 -1,1 -1,1 -3,0 -1,-1 0,3 -1,1 -1,0 -1,1 0,1 1,1 0,0 1,1 1,1 1,1 1,1 1,1 0,1 1,1 1,1 1,1 1,1 1,1 1,1 1,1 0,1 1,1 1,1 1,1 1,1 1,1 1,1 0,1 1,1 1,1 1,1 1,1 0,1 1,1 2,2 1,1 0,1 1,1 1,1 1,1 1,1 1,1 0,1 1,1 1,1 0,1 1,1 1,1 1,1 1,1 0,1 1,1 1,1 1,1 1,1 1,1Z"/>
<path onmouseover="hoverPath(evt)" onmouseout="recoverPath(evt)" fill="rgb(244,243,235)" d="M  199,152l 0,0 -1,-1 -1,1 -1,1 -1,0 -1,1 2,0 1,1 0,4 1,1 2,0 1,1 0,2 -1,1 1,1 0,1 1,1 1,1 0,1 1,1 2,0 1,1 0,2 -1,1 1,1 0,0 1,1 0,1 1,1 2,0 1,1 0,2 -1,1 1,1 2,0 1,1 0,2 -1,1 1,1 0,0 1,1 0,1 1,1 2,0 1,1 0,2 -1,1 1,1 0,0 1,1 0,1 1,1 2,0 1,1 0,1 1,1 1,1 0,2 -1,1 1,1 1,0 1,1 0,2 1,1 1,1 0,1 1,1 1,1 0,1 1,1 1,1 0,1 1,1 1,1 0,1 1,1 2,0 1,1 1,1 0,1 1,1 1,1 0,2 -1,1 1,1 1,0 1,1 1,0 1,1 0,4 1,1 2,0 1,-1 3,0 0,-122 -1,0 0,2 -1,1 -2,0 -1,-1 -1,1 0,0 -1,1 -1,0 -1,1 -1,1 -1,0 -1,1 0,2 -1,1 -2,0 -1,-1 -1,1 0,0 -1,1 -1,0 -1,1 0,2 -1,1 -2,0 -1,-1 -1,1 0,0 -1,1 -1,0 -1,1 0,2 -1,1 -2,0 -1,-1 -1,1 0,0 -1,1 -1,0 -1,1 0,2 -1,1 -2,0 -1,-1 -1,1 0,0 -1,1 -1,0 -2,2 -1,0 -1,1 -1,1 -1,0 -1,1 0,2 -1,1 -1,0 -2,2Z"/>
<path onmouseover="hoverPath(evt)" onmouseout="recoverPath(evt)" fill="rgb(233,238,242)" d="M  229,0l -4,0 0,1 1,1 0,0 1,1 1,-1 2,0 1,1 1,1 1,1 1,1 0,-1 -1,-1 0,-1 -1,-1 0,-2 -3,0 7,7 -2,1 0,1 1,1 2,0 1,1 1,1 1,1 1,1 0,1 1,1 1,1 4,4 1,1 0,1 1,1 0,2 -1,1 1,1 0,2 -1,1 1,1 0,3 -1,1 5,0 1,1 1,1 0,-18 -1,0 -1,1 -5,0 -1,-1 0,-1 -1,-1 0,-1 -1,0 -1,-1 -1,-1 -1,-1 -1,-1 -1,-1 0,-1 -1,-1 0,-1 -1,0 -1,-1 -1,-1 -7,-7Z"/>
<path onmouseover="hoverPath(evt)" onmouseout="recoverPath(evt)" fill="rgb(242,241,232)" d="M  235,0l -1,0 0,1 1,1 0,1 1,1 1,1 1,1 1,1 1,0 1,1 0,1 1,1 0,1 2,2 1,1 1,1 1,0 1,1 0,1 1,1 0,1 3,0 1,-1 2,0 0,-18Z"/>
<path onmouseover="hoverPath(evt)" onmouseout="recoverPath(evt)" fill="rgb(237,238,231)" d="M  0,10l 0,33 1,0 1,-1 1,0 1,-1 1,-1 1,-1 1,0 1,-1 1,-1 1,-1 0,-1 1,-1 1,0 1,-1 1,0 2,-2 1,-1 1,-1 1,0 1,-1 0,-3 -1,-1 0,-2 -1,-1 -1,-1 -1,-1 -2,0 -1,-1 0,-1 -1,-1 -1,-1 -2,0 -1,-1 0,-1 -1,-1 -1,-1 -1,-1 -2,0 -1,-1 0,-1 -1,-1 -1,0Z"/>
<path onmouseover="hoverPath(evt)" onmouseout="recoverPath(evt)" fill="rgb(177,201,236)" d="M  14,42l 0,3 -1,1 -2,0 -1,-1 -2,0 -1,1 -1,1 -1,0 0,1 -1,1 -1,0 -1,1 -2,0 0,10 2,0 1,1 0,1 1,1 0,1 1,1 1,1 0,1 1,1 1,1 0,1 1,1 0,1 1,1 1,1 1,1 0,1 1,1 1,1 0,1 1,1 1,1 0,1 1,1 1,1 1,1 0,1 1,1 1,1 0,1 1,1 1,1 0,1 3,0 0,-1 1,-1 1,0 -1,-1 0,0 -1,-1 -1,-1 -1,-1 -1,0 -1,-1 -1,-1 -1,-1 -1,-1 -1,-1 0,-1 -1,-1 -1,-1 0,-1 -1,-1 0,-2 -1,-1 0,-2 -1,-1 0,-5 1,-1 2,0 1,-1 1,0 1,-1 1,-1 2,0 1,-1 1,0 1,-1 1,0 1,-1 1,0 1,-1 2,0 1,-1 0,-1 1,-1 1,0 1,-1 1,-1 1,-1 1,-1 1,-1 1,0 1,-1 3,0 1,1 1,1 1,1 1,1 -6,-5 0,-2 1,-1 0,-2 1,-1 1,-1 1,-1 1,-1 1,-1 1,-1 1,-1 0,-1 -1,1 0,0 -4,4 -1,1 -1,0 -1,1 -1,1 -1,1 -1,1 -1,1 0,1 -1,1 -3,0 -1,-1 0,-1 -1,-1 -1,-1 -1,-1 -1,-1 -1,-1 -1,-1 -1,-1 -1,-1 -3,0 -1,1 -1,1 -1,0 -1,1 -1,1 -2,0 -1,1Z"/>
<path onmouseover="hoverPath(evt)" onmouseout="recoverPath(evt)" fill="rgb(244,243,235)" d="M  97,186l -1,0 -1,1 -4,0 -1,-1 -1,0 0,2 1,0 1,1 1,1 0,1 1,1 1,1 0,1 1,1 1,1 2,0 1,1 1,1 0,1 1,1 1,1 0,1 1,1 1,1 0,1 1,1 1,1 0,1 1,1 1,1 0,2 -1,1 0,4 5,0 1,1 1,1 0,2 -1,1 1,1 2,0 1,1 1,1 0,1 1,1 0,2 -1,1 1,1 0,0 1,1 0,1 1,1 1,1 1,1 0,1 1,1 2,0 1,1 0,1 1,1 0,2 -1,1 1,1 0,2 1,1 0,1 1,1 0,2 1,1 0,2 21,0 0,-1 -1,-1 0,-1 -1,-1 0,-2 -1,-1 0,-4 -1,-1 -1,-1 0,-1 -1,-1 -1,-1 -1,-1 -1,-1 -1,-1 -1,-1 -1,-1 -1,-1 -1,-1 -1,-1 -1,-1 -1,-1 -1,-1 -1,-1 0,-1 -1,-1 -1,-1 -1,-1 0,-1 -1,-1 -1,-1 -1,-1 0,-1 -1,-1 -1,-1 0,-1 -1,-1 -1,-1 -1,-1 0,-1 -1,-1 -1,-1 0,-1 -1,-1 -1,-1 -1,-1 -1,-1 -1,-1 -1,-1 0,-1 -1,-1 -1,-1 -1,-1 -1,-1 -1,-1 -1,-1 0,-1 -1,-1 -2,-2 -1,-1 -1,-1 -1,-1 -1,-1 0,-1 -1,0 -1,-1 -1,0 -1,1Z"/>
<path onmouseover="hoverPath(evt)" onmouseout="recoverPath(evt)" fill="rgb(170,198,238)" d="M  139,90l -1,0 -1,1 -2,0 -1,1 -1,0 -1,1 -1,0 -1,1 -1,0 -1,1 -1,0 -1,1 -1,0 -1,1 -1,1 -1,0 -1,1 -1,1 -1,0 -2,2 -1,0 -1,1 -1,1 -1,1 -1,0 -1,1 -1,1 -1,0 -1,1 -2,2 -1,0 -2,2 -1,1 -1,0 -1,1 -1,1 -1,1 -1,0 -1,1 0,1 1,0 1,-1 1,0 1,-1 1,0 1,-1 1,-1 1,-1 1,0 1,-1 1,-1 1,0 1,-1 1,-1 1,0 1,-1 1,0 1,-1 1,0 1,-1 2,0 1,1 1,0 -1,-1 0,-3 1,-1 4,0 1,1 1,1 1,1 1,0 0,-2 -1,-1 0,0 -1,-1 0,-2 1,-1 1,-1 1,0 1,-1 1,-1 5,0 1,-1 0,-1 1,-1 1,-1 0,-1 1,-1 1,2 1,0 1,1 1,-1 0,-1 1,-1 1,0 1,-1 1,0 1,-1 2,0 1,-1 2,0 1,-1 1,0 1,-1 1,0 1,-1 2,0 1,-1 1,-1 1,-1 1,0 1,-1 1,0 1,-1 1,-1 1,0 1,-1 1,0 1,-1 1,0 1,-1 1,-1 1,0 1,-1 1,0 1,-1 1,-1 1,0 1,-1 1,0 1,-1 -1,-1 -1,0 -1,1 -1,1 -1,0 -1,1 -1,0 -1,1 -1,1 -1,0 -1,1 -1,0 -1,1 -1,0 -1,1 -1,0 -1,1 -1,0 -1,1 -1,0 -1,1 -1,0 -1,1 -1,1 -1,0 -1,1 -2,0 -1,1 -1,0 -1,1 -1,0 -1,1 -1,0 -1,1 -1,0 -1,1 -2,0 -1,1 -1,0 -1,1 -1,0 -1,1 -1,0 -1,1Z"/>
<path onmouseover="hoverPath(evt)" onmouseout="recoverPath(evt)" fill="rgb(244,242,235)" d="M  195,97l -1,0 -1,1 -1,0 -1,1 -2,0 -1,-1 -1,0 0,1 1,0 1,1 0,1 1,1 1,1 1,1 1,1 3,0 1,1 0,1 1,1 1,1 1,1 1,1 1,1 0,1 1,1 0,4 1,0 1,-1 1,0 1,-1 1,0 0,-1 1,-1 1,0 1,-1 1,-1 2,0 0,-1 1,-1 1,0 1,-1 1,0 1,-1 1,0 1,-1 1,0 1,-1 1,0 1,-1 1,0 1,-1 1,0 3,-3 1,0 1,-1 1,-1 1,-1 2,0 0,-1 1,-1 1,-1 1,0 1,-1 1,-1 1,-1 1,0 1,-1 1,-1 1,-1 1,0 1,-1 1,-1 1,-1 1,0 1,-1 2,0 0,-26 -1,0 -1,1 -1,0 0,2 -1,1 -1,0 -1,1 -1,1 -2,0 -1,1 -1,0 -1,1 -1,0 -1,1 -1,1 -2,0 -1,-1 -1,1 0,2 -1,1 -1,0 -1,1 -1,1 -1,0 -1,1 -1,0 -1,1 -1,1 -1,0 -1,1 -1,0 -1,1 -1,1 -2,0 -1,-1 -1,1 0,2 -1,1 -2,0 -1,-1 -1,1 0,2 -1,1 -2,0 -1,-1 -1,1 0,2 -1,1 -1,0 -2,2 -1,1 -1,0 -1,1 -1,0 -1,1 -1,0 -1,1 -1,1 -1,1Z"/>
<path onmouseover="hoverPath(evt)" onmouseout="recoverPath(evt)" fill="rgb(226,231,234)" d="M  15,67l 0,2 1,1 0,2 1,1 0,2 1,1 0,1 2,2 0,1 3,3 1,1 1,0 1,1 1,1 1,1 1,1 1,1 1,0 2,2 1,0 1,1 0,1 1,1 0,1 3,0 1,1 2,0 1,1 0,2 4,0 1,-1 1,0 1,-1 1,0 1,-1 -4,0 -1,-1 -1,-1 0,-1 -1,0 -1,-1 0,-1 -1,0 -1,-1 -1,-1 0,-1 -1,0 -1,-1 0,-1 -1,-1 0,-5 1,-1 1,-1 7,0 1,1 0,2 1,1 0,1 2,0 1,1 3,0 1,1 3,0 1,1 1,0 0,-2 -5,0 -1,-1 -1,-1 -1,-1 -1,0 -1,-1 0,-2 -1,-1 -2,0 -1,-1 -1,-1 -1,-1 0,-1 -3,0 -1,-1 0,-1 -1,-1 -1,-1 -1,-1 -1,-1 -1,-1 -1,-1 -1,-1 -1,-1 -1,-1 -1,-1 -1,-1 0,-1 -1,1 -1,0 -1,1 -1,0 -1,1 -1,0 -1,1 -2,0 -1,1 -1,1 -1,0 -1,1 -1,0 -1,1Z"/>
<path onmouseover="hoverPath(evt)" onmouseout="recoverPath(evt)" fill="rgb(241,241,236)" d="M  52,35l 0,1 -1,1 -1,1 -1,1 -1,1 -1,1 -1,1 -1,1 2,-1 1,0 1,1 1,1 1,0 1,1 1,1 1,0 1,1 1,1 0,2 1,0 1,-1 0,0 1,-1 1,-1 1,-1 1,-1 1,-1 1,-1 0,-5 1,-1 1,-1 1,0 1,-1 1,0 1,-1 2,0 1,-1 1,-1 4,0 1,1 0,1 1,1 1,1 1,0 1,-1 1,0 2,-2 0,-1 1,-1 5,0 0,-4 1,-1 0,-1 1,-1 1,-1 1,0 0,-1 1,-1 1,-1 -1,0 -1,1 -1,0 -1,1 -1,0 -1,1 -1,1 -3,0 -1,-1 -1,-1 -1,-1 -1,-1 0,-1 -1,-1 -1,0 -1,-1 -1,-1 -1,-1 0,-1 -1,1 -2,0 -1,-1 -1,1 -1,0 -1,1 -1,1 -1,0 -1,1 -1,1 -1,1 -1,1 -1,0 -1,1 -2,2 -1,1 -1,0 0,1 -1,1 -1,0 -1,1 -1,1 -1,0 -1,1 -1,1 -1,1Z"/>
<path onmouseover="hoverPath(evt)" onmouseout="recoverPath(evt)" fill="rgb(242,241,233)" d="M  203,123l -1,1 -2,0 1,1 0,1 1,1 1,1 0,1 1,1 1,1 1,1 1,0 1,1 0,2 1,1 1,1 1,-1 1,0 1,-1 1,0 1,-1 1,-1 1,0 1,-1 1,-1 1,0 1,-1 1,-1 1,0 1,-1 1,0 1,-1 1,-1 1,0 1,-1 1,-1 1,0 1,-1 1,0 1,-1 1,-1 1,0 1,-1 1,-1 1,0 1,-1 1,0 1,-1 1,-1 1,0 1,-1 1,-1 1,0 1,-1 1,0 1,-1 1,-1 1,0 1,-1 2,0 0,-2 -1,0 -1,1 -2,0 -1,-1 -1,-1 -1,-1 -1,-1 0,-1 -1,-1 -1,-1 -1,-1 0,-1 -2,0 -1,1 0,0 -1,1 -1,0 -1,1 -1,1 -1,1 -2,0 0,1 -1,1 -1,1 -1,0 -1,1 -1,0 -1,1 -1,0 -1,1 -1,0 -1,1 -1,0 -1,1 -1,0 -1,1 -1,0 -1,1 -3,0 -1,-1 -1,0 -1,1 0,0 -1,1 -1,0 0,1 -1,1 -1,0 -1,1 -1,0 0,2 -1,1 -1,0 -1,1Z"/>
<path onmouseover="hoverPath(evt)" onmouseout="recoverPath(evt)" fill="rgb(249,249,244)" d="M  4,44l -1,0 -1,1 -2,0 0,3 1,0 1,-1 1,0 0,-1 1,-1 0,-1 2,-2 1,1 4,0 1,1 0,-4 1,-1 3,0 1,-1 1,-1 1,0 1,-1 -1,-1 0,-2 1,-1 2,-2 -1,0 -1,1 -1,0 -1,1 -1,1 -1,1 -1,1 -1,0 -1,1 -1,0 0,1 -1,1 -2,2 -1,1 -1,0 -1,1 -2,2 18,-15 1,1 1,0 1,1 0,-2 2,-2 1,0 1,-1 1,-1 1,-1 2,0 1,1 1,-1 1,-1 1,0 1,-1 1,-1 1,0 1,-1 0,-2 1,-1 1,-1 1,0 1,-1 1,-1 1,0 1,-1 1,-1 1,-1 1,0 1,-1 1,-1 1,-1 1,0 1,-1 1,-1 1,-1 1,0 1,-1 2,-2 1,0 1,-1 0,-1 -3,0 0,2 -1,1 -1,0 -1,1 -1,1 -1,1 -1,0 -1,1 -1,1 -1,1 -4,0 -1,1 0,1 -1,1 -2,0 0,1 -1,1 -2,0 0,1 -1,1 -2,0 0,1 -1,1 -2,0 0,1 -1,1 -2,0 0,1 -1,1 0,1 -1,1 -3,0 -1,-1 -1,0 -1,-1 -1,-1 -1,-1 -1,-1 0,-1 -2,0 -1,-1 -1,-1 -1,-1 0,-1 -2,0 -1,-1 -2,-2 -1,-1 0,-1 -2,0 -1,-1 -1,-1 -1,-1 0,-1 -2,0 -1,-1 -1,-1 -1,0 0,2 2,0 1,1 1,1 0,1 2,0 1,1 1,1 1,1 1,1 0,1 2,0 1,1 1,1 1,1 0,1 2,0 2,2 1,1 1,1 0,2 1,1 0,5 -18,15Z"/>
<path onmouseover="hoverPath(evt)" onmouseout="recoverPath(evt)" fill="rgb(244,243,235)" d="M  22,244l 0,0 1,1 0,3 -1,1 -1,1 -2,0 -1,-1 -2,-2 -1,-1 0,1 -1,1 -1,1 -1,1 -1,1 -1,1 0,1 -1,1 0,1 39,0 0,-4 1,-1 1,-1 1,0 1,-1 1,-1 1,0 1,-1 1,-1 1,0 1,-1 1,-1 1,0 1,-1 1,0 1,-1 1,-1 2,0 1,1 1,-1 0,-2 1,-1 1,0 1,-1 1,-1 2,0 1,1 1,-1 0,-2 1,-1 2,0 1,1 1,-1 0,-2 1,-1 1,0 1,-1 1,-1 2,0 1,1 1,-1 0,-2 1,-1 1,0 1,-1 1,-1 1,0 1,-1 1,0 1,-1 1,0 1,-1 1,-1 1,0 1,-1 2,0 1,1 0,-6 1,-1 -1,-1 -1,-1 0,-1 -1,-1 -1,-1 0,-1 -1,-1 -1,-1 0,-1 -1,-1 -1,-1 0,-1 -1,-1 -2,0 -1,-1 -1,-1 -1,-1 0,-1 -1,-1 -1,-1 0,-1 -1,-1 0,1 -1,1 -1,0 -1,1 -1,1 -1,1 -1,0 0,1 -1,1 0,4 -1,1 0,2 -1,1 -3,0 -1,-1 -2,0 -1,1 0,0 -1,1 -1,1 -1,0 -1,1 0,1 -1,1 -1,1 0,2 -1,1 -1,1 0,1 -1,1 -1,0 -1,1 -1,1 -1,0 -1,1 -1,1 -1,1 -1,0 -1,1 -1,1 -1,1 -2,0 -1,1 -3,0 -1,1 -3,0 -1,1 -1,1 -2,2 0,1 -1,1 0,1 -1,1 -1,1 -2,0 -1,1 -1,0 -1,1 -2,0 -1,1 -1,1 -2,2 -1,0 -2,2Z"/>
<path onmouseover="hoverPath(evt)" onmouseout="recoverPath(evt)" fill="rgb(243,242,235)" d="M  58,100l 0,0 -1,1 -1,0 -1,1 1,1 0,0 1,1 0,3 -1,1 -1,0 -1,1 -1,0 0,1 1,1 0,0 1,1 1,1 1,1 1,1 0,1 1,1 1,1 1,1 1,1 1,1 1,1 1,1 1,1 0,1 1,1 1,1 1,1 1,1 1,0 1,1 1,0 1,-1 0,0 1,-1 2,0 1,-1 1,0 1,-1 1,-1 -2,1 0,0 -2,1 -1,0 -1,-1 -1,-1 -1,-1 0,-1 -1,-1 -1,-1 -1,-1 -1,-1 -1,-1 0,-1 -1,-1 -1,-1 -1,-1 -1,0 -1,-1 -1,-1 -1,-1 -1,-1 -1,-1 -1,-1 -1,0 1,-8 0,3 1,-1 1,0 1,-1 1,0 1,-1 4,0 1,1 1,1 1,1 1,1 0,1 1,1 1,1 1,1 1,1 0,1 1,1 1,1 1,1 1,1 0,1 1,1 1,1 1,1 1,1 1,1 0,2 1,0 1,-1 1,-1 1,0 1,-1 2,0 0,-1 1,-1 2,0 0,-1 1,-1 1,-1 1,0 1,-1 1,-1 1,-1 1,0 2,-2 1,-1 1,0 1,-1 1,-1 1,-1 1,0 1,-1 1,-1 1,0 1,-1 1,-1 1,-1 1,0 1,-1 1,-1 1,0 1,-1 1,-1 1,0 1,-1 1,-1 1,0 1,-1 1,0 1,-1 1,0 1,-1 1,0 1,-1 1,0 1,-1 2,0 1,-1 1,0 1,-1 1,0 1,-1 1,0 1,-1 1,0 1,-1 2,0 1,-1 1,0 1,-1 1,0 1,-1 1,0 1,-1 1,0 1,-1 2,0 1,-1 1,0 1,-1 1,-1 1,0 1,-1 1,0 1,-1 1,0 1,-1 1,0 1,-1 1,0 1,-1 1,0 1,-1 1,0 1,-1 1,-1 1,0 1,-1 1,0 1,-1 1,-1 3,0 1,1 1,0 1,-1 1,0 0,-1 1,-1 2,0 1,-1 1,0 0,-1 1,-1 2,0 1,-1 1,0 1,-1 1,0 1,-1 1,0 1,-1 2,0 1,-1 1,0 1,-1 1,0 0,-1 -2,1 -2,1 -2,0 -1,-1 -1,0 -1,1 -2,0 -1,-1 0,2 -1,1 -1,0 -1,1 -3,0 -1,-1 0,-1 -1,-1 -1,-1 -1,-1 -1,-1 -1,-1 0,-1 -1,-1 -1,-1 -1,-1 0,-2 1,-1 1,-1 1,0 1,-1 1,0 1,-1 1,0 2,-2 1,-1 2,0 1,-1 0,-1 1,-1 1,-1 1,0 1,-1 1,0 1,-1 3,0 0,-1 1,-1 1,0 1,-1 2,-2 1,-1 1,0 1,-1 1,-1 1,-1 1,0 1,-1 2,0 1,1 3,3 0,1 1,1 1,1 1,1 0,1 1,1 1,1 1,1 0,2 1,1 0,3 -1,1 -1,1 2,0 1,1 2,0 1,-1 1,0 1,-1 2,0 1,-1 1,0 1,-1 1,-1 2,0 1,-1 1,0 0,-2 1,-1 0,-1 -1,-1 -2,0 -1,1 -3,0 -1,-1 -1,-1 -1,-1 0,-1 -1,-1 -1,-1 -1,-1 -1,-1 -1,-1 0,-1 -1,-1 -1,-1 -1,-1 -1,-1 0,-3 -1,1 0,0 -1,1 -5,0 -1,-1 -1,-1 -1,-1 0,-1 -1,-1 -1,-1 -1,-1 -1,-1 0,-1 -4,0 -1,-1 -1,0 -2,2 0,2 -1,1 -1,1 -1,0 -1,1 -1,0 -3,3 -1,0 -1,1 -1,0 -1,1 -2,0 -1,-1 -1,1 0,2 -1,1 -1,0 -1,1 -1,1 -2,0 -1,-1 -1,1 0,2 -1,1 -1,0 -1,1 -1,1 -2,0 -1,-1 -1,1 0,0 -1,1 -1,0 -1,1 0,2 -1,1 -1,0 -1,1 -1,1 -1,1 -1,0 -1,1 -2,0 -1,-1 -1,1 0,2 -1,1 -1,1 -1,0 -1,1 -1,0 -1,1 -1,1 -2,0 -1,-1 0,-2 1,-1 0,-2 1,-1 0,-1 -1,1 -1,1 -1,0 -1,1 -1,1 -1,0 0,1 1,1 0,2 -1,1 -2,0 -1,-1 -1,0 -1,1 -2,0 -1,1 -1,0 -1,1 -1,0 -1,1 -1,1 -1,0 -1,1 -1,0 -1,1 -1,0 -1,1 -1,1 -1,1 -1,1 -1,1 0,1 -1,1 -3,0 -1,1 -1,0 -1,1 -1,1 -1,1 -1,1 -1,1 0,2 1,1 0,0 1,1 0,2 -1,1 -3,0 -1,-1 0,-1 -1,-1 0,2 -1,1 -2,0 -1,-1 -3,0 -1,1 0,0 -1,1 -1,0 -2,2 -2,0 0,1 -1,1 -1,1 -2,0 0,1 -1,1 -1,1 -1,0 -1,1 -1,1 -1,0 -1,1 -1,1 -1,0 -2,2 -1,0 -1,1 -1,0 -1,1 -1,1 -1,0 -1,1 -1,0 -1,1 -1,0 -1,1 -1,1 -1,0 -1,1 -1,0 -1,1 -1,1 -1,0 -1,1 -1,0 -1,4 0,-3 27,-12 1,-1 2,0 1,1 0,2 -1,1 -2,0 -1,-1 0,-2 -27,12 38,-19 1,-1 2,0 1,1 0,2 -1,1 -2,0 -1,-1 0,-2 -38,19 73,-37 1,-1 2,0 1,1 0,2 -1,1 -2,0 -1,-1 0,-2 -73,37Z"/>
<path onmouseover="hoverPath(evt)" onmouseout="recoverPath(evt)" fill="rgb(171,198,237)" d="M  83,11l -3,0 -1,1 -1,0 -1,1 3,-1 0,0 1,1 0,1 1,1 1,1 1,0 1,1 1,1 0,1 1,1 1,1 1,1 1,0 1,-1 0,0 1,-1 1,0 1,-1 1,0 1,-1 2,0 1,-1 1,-1 1,0 1,-1 1,-1 1,0 1,-1 1,0 1,-1 1,-1 1,-1 2,0 1,-1 1,-1 2,0 1,-1 1,0 1,-1 1,-1 1,-1 2,0 0,-1 1,-1 1,0 1,-1 1,0 0,-1 -32,0 0,2 -1,1 -1,0 -1,1 -1,1 -1,0 -1,1 -1,0 -1,1 0,1 -1,1 0,1 -1,1Z"/>
<path onmouseover="hoverPath(evt)" onmouseout="recoverPath(evt)" fill="rgb(170,198,238)" d="M  90,132l -1,0 0,2 1,1 0,0 1,1 0,1 1,0 1,1 0,1 1,1 1,1 1,1 0,1 1,1 1,1 2,0 1,-1 1,0 1,-1 1,-1 1,0 0,-1 -1,-1 0,0 -1,-1 -1,-1 -1,-1 0,-1 -1,-1 -1,-1 -1,-1 -1,-1 -1,-1 -1,-1 -2,0 -1,1 -1,0 -1,1Z"/>
<path onmouseover="hoverPath(evt)" onmouseout="recoverPath(evt)" fill="rgb(242,242,235)" d="M  160,244l -1,1 0,3 1,1 0,3 1,1 0,2 64,0 0,-2 1,-1 1,0 1,-1 2,0 1,-1 1,0 1,-1 1,0 1,-1 1,0 1,-1 1,0 1,-1 1,-1 1,0 1,-1 1,0 1,-1 0,-2 -1,-1 0,0 -1,-1 0,-1 -1,-1 -1,-1 0,-1 -1,-1 -1,-1 0,-1 -1,-1 -1,0 -1,-1 0,-2 -1,0 -1,-1 0,-2 -1,-1 -1,-1 0,-1 -1,-1 -1,-1 0,-1 -1,-1 -1,-1 0,-1 -1,-1 -1,-1 0,-1 -1,-1 -1,-1 0,-1 -1,-1 -1,-1 0,-1 -1,-1 -3,0 -1,1 -2,0 0,1 -1,1 -1,0 -1,1 -1,0 0,1 -1,1 -1,1 -1,0 -1,1 -2,0 -1,1 -1,0 0,1 -1,1 -1,0 -1,1 -1,1 -2,0 0,1 -1,1 -1,0 -1,1 -1,0 -1,1 -1,1 -1,0 -1,1 -1,1 -1,0 -1,1 -1,0 -1,1 -1,1 -1,0 -1,1 -1,1 -1,0 -1,1 -1,1 -1,0 -1,1 -1,1 -1,1 -1,0 -1,1 -1,1 -1,0 -1,1 -1,1 -1,0 -1,1 -1,0 0,1 -1,1 -1,0 -1,1Z"/>
<path onmouseover="hoverPath(evt)" onmouseout="recoverPath(evt)" fill="rgb(239,238,231)" d="M  0,85l 0,56 1,0 1,-1 0,-2 1,-1 1,0 1,-1 1,-1 1,0 1,-1 1,-1 2,0 1,1 1,-1 0,0 1,-1 1,0 1,-1 1,-1 1,0 1,-1 1,-1 1,0 1,-1 1,-1 1,0 1,-1 1,-1 1,0 1,-1 1,-1 1,0 1,-1 1,0 1,-1 1,-1 1,-1 7,0 1,1 1,1 1,1 0,1 1,1 1,1 1,1 1,0 1,1 0,2 1,1 1,1 1,0 1,1 0,2 1,1 1,1 1,1 0,1 1,1 1,1 0,-1 1,-1 1,-1 1,0 1,-1 1,-1 -1,-1 0,0 -1,-1 0,-1 -1,-1 -1,-1 -1,-1 -1,-1 -1,-1 -1,-1 -1,-1 -1,-1 0,-1 -1,-1 -1,-1 -1,-1 -1,-1 -1,-1 -1,-1 -1,-1 -1,-1 -1,-1 -1,-1 -1,-1 -1,-1 -1,0 -1,1 0,0 -1,1 -7,0 -1,1 -1,0 -1,1 -2,0 -1,1 0,2 -1,1 -2,0 -1,1 -1,1 -3,0 -1,1 -3,0 -1,-1 0,-4 1,-1 4,0 0,-3 1,-1 1,0 1,-1 1,0 1,-1 0,-3 -1,-1 0,-2 -1,0 -1,-1 -1,-1 0,-5 -1,-1 0,-1 -1,-1 -1,-1 0,-1 -1,-1 -1,-1 -1,-1 0,-1 -1,-1 -1,-1 0,-1 -1,-1 -1,0 -1,-1 0,-2 -1,-1 -1,-1 0,-1 -1,-1 -1,-1 0,-1 -1,-1 -1,-1 0,-1 -1,-1 0,-1 -1,0 0,16 7,45 -1,1 -2,0 -1,-1 0,-2 1,-1 1,-1 2,0 1,1 0,2 -1,1 -7,-45Z"/>
<path onmouseover="hoverPath(evt)" onmouseout="recoverPath(evt)" fill="rgb(227,230,229)" d="M  24,102l 0,2 1,1 0,5 -1,1 -1,1 -1,0 -1,1 -1,0 0,3 -1,1 -4,0 0,2 1,0 1,-1 3,0 1,-1 1,-1 2,0 0,-2 1,-1 1,-1 2,0 1,-1 1,0 1,-1 7,0 1,-1 1,-1 -1,0 -1,-1 -4,0 -1,-1 0,-2 -1,-1 0,-3 -2,0 -1,-1 -1,0 -1,-1 0,-1 -1,-1 -1,-1 0,-1 -3,0 -1,-1 0,-1 -1,-1 -1,-1 0,-1 -1,-1 -1,-1 0,-1 -1,-1 -1,-1 -1,-1 0,-1 -1,-1 -1,-1 0,-1 -1,-1 -1,-1 0,-1 -1,-1 -1,-1 -1,-1 0,-1 -1,-1 0,-1 -1,-1 -1,-1 0,-1 -1,-1 -1,-1 0,-1 -1,-1 0,-1 -1,0 0,5 2,0 1,1 0,1 1,1 0,1 1,1 1,1 0,1 1,1 1,1 0,1 1,1 1,1 0,2 1,0 1,1 1,1 0,1 1,1 1,1 0,1 1,1 1,1 1,1 0,1 1,1 1,1 0,1 1,1 0,5 1,1 1,0 1,1Z"/>
<path onmouseover="hoverPath(evt)" onmouseout="recoverPath(evt)" fill="rgb(178,202,238)" d="M  52,221l 0,0 -1,1 -1,0 -1,1 -6,0 -1,1 -1,0 -1,1 -1,0 -1,1 -1,1 -1,1 -1,1 0,1 -1,1 -1,1 -2,2 -2,0 -1,1 -2,0 -1,1 -1,0 -1,1 -1,0 -1,1 -1,0 -1,1 -1,0 -1,1 0,1 -1,1 -3,0 -1,-1 -1,0 -1,1 -1,1 -1,0 -2,2 2,0 1,1 0,2 -1,1 -1,1 -1,1 -2,2 -1,0 0,1 -1,1 5,0 0,-2 1,-1 0,-1 1,-1 1,-1 1,-1 1,-1 1,-1 0,-1 1,-1 2,0 1,1 1,1 1,1 1,1 1,-1 0,-1 -1,-1 0,-3 1,-1 1,0 1,-1 1,0 1,-1 1,-1 1,-1 1,-1 2,0 1,-1 1,0 1,-1 2,0 1,-1 0,-1 1,-1 0,-1 1,-1 1,-1 1,-1 2,-2 3,0 1,-1 3,0 1,-1 2,0 1,-1 -1,-1 1,-1 3,0 2,-2 1,-1 1,0 1,-1 1,-1 1,0 0,-1 1,-1 1,-1 0,-2 2,-2 0,-1 2,-2 1,0 2,-2 1,-1 4,0 1,1 1,0 0,-2 1,-1 0,-4 1,-1 0,-1 1,-1 1,0 1,-1 1,-1 1,-1 1,0 0,-2 -1,1 0,0 -2,2 -1,0 0,1 -2,1 -1,1 -1,0 -1,1 -1,1 -1,1 -1,1 -1,1 -1,1 -1,1 -1,0 -1,1 -2,0 -1,1 -1,1 -1,1 0,2 -1,1 0,2 -1,1 0,1 -1,1 -2,2 -1,1 -1,0 -1,1 -1,1 0,1 1,-1 1,-1 2,-1 1,-1 2,-2 -10,7 -1,1Z"/>
<path onmouseover="hoverPath(evt)" onmouseout="recoverPath(evt)" fill="rgb(223,230,237)" d="M  91,140l 0,-1 -1,0 -1,-1 0,-1 -1,-1 -1,-1 0,-4 1,-1 1,0 1,-1 1,0 1,-1 4,0 1,1 2,2 1,1 2,2 -5,-6 0,-3 1,-1 1,0 1,-1 1,-1 1,0 1,-1 1,0 1,-1 5,0 1,1 1,1 1,1 1,1 1,1 1,1 1,1 1,1 2,0 1,1 1,1 1,1 1,1 1,1 0,1 1,-1 0,0 1,-1 0,-1 1,-1 1,-1 3,0 0,-1 -1,-1 0,0 -1,-1 -1,-1 -1,-1 0,-1 -1,-1 -1,-1 -1,-1 -1,-1 0,-4 -1,-1 -1,-1 0,-2 -1,0 -1,-1 0,-1 -2,0 -1,-1 -1,1 -1,0 -1,1 -1,0 -1,1 -1,0 -1,1 -1,1 -1,0 -1,1 -1,1 -1,0 -1,1 -1,1 -1,1 -1,0 -1,1 -1,0 -1,1 -3,0 -1,-1 -1,0 0,1 -1,1 -2,0 -1,1 -1,0 -1,1 -1,1 -3,0 0,2 -1,1 -1,1 -1,1 -1,0 0,3 -1,1 -1,1 0,3 1,1 0,0 1,1 0,1 1,1 2,0 1,1 1,1 0,1 1,1 1,1 1,1 0,2 1,1 1,1 0,1 1,1 1,1 0,1 1,1 1,0 0,-1 1,-1 2,0 1,-1 4,0 1,1 0,-1 1,-1 1,-1 4,0 1,1 1,1 1,1 1,1 -4,-5 0,-1 2,-2 4,0 1,1 0,-3 1,-1 0,-1 -1,0 -1,1 -3,0 -1,-1 -1,-1 -1,-1 -1,-1 -1,-1 -1,-1 -1,-1 -1,-1 4,5 0,2 -1,1 -1,0 -1,1 -1,1 -1,0 -1,1 -4,0 -1,-1 -1,-1 -1,-1 0,-1 -1,-1 -2,-2Z"/>
<path onmouseover="hoverPath(evt)" onmouseout="recoverPath(evt)" fill="rgb(239,239,233)" d="M  92,61l -1,1 -1,1 -1,1 1,1 1,1 1,1 1,1 0,3 -1,1 -1,1 -1,1 2,-1 0,0 2,-4 1,0 1,-1 1,-1 1,0 1,-1 1,-1 1,0 1,-1 1,-1 1,0 1,-1 1,-1 1,-1 1,-1 1,0 2,-2 1,-1 1,0 1,-1 1,-1 1,-1 1,0 1,-1 0,-1 -1,-1 0,0 -1,-1 0,-3 1,-1 1,-1 1,-1 4,0 1,1 1,1 -2,-3 0,-2 1,-1 1,-1 1,0 1,-1 6,0 3,3 0,1 1,-1 1,0 1,-1 1,-1 1,0 1,-1 1,0 1,-1 1,-1 1,0 1,-1 1,-1 1,0 1,-1 1,0 1,-1 1,-1 2,0 0,-1 1,-1 3,0 1,1 0,3 -1,1 -1,1 -1,0 -1,1 -1,1 -1,1 0,3 -1,1 0,2 -1,1 3,-4 1,0 1,1 1,-1 0,-2 1,-1 1,-1 2,0 1,1 1,-1 1,0 1,-1 1,-1 0,-2 1,-1 1,0 1,-1 1,-1 1,0 1,-1 1,-1 2,0 1,1 1,-1 0,-2 1,-1 1,0 1,-1 1,-1 2,0 1,1 1,-1 0,-2 1,-1 1,0 1,-1 1,-1 2,0 1,1 1,-1 1,0 1,-1 1,0 1,-1 1,-1 0,-2 1,-1 2,0 1,1 1,-1 0,-2 1,-1 1,-1 1,-1 3,0 1,1 4,0 1,1 0,1 1,1 2,2 1,1 0,1 1,1 1,1 3,0 1,-1 0,-2 1,-1 -1,-1 -2,-2 -1,-1 0,-1 -1,-1 -1,-1 -1,-1 -1,-1 -1,-1 0,-2 -90,0 0,2 -1,1 -1,0 -1,1 -1,0 0,1 -1,1 -2,0 -1,1 -1,1 -1,1 -1,0 -1,1 -2,0 -1,1 -1,1 -2,0 -1,1 -1,1 -1,1 -1,0 -1,1 -1,0 -1,1 -1,1 -1,0 -1,1 0,2 -1,1 -1,1 0,1 -1,1 -1,0 -1,1 0,1 -1,1 0,4 -1,1 -5,0 0,1 -1,1 -1,1 -1,1 -1,0 -1,1 1,0 1,1 0,0 1,1 0,1 1,1 2,0 1,1 1,1 0,3 1,1 1,0 1,1 0,1 1,1 0,1 1,1 1,1 0,2 -1,1 -1,1 -1,1 -1,1 -1,1Z"/>
<path onmouseover="hoverPath(evt)" onmouseout="recoverPath(evt)" fill="rgb(170,198,238)" d="M  101,125l -1,1 -1,0 0,2 1,1 0,0 1,1 1,1 1,1 1,1 0,1 1,1 1,1 1,1 1,1 1,1 1,1 1,1 1,1 1,0 1,-1 2,0 0,-1 1,-1 1,0 2,-2 1,0 0,-2 -1,-1 0,0 -1,-1 -1,-1 -1,-1 0,-1 -1,-1 -1,-1 -1,-1 -1,-1 -1,-1 -1,-1 -1,-1 -1,-1 -3,0 -1,1 -1,0 -1,1 -1,0 -1,1Z"/>
<path onmouseover="hoverPath(evt)" onmouseout="recoverPath(evt)" fill="rgb(192,211,237)" d="M  235,101l 0,0 -1,1 -1,1 2,0 1,-1 1,-1 1,-1 1,0 1,-1 1,-1 4,0 1,1 0,1 1,1 1,1 1,1 0,1 1,1 2,2 1,-1 2,0 0,-19 -1,0 -1,1 -1,0 -1,1 -1,1 -1,1 -1,0 -1,1 -1,1 -1,1 -1,0 -1,1 -1,1 -1,1 -1,0 -1,1 0,1 1,-1 -5,3 2,-1 -1,0 -1,2 -3,1 -1,1 -1,1 -1,1 -1,0 -1,1 -1,0 -1,1 -1,0 -1,1 -1,0 -1,1 -1,0 -1,1 -1,0 -1,1 -1,0 0,1 1,0 1,-1 1,0 1,-1 1,0 1,-1 1,0 1,-1 1,0 1,-1 1,0 1,-1 1,0 1,-1 1,0 1,-1 0,-1 -1,1 6,-5 -2,1Z"/>
<path onmouseover="hoverPath(evt)" onmouseout="recoverPath(evt)" fill="rgb(208,220,231)" d="M  254,255l 1,0 0,-11 -1,0 -1,1 -1,0 -1,1 -1,0 -1,1 -1,1 -1,0 -1,1 -1,0 -1,1 -1,0 -1,1 -1,0 -1,1 -1,0 -1,1 -1,0 -1,1 -1,0 0,1Z"/>
<path onmouseover="hoverPath(evt)" onmouseout="recoverPath(evt)" fill="rgb(176,201,237)" d="M  43,150l -2,0 -1,1 -1,0 -1,1 -1,0 -1,1 -1,0 -1,1 -1,1 -1,1 -1,0 -2,2 -1,1 -1,1 -1,0 -2,2 -1,1 -1,1 -1,0 -1,1 -1,1 -1,1 -1,1 -1,0 -1,1 -1,1 -1,1 -1,1 -1,0 -2,2 -1,1 -1,0 -1,1 -2,2 -1,1 -3,0 0,25 1,0 1,-1 0,-1 1,-1 1,-1 1,0 1,-1 1,-1 1,-1 1,-1 0,-1 -1,-1 0,-2 1,-1 3,0 1,1 1,-1 1,0 1,-1 1,0 1,-1 1,-1 1,0 1,-1 1,-1 1,-1 1,0 1,-1 1,-1 1,-1 1,0 1,-1 0,-1 -1,-1 0,0 -1,-1 -1,-1 -1,-1 -1,-1 0,-1 -1,-1 -3,0 -1,-1 0,-3 1,-1 1,0 1,-1 1,-1 2,0 1,1 0,1 1,1 1,1 1,1 1,1 1,1 1,1 1,1 1,1 2,0 1,-1 1,0 1,-1 1,-1 0,-1 -1,-1 0,-3 1,-1 2,0 1,1 1,1 2,0 1,-1 2,-2 1,0 1,-1 1,-1 0,-2 1,-1 1,-1 4,0 2,-2 0,-2 -1,-1 0,0 -1,-1 0,-1 -1,-1 -1,0 -1,1 -4,0 -1,-1 -2,0 -1,-1 0,-2 1,-1 -2,0 -1,1 -1,0 -1,1 7,-3 1,0 1,-1 1,-1 1,-1 1,0 0,-1 -2,1 -1,1 -1,1 -1,1 -7,3Z"/>
<path onmouseover="hoverPath(evt)" onmouseout="recoverPath(evt)" fill="rgb(244,242,235)" d="M  55,255l 74,0 0,-1 -1,-1 0,-2 -1,-1 0,-1 -1,-1 0,-2 -1,-1 0,-1 -1,-1 0,-1 -1,-1 0,-1 -1,-1 -1,-1 0,-1 -1,-1 -1,-1 -1,-1 0,-1 -1,-1 -1,-1 0,-1 -1,-1 0,-2 1,-1 -1,-1 -2,0 -1,-1 -1,-1 0,-2 1,-1 -1,-1 -4,0 -1,1 -1,0 -1,1 -2,0 -1,-1 -1,1 0,2 -1,1 -1,0 -1,1 -1,0 -1,1 -1,1 -1,0 -1,1 -1,0 -1,1 -1,1 -2,0 -1,-1 -1,1 0,2 -1,1 -1,0 -1,1 -1,1 -1,0 -1,1 -1,0 -2,2 -2,0 -1,-1 -1,1 0,2 -1,1 -1,0 -1,1 -1,1 -2,0 -1,-1 -1,1 0,2 -1,1 -1,0 -1,1 -1,1 -2,0 -1,-1 -1,1 -1,1 -1,0 -1,1 -1,1 -1,0 -1,1 0,3Z"/>
<path onmouseover="hoverPath(evt)" onmouseout="recoverPath(evt)" fill="rgb(178,202,237)" d="M  110,150l 0,0 1,1 1,1 1,1 1,1 0,2 -1,1 -2,0 -1,-1 -1,-1 -1,-1 -1,-1 -2,0 -1,1 0,1 -1,1 1,1 0,0 1,1 0,1 1,1 1,1 1,1 0,1 1,1 1,1 3,0 1,1 0,4 1,-3 1,-1 2,0 1,1 6,0 1,1 9,0 1,-1 1,-1 0,-4 1,-1 1,-1 1,-1 3,0 1,1 1,1 0,2 1,1 1,-1 2,0 1,-1 4,0 1,-1 0,-1 -1,-1 -1,0 -1,1 0,0 -1,1 -2,0 -1,-1 0,-2 1,-1 0,-1 -1,1 -1,0 -1,1 -8,0 -1,1 -1,0 -1,1 -3,0 -1,-1 0,-3 1,-1 2,0 1,-1 1,0 0,-2 -1,-1 0,0 -1,-1 -1,-1 -1,-1 0,-1 -1,-1 -1,-1 -1,-1 -1,-1 -1,-1 -1,-1 -1,0 -1,1 -1,0 -1,1 -2,0 0,1 -1,1 -1,0 -1,1 0,3 -1,1 -2,0 -1,-1 -2,0 -1,1Z"/>
<path onmouseover="hoverPath(evt)" onmouseout="recoverPath(evt)" fill="rgb(252,252,250)" d="M  228,254l -1,0 0,1 6,0 0,-2 1,-1 1,0 1,-1 1,0 1,-1 1,0 1,-1 1,0 1,-1 1,0 1,-1 1,0 1,-1 1,0 1,-1 1,-1 1,0 1,-1 1,0 1,-1 2,0 0,-2 -2,0 -1,1 -4,0 -1,-1 -1,-1 0,5 -1,1 -1,1 -1,0 -1,1 -1,0 -1,1 -1,1 -1,0 -1,1 -1,0 -1,1 -1,0 -1,1 -1,0 -1,1 -2,0 -1,1 17,-15 1,-1 0,-3 -1,0 -1,-1 -1,0 -1,-1 -1,-1 0,-2 1,-1 -1,-1 0,0 -1,-1 0,-1 -1,-1 -2,0 -1,-1 -1,-1 0,-1 -1,-1 -1,-1 0,-1 -1,-1 -1,-1 0,-1 -1,-1 -1,-1 0,-1 -1,-1 -1,-1 0,-2 -1,0 -1,-1 -1,-1 0,-2 1,-1 -1,-1 0,0 -1,-1 0,-1 -2,0 -1,-1 -1,-1 0,-1 -1,-1 -1,-1 0,-2 1,-1 -2,0 -1,-1 -1,-1 0,-1 -1,-1 -1,-1 0,-2 1,-1 -2,0 -1,-1 -1,-1 0,-2 1,-1 -2,0 -1,-1 -1,-1 0,-1 -1,-1 -1,-1 0,-2 1,-1 -2,0 -1,-1 -1,-1 0,-1 -1,-1 -1,-1 0,-1 -1,-1 0,-2 1,-1 -2,0 -1,-1 -1,-1 0,-4 -2,0 -1,-1 0,-2 2,-2 1,0 1,-1 1,-1 2,0 1,1 1,-1 0,0 1,-1 1,0 0,-2 1,-1 1,-1 1,0 2,-2 1,0 1,-1 1,-1 1,0 1,-1 1,-1 2,0 1,1 0,-2 1,-1 1,-1 1,0 1,-1 1,-1 2,0 1,1 0,-2 1,-1 1,-1 1,0 1,-1 1,-1 2,0 1,1 0,-2 1,-1 1,-1 1,0 1,-1 1,-1 2,0 1,1 0,-2 1,-1 1,-1 1,0 1,-1 1,-1 1,0 1,-1 1,-1 2,0 1,1 0,-2 1,-1 2,0 0,-2 -1,0 -1,1 -1,0 -1,1 -1,1 -1,0 -1,1 -1,0 -1,1 -1,1 -1,0 -1,1 -1,1 -1,0 -1,1 -1,0 -1,1 -1,1 -1,0 -1,1 -1,1 -1,0 -1,1 -1,0 -1,1 -1,1 -1,0 -1,1 -1,1 -1,0 -1,1 -1,0 -1,1 -1,1 -1,0 -1,1 -1,1 -1,0 -1,1 -1,1 -1,0 -1,1 -1,0 -1,1 -2,0 -1,-1 -1,-1 -1,-1 0,-2 -1,0 -1,-1 -1,-1 -1,-1 3,4 0,1 2,2 1,1 0,2 -1,1 -1,0 -1,1 0,0 -1,1 -1,0 -1,1 -1,1 -1,0 -1,1 -1,0 -1,1 -1,1 -1,0 -1,1 -1,1 -1,0 -1,1 -1,0 -1,1 -1,1 -1,0 -1,1 -1,1 -1,0 -1,1 -1,0 -1,1 -1,1 -1,0 -1,1 -1,0 -1,1 -1,0 -1,1 -1,1 -1,0 -1,1 -1,1 -1,0 -1,1 -1,0 -1,1 -1,1 -1,0 -1,1 -1,0 -1,1 -1,0 -1,1 -1,1 -1,0 -1,1 -1,0 -1,1 -1,1 -1,0 -1,1 -1,1 -1,0 -1,1 -1,1 -1,0 -1,1 -1,1 -1,0 -1,1 -1,1 -1,0 -1,1 -1,1 -1,0 -1,1 -1,0 -1,1 -1,1 -1,0 -1,1 -1,0 0,1 2,0 1,-1 0,0 1,-1 1,0 1,-1 1,-1 1,0 1,-1 2,0 0,-1 1,-1 1,0 1,-1 1,-1 1,0 1,-1 1,-1 1,0 1,-1 1,-1 1,0 1,-1 1,-1 1,0 1,-1 1,0 1,-1 1,-1 1,0 1,-1 1,0 1,-1 1,-1 1,0 1,-1 1,0 1,-1 1,-1 1,0 1,-1 1,0 1,-1 1,0 1,-1 1,-1 1,0 1,-1 1,0 1,-1 1,-1 1,0 1,-1 1,0 1,-1 1,-1 1,0 1,-1 2,0 1,1 1,1 1,1 0,1 1,1 0,1 1,1 0,1 1,1 1,1 0,1 1,1 1,1 0,1 1,1 1,1 0,1 1,1 0,1 1,1 1,1 0,1 1,1 1,1 0,1 1,1 0,1 1,1 1,1 0,1 1,1 1,1 0,1 1,1 0,1 1,1 1,1 0,1 1,1 1,1 0,1 1,1 0,1 1,1 1,1 0,3 -1,1 3,0 1,1 1,1 0,1 1,1 1,1 0,1 1,1 1,1 0,1 1,1 1,1 0,1 1,1 1,1 0,1 1,1 1,1 0,1 1,1 1,1 0,2 1,0 1,1 0,2 1,0 1,1 1,1 0,1 1,1 1,1 0,1 1,1 1,1 0,1 1,1 -17,15Z"/>
<path onmouseover="hoverPath(evt)" onmouseout="recoverPath(evt)" fill="rgb(244,243,236)" d="M  0,223l 0,30 1,0 0,-1 1,-1 1,0 1,-1 1,-1 1,-1 1,-1 -2,0 -1,-1 0,-2 1,-1 1,-1 1,-1 1,0 1,-1 1,-1 3,0 1,1 1,0 0,-1 1,-1 1,-1 1,0 1,-1 1,0 1,-1 1,0 1,-1 1,0 1,-1 2,0 1,-1 2,0 1,-1 1,-1 1,-1 0,-1 3,-3 1,-1 1,-1 1,0 1,-1 1,0 1,-1 6,0 1,-1 1,0 1,-1 1,-1 2,0 0,-1 3,-3 1,0 3,-3 0,-1 1,-1 0,-2 1,-1 0,-2 1,-1 1,-1 1,-1 1,-1 2,0 1,-1 1,0 1,-1 1,-1 1,-1 1,-1 1,-1 1,-1 1,-1 1,0 1,-1 1,0 0,-1 1,-1 1,0 3,-3 1,0 -1,-1 0,0 -1,-1 0,-2 1,-1 2,0 1,1 4,0 1,-1 0,-1 1,-1 -1,-1 0,-4 -1,-1 0,-1 -1,-1 0,-1 -1,-1 -1,-1 0,-1 -1,-1 -1,-1 0,-1 -1,-1 -1,-1 0,-1 -1,-1 -1,-1 0,-1 -1,-1 -1,-1 -1,-1 0,-1 -1,-1 -1,-1 -1,-1 -1,-1 0,-1 -1,-1 -1,-1 -1,-1 0,-1 -1,-1 -1,-1 -1,-1 0,-1 -1,-1 -1,-1 -1,-1 -1,0 -1,1 -1,0 -1,1 -1,1 -1,1 -2,0 -1,-1 -1,0 -1,-1 -1,-1 1,2 0,4 -1,1 -1,0 -3,3 -1,0 -1,1 1,0 1,1 2,0 1,-1 3,0 1,1 1,1 0,1 1,1 1,1 0,4 -3,3 -4,0 -1,1 0,2 -1,1 -1,1 -1,1 -1,0 -1,1 -1,1 -1,1 -4,0 -1,-1 -1,-1 0,1 1,1 0,3 -1,1 -1,1 -1,1 -1,0 -1,1 -4,0 -1,-1 -1,-1 -1,-1 -3,-3 -1,-1 -1,-1 -1,-1 0,-1 -1,1 0,0 -1,1 -1,0 0,1 3,0 1,1 1,1 0,1 1,1 1,1 1,1 1,1 1,1 0,3 -1,1 -1,1 -1,0 -1,1 -1,1 -1,1 -1,0 -1,1 -1,1 -1,1 -1,0 -1,1 -1,1 -1,0 -1,1 -1,0 -1,1 -2,0 -1,-1 -1,0 1,1 0,3 -1,1 -1,1 -1,1 -1,1 -1,1 -1,0 -1,1 0,1 -1,1 -1,1 -2,0Z"/>
<path onmouseover="hoverPath(evt)" onmouseout="recoverPath(evt)" fill="rgb(172,198,235)" d="M  42,101l -1,-1 0,-2 -2,0 -1,-1 -3,0 -1,-1 0,-1 -1,-1 0,-1 -1,0 -1,-1 -1,-1 -1,1 -1,0 0,1 -1,1 1,1 0,0 1,1 0,1 1,0 1,1 2,0 1,1 0,3 1,1 0,2 4,0 1,1 1,0 1,1 0,1 1,0 1,1 1,1 1,1 1,1 1,1 1,1 1,1 1,1 1,1 1,1 1,1 1,1 1,1 0,1 1,1 1,1 1,1 1,1 1,1 1,1 1,1 1,1 0,1 1,1 1,1 0,2 -1,1 -1,1 -1,1 -1,0 -1,1 0,1 1,-1 3,-2 1,-1 3,0 1,1 1,1 1,1 1,1 0,1 1,1 1,1 1,1 0,1 1,1 1,1 1,1 0,1 1,1 1,1 1,1 1,1 0,1 1,1 1,1 1,1 0,1 1,1 1,1 0,1 1,1 1,1 0,1 1,1 1,1 0,1 1,1 1,1 0,1 1,1 0,1 1,1 0,4 1,1 0,2 -1,1 0,1 -1,1 -1,1 -6,0 -1,-1 5,2 2,0 1,-1 1,0 1,-1 3,0 1,1 1,0 1,1 0,1 1,1 1,1 1,1 1,1 1,1 1,1 1,1 0,1 1,1 1,1 1,1 1,1 1,1 1,1 0,1 1,1 1,1 1,1 1,1 1,1 1,1 0,1 1,1 1,1 0,1 1,1 1,1 1,1 0,1 1,1 1,1 0,1 1,1 1,1 1,1 0,1 1,1 1,1 1,1 0,1 1,1 1,1 1,1 1,1 1,1 1,1 1,1 1,1 1,1 1,1 1,1 1,1 1,1 1,1 0,1 1,1 1,1 0,4 1,1 0,2 1,1 0,1 1,1 0,2 5,0 0,-1 -1,-1 0,-3 -1,-1 0,-5 1,-1 0,-1 1,-1 -4,0 -1,-1 -1,-1 -1,-1 -1,-1 -2,-2 -1,-1 -1,-1 -1,-1 -1,-1 -1,-1 0,-1 -1,-1 -1,-1 -1,-1 -1,-1 0,-1 -1,-1 -1,-1 0,-1 -1,-1 -1,-1 -1,-1 -1,-1 -1,-1 0,-1 -1,-1 -1,-1 -1,-1 -1,-1 0,-1 -1,-1 -1,-1 -1,-1 -1,-1 0,-1 -1,-1 -1,-1 -1,-1 -1,-1 -1,-1 -1,-1 0,-1 -2,-2 -1,-1 -1,-1 -1,-1 -1,-1 -1,-1 0,-1 -1,-1 -1,-1 -1,-1 -1,-1 -1,-1 -1,-1 0,-3 1,-1 1,-1 1,0 0,-3 1,-1 2,0 1,1 1,0 1,-1 0,-1 1,-1 0,-2 1,-1 0,-2 -1,1 0,1 -1,2 -2,0 -1,-1 0,-4 -3,0 -1,-1 -1,-1 -1,-1 0,-1 -2,-2 -1,-1 0,-1 -1,-1 -1,-1 0,-1 -1,-1 -2,0 -1,1 -2,0 0,1 -1,1 -3,0 -1,-1 -1,-1 0,-1 -1,-1 -1,-1 0,-1 -1,-1 -1,-1 0,-2 -1,-1 -1,-1 -1,-1 0,-1 -1,-1 -2,0 -1,-1 -1,-1 0,-1 -1,-1 -1,-1 0,-5 1,-1 1,-1 0,-1 -1,0 -1,1 -1,1 -3,0 -1,-1 -1,0 -1,-1 -1,-1 -1,-1 -1,-1 -1,-1 0,-1 -1,-1 -1,-1 -1,-1 -1,-1 -1,-1 -1,-1 -1,-1 -1,-1 0,-1 -1,-1 -1,-1 -1,-1 -1,-1 -1,-1 0,-3 1,-1 1,0 1,-1 1,0 0,-1 -1,-1 0,0 -1,-1 0,-2 1,-1 1,-1 1,0 1,-1 1,-1 1,0 1,-1 1,0 1,-1 1,-1 1,0 1,-1 1,0 1,-1 0,-2 -1,1 -1,0 -1,1 -3,0 -1,-1 0,-3 -1,0 -1,-1 -3,0 -1,-1 -3,0 -1,-1 -2,0 -1,-1 0,-1 -1,-1 0,-2 -5,0 -1,1 0,3 1,1 0,1 1,0 1,1 0,1 1,1 1,0 1,1 0,1 1,0 1,1 0,1 1,1 5,0 1,1 0,2 -1,1 -1,0 -1,1 -1,0 -1,1 -1,0 -1,1 -6,0 118,140 1,0 0,-1 -1,1 -118,-140Z"/>
<path onmouseover="hoverPath(evt)" onmouseout="recoverPath(evt)" fill="rgb(173,200,237)" d="M  125,111l -1,0 0,1 1,1 0,0 1,1 0,4 1,1 1,1 1,1 1,1 0,1 1,1 1,1 1,1 2,0 1,1 2,0 1,-1 0,0 1,-1 1,0 1,-1 0,-3 1,-1 2,0 1,1 1,0 1,-1 1,0 1,-1 1,-1 1,0 1,-1 1,-1 0,-2 -1,-1 0,0 -3,-3 -1,-1 -1,-1 0,-1 -1,-1 -1,-1 -1,-1 -1,-1 -6,0 -1,1 -1,0 -1,1 -1,0 -1,1 0,1 -1,1 -1,1 -3,0 -1,1 -1,0 -1,1Z"/>
<path onmouseover="hoverPath(evt)" onmouseout="recoverPath(evt)" fill="rgb(172,199,238)" d="M  157,31l 0,0 -1,1 1,0 1,-1 0,-1 -1,0 -2,2 -1,0 -1,1 0,0 -1,1 -1,0 -1,1 -1,0 -1,1 -1,1 -1,0 -1,1 -1,1 -1,0 -1,1 -1,0 -1,1 -1,1 -1,0 -1,1 -2,0 -1,-1 0,-1 -1,-1 -1,-1 -4,0 -1,1 -1,0 -1,1 0,1 1,1 0,0 1,1 0,2 -1,1 -2,0 -1,-1 -1,-1 -2,0 -1,1 -1,1 0,1 1,1 0,0 1,1 0,3 -1,1 -1,1 -1,0 -1,1 -1,1 -1,1 -1,0 -1,1 -1,1 -1,1 -1,0 -3,3 -1,1 -1,0 -1,1 -1,1 -1,0 -1,1 -1,1 -1,0 -1,1 -1,1 -1,0 0,1 -1,1 0,1 1,0 1,-1 0,0 1,-1 1,0 1,-1 1,-1 5,0 1,1 0,-2 1,-1 2,0 1,1 1,1 0,1 1,0 -2,-3 0,-3 1,-1 3,-3 1,-1 1,-1 1,0 1,-1 3,0 0,-1 1,-1 1,-1 1,-1 1,-1 1,-1 1,-1 1,0 1,-1 1,0 1,-1 1,0 1,-1 1,-1 1,0 1,-1 1,0 1,-1 2,0 1,-1 3,0 0,-3 1,-1 1,0 1,-1 1,-1 1,0 1,-1 1,-1 1,0 1,-1 1,-1 1,-1 -1,0 -1,1 4,-3Z"/>
<path onmouseover="hoverPath(evt)" onmouseout="recoverPath(evt)" fill="rgb(174,200,237)" d="M  222,47l 0,0 1,-1 3,0 1,-1 1,0 1,-1 -3,0 -1,-1 0,-2 1,-1 1,0 1,-1 0,-1 -1,-1 0,-2 -1,-1 -1,-1 -1,-1 0,-1 -1,-1 -1,-1 -1,-1 0,-1 -1,-1 -1,-1 -1,-1 -1,1 -1,0 -1,1 -1,1 -1,1 -1,0 -2,2 -1,1 -1,1 -1,0 0,1 -1,1 -3,0 -1,1 -1,0 -1,1 -1,0 -1,1 0,1 -1,1 -1,1 -2,0 -1,1 -1,1 -1,1 -1,0 -1,1 -1,0 -1,1 -1,0 -1,1 1,1 0,0 1,1 1,1 0,1 1,1 1,1 1,1 1,1 1,1 0,1 1,0 1,-1 1,0 0,-2 1,-1 2,0 1,1 1,-1 2,0 1,-1 1,-1 1,0 1,-1 1,0 1,-1 1,0 1,-1 1,0 1,-1 1,-1 0,-1 1,-1 4,0 1,1 0,3 -1,1 -1,0 -1,1 0,1 1,-1 1,0 1,-1 1,0 1,-1Z"/>
<path onmouseover="hoverPath(evt)" onmouseout="recoverPath(evt)" fill="rgb(192,210,231)" d="M  234,23l 2,2 1,1 1,1 1,1 0,1 1,1 1,1 1,0 1,-1 3,0 1,-1 -1,-1 0,-2 1,-1 -1,-1 0,-1 -1,-1 -1,-1 -1,-1 -1,-1 -1,-1 -1,-1 -1,-1 0,-1 -1,-1 -1,-1 -1,-1 -2,0 -1,-1 -1,-1 0,-3 -1,-1 -1,-1 -1,-1 -1,1 -2,0 -1,-1 -1,-1 -1,-1 0,-2 -3,0 0,1 1,1 0,0 1,1 1,1 1,1 1,1 0,1 1,1 1,1 1,1 1,1 0,2 -1,1 1,0 1,1 0,3 1,1 1,1 1,1 1,1Z"/>
</svg>