<svg width="256" height="256" xmlns="http://www.w3.org/2000/svg"><script> 
var tempColor;
function hoverPath(evt){
obj = evt.target;
tempColor = obj.getAttribute("fill");
obj.setAttribute("fill","red");
//alert(tempColor);
//obj.setAttribute("stroke","red");}
function recoverPath(evt){
obj = evt.target;
obj.setAttribute("fill", tempColor);
//obj.setAttribute("stroke", tempColor);
}</script><path onmouseover="hoverPath(evt)" onmouseout="recoverPath(evt)" fill="rgb(171,198,238)" d="M  0,52l 0,9 5,0 1,1 2,0 4,4 1,1 1,1 0,1 1,1 0,2 1,1 0,26 -1,1 0,8 1,1 0,3 1,1 0,2 1,1 0,1 1,1 0,3 1,1 0,65 -1,1 0,3 -1,1 -1,1 1,0 1,1 0,3 1,1 0,12 1,1 0,10 1,1 0,2 1,1 1,0 1,1 1,0 1,-1 6,0 1,-1 6,0 1,-1 6,0 1,-1 5,0 1,-1 6,0 1,-1 6,0 1,-1 6,0 1,-1 2,0 0,-1 -3,0 -1,1 -6,0 -1,1 -5,0 -1,1 -6,0 -1,1 -5,0 -1,1 -6,0 -1,1 -6,0 -1,1 -8,0 -1,-1 0,-1 -1,-1 0,-4 -1,-1 0,-26 -1,-1 0,-63 1,-1 1,-1 4,0 1,1 3,0 1,1 5,0 1,1 4,0 1,-1 15,0 1,-1 17,0 1,-1 15,0 0,-4 -1,-1 0,-3 -1,-1 -1,1 -9,0 -1,1 -9,0 -1,1 -9,0 -1,1 -26,0 -1,-1 -1,0 -1,-1 -1,0 -1,-1 -1,-1 0,-1 -1,-1 -1,-1 0,-7 -1,-1 0,-14 1,-1 0,-6 1,-1 0,-7 -1,-1 0,-2 -1,-1 0,-2 -1,-1 0,-2 -1,-1 -1,-1 0,-1 -1,-1 -1,-1 -1,-1 -1,-1 -1,-1 -1,-1 -1,-1 -1,-1 -1,0 -1,-1 -2,0 -1,-1 -1,0 -1,-1 -2,0 -1,-1 -2,0 -1,1Z"/>
<path onmouseover="hoverPath(evt)" onmouseout="recoverPath(evt)" fill="rgb(244,243,237)" d="M  0,64l 0,127 16,0 1,-1 0,-3 1,-1 0,-63 -1,-1 0,-3 -1,-1 0,-1 -1,-1 0,-2 -1,-1 0,-3 -1,-1 0,-10 1,-1 0,-24 -1,-1 0,-2 -1,-1 0,-1 -1,-1 -1,-1 -1,-1 -1,-1 -1,-1 -2,0 -1,-1 -3,0 -1,1Z"/>
<path onmouseover="hoverPath(evt)" onmouseout="recoverPath(evt)" fill="rgb(244,243,236)" d="M  0,196l 0,59 50,0 0,-2 -1,-1 0,-3 -1,-1 0,-4 -1,-1 0,-5 -1,-1 0,-5 1,-1 0,-2 1,-1 4,0 1,-1 4,0 1,-1 4,0 0,-2 1,-1 3,0 0,-1 -4,0 -1,1 -6,0 -1,1 -5,0 -1,1 -6,0 -1,1 -6,0 -1,1 -6,0 -1,1 -3,0 -1,-1 -1,0 -1,-1 -1,-1 0,-2 -1,-1 0,-10 -1,-1 0,-12 -1,-1 0,-3 -16,0 -1,1Z"/>
<path onmouseover="hoverPath(evt)" onmouseout="recoverPath(evt)" fill="rgb(243,242,233)" d="M  49,232l 0,0 -1,1 0,3 1,1 0,5 1,1 0,4 1,1 0,3 1,1 0,3 30,0 0,-4 -1,-1 0,-9 -1,-1 0,-10 1,-1 0,-3 1,-1 1,-1 2,0 1,-1 -4,0 -1,-1 0,-6 -1,-1 0,1 -1,1 0,2 -1,1 -2,0 -1,1 -6,0 -1,1 0,2 -1,1 -3,0 0,2 -1,1 -4,0 -1,1 -4,0 -1,1 -4,0Z"/>
<path onmouseover="hoverPath(evt)" onmouseout="recoverPath(evt)" fill="rgb(244,243,235)" d="M  75,148l 0,9 -1,1 0,8 1,1 0,7 2,0 1,1 0,8 1,1 0,9 1,1 0,8 1,1 0,8 1,1 0,2 5,0 1,-1 6,0 1,-1 6,0 1,-1 6,0 1,-1 7,0 1,-1 8,0 0,-1 1,-1 0,-6 -1,-1 0,-20 -1,-1 0,-12 -1,-1 0,-7 -1,-1 0,-5 -1,-1 0,-21 -1,-1 0,-5 -1,-1 -3,0 -1,1 -18,0 -1,1 0,2 1,1 0,10 -1,1 0,2 -1,1 0,1 -1,1 -17,0 -1,1 -1,0Z"/>
<path onmouseover="hoverPath(evt)" onmouseout="recoverPath(evt)" fill="rgb(243,242,233)" d="M  84,226l 0,0 -1,1 0,3 -1,1 0,8 1,1 0,9 1,1 0,5 28,0 0,-2 -1,-1 0,-10 -1,-1 0,-1 -1,-1 -1,0 -1,-1 -1,-1 -2,0 -1,-1 0,-1 -1,-1 0,-8 -1,-1 0,-4 -3,0 -1,1 -5,0 0,2 -1,1 -4,0 -1,1Z"/>
<path onmouseover="hoverPath(evt)" onmouseout="recoverPath(evt)" fill="rgb(244,243,236)" d="M  136,192l 0,39 -1,1 0,23 16,0 0,-2 1,-1 0,-19 -1,-1 0,-5 -1,-1 0,-4 -1,-1 0,-3 -1,-1 0,-2 -1,-1 0,-1 -1,-1 0,-1 -1,-1 0,-2 -1,-1 0,-1 -1,-1 0,-1 -1,-1 0,-2 -1,-1 0,-1 -1,-1 0,-1 -1,-1 0,-1 -1,-1 0,-2 -1,-1 -1,1Z"/>
<path onmouseover="hoverPath(evt)" onmouseout="recoverPath(evt)" fill="rgb(245,245,237)" d="M  210,254l -3,0 0,1 4,0 -1,-1 5,1 40,0 0,-7 -2,0 -1,1 -7,0 -1,1 -7,0 -1,1 -6,0 -1,1 -7,0 -1,1 -5,0 -1,2 -5,-1Z"/>
<path onmouseover="hoverPath(evt)" onmouseout="recoverPath(evt)" fill="rgb(244,243,235)" d="M  0,1l 0,10 1,0 1,-1 2,0 1,-1 1,0 1,-1 2,0 1,-1 3,0 1,1 4,0 1,-1 3,0 1,1 0,1 23,0 1,1 0,11 1,0 1,-1 2,0 1,1 0,11 -1,1 0,8 2,0 1,1 0,11 -1,1 0,10 1,1 0,4 4,0 1,1 1,0 1,1 0,2 3,0 1,1 3,0 1,1 4,0 1,1 2,0 1,1 4,0 1,1 3,0 1,-1 3,0 1,1 1,0 1,1 0,2 -1,1 0,2 2,0 1,1 1,1 1,1 1,1 1,0 1,1 16,0 1,-1 2,0 0,-5 -1,-1 0,-9 -1,-1 0,-9 -1,-1 0,-9 -1,-1 0,-9 -1,-1 0,-9 -1,-1 0,-9 -1,-1 0,-8 -1,-1 0,-9 -1,-1 0,-3 -108,0 -1,1Z"/>
<path onmouseover="hoverPath(evt)" onmouseout="recoverPath(evt)" fill="rgb(244,243,236)" d="M  0,17l 0,32 4,0 1,1 2,0 1,1 1,0 1,1 2,0 1,1 1,0 1,1 1,1 1,1 1,1 1,1 1,1 1,1 1,1 1,1 0,1 1,1 1,1 0,2 1,1 0,2 1,1 0,2 1,1 0,9 -1,1 0,6 -1,1 0,12 1,1 0,7 1,1 1,1 0,1 1,1 1,0 1,1 1,0 1,1 24,0 1,-1 9,0 1,-1 9,0 1,-1 9,0 1,-1 2,0 1,1 1,1 0,3 1,1 0,22 1,-3 0,-24 1,-1 1,-1 14,0 1,-1 8,0 0,-8 -1,-1 0,-10 -3,0 -1,-1 -17,0 -1,-1 -1,0 -1,-1 -1,-1 -1,-1 -1,-1 -2,0 -1,-1 0,-3 -1,-1 0,-2 -1,0 -1,1 -5,0 -1,-1 -4,0 -1,-1 -2,0 -1,-1 -4,0 -1,-1 -3,0 -1,-1 -3,0 -1,-1 0,-2 -1,0 -1,-1 -4,0 -1,-1 0,-4 -1,-1 0,-12 1,-1 0,-9 -2,0 -1,-1 0,-10 1,-1 0,-9 -1,1 -3,0 -1,-1 0,-11 -23,0 -1,-1 0,-1 -1,0 -1,1 -6,0 -1,-1 -1,0 -1,1 -2,0 -1,1 -1,0 -1,1 -2,0 -1,1 -2,0Z"/>
<path onmouseover="hoverPath(evt)" onmouseout="recoverPath(evt)" fill="rgb(244,243,236)" d="M  23,127l 0,61 1,1 0,26 1,1 0,4 1,1 0,1 6,0 1,-1 6,0 1,-1 6,0 1,-1 5,0 1,-1 6,0 1,-1 5,0 1,-1 6,0 1,-1 5,0 0,-3 1,-1 0,-7 -1,-1 0,-8 -1,-1 0,-9 -1,-1 0,-8 -2,0 -1,-1 0,-7 -1,-1 0,-10 1,-1 0,-11 1,-1 1,0 1,-1 17,0 -1,-1 0,-16 -14,0 -1,1 -17,0 -1,1 -15,0 -1,1 -6,0 -1,-1 -5,0 -1,-1 -3,0 -1,-1 -2,0 -1,1Z"/>
<path onmouseover="hoverPath(evt)" onmouseout="recoverPath(evt)" fill="rgb(171,198,238)" d="M  98,114l 0,0 -1,1 0,8 17,0 1,-1 5,0 1,1 1,1 0,5 1,1 0,21 1,1 0,5 1,1 0,7 1,1 0,12 1,1 0,20 1,1 0,8 -1,1 0,1 -1,1 0,0 1,1 1,1 0,14 1,1 0,27 4,0 0,-24 1,-1 0,-40 1,-1 3,0 1,1 1,1 0,2 1,1 0,1 1,1 0,1 1,1 0,1 1,1 0,2 1,1 0,1 1,1 0,1 1,1 0,2 1,1 0,1 1,1 0,1 1,1 0,2 1,1 0,3 1,1 0,4 1,1 0,5 1,1 0,21 -1,1 0,1 12,0 0,-8 -1,-1 0,-13 -1,-1 0,-6 -1,-1 0,-3 -1,-1 0,-3 -1,-1 0,-3 -1,-1 0,-1 -1,-1 0,-2 -1,-1 0,-1 -1,-1 0,-2 -1,-1 0,-1 -1,-1 0,-2 -1,-1 0,-1 -1,-1 0,-2 -1,-1 0,-1 -1,-1 0,-2 -1,-1 0,-1 -1,-1 0,-2 -1,-1 0,-1 -1,-1 0,-1 -1,-1 0,-2 -1,-1 0,-2 -1,-1 0,-1 -1,-1 0,-2 -1,-1 0,-3 -1,-1 0,-1 -1,-1 0,-5 -1,-1 0,-3 -1,-1 0,-5 -1,-1 0,-8 1,-1 0,-3 1,-1 0,-1 1,-1 1,-1 1,-1 1,-1 1,0 1,-1 14,0 1,-1 15,0 1,-1 7,0 1,-1 3,0 1,-1 2,0 1,-1 1,0 1,-1 1,0 1,-1 1,0 1,-1 1,0 1,-1 1,-1 1,0 1,-1 1,-1 1,0 1,-1 1,-1 1,-1 1,-1 1,-1 1,-1 1,-1 1,-1 2,-2 1,-1 1,-1 1,-1 1,0 1,-1 1,-1 1,-1 1,-1 1,0 1,-1 1,-1 1,-1 1,-1 1,-1 1,0 1,-1 1,-1 1,-1 1,-1 1,-1 1,-1 1,0 1,-1 1,-1 1,-1 1,0 1,-1 1,-1 1,-1 1,-1 1,0 2,-2 1,0 2,-2 1,0 2,-2 1,-1 2,0 0,-8 -1,0 -1,1 -1,0 -1,1 -1,1 -1,1 -1,0 -2,2 -1,1 -1,0 -1,1 -2,2 -1,0 -2,2 -1,1 -1,0 -1,1 -1,1 -1,1 -1,0 -1,1 -1,1 -1,1 -1,1 -1,0 -1,1 -1,1 -1,1 -1,0 -1,1 -1,1 -1,1 -1,0 -1,1 -1,1 -1,1 -1,0 -1,1 -1,1 -1,1 -1,0 -1,1 -1,1 -2,2 -1,1 -1,1 -1,1 -1,1 -1,1 -1,0 -1,1 -1,1 -1,1 -1,1 -1,0 -1,1 -1,0 -1,1 -3,0 -1,-1 0,-26 1,-1 0,-56 1,-1 1,-1 -1,0 -1,-1 0,-2 1,-1 0,-22 -3,0 0,26 -1,1 -2,0 3,1 0,3 -1,1 0,80 -1,1 0,2 -1,1 -3,0 -1,1 -4,0 -1,1 -4,0 -1,1 -27,0 -1,-1 -2,0 -1,-1 -1,-1 -1,0 -1,-1 -1,-1 0,-1 -1,-1 0,-6 -1,-1 0,-7 -1,-1 0,-5 -8,0 -1,1 -3,0 0,8 1,1 0,10 -1,1 -8,0 -1,1 -14,0 25,97 -5,0 -1,1 -7,0 -1,1 -6,0 -1,1 -6,0 -1,1 -6,0 -1,1 -5,0 0,1 6,0 1,-1 5,0 1,-1 6,0 1,-1 6,0 1,-1 5,0 -26,3 29,-4 4,0 1,-1 -25,-97Z"/>
<path onmouseover="hoverPath(evt)" onmouseout="recoverPath(evt)" fill="rgb(243,242,234)" d="M  103,217l -6,0 -1,1 -5,0 -1,1 -7,0 0,2 7,0 1,-1 5,0 1,-1 5,0 1,1 0,4 1,1 0,8 1,1 0,1 2,0 1,1 1,1 1,0 1,1 1,1 0,1 1,1 0,10 1,1 0,3 13,0 0,-26 -1,-1 0,-14 -1,-1 -1,0 -1,1 -6,0 -1,1 -5,0 -1,1 -6,0 -1,1Z"/>
<path onmouseover="hoverPath(evt)" onmouseout="recoverPath(evt)" fill="rgb(171,198,238)" d="M  111,1l 0,1 1,1 0,9 1,1 0,8 1,1 0,9 1,1 0,9 1,1 0,9 1,1 0,9 1,1 0,9 1,1 0,9 1,1 0,5 8,0 1,-1 3,0 0,-5 -1,-1 0,-7 -1,-1 0,-10 -1,-1 0,-9 -1,-1 0,-10 -1,-1 0,-9 -1,-1 0,-9 -1,-1 0,-10 -1,-1 0,-9 -12,0 -1,1Z"/>
<path onmouseover="hoverPath(evt)" onmouseout="recoverPath(evt)" fill="rgb(244,243,236)" d="M  126,1l 0,7 1,1 0,10 1,1 0,9 1,1 0,9 1,1 0,10 1,1 0,9 1,1 0,10 1,1 0,7 1,1 0,7 -1,1 -3,0 -1,1 -9,0 -1,1 1,0 1,1 2,0 1,-1 9,0 1,-1 3,0 1,-1 7,0 0,-2 1,-1 8,0 1,-1 0,-5 -1,-1 0,-6 -1,-1 0,-6 -1,-1 0,-7 -1,-1 0,-10 1,-1 0,-7 -1,-1 0,-4 1,-1 1,-1 1,0 1,-1 10,0 1,-1 9,0 1,-1 7,0 0,-2 1,-1 2,0 0,-25 -59,0 -1,1Z"/>
<path onmouseover="hoverPath(evt)" onmouseout="recoverPath(evt)" fill="rgb(244,243,235)" d="M  135,93l 0,3 1,1 0,7 1,1 0,6 1,1 0,1 1,1 1,0 1,1 1,1 2,0 1,1 25,0 1,-1 4,0 1,-1 4,0 1,-1 3,0 0,-2 1,-1 0,-80 1,-1 0,-1 -1,0 -1,1 -7,0 -1,1 -9,0 -1,1 -10,0 -1,1 -1,0 -1,1 0,2 1,1 0,9 -1,1 0,8 1,1 0,7 1,1 0,6 1,1 0,6 1,1 0,7 -1,1 -1,1 -8,0 0,2 -1,1 -7,0 -1,1 -3,0Z"/>
<path onmouseover="hoverPath(evt)" onmouseout="recoverPath(evt)" fill="rgb(244,243,236)" d="M  142,131l 0,0 -1,1 -1,1 0,1 -1,1 0,3 -1,1 0,6 1,1 0,5 1,1 0,3 1,1 0,5 1,1 0,1 1,1 0,3 1,1 0,2 1,1 0,1 1,1 0,2 1,1 0,2 1,1 0,1 1,1 0,1 1,1 0,2 1,1 0,1 1,1 0,2 1,1 0,1 1,1 0,2 1,1 0,1 1,1 0,2 1,1 0,1 1,1 0,2 1,1 0,1 1,1 0,2 1,1 0,1 1,1 0,3 1,1 0,3 1,1 0,3 1,1 0,6 1,1 0,13 1,1 0,9 38,0 0,-2 1,-1 7,0 1,-1 6,0 1,-1 7,0 1,-1 6,0 1,-1 7,0 1,-1 7,0 1,-1 3,0 0,-171 -1,0 -1,1 0,0 -1,1 -1,1 -1,0 -1,1 -1,1 -1,0 -1,1 -1,1 -1,0 -1,1 -1,1 -1,1 -1,1 -1,0 -1,1 -1,1 -1,1 -1,0 -1,1 -1,1 -4,4 -1,0 -1,1 -1,1 -1,1 -1,1 -1,1 -1,0 -1,1 -1,1 -1,1 -1,1 -1,0 -1,1 -1,1 -1,1 -1,1 -1,1 -1,1 -1,1 -1,1 -1,1 -1,1 -1,1 -1,1 -1,1 -1,0 -1,1 -1,1 -1,0 -1,1 -1,1 -1,0 -1,1 -1,0 -1,1 -1,0 -1,1 -1,0 -1,1 -2,0 -1,1 -3,0 -1,1 -7,0 -1,1 -15,0 -1,1 -14,0 -1,1 -1,0 -1,1Z"/>
<path onmouseover="hoverPath(evt)" onmouseout="recoverPath(evt)" fill="rgb(244,243,236)" d="M  192,31l 0,54 -1,1 0,24 1,0 1,-1 1,0 1,-1 1,0 1,-1 2,-2 1,-1 1,0 1,-1 1,-1 2,-2 1,-1 2,-2 1,-1 1,-1 1,0 1,-1 2,-2 1,0 2,-2 1,-1 1,0 1,-1 1,-1 1,-1 1,0 1,-1 2,-2 1,0 1,-1 1,-1 1,-1 1,-1 1,0 1,-1 1,-1 1,-1 1,0 1,-1 1,-1 1,-1 1,0 1,-1 1,-1 1,-1 1,0 1,-1 1,-1 1,-1 1,0 1,-1 2,-2 1,0 1,-1 2,0 0,-48 -4,0 -1,1 -4,0 -1,1 -5,0 -1,-1 -2,0 -1,1 -4,0 -1,1 -3,0 -1,1 -3,0 -1,1 -4,0 -1,1 -3,0 -1,1 -3,0 0,2 -1,1 -4,0 -1,-1 -3,0 -1,1 -3,0 0,2 -1,1 -4,0 -1,1Z"/>
<path onmouseover="hoverPath(evt)" onmouseout="recoverPath(evt)" fill="rgb(244,242,235)" d="M  193,1l 0,22 -1,1 4,0 1,-1 3,0 1,-1 5,0 1,1 2,0 0,-2 1,-1 3,0 1,-1 3,0 1,-1 4,0 1,-1 3,0 1,-1 3,0 1,-1 4,0 1,-1 4,0 1,1 3,0 1,-1 4,0 1,-1 5,0 0,-13 -61,0 -1,1Z"/>
</svg>