<svg width="256" height="256" xmlns="http://www.w3.org/2000/svg"><script> 
var tempColor;
function hoverPath(evt){
obj = evt.target;
tempColor = obj.getAttribute("fill");
obj.setAttribute("fill","red");
//alert(tempColor);
//obj.setAttribute("stroke","red");}
function recoverPath(evt){
obj = evt.target;
obj.setAttribute("fill", tempColor);
//obj.setAttribute("stroke", tempColor);
}</script><path onmouseover="hoverPath(evt)" onmouseout="recoverPath(evt)" fill="rgb(242,241,234)" d="M  0,40l 0,75 1,0 1,1 8,0 1,-1 4,0 1,-1 2,0 0,-1 1,-1 1,0 1,-1 1,0 1,-1 0,-3 1,-1 3,0 1,-1 1,0 0,-2 1,-1 0,-2 1,-1 3,0 1,-1 0,-1 1,-1 1,-1 3,0 0,-1 1,-1 1,-1 1,0 1,-1 1,-1 16,0 1,1 1,0 1,1 2,0 0,-5 -1,-1 0,-4 -1,-1 0,-2 -1,-1 0,-1 -1,-1 0,-2 -1,-1 0,-2 -1,-1 0,-2 -1,-1 0,-1 -1,-1 0,-2 -1,-1 0,-1 -1,-1 0,-2 -1,-1 0,-1 -1,-1 0,-1 -1,-1 0,-4 -1,-1 0,-5 -1,-1 0,-7 -32,0 -1,1 -8,0 -1,1 -5,0 -1,1 -3,0Z"/>
<path onmouseover="hoverPath(evt)" onmouseout="recoverPath(evt)" fill="rgb(181,149,237)" d="M  0,172l 0,9 4,0 1,1 0,8 1,-8 1,0 1,-1 1,0 1,-1 6,0 1,-1 2,0 1,1 0,-1 1,-1 2,0 1,1 2,0 1,-1 11,0 1,-1 4,0 1,1 1,-1 1,-1 2,0 1,1 4,0 1,-1 4,0 1,1 1,-1 9,0 1,-1 4,0 1,1 1,0 1,-1 10,0 1,-1 4,0 1,1 3,0 0,-2 1,-1 21,0 1,1 0,1 1,-1 2,0 1,1 1,1 0,1 1,0 0,-1 1,-1 6,0 1,-1 4,0 1,-1 4,0 1,1 11,0 1,-1 8,0 1,1 3,0 1,-1 4,0 1,-1 2,0 1,1 6,0 1,1 7,0 1,-1 14,0 1,1 1,1 1,1 0,1 1,1 0,1 1,1 1,1 1,1 0,1 1,1 1,1 0,1 1,1 0,2 1,1 0,6 -1,1 0,11 1,1 0,3 1,1 0,2 2,0 1,-1 0,0 -1,-1 0,-1 -1,-1 0,-16 1,-1 0,-4 -1,-1 0,-3 -1,-1 0,-1 -1,-1 0,-1 -1,-1 0,-2 -1,0 -1,-1 0,-3 1,-1 0,-1 1,-1 2,0 1,1 5,0 1,1 3,0 1,1 2,0 1,-1 6,0 1,1 8,0 1,-1 3,0 1,1 2,0 1,1 1,0 0,-12 -4,0 -1,-1 -7,0 -1,1 -3,0 -1,-1 -5,0 -1,-1 -3,0 -1,1 -7,0 -1,1 -4,0 -1,-1 0,-1 -1,-1 0,-5 -1,-1 -1,-1 -1,0 -1,-1 -1,-1 -1,-1 -1,-1 0,-1 -1,-1 0,-2 -1,-1 0,-2 1,-1 0,-2 1,-1 1,-1 1,-1 1,-1 0,-1 1,-1 0,-2 1,-1 0,-2 1,-1 0,-5 -1,-1 0,-1 -1,0 -1,-1 -1,0 -1,-1 0,-1 -3,0 -1,-1 0,-1 -1,0 -1,1 -2,0 1,1 2,0 1,1 1,0 1,1 1,1 1,0 1,1 0,1 1,1 0,5 -1,1 0,1 -1,1 0,2 -1,1 -1,1 -1,1 0,1 -1,1 -1,1 0,1 -1,1 0,3 1,1 0,4 1,1 0,1 1,1 0,1 1,1 1,1 1,1 1,0 1,1 1,1 0,2 -1,1 -6,0 -1,1 -9,0 -1,-1 -6,0 -1,-1 -7,0 -1,1 -8,0 -1,-1 -4,0 -1,1 -5,0 -1,1 -5,0 -1,-1 -13,0 -1,1 -10,0 -1,-1 -6,0 -1,1 -2,0 -1,1 -5,0 -1,-1 -11,0 -1,1 -6,0 -1,-1 -1,1 -5,0 0,1 -1,1 -6,0 -1,-1 0,-1 -1,0 -1,1 -3,0 -1,-1 -1,1 -2,0 -1,1 -2,0 -1,-1 -4,0 -1,1 -3,0 -1,-1 -1,1 -1,1 -2,0 -1,-1 -3,0 -1,1 -3,0 -1,-1 -1,1 -7,0 -1,1 -6,0 0,1 -1,1 -4,0 -1,-1 -3,0 -1,1 -1,0 -1,1 -4,0 -1,-1 -11,0Z"/>
<path onmouseover="hoverPath(evt)" onmouseout="recoverPath(evt)" fill="rgb(240,239,231)" d="M  96,48l 0,-4 -1,-1 0,-4 -1,-1 0,-4 -1,-1 0,-2 -1,-1 0,-4 -1,-1 0,-3 -1,-1 0,-4 -5,0 -1,1 -4,0 -1,1 -3,0 -1,1 -1,1 0,1 -1,1 0,1 -1,1 0,1 -1,1 0,1 -1,1 19,0 1,1 0,3 -1,1 -4,0 -1,1 -1,0 -1,1 0,3 -1,1 -2,0 -1,-1 0,-4 -1,0 -1,-1 -1,1 -11,0 0,13 1,1 0,1 1,1 0,3 1,1 1,1 0,1 1,1 0,1 1,1 0,1 1,1 0,1 1,1 0,1 1,0 1,1 0,2 1,1 0,2 1,1 0,2 1,1 0,1 1,1 0,2 1,1 0,2 1,1 0,1 1,1 0,2 1,1 0,2 1,1 0,5 1,1 0,4 1,1 1,-1 4,0 1,-1 5,0 1,-1 10,0 0,-4 -1,-1 0,-3 -1,-1 0,-4 -1,-1 0,-4 -1,-1 0,-4 -1,-1 0,-3 -1,-1 0,-3 -1,-1 0,-4 -1,-1 0,-4 -1,-1 0,-3 -1,-1 0,-4 -1,-1Z"/>
<path onmouseover="hoverPath(evt)" onmouseout="recoverPath(evt)" fill="rgb(244,243,236)" d="M  109,28l -2,0 -1,1 -2,0 -1,-1 0,-1 -1,-1 0,-10 1,-1 -3,0 0,5 1,1 0,4 8,3 -4,2 0,3 -1,1 0,3 1,1 0,5 1,1 0,3 1,1 0,4 1,1 0,3 1,1 0,4 1,1 0,4 1,1 0,3 1,1 0,3 1,1 0,4 1,1 0,4 1,1 0,4 1,1 0,2 1,1 0,4 1,-1 5,0 1,-1 5,0 1,-1 6,0 1,-1 7,0 1,-1 4,0 1,-1 4,0 1,-1 3,0 1,-1 3,0 1,-1 3,0 1,-1 2,0 1,-1 2,0 1,-1 2,0 1,-1 2,0 1,-1 2,0 1,-1 2,0 1,-1 1,0 1,-1 0,-2 -1,-1 0,-1 -1,-1 0,-1 -1,-1 0,-4 1,-1 0,-1 1,-1 0,-1 1,-1 0,-2 1,-1 0,-1 1,-1 0,-4 -1,-1 0,-2 -1,-1 -1,-1 -1,-1 -1,-1 -1,-1 -1,-1 0,-1 -1,-1 0,-1 -1,-1 0,-6 -1,-1 0,-9 -2,-2 0,-1 -1,-1 -1,-1 0,-5 -4,0 -1,-1 -3,0 -1,1 -4,0 0,2 -1,1 -5,0 -1,-1 -3,0 -1,1 -4,0 0,2 -1,1 -5,0 -1,-1 -3,0 0,2 -1,1 -3,0 -1,1 -3,0 -1,1 -5,0 -1,-1 -3,0 -1,1 -3,0 -1,1 -2,0 -1,1 -1,0 -5,2 4,-2Z"/>
<path onmouseover="hoverPath(evt)" onmouseout="recoverPath(evt)" fill="rgb(245,244,237)" d="M  115,176l 0,3 1,1 0,15 -1,1 0,11 1,1 0,28 1,1 0,11 -1,1 0,3 -1,1 0,2 22,0 0,-1 -1,-1 0,-5 -1,-1 0,-5 -1,-1 0,-4 -1,-1 0,-4 -1,-1 0,-4 -1,-1 0,-5 -1,-1 0,-5 -1,-1 0,-4 -1,-1 0,-4 -1,-1 0,-4 -1,-1 0,-5 -1,-1 0,-3 -1,-1 0,-5 -1,-1 0,-5 -1,-1 0,-1 -1,-1 -1,1Z"/>
<path onmouseover="hoverPath(evt)" onmouseout="recoverPath(evt)" fill="rgb(244,243,236)" d="M  133,176l -1,0 0,1 1,1 0,3 1,1 0,4 1,1 0,5 1,1 0,5 1,1 0,4 1,1 0,4 1,1 0,4 1,1 0,4 1,1 0,3 1,1 0,1 6,0 1,-1 8,0 1,1 5,0 0,-2 1,-1 8,0 1,1 8,0 0,-2 1,-1 9,0 1,-1 7,0 1,-1 7,0 1,-1 4,0 1,-1 2,0 0,-2 -1,-1 0,-3 -1,-1 0,-13 1,-1 0,-4 -1,-1 0,-2 -1,-1 0,-1 -1,-1 -1,-1 0,-1 -1,-1 -1,-1 -1,-1 0,-1 -1,-1 0,-1 -1,-1 -1,-1 -12,0 -1,1 -9,0 -1,-1 -6,0 -1,-1 -1,1 -4,0 -1,1 -5,0 -1,-1 -6,0 -1,1 -13,0 -1,-1 -2,0 -1,1 -4,0 -1,1Z"/>
<path onmouseover="hoverPath(evt)" onmouseout="recoverPath(evt)" fill="rgb(244,243,236)" d="M  181,16l 0,1 1,1 0,1 1,1 0,1 1,1 0,1 1,1 0,3 1,1 0,11 1,1 0,1 1,1 1,1 1,0 2,2 1,1 1,1 1,1 0,3 1,1 0,10 -1,1 0,1 -1,1 0,1 -1,1 0,1 -1,1 1,1 0,1 1,1 0,1 1,1 0,1 1,1 0,1 3,0 1,-1 3,0 1,-1 3,0 1,-1 5,0 1,-1 4,0 1,-1 3,0 1,-1 4,0 1,-1 3,0 1,-1 3,0 1,-1 3,0 1,-1 4,0 1,-1 4,0 1,-1 5,0 0,-65 -73,0 0,7 -1,1 0,1 -1,1 4,0 1,1 0,2 -1,1 -2,0 -1,1Z"/>
<path onmouseover="hoverPath(evt)" onmouseout="recoverPath(evt)" fill="rgb(244,243,237)" d="M  0,1l 0,19 1,0 1,-1 8,0 1,1 6,0 1,-1 1,0 1,-1 1,0 1,-1 3,0 1,-1 1,-1 3,0 1,-1 1,0 1,-1 2,0 0,-1 1,-1 2,0 1,-1 1,0 1,-1 3,0 1,1 3,0 1,1 1,0 1,1 1,0 1,1 2,0 1,1 1,0 1,1 1,0 0,-1 1,-1 0,-1 -1,-1 0,-3 -1,-1 0,-2 -1,-1 0,-2 -1,-1 0,-1 -55,0 -1,1Z"/>
<path onmouseover="hoverPath(evt)" onmouseout="recoverPath(evt)" fill="rgb(234,236,232)" d="M  0,25l 0,7 7,0 1,-1 6,0 1,-1 39,0 0,-3 1,-1 0,-2 1,-1 0,-1 -1,-1 0,-1 -1,-1 -1,-1 -1,0 -1,-1 0,-3 -1,0 -1,-1 -1,0 -1,-1 -3,0 -1,-1 -1,0 -1,1 -1,0 -1,1 -2,0 0,1 -1,1 -2,0 -1,1 -1,0 -1,1 -3,0 -1,1 -1,1 -3,0 -1,1 -1,0 -1,1 -1,0 -1,1 -8,0 -1,-1 -6,0 -1,1 -2,0Z"/>
<path onmouseover="hoverPath(evt)" onmouseout="recoverPath(evt)" fill="rgb(171,197,234)" d="M  42,96l 0,0 -1,1 -3,0 -1,1 0,1 -1,1 -1,1 -3,0 0,2 -1,1 0,2 -1,1 -1,0 -1,1 -3,0 0,3 -1,1 -1,1 -1,0 -1,1 -1,0 0,1 -1,1 -2,0 -1,1 -4,0 -1,1 -10,0 -1,-1 0,7 3,0 1,1 5,0 1,-1 4,0 0,-1 1,-1 2,0 1,-1 1,0 1,-1 1,-1 2,0 1,-1 2,0 1,-1 1,-1 1,0 1,-1 0,-2 1,-1 1,0 0,-1 1,-1 2,0 0,-1 1,-1 1,-1 1,-1 2,0 1,-1 0,-1 1,-1 1,0 1,-1 1,0 1,-1 1,0 2,-2 1,0 1,-1 1,0 1,-1 3,0 1,1 2,0 1,1 1,0 1,1 1,1 1,1 1,1 0,4 -1,1 -1,1 0,1 -1,1 0,1 -1,1 0,1 -1,1 0,3 -1,1 0,4 1,1 0,3 1,1 0,2 1,1 0,1 1,1 0,1 1,1 0,2 1,1 0,1 1,1 0,2 1,1 0,2 1,1 0,1 1,1 0,1 1,1 0,1 1,1 1,1 0,1 1,1 1,1 1,1 0,1 1,1 1,1 0,1 2,0 1,1 0,1 4,0 0,-1 1,-1 3,0 0,-1 -1,-1 0,-1 -1,-1 -1,-1 0,-1 -1,-1 -1,-1 0,-1 -1,-1 0,-1 -1,-1 -1,-1 0,-1 -1,-1 0,-1 -1,-1 -1,-1 0,-1 -1,-1 0,-2 -1,-1 0,-1 -1,-1 0,-3 -1,-1 0,-4 -1,-1 0,-4 1,-1 0,-4 1,-1 0,-1 1,-1 1,-1 1,0 1,-1 1,-1 1,0 1,-1 2,0 1,-1 1,0 1,-1 1,0 1,-1 1,0 1,-1 2,0 1,-1 3,0 1,-1 5,0 1,-1 4,0 1,-1 2,0 0,-1 -1,-1 -11,0 -1,1 -5,0 -1,1 -4,0 -1,1 -2,0 -1,-1 -1,-1 0,-4 -1,-1 0,-5 -1,-1 0,-2 -1,-1 0,-2 -1,-1 0,-1 -1,-1 0,-2 -1,-1 0,-2 -1,-1 0,-1 -1,-1 0,-2 -1,-1 0,-2 -1,-1 0,-2 -1,0 -1,-1 0,-1 -1,-1 0,-1 -1,-1 0,-1 -1,-1 0,-1 -1,-1 0,-1 -1,-1 -1,-1 0,-3 -1,-1 0,-1 -1,-1 0,-14 -9,0 0,6 1,1 0,5 1,1 0,4 1,1 0,1 1,1 0,1 1,1 0,2 1,1 0,1 1,1 0,2 1,1 0,1 1,1 0,2 1,1 0,2 1,1 0,2 1,1 0,1 1,1 0,2 1,1 0,4 1,1 0,7 -1,1 -4,0 -1,-1 -1,0 -1,-1 -14,0 -1,1 -1,1 -1,0 -1,1Z"/>
<path onmouseover="hoverPath(evt)" onmouseout="recoverPath(evt)" fill="rgb(245,244,237)" d="M  71,1l 0,1 1,1 0,1 1,1 0,2 1,1 0,3 1,1 1,1 3,0 1,-1 4,0 1,-1 3,0 0,-3 -1,-1 0,-3 -1,-1 0,-3 -14,0 -1,1Z"/>
<path onmouseover="hoverPath(evt)" onmouseout="recoverPath(evt)" fill="rgb(244,243,236)" d="M  76,117l 0,1 -1,1 0,4 -1,1 0,2 1,1 0,4 1,1 0,3 1,1 0,1 1,1 0,2 1,1 0,1 1,1 1,1 0,1 1,1 0,1 1,1 1,1 0,1 1,1 0,1 1,1 1,1 0,1 1,1 1,1 0,1 1,1 0,2 1,-1 2,0 1,1 4,0 1,-1 13,0 1,1 3,0 1,-1 2,0 0,-2 -1,-1 0,-6 -1,-1 0,-4 -1,-1 0,-4 -1,-1 0,-4 -1,-1 0,-4 -1,-1 0,-4 -1,-1 0,-4 -1,-1 0,-5 -1,-1 0,-4 -1,-1 0,-4 -1,1 -4,0 -1,1 -5,0 -1,1 -3,0 -1,1 -2,0 -1,1 -1,0 -1,1 -1,0 -1,1 -1,0 -1,1 -2,0 -1,1 -1,0 -1,1 -1,1 -1,0 -1,1Z"/>
<path onmouseover="hoverPath(evt)" onmouseout="recoverPath(evt)" fill="rgb(245,244,237)" d="M  96,1l 0,1 1,1 0,3 1,1 0,2 3,0 1,-1 4,0 1,-1 3,0 1,-1 2,0 1,-1 1,0 0,-1 1,-1 1,0 1,-1 3,0 1,1 1,0 1,1 2,0 1,-1 5,0 1,-1 5,0 1,-1 5,0 0,-1 -47,0 -1,1Z"/>
<path onmouseover="hoverPath(evt)" onmouseout="recoverPath(evt)" fill="rgb(169,195,237)" d="M  102,177l 0,1 1,1 1,1 0,2 1,1 0,17 1,1 0,15 1,1 0,8 -1,1 0,3 -1,1 0,18 -1,1 0,3 -1,1 0,2 10,0 0,-3 1,-1 0,-3 1,-1 0,-9 -1,-1 0,-28 -1,-1 0,-13 1,-1 0,-13 -1,-1 0,-5 1,-1 -16,0 0,1 4,0Z"/>
<path onmouseover="hoverPath(evt)" onmouseout="recoverPath(evt)" fill="rgb(244,243,235)" d="M  119,105l 0,3 1,1 0,4 1,1 0,5 1,1 0,3 4,0 1,-1 5,0 1,-1 8,0 1,1 7,0 0,-2 1,-1 8,0 1,1 6,0 0,-2 1,-1 7,0 1,-1 7,0 1,-1 5,0 1,-1 3,0 1,-1 2,0 1,-1 1,0 -1,-1 0,-2 -1,-1 0,-3 -1,-1 0,-13 -1,-1 -5,0 -1,1 -4,0 -1,1 -2,0 -1,1 -3,0 -1,1 -3,0 -1,1 -3,0 -1,1 -3,0 -1,1 -4,0 -1,1 -2,0 -1,1 -3,0 -1,1 -5,0 -1,1 -7,0 -1,1 -7,0 -1,1 -6,0 -1,1 -1,0 -1,1Z"/>
<path onmouseover="hoverPath(evt)" onmouseout="recoverPath(evt)" fill="rgb(244,243,236)" d="M  124,128l -1,0 0,1 1,1 0,4 1,1 0,5 1,1 0,3 1,1 0,3 1,1 0,4 1,1 0,6 8,0 1,-1 15,0 1,1 3,0 1,-1 5,0 1,-1 6,0 1,1 6,0 1,-1 9,0 1,1 6,0 1,1 7,0 1,-1 6,0 -1,-1 -1,0 -1,-1 -1,-1 -1,-1 -1,-1 0,-1 -1,-1 0,-1 -1,-1 0,-4 -1,-1 0,-5 1,-1 0,-1 1,-1 1,-1 0,-1 1,-1 1,-1 1,-1 0,-2 1,-1 0,-1 1,-1 0,-3 -1,-1 0,-1 -1,0 -1,-1 -1,-1 -1,0 -1,-1 -2,0 -1,-1 -1,-1 0,-1 -3,0 -1,-1 -1,0 -1,1 -3,0 -1,1 -5,0 -1,1 -7,0 -1,1 -7,0 0,2 -1,1 -8,0 -1,-1 -6,0 0,2 -1,1 -9,0 -1,-1 -6,0 -1,1 -5,0 0,2 -1,1 -2,0 -1,1Z"/>
<path onmouseover="hoverPath(evt)" onmouseout="recoverPath(evt)" fill="rgb(254,254,254)" d="M  14,230l -3,0 -1,-1 0,3 -1,1 -9,0 0,2 2,0 1,-1 5,0 1,1 1,0 1,1 1,1 0,2 1,1 0,3 1,1 0,2 1,1 0,4 1,1 0,3 1,0 0,-4 -1,-1 0,-3 -1,-1 0,-2 -1,-1 0,-3 -1,-1 0,-3 -1,-1 0,-3 1,-1 1,-1 15,0 1,-1 8,0 -28,-2Z"/>
<path onmouseover="hoverPath(evt)" onmouseout="recoverPath(evt)" fill="rgb(237,236,229)" d="M  104,18l 0,7 1,1 0,1 1,-1 4,0 1,-1 2,0 1,-1 3,0 1,-1 5,0 1,1 3,0 1,-1 3,0 1,-1 3,0 0,-2 1,-1 5,0 1,1 3,0 0,-2 1,-1 4,0 1,-1 5,0 1,1 3,0 0,-2 1,-1 4,0 1,-1 4,0 1,-1 3,0 1,-1 0,-9 -1,-1 0,-1 -6,0 0,2 -1,1 -3,0 -1,1 -5,0 -1,1 -4,0 -1,1 -4,0 -1,1 -4,0 -1,1 -5,0 -1,1 -8,0 -1,1 -2,0 0,3 -1,1 -1,1 -5,0 0,1 -1,1 -1,1 -2,0 -1,-1 -1,-1 0,-3 -4,0 -1,1 -2,0 0,2 -1,1Z"/>
<path onmouseover="hoverPath(evt)" onmouseout="recoverPath(evt)" fill="rgb(243,232,140)" d="M  127,190l 0,2 1,1 0,5 1,1 0,4 1,1 0,4 1,1 0,4 1,1 0,5 1,1 0,5 1,1 0,4 1,1 0,4 1,1 0,4 1,1 0,5 1,1 0,5 1,1 0,2 4,0 0,-2 1,-1 0,-4 -1,-1 0,-5 -1,-1 0,-4 -1,-1 0,-5 -1,0 -1,-1 0,-2 1,-1 2,0 1,-1 -2,0 -1,-1 0,-1 -1,-1 0,-3 -1,-1 0,-4 -1,-1 0,-4 -1,-1 0,-4 -1,-1 0,-4 -1,-1 0,-5 -1,-1 0,-5 -1,-1 0,-4 -1,-1 0,-3 -1,-1 0,-2 -3,0 0,1 -1,1 -1,0 0,4 1,1 0,5 1,1Z"/>
<path onmouseover="hoverPath(evt)" onmouseout="recoverPath(evt)" fill="rgb(244,243,235)" d="M  202,86l 0,0 -1,1 0,8 -1,1 0,4 1,1 0,7 1,1 0,1 5,0 1,-1 7,0 1,-1 6,0 1,-1 9,0 1,-1 7,0 1,-1 7,0 1,-1 6,0 0,-31 -4,0 -1,1 -5,0 -1,1 -4,0 -1,1 -3,0 -1,1 -3,0 -1,1 -3,0 -1,1 -3,0 -1,1 -3,0 -1,1 -3,0 -1,1 -3,0 -1,1 -3,0 -1,1 -2,0 -1,1 -1,0 -1,1Z"/>
<path onmouseover="hoverPath(evt)" onmouseout="recoverPath(evt)" fill="rgb(244,242,235)" d="M  226,160l 1,0 1,-1 5,0 1,1 5,0 1,1 1,0 1,-1 9,0 1,1 3,0 0,-55 -5,0 -1,1 -7,0 -1,1 -7,0 -1,1 -9,0 -1,1 -6,0 5,1 1,0 1,1 0,2 2,0 1,1 0,5 -1,1 0,3 1,1 0,3 1,1 0,3 1,1 0,2 1,1 0,3 1,1 0,1 1,1 0,2 1,1 0,4 -1,1 -1,1 -1,0 -1,1 -2,0 -1,1 -2,0 -1,1 -1,0 -1,1 -1,1 -1,1 -1,0 -1,1 -1,0 0,1 1,1 0,1 2,0 1,-1Z"/>
<path onmouseover="hoverPath(evt)" onmouseout="recoverPath(evt)" fill="rgb(253,253,253)" d="M  0,35l 0,1 2,0 1,-1 5,0 1,-1 8,0 1,-1 56,0 1,-1 2,0 1,1 1,0 1,1 1,0 1,-1 1,0 1,-1 4,0 0,-1 -32,0 -1,1 -39,0 -1,1 -6,0 -1,1 -7,0 -1,1 80,0Z"/>
<path onmouseover="hoverPath(evt)" onmouseout="recoverPath(evt)" fill="rgb(244,243,236)" d="M  0,127l 0,40 12,0 1,1 2,0 1,-1 1,0 1,-1 5,0 1,1 2,0 0,-1 1,-1 6,0 1,-1 7,0 1,-1 2,0 1,1 1,0 1,-1 5,0 1,1 1,-1 1,-1 2,0 1,1 1,0 1,-1 6,0 1,1 1,-1 2,0 1,-1 2,0 1,1 1,0 0,-1 -1,-1 0,0 -1,-1 0,-1 -1,-1 -1,-1 -1,-1 0,-1 -1,-1 -1,-1 0,-1 -1,-1 0,-1 -1,-1 0,-1 -1,-1 0,-2 -1,-1 0,-2 -1,-1 0,-1 -1,-1 0,-2 -1,-1 0,-1 -1,-1 0,-1 -1,-1 0,-2 -1,-1 0,-3 -1,-1 0,-6 1,-1 0,-3 1,-1 0,-1 1,-1 0,-1 1,-1 0,-1 1,-1 1,-1 0,-2 -1,-1 -1,-1 -1,-1 -1,0 -1,-1 -2,0 -1,-1 -1,0 -1,1 -1,0 -1,1 -1,0 -1,1 -1,1 -1,0 -1,1 -1,0 -1,1 -1,0 0,1 -1,1 -1,1 -2,0 -1,1 -1,1 0,1 -1,1 -2,0 0,1 -1,1 -1,0 0,2 -1,1 -1,1 -1,0 -1,1 -1,1 -2,0 -1,1 -2,0 -1,1 -1,1 -1,0 -1,1 -2,0 0,1 -1,1 -4,0 -1,1 -7,0 -1,-1 -1,0 -1,1Z"/>
<path onmouseover="hoverPath(evt)" onmouseout="recoverPath(evt)" fill="rgb(242,241,231)" d="M  0,239l 0,16 14,0 0,-2 -1,-1 0,-4 -1,-1 0,-2 -1,-1 0,-3 -1,-1 0,-2 -1,-1 -1,0 -1,-1 -3,0 -1,1 -3,0Z"/>
<path onmouseover="hoverPath(evt)" onmouseout="recoverPath(evt)" fill="rgb(244,243,235)" d="M  15,235l 0,3 1,1 0,3 1,1 0,2 1,1 0,3 1,1 0,5 82,0 0,-3 1,-1 0,-3 1,-1 0,-18 1,-1 0,-3 1,-1 0,-6 -1,-1 0,-15 -1,-1 0,-17 -1,-1 0,-2 -1,-1 -1,-1 0,-3 -1,1 -7,0 -1,-1 -2,0 -1,1 -10,0 -1,1 -3,0 -1,-1 -2,0 -1,1 -9,0 -1,1 -2,0 -1,-1 -2,0 -1,1 -6,0 -1,-1 -1,1 -1,1 -2,0 -1,-1 -2,0 -1,1 -11,0 -1,1 -4,0 -1,-1 0,1 -1,1 -2,0 -1,-1 -1,1 -6,0 -1,1 -1,0 -1,1 -1,0 0,7 -1,1 -2,0 -1,-1 0,-8 -3,0 0,48 8,0 0,-8 1,-1 2,0 1,1 0,5 15,0 1,-1 11,0 1,1 0,2 -1,1 -8,0 -1,1 -15,0 -1,1 0,1 1,1Z"/>
<path onmouseover="hoverPath(evt)" onmouseout="recoverPath(evt)" fill="rgb(171,198,236)" d="M  80,15l -5,0 -1,-1 -1,-1 -1,-1 0,-3 -1,-1 0,-2 -1,-1 0,-1 -1,-1 0,-3 -11,0 1,1 0,2 1,1 0,2 1,1 0,3 1,1 0,3 -1,1 0,1 -1,1 -3,0 -1,-1 -1,0 -1,-1 -1,0 0,1 1,0 1,1 1,1 1,1 0,1 1,1 0,3 -1,1 0,2 -1,1 0,1 12,0 0,-1 1,-1 0,-1 1,-1 0,-1 1,-1 0,-1 1,-1 0,-1 1,-1 1,-1 1,-1 3,0 1,-1 1,-1 1,1 2,0 1,-1 7,0 0,-1 -1,-1 -4,0 -1,1 -4,0 0,2 -1,-1Z"/>
<path onmouseover="hoverPath(evt)" onmouseout="recoverPath(evt)" fill="rgb(242,231,140)" d="M  103,41l 0,-2 -1,-1 0,-5 1,-1 0,-1 -2,0 -1,-1 0,-3 -1,-1 0,-4 -1,-1 0,-6 -1,0 -1,-1 -1,-1 0,-2 1,-1 0,-2 -1,-1 0,-3 -1,-1 0,-3 -6,0 0,2 1,1 0,3 1,1 0,4 1,0 1,1 1,1 0,3 -1,1 0,3 1,1 0,3 1,1 0,4 1,1 0,2 1,1 0,4 1,1 0,4 1,1 0,4 1,1 0,4 1,1 0,3 1,1 0,4 1,1 0,4 1,1 0,3 1,1 0,3 1,1 0,4 1,1 0,4 1,1 0,4 1,1 0,3 1,1 0,5 1,0 1,1 1,1 0,3 -1,1 0,3 1,1 0,4 1,1 0,5 1,1 0,4 1,1 0,4 1,1 0,4 1,1 0,4 1,1 0,4 1,1 0,4 1,1 0,6 1,1 0,2 6,0 0,-4 -1,-1 0,-4 -1,-1 0,-3 -1,-1 0,-3 -1,-1 0,-5 -1,-1 0,-4 -1,-1 0,-3 1,-1 1,0 1,-1 -3,0 -1,-1 0,-3 -1,-1 0,-5 -1,-1 0,-4 -1,-1 0,-5 -1,0 -1,-1 0,-1 -1,-1 0,-3 1,-1 0,-3 -1,-1 0,-2 -1,-1 0,-4 -1,-1 0,-4 -1,-1 0,-4 -1,-1 0,-3 -1,-1 0,-3 -1,-1 0,-4 -1,-1 0,-4 -1,-1 0,-3 -1,-1 0,-4 -1,-1 0,-3 -1,-1Z"/>
<path onmouseover="hoverPath(evt)" onmouseout="recoverPath(evt)" fill="rgb(171,198,238)" d="M  117,99l -1,0 0,1 1,1 0,1 3,0 1,-1 6,0 1,-1 7,0 1,-1 7,0 1,-1 5,0 1,-1 3,0 1,-1 2,0 1,-1 4,0 1,-1 3,0 1,-1 3,0 1,-1 3,0 1,-1 3,0 1,-1 2,0 1,-1 4,0 1,-1 7,0 1,1 1,1 0,13 1,1 0,3 1,1 0,2 1,1 1,-1 1,0 -1,-1 0,-7 -1,-1 0,-6 1,-1 0,-8 1,-1 1,-1 1,-1 1,0 1,-1 2,0 1,-1 3,0 1,-1 3,0 1,-1 3,0 1,-1 3,0 1,-1 3,0 1,-1 3,0 1,-1 3,0 1,-1 3,0 1,-1 4,0 1,-1 5,0 1,-1 5,0 0,-4 -4,0 -1,1 -4,0 -1,1 -4,0 -1,1 -3,0 -1,1 -3,0 -1,1 -3,0 -1,1 -4,0 -1,1 -3,0 -1,1 -4,0 -1,1 -5,0 -1,1 -3,0 -1,1 -3,0 -1,1 -5,0 -1,-1 0,-1 -1,-1 0,-1 -1,-1 0,-1 -1,-1 0,-1 -1,-1 0,-2 1,-1 0,-1 1,-1 0,-1 1,-1 0,-1 1,-1 0,-8 -1,-1 0,-3 -1,-1 -1,-1 -1,-1 -1,-1 -1,0 -1,-1 -1,-1 -1,-1 0,-1 -1,-1 0,-11 -1,-1 0,-3 -1,-1 0,-1 -1,-1 0,-1 -1,-1 0,-1 -1,-1 0,-1 -1,-1 0,-2 1,-1 1,0 1,-1 -2,0 -1,-1 0,-2 1,-1 0,-1 1,-1 0,-6 -4,0 1,1 0,11 -1,1 -1,1 1,0 1,1 0,5 1,1 1,1 0,1 1,1 1,1 0,9 1,1 0,6 1,1 0,1 1,1 0,1 1,1 1,1 1,1 1,1 1,1 1,1 0,2 1,1 0,6 -1,1 0,1 -1,1 0,2 -1,1 0,1 -1,1 0,1 -1,1 0,2 1,1 0,1 1,1 0,1 1,1 0,4 -1,1 -1,1 -1,0 -1,1 -2,0 -1,1 -2,0 -1,1 -2,0 -1,1 -2,0 -1,1 -2,0 -1,1 -2,0 -1,1 -3,0 -1,1 -3,0 -1,1 -3,0 -1,1 -4,0 -1,1 -4,0 -1,1 -7,0 -1,1 -6,0 -1,1 -5,0 -1,1 -5,0 -1,1Z"/>
<path onmouseover="hoverPath(evt)" onmouseout="recoverPath(evt)" fill="rgb(182,203,232)" d="M  124,6l -1,0 -1,-1 -1,0 -1,-1 -1,0 -1,1 -1,0 0,1 -1,1 -1,0 -1,1 -2,0 -1,1 -3,0 -1,1 -4,0 -1,1 -4,0 -1,1 1,1 5,0 1,-1 2,0 1,-1 6,0 1,1 0,3 1,1 1,-1 0,-1 1,-1 5,0 1,-1 0,-3 1,-1 2,0 1,-1 8,0 1,-1 5,0 1,-1 4,0 1,-1 4,0 1,-1 4,0 1,-1 5,0 1,-1 3,0 0,-1 -20,0 0,2 -1,1 -5,0 -1,1 -5,0 -1,1 -5,0 -1,1Z"/>
<path onmouseover="hoverPath(evt)" onmouseout="recoverPath(evt)" fill="rgb(244,243,236)" d="M  143,231l 0,4 1,1 0,4 1,1 0,5 1,1 0,6 -1,1 0,1 83,0 0,-2 -1,-1 0,-1 -1,-1 0,-2 -1,-1 -1,-1 -1,-1 0,-1 -1,-1 0,-1 -1,-1 0,-1 -1,-1 0,-8 1,-1 0,-1 1,-1 0,-1 1,-1 0,-4 -1,-1 -1,0 -1,-1 0,-1 -7,0 -1,-1 -3,0 -1,1 -7,0 -1,1 -7,0 -1,1 -9,0 0,2 -1,1 -10,0 -1,-1 -6,0 0,2 -1,1 -7,0 -1,-1 -6,0 0,2 -1,1 -5,0 -1,1 -2,0 2,1Z"/>
<path onmouseover="hoverPath(evt)" onmouseout="recoverPath(evt)" fill="rgb(243,242,233)" d="M  210,116l 0,1 1,0 1,1 1,0 1,1 0,1 1,1 0,7 -1,1 0,2 -1,1 0,2 -1,1 0,1 -1,1 -1,1 -1,1 -1,1 0,2 -1,1 1,1 0,2 1,1 0,1 1,1 1,1 1,1 1,0 1,1 1,1 1,1 0,2 1,-1 1,0 1,-1 2,-2 1,0 1,-1 2,0 1,-1 2,0 1,-1 1,0 1,-1 0,-2 -1,-1 0,-2 -1,-1 0,-1 -1,-1 0,-3 -1,-1 0,-2 -1,-1 0,-3 -1,-1 0,-3 -1,-1 0,-5 1,-1 0,-3 -2,0 -1,-1 0,-2 -1,0 -1,-1 -4,0 -1,-1 -6,0 -1,1 -8,0 -1,1 -1,0 -1,1 4,0 1,-1 3,0 1,1 0,1 3,0 1,1Z"/>
<path onmouseover="hoverPath(evt)" onmouseout="recoverPath(evt)" fill="rgb(171,198,237)" d="M  224,218l -1,0 -1,1 1,0 1,1 0,0 1,1 0,6 -1,1 0,1 -1,1 0,1 -1,1 0,6 1,1 0,1 1,1 0,1 1,1 0,1 1,1 1,1 1,1 0,2 1,1 0,1 1,1 0,3 2,0 0,-4 -1,-1 0,-3 -1,-1 0,-1 -1,-1 -1,-1 -3,-3 0,-1 -1,-1 0,-2 1,-1 0,-3 1,-1 1,-1 0,-1 1,-1 0,-7 -1,-1 0,-1 -1,0 -1,-1Z"/>
<path onmouseover="hoverPath(evt)" onmouseout="recoverPath(evt)" fill="rgb(244,242,235)" d="M  226,216l 0,0 1,1 1,0 1,1 0,1 1,1 0,9 -1,1 0,1 -1,1 -1,1 0,3 -1,1 1,1 0,1 1,1 1,1 1,1 1,1 1,1 0,1 1,1 0,3 1,1 0,5 21,0 0,-78 -2,0 -1,-1 -2,0 -1,-1 -1,0 -1,1 -10,0 -1,-1 -4,0 -1,1 -4,0 -1,-1 -3,0 -1,-1 -5,0 -1,-1 0,1 -1,1 0,1 1,0 1,1 0,2 1,1 0,1 1,1 0,1 1,1 0,3 1,1 0,6 -1,1 0,14 1,1 0,1 1,1 0,2 -1,1 -1,1 -3,0 -1,1 5,0 1,-1Z"/>
</svg>