<svg width="256" height="256" xmlns="http://www.w3.org/2000/svg"><script> 
var tempColor;
function hoverPath(evt){
obj = evt.target;
tempColor = obj.getAttribute("fill");
obj.setAttribute("fill","red");
//alert(tempColor);
//obj.setAttribute("stroke","red");}
function recoverPath(evt){
obj = evt.target;
obj.setAttribute("fill", tempColor);
//obj.setAttribute("stroke", tempColor);
}</script><path onmouseover="hoverPath(evt)" onmouseout="recoverPath(evt)" fill="rgb(240,239,233)" d="M  0,64l 0,62 1,0 1,-1 3,0 1,-1 2,0 1,-1 3,0 1,-1 2,0 1,-1 3,0 1,-1 7,0 1,-1 6,0 1,-1 3,0 -1,-1 0,0 -1,-1 0,-2 -1,0 -1,-1 0,-1 -1,0 -1,-1 -1,-1 -7,0 -1,-1 0,-10 -1,-1 0,-4 -1,0 -1,-1 -1,-1 0,-1 -1,-1 -1,-1 -1,-1 0,-1 -1,-1 -1,-1 0,-1 -1,-1 0,-1 -1,-1 0,-1 -2,-2 0,-1 -1,-1 0,-1 -1,-1 0,-1 -1,-1 -1,-1 0,-1 -1,-1 0,-1 -1,-1 0,-1 -1,-1 0,-1 -1,-1 -1,0 -1,1Z"/>
<path onmouseover="hoverPath(evt)" onmouseout="recoverPath(evt)" fill="rgb(180,199,225)" d="M  96,27l -1,0 -1,1 -2,0 -1,1 -1,0 0,2 1,0 1,-1 3,0 1,-1 3,0 1,-1 3,0 1,-1 6,0 1,-1 2,0 1,-1 3,0 1,-1 6,0 1,-1 2,0 1,-1 0,-3 -1,0 -1,1 -5,0 -1,1 -3,0 -1,1 -4,0 -1,1 -3,0 -1,1 -3,0 -1,1 -1,0 -1,1 -3,0 -1,1Z"/>
<path onmouseover="hoverPath(evt)" onmouseout="recoverPath(evt)" fill="rgb(244,243,236)" d="M  112,0l -112,0 0,54 3,0 1,-1 2,0 1,-1 1,0 1,-1 2,0 1,-1 2,0 1,-1 2,0 1,-1 2,0 1,-1 1,0 1,-1 2,0 1,-1 2,0 1,-1 2,0 1,-1 2,0 1,-1 2,0 1,-1 1,0 1,-1 3,0 1,-1 3,0 1,-1 3,0 1,-1 3,0 1,-1 3,0 1,-1 2,0 1,-1 3,0 1,-1 2,0 1,-1 3,0 1,-1 2,0 1,-1 3,0 1,-1 2,0 1,-1 4,0 1,-1 1,0 1,-1 2,0 1,-1 2,0 1,-1 3,0 1,-1 1,0 1,-1 3,0 1,-1 3,0 1,-1 4,0 1,-1 3,0 1,-1 5,0 1,-1 5,0 1,-1 4,0 1,-1 4,0 1,-1 4,0 1,-1 5,0 1,-1 4,0 1,-1 4,0 1,-1 11,0 1,-1 7,0 1,-1 4,0 1,-1 3,0 1,-1 4,0 1,-1 9,0 1,-1 4,0 1,-1 2,0 1,-1 3,0 1,-1 2,0 0,-1Z"/>
<path onmouseover="hoverPath(evt)" onmouseout="recoverPath(evt)" fill="rgb(170,198,238)" d="M  214,217l -3,0 -1,1 -2,0 -1,1 -2,0 -1,1 -1,0 -1,1 -2,0 -1,1 -1,0 -1,1 -2,0 -1,1 -2,0 -1,1 -2,0 -1,1 -3,0 -1,1 -3,0 -1,1 -6,0 -1,1 -14,0 -1,-1 -44,0 -1,1 -18,0 -1,-1 -1,-1 -1,-1 -1,-1 -1,0 -1,-1 -1,-1 -1,-1 -1,-1 -1,0 -1,-1 -1,-1 -4,0 -1,1 -4,0 -1,1 -3,0 -1,1 -3,0 -1,1 -3,0 -1,1 -2,0 -1,-1 -2,0 -1,-1 -2,0 -1,-1 -3,0 -1,-1 -4,0 -1,-1 -9,0 -1,1 -5,0 -1,1 -11,0 -1,-1 -8,0 -1,-1 -6,0 0,2 8,0 1,1 3,0 1,1 8,0 1,1 1,-1 3,0 1,-1 4,0 1,-1 12,0 1,1 4,0 1,1 2,0 1,1 3,0 1,1 2,0 1,1 1,0 1,-1 3,0 1,-1 2,0 1,-1 3,0 1,-1 3,0 1,-1 5,0 1,1 1,1 1,1 1,0 1,1 2,2 1,1 1,1 1,1 1,0 1,1 1,0 1,1 1,0 1,-1 14,0 1,-1 25,0 1,-1 5,0 1,1 8,0 1,1 7,0 1,1 5,0 1,-1 5,0 1,-1 5,0 1,-1 4,0 1,-1 3,0 1,-1 2,0 1,-1 2,0 1,-1 2,0 1,-1 2,0 1,-1 2,0 1,-1 1,0 1,-1 2,0 1,-1 1,0 1,-1 2,0 1,-1 0,-1 1,-1 1,2 1,0 1,-1 3,0 1,-1 3,0 1,-1 2,0 1,-1 3,0 1,-1 3,0 1,-1 4,0 1,-1 4,0 1,-1 5,0 1,-1 2,0 0,-1 -6,0 -1,1 -5,0 -1,1 -4,0 -1,1 -4,0 -1,1 -2,0 -1,1 -3,0 -1,1 -2,0 -1,1 -3,0 -1,1 -3,0 -1,1Z"/>
<path onmouseover="hoverPath(evt)" onmouseout="recoverPath(evt)" fill="rgb(244,243,235)" d="M  0,134l 0,42 3,0 1,-1 2,0 1,-1 2,0 1,-1 2,0 1,-1 2,0 1,-1 2,0 1,-1 2,0 1,-1 1,0 1,-1 2,0 1,-1 3,0 1,1 1,0 0,-2 1,-1 2,0 1,-1 2,0 1,-1 3,0 1,1 1,0 0,-2 1,-1 1,0 1,-1 2,0 1,-1 3,0 1,-1 1,0 1,-1 3,0 1,-1 2,0 1,-1 2,0 1,-1 2,0 1,-1 2,0 1,-1 3,0 1,-1 3,0 1,1 1,0 0,-2 1,-1 1,0 1,-1 3,0 1,-1 1,0 1,-1 4,0 1,1 1,0 0,-2 1,-1 2,0 1,-1 2,0 1,-1 2,0 1,-1 4,0 1,1 1,0 0,-2 1,-1 2,0 1,-1 2,0 1,-1 1,0 1,-1 3,0 1,-1 1,0 1,-1 3,0 1,-1 2,0 1,-1 2,0 1,-1 2,0 1,-1 3,0 1,-1 0,-4 -1,-1 0,-1 -1,-1 0,-1 -1,-1 0,-1 -1,-1 0,-1 -1,-1 0,-1 -1,-1 0,-1 -1,-1 0,-5 1,-1 1,-1 6,0 1,1 4,0 1,-1 14,0 1,-1 1,0 1,-1 1,-1 1,0 1,-1 1,0 1,-1 1,0 1,-1 1,0 1,-1 1,-1 1,0 1,-1 1,0 1,-1 1,0 1,-1 1,0 1,-1 1,-1 1,0 1,-1 3,0 1,1 1,0 1,-1 1,0 1,-1 1,0 0,-2 1,-1 3,0 1,1 0,-2 1,-1 2,0 1,-1 2,0 1,-1 3,0 1,-1 4,0 1,1 2,0 1,-1 1,0 0,-2 1,-1 3,0 1,-1 1,0 1,-1 3,0 1,-1 3,0 1,1 2,0 0,-2 1,-1 2,0 1,-1 2,0 1,-1 2,0 1,-1 1,-1 4,0 0,-6 -4,0 -1,1 -3,0 -1,1 -2,0 -1,1 -6,0 -1,1 -4,0 -1,1 -3,0 -1,1 -3,0 -1,1 -1,0 -1,1 -1,0 -1,1 -1,1 -1,1 -1,0 -1,1 -21,0 -1,1 -4,0 -1,1 -2,0 -1,1 -1,0 -1,1 -2,0 -1,1 -2,0 -1,1 -1,0 -1,1 -2,0 -1,1 -2,0 -1,1 -3,0 -1,1 -2,0 -1,1 -2,0 -1,1 -2,0 -1,1 -2,0 -1,1 -2,0 -1,1 -1,0 -1,1 -2,0 -1,1 -2,0 -1,1 -2,0 -1,1 -2,0 -1,1 -1,0 -1,1 -2,0 -1,1 -2,0 -1,1 -2,0 -1,1 -3,0 -1,1 -3,0 -1,1 -3,0 -1,1 -2,0 -1,1 -3,0 -1,1 -2,0 -1,1 -2,0 -1,1 -2,0 -1,1 -2,0 -1,1 -2,0 -1,1 -2,0 -1,1 -3,0 -1,1 -2,0 -1,1 -2,0 -1,1 -2,0 -1,1 -2,0 -1,1 -2,0 -1,1 -2,0 -1,1 -3,0 -1,1 -2,0 -1,1 -2,0 -1,1 -2,0 -1,1 -2,0 -1,1 -4,0 -1,1 -12,0 -1,1 -5,0 -1,1 -2,0 -1,1 -4,0 0,2 -1,1 -9,0 -1,1 -2,0 -1,1 -2,0 -1,1 -1,0 -1,1Z"/>
<path onmouseover="hoverPath(evt)" onmouseout="recoverPath(evt)" fill="rgb(242,241,231)" d="M  21,246l -1,0 -1,-1 -1,0 -1,-1 -2,0 -1,-1 -7,0 -1,-1 -6,0 0,13 38,0 0,-1 -1,0 -1,-1 -1,0 -1,-1 -1,0 -1,-1 -1,0 -1,-1 -1,0 -1,-1 -1,0 -1,-1 -1,0 -1,-1 -2,0 -1,-1Z"/>
<path onmouseover="hoverPath(evt)" onmouseout="recoverPath(evt)" fill="rgb(191,204,222)" d="M  32,108l 0,0 1,1 1,1 1,0 1,1 0,1 1,0 1,-1 0,0 1,-1 0,-1 -1,-1 0,-1 -1,-1 0,-3 1,-1 0,-5 -3,0 -1,1 -3,0 -1,-1 0,-3 -1,-1 -1,-1 -1,-1 -1,0 0,1 -1,1 -1,1 0,3 1,1 0,10Z"/>
<path onmouseover="hoverPath(evt)" onmouseout="recoverPath(evt)" fill="rgb(252,252,250)" d="M  31,234l 0,0 -1,-1 -8,0 -1,1 -3,0 -1,-1 -1,0 -1,1 -1,0 0,1 -1,1 0,2 -1,1 -12,0 0,1 7,0 1,1 7,0 1,1 2,0 1,1 1,0 1,1 1,0 1,1 2,0 1,1 1,0 1,1 1,0 1,1 1,0 1,1 1,0 1,1 1,0 1,1 1,0 1,1 1,0 1,1 0,2 16,0 0,-1 -5,0 -1,-1 -4,0 -1,-1 -4,0 -1,-1 -1,0 -1,-1 -2,0 -1,-1 -1,0 -1,-1 -1,0 -1,-1 -1,0 -1,-1 -1,0 -1,-1 -1,0 -1,-1 0,-2 -1,0 -1,-1 -1,1 -2,0 -1,-1 -2,0 -1,-1 -2,0 -1,-1 0,0 18,-5Z"/>
<path onmouseover="hoverPath(evt)" onmouseout="recoverPath(evt)" fill="rgb(243,243,236)" d="M  40,96l 0,7 -1,1 0,1 1,1 0,1 1,1 0,2 1,0 1,1 0,1 1,1 1,1 0,1 1,1 2,0 1,-1 2,0 1,-1 2,0 1,-1 3,0 1,-1 2,0 1,-1 2,0 1,-1 3,0 1,-1 2,0 1,-1 2,0 1,-1 3,0 1,-1 2,0 1,-1 2,0 1,-1 3,0 1,-1 2,0 1,-1 3,0 1,-1 2,0 1,-1 2,0 1,-1 3,0 1,-1 2,0 1,-1 2,0 1,-1 3,0 1,-1 2,0 1,-1 2,0 1,-1 2,0 1,-1 2,0 1,-1 2,0 1,-1 2,0 1,-1 2,0 1,-1 2,0 1,-1 2,0 1,-1 2,0 1,-1 2,0 1,-1 2,0 1,-1 2,0 1,-1 2,0 1,-1 2,0 1,-1 2,0 1,-1 4,0 1,-1 1,0 1,-1 1,0 1,-1 1,0 1,-1 2,0 1,-1 1,0 1,-1 2,0 1,-1 2,0 1,-1 2,0 1,-1 5,0 1,-1 10,0 1,1 1,0 1,-1 3,0 1,-1 1,0 1,-1 1,0 1,-1 1,0 1,-1 1,0 1,-1 1,0 1,-1 1,0 1,-1 4,0 1,-1 12,0 1,-1 3,0 1,-1 3,0 1,-1 5,0 0,-32 -2,0 -1,-1 -1,-1 0,-1 -1,-1 -1,-1 -1,-1 0,-1 -1,-1 -1,-1 -1,-1 0,-1 -1,-1 -1,-1 0,-1 -1,-1 -1,-1 -1,-1 0,-1 -1,-1 -1,-1 -1,-1 -3,0 -1,-1 -2,0 -1,1 -4,0 -1,1 -2,0 -1,1 -2,0 -1,1 -3,0 -1,1 -2,0 -1,1 -3,0 -1,1 -9,0 -1,1 -2,0 -1,1 -5,0 -1,1 -5,0 -1,1 -6,0 -1,1 -8,0 -1,1 -4,0 -1,1 -4,0 -1,1 -4,0 -1,1 -4,0 -1,1 -4,0 -1,1 -4,0 -1,1 -4,0 -1,1 -3,0 -1,1 -2,0 -1,1 -6,0 -1,1 -3,0 -1,1 -2,0 0,3 -1,1 -1,1 -1,0 -1,1 0,1 -1,1 -1,0 -1,1 0,1 -1,1 -4,4 -1,1 -1,1 -1,1 -1,0 -1,1 -1,1 -7,0 -1,-1 0,-1 -1,-1 0,-5 -2,0 -1,-1 0,-3 1,-1 -3,0 -1,1 -2,0 -1,1 -3,0 -1,1 -3,0 -1,1 -2,0 -1,1 -3,0 -1,1 -3,0 -1,1 -2,0 -1,1 -2,0 -1,1 -2,0 -1,1 -2,0 -1,1 -1,0 -1,1 -2,0 -1,1 -2,0 -1,1 -2,0 -1,1 -2,0 -1,1 -2,0 -1,1 -2,0 -1,1 -2,0 -1,1 -2,0 -1,1 -2,0 -1,1 -2,0 -1,1 -2,0 -1,1 -1,0 -1,1 -1,0 1,1 0,1 1,1 0,1 1,1 1,1 0,1 1,1 0,1 1,1 0,1 2,2 0,1 1,1 0,1 1,1 0,1 1,1 1,1 0,1 1,1 0,1 1,1 1,1 1,1 1,1 1,1 0,1 1,1 2,0 1,1 1,1 1,1 1,1 0,3 1,0 1,-1 5,0 1,1Z"/>
<path onmouseover="hoverPath(evt)" onmouseout="recoverPath(evt)" fill="rgb(223,223,220)" d="M  87,33l 0,0 -1,1 -1,0 0,2 -1,1 0,1 2,0 1,1 0,5 1,1 0,1 5,0 1,-1 1,-1 1,0 1,-1 1,-1 2,-2 1,-1 1,-1 1,-1 0,-1 1,-1 1,-1 1,0 0,-1 2,-2 1,0 1,-1 0,-1 -5,0 -1,1 -3,0 -1,1 -3,0 -1,1 -3,0 -1,1Z"/>
<path onmouseover="hoverPath(evt)" onmouseout="recoverPath(evt)" fill="rgb(243,242,234)" d="M  163,255l 92,0 0,-44 -1,0 -1,1 -5,0 -1,1 -4,0 -1,1 -4,0 -1,1 -3,0 -1,1 -3,0 -1,1 -2,0 -1,1 -3,0 -1,1 -3,0 -1,1 -3,0 -1,1 -2,0 -1,1 -1,0 -1,1 -2,0 -1,1 -1,0 -1,1 -2,0 -1,1 -2,0 -1,1 -2,0 -1,1 -2,0 -1,1 -2,0 -1,1 -3,0 -1,1 -4,0 -1,1 -5,0 -1,1 -5,0 -1,1 -7,0 -1,-1 -7,0 -1,-1 -8,0 -1,-1 -3,0 -1,1 -25,0 -1,1 -14,0 -1,1 -3,0 -1,-1 -1,0 -1,-1 -1,0 -1,-1 -1,-1 -1,-1 -1,-1 -1,-1 -1,-1 -1,0 -1,-1 -1,-1 -1,-1 -3,0 -1,1 -3,0 -1,1 -3,0 -1,1 -2,0 -1,1 -3,0 -1,1 -3,0 -1,-1 -2,0 -1,-1 -3,0 -1,-1 -2,0 -1,-1 -4,0 -1,-1 -10,0 -1,1 -4,0 -1,1 -3,0 -1,1 -2,0 -1,-1 -8,0 -1,-1 -3,0 -1,-1 -7,0 0,14 11,0 0,-2 1,-1 0,-1 1,-1 1,0 1,-1 3,0 1,1 1,0 1,-1 10,0 1,1 22,0 1,1 0,2 -1,1 -29,0 -1,-1 -1,1 -7,0 -1,1 0,1 2,0 1,1 2,0 1,1 1,-1 2,0 1,1 1,0 1,1 0,2 1,0 1,1 1,0 1,1 1,0 1,1 1,0 1,1 1,0 1,1 2,0 1,1 1,0 1,1 4,0 1,1 4,0 1,1 5,0 1,1 0,2Z"/>
<path onmouseover="hoverPath(evt)" onmouseout="recoverPath(evt)" fill="rgb(244,243,237)" d="M  245,6l 0,0 1,1 1,1 0,2 1,0 1,1 0,2 1,0 1,1 2,2 0,1 1,1 1,0 0,-18 -2,0 0,1 -1,1 -1,1 -1,1 -1,0 -1,1 -2,0 -1,1Z"/>
<path onmouseover="hoverPath(evt)" onmouseout="recoverPath(evt)" fill="rgb(171,198,237)" d="M  246,62l -3,0 -1,1 -12,0 -1,1 -4,0 -1,1 -1,0 -1,1 -1,0 -1,1 -1,0 -1,1 -1,0 -1,1 -1,0 -1,1 -1,0 -1,1 -3,0 -1,1 -3,0 -1,-1 -8,0 -1,1 -5,0 -1,1 -2,0 -1,1 -2,0 -1,1 -2,0 -1,1 -1,0 -1,1 -2,0 -1,1 -1,0 -1,1 -1,0 -1,1 -1,0 -1,1 -4,0 -1,1 -2,0 -1,1 -2,0 -1,1 -2,0 -1,1 -2,0 -1,1 -2,0 -1,1 -2,0 -1,1 -2,0 -1,1 -2,0 -1,1 -2,0 -1,1 -2,0 -1,1 -2,0 -1,1 -2,0 -1,1 -2,0 -1,1 -2,0 -1,1 -2,0 -1,1 -2,0 -1,1 -3,0 -1,1 -2,0 -1,1 -2,0 -1,1 -3,0 -1,1 -2,0 -1,1 -2,0 -1,1 -3,0 -1,1 -2,0 -1,1 -3,0 -1,1 -2,0 -1,1 -2,0 -1,1 -3,0 -1,1 -2,0 -1,1 -2,0 -1,1 -3,0 -1,1 -2,0 -1,1 -2,0 -1,1 -3,0 -1,1 -2,0 -1,1 -2,0 -1,1 -4,0 -1,-1 -1,-1 0,-1 -1,-1 -1,-1 0,-1 -1,0 -1,1 -1,1 0,1 1,1 0,0 1,1 0,2 -1,1 -3,0 -1,1 -6,0 -1,1 -7,0 -1,1 -3,0 -1,1 -2,0 -1,1 -3,0 -1,1 -2,0 -1,1 -3,0 -1,1 -2,0 0,3 1,0 1,-1 2,0 1,-1 2,0 1,-1 9,0 0,-2 1,-1 4,0 1,-1 2,0 1,-1 5,0 1,-1 12,0 1,-1 4,0 1,-1 2,0 1,-1 2,0 1,-1 2,0 1,-1 2,0 1,-1 3,0 1,-1 2,0 1,-1 2,0 1,-1 2,0 1,-1 2,0 1,-1 2,0 1,-1 2,0 1,-1 3,0 1,-1 2,0 1,-1 2,0 1,-1 2,0 1,-1 2,0 1,-1 2,0 1,-1 2,0 1,-1 3,0 1,-1 2,0 1,-1 3,0 1,-1 3,0 1,-1 3,0 1,-1 2,0 1,-1 2,0 1,-1 2,0 1,-1 1,0 1,-1 2,0 1,-1 2,0 1,-1 2,0 1,-1 2,0 1,-1 1,0 1,-1 2,0 1,-1 2,0 1,-1 2,0 1,-1 2,0 1,-1 2,0 1,-1 3,0 1,-1 2,0 1,-1 2,0 1,-1 1,0 1,-1 2,0 1,-1 2,0 1,-1 1,0 1,-1 2,0 1,-1 4,0 1,-1 21,0 1,-1 1,0 1,-1 1,-1 1,-1 1,0 1,-1 1,0 1,-1 3,0 1,-1 3,0 1,-1 4,0 1,-1 6,0 1,-1 2,0 1,-1 0,-1 1,-1 1,2 1,0 1,-1 5,0 0,-2 -4,0 -1,1 -3,0 -1,1Z"/>
<path onmouseover="hoverPath(evt)" onmouseout="recoverPath(evt)" fill="rgb(244,243,236)" d="M  0,183l 0,34 7,0 1,1 8,0 1,1 9,0 1,-1 5,0 1,-1 11,0 1,1 4,0 1,1 3,0 1,1 2,0 1,1 2,0 1,1 1,-1 3,0 1,-1 3,0 1,-1 3,0 1,-1 4,0 1,-1 6,0 1,1 1,1 1,0 1,1 1,1 1,1 1,1 1,0 1,1 1,1 1,1 1,1 16,0 1,-1 46,0 1,1 12,0 1,-1 6,0 1,-1 3,0 1,-1 3,0 1,-1 2,0 1,-1 2,0 1,-1 2,0 1,-1 1,0 1,-1 2,0 1,-1 1,0 1,-1 2,0 1,-1 2,0 1,-1 3,0 1,-1 3,0 1,-1 3,0 1,-1 2,0 1,-1 3,0 1,-1 2,0 1,-1 4,0 1,-1 4,0 1,-1 5,0 1,-1 7,0 0,-134 -3,0 -1,1 0,0 -1,1 -2,0 -1,1 -2,0 -1,1 -2,0 0,2 -1,1 -4,0 -1,-1 -1,0 -1,1 -3,0 -1,1 -1,0 -1,1 -3,0 0,2 -1,1 -1,0 -1,1 -4,0 -1,-1 -2,0 -1,1 -3,0 -1,1 -2,0 -1,1 -2,0 0,2 -1,1 -2,0 -1,-1 -1,0 0,2 -1,1 -1,0 -1,1 -1,0 -1,1 -3,0 -1,-1 -1,0 -1,1 -1,0 -1,1 0,2 -1,1 -1,0 -1,1 -2,0 -1,-1 -1,1 -1,0 -1,1 0,2 -1,1 -1,0 -1,1 -2,0 -1,-1 -1,1 -1,0 -1,1 -1,1 -1,0 -1,1 -14,0 -1,1 -6,0 -1,-1 -4,0 -1,1 0,3 1,1 0,1 1,1 0,1 1,1 0,1 1,1 0,1 1,1 0,1 1,1 0,1 1,1 0,6 -1,1 -1,1 -3,0 -1,1 -2,0 -1,1 -2,0 -1,1 -2,0 -1,1 -3,0 -1,1 -1,0 -1,1 -3,0 -1,1 -1,0 -1,1 -2,0 -1,1 -2,0 0,2 -1,1 -3,0 -1,-1 -2,0 -1,1 -2,0 -1,1 -2,0 -1,1 -2,0 0,2 -1,1 -3,0 -1,-1 -2,0 -1,1 -1,0 -1,1 -3,0 -1,1 -1,0 0,2 -1,1 -3,0 -1,-1 -1,0 -1,1 -3,0 -1,1 -2,0 -1,1 -2,0 -1,1 -2,0 -1,1 -2,0 -1,1 -3,0 -1,1 -1,0 -1,1 -3,0 -1,1 -2,0 -1,1 -1,0 0,2 -1,1 -3,0 -1,-1 -1,0 -1,1 -2,0 -1,1 -2,0 0,2 -1,1 -3,0 -1,-1 -1,0 -1,1 -2,0 -1,1 -1,0 -1,1 -2,0 -1,1 -2,0 -1,1 -2,0 -1,1 -2,0 -1,1 -2,0 -1,1 -2,0 -1,1 -4,0Z"/>
<path onmouseover="hoverPath(evt)" onmouseout="recoverPath(evt)" fill="rgb(170,198,238)" d="M  57,39l 3,0 1,-1 3,0 1,-1 2,0 1,-1 3,0 1,-1 3,0 1,-1 2,0 1,-1 4,0 1,-1 1,0 1,-1 2,0 0,-1 -3,0 -1,1 -2,0 -1,1 -3,0 -1,1 -2,0 -1,1 -3,0 -1,1 -2,0 -1,1 -3,0 -1,1 -2,0 -1,1 -2,0 -1,1 -4,0 -1,1 -3,0 -1,1 -3,0 -1,1 -3,0 -1,1 -1,0 -1,1 -2,0 -1,1 -2,0 -1,1 -2,0 -1,1 -2,0 -1,1 -2,0 -1,1 -1,0 -1,1 -2,0 -1,1 -2,0 -1,1 -2,0 -1,1 -2,0 -1,1 -1,0 -1,1 -2,0 -1,1 -4,0 0,5 3,0 1,1 1,1 0,1 1,1 0,1 1,1 0,1 1,1 0,1 1,1 1,1 0,1 1,1 0,1 1,1 0,1 1,1 1,1 0,1 1,1 0,1 1,1 0,1 1,1 1,1 0,1 1,1 1,1 1,1 0,1 1,1 1,0 1,-1 0,-1 -1,-1 0,-1 -1,-1 -1,-1 -1,-1 -1,-1 -1,-1 0,-1 -1,-1 0,-1 -1,-1 -1,-1 0,-1 -1,-1 0,-1 -1,-1 0,-1 -1,-1 -1,-1 0,-1 -1,-1 0,-1 -1,-1 0,-1 -1,-1 -1,-1 0,-1 -1,-1 0,-1 -1,-1 0,-2 1,-1 1,0 1,-1 1,0 1,-1 2,0 1,-1 2,0 1,-1 2,0 1,-1 2,0 1,-1 2,0 1,-1 2,0 1,-1 2,0 1,-1 2,0 1,-1 2,0 1,-1 2,0 1,-1 2,0 1,-1 1,0 1,-1 2,0 1,-1 2,0 1,-1 2,0 1,-1 1,0 1,-1Z"/>
<path onmouseover="hoverPath(evt)" onmouseout="recoverPath(evt)" fill="rgb(175,200,238)" d="M  244,3l 3,0 1,-1 1,0 1,-1 1,-1 -28,0 0,2 -1,1 -2,0 -1,1 -3,0 -1,1 -2,0 -1,1 -4,0 -1,1 -9,0 -1,1 -4,0 -1,1 -3,0 -1,1 -4,0 -1,1 -7,0 -1,1 -11,0 -1,1 -4,0 -1,1 -4,0 -1,1 -5,0 -1,1 -4,0 -1,1 -4,0 -1,1 -4,0 -1,1 -2,0 0,3 1,0 1,-1 4,0 1,-1 4,0 1,-1 4,0 1,-1 4,0 1,-1 4,0 1,-1 4,0 1,-1 4,0 1,-1 8,0 1,-1 6,0 1,-1 5,0 1,-1 5,0 1,-1 2,0 1,-1 9,0 1,-1 3,0 1,-1 2,0 1,-1 3,0 1,-1 2,0 1,-1 2,0 1,-1 4,0 1,-1 4,0 1,1 3,0 1,1 1,1 1,1 1,1 0,1 1,1 1,1 1,1 0,1 1,1 1,1 0,1 1,1 1,1 1,1 0,1 1,1 1,1 1,1 0,1 1,1 1,0 0,-4 -2,0 -1,-1 -1,-1 0,-1 -1,-1 -1,-1 -1,0 1,1 1,1 1,2 1,1 -8,-17 -1,4 0,0 1,-4Z"/>
</svg>