<svg width="256" height="256" xmlns="http://www.w3.org/2000/svg"><script> 
var tempColor;
function hoverPath(evt){
obj = evt.target;
tempColor = obj.getAttribute("fill");
obj.setAttribute("fill","red");
//alert(tempColor);
//obj.setAttribute("stroke","red");}
function recoverPath(evt){
obj = evt.target;
obj.setAttribute("fill", tempColor);
//obj.setAttribute("stroke", tempColor);
}</script><path onmouseover="hoverPath(evt)" onmouseout="recoverPath(evt)" fill="rgb(243,242,234)" d="M  0,208l 0,36 2,0 1,-1 1,0 1,-1 1,0 1,-1 1,-1 1,0 1,-1 0,-2 1,-1 2,0 1,1 1,-1 1,0 0,-2 1,-1 1,-1 1,0 1,-1 2,0 1,1 1,-1 1,0 1,-1 0,-2 1,-1 2,0 1,1 1,-1 1,0 1,-1 0,-2 1,-1 2,0 1,1 1,-1 0,-2 1,-1 1,0 1,-1 1,0 1,-1 1,0 1,-1 1,-1 1,0 1,-1 2,0 1,1 1,-1 1,0 1,-1 0,-2 1,-1 2,0 1,1 1,-1 1,0 1,-1 0,-2 1,-1 1,0 1,-1 1,0 1,-1 1,0 1,-1 2,0 1,1 1,0 1,-1 1,-1 1,0 0,-4 -1,-1 0,0 -1,-1 -1,-1 -1,-1 -1,-1 -4,0 -1,-1 -1,0 -1,-1 0,-3 -1,-1 -1,-1 -5,0 -1,-1 -1,-1 0,-3 -1,-1 -1,-1 -1,-1 -1,-1 -2,0 -1,-1 -1,-1 0,-1 -1,-1 0,1 -1,1 -1,1 -1,1 -1,0 -1,1 0,1 -1,1 -2,0 -1,1 -1,1 0,1 -1,1 -2,0 -1,1 -1,1 -1,0 -1,1 -1,1 -1,1 -2,0 -1,-1 -1,1 0,0 -1,1 -2,0 0,1 -1,1 -3,3 -1,0 -1,1 0,2 -2,2 -1,1 -1,0 -1,1 -1,0 -1,1 -1,0 -1,1 -1,0 -1,1 -2,0Z"/>
<path onmouseover="hoverPath(evt)" onmouseout="recoverPath(evt)" fill="rgb(243,242,234)" d="M  72,39l -1,0 -1,1 1,1 0,1 1,1 1,1 0,1 1,1 1,1 1,1 0,1 1,1 1,-1 7,0 1,1 4,0 1,1 10,0 1,-1 1,0 1,-1 2,-2 0,-1 1,-1 1,-1 0,-1 1,-1 0,-1 1,-1 0,-1 1,-1 0,-2 1,-1 0,-1 1,-1 0,-2 1,-1 0,-1 1,-1 1,0 1,-1 1,-1 1,-1 1,0 3,-3 0,-2 -1,-1 0,-1 -1,-1 -1,1 -1,0 -1,1 -2,0 -1,-1 -1,1 -2,0 -1,1 -1,0 -1,1 -1,0 -1,1 -1,0 -1,1 -1,0 -1,1 -1,0 -1,1 -1,0 0,2 -1,1 -2,0 -1,-1 -1,1 -1,0 -1,1 -1,0 -1,1 -1,0 -1,1 -2,0 -1,1 -1,0 -1,1 -1,0 -1,1 -1,0 -1,1 -1,0 0,2 -1,1 -2,0 -1,-1 -1,1 -1,0 -1,1Z"/>
<path onmouseover="hoverPath(evt)" onmouseout="recoverPath(evt)" fill="rgb(244,243,235)" d="M  83,55l -2,0 0,1 1,1 2,0 1,1 0,2 -1,1 1,1 0,0 1,1 1,1 0,1 1,1 1,1 1,1 0,1 1,1 1,1 2,0 1,1 1,1 0,2 1,0 1,1 1,1 0,4 1,1 1,1 0,1 1,1 1,1 1,1 0,1 1,1 1,0 1,1 0,2 1,1 1,1 0,1 1,1 2,0 1,1 1,1 1,0 1,-1 1,0 1,-1 1,0 1,-1 2,0 1,-1 1,0 1,-1 1,0 1,-1 2,0 1,-1 1,0 1,-1 1,0 1,-1 2,0 1,-1 1,0 1,-1 2,0 1,-1 1,0 1,-1 2,0 1,-1 1,0 1,-1 2,0 1,-1 1,0 1,-1 2,0 1,-1 1,0 1,-1 1,0 1,-1 2,0 -1,-1 0,0 -1,-1 -1,-1 0,-1 -1,-1 -1,-1 0,-1 -1,-1 -1,-1 0,-1 -1,-1 -1,-1 0,-1 -1,-1 -1,-1 0,-1 -1,-1 -1,-1 0,-1 -1,-1 -1,-1 -1,-1 -1,-1 -1,-1 0,-3 -1,-1 0,-2 -1,-1 -1,-1 -1,-1 -1,-1 -1,-1 -1,-1 0,-1 -1,-1 -1,-1 -1,-1 -1,-1 -1,-1 -1,-1 -1,-1 0,-1 -4,-4 -2,0 -1,1 -1,0 -2,2 0,1 -1,1 0,1 -1,1 0,1 -1,1 0,1 -1,1 0,1 -1,1 0,1 -1,1 -1,1 0,1 -1,1 -1,1 -1,1 0,1 -1,1 -1,1 0,1 -1,1 -1,1 0,1 -1,1 -1,0 -1,1 -3,0 -1,-1 -8,0 -1,-1 -6,0 -1,-1Z"/>
<path onmouseover="hoverPath(evt)" onmouseout="recoverPath(evt)" fill="rgb(243,241,232)" d="M  147,95l -1,0 -1,1 -2,0 -1,1 -1,0 -1,1 -1,0 0,2 -1,1 0,2 1,1 0,5 -1,1 0,4 1,0 1,-1 0,-7 1,-1 2,0 1,1 0,10 -1,1 -1,1 -1,1 -3,0 0,1 -1,1 0,3 1,1 0,1 29,0 -1,-1 0,-1 -1,-1 -1,-1 -1,-1 -1,0 -1,-1 0,-2 -1,-1 -1,-1 -1,-1 0,-2 1,-1 2,0 1,1 1,1 1,1 1,1 0,1 1,1 1,1 1,1 1,1 1,1 1,1 1,1 0,1 1,0 1,1 1,1 1,1 1,1 1,1 0,1 1,1 1,1 1,1 1,1 1,1 1,1 0,2 -1,1 1,1 0,1 1,1 0,1 2,0 1,1 0,2 -1,1 0,2 2,0 1,1 0,1 1,-1 1,0 1,-1 1,0 1,-1 1,0 1,-1 2,0 1,1 1,-1 1,0 1,-1 0,-2 1,-1 1,0 1,-1 3,0 -2,-1 0,-2 -1,-1 -1,-1 -1,-1 0,-1 -1,-1 -1,-1 0,-1 -1,-1 -1,-1 0,-1 -1,-1 -1,-1 0,-1 -1,-1 -1,-1 0,-1 -1,-1 -1,-1 -1,-1 0,-1 -1,-1 -1,-1 0,-1 -1,-1 -1,-1 0,-1 -1,-1 -1,-1 0,-1 -1,-1 -1,-1 -1,-1 0,-1 -1,-1 -1,-1 0,-1 -1,-1 -1,-1 0,-1 -2,-2 0,-1 -1,-1 -1,-1 -1,-1 0,-1 -1,-1 -1,-1 -1,-1 0,-1 -1,-1 -1,-1 -1,-1 0,-1 -2,0 -1,1 -1,0 -1,1 -1,0 -1,1 -2,0 0,2 -1,1 -2,0 -1,-1 -1,0 -1,1 -1,0 -1,1 -1,0 -1,1 -2,0 -1,1 11,16 -2,0 -1,-1 0,-2 1,-1 2,0 1,1 0,2 -1,1 -11,-16Z"/>
<path onmouseover="hoverPath(evt)" onmouseout="recoverPath(evt)" fill="rgb(242,241,234)" d="M  162,56l 0,0 1,1 1,1 0,1 1,1 1,1 0,1 1,1 0,1 1,1 1,1 0,1 1,1 1,1 1,1 0,1 1,1 0,1 2,0 1,-1 1,0 1,-1 1,0 1,-1 2,0 1,-1 1,0 1,-1 1,0 1,-1 2,0 0,-2 1,-1 2,0 1,1 1,0 1,-1 1,0 1,-1 1,0 1,-1 2,0 0,-2 1,-1 2,0 1,1 1,0 1,-1 1,0 0,-2 1,-1 2,0 1,1 1,0 1,-1 1,0 1,-1 2,0 1,-1 1,0 0,-2 1,-1 2,0 1,-1 2,0 1,1 1,0 0,-2 1,-1 2,0 1,1 1,0 0,-2 1,-1 2,0 1,1 1,0 0,-2 -1,-1 0,-1 -1,-1 -1,-1 0,-1 -1,-1 -1,-1 0,-1 -1,-1 -2,0 -1,-1 -1,0 -1,1 -4,0 -1,-1 -1,1 -1,0 -1,1 -1,0 -1,1 -1,0 -1,1 -1,0 -1,1 -2,0 -1,1 -2,0 -1,1 -1,0 -1,1 -1,0 -1,1 -1,1 0,2 -1,1 -1,1 -1,0 -1,1 -1,1 -2,0 -1,1 -4,0 -1,-1 -1,-1 -1,-1 -1,-1 -1,-1 -1,1 -2,2 -1,1 -1,1 -1,1 -1,1 -1,0 -1,1 -1,1 -1,1 -7,0 -1,-1 -1,0 -1,-1 -1,0 -1,1Z"/>
<path onmouseover="hoverPath(evt)" onmouseout="recoverPath(evt)" fill="rgb(243,242,234)" d="M  203,233l 0,0 1,1 1,1 0,1 1,1 1,1 1,0 1,1 0,1 1,1 1,1 1,1 1,1 1,1 0,1 1,0 1,1 1,0 1,-1 1,0 1,-1 1,-1 1,0 1,-1 1,0 1,-1 1,0 1,-1 1,0 1,-1 1,0 1,-1 1,0 1,-1 1,0 1,-1 1,0 1,-1 1,0 1,-1 1,0 1,-1 1,0 1,-1 1,0 1,-1 1,0 1,-1 1,0 1,-1 1,0 1,-1 1,0 1,-1 2,0 0,-20 -1,0 -1,-1 -1,-1 -1,-1 0,-1 -1,-1 -1,-1 0,-1 -1,-1 -1,-1 0,-1 -1,-1 -1,-1 0,-1 -1,-1 -1,-1 -1,-1 0,-1 -1,-1 -1,-1 0,-1 -1,-1 -1,-1 0,-1 -1,-1 -1,-1 0,-1 -1,-1 -1,-1 -1,-1 0,-1 -1,-1 -1,-1 0,-1 -1,-1 -1,-1 0,-1 -1,-1 -1,-1 0,-1 -1,-1 -1,-1 0,-1 -1,-1 -1,-1 -1,-1 0,-1 -1,-1 -1,-1 0,-1 -1,-1 -1,-1 -1,-1 0,-1 -1,0 -1,-1 0,-2 -1,-1 -1,-1 -1,-1 0,-1 -1,-1 -1,0 -1,-1 0,-1 -2,0 -1,1 -1,0 0,2 -1,1 -1,1 -1,0 -1,1 -1,0 -1,1 -2,0 -1,-1 -1,1 -1,0 -1,1 -1,0 -1,1 -2,0 -1,-1 0,9 1,1 0,2 1,1 0,1 1,1 0,2 -1,1 -1,1 -2,0 -1,1 -3,0 -1,1 -1,0 0,1 -1,1 -1,1 -1,0 -1,1 -2,0 -1,-1 0,-9 -1,7 0,8 2,0 1,1 0,3 -1,1 1,1 0,0 1,1 0,2 1,0 1,1 0,1 1,1 1,0 1,1 0,1 1,1 1,1 2,0 1,1 2,0 1,1 0,5 -1,1 -2,0 -1,1 -1,1 -1,1 -1,0 -1,1 -2,0 -1,-1 -1,1 0,2 -1,1 -1,1 -1,0 -2,2 -1,0 -1,1 -1,0 -1,1 -1,1 -2,0 -1,-1 -1,1 0,2 -1,1 -2,0 -1,-1 -1,1 0,2 -1,1 -1,0 -1,1 0,2 -2,2 0,2 1,0 1,-1 2,0 1,1 1,0 1,-1 1,0 1,-1 1,0 1,-1 1,0 1,-1 1,0 1,-1 0,-2 1,-1 1,0 1,-1 1,0 1,-1 1,0 1,-1 1,0 1,-1 1,0 1,-1 1,0 1,-1 1,0 1,-1 1,0 1,-1 1,0 1,-1 1,0 1,-1 1,0 1,-1 1,-1 3,0 1,1 1,1 0,1 1,0 1,1 1,1 0,1 1,0 1,1 1,1 1,1 1,1 0,1 1,1 1,1 1,1 1,1 0,2 -1,1 -2,0 -1,-1 -1,-1 -2,0 0,1 -1,1 0,1 1,1 12,-6 1,-1 2,0 1,1 0,2 -1,1 -2,0 -1,-1 0,-2 -12,6 -7,-44 -1,-1 0,-2 1,-1 2,0 1,1 0,2 -1,1 -2,0 7,44Z"/>
<path onmouseover="hoverPath(evt)" onmouseout="recoverPath(evt)" fill="rgb(244,242,234)" d="M  210,111l -1,0 -1,1 0,1 1,1 0,1 1,1 1,1 0,1 1,1 1,1 0,1 1,1 1,0 1,1 0,2 1,1 0,1 1,1 1,1 0,1 1,1 1,1 1,1 0,1 1,1 1,1 0,1 1,1 1,1 1,1 0,1 1,1 0,1 1,1 1,1 1,1 0,1 1,1 1,1 0,1 1,1 0,1 1,1 0,1 1,1 1,1 1,0 1,-1 1,0 1,-1 1,0 1,-1 1,0 1,-1 1,0 1,-1 1,0 1,-1 1,0 1,-1 1,0 1,-1 2,0 0,-60 -1,0 -1,1 -1,0 -1,1 -1,0 -1,1 -1,0 -1,1 -1,0 -1,1 -1,0 -1,1 -1,0 -1,1 -1,0 -1,1 -1,1 -1,0 -1,1 -2,0 0,1 -1,1 -1,0 -1,1 -2,0 -1,1 -1,0 -1,1 -1,0 -1,1 -1,0 -1,1 -1,0 -1,1 -1,0 -1,1 -1,0 -1,1 -1,0 -1,1 -1,0 -1,1 -1,0 -1,1Z"/>
<path onmouseover="hoverPath(evt)" onmouseout="recoverPath(evt)" fill="rgb(244,242,235)" d="M  0,249l 0,6 56,0 0,-4 1,-1 1,-1 1,0 1,-1 1,0 1,-1 1,-1 1,0 1,-1 2,0 1,1 1,-1 1,0 1,-1 1,0 1,-1 1,-1 0,-2 1,-1 1,0 1,-1 2,0 1,1 1,0 0,-2 1,-1 7,0 1,-1 1,0 1,-1 1,0 1,-1 1,-1 1,0 1,-1 1,0 1,-1 1,0 1,-1 0,-1 -1,0 -1,-1 0,-4 -3,0 -1,-1 -1,-1 0,-4 -1,-1 -1,0 -1,-1 -1,-1 -1,-1 -2,0 -1,-1 -1,-1 -1,-1 0,-2 -1,-1 -1,-1 -1,-1 -3,0 -1,-1 -1,1 -1,0 -2,2 -2,0 -1,1 -1,0 -1,1 -1,0 -1,1 -1,0 -1,1 -1,0 -1,1 -1,1 -1,0 -1,1 -1,0 -1,1 -1,0 -1,1 -1,1 -1,0 -1,1 -1,0 -1,1 -2,0 -1,-1 -1,1 0,2 -1,1 -1,0 -1,1 -1,0 -1,1 -1,0 -1,1 -1,1 -1,0 -1,1 -1,0 -1,1 -1,1 -1,0 -1,1 -1,0 -1,1 -1,0 -1,1 -1,1 -1,0 -1,1 -1,0 -1,1 -2,0 -1,-1 -1,1 0,2 -1,1 -1,0 -1,1 -1,0 -1,1 -1,0 -1,1 -1,1 -1,0 -1,1 -1,1 -1,0 -1,1 -1,0 -1,1 -3,0Z"/>
<path onmouseover="hoverPath(evt)" onmouseout="recoverPath(evt)" fill="rgb(243,242,235)" d="M  45,1l 1,1 0,2 -1,1 1,1 0,1 1,1 1,1 0,1 1,1 0,1 1,1 1,1 0,1 1,1 1,1 0,1 1,1 1,0 1,1 1,0 2,2 0,4 1,1 1,1 1,1 0,1 1,1 1,1 2,0 1,1 0,2 1,-1 1,0 0,-2 1,-1 2,0 1,1 1,-1 1,0 1,-1 2,0 1,-1 1,0 1,-1 1,0 1,-1 1,0 0,-2 1,-1 1,0 1,-1 2,0 1,1 1,-1 1,0 1,-1 1,0 0,-2 1,-1 2,0 1,1 0,-2 1,-1 2,0 1,1 1,0 1,-1 1,0 1,-1 1,0 1,-1 1,0 0,-2 1,-1 1,0 1,-1 2,0 1,1 0,-3 -1,-1 0,-1 -1,-1 -1,-1 0,-1 -1,-1 -1,-1 0,-2 -64,0 -1,1 -1,-1 -1,0 0,1 1,0 0,-1 1,1Z"/>
<path onmouseover="hoverPath(evt)" onmouseout="recoverPath(evt)" fill="rgb(243,241,232)" d="M  222,65l -1,0 -1,-1 -1,1 0,1 -1,1 -4,0 0,1 1,1 0,0 1,1 0,2 -1,1 1,1 2,0 1,1 1,1 0,1 1,1 1,1 0,1 1,1 1,1 0,2 -1,1 3,0 1,1 0,2 1,0 1,1 0,3 -1,1 1,1 0,0 1,1 0,2 -1,1 -1,1 -1,1 -1,0 -1,1 -1,0 -1,1 -1,0 -1,1 -1,0 -1,1 -1,0 -1,1 -1,0 -1,1 -1,0 -1,1 -1,0 -1,1 -1,0 -1,1 -1,0 -1,1 -1,0 0,1 -1,1 0,2 1,1 1,0 -1,-1 0,-2 23,-13 1,0 1,-1 1,0 0,-1 1,-1 2,0 1,-1 1,0 1,-1 1,-1 1,0 1,-1 1,0 1,-1 1,0 1,-1 1,0 1,-1 1,0 1,-1 1,0 1,-1 1,0 1,-1 2,0 0,-20 -2,0 -1,-1 0,-1 -1,-1 -1,-1 0,-1 -1,-1 -1,-1 -1,0 -1,-1 0,-2 -1,-1 -1,-1 -1,0 -1,1 -2,0 -1,1 -1,0 -1,1 -2,0 -1,1 -1,0 0,2 -1,1 -2,0 -1,-1 -1,0 -1,1 -1,0 -1,1 -1,0 0,2 -1,1Z"/>
<path onmouseover="hoverPath(evt)" onmouseout="recoverPath(evt)" fill="rgb(240,240,233)" d="M  222,0l -1,0 0,2 1,1 1,0 1,1 0,2 1,1 1,1 0,1 1,1 1,1 0,1 1,1 2,0 1,1 1,1 0,4 1,1 1,1 0,1 1,1 1,1 0,1 1,1 1,0 1,1 0,1 1,1 0,2 1,1 1,0 1,1 1,0 1,1 0,4 1,1 1,1 0,1 3,0 1,-1 3,0 0,-40Z"/>
<path onmouseover="hoverPath(evt)" onmouseout="recoverPath(evt)" fill="rgb(243,242,235)" d="M  0,74l 0,18 3,0 1,1 0,2 1,1 1,1 0,1 1,1 1,1 0,1 1,1 1,1 2,0 2,2 1,1 1,1 1,1 1,1 0,2 1,1 1,1 1,1 1,0 1,1 1,0 1,1 0,1 1,1 1,1 1,1 1,0 1,1 1,0 1,1 0,1 1,1 1,1 3,0 1,1 1,1 0,3 1,0 1,-1 2,0 1,-1 1,0 1,-1 1,0 1,-1 1,0 0,-2 1,-1 2,0 1,1 1,-1 1,0 1,-1 2,0 1,-1 1,0 1,-1 1,0 0,-2 1,-1 2,0 1,1 1,-1 2,0 1,-1 1,0 0,-2 1,-1 2,0 1,1 1,0 0,-2 1,-1 2,0 1,1 1,-1 2,0 1,-1 1,0 1,-1 2,0 1,-1 1,0 1,-1 2,0 0,-2 1,-1 2,0 1,1 1,0 1,-1 1,0 1,-1 2,0 1,-1 0,-1 -1,-1 0,-1 -1,-1 -1,-1 0,-1 -1,-1 -1,-1 -1,-1 0,-1 -1,-1 -1,0 -1,-1 0,-2 -1,-1 -1,-1 0,-1 -1,-1 -1,-1 -2,0 -1,-1 -1,-1 0,-2 -1,0 -1,-1 -1,-1 0,-4 -1,-1 -1,0 -1,-1 0,-2 -1,-1 -1,-1 0,-1 -1,-1 -1,-1 -1,-1 0,-1 -1,-1 -1,-1 -1,0 -1,-1 -1,0 -1,-1 -1,-1 0,-4 -1,-1 -1,-1 -1,0 -1,-1 0,-1 -1,-1 0,-2 -1,-1 -1,-1 -2,0 0,2 -1,1 -2,0 -1,-1 -1,1 -1,0 -1,1 -1,0 -1,1 -2,0 -1,1 -1,0 -1,1 -1,0 -1,1 -1,0 -1,1 -1,0 0,2 -1,1 -2,0 -1,-1 -1,1 -1,0 -1,1 -2,0 -1,1 0,2 -1,1 -2,0 -1,-1 -1,0 -1,1 -1,0 -1,1 -1,0 0,2 -1,1 -1,0 -1,1 -2,0 -1,-1 -1,1 -1,0 -1,1 -2,0 -1,1 -1,0 -1,1 -1,0 -1,1 -1,0 -1,1 -1,0 -1,1 -2,0Z"/>
<path onmouseover="hoverPath(evt)" onmouseout="recoverPath(evt)" fill="rgb(251,240,148)" d="M  2,162l 0,-1 1,-1 0,-1 1,-1 5,0 0,-1 1,-1 4,0 1,-1 1,-1 1,-1 -1,-1 0,-5 -1,-1 -1,-1 -1,1 -4,0 -1,1 -1,1 -1,1 -1,0 -1,1 0,2 -1,1 -1,1 -2,0 0,8Z"/>
<path onmouseover="hoverPath(evt)" onmouseout="recoverPath(evt)" fill="rgb(248,249,247)" d="M  30,138l -1,0 -1,1 -1,1 0,2 2,0 1,1 1,-1 2,0 1,1 0,-2 1,-1 2,0 1,1 1,-1 1,0 0,-2 1,-1 1,0 1,-1 1,0 1,-1 2,0 1,-1 1,0 1,-1 1,0 1,-1 3,0 1,1 0,-2 1,-1 1,0 1,-1 1,0 1,-1 2,0 1,-1 2,0 1,1 0,-2 1,-1 1,0 1,-1 1,0 1,-1 3,0 1,1 0,-2 1,-1 1,0 1,-1 3,0 1,1 0,-2 1,-1 2,0 1,-1 1,0 1,-1 1,0 1,-1 3,0 1,1 0,-2 1,-1 2,0 1,-1 1,0 1,-1 2,0 1,-1 1,0 1,-1 1,0 1,-1 3,0 1,1 0,-2 1,-1 2,0 1,-1 2,0 1,-1 1,0 1,-1 1,0 1,-1 2,0 1,-1 1,0 1,-1 1,0 1,-1 5,0 1,1 0,3 1,-4 0,-2 1,-1 1,0 1,-1 1,0 1,-1 2,0 1,-1 1,0 1,-1 2,0 1,-1 1,0 1,-1 1,0 1,-1 3,0 1,1 0,-2 1,-1 2,0 1,-1 1,0 1,-1 1,0 1,-1 3,0 1,-1 1,0 1,-1 2,0 1,-1 2,0 0,-1 1,-1 3,0 1,1 0,-2 1,-1 2,0 1,-1 1,0 1,-1 1,0 1,-1 3,0 1,1 0,-2 1,-1 2,0 1,-1 2,0 1,1 0,-2 1,-1 2,0 1,-1 1,0 1,-1 4,0 1,1 0,-2 1,-1 4,0 0,-1 1,-1 1,-1 2,0 1,1 0,-2 1,-1 1,0 1,-1 1,0 1,-1 3,0 1,1 0,-2 1,-1 1,0 1,-1 2,0 1,-1 1,0 1,-1 2,0 1,-1 3,0 1,1 1,1 1,1 0,2 1,0 1,1 1,1 1,1 0,1 1,1 1,1 0,1 1,0 0,-22 -2,0 -1,1 -5,0 -1,-1 0,-1 -1,-1 -1,-1 0,-4 -1,0 -1,-1 -1,0 -1,-1 -1,-1 0,-2 -1,-1 0,-1 -1,0 -1,-1 -1,-1 0,-1 -1,-1 -1,-1 0,-1 -1,-1 -1,-1 0,-4 -1,-1 -2,0 -1,-1 -1,-1 0,-1 -1,-1 -1,-1 0,-1 -1,-1 -1,-1 0,-2 -1,0 -1,-1 -1,-1 0,-3 -8,0 0,2 1,1 1,1 0,1 1,1 1,1 0,2 1,0 1,1 1,1 0,2 -1,1 1,1 2,0 1,1 1,1 0,1 1,1 1,1 0,4 1,0 1,1 1,0 1,1 1,1 0,1 1,1 0,3 -1,1 -3,0 -1,1 1,0 4,-1 1,1 2,0 1,1 1,1 0,1 1,1 1,1 0,1 1,1 1,1 0,1 1,1 0,4 -1,1 -3,0 -1,-1 0,2 -1,1 -3,0 -1,-1 0,2 -1,1 -3,0 -1,-1 -1,1 -2,0 0,2 -1,1 -1,0 -1,1 -2,0 -1,1 -1,0 -1,1 -3,0 -1,-1 0,2 -1,1 -1,0 -1,1 -3,0 -1,-1 0,2 -1,1 -2,0 -1,1 -1,0 -1,1 -1,0 -1,1 -3,0 -1,-1 0,2 -1,1 -2,0 -1,1 -1,0 -1,1 -1,0 -1,1 -2,0 -1,1 -1,0 -1,1 -1,0 -1,1 -3,0 -1,1 -1,0 -1,1 -2,0 -1,1 -2,0 0,1 -1,1 -2,0 -1,1 -1,0 -1,1 -1,0 -1,1 -2,0 -1,1 -1,0 -1,1 -2,0 -1,1 -1,0 -1,1 -2,0 -1,1 -1,0 -1,1 -2,0 -1,1 -1,0 -1,1 -2,0 -1,1 -1,0 -1,1 -1,0 -1,1 -2,0 -1,1 -1,0 -1,1 -1,0 -1,1 -2,0 -1,1 -1,0 -1,1 -1,0 -1,1 -3,0 -1,-1 -1,-1 -2,0 -1,-1 -1,-1 0,-1 -1,-1 -1,-1 0,-2 -1,0 -1,-1 -1,-1 0,-1 -1,-1 -1,-1 -1,-1 0,-1 -1,-1 -1,-1 0,-4 -1,-1 -1,0 -1,-1 0,-2 -1,-1 -2,0 -1,-1 -1,-1 -1,-1 0,-1 -1,-1 -1,-1 -1,-1 0,-1 -1,-1 -1,-1 -1,-1 0,-2 1,-1 -2,0 -1,-1 -1,-1 0,-2 -1,-1 -1,-1 0,-1 -1,0 -1,-1 -1,-1 0,-1 -1,-1 -1,-1 -1,-1 0,-1 -1,-1 -1,-1 0,-1 -1,-1 0,-2 1,-1 1,-1 1,0 1,-1 1,0 1,-1 2,0 1,1 0,-2 1,-1 1,0 1,-1 1,0 1,-1 1,0 1,-1 1,0 1,-1 2,0 1,-1 1,0 1,-1 1,0 1,-1 1,0 1,-1 2,0 1,1 0,-2 1,-1 1,0 1,-1 1,0 1,-1 1,0 1,-1 1,0 1,-1 1,0 1,-1 1,0 1,-1 2,0 1,-1 2,0 1,1 1,-1 1,0 0,-2 1,-1 2,0 1,-1 1,0 1,-1 2,0 0,-1 1,-1 1,0 1,-1 1,0 1,-1 1,0 1,-1 1,0 1,-1 2,0 1,-1 2,0 1,1 0,-2 1,-1 1,0 1,-1 1,0 0,-1 -34,0 0,1 1,1 0,0 1,1 0,1 1,1 1,1 0,1 1,1 0,5 -1,1 -2,0 -1,-1 -1,1 -1,0 0,2 -1,1 -1,0 -1,1 -1,0 -1,1 -1,0 -1,1 -3,0 -1,-1 0,2 -1,1 -2,0 -1,-1 0,2 -1,1 -1,0 -1,1 -1,0 -1,1 -2,0 -1,-1 -1,1 -1,0 0,2 -1,1 -1,0 -1,1 -1,0 -1,1 -1,0 -1,1 -2,0 -1,1 -1,0 -1,1 -2,0 -1,-1 0,2 -1,1 -1,0 -1,1 -2,0 -1,-1 0,-2 -2,0 -1,-1 -1,-1 -1,-1 0,-1 -1,-1 -1,-1 -1,-1 0,-4 -1,-1 -1,0 -1,-1 -1,0 -1,-1 -1,-1 0,-1 -1,-1 -1,-1 0,-1 -1,-1 -1,-1 0,-1 -1,-1 0,-1 -1,-1 -1,-1 0,-1 -1,-1 0,-2 1,-1 -2,0 -1,-1 0,-2 -5,0 0,3 -1,1 1,1 0,1 1,1 0,1 1,1 0,1 1,1 0,1 2,0 1,1 1,1 0,2 -1,1 2,0 1,1 1,1 0,2 1,0 1,1 1,1 1,1 0,2 1,0 1,1 1,1 1,1 0,1 1,1 1,1 1,1 0,1 1,1 1,1 0,1 1,1 0,2 -1,1 -1,0 -1,1 -1,0 -1,1 -2,0 -1,-1 -1,1 -1,0 -1,1 -1,0 -1,1 -1,0 0,2 -1,1 -1,0 -1,1 -1,0 -1,1 -2,0 -1,1 -1,0 -1,1 -2,0 -1,1 -2,0 0,1 -1,1 -5,0 -1,-1 -1,-1 0,-1 -2,0 0,1 -1,1 1,1 0,4 -1,1 2,0 1,-1 1,0 1,-1 3,0 1,1 0,-2 1,-1 1,-1 2,0 1,-1 1,0 1,-1 2,0 1,1 0,-2 1,-1 1,0 1,-1 1,0 1,-1 1,0 1,-1 1,0 1,-1 2,0 1,-1 1,0 1,-1 1,0 1,-1 2,0 1,1 0,-2 1,-1 4,0 1,1 1,1 1,1 0,2 1,1 0,1 1,0 1,1 1,1 1,1 0,4 1,1 1,0 1,1 1,0 1,1 1,1 1,1 0,1 1,1 1,1 1,1 0,1 1,1 1,1 0,2 1,0 1,1 1,1 0,4 1,1 1,0 1,1 0,2 1,1 2,0 1,1 1,1 1,1 0,1 1,1 1,1 0,2 1,0 1,1 1,1 0,1 1,1 1,1 1,1 0,1 1,1 1,1 0,1 1,1 0,3 -1,1 -1,1 -2,0 -1,1 -1,0 -1,1 -3,0 -1,-1 0,2 -1,1 -2,0 -1,1 -1,0 -1,1 -2,0 -1,1 -1,0 -1,1 -2,0 -1,1 -2,0 -1,-1 0,2 -1,1 -3,0 -1,-1 0,2 -1,1 -1,0 -1,1 -2,0 -1,1 -2,0 -1,-1 0,2 -1,1 -1,0 -1,1 -1,0 -1,1 -2,0 -1,1 -1,0 -1,1 -2,0 -1,-1 0,2 -1,1 -1,0 -1,1 -1,0 -1,1 -1,0 -1,1 -2,0 -1,1 -3,0 -1,-1 0,-3 -1,-1 -3,0 -1,-1 -2,-2 0,-1 -1,0 -1,-1 -1,0 -1,-1 -3,-3 0,-1 -1,0 -1,-1 -1,0 -1,-1 -2,-2 -1,-1 0,-2 -1,-1 -1,-1 -1,-1 -1,-1 -1,-1 -2,0 -1,-1 -1,-1 -1,-1 0,-1 -1,-1 -1,-1 0,-1 -1,-1 -1,-1 0,-2 -2,0 0,4 2,0 1,1 1,1 0,2 1,0 1,1 1,1 0,1 3,3 1,1 1,1 0,1 1,0 1,1 1,1 1,1 0,1 2,0 1,1 1,1 1,1 1,1 0,1 2,0 1,1 1,1 1,1 1,1 1,1 0,1 1,0 1,1 1,0 3,3 0,1 1,1 0,2 -1,1 -1,1 -1,0 -1,1 -1,0 -1,1 -10,-77 -1,-1 -1,0 -1,1 -2,0 -1,-1 -1,1 -1,0 0,2 -1,1 -1,0 -1,1 -5,0 0,2 -1,1 -3,0 0,2 1,0 1,-1 1,0 1,-1 1,0 1,-1 1,0 1,-1 1,0 1,-1 2,0 1,-1 1,0 1,-1 2,0 1,1 1,-1 1,0 0,-2 10,77Z"/>
<path onmouseover="hoverPath(evt)" onmouseout="recoverPath(evt)" fill="rgb(243,241,232)" d="M  33,145l 0,0 -1,-1 -1,1 -1,0 0,1 1,0 1,1 1,1 1,1 1,1 0,1 1,1 1,1 4,0 1,1 1,1 1,1 0,2 1,1 1,1 0,1 1,1 1,1 4,0 1,1 1,1 1,1 0,2 1,1 1,1 3,0 1,1 1,1 0,3 1,1 1,1 2,0 1,1 0,1 1,1 1,1 2,0 1,1 0,1 1,1 1,1 1,0 1,1 1,1 1,1 2,0 1,1 1,1 0,1 4,0 1,1 0,2 1,1 1,1 1,1 0,1 1,1 1,1 1,1 1,1 1,1 1,1 1,1 1,0 1,1 2,0 1,1 1,1 0,4 1,1 1,0 1,1 1,1 0,1 1,1 1,1 1,1 2,0 0,-1 1,-1 1,0 0,-3 1,-1 0,-1 -1,0 -1,-1 -1,-1 -1,-1 -1,-1 -1,-1 0,-2 -1,0 -1,-1 -1,-1 -1,-1 -1,-1 -1,-1 0,-2 -1,0 -1,-1 0,-1 -1,-1 -1,-1 0,-1 -2,0 -1,-1 0,-17 -1,-1 0,-43 1,-1 0,-1 1,-1 1,-1 1,0 1,-1 33,0 0,-12 1,-1 0,-6 1,-1 0,-1 -1,-1 0,-3 -3,0 -1,1 -1,0 -1,1 -1,0 -1,1 -2,0 -1,1 -1,0 -1,1 -1,0 -1,1 -2,0 -1,1 -2,0 0,2 -1,1 -2,0 -1,-1 -1,0 -1,1 -1,0 -1,1 -1,0 -1,1 -2,0 -1,1 -1,0 -1,1 -2,0 0,2 -1,1 -2,0 -1,-1 -1,0 -1,1 -1,0 -1,1 -1,0 -1,1 -2,0 0,2 -1,1 -2,0 -1,-1 -1,0 -1,1 -1,0 0,2 -1,1 -2,0 -1,-1 -1,0 -1,1 -1,0 -1,1 -1,0 0,2 -1,1 -2,0 -1,-1 -1,1 -2,0 -1,1 -1,0 -1,1 -1,0 0,2 -1,1 -2,0 -1,-1 -1,0 -1,1 -1,0 -1,1 -1,0 -1,1 -2,0 -1,1 -1,0 -1,1 -1,0 0,2 -1,1 -1,0 -1,1 -2,0 -1,-1 0,2 -1,1Z"/>
<path onmouseover="hoverPath(evt)" onmouseout="recoverPath(evt)" fill="rgb(244,242,234)" d="M  131,252l 0,3 78,0 0,-2 1,-1 1,-1 1,0 0,-1 -1,-1 0,-2 1,-1 -1,-1 -1,-1 -1,-1 -1,-1 -1,-1 0,-1 -1,0 -1,-1 -1,-1 -1,-1 0,-1 -1,-1 -1,-1 -1,-1 0,-3 1,-1 0,-1 1,-1 4,0 -1,-1 -1,-1 0,-1 -1,-1 -1,-1 -1,-1 -1,0 -1,-1 0,-1 -1,-1 -1,0 -1,-1 0,-1 -1,-1 -1,0 -1,1 0,2 -1,1 -1,0 -1,1 -1,0 -1,1 -1,0 -1,1 -1,0 -1,1 -1,0 -1,1 -1,0 -1,1 -1,0 -1,1 -1,0 -1,1 -1,0 -1,1 -1,0 -1,1 -1,0 -1,1 -1,1 -1,0 -1,1 -1,0 -1,1 -1,0 -1,1 -1,0 -1,1 -2,0 -1,1 -1,0 -1,1 -2,0 -1,-1 -1,0 -1,1 -2,0 -1,-1 -1,0 -1,-1 0,-2 -1,-1 0,-1 -1,1 0,0 -1,1 -1,0 -1,1 -1,1 -7,0 -1,-1 -1,-1 -1,-1 -1,-1 0,-1 -1,-1 -1,-1 -1,-1 0,-2 -1,0 -1,-1 -1,-1 0,-1 -1,-1 0,-2 1,-1 1,0 1,-1 1,0 1,-1 1,0 1,-1 -5,0 -1,1 -6,0 -1,-1 0,3 -1,1 -1,0 0,1 -1,1 3,0 1,1 0,5 1,1 0,4 1,1 0,1 3,0 1,1 0,2 1,0 1,1 0,3 -1,1 1,1 0,0 1,1 0,1 1,0 1,1 0,2 1,1 0,1 1,1 1,1 4,-6 -1,-1 0,-2 1,-1 1,0 1,-1 1,0 1,-1 2,0 1,1 0,2 -1,1 -1,0 -1,1 -1,0 -1,1 -2,0 -4,6Z"/>
<path onmouseover="hoverPath(evt)" onmouseout="recoverPath(evt)" fill="rgb(244,243,237)" d="M  141,26l 0,1 1,1 1,1 0,1 1,1 1,1 1,1 0,1 1,1 0,1 1,1 0,1 1,1 1,1 0,1 1,1 0,1 1,1 0,1 1,1 0,1 1,1 1,1 0,1 1,1 1,0 0,-2 -1,-1 0,0 -1,-1 -1,-1 0,-1 -1,-1 0,-2 1,-1 3,0 1,1 3,3 1,1 0,1 1,0 1,1 1,0 1,1 2,0 1,1 1,0 1,-1 3,0 1,-1 1,-1 1,-1 1,-1 1,-1 1,-1 0,-1 1,-1 1,-1 1,-1 0,-1 1,-1 1,-1 1,-1 0,-1 1,-1 1,-1 0,-1 1,-1 1,-1 0,-1 1,-1 1,-1 0,-1 1,-1 0,-1 1,-1 0,-1 1,-1 0,-4 -1,-1 0,-1 -1,-1 -1,-1 -1,0 -1,-1 -4,0 -1,-1 -11,0 -1,-1 -2,0 -1,1 -1,0 -1,1 -1,1 -1,0 -1,1 -1,1 -1,0 -1,1 -1,0 -1,1 -1,0 -1,1 -1,0 -1,1 -2,0 -1,1 -1,0 0,1 -1,1 -1,0 -1,1 -1,0 -1,1 -1,0 -1,1 -2,0 -1,1 -1,1Z"/>
<path onmouseover="hoverPath(evt)" onmouseout="recoverPath(evt)" fill="rgb(243,242,234)" d="M  182,82l -1,0 -1,-1 -1,0 2,2 1,1 0,1 1,1 1,1 0,1 1,1 1,1 1,1 0,1 1,1 1,1 0,1 1,1 1,1 0,1 1,1 1,1 1,1 0,1 1,1 1,1 0,1 1,1 1,1 1,1 0,1 1,1 1,1 1,1 0,1 1,1 0,-3 1,-1 0,-1 1,-1 1,0 1,-1 1,0 1,-1 1,0 1,-1 1,0 1,-1 1,0 1,-1 1,0 1,-1 1,0 1,-1 1,0 1,-1 1,0 1,-1 1,0 1,-1 1,0 1,-1 1,-1 -1,-1 0,0 -1,-1 0,-2 1,-1 0,-1 -1,0 -1,-1 0,-2 -3,0 -1,-1 0,-1 -1,-1 -1,-1 0,-2 1,-1 -1,-1 0,0 -1,-1 0,-1 -1,-1 -2,0 -1,-1 -1,-1 0,-2 1,-1 -1,-1 -2,0 -1,-1 -2,0 -1,1 -1,0 -1,1 -2,0 0,2 -1,1 -2,0 -1,-1 -1,1 -2,0 0,2 -1,1 -2,0 -1,-1 -1,0 -1,1 -1,0 -1,1 -1,0 -1,1 -2,0 0,2 -1,1Z"/>
<path onmouseover="hoverPath(evt)" onmouseout="recoverPath(evt)" fill="rgb(253,253,253)" d="M  214,250l 0,2 -1,1 -1,0 -1,1 0,1 5,0 0,-3 1,-1 1,-1 1,0 1,-1 1,-1 1,0 1,-1 1,-1 1,0 1,-1 1,0 1,-1 1,0 1,-1 1,0 1,-1 1,0 1,-1 1,0 1,-1 1,0 1,-1 1,0 1,-1 1,0 1,-1 1,0 1,-1 1,0 1,-1 1,0 1,-1 1,0 1,-1 1,0 1,-1 3,0 0,-2 -1,0 -1,1 -1,0 -1,1 -1,0 -1,1 -1,0 -1,1 -1,0 -1,1 -1,0 -1,1 -1,0 -1,1 -1,0 -1,1 -1,0 -1,1 -1,0 -1,1 -1,0 -1,1 -1,0 -1,1 -1,0 -1,1 -1,0 -1,1 -1,0 -1,1 -1,0 -1,1 -1,0 -1,1 -1,1 -1,0 -1,1 -3,0 -1,1Z"/>
<path onmouseover="hoverPath(evt)" onmouseout="recoverPath(evt)" fill="rgb(243,242,234)" d="M  237,162l 0,0 1,1 0,1 1,1 1,1 1,1 0,1 1,1 1,1 0,1 1,1 1,1 0,1 1,1 1,1 1,1 0,1 1,1 1,1 0,1 1,1 1,1 1,1 0,1 1,1 1,0 0,-33 -2,0 -1,1 -1,0 -1,1 -1,0 -1,1 -1,0 -1,1 -1,0 -1,1 -1,0 -1,1 -1,0 -1,1 -4,0 1,1Z"/>
<path onmouseover="hoverPath(evt)" onmouseout="recoverPath(evt)" fill="rgb(249,202,112)" d="M  0,115l 0,13 2,0 1,1 1,0 1,1 0,2 1,1 0,3 2,0 1,1 1,1 0,5 -1,1 3,0 1,-1 2,0 1,1 1,1 1,1 0,2 1,0 1,1 1,1 1,1 1,0 1,1 1,1 0,1 1,1 1,1 1,1 1,1 1,1 1,1 0,2 1,1 4,0 1,1 1,1 0,1 1,1 1,1 0,2 1,1 0,4 1,0 1,-1 0,-1 1,-1 2,0 1,1 1,1 0,1 1,1 2,0 1,1 1,1 1,1 1,1 1,1 0,3 1,1 5,0 1,1 1,1 1,1 0,3 1,0 1,1 4,0 1,1 1,1 1,1 1,1 1,1 1,1 0,4 1,0 1,1 3,0 1,1 1,1 1,1 1,1 0,2 1,1 1,1 2,0 1,1 1,1 1,1 1,0 1,1 1,1 0,4 1,1 3,0 1,1 0,4 1,0 1,1 0,2 1,1 3,0 1,1 0,4 1,1 0,2 3,0 1,1 0,1 1,1 1,1 0,2 -1,1 0,1 3,0 1,1 0,1 1,1 1,1 0,2 -1,1 0,2 10,0 0,-2 -1,-1 0,0 -1,-1 0,-1 -1,-1 0,-2 -1,0 -1,-1 0,-1 -1,-1 -1,-1 0,-2 1,-1 0,-1 -1,0 -1,-1 0,-2 -3,0 -1,-1 0,-1 -1,-1 0,-4 -1,-1 0,-5 -4,0 -1,-1 0,-1 -1,0 -1,-1 -1,-1 -1,-1 -1,-1 0,-1 -1,-1 -1,0 -1,-1 -1,-1 0,-4 -1,-1 -2,0 -1,-1 -1,0 -1,-1 -1,-1 -1,-1 -1,-1 -1,-1 -1,-1 -1,-1 -1,-1 0,-1 -1,-1 -1,-1 -1,-1 0,-2 -4,0 -1,-1 0,-1 -1,-1 -2,0 -1,-1 -1,-1 -1,-1 -1,0 -1,-1 -1,-1 -1,-1 0,-1 -2,0 -1,-1 -1,-1 -1,-1 0,-1 -2,0 -1,-1 -1,-1 -1,-1 0,-3 -1,-1 -3,0 -3,-3 0,-2 -1,-1 -1,-1 -4,0 -1,-1 -1,-1 -1,-1 0,-1 -1,-1 -1,-1 0,-2 -1,-1 -1,-1 -4,0 -1,-1 -1,-1 -1,-1 0,-1 -1,-1 -1,-1 -1,-1 -1,0 -1,-1 0,-3 -2,0 -1,-1 -1,0 -1,-1 -1,-1 0,-1 -1,0 -1,-1 -1,-1 -1,-1 -1,-1 -1,-1 -1,-1 0,-2 -1,-1 -1,0 -1,-1 -1,-1 0,-5 -3,0 -1,-1 0,-2 -1,0 -1,-1 -1,-1 0,-1 -1,-1 -1,-1 0,-2 -1,0 -1,1 41,61 -1,0 -2,2 -1,1 -1,0 -1,1 -1,1 -1,1 -2,0 0,1 -1,1 -1,1 -2,0 0,1 -1,1 -1,1 7,-5 1,0 5,-4 3,-3 -41,-61Z"/>
<path onmouseover="hoverPath(evt)" onmouseout="recoverPath(evt)" fill="rgb(244,243,235)" d="M  187,3l 0,0 -1,1 3,0 1,1 3,0 1,1 2,0 1,1 1,0 1,1 1,1 0,1 1,1 1,1 0,1 1,1 0,6 -1,1 0,2 -1,1 0,1 -1,1 -1,1 0,1 -1,1 0,1 -2,2 0,1 -1,1 -1,1 0,1 -1,1 -1,1 -1,1 -1,1 0,1 -1,1 0,2 1,1 0,0 1,1 1,1 2,0 1,-1 1,0 1,-1 1,0 1,-1 1,0 1,-1 1,-1 1,-1 1,0 1,-1 1,0 1,-1 2,0 1,-1 2,0 1,-1 1,0 1,-1 1,0 1,-1 1,0 1,-1 1,0 1,-1 1,0 1,-1 1,0 1,-1 3,0 0,-1 -1,-1 0,-1 -1,-1 -1,0 -1,-1 -1,0 -1,-1 0,-4 -2,-2 0,-1 -1,-1 -2,0 -1,-1 -1,-1 0,-2 1,-1 -1,-1 -1,0 -1,-1 0,-2 -1,-1 -1,-1 0,-1 -1,-1 -1,-1 0,-3 -20,0 0,1 -1,1 -1,1Z"/>
<path onmouseover="hoverPath(evt)" onmouseout="recoverPath(evt)" fill="rgb(239,239,233)" d="M  29,43l -3,0 -1,-1 -2,0 -1,-1 0,2 -1,1 -2,0 -1,1 -1,0 -1,1 -1,0 0,1 1,1 2,0 1,1 1,0 1,1 3,0 1,1 0,1 1,1 3,0 0,-1 1,-1 2,0 1,-1 2,0 1,-1 1,0 1,-1 2,0 1,-1 1,0 1,-1 1,0 0,-2 1,-1 1,0 1,-1 1,0 1,-1 1,0 1,-1 2,0 1,1 1,-1 1,0 1,-1 1,0 -1,-1 0,-1 -1,-1 -1,-1 0,-1 -1,-1 -1,-1 -1,-1 0,-1 -1,-1 -1,-1 -1,0 -1,-1 0,-2 -1,-1 -1,-1 -1,0 -1,-1 0,-2 -1,-1 -2,0 -1,-1 0,-2 1,-1 -1,-1 -2,0 -1,-1 0,-1 -1,-1 0,-1 -1,-1 0,-1 -1,-1 0,-1 -1,-1 0,-2 1,-1 0,-2 -34,0 0,9 3,0 1,-1 5,0 0,-2 1,-1 9,0 1,1 1,1 1,1 1,1 1,1 1,1 1,1 0,2 -1,1 1,1 0,1 1,1 1,1 0,1 1,1 0,1 1,1 1,1 0,1 1,1 0,1 1,1 1,1 0,1 1,1 0,1 1,1 0,4 -1,1 0,1 -1,1 -1,1 -1,0 -1,1 -1,0 -1,1 -7,-3 -1,-1 -1,-1 -1,-1 -1,-1 -1,-1 -1,-1 -1,-1 -1,-1 -1,-1 -1,-1 -1,-1 -1,-1 -1,1 0,4 -1,1 2,-2 3,0 1,1 1,1 1,1 1,1 1,1 1,1 1,1 1,1 1,0 7,3Z"/>
<path onmouseover="hoverPath(evt)" onmouseout="recoverPath(evt)" fill="rgb(242,240,231)" d="M  100,131l -1,1 0,14 1,1 1,0 1,1 39,0 1,1 34,0 0,-6 -1,-1 0,-3 -1,-1 0,-2 -1,-1 0,-2 -1,-1 -1,0 -1,-1 -4,0 -1,-1 -6,0 -1,1 -27,0 -1,-1 -29,0 -1,1Z"/>
<path onmouseover="hoverPath(evt)" onmouseout="recoverPath(evt)" fill="rgb(239,240,234)" d="M  131,13l 0,1 1,1 1,1 1,1 0,1 1,1 1,1 1,1 1,1 2,0 1,1 1,-1 2,0 1,-1 1,0 1,-1 1,0 1,-1 1,0 0,-1 1,-1 1,0 1,-1 2,0 1,-1 1,0 1,-1 1,0 1,-1 1,0 1,-1 1,0 1,-1 1,-1 1,0 1,-1 1,-1 1,0 0,-3 1,-1 1,-1 8,0 1,-1 2,0 0,-2 -34,0 0,2 -1,1 -1,0 -1,1 -1,0 0,2 -1,1 -2,0 -1,-1 -1,1 -2,0 -1,1 -1,0 -1,1 -1,0 -1,1 -1,0 -1,1 -1,0 2,2Z"/>
<path onmouseover="hoverPath(evt)" onmouseout="recoverPath(evt)" fill="rgb(242,241,232)" d="M  221,251l 0,0 -1,1 -1,0 -1,1 0,2 37,0 0,-21 -2,0 -1,1 -1,0 -1,1 -1,0 -1,1 -1,0 -1,1 -1,0 -1,1 -1,0 -1,1 -1,0 -1,1 -1,0 -1,1 -1,0 -1,1 -1,0 -1,1 -1,0 -1,1 -1,0 -1,1 -1,0 -1,1 -1,0 -1,1 -1,0 -1,1 -1,1 -1,0 -1,1Z"/>
<path onmouseover="hoverPath(evt)" onmouseout="recoverPath(evt)" fill="rgb(243,240,231)" d="M  0,133l 0,19 1,0 1,-1 0,-2 1,-1 1,-1 1,0 1,-1 1,-1 0,-2 1,-1 0,-3 -1,-1 -2,0 -1,-1 0,-3 -1,-1 0,-2 -1,0 -1,-1 -1,0Z"/>
<path onmouseover="hoverPath(evt)" onmouseout="recoverPath(evt)" fill="rgb(243,242,233)" d="M  3,164l -3,0 0,40 1,0 1,-1 1,0 1,-1 1,0 1,-1 1,0 1,-1 1,0 1,-1 1,-1 0,-2 1,-1 1,-1 1,0 2,-2 1,-1 0,-1 1,-1 2,0 1,-1 1,-1 1,0 1,-1 1,-1 0,-1 1,-1 2,0 1,-1 0,-1 1,-1 2,0 1,-1 1,-1 1,-1 1,0 1,-1 1,-1 1,-1 0,-2 -1,-1 0,-2 -1,-1 -1,-1 0,-1 -1,-1 -4,0 -1,-1 -1,-1 0,-2 -1,-1 -1,-1 -1,-1 -1,-1 -1,-1 -1,-1 0,-1 -1,-1 -1,0 -1,-1 -1,-1 -1,-1 0,1 1,1 0,2 -1,1 -1,1 -1,1 -1,1 -4,0 0,1 -1,1 -5,0 0,1 -1,1 0,1 -1,1Z"/>
<path onmouseover="hoverPath(evt)" onmouseout="recoverPath(evt)" fill="rgb(172,198,238)" d="M  118,29l 0,0 -1,1 -1,0 0,1 -1,1 0,2 -1,1 0,1 -1,1 0,2 -1,1 0,1 -1,1 0,1 -1,1 0,1 -1,1 -1,1 0,1 -1,1 -1,1 -1,1 -1,1 -1,0 -1,1 -12,0 -1,-1 -4,0 -1,-1 -5,0 0,1 1,1 5,0 1,1 6,0 1,1 8,0 1,1 1,0 1,-1 1,0 0,-1 1,-1 1,-1 0,-1 1,-1 1,-1 0,-1 1,-1 2,-2 0,-1 1,-1 1,-1 0,-1 1,-1 0,-1 1,-1 0,-1 1,-1 0,-1 1,-1 0,-1 1,-1 0,-1 1,-1 1,-1 1,-1 1,0 1,-1 4,0 1,1 1,1 1,1 1,1 1,1 0,1 1,1 1,1 1,1 1,1 1,1 1,1 1,1 0,1 2,2 1,1 1,1 1,1 1,1 0,2 1,1 0,3 1,1 1,1 2,2 1,1 0,1 1,1 1,1 0,1 1,1 1,1 0,1 1,1 1,1 0,1 1,1 1,1 0,1 1,1 1,1 0,1 1,1 1,1 2,0 1,-1 2,0 1,-1 1,0 0,-1 -1,-1 0,-1 -1,-1 -2,-2 0,-1 -1,-1 -1,-1 0,-1 -1,-1 0,-1 -1,-1 -1,-1 0,-1 -2,-2 0,-2 2,-2 3,0 1,1 1,0 1,1 5,0 1,-1 2,-2 1,0 1,-1 1,-1 1,-1 1,-1 1,-1 2,-2 2,0 1,1 1,1 1,1 1,1 1,1 2,0 1,-1 2,0 1,-1 1,-1 1,0 1,-1 -4,2 -3,1 -2,0 -1,-1 -1,-1 -1,-1 -1,-1 0,-4 1,-1 0,-1 2,-2 1,-1 1,-1 0,-1 1,-1 1,-1 0,-1 1,-1 1,-1 0,-1 1,-1 0,-1 1,-1 1,-1 0,-1 1,-1 0,-2 1,-1 0,-4 -1,-1 0,-1 -2,-2 0,-1 -1,-1 -1,0 -1,-1 -2,0 -1,-1 -3,0 -1,-1 -3,0 -1,-1 0,-2 -1,1 -2,0 -1,1 -8,0 -1,1 0,1 3,0 1,1 11,0 1,1 4,0 1,1 1,0 1,1 1,1 1,1 0,1 1,1 0,6 -1,1 0,1 -1,1 0,1 -1,1 0,1 -1,1 -1,1 0,1 -1,1 -1,1 0,1 -1,1 -1,1 0,1 -1,1 -1,1 -1,1 0,1 -1,1 -1,1 -1,1 0,1 -1,1 -5,5 -1,1 -3,0 -1,1 -3,0 -1,-1 -2,0 -1,-1 -1,0 -1,-1 -1,0 -1,-1 0,-1 -4,-4 -1,0 1,1 0,1 1,1 0,0 1,1 1,1 0,4 -1,1 -3,0 -1,-1 -1,-1 0,-1 -1,-1 -1,-1 0,-1 -1,-1 0,-1 -1,-1 0,-1 -1,-1 0,-1 -1,-1 -1,-1 0,-1 -1,-1 0,-1 -1,-1 0,-1 -1,-1 -1,-1 -1,-1 0,-1 -1,-1 -1,-1 0,-4 -2,0 -2,-2 -1,-1 -1,-1 -1,-1 0,-1 -1,-1 -1,-1 -1,-1 0,-1 -1,-1 -2,0 -1,1 -1,0 -1,1 -2,0 2,1 0,0 1,1 0,1 1,1 0,4 -2,2 -1,1 -1,1 -1,0 -1,1 -1,1 67,-27 1,-1 1,-1 -3,0 0,2 1,0 -67,27Z"/>
<path onmouseover="hoverPath(evt)" onmouseout="recoverPath(evt)" fill="rgb(243,242,234)" d="M  125,221l 0,1 1,1 1,0 1,1 0,2 1,1 1,1 1,1 0,1 1,1 1,1 1,1 5,0 1,-1 0,0 1,-1 1,0 1,-1 1,-1 2,0 1,1 0,1 1,1 0,2 1,0 1,1 0,-4 1,-1 0,-1 -1,-1 0,-2 1,-1 1,0 1,-1 1,-1 1,0 1,-1 1,0 1,-1 1,-1 1,0 1,-1 1,0 1,-1 1,-1 2,0 1,1 1,-1 0,-2 1,-1 2,0 1,1 1,-1 0,-2 1,-1 1,-1 1,0 1,-1 1,-1 2,0 1,1 1,-1 1,0 1,-1 1,-1 1,-1 2,0 0,-3 -1,0 -1,1 -2,0 -1,-1 0,-1 -1,-1 -1,-1 -1,-1 0,-1 -1,0 -1,-1 -1,-1 0,-1 -1,0 -1,-1 0,-2 -1,-1 -1,-1 0,-2 1,-1 0,-1 -2,0 -1,-1 0,-10 1,-1 0,-6 1,-1 2,0 1,1 0,9 1,-1 1,0 1,-1 0,-1 1,-1 1,0 1,-1 3,0 1,-1 2,0 1,-1 -1,-1 0,-1 -1,-1 0,-2 -1,-1 0,-11 -1,-1 0,-3 -1,-1 0,-1 -1,-1 0,-1 -1,1 0,0 -1,1 0,9 -1,1 0,2 -1,1 -2,0 -1,-1 0,-4 -1,0 -1,-1 -41,0 -1,-1 -32,0 0,39 1,1 0,1 1,1 1,1 0,1 1,0 1,1 0,2 1,1 1,1 1,1 1,1 1,0 1,1 0,2 1,1 1,1 1,1 1,1 1,0 1,1 0,2 1,1 4,0 1,-1 7,0 1,1 0,2 -1,1 -1,1 -1,0 -1,1 -1,0 -1,1Z"/>
<path onmouseover="hoverPath(evt)" onmouseout="recoverPath(evt)" fill="rgb(243,241,232)" d="M  63,255l 54,0 0,-3 1,-1 -1,-1 0,0 -1,-1 0,-1 -3,0 -1,-1 0,-3 1,-1 -1,-1 0,0 -1,-1 0,-1 -3,0 -1,-1 0,-2 -1,-1 0,-4 -2,0 -1,1 -1,0 -1,1 -2,0 -1,-1 -1,1 -1,0 -1,1 0,2 -1,1 -1,0 -1,1 -2,0 -1,-1 -6,0 0,2 -1,1 -2,0 -1,1 -1,0 -1,1 -1,0 -1,1 -1,1 -1,1 -1,0 -1,1 -1,0 -1,1 -1,0 -1,1 -2,0 -1,-1 -1,1 0,0 -1,1 -1,0 -1,1 -1,0 -1,1 0,3Z"/>
<path onmouseover="hoverPath(evt)" onmouseout="recoverPath(evt)" fill="rgb(177,201,237)" d="M  171,86l 0,0 1,1 1,1 1,1 0,1 1,1 1,1 1,1 0,1 1,1 1,1 1,1 0,1 1,1 1,1 0,1 1,1 1,1 0,1 1,1 1,1 0,1 1,1 1,1 1,1 0,1 1,1 1,1 0,1 1,1 1,1 0,1 1,1 1,1 0,1 1,1 1,1 1,1 0,1 1,1 1,1 0,1 1,1 1,1 0,1 1,1 1,1 0,1 1,1 1,1 0,1 1,1 1,1 1,1 0,2 1,0 1,1 0,3 1,0 1,1 1,1 0,1 1,1 1,1 1,1 0,2 1,0 1,1 0,1 1,1 1,1 1,1 0,1 1,1 1,1 0,1 1,1 1,1 1,1 0,1 1,1 1,1 0,1 1,1 1,1 0,1 1,1 1,1 0,1 1,1 1,1 0,1 1,1 1,1 1,1 0,1 1,1 1,1 0,1 1,1 1,1 0,1 1,1 1,1 0,1 1,1 1,1 1,1 0,1 1,1 1,1 0,1 1,1 1,1 0,1 1,1 1,1 0,1 1,1 1,1 0,-18 -2,0 -1,-1 -1,-1 0,-1 -1,-1 -1,-1 -1,-1 0,-1 -1,-1 -1,-1 0,-1 -1,-1 -1,-1 -1,-1 0,-1 -1,-1 -1,-1 0,-1 -1,-1 -1,-1 0,-1 -1,-1 -1,-1 -1,-1 0,-1 -1,-1 0,-1 -1,-1 0,-2 1,-1 4,0 1,-1 1,0 1,-1 1,0 1,-1 1,0 1,-1 1,0 1,-1 1,0 1,-1 1,0 1,-1 3,0 0,-1 -1,0 -19,7 -1,-1 -1,-1 0,-1 -1,-1 0,-1 -1,-1 0,-1 -1,-1 -1,-1 0,-1 -1,-1 -1,-1 -1,-1 0,-1 -1,-1 0,-1 -1,-1 -1,-1 -1,-1 0,-1 -1,-1 -1,-1 0,-1 -1,-1 -1,-1 -1,-1 0,-1 -1,-1 -1,-1 0,-1 -1,-1 0,-2 -1,0 -1,-1 -1,-1 0,-1 -1,-1 -1,-1 0,-1 -1,-1 -3,0 -1,-1 -2,0 -1,-1 -1,-1 0,-1 -1,-1 -1,-1 -1,-1 0,-1 -1,-1 -1,-1 -1,-1 0,-1 -1,-1 -1,-1 0,-1 -1,-1 -1,-1 -1,-1 0,-1 -1,-1 -1,-1 0,-1 -1,-1 -1,-1 0,-1 -1,-1 -1,-1 -1,-1 0,-1 -1,-1 -1,-1 0,-1 -1,-1 -1,-1 -2,0 -1,1 -2,0 -1,1 -1,1Z"/>
<path onmouseover="hoverPath(evt)" onmouseout="recoverPath(evt)" fill="rgb(238,231,216)" d="M  0,103l 0,9 3,0 1,1 0,2 1,1 1,1 0,1 1,1 1,0 1,1 0,2 3,0 1,1 0,5 1,1 1,0 2,2 0,2 1,1 1,1 1,1 1,1 1,1 1,0 1,1 0,1 1,1 0,-2 1,-1 1,-1 1,-1 1,0 1,-1 1,0 1,-1 1,0 1,-1 -1,-1 0,-1 -1,-1 -1,-1 -1,0 -1,-1 -1,0 -1,-1 0,-1 -1,-1 -1,-1 -1,-1 -1,-1 -2,0 -1,-1 0,-1 -1,-1 -1,-1 -1,-1 -2,0 -1,-1 0,-1 -2,-2 -1,0 -1,-1 0,-1 -2,-2 -1,-1 -1,-1 -1,-1 0,-1 -1,-1 -1,0 -1,-1 0,-2 -1,-1 -1,0Z"/>
<path onmouseover="hoverPath(evt)" onmouseout="recoverPath(evt)" fill="rgb(240,240,233)" d="M  13,7l -2,0 0,2 -1,1 -5,0 -1,1 -4,0 0,55 2,0 0,-2 1,-1 5,0 1,-1 1,0 0,-2 1,-1 1,0 1,-1 2,0 1,1 1,-1 2,0 0,-2 -1,-1 0,-2 1,-1 0,-1 -1,0 -1,-1 -2,0 -1,-1 -1,-1 0,-3 1,-1 1,0 1,-1 1,0 1,-1 2,0 -1,-1 0,0 -1,-1 -1,-1 -1,-1 -1,-1 -1,-1 -1,-1 -1,-1 -1,0 -1,1 0,0 -1,1 -2,0 -1,-1 0,-2 1,-1 0,-4 1,-1 1,-1 2,0 1,1 1,1 1,1 1,1 1,1 1,1 1,1 1,1 1,1 1,1 1,1 1,1 1,1 0,1 2,0 1,1 1,0 1,-1 1,0 1,-1 1,0 1,-1 0,-1 1,-1 0,-2 -1,-1 0,-1 -1,-1 0,-1 -1,-1 -1,-1 0,-1 -1,-1 0,-1 -1,-1 -2,0 -1,-1 0,-2 1,-1 -1,-1 0,0 -1,-1 0,-1 -1,-1 0,-2 1,-1 -1,-1 -1,-1 -1,-1 -1,-1 -1,-1 -1,-1Z"/>
<path onmouseover="hoverPath(evt)" onmouseout="recoverPath(evt)" fill="rgb(253,252,252)" d="M  141,151l 0,0 -1,-1 -39,0 -1,-1 -1,0 -1,-1 -1,-1 0,26 1,1 0,-23 1,-1 1,0 -3,-4 0,-14 37,19 7,0 37,2 0,4 1,-3 0,-9 1,-1 1,-1 1,-1 -1,-1 0,-2 1,-1 -1,-1 -1,-1 -1,-1 -1,-1 -1,-1 -1,-1 0,-1 -1,-1 -3,-3 -1,0 -1,-1 0,-1 -1,-1 -1,-1 -1,-1 -1,-1 -1,-1 -1,-1 -1,-1 0,-1 -1,-1 -1,-1 -1,-1 3,5 5,5 1,1 0,2 -1,1 -31,0 -1,-1 0,-1 -1,-1 0,-5 1,-1 0,-1 1,-1 3,0 1,-1 1,-1 0,-8 -1,8 -1,1 -3,0 -1,-1 0,-6 1,-1 -1,0 1,-1 0,-2 -2,10 0,4 43,34 -37,-2 -1,-22 31,0 1,1 1,0 1,1 1,1 0,2 1,1 0,2 1,1 0,3 1,1 0,7 -38,-20 1,22 -7,-23 -33,0 31,1 1,0 1,-1 7,23Z"/>
</svg>