<svg width="256" height="256" xmlns="http://www.w3.org/2000/svg"><script> 
var tempColor;
function hoverPath(evt){
obj = evt.target;
tempColor = obj.getAttribute("fill");
obj.setAttribute("fill","red");
//alert(tempColor);
//obj.setAttribute("stroke","red");}
function recoverPath(evt){
obj = evt.target;
obj.setAttribute("fill", tempColor);
//obj.setAttribute("stroke", tempColor);
}</script><path onmouseover="hoverPath(evt)" onmouseout="recoverPath(evt)" fill="rgb(243,236,155)" d="M  0,12l 0,6 4,0 1,-1 5,0 1,-1 3,0 1,1 0,3 -1,1 1,0 -1,1 -1,-1 0,1 3,-3 0,0 1,-1 0,-1 1,-1 1,0 1,-1 8,0 1,-1 8,0 1,-1 8,0 1,-1 10,0 1,1 1,1 1,1 1,1 1,1 1,0 1,1 1,1 1,1 1,1 1,1 2,0 1,1 1,1 1,1 0,1 2,0 -1,-1 0,0 -1,-1 -1,-1 -1,-1 0,-1 -1,-1 -1,-1 -1,-1 -1,-1 -1,-1 -1,0 -1,-1 0,-2 1,-1 0,-1 1,-1 6,0 0,-2 1,-1 40,0 0,-1 1,-1 1,-1 1,-1 -42,0 -1,1 -9,0 -1,-1 -8,0 -1,1 -7,0 -1,-1 -1,-1 0,-2 -20,0 0,3 -1,1 0,1 -1,1 -1,1 -2,0 -1,1 -7,0 -1,1 -7,0 -1,1 -3,0Z"/>
<path onmouseover="hoverPath(evt)" onmouseout="recoverPath(evt)" fill="rgb(240,239,231)" d="M  69,12l -2,0 0,1 -1,1 1,0 1,1 0,0 1,1 1,1 1,1 1,1 1,1 0,1 1,1 1,1 1,1 1,1 0,1 1,1 1,1 1,1 1,0 1,1 1,1 1,1 1,0 1,1 0,1 1,1 0,4 -1,1 -2,0 0,1 1,1 1,0 1,1 0,1 1,1 0,1 5,0 0,-8 -1,-1 0,0 -1,-1 0,-4 1,-1 0,-4 1,-1 1,-1 0,-1 1,-1 6,0 0,-5 1,-1 1,-1 1,-1 1,-1 1,-1 1,-1 0,-1 -33,0 -1,1Z"/>
<path onmouseover="hoverPath(evt)" onmouseout="recoverPath(evt)" fill="rgb(244,243,236)" d="M  199,240l 0,0 1,1 0,2 1,1 0,2 1,1 0,3 1,1 0,4 52,0 0,-18 -2,0 -1,-1 0,-2 -1,-1 0,-2 -1,-1 0,-1 -1,0 -1,1 -4,0 -1,1 -4,0 -1,1 -4,0 -1,1 -4,0 -1,1 -4,0 -1,1 -5,0 -1,1 -4,0 -1,1 -4,0 -1,1 -4,0 -1,1 -2,0 -1,1Z"/>
<path onmouseover="hoverPath(evt)" onmouseout="recoverPath(evt)" fill="rgb(171,198,237)" d="M  222,11l -2,0 1,1 0,0 1,1 1,0 1,1 2,2 1,1 1,1 1,1 1,0 1,1 1,1 1,1 1,1 1,1 0,1 1,1 1,1 1,1 1,1 1,1 1,1 1,1 1,1 1,1 1,1 1,1 0,1 1,1 1,1 1,1 1,1 1,1 1,1 1,1 1,1 1,0 0,-7 -2,0 -1,-1 -2,-2 -1,-1 -1,-1 -1,-1 -1,-1 -1,-1 -1,-1 -1,-1 -1,-1 -1,-1 -1,-1 -1,-1 -1,-1 -1,0 -1,-1 -1,-1 -1,-1 -1,-1 -1,-1 -1,-1 -1,-1 -1,0 -1,-1 -1,-1 -1,-1 0,-1 -1,0 -1,-1Z"/>
<path onmouseover="hoverPath(evt)" onmouseout="recoverPath(evt)" fill="rgb(243,241,233)" d="M  234,167l -2,0 0,1 1,1 0,0 1,1 0,4 -1,1 2,0 1,1 0,2 1,1 0,1 1,1 0,2 1,1 0,1 1,1 0,2 -1,1 2,0 1,1 0,1 1,1 0,2 1,1 0,1 1,1 0,1 1,1 0,1 3,0 1,1 0,2 -1,1 0,3 1,1 0,2 1,1 0,3 1,1 0,2 1,1 0,3 1,1 0,1 1,1 0,-61 -2,0 -1,1 -4,0 -1,1 -4,0 -1,1 -4,0 -1,1Z"/>
<path onmouseover="hoverPath(evt)" onmouseout="recoverPath(evt)" fill="rgb(245,244,237)" d="M  0,1l 0,7 2,0 1,-1 7,0 1,-1 7,0 1,-1 2,0 1,-1 0,-1 1,-1 0,-2 -22,0 -1,1Z"/>
<path onmouseover="hoverPath(evt)" onmouseout="recoverPath(evt)" fill="rgb(251,252,252)" d="M  0,181l 0,1 2,0 1,-1 6,0 1,-1 7,0 1,-1 7,0 1,-1 7,0 1,-1 7,0 1,-1 4,0 1,1 1,1 0,1 1,1 0,1 1,1 0,2 1,1 0,3 -1,1 2,0 1,1 0,2 1,1 0,2 1,1 0,5 -1,1 0,1 1,0 1,1 3,0 1,-1 2,0 1,-1 4,0 1,-1 3,0 1,-1 4,0 1,-1 2,0 1,-1 3,0 1,-1 4,0 1,-1 3,0 1,-1 4,0 1,-1 2,0 1,-1 3,0 1,-1 4,0 1,-1 4,0 1,-1 4,0 1,-1 4,0 1,-1 4,0 1,-1 4,0 1,-1 5,0 1,-1 4,0 1,-1 4,0 1,-1 4,0 1,-1 4,0 1,-1 8,0 1,1 0,1 1,0 1,1 0,3 -1,1 2,0 1,1 0,2 1,1 0,3 1,1 0,2 1,1 0,2 1,1 0,2 1,1 0,3 1,1 0,4 1,1 0,3 -1,1 -1,0 -1,1 8,0 1,-1 2,0 1,-1 2,0 1,-1 3,0 1,-1 3,0 1,-1 3,0 1,-1 3,0 1,-1 3,0 1,-1 3,0 1,-1 3,0 1,-1 4,0 1,-1 2,0 1,-1 3,0 1,-1 3,0 1,-1 3,0 1,-1 3,0 1,1 1,1 0,2 1,1 0,3 1,1 0,2 1,1 0,3 1,1 0,4 1,1 0,2 1,1 0,1 1,1 0,2 1,1 0,2 1,0 0,-8 -1,0 -1,-1 0,-1 -1,-1 0,-1 -1,-1 0,-3 -1,-1 0,-2 -1,-1 0,-3 -1,-1 0,-2 -1,-1 0,-5 1,-1 -3,0 -1,-1 0,-1 -1,-1 0,3 -1,1 -1,0 -1,1 -3,0 -1,1 -3,0 -1,1 -3,0 -1,1 -3,0 -1,1 -3,0 -1,1 -3,0 -1,1 -4,0 -1,1 -2,0 -1,1 -3,0 -1,1 -3,0 -1,1 -3,0 -1,1 -4,0 -1,1 -8,0 -1,-1 0,-4 -1,-1 0,-3 -1,-1 0,-3 -1,-1 0,-2 -1,-1 0,-2 -1,-1 0,-2 -1,-1 0,-3 -1,-1 0,-1 -1,-1 0,-2 -1,-1 0,-2 -1,-1 -1,-1 -1,0 -1,-1 -7,0 -1,-1 -3,0 -1,1 -4,0 0,2 -1,1 -3,0 -1,1 -6,0 -1,1 -3,0 -1,1 -6,0 -1,-1 -3,0 -1,1 -4,0 0,2 -1,1 -3,0 -1,1 -4,0 -1,1 -6,0 -1,-1 -3,0 0,2 -1,1 -2,0 -1,1 -4,0 -1,1 -3,0 -1,1 -3,0 -1,1 -3,0 -1,1 -3,0 -1,1 -3,0 -1,1 -4,0 -1,1 -3,0 -1,1 -5,0 -1,-1 0,-2 -1,0 -1,-1 0,-2 -1,-1 0,-3 1,-1 -2,0 -1,-1 0,-2 -1,-1 0,-3 1,-1 -2,0 -1,-1 0,-5 1,-1 3,0 1,-1 -1,0 -4,1 -1,-1 -1,0 -1,1 -5,0 -1,1 -8,0 -1,1 -7,0 -1,1 -7,0 -1,1 -7,0 -1,1 -7,0 -1,1Z"/>
<path onmouseover="hoverPath(evt)" onmouseout="recoverPath(evt)" fill="rgb(243,242,235)" d="M  0,117l 0,61 7,0 1,-1 7,0 1,-1 7,0 1,-1 7,0 1,-1 8,0 1,-1 5,0 1,-1 3,0 1,1 1,0 1,-1 8,0 1,1 6,0 0,-2 1,-1 8,0 1,1 6,0 0,-2 1,-1 3,0 0,-4 -1,-1 0,-7 -1,-1 0,-5 -1,-1 0,-5 -1,-1 0,-5 -1,-1 0,-4 -1,-1 0,-6 -1,-1 0,-5 -1,-1 0,-6 -1,-1 0,-5 -1,-1 0,-6 -1,-1 0,-5 -1,-1 0,-6 -1,-1 0,-5 -1,-1 0,-6 -1,-1 0,-6 -1,-1 0,-6 -1,-1 0,-6 -1,-1 0,-9 -1,-1 0,-7 -1,-1 0,-6 -1,-1 0,-3 -1,-1 -1,-1 -1,-1 -1,-1 -1,-1 -1,0 -1,-1 -1,-1 -1,-1 -1,-1 -1,-1 -8,0 -1,1 -8,0 -1,1 -8,0 -1,1 -8,0 -1,1 -1,0 0,1 -1,1 -1,1 0,1 -1,1 -1,1 -3,0 -1,-1 0,-3 1,-1 1,0 0,-1 -1,0 -1,1 -5,0 -1,1 -5,0Z"/>
<path onmouseover="hoverPath(evt)" onmouseout="recoverPath(evt)" fill="rgb(174,199,230)" d="M  84,193l -3,0 -1,1 -4,0 -1,1 -4,0 -1,1 -4,0 -1,1 -4,0 -1,1 0,1 3,0 1,-1 3,0 1,-1 4,0 1,-1 3,0 1,-1 3,0 1,-1 2,0 1,-1 4,0 1,-1 3,0 1,-1 4,0 1,-1 2,0 -3,-1 -1,-1 -1,-1 0,-5 -1,-1 0,-6 -1,-1 0,-2 -1,1 -1,0 0,1 1,1 0,6 1,1 0,8 -1,1 -7,2 -1,0 4,-1Z"/>
<path onmouseover="hoverPath(evt)" onmouseout="recoverPath(evt)" fill="rgb(244,243,237)" d="M  139,1l 35,0 1,1 30,0 0,-2 -65,0 -1,1 -1,-1 -8,0 0,1 7,0 1,-1 1,1Z"/>
<path onmouseover="hoverPath(evt)" onmouseout="recoverPath(evt)" fill="rgb(243,242,233)" d="M  191,221l 0,0 1,1 0,2 1,1 0,1 1,1 0,2 1,1 0,1 1,1 0,1 1,0 1,1 1,0 1,-1 4,0 1,-1 4,0 1,-1 4,0 1,-1 4,0 1,-1 4,0 1,-1 4,0 1,-1 4,0 1,-1 4,0 1,-1 4,0 1,-1 3,0 0,-3 -1,-1 0,-3 -1,-1 0,-2 -1,-1 0,-3 -1,-1 0,-2 -1,-1 -1,0 -1,1 -3,0 -1,1 -3,0 -1,1 -3,0 -1,1 -2,0 -1,1 -4,0 -1,1 -3,0 -1,1 -3,0 -1,1 -3,0 -1,1 -3,0 -1,1 -3,0 -1,1 -3,0 -1,1 -3,0 -1,1 -2,0Z"/>
<path onmouseover="hoverPath(evt)" onmouseout="recoverPath(evt)" fill="rgb(245,244,237)" d="M  216,0l -1,0 0,1 1,1 20,0 1,1 9,0 0,-3Z"/>
<path onmouseover="hoverPath(evt)" onmouseout="recoverPath(evt)" fill="rgb(245,244,237)" d="M  230,12l -2,0 1,1 0,0 1,1 1,0 1,1 1,1 1,1 1,1 1,1 1,1 1,1 1,0 1,1 1,1 1,1 1,1 1,1 1,1 1,1 1,1 1,1 1,1 1,1 1,1 1,1 1,1 1,1 1,0 0,-23 -14,0 -1,-1Z"/>
<path onmouseover="hoverPath(evt)" onmouseout="recoverPath(evt)" fill="rgb(243,242,234)" d="M  0,186l 0,22 1,0 1,-1 5,0 1,-1 4,0 1,-1 3,0 1,-1 4,0 1,-1 3,0 1,-1 4,0 1,-1 4,0 1,-1 3,0 1,-1 3,0 1,-1 5,0 1,-1 3,0 -1,-1 0,-2 -1,-1 0,-2 -2,0 -1,-1 0,-2 1,-1 0,-1 -1,-1 0,-2 -1,-1 0,-1 -1,-1 0,-1 -1,-1 -2,0 -1,1 -7,0 -1,1 -7,0 -1,1 -7,0 -1,1 -7,0 -1,1 -6,0 -1,1 -3,0Z"/>
<path onmouseover="hoverPath(evt)" onmouseout="recoverPath(evt)" fill="rgb(234,229,194)" d="M  68,2l 4,0 1,-1 45,0 1,1 1,0 0,-2 -73,0 0,1 1,1 5,0 1,-1 10,0 1,1Z"/>
<path onmouseover="hoverPath(evt)" onmouseout="recoverPath(evt)" fill="rgb(243,246,250)" d="M  84,98l 2,-2 2,0 -4,1 -1,0 0,2 1,-1 -1,5 0,2 1,1 0,5 1,1 0,7 1,1 0,6 1,1 0,6 1,1 0,6 1,1 0,5 1,1 0,8 -1,1 0,6 1,1 0,6 -1,1 1,0 1,1 1,-1 4,0 1,-1 4,0 -5,-1 0,0 -1,-1 -1,-1 0,-3 -1,-1 0,-3 -1,-1 0,-4 2,-2 -2,0 -1,-1 0,-2 -8,-46 1,-5 6,48 0,-3 -1,-3 0,-3 -1,-4 0,-3 -1,-4 0,-3 -1,-4 0,-1 1,-1 1,-1 1,-1 3,0 1,-1 2,0 -10,-3 0,-2 -1,-4 0,-1 12,48 2,0 -8,-6 -6,-48Z"/>
<path onmouseover="hoverPath(evt)" onmouseout="recoverPath(evt)" fill="rgb(241,240,234)" d="M  96,174l 0,6 1,1 0,5 1,1 1,1 1,0 1,-1 5,0 1,1 4,0 1,-1 4,0 1,-1 3,0 0,-2 1,-1 4,0 1,-1 5,0 1,1 4,0 1,-1 3,0 1,-1 6,0 1,-1 3,0 0,-2 1,-1 4,0 1,-1 4,0 1,-1 4,0 1,-1 4,0 1,-1 5,0 1,-1 4,0 1,-1 4,0 1,-1 4,0 1,-1 8,0 1,-1 3,0 1,-1 4,0 1,-1 4,0 1,-1 4,0 1,-1 6,0 1,1 0,1 1,0 1,1 0,-1 1,-1 5,0 1,-1 4,0 1,-1 4,0 1,-1 4,0 1,-1 3,0 0,-2 -1,0 -1,1 -4,0 -1,1 -3,0 -1,1 -4,0 -1,1 -4,0 -1,1 -2,0 -136,10 134,-9 -1,0 -1,-1 0,-1 -5,0 -3,1 -2,0 -3,1 -1,0 -4,1 -1,0 -4,1 -1,0 -3,1 -4,0 -1,-1 -2,0 -1,-1 0,-2 -1,-1 0,-4 1,-1 0,-2 -1,-1 0,-1 -1,-1 0,-1 -1,-1 -1,1 -3,0 -1,1 -3,0 -1,1 -4,0 -1,1 -4,0 -1,1 -3,0 -1,1 -4,0 0,2 -1,1 -5,0 -1,-1 -3,0 -1,1 -4,0 -1,1 -3,0 -1,1 -5,0 -1,1 -7,0 -1,-1 0,-1 -1,-1 0,-3 -1,-1 0,-3 -2,0 -1,-1 0,-1 -1,-1 0,-1 -5,0 -1,-1 -2,0 0,2 -1,1 -4,0 -1,-1 -3,0 -1,1 -5,0 0,2 -1,1 -4,0 -1,1 0,2 1,1 0,3 1,1 0,3 1,1 1,1 4,0 1,1 0,2 -1,1 -4,0 -1,1 -2,0 0,1 135,-8 -134,9Z"/>
<path onmouseover="hoverPath(evt)" onmouseout="recoverPath(evt)" fill="rgb(243,242,234)" d="M  0,223l 0,21 4,0 1,-1 4,0 1,-1 4,0 1,-1 3,0 1,-1 4,0 1,-1 5,0 1,1 4,0 0,-2 1,-1 5,0 1,-1 5,0 1,1 4,0 0,-2 1,-1 4,0 1,-1 5,0 1,-1 5,0 1,-1 4,0 1,-1 5,0 1,-1 5,0 1,-1 5,0 1,1 4,0 0,-2 1,-1 5,0 1,-1 5,0 1,1 4,0 0,-2 1,-1 4,0 1,-1 6,0 1,1 4,0 1,-1 12,0 1,-1 13,0 1,-1 10,0 0,-2 1,-1 8,0 1,-1 1,0 0,-1 -1,-1 0,-4 -1,-1 0,-3 -1,-1 0,-2 -1,-1 0,-2 -1,-1 0,-2 -1,-1 0,-3 -1,-1 0,-2 -2,0 -1,-1 0,-2 1,-1 0,-1 -1,0 -1,-1 0,-1 -6,0 -1,1 -4,0 -1,1 -4,0 -1,1 -4,0 -1,1 -4,0 -1,1 -5,0 -1,1 -4,0 -1,1 -4,0 -1,1 -4,0 -1,1 -4,0 -1,1 -4,0 -1,1 -4,0 -1,1 -3,0 -1,1 -2,0 -1,1 -4,0 -1,1 -3,0 -1,1 -4,0 -1,1 -3,0 -1,1 -2,0 -1,1 -4,0 -1,1 -3,0 -1,1 -4,0 -1,1 -2,0 -1,1 -5,0 -1,-1 -6,0 -1,1 -4,0 -1,1 -5,0 -1,1 -3,0 -1,1 -1,0 -1,1 -1,0 0,2 -1,1 -2,0 -1,1 -2,0 -1,-1 0,-2 1,-1 0,-1 1,-1 -1,0 -1,1 -4,0 -1,1 -4,0 -1,1 -4,0 -1,1 -4,0 -1,1 -2,0Z"/>
<path onmouseover="hoverPath(evt)" onmouseout="recoverPath(evt)" fill="rgb(244,243,235)" d="M  0,251l 0,4 196,0 0,-2 -1,-1 0,-2 -1,-1 0,-1 -1,-1 0,-2 -1,-1 0,-2 -1,-1 0,-2 -1,-1 0,-1 -1,-1 0,-2 -1,-1 0,-2 -1,-1 0,-2 -1,-1 0,-2 -1,-1 0,-3 -15,0 -1,1 -10,0 -1,1 -13,0 -1,1 -12,0 -1,1 -6,0 -1,-1 -4,0 -1,1 -4,0 0,2 -1,1 -6,0 -1,-1 -3,0 -1,1 -5,0 0,2 -1,1 -6,0 -1,-1 -3,0 -1,1 -5,0 -1,1 -5,0 -1,1 -4,0 -1,1 -5,0 -1,1 -5,0 -1,1 -4,0 0,2 -1,1 -6,0 -1,-1 -3,0 -1,1 -5,0 0,2 -1,1 -6,0 -1,-1 -3,0 -1,1 -4,0 -1,1 -3,0 -1,1 -4,0 -1,1 -4,0 -1,1 -5,0Z"/>
<path onmouseover="hoverPath(evt)" onmouseout="recoverPath(evt)" fill="rgb(205,220,240)" d="M  30,207l 1,0 1,-1 3,0 1,-1 5,0 1,-1 4,0 1,-1 5,0 0,-2 1,-1 0,-1 -2,0 -1,1 -5,0 -1,1 -3,0 -1,1 -3,0 -1,1 -4,0 -1,1 -4,0 -1,1 -3,0 -1,1 -4,0 -1,1 -3,0 -1,1 -4,0 -1,1 -5,0 -1,1 -2,0 0,1 1,0 2,-1 3,0 3,-1 2,0 3,-1 2,0 2,-1 3,0 2,-1 2,0 1,1 0,2 -1,1 0,1 -1,1 2,-1 1,0 0,-2 1,-1 1,0 1,-1Z"/>
<path onmouseover="hoverPath(evt)" onmouseout="recoverPath(evt)" fill="rgb(243,242,234)" d="M  54,180l 0,0 1,1 0,2 -1,1 0,1 1,1 0,2 2,0 1,1 0,2 -1,1 0,1 1,1 0,2 1,0 1,-1 4,0 1,-1 4,0 1,-1 4,0 1,-1 4,0 1,-1 4,0 1,-1 5,0 1,-1 0,-6 -1,-1 0,-6 -1,-1 0,-3 -3,0 -1,1 -8,0 -1,-1 -6,0 0,2 -1,1 -7,0 -1,1 -5,0 -1,1 -3,0 0,3Z"/>
<path onmouseover="hoverPath(evt)" onmouseout="recoverPath(evt)" fill="rgb(175,199,232)" d="M  84,127l 0,4 1,1 0,4 1,1 0,5 1,1 0,5 1,1 0,-1 -1,-6 -1,-6 0,-1 -1,-4 0,-3 -1,-1 -1,-6 1,0 -1,-1 0,-7 -1,-1 0,-5 -1,-1 0,-14 -1,-1 0,-5 -1,-1 0,-6 -1,-1 0,-5 -1,-1 0,-7 -1,-1 0,-4 -1,-1 0,-5 -1,-1 0,-7 -1,-1 0,-6 -1,-1 0,-5 -1,-1 0,-6 -1,-1 -1,-1 0,2 1,1 0,6 1,1 0,7 1,1 0,9 1,1 0,6 1,1 0,6 1,1 0,6 1,1 0,6 1,1 0,5 1,1 0,6 1,1 0,5 1,1 0,6 3,16 1,6 -3,-20 0,4 1,2Z"/>
<path onmouseover="hoverPath(evt)" onmouseout="recoverPath(evt)" fill="rgb(244,242,235)" d="M  89,118l -1,1 0,2 1,1 0,6 1,1 0,6 1,1 0,5 1,1 0,5 1,1 0,2 5,0 1,-1 5,0 1,-1 5,0 1,1 2,0 0,-2 1,-1 4,0 1,1 5,0 1,1 0,1 1,1 0,1 2,0 1,1 0,3 1,1 0,3 1,1 0,1 5,0 1,-1 5,0 1,-1 3,0 1,-1 4,0 1,-1 5,0 1,1 3,0 0,-2 1,-1 4,0 1,-1 3,0 1,-1 4,0 1,-1 4,0 1,-1 3,0 1,-1 3,0 1,-1 2,0 1,1 1,1 0,1 1,1 0,1 1,1 0,4 -1,1 0,2 1,1 0,2 2,0 1,1 4,0 1,-1 4,0 1,-1 4,0 1,-1 3,0 1,-1 4,0 1,-1 7,0 1,1 3,0 1,-1 4,0 1,-1 4,0 1,-1 3,0 1,-1 4,0 1,-1 2,0 0,-110 -2,0 -1,-1 -1,-1 -6,-6 -1,-1 0,-1 -1,-1 -1,-1 -1,-1 -1,-1 -1,-1 -1,-1 -1,-1 -2,-2 -1,-1 -1,-1 0,-1 -1,-1 -1,-1 -1,-1 -1,-1 -1,0 -3,-3 -1,-1 -1,-1 -1,-1 -1,0 -3,-3 -40,0 -1,-1 -50,0 -1,-1 0,-1 -1,0 0,2 -1,1 -9,0 -1,-1 -5,0 0,2 -1,1 -1,1 -1,1 -1,1 -1,1 -1,1 0,5 -1,1 -6,0 0,1 -1,1 -1,1 0,4 -1,1 0,2 1,1 0,0 1,1 0,10 -1,1 -7,0 -1,-1 0,-1 -1,-1 0,-1 -1,0 -1,-1 -1,-1 0,-3 1,-1 2,0 0,-2 -1,-1 0,-1 -1,0 -1,-1 -1,-1 -1,-1 -1,0 -1,-1 -1,-1 -1,-1 -3,0 0,3 1,1 0,5 1,1 0,6 1,1 0,7 1,1 0,5 1,1 0,4 1,1 0,7 1,1 0,5 1,1 0,6 1,1 0,5 1,1 0,4 1,0 1,-1 4,0 1,1 0,2 -1,1 -2,0 -1,1 0,8 1,1 0,5 3,0 1,-1 5,0 1,1 0,2 -1,1 -2,0 -1,1 -3,0 -1,1Z"/>
<path onmouseover="hoverPath(evt)" onmouseout="recoverPath(evt)" fill="rgb(239,229,144)" d="M  122,3l 0,0 -1,1 -2,0 -1,1 -1,0 -1,1 -1,1 0,1 -1,1 1,0 1,1 7,0 0,-2 1,-1 3,0 1,1 0,1 50,0 1,1 39,0 1,-1 6,0 1,1 15,0 1,1 13,0 0,-11 -7,0 0,4 -1,1 -11,0 -1,-1 -20,0 -1,-1 -1,-1 0,-2 -6,0 0,3 -1,1 -32,0 -1,-1 -44,0 -1,-1 0,-2 -6,0Z"/>
<path onmouseover="hoverPath(evt)" onmouseout="recoverPath(evt)" fill="rgb(243,242,234)" d="M  177,179l -1,1 0,1 -1,1 0,1 1,1 0,2 1,1 0,1 1,1 0,3 1,1 0,2 1,1 0,2 1,1 0,2 1,1 0,3 1,1 0,3 1,1 0,4 6,0 1,-1 4,0 1,-1 3,0 1,-1 3,0 1,-1 3,0 1,-1 2,0 1,-1 4,0 1,-1 3,0 1,-1 3,0 1,-1 3,0 1,-1 3,0 1,-1 3,0 1,-1 3,0 1,-1 1,0 0,-3 -1,-1 0,-2 1,-1 0,-1 -1,-1 0,-1 -2,0 -1,-1 0,-1 -1,-1 0,-2 1,-1 -1,-1 0,-2 -1,-1 0,-1 -1,-1 0,-2 -2,0 -1,-1 0,-2 1,-1 0,-2 -1,-1 -2,0 -1,-1 0,-1 -1,1 -4,0 -1,1 -4,0 -1,1 -4,0 -1,1 -6,0 -1,1 -4,0 -1,1 -3,0 -1,1 -4,0 -1,1 -4,0 -1,1 -4,0 -1,1 -3,0 -1,1Z"/>
<path onmouseover="hoverPath(evt)" onmouseout="recoverPath(evt)" fill="rgb(171,198,237)" d="M  205,235l -4,0 -1,1 -3,0 -1,-1 -1,0 -1,-1 0,-1 -1,-1 0,-1 -1,-1 0,-2 -1,-1 0,-1 -1,-1 0,-2 -1,-1 0,-2 -1,0 -1,1 0,2 1,1 0,2 1,1 0,2 1,1 0,2 1,1 0,2 1,1 0,1 1,1 0,2 1,1 0,2 1,1 0,2 1,1 0,1 1,1 0,2 1,1 0,3 3,0 0,-3 -1,-1 0,-3 -1,-1 0,-2 -1,-1 0,-2 -1,-1 0,-2 2,-2 2,0 1,-1 2,0 1,-1 1,1 1,-1 4,0 1,-1 4,0 1,-1 5,0 1,-1 4,0 1,-1 4,0 1,-1 4,0 1,-1 4,0 1,-1 4,0 1,-1 1,0 0,-1 -3,0 -1,1 -4,0 -1,1 -4,0 -1,1 -4,0 -1,1 -4,0 -1,1 -4,0 -1,1 -4,0 -1,1 -4,0 -1,1 1,0 5,-1 -10,3 -1,-1Z"/>
<path onmouseover="hoverPath(evt)" onmouseout="recoverPath(evt)" fill="rgb(174,199,233)" d="M  222,167l 4,0 0,-1 -3,0 -1,1 -4,1 0,0 -1,-1 -1,1 -4,0 -1,1 -4,0 -1,1 -3,0 -1,1 -8,0 -1,1 -4,0 -1,1 -4,0 -1,1 -4,0 -1,1 -5,0 -1,1 -4,0 -1,1 3,0 1,1 1,0 1,1 1,1 0,-1 1,-1 0,0 2,-2 3,0 1,-1 4,0 1,-1 4,0 1,-1 4,0 1,-1 3,0 19,-4 4,-1 -19,4 1,0 3,-1 4,0 1,-1 4,0 1,-1Z"/>
</svg>