<svg width="256" height="256" xmlns="http://www.w3.org/2000/svg"><script> 
var tempColor;
function hoverPath(evt){
obj = evt.target;
tempColor = obj.getAttribute("fill");
obj.setAttribute("fill","red");
//alert(tempColor);
//obj.setAttribute("stroke","red");}
function recoverPath(evt){
obj = evt.target;
obj.setAttribute("fill", tempColor);
//obj.setAttribute("stroke", tempColor);
}</script><path onmouseover="hoverPath(evt)" onmouseout="recoverPath(evt)" fill="rgb(244,243,237)" d="M  1,108l 0,-25 -1,0 0,24 1,1 -1,3 0,88 1,0 1,-1 1,0 1,-1 2,0 1,-1 1,0 1,-1 1,0 1,-1 0,-13 -1,-1 0,-8 -1,-1 0,-5 -1,-1 0,-5 -1,-1 0,-5 -1,-1 0,-5 -1,-1 0,-7 -1,-1 0,-7 -1,-1 0,-7 -1,-1 0,-11 -2,-1 1,-3Z"/>
<path onmouseover="hoverPath(evt)" onmouseout="recoverPath(evt)" fill="rgb(170,198,237)" d="M  0,202l 0,19 2,0 1,-1 5,0 1,1 1,1 0,1 1,1 1,1 0,2 1,1 0,4 1,1 0,19 1,1 0,2 3,0 0,-2 1,-1 1,-1 1,-1 0,-11 -1,-1 0,-7 -1,-1 0,-6 -1,-1 0,-9 1,-1 1,-1 3,0 1,-1 3,0 1,-1 4,0 1,-1 3,0 1,-1 3,0 -1,-1 0,-4 -1,-1 0,-4 -1,-1 0,-3 -3,0 -1,-1 -1,0 -1,-1 -1,-1 -1,-1 -1,-1 -1,-1 0,-1 -1,-1 -1,-1 0,-1 -1,-1 0,-1 -1,-1 0,-1 -1,-1 0,-1 -1,-1 0,-2 -1,-1 0,-1 -1,-1 0,-1 -1,-1 0,-2 -1,-1 0,-2 -1,-1 0,-2 -1,-1 0,-2 -1,-1 0,-2 -1,-1 0,-3 -1,-1 0,-6 -1,-1 0,-5 -1,-1 0,-6 -1,-1 0,-7 -1,-1 0,-8 -1,-1 0,-15 -1,-1 0,-18 -6,0 0,1 2,0 1,1 0,26 1,1 0,13 1,1 0,7 1,1 0,7 1,1 0,7 1,1 0,5 1,1 0,5 1,1 0,5 1,1 0,5 1,1 0,8 1,1 0,15 -1,1 -1,1 -1,0 -1,1 -1,0 -1,1 -2,0 -1,1 -1,0 -1,1 -1,0 -1,1Z"/>
<path onmouseover="hoverPath(evt)" onmouseout="recoverPath(evt)" fill="rgb(175,200,234)" d="M  1,0l -1,0 0,66 2,0 1,1 0,5 1,1 0,1 2,0 0,-16 1,-1 -1,-1 0,-11 -1,-1 0,-9 -1,-1 0,-11 -1,-1 0,-22Z"/>
<path onmouseover="hoverPath(evt)" onmouseout="recoverPath(evt)" fill="rgb(223,225,222)" d="M  11,124l 0,4 2,0 1,1 2,0 1,-1 0,-5 -1,-1 0,0 -1,-1 0,-7 1,-1 -3,0 -1,-1 0,-3 -3,0 0,4 1,1 0,8 1,1Z"/>
<path onmouseover="hoverPath(evt)" onmouseout="recoverPath(evt)" fill="rgb(243,242,235)" d="M  12,130l -1,0 1,1 0,6 1,1 0,5 1,1 0,6 1,1 0,3 1,1 0,2 1,1 0,2 1,1 0,2 1,1 0,2 1,1 0,2 1,1 0,1 1,1 0,1 1,1 0,2 1,1 0,1 1,1 0,1 1,1 0,1 1,1 0,1 1,1 1,1 0,1 1,1 1,1 1,1 1,1 1,0 1,1 2,0 0,-1 -1,-1 0,-3 -1,-1 0,-5 -1,-1 0,-6 1,-1 0,-4 1,-1 0,-3 1,-1 0,-3 1,-1 0,-5 1,-1 0,-4 1,-1 0,-2 -1,-1 0,-19 -1,-1 0,-9 -1,-1 0,-6 1,-1 3,0 1,1 0,4 1,1 0,8 1,1 0,18 1,1 0,8 -1,1 0,5 -1,1 0,4 -1,1 0,3 -1,1 0,4 -1,1 0,4 -1,1 0,1 1,1 0,4 1,1 0,2 1,1 0,3 1,-1 3,0 1,-1 2,0 1,-1 2,0 1,-1 1,0 1,-1 1,0 1,-1 2,0 1,-1 2,0 1,-1 2,0 1,-1 2,0 1,-1 2,0 1,-1 2,0 1,-1 3,0 1,-1 3,0 1,-1 3,0 1,-1 3,0 1,-1 3,0 1,-1 3,0 1,-1 1,0 1,-1 2,0 1,-1 1,0 1,-1 1,-1 1,0 1,-1 1,-1 1,-1 3,-3 1,-1 0,-1 1,-1 1,-1 0,-1 1,-1 1,-1 0,-1 1,-1 1,-1 0,-1 1,-1 1,-1 0,-1 1,-1 0,-1 1,-1 0,-1 1,-1 1,-1 0,-1 1,-1 0,-1 1,-1 0,-1 1,-1 0,-3 1,-1 0,-2 1,-1 0,-4 1,-1 0,-4 1,-1 0,-8 1,-1 0,-9 1,-1 0,-57 1,-1 -1,-1 0,-7 -1,-1 0,-2 -1,-1 0,-1 -1,-1 -1,-1 -1,-1 -1,0 -2,-2 -2,0 -1,-1 -1,-1 -1,0 -1,-1 -1,0 -1,-1 -1,0 -1,-1 -1,1 -6,0 -1,-1 0,-4 -1,-1 -2,0 -1,-1 0,-1 -1,0 -1,-1 -1,0 -1,-1 -1,0 -1,-1 -2,0 -1,-1 -2,0 -1,-1 -2,0 -1,-1 -3,0 -1,-1 -3,0 -1,-1 -3,0 -1,-1 -3,0 -1,-1 0,-2 -70,0 0,21 1,1 0,11 1,1 0,9 1,1 0,11 1,1 0,2 -1,1 0,16 -1,1 -4,0 -1,-1 0,-1 -1,-1 0,-5 -1,0 0,10 7,0 1,1 0,18 1,1 0,9 4,0 1,1 0,3 3,0 1,1 0,2 -1,1 0,5 2,2 0,7 -1,1 -1,1 -4,0 -1,-1Z"/>
<path onmouseover="hoverPath(evt)" onmouseout="recoverPath(evt)" fill="rgb(243,241,233)" d="M  12,252l 0,-18 -1,-1 0,-4 -1,-1 0,-2 -1,-1 -1,-1 0,-1 -1,-1 -3,0 -1,1 -3,0 0,32 13,0 0,-1 -1,-1 0,-1 -4,-3 -1,1 -2,0 -1,-1 0,-2 1,-1 2,0 1,1 0,2 4,3Z"/>
<path onmouseover="hoverPath(evt)" onmouseout="recoverPath(evt)" fill="rgb(243,242,233)" d="M  20,215l 0,7 1,1 0,6 1,1 0,7 1,1 0,11 1,-1 1,0 1,-1 0,-1 1,-1 2,0 1,-1 1,-1 0,-1 1,-1 2,0 2,-2 0,-1 1,-1 1,0 1,-1 1,-1 0,-1 1,-1 1,-1 0,-2 1,-1 0,-1 1,-1 0,-2 -1,-1 0,-3 -1,-1 0,-5 -1,-1 0,-3 -1,-1 -2,0 -1,1 -3,0 -1,1 -4,0 -1,1 -3,0 -1,1 -3,0 -1,1Z"/>
<path onmouseover="hoverPath(evt)" onmouseout="recoverPath(evt)" fill="rgb(253,253,253)" d="M  21,253l 0,0 -1,1 0,1 4,0 0,-2 1,-1 1,-1 1,-1 2,0 0,-1 1,-1 1,-1 1,-1 1,0 2,-2 1,-1 1,-1 1,0 1,-1 1,-1 1,-1 1,-1 0,-1 1,-1 1,-1 0,-1 1,-1 0,-1 1,-1 0,-2 1,-1 0,-4 -1,-1 0,-4 -1,-1 0,-4 -1,-1 0,-7 -1,-1 0,-4 -1,-1 0,-4 -1,-1 0,-3 -1,-1 0,-3 -1,-1 0,-2 -1,-1 0,-4 -1,-1 0,-3 1,-1 0,-4 1,-1 0,-4 1,-1 0,-3 1,-1 0,-4 1,-1 0,-5 1,-1 0,-6 -1,-1 0,-18 -1,-1 0,-8 -1,-1 0,-4 -1,0 0,4 1,1 0,9 1,1 0,19 1,1 0,4 -1,1 0,4 -1,1 0,5 -1,1 0,3 -1,1 0,3 -1,1 0,4 -1,1 0,4 1,1 0,5 1,1 0,3 1,1 0,6 1,1 0,4 1,1 0,4 1,1 0,2 1,1 0,3 1,1 0,5 1,1 0,3 1,1 0,4 -1,1 0,1 -1,1 0,2 -1,1 -1,1 0,1 -1,1 -1,1 -1,1 -1,0 0,1 -1,1 -1,1 -1,1 -2,0 0,1 -1,1 -2,2 -2,0 0,1 -1,1 -1,1 -1,0 -1,1 -1,0 -1,1 -1,1Z"/>
<path onmouseover="hoverPath(evt)" onmouseout="recoverPath(evt)" fill="rgb(244,243,235)" d="M  29,252l -1,0 -1,1 -1,1 0,1 105,0 0,-8 -27,0 -1,-1 0,-2 1,-1 23,0 0,-11 -1,-1 0,-15 -1,-1 0,-13 -1,-1 0,-4 -1,1 -9,0 -1,-1 -4,0 -1,-1 -3,0 -1,-1 -5,0 -1,-1 -4,0 -1,1 -7,0 -1,1 -3,0 -1,1 -3,0 -1,1 -2,0 -1,1 -1,0 -1,1 -2,0 -1,1 -2,0 -1,1 -2,0 -1,1 -2,0 -1,1 -1,0 -1,1 -2,0 -1,1 -2,0 -1,1 -2,0 -1,1 -3,0 0,4 1,1 0,4 1,1 0,4 1,1 0,6 -1,1 0,2 -1,1 0,1 -1,1 0,1 -1,1 -1,1 0,1 -1,1 -1,1 -1,1 -1,1 -1,1 -1,0 -1,1 -1,1 -1,1 -1,1 -1,0 -1,1 -1,1 0,1 -1,1Z"/>
<path onmouseover="hoverPath(evt)" onmouseout="recoverPath(evt)" fill="rgb(172,199,237)" d="M  43,192l 0,2 1,1 0,4 1,1 0,4 1,1 0,1 2,0 1,-1 2,0 1,-1 2,0 1,-1 2,0 1,-1 1,0 1,-1 2,0 1,-1 2,0 1,-1 2,0 1,-1 2,0 1,-1 1,0 1,-1 2,0 1,-1 3,0 1,-1 3,0 1,-1 7,0 1,-1 6,0 1,1 5,0 1,1 3,0 1,1 4,0 1,1 7,0 1,-1 3,0 0,-1 1,-1 1,-1 1,0 1,-1 2,0 0,-1 1,-1 1,0 1,-1 0,-3 1,-1 0,-1 1,-1 0,-3 1,-1 1,-1 4,-4 1,-1 1,0 1,-1 1,0 1,-1 3,0 1,1 0,2 -2,2 -1,1 0,1 -1,1 -1,0 0,1 -1,1 -1,1 -1,1 -1,1 5,0 0,-1 1,-1 1,-1 1,-1 2,-2 1,-1 0,-1 1,-1 1,0 0,-1 1,-1 -1,-1 0,-5 -1,-1 0,-3 -1,-1 0,-4 -1,-1 0,-8 1,-1 1,-1 1,-1 -1,0 -1,1 -1,1 4,-2 -5,4 -1,1 -11,0 -1,-1 0,-3 1,-1 0,-3 1,-1 0,-3 1,-1 0,-2 1,-1 0,-4 1,-1 0,-11 -1,-1 0,-9 1,-1 0,-19 1,-1 0,-6 1,-1 0,-11 -1,-1 0,-6 -1,-1 0,-10 1,-1 0,-1 1,-1 0,-2 1,-1 0,-2 1,-1 0,-4 -1,-1 0,-2 -1,-1 0,-2 -1,-1 0,-2 -1,-1 -1,-1 0,-1 -1,-1 0,-1 -1,-1 -2,-2 -1,0 -1,-1 -1,0 -1,-1 -2,0 -1,-1 -1,-1 -2,0 -1,-1 -2,0 -1,-1 -1,0 -1,-1 0,-1 -3,0 -1,-1 -3,0 -1,-1 -1,0 -2,-2 -2,0 -1,-1 -1,0 -1,-1 -1,0 -1,-1 -1,-1 0,-5 -27,0 0,1 3,0 1,1 3,0 1,1 3,0 1,1 3,0 1,1 2,0 1,1 2,0 1,1 2,0 1,1 1,0 1,1 1,0 1,1 1,0 1,1 0,1 2,0 2,2 0,4 4,0 1,-1 2,0 1,1 1,0 1,1 1,0 1,1 1,0 1,1 1,1 2,0 1,1 1,1 1,0 1,1 1,1 1,1 1,1 0,1 1,1 0,2 1,1 0,7 1,1 0,2 -1,1 0,57 -1,1 0,9 -1,1 0,8 -1,1 0,4 -1,1 0,4 -1,1 0,2 -1,1 0,3 -1,1 0,1 -1,1 0,1 -1,1 0,1 -1,1 -1,1 0,1 -1,1 0,1 -1,1 0,1 -1,1 -1,1 0,1 -1,1 -1,1 0,1 -1,1 -1,1 0,1 -1,1 -1,1 0,1 -1,1 -1,1 -1,1 -1,1 -1,1 -1,1 -1,1 -1,1 -1,0 -1,1 -1,1 -1,0 -1,1 -2,0 -1,1 -1,0 -1,1 -3,0 -1,1 -3,0 -1,1 -3,0 -1,1 -3,0 -1,1 -3,0 -1,1 -3,0 -1,1 -2,0 -1,1 -2,0 -1,1 -2,0 -1,1 -2,0 -1,1 -2,0 -1,1 -2,0 -1,1 -1,0 -1,1 -1,0 -1,1 -2,0 -1,1 -2,0 -1,1 -3,0 -1,1Z"/>
<path onmouseover="hoverPath(evt)" onmouseout="recoverPath(evt)" fill="rgb(244,243,236)" d="M  129,14l 0,0 1,1 2,0 1,1 1,1 2,0 1,1 1,0 1,1 1,0 1,1 1,1 1,1 1,1 0,1 1,1 0,1 1,1 1,1 0,2 1,1 0,2 1,1 0,2 1,1 0,6 -1,1 0,2 -1,1 0,2 -1,1 0,1 -1,1 0,8 1,1 0,6 1,1 0,13 -1,1 0,6 -1,1 0,19 -1,1 0,7 1,1 0,13 -1,1 0,4 -1,1 0,2 -1,1 0,3 -1,1 0,3 -1,1 0,1 9,0 1,-1 0,-1 1,-1 1,-1 1,-1 4,0 1,1 0,2 -1,1 -1,0 -1,1 -1,1 6,0 1,1 2,0 1,1 3,0 1,1 5,0 1,1 5,0 1,-1 3,0 1,-1 2,0 1,-1 1,-1 1,0 1,-1 0,-1 1,-1 1,-1 0,-1 1,-1 1,-1 0,-1 2,-2 0,-1 4,-4 1,-1 2,-2 0,-1 2,-2 1,0 1,-1 1,-1 1,-1 1,0 1,-1 1,-1 1,0 1,-1 1,0 1,-1 1,0 1,-1 2,0 1,-1 3,0 1,-1 4,0 1,-1 5,0 1,-1 6,0 1,-1 5,0 1,-1 5,0 0,-85 -1,0 -1,-1 -1,-1 -2,-2 0,-1 -1,-1 -1,-1 0,-1 -1,-1 0,-1 -1,-1 0,-2 -1,-1 0,-3 -1,-1 0,-6 -1,-1 0,-4 -137,0 0,4 1,1 1,0 1,1 1,0 1,1 2,0 1,1 1,1 1,0 1,1 3,0 1,1 3,0 1,1 0,1 1,0 1,1Z"/>
<path onmouseover="hoverPath(evt)" onmouseout="recoverPath(evt)" fill="rgb(202,217,236)" d="M  137,193l -1,0 0,1 -1,1 -2,0 -1,1 -1,0 -1,1 -4,0 0,3 1,1 0,13 1,1 0,15 1,1 0,13 -1,1 4,0 1,1 0,9 2,0 0,-7 1,-1 0,-29 -1,-1 0,-14 1,-1 0,-3 1,-1 0,-2 1,-1 1,-1 0,-1 1,-1 -1,0 -1,1Z"/>
<path onmouseover="hoverPath(evt)" onmouseout="recoverPath(evt)" fill="rgb(170,198,237)" d="M  156,151l -1,0 0,4 1,1 0,4 1,1 0,3 1,1 0,5 1,0 1,-1 7,0 1,-1 13,0 1,-1 7,0 1,-1 2,0 1,-1 1,0 1,-1 1,0 1,-1 1,0 1,-1 1,-1 1,-1 0,-1 1,-1 1,-1 0,-1 1,-1 1,-1 0,-1 1,-1 0,-1 1,-1 1,-1 0,-1 1,-1 1,-1 0,-1 1,-1 2,-2 1,-1 4,-4 1,-1 1,0 1,-1 1,0 1,-1 1,0 1,-1 2,0 1,-1 5,0 1,1 1,1 1,1 0,7 1,1 0,7 1,1 0,17 1,1 0,12 1,1 0,11 1,1 0,12 1,1 0,12 1,1 0,12 1,1 0,12 1,1 0,9 3,0 0,-15 -1,-1 0,-7 -1,-1 0,-5 -1,-1 0,-8 -1,-1 0,-13 -1,-1 0,-14 2,-2 3,0 1,-1 2,0 0,-1 -7,0 -1,-1 0,-2 -1,-1 0,-10 -1,-1 0,-10 -1,-1 0,-10 -1,-1 0,-14 1,-1 0,-1 1,-1 1,-1 1,0 1,-1 3,0 1,-1 7,0 0,-11 -4,0 -1,1 -5,0 -1,1 -6,0 -1,1 -5,0 -1,1 -4,0 -1,1 -3,0 -1,1 -2,0 -1,1 -1,0 -1,1 -1,0 -1,1 -1,0 -1,1 -1,1 -1,0 -1,1 -1,1 -1,1 -1,0 -1,1 0,1 -1,1 -1,1 -1,1 -1,1 -1,1 -1,1 -1,1 0,1 -1,1 -1,1 0,1 -1,1 -1,1 0,1 -1,1 -1,1 0,1 -1,1 -1,1 -1,0 -1,1 -1,1 -2,0 -1,1 -3,0 -1,1 -7,0 -1,-1 -5,0 -1,-1 -3,0 -1,-1 -2,0 -1,-1Z"/>
<path onmouseover="hoverPath(evt)" onmouseout="recoverPath(evt)" fill="rgb(244,243,236)" d="M  160,172l -1,0 0,1 -1,1 0,1 -1,1 -1,0 0,1 -1,1 -1,1 -3,3 -1,1 0,1 -1,1 -7,0 -1,-1 0,-2 3,-3 1,-1 0,-1 1,-1 1,0 0,-1 1,-1 1,-1 1,-1 -1,0 -1,1 -1,0 -1,1 -1,0 -1,1 -1,1 -1,1 -1,1 -1,1 -1,1 0,3 -1,1 0,1 -1,1 0,3 -1,1 -1,1 -1,0 0,1 -1,1 -2,0 -1,1 -1,0 -1,1 1,0 2,-1 3,-1 2,-2 1,0 1,-1 3,0 1,1 0,2 -1,1 0,1 -1,1 -1,1 0,2 -1,1 0,3 -1,1 0,12 1,1 0,31 -1,1 0,6 106,0 0,-8 -1,-1 0,-12 -1,-1 0,-12 -1,-1 0,-12 -1,-1 0,-12 -1,-1 0,-11 -1,-1 0,-12 -1,-1 0,-17 -1,-1 0,-7 -1,-1 0,-7 -1,-1 -1,-1 -3,0 -1,1 -2,0 -1,1 -1,0 -1,1 -1,0 -1,1 -1,0 -1,1 -1,1 -1,1 -1,1 -1,1 -1,1 -1,1 -1,1 0,1 -1,1 -1,1 0,1 -1,1 -1,1 0,1 -1,1 0,1 -1,1 -1,1 0,1 -2,2 0,1 -3,3 -1,1 -1,0 -1,1 -1,0 -1,1 -1,0 -1,1 -2,0 -1,1 -7,0 -1,1 -13,0 -1,1 -7,0 -1,1Z"/>
<path onmouseover="hoverPath(evt)" onmouseout="recoverPath(evt)" fill="rgb(244,243,236)" d="M  244,131l -1,0 -1,1 0,1 -1,1 0,12 1,1 0,10 1,1 0,10 1,1 0,10 1,1 0,2 6,0 0,-5 1,-1 0,-1 1,-1 2,0 0,-45 -6,0 -1,1 -3,0 -1,1Z"/>
<path onmouseover="hoverPath(evt)" onmouseout="recoverPath(evt)" fill="rgb(177,202,237)" d="M  245,1l 0,2 1,1 0,6 1,1 0,3 1,1 0,2 1,1 0,1 1,1 0,1 1,1 1,1 0,1 1,1 1,1 1,1 0,-27 -9,0 -1,1Z"/>
<path onmouseover="hoverPath(evt)" onmouseout="recoverPath(evt)" fill="rgb(243,241,232)" d="M  255,189l 0,-13 -1,0 0,1 -1,1 0,8 -1,1 -2,0 -1,1 -3,0 -1,1 0,12 1,1 0,13 1,1 0,8 1,1 0,5 1,1 0,7 1,1 0,16 5,0Z"/>
</svg>