<svg width="256" height="256" xmlns="http://www.w3.org/2000/svg"><script> 
var tempColor;
function hoverPath(evt){
obj = evt.target;
tempColor = obj.getAttribute("fill");
obj.setAttribute("fill","red");
//alert(tempColor);
//obj.setAttribute("stroke","red");}
function recoverPath(evt){
obj = evt.target;
obj.setAttribute("fill", tempColor);
//obj.setAttribute("stroke", tempColor);
}</script><path onmouseover="hoverPath(evt)" onmouseout="recoverPath(evt)" fill="rgb(241,240,233)" d="M  0,120l 0,33 1,0 1,-1 1,0 1,-1 1,-1 1,0 1,-1 1,0 1,-1 1,0 1,-1 1,-1 1,0 1,-1 1,0 1,-1 1,0 1,-1 1,-1 2,0 0,-1 1,-1 1,-1 1,0 1,-1 1,-1 1,0 1,-1 1,0 1,-1 1,-1 1,0 1,-1 1,0 1,-1 1,-1 1,0 1,-1 1,0 1,-1 1,0 1,-1 1,-1 1,0 1,-1 1,0 1,-1 1,0 1,-1 1,-1 1,0 1,-1 1,0 1,-1 1,0 1,-1 1,-1 1,0 1,-1 1,0 1,-1 1,0 1,-1 1,-1 1,0 1,-1 1,0 1,-1 1,0 1,-1 1,-1 1,0 1,-1 1,0 1,-1 1,0 1,-1 1,-1 1,0 1,-1 1,-1 1,0 1,-1 1,0 1,-1 1,-1 1,0 1,-1 1,0 1,-1 1,-1 1,0 1,-1 1,0 1,-1 2,0 0,-1 1,-1 1,-1 1,0 1,-1 1,-1 1,-1 1,0 1,-1 0,-1 -1,-1 0,0 -1,-1 -1,-1 0,-2 1,-1 2,0 1,1 1,1 1,1 1,1 1,0 0,-2 1,-1 1,0 0,-1 3,-3 1,-1 1,0 0,-1 1,-1 1,-1 1,-1 1,0 0,-1 1,-1 -1,-1 -1,0 -1,-1 -2,0 -1,-1 -1,0 -1,-1 -1,0 -1,-1 -1,-1 -1,0 -1,-1 -1,-1 -1,0 -1,-1 -1,0 -1,-1 -1,-1 -1,0 -1,-1 -1,-1 -1,0 -1,-1 -5,0 -1,1 -1,0 -1,1 -1,1 -2,0 -1,1 -1,1 1,1 0,6 -1,1 -1,1 -1,1 -1,1 -1,0 -1,1 -1,0 -1,1 -3,0 -1,-1 0,-2 1,-1 1,0 1,-1 1,0 1,-1 1,-1 1,0 1,-1 0,-2 -1,1 -1,0 -1,1 -1,0 -1,1 -1,1 -1,0 -1,1 -3,0 -1,1 -4,0 0,1 -1,1 -1,0 -1,1 -1,0 -1,1 -2,0 -1,1 -1,1 -1,0 -1,1 -3,0 -1,1 -1,1 -5,0 0,2 -1,1 -3,0 0,1 -1,1 0,1 -1,1 -1,0 0,1 -1,1 -1,0 0,2 -1,1 -1,1 -2,0 -1,1 -1,1 -5,0 -1,1 -4,0 -1,1 -1,1 -1,0 -1,1 -1,1 -1,1 -1,0 -1,1 -1,0 -1,1 -1,1 -2,0 -1,1 -1,1 0,1 -1,1 -1,0 -1,1 -2,0Z"/>
<path onmouseover="hoverPath(evt)" onmouseout="recoverPath(evt)" fill="rgb(243,243,237)" d="M  0,192l 0,29 1,0 1,-1 1,-1 1,0 1,-1 1,0 1,-1 1,-1 1,0 1,-1 1,0 1,-1 1,0 1,-1 5,-5 1,-1 1,0 1,-1 1,-1 2,0 -3,-1 0,0 -1,-1 0,-1 -1,-1 -1,-1 -1,-1 -1,-1 0,-1 -1,-1 -1,-1 -1,-1 -1,-1 0,-1 -1,-1 -1,-1 -1,-1 0,-3 1,-1 1,-1 1,-1 1,0 1,-1 1,0 2,-2 1,-1 1,-1 1,0 1,-1 1,0 0,-1 1,-1 3,0 1,1 0,0 2,2 1,1 0,1 1,1 1,1 1,1 1,1 1,1 1,1 1,1 1,1 0,1 1,1 1,1 1,1 1,1 0,1 1,0 1,-1 1,-1 1,0 1,-1 1,-1 1,-1 1,0 1,-1 1,-1 1,0 1,-1 0,-2 -1,-1 0,0 -1,-1 -1,-1 -1,-1 0,-1 -1,0 -1,-1 -1,-1 -1,-1 -1,-1 -1,-1 -1,-1 -1,-1 0,-1 -1,-1 -1,-1 -2,-2 -1,-1 -1,-1 -1,-1 0,3 -1,1 -1,1 -2,2 -1,0 -1,1 -1,0 -1,1 -1,0 0,1 -27,18 23,-18 -1,-1 -1,-1 -1,-1 -1,-1 -1,-1 -1,-1 -1,-1 -1,-1 0,-1 -1,-1 -1,-1 0,-2 1,-1 -2,0 -1,1 -1,1 -1,0 -1,1 -1,0 -2,2 -1,0 -1,1 -1,1 -2,0 0,24 23,-17 -23,18 15,-32 1,-1 2,0 0,-1 1,-1 1,0 1,-1 1,0 1,-1 1,-1 2,0 -1,-1 -3,0 0,1 -1,1 -1,0 -2,2 -1,0 0,1 3,-2 2,-1 -7,5 -15,32Z"/>
<path onmouseover="hoverPath(evt)" onmouseout="recoverPath(evt)" fill="rgb(243,241,232)" d="M  154,163l 0,0 1,1 0,1 1,1 1,1 1,1 1,1 0,1 1,1 1,1 1,1 1,1 1,1 1,1 1,1 1,1 1,1 1,1 1,1 1,1 1,1 1,1 1,1 1,1 1,1 3,0 1,-1 2,0 1,1 0,2 -1,1 -1,1 -2,0 -1,1 1,1 0,0 1,1 1,1 0,1 2,0 1,-1 0,0 1,-1 1,0 1,-1 1,-1 1,0 1,-1 1,-1 1,0 1,-1 1,-1 1,0 1,-1 1,-1 1,0 1,-1 1,0 1,-1 1,0 2,-2 1,0 -1,-1 0,0 -1,-1 -1,-1 -1,0 -1,-1 0,-1 -1,0 -1,1 0,0 -1,1 -1,1 -2,0 -1,-1 0,-2 1,-1 1,-1 0,-2 -1,-1 -1,-1 0,-3 1,-1 1,-1 1,0 1,-1 1,0 1,-1 2,0 0,-1 1,-1 1,-1 1,-1 1,0 1,-1 1,-1 1,-1 1,0 1,-1 1,-1 3,0 1,1 1,0 1,1 0,1 1,0 0,-1 1,-1 2,0 1,-1 1,-1 3,0 1,1 1,0 0,-4 -1,1 -3,0 -1,-1 -1,-1 -1,-1 -1,-1 -1,-1 -1,-1 -1,0 -1,-1 0,-4 -1,0 -1,-1 -1,-1 -1,-1 -1,-1 -1,-1 -1,-1 -1,-1 0,-1 -1,-1 -1,-1 0,-1 -1,0 -1,-1 -1,-1 -1,-1 0,-2 -1,-1 -1,-1 0,-2 -2,0 -1,-1 -3,0 -1,1 0,0 -1,1 -1,1 0,1 -1,1 -3,0 -1,-1 0,-3 1,-1 1,0 1,-1 1,-1 0,-1 -2,0 -1,-1 -1,0 -1,-1 -1,1 -3,0 -1,-1 0,-3 -1,-1 -1,0 -1,1 -1,0 -1,1 -1,1 -2,0 -1,1 -1,1 -1,1 -1,0 -1,1 -1,0 -1,1 -1,1 -1,1 -1,0 -1,1 -1,1 -1,1 -1,1 -1,0 -1,1 -3,3 -2,0 0,1 -1,1 -1,1 -1,0 0,3 1,0 1,1 0,2 1,0 1,1 1,-1 2,0 1,1 0,2 -1,1 0,2 -1,1 -1,1 0,1 1,1 0,2 -1,1 -1,1 -1,0 -1,1 -1,1 3,0 1,1 0,2 -1,1 1,1 0,3 1,1 6,-8 -1,-1 0,-2 1,-1 1,0 1,-1 1,-1 1,-1 1,-1 1,0 1,-1 1,-1 0,-2 1,-1 1,-1 0,-2 1,-1 1,-1 0,-2 1,-1 1,-1 1,-1 0,-2 2,-2 2,0 1,1 0,1 1,1 0,2 -1,1 -1,1 0,2 -2,2 0,1 1,1 0,2 -1,1 -1,1 -2,0 -1,-1 -1,1 -1,1 0,2 -1,1 -1,1 -1,0 -2,2 -1,1 -1,1 -1,0 -1,1 -2,0 -6,8 6,-22 1,-1 1,-1 2,0 1,1 0,2 -1,1 -1,1 -2,0 -1,-1 0,-2 -6,22 8,-34 2,0 1,1 0,2 -1,1 -1,1 -2,0 -1,-1 0,-2 1,-1 1,-1 -8,34Z"/>
<path onmouseover="hoverPath(evt)" onmouseout="recoverPath(evt)" fill="rgb(170,198,237)" d="M  0,1l 0,75 1,0 1,-1 1,0 1,-1 2,0 0,-1 1,-1 1,0 1,-1 1,0 1,-1 1,-1 1,0 1,-1 1,0 1,-1 1,0 1,-1 1,0 1,-1 1,0 1,-1 2,0 1,-1 1,-1 1,-1 1,0 1,-1 1,0 1,-1 1,-1 1,0 1,-1 1,0 1,-1 1,0 1,-1 1,0 1,-1 2,0 1,-1 3,0 1,-1 3,0 1,-1 3,0 1,-1 4,0 1,-1 4,0 1,-1 2,0 1,-1 3,0 0,-1 1,-1 0,-1 -1,-1 0,-3 -1,-1 0,-3 -1,-1 0,-4 -1,-1 0,-2 -1,-1 0,-7 -1,-1 0,-8 -1,-1 0,-10 -64,0 -1,1Z"/>
<path onmouseover="hoverPath(evt)" onmouseout="recoverPath(evt)" fill="rgb(254,254,254)" d="M  67,1l 0,8 1,1 0,8 1,1 0,7 1,1 0,2 1,1 0,4 1,1 0,3 1,1 0,3 1,1 1,-1 0,-3 -1,-1 0,-4 -1,-1 0,-3 -1,-1 0,-2 -1,-1 0,-8 -1,-1 0,-8 -1,-1 0,-8 -1,0 -1,1Z"/>
<path onmouseover="hoverPath(evt)" onmouseout="recoverPath(evt)" fill="rgb(171,197,234)" d="M  71,1l 0,6 1,1 0,8 1,1 0,8 1,1 0,2 1,1 0,3 1,1 0,4 1,1 0,4 1,1 1,1 1,1 0,3 1,1 1,1 1,1 0,1 1,1 0,1 1,1 1,1 0,1 1,1 0,2 1,0 1,-1 1,-1 1,0 1,-1 7,0 1,1 1,0 1,1 1,1 1,0 1,1 1,1 1,0 1,1 1,0 1,1 1,1 1,0 1,1 1,1 1,0 1,1 1,0 1,1 2,0 1,1 1,0 1,1 1,1 1,0 0,-1 1,-1 0,-1 -2,0 -1,-1 -1,0 -1,-1 -1,-1 -1,0 -1,-1 -1,-1 -1,0 -1,-1 -1,-1 -1,0 -1,-1 -1,-1 -1,0 -1,-1 -1,-1 -1,0 -1,-1 -1,-1 0,-4 1,-1 2,-2 1,0 2,-2 1,-1 1,0 1,-1 1,-1 1,0 1,-1 1,-1 1,0 1,-1 1,0 1,-1 1,-1 2,0 1,-1 1,0 1,-1 1,0 1,-1 2,0 1,-1 1,0 0,-2 -3,0 -1,1 -1,0 -1,1 -1,0 -1,1 -1,0 -1,1 -1,1 -1,0 -1,1 -1,0 -1,1 -1,0 -1,1 -1,0 -1,1 -1,0 -1,1 -1,0 -1,1 -1,1 -1,0 -1,1 -1,1 -1,1 -1,0 -2,2 -1,1 -1,0 -1,1 -1,1 -1,1 -4,0 -1,-1 -1,-1 0,-1 -1,0 -1,-1 0,-1 -1,-1 0,-3 -1,-1 0,-1 -1,-1 0,-7 1,-1 0,-4 1,-1 0,-2 1,-1 1,-1 0,-3 1,-1 0,-3 1,-1 0,-2 1,-1 0,-2 1,-1 0,-2 1,-1 0,-2 1,-1 0,-2 1,-1 0,-2 -26,0 -1,1Z"/>
<path onmouseover="hoverPath(evt)" onmouseout="recoverPath(evt)" fill="rgb(174,200,235)" d="M  133,73l -1,1 0,3 -1,1 0,1 1,1 1,0 1,1 1,1 0,2 1,1 1,0 1,1 1,0 1,1 1,-1 2,0 1,1 1,0 1,1 2,0 1,1 1,0 1,1 1,0 1,1 1,0 1,1 1,0 1,1 1,0 1,1 1,0 1,1 1,1 1,0 1,1 1,0 1,1 0,1 2,0 1,1 1,0 1,1 1,0 1,1 1,0 1,1 1,1 1,0 1,1 0,1 2,0 1,1 1,0 1,1 0,1 2,0 1,1 1,0 1,1 1,0 1,1 1,0 1,1 2,0 1,1 1,0 1,1 2,0 1,1 1,0 1,1 1,0 1,1 2,0 1,1 1,1 1,0 1,1 2,0 1,1 1,0 1,1 1,0 1,1 1,0 1,1 1,0 1,1 1,0 1,1 1,0 1,1 1,0 1,1 1,0 1,1 1,0 1,1 1,0 1,1 1,0 1,1 1,0 1,1 1,0 1,1 1,0 1,1 1,0 1,1 1,0 1,1 1,0 1,1 1,0 0,-1 -1,0 -1,-1 -1,0 -2,-1 0,-1 -1,0 -1,-1 -1,-1 -1,0 -1,-1 -1,-1 -1,0 -1,-1 -1,-1 -1,0 -1,-1 -1,-1 -1,0 -1,-1 -1,0 -1,-1 -1,-1 -1,0 -1,-1 -1,0 -1,-1 -1,0 -1,-1 -1,-1 -1,0 -1,-1 -1,0 -1,-1 -1,0 -1,-1 -1,0 -1,-1 -1,0 -1,-1 -1,-1 -1,0 -1,-1 -1,0 -1,-1 -1,0 -1,-1 -1,0 -1,-1 -1,0 -1,-1 -1,-1 -1,-1 -1,-1 -1,-1 0,-2 1,-1 1,-1 1,-1 1,0 1,-1 1,-1 -3,0 -1,1 -3,0 -1,1 -1,0 -1,1 -1,0 -1,1 -1,0 -1,1 -1,0 -1,1 -4,0 -1,-1 -1,-1 -1,-1 -1,-1 -1,0 -1,-1 -1,-1 -1,-1 -1,0 -1,-1 -1,0 -1,-1 -1,-1 -1,0 -1,-1 -1,-1 -1,0 -1,-1 -1,0 -1,-1 -1,-1 -1,0 -1,-1 -1,-1 -1,0 -1,-1 -1,-1 -1,-1 -1,-1 -1,-1 -1,-1 -1,-1 -1,0 -1,-1 -1,0 -1,-1 -1,-1 -1,-1 -1,0 -1,-1 -1,0 -1,-1 -1,-1 -1,0 -1,-1 0,-1 -1,0 0,1 -1,1Z"/>
<path onmouseover="hoverPath(evt)" onmouseout="recoverPath(evt)" fill="rgb(241,241,234)" d="M  192,80l 0,0 -1,1 -1,0 0,1 -1,1 1,1 0,0 1,1 1,1 0,1 2,0 1,1 1,1 1,1 0,1 2,0 1,1 1,1 1,1 1,0 1,1 0,1 2,0 1,1 1,1 1,1 1,-1 2,0 1,1 1,0 1,1 0,2 1,1 3,0 1,-1 0,0 1,-1 0,-2 1,-1 1,-1 1,0 1,-1 1,-1 2,0 1,1 1,-1 0,0 1,-1 1,0 1,-1 1,-1 1,0 1,-1 5,0 1,1 2,0 1,1 1,0 1,1 1,1 1,0 0,-3 1,-1 1,0 1,-1 3,0 0,-47 -2,0 -1,1 -1,0 -1,1 -1,0 -1,1 0,2 -1,1 -2,0 -1,-1 -1,1 -1,0 -1,1 -1,0 -1,1 -1,1 -1,0 -1,1 -1,0 -1,1 -1,1 -1,0 -1,1 -1,0 -1,1 -1,0 -1,1 -1,0 -1,1 -1,0 -1,1 -1,0 -1,1 -1,1 -1,0 -1,1 -1,0 -1,1 -1,1 -1,0 -1,1 -1,1 -1,0 -1,1 0,2 -1,1 -4,0 -1,1 -1,1 -1,0 -1,1 -1,1 -2,0 0,2 -1,1 -2,0 -1,1 -1,0 -1,1Z"/>
<path onmouseover="hoverPath(evt)" onmouseout="recoverPath(evt)" fill="rgb(244,242,235)" d="M  0,242l 0,13 19,0 0,-2 1,-1 1,0 1,-1 1,-1 1,0 1,-1 1,-1 1,0 1,-1 1,0 1,-1 2,0 1,1 1,1 0,1 1,1 1,-1 1,0 1,-1 1,-1 5,0 0,-1 1,-1 1,-1 1,-1 1,0 1,-1 1,0 1,-1 1,0 1,-1 1,-1 1,0 1,-1 1,-1 2,0 1,-1 1,0 1,-1 1,-1 1,0 1,-1 1,-1 1,0 1,-1 1,0 1,-1 1,-1 1,0 1,-1 1,0 1,-1 1,-1 3,0 0,-1 1,-1 1,0 1,-1 1,0 1,-1 3,0 -1,-1 0,-1 -1,-1 -1,-1 -1,-1 0,-1 -1,0 -1,-1 0,-1 -1,-1 -1,-1 -1,-1 -1,-1 -1,0 -1,-1 0,-1 -1,-1 0,-1 -1,-1 -1,-1 -1,-1 -1,-1 -1,-1 -1,0 -1,-1 0,-1 -1,0 -2,2 -1,0 -1,1 -1,1 -1,1 -1,1 0,1 -1,1 -2,0 -1,1 -2,0 -1,-1 0,-2 1,-1 1,-1 1,0 1,-1 1,-1 1,-1 1,-1 0,-1 1,-1 2,0 1,-1 1,-1 -1,0 -1,-1 0,-1 -1,-1 -1,-1 -1,-1 -1,1 0,0 -1,1 -1,0 -1,1 -1,1 -1,1 -1,1 -1,1 -1,1 -1,0 -1,1 -1,1 -1,1 -1,1 -1,1 -1,0 -1,1 -1,0 -1,1 -1,0 -1,1 -1,0 -1,1 -1,0 -1,1 -1,0 -1,1 -1,1 -1,1 -1,0 -1,1 -3,0 -1,1 -1,1 -1,1 -1,1 -1,0 -1,1 -1,1 -1,0 0,1 2,2 0,1 1,1 0,2 1,1 0,2 -1,1 -1,1 -1,0 -1,1 -2,0 -1,-1 0,-2 -1,0 -1,-1 -1,-1 0,-1 -1,-1 -1,-1 -1,1 0,1 -1,1 0,1 -1,1 -1,1 -5,0 0,13 13,-11 0,2 -1,1 -2,0 -1,-1 0,-2 1,-1 2,0 1,1 -13,11 8,-8 0,2 -1,1 -1,0 -1,1 -2,0 -1,-1 0,-2 1,-1 1,0 1,-1 2,0 1,1 -8,8 24,-18 0,-2 1,-1 2,0 1,1 0,2 -1,1 -2,0 -1,-1 -24,18 29,-21 0,-2 1,-1 1,0 1,-1 2,0 1,1 0,2 -1,1 -1,0 -1,1 -2,0 -1,-1 -29,21 36,-25 0,-2 1,-1 2,0 1,1 0,2 -1,1 -2,0 -1,-1 -36,25Z"/>
<path onmouseover="hoverPath(evt)" onmouseout="recoverPath(evt)" fill="rgb(179,203,236)" d="M  13,186l 0,0 -1,1 0,1 1,1 1,1 1,1 0,1 1,1 1,1 1,1 1,1 0,1 1,1 1,1 1,1 1,1 0,1 1,1 2,0 1,1 0,2 -1,1 -2,0 -1,1 -1,1 -1,0 -1,1 -1,1 -1,1 -1,1 -1,1 -1,1 -1,1 -1,0 -1,1 -1,0 -1,1 -1,0 -1,1 -1,1 -1,0 -1,1 -1,0 -1,1 -1,1 -2,0 0,4 4,0 1,-1 0,-1 1,-1 0,-1 1,-1 1,-1 2,0 2,2 1,1 0,1 1,1 1,0 1,1 0,2 1,-1 1,0 1,-1 -1,-1 0,-2 -1,-1 0,-1 -2,-2 0,-3 1,-1 1,0 1,-1 1,-1 1,0 1,-1 1,-1 1,-1 1,-1 3,0 1,-1 1,0 1,-1 1,-1 1,-1 1,0 1,-1 1,0 1,-1 1,0 1,-1 1,0 1,-1 1,0 1,-1 1,0 1,-1 1,-1 1,-1 1,-1 1,-1 1,0 1,-1 1,-1 1,-1 1,-1 2,-2 1,0 1,-1 1,-1 2,0 1,1 1,1 1,1 1,1 0,1 2,0 1,-1 1,0 0,-1 -1,0 -1,-1 -1,-1 -1,-1 -1,-1 -1,-1 -1,-1 -1,-1 -1,-1 -1,-1 -1,-1 0,-1 -1,-1 -1,0 -1,-1 0,-1 -1,-1 0,-1 -1,-1 -1,-1 -1,-1 -1,-1 -1,-1 0,-1 -1,-1 -1,-1 -1,-1 -1,-1 -1,-1 -1,-1 -2,-2 0,-4 -1,0 -1,-1 -1,-1 -1,-1 -4,-4 -1,-1 0,-3 -3,0 0,1 -1,1 -1,0 -1,1 -1,0 0,1 -1,1 3,0 1,1 1,1 0,2 1,1 1,1 1,1 1,1 1,1 1,1 1,1 2,0 1,1 1,1 1,1 1,1 1,1 1,1 1,1 1,1 0,1 1,1 1,1 1,1 1,1 1,1 1,1 1,0 1,1 0,1 1,1 1,1 1,1 1,1 0,4 -1,1 -1,1 -1,0 -1,1 -1,1 -1,0 -1,1 -1,1 -1,1 -1,0 -1,1 -1,1 -3,0 -1,-1 0,-1 -1,-1 -1,-1 -1,-1 -1,-1 0,-1 -1,-1 -1,-1 -1,-1 -1,-1 -1,-1 -1,-1 -1,-1 -1,-1 0,-1 -1,-1 -1,-1 -1,-1 -1,0 0,1 -1,1 -1,0 -1,1 -1,0 -1,1 -1,1 -1,1 -1,1 -1,0 -1,1 -1,0 -1,1 18,-41 3,0 1,-1 1,-1 1,0 1,-1 1,-1 1,0 1,-1 1,0 1,-1 1,-1 1,0 1,-1 1,0 1,-1 1,-1 1,0 1,-1 1,0 1,-1 1,-1 1,0 1,-1 1,0 1,-1 1,-1 1,0 0,-1 -2,1 -1,0 0,1 -2,1 -2,1 -1,0 -1,1 -1,0 0,1 2,-1 -4,2 -1,0 -1,1 -1,0 -1,1 -1,0 -1,1 -1,1 -1,0 -1,1 -1,0 -1,1 -1,1 -1,0 -1,1 -1,0 -1,1 -1,1 -18,41Z"/>
<path onmouseover="hoverPath(evt)" onmouseout="recoverPath(evt)" fill="rgb(244,243,235)" d="M  36,146l 0,0 -1,1 -2,0 0,1 1,1 1,1 1,1 1,1 1,1 1,1 1,1 1,0 1,1 0,1 2,0 1,1 0,1 1,1 1,1 2,2 1,1 1,0 1,1 0,2 1,1 1,1 1,1 1,0 1,1 0,2 1,1 1,1 1,1 1,1 0,1 1,1 1,-1 0,0 1,-1 1,0 1,-1 1,0 1,-1 1,0 1,-1 1,-1 1,0 1,-1 1,-1 1,0 1,-1 1,0 2,-2 1,0 2,-2 1,0 1,-1 1,-1 1,0 1,-1 1,0 1,-1 2,0 1,-1 1,0 1,-1 1,0 0,-1 1,-1 2,0 0,-1 1,-1 1,0 2,-2 1,0 1,-1 1,0 1,-1 1,0 1,-1 1,0 1,-1 2,0 1,-1 1,-1 1,0 1,-1 1,-1 1,-1 1,-1 0,-1 -2,0 -1,-1 -2,0 -1,-1 -1,0 -1,-1 -1,-1 -1,-1 -1,-1 -1,-1 -1,0 -1,-1 0,-2 -1,0 -1,-1 0,-1 -1,-1 -1,-1 -1,-1 -1,-1 -1,-1 -1,0 -1,-1 0,-1 -1,-1 0,-1 -1,-1 -2,-2 -1,-1 -1,-1 0,-1 -1,-1 -1,-1 -1,-1 0,1 -1,1 -1,1 -1,1 -1,0 -1,1 -1,0 -1,1 -1,0 -1,1 -2,0 -1,-1 -1,1 -1,0 -1,1 0,3 -1,1 -1,0 -1,1 -2,0 0,1 -1,1 -1,0 -1,1 -2,0 0,1 -1,1 -1,0 -1,1 -1,1 -1,0 -1,1 -1,0 -1,1 -1,1 -1,0 -1,1 -1,0 -2,2 -1,0 -1,1 -1,0 -1,1 -1,1 -1,0 -1,1 -1,0 -1,1 -1,1 -1,0 -1,1Z"/>
<path onmouseover="hoverPath(evt)" onmouseout="recoverPath(evt)" fill="rgb(242,241,233)" d="M  125,10l 0,1 1,1 0,1 1,1 0,3 1,1 0,1 1,1 0,1 2,0 1,1 0,1 1,1 0,1 1,1 2,2 0,-1 1,-1 1,-1 1,0 1,-1 1,-1 1,0 1,-1 1,-1 1,0 1,-1 1,-1 1,0 1,-1 1,-1 1,0 1,-1 1,0 1,-1 1,0 1,-1 2,0 1,-1 1,0 1,-1 2,0 1,-1 1,0 1,-1 2,0 1,-1 2,0 1,-1 1,0 1,-1 1,0 1,-1 1,0 1,-1 1,0 1,-1 1,0 1,-1 1,-1 1,0 1,-1 0,-1 -59,0 0,2 1,1 0,3 -1,1 -1,1 0,2 27,-6 2,0 1,1 0,2 -1,1 -1,0 -1,1 -2,0 -1,-1 0,-2 1,-1 1,0 1,-1 -27,6Z"/>
<path onmouseover="hoverPath(evt)" onmouseout="recoverPath(evt)" fill="rgb(243,242,234)" d="M  208,18l -1,1 -1,0 -1,1 1,1 0,0 1,1 1,1 1,1 1,1 1,1 1,1 1,1 1,1 1,1 1,1 0,1 1,1 2,2 1,1 1,1 1,1 1,1 1,1 1,0 1,1 1,1 1,1 1,1 1,1 0,1 1,1 1,1 1,0 1,-1 1,0 1,-1 1,0 1,-1 1,0 1,-1 1,0 2,-2 1,0 0,-2 1,-1 2,0 1,1 1,-1 1,0 1,-1 1,-1 3,0 0,-17 -2,0 -1,-1 -1,-1 -2,0 -1,-1 -1,-1 -5,-5 -1,-1 -1,-1 0,-3 -1,-1 -2,0 -1,-1 -1,-1 -1,-1 0,-2 -4,0 0,4 -1,1 -1,0 -1,1 -1,1 -1,0 -1,1 -1,1 -1,0 -1,1 -1,1 -1,0 -1,1 -1,0 -1,1 -1,0 -1,1 -1,1 -1,0 -1,1 -1,1 -1,0 -1,1Z"/>
<path onmouseover="hoverPath(evt)" onmouseout="recoverPath(evt)" fill="rgb(253,253,252)" d="M  220,58l -1,0 -1,1 -1,0 -1,1 -1,1 -1,0 -2,2 -1,0 -1,1 -1,1 -1,0 -1,1 -2,0 0,1 -1,1 -1,1 -1,0 -1,1 -1,1 -2,0 0,2 1,0 1,-1 0,0 1,-1 1,0 1,-1 1,-1 4,0 0,-2 2,-2 1,0 1,-1 1,-1 1,0 1,-1 1,-1 1,0 1,-1 1,0 1,-1 0,-1 1,-1 1,1 0,0 1,-1 1,0 1,-1 1,0 1,-1 1,0 1,-1 1,0 1,-1 1,0 1,-1 1,-1 1,0 1,-1 1,0 1,-1 1,-1 1,0 1,-1 1,0 1,-1 2,0 1,1 0,-2 2,-2 1,0 1,-1 1,0 1,-1 3,0 0,-2 -2,0 -1,1 0,0 -1,1 -1,0 -1,1 -2,0 -1,-1 0,2 -1,1 -1,0 -1,1 -1,1 -1,0 -1,1 -1,0 -1,1 -1,0 -1,1 -1,0 -1,1 -3,0 -1,-1 -1,-1 -1,-1 0,-1 -2,-2 -1,-1 -1,-1 -1,0 -1,-1 -1,-1 -1,-1 -1,-1 -1,-1 -1,-1 -1,-1 -1,-1 -1,-1 0,-1 -1,-1 -1,-1 -1,-1 -1,-1 -1,-1 -1,-1 -1,-1 -1,-1 -1,-1 -1,-1 -1,-1 3,4 0,2 2,0 1,1 1,1 1,1 1,1 1,1 8,25 -1,1 10,-6 -1,1 -1,0 -1,1 -1,0 -1,1 -1,0 -1,1 -1,1 2,-1 2,-1 2,-1 2,-1 0,-1 -10,6Z"/>
<path onmouseover="hoverPath(evt)" onmouseout="recoverPath(evt)" fill="rgb(240,239,232)" d="M  222,163l 0,0 1,1 1,1 1,1 1,1 0,2 -1,1 -1,1 3,-4 1,0 1,-1 1,0 1,-1 1,-1 1,0 1,-1 3,0 1,1 1,0 0,-1 1,-1 2,0 0,-1 1,-1 1,0 1,-1 2,0 0,-1 1,-1 2,0 1,-1 4,0 0,-8 -2,0 -1,-1 -1,0 -1,-1 -1,-1 -1,0 -1,-1 -1,0 -1,-1 -1,0 -1,-1 -1,0 -1,-1 -1,0 -1,-1 -1,0 -1,-1 -1,0 -1,-1 -1,0 -1,-1 -1,0 -1,-1 -1,0 -1,-1 -1,0 -1,-1 -1,0 -1,-1 -2,0 -1,-1 -1,0 -1,-1 -1,0 -1,-1 -1,0 -1,-1 -1,0 -1,-1 -1,0 -1,-1 -1,0 -1,-1 -1,0 -1,-1 -1,0 -1,-1 -1,0 -1,1 0,1 1,1 0,0 1,1 1,0 1,1 0,1 1,1 1,1 0,1 1,1 1,1 1,1 1,1 1,1 1,1 1,0 1,1 0,4 1,0 1,1 1,1 1,1 1,1 1,1 1,1 1,0 1,-1 2,0 1,1 0,6 -1,1 -2,0 -1,1 -1,0 -1,1 -1,1 -1,0 -1,1 -1,1 1,0 1,1Z"/>
<path onmouseover="hoverPath(evt)" onmouseout="recoverPath(evt)" fill="rgb(240,241,233)" d="M  244,10l 0,0 1,1 1,1 1,1 1,1 1,1 1,1 2,0 1,1 1,1 1,0 0,-18 -19,0 0,1 1,1 0,0 1,1 2,0 2,2 0,3 1,1 1,1Z"/>
<path onmouseover="hoverPath(evt)" onmouseout="recoverPath(evt)" fill="rgb(173,198,233)" d="M  30,94l 0,0 1,-1 2,0 1,-1 0,-2 1,-1 1,0 0,-1 1,-1 1,0 0,-1 1,-1 0,-1 1,-1 3,0 0,-2 1,-1 5,0 1,-1 1,-1 3,0 1,-1 1,0 1,-1 1,-1 2,0 1,-1 1,0 1,-1 1,0 0,-1 1,-1 4,0 1,-1 3,0 1,-1 1,0 2,-2 1,0 1,-1 1,0 1,-1 2,0 0,-2 1,-1 1,-1 0,-2 -1,-1 0,-1 -1,-1 -1,-1 0,-1 -1,-1 0,-1 -1,-1 -1,-1 -1,-1 0,-3 -1,-1 -1,-1 -1,1 -1,0 0,1 -1,1 0,1 -1,1 -3,0 -1,1 0,2 -1,1 -1,0 -1,1 -2,0 -1,1 -4,0 -1,1 -3,0 -1,1 -3,0 -1,1 -3,0 -1,1 -2,0 -1,1 -1,0 -1,1 -1,0 -1,1 -1,0 -1,1 -1,0 -1,1 -1,0 -1,1 -2,0 0,1 -1,1 -1,0 -1,1 -1,0 -1,1 -1,0 -2,2 -1,0 -1,1 -1,0 -1,1 -1,0 -1,1 -1,0 -1,1 -2,0 0,1 -1,1 -1,0 -1,1 -1,0 -1,1 -1,1 -1,0 -1,1 -1,0 -1,1 -2,0 0,27 1,0 1,-1 1,0 0,-1 1,-1 1,-1 1,-1 2,0 1,-1 1,-1 1,0 1,-1 1,0 1,-1 1,-1 1,-1 1,0 1,-1 1,-1 4,0 1,-1 5,0 1,-1 52,-22 -1,0 -1,1 -1,1 -1,0 -1,1 -1,0 5,-2 0,0 1,-1 -52,22Z"/>
<path onmouseover="hoverPath(evt)" onmouseout="recoverPath(evt)" fill="rgb(241,241,235)" d="M  74,195l 0,1 1,1 1,0 1,1 1,1 1,1 1,1 1,1 0,1 1,1 0,1 1,1 2,2 1,1 1,1 1,1 1,1 0,1 1,0 1,1 0,1 1,1 1,1 1,1 1,1 1,1 1,1 1,1 0,1 1,0 1,1 1,1 1,1 1,1 1,1 1,1 0,1 1,1 1,1 1,1 0,1 1,0 1,1 1,1 1,1 1,1 1,1 1,1 3,0 1,-1 0,-1 -1,-1 0,0 -1,-1 -1,-1 -1,-1 -1,-1 -1,-1 -1,-1 -1,-1 -1,-1 0,-1 -1,-1 -2,0 -1,-1 0,-1 -1,-1 -1,-1 -1,-1 -1,-1 -1,-1 -1,-1 -1,-1 0,-4 1,-1 1,-1 3,0 1,-1 0,-1 1,-1 1,0 1,-1 1,-1 1,-1 1,-1 1,0 1,-1 4,0 0,-3 1,-1 1,-1 1,-1 1,0 1,-1 1,-1 3,0 0,-1 1,-1 1,-1 1,0 1,-1 1,-1 1,-1 1,0 1,-1 2,0 0,-1 1,-1 1,-1 1,-1 3,0 0,-2 1,-1 1,-1 1,-1 1,0 2,-2 1,0 2,-2 1,0 1,-1 2,0 1,1 1,1 1,1 1,1 1,1 1,1 1,1 1,1 1,1 1,1 0,1 6,0 1,1 1,1 1,1 1,0 1,1 1,0 1,-1 2,0 1,-1 -4,1 -1,0 -2,-1 -1,-1 -1,-1 -1,-1 -1,-1 -1,-1 -1,-1 -1,-1 -1,-1 -1,-1 -1,-1 -1,-1 -1,-1 -1,-1 -1,-1 -1,-1 -1,-1 -1,-1 0,-1 -1,-1 -1,-1 -1,-1 -1,-1 0,-1 -1,0 -1,-1 0,-4 -1,-1 0,-2 1,-1 -3,0 -1,-1 0,-2 1,-1 1,-1 0,-1 -1,-1 0,-2 2,-2 0,-2 1,-1 0,-1 -1,-1 -1,0 -1,-1 0,-2 -1,0 -1,-1 0,-5 1,-1 1,0 1,-1 0,-1 -1,0 -1,1 -1,1 -1,0 -1,1 -1,0 -1,1 -1,1 -2,0 -1,1 -1,0 -1,1 -2,0 0,2 -2,2 -3,0 -1,1 -2,0 -2,2 -1,1 -2,0 0,2 -1,1 -2,2 -1,1 -1,1 -1,0 -2,2 -2,0 -1,1 -1,0 -1,1 -1,0 -1,1 -1,0 -1,1 -1,0 -1,1 -1,1 -1,0 0,1 -1,1 -2,0 0,4 -1,1 -1,0 -1,1 -1,0 -1,1 -1,1 -1,0 -1,1 -1,1 -1,0 -1,1 -1,1 -1,0 -2,2 -1,0 -2,2 -1,0 -1,1 -1,1 -1,0 -1,1 -1,1 -1,0 0,3 1,1 0,4 -1,1 2,0 1,1 0,2 -1,1 -1,1 1,1 75,-53 -2,0 -1,1 -1,1 0,0 4,-2 -75,53 71,-50 0,1 1,1 -1,-2 -71,50 73,-48 0,0 -73,48 62,-52 2,0 1,1 0,2 -1,1 -2,0 -1,-1 0,-2 1,-1 -62,52 19,-20 1,-1 1,-1 2,0 1,1 0,2 -1,1 -1,1 -2,0 -1,-1 0,-2 -19,20 38,-34 2,0 1,1 0,2 -1,1 -1,1 -2,0 -1,-1 0,-2 1,-1 1,-1 -38,34Z"/>
<path onmouseover="hoverPath(evt)" onmouseout="recoverPath(evt)" fill="rgb(172,198,237)" d="M  93,163l 0,0 -1,1 1,0 1,-1 1,0 0,-1 -4,2 -1,0 -1,1 -1,0 -1,1 -1,0 -1,1 -1,1 -1,0 -2,2 -1,0 -1,1 -1,1 -1,0 -1,1 -1,0 -1,1 -1,1 -1,0 -1,1 -1,1 -1,0 -1,1 -1,0 -1,1 -1,0 -1,1 1,1 0,0 1,1 1,1 0,1 1,0 1,1 1,1 1,1 0,-2 -1,-1 0,-5 1,-1 1,0 1,-1 1,-1 1,0 1,-1 1,-1 1,0 1,-1 1,-1 1,0 1,-1 1,-1 1,0 1,-1 1,-1 1,0 1,-1 1,-1 1,0 1,-1 -1,0 -2,1 -3,2 -3,2 -3,2 14,-9Z"/>
<path onmouseover="hoverPath(evt)" onmouseout="recoverPath(evt)" fill="rgb(243,242,236)" d="M  132,134l 0,0 1,-1 2,0 1,-1 1,0 1,-1 2,0 1,-1 1,-1 1,0 1,-1 1,0 1,-1 1,-1 3,0 1,1 1,0 1,-1 1,-1 1,-1 1,-1 1,0 1,-1 1,-1 1,-1 1,-1 1,0 1,-1 1,-1 1,-1 1,0 1,-1 1,0 1,-1 1,-1 1,-1 2,0 1,-1 1,-1 1,0 1,-1 3,0 1,1 0,-1 -2,-1 -2,0 -1,-1 0,-1 -1,0 -1,-1 -1,-1 -1,0 -1,-1 -1,0 -1,-1 -1,0 -1,-1 -2,0 -1,-1 0,-1 -1,0 -1,-1 -1,0 -1,-1 -1,-1 -1,0 -1,-1 -1,0 -1,-1 -1,0 -1,-1 -1,0 -1,-1 -1,0 -1,-1 -1,0 -1,-1 -2,0 -1,-1 -1,1 -2,0 -1,-1 -1,0 -1,-1 -1,0 -1,-1 -1,0 -1,-1 -1,-1 0,-2 -1,-1 -1,0 -1,-1 -1,-1 -1,0 0,1 -1,1 0,1 -1,1 -1,0 -1,1 -1,1 -1,1 -1,1 -1,1 -1,0 0,1 -1,1 0,1 -1,1 -1,1 -2,0 0,2 -1,1 -1,1 -1,0 -1,1 -1,0 -1,1 -1,1 -1,1 -2,0 0,1 -2,2 -1,0 -1,1 -1,0 -1,1 -1,0 -1,1 -1,1 -1,0 -1,1 -1,1 -4,0 1,1 0,0 1,1 1,1 1,1 0,1 1,1 1,1 1,1 1,1 1,1 0,1 1,1 0,1 1,0 1,1 1,1 1,1 1,1 1,1 1,1 0,1 1,0 1,1 0,2 1,0 1,1 1,1 1,1 1,1 1,1 1,0 1,1 2,0 1,1 4,0 1,-1 0,0 1,-1 1,-1 2,0 1,-1 3,0 1,-1Z"/>
<path onmouseover="hoverPath(evt)" onmouseout="recoverPath(evt)" fill="rgb(253,253,253)" d="M  157,51l 3,3 0,2 1,0 1,1 1,1 1,1 1,1 0,2 1,0 2,2 1,1 2,2 1,1 0,1 1,1 0,1 1,0 1,1 2,2 1,1 5,5 1,1 2,0 1,1 1,-1 0,-1 1,-1 1,0 1,-1 1,-1 1,0 1,-1 2,0 0,-2 -1,0 -1,1 -1,0 -1,1 -1,1 -1,0 -1,1 -1,0 -1,1 -4,0 -4,-4 0,-1 -1,-1 0,0 -1,-1 0,-1 -1,0 -1,-1 -1,-1 -1,-1 -1,-1 -1,-1 -1,-1 -1,-1 -1,-1 0,-2 -1,0 -1,-1 -1,-1 -1,-1 0,-2 -1,0 -1,-1 -1,-1 -1,-1 -1,-1 0,-1 -1,-1 -1,1Z"/>
<path onmouseover="hoverPath(evt)" onmouseout="recoverPath(evt)" fill="rgb(172,199,238)" d="M  174,210l 0,0 -1,1 -1,0 -1,1 -1,1 -1,0 -1,1 -1,0 -1,1 0,2 1,1 0,0 1,1 1,0 1,1 1,1 1,1 1,1 1,0 1,-1 0,0 1,-1 1,-1 1,-1 -1,-1 0,0 -1,-1 -1,-1 0,-2 1,-1 2,0 1,1 1,1 1,1 1,1 0,1 1,0 1,1 1,1 1,0 1,1 1,1 1,1 1,1 1,1 0,2 1,1 1,-1 2,0 1,-1 1,0 1,-1 1,-1 1,-1 1,0 1,-1 1,0 1,-1 1,0 1,-1 1,-1 1,-1 1,0 1,-1 1,0 1,-1 1,-1 1,0 1,-1 1,-1 1,0 1,-1 1,-1 -1,-1 0,0 -1,-1 -1,0 -1,-1 -1,-1 -1,-1 -1,-1 -1,-1 -1,-1 0,-3 1,-1 1,-1 1,-1 1,0 1,-1 -1,-1 0,0 -1,-1 -1,-1 -1,-1 -1,0 -1,-1 -1,-1 -2,0 -1,1 -1,1 -1,0 1,1 0,0 1,1 1,1 1,1 1,1 0,2 -1,1 -2,0 -1,-1 -3,-3 -1,-1 -1,0 -1,1 -1,0 -1,1 -1,1 -2,0 -1,-1 -1,1 -1,1 -1,1 -1,0 0,2 -2,2 -1,0 0,1 1,1 0,0 1,1 1,1 0,2 -1,1 -2,0 -1,-1 -1,-1 -1,-1 -1,-1 -1,1 -1,1 -2,0 -1,-1 -2,2Z"/>
<path onmouseover="hoverPath(evt)" onmouseout="recoverPath(evt)" fill="rgb(236,238,233)" d="M  99,4l 0,2 -1,1 2,0 1,1 0,2 1,1 0,1 1,1 0,3 1,-1 1,0 0,-1 1,-1 1,-1 1,0 1,-1 3,0 1,1 1,1 0,2 2,0 0,-3 -1,-1 0,-3 -1,0 -1,1 -2,0 -1,-1 -1,-1 0,-1 -1,-1 0,-2 -1,-1 0,-2 -7,0 0,3 -1,1Z"/>
<path onmouseover="hoverPath(evt)" onmouseout="recoverPath(evt)" fill="rgb(171,198,237)" d="M  138,28l 0,2 1,1 1,0 1,-1 0,0 1,-1 1,0 1,-1 1,-1 1,-1 1,0 1,-1 1,-1 1,-1 1,0 1,-1 1,-1 1,0 1,-1 1,0 1,-1 1,0 1,-1 1,-1 2,0 1,-1 2,0 1,-1 2,0 1,-1 1,0 1,-1 1,0 1,-1 1,0 1,-1 1,0 1,-1 1,0 1,-1 1,0 1,-1 1,0 1,-1 1,0 1,-1 1,-1 1,0 1,-1 1,-1 2,-2 1,-1 -5,0 0,2 -1,1 -1,1 -1,0 -1,1 -1,1 -1,0 -1,1 -1,0 -1,1 -1,0 -1,1 -1,0 -1,1 -1,0 -1,1 -2,0 -1,1 -2,0 -1,1 -1,0 -1,1 -2,0 -1,1 -1,0 -1,1 -2,0 -1,1 -1,0 -1,1 -1,0 -1,1 -1,0 -1,1 -1,1 -1,0 -1,1 -1,1 -1,0 -1,1 -1,1 -1,0 -1,1 -1,1 -1,0 -1,1Z"/>
<path onmouseover="hoverPath(evt)" onmouseout="recoverPath(evt)" fill="rgb(244,234,141)" d="M  0,157l 0,8 1,0 1,-1 0,0 1,-1 1,0 1,-1 1,-1 1,0 1,-1 1,0 1,-1 1,-1 2,0 1,-1 1,0 0,-1 1,-1 1,0 1,-1 1,-1 1,0 0,-3 1,-1 1,0 0,-1 1,-1 1,0 1,-1 1,0 0,-1 1,-1 2,0 0,-1 1,-1 1,0 1,-1 1,0 1,-1 1,0 1,-1 1,-1 1,0 1,-1 1,0 1,-1 1,-1 1,0 1,-1 1,0 1,-1 2,0 0,-1 1,-1 1,0 1,-1 2,0 1,-1 1,0 0,-1 1,-1 2,0 1,-1 2,0 1,1 1,0 1,-1 1,0 0,-1 1,-1 2,0 1,-1 1,0 0,-3 1,-1 1,-1 1,0 1,-1 2,0 1,1 1,-1 1,0 1,-1 1,0 1,-1 1,0 1,-1 1,-1 0,-1 1,-1 0,-1 1,-1 4,0 1,-1 1,-1 1,0 1,-1 1,-1 1,0 1,-1 1,0 1,-1 1,0 1,-1 0,-1 1,-1 2,0 1,-1 1,-1 1,-1 1,0 1,-1 1,0 1,-1 0,-2 1,-1 2,0 1,-1 0,-1 1,-1 0,-1 1,-1 1,0 2,-2 1,-1 1,-1 1,-1 1,0 0,-1 1,-1 0,-1 1,-1 2,0 0,-1 1,-1 0,-3 1,-1 1,-1 0,-1 1,-1 2,0 1,-1 1,-1 1,-1 0,-1 1,-1 1,-1 1,-1 1,-1 1,0 1,-1 1,-1 1,-1 1,-1 0,-1 1,-1 1,0 1,-1 1,0 1,-1 1,-1 2,0 0,-3 1,-1 3,0 1,1 0,-1 1,-1 1,-1 1,-1 1,0 1,-1 1,-1 1,0 1,-1 1,-1 1,0 1,-1 1,0 1,-1 2,-2 1,0 1,-1 1,-1 1,0 1,-1 1,-1 1,0 1,-1 1,0 1,-1 1,-1 1,0 1,-1 0,-1 1,-1 2,0 0,-1 1,-1 2,0 0,-1 1,-1 2,0 1,-1 1,0 0,-1 1,-1 1,0 1,-1 1,0 1,-1 1,-1 1,0 1,-1 1,-1 1,0 1,-1 1,-1 1,0 1,-1 1,-1 1,0 1,-1 1,0 1,-1 1,0 1,-1 1,-1 1,0 1,-1 1,-1 1,0 1,-1 1,-1 1,0 0,-3 -9,0 0,2 -1,1 -1,0 -1,1 -1,1 -1,0 -1,1 -1,0 -1,1 -1,0 -1,1 -1,1 -1,0 -1,1 -1,0 -1,1 0,1 -1,1 -2,0 -1,1 -1,1 -1,0 -1,1 -1,1 -1,0 -1,1 -1,1 -1,0 -1,1 -1,1 -1,0 -1,1 -1,1 -1,0 -1,1 0,1 -1,1 -2,0 -1,1 -1,1 -1,0 -1,1 -1,0 -1,1 -1,1 -1,0 0,1 -1,1 -2,0 -1,1 0,1 -1,1 -2,0 -1,1 -1,0 -1,1 -1,1 -1,0 0,1 -1,1 -2,0 -1,1 -1,1 -1,0 -1,1 -1,0 -1,1 0,1 -1,1 -1,0 0,2 -1,1 -4,0 -3,3 -1,1 -1,1 0,2 -1,1 -1,1 -2,2 -1,1 -1,1 -1,1 -1,1 -2,0 -1,1 -1,1 0,1 -1,1 0,2 -1,1 0,1 -1,1 -2,0 -1,1 0,1 -1,1 -1,0 -1,1 -1,1 0,1 -1,1 -1,0 -1,1 -1,1 -1,1 0,1 -1,1 -1,0 0,2 -1,1 -3,0 -1,-1 -1,-1 -1,-1 -1,-1 3,4 0,2 -1,1 -1,1 -1,0 -1,1 -2,2 -1,0 -1,1 0,1 -1,1 -2,0 -1,1 -1,0 -1,1 -1,0 -1,1 -1,1 -1,0 -1,1 -1,0 -1,1 -1,1 -1,0 -1,1 -1,0 -1,1 -1,1 -1,0 -1,1 -1,1 -1,0 -1,1 -1,0 -1,1 -1,0 -1,1 -1,1 -1,0 -1,1 -1,0 -1,1 -1,0 -1,1 -1,1 -1,0 -1,1 -1,0 -1,1 -1,0 -1,1 -1,1 -1,0 -1,1 -1,0 -1,1 -1,0 -1,1 -1,1 -1,0 -1,1 -1,0 -1,1 -1,0 -1,1 -1,1 -1,0 -1,1 -1,0 -1,1 -1,0 -1,1 -1,1 -1,0 -1,1 -1,0 -1,1 -1,1 -1,0 -1,1 -1,0 -1,1 -1,1 -1,0 -1,1 0,1 -1,1 -2,0 -1,1 -1,1 -1,0 -1,1 -1,0 -1,1 -1,0 -1,1 -1,1 -1,0 -1,1 -1,0 -1,1 -1,0 -1,1 -1,1 -1,0 -1,1 -2,0Z"/>
<path onmouseover="hoverPath(evt)" onmouseout="recoverPath(evt)" fill="rgb(238,242,248)" d="M  61,181l 0,0 -1,-1 -1,-1 0,1 1,1 1,1 1,1 1,1 1,1 1,1 1,1 1,1 1,1 1,0 1,1 0,3 -1,1 -1,0 -1,1 -1,0 0,1 -1,1 -1,1 -1,1 -2,0 0,1 -1,1 -1,1 -1,1 -1,1 -1,1 -1,0 -1,1 3,-1 9,-8 2,0 1,1 0,1 1,0 1,1 1,1 1,1 1,1 1,1 1,1 0,1 1,1 0,1 1,0 1,1 1,1 1,1 1,1 1,1 0,1 1,0 1,1 0,1 1,1 1,1 1,1 0,1 1,1 0,1 1,1 1,1 1,1 1,1 1,1 1,1 1,1 1,0 0,-1 -1,-1 0,0 -1,-1 0,-2 1,-1 -1,-1 -1,-1 -1,-1 -1,-1 -1,-1 -1,-1 -1,-1 0,-1 -1,0 -1,-1 0,-1 -1,-1 -1,-1 -1,-1 -1,-1 -1,-1 -1,-1 -1,-1 0,-1 -1,-1 0,-1 -1,-1 -1,-1 -1,-1 -1,-1 -1,0 -1,-1 -1,-1 0,-1 -1,-1 0,-2 1,-1 1,-1 -2,0 -10,-10 9,8 -1,-1 -1,-1 -1,-1 -1,0 -1,-1 0,-1 -1,-1 -1,-1 -1,-1 0,1 1,1 1,1 3,3 1,1 -9,-10 -1,-1 -1,-1 -1,-1 -1,-1 0,-2 -1,0 -2,-2 -1,-1 -1,-1 0,-2 -1,0 -1,-1 -1,-1 -1,-1 -1,-1 -1,-1 -1,-1 0,-1 -1,0 0,1 1,1 1,1 1,1 2,2 1,1 1,1 1,2 1,1 1,1 1,1 1,1 1,2 1,1 0,1 1,0 1,1 12,11 -9,-8Z"/>
<path onmouseover="hoverPath(evt)" onmouseout="recoverPath(evt)" fill="rgb(231,231,226)" d="M  102,48l 0,0 1,-1 1,-1 1,0 3,-3 1,0 1,-1 1,-1 1,0 1,-1 1,0 1,-1 1,0 1,-1 1,0 1,-1 1,0 1,-1 1,0 1,-1 1,-1 1,0 1,-1 1,0 1,-1 1,0 1,-1 5,0 1,1 0,-2 -1,0 -1,-1 -1,-1 -1,-1 -1,-1 0,-1 -1,-1 0,-1 -2,0 -1,-1 0,-1 -1,-1 0,-1 -1,-1 0,-3 -1,-1 0,-1 -1,-1 0,-5 1,-1 1,-1 0,-1 -1,-1 0,-3 -15,0 0,1 1,1 0,2 1,1 0,1 1,1 1,-1 3,0 1,1 0,3 1,1 0,5 -1,1 -4,0 -1,-1 0,-2 -1,-1 -1,0 -1,1 -1,0 -1,1 0,1 -1,1 -1,0 -1,1 -2,0 -1,-1 0,-3 -1,-1 0,-1 -1,-1 0,-2 -1,0 -1,1 0,2 -1,1 0,2 -1,1 0,2 -1,1 0,3 -1,1 0,3 -1,1 -1,1 0,2 -1,1 0,4 -1,1 0,5 1,1 0,1 1,1 0,3 1,1 0,1 1,0 1,1 0,1 1,1 2,0 1,-1 0,0 1,-1 1,-1 1,0 1,-1 35,-16 -1,1 1,0 1,1 4,4 1,1 1,1 1,1 1,1 -7,-8 0,-1 -1,0 -1,-1 -35,16Z"/>
<path onmouseover="hoverPath(evt)" onmouseout="recoverPath(evt)" fill="rgb(243,242,234)" d="M  110,51l -1,0 -1,1 -1,1 0,2 1,1 1,0 1,1 1,1 1,0 1,1 1,1 1,0 1,1 1,1 1,0 1,1 1,1 1,0 1,1 1,1 1,0 1,1 2,0 0,-1 1,-1 1,-1 1,-1 2,0 1,-1 2,-2 1,-1 1,-1 1,-1 1,-1 0,-2 1,-1 5,-5 4,0 0,-2 1,-1 1,0 -1,-1 -1,0 -1,-1 -1,1 -2,0 -1,-1 -1,-1 -1,-1 -1,-1 -1,-1 -1,-1 -1,-1 -1,-1 -1,-1 0,1 -1,1 -1,0 -1,1 -2,0 -1,1 -1,0 -1,1 -1,0 -1,1 -2,0 -1,1 -1,1 -1,0 -1,1 -1,0 -1,1 -1,1 -1,0 -1,1 -1,1 -1,0 -1,1 -1,1 -1,1Z"/>
<path onmouseover="hoverPath(evt)" onmouseout="recoverPath(evt)" fill="rgb(244,243,236)" d="M  146,29l 0,0 -1,1 -1,1 -1,0 -1,1 -1,1 0,1 1,1 0,0 1,1 1,1 1,1 1,1 1,1 1,1 1,0 1,1 1,0 1,1 1,-1 1,0 1,-1 1,0 1,-1 1,-1 2,0 0,-1 1,-1 1,0 1,-1 1,-1 1,0 1,-1 2,0 0,-1 1,-1 1,-1 2,0 0,-1 1,-1 1,0 1,-1 1,-1 1,0 1,-1 1,0 1,-1 1,-1 2,0 0,-1 1,-1 1,-1 1,0 1,-1 1,-1 1,0 1,-1 1,-1 1,0 1,-1 1,-1 1,0 1,-1 1,-1 1,0 1,-1 1,-1 2,0 0,-1 1,-1 1,-1 1,0 1,-1 1,0 1,-1 1,-1 1,0 1,-1 1,0 1,-1 1,0 1,-1 1,-1 1,0 0,-1 -23,0 0,1 -1,1 -1,1 -1,1 -1,1 -1,1 -1,1 -1,0 -1,1 -1,1 -1,0 -1,1 -1,0 -1,1 -1,0 -1,1 -1,0 -1,1 -1,0 -1,1 -1,0 -1,1 -1,0 -1,1 -1,0 -1,1 -2,0 -1,1 -2,0 -1,1 -2,0 -1,1 -1,1 -1,0 -1,1 -1,0 -1,1 -1,0 -1,1 -1,1 -1,0 -1,1 -1,1 -1,1 -1,0 -1,1Z"/>
<path onmouseover="hoverPath(evt)" onmouseout="recoverPath(evt)" fill="rgb(172,199,238)" d="M  18,166l 3,3 1,1 2,2 1,1 0,-1 1,-1 1,0 1,-1 1,0 1,-1 1,0 1,-1 1,-1 1,-1 0,-2 -1,-1 0,0 -1,-1 -1,-1 -1,-1 -1,-1 -1,-1 -1,-1 -1,-1 -1,0 -1,1 0,0 -1,1 -1,0 -1,1 -1,0 0,1 -1,1 -2,0 -1,1 -1,0 1,1 1,1 0,1 1,1Z"/>
<path onmouseover="hoverPath(evt)" onmouseout="recoverPath(evt)" fill="rgb(181,205,238)" d="M  101,255l 22,0 0,-1 -1,0 -1,-1 -1,0 -1,-1 0,-1 -1,0 -1,-1 -1,0 -1,-1 -1,-1 -2,-2 -1,0 -1,-1 0,-2 -1,-1 -1,-1 -1,-1 -1,-1 -1,0 -1,-1 0,-2 -1,-1 -1,-1 -1,-1 -1,-1 -1,-1 -4,0 -1,-1 -1,-1 -1,-1 -1,-1 -1,-1 -1,-1 -1,-1 -3,0 -1,1 -1,0 -1,1 -1,0 0,1 -1,1 -3,0 -1,1 -1,1 -1,0 -1,1 -1,0 -1,1 -1,1 -1,0 -1,1 -1,0 -1,1 -1,1 -1,0 -1,1 -1,1 -1,0 -1,1 -2,0 -1,1 -1,1 -1,0 -1,1 -1,1 -1,0 -1,1 -1,0 -1,1 -1,0 -1,1 -1,1 0,1 -1,1 -5,0 -1,1 -1,1 -1,0 -1,1 -2,0 -2,-2 0,-1 -1,-1 -1,1 -1,0 -1,1 -1,0 -1,1 -1,1 -1,0 -1,1 -1,1 -1,0 0,1Z"/>
<path onmouseover="hoverPath(evt)" onmouseout="recoverPath(evt)" fill="rgb(244,243,235)" d="M  145,62l 0,0 -1,1 -1,0 -1,1 -1,1 -1,1 0,1 -1,1 -1,1 -1,1 0,1 1,0 1,1 1,1 1,0 1,1 1,0 1,1 1,1 1,1 1,0 1,1 1,0 1,1 1,1 1,1 1,1 1,1 1,1 1,1 1,0 1,1 1,1 1,0 1,1 1,1 1,0 1,1 1,0 1,1 1,1 1,0 1,1 1,1 1,0 1,1 1,0 1,1 1,1 1,1 1,0 1,1 1,1 1,1 1,1 2,0 1,-1 1,0 1,-1 1,0 1,-1 1,0 1,-1 1,0 1,-1 3,0 1,-1 6,0 -2,-1 0,0 -1,-1 -1,-1 -2,0 -1,-1 0,-1 -1,-1 -1,-1 -2,0 -1,-1 0,-1 -1,-1 -1,-1 -1,-1 -1,0 -1,-1 -2,0 -1,-1 -1,-1 -1,-1 -7,-7 -1,0 -1,-1 0,-1 -1,-1 0,-1 -3,-3 -1,-1 -1,-1 -1,0 -1,-1 0,-2 -1,-1 -1,-1 -1,-1 -1,0 -1,-1 -1,0 -1,-1 -1,-1 -1,-1 -1,1 0,0 -1,1 -1,0 -1,1 -1,0 0,1 -4,4Z"/>
<path onmouseover="hoverPath(evt)" onmouseout="recoverPath(evt)" fill="rgb(180,204,237)" d="M  153,217l 0,0 -1,1 -1,1 -2,0 -1,-1 -1,-1 -1,-1 -1,-1 -1,-1 -1,-1 -1,-1 -1,-1 -1,-1 -1,-1 9,10 0,1 -1,1 -1,1 -1,1 -1,1 -1,0 -1,1 -1,1 -2,0 -1,-1 -1,-1 -1,-1 -1,-1 -1,-1 -1,-1 -1,-1 -1,-1 -1,-1 -1,-1 0,-1 -2,0 -1,-1 0,1 -1,1 0,0 -1,1 -1,1 -1,0 -1,1 0,2 -3,3 1,1 0,1 1,1 1,1 1,1 1,1 1,1 1,1 3,0 1,1 2,0 1,1 0,2 -1,1 -1,1 -1,0 -1,1 -1,1 -2,0 -1,-1 -1,0 -1,-1 -1,0 0,2 -1,1 -1,1 -5,0 -1,-1 -1,-1 -1,-1 -1,-1 -1,-1 -1,-1 -1,0 -1,-1 0,-1 -1,-1 -1,-1 -1,-1 0,-1 -1,-1 -1,-1 -1,-1 -1,-1 -1,-1 -1,0 1,1 1,1 0,2 1,0 1,1 1,1 1,1 1,1 1,1 -3,-4 -1,-1 5,7 0,1 1,0 1,1 1,1 1,1 1,1 1,1 0,2 1,0 1,1 1,1 1,1 1,1 1,0 1,1 1,0 1,1 0,1 1,0 1,1 1,0 1,1 0,2 31,0 0,-2 1,-1 1,-1 1,0 1,-1 1,0 1,-1 1,-1 0,-1 1,-1 1,-1 2,0 0,-1 1,-1 2,0 1,-1 0,-1 1,-1 2,0 1,-1 1,0 1,-1 1,-1 1,0 1,-1 1,0 0,-1 1,-1 2,0 1,-1 1,0 1,-1 1,0 1,-1 1,-1 1,0 -1,-1 0,0 -1,-1 0,-2 -1,-1 -1,-1 -1,-1 -1,-1 -1,0 -1,-1 -1,-1 -1,0 -1,-1 0,-1 -1,-1 -1,-1 -1,-1 3,5 -1,1 -1,1 -3,3 -3,0 -1,-1 -1,-1 -1,-1 -1,-1 -1,0 -1,-1 -1,-1 -1,-1 0,-4 1,-1 1,-1 1,0 1,-1 1,0 1,-1 1,-1 1,0 3,-3 2,0 1,1 1,-1 1,-1 2,0 1,1 1,1 1,1 1,1 -3,-4 0,-2 1,-1 1,0 1,-1 0,-2 1,-1 1,0 1,-1 1,-1 1,-1 2,0 1,1 1,-1 1,-1 1,0 1,-1 3,0 1,1 1,1 1,1 1,1 1,1 -5,-6 0,-1 1,-1 1,0 2,-2 1,0 0,-2 1,-1 1,0 1,-1 1,-1 1,0 1,-1 1,-1 1,0 1,-1 1,-1 1,0 1,-1 1,-1 1,0 1,-1 1,-1 1,0 1,-1 1,-1 1,0 1,-1 1,-1 1,0 1,-1 1,-1 1,0 1,-1 0,-1 1,-1 2,0 0,-1 -1,0 -2,1 -1,1 0,0 -1,1 -1,0 -1,1 -1,0 0,1 -1,1 -1,1 -73,45 53,-33 -1,0 -1,1 -1,1 -1,0 -1,1 -1,0 -1,1 -1,0 -1,1 -1,1 -1,0 -1,1 -1,1 -1,0 -1,1 -1,1 -1,0 -1,1 -1,1 -1,0 -1,1 -1,1 -3,0 -1,1 -1,1 -1,1 -1,0 0,1 -1,1 -5,0 -2,-2 -1,-1 -1,-1 -1,-1 -1,-1 -1,-1 -1,-1 -1,-1 -1,-1 0,-1 -1,0 0,1 -1,1 -1,1 -1,1 -2,0 -1,-1 -1,0 0,1 1,1 0,0 1,1 1,1 1,1 1,1 1,1 1,1 1,1 1,1 1,1 1,1 0,2 -1,1 -1,1 -3,0 -1,-1 -1,-1 -1,-1 -1,-1 -1,-1 -1,-1 -1,-1 -1,-1 -1,-1 -1,-1 0,-1 10,12 0,1 -1,1 -1,1 -1,0 -1,1 -1,1 52,-33 -53,33 54,-34 0,-2 -1,-1 -1,-1 -1,-1 -1,-1 0,0 4,6 -54,34 49,-41 0,1 -1,-2 0,0 1,1 -49,41 47,-42 -2,0 -1,-1 0,2 -1,1 -1,1 5,-3 -47,42 69,-45 0,-2 1,-1 1,-1 -1,-1 -1,-1 -1,-1 -1,-1 -1,0 -1,-1 0,-2 1,-1 1,-1 1,-1 1,0 1,-1 1,-1 1,0 -5,2 -2,2 -2,0 -1,-1 0,-1 -1,0 -1,-1 -1,0 -1,1 0,0 -1,1 -1,0 -1,1 -1,1 -1,1 -1,0 -1,1 -1,1 0,1 -1,1 -2,0 -1,1 -1,0 -1,1 -1,0 -1,1 0,1 1,1 0,0 26,1 -69,45Z"/>
<path onmouseover="hoverPath(evt)" onmouseout="recoverPath(evt)" fill="rgb(244,243,236)" d="M  159,253l -1,1 0,1 51,0 0,-1 1,-1 5,-5 1,-1 1,-1 1,0 1,-1 1,-1 1,0 -1,-1 0,-2 1,-1 0,-1 1,-1 1,-1 0,-1 1,-1 1,-1 0,-1 1,-1 0,-1 1,-1 1,-1 0,-1 1,-1 0,-1 1,-1 2,0 1,-1 -1,-1 0,-2 1,-1 2,0 1,-1 -1,-1 0,-2 1,-1 3,0 1,-1 1,-1 1,-1 0,-3 1,-1 1,0 2,-2 1,-1 0,-1 1,-1 3,0 1,1 1,-1 2,0 0,-45 -3,0 -1,1 -2,0 0,1 -1,1 -2,0 -1,1 -1,0 0,1 -1,1 -2,0 0,1 -1,1 -2,0 0,1 -1,1 -2,0 0,1 -1,1 -1,1 -1,0 -1,1 -1,1 -1,0 -1,1 -1,1 -1,0 -1,1 -1,1 -1,0 -1,1 -1,1 -1,0 -1,1 -1,1 -1,0 -2,2 -1,0 -2,2 -1,0 -2,2 -1,0 0,1 1,0 1,1 1,1 1,0 1,1 1,1 1,1 1,1 1,1 0,2 -1,1 -1,1 -1,0 -1,1 -1,1 0,1 1,1 0,0 1,1 1,1 1,1 1,1 1,0 1,1 1,1 1,1 0,2 -1,1 -1,1 -1,1 -1,0 -1,1 -1,1 -1,0 -1,1 -1,1 -1,0 -1,1 -1,0 -1,1 -1,1 -1,1 -1,0 -1,1 -1,0 -1,1 -1,0 -1,1 -1,1 -1,1 -1,0 -1,1 -2,0 -1,1 0,1 -1,1 -1,0 -2,2 -1,0 -1,1 -1,0 -1,1 -2,0 0,1 -1,1 -1,0 -1,1 -1,0 -1,1 -1,1 -1,0 -1,1 -2,0 0,1 -1,1 -1,1 -2,0 0,1 -1,1 -2,0 -1,1 0,1 -1,1 -1,1 -1,1 -1,0 -1,1Z"/>
<path onmouseover="hoverPath(evt)" onmouseout="recoverPath(evt)" fill="rgb(240,240,233)" d="M  199,69l 0,0 1,-1 1,-1 1,0 1,-1 0,-1 1,-1 2,0 1,-1 1,0 1,-1 1,-1 1,0 1,-1 1,-1 1,0 1,-1 1,-1 1,0 1,-1 1,0 1,-1 1,0 2,-2 1,0 1,-1 1,0 1,-1 1,0 -1,-1 0,-1 -1,-1 -1,-1 -1,-1 -1,-1 -1,-1 -1,-1 -1,-1 -1,-1 -1,-1 -2,-2 -1,-1 -1,0 -1,-1 0,-1 -1,-1 -1,-1 -1,-1 -1,-1 -1,-1 -1,-1 -2,0 -1,-1 0,-3 -1,-1 -1,-1 -1,-1 0,1 -1,1 -1,0 -1,1 -2,0 0,1 -1,1 -2,0 0,1 -1,1 -2,0 0,1 -1,1 -1,1 -1,0 -1,1 -1,1 -1,0 -1,1 -1,0 -1,1 -1,1 -1,0 -1,1 -1,1 -1,0 -2,2 -1,1 -1,0 -1,1 -1,0 -1,1 -1,1 -1,0 -2,2 -1,0 -1,1 -1,1 0,1 -1,1 3,3 1,0 1,1 0,2 1,1 1,1 1,0 1,1 0,2 1,1 1,1 1,1 1,1 1,1 1,1 1,1 1,0 1,1 0,1 1,1 1,1 0,1 1,1 1,1 1,1 2,0 1,-1 1,0 1,-1 1,0 1,-1 1,-1 1,0 1,-1 2,0 0,-2 1,-1Z"/>
<path onmouseover="hoverPath(evt)" onmouseout="recoverPath(evt)" fill="rgb(253,253,253)" d="M  14,71l -1,0 -1,1 -1,1 -1,0 -1,1 -1,0 0,1 -1,1 -2,0 -1,1 -1,0 -1,1 -2,0 0,2 1,0 1,-1 1,0 1,-1 1,0 1,-1 -1,0 -2,1 5,-2 1,-1 1,0 0,-1 2,-1 1,0 1,-1 0,-1 4,-2 0,1 1,0 1,-1 1,0 1,-1 1,-1 1,0 1,-1 1,0 1,-1 1,0 0,-1 1,-1 2,0 1,-1 1,0 1,-1 1,0 1,-1 1,0 1,-1 1,0 1,-1 1,0 1,-1 2,0 1,-1 3,0 1,-1 3,0 1,-1 3,0 1,-1 4,0 1,-1 2,0 1,-1 1,0 0,-1 -2,1 -3,0 -1,1 -4,0 -1,1 -3,0 -1,1 -3,0 -1,1 -3,0 -1,1 -2,0 -1,1 -1,0 -1,1 -1,0 -1,1 -1,0 -1,1 -1,0 -1,1 -1,1 -1,0 3,-1 2,-1 2,-1 2,-1 2,-1 3,-1 4,-1 4,-1 4,-1 5,-1 -33,11 -1,1 -1,1 -2,1 -1,0 -1,1 -1,0 -1,1 -1,0 -1,1 -4,2Z"/>
<path onmouseover="hoverPath(evt)" onmouseout="recoverPath(evt)" fill="rgb(172,199,237)" d="M  123,199l 0,0 -1,1 -1,0 -1,1 -1,1 0,3 -1,1 -4,0 -1,1 -1,0 -1,1 -1,1 -1,1 -1,1 -1,0 0,1 -1,1 -1,1 -3,0 -1,1 0,2 1,1 0,0 1,1 1,1 1,1 1,1 1,1 1,1 0,1 2,0 1,1 1,1 0,1 1,1 1,1 1,1 1,1 1,1 1,1 1,1 1,1 3,0 1,1 1,0 1,1 1,-1 0,0 1,-1 1,0 1,-1 -2,0 -1,-1 -3,0 -1,-1 -1,-1 -1,-1 -1,-1 -1,-1 -1,-1 -1,-1 0,-1 -1,-1 0,-2 1,-1 1,-1 1,-1 0,-2 1,-1 1,-1 1,0 1,-1 1,-1 0,-1 1,-1 2,0 1,1 2,0 1,1 0,1 1,1 1,1 1,1 1,1 1,1 1,1 1,1 1,1 1,1 1,-1 0,0 1,-1 1,0 1,-1 1,-1 1,-1 -1,-1 0,0 -1,-1 -1,-1 -1,-1 -1,-1 -1,-1 -1,-1 -1,-1 -1,-1 0,-2 1,-1 2,0 1,1 1,1 1,1 1,1 1,1 1,1 1,1 1,1 1,1 1,1 1,-1 1,-1 1,0 1,-1 1,-1 1,0 1,-1 -1,-1 0,0 -1,-1 -1,-1 -1,-1 -1,-1 -1,-1 -1,-1 -1,-1 -1,-1 -1,-1 0,-3 1,-1 2,0 1,1 0,1 1,1 1,1 1,1 1,1 1,1 1,1 1,1 1,1 1,1 1,0 1,-1 0,0 -1,-1 0,0 -1,-1 -1,-1 -1,-1 -1,-1 -1,-1 -1,-1 -1,-1 -1,-1 -1,-1 -1,-1 0,-3 1,-1 3,0 1,1 1,-1 1,-1 0,-1 1,-1 3,0 1,1 0,1 1,1 1,1 1,1 1,1 1,1 1,1 1,1 1,1 1,1 3,0 0,-1 1,-1 1,0 1,-1 1,-1 0,-1 -1,-1 0,0 -1,-1 -1,-1 0,-1 -1,0 -1,-1 -1,0 -1,-1 -1,-1 -1,-1 -6,0 -1,-1 0,-1 -1,-1 -1,-1 -1,-1 -1,-1 -1,-1 -1,-1 -1,-1 -1,-1 -1,-1 -1,1 -1,0 -1,1 -1,1 -1,0 -1,1 -1,1 -1,0 -1,1 -1,1 0,2 -1,1 -3,0 -1,1 -1,1 0,1 -1,1 -2,0 -1,1 -1,0 -1,1 -1,1 -1,1 -1,0 -1,1 0,1 -1,1 -3,0 -1,1Z"/>
<path onmouseover="hoverPath(evt)" onmouseout="recoverPath(evt)" fill="rgb(244,242,235)" d="M  197,103l -1,1 1,1 1,1 1,1 1,1 1,0 1,1 1,0 1,1 1,0 1,1 1,0 1,1 1,0 1,1 1,1 1,0 1,1 1,0 1,1 1,0 1,1 1,0 1,1 1,0 1,1 1,1 1,0 1,1 1,0 1,1 1,0 1,1 1,1 1,0 1,1 1,0 1,1 1,1 1,0 1,1 1,1 1,0 1,1 1,1 1,0 1,1 1,1 1,0 1,1 0,1 2,0 1,1 1,0 1,1 0,3 1,1 1,0 1,1 1,0 1,1 0,-51 -2,0 -1,1 -1,0 0,3 -1,1 -3,0 -1,-1 -1,-1 -1,0 -1,-1 -2,0 -1,-1 -3,0 -1,1 -1,0 -1,1 -1,1 -1,0 -1,1 -1,1 -2,0 -1,-1 -1,1 -1,1 -1,0 -1,1 0,2 -1,1 -2,2 -5,0 -1,-1 -1,-1 -1,0 -1,-1 -1,0 -1,-1 -1,0 -1,-1 -1,-1 -1,-1 -1,0 0,1 -1,1 -2,0 -1,1 -1,1 -1,0 -1,1Z"/>
<path onmouseover="hoverPath(evt)" onmouseout="recoverPath(evt)" fill="rgb(253,253,253)" d="M  200,119l 1,0 1,1 0,-1 1,1 -1,1 0,1 1,1 0,0 1,-1 3,0 1,1 1,0 1,1 1,0 1,1 1,0 1,1 1,0 1,1 1,0 1,1 1,0 1,1 1,0 1,1 1,0 1,1 2,0 1,1 1,0 1,1 1,0 1,1 1,0 1,1 1,0 1,1 1,0 1,1 1,0 1,1 1,0 1,1 1,0 1,1 1,0 1,1 1,0 1,1 1,0 1,1 1,0 1,1 1,1 1,0 1,1 1,0 0,-1 -1,0 -1,-1 -1,0 -1,-1 -2,-1 -1,-1 -1,0 -2,-1 -2,-1 -2,-1 -2,-1 -2,-1 -2,-1 -2,-1 -2,-1 -2,-1 -2,-1 -2,-1 -1,0 -1,-1 -1,0 -1,-1 -1,0 -1,-1 -1,0 -1,-1 -1,0 -1,-1 -1,0 -1,-1 -1,0 -1,-1 -1,0 -2,-1 -2,-1 -1,-1 -1,0 -1,2 -3,-4 0,1 -5,-1 0,-2 -1,0 -1,-1 -2,0 -1,-1 -1,0 -1,-1 -1,0 -1,-1 -1,0 -1,-1 -1,0 -1,1 0,2 1,0 1,-1 2,0 1,1 1,0 1,1 1,0 5,3 5,1 -7,-1 -1,0 0,1 -1,1 -1,1 -1,1 -1,0 0,1Z"/>
<path onmouseover="hoverPath(evt)" onmouseout="recoverPath(evt)" fill="rgb(234,236,234)" d="M  243,214l -1,1 -1,1 -1,1 -3,0 1,1 0,2 -1,1 -1,1 0,1 -1,1 0,1 -1,1 -1,1 0,1 -1,1 0,1 -1,1 -2,0 -1,1 1,1 0,2 -1,1 -2,0 -1,1 0,1 -1,1 -1,1 0,1 -1,1 1,1 0,2 -1,1 -1,0 -1,1 -1,1 -1,0 -3,3 -1,1 -3,3 44,0 0,-50 -1,0 -1,1 -2,0 -1,-1 -1,0 0,1 -1,1 -1,1 -1,1 -1,1 -1,0 0,3 -1,1Z"/>
</svg>