<svg width="256" height="256" xmlns="http://www.w3.org/2000/svg"><script> 
var tempColor;
function hoverPath(evt){
obj = evt.target;
tempColor = obj.getAttribute("fill");
obj.setAttribute("fill","red");
//alert(tempColor);
//obj.setAttribute("stroke","red");}
function recoverPath(evt){
obj = evt.target;
obj.setAttribute("fill", tempColor);
//obj.setAttribute("stroke", tempColor);
}</script><path onmouseover="hoverPath(evt)" onmouseout="recoverPath(evt)" fill="rgb(246,236,145)" d="M  0,128l 0,5 5,0 1,-1 3,0 1,-1 5,0 0,-1 1,-1 1,0 1,-1 2,0 1,-1 4,0 1,-1 3,0 1,-1 4,0 1,-1 3,0 1,-1 3,0 1,-1 3,0 1,-1 6,0 0,-1 1,-1 2,0 0,-1 1,-1 3,0 1,1 1,0 1,-1 3,0 1,-1 3,0 1,-1 3,0 1,-1 3,0 1,-1 3,0 1,-1 3,0 1,-1 2,0 1,-1 3,0 1,-1 3,0 1,-1 3,0 0,-2 1,-1 6,0 1,1 0,2 1,1 0,-3 1,-1 2,0 1,-1 2,0 1,-1 3,0 1,-1 2,0 1,-1 3,0 1,-1 4,0 0,-1 1,-1 1,0 1,-1 3,0 1,1 0,3 1,-4 2,0 1,-1 3,0 1,-1 3,0 1,-1 3,0 1,-1 2,0 1,-1 3,0 1,-1 3,0 1,-1 3,0 1,-1 2,0 1,-1 3,0 1,-1 3,0 1,-1 5,0 1,1 0,1 1,1 0,-3 1,-1 1,0 1,-1 1,-1 3,0 1,-1 3,0 1,-1 3,0 1,-1 2,0 1,-1 3,0 1,-1 3,0 1,-1 3,0 1,-1 3,0 1,-1 3,0 0,-1 1,-1 6,0 0,-1 1,-1 1,0 1,-1 2,0 1,1 2,0 1,-1 0,-1 1,-1 3,0 1,-1 4,0 1,1 3,0 0,-7 -2,0 -1,1 -3,0 -1,1 -3,0 -1,1 -3,0 -1,1 -2,0 -1,1 -3,0 -1,1 -2,0 -1,1 -4,0 -1,1 -2,0 -1,1 -3,0 -1,1 -2,0 -1,1 -3,0 -1,1 -3,0 -1,1 -3,0 -1,1 -3,0 -1,1 -2,0 -1,1 -3,0 -1,1 -3,0 -1,1 -6,0 -1,-1 0,2 -1,1 -2,0 -1,1 -3,0 -1,1 -3,0 -1,1 -2,0 -1,1 -3,0 -1,1 -3,0 -1,1 -3,0 -1,1 -2,0 0,1 -1,1 -4,0 -1,-1 -1,-1 0,-2 -1,0 -1,-1 -1,-1 -1,-1 -2,0 -1,-1 -2,0 -1,1 0,2 1,1 0,3 1,1 0,3 -1,1 -5,0 -1,-1 0,0 -1,1 -1,1 -3,0 -1,1 -3,0 -1,1 -3,0 -1,1 -6,0 -1,-1 0,2 -1,1 -2,0 -1,1 -2,0 -1,1 -3,0 -1,1 -3,0 -1,1 -3,0 -1,1 -3,0 -1,1 -3,0 -1,1 -3,0 -1,1 -2,0 -1,1 -3,0 -1,1 -3,0 -1,1 -4,0 -1,-1 -1,0 -1,-1 -1,-1 0,-1 -2,0 -1,1 -2,0 -1,1 -2,0 -1,-1 -1,-1 -1,-1 0,-1 1,3 0,1 1,1 0,2 -1,1 0,1 -1,1 -1,1 -3,0 -1,1 -3,0 -1,1 -3,0 -1,1 -4,0 -1,1 -3,0 -1,1 -5,0 -1,-1 0,-1 -1,-1 0,-3 -1,-1 0,-3 -1,-1 0,-3 -1,-1 0,-3 -1,-1 0,-2 -1,-1 0,-3 -1,-1 0,-2 -1,-1 0,-3 -1,-1 0,-2 -1,-1 0,-3 -1,-1 0,-2 -1,-1 0,-2 -1,-1 0,-3 -1,-1 0,-2 -1,-1 0,-3 -1,0 -1,-1 0,-1 -1,-1 0,-3 1,-1 1,0 -2,-1 0,-2 -1,-1 0,-2 -1,0 0,31 3,0 1,1 0,3 -1,1 0,2 1,1 0,4 -1,1 0,2 1,1 0,2 1,1 0,2 1,1 0,2 1,1 0,2 1,1 0,2 2,0 1,1 0,2 1,1 0,2 1,1 1,1 0,2 -1,1 -1,1 -1,0 -1,1 -3,0 -1,1 -4,0 -1,-1 -1,0Z"/>
<path onmouseover="hoverPath(evt)" onmouseout="recoverPath(evt)" fill="rgb(172,198,237)" d="M  24,239l -1,0 0,2 -1,1 -1,1 -1,1 -1,1 -1,1 -1,1 -1,1 -1,1 -1,1 -1,1 -1,1 -1,1 -1,1 0,1 29,0 0,-3 2,-2 1,-1 9,-9 1,-1 1,-1 1,-1 1,-1 1,0 1,-1 1,-1 1,0 1,-1 1,-1 1,-1 1,0 1,-1 1,-1 1,0 1,-1 1,0 1,-1 1,0 1,-1 1,0 1,-1 1,0 1,-1 1,0 1,-1 1,0 1,-1 1,0 1,-1 1,0 1,-1 2,0 1,-1 5,0 1,-1 6,0 1,-1 5,0 1,-1 5,0 1,-1 6,0 1,-1 8,0 1,-1 9,0 1,-1 8,0 1,-1 7,0 1,-1 4,0 -1,-1 0,-2 -1,-1 0,-3 -1,-1 0,-3 -1,-1 0,-3 -5,0 0,1 -1,1 -12,0 -1,1 -9,0 -1,1 -3,0 -1,1 -4,0 -1,1 -4,0 -1,1 -3,0 -1,1 -4,0 -1,1 -4,0 -1,1 -4,0 -1,1 -4,0 -1,1 -7,0 -1,1 -4,0 -1,1 -4,0 3,1 0,2 -1,1 -2,0 0,1 -1,1 -1,0 -1,1 -1,0 -1,1 -1,0 -1,1 -1,0 -1,1 -1,1 -1,0 -1,1 -1,0 -1,1 -1,0 -1,1 -1,0 -2,2 -1,0 -1,1 -1,0 -1,1 -1,0 -1,1 -1,0 -1,1 -1,1 -1,0 -1,1 -1,0 -1,1 -1,0 -1,1 -1,1 -1,0 -1,1 -2,0 -2,2 -1,1 -1,0 -1,1Z"/>
<path onmouseover="hoverPath(evt)" onmouseout="recoverPath(evt)" fill="rgb(244,243,236)" d="M  54,240l -1,1 -1,1 -1,1 -1,1 -1,1 -2,2 -1,1 -1,1 -1,1 -1,1 -1,1 -1,1 0,2 93,0 0,-5 -1,-1 0,-11 1,-1 1,-1 13,0 1,1 0,18 20,0 0,-2 -1,-1 0,-6 -1,-1 0,-2 -1,-1 0,-3 -1,-1 0,-2 -1,-1 0,-3 -1,-1 0,-3 -1,-1 0,-3 -1,-1 0,-3 -1,-1 0,-3 -1,-1 0,-3 -4,0 -1,1 -7,0 -1,1 -8,0 -1,1 -9,0 -1,1 -8,0 -1,1 -6,0 -1,1 -5,0 -1,1 -5,0 -1,1 -6,0 -1,1 -5,0 -1,1 -2,0 -1,1 -1,0 -1,1 -1,0 -1,1 -1,0 -1,1 -1,0 -1,1 -1,0 -1,1 -1,0 -1,1 -1,0 -1,1 -1,0 -1,1 -1,0 -2,2 -1,0 -2,2 -1,1 -1,0 -1,1 -1,1 -1,0 -1,1 -1,1Z"/>
<path onmouseover="hoverPath(evt)" onmouseout="recoverPath(evt)" fill="rgb(236,238,234)" d="M  71,184l 0,4 1,1 0,3 1,1 0,2 1,1 1,-1 6,0 1,-1 4,0 1,-1 1,0 -1,-1 0,-4 -1,-1 0,-3 -1,-1 0,-1 -6,0 -1,1 -5,0 -1,1Z"/>
<path onmouseover="hoverPath(evt)" onmouseout="recoverPath(evt)" fill="rgb(252,252,251)" d="M  115,161l 3,0 1,-1 3,0 1,-1 3,0 1,-1 2,0 1,-1 3,0 1,-1 3,0 1,-1 3,0 1,-1 3,0 1,1 1,1 0,2 1,1 0,3 1,1 0,3 1,1 0,3 1,1 0,3 1,1 0,4 1,1 0,3 1,1 0,3 1,1 0,3 1,1 0,5 1,1 0,3 1,1 0,3 1,1 0,2 1,1 0,1 1,1 0,3 1,1 0,3 1,1 0,3 1,1 0,3 1,1 0,3 1,1 0,3 1,1 0,2 1,1 0,3 1,1 0,2 1,1 0,6 1,1 0,3 5,0 0,-2 -1,-1 0,-7 -1,-1 0,-2 -1,-1 0,-3 -1,-1 0,-3 -1,-1 0,-2 -1,-1 0,-3 -1,-1 0,-3 -1,-1 0,-3 -1,-1 0,-3 -1,-1 0,-5 -1,-1 0,-3 -1,-1 0,-3 -1,-1 0,-3 -1,-1 0,-2 -1,-1 0,-1 -1,-1 0,-3 -1,-1 0,-3 -1,-1 0,-2 -1,-1 0,-3 -1,-1 0,-2 -1,-1 0,-3 -1,-1 0,-3 -1,-1 0,-1 -1,-1 0,-3 -1,-1 0,-3 1,-1 0,-1 1,-1 2,0 0,-2 1,-1 3,0 1,-1 3,0 1,-1 2,0 1,-1 6,0 1,1 0,2 1,1 0,1 1,1 0,2 1,1 0,-1 -2,-5 -1,-3 0,-1 1,-1 2,0 1,-1 3,0 1,-1 3,0 1,-1 3,0 1,-1 2,0 1,-1 3,0 1,-1 3,0 1,-1 3,0 1,-1 3,0 1,-1 2,0 1,-1 3,0 1,-1 3,0 1,-1 3,0 1,-1 3,0 1,-1 3,0 1,-1 2,0 1,-1 3,0 1,-1 3,0 1,-1 2,0 1,-1 3,0 1,-1 5,0 0,-2 -1,0 -1,1 -3,0 -1,1 -3,0 -1,1 -2,0 -1,1 -3,0 -1,1 -3,0 -1,1 -3,0 -1,1 -2,0 -1,-1 -1,-1 0,-1 -1,-1 0,4 -1,1 -1,0 -1,1 -2,0 -1,1 -5,0 -1,-1 0,-1 -1,-1 0,-1 -1,-1 0,-1 -1,-1 0,-1 -1,-1 -1,-1 1,2 2,4 1,2 0,3 -1,1 -3,0 -1,1 -2,0 -1,1 -3,0 -1,1 -3,0 -1,1 -3,0 -1,1 -3,0 -1,1 -3,0 -1,1 -2,0 -1,1 -4,0 -1,1 -3,0 -1,1 -2,0 -1,1 -2,0 -1,1 -3,0 -1,1 -2,0 -1,1 -3,0 -1,1 -5,0 -1,-1 -1,-1 0,-4 -1,-1 0,-2 -1,-1 0,-4 -1,-1 0,-3 -1,-1 0,-7 1,-1 2,0 1,-1 3,0 1,-1 -1,0 -4,1 -4,0 -1,-1 0,-1 -1,-1 0,-4 -1,-1 0,-3 -1,-1 0,-3 -1,-1 0,-3 -1,-1 0,-3 -1,0 -1,1 -1,0 0,3 1,1 0,2 1,1 0,4 1,1 0,3 1,1 0,3 1,1 0,5 -1,1 -1,1 -3,0 -1,1 -4,0 -1,1 -3,0 -1,1 -3,0 -1,1 -4,0 -1,1 -1,0 -1,1 0,3 1,1 0,3 1,1 0,2 1,1 0,3 1,1 0,3 -1,1 -1,1 -2,0 -1,-1 0,3 -1,1 -1,1 -2,0 -1,1 -3,0 -1,1 -3,0 -1,1 -7,0 -1,-1 0,2 -1,1 -2,0 -1,1 -3,0 -1,1 -3,0 0,1 4,-1 1,0 1,1 0,2 -1,1 -2,0 -1,1 -3,0 -1,1 -5,0 -1,1 -1,0 -1,1 -3,0 -1,1 -3,0 -1,1 -3,0 -1,1 -3,0 -1,1 -2,0 -1,1 0,1 1,0 1,-1 3,0 1,-1 2,0 1,-1 3,0 1,-1 3,0 1,-1 3,0 1,-1 3,0 1,-1 3,0 1,-1 3,0 1,-1 3,0 1,-1 2,0 1,-1 3,0 1,-1 3,0 1,-1 4,0 1,1 0,1 1,1 0,4 1,1 0,2 1,0 0,-2 -1,-1 0,-7 2,-2 2,0 1,-1 2,0 1,-1 1,0 3,-12 0,-3 -1,-1 0,-2 -1,-1 0,-3 -1,-1 0,-4 1,-1 1,0 1,-1 2,0 1,-1 4,0 1,-1 2,0 1,-1 4,0 1,-1 6,0 1,1 0,2 1,1 0,4 1,1 0,3 1,1 0,4 1,1 0,5 -1,1 -1,1 -2,0 -1,1 -2,0 -1,1 -3,0 -1,1 -3,0 -1,1 -3,0 -1,1 -3,0 -1,-1 0,-1 -1,-1 0,-2 -1,-1 0,-2 -1,-1 -3,12Z"/>
<path onmouseover="hoverPath(evt)" onmouseout="recoverPath(evt)" fill="rgb(240,239,228)" d="M  118,135l -1,0 0,2 1,1 0,3 1,1 0,2 1,1 0,3 1,1 0,2 1,1 0,2 1,1 0,1 1,0 1,-1 3,0 1,-1 3,0 1,-1 3,0 1,-1 2,0 1,-1 2,0 1,-1 0,-3 -1,-1 0,-4 -1,-1 0,-3 -1,-1 0,-4 -1,-1 0,-2 -4,0 -1,1 -4,0 -1,1 -2,0 -1,1 -4,0 -1,1 -2,0 -1,1Z"/>
<path onmouseover="hoverPath(evt)" onmouseout="recoverPath(evt)" fill="rgb(236,238,234)" d="M  232,176l 0,1 1,1 1,1 1,1 1,1 0,1 1,1 1,0 1,-1 1,0 1,-1 1,0 1,-1 1,0 1,-1 1,0 1,-1 1,-1 -1,-1 0,0 -1,-1 -1,-1 0,-1 -1,-1 -1,-1 -1,-1 -1,1 -1,0 -1,1 -1,0 -1,1 -1,1 -1,0 -1,1 -1,0 -1,1Z"/>
<path onmouseover="hoverPath(evt)" onmouseout="recoverPath(evt)" fill="rgb(240,237,223)" d="M  6,113l 0,-1 -1,-1 0,-2 -1,-1 0,-2 -1,-1 0,-2 -1,-1 0,-2 -1,-1 0,-4 1,-1 0,-2 -1,-1 0,-4 1,-1 0,-1 -2,0 0,39 2,0 1,1 2,0 1,-1 3,0 1,-1 1,0 1,-1 -1,-1 0,0 -1,-1 0,-2 -1,-1 0,-2 -2,0 -1,-1Z"/>
<path onmouseover="hoverPath(evt)" onmouseout="recoverPath(evt)" fill="rgb(242,241,232)" d="M  7,65l 0,2 1,1 0,2 1,1 0,3 1,1 0,2 1,1 0,2 1,1 0,3 1,1 0,2 1,1 0,3 1,1 0,2 1,1 0,3 1,1 0,2 1,1 0,3 1,1 0,3 1,1 0,3 1,1 0,3 1,1 0,1 3,0 1,-1 3,0 1,-1 4,0 1,-1 3,0 1,-1 3,0 1,-1 3,0 1,-1 0,-1 1,-1 -1,-1 0,-2 -1,-1 0,-3 1,-1 2,0 1,1 0,1 1,1 1,1 1,-1 2,0 1,-1 3,0 1,-1 0,-3 1,-1 -2,0 -1,-1 0,-1 -1,-1 0,-3 -4,0 -1,1 -3,0 -1,1 -1,0 0,3 -1,1 -2,0 -1,-1 0,-1 -1,-1 0,-1 -1,-1 0,-3 -1,-1 0,-3 1,-1 0,-2 -1,-1 -2,0 -1,-1 0,-1 -1,-1 0,-2 -1,-1 0,-4 1,-1 2,0 1,1 0,1 2,0 1,-1 2,0 1,-1 3,0 0,-5 1,-1 2,0 1,1 0,1 1,1 0,1 3,0 1,-1 4,0 1,-1 2,0 0,-5 1,-1 2,0 1,1 0,2 1,1 3,0 1,-1 5,0 1,-1 0,-3 -1,-1 0,-3 -1,-1 0,-4 -1,-1 0,-2 -3,0 -1,1 -4,0 -1,1 -4,0 -1,-1 -2,0 -1,1 -3,0 0,2 -1,1 -3,0 -1,1 -2,0 0,6 -1,1 -2,0 -1,-1 0,-1 -1,-1 0,-2 -3,0 -1,1 -3,0 -1,1 -3,0 1,1 0,2 1,1 0,3 -1,1 -2,0 -1,-1 0,-1 -1,-1 0,-1 -1,-1 0,-2 -1,-1 0,-1 -1,-1 0,-1 -1,0 -1,1 -3,0 -1,1 -2,0 -1,1 -3,0 -1,1 -3,0 -1,1 -2,0 -1,1 -2,0 2,1Z"/>
<path onmouseover="hoverPath(evt)" onmouseout="recoverPath(evt)" fill="rgb(242,241,230)" d="M  25,129l -3,0 1,1 0,2 1,1 0,3 1,1 0,2 1,1 0,3 1,1 0,2 1,1 0,3 2,0 1,1 0,3 -1,1 0,1 1,1 0,2 1,1 0,3 1,1 0,2 1,1 0,2 1,1 0,2 1,1 0,3 1,1 1,1 1,0 1,-1 2,0 1,-1 3,0 1,-1 3,0 1,-1 2,0 1,-1 3,0 1,-1 3,0 1,-1 3,0 1,-1 3,0 1,-1 1,0 1,-1 5,0 1,-1 3,0 1,-1 -4,0 0,-1 -6,0 -1,-1 0,-2 -1,-1 0,-1 1,5 -1,1 0,0 -1,1 -1,0 -1,1 -3,0 -1,1 -3,0 -1,1 -3,0 -1,1 -2,0 -1,-1 -1,0 -1,-1 -1,-1 0,-3 -1,-1 0,-1 -1,-1 0,-3 -2,0 -1,-1 0,-3 1,-1 0,-2 -1,-1 0,-1 -1,-1 0,-3 -1,-1 0,-2 -1,-1 0,-3 -1,-1 0,-4 1,-1 3,0 1,-1 2,0 1,-1 4,0 1,-1 5,0 1,1 0,-2 -1,-1 0,-1 -1,-1 0,-2 -1,-1 0,-2 -1,0 0,1 -1,1 -6,0 -1,1 -3,0 -1,1 -3,0 -1,1 -3,0 -1,1 -4,0 -1,1 -3,0 -1,1Z"/>
<path onmouseover="hoverPath(evt)" onmouseout="recoverPath(evt)" fill="rgb(241,239,230)" d="M  43,138l 0,3 1,1 0,2 1,1 0,3 1,1 0,1 1,1 0,4 -1,1 0,1 2,0 1,1 0,3 1,1 0,1 1,1 0,3 1,1 1,0 1,1 1,-1 3,0 1,-1 3,0 1,-1 3,0 1,-1 1,0 1,-1 0,-1 -1,-1 0,-3 1,-1 2,0 1,1 0,1 1,1 0,2 5,0 1,-1 3,0 1,-1 3,0 1,-1 2,0 0,-1 -1,-1 0,-1 -1,-1 0,-3 -1,-1 0,-1 -4,0 -1,1 -4,0 -1,-1 0,-2 1,-1 2,0 1,-1 3,0 1,-1 0,-1 -1,-1 0,-1 -1,-1 0,-3 -1,-1 -2,0 -1,1 -1,0 -1,1 -4,0 -1,-1 -1,0 -1,1 -8,0 -1,-1 0,-1 -1,-1 0,-1 -1,-1 0,-2 -1,-1 -3,0 -1,1 -4,0 -1,1 -2,0 -1,1 -3,0 0,2 1,1Z"/>
<path onmouseover="hoverPath(evt)" onmouseout="recoverPath(evt)" fill="rgb(243,241,232)" d="M  60,120l 0,0 -1,-1 -1,0 0,3 1,1 0,2 1,1 0,1 1,1 0,4 -1,1 0,1 1,1 0,1 1,1 0,1 6,0 1,-1 3,0 1,1 2,0 1,-1 1,0 1,-1 4,0 1,1 1,1 0,3 1,1 0,1 1,1 0,3 -1,1 -1,1 3,0 1,1 0,1 1,1 0,3 1,1 0,1 2,0 1,1 5,0 1,-1 3,0 1,-1 3,0 1,-1 2,0 1,-1 0,-3 1,-1 2,0 1,1 1,-1 0,-1 -1,-1 0,-3 -4,0 -1,-1 0,-3 -1,-1 0,-1 -1,-1 0,-7 1,-1 0,-2 1,-1 1,-1 1,-1 0,-2 1,-1 0,-1 -1,-1 0,-3 -1,-1 0,-1 -1,-1 0,-2 -1,-1 0,-1 -1,-1 0,-2 -4,0 0,2 -1,1 -3,0 -1,1 -3,0 -1,1 -3,0 -1,1 -2,0 -1,1 -3,0 -1,1 -3,0 -1,1 -3,0 -1,1 -3,0 -1,1 -3,0 -1,1 -3,0 -1,1Z"/>
<path onmouseover="hoverPath(evt)" onmouseout="recoverPath(evt)" fill="rgb(253,253,252)" d="M  98,33l -1,0 -1,1 -4,0 -1,1 -2,0 -1,1 -2,0 -1,1 -3,0 -1,1 -2,0 -1,1 -3,0 -1,1 -2,0 -1,1 -3,0 -1,1 -2,0 -1,1 -3,0 -1,1 -2,0 -1,1 -2,0 -1,1 -3,0 -1,1 -3,0 -1,-1 -1,0 0,2 -1,1 -3,0 -1,1 -2,0 -1,1 -3,0 -1,1 -2,0 -1,1 -2,0 -1,1 -3,0 -1,1 -2,0 -1,1 -2,0 -1,1 -3,0 -1,1 -3,0 -1,1 -3,0 -1,1 -1,0 0,1 2,0 1,-1 2,0 1,-1 3,0 1,-1 3,0 1,-1 2,0 1,-1 3,0 1,-1 3,0 1,1 0,1 1,1 0,1 1,1 0,2 1,1 0,1 1,1 0,1 -1,-4 0,0 -1,-3 1,-1 3,0 1,-1 3,0 1,-1 5,0 1,1 0,2 1,1 0,-5 1,-1 -1,0 -1,1 -3,0 55,-22 -65,20 2,0 1,-1 2,0 1,-1 2,0 1,-1 2,0 1,-1 2,0 1,-1 3,0 1,-1 2,0 1,-1 2,0 1,-1 3,0 1,-1 2,0 1,-1 2,0 1,-1 3,0 1,-1 2,0 1,-1 3,0 1,-1 2,0 1,-1 3,0 1,-1 6,0 1,1 0,1 1,1 0,3 3,0 1,-1 -3,0 -1,-3 0,-3 1,-1 2,0 1,-1 1,0 1,-1 2,0 1,-1 2,0 1,-1 2,0 1,-1 2,0 1,-1 4,0 1,1 0,2 1,1 0,3 1,1 0,2 1,1 0,7 -1,1 -5,0 -1,-1 -1,-1 0,-1 -1,-1 0,-1 -1,-1 -1,-1 -1,-1 -2,0 2,1 4,6 0,1 -1,1 -1,0 -1,1 1,0 2,-1 1,0 1,1 0,3 -1,1 -1,0 -1,1 3,0 1,1 0,-1 1,-1 1,0 1,-1 3,0 1,1 1,1 0,1 1,1 0,4 1,1 0,3 1,1 0,3 1,1 0,3 1,1 0,3 1,1 0,3 1,1 0,4 1,1 0,3 1,1 0,1 3,0 0,-1 -1,-1 0,-3 -1,-1 0,-4 2,-2 4,0 1,1 2,0 1,1 1,1 1,1 1,0 -1,-1 0,-1 -1,-1 -1,0 -1,-1 0,-1 -1,-1 0,-3 -1,4 -6,0 -1,-1 -1,0 -1,-1 0,-3 -1,-1 0,-3 -1,-1 0,-3 -1,-1 0,-3 -1,-1 0,-4 -1,-1 0,-3 -1,-1 0,-4 -1,-1 0,-3 -1,-1 0,-3 -1,-1 0,-3 -1,-1 0,-2 -1,-1 0,-4 2,-2 2,0 1,-1 4,0 1,1 0,-1 2,-2 2,0 1,-1 3,0 1,-1 2,0 1,1 1,1 0,-2 1,-1 1,0 1,-1 2,0 1,-1 2,0 1,-1 3,0 1,-1 2,0 1,-1 3,0 1,-1 2,0 1,-1 2,0 1,-1 3,0 1,-1 2,0 1,-1 2,0 1,-1 3,0 1,-1 2,0 1,-1 3,0 1,-1 3,0 1,-1 2,0 1,-1 3,0 1,-1 3,0 1,-1 3,0 1,-1 6,0 1,1 0,1 1,1 0,2 1,1 0,1 1,1 0,2 1,1 0,1 1,1 0,1 -1,-4 -2,-5 -1,-3 -1,-2 0,-1 -15,0 0,2 -1,1 -3,0 -1,1 -3,0 -1,1 -2,0 -1,1 -3,0 -1,1 -2,0 -1,1 -3,0 -1,1 -2,0 -1,1 -3,0 -1,1 -2,0 -1,1 -2,0 -1,1 -3,0 -1,1 -2,0 -1,1 -2,0 -1,1 -3,0 -1,1 -2,0 -1,1 -3,0 -1,1 -3,0 -1,1 -2,0 -1,1 -2,0 -1,1 -3,0 -1,1 -3,0 -1,1 -2,0 -1,1 -3,0 -1,-1 -1,-1 0,-1 -1,-1 0,-2 -1,-1 0,-3 -1,-1 0,-2 -1,-1 0,-2 -1,-1 0,-3 -1,-1 0,-4 -4,0 0,1 1,1 0,3 1,1 0,2 1,1 0,2 1,1 0,3 1,1 0,2 1,1 0,2 1,1 0,4 -1,1 -1,1 -2,0 -1,1 -1,0 -1,1 -2,0 -1,1 -2,0 -1,1 -3,0 12,-3 0,0 -78,24 65,-20 -66,21 0,0 66,-21Z"/>
<path onmouseover="hoverPath(evt)" onmouseout="recoverPath(evt)" fill="rgb(242,241,231)" d="M  115,0l -1,0 0,3 1,1 0,3 1,1 0,2 1,1 0,2 1,1 0,3 1,1 0,2 1,1 0,1 1,1 1,0 1,-1 2,0 1,-1 3,0 1,-1 3,0 1,-1 2,0 1,-1 2,0 1,-1 3,0 1,-1 3,0 1,-1 2,0 1,-1 3,0 1,-1 2,0 1,-1 2,0 1,-1 3,0 1,-1 2,0 1,-1 2,0 1,-1 3,0 1,-1 2,0 1,-1 3,0 1,-1 2,0 1,-1 3,0 1,-1 2,0 1,-1 3,0 1,-1 3,0 0,-1Z"/>
<path onmouseover="hoverPath(evt)" onmouseout="recoverPath(evt)" fill="rgb(236,238,234)" d="M  202,17l -1,0 -1,1 1,1 0,2 1,1 0,1 1,1 0,1 1,1 0,1 1,1 0,2 1,1 0,1 2,0 1,-1 2,0 1,-1 1,0 1,-1 2,0 0,-2 -1,-1 0,-1 -1,-1 0,-1 -1,-1 0,-1 -1,-1 0,-1 -1,-1 0,-1 -1,-1 0,-1 -3,0 -1,1 -2,0 -1,1Z"/>
<path onmouseover="hoverPath(evt)" onmouseout="recoverPath(evt)" fill="rgb(243,242,234)" d="M  239,185l -3,0 -1,-1 -1,-1 0,-1 -1,-1 -1,-1 -1,-1 -1,-1 0,-3 1,-1 1,-1 1,0 1,-1 1,0 1,-1 1,-1 1,0 1,-1 1,0 1,-1 2,0 1,1 1,1 1,1 1,1 0,1 1,1 1,1 1,1 0,2 -1,1 -1,1 -1,1 -1,0 -1,1 -1,0 -1,1 -1,0 -1,1 -1,0 -1,1 -2,-21 -1,1 -1,0 -1,1 -1,0 -1,1 -1,1 -1,0 -1,1 -1,0 -2,2 -1,0 -1,1 -1,0 -1,1 -1,1 -3,0 -1,-1 -1,-1 -1,-1 -1,-1 -1,-1 0,-1 -1,-1 -1,-1 -1,-1 -1,-1 0,-2 2,-2 1,0 1,-1 1,0 1,-1 1,0 1,-1 1,-1 1,0 1,-1 1,0 1,-1 1,0 1,-1 1,0 1,-1 1,-1 3,0 1,1 1,1 0,1 1,1 1,1 1,1 1,1 0,1 2,2 0,2 -1,1 2,21 16,-10 0,-21 -1,0 -1,1 -1,0 -1,1 -1,0 -1,1 -1,1 -1,0 -1,1 -1,1 -4,0 -1,-1 -1,-1 -1,-1 -1,-1 -1,-1 -1,-1 0,-1 -1,-1 -1,-1 -1,-1 0,-2 1,-1 1,-1 1,0 1,-1 1,0 1,-1 1,-1 1,0 1,-1 1,0 1,-1 1,-1 3,0 1,1 1,1 0,1 1,1 1,1 1,1 1,1 1,1 0,1 1,0 0,-22 -4,0 -1,1 -3,0 -1,1 -2,0 -1,1 -3,0 -1,1 -3,0 -1,1 -2,0 -1,1 -3,0 -1,1 -3,0 -1,1 -3,0 -1,1 -3,0 -1,1 -3,0 -1,1 -2,0 -1,1 -3,0 -1,1 -3,0 -1,1 -3,0 -1,1 -3,0 -1,1 -2,0 -1,1 -3,0 -1,1 -3,0 -1,1 -3,0 -1,1 -2,0 0,1 1,1 0,2 1,1 0,1 1,1 0,3 1,1 0,1 1,1 0,1 1,1 0,3 1,1 0,1 1,1 0,3 1,1 0,4 -1,1 0,2 1,1 0,2 1,1 0,1 3,0 1,1 0,2 1,1 0,3 2,0 1,-1 43,0 1,1 4,0 1,1 2,0 1,-1 3,0 1,-1 5,0 0,-15 -16,10 -32,-21 0,1 1,1 1,1 1,1 0,1 1,1 1,1 1,1 0,1 1,1 1,1 0,2 -1,1 -1,1 -1,0 -1,1 -1,0 -2,2 -1,0 -1,1 -1,0 -1,1 -3,0 -1,-1 -1,-1 -1,-1 0,-1 -1,-1 -1,-1 -1,-1 -1,-1 0,-1 -1,-1 -1,-1 0,-2 -1,-1 0,-2 -1,-1 0,-4 1,-1 1,-1 1,0 1,-1 1,0 1,-1 1,0 1,-1 4,0 1,1 1,1 1,1 0,1 1,1 1,1 32,21Z"/>
<path onmouseover="hoverPath(evt)" onmouseout="recoverPath(evt)" fill="rgb(245,244,237)" d="M  243,1l 0,1 1,1 0,1 1,1 0,1 1,1 0,1 1,1 0,1 1,1 0,1 1,1 0,1 1,1 0,1 1,1 0,1 1,1 0,1 1,1 0,1 1,1 0,1 1,0 0,-24 -11,0 -1,1Z"/>
<path onmouseover="hoverPath(evt)" onmouseout="recoverPath(evt)" fill="rgb(251,251,248)" d="M  18,187l 1,-1 2,0 1,-1 3,0 1,-1 5,0 1,1 0,2 -1,1 2,0 1,1 0,2 1,1 0,3 1,1 0,4 -1,1 2,0 1,1 0,2 1,1 0,2 1,1 0,3 1,1 0,1 1,1 0,4 1,0 1,-1 0,0 1,-1 0,-2 1,-1 1,-1 1,0 1,-1 4,0 1,-1 5,0 1,-1 3,0 1,-1 4,0 1,-1 4,0 1,-1 4,0 1,-1 7,0 1,-1 4,0 1,-1 4,0 1,-1 4,0 1,-1 4,0 1,-1 3,0 1,-1 4,0 1,-1 4,0 1,-1 3,0 1,-1 9,0 1,-1 12,0 0,-2 -6,0 -1,1 -13,0 -1,1 -4,0 -1,1 -3,0 -1,1 -5,0 -1,1 -3,0 -1,1 -3,0 -1,1 -4,0 -1,1 -4,0 -1,1 -4,0 -1,1 -5,0 -1,1 -4,0 -1,1 -4,0 -1,1 -4,0 -1,1 -3,0 -1,1 -4,0 -1,1 -4,0 -1,1 -7,0 -1,-1 -1,-1 0,-2 -1,-1 0,-3 -1,-1 0,-2 -1,-1 0,-3 -1,-1 0,-2 -1,-1 0,-2 -1,-1 0,-2 -1,-1 0,-3 1,-1 2,0 1,-1 3,0 1,-1 3,0 1,-1 0,-1 -1,0 -1,1 -3,0 -1,1 -2,0 -1,1 -3,0 -1,-1 -1,-1 -1,-1 0,-3 -1,-1 0,-2 -1,-1 0,-2 -1,-1 0,-2 -1,-1 0,-3 -1,-1 0,-2 -1,-1 0,-3 1,-1 0,-1 -2,0 -1,-1 0,-3 -1,-1 0,-2 -1,-1 0,-3 -1,-1 0,-2 -1,-1 0,-3 -1,-1 0,-2 -1,-1 -1,0 -1,1 -1,0 0,1 1,1 0,2 1,1 0,3 1,1 0,2 1,1 0,3 1,1 0,3 1,1 0,4 -1,1 -2,0 -1,-1 0,2 1,1 0,2 1,1 0,3 1,1 0,2 1,1 0,2 1,1 0,2 1,1 0,4 -1,1 -1,1 -3,0 -1,1 -5,0 -1,1 -3,0 -1,1 -5,0 -1,1 -3,0 0,7 2,0 1,-1 3,0 1,-1 3,0 1,-1 3,0 1,-1 3,0 0,-32 1,-1 0,0 -1,-1 0,-2 -1,-1 -3,0 2,1 1,0 1,3Z"/>
<path onmouseover="hoverPath(evt)" onmouseout="recoverPath(evt)" fill="rgb(243,241,233)" d="M  141,41l -1,1 1,1 0,4 -1,1 -2,0 -1,-1 0,1 1,1 0,5 1,1 0,5 1,1 0,3 1,1 0,4 1,1 0,3 1,1 0,3 1,1 0,1 1,0 1,1 1,1 0,1 1,1 0,2 -1,1 0,1 1,1 2,0 0,-1 1,-1 2,0 1,-1 3,0 1,-1 3,0 1,-1 3,0 1,-1 2,0 1,-1 3,0 1,-1 3,0 1,-1 2,0 0,-2 -1,-1 0,-2 1,-1 0,-4 1,-1 1,0 1,-1 1,0 1,-1 2,0 1,-1 3,0 1,-1 2,0 1,-1 2,0 0,-2 1,-1 2,0 0,-2 -1,-1 0,-1 -1,-1 0,-1 -1,-1 0,-1 -1,-1 0,-1 -1,-1 0,-1 -1,-1 0,-1 -1,-1 0,-1 -1,-1 0,-1 -1,-1 0,-1 -1,-1 0,-1 -1,-1 0,-1 -1,-1 0,-1 -1,-1 0,-1 -1,-1 0,-1 -1,-1 -4,0 -1,1 -2,0 -1,1 -2,0 -1,1 -3,0 -1,1 -2,0 -1,1 -3,0 -1,1 -2,0 -1,1 -3,0 -1,1 -3,0 -1,1 -5,0 -1,-1 -2,0 -1,1 -1,0Z"/>
<path onmouseover="hoverPath(evt)" onmouseout="recoverPath(evt)" fill="rgb(237,239,235)" d="M  155,130l -1,0 0,1 1,1 0,2 1,1 0,1 3,0 1,-1 3,0 1,-1 3,0 1,-1 3,0 1,-1 2,0 1,-1 3,0 1,-1 3,0 0,-1 -1,-1 0,-2 -1,-1 -3,0 -1,-1 0,-2 -8,0 -1,-1 0,-2 -1,-1 0,-2 -1,-1 0,3 -1,1 1,0 1,1 0,-1 4,4 0,2 -1,1 -2,0 -1,1 -2,0 -1,1 -3,0 -1,1 -2,0 -1,1 -1,0 21,-9 0,0 -21,9Z"/>
<path onmouseover="hoverPath(evt)" onmouseout="recoverPath(evt)" fill="rgb(236,238,234)" d="M  213,162l -1,0 -1,1 1,1 0,0 1,1 1,1 1,1 0,1 1,1 1,1 1,1 1,1 1,0 1,-1 1,-1 1,0 1,-1 1,0 1,-1 1,-1 1,0 1,-1 1,0 1,-1 1,-1 1,0 1,-1 1,0 1,-1 -1,-1 0,0 -1,-1 0,-1 -1,-1 -1,-1 -1,-1 -1,-1 0,-1 -1,-1 -1,0 -1,1 0,0 -1,1 -1,0 -1,1 -1,0 -1,1 -1,0 -1,1 -1,0 -1,1 -1,1 -1,0 -1,1 -1,0 -1,1Z"/>
<path onmouseover="hoverPath(evt)" onmouseout="recoverPath(evt)" fill="rgb(243,241,232)" d="M  220,0l -2,0 0,1 1,1 0,2 1,1 0,2 1,1 0,1 1,1 0,2 1,1 0,2 1,1 0,1 1,1 0,2 1,1 0,1 1,1 0,3 -1,1 2,0 1,1 0,1 1,1 0,1 1,1 0,1 1,1 0,1 1,1 0,1 1,1 0,1 1,1 2,2 0,2 2,0 0,-2 1,-1 3,0 1,-1 5,0 -1,-1 0,-1 -1,-1 0,-1 -1,-1 0,-1 -1,-1 0,-1 -1,-1 0,-1 -1,-1 0,-1 -1,-1 0,-1 -1,-1 0,-1 -1,-1 0,-1 -1,-1 0,-1 -1,-1 0,-1 -1,-1 0,-1 -1,-1 0,-1 -1,-1 0,-1 -1,-1 0,-1 -1,-1 0,-1 -1,-1 0,-1 -1,-1 0,-1 -1,-1 0,-3Z"/>
<path onmouseover="hoverPath(evt)" onmouseout="recoverPath(evt)" fill="rgb(243,242,233)" d="M  0,195l 0,60 8,0 0,-2 3,-3 1,-1 6,-6 1,-1 2,-2 0,-2 1,-1 3,0 1,-1 1,0 1,-1 1,-1 1,-1 2,0 1,-1 1,0 1,-1 1,-1 1,0 1,-1 1,0 1,-1 1,0 1,-1 1,-1 1,0 1,-1 1,0 1,-1 1,0 1,-1 1,0 1,-1 1,-1 1,0 1,-1 1,0 1,-1 1,0 1,-1 1,0 1,-1 1,-1 1,0 1,-1 1,0 1,-1 1,0 1,-1 1,0 0,-1 1,-1 2,0 -3,-1 -3,0 -1,1 -3,0 -1,1 -5,0 -1,1 -4,0 -1,1 -1,0 -1,1 0,2 -1,1 -1,1 -1,1 -3,0 -1,-1 0,-4 -1,-1 0,-1 -1,-1 0,-3 -1,-1 0,-2 -1,-1 0,-2 -2,0 -1,-1 0,-2 1,-1 0,-2 -1,-1 0,-3 -1,-1 0,-2 -2,0 -1,-1 0,-2 1,-1 -3,0 -1,1 -3,0 -1,1 -2,0 -1,1 -3,0 -1,1 -3,0 -1,1 -3,0 -1,1 -3,0 -1,1 -3,0Z"/>
<path onmouseover="hoverPath(evt)" onmouseout="recoverPath(evt)" fill="rgb(236,238,234)" d="M  65,19l 0,2 1,1 0,2 1,1 0,1 1,1 0,1 2,0 1,-1 2,0 1,-1 3,0 1,-1 0,-2 -1,-1 0,-1 -1,-1 0,-2 -1,-1 0,-1 -2,0 -1,1 -2,0 -1,1 -3,0 -1,1Z"/>
<path onmouseover="hoverPath(evt)" onmouseout="recoverPath(evt)" fill="rgb(241,240,229)" d="M  114,107l -2,0 0,4 -1,1 0,1 1,1 0,1 1,1 0,3 1,1 0,3 -1,1 0,2 -1,1 -1,1 -1,1 0,2 -1,1 0,5 1,1 0,1 1,1 0,3 2,0 0,-1 -1,-1 0,-3 -1,-1 0,-5 1,-1 1,-1 1,0 1,-1 4,0 1,-1 3,0 1,-1 3,0 1,-1 4,0 1,-1 3,0 1,-1 0,-3 -1,-1 0,-3 -1,-1 0,-3 -1,-1 0,-4 -1,-1 0,-2 -1,-1 0,-2 -3,0 -1,1 -3,0 -1,1 -2,0 -1,1 -3,0 -1,1 -2,0 -1,1Z"/>
<path onmouseover="hoverPath(evt)" onmouseout="recoverPath(evt)" fill="rgb(243,241,233)" d="M  143,99l -2,0 0,3 -1,1 0,2 1,1 0,3 1,1 0,3 1,1 0,4 1,1 0,1 5,0 1,-1 5,0 1,-1 3,0 1,-1 3,0 0,-7 1,-1 0,-1 1,-1 0,-1 1,-1 3,0 1,-1 1,0 1,-1 3,0 1,-1 2,0 0,-2 1,-1 3,0 1,1 2,0 1,-1 5,0 1,1 0,-1 -1,-1 0,-1 -1,-1 0,-2 -2,0 -1,-1 0,-2 -1,-1 -1,-1 0,-1 -3,0 -1,1 -3,0 -1,1 -3,0 -1,1 -2,0 -1,1 -3,0 -1,1 -3,0 -1,1 -3,0 -1,1 -2,0 -1,1 -3,0 -1,1 -3,0 -1,1 -3,0 -1,1Z"/>
<path onmouseover="hoverPath(evt)" onmouseout="recoverPath(evt)" fill="rgb(171,198,238)" d="M  165,194l -1,0 0,1 1,1 0,3 1,1 0,3 1,1 0,3 1,1 0,1 1,0 1,-1 7,0 1,-1 7,0 1,-1 11,0 1,-1 17,0 1,-1 22,0 1,1 5,0 1,1 6,0 1,1 3,0 0,-15 -4,0 -1,1 -3,0 -1,1 -4,0 -1,-1 -4,0 -1,-1 -41,0 -1,1 -14,0 -1,1Z"/>
<path onmouseover="hoverPath(evt)" onmouseout="recoverPath(evt)" fill="rgb(236,238,234)" d="M  170,187l 0,0 -1,1 0,1 1,1 0,2 8,0 1,-1 10,0 0,-2 -1,-1 0,-2 -3,0 -1,-1 0,-1 -1,2 -12,0 -1,1Z"/>
<path onmouseover="hoverPath(evt)" onmouseout="recoverPath(evt)" fill="rgb(243,242,235)" d="M  170,211l -2,0 0,2 1,1 0,3 1,1 0,3 1,1 0,3 1,1 0,3 1,1 0,2 1,1 0,3 1,1 0,3 1,1 0,2 1,1 0,7 1,1 0,3 4,0 0,-9 1,-1 1,-1 1,-1 0,-1 1,-1 1,-1 1,-1 1,-1 0,-1 1,-1 1,0 1,-1 3,0 1,1 11,0 1,1 12,0 1,1 11,0 1,1 11,0 1,1 7,0 1,1 2,0 0,-32 -4,0 -1,-1 -6,0 -1,-1 -5,0 -1,-1 -20,0 -1,1 -17,0 -1,1 -11,0 -1,1 -7,0 -1,1 -7,0 -1,1Z"/>
<path onmouseover="hoverPath(evt)" onmouseout="recoverPath(evt)" fill="rgb(236,238,234)" d="M  192,164l 0,2 1,1 0,2 1,1 0,2 1,1 1,1 0,1 1,1 1,1 1,1 1,1 0,1 1,1 1,1 1,0 1,-1 1,0 1,-1 1,0 1,-1 1,-1 1,0 1,-1 1,0 1,-1 -1,-1 0,0 -1,-1 0,-1 -1,-1 -1,-1 -1,-1 0,-1 -1,-1 -1,-1 -1,-1 0,-1 -1,-1 -1,-1 0,-1 -1,-1 -1,-1 -2,0 -1,1 -1,0 -1,1 -1,0 -1,1 -1,0 -1,1Z"/>
<path onmouseover="hoverPath(evt)" onmouseout="recoverPath(evt)" fill="rgb(236,238,234)" d="M  236,148l -1,0 -1,1 1,1 0,0 1,1 1,1 0,1 1,1 1,1 1,1 1,1 1,1 2,0 1,-1 1,-1 1,0 2,-2 1,0 1,-1 1,0 1,-1 2,0 0,-1 -2,0 -1,-1 0,-1 -1,-1 -1,-1 -1,-1 -1,-1 -1,-1 0,-1 -1,-1 -1,0 -1,1 0,0 -1,1 -1,0 -1,1 -1,0 -1,1 -1,1 -1,0 -1,1Z"/>
<path onmouseover="hoverPath(evt)" onmouseout="recoverPath(evt)" fill="rgb(242,240,230)" d="M  0,157l 0,25 2,0 1,-1 5,0 1,-1 3,0 1,-1 5,0 1,-1 3,0 1,-1 0,-2 -1,-1 0,-2 -1,-1 0,-2 -1,-1 0,-2 -1,-1 0,-3 -1,-1 0,-2 -1,-1 0,-1 -1,-1 0,-3 -1,0 -1,-1 -1,0 -1,-1 0,-2 1,-1 5,0 1,1 1,1 0,2 1,1 0,-1 -1,-3 0,-1 -1,-1 0,-3 -1,-1 0,-2 -1,-1 0,-3 -1,-1 0,-2 -1,-1 -4,0 -1,1 -3,0 -1,1 -6,0Z"/>
<path onmouseover="hoverPath(evt)" onmouseout="recoverPath(evt)" fill="rgb(236,238,234)" d="M  39,21l -2,0 0,2 1,1 0,1 1,1 0,2 1,1 0,1 1,1 0,2 1,1 0,1 3,0 1,-1 3,0 1,-1 2,0 1,-1 3,0 1,-1 2,0 1,-1 1,0 0,-1 -1,-1 0,-2 -1,-1 0,-2 -1,-1 0,-1 -1,-1 0,-2 -1,-1 -1,-1 -1,1 -3,0 -1,1 -2,0 -1,1 -3,0 -1,1 -2,0 -1,1Z"/>
<path onmouseover="hoverPath(evt)" onmouseout="recoverPath(evt)" fill="rgb(244,243,234)" d="M  46,37l -5,0 -1,-1 0,-1 -1,-1 0,-2 -1,-1 0,-1 -1,-1 0,-2 -1,-1 0,-1 -1,-1 0,-4 1,-1 3,0 1,-1 2,0 1,-1 3,0 1,-1 2,0 1,-1 3,0 1,-1 2,0 1,1 1,1 1,1 0,2 1,1 0,1 1,1 0,2 1,1 0,2 1,1 0,3 -1,1 -1,0 -1,1 -2,0 -1,1 -3,0 -1,1 -2,0 -1,1 -3,0 -1,1 19,-10 0,-1 -1,-1 0,-2 -1,-1 0,-4 1,-1 1,-1 3,0 1,-1 2,0 1,-1 4,0 1,1 0,1 1,1 0,2 1,1 0,1 1,1 0,4 -1,1 -1,1 -3,0 -1,1 -2,0 -1,1 -4,0 -1,-1 0,-1 -1,-1 -19,10 2,-24 -2,0 -1,1 -3,0 -1,1 -3,0 -1,1 -3,0 -1,1 -3,0 -1,1 -4,0 -1,1 -5,0 -1,-1 0,-1 -1,-1 0,-3 1,-1 3,0 1,-1 2,0 1,-1 2,0 1,-1 2,0 0,-2 -1,-1 0,-3 1,-1 2,0 1,-1 5,0 1,1 1,1 1,0 1,-1 2,0 1,-1 2,0 0,-1 -47,0 0,50 2,0 1,1 0,2 1,1 0,2 1,0 1,1 2,0 1,-1 3,0 1,-1 3,0 1,-1 2,0 1,-1 2,0 1,-1 3,0 1,-1 2,0 1,-1 2,0 1,-1 3,0 1,-1 2,0 1,-1 3,0 0,-2 1,-1 3,0 1,1 1,0 1,-1 3,0 1,-1 2,0 1,-1 2,0 1,-1 3,0 1,-1 2,0 1,-1 3,0 1,-1 2,0 1,-1 3,0 1,-1 2,0 1,-1 3,0 1,-1 2,0 1,-1 2,0 1,-1 4,0 1,-1 1,0 1,-1 3,0 1,-1 2,0 1,-1 2,0 1,-1 1,0 1,-1 2,0 1,-1 0,-2 -1,-1 0,-2 -1,-1 0,-2 -1,-1 0,-3 -1,-1 0,-2 -1,-1 0,-2 -1,-1 0,-3 -1,-1 0,-2 -45,0 0,1 1,1 0,1 1,1 0,3 -1,1 -1,1 -3,0 -1,1 -2,0 -1,1 -2,0 -1,1 -2,0 -1,1 -2,24Z"/>
<path onmouseover="hoverPath(evt)" onmouseout="recoverPath(evt)" fill="rgb(242,241,231)" d="M  80,197l -4,0 -1,1 -2,0 -1,-1 -1,-1 0,-2 -1,-1 0,-3 -1,-1 0,-6 1,-1 1,0 1,-1 5,0 1,-1 8,0 1,1 0,1 1,1 0,3 1,1 0,4 1,1 0,2 -1,1 -1,0 -1,1 -4,0 -1,1 -2,0 3,4 4,0 1,-1 4,0 1,-1 4,0 1,-1 4,0 1,-1 3,0 1,-1 3,0 1,-1 5,0 1,-1 3,0 1,-1 4,0 1,-1 13,0 1,-1 8,0 1,1 0,1 5,0 -1,-1 0,-3 -1,-1 0,-3 -1,-1 0,-3 -1,-1 0,-4 -1,-1 0,-3 -1,-1 0,-3 -1,-1 0,-3 -1,-1 0,-3 -1,-1 0,-2 -1,-1 -1,0 -1,1 -3,0 -1,1 -3,0 -1,1 -3,0 -1,1 -2,0 -1,1 -3,0 -1,1 -3,0 -1,1 -4,0 -1,1 -2,0 -1,1 -2,0 -1,1 0,5 1,1 0,4 -1,1 -3,0 -1,-1 0,-2 -1,-1 0,-4 -1,-1 0,-1 -2,0 -1,1 -3,0 -1,1 -3,0 -1,1 -2,0 -1,1 -3,0 -1,1 -3,0 -1,1 -3,0 -1,1 -3,0 -1,1 -3,0 -1,1 -3,0 -1,1 -3,0 -1,1 -2,0 -1,1 -3,0 -1,1 -3,0 -1,1 -3,0 -1,1 -3,0 -1,1 -2,0 0,1 1,1 0,2 1,1 0,2 1,1 0,2 1,1 0,3 1,1 0,2 1,1 0,3 1,1 0,2 1,1 5,0 1,-1 4,0 1,-1 4,0 1,-1 3,0 1,-1 4,0 1,-1 4,0 1,-1 4,0 1,-1 1,0 -3,-4Z"/>
<path onmouseover="hoverPath(evt)" onmouseout="recoverPath(evt)" fill="rgb(249,249,244)" d="M  245,93l 1,1 1,1 1,1 0,1 2,0 1,1 0,3 1,0 1,1 1,1 1,0 0,-17 -1,0 -1,1 0,0 -1,1 -2,0 -1,1 -3,0 -1,-1 -1,0 -1,-1 -1,-1 0,-1 -1,-1 -1,-1 -1,-1 -1,-1 -1,-1 0,-1 -1,-1 -1,-1 0,-3 1,-1 1,0 0,-1 -3,3 -6,0 1,1 0,0 1,1 1,1 1,1 1,1 1,1 1,1 1,1 1,1 1,1 1,1 1,1 1,1 0,1 1,0 1,1 1,1 1,1Z"/>
<path onmouseover="hoverPath(evt)" onmouseout="recoverPath(evt)" fill="rgb(242,240,230)" d="M  252,85l 0,0 1,-1 2,0 0,-14 -4,0 -1,-1 -2,0 -1,1 -3,0 0,1 -1,1 -1,1 -3,0 0,1 -1,1 -1,0 0,1 1,1 0,0 1,1 0,1 1,1 1,1 1,1 1,1 1,1 0,1 1,1 1,0 1,1 1,0 1,-1 2,0 1,-1Z"/>
<path onmouseover="hoverPath(evt)" onmouseout="recoverPath(evt)" fill="rgb(236,238,234)" d="M  21,14l -2,0 0,1 1,1 0,1 3,0 1,-1 4,0 1,-1 3,0 1,-1 3,0 1,-1 3,0 1,-1 3,0 1,-1 2,0 1,-1 2,0 1,-1 2,0 1,-1 2,0 1,-1 3,0 1,-1 0,-1 -1,-1 0,-1 -1,-1 0,-2 -10,0 0,2 -1,1 -2,0 -1,1 -2,0 -1,1 -3,0 -1,-1 -1,-1 -3,0 -1,1 -2,0 0,1 1,1 0,4 -1,1 -2,0 -1,1 -2,0 -1,1 -2,0 -1,1Z"/>
<path onmouseover="hoverPath(evt)" onmouseout="recoverPath(evt)" fill="rgb(253,253,253)" d="M  66,70l 0,0 -1,1 2,0 1,1 1,1 0,-3 1,-1 5,0 1,-1 5,0 1,1 0,1 1,1 0,3 1,1 0,3 -1,-8 -1,-2 0,-3 1,-1 5,0 -3,-1 0,0 -1,-1 -1,-1 0,-3 1,-1 1,-1 -1,0 -1,-1 -1,-1 -1,-1 0,-5 -4,0 1,1 0,2 1,1 0,4 1,1 0,3 1,1 0,5 -1,1 -14,3 10,-23 -1,1 -4,0 -1,1 -3,0 -1,1 -2,0 12,-3 -10,23 9,-2 -1,0 -5,1 -1,0 -1,-1 -1,-1 0,-2 -2,6 -1,0 19,-25Z"/>
<path onmouseover="hoverPath(evt)" onmouseout="recoverPath(evt)" fill="rgb(234,235,228)" d="M  157,165l 0,0 -1,1 0,2 1,1 0,3 1,1 0,2 1,1 0,3 2,0 1,1 1,0 1,-1 3,0 1,-1 3,0 1,-1 1,0 -1,-1 0,-1 -3,0 -1,1 -2,0 -1,-1 -1,-1 0,-2 -1,-1 0,-2 -1,-1 0,-2 -1,-1Z"/>
<path onmouseover="hoverPath(evt)" onmouseout="recoverPath(evt)" fill="rgb(242,241,232)" d="M  163,182l -2,0 -1,-1 0,1 1,1 0,3 1,1 0,3 1,1 0,1 5,0 0,-1 -1,-1 0,-3 1,-1 1,-1 1,-1 12,0 0,-1 1,-1 0,-1 -1,-1 0,-4 1,-1 0,-2 -1,-1 0,-3 -1,-1 0,-1 -1,-1 0,-3 -1,-1 0,-1 -1,-1 0,-1 -2,0 -1,-1 0,-1 -1,-1 0,-2 -1,-1 0,-1 -1,-1 0,-2 -4,0 -1,1 -2,0 -1,1 -3,0 -1,1 -3,0 0,2 -1,1 -2,0 0,1 -1,1 0,1 1,1 0,3 1,1 0,1 1,-1 6,0 1,1 1,1 0,2 1,1 0,2 1,1 0,2 1,1 1,-1 5,0 1,1 0,1 1,1 0,2 -1,1 -1,0 -1,1 -3,0 -1,1 -3,0 -1,1Z"/>
<path onmouseover="hoverPath(evt)" onmouseout="recoverPath(evt)" fill="rgb(243,242,233)" d="M  192,86l 0,0 -1,1 -1,0 0,3 -1,1 0,1 2,0 1,1 0,2 1,1 0,1 1,1 0,4 -1,1 -2,0 -1,-1 0,-1 -3,0 -1,1 -4,0 -1,-1 -1,0 0,2 -1,1 -2,0 -1,1 -3,0 -1,1 -1,0 -1,1 -3,0 0,1 -1,1 1,1 0,4 1,1 0,2 1,1 0,2 5,0 1,-1 3,0 1,-1 2,0 1,-1 4,0 1,-1 4,0 1,-1 2,0 0,-4 1,-1 2,0 1,1 0,2 1,0 1,1 1,-1 3,0 1,1 1,1 1,1 0,1 1,1 0,1 1,1 0,1 1,1 1,1 1,1 0,1 1,1 0,1 1,1 0,1 1,1 0,1 3,0 1,-1 2,0 1,-1 1,0 0,-7 1,-1 2,0 1,1 0,3 1,1 0,1 1,1 1,-1 3,0 1,-1 3,0 1,-1 3,0 1,-1 2,0 1,-1 3,0 1,-1 3,0 1,-1 2,0 0,-16 -2,0 -1,-1 -1,-1 -1,0 -1,-1 0,-3 -2,0 -1,-1 0,-1 -1,-1 -1,-1 -1,-1 0,-1 -1,-1 -1,-1 -1,0 -1,-1 0,-1 -1,-1 -1,-1 -1,-1 -1,-1 -1,-1 -1,-1 -1,-1 -1,-1 -1,-1 -1,-1 -1,-1 -1,-1 -3,0 -1,1 -3,0 -1,1 -3,0 -1,1 -3,0 -1,1 -3,0 -1,1 -2,0 -1,1 -3,0 -1,1 -3,0 -1,1 -3,0 -1,1Z"/>
<path onmouseover="hoverPath(evt)" onmouseout="recoverPath(evt)" fill="rgb(187,215,141)" d="M  192,238l -1,0 0,1 -1,1 -1,1 -1,1 -1,1 0,1 -2,2 -1,1 0,8 71,0 0,-12 -3,0 -1,-1 -7,0 -1,-1 -11,0 -1,-1 -11,0 -1,-1 -12,0 -1,-1 -11,0 -1,-1 -1,0 -1,1Z"/>
<path onmouseover="hoverPath(evt)" onmouseout="recoverPath(evt)" fill="rgb(248,237,138)" d="M  238,14l 0,0 1,1 0,1 1,1 0,1 1,1 0,1 1,1 0,1 1,1 0,1 1,1 0,1 1,1 0,1 1,1 0,1 1,1 0,1 1,1 0,1 1,1 0,1 1,1 0,1 1,1 0,1 1,1 0,1 1,1 2,0 0,-17 -2,0 -1,-1 0,-1 -1,-1 0,-1 -1,-1 0,-1 -1,-1 0,-1 -1,-1 0,-1 -1,-1 0,-1 -1,-1 0,-1 -1,-1 0,-1 -1,-1 0,-1 -1,-1 0,-1 -1,-1 0,-1 -1,-1 0,-3 -9,0 0,2 1,1 0,1 1,1 0,1 1,1 0,1 1,1 0,1 1,1 0,1 1,1Z"/>
<path onmouseover="hoverPath(evt)" onmouseout="recoverPath(evt)" fill="rgb(242,239,230)" d="M  58,92l 0,0 1,1 0,3 1,1 0,1 2,0 1,1 0,1 1,1 0,1 1,1 1,0 1,-1 3,0 1,-1 2,0 1,-1 2,0 0,-2 -1,-1 0,-1 -1,-1 0,-2 -1,-1 0,-2 -1,-1 -2,0 -1,-1 0,-2 1,-1 1,-1 2,0 1,-1 6,0 1,-1 2,0 0,-2 -1,-1 0,-3 -1,-1 0,-3 -1,-1 0,-1 -3,0 -1,1 -5,0 0,4 -1,1 -2,0 -1,-1 0,-1 -1,-1 -4,0 -1,-1 -3,0 -1,1 -5,0 -1,-1 0,-1 -1,-1 0,4 -1,1 -3,0 -1,1 -2,0 -1,1 -4,0 0,3 1,1 0,1 2,0 1,1 1,1 0,4 -1,1 0,1 1,1 0,3 1,1 0,1 1,1 0,-2 1,-1 1,0 1,-1 3,0 1,-1 6,0 -21,-15 21,15Z"/>
<path onmouseover="hoverPath(evt)" onmouseout="recoverPath(evt)" fill="rgb(239,237,225)" d="M  99,100l 2,0 1,-1 2,0 1,-1 2,0 0,-2 1,-1 2,0 1,1 4,0 1,-1 3,0 1,-1 3,0 1,-1 3,0 1,-1 0,-1 1,-1 0,-2 -1,-1 0,-4 -1,-1 0,-3 -1,-1 0,-3 -1,-1 0,-3 -1,-1 0,-3 -1,-1 0,-3 -1,-1 0,-4 -1,-1 0,-1 -1,-1 -1,0 -1,1 -1,0 0,2 -1,1 -2,0 -1,-1 0,-1 -4,0 -1,-1 0,-2 1,-1 1,0 1,-1 1,0 0,-1 -2,1 -4,0 -1,-1 0,-2 1,-1 2,0 1,-1 1,0 0,-1 -1,-1 0,-1 -1,-1 -1,0 -1,-1 -1,0 -1,-1 0,-2 1,-1 4,0 1,1 1,1 1,1 1,1 0,1 1,1 0,1 1,1 3,0 0,-5 -1,-1 0,-2 -1,-1 0,-3 -1,-1 0,-2 -2,0 -1,1 -2,0 -1,1 -2,0 -1,1 -2,0 -1,1 -2,0 -1,1 -1,0 -1,1 -2,0 0,3 5,0 1,1 0,2 -1,1 -2,0 -1,1 -5,0 -1,-1 0,-3 -1,-1 0,-1 -4,0 -1,1 -3,0 -1,1 -2,0 -1,1 -3,0 -1,1 -2,0 -1,1 -3,0 -1,1 -2,0 -1,1 -2,0 -1,1 -3,0 -1,1 -2,0 -1,1 -2,0 -1,1 -3,0 -1,1 -2,0 -1,1 -2,0 -1,1 -2,0 -1,1 -2,0 -1,1 1,0 3,-1 1,0 2,-1 2,0 1,-1 5,0 1,1 2,0 0,-2 1,-1 3,0 1,-1 3,0 1,-1 2,0 1,-1 3,0 1,-1 4,0 1,-1 2,0 1,1 1,0 1,-1 0,0 1,-1 5,0 1,1 0,2 -1,1 -2,0 -1,1 0,3 2,2 1,0 1,1 0,2 -1,1 -1,1 0,1 1,1 0,0 1,1 2,0 1,1 0,2 -1,1 -5,0 0,2 1,1 0,4 1,1 0,5 -1,1 0,3 -1,1 -2,0 -1,1 -6,0 -1,1 -2,0 -1,1 2,0 1,1 1,1 0,2 1,1 0,2 1,1 0,1 1,1 0,4 -1,1 -2,0 -1,1 -2,0 -1,1 -3,0 -1,1 -3,0 -1,-1 -1,-1 0,2 -1,1 0,1 1,1 1,0 1,1 2,0 1,-1 3,0 1,-1 3,0 1,-1 2,0 1,-1 3,0 1,-1 3,0 1,-1 3,0 1,-1 3,0 1,-1 3,0 1,-1Z"/>
<path onmouseover="hoverPath(evt)" onmouseout="recoverPath(evt)" fill="rgb(236,238,234)" d="M  135,239l 0,9 1,1 0,6 11,0 0,-17 -11,0 -1,1Z"/>
<path onmouseover="hoverPath(evt)" onmouseout="recoverPath(evt)" fill="rgb(242,240,230)" d="M  146,127l 0,3 1,1 0,3 1,1 0,4 1,1 0,2 1,1 0,4 1,1 3,0 1,-1 3,0 1,-1 2,0 1,-1 3,0 1,-1 2,0 1,-1 2,0 1,-1 3,0 1,-1 4,0 1,-1 2,0 1,-1 3,0 1,-1 3,0 1,-1 3,0 1,-1 3,0 1,-1 3,0 1,-1 2,0 1,-1 3,0 0,-2 -1,-1 0,-2 -1,-1 -1,-1 0,-1 -1,-1 0,-2 1,-1 -1,-1 0,-1 -1,-1 0,-1 -1,-1 -1,-1 -1,0 -1,1 -2,0 -1,-1 -1,0 -1,-1 0,2 -1,1 -2,0 -1,1 -4,0 -1,1 -4,0 -1,1 -2,0 0,2 -1,1 2,0 1,1 1,1 0,2 1,1 0,3 -1,1 -3,0 -1,1 -3,0 -1,1 -2,0 -1,1 -3,0 -1,1 -3,0 -1,1 -3,0 -1,1 -5,0 -1,-1 0,-1 -1,-1 0,-2 -1,-1 0,-3 1,-1 2,0 1,-1 2,0 1,-1 3,0 1,-1 2,0 1,-1 2,0 -2,-1 -1,0 -1,-1 0,-1 -4,0 -1,-1 -2,0 0,2 -1,1 -3,0 -1,1 -3,0 -1,1 -2,0Z"/>
<path onmouseover="hoverPath(evt)" onmouseout="recoverPath(evt)" fill="rgb(242,241,231)" d="M  182,70l -1,0 0,4 -1,1 2,0 1,1 0,1 4,0 1,-1 3,0 1,-1 3,0 1,-1 2,0 1,-1 3,0 1,-1 3,0 1,-1 3,0 1,-1 3,0 1,-1 2,0 1,-1 3,0 1,-1 2,0 1,-1 4,0 1,-1 2,0 1,-1 3,0 1,-1 2,0 1,-1 3,0 1,-1 3,0 1,-1 3,0 1,-1 3,0 0,-14 -3,0 -2,-2 0,-1 -5,0 -1,1 -3,0 0,2 -1,1 -4,0 -1,-1 -1,0 -1,-1 -1,-1 -1,-1 0,-2 1,-1 -1,-1 0,-1 -1,-1 0,-1 -1,-1 0,-1 -1,-1 0,-1 -1,-1 0,-1 -2,0 -1,-1 0,-2 1,-1 0,-1 -1,-1 0,-1 -1,-1 0,-2 -1,-1 0,-1 -2,0 -1,-1 0,-1 -1,-1 0,-1 -1,-1 0,-2 -1,-1 0,-1 -1,-1 0,-2 -1,-1 0,-1 -4,0 -1,1 -3,0 -1,1 -3,0 -1,1 -3,0 -1,1 -2,0 -1,1 -3,0 -1,1 -3,0 -1,1 -2,0 -1,1 -3,0 -1,1 -2,0 -1,1 -2,0 -1,1 -3,0 -1,1 -2,0 -1,1 -2,0 -1,1 -3,0 -1,1 -2,0 -1,1 -3,0 -1,1 -2,0 -1,1 -2,0 -1,1 -1,0 0,2 -1,1 -2,0 -1,-1 -1,-1 -1,1 -3,0 -1,1 -2,0 -1,1 0,4 -1,1 -2,0 -1,-1 0,-3 -2,0 -1,1 -2,0 -1,1 0,2 1,1 0,2 1,1 0,3 1,1 0,3 1,1 0,3 1,1 0,4 1,1 0,3 1,1 0,4 1,1 0,3 1,1 0,3 1,1 0,3 1,1 0,3 1,0 1,1 4,0 0,-3 1,-1 0,-2 -1,-1 0,-4 -1,-1 0,-3 -1,-1 0,-5 -1,-1 0,-5 -1,-1 0,-4 1,-1 2,0 1,1 0,-1 -1,-1 0,-2 1,-1 0,-3 1,-1 1,0 1,-1 4,0 1,1 3,0 1,-1 3,0 1,-1 3,0 1,-1 2,0 1,-1 3,0 1,-1 2,0 1,-1 3,0 1,-1 2,0 1,-1 2,0 1,-1 6,0 1,1 1,1 0,1 1,1 0,1 1,1 0,1 1,1 0,1 1,1 0,1 1,1 0,1 1,1 0,1 1,1 0,1 1,1 0,1 1,1 0,1 1,1 0,1 1,1 0,1 1,1 0,1 1,1 0,1 1,1 0,4 -1,1 -2,0 0,2 -1,1 -2,0 -1,1 -2,0 -1,1 -3,0 -1,1 -2,0 -1,1 -1,0 -1,1 31,-54 0,1 1,1 0,1 1,1 0,1 1,1 0,1 1,1 0,1 1,1 0,4 -1,1 -2,0 -1,1 -1,0 -1,1 -2,0 -1,1 -4,0 -1,-1 0,-1 -1,-1 0,-2 -1,-1 0,-1 -1,-1 0,-1 -1,-1 0,-1 -1,-1 0,-2 -1,-1 0,-2 1,-1 1,-1 2,0 1,-1 2,0 1,-1 5,0 1,1 0,1 1,1 -31,54Z"/>
</svg>