<svg width="256" height="256" xmlns="http://www.w3.org/2000/svg"><script> 
var tempColor;
function hoverPath(evt){
obj = evt.target;
tempColor = obj.getAttribute("fill");
obj.setAttribute("fill","red");
//alert(tempColor);
//obj.setAttribute("stroke","red");}
function recoverPath(evt){
obj = evt.target;
obj.setAttribute("fill", tempColor);
//obj.setAttribute("stroke", tempColor);
}</script><path onmouseover="hoverPath(evt)" onmouseout="recoverPath(evt)" fill="rgb(241,241,236)" d="M  0,84l 0,25 4,0 1,-1 1,0 1,-1 1,0 1,-1 4,0 1,-1 1,0 1,-1 0,-1 -1,0 -1,-1 0,-3 -1,-1 -1,-1 -1,-1 0,-1 -1,-1 -1,-1 0,-1 -1,0 -1,-1 0,-1 -1,-1 0,-1 -1,0 -1,-1 -1,-1 0,-1 -1,-1 0,-2 1,-1 0,-1 -1,-1 0,0 -1,-1 -1,-1Z"/>
<path onmouseover="hoverPath(evt)" onmouseout="recoverPath(evt)" fill="rgb(241,240,233)" d="M  20,96l 0,1 1,1 7,0 1,-1 0,0 1,-1 1,0 1,-1 3,0 1,-1 2,0 1,-1 1,-1 1,0 1,-1 2,0 0,-1 1,-1 3,0 1,-1 1,0 1,-1 0,-1 1,-1 4,0 1,-1 2,0 2,-2 2,0 1,-1 1,0 1,-1 2,0 1,-1 1,0 1,-1 3,0 2,-2 1,0 1,-1 1,0 1,-1 1,0 1,-1 2,0 1,-1 2,0 1,-1 2,0 1,-1 2,0 1,-1 1,0 1,-1 2,0 1,-1 2,0 1,-1 1,0 1,-1 2,0 1,-1 1,0 1,-1 2,0 1,-1 1,-1 1,-1 1,0 1,-1 1,0 1,-1 2,0 1,-1 1,-1 1,0 1,-1 1,0 1,-1 1,0 1,-1 1,0 1,-1 1,0 1,-1 2,0 1,-1 2,0 1,-1 2,0 1,-1 2,0 1,-1 1,0 1,-1 2,0 1,-1 4,0 2,-2 1,0 1,-1 2,0 1,-1 2,0 1,-1 2,0 1,-1 1,0 0,-1 1,-1 0,-1 -1,-1 0,-1 -1,-1 0,-1 -1,-1 -1,-1 0,-1 -1,-1 -1,-1 -1,-1 -1,-1 0,-1 -1,-1 -1,-1 -1,-1 -1,-1 -1,-1 -1,-1 -1,-1 -1,-1 -1,-1 -1,-1 -1,-1 -1,-1 0,-6 1,-1 0,-1 -1,0 -1,1 -1,0 -1,1 -1,1 -1,0 -1,1 -2,0 -1,1 -1,0 -1,1 -2,0 -1,1 -1,0 -1,1 -3,0 -1,-1 0,-1 -3,0 -1,-1 -1,-1 0,-1 -1,-1 0,-1 -1,-1 -2,0 -1,1 -1,0 0,10 -1,1 -2,0 -1,1 -8,0 -1,1 -1,1 -1,1 -1,0 -1,1 -2,0 0,1 -1,1 -2,0 -1,1 -2,0 6,-1 6,0 1,1 3,0 1,-1 6,0 1,1 0,4 -1,1 -1,0 -1,1 -1,1 0,1 -1,1 -2,0 0,1 -1,1 0,1 -1,1 -1,0 -1,1 -1,1 -4,4 -1,1 -1,1 -1,1 -1,0 -1,1 -1,1 -7,0 -1,-1 0,-1 -1,-1 0,-1 -1,0 -1,-1 -1,-1 0,-6 1,-1 2,0 1,-1 0,-2 1,-1 1,0 0,-5 -1,0 0,2 -1,1 -3,0 -1,-1 -1,0 -1,1 -2,0 -1,1 -2,0 -1,1 -1,1 -3,0 -1,1 -1,1 -2,0 0,2 -1,1 -2,0 -1,-1 -1,0 -1,1 -1,0 0,2 -1,1 -2,0 -1,-1 -2,0 -1,1 -1,1 -2,0 -1,1 -1,0 -1,1 -1,0 0,2 -1,1 -2,0 -1,1 -2,0 -1,-1 -1,0 0,2 -1,1 -2,0 -1,-1 -1,0 -1,1 -2,0 -1,1 -1,0 -1,1 -2,0 -1,1 -1,0 0,2 -1,1 -2,0 -1,-1 -1,0 -1,1 -2,0 0,2 -1,1 -2,0 -1,-1 -1,0 -1,1 -2,0 -1,1 -2,0 -1,1 -2,0 0,11 2,0 1,1 0,1 1,1 1,1 1,0 1,1 0,2 1,1 1,1 1,1 1,1 0,1 1,1 1,1 1,1 1,1 0,1 1,1 1,1 1,1 0,1 2,2Z"/>
<path onmouseover="hoverPath(evt)" onmouseout="recoverPath(evt)" fill="rgb(243,241,234)" d="M  0,41l 0,17 1,0 1,-1 2,0 1,-1 2,0 1,-1 3,0 1,1 0,-2 1,-1 2,0 1,-1 2,0 1,-1 1,0 1,-1 1,0 1,-1 2,0 1,-1 1,0 1,-1 2,0 1,-1 2,0 1,-1 1,0 1,-1 2,0 1,-1 2,0 1,1 1,0 0,-2 1,-1 1,0 1,-1 1,0 1,-1 2,0 1,-1 1,-1 3,0 1,-1 1,0 1,-1 1,0 1,-1 3,0 1,1 0,-2 1,-1 2,0 1,-1 1,-1 3,0 1,-1 1,-1 2,0 1,-1 2,0 1,-1 3,0 1,1 1,0 0,-2 1,-1 3,0 1,1 0,7 -1,1 -1,0 0,2 -1,1 -1,1 -2,0 0,4 1,1 1,0 1,1 0,1 1,1 0,1 5,0 1,-1 0,0 1,-1 1,0 1,-1 1,-1 1,-1 2,-2 1,-1 1,-1 1,-1 1,-1 1,0 0,-1 1,-1 0,-1 1,-1 2,0 0,-1 1,-1 1,-1 1,-1 1,0 0,-2 -4,0 -1,1 -5,0 -1,-1 -7,0 -1,1 -4,0 -91,15 90,-17 0,-1 1,-1 2,0 1,-1 2,0 0,-1 1,-1 2,0 1,-1 1,0 2,-2 1,-1 8,0 1,-1 2,0 0,-10 1,-1 1,0 1,-1 4,0 1,1 1,1 0,1 1,1 0,1 1,1 3,0 1,1 0,1 1,0 1,-1 1,0 1,-1 2,0 1,-1 1,0 1,-1 2,0 1,-1 1,0 2,-2 1,0 1,-1 2,0 1,-1 3,0 1,1 1,0 1,-1 4,0 1,1 1,0 1,-1 3,0 0,-1 -166,0 0,40 90,-16 -90,17Z"/>
<path onmouseover="hoverPath(evt)" onmouseout="recoverPath(evt)" fill="rgb(244,243,236)" d="M  197,60l -3,0 -1,-1 0,2 1,1 1,1 1,1 1,1 1,1 1,1 1,0 1,1 2,2 1,1 1,1 5,0 1,-1 6,0 1,-1 4,0 1,-1 3,0 1,-1 4,0 1,-1 3,0 1,-1 2,0 1,-1 2,0 1,-1 2,0 1,-1 2,0 1,-1 3,0 1,-1 3,0 0,-47 -2,0 -1,1 -3,0 0,2 -1,1 -3,0 -1,-1 -1,0 0,2 -1,1 -3,0 -1,-1 -2,0 -1,1 -1,0 -1,1 -3,0 -1,1 -3,0 -1,1 -2,0 -1,1 -3,0 -1,1 -2,0 -1,1 -3,0 -1,1 -1,0 -1,1 0,2 -1,1 -2,0 -1,-1 -1,0 -1,1 -2,0 0,2 -1,1 -2,0 -1,-1 -1,0 -1,1 -1,0 0,4 1,1 0,2 2,0 1,1 0,3 -1,1 0,3 1,1 0,1 1,1 0,6 -1,1 -1,1Z"/>
<path onmouseover="hoverPath(evt)" onmouseout="recoverPath(evt)" fill="rgb(170,198,238)" d="M  231,189l 0,0 -1,1 0,1 1,1 0,7 1,1 0,2 1,1 0,4 -1,1 0,2 -1,1 0,3 -1,1 0,3 1,1 0,4 1,1 0,7 -1,1 0,4 1,1 0,10 -1,1 0,7 1,0 0,-5 1,-1 0,-3 1,-1 0,-7 -1,-1 0,-1 -1,-1 0,1 -1,-47 1,34 -1,-5 0,-1 1,-1 0,-4 1,-1 0,-1 1,-1 0,-2 1,-1 0,-2 -1,-1 0,-3 -1,-1 0,-1 -1,-1 0,-5 1,-1 0,-1 1,-1 1,-1 1,-1 1,0 1,-1 1,0 1,-1 1,0 1,-1 2,0 1,-1 2,0 1,-1 0,-4 -1,-1 0,-1 -1,-1 0,-1 -1,-1 -1,-1 0,-1 -1,-1 -1,-1 0,-1 -1,-1 0,-3 2,-2 2,0 1,-1 9,0 0,-2 -16,0 -1,-1 -1,0 -1,-1 -1,-1 0,-1 -1,-1 0,-1 -1,-1 0,-1 -1,-1 0,-3 -1,-1 0,-7 -1,-1 0,-9 -1,-1 0,-2 -1,-1 0,-3 -1,-1 0,-2 -1,-1 0,-1 -1,-1 0,-1 -1,-1 0,-1 -1,-1 -1,-1 0,-1 -1,-1 -1,-1 0,-1 -1,-1 0,-1 -1,-1 -1,-1 0,-2 -1,-1 0,-1 -1,-1 0,-1 -1,-1 0,-1 -1,-1 0,-1 -1,-1 0,-2 -1,-1 0,-2 -1,-1 0,-2 -1,-1 0,-1 -1,-1 0,-5 1,-1 4,0 1,-1 7,0 1,-1 6,0 1,-1 3,0 1,-1 2,0 1,-1 2,0 1,-1 2,0 1,-1 2,0 1,-1 2,0 1,-1 1,0 1,-1 1,-1 4,0 0,-1 -2,0 -3,1 -1,0 -1,1 -2,0 -1,1 -2,0 -1,1 -2,0 -1,1 -2,0 -1,1 -3,0 -1,1 -4,0 -1,1 -3,0 -1,1 -4,0 -1,1 -6,0 -1,1 -7,0 -1,-1 -1,-1 -1,-1 -1,-1 -1,-1 -1,0 -1,-1 -1,-1 -1,-1 -1,-1 -1,-1 -1,-1 -1,0 -1,1 0,1 1,1 0,0 1,1 1,1 1,1 1,1 1,1 1,1 1,1 1,1 1,1 1,1 1,1 1,1 0,1 1,1 0,2 1,1 0,2 1,1 0,1 1,1 0,2 1,1 0,2 1,1 0,2 1,1 0,1 1,1 0,1 1,1 0,2 1,1 0,3 -1,1 -2,0 -1,1 -2,0 -1,1 -3,0 -1,1 -4,0 -1,1 -2,0 -1,1 -2,0 -1,1 -2,0 -1,1 -2,0 -1,1 -2,0 -1,1 -1,0 -1,1 -2,0 -1,1 -2,0 -1,1 -2,0 -1,1 -2,0 -1,1 -2,0 -1,1 -2,0 -1,1 -2,0 -1,1 -2,0 -1,1 -2,0 -1,1 -2,0 -1,1 -1,1 -2,0 -1,1 -3,0 -1,1 -2,0 -1,1 -2,0 -1,1 -2,0 -1,1 -2,0 -1,1 -2,0 -1,1 -2,0 -1,1 -2,0 -1,1 -1,0 -1,1 -2,0 -1,1 -1,0 -1,1 -2,0 -1,1 -2,0 -1,1 -1,0 -1,1 -2,0 -1,1 -1,0 -1,1 -2,0 -1,1 -2,0 -1,1 -2,0 -1,1 -1,0 -1,1 -2,0 -1,1 -2,0 -1,1 -2,0 -1,1 -2,0 -1,1 -2,0 -1,1 -1,0 -1,1 -2,0 -1,1 -2,0 -1,1 -3,0 -1,-1 -1,-1 -1,-1 0,-1 -1,-1 -1,-1 -1,-1 0,-1 -1,-1 -1,-1 -1,0 -1,-1 0,-2 -1,-1 -1,-1 -1,0 0,1 1,1 0,0 1,1 0,-1 -1,-1 2,4 1,1 1,1 1,1 0,1 1,1 1,1 1,1 0,1 1,1 0,3 -1,1 -2,0 -1,1 -2,0 -1,1 -2,0 -1,1 -3,0 -1,1 -2,0 -1,1 -2,0 -1,1 -2,0 -1,1 -2,0 -1,1 -2,0 -1,1 -1,0 -1,1 -2,0 -1,1 -2,0 -1,1 -2,0 -1,1 -2,0 -1,1 -2,0 -2,2 -2,0 -1,1 1,0 3,-1 1,0 1,-1 3,0 1,-1 3,0 1,-1 2,0 1,-1 2,0 1,-1 1,0 1,-1 2,0 1,-1 2,0 1,-1 2,0 1,-1 2,0 1,-1 2,0 1,-1 1,0 1,-1 2,0 1,-1 2,0 1,-1 2,0 1,-1 2,0 1,-1 2,0 1,-1 1,0 1,-1 2,0 1,-1 1,0 1,-1 2,0 1,-1 2,0 1,-1 1,0 1,-1 3,0 1,-1 2,0 1,-1 2,0 1,-1 2,0 1,-1 2,0 1,-1 2,0 1,-1 1,0 1,-1 2,0 1,-1 2,0 1,-1 2,0 1,-1 1,0 1,-1 2,0 1,-1 1,0 1,-1 2,0 1,-1 1,0 1,-1 2,0 1,-1 1,0 1,-1 2,0 1,-1 1,0 1,-1 2,0 1,-1 1,0 1,-1 2,0 1,-1 2,0 1,-1 -9,3 0,0 -3,1 101,88 -1,-34 -84,-59 0,0 3,-1 1,-1 2,0 1,-1 2,0 1,-1 2,0 1,-1 2,0 1,-1 2,0 1,-1 2,0 1,-1 2,0 1,-1 2,0 1,-1 2,0 1,-1 2,0 1,-1 2,-1 3,0 1,-1 2,0 1,-1 3,0 1,-1 3,0 1,-1 3,0 1,-1 4,0 1,-1 2,0 1,-1 6,0 1,1 1,1 0,1 1,1 1,1 0,1 1,1 1,1 0,1 1,1 0,1 1,1 0,2 1,1 0,2 1,1 0,3 1,1 0,15 1,1 0,3 1,1 0,2 -1,1 -1,1 -1,1 -1,0 -1,1 -1,0 -1,1 -1,0 -1,1 -1,0 -1,1 -1,0 -1,1 -1,0 -1,1 -1,0 -1,1 -1,0 -1,1 -1,0 -1,1 -1,0 -1,1 -1,0 -1,1 -1,1 -1,0 -1,1 -1,0 -1,1 -1,1 -1,0 -1,1 -1,0 -1,1 -1,0 -1,1 -2,0 -1,1 -2,0 -1,1 -2,0 -1,1 -1,0 -1,1 -1,0 -1,1 -1,0 -1,1 -1,1 -1,0 -1,1 -1,0 -1,1 -1,0 -1,1 -1,0 -1,1 -1,0 -1,1 -1,0 -1,1 -1,0 -1,1 -1,0 -1,1 -1,0 -1,1 -1,1 -2,0 -1,1 -1,0 -1,1 -1,0 -1,1 -1,0 -1,1 -1,0 -1,1 -1,1 -1,0 -1,1 0,1 -1,1 -2,0 -1,1 -1,1 -1,0 -1,1 -1,0 0,1 -1,1 -2,0 -1,1 -1,1 -1,1 -1,1 -1,1 -1,1 -1,0 -1,1 0,1 -1,1 -2,0 0,1 -1,1 -2,0 0,1 -1,1 -2,0 -1,1 -1,0 0,1 -1,1 -2,0 -1,1 -1,0 -1,1 -1,0 -1,1 -1,0 -1,1 -1,1 -1,0 -1,1 -1,0 -1,1 -1,0 -1,1 -1,0 -1,1 -1,1 1,0 1,-1 2,0 1,-1 1,0 1,-1 2,0 1,-1 1,-1 1,-1 1,0 1,-1 1,0 0,-1 -2,1 -2,1 -1,1 -4,2 -2,1 13,-7 1,0 2,-1 1,-1 1,0 1,-1 -1,0 3,-1 1,-1 2,-1 1,-1 2,-1 1,-1 1,-1 1,0 1,-1 1,-1 1,0 1,-1 1,-1 0,-1 1,-1 -1,0 15,-77 84,59 -91,14 1,-1 -1,0 3,-1 1,-1 0,0 1,-1 1,0 1,-1 1,-1 1,0 0,-1 -2,1 -1,1 -2,1 7,-4 2,-1 2,-1 1,0 2,-1 1,-1 1,0 1,-1 1,0 1,-1 1,0 1,-1 2,-1 2,0 1,-1 1,0 1,-1 1,0 1,-1 2,0 1,-1 1,0 1,-1 1,-1 1,0 1,-1 1,0 1,-1 2,0 1,-1 1,0 1,-1 2,0 1,-1 1,0 1,-1 1,0 1,-1 1,0 1,-1 1,0 1,-1 1,0 1,-1 1,0 1,-1 1,0 1,-1 1,0 1,-1 1,0 1,-1 1,0 1,-1 1,0 1,-1 1,-1 1,0 1,-1 1,0 1,-1 1,0 1,-1 1,0 1,-1 2,0 1,-1 5,0 2,2 1,1 0,1 1,1 0,1 1,1 1,1 0,1 1,1 0,1 1,1 1,1 0,1 1,1 0,2 1,1 0,1 1,1 0,2 -2,2 -2,0 -1,1 -1,0 -1,1 -1,0 -1,1 -1,1 -1,0 -1,1 -91,15 91,-14Z"/>
<path onmouseover="hoverPath(evt)" onmouseout="recoverPath(evt)" fill="rgb(244,243,237)" d="M  1,185l -1,0 0,70 26,0 0,-2 1,-1 1,0 1,-1 1,0 1,-1 1,0 1,-1 1,0 1,-1 1,-1 10,0 1,1 1,1 1,0 1,1 1,0 1,1 2,0 1,1 5,0 1,-1 1,0 0,-1 1,-1 2,0 1,-1 1,0 1,-1 1,-1 1,-1 1,-1 1,0 0,-1 1,-1 2,0 1,-1 1,0 0,-1 1,-1 2,0 1,-1 0,-1 1,-1 2,0 1,-1 1,0 1,-1 1,-1 1,0 0,-2 1,-1 2,0 1,-1 1,-1 1,0 1,-1 1,0 1,-1 1,0 1,-1 1,0 1,-1 1,-1 1,0 1,-1 1,0 1,-1 1,0 1,-1 2,0 0,-1 1,-1 1,0 1,-1 2,0 0,-1 1,-1 2,0 0,-1 1,-1 2,0 0,-1 1,-1 1,-1 1,0 2,-2 1,-1 2,-2 1,-1 2,0 0,-1 1,-1 1,0 1,-1 1,0 1,-1 1,-1 2,0 0,-1 1,-1 1,-1 1,0 1,-1 1,-1 1,0 1,-1 1,0 1,-1 1,0 1,-1 1,0 1,-1 2,0 1,-1 1,-1 1,0 1,-1 1,0 1,-1 1,0 1,-1 1,0 1,-1 1,0 1,-1 1,0 1,-1 1,0 1,-1 1,0 1,-1 1,0 1,-1 1,-1 1,0 1,-1 1,0 1,-1 1,0 1,-1 2,0 1,-1 2,0 1,-1 2,0 1,-1 1,0 1,-1 1,0 1,-1 1,0 1,-1 1,-1 1,0 1,-1 1,0 1,-1 1,-1 1,0 1,-1 1,0 1,-1 1,0 1,-1 1,0 1,-1 1,0 1,-1 1,0 1,-1 1,0 1,-1 1,0 1,-1 1,0 1,-1 1,0 1,-1 1,0 1,-1 1,-1 -1,-1 0,-3 -1,-1 0,-15 -1,-1 0,-3 -1,-1 0,-2 -1,-1 0,-2 -1,-1 0,-1 -1,-1 0,-1 -1,-1 -1,-1 0,-1 -1,-1 -1,-1 0,-1 -1,-1 -4,0 -1,1 -2,0 -1,1 -4,0 -1,1 -3,0 -1,1 -3,0 -1,1 -3,0 -1,1 -2,0 -1,1 -4,0 -1,1 -1,1 -2,0 -1,1 -2,0 -1,1 -2,0 -1,1 -2,0 -1,1 -2,0 -1,1 -2,0 -1,1 -2,0 -1,1 -2,0 -1,1 -2,0 -1,1 -2,0 -1,1 -2,0 -1,1 -3,0 -2,2 -2,0 -1,1 -2,0 -1,1 -1,0 -1,1 -2,0 -1,1 -1,0 -1,1 -2,0 -1,1 -1,0 -1,1 -2,0 -1,1 -1,0 -1,1 -2,0 -1,1 -1,0 -1,1 -2,0 -1,1 -1,0 -1,1 -2,0 -1,1 -2,0 -1,1 -2,0 -1,1 -1,0 -1,1 -2,0 -1,1 -2,0 -1,1 -2,0 -1,1 -2,0 -1,1 -2,0 -1,1 -3,0 -1,1 -1,0 -1,1 -2,0 -1,1 -2,0 -1,1 -1,0 -1,1 -2,0 -1,1 -1,0 -1,1 -2,0 -1,1 -2,0 -1,1 -2,0 -1,1 -2,0 -1,1 -2,0 -1,1 -1,0 -1,1 -2,0 -1,1 -2,0 -1,1 -2,0 -1,1 -2,0 -1,1 -2,0 -1,1 -1,0 -1,1 -2,0 -1,1 -2,0 -1,1 -3,0 -1,1 -3,0 -1,1 -3,0 -1,1 -3,0 -1,1 -1,1 -2,0 -1,1 -1,1 -1,1Z"/>
<path onmouseover="hoverPath(evt)" onmouseout="recoverPath(evt)" fill="rgb(203,215,229)" d="M  42,94l -1,0 -1,1 -1,1 -2,0 -1,1 -3,0 -1,1 -1,0 -1,1 -1,1 -9,0 -1,-1 -1,-1 0,-3 -1,-1 -1,-1 0,-1 -1,-1 -1,-1 -1,-1 0,-1 -1,-1 -1,-1 -1,-1 -1,-1 0,-1 -1,-1 -1,-1 -1,-1 -1,-1 0,-2 -1,0 -1,-1 -1,-1 -1,-1 0,-1 -1,0 0,2 1,0 1,1 1,1 1,1 1,2 0,2 -1,1 1,1 0,1 1,1 1,0 1,1 0,1 1,1 0,1 1,0 1,1 0,1 1,1 1,1 0,1 1,1 1,1 1,1 0,3 1,0 1,1 0,3 -1,1 -1,1 -1,0 -1,1 -4,0 -1,1 -1,0 -1,1 -1,0 -1,1 -5,0 0,2 5,0 1,-1 3,0 1,-1 1,0 1,-1 1,-1 4,0 1,-1 7,0 0,-1 -1,0 -1,-1 0,-4 1,-1 8,0 0,-1 1,-1 2,0 1,-1 12,0 1,1 0,-1 1,-1 0,0 1,-1 1,0 0,-4 1,-1 3,0 1,-1 1,-1 1,-1 1,-1 2,0 0,-3 -1,1 0,0 -1,1 -2,0 -1,1 -4,0 0,1 -1,1 -1,1 -1,0 -1,1 -3,0 0,1 -1,1 -2,0 -1,1Z"/>
<path onmouseover="hoverPath(evt)" onmouseout="recoverPath(evt)" fill="rgb(244,243,237)" d="M  61,254l -7,0 -1,-1 -2,0 -1,-1 -1,0 -1,-1 -1,0 -1,-1 -1,-1 -8,0 -1,1 -1,1 -1,0 -1,1 -1,0 -1,1 -1,0 -1,1 -1,0 0,1 32,0 1,-1 1,1 167,0 0,-8 1,-1 0,-8 -1,-1 0,-6 1,-1 0,-5 -1,-1 0,-4 -1,-1 0,-5 1,-1 0,-3 1,-1 0,-2 1,-1 0,-2 -1,-1 0,-2 -1,-1 0,-7 -1,-1 0,-3 1,-1 0,-1 1,-1 1,-1 1,0 1,-1 1,-1 1,0 1,-1 1,0 1,-1 2,0 1,-1 -1,-1 0,-1 -1,-1 0,-2 -1,-1 0,-1 -1,-1 -1,-1 0,-1 -1,-1 0,-1 -1,-1 -1,-1 0,-1 -1,-1 0,-1 -1,-1 -1,-1 -3,0 -1,1 -2,0 -1,1 -1,0 -1,1 -1,0 -1,1 -1,0 -1,1 -1,0 -1,1 -1,1 -1,0 -1,1 -1,0 -1,1 -1,0 -1,1 -1,0 -1,1 -1,0 -1,1 -1,0 -1,1 -1,0 -1,1 -1,0 -1,1 -1,0 -1,1 -1,0 -1,1 -1,0 -1,1 -2,0 -1,1 -1,0 -1,1 -2,0 -1,1 -1,0 -1,1 -1,0 -1,1 -1,1 -1,0 -1,1 -2,0 -1,1 -1,0 -1,1 -1,0 -1,1 -3,0 -1,1 -1,1 -1,0 -1,1 -1,0 -1,1 -1,0 -1,1 -1,0 -1,1 -2,0 -1,1 -1,0 -1,1 -1,0 0,1 -1,1 -1,0 -1,1 -1,1 -1,0 -1,1 -1,1 -1,0 -1,1 -1,1 -1,0 -1,1 -2,0 0,1 -1,1 -1,0 -1,1 0,1 -1,1 -1,1 -1,1 -1,0 -1,1 -1,1 -1,0 -1,1 -1,1 -1,0 -2,2 -1,0 -1,1 -1,1 -1,0 -1,1 -1,1 -1,0 -1,1 -1,0 -1,1 -2,0 0,1 -1,1 -1,0 -1,1 -1,0 -1,1 -1,1 -1,1 -2,0 -1,1 -1,0 -1,1 -2,0 -1,1 -4,0 -1,1 -1,0 -2,2 -1,0 -1,1 -2,0 0,1 -1,1 -1,1 -2,0 0,1 -1,1 -1,0 -1,1 -2,0 0,1 -1,1 -1,0 -1,1 -1,1 -1,1 -1,1 -1,0 -1,1 -2,0 0,1 -1,1 -1,0 0,2 -1,-1Z"/>
<path onmouseover="hoverPath(evt)" onmouseout="recoverPath(evt)" fill="rgb(244,243,236)" d="M  154,7l 0,0 1,1 1,1 1,1 1,1 1,1 1,1 0,1 1,1 1,1 1,1 1,0 1,1 1,1 0,2 1,1 1,1 2,0 1,-1 1,0 1,-1 1,-1 2,0 1,-1 3,0 1,-1 1,0 1,-1 3,0 1,-1 3,0 1,-1 4,0 1,-1 4,0 1,-1 3,0 1,-1 3,0 1,-1 3,0 1,-1 3,0 1,-1 2,0 1,-1 2,0 1,-1 2,0 1,-1 4,0 1,-1 3,0 1,-1 3,0 1,-1 1,0 1,-1 3,0 1,-1 5,0 0,-1 -82,0 0,2 -1,1 -3,0 -1,1 -3,0 -1,-1 -2,0 -1,1 -3,0 -1,-1 -1,0 0,2 1,1 1,0 1,1Z"/>
<path onmouseover="hoverPath(evt)" onmouseout="recoverPath(evt)" fill="rgb(244,243,236)" d="M  210,78l 0,2 1,1 0,1 1,1 0,2 1,1 0,2 1,1 0,2 1,1 0,1 1,1 0,1 1,1 0,1 1,1 0,1 1,1 0,2 1,1 1,1 0,1 1,1 0,1 1,1 1,1 0,1 1,1 1,1 0,1 1,1 0,1 1,1 0,1 1,1 0,2 1,1 0,3 1,1 0,2 1,1 0,9 1,1 0,7 1,1 0,3 1,1 0,1 1,1 0,1 1,1 0,1 1,1 1,0 1,1 15,0 0,-91 -3,0 -1,1 -1,1 -1,0 -1,1 -2,0 -1,1 -2,0 -1,1 -2,0 -1,1 -2,0 -1,1 -2,0 -1,1 -3,0 -1,1 -6,0 -1,1 -7,0 -1,1 -3,0 -1,1Z"/>
<path onmouseover="hoverPath(evt)" onmouseout="recoverPath(evt)" fill="rgb(244,243,237)" d="M  236,190l 0,0 -1,1 0,1 -1,1 0,3 1,1 0,1 1,1 0,3 1,1 0,4 -1,1 0,2 -1,1 0,1 -1,1 0,4 -1,1 0,3 1,1 0,12 1,1 0,1 1,1 0,9 -1,1 0,3 -1,1 0,4 21,0 0,-92 -8,0 -1,1 -2,0 -1,1 0,1 1,1 0,1 1,1 1,1 0,1 1,1 1,1 0,1 1,1 0,1 1,1 0,6 -1,1 -1,1 -2,0 -1,1 -2,0 -1,1 -1,0 -1,1 -1,0 -1,1 -1,0 -1,1Z"/>
<path onmouseover="hoverPath(evt)" onmouseout="recoverPath(evt)" fill="rgb(244,243,236)" d="M  0,127l 0,56 2,0 1,-1 0,0 1,-1 1,-1 2,0 1,-1 0,-2 1,-1 1,0 1,-1 2,0 2,-2 2,0 1,-1 2,0 1,-1 2,0 1,-1 2,0 1,-1 2,0 1,-1 1,0 1,-1 2,0 1,-1 2,0 1,-1 2,0 1,-1 2,0 1,-1 2,0 1,-1 3,0 1,-1 2,0 1,-1 2,0 1,-1 2,0 0,-1 -1,-1 0,-1 -1,-1 -1,-1 -1,-1 0,-1 -1,-1 -1,-1 -1,-1 0,-1 -1,-1 -1,-1 -1,-1 0,-2 -1,0 -1,-1 -1,-1 0,-2 -1,0 -1,-1 -1,-1 0,-1 -1,-1 0,-1 -1,0 -1,-1 0,-1 -1,-1 -1,-1 0,-1 -1,-1 -1,-1 -1,-1 0,-1 -1,0 -1,-1 -1,-1 -3,0 -1,-1 -3,0 -1,-1 -5,0 0,1 -1,1 -2,0 -1,-1 0,-3 -4,0 0,2 -1,1 -1,0 -1,1 -1,0 -1,1 -3,0 -1,-1 0,-2 1,-1 1,0 0,-5 -4,0Z"/>
<path onmouseover="hoverPath(evt)" onmouseout="recoverPath(evt)" fill="rgb(243,243,236)" d="M  31,103l -6,0 0,2 1,0 1,1 0,3 -1,1 -7,0 -1,1 -4,0 -1,1 -1,1 -1,0 -1,1 -3,0 -1,1 0,6 -1,1 -1,0 3,-1 0,0 1,-1 1,0 0,-2 1,-1 6,0 1,1 0,3 1,-2 7,0 1,1 3,0 1,1 3,0 1,1 1,1 1,0 1,1 0,1 1,1 1,1 1,1 0,1 1,1 1,1 0,1 1,0 1,1 0,1 1,1 0,1 1,1 1,0 1,1 0,2 1,1 4,0 1,1 1,1 1,1 0,2 1,0 1,1 1,1 1,1 0,1 1,1 1,1 1,1 0,1 1,1 1,1 1,0 1,-1 2,0 1,-1 2,0 1,-1 1,0 1,-1 2,0 1,-1 2,0 1,-1 2,0 1,-1 2,0 1,-1 2,0 1,-1 1,0 1,-1 2,0 1,-1 2,0 1,-1 2,0 1,-1 1,0 1,-1 2,0 1,-1 1,0 1,-1 2,0 1,-1 2,0 1,-1 1,0 1,-1 2,0 1,-1 1,0 1,-1 2,0 1,-1 2,0 1,-1 2,0 1,-1 2,0 1,-1 2,0 1,-1 2,0 1,-1 2,0 1,-1 3,0 1,-1 2,0 2,-2 2,0 1,-1 2,0 1,-1 2,0 1,-1 2,0 1,-1 2,0 1,-1 2,0 1,-1 2,0 1,-1 2,0 1,-1 2,0 1,-1 2,0 1,-1 1,0 1,-1 2,0 1,-1 2,0 1,-1 2,0 1,-1 2,0 1,-1 2,0 1,-1 4,0 1,-1 3,0 1,-1 2,0 1,-1 2,0 0,-1 -1,-1 0,-2 -1,-1 0,-1 -1,-1 0,-1 -1,-1 0,-2 -1,-1 0,-2 -1,-1 0,-2 -1,-1 0,-1 -1,-1 0,-2 -1,-1 0,-2 -1,-1 0,-1 -1,-1 -1,-1 -1,-1 -1,-1 -1,-1 -1,-1 -1,-1 -1,-1 -1,-1 -1,-1 -1,-1 -1,-1 -1,-1 0,-1 -1,0 -1,1 -1,0 -1,1 -1,0 -1,1 -7,0 -1,-1 0,-1 -1,-1 0,-1 -1,-1 0,-1 -1,-1 -1,-1 -1,-1 0,-1 -1,-1 0,-1 -1,-1 -1,0 -1,1 -1,0 -1,1 -1,1 -2,0 -1,1 -2,0 -1,1 -1,0 -1,1 -1,0 -1,1 -2,0 -1,1 -2,0 -1,-1 -1,0 0,2 -1,1 -1,1 0,1 -1,1 -1,1 -1,0 -1,1 -1,1 -2,0 -1,1 -3,0 -1,-1 -1,0 0,2 -1,1 -2,0 -1,-1 0,2 -1,1 -1,0 -1,1 -1,0 -1,1 -2,0 -1,1 -1,0 -1,1 -2,0 -1,1 -1,0 -1,1 -2,0 -1,1 -2,0 -1,1 -1,0 -1,1 -2,0 -1,-1 0,2 -1,1 -1,0 0,1 -1,1 -4,0 0,1 -1,1 -2,0 -1,-1 -1,-1 -1,1 0,1 -1,1 -2,0 -1,-1 -1,-1 -5,0 -1,-1 0,3 -1,1 -4,0 -1,1 -2,0 -1,1 -1,0 -1,1 -6,0 0,3 -1,1 -2,0 -1,-1 -1,-1 -2,0 -1,1 0,1 -1,1 -2,0 -1,-1 -10,0 -1,1 -2,0 0,1 -1,1Z"/>
<path onmouseover="hoverPath(evt)" onmouseout="recoverPath(evt)" fill="rgb(243,242,235)" d="M  59,91l 0,0 -1,1 -1,1 -3,0 0,3 1,0 1,1 1,1 0,-3 1,-1 6,0 1,-1 1,0 1,-1 2,0 1,-1 4,0 0,-3 1,-1 2,0 1,1 5,0 1,1 1,1 0,-1 1,-1 0,0 1,-1 2,0 1,1 1,1 0,-1 1,-1 4,0 0,-1 1,-1 1,0 0,-2 1,-1 2,0 1,1 1,-1 1,0 1,-1 2,0 1,-1 2,0 1,-1 1,0 1,-1 2,0 1,-1 1,0 1,-1 2,0 1,-1 1,0 1,-1 1,0 0,-2 1,-1 2,0 1,1 0,-2 1,-1 3,0 1,1 1,0 1,-1 2,0 1,-1 1,-1 1,0 1,-1 0,-1 1,-1 1,-1 0,-2 1,-1 2,0 1,-1 2,0 1,1 1,0 1,-1 1,0 0,-2 1,-1 2,0 1,1 1,0 1,-1 2,0 1,-1 0,-2 1,-1 2,0 1,1 2,0 1,1 1,1 0,1 1,1 0,1 1,1 1,1 1,1 0,1 1,1 0,1 1,1 0,1 5,0 1,-1 1,0 1,-1 1,0 1,-1 2,0 1,-1 1,-1 1,0 0,-1 -1,0 -1,1 -1,0 -1,1 -3,0 -1,-1 -1,-1 -1,-1 0,-1 -1,-1 -1,-1 -1,-1 -1,-1 -1,-1 0,-1 -1,-1 -1,-1 -1,-1 0,-1 -1,-1 0,-1 -1,-1 0,-1 -1,-1 -1,0 -1,1 -1,0 -1,1 -1,1 -2,0 -1,1 -2,0 -1,1 -2,0 -1,1 -3,0 -1,1 -2,2 -1,0 -1,1 -2,0 -1,1 -3,0 -1,1 -2,0 -1,1 -1,0 -1,1 -2,0 -1,1 -1,0 -1,1 -1,0 -1,1 -1,0 -1,1 -1,1 -1,0 -2,2 -1,0 -1,1 -2,0 -1,1 -1,1 -1,1 -1,0 -1,1 -2,0 -1,1 -3,0 -1,1 -2,0 -1,1 -2,0 -1,1 -2,0 -1,1 -1,0 -1,1 -2,0 -1,1 -2,0 -1,1 -1,0 -1,1 -1,0 -1,1 -2,0 -1,1 -2,0 -1,1 -2,0 -1,1 -1,0 -1,1 -3,0 -1,1 -1,0 -1,1 -1,1 -1,1 -1,0 -1,1 -1,0 -1,1 -2,0 -1,1 -1,1Z"/>
<path onmouseover="hoverPath(evt)" onmouseout="recoverPath(evt)" fill="rgb(170,198,237)" d="M  76,79l 0,0 -1,1 1,0 1,-1 2,0 1,-1 2,0 1,-1 2,0 1,-1 1,0 1,-1 1,0 1,-1 2,0 1,-1 2,0 1,-1 1,0 1,-1 2,0 1,-1 2,0 1,-1 2,0 1,-1 3,0 1,-1 2,0 1,-1 1,0 1,-1 1,-1 1,-1 2,0 1,-1 1,0 1,-1 1,-1 1,0 1,-1 1,-1 1,0 1,-1 1,0 1,-1 1,0 1,-1 2,0 1,-1 1,0 1,-1 2,0 1,-1 3,0 1,-1 2,0 1,-1 1,0 3,-3 3,0 1,-1 2,0 1,-1 2,0 1,-1 2,0 1,-1 1,-1 1,0 1,-1 3,0 1,1 1,1 0,1 1,1 0,1 1,1 0,1 1,1 1,1 1,1 0,1 3,3 1,1 1,1 0,1 1,1 1,1 1,0 1,-1 1,0 0,-1 -1,-1 0,0 -1,-1 -1,-1 -1,-1 -1,-1 -1,-1 -1,-1 0,-1 -3,-3 0,-1 -1,-1 0,-1 -1,-1 0,-1 -1,-1 -1,-1 0,-2 -1,-1 0,-2 -1,-1 0,-1 -1,-1 -1,-1 0,-1 -1,-1 0,-3 1,-1 -3,0 -1,-1 -1,-1 -1,-1 0,-2 -1,-1 -1,0 -2,-2 -1,-1 -1,-1 0,-1 -1,-1 -1,-1 -1,-1 -1,-1 -1,-1 -1,-1 -1,0 -1,-1 0,4 1,1 0,0 1,1 1,1 1,1 1,1 1,1 1,1 1,1 1,1 1,1 1,1 1,1 0,1 1,1 1,1 1,1 1,1 0,1 1,1 1,1 0,1 1,1 0,1 1,1 0,3 -1,1 0,1 -93,39 91,-38 -2,1 -1,0 -1,1 -2,0 -1,1 -2,0 -1,1 -1,0 -1,1 3,-1 6,-2 -13,4 -1,0 -1,1 -2,0 -1,1 -1,0 -1,1 -2,0 -1,1 -2,0 -1,1 -2,0 -1,1 -2,0 -1,1 -1,0 -1,1 -1,0 -1,1 -1,0 -1,1 -1,0 -1,1 -1,0 -1,1 -1,1 -2,0 -1,1 -1,0 -1,1 -1,0 -1,1 -1,1 -1,1 -2,0 -1,1 -1,0 -1,1 -2,0 -1,1 -1,0 -1,1 -2,0 -1,1 -2,0 -1,1 -1,0 -1,1 -2,0 -1,1 -2,0 -1,1 -2,0 -1,1 -2,0 -1,1 -1,0 -1,1 -1,0 -1,1 1,0 88,-37 -91,38 -2,1 -2,0 -1,1 -1,0 -1,1 -2,0 -1,1 -1,0 -1,1 0,2 1,-1 1,0 1,-1 1,-1 -1,0 3,-1 2,-1 1,0 1,-1 2,-1Z"/>
<path onmouseover="hoverPath(evt)" onmouseout="recoverPath(evt)" fill="rgb(243,242,234)" d="M  172,26l 0,0 -1,1 0,1 1,1 0,1 1,1 1,1 0,1 1,1 0,2 1,1 0,2 1,1 1,1 0,1 1,1 0,1 1,1 0,1 1,1 1,1 1,1 0,1 1,1 1,1 1,1 1,1 1,1 1,1 1,1 0,1 1,0 1,-1 2,0 1,1 1,0 1,-1 0,-4 -1,-1 0,-1 -1,-1 0,-5 1,-1 0,-1 -2,0 -1,-1 0,-2 -1,-1 0,-6 1,-1 1,0 1,-1 3,0 1,1 0,-2 1,-1 2,0 1,-1 2,0 1,-1 1,0 1,-1 1,-1 1,0 1,-1 3,0 1,-1 2,0 1,-1 3,0 1,-1 2,0 1,-1 3,0 1,-1 3,0 1,-1 1,0 1,-1 4,0 1,1 1,0 0,-2 1,-1 3,0 1,1 1,0 0,-2 1,-1 3,0 1,-1 3,0 0,-6 -4,0 -1,1 -3,0 -1,1 -2,0 -1,1 -2,0 -1,1 -2,0 -1,1 -7,0 -1,1 -2,0 -1,1 -2,0 -1,1 -1,0 -1,1 -2,0 -1,1 -2,0 -1,1 -3,0 -1,1 -5,0 -1,1 -5,0 -1,1 -7,0 -1,1 -2,0 -1,1 -4,0 -1,1 -3,0 -1,1 -1,0 -1,1 -4,0 -1,1Z"/>
<path onmouseover="hoverPath(evt)" onmouseout="recoverPath(evt)" fill="rgb(173,199,237)" d="M  187,19l -3,0 -1,1 -1,0 -1,1 -3,0 -1,1 -2,0 -1,1 2,0 2,-1 4,-1 2,-1 2,0 1,-1 5,-2 0,1 6,0 1,-1 5,0 1,-1 5,0 1,-1 3,0 1,-1 2,0 1,-1 2,0 1,-1 1,0 1,-1 2,0 1,-1 2,0 1,-1 7,0 1,-1 2,0 1,-1 2,0 1,-1 2,0 1,-1 3,0 1,-1 5,0 0,-4 -3,0 0,2 -1,1 -5,0 -1,1 -3,0 -1,1 -1,0 -1,1 -3,0 -1,1 -3,0 -1,1 -4,0 -1,1 -2,0 -1,1 -2,0 -1,1 -2,0 -1,1 -3,0 -1,1 -3,0 -1,1 -3,0 -1,1 -3,0 -1,1 -4,0 -1,1 -4,0 -5,2Z"/>
</svg>