<svg width="256" height="256" xmlns="http://www.w3.org/2000/svg"><script> 
var tempColor;
function hoverPath(evt){
obj = evt.target;
tempColor = obj.getAttribute("fill");
obj.setAttribute("fill","red");
//alert(tempColor);
//obj.setAttribute("stroke","red");}
function recoverPath(evt){
obj = evt.target;
obj.setAttribute("fill", tempColor);
//obj.setAttribute("stroke", tempColor);
}</script><path onmouseover="hoverPath(evt)" onmouseout="recoverPath(evt)" fill="rgb(241,241,235)" d="M  0,192l 0,7 2,0 1,1 1,1 0,1 1,1 1,1 1,1 0,2 1,0 1,1 1,1 0,1 1,1 1,1 1,1 1,1 1,1 0,-2 1,-1 2,0 1,1 1,0 1,1 0,-1 1,-1 1,0 1,-1 3,0 1,1 1,0 1,1 1,1 1,1 1,1 1,1 1,1 1,1 1,1 1,1 1,1 1,1 0,1 1,0 1,1 1,0 1,-1 2,0 1,1 1,-1 2,0 1,-1 1,0 1,-1 1,-1 1,0 -1,-1 0,-2 -1,-1 -1,-1 -1,-1 -1,-1 0,-1 -1,-1 -1,-1 -1,-1 -1,-1 -1,-1 0,-2 1,-1 0,-1 -1,0 -1,-1 -1,-1 -1,-1 -1,-1 -1,-1 0,-1 -1,-1 -1,-1 -1,-1 -1,-1 0,-2 -1,0 -1,-1 -1,-1 -1,-1 -1,-1 0,-2 -1,0 -1,-1 -1,-1 -1,-1 -2,0 -1,-1 -1,-1 -2,0 -1,-1 0,-1 -1,-1 0,-1 -1,-1 0,-1 -1,0 -1,-1 0,-1 -1,-1 -1,-1 -1,-1 -1,-1 -1,-1 0,1 -1,1 -1,0 -1,1 -1,0 -1,1 -1,0 -1,1 -1,0 -1,1 -2,0Z"/>
<path onmouseover="hoverPath(evt)" onmouseout="recoverPath(evt)" fill="rgb(243,242,233)" d="M  115,232l 0,1 1,1 1,1 2,2 1,1 1,1 1,1 1,0 1,1 1,1 1,1 1,0 1,1 1,0 1,1 1,1 2,0 1,1 4,0 1,-1 1,0 1,-1 1,0 1,-1 1,0 1,-1 1,-1 1,0 1,-1 1,0 1,-1 1,0 0,-1 1,-1 2,0 1,-1 1,0 1,-1 1,-1 -1,-1 -1,0 -1,1 -1,1 -1,0 -1,1 -1,0 -1,1 -5,0 -1,-1 -1,-1 -1,-1 -1,-1 0,-1 -1,-1 -1,-1 -1,0 -1,-1 0,-2 -1,-1 -1,-1 -1,-1 -1,0 -1,-1 0,-2 -1,-1 -1,-1 -1,0 -1,-1 0,-1 -1,-1 0,-1 -1,-1 -1,-1 -1,1 0,0 -1,1 -1,1 -1,1 -2,0 0,1 -1,1 -1,0 -1,1 -1,1 -1,0 -1,1 -1,1 -1,0 3,-1 5,0 1,1 1,0 1,1 1,0 1,1 0,2 -1,1 -1,1 -2,0 -1,1 -3,0 -1,1Z"/>
<path onmouseover="hoverPath(evt)" onmouseout="recoverPath(evt)" fill="rgb(253,253,252)" d="M  154,144l -1,0 -1,1 1,1 0,1 2,0 1,-1 1,0 1,-1 1,0 1,-1 1,0 1,-1 1,0 1,-1 1,0 1,-1 2,0 1,1 1,0 1,-1 0,-2 1,-1 1,0 1,-1 1,-1 1,0 1,-1 1,0 1,-1 3,0 1,1 0,1 1,1 1,1 0,-1 -1,-1 0,-4 1,-1 1,0 1,-1 1,0 1,-1 1,0 1,-1 1,-1 1,0 1,-1 1,0 1,-1 1,0 1,-1 3,0 1,1 1,-1 1,0 1,-1 1,0 1,-1 1,0 1,-1 1,0 0,-3 1,-1 2,0 1,-1 1,-1 1,0 1,-1 1,0 1,-1 1,0 1,-1 1,0 1,-1 1,0 1,-1 1,0 1,-1 4,0 1,1 0,1 1,1 0,2 1,1 1,1 -1,-5 0,-1 -1,0 -1,-1 0,-2 1,-1 1,-1 1,0 1,-1 1,0 1,-1 1,0 1,-1 1,0 1,-1 1,0 1,-1 1,0 1,-1 1,0 1,-1 1,0 1,-1 1,-1 1,0 1,-1 2,0 0,-4 -1,0 -1,1 -1,0 -1,1 -1,0 -1,1 -1,0 -1,1 -1,0 -1,1 -1,0 -1,1 -1,0 -1,1 -1,1 -1,0 -1,1 -1,0 -1,1 -1,0 -1,1 -1,0 -1,1 -1,0 -1,1 -1,0 -1,1 -1,0 -1,1 -1,0 -1,1 -1,1 -1,0 -1,1 -1,0 -1,1 -1,0 -1,1 -1,0 -1,1 -1,0 -1,1 -1,0 -1,1 -1,0 -1,1 -1,0 -1,1 -1,0 -1,1 -1,1 -1,0 -1,1 -1,0 -1,1 -1,0 -1,1 -1,0 -1,1 -1,0 -1,1 -1,0 -1,1 -1,0 -1,1 -1,0 -1,1 -1,0 -1,1 -1,1 -1,0 -1,1 -1,0 -1,1 -1,0 -1,1 -1,0 -1,1 -1,0 -1,1 -1,0 -1,1 -1,0 -1,1 -1,0 -1,1 -1,0 -1,1 -1,0 -1,1 -1,1 -1,0 -1,1 -1,0 -1,1 -1,0 -1,1 -1,0 -1,1 -1,0 -1,1Z"/>
<path onmouseover="hoverPath(evt)" onmouseout="recoverPath(evt)" fill="rgb(253,253,252)" d="M  198,208l 0,1 1,0 1,-1 0,0 1,-1 1,0 1,-1 1,0 1,-1 1,0 1,-1 1,-1 1,0 1,-1 1,0 1,-1 1,-1 1,0 1,-1 1,0 1,-1 1,0 1,-1 1,-1 1,0 1,-1 1,0 1,-1 1,0 1,-1 1,-1 1,0 1,-1 1,0 1,-1 1,0 1,-1 1,-1 2,0 1,1 0,-2 1,-1 1,0 1,-1 1,0 1,-1 1,0 1,-1 1,-1 1,0 1,-1 1,0 1,-1 1,-1 1,0 1,-1 3,0 0,-2 -2,0 -1,1 -3,0 0,1 -1,1 -1,1 -1,0 -1,1 -1,0 -1,1 -1,0 -1,1 -1,1 -2,0 -1,-1 0,2 -1,1 -1,0 -1,1 -1,1 -1,0 -1,1 -1,0 -1,1 -1,0 -1,1 -1,1 -1,0 -1,1 -1,0 -1,1 -1,0 -1,1 -1,1 -1,0 -1,1 -1,0 -1,1 -1,1 -1,0 -1,1 -1,0 -1,1 -1,1 -1,0 -1,1 -1,0 -1,1 -1,0 -1,1 -1,1 -1,0 -1,1 -1,0 -1,1Z"/>
<path onmouseover="hoverPath(evt)" onmouseout="recoverPath(evt)" fill="rgb(242,241,234)" d="M  206,216l -1,0 1,1 0,0 1,1 0,1 1,1 1,1 1,1 0,1 1,1 1,1 1,1 0,2 1,0 1,1 1,1 0,1 1,1 1,1 0,2 1,0 1,1 1,1 0,1 1,1 0,1 1,1 1,1 0,1 1,0 1,-1 1,0 1,-1 1,0 1,-1 -2,0 -1,-1 -1,-1 0,-2 1,-1 -1,-1 0,-3 1,-1 1,-1 0,-2 1,-1 2,0 1,1 1,-1 1,0 1,-1 1,0 1,-1 4,0 1,1 0,-3 1,-1 -3,0 -1,-1 -2,0 -1,-1 -1,-1 0,-2 1,-1 -1,-1 0,-3 1,-1 0,-2 1,-1 1,0 1,-1 2,0 1,1 1,0 1,-1 1,0 0,-2 1,-1 2,0 1,1 1,-1 0,0 -1,-1 0,-5 1,-1 2,0 1,1 2,0 0,-9 -1,0 -1,1 0,0 -1,1 -1,0 -1,1 -1,0 -1,1 -1,0 -1,1 -1,1 -1,0 -1,1 -1,0 -1,1 -1,0 -1,1 -1,1 -1,0 -1,1 -1,0 -1,1 -1,0 -1,1 -1,1 -1,0 -1,1 -1,0 -1,1 -1,1 -1,0 -1,1 -1,0 -1,1 -1,0 -1,1 -1,0 -1,1 -1,1 -1,0 -1,1 -1,0 -1,1 -1,0 -1,1 -1,1 -1,0 -1,1 -1,0 -1,1Z"/>
<path onmouseover="hoverPath(evt)" onmouseout="recoverPath(evt)" fill="rgb(171,198,236)" d="M  16,110l 0,0 -1,-1 -1,0 -1,-1 0,-3 -1,-1 0,-2 -1,-1 -1,-1 -1,-1 -1,-1 0,-1 -1,-1 -1,-1 0,-1 -1,-1 -1,-1 -1,-1 0,-1 -1,-1 -1,-1 0,-1 -1,0 0,20 2,0 1,1 1,1 0,1 1,1 0,3 3,0 1,1 0,1 1,1 1,1 0,3 1,0 1,1 1,1 1,1 1,1 0,1 1,1 0,2 1,1 1,1 0,1 1,1 0,1 2,2 0,1 1,1 0,1 2,2 0,1 1,1 0,1 1,1 1,1 0,1 1,1 0,2 1,1 0,1 1,1 1,1 1,1 1,1 1,1 1,1 1,1 0,1 1,1 1,1 0,1 1,1 0,5 -1,1 -1,1 -1,1 -1,1 -5,0 -1,1 -3,0 -1,1 -1,0 0,1 1,1 0,0 1,-1 1,0 1,-1 3,0 1,-1 3,0 1,-1 1,0 1,-1 1,0 2,-2 1,-1 1,-1 3,0 1,1 1,1 1,1 0,1 1,1 1,1 1,1 0,1 1,1 1,1 1,1 1,1 0,1 1,1 2,2 1,1 0,1 1,1 1,1 1,1 1,1 0,1 1,1 1,1 1,1 0,1 1,1 1,1 1,1 1,1 0,1 1,1 0,3 1,1 0,1 1,1 0,2 -1,1 0,1 6,0 1,1 1,1 1,1 1,1 1,1 0,1 1,1 1,1 1,1 1,1 1,1 1,1 0,1 1,1 1,1 1,1 1,1 1,1 1,1 0,1 1,1 1,1 1,1 1,1 1,1 1,1 0,1 1,1 0,4 1,1 0,1 2,2 1,1 1,1 1,1 1,0 1,1 0,1 1,1 0,2 35,0 -1,-1 -2,0 -1,-1 -1,0 -1,-1 0,-2 1,-1 1,0 1,-1 1,0 1,-1 1,0 1,-1 1,0 1,-1 1,-1 1,0 1,-1 1,0 1,-1 1,0 1,-1 1,-1 1,0 1,-1 1,0 1,-1 1,-1 1,0 1,-1 1,0 1,-1 1,0 1,-1 1,-1 1,0 1,-1 1,0 1,-1 1,0 1,-1 1,-1 1,0 1,-1 1,0 1,-1 1,0 1,-1 1,-1 1,0 1,-1 1,0 1,-1 1,0 1,-1 1,-1 1,0 1,-1 1,0 -1,-1 0,0 -1,-1 -1,0 -1,1 -1,0 -1,1 -1,0 -1,1 -1,1 -1,0 -1,1 -1,0 -1,1 -1,1 -1,0 -1,1 -1,0 -1,1 -1,0 -1,1 -1,1 -1,0 -1,1 -1,0 -1,1 -1,0 -1,1 -1,1 -1,0 -1,1 -1,1 -2,0 -1,1 -1,0 -2,2 -1,1 -1,0 -1,1 -2,0 0,1 -1,1 -1,0 -1,1 -1,0 -1,1 -1,0 -1,1 -1,1 -1,0 -1,1 -1,0 -1,1 -1,0 -1,1 -6,0 -1,-1 -2,0 -1,-1 -1,-1 -1,0 -1,-1 -1,0 -1,-1 -1,-1 -1,-1 -1,0 -1,-1 -1,-1 -1,-1 -1,-1 -1,-1 -1,-1 -1,-1 -1,-1 0,-4 1,-1 4,0 1,-1 2,0 1,-1 -1,0 -1,-1 -1,0 -1,-1 -4,0 -1,1 -3,0 -1,-1 0,-2 1,-1 1,0 1,-1 1,-1 1,0 1,-1 1,-1 1,0 0,-1 1,-1 2,0 2,-2 1,-1 0,-1 -1,-1 0,1 -1,1 0,0 -1,1 -1,1 1,0 1,-1 1,-1 -5,3 -1,1 -1,0 -1,1 -1,0 -1,1 -1,0 -1,1 -5,0 -1,-1 -1,-1 -1,-1 -1,-1 -1,0 -1,-1 -1,0 -1,-1 -1,-1 -1,0 -1,-1 -1,-1 -1,-1 0,-2 1,-1 4,0 1,1 1,0 1,1 1,1 1,0 1,-1 0,0 1,-1 1,0 1,-1 1,0 -1,-1 0,0 -1,-1 -1,-1 -1,-1 0,-1 -1,-1 -1,-1 -1,-1 -1,-1 0,-1 -1,-1 -1,-1 -1,-1 0,-1 -1,-1 0,-3 1,-1 1,0 1,-1 4,0 1,1 1,1 1,1 -5,-4 0,-1 -1,-1 -1,-1 -1,0 -1,-1 0,-2 -1,-1 -1,0 -1,-1 -1,-1 0,-2 -1,-1 -1,-1 0,-5 1,-1 2,0 1,-1 1,-1 1,0 1,-1 1,0 1,-1 1,-1 1,0 0,-1 -1,-1 0,0 -1,-1 -1,1 -2,0 0,1 -1,1 -1,0 -1,1 -1,0 -1,1 -1,0 -1,1 -3,0 0,1 -1,1 -2,0 -1,-1 -1,-1 0,-2 1,-1 1,-1 3,0 0,-1 1,-1 1,0 1,-1 1,0 1,-1 -3,0 -1,-1 -1,1 -1,0 0,1 -1,1 -2,0 -1,-1 0,-1 -1,-1 -1,0 -1,-1 -2,0 -1,-1 -2,0 -1,-1 -4,0 -1,-1 -4,0 -1,1 -4,0 -1,1 -1,0 -1,1 0,2 1,0 1,1 13,0 1,1 1,0 1,1 1,1 1,1 0,1 1,1 0,5 1,1 0,6 6,0 0,-2 1,-1 2,0 1,1 0,5 -1,1 0,1 -1,1 0,9 -1,1 -2,0 -1,-1 0,-3 -1,-1 -1,0 -1,-1 -5,0 -1,-1 -1,0 -1,-1 -1,-1 -1,-1 0,-1 -1,-1 -2,-2 -1,-1 0,-1 -1,-1 -1,-1 -1,-1 -1,-1 0,-1 -1,-1 -1,-1 -1,-1 -1,-1 0,-1 -1,-1 0,-1 -1,-1 0,-1 -1,-1 -1,-1 0,-1 -1,-1 -1,-1 -1,-1 0,-1 -1,-1 -1,-1 -1,-1 -1,-1 0,-1 -1,-1 -1,-1 -1,-1 0,-1 -1,-1 -1,-1 0,-1 -1,-1 -1,-1 0,-1 -1,-1 -1,-1 0,-1 -1,-1 -1,-1 -1,-1 0,-1 -1,-1 -1,-1 0,-1 -1,-1 0,-1 -1,-1 -1,-1 0,-1 -1,-1 0,-1 -1,-1 0,-1 -1,0 -1,-1 0,-3 -2,0 -1,-1 -1,-1 0,-1 -1,-1 -1,0 -1,-1 -1,-1Z"/>
<path onmouseover="hoverPath(evt)" onmouseout="recoverPath(evt)" fill="rgb(241,240,232)" d="M  58,0l -1,0 0,2 1,1 0,1 1,1 1,1 0,1 1,1 1,1 1,1 0,1 1,1 1,1 1,1 1,0 1,1 0,1 1,1 0,1 1,1 1,1 1,1 3,0 1,-1 4,0 1,-1 3,0 1,-1 2,0 1,-1 1,0 1,-1 1,0 1,-1 1,0 1,-1 1,0 1,-1 1,0 1,-1 1,0 1,-1 1,0 1,-1 1,0 1,-1 1,-1 1,0 1,-1 1,-1 1,0 1,-1 1,-1 2,0 1,-1 0,-3Z"/>
<path onmouseover="hoverPath(evt)" onmouseout="recoverPath(evt)" fill="rgb(232,232,225)" d="M  98,52l 0,0 1,1 1,-1 2,0 1,-1 2,0 1,-1 2,0 0,-2 1,-1 2,0 1,1 1,0 1,-1 1,0 1,-1 2,0 1,-1 1,0 1,-1 1,0 1,-1 1,0 1,-1 1,0 1,-1 2,0 1,-1 1,0 0,-2 1,-1 1,0 1,-1 2,0 1,1 1,-1 1,0 -1,-1 0,0 -1,-1 0,-1 -1,-1 -2,-2 0,-1 -1,-1 -1,-1 0,-1 -1,-1 -1,-1 -1,-1 0,-1 -1,0 0,2 -1,1 -1,1 -3,0 -1,-1 -1,0 -1,-1 0,-1 -1,-1 0,-1 -1,0 -1,-1 -1,0 -1,-1 0,-3 -1,-1 0,-1 -1,-1 0,-3 -1,1 -1,0 -1,1 -1,1 -1,0 -1,1 -1,0 -1,1 -1,0 -1,1 -1,0 -1,1 -1,0 -1,1 -1,0 -1,1 -1,0 -1,1 -1,0 -1,1 -1,0 -1,1 -1,0 -1,1 -1,1 -1,1 0,1 -1,1 -1,0 -1,1 -1,1 -1,1 0,1 -1,1 1,1 1,1 0,3 -1,1 0,5 1,1 2,0 1,1 0,1 1,1 1,1 1,1 1,0 1,1 0,2 1,1 1,0 1,-1 4,0 16,-43 5,0 1,1 1,1 0,2 1,1 0,1 1,0 0,-8 -1,-1 0,-1 -1,-1 -3,0 0,1 -1,1 -1,1 -1,0 -1,1 0,1 -16,43Z"/>
<path onmouseover="hoverPath(evt)" onmouseout="recoverPath(evt)" fill="rgb(237,238,234)" d="M  116,195l 0,0 1,1 1,0 1,1 0,2 1,1 1,1 1,1 1,1 1,1 0,1 1,1 0,-2 -1,-1 0,-2 1,-1 2,0 1,1 1,1 1,1 1,0 1,-1 1,0 1,-1 2,0 1,-1 1,0 1,-1 1,0 1,-1 1,0 1,-1 1,0 0,-2 -1,-1 0,0 -1,-1 -1,-1 0,-1 -1,-1 0,-3 1,-1 1,-1 1,-1 1,0 1,-1 1,-1 1,0 1,-1 1,-1 1,-1 1,0 1,-1 1,-1 6,0 1,1 1,0 1,1 1,1 1,0 1,1 1,1 -3,-3 0,-1 -1,-1 -1,-1 -1,-1 0,-1 -1,-1 -1,-1 -1,-1 0,-1 -1,-1 -2,0 -1,-1 -1,-1 0,-1 -1,-1 -1,-1 -1,-1 0,-3 -1,-1 0,-1 -1,-1 -3,0 -1,-1 -1,1 -1,0 -1,1 -1,0 -1,1 -1,0 -1,1 -1,0 -1,1 -3,0 -1,1 -1,0 -1,1 -1,0 -1,1 -1,0 -1,1 -1,0 -1,1 -1,0 -1,1 -1,0 -1,1 -1,0 -1,1 -1,0 -1,1 -1,0 -1,1 -2,0 -1,1 -1,0 -1,1 -1,0 -1,1 -1,0 0,2 -1,1 -2,0 1,1 0,1 1,1 1,0 1,1 0,1 1,1 1,1 0,1 1,1 1,1 1,1 1,1 1,0 1,1 0,1 1,1 0,1 1,1 1,1Z"/>
<path onmouseover="hoverPath(evt)" onmouseout="recoverPath(evt)" fill="rgb(244,243,235)" d="M  132,209l 0,0 -1,1 -2,0 1,1 0,1 1,1 1,1 1,1 1,0 1,1 0,2 1,1 1,1 1,1 1,0 1,1 0,2 1,1 1,1 1,0 1,1 0,2 1,1 1,1 1,1 2,0 0,-2 1,-1 1,0 1,-1 2,0 1,1 1,-1 1,0 1,-1 1,0 1,-1 1,0 1,-1 1,0 1,-1 1,0 1,-1 0,-2 1,-1 2,0 1,1 1,-1 0,-2 1,-1 2,0 1,1 1,-1 0,0 1,-1 1,0 0,-2 1,-1 1,0 1,-1 1,0 1,-1 2,0 1,1 1,-1 1,0 0,-1 -2,0 -1,-1 -1,-1 0,-1 -1,-1 -1,-1 0,-2 -1,0 -1,-1 -1,-1 0,-1 -1,-1 -1,-1 -1,-1 0,-1 -1,-1 -1,-1 0,-2 -1,0 -1,-1 -1,-1 0,-2 -1,0 -1,-1 -1,-1 0,-1 -1,-1 1,3 -1,1 -1,1 -1,1 -1,0 -1,1 -1,1 -1,0 -1,1 -1,1 -1,0 -1,1 -1,1 -1,0 -1,1 -1,1 -1,0 -1,1 -1,1 -1,0 -1,1 -2,0 -1,1 -1,0 -1,1 -1,0 -1,1 -1,1 -1,0 -1,1 -1,0 -1,1 -1,0 -1,1 -1,0 -1,1Z"/>
<path onmouseover="hoverPath(evt)" onmouseout="recoverPath(evt)" fill="rgb(241,240,233)" d="M  165,161l 0,2 1,0 1,1 1,1 0,2 1,0 1,1 1,1 0,2 1,0 1,1 1,1 0,2 1,0 2,2 0,2 2,0 1,-1 0,-1 1,-1 2,0 1,-1 1,-1 1,0 0,-1 1,-1 1,0 1,-1 0,-3 1,-1 1,-1 0,-1 -1,-1 -3,0 -1,-1 0,-2 1,-1 1,-1 1,0 1,-1 4,0 0,-3 -1,-1 -1,-1 -1,-1 0,-1 -1,-1 0,-1 -1,-1 -1,-1 0,-1 -1,-1 -1,-1 0,-2 1,-1 -1,-1 -2,0 -1,-1 -1,-1 -1,-1 0,-1 -1,0 -1,1 -1,0 -1,1 -1,0 -2,2 -1,0 0,2 -1,1 -1,1 -3,0 -1,-1 -1,1 -1,0 -1,1 -1,0 -1,1 -1,0 -1,1 -1,0 -1,1 -1,0 -1,1 -1,0 0,2 1,1 2,0 1,1 1,-1 1,0 1,-1 0,-1 1,-1 1,0 1,-1 1,-1 1,0 1,-1 1,-1 1,0 -3,-1 0,0 -2,17 7,-17 0,0 1,-1 1,-1 3,0 1,1 1,1 0,4 -1,1 -1,0 -1,1 -1,1 -4,4 -1,0 -1,1 -1,1 -1,1 0,1 -1,1 -1,0 7,-16 -7,17 30,-3 0,2 1,1 1,0 0,-1 -1,-1 0,1 -1,-2 -30,3Z"/>
<path onmouseover="hoverPath(evt)" onmouseout="recoverPath(evt)" fill="rgb(242,241,235)" d="M  29,178l -1,0 -1,1 1,1 0,1 1,1 1,1 1,1 1,0 1,1 0,2 1,1 1,1 1,1 1,0 1,1 0,2 1,1 1,1 1,1 1,1 0,1 1,1 1,1 1,1 1,1 1,0 1,1 0,2 2,2 1,1 1,1 1,0 1,1 0,2 1,1 1,1 1,1 1,1 1,1 1,0 1,1 5,0 1,-1 1,-1 1,0 1,-1 1,-1 1,-1 0,-4 1,-1 -1,-1 0,-1 -1,-1 0,-3 -1,-1 0,-1 -1,-1 -1,-1 -1,-1 -1,-1 0,-1 -1,-1 -2,-2 0,-1 -1,-1 -1,-1 -1,-1 -1,-1 0,-1 -1,-1 -1,-1 -1,-1 -1,-1 0,-1 -1,-1 -1,-1 -1,-1 -1,-1 0,-1 -1,-1 -1,-1 -1,-1 0,-1 -1,-1 -1,-1 -1,0 -1,1 -1,1 -1,1 -1,1 -1,0 -1,1 -1,0 -1,1 -3,0 -1,1 -3,0 -1,1Z"/>
<path onmouseover="hoverPath(evt)" onmouseout="recoverPath(evt)" fill="rgb(236,238,234)" d="M  188,139l 0,0 1,1 0,2 -1,1 1,1 1,1 0,1 1,1 1,1 0,1 1,1 0,1 1,1 1,1 3,0 1,1 2,0 1,1 1,1 1,0 1,-1 1,0 1,-1 -1,-1 0,-1 -1,-1 0,-2 1,-1 1,-1 1,0 0,-1 1,-1 1,-1 1,0 0,-1 1,-1 1,-1 3,0 1,1 1,0 1,1 1,0 1,1 1,0 1,1 1,-1 1,0 1,-1 2,0 1,-1 2,0 1,1 1,0 0,-1 1,-1 2,0 0,-1 -1,-1 0,-4 -5,0 -1,-1 0,-2 1,-1 1,-1 1,-1 1,-1 7,0 1,1 0,1 1,0 1,1 3,0 0,-1 -1,-1 0,0 -1,-1 -1,-1 -1,0 -1,-1 0,-1 -1,-1 0,-1 -1,-1 0,-1 -1,-1 -1,-1 -1,-1 -2,0 -1,-1 -1,-1 -1,-1 0,-2 -1,-1 0,-1 -2,0 -1,1 -1,0 -1,1 -1,0 -1,1 -1,0 -1,1 -1,0 -1,1 -1,0 -1,1 -1,0 -1,1 -1,1 -2,0 0,3 -1,1 -1,0 -1,1 -1,0 -1,1 -1,0 -1,1 -1,0 -1,1 -2,0 -1,-1 -1,0 -1,1 -1,0 -1,1 -1,0 -1,1 -1,0 -1,1 -1,1 -1,0 -1,1 -1,0 -1,1 -1,0 0,2 1,1 0,2 1,1Z"/>
<path onmouseover="hoverPath(evt)" onmouseout="recoverPath(evt)" fill="rgb(239,239,233)" d="M  26,115l 0,4 1,0 1,1 0,1 1,1 0,1 1,1 0,1 1,1 1,1 0,1 1,1 0,1 1,1 1,1 0,1 1,1 1,1 1,1 0,1 1,1 1,1 0,1 1,1 1,1 0,1 1,1 1,1 0,1 1,1 1,1 1,1 0,1 1,1 2,2 1,1 0,1 1,1 1,1 0,-3 1,-1 1,-1 1,0 1,-1 4,0 1,-1 6,0 1,1 4,0 1,1 2,0 1,1 2,0 1,1 1,0 1,1 1,1 0,1 1,-2 1,0 0,-1 -1,0 -1,-1 -1,-1 -1,-1 -1,-1 0,-1 -1,-1 0,-1 -1,-1 0,-2 1,-1 -1,-1 -2,0 -1,-1 -1,-1 0,-2 1,-1 -1,-1 -2,0 -1,-1 0,-1 -1,-1 0,-2 1,-1 -1,-1 0,-1 -1,-1 -2,0 -1,-1 0,-2 1,-1 -1,-1 -2,0 -1,-1 0,-1 -1,-1 0,-2 1,-1 -1,-1 -2,0 -1,-1 0,-1 -1,-1 0,-2 1,-1 -1,-1 0,-4 1,-1 0,-1 1,-1 1,-1 1,-1 0,-1 -1,-1 0,-2 1,-1 2,0 1,1 1,0 1,-1 0,-3 1,-1 1,0 1,-1 1,-1 1,-1 1,0 2,-2 -1,0 -1,1 -2,1 -1,0 -1,1 -1,1 -1,0 -1,1 -1,0 -1,1 -1,0 -1,1 0,1 -36,22 34,-20 -1,0 -1,-1 -1,-1 0,-4 -2,0 -1,-1 0,-1 -2,0 -1,-1 0,-1 -1,-1 -1,-1 0,-3 -2,0 -1,-1 -2,0 -1,-1 0,-5 -1,1 0,2 -1,1 0,2 1,0 1,1 0,9 1,0 1,1 0,4 -1,1 -1,1 -1,1 -4,0 -1,-1 0,-5 -1,-1 -2,0 0,3 -1,1 0,3 -1,1 -1,0 -1,1 2,0 1,1 0,6 1,1 0,3 -1,1 -2,0 -1,1 -4,0 0,2 34,-19 -34,20Z"/>
<path onmouseover="hoverPath(evt)" onmouseout="recoverPath(evt)" fill="rgb(233,236,235)" d="M  82,83l -1,1 -2,0 -1,-1 -1,1 0,2 -1,1 -2,2 -1,0 -1,1 -1,1 -1,1 -1,0 0,3 -1,1 7,0 1,1 1,0 1,1 1,1 1,1 1,1 3,0 1,1 0,2 -1,1 1,1 0,1 1,1 1,1 2,0 1,1 0,2 -1,1 1,1 2,0 1,1 1,1 0,2 -1,1 1,1 2,0 1,1 1,1 0,2 -1,1 1,1 2,0 1,1 0,2 -1,1 1,1 3,0 1,1 0,1 1,0 1,-1 0,0 1,-1 1,-1 1,-1 1,0 0,-14 -1,-1 0,0 -1,-1 0,-1 -1,0 -1,-1 -1,-1 -1,-1 -1,-1 -1,-1 0,-5 1,-1 2,0 -1,-1 -1,-1 0,-2 -1,0 -1,-1 -1,-1 -1,-1 0,-1 -1,-1 -1,-1 0,-1 -1,-1 -1,-1 -1,-1 0,-1 -1,-1 -1,-1 -1,-1 0,-1 -1,-1 -1,-1 -1,-1 -1,-1 -1,0 -1,1 -1,0 -1,1 -1,1 -1,0 0,2 25,19 1,1 -1,-2 0,1 -25,-19Z"/>
<path onmouseover="hoverPath(evt)" onmouseout="recoverPath(evt)" fill="rgb(203,210,195)" d="M  82,51l 0,6 2,0 0,-1 1,-1 1,-1 0,-2 1,-1 2,0 -2,-1 0,0 -1,-1 -2,-2 0,-1 -2,0 -1,-1 -1,-1 0,-5 -1,0 -1,-1 0,-1 -1,-1 -1,-1 -1,0 -1,1 -1,0 -1,1 1,1 0,1 1,1 1,1 1,1 0,3 1,1 0,3 4,0 1,1Z"/>
<path onmouseover="hoverPath(evt)" onmouseout="recoverPath(evt)" fill="rgb(246,247,245)" d="M  95,67l 0,1 1,1 0,1 1,1 1,-1 2,0 1,1 0,-2 1,-1 1,0 1,-1 1,-1 1,0 1,-1 1,0 1,-1 1,0 1,-1 2,0 1,1 0,-2 1,-1 1,0 1,-1 1,-1 1,0 1,-1 2,0 1,1 1,0 1,1 1,-1 1,0 1,-1 1,-1 1,0 1,-1 0,-3 1,-1 1,0 1,-1 1,0 1,-1 2,0 1,1 1,1 2,-2 1,0 1,-1 1,0 1,-1 2,0 1,-1 1,0 2,-2 1,-1 2,0 1,-1 1,-1 1,0 -2,-1 0,-2 1,-1 3,0 0,-1 1,-1 1,0 1,-1 1,0 1,-1 1,0 1,-1 1,-1 1,0 1,-1 1,0 1,-1 1,0 2,-2 1,0 1,-1 2,0 1,1 0,-2 1,-1 1,0 1,-1 1,-1 1,0 1,-1 2,0 1,1 0,-2 1,-1 1,-1 1,0 1,-1 1,0 1,-1 1,0 1,-1 1,0 1,-1 1,-1 1,0 1,-1 1,0 1,-1 1,0 1,-1 1,0 1,-1 1,-1 1,0 1,-1 1,0 1,-1 2,0 1,1 0,-2 1,-1 1,0 1,-1 3,0 1,1 1,1 1,1 1,1 0,2 1,0 1,1 1,1 1,1 1,1 1,1 0,2 1,0 2,2 1,1 2,2 0,1 1,1 0,1 1,0 1,1 1,1 1,1 1,1 0,1 1,1 0,1 1,0 1,1 1,1 1,1 1,1 1,1 0,2 1,0 1,1 1,1 1,0 0,-3 -2,0 -1,-1 -1,-1 -1,-1 -1,-1 0,-1 -1,-1 0,-1 -1,0 -1,-1 -2,-2 -1,-1 0,-1 -1,-1 0,-1 -1,0 -1,-1 -1,-1 -1,-1 -2,-2 0,-2 -1,0 -1,-1 -1,-1 -2,-2 -1,-1 0,-1 -1,-1 0,-1 -1,0 -1,-1 -1,-1 0,-4 1,-1 0,-2 -11,0 0,2 -1,1 -1,0 -1,1 -1,0 -1,1 -2,0 -1,1 -1,0 -1,1 -1,0 -1,1 -1,0 -1,1 -1,0 -1,1 -2,0 -1,-1 -1,1 -1,0 0,2 -1,1 -1,0 -1,1 -1,1 -1,0 -1,1 -2,0 -1,-1 0,2 -1,1 -1,1 -1,0 -1,1 -2,0 -1,-1 0,2 -1,1 -1,1 -5,0 -1,-1 0,-1 -1,1 -1,0 -1,1 -1,0 -1,1 -2,0 -1,-1 0,2 -1,1 -1,0 -1,1 -1,1 -1,0 -1,1 -2,0 -1,-1 0,2 -1,1 -1,0 -1,1 -1,1 -5,0 -1,-1 0,-1 -1,-1 0,-1 -1,-1 0,-4 -1,-1 -2,0 -1,-1 -1,-1 -1,-1 0,-1 -1,-1 -1,-1 0,-2 -1,0 -1,-1 -1,-1 0,-2 -2,0 -1,-1 0,-2 -1,-1 -1,-1 0,-1 -1,-1 0,-4 -9,0 0,4 -1,1 2,-3 5,0 1,1 1,1 0,1 1,1 0,10 -1,1 -3,0 -1,-1 0,-1 -1,-1 0,-2 -1,-1 -3,0 0,1 1,1 0,1 1,1 0,3 1,0 1,1 1,0 1,1 0,1 1,1 0,1 1,0 1,1 1,0 1,-1 0,-2 1,-1 3,0 1,1 0,1 1,1 1,1 1,1 0,1 1,1 1,1 0,1 1,1 1,1 1,1 0,1 1,1 1,1 0,2 -1,1 -1,0 -1,1 -2,0 -1,-1 -1,1 -1,0 0,2 -1,1 -1,0 -1,1 -2,0 -1,1 -1,0 -1,1 -1,0 -1,1 -1,0 -1,1 -1,0 -1,1 -2,0 -1,1 -1,0 -1,1 -3,0 -1,-1 0,2 -1,1 -2,0 -1,1 -2,0 -1,1 -2,0 -1,1 -2,0 -1,-1 -2,0 0,2 -1,1 -1,0 0,1 -1,1 -2,0 1,1 0,1 1,1 1,1 0,1 1,1 1,1Z"/>
<path onmouseover="hoverPath(evt)" onmouseout="recoverPath(evt)" fill="rgb(240,240,234)" d="M  128,4l 0,1 1,1 1,1 0,2 2,0 1,1 0,2 1,1 1,0 1,1 0,2 1,1 1,1 0,1 2,2 2,0 1,1 1,1 0,4 1,1 0,1 1,1 0,1 3,0 1,-1 0,0 1,-1 1,0 0,-2 1,-1 2,0 1,1 1,-1 1,0 1,-1 1,-1 1,0 0,-2 1,-1 2,0 1,1 1,-1 1,0 1,-1 1,0 1,-1 2,0 1,1 0,1 3,0 1,-1 0,-2 1,-1 2,0 1,1 1,-1 1,0 1,-1 0,-2 1,-1 2,0 1,1 1,-1 1,0 1,-1 1,-1 1,0 0,-2 1,-1 1,0 1,-1 2,0 1,1 1,-1 1,0 1,-1 1,0 1,-1 1,0 1,-1 1,0 1,-1 2,0 1,-1 1,0 1,-1 1,0 0,-1 -87,0 0,3 1,1Z"/>
<path onmouseover="hoverPath(evt)" onmouseout="recoverPath(evt)" fill="rgb(170,198,237)" d="M  137,203l -2,0 -1,1 -1,0 -1,1 -3,0 -1,-1 -1,-1 -1,-1 1,2 0,3 1,1 2,0 1,-1 1,-1 1,0 1,-1 1,0 1,-1 1,-1 2,0 1,-1 1,-1 1,0 1,-1 1,0 1,-1 2,0 1,-1 1,0 1,-1 1,-1 1,0 1,-1 1,-1 1,0 1,-1 1,-1 1,0 1,-1 1,-1 1,0 1,-1 1,-1 1,0 1,-1 1,-1 -1,-1 0,-1 -1,-1 -1,-1 -1,0 -1,-1 -1,-1 -1,0 -1,-1 -4,0 -1,1 0,0 -1,1 -1,0 -1,1 -1,1 -1,1 -1,0 -1,1 -1,1 -1,0 -1,1 -1,1 0,1 1,1 0,1 1,1 1,1 1,1 0,4 -8,5 -1,0 7,-4 -2,1 -2,1 -1,1 -1,0 6,-3 -7,4Z"/>
<path onmouseover="hoverPath(evt)" onmouseout="recoverPath(evt)" fill="rgb(240,240,234)" d="M  149,130l -3,0 -1,-1 -1,-1 -1,-1 -1,-1 -1,-1 0,-1 -1,-1 -1,-1 -1,-1 -1,-1 -1,-1 -1,-1 -2,0 0,2 1,1 0,0 1,1 0,1 1,1 1,1 1,1 0,1 1,1 1,1 0,1 1,1 1,1 1,1 0,1 1,1 2,0 1,1 0,1 1,1 1,1 0,1 1,1 2,0 1,1 1,-1 1,0 1,-1 1,0 1,-1 1,0 1,-1 1,0 1,-1 1,0 1,-1 1,-1 1,0 1,-1 1,0 1,-1 1,0 1,-1 1,0 1,-1 1,0 1,-1 1,0 1,-1 1,0 1,-1 1,0 1,-1 1,0 1,-1 1,0 1,-1 1,-1 1,0 1,-1 1,0 1,-1 1,0 1,-1 1,0 1,-1 1,0 1,-1 1,0 1,-1 1,0 1,-1 1,0 1,-1 1,0 1,-1 1,-1 1,0 1,-1 1,0 1,-1 1,0 1,-1 1,0 1,-1 1,0 1,-1 1,0 1,-1 1,0 1,-1 1,0 1,-1 1,0 1,-1 1,-1 1,0 1,-1 1,0 1,-1 1,0 1,-1 1,0 1,-1 1,0 1,-1 1,0 1,-1 1,0 1,-1 1,0 1,-1 1,-1 1,0 1,-1 1,0 1,-1 1,0 1,-1 1,0 1,-1 1,0 1,-1 1,0 1,-1 2,0 0,-46 -2,0 -1,-1 -1,-1 -1,0 -1,-1 0,-2 -1,-1 -3,-3 -1,0 -1,-1 0,-1 -1,-1 0,-1 -1,-1 -1,-1 -1,-1 -1,0 -1,-1 0,-1 -1,-1 0,-1 -1,-1 -1,-1 -1,-1 -1,-1 -1,0 -1,-1 0,-2 -1,-1 -1,-1 -1,-1 -1,-1 -1,0 -1,-1 0,-2 -1,-1 -1,-1 -1,-1 -1,0 -1,1 -1,0 0,2 -1,1 -2,0 -1,-1 -1,1 -1,0 -1,1 -1,0 -1,1 -1,1 -1,0 -1,1 -1,0 -1,1 -1,0 -1,1 -1,0 -2,2 -1,0 -1,1 -1,0 -1,1 -1,0 -1,1 -1,0 -1,1 0,2 -1,1 -2,0 -1,-1 -1,1 -1,0 -1,1 -1,1 -1,0 0,2 -1,1 -2,0 -1,-1 0,0 -1,1 -1,0 -1,1 -1,1 -1,0 -1,1 -1,0 -1,1 -1,0 -1,1 -1,1 -1,0 -1,1 -1,0 -1,1 -1,0 2,1 0,0 1,-1 1,0 1,-1 2,0 1,-1 1,0 1,-1 1,0 1,-1 1,0 1,-1 1,0 0,-1 1,-1 1,0 -1,-1 0,0 -29,100 34,-102 2,0 1,-1 1,-1 3,0 1,-1 1,-1 1,0 0,-1 1,-1 2,0 1,-1 1,0 0,-1 1,-1 2,0 1,-1 1,-1 2,0 1,-1 1,0 1,-1 1,0 1,-1 5,0 1,1 1,1 0,5 -1,1 0,1 -1,1 -1,0 -1,1 -1,1 -1,0 0,1 -1,1 -2,0 0,1 1,0 2,-1 4,0 1,1 1,0 1,1 1,1 0,1 1,1 1,1 0,1 1,1 1,1 0,1 1,1 1,1 1,1 0,1 1,1 1,1 1,1 0,1 4,0 1,1 0,3 -1,1 0,1 -2,2 -1,1 -1,1 0,1 -1,1 -1,1 -2,2 -1,1 -1,1 -1,1 -1,0 -1,1 -1,0 -1,1 -1,0 -1,1 -2,0 -1,1 -1,0 -1,1 -2,0 -1,1 -1,0 -1,1 -1,0 -1,1 -2,2 -1,0 0,1 -1,1 -1,1 -1,1 0,1 -1,1 -1,1 -1,1 -1,0 -1,1 -1,0 -1,1 -1,0 -1,1 -1,0 -1,1 -1,1 -1,0 -1,1 -1,0 -1,1 -1,0 -1,1 -1,0 -1,1 1,0 1,1 0,0 1,1 1,1 1,1 1,1 0,2 -1,1 3,0 1,1 0,1 1,1 1,1 1,1 1,1 1,1 1,1 1,1 1,1 1,1 0,4 -1,1 -1,1 -2,0 -1,1 -4,0 0,2 -1,1 -1,0 -1,1 -1,0 -1,1 -1,0 -1,1 -3,0 -1,-1 -1,-1 -1,-1 2,3 0,2 -1,1 -1,0 -1,1 -2,0 -1,1 -5,0 0,3 -1,1 -1,0 -1,1 -1,0 -1,1 -1,0 -1,1 -5,0 -1,-1 0,-3 -1,-1 -1,0 33,-102 -34,102Z"/>
<path onmouseover="hoverPath(evt)" onmouseout="recoverPath(evt)" fill="rgb(170,198,236)" d="M  160,155l -1,0 0,1 1,1 0,0 1,1 4,0 0,-1 1,-1 1,-1 1,-1 1,-1 1,0 1,-1 1,-1 1,-1 1,-1 1,-1 1,-1 1,0 0,-2 -1,-1 -1,0 -1,1 0,0 -1,1 -1,0 -1,1 -1,0 -1,1 -1,1 -1,0 -1,1 -1,1 -1,0 0,1 -1,1 -1,1 -1,0 -1,1Z"/>
<path onmouseover="hoverPath(evt)" onmouseout="recoverPath(evt)" fill="rgb(243,242,234)" d="M  182,179l 0,0 -1,1 -1,1 0,1 1,1 1,1 0,1 1,1 1,1 1,1 0,1 1,1 1,1 0,2 1,0 1,1 1,1 0,1 1,1 1,1 1,1 0,1 1,1 1,1 0,1 1,1 1,1 0,1 1,-1 1,0 1,-1 1,0 2,-2 1,0 1,-1 1,0 1,-1 1,0 1,-1 1,-1 1,0 1,-1 1,0 1,-1 1,-1 1,0 1,-1 1,0 1,-1 1,-1 1,0 1,-1 1,0 1,-1 1,0 2,-2 1,0 -2,-1 0,0 -1,-1 -1,0 -1,1 -3,0 -1,-1 -3,0 -1,-1 -1,-1 -1,-1 -1,-1 0,-3 -1,-1 -1,-1 -1,-1 0,-1 -1,-1 -1,-1 0,-1 -1,-1 -2,0 -1,-1 0,-2 1,-1 -1,-1 -3,0 -1,1 -1,1 -1,0 -1,1 -1,1 -1,1 -1,0 -1,1 -1,0 -1,1 -1,1 -1,0 0,1 -1,1 -1,0 -1,1 -1,1 -1,0 -1,1Z"/>
<path onmouseover="hoverPath(evt)" onmouseout="recoverPath(evt)" fill="rgb(240,240,234)" d="M  205,163l -1,0 0,1 1,1 0,0 1,1 0,1 1,1 0,1 1,1 1,1 0,1 1,1 1,1 0,1 1,1 1,1 1,1 0,3 1,1 1,1 1,1 3,0 1,1 1,0 1,-1 3,0 1,1 1,1 1,0 1,1 1,-1 1,0 1,-1 1,-1 1,0 0,-2 1,-1 2,0 1,1 1,-1 1,-1 1,0 1,-1 1,0 1,-1 1,0 1,-1 0,-1 1,-1 3,0 1,-1 3,0 0,-77 -1,0 -1,1 -1,0 -1,1 -1,1 -1,0 -1,1 -1,0 -1,1 -1,0 -1,1 -1,0 -1,1 -1,0 -1,1 -1,0 -1,1 -1,0 -1,1 -1,0 -1,1 1,0 1,1 0,3 -1,1 1,1 1,1 0,1 1,1 1,1 1,1 2,0 1,1 1,1 1,0 1,1 0,1 1,1 1,1 1,1 1,1 0,2 1,0 1,1 1,1 0,3 -1,1 -3,0 -1,1 -1,1 -1,1 -1,0 -1,1 -1,0 -1,1 -1,0 -1,1 -2,0 0,1 -1,1 -2,0 0,1 -1,1 -2,0 0,1 -1,1 -1,0 -1,1 -2,0 0,1 -1,1 -1,0 -1,1 -1,1 -1,0 -1,1 -1,1 -1,0 -1,1 -2,0 0,1 -1,1 -1,0 -2,2 -1,0 -1,1 -1,0 -1,1 -1,1 -1,0 -1,1 31,17 -2,0 -1,-1 0,-2 1,-1 1,0 1,-1 2,0 1,1 0,2 -1,1 -1,0 -1,1 -31,-17 27,17 0,2 -1,1 -1,0 -1,1 -2,0 -1,-1 0,-2 1,-1 1,0 1,-1 2,0 1,1 -27,-17 38,13 -2,0 3,-1 0,-1 -1,2 -38,-13 35,11 0,-1 1,-1 0,0 -1,2 -35,-11Z"/>
<path onmouseover="hoverPath(evt)" onmouseout="recoverPath(evt)" fill="rgb(253,253,253)" d="M  0,52l 0,2 2,0 1,1 1,1 1,1 0,1 1,0 1,1 1,1 1,1 1,1 1,1 1,1 0,1 1,1 1,1 0,1 1,0 1,1 1,1 1,1 0,1 1,1 1,1 0,1 1,1 1,1 0,1 1,1 0,1 1,1 0,2 1,1 0,1 1,1 0,2 1,1 0,-3 -1,-1 0,-2 -1,-1 0,-1 -1,-1 0,-1 -1,-1 0,-1 -1,-1 0,-1 -1,-1 -1,-1 0,-2 -1,0 -2,-2 0,-2 -1,0 -1,-1 -1,-1 -1,-1 -1,-1 -1,-1 -1,-1 0,-1 -1,-1 -1,-1 -1,-1 -1,-1 -1,-1 -1,-1 -1,-1 -1,-1 -1,-1 -1,1Z"/>
<path onmouseover="hoverPath(evt)" onmouseout="recoverPath(evt)" fill="rgb(244,243,237)" d="M  0,228l 0,27 34,0 0,-1 -2,0 -1,-1 -1,-1 -2,-2 -1,-1 -1,-1 -1,-1 -1,-1 -1,-1 -1,-1 -1,-1 -2,-2 -2,0 -1,1 -3,0 -1,-1 0,-2 1,-1 -1,-1 -2,-2 -1,-1 -1,-1 -1,-1 -1,-1 -1,0 -1,-1 -1,-1 -1,-1 -1,-1 -1,1Z"/>
<path onmouseover="hoverPath(evt)" onmouseout="recoverPath(evt)" fill="rgb(188,206,232)" d="M  21,99l 0,0 -1,-1 -1,-1 0,-1 -1,-1 -1,-1 0,-1 -1,-1 -1,-1 -1,-1 -1,-1 0,-1 -3,-3 0,-1 -3,-3 -2,0 1,1 0,1 1,1 1,1 0,1 1,1 0,1 1,1 1,1 0,1 1,1 1,1 1,1 1,1 0,1 1,1 0,4 -1,1 -1,0 0,1 1,1 0,3 1,0 1,1 1,1 0,1 1,1 1,0 1,1 1,1 0,1 1,1 1,0 0,-4 1,-1 4,0 0,-2 -1,-1 0,-1 -1,0 -1,-1 -1,-1 0,-4 -2,0 -1,-1Z"/>
<path onmouseover="hoverPath(evt)" onmouseout="recoverPath(evt)" fill="rgb(253,253,252)" d="M  64,84l -1,1 0,2 -1,1 -3,0 0,4 1,1 0,-2 1,-1 1,-1 1,0 1,-1 1,0 1,-1 1,0 2,-2 2,0 1,-1 1,-1 2,0 1,-1 1,-1 2,0 1,1 0,-2 1,-1 1,0 1,-1 1,-1 1,0 1,-1 2,0 0,-1 -1,-1 0,0 -1,-1 0,-1 -1,0 -1,1 -1,0 -1,1 -1,1 -1,0 -1,1 -1,0 -1,1 -1,0 -1,1 -1,0 -1,1 -1,0 -1,1 -1,0 -1,1 -1,0 -1,1 -1,1 -1,0 -1,1Z"/>
<path onmouseover="hoverPath(evt)" onmouseout="recoverPath(evt)" fill="rgb(249,238,144)" d="M  82,60l 0,3 -1,1 0,1 1,0 1,1 1,1 0,2 1,1 2,0 1,1 0,1 1,1 1,1 0,3 1,1 1,1 1,1 1,1 0,1 1,1 1,1 1,1 0,1 1,1 1,1 1,1 0,1 1,1 1,1 0,1 1,1 1,1 1,0 1,1 0,2 1,1 1,0 1,1 0,1 1,1 0,1 2,0 1,1 1,1 1,1 0,3 1,1 0,2 -1,1 1,1 0,0 1,1 1,1 0,1 1,1 1,1 0,1 2,2 1,1 0,1 1,1 1,1 0,1 1,1 1,1 1,1 0,1 1,1 0,1 1,0 1,1 0,2 1,0 1,1 0,2 3,0 1,1 1,1 0,1 1,0 1,1 0,1 1,1 0,3 3,0 1,1 1,1 1,1 0,3 -1,1 2,0 1,1 1,1 0,1 1,1 0,3 1,1 1,1 1,1 0,1 1,1 2,0 1,1 1,1 0,1 1,1 1,1 1,1 0,1 1,1 1,1 1,1 0,1 1,1 1,1 1,1 0,1 1,1 1,1 0,1 1,1 1,0 1,1 0,2 1,1 1,0 1,1 0,2 1,1 1,1 0,1 1,1 1,1 1,1 0,1 1,1 1,0 1,1 0,2 1,1 1,1 0,1 1,1 2,0 1,1 0,2 1,0 1,1 0,4 2,0 1,1 1,1 1,1 0,3 1,1 1,0 1,1 0,3 3,0 1,1 0,2 1,1 1,1 1,1 0,3 1,1 0,1 2,0 1,1 0,2 1,0 1,1 1,1 0,1 1,1 0,1 1,1 1,0 1,1 0,1 1,1 0,2 1,1 0,2 35,0 0,-8 -1,0 -1,1 -1,0 -1,1 -1,0 -1,1 -1,0 -1,1 -1,0 -1,1 -1,1 -3,0 -1,-1 -4,0 -1,-1 -1,-1 -1,-1 0,-1 -1,-1 -3,0 -1,-1 -1,-1 0,-1 -1,1 -3,0 -1,-1 0,-1 -1,-1 -1,-1 0,-1 -1,-1 0,-1 -1,-1 -1,0 -1,-1 0,-2 -1,-1 -1,-1 0,-1 -1,-1 -1,0 -1,-1 0,-2 -1,-1 -1,-1 -1,-1 0,-1 -1,-1 -1,-1 -1,-1 0,-1 -1,-1 -2,0 -1,-1 0,-1 -1,-1 -1,-1 -1,-1 -1,-1 0,-1 -1,-1 0,-2 -1,-1 0,-1 -1,-1 -1,-1 0,-1 -1,-1 -1,-1 0,-1 -1,-1 -1,-1 -1,-1 0,-1 -1,-1 -1,0 -1,-1 0,-2 -1,-1 -1,-1 0,-1 -1,-1 -1,-1 -1,-1 0,-1 -1,-1 -1,-1 0,-2 -2,0 -1,-1 0,-2 -1,-1 -1,0 -1,-1 0,-2 -1,-1 -1,0 -1,-1 0,-2 -1,-1 -1,0 -1,-1 0,-2 -1,-1 -1,0 -1,-1 0,-4 -3,0 -1,-1 -2,-2 0,-3 -2,0 -1,-1 -1,-1 0,-3 -1,0 -1,-1 0,-1 -1,-1 0,-2 1,-1 -2,0 -1,-1 -1,-1 0,-1 -1,-1 -1,-1 0,-1 -2,0 -1,-1 -1,-1 0,-1 -1,-1 -1,-1 -1,-1 0,-1 -1,-1 -1,-1 0,-1 -1,-1 -1,-1 -1,-1 0,-1 -1,-1 -1,-1 0,-3 -1,-1 -1,-1 -1,-1 0,-1 -1,-1 -1,-1 -1,-1 0,-1 -1,-1 -1,0 -1,-1 0,-2 -1,-1 -1,0 -1,-1 0,-2 -1,-1 -1,0 -1,-1 0,-2 -1,-1 -1,-1 -1,-1 0,-1 -1,-1 -1,-1 0,-1 -1,-1 -1,-1 -1,-1 0,-1 -1,-1 -1,-1 -1,-1 0,-1 -1,-1 -1,-1 -1,-1 0,-1 -1,-1 -1,-1 -1,-1 0,-4 -1,1 -2,0 -1,-1 -1,-1 0,-1 -1,-1 0,-2 -1,-1 -1,-1 0,-1 -1,-1 -1,-1 0,-1 -1,-1 0,-2 1,-1 2,0 0,-1 1,-1 -1,0 -1,-1 0,0 -1,-1 -1,0 0,2 -2,2 0,1 -1,1 -2,0 -1,1Z"/>
<path onmouseover="hoverPath(evt)" onmouseout="recoverPath(evt)" fill="rgb(249,249,245)" d="M  102,173l 0,0 1,-1 1,0 1,-1 1,0 1,-1 1,0 1,-1 2,0 1,-1 1,0 1,-1 1,0 1,-1 1,0 1,-1 1,0 1,-1 1,0 1,-1 1,0 1,-1 1,0 1,-1 1,0 1,-1 1,0 1,-1 3,0 1,-1 1,0 1,-1 1,0 1,-1 1,0 1,-1 1,0 1,-1 1,0 1,-1 1,0 0,-1 -1,-1 0,0 -1,-1 -2,0 -1,1 -1,1 -1,0 -1,1 -1,0 -1,1 -1,0 -1,1 -1,1 -1,0 -2,2 -1,1 -1,1 -1,0 -1,1 -2,0 -1,1 -1,0 -1,1 -1,0 -1,1 -1,0 -1,1 -3,0 -1,-1 0,-1 -1,0 -1,-1 -1,-1 0,-1 -1,-1 0,-1 -1,-1 -1,-1 0,-3 1,-1 -2,0 -1,-1 0,-2 -1,1 -2,0 -1,1 0,1 -1,1 -2,0 -1,1 -8,0 1,1 4,0 1,1 0,2 3,0 1,-1 2,0 1,1 1,1 1,1 0,3 -1,1 -1,0 -2,2 -1,0 -1,1 -1,0 -1,1 -1,1 -2,0 0,3 1,1 0,0 1,1 0,2 1,1 1,0 1,1 1,1 0,2 1,0 1,1 1,1 1,1 0,1 1,0 1,1 1,1 1,1 1,1 0,1 1,1 0,1 1,0 1,1 1,1 1,1 1,1 0,2 1,0 1,1 1,1 1,1 1,1 0,1 1,1 0,1 1,0 1,1 1,1 1,1 0,1 1,1 1,1 0,1 1,0 1,1 1,1 1,1 0,1 1,1 0,1 1,0 1,1 1,1 1,1 0,2 1,0 1,1 1,1 1,1 1,1 0,2 1,0 1,1 1,1 1,1 0,1 1,1 1,1 1,1 3,0 1,-1 1,0 1,-1 1,0 1,-1 1,-1 3,0 1,1 1,1 1,-1 2,0 1,-1 1,-1 1,0 2,-2 1,0 1,-1 1,0 1,-1 1,0 1,-1 1,-1 1,0 1,-1 1,0 1,-1 1,0 2,-2 1,0 1,-1 1,0 1,-1 1,-1 1,0 1,-1 1,0 0,-4 -2,0 -1,1 -2,0 -1,-1 -1,1 -1,0 -1,1 -1,0 0,2 -1,1 -1,0 -2,2 -2,0 -1,-1 0,2 -1,1 -1,1 -2,0 -1,-1 0,2 -1,1 -1,1 -1,0 -1,1 -1,0 -1,1 -1,0 -1,1 -1,0 -1,1 -1,0 -1,1 -2,0 -1,-1 -1,1 -1,0 0,2 -1,1 -4,0 -1,-1 -1,-1 -1,-1 -1,-1 0,-2 -1,0 -1,-1 -1,-1 -1,-1 0,-2 -1,0 -1,-1 -1,-1 -1,-1 -1,-1 0,-2 -1,0 -1,-1 -1,-1 -1,-1 -1,-1 0,-1 -1,-1 0,-1 -1,-1 -1,-1 -1,0 -2,-2 0,-1 -1,-1 -1,-1 -1,-1 -1,-1 -1,-1 0,-2 -1,0 -1,-1 -1,-1 -1,-1 -1,-1 0,-1 -1,-1 0,-1 -1,0 -1,-1 -1,-1 -1,-1 -1,-1 -1,-1 0,-1 -1,-1 -1,-1 0,-1 -1,0 -1,-1 -1,-1 0,-1 -1,-1 0,-2 1,-1 2,0 0,-2 -8,-14 -2,0 -1,1 -1,0 -1,1 -1,0 0,1 -1,1 -3,0 -1,1 1,1 0,-1 4,-1 1,-1 1,0 1,-1 1,0 1,-1 1,-1 8,14 3,-25 0,-1 1,-1 -2,2 1,0 -3,25Z"/>
<path onmouseover="hoverPath(evt)" onmouseout="recoverPath(evt)" fill="rgb(176,201,236)" d="M  113,116l 0,11 1,-1 5,0 1,1 0,1 1,1 1,1 1,1 0,1 1,1 1,1 1,1 0,2 1,1 1,1 0,1 1,1 0,1 1,0 1,1 0,1 1,1 1,0 1,-1 0,0 -1,-1 0,-2 -1,0 -1,-1 0,-2 -1,0 -1,-1 0,-2 -1,0 -1,-1 0,-1 -1,-1 0,-1 -1,-1 -1,-1 -1,-1 0,-1 -1,-1 -1,-1 0,-1 -1,-1 -1,-1 -1,-1 0,-1 -1,-1 -1,-1 0,-1 -1,-1 -1,-1 -1,1 -1,-3 1,0 0,-1 1,-1 -1,-1 0,-3 -1,-1 -1,-1 -4,0 -1,-1 -1,-1 0,3 1,1 0,0 1,1 1,1 1,1 1,0 1,1 0,1 1,1 1,3Z"/>
<path onmouseover="hoverPath(evt)" onmouseout="recoverPath(evt)" fill="rgb(172,199,237)" d="M  133,102l 0,0 1,1 1,1 0,1 1,1 1,1 1,0 1,1 2,0 1,-1 2,0 1,-1 1,0 1,-1 1,0 1,-1 3,0 1,1 0,3 -1,1 -1,0 0,2 -1,1 -4,0 -1,1 -1,0 -2,2 -1,0 -1,1 0,1 1,1 0,0 1,1 1,-1 2,0 1,1 0,2 -1,1 0,1 1,1 1,1 1,1 1,1 0,1 3,0 1,1 1,1 0,3 3,0 1,-1 1,0 1,-1 1,0 1,-1 1,0 0,-1 -1,-1 0,0 -1,-1 -1,-1 0,-2 1,-1 2,0 1,1 1,1 1,1 3,0 1,-1 2,0 1,-1 1,0 0,-1 -1,-1 0,0 -1,-1 0,-2 1,-1 2,0 1,1 1,1 1,1 1,0 1,-1 1,0 1,-1 1,0 1,-1 1,0 0,-2 1,-1 4,0 1,-1 2,0 1,-1 0,-2 -1,-1 0,0 -1,-1 -1,-1 -1,-1 -1,-1 -1,-1 -1,-1 -1,-1 -1,-1 0,-1 -2,0 -1,1 -1,0 -1,1 -2,0 -1,-1 0,-2 1,-1 1,-1 1,0 1,-1 1,0 -1,-1 0,0 -1,-1 -1,-1 -1,-1 -1,0 -1,-1 0,-2 1,-1 1,-1 1,0 1,-1 1,0 1,-1 1,0 1,-1 1,0 1,-1 1,-1 1,0 1,-1 1,0 1,-1 1,0 1,-1 1,0 1,-1 1,-1 0,-1 1,-1 1,-1 1,-1 0,-1 1,-1 1,0 1,-1 1,-1 1,-1 1,0 1,-1 1,0 1,-1 2,0 1,-1 1,0 1,-1 2,0 1,-1 1,0 1,-1 1,0 1,-1 1,0 1,-1 1,-1 1,-1 1,-1 1,-1 1,-1 0,-1 1,-1 1,-1 1,-1 1,-1 0,-1 1,-1 0,-1 -4,0 -1,-1 0,-1 -1,-1 -1,-1 -1,-1 0,-1 -1,-1 -1,-1 -1,-1 0,-1 -1,-1 -1,-1 0,-1 -1,-1 -1,-1 0,-1 -1,-1 -1,0 -1,-1 -3,0 -1,1 -3,0 -1,-1 0,-3 1,-1 2,0 0,-1 1,-1 1,0 1,-1 1,-1 1,0 0,-1 1,-1 0,-3 -1,-1 -3,0 -1,1 -1,0 -1,1 -1,0 -1,1 -2,0 -1,1 -1,1 -2,0 0,1 -1,1 -1,0 -1,1 -2,0 0,1 -1,1 -1,0 -1,1 -1,1 -3,0 -1,1 -1,1 -2,0 -1,1 -1,1 -1,0 -1,1 -1,0 0,1 -1,1 -1,0 -1,1 -1,0 -1,1 -1,0 -1,1 -1,0 -1,1 -2,0 -1,1 -1,0 -1,1 -2,0 -1,-1 -4,0 2,1 0,2 -1,1 -1,0 -1,1 -1,1 -2,0 -1,1 -1,1 -1,1 -1,0 -1,1 -2,0 -1,1 -1,0 -1,1 -1,0 -2,2 -2,0 -1,-1 -1,-1 -1,1 -1,0 -1,1 -1,0 0,3 -1,1 -1,1 -1,0 -1,1 -1,1 -1,0 -1,1 -1,0 -1,1 -1,0 0,1 -1,1 -2,2 -1,1 -1,0 -1,1 -1,1 -1,1 -1,1 0,1 -1,1 -1,1 -1,1 1,1 0,1 1,1 1,1 1,1 0,1 1,1 1,1 1,1 1,1 0,1 1,1 1,1 1,1 0,1 1,1 1,1 1,1 1,1 1,1 1,1 1,1 1,1 1,1 1,1 1,1Z"/>
<path onmouseover="hoverPath(evt)" onmouseout="recoverPath(evt)" fill="rgb(244,243,235)" d="M  0,205l 0,19 1,0 0,-1 1,-1 1,-1 1,0 1,-1 1,0 1,-1 4,0 1,1 1,1 2,2 1,1 1,1 1,1 1,1 1,1 1,1 1,1 1,1 1,1 1,1 1,1 1,1 2,2 1,1 1,1 1,0 1,1 4,4 1,0 2,2 1,1 1,1 0,1 2,0 1,1 1,1 1,0 1,1 1,1 1,1 0,1 34,0 0,-1 -1,-1 0,-1 -1,-1 -1,-1 -1,-1 -1,0 -1,-1 0,-3 1,-1 -1,-1 0,0 -1,-1 -1,-1 -1,-1 -1,-1 0,-2 -1,0 -1,-1 -1,-1 -1,-1 -1,-1 -3,0 -1,-1 0,-1 -1,-1 -1,-1 -1,-1 -2,0 -2,-2 -1,-1 -1,-1 -1,-1 -1,1 0,0 -1,1 -1,0 -1,1 -2,0 -1,1 -1,0 0,2 1,0 1,1 1,1 1,1 1,1 1,0 1,1 1,1 1,1 1,1 1,1 1,1 0,2 -1,1 -1,1 -1,0 -1,1 -1,0 -1,1 -4,0 -1,-1 -2,-2 -1,-1 -1,-1 -1,0 -2,-2 -1,-1 -2,-2 -1,-1 -1,-1 -2,0 -1,-1 0,-3 1,-1 2,0 0,-2 -1,-1 0,0 -1,-1 -1,-1 -1,-1 -1,-1 -1,-1 -1,-1 -2,-2 -1,-1 -3,0 -1,1 -2,0 -1,-1 0,-1 -1,0 -1,-1 0,2 -1,1 -2,0 -1,-1 -1,-1 -1,-1 -1,-1 -2,-2 0,-1 -1,-1 -1,0 -1,-1 0,-2 -1,-1 -1,-1 -1,-1 0,-1 -1,-1 -1,0Z"/>
<path onmouseover="hoverPath(evt)" onmouseout="recoverPath(evt)" fill="rgb(244,243,236)" d="M  64,220l -4,0 -1,-1 -1,0 -1,-1 -1,-1 -1,-1 -1,-1 -1,-1 -1,-1 0,-2 -1,0 -1,-1 -1,-1 -1,-1 -1,-1 9,11 0,1 1,1 0,2 1,1 1,1 1,1 1,1 2,0 1,1 1,1 1,1 1,1 0,1 3,0 1,1 1,1 1,1 1,1 1,0 1,1 0,2 1,1 1,1 2,2 1,1 0,2 -1,1 0,1 1,0 1,1 1,1 1,1 1,1 0,1 1,1 0,2 25,0 0,-1 -1,-1 0,-1 -1,0 -1,-1 -1,-1 -1,-1 -1,-1 -1,-1 -1,-1 0,-1 -1,-1 0,-4 -1,-1 0,-1 -1,-1 -1,-1 -1,-1 -1,-1 -1,-1 -1,-1 0,-1 -1,-1 -1,-1 -1,-1 -1,-1 -1,-1 -1,-1 0,-1 -1,-1 -1,-1 -1,-1 -1,-1 -1,-1 -1,-1 0,-1 -1,-1 -1,-1 -1,-1 -1,-1 -5,0 0,1 -1,1 -1,1 -1,1 -1,1 -1,0 -1,1 -1,1Z"/>
<path onmouseover="hoverPath(evt)" onmouseout="recoverPath(evt)" fill="rgb(244,243,236)" d="M  83,187l 0,-6 1,-1 0,-1 1,-1 0,-3 -1,3 -8,0 -1,-1 0,-6 -1,-1 0,-5 -1,-1 0,-1 -1,-1 -1,-1 -1,0 -1,-1 -13,0 -1,-1 -1,0 1,1 1,1 0,1 1,1 0,1 1,1 0,1 1,1 1,1 2,2 0,1 2,2 1,1 1,1 0,1 1,1 1,1 1,1 1,1 0,1 1,1 1,1 1,0 1,1 5,0 1,1 1,0 1,1 1,1Z"/>
<path onmouseover="hoverPath(evt)" onmouseout="recoverPath(evt)" fill="rgb(243,242,234)" d="M  100,213l 0,0 1,1 1,0 1,1 1,1 1,1 1,1 3,0 1,-1 1,0 1,-1 1,0 1,-1 1,0 1,-1 1,0 2,-2 1,-1 0,-1 1,-1 -1,-1 0,0 -1,-1 -1,0 -1,-1 0,-1 -1,-1 0,-1 -1,-1 -1,-1 -1,-1 -1,0 -1,-1 0,-2 -1,-1 -1,-1 -1,-1 -1,0 -1,-1 0,-1 -2,0 -1,-1 -1,-1 -1,-1 -2,0 -1,1 -1,0 0,1 1,1 0,1 1,1 1,1 1,1 0,1 1,1 1,1 1,1 1,1 0,1 2,2 1,1 1,1 0,2 -1,1 -1,0 -1,1 -1,0 -1,1 -1,1 -2,0 -1,1 -1,0 -1,-1 1,-1 0,0 -1,-1 -1,0 -1,-1 -2,0 1,1 1,1 2,0 -2,-1 3,3Z"/>
<path onmouseover="hoverPath(evt)" onmouseout="recoverPath(evt)" fill="rgb(244,243,235)" d="M  122,61l 0,0 -1,-1 -1,1 -1,0 -1,1 -1,1 -1,0 0,2 -1,1 -2,0 -1,-1 -1,1 -1,0 -1,1 -1,0 -1,1 -1,0 -1,1 -1,1 -1,0 0,2 -1,1 -1,0 0,2 1,1 0,0 1,1 1,1 0,1 1,1 1,1 1,1 0,1 1,1 1,1 1,1 0,1 1,1 1,1 1,1 0,1 1,1 1,1 0,1 1,1 1,1 1,1 0,2 1,0 1,1 1,1 0,2 1,0 1,1 1,1 0,2 1,0 1,1 1,1 0,1 1,1 1,1 1,1 0,1 1,1 1,1 4,0 1,1 1,1 1,1 1,1 1,1 1,1 1,1 0,1 1,1 1,1 1,1 1,1 -4,-6 0,-1 1,-1 -2,1 0,0 -4,-4 0,-2 1,-1 1,-1 1,0 1,-1 1,-1 1,0 1,-1 4,0 0,-2 1,-1 1,0 0,-1 -1,0 -1,1 -1,0 -1,1 -1,0 -1,1 -2,0 -1,1 -4,0 -1,-1 -1,0 -1,-1 -2,-2 0,-1 -1,-1 -1,-1 -1,-1 -1,-1 -1,-1 -1,-1 -1,-1 -1,-1 -1,-1 -1,-1 -1,-1 -1,-1 -1,-1 0,-1 -1,-1 -1,-1 -1,-1 0,-1 -1,-1 -1,-1 -1,-1 -1,-1 0,-1 -1,-1 -1,-1 -1,-1 0,-1 -1,-1 0,-2 1,-1 1,-1 1,-1 0,-1 1,-1 1,-1 1,-1 1,-1 1,-1 1,0 1,-1 1,-1 1,-1 0,-1 1,-1Z"/>
<path onmouseover="hoverPath(evt)" onmouseout="recoverPath(evt)" fill="rgb(186,206,228)" d="M  201,213l 0,0 1,1 1,1 0,1 1,-2 1,0 1,-1 1,0 1,-1 1,0 1,-1 1,-1 1,0 1,-1 1,0 1,-1 1,0 1,-1 1,-1 1,0 1,-1 1,0 1,-1 1,0 1,-1 1,0 1,-1 1,-1 1,0 1,-1 1,0 1,-1 1,-1 1,0 1,-1 1,0 1,-1 1,0 1,-1 1,-1 1,0 1,-1 1,0 1,-1 1,0 1,-1 1,-1 1,0 1,-1 1,0 1,-1 1,0 1,-1 1,-1 2,0 0,-6 -2,0 -1,1 -1,0 -1,1 -1,1 -1,0 -1,1 -1,0 -2,2 -1,0 -1,1 -1,0 -1,1 -1,0 0,2 -1,1 -2,0 -1,-1 -1,1 0,0 -1,1 -1,0 -1,1 -1,0 -1,1 -1,0 -1,1 -1,1 -1,0 -1,1 -1,0 -1,1 -1,0 -1,1 -1,1 -1,0 -1,1 -1,0 -1,1 -1,0 -1,1 -1,1 -1,0 -1,1 -1,0 -1,1 -1,1 -1,0 -1,1 -1,0 -1,1 -1,0 -1,1 -1,1 -1,0 1,1 1,1Z"/>
<path onmouseover="hoverPath(evt)" onmouseout="recoverPath(evt)" fill="rgb(244,243,236)" d="M  0,110l 0,42 2,0 1,1 1,0 1,1 1,1 1,1 0,1 1,1 2,2 1,0 1,1 0,2 1,1 1,1 1,1 1,1 1,1 1,1 1,0 1,1 0,1 1,1 0,2 -1,1 1,1 0,1 1,1 0,1 2,0 1,1 1,1 -1,-2 -1,-1 0,0 -1,-1 0,-3 1,-1 1,0 1,-1 3,0 1,-1 5,0 2,-2 1,-1 0,-3 -1,-1 0,-1 -1,-1 -1,-1 0,-1 -1,-1 -1,-1 -1,-1 -1,-1 -1,-1 -1,-1 -1,-1 0,-1 -1,-1 0,-2 -1,-1 0,-1 -1,-1 -1,-1 0,-1 -1,-1 0,-1 -1,-1 -1,-1 0,-1 -1,-1 0,-1 -1,-1 -1,-1 0,-1 -1,-1 0,-1 -1,-1 -1,-1 0,-2 -1,-1 0,-1 -1,-1 -1,-1 -1,-1 -1,0 -1,-1 0,-3 -1,-1 -1,-1 0,-1 -3,0 -1,-1 0,-3 -1,-1 0,-1 -1,-1 -1,1Z"/>
<path onmouseover="hoverPath(evt)" onmouseout="recoverPath(evt)" fill="rgb(194,213,241)" d="M  12,166l 0,0 -1,-1 -1,-1 0,-2 -1,0 -1,-1 -1,-1 -1,-1 -1,-1 0,-1 -1,-1 -1,-1 -1,0 -1,-1 -1,0 0,18 1,0 1,-1 1,0 1,-1 1,0 1,-1 1,0 1,-1 1,0 0,-1 1,-1 2,0 5,5 1,1 0,1 1,0 -1,-2Z"/>
<path onmouseover="hoverPath(evt)" onmouseout="recoverPath(evt)" fill="rgb(172,199,238)" d="M  28,214l -1,0 -1,-1 -1,0 -1,1 2,0 2,1 0,-1 5,5 0,1 1,1 1,1 1,1 1,1 1,1 0,4 -1,1 -2,0 0,1 2,0 1,1 1,1 1,1 1,1 1,1 1,1 1,1 1,0 1,1 1,1 1,1 2,2 2,0 1,-1 1,0 1,-1 1,0 1,-1 -1,-1 0,0 -1,-1 -1,-1 -1,-1 -1,-1 -1,0 -1,-1 -1,-1 -1,-1 -1,-1 -1,0 -1,-1 0,-4 -1,1 -3,0 -1,-1 -1,0 -6,-7 -5,-5 10,10 -1,-1 -1,-1 -1,-1 -1,-1 -6,-6Z"/>
<path onmouseover="hoverPath(evt)" onmouseout="recoverPath(evt)" fill="rgb(242,241,233)" d="M  56,86l 0,1 1,0 1,-1 3,0 0,-2 1,-1 1,-1 1,-1 1,0 1,-1 1,-1 1,0 1,-1 1,0 1,-1 1,0 1,-1 1,0 1,-1 1,0 1,-1 1,0 1,-1 1,0 1,-1 1,-1 1,0 -1,-1 0,-2 -1,-1 -1,0 -1,-1 -1,-1 0,-1 -1,0 -1,-1 -1,-1 0,-2 -4,0 -1,-1 -1,-1 0,-7 -1,0 0,1 -1,1 -4,0 -1,-1 0,-2 1,-1 1,0 1,-1 1,-1 -1,-1 0,-2 -1,0 -1,-1 -1,-1 0,-1 -1,-1 -1,-1 -1,1 0,0 -1,1 -2,0 -1,-1 0,-2 1,-1 1,-1 0,-3 -1,0 -1,-1 -1,-1 0,-1 -1,-1 -1,-1 0,-2 -1,0 -1,-1 -1,-1 0,-1 -1,-1 -1,-1 0,-1 -1,-1 -1,-1 -1,-1 0,-2 -1,0 -1,-1 -1,-1 0,-1 -1,-1 -1,-1 0,-2 -1,0 -1,-1 -1,-1 0,-1 -1,-1 -1,-1 0,-3 -34,0 0,49 2,0 1,1 1,1 2,2 1,1 1,1 1,1 1,1 1,1 1,1 0,1 1,1 1,1 1,1 1,1 1,1 1,0 1,1 0,2 1,1 1,0 1,1 0,2 1,1 1,1 0,1 1,1 0,1 1,1 0,1 1,1 0,1 1,1 0,2 1,1 0,5 -1,1 -2,0 -1,-1 -1,-1 0,-2 -1,-1 0,-1 -1,-1 0,-2 -1,-1 0,-1 -1,-1 0,-1 -1,-1 -1,-1 0,-1 -1,-1 -1,-1 0,-1 -1,-1 -1,-1 -1,0 -1,-1 0,-1 -1,-1 -1,-1 0,-1 -1,-1 -1,-1 -1,-1 -1,-1 -1,-1 -1,0 -1,-1 0,-1 -1,-1 -1,-1 -1,0 0,29 2,0 1,1 0,1 1,1 1,1 0,1 1,1 1,1 1,1 0,1 1,1 1,1 0,1 1,1 1,1 1,1 1,0 0,-2 -1,-1 0,-1 -1,-1 -1,-1 -1,-1 -1,-1 0,-1 -1,-1 -1,-1 0,-1 -1,-1 0,-1 -1,-1 -1,-1 0,-1 -1,-1 0,-2 1,-1 4,0 1,1 2,2 1,1 0,1 1,1 1,1 1,1 0,1 1,1 1,1 1,1 1,1 0,1 1,1 1,1 0,1 1,1 1,0 1,1 2,0 1,1 0,4 1,1 1,0 1,1 0,1 1,1 0,2 1,0 0,-1 -1,-2 0,-5 -3,0 28,-15 -1,-1 0,0 1,1 -2,-1 -1,-1 0,1 -1,-2 -1,-1 0,-3 -1,-1 0,0 4,7 2,1 -7,-8 -1,0 -1,-1 2,1 7,8 -10,-9 0,0 -1,-1 0,-4 1,5 10,9 -28,11 1,0 1,-1 1,0 0,-3 1,-1 0,-3 1,-1 4,0 1,1 1,1 0,5 2,0 1,-1 0,0 1,-1 0,-2 -1,0 -1,-1 0,-9 -1,0 -1,-1 0,-4 1,-1 0,-2 1,-1 1,-1 1,0 -15,26 28,-11Z"/>
<path onmouseover="hoverPath(evt)" onmouseout="recoverPath(evt)" fill="rgb(244,242,234)" d="M  170,246l 0,0 -1,1 0,3 1,1 1,1 1,1 0,2 46,0 0,-1 -1,-1 0,-2 -1,-1 0,-1 -1,0 -1,-1 -1,-1 0,-1 -1,-1 0,-1 -1,-1 -1,0 -1,-1 0,-2 -2,0 -1,-1 0,-1 -1,-1 0,-3 -1,-1 -1,-1 -1,-1 0,-2 -1,0 -1,1 -1,0 -1,1 -1,1 -1,0 -1,1 -1,0 -1,1 -1,0 -1,1 -1,1 -1,0 -1,1 -1,0 -1,1 -1,1 -1,0 -1,1 -1,0 -1,1 -1,0 -1,1 -1,0 -1,1 -1,0 -1,1 -1,0 -1,1 -2,0 -1,1 30,-4 1,1 0,2 -1,1 -1,0 -1,1 -2,0 -1,-1 0,-2 1,-1 1,0 1,-1 2,0 -30,4Z"/>
<path onmouseover="hoverPath(evt)" onmouseout="recoverPath(evt)" fill="rgb(186,208,238)" d="M  205,158l -3,0 -1,-1 -1,-1 -2,0 -1,-1 -1,0 0,1 1,0 1,1 0,1 1,1 0,3 -1,1 -3,0 -1,-1 -1,-1 0,-1 -2,0 -1,1 -1,0 -1,1 3,0 1,1 1,1 0,3 -1,1 -1,1 0,1 1,-1 1,0 1,-1 0,0 1,-1 1,-1 1,0 1,-1 1,-1 3,0 0,-2 1,-1 1,0 1,-1 1,0 1,-1 1,-1 1,0 1,-1 1,0 1,-1 1,-1 1,0 0,-1 1,-1 2,0 1,-1 1,0 1,-1 1,-1 1,0 1,-1 1,-1 1,0 0,-1 1,-1 2,0 1,-1 1,0 0,-1 -2,1 -1,0 -2,1 -1,1 -2,0 -1,-1 -1,0 -1,-1 -1,0 -1,-1 -1,0 -1,-1 -1,0 -1,1 0,1 -1,1 -1,0 -1,1 0,1 -1,1 -1,0 -1,1 1,1 0,1 1,1 0,2 -1,1 -1,1 -1,0 -1,1Z"/>
<path onmouseover="hoverPath(evt)" onmouseout="recoverPath(evt)" fill="rgb(189,210,241)" d="M  245,126l 0,0 1,1 1,1 1,1 0,3 -1,1 4,0 0,-1 -1,-1 -1,0 -2,3 0,0 -1,-1 -4,0 -1,-1 -1,0 -1,-1 0,-1 -5,0 -1,1 -1,1 -1,1 5,0 1,1 0,4 1,1 1,0 1,-1 1,0 1,-1 1,0 1,-1 1,0 1,-1 -1,-9 3,2 -1,-1 -1,-1 -1,-1 -1,-1 0,-1 -1,0 -1,-1 -1,-1 1,2 1,1 0,1 1,0 4,3 -3,-2Z"/>
<path onmouseover="hoverPath(evt)" onmouseout="recoverPath(evt)" fill="rgb(171,198,238)" d="M  5,223l -1,0 -1,1 0,2 1,1 0,0 1,1 1,1 1,0 1,1 1,1 1,1 1,1 1,1 1,1 1,1 1,1 0,2 5,0 1,1 1,1 1,1 1,1 1,1 1,1 1,1 1,1 1,1 1,1 1,1 1,1 1,1 2,0 1,1 0,2 12,0 -1,-1 -1,-1 -1,0 -1,-1 -1,-1 -2,0 -1,-1 0,-1 -1,-1 -1,-1 -1,-1 -1,0 -2,-2 -1,-1 -1,-1 -1,-1 -1,0 -1,-1 -1,-1 -1,-1 -1,-1 -2,-2 -1,-1 -9,-9 -1,-1 -1,-1 -1,-1 -1,-1 -2,0 -1,1 -1,0 -1,1 10,17 -10,-17Z"/>
<path onmouseover="hoverPath(evt)" onmouseout="recoverPath(evt)" fill="rgb(242,233,148)" d="M  64,20l 0,0 -1,-1 -1,0 -1,-1 0,-1 -2,0 -1,-1 -2,0 -1,-1 -1,-1 -1,-1 0,-1 -1,-1 -1,-1 0,-2 -1,0 -1,-1 0,-1 -1,-1 -1,-1 0,-4 -11,0 0,2 1,1 0,0 1,1 0,1 1,1 1,0 1,1 0,2 1,1 1,1 0,1 1,1 1,0 1,1 0,2 1,1 1,1 1,1 0,1 1,1 1,1 0,1 1,1 1,0 1,1 0,2 1,1 1,1 0,1 1,1 1,0 1,1 0,5 2,0 1,1 1,1 1,1 0,1 1,1 1,0 1,1 0,2 1,1 0,2 -1,1 -1,1 -1,1 1,0 2,-2 2,0 1,1 0,7 1,1 4,0 1,1 0,2 1,1 2,0 0,-11 -4,0 -1,-1 0,-3 -1,-1 0,-3 -1,-1 -1,-1 -1,-1 0,-1 -1,-1 0,-1 -1,-1 -1,-1 0,-2 -1,-1 0,-1 -2,0 -1,-1 0,-3 1,-1 1,0 1,-1 0,-2 -1,-1 0,0 -1,-1 -1,-1Z"/>
<path onmouseover="hoverPath(evt)" onmouseout="recoverPath(evt)" fill="rgb(241,240,233)" d="M  62,102l 0,0 -1,1 0,1 -1,1 0,2 1,1 0,1 1,1 0,1 1,1 0,1 1,1 1,1 0,1 1,1 0,1 1,1 0,1 1,1 1,1 0,1 1,1 0,1 1,1 1,1 0,1 1,1 0,1 1,1 0,1 1,1 0,1 1,1 1,1 0,2 -1,1 1,1 2,0 1,1 1,1 0,2 -1,1 1,1 0,1 1,1 0,1 1,1 1,1 1,1 1,-1 2,0 1,1 6,0 1,-1 2,0 0,-1 1,-1 1,-1 2,0 0,-1 1,-1 1,-1 1,-1 2,0 0,-3 -1,-1 0,-2 -1,-1 -1,-1 0,-1 -1,-1 0,-1 -3,0 -1,-1 -1,-1 0,-1 -1,-1 0,-1 -1,-1 -1,-1 0,-2 1,-1 -1,-1 -2,0 -1,-1 -1,-1 0,-2 1,-1 -1,-1 -2,0 -1,-1 -1,-1 0,-1 -1,-1 0,-1 -1,-1 -1,-1 -1,-1 0,-1 -1,-1 0,-2 1,-1 -3,0 -1,-1 -1,-1 -1,-1 -1,-1 -1,0 -1,-1 -6,0 -1,1 -2,0 -1,-1 0,2 -1,1 -1,1Z"/>
<path onmouseover="hoverPath(evt)" onmouseout="recoverPath(evt)" fill="rgb(249,249,246)" d="M  112,7l 0,0 1,-1 -1,0 -1,1 0,0 -1,1 -1,0 -1,1 -1,1 -1,0 -1,1 -1,1 -1,0 -1,1 -1,0 -1,1 -1,0 -1,1 -1,0 -1,1 -1,0 -1,1 -1,0 -1,1 -1,0 -1,1 -1,0 -1,1 -2,0 -1,1 -3,0 -1,1 -4,0 -1,1 -5,0 -1,-1 -3,-3 0,1 1,1 1,1 0,4 -1,1 -1,1 -1,0 0,1 2,0 1,1 0,1 1,1 0,2 1,1 1,-1 1,0 1,-1 3,0 1,1 1,1 1,1 1,0 0,-1 -1,-1 0,0 -1,-1 0,-2 1,-1 0,-1 4,-4 1,0 0,-1 1,-1 1,-1 1,-1 1,-1 1,0 1,-1 1,0 1,-1 1,0 1,-1 1,0 1,-1 1,0 1,-1 1,0 1,-1 1,0 1,-1 1,0 1,-1 1,0 1,-1 1,0 1,-1 1,-1 1,0 0,-1 1,-1 -46,12 1,-1 0,0 -1,-1 0,-1 -1,0 -1,-1 -1,-1 -1,-1 -1,-1 0,-1 -1,-1 -1,-1 -1,-1 0,-1 -1,-1 -1,-1 0,-1 -1,-1 0,-3 -6,0 0,3 1,1 0,0 1,1 0,1 1,0 1,1 0,2 1,1 1,1 0,1 1,1 1,1 2,0 1,1 2,0 1,1 0,1 1,0 1,1 1,1 46,-12Z"/>
<path onmouseover="hoverPath(evt)" onmouseout="recoverPath(evt)" fill="rgb(242,240,230)" d="M  125,139l 0,0 -1,-1 0,-2 -1,-1 -1,-1 -1,-1 0,-1 -1,-1 -1,-1 -1,-1 0,-1 -3,0 -1,1 -1,0 0,1 -1,1 -1,0 -1,1 -1,1 -1,1 -1,1 -1,0 1,1 0,0 1,1 0,2 1,1 0,5 -1,1 0,1 -1,1 0,1 -1,1 2,0 1,1 0,2 -1,1 0,1 1,1 1,1 0,1 1,1 0,1 1,1 1,0 1,1 0,1 1,0 1,-1 1,0 1,-1 1,0 1,-1 1,0 1,-1 2,0 1,-1 1,0 2,-2 1,-1 1,-1 1,0 1,-1 1,-1 1,0 1,-1 1,0 1,-1 1,0 1,-1 0,-3 -1,-1 0,-1 -1,0 -1,-1 0,-1 -1,-1 0,1 1,2 0,1 -1,1 -1,1 -3,0 -1,-1 -1,-1 0,-1 -1,0 -1,-1 0,-1 -1,-1 0,-1 -1,-1Z"/>
<path onmouseover="hoverPath(evt)" onmouseout="recoverPath(evt)" fill="rgb(243,242,233)" d="M  180,239l 0,0 1,-1 1,0 1,-1 1,0 1,-1 1,-1 1,0 1,-1 1,0 1,-1 1,-1 1,0 1,-1 1,0 1,-1 1,0 1,-1 0,-2 1,-1 0,-1 -1,0 -1,-1 -1,-1 0,-1 -1,1 -1,0 -1,1 -1,1 -1,0 -1,1 -1,0 -1,1 -1,0 -2,2 -1,0 -1,1 -1,0 -1,1 -1,0 -1,1 -1,1 -1,0 -1,1 -1,0 -1,1 -1,0 -1,1 -1,1 -1,0 -1,1 -1,0 -1,1 -1,0 -1,1 -1,1 -1,0 -1,1 -1,0 -1,1 -1,1 -1,0 -1,1 -1,0 -1,1 -1,0 -1,1 -1,1 -1,0 -1,1 -1,0 -1,1 -1,0 -1,1 -1,0 2,1 2,0 1,1 1,1 0,1 20,0 0,-1 -1,-1 0,0 -1,-1 -1,-1 0,-5 1,-1 1,-1 1,-1 2,0 1,-1 1,0 1,-1 1,0 1,-1 1,0 1,-1Z"/>
<path onmouseover="hoverPath(evt)" onmouseout="recoverPath(evt)" fill="rgb(243,242,233)" d="M  231,8l 0,1 1,1 0,1 1,1 1,1 1,1 1,1 1,0 1,1 0,2 1,1 1,1 1,1 1,1 1,0 1,1 0,1 1,1 0,1 1,1 1,1 1,1 1,0 1,1 0,1 1,1 0,1 2,2 1,1 1,0 0,-36 -26,0 0,3 -1,1 0,2 1,1 1,0 1,1Z"/>
<path onmouseover="hoverPath(evt)" onmouseout="recoverPath(evt)" fill="rgb(241,239,229)" d="M  231,230l -1,0 -1,1 -1,1 0,1 1,1 0,2 -1,1 1,1 2,0 1,1 0,2 -1,1 -1,1 -1,0 0,1 1,1 3,0 1,1 1,1 0,1 1,1 1,1 4,0 1,1 1,0 1,-1 0,0 1,-1 1,0 1,-1 1,0 1,-1 1,0 1,-1 1,0 1,-1 2,0 0,-46 -3,0 -1,-1 0,3 1,1 0,2 -1,1 -1,1 -2,0 -1,-1 0,2 -1,1 -1,0 -1,1 -2,0 -1,1 -2,0 -1,-1 0,2 -1,1 0,1 1,1 0,2 -1,1 1,1 2,0 1,1 3,0 1,1 0,2 -1,1 0,2 1,1 0,0 1,1 0,2 -1,1 -2,0 -1,-1 -1,-1 0,-1 -1,-1 -2,0 -1,1 -1,0 -1,1 -1,0 -1,1 -1,0 -1,1Z"/>
</svg>