<svg width="256" height="256" xmlns="http://www.w3.org/2000/svg"><script> 
var tempColor;
function hoverPath(evt){
obj = evt.target;
tempColor = obj.getAttribute("fill");
obj.setAttribute("fill","red");
//alert(tempColor);
//obj.setAttribute("stroke","red");}
function recoverPath(evt){
obj = evt.target;
obj.setAttribute("fill", tempColor);
//obj.setAttribute("stroke", tempColor);
}</script><path onmouseover="hoverPath(evt)" onmouseout="recoverPath(evt)" fill="rgb(253,253,252)" d="M  1,81l 9,0 1,1 30,0 0,-1 -2,0 -1,-1 -36,0 -1,1 -1,-1Z"/>
<path onmouseover="hoverPath(evt)" onmouseout="recoverPath(evt)" fill="rgb(236,235,227)" d="M  0,86l 0,34 15,0 0,-2 1,-1 17,0 1,1 0,1 8,0 0,-5 -1,1 -5,0 -1,-1 -3,0 -1,-1 0,-3 1,-1 2,0 0,-6 1,-1 3,0 0,-2 1,-1 3,0 0,-2 1,-1 0,-6 1,-1 0,-5 -34,0 -1,-1 -9,0Z"/>
<path onmouseover="hoverPath(evt)" onmouseout="recoverPath(evt)" fill="rgb(242,241,233)" d="M  0,126l 0,45 33,0 1,1 0,-1 1,-1 1,0 0,-2 -1,0 -1,-1 0,-43 -1,0 -1,-1 -2,0 -1,-1 0,-2 1,-1 -13,0 0,2 -1,1 -16,0Z"/>
<path onmouseover="hoverPath(evt)" onmouseout="recoverPath(evt)" fill="rgb(243,242,234)" d="M  0,179l 0,76 34,0 0,-12 1,-1 0,-16 -1,-1 0,-48 -34,0Z"/>
<path onmouseover="hoverPath(evt)" onmouseout="recoverPath(evt)" fill="rgb(241,239,233)" d="M  36,200l 0,2 1,-2 5,0 -6,-1 0,-23 1,-1 3,0 -3,-1 0,0 -1,-1 0,-1 -1,2 -2,0 -1,-1 -32,0 0,2 35,0 1,1Z"/>
<path onmouseover="hoverPath(evt)" onmouseout="recoverPath(evt)" fill="rgb(239,237,227)" d="M  39,124l -1,0 0,48 1,1 11,0 1,-1 1,0 0,-15 1,-1 1,0 0,-18 -1,0 -1,-1 0,-14 -12,0 -1,1Z"/>
<path onmouseover="hoverPath(evt)" onmouseout="recoverPath(evt)" fill="rgb(239,237,228)" d="M  38,203l 0,0 -1,1 -1,0 0,20 1,1 0,18 -1,1 0,11 15,0 0,-18 1,-1 1,0 0,-12 -1,-1 0,-20 -1,0 -1,-1 0,-3 1,-1 1,0 0,-21 -1,0 -1,-1 0,-1 -8,0 0,1 -1,1 -3,0 0,21 5,0 1,1 0,2 -1,1 -4,0 -1,1Z"/>
<path onmouseover="hoverPath(evt)" onmouseout="recoverPath(evt)" fill="rgb(253,253,253)" d="M  46,121l 0,0 -1,-1 0,-1 -1,-1 0,-5 1,-1 1,0 -2,7 0,1 -1,1 -12,0 3,1 1,0 1,1 0,43 1,-44 -1,0 8,-1 11,0 0,1 1,-1 25,0 -27,2Z"/>
<path onmouseover="hoverPath(evt)" onmouseout="recoverPath(evt)" fill="rgb(242,240,231)" d="M  46,116l 0,1 1,1 0,1 71,0 1,1 0,1 1,-1 2,0 1,1 1,1 0,44 -1,1 -1,0 0,3 1,1 0,14 -1,1 0,5 1,0 1,1 0,55 1,0 1,1 0,7 16,0 0,-76 1,-1 0,-92 -1,-1 0,-1 -75,0 0,1 -1,1 -3,0 0,1 -1,1 -1,0 -1,1 -3,0 -1,1 -4,0 -1,-1 -2,0 0,7 -1,1 -2,0 -1,-1 0,1 -1,1 0,2 -1,1 -3,0 0,2 -1,1 -3,0 0,6 -1,1 -2,0 0,1 3,0 1,1 3,0 0,-2 1,-1 6,0 1,1 0,2 -1,1 -1,0Z"/>
<path onmouseover="hoverPath(evt)" onmouseout="recoverPath(evt)" fill="rgb(244,242,235)" d="M  58,125l 0,48 3,0 1,1 22,0 0,-1 1,-1 34,0 0,-1 1,-1 0,-4 1,-1 1,0 0,-42 -1,-1 0,0 -1,1 0,1 -1,1Z"/>
<path onmouseover="hoverPath(evt)" onmouseout="recoverPath(evt)" fill="rgb(243,242,234)" d="M  57,178l -1,-1 0,33 -1,1 -1,0 0,11 1,1 0,14 1,0 1,1 0,1 2,0 1,-1 9,0 1,1 1,0 1,1 0,1 7,0 1,1 4,0 1,1 3,0 1,-1 4,0 1,1 0,2 2,0 1,-1 3,0 1,1 2,0 1,1 2,0 1,1 0,1 1,1 0,2 9,0 0,-2 1,-1 1,-1 1,0 0,-45 1,-1 1,0 0,-8 -1,0 -1,-1 0,-7 1,-1 0,-6Z"/>
<path onmouseover="hoverPath(evt)" onmouseout="recoverPath(evt)" fill="rgb(242,241,233)" d="M  56,241l 0,0 -1,-1 0,-1 -1,0 -1,-1 0,17 71,0 0,-6 -1,0 -1,-1 0,-45 -1,46 -1,0 -1,1 0,2 -1,1 -11,0 -1,-1 0,-2 -1,-1 0,-1 -2,0 -1,-1 -2,0 -1,-1 -1,0 -1,1 -4,0 -1,-1 0,-2 -2,0 -1,1 -5,0 -1,-1 -4,0 -1,-1 -7,0 -1,-1 0,-1 -1,0 -1,-1 -7,0 -1,1Z"/>
<path onmouseover="hoverPath(evt)" onmouseout="recoverPath(evt)" fill="rgb(253,253,253)" d="M  63,81l -1,0 0,1 81,0 1,1 0,1 1,1 0,94 -1,1 0,75 4,0 0,-34 1,-1 0,-136 1,-1 1,-1 19,0 1,1 49,0 1,1 5,0 -1,-1 -1,0 -1,-1 -47,0 -1,-1Z"/>
<path onmouseover="hoverPath(evt)" onmouseout="recoverPath(evt)" fill="rgb(243,242,234)" d="M  75,79l 101,0 1,1 44,0 -1,-1 0,-1 -1,-1 -1,-1 0,-2 -1,0 -1,-1 -1,-1 0,-1 -1,-1 -1,-1 0,-1 -1,-1 -1,-1 0,-1 -1,-1 -1,-1 0,-1 -1,-1 -1,-1 0,-1 -1,-1 -1,-1 0,-2 -1,0 -1,-1 -1,-1 0,-1 -1,-1 -1,-1 0,-1 -1,-1 -1,-1 0,-2 -1,0 -1,-1 -1,-1 -1,-1 -1,-1 0,-2 -1,0 -1,-1 -1,-1 0,-1 -1,-1 -1,-1 -1,-1 0,-1 -1,-1 -1,-1 0,-2 -1,0 -1,-1 -1,-1 0,-1 -1,-1 -1,-1 0,-2 -1,0 -1,-1 0,-2 -1,0 -1,-1 0,-2 -1,0 -1,-1 -1,-1 0,-1 -1,-1 -1,-1 0,-2 -1,0 -1,-1 -1,-1 -1,-1 0,-1 -1,-1 -1,-1 0,-2 -165,0 0,78 39,0 1,1 2,0 1,1 0,2 2,0 1,1 0,6 1,1 0,-2 1,-1 4,0 1,1 2,0 1,-1 3,0 1,-1 1,0 0,-1 1,-1 -1,0 -1,-1 0,-3 1,-1Z"/>
<path onmouseover="hoverPath(evt)" onmouseout="recoverPath(evt)" fill="rgb(232,228,216)" d="M  121,174l 0,-2 -1,2 -34,0 0,1 -1,1 -24,0 -1,-1 -3,0 -1,-1 0,-50 1,-1 61,0 -1,-1 0,-1 -34,0 0,1 38,52 -66,-16 -1,0 0,15 -1,1 -1,0 0,1 1,0 1,1 0,23 -1,1 -1,0 0,1 1,0 1,1 0,-2 1,-25 1,0 -1,-17 66,16 -63,2 63,0 0,-1 -63,1 63,-2Z"/>
<path onmouseover="hoverPath(evt)" onmouseout="recoverPath(evt)" fill="rgb(244,243,235)" d="M  151,87l 0,134 -1,1 0,33 81,0 0,-44 1,-1 0,-35 1,-1 0,-34 1,-1 0,-19 -1,-1 0,-6 -1,-1 0,-5 -1,-1 0,-2 -1,-1 0,-2 -1,-1 0,-2 -1,-1 0,-2 -1,-1 0,-3 -1,-1 0,-2 -1,-1 0,-1 -5,0 -1,-1 -49,0 -1,-1 -17,0 -1,1Z"/>
<path onmouseover="hoverPath(evt)" onmouseout="recoverPath(evt)" fill="rgb(248,237,144)" d="M  169,0l -2,0 0,1 1,1 0,0 1,1 0,1 2,2 1,0 1,1 0,2 1,1 1,1 0,1 1,1 1,0 1,1 0,2 1,0 1,1 0,2 1,0 1,1 0,2 1,1 1,1 0,1 1,1 1,0 1,1 0,2 1,1 1,1 0,1 1,1 1,1 1,1 0,1 1,1 1,0 1,1 0,2 1,1 1,1 1,1 1,0 1,1 0,2 1,1 1,1 0,1 1,1 1,1 0,1 1,1 1,0 1,1 0,2 1,1 1,1 0,1 1,1 1,1 0,1 1,1 1,1 0,1 1,1 1,1 0,1 1,1 1,1 0,1 1,1 1,0 1,1 0,2 1,1 1,1 0,1 1,1 0,1 1,0 1,1 1,0 1,1 1,1 0,2 -1,1 1,1 0,2 1,1 0,3 1,1 0,2 1,1 0,2 1,1 0,2 1,1 0,2 1,1 0,5 1,1 0,6 1,1 0,21 -1,1 0,34 -1,1 0,35 -1,1 0,43 22,0 0,-2 -12,0 -1,-1 0,-7 1,-1 0,-43 1,-1 0,-47 1,-1 0,-32 -1,-1 0,-7 -1,-1 0,-5 -1,-1 0,-2 -1,-1 0,-3 -1,-1 0,-2 -1,-1 0,-3 -1,-1 0,-4 1,-1 16,0 0,-6 -20,0 -1,-1 -1,-1 -1,-1 -1,-1 0,-1 -1,-1 -1,0 -1,-1 0,-2 -1,-1 -1,-1 0,-1 -1,-1 -1,-1 -1,-1 0,-1 -1,-1 -1,-1 0,-1 -1,-1 -1,0 -1,-1 0,-2 -1,-1 -1,-1 0,-1 -1,-1 -1,-1 0,-1 -1,-1 -1,-1 -1,-1 0,-1 -1,-1 -1,-1 0,-1 -1,-1 -1,0 -1,-1 0,-2 -1,-1 -1,0 -1,-1 0,-2 -1,-1 -2,-2 0,-1 -1,-1 -1,0 -1,-1 0,-2 -1,-1 -1,0 -1,-1 0,-2 -1,-1 -1,-1 -1,-1 0,-1 -1,-1 -1,-1 0,-1 -1,-1 -1,-1 0,-1 -1,-1 -1,-1 0,-1 -1,-1 -1,-1 0,-1 -1,-1 -1,0 -1,-1 0,-2 -1,-1 -1,-1 0,-2Z"/>
<path onmouseover="hoverPath(evt)" onmouseout="recoverPath(evt)" fill="rgb(244,243,236)" d="M  180,1l 0,0 1,1 1,1 0,2 1,0 1,1 1,1 0,1 1,1 1,1 0,1 1,1 1,1 0,1 1,1 1,1 0,1 1,1 1,1 0,1 1,1 1,1 1,1 0,2 1,0 1,1 1,1 0,2 1,0 1,1 1,1 0,1 1,1 1,1 1,1 0,2 1,0 1,1 1,1 0,2 1,0 1,1 1,1 0,1 1,1 1,1 0,1 1,1 1,1 1,1 0,1 1,1 1,1 0,1 1,1 1,1 0,2 1,0 1,1 1,1 0,1 1,1 1,1 0,1 1,1 1,1 1,1 0,1 1,1 1,1 0,2 1,0 1,1 1,1 0,1 1,1 1,1 1,1 19,0 0,-78 -74,0 -1,1Z"/>
<path onmouseover="hoverPath(evt)" onmouseout="recoverPath(evt)" fill="rgb(245,244,236)" d="M  240,90l 0,0 1,1 0,3 1,1 0,2 1,1 0,3 1,1 0,2 1,1 0,5 1,1 0,7 1,1 0,34 -1,1 0,47 -1,1 0,43 -1,1 0,5 11,0 0,-163 -15,0Z"/>
</svg>