<svg width="256" height="256" xmlns="http://www.w3.org/2000/svg"><script> 
var tempColor;
function hoverPath(evt){
obj = evt.target;
tempColor = obj.getAttribute("fill");
obj.setAttribute("fill","red");
//alert(tempColor);
//obj.setAttribute("stroke","red");}
function recoverPath(evt){
obj = evt.target;
obj.setAttribute("fill", tempColor);
//obj.setAttribute("stroke", tempColor);
}</script><path onmouseover="hoverPath(evt)" onmouseout="recoverPath(evt)" fill="rgb(244,243,236)" d="M  0,84l 0,171 63,0 0,-11 1,-1 0,-2 1,-1 0,-7 1,-1 -1,-1 0,-20 -1,-1 0,-2 1,-1 0,-5 1,-1 0,-2 -1,-1 0,-5 -1,-1 0,-6 -1,-1 0,-4 -1,-1 0,-5 -1,-1 0,-11 1,-1 0,-2 1,-1 0,-1 1,-1 0,-3 1,-1 0,-4 1,-1 1,-1 7,0 1,1 2,0 1,1 1,0 1,1 1,0 1,1 1,1 1,0 1,1 2,0 0,-13 1,-1 0,-25 1,-1 0,-22 1,-1 0,-14 -1,0 -1,1 -1,0 0,1 -1,1 -2,2 -1,0 -1,1 -10,0 -1,-1 -1,-1 -1,-1 0,-1 -1,-1 0,-3 1,-1 0,-3 1,-1 0,-1 -1,-1 0,-2 -1,-1 -1,-1 -1,-1 -1,0 -1,-1 -1,-1 -4,0 -1,1 -2,0 0,1 -1,1 -1,1 -1,1 -2,2 -1,1 -2,0 0,1 -1,1 -2,0 -1,1 -1,1 -2,0 -1,1 -6,0 -1,1 -1,1 -1,1 -1,1 -1,1 0,1 -1,1 -1,1 -1,0 -1,1 -1,0 -1,1 -7,0 -1,-1 -10,0 -1,1 -3,0 -1,1Z"/>
<path onmouseover="hoverPath(evt)" onmouseout="recoverPath(evt)" fill="rgb(247,236,138)" d="M  0,52l 0,6 3,0 1,-1 2,0 1,-1 1,0 1,-1 2,0 1,-1 2,0 1,-1 2,0 1,-1 2,0 1,-1 2,0 1,-1 2,0 1,-1 2,0 1,-1 2,0 1,-1 1,0 1,-1 2,0 1,-1 2,0 1,-1 2,0 1,-1 2,0 1,-1 2,0 1,-1 2,0 1,-1 2,0 1,-1 2,0 1,-1 2,0 1,-1 2,0 1,-1 1,0 1,-1 2,0 1,-1 2,0 1,-1 1,0 1,-1 3,0 1,-1 2,0 1,-1 3,0 0,-1 1,-1 5,0 1,-1 2,0 1,-1 2,0 1,-1 2,0 1,-1 2,0 1,-1 3,0 1,-1 2,0 1,-1 2,0 1,-1 2,0 1,-1 3,0 1,-1 2,0 1,-1 2,0 1,-1 2,0 1,-1 2,0 1,-1 2,0 1,-1 3,0 1,-1 4,0 1,1 0,-2 1,-1 1,0 1,-1 2,0 1,-1 4,0 0,-2 1,-1 2,0 1,-1 3,0 1,-1 2,0 1,1 2,0 1,-1 5,0 1,-1 4,0 1,-1 7,0 0,-1 -41,0 0,2 -1,1 -2,0 -1,1 -2,0 -1,1 -2,0 -1,1 -2,0 -1,1 -2,0 -1,1 -2,0 -1,1 -2,0 -1,1 -2,0 -1,1 -3,0 -1,1 -2,0 -1,1 -2,0 -1,1 -3,0 -1,1 -2,0 -1,1 -2,0 -1,1 -2,0 -1,1 -2,0 -1,1 -2,0 -1,1 -2,0 -1,1 -2,0 -1,1 -2,0 -1,1 -4,0 0,1 -1,1 -3,0 -1,-1 0,1 -1,1 -2,0 -1,1 -2,0 -1,1 -1,0 -1,1 -2,0 -1,1 -2,0 -1,1 -2,0 -1,1 -2,0 -1,1 -2,0 -1,1 -2,0 -1,1 -2,0 -1,1 -2,0 -1,1 -2,0 -1,1 -2,0 -1,1 -2,0 -1,1 -2,0 -1,1 -2,0 -1,1 -2,0 -1,1 -2,0 -1,1 -1,0 -1,1 -2,0 -1,1 -2,0 -1,1 -2,0 -1,1 -2,0 -1,1 -1,0 -1,1 -4,0Z"/>
<path onmouseover="hoverPath(evt)" onmouseout="recoverPath(evt)" fill="rgb(243,242,233)" d="M  70,154l 0,6 -1,1 0,1 -1,1 0,1 -1,1 0,1 -1,1 0,2 1,1 0,2 1,1 0,2 1,1 0,8 1,1 0,8 1,1 0,1 1,1 0,6 -1,1 0,4 -1,1 0,3 1,1 0,31 -1,1 0,11 12,0 0,-3 1,-1 0,-14 1,-1 0,-25 1,-1 0,-27 1,-1 0,-20 1,-1 0,-3 -6,0 -1,-1 -1,0 -1,-1 -1,-1 -1,-1 -1,0 -1,-1 -3,0 -1,1Z"/>
<path onmouseover="hoverPath(evt)" onmouseout="recoverPath(evt)" fill="rgb(244,243,235)" d="M  96,73l -1,0 0,21 -1,1 0,21 -1,1 0,27 -1,1 0,7 33,0 1,-1 1,0 1,-1 2,0 1,-1 7,0 1,1 2,0 1,1 1,1 0,-18 1,-1 0,-3 1,-1 0,-7 -1,-1 0,-1 -1,-1 -1,-1 0,-1 -1,-1 0,-7 1,-1 0,-1 1,-1 0,-1 1,-1 0,-1 1,-1 1,-1 0,-10 1,-1 0,-1 2,-2 0,-5 -1,-1 -5,0 -1,-1 -4,0 -1,-1 -5,0 -1,-1 -1,-1 -1,0 -1,-1 -1,-1 0,-1 -1,-1 0,-1 -1,-1 0,-1 -1,0 -1,-1 -1,0 -1,-1 -3,0 0,1 -1,1 -1,1 -1,1 -15,0 -1,1Z"/>
<path onmouseover="hoverPath(evt)" onmouseout="recoverPath(evt)" fill="rgb(253,253,253)" d="M  93,178l -3,0 -1,-1 0,-13 1,-1 0,-8 1,-1 -1,-1 0,-9 1,-1 0,-27 1,-1 0,-21 1,-1 0,-22 -1,-1 0,-8 -1,-1 0,-9 -1,-1 0,-9 -1,-1 0,-8 -1,-1 0,-2 -1,0 0,4 1,1 0,7 1,1 0,9 1,1 0,9 1,1 0,11 1,1 0,16 -1,1 0,22 -1,1 0,25 -1,1 0,13 -1,1 0,1 1,1 0,5 -1,1 0,20 -1,1 0,27 -1,1 0,25 -1,1 0,14 -1,1 0,2 2,0 0,-15 1,-1 0,-24 1,-1 0,-27 1,-1 0,-6 1,-1 2,0 1,-1Z"/>
<path onmouseover="hoverPath(evt)" onmouseout="recoverPath(evt)" fill="rgb(171,198,238)" d="M  157,8l 0,1 1,1 0,1 1,1 0,1 1,1 0,2 1,1 0,5 1,1 0,6 1,1 0,6 -1,1 0,6 -1,1 0,2 -1,1 0,3 -1,1 0,1 -1,1 0,1 -1,1 -1,1 0,3 -1,1 0,5 1,1 0,6 1,1 0,2 1,1 0,1 1,1 0,1 1,1 0,3 -1,1 -1,1 -1,1 0,1 1,0 1,-1 0,0 1,-1 1,0 1,-1 3,0 1,1 1,1 1,1 1,1 1,1 1,1 1,1 1,1 2,2 1,1 0,1 1,1 1,1 1,1 1,1 1,1 1,1 1,1 1,1 1,1 1,1 1,1 1,0 1,1 1,1 1,0 1,1 1,1 1,0 1,1 1,1 1,1 1,0 1,1 1,1 1,0 1,1 1,1 1,1 1,1 1,1 1,1 0,1 1,1 1,1 1,1 0,1 1,1 1,1 0,1 1,1 1,1 0,1 1,1 0,2 1,1 0,1 1,1 0,2 1,1 0,4 1,1 0,27 -1,1 0,5 -1,1 0,2 1,1 0,7 1,1 0,3 1,1 0,2 1,1 0,2 1,1 0,2 1,1 0,1 1,1 0,2 1,1 0,1 1,1 0,1 1,1 0,1 1,1 0,1 1,1 0,1 1,1 0,1 1,1 0,1 1,1 1,1 0,1 1,1 1,1 0,1 1,1 0,1 1,1 1,1 0,1 1,1 0,1 1,1 1,1 0,1 1,1 0,1 1,1 1,1 1,1 1,1 1,1 1,1 1,1 0,1 1,1 1,1 2,2 0,2 2,0 0,-15 -2,0 -1,-1 -1,-1 -1,-1 -1,-1 0,-1 -1,-1 -1,-1 0,-1 -1,-1 0,-1 -1,-1 0,-1 -1,-1 0,-1 -1,-1 0,-1 -1,-1 0,-1 -1,-1 0,-1 -1,-1 0,-1 -1,-1 -1,-1 0,-1 -1,-1 0,-1 -1,-1 -1,-1 0,-1 -1,-1 0,-1 -1,-1 0,-1 -1,-1 0,-1 -1,-1 0,-2 -1,-1 0,-1 -1,-1 0,-1 -1,-1 0,-1 -1,-1 0,-3 -1,-1 0,-12 1,-1 0,-2 1,-1 0,-1 1,-1 0,-1 1,-1 0,-13 -1,-1 0,-2 -1,-1 0,-2 -1,-1 0,-3 -1,-1 0,-3 -1,-1 0,-3 -1,-1 0,-1 -1,-1 0,-1 -1,-1 0,-1 -1,-1 0,-2 -1,-1 0,-1 -1,-1 0,-1 -1,-1 0,-1 -1,-1 0,-1 -1,-1 -1,-1 0,-1 -1,-1 -1,-1 -1,-1 0,-1 -1,0 -1,-1 -1,-1 -1,0 -1,-1 -1,-1 -1,-1 -1,0 -1,-1 -1,0 -1,-1 -1,-1 -1,0 -1,-1 -1,0 -1,-1 -1,0 -1,-1 -1,-1 -1,-1 -1,-1 -1,-1 -1,-1 -1,-1 -1,-1 -1,-1 -1,-1 0,-1 -1,-1 -1,-1 0,-1 -1,-1 -1,-1 -1,-1 -1,-1 -1,-1 -1,0 -1,-1 -1,0 -1,-1 -1,-1 0,-1 -1,-1 -1,-1 -1,-1 0,-1 -1,-1 -1,-1 0,-1 -1,-1 0,-1 -1,-1 0,-2 -1,-1 0,-1 -1,-1 0,-3 -1,-1 0,-5 1,-1 0,-1 1,-1 1,-1 0,-2 1,-1 0,-2 1,-1 0,-2 1,-1 0,-3 3,-3 1,0 1,-1 4,0 1,-1 4,0 1,-1 7,0 1,-1 7,0 1,-1 7,0 1,-1 2,0 1,1 1,0 -1,-1 0,-1 -3,0 -1,1 -6,0 -2,1 -5,0 -3,1 -5,0 -3,1 -4,0 -1,1 -5,0 -1,-1 -1,-1 0,-4 -1,-1 0,-6 -1,-1 0,-4 -1,-1 0,-2 -1,-1 0,-2 -1,-1 0,-2 -1,-1 0,-3 -1,-1 -1,1 -3,0 -1,1 -1,0 -1,1Z"/>
<path onmouseover="hoverPath(evt)" onmouseout="recoverPath(evt)" fill="rgb(171,198,238)" d="M  158,200l 0,3 -1,1 0,11 1,1 0,6 1,1 0,3 1,1 0,14 -1,1 0,2 1,1 0,1 1,1 0,1 1,1 0,1 1,1 0,1 1,1 0,2 1,0 0,-3 -1,-1 0,-1 -1,-1 0,-1 -1,-1 0,-2 -1,-1 0,-19 -1,-1 0,-4 -1,-1 0,-4 -1,-1 0,-10 1,-1 0,-2 -1,-1 1,-1 1,0 0,-1 1,-1 0,-2 1,-1 0,-1 1,-1 0,-2 1,-1 0,-1 -1,-1 0,-2 -1,-1 0,-2 -1,-1 0,-1 -1,-1 0,-1 -1,-1 0,-1 -1,-1 0,-1 -1,-1 0,-1 -1,-1 -1,-1 0,-1 -1,-1 -1,-1 0,-3 -1,-1 0,-4 -1,-1 0,-1 -1,-1 -1,-1 0,-1 -1,-1 0,-1 -1,-1 0,-13 1,-1 0,-5 1,-1 0,-2 1,-1 0,-1 1,-1 0,-4 -1,-1 0,-1 -1,-1 0,-1 -1,-1 -1,-1 -1,-1 -1,-1 0,-5 1,-1 0,-1 1,-1 0,-1 1,-1 1,0 1,-1 1,-1 1,-1 0,-8 1,-1 2,-2 0,-2 -2,0 -1,-1 0,-6 -1,-1 0,-1 -1,0 -1,-1 -9,0 -1,-1 -5,0 -1,-1 -1,0 1,1 6,1 5,1 5,0 1,1 1,1 0,7 -1,1 -1,1 0,1 -1,1 0,10 -1,1 -1,1 0,1 -1,1 0,1 -1,1 0,1 -1,1 0,5 1,1 0,1 1,1 1,1 0,1 1,1 0,9 -1,1 0,3 -1,1 0,18 -1,1 -2,0 -1,-1 -1,-1 -2,0 -1,-1 -5,0 -1,1 -2,0 -1,1 -1,0 -1,1 -33,0 1,1 11,0 1,1 21,0 1,-1 1,0 1,-1 1,0 1,-1 6,0 1,1 1,1 1,0 1,1 4,0 1,1 1,0 1,1 1,1 0,3 1,1 0,5 1,1 1,1 1,1 1,1 1,0 -1,-1 4,28 -1,1 -1,-26 0,2 1,1 0,1 1,1 0,1 1,1 0,1 1,1 0,2 1,1 0,2 -1,1 0,2 -1,1 0,2 -1,1 0,3 -2,-24 1,26Z"/>
<path onmouseover="hoverPath(evt)" onmouseout="recoverPath(evt)" fill="rgb(244,243,236)" d="M  168,6l -1,0 0,2 1,1 0,2 1,1 0,2 1,1 0,2 1,1 0,4 1,1 0,6 1,1 0,4 1,1 3,0 1,-1 6,0 1,-1 7,0 1,-1 6,0 1,-1 6,0 1,-1 1,0 0,-2 -1,-1 0,-1 -1,-1 0,-1 -1,-1 0,-1 -1,-1 0,-1 -1,-1 0,-2 -1,-1 0,-3 -1,-1 0,-2 -1,-1 0,-2 -1,-1 0,-2 -1,-1 0,-3 -9,0 0,2 -1,1 -7,0 -1,1 -4,0 -1,1 -5,0 -1,1Z"/>
<path onmouseover="hoverPath(evt)" onmouseout="recoverPath(evt)" fill="rgb(243,242,234)" d="M  218,26l 0,2 1,1 7,0 1,-1 9,0 1,-1 7,0 1,-1 10,0 0,-26 -24,0 0,2 1,1 0,3 1,1 0,2 1,1 0,3 1,1 0,4 -1,1 0,2 -1,1 -3,0 -1,-1 -1,0 -1,1 -3,0 -1,1 -3,0 -1,1 -2,0 1,1Z"/>
<path onmouseover="hoverPath(evt)" onmouseout="recoverPath(evt)" fill="rgb(244,243,237)" d="M  0,1l 0,15 1,0 1,-1 8,0 1,-1 2,0 1,-1 -1,-1 0,-1 -1,-1 -1,-1 0,-1 -1,-1 -1,-1 0,-1 -1,-1 0,-1 -1,-1 0,-2 -6,0 -1,1Z"/>
<path onmouseover="hoverPath(evt)" onmouseout="recoverPath(evt)" fill="rgb(244,243,236)" d="M  0,23l 0,25 3,0 1,-1 1,0 1,-1 2,0 1,-1 2,0 1,-1 2,0 1,-1 2,0 1,-1 1,0 1,-1 2,0 1,-1 2,0 1,-1 2,0 1,-1 2,0 1,-1 2,0 1,-1 2,0 1,-1 2,0 1,-1 2,0 1,-1 2,0 1,-1 2,0 1,-1 2,0 1,-1 2,0 1,-1 2,0 1,-1 2,0 1,-1 2,0 1,-1 1,0 1,-1 2,0 1,-1 2,0 0,-1 1,-1 0,-1 -1,-1 0,-1 -1,-1 0,-2 -1,-1 0,-2 -1,-1 0,-2 -1,-1 0,-1 -1,-1 0,-2 -1,-1 0,-4 -52,0 0,1 1,1 0,1 1,1 1,1 1,1 1,1 1,1 0,2 1,1 0,5 -2,2 -1,1 -1,0 -1,1 -6,0 -1,1 -5,0 -1,1 -2,0 -1,1Z"/>
<path onmouseover="hoverPath(evt)" onmouseout="recoverPath(evt)" fill="rgb(239,240,236)" d="M  0,61l 0,20 3,0 1,-1 12,0 1,1 5,0 1,-1 1,0 1,-1 1,0 1,-1 0,-1 1,-1 1,-1 1,-1 1,-1 1,-1 1,-1 6,0 1,-1 2,0 1,-1 1,-1 2,0 0,-1 1,-1 2,0 1,-1 1,-1 1,-1 1,-1 1,-1 0,-1 1,-1 2,0 1,-1 6,0 1,1 1,1 1,0 1,1 1,1 1,1 1,1 0,2 1,1 0,3 -1,1 0,3 -1,1 0,1 1,1 0,1 1,1 1,1 8,0 1,-1 1,0 1,-1 1,-1 0,-1 1,-1 1,0 1,-1 1,0 0,-10 -1,-1 0,-9 -1,-1 0,-9 -1,-1 0,-7 -1,-1 0,-3 -2,0 -1,1 -2,0 -1,1 -3,0 -1,1 -1,0 -1,1 -2,0 -1,1 -2,0 -1,1 -1,0 -1,1 -2,0 -1,1 -2,0 -1,1 -2,0 -1,1 -2,0 -1,1 -2,0 -1,1 -2,0 -1,1 -2,0 -1,1 -2,0 -1,1 -2,0 -1,1 -2,0 -1,1 -1,0 -1,1 -2,0 -1,1 -2,0 -1,1 -2,0 -1,1 -2,0 -1,1 -2,0 -1,1 -2,0 -1,1 -2,0 -1,1 -2,0 -1,1 -1,0 -1,1 -2,0 -1,1 -3,0 -1,1Z"/>
<path onmouseover="hoverPath(evt)" onmouseout="recoverPath(evt)" fill="rgb(171,198,238)" d="M  11,17l -8,0 -1,1 -2,0 0,2 2,0 1,-1 5,0 1,-1 1,0 1,-1 1,1 3,0 1,-1 1,0 1,-1 1,-1 0,-3 -1,-1 0,-2 -1,-1 -1,-1 -1,-1 -1,-1 -1,-1 0,-1 -1,-1 0,-2 -3,0 0,1 1,1 0,1 1,1 0,1 1,1 1,1 0,1 1,1 1,1 0,1 1,1 0,2 -2,2 -2,0 0,2 -1,-1Z"/>
<path onmouseover="hoverPath(evt)" onmouseout="recoverPath(evt)" fill="rgb(245,244,236)" d="M  72,0l -4,0 0,3 1,1 0,2 1,1 0,1 1,1 0,2 1,1 0,2 1,1 0,2 1,1 0,1 1,1 0,2 1,1 1,0 0,-1 1,-1 4,0 1,-1 2,0 1,-1 2,0 1,-1 2,0 1,-1 2,0 1,-1 2,0 1,-1 2,0 1,-1 2,0 1,-1 2,0 1,-1 3,0 1,-1 2,0 1,-1 2,0 1,-1 3,0 1,-1 2,0 1,-1 2,0 1,-1 2,0 1,-1 2,0 1,-1 2,0 1,-1 2,0 1,-1 2,0 1,-1 2,0 0,-1Z"/>
<path onmouseover="hoverPath(evt)" onmouseout="recoverPath(evt)" fill="rgb(173,199,238)" d="M  75,151l 0,0 1,1 1,0 1,1 1,1 1,1 1,0 1,1 4,0 0,-1 -2,0 -1,-1 -1,0 -1,-1 -1,-1 -1,0 -1,-1 -1,0 -1,-1 -1,1 -1,-1 -1,-1 -5,0 -1,1 0,4 -1,1 0,3 -1,1 0,1 -1,1 0,2 -1,1 0,9 1,1 0,5 1,1 0,4 1,1 0,6 1,1 0,5 1,1 0,4 -1,1 0,5 -1,1 1,1 0,20 1,1 0,2 -1,1 0,7 -1,1 0,2 -1,1 0,10 3,0 0,-12 1,-1 0,-29 -1,-1 0,-5 1,-1 0,-4 1,-1 0,-4 -1,-1 0,-1 -1,-1 0,-8 -1,-1 0,-8 -1,-1 0,-2 -1,-1 0,-2 -1,-1 0,-4 1,-1 0,-1 1,-1 0,-1 1,-1 0,-1 1,-1 0,-6 2,-2 3,0 1,-1 1,1Z"/>
<path onmouseover="hoverPath(evt)" onmouseout="recoverPath(evt)" fill="rgb(244,243,235)" d="M  91,183l 0,4 -1,1 0,27 -1,1 0,24 -1,1 0,14 74,0 0,-1 -1,-1 0,-1 -1,-1 0,-1 -1,-1 0,-1 -1,-1 0,-1 -1,-1 0,-4 1,-1 0,-12 -1,-1 0,-3 -1,-1 0,-6 -1,-1 0,-13 1,-1 0,-3 1,-1 0,-4 1,-1 0,-2 1,-1 0,-2 1,-1 -1,-1 0,-2 -1,-1 0,-1 -1,-1 0,-1 -1,-1 0,-1 -1,-1 0,-3 -1,0 -1,-1 -1,-1 -1,-1 -1,-1 -1,-1 0,-5 -1,-1 0,-3 -1,-1 -1,0 -1,-1 -4,0 -1,-1 -1,0 -1,-1 -1,-1 -4,0 -1,1 -1,0 -1,1 -1,0 -1,1 -23,0 -1,-1 -5,0 -1,-1 -2,0 -1,1 -2,0 -1,-1 0,8 -1,1 0,11 46,0 1,1 0,2 -1,1 -43,0 -1,1 -2,0Z"/>
<path onmouseover="hoverPath(evt)" onmouseout="recoverPath(evt)" fill="rgb(243,242,235)" d="M  94,29l -1,0 -1,1 -2,0 0,1 1,1 0,8 1,1 0,9 1,1 0,9 1,1 0,8 1,1 0,1 3,0 1,-1 15,0 1,-1 1,-1 0,-1 1,-1 5,0 1,1 1,0 1,1 1,0 1,1 0,1 1,1 0,1 1,1 0,1 1,1 1,-1 3,0 1,1 5,0 1,1 9,0 1,1 1,0 1,1 0,1 1,1 0,6 1,0 0,-1 1,-1 1,-1 1,-1 0,-1 -1,-1 0,-1 -1,-1 0,-1 -1,-1 0,-2 -1,-1 0,-6 -1,-1 0,-7 1,-1 0,-3 1,-1 1,-1 0,-1 1,-1 0,-1 1,-1 0,-3 1,-1 0,-2 1,-1 0,-6 1,-1 0,-4 -1,-1 0,-6 -1,-1 0,-5 -1,-1 0,-2 -1,-1 0,-1 -1,-1 0,-1 -1,-1 -3,0 -1,1 -2,0 -1,1 -1,0 0,4 -1,1 -2,0 -1,-1 0,-2 -2,0 -1,1 -3,0 -1,1 -2,0 -1,1 -2,0 -1,1 -2,0 -1,1 -2,0 -1,1 -2,0 -1,1 -3,0 -1,1 -2,0 -1,1 -2,0 -1,1 -2,0 -1,1 -3,0 -1,1 -2,0 -1,1 -2,0 -1,1 -2,0 -1,1Z"/>
<path onmouseover="hoverPath(evt)" onmouseout="recoverPath(evt)" fill="rgb(244,243,237)" d="M  151,105l -1,1 -1,0 0,1 -1,1 0,1 -1,1 0,3 1,1 0,0 1,1 1,1 1,1 0,1 1,1 0,1 1,1 0,6 -1,1 0,1 -1,1 0,2 -1,1 0,5 -1,1 0,11 1,1 0,1 1,1 0,1 1,1 1,1 0,1 1,1 0,4 1,1 0,3 1,1 1,1 0,1 1,1 1,1 0,1 1,1 0,1 1,1 0,1 1,1 0,1 1,1 0,1 1,1 0,2 1,1 0,2 1,1 0,3 -1,1 0,2 -1,1 0,1 -1,1 0,2 -1,1 0,2 -1,1 0,2 -1,1 0,8 1,1 0,4 1,1 0,4 1,1 0,19 1,1 0,2 1,1 0,1 1,1 0,1 1,1 0,4 84,0 0,-1 -1,-1 0,0 -1,-1 -1,-1 -1,-1 0,-1 -1,-1 -1,-1 -1,-1 -1,-1 -1,-1 -1,-1 -1,-1 0,-1 -1,-1 0,-1 -1,-1 -1,-1 0,-1 -1,-1 0,-1 -1,-1 -1,-1 0,-1 -1,-1 0,-1 -1,-1 -1,-1 0,-1 -1,-1 -1,-1 0,-1 -1,-1 0,-1 -1,-1 0,-1 -1,-1 0,-1 -1,-1 0,-1 -1,-1 0,-1 -1,-1 0,-1 -1,-1 0,-2 -1,-1 0,-1 -1,-1 0,-2 -1,-1 0,-2 -1,-1 0,-2 -1,-1 0,-3 -1,-1 0,-7 -1,-1 0,-4 1,-1 0,-5 1,-1 0,-25 -1,-1 0,-4 -1,-1 0,-2 -1,-1 0,-1 -1,-1 0,-2 -1,-1 0,-1 -1,-1 -1,-1 0,-1 -1,-1 -1,-1 0,-1 -1,-1 -1,-1 -1,-1 0,-1 -1,-1 -1,-1 -1,-1 -1,-1 -1,-1 -1,0 -1,-1 -1,-1 -1,0 -1,-1 -1,-1 -1,-1 -1,0 -1,-1 -1,-1 -1,0 -1,-1 -1,-1 -1,0 -1,-1 -1,-1 -2,-2 -1,-1 -1,-1 -1,-1 -1,-1 -1,-1 -1,-1 -1,-1 -1,-1 0,-1 -1,-1 -1,-1 -1,-1 -1,-1 -1,-1 -1,-1 -1,-1 -1,-1 -1,-1 -1,-1 -1,0 -1,1 -1,0 -1,1 -1,1 -2,0 0,2 -1,1 -1,1 -1,1 0,8 -3,3Z"/>
<path onmouseover="hoverPath(evt)" onmouseout="recoverPath(evt)" fill="rgb(244,243,236)" d="M  174,41l -1,0 -1,1 -1,1 0,3 -1,1 0,2 -1,1 0,2 -1,1 0,2 -1,1 -1,1 0,1 -1,1 0,3 1,1 0,3 1,1 0,1 1,1 0,2 1,1 0,1 1,1 0,1 1,1 1,1 0,1 1,1 1,1 1,1 0,1 1,1 1,0 1,1 1,0 3,3 1,1 1,1 1,1 0,1 1,1 1,1 0,1 1,1 1,1 1,1 1,1 1,1 1,1 1,1 1,1 1,1 1,0 1,1 1,0 1,1 1,0 1,1 1,1 1,0 1,1 1,0 1,1 1,1 1,1 1,0 1,1 1,1 1,0 1,1 0,1 1,1 1,1 1,1 0,1 1,1 1,1 0,1 1,1 0,1 1,1 0,1 1,1 0,1 1,1 0,2 1,1 0,1 1,1 0,1 1,1 0,1 1,1 0,3 1,1 0,3 1,1 0,3 1,1 0,2 1,1 0,2 1,1 0,15 -1,1 0,1 -1,1 0,1 -1,1 0,2 -1,1 0,10 1,1 0,3 1,1 0,1 1,1 0,1 1,1 0,1 1,1 0,2 1,1 0,1 1,1 0,1 1,1 0,1 1,1 0,1 1,1 1,1 0,1 1,1 0,1 1,1 1,1 0,1 1,1 0,1 1,1 0,1 1,1 0,1 1,1 0,1 1,1 0,1 1,1 0,1 1,1 0,1 1,1 1,1 0,1 1,1 1,1 1,1 1,0 0,-82 -2,0 -1,-1 0,-2 -1,-1 0,-1 -1,-1 0,-2 -1,-1 0,-2 -1,-1 0,-2 -1,-1 0,-2 -1,-1 0,-2 -1,-1 0,-1 -1,-1 0,-2 -1,-1 0,-2 -1,-1 0,-2 -1,-1 0,-2 -1,-1 0,-2 -1,-1 0,-2 -1,-1 0,-1 -1,-1 0,-2 -1,-1 0,-2 -1,-1 0,-2 -1,-1 0,-1 -1,-1 0,-2 -1,-1 0,-3 -1,-1 0,-2 -1,-1 0,-4 -1,-1 0,-2 -1,0 -1,-1 0,-2 -1,-1 0,-2 -1,-1 0,-2 -1,-1 0,-2 -1,-1 0,-2 -1,-1 0,-1 -1,-1 0,-2 -1,-1 0,-2 -1,-1 0,-2 -1,-1 0,-2 -1,-1 0,-2 -1,-1 0,-2 -1,-1 0,-2 -1,-1 0,-1 -1,-1 0,-2 -1,-1 0,-2 -1,-1 0,-2 -1,0 -1,-1 -1,1 -7,0 -1,1 -7,0 -1,1 -7,0 -1,1 -4,0 -1,1 -4,0 -1,1Z"/>
<path onmouseover="hoverPath(evt)" onmouseout="recoverPath(evt)" fill="rgb(246,235,138)" d="M  201,0l -1,0 0,2 1,1 0,2 1,1 0,2 1,1 0,2 1,1 0,3 1,1 0,2 1,1 0,1 1,1 0,1 1,1 0,1 1,1 0,1 1,1 0,3 2,0 1,1 0,1 1,1 0,2 -1,1 0,1 1,1 0,2 1,1 0,2 1,1 0,1 1,1 0,2 1,1 0,2 1,1 0,2 1,1 0,2 1,1 0,2 1,1 0,2 1,1 0,2 1,1 0,1 1,1 0,2 1,1 0,2 1,1 0,2 1,1 0,2 1,1 0,2 1,0 1,1 0,2 1,1 0,4 1,1 0,2 1,1 0,3 1,1 0,2 1,1 0,1 1,1 0,2 1,1 0,2 1,1 0,2 1,1 0,1 1,1 0,2 1,1 0,2 1,1 0,2 1,1 0,2 1,1 0,2 1,1 0,2 1,1 0,1 1,1 0,2 1,1 0,2 1,1 0,2 1,1 0,2 1,1 0,2 1,1 0,1 1,1 0,2 1,0 0,-21 -2,0 -1,-1 0,-2 -1,-1 0,-2 -1,-1 0,-2 -1,-1 0,-1 -1,-1 0,-2 -1,-1 0,-2 -1,-1 0,-2 -1,-1 0,-2 -1,-1 0,-2 -1,-1 0,-2 -1,-1 0,-2 -1,-1 0,-2 -1,-1 0,-1 -1,-1 0,-2 -1,-1 0,-2 -1,-1 0,-2 -1,0 -1,-1 0,-2 -1,-1 0,-1 -1,-1 0,-2 1,-1 1,0 -2,-1 0,-2 -1,-1 0,-1 -1,-1 0,-2 -1,-1 0,-2 -1,-1 0,-2 -1,-1 0,-2 -1,-1 0,-2 -1,-1 0,-2 -1,-1 0,-2 -1,-1 0,-1 -1,-1 0,-2 -1,-1 0,-2 -1,-1 0,-2 -1,-1 0,-2 -1,-1 0,-2 -1,0 -2,-2 0,-1 -1,-1 0,-2 1,-1 0,-2 -1,-1 0,-1 -1,0 -1,-1 0,-3 1,-1 3,0 -4,-1 0,-2 -1,-1 0,-2 -1,-1 0,-2 -1,-1 0,-2 -1,-1 0,-2 -1,-1 0,-3Z"/>
<path onmouseover="hoverPath(evt)" onmouseout="recoverPath(evt)" fill="rgb(245,244,236)" d="M  210,1l 0,1 1,1 0,2 1,1 0,2 1,1 0,2 1,1 0,2 1,1 0,2 3,0 1,1 0,2 -1,1 -3,0 0,1 3,0 1,-1 3,0 1,-1 3,0 1,-1 3,0 1,1 1,0 0,-2 1,-1 0,-2 -1,-1 0,-3 -1,-1 0,-2 -1,-1 0,-3 -1,-1 0,-3 -18,0 -1,1Z"/>
<path onmouseover="hoverPath(evt)" onmouseout="recoverPath(evt)" fill="rgb(240,240,234)" d="M  221,35l 0,1 1,1 0,2 1,1 0,2 1,1 0,2 1,1 0,2 1,1 0,1 1,1 0,2 1,1 0,2 1,1 0,2 1,1 0,2 1,1 0,2 1,1 0,2 1,1 0,2 1,1 0,1 1,1 0,2 1,0 1,1 0,2 -1,1 -1,0 1,1 0,1 1,1 0,2 1,0 1,1 0,2 1,1 0,2 1,1 0,2 1,1 0,1 1,1 0,2 1,1 0,2 1,1 0,2 1,1 0,2 1,1 0,2 1,1 0,2 1,1 0,2 1,1 0,2 1,1 0,1 1,1 0,2 1,1 0,2 1,1 0,2 1,0 0,-103 -9,0 -1,1 -7,0 -1,1 -9,0 -1,1 -9,0 -1,-1 1,2 1,1 1,0 1,1Z"/>
</svg>