<svg width="256" height="256" xmlns="http://www.w3.org/2000/svg"><script> 
var tempColor;
function hoverPath(evt){
obj = evt.target;
tempColor = obj.getAttribute("fill");
obj.setAttribute("fill","red");
//alert(tempColor);
//obj.setAttribute("stroke","red");}
function recoverPath(evt){
obj = evt.target;
obj.setAttribute("fill", tempColor);
//obj.setAttribute("stroke", tempColor);
}</script><path onmouseover="hoverPath(evt)" onmouseout="recoverPath(evt)" fill="rgb(242,241,233)" d="M  0,1l 0,26 19,0 1,1 0,1 1,-2 0,-4 1,-1 1,-1 1,0 1,-1 1,0 1,-1 1,0 1,-1 1,0 1,-1 3,0 1,-1 17,0 1,1 3,0 -2,-1 -1,-1 0,-15 -52,0 -1,1Z"/>
<path onmouseover="hoverPath(evt)" onmouseout="recoverPath(evt)" fill="rgb(245,234,141)" d="M  0,34l 0,6 37,0 1,1 0,9 -1,1 0,1 1,0 0,-1 1,-11 101,0 1,1 0,-1 1,-1 9,0 1,1 81,0 1,1 0,13 1,1 0,154 1,1 0,6 -1,1 0,38 8,0 0,-40 1,-1 11,0 0,-1 -11,0 -1,-1 0,-111 1,-1 11,0 0,-3 -11,0 -1,-1 0,-58 1,-1 0,-2 -1,-1 0,-34 -10,0 0,20 1,1 0,9 -1,1 -82,0 -1,-1 0,1 -1,1 -1,0 -1,1 -3,0 -1,-1 -1,-1 -3,0 0,1 -1,1 -14,0 -1,-1 -1,-1 -51,0 -1,-1 -2,0 -1,1 -48,0 -1,-1 0,-1 -18,0 0,5 234,183 0,0 -234,-183Z"/>
<path onmouseover="hoverPath(evt)" onmouseout="recoverPath(evt)" fill="rgb(244,242,235)" d="M  0,43l 0,100 35,0 0,-1 1,-1 0,-6 -1,-1 0,-84 1,-1 0,-7 -35,0 -1,1Z"/>
<path onmouseover="hoverPath(evt)" onmouseout="recoverPath(evt)" fill="rgb(244,243,236)" d="M  0,149l 0,106 122,0 0,-16 1,-1 0,-27 1,-1 16,0 0,-1 1,-1 0,-165 -1,0 -1,-1 -99,0 0,14 -1,1 0,67 1,1 0,19 -1,1 0,1 -1,1 -38,0Z"/>
<path onmouseover="hoverPath(evt)" onmouseout="recoverPath(evt)" fill="rgb(241,239,229)" d="M  127,217l 0,33 -1,1 0,4 14,0 0,-9 1,-1 0,-29 -1,-1 0,0 -1,-1 -10,0 -1,1 -1,0Z"/>
<path onmouseover="hoverPath(evt)" onmouseout="recoverPath(evt)" fill="rgb(253,253,253)" d="M  128,212l -3,0 0,27 -1,1 0,15 1,-6 0,-9 1,-27 1,0 1,-1 14,2 1,1 0,31 -1,1 0,8 5,0 0,-39 1,-1 1,-1 38,0 1,1 46,0 0,-4 -36,0 -1,-1 -48,0 -1,-1 0,-1 -1,-1 0,-92 1,-1 0,-73 -5,0 0,168 -1,1 0,4 -14,-2Z"/>
<path onmouseover="hoverPath(evt)" onmouseout="recoverPath(evt)" fill="rgb(254,254,254)" d="M  144,1l 0,29 1,1 1,0 1,-1 1,0 0,-30 -3,0 -1,1Z"/>
<path onmouseover="hoverPath(evt)" onmouseout="recoverPath(evt)" fill="rgb(243,242,235)" d="M  149,218l 0,37 84,0 0,-36 -46,0 -1,-1 0,-2 -36,0 -1,1Z"/>
<path onmouseover="hoverPath(evt)" onmouseout="recoverPath(evt)" fill="rgb(245,244,237)" d="M  152,1l 0,28 80,0 0,-7 -1,-1 0,-21 -78,0 -1,1Z"/>
<path onmouseover="hoverPath(evt)" onmouseout="recoverPath(evt)" fill="rgb(244,243,235)" d="M  151,42l -1,-1 0,74 -1,1 0,90 1,1 0,1 48,0 1,1 34,0 0,-153 -1,-1 0,-13Z"/>
<path onmouseover="hoverPath(evt)" onmouseout="recoverPath(evt)" fill="rgb(254,254,254)" d="M  36,145l 2,-11 0,-8 -1,-1 0,-69 1,-1 0,-1 -1,0 0,79 1,1 -2,11Z"/>
<path onmouseover="hoverPath(evt)" onmouseout="recoverPath(evt)" fill="rgb(242,241,232)" d="M  56,0l -1,0 0,14 1,1 1,0 1,1 0,2 -1,1 -5,0 -1,-1 -15,0 -1,1 -3,0 -1,1 -1,0 -1,1 -1,0 -1,1 -1,0 -1,1 -1,0 -1,1 0,4 -1,1 44,0 1,-1 4,0 1,1 51,0 1,1 1,1 12,0 -13,-2 0,-29Z"/>
<path onmouseover="hoverPath(evt)" onmouseout="recoverPath(evt)" fill="rgb(245,244,237)" d="M  245,1l 0,32 1,1 0,4 -1,1 0,56 10,0 0,-95 -9,0 -1,1Z"/>
<path onmouseover="hoverPath(evt)" onmouseout="recoverPath(evt)" fill="rgb(244,243,235)" d="M  245,105l 0,106 10,0 0,-109 -10,0Z"/>
<path onmouseover="hoverPath(evt)" onmouseout="recoverPath(evt)" fill="rgb(244,243,235)" d="M  245,218l 0,37 10,0 0,-39 -10,0Z"/>
<path onmouseover="hoverPath(evt)" onmouseout="recoverPath(evt)" fill="rgb(243,242,232)" d="M  126,1l 0,28 16,0 0,-29 -15,0 -1,1Z"/>
</svg>