<svg width="256" height="256" xmlns="http://www.w3.org/2000/svg"><script> 
var tempColor;
function hoverPath(evt){
obj = evt.target;
tempColor = obj.getAttribute("fill");
obj.setAttribute("fill","red");
//alert(tempColor);
//obj.setAttribute("stroke","red");}
function recoverPath(evt){
obj = evt.target;
obj.setAttribute("fill", tempColor);
//obj.setAttribute("stroke", tempColor);
}</script><path onmouseover="hoverPath(evt)" onmouseout="recoverPath(evt)" fill="rgb(244,243,237)" d="M  0,4l 0,85 3,0 1,-1 5,0 1,-1 3,0 1,-1 0,-1 1,-1 0,-16 1,-1 0,-4 1,-1 0,-3 1,-1 0,-2 1,-1 0,-3 1,-1 0,-5 1,-1 0,-3 1,-1 0,-1 1,-1 0,-3 1,-1 0,-12 -1,-1 0,0 -1,-1 -1,-1 -1,-1 -1,-1 -1,-1 -1,-1 -1,-1 -1,0 -1,-1 -1,-1 -2,-2 -1,-1 -1,-1 -1,0 -1,-1 -1,-1 -1,-1 -1,0 -1,-1 -1,-1 -1,-1 -1,1Z"/>
<path onmouseover="hoverPath(evt)" onmouseout="recoverPath(evt)" fill="rgb(171,198,238)" d="M  0,92l 0,1 4,0 1,-1 6,0 1,-1 3,0 1,1 1,1 1,1 1,1 1,1 1,1 0,1 1,1 1,1 1,1 1,1 1,1 1,1 1,1 1,1 1,1 1,1 1,1 1,1 1,1 0,1 1,1 1,1 0,1 1,1 1,1 0,1 1,1 1,1 0,1 1,1 0,1 1,1 0,1 1,1 0,1 1,1 0,1 1,1 0,2 1,1 0,2 1,1 0,3 1,1 0,2 1,1 0,2 1,1 0,2 1,1 0,2 1,1 0,2 1,1 0,2 1,1 0,2 1,1 0,3 1,1 0,6 1,1 0,3 -1,1 -1,1 -6,0 -1,1 -3,0 -1,1 -3,0 -1,1 -3,0 -1,1 -3,0 -1,1 -2,0 -1,1 -1,0 0,1 -1,1 -2,0 -1,1 -1,0 -1,1 -4,0 -1,-1 -7,0 -1,-1 -9,0 0,1 8,0 1,1 5,0 1,1 8,0 1,-1 1,0 1,-1 -1,0 -2,1 -23,-95 33,90 2,0 2,-1 2,0 2,-1 3,0 1,-1 7,0 1,-1 2,0 1,1 1,0 1,1 1,1 0,14 -1,1 0,2 -1,1 0,3 -1,1 0,3 -1,1 0,3 -1,1 0,2 -1,1 0,1 -1,1 0,2 -1,1 0,18 1,1 0,4 1,1 0,3 1,1 0,1 1,1 0,1 1,1 0,1 1,1 0,2 11,0 0,-1 -1,-1 0,-2 -1,-1 0,-2 -1,-1 0,-2 -1,-1 0,-2 -1,-1 0,-2 -1,-1 0,-19 1,-1 0,-3 1,-1 0,-2 1,-1 0,-2 1,-1 0,-3 1,-1 0,-3 1,-1 0,-4 1,-1 0,-8 1,-1 0,-4 1,-1 0,-5 -2,0 -1,-1 0,-4 -1,-1 0,-5 -1,-1 0,-6 1,-1 1,-1 0,-1 -3,0 -1,-1 -1,-1 -1,-1 -1,-1 -1,-1 0,-1 -1,-1 0,-1 -1,-1 0,-3 -1,-1 0,-3 -1,-1 0,-4 -1,-1 0,-3 -1,-1 0,-3 -1,-1 0,-1 -1,-1 0,-2 -1,-1 0,-1 -1,-1 -1,-1 0,-1 -1,-1 -1,-1 -1,-1 -1,-1 -1,-1 -1,-1 -1,-1 -1,-1 0,-1 -1,-1 -1,-1 -1,-1 -1,-1 -1,-1 -1,-1 0,-1 -1,-1 -1,-1 0,-1 -1,-1 -1,-1 0,-1 -1,-1 0,-2 -1,-1 0,-11 -1,-1 0,-10 1,-1 0,-7 1,-1 0,-4 1,-1 0,-3 1,-1 0,-3 1,-1 0,-4 1,-1 0,-4 1,-1 0,-9 1,-1 0,-4 -1,-1 0,-3 -1,-1 0,-2 -1,-1 -1,-1 0,-1 -1,-1 -1,-1 -1,-1 -1,-1 -1,-1 -1,-1 -1,-1 0,-3 1,-1 2,0 0,-1 -28,0 0,1 2,0 1,1 1,1 1,1 1,0 1,1 1,1 1,1 1,0 1,1 1,1 1,1 1,1 1,1 1,1 1,0 1,1 1,1 1,1 1,1 1,1 1,1 1,1 1,1 1,1 0,14 -1,1 0,3 -1,1 0,1 -1,1 0,3 -1,1 0,5 -1,1 0,3 -1,1 0,2 -1,1 0,3 -1,1 0,4 -1,1 0,16 -1,1 0,1 -1,1 -1,1 -3,0 -1,1 -5,0 -1,1 -4,0 33,91 -33,-90Z"/>
<path onmouseover="hoverPath(evt)" onmouseout="recoverPath(evt)" fill="rgb(244,243,237)" d="M  0,96l 0,87 10,0 1,1 7,0 1,1 2,0 1,-1 1,0 1,-1 2,0 0,-1 1,-1 1,0 1,-1 2,0 1,-1 3,0 1,-1 3,0 1,-1 3,0 1,-1 3,0 1,-1 6,0 1,-1 0,-1 -1,-1 0,-6 -1,-1 0,-3 -1,-1 0,-2 -1,-1 0,-2 -1,-1 0,-2 -1,-1 0,-2 -1,-1 0,-2 -1,-1 0,-2 -1,-1 0,-2 -1,-1 0,-3 -1,-1 0,-2 -1,-1 0,-2 -1,-1 0,-1 -1,-1 0,-1 -1,-1 0,-1 -1,-1 0,-1 -1,-1 0,-1 -1,-1 -1,-1 0,-1 -1,-1 -1,-1 0,-1 -1,-1 -1,-1 0,-1 -1,-1 -1,-1 -1,-1 -1,-1 -1,-1 -1,-1 -1,-1 -1,-1 -1,-1 -1,-1 -1,-1 -1,-1 -1,-1 0,-1 -2,-2 -1,-1 -1,-1 -1,-1 -1,0 -1,1 -6,0 -1,1 -4,0 -1,1Z"/>
<path onmouseover="hoverPath(evt)" onmouseout="recoverPath(evt)" fill="rgb(244,243,237)" d="M  27,4l 0,0 1,1 1,1 1,1 1,1 1,1 1,1 1,1 0,1 1,1 1,1 0,2 1,1 0,3 1,1 0,6 -1,1 0,9 -1,1 0,4 -1,1 0,4 -1,1 0,3 -1,1 0,3 -1,1 0,4 -1,1 0,7 -1,1 0,8 1,1 0,11 1,1 0,2 1,1 0,1 1,1 1,1 0,1 1,1 1,1 0,1 1,1 1,1 1,1 1,1 1,1 1,1 0,1 1,1 1,1 1,1 1,1 1,1 1,1 1,1 1,1 0,1 1,1 1,1 0,1 1,1 0,2 1,1 0,1 1,1 0,3 1,1 0,3 1,1 0,4 1,1 0,3 1,1 0,3 1,1 0,1 1,1 0,1 1,1 1,1 1,1 1,1 0,-2 -1,-1 0,-5 -1,-1 0,-5 -1,-1 0,-4 -1,-1 0,-5 -1,-1 0,-5 -1,-1 0,-5 -1,-1 0,-4 -1,-1 0,-5 -1,-1 0,-5 -1,-1 0,-4 -1,-1 0,-5 -1,-1 0,-4 -1,-1 0,-4 -1,-1 0,-5 -1,-1 0,-4 -1,-1 0,-5 -1,-1 0,-4 -1,-1 0,-5 -1,-1 0,-4 -1,-1 0,-4 -1,-1 0,-4 -1,-1 0,-3 -1,-1 0,-2 -1,-1 0,-2 -1,-1 0,-2 -1,-1 0,-2 -1,-1 0,-1 -1,-1 0,-2 -1,-1 0,-2 -1,-1 0,-1 -1,-1 0,-2 -1,-1 0,-1 -1,-1 0,-3 -3,0 0,2 -1,1 -1,0 -1,1Z"/>
<path onmouseover="hoverPath(evt)" onmouseout="recoverPath(evt)" fill="rgb(244,243,235)" d="M  80,152l -1,0 -1,1 -1,1 -1,0 0,2 1,1 0,3 1,1 0,4 1,1 0,4 1,1 0,4 1,1 0,6 1,1 0,4 1,1 0,4 1,1 0,5 1,1 0,5 1,1 0,5 1,1 0,4 1,1 0,4 4,0 1,-1 4,0 1,-1 3,0 1,-1 4,0 1,-1 4,0 1,-1 4,0 1,-1 3,0 1,-1 4,0 1,-1 4,0 1,-1 3,0 1,-1 4,0 1,-1 3,0 1,-1 4,0 1,-1 4,0 1,-1 4,0 1,-1 3,0 1,-1 4,0 1,-1 4,0 1,-1 4,0 1,-1 3,0 1,-1 4,0 1,-1 4,0 1,-1 3,0 1,-1 4,0 1,-1 4,0 1,-1 4,0 1,-1 4,0 1,-1 4,0 1,-1 4,0 1,-1 4,0 1,-1 4,0 1,-1 4,0 1,-1 4,0 1,-1 2,0 0,-3 1,-1 2,0 1,1 0,2 1,1 0,1 1,1 0,5 -1,1 0,2 1,1 0,3 -1,1 0,2 2,0 0,-73 -12,0 -1,1 -2,0 -1,1 -2,0 0,2 -1,1 -2,0 -1,-1 -4,0 -1,1 -6,0 -1,1 -18,0 -1,1 -3,0 -1,1 -2,0 -1,1 -2,0 -1,1 -3,0 -1,1 -7,0 -1,1 -12,0 -1,-1 -3,0 -1,-1 -2,0 -1,-1 -1,0 -1,-1 -1,-1 -1,-1 -1,-1 -2,0 -1,-1 -1,1 -2,0 -5,5 0,1 -1,1 0,6 -1,1 -1,1 -1,1 -1,1 -9,0 -1,-1 -1,0 -1,-1 -1,-1 -1,-1 -3,0 -1,1 0,0 -3,3 0,1 -1,1 -1,1 -1,1 -1,0 -1,1 -7,0 -1,1 -3,0 -1,-1 -2,0 -1,-1 -2,0 -1,-1 -1,0 -1,-1 -1,0 -1,-1 -1,0 -1,-1 -2,0 -1,-1 -2,0 -1,-1 -2,0 -1,1Z"/>
<path onmouseover="hoverPath(evt)" onmouseout="recoverPath(evt)" fill="rgb(244,243,235)" d="M  90,228l 0,2 1,1 0,3 1,1 0,4 1,1 0,4 1,1 0,3 1,1 0,4 -1,1 0,1 68,0 0,-1 1,-1 1,0 1,-1 1,0 1,-1 1,0 1,-1 1,0 1,-1 1,-1 1,-1 1,0 1,-1 1,-1 1,0 1,-1 1,0 1,-1 5,0 1,1 1,0 1,1 1,0 1,1 5,0 1,-1 3,0 1,-1 3,0 1,-1 3,0 1,-1 5,0 1,-1 5,0 1,-1 5,0 1,-1 3,0 1,-1 4,0 1,-1 4,0 1,-1 10,0 1,-1 1,0 1,-1 2,0 0,-28 -3,0 -1,-1 0,-4 1,-1 0,-1 -1,-1 0,-3 -1,-1 0,-2 -1,0 -1,1 -4,0 -1,1 -4,0 -1,1 -4,0 -1,1 -4,0 -1,1 -4,0 -1,1 -4,0 -1,1 -4,0 -1,1 -5,0 -1,1 -4,0 -1,1 -3,0 -1,1 -4,0 -1,1 -4,0 -1,1 -4,0 -1,1 -3,0 -1,1 -4,0 -1,1 -4,0 -1,1 -3,0 -1,1 -4,0 -1,1 -3,0 -1,1 -4,0 -1,1 -4,0 -1,1 -4,0 -1,1 -3,0 -1,1 -4,0 -1,1 -4,0 -1,1 -3,0 -1,1 -4,0 -1,1 -4,0 -1,1 -4,0 -1,1 -3,0 -1,1 -4,0 -1,1 -4,0 -1,1 -3,0 -1,1Z"/>
<path onmouseover="hoverPath(evt)" onmouseout="recoverPath(evt)" fill="rgb(244,243,236)" d="M  0,217l 0,38 55,0 0,-1 -1,-1 0,-1 -1,-1 0,-1 -1,-1 0,-1 -1,-1 0,-3 -1,-1 0,-4 -1,-1 0,-20 1,-1 0,-2 1,-1 0,-1 1,-1 0,-2 1,-1 0,-3 1,-1 0,-3 1,-1 0,-3 1,-1 0,-2 1,-1 0,-12 -1,-1 -1,0 -1,-1 -1,1 -7,0 -1,1 -4,0 -1,1 -3,0 -1,1 -2,0 -1,1 -2,0 -1,1 -1,1 -1,0 -1,1 -1,1 -1,0 -1,1 -10,0 -1,-1 -5,0 -1,-1 -7,0Z"/>
<path onmouseover="hoverPath(evt)" onmouseout="recoverPath(evt)" fill="rgb(243,232,139)" d="M  36,0l -1,0 0,2 1,1 0,1 1,1 0,2 1,1 0,1 1,1 0,2 1,1 0,2 1,1 0,1 1,1 0,2 1,1 0,2 1,1 0,2 1,1 0,2 1,1 0,3 1,1 0,4 1,1 0,4 1,1 0,4 1,1 0,5 1,1 0,4 1,1 0,5 1,1 0,4 1,1 0,5 1,1 0,4 1,1 0,4 1,1 0,5 1,1 0,4 1,1 0,5 1,1 0,5 1,1 0,4 1,1 0,5 1,1 0,5 1,1 0,5 1,1 0,4 1,1 0,5 1,1 0,5 1,1 0,3 1,0 1,1 0,3 -1,1 -1,1 0,4 1,1 0,5 1,1 0,4 2,0 1,1 0,6 1,1 0,5 1,1 0,5 1,1 0,4 1,1 0,5 1,1 0,5 1,1 0,4 1,1 0,4 1,1 0,4 1,1 0,4 1,1 0,3 1,1 0,4 1,1 0,4 1,1 0,3 1,1 0,3 1,1 0,2 4,0 0,-2 1,-1 0,-2 -1,-1 0,-3 -1,-1 0,-4 -1,-1 0,-4 -1,-1 0,-3 -1,-1 0,-5 -1,0 -1,-1 0,-8 -1,-1 0,-4 -1,-1 0,-5 -1,-1 0,-5 -1,-1 0,-5 -1,-1 0,-4 -1,-1 0,-4 -1,-1 0,-6 -1,-1 0,-4 -1,-1 0,-4 -1,-1 0,-4 -1,-1 0,-3 -1,-1 0,-3 -1,0 -1,-1 0,-4 1,-1 0,-3 -1,-1 0,-5 -1,-1 0,-4 -1,-1 0,-5 -1,-1 0,-5 -1,-1 0,-5 -1,-1 0,-4 -1,-1 0,-5 -1,-1 0,-5 -1,-1 0,-4 -1,-1 0,-5 -1,-1 0,-4 -1,-1 0,-5 -1,-1 0,-4 -1,-1 0,-4 -1,-1 0,-5 -1,-1 0,-4 -1,-1 0,-5 -1,-1 0,-4 -1,-1 0,-4 -1,0 -1,-1 0,-2 1,-1 2,0 1,-1 -3,0 -1,-1 0,-3 -1,-1 0,-3 -1,-1 0,-2 -2,0 -1,-1 0,-7 1,-1 -1,0 -1,-1 0,-1 -1,-1 0,-1 -1,-1 0,-2 -1,-1 0,-1 -1,-1 0,-2 -1,-1 0,-2Z"/>
<path onmouseover="hoverPath(evt)" onmouseout="recoverPath(evt)" fill="rgb(243,242,235)" d="M  51,22l 0,0 1,1 0,2 1,1 0,3 1,1 0,3 6,0 1,1 5,0 1,-1 11,0 1,-1 5,0 1,-1 10,0 1,-1 11,0 0,-2 1,-1 9,0 1,1 11,0 0,-2 1,-1 7,0 1,-1 4,0 1,1 2,0 0,-2 1,-1 3,0 1,-1 3,0 1,-1 4,0 1,1 3,0 0,-2 1,-1 4,0 1,-1 4,0 1,1 3,0 0,-2 1,-1 4,0 1,-1 4,0 1,-1 5,0 1,1 5,0 1,1 0,1 1,1 0,-1 -1,-2 0,-1 -1,-1 0,-3 -2,0 -1,-1 0,-3 1,-1 0,-4 -153,0 0,1 1,1 0,2 1,1 0,1 1,1 0,2 1,1 0,1 1,1 0,1 2,0 1,1 0,2 -1,1 -1,0 0,5Z"/>
<path onmouseover="hoverPath(evt)" onmouseout="recoverPath(evt)" fill="rgb(244,243,236)" d="M  199,0l -1,0 0,5 -1,1 0,1 2,0 1,1 0,3 1,1 0,2 1,1 0,3 1,1 0,3 -1,1 0,1 2,0 1,1 0,2 1,1 0,4 -1,1 0,2 2,0 1,1 0,2 1,1 0,2 1,1 0,3 1,1 0,3 -1,1 0,2 1,1 0,2 2,0 1,1 0,3 -1,1 0,2 1,1 0,2 1,1 0,2 2,0 1,1 0,2 1,1 4,0 1,-1 3,0 1,-1 2,0 1,-1 2,0 1,-1 3,0 1,-1 2,0 1,-1 2,0 1,-1 3,0 1,-1 2,0 1,-1 1,0 1,-1 2,0 0,-62Z"/>
<path onmouseover="hoverPath(evt)" onmouseout="recoverPath(evt)" fill="rgb(244,243,235)" d="M  180,250l -2,2 1,1 0,2 76,0 0,-14 -12,0 -1,1 -4,0 -1,1 -3,0 -1,1 -3,0 -1,1 -4,0 -1,1 -3,0 -1,1 -4,0 -1,1 -3,0 -1,1 -4,0 -1,1 -4,0 -1,1 -3,0 -1,1 -8,0 -1,-1 -1,0 -1,-1 -1,0 -1,-1 -3,0 -1,1Z"/>
<path onmouseover="hoverPath(evt)" onmouseout="recoverPath(evt)" fill="rgb(244,243,235)" d="M  219,79l 0,2 1,1 0,3 1,1 0,1 2,0 1,1 0,3 1,1 0,3 -1,1 0,2 1,1 0,2 1,1 0,2 1,1 0,3 1,1 0,2 1,1 0,2 1,1 0,3 1,1 0,2 1,1 0,2 2,0 1,1 0,2 2,0 1,-1 1,0 1,-1 4,0 1,-1 7,0 1,1 2,0 0,-61 -1,0 -1,1 -1,0 -1,1 -2,0 -1,1 -3,0 -1,1 -2,0 -1,1 -2,0 -1,1 -3,0 -1,1 -2,0 -1,1 -2,0 -1,1 -3,0 -1,1 -6,0 -1,-1 0,2 1,1 0,2 1,1Z"/>
<path onmouseover="hoverPath(evt)" onmouseout="recoverPath(evt)" fill="rgb(244,243,236)" d="M  56,39l 0,4 1,1 0,4 1,1 0,5 1,1 0,4 1,1 0,5 1,1 0,4 1,1 0,4 1,1 0,5 1,1 0,4 1,1 0,5 1,1 0,4 1,1 0,5 1,1 0,5 1,1 0,4 1,1 0,5 1,1 0,5 1,1 0,5 1,1 0,4 1,1 0,5 1,1 0,3 1,0 1,-1 1,0 1,-1 8,0 1,1 1,0 1,1 1,1 1,0 1,1 1,0 1,1 2,0 1,1 1,0 1,1 1,0 1,1 3,0 1,1 1,-1 2,0 1,-1 1,-1 1,-1 1,0 1,-1 0,-1 1,-1 1,-1 1,-1 1,-1 1,-1 2,0 1,-1 2,0 1,1 3,0 1,1 1,0 1,1 1,1 1,0 1,1 1,0 1,-1 0,-1 1,-1 0,-5 1,-1 1,-1 3,-3 1,-1 1,-1 1,-1 1,0 1,-1 11,0 1,1 1,1 1,1 1,1 1,1 1,0 1,1 1,0 1,1 4,0 1,1 6,0 1,-1 4,0 1,-1 4,0 1,-1 3,0 1,-1 3,0 1,-1 2,0 1,-1 4,0 1,-1 8,0 1,-1 9,0 1,-1 7,0 0,-3 -1,-1 0,-2 -1,-1 0,-2 -1,-1 0,-3 -1,-1 0,-2 -1,-1 0,-2 -1,-1 0,-3 -1,-1 0,-2 -1,-1 0,-2 -1,-1 0,-4 1,-1 0,-1 -1,-1 0,-3 -2,0 -1,-1 0,-1 -1,-1 0,-3 -1,-1 0,-2 -1,-1 0,-2 -1,-1 0,-4 1,-1 0,-1 -2,0 -1,-1 0,-2 -1,-1 0,-2 -1,-1 0,-4 1,-1 0,-1 -2,0 -1,-1 0,-2 -1,-1 0,-4 1,-1 0,-1 -1,-1 0,-3 -1,-1 0,-2 -1,-1 0,-2 -2,0 -1,-1 0,-4 1,-1 0,-2 -1,-1 0,-2 -2,0 -1,-1 0,-3 1,-1 0,-1 -2,0 -1,-1 0,-1 -1,-1 0,-1 -5,0 -1,-1 -3,0 -1,1 -4,0 -1,1 -4,0 0,2 -1,1 -5,0 -1,-1 -2,0 -1,1 -4,0 0,2 -1,1 -5,0 -1,-1 -2,0 -1,1 -3,0 -1,1 -3,0 0,2 -1,1 -4,0 -1,-1 -2,0 -1,1 -7,0 0,2 -1,1 -13,0 -1,-1 -7,0 0,2 -1,1 -11,0 -1,1 -10,0 -1,1 -5,0 -1,1 -11,0 -1,1 -6,0 -1,1 -3,0 -1,1Z"/>
<path onmouseover="hoverPath(evt)" onmouseout="recoverPath(evt)" fill="rgb(245,244,237)" d="M  72,187l -1,1 0,8 -1,1 0,4 -1,1 0,3 -1,1 0,3 -1,1 0,2 -1,1 0,2 -1,1 0,3 -1,1 0,17 1,1 0,2 1,1 0,2 1,1 0,2 1,1 0,2 1,1 0,2 1,1 0,2 16,0 0,-1 -1,-1 0,-3 -1,-1 0,-3 -1,-1 0,-4 -1,-1 0,-4 -1,-1 0,-3 -1,-1 0,-4 -1,-1 0,-4 -1,-1 0,-4 -1,-1 0,-4 -1,-1 0,-5 -1,-1 0,-5 -1,-1 0,-4 -1,-1 0,-5 -1,-1Z"/>
<path onmouseover="hoverPath(evt)" onmouseout="recoverPath(evt)" fill="rgb(254,254,254)" d="M  88,223l 0,1 1,0 1,-1 3,0 1,-1 4,0 1,-1 4,0 1,-1 3,0 1,-1 4,0 1,-1 4,0 1,-1 4,0 1,-1 3,0 1,-1 4,0 1,-1 4,0 1,-1 3,0 1,-1 4,0 1,-1 4,0 1,-1 4,0 1,-1 3,0 1,-1 4,0 1,-1 3,0 1,-1 4,0 1,-1 4,0 1,-1 3,0 1,-1 4,0 1,-1 4,0 1,-1 4,0 1,-1 3,0 1,-1 4,0 1,-1 5,0 1,-1 4,0 1,-1 4,0 1,-1 4,0 1,-1 4,0 1,-1 4,0 1,-1 4,0 1,-1 4,0 1,-1 3,0 1,1 0,-1 -1,-1 0,-1 -1,-1 0,1 -1,1 -2,0 -1,1 -4,0 -1,1 -4,0 -1,1 -4,0 -1,1 -4,0 -1,1 -4,0 -1,1 -4,0 -1,1 -4,0 -1,1 -4,0 -1,1 -4,0 -1,1 -4,0 -1,1 -3,0 -1,1 -4,0 -1,1 -4,0 -1,1 -3,0 -1,1 -4,0 -1,1 -4,0 -1,1 -4,0 -1,1 -3,0 -1,1 -4,0 -1,1 -4,0 -1,1 -4,0 -1,1 -3,0 -1,1 -4,0 -1,1 -3,0 -1,1 -4,0 -1,1 -4,0 -1,1 -3,0 -1,1 -4,0 -1,1 -4,0 -1,1 -4,0 -1,1 -3,0 -1,1 -4,0 -1,1 -4,0 -1,1Z"/>
<path onmouseover="hoverPath(evt)" onmouseout="recoverPath(evt)" fill="rgb(173,199,238)" d="M  184,139l -4,0 -1,1 -8,0 -1,-1 -4,0 -1,-1 -1,0 -1,-1 -1,0 -1,-1 -1,-1 -1,-1 -1,-1 -1,-1 -9,0 -1,1 -1,0 -1,1 -1,1 -1,1 -1,1 -1,1 -1,1 -1,1 0,5 -1,1 0,1 -1,1 -1,1 -3,0 -1,-1 -1,0 -1,-1 -1,-1 -1,0 -1,-1 -3,0 -1,-1 -1,1 -2,0 -1,1 -2,2 -1,1 0,1 -1,1 -1,1 -1,0 -1,1 -1,1 -1,1 -2,0 -1,1 -2,0 -1,-1 -3,0 -1,-1 -1,0 -1,-1 -1,0 -1,-1 -2,0 -1,-1 -1,0 -1,-1 -1,0 -1,-1 -1,-1 -1,0 -1,-1 -6,0 -1,1 -1,0 -1,1 -2,0 -1,1 0,2 2,0 1,-1 0,0 1,-1 1,0 1,-1 4,0 1,1 2,0 1,1 2,0 1,1 1,0 1,1 1,0 1,1 1,0 1,1 2,0 1,1 2,0 1,1 1,0 0,-1 -4,-1 0,0 84,-16 -76,17 4,0 1,-1 1,0 1,-1 1,-1 0,-1 1,-1 1,-1 1,-1 1,-1 1,-1 5,0 1,1 1,1 1,1 1,0 1,1 7,0 1,-1 0,0 1,-1 1,-1 0,-6 1,-1 0,-1 1,-1 1,-1 1,-1 1,-1 1,-1 1,-1 2,0 1,-1 2,0 1,1 2,0 1,1 1,1 1,1 1,1 1,0 1,1 2,0 1,1 3,0 1,1 10,0 1,-1 7,0 1,-1 3,0 1,-1 2,0 1,-1 2,0 1,-1 3,0 1,-1 18,0 1,-1 6,0 1,-1 6,0 1,1 0,-2 1,-1 2,0 1,-1 2,0 1,-1 13,0 0,-2 -3,0 -1,-1 -5,0 -1,1 -4,0 -1,1 -1,0 -1,1 -4,0 -1,-1 0,2 -1,1 -7,0 -1,1 -9,0 -1,1 -8,0 -1,1 -4,0 -1,1 -2,0 -1,1 -3,0 -1,1 -3,0 -1,1 -4,0 -77,18 76,-17Z"/>
<path onmouseover="hoverPath(evt)" onmouseout="recoverPath(evt)" fill="rgb(171,198,238)" d="M  220,243l -5,0 -1,1 -5,0 -1,1 -3,0 -1,1 -3,0 -1,1 -3,0 -1,1 -7,0 -1,-1 -1,0 -1,-1 -1,0 -1,-1 -3,0 -1,1 -1,0 -1,1 -1,0 -1,1 -1,1 -1,0 -2,2 -1,1 -1,0 -1,1 -1,0 -1,1 -1,0 -1,1 12,0 0,-1 -1,-1 0,-2 1,-1 1,-1 1,-1 1,-1 5,0 1,1 1,0 1,1 1,0 1,1 6,0 1,-1 3,0 1,-1 4,0 1,-1 4,0 1,-1 3,0 1,-1 4,0 1,-1 0,-1 1,-1 1,2 1,0 1,-1 4,0 1,-1 3,0 1,-1 3,0 1,-1 4,0 1,-1 13,0 0,-3 -1,0 -1,1 -1,0 -1,1 -10,0 -1,1 -4,0 -1,1 -4,0 -1,1 -3,0 -1,1 -5,0 -1,1Z"/>
</svg>