<svg width="256" height="256" xmlns="http://www.w3.org/2000/svg"><script> 
var tempColor;
function hoverPath(evt){
obj = evt.target;
tempColor = obj.getAttribute("fill");
obj.setAttribute("fill","red");
//alert(tempColor);
//obj.setAttribute("stroke","red");}
function recoverPath(evt){
obj = evt.target;
obj.setAttribute("fill", tempColor);
//obj.setAttribute("stroke", tempColor);
}</script><path onmouseover="hoverPath(evt)" onmouseout="recoverPath(evt)" fill="rgb(251,251,249)" d="M  0,25l 0,1 1,0 1,-1 1,0 1,-1 2,0 0,-1 1,-1 1,0 1,-1 3,0 1,1 0,1 1,0 1,1 1,1 1,0 1,1 1,1 1,1 1,1 1,1 1,1 1,1 0,1 1,0 1,1 1,1 1,0 1,1 1,1 1,1 1,1 1,1 1,1 1,1 0,1 1,0 1,1 1,1 1,0 1,1 1,1 1,1 1,1 1,1 1,1 1,1 1,1 0,1 1,0 1,1 1,1 1,0 1,1 1,1 1,1 1,1 1,1 1,-1 -1,0 -1,-1 0,0 -1,-1 -1,-1 -1,-1 -1,-1 -1,-1 -1,-1 -1,-1 0,-2 -1,-1 -2,0 -1,-1 -1,0 -1,-1 -1,-1 -1,-1 -1,-1 -1,-1 -1,-1 -1,-1 0,-1 -1,0 -1,-1 -1,-1 -1,0 -1,-1 -1,-1 -1,-1 -1,-1 -1,-1 -1,-1 -1,-1 0,-1 -1,0 -1,-1 -1,-1 -1,0 -1,-1 -1,-1 -1,-1 -1,-1 -1,-1 -1,-1 -1,-1 0,-1 -1,0 -1,-1 -1,-1 -1,-1 -1,0 -1,-1 -1,-1 -1,-1 -1,-1 0,-1 -1,0 -1,-1 -1,0 -1,-1 -1,0Z"/>
<path onmouseover="hoverPath(evt)" onmouseout="recoverPath(evt)" fill="rgb(243,242,234)" d="M  0,169l 0,27 1,0 0,-2 1,-1 2,0 1,1 1,-1 0,-2 1,-1 2,0 1,1 1,-1 0,0 1,-1 1,0 1,-1 1,0 1,-1 1,0 1,-1 1,0 1,-1 1,-1 1,0 1,-1 1,0 1,-1 1,0 1,-1 1,0 1,-1 1,0 1,-1 1,0 1,-1 1,-1 1,0 1,-1 1,-1 1,0 1,-1 1,-1 1,0 1,-1 2,0 0,-1 1,-1 1,0 1,-1 1,-1 1,0 1,-1 1,-1 1,0 1,-1 1,-1 1,0 1,-1 0,-1 -1,-1 0,0 -3,-3 -1,-1 -1,-1 -1,-1 0,-1 -3,-3 -1,-1 -1,-1 -1,-1 -1,-1 -1,-1 -2,0 -1,-1 -1,0 -2,2 -1,0 -1,1 -1,0 -1,1 -1,0 -1,1 -1,0 -1,1 -1,0 -1,1 -1,1 -1,0 -1,1 -1,0 -1,1 -1,0 -1,1 -1,1 -1,0 -1,1 -1,0 -1,1 0,1 -1,1 -2,0 0,1 -1,1 -2,0 0,1 -1,1 -2,0 -1,1 -1,1 -2,0Z"/>
<path onmouseover="hoverPath(evt)" onmouseout="recoverPath(evt)" fill="rgb(172,197,234)" d="M  45,1l 1,1 1,1 1,1 1,1 1,1 1,0 1,1 1,1 1,1 1,1 1,1 1,1 1,0 1,1 1,1 1,1 1,1 1,1 1,1 1,0 1,1 1,1 1,1 1,1 1,0 1,1 1,1 1,1 0,1 2,0 1,1 2,2 1,1 1,0 1,1 1,1 1,1 1,1 1,1 1,0 1,1 0,1 1,1 0,1 3,0 1,1 0,1 1,1 3,0 1,1 1,-1 1,0 0,-1 -1,-1 0,0 -1,-1 -2,0 -1,-1 -1,-1 -1,0 -1,-1 0,-3 -1,-1 -1,0 -1,-1 -1,0 -1,-1 -1,-1 -1,-1 -1,-1 -1,-1 -1,-1 -1,0 -1,-1 -1,-1 -1,-1 -2,-2 -1,0 -2,-2 -1,-1 -2,-2 -1,-1 -1,0 -1,-1 -1,-1 -1,-1 -2,-2 -1,-1 -1,0 -1,-1 -1,-1 -1,-1 -1,-1 -1,-1 -1,-1 0,-2 -8,0 -1,1Z"/>
<path onmouseover="hoverPath(evt)" onmouseout="recoverPath(evt)" fill="rgb(183,206,239)" d="M  105,49l -2,0 0,1 1,1 1,0 1,1 0,4 5,0 1,1 1,0 1,1 1,1 1,1 1,1 1,1 1,1 1,1 1,1 1,0 1,1 1,1 1,1 1,1 1,1 0,1 1,0 1,1 0,2 -1,1 -1,1 2,-1 2,0 1,1 1,1 1,1 1,1 0,1 1,0 1,1 0,4 1,-1 0,-1 1,-1 3,0 1,1 1,1 1,1 1,1 1,1 1,0 1,1 0,3 -1,1 -1,1 -3,3 -1,1 -3,3 -1,1 -1,1 -1,0 -1,1 -2,0 1,1 1,0 1,1 0,1 1,1 1,1 0,1 1,0 1,1 1,1 1,1 1,1 0,1 1,1 0,1 1,0 1,1 1,1 1,1 0,1 1,0 3,3 1,1 1,1 -9,-10 0,-1 -1,-1 0,1 -4,-5 0,-1 1,-1 0,-1 -1,1 -2,0 -2,-3 0,-1 -4,-1 0,0 -1,-1 -1,-1 11,-1 0,0 6,-6 1,-1 3,0 1,1 0,1 1,1 0,1 1,-1 2,0 1,1 1,1 1,1 0,2 -1,1 -1,1 -1,1 -1,0 -1,1 1,0 -1,1 4,-3 1,-1 4,0 1,1 1,0 1,1 1,1 1,1 1,1 1,0 1,1 1,1 1,1 1,0 1,1 1,1 1,1 1,1 1,0 1,1 1,1 1,1 1,0 1,1 1,1 1,1 1,1 1,0 1,1 1,1 0,1 1,0 1,-1 0,0 1,-1 0,-1 -1,-1 -2,-2 -1,0 -1,-1 -1,-1 -1,-1 -1,-1 -1,0 -1,-1 -1,-1 -1,0 -4,-4 -1,-1 -1,-1 -1,-1 -1,-1 -1,-1 -1,-1 -1,-1 -1,-1 -1,-1 -1,0 -1,-1 -1,-1 -1,-1 -1,-1 -1,-1 -1,-1 -1,0 -1,-1 -1,-1 -1,-1 -1,0 -1,-1 -1,-1 -1,-1 -1,-1 -1,0 -1,-1 -1,-1 -1,-1 -1,0 -1,-1 -1,-1 -1,-1 -1,-1 -1,-1 -1,0 -1,-1 -1,-1 -1,-1 -1,-1 -1,-1 -1,0 -1,-1 -1,-1 -1,-1 -1,-1 -1,-1 -1,-1 -1,0 -1,-1 -1,-1 -1,-1 -1,-1 -1,-1 -1,0 -1,-1 -1,-1 -1,-1 -1,-1 -1,0 -1,-1 -1,-1 -1,-1 0,-3 1,-1 -5,0 -1,-1 -1,0 -1,-1 -1,-1 -1,1 -1,1 1,8 0,0 -1,-8 30,38 -1,0 -1,1 -1,1 0,1 1,-1 1,-1 1,-1 -30,-38Z"/>
<path onmouseover="hoverPath(evt)" onmouseout="recoverPath(evt)" fill="rgb(173,199,237)" d="M  134,201l -1,0 0,2 1,1 0,0 1,1 1,1 0,1 1,1 1,1 0,2 1,1 0,3 1,1 0,4 -1,1 0,1 -1,1 0,4 1,1 0,2 1,1 1,1 0,1 1,1 1,1 1,1 1,1 1,1 1,0 1,1 3,0 0,-1 1,-1 2,0 0,-1 1,-1 1,-1 1,-1 2,0 1,-1 1,-1 -1,-1 0,-1 -1,-1 0,-4 -1,-1 -1,-1 0,-2 1,-1 0,-2 1,-1 0,-2 -1,-1 0,-2 -1,-1 0,-1 -1,-1 0,-1 -2,0 -1,-1 -1,-1 0,-21 -1,0 -1,1 -1,0 0,3 -1,1 0,1 -1,1 0,1 -1,1 -1,1 -1,0 -1,1 -1,0 -1,1 -1,1 -1,1 -2,0 0,1 -1,1 -1,0 -1,1 18,-18 2,0 1,-1 1,0 1,-1 1,0 1,-1 1,-1 1,-1 1,-1 1,-1 0,-2 -3,0 -1,1 -2,2 -1,1 -1,1 0,1 -1,1 -20,20Z"/>
<path onmouseover="hoverPath(evt)" onmouseout="recoverPath(evt)" fill="rgb(242,241,232)" d="M  151,40l -1,1 -1,0 -1,1 0,1 1,0 1,1 1,1 1,1 1,1 1,1 2,0 1,1 0,1 1,1 1,1 1,1 1,0 2,2 1,1 1,1 1,0 1,1 2,2 2,0 1,1 0,1 1,1 1,1 2,0 1,1 0,1 1,1 1,1 1,1 1,0 1,1 1,1 1,1 1,1 1,1 1,1 1,0 1,1 1,1 0,1 1,0 1,1 1,1 1,0 1,1 0,1 2,2 1,1 1,0 1,1 1,1 1,0 1,1 1,0 1,1 1,1 1,0 1,1 4,0 1,-1 3,0 1,1 1,0 1,-1 1,0 1,-1 1,0 1,-1 0,-2 1,-1 3,0 1,1 0,-2 1,-1 2,0 1,-1 1,0 0,-2 -1,-1 0,-2 1,-1 -1,-1 -2,0 -1,-1 0,-2 1,-1 0,-1 -1,-1 0,-5 1,-1 1,-1 1,-1 1,-1 0,-1 1,-1 1,-1 0,-1 1,-1 1,-1 1,-1 1,-1 0,-1 1,-1 2,-2 0,-4 -1,0 -1,1 -1,0 -1,1 -3,0 -1,-1 -1,0 -1,1 -2,0 0,2 -1,1 -2,0 -1,1 -4,0 -1,-1 -2,0 0,2 -1,1 -1,0 -1,1 -2,0 -1,1 -2,0 -1,1 -4,0 -1,-1 -1,0 -1,1 -6,0 -1,-1 0,-2 -1,1 -3,0 -1,1 -3,0 -1,-1 -2,0 -1,-1 0,-1 -1,-1 0,-7 -1,-1 0,-4 1,-1 0,-1 1,-1 0,-1 -3,0 -1,1 -5,0 -1,1 -7,0 -1,-1 -3,0 -1,1 -1,0 -1,1 -1,0 -1,1 -2,0 -1,1 -1,0 -1,1 -2,0 47,21 1,1 1,0 1,1 0,2 -1,1 -2,0 -1,-1 -1,0 -1,-1 0,-2 1,-1 2,0 -47,-21Z"/>
<path onmouseover="hoverPath(evt)" onmouseout="recoverPath(evt)" fill="rgb(188,213,174)" d="M  154,242l 0,2 1,1 0,1 1,1 1,1 5,0 1,1 1,1 1,1 3,0 1,-1 0,0 1,-1 3,0 1,-1 2,0 1,-1 1,0 1,-1 1,0 1,-1 1,0 1,-1 0,-3 1,-1 1,-1 2,0 0,-4 -5,0 -1,-1 -2,0 -1,-1 -2,0 -1,-1 0,1 -1,1 -2,0 -1,-1 0,-1 -1,-1 -1,-1 0,-8 -1,-1 0,-7 -1,0 -1,-1 0,-3 1,-1 1,0 0,-4 1,-1 0,-1 -1,-1 0,-4 1,-1 0,-1 1,-1 0,-6 1,-1 0,-1 1,-1 1,0 0,-1 1,-1 1,0 1,-1 1,-1 0,-1 1,-1 1,-1 1,0 1,-1 1,-1 5,0 1,1 3,0 1,1 0,5 7,0 1,-1 1,0 1,-1 0,-2 1,-1 0,-2 1,-1 0,-3 1,-1 0,-3 1,-1 0,-2 1,-1 0,-2 1,-1 1,-1 2,0 1,1 1,0 1,1 1,0 1,1 1,1 1,0 1,1 1,1 1,1 1,0 1,1 2,0 0,-1 -1,0 -1,-1 -1,0 -1,-1 -1,-1 -1,-1 -1,0 -1,-1 -1,-1 -1,0 -1,-1 -1,-1 -1,0 -1,-1 0,-4 1,-1 1,-1 1,-1 1,-1 1,-1 1,0 0,-1 1,-1 1,-1 1,-1 -2,1 -1,0 -1,-1 0,-2 1,-1 1,-1 0,-1 -1,-1 0,-1 -1,-1 0,-1 -1,-1 0,-1 -2,0 -1,-1 -1,-1 -1,-1 -1,-1 -1,-1 -1,-1 -1,-1 -1,0 -1,1 0,0 -1,1 -1,1 -1,1 -2,0 -1,1 -1,0 -1,1 -1,1 -1,1 0,2 -1,1 -1,0 -1,1 -1,0 0,3 -3,3 -1,1 -1,1 -1,0 0,1 -1,1 -1,1 -1,1 -1,0 0,1 -1,1 -1,1 -1,1 -1,0 0,1 -1,1 0,1 -1,1 -1,1 -1,1 -1,1 -3,3 0,7 -1,1 -2,0 0,3 -1,1 -3,3 -1,1 -1,1 -1,0 -1,1 -1,0 -1,1 -1,0 0,19 1,1 2,0 1,1 0,1 1,1 0,1 1,1 0,2 1,1 0,4 -1,1 0,2 -1,1 2,2 0,4 1,1 0,1 1,1 0,2 -1,1 -1,1 -1,1 -2,0 -1,1 -1,1 0,1 -1,1 -2,0 0,1 1,1Z"/>
<path onmouseover="hoverPath(evt)" onmouseout="recoverPath(evt)" fill="rgb(189,215,146)" d="M  197,226l -1,0 -1,1 0,3 -1,1 0,2 -1,1 -1,0 0,4 3,0 1,-1 2,0 1,-1 3,0 1,-1 3,0 1,-1 2,0 1,-1 3,0 1,-1 4,0 1,-1 2,0 1,-1 3,0 1,-1 3,0 1,-1 2,0 1,-1 3,0 1,-1 3,0 1,-1 3,0 1,-1 2,0 1,-1 4,0 1,-1 2,0 0,-13 -1,0 -1,1 -2,0 0,2 -1,1 -3,0 -1,1 -3,0 -1,1 -3,0 -1,1 -3,0 -1,1 -1,0 -1,1 -6,0 -1,-1 -3,0 0,2 -1,1 -4,0 -1,-1 -2,0 -1,1 -3,0 -1,1 -3,0 -1,1 -2,0 -1,1 -4,0 0,2 -1,1Z"/>
<path onmouseover="hoverPath(evt)" onmouseout="recoverPath(evt)" fill="rgb(239,239,234)" d="M  31,96l 9,0 1,-1 1,0 0,-2 1,-1 1,0 0,-1 1,-1 3,0 0,-1 1,-1 1,-1 0,-1 1,-1 5,0 1,-1 1,0 1,-1 1,0 0,-1 -1,-1 0,-5 1,-1 1,-1 1,0 0,-4 -1,1 -2,0 -1,-1 0,-2 -1,0 -1,-1 0,-4 -1,0 -1,-1 -1,-1 -1,-1 -1,-1 -1,-1 -1,0 -1,-1 -1,-1 -1,0 -1,-1 0,-1 -1,-1 -1,-1 -1,-1 -1,-1 -1,-1 -1,-1 -1,-1 -1,0 -1,-1 -1,-1 -1,0 -1,-1 0,-1 -1,-1 -1,-1 -1,-1 -1,-1 -1,-1 -1,-1 -1,0 -1,-1 -1,-1 -1,0 -1,-1 0,-1 -1,-1 -1,-1 -1,-1 -1,-1 -1,-1 -1,-1 -1,0 -1,-1 -1,-1 -1,0 -1,-1 0,-1 -1,0 -1,1 -1,0 0,1 -1,1 -2,0 -1,1 -1,0 -1,1 -2,0 0,59 2,0 1,1 1,1 1,1 1,1 1,1 1,1 1,1 1,1 1,1 1,1 1,0 1,1 0,3 1,1 0,1 2,0 1,-1 1,0 1,-1 1,-1 1,0 0,-1 1,-1 2,0 1,-1 1,0 1,-1Z"/>
<path onmouseover="hoverPath(evt)" onmouseout="recoverPath(evt)" fill="rgb(242,241,234)" d="M  90,67l -4,4 -1,1 -2,2 -1,1 0,1 -1,1 -1,1 -2,2 -1,0 0,1 1,1 0,2 -1,1 -2,0 -1,-1 -1,-1 -1,1 -1,0 -1,1 -1,0 -1,1 -3,0 -1,1 -1,1 -1,0 -1,1 -1,0 -1,1 -1,1 -2,0 -1,1 -1,1 0,4 -1,1 -1,0 1,1 0,2 -1,1 -1,0 0,1 1,1 3,0 1,1 0,1 1,1 1,1 1,1 1,1 1,0 1,1 2,0 1,1 1,0 1,1 1,1 1,1 1,1 -5,-5 -3,-1 0,-1 -1,0 -1,-1 -1,0 -1,-1 -1,-1 3,3 -4,-5 0,-1 1,-1 25,0 1,1 1,0 1,1 0,-4 1,-1 5,0 1,-1 7,0 1,-1 7,0 1,1 0,3 1,-1 0,-1 1,-1 0,-1 1,-1 12,0 1,1 2,0 1,-1 2,0 1,1 1,1 1,0 1,1 1,1 1,1 1,-1 1,0 1,-1 5,-5 1,-1 2,-2 1,-1 0,-1 -1,0 -1,-1 -1,-1 -1,-1 -1,-1 -1,-1 -1,0 0,1 -1,1 -2,2 -1,1 -2,2 -1,1 -2,0 -1,-1 0,-3 2,-2 1,-1 1,0 1,-1 0,-2 -1,0 -1,-1 0,-1 -1,-1 -1,-1 -1,-1 -1,0 -1,1 -2,0 -1,-1 0,-2 1,-1 1,-1 -1,0 -1,-1 0,-1 -1,-1 -1,-1 -1,-1 -1,-1 -1,0 -1,-1 -1,-1 -1,-1 -1,-1 -1,-1 -1,-1 -1,-1 -1,-1 -1,0 -1,-1 -2,0 -1,1 -2,0 0,1 -1,1 -1,1 -1,1 -1,0 -1,1 -1,0 -1,1 -4,0 -1,1 -2,0 -1,1 16,36 -1,1 -2,2 -1,1 -1,0 -1,1 -1,1 -1,0 -1,1 -1,0 10,-6 0,-1 -16,-36Z"/>
<path onmouseover="hoverPath(evt)" onmouseout="recoverPath(evt)" fill="rgb(243,241,232)" d="M  91,114l -1,0 0,9 5,0 1,1 1,0 1,-1 2,0 1,1 3,0 1,-1 2,0 1,-1 15,0 1,-1 8,0 1,-1 1,0 1,-1 1,0 1,-1 2,-2 1,-1 1,-1 1,0 -1,-1 0,0 -1,-1 -1,-1 -1,0 -1,-1 0,-1 -1,-1 -1,-1 0,-1 -1,0 -1,-1 -1,-1 -1,-1 -1,-1 -1,-1 -1,0 -1,-1 -1,-1 -3,0 -1,-1 -10,0 0,1 -1,1 0,1 -2,2 -1,1 0,1 -1,1 -1,0 -1,1 0,1 -1,1 -2,0 -1,1 -1,1 -1,0 -1,1 -3,0 -1,-1 0,-2 1,-1 1,0 1,-1 1,0 2,-2 1,0 2,-2 1,-1 2,-2 0,-1 -5,0 -1,1 -7,0 -1,1 -5,0 0,5 -1,1 0,2 3,0 1,1 1,0 1,1 0,2 -1,1Z"/>
<path onmouseover="hoverPath(evt)" onmouseout="recoverPath(evt)" fill="rgb(243,243,236)" d="M  130,203l -1,0 -1,1 -1,1 -1,1 -1,0 0,1 -1,1 -1,1 -1,1 -1,1 -1,1 0,1 1,1 0,1 1,1 2,2 0,1 1,1 1,1 0,1 1,1 0,2 1,1 0,1 1,1 0,1 1,1 0,1 1,1 0,2 1,1 0,1 1,1 0,2 1,1 0,2 1,1 0,1 1,1 0,2 1,1 0,2 1,1 0,2 -1,1 0,1 23,0 0,-2 1,-1 2,0 -1,-1 -1,-1 -5,0 -1,-1 -1,-1 -1,-1 0,-1 -1,-1 0,-3 -1,-1 -4,0 -1,-1 -1,0 -1,-1 -1,-1 -1,-1 -1,-1 -1,-1 -1,-1 0,-1 -2,-2 0,-2 -1,-1 0,-6 1,-1 0,-1 1,-1 0,-2 -1,-1 0,-3 -1,-1 0,-2 -1,-1 -1,-1 0,-1 -1,-1 -1,-1 -1,-1 -1,-1 1,-1 0,0 -1,1Z"/>
<path onmouseover="hoverPath(evt)" onmouseout="recoverPath(evt)" fill="rgb(242,241,234)" d="M  154,136l 0,0 -1,1 0,2 -1,1 -1,1 0,1 1,1 1,1 2,0 1,1 0,1 1,1 1,1 1,1 1,1 1,1 1,-1 2,0 1,-1 1,-1 1,-1 1,-1 1,-1 1,-1 1,-1 1,-1 1,-1 0,-1 1,-1 1,-1 1,-1 1,-1 1,-1 1,-1 3,-3 1,-1 3,-3 1,-1 1,-1 1,-1 0,-1 -1,-1 -1,0 -1,-1 -1,-1 -1,-1 -1,-1 -1,0 -1,-1 -1,-1 -1,-1 -1,0 -1,-1 -1,-1 -1,-1 -1,-1 -1,0 -1,-1 -1,-1 -1,-1 -1,0 -1,-1 -1,-1 -1,-1 -1,-1 -1,0 -1,-1 -2,0 -1,1 -1,0 -1,1 -1,1 -1,1 -2,0 -1,-1 0,-3 1,-1 1,-1 1,0 1,-1 1,-1 -2,-2 -1,1 -2,0 -1,-1 0,-1 -1,-1 0,-1 -1,0 -1,1 -1,0 -1,1 -1,1 -1,1 -1,1 0,1 -1,1 -1,0 -1,1 -1,1 -1,1 0,1 1,0 1,-1 2,0 1,1 0,3 -1,1 1,1 1,1 1,0 1,1 1,1 0,2 1,1 1,1 1,1 1,1 1,1 1,1 1,1 1,1 1,1 0,3 1,1 0,5 -1,1 -2,2Z"/>
<path onmouseover="hoverPath(evt)" onmouseout="recoverPath(evt)" fill="rgb(243,241,233)" d="M  190,187l 0,7 -1,1 0,16 1,1 0,20 -1,1 0,4 1,0 0,-4 1,-1 1,0 0,-2 1,-1 0,-3 1,-1 1,-1 -1,0 -1,-1 0,-3 1,-1 0,-2 1,-1 0,-2 1,-1 0,-1 1,-1 0,-1 1,-1 0,-2 1,-1 0,-1 1,-1 1,0 1,-1 1,-1 0,-1 1,-1 0,-2 1,-1 1,-1 0,-2 1,-1 0,-1 1,-1 1,-1 0,-1 1,-1 2,0 1,1 0,2 -1,1 0,1 -1,1 0,1 -1,1 0,2 2,0 1,-1 2,0 1,-1 1,0 1,-1 1,0 1,-1 1,-1 1,0 1,-1 1,-1 0,-1 1,-1 0,-1 -1,-1 0,-1 -1,-1 -1,-1 -1,0 -1,-1 -1,0 -1,1 0,0 -1,1 -1,1 -2,0 -1,-1 0,-2 1,-1 1,-1 1,-1 1,-1 0,-1 1,-1 1,-1 1,0 1,-1 1,-1 1,0 0,-1 1,-1 0,-1 -2,0 -1,-1 -1,0 -1,-1 -1,-1 -1,-1 -1,0 -1,-1 -1,-1 -1,0 -1,-1 -1,0 -1,-1 -1,1 0,2 -1,1 0,2 -1,1 0,3 -1,1 0,3 -1,1 0,2 -1,1 0,2 -1,1 -1,1 -1,0 -1,1 -9,0 -1,1 -2,46 2,-46Z"/>
<path onmouseover="hoverPath(evt)" onmouseout="recoverPath(evt)" fill="rgb(195,210,229)" d="M  47,92l -1,0 0,1 -1,1 -1,0 0,2 -1,1 -1,0 -1,1 -1,0 0,1 -1,1 -1,0 0,3 1,0 1,1 1,-1 1,0 1,-1 1,0 0,-1 1,-1 1,-1 1,-1 3,0 0,-1 1,-1 1,0 0,-4 1,-1 2,-2 2,0 1,-1 1,-1 1,0 1,-1 1,0 1,-1 0,-1 -1,0 -1,1 -1,0 -1,1 -1,0 -1,1 -5,0 0,1 -1,1 -1,1 0,1 -1,1Z"/>
<path onmouseover="hoverPath(evt)" onmouseout="recoverPath(evt)" fill="rgb(251,250,248)" d="M  47,172l -1,0 0,1 -1,1 -2,0 -1,1 -1,0 -1,1 -1,1 -1,0 -1,1 -1,1 -1,0 -1,1 -1,1 -1,0 -1,1 -1,0 -1,1 -1,0 -1,1 -1,0 -1,1 -1,0 -1,1 -1,0 -1,1 -1,1 -1,0 -1,1 -1,0 -1,1 -1,0 -1,1 -1,0 -1,1 -1,1 -2,0 -1,-1 0,2 -2,2 -2,0 -1,-1 0,2 -1,1 -2,0 0,13 2,0 1,1 2,2 0,1 1,0 1,1 1,1 1,0 1,1 0,1 1,1 1,1 1,1 1,1 1,1 -4,-5 -1,-2 0,-1 -2,0 -1,-1 -1,-1 -1,-1 -1,-1 -1,-1 -1,-1 0,-5 1,-1 1,0 1,-1 1,0 1,-1 -1,-1 -1,-1 0,-2 1,-1 1,-1 1,0 1,-1 1,0 1,-1 1,-1 1,0 1,-1 1,0 1,-1 1,-1 1,0 1,-1 1,0 1,-1 1,0 1,-1 1,0 1,-1 1,0 1,-1 1,0 1,-1 3,0 1,1 0,-3 1,-1 1,0 1,-1 1,-1 1,0 1,-1 1,-1 2,0 1,1 0,-2 1,-1 -1,0 -5,3 -3,2 12,-8 -1,2 0,0 1,-1 1,-1 1,0 1,-1 1,-1 1,0 1,-1 1,-1 1,0 1,-1 1,-1 1,0 1,-1 1,0 0,-1 -2,0 -1,1 0,0 -1,1 -1,0 -1,1 -1,1 -1,0 -1,1 -1,1 -1,0 -1,1 1,0 3,-2 3,-2 3,-2 -24,22 0,3 -1,1 3,0 1,1 0,-3 1,-1 -3,0 -2,-1 13,-13 1,-2Z"/>
<path onmouseover="hoverPath(evt)" onmouseout="recoverPath(evt)" fill="rgb(244,243,235)" d="M  118,52l -1,0 0,1 1,1 0,0 1,1 1,0 1,1 1,1 1,1 1,1 1,0 1,1 1,1 1,1 1,1 1,1 1,0 1,1 1,1 1,1 1,1 1,1 1,1 1,0 1,1 1,1 1,1 1,1 1,1 1,0 1,1 1,1 1,1 1,1 1,1 1,0 1,1 1,1 1,1 1,0 1,1 1,1 1,1 1,1 1,0 1,1 1,1 1,1 1,0 1,1 1,1 1,1 1,1 1,1 1,1 1,0 1,1 1,1 1,1 2,2 1,1 1,1 1,1 1,1 1,1 1,1 1,1 1,1 1,0 1,1 1,1 1,0 1,1 1,1 1,1 1,1 1,0 1,1 1,1 1,1 1,1 0,1 1,-1 0,0 1,-1 1,-1 1,-1 1,-1 1,-1 0,-2 1,-1 1,-1 1,-1 1,0 1,-1 1,-1 1,-1 1,0 1,-1 1,-1 1,0 1,-1 1,-1 1,0 1,-1 1,0 1,-1 1,0 1,-1 1,0 1,-1 1,0 1,-1 1,0 1,-1 1,0 1,-1 1,0 1,-1 1,0 1,-1 1,0 1,-1 1,0 1,-1 1,0 1,-1 0,-1 -1,-1 0,0 -1,-1 0,-1 -5,0 -1,-1 -1,0 0,2 -1,1 -2,0 -1,-1 -1,0 0,2 -1,1 -1,1 -1,0 -1,1 -1,0 -1,1 -3,0 -1,-1 -1,0 -1,1 -6,0 -1,-1 -1,0 -1,-1 -1,-1 -1,0 -1,-1 -1,1 -2,0 -1,-1 -1,-1 0,-2 -1,-1 -1,-1 -1,-1 0,-1 -1,0 -1,-1 -1,-1 -1,0 -1,-1 0,-1 -1,-1 -1,0 -1,-1 -1,-1 -2,-2 -1,-1 -1,-1 -1,0 -1,-1 -1,-1 -1,-1 -1,-1 0,-1 -2,0 -1,-1 -1,-1 -1,-1 0,-1 -2,0 -1,-1 -1,-1 -1,-1 -1,0 -1,-1 -1,-1 -1,-1 -1,-1 -1,0 -1,-1 -1,-1 -1,-1 -1,-1 0,-1 -2,0 -1,-1 -1,-1 -1,-1 -1,-1 -1,-1 -1,1 -2,0 -1,-1 0,-1 -1,-1 0,-1 -2,0 0,2 -1,1 -2,0 -1,1 -2,0 -1,1 -2,0 -1,1 -2,0 -1,1 -2,0 -1,1 -2,0 -1,1 -3,0 -1,1Z"/>
<path onmouseover="hoverPath(evt)" onmouseout="recoverPath(evt)" fill="rgb(241,239,229)" d="M  189,52l 1,0 1,-1 3,0 1,-1 2,0 1,1 0,2 4,0 1,-1 3,0 1,1 2,0 1,-1 2,0 1,-1 2,0 1,-1 1,0 0,-2 1,-1 4,0 1,1 2,0 1,-1 2,0 0,-2 1,-1 2,0 1,-1 3,0 1,1 1,0 1,-1 1,0 1,-1 2,0 0,-2 1,-1 2,0 1,1 0,-2 1,-1 0,-2 -1,-1 0,0 -1,-1 -1,-1 -1,0 -1,-1 -3,0 -1,-1 0,-2 1,-1 1,0 1,-1 1,-1 3,0 1,-1 0,-1 -1,-1 0,0 -1,-1 0,-1 -1,0 -1,-1 -1,-1 0,-1 -2,0 -1,1 -2,0 -1,-1 -2,0 -1,1 -2,0 -1,-1 -1,-1 -1,-1 -1,0 -1,1 -2,0 -1,1 -2,0 -1,1 -2,0 -1,1 -1,0 -1,1 -2,0 -1,1 -1,0 -1,1 -2,0 -1,1 -2,0 -1,1 -6,0 -1,-1 -3,0 -1,1 -5,0 -1,-1 -1,-1 0,2 -1,1 -1,1 -4,0 -1,1 -1,0 0,2 -1,1 -1,1 -4,0 -1,-1 -1,1 0,1 -1,1 -1,0 1,1 5,0 1,-1 5,0 1,-1 5,0 1,1 0,3 -1,1 0,1 -1,1 0,2 1,1 0,7 1,1 0,1 2,0 1,1Z"/>
<path onmouseover="hoverPath(evt)" onmouseout="recoverPath(evt)" fill="rgb(194,217,155)" d="M  220,116l -1,0 -1,1 -1,1 -1,1 -1,1 0,1 1,1 0,2 1,1 0,2 1,-3 3,0 1,-1 1,-1 0,-3 1,-1 1,0 1,-1 1,0 1,-1 1,0 1,-1 2,0 1,-1 2,0 0,-1 1,-1 3,0 1,-1 2,0 1,1 0,1 1,1 -1,-3 1,-1 1,-1 1,0 1,-1 2,0 1,-1 5,0 0,-10 -1,0 -1,1 -1,0 -1,1 -2,0 -1,1 -1,0 -1,1 -1,0 -1,1 -2,0 0,1 -1,1 -1,0 0,2 -1,1 -1,0 -1,1 -2,0 -1,1 -2,0 -1,1 -1,1 -2,0 -1,-1 -1,0 -1,1 0,2 -1,1 -1,0 -1,1 -1,0 -1,1Z"/>
<path onmouseover="hoverPath(evt)" onmouseout="recoverPath(evt)" fill="rgb(209,214,217)" d="M  24,101l 0,1 1,1 0,9 5,0 1,-1 1,-1 0,-1 1,-1 1,0 1,-1 1,0 1,-1 2,0 -1,-1 -1,0 -1,-1 0,-5 1,-1 -8,0 -1,1 -1,0 -1,1 -1,0 -1,1 16,6 0,1 3,0 1,1 0,2 1,1 1,1 1,1 0,1 1,0 0,-1 -4,-6 1,-1 -1,-1 0,-2 -1,1 -1,0 -1,1 -1,1 -16,-6Z"/>
<path onmouseover="hoverPath(evt)" onmouseout="recoverPath(evt)" fill="rgb(254,254,254)" d="M  31,134l 0,1 1,0 2,2 1,1 0,1 1,1 0,2 -1,1 -1,0 -1,1 -1,0 -1,1 -1,0 -1,1 -1,1 -1,0 -1,1 -1,0 -1,1 -1,0 -1,1 -1,0 -1,1 -1,0 -1,1 -1,1 -1,0 0,1 -1,1 -2,0 -1,1 -1,1 -1,0 -1,1 -1,1 -1,0 -1,1 -1,1 -1,0 -1,1 -1,1 -2,0 0,2 1,0 1,-1 0,0 1,-1 2,0 0,-1 1,-1 2,0 0,-1 1,-1 2,0 0,-1 1,-1 1,-1 1,0 17,-22 -11,18 1,0 1,-1 1,0 1,-1 1,-1 1,0 1,-1 1,0 1,-1 1,0 1,-1 1,0 1,-1 1,0 1,-1 1,-1 2,0 1,-1 -1,-1 -1,0 1,1 -4,2 0,0 -2,1 -2,1 -7,4 -2,1 -1,1 11,-18Z"/>
<path onmouseover="hoverPath(evt)" onmouseout="recoverPath(evt)" fill="rgb(233,234,228)" d="M  92,44l 0,0 -1,-1 -1,-1 0,-1 -3,0 -1,-1 0,-1 -1,-1 0,-1 -1,0 -1,-1 -1,-1 -1,-1 -1,-1 -1,-1 -1,0 -1,-1 -1,-1 -1,-1 -1,-1 -1,0 0,3 -1,1 -2,0 -1,1 -1,1 -1,1 0,2 -1,1 -1,1 -1,0 -1,1 -1,1 -1,1 -1,0 -1,1 -2,0 -1,-1 -1,1 0,0 -1,1 -1,1 -2,0 0,1 -1,1 -1,1 1,1 0,2 1,1 1,1 1,1 1,1 1,1 1,1 1,1 1,0 1,1 0,2 -1,1 0,4 1,0 1,1 0,2 1,-1 2,0 1,1 0,6 -1,1 -1,0 -1,1 0,3 1,1 0,1 2,0 1,1 0,1 2,0 1,-1 1,0 1,-1 1,0 1,-1 2,0 1,1 1,1 -1,-2 0,-2 1,-1 1,0 1,-1 1,-1 1,-1 0,-1 1,-1 1,-1 1,-1 1,-1 1,-1 1,-1 1,-1 1,-1 1,-1 1,-1 2,0 1,-1 4,0 1,-1 1,0 1,-1 1,0 1,-1 1,-1 0,-3 1,-1 0,-2 -1,0 -1,-1 -1,-1 0,-5 1,-1 1,-1 0,-1 -2,0 -1,1 -1,0 -1,1 -2,0 -1,-1Z"/>
<path onmouseover="hoverPath(evt)" onmouseout="recoverPath(evt)" fill="rgb(242,241,233)" d="M  91,132l 0,-2 -1,-1 0,-1 -1,1 0,1 -1,1 -2,0 -1,-1 0,-3 -3,0 -1,-1 -1,0 -1,-1 -1,0 -1,-1 -1,-1 0,-2 1,-1 2,0 1,1 2,0 1,1 3,0 0,-2 -1,-1 0,-8 -1,-1 0,-3 -1,-1 0,-1 -1,0 -1,-1 -23,0 1,1 0,0 1,1 1,0 1,1 1,0 1,1 0,1 2,0 1,1 1,1 1,1 1,1 1,1 1,1 0,2 -1,1 -2,0 -1,-1 -1,-1 -1,-1 -1,-1 -1,0 -1,-1 -2,0 -1,-1 -1,0 -1,-1 -1,-1 -1,-1 -1,-1 -1,-1 0,-1 -3,0 -1,-1 -1,-1 0,-3 1,-1 -2,0 -1,1 -1,1 0,3 1,1 0,2 -1,1 0,1 1,1 1,1 1,0 1,1 0,3 -1,1 -3,0 -1,-1 0,-1 -1,-1 -1,-1 -1,-1 0,-2 -3,0 -1,-1 0,-1 -1,1 -1,0 -1,1 -1,0 0,1 -1,1 -1,1 -1,1 0,5 1,0 1,1 1,1 1,1 1,1 0,1 1,1 1,1 1,1 1,1 1,1 1,1 1,1 1,1 1,1 1,1 1,1 1,1 0,1 1,0 1,1 1,1 1,1 1,1 1,1 1,1 1,1 1,1 0,1 1,1 0,1 1,1 0,1 2,0 1,1 1,1 1,1 1,1 1,0 1,1 1,-1 0,0 1,-1 1,0 1,-1 1,-1 1,-1 1,0 1,-1 -1,-1 0,-2 1,-1 3,0 1,1 0,-2 1,-1 2,0 1,1 0,-2 -1,-1 0,-2 -14,0 -1,-1 0,-2 1,-1 8,0 1,-1 6,0 1,-1 2,0 1,1 0,7 1,0 1,1 1,1 1,1 0,1 4,4 1,1 1,1 1,1 1,1 1,0 1,1 1,0 1,1 0,2 1,0 1,1 8,0 1,-1 6,0 1,-1 2,0 1,-1 2,0 0,-2 1,-1 1,0 1,-1 1,0 1,-1 1,-1 1,-1 2,0 1,1 1,-1 0,0 1,-1 1,0 1,-1 1,-1 1,-1 1,0 2,-2 2,0 1,1 1,0 1,1 1,1 -2,-3 0,-2 1,-1 1,-1 0,-2 1,-1 1,-1 1,0 1,-1 1,-1 0,-3 -1,-1 0,-1 -1,0 -1,-1 -1,-1 -1,-1 -1,-1 -1,-1 -1,0 -1,-1 0,-1 -1,-1 -1,-1 -1,0 -1,-1 0,-1 -1,0 -1,1 0,0 -2,2 -1,1 -1,1 -1,0 -1,1 -1,0 -1,1 -8,0 0,2 -1,1 -14,0 -1,1 -1,0 -1,1 -1,0 0,2 1,1 0,0 1,1 0,1 1,1 0,1 1,1 0,4 -1,1 -1,0 -1,1 -4,0 -1,-1 -1,-1 -1,-1 -1,-1 -1,-1 -2,0 -1,-1 -2,0 -1,-1 0,-2 -1,-1Z"/>
<path onmouseover="hoverPath(evt)" onmouseout="recoverPath(evt)" fill="rgb(253,253,253)" d="M  105,45l 0,0 -1,1 -1,1 1,0 1,-1 0,0 1,-1 1,0 1,-1 1,-1 1,-1 1,0 1,-1 1,-1 1,0 1,-1 1,-1 1,0 1,-1 1,-1 1,0 1,-1 2,0 0,-1 1,-1 1,0 1,-1 1,-1 1,0 1,-1 1,-1 1,0 1,-1 1,-1 1,0 1,-1 1,-1 1,0 1,-1 1,-1 1,0 1,-1 1,-1 1,0 1,-1 1,-1 1,0 1,-1 1,-1 1,0 1,-1 1,-1 1,0 1,-1 1,-1 2,0 0,-1 1,-1 2,0 0,-1 1,-1 2,0 0,-1 1,-1 1,-1 1,0 1,-1 2,0 0,-1 1,-1 4,0 0,-3 -8,0 0,2 -1,1 -1,0 -1,1 -1,1 -1,0 -1,1 -1,1 -1,0 -1,1 -1,1 -1,0 -1,1 -1,1 -1,0 -1,1 -1,1 -1,0 -1,1 -1,1 -1,0 -1,1 -1,1 -1,0 -1,1 -2,0 0,1 -1,1 -2,0 0,1 -1,1 -2,0 0,1 -1,1 -1,0 -1,1 -1,1 -1,0 -1,1 -1,1 -1,0 -1,1 -1,1 -1,0 -1,1 -1,1 -1,0 -1,1 -1,1 -1,1 -3,3 -1,1 -1,1 -1,0 0,1 -1,1 -1,1 -1,1 -1,0 -1,1Z"/>
<path onmouseover="hoverPath(evt)" onmouseout="recoverPath(evt)" fill="rgb(239,238,231)" d="M  117,31l 1,-1 1,0 1,-1 1,-1 1,0 1,-1 1,-1 1,0 1,-1 1,-1 1,0 1,-1 1,-1 1,0 0,-1 1,-1 2,0 0,-1 1,-1 2,0 0,-1 1,-1 2,0 1,-1 1,0 1,-1 1,-1 1,0 1,-1 1,-1 1,0 1,-1 1,-1 1,0 2,-2 1,0 1,-1 1,-1 1,0 1,-1 1,-1 1,0 1,-1 1,-1 1,0 0,-1 -107,0 0,1 1,1 0,0 1,1 3,3 1,0 1,1 1,1 1,1 1,1 1,1 1,1 1,0 2,2 1,1 1,1 1,1 1,1 1,0 1,1 1,1 1,1 1,1 1,1 1,0 1,1 2,2 1,1 1,1 1,1 1,0 1,1 1,0 1,1 1,1 0,3 1,0 1,1 1,1 2,0 1,1 1,1 1,1 0,1 3,0 1,1 1,0 1,-1 0,0 1,-1 0,-1 1,-1 1,0 3,-3 1,-1 1,-1 1,-1 1,-1Z"/>
<path onmouseover="hoverPath(evt)" onmouseout="recoverPath(evt)" fill="rgb(182,208,193)" d="M  181,181l -1,0 -1,1 0,1 -1,1 -1,1 -1,1 -1,0 0,1 -1,1 -1,0 0,1 -1,1 0,6 -1,1 0,1 -1,1 0,2 1,1 0,3 -1,1 0,4 -1,1 -1,0 0,1 1,0 1,1 0,7 1,1 0,8 1,1 1,1 0,1 1,-2 2,0 1,1 2,0 1,1 1,0 1,-1 6,0 0,-18 -1,-1 0,-18 1,-1 0,-8 1,-1 1,0 0,-4 -3,0 -1,-1 -3,0 -1,1 -1,1Z"/>
<path onmouseover="hoverPath(evt)" onmouseout="recoverPath(evt)" fill="rgb(241,240,232)" d="M  186,17l 0,0 1,1 0,3 1,1 3,0 1,-1 5,0 1,1 4,0 1,-1 2,0 1,-1 2,0 1,-1 1,0 1,-1 2,0 1,-1 1,0 1,-1 2,0 1,-1 2,0 1,-1 2,0 1,-1 1,0 0,-2 1,-1 2,0 1,1 0,1 1,1 2,2 2,0 1,-1 2,0 1,1 2,0 1,-1 6,0 1,1 0,2 -1,1 1,1 0,1 1,1 0,1 1,0 1,1 1,0 1,1 0,1 1,0 0,-25 -80,0 0,4 -1,1 1,1 0,0 1,1 1,1 0,1 2,0 1,1 0,3 -1,1 4,0 1,1 0,2 2,0 8,-15 2,0 1,1 0,2 -2,2 -2,0 -1,-1 0,-2 1,-1 1,-1 -8,15Z"/>
<path onmouseover="hoverPath(evt)" onmouseout="recoverPath(evt)" fill="rgb(185,210,188)" d="M  198,213l 0,1 -1,1 0,2 -1,1 0,2 -1,1 0,1 1,0 1,-1 4,0 1,-1 2,0 1,-1 3,0 1,-1 3,0 1,-1 4,0 1,1 2,0 0,-2 1,-1 5,0 1,1 4,0 1,-1 1,0 1,-1 3,0 1,-1 3,0 1,-1 3,0 1,-1 3,0 0,-2 1,-1 2,0 1,-1 2,0 0,-80 -2,0 -1,1 -1,0 -1,1 -1,0 -1,1 -1,0 -1,1 -1,1 1,1 0,6 -3,3 -1,1 -1,1 -2,0 0,1 -1,1 -1,1 -1,1 -1,0 0,3 1,1 0,3 1,1 0,2 -1,1 0,2 -1,1 0,2 -1,1 0,1 -1,1 0,1 -1,1 -3,0 -1,1 -1,0 -1,1 0,2 -1,1 0,1 -1,1 -1,0 -1,1 -1,1 -1,0 -1,1 0,1 -4,4 4,-3 2,0 1,1 1,0 1,1 1,1 1,1 0,1 1,1 0,3 -1,1 0,1 -1,1 -1,1 -1,1 -1,0 -2,2 -1,0 -1,1 -1,0 -1,1 -2,0 -1,1 -4,0 -1,-1 0,-4 1,-1 0,-1 1,-1 -3,6 -1,1 0,2 -1,1 0,1 -1,1 -1,1 -1,1 -1,0 0,1 -1,1 0,2 -1,1 0,1 -1,1Z"/>
<path onmouseover="hoverPath(evt)" onmouseout="recoverPath(evt)" fill="rgb(243,242,234)" d="M  2,8l 0,0 1,1 1,0 1,1 1,0 1,1 0,1 1,1 1,1 1,1 1,0 1,1 1,1 1,1 1,0 1,1 0,1 1,1 1,1 1,1 1,1 1,1 1,1 1,0 1,1 1,1 1,0 1,1 0,1 1,1 1,1 1,1 1,1 1,1 1,1 1,0 1,1 1,1 1,0 1,1 0,1 1,1 1,1 1,1 1,1 1,1 1,1 1,0 1,1 1,0 2,-2 0,-1 1,-1 2,0 1,-1 1,-1 1,-1 2,0 1,1 1,-1 1,0 1,-1 1,-1 0,-2 1,-1 1,-1 1,0 1,-1 1,-1 1,-1 1,-1 2,0 0,-4 -1,-1 0,0 -1,-1 -1,0 -1,-1 -1,-1 -1,-1 -1,-1 -1,0 -1,-1 -1,-1 -1,-1 -2,-2 -1,-1 -1,0 -1,-1 -1,-1 -1,-1 -2,-2 -1,-1 -1,0 -1,-1 -1,-1 -1,-1 -1,-1 -1,-1 -1,-1 0,-2 -43,0 0,8Z"/>
<path onmouseover="hoverPath(evt)" onmouseout="recoverPath(evt)" fill="rgb(243,242,233)" d="M  12,254l 0,-2 1,-1 1,-1 4,0 1,-1 1,-1 0,-2 -6,-6 -1,-1 -3,-3 -1,-1 -1,-1 -2,0 -1,1 -1,0 -1,1 -1,0 -1,1 -1,0 0,18 11,0 1,-1Z"/>
<path onmouseover="hoverPath(evt)" onmouseout="recoverPath(evt)" fill="rgb(240,237,226)" d="M  20,238l 0,0 1,1 1,1 1,1 3,0 1,1 1,1 1,1 1,1 0,3 1,1 1,1 1,1 1,1 1,1 0,2 9,0 0,-3 1,-1 0,-2 1,-1 1,0 1,-1 2,0 1,1 0,2 -1,1 0,1 1,-1 1,0 1,-1 1,0 -1,-1 0,-2 1,-1 0,-2 1,-1 1,0 1,-1 1,0 1,-1 0,-4 1,-1 -1,-1 0,-2 -1,-1 -1,-1 0,-1 -1,-1 0,-2 1,-1 1,-1 -6,0 -1,-1 0,-2 1,-1 0,-4 -2,0 -1,-1 0,-1 -1,-1 0,-1 -1,-1 -2,0 -1,-1 -1,0 -1,1 -2,0 -1,-1 0,-2 2,-2 0,-2 -1,-1 0,-1 -2,0 -1,1 -1,0 -1,1 -2,0 -1,-1 0,-2 1,-1 1,0 1,-1 1,0 1,-1 0,-2 -1,-1 0,-1 -1,-1 0,-1 -3,0 -1,-1 0,-2 1,-1 -1,-1 0,-2 -1,0 -1,1 -1,0 -1,1 -1,0 -1,1 -1,0 -1,1 -1,0 -1,1 -1,0 -1,1 -1,0 -1,1 -1,1 -1,0 -1,1 -1,0 -1,1 -1,1 -1,0 -1,1 -1,0 -1,1 1,1 0,0 1,1 0,2 -1,1 -1,1 -1,0 -1,1 -1,0 0,3 1,1 0,0 2,2 1,1 1,1 2,0 1,1 0,2 1,1 0,1 1,1 3,3 0,2 -1,1 -2,0 -1,-1 -1,-1 -1,-1 -1,-1 -1,-1 -1,-1 0,-1 -1,0 -1,-1 -1,-1 -1,0 -1,-1 0,-1 -1,-1 -1,-1 -1,0 0,7 2,0 1,1 1,1 1,1 1,1 1,1 1,1 1,1 1,1 1,1 1,1 1,1 1,1 1,1 1,1 1,1 1,1 2,2 10,-47 -2,0 -1,1 0,2 3,-3 -10,47 8,-43 0,0 -8,43 9,-43 1,0 1,-1 -2,1 -9,43 11,-45 0,0 -11,45 17,-25 0,2 -1,1 -1,1 -2,0 -1,-1 0,-2 1,-1 1,-1 2,0 1,1 -17,25 -2,-34 1,-1 2,0 1,1 0,2 -1,1 -2,0 -1,-1 0,-2 2,34Z"/>
<path onmouseover="hoverPath(evt)" onmouseout="recoverPath(evt)" fill="rgb(246,237,150)" d="M  56,255l 11,0 0,-2 1,-1 1,0 1,-1 1,-1 1,-1 1,0 1,-1 1,-1 1,0 1,-1 1,-1 1,-1 1,0 1,-1 1,-1 1,0 1,-1 2,-2 2,0 0,-1 1,-1 2,-2 1,0 1,-1 1,-1 1,-1 2,-2 1,-1 6,0 0,-2 1,-1 0,-1 1,-1 1,-1 1,-1 1,-1 1,-1 2,0 1,1 0,1 1,1 0,1 1,1 0,1 1,1 1,1 1,1 0,1 1,1 0,2 -1,1 -1,0 1,1 0,0 1,1 0,1 1,0 1,1 1,1 0,2 1,1 0,1 1,1 0,2 1,1 0,1 1,1 0,2 1,1 0,3 8,0 0,-2 1,-1 -1,-1 0,-2 -1,-1 0,-2 -1,-1 0,-1 -1,-1 0,-2 -1,-1 0,-2 -1,-1 0,-1 -1,-1 0,-2 -1,-1 0,-1 -1,-1 0,-1 -1,-1 0,-1 -1,-1 0,-2 -1,-1 0,-1 -1,-1 -1,-1 0,-1 -1,-1 -1,-1 -1,-1 0,-1 -1,-1 0,-3 1,-1 1,-1 1,-1 1,-1 1,-1 0,-1 1,-1 1,0 1,-1 1,-1 1,-1 1,0 0,-1 1,-1 3,0 1,-1 1,0 0,-1 1,-1 2,0 1,-1 2,-2 1,0 1,-1 1,0 1,-1 0,-1 1,-1 0,-1 1,-1 0,-3 1,-1 1,0 1,-1 1,-1 1,-1 1,-1 0,-1 1,-1 1,-1 1,-1 1,-1 1,-1 1,-1 7,0 0,-7 1,-1 1,-1 1,-1 1,-1 1,-1 1,-1 1,-1 0,-1 1,-1 0,-1 1,-1 1,0 1,-1 1,-1 0,-1 1,-1 1,0 1,-1 1,-1 0,-1 1,-1 1,0 1,-1 1,-1 2,-2 0,-3 1,-1 1,0 1,-1 1,0 0,-2 1,-1 1,-1 1,-1 1,-1 1,0 1,-1 2,0 1,-1 1,-1 1,-1 1,-1 0,-3 1,-1 2,0 1,-1 1,0 0,-2 1,-1 0,-1 1,-1 2,0 1,-1 1,-1 1,-1 2,0 1,1 1,-1 1,0 1,-1 1,0 0,-2 1,-1 1,-1 3,0 1,1 1,-1 0,0 1,-1 2,0 1,-1 2,0 1,-1 1,0 0,-2 1,-1 1,0 0,-1 1,-1 2,0 1,-1 1,0 1,-1 1,0 1,-1 2,0 1,-1 1,0 1,-1 2,0 0,-9 -2,0 -1,1 -1,0 -1,1 -1,0 -1,1 -1,0 -1,1 -4,0 -1,-1 0,2 -1,1 -1,1 -1,0 -1,1 -1,0 -1,1 -1,0 -1,1 -1,0 -1,1 -1,0 -1,1 -1,0 -1,1 -1,0 -1,1 -1,0 -1,1 -1,0 -1,1 -1,0 -1,1 -1,0 -1,1 -1,0 -1,1 -1,1 -1,0 -1,1 -1,1 -1,0 -1,1 -1,1 -1,1 -1,0 -1,1 -1,1 0,2 -1,1 -1,1 -1,1 -1,1 -1,1 -1,1 -1,1 -1,0 -1,1 -1,1 -1,1 -2,0 -1,1 -2,2 -1,1 -10,10 -1,1 -1,1 0,1 -1,1 -2,2 -1,1 -5,5 -1,1 -2,0 -1,1 -2,0 1,1 0,2 -1,1 -1,0 0,1 -2,2 -1,1 -5,5 -1,1 -5,5 -1,1 -10,10 -1,1 -1,1 -1,1 -2,2 -1,1 -1,1 0,1 -1,1 -2,2 -1,1 -1,1 -1,1 -2,2 0,1 -1,1 -1,0 -1,1 -2,2 -1,1 -3,0 -1,-1 0,-1 -1,-1 -1,-1 -1,-1 -1,-1 -1,-1 -1,-1 -1,-1 -1,-1 -1,-1 -1,-1 -1,0 -1,-1 0,-2 -1,-1 0,-2 -4,0 -1,-1 0,-2 -1,-1 -1,-1 -1,-1 -1,-1 -1,-1 0,-1 -1,0 -1,-1 -1,0 -1,-1 0,-1 -1,-1 -1,-1 -1,-1 -1,-1 -1,-1 0,-1 -1,-1 -1,-1 -1,-1 -1,-1 -1,-1 -1,-1 0,-1 -1,-1 -2,0 -1,-1 -2,-2 0,-2 -1,0 -1,-1 -1,-1 -1,-1 -1,-1 -2,0 -1,-1 0,-1 -1,-1 0,-1 -1,-1 0,-1 -1,-1 -1,-1 -1,-1 -1,-1 -1,-1 -1,-1 -1,-1 -1,0 -1,-1 0,-1 -1,-1 -1,-1 -1,-1 -1,-1 -1,-1 -1,-1 -1,-1 -1,-1 -1,-1 -1,-1 -1,-1 -1,-1 0,-1 -1,-1 -1,-1 -1,-1 -1,0 -1,-1 0,-6 -5,0 -1,-1 0,-9 -1,-1 0,-1 -1,1 0,0 -1,1 -1,0 -1,1 -4,0 -1,-1 0,-1 -1,-1 0,-3 -1,0 -1,-1 -1,-1 -1,-1 -1,-1 -1,-1 -1,-1 -1,-1 -1,-1 -1,-1 -1,-1 -1,0 0,27 2,0 1,-1 1,0 1,-1 5,0 1,1 0,2 1,1 0,5 -1,1 0,3 -1,1 -1,1 0,1 -1,1 0,1 -1,1 -1,1 0,1 -1,1 -1,1 -1,1 2,0 1,-1 1,-1 0,-1 1,-1 1,-1 1,-1 0,-1 1,-1 0,-1 1,-1 5,0 0,-3 -1,-1 0,-2 1,-1 5,0 1,1 0,4 3,0 1,1 1,1 1,1 0,1 1,0 1,1 1,1 1,1 1,1 1,1 1,1 1,1 1,1 0,1 1,0 1,1 1,1 0,2 -1,1 2,0 1,1 1,1 1,1 1,1 1,1 1,1 1,1 1,1 1,1 0,1 4,4 1,1 2,2 0,1 3,0 1,1 0,3 1,0 1,1 1,1 0,1 1,0 2,2 2,0 1,1 0,3 1,1 1,1 1,1 2,2 0,3 -1,1 1,0 1,1 0,1 1,1 1,1 1,1 1,1 1,0 1,-1 3,0 1,1 0,3 1,0 1,1 1,1 1,1 1,1 1,1 1,1 1,0 1,1 0,1 2,0 1,1 1,1 0,4 1,0 1,1 0,2 -1,1 -2,0 0,3 -1,1 0,1 -1,1 -1,0 0,2 -1,1 -2,0 -1,1 -1,1 -1,1 -1,1 -1,1 -1,1 -1,1 -1,1 -1,0 -1,1 -1,1 -1,0 0,1 1,1 0,3 -1,1 -3,0 0,2 -1,1 -2,0 -1,1 0,2 -1,1 -1,1 -1,1 -4,0 0,1 -1,1 -3,0 -1,-1 -1,-1 -1,0 -1,1 -1,0 -1,1 -1,0 -1,1 1,1 0,2 -1,1 -1,0 -1,1 -1,0 -1,1 -2,0 -1,-1 0,-1 -1,0 -1,1 0,2 10,0 -53,-116 -1,-1 -2,0 0,2 1,0 1,-1 1,0 53,116 40,-69 -40,69 98,-108 0,-1 -1,0 0,1 1,0 -98,108Z"/>
<path onmouseover="hoverPath(evt)" onmouseout="recoverPath(evt)" fill="rgb(241,238,228)" d="M  62,214l -2,0 -1,-1 0,-2 1,-1 2,0 1,1 0,2 -1,1 -4,0 0,2 -1,1 -2,0 -1,-1 0,6 -1,1 6,0 1,1 0,2 -1,1 -1,1 1,1 0,1 1,1 1,1 0,2 1,1 0,2 -1,1 0,3 1,1 0,1 1,1 1,1 1,0 0,-1 1,-1 4,0 1,-1 1,-1 0,-2 1,-1 1,-1 2,0 0,-2 1,-1 3,0 0,-1 -1,-1 0,-3 1,-1 1,0 1,-1 1,-1 1,0 1,-1 1,-1 1,-1 1,-1 1,-1 3,-3 2,0 0,-2 1,-1 1,0 0,-1 1,-1 0,-3 1,-1 2,0 -2,-1 0,-4 -1,-1 -2,0 -1,-1 0,-1 -1,0 -1,-1 -1,-1 -1,-1 -1,-1 -1,-1 -1,-1 -1,0 -1,-1 0,-3 -1,0 -1,1 -3,0 -1,-1 -1,-1 -1,-1 -1,-1 -1,-1 0,-1 -1,0 -1,-1 0,-2 1,-1 0,-1 -1,-1 0,0 -1,-1 -1,-1 -1,-1 -1,-1 0,-3 -2,0 -1,-1 -1,-1 -1,0 -1,-1 0,-1 -1,-1 -1,0 -1,-1 -1,1 -1,0 -1,1 -1,1 -1,0 -1,1 -1,1 -1,0 -1,1 -1,1 -1,0 -1,1 -1,1 -1,0 -1,1 0,2 -1,1 -2,0 -1,-1 -1,1 0,0 -1,1 -1,0 -1,1 -1,1 -1,0 0,2 1,1 3,0 1,1 0,2 -1,1 0,4 -1,1 1,1 0,4 -1,1 3,0 1,1 0,1 1,1 0,4 -1,1 -1,1 2,-1 2,0 1,1 2,0 1,1 1,1 0,1 1,1 0,1 3,0 0,-1 1,-1 2,0 1,1 4,0 -1,11 2,0 1,-1 0,0 -3,1 1,-11 2,9 0,-1 -1,-1 0,0 1,2 -2,-9 0,7 -1,0 -1,1 0,0 2,-1 0,-7 -2,9 0,0 2,-9 -6,-39 1,-1 2,0 1,1 0,2 -1,1 -2,0 -1,-1 0,-2 6,39 14,11 -1,1 -2,0 -1,-1 0,-2 1,-1 2,0 1,1 0,2 -14,-11 13,5 -1,-1 0,-2 1,-1 2,0 1,1 0,2 -1,1 -2,0 -13,-5 -13,-18 -1,-1 0,-2 1,-1 1,0 1,-1 2,0 1,1 0,2 -1,1 -1,0 -1,1 -2,0 13,18 -10,-30 1,-1 2,0 1,1 0,2 -1,1 -2,0 -1,-1 0,-2 10,30Z"/>
<path onmouseover="hoverPath(evt)" onmouseout="recoverPath(evt)" fill="rgb(243,242,234)" d="M  99,190l 0,1 1,0 2,2 1,1 1,1 1,1 2,2 1,1 1,1 1,1 1,1 0,1 1,0 4,-4 1,0 0,-1 1,-1 2,-2 1,-1 2,-2 1,-1 1,-1 0,-1 1,-1 4,-4 1,-1 2,-2 1,-1 2,-2 1,-1 4,-4 1,-1 4,-4 1,-1 4,-4 1,-1 2,-2 1,-1 2,-2 0,-1 1,-1 1,0 -1,-1 0,0 -1,-1 -1,-1 -1,-1 -1,-1 -1,-1 -1,0 -1,-1 0,-1 -1,0 -1,-1 -1,-1 -1,0 -1,-1 -1,1 0,0 -1,1 -1,0 -1,1 -1,1 -1,1 -1,0 -1,1 -1,1 -2,0 -1,-1 -2,2 -1,1 -1,0 -1,1 -1,0 0,2 -1,1 -2,0 -1,1 -2,0 -1,1 -6,0 -1,1 -10,0 -1,-1 -1,0 -1,-1 -2,0 -1,-1 -2,0 -1,-1 0,-1 -1,-1 -1,-1 -1,-1 -1,-1 -1,-1 -1,-1 -1,0 0,2 -1,1 -1,1 -1,0 -1,1 -1,1 -1,0 -1,1 -1,1 -2,0 0,1 -1,1 -4,0 -1,1 1,1 0,1 1,1 1,1 1,1 1,1 1,1 1,1 0,1 1,1 1,1 1,1 1,1 1,1 0,1 1,0 1,1 1,0 1,1 0,1 1,1 1,1 1,1 1,1 1,1 0,2 1,0 1,-1 5,0 1,1 0,2 -1,1 -2,0 1,1Z"/>
<path onmouseover="hoverPath(evt)" onmouseout="recoverPath(evt)" fill="rgb(182,206,240)" d="M  105,126l -5,0 -1,-1 -1,1 -3,0 -1,-1 -5,0 -1,-1 -6,0 1,1 3,0 1,1 0,3 1,-2 0,0 1,-1 2,0 1,1 0,1 1,1 0,2 1,1 0,2 2,0 1,1 2,0 1,1 1,1 1,1 1,1 1,1 2,0 1,-1 1,0 0,-2 -1,-1 0,-1 -1,-1 0,-1 -1,-1 -1,-1 0,-4 1,-1 -24,-3 -2,0 -1,-1 3,2 0,0 7,-1 0,-10 1,-1 1,0 -2,-1 -1,0 0,7 1,-6 0,0 -7,11 24,3 2,-1 1,0 1,-1 14,0 -16,1 -2,1Z"/>
<path onmouseover="hoverPath(evt)" onmouseout="recoverPath(evt)" fill="rgb(238,238,229)" d="M  111,47l 0,0 1,1 6,0 1,1 2,0 1,-1 2,0 1,-1 2,0 1,-1 2,0 1,-1 2,0 1,-1 2,0 1,-1 2,0 0,-2 1,-1 4,0 1,1 0,1 1,1 0,-2 1,-1 1,-1 1,0 1,-1 2,0 1,-1 1,0 1,-1 2,0 1,-1 1,0 1,-1 1,0 1,-1 3,0 0,-1 1,-1 1,0 0,-1 1,-1 1,-1 2,0 1,1 2,0 1,-1 0,-2 1,-1 1,0 1,-1 4,0 1,-1 0,-4 -1,-1 0,-2 -4,0 -1,-1 0,-2 1,-1 0,-1 -2,0 -1,-1 0,-1 -1,-1 -1,-1 -1,-1 0,-1 -2,0 0,1 -1,1 -2,0 -1,1 -1,0 -1,1 0,1 -1,1 -2,0 0,1 -1,1 -2,0 0,1 -1,1 -2,0 -1,1 -1,1 -1,0 -1,1 -1,1 -1,0 -1,1 -1,1 -1,0 -1,1 -1,1 -1,0 -1,1 -1,1 -1,0 -1,1 -1,1 -1,0 -1,1 -1,1 -1,0 -1,1 -1,1 -1,0 -1,1 -1,1 -1,0 -1,1 -1,1 -1,0 0,1 -1,1 -2,0 -1,1 -1,0 -1,1 -1,1 -1,0 -1,1 -1,1 -1,0 -1,1 -1,1 -1,0 -1,1 -1,1 1,1 1,0 64,-31 0,2 -1,1 -1,0 -1,1 -1,0 -1,1 -1,0 -1,1 -1,0 -1,1 -2,0 -1,-1 0,2 -1,1 -1,0 -1,1 -1,0 -1,1 -1,0 -1,1 -1,0 -1,1 -1,0 -1,1 -2,0 -1,-1 0,-2 1,-1 1,0 1,-1 1,0 1,-1 1,0 1,-1 1,0 1,-1 1,0 1,-1 3,0 0,-1 1,-1 1,0 1,-1 1,0 1,-1 1,0 1,-1 1,0 1,-1 2,0 1,1 -64,31Z"/>
<path onmouseover="hoverPath(evt)" onmouseout="recoverPath(evt)" fill="rgb(239,237,227)" d="M  112,245l 0,0 -1,1 -1,0 0,5 -1,1 -2,0 -1,-1 0,-3 -1,0 -1,-1 0,-1 -1,0 -1,-1 0,-2 -1,0 0,2 -1,1 -1,0 -1,1 0,1 -1,1 -1,0 0,1 1,1 0,1 1,1 1,1 0,1 26,0 0,-2 -1,-1 0,-2 -1,-1 0,-1 -1,-1 0,-2 -1,-1 0,-1 -2,0 -1,-1 0,-1 -1,1 -1,0 0,1 -1,1 -2,0 -1,1Z"/>
<path onmouseover="hoverPath(evt)" onmouseout="recoverPath(evt)" fill="rgb(170,198,238)" d="M  165,253l 0,0 -1,1 -2,0 0,1 93,0 0,-26 -2,0 -1,1 -2,0 -1,1 -3,0 -1,1 -3,0 -1,1 -3,0 -1,1 -3,0 -1,1 -3,0 -1,1 -2,0 -1,1 -2,0 -1,1 -3,0 -1,1 -3,0 -1,1 -2,0 -1,1 -3,0 -1,1 -4,0 -1,1 -3,0 -1,1 -1,0 -1,1 -7,0 -1,-1 -4,0 0,1 -2,2 -1,0 -1,1 -1,0 -1,1 -1,0 -1,1 -2,0 -1,1 -3,0 -1,1 -1,1Z"/>
<path onmouseover="hoverPath(evt)" onmouseout="recoverPath(evt)" fill="rgb(243,242,236)" d="M  222,126l -3,0 0,7 1,1 0,1 1,0 1,-1 1,0 1,-1 1,-1 1,0 1,-1 1,0 1,-1 1,-1 1,0 1,-1 1,0 1,-1 1,0 1,-1 1,-1 1,0 1,-1 1,0 1,-1 1,-1 1,0 1,-1 1,-1 1,0 1,-1 1,-1 1,0 1,-1 1,-1 1,0 1,-1 2,0 0,-6 -4,0 -1,1 -2,0 -1,1 -1,0 -1,1 1,1 0,2 -1,1 -2,0 -1,-1 -1,-1 -4,0 0,1 -1,1 -2,0 -1,1 -2,0 -1,1 -1,0 -1,1 -1,0 -1,1 -1,0 0,3 -1,1 -1,1 -1,1Z"/>
<path onmouseover="hoverPath(evt)" onmouseout="recoverPath(evt)" fill="rgb(244,242,234)" d="M  220,162l 0,0 1,1 1,1 1,1 1,0 1,1 1,0 1,1 4,0 0,-1 1,-1 0,-1 1,-1 0,-2 1,-1 0,-2 1,-1 -1,-1 0,-3 -1,-1 0,-5 1,-1 1,0 1,-1 1,-1 0,-1 1,-1 2,0 1,-1 1,-1 1,-1 1,-1 0,-4 -1,-1 -1,0 -1,1 -1,0 -1,1 -1,0 -1,1 -2,0 -1,1 -2,0 -1,1 -3,0 -1,1 -6,0 -1,-1 0,-1 -1,0 -1,-1 0,-1 -1,-1 0,-5 -1,0 -1,-1 0,-2 -1,-1 0,-2 -1,-1 0,-3 3,-3 1,-1 -4,3 -1,0 0,1 -1,1 0,2 -1,1 -1,0 -1,1 -2,0 0,2 1,0 1,1 1,1 1,1 1,1 1,1 1,1 1,1 2,0 4,29 -3,-27 1,2 1,1 0,1 1,1 0,3 -1,1 -1,1 2,-1 1,0 1,1 0,2 -1,1 -1,1 -1,1 0,1 -1,1 -1,0 -1,1 -1,1 -1,1 -1,1 0,2 1,0 1,1 1,1 1,0 1,1 1,1 -2,-27 3,27Z"/>
<path onmouseover="hoverPath(evt)" onmouseout="recoverPath(evt)" fill="rgb(244,242,234)" d="M  242,51l 0,0 -1,1 0,1 -2,2 -1,1 -1,1 0,1 -1,1 -1,1 0,1 -1,1 -1,1 -2,2 0,3 1,1 0,2 1,1 0,1 1,1 1,1 0,2 -1,1 1,1 0,4 -1,1 4,0 1,1 0,1 1,1 2,0 1,1 2,0 1,-1 1,0 1,-1 1,0 1,-1 1,0 1,-1 3,0 0,-57 -2,0 -1,-1 0,-1 -1,0 -1,-1 -1,0 -1,-1 0,-1 -1,-1 0,-1 -1,-1 0,-2 1,-1 -4,0 0,1 1,1 1,0 3,6 0,1 -1,1 -1,1 -3,0 -1,1 -1,1 2,0 1,1 1,0 1,1 1,1 1,1 1,1 0,4 -1,1 0,1 1,1 0,0 1,1 1,1 0,2 -1,1 -2,0 -1,-1 -1,-1 -1,-1 0,-1 -1,-1 0,8 -1,1 -1,1 10,24 0,2 -1,1 -1,0 -1,1 -2,0 -1,-1 0,-2 1,-1 1,0 1,-1 2,0 1,1 -10,-24Z"/>
<path onmouseover="hoverPath(evt)" onmouseout="recoverPath(evt)" fill="rgb(243,242,235)" d="M  0,119l 0,17 2,0 1,-1 1,-1 0,-1 1,-1 1,-1 0,-1 1,-1 0,-1 1,-1 1,-1 0,-3 1,-1 0,-3 -1,-1 0,-2 -3,0 -1,1 -1,0 -1,1 -2,0 -1,1Z"/>
<path onmouseover="hoverPath(evt)" onmouseout="recoverPath(evt)" fill="rgb(244,244,239)" d="M  0,223l 0,12 1,-1 1,0 1,-1 1,0 1,-1 4,0 1,1 1,1 1,1 1,1 1,1 1,1 1,1 1,1 1,1 1,1 1,1 1,1 1,1 0,4 -1,1 -1,1 -1,1 -4,0 -1,1 0,2 19,0 0,-1 -1,-1 0,0 -3,-3 -1,-1 0,-3 -1,-1 -1,-1 -1,-1 -3,0 -1,-1 -1,-1 -1,-1 -3,-3 -1,-1 -7,-7 -1,-1 -3,-3 -1,-1 -1,-1 -1,-1 -1,1Z"/>
<path onmouseover="hoverPath(evt)" onmouseout="recoverPath(evt)" fill="rgb(242,240,230)" d="M  30,143l 0,0 1,-1 1,0 1,-1 1,0 -1,-1 0,-1 -1,-1 -1,-1 -1,0 -1,-1 0,-1 -1,-1 -1,-1 0,-3 -1,-1 -1,-1 -3,0 -1,-1 0,-4 -3,0 1,1 0,5 -1,1 3,0 1,1 0,2 -1,1 -1,1 -2,0 -1,-1 0,-2 1,-1 -1,-1 -4,0 0,1 -1,1 0,1 -1,1 -1,1 -1,1 0,1 -1,1 -2,2 -1,0 -1,1 -1,0 -1,1 -2,0 0,19 1,0 1,-1 1,-1 1,0 1,-1 1,-1 1,0 1,-1 1,-1 1,0 1,-1 1,-1 2,0 0,-1 1,-1 1,0 2,-2 1,0 1,-1 1,0 1,-1 1,0 1,-1 1,0 1,-1 1,0 2,-2Z"/>
<path onmouseover="hoverPath(evt)" onmouseout="recoverPath(evt)" fill="rgb(251,251,249)" d="M  85,136l -7,0 -1,1 6,0 1,1 0,2 1,1 0,4 -1,1 -2,0 -1,-1 0,2 -1,1 -2,0 -1,-1 -1,0 1,1 0,2 -1,1 -1,1 -1,0 -1,1 -1,1 -1,1 -1,0 -1,1 -1,1 -1,0 1,1 0,0 1,1 1,0 1,-1 0,0 1,-1 4,0 0,-1 1,-1 2,0 1,-1 1,-1 1,0 1,-1 1,-1 1,0 1,-1 0,-2 1,-1 3,0 -1,-1 0,-1 -1,-1 -1,-1 -1,0 -1,-7 0,0 12,18 0,1 2,0 1,1Z"/>
<path onmouseover="hoverPath(evt)" onmouseout="recoverPath(evt)" fill="rgb(200,218,162)" d="M  90,239l 0,1 -1,1 -2,0 -1,1 -1,1 -1,1 -1,0 -1,1 -1,1 -1,0 -1,1 -1,1 -1,1 -1,0 -2,2 -1,0 -2,2 -1,1 -1,0 0,1 28,0 -1,-1 0,0 -1,-1 0,-1 -1,-1 0,-3 1,-1 1,0 0,-1 1,-1 1,-1 1,0 0,-2 1,-1 3,0 1,1 0,2 1,0 1,1 0,1 1,0 1,1 0,-2 1,-1 1,0 2,-2 2,0 0,-1 1,-1 1,0 1,-1 2,0 1,1 0,1 -3,-3 0,-1 -1,-1 -1,-1 0,-2 1,-1 0,-2 -1,-1 -1,-1 -1,-1 0,-1 -1,-1 0,-1 -1,-1 0,-1 -1,1 0,0 -1,1 -1,1 -1,1 0,1 -1,1 0,2 -1,1 -6,0 -1,1 -1,1 -1,1 -1,1 -1,1 -1,1 -1,0 -1,1 -1,1Z"/>
<path onmouseover="hoverPath(evt)" onmouseout="recoverPath(evt)" fill="rgb(170,198,237)" d="M  225,135l 0,0 -1,1 -1,0 -1,1 4,0 1,-1 3,0 1,-1 2,0 1,-1 2,0 1,-1 1,0 1,-1 1,0 1,-1 2,0 1,-1 1,-1 1,-1 1,0 1,-1 1,0 1,-1 1,0 1,-1 3,0 0,-8 -1,0 -1,1 -1,0 -1,1 -1,1 -1,0 -1,1 -1,1 -1,0 -1,1 -1,1 -1,0 -1,1 -1,1 -1,0 -1,1 -1,0 -1,1 -1,1 -1,0 -1,1 -1,0 -1,1 -1,0 -1,1 -1,1 -1,0 -1,1 -1,0 -1,1Z"/>
<path onmouseover="hoverPath(evt)" onmouseout="recoverPath(evt)" fill="rgb(240,241,235)" d="M  238,231l 2,0 1,-1 3,0 1,-1 3,0 1,-1 2,0 1,-1 3,0 0,-3 -1,0 -1,1 -4,0 -1,1 -2,0 -1,1 -3,0 -1,1 -3,0 -1,1 -3,0 -1,1 -2,0 -1,1 -3,0 -1,1 -3,0 -1,1 -2,0 -1,1 -4,0 -1,1 -3,0 -1,1 -2,0 -1,1 -3,0 -1,1 -3,0 -1,1 -2,0 -1,1 -5,0 -1,-1 -1,0 0,1 -1,1 -2,0 -1,1 5,0 1,1 5,0 1,-1 1,0 1,-1 3,0 1,-1 4,0 1,-1 3,0 1,-1 2,0 1,-1 3,0 1,-1 3,0 1,-1 2,0 1,-1 2,0 1,-1 3,0 1,-1 3,0 1,-1Z"/>
</svg>