<svg width="256" height="256" xmlns="http://www.w3.org/2000/svg"><script> 
var tempColor;
function hoverPath(evt){
obj = evt.target;
tempColor = obj.getAttribute("fill");
obj.setAttribute("fill","red");
//alert(tempColor);
//obj.setAttribute("stroke","red");}
function recoverPath(evt){
obj = evt.target;
obj.setAttribute("fill", tempColor);
//obj.setAttribute("stroke", tempColor);
}</script><path onmouseover="hoverPath(evt)" onmouseout="recoverPath(evt)" fill="rgb(243,242,235)" d="M  0,117l 0,138 118,0 0,-12 -1,-1 0,-12 -1,-1 0,-16 -1,-1 0,-21 -1,-1 0,-18 -1,-1 0,-13 -1,-1 0,-13 -1,-1 0,-13 -1,-1 0,-16 -1,-1 0,-17 -1,-1 0,-16 -1,-1 0,-16 -1,-1 0,-15 -1,-1 0,-16 -1,-1 0,-14 -1,-1 0,-12 -103,0Z"/>
<path onmouseover="hoverPath(evt)" onmouseout="recoverPath(evt)" fill="rgb(243,243,237)" d="M  231,191l 0,13 1,1 0,12 1,1 0,11 1,1 0,10 1,1 0,11 1,1 0,2 19,0 0,-63 -9,0 -1,-1 -12,0 -1,-1 -1,1Z"/>
<path onmouseover="hoverPath(evt)" onmouseout="recoverPath(evt)" fill="rgb(170,198,238)" d="M  232,0l -1,0 0,2 -1,1 -1,1 -1,1 0,1 -1,1 -1,1 -1,1 0,1 -1,1 -1,1 -1,1 -1,1 0,1 -1,1 -1,1 -1,1 0,1 -1,1 -1,1 -1,1 -1,1 0,1 -1,1 -1,1 -1,1 0,1 -1,1 -1,1 0,1 -1,1 -1,1 0,1 -1,1 -1,1 0,1 -1,1 0,1 -1,1 0,1 -1,1 0,1 -1,1 0,1 -1,1 0,1 -1,1 0,2 -1,1 0,2 -1,1 0,2 -1,1 0,2 -1,1 0,3 -1,1 0,5 -1,1 0,6 -1,1 0,31 1,1 0,4 1,1 0,1 1,1 0,2 1,1 1,1 0,1 1,1 1,1 0,1 1,1 1,1 1,1 0,1 1,1 1,1 0,1 1,1 1,1 1,1 1,1 0,1 1,1 1,1 1,1 1,1 1,1 1,1 1,1 1,1 1,0 1,1 1,1 0,1 1,1 1,1 1,1 1,1 1,1 0,1 1,1 0,45 1,1 0,10 1,1 0,10 1,1 0,15 1,1 0,17 5,0 0,-1 -1,-1 0,-11 -1,-1 0,-10 -1,-1 0,-11 -1,-1 0,-12 -1,-1 0,-15 1,-1 1,-1 2,0 1,1 12,0 1,1 8,0 0,-3 -16,0 -1,-1 -8,0 -1,-1 0,-29 1,-1 -1,-1 0,-4 -1,-1 0,-1 -1,-1 -1,-1 -1,-1 0,-1 -1,-1 -1,-1 -1,-1 -1,-1 0,-1 -1,-1 -1,0 -1,-1 -1,-1 -1,-1 -1,-1 -1,-1 -1,-1 -1,-1 0,-1 -1,-1 -1,-1 -1,-1 -1,-1 0,-1 -1,-1 -1,-1 -1,-1 0,-1 -1,-1 -1,-1 -1,-1 0,-1 -1,-1 0,-1 -1,-1 0,-3 -1,-1 0,-36 1,-1 0,-5 1,-1 0,-5 1,-1 0,-2 1,-1 0,-2 1,-1 0,-2 1,-1 0,-2 1,-1 0,-1 1,-1 0,-1 1,-1 0,-1 1,-1 0,-1 1,-1 0,-1 1,-1 0,-1 1,-1 0,-1 1,-1 1,-1 0,-1 1,-1 0,-1 1,-1 1,-1 0,-1 1,-1 1,-1 1,-1 0,-1 1,-1 1,-1 1,-1 0,-1 1,-1 1,-1 0,-1 1,-1 1,-1 1,-1 0,-1 1,-1 1,-1 0,-1 1,-1 1,-1 1,-1 0,-1 1,-1 1,-1 0,-1 1,-1 1,-1 0,-1Z"/>
<path onmouseover="hoverPath(evt)" onmouseout="recoverPath(evt)" fill="rgb(170,197,236)" d="M  106,25l 0,1 1,1 0,16 1,1 0,15 1,1 0,16 1,1 0,16 1,1 0,17 1,1 0,16 1,1 0,13 1,1 0,13 1,1 0,13 1,1 0,18 1,1 0,21 1,1 0,16 1,1 0,12 1,1 0,13 6,0 0,-13 -1,-1 0,-17 -1,-1 0,-17 -1,-1 0,-18 -1,-1 0,-17 -1,-1 0,-16 -1,-1 0,-16 -1,-1 0,-17 -1,-1 0,-16 -1,-1 0,-17 -1,-1 0,-16 -1,-1 0,-17 -1,-1 0,-17 -1,-1 0,-18 -1,-1 0,-9 -7,0 0,11 1,1Z"/>
<path onmouseover="hoverPath(evt)" onmouseout="recoverPath(evt)" fill="rgb(243,243,237)" d="M  240,0l -1,0 0,2 -1,1 -1,1 0,1 -1,1 -1,1 0,1 -1,1 -1,1 -1,1 0,1 -1,1 -1,1 0,1 -1,1 -1,1 -1,1 0,1 -1,1 -1,1 0,1 -1,1 -1,1 -1,1 0,1 -1,1 -1,1 -1,1 0,1 -1,1 -1,1 0,1 -1,1 0,1 -1,1 -1,1 0,1 -1,1 0,1 -1,1 0,1 -1,1 0,1 -1,1 0,1 -1,1 0,1 -1,1 0,1 -1,1 0,2 -1,1 0,2 -1,1 0,2 -1,1 0,2 -1,1 0,5 -1,1 0,5 -1,1 0,34 1,1 0,3 1,1 0,1 1,1 0,1 1,1 1,1 1,1 0,1 1,1 1,1 1,1 0,1 1,1 1,1 1,1 1,1 0,1 1,1 1,1 1,1 1,1 1,1 1,1 1,0 1,1 1,1 0,1 1,1 1,1 1,1 1,1 0,1 1,1 1,1 1,1 0,1 1,1 0,4 1,1 0,2 -1,1 0,27 8,0 1,1 15,0 0,-185Z"/>
<path onmouseover="hoverPath(evt)" onmouseout="recoverPath(evt)" fill="rgb(243,243,236)" d="M  114,5l 0,3 1,1 0,18 1,1 0,17 1,1 0,17 1,1 0,16 1,1 0,17 1,1 0,16 1,1 0,17 1,1 0,16 1,1 0,16 1,1 0,17 1,1 0,18 1,1 0,17 1,1 0,17 1,1 0,14 99,0 0,-16 -1,-1 0,-15 -1,-1 0,-10 -1,-1 0,-10 -1,-1 0,-45 -1,-1 0,-1 -1,-1 -1,-1 -1,-1 -1,-1 -1,-1 0,-1 -1,-1 -1,0 -1,-1 -1,-1 -2,-2 -1,-1 -1,-1 -1,-1 -1,-1 -1,-1 0,-1 -1,-1 -1,-1 -1,-1 -1,-1 0,-1 -1,-1 -1,-1 0,-1 -1,-1 -1,-1 -1,-1 0,-1 -1,-1 -1,-1 0,-1 -1,-1 -1,-1 0,-2 -1,-1 0,-1 -1,-1 0,-4 -1,-1 0,-33 1,-1 0,-6 1,-1 0,-5 1,-1 0,-3 1,-1 0,-2 1,-1 0,-2 1,-1 0,-2 1,-1 0,-2 1,-1 0,-1 1,-1 0,-1 1,-1 0,-1 1,-1 0,-1 1,-1 0,-1 1,-1 0,-1 1,-1 1,-1 0,-1 1,-1 1,-1 0,-1 2,-2 0,-1 3,-3 0,-1 1,-1 1,-1 1,-1 1,-1 0,-1 1,-1 1,-1 1,-1 0,-1 4,-4 0,-1 1,-1 1,-1 1,-1 0,-1 1,-1 1,-1 1,-1 0,-1 -115,0Z"/>
</svg>