<svg width="256" height="256" xmlns="http://www.w3.org/2000/svg"><script> 
var tempColor;
function hoverPath(evt){
obj = evt.target;
tempColor = obj.getAttribute("fill");
obj.setAttribute("fill","red");
//alert(tempColor);
//obj.setAttribute("stroke","red");}
function recoverPath(evt){
obj = evt.target;
obj.setAttribute("fill", tempColor);
//obj.setAttribute("stroke", tempColor);
}</script><path onmouseover="hoverPath(evt)" onmouseout="recoverPath(evt)" fill="rgb(170,197,237)" d="M  0,8l 0,96 2,0 1,-1 4,0 0,-1 1,-1 2,0 1,1 2,0 0,-2 1,-1 2,0 1,1 0,1 2,0 1,-1 4,0 1,-1 4,0 1,-1 3,0 1,-1 4,0 1,-1 3,0 1,-1 3,0 1,-1 4,0 1,-1 3,0 0,-2 1,-1 3,0 1,-1 3,0 0,-2 -1,-1 0,-1 -1,0 -1,-1 0,-2 -1,-1 0,-2 -1,-1 0,-2 -1,0 -1,-1 0,-1 -1,-1 0,-2 -1,0 -1,-1 0,-1 -1,-1 0,-1 -3,-3 0,-2 -1,0 -1,-1 -1,-1 0,-2 -1,0 -1,-1 0,-2 -1,0 -1,-1 0,-1 -1,-1 -1,-1 0,-1 -1,-1 -1,-1 0,-1 -1,-1 -1,-1 0,-1 -1,-1 -1,-1 0,-1 -1,-1 -1,-1 0,-1 -1,-1 -1,-1 0,-1 -1,-1 -1,-1 0,-1 -1,-1 -1,-1 0,-2 -1,0 -1,-1 0,-2 -1,0 -1,-1 0,-1 -1,-1 -1,-1 -1,-1 0,-1 -1,-1 -1,-1 0,-1 -1,-1 -1,-1 0,-1 -1,-1 -1,-1 0,-1 -1,-1 -1,-1 0,-1 -1,-1 -1,-1 0,-1 -1,0 -1,1 -2,0 -1,1 -1,0 -1,1 -1,0 -1,1Z"/>
<path onmouseover="hoverPath(evt)" onmouseout="recoverPath(evt)" fill="rgb(172,198,236)" d="M  135,84l -3,0 -1,1 0,2 -1,1 0,3 -1,1 0,3 -1,1 0,3 -1,1 0,3 -1,1 0,3 -1,1 0,3 -1,1 0,3 -1,1 0,7 4,0 1,1 1,0 1,1 0,3 2,0 0,-2 1,-1 2,0 1,-1 1,0 2,-2 1,-1 0,-2 -1,-1 0,0 -1,-1 -2,0 -1,-1 0,-2 1,-1 0,-3 1,-1 0,-3 1,-1 0,-2 1,-1 0,-3 1,-1 0,-2 1,-1 0,-2 1,-1 0,-2 1,-1 0,-8 1,-1 -1,0 -1,1 -2,0 -1,-1 -1,1 -1,0 0,2 -1,1Z"/>
<path onmouseover="hoverPath(evt)" onmouseout="recoverPath(evt)" fill="rgb(243,242,235)" d="M  146,80l 0,1 -1,1 0,8 -1,1 0,2 -1,1 0,2 -1,1 0,2 -1,1 0,3 -1,1 0,2 -1,1 0,3 -1,1 0,3 -1,1 2,0 1,1 1,1 1,1 0,1 1,0 1,-1 0,0 1,-1 1,0 1,-1 1,-1 1,-1 2,0 1,1 0,2 -1,1 -1,1 1,0 1,-1 0,0 1,-1 1,0 1,-1 1,-1 1,0 1,-1 1,-1 1,-1 1,0 1,-1 1,-1 1,0 1,-1 2,-2 1,0 -1,-1 0,-2 1,-1 6,0 1,-1 1,0 1,-1 1,-1 1,0 0,-1 1,-1 1,0 1,-1 1,0 1,-1 1,-1 4,0 0,-1 -1,-1 0,-3 1,-1 1,-1 1,0 1,-1 1,-1 0,-3 1,-1 0,-1 1,-1 2,0 1,-1 1,-1 2,0 1,1 1,-1 0,-2 1,-1 1,-1 1,-1 2,0 1,1 1,-1 0,-2 1,-1 1,-1 1,0 1,-1 1,-1 1,-1 1,0 -1,-1 0,-1 -1,-1 -1,0 -1,-1 0,-2 -1,-1 -1,-1 -1,0 -1,-1 0,-3 -1,0 -1,1 -3,0 -2,2 -2,0 -1,-1 0,2 -1,1 -1,0 -1,1 -6,0 0,2 -1,1 -6,0 0,2 -1,1 -4,0 -1,-1 -1,1 0,2 -1,1 -4,0 -1,-1 -1,1 0,2 -1,1 -3,0 -1,1 -5,0 0,2 -1,1 -2,0 -1,1 -1,0 -1,1 -2,0 -1,1 -2,0 -1,1 -1,0 45,17 0,1 1,0 -1,-1 -45,-17Z"/>
<path onmouseover="hoverPath(evt)" onmouseout="recoverPath(evt)" fill="rgb(170,198,238)" d="M  147,148l -1,1 -1,1 -1,1 0,1 -1,1 -1,1 -1,1 0,1 -1,1 -1,1 0,1 -1,1 0,1 -1,1 -1,1 0,1 -1,1 0,1 -1,1 0,1 -1,1 0,2 1,0 1,1 1,1 1,1 1,1 1,-1 0,0 1,-1 1,-1 1,-1 1,-1 1,-1 1,-1 2,0 0,-1 1,-1 1,-1 1,-1 1,-1 1,0 1,-1 1,-1 1,-1 1,-1 1,0 1,-1 0,-2 -1,-1 0,-1 -1,-1 -1,-1 -1,-1 -1,-1 -1,-1 -1,-1 -1,-1 -2,0 -1,1Z"/>
<path onmouseover="hoverPath(evt)" onmouseout="recoverPath(evt)" fill="rgb(238,239,236)" d="M  148,180l 0,0 -1,1 0,2 1,1 0,1 1,1 0,1 1,1 0,1 1,1 0,1 1,1 1,1 0,1 1,1 0,2 1,1 0,1 1,1 0,1 1,1 0,1 1,1 0,1 1,1 0,1 1,1 0,1 1,1 0,1 1,1 1,1 0,1 1,1 1,1 1,0 1,-1 1,0 1,-1 1,0 1,-1 1,0 1,-1 1,-1 0,-1 1,-1 1,0 1,-1 1,0 3,-3 1,-1 2,-2 1,-1 1,-1 1,-1 1,-1 1,-1 0,-5 -1,0 -1,-1 -1,-1 -1,-1 -1,-1 -1,-1 -1,-1 0,-1 -1,-1 -1,-1 -1,-1 -1,-1 0,-4 -2,0 -1,-1 -1,-1 -1,-1 -1,-1 -1,-1 0,-1 -1,-1 -2,-2 -1,-1 -1,-1 0,-1 -1,1 -1,0 -1,1 -1,1 -1,1 -1,1 -1,0 -1,1 0,1 -1,1 -2,0 -1,1 -1,1 -1,1 0,1 -1,1 -2,0 -1,1Z"/>
<path onmouseover="hoverPath(evt)" onmouseout="recoverPath(evt)" fill="rgb(171,198,237)" d="M  153,120l 0,1 1,1 1,1 1,1 1,1 1,1 1,1 1,1 1,1 1,1 1,1 1,1 1,1 0,2 -1,1 -3,0 -1,1 -1,1 -1,1 -1,0 -1,1 -1,1 0,1 1,1 0,0 1,1 1,1 0,1 1,1 1,1 1,-1 1,-1 1,0 1,-1 1,-1 1,-1 1,-1 1,0 1,-1 0,-3 1,-1 1,0 1,-1 1,0 1,-1 1,0 1,-1 1,-1 1,0 1,-1 1,-1 1,0 1,-1 1,0 1,-1 1,-1 1,0 1,-1 1,0 1,-1 1,-1 1,0 1,-1 1,-1 1,-1 1,-1 1,-1 1,-1 1,-1 1,-1 1,-1 1,-1 0,-2 -1,0 -1,-1 -1,-1 -1,-1 -1,-1 0,-4 1,-1 -1,-1 0,0 -1,-1 0,-1 -1,-1 -4,0 -1,-1 0,-1 -1,-1 -2,0 -1,1 0,0 -1,1 -1,0 -1,1 -1,0 0,1 -1,1 -1,0 -1,1 -1,1 -1,0 -1,1 -6,0 1,1 0,2 -1,1 -1,0 -1,1 -1,1 -1,1 -1,0 -1,1 -1,1 -1,0 -1,1 -1,1 -1,1 -1,0 -1,1 -1,1 -1,0 -1,1Z"/>
<path onmouseover="hoverPath(evt)" onmouseout="recoverPath(evt)" fill="rgb(172,199,237)" d="M  190,92l 0,0 1,1 0,1 1,1 1,1 1,1 0,1 1,0 1,1 1,1 0,1 1,1 1,1 0,1 1,0 1,1 1,1 0,1 1,1 3,0 1,1 4,0 1,1 2,0 2,-2 1,0 1,-1 1,-1 1,0 1,-1 1,-1 1,0 1,-1 1,-1 3,0 1,1 1,0 1,-1 1,0 1,-1 1,-1 1,-1 2,0 0,-1 1,-1 1,-1 1,-1 2,0 0,-1 1,-1 1,-1 1,-1 -1,-1 0,-3 1,-1 1,-1 1,-1 0,-1 1,-1 3,0 1,-1 1,-1 2,0 0,-30 -4,0 0,1 -1,1 -1,0 -1,1 -2,0 0,1 -1,1 -1,1 -1,1 -1,0 -1,1 -1,0 0,1 -1,1 -1,0 -1,1 -1,1 -1,0 1,1 0,2 -1,1 -2,0 -1,-1 -2,0 -1,1 -1,0 -1,1 -1,1 -1,1 -1,0 -1,1 -1,0 -3,3 -1,1 -1,0 -1,1 -2,0 -1,-1 -1,0 -1,1 -1,1 -2,0 -1,-1 -1,1 -1,1 0,2 -1,1 -1,1 -2,0 -1,-1 -1,1 0,0 -1,1 -2,0 0,1 -1,1 0,3 -1,1 -1,1 -1,1 -1,0 -1,1Z"/>
<path onmouseover="hoverPath(evt)" onmouseout="recoverPath(evt)" fill="rgb(241,241,234)" d="M  205,240l 0,0 -1,1 -1,0 -3,3 0,3 -1,1 0,3 -1,1 0,1 -1,1 0,1 8,0 0,-2 1,-1 1,0 0,-1 1,-1 1,-1 1,-1 2,-2 1,0 0,-1 1,-1 2,0 0,-1 1,-1 1,-1 1,0 1,-1 2,0 0,-2 1,-1 1,-1 1,-1 1,-1 1,-1 1,0 1,-1 1,-1 0,-2 1,-1 1,-1 1,-1 2,0 1,1 1,-1 0,0 1,-1 1,0 1,-1 3,0 1,1 1,0 1,1 0,-1 -1,-1 -1,0 2,3 1,1 0,-1 1,2 1,1 1,1 1,1 0,1 1,1 0,0 1,1 2,0 0,-3 -3,0 -10,-9 -1,-1 -1,-1 -1,-1 0,-1 -1,-1 -1,-1 -2,0 -1,-1 -1,1 0,0 -1,1 -1,0 -1,1 -1,0 -1,1 -1,1 -1,1 -1,1 -1,1 -1,0 -3,3 -1,1 -1,1 -1,0 -1,1 -3,3 -1,0 -3,3 -1,1 -3,3Z"/>
<path onmouseover="hoverPath(evt)" onmouseout="recoverPath(evt)" fill="rgb(243,242,235)" d="M  243,252l -1,0 -1,1 -1,1 0,1 15,0 0,-10 -1,0 -1,1 -1,0 -1,1 -1,0 -2,2 -1,0 -1,1 -1,0 -2,2Z"/>
<path onmouseover="hoverPath(evt)" onmouseout="recoverPath(evt)" fill="rgb(171,198,236)" d="M  0,161l 0,26 3,0 1,-1 4,0 1,-1 54,0 1,1 12,0 1,1 2,0 0,-11 -1,-1 0,-3 -1,-1 0,-4 -1,-1 0,-5 -1,-1 0,-4 -1,-1 0,-3 -4,0 -1,1 -11,0 -1,1 -10,0 -1,1 -8,0 -1,1 -9,0 -1,1 -8,0 -1,1 -8,0 -1,1 -9,0Z"/>
<path onmouseover="hoverPath(evt)" onmouseout="recoverPath(evt)" fill="rgb(172,198,235)" d="M  17,4l -1,0 0,1 1,1 0,2 1,0 1,1 0,2 1,0 1,1 0,2 1,0 1,1 1,1 0,1 2,0 1,-1 2,0 1,-1 1,0 1,-1 1,0 1,-1 2,0 1,-1 1,0 1,-1 2,0 1,-1 1,0 1,-1 2,0 1,-1 1,0 1,-1 2,0 1,-1 1,0 1,-1 2,0 1,-1 1,0 1,-1 1,0 1,-1 2,0 1,-1 1,0 1,-1 -45,0 0,2 -1,1 -1,0 -1,1Z"/>
<path onmouseover="hoverPath(evt)" onmouseout="recoverPath(evt)" fill="rgb(171,198,236)" d="M  81,153l 0,5 1,1 0,4 1,1 0,5 1,1 0,3 1,1 0,13 1,1 0,3 -1,1 0,24 -1,1 1,1 0,20 -1,1 0,2 -1,1 -1,1 -1,1 0,1 -1,1 -1,0 -1,1 -1,1 -1,1 -1,1 -1,1 -1,1 -1,1 0,2 27,0 0,-5 1,-1 0,-5 1,-1 0,-2 1,-1 0,-1 1,-1 0,-1 1,-1 0,-2 1,-1 0,-2 1,-1 0,-1 1,-1 0,-3 1,-1 2,0 0,-3 1,-1 0,-3 -1,-1 0,-2 1,-1 0,-2 1,-1 0,-1 1,-1 0,-6 1,-1 0,-2 1,-1 1,-1 1,0 1,-1 1,-1 -1,-1 0,0 -1,-1 -1,-1 -1,-1 0,-2 1,-1 0,-3 1,-1 0,-3 1,-1 2,0 0,-7 1,-1 0,-5 1,-1 0,-3 1,-1 0,-3 1,-1 0,-3 1,-1 0,-3 1,-1 0,-3 1,-1 0,-4 1,-1 0,-2 1,-1 0,-2 1,-1 0,-2 1,-1 0,-2 -2,0 -1,-1 -6,0 0,2 -1,1 0,4 -1,1 0,5 -1,1 0,2 -1,1 -1,1 -1,0 -1,1 -5,0 -1,1 -9,0 -1,1 -9,0 -1,1 -7,0 -1,1Z"/>
<path onmouseover="hoverPath(evt)" onmouseout="recoverPath(evt)" fill="rgb(192,211,237)" d="M  163,153l 0,0 -1,1 0,3 -1,1 -1,0 0,1 -1,1 -1,1 -1,0 -1,1 -1,1 -1,1 -1,1 -1,0 -1,1 -1,1 -1,1 0,1 -1,1 -2,0 -3,3 -1,1 -3,3 0,1 -1,1 -1,1 -1,1 0,1 -1,1 -2,0 -1,1 -1,1 -1,1 -1,1 -1,0 -1,1 -1,0 0,2 2,0 0,-1 1,-1 1,0 1,-1 1,-1 1,-1 3,0 1,1 1,-1 0,0 1,-1 1,-1 1,-1 1,0 1,-1 1,-1 1,0 1,-1 0,-1 1,-1 1,-1 2,0 0,-1 1,-1 1,-1 1,-1 1,-1 2,0 0,-1 1,-1 1,-1 1,0 1,-1 1,-1 1,-1 1,-1 1,0 1,-1 1,0 1,-1 1,0 1,-1 1,0 1,-1 1,-1 1,0 0,-1 1,-1 2,0 1,-1 1,0 1,-1 1,0 1,-1 1,-1 1,0 0,-1 1,-1 2,0 1,-1 1,0 1,-1 1,-1 0,-1 1,-1 2,0 1,-1 0,-1 1,-1 2,0 1,-1 1,-1 1,-1 1,0 1,-1 0,-1 1,-1 2,0 1,-1 1,-1 1,0 1,-1 0,-4 1,-1 1,0 1,-1 2,0 1,1 2,0 1,-1 1,0 0,-2 1,-1 3,0 1,1 1,1 1,1 -5,-4 0,-3 1,-1 2,0 1,-1 0,-1 1,-1 0,-2 1,-1 1,-1 1,-1 1,0 1,-1 1,-1 1,-1 1,0 1,-1 1,-1 1,0 1,-1 3,0 1,-1 0,-1 4,-4 1,-1 1,-1 1,-1 1,-1 1,-1 1,0 1,-1 2,0 0,-12 -1,0 -1,1 0,0 -1,1 -3,0 0,1 -2,2 -1,1 0,1 1,1 0,2 -1,1 -1,1 -1,1 0,1 -1,1 -2,0 -1,1 -1,1 0,1 -1,1 -2,0 -1,1 -1,1 -1,1 -1,0 -1,1 -1,0 0,2 -1,1 -1,1 -1,1 -1,1 -1,1 -1,1 -1,1 -1,1 -1,1 -1,1 -1,1 -1,0 -1,1 -1,1 -1,1 -1,1 -1,1 -1,1 -1,0 -1,1 -1,1 -1,0 -1,1 -1,0 -1,1 -1,1 -1,0 -1,1 -1,1 -1,0 -1,1 -1,1 -1,0 -1,1 -1,1 -1,0 -1,1 -1,1 -1,0 -1,1 -1,1 -1,0 -1,1 -1,0 -2,2 -1,1 -1,1 -1,0 -1,1 -1,1 -1,1 -1,1 -1,1 -1,1 -1,0 -1,1 -1,1 -1,1 -3,0 -1,-1 -3,0 -1,1Z"/>
<path onmouseover="hoverPath(evt)" onmouseout="recoverPath(evt)" fill="rgb(243,242,234)" d="M  164,1l 0,2 -1,1 0,3 -1,1 0,1 -1,1 0,2 -1,1 0,1 -1,1 0,1 -1,1 0,1 -1,1 0,1 -1,1 0,2 -1,1 0,2 -1,1 0,2 -1,1 0,3 -1,1 0,4 -1,1 0,2 -1,1 0,2 -1,1 0,5 9,0 1,-1 1,0 1,-1 -1,-1 0,-2 1,-1 0,-2 1,-1 0,-1 1,-1 3,0 1,1 1,1 1,1 0,3 -1,1 2,-2 1,0 1,-1 2,0 1,-1 1,0 0,-1 1,-1 1,0 1,-1 1,0 1,-1 1,-1 1,0 1,-1 1,-1 1,0 1,-1 1,-1 4,0 1,1 0,3 -1,1 -1,1 -1,0 -1,1 -1,0 -1,1 -2,0 0,1 -1,1 -1,0 -1,1 -2,0 0,1 -1,1 -1,0 -1,1 -1,0 -1,1 -1,1 -1,0 0,1 -1,1 0,1 3,0 1,-1 4,0 0,-2 1,-1 6,0 0,-2 1,-1 3,0 1,-1 4,0 0,-2 1,-1 1,0 1,-1 1,0 0,-2 1,-1 2,0 1,-1 1,-1 1,0 1,-1 2,0 1,1 2,0 1,-1 1,0 1,-1 1,0 -1,-1 0,-2 1,-1 2,0 1,1 1,0 1,-1 2,0 0,-4 1,-1 1,0 1,-1 1,-1 1,0 1,-1 1,0 1,-1 1,-1 1,0 1,-1 1,0 1,-1 1,-1 2,0 1,1 1,-1 0,0 1,-1 1,0 0,-2 -2,0 -1,-1 0,-1 -1,-1 -2,0 -1,1 -1,0 -1,1 -1,1 -1,0 -1,1 -1,1 -1,0 -1,1 -1,0 -1,1 -1,1 -1,1 -1,0 -1,1 -1,1 -1,0 -1,1 -1,1 -1,0 -1,1 -1,1 -1,0 -1,1 -1,1 -1,1 -1,1 -1,0 -1,1 -1,1 -1,0 -1,1 -2,0 -1,1 -1,0 -1,1 -5,0 -1,-1 0,-3 1,-1 1,0 1,-1 1,0 1,-1 1,0 1,-1 1,0 1,-1 1,0 1,-1 1,0 1,-1 1,-1 1,0 1,-1 1,-1 1,0 1,-1 1,-1 1,-1 1,0 1,-1 1,-1 1,0 1,-1 1,-1 1,0 1,-1 1,-1 1,0 1,-1 1,-1 1,0 1,-1 1,-1 1,0 1,-1 1,-1 -1,-1 0,0 -1,-1 0,-3 -66,0 -1,1Z"/>
<path onmouseover="hoverPath(evt)" onmouseout="recoverPath(evt)" fill="rgb(177,202,237)" d="M  205,158l 0,2 -1,1 -1,1 -1,1 0,1 1,1 1,1 1,1 1,1 1,1 1,1 1,1 1,1 1,-1 2,0 1,1 0,2 -1,1 0,1 -1,1 0,2 3,-3 1,-1 1,-1 0,-1 1,-1 1,0 4,-4 1,0 1,-1 0,-1 1,-1 2,0 1,-1 0,-1 1,-1 2,0 1,-1 0,-1 1,-1 2,0 0,-1 1,-1 2,0 1,-1 1,-1 3,0 1,1 1,1 1,1 1,1 1,1 1,1 1,1 1,0 1,1 1,1 1,1 0,-20 -2,0 -1,-1 0,-2 -1,0 -1,-1 -1,1 -1,0 -1,1 -1,0 -1,1 -1,0 -1,1 -3,0 -1,-1 -1,-1 -1,0 -1,-1 -1,-1 -1,-1 -1,0 -1,-1 -1,-1 -1,0 -1,-1 -1,-1 -1,0 -1,-1 0,-1 -1,0 -1,-1 -1,-1 0,-2 1,-1 -1,-1 0,0 -1,-1 -1,0 0,2 -1,1 -1,0 -1,1 -4,0 -1,-1 -1,1 -1,0 0,4 -1,1 -1,1 -1,0 -1,1 -1,1 -2,0 0,1 -1,1 -1,1 -1,0 -1,1 -1,1 -1,1 -2,0 0,1 -1,1 1,1 0,2 1,0 1,1 1,1 1,1 0,1 1,1 1,1 1,1 1,0 1,1Z"/>
<path onmouseover="hoverPath(evt)" onmouseout="recoverPath(evt)" fill="rgb(247,237,148)" d="M  250,245l 1,-1 1,0 1,-1 2,0 0,-6 -2,0 -1,1 -2,0 -1,1 -1,1 -1,0 -1,1 -1,0 -1,1 -1,1 -1,0 -1,1 -1,0 -1,1 -1,1 -1,0 -1,1 -1,1 -1,0 -1,1 -4,0 -1,-1 -1,-1 -1,-1 0,-2 -1,0 -1,-1 -1,-1 6,8 0,1 -1,1 -1,0 0,1 -1,1 -1,0 0,1 13,0 0,-2 1,-1 1,-1 1,-1 1,0 1,-1 1,-1 1,0 1,-1 1,0 1,-1 1,-1Z"/>
<path onmouseover="hoverPath(evt)" onmouseout="recoverPath(evt)" fill="rgb(186,151,237)" d="M  1,106l -1,0 0,7 6,0 1,-1 5,0 1,-1 5,0 1,-1 4,0 1,-1 4,0 1,-1 4,0 1,1 4,0 0,-2 1,-1 3,0 1,1 3,0 1,-1 3,0 0,-2 1,-1 4,0 1,-1 3,0 1,-1 3,0 1,1 3,0 1,-1 2,0 1,1 0,2 1,-1 2,0 1,-1 1,0 2,-2 2,0 0,-1 1,-1 4,0 1,-1 2,0 1,-1 1,0 1,-1 4,0 1,1 1,-1 2,0 1,-1 2,0 1,-1 3,0 1,-1 2,0 1,-1 2,0 1,-1 2,0 1,-1 3,0 1,-1 1,0 0,-2 1,-1 2,0 1,-1 4,0 1,-1 1,-1 4,0 0,-2 1,-1 1,0 1,-1 2,0 1,1 1,-1 4,0 1,-1 2,0 1,-1 2,0 1,-1 1,0 1,-1 2,0 0,-2 1,-1 5,0 1,-1 3,0 0,-2 1,-1 1,-1 2,0 1,1 2,0 0,-2 1,-1 1,-1 2,0 1,1 2,0 0,-2 1,-1 6,0 0,-2 1,-1 6,0 1,-1 1,0 0,-2 1,-1 2,0 1,1 1,-1 0,0 1,-1 3,0 1,-1 1,0 0,-2 1,-1 1,-1 2,0 1,-1 1,0 1,-1 1,0 1,-1 1,0 1,-1 1,0 1,-1 1,0 1,-1 1,0 1,-1 2,0 1,1 1,-1 0,0 1,-1 1,0 1,-1 1,0 1,-1 2,0 0,-1 1,-1 1,0 1,-1 1,0 1,-1 2,0 0,-2 1,-1 2,0 1,1 1,-1 1,0 1,-1 1,0 0,-1 1,-1 3,0 0,-14 -1,0 -1,1 -3,0 0,1 -1,1 -1,1 -1,0 -1,1 -1,0 0,1 -1,1 -1,0 -1,1 -4,0 -1,-1 0,-2 -1,1 -1,0 -1,1 -1,0 -1,1 -1,1 -1,0 -1,1 -1,0 -1,1 -1,1 -1,0 0,4 -1,1 -2,0 -1,1 -3,0 0,2 -1,1 -1,0 -1,1 -1,0 -1,1 -4,0 -1,-1 -1,1 -1,0 -1,1 -1,1 -2,0 0,2 -1,1 -1,0 -1,1 -1,0 0,2 -1,1 -4,0 -1,1 -3,0 0,2 -1,1 -6,0 0,2 -1,1 -4,0 -1,1 -5,0 -1,-1 -1,1 0,0 -1,1 -1,0 -1,1 -1,0 0,1 -1,1 -3,0 -1,-1 0,-2 -6,0 -1,1 -3,0 -1,1 -1,0 0,2 -2,2 0,1 -1,1 -1,0 0,1 -1,1 0,1 -1,1 -2,0 -1,1 -2,0 0,2 -1,1 -2,0 -1,1 -2,0 -1,-1 -2,0 0,1 -1,1 -2,0 -1,-1 -1,1 -5,0 -1,1 -2,0 -1,1 -3,0 -1,1 -3,0 -1,1 -4,0 -1,1 -4,0 -1,1 -3,0 -1,1 -5,0 -1,1 -5,0 -1,1 -4,0 -1,1 -4,0 -1,1 -5,0 -1,1 1,1 0,4 -1,1 -3,0 -1,1 -3,0 0,2 -1,1 -3,0 -1,1 -4,0 -1,1 -3,0 -1,1 -3,0 -1,1 -4,0 -1,1 -3,0 -1,1 -4,0 -1,1 -4,0 -1,1 -4,0 -1,-1 0,1 -1,1 -4,0 -1,-1 0,1 -1,1 -4,0 -1,1Z"/>
<path onmouseover="hoverPath(evt)" onmouseout="recoverPath(evt)" fill="rgb(171,197,236)" d="M  0,118l 0,36 4,0 1,-1 8,0 1,-1 8,0 1,-1 8,0 1,-1 9,0 1,-1 8,0 1,-1 11,0 1,-1 10,0 0,-3 -1,-1 0,-6 -1,-1 0,-5 -1,-1 0,-7 -1,-1 0,-9 -1,-1 0,-4 1,-1 0,-4 -1,1 -5,0 -1,-1 -1,0 -1,1 -3,0 -1,1 -4,0 0,2 -1,1 -3,0 -1,1 -5,0 -1,-1 -1,0 0,2 -1,1 -6,0 -1,-1 -2,0 -1,1 -4,0 -1,1 -4,0 -1,1 -5,0 -1,1 -5,0 -1,1 -7,0Z"/>
<path onmouseover="hoverPath(evt)" onmouseout="recoverPath(evt)" fill="rgb(170,198,237)" d="M  0,194l 0,61 65,0 0,-2 1,-1 0,-1 1,-1 0,-1 1,-1 1,-1 3,-3 1,-1 1,-1 1,0 1,-1 0,-1 1,-1 1,-1 0,-1 1,-1 0,-10 -1,-1 0,-12 1,-1 0,-19 -1,-1 -7,0 -1,-1 -63,0 -1,1 -3,0 -1,1 -1,0 -1,1Z"/>
<path onmouseover="hoverPath(evt)" onmouseout="recoverPath(evt)" fill="rgb(170,198,237)" d="M  30,21l 0,0 -1,1 -1,0 0,1 1,1 0,0 1,1 0,1 1,1 1,1 0,2 1,0 1,1 0,2 1,0 1,1 0,2 1,0 1,1 0,2 1,0 1,1 0,2 1,0 1,1 0,2 1,0 1,1 0,2 1,0 1,1 0,2 1,0 1,1 0,1 1,1 1,1 0,1 1,1 1,1 1,1 0,1 1,1 1,1 1,1 0,2 1,0 1,1 0,1 1,1 0,1 1,1 1,1 0,1 1,1 0,1 1,1 0,1 1,1 0,1 1,1 0,3 4,0 1,-1 4,0 1,-1 4,0 1,-1 5,0 1,-1 5,0 1,-1 3,0 1,-1 4,0 1,-1 4,0 1,-1 3,0 1,-1 3,0 1,-1 2,0 1,-1 5,0 1,-1 2,0 1,1 0,-1 1,-1 4,0 1,1 1,-1 2,0 0,-2 1,-1 2,0 1,-1 2,0 0,-1 1,-1 0,-1 1,-1 1,0 0,-1 1,-1 1,-1 0,-2 1,-1 1,0 1,-1 3,0 1,-1 8,0 1,1 0,2 1,0 0,-1 1,-1 1,0 1,-1 1,0 1,-1 1,-1 1,0 0,-1 1,-1 0,-1 1,-1 1,0 1,-1 1,-1 1,0 1,-1 1,0 0,-1 1,-1 2,0 1,-1 1,0 0,-1 1,-1 2,0 1,-1 1,0 1,-1 1,0 1,-1 0,-1 -2,0 -1,1 0,0 -1,1 -1,0 -1,1 1,0 2,-1 -5,2 -1,1 -1,1 -1,0 -2,1 -2,2 -2,1 -1,0 -1,1 -1,0 -1,1 -1,1 -2,0 -1,-1 0,-2 1,-1 0,-1 -2,-2 -1,0 0,1 -1,1 0,2 -1,1 1,1 0,2 -1,1 -1,1 -1,0 -1,1 -11,0 -1,-1 0,-7 1,-1 0,-2 1,-1 0,-2 1,-1 0,-4 1,-1 0,-3 1,-1 0,-2 1,-1 0,-2 1,-1 0,-2 1,-1 0,-1 1,-1 0,-1 1,-1 0,-1 1,-1 0,-1 1,-1 0,-2 1,-1 0,-1 1,-1 0,-3 1,-1 0,-2 -86,0 0,2 -1,1 -1,0 -1,1 -3,0 -1,1 -1,1 -1,0 -1,1 -2,0 -1,1 -1,0 -1,1 -2,0 -1,1 -1,0 -1,1 -2,0 -1,1 -1,0 -1,1 -1,0 -1,1 -2,0 -1,1 -1,0 -1,1 -2,0 -1,1 -1,0 -1,1 -2,0 -1,1 -1,0 -1,1 -2,0 -1,1Z"/>
<path onmouseover="hoverPath(evt)" onmouseout="recoverPath(evt)" fill="rgb(250,251,251)" d="M  59,6l -1,0 -1,1 -2,0 -1,1 -1,0 -1,1 -2,0 -1,1 -1,0 -1,1 -2,0 -1,1 -1,0 -1,1 -2,0 -1,1 -1,0 -1,1 -2,0 -1,1 -1,0 -1,1 -1,0 -1,1 -2,0 -1,1 -4,0 -1,-1 0,-1 -1,-1 -1,0 -1,-1 0,-2 -1,0 -1,-1 0,-2 -1,0 -1,-1 0,-2 -1,-1 0,-3 1,-1 2,0 1,-1 1,0 0,-1 -19,0 0,5 1,0 1,-1 1,0 1,-1 2,0 1,-1 3,0 1,1 0,1 1,1 1,1 0,1 1,1 0,-1 45,-1 -44,4 1,1 1,2 1,1 1,2 1,1 1,1 0,1 1,1 1,1 1,1 0,1 1,0 1,1 0,2 1,0 1,1 0,2 1,1 1,1 0,1 1,1 1,1 0,1 1,1 1,1 0,1 1,1 1,1 0,1 1,1 1,1 0,1 1,1 1,1 0,1 1,1 1,1 0,1 1,1 1,1 0,1 1,0 1,1 0,2 1,0 1,1 0,2 1,1 1,0 1,1 0,2 1,1 1,1 1,1 0,1 1,1 0,1 1,0 1,1 0,2 1,1 0,1 1,0 1,1 0,2 1,1 0,2 1,1 0,2 1,0 0,-3 -1,-1 0,-1 -1,-1 0,-1 1,4 0,0 -2,-6 -1,-1 0,-1 -1,-1 0,1 -1,-3 -1,-1 0,-1 -1,0 -1,-2 0,-1 -1,-1 -1,-1 0,1 1,1 -2,-4 -1,-1 -1,-1 0,1 -1,-3 -1,-1 -1,-2 -2,-2 0,-1 -1,0 -1,-2 0,-1 -1,0 -1,-2 0,-1 -1,0 -1,-2 0,-1 -1,0 -1,-2 0,-1 -1,0 -1,-2 0,-1 -1,0 -1,-2 0,-1 -1,0 -1,-2 0,-1 -1,-1 0,1 -1,-3 -1,-1 -1,-2 0,-2 1,-1 1,0 1,-1 1,0 1,-1 2,0 1,-1 1,0 1,-1 2,0 1,-1 1,0 1,-1 2,0 1,-1 1,0 1,-1 2,0 1,-1 1,0 1,-1 1,0 1,-1 2,0 1,-1 1,0 1,-1 2,0 1,-1 1,0 1,-1 2,0 1,-1 1,0 1,-1 1,-1 3,0 1,-1 1,0 0,-1 -4,0 0,1 -2,1 -1,0 -1,1 -1,0 -1,1 -2,0 -1,1 1,0 3,-1 2,-1 -12,5 -5,2 -2,1 -3,1 -2,1 -3,1 -2,1 -3,1 -2,1 -5,2 -13,-9 44,-4Z"/>
<path onmouseover="hoverPath(evt)" onmouseout="recoverPath(evt)" fill="rgb(171,198,236)" d="M  75,110l 0,8 1,1 0,9 1,1 0,4 1,1 0,6 1,1 0,5 5,0 1,-1 8,0 1,-1 9,0 1,-1 8,0 1,-1 1,0 0,-3 1,-1 0,-5 1,-1 0,-4 1,-1 0,-11 1,-1 0,-3 1,-1 0,-3 1,-1 0,-3 1,-1 0,-2 1,-1 0,-3 1,-1 0,-3 1,-1 0,-3 -1,0 -1,1 -1,0 -1,1 -3,0 -1,1 -2,0 -1,1 -2,0 -1,1 -2,0 -1,1 -3,0 -1,1 -2,0 -1,1 -2,0 -1,1 -1,0 0,1 -1,1 -1,0 -1,1 -1,0 -1,1 -1,0 -1,1 -1,0 -1,1 -1,0 -1,1 -1,0 -1,1 -2,0 -1,1 -1,0 -1,1 -1,0 -1,1 -1,1Z"/>
<path onmouseover="hoverPath(evt)" onmouseout="recoverPath(evt)" fill="rgb(244,243,235)" d="M  122,201l -1,0 0,2 -1,1 0,1 -1,1 0,1 -1,1 0,1 -1,1 0,1 -1,1 0,2 -1,1 0,6 -1,1 -2,0 0,3 -1,1 -2,0 0,3 -1,1 0,1 -1,1 0,2 -1,1 0,2 -1,1 0,1 -1,1 0,1 -1,1 0,2 -1,1 0,5 -1,1 0,4 57,0 0,-2 1,-1 1,0 1,-1 1,0 1,-1 1,0 1,-1 3,0 1,1 0,-2 1,-1 1,0 1,-1 2,0 1,-1 1,0 1,-1 1,0 0,-1 1,-1 0,-1 1,-1 0,-2 1,-1 0,-1 1,-1 0,-2 1,-1 1,-1 1,-1 0,-1 2,-2 0,-1 1,-1 1,0 1,-1 1,-1 1,-1 1,0 1,-1 1,0 1,-1 7,0 1,1 1,-1 0,0 1,-1 1,-1 1,-1 0,-1 1,-1 1,0 1,-1 0,-2 1,-1 2,0 1,1 1,-1 0,-2 1,-1 1,0 1,-1 2,0 1,1 2,0 1,-1 3,0 1,1 3,0 1,-1 2,0 1,-1 1,-1 1,0 1,-1 1,-1 0,-1 1,-1 2,0 1,-1 1,0 0,-1 1,-1 1,-1 0,-1 1,-1 1,0 3,-3 0,-1 1,-1 2,0 0,-23 -1,0 -1,-1 -1,-1 -1,-1 -1,0 -1,-1 -1,-1 -1,-1 -2,-2 -1,-1 -1,-1 -1,0 -1,1 0,0 -1,1 -2,0 0,1 -1,1 -2,0 0,1 -1,1 -1,1 -2,0 0,1 -1,1 -1,1 -2,0 0,1 -1,1 -1,1 -1,0 -1,1 -1,1 -1,1 -1,1 -1,0 0,1 -1,1 -1,1 -1,1 -1,1 -1,1 -1,1 -2,0 -1,-1 -2,0 -1,-1 -1,1 0,0 -1,1 -1,1 -1,1 -1,1 0,1 -1,1 -1,1 -1,0 -1,1 -1,1 -1,0 -1,1 -1,1 -1,0 -1,1 -1,0 0,6 -1,1 -1,1 -1,1 -1,1 -1,1 -1,1 -1,1 -1,1 -1,1 -1,1 -1,1 -1,1 -1,0 -1,1 -1,0 0,1 -1,1 -1,1 -1,1 -1,0 -1,1 -1,0 -1,1 -1,0 -1,1 -3,0 -1,-1 -1,-1 -1,-1 0,-1 -1,-1 -1,-1 0,-1 -1,-1 0,-1 -1,-1 0,-1 -1,-1 0,-1 -1,-1 0,-1 -1,-1 0,-1 -1,-1 0,-1 -1,-1 0,-2 -1,-1 0,-1 -1,-1 -1,-1 0,-1 -1,-1 0,-1 -1,-1 0,-1 -1,-1 0,-1 -1,-1 0,-2 -1,1 0,0 -1,1 -1,0 -1,1 -1,1 -1,1 -1,1 -1,0 0,1 -1,1 -1,0 -1,1 -1,1 -1,1 0,1 -1,1 -2,0 0,1 -1,1 -1,0 -1,1 -1,0 0,1 -1,1 -1,0 -1,1Z"/>
<path onmouseover="hoverPath(evt)" onmouseout="recoverPath(evt)" fill="rgb(242,241,233)" d="M  171,255l 18,0 0,-3 1,-1 0,-3 1,-1 0,-2 1,-1 0,-2 1,-1 1,-1 0,-1 1,-1 1,-1 1,-1 2,-2 1,-1 1,-1 1,-1 1,0 1,-1 1,-1 1,0 1,-1 1,-1 1,-1 1,-1 1,-1 1,0 2,-2 1,-1 1,-1 1,-1 1,-1 1,0 2,-2 1,0 1,-1 1,0 1,-1 1,-1 1,0 1,-1 -2,0 -1,-1 -1,-1 -2,0 -1,1 -1,0 -1,1 -1,0 -1,1 -1,1 -1,0 -1,1 -1,0 -1,1 -1,1 -1,0 0,1 -1,1 -1,1 -1,1 -1,1 -1,1 -2,0 -1,-1 -5,0 0,2 -1,1 -2,0 -1,-1 -1,1 -2,2 -1,0 0,1 -1,1 -1,1 0,1 -3,3 0,2 -1,1 0,1 -1,1 0,2 -1,1 0,1 -1,1 0,1 -1,1 -1,0 -1,1 -1,0 -1,1 -2,0 -1,1 -1,0 0,2 -1,1 -2,0 -1,-1 -1,0 -1,1 -1,0 -1,1 -1,0 -1,1 -1,0 0,1Z"/>
<path onmouseover="hoverPath(evt)" onmouseout="recoverPath(evt)" fill="rgb(171,198,237)" d="M  199,30l -1,0 -1,1 -1,0 0,1 3,0 1,-1 -1,-1 5,0 1,-1 1,0 1,-1 1,-1 1,0 2,-2 1,-1 1,-1 1,0 1,-1 1,-1 1,0 1,-1 1,-1 1,0 1,-1 1,-1 1,0 1,-1 1,-1 1,-1 1,0 1,-1 1,0 1,-1 1,-1 1,0 1,-1 1,-1 1,0 1,-1 4,0 2,2 0,-1 -1,-1 -1,-1 -1,0 -1,-1 -3,0 -1,1 -1,1 -1,1 -1,0 -1,1 -1,1 -1,0 -1,1 -1,1 -1,0 -1,1 -1,1 -1,0 -2,2 -1,0 -1,1 -1,1 -1,0 -1,1 -1,1 -1,1 -1,0 -1,1 -1,1 -1,0 -1,1 -1,1 -1,0 -1,1 -1,0 -1,1 -1,0 1,2 -4,0 44,-20 -1,1Z"/>
<path onmouseover="hoverPath(evt)" onmouseout="recoverPath(evt)" fill="rgb(240,238,232)" d="M  219,65l 0,2 -1,1 -1,0 -1,1 -1,1 -1,1 -1,0 -1,1 2,0 1,1 1,-1 1,0 1,-1 1,-1 1,-1 1,-1 1,0 1,-1 1,0 1,-1 1,-1 1,-1 1,0 1,-1 4,0 1,1 -1,-2 0,-1 1,-1 1,0 1,-1 1,-1 1,0 0,-1 1,-1 1,0 1,-1 1,0 1,-1 1,-1 0,-1 1,-1 2,0 1,-1 1,0 0,-1 1,-1 5,0 0,-18 -2,0 0,1 -1,1 -1,0 -1,1 -1,0 -1,1 -2,0 -1,-1 0,2 -1,1 -2,0 -1,1 -1,0 -1,1 -1,0 0,1 -1,1 -2,0 -1,1 -1,0 -1,1 -1,0 -1,1 -1,1 -2,0 -1,-1 -1,1 -1,0 -1,1 -1,0 -1,1 -1,0 -1,1 -1,0 -1,1 -1,0 -1,1 -1,0 -1,1 -2,0 -1,1 0,1 1,1 0,3 1,0 1,1 1,1 1,1 0,2 1,0 1,1 1,1 0,1 1,1 17,-8 -1,1 -1,1 -2,0 -1,-1 0,-2 1,-1 1,-1 2,0 1,1 0,2 -17,8Z"/>
<path onmouseover="hoverPath(evt)" onmouseout="recoverPath(evt)" fill="rgb(243,242,234)" d="M  229,134l 0,0 1,1 1,1 1,0 1,1 1,1 1,0 1,1 1,1 1,1 1,0 1,1 1,1 1,0 1,-1 1,0 1,-1 1,0 1,-1 1,0 1,-1 2,0 1,1 1,0 1,1 0,2 1,0 0,-47 -1,0 -1,1 -1,0 -1,1 -1,1 -1,1 -1,1 -1,1 -1,1 -1,1 -1,1 0,1 -1,1 -1,1 -3,0 -1,1 -1,0 -1,1 -1,1 -1,0 -2,2 -1,1 -1,0 -1,1 -1,1 0,2 -1,1 0,1 -1,1 -1,1 -2,0 0,1 1,0 1,1 1,1 1,1 1,1 0,2 -1,1 -1,0 -1,1 1,1 1,0 1,1 1,1Z"/>
<path onmouseover="hoverPath(evt)" onmouseout="recoverPath(evt)" fill="rgb(242,241,232)" d="M  235,229l 0,0 -1,-1 -1,1 -1,1 0,2 -1,1 -1,1 -1,1 -1,0 -1,1 -3,3 0,1 1,1 0,0 1,1 1,0 1,1 0,2 1,1 1,1 2,0 1,-1 1,0 1,-1 1,-1 1,0 1,-1 1,-1 1,0 1,-1 1,0 1,-1 1,-1 1,0 1,-1 1,0 1,-1 1,-1 2,0 -1,-1 0,0 -1,-1 0,-1 -1,-1 -1,-1 -1,-1 -1,-1 -1,-1 0,-1 -1,0 -1,-1 -1,0 -1,1 -1,0 -1,1 -1,1Z"/>
<path onmouseover="hoverPath(evt)" onmouseout="recoverPath(evt)" fill="rgb(242,240,231)" d="M  250,222l 0,1 -1,1 -1,1 1,1 0,1 1,1 1,1 1,1 3,0 0,-26 -1,0 -1,1 -1,1 -1,1 -2,2 -1,0 -2,2 -1,0 -1,1 -1,0 -1,1 -1,0 -1,1 -2,0 0,1 1,1 0,0 1,1 1,1 0,1 1,1 1,1 1,1 1,0 1,-1 0,0 1,-1 2,0 1,1Z"/>
<path onmouseover="hoverPath(evt)" onmouseout="recoverPath(evt)" fill="rgb(253,253,252)" d="M  72,247l 0,0 -1,1 -1,1 -1,1 0,1 -1,1 0,1 -1,1 0,1 3,0 0,-3 1,-1 3,-3 1,-1 3,-3 1,0 0,-1 1,-1 1,-1 1,-1 0,-2 1,-1 0,-18 -1,-1 0,-2 1,-1 0,-24 1,-1 0,-1 -1,-1 0,-13 -1,-1 0,-3 -1,-1 0,-5 -1,-1 0,-4 -1,-1 0,-8 1,-1 1,-1 7,0 1,-1 9,0 1,-1 9,0 1,-1 5,0 1,-1 1,0 1,-1 0,-2 1,-1 0,-5 1,-1 0,-4 1,-1 0,-2 1,-1 7,0 0,-1 -1,0 -1,-1 -4,0 -1,-1 0,-9 1,-1 0,-3 1,-1 0,-3 1,-1 0,-3 1,-1 0,-3 1,-1 0,-3 1,-1 0,-3 1,-1 0,-3 1,-1 -3,0 -1,1 -2,0 3,1 0,5 -1,1 0,3 -1,1 0,3 -1,1 0,2 -1,1 0,3 -1,1 0,3 -1,1 0,3 -1,1 0,11 -1,1 0,4 -1,1 0,5 -1,1 0,3 -1,1 -1,0 -1,1 -8,0 -1,1 -9,0 -1,1 -8,0 -1,1 -7,0 -1,-1 0,-5 -1,-1 0,-6 -1,-1 0,-4 -1,-1 0,-9 -1,-1 0,-11 1,-1 1,0 1,-1 1,0 1,-1 1,0 1,-1 2,0 1,-1 1,0 1,-1 1,0 1,-1 1,0 1,-1 1,0 1,-1 1,0 1,-1 1,0 0,-1 -2,0 -1,1 -1,0 -1,1 -2,0 -1,1 -4,0 0,1 -1,1 -2,0 -1,1 -1,1 -1,0 -1,1 -2,0 -1,1 -1,0 0,2 -1,1 0,2 1,1 0,9 1,1 0,7 1,1 0,5 1,1 0,6 1,1 0,5 -1,1 -10,0 -1,1 -11,0 -1,1 -8,0 -1,1 -9,0 -1,1 -8,0 -1,1 -8,0 -1,1 -8,0 -1,1 -5,0 0,1 8,0 1,-1 8,0 1,-1 8,0 1,-1 9,0 1,-1 8,0 1,-1 10,0 1,-1 11,0 1,-1 6,0 1,1 0,3 1,1 0,4 1,1 0,5 1,1 0,4 1,1 0,3 1,1 0,13 -1,1 -4,0 -1,-1 -12,0 -1,-1 -52,0 -1,1 -4,0 -1,1 -4,0 0,2 1,0 1,-1 3,0 1,-1 65,0 1,1 7,0 1,1 1,1 0,21 -1,1 0,10 1,1 0,12 -1,1 0,1 -1,1 -1,1 0,1 -1,1 -1,1 -1,0 -1,1 -1,1 -1,1Z"/>
<path onmouseover="hoverPath(evt)" onmouseout="recoverPath(evt)" fill="rgb(249,248,244)" d="M  123,190l 0,0 -1,-1 0,-9 1,-1 0,-6 1,-1 0,-6 1,-1 0,-2 1,-1 0,-3 1,-1 0,-3 1,-1 0,-4 1,-1 0,-3 1,-1 0,-3 1,-1 0,-2 1,-1 0,-2 1,-1 0,-2 1,-1 0,-1 1,-1 0,-2 1,-1 -2,0 0,2 -1,1 0,2 1,-2 3,-3 1,0 1,-1 0,0 4,-4 0,-1 -1,0 0,1 -1,1 -1,1 -1,1 -1,1 -1,0 -5,8 0,1 -1,2 0,1 -1,2 0,1 -1,2 0,2 -1,3 0,1 -1,3 0,2 -1,2 0,2 -1,2 0,2 -1,2 0,1 -1,3 0,4 -1,2 0,5 -1,3 -2,0 0,3 -1,1 0,3 -1,1 1,1 0,0 1,1 1,1 1,1 0,2 -2,2 -1,1 -1,0 -1,1 0,2 -1,1 0,6 -1,1 0,1 -1,1 0,2 -1,1 1,1 0,-1 1,-2 0,-1 1,-2 1,-2 0,-1 1,-1 0,-1 1,-1 0,-1 1,-1 0,-2 1,-1 1,0 1,-1 1,0 0,-1 1,-1 1,0 1,-1 1,0 0,-1 1,-1 2,0 0,-1 3,-3 1,-1 1,0 0,-1 -1,0 -1,1 0,0 -1,1 -1,1 -1,0 0,1 -1,1 -4,0 -1,-1 -1,-1Z"/>
<path onmouseover="hoverPath(evt)" onmouseout="recoverPath(evt)" fill="rgb(244,242,235)" d="M  137,131l 0,0 -1,1 0,1 -1,1 0,2 -1,1 0,2 -1,1 0,2 -1,1 0,3 -1,1 0,3 -1,1 0,4 -1,1 0,3 -1,1 0,3 -1,1 0,2 -1,1 0,6 -1,1 0,6 -1,1 0,7 1,-2 1,0 1,-1 1,0 1,-1 1,-1 1,-1 1,-1 2,0 0,-1 1,-1 1,-1 1,-1 -1,-1 0,0 -1,-1 -1,-1 -1,-1 -1,0 -1,-1 0,-4 1,-1 0,-1 1,-1 0,-1 1,-1 0,-1 1,-1 1,-1 0,-1 1,-1 0,-1 1,-1 1,-1 0,-1 1,-1 1,-1 1,-1 0,-1 1,-1 1,-1 1,-1 0,-1 1,-1 5,0 1,1 1,1 1,1 1,1 1,1 1,1 1,1 1,1 0,1 1,1 0,-2 1,-1 1,-1 1,-1 5,0 1,1 1,0 1,-1 0,0 1,-1 1,-1 1,0 1,-1 1,-1 1,-1 1,-1 1,-1 1,-1 1,0 3,-3 1,-1 1,0 1,-1 1,0 1,-1 1,-1 1,0 1,-1 1,-1 1,0 1,-1 1,-1 1,0 1,-1 1,-1 1,0 1,-1 1,-1 1,0 1,-1 1,-1 1,0 1,-1 1,0 1,-1 1,-1 1,0 1,-1 1,-1 1,-1 1,-1 1,-1 1,-1 1,0 1,-1 1,-1 1,-1 1,-1 1,-1 1,-1 1,-1 1,-1 1,-1 1,-1 0,-1 -1,-1 -1,0 -1,1 0,0 -1,1 -1,0 -1,1 -1,1 -1,0 -1,1 -1,1 -1,0 -1,1 -1,1 -4,0 -1,-1 -4,0 -1,-1 -3,0 -1,-1 -1,-1 0,-1 -1,-1 -1,0 0,2 1,1 0,0 1,1 1,1 1,0 1,1 0,4 -1,1 -2,2 -1,1 -1,1 -1,1 -1,1 -1,1 -1,1 -1,1 -1,1 -1,0 -1,1 -1,1 -1,0 -1,1 -1,0 -1,1 -1,1 -1,0 -1,1 -1,0 -1,1 -1,1 -1,0 -1,1 -1,1 -1,0 -1,1 -1,0 -1,1 -1,0 0,3 -1,1 -1,1 -1,0 -1,1 -1,1 -1,1 -1,1 -1,0 -1,1 -1,1 -2,0 -1,-1 -1,-1 -1,-1 0,-1 -1,-1 -1,-1 -1,-1 0,-3 1,-1 1,-1 1,-1 1,0 1,-1 1,-1 1,-1 3,0 -1,-1 0,0 -1,-1 -1,-1 -1,-1 -1,-1 -1,-1 -1,-1 -1,-1 -1,-1 -1,-1 -1,-1 -1,-1 0,-1 -2,0 -1,-1 0,-2 -1,1 -1,0 -1,1 0,3 -1,1 -1,1 -1,1 -1,1 -1,1 -1,1 -2,0Z"/>
<path onmouseover="hoverPath(evt)" onmouseout="recoverPath(evt)" fill="rgb(176,201,237)" d="M  178,158l -1,1 -2,0 0,1 -1,1 -1,0 -2,2 -1,0 -1,1 -1,0 0,1 1,1 0,0 1,1 1,1 1,1 1,1 0,1 1,1 1,1 1,1 1,1 2,0 1,1 0,4 2,2 1,1 1,1 0,1 1,1 1,1 1,1 1,1 1,1 2,0 1,-1 1,0 1,-1 1,-1 1,0 2,-2 1,0 1,-1 0,-1 1,-1 3,-3 1,-1 1,-1 2,0 1,1 1,0 0,-2 1,-1 0,-1 1,-1 -2,1 -1,0 -1,-1 -1,-1 -1,-1 -1,-1 -1,-1 -1,-1 -1,-1 -1,-1 -1,-1 0,-3 1,-1 1,-1 1,-1 -1,0 -1,-1 0,0 -1,-1 -1,-1 -1,-1 0,-1 -1,-1 -1,-1 -1,0 -1,-1 0,-2 -1,-1 -1,0 0,1 -1,1 -1,1 -1,1 -1,0 -1,1 -2,0 0,1 -1,1 -1,0 -1,1 -1,1 -1,0 -1,1Z"/>
<path onmouseover="hoverPath(evt)" onmouseout="recoverPath(evt)" fill="rgb(171,198,237)" d="M  201,235l 0,0 -1,1 -2,2 -1,1 -1,1 0,1 -1,1 -1,1 0,2 -1,1 0,2 -1,1 0,3 -1,1 0,2 4,0 0,-2 1,-1 0,-1 1,-1 0,-3 1,-1 0,-3 1,-1 1,-1 1,-1 1,-1 1,0 0,-1 1,-1 1,0 1,-1 1,-1 1,-1 1,-1 1,-1 1,-1 1,0 1,-1 2,-2 1,-1 1,0 1,-1 1,-1 1,-1 1,-1 1,-1 1,0 1,-1 1,-1 1,-1 1,-1 1,-1 1,0 1,-1 1,0 1,-1 0,-2 -2,0 -1,1 0,0 -1,1 -1,0 -1,1 -1,1 -1,0 -1,1 -1,0 -1,1 -1,1 -1,0 -1,1 -2,2 -1,1 -1,1 -1,1 -1,0 -5,5 -1,0 -2,2 -1,0 -2,2Z"/>
<path onmouseover="hoverPath(evt)" onmouseout="recoverPath(evt)" fill="rgb(241,239,229)" d="M  219,243l 0,0 -1,1 0,1 -1,1 -2,0 0,1 -1,1 -1,0 -3,3 -1,1 0,1 -1,1 -1,0 0,1 16,0 0,-2 1,-1 1,0 0,-1 1,-1 1,0 -1,-1 0,0 -1,-1 -1,-1 0,-1 -1,-1 -1,-1 -1,-1 0,-1 -1,1Z"/>
<path onmouseover="hoverPath(evt)" onmouseout="recoverPath(evt)" fill="rgb(209,222,240)" d="M  240,211l 1,0 1,-1 1,0 1,-1 1,0 1,-1 1,-1 1,0 1,-1 1,-1 1,-1 1,-1 1,-1 2,0 0,-10 -1,0 0,1 -1,1 -1,1 -1,1 -1,1 -1,0 0,1 -1,1 -1,1 0,1 -1,1 -1,0 -1,1 -2,0 0,1 -1,1 -1,1 -1,1 -1,0 -1,1 -1,1 -2,0 -1,1 -5,0 -1,-1 0,1 -1,-1 4,2 3,0 1,1 0,2 1,0 1,1 0,-2 1,-1 2,0 1,-1Z"/>
<path onmouseover="hoverPath(evt)" onmouseout="recoverPath(evt)" fill="rgb(235,236,234)" d="M  243,7l 3,3 0,2 -1,1 0,3 -1,1 1,0 1,-1 1,0 1,-1 0,-1 1,-1 3,0 1,-1 2,0 0,-12 -22,0 0,2 1,1 0,0 1,1 4,0 1,1 1,0 1,1 1,1 0,10 -1,1 -1,1 2,0 0,-1 -2,2 -1,-1 0,0 -1,1 1,0 3,-3Z"/>
</svg>