<svg width="256" height="256" xmlns="http://www.w3.org/2000/svg"><script> 
var tempColor;
function hoverPath(evt){
obj = evt.target;
tempColor = obj.getAttribute("fill");
obj.setAttribute("fill","red");
//alert(tempColor);
//obj.setAttribute("stroke","red");}
function recoverPath(evt){
obj = evt.target;
obj.setAttribute("fill", tempColor);
//obj.setAttribute("stroke", tempColor);
}</script><path onmouseover="hoverPath(evt)" onmouseout="recoverPath(evt)" fill="rgb(244,243,236)" d="M  0,1l 0,39 7,0 1,-1 15,0 1,-1 8,0 1,-1 7,0 1,-1 12,0 1,-1 20,0 1,-1 3,0 1,1 9,0 1,-1 3,0 0,-1 1,-1 2,0 1,-1 0,-1 1,-1 1,-1 1,-1 2,0 0,-5 1,-1 -1,-1 0,-2 1,-1 2,-2 8,0 -1,-1 -1,0 -1,-1 0,-3 1,-1 1,-1 0,-1 -1,-1 0,0 -1,-1 -2,-2 -1,-1 0,-2 -105,0 -1,1Z"/>
<path onmouseover="hoverPath(evt)" onmouseout="recoverPath(evt)" fill="rgb(247,237,144)" d="M  0,182l 0,9 5,0 1,-1 17,0 1,-1 17,0 1,-1 23,0 1,-1 22,0 1,-1 6,0 1,1 1,-1 4,0 0,-1 1,-1 2,0 1,1 1,1 1,0 0,-1 1,-1 6,0 1,1 1,-1 10,0 1,-1 10,0 1,-1 9,0 1,-1 10,0 1,-1 10,0 1,-1 10,0 1,-1 10,0 1,-1 10,0 1,-1 10,0 1,-1 10,0 1,-1 9,0 1,-1 6,0 1,1 0,17 1,1 0,24 1,1 0,15 1,1 0,12 1,1 0,9 9,0 0,-92 -10,0 -1,1 -9,0 -1,1 -11,0 -1,1 -12,0 -1,1 -11,0 -1,1 -11,0 -1,1 -12,0 -1,1 -11,0 -1,1 -11,0 -1,1 -12,0 -1,1 -11,0 -1,1 -10,0 -1,1 -4,0 -1,1 -2,0 -1,1 -5,0 -1,-1 -3,0 -1,1 -4,0 -1,-1 -12,0 -1,1 -25,0 -1,-1 0,-22 -1,-1 0,-15 1,-1 1,0 1,-1 -1,0 -3,3 0,3 1,12 0,24 -1,1 -3,0 -1,-1 -15,0 -1,1 -16,0 -1,1 -11,0Z"/>
<path onmouseover="hoverPath(evt)" onmouseout="recoverPath(evt)" fill="rgb(244,243,236)" d="M  1,193l -1,0 0,62 91,0 0,-3 -1,-1 0,-26 -1,-1 0,-29 -1,-1 0,-5 -21,0 -1,1 -23,0 -1,1 -17,0 -1,1 -17,0 -1,1Z"/>
<path onmouseover="hoverPath(evt)" onmouseout="recoverPath(evt)" fill="rgb(242,241,234)" d="M  1,45l -1,0 0,38 3,0 1,-1 24,0 1,1 8,0 1,1 7,0 1,1 13,0 1,1 8,0 1,-1 11,0 1,-1 7,0 1,-1 2,0 1,-1 1,0 1,-1 1,-1 0,-1 1,-1 1,-1 1,-1 2,0 1,-1 1,0 1,-1 1,-1 0,-1 -1,-1 0,-1 -1,-1 -1,-1 0,-1 -1,-1 0,-5 1,-1 0,-2 1,-1 0,-5 1,-1 0,-6 -1,-1 0,-1 -1,0 -1,-1 -1,1 -1,1 -4,0 -1,-1 -2,0 -1,1 -6,0 -1,-1 -1,-1 0,-2 -16,0 -1,1 -18,0 -1,1 -12,0 -1,1 -7,0 -1,1 -16,0 -1,1Z"/>
<path onmouseover="hoverPath(evt)" onmouseout="recoverPath(evt)" fill="rgb(243,242,235)" d="M  52,139l -1,0 0,13 1,1 0,22 23,0 1,-1 14,0 1,1 2,0 1,-1 4,0 1,-1 1,0 0,-1 -1,-1 -1,-1 0,-2 -1,-1 0,-6 2,-2 1,-1 1,-1 1,0 1,-1 0,-2 -1,-1 -1,0 -1,-1 -1,-1 -1,-1 0,-1 -1,-1 0,-5 1,-1 0,-3 1,-1 0,-5 1,-1 0,-7 1,-1 0,-6 1,-1 0,-13 1,-1 0,-8 -1,-1 0,-2 -1,-1 -1,-1 -8,0 -1,1 -9,0 -1,1 -7,0 -1,1 -22,0 -1,-1 -5,0 -1,-1 -8,0 -1,-1 -4,0 -1,-1 -18,0 -1,1 -11,0 0,88 10,0 1,-1 16,0 1,-1 17,0 1,1 1,0 0,-8 1,-1 0,-11 -1,-1 0,-12 -1,-1 0,-5 1,-1 1,-1 1,-1 1,-1 3,0 1,1 0,2 -1,1 -1,1Z"/>
<path onmouseover="hoverPath(evt)" onmouseout="recoverPath(evt)" fill="rgb(171,198,237)" d="M  57,91l 15,0 1,-1 7,0 1,-1 9,0 1,-1 10,0 1,1 1,1 1,1 0,2 1,1 0,10 -1,1 0,13 -1,1 0,6 -1,1 0,7 -1,1 0,5 -1,1 0,3 -1,1 0,3 1,1 0,1 1,1 1,1 1,0 1,1 1,1 0,4 -1,1 -1,1 -1,0 -1,1 -1,1 -1,1 0,4 1,1 0,2 1,1 1,1 0,3 -1,1 2,0 1,-1 2,0 -1,-1 0,-1 -1,-1 -1,-1 0,-1 -1,-1 0,-1 -1,-1 0,-2 1,-1 0,-1 1,-1 1,-1 1,0 1,-1 1,-1 1,-1 0,-4 -1,-1 0,0 -1,-1 -1,-1 -1,-1 -1,-1 -1,-1 0,-10 1,-1 0,-8 1,-1 0,-8 -47,-28 48,26 0,-12 1,-3 0,-14 1,-1 8,0 1,1 22,0 1,-1 22,0 1,-1 5,0 1,1 1,1 0,4 -1,1 0,8 1,1 1,0 1,1 3,0 1,-1 1,0 1,-1 0,-1 1,-1 1,-1 1,-1 1,0 1,-1 1,-1 1,-1 1,-1 1,0 1,-1 1,-1 1,-1 1,0 1,-1 1,-1 1,0 1,-1 1,-1 1,0 1,-1 1,0 1,-1 2,0 1,-1 2,0 1,-1 1,0 1,-1 1,0 1,-1 1,0 1,-1 2,0 1,-1 1,0 1,-1 1,0 1,-1 2,0 1,-1 11,0 1,1 5,0 1,-1 4,0 0,-1 -1,-1 0,-2 -3,0 -1,1 -6,0 -1,-1 -9,0 -1,1 -1,0 -1,1 -1,0 -1,1 -1,0 -1,1 -1,0 -1,1 -1,0 -1,1 -2,0 -1,1 -1,0 -1,1 -1,0 -1,1 -1,0 -1,1 -2,0 -1,1 -1,0 -1,1 -2,0 -1,1 -1,0 -1,1 -1,1 -1,0 -1,1 -1,1 -1,1 -1,0 -1,1 -1,1 -1,0 -1,1 -1,1 -1,0 -1,1 -1,1 -1,1 -1,1 -2,0 -1,-1 -1,-1 0,-9 -1,-1 0,-1 -1,-1 -9,0 -1,1 -19,0 -1,1 -6,0 -1,1 -8,0 -1,-1 -16,0 -1,-1 -4,0 -1,-1 0,-3 1,-1 1,0 1,-1 1,0 1,-1 1,-1 0,-1 1,-1 0,-4 -1,-1 0,-1 -1,-1 -1,-1 -1,-1 0,-5 1,-1 0,-14 -1,0 0,7 -1,1 0,5 -1,1 0,2 -1,1 0,3 1,1 0,1 1,1 1,1 0,1 1,1 0,3 -1,1 -1,1 -1,1 -1,0 -1,1 -2,0 -1,1 -1,1 0,1 -1,1 -1,1 -1,1 -1,0 -1,1 -2,0 -1,1 -7,0 -1,1 -11,0 -1,1 -10,0 -1,-1 -13,0 -1,-1 -7,0 -1,-1 -8,0 -1,-1 -22,0 -1,1 -4,0 0,3 10,0 1,-1 20,0 1,1 4,0 1,1 8,0 1,1 5,0 1,1 4,0 49,26 -48,-26Z"/>
<path onmouseover="hoverPath(evt)" onmouseout="recoverPath(evt)" fill="rgb(170,198,238)" d="M  75,37l -20,0 -1,1 -12,0 -1,1 -7,0 -1,1 -8,0 -1,1 -15,0 -1,1 -8,0 0,1 7,0 2,-1 15,0 1,-1 7,0 2,-1 11,0 1,-1 18,0 1,-1 9,0 1,-1 1,1 4,0 0,-1 -2,0 -1,-1 -1,0 0,2 -1,-1Z"/>
<path onmouseover="hoverPath(evt)" onmouseout="recoverPath(evt)" fill="rgb(254,254,254)" d="M  91,188l -1,0 0,5 1,1 0,29 1,1 0,26 1,1 0,4 3,0 0,-7 -1,-1 0,-28 -1,-1 0,-30Z"/>
<path onmouseover="hoverPath(evt)" onmouseout="recoverPath(evt)" fill="rgb(244,243,236)" d="M  97,189l -1,0 0,28 1,1 0,28 1,1 0,8 98,0 0,-1 -1,-1 -1,0 -1,-1 -2,-2 -1,-1 -1,0 -1,-1 -1,-1 -1,-1 -1,-1 -1,0 -1,-1 -1,-1 -1,-1 -1,-1 -1,0 -1,-1 -1,-1 -1,-1 -1,-1 -1,0 -1,-1 -1,-1 -1,-1 -1,-1 -1,0 -1,-1 -1,-1 -1,-1 -1,-1 -1,-1 -1,-1 -1,-1 -1,-1 -1,-1 -1,-1 -1,-1 -1,-1 -1,-1 -1,-1 -1,-1 -1,-1 -1,-1 -1,-1 -1,0 -1,-1 -2,0 -1,-1 -4,0 -1,-1 -1,0 -1,-1 -1,0 -1,-1 -1,-1 -1,-1 -1,-1 0,-1 -1,-1 -1,-1 0,-1 -1,-1 0,-1 -1,-1 0,-1 -1,-1 -1,-1 -11,0 -1,-1 -1,0 -1,-1 -1,0 -1,-1 -1,-1 0,-1 -1,-1 0,-1 -1,1 -5,0 -1,-1 -1,0 -1,-1 0,-1 -3,0 -1,1Z"/>
<path onmouseover="hoverPath(evt)" onmouseout="recoverPath(evt)" fill="rgb(244,243,236)" d="M  104,163l 0,1 -1,1 1,1 0,1 1,1 0,1 2,2 0,1 1,1 3,0 1,-1 10,0 1,-1 11,0 1,-1 12,0 1,-1 11,0 1,-1 11,0 1,-1 12,0 1,-1 11,0 1,-1 11,0 1,-1 12,0 1,-1 11,0 1,-1 9,0 1,-1 11,0 0,-39 -2,0 -1,-1 0,-4 -1,-1 0,-4 -1,-1 0,-4 -1,-1 0,-4 -1,-1 0,-4 -1,-1 0,-4 -1,-1 0,-4 -1,-1 0,-4 -1,-1 0,-4 -4,0 -1,1 -7,0 -1,-1 -9,0 -1,1 -2,0 -1,1 -1,0 -1,1 -1,0 -1,1 -2,0 -1,1 -1,0 -1,1 -1,0 -1,1 -1,0 -1,1 -2,0 -1,1 -2,0 -1,1 -1,0 -1,1 -1,0 -1,1 -1,1 -1,0 -1,1 -1,1 -1,0 -1,1 -1,1 -1,1 -1,0 -1,1 -1,1 -1,1 -1,1 -1,0 -1,1 -1,1 0,1 -1,1 -1,1 -1,0 -1,1 -5,0 -1,-1 -1,0 -1,-1 -1,-1 0,-10 1,-1 0,-2 -1,-1 -3,0 -1,1 -22,0 -1,1 -24,0 -1,-1 -6,0 0,14 -1,1 0,14 -1,1 0,9 -1,1 0,8 -1,1 0,8 1,1 0,0 1,1 1,1 1,1 1,1 1,1 0,6 -1,1 -1,1 -1,1 -1,1 -1,0 -1,1Z"/>
<path onmouseover="hoverPath(evt)" onmouseout="recoverPath(evt)" fill="rgb(244,243,236)" d="M  105,81l -1,0 0,1 4,0 1,1 16,0 1,1 6,0 1,-1 6,0 1,-1 19,0 1,-1 11,0 1,1 1,1 0,1 1,1 0,9 1,1 1,-1 1,-1 1,-1 1,-1 1,0 1,-1 1,-1 1,0 1,-1 1,-1 1,0 1,-1 1,-1 1,-1 1,0 1,-1 1,-1 1,0 1,-1 2,0 1,-1 1,0 1,-1 2,0 1,-1 1,0 1,-1 1,0 1,-1 1,0 1,-1 2,0 1,-1 1,0 1,-1 1,0 1,-1 1,0 1,-1 1,0 1,-1 1,0 1,-1 11,0 1,1 4,0 1,-1 2,0 0,-2 1,-1 0,-2 -1,-1 0,-3 -1,-1 0,-3 -1,-1 0,-2 -1,-1 0,-3 -1,-1 0,-3 -1,-1 0,-3 -1,-1 0,-2 -1,-1 0,-3 -1,-1 0,-3 -1,-1 0,-3 -1,-1 0,-3 -1,-1 0,-3 -1,-1 0,-3 -1,-1 0,-3 -1,-1 0,-3 -1,-1 0,-5 -57,0 0,2 -1,1 -2,2 0,3 3,0 1,1 1,0 1,1 1,0 2,2 1,1 1,1 0,3 -1,1 -3,0 -1,-1 -1,-1 -1,-1 0,-1 -1,0 -1,-1 -2,0 -1,-1 -1,0 0,5 -1,1 -1,1 -2,0 -1,1 -21,0 -1,-1 -3,0 -1,-1 -9,0 0,2 -1,1 0,7 -1,1 -1,1 0,1 -1,1 -1,1 -1,0 -1,1 -10,0 -1,-1 -2,0 -1,1 -1,1 0,1 3,0 1,1 1,0 1,1 1,1 0,21 -1,1 0,3 1,1 0,0 1,1 1,1 0,1 1,1 0,6 -1,1 0,1 -2,2 -1,1 -1,0 -1,1Z"/>
<path onmouseover="hoverPath(evt)" onmouseout="recoverPath(evt)" fill="rgb(187,203,225)" d="M  108,1l 0,0 1,1 1,1 1,1 1,1 1,1 0,2 2,0 1,1 1,1 1,1 0,13 -1,1 0,1 -1,1 -1,0 0,1 -1,1 -1,1 -4,0 -1,-1 -2,0 -1,-1 -1,1 -4,0 -1,1 -1,1 0,1 -1,1 -1,1 -2,0 0,1 -1,1 -3,0 -1,1 -7,0 0,1 1,0 1,1 0,2 1,1 4,0 1,-1 4,0 1,1 2,0 1,-1 1,-1 2,0 1,1 1,0 1,1 0,1 2,0 0,-3 -1,-1 -1,0 -1,-1 -3,0 -1,-1 0,-3 1,-1 2,-2 4,0 1,1 8,0 1,-1 1,0 1,-1 0,-1 1,-1 1,-1 0,-7 1,-1 0,-2 1,-1 9,0 0,-1 -2,0 -1,-1 -2,0 -1,-1 -1,-1 0,-3 -1,-1 0,-1 -1,-1 0,-1 -1,0 -1,-1 -1,0 -1,1 -3,0 -1,-1 -1,-1 -1,-1 0,-2 -3,0 -1,1Z"/>
<path onmouseover="hoverPath(evt)" onmouseout="recoverPath(evt)" fill="rgb(221,222,220)" d="M  111,11l 0,1 1,0 1,1 1,1 0,2 -1,1 -8,0 -1,1 -1,1 1,1 0,2 -1,1 0,4 1,-1 2,0 1,1 2,0 1,1 2,0 1,-1 0,-1 1,-1 1,0 0,-1 1,-1 0,-11 -1,-1 0,0 -1,-1 -2,0 -1,1Z"/>
<path onmouseover="hoverPath(evt)" onmouseout="recoverPath(evt)" fill="rgb(244,243,236)" d="M  114,1l 2,2 1,0 1,-1 3,0 1,1 1,0 1,1 0,1 1,1 0,1 1,1 0,3 1,1 2,0 1,1 2,0 1,1 6,0 1,1 15,0 1,-1 1,0 0,-1 1,-1 0,-6 1,-1 0,-1 1,-1 0,-1 1,-1 0,-1 -46,0 -1,1Z"/>
<path onmouseover="hoverPath(evt)" onmouseout="recoverPath(evt)" fill="rgb(244,243,237)" d="M  116,187l 0,2 1,1 0,1 15,0 1,1 1,1 1,0 1,1 0,1 1,1 0,1 1,1 0,1 1,1 0,1 1,1 0,1 1,1 0,1 1,0 1,1 6,0 1,1 2,0 1,1 1,1 1,1 1,1 1,1 1,0 1,1 1,1 1,1 1,1 1,1 1,1 1,1 1,1 1,0 1,1 1,1 1,1 1,1 1,1 1,1 1,1 1,1 1,0 1,1 1,1 1,1 1,1 1,1 1,1 1,1 1,1 1,0 1,1 1,1 1,1 1,0 1,1 1,1 1,1 1,1 1,0 1,1 1,1 1,1 1,0 1,1 1,1 1,1 1,1 1,0 1,1 1,1 1,1 0,2 38,0 0,-8 -1,-1 0,-12 -1,-1 0,-15 -1,-1 0,-24 -1,-1 0,-17 -4,0 -1,1 -9,0 -1,1 -10,0 -1,1 -10,0 -1,1 -10,0 -1,1 -10,0 -1,1 -10,0 -1,1 -10,0 -1,1 -10,0 -1,1 -9,0 -1,1 -10,0 -1,1 -10,0 -1,1Z"/>
<path onmouseover="hoverPath(evt)" onmouseout="recoverPath(evt)" fill="rgb(170,198,237)" d="M  117,194l 0,0 1,1 11,0 1,1 1,1 1,1 0,1 1,1 0,1 1,1 0,1 1,1 1,1 0,1 1,1 1,1 1,1 1,0 1,1 1,0 1,1 4,0 1,1 2,0 1,1 1,0 1,1 1,1 1,1 1,1 1,1 1,1 1,1 1,1 1,1 1,1 1,1 1,1 1,1 1,1 1,1 1,1 1,1 1,1 1,0 1,1 1,1 1,1 1,1 1,0 1,1 1,1 1,1 1,1 1,0 1,1 1,1 1,1 1,1 1,0 1,1 1,1 1,1 1,1 1,0 1,1 1,1 1,1 1,1 1,0 1,1 1,1 0,2 6,0 0,-1 -1,-1 0,0 -1,-1 -1,0 -1,-1 -1,-1 -1,-1 -1,-1 -1,0 -1,-1 -1,-1 -1,-1 -1,0 -1,-1 -1,-1 -1,-1 -1,-1 -1,0 -1,-1 -2,-2 -1,0 -1,-1 -1,-1 -1,-1 -1,-1 -1,-1 -1,-1 -1,-1 -1,-1 -1,0 -1,-1 -1,-1 -1,-1 -1,-1 -1,-1 -1,-1 -1,-1 -1,-1 -1,0 -1,-1 -1,-1 -1,-1 -1,-1 -2,-2 -1,-1 -1,-1 -1,0 -1,-1 -1,-1 -1,-1 -1,-1 -1,-1 -2,0 -1,-1 -6,0 -1,-1 -1,0 -1,-1 0,-1 -1,-1 0,-1 -1,-1 0,-1 -1,-1 0,-1 -1,-1 0,-1 -1,-1 0,-1 -1,0 -1,-1 -1,-1 -13,0 -1,1 -1,-1 -1,-1 0,-1 -1,-1 0,-3 -1,-1 -4,0 0,1 -1,1 -3,0 0,1 3,0 1,-1 2,0 1,1 0,1 1,1 0,1 1,1 2,0 1,1 -13,-6 0,-1 -1,-1 0,2 1,0 13,6Z"/>
<path onmouseover="hoverPath(evt)" onmouseout="recoverPath(evt)" fill="rgb(171,198,238)" d="M  164,0l -1,0 0,2 -1,1 0,1 -1,1 0,1 -1,1 0,6 -1,1 0,1 -1,1 -1,0 -1,1 -17,0 -1,-1 -5,0 1,1 3,0 1,1 19,0 1,-1 2,0 1,-1 0,-5 1,-1 3,0 1,1 2,0 1,1 1,0 1,1 0,1 1,1 1,1 1,0 0,-1 -1,-1 0,0 -1,-1 -1,-1 1,2 0,0 1,1 -4,-4 -2,-1 -1,0 -3,-1 0,-5 1,-1 1,-1 1,-1 0,-1Z"/>
<path onmouseover="hoverPath(evt)" onmouseout="recoverPath(evt)" fill="rgb(252,252,250)" d="M  227,1l 0,3 1,1 0,3 1,1 0,3 1,1 0,3 1,1 0,3 1,1 0,3 1,1 0,3 1,1 0,3 1,1 0,3 1,1 0,2 1,1 0,3 1,1 0,3 1,1 0,3 1,1 0,2 1,1 0,3 1,1 0,3 1,1 0,4 -1,1 0,1 1,0 1,1 0,2 1,1 0,2 1,1 0,4 1,1 0,4 1,1 0,4 1,1 0,4 1,1 0,4 1,1 0,4 1,1 0,4 1,1 0,4 1,1 0,4 1,0 0,-15 -2,0 -1,-1 0,-5 -1,-1 0,-3 -1,-1 0,-4 -1,-1 0,-4 -1,-1 0,-4 -1,-1 0,-6 -1,-1 0,-4 -1,-1 -1,-1 0,-3 -1,-1 0,-3 -1,-1 0,-3 -1,-1 0,-3 -1,-1 0,-2 -1,-1 0,-3 -1,-1 0,-4 1,-1 0,-1 -1,0 -1,-1 -1,-1 0,-2 -1,-1 0,-4 -1,-1 0,-2 -1,-1 0,-3 -1,-1 0,-3 -1,-1 0,-3 -1,-1 0,-4 -1,-1 0,-3 -1,-1 0,-1 -1,-1 1,-1Z"/>
<path onmouseover="hoverPath(evt)" onmouseout="recoverPath(evt)" fill="rgb(236,233,233)" d="M  231,3l 0,3 1,1 0,4 1,1 0,3 1,1 0,3 1,1 0,3 1,1 0,2 1,1 0,4 1,1 0,2 1,1 1,0 1,1 0,3 -1,1 0,2 1,1 0,3 1,1 0,2 1,1 0,3 1,1 0,3 1,1 0,3 1,1 0,3 1,1 1,1 0,4 1,1 0,6 1,1 0,4 1,1 0,4 1,1 0,4 1,1 0,3 1,1 0,5 1,0 0,-103 -25,0 0,2 1,1Z"/>
</svg>