<svg width="256" height="256" xmlns="http://www.w3.org/2000/svg"><script> 
var tempColor;
function hoverPath(evt){
obj = evt.target;
tempColor = obj.getAttribute("fill");
obj.setAttribute("fill","red");
//alert(tempColor);
//obj.setAttribute("stroke","red");}
function recoverPath(evt){
obj = evt.target;
obj.setAttribute("fill", tempColor);
//obj.setAttribute("stroke", tempColor);
}</script><path onmouseover="hoverPath(evt)" onmouseout="recoverPath(evt)" fill="rgb(244,243,237)" d="M  0,10l 0,43 1,0 0,-1 1,-1 0,-1 1,-1 1,-1 0,-1 1,-1 1,-1 1,-1 0,-1 1,-1 1,-1 0,-1 1,-1 1,-1 1,-1 0,-1 1,-1 1,-1 2,-2 1,0 1,-1 1,0 1,-1 1,0 1,-1 1,0 1,-1 4,0 1,-1 5,0 1,1 1,0 1,1 1,0 1,1 0,1 1,1 1,1 1,1 1,0 1,1 1,1 1,1 1,1 1,1 1,0 1,1 3,0 1,1 1,-1 6,0 1,-1 3,0 1,-1 4,0 1,-1 3,0 1,-1 3,0 1,-1 1,0 1,-1 2,0 1,-1 -2,0 -1,-1 -2,0 -1,-1 -3,0 -1,-1 -4,0 -1,-1 -3,0 -1,-1 -3,0 -1,-1 -1,-1 -5,0 -1,-1 -1,-1 -5,0 -1,-1 -3,0 -1,-1 -2,0 -1,-1 -3,0 -1,-1 -1,-1 -5,0 -1,-1 -2,0 -1,-1 -1,-1 -5,0 -1,-1 -2,0 -1,-1 -1,-1 -2,0 -1,-1 -5,0 -1,-1 -2,0 -1,-1 -1,-1 -1,0 -1,1Z"/>
<path onmouseover="hoverPath(evt)" onmouseout="recoverPath(evt)" fill="rgb(244,243,236)" d="M  0,74l 0,47 2,0 1,1 0,1 1,1 0,1 1,1 1,1 0,1 2,0 1,1 0,2 -1,1 1,1 0,1 2,0 1,1 0,2 -1,1 1,1 0,2 2,0 1,1 0,2 -1,1 1,1 0,1 1,1 0,1 1,1 0,1 1,1 0,2 1,1 0,1 1,1 0,1 10,0 1,-1 9,0 1,-1 9,0 1,-1 9,0 1,-1 1,0 0,-3 -1,-1 0,-2 -1,-1 0,-2 -1,-1 0,-1 -1,-1 0,-1 -1,-1 0,-1 -1,-1 0,-1 -1,-1 0,-1 -1,-1 -1,-1 0,-2 -1,-1 0,-2 -1,-1 0,-4 -1,-1 0,-3 -1,-1 0,-3 -1,-1 0,-4 -1,-1 0,-5 -1,-1 0,-5 -1,-1 0,-3 -1,-1 0,-1 -1,-1 -1,0 -1,-1 -15,0 -1,1 -3,0 -1,-1 -4,0 -1,-1 -2,0 -1,-1 -1,0 -1,-1 -1,-1 -1,-1 -1,-1 -1,-1 -1,-1 0,-1 -1,-1 -1,-1 0,-1 -1,-1 0,-1 -1,-1 0,-1 -1,-1 -1,1Z"/>
<path onmouseover="hoverPath(evt)" onmouseout="recoverPath(evt)" fill="rgb(243,242,236)" d="M  1,174l -1,0 0,81 9,0 0,-3 1,-1 1,0 1,-1 0,-2 1,-1 1,0 0,-1 1,-1 0,-1 1,-1 1,0 0,-1 1,-1 0,-2 1,-1 1,0 0,-1 1,-1 -1,-1 -2,0 -1,-1 -1,-1 -1,0 -1,-1 -1,0 -1,-1 -1,0 -1,-1 0,-6 1,-1 1,0 1,-1 3,-3 1,-1 0,-1 1,-1 0,-1 1,-1 0,-1 1,-1 1,-1 1,0 1,-1 3,0 1,1 1,0 1,1 1,0 1,1 3,0 1,-1 1,-1 1,-1 2,-2 1,-1 0,-1 1,-1 0,-1 1,-1 0,-2 1,-1 0,-2 1,-1 0,-2 1,-1 0,-1 1,-1 1,0 1,-1 1,-1 2,0 1,-1 1,0 1,-1 3,0 1,-1 1,0 1,-1 1,0 2,-2 1,-1 1,0 1,-1 0,-8 -1,-1 0,-5 -7,0 -1,1 -10,0 -1,1 -10,0 -1,1 -9,0 -1,1 -11,0 -1,1 -9,0 -1,1Z"/>
<path onmouseover="hoverPath(evt)" onmouseout="recoverPath(evt)" fill="rgb(244,243,237)" d="M  14,227l 0,0 -1,1 -1,0 0,1 1,0 1,1 1,0 1,1 1,0 1,1 1,1 2,0 1,1 1,1 0,2 -1,1 0,1 -1,1 -1,0 0,2 -1,1 0,1 -1,1 -1,0 0,1 -1,1 0,1 -1,1 -1,0 0,2 -1,1 -1,1 -1,0 0,2 128,0 0,-1 -1,-1 0,0 -1,-1 -1,-1 -1,-1 -1,-1 -1,-1 -1,0 -1,-1 -1,-1 -1,-1 -1,-1 -1,-1 0,-1 -1,-1 -1,-1 0,-1 -1,-1 -1,-1 0,-1 -1,-1 0,-1 -1,-1 0,-1 -1,-1 -1,-1 0,-1 -1,-1 -1,-1 0,-1 -1,-1 0,-1 -1,-1 -1,-1 -1,-1 -1,-1 -1,-1 -1,-1 -5,0 -1,-1 -6,0 -1,-1 -3,0 -1,-1 -1,-1 -1,0 -1,-1 -1,-1 -1,-1 -1,-1 -1,-1 0,-1 -1,-1 -1,-1 -1,-1 -1,-1 -1,-1 -1,-1 -1,-1 -1,-1 -1,-1 -1,-1 -1,-1 -1,-1 -1,-1 -1,-1 -1,-1 -1,-1 0,-1 -1,-1 -1,-1 -3,0 -1,1 -1,0 -1,1 -1,0 -1,1 -1,0 -1,1 -3,0 -1,1 -1,1 -1,0 -1,1 -1,1 0,3 -1,1 0,3 -1,1 0,1 -1,1 0,1 -1,1 0,1 -1,1 -2,2 -1,1 -4,4 -2,0 -1,1 -4,0 -2,-2 -1,0 -1,-1 -2,0 -1,1 0,1 -1,1 -1,1 0,1 -1,1 0,1 -1,1 -1,1 -1,0 -1,1 -1,1Z"/>
<path onmouseover="hoverPath(evt)" onmouseout="recoverPath(evt)" fill="rgb(171,198,238)" d="M  64,186l 0,0 -1,1 -1,1 1,0 1,-1 5,0 1,1 1,1 1,1 0,1 1,1 1,1 1,1 1,1 1,1 1,1 1,1 1,1 1,1 1,1 1,1 1,1 1,1 1,1 1,1 1,1 0,1 1,1 1,1 1,1 1,1 1,0 1,1 1,1 3,0 1,1 6,0 1,1 5,0 1,1 1,1 1,1 1,1 1,1 1,1 1,1 0,1 1,1 0,1 1,1 1,1 0,1 1,1 1,1 0,1 1,1 0,1 1,1 0,1 1,1 1,1 0,1 1,1 1,1 0,1 1,1 1,1 1,1 1,1 1,0 1,1 1,1 1,1 1,1 1,1 1,1 1,1 0,2 5,0 0,-1 -1,-1 0,-1 -1,-1 -1,-1 -1,-1 0,-1 -1,-1 -1,-1 -1,-1 0,-1 -1,-1 -1,-1 -1,-1 0,-1 -1,-1 -1,-1 -1,-1 0,-1 -1,-1 -1,-1 -1,-1 0,-1 -1,-1 -1,-1 -1,-1 0,-1 -1,-1 -1,-1 -1,-1 0,-1 -1,-1 -1,-1 -1,-1 0,-1 -1,-1 -1,-1 -2,-2 -1,-1 -1,-1 0,-5 -4,0 -1,1 -11,0 -1,-1 -1,0 -1,-1 -1,-1 -1,0 -1,-1 -1,-1 -1,0 -1,-1 -2,-2 -1,-1 -1,-1 -1,-1 -1,-1 -1,-1 -1,-1 -1,-1 -1,-1 -1,-1 -1,-1 -1,-1 0,-1 -1,-1 -1,-1 0,-1 -1,-1 0,-1 -1,-1 0,-2 -1,-1 0,-3 -1,-1 0,-6 -1,-1 0,-3 -1,-1 -2,0 0,6 1,1 0,10 -1,1 -1,1 -1,0 -1,1 -3,2 -1,1 -1,0 -1,1 -3,0 -1,1 -1,0 -1,1 -2,0 -1,1 -1,1 -1,0 0,1 -1,1 0,2 -1,1 0,2 -1,1 0,2 -1,1 0,1 -1,1 0,1 -1,1 -1,1 -1,1 -1,1 -1,1 -1,1 -1,1 -5,0 1,1 1,1 2,0 1,-1 2,0 1,-1 1,-1 1,-1 1,-1 1,-1 1,-1 1,-1 0,-1 1,-1 0,-1 1,-1 0,-1 1,-1 0,-3 1,-1 0,-3 1,-1 1,-1 1,-1 1,0 1,-1 -3,1 -1,1 12,-6 3,-2 -35,28 -1,0 -1,-1 -1,0 -1,-1 -1,0 -1,1 -1,0 -1,1 0,1 -1,1 0,1 -1,1 0,1 -1,1 -1,1 -1,1 -1,1 -1,1 -1,1 -1,0 0,1 2,-1 1,0 1,-1 0,0 1,-1 1,0 1,-1 0,-1 1,-1 0,-1 1,-1 1,-1 0,-1 1,-1 1,-1 5,0 35,-28 -35,29 35,-29Z"/>
<path onmouseover="hoverPath(evt)" onmouseout="recoverPath(evt)" fill="rgb(171,198,238)" d="M  119,202l -2,2 -1,1 -1,1 -1,1 3,0 1,-1 0,0 1,-1 1,-1 1,-1 1,0 1,-1 1,-1 1,0 2,-2 1,0 1,-1 1,-1 1,0 1,-1 2,0 1,-1 1,0 1,-1 6,0 1,-1 35,0 1,1 2,0 1,-1 14,0 1,-1 13,0 1,-1 13,0 1,-1 14,0 1,-1 14,0 0,-3 -11,0 -1,1 -14,0 -1,1 -14,0 -1,1 -11,0 -1,1 -9,0 -1,1 -30,0 -1,-1 -15,0 -1,1 -4,0 -1,1 -3,0 -1,1 -1,0 -1,1 -1,0 -1,1 -1,0 -1,1 -1,0 -1,1 -1,1 -1,0 -1,1 -1,0 -1,1 -1,1 -1,0 -1,1Z"/>
<path onmouseover="hoverPath(evt)" onmouseout="recoverPath(evt)" fill="rgb(244,243,237)" d="M  121,206l 0,0 -1,1 -2,2 -1,0 0,4 1,1 0,0 1,1 1,1 1,1 1,1 1,1 0,1 1,1 1,1 1,1 0,1 1,1 1,1 1,1 0,1 1,1 1,1 1,1 0,1 1,1 1,1 1,1 0,1 1,1 1,1 1,1 0,1 1,1 1,1 1,1 0,1 1,1 1,1 1,1 0,1 1,1 1,1 1,1 0,1 1,1 0,2 107,0 0,-64 -13,0 -1,1 -14,0 -1,1 -13,0 -1,1 -13,0 -1,1 -14,0 -1,1 -4,0 -1,-1 -33,0 -1,1 -6,0 -1,1 -1,0 -1,1 -2,0 -1,1 -1,0 -1,1 -1,1 -1,0 -1,1 -1,1 -1,0 -1,1 -1,1 -1,0 -1,1Z"/>
<path onmouseover="hoverPath(evt)" onmouseout="recoverPath(evt)" fill="rgb(244,243,235)" d="M  157,102l -1,0 -1,-1 -1,1 -1,0 0,1 1,1 0,1 1,1 2,0 1,1 1,1 0,4 1,1 1,1 0,1 1,1 2,0 1,1 1,1 0,4 1,1 2,0 1,1 1,1 0,4 1,1 1,1 0,1 1,1 1,1 3,0 1,1 0,2 -1,1 0,1 1,1 2,0 1,1 1,1 1,1 2,0 1,-1 11,0 1,-1 10,0 1,-1 10,0 1,-1 10,0 1,-1 9,0 1,-1 9,0 1,-1 3,0 0,-75 -4,0 -1,-1 -4,0 -1,-1 -1,1 -6,0 -1,-1 -2,0 -1,-1 0,-1 -1,0 -1,1 -5,0 -1,-1 0,-1 -1,0 -1,1 0,0 -1,1 -3,0 -1,-1 0,-1 -1,-1 -2,0 0,1 -1,1 -2,0 -1,-1 -7,0 -1,-1 -4,0 -1,-1 0,-1 -1,1 0,0 -1,1 -2,0 -1,-1 -3,0 -1,-1 -5,0 -1,-1 -6,0 -1,-1 -3,0 0,3 1,1 0,1 1,1 0,2 -1,1 0,3 -1,1 -3,0 -1,1 -2,0 0,2 -1,1 -4,0 -1,-1 -2,0 -1,1 -3,0 -1,1 -2,0 -1,1 -3,0 -1,1 -2,0 0,2 -1,1 -3,0 -1,1 -4,0 -1,-1 -2,0 -1,1 -1,0 -1,1 -1,1 0,2 1,1 0,0 1,1 0,1 1,1 2,0 1,1 1,1 0,1 1,1 1,1 0,1 1,1 1,1 0,2 -1,1 1,1 3,0 1,1 1,1 1,1 2,0 0,-2 1,-1 1,0 1,-1 1,0 1,-1 2,0 1,1 0,-2 1,-1 2,0 1,1 1,0 1,-1 0,0 1,-1 1,0 1,-1 1,0 1,-1 1,0 0,-2 1,-1 1,0 1,-1 1,0 1,-1 1,0 1,-1 1,0 1,-1 1,0 1,-1 1,0 1,-1 1,0 1,-1 1,0 1,-1 1,0 1,-1 2,0 1,1 1,-1 2,0 1,1 0,6 -1,1 -2,0 -1,-1 -1,1 -1,0 -1,1 -1,0 -1,1 -1,0 -1,1 -1,0 -1,1 -1,0 -1,1 -1,0 -1,1 -1,0 -1,1 -1,0 -1,1 -1,0 0,2 -1,1 -1,0 -1,1 -1,0 -1,1 -1,0 -1,1 -2,0 -1,-1 -1,1 -1,0 -1,1 -1,0 0,2 -1,1Z"/>
<path onmouseover="hoverPath(evt)" onmouseout="recoverPath(evt)" fill="rgb(248,248,242)" d="M  176,136l -2,0 -1,-1 -1,-1 -1,-1 0,5 1,0 1,1 0,2 1,1 2,0 1,1 0,1 2,0 -1,-1 0,-1 -1,-1 -1,-1 0,-4 -6,-3 1,-1 0,0 -1,-1 0,0 -1,-1 0,-4 -1,-1 -2,0 -1,-1 -1,-1 0,-4 -1,-1 -2,0 -1,-1 -1,-1 0,-1 -1,-1 -1,-1 0,-4 -1,-1 -2,0 -1,-1 -1,-1 0,-1 -1,-1 0,-3 1,-1 1,0 1,-1 2,0 1,1 0,-2 1,-1 1,0 1,-1 1,0 1,-1 2,0 1,1 1,-1 1,0 1,-1 1,0 1,-1 1,0 0,-2 1,-1 1,0 1,-1 1,0 1,-1 1,0 1,-1 1,0 1,-1 1,0 1,-1 1,0 1,-1 1,0 1,-1 1,0 1,-1 1,0 1,-1 2,0 1,1 0,-4 -1,1 -2,0 -1,-1 -1,1 -1,0 -1,1 -1,0 -1,1 -1,0 -1,1 -1,0 -1,1 -1,0 -1,1 -1,0 -1,1 -1,0 -1,1 -1,0 -1,1 -1,0 0,2 -1,1 -1,0 -1,1 -1,0 -1,1 -1,0 -1,1 -1,1 -3,0 -1,-1 0,2 -1,1 -2,0 -1,-1 -1,1 -1,0 -1,1 -1,0 0,2 -1,1 -3,0 0,4 1,1 2,0 1,1 1,1 0,4 1,1 2,0 1,1 1,1 0,1 1,1 1,1 0,4 1,1 2,0 1,1 1,1 0,1 1,1 1,1 0,4 1,1 2,0 1,1 6,3Z"/>
<path onmouseover="hoverPath(evt)" onmouseout="recoverPath(evt)" fill="rgb(182,144,238)" d="M  0,1l 0,6 3,0 1,1 1,1 2,0 1,1 5,0 1,1 2,0 1,1 1,1 2,0 1,1 5,0 1,1 1,1 2,0 1,1 5,0 1,1 1,1 3,0 1,1 2,0 1,1 3,0 1,1 5,0 1,1 1,1 5,0 1,1 1,1 3,0 1,1 3,0 1,1 4,0 1,1 3,0 1,1 2,0 1,1 3,0 1,1 0,1 3,0 0,-1 1,-1 3,0 1,1 2,0 1,1 0,1 2,0 1,1 2,0 1,1 3,0 1,1 5,0 1,1 3,0 1,-1 2,0 1,1 0,1 2,0 1,1 4,0 1,1 4,0 1,1 4,0 1,1 4,0 1,1 5,0 1,1 5,0 1,1 4,0 1,-1 2,0 1,1 0,1 2,0 1,-1 2,0 1,1 0,1 1,1 0,1 1,1 0,-1 1,-1 5,0 1,1 6,0 1,1 5,0 1,1 3,0 1,1 1,-1 1,-1 2,0 1,1 0,1 4,0 1,1 7,0 1,1 0,-1 1,-1 4,0 1,1 1,1 0,1 1,0 1,-1 0,0 1,-1 3,0 1,1 0,1 3,0 1,-1 3,0 1,1 0,1 2,0 1,1 4,0 1,-1 2,0 1,1 4,0 1,1 3,0 0,-12 -9,0 -1,-1 -8,0 -1,1 -3,0 -1,-1 0,-1 -3,0 -1,1 -3,0 -1,-1 0,-1 -3,0 -1,1 -3,0 -1,-1 0,-1 -3,0 -1,1 -4,0 -1,-1 0,-1 -4,0 -1,-1 -5,0 -1,-1 -5,0 -1,-1 -4,0 -1,-1 0,-1 -1,0 -1,1 -5,0 -1,-1 0,-1 -1,-1 0,-2 1,-1 -2,0 -1,1 0,3 -1,1 -3,0 -1,-1 -4,0 -1,-1 -4,0 -1,1 -2,0 -1,-1 0,-1 -3,0 -1,-1 -4,0 -1,-1 -4,0 -1,1 -2,0 -1,-1 0,-1 -2,0 -1,-1 -4,0 -1,1 -2,0 -1,-1 0,-1 -2,0 -1,-1 -4,0 -1,-1 -2,0 -1,-1 -4,0 -1,1 -2,0 -1,-1 0,-1 -1,-1 -6,0 -1,-1 -1,-1 -5,0 -1,-1 -1,0 -1,-1 0,-1 -1,-1 0,-1 -1,-1 -1,-1 -1,-1 0,-1 -1,-1 -1,-1 0,-1 -1,-1 -1,-1 0,-8 -2,0 0,8 1,1 0,1 1,1 1,1 0,1 1,1 1,1 0,3 -1,1 -5,0 -1,-1 -1,-1 -3,0 -1,-1 -3,0 -1,-1 -5,0 -1,-1 -1,-1 -3,0 -1,-1 -5,0 -1,-1 -1,-1 -5,0 -1,-1 -1,-1 -5,0 -1,-1 -1,-1 -4,0 -1,-1 -1,0 -1,-1 -3,0 -1,-1 -2,0 -1,-1 0,-2 -24,0 -1,1Z"/>
<path onmouseover="hoverPath(evt)" onmouseout="recoverPath(evt)" fill="rgb(248,237,138)" d="M  0,165l 0,7 2,0 1,-1 9,0 1,-1 11,0 1,-1 9,0 1,-1 10,0 1,-1 10,0 1,-1 8,0 0,-1 1,-1 4,0 1,1 7,0 1,-1 9,0 1,-1 10,0 1,-1 10,0 1,-1 12,0 1,-1 10,0 1,-1 11,0 1,-1 10,0 1,-1 11,0 1,-1 14,0 1,-1 6,0 1,-1 11,0 1,-1 10,0 1,-1 10,0 1,-1 10,0 1,-1 10,0 1,-1 7,0 0,-11 -2,0 -1,1 -9,0 -1,1 -9,0 -1,1 -10,0 -1,1 -10,0 -1,1 -10,0 -1,1 -11,0 -1,1 -4,0 -1,-1 -1,-1 -1,-1 1,2 0,1 -1,1 -4,0 -1,-1 0,-1 -1,2 -9,0 -1,1 -9,0 -1,1 -10,0 -1,1 -9,0 -1,1 -10,0 -1,1 -9,0 -1,1 -9,0 -1,1 -9,0 -1,1 -9,0 -1,1 -9,0 -1,1 -2,0 -1,1 -5,0 -1,-1 -1,0 -1,1 -9,0 -1,1 -9,0 -1,1 -9,0 -1,1 -10,0 0,1 -1,1 -4,0 -1,-1 -3,0 -1,1 -11,0Z"/>
<path onmouseover="hoverPath(evt)" onmouseout="recoverPath(evt)" fill="rgb(245,244,236)" d="M  10,142l 0,-2 -1,-1 0,-2 1,-1 -2,0 -1,-1 0,-1 -1,-1 0,-2 1,-1 -2,0 -1,-1 0,-1 -1,-1 -1,-1 0,-1 -1,-1 0,-1 -1,0 0,37 10,0 1,-1 5,0 1,1 2,0 -1,-1 0,-1 -1,-1 0,-1 -1,-1 0,-2 -1,-1 0,-1 -1,-1 0,-1 -1,-1 0,-1 -1,-1 0,-2 1,-1 -2,0 -1,-1Z"/>
<path onmouseover="hoverPath(evt)" onmouseout="recoverPath(evt)" fill="rgb(171,197,238)" d="M  16,35l 0,0 -1,1 -1,1 0,1 -1,1 -1,1 -1,1 0,1 -1,1 -1,1 0,1 -1,1 -1,1 -1,1 0,1 -1,1 -1,1 0,1 -1,1 0,1 -1,1 -2,0 0,16 2,0 1,1 1,1 0,1 1,1 0,1 1,1 0,1 1,1 1,1 0,1 1,1 3,3 1,1 1,0 1,1 2,0 1,1 4,0 1,1 1,0 1,-1 17,0 1,1 1,0 1,1 1,1 0,1 1,1 0,3 1,1 0,5 1,1 0,5 1,1 0,4 1,1 0,3 1,1 0,3 1,1 0,4 1,1 0,2 1,1 0,2 1,1 1,1 0,1 1,1 0,1 1,1 0,1 1,1 0,1 1,1 0,1 1,1 0,2 1,1 0,2 1,1 0,4 1,1 3,0 0,-1 -1,-1 0,-3 -1,-1 0,-1 -1,-1 0,-2 -1,-1 0,-1 -1,-1 0,-1 -1,-1 0,-1 -1,-1 0,-1 -1,-1 0,-1 -1,-1 0,-1 -1,-1 0,-2 -1,-1 0,-2 -1,-1 0,-3 -1,-1 0,-3 -1,-1 0,-4 -1,-1 0,-4 -1,-1 0,-5 -1,-1 0,-9 -1,-1 0,-2 -1,-1 0,-1 -1,-1 0,-1 -1,-1 -1,-1 -1,0 -1,-1 -5,0 -1,1 -17,0 -1,-1 -2,0 -1,-1 -1,0 -1,-1 -1,-1 -1,-1 -1,-1 -1,-1 0,-1 -1,-1 -1,-1 0,-1 -1,-1 0,-1 -1,-1 0,-2 -1,-1 0,-9 1,-1 0,-2 1,-1 0,-1 1,-1 1,-1 0,-1 1,-1 1,-1 0,-1 1,-1 1,-1 1,-1 0,-1 1,-1 2,-2 1,-1 3,-3 1,-1 1,-1 2,0 1,-1 5,0 1,1 1,0 1,1 1,1 1,0 1,1 1,1 1,1 1,1 1,1 1,0 1,1 1,1 1,0 1,1 1,1 4,0 1,1 6,0 1,-1 2,0 1,-1 1,0 1,-1 2,0 1,-1 4,0 1,-1 3,0 1,-1 3,0 1,-1 1,0 1,-1 2,0 1,-1 2,0 1,-1 1,0 1,-1 2,0 1,-1 2,0 -3,-1 -1,0 0,1 1,0 -3,1 -5,0 -1,1 -2,0 -1,1 -1,0 -1,1 -3,0 -1,1 -3,0 -1,1 -4,0 -1,1 -3,0 -1,1 -6,0 -1,1 -2,0 -1,-1 -3,0 -1,-1 -1,0 -1,-1 -1,-1 -1,-1 -1,-1 -1,-1 -1,0 -1,-1 -1,-1 -1,-1 -1,-1 0,-1 -1,0 -1,-1 -1,0 -1,-1 -3,0 -1,1 -4,0 -1,1 -1,0 -1,1 -1,0 -1,1 -1,0 -1,1 -1,0 -1,1Z"/>
<path onmouseover="hoverPath(evt)" onmouseout="recoverPath(evt)" fill="rgb(244,243,236)" d="M  24,37l 0,0 -1,1 -1,1 -1,1 -1,1 -1,1 -1,1 -1,1 0,1 -1,1 -1,1 -1,1 0,1 -1,1 -1,1 0,1 -1,1 -1,1 0,1 -1,1 0,2 -1,1 0,7 1,1 0,2 1,1 0,1 1,1 0,1 1,1 1,1 0,1 1,1 1,1 1,1 1,1 1,0 1,1 2,0 1,1 15,0 1,-1 7,0 1,1 1,0 1,1 1,1 1,1 0,1 1,1 0,1 1,1 0,2 1,1 0,9 1,1 0,5 1,1 0,4 1,1 0,4 1,1 0,3 1,1 0,3 1,1 0,2 1,1 0,2 1,1 0,1 1,1 0,1 1,1 0,1 1,1 0,1 1,1 0,1 1,1 0,1 1,1 0,2 1,1 0,1 1,1 0,3 1,1 0,1 1,0 1,-1 9,0 1,-1 9,0 1,-1 9,0 1,-1 9,0 1,-1 9,0 1,-1 10,0 1,-1 9,0 1,-1 10,0 1,-1 9,0 1,-1 9,0 -1,-1 0,0 -1,-1 0,-2 -1,0 -1,-1 0,-4 -1,-1 -2,0 -2,-2 0,-4 -1,-1 -1,-1 0,-1 -1,-1 -2,0 -1,-1 -1,-1 0,-4 -1,-1 -1,-1 0,-1 -1,-1 -2,0 -1,-1 -1,-1 0,-4 -1,-1 -2,0 -1,-1 -1,-1 0,-6 -1,-1 -1,-1 -3,0 -1,-1 -1,-1 0,-2 1,-1 -1,-1 0,0 -1,-1 0,-1 -1,-1 -1,-1 0,-1 -1,-1 -2,0 -1,-1 -1,-1 0,-1 -1,-1 -1,-1 0,-4 1,-1 1,-1 1,-1 1,0 1,-1 4,0 1,1 2,0 1,-1 3,0 0,-2 1,-1 2,0 1,-1 3,0 1,-1 2,0 1,-1 3,0 1,-1 4,0 1,1 2,0 0,-2 1,-1 2,0 1,-1 3,0 0,-2 -1,-1 0,-2 1,-1 -2,0 -1,-1 0,-3 -1,-1 0,-1 -1,-1 0,-1 -1,1 -4,0 -1,-1 -7,0 -1,-1 -5,0 -1,-1 -5,0 -1,-1 -4,0 -1,-1 -4,0 -1,-1 -4,0 -1,-1 -4,0 -1,-1 -2,0 -1,-1 0,-1 -1,1 -5,0 -1,-1 -5,0 -1,-1 -3,0 -1,-1 -2,0 -1,-1 -4,0 -1,1 -2,0 -1,1 -1,0 -1,1 -2,0 -1,1 -2,0 -1,1 -1,0 -1,1 -3,0 -1,1 -3,0 -1,1 -4,0 -1,1 -2,0 -1,1 -1,0 -1,1 -2,0 -1,1 -8,0 -1,-1 -4,0 -2,-2 -1,0 -1,-1 -1,-1 -1,0 -1,-1 -1,-1 -1,-1 -1,-1 -1,-1 -1,0 -1,-1 -1,-1 -1,0 -1,-1 -3,0 -1,1 -2,0 -1,1Z"/>
<path onmouseover="hoverPath(evt)" onmouseout="recoverPath(evt)" fill="rgb(244,243,237)" d="M  28,1l 1,0 1,1 3,0 1,1 1,0 1,1 4,0 1,1 1,1 5,0 1,1 1,1 5,0 1,1 1,1 5,0 1,1 3,0 1,1 1,1 5,0 1,1 3,0 1,1 3,0 1,1 1,1 3,0 0,-1 -1,-1 -1,-1 0,-1 -1,-1 -1,-1 0,-1 -1,-1 0,-9 -51,0 -1,1 -1,-1 1,1Z"/>
<path onmouseover="hoverPath(evt)" onmouseout="recoverPath(evt)" fill="rgb(244,243,237)" d="M  73,167l -1,0 0,2 1,1 0,6 1,1 0,3 1,1 0,2 1,1 0,1 1,1 0,1 1,1 1,1 0,1 1,1 1,1 1,1 1,1 1,1 1,1 1,1 1,1 1,1 1,1 1,1 1,1 1,1 1,0 1,1 1,1 1,0 1,1 1,1 1,0 1,1 9,0 1,-1 2,0 0,-1 1,-1 1,-1 2,-2 1,-1 1,-1 1,-1 1,0 1,-1 1,-1 1,0 1,-1 1,0 1,-1 1,-1 1,0 1,-1 1,0 1,-1 1,0 1,-1 1,0 1,-1 3,0 1,-1 4,0 1,-1 17,0 1,1 28,0 1,-1 9,0 1,-1 11,0 1,-1 14,0 1,-1 14,0 1,-1 12,0 0,-33 -6,0 -1,1 -10,0 -1,1 -10,0 -1,1 -10,0 -1,1 -10,0 -1,1 -11,0 -1,1 -6,0 -1,1 -14,0 -1,1 -11,0 -1,1 -10,0 -1,1 -11,0 -1,1 -10,0 -1,1 -12,0 -1,1 -10,0 -1,1 -10,0 -1,1 -9,0 -1,1Z"/>
<path onmouseover="hoverPath(evt)" onmouseout="recoverPath(evt)" fill="rgb(243,242,236)" d="M  86,1l 0,6 1,1 1,1 0,1 1,1 1,1 0,1 1,1 1,1 1,1 0,1 1,1 0,1 1,0 1,1 5,0 1,1 1,1 6,0 1,1 1,1 0,1 1,-1 6,0 1,1 2,0 1,1 4,0 1,1 2,0 1,1 7,0 1,1 2,0 1,1 0,1 1,-1 6,0 1,1 4,0 1,1 3,0 1,1 7,0 1,1 4,0 1,1 1,0 0,-3 1,-1 1,-1 6,0 1,1 0,2 -1,1 -2,0 1,1 0,1 3,0 1,-1 3,0 1,1 0,1 4,0 1,1 5,0 1,1 5,0 1,1 4,0 1,1 0,1 2,0 1,-1 5,0 1,1 0,1 1,0 1,-1 5,0 1,1 0,1 1,0 1,-1 5,0 1,1 0,1 1,0 1,-1 10,0 1,1 8,0 0,-45 -168,0 -1,1Z"/>
</svg>