<svg width="256" height="256" xmlns="http://www.w3.org/2000/svg"><script> 
var tempColor;
function hoverPath(evt){
obj = evt.target;
tempColor = obj.getAttribute("fill");
obj.setAttribute("fill","red");
//alert(tempColor);
//obj.setAttribute("stroke","red");}
function recoverPath(evt){
obj = evt.target;
obj.setAttribute("fill", tempColor);
//obj.setAttribute("stroke", tempColor);
}</script><path onmouseover="hoverPath(evt)" onmouseout="recoverPath(evt)" fill="rgb(243,242,235)" d="M  0,1l 0,69 6,0 1,-1 7,0 1,-1 8,0 1,-1 7,0 1,-1 8,0 1,-1 7,0 1,-1 6,0 1,-1 5,0 1,1 0,3 1,0 1,1 0,2 1,0 1,-1 4,0 0,-6 1,-1 1,0 1,-1 8,0 0,-1 -1,-1 0,-10 1,-1 0,-1 -1,-1 0,-1 -3,0 -1,1 0,5 -1,1 -1,1 -4,0 -1,-1 -1,-1 -1,-1 0,3 -1,1 -3,0 -1,-1 0,-1 -1,-1 0,-1 -1,-1 0,-2 -1,-1 0,-2 -1,-1 0,-3 -1,-1 0,-4 -1,-1 0,-5 -1,-1 0,-5 -1,-1 0,-6 -1,-1 0,-5 -1,-1 0,-5 -1,-1 0,-3 -50,0 -1,1Z"/>
<path onmouseover="hoverPath(evt)" onmouseout="recoverPath(evt)" fill="rgb(170,198,237)" d="M  0,73l 0,3 7,0 1,-1 9,0 1,-1 8,0 1,-1 9,0 1,-1 10,0 1,-1 7,0 1,-1 6,0 0,-1 -1,0 -1,-1 0,-3 -3,0 -1,1 -6,0 -1,1 -7,0 -1,1 -8,0 -1,1 -7,0 -1,1 -8,0 -1,1 -7,0 -1,1 -6,0 -1,1Z"/>
<path onmouseover="hoverPath(evt)" onmouseout="recoverPath(evt)" fill="rgb(254,254,254)" d="M  1,217l 39,0 1,1 27,0 1,1 1,0 1,1 1,1 0,11 -1,1 0,12 -1,1 0,9 1,0 0,-9 1,-1 0,-11 1,-1 0,-10 1,-1 0,-2 1,-1 0,-2 1,-1 1,-1 0,-1 1,-1 0,-1 1,-1 0,-1 1,-1 0,-1 1,-1 0,-1 1,-1 0,-1 1,-1 0,-1 1,-1 0,-2 1,-1 0,-3 -1,-1 0,-7 -1,-1 0,-7 -1,-1 0,-7 -1,-1 0,-7 -1,-1 0,-7 -1,-1 0,-7 -1,-1 0,-10 -1,-1 0,-10 -1,-1 0,-9 -1,-1 0,-8 -1,-1 0,-8 -1,-1 0,-7 -1,-1 0,-6 -1,-1 0,-5 -1,0 0,5 1,1 0,7 1,1 0,6 1,1 0,9 1,1 0,8 1,1 0,8 1,1 0,10 1,1 0,10 1,1 0,7 1,1 0,7 1,1 0,7 1,1 0,7 1,1 0,7 1,1 0,7 1,1 0,3 -1,1 0,1 -1,1 0,1 -1,1 0,1 -1,1 0,1 -1,1 0,1 -1,1 0,1 -1,1 0,1 -1,1 0,1 -1,1 0,1 -1,1 -1,1 -2,0 -1,-1 -25,0 -1,-1 -42,0 -1,1 -1,-1Z"/>
<path onmouseover="hoverPath(evt)" onmouseout="recoverPath(evt)" fill="rgb(243,242,234)" d="M  0,222l 0,33 68,0 0,-10 1,-1 0,-12 1,-1 0,-9 -1,-1 -1,0 -1,-1 -27,0 -1,-1 -39,0Z"/>
<path onmouseover="hoverPath(evt)" onmouseout="recoverPath(evt)" fill="rgb(243,242,234)" d="M  0,117l 0,97 45,0 1,1 25,0 1,1 1,-1 0,-1 1,-1 0,-1 1,-1 0,-1 1,-1 0,-1 1,-1 0,-1 1,-1 0,-1 1,-1 0,-1 1,-1 0,-1 1,-1 0,-1 1,-1 0,-1 -1,-1 0,-7 -1,-1 0,-7 -1,-1 0,-7 -1,-1 0,-7 -1,-1 0,-7 -1,-1 0,-7 -1,-1 0,-10 -1,-1 0,-10 -1,-1 0,-8 -1,-1 0,-8 -1,-1 0,-9 -1,-1 0,-6 -1,-1 0,-7 -1,-1 0,-4 -2,0 -1,-1 0,-5 -8,0 -1,1 -7,0 -1,1 -10,0 -1,1 -9,0 -1,1 -8,0 -1,1 -9,0 -1,1 -8,0Z"/>
<path onmouseover="hoverPath(evt)" onmouseout="recoverPath(evt)" fill="rgb(254,254,254)" d="M  54,1l 0,-1 -1,0 0,2 1,1 0,5 1,1 0,5 1,1 0,6 1,1 0,5 1,1 0,5 1,1 0,4 1,1 0,3 1,1 0,2 1,1 0,2 1,1 0,1 1,1 0,1 1,0 0,-2 -1,-1 0,-1 -1,-1 0,-2 -1,-1 0,-1 -1,-1 0,-4 -1,-1 0,-4 -1,-1 0,-5 -1,-1 0,-5 -1,-1 0,-5 -1,-1 0,-5 -1,-1 0,-5 -1,-1Z"/>
<path onmouseover="hoverPath(evt)" onmouseout="recoverPath(evt)" fill="rgb(171,198,237)" d="M  73,64l -1,0 0,5 4,0 1,-1 7,0 1,-1 8,0 1,-1 9,0 1,-1 9,0 1,-1 8,0 1,-1 9,0 1,-1 8,0 1,-1 9,0 1,-1 9,0 1,-1 9,0 1,1 0,12 1,1 0,1 1,1 0,1 1,1 1,1 0,1 1,1 1,1 1,1 1,1 1,1 1,0 1,1 1,1 1,1 1,0 1,1 1,1 1,1 0,4 -1,1 -1,1 -1,1 -1,1 0,2 1,1 0,2 1,1 0,1 1,0 1,1 0,2 1,1 0,1 1,1 0,1 1,1 0,1 1,1 1,0 0,-1 -1,-1 0,-1 -1,-1 0,-1 -1,0 1,2 1,2 -3,-6 0,-1 -1,-2 -1,-1 0,-1 -1,-1 0,-3 1,-1 0,-1 2,-2 5,0 2,2 1,1 1,1 1,1 2,2 1,1 1,1 1,1 1,1 1,1 1,1 0,1 1,1 1,1 1,1 1,1 0,1 1,1 1,1 0,1 1,1 1,1 0,1 1,1 1,1 1,1 1,1 0,1 1,1 1,1 0,1 1,1 0,1 1,1 0,22 1,1 0,1 1,1 0,1 1,1 1,1 0,1 1,1 1,1 1,1 1,1 1,1 1,1 1,1 1,1 1,1 0,1 1,1 1,1 1,1 1,1 1,1 0,1 1,1 0,1 1,1 0,1 1,1 0,2 1,1 0,3 1,1 0,4 1,1 0,17 -1,1 0,7 1,1 0,1 1,1 0,2 1,1 0,1 1,1 0,1 1,1 0,1 1,1 0,2 1,1 0,2 1,1 0,-13 -2,0 -1,-1 0,-2 -1,-1 0,-14 1,-1 0,-3 -1,-1 0,-10 -1,-1 0,-4 -1,-1 0,-2 -1,-1 0,-2 -1,-1 0,-1 -1,-1 0,-1 -1,-1 -1,-1 -1,-1 -1,-1 -1,-1 -1,-1 -1,-1 0,-1 -1,-1 -1,-1 -1,-1 -1,-1 -1,-1 -1,-1 0,-1 -1,-1 -1,-1 -1,-1 0,-1 -1,-1 -1,-1 0,-2 -1,-1 0,-13 1,-1 0,-4 -1,-1 0,-2 -1,-1 -1,-1 0,-1 -1,-1 -1,-1 -1,-1 0,-1 -1,-1 -1,-1 0,-1 -1,-1 -1,-1 -1,-1 -1,-1 0,-1 -1,-1 -1,-1 -1,-1 0,-1 -1,-1 -1,-1 -1,-1 0,-1 -1,-1 -1,-1 -1,-1 -1,-1 0,-1 -1,-1 -1,-1 -1,-1 -1,-1 -1,-1 -1,-1 -1,-1 -1,-1 -1,-1 -1,-1 -1,-1 -1,-1 -1,-1 -1,-1 -1,0 -1,-1 -1,-1 -1,-1 -1,-1 -1,0 -1,-1 -1,-1 -1,-1 -1,-1 -1,-1 -1,-1 0,-1 -1,-1 -1,-1 0,-1 -1,-1 0,-4 -1,-1 0,-21 1,-1 0,-3 1,-1 0,-4 1,-1 0,-3 1,-1 0,-2 1,-1 0,-1 1,-1 0,-1 1,-1 0,-2 1,-1 0,-1 1,-1 0,-9 -1,-1 0,-4 -1,-1 0,-6 -4,0 0,4 1,1 0,3 1,1 0,12 -1,1 0,1 -1,1 0,1 -1,1 0,2 -1,1 0,2 -1,1 0,2 -1,1 0,2 -1,1 0,3 -1,1 0,6 -1,1 0,2 -1,1 -1,0 -1,1 -7,0 -1,1 -8,0 -1,1 -8,0 -1,1 -7,0 -1,1 -8,0 -1,1 -7,0 -1,1 -8,0 -1,1 -7,0 -1,1 -8,0 -1,1 -6,0 -1,1 -11,0 -1,1Z"/>
<path onmouseover="hoverPath(evt)" onmouseout="recoverPath(evt)" fill="rgb(244,243,236)" d="M  75,71l -8,0 0,5 1,0 0,-1 1,-1 3,0 1,1 0,5 1,1 0,6 1,1 0,7 1,1 0,8 1,1 0,8 1,1 0,9 1,1 0,10 1,1 0,10 1,1 0,7 1,1 0,7 1,1 0,7 1,1 0,7 1,1 0,7 1,1 0,7 1,1 0,5 -1,1 0,2 -1,1 0,1 -1,1 0,1 -1,1 0,1 -1,1 0,1 -1,1 0,1 -1,1 0,1 -1,1 0,1 -1,1 -1,1 0,2 -1,1 0,2 -1,1 0,10 -1,1 0,11 -1,1 0,8 45,0 0,-6 -1,-1 0,-3 1,-1 1,-1 0,-6 -1,-1 0,-9 1,-1 0,-3 1,-1 0,-3 1,-1 0,-2 1,-1 0,-1 1,-1 1,-1 1,-1 5,0 1,-1 2,0 0,-4 -1,-1 0,-3 1,-1 0,-1 1,-1 0,-1 3,-3 1,-1 1,-1 1,-1 1,0 1,-1 10,0 1,1 2,0 1,1 3,0 1,-1 0,-1 1,-1 0,-3 1,-1 0,-3 1,-1 0,-1 1,-1 0,-1 1,-1 1,-1 0,-1 1,-1 1,-1 1,-1 1,0 1,-1 1,0 1,-1 1,0 1,-1 1,-1 1,-1 0,-1 1,-1 0,-1 -1,-1 0,-1 -1,-1 0,-1 -1,0 -1,-1 -1,-1 0,-2 -1,0 -1,-1 0,-9 1,-1 1,-1 1,-1 1,-1 1,-1 1,0 1,-1 2,0 1,-1 1,0 0,-1 -1,-1 0,-1 -1,-1 0,-1 -3,-3 -1,-1 -1,-1 -1,-1 0,-6 1,-1 1,-1 1,-1 1,-1 9,0 1,1 1,0 1,1 1,0 1,1 1,0 1,1 2,0 0,-1 -1,-1 0,0 -1,-1 0,-2 1,-1 -3,0 -1,-1 -1,-1 0,-1 -1,-1 0,-1 -1,-1 0,-1 -1,-1 0,-2 -1,0 -1,-1 0,-1 -1,-1 0,-2 -1,-1 0,-4 3,-3 1,-1 0,-2 -1,-1 0,0 -1,-1 -1,0 -1,-1 -1,-1 -1,-1 -1,0 -1,-1 -1,-1 -1,-1 -1,-1 -1,-1 -1,-1 0,-1 -1,-1 -1,-1 0,-1 -1,-1 0,-1 -1,-1 0,-12 -7,0 -1,1 -9,0 -1,1 -9,0 -1,1 -8,0 -1,1 -9,0 -1,1 -8,0 -1,1 -9,0 -1,1 -9,0 -1,1 -8,0 -1,1 -7,0 -1,1Z"/>
<path onmouseover="hoverPath(evt)" onmouseout="recoverPath(evt)" fill="rgb(242,241,234)" d="M  92,59l 8,0 1,-1 7,0 1,-1 8,0 1,-1 7,0 1,-1 8,0 1,-1 7,0 1,-1 8,0 1,-1 8,0 1,-1 7,0 1,-1 1,0 0,-2 1,-1 0,-6 1,-1 0,-3 1,-1 0,-2 1,-1 0,-2 1,-1 0,-2 1,-1 0,-2 1,-1 0,-1 1,-1 0,-1 1,-1 0,-10 -1,-1 0,-3 -1,-1 0,-5 -121,0 0,1 1,1 0,5 1,1 0,5 1,1 0,5 1,1 0,5 1,1 0,5 1,1 0,4 1,1 0,4 1,1 0,1 1,1 0,2 1,1 0,1 2,0 1,1 1,1 1,1 2,0 1,-1 0,-5 1,-1 1,-1 5,0 1,1 0,1 1,1 0,3 -1,1 0,8 1,1 0,2 1,0 1,-1 6,0 1,-1Z"/>
<path onmouseover="hoverPath(evt)" onmouseout="recoverPath(evt)" fill="rgb(244,243,237)" d="M  128,217l -1,1 0,3 -1,1 0,3 -1,1 0,3 -1,1 0,2 1,1 0,5 1,1 0,3 -1,1 0,1 -1,1 0,1 -1,1 -1,1 -1,1 -1,0 0,6 135,0 0,-16 -1,0 -1,-1 0,-1 -1,-1 0,-2 -1,-1 0,-2 -1,-1 0,-1 -1,-1 0,-1 -1,-1 0,-1 -1,-1 0,-2 -1,-1 0,-1 -1,-1 0,-9 1,-1 0,-15 -1,-1 0,-4 -1,-1 0,-3 -1,-1 0,-2 -1,-1 0,-1 -1,-1 0,-1 -1,-1 0,-1 -1,-1 -1,-1 -1,-1 -1,-1 -1,-1 0,-1 -1,-1 -1,-1 -1,-1 -1,-1 -1,-1 -1,-1 -1,-1 -1,-1 -1,-1 0,-1 -1,-1 -1,-1 0,-1 -1,-1 0,-1 -1,-1 0,-22 -1,-1 0,-1 -1,-1 0,-1 -1,-1 -1,-1 0,-1 -1,-1 -1,-1 -1,-1 -1,-1 0,-1 -1,-1 -1,-1 0,-1 -1,-1 -1,-1 0,-1 -1,-1 -1,-1 -1,-1 -1,-1 0,-1 -1,-1 -1,-1 -1,-1 -1,-1 -1,-1 -1,-1 -1,-1 -1,-1 -1,-1 -1,-1 -1,-1 -1,-1 -3,0 -1,1 0,1 -1,1 0,1 1,1 0,1 1,1 0,1 1,1 0,2 1,0 1,1 0,1 1,1 0,1 1,1 0,2 1,1 1,0 1,1 1,1 1,0 1,1 0,1 1,1 0,4 -1,1 -1,1 -1,1 -8,0 -1,-1 -2,0 -1,-1 -2,0 -1,-1 -1,0 -1,-1 -1,0 -1,1 -1,0 0,1 1,1 0,0 1,1 1,1 1,1 1,1 1,1 1,1 0,1 1,1 0,1 1,1 0,6 -1,1 -1,1 -1,1 -2,0 -1,1 -2,0 -1,1 -1,0 -1,1 -1,1 0,1 -1,1 0,1 1,1 0,1 1,1 1,0 1,1 1,1 1,1 1,1 0,1 1,1 0,7 -1,1 0,1 -1,1 -1,1 -1,1 -1,0 -1,1 -1,1 -1,0 -1,1 -1,0 -3,3 0,1 -1,1 -1,1 0,1 -1,1 0,1 -1,1 0,3 -1,1 0,5 -1,1 -1,1 -1,1 -9,0 -1,-1 -2,0 -1,-1 -1,0 -1,-1 -3,0 -1,1 -1,0 -1,1 -1,1 -1,1 -1,1 0,5 1,1 0,6 -1,1 -1,1 -1,0 -1,1 -7,0 -1,1Z"/>
<path onmouseover="hoverPath(evt)" onmouseout="recoverPath(evt)" fill="rgb(170,198,238)" d="M  175,157l 0,1 1,1 1,0 1,1 0,1 1,1 0,1 1,1 0,3 -1,1 0,1 -1,1 -1,1 -1,1 -1,1 -1,0 -1,1 -1,0 -1,1 -1,0 -1,1 -1,1 0,1 -1,1 -1,1 0,1 -1,1 0,1 -1,1 0,3 -1,1 0,3 -1,1 0,1 -1,1 -1,1 -5,0 -1,-1 -2,0 -1,-1 -8,0 -1,1 -1,0 -1,1 -1,1 -1,1 -1,1 -1,1 0,1 -1,1 0,1 -1,1 0,1 1,1 0,6 -1,1 -2,0 -1,1 -5,0 -1,1 -1,1 0,1 -1,1 0,2 -1,1 0,3 -1,1 0,3 -1,1 0,7 1,1 0,8 -1,1 -1,1 0,1 1,0 1,-1 0,0 1,-1 0,-1 1,-1 0,-1 1,-1 0,-1 -1,-1 0,-5 -1,-1 0,-4 1,-1 0,-3 1,-1 0,-3 1,-1 0,-3 1,-1 1,-1 1,-1 7,0 1,-1 1,0 1,-1 0,-4 -1,-1 0,-7 1,-1 1,-1 1,-1 1,-1 1,-1 1,0 1,-1 5,0 1,1 1,0 1,1 2,0 1,1 7,0 1,-1 1,-1 0,-5 1,-1 0,-3 1,-1 0,-1 1,-1 0,-1 1,-1 1,-1 0,-1 1,-1 1,-1 1,-1 1,-1 1,0 1,-1 1,0 1,-1 1,-1 1,0 1,-1 1,-1 0,-1 1,-1 0,-5 -1,-1 0,-1 -3,-3 -1,0 -1,-1 -1,0 -1,-2 1,0 -1,-1 0,-3 1,-1 0,-1 1,-1 1,-1 1,-1 1,0 1,-1 2,0 1,-1 2,0 1,-1 1,-1 0,-4 -1,-1 0,-1 -1,-1 0,-1 -1,-1 -1,-1 -1,-1 -1,-1 -1,-1 -1,-1 -1,-1 0,-3 1,-1 1,0 1,-1 3,0 1,1 1,0 1,1 2,0 1,1 2,0 1,1 6,0 1,-1 1,-1 0,-2 -1,-1 0,-1 -1,0 -1,-1 -1,-1 -1,1 0,0 1,1 0,0 1,1 0,3 -1,1 -4,0 -1,-1 -1,0 -1,-1 -1,0 -1,-1 -1,0 -1,-1 -7,0 -1,1 -1,1 -1,1 0,4 1,1 0,0 1,1 1,1 1,1 1,1 1,1 0,1 1,1 0,1 1,1 0,3 -1,1 -1,0 -1,1 -2,0 -1,1 -1,0 -3,3 -1,1 0,6 1,1 1,2Z"/>
<path onmouseover="hoverPath(evt)" onmouseout="recoverPath(evt)" fill="rgb(244,243,237)" d="M  185,1l 0,4 1,1 0,4 1,1 0,11 -1,1 0,1 -1,1 0,2 -1,1 0,1 -1,1 0,1 -1,1 0,2 -1,1 0,3 -1,1 0,4 -1,1 0,3 -1,1 0,19 1,1 0,4 1,1 0,1 1,1 1,1 0,1 1,1 1,1 1,1 1,1 1,1 1,0 1,1 1,1 1,1 1,1 1,0 1,1 1,1 1,1 1,1 1,1 1,1 1,1 1,1 1,1 1,1 1,1 1,1 1,1 1,1 1,1 0,1 1,1 1,1 1,1 1,1 0,1 1,1 1,1 1,1 0,1 1,1 1,1 1,1 0,1 1,1 1,1 1,1 1,1 0,1 1,1 1,1 0,1 1,1 1,1 1,1 0,1 1,1 1,1 0,2 1,1 0,6 -1,1 0,11 1,1 0,2 1,1 1,1 0,1 1,1 1,1 1,1 0,1 1,1 1,1 1,1 1,1 1,1 1,1 0,1 1,1 1,1 1,1 1,1 1,1 1,1 1,1 0,1 1,1 0,1 1,1 0,2 1,1 0,2 1,1 0,4 1,1 0,10 1,1 0,5 -1,1 0,12 1,1 0,2 1,0 0,-221 -69,0 -1,1Z"/>
</svg>