<svg width="256" height="256" xmlns="http://www.w3.org/2000/svg"><script> 
var tempColor;
function hoverPath(evt){
obj = evt.target;
tempColor = obj.getAttribute("fill");
obj.setAttribute("fill","red");
//alert(tempColor);
//obj.setAttribute("stroke","red");}
function recoverPath(evt){
obj = evt.target;
obj.setAttribute("fill", tempColor);
//obj.setAttribute("stroke", tempColor);
}</script><path onmouseover="hoverPath(evt)" onmouseout="recoverPath(evt)" fill="rgb(243,242,233)" d="M  0,160l 0,45 6,0 1,-1 5,0 1,-1 6,0 1,-1 6,0 1,-1 4,0 0,-1 1,-1 1,0 0,-3 1,-1 0,-4 1,-1 0,-5 1,-1 0,-4 1,-1 0,-4 1,-1 0,-4 1,-1 0,-4 1,-1 0,-3 -1,-1 -15,0 -1,-1 -18,0 -1,-1 -4,0Z"/>
<path onmouseover="hoverPath(evt)" onmouseout="recoverPath(evt)" fill="rgb(244,243,235)" d="M  50,143l 0,0 -1,-1 -1,0 0,1 -1,1 0,3 -1,1 -2,0 0,6 -1,1 0,2 -1,1 -16,0 -1,-1 0,1 -1,-1 -18,0 35,2 1,1 0,5 -1,1 0,4 -1,1 0,4 -1,1 0,4 -1,1 0,4 -1,1 0,5 -1,1 0,3 1,1 0,3 1,0 1,1 4,0 1,-1 22,0 1,-1 10,0 0,-9 1,-1 0,-6 1,-1 0,-5 1,-1 0,-4 1,-1 0,-5 1,-1 0,-11 -1,-1 -1,0 -1,-1 -2,0 -1,-1 -2,0 -1,-1 -3,0 -1,-1 -2,0 -1,-1 -3,0 -1,-1 -2,0 -1,-1 -3,0 -1,-1 -2,0 -1,-1Z"/>
<path onmouseover="hoverPath(evt)" onmouseout="recoverPath(evt)" fill="rgb(254,254,254)" d="M  189,112l 0,1 3,0 1,-1 15,0 1,-1 15,0 1,-1 7,0 1,-1 6,0 1,-1 7,0 1,-1 7,0 0,-1 -8,0 -1,1 -6,0 -1,1 -7,0 -1,1 -6,0 -1,1 -16,0 -1,1 -17,0 -1,1Z"/>
<path onmouseover="hoverPath(evt)" onmouseout="recoverPath(evt)" fill="rgb(254,254,254)" d="M  203,28l 0,1 2,0 1,-1 21,0 1,-1 27,0 0,-2 -3,0 -1,1 -25,0 -1,1 -21,0 -1,1Z"/>
<path onmouseover="hoverPath(evt)" onmouseout="recoverPath(evt)" fill="rgb(244,242,235)" d="M  0,1l 0,23 5,0 1,-1 9,0 1,-1 12,0 1,-1 13,0 1,-1 9,0 1,-1 9,0 1,-1 9,0 1,-1 8,0 0,-17 -80,0 -1,1Z"/>
<path onmouseover="hoverPath(evt)" onmouseout="recoverPath(evt)" fill="rgb(243,242,234)" d="M  0,133l 0,23 4,0 1,-1 21,0 1,1 14,0 0,-2 1,-1 0,-6 1,-1 2,0 0,-2 -1,-1 0,-4 -3,0 -1,-1 -5,0 -1,-1 -1,0 -1,1 -2,0 -1,-1 -4,0 -1,-1 -2,0 -1,-1 -2,0 -1,-1 -4,0 -1,-1 -7,0 -1,-1 -4,0 -1,1Z"/>
<path onmouseover="hoverPath(evt)" onmouseout="recoverPath(evt)" fill="rgb(243,242,234)" d="M  0,213l 0,42 22,0 0,-5 1,-1 0,-4 1,-1 0,-4 1,-1 0,-4 1,-1 0,-4 1,-1 0,-4 1,-1 2,0 0,-4 1,-1 0,-4 1,-1 0,-3 -1,-1 0,-3 -1,-1 -1,0 -1,1 -5,0 -1,1 -6,0 -1,1 -6,0 -1,1 -5,0 -1,1 -2,0Z"/>
<path onmouseover="hoverPath(evt)" onmouseout="recoverPath(evt)" fill="rgb(171,198,237)" d="M  78,205l 0,0 -1,1 0,11 -1,1 0,13 -1,1 0,12 -1,1 0,10 2,0 0,-3 1,-1 0,-10 1,-1 0,-9 1,-1 0,-10 1,-1 0,-9 1,-1 0,-6 -3,0Z"/>
<path onmouseover="hoverPath(evt)" onmouseout="recoverPath(evt)" fill="rgb(171,198,238)" d="M  84,25l 0,3 -1,1 0,64 1,1 0,2 2,0 0,-45 -1,-1 0,-24 -1,-1 1,-1 0,-1 -1,0Z"/>
<path onmouseover="hoverPath(evt)" onmouseout="recoverPath(evt)" fill="rgb(244,243,235)" d="M  83,205l 0,5 -1,1 0,9 -1,1 0,10 -1,1 0,9 -1,1 0,10 -1,1 0,2 58,0 0,-5 1,-1 0,-3 1,-1 0,-3 1,-1 0,-3 1,-1 0,-2 1,-1 0,-3 1,-1 0,-2 1,-1 0,-3 1,-1 0,-2 1,-1 0,-2 1,-1 0,-3 1,-1 0,-2 1,-1 0,-2 1,-1 0,-2 1,-1 0,-3 1,-1 0,-2 1,-1 -10,0 -1,1 -10,0 -1,1 -10,0 -1,1 -10,0 -1,1 -12,0 -1,1 -10,0 -1,1 -1,0Z"/>
<path onmouseover="hoverPath(evt)" onmouseout="recoverPath(evt)" fill="rgb(243,242,234)" d="M  87,1l 0,16 4,0 1,1 8,0 1,1 11,0 1,1 12,0 1,1 9,0 1,1 18,0 1,1 10,0 1,1 10,0 1,1 13,0 1,1 1,0 1,-1 0,-25 -105,0 -1,1Z"/>
<path onmouseover="hoverPath(evt)" onmouseout="recoverPath(evt)" fill="rgb(244,243,235)" d="M  87,25l 0,24 1,1 0,47 5,0 1,1 7,0 1,1 7,0 1,1 6,0 1,1 7,0 1,1 6,0 1,1 7,0 1,1 6,0 1,1 6,0 1,1 6,0 1,1 6,0 1,1 5,0 1,-1 5,0 0,-1 1,-1 0,-3 1,-1 0,-2 1,-1 0,-3 1,-1 0,-2 1,-1 0,-3 1,-1 0,-3 1,-1 0,-3 1,-1 0,-4 1,-1 0,-4 1,-1 0,-5 1,-1 0,-5 1,-1 0,-8 1,-1 0,-16 1,-1 -5,0 -1,-1 -13,0 -1,-1 -10,0 -1,-1 -10,0 -1,-1 -18,0 -1,-1 -9,0 -1,-1 -12,0 -1,-1 -11,0 -1,-1 -10,0Z"/>
<path onmouseover="hoverPath(evt)" onmouseout="recoverPath(evt)" fill="rgb(243,242,233)" d="M  89,105l 0,17 1,1 0,16 4,0 1,1 13,0 1,1 14,0 1,1 16,0 1,1 23,0 1,1 4,0 0,-4 1,-1 0,-2 1,-1 0,-3 1,-1 0,-2 1,-1 0,-2 1,-1 0,-3 1,-1 0,-2 1,-1 0,-3 1,-1 0,-1 -4,0 -1,-1 -6,0 -1,-1 -6,0 -1,-1 -6,0 -1,-1 -6,0 -1,-1 -7,0 -1,-1 -6,0 -1,-1 -7,0 -1,-1 -6,0 -1,-1 -7,0 -1,-1 -6,0 -1,-1 -7,0 -1,-1 -3,0 1,1Z"/>
<path onmouseover="hoverPath(evt)" onmouseout="recoverPath(evt)" fill="rgb(243,242,233)" d="M  124,148l 0,0 -1,1 0,9 -1,1 0,10 -1,1 0,10 -1,1 0,9 -1,1 0,1 1,1 0,1 7,0 1,-1 10,0 1,-1 11,0 1,-1 3,0 0,-3 1,-1 0,-2 1,-1 0,-2 1,-1 0,-2 1,-1 0,-3 1,-1 0,-2 1,-1 0,-2 1,-1 0,-2 1,-1 0,-3 1,-1 0,-2 1,-1 0,-3 1,-1 0,-2 1,-1 0,-2 -4,0 -1,-1 -25,0 -1,-1 -10,0 -1,1Z"/>
<path onmouseover="hoverPath(evt)" onmouseout="recoverPath(evt)" fill="rgb(244,243,236)" d="M  188,117l 0,4 -1,1 0,3 -1,1 0,2 -1,1 0,2 -1,1 0,2 -1,1 0,2 -1,1 0,2 -1,1 0,2 -1,1 0,2 -1,1 0,2 -1,1 0,2 -1,1 0,3 -1,1 0,2 -1,1 0,3 -1,1 0,3 -1,1 0,2 -1,1 0,2 -1,1 0,2 -1,1 0,2 -1,1 0,3 -1,1 0,2 -1,1 0,1 4,0 1,-1 11,0 1,-1 10,0 1,-1 10,0 1,-1 11,0 1,-1 10,0 1,-1 11,0 1,-1 10,0 1,-1 3,0 0,-71 -6,0 -1,1 -7,0 -1,1 -6,0 -1,1 -7,0 -1,1 -15,0 -1,1 -15,0 -1,1 -5,0 -1,1 1,1Z"/>
<path onmouseover="hoverPath(evt)" onmouseout="recoverPath(evt)" fill="rgb(246,235,137)" d="M  197,0l -2,0 0,25 1,1 0,6 -1,1 -1,0 0,16 -1,1 0,8 -1,1 0,5 -1,1 0,5 -1,1 0,4 -1,1 0,4 -1,1 0,3 -1,1 0,3 -1,1 0,3 -1,1 0,2 -1,1 0,3 -1,1 0,2 -1,1 0,3 -1,1 0,1 -1,1 -5,0 6,1 0,3 -1,1 -1,0 0,2 -1,1 0,3 -1,1 0,2 -1,1 0,3 -1,1 0,2 -1,1 0,2 -1,1 0,3 -1,1 0,2 -1,1 0,6 -1,1 -1,1 -1,0 0,3 -1,1 0,2 -1,1 0,3 -1,1 0,2 -1,1 0,3 -1,1 0,2 -1,1 0,2 -1,1 0,2 -1,1 0,3 -1,1 0,2 -1,1 0,2 -1,1 0,2 -1,1 0,6 -1,1 -1,1 0,1 -1,1 0,2 -1,1 0,3 -1,1 0,2 -1,1 0,2 -1,1 0,2 -1,1 0,3 -1,1 0,2 -1,1 0,2 -1,1 0,3 -1,1 0,2 -1,1 0,3 -1,1 0,2 -1,1 0,3 -1,1 0,3 -1,1 0,3 -1,1 0,4 8,0 0,-5 1,-1 0,-3 1,-1 0,-3 1,-1 0,-2 1,-1 0,-3 1,-1 0,-2 1,-1 0,-3 1,-1 0,-2 1,-1 0,-3 1,-1 0,-2 1,-1 0,-2 1,-1 0,-2 1,-1 0,-3 1,-1 0,-2 1,-1 0,-2 1,-1 0,-2 1,-1 0,-1 1,-1 7,0 1,-1 11,0 1,-1 10,0 1,-1 11,0 1,-1 10,0 1,-1 10,0 1,-1 11,0 1,-1 9,0 1,-1 5,0 0,-6 -2,0 -1,1 -10,0 -1,1 -11,0 -1,1 -10,0 -1,1 -11,0 -1,1 -10,0 -1,1 -10,0 -1,1 -11,0 -1,1 -6,0 -1,-1 0,-3 1,-1 0,-2 1,-1 0,-3 1,-1 0,-2 1,-1 0,-2 1,-1 0,-2 1,-1 0,-2 1,-1 0,-3 1,-1 0,-3 1,-1 0,-2 1,-1 0,-3 1,-1 0,-2 1,-1 0,-2 1,-1 0,-2 1,-1 0,-2 1,-1 0,-2 1,-1 0,-2 1,-1 0,-2 1,-1 0,-2 1,-1 0,-2 1,-1 0,-3 1,-1 0,-2 -1,-1 0,-2 1,-1 1,-1 0,-3 1,-1 1,0 0,-1 1,-1 0,-4 1,-1 0,-2 1,-1 0,-3 1,-1 0,-3 1,-1 0,-3 1,-1 0,-3 1,-1 0,-3 1,-1 0,-4 1,-1 0,-4 1,-1 0,-4 1,-1 0,-8 1,-1 0,-8 1,-1 0,-12 -1,-1 0,-10 1,-1 1,0 0,-22Z"/>
<path onmouseover="hoverPath(evt)" onmouseout="recoverPath(evt)" fill="rgb(244,243,235)" d="M  204,33l 0,14 -1,1 0,8 -1,1 0,8 -1,1 0,4 -1,1 0,4 -1,1 0,4 -1,1 0,3 -1,1 0,3 -1,1 0,3 -1,1 0,3 -1,1 0,3 -1,1 0,2 -1,1 0,4 -1,1 15,0 1,-1 16,0 1,-1 6,0 1,-1 7,0 1,-1 6,0 1,-1 9,0 0,-75 -26,0 -1,1 -21,0 -1,1 -3,0 0,1 1,1Z"/>
<path onmouseover="hoverPath(evt)" onmouseout="recoverPath(evt)" fill="rgb(243,242,234)" d="M  205,1l 0,22 -1,1 -1,0 0,1 21,0 1,-1 25,0 1,-1 4,0 0,-23 -49,0 -1,1Z"/>
<path onmouseover="hoverPath(evt)" onmouseout="recoverPath(evt)" fill="rgb(244,243,235)" d="M  0,30l 0,53 3,0 1,1 4,0 1,1 3,0 1,1 5,0 1,1 3,0 1,1 4,0 1,1 4,0 1,1 4,0 1,1 8,0 1,1 8,0 1,1 7,0 1,1 7,0 1,1 6,0 1,1 3,0 0,-1 -1,-1 0,-66 1,-1 0,-5 -19,0 -1,-1 -8,0 -1,1 -9,0 -1,1 -13,0 -1,1 -12,0 -1,1 -9,0 -1,1 -6,0Z"/>
<path onmouseover="hoverPath(evt)" onmouseout="recoverPath(evt)" fill="rgb(254,254,254)" d="M  1,86l 1,0 1,1 3,0 1,1 4,0 1,1 4,0 1,1 4,0 1,1 4,0 1,1 3,0 1,1 3,0 1,1 0,1 1,1 0,1 1,-2 0,0 1,-1 6,0 1,1 9,0 1,1 7,0 1,1 6,0 1,1 7,0 1,1 5,0 1,1 8,0 1,1 7,0 1,1 6,0 1,1 7,0 1,1 6,0 1,1 7,0 1,1 6,0 1,1 7,0 1,1 6,0 1,1 6,0 1,1 6,0 1,1 6,0 1,1 5,0 0,-1 -5,0 -1,-1 -6,0 -1,-1 -6,0 -1,-1 -6,0 -1,-1 -6,0 -1,-1 -6,0 -1,-1 -7,0 -1,-1 -6,0 -1,-1 -7,0 -1,-1 -6,0 -1,-1 -7,0 -1,-1 -7,0 -1,-1 -5,0 -1,-1 -8,0 -1,-1 -6,0 -1,-1 -7,0 -1,-1 -7,0 -1,-1 -8,0 -1,-1 -8,0 -1,-1 -4,0 -1,-1 -4,0 -1,-1 -4,0 -1,-1 -3,0 -1,-1 -5,0 -1,-1 -3,0 -1,-1 -4,0 -1,-1 -1,1 -1,-1Z"/>
<path onmouseover="hoverPath(evt)" onmouseout="recoverPath(evt)" fill="rgb(243,242,232)" d="M  38,98l 0,0 -1,1 -2,0 0,6 -1,1 0,5 1,1 0,9 -1,1 0,2 1,1 0,2 2,0 1,1 0,4 3,0 1,1 2,0 1,1 1,1 0,7 1,-2 0,-2 1,-1 4,0 1,1 1,1 2,0 1,1 3,0 1,-1 -3,0 -1,-1 -1,0 -1,-1 -1,0 -1,-1 -1,0 -1,-1 -1,0 0,1 3,1 0,0 4,2 -10,-2 0,0 -1,-3 0,-1 -1,-1 -1,0 -1,-1 0,-2 1,-1 5,0 1,1 1,0 1,1 1,0 1,1 1,0 1,1 1,0 1,1 2,0 1,1 3,0 1,1 3,0 1,1 3,0 1,1 4,0 1,1 6,0 -1,-1 0,-19 -1,-1 0,-16 -5,0 -1,-1 -7,0 -1,-1 -6,0 -1,-1 -7,0 -1,-1 -9,0 -1,-1 -4,0 -1,1Z"/>
<path onmouseover="hoverPath(evt)" onmouseout="recoverPath(evt)" fill="rgb(243,242,234)" d="M  0,91l 0,36 9,0 1,1 9,0 1,1 3,0 1,1 1,0 1,1 1,0 1,1 8,0 0,-3 -2,0 -1,-1 0,-2 -1,-1 0,-4 1,-1 0,-7 -1,-1 0,-7 1,-1 0,-6 1,-1 -1,-1 0,-1 -3,0 -1,-1 -3,0 -1,-1 -4,0 -1,-1 -4,0 -1,-1 -4,0 -1,-1 -4,0 -1,-1 -3,0 -1,-1 -1,0Z"/>
<path onmouseover="hoverPath(evt)" onmouseout="recoverPath(evt)" fill="rgb(171,198,238)" d="M  14,131l 0,0 1,1 4,0 1,1 2,0 1,1 2,0 1,1 4,0 1,1 1,-1 3,0 1,1 5,0 1,1 2,0 0,-1 -1,-1 -2,0 -1,-1 -13,0 -1,-1 -1,0 -1,-1 -1,0 -1,-1 -3,0 -1,-1 -3,0 -1,1 -1,-1 -4,0 -1,-1 -8,0 0,1 6,0 1,1 5,0 1,-1 1,1Z"/>
<path onmouseover="hoverPath(evt)" onmouseout="recoverPath(evt)" fill="rgb(253,253,253)" d="M  35,200l 0,0 -1,1 -1,0 0,1 -1,1 -4,0 -1,1 -6,0 -1,1 -6,0 -1,1 -5,0 -1,1 -7,0 0,2 1,0 1,-1 5,0 1,-1 6,0 1,-1 6,0 1,-1 5,0 1,-1 3,0 1,1 1,1 1,0 0,-1 1,-1 1,0 1,-1 8,0 1,-1 24,0 1,-1 12,0 1,-1 10,0 1,-1 12,0 1,-1 10,0 1,-1 10,0 1,-1 10,0 1,-1 12,0 1,-1 0,-1 -2,0 -1,1 -11,0 -1,1 -10,0 -1,1 -9,0 -1,-1 0,-1 -1,-1 0,2 -1,1 -1,0 -1,1 -7,0 -1,1 -12,0 -1,1 -14,0 -1,1 -10,0 -1,1 -22,0 -1,1 -6,0 -1,-1 -1,0 -1,-1 -2,7 2,-7Z"/>
<path onmouseover="hoverPath(evt)" onmouseout="recoverPath(evt)" fill="rgb(244,243,235)" d="M  37,206l -1,0 0,1 -1,1 0,2 -1,1 0,4 -1,1 0,4 -1,1 0,4 -1,1 -2,0 0,4 -1,1 0,4 -1,1 0,4 -1,1 0,4 -1,1 0,4 -1,1 0,4 48,0 0,-11 1,-1 0,-12 1,-1 0,-13 1,-1 0,-11 1,-1 0,-1 -4,0 -1,1 -24,0 -1,1 -8,0 -1,1Z"/>
<path onmouseover="hoverPath(evt)" onmouseout="recoverPath(evt)" fill="rgb(254,254,254)" d="M  47,131l 0,0 1,1 0,3 1,-2 3,0 1,1 1,0 1,1 1,0 1,1 1,0 1,1 3,0 1,1 3,0 1,1 3,0 1,1 3,0 1,1 7,0 1,1 4,0 1,1 1,-1 3,0 1,1 12,0 1,1 12,0 1,1 1,0 1,1 0,11 1,-10 0,-1 1,-1 13,0 1,1 25,0 1,1 5,0 1,-1 -5,0 -1,-1 -23,0 -1,-1 -16,0 -1,-1 -14,0 -1,-1 -13,0 -1,-1 -4,0 -1,-1 -11,0 -1,-1 -4,0 -1,-1 -3,0 -1,-1 -3,0 -1,-1 -3,0 -1,-1 -2,0 -1,-1 -1,0 -1,-1 -1,0 -1,-1 -1,0 -1,-1 -1,0 -1,-1 -1,1 -1,-1Z"/>
<path onmouseover="hoverPath(evt)" onmouseout="recoverPath(evt)" fill="rgb(179,202,234)" d="M  74,147l 0,0 1,1 2,0 1,1 2,0 1,1 1,0 1,1 1,1 0,13 -1,1 0,5 -1,1 0,4 -1,1 0,5 -1,1 0,6 -1,1 0,7 3,0 0,-7 1,-1 0,-7 1,-1 0,-4 1,-1 0,-3 1,-1 0,-4 1,-1 0,-7 1,-1 0,-14 -1,0 -1,-1 -4,0 -1,-1 -7,0 -1,-1 -3,0 -1,-1 -3,0 -1,-1 -2,0 -1,1 0,0 -1,1 -5,0 -1,-1 -2,0 -1,-1 -1,-1 -2,0 0,1 1,0 1,1 1,0 -1,-1 3,2 1,0 2,1 3,0 1,1 2,0 1,1 3,0 1,1 2,0 1,1Z"/>
<path onmouseover="hoverPath(evt)" onmouseout="recoverPath(evt)" fill="rgb(240,244,251)" d="M  83,18l -1,1 -8,0 -1,1 10,0 1,1 14,0 1,1 11,0 1,1 12,0 1,1 9,0 1,1 18,0 1,1 10,0 1,1 10,0 1,1 13,0 1,1 5,0 0,-2 -1,1 -3,0 -1,-1 -13,0 -1,-1 -10,0 -1,-1 -10,0 -1,-1 -18,0 -1,-1 -9,0 -1,-1 -12,0 -1,-1 -11,0 -1,-1 -8,0 -1,-1 -4,0 -1,-1 0,-18 -2,0Z"/>
<path onmouseover="hoverPath(evt)" onmouseout="recoverPath(evt)" fill="rgb(171,198,237)" d="M  84,103l 0,13 1,1 0,19 1,1 0,1 2,0 0,-14 -1,-1 0,-19 -1,-1 0,-1 -1,0 -1,1Z"/>
<path onmouseover="hoverPath(evt)" onmouseout="recoverPath(evt)" fill="rgb(243,242,234)" d="M  90,147l 0,13 -1,1 0,7 -1,1 0,4 -1,1 0,3 -1,1 0,4 -1,1 0,7 -1,1 0,6 8,0 1,-1 12,0 1,-1 7,0 1,-1 1,0 0,-4 1,-1 2,0 0,-9 1,-1 0,-10 1,-1 0,-9 -1,-1 0,-11 -1,0 -1,-1 -12,0 -1,-1 -12,0 -1,-1 -1,0Z"/>
<path onmouseover="hoverPath(evt)" onmouseout="recoverPath(evt)" fill="rgb(245,244,237)" d="M  164,199l -1,1 0,2 -1,1 0,2 -1,1 0,2 -1,1 0,3 -1,1 0,2 -1,1 0,2 -1,1 0,2 -1,1 0,3 -1,1 0,2 -1,1 0,3 -1,1 0,2 -1,1 0,3 -1,1 0,2 -1,1 0,3 -1,1 0,3 -1,1 0,4 107,0 0,-65 -4,0 -1,1 -9,0 -1,1 -11,0 -1,1 -10,0 -1,1 -10,0 -1,1 -11,0 -1,1 -10,0 -1,1 -11,0 -1,1 -6,0 -1,1Z"/>
</svg>