<svg width="256" height="256" xmlns="http://www.w3.org/2000/svg"><script> 
var tempColor;
function hoverPath(evt){
obj = evt.target;
tempColor = obj.getAttribute("fill");
obj.setAttribute("fill","red");
//alert(tempColor);
//obj.setAttribute("stroke","red");}
function recoverPath(evt){
obj = evt.target;
obj.setAttribute("fill", tempColor);
//obj.setAttribute("stroke", tempColor);
}</script><path onmouseover="hoverPath(evt)" onmouseout="recoverPath(evt)" fill="rgb(244,243,237)" d="M  4,198l 0,0 -1,1 -1,1 -2,0 0,55 70,0 0,-1 -1,-1 0,0 -1,-1 -1,-1 -1,-1 -1,-1 0,-2 -1,0 -1,-1 -1,-1 0,-1 -1,-1 -1,-1 -1,-1 0,-1 -2,0 -1,-1 -1,0 -1,-1 -1,-1 -1,-1 -1,-1 0,-1 -1,-1 0,-1 -1,-1 -1,-1 -1,-1 -1,-1 -2,-2 0,-2 1,-1 0,-1 -1,-1 0,0 -1,-1 -1,-1 -1,0 -1,-1 -1,-1 -1,-1 -1,-1 -1,-1 -1,0 -1,-1 -1,1 -2,0 -1,-1 -1,0 -1,-1 -1,-1 -1,-1 -1,-1 -1,-1 -1,0 -1,-1 -1,-1 -1,0 -1,-1 -1,-1 0,-1 -2,0 -1,-1 0,-1 -1,0 -1,-1 -1,-1 -1,-1 0,-1 -1,0 -1,-1 -2,0 -1,1 -1,0 -1,1Z"/>
<path onmouseover="hoverPath(evt)" onmouseout="recoverPath(evt)" fill="rgb(240,239,234)" d="M  32,30l 0,0 -1,1 0,1 1,1 0,1 1,1 1,1 1,1 1,1 1,1 1,1 0,1 1,0 1,1 1,1 1,1 1,0 1,1 0,1 1,0 1,1 1,0 1,1 0,1 1,0 1,1 1,1 0,2 1,1 1,1 1,0 1,1 2,0 1,1 0,1 1,1 0,1 1,1 0,2 1,1 0,1 1,1 0,1 1,1 1,1 0,1 2,0 1,1 1,1 0,1 1,1 1,0 1,-1 1,0 0,-2 1,-1 0,-11 1,-1 9,0 1,-1 0,-1 1,-1 1,0 1,-1 0,-1 1,-1 1,-1 1,-1 1,-1 1,-1 0,-1 2,-2 0,-1 -1,-1 0,-4 -1,-1 0,-1 -1,-1 0,-3 -1,0 -1,-1 0,-3 1,-1 2,0 0,-1 1,-1 0,-1 1,-1 1,-1 1,0 0,-3 1,-1 2,0 0,-2 -1,0 -1,-1 -1,-1 -1,-1 0,-1 -1,0 -1,-1 0,-1 -1,-1 -1,-1 -1,-1 -1,-1 -1,-1 0,-1 -1,-1 -1,-1 -1,-1 0,-2 -23,0 0,1 -1,1 -1,1 -1,0 -1,1 -1,1 -1,0 -1,1 -1,1 -1,1 -1,1 -1,1 -1,1 -1,1 -1,1 -1,1 -1,1 -1,0 -1,1 -1,1 -1,1 -1,1 0,1 -1,1 0,1 -1,1 -1,1 0,1 -1,1 -1,1 -1,1 -1,0 -2,2Z"/>
<path onmouseover="hoverPath(evt)" onmouseout="recoverPath(evt)" fill="rgb(244,243,237)" d="M  97,250l 0,0 -1,1 -2,2 -1,0 -1,1 0,1 52,0 0,-1 1,-1 1,-1 1,-1 1,-1 1,-1 1,-1 1,-1 0,-1 2,-2 1,-1 4,-4 1,-1 1,-1 1,-1 1,0 1,-1 1,-1 1,0 1,-1 1,-1 1,0 0,-1 1,-1 1,0 1,-1 1,-1 1,0 0,-1 1,-1 1,0 2,-2 1,-1 1,0 0,-1 2,-2 1,-1 1,-1 1,0 1,-1 1,-1 1,-1 1,-1 1,-1 0,-1 1,-1 1,-1 1,0 0,-2 -1,-1 0,0 -1,-1 -1,-1 -1,-1 -1,-1 -1,0 -1,-1 -1,0 -1,-1 0,-1 -1,0 -1,-1 -1,-1 -1,-1 -1,-1 -1,0 -1,-1 -1,-1 -1,-1 -1,-1 -1,-1 -1,-1 -1,-1 -1,-1 -1,-1 -1,-1 -1,0 0,2 -1,1 -1,1 -1,1 -1,0 -1,1 -1,1 -1,1 -1,1 -1,1 -1,0 -1,1 -1,1 0,1 -2,2 -1,1 -1,0 -1,1 -1,1 -1,1 -1,0 -1,1 -1,1 -2,2 -1,1 -1,1 -1,1 -1,1 -1,1 -1,1 -1,1 -1,1 -1,1 -1,0 -1,1 -1,1 -1,1 -1,0 -1,1 -1,0 0,2 -1,1 -1,1 -2,2 -1,0 -1,1 -1,1 -1,0 -1,1 -1,1 -2,0 0,1 -1,1 -1,1 -1,1 -1,1 -1,1 -1,1 0,1 -1,1 -1,1 -1,1 -1,0 0,1 -1,1 -1,1 -1,1 -1,1 -1,0 -1,1 -1,1Z"/>
<path onmouseover="hoverPath(evt)" onmouseout="recoverPath(evt)" fill="rgb(244,243,236)" d="M  104,105l -2,2 -1,1 2,0 1,1 1,1 1,1 1,1 1,1 0,1 1,0 1,1 0,2 1,0 1,1 1,1 1,1 1,1 1,1 1,1 1,1 1,1 1,1 1,1 1,1 0,1 1,1 1,1 1,1 1,1 1,1 1,1 1,1 0,2 1,0 1,1 1,1 1,0 1,1 0,1 1,1 1,1 1,1 1,1 1,1 1,1 1,1 1,1 1,1 6,0 1,-1 2,0 1,-1 1,-1 1,0 1,-1 1,0 1,-1 1,0 1,-1 1,-1 1,0 1,-1 1,0 1,-1 1,0 1,-1 1,0 1,-1 1,-1 1,0 1,-1 1,0 1,-1 1,0 1,-1 1,0 1,-1 1,0 1,-1 1,0 1,-1 1,0 1,-1 1,0 1,-1 1,0 1,-1 1,0 1,-1 1,0 1,-1 1,-1 1,0 1,-1 3,-3 1,-1 1,0 1,-1 1,-1 1,0 1,-1 1,-1 1,0 1,-1 1,-1 1,0 1,-1 2,0 1,-1 1,0 1,-1 2,0 1,-1 2,0 1,-1 1,-1 1,0 1,-1 1,0 1,-1 1,0 1,-1 1,0 1,-1 2,-2 1,0 1,-1 1,0 1,-1 1,0 1,-1 1,0 1,-1 1,0 1,-1 1,0 1,-1 1,0 1,-1 1,0 1,-1 1,0 1,-1 1,-1 1,0 1,-1 2,0 0,-48 -2,0 -2,-2 -1,0 -1,-1 0,-1 -2,0 -1,1 -2,0 -1,1 -2,0 -1,1 -2,0 -1,1 -4,0 -1,-1 -1,0 -1,1 -2,0 -1,1 -2,0 -1,1 -2,0 -1,1 -2,0 -1,1 -3,0 -1,1 -2,0 -1,1 -2,0 0,2 -1,1 -1,0 -1,1 -3,0 -1,1 -1,0 -1,1 -4,0 -1,-1 -1,0 0,2 -1,1 -4,0 -1,-1 -1,0 0,2 -1,1 -2,0 -1,1 -1,0 -1,1 -3,0 -1,1 -3,0 -1,1 -2,0 -1,1 -1,0 -1,1 -1,1 -1,0 -1,1 -1,0 -1,1 -1,0 -1,1 -1,0 -1,1 -1,0 -1,1 -1,0 -1,1 -1,0 -1,1 -1,0 -1,1 -1,0 -1,1 -1,0 -1,1 -1,0 -1,1 -1,0 -1,1 -1,0 -1,1 -1,1 -2,0 -1,-1 -1,1 0,2 -1,1 -1,0 -1,1 -1,1 -1,1 -1,0 -1,1 -2,0 -1,-1 -1,1 0,0 -1,1 -1,0 -1,1 0,2 -1,1 -2,0 -1,-1 -1,1 0,2 -1,1 -1,1 -1,1 -1,0 -1,1 -1,0 -1,1 -1,0 -1,1 -1,1 -1,0 -2,2Z"/>
<path onmouseover="hoverPath(evt)" onmouseout="recoverPath(evt)" fill="rgb(170,198,238)" d="M  202,216l 0,0 1,1 1,1 1,1 1,1 1,0 1,1 0,1 1,1 1,1 0,1 1,1 1,1 1,1 1,1 1,1 0,1 1,1 1,1 1,1 1,1 1,1 1,1 1,1 1,0 1,1 1,1 1,1 1,0 0,-1 -1,-1 0,0 -1,-1 -1,0 -1,-1 0,-1 -1,-1 -1,-1 -1,-1 -1,-1 -1,-1 0,-1 -1,-1 -1,-1 -1,-1 -1,-1 -1,-1 -1,-1 -1,-1 -1,-1 -1,0 1,1 -8,-7 6,4 -1,-1 -1,-1 -1,-1 -1,-1 -1,-1 0,-1 -1,-1 -1,-1 -1,-1 -2,0 -1,-1 0,-1 -1,-1 -1,-1 -1,-1 -1,-1 -1,-1 -1,-1 -1,-1 -1,-1 -1,-1 -1,0 -1,-1 -1,0 0,1 1,0 1,1 1,0 1,1 1,1 1,1 1,1 1,1 1,1 0,3 1,1 2,0 11,9 -6,-4Z"/>
<path onmouseover="hoverPath(evt)" onmouseout="recoverPath(evt)" fill="rgb(244,242,234)" d="M  220,161l 0,0 -1,1 0,3 -1,1 0,1 1,1 0,1 1,1 1,1 1,1 1,1 1,1 1,1 1,1 1,1 1,0 1,1 0,1 1,1 1,1 1,1 1,1 1,1 0,1 1,1 4,4 1,1 4,4 1,1 1,1 1,1 1,1 1,0 1,1 0,1 1,1 1,1 3,0 0,-67 -1,0 -1,1 -1,0 -1,1 -1,1 -1,1 -2,0 -1,1 -1,1 0,2 -1,1 -1,1 -1,0 -1,1 -2,0 -1,-1 -1,1 -1,0 0,1 -1,1 -4,4 -1,1 -1,1 -1,0 -2,2 -1,1 -1,0 -1,1 -1,1 -1,0 -1,1Z"/>
<path onmouseover="hoverPath(evt)" onmouseout="recoverPath(evt)" fill="rgb(244,243,237)" d="M  0,1l 0,64 2,0 0,-1 1,-1 1,-1 1,-1 1,-1 1,-1 1,-1 0,-1 1,-1 1,-1 1,-1 1,-1 1,-1 0,-1 3,-3 1,-1 0,-1 1,-1 1,0 0,-1 1,-1 0,-2 -1,-1 0,0 -1,-1 0,-7 1,-1 1,-1 1,0 1,-1 1,-1 1,-1 1,-1 1,-1 1,-1 1,-1 1,-1 1,-1 1,-1 1,-1 1,-1 1,-1 1,-1 1,-1 1,0 1,-1 0,-1 1,-1 1,-1 1,-1 1,-1 1,0 1,-1 1,-1 1,-1 1,-1 1,-1 1,-1 1,-1 0,-2 -49,0 -1,1Z"/>
<path onmouseover="hoverPath(evt)" onmouseout="recoverPath(evt)" fill="rgb(242,241,235)" d="M  0,117l 0,81 1,0 1,-1 0,0 1,-1 1,-1 1,0 1,-1 4,0 1,1 0,-1 -2,-2 -1,0 -1,-1 0,-2 1,-1 0,-1 1,-1 1,0 1,-1 3,-3 1,-1 2,0 0,-1 1,-1 1,-1 2,-2 1,-1 1,0 1,-1 1,0 0,-1 1,-1 1,-1 1,-1 1,-1 1,0 0,-1 1,-1 2,0 0,-1 1,-1 1,-1 1,-1 1,-1 1,-1 1,0 0,-1 1,-1 1,0 1,-1 1,-1 3,-3 1,-1 1,0 0,-1 1,-1 1,0 1,-1 1,-1 1,-1 3,-3 1,0 1,-1 1,0 0,-1 1,-1 2,-2 1,-1 1,-1 1,-1 1,0 1,-1 1,0 0,-1 1,-1 1,-1 1,-1 1,-1 1,-1 1,0 0,-1 1,-1 2,0 0,-1 1,-1 1,-1 1,-1 1,-1 1,-1 1,-1 1,-1 1,-1 1,0 0,-1 1,-1 2,0 0,-1 1,-1 1,-1 1,-1 1,-1 1,-1 1,-1 1,-1 2,0 1,-1 0,-1 3,-3 1,-1 1,-1 -5,4 -1,0 -1,-1 -1,0 -1,-1 -1,-1 -1,-1 -1,-1 -1,-1 -1,-1 -1,-1 -1,-1 -1,-1 -1,-1 0,-1 -1,-1 0,-1 -1,-1 0,-1 -1,0 -1,-1 0,-1 -1,-1 0,-1 -1,-1 -1,-1 0,-1 -1,-1 0,-1 -1,0 -1,-1 0,-1 -1,-1 0,-1 -1,-1 0,-1 -2,0 -1,1 -3,0 -1,-1 -1,-1 0,-1 -1,-1 -2,0 -1,-1 0,-1 -1,-1 -1,-1 0,-1 -1,-1 0,-1 -1,-1 0,-2 -1,-1 0,-1 -1,-1 0,-1 -2,0 -1,-1 -1,0 -1,-1 -1,-1 -1,-1 0,-2 -1,-1 -1,0 -1,-1 0,-1 -1,0 -1,-1 -1,0 -1,-1 0,-1 -1,0 -1,-1 -1,-1 -1,-1 -4,0 -1,-1 -1,-1 -1,-1 -1,-1 -1,-1 -1,-1 -1,-1 -1,-1 -2,0 0,1 -1,1 1,1 0,2 1,1 0,4 -1,1 0,2 -1,1 0,1 -1,1 -3,3 -1,1 -1,1 0,1 -1,1 0,1 -1,1 0,1 -1,1 -1,1 -1,1 -1,0 -1,1 -1,1 -1,0 -1,1 -1,0 -1,1 -2,0 -1,-1 -2,0Z"/>
<path onmouseover="hoverPath(evt)" onmouseout="recoverPath(evt)" fill="rgb(242,242,236)" d="M  15,184l 0,0 -1,1 -1,1 -1,1 -1,1 -1,0 0,1 -1,1 1,0 1,1 0,0 1,1 1,1 0,4 1,1 1,1 1,0 1,1 0,1 2,0 1,1 0,1 1,1 1,0 1,1 1,1 1,0 1,1 1,1 1,1 1,1 1,1 1,0 1,1 1,-1 2,0 1,1 1,0 1,1 1,1 1,1 1,1 1,1 1,0 1,1 1,1 1,1 1,1 0,3 -1,1 1,1 1,1 1,1 1,1 1,1 1,1 0,1 1,1 0,1 1,1 1,1 1,1 1,0 1,1 2,0 1,1 0,1 1,1 1,1 1,1 0,1 1,1 1,0 1,1 0,2 1,1 1,1 1,1 1,1 1,1 0,2 18,0 0,-2 1,-1 1,-1 1,0 1,-1 4,-4 1,0 1,-1 1,-1 1,-1 0,-1 1,-1 1,0 1,-1 1,-1 0,-1 1,-1 4,-4 1,-1 0,-1 1,-1 2,0 1,-1 1,-1 1,0 1,-1 1,-1 1,0 1,-1 1,-1 1,-1 0,-5 1,-1 1,-1 1,-1 1,-1 1,-1 1,0 1,-1 1,-1 1,-1 0,-1 1,-1 1,-1 1,-1 1,-1 1,-1 1,-1 1,0 1,-1 1,-1 1,-1 1,0 1,-1 1,-1 4,-4 1,-1 1,-1 1,-1 1,0 1,-1 1,-1 4,-4 1,-1 1,-1 0,-2 -1,-1 0,0 -1,-1 -1,-1 -1,-1 -1,-1 0,-1 -1,-1 -1,-1 -1,-1 -1,-1 0,-1 -1,-1 -1,-1 -1,-1 -1,-1 -1,-1 -1,-1 -1,-1 -1,-1 -1,-1 -1,-1 -1,-1 -1,-1 0,-1 -1,-1 -1,-1 -1,-1 -1,-1 -1,-1 -1,-1 -1,0 -1,-1 -1,-1 -1,-1 -1,-1 0,-1 -1,-1 -1,-1 -1,-1 0,-1 -1,-1 0,-2 1,-1 0,-1 -3,-3 -1,-1 -1,-1 -1,-1 -1,-1 0,-1 -1,-1 -1,-1 -1,-1 -1,-1 -1,-1 -1,-1 -1,-1 -1,-1 -1,-1 -1,-1 -1,0 -1,-1 0,-2 -1,0 -1,-1 0,-1 -1,-1 -1,-1 -1,-1 -1,-1 -2,0 -1,1 -2,0 -2,2 -1,1 -2,2 -1,1 0,1 -1,1 -2,0 0,1 -1,1 -1,0 -1,1 -1,1 -4,4 -1,1 0,1 -1,1 -2,0 0,1 -1,1 -1,0 -1,1 -2,2 -1,1 0,1 -1,1 -1,0 -1,1 -1,0 -4,4 -1,1 0,1 -1,1 -1,0 -1,1 -1,0 -1,1 -1,1 -1,1 -1,1 -1,1 -1,1 -1,0 0,1 -1,1 -1,0 -1,1 -1,1 -1,1 -1,1 -1,1 -1,1 -1,0 0,1 -1,1 -1,0 -1,1 -1,1 -1,1 -1,1 0,1 -1,1 -2,0 0,1 -1,1 -1,0 -1,1 -1,1 -1,1 0,1 -1,1 -1,0 -1,1 -1,0 -1,1 -1,1 -1,1 -1,1 0,1 -1,1 -2,0 -1,1Z"/>
<path onmouseover="hoverPath(evt)" onmouseout="recoverPath(evt)" fill="rgb(171,198,238)" d="M  22,45l 0,0 1,-1 0,-2 -1,-1 0,-2 -1,-1 0,-2 1,-1 0,-1 1,-1 4,0 1,1 1,1 1,1 1,1 1,1 1,1 1,1 1,1 1,0 -1,-1 0,0 -1,-1 -1,-1 -1,-1 -1,-1 -1,-1 0,-1 -1,-1 0,-3 2,-2 1,-1 1,-1 1,0 1,-1 1,-1 0,-1 1,-1 1,-1 0,-1 1,-1 0,-1 1,-1 2,-2 1,-1 1,-1 1,0 2,-2 1,-1 1,-1 1,-1 1,-1 1,-1 1,-1 1,-1 1,-1 1,0 1,-1 1,-1 1,0 1,-1 -8,0 0,3 -1,1 -1,1 -2,2 -1,1 -1,1 -1,1 -1,1 -1,0 -1,1 -1,1 -1,1 0,1 -1,1 -1,1 -1,0 -2,2 -1,1 -9,9 -1,1 -1,1 -1,1 -1,0 -1,1 0,5 1,1 0,0 1,6 0,-1 -1,1 0,1 -1,1 -1,0 0,1 -1,1 -1,1 -1,1 -1,1 0,1 -3,3 -1,1 -1,1 0,1 -2,2 -1,1 -1,1 -1,1 -1,1 0,1 1,-1 1,0 1,-1 1,0 1,-1 1,-1 1,0 1,-1 1,-1 0,-1 1,-1 0,-1 1,-1 0,-1 1,-1 1,-1 1,-1 1,-1 1,-1 1,-1 0,-1 1,-1 0,-1 -1,1 1,-5Z"/>
<path onmouseover="hoverPath(evt)" onmouseout="recoverPath(evt)" fill="rgb(243,242,234)" d="M  75,67l 0,4 -1,1 0,1 1,0 1,1 0,1 1,1 0,1 1,1 0,1 1,0 1,1 0,1 1,1 0,1 1,1 1,1 0,1 1,1 0,1 1,0 1,1 0,1 1,1 0,1 1,1 0,1 1,1 1,1 1,1 1,1 1,1 1,1 1,1 1,1 1,1 1,0 1,1 1,-1 0,0 1,-1 1,-1 1,-1 2,0 1,1 1,-1 0,-2 1,-1 2,0 1,1 1,-1 1,0 1,-1 1,-1 0,-2 1,-1 1,-1 1,0 1,-1 1,0 1,-1 1,-1 1,0 1,-1 1,-1 2,0 1,1 1,-1 1,0 1,-1 1,-1 0,-2 1,-1 1,0 1,-1 1,-1 2,0 1,1 1,-1 0,-2 1,-1 1,0 1,-1 2,0 1,1 1,-1 1,0 1,-1 1,0 1,-1 1,0 1,-1 1,0 1,-1 1,0 1,-1 1,0 1,-1 1,0 1,-1 1,0 1,-1 1,0 1,-1 1,0 1,-1 0,-2 1,-1 2,0 1,1 1,0 1,-1 3,0 1,-1 3,0 1,-1 1,0 1,-1 2,0 0,-2 1,-1 3,0 1,1 2,0 0,-2 1,-1 3,0 1,1 2,0 1,-1 1,0 1,-1 3,0 1,-1 1,0 0,-2 1,-1 2,0 1,-1 2,0 1,-1 3,0 1,-1 2,0 1,-1 2,0 1,-1 2,0 1,-1 2,0 1,-1 2,0 1,-1 1,0 1,-1 2,0 1,-1 2,0 1,-1 2,0 1,-1 2,0 1,-1 0,-1 -1,-1 0,-1 -1,-1 0,-1 -1,-1 0,-2 -1,-1 0,-2 -2,0 -1,-1 0,-2 1,-1 0,-1 -2,0 -1,-1 0,-2 1,-1 0,-1 -1,-1 0,-1 -1,-1 0,-2 -1,-1 0,-2 -2,0 -1,-1 0,-2 1,-1 0,-3 -147,0 0,1 1,1 0,0 2,2 0,1 1,1 1,1 1,1 1,1 1,1 0,1 1,0 1,1 0,1 1,1 1,1 1,0 1,1 0,4 -1,1 -2,0 0,3 -1,1 -1,0 -1,1 0,1 -1,1 0,1 -1,1 -2,0 0,1 1,0 1,1 0,3 1,1 0,1 1,1 0,4 1,1 0,3 -1,1 -1,1 0,1 -1,1 -1,1 -1,1 -1,1 -1,1 0,1 -1,1 -1,1 -1,0 0,1 -2,2 -9,0 0,7 99,-10 -1,1 -2,0 -1,-1 0,-2 1,-1 2,0 1,1 0,2 -99,10 93,-18 -2,0 -1,-1 0,-1 -1,-1 0,-1 -1,-1 0,-2 1,-1 2,0 1,1 0,1 1,1 0,1 1,1 0,2 -1,1 -93,18 85,-31 -2,0 -1,-1 -1,-1 0,-2 1,-1 2,0 1,1 1,1 0,2 -1,1 -85,31Z"/>
<path onmouseover="hoverPath(evt)" onmouseout="recoverPath(evt)" fill="rgb(244,243,236)" d="M  148,157l 0,0 1,1 1,1 1,1 1,0 1,1 1,0 1,1 1,1 1,1 0,1 1,1 0,2 1,1 1,1 1,1 0,1 1,0 1,1 3,3 1,1 1,1 1,1 1,1 1,1 1,1 0,1 1,1 1,1 1,1 1,1 1,1 1,1 1,1 1,1 1,1 1,1 0,1 1,1 1,0 1,1 0,1 2,0 1,1 1,0 1,1 1,1 1,1 1,1 1,1 1,1 1,1 1,1 1,1 1,1 0,1 2,0 1,1 1,1 1,1 1,1 0,1 1,1 1,1 1,1 1,1 1,1 0,1 1,0 1,1 1,1 1,1 1,1 1,1 1,1 1,1 1,1 1,1 0,1 1,1 1,1 1,1 1,1 1,1 0,1 1,0 1,1 1,1 1,1 0,1 1,0 1,1 1,1 3,3 1,1 1,1 1,0 1,1 1,1 1,1 0,1 2,0 1,1 1,1 0,2 10,0 0,-43 -2,0 -1,-1 -1,-1 -1,-1 -1,-1 -1,-1 -1,-1 -1,-1 -1,-1 -1,0 -1,-1 0,-1 -1,-1 -1,-1 -1,-1 0,-1 -1,-1 -1,-1 -1,-1 -1,-1 -1,-1 -1,-1 -1,-1 -1,-1 -1,-1 -1,-1 -1,-1 -1,-1 -1,-1 -1,-1 -1,-1 -1,0 -1,-1 0,-1 -1,-1 -1,-1 -1,-1 -1,-1 -1,-1 -1,-1 0,-1 -1,-1 -1,-1 -1,-1 -2,0 -1,-1 0,-2 1,-1 0,-2 1,-1 0,-1 1,-1 1,-1 2,0 1,-1 0,-1 1,-1 2,0 2,-2 1,0 3,-3 1,0 1,-1 1,-1 2,-2 1,-1 1,-1 0,-1 1,-1 1,0 1,-1 2,0 1,1 1,-1 1,0 1,-1 0,-2 1,-1 1,-1 1,-1 2,0 1,-1 1,-1 1,-1 1,0 1,-1 2,0 0,-34 -1,0 -1,1 0,0 -1,1 -1,0 -1,1 -1,0 -1,1 -1,0 -1,1 -1,0 -1,1 -1,0 -1,1 -1,0 -1,1 -1,0 -1,1 -1,1 -1,0 -1,1 -1,1 -1,0 -1,1 -1,0 -1,1 -1,0 -1,1 -1,0 -1,1 -1,0 -1,1 -1,0 -1,1 -1,0 -1,1 -2,0 -1,1 -1,0 -1,1 -1,0 -1,1 -1,0 -1,1 -1,0 -1,1 -1,1 -1,0 -1,1 -1,1 -1,0 -1,1 -1,1 -1,0 -1,1 -1,1 -1,0 -1,1 -1,0 -1,1 -1,1 -1,0 -1,1 -1,0 -1,1 -1,0 -1,1 -1,0 -1,1 -1,0 -1,1 -1,0 -1,1 -1,1 -1,0 -1,1 -1,0 -1,1 -1,1 -1,0 -1,1 -1,1 -1,0 -1,1 -1,0 -1,1 -1,0 -1,1 -1,0 -1,1 -2,0 -1,1 -1,0 -1,1 -1,0 -1,1 -1,1 -2,0 -1,1 -3,0 -1,1 -1,0 -1,1Z"/>
<path onmouseover="hoverPath(evt)" onmouseout="recoverPath(evt)" fill="rgb(170,198,238)" d="M  158,149l -1,0 -1,1 -1,0 -2,2 -2,0 -1,1 -8,0 -1,-1 -1,-1 -1,-1 -1,-1 -1,-1 -1,-1 -1,-1 -1,-1 -1,-1 -1,-1 0,-1 -1,0 -1,-1 -1,-1 -1,0 1,1 0,1 1,1 0,0 1,1 1,1 0,1 1,1 1,1 1,1 1,0 1,1 1,1 1,1 1,1 1,1 1,1 1,1 0,1 1,1 1,1 1,1 1,1 1,1 1,1 1,1 1,1 1,1 1,1 1,1 1,1 0,1 1,1 1,1 1,1 1,1 0,1 1,1 1,1 1,1 1,1 1,1 0,4 4,0 1,1 1,1 1,1 1,1 1,1 1,1 1,1 1,1 1,1 1,1 1,0 1,1 1,1 1,1 1,1 0,-1 -3,-3 -1,-1 0,0 -1,-1 -1,-1 -1,-1 -1,-1 -1,-1 -1,-1 -1,-1 -1,-1 -1,-1 0,-1 -1,-1 -1,-1 -1,-1 -1,-1 -1,-1 -1,-1 -1,-1 -1,-1 -1,-1 -1,0 -1,-1 0,-1 -1,-1 -1,-1 -1,-1 0,-2 -1,-1 0,-1 -1,-1 -1,-1 -1,0 -1,-1 -1,0 -1,-1 -1,-1 -1,-1 -1,-1 0,-2 1,-1 1,-1 1,0 9,-5 6,36 -1,0 -1,1 -1,1 -1,1 -1,1 -1,1 -1,1 -1,1 -1,1 -1,0 -1,1 -1,1 -1,1 -1,1 -2,2 -1,1 -1,1 -1,1 -1,0 -1,1 -1,1 -1,1 -1,0 -5,5 0,1 -2,2 -1,1 -1,1 -1,0 -1,1 -2,2 -1,1 0,1 1,-1 1,0 1,-1 1,-1 1,-1 1,0 1,-1 1,-1 1,-1 1,-1 1,-1 1,-1 1,-1 1,-1 1,-1 1,-1 1,-1 1,-1 1,-1 1,0 1,-1 1,-1 1,-1 1,0 1,-1 1,-1 0,-1 1,-1 1,-1 1,-1 1,0 1,-1 1,-1 1,-1 1,-1 1,-1 1,0 1,-1 1,-1 0,-2 -6,-36 -7,4 2,0 1,-1 2,0 1,-1 1,-1 1,0 1,-1 1,0 1,-1 2,0 1,-1 1,0 1,-1 1,0 1,-1 1,0 1,-1 1,0 1,-1 1,-1 1,0 1,-1 1,-1 1,0 1,-1 1,0 1,-1 1,-1 1,0 1,-1 1,0 1,-1 1,0 1,-1 1,0 1,-1 1,0 1,-1 1,0 1,-1 1,-1 1,0 1,-1 1,0 1,-1 1,-1 1,0 1,-1 1,-1 1,0 1,-1 1,-1 1,0 1,-1 1,-1 1,0 1,-1 1,0 1,-1 1,0 1,-1 1,0 1,-1 2,0 1,-1 1,0 1,-1 1,0 1,-1 1,0 1,-1 1,0 1,-1 1,0 1,-1 1,0 1,-1 1,0 1,-1 1,-1 1,0 2,-2 1,0 1,-1 1,0 1,-1 1,0 1,-1 1,0 1,-1 1,0 1,-1 1,0 1,-1 1,0 1,-1 1,-1 2,0 0,-3 -1,0 -1,1 -1,0 -1,1 -1,1 -1,0 -1,1 -1,0 -1,1 -1,0 -1,1 -1,0 -1,1 -1,0 -1,1 -1,0 -1,1 -1,0 -1,1 -1,0 -1,1 -1,0 -1,1 -1,1 -1,1 -1,0 -1,1 -1,0 -1,1 -1,0 -1,1 -1,0 -2,2 -2,0 -1,1 -2,0 -1,1 -1,0 -1,1 -2,0 -1,1 -1,0 -1,1 -1,1 -1,0 -1,1 -1,1 -1,0 -1,1 -1,1 -1,0 -1,1 -1,1 -2,2 -1,1 -1,0 -1,1 -1,1 -1,0 -1,1 -1,0 -1,1 -1,0 -1,1 -1,0 -1,1 -1,0 -1,1 -1,0 -1,1 -1,0 -1,1 -1,0 -1,1 -1,0 -1,1 -1,0 -1,1 -1,0 -1,1 -1,1 -1,0 -1,1 -1,0 -1,1 -1,0 -1,1 -1,0 -1,1 -1,1 1,0 -10,5 7,-4Z"/>
<path onmouseover="hoverPath(evt)" onmouseout="recoverPath(evt)" fill="rgb(240,241,237)" d="M  162,238l 0,0 -1,1 -1,1 -1,1 -1,1 -1,1 -1,1 -1,1 -1,1 -1,1 0,1 -1,1 -1,1 -2,2 -1,1 -1,1 -1,1 97,0 0,-1 -1,-1 -2,0 -1,-1 0,-1 -1,-1 -1,-1 -1,0 -1,-1 -1,-1 -1,-1 -1,-1 -1,-1 -1,-1 -1,-1 -1,1 -3,0 -1,-1 -1,-1 -1,-1 -1,0 -1,-1 -1,-1 -1,-1 -1,-1 -1,-1 -1,-1 -1,-1 -1,-1 0,-1 -1,-1 -1,-1 -1,-1 -1,-1 -1,-1 0,-1 -1,-1 -1,-1 0,-1 -1,0 -1,-1 -1,-1 -1,-1 -1,-1 -1,-1 0,-1 -1,-1 -1,-1 -1,-1 -3,0 -1,-1 -1,0 -1,1 0,1 -1,1 -3,3 -1,1 -1,1 -1,0 -1,1 -2,2 0,1 -1,1 -1,0 -1,1 -1,1 -1,1 -1,0 0,1 -1,1 -1,0 -1,1 -1,1 -1,0 0,1 -1,1 -1,0 -1,1 -1,1 -1,0 -1,1 -1,1Z"/>
<path onmouseover="hoverPath(evt)" onmouseout="recoverPath(evt)" fill="rgb(252,252,250)" d="M  217,163l -1,0 -1,1 0,1 -1,1 0,2 -1,1 2,0 1,1 1,1 1,1 1,1 0,1 1,1 1,1 1,1 1,1 1,1 1,1 0,1 1,0 1,1 1,1 1,1 11,11 1,1 1,1 0,1 1,1 1,1 1,1 0,1 1,0 1,1 1,1 1,1 1,1 1,1 1,1 1,1 1,1 1,0 0,-5 -4,0 -1,-1 -1,-1 -1,-1 0,-1 -1,0 -1,-1 -1,-1 -1,-1 -1,-1 -1,-1 -1,-1 -1,-1 -1,-1 -1,-1 -1,-1 -1,-1 -1,-1 -1,-1 -1,-1 -1,-1 0,-1 -1,-1 -1,-1 -1,-1 -1,-1 -1,-1 0,-1 -1,0 -1,-1 -1,-1 -1,-1 -1,-1 -1,-1 -1,-1 -1,-1 -1,-1 -1,-1 0,-1 -1,-1 0,-3 1,-1Z"/>
<path onmouseover="hoverPath(evt)" onmouseout="recoverPath(evt)" fill="rgb(252,252,250)" d="M  236,1l 0,3 -1,1 2,0 1,1 0,2 1,1 0,2 1,1 0,1 1,1 0,3 -1,1 2,0 1,1 0,3 -1,1 2,0 1,1 0,2 1,1 0,2 1,1 0,1 1,1 0,1 1,1 0,3 -2,2 -2,0 -1,1 -2,0 -1,1 -2,0 -1,1 -2,0 -1,1 1,0 6,-2 3,-1 3,-1 2,0 1,1 0,1 1,0 1,1 1,1 1,0 0,-7 -4,0 -1,-1 0,-1 -1,-1 0,-2 -1,-1 0,-1 -1,-1 0,-2 -1,-1 0,-1 -1,-1 0,-2 -1,-1 0,-2 -1,-1 0,-1 -1,-1 0,-2 -1,-1 0,-1 -1,-1 0,-2 -1,-1 0,-1 -1,-1 0,-2 -1,-1 -1,-1 1,-1 -1,1Z"/>
<path onmouseover="hoverPath(evt)" onmouseout="recoverPath(evt)" fill="rgb(242,241,232)" d="M  241,0l -2,0 0,1 1,1 0,2 1,1 0,1 1,1 0,2 1,1 0,1 1,1 0,2 1,1 0,1 1,1 0,2 1,1 0,2 1,1 0,1 1,1 0,2 1,1 0,1 1,1 0,2 1,1 0,1 3,0 0,-34Z"/>
</svg>