<svg width="256" height="256" xmlns="http://www.w3.org/2000/svg"><script> 
var tempColor;
function hoverPath(evt){
obj = evt.target;
tempColor = obj.getAttribute("fill");
obj.setAttribute("fill","red");
//alert(tempColor);
//obj.setAttribute("stroke","red");}
function recoverPath(evt){
obj = evt.target;
obj.setAttribute("fill", tempColor);
//obj.setAttribute("stroke", tempColor);
}</script><path onmouseover="hoverPath(evt)" onmouseout="recoverPath(evt)" fill="rgb(181,153,236)" d="M  0,204l 0,10 4,0 1,-1 11,0 1,1 0,3 1,1 0,1 1,1 4,0 0,-5 1,-1 77,0 1,-1 27,0 1,1 0,1 9,0 1,-1 34,0 1,1 12,0 1,-1 6,0 1,1 2,0 1,-1 3,0 1,-1 3,0 1,1 6,0 1,1 0,4 1,1 0,18 -1,1 0,5 -1,1 0,3 -1,1 0,3 -1,1 0,2 9,0 0,-3 1,-1 0,-6 1,-1 0,-6 1,-1 0,-21 1,-1 0,-1 1,-1 6,0 1,1 1,-1 0,0 1,-1 2,0 1,1 3,0 1,-1 5,0 0,-1 1,-1 4,0 1,1 2,0 1,1 1,0 0,-12 -5,0 0,1 -1,1 -3,0 -1,-1 -11,0 -1,1 -3,0 -1,-1 -1,0 -1,1 -2,0 -1,1 -1,0 -1,1 -9,0 -1,-1 0,-1 -8,0 -1,1 -9,0 -1,-1 -68,0 -1,1 -68,0 -1,-1 -8,0 -1,1 -4,0 -1,-1 -25,0 -1,-1 -1,-1 0,-2 -1,-1 0,-1 -1,-1 0,-1 -1,-1 0,-1 -1,-1 0,-1 -1,-1 0,-1 -1,-1 0,-2 -1,-1 0,-1 -1,-1 0,-1 -1,-1 0,-2 -1,-1 0,-2 -1,-1 0,-2 -1,-1 0,-2 -1,-1 0,-2 -1,0Z"/>
<path onmouseover="hoverPath(evt)" onmouseout="recoverPath(evt)" fill="rgb(244,243,235)" d="M  0,231l 0,24 33,0 0,-4 -1,-1 0,-2 -1,-1 0,-1 -1,-1 0,-1 -1,-1 -1,-1 0,-1 -1,-1 -1,-1 0,-1 -1,-1 0,-1 -1,-1 0,-1 -1,-1 0,-1 -1,-1 0,-1 -1,-1 0,-4 -5,0 -1,-1 0,-2 1,-1 1,0 -1,-1 0,-1 -1,-1 0,-3 -9,0 -1,1 -5,0Z"/>
<path onmouseover="hoverPath(evt)" onmouseout="recoverPath(evt)" fill="rgb(243,242,235)" d="M  0,117l 0,47 2,0 1,1 0,2 1,1 0,2 1,1 0,2 1,1 0,2 1,1 0,2 1,1 0,1 1,1 0,1 1,1 0,2 1,1 0,1 1,1 0,1 1,1 0,1 1,1 0,1 1,1 0,1 1,1 0,2 1,1 25,0 1,1 2,0 1,-1 10,0 1,1 66,0 1,-1 50,0 0,-17 -1,-1 0,-2 -1,-1 -1,-1 -1,-1 -2,0 -1,-1 -1,-1 0,-1 -1,-1 0,-1 -1,-1 0,-1 -1,-1 0,-1 -1,-1 0,-2 1,-1 -1,-1 0,-1 -2,0 -1,-1 0,-2 1,-1 0,-11 1,-1 0,-14 1,-1 0,-14 1,-1 0,-14 1,-1 0,-15 -1,-1 0,-24 1,-1 0,-15 1,-1 0,-9 -1,0 -1,-1 -9,0 -1,-1 0,-2 1,-1 10,0 1,-1 2,0 1,-1 1,-1 1,-1 1,-1 0,-3 1,-1 0,-4 -4,0 -1,-1 -4,0 -1,-1 -4,0 -1,-1 -5,0 -1,-1 -5,0 -1,-1 -6,0 -1,-1 -5,0 -1,-1 -4,0 -1,-1 -6,0 -1,-1 -8,0 -1,-1 -4,0 -1,-1 -6,0 -1,-1 -7,0 -1,-1 -6,0 -1,-1 -4,0 -1,-1 0,-2 -79,0Z"/>
<path onmouseover="hoverPath(evt)" onmouseout="recoverPath(evt)" fill="rgb(170,198,237)" d="M  23,226l 0,2 1,1 0,1 1,1 0,1 1,1 0,1 1,1 0,1 1,1 0,1 1,1 1,1 0,1 1,1 1,1 0,1 1,1 0,1 1,1 0,2 1,1 0,5 6,0 0,-6 -1,-1 0,-2 -1,-1 0,-1 -1,-1 0,-1 -1,-1 -1,-1 0,-1 -1,-1 0,-1 -1,-1 -1,-1 0,-1 -1,-1 -1,-1 0,-1 -1,-1 -1,-1 0,-1 -1,-1 0,-1 -1,-1 -3,0 -1,1Z"/>
<path onmouseover="hoverPath(evt)" onmouseout="recoverPath(evt)" fill="rgb(243,242,234)" d="M  46,223l 0,0 -1,1 -1,0 0,1 1,1 0,1 1,1 1,1 1,1 0,3 -1,1 -2,0 -1,-1 -1,-1 -1,-1 0,-1 -1,-1 0,-1 -1,-1 0,-3 -1,0 -1,-1 -1,1 -8,0 1,1 0,1 1,1 0,1 1,1 1,1 0,1 2,2 0,1 1,1 1,1 0,1 1,1 0,1 1,1 1,1 0,1 1,1 0,1 1,1 0,2 1,1 0,7 86,0 0,-5 -1,-1 0,-8 -2,0 -1,-1 0,-7 -1,-1 0,-12 -12,0 -1,1 -19,0 -1,1 -22,0 -1,1 -22,0 14,25 -2,0 -1,-1 0,-1 -1,-1 0,-2 1,-1 2,0 1,1 0,1 1,1 0,2 -1,1 -14,-25Z"/>
<path onmouseover="hoverPath(evt)" onmouseout="recoverPath(evt)" fill="rgb(172,198,237)" d="M  85,1l 0,0 1,1 6,0 1,1 7,0 1,1 6,0 1,1 4,0 1,1 8,0 1,1 6,0 1,1 4,0 1,1 5,0 1,1 6,0 1,1 5,0 1,1 5,0 1,1 4,0 1,1 4,0 1,1 3,0 0,-8 1,-1 0,-6 -87,0 -1,1 -1,-1 -3,0 0,1 3,0 0,-1 1,1Z"/>
<path onmouseover="hoverPath(evt)" onmouseout="recoverPath(evt)" fill="rgb(235,232,220)" d="M  92,217l 15,0 1,-1 14,0 1,-1 -20,0 -1,1 -9,0 -1,1 -2,-1 -65,0 0,4 4,0 1,-1 34,0 1,-1 21,0 1,-1 2,0 1,-1 2,1Z"/>
<path onmouseover="hoverPath(evt)" onmouseout="recoverPath(evt)" fill="rgb(253,253,253)" d="M  91,219l -3,0 -1,1 -21,0 -1,1 -34,0 -1,1 -11,0 -1,1 9,0 4,-1 10,0 1,1 0,3 1,1 0,1 1,1 0,1 2,2 0,-1 -1,-1 -2,-8 -1,0 24,-1 1,0 21,-1 2,0 1,-1 20,-1 14,0 1,1 0,12 1,-11 1,0 1,-1 1,0 1,-1 1,0 1,-1 11,0 0,-1 -3,0 -9,1 -8,0 -13,1 -20,1Z"/>
<path onmouseover="hoverPath(evt)" onmouseout="recoverPath(evt)" fill="rgb(244,243,236)" d="M  131,221l -1,0 -1,1 -1,0 0,10 -1,1 0,6 2,0 1,1 0,8 1,1 0,6 77,0 0,-3 1,-1 0,-3 1,-1 0,-3 1,-1 0,-5 1,-1 0,-16 -1,-1 0,-4 -6,0 -1,-1 -1,0 -1,1 -3,0 -1,1 -4,0 -1,-1 -4,0 -1,1 -14,0 -1,-1 -27,0 0,2 -1,1 -11,0 -1,1 -1,0 -1,1Z"/>
<path onmouseover="hoverPath(evt)" onmouseout="recoverPath(evt)" fill="rgb(253,253,253)" d="M  165,32l -10,0 10,1 0,-1 3,2 1,-1 0,-1 2,-2 1,-1 1,-1 1,0 0,-4 1,-1 0,-6 1,-1 0,-5 1,-1 0,-10 -2,0 0,7 -1,1 0,14 -1,1 0,3 -1,1 -2,2 -1,1 0,1 1,-1 1,-1 1,-1 2,-5 -6,11 -3,-2 2,3 0,10 -1,1 0,15 -1,1 0,22 1,-12 0,-9 1,-1 0,-15 1,-1 0,-10 -1,-1 -2,-3Z"/>
<path onmouseover="hoverPath(evt)" onmouseout="recoverPath(evt)" fill="rgb(244,243,235)" d="M  178,19l 0,0 -1,-1 0,6 -1,1 0,4 -1,1 -1,0 -1,1 -1,1 -1,1 0,1 -1,1 0,12 -1,1 0,15 -1,1 0,9 -1,1 0,11 -1,1 0,16 -1,1 0,14 -1,1 0,14 -1,1 0,14 -1,1 0,11 -1,1 2,0 1,1 0,1 1,1 0,1 1,1 0,1 1,1 0,1 1,1 0,1 1,1 0,2 -1,1 1,1 2,0 1,1 1,1 1,1 1,1 0,2 1,1 0,18 18,0 1,1 7,0 1,-1 9,0 0,-28 -1,-1 0,-33 1,-1 0,-8 -1,-1 0,-34 -1,-1 0,-27 -1,-1 0,-30 1,-1 0,-3 1,-1 0,-4 -1,-1 -3,0 -1,-1 -3,0 -1,-1 -2,0 -1,-1 -4,0 -1,-1 -5,0 -1,-1 -4,0 -1,-1Z"/>
<path onmouseover="hoverPath(evt)" onmouseout="recoverPath(evt)" fill="rgb(170,197,237)" d="M  179,6l 0,5 -1,1 0,4 1,1 5,0 1,1 4,0 1,1 5,0 1,1 4,0 1,1 2,0 1,1 3,0 1,1 3,0 1,1 1,1 0,6 -1,1 0,3 -1,1 0,28 1,1 0,27 1,1 0,34 1,1 0,10 -1,1 0,31 1,1 0,31 7,0 0,-3 -1,-1 0,-12 -1,-1 0,-12 -1,-1 0,-73 -1,-1 0,-17 -1,-1 0,-12 -1,-1 0,-17 -1,-1 0,-8 1,-1 0,-3 1,-1 0,-1 1,-1 0,-1 1,-1 0,-1 1,-1 0,-1 1,-1 1,-1 2,0 1,1 2,0 1,1 1,0 1,1 2,0 1,1 1,0 1,1 2,0 1,1 2,0 1,1 2,0 1,1 1,0 1,1 2,0 1,1 2,0 1,1 2,0 1,1 1,0 0,-12 -3,0 -1,-1 -2,0 -1,-1 -3,0 -1,-1 -1,0 -1,-1 -2,0 -1,-1 -1,0 -1,-1 -2,0 -1,-1 -2,0 -1,-1 -1,0 -1,-1 -2,0 -1,-1 -2,0 -1,-1 -2,0 -1,-1 -2,0 -1,-1 -2,0 -1,-1 -2,0 -1,-1 -4,0 -1,-1 -3,0 -1,-1 -3,0 -1,-1 -2,0 -1,-1 -3,0 -1,-1 -2,0 -1,-1 -3,0 -1,-1 -4,0 -1,1Z"/>
<path onmouseover="hoverPath(evt)" onmouseout="recoverPath(evt)" fill="rgb(244,243,235)" d="M  180,0l -1,0 0,3 6,0 1,1 3,0 1,1 2,0 1,1 3,0 1,1 2,0 1,1 3,0 1,1 3,0 1,1 4,0 1,1 2,0 1,1 2,0 1,1 2,0 1,1 2,0 1,1 2,0 1,1 2,0 1,1 1,0 1,1 2,0 1,1 2,0 1,1 1,0 1,1 2,0 1,1 1,0 1,1 3,0 1,1 2,0 1,1 2,0 0,-3 -1,0 -1,1 -2,0 -1,-1 -1,-1 0,-9 -1,0 -1,-1 0,-11Z"/>
<path onmouseover="hoverPath(evt)" onmouseout="recoverPath(evt)" fill="rgb(244,243,236)" d="M  221,30l 0,1 -1,1 0,1 -1,1 0,1 -1,1 0,1 -1,1 0,3 -1,1 0,6 1,1 0,17 1,1 0,12 1,1 0,17 1,1 0,73 1,1 0,12 1,1 0,12 1,1 0,3 1,-1 2,0 1,-1 3,0 1,1 1,0 1,-1 13,0 1,1 1,0 0,-1 1,-1 6,0 0,-157 -2,0 -1,-1 -2,0 -1,-1 -2,0 -1,-1 -2,0 -1,-1 -1,0 -1,-1 -2,0 -1,-1 -2,0 -1,-1 -2,0 -1,-1 -1,0 -1,-1 -2,0 -1,-1 -1,0 -1,-1 -2,0 -1,-1 -1,1Z"/>
<path onmouseover="hoverPath(evt)" onmouseout="recoverPath(evt)" fill="rgb(244,243,236)" d="M  225,216l -1,1 0,21 -1,1 0,6 -1,1 0,6 -1,1 0,2 34,0 0,-41 -2,0 -1,-1 -2,0 -1,-1 -2,0 0,1 -1,1 -5,0 -1,1 -5,0 -1,-1 -1,1 0,0 -1,1 -2,0 -1,-1 -3,0 -1,1Z"/>
<path onmouseover="hoverPath(evt)" onmouseout="recoverPath(evt)" fill="rgb(242,241,229)" d="M  250,0l -1,0 0,10 1,0 1,1 0,9 1,1 1,-1 2,0 0,-20Z"/>
</svg>