<svg width="256" height="256" xmlns="http://www.w3.org/2000/svg"><script> 
var tempColor;
function hoverPath(evt){
obj = evt.target;
tempColor = obj.getAttribute("fill");
obj.setAttribute("fill","red");
//alert(tempColor);
//obj.setAttribute("stroke","red");}
function recoverPath(evt){
obj = evt.target;
obj.setAttribute("fill", tempColor);
//obj.setAttribute("stroke", tempColor);
}</script><path onmouseover="hoverPath(evt)" onmouseout="recoverPath(evt)" fill="rgb(244,243,236)" d="M  1,91l -1,0 0,104 21,0 1,-1 34,0 1,-1 5,0 0,-6 -1,-1 0,-6 -1,-1 0,-5 -1,-1 0,-4 -1,-1 0,-4 -1,-1 0,-6 -1,-1 0,-5 -1,-1 0,-6 -1,-1 0,-7 -1,-1 0,-11 -1,-1 0,-31 -1,-1 0,-6 -1,0 -1,1 -7,0 -1,1 -7,0 -1,1 -7,0 -1,1 -7,0 -1,1 -7,0 -1,1Z"/>
<path onmouseover="hoverPath(evt)" onmouseout="recoverPath(evt)" fill="rgb(244,243,235)" d="M  3,204l 0,0 1,1 0,7 -1,1 0,6 1,1 0,7 -1,1 0,3 2,0 1,1 0,6 1,1 0,3 19,0 1,-1 25,0 1,-1 17,0 0,-3 -1,-1 0,-4 -1,-1 0,-6 -1,-1 0,-5 -1,-1 0,-5 -1,-1 0,-6 -1,-1 0,-5 -1,-1 0,-2 -6,0 -1,-1 -33,0 -1,1 -22,0 0,7Z"/>
<path onmouseover="hoverPath(evt)" onmouseout="recoverPath(evt)" fill="rgb(253,253,253)" d="M  62,46l 4,0 1,1 15,0 1,1 33,0 1,1 0,5 -1,1 0,1 -1,1 -11,0 -1,1 -13,0 -1,1 -1,0 -1,1 0,2 1,1 0,3 1,0 1,1 33,0 1,1 19,0 -19,-1 -34,-1 -2,-4 0,-2 2,-1 14,-1 3,0 9,-1 1,1 0,0 1,-1 27,0 -27,-1 0,0 -1,-1 0,2 1,-7 0,-1 1,-1 53,0 1,1 0,10 1,0 0,-8 1,-1 0,-1 1,-1 42,0 1,1 1,1 0,6 -1,1 -12,0 -1,1 -2,0 0,1 -1,1 2,0 0,-1 2,-1 27,0 1,1 0,-1 1,1 7,0 -21,-2 -1,-1 0,-7 1,-1 33,0 0,-1 -26,0 -1,-1 -42,0 -1,1 -7,0 -1,-1 -1,-1 -1,0 -1,-1 0,-16 -1,-1 0,-27 -1,0 0,29 1,1 0,15 -1,1 -1,0 -1,1 -86,0 -1,-1 -15,0 -1,-1 -4,0 -1,1Z"/>
<path onmouseover="hoverPath(evt)" onmouseout="recoverPath(evt)" fill="rgb(244,243,236)" d="M  65,84l -1,0 0,15 1,1 0,16 1,1 0,18 1,1 0,7 1,1 0,6 1,1 0,5 1,1 0,4 1,1 0,6 1,1 0,4 1,1 0,6 1,1 0,5 1,1 0,4 3,0 1,1 18,0 1,1 24,0 1,1 16,0 1,1 18,0 1,1 0,2 14,0 1,1 14,0 1,1 15,0 1,1 17,0 1,1 17,0 1,1 14,0 0,-113 -12,0 -1,-1 -17,0 -1,-1 -18,0 -1,-1 -18,0 -1,-1 -18,0 -1,-1 -18,0 -1,-1 -21,0 -1,-1 -24,0 -1,-1 -27,0 -1,1 -7,0 -1,1Z"/>
<path onmouseover="hoverPath(evt)" onmouseout="recoverPath(evt)" fill="rgb(244,243,235)" d="M  76,198l 0,1 1,1 0,5 1,1 0,4 1,1 0,6 1,1 0,5 1,1 0,5 1,1 0,8 1,1 32,0 1,-1 35,0 1,-1 18,0 1,-1 19,0 1,-1 28,0 1,-1 30,0 1,-1 4,0 0,-28 -15,0 -1,-1 -17,0 -1,-1 -17,0 -1,-1 -15,0 -1,-1 -14,0 -1,-1 -14,0 -1,-1 -21,0 -1,-1 -17,0 -1,-1 -22,0 -1,-1 -18,0Z"/>
<path onmouseover="hoverPath(evt)" onmouseout="recoverPath(evt)" fill="rgb(245,244,237)" d="M  0,1l 0,79 5,0 1,-1 9,0 1,-1 10,0 1,-1 10,0 1,-1 9,0 1,-1 3,0 0,-15 -1,-1 0,-44 -1,-1 0,-14 -48,0 -1,1Z"/>
<path onmouseover="hoverPath(evt)" onmouseout="recoverPath(evt)" fill="rgb(172,198,235)" d="M  0,83l 0,6 8,0 1,-1 7,0 1,-1 7,0 1,-1 7,0 1,-1 7,0 1,-1 7,0 1,-1 3,0 1,1 0,-6 -1,0 -1,-1 -2,0 -1,1 -9,0 -1,1 -10,0 -1,1 -10,0 -1,1 -9,0 -1,1 -5,0 -1,1Z"/>
<path onmouseover="hoverPath(evt)" onmouseout="recoverPath(evt)" fill="rgb(246,235,144)" d="M  0,249l 0,6 82,0 0,-5 1,-1 3,0 1,-1 10,0 1,-1 35,0 1,-1 28,0 1,-1 10,0 1,-1 5,0 1,-1 3,0 1,1 14,0 1,-1 24,0 1,1 9,0 0,-1 1,-1 2,0 1,1 0,1 1,0 0,-1 1,-1 16,0 0,-7 -3,0 -1,1 -30,0 -1,1 -28,0 -1,1 -19,0 -1,1 -18,0 -1,1 -35,0 -1,1 -34,0 -1,-1 -1,-1 0,-8 -1,-1 0,-5 -1,-1 0,-5 -1,-1 0,-6 -1,-1 0,-4 -1,-1 0,-5 -1,-1 0,-5 1,-1 20,0 1,1 22,0 1,1 17,0 1,1 20,0 -19,-1 -1,0 -16,-1 -2,0 -23,-1 -19,-1 -3,0 -1,-1 0,-4 -1,-1 0,-5 -1,-1 0,-6 -1,-1 0,-4 -1,-1 0,-6 -1,-1 0,-4 -1,-1 0,-5 -1,-1 0,-6 -1,-1 0,-7 -1,-1 0,-18 -1,-1 0,-16 -1,-1 0,-17 -1,-1 0,-1 -1,-1 0,-9 1,-1 1,0 0,-1 -1,-1 0,-20 -1,-1 0,-3 1,-1 0,-17 -1,-1 0,-25 -9,0 0,13 1,1 0,44 1,1 0,17 1,0 1,1 0,11 -1,1 -1,0 0,1 1,1 0,31 1,1 0,11 1,1 0,7 1,1 0,6 1,1 0,5 1,1 0,6 1,1 0,4 1,1 0,4 1,1 0,5 1,1 0,6 1,1 0,8 -1,1 1,0 1,1 0,2 1,1 0,5 1,1 0,6 1,1 0,5 1,1 0,5 1,1 0,6 1,1 0,4 1,1 0,4 1,0 1,1 0,4 -1,1 -1,1 -32,0 -1,1 -3,0 -1,-1 -1,0 -1,1 -8,0 -1,-1 -1,1 -22,0 -1,1Z"/>
<path onmouseover="hoverPath(evt)" onmouseout="recoverPath(evt)" fill="rgb(239,238,231)" d="M  0,237l 0,9 6,0 0,-2 -1,-1 0,-3 -1,-1 0,-6 -2,0 -1,-1 0,-5 1,-1 0,-5 -1,-1 0,-8 1,-1 0,-5 -2,0Z"/>
<path onmouseover="hoverPath(evt)" onmouseout="recoverPath(evt)" fill="rgb(184,201,213)" d="M  52,243l -24,0 -1,1 -19,0 0,2 14,0 1,-1 2,0 1,1 6,0 1,-1 3,0 1,1 1,0 1,-1 32,0 1,-1 0,-2 -18,0 -1,1Z"/>
<path onmouseover="hoverPath(evt)" onmouseout="recoverPath(evt)" fill="rgb(243,241,232)" d="M  62,1l 0,23 1,1 0,18 5,0 1,1 15,0 1,1 84,0 1,-1 1,0 0,-13 -1,-1 0,-30 -24,0 0,4 -1,1 -1,0 -1,1 -2,0 -1,-1 -18,0 -1,-1 -6,0 6,1 9,1 14,0 1,1 0,4 -1,1 0,5 1,1 0,11 -1,1 -1,1 -1,1 -1,1 -14,0 -1,-1 -18,0 -1,1 -5,0 -1,1 -9,0 -1,-1 -3,0 -1,-1 -1,-1 0,-3 -1,-1 0,-9 1,-1 2,0 0,-2 1,-1 0,-3 -1,-1 0,-4 -1,-1 0,-5 -24,0 -1,1Z"/>
<path onmouseover="hoverPath(evt)" onmouseout="recoverPath(evt)" fill="rgb(171,198,237)" d="M  62,77l 0,2 1,1 0,1 1,1 1,-1 7,0 1,-1 29,0 1,1 24,0 1,1 21,0 1,1 18,0 1,1 18,0 1,1 18,0 1,1 18,0 1,1 17,0 1,1 11,0 0,-7 -16,0 -1,-1 -21,0 -1,-1 -27,0 -1,-1 -29,0 -1,-1 -30,0 -1,-1 -30,0 -1,-1 -25,0 -1,1 -7,0 -1,1Z"/>
<path onmouseover="hoverPath(evt)" onmouseout="recoverPath(evt)" fill="rgb(241,239,228)" d="M  63,51l 0,16 1,1 0,6 5,0 1,-1 27,0 1,1 30,0 1,1 30,0 1,1 29,0 1,1 27,0 1,1 21,0 1,1 15,0 0,-29 -32,0 -1,1 0,3 1,1 0,0 1,1 12,0 1,1 7,0 1,1 0,2 -1,1 -10,0 -1,-1 -16,0 -1,-1 -7,0 -1,1 -1,0 0,1 -1,1 -10,0 -1,-1 0,-2 1,-1 6,0 0,-1 1,-1 2,0 1,-1 12,0 0,-4 -1,-1 -40,0 0,1 -1,1 0,8 -1,1 -3,0 -1,-1 0,-10 -51,0 0,1 -1,1 0,2 1,1 26,0 1,1 0,2 -1,1 -27,0 -1,1 -2,0 -1,-1 -6,0 -1,1 -16,0 -1,1 -1,0 0,3 1,0 1,1 33,0 1,1 18,0 1,1 0,2 -1,1 -21,0 -1,-1 -33,0 -1,-1 -1,0 -1,-1 0,-3 -1,-1 0,-4 1,-1 1,-1 1,0 1,-1 13,0 1,-1 11,0 0,-1 1,-1 0,-3 -33,0 -1,-1 -15,0 -1,-1 -2,0Z"/>
<path onmouseover="hoverPath(evt)" onmouseout="recoverPath(evt)" fill="rgb(243,241,232)" d="M  85,251l -1,0 0,4 171,0 0,-11 -15,0 0,1 -1,1 -3,0 -1,-1 0,-1 -1,2 -11,0 -1,-1 -22,0 -1,1 -16,0 -1,-1 -1,0 -1,1 -5,0 -1,1 -10,0 -1,1 -28,0 -1,1 -35,0 -1,1 -10,0 -1,1Z"/>
<path onmouseover="hoverPath(evt)" onmouseout="recoverPath(evt)" fill="rgb(243,241,232)" d="M  91,0l -2,0 0,4 1,1 0,4 1,1 0,5 -1,1 0,2 -1,1 -2,0 0,7 1,1 0,3 1,1 3,0 1,1 7,0 1,-1 5,0 1,-1 20,0 1,1 12,0 1,-1 1,-1 1,-1 0,-9 -1,-1 0,-7 1,-1 0,-2 -14,0 -1,-1 -8,0 -1,-1 -5,0 -1,-1 0,-2 1,-1 8,0 1,1 18,0 1,1 1,-1 1,0 0,-3Z"/>
<path onmouseover="hoverPath(evt)" onmouseout="recoverPath(evt)" fill="rgb(241,240,232)" d="M  176,0l -1,0 0,26 1,1 0,16 1,0 1,1 1,1 5,0 1,-1 44,0 1,1 25,0 0,-45 -17,0 0,5 -1,1 0,2 2,0 1,1 0,4 1,1 0,16 -1,1 0,1 -1,1 -3,0 -1,1 -25,0 -1,-1 -1,0 -1,-1 0,-2 -1,-1 -4,0 -1,-1 -1,-1 0,-6 1,-1 0,-11 -1,-1 0,-8Z"/>
<path onmouseover="hoverPath(evt)" onmouseout="recoverPath(evt)" fill="rgb(244,242,235)" d="M  206,0l -4,0 0,7 1,1 0,13 -1,1 0,4 1,1 4,0 1,1 1,1 0,2 1,0 1,1 23,0 1,-1 3,0 0,-1 1,-1 0,-14 -1,-1 0,-4 -2,0 -1,-1 0,-4 1,-1 0,-4Z"/>
</svg>