<svg width="256" height="256" xmlns="http://www.w3.org/2000/svg"><script> 
var tempColor;
function hoverPath(evt){
obj = evt.target;
tempColor = obj.getAttribute("fill");
obj.setAttribute("fill","red");
//alert(tempColor);
//obj.setAttribute("stroke","red");}
function recoverPath(evt){
obj = evt.target;
obj.setAttribute("fill", tempColor);
//obj.setAttribute("stroke", tempColor);
}</script><path onmouseover="hoverPath(evt)" onmouseout="recoverPath(evt)" fill="rgb(243,243,235)" d="M  0,4l 0,27 3,0 1,-1 9,0 1,-1 2,0 1,1 14,0 1,1 4,0 1,1 2,0 1,1 1,0 1,1 2,0 1,1 1,0 1,1 2,0 1,1 2,0 1,1 5,0 1,1 6,0 1,1 7,0 1,1 11,0 0,-6 1,-1 3,0 0,-2 1,-1 2,0 0,-4 1,-1 1,-1 0,-1 1,-1 6,0 0,-5 1,-1 1,-1 1,-1 1,-1 1,-1 1,-1 1,0 1,-1 3,0 1,1 0,1 1,1 0,1 1,1 1,-1 0,-3 -1,-1 0,-4 -17,0 -1,-1 0,-2 -37,0 -1,-1 -37,0 -1,-1 0,-2 -21,0Z"/>
<path onmouseover="hoverPath(evt)" onmouseout="recoverPath(evt)" fill="rgb(253,253,253)" d="M  0,192l 0,1 6,0 1,1 4,0 1,1 4,0 1,1 4,0 1,1 4,0 1,1 5,0 1,1 5,0 1,1 5,0 1,1 4,0 1,1 3,0 1,1 0,4 1,1 0,-4 1,-1 4,0 1,1 5,0 1,1 4,0 1,1 5,0 1,1 4,0 1,1 8,0 1,-1 1,0 0,-1 1,-1 0,-1 1,-1 0,-4 1,-1 0,-4 1,-1 0,-4 1,-1 0,-3 1,-1 0,-4 1,-1 0,-4 1,-1 0,-3 1,-1 0,-4 1,-1 0,-4 1,-1 0,-3 1,-1 0,-4 1,-1 0,-4 1,-1 0,-4 1,-1 0,-3 1,-1 0,-4 1,-1 0,-5 1,-1 0,-4 1,-1 0,-5 1,-1 0,-4 1,-1 0,-4 1,-1 0,-3 1,-1 0,-3 1,-1 0,-5 1,-1 0,-4 1,-1 0,-5 1,-1 0,-5 1,-1 0,-5 1,-1 0,-3 1,-1 0,-3 1,-1 0,-3 1,-1 0,-4 1,-1 0,-1 1,-1 0,-4 1,-1 6,0 1,1 5,0 1,1 3,0 1,1 4,0 1,1 3,0 1,1 3,0 1,1 -1,-2 -2,0 -1,-1 -4,0 -1,-1 -3,0 -1,-1 -3,0 -1,-1 -5,0 -1,-1 -4,0 -1,-1 -1,0 -1,-1 0,-17 -1,0 0,15 -1,1 0,5 -1,1 0,2 -1,1 0,5 -1,1 0,4 -1,1 0,4 -1,1 0,3 -1,1 0,5 -1,1 0,5 -1,1 0,5 -1,1 0,3 -1,1 0,3 -1,1 -1,1 -4,0 -1,-1 -4,0 -1,-1 -5,0 -1,-1 -5,0 -1,-1 -4,0 -1,-1 -5,0 -1,-1 -5,0 -1,-1 -5,0 -1,-1 -5,0 -1,-1 -1,0 0,1 1,0 1,1 5,0 1,1 5,0 1,1 5,0 1,1 4,0 1,1 5,0 1,1 4,0 1,1 5,0 1,1 4,0 1,1 4,0 1,1 0,7 -1,1 0,4 -1,1 0,4 -1,1 0,4 -1,1 0,5 -1,1 0,4 -1,1 0,1 -1,1 -11,0 0,1 8,0 1,1 1,0 1,1 0,4 -1,1 0,4 -1,1 0,1 -1,1 -1,1 -8,0 -1,-1 -33,0 -1,1 0,1 -1,1 0,3 1,-3 1,-2 33,0 10,1 0,4 -1,1 0,4 -1,1 0,4 -1,1 0,3 -1,1 0,4 -1,1 0,4 -1,1 0,3 -1,1 0,4 -1,1 0,4 -1,1 0,4 -1,1 0,3 -1,1 0,1 -1,1 -1,1 -1,1 -6,0 -1,-1 -5,0 -1,-1 -4,0 -1,-1 -5,0 -1,-1 -4,0 -1,-1 -3,0 -1,-1 -1,0 -1,-1 0,-28 -1,7 0,20 -1,1 -8,0 -1,-1 -5,0 -1,-1 -5,0 -1,-1 -5,0 -1,-1 -4,0 -1,-1 -4,0 -1,-1 -4,0 -1,-1 -4,0 -1,-1 -4,0 -1,-1 -1,1 95,-58 0,-1 -10,0 -1,-1 -13,0 -1,-1 -11,0 -1,-1 -6,0 -1,-1 -7,0 -1,-1 -6,0 -1,-1 -7,0 -1,-1 -8,0 -1,-1 0,2 8,0 1,1 7,0 1,1 7,0 1,1 6,0 1,1 7,0 1,1 10,0 1,1 13,0 1,1 11,0 -95,58Z"/>
<path onmouseover="hoverPath(evt)" onmouseout="recoverPath(evt)" fill="rgb(240,239,230)" d="M  18,120l -1,0 0,1 1,0 1,1 0,1 1,0 1,1 8,0 1,1 7,0 1,1 6,0 1,1 7,0 1,1 6,0 1,1 11,0 1,1 13,0 1,1 10,0 1,1 9,0 0,-1 1,-1 0,-4 1,-1 0,-5 1,-1 0,-4 1,-1 0,-4 1,-1 0,-4 1,-1 0,-5 -4,0 -1,-1 -4,0 -1,-1 -5,0 -1,-1 -4,0 -1,-1 -5,0 -1,-1 -4,0 -1,-1 -5,0 -1,-1 -5,0 -1,-1 -5,0 -1,-1 -1,0 -1,-1 0,-3 1,-1 2,0 -3,-1 0,-2 -1,-1 -1,-1 -1,-1 -1,0 -1,-1 -1,0 -1,-1 -1,-1 -1,0 -1,-1 -1,0 -1,-1 -1,-1 -4,0 -1,1 0,3 -1,1 0,4 -1,1 -4,0 0,1 -1,1 -6,0 -1,-1 -5,0 0,1 -1,1 0,2 -1,1 0,5 -1,1 0,3 -1,1 -3,0 0,3 -1,1 -2,0 0,2 -1,1 0,2 -1,1 -3,0 -1,1 -1,1 -1,1 0,2 9,0 0,-2 1,-1 2,0 1,1 0,3 7,0 1,1 0,4 -1,1 -4,0 -1,-1Z"/>
<path onmouseover="hoverPath(evt)" onmouseout="recoverPath(evt)" fill="rgb(244,243,235)" d="M  57,208l 0,38 1,1 0,1 4,0 1,1 78,0 1,-1 5,0 1,-1 6,0 1,-1 5,0 1,-1 6,0 1,-1 5,0 1,-1 5,0 0,-2 1,-1 0,-5 1,-1 0,-5 1,-1 0,-3 1,-1 0,-2 -1,-1 0,-2 -1,-1 0,-1 -1,-1 0,-1 -1,-1 -1,-1 -1,-1 -1,-1 0,-1 -1,-1 0,-1 -1,-1 0,-5 -1,-1 0,-3 1,-1 0,-5 1,-1 0,-14 -1,-1 0,-5 -1,-1 0,-5 -1,-1 0,-3 -1,-1 0,-3 -1,-1 0,-4 -1,-1 0,-2 -1,-1 0,-1 -1,-1 -1,0 -1,-1 -1,-1 -1,0 -1,-1 0,-1 -2,0 -1,-1 -1,-1 -1,0 -1,-1 -1,0 -1,-1 -1,-1 -1,-1 -1,-1 -1,-1 0,-1 -1,-1 -1,-1 0,-1 -1,-1 0,-1 -1,-1 -1,-1 0,-1 -1,-1 0,-1 -1,-1 0,-2 -1,-1 0,-1 -1,-1 0,-8 1,-1 0,-1 1,-1 0,-2 1,-1 0,-2 1,-1 0,-1 1,-1 0,-2 1,-1 0,-1 1,-1 0,-2 1,-1 0,-2 1,-1 0,-24 -1,-1 -1,0 -1,-1 -2,0 -1,-1 -1,-1 -1,-1 -1,-1 -1,-1 -1,0 -1,-1 -1,-1 -1,-1 -2,0 -1,-1 -4,0 -1,-1 0,1 -1,1 0,4 -1,1 0,3 -1,1 0,3 -1,1 0,3 -1,1 0,5 -1,1 0,5 -1,1 0,5 -1,1 0,4 -1,1 0,5 -1,1 0,3 -1,1 0,3 -1,1 0,4 -1,1 0,4 -1,1 0,5 -1,1 0,4 -1,1 0,5 -1,1 0,4 -1,1 0,3 -1,1 0,4 -1,1 0,4 -1,1 0,4 -1,1 0,3 -1,1 0,4 -1,1 0,4 -1,1 0,3 -1,1 0,4 -1,1 0,4 -1,1 0,3 -1,1 0,4 -1,1 0,4 -1,1 0,4 -1,1 0,1 -1,1 0,1 -1,1 -1,0 -1,1 -10,0 -1,-1 -4,0 -1,-1 -5,0 -1,-1 -4,0 -1,-1 -5,0 -1,-1 -2,0Z"/>
<path onmouseover="hoverPath(evt)" onmouseout="recoverPath(evt)" fill="rgb(230,230,222)" d="M  92,33l -1,0 0,2 -1,1 -3,0 0,5 1,-1 1,0 1,-1 3,0 1,-1 4,0 1,1 6,0 1,1 1,1 5,0 1,1 4,0 1,1 5,0 1,1 0,-5 1,-1 0,-31 -1,-1 -1,0 -1,-1 -1,0 -1,-1 -1,0 -1,1 -19,0 18,1 0,4 1,1 0,5 -1,1 -1,1 -2,0 -1,-1 -1,-1 0,-1 -1,-1 0,-1 -1,0 -1,1 -1,0 -1,1 -1,1 -1,1 -1,1 -1,1 0,5 -1,1 -6,0 0,1 -1,1 -1,1 0,4 -1,1Z"/>
<path onmouseover="hoverPath(evt)" onmouseout="recoverPath(evt)" fill="rgb(243,242,236)" d="M  178,158l 0,-5 1,-1 -1,0 -1,-1 -1,-1 0,-7 -1,-1 0,-4 -1,-1 0,-2 -1,-1 0,-3 -1,-1 0,-6 -1,-1 0,-4 -1,-1 0,-4 -1,-1 0,-3 -1,-1 0,-5 -1,-1 -1,-1 0,-8 1,-1 -1,0 -1,-1 0,-2 -1,-1 0,-3 -1,-1 0,-6 1,-1 0,-1 -1,0 -1,-1 0,-4 1,-1 0,-1 -1,0 -1,-1 0,-4 1,-1 -1,0 -1,-1 0,-4 1,-1 -2,0 0,2 -1,1 0,13 -1,1 0,13 -1,1 0,3 -1,1 0,3 -1,1 0,1 -1,1 0,2 -1,1 0,1 -1,1 0,1 -1,1 0,1 -1,1 0,1 -2,2 0,2 3,-5 4,0 1,-1 8,0 1,1 1,1 1,1 0,2 1,1 0,2 1,1 0,2 1,1 0,2 1,1 0,2 1,1 0,4 -1,1 -1,0 -1,1 -2,0 -1,-1 -5,0 -1,-1 -3,0 -1,-1 -1,-1 -1,-1 1,2 0,0 1,1 0,1 1,1 1,1 1,1 1,1 1,1 1,0 1,1 1,1 1,1 1,0 1,1 0,1 2,0 1,1 1,0 1,1 1,1 1,1 1,1 0,2 1,1 0,3 1,1 0,3 1,1 0,1 1,1 -1,1 0,1 1,1 0,3 1,1 0,1 1,0 0,-2 1,-1 -2,0 -1,-3 -1,-1 1,-1Z"/>
<path onmouseover="hoverPath(evt)" onmouseout="recoverPath(evt)" fill="rgb(232,226,233)" d="M  182,186l 0,1 -1,1 0,10 1,1 0,5 1,1 0,1 1,1 0,1 1,1 0,1 1,1 0,1 1,1 0,1 1,1 0,3 1,1 0,14 -1,1 0,2 -1,1 0,2 -1,1 0,2 1,-1 4,0 -1,-1 0,-2 1,-1 0,-1 1,-1 0,-6 -1,-1 0,-7 -1,-1 0,-2 -1,0 -7,-32 6,28 0,-2 1,-1 0,-1 -1,0 -1,-1 0,-5 1,-1 -1,0 -1,-1 0,-4 1,-1 -1,0 -1,-1 0,-4 1,-1 -1,0 -1,-1 0,-4 1,-1 -1,0 -1,-1 0,-2 -1,-1 0,-3 1,-1 1,0 0,-1 -1,-1 0,-1 -1,0 -1,-1 0,7 7,34 -6,-28Z"/>
<path onmouseover="hoverPath(evt)" onmouseout="recoverPath(evt)" fill="rgb(244,243,235)" d="M  209,246l 0,1 -1,1 0,1 1,0 1,1 0,5 45,0 0,-21 -5,0 -1,1 -6,0 -1,1 -6,0 -1,1 -6,0 -1,1 -6,0 -1,1 -6,0 -1,1 -5,0 0,1 1,1 0,2 -1,1Z"/>
<path onmouseover="hoverPath(evt)" onmouseout="recoverPath(evt)" fill="rgb(244,243,235)" d="M  233,30l 0,1 -1,1 0,16 -1,1 0,3 -1,1 0,1 -1,1 -1,1 -4,0 0,1 4,0 1,1 1,0 1,1 1,1 0,1 1,1 0,6 -1,1 0,6 -1,1 0,5 -1,1 0,3 -1,1 0,2 -1,1 0,4 1,1 0,0 1,1 1,0 1,1 7,0 1,-1 7,0 1,-1 7,0 0,-67 -20,0 -1,1 -1,0Z"/>
<path onmouseover="hoverPath(evt)" onmouseout="recoverPath(evt)" fill="rgb(242,241,234)" d="M  0,39l 0,85 3,0 1,1 6,0 1,1 0,2 6,0 0,-5 -1,0 -1,-1 0,-3 1,-1 5,0 1,1 2,0 0,-2 -7,0 -1,-1 0,-3 -1,3 -11,0 -1,-1 0,-4 1,-1 1,-1 2,-2 3,0 0,-2 1,-1 0,-2 1,-1 2,0 0,-3 1,-1 3,0 0,-3 1,-1 0,-5 1,-1 0,-2 1,-1 0,-1 1,-1 7,0 1,1 4,0 0,-1 1,-1 4,0 0,-4 1,-1 0,-3 1,-1 1,-1 6,0 1,1 1,1 1,0 1,1 1,0 1,1 1,1 1,0 1,1 1,0 1,1 1,1 1,1 1,1 0,2 2,0 1,1 0,2 5,0 1,1 5,0 1,1 5,0 1,1 5,0 1,1 4,0 1,1 5,0 1,1 5,0 1,1 4,0 1,1 2,0 1,-1 0,-3 1,-1 0,-3 1,-1 0,-5 1,-1 0,-5 1,-1 0,-5 1,-1 0,-3 1,-1 0,-4 1,-1 0,-4 1,-1 0,-3 -1,0 -1,-1 -4,0 -1,-1 -4,0 -1,-1 -3,0 -1,-1 -5,0 -1,-1 -5,0 -1,1 -1,0 -1,1 -18,0 -1,-1 -5,0 -1,-1 -10,0 -1,-1 -5,0 -1,-1 -2,0 -1,-1 -2,0 -1,-1 -2,0 -1,-1 -3,0 -1,-1 -1,0 -1,-1 -2,0 -1,-1 -6,0 -1,-1 -16,0 -1,1 -3,0 -1,1 -3,0 -1,1Z"/>
<path onmouseover="hoverPath(evt)" onmouseout="recoverPath(evt)" fill="rgb(243,242,234)" d="M  0,129l 0,60 2,0 1,1 4,0 1,1 4,0 1,1 4,0 1,1 4,0 1,1 4,0 1,1 5,0 1,1 5,0 1,1 5,0 1,1 6,0 1,-1 0,-6 -1,-1 0,-12 1,-1 0,-6 1,-1 0,-4 1,-1 0,-4 1,-1 0,-4 1,-1 0,-4 1,-1 0,-1 1,-1 1,-1 35,0 1,1 6,0 1,-1 0,-1 1,-1 0,-4 1,-1 0,-2 -1,0 -1,-1 -8,0 -1,-1 -11,0 -1,-1 -13,0 -1,-1 -10,0 -1,-1 -7,0 -1,-1 -6,0 -1,-1 -7,0 -1,-1 -7,0 -1,-1 -7,0 -1,1 -8,0 -1,-1 0,-2 -6,0 -1,-1 -2,0Z"/>
<path onmouseover="hoverPath(evt)" onmouseout="recoverPath(evt)" fill="rgb(243,242,233)" d="M  0,197l 0,50 28,0 1,1 24,0 0,-39 -1,-1 0,-4 -3,0 -1,-1 -4,0 -1,-1 -5,0 -1,-1 -5,0 -1,-1 -5,0 -1,-1 -4,0 -1,-1 -4,0 -1,-1 -4,0 -1,-1 -4,0 -1,-1 -5,0Z"/>
<path onmouseover="hoverPath(evt)" onmouseout="recoverPath(evt)" fill="rgb(250,250,246)" d="M  1,249l -1,0 0,1 24,0 1,1 27,0 1,1 40,0 1,1 0,2 40,0 0,-2 1,-1 8,0 1,-1 5,0 1,-1 5,0 1,-1 6,0 1,-1 5,0 1,-1 6,0 1,-1 8,0 1,-1 3,0 1,-1 2,0 0,-1 -3,0 -1,1 -6,0 -1,1 -5,0 -1,1 -5,0 -1,1 -6,0 -1,1 -5,0 -1,1 -6,0 -1,1 -5,0 -1,1 -80,0 -1,-1 -4,0 -1,-1 0,-1 -1,0 0,1 -1,1 -26,0 -1,-1Z"/>
<path onmouseover="hoverPath(evt)" onmouseout="recoverPath(evt)" fill="rgb(233,233,213)" d="M  31,253l -7,0 -1,-1 -23,0 0,3 92,0 0,-1 -40,0 -1,-1Z"/>
<path onmouseover="hoverPath(evt)" onmouseout="recoverPath(evt)" fill="rgb(243,242,233)" d="M  62,153l -1,1 0,2 -1,1 -2,0 0,4 -1,1 0,4 -1,1 0,3 1,1 0,28 1,0 1,1 3,0 1,1 4,0 1,1 5,0 1,1 4,0 1,1 5,0 1,1 4,0 1,-1 0,0 1,-1 0,-1 1,-1 0,-3 1,-1 0,-4 1,-1 0,-4 1,-1 0,-4 1,-1 0,-3 1,-1 0,-4 1,-1 0,-4 1,-1 0,-3 1,-1 0,-4 1,-1 0,-4 1,-1 0,-2 -11,0 -1,-1 -27,0 -1,1Z"/>
<path onmouseover="hoverPath(evt)" onmouseout="recoverPath(evt)" fill="rgb(170,198,238)" d="M  68,43l 0,0 1,1 4,0 0,-1 -1,-1 -3,0 -1,1 -2,0 -1,-1 0,0 -1,-1 -6,0 -1,-1 -5,0 -1,-1 -2,0 -1,-1 -2,0 -1,-1 -1,0 -1,-1 -2,0 -1,-1 -1,0 -1,-1 -2,0 -1,-1 -4,0 -1,-1 -14,0 -1,-1 -1,1 -9,0 -1,1 -4,0 0,3 3,0 1,-1 3,0 1,-1 18,0 1,1 6,0 1,1 2,0 1,1 1,0 1,1 3,0 1,1 2,0 1,1 2,0 1,1 2,0 1,1 5,0 1,1Z"/>
<path onmouseover="hoverPath(evt)" onmouseout="recoverPath(evt)" fill="rgb(177,199,229)" d="M  89,42l 0,0 -1,1 -13,0 0,2 16,0 1,-1 1,0 1,-1 7,0 1,1 5,0 1,1 3,0 1,1 4,0 1,1 4,0 1,1 1,-1 0,-1 -1,-1 -5,0 -1,-1 -4,0 -1,-1 -5,0 -1,-1 -1,-1 -6,0 -1,-1 -2,0 -1,1 -3,0 -1,1Z"/>
<path onmouseover="hoverPath(evt)" onmouseout="recoverPath(evt)" fill="rgb(250,250,246)" d="M  123,3l 0,0 1,1 1,0 1,1 1,1 0,3 2,0 -1,-1 0,-3 -2,-2 -1,-1 0,-2 -102,0 0,1 37,0 1,1 37,0 1,1 18,0 1,-1 3,0 1,1Z"/>
<path onmouseover="hoverPath(evt)" onmouseout="recoverPath(evt)" fill="rgb(242,241,230)" d="M  130,0l -3,0 0,1 1,1 1,1 1,1 0,3 1,1 0,2 -1,1 -3,0 0,11 2,0 1,1 0,17 1,0 1,1 4,0 1,1 5,0 1,1 3,0 1,1 3,0 1,1 4,0 1,1 1,0 0,-4 -1,-1 0,-11 1,-1 0,-2 -1,0 -1,-1 0,-5 1,-1 0,-1 -1,0 -1,-1 -1,-1 0,-7 1,-1 0,-4 -1,-1 0,0 -1,-1 0,-3Z"/>
<path onmouseover="hoverPath(evt)" onmouseout="recoverPath(evt)" fill="rgb(230,230,225)" d="M  147,253l -2,0 -1,1 -8,0 0,1 56,0 0,-4 2,-2 0,-2 -1,-1 0,-4 -1,4 -2,0 -1,1 -3,0 -1,1 -8,0 -1,1 -6,0 -1,1 -5,0 -1,1 -6,0 -1,1 -5,0 -1,1Z"/>
<path onmouseover="hoverPath(evt)" onmouseout="recoverPath(evt)" fill="rgb(181,157,238)" d="M  156,0l -2,0 0,2 1,1 0,0 1,1 0,6 -1,1 0,5 1,1 1,0 1,1 0,3 -1,1 0,3 1,0 1,1 0,4 -1,1 0,9 1,1 0,7 1,1 0,2 -1,1 -2,0 -1,-1 -3,0 -1,-1 -3,0 -1,-1 -4,0 -1,-1 -3,0 -1,-1 -5,0 -1,-1 -4,0 0,3 1,1 4,0 1,1 2,0 1,1 1,1 1,1 1,0 1,1 1,1 1,1 1,1 1,1 2,0 1,1 1,0 1,1 1,1 0,26 -1,1 0,2 -1,1 0,2 -1,1 0,1 -1,1 0,2 -1,1 0,1 -1,1 0,2 -1,1 0,2 -1,1 0,1 -1,1 0,6 1,1 0,1 1,1 0,2 1,1 0,1 1,1 0,1 1,1 1,1 0,1 1,1 0,1 1,1 1,1 0,1 1,1 1,1 1,1 1,1 1,0 1,1 1,0 1,1 1,1 2,0 1,1 0,1 1,0 1,1 1,1 1,0 1,1 1,1 0,1 1,1 0,2 1,1 0,4 1,1 0,3 1,1 0,3 1,1 0,5 1,1 0,5 1,1 0,16 -1,1 0,5 -1,1 0,1 1,1 0,5 1,1 0,1 1,1 0,1 1,1 1,1 1,1 1,1 0,1 1,1 0,1 1,1 0,2 1,1 0,4 -1,1 0,3 -1,1 0,5 -1,1 0,5 -1,1 3,0 0,-3 1,-1 0,-2 1,-1 0,-2 1,-1 0,-12 -1,-1 0,-3 -1,-1 0,-1 -1,-1 0,-1 -1,-1 0,-1 -1,-1 0,-1 -1,-1 0,-1 -1,-1 0,-5 -1,-1 0,-12 1,-1 0,-4 -1,-1 0,-9 1,-1 2,0 1,1 1,0 1,1 0,1 1,1 0,3 -1,1 -1,0 0,1 1,1 0,2 1,0 1,1 0,2 -1,1 0,2 1,0 1,1 0,2 -1,1 0,2 1,0 1,1 0,2 -1,1 0,2 1,0 1,1 0,2 -1,1 0,3 1,0 1,1 0,3 -1,1 0,3 1,0 1,1 0,2 1,1 0,7 1,1 0,8 -1,1 0,1 -1,1 1,1 1,0 1,1 0,4 1,1 0,4 -1,1 -1,1 0,3 14,0 0,-4 -1,0 -1,-1 0,-3 1,-1 0,-2 1,-1 -1,-1 0,-4 -1,-1 0,-2 -1,-1 0,-1 -1,-1 0,-3 1,-1 0,-7 -1,-1 0,-5 -1,0 -1,-1 0,-3 1,-1 0,-4 -1,0 -1,-1 0,-3 1,-1 0,-2 -1,0 -1,-1 0,-3 1,-1 0,-5 -1,-1 0,-3 -1,0 -1,-1 0,-2 1,-1 0,-2 -1,0 -1,-1 0,-3 1,-1 0,-5 -1,-1 0,-2 -1,0 -1,-1 0,-3 1,-1 0,-3 -1,-1 0,-5 -1,-1 0,-2 -1,0 -1,-1 0,-2 1,-1 0,-1 -1,0 -1,-1 0,-2 1,-1 0,-3 -1,-1 0,-5 -1,-1 -1,0 -1,-1 0,-2 1,-1 0,-3 -1,-1 0,-5 -1,-1 -1,0 -1,-1 0,-2 1,-1 0,-3 -1,-1 0,-5 -1,-1 0,-2 -1,-1 0,-4 -1,-1 0,-5 -1,-1 0,-3 -1,-1 0,-2 -1,0 -1,-1 0,-2 1,-1 0,-4 -1,-1 0,-4 -1,-1 0,-3 -1,0 -1,-1 0,-2 1,-1 0,-1 -1,0 -1,-1 0,-2 -1,-1 0,-3 1,-1 1,0 -1,-1 0,-7 -1,-1 0,-2 1,-1 1,0 0,-2 -3,0 -1,-1 0,-2 1,-1 0,-3 -1,0 -1,-1 0,-3 1,-1 0,-2 -1,-1 0,-2 1,-1 0,-5 -1,-1 0,-8 -1,-1 0,-4 1,-1 -14,0 20,165 0,-3 -1,-1 0,-4 -1,-1 0,-3 -1,-1 0,-3 -1,-1 0,-2 -1,-1 -1,-1 -1,-1 -1,0 -1,-1 -1,0 1,1 2,1 1,1 6,20 -20,-165 21,166 0,1 1,1 3,0 1,-1 0,0 -5,-1 -21,-166 6,139 -1,-1 -1,-1 -1,0 -1,-1 -1,-1 -1,-1 -1,-1 -1,-1 -1,-1 0,-1 -1,-1 0,-1 -1,-1 0,-2 1,-1 2,0 1,1 1,1 1,1 3,0 1,1 5,0 1,1 1,-1 1,0 0,-2 -1,-1 0,-2 -1,-1 0,-2 -1,-1 0,-2 -1,-1 0,-2 -1,-1 0,-2 -1,-1 -1,-1 -6,0 -1,1 -4,0 -1,1 -1,1 0,2 -1,1 -2,0 -1,-1 0,-4 1,-1 1,-1 0,-1 1,-1 0,-1 1,-1 0,-1 1,-1 0,-1 1,-1 0,-2 1,-1 0,-1 1,-1 0,-3 1,-1 0,-3 1,-1 0,-13 1,-1 0,-13 1,-1 0,-2 1,-1 4,0 1,1 0,2 -1,1 0,2 1,0 1,1 0,2 -1,1 0,2 1,0 1,1 0,3 -1,1 0,2 1,0 1,1 0,3 -1,1 0,4 1,1 0,3 1,1 0,2 1,0 1,1 0,2 -1,1 0,6 1,1 0,0 1,1 0,5 1,1 0,3 1,1 0,4 1,1 0,4 1,1 0,6 1,1 0,3 1,1 0,2 1,1 0,4 1,1 0,7 1,1 1,0 1,1 0,2 -1,1 0,7 2,0 1,1 0,2 -1,1 -20,-26 -6,-139Z"/>
<path onmouseover="hoverPath(evt)" onmouseout="recoverPath(evt)" fill="rgb(237,234,224)" d="M  177,3l 0,-1 1,-1 13,0 0,-1 -19,0 0,1 -1,1 0,2 1,1 0,8 1,1 0,7 -1,1 1,1 0,4 -1,1 0,1 1,0 1,1 0,5 -1,1 2,0 0,-6 1,-1 0,-20 1,-1Z"/>
<path onmouseover="hoverPath(evt)" onmouseout="recoverPath(evt)" fill="rgb(253,253,253)" d="M  178,12l 0,0 1,-1 0,-6 1,-1 1,0 1,-1 -3,0 0,1 -1,6 0,2 -1,20 0,9 -1,1 0,8 1,1 0,1 1,0 1,1 8,0 1,1 14,0 1,1 19,0 1,-1 4,0 1,-1 0,-1 1,-1 0,-3 1,-1 0,-16 1,-1 0,-3 1,-1 1,0 1,-1 21,0 0,-1 -23,0 -1,-1 0,-12 1,-1 0,-7 1,-1 1,0 1,-1 16,0 0,-1 -28,0 0,1 6,0 1,1 0,1 1,1 0,4 -1,1 0,14 -1,1 0,21 -1,1 0,4 -1,1 -1,0 0,1 -1,1 -27,0 -1,-1 -16,0 -1,-1 -1,0 -1,-1 -1,-1 0,-17 1,-20Z"/>
<path onmouseover="hoverPath(evt)" onmouseout="recoverPath(evt)" fill="rgb(173,198,234)" d="M  179,58l 2,0 1,1 4,0 1,1 3,0 1,-1 20,0 1,1 5,0 1,1 4,0 1,1 1,1 1,1 1,1 0,8 -1,1 0,3 -1,1 0,3 -1,1 0,3 -1,1 0,10 1,1 0,1 1,0 1,1 1,1 2,0 1,1 9,0 1,-1 6,0 1,-1 9,0 0,-3 -6,0 -1,1 -7,0 -1,1 -9,0 -1,-1 -1,0 -1,-1 -1,-1 -1,-1 0,-6 1,-1 0,-2 1,-1 0,-3 1,-1 0,-5 1,-1 0,-6 1,-1 0,-4 -1,-1 0,-1 -1,-1 -1,0 -1,-1 -4,0 -1,-1 0,-1 -20,0 -1,-1 -14,0 -1,-1 -8,0 -1,-1 -2,0 0,1 1,1 0,2Z"/>
<path onmouseover="hoverPath(evt)" onmouseout="recoverPath(evt)" fill="rgb(244,243,236)" d="M  178,61l 0,1 -1,1 1,0 1,1 0,3 1,1 0,4 1,1 0,6 -1,1 1,0 1,1 0,2 1,1 0,3 1,1 0,5 1,1 0,4 1,1 0,2 1,1 0,5 1,1 0,5 -1,1 1,0 1,1 1,1 0,5 1,1 0,5 -1,1 1,0 1,1 0,0 1,1 0,5 1,1 0,5 -1,1 1,0 1,1 0,3 -1,1 1,0 1,1 0,2 1,1 0,5 1,1 0,5 -1,1 0,1 1,0 1,1 0,2 1,1 0,7 -1,1 0,1 1,0 1,1 0,4 -1,1 1,0 1,1 0,3 1,1 0,7 -1,1 0,1 1,0 1,1 0,4 -1,1 0,1 1,0 1,1 0,6 -1,1 0,1 1,0 1,1 0,5 1,1 0,9 -1,1 0,1 1,1 0,1 1,1 0,2 1,1 0,1 4,0 1,-1 6,0 1,-1 6,0 1,-1 6,0 1,-1 6,0 1,-1 6,0 1,-1 6,0 0,-131 -8,0 -1,1 -6,0 -1,1 -11,0 -1,-1 -2,0 -1,-1 -1,-1 -1,0 -1,-1 0,-1 -1,-1 0,-12 1,-1 0,-3 1,-1 0,-3 1,-1 0,-3 1,-1 0,-6 -1,-1 -1,-1 -1,-1 -4,0 -1,-1 -5,0 -1,-1 -18,0 -1,1 -5,0 -1,-1 -4,0 -1,-1 -1,0 -1,1 16,1 11,0 1,1 7,0 1,1 1,1 1,1 0,4 -1,1 0,6 -1,1 0,5 -1,1 0,5 -1,1 0,6 -1,1 0,4 -1,1 -1,1 -2,0 -1,1 -3,0 -1,-1 -7,0 -1,-1 -4,0 -1,-1 -1,-1 0,-11 1,-1 0,-6 1,-1 0,-5 1,-1 0,-6 1,-1 0,-3 1,-1 0,-1 1,-1 -16,-1 29,49 15,0 1,1 1,1 0,1 1,1 0,3 -1,1 0,6 -1,1 0,6 -1,1 0,6 -1,1 0,3 -1,1 -1,1 -12,0 -1,-1 -2,0 -1,-1 -1,-1 0,-1 -1,-1 0,-4 -1,-1 0,-4 -1,-1 0,-4 -1,-1 0,-3 -1,-1 0,-4 -1,-1 0,-2 1,-1 1,-1 1,0 1,-1 7,0 -29,-49Z"/>
<path onmouseover="hoverPath(evt)" onmouseout="recoverPath(evt)" fill="rgb(242,240,231)" d="M  182,6l -1,0 0,6 -1,1 0,23 -1,1 0,11 1,1 1,0 1,1 10,0 0,-19 -1,-1 0,-25 -8,0 -1,1Z"/>
<path onmouseover="hoverPath(evt)" onmouseout="recoverPath(evt)" fill="rgb(242,241,234)" d="M  192,3l 1,1 2,0 1,-1 7,0 1,-1 17,0 0,-2 -28,0 0,2 -1,1Z"/>
<path onmouseover="hoverPath(evt)" onmouseout="recoverPath(evt)" fill="rgb(170,198,237)" d="M  193,7l 0,22 1,1 0,20 3,0 0,-21 -1,-1 0,-18 -1,-1 0,-3 -1,0 -1,1Z"/>
<path onmouseover="hoverPath(evt)" onmouseout="recoverPath(evt)" fill="rgb(170,198,238)" d="M  195,65l 0,0 -1,1 0,3 -1,1 0,6 -1,1 0,5 -1,1 0,6 -1,1 0,9 1,1 4,0 1,1 7,0 1,1 1,0 1,-1 2,0 1,-1 0,-4 1,-1 0,-6 1,-1 0,-5 1,-1 0,-5 1,-1 0,-6 1,-1 0,-2 -1,-1 0,0 -1,-1 -7,0 -1,-1 -8,0 -1,1Z"/>
<path onmouseover="hoverPath(evt)" onmouseout="recoverPath(evt)" fill="rgb(243,242,233)" d="M  197,7l 0,1 1,1 0,18 1,1 0,23 25,0 0,-1 1,-1 1,0 0,-4 1,-1 0,-21 1,-1 0,-14 1,-1 0,-2 -1,-1 0,-1 -5,0 -1,1 -17,0 -1,1 -7,0Z"/>
<path onmouseover="hoverPath(evt)" onmouseout="recoverPath(evt)" fill="rgb(170,198,238)" d="M  200,113l -1,0 -1,1 1,1 0,4 1,1 0,3 1,1 0,4 1,1 0,4 1,1 0,4 1,1 0,1 1,1 2,0 1,1 10,0 1,-1 0,-3 1,-1 0,-6 1,-1 0,-6 1,-1 0,-6 1,-1 0,-1 -1,-1 0,-1 -1,-1 -20,0 -1,1Z"/>
<path onmouseover="hoverPath(evt)" onmouseout="recoverPath(evt)" fill="rgb(241,240,229)" d="M  237,3l -1,0 -1,1 -1,0 0,7 -1,1 0,10 22,0 0,-22 -2,0 0,2 -1,1Z"/>
</svg>