<svg width="256" height="256" xmlns="http://www.w3.org/2000/svg"><script> 
var tempColor;
function hoverPath(evt){
obj = evt.target;
tempColor = obj.getAttribute("fill");
obj.setAttribute("fill","red");
//alert(tempColor);
//obj.setAttribute("stroke","red");}
function recoverPath(evt){
obj = evt.target;
obj.setAttribute("fill", tempColor);
//obj.setAttribute("stroke", tempColor);
}</script><path onmouseover="hoverPath(evt)" onmouseout="recoverPath(evt)" fill="rgb(239,240,236)" d="M  2,78l 0,0 -1,-1 -1,0 0,12 2,0 1,1 1,1 1,0 1,1 1,1 1,0 1,1 1,1 1,0 1,1 0,4 -1,1 -1,1 -1,1 4,-5 1,0 1,-1 1,-1 1,0 1,-1 1,0 0,-1 1,-1 1,-1 1,-1 1,0 2,-2 1,-1 1,-1 1,0 1,-1 1,-1 1,-1 1,0 0,-1 1,-1 1,-1 1,-1 1,0 1,-1 1,0 1,-1 1,-1 0,-5 -1,-1 0,0 -1,-1 -1,-1 -1,-1 -1,0 -1,-1 0,-1 -1,-1 0,-2 1,-1 -1,-1 0,-1 -1,0 -1,-1 -1,-1 -1,-1 -1,-1 -1,-1 -1,-1 -1,-1 -1,-1 0,-1 -1,-1 -1,-1 -1,-1 0,-1 -1,-1 0,-3 -2,0 -1,1 -2,0 -1,1 -1,1 -2,0 -1,-1 0,-1 -1,-1 -1,-1 -1,0 -1,-1 0,-1 -1,-1 -1,-1 0,-1 -1,-1 -1,-1 0,-1 -1,-1 -1,0 0,23 1,0 1,-1 0,0 1,-1 1,0 1,-1 1,-1 5,0 1,1 1,1 1,1 1,1 1,1 1,1 1,1 1,0 1,1 1,1 1,1 0,3 -1,1 -1,0 -1,1 -1,1 -1,1 -1,1 -1,0 -1,1 -1,1 -1,1 -1,1 -1,0 -1,1 -1,1 -1,1 -1,1Z"/>
<path onmouseover="hoverPath(evt)" onmouseout="recoverPath(evt)" fill="rgb(241,240,234)" d="M  25,37l 0,0 -1,1 -1,1 -1,0 0,1 -1,1 1,1 0,3 1,1 0,1 1,1 1,1 1,1 0,1 1,1 1,1 1,1 1,1 1,1 1,1 1,1 1,0 1,1 0,1 1,1 0,1 1,0 1,1 0,1 1,1 1,1 1,0 0,-2 1,-1 1,-1 1,0 1,-1 1,-1 4,0 1,1 1,0 1,1 0,1 1,1 0,3 1,-1 3,0 0,-3 1,-1 0,-1 1,-1 0,-1 1,-1 1,0 1,-1 1,-1 1,0 0,-1 1,-1 1,-1 2,0 0,-5 1,-1 1,-1 1,-1 2,0 1,-1 1,0 1,-1 4,0 0,-1 1,-1 0,-6 1,-1 1,0 0,-1 -1,0 -1,-1 -1,-1 -1,-1 -1,-1 -1,-1 -1,-1 -1,-1 -1,-1 -1,-1 -1,0 -1,-1 0,-1 -1,-1 -1,-1 0,-1 -1,-1 -1,-1 -1,-1 0,-1 -1,-1 -2,-2 0,-1 -1,0 -1,1 -2,0 -1,1 -1,1 -1,0 -1,1 0,2 1,1 0,0 1,1 1,1 1,1 1,1 1,1 1,0 1,1 1,1 0,2 -1,1 -3,0 -1,-1 -1,0 -1,-1 0,-1 -1,-1 -1,-1 -1,-1 -1,-1 -1,-1 -1,-1 -1,1 -1,0 0,1 -1,1 -2,0 -1,1 -1,1 -1,0 -1,1 -1,1 -1,1 -1,1 -1,0 -1,1 0,1 -1,1 -2,0 -1,-1 -1,1 0,0 -1,1 -2,0 0,1 -1,1 -1,1 -1,1 -1,0 -1,1Z"/>
<path onmouseover="hoverPath(evt)" onmouseout="recoverPath(evt)" fill="rgb(243,243,236)" d="M  163,160l 0,2 1,1 1,1 0,1 1,1 1,1 0,1 1,1 0,1 1,1 1,1 0,1 1,1 0,1 1,1 1,1 0,1 1,1 0,1 1,1 1,1 0,1 1,1 1,1 0,1 1,-2 0,0 2,-2 1,0 1,-1 1,0 1,-1 1,0 1,-1 3,0 1,1 1,1 0,1 1,1 1,1 2,0 0,-1 -1,-1 0,0 -1,-1 0,-1 -1,-1 0,-2 1,-1 1,-1 1,0 1,-1 1,0 1,-1 1,0 1,-1 1,0 1,-1 1,-1 4,0 1,1 1,1 1,1 0,1 1,1 1,1 0,1 1,1 1,1 0,1 1,1 0,2 1,1 5,0 1,-1 1,-1 1,-1 1,-1 1,-1 1,0 1,-1 1,0 0,-1 1,-1 1,0 1,-1 1,-1 1,0 1,-1 1,-1 1,0 1,-1 1,0 1,-1 1,-1 1,0 1,-1 1,-1 2,0 1,1 0,7 1,1 0,1 1,1 1,1 1,1 0,1 1,1 1,1 0,1 1,0 0,-106 -1,0 -1,1 -1,0 -1,1 -1,0 -1,1 -1,0 -1,1 -2,0 -1,1 -1,0 0,1 -1,1 -1,0 -1,1 -1,0 -1,1 -1,0 -1,1 -2,0 0,1 -1,1 -3,0 -1,1 -1,1 -1,0 -1,1 -1,0 -1,1 -2,0 0,1 -1,1 -1,0 -1,1 -1,0 -1,1 -1,0 0,1 1,1 0,2 1,0 1,1 1,1 1,1 2,2 1,1 1,1 1,1 0,1 1,1 1,1 1,1 0,1 1,1 1,1 0,1 1,1 1,1 1,1 0,1 1,1 0,1 1,1 0,2 -2,2 -1,1 -2,0 -1,-1 -1,0 -1,-1 0,-1 -1,-1 -1,-1 -1,-1 0,-1 -1,-1 0,-1 -1,-1 0,-2 -1,-1 0,-1 -1,-1 0,-1 -1,-1 0,-1 -1,-1 -1,-1 -6,0 -1,-1 0,-2 1,-1 1,0 0,-3 -1,-1 -2,0 -1,1 -1,0 -1,1 -1,0 -1,1 -1,0 -1,1 -1,0 -1,1 -1,0 -1,1 -1,0 -1,1 -1,0 -1,1 -1,0 -1,1 -1,0 -1,1 -1,0 -1,1 -1,0 -1,1 -1,0 -1,1 -1,0 -1,1 -1,0 -1,1 -1,0 -1,1 -2,0 -1,1 -1,0 -1,1 -1,0 -1,1 -1,0 -1,1 0,2 -1,1 -2,0 -1,1 -1,1 1,1 0,0 1,1 1,1 0,1 1,1 1,1 1,1 0,1 1,1 0,2 -1,1 -1,1 -1,1 -1,0 -1,1 -2,0 -1,1 -1,0 -1,1 -1,0 -1,1 -1,0 -1,1 -1,0 -1,1 -2,0 -1,-1 -1,-1 -1,-1 0,-1 3,5 1,1 0,0 1,1 0,1 1,1 1,1 0,1 1,1 1,1 1,0 1,-1 3,0 1,1 0,-3 1,-1 1,0 1,-1 1,0 1,-1 1,0 1,-1 2,0 1,-1 1,0 1,-1 1,0 1,-1 2,0 1,-1 1,0 1,-1 1,0 1,-1 2,0 1,-1 1,0 1,-1 2,0 1,-1 1,0 1,-1 2,0 1,-1 1,0 1,-1 3,0 1,-1 3,0 1,-1 1,0 1,-1 1,0 1,-1 5,0 1,1 0,3 -1,1 -1,1 -1,0 -1,1 -1,0 -1,1 -1,0 -1,1 -2,0 -1,1 -1,0 -1,1 -1,0 -1,1 -1,0 -1,1 -2,0 -1,1 -2,0 -1,1 -1,0 0,2 1,1 0,4 -1,1 -2,0 -1,-1 -1,-1 -1,-1 -1,-1 -1,-1 -1,1 -1,0 -1,1 -5,0 -1,1 -3,0 -1,1 -2,0 -1,1 -1,0 -1,1 -5,0 0,1 -1,1 -1,0 -1,1Z"/>
<path onmouseover="hoverPath(evt)" onmouseout="recoverPath(evt)" fill="rgb(240,240,236)" d="M  208,224l 0,2 1,1 1,1 0,4 -1,1 -1,0 0,1 1,0 1,1 0,2 1,1 1,1 0,1 1,1 1,1 1,1 0,1 1,1 1,1 0,1 1,1 1,1 1,1 0,1 1,1 1,1 0,2 33,0 0,-60 -2,0 -1,-1 0,-1 -1,-1 -1,-1 -1,-1 0,-1 -1,-1 -1,-1 0,-1 -1,-1 0,-1 -1,-1 0,-1 -1,-1 -1,-1 0,-1 -1,-1 0,-1 -1,-1 -1,0 0,1 -1,1 -1,1 -1,0 -1,1 -1,0 -1,1 -3,0 -1,-1 -1,1 -1,0 -1,1 -1,1 -1,1 -1,1 0,2 -1,1 -2,0 -1,1 -1,1 -2,0 -1,1 -1,0 -1,1 -1,0 -1,1 -1,0 -1,1 -2,0 0,2 1,1 0,0 1,1 1,1 0,1 1,1 1,1 1,1 0,1 1,1 1,1 0,2 1,0 1,1 1,1 1,1 1,1 0,4 -2,2 -1,0 -1,1 -1,0 -1,1 -1,0 -2,2 -1,0 -1,1 -1,0 -1,1Z"/>
<path onmouseover="hoverPath(evt)" onmouseout="recoverPath(evt)" fill="rgb(243,242,235)" d="M  0,1l 0,30 2,0 1,1 1,1 0,1 1,1 1,1 0,1 1,1 1,1 0,1 1,0 1,1 1,1 1,1 0,1 1,-1 0,0 1,-1 2,0 1,-1 2,0 0,-1 1,-1 0,-1 1,-1 1,0 1,-1 1,-1 1,-1 1,0 1,-1 1,-1 0,-1 1,-1 2,0 1,-1 1,-1 1,0 0,-1 1,-1 0,-1 -1,-1 0,-1 -1,-1 -1,-1 -1,-1 -1,-1 -1,-1 -1,-1 -1,0 -1,-1 0,-1 -1,-1 -1,-1 0,-1 -1,0 -1,-1 0,-1 -1,-1 -1,-1 -1,-1 -1,-1 -1,0 -1,-1 0,-1 -1,-1 0,-3 -14,0 -1,1Z"/>
<path onmouseover="hoverPath(evt)" onmouseout="recoverPath(evt)" fill="rgb(253,253,253)" d="M  0,153l 0,2 1,0 1,-1 1,0 0,-1 1,-1 1,-1 1,0 1,-1 1,-1 1,0 1,-1 2,0 0,-1 1,-1 1,0 1,-1 1,-1 1,0 1,-1 1,-1 1,0 1,-1 1,0 1,-1 1,-1 1,0 1,-1 1,-1 1,0 1,-1 1,0 1,-1 2,0 1,1 1,1 -1,-2 0,-1 1,-1 1,-1 1,-1 1,0 1,-1 1,0 1,-1 1,0 1,-1 1,0 1,-1 1,-1 1,0 1,-1 1,0 1,-1 1,0 1,-1 1,0 1,-1 1,-1 1,0 1,-1 1,0 1,-1 1,0 1,-1 1,0 1,-1 1,-1 1,0 1,-1 1,0 1,-1 1,0 1,-1 1,0 1,-1 1,-1 1,0 1,-1 1,0 1,-1 1,0 1,-1 1,-1 1,0 1,-1 1,0 1,-1 1,0 1,-1 1,0 1,-1 1,-1 1,0 1,-1 1,0 1,-1 2,0 1,-1 1,-1 1,-1 1,0 1,-1 1,0 1,-1 1,-1 1,0 1,-1 1,0 1,-1 1,0 1,-1 1,0 1,-1 1,-1 1,0 1,-1 1,0 1,-1 1,0 1,-1 1,-1 1,0 1,-1 1,0 1,-1 1,0 1,-1 1,-1 1,0 1,-1 1,0 1,-1 1,0 1,-1 1,-1 1,0 1,-1 1,0 1,-1 1,0 1,-1 1,0 1,-1 1,-1 1,0 1,-1 1,0 1,-1 1,0 1,-1 1,-1 1,0 1,-1 1,0 1,-1 1,0 1,-1 1,-1 1,0 1,-1 1,0 1,-1 1,0 1,-1 1,-1 1,0 1,-1 1,0 1,-1 1,0 1,-1 1,0 1,-1 1,-1 1,0 1,-1 1,0 1,-1 1,0 1,-1 1,-1 1,0 1,-1 1,0 1,-1 1,0 1,-1 1,-1 1,0 1,-1 1,0 1,-1 1,0 1,-1 1,0 1,-1 4,0 1,1 1,1 -1,-2 0,-2 1,-1 1,-1 1,-1 1,0 1,-1 1,0 1,-1 1,0 1,-1 1,-1 1,0 1,-1 1,0 1,-1 1,0 1,-1 1,-1 1,0 1,-1 1,0 1,-1 1,0 1,-1 1,0 1,-1 1,-1 1,0 1,-1 1,0 1,-1 1,0 1,-1 1,-1 1,0 1,-1 1,0 1,-1 1,0 1,-1 1,-1 1,0 1,-1 1,0 1,-1 1,0 1,-1 1,0 1,-1 1,-1 1,0 1,-1 1,0 1,-1 3,0 0,-2 -2,0 -1,1 -1,0 -1,1 -1,1 -1,0 -1,1 -1,0 -1,1 -1,0 -1,1 -1,0 -1,1 -1,1 -1,0 -1,1 -1,0 -1,1 -1,0 -1,1 -1,1 -1,0 -1,1 -1,0 -1,1 -1,0 -1,1 -1,1 -1,0 -1,1 -1,0 -1,1 -1,0 -1,1 -1,1 -1,0 -1,1 -1,0 -1,1 -1,0 -1,1 -1,0 -1,1 -1,1 -1,0 -1,1 -1,0 -1,1 -1,0 -1,1 -1,1 -1,0 -1,1 -1,0 -1,1 -1,0 -1,1 -1,0 -1,1 -1,1 -1,0 -1,1 -1,0 -1,1 -1,0 -1,1 -1,1 -1,0 -1,1 -1,0 -1,1 -1,0 -1,1 -1,1 -1,0 -1,1 -1,0 -1,1 -1,0 -1,1 -1,1 -1,0 -1,1 -1,0 -1,1 -1,0 -1,1 -4,0 0,2 -1,1 -1,0 -1,1 -1,0 -1,1 -1,1 -1,0 -1,1 -1,0 -1,1 -1,0 -1,1 -1,1 -1,0 -1,1 -1,0 -1,1 -1,0 -1,1 -1,1 -1,0 -1,1 -1,0 -1,1 -1,0 -1,1 -1,0 -1,1 -1,1 -1,0 -1,1 -1,0 -1,1 -1,0 -1,1 -1,1 -1,0 -1,1 -1,0 -1,1 -1,0 -1,1 -1,1 -1,0 -1,1 -1,0 -1,1 -1,0 -1,1 -1,1 -1,0 -1,1 -1,0 -1,1 -1,0 -1,1 -1,0 -1,1 -1,1 -1,0 -1,1 -1,0 -1,1 -1,0 -1,1 -1,1 -2,0 -1,1 -1,0 -3,3 -1,0 -1,1 -1,0 -1,1 -1,0 -1,1 -1,0 -1,1 -1,1 -1,0 -1,1 -3,0 -1,-1 -1,0 -1,-1 0,-1 -1,0 2,3 0,2 -1,1 -1,1 -1,0 -1,1 -1,0 -1,1 -1,0 -1,1 -1,1 -1,0 -1,1 -1,0 -1,1 -1,0 -1,1 -1,1 -1,0 -1,1 -1,0 -1,1 -1,0 -1,1 -1,0 -1,1 -1,1 -1,0 -1,1 -1,0 -1,1 -1,0 -1,1 -1,0 -1,1 -1,1 -1,0 -1,1 -1,0 -1,1 -1,0 -1,1 -1,0 -1,1 -1,1 -1,0 -1,1 -1,1 -1,0 -1,1 -1,0 -1,1 -1,1 -1,0 -1,1 -3,0 0,1 -1,1 -1,1 -1,1 -1,0 -1,1 -1,0 -1,1 -1,1 -1,0 -1,1 -1,1 -1,0 -1,1 -1,1 -1,0 -1,1 -1,0 -1,1Z"/>
<path onmouseover="hoverPath(evt)" onmouseout="recoverPath(evt)" fill="rgb(243,242,234)" d="M  50,152l -2,0 1,1 0,2 -1,1 1,1 2,0 1,1 1,1 0,1 1,1 1,1 0,1 1,1 1,1 1,1 0,1 1,1 1,1 0,1 1,1 1,1 1,1 0,1 1,1 1,1 0,1 1,1 1,1 1,1 0,1 4,0 1,1 0,2 -1,1 0,1 1,1 0,1 1,1 1,1 1,0 1,-1 2,0 1,-1 1,0 1,-1 2,0 1,-1 1,0 1,-1 2,0 1,-1 2,0 1,-1 2,0 1,-1 3,0 1,-1 2,0 1,-1 6,0 1,1 2,0 1,1 2,0 1,1 1,1 0,2 -1,1 1,1 1,1 1,1 0,1 1,1 1,1 0,2 1,0 1,1 1,1 1,1 0,1 1,1 1,1 1,1 0,2 1,0 1,1 1,1 2,0 1,1 0,3 -1,1 1,1 0,0 1,1 1,1 0,2 1,0 1,1 1,1 1,1 2,0 1,1 1,1 1,1 0,1 2,0 1,-1 1,0 1,-1 0,-2 -1,-1 0,0 -1,-1 0,-2 -1,-1 0,-2 -1,-1 -1,-1 0,-1 -1,-1 -1,-1 0,-1 -1,-1 -1,-1 0,-1 -1,-1 -1,-1 0,-1 -1,-1 0,-1 -1,-1 -1,-1 -1,-1 0,-1 -1,-1 -1,-1 -1,-1 0,-1 -1,-1 -1,-1 -1,-1 0,-1 -1,-1 -1,-1 -1,-1 0,-1 -1,-1 -1,-1 0,-1 -1,-1 -1,-1 0,-2 1,-1 -2,0 -1,-1 -1,-1 0,-1 -1,-1 -1,-1 0,-1 -1,-1 0,-2 -1,0 -1,-1 0,-1 -1,-1 -1,-1 0,-2 -1,-1 -1,-1 0,-1 -1,-1 -1,-1 -1,-1 0,-1 -1,-1 -1,0 -1,-1 -6,0 -1,1 -2,0 -1,1 -2,0 -1,1 -11,0 -1,-1 -29,0 32,28 -2,0 -1,-1 0,-2 1,-1 1,0 1,-1 1,0 1,-1 1,0 1,-1 1,0 1,-1 1,0 1,-1 1,0 1,-1 1,0 1,-1 2,0 1,1 0,2 -1,1 -1,0 -1,1 -1,0 -1,1 -1,0 -1,1 -1,0 -1,1 -1,0 -1,1 -1,0 -1,1 -1,0 -1,1 -32,-28Z"/>
<path onmouseover="hoverPath(evt)" onmouseout="recoverPath(evt)" fill="rgb(243,242,234)" d="M  63,233l -1,0 -1,1 -3,0 -1,-1 0,-1 -1,-1 -1,-1 0,-1 -1,-1 -1,0 1,1 1,2 1,1 0,2 1,1 0,4 1,1 1,1 0,2 -1,1 1,1 0,1 2,0 1,1 0,2 1,0 1,1 0,2 1,1 1,0 1,1 0,1 25,0 0,-2 1,-1 1,0 1,-1 1,0 1,-1 1,0 1,-1 1,0 -1,-1 0,0 -1,-1 -1,-1 -1,-1 -1,-1 0,4 -1,1 -2,0 -1,-1 -1,0 -2,-2 -1,-1 -1,-1 0,-1 -1,-1 -1,-1 0,-4 1,-1 1,-1 0,-1 -1,-1 -1,-1 0,-1 -1,-1 -1,-1 -1,-1 -1,-1 -1,-1 -2,-2 -1,-1 -1,-1 0,2 -1,1 -1,1 -1,1 -1,0 -1,1 -1,1 -1,0 -1,1 -1,1 -1,0 -2,2Z"/>
<path onmouseover="hoverPath(evt)" onmouseout="recoverPath(evt)" fill="rgb(173,200,238)" d="M  118,147l -2,0 -1,1 -2,0 -1,1 -2,0 -1,-1 -1,0 -1,-1 -11,0 -1,1 -3,0 -1,1 -38,0 -1,1 28,0 1,1 9,0 1,-1 2,0 1,-1 2,0 1,-1 8,0 1,1 1,0 1,1 1,1 0,1 1,1 1,1 1,1 0,1 1,1 1,1 0,2 1,1 1,1 0,1 1,0 1,1 0,2 1,1 0,1 1,1 1,1 0,1 1,1 1,0 0,-1 -1,-1 0,-1 -2,-2 0,-2 1,-1 2,0 1,1 1,1 1,1 1,1 0,2 1,1 1,1 2,0 1,-1 2,0 1,-1 1,0 0,-1 1,-1 5,0 1,-1 2,0 1,-1 1,0 1,-1 2,0 1,-1 2,0 1,-1 0,-3 1,-1 2,0 1,1 0,1 1,1 1,1 0,1 1,1 1,1 0,1 1,1 0,1 1,1 1,1 0,1 1,1 0,1 1,1 0,1 1,1 1,1 0,1 1,1 0,1 1,1 1,1 0,1 1,1 1,1 0,1 1,1 1,1 1,0 0,-1 -1,-1 0,-1 -1,-1 -1,-1 0,-1 -1,-1 -1,-1 0,-1 -1,-1 0,-1 -1,-1 -1,-1 0,-1 -1,-1 0,-1 -1,-1 -1,-1 0,-1 -1,-1 0,-1 -1,-1 -1,-1 0,-1 -1,-1 -1,-1 0,-4 2,-2 1,0 -3,1 -2,0 -1,-1 -1,-1 -1,-1 0,-1 -1,-1 -1,-1 0,-1 -1,-1 -1,-1 0,-1 -1,-1 -1,0 0,2 -1,1 -2,0 -1,-1 0,-1 -1,-1 -4,0 -1,1 -3,0 -1,1 -3,0 -1,-1 0,-4 -1,0 -1,-1 -1,-1 -1,-1 -1,-1 0,-1 -1,-1 0,-1 -1,0 0,1 1,1 0,0 1,2 0,2 -1,1 -1,1 -2,0 -1,1 -2,0 -1,1Z"/>
<path onmouseover="hoverPath(evt)" onmouseout="recoverPath(evt)" fill="rgb(170,198,238)" d="M  171,153l -1,0 -1,1 -1,0 0,1 2,0 1,-1 1,0 -1,-1 4,0 1,-1 3,0 1,-1 5,0 1,-1 1,0 1,-1 2,0 1,1 1,1 1,1 1,1 1,1 0,-2 -1,-1 0,-4 1,-1 1,0 1,-1 2,0 1,-1 2,0 1,-1 1,0 1,-1 1,0 1,-1 1,0 1,-1 2,0 1,-1 1,0 1,-1 1,0 1,-1 1,0 1,-1 0,-1 -3,0 -1,1 -1,0 -1,1 -1,0 -1,1 -3,0 -1,1 -3,0 -1,1 -1,0 -1,1 -2,0 -1,1 -1,0 -1,1 -2,0 -1,1 -1,0 -1,1 -2,0 -1,1 -1,0 -1,1 -1,0 -1,1 -2,0 -1,1 -1,0 -1,1 -1,0 -1,1 -1,2Z"/>
<path onmouseover="hoverPath(evt)" onmouseout="recoverPath(evt)" fill="rgb(229,232,231)" d="M  59,88l 0,0 1,1 0,2 1,1 0,1 1,0 1,1 1,1 1,1 1,1 1,1 1,1 1,1 1,1 0,1 4,0 1,1 0,1 1,0 1,1 1,0 1,-1 1,0 1,-1 1,-1 1,0 1,-1 1,0 1,-1 1,0 1,-1 1,0 1,-1 1,-1 1,-1 1,0 0,-2 -1,-1 0,0 -1,-1 -1,-1 -1,-1 0,-1 -2,-2 0,-3 1,-1 1,-1 1,-1 1,-1 1,-1 1,-1 1,0 1,-1 0,-1 1,-1 1,0 2,-2 1,-1 2,-2 1,-1 1,-1 0,-1 1,-1 2,0 1,-1 4,0 1,1 0,1 1,1 0,-1 -1,-2 0,-3 1,-1 -3,0 -1,-1 -1,-1 -1,-1 0,-1 -1,-1 0,-1 -1,-1 0,-3 -1,-1 0,-1 -1,-1 -1,-1 0,-1 -1,0 -1,-1 0,-2 -3,0 -1,1 -2,0 0,2 -1,1 -1,1 0,1 -2,2 -1,1 -3,0 -1,-1 0,-4 1,-1 0,-1 1,-1 -1,0 -1,-1 0,-2 -1,-1 0,-2 -1,0 0,4 -1,1 0,1 -1,1 -4,0 -1,1 -1,0 -1,1 -2,0 -1,1 -1,1 0,5 -1,1 -2,0 -1,1 0,1 -1,1 -1,0 -1,1 -1,1 -1,0 0,1 -1,1 0,1 -1,1 0,3 -1,1 -3,0 -1,1 -2,0 -1,-1 0,-3 -1,-1 0,-1 -1,0 -1,-1 -2,0 -1,1 -1,1 -1,0 -1,1 0,2 -1,1 -3,0 1,1 1,1 1,1 0,6 7,0 1,1 0,2 6,0 1,1 1,1 0,3 -1,1 -1,1 -5,0 -1,-1 0,2 9,0 -22,-22 -1,-1 0,-1 -1,0 2,2 22,22Z"/>
<path onmouseover="hoverPath(evt)" onmouseout="recoverPath(evt)" fill="rgb(240,240,234)" d="M  92,82l 0,0 -1,1 -1,1 -1,1 0,1 1,1 1,1 0,1 1,1 1,1 1,1 1,1 0,2 1,0 1,-1 0,0 1,-1 1,0 1,-1 1,0 1,-1 1,0 1,-1 1,-1 1,0 1,-1 1,0 1,-1 1,0 1,-1 1,0 1,-1 1,-1 1,0 1,-1 1,0 1,-1 1,0 2,-2 1,0 1,-1 1,0 1,-1 1,0 1,-1 1,-1 1,0 1,-1 1,0 1,-1 1,0 2,-2 1,0 1,-1 1,0 1,-1 1,0 1,-1 1,0 1,-1 1,-1 1,0 1,-1 1,0 1,-1 1,0 1,-1 1,-1 1,0 1,-1 1,0 1,-1 1,0 1,-1 1,-1 1,0 1,-1 1,0 0,-1 -1,-1 -1,-1 -1,-1 0,-1 -1,-1 -1,-1 0,-2 1,-1 -2,-2 -2,0 -1,-1 0,-2 1,-1 -1,-1 -1,-1 -1,-1 0,-2 -1,0 -1,-1 0,-2 -1,-1 -1,0 -1,-1 -2,-2 -1,-1 -1,-1 0,-1 -1,0 5,6 0,2 -1,1 -1,0 -1,1 -1,1 -1,0 -1,1 -1,1 -1,1 -1,0 -1,1 -1,1 0,1 -1,1 -1,0 -1,1 -1,0 0,1 -1,1 -1,0 -1,1 0,2 -1,1 -1,0 -1,1 -1,1 -2,2 -1,1 -1,0 -1,1 -1,1 -1,1 0,2 -1,1 0,2 1,1 0,3 -1,1 -2,0 -1,-1 -1,-1 0,-1 -2,0 -1,1 -2,0 0,1 -1,1 -1,1 -1,1 -1,1 -1,1 -1,1 -1,1 -1,1 -1,0 0,1 -1,1 -1,1 -1,0 -1,1 -1,1Z"/>
<path onmouseover="hoverPath(evt)" onmouseout="recoverPath(evt)" fill="rgb(240,240,236)" d="M  135,8l 0,0 -1,1 -1,0 0,1 1,1 0,2 -1,1 0,2 -1,1 -1,1 -2,0 -1,1 -1,1 -1,1 -1,1 -1,0 -3,3 -1,1 -1,0 -1,1 -1,1 -1,1 -1,0 -1,1 -1,1 -1,1 -1,1 -1,0 -2,2 -1,1 -1,1 -1,1 -1,1 -1,0 -1,1 0,1 1,1 0,2 1,-1 3,0 1,-1 1,-1 1,0 1,-1 1,0 0,-1 1,-1 1,-1 1,-1 2,0 0,-1 1,-1 1,-1 1,-1 1,0 1,-1 1,-1 1,-1 1,0 1,-1 1,-1 2,0 0,-1 1,-1 1,-1 1,0 1,-1 4,0 1,1 1,1 3,0 1,1 0,1 1,1 1,1 1,1 1,1 1,0 1,1 2,0 1,-1 2,0 1,-1 9,0 1,-1 1,0 1,-1 1,-1 1,-1 3,-3 1,-1 0,-3 1,-1 1,0 0,-1 1,-1 2,0 0,-1 1,-1 1,0 1,-1 1,0 1,-1 1,-1 3,0 1,-1 1,-1 3,0 1,-1 1,0 2,-2 1,0 1,-1 1,0 1,-1 2,0 1,-1 1,0 0,-3 -62,0 0,2 -1,1 -1,1 -1,0 -4,4Z"/>
<path onmouseover="hoverPath(evt)" onmouseout="recoverPath(evt)" fill="rgb(241,241,234)" d="M  152,34l -2,0 0,1 1,0 1,1 0,2 1,1 1,1 1,1 0,1 1,1 0,1 1,1 1,1 1,1 0,1 1,1 1,1 0,2 -1,1 1,1 0,0 1,1 4,0 1,-1 1,0 1,-1 1,0 1,-1 1,0 1,-1 1,-1 1,0 1,-1 1,0 1,-1 1,0 2,-2 1,0 1,-1 1,0 1,-1 1,0 1,-1 1,-1 1,0 1,-1 1,0 1,-1 1,0 1,-1 1,-1 1,0 1,-1 1,0 1,-1 1,0 1,-1 1,0 1,-1 1,-1 1,0 1,-1 1,0 1,-1 1,0 1,-1 1,-1 1,0 1,-1 1,0 1,-1 1,0 1,-1 1,0 1,-1 1,-1 1,0 1,-1 1,0 1,-1 1,0 1,-1 1,-1 1,0 1,-1 1,0 1,-1 1,0 1,-1 1,-1 1,0 1,-1 1,0 1,-1 1,0 1,-1 1,-1 1,0 1,-1 1,0 1,-1 1,0 1,-1 1,0 1,-1 1,-1 1,0 1,-1 3,0 0,-6 -49,0 0,4 -1,1 -1,0 -1,1 -2,0 -1,1 -1,0 -1,1 -1,0 -1,1 -1,1 -1,0 -1,1 -3,0 -1,1 -1,1 -3,0 -1,1 -1,1 -1,0 -1,1 -1,0 0,1 -1,1 -2,0 0,1 -1,1 -1,0 0,3 -4,4 -1,1 -1,1 -1,1 -1,1 -1,0 -1,1 -9,0 -1,1 -2,0 -1,1Z"/>
<path onmouseover="hoverPath(evt)" onmouseout="recoverPath(evt)" fill="rgb(241,241,235)" d="M  202,41l 0,0 -1,1 0,1 1,1 0,1 1,1 1,1 0,1 1,1 1,1 1,1 0,1 1,1 1,1 1,1 0,2 -1,1 1,1 1,1 1,1 0,1 1,1 1,1 0,2 1,0 1,1 1,1 0,2 1,0 1,1 1,1 0,2 1,0 1,1 1,1 1,1 0,1 1,1 1,1 1,1 0,1 1,1 1,1 1,1 0,2 -1,1 -2,0 -1,1 -1,0 -1,1 -1,0 -1,1 0,1 1,0 1,-1 1,0 1,-1 1,0 1,-1 -1,0 -2,1 -2,1 7,-3 2,0 0,-1 1,-1 2,0 1,-1 1,0 1,-1 1,0 1,-1 1,0 0,-1 1,-1 1,0 1,-1 2,0 1,-1 1,0 1,-1 1,0 1,-1 1,0 1,-1 2,0 0,-64 -2,0 -1,1 -1,0 -1,1 -1,0 -1,1 -1,1 -1,0 -1,1 -1,0 -1,1 -1,0 -1,1 -1,0 -1,1 -1,1 -1,0 -1,1 -1,0 -1,1 -1,0 -1,1 -1,1 -1,0 -1,1 -1,0 -1,1 -1,0 -1,1 -1,1 -1,0 -1,1 -1,0 -1,1 -1,0 -1,1 -1,0 -1,1 -1,1 -1,0 -1,1 -1,0 -1,1 -1,0 -1,1 -1,1 -1,0 -1,1 -1,0 -1,1 -1,0 -1,1Z"/>
<path onmouseover="hoverPath(evt)" onmouseout="recoverPath(evt)" fill="rgb(237,236,228)" d="M  23,136l 0,0 1,-1 1,0 1,-1 1,0 1,-1 1,-1 1,0 1,-1 1,-1 1,0 1,-1 1,0 1,-1 1,0 1,-1 1,0 1,-1 1,-1 1,0 1,-1 1,0 1,-1 1,0 1,-1 1,0 1,-1 1,-1 1,0 1,-1 1,0 1,-1 1,0 1,-1 1,0 1,-1 1,-1 1,0 1,-1 1,0 1,-1 1,0 2,-2 1,0 1,-1 1,0 1,-1 1,0 1,-1 0,-1 -1,-1 0,0 -1,-1 0,-1 -1,0 -1,-1 0,-1 -1,-1 -1,-1 -1,-1 -1,-1 -1,-1 -1,-1 -1,-1 -1,0 -1,-1 0,-1 -1,-1 0,-2 -9,0 -1,-1 0,-4 1,-1 2,0 1,1 3,0 1,-1 0,-1 -1,-1 -8,0 0,2 -1,1 0,4 -1,1 -3,0 -1,-1 -7,0 -1,1 -1,1 -1,1 -1,0 0,1 -1,1 -1,1 -1,0 -1,1 -1,1 0,2 -1,1 -2,0 0,2 -1,1 -6,0 -1,1 -1,1 1,1 0,4 -1,1 -3,0 -1,1 -3,0 -1,1 0,2 -1,1 0,3 -1,1 0,8 -1,1 -1,1 -1,0 0,20 1,0 1,-1 1,0 1,-1 1,-1 1,0 1,-1 1,-1 1,0 1,-1 1,-1 1,0 1,-1 1,0 1,-1 1,-1 0,-1 1,-1 3,0 1,-1 1,0 1,-1Z"/>
<path onmouseover="hoverPath(evt)" onmouseout="recoverPath(evt)" fill="rgb(243,242,236)" d="M  46,20l 2,0 0,-1 1,-1 1,0 1,-1 2,0 1,1 1,1 1,1 1,1 1,1 1,1 1,1 0,1 1,0 1,1 1,0 -1,-1 -8,-8 0,-3 1,-1 1,-1 1,0 1,-1 1,-1 2,0 1,-1 0,-1 1,-1 2,-2 1,-1 1,0 0,-1 1,-1 0,-2 -51,0 0,2 1,1 0,1 1,0 1,1 1,1 1,1 1,1 1,1 0,1 1,0 1,1 0,1 1,1 1,1 0,1 1,0 1,1 1,1 1,1 1,1 1,1 1,1 1,1 0,1 1,1 0,3 1,-1 1,0 1,-1 1,-1 1,-1 1,-1 1,0 1,-1 1,-1Z"/>
<path onmouseover="hoverPath(evt)" onmouseout="recoverPath(evt)" fill="rgb(244,243,235)" d="M  102,98l -1,0 0,3 1,1 1,1 4,4 1,1 1,1 0,1 1,1 1,1 0,1 1,1 1,1 0,1 1,1 1,1 1,1 1,1 0,1 1,1 1,1 1,1 1,1 0,1 1,1 0,1 1,1 1,0 1,-1 0,0 1,-1 1,0 1,-1 4,0 1,1 0,1 1,1 5,0 1,1 0,6 1,-6 3,-3 1,0 1,-1 1,0 1,-1 -1,-1 0,-1 -1,-1 0,-4 1,-1 1,-1 1,-1 1,0 1,-1 5,0 0,-2 1,-1 1,-1 1,0 1,-1 1,0 1,-1 1,-1 1,0 1,-1 1,0 1,-1 3,0 0,-1 2,-2 1,-1 1,0 1,-1 1,0 1,-1 1,0 1,-1 3,0 1,1 1,1 1,1 0,-2 1,-1 1,-1 2,0 0,-4 1,-1 -2,2 0,0 -1,1 -1,0 -1,1 -5,0 -1,-1 0,-1 -1,-1 -1,-1 0,-1 -1,-1 -1,-1 -1,-1 0,-1 -1,-1 -1,-1 -1,-1 0,-1 -1,-1 -1,-1 0,-1 -1,-1 -1,-1 0,-3 1,-1 1,0 1,-1 1,-1 1,0 1,-1 1,0 1,-1 1,-1 1,0 1,-1 1,0 1,-1 1,-1 1,0 1,-1 7,0 1,1 1,1 1,1 1,1 1,1 1,1 1,1 1,1 1,-1 1,-1 1,-1 1,0 1,-1 5,0 1,1 1,0 1,1 1,1 0,4 -1,1 -2,0 -1,1 1,1 0,0 1,1 1,1 1,1 0,1 1,1 0,3 -1,1 1,1 0,1 1,0 1,1 5,0 0,-1 1,-1 1,-1 1,0 1,-1 1,0 1,-1 2,0 -1,-1 0,0 -1,-1 -1,-1 0,-1 -1,-1 -1,-1 -1,-1 0,-1 -1,-1 -1,-1 -1,0 -1,-1 0,-2 -1,-1 -1,0 -1,-1 0,-2 -1,-1 -1,0 -1,-1 0,-2 -1,-1 -1,-1 0,-1 -1,-1 -1,-1 -1,-1 0,-1 -1,-1 -1,-1 -1,-1 0,-2 1,-1 -1,-1 -1,-1 -2,0 -1,-1 -1,-1 0,-1 -1,-1 -1,-1 -2,0 -1,1 -1,0 -1,1 -1,0 -1,1 -1,0 -1,1 -1,0 -1,1 -1,1 -1,0 -1,1 -1,0 -1,1 -1,0 -1,1 -1,1 -1,0 -1,1 -1,0 -1,1 -1,0 -1,1 -1,1 -1,0 -1,1 -1,0 -1,1 -1,0 -1,1 -1,0 -2,2 -1,0 -1,1 -1,0 -1,1 -1,0 -1,1 -1,1 -1,0 -1,1 -1,0 -1,1 -1,0 -1,1 -1,1 -1,0 -1,1 -1,0 -1,1 -1,0 -1,1 -1,1 -1,0 -1,1 -1,0 -1,1 -1,0 -1,1 -1,0 -1,1 -1,1 -1,0 -1,1 -1,0 -1,1 -1,0 -1,1 -1,1 -1,0 -1,1 -1,0 -1,1 -1,0 -1,1 -1,1 -1,0 -1,1 -1,0 -1,1 -1,0 -1,1 -1,1 -1,0 -1,1 -1,0 -1,1 -1,0 -1,1 -1,0 -1,1 -1,1Z"/>
<path onmouseover="hoverPath(evt)" onmouseout="recoverPath(evt)" fill="rgb(183,206,238)" d="M  180,195l 0,1 -1,1 -1,1 -1,1 -1,0 -1,1 -1,0 -1,1 -1,0 -1,1 -1,0 -1,1 -1,0 0,2 -1,1 -2,0 -1,-1 -1,1 -1,0 -1,1 -1,0 -1,1 -2,0 -1,-1 0,-2 -1,-1 0,-1 -1,-1 -1,-1 -1,-1 -1,-1 -1,0 -1,1 0,0 -1,1 -3,0 -1,-1 -1,-1 -1,-1 0,-1 -1,-1 -1,-1 -1,-1 0,-1 -1,-1 -1,-1 0,-1 -1,-1 -1,-1 -1,-1 0,-1 -1,-1 -1,-1 -1,-1 0,-1 -1,-1 -1,-1 -1,-1 -1,-1 0,-1 -1,-1 -1,-1 -1,1 0,0 1,1 0,0 1,1 0,1 1,1 1,1 0,1 1,1 1,1 1,1 0,1 1,1 1,1 1,1 0,1 1,1 1,1 1,1 0,1 1,1 1,1 1,1 0,1 1,1 0,1 1,1 1,1 0,1 1,1 1,1 0,1 1,1 1,1 0,1 1,1 1,1 0,2 1,1 0,2 1,1 1,1 0,4 -1,1 -1,1 -1,0 -1,1 -4,0 -1,-1 0,3 -1,1 -1,0 -1,1 -1,0 -1,1 -1,0 -1,1 -1,1 -2,0 -1,1 -1,0 -1,1 -1,0 -1,1 -1,1 -1,0 -1,1 -1,1 -2,0 -1,1 -1,1 -1,0 -1,1 -1,0 -1,1 -1,1 -1,0 -1,1 -1,0 -1,1 -1,1 -1,0 -1,1 -1,0 -1,1 -2,0 -1,1 -1,0 0,1 -1,1 -1,0 -1,1 -1,0 -1,1 -1,0 -1,1 -1,0 0,1 11,0 0,-2 1,-1 1,0 1,-1 1,0 1,-1 5,0 1,-1 1,-1 0,-1 1,-1 2,0 1,1 1,1 -1,-2 0,-2 1,-1 2,0 1,-1 1,0 1,-1 1,-1 2,0 1,-1 1,0 1,-1 1,0 1,-1 3,0 1,1 1,0 1,1 2,0 -1,-1 0,-1 -1,-1 0,-3 1,-1 5,0 1,-1 1,0 1,-1 1,0 1,-1 1,-1 1,0 2,-2 1,0 1,-1 1,0 1,-1 1,0 1,-1 1,0 1,-1 1,0 1,-1 2,0 1,1 1,1 1,1 1,1 1,0 1,1 1,0 0,-2 -1,-1 0,0 -1,-1 0,-1 -1,-1 -1,-1 0,-2 1,-1 1,-1 1,-1 1,-1 1,-1 1,0 1,-1 1,-1 1,-1 1,0 0,-1 1,-1 1,0 1,-1 1,0 1,-1 3,0 1,1 1,1 0,1 1,1 1,1 0,1 1,1 0,1 1,1 1,1 0,1 1,1 0,1 1,1 1,1 0,1 1,1 1,1 0,1 1,1 1,1 0,1 1,1 1,1 1,1 0,1 2,0 0,-2 -1,-1 0,0 -1,-1 0,-5 1,-1 2,0 1,-1 1,0 1,-1 1,-1 1,0 1,-1 1,0 1,-1 1,0 1,-1 0,-2 -1,-1 0,0 -1,-1 -1,-1 -1,0 -1,-1 0,-2 -1,-1 -1,-1 0,-1 -1,-1 -1,-1 -1,-1 0,-1 -1,-1 -1,-1 -1,-1 0,-4 1,-1 2,0 1,-1 1,0 1,-1 1,0 1,-1 1,0 1,-1 2,0 1,-1 1,-1 -4,0 -1,-1 -1,-1 0,-2 -1,-1 0,-1 -1,-1 -1,-1 0,-1 -1,-1 -1,-1 0,-1 -1,-1 -1,-1 -2,0 -1,1 -1,1 -1,0 -1,1 -1,0 -1,1 -1,0 -1,1 -1,0 -1,1 1,1 0,1 1,1 1,1 0,3 -1,1 -4,0 -1,-1 -1,-1 -1,-1 0,-1 -1,-1 -1,0 -1,1 -1,0 -1,1 -1,0 -1,1 -1,0 -1,1 -1,1 0,1 -1,1 0,2 -1,1 -1,0 1,1 0,0 1,1 1,1 0,1 -37,28 -1,-1 -1,-1 1,2 1,0 37,-28Z"/>
<path onmouseover="hoverPath(evt)" onmouseout="recoverPath(evt)" fill="rgb(170,198,237)" d="M  0,60l 0,15 2,0 1,1 2,0 1,-1 0,0 1,-1 1,-1 1,-1 1,0 1,-1 1,-1 1,-1 1,-1 1,0 1,-1 1,-1 1,-1 1,-1 1,0 0,-1 -1,-1 0,0 -1,-1 -1,0 -1,-1 -1,-1 -1,-1 -1,-1 -1,-1 -1,-1 -1,-1 -3,0 -1,1 0,0 -1,1 -1,0 -1,1 -1,1 -2,0Z"/>
<path onmouseover="hoverPath(evt)" onmouseout="recoverPath(evt)" fill="rgb(170,198,238)" d="M  0,92l 0,16 1,0 1,-1 1,-1 1,-1 1,-1 1,-1 1,0 0,-1 1,-1 1,-1 1,-1 0,-2 -1,0 -1,-1 -1,-1 -1,0 -1,-1 -1,-1 -1,0 -1,-1 -1,-1 -1,1Z"/>
<path onmouseover="hoverPath(evt)" onmouseout="recoverPath(evt)" fill="rgb(199,213,232)" d="M  15,100l -1,0 0,1 -1,1 -1,1 -1,1 -1,1 -3,0 -1,1 -1,1 -1,1 -1,1 -1,1 -2,0 0,18 1,-1 0,-8 1,-1 0,-3 1,-1 0,-2 1,-1 1,-1 3,0 1,-1 3,0 0,-2 -1,-1 0,-1 4,-5 0,1 5,0 0,-2 1,-1 2,0 0,-2 1,-1 1,-1 1,-1 1,0 1,-1 0,-1 1,-1 1,0 1,-1 1,-1 1,-1 9,0 1,1 1,0 0,-4 1,-1 0,-2 1,-1 2,0 0,-1 -7,0 -1,1 0,0 -1,1 -1,0 -1,1 -1,0 -1,1 -1,1 0,1 -1,1 -1,0 -1,1 -1,1 -1,1 -1,0 -1,1 -1,1 -1,1 -1,1 -1,0 -1,1 -1,1 0,1 -1,1 -1,0 -1,1 -1,0 -1,1 -1,2Z"/>
<path onmouseover="hoverPath(evt)" onmouseout="recoverPath(evt)" fill="rgb(183,144,237)" d="M  0,165l 0,19 4,0 1,1 0,2 -1,1 0,1 1,0 1,1 0,2 1,0 1,1 0,1 1,1 0,2 1,0 1,1 0,2 1,0 1,1 0,2 2,0 1,1 0,3 1,0 1,1 0,1 1,1 0,2 1,0 1,1 0,2 1,0 1,1 0,2 1,0 1,1 0,2 1,0 1,1 0,2 1,0 1,1 0,1 1,1 0,2 2,0 1,1 0,1 1,1 0,2 -1,1 1,1 0,0 1,1 0,3 1,1 1,1 0,1 1,1 0,1 1,0 1,1 0,3 2,0 1,1 0,1 1,1 2,0 1,1 0,2 18,0 -2,-1 0,0 -1,-1 0,-2 -1,0 -1,-1 0,-2 -2,0 -1,-1 0,-1 -1,-1 0,-2 1,-1 -1,-1 0,0 -1,-1 0,-4 -1,-1 0,-2 -1,-1 0,-1 -1,-1 -1,-1 -1,1 -2,0 -1,-1 -1,0 -1,-1 -2,-2 -1,-1 -1,-1 -1,-1 0,-2 -1,-1 -1,0 -1,-1 0,-2 -1,0 -1,-1 0,-2 -1,0 -1,-1 0,-2 -1,0 -1,-1 0,-2 -1,0 -1,-1 0,-2 -1,0 -1,-1 0,-2 -1,0 -1,-1 0,-1 -1,0 -1,-1 0,-2 -1,-1 0,-1 -1,-1 -1,-1 0,-2 -1,0 -1,-1 0,-2 -1,0 -1,-1 0,-2 1,-1 0,-1 -3,0 -1,-1 0,-2 -1,0 -1,-1 0,-2 1,-1 -1,0 -1,-1 -1,0 -1,-1 0,-2 -1,0 -1,-1 0,-2 -1,0 -1,-1 0,-1 -1,-1 0,-2 -1,0 -1,-1 0,-1 -1,0Z"/>
<path onmouseover="hoverPath(evt)" onmouseout="recoverPath(evt)" fill="rgb(243,242,235)" d="M  0,245l 0,10 45,0 0,-1 -2,0 -1,-1 -1,-1 0,-1 -2,0 -1,-1 0,-3 -1,0 -1,-1 0,-1 -1,-1 0,-1 -1,-1 -1,-1 0,-3 -1,-1 -1,-1 0,-2 1,-1 -1,-1 0,-1 -2,0 -1,-1 0,-2 -1,-1 0,-1 -1,0 -1,-1 0,-2 -1,0 -1,-1 0,-2 -1,0 -1,-1 0,-2 -1,0 -1,-1 0,-2 -1,0 -1,-1 0,-2 -1,-1 0,-1 -1,0 -1,-1 0,-3 -2,0 -1,-1 0,-2 -1,0 -1,-1 0,-2 -1,0 -1,-1 0,-2 -1,-1 0,-1 -1,0 -1,-1 0,-2 -1,0 -1,-1 0,-3 1,-1 -3,0 0,5 1,0 1,1 1,1 0,3 1,1 0,4 1,1 0,4 1,1 0,1 1,1 0,2 1,1 0,2 1,1 0,2 1,1 0,3 1,1 0,3 1,1 0,4 1,1 0,5 -1,1 -1,1 -1,1 -5,0 -1,-1 -1,0 -1,-1 -1,-1 0,-2 -1,0Z"/>
<path onmouseover="hoverPath(evt)" onmouseout="recoverPath(evt)" fill="rgb(240,240,235)" d="M  11,161l 0,0 -1,-1 -1,0 -1,-1 -1,0 -1,-1 -1,0 -1,-1 -1,-1 -1,1 -2,0 0,3 2,0 1,1 0,1 1,0 1,1 0,2 1,1 0,1 1,0 1,1 0,2 1,0 1,1 0,2 1,0 1,1 1,0 1,1 0,2 -1,1 1,0 1,1 0,2 3,0 1,1 0,3 -1,1 1,0 1,1 0,2 1,0 1,1 0,2 1,1 1,1 0,1 1,1 0,2 1,0 1,1 0,1 1,0 1,1 0,2 1,0 1,1 0,2 1,0 1,1 0,2 1,0 1,1 0,2 1,0 1,1 0,2 1,0 1,1 0,2 1,0 1,1 1,1 0,2 1,1 1,1 1,1 1,1 1,1 1,0 1,1 1,-1 0,0 -1,-1 0,-2 1,-1 0,-4 1,-1 -2,1 0,1 -1,1 -2,0 -1,-1 -1,-1 -1,-1 0,-1 -1,-1 -1,-1 -1,-1 -1,-1 0,-2 1,-1 2,0 1,1 1,1 1,1 3,0 1,-1 0,0 1,-1 1,0 1,-1 2,0 0,-1 1,-1 1,0 1,-1 1,-1 1,-1 1,-1 1,0 2,-2 0,-6 1,-1 1,-1 1,-1 -1,-1 0,0 -1,-1 0,-3 1,-1 1,0 1,-1 2,0 1,1 0,-3 1,-1 -4,0 -1,-1 0,-1 -1,-1 -1,-1 -1,-1 0,-1 -1,-1 -1,-1 0,-1 -1,-1 -1,-1 -1,-1 0,-1 -1,-1 -1,-1 0,-1 -1,-1 -1,-1 -2,0 -1,-1 -1,-1 0,-1 -1,-1 -1,-1 0,-1 -1,-1 -1,-1 0,-2 1,-1 -1,-1 0,-4 1,-1 0,-2 1,-1 3,0 1,-1 5,0 -1,-1 -2,0 -3,1 -2,0 -1,-1 -1,-1 0,-1 -1,-1 -4,0 0,5 -1,1 0,2 1,1 0,2 -1,1 -10,0 -1,-1 -3,0 -1,1 -1,0 -1,1 -1,0 -1,1 -1,0 -1,1 -3,3 -1,1 -1,1 -1,1 -3,0 59,27 1,1 0,1 1,1 1,1 1,0 -1,-1 -1,-1 -1,-2 -1,0 -59,-27 43,36 -1,1 -2,0 -1,-1 0,-2 1,-1 2,0 1,1 0,2 -43,-36 38,37 0,2 -1,1 -1,0 -1,1 -2,0 -1,-1 0,-2 1,-1 1,0 1,-1 2,0 1,1 -38,-37Z"/>
<path onmouseover="hoverPath(evt)" onmouseout="recoverPath(evt)" fill="rgb(244,243,235)" d="M  74,197l -1,0 -1,1 -1,1 -1,1 0,1 1,1 0,1 1,1 1,1 1,1 1,1 1,1 1,1 1,1 0,5 1,1 0,1 1,1 1,1 1,1 1,1 1,1 0,1 1,1 1,1 1,1 2,2 1,1 1,1 1,1 1,1 1,1 1,1 0,1 1,1 1,1 1,1 1,1 1,1 1,1 1,1 1,1 1,1 1,1 0,1 1,-1 1,0 1,-1 1,0 1,-1 1,-1 1,0 1,-1 1,0 2,-2 1,0 1,-1 1,0 1,-1 1,-1 2,0 1,-1 1,-1 1,0 1,-1 1,-1 1,0 1,-1 1,0 1,-1 2,0 1,-1 1,-1 1,0 1,-1 1,0 1,-1 1,0 0,-1 -1,-1 0,-1 -1,-1 0,-1 -1,-1 -1,-1 -1,-1 -1,0 -1,-1 0,-2 -1,-1 -1,-1 -1,-1 0,-2 1,-1 0,-1 -2,0 -1,-1 -1,-1 -1,0 -1,-1 0,-2 -1,-1 -1,-1 -1,-1 0,-1 -1,-1 -1,-1 -1,0 -1,-1 0,-2 -1,-1 -1,-1 0,-1 -1,-1 -1,-1 -1,-1 0,-2 1,-1 -1,-1 -2,0 -1,-1 -1,0 0,3 -1,1 -2,0 -1,1 -2,0 -1,1 -3,0 -1,1 -3,0 -1,1 -3,0 -1,1 -2,0 -1,1 0,1 1,1 0,1 1,1 1,1 0,1 1,1 1,1 1,1 0,1 1,1 1,1 1,1 0,1 1,1 1,1 1,1 1,1 1,1 1,1 1,1 1,1 1,1 0,1 1,1 1,1 1,1 1,1 0,1 1,1 0,3 -1,1 -3,0 -1,-1 -1,-1 -1,-1 -1,-1 -1,-1 -1,-1 -1,-1 -1,-1 -1,0 -1,-1 -1,-1 -1,-1 -1,-1 -1,-1 0,-1 -1,-1 -1,-1 -1,-1 0,-1 -1,-1 -1,-1 0,-1 -1,-1 -1,-1 0,-1 -1,-1 -1,-1 0,-1 -1,-1 -1,-1 0,-1 -1,-1 -1,-1 -2,0 -1,1 -2,0 -1,1Z"/>
<path onmouseover="hoverPath(evt)" onmouseout="recoverPath(evt)" fill="rgb(244,243,235)" d="M  125,245l -2,0 0,1 1,1 0,2 -1,1 -2,0 -1,-1 -1,-1 0,1 -1,1 -1,1 -1,1 -5,0 -1,1 -1,0 -1,1 -1,0 0,1 113,0 0,-1 -1,-1 0,0 -1,-1 0,-1 -1,-1 -1,-1 -1,-1 0,-1 -1,-1 -1,-1 0,-1 -1,-1 -1,-1 -1,-1 0,-1 -1,-1 -1,-1 0,-2 -1,0 -1,-1 0,-2 -1,0 -1,-1 0,-1 -1,-1 -1,-1 -1,-1 0,-1 -1,-1 -1,-1 0,-1 -1,-1 -1,-1 0,-1 -1,-1 -1,-1 0,-1 -1,-1 0,-1 -1,-1 -1,-1 0,-1 -1,-1 0,-1 -1,-1 -1,-1 0,-1 -1,-1 -1,0 -1,1 -1,0 -1,1 -1,0 0,1 -1,1 -1,0 -1,1 -1,1 -1,1 -1,0 -1,1 -2,2 -1,1 1,1 0,0 1,1 0,1 1,1 1,1 0,4 -1,1 -3,0 -1,-1 -1,0 -1,-1 -1,-1 -1,-1 -1,-1 -1,1 -1,0 -1,1 -1,0 -1,1 -1,0 -1,1 -1,0 -1,1 -1,0 -2,2 -1,0 -2,2 -1,0 -1,1 -1,0 -1,1 -5,0 0,1 1,1 0,1 1,1 0,2 -1,1 -4,0 -1,-1 -1,0 -1,-1 -1,0 -1,1 -1,0 -1,1 -1,0 -1,1 -2,0 -1,1 -1,1 -1,0 -1,1 80,-9 0,2 -1,1 -2,0 -1,-1 0,-2 1,-1 2,0 1,1 -80,9 82,7 -2,0 -1,-1 -1,-1 0,-1 -1,-1 -1,-1 -1,-1 0,-2 1,-1 2,0 1,1 1,1 1,1 0,1 1,1 1,1 0,2 -1,1 -82,-7 58,7 -2,0 -1,-1 0,-2 1,-1 2,0 1,1 0,2 -1,1 -58,-7 72,-4 0,2 -1,1 -2,0 -1,-1 0,-2 1,-1 2,0 1,1 -72,4 67,-1 0,2 -1,1 -2,0 -1,-1 0,-2 1,-1 2,0 1,1 -67,1Z"/>
<path onmouseover="hoverPath(evt)" onmouseout="recoverPath(evt)" fill="rgb(171,198,238)" d="M  0,198l 0,34 2,0 1,1 0,2 1,1 1,0 1,1 3,0 1,-1 0,0 1,-1 0,-3 -1,-1 0,-4 -1,-1 0,-3 -1,-1 0,-3 -1,-1 0,-2 -1,-1 0,-2 -1,-1 0,-2 -1,-1 0,-1 -1,-1 0,-4 -1,-1 0,-4 -1,-1 -1,1 0,-3 1,0 0,-1 -1,-1Z"/>
<path onmouseover="hoverPath(evt)" onmouseout="recoverPath(evt)" fill="rgb(213,217,221)" d="M  92,30l -1,0 0,1 -1,1 -1,1 -1,0 -1,1 -1,0 0,1 -1,1 1,0 1,1 0,2 1,1 0,2 1,0 1,1 0,2 -1,1 0,1 -1,1 0,2 1,0 1,-1 0,0 1,-1 0,-1 1,-1 1,-1 0,-2 1,-1 2,0 1,-1 3,0 0,-2 1,-1 1,-1 1,0 1,-1 1,-1 1,-1 1,-1 1,-1 1,-1 1,0 1,-1 1,-1 1,-1 1,-1 1,0 1,-1 2,-2 1,0 2,-2 1,-1 1,-1 1,0 1,-1 1,-1 1,-1 1,-1 2,0 1,-1 0,-2 1,-1 -1,-1 0,0 -1,1 -2,0 0,1 -1,1 -1,1 -1,1 -1,1 -1,0 -1,1 -8,0 -1,-1 -1,-1 0,-2 -1,-1 -1,0 -1,1 -1,0 -1,1 -1,1 -1,1 -1,1 0,4 -1,1 0,1 -1,1 -6,0 0,1 -1,1 -1,1 0,1 -1,1Z"/>
<path onmouseover="hoverPath(evt)" onmouseout="recoverPath(evt)" fill="rgb(243,242,235)" d="M  37,134l 0,0 -1,1 1,1 0,2 -1,1 -2,0 -1,-1 -1,-1 -1,1 -1,0 -1,1 -1,0 -2,2 -1,0 -1,1 -1,1 -1,0 -1,1 -1,0 -1,1 -1,1 -1,0 -1,1 -1,1 -1,0 0,1 -1,1 -2,0 -1,1 -1,0 -2,2 -1,0 -1,1 0,1 1,1 1,0 1,1 1,0 1,1 1,0 1,1 1,0 1,-1 0,0 1,-1 1,-1 1,-1 1,-1 2,-2 1,0 1,-1 1,0 1,-1 1,0 1,-1 5,0 1,1 8,0 -1,-1 0,-4 1,-1 0,-5 1,-1 6,0 1,1 1,1 0,1 1,1 2,0 1,-1 4,0 1,1 1,1 0,2 -1,1 -5,0 -1,1 -3,0 0,1 2,0 2,-1 37,0 1,-1 3,0 1,-1 13,0 1,1 1,0 1,1 1,-1 2,0 1,-1 3,0 1,-1 2,0 1,-1 2,0 1,-1 0,-1 -1,-1 0,0 -1,-1 0,-2 -1,0 -1,-1 -1,-1 -1,-1 0,-1 -1,-1 -1,-1 -1,-1 -1,-1 0,-1 -1,-1 -1,-1 -1,-1 0,-1 -1,-1 -1,-1 -1,-1 0,-1 -1,-1 -1,-1 -1,-1 0,-1 -1,-1 -1,-1 -1,-1 0,-1 -1,-1 -1,-1 -1,-1 0,-1 -1,-1 -1,-1 -1,-1 -1,-1 -1,-1 0,-1 -1,0 -1,1 -1,0 -1,1 -1,0 -1,1 -1,1 -1,0 -1,1 -1,0 -1,1 -1,0 -1,1 -1,0 -1,1 -1,1 -1,0 -1,1 -1,0 -1,1 -1,0 -1,1 -1,1 -1,0 -1,1 -1,0 -1,1 -1,0 -1,1 -1,0 -1,1 -1,1 -1,0 -1,1 -1,0 -1,1 -1,0 -1,1 -1,0 -1,1 -1,1 -1,0 -1,1 -1,0 -1,1 -1,0 -1,1 -1,0 -1,1 -1,1 -1,0 -1,1 -1,0 -1,1 -1,0 -1,1 -1,0 -1,1Z"/>
<path onmouseover="hoverPath(evt)" onmouseout="recoverPath(evt)" fill="rgb(173,200,237)" d="M  60,207l -2,2 -1,1 -1,0 0,1 -1,1 -2,0 -1,1 -1,0 -1,1 -1,1 -5,0 1,1 0,1 1,1 1,1 0,-1 1,-1 1,0 1,-1 2,0 1,1 0,2 -1,1 0,4 -1,1 1,1 3,0 1,1 1,1 0,1 1,1 1,1 0,1 1,0 1,-1 1,0 1,-1 1,-1 1,0 1,-1 1,-1 1,0 1,-1 1,-1 1,0 2,-2 0,-3 1,-1 2,0 1,1 0,1 1,1 1,1 1,1 1,1 1,1 1,1 1,1 1,1 1,1 0,1 1,1 1,1 0,3 -1,1 -1,1 0,2 1,1 0,0 1,1 0,1 1,1 1,1 1,1 1,0 1,1 0,-4 1,-1 2,0 1,1 1,1 1,1 1,1 1,1 1,0 1,-1 0,0 -1,-1 0,0 -1,-1 -1,-1 -1,-1 -1,-1 -1,-1 -1,-1 -1,-1 -1,-1 -1,-1 0,-1 -1,-1 -1,-1 -1,-1 -1,-1 -1,-1 -1,-1 -1,-1 -1,-1 -1,-1 -1,-1 -1,-1 0,-1 -1,-1 -1,-1 -1,-1 -1,-1 -1,-1 0,-1 -1,-1 0,-5 -1,-1 -1,-1 -1,-1 -1,-1 -1,-1 -1,-1 -1,-1 0,-1 -1,-1 0,-3 1,-1 1,-1 1,-1 1,-1 1,0 1,-1 2,0 1,-1 4,0 1,1 1,1 1,1 0,1 1,1 1,1 0,1 1,1 1,1 0,1 1,1 1,1 0,1 1,1 1,1 0,1 1,1 1,1 1,1 0,1 1,1 1,1 1,1 1,1 1,0 1,1 1,1 1,1 1,1 1,1 1,1 1,1 1,1 1,0 0,-1 -1,-1 0,-1 -1,-1 -1,-1 -1,-1 -1,-1 0,-1 -1,-1 -1,-1 -1,-1 -1,-1 -1,-1 -1,-1 -1,-1 -1,-1 -1,-1 0,-1 -1,-1 -1,-1 -1,-1 0,-1 -1,-1 -1,-1 -1,-1 0,-1 -1,-1 -1,-1 0,-1 -1,-1 0,-3 1,-1 1,-1 2,0 1,-1 3,0 1,-1 3,0 1,-1 3,0 1,-1 2,0 1,-1 2,0 0,-3 -4,0 -1,1 -2,0 -1,1 -3,0 -1,1 -2,0 -1,1 -2,0 -1,1 -2,0 -1,1 -1,0 -1,1 -2,0 -1,1 -1,0 -1,1 -2,0 -1,1 -1,0 0,1 -16,14 13,-13 -1,0 -1,-1 -1,-1 -1,-1 0,-1 -1,-1 0,-1 -1,1 -1,0 0,1 1,1 0,0 1,1 0,2 -1,1 -1,1 -1,1 0,6 -1,1 -1,1 -1,1 -1,0 -1,1Z"/>
<path onmouseover="hoverPath(evt)" onmouseout="recoverPath(evt)" fill="rgb(243,242,235)" d="M  68,6l -1,0 -1,1 -1,1 -1,1 1,0 1,1 0,1 1,1 1,1 1,1 0,1 1,1 2,2 0,1 1,1 1,1 0,1 1,0 1,1 1,1 1,1 1,1 2,2 1,1 1,1 1,1 1,0 1,1 1,-1 1,0 1,-1 0,-1 1,-1 2,0 0,-1 1,-1 1,-1 0,-1 1,-1 6,0 0,-1 1,-1 0,-4 1,-1 1,-1 1,-1 1,-1 1,-1 1,0 1,-1 3,0 1,1 1,1 0,2 1,1 6,0 1,-1 1,0 2,-2 1,-1 0,-1 1,-1 2,0 1,-1 1,0 0,-1 1,-1 1,0 1,-1 1,-1 1,-1 1,-1 1,-1 1,0 1,-1 0,-1 -70,0 0,3 -1,1 0,1 -1,1Z"/>
<path onmouseover="hoverPath(evt)" onmouseout="recoverPath(evt)" fill="rgb(243,242,234)" d="M  106,47l 0,0 1,1 0,1 1,1 0,3 1,1 0,1 1,1 0,1 1,1 1,1 2,0 1,-1 1,-1 1,-1 1,-1 1,0 1,-1 1,-1 1,-1 1,-1 1,-1 1,0 0,-2 1,-1 1,-1 1,0 0,-1 1,-1 1,0 1,-1 1,0 0,-1 1,-1 1,-1 1,-1 1,0 1,-1 1,-1 1,-1 1,0 1,-1 1,-1 1,0 0,-1 -1,-1 0,0 -1,-1 -1,-1 -1,-1 -1,-1 0,-1 -1,-1 -1,-1 -2,0 -1,1 -1,0 -1,1 0,1 -1,1 -2,0 -2,2 -1,0 -1,1 -1,1 -1,1 -1,0 -1,1 -1,1 0,1 -1,1 -2,0 -1,1 -1,1 0,1 -1,1 -1,0 -1,1 -1,0 -2,2 -3,0 0,1 1,1Z"/>
<path onmouseover="hoverPath(evt)" onmouseout="recoverPath(evt)" fill="rgb(244,243,236)" d="M  128,175l 0,0 1,1 0,1 1,1 3,3 0,1 1,1 1,1 1,1 0,1 1,1 1,1 1,1 0,1 1,1 1,1 0,1 1,1 1,1 1,1 0,1 1,1 1,1 1,0 1,-1 0,0 1,-1 3,0 1,1 1,1 1,1 1,1 1,1 0,1 1,1 0,2 1,-1 1,0 1,-1 1,0 1,-1 1,0 1,-1 1,0 1,-1 1,0 1,-1 1,0 1,-1 1,0 1,-1 1,0 1,-1 1,0 1,-1 1,-1 -1,-1 0,0 -1,-1 -1,-1 0,-1 -1,-1 -1,-1 -1,-1 0,-1 -1,-1 -1,-1 0,-1 -1,-1 -1,-1 0,-1 -1,-1 0,-1 -1,-1 -1,-1 0,-1 -1,-1 0,-1 -1,-1 0,-1 -1,-1 -1,-1 0,-1 -1,-1 0,-1 -1,-1 -1,-1 0,-1 -1,-1 -1,-1 0,2 -1,1 -1,1 -2,0 -1,1 -2,0 -1,1 -1,0 -1,1 -2,0 -1,1 -5,0 0,1 -1,1 -1,0 -1,1 -2,0 -1,1 -3,0 -1,1 -1,-1 0,-1 -1,-1 0,0 -1,-1 0,-2 -1,-1 -1,-1 -1,-1 2,3 0,0 1,3 0,1 1,0 2,2Z"/>
<path onmouseover="hoverPath(evt)" onmouseout="recoverPath(evt)" fill="rgb(175,201,237)" d="M  134,143l 0,4 1,0 1,-1 3,0 1,-1 6,0 1,1 1,1 0,-1 1,-1 0,-3 1,-1 2,0 1,1 0,1 1,1 1,1 1,-1 1,0 1,-1 1,0 1,-1 1,0 1,-1 1,0 1,-1 2,0 1,-1 1,0 2,-2 -1,-1 0,-1 -1,-1 -1,-1 -1,-1 0,-1 -1,-1 -1,-1 -1,-1 0,-2 1,-1 1,-1 1,-1 2,0 0,-2 1,-1 1,-1 1,0 1,-1 1,0 1,-1 1,0 1,-1 2,0 1,-1 1,0 1,-1 1,0 1,-1 1,0 1,-1 1,0 1,-1 1,0 1,-1 1,0 1,-1 1,0 1,-1 1,0 1,-1 1,0 1,-1 1,0 1,-1 1,0 1,-1 1,0 1,-1 1,0 1,-1 1,0 1,-1 1,0 1,-1 4,0 1,1 1,1 0,5 -1,1 5,0 1,1 1,1 1,1 0,1 1,1 0,1 1,1 0,1 1,1 0,2 1,1 0,1 1,1 0,1 1,1 1,1 1,1 0,1 1,0 1,1 1,-1 0,0 1,-1 -1,-1 0,-1 -1,-1 0,-1 -1,-1 -1,-1 -1,-1 0,-1 -1,-1 -1,-1 0,-1 -1,-1 -1,-1 -1,-1 0,-1 -1,-1 -1,-1 -1,-1 -1,-1 -1,-1 -1,-1 -1,-1 -1,0 -82,39 81,-42 -1,-1 0,-3 1,-1 1,0 1,-1 1,0 1,-1 1,0 0,-1 -6,0 -1,-1 -1,0 -1,-1 0,-1 -1,-1 0,-2 1,-1 0,-1 -1,-1 0,-1 -1,-1 -1,-1 -1,-1 -1,-1 0,-2 1,-1 1,-1 2,0 0,-2 -1,-1 -1,0 -1,-1 -3,0 -1,1 -1,0 -1,1 -1,1 -1,1 -2,0 -1,-1 -1,-1 -1,-1 -1,-1 -1,-1 -1,-1 -1,-1 -1,-1 -5,0 -1,1 -1,0 -1,1 -1,1 -1,0 -1,1 -1,0 -1,1 -1,1 -1,0 -1,1 -1,0 -2,2 -1,0 0,1 1,1 0,0 1,1 0,1 1,1 1,1 0,1 1,1 1,1 1,1 0,1 1,1 1,1 1,1 0,1 1,1 1,1 0,1 3,0 1,-1 1,0 1,-1 1,-1 1,-1 2,0 1,1 0,2 -1,1 0,4 -1,1 -2,0 -1,1 0,2 -1,1 -2,0 -1,-1 -1,-1 -1,-1 -1,0 -1,1 -1,0 -1,1 -1,0 -1,1 -1,0 -1,1 -1,1 0,1 -1,1 -3,0 -1,1 -1,0 -1,1 -1,0 -1,1 -1,1 -1,0 -1,1 -1,0 -1,1 0,2 -1,1 -5,0 -1,1 -1,0 -2,2 0,2 1,1 0,1 1,1 0,2 -1,1 -1,1 -1,0 -1,1 -1,0 -2,2 -1,1 0,5 -1,1 -2,0 -1,-1 0,-6 -5,0 -1,-1 -1,-1 0,-1 -2,0 -1,1 -1,0 -1,1 -1,1 -3,0 -1,-1 -1,-1 0,-1 -1,-1 0,-1 -1,-1 -1,-1 -1,-1 -1,-1 0,-1 -1,-1 -1,-1 -1,-1 -1,-1 0,-1 -1,-1 -1,-1 0,-1 -1,-1 -1,-1 0,-1 -1,-1 -1,-1 -1,-1 -1,-1 -1,-1 -1,-1 -1,-1 -1,-1 0,-3 -1,1 0,0 -1,1 0,1 1,1 0,0 1,1 1,1 1,1 1,1 0,1 1,1 1,1 1,1 0,1 1,1 1,1 1,1 0,1 1,1 1,1 1,1 0,1 1,1 1,1 1,1 0,1 1,1 1,1 1,1 0,1 1,1 1,1 1,1 1,1 0,1 1,1 1,1 4,0 1,1 0,1 1,1 0,1 1,1 1,1 1,1 1,0 82,-41 -81,42Z"/>
<path onmouseover="hoverPath(evt)" onmouseout="recoverPath(evt)" fill="rgb(171,198,238)" d="M  238,175l 1,-1 -1,0 -1,1 -1,1 -1,0 -1,1 -1,1 -1,0 0,1 1,0 1,-1 1,0 1,-1 1,0 1,-1 0,-1 4,-1 1,1 1,1 0,1 1,1 0,1 1,1 1,1 0,1 1,1 0,1 1,1 0,1 1,1 1,1 0,1 1,1 1,1 1,1 0,1 1,0 0,-7 -2,0 -1,-1 0,-1 -1,-1 -1,-1 0,-1 -1,-1 -1,-1 -1,-1 0,-1 -1,-1 0,-7 -1,1 0,0 -1,1 -1,0 -1,3 -4,1Z"/>
</svg>