<svg width="256" height="256" xmlns="http://www.w3.org/2000/svg"><script> 
var tempColor;
function hoverPath(evt){
obj = evt.target;
tempColor = obj.getAttribute("fill");
obj.setAttribute("fill","red");
//alert(tempColor);
//obj.setAttribute("stroke","red");}
function recoverPath(evt){
obj = evt.target;
obj.setAttribute("fill", tempColor);
//obj.setAttribute("stroke", tempColor);
}</script><path onmouseover="hoverPath(evt)" onmouseout="recoverPath(evt)" fill="rgb(171,198,238)" d="M  77,44l 0,2 1,1 0,1 12,0 1,-1 21,0 1,-1 21,0 1,-1 8,0 1,-1 22,0 1,1 3,0 1,1 2,0 1,1 2,0 1,1 3,0 1,1 20,0 1,-1 2,0 1,-1 1,0 1,-1 1,0 1,-1 1,0 1,-1 1,0 1,-1 1,0 1,-1 1,0 1,-1 1,0 1,-1 1,0 1,-1 2,0 1,-1 1,0 1,-1 1,0 1,-1 1,0 1,-1 1,0 1,-1 1,0 1,-1 1,0 1,-1 1,-1 1,0 1,-1 1,0 1,-1 1,0 1,-1 1,0 1,-1 1,-1 1,0 1,-1 2,0 1,-1 1,0 1,-1 2,0 0,-7 -2,0 -1,1 -1,0 -1,1 -2,0 -1,1 -1,0 -1,1 -1,0 -1,1 -2,0 -1,1 -1,0 -1,1 -1,1 -1,0 -1,1 -1,1 -1,0 -1,1 -1,1 -1,0 -1,1 -1,0 -1,1 -1,0 -1,1 -1,0 -1,1 -1,1 -1,0 -1,1 -1,0 -1,1 -1,0 -1,1 -1,0 -1,1 -1,0 -1,1 -1,0 -1,1 -1,0 -1,1 -2,0 -1,1 -2,0 -1,1 -4,0 -1,1 -16,0 -1,-1 -4,0 -1,-1 -4,0 -1,-1 -4,0 -1,-1 -6,0 -1,-1 -13,0 -1,1 -6,0 -1,1 -5,0 -1,1 -9,0 -1,1 -23,0 -1,1 -19,0 -1,1Z"/>
<path onmouseover="hoverPath(evt)" onmouseout="recoverPath(evt)" fill="rgb(242,242,235)" d="M  83,218l -2,0 0,1 -1,1 0,1 -1,1 1,1 0,4 -1,1 0,1 -1,1 1,1 0,2 -1,1 -1,0 0,4 1,1 2,0 1,1 0,3 1,1 1,1 1,1 1,0 1,1 1,1 1,1 1,1 1,0 1,1 1,1 1,1 1,1 0,1 138,0 0,-2 1,-1 1,0 1,-1 1,0 1,-1 1,0 1,-1 1,-1 1,-1 1,-1 1,-1 1,-1 0,-7 -1,-1 0,-3 -1,-1 0,-3 -1,-1 0,-3 -1,-1 0,-2 -1,-1 0,-2 -1,-1 0,-2 -1,-1 -1,-1 -1,-1 -1,-1 -1,0 -1,-1 -4,0 -1,1 -1,0 -1,1 -2,0 -1,1 -2,0 -1,1 -2,0 -1,1 -3,0 -1,-1 -1,0 -1,1 -3,0 0,2 -1,1 -4,0 -1,1 -9,0 -1,1 -5,0 -1,1 -3,0 0,12 -1,1 0,3 1,1 0,3 -1,1 -2,0 0,1 1,1 0,2 -1,1 -2,0 0,1 -1,1 -3,0 -1,-1 0,-4 1,-1 0,-1 1,-1 0,-1 1,-1 0,-2 1,-1 0,-4 1,-1 0,-9 -1,-1 -6,0 -1,1 -51,0 -1,-1 -16,0 -1,-1 -4,0 -1,-1 -5,0 -1,-1 -2,0 -1,-1Z"/>
<path onmouseover="hoverPath(evt)" onmouseout="recoverPath(evt)" fill="rgb(239,240,233)" d="M  86,192l -1,1 0,7 -1,1 -1,0 -1,1 1,0 1,1 0,3 1,1 0,1 2,0 1,1 3,0 1,1 2,0 1,1 2,0 1,1 2,0 1,1 2,0 1,1 2,0 1,1 3,0 1,1 6,0 1,-1 6,0 1,-1 4,0 1,-1 5,0 1,-1 4,0 1,-1 3,0 1,-1 4,0 1,-1 4,0 1,-1 3,0 1,-1 2,0 -1,-1 0,-3 -1,-1 0,-2 -1,-1 0,-2 -1,-1 0,-2 -1,-1 0,-3 -1,-1 0,-3 -1,-1 0,-3 -1,-1 0,-3 -4,0 -1,-1 0,-2 1,-1 1,0 1,-1 -1,-1 0,-2 -1,-1 0,-2 -1,-1 0,-3 -1,-1 0,-3 -1,-1 0,-3 -1,-1 0,-6 1,-1 1,-1 1,-1 1,-1 1,0 0,-17 -1,-1 0,-1 -5,0 -1,-1 0,-2 1,-1 4,0 0,-1 1,-1 0,-41 -1,-1 0,-3 -8,0 -1,-1 0,-2 1,-1 5,0 1,-1 1,0 1,-1 0,-3 -1,0 -1,-1 -3,0 -1,1 -18,0 -1,-1 -8,0 -1,1 -21,0 -1,1 -9,0 -1,-1 -2,0 0,2 -1,1 -2,0 0,1 -1,1 -1,0 0,3 1,1 0,4 1,1 0,3 1,1 0,3 1,1 0,4 1,1 0,4 1,1 1,1 0,2 -1,1 0,1 -1,1 0,3 2,0 1,1 1,1 0,2 -1,1 3,0 1,1 0,1 1,0 1,1 0,5 1,0 1,1 0,4 -1,1 0,8 1,1 0,3 -1,1 0,9 1,0 1,1 0,3 -1,1 0,13 -1,1 -1,0 0,2 -1,1 -1,0 0,1 -1,1 0,2 -1,1 1,1 0,3 -1,1 0,2 -1,1 1,1 0,2 1,1 0,6 28,-49 1,-1 2,0 1,1 0,2 -1,1 -2,0 -1,-1 0,-2 -28,49Z"/>
<path onmouseover="hoverPath(evt)" onmouseout="recoverPath(evt)" fill="rgb(171,198,237)" d="M  163,144l 0,2 3,0 1,-1 2,0 1,-1 2,0 1,-1 0,-6 2,-2 3,0 1,-1 4,0 1,-1 5,0 1,-1 4,0 1,-1 4,0 1,-1 5,0 1,-1 4,0 1,-1 5,0 1,-1 4,0 1,-1 3,0 1,-1 3,0 1,-1 3,0 1,-1 6,0 1,-1 2,0 1,-1 2,0 1,-1 2,0 1,-1 5,0 0,-4 -3,0 -1,1 -4,0 -1,1 -2,0 -1,1 -1,0 -1,1 -2,0 -1,1 -2,0 -1,1 -6,0 -1,1 -5,0 -1,1 -4,0 -1,1 -4,0 -1,1 -4,0 -1,1 -5,0 -1,1 -5,0 -1,1 -5,0 -1,1 -5,0 -1,1 -4,0 -1,1 -5,0 -1,1 -1,0 -1,1 -1,0 -1,1 0,1 -1,1 1,1 0,4 -1,1 -1,0 -1,1 -1,0 -1,1Z"/>
<path onmouseover="hoverPath(evt)" onmouseout="recoverPath(evt)" fill="rgb(245,244,237)" d="M  0,1l 0,43 5,0 1,-1 9,0 1,-1 8,0 1,-1 6,0 0,-6 -1,-1 0,-4 -1,-1 0,-4 -1,-1 0,-4 -1,-1 0,-4 -1,-1 0,-4 -1,-1 0,-4 -1,-1 0,-4 -23,0 -1,1Z"/>
<path onmouseover="hoverPath(evt)" onmouseout="recoverPath(evt)" fill="rgb(244,243,236)" d="M  0,53l 0,81 38,0 1,1 34,0 0,-2 -1,-1 0,-4 -1,-1 0,-4 -1,-1 0,-4 -1,-1 0,-4 -1,-1 0,-4 -1,-1 0,-4 -1,-1 0,-4 -1,-1 0,-4 -1,-1 0,-3 -1,-1 0,-4 -1,-1 0,-3 -1,-1 0,-3 -1,-1 0,-3 -1,-1 0,-4 -1,-1 0,-4 -1,-1 0,-3 -1,-1 0,-3 -1,-1 0,-3 -15,0 -1,1 -29,0 -1,1 -8,0 -1,1Z"/>
<path onmouseover="hoverPath(evt)" onmouseout="recoverPath(evt)" fill="rgb(254,254,254)" d="M  1,137l 31,0 1,1 40,0 1,1 0,-2 -36,0 -1,-1 -35,0 -1,1Z"/>
<path onmouseover="hoverPath(evt)" onmouseout="recoverPath(evt)" fill="rgb(244,243,237)" d="M  0,217l 0,38 53,0 0,-2 1,-1 1,0 1,-1 1,-1 1,-1 1,-1 1,-1 0,-1 1,-1 0,-1 -1,-1 -1,0 -1,-1 -2,0 -1,-1 -1,0 -1,-1 -1,0 -1,-1 -2,0 -1,-1 -1,0 -1,-1 -1,0 -1,-1 -1,0 -1,-1 -1,-1 -1,0 -1,-1 -1,0 -1,-1 -1,0 -1,-1 -1,0 -1,-1 -1,0 -1,-1 -1,-1 -1,0 -1,-1 -1,0 -1,-1 -1,0 -1,-1 -2,0 -1,-1 -1,0 -1,-1 -2,0 -1,-1 -1,0 -1,-1 -1,0 -1,-1 -2,0 -1,-1 -1,0 -1,-1 -1,0 -1,-1 -2,0 -1,-1 -1,0 -1,1Z"/>
<path onmouseover="hoverPath(evt)" onmouseout="recoverPath(evt)" fill="rgb(244,243,236)" d="M  31,1l 0,2 1,1 0,4 1,1 0,5 1,1 0,4 1,1 0,3 1,1 0,4 1,1 0,4 1,1 0,4 1,1 0,1 1,1 13,0 0,-1 -1,-1 0,-3 -1,-1 0,-3 -1,-1 0,-4 -1,-1 0,-3 -1,-1 0,-3 -1,-1 0,-4 -1,-1 0,-3 -1,-1 0,-3 -1,-1 0,-3 1,-1 0,-1 -13,0 -1,1Z"/>
<path onmouseover="hoverPath(evt)" onmouseout="recoverPath(evt)" fill="rgb(243,232,135)" d="M  47,1l 0,1 -1,1 0,1 1,1 0,3 1,1 0,3 1,1 0,4 1,1 0,3 1,1 0,3 1,1 0,4 1,1 0,3 1,1 0,3 1,1 0,2 1,0 1,1 0,3 1,1 0,3 -1,1 0,2 1,1 0,3 1,1 0,3 1,1 0,4 1,1 0,4 1,1 0,3 1,1 0,3 1,1 0,3 1,1 0,4 1,1 0,3 1,1 0,4 1,1 0,4 1,1 0,4 1,1 0,4 1,1 0,4 1,1 0,4 1,1 0,4 1,1 0,4 1,1 0,3 1,1 0,4 -1,1 0,46 -1,1 0,7 -1,1 0,4 -1,1 0,8 -1,1 0,8 -1,1 0,6 -1,1 0,4 1,1 0,6 -1,1 0,6 -1,1 0,4 -1,1 0,5 25,0 -1,-1 0,0 -1,-1 -1,-1 -1,0 -1,-1 -1,-1 -1,-1 -1,-1 -1,0 -1,-1 -1,-1 -1,-1 -1,-1 0,-3 -2,0 -1,-1 -1,-1 0,-6 1,-1 1,0 -1,-1 0,-2 1,-1 0,-1 1,-1 0,-2 -1,-1 0,-2 1,-1 0,-1 1,-1 0,-2 -1,-1 0,-2 1,-1 0,-1 1,-1 0,-2 -1,-1 0,-2 1,-1 -1,-1 0,-2 1,-1 1,0 1,-1 1,0 0,-4 -1,-1 0,-2 1,-1 1,0 0,-4 -1,-1 0,-2 -1,-1 0,-2 1,-1 0,-2 1,-1 0,-1 -1,-1 0,-2 1,-1 0,-2 1,-1 0,-1 -1,-1 0,-2 1,-1 0,-7 -1,-1 0,-5 1,-1 0,-5 -1,0 -1,-1 0,-6 1,-1 0,-11 -1,-1 0,-6 -1,-1 0,-3 1,-1 0,-1 -1,0 -1,-1 0,-2 1,-1 -1,-1 -2,0 -1,-1 0,-5 1,-1 0,-1 1,-1 -1,-1 0,0 -1,-1 0,-4 -1,-1 0,-4 -1,-1 0,-3 -1,-1 0,-3 -1,-1 0,-4 -1,-1 0,-4 -1,0 -1,-1 0,-3 1,-1 -1,-1 0,-2 -1,-1 0,-3 -1,-1 0,-4 -1,-1 0,-3 1,-1 1,0 0,-1 -1,-1 0,-3 -2,0 -1,-1 0,-2 -1,-1 0,-3 -1,-1 0,-4 -1,-1 0,-3 -1,-1 0,-4 -1,-1 0,-3 -1,-1 0,-3 -1,-1 0,-4 -1,-1 0,-4 -1,-1 0,-3 -9,0 -1,1Z"/>
<path onmouseover="hoverPath(evt)" onmouseout="recoverPath(evt)" fill="rgb(242,243,236)" d="M  68,0l -9,0 0,2 1,1 0,4 1,1 0,4 1,1 0,3 1,1 0,3 1,1 0,4 1,1 0,3 1,1 0,4 1,1 0,3 1,1 0,2 2,0 1,1 0,3 2,0 1,1 1,0 0,-4 1,-1 20,0 1,-1 23,0 1,-1 9,0 1,-1 5,0 1,-1 6,0 1,-1 15,0 1,1 6,0 1,1 4,0 1,1 4,0 1,1 4,0 1,1 14,0 1,-1 4,0 1,-1 2,0 1,-1 2,0 1,-1 1,0 1,-1 1,0 1,-1 1,0 1,-1 1,0 1,-1 1,0 1,-1 1,0 1,-1 1,0 1,-1 1,-1 1,0 1,-1 1,0 1,-1 1,0 1,-1 1,0 2,-2 1,0 1,-1 1,-1 1,0 1,-1 1,-1 1,0 1,-1 2,0 1,-1 1,0 1,-1 1,0 1,-1 2,0 1,-1 1,0 1,-1 3,0 0,-14Z"/>
<path onmouseover="hoverPath(evt)" onmouseout="recoverPath(evt)" fill="rgb(109,205,224)" d="M  89,121l -1,0 -1,-1 0,-5 -1,0 -1,-1 0,1 -1,1 0,1 1,1 0,6 1,1 0,13 -1,1 0,4 1,0 1,1 0,7 -1,1 0,3 1,1 0,9 -1,1 1,1 0,-1 1,-2 1,0 0,-13 1,-1 0,-1 -1,0 -1,-1 0,-11 1,-1 0,-1 -1,-1 0,-10 1,-1Z"/>
<path onmouseover="hoverPath(evt)" onmouseout="recoverPath(evt)" fill="rgb(244,243,236)" d="M  0,142l 0,62 2,0 1,1 1,0 1,1 1,0 1,1 2,0 1,1 1,0 1,1 1,0 1,1 1,0 1,1 2,0 1,1 1,0 1,1 1,0 1,1 2,0 1,1 1,0 1,1 1,0 1,1 1,0 1,1 1,0 1,1 1,0 1,1 1,0 1,1 2,0 1,1 1,0 1,1 1,0 1,1 1,0 1,1 1,0 1,1 1,0 1,1 1,0 1,1 1,0 1,1 1,0 1,1 1,0 1,1 1,0 1,1 1,0 1,1 1,0 1,1 1,0 0,-3 1,-1 0,-5 1,-1 0,-6 1,-1 0,-8 1,-1 0,-8 1,-1 0,-4 1,-1 0,-7 1,-1 0,-45 -1,-1 -40,0 -1,-1 -31,0Z"/>
<path onmouseover="hoverPath(evt)" onmouseout="recoverPath(evt)" fill="rgb(243,242,234)" d="M  180,210l 0,2 1,1 0,1 2,0 1,1 0,1 1,1 3,0 1,-1 2,0 1,-1 13,0 1,-1 3,0 1,-1 2,0 1,-1 1,-1 1,0 1,-1 1,0 1,-1 2,0 1,-1 3,0 1,-1 3,0 0,-6 1,-1 0,-11 1,-1 0,-1 1,-1 1,-1 1,-1 1,-1 1,0 1,-1 1,-1 1,0 1,-1 1,0 1,-1 2,0 1,-1 4,0 1,-1 6,0 0,-56 -4,0 -1,1 -2,0 -1,1 -2,0 -1,1 -2,0 -1,1 -6,0 -1,1 -3,0 -1,1 -3,0 -1,1 -3,0 -1,1 -4,0 -1,1 -5,0 -1,1 -4,0 -1,1 -5,0 -1,1 -4,0 -1,1 -4,0 -1,1 -5,0 -1,1 -4,0 -1,1 -3,0 -1,1 0,6 -1,1 -1,1 -2,0 -1,1 -2,0 -1,1 -4,0 0,8 1,1 0,4 1,1 0,2 1,1 0,2 1,1 0,3 1,1 0,2 1,1 0,3 1,1 0,2 1,1 0,1 4,0 1,-1 4,0 1,-1 4,0 1,-1 5,0 1,-1 5,0 1,-1 7,0 1,-1 6,0 1,-1 6,0 1,1 0,3 -1,1 -4,0 -1,1 -6,0 -1,1 -3,0 0,1 -1,1 1,1 5,0 1,1 0,2 -1,1 -3,0 -1,1 -4,0 -1,1 -7,0 -1,-1 0,-2 1,-1 3,0 1,-1 2,0 0,-2 -1,0 -1,-1 -2,0 -1,1 -6,0 -1,1 -3,0 -1,1 -4,0 -1,1 -4,0 -1,1 0,1 1,1 0,1 2,0 1,-1 6,0 1,1 0,2 -1,1 -1,0 0,4 1,1 0,1 1,1 0,1 1,1 1,0 1,1 9,0 1,1 0,2 -1,1 -12,0 -1,-1 -2,0 -1,-1 0,-1 -1,-1 0,3 1,1 0,1 36,-24 2,0 1,1 0,2 -1,1 -2,0 -1,-1 0,-2 1,-1 -36,24Z"/>
<path onmouseover="hoverPath(evt)" onmouseout="recoverPath(evt)" fill="rgb(173,199,237)" d="M  235,254l -1,0 0,1 21,0 0,-76 -5,0 -1,1 -4,0 -1,1 -2,0 -1,1 -1,0 -1,1 -1,0 -1,1 -1,1 -1,0 -1,1 -1,1 -1,1 0,1 -1,1 0,11 -1,1 0,6 -1,1 -3,0 -1,1 -3,0 -1,1 -2,0 -1,1 -1,0 -1,1 -1,0 -1,1 1,0 2,-1 1,0 1,-1 2,0 1,-1 2,0 2,-1 4,-1 3,0 1,1 1,0 1,1 1,1 1,1 1,1 1,1 0,2 1,1 0,2 1,1 0,2 1,1 0,3 1,1 0,3 1,1 0,3 1,1 0,9 -1,1 -1,1 -4,4 -1,1 -1,0 -1,1 -1,0 -1,1Z"/>
<path onmouseover="hoverPath(evt)" onmouseout="recoverPath(evt)" fill="rgb(171,198,236)" d="M  0,47l 0,3 8,0 1,-1 29,0 1,-1 17,0 0,-1 -1,-1 0,-3 -16,0 -1,-1 -1,-1 0,-1 -1,-1 0,-4 -1,-1 0,-4 -1,-1 0,-4 -1,-1 0,-3 -1,-1 0,-4 -1,-1 0,-5 -1,-1 0,-4 -1,-1 0,-4 -3,0 0,3 1,1 0,4 1,1 0,4 1,1 0,4 1,1 0,4 1,1 0,4 1,1 0,4 1,1 0,8 -1,1 -6,0 -1,1 -8,0 -1,1 -9,0 -1,1 -5,0 -1,1Z"/>
<path onmouseover="hoverPath(evt)" onmouseout="recoverPath(evt)" fill="rgb(174,198,233)" d="M  0,207l 0,7 3,0 1,1 2,0 1,1 1,0 1,1 1,0 1,1 2,0 1,1 1,0 1,1 1,0 1,1 2,0 1,1 1,0 1,1 2,0 1,1 1,0 1,1 1,0 1,1 1,0 1,1 1,1 1,0 1,1 1,0 1,1 1,0 1,1 1,0 1,1 1,0 1,1 1,1 1,0 1,1 1,0 1,1 1,0 1,1 2,0 1,1 1,0 1,1 1,0 1,1 2,0 1,1 1,0 1,1 1,1 0,3 -1,1 0,1 -1,1 -3,3 -1,1 -1,1 -1,0 0,1 10,0 0,-6 1,-1 0,-4 1,-1 0,-6 1,-1 0,-4 -1,4 -3,0 -1,-1 -1,0 -1,-1 -1,0 -1,-1 -1,0 -1,-1 -1,0 -1,-1 -1,0 -1,-1 -1,0 -1,-1 -1,0 -1,-1 -1,0 -1,-1 -1,0 -1,-1 -1,0 -1,-1 -1,0 -1,-1 -1,0 -1,-1 -2,0 -1,-1 -1,0 -1,-1 -1,0 -1,-1 -1,0 -1,-1 -1,0 -1,-1 -1,0 -1,-1 -1,0 -1,-1 -2,0 -1,-1 -1,0 -1,-1 -1,0 -1,-1 -2,0 -1,-1 -1,0 -1,-1 -1,0 -1,-1 -1,0 -1,-1 -2,0 -1,-1 -1,0 -1,-1 -1,0 -1,-1 -1,1Z"/>
<path onmouseover="hoverPath(evt)" onmouseout="recoverPath(evt)" fill="rgb(242,242,234)" d="M  77,50l 0,0 -1,-1 0,-1 -3,0 -1,-1 0,2 -1,1 -1,0 0,1 1,1 0,4 1,1 0,3 1,1 0,2 1,1 0,2 -1,1 0,1 2,0 0,-1 1,-1 2,0 0,-2 1,-1 3,0 1,-1 4,0 1,-1 9,0 1,-1 56,0 1,1 0,2 -1,1 -1,0 -1,1 0,7 1,1 0,43 1,1 0,25 1,1 0,2 1,1 0,11 1,1 0,3 1,1 0,2 1,1 0,3 1,1 0,1 1,1 0,4 1,1 0,2 1,1 0,3 1,1 0,2 1,1 0,3 1,1 0,3 1,1 0,3 1,1 0,4 1,1 0,2 1,1 0,2 -1,1 -1,1 -1,0 -1,1 -1,1 -2,0 -1,1 -4,0 -1,1 -4,0 -1,1 -3,0 -1,1 -4,0 -1,1 -3,0 1,1 23,0 1,-1 10,0 1,-1 -1,-1 -1,0 -1,-1 0,-4 1,-1 0,-1 -1,-1 0,-2 -1,-1 0,-2 -1,-1 0,-1 -1,-1 0,-2 -1,-1 0,-2 -1,-1 0,-1 -1,-1 0,-3 -1,-1 0,-3 -1,-1 0,-2 -1,-1 0,-2 -1,-1 0,-3 -1,-1 0,-2 -1,-1 0,-1 -1,-1 0,-4 -1,-1 0,-4 -1,-1 0,-8 -1,-1 0,-32 -1,-1 0,-31 -1,-1 0,-18 1,-1 3,0 1,1 0,15 1,1 0,29 1,1 0,28 1,1 1,0 1,-1 1,0 0,-2 -1,-1 0,-2 1,-1 0,-1 1,-1 1,-1 1,0 1,-1 1,0 1,-1 5,0 1,-1 4,0 1,-1 5,0 1,-1 5,0 1,-1 5,0 1,-1 5,0 1,-1 4,0 1,-1 4,0 1,-1 4,0 1,-1 5,0 1,-1 6,0 1,-1 2,0 1,-1 2,0 1,-1 1,0 1,-1 2,0 1,-1 4,0 1,-1 4,0 0,-88 -1,0 -1,1 -1,0 -1,1 -2,0 -1,1 -1,0 -1,1 -1,1 -1,0 -1,1 -1,0 -1,1 -1,0 -1,1 -1,0 -1,1 -1,1 -1,0 -1,1 -1,0 -1,1 -1,0 -1,1 -1,0 -1,1 -1,0 -1,1 -1,0 -1,1 -2,0 -1,1 -1,0 -1,1 -1,0 -1,1 -1,0 -1,1 -1,0 -1,1 -1,0 -1,1 -1,0 -1,1 -1,0 -1,1 -1,0 -1,1 -2,0 -1,1 -22,0 -1,-1 -3,0 -1,-1 -2,0 -1,-1 -2,0 -1,-1 -3,0 -1,-1 -20,0 -1,1 -8,0 -1,1 -21,0 -1,1 -21,0 -1,1Z"/>
<path onmouseover="hoverPath(evt)" onmouseout="recoverPath(evt)" fill="rgb(246,249,250)" d="M  86,216l 1,0 1,1 2,0 1,1 5,0 1,1 4,0 1,1 16,0 1,1 49,0 1,-1 8,0 1,1 1,1 0,11 -1,1 0,4 -1,1 0,2 -1,1 0,1 -1,1 0,1 -1,1 0,2 1,0 0,-1 1,-1 2,0 -1,-1 0,-3 1,-1 2,0 0,-1 -1,-1 0,-5 1,-1 0,-12 1,-1 3,0 1,-1 5,0 1,-1 9,0 1,-1 -8,0 -3,1 -6,1 -1,-1 -1,-1 0,-1 -2,0 -1,-1 0,-1 -1,-1 0,-3 -1,-1 0,-5 1,-1 2,0 1,1 1,1 0,1 2,0 1,1 10,0 -10,-1 -2,-1 0,0 -1,-1 0,-1 -1,-1 0,-1 -1,-1 0,-6 1,-1 -3,0 -1,1 -4,0 -1,-1 0,-1 -1,-1 0,-3 1,-1 1,-1 4,0 1,-1 4,0 1,-1 3,0 1,-1 6,0 1,-1 4,0 1,1 1,0 1,1 0,0 1,-1 0,-1 1,-1 3,0 1,-1 6,0 1,-1 4,0 0,-1 -4,0 -1,1 -6,0 -1,1 -7,0 -1,1 -5,0 -1,1 -5,0 -1,1 -4,0 -1,1 -4,0 -1,1 -6,0 -1,-1 0,-1 -1,-1 0,-2 -1,-1 0,-3 -1,-1 0,-2 -1,-1 0,-3 -1,-1 0,-2 -1,-1 0,-2 -1,-1 0,-4 -1,-1 0,-15 -1,-1 0,-28 -1,-1 0,-29 -1,-1 0,-15 -1,0 0,16 1,1 0,31 1,1 0,32 1,1 0,8 1,1 0,4 1,1 0,4 1,1 0,1 1,1 0,2 1,1 0,3 1,1 0,2 1,1 0,2 1,1 0,3 1,1 0,3 1,1 0,1 1,1 0,2 1,1 0,2 1,1 0,1 1,1 0,2 1,1 0,2 1,1 0,3 -1,1 0,2 1,0 1,1 1,1 0,2 -1,1 -1,1 -10,0 -1,1 -25,0 -1,-1 -1,-1 0,-2 1,-1 3,0 1,-1 4,0 1,-1 3,0 1,-1 4,0 1,-1 4,0 1,-1 2,0 1,-1 1,-1 1,0 1,-1 -1,-1 0,-2 -1,-1 0,-4 -1,-1 0,-3 -1,-1 0,-3 -1,-1 0,-3 -1,-1 0,-2 -1,-1 0,-3 -1,0 0,1 1,3 0,1 1,2 0,1 1,3 0,1 1,3 0,1 1,3 0,2 1,3 0,2 -1,1 -2,0 0,1 -1,1 -2,0 -1,1 -3,0 -1,1 -4,0 -1,1 -4,0 -1,1 -3,0 -1,1 -4,0 -1,1 -5,0 -1,1 -4,0 -1,1 -6,0 -1,1 -8,0 -1,-1 -3,0 -1,-1 -2,0 -1,-1 -2,0 -1,-1 -2,0 -1,-1 -2,0 -1,-1 -2,0 -1,-1 -3,0 -1,-1 -2,0 -1,-1 0,-1 -1,-1 0,-3 -1,2 0,0 1,2 0,3 -1,1 0,1 -1,1 1,1 0,1 5,0 115,-30 0,2 -1,1 4,0 1,-1 -2,0 -1,-1 -1,-1 -115,30 112,-27 -1,1 -3,0 4,-1 -112,27Z"/>
<path onmouseover="hoverPath(evt)" onmouseout="recoverPath(evt)" fill="rgb(253,253,253)" d="M  148,71l -1,0 -1,1 1,0 1,-1 2,-2 0,-5 1,-1 0,0 1,-1 -53,0 -1,1 -9,0 -1,1 3,0 8,-1 51,0 1,11 -1,0 0,2 1,1 0,43 -1,1 0,1 -1,1 1,0 1,1 0,1 1,1 0,22 1,1 0,7 1,1 0,-10 -1,-1 0,-2 -3,-75 -2,2 4,50 0,1 -1,-46 0,-1 -4,48Z"/>
<path onmouseover="hoverPath(evt)" onmouseout="recoverPath(evt)" fill="rgb(189,209,237)" d="M  158,171l 0,-1 -1,-1 0,-3 -1,-1 0,-2 -1,-1 0,-3 -2,0 -1,-1 -1,-1 0,-7 -1,-1 0,-3 -1,1 -1,1 -1,1 0,4 1,1 0,3 1,1 0,3 1,1 0,3 1,1 0,2 1,1 0,2 1,1 0,2 -1,1 -1,1 3,0 1,1 0,3 1,1 0,3 1,1 0,3 1,1 0,3 1,1 0,2 1,1 0,2 1,1 0,2 1,1 0,3 2,0 0,-2 -1,-1 0,-4 -1,-1 0,-3 -1,-1 0,-3 -1,-1 0,-2 -1,-1 0,-3 -1,-1 0,-3 1,-1 1,0 0,-1 -1,-1 0,-4 -1,-1Z"/>
</svg>