<svg width="256" height="256" xmlns="http://www.w3.org/2000/svg"><script> 
var tempColor;
function hoverPath(evt){
obj = evt.target;
tempColor = obj.getAttribute("fill");
obj.setAttribute("fill","red");
//alert(tempColor);
//obj.setAttribute("stroke","red");}
function recoverPath(evt){
obj = evt.target;
obj.setAttribute("fill", tempColor);
//obj.setAttribute("stroke", tempColor);
}</script><path onmouseover="hoverPath(evt)" onmouseout="recoverPath(evt)" fill="rgb(242,242,235)" d="M  0,52l 0,21 1,0 1,-1 1,0 1,-1 1,0 1,-1 1,0 1,-1 1,0 1,-1 1,0 1,-1 1,0 1,-1 1,0 1,-1 1,0 1,-1 2,0 1,-1 1,0 1,-1 2,0 1,-1 1,0 1,-1 2,0 1,-1 1,0 1,-1 4,0 1,-1 4,0 -1,-1 0,-1 -1,-1 -1,-1 -1,-1 0,-1 -1,-1 -1,-1 0,-1 -1,-1 -1,-1 -1,0 -1,-1 0,-2 -1,-1 -1,0 -1,-1 0,-2 -1,-1 -1,0 -1,-1 0,-2 -1,-1 -1,0 -1,-1 -1,0 -1,-1 -1,-1 0,-2 -1,0 -1,-1 -1,-1 0,-2 -1,0 -1,-1 -1,-1 0,-2 -1,0 -1,-1 -1,-1 0,-2 -1,0 -1,-1 -1,-1 0,-4 -1,-1 -1,-1 0,-1 -1,-1 -1,-1 -1,-1 -1,-1 0,-1 -1,-1 0,-2 -1,0Z"/>
<path onmouseover="hoverPath(evt)" onmouseout="recoverPath(evt)" fill="rgb(242,241,232)" d="M  232,17l 0,1 1,1 1,1 0,1 1,1 1,0 1,1 0,3 -1,1 2,2 2,0 1,1 1,0 1,1 0,2 1,1 4,0 1,1 3,0 1,1 0,1 1,1 1,0 0,-38 -28,0 0,4 -1,1 -1,1 -4,0 -1,1 0,2 -1,1 -1,1 -1,0 0,2 -1,1 1,1 0,1 3,0 1,-1 1,0 1,-1 2,0 1,-1 1,0 1,-1 2,0 1,1 0,3 1,1Z"/>
<path onmouseover="hoverPath(evt)" onmouseout="recoverPath(evt)" fill="rgb(244,243,235)" d="M  9,0l -2,0 0,1 1,0 1,1 1,0 1,1 1,1 0,4 1,1 1,1 0,1 1,1 1,1 1,1 0,1 1,1 1,1 1,1 0,1 1,1 1,1 1,1 1,1 0,1 2,2 0,1 1,1 1,1 1,0 1,1 0,2 1,1 1,0 1,1 0,2 1,1 1,0 1,1 1,0 1,1 1,1 0,2 1,0 1,1 1,1 0,2 1,0 1,1 1,1 0,3 3,0 1,-1 1,0 1,-1 1,0 1,-1 2,0 1,-1 1,0 1,-1 1,0 1,-1 1,0 1,-1 1,0 1,-1 2,0 1,-1 1,0 1,-1 1,0 1,-1 2,0 1,-1 1,-1 2,0 1,-1 2,0 1,1 0,1 1,1 0,1 1,0 1,-1 1,0 1,-1 1,0 1,-1 2,0 1,-1 1,0 1,-1 1,-1 3,0 1,-1 1,0 1,-1 1,0 1,-1 1,-1 2,0 -1,-1 -2,0 -1,-1 0,-2 1,-1 2,0 1,1 1,0 1,-1 0,0 1,-1 3,0 1,-1 0,-2 1,-1 1,0 1,-1 2,0 1,1 0,2 -1,1 1,1 1,0 1,-1 2,0 1,-1 3,0 1,-1 1,0 0,-1 1,-1 3,0 0,-1 -5,0 -1,1 -2,0 -1,-1 0,-2 1,-1 0,-2 1,-1 0,-3 1,-1 3,0 1,1 1,1 0,1 1,1 3,0 1,1 1,0 1,-1 1,0 1,-1 1,0 1,-1 2,0 1,-1 1,0 1,-1 1,0 1,-1 2,0 1,-1 1,0 1,-1 1,0 1,-1 2,0 1,-1 1,0 1,-1 1,0 1,-1 1,0 0,-2 -155,0 85,34 -1,1 -1,0 -1,1 -2,0 -1,-1 0,-2 1,-1 1,0 1,-1 2,0 1,1 0,2 -85,-34Z"/>
<path onmouseover="hoverPath(evt)" onmouseout="recoverPath(evt)" fill="rgb(243,243,236)" d="M  60,175l 0,0 1,1 1,1 1,1 1,1 1,1 0,1 1,1 1,1 1,0 1,1 1,1 1,0 1,1 1,0 1,1 6,0 1,-1 1,0 1,-1 2,0 1,-1 1,0 1,-1 2,0 1,-1 2,0 1,-1 1,0 1,-1 1,0 1,-1 2,0 1,-1 1,0 1,-1 1,0 1,-1 1,0 0,-1 1,-1 0,-1 1,-1 1,-1 1,0 1,-1 1,0 1,-1 1,0 1,-1 1,0 1,-1 2,0 1,-1 1,0 1,-1 1,0 1,-1 1,0 1,-1 2,0 1,-1 1,0 1,-1 1,0 1,-1 1,0 1,-1 1,-1 1,-1 1,0 1,-1 1,0 1,-1 4,0 1,1 2,0 1,-1 2,0 1,-1 1,0 1,-1 1,0 1,-1 1,0 1,-1 1,0 1,-1 1,0 1,-1 2,0 1,-1 1,0 1,-1 2,0 1,-1 1,0 1,-1 1,0 1,-1 2,0 1,-1 1,0 1,-1 1,0 1,-1 2,0 1,-1 1,0 1,-1 1,0 1,-1 2,0 1,-1 1,0 1,-1 2,0 1,-1 1,0 1,-1 1,0 1,-1 1,0 1,-1 1,0 1,-1 2,0 1,-1 1,0 1,-1 1,0 1,-1 1,0 1,-1 1,0 1,-1 1,0 1,-1 1,0 1,-1 1,0 1,-1 1,0 1,-1 1,0 1,-1 1,0 1,-1 1,0 1,-1 2,0 1,-1 1,0 1,-1 1,0 1,-1 1,0 1,-1 1,0 1,-1 1,0 1,-1 2,0 1,-1 1,0 1,-1 1,0 1,-1 2,0 1,-1 3,0 0,-5 -1,0 -1,1 -2,0 -1,1 -1,0 -1,1 -2,0 -1,-1 -2,0 -1,-1 0,4 -1,1 -2,0 -1,-1 -6,0 -1,-1 0,-2 1,-1 0,-3 -2,0 -1,-1 -1,-1 0,-1 -1,-1 -3,0 -1,-1 0,-3 1,-1 -2,0 -1,-1 -1,-1 0,-1 -1,-1 -1,-1 0,-1 -1,-1 -1,-1 0,-1 -1,-1 0,-1 -1,-1 -1,-1 0,-1 -1,-1 -1,-1 0,-1 -1,-1 -1,-1 0,-1 -1,-1 0,-1 -1,-1 -1,-1 0,-1 -1,-1 -1,-1 0,-3 1,-1 1,0 0,-1 1,-1 1,-1 0,-1 -1,-1 0,-1 -1,-1 -1,-1 0,-1 -1,-1 -1,-1 0,-1 -1,-1 -1,-1 0,-1 -1,-1 -1,-1 0,-1 -1,-1 -1,-1 0,-1 -1,-1 -1,-1 0,-1 -1,0 -1,-1 0,-2 -1,-1 0,-3 1,-1 0,-2 1,-1 0,-2 -1,1 0,0 -1,1 -1,0 -1,1 -1,1 -1,1 -1,0 -1,1 -2,0 -1,1 -1,0 -1,1 -1,0 -1,1 -1,0 -1,1 -2,0 -1,1 -1,0 -1,1 -1,0 -1,1 -1,0 -1,1 -1,0 -1,1 -1,0 -1,1 -2,0 -1,1 -1,0 -1,1 -1,0 -1,1 -1,0 -1,1 -1,0 -1,1 -2,0 -1,1 -1,0 -1,1 -1,0 -1,1 -1,0 -1,1 -1,0 -1,1 -1,0 -1,1 -2,0 -1,1 -1,0 -1,1 -1,0 -1,1 -1,0 -1,1 -1,0 -1,1 -2,0 -1,1 -1,0 -1,1 -1,0 -1,1 -1,0 -1,1 -1,0 -1,1 -2,0 -1,1 -1,0 -1,1 -1,0 -1,1 -1,0 -1,1 -1,0 -1,1 -1,0 -1,1 -2,0 -1,1 -1,0 -1,1 -1,0 -1,1 -1,0 -1,1 -1,0 -1,1 -2,0 -1,1 -1,0 -1,1 -1,0 -1,1 -1,0 -1,1 -1,0 -1,1 -1,0 -1,1 -2,0 -1,1 -1,0 -1,1 -1,0 -1,1 -1,0 -1,1 -1,0 -1,1 -1,0 -1,1 -1,0 -1,1 -1,0 -1,1 -2,0 -1,1 -1,0 -1,1 -2,0 -1,1 -1,0 -1,1 -1,0 -1,1 -2,0 -1,1 -1,0 -1,1 -1,0 -1,1 -2,0 -1,1 -1,0 -1,1 -1,0 -1,1 -2,0 -1,1 -1,0 -1,1 -1,0 -1,1 -2,0 -1,1 -3,0 -1,-1 0,-3 1,-1 1,-1 2,0 1,-1 1,0 1,-1 2,0 1,-1 1,0 1,-1 1,0 1,-1 2,0 1,-1 1,0 1,-1 1,0 1,-1 2,0 1,-1 1,0 1,-1 1,0 1,-1 2,0 1,-1 1,0 1,-1 1,0 1,-1 1,0 0,-2 -1,-1 -1,0 -1,-1 0,-2 -1,-1 -1,-1 -1,-1 0,-1 -1,-1 -1,-1 -1,-1 0,-1 -1,-1 -1,-1 -2,0 -1,-1 -1,-1 -1,-1 -3,0 -1,1 -6,0 -1,1 -1,0 -1,1 -2,0 -1,1 -1,0 -1,1 -1,0 -1,1 -1,0 -1,1 -2,0 -1,1 -1,0 -1,1 -1,0 -1,1 -1,0 -1,1 -2,0 -1,1 -1,0 -1,1 -1,0 -1,1 -1,0 -1,1 -2,0 -1,1 -1,0 0,24 2,0 1,1 1,1 1,1 1,1 1,1 0,1 1,1 1,1 0,1 1,1 3,3 1,1 1,1 1,1 1,0 1,1 0,2 1,1 1,1 0,2 -1,1 -1,1 2,0 1,1 0,1 1,1 1,1 1,1 1,1 0,1 1,1 1,1 1,1 1,1 1,1 0,1 1,1 1,1 1,1 1,1 1,1 1,1 0,1 1,1 1,1 1,1 1,1 1,1 1,1 1,1 0,1 1,1 1,1 1,1 1,1 1,1 1,1 0,1 1,1 2,2 1,1 1,1 1,1 1,1 1,1 1,1 0,1 1,1 1,1Z"/>
<path onmouseover="hoverPath(evt)" onmouseout="recoverPath(evt)" fill="rgb(245,244,237)" d="M  0,198l 0,21 2,0 1,-1 1,0 1,-1 1,0 1,-1 1,0 1,-1 1,0 1,-1 2,0 0,-2 -1,-1 0,0 -1,-1 -1,-1 0,-1 -1,-1 -1,-1 -1,-1 0,-1 -1,-1 -3,-3 0,-1 -1,-1 -1,-1 -1,1Z"/>
<path onmouseover="hoverPath(evt)" onmouseout="recoverPath(evt)" fill="rgb(180,207,187)" d="M  0,222l 0,33 255,0 0,-109 -1,0 -1,1 -1,0 -1,1 -1,0 -1,1 -2,0 -1,1 -1,0 -1,1 -1,0 -1,1 -1,0 -1,1 -2,0 -1,1 -1,0 -1,1 -1,0 -1,1 -1,0 -1,1 -2,0 -1,1 -1,0 -1,1 -1,0 -1,1 -2,0 -1,1 -1,0 -1,1 -1,0 -1,1 -1,0 -1,1 -2,0 -1,1 -1,0 -1,1 -1,0 -1,1 -1,0 -1,1 -2,0 -1,1 -1,0 -1,1 -1,0 -1,1 -1,0 -1,1 -2,0 -1,1 -1,0 -1,1 -1,0 -1,1 -4,0 -1,-1 0,-2 1,-1 1,-1 1,0 1,-1 1,0 1,-1 3,0 1,-1 1,0 1,-1 1,-1 1,0 1,-1 1,0 1,-1 1,0 1,-1 3,0 1,-1 1,-1 1,0 1,-1 1,0 1,-1 1,0 1,-1 1,0 1,-1 2,0 1,-1 1,0 1,-1 1,0 1,-1 1,0 1,-1 2,0 1,-1 1,0 1,-1 1,0 1,-1 2,0 1,-1 1,0 1,-1 1,0 1,-1 1,0 1,-1 2,0 1,-1 1,0 1,-1 1,0 1,-1 1,0 1,-1 4,0 0,-30 -2,0 -1,1 -2,0 -1,1 -1,0 -1,1 -1,0 -1,1 -2,0 -1,1 -1,0 -1,1 -1,0 -1,1 -1,0 -1,1 -1,0 -1,1 -1,0 -1,1 -2,0 -1,1 -1,0 -1,1 -1,0 -1,1 -1,0 -1,1 -1,0 -1,1 -1,0 -1,1 -1,0 -1,1 -1,0 -1,1 -1,0 -1,1 -1,0 -1,1 -1,0 -1,1 -1,0 -1,1 -2,0 -1,1 -1,0 -1,1 -1,0 -1,1 -1,0 -1,1 -1,0 -1,1 -2,0 -1,1 -1,0 -1,1 -2,0 -1,1 -1,0 -1,1 -1,0 -1,1 -2,0 -1,1 -1,0 -1,1 -1,0 -1,1 -2,0 -1,1 -1,0 -1,1 -1,0 -1,1 -2,0 -1,1 -1,0 -1,1 -2,0 -1,1 -1,0 -1,1 -1,0 -1,1 -1,0 -1,1 -1,0 -1,1 -1,0 -1,1 -2,0 -1,1 -4,0 -1,-1 -2,0 -1,1 -1,0 -1,1 -1,0 -1,1 -1,1 -1,1 -1,0 -1,1 -1,0 -1,1 -1,0 -1,1 -2,0 -1,1 -1,0 -1,1 -1,0 -1,1 -1,0 -1,1 -2,0 -1,1 -1,0 -1,1 -1,0 -1,1 -1,0 -1,1 -1,0 -1,1 0,1 -1,1 0,1 -1,1 -1,0 -1,1 -1,0 -1,1 -1,0 -1,1 -2,0 -1,1 -1,0 -1,1 -1,0 -1,1 -2,0 -1,1 -2,0 -1,1 -1,0 -1,1 -2,0 -1,1 -1,0 -1,1 -8,0 -1,-1 -1,0 -1,-1 -1,0 -1,-1 -1,-1 -1,0 -1,-1 -1,-1 -1,-1 0,-1 -1,-1 -1,-1 -1,-1 -1,-1 -1,-1 -1,-1 -1,-1 0,-1 -1,-1 -1,-1 -1,-1 -1,-1 -1,-1 -1,-1 -1,-1 -1,-1 -1,-1 0,-1 -1,-1 -1,-1 -1,-1 -1,-1 -1,-1 -1,-1 0,-1 -1,-1 -1,-1 -1,-1 -3,-3 -1,-1 0,-1 -1,-1 -1,-1 -1,-1 -1,-1 -1,-1 -1,-1 0,-1 -3,-3 -1,-1 -1,-1 0,-1 -1,-1 -1,-1 -1,-1 -1,-1 0,-1 -4,0 -1,1 -1,1 0,1 1,1 0,0 1,1 1,1 0,1 1,1 1,1 1,1 0,1 1,1 1,1 1,1 1,1 1,1 0,1 1,1 1,1 1,1 1,1 1,1 1,1 0,1 1,1 1,1 1,1 1,1 1,1 1,1 1,1 1,1 0,1 1,1 1,1 1,1 0,4 1,1 1,1 1,1 1,1 1,1 1,1 0,1 3,3 1,1 1,1 1,1 0,1 1,1 3,3 1,1 0,1 1,1 0,4 -1,1 -1,0 -1,1 -1,0 -1,1 -1,0 -1,1 -1,0 -1,1 -1,0 -1,1 -1,0 -1,1 -1,0 -1,1 -1,0 -1,1 -1,0 -1,1 -1,0 -1,1 -2,0 -1,1 -1,0 -1,1 -1,0 -1,1 -2,0 -1,1 -2,0 -1,-1 -1,-1 -1,-1 0,-1 -1,-1 0,-1 -1,-1 -1,-1 -1,-1 -1,-1 -1,-1 0,-1 -1,-1 -1,-1 -1,-1 -1,-1 -1,-1 0,-1 -1,-1 -1,-1 -1,-1 -1,-1 0,-1 -1,-1 -1,-1 -1,-1 -1,-1 0,-1 -1,-1 -3,-3 0,17 2,0 1,1 1,1 1,1 0,1 1,1 1,1 1,1 1,1 0,1 1,1 1,1 1,1 0,1 1,1 1,1 1,1 0,4 -1,1 -2,0 -1,1 -1,0 -1,1 -1,0 -1,1 -1,0 -1,1 -1,0 -1,1 -2,0 -1,1Z"/>
<path onmouseover="hoverPath(evt)" onmouseout="recoverPath(evt)" fill="rgb(245,244,237)" d="M  221,158l 2,0 1,-1 1,0 1,-1 1,0 1,-1 2,0 1,-1 1,0 1,-1 1,0 1,-1 1,0 1,-1 2,0 1,-1 1,0 1,-1 1,0 1,-1 1,0 1,-1 2,0 1,-1 1,0 1,-1 1,0 1,-1 2,0 0,-1 -3,0 -1,1 -1,0 -1,1 -1,0 -1,1 -1,0 -1,1 -2,0 -1,1 -1,0 -1,1 -1,0 -1,1 -1,0 -1,1 -2,0 -1,1 -1,0 -1,1 -1,0 -1,1 -2,0 -1,1 -1,0 -1,1 -1,0 -2,2 -3,0 -1,1 -1,0 -1,1 -1,0 -1,1 -1,0 -1,1 -1,0 -1,1 -1,1 -3,0 -1,1 -1,0 -1,1 -1,0 -1,1 -1,0 -1,1 -1,1 -1,0 -1,1 -3,0 -1,1 -1,0 -1,1 -1,0 -1,1 2,0 1,-1 1,0 1,-1 1,0 3,-1 2,-1 1,-1 1,0 1,-1 1,0 1,-1 2,0 1,-1 -1,0 4,-1 1,-1 1,0 1,-1 2,0 1,-1 1,0 1,-1 1,0 1,-1 1,-1Z"/>
<path onmouseover="hoverPath(evt)" onmouseout="recoverPath(evt)" fill="rgb(207,220,239)" d="M  0,111l 0,13 2,0 1,1 0,1 1,1 4,4 1,0 1,-1 2,0 1,-1 1,-1 2,0 0,-1 1,-1 1,-1 -1,-1 0,0 -1,-1 0,-2 -1,0 -1,-1 -1,-1 -1,-1 -1,-1 -1,-1 -1,-1 -1,-1 -1,-1 0,-1 -2,-2 0,-1 -2,-2 -1,-1 -1,-1 -1,0Z"/>
<path onmouseover="hoverPath(evt)" onmouseout="recoverPath(evt)" fill="rgb(171,198,238)" d="M  10,71l -1,0 -1,1 -1,0 -1,1 -1,0 -1,1 -1,0 -1,1 -2,0 0,2 1,-1 2,0 1,-1 1,0 1,-1 1,0 1,-1 1,0 1,-1 0,-1 2,1 1,-1 1,0 1,-1 1,0 1,-1 1,0 1,-1 2,0 1,-1 1,0 1,-1 1,0 1,-1 1,0 1,-1 2,0 1,-1 1,0 1,-1 6,0 1,-1 3,0 0,-2 -4,0 -1,1 -4,0 -1,1 -1,0 -1,1 -2,0 -1,1 -1,0 -1,1 -2,0 -1,1 -1,0 -1,1 -2,0 -1,1 -1,0 -1,1 -1,0 -1,1 -1,0 -1,3 -2,-1Z"/>
<path onmouseover="hoverPath(evt)" onmouseout="recoverPath(evt)" fill="rgb(244,243,236)" d="M  10,186l 0,1 1,1 1,1 1,1 1,1 0,1 1,1 1,1 1,1 1,1 1,1 0,1 1,1 1,1 1,1 1,1 1,1 0,1 1,1 0,1 1,1 1,1 1,-1 2,0 1,-1 1,0 1,-1 1,0 1,-1 2,0 1,-1 1,0 1,-1 1,0 1,-1 1,0 1,-1 1,0 1,-1 1,0 1,-1 1,0 1,-1 1,0 1,-1 1,0 1,-1 1,0 1,-1 1,0 0,-2 -1,-1 0,-1 -1,-1 -1,-1 -1,-1 -1,-1 -1,-1 0,-1 -1,-1 -4,-4 -1,-1 0,-1 -1,-1 -1,-1 -1,-1 -1,-1 -1,-1 -1,-1 0,-4 -1,-1 -1,-1 -1,-1 0,-1 -1,-1 -1,-1 -1,-1 -1,-1 -1,-1 -1,-1 -1,-1 -1,-1 0,-1 -1,-1 -1,-1 -1,-1 -3,-3 0,-1 -1,-1 -1,-1 -1,-1 -1,-1 -1,-1 0,-1 -1,-1 -1,-1 -1,-1 0,-1 -1,-1 -1,-1 -1,-1 0,-2 -1,1 -3,0 -1,-1 -1,-1 -1,-1 -1,-1 -1,-1 -1,-1 0,-1 -1,0 0,50 1,0 1,1 1,1 1,1 1,1 1,1 0,1 1,1 1,1 1,1 1,1Z"/>
<path onmouseover="hoverPath(evt)" onmouseout="recoverPath(evt)" fill="rgb(251,251,250)" d="M  26,99l 0,1 1,0 1,-1 2,0 1,-1 1,0 1,-1 1,0 1,-1 2,0 1,-1 1,0 1,-1 1,0 1,-1 2,0 1,-1 1,0 1,-1 1,0 1,-1 2,0 1,-1 1,0 1,-1 1,0 1,-1 2,0 1,-1 1,0 1,-1 2,0 1,-1 1,0 1,-1 1,0 1,-1 1,0 1,-1 1,0 1,-1 1,0 1,-1 1,0 1,-1 1,0 1,-1 2,0 1,-1 1,0 1,-1 1,0 1,-1 1,0 1,-1 1,0 1,-1 1,0 1,-1 2,0 1,-1 1,0 1,-1 1,0 1,-1 1,0 1,-1 1,0 1,-1 2,0 1,-1 1,0 1,-1 1,0 1,-1 1,0 1,-1 1,0 1,-1 1,0 1,-1 2,0 1,-1 1,0 1,-1 1,0 1,-1 1,0 1,-1 1,0 1,-1 2,0 1,-1 1,0 1,-1 1,0 1,-1 1,0 1,-1 1,0 1,-1 2,0 1,-1 1,0 1,-1 1,0 1,-1 1,0 1,-1 1,0 1,-1 1,0 1,-1 2,0 1,-1 1,0 1,-1 1,0 1,-1 1,0 1,-1 1,0 1,-1 2,0 1,-1 1,0 1,-1 1,0 1,-1 1,0 1,-1 1,0 1,-1 1,0 1,-1 2,0 1,-1 1,0 1,-1 1,0 1,-1 1,0 1,-1 2,0 1,-1 1,0 1,-1 1,-1 1,-1 1,0 1,-1 1,-1 1,0 1,-1 2,-2 1,0 1,-1 1,-1 1,0 1,-1 1,-1 1,-1 1,0 1,-1 1,-1 1,0 1,-1 3,0 1,1 1,1 0,-1 1,-1 0,-2 1,-1 1,0 1,-1 0,-2 1,-1 1,-1 4,0 1,-1 0,-3 -4,0 0,2 -1,1 -1,1 -1,0 -2,2 -1,1 -1,0 -1,1 -1,1 -1,0 -1,1 -1,1 -2,0 -1,1 -1,1 -1,1 -1,1 -1,1 -1,0 -1,1 -1,1 -1,0 -1,1 -1,1 -2,0 0,1 -1,1 -1,1 -1,0 -1,1 -1,1 -4,0 -1,-1 0,-1 -1,-1 0,-2 -1,0 -1,-1 0,-1 -1,-1 -1,-1 0,-1 -1,-1 0,-1 -1,-1 -1,-1 -1,-1 0,-1 -1,0 -1,-1 -1,-1 0,-2 -1,-1 -1,-1 0,-3 -4,0 0,3 -1,1 -1,0 -1,1 -1,0 -1,1 -1,0 -1,1 -2,0 -1,1 -1,0 -1,1 -1,0 -1,1 -2,0 -1,1 -1,0 -1,1 -1,0 -1,1 -2,0 -1,1 -1,0 -1,1 -1,0 -1,1 -3,0 -1,-1 -3,0 -1,-1 -1,-1 0,-1 -1,-1 -1,0 0,3 -1,1 0,1 1,1 6,0 1,1 1,0 1,-1 1,0 -111,82 113,-83 0,0 2,-1 1,0 1,-1 1,0 2,-1 2,-1 2,-1 2,0 1,-1 1,0 1,-1 2,-1 2,0 1,-1 1,0 1,-1 2,-1 1,0 1,-1 2,0 1,1 0,1 1,0 1,1 1,1 0,1 1,1 1,1 3,3 1,1 0,1 1,1 0,1 1,1 1,1 0,1 1,1 1,1 0,5 -1,1 -2,0 -1,1 -1,0 -1,1 -1,0 -1,1 -1,0 -1,1 -1,0 -1,1 -1,0 -1,1 -2,0 -1,1 -1,0 -1,1 -1,0 -1,1 -1,0 -1,1 -1,0 -1,1 -2,0 -1,1 -1,0 -1,1 -2,0 -1,1 -1,0 -1,1 -1,0 -1,1 -1,0 -1,1 -2,0 -1,1 -1,1 -1,0 -1,1 -1,0 -1,1 -1,0 -1,1 -2,0 -1,1 -1,0 -1,1 -1,0 -1,1 -1,0 -1,1 -1,0 -1,1 -2,0 -1,1 -1,0 -1,1 -1,0 -1,1 -1,0 -1,1 -1,0 -1,1 -1,0 -1,1 -2,0 -1,1 -1,0 -1,1 -1,0 -1,1 -1,0 -1,1 -1,0 -1,1 -2,0 -1,1 -1,0 -1,1 -1,0 -1,1 -1,0 -1,1 -1,0 -1,1 -1,0 -1,1 -2,0 -1,1 -1,0 -1,1 -1,0 -1,1 -1,0 -1,1 -1,0 -1,1 -1,0 -1,1 -2,0 -1,1 -1,0 -1,1 -3,0 -1,-1 -1,-1 -1,-1 0,-2 -1,0 -1,-1 -1,-1 -1,-1 0,-1 -1,-1 -1,-1 -1,-1 0,-1 -1,-1 -1,-1 -1,-1 0,-1 -1,-1 -1,-1 -1,-1 0,-2 -1,-1 -1,-1 0,-3 1,-1 -4,0 -1,-1 0,-3 -1,-1 -1,0 -1,-1 0,-2 -1,-1 -1,0 -1,-1 0,-2 -1,-1 -1,0 -1,-1 -1,0 -1,-1 -1,-1 0,-2 -1,0 -1,-1 -1,-1 0,-2 -1,0 -1,-1 -1,-1 -1,-1 0,-1 -1,-1 -1,-1 0,-1 -1,-1 -1,-1 -1,-1 -1,-1 0,-1 -1,-1 -1,-1 -1,-1 0,-1 -1,-1 -1,-1 -1,-1 0,-1 -1,-1 -1,-1 0,-4 -1,-1 -1,0 -1,-1 -1,0 -1,-1 0,-2 -2,0 0,1 1,1 0,1 2,2 1,1 1,1 0,1 2,2 0,4 1,1 1,0 1,1 0,2 1,1 1,0 1,1 0,2 1,1 1,0 1,1 0,2 1,1 1,0 1,1 0,2 1,1 1,0 1,1 1,0 1,1 1,1 0,2 1,0 1,1 1,1 0,2 1,0 1,1 1,1 0,2 1,0 1,1 1,1 1,1 0,1 1,1 1,1 0,1 1,1 1,1 1,1 0,1 1,1 0,1 1,1 0,3 1,1 1,1 1,1 2,0 1,1 1,1 1,1 0,1 1,1 1,1 1,1 0,1 1,1 1,1 1,1 0,2 1,0 1,1 1,1 0,4 -1,1 -1,0 -1,1 -1,0 -1,1 -1,0 -1,1 -2,0 -1,1 -1,0 -1,1 -1,0 -1,1 -2,0 -1,1 -1,0 -1,1 -1,0 -1,1 -2,0 -1,1 -1,0 -1,1 -1,0 -1,1 -2,0 -1,1 -1,0 -1,1 1,0 2,-1 5,-2 2,-1 5,-2 2,-1 5,-2 2,-1 5,-2 2,-1 79,-69 -113,83Z"/>
<path onmouseover="hoverPath(evt)" onmouseout="recoverPath(evt)" fill="rgb(237,238,234)" d="M  51,59l 0,1 1,1 1,1 1,1 0,1 1,1 1,1 1,1 0,1 1,1 1,1 1,1 0,1 1,1 1,1 1,0 1,1 0,2 1,1 1,1 1,0 1,-1 1,0 1,-1 2,0 1,-1 1,0 1,-1 1,0 1,-1 1,0 1,-1 1,0 1,-1 1,0 1,-1 2,0 1,-1 1,0 1,-1 1,0 1,-1 1,0 1,-1 1,0 1,-1 1,0 1,-1 2,0 1,-1 1,0 1,-1 1,0 1,-1 1,0 1,-1 1,0 1,-1 2,0 1,-1 1,0 1,-1 1,0 1,-1 1,0 1,-1 1,0 1,-1 1,0 1,-1 2,0 1,-1 1,0 1,-1 1,0 1,-1 1,0 0,-7 -1,-1 0,0 -1,-1 0,-1 -1,0 -1,-1 0,-1 -1,-1 0,-1 -1,-1 -1,-1 -1,-1 -2,0 -1,-1 0,-4 1,-1 3,0 1,-1 1,0 1,-1 1,-1 -1,0 -1,1 -2,0 -1,1 -3,0 -1,-1 -1,-1 -1,0 -1,1 -1,1 -3,0 -1,1 -1,1 -1,0 1,1 0,2 -1,1 -2,0 -1,1 -1,1 -1,0 -1,1 -1,0 -1,1 -3,0 -1,1 -1,1 -1,0 -1,1 -2,0 -1,1 -1,0 -1,1 -1,0 -1,1 -3,0 -1,-1 0,-1 -2,0 -1,-1 -1,0 -1,1 -1,1 -2,0 -1,1 -1,0 -1,1 -1,0 -1,1 -2,0 -1,1 -1,0 -1,1 -1,0 -1,1 -1,0 -1,1 -1,0 -1,1 -2,0 -1,1 -1,0 -1,1 -1,0 0,2 -1,1 0,1 1,1 0,0 1,1Z"/>
<path onmouseover="hoverPath(evt)" onmouseout="recoverPath(evt)" fill="rgb(240,240,234)" d="M  119,31l 0,1 2,0 1,1 1,1 1,1 1,1 0,1 1,1 0,1 1,0 1,1 0,1 1,1 1,1 0,7 1,-1 2,0 1,-1 1,0 1,-1 1,0 1,-1 1,0 1,-1 1,-1 2,0 1,-1 1,0 1,-1 1,0 1,-1 1,0 1,-1 2,0 1,-1 1,0 1,-1 2,0 1,-1 1,0 1,-1 1,0 1,-1 1,0 1,-1 1,0 1,-1 2,0 1,-1 1,0 1,-1 1,0 1,-1 1,0 1,-1 1,0 1,-1 1,0 1,-1 2,0 0,-3 -1,-1 0,0 -1,-1 0,-1 -2,-2 0,-1 -1,-1 0,-1 -1,-1 -1,-1 -1,-1 -1,-1 -1,-1 -1,-1 0,-1 -1,-1 0,1 -1,1 -1,0 -1,1 -1,0 -1,1 -1,0 -1,1 -3,0 -1,1 -1,1 -1,0 -1,1 -1,0 0,1 1,1 0,2 1,1 0,4 -1,1 -3,0 -1,-1 -1,-1 0,-2 -1,-1 0,-2 -1,-1 -2,0 -1,1 -1,0 0,3 1,1 0,1 1,1 0,3 -1,1 -3,0 -1,-1 -2,-2 0,-1 -1,-1 0,-1 -4,0 -1,-1 -3,0 0,1 -1,1 -1,0 0,2 -1,1 -1,0 -1,1 -1,1 -1,0 -1,1 -2,0 -1,1Z"/>
<path onmouseover="hoverPath(evt)" onmouseout="recoverPath(evt)" fill="rgb(174,199,237)" d="M  148,14l 0,0 -1,1 -1,0 -1,1 -1,0 -1,1 -2,0 -1,1 -1,0 -1,1 -1,0 -1,1 -2,0 1,1 4,0 1,1 0,1 1,1 0,1 1,1 1,1 1,0 0,-1 -1,-1 0,-1 -1,-1 0,-5 6,-4 -4,3 2,-1 3,0 1,1 1,1 0,2 1,1 0,2 1,1 1,0 0,-2 -1,-1 0,-2 -1,-1 0,-3 1,-1 1,0 1,-1 1,0 1,-1 1,-1 3,0 1,-1 1,0 1,-1 1,0 1,-1 1,0 0,-2 -1,1 -2,0 -1,1 -1,1 -1,0 -1,1 -3,0 -1,1 -1,1 -1,0 -1,1 -3,0 -1,1 -5,3 4,-3Z"/>
<path onmouseover="hoverPath(evt)" onmouseout="recoverPath(evt)" fill="rgb(235,237,231)" d="M  177,0l -5,0 0,2 1,1 0,0 1,1 0,2 1,1 1,0 1,1 0,1 3,3 0,1 1,1 0,1 1,1 1,1 0,1 1,0 1,1 0,2 1,1 0,1 2,0 1,-1 0,0 1,-1 1,0 1,-1 0,-1 1,-1 2,0 1,-1 1,-1 1,0 1,-1 1,-1 1,0 1,-1 1,-1 1,-1 1,-1 1,-1 2,0 1,-1 1,-1 1,0 1,-1 1,-1 1,0 1,-1 1,-1 1,-1 1,0 1,-1 0,-1Z"/>
<path onmouseover="hoverPath(evt)" onmouseout="recoverPath(evt)" fill="rgb(243,241,234)" d="M  210,59l 0,1 -1,1 -1,1 0,1 -1,1 -1,0 0,1 1,1 0,0 1,1 0,1 1,1 1,1 0,1 1,1 0,1 1,1 1,1 0,1 1,1 1,1 0,1 1,1 1,1 0,1 1,1 0,1 1,1 1,1 0,1 1,1 1,1 0,1 1,1 2,0 1,1 0,2 -1,1 0,1 3,0 1,1 1,1 0,1 1,1 2,0 1,1 0,5 -1,1 6,0 1,1 0,-4 1,-1 2,0 1,1 2,0 1,1 1,-1 1,0 1,-1 2,0 1,-1 2,0 0,-62 -2,0 -1,-1 -1,-1 0,-1 -3,0 -1,-1 -4,0 -1,-1 -1,-1 0,-2 -1,0 -1,-1 -2,0 -1,-1 -1,-1 -1,-1 0,-2 1,-1 0,-1 -1,0 -1,-1 -1,-1 0,-1 -1,-1 -1,-1 0,-1 -1,-1 0,-3 -1,1 -1,0 -1,1 -2,0 -1,1 -1,0 -1,1 -7,0 -1,-1 -1,-1 0,-1 -1,-1 -1,0 -1,1 -1,0 -1,1 -1,1 -1,0 -1,1 -1,1 -1,1 -1,0 -1,1 -1,1 -1,0 -1,1 -1,1 0,4 -1,1 0,2 -1,1 0,1 1,1 0,2 1,0 1,1 0,1 1,1 1,1 0,1 1,1 1,1 0,1 1,1 1,1 0,1 1,1 1,1 0,1 1,1 1,1 0,1 1,1 1,1 0,1 1,1Z"/>
</svg>