<svg width="256" height="256" xmlns="http://www.w3.org/2000/svg"><script> 
var tempColor;
function hoverPath(evt){
obj = evt.target;
tempColor = obj.getAttribute("fill");
obj.setAttribute("fill","red");
//alert(tempColor);
//obj.setAttribute("stroke","red");}
function recoverPath(evt){
obj = evt.target;
obj.setAttribute("fill", tempColor);
//obj.setAttribute("stroke", tempColor);
}</script><path onmouseover="hoverPath(evt)" onmouseout="recoverPath(evt)" fill="rgb(170,198,237)" d="M  155,68l 0,6 1,1 0,3 10,0 1,-1 7,0 1,-1 8,0 1,-1 7,0 1,-1 9,0 1,-1 8,0 1,-1 8,0 1,-1 8,0 1,-1 9,0 1,-1 8,0 1,-1 4,0 1,1 1,1 0,1 1,0 0,-15 -2,0 -1,1 -9,0 -1,1 -8,0 -1,1 -7,0 -1,1 -8,0 -1,1 -8,0 -1,1 -8,0 -1,1 -8,0 -1,1 -7,0 -1,1 -8,0 -1,1 -7,0 -1,1 -8,0 -1,1Z"/>
<path onmouseover="hoverPath(evt)" onmouseout="recoverPath(evt)" fill="rgb(243,242,235)" d="M  161,240l 0,1 4,0 1,-1 3,0 1,-1 6,0 1,1 6,0 1,1 2,0 1,1 0,1 2,0 1,1 0,-1 1,-1 3,0 1,1 7,0 1,1 3,0 1,1 0,1 1,1 1,0 0,-1 1,-1 3,0 1,1 0,1 1,-1 4,0 1,1 5,0 1,1 1,1 0,1 1,0 0,-1 1,-1 3,0 1,1 2,0 1,1 0,5 19,0 0,-73 -6,0 -1,-1 -6,0 -1,-1 -7,0 -1,-1 -3,0 -1,-1 -10,0 -1,-1 -5,0 -1,-1 -5,0 -1,-1 -2,0 -1,-1 -1,-1 -1,-1 -1,-1 -1,-1 0,-1 -1,-1 -2,0 -1,-1 0,-2 1,-1 -1,-1 0,-1 -1,-1 -1,-1 0,-1 -1,-1 0,-1 -1,-1 -1,-1 0,-1 -1,-1 0,-1 -1,-1 -1,-1 0,-1 -1,-1 0,-1 -1,-1 -1,1 0,0 -1,1 -2,0 -1,1 -1,0 -1,1 -3,0 -1,1 -1,1 -3,0 -1,1 -5,0 -1,1 -2,0 -1,1 -1,0 -1,1 -1,0 -1,1 -2,0 0,1 -1,1 -2,0 0,1 -1,1 -5,0 -1,1 -3,0 0,2 -1,1 -3,0 -1,1 -1,0 -1,1 -1,0 -1,1 -1,0 -1,1 -3,0 -1,1 -1,1 -2,0 -1,1 -6,0 -1,1 -7,0 -1,1 -4,0 -1,1 -1,1 -1,0 -2,2 -2,0 0,1 -1,1 -2,2 -1,1 -8,8 -1,0 -1,1 -1,1 -1,1 -1,1 -1,1 -1,1 -1,1 -1,0 -1,1 -1,0 -1,1 -1,0 -1,1 -1,0 -1,1 -1,1 -1,1 -1,1 -1,1 -1,0 0,1 -1,1 -1,1 -1,1 -1,1 -1,1 -1,1 -1,0 -1,1 -11,0 -1,-1 -5,0 -1,-1 -6,0 -1,-1 -3,0 -1,-1 -1,0 -1,-1 -4,0 -1,-1 -2,0 -1,-1 -2,0 0,2 -1,1 0,3 1,0 1,1 2,0 1,-1 6,0 1,1 3,0 1,1 0,3 1,-1 5,0 1,1 1,0 1,1 1,1 1,0 1,1 0,-3 1,-1 3,0 1,1 2,0 1,1 0,1 1,0 1,1 5,0 1,1 1,1 0,1 3,0 1,1 0,-3 1,-1 4,0 1,1 3,0 1,1 0,2 4,0 1,-1 4,0 1,1 0,3 1,0 1,1 6,0 1,1 1,0 0,-1 1,-1 3,0 1,-1 5,0 1,1 4,0 1,1 0,1 1,1 0,-1 1,-1 2,0 1,1 0,1 2,0 1,1 0,-1 1,-1 4,0 1,1 4,0 1,1 0,2 1,0 0,-1 1,-1 2,0 1,1 0,1 1,0 1,1 2,0 1,1 0,1 2,0 1,1 0,-3 1,-1 5,0 1,1 0,4 4,0 1,-1 8,0 1,1Z"/>
<path onmouseover="hoverPath(evt)" onmouseout="recoverPath(evt)" fill="rgb(176,201,237)" d="M  0,173l 0,39 4,0 1,1 3,0 1,-1 2,0 0,-3 1,-1 0,-2 1,-1 4,0 1,1 2,0 1,1 4,0 1,1 1,0 1,1 3,0 1,1 5,0 -5,-1 -4,-1 -2,-1 -3,-1 -1,0 -1,-1 -1,0 -1,-1 -1,-1 -1,-1 -1,-1 -1,-1 -1,-1 0,-2 1,-1 0,-3 1,-1 0,-3 1,-1 0,-2 1,-1 0,-4 1,-1 0,-3 1,-1 0,-3 1,-1 0,-4 1,-1 0,-3 1,-1 0,-3 1,-1 0,-4 1,-1 0,-1 1,-1 0,-2 1,-1 0,-1 1,-1 0,-2 1,-1 -1,-1 0,-2 1,-1 1,0 1,-1 1,-1 0,-1 -1,-1 -4,0 -1,-1 -2,0 -1,1 -5,0 0,3 -1,1 -1,0 0,3 -1,1 0,2 -1,1 0,2 -1,1 0,3 -1,1 0,4 -1,1 0,3 -1,1 0,3 -1,1 0,3 -1,1 -1,1 -6,0 -1,1Z"/>
<path onmouseover="hoverPath(evt)" onmouseout="recoverPath(evt)" fill="rgb(243,240,232)" d="M  5,0l -1,0 0,2 1,1 1,1 0,1 2,0 1,1 0,2 -1,1 1,1 0,1 1,1 0,1 1,1 0,1 1,1 0,1 1,1 0,1 1,1 0,1 1,1 1,0 1,-1 1,0 1,-1 1,0 1,-1 1,0 1,-1 2,0 1,1 1,-1 0,-4 1,-1 6,0 1,-1 2,-2 1,-1 1,0 0,-1 1,-1 2,-2 0,-1 1,-1 1,-1 0,-2Z"/>
<path onmouseover="hoverPath(evt)" onmouseout="recoverPath(evt)" fill="rgb(241,241,234)" d="M  12,217l -1,1 0,2 -1,1 0,1 1,1 2,0 1,1 4,0 1,1 3,0 1,1 5,0 1,1 3,0 1,1 2,0 1,1 1,0 1,1 2,0 1,1 1,0 1,1 1,0 1,1 1,0 1,1 4,0 1,1 7,0 1,1 3,0 1,1 2,0 1,1 2,0 1,1 2,0 1,1 1,0 1,1 2,0 1,1 1,0 1,1 2,0 1,1 4,0 1,1 5,0 1,1 3,0 1,-1 17,0 1,1 3,0 1,1 2,0 1,1 1,1 1,1 1,1 1,1 0,3 107,0 0,-4 -2,0 -1,-1 -1,0 0,1 -1,1 -3,0 -1,-1 0,-1 -1,-1 -2,0 -1,1 -2,0 -1,-1 0,-1 -2,0 -1,1 -2,0 -1,-1 0,-1 -1,0 0,1 -1,1 -3,0 -1,-1 -1,-1 0,-1 -3,0 -1,-1 -4,0 -1,1 -2,0 -1,-1 0,-1 -1,0 0,1 -1,1 -2,0 -1,-1 -2,0 -1,-1 0,-1 -2,0 -1,-1 -6,0 -1,-1 -4,0 -1,1 -3,0 -1,1 -6,0 -1,-1 0,-2 -6,0 -1,1 -6,0 -1,-1 0,-4 -3,0 0,3 -1,1 -2,0 -1,-1 -2,0 -1,-1 0,-1 -2,0 -1,-1 -1,0 -1,-1 0,-1 -1,2 -3,0 -1,-1 0,-2 -4,0 -1,-1 -2,0 0,1 -1,1 -2,0 -1,-1 -2,0 -1,-1 0,-1 -1,2 -2,0 -1,-1 -1,-1 0,-1 -4,0 -1,-1 -3,0 -1,1 -3,0 0,1 -1,1 -3,0 -1,-1 -6,0 -1,-1 -1,0 -1,-1 0,-3 -2,0 -1,1 -6,0 -1,-1 0,-2 -3,0 -1,-1 -2,0 0,3 -1,1 -2,0 -1,-1 -3,0 -1,-1 0,-1 -1,-1 -5,0 -1,-1 -1,0 -1,-1 0,-1 -2,0 -1,-1 -1,0 0,3 -1,1 -2,0 -1,-1 -1,0 -1,-1 -1,-1 -1,0 -1,-1 -3,0 -1,1 -2,0 -1,-1 0,-3 -3,0 -1,-1 -4,0 -1,1 -4,0 -1,-1 -1,0 -1,-1 -1,0 2,2Z"/>
<path onmouseover="hoverPath(evt)" onmouseout="recoverPath(evt)" fill="rgb(235,236,231)" d="M  131,12l 0,-1 -1,-1 0,-2 -1,-1 0,-1 -1,-1 0,-1 -1,-1 0,-3 -39,0 0,2 1,1 0,0 1,1 0,1 1,1 1,1 0,1 1,1 0,1 1,1 1,1 0,1 1,1 1,1 0,1 1,1 1,1 1,1 0,2 1,0 1,1 0,1 1,1 0,2 1,1 2,0 1,1 0,4 1,0 1,1 0,1 1,1 0,1 1,1 1,-1 4,0 1,1 0,1 1,1 1,1 0,1 1,1 0,1 1,1 1,1 0,1 1,1 1,1 0,1 1,1 1,1 0,1 1,1 1,1 0,1 1,1 0,1 1,1 1,1 0,1 1,1 1,1 0,1 1,1 1,1 0,1 1,1 1,0 1,1 1,-1 9,0 0,-5 -1,-1 0,-3 -1,-1 0,-5 -1,-1 0,-3 -1,-1 0,-3 -1,-1 0,-4 -1,-1 0,-3 -1,-1 0,-1 -1,-1 0,-1 -1,-1 0,-2 -1,-1 0,-1 -1,-1 0,-1 -1,-1 0,-1 -1,-1 0,-2 -1,-1 0,-1 -1,-1 0,-1 -1,-1 0,-1 -1,-1Z"/>
<path onmouseover="hoverPath(evt)" onmouseout="recoverPath(evt)" fill="rgb(243,242,233)" d="M  134,0l -2,0 0,1 1,1 0,1 1,1 0,1 1,1 0,1 1,1 0,1 1,1 0,2 1,1 0,1 1,1 0,1 1,1 0,1 2,0 1,1 0,2 -1,1 1,1 0,2 1,1 0,1 1,1 0,1 1,1 1,0 1,-1 1,0 1,-1 1,-1 2,0 1,1 1,-1 4,0 1,1 1,0 1,1 0,2 2,0 1,1 0,1 1,1 1,1 0,2 1,0 1,1 1,1 2,2 0,2 -1,1 5,0 1,-1 6,0 1,-1 5,0 -5,-1 0,-4 1,-1 2,0 1,-1 1,-1 0,-2 1,-1 2,0 1,1 1,0 1,-1 0,0 1,-1 0,-3 1,-1 0,-4 -1,-1 0,-1 -2,0 -1,-1 -1,-1 0,-2 1,-1 -1,-1 0,-1 -1,0 -1,-1 0,-1 -1,-1 0,-3 1,-1 1,0 1,-1 1,0 1,-1 1,0 1,-1 0,-3 -62,0 27,25 -1,-1 0,-2 1,-1 2,0 1,1 0,2 -1,1 -2,0 -27,-25 33,20 0,-2 1,-1 2,0 1,1 0,2 -1,1 -2,0 -1,-1 -33,-20 38,17 0,-2 1,-1 1,0 1,-1 1,0 1,-1 1,-1 1,0 1,-1 2,0 1,1 0,2 -1,1 -1,0 -1,1 -1,1 -1,0 -1,1 -1,0 -1,1 -2,0 -1,-1 -38,-17Z"/>
<path onmouseover="hoverPath(evt)" onmouseout="recoverPath(evt)" fill="rgb(244,243,235)" d="M  157,80l -1,0 0,6 1,1 0,2 1,1 0,2 1,1 0,1 1,1 0,1 1,1 2,0 1,1 0,2 -1,1 1,1 0,0 1,1 0,1 1,1 2,0 1,1 0,2 -1,1 1,1 0,0 1,1 0,1 1,1 1,1 0,1 1,1 2,0 1,1 0,1 1,1 1,1 0,2 -1,1 2,2 0,1 1,1 0,1 1,1 1,1 0,1 1,1 1,1 1,1 0,1 3,0 1,-1 1,0 1,-1 2,0 0,-2 1,-1 1,0 1,-1 2,0 1,1 1,-1 1,0 1,-1 1,-1 1,0 1,-1 1,-1 1,0 1,-1 0,-2 1,-1 1,-1 2,0 1,1 1,-1 0,0 1,-1 1,0 1,-1 1,-1 1,0 1,-1 0,-2 1,-1 1,-1 4,0 1,-1 1,-1 1,0 1,-1 1,0 1,-1 0,-2 1,-1 2,0 1,1 1,-1 1,0 1,-1 0,-2 1,-1 2,0 1,1 1,-1 0,-2 1,-1 1,0 1,-1 1,-1 4,0 1,-1 2,0 0,-22 -2,0 -1,-1 0,-1 -1,-1 -2,0 -1,1 -8,0 -1,1 -9,0 -1,1 -8,0 -1,1 -8,0 -1,1 -8,0 -1,1 -9,0 -1,1 -7,0 -1,1 -8,0 -1,1 -7,0 -1,1Z"/>
<path onmouseover="hoverPath(evt)" onmouseout="recoverPath(evt)" fill="rgb(242,241,233)" d="M  196,143l 0,0 -1,-1 0,-2 1,-1 7,0 1,-1 3,0 1,-1 2,0 1,-1 1,0 1,-1 1,0 1,-1 1,-1 1,0 1,-1 1,-1 1,0 1,-1 1,-1 1,0 1,-1 1,-1 1,0 1,-1 1,0 1,-1 1,0 1,-1 1,-1 1,0 1,-1 1,-1 0,-1 1,-1 5,-5 0,-1 2,-2 0,-2 1,-1 1,0 1,-1 0,-1 -1,1 -1,0 -1,1 0,0 -1,1 -1,0 -1,1 -1,0 -1,1 -1,1 -1,0 -1,1 -1,0 -1,1 -1,0 -1,1 -1,1 -1,0 -1,1 -1,1 -1,0 -1,1 0,1 -1,1 -2,0 -1,1 -1,1 -1,0 -1,1 -1,1 -1,0 -1,1 -1,0 -1,1 0,1 -1,1 -2,0 -1,1 -1,1 -1,0 -1,1 -1,1 -1,0 -1,1 -1,0 -1,1 -1,1 -1,0 -1,1 -1,0 -1,1 -2,0 -1,1 -2,0 -1,1 -1,0 0,2 1,1 0,0 1,1 0,2 1,1 1,1 0,1 1,1 1,1 0,1 1,1 0,1 2,2 0,1 1,1 0,1 1,1 1,1 0,1 1,1 0,1 1,1 0,1 1,1 1,1 0,1 1,0 1,1 2,0 1,1 5,0 1,1 7,0 1,1 5,0 1,1 4,0 1,1 9,0 1,1 5,0 1,-1 4,0 0,-66 -3,0 0,2 -1,1 -2,2 -1,1 -1,1 0,1 -1,1 -2,2 -1,1 -5,5 -1,1 -1,1 -1,0 -1,1 -1,1 -1,0 -1,1 -1,1 -1,0 -1,1 -1,1 -1,1 -1,0 -1,1 -1,1 -1,1 -1,0 -1,1 -1,1 -1,0 -1,1 -1,0 -1,1 -4,0 -1,1Z"/>
<path onmouseover="hoverPath(evt)" onmouseout="recoverPath(evt)" fill="rgb(244,242,234)" d="M  10,230l -1,0 -1,1 0,2 -1,1 0,2 -1,1 0,3 -1,1 0,3 -1,1 0,4 -1,1 0,2 -1,1 0,2 75,0 0,-2 1,-1 1,-1 0,-1 -1,-1 -2,0 -1,-1 -1,0 -1,-1 -1,0 -1,-1 -2,0 -1,-1 -1,0 -1,-1 -1,0 -1,-1 -2,0 -1,-1 -4,0 -1,-1 -7,0 -1,-1 -4,0 -1,-1 -2,0 -1,-1 -1,0 -1,-1 -1,0 -1,-1 -1,0 -1,-1 -1,0 -1,-1 -3,0 -1,-1 -2,0 -1,-1 -3,0 -1,-1 -5,0 -1,-1Z"/>
<path onmouseover="hoverPath(evt)" onmouseout="recoverPath(evt)" fill="rgb(170,198,237)" d="M  28,122l 0,0 -1,1 0,1 -1,1 -1,1 -1,1 0,1 -1,1 -1,1 0,1 -1,1 1,1 0,1 1,-1 4,0 1,1 4,0 1,1 1,-1 1,0 0,-2 2,-2 1,-1 2,-2 1,-1 1,-1 1,0 1,-1 2,-2 1,0 1,-1 1,-1 1,0 1,-1 1,-1 1,0 1,-1 1,0 1,-1 1,-1 1,0 1,-1 1,0 1,-1 1,0 1,-1 1,0 1,-1 1,0 1,-1 1,0 1,-1 1,0 1,-1 1,0 1,-1 1,0 1,-1 1,0 1,-1 1,0 1,-1 1,0 1,-1 1,0 1,-1 1,0 1,-1 1,0 1,-1 1,0 1,-1 1,0 1,-1 1,0 1,-1 1,0 1,-1 1,0 1,-1 1,0 1,-1 1,0 1,-1 1,0 1,-1 1,0 1,-1 1,0 1,-1 1,0 1,-1 2,0 1,-1 2,0 1,-1 2,0 1,-1 1,0 1,-1 2,0 1,-1 3,0 1,-1 4,0 1,-1 3,0 1,-1 4,0 1,1 0,1 1,1 1,1 0,1 1,1 1,1 0,1 1,1 1,1 0,1 1,1 1,1 0,1 1,1 1,1 0,1 1,1 1,1 0,1 1,1 1,1 1,1 1,1 0,1 1,1 1,1 1,1 0,1 1,1 0,1 1,1 1,1 0,1 1,1 0,1 1,1 1,1 0,1 1,1 1,1 0,1 1,1 1,1 0,1 1,1 0,1 1,1 1,1 0,1 1,1 1,1 0,1 1,1 1,1 0,2 2,0 0,-1 -1,-1 0,-1 -1,-1 -1,-1 0,-1 -1,-1 -1,-1 0,-2 -1,-1 -1,-1 -1,-1 0,-1 -2,-2 0,-1 -1,-1 -1,-1 0,-1 -1,-1 0,-1 -1,-1 -1,-1 0,-1 -1,-1 -1,-1 0,-1 -1,-1 0,-1 -1,-1 0,-1 -1,-1 -1,-1 0,-1 -1,-1 -1,-1 0,-1 -1,-1 -1,-1 0,-1 -1,-1 0,-2 -1,-1 -1,0 -1,-1 -1,-1 0,-1 -1,-1 0,-2 -1,-1 -1,-1 -1,-1 0,-3 1,-1 1,0 1,-1 2,0 0,-1 -1,-1 0,-6 -1,-1 0,-1 -8,0 -1,1 -2,0 -1,-1 -1,0 -1,-1 -1,-1 0,-1 -1,-1 -1,-1 0,-1 -1,-1 -1,-1 0,-1 -1,-1 -1,-1 0,-1 -1,-1 0,-1 -1,-1 -1,-1 0,-1 -1,-1 -1,-1 0,-1 -1,-1 -1,-1 0,-1 -1,-1 -1,-1 0,-1 -1,-1 0,-1 -2,-2 0,-1 -2,0 0,2 1,1 0,0 1,1 0,1 1,1 1,1 0,1 1,1 1,1 0,1 1,1 1,1 0,1 1,1 1,1 0,1 1,1 1,1 0,1 1,1 1,1 0,1 1,1 1,1 0,1 1,1 1,1 0,4 -1,1 -1,0 -1,1 -3,0 -1,1 -2,0 -1,1 -3,0 -1,1 -2,0 -1,1 -1,0 -1,1 -2,0 -1,1 -1,0 -1,1 -2,0 -1,1 -1,0 -1,1 -2,0 -1,1 -1,0 -1,1 -1,0 -1,1 -2,0 -1,1 -1,0 -1,1 -1,0 -1,1 -1,0 -1,1 -2,0 -1,1 -1,0 -1,1 -1,0 -1,1 -1,1 -1,0 -1,1 -1,0 -1,1 -1,0 -1,1 -1,0 -1,1 -1,0 -1,1 -1,0 -1,1 -1,0 -1,1 -1,0 -1,1 -1,0 -1,1 -1,0 -1,1 -1,0 -1,1 -1,0 -1,1 -1,0 -1,1 -1,0 -1,1 -1,0 -1,1 -1,0 -1,1 -1,1 -1,0 -1,1 -1,1 -1,1 -1,0 -2,2 -1,1 -2,2 -1,0 -1,1 -1,1 -1,1 -1,0 -1,1 -1,1Z"/>
<path onmouseover="hoverPath(evt)" onmouseout="recoverPath(evt)" fill="rgb(241,239,232)" d="M  32,116l 0,0 1,-1 1,0 1,-1 1,-1 1,-1 1,-1 1,-1 1,0 1,-1 1,-1 1,-1 1,0 1,-1 1,-1 1,0 1,-1 1,0 1,-1 1,0 1,-1 1,0 1,-1 1,0 1,-1 1,0 1,-1 1,0 1,-1 1,0 1,-1 1,0 1,-1 1,0 1,-1 1,0 1,-1 1,0 1,-1 1,0 1,-1 1,0 1,-1 1,0 1,-1 1,0 1,-1 1,-1 1,0 1,-1 1,0 1,-1 2,0 1,-1 1,0 1,-1 1,0 1,-1 1,0 1,-1 2,0 1,-1 1,0 1,-1 1,0 1,-1 2,0 1,-1 1,0 1,-1 2,0 1,-1 1,0 1,-1 2,0 1,-1 1,0 1,-1 2,0 1,-1 3,0 1,-1 2,0 1,-1 3,0 1,-1 1,0 0,-2 -1,-1 0,0 -1,-1 0,-1 -1,-1 -1,-1 0,-1 -1,-1 -1,-1 0,-1 -1,-1 -1,-1 0,-1 -1,-1 -1,-1 0,-1 -1,-1 -1,-1 0,-1 -1,-1 -1,-1 0,-1 -1,-1 -1,-1 0,-1 -1,-1 -1,-1 0,-2 -1,0 -1,-1 -1,-1 0,-1 -1,-1 0,-1 -1,0 -1,-1 0,-4 -2,0 -1,-1 -1,-1 0,-2 -1,-1 0,-1 -1,0 -1,-1 0,-2 -1,-1 -1,-1 -1,-1 0,-1 -1,-1 -1,-1 0,-1 -1,-1 -1,-1 0,-1 -1,-1 0,-1 -1,-1 -1,-1 0,-1 -1,-1 -1,-1 0,-3 -19,0 0,2 -1,1 -1,0 -1,1 -1,0 -1,1 -1,0 -1,1 -1,0 -1,1 -1,0 -1,1 -1,0 -1,1 -1,0 0,2 -1,1 -1,0 -1,1 -1,0 -1,1 -1,0 -1,1 -1,0 -1,1 -2,0 -1,-1 -1,1 -1,0 -1,1 -1,0 0,2 -1,1 -3,0 -1,-1 -1,1 0,2 -1,1 -1,1 -1,1 -1,1 -3,0 -1,-1 0,1 -1,1 -2,0 -1,-1 -1,1 -1,0 0,1 3,0 1,1 0,3 -1,1 0,3 -1,1 -1,1 -4,0 -1,-1 0,-6 -1,-1 -2,0 -1,1 -1,0 -1,1 -1,0 -1,1 -1,0 -1,1 -3,0 0,54 2,0 0,-1 1,-1 0,-2 1,-1 0,-1 1,-1 0,-2 1,-1 0,-2 1,-1 0,-4 1,-1 0,-4 1,-1 0,-6 1,-1 0,-4 -1,0 -1,-1 0,-1 -1,-1 0,-3 1,-1 1,0 1,-1 1,0 0,-2 1,-1 4,0 1,1 0,4 -1,1 0,6 -1,1 0,5 -1,1 0,5 -1,1 0,5 -1,1 0,3 1,1 0,2 -1,1 -2,0 0,2 -1,1 0,2 -1,1 0,2 -1,1 1,1 0,2 -1,1 0,1 -1,1 -2,0 0,1 -1,1 1,1 0,2 -1,1 -3,0 0,68 6,0 1,-1 0,-3 1,-1 0,-3 1,-1 0,-3 1,-1 0,-4 1,-1 0,-3 1,-1 0,-2 1,-1 0,-2 1,-1 0,-3 1,-1 1,0 0,-3 1,-1 3,0 -1,-1 0,-2 1,-1 0,-1 1,-1 1,-1 0,-1 1,-1 1,-1 1,-1 0,-1 1,-1 1,-1 2,-2 1,0 2,-2Z"/>
<path onmouseover="hoverPath(evt)" onmouseout="recoverPath(evt)" fill="rgb(242,242,235)" d="M  30,146l 0,2 -1,1 0,1 -1,1 0,2 -1,1 0,1 -1,1 0,4 -1,1 0,3 -1,1 0,3 -1,1 0,4 -1,1 0,3 -1,1 0,3 -1,1 0,4 -1,1 0,2 -1,1 0,3 -1,1 0,3 -1,1 4,4 1,1 1,0 1,1 1,0 1,1 2,0 1,1 1,0 1,1 3,0 1,1 4,0 1,1 7,0 1,1 5,0 1,-1 1,0 0,-1 1,-1 1,-1 1,0 1,-1 1,-1 0,-1 1,-1 1,-1 1,-1 1,-1 1,-1 1,-1 1,-1 1,-1 1,0 1,-1 1,-1 1,0 1,-1 1,-1 1,0 1,-1 1,0 2,-2 1,-1 3,-3 1,-1 1,-1 1,-1 1,-1 1,0 1,-1 4,-4 3,0 1,1 1,0 1,-1 0,0 1,-1 1,0 1,-1 1,-1 4,0 1,-1 7,0 1,-1 6,0 1,-1 2,0 1,-1 1,-1 3,0 1,-1 1,0 1,-1 1,0 1,-1 1,0 1,-1 3,0 0,-1 -1,-1 0,-2 1,-1 2,0 1,-1 4,0 1,-1 0,-1 1,-1 1,0 1,-1 1,0 1,-1 1,0 1,-1 1,0 1,-1 1,0 1,-1 4,0 1,-1 7,0 1,-1 1,-1 2,0 1,-1 2,0 1,-1 1,0 0,-1 -2,0 -1,-1 0,-2 -1,-1 0,-2 -1,-1 -1,-1 0,-1 -1,-1 -1,-1 0,-1 -1,-1 -1,-1 0,-1 -1,-1 0,-1 -1,-1 -1,-1 0,-1 -1,-1 -1,-1 0,-1 -1,-1 -1,-1 0,-1 -1,-1 0,-1 -1,-1 -1,-1 0,-1 -1,-1 0,-1 -1,-1 -1,-1 -1,-1 0,-1 -1,-1 -2,-2 -1,-1 0,-1 -1,-1 -1,-1 0,-1 -1,-1 -1,-1 0,-1 -1,-1 -1,-1 0,-1 -1,-1 -1,-1 0,-1 -1,-1 -1,-1 0,-1 -1,-1 -1,-1 0,-1 -2,0 -1,1 -3,0 -1,1 -4,0 -1,1 -3,0 -1,1 -2,0 -1,1 -1,0 -1,1 -2,0 -1,1 -2,0 -1,1 -2,0 -1,1 -1,0 -1,1 -1,0 -1,1 -1,0 -1,1 -1,0 -1,1 -1,0 -1,1 -1,0 -1,1 -1,0 -1,1 -1,0 -1,1 -1,0 -1,1 -1,0 -1,1 -1,0 -1,1 -1,0 -1,1 -1,0 -1,1 -1,0 -1,1 -1,0 -1,1 -1,0 -1,1 -1,0 -1,1 -1,0 -1,1 -1,0 -1,1 -1,0 -1,1 -1,0 -1,1 -1,0 -1,1 -1,0 -1,1 -1,0 -1,1 -1,0 -1,1 -1,0 -1,1 -1,1 -1,0 -1,1 -1,0 -1,1 -1,1 -1,0 -1,1 -1,1 -1,0 -1,1 -1,1 -1,1 -1,0 -1,1 -2,2 -1,1 -1,1 -1,1 0,2 -1,1 -1,0 -1,1 0,2 -2,2 -1,1 -1,0 1,1 0,2 -1,1Z"/>
<path onmouseover="hoverPath(evt)" onmouseout="recoverPath(evt)" fill="rgb(170,198,237)" d="M  0,215l 0,40 1,-4 0,-2 1,-1 0,-4 1,-1 0,-3 1,-1 0,-3 1,-1 0,-2 1,-1 0,-2 1,-1 1,-1 8,0 1,1 5,0 1,1 3,0 1,1 2,0 1,1 3,0 1,1 1,0 1,1 1,0 1,1 1,0 1,1 1,0 1,1 2,0 1,1 4,0 1,1 7,0 1,1 4,0 1,1 2,0 1,1 1,0 1,1 1,0 1,1 2,0 1,1 1,0 1,1 1,0 1,1 2,0 1,1 1,1 0,3 -1,1 -1,1 0,1 4,0 0,-2 2,-2 1,-1 16,0 1,-1 2,0 0,-1 1,-1 2,0 1,1 0,0 1,1 4,0 1,1 1,0 1,1 1,0 1,1 1,0 1,1 0,2 4,0 0,-2 -1,-1 0,0 -2,-2 -1,-1 -2,0 -1,-1 -3,0 -1,-1 -5,0 -109,-32 105,32 -6,0 -1,1 -5,0 -1,-1 -5,0 -1,-1 -4,0 -1,-1 -2,0 -1,-1 -1,0 -1,-1 -2,0 -1,-1 -1,0 -1,-1 -2,0 -1,-1 -2,0 -1,-1 -2,0 -1,-1 -3,0 -1,-1 -7,0 -1,-1 -4,0 -1,-1 -1,0 -1,-1 -1,0 -1,-1 -1,0 -1,-1 -2,0 -1,-1 -1,0 -1,-1 -2,0 -1,-1 -3,0 -1,-1 -5,0 -1,-1 -3,0 -1,-1 -4,0 -1,-1 -2,0 -1,-1 -1,-1 0,-3 1,-1 0,-2 1,-1 -1,0 -1,-1 -4,0 -1,-1 -3,0 105,33 -105,-32Z"/>
<path onmouseover="hoverPath(evt)" onmouseout="recoverPath(evt)" fill="rgb(241,226,222)" d="M  1,30l -1,0 0,2 2,0 1,-1 1,0 1,-1 1,0 1,-1 1,0 1,-1 4,0 1,1 1,1 0,-4 1,-1 1,0 1,-1 2,0 1,1 0,-1 1,-1 2,0 1,1 1,0 1,-1 1,-1 1,-1 0,-2 1,-1 1,-1 2,0 1,1 1,0 0,-2 1,-1 1,0 1,-1 1,0 1,-1 2,0 1,1 1,-1 1,0 1,-1 1,0 1,-1 1,0 1,-1 1,0 0,-2 1,-1 1,0 1,-1 1,0 1,-1 1,0 1,-1 1,0 1,-1 1,0 1,-1 1,0 1,-1 1,0 0,-1 -19,0 0,3 -1,1 -1,1 0,1 -1,1 -1,1 -1,1 0,1 -1,1 -1,0 -1,1 -1,1 -1,1 -1,1 -6,0 0,3 -28,12 27,-10 -1,1 -2,0 -1,-1 -1,1 -1,0 -1,1 -1,0 -1,1 -1,0 -1,1 -3,0 -1,-1 -1,-1 0,-1 -1,-1 0,-1 -1,-1 0,-1 -1,-1 0,-1 -1,-1 0,-1 -1,-1 0,-1 -1,-1 0,-2 1,-1 -2,0 -1,-1 0,-1 -2,-2 0,-3 -2,0 0,5 2,0 1,1 0,1 1,1 0,1 1,1 1,1 0,1 1,1 0,1 1,1 0,1 1,1 0,1 1,1 0,1 1,1 0,5 -1,1 -1,0 -1,1 -2,0 -1,1 -1,0 -1,1 1,0 2,-1 22,-9 -27,10 15,0 -1,1 0,5 2,0 1,-1 0,-3 1,-1 0,-1Z"/>
<path onmouseover="hoverPath(evt)" onmouseout="recoverPath(evt)" fill="rgb(240,239,226)" d="M  4,27l 1,-1 2,0 1,-1 1,0 0,-3 -1,-1 0,-1 -1,-1 0,-1 -1,-1 0,-1 -1,-1 0,-1 -1,-1 0,-1 -2,-2 0,-1 -1,-1 0,-1 -1,0 0,21 2,0 1,-1Z"/>
<path onmouseover="hoverPath(evt)" onmouseout="recoverPath(evt)" fill="rgb(248,245,241)" d="M  13,47l 0,0 -1,1 -1,0 -1,1 -1,0 0,1 1,1 0,1 1,0 1,1 0,6 -1,1 0,6 -1,1 0,4 -1,1 0,4 -1,1 0,2 -1,1 0,2 -1,1 0,1 -1,1 0,2 -1,1 0,1 -1,1 -3,0 0,10 2,0 -1,-1 0,-2 1,-1 0,-1 1,-1 2,0 0,-1 1,-1 -1,-1 0,-2 1,-1 0,-2 1,-1 0,-2 1,-1 0,-2 1,-1 2,0 -1,-1 0,-5 1,-1 0,-5 1,-1 0,-5 1,-1 0,-5 1,-1 0,-6 -1,-1 0,-1 1,-1 -1,0 2,1 0,-1 -2,1Z"/>
<path onmouseover="hoverPath(evt)" onmouseout="recoverPath(evt)" fill="rgb(170,198,238)" d="M  54,211l -1,1 1,0 1,-1 1,0 1,-1 2,-2 1,-1 1,-1 0,-1 1,-1 1,0 1,-1 1,-1 2,-2 1,-1 1,0 1,-1 1,0 1,-1 1,0 1,-1 1,0 1,-1 1,-1 2,-2 1,-1 1,-1 1,-1 1,0 2,-2 1,-1 1,-1 1,-1 1,-1 1,-1 1,-1 1,-1 1,-1 1,-1 0,-1 -1,0 -1,1 0,0 -1,1 -2,2 -1,1 -1,0 -1,1 -1,1 -1,1 -1,1 -1,1 -1,1 -1,1 -1,1 -2,2 -1,0 -1,1 -1,0 -1,1 -1,1 -1,0 -1,1 -1,1 -1,0 -1,1 -1,1 -2,2 -1,1 -2,2 2,-1 4,-4 -13,12 6,-5 -1,1 -1,1 -1,0 -1,1 0,1 1,-1 -5,3 -6,0 -1,-1 0,1 -1,-1Z"/>
<path onmouseover="hoverPath(evt)" onmouseout="recoverPath(evt)" fill="rgb(244,243,234)" d="M  106,251l -2,0 -1,1 -16,0 -1,1 -1,1 0,1 34,0 0,-1 -1,0 -1,-1 -1,0 -1,-1 -1,0 -1,-1 -4,0 -1,-1 -1,-1 0,1 -1,1Z"/>
<path onmouseover="hoverPath(evt)" onmouseout="recoverPath(evt)" fill="rgb(245,247,248)" d="M  133,11l 0,0 1,1 0,1 1,1 0,1 1,1 0,1 1,1 0,2 1,1 0,1 1,1 0,1 1,1 0,1 1,1 0,2 1,1 0,1 1,1 0,1 1,1 0,3 1,1 0,4 1,1 0,3 1,1 0,3 1,1 0,5 1,1 0,3 1,1 0,8 1,1 0,6 1,1 0,3 -1,1 -2,0 -1,1 -1,0 0,1 1,1 0,0 1,1 1,1 0,2 1,1 0,1 1,1 1,0 1,1 1,1 0,2 1,1 0,1 1,1 1,1 0,1 1,1 1,1 0,1 1,1 1,1 0,1 1,1 0,1 1,1 0,1 1,1 1,1 0,1 1,1 1,1 0,1 1,1 0,1 1,1 1,1 0,1 1,1 1,1 0,1 1,1 1,1 1,1 0,2 1,1 1,1 0,1 1,1 1,1 0,1 1,1 0,3 -1,1 -2,0 0,1 2,0 1,1 0,3 -1,1 -1,0 -1,1 -2,0 -1,1 -2,0 -1,1 -1,1 -7,0 -1,1 -4,0 -1,1 -1,0 -1,1 -1,0 -1,1 -1,0 -1,1 -1,0 -1,1 -1,0 0,1 -1,1 -1,1 -4,0 -1,1 1,0 5,-1 1,0 0,-1 1,-1 2,0 0,-1 1,-1 2,0 1,-1 1,0 1,-1 1,0 1,-1 -1,0 -2,1 -2,1 -22,-143 44,137 2,-1 2,-1 1,0 1,-1 0,0 1,-1 2,0 1,1 1,1 0,1 1,1 0,1 1,1 1,1 0,1 1,1 0,1 1,1 1,1 0,1 1,1 0,1 1,1 1,1 0,1 1,1 0,2 -1,1 2,0 1,1 1,1 0,1 1,1 1,1 1,1 1,1 2,0 1,1 5,0 1,1 5,0 1,1 10,0 1,1 3,0 1,1 7,0 1,1 6,0 1,1 5,0 0,-3 -3,0 -1,1 -7,0 -1,-1 -8,0 8,1 0,0 -66,-30 -44,-137 99,165 -1,0 -3,-1 -5,0 -1,-1 -7,0 -1,-1 -5,0 -1,-1 -2,0 -1,-1 -1,0 -1,-1 0,-1 -1,-1 0,0 -1,-1 0,-1 -1,-1 0,-1 -1,-1 0,-1 -1,-1 -1,-1 0,-1 -1,-1 0,-1 -1,-1 -1,-1 0,-1 -1,-1 0,-1 -1,-1 -1,-1 0,-1 -1,-1 -1,-1 0,-2 -1,-1 -1,-1 0,-4 1,-1 1,0 1,-1 2,0 1,-1 2,0 1,-1 1,0 1,-1 1,0 1,-1 1,-1 1,0 1,-1 1,0 1,-1 1,-1 1,0 1,-1 1,-1 2,0 0,-1 1,-1 1,-1 1,0 1,-1 1,0 1,-1 1,-1 1,0 1,-1 1,-1 2,0 0,-1 1,-1 1,-1 1,0 1,-1 1,-1 1,0 1,-1 1,-1 1,0 1,-1 1,0 1,-1 1,0 1,-1 1,-1 1,0 1,-1 1,0 1,-1 1,-1 1,0 1,-1 2,0 1,1 1,0 1,1 1,0 1,1 3,0 0,-10 -1,0 -1,1 -4,0 -1,1 -1,1 -1,0 0,2 -1,1 -1,1 -2,0 -1,-1 0,2 -1,1 -1,1 -1,0 -1,1 -2,0 -1,-1 0,2 -1,1 -1,1 -1,0 -1,1 -1,0 -1,1 -1,1 -4,0 -1,1 0,2 -1,1 -1,1 -1,0 -1,1 -1,1 -1,0 -1,1 -1,1 -2,0 -1,-1 -1,1 0,2 -1,1 -1,1 -1,0 -1,1 -1,1 -1,0 -1,1 -1,1 -1,0 -1,1 -2,0 -1,-1 -1,1 -1,0 0,2 -1,1 -2,0 -1,1 -1,0 -1,1 -5,0 -1,-1 0,-1 -1,-1 -1,-1 -1,-1 0,-1 -1,-1 -1,-1 0,-1 -1,-1 0,-1 -1,-1 -1,-1 0,-2 1,-1 -1,-1 0,0 -1,-1 0,-1 -2,0 -1,-1 -1,-1 0,-1 -1,-1 -1,-1 0,-1 -1,-1 -1,-1 0,-2 1,-1 -2,0 -1,-1 -1,-1 0,-1 -1,-1 -1,-1 0,-2 1,-1 -2,0 -1,-1 -1,-1 0,-1 -1,-1 0,-1 -1,-1 0,-2 -1,-1 0,-2 -1,-1 0,-11 -1,-1 0,-7 -1,-1 0,-3 -1,-1 0,-3 -1,-1 0,-3 -1,-1 0,-7 1,-1 -1,0 -1,-1 0,0 -1,-1 0,-3 -1,-1 0,-8 1,-1 -2,0 -1,-1 -1,-1 0,-1 -1,-1 0,-1 -1,-1 0,-2 -1,-1 0,-2 1,-1 -2,0 -1,-1 0,-1 -1,-1 0,-1 -1,-1 0,-1 -1,-1 0,-2 -1,-1 0,-1 -1,-1 0,-1 -1,-1 0,-1 -1,-1 0,-1 -1,-1 0,-2 -1,0 0,2 1,1 0,1 1,1 0,1 1,1 0,2 1,1 0,-1 5,11 2,4 2,5 1,2 89,145 -99,-165Z"/>
<path onmouseover="hoverPath(evt)" onmouseout="recoverPath(evt)" fill="rgb(244,242,235)" d="M  151,51l 0,3 1,1 0,3 1,1 0,3 1,1 0,3 1,-1 8,0 1,-1 7,0 1,-1 8,0 1,-1 7,0 1,-1 8,0 1,-1 8,0 1,-1 8,0 1,-1 8,0 1,-1 7,0 1,-1 8,0 1,-1 9,0 1,-1 3,0 0,-54 -57,0 0,4 -1,1 -1,1 -1,0 -1,1 -1,0 -1,1 -1,0 0,1 1,1 0,1 1,0 1,1 0,1 1,1 0,1 1,1 1,1 0,1 1,1 0,1 1,1 0,6 -1,1 0,3 -1,1 -1,1 -1,1 -2,0 -1,1 -1,0 -1,1 -2,2 -2,0 0,2 4,0 1,1 0,2 -1,1 -5,0 -1,1 -6,0 -1,1 -8,0 -1,-1 0,-2 1,-1 1,0 -1,-1 -2,-2 -1,0 -1,-1 0,-2 -1,-1 -1,-1 0,-1 -2,0 -1,-1 0,-2 -1,0 -1,-1 -2,0 -1,1 -2,0 -1,-1 -1,1 -1,1 -1,0 0,2 -1,1 0,6 1,1 0,3 1,1 4,0 1,1 0,2 -1,1 -3,0Z"/>
<path onmouseover="hoverPath(evt)" onmouseout="recoverPath(evt)" fill="rgb(170,198,237)" d="M  211,139l -2,0 -1,1 -3,0 -1,1 5,0 1,-1 1,-1 3,1 1,-1 1,0 1,-1 1,0 1,-1 1,-1 1,0 1,-1 1,-1 1,-1 1,0 1,-1 1,-1 1,-1 1,0 1,-1 1,-1 1,0 1,-1 1,-1 1,0 1,-1 1,-1 1,-1 1,-1 1,-1 1,-1 1,-1 1,-1 1,-1 1,-1 0,-1 1,-1 2,-2 1,-1 1,-1 0,-2 -1,0 -1,-1 0,1 -1,1 -1,1 -1,0 0,2 -1,1 -1,1 0,1 -1,1 -1,1 -1,1 -1,1 -1,1 -1,1 0,1 -1,1 -1,1 -1,1 -1,0 -1,1 -1,1 -1,0 -1,1 -1,0 -1,1 -1,0 -1,1 -1,1 -1,0 -1,1 -1,1 -1,0 -1,1 -1,1 -1,0 -1,1 -1,1 -1,3 -3,-1Z"/>
</svg>