<svg width="256" height="256" xmlns="http://www.w3.org/2000/svg"><script> 
var tempColor;
function hoverPath(evt){
obj = evt.target;
tempColor = obj.getAttribute("fill");
obj.setAttribute("fill","red");
//alert(tempColor);
//obj.setAttribute("stroke","red");}
function recoverPath(evt){
obj = evt.target;
obj.setAttribute("fill", tempColor);
//obj.setAttribute("stroke", tempColor);
}</script><path onmouseover="hoverPath(evt)" onmouseout="recoverPath(evt)" fill="rgb(240,238,230)" d="M  43,107l 0,0 -1,-1 -1,0 -1,-1 0,-1 -3,0 -1,-1 0,-3 -1,-1 0,-3 -6,0 -1,-1 -1,0 -1,-1 -1,-1 0,-3 1,-1 1,0 0,-1 -1,-1 0,0 -1,-1 0,-1 -1,0 -1,-1 0,-1 -1,-1 -1,-1 -1,-1 -1,-1 -1,-1 -1,-1 -1,-1 0,-1 -1,-1 -2,-2 -1,-1 -1,-1 0,-1 -1,-1 -1,-1 -1,-1 -1,-1 0,-1 -1,1 -1,0 -1,1 -1,1 -1,1 -2,0 0,89 1,0 1,-1 2,0 1,1 1,-1 0,-1 1,-1 1,0 1,-1 1,0 0,-1 1,-1 2,0 1,-1 1,-1 1,0 1,-1 1,0 1,-1 1,0 1,-1 1,0 1,-1 1,0 1,-1 4,0 1,-1 1,0 1,-1 1,0 1,-1 0,-1 1,-1 1,0 -1,-1 0,0 -1,-1 0,-2 1,-1 2,0 1,1 1,1 1,0 1,-1 1,0 1,-1 1,0 1,-1 1,0 1,-1 1,0 1,-1 1,-1 1,0 1,-1 1,0 1,-1 1,0 1,-1 1,0 1,-1 1,0 -1,-1 0,0 -1,-1 -1,-1 -1,-1 0,-1 -1,-1 -1,-1 -1,-1 -1,-1 -1,-1 0,-1 -1,-1 -1,-1 -1,-1 -1,-1 -1,-1 -1,-1 0,-1 -1,-1 -17,36 -2,0 -1,-1 0,-2 1,-1 2,0 1,1 0,2 -1,1 17,-36 -42,2 0,-2 1,-1 2,0 1,1 0,2 -1,1 -2,0 -1,-1 42,-2Z"/>
<path onmouseover="hoverPath(evt)" onmouseout="recoverPath(evt)" fill="rgb(244,243,235)" d="M  76,132l -1,0 -1,1 -1,0 0,1 1,1 0,0 1,1 1,1 1,1 1,1 0,1 1,1 1,1 1,1 1,1 1,1 0,1 1,1 1,1 1,1 1,1 0,1 1,1 1,1 1,1 1,1 1,1 1,1 1,1 0,1 1,1 1,1 3,3 1,1 0,2 1,0 1,-1 0,-1 1,-1 2,0 1,-1 0,-2 1,-1 1,-1 4,0 1,-1 1,-1 1,0 1,-1 1,-1 0,-2 1,-1 1,-1 2,0 0,-1 1,-1 1,-1 2,0 1,1 1,-1 1,-1 1,-1 1,0 1,-1 1,-1 -1,-1 0,0 -1,-1 0,-1 -1,-1 -1,-1 -1,-1 -1,-1 0,-1 -1,-1 -1,-1 -1,0 -1,-1 -1,0 -1,-1 -1,-1 0,-4 -1,-1 -1,-1 -1,-1 0,-1 -1,-1 -1,-1 -1,0 -1,-1 0,-2 -1,-1 -1,-1 -2,0 -1,-1 -1,1 -1,0 -1,1 -1,0 -1,1 -1,0 -1,1 -1,0 -1,1 -1,0 -1,1 -1,1 -1,0 -1,1 -1,0 -1,1 -1,0 -1,1 -1,0 -1,1 -1,0 -1,1 -1,0 -1,1 -1,1 -1,0 -1,1 -1,0 -1,1 -1,0 -1,1Z"/>
<path onmouseover="hoverPath(evt)" onmouseout="recoverPath(evt)" fill="rgb(240,240,235)" d="M  157,229l 0,0 -1,1 -1,1 -1,1 -3,0 0,1 -2,2 2,-1 2,0 1,1 0,2 1,1 1,1 1,1 1,1 1,1 0,1 1,1 1,1 1,1 1,1 1,1 0,1 1,1 1,1 1,1 1,1 0,2 46,0 0,-2 -1,-1 0,0 -1,-1 -1,-1 0,-1 -1,-1 -1,-1 -1,-1 0,-1 -1,-1 -1,-1 -1,-1 0,-1 -1,-1 -1,-1 -1,-1 -1,-1 0,-1 -1,-1 -1,-1 0,-1 -1,-1 -1,-1 -1,-1 -2,0 -1,-1 -1,-1 0,-1 -1,-1 -1,-1 0,-4 -1,-1 -1,-1 -1,0 -1,-1 0,-2 -1,-1 -1,-1 -1,-1 -1,-1 -2,0 -1,-1 -1,1 0,0 -2,2 -1,1 -2,0 0,1 -1,1 -1,1 -1,1 -2,0 0,1 -1,1 -1,1 -1,1 -2,0 0,1 -1,1 -1,1 -1,1 -1,1 -1,0 -1,1Z"/>
<path onmouseover="hoverPath(evt)" onmouseout="recoverPath(evt)" fill="rgb(244,243,235)" d="M  184,68l 0,0 -1,1 -1,0 -1,1 -1,1 1,1 0,4 1,1 1,1 1,0 1,1 1,1 2,0 1,1 1,1 0,1 1,1 1,1 0,2 1,1 1,1 2,0 1,1 1,1 0,4 1,1 1,1 1,0 1,1 1,1 1,1 1,1 1,1 0,2 1,1 1,1 1,1 1,0 1,1 1,1 1,1 2,0 1,1 1,1 0,4 1,1 1,1 1,0 1,1 1,1 1,1 2,0 1,1 1,1 1,1 0,4 1,1 1,1 1,1 1,1 1,1 1,0 -4,-4 0,-3 1,-1 1,-1 1,-1 1,-1 0,-1 2,-2 1,-1 1,-1 0,-1 1,-1 1,-1 1,-1 0,-1 1,-1 1,-1 0,-1 1,-1 1,-1 1,-1 1,-1 1,-1 0,-1 1,-1 1,-1 1,-1 1,-1 1,-1 2,0 0,-30 -2,0 -1,-1 0,-1 -1,-1 -2,-2 -1,-1 0,-1 -1,-1 -1,-1 -2,-2 -1,-1 0,-1 -1,-1 -2,-2 -1,-1 0,-1 -1,-1 -1,-1 -1,-1 -1,-1 -1,-1 0,-1 -1,-1 -1,-1 -1,-1 -1,-1 -1,-1 0,-1 -1,-1 -1,-1 -1,-1 -1,-1 -1,0 -1,1 -1,0 0,1 -1,1 -1,1 -1,1 -1,1 -1,1 -1,0 -1,1 -1,1 -1,0 0,1 -1,1 -1,1 -2,2 -1,1 -1,0 -1,1 -1,1 -1,1 -1,1 -1,0 -1,1 -1,1 -2,2 -1,0 -1,1 -1,1 -1,1 -1,1 -1,0 -1,1 -1,1 -1,1 -1,1 -1,0 -1,1 -1,1 -1,1Z"/>
<path onmouseover="hoverPath(evt)" onmouseout="recoverPath(evt)" fill="rgb(244,243,236)" d="M  0,173l 0,33 2,0 0,-2 1,-1 2,0 1,1 1,-1 1,0 1,-1 1,0 1,-1 2,0 1,-1 1,0 1,-1 3,0 1,-1 1,-1 1,0 1,-1 1,0 1,-1 1,0 1,-1 2,0 1,-1 3,0 1,-1 2,0 1,-1 1,0 1,-1 2,0 1,-1 1,0 0,-1 1,-1 1,0 1,-1 0,-1 1,-1 1,0 0,-1 1,-1 0,-1 1,-1 1,-1 1,-1 1,-1 2,0 0,-1 1,-1 1,-1 1,0 1,-1 3,-3 1,-1 0,-3 -1,0 -1,-1 -1,-1 -1,-1 -1,-1 0,-2 -1,0 -1,-1 -1,-1 -1,-1 -1,-1 0,-2 -1,0 -1,-1 -1,-1 -1,-1 -1,-1 0,-1 -1,-1 -1,0 -1,1 -1,0 -1,1 -1,0 -1,1 -1,1 -1,0 -1,1 -1,0 -1,1 -1,0 -1,1 -1,0 -1,1 -1,0 -1,1 -1,0 -1,1 -1,1 -1,0 -1,1 -1,0 -1,1 -1,0 -1,1 -1,0 -1,1 -1,0 -1,1 -1,0 -1,1 -1,0 -1,1 -1,1 -1,0 -1,1 -1,0 -1,1 -1,0 -1,1 -1,0 -1,1 -1,0 -1,1 -1,0 -1,1Z"/>
<path onmouseover="hoverPath(evt)" onmouseout="recoverPath(evt)" fill="rgb(249,235,131)" d="M  0,161l 0,9 1,0 1,-1 1,0 1,-1 1,0 1,-1 1,0 1,-1 1,0 1,-1 1,0 1,-1 1,-1 1,0 1,-1 1,0 1,-1 1,0 1,-1 1,0 1,-1 1,0 1,-1 1,0 1,-1 1,0 1,-1 1,-1 1,0 1,-1 1,0 1,-1 1,0 1,-1 1,0 1,-1 1,0 1,-1 1,0 1,-1 1,-1 1,0 1,-1 1,0 1,-1 3,0 1,1 1,1 0,1 1,1 1,1 1,1 1,0 1,1 0,2 1,1 1,1 1,1 1,0 1,1 0,2 1,1 1,1 1,1 1,0 1,1 0,4 1,0 1,1 1,0 1,1 1,1 1,1 0,1 1,1 1,1 1,1 2,0 1,1 1,1 0,3 -1,1 2,0 1,1 0,1 1,0 1,1 1,1 0,1 1,1 1,1 1,1 1,0 1,1 0,2 1,1 1,1 1,1 1,0 1,1 0,2 1,1 1,1 1,1 1,0 1,1 0,2 1,1 1,1 1,1 1,1 1,0 1,1 0,2 1,1 1,1 1,1 1,0 1,1 1,0 1,1 0,1 1,1 1,1 1,1 0,3 1,1 1,1 1,1 1,1 1,0 1,1 0,2 1,1 1,1 1,1 1,0 1,1 0,2 1,1 1,1 1,1 2,0 1,1 0,3 -1,1 -1,1 2,-1 1,0 1,1 1,1 1,1 0,1 1,1 1,1 1,1 0,2 12,0 0,-1 -1,-1 0,0 -1,-1 0,-1 -1,-1 -1,-1 -1,0 -1,-1 0,-1 -1,-1 0,-1 -1,-1 -1,0 -1,-1 0,-2 1,-1 -2,0 -1,-1 0,-1 -1,0 -1,-1 -1,-1 -1,0 -1,-1 0,-2 -1,-1 -1,-1 -1,-1 -1,0 -1,-1 0,-2 -1,-1 -1,-1 -1,-1 -2,0 -1,-1 -1,-1 -1,-1 -1,-1 0,-1 -1,-1 -1,-1 0,-1 -1,-1 0,-2 -1,-1 -1,-1 -1,0 -1,-1 0,-2 -1,-1 -1,-1 -1,-1 -1,0 -1,-1 0,-2 -1,-1 -1,-1 -1,-1 -1,0 -1,-1 0,-1 -1,-1 0,-1 -1,-1 -1,-1 -1,-1 -1,0 -1,-1 0,-2 -1,-1 -1,-1 -1,-1 -1,0 -1,-1 0,-1 -2,0 -1,-1 -1,-1 0,-2 1,-1 0,-1 1,-1 -2,1 -1,0 -1,-1 0,-1 -1,-1 -1,-1 -1,-1 -1,-1 -1,0 -1,-1 0,-2 -1,-1 -1,-1 -1,-1 -1,0 -1,-1 0,-4 -2,0 -1,-1 -1,-1 -1,-1 0,-1 -1,-1 -1,-1 -1,-1 -1,0 -1,-1 0,-2 -1,-1 -1,-1 -1,-1 -1,-1 -1,0 -1,-1 0,-2 -1,-1 -1,-1 0,-2 1,-1 1,0 1,-1 1,0 1,-1 1,0 1,-1 1,0 1,-1 1,0 0,-2 1,-1 4,0 1,-1 1,0 1,-1 1,0 1,-1 1,0 1,-1 1,0 1,-1 1,0 1,-1 1,-1 1,0 1,-1 1,0 1,-1 1,0 1,-1 1,0 1,-1 1,0 1,-1 1,0 1,-1 1,-1 1,0 1,-1 1,0 1,-1 1,0 1,-1 1,0 1,-1 1,0 1,-1 1,0 1,-1 0,-1 1,-1 2,0 1,-1 2,0 1,-1 1,-1 1,0 1,-1 1,0 1,-1 1,0 1,-1 1,-1 1,0 1,-1 1,0 1,-1 1,0 1,-1 1,-1 1,0 1,-1 1,0 1,-1 1,0 1,-1 1,-1 1,0 1,-1 1,0 1,-1 1,-1 1,0 1,-1 1,0 1,-1 1,0 1,-1 1,-1 1,0 1,-1 1,0 1,-1 1,-1 1,0 1,-1 1,-1 1,0 1,-1 1,0 2,-2 1,0 1,-1 1,-1 1,0 0,-1 1,-1 -1,-1 0,0 -1,-1 0,-1 -1,-1 -1,-1 -1,-1 -2,0 -1,1 0,0 -1,1 -1,0 -1,1 -1,1 -1,0 -1,1 -1,1 -1,0 -2,2 -1,0 -1,1 -1,1 -1,0 -1,1 -1,1 -1,0 -1,1 -1,0 -1,1 -1,1 -1,0 -1,1 -1,0 -1,1 -1,0 -1,1 -1,0 -1,1 -1,1 -1,0 -1,1 -1,0 -1,1 -1,0 -1,1 -1,1 -1,0 -1,1 -1,0 -1,1 -1,0 -1,1 -1,0 -1,1 -1,1 -1,0 -1,1 -1,0 -1,1 -1,0 -1,1 -1,0 -1,1 -1,0 -1,1 -1,0 -1,1 -1,1 -1,0 -1,1 -1,0 -1,1 -1,0 -1,1 -1,1 -1,0 -1,1 -1,0 -1,1 -1,0 -1,1 -1,0 -1,1 -1,0 -1,1 -1,1 -1,0 -1,1 -1,0 -1,1 -1,0 -1,1 -1,0 -1,1 -1,1 -1,0 -1,1 -1,0 -1,1 -1,0 -1,1 -1,0 0,2 -1,1 -1,0 -1,1 -4,0 -1,1 -1,0 -1,1 -1,0 -1,1 -1,0 -1,1 -1,0 -1,1 -1,1 -1,0 -1,1 -1,0 -1,1 -1,0 -1,1 -1,0 -1,1 -3,0 0,2 -1,1 -1,0 0,1 -1,1 -1,1 -1,0 -1,1 -1,0 -1,1 -4,0 -1,1 -1,0 -1,1 -1,0 -1,1 -1,0 -1,1 -1,0 -1,1 -1,0 -1,1 -1,1 -2,0 0,1 -1,1 -1,0 -1,1 -1,0 0,1 -1,1 -1,1 -2,0 -1,-1 -1,1 -2,0 0,2 75,-1 1,0 0,-1 -1,1 -75,1Z"/>
<path onmouseover="hoverPath(evt)" onmouseout="recoverPath(evt)" fill="rgb(242,242,236)" d="M  13,0l -13,0 0,62 1,0 1,-1 0,0 1,-1 0,-1 1,-1 1,0 1,-1 2,0 0,-2 1,-1 2,0 1,1 0,-2 1,-1 1,-1 2,0 0,-1 1,-1 1,-1 2,0 0,-1 1,-1 1,-1 4,0 2,-2 1,0 4,-4 1,0 1,-1 0,-2 2,-2 4,0 1,-1 1,-1 1,0 1,-1 0,-2 1,-1 1,-1 4,0 1,-1 0,-2 1,-1 1,-1 4,0 1,-1 1,-1 1,0 1,-1 1,-1 1,0 1,-1 1,-1 1,-1 1,0 1,-1 0,-2 1,-1 1,-1 4,0 1,-1 0,-2 1,-1 1,-1 4,0 1,-1 1,-1 1,0 1,-1 1,-1 1,0 0,-1Z"/>
<path onmouseover="hoverPath(evt)" onmouseout="recoverPath(evt)" fill="rgb(172,198,237)" d="M  57,253l 0,0 -1,1 -1,0 0,1 10,0 0,-2 1,-1 1,-1 1,0 1,-1 1,-1 1,0 1,-1 1,-1 1,0 1,-1 1,-1 1,0 1,-1 1,0 1,-1 1,0 1,-1 1,0 1,-1 1,0 1,-1 1,0 1,-1 1,0 1,-1 1,0 1,-1 1,0 1,-1 1,0 1,-1 1,-1 3,-3 1,0 1,-1 1,0 1,-1 1,0 1,-1 1,-1 1,0 1,-1 1,0 1,-1 1,0 0,-2 -1,-1 0,0 -1,-1 -1,-1 0,-1 -1,2 0,0 -1,1 -1,1 -1,1 -1,1 -1,0 -1,1 -1,0 -1,1 -1,1 -1,1 -1,1 -1,0 -1,1 -1,1 -1,0 -1,1 -1,0 -1,1 -1,0 -1,1 -1,0 -1,1 -1,0 -1,1 -1,0 -1,1 -1,0 -1,1 -1,0 -1,1 -1,0 -1,1 -1,0 -1,1 -1,0 -1,1 -1,1 -1,0 -1,1 -2,0 -3,3 -1,0 -1,1 -1,1 -1,1 -1,0 -1,1 -1,1Z"/>
<path onmouseover="hoverPath(evt)" onmouseout="recoverPath(evt)" fill="rgb(244,243,235)" d="M  78,161l 0,0 -1,1 -1,0 0,2 1,0 1,1 1,1 1,1 1,1 0,2 1,0 1,1 1,1 1,1 1,1 1,1 0,1 1,-1 1,0 1,-1 1,-1 1,0 1,-1 2,0 1,1 0,2 -1,1 -1,0 -1,1 -1,1 -1,0 -1,1 0,1 -1,1 1,1 2,0 1,1 0,1 1,0 1,1 1,1 1,1 1,1 0,2 1,0 1,1 1,1 1,1 1,1 0,1 1,1 0,1 1,0 2,2 1,1 1,1 0,2 1,0 1,1 1,1 1,1 1,1 0,2 1,0 1,1 1,1 1,0 1,-1 1,0 1,-1 1,0 1,-1 1,0 1,-1 1,0 0,-1 -1,-1 0,0 -1,-1 0,-1 -1,-1 -1,-1 -1,-1 -1,-1 0,-1 -1,-1 -1,-1 -1,-1 -1,-1 -1,-1 0,-1 -1,-1 -1,-1 -1,-1 -1,-1 -1,-1 -1,-1 0,-1 -1,-1 -1,-1 -2,-2 -1,-1 0,-1 -1,0 -1,-1 0,-1 -1,-1 -1,-1 0,-2 -2,0 -1,-1 0,-2 -1,0 -1,-1 -2,-2 -1,-1 -1,-1 -1,-1 0,-1 -1,-1 -1,-1 -1,-1 -1,-1 -1,-1 -1,-1 -1,1 -1,0 -1,1 -2,0 -1,-1 0,-2 1,-1 1,-1 1,0 1,-1 -1,-1 0,0 -1,-1 -1,-1 -1,-1 0,-1 -1,-1 -1,-1 -1,-1 -1,-1 -1,-1 0,-1 -1,-1 -1,-1 -1,-1 -1,-1 -1,-1 0,-1 -1,1 -1,0 -1,1 -1,0 -1,1 -1,0 -1,1 -1,0 -1,1 -1,0 1,1 0,0 1,1 0,2 1,0 1,1 1,1 1,1 1,1 1,1 0,2 1,0 1,1 1,1 1,1 1,1 0,1 1,1 1,1 1,-1 1,-1 1,0 2,-1Z"/>
<path onmouseover="hoverPath(evt)" onmouseout="recoverPath(evt)" fill="rgb(250,250,247)" d="M  102,169l -2,0 -1,1 0,1 5,0 1,-1 0,0 1,-1 1,0 1,-1 0,-2 3,-3 1,0 2,-2 4,0 1,-1 0,-2 1,-1 1,-1 1,-1 1,0 1,-1 1,-1 4,0 1,-1 0,-2 1,-1 2,-2 4,0 1,1 1,1 0,4 1,1 2,0 1,1 1,1 1,1 0,1 1,1 1,1 0,4 1,1 2,0 3,3 0,1 1,1 1,1 1,1 0,1 1,1 1,1 0,4 1,1 2,0 1,1 1,1 0,1 1,1 1,1 1,1 0,2 1,0 1,1 1,1 0,1 1,1 0,1 1,1 0,1 1,0 1,1 1,1 1,1 0,1 1,1 1,1 0,2 1,0 1,1 1,1 0,1 1,1 0,3 2,0 1,1 1,1 1,1 1,1 1,1 0,2 1,0 1,1 1,1 1,1 0,4 1,1 1,1 0,1 1,1 2,0 1,1 1,1 1,1 1,1 0,1 1,1 1,1 0,1 1,1 1,1 1,1 1,1 0,1 1,1 1,1 1,1 0,1 1,1 1,1 1,1 0,1 1,1 1,1 1,1 0,3 2,0 0,-5 -1,-1 -1,0 -1,-1 0,-2 -1,-1 -1,0 -1,-1 0,-2 -1,-1 -1,0 -1,-1 0,-2 -1,-1 -1,0 -1,-1 0,-2 -1,-1 -1,0 -1,-1 -1,0 -1,-1 -1,-1 0,-4 1,-1 1,0 1,-1 1,-1 1,0 1,-1 1,-1 1,0 1,-1 1,-1 1,0 1,-1 1,-1 2,0 0,-2 -2,0 -1,-1 -1,1 0,2 -1,1 -1,1 -1,0 -1,1 -1,1 -1,0 -1,1 -1,1 -1,0 -1,1 -1,1 -3,0 -1,-1 -1,-1 0,-2 -1,0 -1,-1 -1,-1 -1,-1 0,-2 -1,0 -1,-1 -1,-1 -1,-1 0,-2 -1,0 -1,-1 -1,-1 -1,-1 0,-2 -1,0 -1,-1 -1,-1 0,-2 -1,0 -1,-1 -1,-1 0,-1 -1,-1 -1,-1 0,-1 -1,-1 -1,-1 0,-1 -1,-1 0,-1 -1,0 -1,-1 -1,-1 0,-4 -1,-1 -1,0 -1,-1 0,-2 -1,-1 -2,0 -1,-1 -1,-1 -1,-1 0,-1 -1,-1 -1,-1 0,-4 -1,-1 -2,0 -1,-1 -1,-1 0,-1 -1,-1 -1,-1 -1,-1 0,-2 -1,0 -1,-1 -1,-1 0,-4 -1,-1 -2,0 -1,-1 -1,-1 -1,-1 0,-1 -1,-1 -1,-1 0,-4 1,-1 1,-1 1,-1 2,0 1,1 0,-2 1,-1 1,-1 1,0 1,-1 1,-1 1,0 1,-1 1,0 1,-1 1,-1 1,0 1,-1 1,-1 1,0 1,-1 1,-1 1,0 1,-1 1,0 1,-1 1,-1 1,0 1,-1 1,-1 1,0 1,-1 1,0 1,-1 1,-1 1,0 1,-1 1,-1 1,0 2,-2 1,0 1,-1 1,0 1,-1 1,-1 1,0 1,-1 1,-1 1,0 1,-1 1,0 1,-1 1,-1 1,0 -1,-1 0,0 -1,1 -1,0 -1,1 -1,0 -1,1 -1,1 -1,0 -1,1 -1,1 -1,0 -1,1 -1,1 -1,0 -1,1 -1,0 -1,1 -1,1 -1,0 -2,2 -1,0 -1,1 -1,0 -1,1 -1,1 -1,0 -1,1 -1,1 -1,0 -1,1 -1,1 -1,0 -1,1 -1,0 -1,1 -1,1 -1,0 -1,1 -1,1 -2,0 -1,-1 0,2 -1,1 -1,1 -1,0 -1,1 -1,1 -2,0 -1,-1 -1,1 0,0 -1,1 -1,0 0,2 -1,1 -1,1 -2,0 -1,-1 -1,-1 -1,-1 -1,-1 -1,-1 0,-2 -1,0 -1,-1 -1,-1 -1,-1 0,-2 -1,0 -1,-1 -1,-1 0,-2 -1,0 -1,-1 -1,-1 -1,-1 0,-4 -1,-1 -2,0 -1,-1 -1,-1 -1,-1 -1,-1 0,-1 -1,-1 -1,-1 -1,0 0,1 -1,1 2,0 1,1 1,1 1,1 0,2 1,0 1,1 1,1 1,1 0,1 1,1 1,1 1,1 0,4 1,1 1,0 1,1 1,0 1,1 1,1 1,1 0,1 1,1 1,1 1,1 1,1 0,1 1,1 1,1 0,2 -1,1 -1,1 -1,1 -1,0 -1,1 -1,1 -1,1 -2,0 -1,-1 -1,1 0,1 -1,1 -2,0 -1,1 0,2 -1,1 -2,2 -1,0 -1,1 -1,1 -4,0 -1,1 0,2 -1,1 -1,1 -2,0 0,1 -1,1 -1,1Z"/>
<path onmouseover="hoverPath(evt)" onmouseout="recoverPath(evt)" fill="rgb(247,202,117)" d="M  113,0l -13,0 0,1 1,1 3,0 1,1 2,0 1,1 1,1 0,1 1,1 1,0 1,1 0,2 -1,1 -1,0 0,1 1,1 1,1 0,4 6,0 1,1 1,1 1,1 1,1 0,1 1,0 1,1 2,0 1,1 1,1 1,0 2,2 0,4 2,0 1,1 1,1 1,1 1,0 1,1 1,1 1,1 1,1 0,2 1,0 1,1 1,1 1,1 0,2 1,0 1,1 1,1 1,1 0,2 1,0 1,1 2,2 0,2 1,0 1,1 2,2 0,2 1,0 1,1 1,1 1,1 0,2 1,0 1,1 0,1 1,1 1,1 1,1 1,1 0,1 2,2 1,0 1,1 0,4 1,1 2,0 1,1 1,1 1,0 2,2 0,4 1,1 2,0 1,1 1,1 1,0 1,1 1,1 0,4 2,0 1,1 1,1 1,0 2,2 1,1 0,4 3,0 1,1 1,1 1,1 1,1 0,3 1,1 0,1 1,1 1,1 2,0 1,1 1,1 1,1 1,0 1,1 1,1 1,1 0,4 1,1 2,0 1,1 1,1 1,1 1,0 1,1 1,1 1,1 1,1 0,1 1,1 1,1 1,1 0,1 1,1 1,1 1,1 1,0 1,1 1,1 1,1 1,1 0,4 1,1 1,1 3,0 1,1 1,1 1,1 1,1 1,1 1,1 1,1 1,1 1,1 1,1 1,1 1,1 1,1 1,0 0,-11 -2,0 -1,-1 -1,-1 -1,-1 -1,-1 -1,0 -1,-1 -2,-2 -1,-1 -1,-1 -1,-1 -1,-1 -1,-1 0,-4 -1,-1 -1,-1 -1,-1 -2,0 -1,-1 0,-1 -2,0 -1,-1 -1,-1 -1,-1 -1,-1 -1,-1 -1,-1 0,-4 -1,-1 -1,-1 -2,0 -1,-1 -1,-1 -1,-1 -1,0 -1,-1 -1,-1 -1,-1 0,-4 -1,-1 -2,0 -1,-1 -1,-1 -1,-1 -1,0 -1,-1 -1,-1 -1,-1 -1,-1 0,-2 -1,-1 -1,-1 -1,-1 -1,-1 -1,0 -1,-1 -1,-1 -1,-1 0,-4 -1,-1 -2,0 -1,-1 -1,-1 -1,-1 0,-2 -1,-1 -1,-1 0,-1 -1,-1 -2,0 -1,-1 -1,-1 -1,0 -1,-1 -1,-1 -1,-1 0,-4 -1,-1 0,-1 -1,-1 -1,1 -2,0 -1,-1 -1,-1 0,-2 -1,0 -1,-1 0,-1 -1,0 -1,-1 -1,-1 -1,-1 -1,-1 0,-2 -1,-1 0,-2 -1,-1 0,-1 -2,0 -1,-1 0,-2 -1,-1 0,-1 -2,0 -1,-1 0,-2 -1,-1 0,-1 -2,0 -1,-1 0,-2 -1,-1 0,-1 -2,0 -1,-1 0,-2 -1,-1 0,-1 -2,0 -1,-1 -1,-1 -1,-1 0,-2 -1,-1 0,-1 -1,-1 -2,0 -1,-1 -1,0 -1,-1 0,-3 -1,-1 0,-1 -1,-1 -1,0 -1,-1 0,-3 -1,0 -1,-1 0,-1 -1,-1 -2,0 -1,-1 0,-3 1,-1 1,0 1,-1 1,0 1,-1 1,0 1,-1 1,0 1,-1 1,0 1,-1 1,0 0,-1Z"/>
<path onmouseover="hoverPath(evt)" onmouseout="recoverPath(evt)" fill="rgb(244,243,236)" d="M  129,9l 0,0 1,1 1,1 0,1 1,0 1,1 0,3 1,0 1,1 1,1 0,1 1,1 0,3 1,0 1,1 2,0 1,1 1,1 0,1 1,1 0,2 1,1 1,1 2,0 1,1 0,1 1,1 0,2 2,0 1,1 0,1 1,1 0,2 2,0 1,1 0,1 1,1 0,2 2,0 1,1 0,1 1,1 0,2 2,0 1,1 0,1 1,1 0,2 1,1 0,2 1,1 1,1 1,1 0,-2 1,-1 1,-1 1,-1 1,-1 2,0 0,-1 1,-1 1,-1 1,0 1,-1 1,-1 1,-1 1,-1 1,0 1,-1 1,-1 1,-1 1,0 1,-1 1,-1 1,-1 1,-1 2,0 0,-1 3,-3 1,-1 1,0 1,-1 1,0 0,-1 1,-1 1,-1 1,-1 1,0 1,-1 1,0 0,-1 2,-2 1,-1 1,-1 1,-1 1,-1 1,-1 1,-1 1,0 -1,-1 0,0 -1,-1 0,-1 -1,-1 -1,-1 -1,-1 -1,-1 -1,-1 0,-1 -1,-1 -1,-1 -3,-3 0,-1 -1,-1 -1,-1 -2,-2 0,-1 -1,-1 -1,-1 0,-1 -59,0 0,2 -1,1 -1,0 -1,1 -1,0 -1,1 -1,0 -1,1 -1,0 -1,1 -1,0 -1,1 1,1Z"/>
<path onmouseover="hoverPath(evt)" onmouseout="recoverPath(evt)" fill="rgb(244,242,235)" d="M  144,144l 0,0 -1,-1 -2,2 0,2 1,1 0,0 1,1 0,1 1,1 1,1 2,0 1,1 1,1 0,4 1,1 1,0 1,1 0,2 1,1 1,1 1,1 0,1 1,1 2,0 1,1 1,1 0,4 1,1 1,1 0,1 1,1 1,1 2,0 1,1 1,1 0,2 1,0 1,1 1,1 0,4 1,1 1,-1 2,0 1,-1 1,0 1,-1 2,-2 1,-1 0,-1 1,-1 1,0 2,-2 1,-1 1,-1 1,-1 1,-1 0,-1 1,-1 2,-2 1,-1 1,-1 0,-2 1,-1 0,-2 1,-1 1,-1 1,-1 1,-1 1,-1 0,-1 1,-1 1,0 1,-1 1,-1 1,0 1,-1 1,-1 1,-1 1,-1 1,-1 1,-1 1,-1 1,-1 1,-1 1,-1 1,-1 0,-1 1,-1 1,-1 1,-1 1,-1 1,-1 1,0 1,-1 -1,-1 0,0 -1,-1 -1,-1 -1,0 -1,-1 -1,-1 -1,-1 -2,0 -1,-1 -1,-1 0,-4 -1,-1 -1,-1 -1,0 -1,-1 -1,-1 -1,-1 -2,0 -1,-1 -1,-1 -1,-1 0,-1 -1,-1 0,-3 -1,-1 -1,-1 -1,-1 -1,0 0,1 -1,1 -1,0 -1,1 -1,1 -1,0 -1,1 -1,0 -1,1 -1,1 -1,0 -1,1 -1,1 -1,0 -1,1 -1,0 -2,2 -1,0 -1,1 -1,1 -1,0 -1,1 -1,1 -1,0 -1,1 -1,0 -2,2 -1,0 -1,1 -1,1 -1,0 -1,1 -1,0 -1,1 -1,1 -1,0 -1,1 -1,1 -1,0 -1,1 -1,1 -1,0 -1,1 -1,0 -1,1 -1,1 -1,0 -1,1 0,2 -1,1Z"/>
<path onmouseover="hoverPath(evt)" onmouseout="recoverPath(evt)" fill="rgb(172,197,234)" d="M  201,1l 1,1 0,1 2,2 1,1 1,1 0,1 1,1 2,2 1,1 1,1 0,1 1,1 2,2 1,1 1,1 0,1 1,1 1,1 0,1 1,-1 0,0 1,-1 1,-1 1,-1 2,-2 0,-1 -1,-1 0,0 -1,-1 -1,-1 -1,-1 -1,-1 0,-1 -1,-1 -1,-1 -1,-1 -1,-1 -1,-1 -1,-1 0,-1 -1,-1 0,-2 -10,0 -1,1Z"/>
<path onmouseover="hoverPath(evt)" onmouseout="recoverPath(evt)" fill="rgb(244,243,236)" d="M  214,1l 0,0 1,1 0,1 1,1 1,1 1,1 1,1 1,1 1,1 0,1 1,1 1,1 1,1 1,1 1,0 0,-1 1,-1 1,-1 1,-1 1,-1 1,-1 1,-1 1,-1 1,-1 1,-1 1,-1 1,-1 1,-1 0,-1 -23,0 -1,1Z"/>
<path onmouseover="hoverPath(evt)" onmouseout="recoverPath(evt)" fill="rgb(171,198,238)" d="M  253,101l -1,1 -1,1 -1,1 0,1 -1,1 -1,1 -1,1 -1,1 -1,1 0,1 -1,1 -1,1 0,1 -1,1 -1,1 -1,1 0,1 -1,1 -1,1 -1,1 -1,1 0,1 -1,1 -1,1 -1,1 -1,1 0,2 1,1 1,1 1,0 0,-1 1,-1 3,-3 1,-1 0,-1 1,-1 1,-1 1,-1 0,-1 1,-1 0,-1 1,-1 0,-1 1,-1 1,-1 0,-1 1,-1 1,-1 1,-1 0,-1 1,-1 1,-1 3,0 0,-7 -1,0 -1,1Z"/>
<path onmouseover="hoverPath(evt)" onmouseout="recoverPath(evt)" fill="rgb(244,243,235)" d="M  21,255l 32,0 0,-2 1,-1 1,0 1,-1 1,-1 1,-1 1,0 1,-1 1,-1 1,-1 1,0 1,-1 1,-1 1,-1 2,0 1,-1 1,0 1,-1 1,-1 1,0 1,-1 1,0 1,-1 1,0 1,-1 1,0 1,-1 1,0 1,-1 1,0 1,-1 1,0 1,-1 1,0 1,-1 1,0 1,-1 1,0 1,-1 1,0 1,-1 1,-1 1,0 4,-4 1,0 1,-1 1,0 1,-1 2,-2 1,-1 0,-1 -1,0 -1,-1 -1,-1 -1,-1 -1,-1 0,-2 -1,0 -1,-1 -1,-1 -1,-1 -1,-1 -1,-1 0,-2 -1,0 -1,-1 -1,-1 -1,-1 -1,-1 0,-2 -1,0 -1,-1 -2,-2 -1,-1 0,-2 -1,0 -1,-1 -2,-2 -1,-1 0,-1 -1,-1 -1,0 -1,-1 0,-1 -1,0 -1,1 0,0 -1,1 -1,0 -1,1 -1,0 -1,1 -1,0 -1,1 -1,0 -1,1 -1,0 -1,1 -1,1 -1,0 -1,1 -1,0 -1,1 -1,0 -1,1 -1,0 -1,1 -1,0 -1,1 -1,0 -1,1 -1,0 -1,1 -1,0 -1,1 -1,0 -1,1 -1,0 -1,1 -1,0 -1,1 -1,0 -1,1 -1,0 -1,1 -1,0 -1,1 -1,0 -1,1 -1,0 -1,1 -1,0 -1,1 -2,0 -1,1 -1,0 -1,1 -1,0 -1,1 -1,0 -1,1 -1,0 -1,1 -1,0 -1,1 -1,0 -1,1 0,2 1,1 0,2 -1,1 -2,0 -1,-1 -1,-1 0,-1 -1,-1 -1,-1 0,-1 -1,-1 -1,-1 0,-1 -1,-1 0,-1 -1,-1 0,-1 -1,1 -1,1 -3,0 0,43Z"/>
<path onmouseover="hoverPath(evt)" onmouseout="recoverPath(evt)" fill="rgb(242,240,233)" d="M  43,96l 0,1 1,1 0,1 1,1 1,1 0,2 1,0 1,1 1,1 0,1 1,1 1,1 1,1 1,1 1,1 1,1 0,1 1,1 1,1 1,1 1,1 1,1 0,1 1,1 1,1 1,1 1,1 1,-1 1,0 1,-1 1,0 1,-1 1,0 1,-1 1,0 1,-1 1,-1 1,0 1,-1 1,0 1,-1 1,0 1,-1 1,0 1,-1 1,-1 1,0 1,-1 1,0 1,-1 1,0 1,-1 1,0 1,-1 1,0 1,-1 1,-1 1,0 1,-1 1,0 1,-1 1,0 1,-1 1,-1 1,0 1,-1 1,0 1,-1 1,0 1,-1 1,0 1,-1 1,0 1,-1 1,0 2,-2 1,0 1,-1 1,0 1,-1 1,0 1,-1 1,0 1,-1 1,-1 1,0 1,-1 1,0 1,-1 1,0 1,-1 1,-1 1,0 1,-1 1,0 1,-1 1,0 1,-1 1,0 1,-1 1,-1 1,0 1,-1 1,0 1,-1 1,-1 1,0 1,-1 1,-1 1,0 1,-1 1,-1 1,0 2,-2 1,0 1,-1 1,-1 1,0 1,-1 1,-1 2,0 -2,-1 0,-2 -1,-1 -1,-1 -1,0 -1,-1 0,-2 -1,-1 -1,-1 -1,0 -1,-1 0,-2 -1,-1 -1,-1 -1,0 -1,-1 0,-2 -1,-1 -1,-1 -1,0 -1,-1 0,-2 -1,-1 -1,-1 -1,0 -1,-1 0,-2 -1,-1 -1,-1 -1,-1 -1,0 -1,-1 -1,-1 -1,-1 -2,0 -1,-1 0,-4 -1,-1 -1,0 -2,-2 -2,0 -1,-1 -1,0 -1,-1 0,-1 -1,-1 -1,-1 -1,-1 -6,0 -1,-1 0,-4 -1,-1 -1,-1 0,-3 1,-1 1,0 -2,-1 0,0 -1,-1 0,-1 -1,-1 -2,0 -1,-1 -3,0 -1,-1 -1,-1 0,-2 -3,0 0,2 -1,1 -1,1 -1,0 -1,1 0,1 -1,1 -2,0 -1,1 -1,1 -1,0 -1,1 0,1 -1,1 -2,0 -1,1 -1,1 -1,0 -1,1 -1,1 -1,0 -1,1 0,1 -1,1 -2,0 -1,1 -1,1 -1,0 -1,1 0,1 -1,1 -2,0 -1,1 -1,1 -1,0 -1,1 -1,1 -1,0 -1,1 -2,2 -1,0 -1,1 -1,1 -1,0 -1,1 0,1 -1,1 -2,0 -1,1 -1,1 -1,0 -1,1 -1,1 -1,0 -1,1 -1,1 -1,1 -1,0 -1,1 -1,1 -1,1 -1,0 -1,1 0,1 -1,1 -2,0 -1,1 -1,1 -1,0 -1,1 -1,1 -1,1 -1,0 -1,1 -1,1 -1,1 -1,0 -1,1 -1,1 -1,0 -1,1 -1,1 -1,0 1,1 0,0 1,1 0,1 1,1 1,1 1,1 1,1 1,1 1,1 0,1 1,1 1,1 1,1 1,1 1,1 0,1 4,4 1,1 0,1 1,1 1,1 0,1 1,0 1,1 0,1 3,0 1,1 0,1 1,1 0,4 3,0 1,1Z"/>
<path onmouseover="hoverPath(evt)" onmouseout="recoverPath(evt)" fill="rgb(244,243,236)" d="M  67,254l 0,1 69,0 0,-1 -1,-1 0,0 -1,-1 -1,-1 0,-1 -1,-1 -1,-1 -1,1 -1,0 -1,1 -2,0 -1,-1 0,-2 1,-1 1,0 2,-2 0,-1 -2,0 -1,-1 -1,-1 -1,-1 -1,-1 0,-2 -1,0 -1,-1 -1,-1 -1,-1 -1,-1 0,-2 -1,0 -1,-1 -1,-1 -1,-1 -1,-1 -1,0 -1,1 -1,0 -1,1 -1,0 -1,1 -1,1 -1,0 -1,1 -1,0 -1,1 -1,0 -1,1 -1,1 -1,1 -1,1 -1,1 -1,0 -1,1 -1,0 -1,1 -1,0 -1,1 -1,0 -1,1 -1,0 -1,1 -1,0 -1,1 -1,0 -1,1 -1,0 -1,1 -1,0 -1,1 -1,0 -1,1 -1,1 -1,0 -1,1 -1,1 -1,0 -1,1 -1,1 -1,0 -1,1Z"/>
<path onmouseover="hoverPath(evt)" onmouseout="recoverPath(evt)" fill="rgb(171,198,236)" d="M  75,142l 0,0 1,1 1,1 1,1 1,1 1,1 0,1 1,1 1,1 1,1 1,1 0,2 -1,1 -1,1 -1,0 -1,1 4,-2 1,0 1,1 1,1 1,1 1,1 1,1 1,1 1,1 0,1 1,1 1,1 1,1 1,1 1,1 1,0 0,-2 -1,-1 0,0 -1,-1 -1,-1 -1,-1 -1,-1 -1,-1 0,-1 -1,-1 -1,-1 -1,-1 -1,-1 -1,-1 -1,-1 -1,-1 0,-1 -1,-1 -1,-1 -1,-1 -1,-1 0,-1 -1,-1 -1,-1 -1,-1 -1,-1 -1,-1 -1,1 0,-3 -1,-1 -1,-1 -1,-1 -1,-1 0,-1 -3,0 2,1 0,1 1,1 1,1 1,1 1,1 1,-1Z"/>
<path onmouseover="hoverPath(evt)" onmouseout="recoverPath(evt)" fill="rgb(244,243,235)" d="M  109,170l 0,0 -1,1 -1,0 -1,1 0,1 1,1 0,0 1,1 1,1 0,1 1,1 3,3 1,1 0,1 1,1 1,1 1,1 1,1 1,1 1,1 0,1 1,1 1,1 1,1 1,1 1,1 0,1 1,1 1,1 1,1 1,1 0,1 1,1 1,1 1,1 2,0 1,-1 1,0 1,-1 1,0 1,-1 2,0 1,-1 2,0 1,-1 2,0 1,-1 2,0 1,-1 2,0 1,-1 2,0 1,-1 1,0 1,-1 2,0 1,-1 1,0 1,-1 1,-1 2,0 -1,-1 -1,0 -1,-1 0,-2 -1,-1 -1,-1 -1,-1 0,-1 -1,-1 -2,0 -1,-1 -1,-1 0,-4 -1,-1 -1,-1 0,-1 -1,-1 -1,-1 -1,-1 0,-1 -1,-1 -1,-1 -2,0 -1,-1 -1,-1 0,-4 -1,-1 -1,-1 0,-1 -1,-1 -1,-1 -2,0 -1,-1 -1,-1 0,-4 -1,-1 -2,0 -1,1 0,0 -1,1 0,2 -1,1 -1,1 -4,0 -1,1 -1,1 -1,0 -1,1 -1,1 0,2 -1,1 -1,1 -4,0 -1,1 -1,1 -1,0 -1,1 -1,1 0,2 -1,1Z"/>
<path onmouseover="hoverPath(evt)" onmouseout="recoverPath(evt)" fill="rgb(244,242,234)" d="M  116,110l 0,0 -1,1 -2,0 1,1 0,0 1,1 0,1 1,1 1,1 1,1 2,0 1,1 1,1 0,4 1,1 1,1 1,0 1,1 0,2 1,1 1,0 1,1 0,2 1,1 1,1 1,0 1,1 0,2 1,1 1,1 1,1 1,1 1,-1 0,-2 1,-1 1,0 2,-2 2,0 1,1 1,-1 0,0 1,-1 1,0 1,-1 0,-2 1,-1 2,0 1,1 1,-1 1,-1 1,0 1,-1 1,-1 1,0 1,-1 1,0 1,-1 1,-1 1,0 1,-1 1,-1 1,0 1,-1 1,-1 1,0 1,-1 1,0 1,-1 1,-1 1,0 1,-1 1,-1 1,0 1,-1 1,0 1,-1 1,-1 1,0 1,-1 1,-1 1,0 1,-1 1,-1 1,0 1,-1 1,0 1,-1 1,0 0,-2 -1,-1 0,0 -1,-1 -1,0 -1,-1 -1,-1 -2,0 -1,-1 0,-4 -1,-1 -1,0 -1,-1 -1,-1 -2,0 -1,-1 -1,-1 0,-4 -1,-1 -1,0 -1,-1 -1,-1 -2,0 -1,-1 -1,-1 0,-4 -1,1 0,1 -1,1 -1,0 -1,1 -1,1 -1,0 -1,1 -1,1 -1,0 -1,1 -1,0 -1,1 -1,1 -1,0 -1,1 -1,1 -1,0 -1,1 -1,0 -1,1 -1,1 -1,0 -1,1 -1,0 -1,1 -1,0 -2,2 -1,0 -1,1 -1,0 -1,1 -1,1 -1,0 -1,1 -1,0 -1,1 -1,0 -1,1 -1,1 -1,0 -1,1 -1,0 -1,1 -1,0 -2,2 -1,0 -1,1 -1,0 -1,1 -1,0 -1,1Z"/>
<path onmouseover="hoverPath(evt)" onmouseout="recoverPath(evt)" fill="rgb(248,233,127)" d="M  173,61l 0,0 -1,1 0,3 1,0 1,1 0,2 1,1 1,-1 2,0 1,1 1,-1 1,-1 1,0 1,-1 1,-1 1,-1 1,-1 1,0 1,-1 1,-1 1,-1 1,-1 1,0 1,-1 1,-1 1,-1 1,-1 1,0 1,-1 1,-1 1,-1 1,-1 1,0 1,-1 1,-1 1,-1 1,-1 1,0 1,-1 1,-1 1,-1 1,-1 0,-1 1,-1 1,0 1,-1 1,-1 1,0 1,-1 1,-1 1,-1 1,-1 0,-1 1,-1 1,0 1,-1 1,0 0,-2 1,-1 1,-1 1,-1 1,-1 1,-1 1,-1 2,0 4,-4 1,-1 9,-9 1,-1 1,-1 0,-1 1,-1 1,0 1,-1 1,-1 1,-1 2,0 0,-3 -15,0 0,2 -1,1 -1,1 -1,1 -1,1 -1,1 -1,1 -1,1 -1,1 -1,1 -1,1 -1,1 -1,1 0,1 -1,1 -1,0 0,2 -1,1 -1,1 -1,1 -1,1 -1,1 -1,1 -1,1 -3,0 -1,1 -1,1 -1,1 -1,1 -1,1 -1,1 -1,1 0,1 -1,1 -1,0 -1,1 -1,0 -1,1 -1,1 0,1 -1,1 -1,0 -1,1 -1,0 -1,1 -1,1 -1,1 0,1 -1,1 -2,0 -1,1 -1,1 -1,1 -1,1 -1,0 -1,1 -1,1 -1,1 -1,0 -1,1 -1,1 -1,1 -1,1 -1,0 -1,1 0,1 -1,1 -2,0 -1,1 -1,1Z"/>
<path onmouseover="hoverPath(evt)" onmouseout="recoverPath(evt)" fill="rgb(244,242,234)" d="M  180,194l 0,0 -1,1 -1,0 -1,1 1,1 0,0 1,1 0,1 1,1 1,0 1,1 0,2 1,1 1,0 1,1 0,2 1,1 1,1 1,0 1,1 0,2 1,1 1,1 1,0 1,1 0,2 1,1 1,1 1,0 1,1 0,2 1,1 1,0 1,-1 0,0 1,-1 1,0 1,-1 1,-1 1,0 1,-1 1,-1 1,0 1,-1 0,-2 1,-1 1,-1 2,0 1,1 1,0 0,-2 1,-1 2,0 0,-1 1,-1 2,0 1,-1 1,-1 1,0 1,-1 1,-1 1,0 1,-1 1,-1 1,0 2,-2 1,0 1,-1 0,-1 1,-1 2,0 1,-1 1,-1 1,0 1,-1 1,-1 1,0 1,-1 1,-1 1,0 1,-1 1,-1 1,0 1,-1 0,-1 1,-1 0,-1 1,-1 3,0 0,-15 -2,0 -1,-1 -1,-1 -1,-1 -1,-1 -1,-1 -1,-1 -1,-1 -1,-1 -1,-1 -1,-1 -1,-1 -1,-1 -1,-1 -3,0 -1,-1 -1,-1 -1,-1 0,-4 -1,-1 -1,-1 -1,-1 -1,0 -1,-1 -1,-1 -1,-1 0,1 -1,1 -1,1 -1,1 -2,2 -1,1 -1,1 0,1 -1,1 -9,9 -1,1 0,1 -1,1 -2,2 -1,1 -2,2 -1,1 0,1 -1,1 -1,1 -4,4 0,1 -5,5 -1,1 -4,4 -1,1 -2,2 -1,1 -1,0 -1,1Z"/>
<path onmouseover="hoverPath(evt)" onmouseout="recoverPath(evt)" fill="rgb(243,241,233)" d="M  252,110l 0,1 -1,1 -2,2 0,1 -2,2 0,1 -1,1 0,1 -1,1 0,1 -1,1 -1,1 -1,1 0,1 -1,1 -1,1 -1,1 -1,1 -1,1 0,1 -1,1 0,2 2,0 1,1 1,1 1,1 1,1 0,4 1,1 1,1 1,1 1,1 1,1 1,1 1,1 1,0 1,1 1,1 1,1 1,1 1,0 0,-45 -2,0 -1,1Z"/>
<path onmouseover="hoverPath(evt)" onmouseout="recoverPath(evt)" fill="rgb(251,251,248)" d="M  253,186l 0,1 -1,1 0,1 -1,1 -1,1 1,0 1,-1 3,0 0,-4 -2,0 -3,7 -1,0 -1,-1 0,0 -1,1 -1,0 -1,1 -1,1 -1,0 -1,1 -1,1 -1,0 -2,2 -2,0 0,1 -1,1 -1,1 -1,0 -1,1 -1,1 -1,0 -2,2 -1,0 -1,1 -1,1 -1,0 -1,1 -1,1 -2,0 0,1 -1,1 -2,0 0,2 2,0 1,1 1,-1 0,-2 1,-1 1,-1 1,0 2,-2 1,0 1,-1 1,-1 4,0 0,-1 1,-1 2,0 1,-1 0,-2 1,-1 1,-1 1,0 1,-1 1,-1 1,0 1,-1 1,-1 1,0 1,-1 1,-1 -2,1 -3,2 -3,2 10,-5 3,-7Z"/>
<path onmouseover="hoverPath(evt)" onmouseout="recoverPath(evt)" fill="rgb(251,251,248)" d="M  3,63l 0,0 -1,1 1,0 1,-1 1,0 1,-1 1,0 1,-1 1,-1 1,0 1,-1 1,0 1,-1 1,-1 1,0 1,-1 1,-1 1,0 1,-1 1,-1 1,-1 1,0 1,-1 1,-1 1,-1 1,0 1,-1 1,-1 2,0 0,-1 2,-2 1,0 1,-1 1,-1 1,-1 1,0 1,-1 1,-1 1,-1 1,0 2,-2 1,0 1,-1 1,-1 2,0 0,-1 1,-1 1,-1 1,0 1,-1 1,-1 1,0 1,-1 1,-1 1,-1 1,0 1,-1 1,-1 1,0 1,-1 1,-1 2,0 0,-1 1,-1 1,-1 1,0 1,-1 1,-1 2,0 0,-1 1,-1 1,-1 1,0 1,-1 1,-1 1,0 1,-1 1,-1 2,0 0,-1 2,-2 1,0 1,-1 1,-1 2,0 0,-1 1,-1 1,-1 1,0 1,-1 0,-1 -3,0 0,2 -1,1 -1,0 -1,1 -1,1 -1,0 -2,2 -4,0 -1,1 0,2 -1,1 -1,1 -4,0 -1,1 0,2 -1,1 -1,1 -1,0 -1,1 -1,1 -1,1 -1,0 -2,2 -1,0 -1,1 -1,1 -4,0 -1,1 0,2 -2,2 -4,0 -1,1 0,2 -1,1 -1,1 -1,0 -1,1 -1,1 -4,0 -1,1 0,2 -1,1 -1,1 -1,0 -1,1 -1,1 -1,1 -1,1 -1,0 -1,1 -1,1 -4,0 -1,1 0,1 -1,1 -2,0 -1,1 0,1 -1,1 -2,0 -1,1 0,2 -1,1 -2,0 -1,-1 0,2 -1,1 -2,0 -1,1 -1,0 0,1 -1,1 -1,1 -1,2 -1,-1 -1,0 0,2Z"/>
<path onmouseover="hoverPath(evt)" onmouseout="recoverPath(evt)" fill="rgb(233,235,234)" d="M  25,207l 2,0 1,1 1,0 1,-1 1,0 1,-1 1,0 1,-1 1,0 1,-1 1,0 1,-1 1,0 1,-1 1,0 1,-1 1,0 1,-1 1,0 1,-1 1,0 1,-1 1,0 1,-1 1,0 1,-1 1,0 1,-1 1,0 1,-1 1,0 1,-1 1,0 1,-1 1,0 1,-1 1,0 1,-1 0,-2 1,-1 1,0 1,-1 2,0 1,1 1,-1 1,0 1,-1 1,0 1,-1 0,-2 1,-1 0,-1 -1,-1 -2,0 -1,-1 -1,-1 -1,-1 -1,-1 0,-1 -1,-1 -1,-1 -1,0 -1,-1 -1,0 -3,3 -1,1 -1,1 -1,0 -1,1 0,1 -1,1 -2,0 -1,1 -1,1 -1,1 0,1 -1,1 0,1 -1,1 -1,0 0,1 -1,1 -1,1 -1,0 0,1 -1,1 -1,0 -1,1 -2,0 -1,1 -1,0 -1,1 -2,0 -1,1 -3,0 -1,1 -2,0 -1,1 -1,0 -1,1 -1,0 -1,1 -1,0 -1,1 -1,1 -3,0 -1,1 -1,0 -1,1 -2,0 -1,1 -1,0 -1,1 -1,0 -1,1 -2,0 -1,-1 0,2 -1,1 -3,0 0,2 2,0 1,-1 1,-1 2,0 1,1 0,1 1,1 0,1 1,1 0,1 1,1 1,1 0,1 1,1 1,1 0,1 1,1 -1,-3 0,-2 1,-1 0,-2 1,-1 1,0 1,-1 1,0 1,-1 1,0 1,-1 1,0 1,-1 1,0 1,-1Z"/>
<path onmouseover="hoverPath(evt)" onmouseout="recoverPath(evt)" fill="rgb(182,202,231)" d="M  42,103l 0,1 1,0 1,1 1,1 1,1 0,1 1,1 1,1 1,1 1,1 1,1 1,1 0,1 1,1 1,1 1,1 1,1 1,1 0,1 1,1 1,1 1,1 1,1 0,1 1,0 1,-1 1,0 -2,-1 0,0 -1,-1 -1,-1 -1,-1 -1,-1 0,-1 -1,-1 -1,-1 -1,-1 -1,-1 -1,-1 0,-1 -1,-1 -1,-1 -1,-1 -1,-1 -1,-1 -1,-1 0,-1 -1,-1 -1,0 -1,-1 0,-2 -1,-1 -1,-1 0,-1 -1,-1 0,-1 -3,0 -1,-1 0,-4 -1,-1 0,-1 -3,0 -1,-1 0,-1 -1,0 -1,-1 0,-1 -1,-1 -1,-1 0,-1 -1,-1 -3,-3 -1,-1 0,-1 -1,-1 -1,-1 -1,-1 -1,-1 -1,-1 0,-1 -1,-1 -1,-1 -1,-1 -1,-1 -1,-1 -1,-1 0,-1 -1,-1 -1,-1 -1,1 0,1 1,1 0,0 1,1 1,1 1,1 0,1 1,1 1,1 1,1 1,1 1,1 0,1 1,1 1,1 1,1 1,1 1,1 1,1 1,1 0,1 1,0 1,1 0,1 1,1 1,1 0,3 -1,1 -1,0 0,1 1,1 1,0 1,1 6,0 6,9 -5,-6 0,1 1,1 0,3 3,0 -4,-5 5,6Z"/>
<path onmouseover="hoverPath(evt)" onmouseout="recoverPath(evt)" fill="rgb(171,198,237)" d="M  106,179l 3,3 1,1 1,1 0,1 1,1 2,2 1,1 1,1 1,1 0,1 1,1 1,1 1,1 1,1 1,1 0,1 1,1 1,1 1,1 1,1 0,1 1,1 1,1 0,3 -1,1 -1,0 -1,1 -1,0 -1,1 -1,0 -1,1 -1,0 -1,1 -1,0 0,1 1,1 0,1 1,1 2,0 1,-1 1,-1 1,0 1,-1 2,0 1,-1 1,0 1,-1 2,0 1,1 1,1 1,1 1,1 1,1 1,1 1,1 0,1 1,1 1,1 1,1 1,1 0,1 1,1 1,1 1,1 1,1 1,1 1,0 0,-1 -1,-1 0,0 -1,-1 0,-1 -1,-1 -1,-1 -1,-1 0,-1 -1,-1 -1,-1 -1,-1 -1,-1 0,-1 -1,-1 -1,-1 -1,-1 0,-1 -1,0 -1,-1 0,-2 1,-1 1,0 1,-1 1,0 1,-1 2,0 1,-1 2,0 1,-1 1,0 2,-2 2,0 1,-1 2,0 1,-1 3,0 1,-1 2,0 1,-1 2,0 1,-1 1,0 1,-1 1,0 0,-2 -1,-1 0,-1 -2,0 -1,1 0,0 -1,1 -1,0 -1,1 -2,0 -1,1 -1,0 -1,1 -2,0 -1,1 -2,0 -1,1 -2,0 -1,1 -2,0 -1,1 -2,0 -1,1 -2,0 -1,1 -1,0 -1,1 -1,0 -1,1 -4,0 -1,-1 -1,-1 -1,-1 -1,-1 0,-1 -1,-1 -1,-1 -1,-1 -1,-1 0,-1 -1,-1 -1,-1 -1,-1 -1,-1 -1,-1 0,-1 -1,-1 -1,-1 -1,-1 -1,-1 -1,-1 -1,-1 0,-1 -1,-1 -2,-2 -1,-1 -1,-1 -1,1 0,-3 -1,-1 -1,-1 0,-1 -2,0 0,1 1,1 0,0 1,1 0,1 1,0 1,-1Z"/>
<path onmouseover="hoverPath(evt)" onmouseout="recoverPath(evt)" fill="rgb(243,242,234)" d="M  139,211l -1,0 2,1 0,1 1,1 1,1 1,1 0,1 1,1 1,1 1,1 1,1 0,1 1,1 1,1 1,1 0,1 1,1 1,1 0,2 1,0 1,-1 3,-3 1,0 1,-1 1,-1 1,-1 0,-1 1,-1 2,0 1,-1 1,-1 0,-1 1,-1 2,0 1,-1 1,-1 0,-1 1,-1 2,0 1,-1 1,-1 1,-1 1,-1 1,0 0,-1 -1,-1 0,-1 -1,-1 -1,0 -1,-1 0,-2 -1,-1 -1,-1 0,-1 -1,-1 -1,-1 0,1 -1,1 -1,0 -1,1 -1,0 -1,1 -2,0 -1,1 -2,0 -1,1 -3,0 -1,1 -2,0 -1,1 -2,0 -1,1 -1,1 -1,0 -1,1 -2,0 -1,1 -2,0 -1,1 -1,0 -1,1Z"/>
<path onmouseover="hoverPath(evt)" onmouseout="recoverPath(evt)" fill="rgb(244,242,234)" d="M  144,243l 0,0 1,1 0,1 1,1 0,1 1,0 1,1 1,1 1,1 0,1 1,1 1,1 0,2 14,0 0,-1 -1,-1 0,0 -1,-1 -1,-1 -1,-1 0,-1 -1,-1 -1,-1 -1,-1 -1,-1 -1,-1 0,-1 -1,-1 -1,-1 -1,-1 -1,-1 -1,-1 0,-2 -1,0 -1,1 -2,0 -1,-1 0,-2 1,-1 1,-1 -1,0 -1,-1 -1,-1 -1,-1 -1,-1 -2,-2 0,-1 -1,-1 -1,-1 -1,-1 -1,-1 0,-1 -1,-1 -1,-1 -1,-1 -1,-1 -1,-1 -1,-1 -1,1 -1,0 -1,1 -2,0 -1,1 -1,0 -1,1 -1,1 -2,0 1,1 1,1 1,1 2,0 1,1 1,1 1,1 1,1 0,2 1,0 1,1 1,1 1,1 1,1 0,2 1,0 1,1 1,1 1,0 1,1 0,1 2,0 1,1 0,2 -1,1 1,0 1,1Z"/>
<path onmouseover="hoverPath(evt)" onmouseout="recoverPath(evt)" fill="rgb(171,197,236)" d="M  174,191l 0,0 1,1 0,1 1,1 1,-1 1,0 1,-1 1,-1 1,0 1,-1 3,-3 1,-1 6,-6 1,-1 1,-1 0,-1 1,-1 1,-1 3,-3 1,-1 0,-1 1,-1 1,-1 3,-3 1,-1 1,-1 0,-1 1,-1 1,-1 3,-3 1,-1 1,-1 1,-1 1,-1 1,-1 1,-1 0,-1 1,-1 1,-1 1,-1 1,-1 1,-1 1,-1 1,-1 0,-1 1,-1 -1,-1 0,0 -1,-1 -1,1 -1,0 -1,1 -1,1 -1,1 -1,1 0,1 -1,1 -3,3 -1,1 -6,6 -1,1 -1,0 -1,1 -1,1 -1,0 0,1 -1,1 -1,1 -1,1 -1,1 -1,1 0,2 -1,1 0,2 -1,1 -1,1 -1,1 -1,1 -1,1 0,1 -1,1 -1,1 -1,1 -1,1 -1,1 -1,1 -1,1 -1,0 0,1 -1,1 -1,1 -1,1 -1,1 -1,1 -1,0 -1,1 -1,0 -1,1Z"/>
<path onmouseover="hoverPath(evt)" onmouseout="recoverPath(evt)" fill="rgb(243,243,235)" d="M  204,226l 0,0 -1,1 -1,0 0,2 1,1 1,0 1,1 1,0 1,1 1,1 0,2 1,0 1,1 1,1 0,2 1,0 1,1 1,1 0,2 1,0 1,1 1,1 0,2 1,0 1,1 1,1 0,6 35,0 0,-63 -2,0 -1,1 0,1 -1,1 -2,0 -1,1 -1,1 -1,0 -1,1 -1,1 -1,0 -1,1 -1,1 -1,0 -1,1 0,2 -2,2 -2,0 0,1 -1,1 -4,0 -1,1 -1,1 -1,0 -1,1 -1,1 -1,0 -1,1 0,2 -1,1 -1,1 -2,0 -1,-1 -1,0 0,2 -1,1 -2,0 -1,1 -1,1 -1,0 -2,2 -1,0 -1,1 -1,1 -1,0 -1,1Z"/>
<path onmouseover="hoverPath(evt)" onmouseout="recoverPath(evt)" fill="rgb(171,198,237)" d="M  230,27l 0,0 -1,1 -1,1 -1,1 -1,1 0,1 1,1 1,1 1,1 1,1 1,1 0,1 1,1 1,1 1,1 1,1 1,1 0,1 1,1 1,1 1,1 1,1 1,1 0,1 1,1 1,1 1,1 1,1 0,1 1,1 1,1 1,1 1,1 1,1 0,1 1,1 1,1 1,1 1,1 0,1 1,0 0,-14 -2,0 -1,-1 0,-1 -1,-1 -1,-1 -1,-1 -1,-1 0,-1 -1,-1 -1,-1 -1,-1 -1,-1 0,-1 -1,-1 -1,-1 -1,-1 -1,-1 0,-1 -1,-1 -1,-1 -1,-1 -1,-1 0,-1 -1,-1 -1,-1 -1,-1 -1,-1 -1,0 -1,1Z"/>
<path onmouseover="hoverPath(evt)" onmouseout="recoverPath(evt)" fill="rgb(245,244,237)" d="M  236,23l 0,0 -1,1 -1,1 1,1 1,1 1,1 1,1 0,1 1,1 1,1 1,1 1,1 0,1 2,2 1,1 1,1 0,1 1,1 2,2 1,1 0,1 1,1 1,1 1,1 1,1 0,1 1,0 0,-45 -1,0 -1,1 -1,1 -1,1 -1,0 0,1 -1,1 -1,1 -1,1 -1,1 -1,1 -1,1 -1,1 -1,1 -1,1 -1,1 -1,1 -1,1 -1,1 -1,1Z"/>
</svg>