<svg width="256" height="256" xmlns="http://www.w3.org/2000/svg"><script> 
var tempColor;
function hoverPath(evt){
obj = evt.target;
tempColor = obj.getAttribute("fill");
obj.setAttribute("fill","red");
//alert(tempColor);
//obj.setAttribute("stroke","red");}
function recoverPath(evt){
obj = evt.target;
obj.setAttribute("fill", tempColor);
//obj.setAttribute("stroke", tempColor);
}</script><path onmouseover="hoverPath(evt)" onmouseout="recoverPath(evt)" fill="rgb(248,236,139)" d="M  1,2l 0,-2 -1,0 0,8 2,0 1,1 1,1 0,2 1,1 1,1 1,0 1,1 1,0 1,1 0,1 1,1 1,0 1,1 0,1 2,0 1,1 1,1 2,0 1,1 0,1 1,1 1,1 1,0 1,1 1,0 1,1 0,5 1,-3 2,0 1,1 1,0 1,1 0,2 -1,1 1,1 2,0 1,-1 0,0 1,-1 3,0 1,1 1,0 1,1 1,0 1,1 6,0 1,1 1,0 1,1 0,1 3,0 1,1 2,0 1,1 6,0 1,1 6,0 1,1 21,0 1,-1 10,0 1,-1 11,0 1,-1 25,0 1,1 7,0 1,1 4,0 1,1 0,2 1,-1 0,0 1,-1 3,0 1,1 3,0 1,1 2,0 1,1 2,0 1,1 1,0 1,1 2,0 1,1 1,0 1,1 1,0 1,1 2,0 1,1 1,0 1,1 1,0 1,1 1,0 1,1 1,0 1,1 1,1 1,0 1,1 1,0 1,1 1,0 1,1 1,1 2,0 1,1 1,1 1,1 0,1 1,1 1,0 1,1 1,1 1,0 1,1 1,1 1,1 1,1 1,1 1,1 1,1 1,1 1,1 1,0 1,1 0,2 1,1 1,1 0,1 1,1 1,0 1,1 0,2 1,1 1,1 0,1 1,1 1,1 0,1 1,1 0,1 1,1 0,1 1,1 0,1 1,1 0,4 1,0 1,1 0,2 1,1 1,1 0,2 1,1 0,3 1,1 0,4 1,1 0,6 1,1 0,19 -1,1 0,7 -1,1 0,7 -1,1 0,7 -1,1 0,9 -1,1 0,13 1,1 0,6 1,1 0,3 1,1 0,3 1,1 0,2 1,1 0,1 1,1 0,2 1,1 0,1 1,1 0,1 1,1 0,1 1,1 0,1 1,1 1,1 0,1 1,1 0,3 1,-1 2,0 0,-15 -3,0 -1,-1 0,-3 1,-1 -1,-1 0,-3 -1,-1 0,-2 -1,-1 0,-5 -1,-1 0,-12 1,-1 1,-1 2,0 0,-5 -1,-1 0,0 -1,-1 -1,-1 0,-9 1,-1 0,-7 1,-1 0,-7 1,-1 0,-8 1,-1 2,0 0,-10 -2,0 -1,-1 0,-5 -1,-1 0,-5 -1,-1 0,-3 -1,-1 0,-4 -1,-1 0,-1 -1,-1 0,-3 -1,-1 0,-1 -1,-1 0,-1 -1,-1 0,-1 -1,-1 0,-1 -1,-1 0,-1 -1,-1 0,-1 -1,-1 0,-1 -1,-1 -1,-1 0,-1 -1,-1 0,-1 -1,-1 -1,-1 0,-1 -1,-1 -1,-1 0,-1 -1,-1 -1,-1 -1,-1 -1,-1 0,-1 -1,-1 -1,-1 -1,-1 -1,-1 -1,0 -1,-1 0,-1 -1,-1 -2,0 -1,-1 -1,-1 0,-2 -1,-1 -1,-1 0,-2 1,-1 1,-1 1,-1 3,-3 1,-1 1,-1 1,-1 0,-1 1,-1 1,0 0,-1 1,-1 1,0 2,-2 1,-1 0,-1 1,-1 1,0 1,-1 3,-3 1,-1 1,-1 0,-1 1,-1 2,0 1,-1 1,-1 1,-1 1,-1 1,-1 1,-1 1,-1 1,-1 1,-1 1,-1 2,0 0,-12 -1,0 -1,1 0,0 -1,1 -6,6 0,1 -1,1 -1,0 -1,1 -1,0 -3,3 -1,1 -1,1 -1,1 -1,1 -1,1 -1,1 -1,1 -1,1 -1,1 -1,1 -1,0 -1,1 -1,1 -1,1 -1,1 -1,1 -1,1 -1,1 -1,1 -1,1 -1,1 -1,1 -1,1 -1,1 -1,1 -1,1 -1,1 -1,1 -1,1 -1,0 -1,1 -2,0 -1,-1 -1,0 -1,-1 -1,-1 -1,0 -1,-1 -1,0 -1,-1 -1,0 -1,-1 -1,0 -1,-1 -1,0 -1,-1 -1,0 -1,-1 -1,0 -1,-1 -2,0 -1,-1 -1,0 -1,-1 -1,0 -1,-1 -2,0 -1,-1 -1,0 -1,-1 -2,0 -1,-1 -2,0 -1,-1 -3,0 -1,-1 -3,0 -1,-1 -2,0 -1,-1 -5,0 -1,-1 -6,0 -1,-1 -14,0 -1,1 -4,0 -1,-1 -6,0 -1,1 -11,0 -1,1 -11,0 -1,1 -21,0 -1,-1 -6,0 -1,-1 -4,0 -1,-1 -4,0 -1,-1 -2,0 -1,-1 -2,0 -1,-1 -2,0 -1,-1 -2,0 -1,-1 -2,0 -1,-1 -1,0 -1,-1 -1,0 -1,-1 -1,0 -1,-1 -1,0 -1,-1 -1,0 -1,-1 -1,-1 -2,0 -1,-1 0,-1 -1,-1 -1,0 -1,-1 -1,-1 -1,0 -1,-1 -1,-1 -2,0 -1,-1 0,-1 -1,-1 -2,0 -1,-1 0,-1 -1,-1 -1,-1 -2,0 -1,-1 0,-1 -1,-1 -1,-1 -1,1 -2,0 -1,-1 -1,-1Z"/>
<path onmouseover="hoverPath(evt)" onmouseout="recoverPath(evt)" fill="rgb(185,211,155)" d="M  9,25l 0,0 -1,-1 -1,0 -1,-1 -2,0 -1,-1 0,-1 -1,0 -1,-1 -1,0 0,172 2,0 1,1 1,1 1,1 0,1 1,1 3,3 0,1 1,1 1,1 1,1 0,1 1,1 1,1 1,1 1,1 0,1 1,1 1,1 1,1 1,1 0,1 1,1 1,1 1,1 1,1 0,1 1,1 1,1 1,1 1,1 0,1 1,1 1,1 1,1 1,1 1,1 3,3 1,1 1,1 0,1 1,1 1,1 1,1 1,1 1,1 1,1 1,1 1,1 1,1 2,2 1,1 1,1 1,1 1,1 1,1 1,1 0,2 105,0 0,-1 -1,-1 0,0 -1,-1 0,-1 -1,-1 0,-1 -1,-1 -1,-1 0,-1 -1,-1 0,-1 -1,-1 0,-1 -1,-1 0,-2 -1,-1 0,-2 -1,-1 0,-2 -1,-1 0,-3 -1,-1 0,-5 -1,-1 0,-6 -1,-1 0,-7 -1,-1 0,-1 -1,-1 0,-5 1,-1 1,-1 5,0 1,1 1,1 0,11 1,1 0,6 1,1 0,6 1,1 0,3 1,1 0,2 1,1 0,2 1,1 0,2 1,1 0,1 1,1 0,1 1,1 0,1 1,1 0,1 1,1 0,1 1,1 1,1 1,1 2,0 1,1 1,1 0,2 46,0 0,-2 1,-1 2,0 1,-1 2,0 1,-1 1,0 1,-1 3,0 1,-1 1,-1 0,-3 1,-1 0,-1 1,-1 1,0 1,-1 7,0 1,-1 1,0 1,-1 1,-1 1,-1 0,-1 -1,-1 0,0 -1,-1 0,-1 -1,-1 0,-1 -1,-1 0,-1 -1,-1 0,-1 -1,-1 0,-1 -1,-1 0,-1 -1,-1 0,-1 -1,-1 0,-1 -1,-1 -1,-1 0,-1 -1,-1 0,-1 -1,-1 0,-1 -1,-1 0,-26 1,-1 0,-23 1,-1 0,-44 -1,-1 0,-1 -1,-1 0,-1 -1,-1 0,-1 -4,0 -1,1 -3,0 -1,-1 -7,0 -1,1 -2,0 -1,1 -3,0 -1,1 -2,0 -1,1 -2,0 -1,1 -2,0 -1,1 -3,0 -1,1 -2,0 -1,1 -2,0 -1,1 -3,0 -1,1 -2,0 -1,-1 -3,0 -1,-1 -3,0 -1,-1 -3,0 -1,-1 -2,0 -1,-1 -1,0 -1,-1 -1,0 -1,-1 -1,0 -1,-1 -1,-1 0,-3 1,-1 3,0 1,1 1,1 1,0 1,1 2,0 1,1 2,0 1,1 3,0 1,1 2,0 1,1 5,0 1,-1 3,0 1,-1 2,0 1,-1 2,0 1,-1 2,0 1,-1 2,0 1,-1 3,0 1,-1 2,0 1,-1 2,0 1,-1 10,0 -1,-1 0,-1 -1,-1 0,-1 -7,0 -1,-1 -1,-1 -1,-1 0,-1 -1,-1 0,-1 -1,-1 0,-2 -1,-1 0,-5 1,-1 -1,-1 0,0 -1,-1 -1,-1 0,-1 -1,0 -1,-1 -1,-1 -1,-1 -1,-1 0,-1 -2,0 -1,-1 -1,-1 -1,-1 -1,0 -1,-1 -1,-1 -1,0 -1,-1 -1,-1 -1,0 -1,-1 -1,-1 -1,0 -1,-1 -1,-1 -1,0 -1,-1 -1,0 -1,-1 -1,0 -1,-1 -1,0 -1,-1 -1,0 -1,-1 -2,0 -1,-1 -4,0 -1,1 -1,0 -1,1 -1,0 -1,1 -1,1 -3,3 -3,0 -1,-1 0,-3 1,-1 1,-1 3,-3 2,0 0,-1 1,-1 2,0 0,-1 -3,0 -1,-1 -6,0 -1,1 -3,0 -1,-1 -14,0 -1,1 -2,0 -1,1 -2,0 -1,1 -1,0 -1,1 -2,0 0,1 -1,1 -1,0 -1,1 -1,0 -1,1 -1,0 -1,1 -2,0 -1,1 -2,0 -1,1 -4,0 -1,1 -20,0 -1,1 -13,0 -1,-1 -3,0 -1,-1 -2,0 -1,-1 0,-1 -2,0 -1,-1 -1,-1 -1,-1 -1,-1 0,-1 -1,-1 -1,-1 -1,-1 -1,0 -1,-1 -1,0 -1,-1 -1,0 -1,-1 -1,0 -1,-1 -1,0 -1,-1 -1,0 -1,-1 -1,0 -1,-1 0,-1 -1,0 -1,-1 -1,-1 -1,0 -1,-1 -1,0 -1,-1 -2,0 -1,-1 -2,0 -1,-1 -1,0 -1,-1 -1,0 -1,-1 -2,0 -1,-1 -1,0 -1,-1 0,1 -1,1 0,0 -1,1 0,1 -1,1 0,2 -1,1 0,3 -1,1 0,6 -1,1 -3,0 -1,-1 0,-10 1,-1 0,-2 1,-1 0,-1 1,-1 0,-1 1,-1 0,-1 1,-1 1,0 0,-1 -1,0 -1,-1 -1,-1 -1,0 -1,-1 -1,-1Z"/>
<path onmouseover="hoverPath(evt)" onmouseout="recoverPath(evt)" fill="rgb(240,238,226)" d="M  13,22l -1,0 -1,-1 0,-1 -1,0 -1,-1 -1,-1 0,-1 -1,0 -1,-1 -1,0 -1,-1 -1,-1 -1,-1 0,-2 -1,-1 -1,0 0,8 2,0 1,1 1,0 1,1 0,1 2,0 1,1 1,0 1,1 1,1 1,0 1,1 1,1 1,0 1,1 1,1 1,0 1,1 1,0 1,1 0,1 1,0 1,1 1,0 0,-3 -1,0 -1,-1 -1,0 -1,-1 -1,-1 -1,-1 0,-1 -2,0 -1,-1 -1,-1Z"/>
<path onmouseover="hoverPath(evt)" onmouseout="recoverPath(evt)" fill="rgb(253,253,253)" d="M  167,253l -1,0 -1,-1 -1,-1 -1,-1 -1,-1 0,-1 -1,-1 0,-1 -1,-1 0,-1 -1,-1 0,-1 -1,-1 0,-1 -1,-1 0,-2 -1,-1 0,-2 -1,-1 0,-2 -1,-1 0,-3 -1,-1 0,-6 -1,-1 0,-6 -1,-1 0,-11 -1,-1 -3,0 -1,1 0,3 1,1 0,1 1,1 0,7 1,1 0,6 1,1 0,5 1,1 0,3 1,1 0,2 1,1 0,2 1,1 0,2 1,1 0,1 1,1 0,1 1,1 0,1 1,1 1,1 0,1 1,1 0,1 1,1 1,1 0,2 7,0 0,-1 -1,-1Z"/>
<path onmouseover="hoverPath(evt)" onmouseout="recoverPath(evt)" fill="rgb(241,240,229)" d="M  207,70l 0,1 1,1 1,1 1,1 0,4 1,0 1,1 1,1 1,1 1,1 1,1 0,1 1,1 3,0 1,1 1,1 1,1 1,1 0,1 1,1 1,1 0,1 1,1 0,1 1,1 0,1 1,1 0,1 1,1 0,1 1,1 0,2 3,0 0,-2 -1,-1 0,-1 -1,-1 0,-1 -1,-1 0,-1 -1,-1 0,-1 -1,-1 -1,-1 0,-1 -1,-1 -1,-1 0,-2 -1,0 -1,-1 -1,-1 0,-1 -1,-1 -1,-1 0,-2 -1,0 -1,-1 -1,-1 -1,-1 -1,-1 -1,-1 -1,-1 -1,-1 -1,-1 -1,-1 -1,0 -1,-1 -1,-1 -1,1Z"/>
<path onmouseover="hoverPath(evt)" onmouseout="recoverPath(evt)" fill="rgb(244,243,236)" d="M  235,110l 0,1 1,1 0,1 1,1 0,46 -1,1 0,23 -1,1 0,24 1,1 0,1 1,1 0,1 1,1 0,1 1,1 1,1 0,1 1,1 0,1 1,1 0,1 1,1 0,1 1,1 0,1 1,1 0,1 1,1 0,1 1,1 0,1 1,1 1,1 0,1 1,0 0,-3 -1,-1 0,-1 -1,-1 -1,-1 0,-1 -1,-1 0,-1 -1,-1 0,-1 -1,-1 0,-1 -1,-1 0,-2 -1,-1 0,-1 -1,-1 0,-2 -1,-1 0,-3 -1,-1 0,-3 -1,-1 0,-6 -1,-1 0,-15 1,-1 0,-9 1,-1 0,-7 1,-1 0,-7 1,-1 0,-7 1,-1 0,-17 -1,-1 0,-6 -1,-1 0,-4 -1,-1 0,-3 -1,-1 0,-2 -1,-1 -1,-1 -1,1 -1,-1 0,-1 2,-1 -2,2 1,1Z"/>
<path onmouseover="hoverPath(evt)" onmouseout="recoverPath(evt)" fill="rgb(223,233,200)" d="M  233,248l 0,0 -1,1 -1,1 -1,1 -3,0 -1,1 -1,0 -1,1 -2,0 -1,1 -2,0 0,1 36,0 0,-20 -1,0 -1,1 -1,0 -1,1 -2,0 -3,3 -1,1 -1,0 -1,1 -7,0 -1,1 -1,0 0,1 -1,1Z"/>
<path onmouseover="hoverPath(evt)" onmouseout="recoverPath(evt)" fill="rgb(245,244,237)" d="M  0,195l 0,60 53,0 0,-1 -1,-1 0,0 -1,-1 -1,-1 -1,-1 -7,-7 -1,-1 -3,-3 -1,-1 -1,-1 0,-1 -1,-1 -1,-1 -1,-1 -1,-1 -1,-1 -1,-1 -1,-1 -1,-1 -1,-1 -1,-1 0,-1 -1,-1 -1,-1 -1,-1 -1,-1 0,-1 -1,-1 -1,-1 -1,-1 -1,-1 0,-1 -1,-1 -1,-1 -1,-1 -1,-1 0,-1 -1,-1 -3,-3 0,-1 -1,-1 -1,-1 -1,-1 0,-1 -1,-1 -1,-1 -1,-1 -1,-1 0,-1 -1,-1 -1,-1 -1,1Z"/>
<path onmouseover="hoverPath(evt)" onmouseout="recoverPath(evt)" fill="rgb(244,243,235)" d="M  7,1l 0,0 1,1 1,1 1,1 0,1 2,0 1,1 1,1 1,1 0,1 2,0 1,1 1,1 0,1 2,0 1,1 1,1 1,0 1,1 1,1 1,0 1,1 1,1 0,1 2,0 1,1 1,1 1,0 1,1 1,0 1,1 1,0 1,1 1,0 1,1 1,0 1,1 2,0 1,1 2,0 1,1 2,0 1,1 2,0 1,1 2,0 1,1 4,0 1,1 4,0 1,1 6,0 1,1 19,0 1,-1 11,0 1,-1 11,0 1,-1 7,0 0,-10 1,-1 0,-16 1,-1 0,-3 -120,0 -1,1 -1,-1 -3,0 0,1 1,1 0,0 1,-1 -1,0 2,-1 1,1Z"/>
<path onmouseover="hoverPath(evt)" onmouseout="recoverPath(evt)" fill="rgb(188,214,142)" d="M  57,46l -3,0 1,1 1,0 1,1 1,0 1,1 1,1 1,1 1,1 0,2 1,0 1,1 1,1 1,1 1,0 1,1 1,0 1,1 33,0 1,-1 4,0 1,-1 3,0 1,-1 1,0 1,-1 3,0 1,-1 1,0 0,-1 1,-1 1,0 1,-1 1,0 1,-1 1,0 1,-1 -21,0 -1,1 -23,0 -1,-1 -6,0 -1,-1 -6,0 -1,-1 -6,0 -1,-1Z"/>
<path onmouseover="hoverPath(evt)" onmouseout="recoverPath(evt)" fill="rgb(244,243,236)" d="M  136,0l -6,0 0,4 -1,1 0,16 -1,1 0,10 2,0 1,-1 16,0 1,1 6,0 1,1 5,0 1,1 2,0 1,1 3,0 1,1 3,0 1,1 2,0 1,1 2,0 1,1 1,0 1,1 2,0 1,1 1,0 1,1 1,0 1,1 2,0 1,1 1,0 1,1 1,0 1,1 1,0 1,1 1,0 1,1 1,0 1,1 1,0 1,1 1,0 1,1 1,1 1,0 1,1 1,-1 1,0 1,-1 1,-1 1,-1 1,-1 1,-1 1,-1 2,-2 1,-1 1,-1 1,-1 1,-1 2,-2 1,-1 1,-1 1,-1 1,-1 1,0 1,-1 1,-1 1,-1 2,-2 1,-1 1,-1 1,-1 1,-1 1,-1 1,-1 1,-1 1,-1 1,0 1,-1 1,0 0,-1 1,-1 1,-1 2,-2 1,-1 1,-1 1,-1 1,-1 1,-1 2,0 0,-10Z"/>
<path onmouseover="hoverPath(evt)" onmouseout="recoverPath(evt)" fill="rgb(253,253,253)" d="M  140,49l -4,0 -1,1 -5,0 -1,1 -1,0 -1,1 -1,0 -1,1 -1,0 -1,1 -1,0 0,1 -1,1 -1,0 -1,1 -3,0 -1,1 -1,0 -1,1 -3,0 -1,1 -4,0 -1,1 -35,0 0,1 3,0 1,1 11,0 1,-1 20,0 1,-1 4,0 1,-1 2,0 1,-1 2,0 1,-1 -1,0 -6,2 -5,1 35,-12 -72,12 0,-1 -1,0 -1,-1 -1,0 -1,-1 -1,-1 -1,-1 -1,0 -1,-1 0,-2 -1,-1 -1,-1 -1,-1 -1,0 -1,-1 -1,0 -1,-1 -1,-1 -4,0 -1,-1 0,-3 -1,1 -2,0 -1,-1 -1,0 -1,-1 -1,-1 -1,0 -1,-1 -1,0 -1,-1 -1,0 -1,-1 -3,0 -1,-1 -1,-1 0,-2 1,-1 -1,0 -1,-1 0,2 -1,1 -2,0 1,1 1,0 1,1 1,0 1,1 38,23 72,-12 -97,-5 0,1 1,0 1,1 1,0 1,1 2,1 1,0 1,1 1,0 1,1 1,0 1,1 1,0 1,1 1,1 1,1 0,-1 -1,-1 -1,-1 -2,-1 -2,-1 7,7 1,1 1,1 1,1 1,0 -1,-1 -1,-1 4,3 0,1 1,0 53,-4 2,-1 2,-2 1,0 1,-1 1,0 1,-1 2,0 1,-1 -1,0 6,-1 14,0 1,1 1,0 1,-1 3,0 0,-1 1,-1 -1,0 -1,1 -1,0 -2,1 -1,0 -4,-1 -6,0 -118,-15 -1,0 -1,-1 -1,0 -1,-1 0,-1 -1,0 -1,-1 -1,0 -1,-1 -1,-1 -1,0 -1,-1 -1,-1 0,1 1,1 2,1 1,1 2,1 0,3 -1,1 -1,0 0,1 -1,1 0,1 -1,1 0,1 -1,1 0,2 -1,1 0,8 1,0 0,-6 1,-1 0,-3 1,-1 0,-2 1,-1 0,-1 1,-1 1,-1 -4,6 30,3 97,5Z"/>
<path onmouseover="hoverPath(evt)" onmouseout="recoverPath(evt)" fill="rgb(242,240,230)" d="M  156,45l -4,0 -1,-1 -7,0 -1,-1 -23,0 -1,1 -11,0 -1,1 -10,0 -1,1 -23,0 -1,-1 -6,0 -1,-1 -6,0 -1,-1 -2,0 -1,-1 -3,0 -1,-1 0,-1 -1,0 -1,-1 -6,0 -1,-1 -1,0 -1,-1 -1,0 -1,-1 -1,0 -1,1 1,0 1,1 1,0 1,1 1,0 1,1 1,1 1,0 1,1 1,-1 2,0 1,1 0,3 3,0 1,-1 5,0 98,1 -91,0 4,1 3,0 4,1 6,0 1,1 21,0 1,-1 24,0 1,1 4,0 1,-1 13,0 1,1 3,0 1,-1 1,0 1,-1 1,0 -94,-1Z"/>
<path onmouseover="hoverPath(evt)" onmouseout="recoverPath(evt)" fill="rgb(238,238,224)" d="M  176,55l 1,0 1,1 1,0 1,1 1,0 1,1 1,0 1,1 1,0 1,1 1,0 1,1 1,1 1,0 1,1 1,1 2,0 1,1 0,1 2,0 1,-1 0,0 1,-1 1,-1 -1,-1 -1,0 -1,-1 -1,0 -1,-1 -1,0 -1,-1 -1,-1 -1,0 -1,-1 -1,0 -1,-1 -1,0 -1,-1 -1,0 -1,-1 -2,0 -1,-1 -1,0 -1,-1 -1,0 -1,-1 -2,0 -1,-1 -1,0 -1,-1 -2,0 -1,-1 -2,0 -1,-1 -3,0 -1,-1 -1,0 -1,1 0,0 -1,1 0,1 -1,1 3,0 1,1 3,0 1,1 0,1 6,0 1,1 1,0 1,1Z"/>
<path onmouseover="hoverPath(evt)" onmouseout="recoverPath(evt)" fill="rgb(244,243,236)" d="M  224,55l 0,0 -1,1 -1,1 -1,1 -1,1 -1,1 -1,1 1,1 1,1 0,2 1,1 2,0 1,1 1,1 0,1 1,0 1,1 1,1 1,1 1,1 1,1 0,1 1,1 1,1 1,1 1,1 0,1 1,1 1,1 0,1 1,1 1,1 0,1 1,1 0,1 1,1 1,1 0,1 1,1 0,1 1,1 0,1 1,1 0,1 1,1 0,1 1,1 0,1 1,1 0,1 1,1 0,3 1,1 0,1 1,1 0,4 1,1 0,3 1,1 0,5 1,1 0,5 1,0 0,-104 -1,0 -1,1 0,0 -1,1 -2,2 -1,1 -1,1 -1,1 -1,1 -1,1 -1,1 -2,0 0,1 -1,1 -1,1 -1,1 -1,1 -1,1 -1,1 -1,1 -1,0 0,1 -1,1 -1,1 -1,1 -1,1 -1,0 0,1 -1,1 -1,0 0,1 -1,1 -1,1 -1,1Z"/>
<path onmouseover="hoverPath(evt)" onmouseout="recoverPath(evt)" fill="rgb(247,248,241)" d="M  225,105l 0,0 -1,1 -10,0 -1,1 -2,0 -1,1 -2,0 -1,1 -3,0 -1,1 -2,0 -1,1 -2,0 -1,1 -2,0 -1,1 -2,0 -1,1 -3,0 -1,1 -7,0 -1,-1 -2,0 -1,-1 -3,0 -1,-1 -2,0 -1,-1 -2,0 -1,-1 -1,0 -1,-1 -1,-1 -1,0 0,1 1,1 1,0 1,1 1,0 1,1 1,0 1,1 2,0 1,1 3,0 1,1 3,0 1,1 3,0 1,1 1,-1 3,0 1,-1 2,0 1,-1 2,0 1,-1 3,0 1,-1 2,0 1,-1 2,0 1,-1 2,0 1,-1 3,0 1,-1 2,0 1,-1 9,0 1,1 1,0 1,-1 5,0 1,-1 -3,0 -1,-1 0,-2 -1,-1 0,-1 -1,-1 0,-1 -1,-1 0,-1 -1,-1 0,-1 -1,-1 0,-1 -1,-1 -1,-1 0,-1 -1,-1 -1,-1 -1,-1 -3,0 -1,-1 -1,-1 0,-1 -1,-1 -1,-1 -1,-1 -1,-1 -1,0 -1,-1 0,-4 -1,-1 -1,-1 -1,-1 0,-3 1,-1 -1,-1 0,-1 -1,-1 -1,-1 -1,0 -1,1 0,0 -2,2 -1,1 -4,0 -1,-1 0,1 -1,-1 1,-1 -2,0 -1,-1 -1,-1 -1,0 -1,-1 -1,-1 -1,0 -1,-1 -1,0 -1,-1 -1,0 -1,-1 -1,0 -1,-1 -1,0 -1,-1 -2,0 -1,-1 -1,0 -1,-1 -5,0 -1,1 -2,0 0,1 -1,1 -2,0 -1,1 -2,2 -1,1 0,1 1,0 1,-1 0,0 1,-1 1,-1 1,-1 -1,0 -1,1 -1,1 -1,1 6,-4 1,-1 1,0 1,-1 5,0 2,1 3,1 2,1 2,1 2,1 2,1 2,1 0,0 1,1 2,1 1,1 5,3 0,0 1,1 1,0 1,1 1,1 1,1 2,0 1,1 0,1 1,1 1,1 1,1 1,0 18,27 -17,-25 1,1 1,1 1,1 0,2 -1,1 0,3 1,1 0,2 1,1 0,1 1,1 0,1 1,1 1,1 7,0 1,1 0,1 1,1 0,1 1,1 0,1 -17,-24 17,25Z"/>
<path onmouseover="hoverPath(evt)" onmouseout="recoverPath(evt)" fill="rgb(243,242,233)" d="M  254,185l 0,1 -1,1 -2,0 -1,1 0,10 1,1 0,5 1,1 0,2 1,1 0,3 1,1 0,2 -1,1 0,1 2,0 0,-30 -1,-1 1,-1 0,-40 -1,0 0,8 -1,1 0,7 -1,1 0,7 -1,1 0,7 1,1 0,0 1,1 1,1 0,4 1,1 -1,1Z"/>
</svg>