<svg width="256" height="256" xmlns="http://www.w3.org/2000/svg"><script> 
var tempColor;
function hoverPath(evt){
obj = evt.target;
tempColor = obj.getAttribute("fill");
obj.setAttribute("fill","red");
//alert(tempColor);
//obj.setAttribute("stroke","red");}
function recoverPath(evt){
obj = evt.target;
obj.setAttribute("fill", tempColor);
//obj.setAttribute("stroke", tempColor);
}</script><path onmouseover="hoverPath(evt)" onmouseout="recoverPath(evt)" fill="rgb(244,243,236)" d="M  0,116l 0,45 3,0 1,1 1,0 0,-2 1,-1 2,0 1,-1 1,0 1,-1 3,0 1,1 1,0 0,-2 1,-1 1,0 1,-1 1,0 1,-1 1,0 1,-1 1,0 1,-1 1,0 1,-1 1,0 1,-1 1,0 1,-1 1,0 1,-1 1,-1 1,0 1,-1 2,0 1,-1 2,0 1,-1 1,0 1,-1 1,0 1,-1 1,0 1,-1 2,0 1,-1 2,0 1,1 1,0 1,-1 1,0 1,-1 1,0 1,-1 1,0 0,-2 1,-1 2,0 1,1 1,0 1,-1 1,0 1,-1 1,0 1,-1 1,0 0,-2 1,-1 1,0 1,-1 1,0 1,-1 1,0 1,-1 2,0 1,-1 1,0 1,-1 1,0 1,-1 3,0 1,1 1,-1 1,0 0,-2 1,-1 2,0 1,1 1,0 1,-1 1,0 1,-1 1,0 0,-2 1,-1 2,0 1,1 1,0 1,-1 1,0 1,-1 1,0 0,-2 1,-1 2,0 1,1 1,0 1,-1 1,0 1,-1 1,0 0,-2 1,-1 2,0 1,1 1,0 1,-1 1,0 1,-1 1,0 0,-2 1,-1 2,0 1,1 1,0 1,-1 1,0 1,-1 1,0 0,-2 1,-1 1,0 1,-1 1,0 1,-1 1,0 1,-1 2,0 1,-1 1,-1 2,0 1,1 2,0 1,1 1,1 1,0 1,-1 3,0 1,-1 1,0 1,-1 1,0 1,-1 2,0 1,-1 1,0 1,-1 1,0 1,-1 2,0 1,-1 1,-1 3,0 1,-1 1,0 1,-1 1,0 -1,-1 0,-1 -1,-1 -1,-1 0,-1 -1,-1 -1,-1 0,-1 -1,-1 0,-1 -1,-1 -1,-1 0,-1 -1,-1 -1,-1 0,-1 -1,-1 0,-1 -1,-1 -1,-1 0,-1 -2,0 -1,1 -3,0 -1,-1 0,-2 1,-1 1,-1 2,-2 -1,-1 0,-1 -1,-1 -2,-2 0,-1 -2,-2 0,-1 -1,-1 -1,-1 0,-1 -1,-1 -1,-1 -1,0 -1,1 -1,0 -1,1 -1,0 -1,1 -1,0 -1,1 -2,0 -1,1 -1,0 -1,1 -1,0 -1,1 -2,0 -1,1 -1,0 -1,1 -1,0 -1,1 -1,0 -1,1 -2,0 -1,1 -1,0 -1,1 -1,0 -1,1 -1,0 -1,1 -2,0 -1,1 -1,0 -1,1 -1,0 -1,1 -1,0 -1,1 -2,0 -1,1 -1,0 -1,1 -1,0 -1,1 -1,0 -1,1 -2,0 -1,1 -1,0 -1,1 -1,0 -1,1 -1,0 -1,1 -2,0 -1,1 -1,0 -1,1 -1,0 -1,1 -1,0 -1,1 -2,0 -1,1 -1,0 -1,1 -1,0 -1,1 -1,0 -1,1 -2,0 -1,1 -1,0 -1,1 -1,0 -1,1 -1,0 -1,1 -2,0 -1,1 -1,0 -1,1 -1,0 -1,1 -1,0 -1,1 -2,0 -1,1 -1,0 -1,1 -1,0 -1,1 -1,0 -1,1 -2,0 -1,1 -1,0 -1,1 -1,0 -1,1 -1,0 -1,1 -2,0 -1,1 -1,0 -1,1 -1,0 -1,1 -1,0 -1,1 -2,0 -1,1 -1,0 -1,1 -1,0 -1,1 -1,0 -1,1 -2,0 -1,1 -1,0 -1,1 -1,0 -1,1 -1,0 -1,1 -2,0 -1,1 -1,0 -1,1 -1,0 -1,1 -1,0 -1,1 -2,0 -1,1 -1,0 -1,1 -1,0 -1,1Z"/>
<path onmouseover="hoverPath(evt)" onmouseout="recoverPath(evt)" fill="rgb(244,243,236)" d="M  0,168l 0,87 184,0 0,-4 1,-1 1,0 1,-1 2,0 1,-1 3,0 1,-1 2,0 1,-1 2,0 1,-1 2,0 1,-1 2,0 1,-1 1,0 1,-1 2,0 1,-1 3,0 1,-1 1,0 0,-2 -1,-1 0,-2 -1,-1 0,-1 -1,-1 0,-1 -1,-1 0,-1 -1,-1 0,-2 -1,-1 0,-2 -1,-1 0,-2 1,-1 -2,0 -1,-1 0,-2 -1,-1 0,-1 -1,-1 0,-1 -1,-1 0,-1 -1,-1 0,-1 -1,-1 0,-3 -1,-1 0,-1 -1,-1 0,-1 -1,-1 0,-2 -1,-1 0,-1 -1,-1 0,-1 -1,-1 0,-1 -1,-1 0,-2 -1,-1 0,-2 -1,-1 0,-1 -1,-1 0,-1 -1,-1 0,-2 -1,-1 0,-1 -1,-1 0,-1 -1,-1 0,-1 -1,-1 0,-1 -1,-1 0,-2 -1,-1 0,-2 -1,-1 0,-2 1,-1 -1,-1 0,-1 -1,-1 0,-1 -2,0 -1,-1 0,-1 -1,-1 0,-1 -1,-1 0,-1 -1,-1 0,-1 -1,-1 0,-1 -1,-1 0,-1 -1,-1 0,-1 -1,-1 -1,-1 0,-1 -1,-1 0,-1 -1,-1 0,-1 -1,-1 0,-1 -1,-1 -1,-1 0,-1 -1,-1 0,-1 -1,-1 0,-1 -1,-1 0,-1 -1,-1 0,-1 -1,-1 -1,-1 0,-1 -1,-1 0,-1 -1,-1 0,-1 -1,-1 0,-1 -1,-1 0,-1 -1,-1 0,-1 -1,-1 -1,-1 0,-1 -1,-1 -1,-1 0,-2 -1,0 -1,-1 0,-1 -3,0 -1,-1 -1,0 -1,1 -1,0 0,2 -1,1 -2,0 -1,-1 0,2 -1,1 -1,0 -1,1 -1,0 -1,1 -2,0 -1,1 -1,0 -1,1 -1,0 -1,1 -1,0 -1,1 -2,0 -1,1 -1,0 -1,1 -1,0 -1,1 -1,0 -1,1 -2,0 -1,1 -1,0 -1,1 -1,0 -1,1 -1,0 -1,1 -2,0 -1,1 -1,0 -1,1 -1,0 -1,1 -1,0 -1,1 -2,0 -1,1 -1,0 -1,1 -1,0 -1,1 -2,0 -1,-1 -1,0 0,2 -1,1 -2,0 -1,-1 -1,1 -2,0 -1,1 -1,0 0,2 -1,1 -1,0 -1,1 -1,0 -1,1 -1,0 -1,1 -1,0 -1,1 -1,0 -1,1 -2,0 -1,1 -1,0 -1,1 -1,0 -1,1 -1,0 -1,1 -1,0 -1,1 -2,0 -1,1 -2,0 -1,-1 -1,0 -1,1 -1,0 -1,1 -1,0 -1,1 -1,0 -1,1 -2,0 -1,1 -2,0 -1,1 -1,0 -1,1 0,2 -1,1 -1,0 -1,1 -2,0 -1,-1 -1,1 -1,0 -1,1 -1,0 -1,1 -1,0 -1,1 -1,0 -1,1 -1,0 0,2 -1,1 -3,0 -1,-1 -1,0 -1,1 -1,0 -1,1 -2,0 0,2 -1,1 -3,0 -1,-1 -2,0Z"/>
<path onmouseover="hoverPath(evt)" onmouseout="recoverPath(evt)" fill="rgb(244,243,236)" d="M  167,42l -2,0 0,2 1,1 0,1 1,1 0,1 1,1 0,1 1,1 1,1 0,1 1,1 0,1 1,1 1,1 0,1 1,1 0,1 1,1 1,1 0,1 2,2 0,1 1,1 0,1 1,1 1,1 0,1 1,1 0,1 1,1 1,1 0,1 1,1 0,1 1,1 0,1 1,1 0,1 1,0 0,-1 -1,-1 0,-2 1,-1 -1,-1 0,-2 -1,-1 0,-2 1,-1 1,-1 1,0 1,-1 1,0 1,-1 1,0 1,-1 1,0 1,-1 2,0 1,-1 2,0 1,-1 2,0 1,1 0,-2 1,-1 2,0 1,-1 1,-1 3,0 1,-1 1,-1 3,0 1,-1 1,0 1,-1 1,0 1,-1 2,0 1,-1 1,0 1,-1 2,0 1,-1 1,0 1,-1 2,0 1,-1 1,0 1,-1 2,0 1,-1 1,0 1,-1 1,0 1,-1 2,0 1,-1 1,0 1,-1 2,0 1,-1 2,0 0,-1 -5,0 -1,-1 -1,-1 0,-1 -1,-1 0,-1 -2,-2 0,-1 -1,-1 -1,-1 0,-1 -2,-2 0,-1 -1,-1 -1,-1 0,-1 -1,-1 -1,-1 0,-1 -1,-1 0,-1 -1,-1 0,-2 -1,-1 0,-3 -1,0 -1,1 -1,0 -1,1 -2,0 -1,1 -1,0 -1,1 -1,0 -1,1 -1,0 -1,1 -2,0 -1,1 -1,0 -1,1 -1,0 -1,1 -1,0 -1,1 -2,0 -1,1 -1,0 -1,1 -1,0 -1,1 -1,0 -1,1 -2,0 -1,1 -1,0 -1,1 -1,0 -1,1 -1,0 -1,1 -2,0 -1,1 -1,0 -1,1 -1,0 -1,1 -1,0 -1,1 -2,0 -1,1 -1,0 -1,1 -1,0 -1,1 -1,0 -1,1 -2,0 -1,1 -1,0 -1,1 -1,0 -1,1 -1,0 -1,1Z"/>
<path onmouseover="hoverPath(evt)" onmouseout="recoverPath(evt)" fill="rgb(244,242,234)" d="M  194,255l 61,0 0,-17 -6,0 -1,1 -1,0 -1,1 -1,0 0,2 -1,1 -2,0 -1,1 -2,0 -1,-1 0,2 -1,1 -3,0 -1,-1 -2,0 0,1 1,1 0,2 -1,1 -8,0 -1,-1 0,-2 -1,0 -1,-1 0,-1 -1,0 -1,-1 0,-2 -2,0 -1,1 -3,0 -1,1 -2,0 -1,1 -1,0 -1,1 -2,0 -1,1 -2,0 -1,1 -2,0 -1,1 -2,0 -1,1 -3,0 -1,1 -2,0 -1,1 -1,0 0,3 8,0 24,-14 1,0 0,-1 -1,-1 0,2 -24,14Z"/>
<path onmouseover="hoverPath(evt)" onmouseout="recoverPath(evt)" fill="rgb(245,244,237)" d="M  0,1l 0,79 1,0 1,-1 2,0 1,-1 1,0 1,-1 1,0 1,-1 1,0 1,-1 1,0 1,-1 2,0 1,-1 1,0 1,-1 1,0 1,-1 1,0 1,-1 1,0 1,-1 1,0 1,-1 2,0 1,-1 1,0 1,-1 1,0 1,-1 1,0 1,-1 1,0 1,-1 2,0 1,-1 1,0 1,-1 1,0 1,-1 1,0 1,-1 1,0 1,-1 2,0 1,-1 1,0 1,-1 1,0 1,-1 1,0 1,-1 1,0 1,-1 2,0 1,-1 1,0 1,-1 1,0 1,-1 1,0 1,-1 1,0 1,-1 1,0 1,-1 2,0 1,-1 1,0 1,-1 1,0 1,-1 1,0 1,-1 1,0 1,-1 2,0 1,-1 1,0 1,-1 1,0 1,-1 1,0 1,-1 1,0 1,-1 2,0 1,-1 1,0 1,-1 1,0 1,-1 1,0 1,-1 1,0 1,-1 2,0 1,-1 1,0 1,-1 1,0 1,-1 1,0 1,-1 1,0 1,-1 1,0 1,-1 2,0 1,-1 1,0 1,-1 1,0 1,-1 1,0 1,-1 1,0 1,-1 2,0 1,-1 1,0 1,-1 1,0 1,-1 1,0 1,-1 1,0 1,-1 2,0 1,-1 1,0 1,-1 1,0 1,-1 1,0 1,-1 1,0 1,-1 2,0 1,-1 1,0 1,-1 1,0 1,-1 1,0 1,-1 1,0 1,-1 1,0 1,-1 2,0 1,-1 1,0 1,-1 1,0 1,-1 1,0 1,-1 1,0 0,-1 -173,0 -1,1Z"/>
<path onmouseover="hoverPath(evt)" onmouseout="recoverPath(evt)" fill="rgb(172,199,232)" d="M  0,83l 0,30 1,0 1,-1 1,0 1,-1 2,0 1,-1 1,0 1,-1 1,0 1,-1 1,0 1,-1 2,0 1,-1 1,0 1,-1 1,0 1,-1 1,0 1,-1 2,0 1,-1 1,0 1,-1 1,0 1,-1 1,0 1,-1 2,0 1,-1 1,0 1,-1 1,0 1,-1 1,0 1,-1 2,0 1,-1 1,0 1,-1 1,0 1,-1 1,0 1,-1 2,0 1,-1 1,0 1,-1 1,0 1,-1 1,0 1,-1 2,0 1,-1 1,0 1,-1 1,0 1,-1 1,0 1,-1 2,0 1,-1 1,0 1,-1 1,0 1,-1 1,0 1,-1 2,0 1,-1 1,0 1,-1 1,0 1,-1 1,0 1,-1 2,0 1,-1 1,0 1,-1 1,0 1,-1 1,0 1,-1 2,0 1,-1 1,0 1,-1 1,0 1,-1 1,0 1,-1 2,0 1,-1 1,0 1,-1 1,0 1,-1 1,0 1,-1 2,0 1,-1 1,0 1,-1 1,0 1,-1 1,0 1,-1 2,0 1,-1 1,0 1,-1 1,0 1,-1 1,0 1,-1 2,0 1,-1 1,0 1,-1 1,0 1,-1 1,0 1,-1 2,0 1,-1 1,0 1,-1 1,0 1,-1 2,0 1,-1 1,0 1,-1 1,0 1,-1 1,0 1,-1 3,0 1,1 1,1 1,1 0,1 1,1 1,1 0,1 1,1 1,1 0,1 1,1 1,1 1,1 0,1 1,1 0,2 -1,1 -3,3 1,0 1,-1 4,0 1,1 0,1 1,1 1,1 0,1 1,1 0,1 1,1 1,1 0,1 1,1 1,1 0,1 1,1 0,1 1,1 1,1 0,1 1,1 1,1 0,1 2,0 0,-1 -1,-1 0,-1 -1,-1 0,-1 -1,-1 0,-1 -1,-1 0,-1 -1,-1 -1,-1 0,-1 -1,-1 0,-1 -1,-1 -1,-1 0,-1 -1,-1 0,-1 -1,-1 -1,-1 0,-1 -1,-1 -1,-1 0,-1 -1,-1 0,-1 -1,-1 -1,-1 0,-1 -1,-1 0,-1 -1,-1 -1,-1 0,-1 -1,-1 0,-1 -1,-1 0,-1 -1,-1 0,-4 1,-1 2,0 1,-1 1,0 1,-1 1,0 1,-1 1,0 1,-1 2,0 1,-1 1,0 1,-1 1,0 1,-1 1,0 1,-1 2,0 1,-1 1,0 1,-1 1,0 1,-1 1,0 1,-1 2,0 1,-1 1,0 1,-1 1,0 1,-1 1,0 1,-1 2,0 1,-1 1,0 1,-1 1,0 1,-1 1,0 1,-1 2,0 1,-1 1,0 1,-1 1,0 1,-1 1,0 1,-1 2,0 1,-1 1,0 1,-1 1,0 1,-1 1,0 1,-1 2,0 1,-1 1,0 1,-1 3,0 1,1 0,3 1,1 0,2 1,1 0,1 1,1 0,1 1,1 1,1 0,1 1,1 1,1 0,1 1,1 1,1 0,1 1,1 1,1 0,1 1,1 1,1 0,1 1,1 0,1 1,1 4,0 0,-39 -79,0 0,2 -1,1 -1,0 -1,1 -1,0 -1,1 -1,0 -1,1 -1,0 -1,1 -2,0 -1,1 -1,0 -1,1 -1,0 -1,1 -1,0 -1,1 -1,0 -1,1 -1,0 -1,1 -2,0 -1,1 -1,0 -1,1 -1,0 -1,1 -1,0 -1,1 -1,0 -1,1 -2,0 -1,1 -1,0 -1,1 -1,0 -1,1 -1,0 -1,1 -1,0 -1,1 -2,0 -1,1 -1,0 -1,1 -1,0 -1,1 -1,0 -1,1 -1,0 -1,1 -2,0 -1,1 -1,0 -1,1 -1,0 -1,1 -1,0 -1,1 -1,0 -1,1 -1,0 -1,1 -2,0 -1,1 -1,0 -1,1 -1,0 -1,1 -1,0 -1,1 -1,0 -1,1 -2,0 -1,1 -1,0 -1,1 -1,0 -1,1 -1,0 -1,1 -1,0 -1,1 -2,0 -1,1 -1,0 -1,1 -1,0 -1,1 -1,0 -1,1 -1,0 -1,1 -2,0 -1,1 -1,0 -1,1 -1,0 -1,1 -1,0 -1,1 -1,0 -1,1 -1,0 -1,1 -2,0 -1,1 -1,0 -1,1 -1,0 -1,1 -1,0 -1,1 -1,0 -1,1 -2,0 -1,1 -1,0 -1,1 -1,0 -1,1 -1,0 -1,1 -1,0 -1,1 -2,0 -1,1 -1,0 -1,1 -1,0 -1,1 -1,0 -1,1 -1,0 -1,1 -2,0 -1,1 -1,0 -1,1 -1,0 -1,1 -1,0 -1,1 -1,0 -1,1 -1,0 -1,1 -2,0 -1,1 -1,0 -1,1 -1,0 -1,1 -1,0 -1,1 -1,0 -1,1 -2,0 -1,1 -1,0 -1,1Z"/>
<path onmouseover="hoverPath(evt)" onmouseout="recoverPath(evt)" fill="rgb(244,243,236)" d="M  161,100l 0,0 -1,-1 -2,0 -1,1 -3,0 -1,-1 -1,-1 -2,0 -1,-1 -1,1 1,0 3,1 0,1 1,0 1,1 0,2 1,1 1,1 0,1 1,1 2,0 1,1 0,1 1,1 0,1 1,1 0,2 -1,1 1,1 0,1 1,1 0,1 1,1 2,0 1,1 0,1 1,1 0,2 -1,1 1,1 0,1 1,1 0,1 1,1 2,0 1,1 0,1 1,1 0,2 -1,1 1,1 0,1 1,1 2,0 1,1 0,1 1,1 0,2 -1,1 1,1 0,1 1,1 0,1 1,1 0,1 1,1 0,1 2,0 1,1 0,1 1,1 0,1 1,1 0,1 1,1 0,2 -1,1 0,1 1,1 0,2 1,1 0,1 1,1 0,1 1,1 0,1 2,0 1,1 0,2 -1,1 0,1 1,1 0,1 2,0 1,1 0,2 -1,1 0,1 1,1 0,2 1,1 0,1 1,1 0,1 2,0 1,1 0,2 -1,1 0,1 1,1 0,1 2,0 1,1 0,2 -1,1 0,2 1,1 0,1 1,1 0,1 1,1 0,1 2,0 1,1 0,2 -1,1 0,1 2,0 1,1 0,1 1,1 0,2 -1,1 0,1 1,1 0,2 1,1 0,1 1,1 0,1 2,0 1,1 0,2 -1,1 0,1 2,0 1,1 0,1 1,1 0,3 -1,1 1,0 1,1 0,1 1,0 1,1 0,2 6,0 -1,-1 0,-3 1,-1 4,0 1,1 1,0 0,-2 1,-1 1,0 1,-1 2,0 1,1 1,0 0,-2 1,-1 1,0 1,-1 1,0 1,-1 7,0 0,-46 -2,0 -1,-1 0,-1 -4,-4 0,-1 -1,0 -1,-1 -1,-1 -1,-1 -1,-1 -1,-1 -1,0 -1,-1 -1,-1 -2,0 -1,-1 -1,0 -1,-1 -2,0 -1,-1 -1,0 -1,-1 -3,0 -1,-1 -1,0 -1,-1 -1,0 -1,-1 -2,0 -1,-1 -1,0 -1,-1 -1,0 -1,-1 -1,0 -1,-1 -1,0 -1,-1 -1,0 -1,-1 -1,-1 -1,0 -1,-1 -2,0 -1,-1 -1,-1 -1,-1 -1,0 -1,-1 -1,0 -1,-1 -1,-1 -1,-1 -1,-1 -1,-1 0,-10 1,-1 0,-1 1,-1 0,-4 1,-1 0,-2 1,-1 0,-2 1,-1 0,-1 1,-1 0,-2 1,-1 0,-1 1,-1 0,-4 -1,-1 0,-2 -1,-1 -1,-1 0,-1 -1,-1 0,-1 -1,-1 -1,-1 0,-1 -1,-1 -1,-1 0,-1 -1,-1 0,-1 -1,-1 0,-1 -1,-1 0,-1 -1,-1 0,-1 -1,-1 -1,-1 -1,-1 0,-3 1,-1 2,0 0,-2 -1,1 -2,0 0,1 -1,1 -1,0 0,2 -1,1 -2,0 -1,-1 -2,0 -1,1 0,0 -1,1 -2,0 -1,1 -1,0 0,2 -1,1 -2,0 -1,-1 -1,0 -1,1 -1,0 0,2 -1,1Z"/>
<path onmouseover="hoverPath(evt)" onmouseout="recoverPath(evt)" fill="rgb(244,243,236)" d="M  192,71l 0,0 -1,-1 -1,1 -1,0 -1,1 1,1 0,2 1,1 0,1 1,1 0,2 -1,1 0,2 -1,1 0,0 1,1 0,3 1,0 1,1 0,1 1,1 0,1 1,1 0,1 1,1 0,1 1,1 0,1 1,1 0,1 1,1 0,1 1,1 1,1 0,1 1,1 1,1 0,1 1,1 0,1 1,1 1,1 0,1 1,1 0,1 1,1 0,1 1,1 0,2 1,1 1,1 0,1 1,0 1,1 3,0 1,-1 0,0 1,-1 1,0 1,-1 2,0 1,-1 3,0 1,-1 1,-1 2,0 1,-1 1,0 1,-1 2,0 1,-1 1,0 1,-1 3,0 1,-1 2,0 1,-1 1,-1 2,0 1,-1 1,0 1,-1 2,0 1,-1 2,0 0,-64 -1,0 -1,1 -2,0 -1,1 -1,0 -1,1 -2,0 -1,1 -1,0 -1,1 -1,0 -1,1 -2,0 -1,1 -1,0 -1,1 -2,0 -1,1 -1,0 -1,1 -2,0 -1,1 -1,0 -1,1 -2,0 -1,1 -1,0 0,2 -1,1 -2,0 -1,-1 -2,0 -1,1 0,0 -1,1 -3,0 -1,1 -1,1 -2,0 0,2 -1,1 -2,0 -1,-1 -1,1 -2,0 -1,1 -2,0 -1,1 -1,0 0,2 -1,1Z"/>
<path onmouseover="hoverPath(evt)" onmouseout="recoverPath(evt)" fill="rgb(243,243,237)" d="M  203,127l 0,1 -1,1 0,1 -1,1 -1,1 0,2 -1,1 0,4 -1,1 0,2 -1,1 0,3 -1,1 0,2 2,2 1,1 1,1 1,0 1,1 0,3 1,1 1,1 2,0 1,1 1,0 1,1 1,1 1,0 1,1 1,0 1,1 1,0 1,1 1,0 1,1 1,0 1,1 2,0 1,1 1,0 1,1 1,0 1,1 3,0 1,1 1,0 1,1 2,0 1,1 1,0 1,1 2,0 1,1 1,1 1,0 1,1 1,1 1,1 1,1 1,1 1,0 1,1 0,1 1,1 1,1 1,1 1,1 0,1 1,0 0,-75 -2,0 -1,1 0,0 -1,1 -2,0 -1,1 -1,0 -1,1 -2,0 -1,1 -3,0 -1,1 -1,1 -2,0 -1,1 -2,0 -1,1 -2,0 -1,1 -1,1 -3,0 -1,1 -1,1 -2,0 -1,1 -1,0 -1,1 -1,0 -1,1 -1,0 -1,1 -5,0 -1,-1 -1,-1 -1,-1 -1,-1 0,-1 -1,0 0,1 -1,1Z"/>
<path onmouseover="hoverPath(evt)" onmouseout="recoverPath(evt)" fill="rgb(172,198,238)" d="M  222,123l -2,0 -1,1 -1,0 -1,1 -1,1 -5,0 -1,-1 -1,0 -1,-1 0,-1 -1,-1 -1,-1 0,-2 -1,-1 0,-1 -1,-1 0,-1 -1,-1 0,-1 -1,-1 -1,-1 0,-1 -1,-1 0,-1 -1,-1 -1,-1 0,-1 -1,-1 -1,-1 0,-1 -1,-1 0,-1 -1,-1 0,-1 -1,-1 0,-1 -1,-1 0,-1 -1,-1 0,-1 -1,-1 0,-1 -3,0 0,1 1,1 1,1 1,1 0,1 1,1 0,1 1,1 0,1 1,1 0,1 1,1 0,1 1,1 1,1 0,1 1,1 1,1 0,1 1,1 0,1 1,1 1,1 0,2 1,1 0,6 -1,1 0,1 -1,1 0,2 -1,1 0,1 -1,1 0,2 -1,1 0,2 -1,1 0,4 -1,1 0,1 -1,1 0,8 1,1 1,1 1,1 1,1 1,0 1,1 0,-1 -2,-1 -1,-1 -1,-1 -1,-1 0,-8 1,-2 1,-3 0,-2 1,-3 1,-3 1,-1 0,-1 1,-1 0,-1 1,-1 0,-1 1,-1 3,0 1,1 0,1 1,1 1,1 1,1 3,0 1,-1 1,0 7,-4 -5,3 0,0 1,-1 1,0 1,-1 2,0 1,-1 1,-1 3,0 1,-1 1,-1 2,0 1,-1 2,0 1,-1 2,0 1,-1 1,-1 3,0 1,-1 2,0 1,-1 1,0 1,-1 2,0 1,-1 1,-1 3,0 0,-1 -1,0 -3,1 -1,1 -1,0 -2,1 -1,0 -1,1 -3,1 -4,1 -1,1 -1,0 -2,1 -1,0 -2,1 -3,1 -1,1 -4,1 -6,4 5,-3Z"/>
</svg>