<svg width="256" height="256" xmlns="http://www.w3.org/2000/svg"><script> 
var tempColor;
function hoverPath(evt){
obj = evt.target;
tempColor = obj.getAttribute("fill");
obj.setAttribute("fill","red");
//alert(tempColor);
//obj.setAttribute("stroke","red");}
function recoverPath(evt){
obj = evt.target;
obj.setAttribute("fill", tempColor);
//obj.setAttribute("stroke", tempColor);
}</script><path onmouseover="hoverPath(evt)" onmouseout="recoverPath(evt)" fill="rgb(249,201,110)" d="M  0,208l 0,4 5,0 1,1 4,0 1,1 4,0 1,1 3,0 1,1 4,0 1,1 3,0 1,1 4,0 1,1 4,0 1,1 4,0 1,1 8,0 1,1 10,0 1,1 0,1 1,-1 14,0 1,1 1,-1 70,0 1,1 51,0 1,-1 51,0 0,-13 -1,0 -1,1 -4,0 -1,-1 0,-1 -4,0 -1,-1 -4,0 0,1 -1,1 -4,0 -1,1 -3,0 -1,-1 0,-1 -1,0 -1,1 -4,0 -1,-1 -4,0 -1,1 -13,0 -1,-1 -1,0 -1,1 -3,0 -1,1 -1,1 -2,0 -1,-1 0,-1 -1,-1 -1,0 0,1 -1,1 -3,0 -2,2 -10,0 -1,-1 0,-1 -3,0 -1,1 -1,0 0,1 -1,1 -5,0 -1,-1 0,-1 -1,0 -1,-1 0,-1 -1,-1 0,2 -1,1 -1,1 -1,0 0,1 -1,1 -2,0 -1,-1 0,-1 -1,1 -1,0 0,1 -1,1 -1,0 -1,1 -2,0 -1,-1 0,-1 -1,1 -1,1 -3,0 -1,1 -5,0 -1,-1 0,-2 -10,0 -1,1 -2,0 -2,2 -4,0 -1,-1 -3,0 -1,1 -1,1 -3,0 -1,-1 0,-2 -7,0 -1,1 -21,0 -1,-1 -2,0 0,2 -1,1 -3,0 -1,-1 -1,-1 -1,0 -1,1 -2,0 -1,-1 0,-1 -2,0 -1,-1 -3,0 -1,1 -1,0 -1,1 -6,0 -1,-1 -2,0 -1,-1 0,-1 -1,-1 -1,0 0,1 -1,1 -2,0 -1,-1 0,-2 -1,2 -3,0 -1,-1 -4,0 -1,-1 0,-1 -1,1 -3,0 -1,-1 0,-1 -1,0 -1,1 -4,0 -1,-1 -4,0 -1,-1 -1,-1 0,-1 -3,0 -1,-1 -3,0 0,2 203,0Z"/>
<path onmouseover="hoverPath(evt)" onmouseout="recoverPath(evt)" fill="rgb(230,234,236)" d="M  103,72l -4,0 -1,-1 -2,0 1,1 0,0 1,1 1,1 1,1 0,1 1,1 1,0 1,1 0,2 1,1 1,1 1,0 1,1 0,2 1,1 1,1 1,1 1,1 0,2 -1,1 3,0 1,1 1,1 1,1 1,1 0,1 1,1 1,1 1,0 1,1 0,2 1,1 1,1 1,1 0,1 1,1 1,1 1,0 1,1 0,2 1,1 1,0 1,1 0,2 1,1 1,0 1,1 0,2 1,1 1,0 1,1 0,2 1,1 1,0 1,1 0,2 1,0 1,1 0,1 1,1 0,3 1,1 1,1 0,3 1,1 0,1 1,1 1,1 0,1 1,1 0,3 1,1 1,1 0,3 1,1 1,1 0,2 1,1 0,1 1,1 0,1 1,0 0,-4 1,-1 3,0 1,-1 6,0 1,1 1,1 1,0 1,-1 2,0 0,-1 -1,-1 0,-2 1,-1 -1,-1 -2,0 -1,-1 0,-1 -1,-1 -1,-1 0,-2 -1,0 -1,-1 -1,-1 0,-1 -1,-1 -1,-1 0,-1 -1,-1 -1,-1 0,-1 -1,-1 -1,-1 -1,-1 0,-2 -1,0 -1,-1 -1,-1 0,-1 -2,0 -1,-1 -1,-1 0,-1 -2,0 -1,-1 -1,-1 0,-1 -2,0 -1,-1 -1,-1 -1,-1 -1,-1 -1,-1 -1,-1 -1,-1 0,-1 -1,-1 0,-1 -1,0 -1,-1 -1,-1 -1,-1 0,-2 -1,0 -1,-1 -1,-1 -1,-1 0,-1 -1,-1 -1,-1 0,-1 -1,-1 -1,-1 0,-1 -1,-1 0,-1 -1,-1 -1,-1 0,-1 -1,-1 0,-1 -1,-1 0,-2 -1,-1 0,-1 -1,-1 0,-2 -1,-1 0,-2 -1,-1 0,-1 -1,-1 0,-1 -1,-1Z"/>
<path onmouseover="hoverPath(evt)" onmouseout="recoverPath(evt)" fill="rgb(242,241,233)" d="M  0,153l 0,51 4,0 1,1 3,0 1,1 0,1 1,1 4,0 1,1 2,0 1,-1 3,0 1,1 0,1 1,0 1,-1 2,0 1,1 0,1 1,0 1,-1 2,0 1,1 0,1 1,0 0,-1 1,-1 1,0 0,-7 1,-1 21,0 1,1 0,10 1,1 2,0 1,1 0,1 1,-1 3,0 1,1 1,1 1,0 0,-2 1,-1 4,0 1,1 16,0 0,-11 -1,-1 0,-14 -1,-1 0,-11 -1,-1 0,-2 -1,-1 0,-1 -1,-1 0,-1 -1,-1 0,-1 -1,-1 0,-1 -2,0 -1,-1 0,-2 1,-1 -1,-1 0,-2 -1,-1 0,-1 -1,-1 -3,0 -1,-1 0,-2 1,-1 1,0 0,-1 -2,0 -1,-1 0,-1 -1,-1 0,-1 -1,-1 0,-1 -1,-1 0,-1 -1,-1 0,-2 1,-1 -1,-1 0,-1 -1,-1 0,-1 -1,-1 0,-2 -1,-1 0,-1 -1,-1 0,-1 -1,-1 0,-1 -1,-1 0,-1 -1,-1 0,-1 -1,-1 0,-1 -1,-1 0,-1 -1,-1 0,-1 -1,-1 0,-1 -2,0 -1,-1 0,-1 -1,-1 0,-1 -1,-1 0,-1 -1,-1 0,-2 1,-1 -1,-1 0,-1 -1,-1 0,-1 -1,-1 0,-2 -1,-1 -1,-1 -4,0 -1,-1 0,-4 -2,0 -1,-1 0,-6 -4,0 -1,1 -4,0 -1,1 -4,0 -1,1 -4,0 -1,1 -4,0 -1,1 -4,0 -1,1 -3,0 -1,1 -4,0 -1,-1 -2,0 0,64 52,46 -4,0 -1,-1 -2,0 -1,1 -6,0 -1,-1 -1,0 -1,-1 0,-7 1,-1 17,0 1,1 0,1 1,1 0,5 -1,1 -1,0 -1,1 -52,-46 11,25 0,-2 1,-1 2,0 1,1 0,2 -1,1 -2,0 -1,-1 -11,-25 57,26 -1,-1 0,-2 1,-1 2,0 1,1 0,2 -1,1 -2,0 -57,-26 28,26 -2,0 -1,-1 0,-2 1,-1 2,0 1,1 0,2 -1,1 -28,-26Z"/>
<path onmouseover="hoverPath(evt)" onmouseout="recoverPath(evt)" fill="rgb(243,241,233)" d="M  21,27l 0,0 1,1 0,1 1,1 0,1 1,1 0,1 1,1 0,3 -1,1 2,0 1,1 0,2 1,1 0,3 -1,1 0,1 2,0 1,1 0,1 1,1 0,1 1,1 1,0 1,1 1,0 1,1 0,1 1,1 1,1 1,1 1,0 1,1 6,0 1,1 6,0 0,-2 1,-1 5,0 1,-1 3,0 1,1 0,3 1,0 0,-1 1,-1 3,0 -1,-1 0,-6 -4,0 -1,-1 0,-1 -1,-1 0,-1 -1,-1 -1,-1 -1,-1 -1,-1 0,-1 -1,-1 -1,-1 -1,-1 -1,-1 -1,0 -1,-1 0,-2 -1,-1 -1,-1 -1,-1 -1,-1 0,-2 1,-1 0,-1 -1,0 -1,-1 -1,-1 -1,-1 0,-1 -3,0 -1,-1 -1,-1 -1,-1 -1,-1 -2,0 -1,1 -2,0 -1,1 -4,0 -1,-1 0,-2 -7,0 3,1 0,2 -1,1 -3,0 0,4 1,1Z"/>
<path onmouseover="hoverPath(evt)" onmouseout="recoverPath(evt)" fill="rgb(239,236,223)" d="M  49,0l -2,0 0,1 1,1 0,1 1,1 1,1 1,1 1,1 0,1 1,1 3,0 1,-1 2,0 1,-1 5,0 -1,-1 0,-2 1,-1 2,0 1,-1 1,0 1,-1 0,-1Z"/>
<path onmouseover="hoverPath(evt)" onmouseout="recoverPath(evt)" fill="rgb(251,251,248)" d="M  54,97l 0,-1 -1,1 0,1 1,1 0,1 1,1 0,1 1,1 0,2 -1,1 1,1 0,1 1,1 0,1 1,1 0,1 2,0 1,1 0,1 1,1 0,1 1,1 0,1 1,1 0,1 1,1 0,1 1,1 0,1 1,1 0,1 1,1 0,1 1,1 0,1 1,1 0,2 1,1 0,1 1,1 0,1 1,1 0,2 -1,1 1,1 0,1 1,1 0,1 1,1 0,1 1,1 0,1 2,0 1,1 0,3 -1,1 2,0 1,1 1,1 0,1 1,1 0,2 1,1 0,2 -1,1 2,0 1,1 0,1 1,1 0,1 1,1 0,1 1,1 0,1 1,1 0,2 1,1 0,11 1,1 0,14 1,1 0,12 1,0 0,-13 -1,-1 0,-18 1,-1 4,0 1,1 0,-2 1,-1 3,0 1,-1 2,0 1,-1 2,0 1,-1 3,0 1,-1 2,0 1,-1 3,0 1,1 1,0 0,-2 1,-1 3,0 1,-1 2,0 1,-1 2,0 1,-1 3,0 1,-1 2,0 1,-1 3,0 1,1 1,0 0,-2 1,-1 3,0 1,1 1,1 0,2 1,1 0,5 1,1 0,2 1,0 1,1 1,0 1,1 1,1 1,0 -1,-1 -1,-1 -3,-2 0,-3 1,-1 1,-1 1,0 1,-1 1,-1 3,0 0,-1 -1,-1 -1,0 -1,-1 -2,0 -1,-1 0,-3 1,-1 3,0 1,-1 4,0 1,1 0,2 1,1 0,1 1,1 0,1 2,0 1,1 -2,-2 0,0 -1,-1 -1,-2 -1,-3 0,-1 1,-1 2,0 1,-1 2,0 1,-1 2,0 1,-1 0,-1 -1,0 -1,1 -2,0 -1,1 -3,0 -1,-1 -1,-1 -4,0 -1,1 -3,0 0,4 -1,1 -2,0 -1,1 -1,0 -1,1 -3,0 -1,1 -2,0 -1,1 -2,0 -1,1 -3,0 -1,1 -2,0 -1,1 -2,0 -1,1 -2,0 -1,1 -3,0 -1,1 -5,0 -1,-1 0,-2 -1,-1 0,1 1,3 0,1 -1,1 -2,0 -1,1 -2,0 -1,1 -2,0 -1,1 -3,0 -1,1 -2,0 -1,1 -2,0 -1,1 -6,0 -1,-1 0,-4 -1,-1 0,-1 -1,-1 0,-1 -1,-1 0,-2 1,-1 1,0 1,-1 -2,0 -1,-1 -1,-1 0,-2 1,-1 -1,-1 0,-1 -1,-1 0,-1 -1,-1 0,-1 -1,-1 0,-1 -1,-1 0,-1 -1,-1 0,-1 -1,-1 0,-1 -1,-1 0,-1 -1,-1 0,-2 -1,2 -2,0 -1,-1 0,-2 -1,-1 0,-2 1,-1 -1,-1 0,-1 -2,0 -1,-1 0,-1 -1,-1 0,-1 -1,-1 0,-1 -1,-1 0,-1 -1,-1 0,-1 -1,-1 0,-1 -1,-1 0,-1 -1,-1 0,-1 -1,-1 0,-1 -1,-1 0,-1 -1,-1 0,-1 -1,-1 0,-2 -1,-1 0,-1 -1,-1 0,-2 1,-1 -1,-1 0,-1 -1,-1 0,-1 -1,-1 0,-1 -2,0 -1,-1 109,74 0,2 1,1 0,1 1,1 0,1 1,1 0,2 1,1 0,1 1,1 0,6 -1,1 -1,0 -1,1 1,1 0,1 1,1 0,1 1,1 0,-6 -2,1 3,-5 0,-1 -1,-3 0,-1 -1,-1 0,-1 -1,-2 0,-1 -1,-1 0,-1 -1,-1 0,-1 -1,-1 -109,-74Z"/>
<path onmouseover="hoverPath(evt)" onmouseout="recoverPath(evt)" fill="rgb(243,242,234)" d="M  148,0l -1,0 0,25 1,1 0,36 54,0 0,-27 1,-1 2,0 1,1 0,28 1,-2 5,0 1,1 23,0 1,-1 2,0 0,-5 1,-1 2,0 1,1 0,5 1,1 11,0 0,-27 -5,0 -1,1 -16,0 -1,1 -2,0 -1,-1 0,-2 -1,-1 -1,0 -1,-1 -1,-1 -1,-1 -1,-1 -1,-1 -1,-1 -1,-1 0,-2 -1,0 -1,-1 -1,-1 -1,-1 -2,0 -1,-1 -1,-1 -1,-1 0,-2 1,-1 0,-6 -1,-1 0,-8Z"/>
<path onmouseover="hoverPath(evt)" onmouseout="recoverPath(evt)" fill="rgb(244,242,235)" d="M  215,0l -2,0 0,7 1,1 0,8 -1,1 1,1 1,1 2,0 1,1 1,1 1,1 1,0 1,1 0,2 1,1 2,2 1,1 1,1 1,1 1,0 1,1 1,1 1,0 1,1 15,0 1,-1 6,0 0,-33Z"/>
<path onmouseover="hoverPath(evt)" onmouseout="recoverPath(evt)" fill="rgb(243,242,235)" d="M  55,94l 0,0 1,1 0,1 2,0 1,1 0,1 1,1 0,1 1,1 0,1 1,1 0,2 -1,1 1,1 0,1 1,1 0,2 1,1 0,1 1,1 0,1 1,1 0,1 1,1 0,1 1,1 0,1 1,1 0,1 1,1 0,1 1,1 0,1 1,1 0,1 1,1 0,1 1,1 0,1 2,0 1,1 0,1 1,1 0,2 -1,1 1,1 0,2 1,-2 2,0 1,1 0,2 1,1 0,1 1,1 0,1 1,1 0,1 1,1 0,1 1,1 0,1 1,1 0,1 1,1 0,1 1,1 0,1 1,1 0,2 -1,1 1,1 2,0 1,1 0,1 1,1 0,2 -1,1 -2,0 0,1 1,1 0,1 1,1 0,4 4,0 1,-1 2,0 1,-1 2,0 1,-1 3,0 1,-1 2,0 1,-1 2,0 1,-1 2,0 0,-1 -1,-1 0,-3 1,-1 2,0 1,1 1,1 0,2 3,0 1,-1 3,0 1,-1 2,0 1,-1 2,0 1,-1 2,0 1,-1 3,0 1,-1 2,0 1,-1 2,0 1,-1 3,0 1,-1 1,0 0,-1 -1,-1 0,-1 -1,-1 0,-2 -1,-1 -1,-1 0,-3 -1,-1 -1,-1 0,-3 -1,-1 0,-1 -1,-1 -1,-1 0,-1 -1,-1 0,-3 -1,-1 -1,-1 0,-3 -1,-1 0,-1 -1,0 -1,-1 0,-2 -1,0 -1,-1 -1,-1 0,-2 -1,0 -1,-1 -1,-1 0,-2 -1,0 -1,-1 -1,-1 0,-2 -1,0 -1,-1 -1,-1 0,-2 -1,0 -1,-1 -1,-1 -1,-1 0,-1 -1,-1 -1,-1 -1,-1 0,-2 -1,0 -1,-1 -1,-1 -1,-1 0,-1 -1,-1 -1,-1 -1,-1 -3,0 -1,-1 0,-2 1,-1 -1,-1 0,0 -1,-1 -1,-1 -1,-1 0,-2 -1,0 -1,-1 -1,-1 -1,-1 0,-2 -1,0 -1,-1 -1,-1 0,-1 -1,-1 -1,-1 -1,-1 -6,0 -1,1 -4,0 -1,1 -6,0 -1,1 -4,0 -1,1 -5,0 -1,1 -4,0 -1,1 -4,0 -1,1 -4,0 0,1 -1,1 -7,0 0,6 2,0 1,1 0,4 4,0 1,1 1,1 1,-1Z"/>
<path onmouseover="hoverPath(evt)" onmouseout="recoverPath(evt)" fill="rgb(243,241,232)" d="M  98,185l 0,0 -1,-1 -2,0 0,16 1,1 0,13 8,0 1,1 0,2 1,0 1,-1 0,0 1,-1 5,0 1,1 2,0 1,-1 1,-1 2,0 1,-1 12,0 1,1 0,2 3,0 1,-1 3,0 1,-1 1,-1 2,0 1,1 2,0 0,-1 1,-1 1,0 1,-1 2,0 1,1 0,1 1,-2 1,0 1,-1 0,-2 1,-1 2,0 1,1 1,1 0,1 1,0 1,1 0,1 3,0 0,-1 1,-1 1,0 1,-1 4,0 0,-9 1,-1 0,-1 -1,-1 0,-2 -1,-1 0,-2 -1,-1 0,-1 -1,-1 0,-1 -1,0 0,11 -1,1 -2,0 -1,-1 0,-2 -1,-1 0,-1 -1,-1 0,-1 -1,-1 0,-2 1,-1 1,-1 1,0 0,-4 -1,-1 0,-1 -1,-1 0,-2 -1,-1 0,-1 -2,0 -1,-1 0,-2 -1,0 -1,1 -1,0 -1,1 0,2 2,0 1,1 1,1 1,1 0,2 -1,1 -3,0 -1,-1 -1,-1 -1,0 -1,-1 -1,0 -1,-1 0,-2 -1,-1 0,-5 -1,-1 0,-2 -1,-1 -1,0 0,2 -1,1 -3,0 -1,-1 -1,0 -1,1 -2,0 -1,1 -3,0 -1,1 -2,0 -1,1 -2,0 -1,1 -3,0 0,2 -1,1 -3,0 -1,-1 -1,0 -1,1 -2,0 -1,1 -3,0 -1,1 -2,0 -1,1 -2,0 -1,1 -3,0 0,2 -1,1 -2,0 62,-12 -62,12Z"/>
<path onmouseover="hoverPath(evt)" onmouseout="recoverPath(evt)" fill="rgb(241,240,230)" d="M  114,50l 0,1 1,1 0,1 1,1 0,1 1,1 0,2 1,1 0,1 1,1 0,1 24,0 0,-30 -1,-1 0,-23 -17,0 -1,-1 0,-2 1,-1 7,0 1,-1 8,0 1,-1 0,-2 -51,0 0,3 2,0 1,1 0,2 1,1 0,1 1,1 0,1 1,1 0,1 1,1 0,2 1,1 0,1 2,0 1,-1 1,-1 2,-2 1,0 0,-4 1,-1 2,0 1,1 1,0 0,-2 1,-1 3,0 1,1 2,0 1,-1 1,0 1,-1 2,0 -9,45 10,-42 0,4 -1,1 0,1 1,0 1,-1 2,0 1,1 0,4 1,1 0,2 1,1 0,3 -1,1 0,3 1,1 0,2 1,1 0,16 -1,1 -1,0 -1,1 -4,0 -1,1 -3,0 -1,-1 -1,0 -1,-1 -1,0 -1,-1 0,-1 -1,-1 -1,1 0,0 1,1 0,0 10,-41 -10,42Z"/>
<path onmouseover="hoverPath(evt)" onmouseout="recoverPath(evt)" fill="rgb(241,239,230)" d="M  239,202l 0,1 1,0 1,1 14,0 0,-22 -7,0 -1,1 -6,0 0,1 -1,1 0,11 -1,1Z"/>
<path onmouseover="hoverPath(evt)" onmouseout="recoverPath(evt)" fill="rgb(218,225,231)" d="M  67,34l 0,0 -1,-1 -1,-1 0,-1 -1,-1 -1,-1 -1,-1 -1,-1 0,-2 -1,0 -1,-1 -1,0 -1,-1 0,-1 -1,-1 -1,-1 0,-1 -1,-1 -1,-1 0,-1 -1,0 -1,-1 -1,-1 0,-3 1,-1 -1,-1 0,-1 -1,-1 -1,-1 -2,-2 0,-1 -1,-1 0,-2 -9,0 0,1 1,1 0,1 1,1 0,1 1,0 1,1 0,2 1,0 1,1 0,1 1,1 0,1 1,0 1,1 0,1 1,1 2,2 1,1 0,1 1,1 1,1 1,1 0,1 1,0 1,1 0,1 1,1 1,1 0,1 1,0 1,1 0,3 -1,1 -3,0 1,1 0,2 1,0 1,1 1,1 1,1 1,1 0,-2 1,-1 3,0 1,1 1,1 1,1 1,1 1,1 1,1 0,1 1,1 0,1 1,-1 3,0 1,1 0,2 1,1 1,1 1,1 0,1 1,1 0,1 1,1 1,0 1,1 0,1 1,0 1,1 0,1 1,1 0,1 1,0 1,1 1,1 1,1 2,0 0,-1 -1,-1 0,0 -1,-1 -1,0 -1,-1 0,-2 -1,0 -1,-1 0,-2 -1,0 -1,-1 -1,-1 -1,-1 -1,-1 0,-1 -1,-1 0,-3 -2,0 -1,-1 -1,-1 0,-4 -1,-1 -1,-1 -1,-1 -3,0 -1,-1 -1,-1 -1,-1 -15,-3 0,-1 -1,0 1,1 15,3Z"/>
<path onmouseover="hoverPath(evt)" onmouseout="recoverPath(evt)" fill="rgb(215,161,160)" d="M  173,226l -22,0 -1,-1 -68,0 -1,1 -2,0 -1,-1 -12,0 -1,1 -2,0 -1,-1 0,-1 -4,0 0,2 1,0 1,1 1,1 0,1 5,0 1,1 0,5 1,0 0,-2 1,-1 2,0 1,1 7,0 -2,-1 0,-3 1,-1 2,0 1,1 1,-1 9,0 0,-1 1,-1 81,0 -106,10 -1,0 -1,1 -1,0 0,1 -1,1 0,16 1,-16 3,-3 106,-10 -4,1 0,1 13,0 1,1 1,0 1,1 0,2 1,1 0,2 -1,1 1,1 0,0 1,1 1,1 0,1 1,0 1,1 1,1 1,1 1,1 0,1 1,1 0,1 1,1 1,1 0,-3 1,-1 0,-1 -1,-1 0,0 -1,-1 0,-2 -1,-1 0,-1 -1,-1 -1,-1 -1,-1 -1,-1 -1,-1 -1,-1 0,-3 1,-1 9,0 1,1 2,0 1,1 0,0 1,-1 2,0 1,-1 20,0 1,1 21,0 1,-1 2,0 1,1 3,0 0,-4 -50,0 -1,1 -30,0 -5,1 4,-1Z"/>
<path onmouseover="hoverPath(evt)" onmouseout="recoverPath(evt)" fill="rgb(233,232,225)" d="M  37,204l 0,9 1,-2 3,0 1,1 1,1 0,1 2,0 1,1 4,0 1,-1 1,0 1,-1 3,0 0,-9Z"/>
<path onmouseover="hoverPath(evt)" onmouseout="recoverPath(evt)" fill="rgb(238,221,216)" d="M  83,244l 0,4 1,1 0,6 47,0 0,-1 -1,0 -1,-1 0,-2 -8,0 -1,-1 0,-2 -8,0 0,1 -1,1 0,1 -1,1 -13,0 -1,-1 0,-8 1,-1 13,0 1,-1 -14,0 -1,-1 -1,-1 0,-4 1,-1 0,-5 1,-1 -4,0 0,7 -1,1 0,7 -1,1 -1,0 -1,1 -2,0 -1,-1 -1,0 -1,-1 -1,1Z"/>
<path onmouseover="hoverPath(evt)" onmouseout="recoverPath(evt)" fill="rgb(240,238,230)" d="M  0,77l 0,2 1,0 1,-1 3,0 1,-1 3,0 1,-1 4,0 1,-1 4,0 1,-1 4,0 1,-1 5,0 1,-1 4,0 1,-1 12,0 1,-1 4,0 1,-1 6,0 1,1 3,0 0,-2 1,-1 5,0 1,-1 7,0 1,1 1,0 1,-1 3,0 0,-5 -1,-1 0,-1 -1,0 -1,-1 0,-1 -1,0 -1,-1 -1,-1 0,-1 -1,-1 0,-1 -3,-3 0,-2 -1,0 -1,1 -2,0 -1,-1 0,-1 -1,-1 0,-1 -1,-1 -1,-1 -1,-1 -1,-1 -1,-1 -1,0 0,2 -1,1 1,1 0,0 1,1 1,1 1,1 0,1 1,1 0,1 4,0 1,1 0,6 1,1 0,2 -1,1 -3,0 0,1 -1,1 -3,0 -1,-1 0,-3 -1,0 -1,1 -5,0 0,2 -1,1 -8,0 -1,-1 -6,0 -1,-1 -1,0 -1,-1 -1,-1 -1,-1 -1,-1 0,-1 -1,0 -1,-1 -1,0 -1,-1 -1,-1 0,-1 -1,-1 0,-1 -2,0 -1,-1 0,-3 1,-1 0,-1 -1,-1 0,-2 -2,0 -1,-1 0,-2 1,-1 0,-1 -1,-1 0,-1 -1,-1 0,-1 -1,-1 0,-1 -2,0 -1,-1 0,-2 1,-1 0,-4 1,-1 3,0 -3,-1 0,-2 1,-1 9,0 1,1 0,2 2,0 1,-1 2,0 1,-1 4,0 1,1 1,1 1,1 1,1 3,0 1,1 0,-1 -1,-1 0,-1 -1,-1 -1,-1 -1,-1 -1,-1 0,-1 -1,0 -1,-1 0,-1 -1,-1 0,-1 -1,0 -1,-1 0,-2 -1,0 -1,-1 0,-1 -1,-1 0,-1 -1,-1 0,-2 -34,0 0,77 49,-55 -1,1 1,1 0,0 1,1 1,0 1,1 0,2 1,0 1,1 0,1 1,1 1,0 0,-1 -1,0 -1,-2 -1,-1 -1,-2 -2,-1 0,-1 -1,-1 -49,55Z"/>
<path onmouseover="hoverPath(evt)" onmouseout="recoverPath(evt)" fill="rgb(252,252,250)" d="M  0,245l 0,2 2,0 1,1 1,1 1,0 1,1 1,1 0,-4 1,-1 4,0 1,1 8,0 1,1 3,0 1,1 1,0 1,1 2,0 1,1 1,0 1,1 1,0 1,1 0,2 3,0 0,-1 -1,-1 -1,0 -1,-1 -1,-1 -1,0 -1,-1 -1,0 -1,-1 -1,0 -1,-1 0,-2 -1,0 -1,1 -4,0 -1,-1 -7,0 -1,-1 -11,0 -1,-1 -1,1Z"/>
<path onmouseover="hoverPath(evt)" onmouseout="recoverPath(evt)" fill="rgb(244,234,144)" d="M  79,69l -1,0 -1,-1 -5,0 -1,1 -5,0 0,2 -1,1 -5,0 -1,-1 -4,0 -1,1 -4,0 -1,1 -12,0 -1,1 -4,0 -1,1 -5,0 -1,1 -4,0 -1,1 -4,0 -1,1 -4,0 -1,1 -3,0 -1,1 -3,0 -1,1 -2,0 0,6 3,0 1,1 2,0 1,-1 3,0 1,-1 4,0 1,-1 4,0 1,-1 4,0 1,-1 4,0 1,-1 4,0 1,-1 5,0 1,-1 7,0 0,-1 1,-1 4,0 1,-1 4,0 1,-1 4,0 1,-1 5,0 1,-1 4,0 1,-1 6,0 1,-1 4,0 1,-1 6,0 0,-1 1,-1 4,0 1,1 14,0 1,1 1,1 0,1 1,1 0,1 1,1 0,2 1,1 0,2 1,1 0,1 1,1 0,2 1,1 0,1 1,1 0,1 1,1 1,1 0,1 1,1 0,1 1,1 1,1 0,1 1,1 1,1 0,1 1,1 1,1 1,0 1,1 0,2 1,1 1,1 1,0 1,1 0,1 1,1 0,1 1,1 1,1 1,1 1,1 1,1 1,1 2,0 1,1 0,1 1,1 2,0 1,1 0,1 1,1 2,0 1,1 0,1 1,1 1,0 1,1 0,2 1,1 1,1 1,1 0,1 1,1 1,1 0,1 1,1 1,1 0,1 1,1 1,0 1,1 0,2 1,1 1,1 0,1 2,0 1,1 1,1 0,2 -1,1 1,1 0,1 2,0 1,1 0,3 -1,1 1,0 1,1 0,0 1,1 0,1 1,1 0,1 1,1 0,2 1,1 0,1 1,1 0,1 1,1 0,1 1,1 0,2 1,1 0,3 1,1 0,2 1,1 0,2 1,1 0,3 1,1 0,2 1,1 0,2 1,1 0,5 1,1 0,5 1,1 0,1 1,-1 0,0 1,-1 3,0 1,-1 0,-3 -1,0 -1,-1 0,-2 -1,-1 0,-1 -1,-1 0,-1 -1,-1 0,-3 1,-1 0,-1 -1,-1 0,-2 -1,-1 0,-3 -1,-1 0,-2 -1,-1 0,-2 -1,-1 0,-3 -1,-1 0,-1 -1,-1 0,-1 -1,-1 0,-4 1,-1 -3,0 -1,-1 0,-4 -1,-1 0,-1 -2,0 -1,-1 0,-2 -1,-1 0,-1 -1,-1 0,-1 -1,-1 -1,-1 0,-1 -1,-1 0,-1 -1,-1 -2,0 -1,-1 -1,-1 0,-4 1,-1 1,-1 3,0 0,-1 -1,0 -1,-1 0,-1 -1,-1 0,-2 -1,0 -1,-1 -1,-1 -1,-1 -1,-1 -1,-1 -1,-1 -1,-1 -1,1 -3,0 -1,-1 -1,0 -1,-1 0,-1 -1,-1 -2,0 -1,-1 0,-1 -1,-1 -2,0 -1,-1 0,-1 -1,-1 -1,0 -1,-1 -1,-1 -1,-1 -3,-3 -1,-1 0,-1 -1,-1 -1,-1 -1,-1 -1,-1 0,-1 -1,-1 -1,-1 -1,0 -1,-1 0,-2 -1,-1 -1,-1 0,-1 -1,-1 0,-1 -1,-1 -1,-1 0,-1 -1,-1 -1,-1 0,-1 -1,-1 0,-2 -1,-1 0,-2 -1,-1 0,-1 -1,-1 0,-2 -1,-1 0,-2 1,-1 85,0 1,1 0,9 1,1 0,-11 41,0 1,-1 3,0 0,-5 -12,0 -1,-1 -1,-1 0,-5 -1,6 -2,0 -1,1 -25,0 -1,-1 -3,0 0,1 -1,1 -2,0 -1,-1 0,-28 -1,28 -55,0 -1,1 -3,0 -1,-1 -25,0 -1,-1 0,-1 -1,-1 0,-1 -1,-1 0,-2 -1,-1 0,-1 -1,-1 0,-1 -1,-1 0,-2 -1,-1 0,-2 1,-1 1,-1 0,-1 -1,-1 -1,-1 0,-1 -1,-1 -1,0 -1,-1 0,-3 -2,0 -1,-1 0,-1 -1,0 -1,-1 0,-6 -1,-1 -1,-1 -1,-1 0,-5 -2,0 -1,-1 0,-1 -1,-1 0,-2 -1,-1 0,-1 -1,-1 0,-1 -1,-1 0,-1 -1,-1 0,-2 -2,0 -1,-1 0,-4 -13,0 0,3 3,0 1,-1 5,0 1,1 0,3 -1,1 1,0 1,1 0,1 1,1 0,2 1,1 0,1 1,1 0,1 1,1 0,1 1,1 0,1 1,1 0,1 1,1 0,2 1,1 0,4 1,0 1,1 0,2 2,0 1,1 0,4 1,1 0,3 1,1 1,1 1,1 0,5 1,0 1,1 0,1 1,1 0,1 1,1 0,1 1,1 0,2 1,1 0,3 -1,1 -8,0 -1,1 -6,0 -1,1 -4,0 -1,-1 -1,-1 -1,-1 0,4 -1,1 -3,0 -1,1 -2,0 99,67 0,1 1,0 -1,-1 -99,-67Z"/>
<path onmouseover="hoverPath(evt)" onmouseout="recoverPath(evt)" fill="rgb(244,243,235)" d="M  177,142l 0,0 1,1 1,1 0,1 1,1 0,1 1,1 1,1 0,1 1,1 0,1 23,0 1,-1 4,0 1,1 15,0 1,-1 27,0 0,-80 -2,0 -1,1 -41,0 0,4 1,1 0,5 -1,1 -2,0 -1,-1 -1,-1 0,-9 -83,0 1,1 0,2 1,1 0,1 1,1 0,2 1,1 0,2 1,1 0,1 1,1 1,1 0,1 1,1 1,1 0,1 1,1 0,1 1,1 1,1 0,2 1,0 1,1 1,1 1,1 0,1 1,1 1,1 1,1 1,1 0,1 1,1 1,1 1,1 1,1 1,1 1,1 1,0 1,1 1,1 0,1 2,0 1,1 1,1 0,1 2,0 1,1 1,1 0,1 1,0 1,1 1,0 1,-1 0,0 -1,-1 0,-3 1,-1 1,-1 1,0 1,-1 16,0 1,1 4,0 1,1 1,0 1,1 1,1 0,1 16,0 1,1 1,0 1,1 0,20 -1,1 -1,1 -3,0 -1,1 -17,0 -1,-1 -1,0 -1,-1 -1,0 -1,1 -2,0 -1,-1 -1,-1 -1,-1 0,-1 -2,0 -1,-1 -1,0 -1,1 0,2 1,1 2,0 70,-18 0,2 -1,1 -2,0 -1,-1 0,-2 1,-1 2,0 1,1 -70,18 60,-43 0,2 -1,1 -2,0 -1,-1 0,-2 1,-1 2,0 1,1 -60,43Z"/>
<path onmouseover="hoverPath(evt)" onmouseout="recoverPath(evt)" fill="rgb(244,243,235)" d="M  216,245l -6,0 -1,1 0,6 1,1 0,2 45,0 0,-2 -4,0 -1,-1 -3,0 -1,-1 -1,0 -1,-1 -1,0 -1,-1 -1,0 -1,-1 -9,0 -1,-1 -1,-1 -2,0 -1,-1Z"/>
<path onmouseover="hoverPath(evt)" onmouseout="recoverPath(evt)" fill="rgb(248,246,240)" d="M  238,181l -4,0 2,1 1,0 1,1 0,6 -1,1 -4,0 -1,-1 -2,0 -1,-1 0,1 -1,-1 1,-1 0,0 -1,-1 0,-3 -1,2 0,1 -1,1 -7,0 -1,1 -5,0 -1,-1 0,1 -1,-1 -1,0 -1,-1 0,0 -1,-1 0,2 -1,1 1,0 1,-1 0,0 10,1 8,0 4,2 1,0 1,1 0,1 1,1 0,2 -1,1 0,2 1,1 0,2 -1,1 -2,0 0,1 -1,1 -3,0 -1,1 -16,0 -1,-1 -1,0 -1,-1 0,-1 -1,-1 -1,-1 -1,-1 -1,-1 0,-5 -1,1 0,3 2,-5 1,-1 1,-1 -3,9 3,3 0,2 -1,1 -2,0 2,1 0,2 11,0 1,-1 6,0 1,1 2,0 1,-1 3,0 1,1 0,1 1,0 1,-1 4,0 0,-1 1,-1 6,0 1,1 4,0 1,1 0,1 2,0 1,-1 2,0 0,-2 -10,0 -7,-25 0,14 -1,1 1,-5 0,-10 -1,23 0,0 1,-23 8,0 1,-1 8,0 0,-27 -26,0 -1,1 -17,0 -1,-1 -2,0 -1,1 -23,0 0,1 23,0 1,1 0,1 1,1 0,4 1,1 0,13 1,1 0,1 1,1 1,-1 10,0 1,-1 -2,0 -10,1 -1,-2 -1,-14 0,-6 1,-1 28,0 1,-1 3,0 1,1 2,0 1,1 0,22 -1,1 0,1 -6,1Z"/>
<path onmouseover="hoverPath(evt)" onmouseout="recoverPath(evt)" fill="rgb(238,236,221)" d="M  7,253l -1,0 -1,-1 -1,-1 -1,0 -1,-1 -1,-1 -1,0 0,6 33,0 0,-1 -1,0 -1,-1 -1,0 -1,-1 -2,0 -1,-1 -1,0 -1,-1 -3,0 -1,-1 -8,0 -1,-1 -2,0 0,4 -1,1Z"/>
<path onmouseover="hoverPath(evt)" onmouseout="recoverPath(evt)" fill="rgb(254,254,254)" d="M  133,6l 10,0 1,1 0,23 1,1 0,32 1,0 0,-36 -1,-1 0,-26 -1,0 0,3 -1,1 -1,1 -8,0 -1,1Z"/>
<path onmouseover="hoverPath(evt)" onmouseout="recoverPath(evt)" fill="rgb(241,239,228)" d="M  227,190l -16,0 -1,-1 -1,1 -1,0 0,1 -1,1 -1,1 -1,1 0,3 1,1 0,0 1,1 1,1 1,1 0,1 1,0 1,1 14,0 1,-1 3,0 0,-1 1,-1 0,-1 1,-1 0,-3 1,-1 -1,-1 0,-1 -1,0 -1,-1 -1,0 -1,-1Z"/>
<path onmouseover="hoverPath(evt)" onmouseout="recoverPath(evt)" fill="rgb(243,240,232)" d="M  10,223l -2,0 0,2 -1,1 0,1 1,1 0,3 -1,1 -2,0 0,3 -1,1 0,2 -1,1 0,4 11,0 1,1 7,0 1,1 2,0 1,-1 3,0 1,1 0,2 1,0 1,1 1,0 1,1 1,0 1,1 1,1 1,0 2,2 0,2 21,0 0,-17 1,-1 0,-1 1,-1 1,0 1,-1 0,-3 -5,0 -1,-1 0,-1 -1,-1 -1,0 -1,-1 0,-3 -3,0 -1,1 0,0 -1,1 -1,0 -1,1 -2,0 -1,-1 -2,0 -1,1 0,1 -1,1 -5,0 -1,-1 -1,-1 0,-1 -2,0 -1,1 -5,0 -1,-1 0,-3 -3,0 0,1 -1,1 -4,0 -1,-1 -4,0 -1,-1Z"/>
<path onmouseover="hoverPath(evt)" onmouseout="recoverPath(evt)" fill="rgb(224,185,177)" d="M  19,223l 2,0 0,-1 1,-1 5,0 1,1 0,3 3,0 1,-1 4,0 1,1 0,1 1,1 3,0 0,-1 1,-1 1,-1 4,0 1,1 1,-1 1,0 1,-1 -8,0 -1,-1 -4,0 -1,-1 -4,0 -1,-1 -4,0 -1,-1 -3,0 -1,-1 -4,0 -1,-1 -3,0 -1,-1 -4,0 -1,-1 -4,0 -1,-1 -4,0 0,27 1,0 0,-3 1,-1 0,-2 1,-1 0,-3 1,-1 2,0 0,-1 -1,-1 0,-3 1,-1 0,-2 1,-1 6,0 1,1 4,0 1,1Z"/>
<path onmouseover="hoverPath(evt)" onmouseout="recoverPath(evt)" fill="rgb(236,237,234)" d="M  37,191l 0,5 1,0 1,1 4,0 1,-1 4,0 1,1 2,0 1,-1 1,0 0,-3 -1,-1 0,-1Z"/>
<path onmouseover="hoverPath(evt)" onmouseout="recoverPath(evt)" fill="rgb(252,252,251)" d="M  55,15l 0,1 1,1 1,1 0,1 1,1 1,1 0,1 1,0 1,1 1,0 1,1 0,2 2,2 1,1 1,1 0,1 1,1 1,1 1,1 1,1 1,0 -1,-1 -1,-1 -1,-1 -1,-1 0,-2 -1,0 -1,-1 -1,-1 -1,-1 -1,-3 -2,-1 -1,-1 -1,-1 -1,-1 0,-1 -1,-1 -1,-1 -1,-1 1,-3 1,0 1,-1 3,0 1,-1 3,0 1,-1 3,0 1,-1 3,0 1,-1 3,0 1,-1 2,0 1,-1 3,0 0,-1 -3,0 -1,1 -5,0 -1,-1 0,-4 -2,0 0,2 -1,1 -1,1 -1,0 -1,1 -2,0 1,1 0,2 -11,4 -1,3 10,-6 -4,0 -1,1 -2,0 -1,1 -4,0 -1,1 0,1 9,-3 4,-1 -10,6Z"/>
<path onmouseover="hoverPath(evt)" onmouseout="recoverPath(evt)" fill="rgb(237,235,225)" d="M  59,16l 1,1 0,1 1,1 1,1 1,1 1,0 1,1 0,2 1,1 1,1 1,1 1,0 1,1 0,2 1,1 1,1 1,1 1,1 0,1 1,1 1,1 1,1 1,1 0,4 1,1 2,0 1,1 0,3 1,1 0,1 1,1 1,1 1,1 1,0 1,1 0,2 1,0 1,1 0,2 1,0 1,1 1,1 1,1 0,1 5,0 1,-1 8,0 0,-1 -1,-1 0,-2 -1,-1 0,-1 -1,-1 0,-1 -1,-1 0,-1 -1,0 -1,-1 0,-5 -1,-1 -1,-1 -1,-1 0,-3 -1,-1 0,-4 -2,0 -1,-1 0,-2 -1,0 -1,-1 0,-4 -1,-1 0,-2 -1,-1 0,-1 -1,-1 0,-1 -1,-1 0,-1 -1,-1 0,-1 -1,-1 0,-1 -1,-1 0,-2 -1,-1 0,-1 -4,0 -1,-1 -1,0 -1,1 -3,0 -1,1 -3,0 -1,1 -3,0 -1,1 -3,0 -1,1 -3,0 -1,1 -1,0 1,1 1,1 17,1 1,-1 2,0 1,1 0,2 -1,1 -2,0 -1,-1 0,-2 -17,-1Z"/>
<path onmouseover="hoverPath(evt)" onmouseout="recoverPath(evt)" fill="rgb(240,238,227)" d="M  68,238l -1,0 -1,1 0,1 -1,1 0,14 17,0 0,-5 -1,-1 0,-6 1,-1 0,-4 1,-1 2,0 1,1 0,4 1,0 1,1 1,-1 1,0 0,-7 1,-1 0,-4 -8,0 -1,1 -2,0 -1,-1 0,1 2,1 0,2 -1,1 -8,0 -1,1 -1,0 -2,2Z"/>
<path onmouseover="hoverPath(evt)" onmouseout="recoverPath(evt)" fill="rgb(243,241,233)" d="M  99,230l -1,0 0,5 -1,1 0,2 1,1 0,0 1,1 9,0 1,-1 4,0 1,1 0,2 -1,1 -1,0 -1,1 -13,0 0,6 11,0 0,-1 1,-1 0,-1 1,-1 10,0 1,1 0,2 8,0 1,1 0,2 1,0 1,1 0,2 75,0 0,-1 -1,-1 0,-8 1,-1 -2,0 -1,-1 0,-8 -1,0 -1,1 -2,0 -1,-1 0,-4 -2,0 -1,-1 -7,0 0,1 1,1 0,0 1,1 1,1 1,1 1,1 1,1 0,1 1,1 0,2 1,1 1,1 0,3 -1,1 0,3 -1,1 -2,0 -1,-1 -1,-1 -1,-1 0,-1 -1,-1 0,-1 -1,-1 -1,-1 -1,-1 -1,0 -1,-1 0,-1 -1,-1 -2,-2 0,-2 1,-1 -1,-1 0,-2 -1,0 -1,-1Z"/>
<path onmouseover="hoverPath(evt)" onmouseout="recoverPath(evt)" fill="rgb(233,231,222)" d="M  125,49l 2,0 1,-1 1,0 0,-14 -1,-1 0,-2 -1,-1 0,-5 1,-1 0,-1 -1,-1 0,-2 -1,-1 0,-4 -1,1 -3,0 -1,-1 0,-3 1,-1 0,-4 -1,1 -1,0 -1,1 -4,0 -1,-1 -1,0 0,2 -1,1 -3,0 -1,-1 0,4 -1,1 -1,0 -3,3 -1,1 0,4 1,1 0,0 1,1 1,1 0,6 1,0 1,1 0,1 2,0 1,1 0,3 1,0 1,1 1,1 0,1 1,1 2,0 1,1 0,2 -1,1 1,1 0,1 1,0 1,1 1,0 1,1 1,0 1,-1Z"/>
<path onmouseover="hoverPath(evt)" onmouseout="recoverPath(evt)" fill="rgb(242,240,230)" d="M  167,120l 0,1 1,1 1,1 1,1 1,1 1,1 1,1 1,1 1,0 1,1 0,2 1,1 0,1 1,0 1,1 1,1 1,1 0,3 1,1 1,1 1,-1 3,0 1,1 1,0 1,1 15,0 1,-1 3,0 1,-1 0,-18 -1,0 -1,-1 -16,0 -1,-1 0,-1 -1,-1 -1,0 -1,-1 -4,0 -1,-1 -14,0 -1,1 -1,0 -1,1 0,1 1,1Z"/>
<path onmouseover="hoverPath(evt)" onmouseout="recoverPath(evt)" fill="rgb(225,229,228)" d="M  186,209l 3,0 0,-1 1,-1 2,0 0,-3 -1,-1 0,-5 -1,-1 0,-2 -1,-1 0,-2 -1,-1 0,-3 -1,-1 0,-2 -1,-1 0,-2 -1,-1 0,-3 -1,-1 0,-2 -1,-1 0,-1 -1,-1 0,-1 -1,-1 0,-1 -1,-1 0,-2 -1,-1 0,-1 -1,-1 0,-1 -1,-1 -1,0 -1,-1 -1,0 -1,1 -2,0 -1,1 -2,0 0,1 1,1 0,1 1,1 1,1 1,1 1,1 0,2 -1,1 -2,0 -1,-1 -2,0 -1,-1 0,2 1,1 0,1 1,1 0,2 1,1 0,1 1,1 0,3 1,1 0,2 1,0 1,1 0,1 1,1 0,1 1,1 0,2 1,1 0,2 1,1 0,3 -1,1 0,10 8,0 1,-1 1,-1 -21,-39 1,-1 0,0 -1,-1 0,-1 -1,-1 0,-2 -2,0 -1,1 -3,0 0,1 2,0 1,1 1,0 1,1 1,1 1,1 21,39Z"/>
<path onmouseover="hoverPath(evt)" onmouseout="recoverPath(evt)" fill="rgb(243,242,233)" d="M  206,231l -2,0 0,2 2,0 1,1 0,8 2,0 1,1 17,0 1,1 2,0 1,1 1,1 9,0 1,1 1,0 1,1 1,0 1,1 1,0 1,1 3,0 1,1 3,0 0,-20 -4,0 -1,-1 -1,1 -23,0 -1,-1 -18,0 -1,1Z"/>
<path onmouseover="hoverPath(evt)" onmouseout="recoverPath(evt)" fill="rgb(240,238,226)" d="M  212,159l 0,15 1,1 0,1 7,0 1,-1 4,0 1,1 0,2 -1,1 -1,1 -10,0 -1,1 -2,0 -1,-1 -1,-1 0,-1 -1,-1 0,-13 -1,-1 0,-4 -1,-1 0,-1 -19,0 1,1 0,4 7,0 1,1 0,2 -1,1 -4,0 0,2 1,1 0,1 1,1 0,1 1,1 0,3 1,1 0,2 1,1 0,2 1,1 0,3 1,1 0,2 1,1 0,3 -1,1 0,1 1,1 0,1 1,1 0,1 1,1 0,2 1,0 1,1 1,0 0,-1 -1,-1 -1,0 1,1 -2,-3 -1,-2 0,-4 1,-1 1,-1 1,-1 1,-1 1,-1 0,-1 1,-1 0,-3 1,-1 2,0 1,1 0,1 1,1 2,0 1,1 3,0 1,-1 7,0 0,-1 1,-1 0,-1 1,-1 2,0 1,1 0,3 1,1 0,1 2,0 1,1 2,0 0,-4 -1,0 -1,-1 -1,0 -1,-1 0,-2 1,-1 11,0 0,-1 1,-1 0,-20 -2,0 -1,-1 -1,0 -1,1 -28,0Z"/>
</svg>