<svg width="256" height="256" xmlns="http://www.w3.org/2000/svg"><script> 
var tempColor;
function hoverPath(evt){
obj = evt.target;
tempColor = obj.getAttribute("fill");
obj.setAttribute("fill","red");
//alert(tempColor);
//obj.setAttribute("stroke","red");}
function recoverPath(evt){
obj = evt.target;
obj.setAttribute("fill", tempColor);
//obj.setAttribute("stroke", tempColor);
}</script><path onmouseover="hoverPath(evt)" onmouseout="recoverPath(evt)" fill="rgb(244,243,236)" d="M  199,74l 0,0 -1,-1 -1,-1 -1,-1 0,-1 -1,-1 0,-5 1,-1 0,-4 1,-1 0,-2 1,-1 0,-2 1,-1 0,-1 1,-1 0,-1 1,-1 0,-6 1,-1 0,-6 1,-1 0,-3 1,-1 0,-5 1,-1 0,-7 1,-1 0,-8 1,-1 0,-4 1,-1 0,-2 -53,0 0,2 1,1 0,6 1,1 0,6 1,1 0,9 1,1 0,8 1,1 0,9 1,1 0,8 1,1 0,6 1,1 0,6 1,1 0,8 1,1 0,10 1,1 0,5 1,1 0,4 1,1 0,5 1,1 0,6 1,1 0,7 1,1 0,7 1,1 0,7 1,1 0,6 1,1 0,3 3,0 1,-1 2,0 1,-1 2,0 1,-1 2,0 1,-1 2,0 1,-1 2,0 1,-1 3,0 1,-1 2,0 1,-1 2,0 1,-1 5,0 -1,-1 0,0 -1,-1 0,-1 -1,-1 0,-2 1,-1 2,0 1,1 1,1 1,-1 0,-1 1,-1 0,-1 1,-1 0,-1 1,-1 1,0 1,-1 2,0 1,-1 11,0 1,-1 3,0 -4,-1 0,0 -1,-1 0,-2 -1,-1 0,4 -1,1 3,0 -12,1 -5,0 -1,-1 0,-2 -1,-1 0,-2 -1,-1 0,-3 -1,-1 0,-2 -1,-1 0,-10 -1,-1 0,-3 -1,-1 0,-2 -1,-1 0,-5 1,-1 0,-3 -1,-1 0,-4 -1,-1 -1,0 -1,-1 -1,0 -1,-1 -1,-1Z"/>
<path onmouseover="hoverPath(evt)" onmouseout="recoverPath(evt)" fill="rgb(244,243,237)" d="M  0,1l 0,139 2,0 1,-1 3,0 1,-1 2,0 1,-1 3,0 1,-1 3,0 1,-1 4,0 1,-1 3,0 1,-1 3,0 1,-1 2,0 1,-1 2,0 1,-1 2,0 1,-1 2,0 1,-1 2,0 1,-1 1,0 1,-1 2,0 1,-1 1,0 1,-1 1,0 1,-1 2,0 1,-1 1,0 1,-1 1,0 1,-1 2,0 1,-1 1,0 1,-1 1,0 1,-1 1,0 1,-1 2,0 1,-1 1,0 1,-1 1,0 1,-1 1,0 1,-1 2,0 1,-1 11,0 1,1 1,1 1,1 1,1 1,1 1,1 1,1 0,1 1,1 1,1 0,1 1,1 0,1 1,1 4,0 1,-1 3,0 1,-1 3,0 1,-1 3,0 1,-1 3,0 1,-1 3,0 1,-1 2,0 1,-1 3,0 1,-1 2,0 1,-1 2,0 1,-1 3,0 1,-1 2,0 1,-1 3,0 1,-1 2,0 1,-1 0,-10 -1,-1 0,-6 -1,-1 0,-6 -1,-1 0,-6 -1,-1 0,-7 -1,-1 0,-9 -1,-1 0,-9 -1,-1 0,-9 -1,-1 0,-6 -1,-1 0,-6 -1,-1 0,-7 -1,-1 0,-7 -1,-1 0,-11 -144,0 -1,1Z"/>
<path onmouseover="hoverPath(evt)" onmouseout="recoverPath(evt)" fill="rgb(242,242,235)" d="M  12,225l 0,4 1,1 0,5 1,1 0,5 1,1 0,5 1,1 0,7 71,0 0,-2 -1,-1 0,0 -1,-1 -1,-1 -1,-1 -1,-1 0,-1 -1,-1 -1,-1 0,-2 1,-1 2,0 1,1 1,1 1,1 1,0 1,1 0,1 1,1 1,1 1,1 1,1 1,-1 2,0 0,-2 1,-1 1,-1 2,0 1,-1 1,-1 3,0 1,-1 1,-1 -1,-1 0,-2 1,-1 5,0 1,1 0,1 1,0 1,-1 1,0 0,-1 1,-1 -1,-1 0,-2 1,-1 0,-1 1,-1 0,-1 1,-1 1,-1 1,-1 1,-1 1,-1 1,-1 0,-1 1,-1 0,-1 1,-1 1,-1 4,0 1,-1 0,-1 1,-1 1,0 1,-1 5,0 0,-1 1,-1 -1,-1 0,-2 -1,-1 0,-2 1,-1 0,-1 1,-1 1,-1 2,0 1,-1 2,0 1,-1 3,0 1,-1 3,0 1,-1 5,0 1,-1 7,0 1,1 0,4 -1,1 -2,0 -1,-1 -1,-1 -1,1 -1,0 0,2 -1,1 -1,1 -1,0 0,1 1,1 0,4 -1,1 0,1 2,0 1,1 0,3 1,1 0,3 1,1 1,1 2,0 1,1 0,2 -1,1 -1,0 -1,1 0,1 1,1 0,3 11,0 1,-1 0,-1 -1,-1 0,-6 -1,-1 0,-6 -1,-1 0,-5 -1,-1 0,-6 -1,-1 0,-3 -1,-1 0,-2 -1,-1 0,-2 1,-1 -1,-1 0,-7 -1,-1 -2,0 -1,1 -3,0 -1,1 -3,0 -1,1 -3,0 -1,1 -3,0 -1,1 -3,0 -1,1 -3,0 -1,1 -3,0 -1,1 -3,0 -1,1 -3,0 -1,1 -3,0 -1,1 -3,0 -1,1 -3,0 -1,1 -3,0 -1,1 -3,0 -1,1 -2,0 -1,1 -3,0 -1,1 -3,0 -1,1 -4,0 -1,1 -3,0 -1,1 -3,0 -1,1 -4,0 -1,1 -3,0 -1,1 -2,0 -1,1 -4,0 -1,1 -2,0 -1,1 -4,0 -1,1 -4,0 -1,1 -2,0 -1,1 -3,0 -1,1 -3,0 -1,1 -4,0 -1,1 -3,0 -1,1 -3,0 -1,1 -4,0 -1,1 -3,0 -1,1 -3,0 -1,1 -3,0 -1,1 -3,0 -1,1 105,0 -1,1 -2,0 -1,-1 0,-2 1,-1 2,0 1,1 0,2Z"/>
<path onmouseover="hoverPath(evt)" onmouseout="recoverPath(evt)" fill="rgb(243,241,232)" d="M  107,177l 0,2 1,1 0,1 1,1 2,0 1,1 1,-1 4,0 1,-1 3,0 1,-1 3,0 1,-1 4,0 1,-1 3,0 1,-1 4,0 1,-1 3,0 1,-1 3,0 1,-1 3,0 1,-1 2,0 1,-1 3,0 1,-1 3,0 1,-1 4,0 1,-1 3,0 1,-1 3,0 1,-1 3,0 1,-1 3,0 1,-1 4,0 1,-1 3,0 1,-1 3,0 1,-1 4,0 1,-1 3,0 1,-1 3,0 1,-1 4,0 1,-1 4,0 0,-1 -1,-1 0,-2 -1,-1 0,-2 -2,0 -1,-1 -2,0 -1,1 -5,0 -1,1 -3,0 -1,1 -4,0 -1,1 -2,0 -1,1 -2,0 -1,1 -1,0 -1,1 -2,0 -1,1 -1,0 -1,1 -2,0 -1,1 -3,0 -1,1 -19,0 -1,-1 -2,0 -1,1 -3,0 -1,1 -2,0 -1,1 -1,0 0,2 -1,1 -1,0 -1,1 -1,0 -1,1 -1,0 -1,1 -1,0 -1,1 -1,0 -1,1 -2,0 -1,1 -4,0 -1,1 -14,0 -1,-1 -3,0 0,2 -1,1 -1,0 0,1 1,1Z"/>
<path onmouseover="hoverPath(evt)" onmouseout="recoverPath(evt)" fill="rgb(171,198,238)" d="M  210,1l 0,2 -1,1 0,4 -1,1 0,8 -1,1 0,7 -1,1 0,5 -1,1 0,3 -1,1 0,6 -1,1 0,6 -1,1 0,1 -1,1 0,1 -1,1 0,2 -1,1 0,2 -1,1 0,4 -1,1 0,3 1,1 0,1 1,1 1,1 1,1 1,1 1,0 1,1 1,0 1,1 1,1 0,4 1,1 0,5 -1,1 0,3 1,1 0,2 1,1 0,3 1,1 0,10 1,1 0,2 1,1 0,3 1,1 0,2 1,1 0,2 3,0 0,-1 -1,-1 0,-1 -1,-1 0,-1 -1,-1 0,-2 -1,-1 0,-2 -1,-1 0,-9 -1,-1 0,-6 -1,-1 0,-2 -1,-1 0,-14 -1,-1 -1,-1 -1,-1 -1,-1 -1,-1 -1,-1 -1,-1 0,-1 -1,-1 0,-6 1,-1 0,-2 1,-1 0,-1 1,-1 1,-1 0,-1 1,-1 0,-1 1,-1 0,-2 1,-1 0,-3 -1,-1 0,-9 1,-1 0,-2 1,-1 0,-2 1,-1 0,-7 1,-1 0,-11 1,-1 0,-5 1,-1 0,-1 -2,0 -1,1Z"/>
<path onmouseover="hoverPath(evt)" onmouseout="recoverPath(evt)" fill="rgb(243,242,233)" d="M  215,1l 0,1 -1,1 0,5 -1,1 0,11 -1,1 0,7 -1,1 0,2 -1,1 0,2 -1,1 0,7 1,1 0,5 -1,1 0,2 -1,1 0,1 -1,1 0,1 -1,1 -1,1 0,1 -1,1 0,2 -1,1 0,4 1,1 0,1 1,1 3,3 1,1 1,1 1,1 0,14 1,1 0,2 1,1 0,6 1,1 0,9 1,1 0,2 1,1 0,2 1,1 0,1 1,1 0,1 1,1 0,2 6,0 1,-1 0,-3 -1,-1 0,-3 1,-1 0,-2 -1,-1 0,-1 -1,-1 0,-1 -1,-1 0,-3 -1,-1 0,-15 -1,-1 0,-6 -2,0 -1,-1 0,-2 1,-1 0,-1 -1,-1 0,-1 -2,0 -1,-1 0,-1 -1,-1 0,-1 -1,-1 0,-2 1,-1 0,-7 -1,-1 0,-4 1,-1 1,-1 0,-3 1,-1 0,-4 1,-1 2,0 0,-7 1,-1 0,-9 -1,-1 0,-5 1,-1 2,0 0,-2 1,-1 0,-3 1,-1 0,-5 1,-1 0,-5 -9,0 -1,1Z"/>
<path onmouseover="hoverPath(evt)" onmouseout="recoverPath(evt)" fill="rgb(176,200,236)" d="M  215,129l 0,0 -1,1 0,1 -1,1 0,1 -1,1 0,2 1,1 1,1 0,1 1,1 1,1 0,1 1,1 4,0 1,-1 2,0 1,-1 4,0 1,-1 4,0 1,-1 4,0 1,-1 2,0 1,-1 2,0 1,-1 2,0 1,-1 1,0 1,-1 4,0 0,-13 -1,0 -1,1 -2,0 0,1 1,1 0,0 1,1 0,2 -1,1 -2,0 -1,1 -2,0 -1,1 -1,1 -1,0 -1,1 -2,0 -1,1 -2,0 -1,1 -3,0 -1,1 -3,0 -1,1 -2,0 -1,1 -8,0 -1,-1 -1,-1 0,-2 1,-1 1,-1 0,-4 -1,0 -2,2Z"/>
<path onmouseover="hoverPath(evt)" onmouseout="recoverPath(evt)" fill="rgb(242,241,232)" d="M  223,148l -1,0 -1,1 0,3 1,1 0,0 1,1 0,3 1,-1 2,0 1,-1 4,0 1,-1 3,0 1,-1 3,0 1,-1 4,0 1,-1 3,0 1,-1 3,0 1,-1 2,0 0,-10 -2,0 -1,1 -2,0 -1,1 -2,0 -1,1 -2,0 -1,1 -3,0 -1,1 -4,0 -1,1 -4,0 -1,1 -3,0 -1,1 -1,0 -1,1Z"/>
<path onmouseover="hoverPath(evt)" onmouseout="recoverPath(evt)" fill="rgb(244,243,235)" d="M  228,0l -1,0 0,6 -1,1 0,5 -1,1 0,3 -1,1 0,2 -1,1 -2,0 0,3 1,1 0,11 -1,1 0,7 -1,1 -2,0 0,4 -1,1 0,3 -1,1 -1,1 0,2 1,1 0,8 1,1 0,1 1,1 0,1 1,1 0,1 1,1 0,1 1,1 0,3 -1,1 2,0 1,1 0,6 1,1 0,15 1,1 0,3 1,1 0,1 1,1 0,1 1,1 0,4 -1,1 0,1 2,0 1,1 1,1 0,2 1,1 3,0 1,1 0,2 -1,1 -3,0 -1,1 -11,0 0,6 -1,1 -1,1 1,1 6,0 1,-1 2,0 1,-1 3,0 1,-1 3,0 1,-1 2,0 1,-1 2,0 1,-1 1,0 2,-2 2,0 1,-1 2,0 -1,-1 0,0 -1,-1 0,-3 1,-1 2,0 1,-1 2,0 0,-119Z"/>
<path onmouseover="hoverPath(evt)" onmouseout="recoverPath(evt)" fill="rgb(244,243,235)" d="M  0,150l 0,19 2,0 1,1 0,5 1,1 0,4 1,1 0,4 1,1 0,5 1,1 0,5 1,1 0,5 1,1 0,5 1,1 0,3 2,0 1,-1 3,0 1,-1 3,0 1,-1 4,0 -5,-1 0,-5 -1,-1 -1,-1 -1,-1 -1,0 -1,-1 -1,-1 -1,-1 -1,-1 0,-11 1,-1 0,-3 1,-1 1,-1 6,0 1,1 0,1 1,1 0,13 1,1 0,1 1,1 0,1 1,1 1,1 1,1 4,0 1,-1 5,0 1,-1 6,0 1,-1 4,0 1,-1 2,0 1,-1 1,0 1,-1 1,0 1,-1 2,0 1,-1 1,0 1,-1 1,0 1,-1 1,0 0,-1 -1,-1 0,-1 -1,-1 0,-2 1,-1 0,-4 -3,0 -1,1 -3,0 -1,1 -2,0 -1,1 -3,0 0,2 -1,1 -3,0 -1,-1 -8,0 -1,-1 0,-2 -1,-1 -2,0 -1,-1 0,-11 -1,-1 0,-7 -1,-1 0,-9 1,-1 0,-1 1,-1 1,-1 1,-1 1,-1 1,0 1,-1 1,0 1,-1 2,0 1,-1 13,0 0,-2 1,-1 3,0 1,1 1,-1 1,0 1,-1 1,-1 1,0 1,-1 1,0 1,-1 1,0 1,-1 1,-1 1,0 1,-1 4,0 1,1 2,0 1,1 2,0 1,1 1,0 1,1 1,1 0,1 1,1 0,8 -1,1 0,1 1,1 0,2 -1,1 0,1 -1,1 -2,0 0,3 -1,1 0,5 1,1 0,3 1,1 0,5 -1,1 2,0 1,-1 3,0 1,-1 8,0 1,-1 3,0 1,-1 -9,0 -1,-1 0,-2 -1,-1 0,-11 1,-1 0,-5 1,-1 0,-4 1,-1 0,-8 -1,-1 0,-4 -1,-1 0,-1 -1,-1 -1,-1 -1,-1 -1,-1 -1,-1 -1,-1 -1,-1 -1,0 -1,-1 -6,0 -1,1 -1,0 -1,1 -2,0 -1,1 -1,0 -1,1 -1,0 -1,1 -1,0 -1,1 -1,0 -1,1 -1,0 -1,1 -1,0 -1,1 -1,0 -1,1 -2,0 -1,1 -1,0 -1,1 -2,0 -1,1 -2,0 -1,1 -2,0 -1,1 -2,0 -1,1 -2,0 -1,1 -2,0 -1,1 -3,0 -1,1 -2,0 -1,1 -3,0 -1,1 -2,0 -1,1 -4,0 -1,1 -4,0 -1,1 -4,0 -1,1 -2,0 -1,1 -4,0 -1,1Z"/>
<path onmouseover="hoverPath(evt)" onmouseout="recoverPath(evt)" fill="rgb(179,201,229)" d="M  75,194l -1,0 0,2 3,0 1,-1 3,0 1,-1 3,0 1,-1 3,0 1,-1 3,0 1,-1 3,0 1,-1 3,0 1,-1 3,0 1,-1 3,0 1,-1 4,0 1,-1 3,0 1,-1 4,0 1,-1 3,0 1,-1 3,0 1,-1 3,0 1,-1 4,0 1,-1 3,0 1,-1 3,0 1,-1 2,0 1,-1 3,0 1,-1 3,0 1,-1 3,0 1,-1 3,0 1,1 0,1 1,0 1,-1 5,0 1,-1 2,0 1,-1 3,0 1,-1 3,0 1,-1 2,0 1,-1 4,0 1,-1 3,0 1,-1 3,0 1,-1 3,0 1,-1 3,0 1,-1 3,0 1,-1 3,0 1,-1 1,0 1,-1 2,0 1,-1 7,0 1,-1 3,0 1,-1 4,0 1,-1 2,0 1,-1 3,0 1,-1 3,0 1,-1 3,0 0,-4 -1,0 -1,1 -3,0 -1,1 -3,0 -1,1 -4,0 -1,1 -3,0 -1,1 -3,0 -1,1 -4,0 -1,1 -2,0 -1,1 -2,0 -1,-1 0,1 -1,1 -4,0 -1,1 -4,0 -1,1 -3,0 -1,1 -3,0 -1,1 -4,0 -1,1 -3,0 -1,1 -3,0 -1,1 -4,0 -1,1 -3,0 -1,1 -3,0 -1,1 -3,0 -1,1 -3,0 -1,1 -4,0 -1,1 -3,0 -1,1 -3,0 -1,1 -2,0 -1,1 -3,0 -1,1 -3,0 -1,1 -3,0 -1,1 -4,0 -1,1 -3,0 -1,1 -4,0 -1,1 -3,0 -1,1 -3,0 -1,1 -4,0 -1,1 -2,0 -1,-1 -2,0 -1,-1 -1,-1 0,-1 -1,-1 0,-2 -1,-1 0,-1 -2,0 -1,1 -2,0 0,1 1,1 0,6 -2,2 -2,0 -1,1 -1,0 -1,1 -2,0 -1,1 -2,0 -1,1 -1,0 -1,1 -3,0 -1,1 -5,0 -1,1 146,-38 0,-1 -1,-1 0,1 1,1 -146,38Z"/>
<path onmouseover="hoverPath(evt)" onmouseout="recoverPath(evt)" fill="rgb(248,249,245)" d="M  110,254l -1,0 0,1 8,0 0,-2 1,-1 1,0 1,-1 1,0 1,-1 1,0 1,-1 2,0 1,-1 1,0 1,-1 3,0 1,-1 4,0 1,-1 2,0 1,-1 5,0 1,-1 3,0 1,-1 5,0 1,-1 4,0 1,-1 6,0 1,-1 10,0 1,1 1,1 0,1 1,1 0,3 1,1 0,8 2,0 0,-2 -1,-1 0,-5 -1,-1 0,-6 1,-1 9,0 1,-1 21,0 1,1 39,0 0,-2 -15,0 -1,-1 -6,0 -1,-1 0,-7 1,-1 11,0 -8,-1 -15,0 8,1 1,0 1,1 0,7 -1,1 -48,0 -1,-1 0,-4 -1,-1 0,-5 -1,-1 0,-6 -1,-1 0,-5 1,-1 1,-1 5,0 1,-1 11,0 1,1 0,1 1,1 0,4 1,-5 0,-1 1,-1 29,0 1,1 5,0 1,1 4,0 1,1 7,0 1,1 3,0 1,1 1,0 0,-14 -8,0 -1,-1 0,-4 -1,3 0,0 -1,1 -1,1 -4,0 -1,-1 -7,0 -1,-1 -19,0 -1,1 -14,0 -1,-1 -1,-1 0,-3 -1,1 0,0 -1,1 -10,0 -1,-1 0,-2 -1,0 -1,1 -2,0 -1,-1 -1,-1 0,-1 -1,-1 0,-6 -2,0 0,1 1,1 0,7 1,1 0,2 -1,1 1,1 0,2 1,1 0,3 1,1 0,6 1,1 0,5 1,1 0,6 1,1 0,6 1,1 0,3 -1,1 -1,1 -13,0 -1,-1 0,0 -1,1 -1,1 -3,0 -1,1 -3,0 -1,1 -5,0 -1,1 -4,0 -1,1 -4,0 -1,1 -3,0 -1,1 -3,0 -1,1 -2,0 -1,1 -6,0 -1,-1 0,3 -1,1 -1,0 -1,1 -1,0 -1,1 -1,0 -1,1 -1,0 -2,2Z"/>
<path onmouseover="hoverPath(evt)" onmouseout="recoverPath(evt)" fill="rgb(229,238,232)" d="M  121,229l 0,0 -1,1 -1,1 0,1 -1,1 0,1 -1,1 1,1 0,2 -1,1 0,1 -1,1 -1,0 -1,1 -3,0 -1,-1 0,-1 -3,0 1,1 0,2 -1,1 -1,1 -1,1 -3,0 -1,1 -1,1 -2,0 -1,1 0,2 -1,1 -2,0 -1,1 -2,0 -1,-1 -1,-1 -1,-1 -1,-1 -1,-1 0,-1 -1,0 -1,-1 -1,-1 -1,-1 2,3 1,1 1,1 1,1 1,1 1,1 0,3 18,0 0,-2 1,-1 1,0 1,-1 1,-1 1,0 1,-1 1,0 1,-1 1,0 1,-1 1,0 0,-3 -1,-1 0,-2 1,-1 2,0 1,1 0,1 1,1 0,1 4,0 1,-1 2,0 1,-1 3,0 1,-1 3,0 1,-1 4,0 1,-1 4,0 1,-1 5,0 1,-1 3,0 1,-1 3,0 1,-1 0,-3 1,-1 0,-2 1,-1 1,-1 -1,0 -1,-1 0,0 -1,-1 -1,-1 0,-3 -1,-1 0,-3 -2,0 -1,-1 0,-3 1,-1 0,-2 -1,-1 0,-3 1,-1 1,0 1,-1 0,-2 1,-1 1,0 1,-1 2,0 1,1 0,0 1,1 0,-2 -5,0 -2,1 -4,0 -1,1 -3,0 -1,1 -3,0 -1,1 -2,0 -1,1 -2,0 -1,1 0,1 -1,1 1,1 0,2 1,1 0,2 -1,1 0,1 -1,1 -5,0 -1,1 -1,0 0,1 -1,1 -1,1 -4,0 -1,1 0,1 -1,1 0,1 -1,1 -2,2 -1,1 28,2 -1,1 -2,0 -1,-1 0,-2 1,-1 2,0 1,1 0,2 -28,-2Z"/>
<path onmouseover="hoverPath(evt)" onmouseout="recoverPath(evt)" fill="rgb(242,241,230)" d="M  125,255l 56,0 0,-7 -1,-1 0,-3 -1,-1 0,-1 -1,-1 -8,0 -1,1 -6,0 -1,1 -4,0 -1,1 -5,0 -1,1 -3,0 -1,1 -5,0 -1,1 -2,0 -1,1 -4,0 -1,1 -3,0 -1,1 -1,0 -1,1 -2,0 -1,1 -1,0 -1,1 -1,0 -1,1 -1,0 0,1Z"/>
<path onmouseover="hoverPath(evt)" onmouseout="recoverPath(evt)" fill="rgb(215,235,234)" d="M  235,170l -3,0 -1,1 -2,0 -1,1 -3,0 -1,1 -4,0 -1,1 -3,0 -1,1 -3,0 -1,1 -3,0 -1,1 -2,0 -1,1 -4,0 -1,1 -3,0 -1,1 -3,0 -1,1 -3,0 -1,1 -3,0 -1,1 -3,0 -1,1 -1,0 -1,1 -1,0 0,4 1,1 0,1 1,1 1,-1 3,0 1,1 0,2 8,0 1,-1 1,-1 4,0 1,-1 1,0 1,-1 2,0 1,-1 3,0 1,-1 3,0 1,-1 3,0 1,-1 2,0 0,-2 1,-1 4,0 1,1 1,0 0,-2 1,-1 4,0 1,1 1,0 0,-2 1,-1 5,0 1,1 3,0 1,-1 3,0 1,1 1,1 0,-1 1,-1 1,-1 1,0 0,-2 1,-1 4,0 0,-10 -2,0 -1,1 -2,0 -1,1 -4,0 -1,1 -4,0 -1,1 -3,0 -1,1Z"/>
<path onmouseover="hoverPath(evt)" onmouseout="recoverPath(evt)" fill="rgb(171,198,238)" d="M  0,143l 0,4 4,0 1,-1 2,0 1,-1 4,0 1,-1 4,0 1,-1 4,0 1,-1 2,0 1,-1 3,0 1,-1 2,0 1,-1 3,0 1,-1 2,0 1,-1 2,0 1,-1 2,0 1,-1 2,0 1,-1 2,0 1,-1 2,0 1,-1 1,0 1,-1 2,0 1,-1 1,0 1,-1 1,0 1,-1 1,0 1,-1 1,0 1,-1 1,0 1,-1 1,0 1,-1 1,0 1,-1 2,0 1,-1 1,0 1,-1 8,0 1,1 1,0 1,1 1,1 1,1 1,1 1,1 1,1 1,1 1,1 0,1 1,1 0,4 1,1 0,10 -1,1 0,4 -1,1 0,5 -1,1 0,9 1,1 0,2 6,0 0,-6 -1,-1 0,-4 -1,-1 0,-6 1,-1 0,-4 1,-1 0,-13 1,-1 1,-1 2,0 1,-1 3,0 1,-1 2,0 1,-1 3,0 1,-1 3,0 1,-1 2,0 1,-1 3,0 1,-1 3,0 1,-1 3,0 1,-1 2,0 1,-1 3,0 1,-1 3,0 1,-1 2,0 1,-1 6,0 1,1 1,1 1,1 0,6 1,1 0,8 1,1 0,8 1,1 0,4 1,1 0,1 1,1 1,0 1,1 0,1 7,0 1,-1 3,0 1,-1 2,0 1,-1 1,0 1,-1 1,0 1,-1 2,0 1,-1 2,0 1,-1 3,0 1,-1 3,0 1,-1 4,0 1,-1 5,0 1,-1 0,-1 -1,0 -1,-1 -1,-1 0,-1 -1,-1 -4,0 -1,1 -2,0 -1,1 -2,0 -1,1 -3,0 -1,1 -2,0 -1,1 -2,0 -1,1 -2,0 -1,1 -2,0 -1,1 -2,0 -1,1 -5,0 -1,-1 0,-3 -1,-1 0,-6 -1,-1 0,-7 -1,-1 0,-7 -1,-1 0,-7 -1,-1 0,-6 -1,-1 0,-5 -1,-1 0,-4 -1,-1 0,-5 -1,-1 0,-10 -1,-1 0,-8 -1,-1 0,-6 -1,-1 0,-6 -1,-1 0,-8 -1,-1 0,-9 -1,-1 0,-8 -1,-1 0,-9 -1,-1 0,-6 -1,-1 0,-6 -1,-1 0,-3 -6,0 0,10 1,1 0,7 1,1 0,7 1,1 0,6 1,1 0,6 1,1 0,9 1,1 0,9 1,1 0,9 1,1 0,7 1,1 0,6 1,1 0,6 1,1 0,6 1,1 0,12 -1,1 -1,1 -2,0 -1,1 -3,0 -1,1 -2,0 -1,1 -3,0 -1,1 -2,0 -1,1 -2,0 -1,1 -3,0 -1,1 -2,0 -1,1 -3,0 -1,1 -3,0 -1,1 -3,0 -1,1 -3,0 -1,1 -3,0 -1,1 -6,0 -1,-1 -1,-1 0,-1 -1,-1 0,-1 -1,-1 -1,-1 0,-1 -1,-1 -1,-1 -1,-1 -1,-1 -1,-1 -1,-1 -9,0 -1,1 -2,0 -1,1 -1,0 -1,1 -1,0 -1,1 -1,0 -1,1 -2,0 -1,1 -1,0 -1,1 -1,0 -1,1 -1,0 -1,1 -2,0 -1,1 -1,0 -1,1 -1,0 -1,1 -2,0 -1,1 -1,0 -1,1 -1,0 -1,1 -2,0 -1,1 -1,0 -1,1 -2,0 -1,1 -2,0 -1,1 -2,0 -1,1 -2,0 -1,1 -2,0 -1,1 -3,0 -1,1 -3,0 -1,1 -4,0 -1,1 -3,0 -1,1 -3,0 -1,1 -2,0 -1,1 -3,0 -1,1 -2,0 -1,1Z"/>
<path onmouseover="hoverPath(evt)" onmouseout="recoverPath(evt)" fill="rgb(247,236,141)" d="M  0,183l 0,72 14,0 0,-6 -1,-1 0,-5 -1,-1 0,-5 -1,-1 0,-5 -1,-1 0,-7 1,-1 4,0 1,-1 3,0 1,-1 3,0 1,-1 3,0 1,-1 4,0 1,-1 3,0 1,-1 3,0 1,-1 4,0 1,-1 3,0 1,-1 3,0 1,-1 2,0 1,-1 4,0 1,-1 4,0 1,-1 2,0 1,-1 4,0 1,-1 2,0 1,-1 3,0 1,-1 4,0 1,-1 3,0 1,-1 3,0 1,-1 4,0 1,-1 3,0 1,-1 3,0 1,-1 2,0 1,-1 3,0 1,-1 3,0 1,-1 3,0 1,-1 3,0 1,-1 3,0 1,-1 3,0 1,-1 3,0 1,-1 3,0 1,-1 3,0 1,-1 3,0 1,-1 3,0 1,-1 3,0 1,-1 3,0 1,-1 3,0 1,-1 3,0 0,-1 1,-1 4,0 1,1 1,-1 1,0 1,-1 3,0 1,-1 3,0 1,-1 3,0 1,-1 3,0 1,-1 3,0 1,-1 4,0 1,-1 2,0 1,-1 3,0 1,-1 3,0 1,-1 3,0 1,-1 4,0 1,-1 3,0 1,-1 2,0 1,-1 3,0 1,-1 3,0 1,-1 4,0 1,-1 4,0 1,-1 2,0 1,-1 3,0 0,-6 -2,0 -1,1 -3,0 -1,1 -3,0 -1,1 -2,0 -1,1 -4,0 -1,1 -3,0 -1,1 -7,0 -1,1 -2,0 -1,1 -1,0 -1,1 -3,0 -1,1 -3,0 -1,1 -3,0 -1,1 -3,0 -1,1 -3,0 -1,1 -3,0 -1,1 -4,0 -1,1 -2,0 -1,1 -3,0 -1,1 -3,0 -1,1 -2,0 -1,1 -5,0 -1,1 -3,0 -1,-1 0,-1 -1,0 -1,1 -3,0 -1,1 -3,0 -1,1 -3,0 -1,1 -2,0 -1,1 -3,0 -1,1 -3,0 -1,1 -4,0 -1,1 -3,0 -1,1 -3,0 -1,1 -3,0 -1,1 -4,0 -1,1 -3,0 -1,1 -4,0 -1,1 -3,0 -1,1 -3,0 -1,1 -3,0 -1,1 -3,0 -1,1 -3,0 -1,1 -3,0 -1,1 -3,0 -1,1 -3,0 -1,1 -5,0 -1,-1 0,-1 -1,0 -1,-1 0,-1 -1,-1 0,-1 -1,-1 0,-1 -1,-1 -1,-1 1,2 1,2 0,1 1,1 0,0 1,2 0,3 -1,1 -1,0 -1,1 -3,0 -1,1 -3,0 -1,1 -5,0 -1,1 -3,0 -1,1 -3,0 -1,1 -3,0 -1,1 -4,0 -1,1 -4,0 -1,1 -4,0 0,2 -1,1 -4,0 -1,1 -3,0 -1,1 -3,0 -1,1 -4,0 -1,-1 0,-3 -1,-1 0,-5 -1,-1 0,-5 -1,-1 0,-5 -1,-1 0,-5 -1,-1 0,-4 -1,-1 0,-4 -1,-1 0,-5 -1,0Z"/>
<path onmouseover="hoverPath(evt)" onmouseout="recoverPath(evt)" fill="rgb(243,241,233)" d="M  36,150l -1,1 -1,1 0,1 -1,1 0,7 1,1 0,7 1,1 0,11 2,0 1,1 1,1 0,2 8,0 1,1 1,0 0,-2 1,-1 3,0 1,-1 2,0 1,-1 3,0 1,-1 5,0 1,1 0,5 1,1 2,2 0,1 1,1 0,1 1,1 0,1 1,-2 1,0 1,-1 5,0 1,-1 3,0 1,-1 1,0 1,-1 2,0 1,-1 2,0 1,-1 1,0 1,-1 2,0 1,-1 0,-4 -1,-1 0,-2 -4,0 -1,1 -3,0 -1,1 -6,0 -1,-1 0,-2 1,-1 2,0 0,-3 -1,-1 0,-3 -1,-1 0,-7 1,-1 0,-3 1,-1 2,0 -1,-1 0,-2 1,-1 0,-2 1,-1 0,-6 -1,-1 0,-1 -1,-1 -1,0 -1,-1 -2,0 -1,-1 -2,0 -1,-1 -2,0 -1,1 -1,0 -1,1 -1,1 -1,0 -1,1 -1,0 -1,1 -1,0 -1,1 -1,1 -1,0 -1,1 -2,0 -1,-1 -1,0 0,2 -1,1 -13,0 -1,1 -2,0 -1,1 -1,0 -1,1 -1,0 -1,1Z"/>
<path onmouseover="hoverPath(evt)" onmouseout="recoverPath(evt)" fill="rgb(171,198,238)" d="M  46,203l -6,0 -1,1 -5,0 -1,1 -6,0 -1,-1 -2,-2 -1,-1 0,-1 -1,-1 0,-1 -1,-1 0,-13 -1,-1 0,-1 -4,0 -1,1 0,3 -1,1 0,9 1,1 0,0 1,1 1,1 1,0 1,1 1,1 1,1 1,1 0,5 3,0 1,-1 4,0 1,-1 4,0 1,-1 4,0 1,-1 -1,0 6,-1 2,0 1,-1 3,0 1,-1 5,0 1,-1 3,0 1,-1 3,0 1,-1 1,0 0,-2 -1,-1 -1,0 -1,1 -1,0 -1,1 -1,0 -1,1 -2,0 -1,1 -1,0 -1,1 -1,0 -8,3 -1,0 6,-2 -4,1 -1,0 5,-1 -6,2Z"/>
<path onmouseover="hoverPath(evt)" onmouseout="recoverPath(evt)" fill="rgb(244,243,236)" d="M  105,135l 0,13 -1,1 0,4 -1,1 0,4 1,1 0,4 1,1 0,7 1,0 1,-1 5,0 1,1 12,0 1,-1 4,0 1,-1 2,0 1,-1 1,0 1,-1 1,0 1,-1 1,0 1,-1 1,0 1,-1 1,0 0,-2 1,-1 1,0 1,-1 2,0 1,-1 3,0 1,-1 3,0 1,-1 9,0 0,-1 -1,0 -1,-1 -1,-1 0,-1 -1,-1 0,-4 -1,-1 0,-8 -1,-1 0,-8 -1,-1 0,-6 -1,-1 -1,-1 -4,0 -1,1 -2,0 -1,1 -3,0 -1,1 -3,0 -1,1 -2,0 -1,1 -3,0 -1,1 -3,0 -1,1 -3,0 -1,1 -2,0 -1,1 -3,0 -1,1 -3,0 -1,1 -2,0 -1,1 -3,0 -1,1 -2,0 -1,1Z"/>
<path onmouseover="hoverPath(evt)" onmouseout="recoverPath(evt)" fill="rgb(242,241,231)" d="M  185,243l 0,2 1,1 0,5 1,1 0,3 68,0 0,-14 -40,0 -1,-1 -19,0 -1,1 -9,0Z"/>
<path onmouseover="hoverPath(evt)" onmouseout="recoverPath(evt)" fill="rgb(240,238,226)" d="M  223,211l -21,0 0,1 -1,1 0,4 -1,1 -2,0 -1,-1 0,-4 -1,-1 0,-1 -9,0 -1,1 -5,0 -1,1 0,3 1,1 0,6 1,1 0,5 1,1 0,4 46,0 0,-5 -1,0 -1,-1 -7,0 -1,-1 0,-2 1,-1 17,0 1,1 7,0 1,1 0,2 -1,1 -11,0 0,5 6,0 1,1 14,0 0,-19 -2,0 -1,-1 -3,0 -1,-1 -7,0 -1,-1 -4,0 -1,-1 -5,0 -1,-1 -6,0 -23,10 2,0 1,1 1,1 0,2 -1,1 -2,0 -1,-1 -1,-1 0,-2 1,-1 23,-10Z"/>
<path onmouseover="hoverPath(evt)" onmouseout="recoverPath(evt)" fill="rgb(253,253,253)" d="M  231,143l 2,0 1,-1 4,0 1,-1 3,0 1,-1 2,0 1,-1 2,0 1,-1 2,0 1,-1 3,0 0,-1 -3,0 -1,1 -1,0 -2,1 -1,0 -2,1 -1,0 -2,1 -1,0 -3,1 -2,0 -3,1 -1,0 -1,1 -5,1 -3,0 -1,1 -6,0 -1,-1 -1,-1 0,3 -1,1 -1,1 3,0 1,1 2,0 1,1 0,-2 1,-1 1,-1 1,0 1,-1 1,0 2,-1 5,-1 -20,5 -4,0 -1,1 -4,0 -1,1 -3,0 -1,1 -3,0 -1,1 -2,0 -1,1 -2,0 -1,1 -1,0 -1,1 -1,0 -1,1 -2,0 -1,1 -3,0 -1,1 -8,0 -1,1 8,0 2,-1 2,0 2,-1 1,0 2,-1 2,-1 1,0 1,-1 1,0 2,-1 1,0 2,-1 1,0 3,-1 2,0 2,-1 2,0 3,-1 3,0 1,-1 20,-5 -18,-2 -1,-1 0,-1 -1,-1 -1,-1 0,-2 -1,0 -1,-1 -1,-1 1,2 1,1 0,0 1,2 0,1 1,1 0,1 1,1 1,-1 18,2Z"/>
<path onmouseover="hoverPath(evt)" onmouseout="recoverPath(evt)" fill="rgb(240,238,227)" d="M  255,178l 0,-1 -3,0 0,2 -1,1 -1,0 -1,1 0,5 -1,1 -2,0 -1,-1 0,-4 -1,-1 -1,0 -1,1 -5,0 -1,-1 -3,0 0,2 -1,1 -3,0 -1,-1 -2,0 0,2 -1,1 -3,0 -1,-1 -2,0 0,2 -1,1 -2,0 -1,1 -3,0 -1,1 -3,0 -1,1 -3,0 -1,1 -2,0 -1,1 -1,0 -1,1 -2,0 0,2 1,1 12,0 1,-1 21,0 1,1 7,0 1,1 2,0 1,-1 1,-1 0,-2 1,-1 2,0 1,1 0,4 7,0Z"/>
</svg>