<svg width="256" height="256" xmlns="http://www.w3.org/2000/svg"><script> 
var tempColor;
function hoverPath(evt){
obj = evt.target;
tempColor = obj.getAttribute("fill");
obj.setAttribute("fill","red");
//alert(tempColor);
//obj.setAttribute("stroke","red");}
function recoverPath(evt){
obj = evt.target;
obj.setAttribute("fill", tempColor);
//obj.setAttribute("stroke", tempColor);
}</script><path onmouseover="hoverPath(evt)" onmouseout="recoverPath(evt)" fill="rgb(244,243,236)" d="M  0,242l 0,13 6,0 0,-7 1,-1 1,-1 1,-1 1,0 1,-1 1,0 1,-1 1,0 1,-1 1,0 1,-1 2,0 1,-1 3,0 1,-1 7,0 1,1 9,0 1,-1 1,0 1,-1 2,0 1,-1 2,0 1,-1 3,0 1,-1 3,0 1,-1 3,0 1,-1 4,0 1,-1 4,0 1,-1 2,0 1,-1 1,-1 0,-9 -1,-1 0,-2 -1,-1 0,-2 -1,-1 0,-1 -1,-1 0,-2 -1,-1 0,-3 -1,-1 0,-2 -1,-1 0,-1 -1,-1 0,-2 -1,-1 0,-2 -1,-1 0,-2 -3,0 -1,-1 -3,0 -1,-1 -4,0 -1,-1 -3,0 -1,-1 -4,0 -1,-1 -3,0 -1,-1 -4,0 -1,-1 -3,0 -1,-1 -4,0 -1,-1 -3,0 -1,-1 -4,0 -1,-1 -3,0 -1,-1 -4,0 -1,-1 -5,0 -1,-1 -2,0Z"/>
<path onmouseover="hoverPath(evt)" onmouseout="recoverPath(evt)" fill="rgb(241,240,233)" d="M  81,111l 2,0 1,1 2,0 0,-2 1,-1 0,-1 1,-1 0,-2 1,-1 0,-1 1,-1 0,-1 1,-1 0,-2 1,-1 0,-1 1,-1 1,-1 0,-1 1,-1 1,-1 0,-1 1,-1 1,-1 1,0 1,-1 2,-2 1,-1 1,0 1,-1 1,-1 1,-1 1,-1 1,0 1,-1 1,-1 1,-1 1,-1 1,-1 2,-2 1,-1 1,-1 1,-1 1,-1 0,-1 -2,0 -1,1 -3,0 -1,-1 -2,0 -1,-1 0,-2 -1,0 -1,-1 0,-1 -1,0 -1,1 -4,0 -1,-1 -3,0 -1,1 -3,0 -1,-1 -1,0 -1,-1 0,-2 -2,0 -1,1 -3,0 -1,-1 -13,0 -1,-1 -1,-1 0,-2 -4,0 -1,-1 -6,0 -1,-1 -3,0 -1,-1 -1,-1 0,-1 -2,0 -1,-1 -1,-1 0,-1 -1,1 -3,0 -1,1 -5,0 -1,-1 -3,0 -1,-1 -2,0 -1,-1 -3,0 -1,-1 -2,0 -1,-1 0,-1 -1,0 -1,1 -3,0 -1,-1 -3,0 -1,-1 -2,0 -1,-1 0,-2 -1,0 -1,-1 0,-1 -2,0 -1,1 -5,0 0,58 4,0 1,-1 3,0 1,1 0,1 3,0 1,1 1,0 1,-1 3,0 1,1 0,1 3,0 1,1 1,0 1,1 0,6 3,0 1,1 0,3 2,0 1,-1 0,-8 1,-1 6,0 1,1 0,1 2,0 1,1 3,0 1,-1 2,0 1,1 0,1 1,0 0,-1 1,-1 2,0 1,1 1,0 1,1 2,0 1,-1 0,0 1,-1 5,0 1,1 1,1 0,3 4,0 1,1 4,0 1,1Z"/>
<path onmouseover="hoverPath(evt)" onmouseout="recoverPath(evt)" fill="rgb(171,198,237)" d="M  89,114l -2,0 0,5 -1,1 0,6 -1,1 0,6 -1,1 0,2 -1,1 -1,1 0,1 -2,2 0,1 -2,2 0,1 -1,1 -1,1 0,1 -1,1 0,1 -1,1 0,1 -1,1 0,1 -1,1 0,1 -1,1 0,2 -1,1 0,1 -1,1 0,2 -1,1 0,1 -1,1 0,2 -1,1 0,1 -1,1 0,3 -1,1 0,4 1,0 1,1 1,0 0,-6 1,-1 0,-2 1,-1 0,-2 1,-1 0,-2 1,-1 0,-2 1,-1 0,-1 1,-1 0,-2 1,-1 0,-1 1,-1 0,-1 1,-1 1,-1 0,-1 2,-2 0,-1 2,-2 0,-1 2,-2 0,-1 2,-2 0,-1 1,-1 0,-1 1,-1 0,-4 1,-1 0,-6 1,-1 0,-3 1,-1 0,-1 1,-1 0,-2 1,-1 0,-1Z"/>
<path onmouseover="hoverPath(evt)" onmouseout="recoverPath(evt)" fill="rgb(244,243,235)" d="M  94,116l 0,0 -1,1 0,2 -1,1 0,1 -1,1 0,3 -1,1 0,6 -1,1 0,4 -1,1 0,1 -1,1 0,1 -2,2 0,1 -2,2 0,1 -1,1 -1,1 0,1 -1,1 -1,1 0,1 -1,1 -1,1 0,1 -1,1 0,1 -1,1 0,2 -1,1 0,1 -1,1 0,2 -1,1 0,2 -1,1 0,2 -1,1 0,2 -1,1 0,4 3,0 1,1 3,0 1,1 3,0 1,1 4,0 1,1 3,0 1,1 3,0 1,1 4,0 1,1 3,0 1,1 1,-1 3,0 1,1 1,1 2,0 1,1 4,0 1,1 3,0 1,1 3,0 1,1 4,0 1,1 3,0 1,1 3,0 1,1 3,0 1,1 3,0 1,1 3,0 1,1 2,0 1,-1 1,0 0,-1 1,-1 2,0 0,-1 1,-1 0,-2 1,-1 0,-1 1,-1 0,-2 1,-1 0,-2 1,-1 0,-2 1,-1 0,-2 1,-1 0,-2 1,-1 0,-2 1,-1 0,-2 1,-1 0,-2 1,-1 0,-2 1,-1 0,-1 1,-1 0,-2 1,-1 0,-2 1,-1 0,-2 1,-1 0,-2 1,-1 0,-2 1,-1 3,0 1,1 0,5 -1,1 0,2 -1,1 0,1 -1,1 0,2 -1,1 0,2 -1,1 0,2 -1,1 0,2 -1,1 0,1 -1,1 0,2 -1,1 0,2 -1,1 0,2 -1,1 0,2 -1,1 0,2 -1,1 0,3 -1,1 0,2 -1,1 0,1 -1,1 0,1 -1,1 0,2 -1,1 0,1 1,0 1,1 1,1 0,2 2,0 1,1 4,0 1,1 5,0 1,1 4,0 1,1 4,0 1,1 4,0 1,1 3,0 1,1 2,0 1,-1 1,-1 1,-1 1,-1 1,0 0,-1 1,-1 0,-1 1,-1 1,0 1,-1 2,-2 1,-1 2,-2 1,-1 4,-4 1,-1 2,-2 1,-1 2,-2 0,-1 1,-1 1,0 2,-2 1,-1 4,-4 1,-1 0,-1 1,-1 5,0 1,1 1,1 0,2 1,1 1,1 0,1 2,0 1,1 1,1 1,1 1,0 1,-1 4,0 0,-42 -1,0 -1,1 -5,0 -1,-1 0,-1 -1,0 -1,-1 0,1 -1,1 -4,0 -1,-1 -3,0 -1,-1 -1,0 -1,-1 0,-1 -4,0 -1,1 -2,0 -1,-1 0,-1 -1,0 -1,-1 0,-2 -3,0 0,1 -1,1 -1,1 -3,0 -1,-1 0,-3 -1,0 -1,-1 -1,0 0,1 -1,1 -2,0 -1,-1 -1,0 0,1 -1,1 -3,0 -1,-1 -2,0 -1,-1 0,-2 -7,0 -1,1 -2,0 -1,-1 0,-1 -1,0 -1,-1 0,-1 -1,-1 -2,0 0,1 -1,1 -1,1 -3,0 -1,-1 0,-1 -1,1 -3,0 -1,-1 0,-1 -1,0 -1,-1 -3,0 -1,1 -6,0 -1,-1 -5,0 -1,-1 -4,0 -1,-1 -6,0 -1,-1 -4,0 -1,-1 -3,0 -1,-1 0,-1 -1,0 -1,-1 -5,0 -1,1 -5,0 -1,-1 -1,0 -1,-1 0,-3 -3,0 -1,-1 -4,0 0,2 -1,1 -6,0 -1,-1 -3,0 -1,-1 -1,1Z"/>
<path onmouseover="hoverPath(evt)" onmouseout="recoverPath(evt)" fill="rgb(242,241,234)" d="M  140,58l 0,0 -1,1 -2,2 -1,1 -5,5 1,1 0,3 3,0 1,1 3,0 0,-1 1,-1 6,0 1,1 3,0 1,1 0,4 3,0 1,1 4,0 1,1 3,0 1,1 2,0 1,-1 2,0 1,1 0,1 1,0 1,1 3,0 1,1 3,0 1,1 3,0 1,1 5,0 1,1 1,1 3,0 1,1 2,0 0,-2 1,-1 3,0 1,1 0,1 1,1 1,1 0,1 1,-2 3,0 1,1 0,2 1,0 1,1 3,0 1,1 2,0 1,-1 3,0 1,-1 4,0 1,1 0,1 1,0 1,1 0,2 2,0 1,1 1,0 1,-1 6,0 1,1 0,2 3,0 1,1 2,0 1,1 4,0 1,1 2,0 0,-34 -2,0 -1,1 -5,0 -1,-1 0,-2 -2,0 -1,-1 -1,0 -1,1 0,1 -1,1 -3,0 -1,-1 -2,0 -1,-1 0,-1 -1,1 -2,0 -1,-1 -2,0 -1,-1 0,-3 -1,-1 -1,0 -1,1 -2,0 -1,-1 0,-1 -1,0 0,2 -1,1 -3,0 -1,-1 -1,0 -1,-1 0,-2 -4,0 -1,-1 0,-1 -1,0 -1,-1 -2,0 -1,1 0,1 -1,1 -3,0 -1,-1 0,-1 -1,-1 -2,0 -1,1 -4,0 -1,-1 0,-3 -1,-1 -3,0 -1,-1 -4,0 -1,-1 -3,0 -1,1 -4,0 -1,-1 0,-1 -1,-1 -1,0 -1,1 -2,0 -1,-1 0,-1 -4,0 -1,-1 -7,0 -1,-1 0,1 3,1 0,3 -1,1 -1,1 -2,2 -1,0 -1,1 -1,1 -1,0 -2,2 -2,0 0,1 -1,1Z"/>
<path onmouseover="hoverPath(evt)" onmouseout="recoverPath(evt)" fill="rgb(241,240,234)" d="M  141,42l 0,1 5,0 1,1 1,0 0,-2 1,-1 1,0 2,-2 1,-1 4,-4 1,-1 2,-2 1,0 2,-2 1,-1 1,0 1,-1 2,-2 1,-1 1,-1 1,-1 1,-1 1,0 1,-1 1,-1 1,-1 1,-1 1,-1 1,-1 1,-1 1,-1 1,-1 2,-2 1,0 0,-1 1,-1 1,0 1,-1 0,-1 -2,0 -1,-1 -3,0 -1,-1 -3,0 -1,-1 -2,0 -1,-1 0,-2 -174,0 0,17 1,0 0,-1 1,-1 2,0 1,-1 5,0 1,1 1,0 1,1 0,3 2,0 1,-1 5,0 1,-1 5,0 1,1 4,0 1,1 0,1 1,1 0,-1 1,-1 3,0 1,1 0,2 1,0 0,-1 1,-1 4,0 1,1 5,0 1,1 0,4 1,0 0,-1 1,-1 2,0 1,1 0,-1 1,-1 3,0 1,1 0,3 1,1 3,0 0,-1 1,-1 1,-1 3,0 1,1 1,1 0,1 1,-2 2,0 1,1 0,3 1,-1 5,0 1,-1 4,0 1,1 1,0 1,1 0,2 -1,1 -3,0 0,3 -1,1 -2,0 0,4 1,1 1,0 1,1 0,2 1,1 5,0 1,-1 0,0 1,-1 1,0 0,-1 1,-1 1,0 1,-1 0,-1 1,-1 1,-1 1,0 0,-1 1,-1 7,0 1,1 1,-1 1,0 0,-1 1,-1 3,0 1,1 0,1 1,0 1,-1 4,0 1,1 3,0 1,1 1,0 1,1 0,1 3,0 1,1 5,0 1,1Z"/>
<path onmouseover="hoverPath(evt)" onmouseout="recoverPath(evt)" fill="rgb(246,235,139)" d="M  160,215l 0,0 1,-1 1,-1 0,-9 -1,-1 -1,0 -1,-1 -2,0 -1,-1 0,-3 -1,2 -1,0 -1,1 -4,0 -1,-1 -3,0 -1,-1 -3,0 -1,-1 -3,0 -1,-1 -3,0 -1,-1 -3,0 -1,-1 -4,0 -1,-1 -3,0 -1,-1 -3,0 -1,-1 -4,0 -1,-1 -2,0 -1,-1 -1,-1 -1,0 -1,1 -2,0 -1,-1 -3,0 -1,-1 -4,0 -1,-1 -3,0 -1,-1 -3,0 -1,-1 -4,0 -1,-1 -3,0 -1,-1 -3,0 -1,-1 -2,0 -1,1 -3,0 -1,-1 -1,0 -1,-1 0,-1 -4,0 -1,-1 -4,0 -1,-1 -4,0 -1,-1 -3,0 -1,-1 -3,0 -1,-1 -4,0 -1,-1 -3,0 -1,-1 -3,0 -1,-1 -4,0 -1,-1 -3,0 -1,-1 -4,0 -1,-1 -4,0 -1,-1 -3,0 -1,-1 -3,0 0,8 3,0 1,1 5,0 1,1 4,0 1,1 3,0 1,1 4,0 1,1 3,0 1,1 4,0 1,1 3,0 1,1 4,0 1,1 3,0 1,1 4,0 1,1 3,0 1,1 4,0 1,1 3,0 1,1 3,0 1,1 0,2 1,1 0,2 1,1 0,2 1,1 0,1 1,1 0,-1 -1,-2 0,-2 -1,-1 0,-3 1,-1 5,0 1,1 4,0 1,1 3,0 1,1 4,0 1,1 4,0 1,1 3,0 1,1 3,0 1,1 3,0 1,1 3,0 1,1 4,0 1,1 3,0 1,1 4,0 1,1 4,0 1,1 3,0 1,1 3,0 1,1 2,0 1,1 1,0 1,1 1,1 0,2 1,0 1,1 0,1 1,1 1,1 1,1 1,1 0,12 1,1 0,14 1,1 0,10 7,0 0,-4 1,-1 0,-14 -1,-1Z"/>
<path onmouseover="hoverPath(evt)" onmouseout="recoverPath(evt)" fill="rgb(244,243,236)" d="M  164,36l -6,6 1,0 1,1 4,0 1,1 0,1 1,-1 3,0 1,1 1,1 0,1 2,0 1,-1 5,0 1,1 4,0 1,1 3,0 1,1 1,1 0,3 2,0 1,-1 4,0 1,1 1,1 0,1 1,0 0,-1 1,-1 1,-1 4,0 1,1 1,0 1,1 0,1 4,0 1,1 0,2 1,0 1,1 1,0 0,-2 1,-1 3,0 1,1 0,1 1,-1 3,0 1,1 1,1 0,3 2,0 1,1 1,-1 2,0 1,1 0,1 2,0 1,1 1,0 0,-1 1,-1 1,-1 3,0 1,1 2,0 1,1 0,2 3,0 1,-1 3,0 0,-45 -6,0 -1,-1 -5,0 -1,-1 -4,0 -1,-1 -4,0 -1,-1 -4,0 -1,-1 -3,0 -1,-1 -4,0 -1,-1 -3,0 -1,-1 -4,0 -1,-1 -3,0 -1,-1 -3,0 -1,-1 -3,0 -1,-1 -2,0 0,1 -1,1 -1,1 -1,1 -1,1 -1,0 -1,1 -1,1 -1,0 -1,1 -1,1 -4,4 -1,1 -3,3 -1,1 -1,0 0,1 -1,1 -1,0 -1,1 -3,3 -1,1 -1,0 -1,1 -1,1 -1,1Z"/>
<path onmouseover="hoverPath(evt)" onmouseout="recoverPath(evt)" fill="rgb(242,241,232)" d="M  171,254l -5,0 0,1 4,0 1,-1 3,1 25,0 0,-3 1,-1 0,-29 -1,-1 0,0 -1,1 0,1 -1,1 -1,1 -1,1 0,1 -1,1 -1,1 0,1 -1,1 0,1 -1,1 -1,1 0,1 -1,1 -1,1 -1,1 0,1 -1,1 -1,1 0,1 -1,1 -1,1 0,1 -1,1 -1,1 0,1 -1,1 0,1 -1,1 -1,0 -1,1 -1,0 -1,1 -1,2 -3,-1Z"/>
<path onmouseover="hoverPath(evt)" onmouseout="recoverPath(evt)" fill="rgb(254,254,254)" d="M  177,148l 0,-1 -1,0 0,2 -1,1 0,2 -1,1 0,2 -1,1 0,2 -1,1 0,2 -1,1 0,1 -1,1 0,2 -1,1 0,2 -1,1 0,2 -1,1 0,2 -1,1 0,2 -1,1 0,2 -1,1 0,2 -1,1 0,2 -1,1 0,2 -1,1 0,1 -1,1 0,2 -1,1 0,1 -1,1 0,2 1,0 0,-1 1,-1 0,-2 1,-1 0,-1 1,-1 0,-1 1,-1 0,-2 1,-1 0,-3 1,-1 0,-2 1,-1 0,-2 1,-1 0,-2 1,-1 0,-2 1,-1 0,-2 1,-1 0,-1 1,-1 0,-2 1,-1 0,-2 1,-1 0,-2 1,-1 0,-2 1,-1 0,-1 1,-1 0,-2 1,-1Z"/>
<path onmouseover="hoverPath(evt)" onmouseout="recoverPath(evt)" fill="rgb(243,242,235)" d="M  212,210l -1,1 -1,1 -1,1 -1,1 -1,1 -1,1 0,1 1,1 0,37 48,0 0,-38 -2,0 -1,1 -1,0 -1,1 -1,1 -1,1 -1,1 -4,0 -1,1 -2,0 -1,-1 -1,-1 -1,-1 0,-1 -1,-1 -1,-1 0,-1 -1,-1 -1,-1 -1,-1 -1,-1 -1,-1 -1,-1 -1,-1 -1,-1 -1,-1 0,-1 -1,-1 -1,-1 -1,-1 -1,-1 -1,1 0,0 -1,1 -1,0 -1,1 -2,2 -1,1 -1,0 -1,1 -1,1Z"/>
<path onmouseover="hoverPath(evt)" onmouseout="recoverPath(evt)" fill="rgb(244,242,235)" d="M  236,181l -2,2 0,1 -1,1 -1,0 -1,1 -1,1 -7,7 -1,1 -1,1 -1,1 4,0 1,1 1,1 1,0 1,1 1,1 1,1 1,1 1,1 1,1 1,1 1,1 1,1 1,1 1,1 0,1 1,1 1,1 0,1 1,1 0,2 1,0 1,1 0,2 3,0 1,-1 0,0 3,-3 1,0 1,-1 3,0 0,-29 -3,0 -1,1 -3,0 -1,-1 -1,-1 -1,-1 -2,0 -1,-1 0,-1 -1,-1 -1,-1 -3,0 -1,1Z"/>
<path onmouseover="hoverPath(evt)" onmouseout="recoverPath(evt)" fill="rgb(240,239,233)" d="M  1,19l -1,0 0,18 4,0 1,-1 4,0 1,1 0,1 1,0 1,1 0,2 2,0 1,1 3,0 1,1 1,0 1,-1 3,0 1,1 0,1 2,0 1,1 3,0 1,1 2,0 1,1 3,0 1,1 3,0 1,-1 3,0 1,-1 2,0 1,1 0,1 1,1 2,0 1,1 0,1 1,1 3,0 1,1 6,0 1,1 4,0 1,1 0,2 1,1 13,0 1,1 1,0 1,-1 4,0 1,1 0,2 1,0 1,1 1,0 1,-1 5,0 1,1 2,0 1,-1 3,0 1,1 0,1 1,0 1,1 0,2 2,0 1,1 1,0 1,-1 8,0 0,-1 6,-6 1,-1 1,-1 1,-1 1,-1 1,-1 1,-1 3,0 1,1 1,0 1,-1 0,0 1,-1 1,0 1,-1 1,-1 1,0 1,-1 1,-1 1,-1 0,-1 -5,0 -1,-1 -5,0 -1,-1 0,-2 -5,0 -1,-1 -3,0 -1,-1 0,-1 -1,0 -1,-1 -3,0 -1,-1 -2,0 -1,1 -3,0 -1,-1 0,-1 -1,0 0,1 -1,1 -1,0 -1,1 -2,0 -1,-1 -5,0 0,1 -1,1 -1,0 -1,1 0,1 -1,1 -1,1 -1,0 0,1 -1,1 -1,0 -2,2 -7,0 -1,-1 -1,-1 0,-2 -1,0 -1,-1 -1,-1 0,-6 1,-1 2,0 0,-3 1,-1 3,0 -2,-1 -2,0 -1,1 -5,0 -1,1 -2,0 -1,-1 0,-3 -1,2 -2,0 -1,-1 0,-1 -1,-1 -1,0 -1,1 0,1 -1,1 -5,0 -1,-1 -1,-1 0,-3 -1,0 0,1 -1,1 -2,0 -1,-1 0,1 -1,1 -3,0 -1,-1 0,-4 -5,0 -1,-1 -2,0 0,1 -1,1 -3,0 -1,-1 0,-2 -1,0 0,1 -1,1 -2,0 -1,-1 -1,-1 0,-1 -4,0 -1,-1 -3,0 -1,1 -5,0 -1,1 -4,0 -1,-1 0,-3 -1,0 -1,-1 -3,0 -1,1 -2,0 0,1 -1,1Z"/>
<path onmouseover="hoverPath(evt)" onmouseout="recoverPath(evt)" fill="rgb(243,242,235)" d="M  0,149l 0,16 4,0 1,1 3,0 1,1 4,0 1,1 4,0 1,1 3,0 1,1 4,0 1,1 3,0 1,1 3,0 1,1 4,0 1,1 3,0 1,1 3,0 1,1 4,0 1,1 4,0 1,1 3,0 0,-3 1,-1 0,-3 1,-1 0,-1 1,-1 0,-2 1,-1 0,-1 1,-1 0,-2 1,-1 0,-1 1,-1 0,-2 1,-1 0,-1 1,-1 0,-1 1,-1 0,-1 1,-1 0,-1 1,-1 0,-1 1,-1 1,-1 0,-1 1,-1 1,-1 0,-1 1,-1 1,-1 0,-1 1,-1 1,-1 0,-2 1,-1 0,-6 1,-1 0,-6 1,-1 0,-4 -2,0 -1,-1 -5,0 -1,-1 -4,0 -1,-1 -4,0 -1,-1 0,-3 -1,-1 -3,0 -2,2 -4,0 -1,-1 -1,0 -1,-1 0,1 -1,1 -3,0 -1,-1 0,-1 -1,1 -5,0 -1,-1 -2,0 -1,-1 0,-1 -4,0 0,8 -1,1 -1,1 -4,0 -1,-1 0,-3 -3,0 -1,-1 0,-6 -1,0 -1,-1 -3,0 -1,-1 0,-1 -1,0 -1,1 -3,0 -1,-1 -3,0 -1,-1 0,-1 -1,0 -1,1 -5,0Z"/>
<path onmouseover="hoverPath(evt)" onmouseout="recoverPath(evt)" fill="rgb(243,242,237)" d="M  13,251l 0,1 -1,1 0,2 107,0 -1,-1 0,0 -1,-1 -1,-1 -1,-1 -2,0 -1,-1 0,-1 -1,-1 -1,-1 -1,-1 -1,-1 -2,0 -1,-1 0,-1 -1,0 -1,-1 -2,0 -1,1 -4,0 -1,-1 -1,-1 -2,0 -1,-1 -1,0 -1,-1 -1,-1 -1,-1 -1,-1 -1,-1 -1,-1 -3,0 -1,1 -1,0 -1,1 -2,0 -1,1 -3,0 -1,1 -4,0 -1,1 -7,0 -1,1 -5,0 -1,1 -2,0 -1,1 -2,0 -1,1 -1,1 -1,0 -1,1 -16,0 -1,1 -3,0 -1,1 -2,0 -1,1 -1,0 -1,1 -1,0 -1,1 -1,0 -1,1Z"/>
<path onmouseover="hoverPath(evt)" onmouseout="recoverPath(evt)" fill="rgb(244,243,237)" d="M  73,193l -1,0 0,1 1,1 0,3 1,1 0,4 1,1 0,1 1,1 1,1 0,1 1,1 0,1 1,1 0,1 1,1 0,1 1,1 0,8 1,1 0,2 1,1 1,1 1,0 1,1 1,0 2,2 1,1 1,1 1,1 1,1 1,0 1,1 1,1 1,0 1,1 1,0 1,1 1,1 3,0 1,1 1,0 1,1 0,1 2,0 1,1 1,1 1,1 1,1 1,1 0,1 2,0 1,1 1,1 1,1 1,1 1,1 0,1 30,0 0,-9 -1,-1 0,-14 -1,-1 0,-12 -1,-1 -1,-1 -1,-1 -1,-1 0,-1 -1,0 -1,-1 0,-2 -1,-1 -1,0 -1,-1 -2,0 -1,-1 -3,0 -1,-1 -3,0 -1,-1 -4,0 -1,-1 -4,0 -1,-1 -3,0 -1,-1 -4,0 -1,-1 -3,0 -1,-1 -3,0 -1,-1 -3,0 -1,-1 -3,0 -1,-1 -4,0 -1,-1 -4,0 -1,-1 -3,0 -1,-1 -4,0 -1,-1Z"/>
<path onmouseover="hoverPath(evt)" onmouseout="recoverPath(evt)" fill="rgb(171,198,238)" d="M  75,233l -2,0 -1,1 -4,0 -1,1 -4,0 -1,1 -3,0 -1,1 -3,0 -1,1 -3,0 -1,1 -2,0 -1,1 -2,0 -1,1 -1,0 -1,1 -11,0 -1,-1 -5,0 -1,1 -3,0 -1,1 -2,0 -1,1 -1,0 -1,1 -1,0 -1,1 -1,0 -1,1 -1,0 -1,1 -1,1 0,6 2,0 0,-3 1,-1 0,-1 1,-1 1,-1 1,0 1,-1 1,0 1,-1 1,0 1,-1 2,0 1,-1 3,0 1,-1 16,0 1,-1 1,0 1,-1 30,-8 -27,7 0,0 3,-1 4,-1 2,0 2,-1 6,0 1,-1 4,0 1,-1 3,0 1,-1 2,0 1,-1 1,0 1,-1 5,0 1,1 1,1 1,1 1,1 1,1 1,1 1,0 1,1 2,0 1,1 1,1 2,0 -1,-1 -1,0 -1,-1 -2,-1 -1,-1 -1,0 -1,-1 -1,-1 -1,-1 -1,-1 -1,-1 -1,-1 -1,0 -1,-1 -1,0 -1,-1 -1,-1 -1,-1 0,-2 -1,-1 0,-8 -1,-1 0,-1 -1,-1 0,-1 -1,-1 0,-1 -1,-1 0,-1 -1,-1 -1,-1 0,1 1,1 0,2 1,1 0,1 1,1 0,2 1,1 0,2 1,1 0,11 -1,1 -1,1 -28,8 27,-7Z"/>
<path onmouseover="hoverPath(evt)" onmouseout="recoverPath(evt)" fill="rgb(171,197,234)" d="M  108,83l 0,0 -1,1 -1,1 -1,1 2,0 1,-1 1,-1 1,-1 1,0 1,-1 1,-1 1,-1 1,0 1,-1 6,-6 1,-1 1,-1 1,-1 5,0 0,-1 -1,-1 0,-2 1,-1 1,-1 6,-6 1,-1 1,-1 0,-1 -1,0 -1,1 0,0 -1,1 -1,1 -2,2 -1,1 -1,1 -1,1 -1,1 -1,1 -1,1 0,1 -1,1 -4,0 0,2 -1,1 -1,1 -1,1 -6,6 -1,1 -2,2 -1,0 -1,1 -4,3 -1,1 -1,1 -1,1 -1,1 -1,0 -1,1 0,1 -1,1 -1,1 0,1 -1,1 -1,1 0,1 -1,1 0,2 -1,1 0,1 -1,1 0,1 -1,1 0,2 -1,1 1,1 3,0 1,-1 0,-2 1,-1 0,-1 1,-1 0,-2 1,-1 0,-2 1,-1 0,-1 1,-1 1,-1 0,-1 1,-1 0,-1 1,-1 1,-1 0,-1 1,-1 0,-2 4,-3Z"/>
<path onmouseover="hoverPath(evt)" onmouseout="recoverPath(evt)" fill="rgb(243,242,235)" d="M  158,124l 1,0 1,1 4,0 1,-1 5,0 1,1 1,0 1,1 0,1 1,0 1,-1 2,0 1,1 0,1 1,0 1,-1 0,-1 1,-1 4,0 1,1 1,1 0,1 1,0 1,1 0,1 1,-1 9,0 1,1 0,2 2,0 1,1 1,0 0,-1 1,-1 3,0 1,1 0,-1 1,-1 3,0 1,1 1,0 1,1 0,3 1,0 1,-1 0,-1 1,-1 5,0 1,1 0,2 1,0 1,1 0,1 1,-1 6,0 1,1 0,1 1,0 1,1 3,0 1,1 2,0 0,-1 1,-1 2,0 1,1 1,0 1,1 0,1 3,0 1,-1 2,0 0,-37 -3,0 -1,-1 -4,0 -1,-1 -2,0 -1,-1 -3,0 -1,-1 0,-2 -4,0 -1,1 -3,0 -1,-1 -2,0 -1,-1 0,-2 -1,0 -1,-1 0,-1 -2,0 -1,1 -3,0 -1,1 -4,0 -1,-1 -3,0 -1,-1 -1,0 -1,-1 0,-2 -1,0 0,1 -1,1 -2,0 -1,-1 0,-1 -1,-1 -1,-1 0,-1 -1,0 0,2 -1,1 -4,0 -1,-1 -3,0 -1,-1 -1,-1 -5,0 -1,-1 -3,0 -1,-1 -3,0 -1,-1 -3,0 -1,-1 -1,0 -1,-1 0,-1 -1,1 -4,0 -1,-1 -3,0 -1,-1 -4,0 -1,-1 -3,0 -1,-1 0,-4 -3,0 -1,-1 -4,0 0,1 -1,1 -5,0 -1,-1 -3,0 -1,-1 -4,0 -2,2 -1,1 -2,2 -1,1 -1,1 -1,1 -1,1 -1,1 -1,0 -1,1 -1,1 -1,1 -1,0 -1,1 -1,1 -1,1 -2,0 0,1 -1,1 0,1 -1,1 -1,1 0,1 -1,1 0,1 -1,1 -1,1 0,1 -1,1 0,2 -1,1 0,2 -1,1 0,1 -1,1 0,2 -2,2 -5,0 -1,-1 0,1 8,0 1,1 0,1 3,0 1,1 4,0 0,-2 1,-1 6,0 1,1 3,0 1,1 0,3 1,0 1,1 3,0 1,-1 7,0 1,1 1,0 1,1 0,1 3,0 1,1 4,0 1,1 6,0 1,1 4,0 1,1Z"/>
<path onmouseover="hoverPath(evt)" onmouseout="recoverPath(evt)" fill="rgb(243,243,234)" d="M  163,215l -1,1 0,18 1,1 0,14 9,0 0,-1 1,-1 1,-1 0,-1 1,-1 1,-1 1,-1 1,-1 1,-1 1,-1 0,-1 1,-1 0,-1 1,-1 0,-1 1,-1 1,-1 0,-1 1,-1 1,-1 0,-1 1,-1 1,-1 0,-1 1,-1 1,-1 2,-2 0,-1 1,-1 2,0 -1,-1 -3,0 -1,-1 -3,0 -1,-1 -4,0 -1,-1 -5,0 -1,-1 -5,0 -1,-1 -5,0 0,1 -1,1Z"/>
<path onmouseover="hoverPath(evt)" onmouseout="recoverPath(evt)" fill="rgb(253,253,253)" d="M  164,207l 0,4 6,0 1,1 5,0 1,1 5,0 1,1 4,0 1,1 3,0 1,1 3,0 1,1 1,1 1,0 1,1 1,0 1,1 1,1 0,31 -1,1 0,2 4,0 0,-36 -1,-1 0,0 -1,-1 0,-1 -1,-1 0,-2 2,-2 1,-1 -1,0 -1,1 0,0 -1,1 -1,1 -1,1 -4,0 -1,-1 -3,0 -1,-1 -4,0 -1,-1 -4,0 -1,-1 -4,0 -1,-1 -5,0 -1,-1 -4,0 -1,-1Z"/>
<path onmouseover="hoverPath(evt)" onmouseout="recoverPath(evt)" fill="rgb(174,199,235)" d="M  181,241l -2,2 -1,1 -1,1 -1,1 0,1 -1,1 -1,1 0,1 -1,1 1,0 1,-1 1,0 1,-1 1,0 0,-1 1,-1 0,-1 1,-1 1,-1 0,-1 1,-1 -1,-1 1,-1 1,0 2,-2 0,-1 1,-1 1,-1 1,-1 0,-1 1,-1 1,-1 0,-1 1,-1 0,-1 1,-1 1,-1 0,-1 2,-2 1,-1 0,-1 1,-1 -2,1 -1,0 0,1 -4,4 0,1 -1,1 -1,1 0,1 -1,1 -1,1 0,1 -1,1 -1,1 0,1 -1,1 0,1 -1,1 0,1 -1,1 -10,10 -8,0 -1,1 0,3 2,0 0,-2 1,-1 5,0 11,-11Z"/>
<path onmouseover="hoverPath(evt)" onmouseout="recoverPath(evt)" fill="rgb(171,198,237)" d="M  184,13l 0,0 -1,1 -2,2 -1,1 -5,5 -1,1 -1,0 -1,1 -2,2 -1,1 -2,2 -1,1 -1,0 -1,1 -1,1 -1,1 -1,0 -1,1 -1,1 -1,1 -1,1 -1,1 -1,1 -1,1 -1,1 -1,1 4,0 0,-1 2,-2 1,-1 5,-5 1,-1 1,-1 1,0 2,-2 1,-1 2,-2 1,0 0,-1 1,-1 1,0 1,-1 1,-1 1,-1 1,-1 1,-1 1,-1 1,-1 1,-1 1,-1 1,-1 -1,-1 1,-1 1,0 1,1 1,-1 0,0 1,-1 1,0 2,-2 1,-1 0,-2 -1,0 -1,1 -1,0 0,1 -1,1 -1,1 -1,0 0,2 -2,0 -1,1Z"/>
<path onmouseover="hoverPath(evt)" onmouseout="recoverPath(evt)" fill="rgb(244,243,234)" d="M  225,1l 1,0 1,1 4,0 1,1 3,0 1,1 5,0 1,1 4,0 1,1 5,0 1,1 2,0 0,-7 -29,0 -1,1 -1,-1 -6,0 0,2 3,0 1,-1 1,0 1,-1 1,1Z"/>
<path onmouseover="hoverPath(evt)" onmouseout="recoverPath(evt)" fill="rgb(202,218,241)" d="M  239,217l 0,-1 -1,-1 0,-1 -1,-1 -1,-1 0,-1 -6,-6 -1,-1 -1,-1 -1,-1 -1,-1 -1,0 -1,-1 -1,-1 -4,0 -1,-1 0,-2 -1,1 -1,1 -1,1 -1,1 -5,5 -1,1 -1,0 0,1 -1,1 1,1 0,2 -1,1 -1,1 -1,1 1,0 1,-1 1,-1 1,-1 2,-2 1,-1 1,-1 1,-1 1,0 1,-1 1,-1 1,-1 1,-1 1,0 1,-1 1,-1 2,0 1,1 1,1 1,1 1,1 1,1 0,1 1,1 1,1 1,1 1,1 1,1 1,1 1,1 1,1 1,1 0,1 1,1 1,0 1,2 -1,0 1,1 0,0 1,1 0,-2 -1,0 -1,-2 -13,-29 1,-1 2,-2 1,-1 1,-1 1,0 0,-1 1,-1 1,-1 1,-1 1,-1 4,0 -1,-1 -3,0 -10,10 0,1 13,29Z"/>
<path onmouseover="hoverPath(evt)" onmouseout="recoverPath(evt)" fill="rgb(248,237,138)" d="M  254,9l -2,0 -1,-1 -5,0 -1,-1 -4,0 -1,-1 -5,0 -1,-1 -3,0 -1,-1 -4,0 -1,-1 -2,0 -1,1 -5,0 -1,-1 0,-3 -40,0 0,1 2,0 1,1 3,0 1,1 3,0 1,1 2,0 1,1 1,-1 3,0 1,1 0,1 3,0 1,1 3,0 1,1 3,0 1,1 3,0 1,1 4,0 1,1 3,0 1,1 4,0 1,1 3,0 1,1 4,0 1,1 4,0 1,1 4,0 1,1 5,0 1,1 5,0 0,-8 -1,-1Z"/>
</svg>