<svg width="256" height="256" xmlns="http://www.w3.org/2000/svg"><script> 
var tempColor;
function hoverPath(evt){
obj = evt.target;
tempColor = obj.getAttribute("fill");
obj.setAttribute("fill","red");
//alert(tempColor);
//obj.setAttribute("stroke","red");}
function recoverPath(evt){
obj = evt.target;
obj.setAttribute("fill", tempColor);
//obj.setAttribute("stroke", tempColor);
}</script><path onmouseover="hoverPath(evt)" onmouseout="recoverPath(evt)" fill="rgb(242,242,232)" d="M  0,5l 0,17 25,0 1,1 25,0 0,-1 1,-1 0,-17 -51,0 -1,1Z"/>
<path onmouseover="hoverPath(evt)" onmouseout="recoverPath(evt)" fill="rgb(254,254,254)" d="M  1,25l 19,0 1,1 31,0 1,1 2,0 1,-1 39,0 1,1 5,0 1,1 1,1 0,26 1,1 0,17 1,1 0,15 1,1 0,7 1,0 0,-8 -1,-1 0,-15 -1,-1 0,-18 -1,-1 0,-26 -1,-1 -4,0 -1,-1 -41,0 -1,-1 0,-1 -1,-1 0,-22 -2,0 0,2 1,1 0,19 -1,1 0,1 -1,1 -27,0 -1,-1 -22,0 -1,1 -1,-1Z"/>
<path onmouseover="hoverPath(evt)" onmouseout="recoverPath(evt)" fill="rgb(244,243,235)" d="M  0,30l 0,64 3,0 1,-1 41,0 1,1 2,0 1,1 1,1 1,1 0,5 -1,1 0,2 -1,1 0,1 1,1 1,1 4,0 1,1 6,0 1,-1 4,0 1,-1 3,0 1,-1 2,0 1,-1 2,0 1,-1 5,0 1,-1 5,0 1,1 8,0 1,-1 3,0 1,-1 2,0 1,-1 1,0 0,-3 -2,0 -1,-1 0,-7 -1,-1 0,-15 -1,-1 0,-17 -1,-1 0,-26 -1,-1 -5,0 -1,-1 -37,0 -1,1 -4,0 -1,-1 -31,0 -1,-1 -19,0Z"/>
<path onmouseover="hoverPath(evt)" onmouseout="recoverPath(evt)" fill="rgb(244,243,236)" d="M  0,101l 0,130 7,0 1,-1 6,0 1,-1 6,0 1,-1 7,0 1,-1 6,0 1,-1 6,0 1,-1 5,0 1,-1 7,0 1,-1 7,0 1,-1 5,0 1,-1 8,0 1,-1 6,0 1,-1 6,0 1,-1 8,0 1,-1 8,0 1,-1 7,0 1,-1 11,0 0,-7 -1,-1 0,-14 -1,-1 0,-15 -1,-1 0,-14 -1,-1 0,-16 -1,-1 0,-16 -1,-1 0,-16 -1,-1 0,-1 -2,0 -1,-1 -1,0 -1,-1 -1,0 -1,-1 -2,0 -1,-1 -1,1 -2,0 -1,1 -1,0 -1,1 -1,0 -1,1 -1,0 -1,1 -3,0 -1,1 -9,0 -1,-1 -7,0 -1,1 -3,0 -1,1 -2,0 -1,1 -3,0 -1,1 -3,0 -1,1 -21,0 -1,-1 -1,0 -1,-1 -1,0 -1,-1 -1,-1 0,-8 1,-1 0,-1 -2,-2 -3,0 -1,1 -35,0 -1,1Z"/>
<path onmouseover="hoverPath(evt)" onmouseout="recoverPath(evt)" fill="rgb(253,253,253)" d="M  0,234l 0,1 2,0 1,-1 5,0 1,-1 6,0 1,-1 7,0 1,-1 6,0 1,-1 6,0 1,-1 6,0 1,-1 17,0 1,-1 13,0 1,-1 9,0 1,-1 8,0 1,-1 9,0 1,-1 9,0 1,-1 5,0 1,1 1,1 0,-2 -1,0 1,3 0,7 -5,-11 0,-2 1,-1 28,0 1,-1 5,0 1,1 1,0 1,1 0,3 1,-3 0,0 1,-1 1,0 1,-1 22,0 1,-1 9,0 1,1 26,0 1,1 3,0 1,-1 12,0 1,1 1,0 1,1 0,1 1,1 0,8 1,1 0,8 1,1 0,7 1,1 0,8 1,0 0,-8 -1,-1 0,-8 -1,-1 0,-8 -1,-1 0,-9 1,-1 1,0 1,-1 11,0 0,-1 -7,0 -1,-1 -1,-1 0,1 -1,1 -21,0 -1,-1 -2,0 -1,1 -19,0 -1,-1 -1,0 -1,-1 -22,0 -1,1 -12,0 -1,1 -28,0 -1,1 -11,0 -122,17 118,-16 -4,0 -1,1 -8,0 -1,1 -8,0 -1,1 -6,0 -1,1 -6,0 -1,1 -8,0 -1,1 -5,0 -1,1 -7,0 -1,1 -7,0 -1,1 -5,0 -1,1 -6,0 -1,1 -6,0 -1,1 -7,0 -1,1 -6,0 -1,1 -6,0 -1,1 -8,0 23,-2 0,0 95,-13 -118,16Z"/>
<path onmouseover="hoverPath(evt)" onmouseout="recoverPath(evt)" fill="rgb(243,242,234)" d="M  0,239l 0,16 76,0 0,-2 1,-1 1,-1 1,-1 5,0 1,-1 5,0 1,-1 9,0 1,-1 9,0 1,-1 8,0 1,-1 6,0 1,1 0,3 -1,1 -5,0 -1,1 -7,0 -1,1 -7,0 -1,1 -6,0 -1,1 -7,0 0,1 44,0 0,-5 -1,-1 -3,0 -1,-1 0,-3 1,-1 2,0 1,-1 0,-8 -1,-1 0,-14 -12,0 5,1 0,12 -1,1 -2,0 -1,-1 0,-8 -1,-1 -3,0 -1,1 -9,0 -1,1 -9,0 -1,1 -8,0 -1,1 -9,0 -1,1 -13,0 -1,1 -17,0 -1,1 -6,0 -1,1 -6,0 -1,1 -6,0 -1,1 -7,0 -1,1 -6,0 -1,1 -5,0 -1,1 -3,0Z"/>
<path onmouseover="hoverPath(evt)" onmouseout="recoverPath(evt)" fill="rgb(240,239,226)" d="M  40,2l 11,0 0,-2 -51,0 0,2Z"/>
<path onmouseover="hoverPath(evt)" onmouseout="recoverPath(evt)" fill="rgb(243,242,233)" d="M  58,0l -1,0 0,21 1,1 0,1 41,0 1,1 4,0 1,1 1,1 0,26 1,1 0,18 1,1 0,15 1,1 0,13 1,-1 1,0 1,-1 5,0 1,1 1,0 1,1 2,0 1,1 2,0 0,-4 -1,-1 0,-8 -1,-1 0,-9 -1,-1 0,-8 -1,-1 0,-10 -1,-1 0,-11 -1,-1 0,-11 -1,-1 0,-11 -1,-1 0,-11 -1,-1 0,-10Z"/>
<path onmouseover="hoverPath(evt)" onmouseout="recoverPath(evt)" fill="rgb(171,198,238)" d="M  119,104l 0,0 1,1 1,0 1,1 1,0 1,1 2,0 1,1 0,1 1,1 0,16 1,1 0,16 1,1 0,16 1,1 0,14 1,1 0,15 1,1 0,14 1,1 0,7 11,0 0,-15 -1,-1 0,-19 -1,-1 0,-19 -1,-1 0,-19 -1,-1 0,-15 -1,-1 0,-7 -1,-1 0,-8 -1,-1 0,-11 1,-1 1,0 1,-1 4,0 1,-1 4,0 1,-1 4,0 1,-1 4,0 1,-1 4,0 1,-1 4,0 1,-1 3,0 1,-1 4,0 1,-1 4,0 1,-1 9,0 1,-1 8,0 1,-1 8,0 1,1 0,4 -1,1 0,2 1,1 1,1 1,0 1,1 1,1 10,0 1,1 1,1 0,18 -1,1 0,23 -1,1 0,11 -1,1 0,12 -1,1 0,9 -1,1 0,8 -1,1 0,10 -1,1 0,11 -1,1 0,8 2,0 1,-1 0,-12 1,-1 0,-11 1,-1 0,-7 1,-1 0,-11 1,-1 0,-14 1,-1 0,-10 1,-1 0,-10 1,-1 0,-35 -1,-1 0,0 -1,-1 -1,-1 -2,0 2,1 1,1 -110,10 100,-12 -2,0 -1,-1 -2,-1 0,-5 1,-1 0,-1 1,-1 1,-1 1,-1 5,0 1,-1 11,0 1,-1 8,0 1,-1 10,0 0,-4 -8,0 -1,1 -8,0 -1,1 -5,0 -1,1 -5,0 -1,1 -4,0 -1,-1 0,-15 -1,-1 0,-23 1,-1 0,-25 1,-1 0,-10 -3,0 0,31 -1,1 0,44 -1,1 -1,1 -4,0 -1,1 -9,0 -1,1 -6,0 -1,1 -6,0 -1,1 -6,0 -1,1 -7,0 -1,1 -6,0 -1,1 -7,0 -1,1 -18,0 -1,-1 -1,-1 0,-27 -1,-1 0,-13 -1,-1 0,-11 -1,-1 0,-10 -1,-1 0,-14 -1,-1 0,-4 -13,0 0,9 1,1 0,11 1,1 0,11 1,1 0,11 1,1 0,11 1,1 0,10 1,1 0,8 1,1 0,9 1,1 0,8 1,1 0,6 -1,1 -4,0 -1,-1 -2,0 -1,-1 -1,0 -1,-1 -3,0 -1,1 -1,0 -1,1 -1,0 -1,1 -1,0 -1,1 -2,0 -1,1 -3,0 -1,1 -10,0 -1,-1 -3,0 -1,1 -5,0 -1,1 -2,0 -1,1 -2,0 -1,1 -3,0 -1,1 -4,0 -1,1 -8,0 -1,-1 -4,0 -1,-1 -1,-1 -1,-1 0,-3 1,-1 0,-2 1,-1 0,-3 -1,-1 -1,-1 -2,0 -1,-1 -39,0 -1,1 -4,0 0,2 35,0 1,-1 5,0 1,1 1,1 1,1 0,3 -1,1 0,6 1,1 1,0 1,1 1,0 1,1 19,0 1,-1 3,0 1,-1 3,0 1,-1 2,0 1,-1 3,0 1,-1 9,0 1,1 7,0 1,-1 3,0 1,-1 1,0 1,-1 1,0 1,-1 1,0 1,-1 2,0 1,-1 2,0 1,1 1,0 101,-12 -100,12Z"/>
<path onmouseover="hoverPath(evt)" onmouseout="recoverPath(evt)" fill="rgb(177,201,238)" d="M  120,248l -8,0 -1,1 -9,0 -1,1 -9,0 -1,1 -5,0 -1,1 -5,0 -1,1 -1,1 0,1 10,0 0,-2 1,-1 7,0 1,-1 6,0 1,-1 7,0 1,-1 7,0 1,-1 5,0 0,-1 -3,0 -1,1Z"/>
<path onmouseover="hoverPath(evt)" onmouseout="recoverPath(evt)" fill="rgb(244,243,237)" d="M  133,1l 0,2 1,1 0,14 1,1 0,10 1,1 0,11 1,1 0,13 1,1 0,27 1,1 16,0 1,-1 7,0 1,-1 6,0 1,-1 7,0 1,-1 6,0 1,-1 6,0 1,-1 6,0 1,-1 9,0 1,-1 4,0 1,-1 0,-44 1,-1 0,-30 -82,0 -1,1Z"/>
<path onmouseover="hoverPath(evt)" onmouseout="recoverPath(evt)" fill="rgb(244,243,236)" d="M  140,96l 0,8 1,1 0,8 1,1 0,7 1,1 0,15 1,1 0,19 1,1 0,19 1,1 0,19 1,1 0,16 14,0 1,-1 12,0 1,-1 24,0 1,1 1,0 1,1 17,0 0,-10 1,-1 0,-11 1,-1 0,-10 1,-1 0,-8 1,-1 0,-9 1,-1 0,-12 1,-1 0,-11 1,-1 0,-23 1,-1 0,-16 -1,-1 -10,0 -1,-1 -1,-1 -1,0 -1,-1 -1,-1 -1,-1 0,-4 1,-1 0,-2 -6,0 -1,1 -8,0 -1,1 -9,0 -1,1 -4,0 -1,1 -4,0 -1,1 -3,0 -1,1 -4,0 -1,1 -4,0 -1,1 -4,0 -1,1 -4,0 -1,1 -4,0 -1,1 -4,0 -2,2Z"/>
<path onmouseover="hoverPath(evt)" onmouseout="recoverPath(evt)" fill="rgb(171,198,237)" d="M  151,246l -1,0 -1,-1 -1,-1 0,-4 -1,-1 0,-7 -1,-1 0,-11 -12,0 0,13 1,1 0,10 -1,1 -1,1 -2,0 0,1 3,0 1,1 1,1 0,6 13,0 0,-7 1,-1 1,-1 5,0 0,-1 -3,0 -1,1Z"/>
<path onmouseover="hoverPath(evt)" onmouseout="recoverPath(evt)" fill="rgb(243,242,233)" d="M  159,220l 0,0 -1,1 0,2 -1,1 -2,0 -1,-1 0,-3 -1,0 -1,-1 -3,0 -1,1 0,10 1,1 0,7 1,1 0,4 1,1 1,-1 5,0 1,1 0,3 -1,1 -4,0 -1,1 -1,0 0,6 21,0 0,-2 -1,0 -1,1 -10,0 -1,-1 0,-9 1,-1 1,-1 9,0 1,-1 6,0 1,-1 9,0 1,-1 23,0 1,-1 4,0 1,-1 0,-6 1,-1 0,-11 -26,0 -1,-1 -7,0 -1,1 -22,0 -1,1Z"/>
<path onmouseover="hoverPath(evt)" onmouseout="recoverPath(evt)" fill="rgb(244,243,235)" d="M  162,247l -1,0 0,5 8,0 1,-1 3,0 1,1 0,3 44,0 0,-9 -1,-1 0,-1 -5,0 -1,-1 -12,0 -1,1 -11,0 -1,1 -8,0 -1,1 -8,0 -1,1Z"/>
<path onmouseover="hoverPath(evt)" onmouseout="recoverPath(evt)" fill="rgb(171,198,238)" d="M  198,241l -9,0 -1,1 -9,0 -1,1 -6,0 -1,1 -9,0 -1,1 6,0 5,-1 4,0 3,-1 6,0 4,-1 8,0 1,-1 14,0 1,1 5,0 1,1 0,1 1,1 0,10 3,0 0,-3 -1,-1 0,-25 1,-1 0,-5 -3,0 0,11 -1,1 0,6 -1,1 -1,1 -4,0 -1,1Z"/>
<path onmouseover="hoverPath(evt)" onmouseout="recoverPath(evt)" fill="rgb(244,242,235)" d="M  218,83l -1,1 0,1 -1,1 0,3 1,0 1,1 2,0 1,1 3,0 1,-1 4,0 1,1 1,1 1,1 1,1 0,37 -1,1 0,10 -1,1 0,10 -1,1 0,14 -1,1 0,11 -1,1 0,7 -1,1 0,11 -1,1 0,12 -1,1 19,0 0,-7 1,-1 2,0 1,1 0,6 1,1 6,0 0,-135 -9,0 -1,1 -8,0 -1,1 -11,0 -1,1 -5,0 -1,1Z"/>
<path onmouseover="hoverPath(evt)" onmouseout="recoverPath(evt)" fill="rgb(244,243,237)" d="M  223,1l 0,10 -1,1 0,25 -1,1 0,21 1,1 0,15 2,0 1,-1 5,0 1,-1 5,0 1,-1 8,0 1,-1 9,0 0,-71 -31,0 -1,1Z"/>
<path onmouseover="hoverPath(evt)" onmouseout="recoverPath(evt)" fill="rgb(242,241,232)" d="M  225,222l 0,4 -1,1 0,23 1,1 0,4 16,0 0,-7 -1,-1 0,-7 -1,-1 0,-8 -1,-1 0,-8 -1,-1 0,-1 -1,0 -1,-1 -10,0Z"/>
<path onmouseover="hoverPath(evt)" onmouseout="recoverPath(evt)" fill="rgb(241,240,230)" d="M  243,222l 0,5 1,1 0,8 1,1 0,8 1,1 0,9 9,0 0,-36 -10,0 -1,1 -1,0Z"/>
</svg>