<svg width="256" height="256" xmlns="http://www.w3.org/2000/svg"><script> 
var tempColor;
function hoverPath(evt){
obj = evt.target;
tempColor = obj.getAttribute("fill");
obj.setAttribute("fill","red");
//alert(tempColor);
//obj.setAttribute("stroke","red");}
function recoverPath(evt){
obj = evt.target;
obj.setAttribute("fill", tempColor);
//obj.setAttribute("stroke", tempColor);
}</script><path onmouseover="hoverPath(evt)" onmouseout="recoverPath(evt)" fill="rgb(244,242,235)" d="M  38,51l -1,0 -1,1 -2,0 0,1 1,1 1,0 1,1 0,3 2,0 1,1 0,3 2,0 1,1 0,4 2,0 1,1 0,1 1,1 1,0 1,1 0,2 1,1 1,0 1,1 0,2 1,1 1,0 1,1 0,2 1,1 1,0 1,1 0,2 1,1 1,0 1,1 0,2 1,1 1,0 1,1 0,2 1,1 1,0 1,1 0,2 1,1 1,0 1,1 0,2 1,1 1,0 1,1 0,2 1,1 1,0 1,1 0,2 1,1 1,0 1,1 0,2 1,1 1,0 1,1 0,2 1,1 1,0 1,1 0,2 1,1 1,0 1,1 0,2 1,1 1,0 1,1 0,2 1,1 1,0 1,1 1,-1 0,0 1,-1 1,0 1,-1 1,-1 4,-4 1,-1 1,-1 1,-1 1,0 0,-1 1,-1 1,-1 2,0 0,-1 1,-1 1,-1 1,0 1,-1 1,-1 1,0 1,-1 1,0 1,-1 2,0 1,-1 2,0 1,-1 7,0 1,-1 1,-1 2,0 1,-1 1,0 1,-1 1,0 1,-1 1,0 1,-1 1,0 1,-1 1,0 1,-1 1,0 1,-1 1,0 1,-1 1,-1 1,0 2,-2 1,-1 1,-1 1,-1 1,0 1,-1 1,-1 1,-1 1,-1 1,-1 1,-1 1,-1 1,0 1,-1 1,0 1,-1 1,0 1,-1 2,0 1,-1 2,0 1,-1 3,0 1,-1 2,0 1,-1 1,0 1,-1 1,0 1,-1 1,0 1,-1 1,0 1,-1 1,0 1,-1 1,0 1,-1 1,0 1,-1 1,0 1,-1 1,0 1,-1 10,0 1,-1 4,0 1,-1 1,0 1,-1 0,-12 -1,-1 0,0 -1,-1 -1,-1 -1,-1 0,-1 -1,-1 0,-3 -4,0 -1,-1 -1,-1 0,2 -2,2 0,2 -1,1 0,2 -1,1 -2,0 -1,-1 -1,1 -1,0 -1,1 0,2 -1,1 -1,0 -1,1 -2,0 -1,-1 -1,1 -1,0 -1,1 0,2 -1,1 -1,0 -1,1 -2,0 -1,-1 -3,0 -1,-1 -1,0 -1,-1 0,-1 -3,-3 0,-1 -1,-1 -1,-1 -1,-1 -1,-1 -1,-1 0,-1 -1,0 -1,-1 0,-5 1,-1 1,-1 1,0 1,-1 1,-1 1,0 1,-1 1,-1 0,-2 1,-1 2,0 1,1 1,-1 1,0 1,-1 1,-1 0,-2 1,-1 1,0 1,-1 1,-1 1,0 1,-1 1,0 1,-1 1,-1 0,-2 -1,-1 0,-1 -1,-1 -1,-1 0,-1 -1,-1 0,-1 -1,-1 -1,-1 0,-1 -1,-1 0,-1 -1,-1 -4,0 -1,-1 0,-2 1,-1 1,0 0,-1 -1,-1 0,0 -1,-1 0,-2 -43,0 0,1 7,7 0,1 1,1 1,1 2,0 1,-1 2,0 1,1 0,2 -1,1 -1,1 -1,0 -1,1 -1,1 -1,0 -1,1 -1,1 -1,0 -1,1 -1,0 -1,1 -1,0 -1,1 -1,1 -1,0 -1,1 -1,0 -1,1 -1,0 -1,1 -2,0 -1,-1 -1,1 0,2 -1,1 -1,1 -2,0 -1,-1 -1,1 0,2 -1,1 -1,1 -2,0 -1,-1 0,3 1,1 0,0 1,1 0,2 -1,1 1,1 0,5 -1,1 -1,0 -1,1 -1,0 -1,1 -1,0 -1,1 -1,0 -1,1 -1,0 -1,1 -1,1 -1,0 -1,1 -1,0 1,1 0,1 1,1 0,1 1,1 1,1 1,0 1,1 0,2 1,1 1,0 1,1 0,2 1,1 1,1 1,0 1,1 0,2 1,1 0,2 -1,1 -2,0 -1,-1 -1,-1 -1,0 -1,-1 -4,0 -1,-1 -7,0 -1,-1 0,-2 1,-1 9,0 -1,-1 0,-1 -1,0 -1,-1 0,-2 -1,-1 -1,0 -1,-1 0,-2 -1,-1 -1,-1 0,-1 -1,-1 -1,-1 0,-2 1,-1 -1,-1 0,0 -1,-1 -2,0 -1,-1 -1,-1 0,-2 1,-1 -1,-1 0,0 -1,-1 -2,0 -1,-1 -1,-1 0,-1 -1,-1 -2,-2 0,-2 1,-1 -1,-1 -3,0 -1,-1 0,-1 -1,-1 0,-1 -1,1 -2,0 -1,1 -1,0 -1,1 -1,0 -1,1 -1,0 -1,1 -1,0 -1,1 -1,0 -1,1 -1,0 -1,1 -1,0 -1,1 -1,0 -1,1 -1,1 -1,0 -1,1 -1,0 0,2 -1,1 -1,0 -1,1 -1,0 -1,1 -2,0 -1,-1 -1,1 -1,0 -1,1 -1,0 -1,1 -1,0 0,2 -1,1 -2,0 -1,-1 -1,1 117,-41 0,-2 1,-1 2,0 1,1 0,2 -1,1 -2,0 -1,-1 -117,41 143,-42 0,2 -1,1 -2,0 -1,-1 0,-2 1,-1 2,0 1,1 -143,42 138,-39 0,2 -1,1 -2,0 -1,-1 0,-2 1,-1 2,0 1,1 -138,39 84,-2 1,-1 2,0 1,1 0,2 -1,1 -2,0 -1,-1 0,-2 -84,2 90,-3 0,-2 1,-1 1,0 1,-1 2,0 1,1 0,2 -1,1 -1,0 -1,1 -2,0 -1,-1 -90,3 92,-9 -2,0 -1,-1 0,-2 1,-1 2,0 1,1 0,2 -1,1 -92,9 102,-20 1,-1 2,0 1,1 0,1 1,1 1,1 1,1 0,1 1,1 0,2 -1,1 -2,0 -1,-1 -1,1 -2,0 -1,-1 -1,-1 -1,-1 0,-2 1,-1 1,-1 0,-2 -102,20 53,17 -1,1 -2,0 -1,-1 0,-1 -1,-1 0,-2 1,-1 2,0 1,1 0,1 1,1 0,2 -53,-17Z"/>
<path onmouseover="hoverPath(evt)" onmouseout="recoverPath(evt)" fill="rgb(171,198,238)" d="M  77,192l 0,0 -1,1 0,1 -1,1 0,1 1,1 0,2 1,1 0,1 1,1 1,1 0,1 1,1 1,1 0,1 1,1 1,1 1,1 0,1 1,1 1,1 0,1 1,1 1,1 1,1 0,1 1,1 1,1 0,1 1,1 1,1 1,0 1,1 2,0 1,1 4,0 1,-1 5,0 1,-1 2,0 1,-1 1,0 1,-1 2,0 1,-1 1,0 1,-1 1,0 1,-1 1,0 1,-1 1,-1 0,-1 1,-1 0,-5 -1,-1 0,-1 -1,-1 -1,-1 -1,-1 0,-1 -1,-1 -1,-1 -1,-1 0,-1 -1,-1 -1,-1 -1,-1 0,-1 -1,-1 -1,-1 -1,-1 0,-1 -1,-1 -1,-1 -1,-1 0,-1 -1,-1 -1,-1 -1,-1 0,-1 -1,-1 -1,-1 -1,0 -1,-1 -4,0 -1,1 -1,0 -1,1 -1,0 -1,1 -1,0 -1,1 -1,0 -1,1 -1,1 -1,0 -1,1 -1,0 -1,1 -1,0 -1,1 -1,0 -1,1 -1,1 -1,0 -1,1Z"/>
<path onmouseover="hoverPath(evt)" onmouseout="recoverPath(evt)" fill="rgb(233,229,212)" d="M  140,36l 0,0 1,1 1,1 1,-1 0,0 -1,-1 0,0 -1,-1 0,1 1,1Z"/>
<path onmouseover="hoverPath(evt)" onmouseout="recoverPath(evt)" fill="rgb(243,241,232)" d="M  174,43l -1,0 -1,1 0,3 1,0 1,1 0,1 1,1 1,1 1,1 1,1 1,1 0,1 1,1 1,1 1,1 0,1 1,0 1,1 2,0 1,-1 1,0 1,-1 1,0 1,-1 1,-1 1,0 1,-1 1,0 1,-1 1,0 1,-1 1,0 1,-1 1,-1 1,0 1,-1 1,0 1,-1 1,0 1,-1 0,-2 1,-1 1,-1 0,-1 -1,-1 0,0 -1,-1 0,-2 1,-1 -1,-1 -1,-1 -2,0 -1,-1 -1,-1 0,-1 -1,-1 -1,-1 -1,-1 0,-1 -1,-1 -1,0 -1,1 -1,0 -1,1 -2,0 -1,-1 -1,1 0,2 -1,1 -1,0 -1,1 -2,2 -1,0 -1,1 -1,0 -1,1 -1,0 -1,1 -2,2 -1,0 -2,2Z"/>
<path onmouseover="hoverPath(evt)" onmouseout="recoverPath(evt)" fill="rgb(243,243,236)" d="M  0,137l 0,42 2,0 1,1 0,1 1,1 1,-1 0,0 1,-1 1,0 1,-1 3,0 1,-1 1,0 1,-1 3,0 1,1 0,-3 1,-1 1,-1 1,-1 1,-1 1,0 1,-1 1,-1 1,-1 -1,-1 0,-1 -1,-1 -1,-1 0,-1 -1,-1 -1,-1 0,-1 -1,-1 -1,-1 -1,-1 -1,-1 -1,-1 -1,-1 0,-1 -1,-1 -3,-3 -1,-1 0,-1 -1,-1 0,-1 -1,0 -1,-1 -1,-1 0,-1 -1,-1 0,-1 -1,-1 -1,-1 -1,-1 -1,-1 -1,1 0,-3 1,0 1,-1 0,-1 -1,-1 -1,-1Z"/>
<path onmouseover="hoverPath(evt)" onmouseout="recoverPath(evt)" fill="rgb(243,242,234)" d="M  4,9l -1,0 0,2 1,1 0,0 1,1 1,0 1,1 0,2 1,1 1,0 1,1 0,2 1,0 1,1 0,2 1,1 1,0 1,1 0,2 1,1 1,0 1,1 0,2 1,0 1,1 1,1 0,2 1,0 1,1 0,2 1,1 1,0 1,1 0,2 1,1 1,0 1,1 0,3 2,0 1,1 0,2 3,0 1,-1 1,0 1,-1 0,-3 1,-1 1,0 1,-1 1,0 1,-1 1,0 1,-1 1,0 1,-1 1,0 1,-1 1,-1 1,0 1,-1 1,0 1,-1 -1,-1 0,-1 -1,-1 -1,-1 0,-2 1,-1 2,0 1,1 1,1 1,1 3,0 1,1 1,-1 1,0 1,-1 1,0 1,-1 1,0 1,-1 1,0 1,-1 1,0 1,-1 1,0 1,-1 1,-1 1,0 0,-2 -1,-1 -1,0 -1,-1 0,-2 -1,-1 -2,0 -1,-1 -1,-1 0,-1 -1,-1 -1,-1 0,-4 -1,-1 -1,-1 -3,0 -1,-1 0,-3 1,-1 0,-2 -43,0 0,1 -1,1 -1,0 -1,1 -1,0 -1,1 -1,0 -1,1 -1,0 -1,1 -1,0 -1,1 -1,1 -1,0 -1,1 54,-2 0,2 -1,1 -2,0 -1,-1 0,-2 1,-1 2,0 1,1 -54,2Z"/>
<path onmouseover="hoverPath(evt)" onmouseout="recoverPath(evt)" fill="rgb(244,243,236)" d="M  116,160l 0,0 -1,-1 -1,-1 -1,-1 0,-6 1,-1 1,0 1,-1 1,0 1,-1 1,-1 1,0 1,-1 1,-1 1,0 2,-2 1,0 1,-1 0,-2 1,-1 1,0 1,-1 9,0 1,1 1,1 1,0 1,1 0,5 -1,1 -1,1 -1,1 -1,0 -1,1 -1,1 -1,0 -1,1 -1,1 -1,0 -1,1 -1,1 -1,0 -1,1 -1,1 -1,0 -2,2 -1,1 -1,0 -1,1 -4,0 -1,-1 -1,0 3,-14 -1,1 -1,1 -1,0 -1,1 0,0 4,-4 0,1 -3,14 -3,-10 -1,0 -1,-1 0,-2 1,-1 1,-1 1,0 1,-1 1,-1 -3,7 3,10 -4,-4 -2,0 -1,-1 0,-4 3,5 4,4 21,-24 -2,0 -1,-1 0,-2 1,-1 2,0 1,1 0,2 -1,1 -21,24 -9,-10 0,0 9,10 2,4 0,1 1,1 1,0 1,1 0,2 1,1 1,0 1,1 0,2 1,1 1,0 1,1 0,2 1,1 1,0 1,1 0,2 1,1 1,0 1,1 0,2 1,1 1,0 1,1 0,2 1,1 1,0 1,1 0,2 1,0 1,1 0,2 1,1 1,0 1,1 0,3 2,0 1,1 0,3 2,0 1,1 0,3 2,0 1,1 0,3 2,0 1,1 0,3 2,0 1,1 0,3 2,0 1,1 0,3 2,0 1,1 0,3 2,0 1,1 0,3 2,0 1,1 0,3 2,0 1,1 0,3 2,0 1,1 0,2 1,0 1,1 1,1 0,2 1,0 1,1 1,1 0,2 2,0 1,-1 1,0 1,-1 1,-1 1,0 1,-1 0,-1 1,-1 2,0 1,-1 1,-1 1,-1 1,-1 1,-1 1,0 1,-1 1,0 1,-1 1,0 1,-1 1,0 1,-1 1,0 1,-1 1,0 1,-1 1,0 1,-1 1,-1 1,0 1,-1 1,0 1,-1 1,0 1,-1 1,0 1,-1 1,0 1,-1 1,0 1,-1 1,0 1,-1 1,0 1,-1 1,0 1,-1 1,0 1,-1 2,0 1,-1 1,0 1,-1 1,0 1,-1 1,0 1,-1 1,0 1,-1 1,0 1,-1 1,0 1,-1 1,0 1,-1 1,0 1,-1 2,0 0,-125 -1,0 -1,-1 -1,-1 -1,-1 0,-1 -1,-1 0,-1 -1,-1 -1,-1 0,-1 -1,-1 0,-1 -1,-1 -1,-1 -1,-1 0,-1 -1,-1 -1,-1 -1,0 -1,-1 -1,-1 -1,-1 0,-1 -1,-1 -1,-1 -1,-1 0,-1 -1,-1 -1,-1 -1,-1 -1,-1 -1,-1 -1,-1 -1,0 0,2 1,1 0,3 -1,1 0,3 -1,1 -1,1 -1,1 -1,1 -1,1 -6,0 -1,1 -8,0 -1,1 -1,0 -1,1 -1,0 -1,1 -1,0 -1,1 -2,0 -1,1 -1,0 -1,1 -1,0 -1,1 -1,0 -1,1 -1,0 -1,1 -1,0 -1,1 -2,0 -1,1 -1,0 -1,1 -2,0 -1,1 -2,0 -1,1 -1,0 -1,1 -1,0 -1,1 -2,0 -1,1 -1,1 -1,1 -1,0 -1,1 -7,7 -1,1 -1,1 -1,0 -1,1 -1,0 -1,1 -1,0 -1,1 -1,0 -1,1 -1,0 -1,1 -1,0 -1,1 -1,0 -1,1 -1,0 -1,1 -1,0 -1,1 -1,0 -1,1 -3,0 -1,1 -8,0 -1,1 -1,0 -1,1 -1,0 -1,1 -1,0 -1,1 -1,1 -1,0 -1,1 -1,1 -1,0 -1,1 -1,1 -1,1 -1,0 0,2 -1,1 -1,1 -1,1 -1,1 -1,1 -2,2 -1,1 -1,0 -1,1 -1,1 -1,0 0,1 1,1 1,0 1,1 0,2 1,1 1,0 1,1 0,2 1,1 1,0 1,1 12,17 -2,-4 25,-29 0,-2 1,-1 1,0 1,-1 2,0 1,1 0,2 -1,1 -1,0 -1,1 -2,0 -1,-1 -25,29 132,1 0,2 -1,1 -2,0 -1,-1 0,-2 1,-1 2,0 1,1 -132,-1 125,4 0,2 -1,1 -2,0 -1,-1 0,-2 1,-1 2,0 1,1 -125,-4 116,8 0,2 -1,1 -2,0 -1,-1 0,-2 1,-1 2,0 1,1 -116,-8 107,12 0,2 -1,1 -2,0 -1,-1 0,-2 1,-1 2,0 1,1 -107,-12 96,17 0,2 -1,1 -2,0 -1,-1 0,-2 1,-1 2,0 1,1 -96,-17 71,30 -1,-1 0,-2 1,-1 2,0 1,1 0,2 -1,1 -2,0 -71,-30 85,22 0,2 -1,1 -2,0 -1,-1 0,-2 1,-1 2,0 1,1 -85,-22Z"/>
<path onmouseover="hoverPath(evt)" onmouseout="recoverPath(evt)" fill="rgb(239,240,235)" d="M  197,255l 58,0 0,-39 -1,0 0,2 -1,1 -1,0 -1,1 -1,0 -1,1 -1,0 -1,1 -2,0 -1,-1 -1,1 -1,0 -1,1 -1,0 -1,1 -1,0 -1,1 -2,0 -1,1 -1,0 -1,1 -1,0 -1,1 -1,0 -1,1 -1,0 -1,1 -1,0 -1,1 -1,0 -1,1 -1,0 -1,1 -1,0 -1,1 -1,0 -1,1 -1,0 -1,1 -1,1 -1,0 0,2 -1,1 -1,0 -1,1 -1,0 -1,1 -1,0 -1,1 -2,0 -1,-1 -1,1 -1,0 -1,1 -1,1 -1,1 -1,1 -1,1 -2,0 0,1 -1,1 -1,1 -1,0 -1,1 -1,1 -1,0 -1,1 0,1Z"/>
<path onmouseover="hoverPath(evt)" onmouseout="recoverPath(evt)" fill="rgb(244,243,237)" d="M  218,1l 1,1 0,1 3,3 0,2 1,0 1,1 1,1 1,1 0,2 1,0 1,1 1,1 1,1 0,2 1,0 1,1 1,1 1,1 0,1 1,1 0,1 1,0 1,1 1,1 1,1 0,1 1,-1 1,0 1,-1 1,-1 1,-1 0,-2 1,-1 0,-1 1,-1 0,-1 1,-1 0,-1 1,-1 1,-1 0,-1 1,-1 0,-1 1,-1 0,-1 1,-1 0,-1 1,-1 2,0 0,-6 -36,0 -1,1Z"/>
<path onmouseover="hoverPath(evt)" onmouseout="recoverPath(evt)" fill="rgb(182,150,237)" d="M  0,14l 0,17 2,0 1,1 0,2 1,1 1,0 1,1 0,2 1,1 1,0 1,1 0,2 1,0 1,1 1,1 0,2 1,0 1,1 1,1 0,2 1,0 1,1 1,1 0,2 1,0 1,1 1,1 0,2 1,0 1,1 1,1 0,2 1,0 1,1 1,1 0,2 1,0 1,1 1,1 0,1 1,1 0,1 1,1 1,0 1,1 0,2 1,1 0,2 1,1 1,0 1,1 0,2 1,1 1,0 1,1 0,2 1,1 1,0 1,1 0,2 1,1 1,0 1,1 0,2 1,1 1,0 1,1 0,2 1,1 1,0 1,1 0,2 1,1 1,1 0,1 1,1 1,1 1,0 1,1 0,2 1,1 1,0 1,1 0,2 1,1 1,1 0,1 1,1 1,0 1,1 0,2 1,1 2,0 1,1 1,1 0,2 1,0 1,1 1,1 0,2 1,1 1,1 1,0 1,1 0,3 1,0 1,1 1,1 0,2 -1,1 -3,0 -1,1 -1,0 -1,1 -2,2 -1,0 -1,1 -1,1 -1,0 -1,1 -1,1 -1,0 -1,1 -1,1 -1,0 -1,1 -1,0 -1,1 -1,0 -1,1 -1,0 -1,1 -2,0 -1,1 -2,0 -1,1 -2,0 -1,1 -2,0 -1,1 -1,0 -1,1 -1,0 -1,1 -1,1 -1,0 -1,1 -1,1 -1,0 -1,1 -1,1 -3,0 -1,-1 0,-1 -1,-1 -1,-1 0,-1 -1,-1 -1,-1 -1,-1 -1,-1 0,-1 -1,-1 -1,-1 -5,-5 -1,-1 -4,-4 0,-1 -1,-1 0,-1 -1,-1 0,-1 -1,-1 -1,-1 -1,-1 -1,-1 -2,0 1,1 0,0 1,1 1,1 1,1 0,1 1,1 0,1 1,1 1,0 -10,-129 13,134 1,1 1,1 1,1 1,1 0,1 1,1 1,1 1,1 1,1 1,1 1,1 0,1 1,1 1,1 0,1 1,1 1,1 0,1 1,1 0,2 -1,1 -1,1 -1,1 -1,1 -1,0 -1,1 -1,1 -1,1 0,1 1,0 1,-1 1,-1 1,-1 1,0 1,-1 1,-1 4,0 1,1 1,1 1,1 1,1 1,1 1,1 1,1 1,1 1,1 1,1 0,1 1,1 1,1 1,1 1,1 1,1 0,1 1,1 1,1 1,1 1,1 1,1 1,1 1,0 -1,-1 0,-1 -3,-3 -1,-1 -1,-1 0,-1 -1,-1 -1,-1 -1,-1 -1,-1 -1,-1 0,-1 -1,-1 -1,-1 -1,-1 -1,-1 0,-1 -2,-2 -1,-1 -1,-1 0,-5 1,-1 1,-1 1,0 1,-1 1,-1 1,0 1,-1 1,0 1,-1 1,-1 1,0 1,-1 4,0 1,-1 2,0 1,-1 1,0 1,-1 1,0 1,-1 1,0 1,-1 1,0 1,-1 1,0 1,-1 1,0 1,-1 1,0 1,-1 1,-1 1,0 1,-1 1,0 1,-1 1,-1 1,-1 1,0 2,-2 1,0 1,-1 5,0 1,1 1,1 0,2 1,0 1,1 1,1 0,2 1,0 1,1 1,1 0,2 1,0 1,1 1,1 0,2 2,0 1,1 0,3 1,1 1,0 1,1 0,2 1,1 1,0 1,1 0,2 1,1 1,0 1,1 0,2 1,1 1,0 1,1 0,2 1,1 1,0 1,1 0,2 1,1 1,0 1,1 0,2 1,1 1,0 1,1 0,2 1,1 1,0 1,1 0,2 1,1 1,0 1,1 0,2 1,1 1,0 1,1 0,2 1,0 1,1 1,1 0,2 1,0 1,1 0,2 1,1 1,0 1,1 0,2 1,0 1,1 1,1 0,2 1,0 1,1 1,1 0,2 1,0 1,1 0,2 1,1 1,0 1,1 0,2 1,0 1,1 1,1 0,2 1,0 1,1 1,1 0,2 1,0 1,1 0,2 1,1 1,0 1,1 0,2 1,0 1,1 1,1 0,2 1,0 1,1 1,1 0,2 1,0 1,1 1,1 0,2 16,0 0,-1 -2,0 -1,-1 0,-2 -1,-1 -1,0 -1,-1 0,-2 -1,-1 -1,0 -1,-1 0,-2 -2,0 -1,-1 0,-3 -2,0 -1,-1 0,-3 -2,0 -1,-1 0,-3 -2,0 -1,-1 0,-3 -2,0 -1,-1 0,-3 -2,0 -1,-1 0,-3 -2,0 -1,-1 0,-3 -2,0 -1,-1 0,-3 -2,0 -1,-1 0,-3 -2,0 -1,-1 0,-3 -2,0 -1,-1 0,-3 -1,0 -1,-1 -1,-1 0,-2 -1,0 -1,-1 0,-2 -1,0 -1,-1 -1,-1 0,-2 -1,0 -1,-1 -1,-1 0,-2 -1,0 -1,-1 -1,-1 0,-2 -1,0 -1,-1 -1,-1 0,-2 -1,0 -1,-1 -1,-1 0,-2 -1,0 -1,-1 -1,-1 0,-2 -1,0 -1,-1 -1,-1 0,-2 -1,0 -2,-2 0,-2 -1,0 -1,-1 0,-1 -3,0 -1,-1 0,-5 -2,0 -1,-1 0,-3 -1,0 -1,-1 -1,-1 0,-2 -1,0 -1,-1 -1,-1 0,-2 -1,0 -1,-1 -1,-1 0,-1 -1,0 -1,-1 -1,0 -1,-1 -1,-1 0,-3 -1,-1 0,-2 -1,0 -1,-1 -1,-1 0,-2 -1,0 -1,-1 -1,-1 0,-2 -1,0 -1,-1 -1,-1 0,-2 -1,0 -1,-1 -1,-1 0,-2 -1,0 -1,-1 -1,-1 0,-2 -1,0 -1,-1 -1,-1 0,-2 -1,0 -1,-1 -1,-1 0,-2 -1,0 -1,-1 -1,-1 0,-2 -1,0 -1,-1 -1,-1 0,-2 -1,0 -1,-1 -1,-1 0,-2 -1,0 -1,-1 -1,-1 0,-2 -1,0 -1,-1 -1,-1 0,-2 -1,0 -1,-1 -1,-1 0,-2 -1,0 -1,-1 -1,-1 0,-2 -1,0 -1,-1 -1,-1 0,-1 -2,0 -1,-1 0,-4 -2,0 -1,-1 0,-3 -2,0 -1,-1 0,-3 -1,0 -1,-1 -1,-1 0,-2 -1,0 -1,-1 0,-2 -2,0 -1,-1 0,-3 -1,0 -1,-1 -1,-1 0,-2 -1,0 -1,-1 -1,-1 0,-2 -1,0 -1,-1 0,-2 -1,-1 -1,0 -1,-1 0,-2 -1,0 -1,-1 -1,-1 0,-2 -1,0 -1,-1 -1,-1 0,-2 -1,0 -1,-1 0,-2 -1,0 -1,-1 -1,-1 0,-2 -1,0 -1,-1 -1,-1 -1,-1 0,-4 1,-1 1,0 1,-1 1,0 1,-1 1,-1 1,0 1,-1 1,0 1,-1 1,0 1,-1 1,0 1,-1 -15,0 0,13 13,135 -13,-134Z"/>
<path onmouseover="hoverPath(evt)" onmouseout="recoverPath(evt)" fill="rgb(244,243,236)" d="M  0,74l 0,54 1,0 1,1 1,1 1,1 0,2 2,0 1,1 1,1 1,1 1,1 1,1 0,1 1,1 0,1 1,1 0,1 1,1 1,1 1,1 1,1 1,1 1,1 1,1 1,1 1,1 2,2 1,1 0,1 1,1 1,1 1,1 1,1 0,1 1,1 1,1 0,1 1,0 1,-1 1,-1 1,0 1,-1 1,-1 1,0 2,-2 1,0 1,-1 1,0 1,-1 2,0 1,-1 2,0 1,-1 2,0 1,-1 2,0 1,-1 1,0 1,-1 1,0 1,-1 1,0 1,-1 1,0 1,-1 1,-1 1,0 1,-1 1,-1 1,0 1,-1 1,-1 1,0 3,-3 1,0 1,-1 3,0 -1,-1 -1,0 -1,-1 0,-3 -1,0 -1,-1 -1,-1 -1,-1 0,-2 -1,-1 -1,0 -1,-1 0,-2 -1,-1 -2,0 -1,-1 -1,-1 0,-2 -1,0 -1,-1 -1,-1 0,-1 -1,-1 -1,-1 0,-2 -1,0 -1,-1 -1,-1 0,-2 -1,0 -1,-1 -1,-1 -1,-1 0,-1 -1,-1 -1,-1 0,-2 -1,0 -1,-1 -1,-1 0,-2 -1,0 -1,-1 -1,-1 0,-2 -1,0 -1,-1 -1,-1 0,-2 -1,0 -1,-1 -1,-1 0,-2 -1,0 -2,-2 0,-2 -1,0 -1,-1 -1,-1 0,-2 -1,-1 0,-2 -1,0 -1,-1 -1,-1 0,-1 -1,-1 0,-1 -1,-1 -1,0 -1,-1 0,-2 -1,-1 -1,0 -1,-1 0,-2 -1,-1 -1,0 -1,-1 0,-2 -1,-1 -1,0 -1,-1 0,-2 -1,-1 -1,0 -1,-1 0,-2 -1,-1 -1,0 -1,-1 0,-2 -1,-1 -1,0 -1,-1 0,-2 -1,0 -1,-1 -1,-1 0,-2 -1,0 -1,-1 -1,-1 0,-2 -1,0 0,41 18,-14 0,2 -1,1 -1,0 -1,1 -2,0 -1,-1 0,-2 1,-1 1,0 1,-1 2,0 1,1 -18,14 9,-9 0,2 -1,1 -2,0 -1,-1 0,-2 1,-1 2,0 1,1 -9,9Z"/>
<path onmouseover="hoverPath(evt)" onmouseout="recoverPath(evt)" fill="rgb(251,251,249)" d="M  1,182l 0,-1 -1,0 0,7 2,0 1,1 0,1 1,1 1,1 1,1 0,2 1,0 1,1 1,1 1,1 0,1 1,1 1,1 0,4 1,1 2,0 3,3 0,2 -1,1 1,1 2,0 1,1 1,1 1,1 0,1 1,1 1,1 1,1 0,1 1,1 1,1 0,4 1,1 2,0 1,1 1,1 1,1 0,1 1,1 1,1 0,1 1,1 1,1 1,1 0,1 1,1 1,1 0,4 1,1 1,0 1,1 0,2 1,1 2,0 1,1 1,1 1,1 0,2 4,0 0,-2 -1,-1 0,0 -1,-1 0,-4 -1,-1 -2,0 -1,-1 -1,-1 -1,-1 0,-1 -1,-1 -1,-1 -1,-1 0,-1 -1,-1 -1,-1 0,-4 -1,-1 -2,0 -1,-1 -1,-1 0,-4 -1,-1 -2,0 -1,-1 -1,-1 0,-1 -1,-1 -1,-1 -1,-1 -1,-1 0,-1 -1,-1 -1,-1 0,-4 -1,-1 -2,0 -1,-1 -1,-1 0,-4 -1,-1 -1,0 -1,-1 0,-2 -1,-1 -2,0 -1,-1 -1,-1 0,-2 -1,0 -1,-1 -1,-1 -1,-1 0,-1 -1,-1 -1,-1 -1,-1 0,-1 -1,-1 0,-1 -1,0 -1,-1 -1,-1Z"/>
<path onmouseover="hoverPath(evt)" onmouseout="recoverPath(evt)" fill="rgb(244,243,235)" d="M  0,194l 0,61 48,0 0,-1 -1,-1 0,0 -1,-1 -2,0 -1,-1 -1,-1 0,-2 -1,0 -1,-1 -1,-1 0,-4 -1,-1 -1,-1 0,-1 -1,-1 -1,-1 -1,-1 0,-1 -1,-1 -1,-1 0,-1 -1,-1 -1,-1 -2,0 -1,-1 -1,-1 0,-4 -1,-1 -1,-1 0,-1 -1,-1 -1,-1 -1,-1 0,-1 -1,-1 -1,-1 -2,0 -1,-1 -1,-1 0,-2 1,-1 -1,-1 0,0 -1,-1 -2,0 -1,-1 -1,-1 0,-4 -1,-1 -1,-1 0,-1 -1,-1 -1,-1 -1,0 -1,-1 0,-2 -1,-1 -1,-1 -1,-1 0,-1 -1,0Z"/>
<path onmouseover="hoverPath(evt)" onmouseout="recoverPath(evt)" fill="rgb(244,243,236)" d="M  8,187l 0,0 1,1 1,1 0,1 1,1 1,1 1,0 1,1 0,2 1,1 2,0 1,1 1,1 0,2 1,0 1,1 1,1 0,4 1,1 2,0 1,1 1,1 0,4 1,1 1,1 0,1 1,1 2,2 1,1 0,1 1,1 2,0 1,1 1,1 0,4 1,1 2,0 1,1 1,1 0,4 1,1 1,1 0,1 1,1 1,1 1,1 0,1 1,1 1,1 2,0 1,1 1,1 0,4 1,1 1,1 0,3 46,0 0,-2 -1,-1 -1,-1 -1,-1 -1,-1 -1,-1 0,-1 -1,-1 -1,-1 -1,-1 -1,-1 -1,0 -1,-1 -1,-1 -1,-1 -1,-1 -1,-1 -1,-1 -1,-1 -1,-1 -1,-1 -1,-1 -1,0 -1,-1 -1,-1 0,-1 -1,-1 -1,-1 -1,-1 0,-1 -1,-1 -1,-1 -1,-1 -1,-1 -1,-1 0,-1 -1,-1 -1,-1 -1,-1 -1,-1 -1,-1 -1,-1 -2,-2 -1,-1 0,-1 -1,-1 -1,-1 -1,-1 0,-1 -1,-1 -1,-1 -1,-1 -1,-1 -1,-1 -1,-1 0,-1 -1,-1 0,-1 -1,0 -1,-1 -1,-1 -1,-1 -1,-1 -1,-1 -1,-1 -1,-1 0,-1 -1,-1 -1,-1 -1,-1 -1,-1 -1,-1 0,-1 -1,-1 -1,-1 -1,-1 -1,-1 -1,-1 -1,-1 -1,-1 -1,-1 -1,-1 -2,0 -1,1 -1,1 -1,0 -1,1 -2,2 -2,0 -1,1 -2,0 -1,-1 -1,0 -1,1 -1,0 -1,1 -3,0 -1,1 -1,0 -1,1 0,1 1,1 0,1 1,1Z"/>
<path onmouseover="hoverPath(evt)" onmouseout="recoverPath(evt)" fill="rgb(248,248,243)" d="M  41,46l -1,0 0,2 1,1 0,-2 1,-1 1,0 1,-1 1,0 1,-1 1,0 1,-1 2,0 1,1 1,-1 1,0 1,-1 1,0 0,-2 1,-1 1,0 1,-1 1,0 1,-1 1,-1 1,0 1,-1 1,0 1,-1 1,0 1,-1 1,0 1,-1 1,0 1,-1 1,0 1,-1 1,0 1,-1 1,0 1,-1 2,0 1,-1 2,0 1,1 0,1 1,1 0,1 1,0 -1,-2 -1,-2 0,-1 1,-1 1,-1 1,-1 1,0 1,-1 1,0 1,-1 2,0 1,1 0,-2 1,-1 1,-1 1,0 1,-1 1,0 1,-1 1,0 1,-1 2,0 1,1 0,-2 1,-1 1,0 2,-2 1,0 1,-1 1,-1 2,0 1,1 0,-2 1,-1 1,-1 1,0 1,-1 1,-1 2,0 1,1 0,-2 1,-1 1,-1 1,0 0,-1 -13,0 0,3 -1,1 -1,1 -1,0 -1,1 -1,0 -1,1 -1,0 -1,1 -1,0 -1,1 -1,0 -1,1 -1,0 -1,1 -1,0 -1,1 -1,0 -1,1 -1,1 -1,0 0,1 1,1 0,2 -1,1 -1,0 -1,1 -1,1 -1,0 -1,1 -1,0 -1,1 -1,0 -1,1 -2,0 -1,-1 -1,-1 -1,-1 -1,-1 0,1 1,1 0,4 -1,1 -1,0 -1,1 -1,1 -1,0 -1,1 -1,0 -1,1 -1,0 -1,1 -1,0 -1,1 -1,0 -1,1 -1,0 -1,1 -2,0 -1,-1 -3,0 -1,-1 -1,-1 -1,-1 2,3 1,1 0,2 -1,1 -1,1 -1,0 -1,1 -1,0 -2,2 -1,0 -1,1 -1,0 -1,1 -1,0 -1,1 -1,0 -1,1 35,-26 1,-1 0,0 -1,-1 0,0 -1,-1 0,-1 -2,-2 0,-4 -1,-1 -2,0 -1,-1 -1,-1 0,-1 -1,-1 0,-2 1,-1 1,0 1,-1 2,0 0,-1 -9,0 0,3 -1,1 0,1 3,0 1,1 1,1 1,1 0,4 1,1 1,1 0,1 1,1 2,0 1,1 1,1 0,1 1,1 -35,26Z"/>
<path onmouseover="hoverPath(evt)" onmouseout="recoverPath(evt)" fill="rgb(171,198,238)" d="M  62,206l 0,0 -1,-1 0,1 1,1 1,1 1,1 0,1 1,1 1,1 1,1 1,1 1,1 3,3 1,1 0,1 1,1 1,1 1,1 1,1 1,1 0,1 1,1 1,1 1,1 0,1 1,1 1,0 1,1 1,1 1,1 1,1 1,1 1,1 1,1 1,1 1,1 1,1 1,0 1,1 1,1 1,1 1,1 1,1 0,1 1,1 1,1 1,1 1,1 1,1 0,3 6,0 0,-1 -1,-1 0,0 -1,-1 -1,-1 -1,-1 -1,-1 -1,-1 -1,-1 0,-1 -1,-1 -1,-1 -1,-1 -1,-1 -1,-1 0,-1 -1,-1 -1,-1 -1,-1 -1,-1 -1,-1 -1,-1 -1,-1 -1,0 -1,-1 -1,-1 -1,-1 -1,-1 -1,-1 -1,-1 -1,-1 -1,0 -1,-1 -1,-1 -1,-1 -1,-1 -1,-1 -1,-1 -1,-1 0,-1 -1,-1 0,-1 -1,-1 0,-1 -1,-1 -1,-1 -1,-1 -1,0 -1,-1 -1,-1 -1,-1 -1,0 -1,-1 -1,-1 -1,0 -1,-2 0,-1 -1,-1 -1,-1 -1,-1 -1,-1 -1,-1 -1,-1 -1,0 1,1 0,1 1,1 0,0 1,1 1,1 1,1 1,1 1,0 1,2Z"/>
<path onmouseover="hoverPath(evt)" onmouseout="recoverPath(evt)" fill="rgb(241,239,228)" d="M  110,2l 0,-2 -36,0 0,2 -1,1 -2,0 -1,1 -1,0 1,1 0,1 1,1 2,0 1,1 1,1 0,4 1,1 1,1 0,1 1,1 1,1 0,1 3,3 1,-1 1,0 1,-1 1,0 1,-1 1,0 1,-1 1,-1 1,0 -1,-1 0,-3 1,-1 1,0 1,-1 1,-1 1,0 1,-1 1,0 1,-1 1,0 1,-1 1,0 1,-1 1,0 1,-1 1,0 1,-1 1,0 1,-1 1,0 1,-1 -30,1 2,0 1,1 1,1 0,2 -1,1 -2,0 -1,-1 -1,-1 0,-2 1,-1 30,-1Z"/>
<path onmouseover="hoverPath(evt)" onmouseout="recoverPath(evt)" fill="rgb(246,235,138)" d="M  222,10l -1,0 -1,-1 0,-2 -1,-1 -1,-1 -1,-1 0,-1 -1,-1 0,-2 -8,0 0,1 1,0 1,1 0,2 1,1 1,1 1,1 0,1 1,1 1,1 1,1 0,1 1,1 1,1 1,0 1,1 0,2 1,1 1,1 1,0 1,1 0,2 1,1 2,2 1,0 1,1 0,2 1,1 1,1 2,0 1,1 1,1 0,1 1,1 1,1 0,3 1,1 1,1 1,0 1,1 0,2 1,1 1,1 1,0 1,1 0,2 2,2 1,1 1,0 1,1 0,2 1,1 1,1 3,0 0,-8 -2,0 -1,-1 -1,-1 -1,0 -1,-1 0,-2 -1,-1 -1,-1 -1,0 -1,-1 0,-2 -1,-1 -1,-1 -2,0 -1,-1 0,-1 -1,-1 -1,-1 0,-2 -1,-1 0,-1 -1,-1 -1,-1 -1,0 -1,-1 0,-1 -1,-1 0,-1 -1,-1 -1,-1 -1,0 -1,-1 0,-2 -1,-1 -1,-1 -1,0 -1,-1 0,-2 -1,-1 -1,-1Z"/>
<path onmouseover="hoverPath(evt)" onmouseout="recoverPath(evt)" fill="rgb(244,243,235)" d="M  230,42l 0,0 -1,1 -1,1 -1,1 0,2 1,1 1,1 1,0 1,1 1,1 1,0 1,1 1,1 1,0 1,1 1,1 1,1 1,1 1,1 1,1 1,1 1,1 1,1 1,1 1,1 1,1 1,1 1,1 0,1 1,1 1,1 1,1 0,1 1,1 1,0 0,-15 -4,0 -1,-1 -1,-1 -1,-1 0,-2 -1,0 -1,-1 -1,-1 -1,-1 -1,-1 0,-2 -1,0 -3,-3 0,-2 -1,0 -1,-1 -1,-1 -3,0 -1,1 -1,0 -1,1Z"/>
<path onmouseover="hoverPath(evt)" onmouseout="recoverPath(evt)" fill="rgb(174,199,237)" d="M  253,10l 0,1 -1,1 0,1 -1,1 0,1 -2,2 0,1 -1,1 0,1 -1,1 0,1 -1,1 0,2 -1,1 -1,1 -1,1 -1,1 -1,0 -1,1 0,1 1,1 0,0 1,1 0,1 1,-2 0,0 1,-1 5,-5 1,-1 0,-1 1,-1 0,-1 1,-1 0,-1 1,-1 2,0 0,-11 -1,0 0,1 -1,1Z"/>
<path onmouseover="hoverPath(evt)" onmouseout="recoverPath(evt)" fill="rgb(243,242,234)" d="M  86,26l 0,0 -1,1 1,1 0,1 1,1 0,1 1,1 1,1 0,2 -1,1 1,1 1,1 2,0 1,1 1,1 0,1 1,1 1,1 1,1 0,1 1,1 1,1 0,1 1,1 1,1 1,1 0,2 -1,1 1,1 0,0 1,1 0,1 1,1 1,1 0,2 1,0 1,1 1,1 0,2 1,0 1,1 0,1 1,1 0,2 -1,1 -9,0 8,1 4,0 1,1 1,0 1,1 1,1 -1,-2 0,-1 -1,0 -1,-1 -1,-1 -1,-1 0,-2 -1,0 -25,-41 17,28 1,-1 1,0 1,-1 1,0 1,-1 0,-2 1,-1 1,0 1,-1 1,0 1,-1 1,0 1,-1 2,0 1,1 0,-3 -1,-1 0,-2 1,-1 -1,-1 -1,-1 0,-5 1,-1 2,0 1,1 1,-1 0,-2 1,-1 1,-1 2,0 1,1 1,-1 0,-2 1,-1 1,-1 1,0 1,-1 2,0 1,1 1,-1 1,0 1,-1 1,0 1,-1 1,-1 1,0 1,-1 1,0 1,-1 1,0 1,-1 1,-1 1,0 1,-1 1,-1 1,0 1,-1 -3,1 -2,0 -1,-1 -1,-1 -1,-1 0,-1 -1,-1 -2,-2 -1,-1 -1,-1 -1,-1 -1,-1 0,-2 -10,0 0,2 -1,1 -1,0 -1,1 0,2 -1,1 -2,0 -1,-1 -1,1 -1,1 -1,0 -1,1 0,2 -1,1 -2,0 -1,-1 -1,1 -1,1 -1,0 -1,1 -1,1 -1,0 0,2 -1,1 -2,0 -1,-1 -1,1 -1,0 -1,1 -1,0 -1,1 -1,0 -1,1 0,2 -1,1 -2,0 -1,-1 -1,1 -1,0 -1,1 -1,0 16,29 -17,-28Z"/>
<path onmouseover="hoverPath(evt)" onmouseout="recoverPath(evt)" fill="rgb(244,243,236)" d="M  103,227l -6,0 -1,-1 -2,0 -1,-1 -1,0 -1,-1 -1,-1 -1,-1 0,-1 -1,-1 -1,-1 0,-1 -1,-1 -1,-1 -1,-1 0,-1 -1,-1 -1,-1 0,-1 -1,-1 -1,-1 -1,-1 0,-1 -1,-1 -1,-1 0,-1 -1,-1 -1,-1 0,-1 -1,-1 0,-2 -1,-1 0,-3 1,-1 0,-1 2,-2 1,-1 1,0 1,-1 1,-1 1,0 1,-1 1,0 1,-1 1,0 1,-1 1,0 1,-1 1,-1 1,0 1,-1 1,0 1,-1 1,0 1,-1 1,0 1,-1 6,0 1,1 1,0 1,1 1,1 1,1 0,1 1,1 1,1 1,1 0,1 1,1 1,1 1,1 0,1 1,1 1,1 1,1 0,1 1,1 1,1 1,1 0,1 1,1 1,1 1,1 0,1 1,1 1,1 1,1 0,1 1,1 0,7 -1,1 0,1 -1,1 -1,1 -1,1 -1,0 -1,1 -1,0 -1,1 -1,0 -1,1 -2,0 -1,1 -1,0 -1,1 -2,0 -1,1 -5,0 -1,1 25,-23 -1,-1 0,-2 -1,0 -1,-1 -1,-1 0,-2 -1,0 -1,-1 -1,-1 0,-2 -1,0 -1,-1 -1,-1 0,-2 -1,0 -1,-1 -1,-1 0,-2 -1,0 -1,-1 -1,-1 0,-2 -1,0 -1,-1 -1,-1 0,-2 -1,0 -1,-1 -1,-1 0,-2 -1,0 -1,-1 -1,-1 0,-2 -1,0 -1,-1 -1,-1 0,-2 -1,0 -1,-1 -1,-1 0,-3 -2,0 -1,-1 0,-2 -1,-1 -1,0 -1,-1 0,-2 -1,-1 -1,0 -1,-1 0,-2 -1,-1 -1,0 -1,-1 0,-2 -1,-1 -3,0 -1,1 -1,0 -1,1 -1,1 -1,0 -1,1 -1,1 -1,1 -1,0 -1,1 -1,0 -1,1 -1,1 -1,0 -1,1 -1,0 -1,1 -1,0 -1,1 -1,0 -1,1 -1,0 -1,1 -1,0 -1,1 -1,0 -1,1 -2,0 -1,1 -4,0 -1,1 -1,0 -2,2 -1,0 -1,1 -1,0 -1,1 -1,1 -1,0 -1,1 0,3 1,1 0,0 1,1 1,1 1,1 0,1 1,1 1,1 1,1 1,1 0,1 1,1 1,1 1,1 1,1 1,1 0,1 1,1 1,1 1,1 1,1 1,1 0,1 1,1 0,1 1,0 1,1 1,1 1,1 1,1 1,1 1,1 1,1 0,2 1,0 1,1 1,1 1,0 1,1 1,1 1,1 1,0 1,1 1,1 1,1 1,1 0,1 1,1 0,1 1,1 0,1 1,1 1,1 1,1 1,1 1,1 1,1 1,0 1,1 1,1 1,1 1,1 1,1 1,1 1,1 1,0 1,1 1,1 1,1 1,1 1,1 1,1 1,1 1,1 0,1 1,1 1,1 1,1 1,1 1,1 0,1 1,1 1,1 1,1 1,1 1,1 1,1 1,1 0,2 54,0 0,-1 -1,-1 -1,0 -1,-1 0,-2 -1,-1 -1,0 -1,-1 0,-2 -1,-1 -1,0 -1,-1 0,-2 -1,0 -2,-2 0,-2 -1,0 -1,-1 0,-2 -1,-1 -1,0 -1,-1 0,-2 -1,-1 -1,0 -1,-1 0,-2 -1,0 -1,-1 -1,-1 0,-2 -1,0 -1,-1 0,-2 -1,-1 -1,0 -1,-1 0,-2 -1,-1 -1,0 -1,-1 0,-2 -1,0 -1,-1 -1,-1 0,-2 -1,0 -1,-1 0,-2 -1,-1 -1,0 -25,23Z"/>
<path onmouseover="hoverPath(evt)" onmouseout="recoverPath(evt)" fill="rgb(171,198,238)" d="M  118,151l -1,0 -1,1 -1,0 0,4 1,1 0,0 1,1 1,0 1,1 2,0 1,-1 1,0 2,-2 1,-1 1,0 1,-1 1,-1 1,0 1,-1 1,-1 1,0 1,-1 1,-1 1,0 2,-2 1,0 2,-2 0,-3 -1,0 -1,-1 -1,-1 -7,0 -1,1 -1,0 0,2 -1,1 -1,1 -1,0 -1,1 -1,1 -1,0 -1,1 -1,1 -1,0 -1,1 -1,1Z"/>
<path onmouseover="hoverPath(evt)" onmouseout="recoverPath(evt)" fill="rgb(171,197,238)" d="M  190,79l -1,0 -1,1 -1,0 -1,1 -2,0 -1,1 -3,0 -1,1 -2,0 -1,1 -2,0 -1,1 -1,0 -1,1 -1,0 -1,1 -1,0 -2,2 -1,1 -4,4 -1,0 -1,1 -1,1 -1,1 -1,1 -1,1 -1,0 -1,1 -1,1 -1,0 -1,1 -1,0 -1,1 -1,0 -1,1 -1,0 -1,1 -1,0 -1,1 -1,0 -1,1 -1,0 -1,1 -2,0 -1,1 -1,1 -7,0 -1,1 -2,0 -1,1 -2,0 -1,1 -1,0 -1,1 -1,0 -1,1 -1,1 -1,0 -1,1 0,1 -1,1 -2,0 -1,1 0,1 -1,1 -1,0 -1,1 -4,4 -1,1 -2,2 -1,1 -1,0 -1,1 -1,1 -2,0 0,1 1,0 1,1 1,-1 1,0 1,-1 1,-1 1,0 1,-1 1,-1 1,-1 1,-1 1,-1 1,-1 1,-1 0,-2 83,-44 -98,54 0,-1 17,-10 0,0 1,-1 1,-1 -1,0 3,-1 1,-1 1,-1 1,0 1,-1 1,-1 1,0 1,-1 1,0 1,-1 1,0 1,-1 8,0 1,-1 3,0 1,-1 1,0 1,-1 1,0 1,-1 1,0 1,-1 1,0 1,-1 1,0 1,-1 1,0 1,-1 1,0 1,-1 1,0 1,-1 1,0 1,-1 1,0 1,-1 4,-4 1,-1 4,-4 1,0 1,-1 1,-1 1,-1 2,0 1,-1 1,0 1,-1 1,0 1,-1 2,0 1,-1 2,0 1,-1 1,0 1,-1 2,0 1,-1 1,0 1,-1 1,0 1,-1 1,0 1,-1 1,0 1,-1 1,0 1,-1 2,0 1,-1 1,0 1,-1 1,0 1,-1 1,0 1,-1 8,0 1,-1 6,0 1,-1 1,-1 1,-1 1,-1 0,-3 1,-1 0,-1 -1,-1 0,-4 1,-1 3,0 1,1 1,1 1,1 1,1 1,1 1,1 1,1 0,1 1,1 1,1 1,1 0,1 1,1 1,1 1,0 1,1 1,1 1,1 0,1 1,1 1,1 1,1 0,1 1,1 0,1 1,1 1,1 0,1 1,1 0,1 1,1 1,1 0,-12 -2,0 -1,-1 -1,-1 0,-1 -1,-1 -1,-1 -1,-1 0,-1 -1,-1 -1,-1 -1,-1 -1,-1 -1,-1 -1,-1 -1,-1 -1,-1 -1,-1 -1,-1 -1,-1 -1,-1 -1,-1 -1,0 -1,-1 -1,-1 -1,0 -1,-1 -1,-1 -1,0 -1,-1 -2,-2 0,-4 1,-1 1,-1 1,-1 1,-1 1,-1 1,0 1,-1 3,0 0,-2 -1,-1 0,0 -1,-1 0,-1 -1,-1 0,2 -1,1 -1,0 -1,1 -1,0 -1,1 -1,0 -1,1 -1,1 -1,1 -1,0 -1,1 -1,1 0,1 -1,1 0,3 1,1 0,1 1,1 1,1 1,1 1,1 0,14 -1,1 -1,1 -1,0 -1,1 -4,0 -1,1 -10,0 -1,1 -1,0 -1,1 -1,0 -1,1 -1,0 -1,1 -1,0 -1,1 -1,0 -1,1 -1,0 -1,1 1,0 2,-1 2,-1 -105,57 98,-54Z"/>
<path onmouseover="hoverPath(evt)" onmouseout="recoverPath(evt)" fill="rgb(244,242,235)" d="M  192,9l 0,1 1,1 1,1 0,1 1,1 0,1 1,1 1,1 0,1 1,1 0,2 -1,1 0,3 -1,1 -1,1 2,-1 2,0 1,1 1,1 0,1 2,2 2,0 1,1 1,1 0,1 2,2 1,1 0,2 -1,1 1,1 2,0 1,1 1,1 3,0 1,-1 0,-1 1,-1 1,-1 1,-1 1,0 1,-1 1,-1 1,-1 1,0 1,-1 1,0 1,-1 1,0 0,-1 -1,-1 0,0 -1,-1 -1,-1 0,-2 -1,0 -1,-1 -1,-1 -1,-1 -1,-1 0,-2 -1,0 -1,-1 -1,-1 -1,-1 0,-2 -1,0 -2,-2 -1,-1 0,-1 -1,-1 -1,-1 -1,-1 0,-1 -1,-1 -1,-1 -1,-1 0,-2 -1,0 -1,-1 0,-2 -22,0 0,1 1,1 0,0 1,1 0,3 -1,1 3,0 1,1 2,0 1,1Z"/>
<path onmouseover="hoverPath(evt)" onmouseout="recoverPath(evt)" fill="rgb(244,243,236)" d="M  253,23l 0,1 -1,1 0,1 -1,1 -1,1 -1,1 -1,1 -2,2 -1,1 -1,1 1,1 1,1 1,1 0,2 1,0 1,1 1,1 1,1 0,2 1,0 1,1 1,1 1,0 0,-25 -1,0 0,1 -1,1Z"/>
</svg>