<svg width="256" height="256" xmlns="http://www.w3.org/2000/svg"><script> 
var tempColor;
function hoverPath(evt){
obj = evt.target;
tempColor = obj.getAttribute("fill");
obj.setAttribute("fill","red");
//alert(tempColor);
//obj.setAttribute("stroke","red");}
function recoverPath(evt){
obj = evt.target;
obj.setAttribute("fill", tempColor);
//obj.setAttribute("stroke", tempColor);
}</script><path onmouseover="hoverPath(evt)" onmouseout="recoverPath(evt)" fill="rgb(254,254,254)" d="M  1,76l -1,0 0,1 27,0 1,-1 10,0 1,1 1,1 0,10 -1,1 0,35 1,0 0,-31 1,-1 0,-41 1,-1 0,-1 1,-1 8,0 0,-4 -4,0 -1,1 -2,0 -1,-1 -1,-1 -1,-1 0,-28 1,-1 0,-13 -2,0 0,1 1,1 0,2 -1,1 0,68 -1,1 -1,0 -1,1 -10,0 -1,1Z"/>
<path onmouseover="hoverPath(evt)" onmouseout="recoverPath(evt)" fill="rgb(241,240,229)" d="M  45,52l -2,0 0,41 -1,1 0,31 2,0 0,-1 1,-1 3,0 1,1 3,0 1,-1 0,-1 -1,-1 0,-43 -1,-1 0,-25Z"/>
<path onmouseover="hoverPath(evt)" onmouseout="recoverPath(evt)" fill="rgb(245,244,236)" d="M  68,52l 0,14 1,1 0,30 1,1 0,26 1,-1 0,-39 -1,-1 0,-3 1,-1 0,-7 -1,0 -2,-20 2,16 0,-8 -1,-1 0,-3 1,-1 0,-5 -2,0 0,1 2,17 -2,-16Z"/>
<path onmouseover="hoverPath(evt)" onmouseout="recoverPath(evt)" fill="rgb(249,248,244)" d="M  75,44l 0,4 1,0 1,1 1,1 0,4 2,0 1,1 3,0 1,1 0,1 1,1 0,3 1,1 0,2 2,0 1,1 0,7 1,1 0,9 1,0 0,-7 1,-1 0,-7 1,-1 0,-8 1,-1 0,-6 1,-1 0,-3 1,-1 5,0 1,-1 22,0 1,-1 4,0 1,1 1,1 0,8 -1,1 0,3 -1,1 -6,0 6,1 12,0 -10,-1 0,-4 -57,-11 16,39 -1,0 0,7 -1,1 0,8 -1,1 0,7 -1,1 0,7 -1,1 0,7 -1,1 0,2 2,0 0,-9 1,-1 0,-7 1,-1 0,-8 1,-1 0,-7 1,-1 0,-8 -16,-39 59,1 1,-1 5,0 1,1 24,0 1,1 4,0 -1,-1 0,0 -1,-1 -2,0 -1,-1 0,-2 -2,0 -1,1 -4,0 -1,-1 -13,0 -1,-1 0,-6 1,-1 5,0 -4,-1 -1,0 -1,-1 0,-5 1,-1 1,0 1,-1 9,0 1,1 0,5 1,-3 1,-1 0,-1 1,-1 8,0 1,1 0,14 -1,1 -1,0 3,-14 0,-11 -1,8 -3,0 -31,22 -59,-1 68,-20 0,1 1,-2 -1,-1 0,-15 1,-1 1,0 1,-1 10,0 1,-1 7,0 0,-4 -63,0 0,3 -1,1 0,6 -1,1 0,7 -1,1 0,6 -1,1 0,7 -1,1 0,6 -1,1 0,1 -1,1 -17,0 66,-19 -68,20 67,-32 -1,0 -1,-1 2,1 -67,32 67,-13 -1,1 -1,1 -12,0 -1,-1 -1,0 -1,-1 0,8 -1,1 -1,1 -4,0 -1,1 -12,0 -1,-1 -1,0 -1,-1 0,-17 1,-1 2,0 1,-1 16,0 1,1 0,1 1,1 0,-11 1,-1 1,-1 11,0 4,20 -67,13 49,-32 0,0 -49,32 82,-21 0,0 -82,21 27,-34 0,-2 1,-1 1,-1 1,0 1,-1 16,0 1,1 1,1 0,2 -22,1 -27,34 27,-33 0,0 -27,33Z"/>
<path onmouseover="hoverPath(evt)" onmouseout="recoverPath(evt)" fill="rgb(244,243,235)" d="M  122,140l 0,0 -1,-1 -1,-1 -3,0 0,9 -1,1 -5,0 -1,1 -6,0 0,1 -1,1 0,23 1,-23 7,-2 6,-1 29,0 1,1 6,0 1,-1 2,0 1,1 0,2 -1,1 0,18 1,1 0,14 -1,1 0,2 -1,1 0,1 -2,2 2,-1 0,0 2,-5 1,-2 1,-1 11,0 -1,-1 0,-41 -19,0 -1,-1Z"/>
<path onmouseover="hoverPath(evt)" onmouseout="recoverPath(evt)" fill="rgb(171,198,237)" d="M  179,220l 0,3 1,0 1,1 5,0 1,1 7,0 1,1 6,0 1,1 7,0 1,1 7,0 1,1 6,0 1,1 7,0 1,1 6,0 1,1 7,0 1,1 5,0 1,1 1,0 0,-4 -7,0 -1,-1 -4,0 -1,-1 -4,0 -1,-1 -5,0 -1,-1 -4,0 -1,-1 -5,0 -1,-1 -6,0 -1,-1 -7,0 -1,-1 -6,0 -1,-1 -6,0 -1,-1 -6,0 -1,-1 -4,0 -1,1Z"/>
<path onmouseover="hoverPath(evt)" onmouseout="recoverPath(evt)" fill="rgb(243,242,234)" d="M  180,52l 0,5 1,1 0,37 23,0 1,1 6,0 1,1 0,-12 1,-1 0,-2 1,-1 1,-1 1,0 1,-1 11,0 1,-1 5,0 0,-17 1,-1 0,-10 -55,0Z"/>
<path onmouseover="hoverPath(evt)" onmouseout="recoverPath(evt)" fill="rgb(244,243,235)" d="M  181,188l 0,29 4,0 1,1 6,0 1,1 6,0 1,1 6,0 1,1 7,0 1,1 6,0 1,1 5,0 1,1 4,0 1,1 5,0 1,1 4,0 1,1 4,0 1,1 6,0 0,-21 -4,0 -1,-1 -2,0 -1,-1 -2,0 -1,-1 -2,0 -1,-1 -2,0 -1,-1 -2,0 -1,-1 -1,0 -1,-1 -3,0 -1,-1 -1,0 -1,-1 -1,0 -1,-1 0,-2 -1,0 -1,1 -4,0 -1,-1 -2,0 -1,-1 -2,0 -1,-1 0,-2 -2,0 -1,-1 -1,0 -1,1 -4,0 -1,-1 -3,0 -1,-1 -2,0 -1,-1 -2,0 -1,-1 -4,0 -1,-1 -6,0Z"/>
<path onmouseover="hoverPath(evt)" onmouseout="recoverPath(evt)" fill="rgb(241,239,229)" d="M  214,12l 0,16 1,1 1,1 0,1 6,0 1,1 12,0 1,1 1,1 0,3 2,0 1,1 0,2 1,0 1,1 13,0 0,-20 -1,0 0,9 -1,1 -1,1 -3,0 -1,-1 0,-2 1,-1 1,0 0,-16 -1,-1 0,-2 -23,0 -1,1 -11,0Z"/>
<path onmouseover="hoverPath(evt)" onmouseout="recoverPath(evt)" fill="rgb(243,242,234)" d="M  0,81l 0,42 37,0 0,-35 1,-1 0,-8 -1,-1 -8,0 -1,1 -28,0Z"/>
<path onmouseover="hoverPath(evt)" onmouseout="recoverPath(evt)" fill="rgb(243,241,233)" d="M  0,137l 0,36 9,0 1,1 4,0 0,-13 1,-1 1,-1 2,0 1,-1 1,0 0,-1 1,-1 -1,-1 0,-1 -1,0 -1,-1 -1,-1 -1,-1 0,-15 -15,0 -1,1Z"/>
<path onmouseover="hoverPath(evt)" onmouseout="recoverPath(evt)" fill="rgb(171,197,237)" d="M  0,205l 0,2 3,0 1,-1 8,0 1,-1 25,0 1,1 5,0 1,1 5,0 1,1 4,0 1,1 0,-3 -1,0 -1,-1 -4,0 -1,-1 -7,0 -1,-1 -6,0 -1,-1 -20,0 -1,1 -6,0 -1,1 -5,0 -1,1Z"/>
<path onmouseover="hoverPath(evt)" onmouseout="recoverPath(evt)" fill="rgb(237,234,220)" d="M  29,213l -10,0 0,1 -1,1 0,4 1,1 0,0 1,1 12,0 0,-2 1,-1 0,-5Z"/>
<path onmouseover="hoverPath(evt)" onmouseout="recoverPath(evt)" fill="rgb(240,238,226)" d="M  37,217l 0,6 -1,1 -1,1 -4,0 0,4 16,0 1,-1 5,0 1,-1 0,-1 -1,-1 0,-4 1,-1 1,0 0,-6 -1,-1 0,-3 -4,0 -1,-1 -5,0 -1,-1 -5,0 -1,-1 -23,0 -1,1 -8,0 -1,1 -4,0 0,11 14,0 0,-7 -10,0 -1,-1 0,-2 34,7 -32,-8 9,0 1,-1 4,0 1,1 15,0 1,1 0,1 1,1 0,4 -32,-7 32,8Z"/>
<path onmouseover="hoverPath(evt)" onmouseout="recoverPath(evt)" fill="rgb(241,240,229)" d="M  45,0l -1,0 0,14 -1,1 0,26 1,1 0,0 1,1 1,-1 4,0 0,-2 1,-1 0,-39Z"/>
<path onmouseover="hoverPath(evt)" onmouseout="recoverPath(evt)" fill="rgb(243,242,233)" d="M  75,1l 0,3 -1,1 0,7 1,1 0,3 -1,1 0,7 1,0 1,1 0,3 -1,1 0,7 1,1 0,4 17,0 0,-1 1,-1 0,-6 1,-1 0,-7 1,-1 0,-6 1,-1 0,-7 1,-1 0,-6 1,-1 0,-2 -23,0 -1,1Z"/>
<path onmouseover="hoverPath(evt)" onmouseout="recoverPath(evt)" fill="rgb(171,198,238)" d="M  77,209l 0,2 5,0 1,1 7,0 1,1 8,0 1,1 7,0 1,1 7,0 1,1 8,0 1,1 7,0 1,1 7,0 1,1 7,0 1,1 7,0 1,1 6,0 1,1 6,0 0,-4 -1,-1 -6,0 -1,-1 -7,0 -1,-1 -12,0 -1,-1 -13,0 -1,-1 -12,0 -1,-1 -7,0 -1,-1 -8,0 -1,-1 -7,0 -1,-1 -7,0 -1,-1 -3,0 -1,1Z"/>
<path onmouseover="hoverPath(evt)" onmouseout="recoverPath(evt)" fill="rgb(247,236,142)" d="M  77,129l -1,0 0,8 39,0 1,-1 5,0 1,1 1,1 27,0 1,1 19,0 1,1 0,41 1,1 0,2 -1,1 0,31 1,1 0,6 -1,1 0,3 -1,1 0,1 1,1 1,1 0,4 -1,1 0,4 -1,1 0,14 8,0 0,-18 1,-1 0,-11 -1,0 -1,-1 0,-6 1,-1 1,0 0,-32 1,-1 0,-1 -1,-1 0,-42 1,-1 3,0 1,1 42,0 1,-1 2,0 1,1 0,14 1,-13 2,0 1,-1 9,0 1,-1 11,0 0,-9 -55,0 -1,-1 -19,0 -1,-1 0,-24 -1,-1 0,-3 1,-1 -1,-1 0,-2 1,-1 0,-36 -1,-1 0,-8 -1,-1 0,-7 1,-1 0,-27 -1,-1 0,-2 1,-1 14,0 0,-7 -14,0 -1,-1 0,-2 -11,0 0,5 1,1 0,0 1,1 1,1 0,1 1,1 0,3 1,1 0,13 -1,1 0,13 -1,1 0,0 1,1 1,1 1,1 0,35 -1,1 -1,0 0,7 1,1 0,8 1,1 0,3 -1,1 0,25 -1,1 -1,1 -8,0 -1,-1 -40,0 -1,-1 -29,0 -1,-1 0,1 -1,1 -7,0 -1,-1 0,-1 -2,0 0,2 -1,1 93,107 -93,-107Z"/>
<path onmouseover="hoverPath(evt)" onmouseout="recoverPath(evt)" fill="rgb(243,242,234)" d="M  106,152l 0,0 -1,1 0,22 -1,1 0,9 1,1 0,8 1,1 0,2 1,1 1,0 1,1 3,0 1,-1 15,0 1,-1 16,0 1,-1 1,0 0,-2 1,-1 1,0 1,-1 1,0 0,-1 1,-1 1,-1 0,-1 1,-1 0,-2 1,-1 0,-12 -1,-1 0,-19 -1,-1 -7,0 -1,-1 -32,0 -1,1 -5,0 -1,1Z"/>
<path onmouseover="hoverPath(evt)" onmouseout="recoverPath(evt)" fill="rgb(242,240,230)" d="M  134,49l 0,9 9,0 1,1 2,0 1,1 0,1 1,1 0,1 1,1 0,1 1,1 0,2 -1,1 0,1 1,1 0,2 1,1 0,1 1,1 0,1 1,1 0,1 2,0 1,1 0,2 -1,1 0,1 1,1 0,1 1,1 0,3 1,1 0,2 1,1 0,1 1,1 0,2 1,1 8,0 1,1 0,-1 -1,-1 0,-8 -1,-1 0,-9 1,-1 1,0 0,-31 -5,0 -1,-1 -24,0 -1,-1 -3,0 -1,1 -1,0Z"/>
<path onmouseover="hoverPath(evt)" onmouseout="recoverPath(evt)" fill="rgb(239,237,225)" d="M  197,5l 0,36 38,0 0,-1 1,-1 -1,-1 0,-3 -1,-1 -12,0 -1,-1 -6,0 -1,-1 0,-1 -2,-2 0,-20 1,-1 11,0 0,-2 1,-1 5,0 1,-1 -1,-1 -33,0Z"/>
<path onmouseover="hoverPath(evt)" onmouseout="recoverPath(evt)" fill="rgb(244,242,235)" d="M  208,183l -2,0 -1,-1 -11,0 -1,-1 -2,0 -1,1 -1,0 -1,1 -6,0 0,1 6,0 1,1 4,0 1,1 2,0 1,1 2,0 1,1 3,0 1,1 2,0 1,-1 3,0 1,1 2,0 1,1 0,2 2,0 1,1 2,0 1,1 2,0 1,-1 3,0 1,1 0,2 1,0 1,1 1,0 1,1 3,0 1,1 1,0 1,1 2,0 1,1 2,0 1,1 2,0 1,1 2,0 1,1 2,0 1,1 3,0 0,-38 -3,0 -1,-1 -2,0 -1,1 -3,0 -1,1 -3,0 -1,1 -3,0 -1,1 -5,0 -1,-1 0,1 -1,1 0,1 -1,1 -1,0 -1,1 -1,0 -1,1 -1,0 -1,1 -1,1 -2,0 -1,1 -1,0 -1,1 -1,0 -1,1 -1,0 0,2 -1,1 -4,0 22,-22 1,-1 0,-4 -1,0 0,5 -22,22Z"/>
<path onmouseover="hoverPath(evt)" onmouseout="recoverPath(evt)" fill="rgb(238,236,222)" d="M  11,246l 6,0 0,-6 -1,-1 0,-2 -1,-1 -15,0 0,10Z"/>
<path onmouseover="hoverPath(evt)" onmouseout="recoverPath(evt)" fill="rgb(227,242,243)" d="M  71,166l 0,12 1,1 0,10 -1,1 0,18 -1,1 1,1 0,2 1,0 0,-22 -1,19 0,0 1,-31 0,-11 -1,-1 0,-27 -1,-1 0,19 1,1Z"/>
<path onmouseover="hoverPath(evt)" onmouseout="recoverPath(evt)" fill="rgb(132,211,227)" d="M  73,2l 0,-2 -5,0 0,43 -1,1 0,4 4,0 1,1 0,7 -1,1 0,1 1,1 0,10 -1,1 1,0 1,1 0,9 -1,1 0,1 1,1 0,28 -1,1 0,7 1,1 0,4 -1,1 0,6 1,1 0,3 -1,1 0,1 1,1 0,27 1,1 0,47 -1,1 -2,0 0,5 -1,1 0,7 1,1 0,11 -1,1 0,15 4,0 0,-41 -1,-212 2,209 0,-11 -1,-35 0,-11 1,-1 1,0 0,-9 -1,-1 0,-4 -1,-1 0,-10 1,-1 1,0 0,-1 -1,-1 0,-28 1,-1 0,-10 -1,-1 0,-9 1,-1 0,-1 -1,0 -1,-1 0,-9 1,-1 0,-1 -1,-1 0,-4 1,-1 0,-1 1,-1 0,-3 -1,-1 -1,0 -1,-1 0,-7 1,-1 0,-3 -1,-1 0,-9 1,-1 0,-1 -1,0 -1,-1 0,-9 1,-1 0,-1 -1,-1 0,-9 1,-1 2,208 -2,-209Z"/>
<path onmouseover="hoverPath(evt)" onmouseout="recoverPath(evt)" fill="rgb(242,241,231)" d="M  76,58l 0,2 1,1 0,3 -1,1 0,7 1,0 1,1 0,3 -1,1 0,7 1,1 0,12 -1,1 0,26 4,0 1,1 0,1 1,0 0,-3 1,-1 0,-7 1,-1 0,-7 1,-1 0,-7 1,-1 0,-8 1,-1 0,-7 1,-1 0,-7 -1,-1 0,-7 -2,0 -1,-1 0,-2 -1,-1 0,-3 -1,-1 0,-1 -3,0 -1,-1 -2,0 0,1 -1,1Z"/>
<path onmouseover="hoverPath(evt)" onmouseout="recoverPath(evt)" fill="rgb(242,241,230)" d="M  76,214l 0,14 25,0 1,1 66,0 0,-2 1,-1 0,-2 -6,0 -1,-1 -6,0 -1,-1 -7,0 -1,-1 -7,0 -1,-1 -7,0 -1,-1 -7,0 -1,-1 -8,0 -1,-1 -7,0 -1,-1 -7,0 -1,-1 -8,0 -1,-1 -7,0 -1,-1 -4,0 -1,1Z"/>
<path onmouseover="hoverPath(evt)" onmouseout="recoverPath(evt)" fill="rgb(243,241,232)" d="M  76,238l 0,17 48,0 0,-18 -1,-1 -47,0Z"/>
<path onmouseover="hoverPath(evt)" onmouseout="recoverPath(evt)" fill="rgb(243,242,233)" d="M  98,50l 0,1 -1,1 0,6 -1,1 0,8 -1,1 0,7 -1,1 0,7 -1,1 0,8 -1,1 0,7 -1,1 0,8 -1,1 0,7 -1,1 0,6 1,0 1,1 29,0 1,1 40,0 1,1 6,0 1,-1 0,-22 -1,-1 0,-2 -8,0 -1,-1 -1,1 -1,0 -1,1 -1,0 -1,1 -1,0 -2,2 -2,0 -1,1 -3,0 0,2 -1,1 -3,0 -1,-1 -1,0 -1,1 -3,0 -1,1 -3,0 0,2 -1,1 -5,0 -1,-1 -10,0 -1,-1 -1,-1 0,-13 1,-1 0,-14 1,-1 0,-12 1,-1 0,-6 1,-1 0,-1 1,-1 1,-1 4,0 1,-1 6,0 0,-3 1,-1 0,-6 -1,-1 -2,0 -1,1 -22,0 -1,1 -5,0Z"/>
<path onmouseover="hoverPath(evt)" onmouseout="recoverPath(evt)" fill="rgb(240,238,227)" d="M  105,26l 0,13 1,0 1,1 10,0 1,-1 4,0 1,-1 0,-13 -1,-1 0,-1 -14,0 -1,1 -2,0Z"/>
<path onmouseover="hoverPath(evt)" onmouseout="recoverPath(evt)" fill="rgb(244,243,236)" d="M  131,238l -3,0 0,4 1,1 0,12 39,0 0,-15 1,-1 0,-1Z"/>
<path onmouseover="hoverPath(evt)" onmouseout="recoverPath(evt)" fill="rgb(237,234,220)" d="M  155,32l -1,-1 0,-5 -7,0 -1,1 -1,0 0,3 1,0 1,1 3,0 1,1 0,2 -1,1 -5,0 0,4 13,0 1,1 2,0 1,-1 2,0 1,-1 1,0 0,-12 -6,0 0,1 -1,1 -1,1 0,2 -1,1Z"/>
<path onmouseover="hoverPath(evt)" onmouseout="recoverPath(evt)" fill="rgb(243,241,233)" d="M  181,106l 0,21 19,0 1,1 54,0 0,-45 -4,0 -1,-1 -4,0 -1,1 -3,0 0,1 -1,1 0,1 -1,1 0,1 -1,1 0,1 -1,1 -2,0 -1,-1 0,-2 1,-1 0,-4 -17,0 0,1 -1,1 -1,0 0,12 10,0 1,1 0,2 -1,1 -8,0 -1,1 -1,1 0,2 1,1 0,7 -1,1 -2,0 -1,-1 0,-3 -1,-1 0,-6 -1,0 -1,1 -30,0 0,2 54,2 1,-1 1,0 1,-1 2,0 1,1 0,2 -1,1 -1,0 -1,1 -2,0 -1,-1 0,-2 -54,-2Z"/>
<path onmouseover="hoverPath(evt)" onmouseout="recoverPath(evt)" fill="rgb(244,243,235)" d="M  181,142l 0,39 6,0 1,-1 1,0 1,-1 4,0 1,1 11,0 1,1 4,0 0,-2 1,-1 1,0 1,-1 1,0 1,-1 1,0 1,-1 2,0 1,-1 1,-1 1,0 1,-1 1,0 1,-1 1,0 0,-1 1,-1 0,-28 -1,1 -44,0 -1,-1 -1,1Z"/>
<path onmouseover="hoverPath(evt)" onmouseout="recoverPath(evt)" fill="rgb(243,242,233)" d="M  0,3l 0,71 25,0 1,-1 10,0 1,-1 1,0 0,-68 1,-1 -1,-1 0,-2 -38,0Z"/>
<path onmouseover="hoverPath(evt)" onmouseout="recoverPath(evt)" fill="rgb(248,233,129)" d="M  0,127l 0,7 16,0 1,-1 2,0 1,1 1,0 1,1 7,0 1,-1 1,-1 2,0 1,1 0,1 15,0 1,1 4,0 1,1 0,27 1,1 0,39 1,0 1,1 0,5 -1,1 -1,0 0,1 1,1 0,7 1,1 0,8 1,1 0,4 -1,1 -1,1 0,1 1,1 1,0 1,1 0,16 8,0 0,-16 1,-1 0,-9 -1,-1 0,-9 1,-1 0,-7 -1,-1 0,-2 1,-1 0,-18 1,-1 0,-8 -1,-1 0,-19 -1,-1 0,-22 1,-1 1,0 0,-1 1,-1 0,-1 -1,-1 0,-6 -1,0 -1,-1 0,-26 -1,-1 0,-30 -1,-1 0,-17 -1,-1 0,-6 1,-1 0,-42 -13,0 0,40 -1,1 0,1 1,1 0,6 -1,1 0,0 1,1 0,25 1,1 0,43 1,1 0,3 -1,1 -1,1 -5,0 -1,-1 -1,0 0,1 -1,1 -4,0 -1,-1 -2,0 -1,-1 -37,0Z"/>
<path onmouseover="hoverPath(evt)" onmouseout="recoverPath(evt)" fill="rgb(243,242,233)" d="M  18,200l 17,0 1,1 6,0 1,1 7,0 1,1 3,0 0,-37 -1,-1 0,-27 -4,0 -1,-1 -15,0 -1,-1 0,-1 -1,1 -1,1 -9,0 -1,-1 -1,0 -1,-1 0,15 1,1 0,0 1,1 1,0 1,1 0,1 1,1 0,2 -1,1 0,1 -1,1 -1,0 -1,1 -2,0 -1,1 0,13 -1,1 -6,0 -1,-1 -8,0 0,27 5,0 1,-1 6,0 1,-1Z"/>
<path onmouseover="hoverPath(evt)" onmouseout="recoverPath(evt)" fill="rgb(230,228,205)" d="M  18,225l -4,0 -1,-1 -13,0 0,5 25,0 1,-1 0,-2 -1,-1Z"/>
<path onmouseover="hoverPath(evt)" onmouseout="recoverPath(evt)" fill="rgb(242,241,232)" d="M  21,239l 0,6 1,1 0,4 1,1 0,2 -1,1 -2,0 -1,-1 0,-1 -1,-1 -2,0 -1,-1 -15,0 0,5 58,0 0,-15 -1,0 -1,-1 -1,-1 0,-2 -33,0 -1,1Z"/>
<path onmouseover="hoverPath(evt)" onmouseout="recoverPath(evt)" fill="rgb(254,254,254)" d="M  56,223l 0,-1 -1,0 0,2 1,1 0,3 -1,1 -1,1 -5,0 -1,1 -18,0 -1,-1 0,-6 1,-1 -11,0 -1,-1 -1,-1 -1,-1 0,-6 1,-1 0,-1 1,-1 16,0 -16,-1 -2,0 -1,1 -10,0 11,1 0,9 -1,1 -15,0 15,1 3,0 9,1 1,1 0,4 -1,1 -1,1 -26,0 0,3 16,0 1,1 1,1 0,2 1,1 0,8 -1,1 -18,0 17,1 2,0 1,1 0,-3 -1,-9 0,-2 1,-1 1,-1 35,0 1,-1 0,-2 -1,-1 0,-7 -22,0 1,-1 0,-9 -1,7Z"/>
<path onmouseover="hoverPath(evt)" onmouseout="recoverPath(evt)" fill="rgb(254,254,254)" d="M  76,231l 0,3 48,0 1,1 1,1 0,19 1,0 0,-20 1,-1 42,0 0,-2 -1,-1 -68,0 -1,-1 -23,0 -1,1Z"/>
<path onmouseover="hoverPath(evt)" onmouseout="recoverPath(evt)" fill="rgb(244,242,235)" d="M  78,139l -1,0 0,3 1,1 0,11 -1,1 -1,0 0,43 1,1 0,7 5,0 1,1 7,0 1,1 7,0 1,1 8,0 1,1 7,0 1,1 12,0 1,1 13,0 1,1 12,0 1,1 7,0 1,1 5,0 0,-30 -9,0 -1,1 0,1 -1,1 0,1 -1,1 0,2 -1,1 -1,0 -1,1 -3,0 -1,1 -1,0 0,2 -1,1 -1,0 -1,1 -16,0 -1,1 -15,0 -1,1 -5,0 -1,-1 -1,0 -1,-1 -1,-1 0,-2 -1,-1 0,-8 -1,-1 0,-10 -1,-1 0,-25 1,-1 0,-1 1,-1 6,0 1,-1 5,0 0,-7Z"/>
<path onmouseover="hoverPath(evt)" onmouseout="recoverPath(evt)" fill="rgb(239,237,225)" d="M  108,19l 14,0 0,-11 -1,-1 -14,0 -1,1 -1,0 -1,1 0,10Z"/>
<path onmouseover="hoverPath(evt)" onmouseout="recoverPath(evt)" fill="rgb(243,241,233)" d="M  118,62l 0,0 -1,1 0,6 -1,1 0,12 -1,1 0,14 -1,1 0,11 1,1 10,0 1,1 3,0 0,-2 1,-1 3,0 1,-1 3,0 1,-1 3,0 1,1 1,0 0,-2 1,-1 3,0 1,-1 2,0 1,-1 1,-1 1,0 1,-1 1,0 1,-1 1,0 1,-1 0,-1 -1,-1 0,-1 -1,-1 0,-2 -1,-1 0,-3 -1,-1 0,-1 -1,-1 0,-2 -1,-1 0,-1 -1,-1 0,-1 -1,-1 0,-1 -1,-1 0,-1 -1,-1 0,-2 -1,-1 0,-2 -1,-1 0,-1 -1,-1 0,-2 1,-1 -1,-1 0,-1 -1,0 -1,1 -14,0 -1,-1 -5,0 -1,-1 -3,0 -1,1Z"/>
<path onmouseover="hoverPath(evt)" onmouseout="recoverPath(evt)" fill="rgb(240,237,226)" d="M  127,19l 0,11 1,0 1,1 10,0 1,-1 0,0 1,-1 0,-15 -1,0 -1,-1 -11,0 -1,1Z"/>
<path onmouseover="hoverPath(evt)" onmouseout="recoverPath(evt)" fill="rgb(240,238,228)" d="M  155,7l -8,0 -1,1 -1,0 0,13 1,1 9,0 1,-1 4,0 1,1 2,0 1,-1 3,0 0,-7 1,-1 0,-2 -1,-1 0,-1 -2,-2 -1,-1 -6,0 -1,1Z"/>
<path onmouseover="hoverPath(evt)" onmouseout="recoverPath(evt)" fill="rgb(243,241,233)" d="M  181,227l 0,10 -1,1 0,17 75,0 0,-19 -2,0 -1,-1 -5,0 -1,-1 -7,0 -1,-1 -6,0 -1,-1 -7,0 -1,-1 -6,0 -1,-1 -7,0 -1,-1 -7,0 -1,-1 -6,0 -1,-1 -7,0 -1,-1 -3,0 -1,1Z"/>
<path onmouseover="hoverPath(evt)" onmouseout="recoverPath(evt)" fill="rgb(242,240,230)" d="M  191,15l -2,0 -1,-1 -8,0 0,25 1,1 0,1 11,0 0,-1 1,-1 0,-23 -1,-1Z"/>
<path onmouseover="hoverPath(evt)" onmouseout="recoverPath(evt)" fill="rgb(243,241,233)" d="M  234,143l -2,0 0,11 1,1 0,6 -1,1 0,6 3,0 1,-1 3,0 1,-1 3,0 1,-1 3,0 1,-1 4,0 1,1 2,0 0,-24 -10,0 -1,1 -9,0 -1,1Z"/>
<path onmouseover="hoverPath(evt)" onmouseout="recoverPath(evt)" fill="rgb(251,251,249)" d="M  238,86l 1,-1 0,-1 1,-1 0,-1 1,-1 3,0 1,-1 6,0 1,1 0,-1 1,1 2,0 -11,-1 -6,0 -1,-1 0,-1 -1,-1 0,-9 1,-1 0,-14 1,-1 0,-2 1,-1 1,-1 15,0 0,-5 -14,0 -1,-1 -1,0 -1,-1 0,-2 -1,2 0,1 -1,1 -40,0 -1,-1 0,-40 1,-1 35,0 1,1 1,1 0,2 -1,1 -1,1 19,0 1,1 0,2 1,1 0,18 -1,1 -1,0 3,-11 2,0 0,-19 -76,0 0,1 14,0 1,1 0,9 -1,1 -14,0 11,1 3,0 1,1 44,72 -44,-45 0,1 -1,1 -14,0 0,5 57,0 1,1 0,3 -43,-11 44,45 -2,-24 0,17 -1,1 -5,0 -1,1 -11,0 -1,1 -1,0 -1,1 0,2 -1,1 0,12 -1,1 -2,0 -1,-1 -6,0 -1,-1 -23,0 1,1 0,2 -1,1 0,1 30,0 1,-1 3,0 1,1 2,-2 1,-1 -2,0 -1,-1 0,-12 21,-24 2,24 -22,-3 1,0 13,-2 7,0 1,1 0,3 -22,-2 22,3 -23,20 0,2 1,1 0,-2 -1,-1 23,-20Z"/>
<path onmouseover="hoverPath(evt)" onmouseout="recoverPath(evt)" fill="rgb(242,240,231)" d="M  239,59l 0,9 -1,1 0,7 1,1 0,1 14,0 1,1 1,0 0,-29 -14,0 -1,1 0,2 -1,1Z"/>
</svg>