<svg width="256" height="256" xmlns="http://www.w3.org/2000/svg"><script> 
var tempColor;
function hoverPath(evt){
obj = evt.target;
tempColor = obj.getAttribute("fill");
obj.setAttribute("fill","red");
//alert(tempColor);
//obj.setAttribute("stroke","red");}
function recoverPath(evt){
obj = evt.target;
obj.setAttribute("fill", tempColor);
//obj.setAttribute("stroke", tempColor);
}</script><path onmouseover="hoverPath(evt)" onmouseout="recoverPath(evt)" fill="rgb(243,242,234)" d="M  0,112l 0,43 2,0 0,-2 1,-1 4,0 1,-1 5,0 1,1 2,0 0,-2 1,-1 4,0 1,-1 2,0 1,-1 1,0 0,-6 1,-1 2,0 1,1 0,3 1,1 0,1 5,0 1,-1 3,0 1,-1 3,0 1,-1 1,-1 0,-9 -1,-1 0,-20 -1,-1 0,-16 -3,0 -1,1 -1,0 -1,1 -1,0 -1,1 -2,0 -1,1 -1,0 -1,1 -1,0 -1,1 -2,0 -1,1 -1,0 -1,1 -2,0 -1,1 -1,0 -1,1 -2,0 -1,1 -1,0 -1,1 -2,0 -1,1 -1,0 -1,1 -2,0 -1,1 -2,0 -1,1 -2,0 -1,1Z"/>
<path onmouseover="hoverPath(evt)" onmouseout="recoverPath(evt)" fill="rgb(244,242,234)" d="M  51,103l -1,0 -1,1 0,3 1,1 0,20 1,1 0,12 6,0 1,-1 4,0 1,-1 4,0 1,-1 4,0 1,-1 4,0 1,-1 3,0 0,-4 -1,-1 0,-6 1,-1 3,0 1,1 0,4 1,1 0,3 1,1 0,1 5,0 1,1 11,0 0,-2 1,-1 9,0 1,-1 8,0 1,1 7,0 0,-2 1,-1 8,0 1,1 5,0 0,-2 1,-1 4,0 1,-1 6,0 1,1 3,0 0,-2 1,-1 5,0 1,-1 2,0 1,-1 3,0 1,1 7,0 0,-2 1,-1 4,0 1,1 3,0 0,-2 1,-1 4,0 1,-1 3,0 1,-1 4,0 1,1 2,0 0,-2 1,-1 2,0 0,-1 -1,-1 0,-1 -1,-1 0,-2 -1,-1 0,-1 -1,-1 0,-2 -1,-1 0,-1 -1,-1 0,-2 -1,-1 0,-2 -2,0 -1,-1 0,-2 1,-1 0,-1 -2,0 -1,-1 0,-2 1,-1 0,-1 -2,0 -1,-1 0,-2 1,-1 0,-1 -1,-1 0,-1 -1,-1 0,-2 -1,-1 0,-2 -1,-1 0,-2 -1,-1 0,-2 -1,-1 0,-2 -2,0 -1,-1 0,-2 1,-1 0,-2 -1,-1 0,-2 -1,-1 0,-2 -1,-1 0,-1 -1,1 -5,0 -1,1 -4,0 -1,1 -4,0 -1,1 -3,0 -1,1 -4,0 -1,1 -3,0 -1,1 -3,0 -1,1 -3,0 -1,1 -4,0 -1,1 -2,0 -1,1 -3,0 -1,1 -4,0 -1,1 -3,0 -1,1 -4,0 -1,1 -3,0 -1,1 -3,0 -1,1 -3,0 -1,1 -3,0 -1,1 -2,0 -1,1 -2,0 -1,1 -2,0 -1,1 -2,0 -1,1 -2,0 -1,1 -2,0 -1,1 -2,0 -1,1 -1,0 -1,1 -2,0 -1,1 -2,0 -1,1 -1,0 -1,1 -2,0 -1,1 -1,0 -1,1 -1,0 -1,1 -1,0 -1,1 -2,0 -1,1 -2,0 -1,1 -1,0 -1,1 -1,0 -1,1 -2,0 -1,1 -1,0 -1,1 -1,0 -1,1 0,7 6,0 1,1 0,2 -1,1 -5,0 -1,1Z"/>
<path onmouseover="hoverPath(evt)" onmouseout="recoverPath(evt)" fill="rgb(243,241,232)" d="M  68,174l 0,0 -1,1 0,2 1,1 0,4 1,1 0,5 1,1 0,4 1,1 0,4 1,1 0,3 1,1 0,5 1,1 4,0 1,1 4,0 0,-2 1,-1 6,0 1,-1 4,0 1,-1 4,0 1,-1 5,0 1,-1 4,0 1,-1 4,0 0,-4 -1,-1 0,-3 -1,-1 0,-4 -1,-1 0,-4 -1,-1 0,-6 1,-1 0,-3 -2,0 -1,-1 0,-3 -3,0 -1,1 -4,0 -1,1 -5,0 -1,-1 -2,0 0,2 -1,1 -4,0 -1,1 -3,0 -1,-1 -3,0 -1,-1 -3,0 -1,1 -4,0 -1,1Z"/>
<path onmouseover="hoverPath(evt)" onmouseout="recoverPath(evt)" fill="rgb(244,243,235)" d="M  197,48l -1,0 -1,1 0,1 -1,1 0,1 1,1 0,2 1,1 0,2 1,1 0,2 1,1 0,2 1,1 0,2 1,1 0,2 2,0 1,1 0,2 -1,1 0,1 1,1 0,1 1,1 0,2 1,1 0,1 1,1 0,2 1,1 0,2 2,0 1,1 0,2 -1,1 0,1 2,0 1,1 0,2 -1,1 0,1 2,0 1,1 0,2 -1,1 0,1 2,0 1,1 0,2 -1,1 0,1 1,1 0,1 1,1 0,2 1,1 0,1 1,1 0,2 1,1 0,2 1,1 0,-1 1,-1 2,0 0,-4 1,-1 0,-1 -1,-1 0,-3 -2,0 -1,-1 0,-6 1,-1 1,-1 1,-1 2,0 1,-1 3,0 1,-1 2,0 1,-1 4,0 1,1 1,0 0,-2 1,-1 3,0 1,-1 4,0 1,1 1,0 0,-2 1,-1 3,0 0,-57 -4,0 -1,1 -4,0 -1,1 -3,0 -1,1 -4,0 -1,1 -3,0 -1,1 -3,0 -1,1 -3,0 -1,1 -3,0 -1,1 -4,0 -1,1 -2,0 -1,1 -4,0 -1,1 -3,0 -1,1 -3,0 -1,1Z"/>
<path onmouseover="hoverPath(evt)" onmouseout="recoverPath(evt)" fill="rgb(244,243,235)" d="M  0,1l 0,98 1,0 1,-1 2,0 1,-1 2,0 1,-1 1,0 1,-1 2,0 1,-1 1,0 1,-1 1,0 1,-1 2,0 1,-1 1,0 1,-1 2,0 1,-1 1,0 1,-1 1,0 1,-1 1,0 1,-1 2,0 1,-1 1,0 1,-1 1,0 1,-1 1,0 1,-1 3,0 0,-11 -1,-1 0,-17 -1,-1 0,-7 -1,0 -1,-1 -4,0 -1,-1 0,-2 1,-1 5,0 1,-1 0,-39 -40,0 -1,1Z"/>
<path onmouseover="hoverPath(evt)" onmouseout="recoverPath(evt)" fill="rgb(244,242,234)" d="M  47,0l -1,0 0,28 1,1 13,0 1,-1 13,0 1,1 12,0 1,-1 12,0 1,-1 13,0 0,-2 1,-1 12,0 1,-1 9,0 1,-1 4,0 1,-1 4,0 1,-1 4,0 1,-1 4,0 1,1 3,0 1,-1 3,0 1,1 0,-1 -1,-1 0,-1 -1,-1 0,-1 -1,-1 0,-2 -1,-1 0,-1 -2,0 -1,-1 0,-1 -1,-1 0,-2 1,-1 0,-1 -1,-1 0,-2Z"/>
<path onmouseover="hoverPath(evt)" onmouseout="recoverPath(evt)" fill="rgb(243,241,233)" d="M  116,168l -2,0 0,3 1,1 0,5 -1,1 0,4 1,1 0,4 1,1 0,4 1,1 0,3 2,0 1,1 0,2 1,1 0,1 14,0 1,-1 13,0 1,-1 7,0 0,-5 1,-1 0,-2 -1,-1 0,-13 -1,-1 0,-4 -1,-1 -1,-1 0,-2 -1,-1 0,-2 -1,-1 0,-1 -1,-1 0,-2 -3,0 -1,1 -3,0 -1,1 -4,0 -1,1 -3,0 -1,1 -4,0 -1,1 -3,0 -1,1 -4,0 -1,1 -3,0 -1,1Z"/>
<path onmouseover="hoverPath(evt)" onmouseout="recoverPath(evt)" fill="rgb(244,243,236)" d="M  161,0l -1,0 0,1 1,1 0,2 1,1 0,2 -1,1 2,0 1,1 0,1 1,1 0,2 1,1 0,1 1,1 0,1 1,1 0,2 1,1 0,1 1,1 0,2 -1,1 0,1 1,1 0,1 2,0 1,1 0,1 1,1 0,2 -1,1 2,0 1,1 0,1 1,1 0,1 6,0 1,-1 1,0 1,-1 2,0 1,1 1,-1 3,0 1,-1 3,0 1,-1 3,0 1,-1 3,0 1,-1 3,0 1,-1 3,0 1,-1 3,0 1,-1 3,0 1,-1 3,0 1,-1 4,0 1,-1 2,0 1,-1 4,0 1,-1 3,0 1,-1 4,0 1,-1 4,0 1,1 2,0 0,-24Z"/>
<path onmouseover="hoverPath(evt)" onmouseout="recoverPath(evt)" fill="rgb(243,242,234)" d="M  225,108l 0,0 1,1 0,3 1,1 0,3 -1,1 0,4 -1,1 -2,0 0,2 -1,1 1,1 0,2 1,1 0,1 1,1 0,2 1,1 0,1 1,-2 0,-6 1,-1 2,0 1,1 0,8 -1,1 0,1 -1,1 0,1 -1,1 0,1 1,1 0,2 1,1 0,2 1,1 0,2 1,1 0,2 1,1 0,2 2,0 1,1 0,2 -1,1 0,1 1,1 0,2 1,1 0,3 1,1 0,2 2,0 1,1 0,2 -1,1 0,1 1,1 0,3 1,1 0,2 2,0 1,1 0,2 -1,1 0,1 1,1 0,2 1,1 0,2 1,1 0,2 1,1 0,2 1,1 0,2 1,1 0,2 1,1 0,2 2,0 1,1 0,2 -1,1 0,1 2,0 0,-120 -2,0 0,2 -1,1 -3,0 -1,-1 -2,0 -1,1 -3,0 0,2 -1,1 -3,0 -1,-1 -2,0 -1,1 -2,0 -1,1 -3,0 -1,1 -2,0 -1,1 -1,1 0,4Z"/>
<path onmouseover="hoverPath(evt)" onmouseout="recoverPath(evt)" fill="rgb(244,243,235)" d="M  0,219l 0,36 77,0 0,-5 -1,-1 0,-3 -1,-1 0,-4 -1,-1 0,-4 -1,-1 0,-3 -1,-1 0,-4 -1,-1 0,-4 -1,-1 0,-4 -1,-1 0,-4 -1,-1 0,-3 -1,0 -1,-1 -1,1 -9,0 -1,1 -7,0 -1,1 -6,0 -1,1 -5,0 -1,1 -6,0 -1,1 -5,0 -1,1 -5,0 -1,1 -6,0 -1,1 -4,0 -1,1 -3,0Z"/>
<path onmouseover="hoverPath(evt)" onmouseout="recoverPath(evt)" fill="rgb(244,242,235)" d="M  46,35l 0,14 1,1 0,17 1,1 0,11 1,-1 2,0 1,-1 1,0 1,-1 2,0 1,-1 1,0 1,-1 1,0 1,-1 1,0 1,-1 1,0 1,-1 2,0 1,-1 2,0 1,-1 2,0 1,-1 1,0 1,-1 2,0 1,-1 1,0 1,-1 2,0 1,-1 1,0 1,-1 2,0 1,-1 2,0 1,-1 1,0 1,-1 2,0 1,-1 3,0 1,-1 2,0 1,-1 3,0 1,-1 3,0 1,-1 3,0 1,-1 3,0 1,-1 3,0 1,-1 3,0 1,-1 3,0 1,-1 3,0 1,-1 3,0 1,-1 4,0 1,-1 3,0 1,-1 3,0 1,-1 3,0 1,-1 4,0 1,-1 3,0 1,-1 3,0 1,-1 3,0 0,-1 -1,-1 0,-2 -1,-1 0,-1 -1,-1 0,-2 1,-1 -2,0 -1,-1 0,-1 -1,-1 0,-2 -1,-1 0,-2 1,-1 -2,0 -1,-1 -1,0 -1,1 -5,0 -1,-1 -2,0 -1,1 -4,0 -1,1 -4,0 -1,1 -4,0 -1,1 -9,0 -1,1 -12,0 0,2 -1,1 -13,0 -1,1 -12,0 -1,1 -13,0 -1,1 -8,0 -1,1 -18,0 -1,1Z"/>
<path onmouseover="hoverPath(evt)" onmouseout="recoverPath(evt)" fill="rgb(243,241,232)" d="M  62,147l 0,3 1,1 0,4 1,1 0,5 1,1 0,3 1,1 0,2 1,1 1,-1 4,0 1,-1 4,0 1,-1 4,0 1,-1 5,0 1,-1 4,0 1,-1 3,0 1,-1 5,0 1,-1 4,0 1,-1 4,0 1,-1 4,0 1,-1 4,0 1,-1 4,0 1,-1 4,0 1,-1 4,0 1,-1 4,0 1,-1 4,0 1,-1 5,0 1,-1 4,0 1,-1 4,0 1,-1 5,0 1,-1 4,0 1,-1 4,0 1,-1 4,0 1,-1 5,0 1,-1 4,0 1,-1 4,0 1,-1 5,0 1,-1 4,0 1,-1 4,0 1,-1 3,0 -2,-1 0,-2 1,-1 0,-1 -2,0 -1,-1 0,-2 1,-1 0,-1 -2,0 -1,-1 0,-2 1,-1 0,-1 -2,0 -1,-1 0,-2 1,-1 -1,-1 -2,0 -1,1 -4,0 -1,-1 -2,0 -1,1 -3,0 -1,1 -4,0 0,2 -1,1 -5,0 -1,-1 -2,0 0,2 -1,1 -9,0 -1,-1 -1,0 -1,1 -2,0 -1,1 -5,0 0,2 -1,1 -5,0 -1,-1 -4,0 -1,1 -4,0 0,2 -1,1 -7,0 -1,-1 -6,0 0,2 -1,1 -9,0 -1,-1 -6,0 -1,1 -9,0 0,2 -1,1 -12,0 -1,1 -3,0 -1,1 -2,0 -1,1 -4,0 -1,1 -5,0 -1,1 -3,0 -1,1 -4,0 -1,1 -3,0Z"/>
<path onmouseover="hoverPath(evt)" onmouseout="recoverPath(evt)" fill="rgb(242,241,231)" d="M  209,251l 0,4 46,0 0,-15 -3,0 -1,1 -5,0 -1,1 -6,0 -1,1 -5,0 -1,1 -4,0 -1,1 -5,0 -1,1 -4,0 -1,1 -5,0 -1,1 -1,0Z"/>
<path onmouseover="hoverPath(evt)" onmouseout="recoverPath(evt)" fill="rgb(253,253,253)" d="M  158,174l 0,1 1,1 0,13 1,1 0,4 -1,1 0,5 -1,1 0,1 1,1 0,4 -1,1 -6,0 7,1 0,14 -1,1 -1,1 0,1 -1,1 1,0 1,1 0,4 1,1 0,-5 1,-1 1,0 1,-1 20,0 1,1 0,2 1,1 0,6 -1,1 5,0 1,-1 -3,0 -1,-1 0,-1 -1,-5 0,-2 1,-1 1,0 1,-1 -1,0 -2,1 -24,0 -1,-1 0,-1 -1,-50 2,34 0,-6 1,-1 6,0 1,-1 -6,0 -1,-1 0,-2 1,-1 3,0 1,-1 4,0 1,-1 5,0 1,-1 8,0 1,1 0,4 1,0 0,-3 1,-1 0,-1 1,-1 8,0 -9,-1 0,0 -1,-1 0,-4 1,-1 1,0 1,-1 -3,0 -1,-1 0,-2 -1,2 0,1 -1,1 -3,0 -1,1 5,0 1,1 -1,-2 0,0 2,6 0,0 -1,1 2,0 -12,1 -6,1 -5,1 -5,0 0,13 -2,-34 3,15 1,0 1,-1 -1,0 -1,1 -3,-15 3,1 0,1 1,-1 4,0 -13,52 2,-26 -4,0 -1,1Z"/>
<path onmouseover="hoverPath(evt)" onmouseout="recoverPath(evt)" fill="rgb(252,252,251)" d="M  0,214l 0,1 2,0 1,-1 4,0 1,-1 6,0 1,-1 5,0 1,-1 5,0 1,-1 6,0 1,-1 5,0 1,-1 6,0 1,-1 7,0 1,-1 9,0 1,-1 2,0 1,1 1,0 1,1 0,3 1,1 0,4 1,1 0,4 1,1 0,4 1,1 0,4 1,1 0,3 1,1 0,4 1,1 0,4 1,1 0,3 1,1 0,6 2,0 0,-2 -1,-1 0,-3 -1,-1 0,-4 -1,-1 0,-4 -1,-1 0,-3 -1,-1 0,-4 -1,-1 0,-3 -1,-1 0,-4 -1,-1 0,-8 1,-1 -1,0 -1,-1 -1,-1 0,-5 -1,-1 0,-3 -1,-1 0,-4 -1,-1 0,-4 -1,-1 0,-5 -1,-1 0,-4 -1,-1 0,-4 1,-1 1,-1 2,0 1,-1 4,0 1,-1 5,0 1,1 3,0 1,1 1,0 1,-1 4,0 0,-2 1,-1 4,0 1,1 3,0 1,-1 4,0 1,-1 5,0 1,1 0,-1 1,-1 2,0 1,-1 3,0 1,-1 4,0 1,-1 3,0 1,-1 4,0 1,-1 3,0 1,-1 4,0 1,-1 3,0 1,-1 5,0 1,1 0,2 1,1 0,-1 -1,-3 0,-2 1,-1 2,0 1,-1 3,0 1,-1 5,0 1,-1 4,0 1,-1 4,0 1,-1 4,0 1,-1 5,0 1,-1 4,0 1,-1 4,0 1,-1 5,0 1,-1 4,0 1,-1 4,0 1,-1 4,0 1,-1 5,0 1,1 1,1 0,3 -1,1 2,0 1,1 0,2 1,1 0,2 1,1 0,2 1,1 0,2 1,1 0,2 1,1 0,2 1,1 0,2 1,1 0,2 1,1 0,3 -1,1 -1,1 2,0 1,1 1,1 0,1 1,1 0,2 1,1 0,2 1,1 0,2 1,1 0,2 1,1 0,3 -1,1 2,0 1,1 0,2 1,1 0,2 1,1 0,2 1,1 0,2 1,1 0,2 1,1 0,2 1,1 0,2 1,1 0,2 1,1 0,3 -1,1 1,1 0,2 2,0 0,-14 -3,0 -1,-1 0,-3 1,-1 -2,0 -1,-1 0,-2 -1,-1 0,-2 -1,-1 0,-2 -1,-1 0,-2 -1,-1 0,-2 -1,-1 0,-2 -1,-1 0,-2 -1,-1 0,-3 1,-1 -2,0 -1,-1 0,-2 -1,-1 0,-3 -1,-1 0,-3 1,-1 -2,0 -1,-1 0,-2 -1,-1 0,-3 -1,-1 0,-2 -1,-1 0,-3 1,-1 -2,0 -1,-1 0,-2 -1,-1 0,-2 -1,-1 0,-2 -1,-1 0,-2 -1,-1 0,-2 -1,-1 0,-3 1,-1 0,-1 1,-1 0,-1 1,-1 0,-6 -3,9 -1,0 -1,-1 0,-1 -1,-1 0,-2 -1,-1 0,-1 -1,-1 0,-2 -1,-1 0,-1 -1,-1 0,-1 -1,-1 0,-2 -1,-1 0,-2 -1,-1 0,-1 -1,-1 0,-2 -1,-1 0,-1 -1,-1 0,-3 1,-1 -2,0 -1,-1 0,-3 1,-1 -2,0 -1,-1 0,-3 1,-1 -2,0 -1,-1 0,-3 1,-1 -2,0 -1,-1 0,-2 -1,-1 0,-2 -1,-1 0,-1 -1,-1 0,-2 -1,-1 0,-1 -1,-1 0,-3 1,-1 -2,0 -1,-1 0,-2 -1,-1 0,-2 -1,-1 0,-2 -1,-1 0,-2 -1,-1 0,-2 -1,-1 0,-2 -1,-1 0,-2 -1,-1 0,-1 -1,0 0,1 1,1 0,2 1,1 0,2 1,1 0,4 -1,1 2,0 1,1 0,2 1,1 0,2 1,1 0,2 1,1 0,2 1,1 0,2 1,1 0,1 1,1 0,3 -1,1 2,0 1,1 0,3 -1,1 2,0 1,1 0,3 -1,1 2,0 1,1 0,2 1,1 0,2 1,1 0,1 1,1 0,2 1,1 0,1 1,1 0,2 1,1 0,1 1,1 0,3 -1,1 1,0 1,1 0,0 1,1 0,2 -1,1 2,0 1,1 0,3 -1,1 2,0 1,1 0,3 -1,1 2,0 1,1 0,3 -1,1 1,0 1,1 0,2 -1,1 -3,0 -1,1 -4,0 -1,1 -4,0 -1,1 -5,0 -1,1 -4,0 -1,1 -4,0 -1,1 -5,0 -1,1 -4,0 -1,1 -4,0 -1,1 -4,0 -1,1 -5,0 -1,1 -4,0 -1,1 -4,0 -1,1 -5,0 -1,1 -4,0 -1,1 -4,0 -1,1 -4,0 -1,1 -4,0 -1,1 -4,0 -1,1 -4,0 -1,1 -4,0 -1,1 -4,0 -1,1 -4,0 -1,1 -5,0 -1,1 -3,0 -1,1 -4,0 -1,1 -5,0 -1,1 -4,0 -1,1 -4,0 -1,1 -4,0 -1,1 -2,0 -1,-1 -1,-1 0,-2 -1,-1 0,-3 -1,-1 0,-5 -1,-1 0,-4 -1,-1 0,-7 1,-1 3,0 1,-1 4,0 1,-1 3,0 1,-1 5,0 1,-1 4,0 1,-1 2,0 1,-1 -2,0 -1,-1 0,-1 -1,-1 0,-3 -1,-1 0,-4 -1,0 0,4 1,1 0,6 -1,1 -3,0 -1,1 -4,0 -1,1 -4,0 -1,1 -4,0 -1,1 -4,0 -1,1 -8,0 -1,-1 0,-12 -1,-1 0,-20 -1,-1 0,-5 1,-1 1,-1 1,0 1,-1 -3,0 -1,-1 0,-7 -1,0 -1,1 0,0 1,1 0,16 1,1 0,20 1,1 0,11 -1,1 -1,1 6,0 1,-1 4,0 1,1 0,1 1,1 0,4 1,1 0,5 1,1 0,4 1,1 0,5 1,1 0,5 1,1 0,3 1,1 0,4 1,1 0,5 1,1 0,4 1,1 0,8 -1,1 -4,0 -1,1 -8,0 -1,1 -7,0 -1,1 -5,0 -1,1 -6,0 -1,1 -5,0 -1,1 -5,0 -1,1 -6,0 -1,1 -5,0 -1,1 -6,0 -1,1Z"/>
<path onmouseover="hoverPath(evt)" onmouseout="recoverPath(evt)" fill="rgb(253,253,253)" d="M  65,30l -3,0 -1,1 -15,0 -1,-1 -1,-1 0,-29 -1,0 0,40 -1,1 -1,1 -5,0 5,1 1,0 1,1 0,7 1,1 0,17 1,1 0,11 1,0 0,-12 -1,-1 0,-17 -1,-1 0,-17 1,-1 0,-1 20,-1Z"/>
<path onmouseover="hoverPath(evt)" onmouseout="recoverPath(evt)" fill="rgb(237,236,220)" d="M  205,254l 0,-1 -1,-1 0,-3 -4,0 -1,1 -6,0 -1,1 -5,0 -1,1 -5,0 -1,1 -5,0 -1,1 -7,0 0,1 37,0 1,-1Z"/>
<path onmouseover="hoverPath(evt)" onmouseout="recoverPath(evt)" fill="rgb(247,236,138)" d="M  0,103l 0,6 2,0 1,-1 2,0 1,-1 2,0 1,-1 1,0 1,-1 2,0 1,-1 1,0 1,-1 2,0 1,-1 1,0 1,-1 2,0 1,-1 1,0 1,-1 2,0 1,-1 1,0 1,-1 1,0 1,-1 2,0 1,-1 1,0 1,-1 1,0 1,-1 3,0 0,-1 1,-1 1,-1 3,0 1,1 0,-1 1,-1 1,-1 1,0 1,-1 1,0 1,-1 2,0 1,-1 1,0 1,-1 1,0 1,-1 2,0 1,-1 2,0 1,-1 1,0 1,-1 1,0 1,-1 1,0 1,-1 2,0 1,-1 1,0 1,-1 2,0 1,-1 2,0 1,-1 1,0 1,-1 2,0 1,-1 2,0 1,-1 2,0 1,-1 2,0 1,-1 2,0 1,-1 2,0 1,-1 2,0 1,-1 3,0 1,-1 3,0 1,-1 3,0 1,-1 3,0 1,-1 4,0 1,-1 3,0 1,-1 4,0 1,-1 3,0 1,-1 2,0 1,-1 4,0 1,-1 3,0 1,-1 3,0 1,-1 3,0 1,-1 4,0 1,-1 3,0 1,-1 4,0 1,-1 4,0 1,-1 5,0 1,-1 1,0 1,-1 3,0 1,1 0,0 1,-1 1,-1 3,0 1,-1 3,0 1,-1 3,0 1,-1 4,0 1,-1 2,0 1,-1 4,0 1,-1 3,0 1,-1 3,0 1,-1 3,0 1,-1 3,0 1,-1 4,0 1,-1 3,0 1,-1 4,0 1,-1 5,0 0,-7 -3,0 -1,-1 -2,0 -1,1 -4,0 -1,1 -3,0 -1,1 -4,0 -1,1 -2,0 -1,1 -4,0 -1,1 -3,0 -1,1 -3,0 -1,1 -3,0 -1,1 -3,0 -1,1 -3,0 -1,1 -3,0 -1,1 -3,0 -1,1 -3,0 -1,1 -3,0 -1,1 -2,0 -1,-1 -1,1 -1,0 -1,1 -8,0 -1,-1 0,2 -1,1 -3,0 -1,1 -3,0 -1,1 -3,0 -1,1 -4,0 -1,1 -3,0 -1,1 -3,0 -1,1 -3,0 -1,1 -4,0 -1,1 -3,0 -1,1 -3,0 -1,1 -3,0 -1,1 -3,0 -1,1 -3,0 -1,1 -3,0 -1,1 -3,0 -1,1 -3,0 -1,1 -3,0 -1,1 -2,0 -1,1 -3,0 -1,1 -2,0 -1,1 -1,0 -1,1 -2,0 -1,1 -2,0 -1,1 -1,0 -1,1 -2,0 -1,1 -1,0 -1,1 -2,0 -1,1 -1,0 -1,1 -2,0 -1,1 -2,0 -1,1 -2,0 -1,1 -1,0 -1,1 -1,0 -1,1 -1,0 -1,1 -1,0 -1,1 -2,0 -1,1 -1,0 -1,1 -2,0 -1,1 -1,0 0,1 -1,1 -2,0 -1,1 -3,0 -1,1 -1,0 -1,1 -1,0 -1,1 -1,0 -1,1 -2,0 -1,1 -1,0 -1,1 -1,0 -1,1 -1,0 -1,1 -2,0 -1,1 -1,0 -1,1 -2,0 -1,1 -1,0 -1,1 -1,0 -1,1 -2,0 -1,1 -1,0 -1,1 -2,0 -1,1 -2,0 -1,1 -2,0Z"/>
<path onmouseover="hoverPath(evt)" onmouseout="recoverPath(evt)" fill="rgb(243,242,234)" d="M  0,159l 0,52 6,0 1,-1 5,0 1,-1 6,0 1,-1 5,0 1,-1 5,0 1,-1 6,0 1,-1 5,0 1,-1 7,0 1,-1 8,0 1,-1 4,0 0,-6 -1,-1 0,-4 -1,-1 0,-5 -1,-1 0,-4 -1,-1 0,-3 -1,-1 0,-5 -1,-1 0,-5 -1,-1 0,-4 -1,-1 0,-5 -1,-1 0,-4 -1,-1 0,-1 -2,0 -1,1 -8,0 -1,-1 -2,0 -1,1 -3,0 -1,1 -7,0 -1,-1 0,-1 -1,-1 0,3 -1,1 -1,0 -1,1 -2,0 -1,1 -4,0 0,2 -1,1 -4,0 -1,-1 -3,0 -1,1 -4,0 0,2 -1,1 -3,0Z"/>
<path onmouseover="hoverPath(evt)" onmouseout="recoverPath(evt)" fill="rgb(242,241,232)" d="M  75,215l 0,4 1,1 0,4 1,1 0,3 1,1 0,4 1,1 0,3 1,1 0,4 1,1 0,4 1,1 0,3 1,1 0,3 62,0 0,-2 1,-1 5,0 1,-1 5,0 0,-2 1,-1 1,0 0,-4 1,-1 0,-2 -2,0 -1,-1 0,-6 -1,-1 0,-4 -4,0 -1,-1 0,-2 1,-1 3,0 0,-1 1,-1 1,-1 0,-12 -6,0 -1,-1 0,-2 1,-1 6,0 0,-2 -1,-1 -3,0 -1,1 -16,0 -1,-1 -15,0 -1,-1 0,-1 -1,-1 0,3 -1,1 -4,0 -1,1 -4,0 -1,1 -5,0 -1,1 -4,0 -1,1 -4,0 -1,1 -6,0 0,2 -1,1 -5,0 -1,1 -3,0Z"/>
<path onmouseover="hoverPath(evt)" onmouseout="recoverPath(evt)" fill="rgb(253,253,252)" d="M  161,249l 0,0 -1,1 -1,0 0,2 -1,1 -5,0 -1,1 -5,0 0,1 18,0 0,-2 1,-1 7,0 1,-1 5,0 1,-1 5,0 1,-1 5,0 1,-1 6,0 1,-1 6,0 1,1 0,3 1,1 0,-5 1,-1 1,0 1,-1 5,0 1,-1 4,0 1,-1 5,0 1,-1 4,0 1,-1 5,0 1,-1 6,0 1,-1 5,0 1,-1 4,0 0,-1 -5,0 -1,1 -5,0 -1,1 -5,0 -1,1 -5,0 -1,1 -5,0 -1,1 -4,0 -1,1 -4,0 -1,1 -5,0 -1,1 -4,0 -1,1 -6,0 -1,1 -5,0 -1,1 -5,0 -1,1 -6,0 -1,1 -6,0 -1,1 -8,0 -1,-1 -1,-1Z"/>
<path onmouseover="hoverPath(evt)" onmouseout="recoverPath(evt)" fill="rgb(242,241,231)" d="M  161,231l 0,8 1,1 0,3 1,1 0,4 1,1 6,0 1,-1 6,0 1,-1 6,0 1,-1 5,0 1,-1 5,0 1,-1 6,0 1,-1 4,0 1,-1 5,0 1,-1 4,0 1,-1 4,0 1,-1 5,0 1,-1 5,0 1,-1 5,0 1,-1 5,0 1,-1 6,0 0,-3 -3,0 -1,-1 0,-2 -1,-1 0,-2 1,-1 0,-1 -1,-1 0,-2 -1,-1 0,-2 -1,-1 0,-2 -1,-1 0,-2 -1,-1 0,-2 -1,-1 0,-2 -1,-1 0,-2 -1,-1 0,-2 -2,0 -1,-1 0,-2 1,-1 0,-1 -1,-1 0,-2 -1,-1 0,-2 -1,-1 0,-2 -1,-1 0,-2 -1,-1 0,-1 -1,-1 -4,0 -1,-1 -4,0 0,2 -1,1 -3,0 -1,1 -6,0 -1,1 -7,0 0,6 -1,1 -7,0 0,2 -1,1 -8,0 0,1 -1,1 0,3 -1,1 -3,0 -1,-1 0,-4 -6,0 -1,1 -5,0 -1,1 -4,0 -1,1 9,0 1,1 0,2 -1,1 -6,0 -1,1 -6,0 0,11 -1,1 0,9 23,0 1,-1 8,0 1,1 0,2 -1,1 -5,0 -1,1 -1,0 0,4 1,1 0,1 7,0 1,1 0,2 -1,1 -4,0 -1,1 -7,0 -1,-1 0,-2 1,-1 0,-4 -1,-1 0,-2 -18,0 -1,1 -1,0Z"/>
<path onmouseover="hoverPath(evt)" onmouseout="recoverPath(evt)" fill="rgb(241,240,230)" d="M  187,179l 0,0 1,1 0,2 9,0 1,1 0,2 -1,1 -6,0 -1,1 -1,0 0,2 1,1 7,0 1,-1 7,0 0,-6 1,-1 7,0 1,-1 6,0 1,-1 3,0 0,-2 1,-1 5,0 1,-1 2,0 1,-1 0,-1 -1,-1 0,-2 -1,-1 0,-2 -1,-1 0,-2 -1,-1 0,-2 -1,-1 0,-2 -1,-1 0,-2 -1,-1 0,-2 -1,-1 0,-2 -2,0 -1,-1 0,-2 1,-1 0,-1 -1,-1 -3,0 -1,1 -4,0 -1,1 -4,0 -1,1 -4,0 -1,1 -5,0 -1,1 -4,0 -1,1 -4,0 -1,1 -5,0 -1,1 -4,0 -1,1 -4,0 -1,1 -4,0 -1,1 -5,0 -1,1 -3,0 -1,1 -2,0 0,2 1,1 0,4 -1,1 0,1 1,1 0,2 1,1 2,0 1,1 0,2 7,0 1,1 0,2 -1,1 -4,0 -1,1 -1,0 0,7 1,1 7,0 1,1 0,2 -1,1 -5,0 -1,1 -1,0 0,2 6,0 1,-1 5,0 1,-1 8,0 1,-1 1,0 0,-1 -1,-1 0,0 -1,-1 -1,1 -7,0 -1,-1 0,-2 1,-1 4,0 1,-1 3,0 0,-1 1,-1 0,-1 1,-1Z"/>
</svg>