<svg width="256" height="256" xmlns="http://www.w3.org/2000/svg"><script> 
var tempColor;
function hoverPath(evt){
obj = evt.target;
tempColor = obj.getAttribute("fill");
obj.setAttribute("fill","red");
//alert(tempColor);
//obj.setAttribute("stroke","red");}
function recoverPath(evt){
obj = evt.target;
obj.setAttribute("fill", tempColor);
//obj.setAttribute("stroke", tempColor);
}</script><path onmouseover="hoverPath(evt)" onmouseout="recoverPath(evt)" fill="rgb(243,242,233)" d="M  0,152l 0,55 6,0 1,1 21,0 0,-1 1,-1 -1,0 -1,-1 0,-6 -1,-1 0,-4 1,-1 0,-14 1,-1 0,-28 -26,0 -1,-1 -1,0Z"/>
<path onmouseover="hoverPath(evt)" onmouseout="recoverPath(evt)" fill="rgb(170,198,237)" d="M  0,240l 0,3 26,0 0,-4 -25,0 -1,1Z"/>
<path onmouseover="hoverPath(evt)" onmouseout="recoverPath(evt)" fill="rgb(171,198,236)" d="M  37,120l 0,9 1,-5 13,0 1,-1 1,0 1,-1 1,0 1,-1 1,0 1,-1 1,0 1,-1 1,-1 1,-1 1,-1 1,-1 1,-1 0,-1 1,-1 0,-1 1,-1 1,-1 1,-1 1,-1 1,0 1,-1 2,0 1,-1 6,0 1,1 1,1 1,1 1,1 0,1 1,1 0,2 1,1 0,1 1,1 1,1 1,1 1,0 1,1 1,1 1,0 1,1 1,0 1,1 1,0 1,1 2,0 1,1 2,0 1,1 3,0 1,1 5,0 1,-1 8,0 1,1 1,1 1,1 0,3 1,1 0,8 2,0 0,-5 -1,-1 0,-7 1,-1 0,-1 1,-1 0,-1 1,-1 1,-1 1,0 1,-1 1,-1 8,0 1,1 1,1 1,0 0,-2 -1,0 -1,-1 -1,0 -1,-1 -1,0 -1,-1 -3,0 -1,1 -1,0 -1,1 -2,0 -1,1 -1,0 -1,1 -2,0 -1,1 -3,0 -1,1 -3,0 -1,1 -4,0 -1,1 -4,0 -1,-1 -3,0 -1,-1 -1,0 -1,-1 -1,-1 -1,0 -1,-1 -1,-1 -1,-1 -1,0 -1,-1 -1,-1 -1,-1 -1,-1 -1,-1 0,-1 -1,-1 -1,-1 -1,-1 -1,-1 0,-1 -1,-1 -1,-1 0,-1 -1,-1 0,-1 -1,-1 0,-3 -4,0 0,3 -1,1 -1,1 -2,0 -1,1 -1,0 -1,1 -2,0 -1,1 -1,0 -1,1 -1,0 -1,1 -4,4 0,1 -1,1 0,1 -1,1 -1,1 -1,1 -1,1 -1,1 -2,0 -1,1 -2,0 -1,1 -6,0 -1,-1 -3,0 -1,-1 -1,1Z"/>
<path onmouseover="hoverPath(evt)" onmouseout="recoverPath(evt)" fill="rgb(244,242,235)" d="M  40,191l 0,0 -1,-1 0,-1 -2,0 0,4 2,0 1,1 0,3 1,1 0,2 1,1 0,1 1,1 0,1 1,1 0,1 1,1 0,1 1,1 1,1 0,2 -1,1 -2,0 0,1 1,1 0,2 1,1 1,1 0,1 1,1 0,4 1,0 1,1 0,3 1,1 0,2 1,1 0,2 1,1 0,1 15,0 2,-2 1,-1 2,-2 1,-1 1,-1 1,-1 1,-1 1,0 1,-1 1,-1 1,-1 0,-2 1,-1 1,-1 1,-1 1,-1 1,-1 1,-1 1,0 0,-1 1,-1 1,0 0,-1 1,-1 1,-1 1,-1 1,-1 1,-1 1,-1 1,-1 1,-1 1,0 1,-1 1,-1 1,-1 1,-1 1,-1 1,-1 1,-1 1,-1 0,-1 1,-1 1,-1 1,-1 1,-1 1,0 0,-1 1,-1 1,-1 1,-1 0,-1 1,-1 1,-1 3,-3 1,-1 3,-3 1,-1 1,-1 1,0 1,-1 3,-3 1,-1 1,-1 1,-1 0,-2 1,-1 3,-3 1,-1 1,-1 1,-1 1,-1 1,-1 1,-1 -9,8 -3,0 -1,-1 -1,-1 -1,-1 0,-2 -1,-1 0,-4 1,-1 0,-2 1,-1 0,-2 1,-1 0,-1 1,-1 0,-1 1,-1 0,-2 1,-1 0,-1 1,-1 0,-2 -1,-1 0,0 -1,-1 -1,-1 -1,0 0,6 -1,1 -4,0 -1,-1 0,-8 -1,-1 0,-3 -1,-1 -1,-1 -6,0 -1,1 -7,0 -1,-1 -3,0 -1,-1 -2,0 -1,-1 -2,0 -1,-1 -1,0 -1,-1 -1,0 -1,-1 -1,0 -1,-1 -1,-1 -1,0 -1,-1 -1,-1 -1,-1 -1,-1 0,-1 -1,-1 0,-2 -1,-1 0,-1 -1,-1 -1,-1 -1,-1 -4,0 -1,1 -2,0 -1,1 -1,0 -1,1 -1,1 -1,1 0,1 -1,1 0,1 -3,3 -1,1 -3,3 -1,0 -1,1 -1,0 -1,1 -1,0 -1,1 -1,0 -1,1 -13,0 0,14 2,0 1,1 0,3 1,1 0,7 48,0 1,-1 9,0 1,1 1,1 1,1 0,29 -1,1 -1,1 -51,0 -1,1 -7,0 0,1 1,1 0,2 -1,1Z"/>
<path onmouseover="hoverPath(evt)" onmouseout="recoverPath(evt)" fill="rgb(182,149,237)" d="M  76,232l 0,0 -1,1 -1,1 -1,1 -1,1 -1,1 -1,1 -1,1 -17,0 1,1 0,1 1,1 1,0 1,1 0,3 1,1 0,2 -1,1 1,1 0,2 -1,1 0,1 18,0 0,-2 1,-1 1,-1 1,0 1,-1 1,-1 1,-1 1,-1 1,-1 1,-1 1,-1 2,0 0,-3 1,-1 1,-1 0,-3 1,-1 1,-1 1,-1 3,0 0,-1 1,-1 4,-4 1,-1 1,-1 1,-1 1,-1 1,-1 1,-1 1,0 1,-1 1,-1 1,-1 1,-1 1,-1 1,-1 1,-1 0,-1 1,-1 1,0 0,-1 1,-1 1,0 1,-1 1,-1 1,-1 1,-1 0,-1 1,-1 0,-1 1,-1 1,-1 1,-1 1,-1 1,-1 1,-1 1,-1 1,-1 1,0 1,-1 1,-1 1,-1 1,-1 1,-1 1,-1 1,-1 1,-1 1,-1 0,-1 1,-1 1,0 2,-2 1,-1 0,-2 1,-1 1,0 0,-1 1,-1 1,-1 1,0 0,-1 1,-1 1,0 1,-1 0,-1 1,-1 1,-1 0,-1 1,-1 1,-1 3,-3 1,0 0,-1 1,-1 1,0 1,-1 0,-1 1,-1 1,-1 0,-1 1,-1 0,-2 2,-2 1,-1 3,-3 1,0 3,-3 1,-1 2,0 1,-1 1,-1 1,-1 0,-2 1,-1 1,-1 1,0 1,-1 1,-1 1,0 1,-1 2,0 1,-1 1,-1 -1,-1 0,-2 1,-1 1,-1 1,-1 1,-1 1,-1 1,0 1,-1 1,0 0,-1 1,-1 1,-1 1,-1 3,-3 1,-1 0,-1 1,-1 1,-1 1,-1 0,-1 1,-1 1,-1 1,-1 1,-1 3,-3 1,-1 1,-1 1,0 1,-1 1,-1 3,-3 1,-1 1,-1 1,-1 1,-1 1,-1 2,0 1,1 1,1 1,1 1,1 0,1 1,1 1,1 1,1 1,1 1,1 1,1 0,1 1,1 1,1 1,1 1,1 1,1 0,1 1,1 1,1 1,1 1,1 0,3 1,1 0,2 -1,1 0,2 -1,1 -1,1 -1,1 -1,1 -2,0 -1,1 -1,0 -1,1 -2,0 -1,1 -2,0 -1,-1 -1,0 -1,-1 -1,-1 -1,-1 0,-3 1,-1 0,-1 3,-3 1,-1 1,-1 0,-1 -1,-1 0,0 -1,-1 -1,-1 -3,0 -1,1 0,2 1,1 0,0 1,1 0,3 -158,114 156,-109 -5,0 -1,-1 -1,0 1,1 0,0 1,1 1,0 1,1 1,1 0,1 1,0 1,1 1,0 1,1 1,1 2,0 1,1 4,0 1,-1 2,0 1,-1 1,0 1,-1 1,0 1,-1 1,0 1,-1 1,-1 2,0 0,-14 -2,0 -1,-1 -1,-1 0,-1 -1,-1 -1,-1 0,-1 -1,-1 -1,-1 -1,-1 0,-1 -1,-1 -1,-1 -1,-1 -1,-1 0,-1 -1,-1 -1,-1 -1,-1 -1,-1 -1,-1 0,-1 -1,-1 -1,-1 0,-4 1,-1 1,-1 1,-1 1,-1 1,-1 1,-1 1,-1 1,0 1,-1 1,-1 1,-1 1,-1 1,-1 1,-1 3,-3 1,-1 2,0 0,-19 -2,0 -1,1 -7,7 -1,1 -3,3 -1,1 0,1 -1,1 -1,1 -1,1 -1,1 0,1 -1,1 -1,1 -1,1 -1,1 -1,1 -1,1 -1,1 0,1 -1,1 -2,0 -1,1 -1,1 0,1 -1,1 -2,0 0,1 -1,1 -1,1 -1,0 0,1 -1,1 -1,1 -1,1 -1,1 0,1 -1,1 -1,1 0,1 -1,1 -1,1 -1,1 -1,1 -3,3 -1,0 -1,1 -1,1 -1,1 -1,1 -1,1 -1,1 -1,1 0,1 -1,1 -1,1 0,1 -1,1 -1,1 -1,1 -1,1 -1,1 -1,1 -1,1 -1,0 -1,1 -1,1 -1,1 -1,1 -1,1 -1,1 -1,1 0,1 -1,1 -1,1 -3,0 0,3 -1,1 -1,1 -1,1 -1,1 -2,0 0,3 -1,1 -1,1 -1,0 -1,1 -2,0 -3,3 -1,1 -1,1 -1,1 0,2 -1,1 -4,4 -1,1 -1,1 -1,1 -1,1 -1,1 -1,0 0,1 -1,1 -1,1 -8,8 0,2 -1,1 -1,1 -1,1 -1,1 -1,1 -1,1 -1,1 -1,1 -1,0 -1,1 -1,1 -1,1 -4,4 -1,1 -1,1 -1,1 0,1 -1,1 -1,1 -1,1 0,1 -1,1 -1,0 -1,1 -1,1 -1,1 0,1 -1,1 -1,1 -1,1 -1,1 -1,1 -1,1 -1,1 -1,1 -1,1 -1,0 -1,1 -1,1 -1,1 -1,1 -1,1 -1,1 -1,1 0,1 -1,1 -1,0 0,1 -1,1 -1,0 -1,1 -1,1 -1,1 -1,1 -1,1 0,2 -1,1 -1,1 -1,1 -1,1 -1,0 -1,1 155,-108 -156,109Z"/>
<path onmouseover="hoverPath(evt)" onmouseout="recoverPath(evt)" fill="rgb(170,196,237)" d="M  90,240l -1,1 -1,1 0,1 82,0 1,1 0,1 1,1 0,9 5,0 0,-3 -1,-1 0,-30 -1,-1 0,-29 -1,-1 0,-34 1,-1 0,-1 1,-1 1,-1 1,0 1,-1 7,-7 1,-1 1,-1 0,-1 1,-1 1,-1 1,-1 1,0 1,-1 3,-3 1,0 1,-1 1,-1 1,0 1,-1 1,0 1,-1 1,-1 1,-1 0,-1 1,-1 0,-2 1,-1 3,-3 1,-1 7,0 1,1 0,-1 -5,-1 -2,0 -2,1 -1,1 0,0 -1,1 -1,1 -1,1 -1,1 0,1 -1,1 0,1 -1,1 -1,0 -1,1 -1,1 -1,1 -1,0 -1,1 -1,0 -1,1 -1,1 -1,1 -2,0 -1,1 -1,0 -1,1 -1,1 -1,0 -1,1 0,2 -1,1 -1,1 -1,1 -1,1 -2,0 -1,1 -1,1 -1,1 -1,1 -1,0 -1,1 -1,1 -1,1 -1,1 -1,1 0,1 1,1 0,21 1,1 0,47 1,1 0,11 -1,1 -1,1 -77,0 -1,-1 0,-2 1,-1 -1,0 -2,2Z"/>
<path onmouseover="hoverPath(evt)" onmouseout="recoverPath(evt)" fill="rgb(244,242,235)" d="M  201,166l 0,0 -1,1 0,6 1,1 0,6 1,1 0,4 -1,1 -1,1 1,0 1,-1 11,0 1,-1 12,0 1,1 3,0 1,1 2,0 1,-1 2,0 1,1 0,2 -1,1 0,1 -1,1 4,0 1,1 1,1 1,0 1,1 6,0 0,-2 1,-1 3,0 1,1 1,0 0,-66 -1,0 -1,1 0,0 -1,1 -1,0 -1,1 -1,0 -1,1 -1,0 -1,1 -2,0 -1,1 -6,0 -1,-1 -2,0 -1,-1 -1,-1 -1,0 -1,-1 -1,0 -1,-1 0,-1 -1,-1 -1,0 -1,-1 -1,-1 -1,-1 0,-2 -1,0 1,-1 4,0 1,1 3,0 0,-1 1,-1 0,-3 -1,-1 0,0 -1,-1 0,-4 1,-1 1,-1 -1,0 -1,1 -1,1 -1,1 0,1 -1,1 1,1 0,2 -1,1 -1,1 -2,0 0,1 -23,47 32,-58 4,0 1,1 1,1 1,1 0,-2 -1,0 -1,-1 -3,-1 -1,0 -1,1 -32,58 22,-42 0,1 1,1 1,1 1,1 0,3 1,1 0,4 -1,1 -1,0 -1,1 -1,0 -1,1 -1,0 -1,1 -1,0 -1,1 -1,1 -1,0 -1,1 -1,1 -1,0 -2,2 -1,1 -1,1 1,1 0,2 -1,1 -1,1 -1,1 0,1 -1,1 0,1 -1,1 -2,0 0,1 -1,1 0,2 -1,1 0,2 22,-41 -22,42Z"/>
<path onmouseover="hoverPath(evt)" onmouseout="recoverPath(evt)" fill="rgb(239,236,223)" d="M  13,249l 12,0 1,-1 0,-1 1,-1 0,-1 -27,0 0,4Z"/>
<path onmouseover="hoverPath(evt)" onmouseout="recoverPath(evt)" fill="rgb(242,241,233)" d="M  23,17l 0,0 1,1 0,3 1,1 0,3 1,1 0,3 1,1 0,3 1,1 0,3 1,1 0,3 1,1 0,5 1,1 0,5 1,1 0,5 1,1 0,5 1,1 0,5 1,1 0,7 1,1 0,9 8,0 1,1 0,2 -1,1 -8,0 0,1 6,0 1,1 0,1 34,0 -22,-1 0,-3 1,-1 20,0 -1,-1 0,-8 -1,-1 0,-6 -1,-1 0,-5 -1,-1 0,-4 -1,-1 0,-4 -1,-1 0,-10 -1,-1 0,-7 -1,-1 0,-9 -1,-1 0,-22 -6,0 -1,-1 0,-2 1,-1 3,0 1,-1 1,0 0,-2 -47,0 0,1 1,1 0,3 1,1 0,3 1,1 0,1 4,0 1,1 0,2 -1,1 -3,0Z"/>
<path onmouseover="hoverPath(evt)" onmouseout="recoverPath(evt)" fill="rgb(179,201,232)" d="M  72,53l 0,4 1,1 0,4 1,1 0,4 1,1 0,5 1,1 0,6 1,1 0,8 1,1 1,0 1,1 0,-7 -1,-1 0,-6 -1,-1 0,-5 -1,-1 0,-8 1,-1 2,0 0,-12 1,-1 0,-1 -1,-1 0,-1 -4,0 -1,-1 0,-4 -1,-1 0,-8 -1,-1 0,-12 -1,-1 0,-12 -1,-1 0,-4 -3,0 0,3 -1,1 -1,0 -1,1 3,0 1,1 0,22 1,1 0,9 1,1 0,7 1,1Z"/>
<path onmouseover="hoverPath(evt)" onmouseout="recoverPath(evt)" fill="rgb(244,243,237)" d="M  128,200l 0,0 -1,1 -1,1 -1,1 -1,1 0,1 -1,1 0,1 -3,3 -1,1 -1,1 -1,0 0,1 -1,1 -1,0 0,1 -1,1 -1,1 -3,3 -1,1 -1,1 -1,1 -1,0 -1,1 -1,1 -1,1 -1,1 -1,1 -1,1 -1,1 -1,1 -1,1 -1,1 0,1 -1,1 0,1 -1,1 75,0 1,-1 0,-9 -1,-1 0,-47 -1,-1 0,-21 -1,2 0,0 -1,1 0,1 -1,1 -1,1 -1,0 0,1 -1,1 -1,0 -3,3 -1,1 0,1 -1,1 -1,1 0,1 -1,1 -1,1 -1,0 0,1 -1,1 -1,0 -1,1 0,1 -1,1 -1,0 0,2 -1,1 -1,1 -1,1 2,-1 12,0 1,1 0,10 1,1 0,24 -1,1 -36,0 -1,-1 -3,0 -1,-1 0,-4 1,-1 0,-1 1,-1 1,-1 1,-1 0,-1 2,-2 1,-1 3,-3 1,-1 1,-1 1,-1 0,-2 1,-1 1,0 1,-1 1,-1 1,-1 1,-1 1,-1 1,-1 1,-1 1,-1 1,-1 0,-2 -1,2 -1,1 -1,1 -1,1 -1,1 -1,1 -1,1 -1,1 -1,1 -2,1 -1,1 0,0 -1,1 -1,1Z"/>
<path onmouseover="hoverPath(evt)" onmouseout="recoverPath(evt)" fill="rgb(239,240,236)" d="M  171,1l 0,0 1,1 0,29 5,0 1,-1 0,0 1,-1 2,0 1,-1 1,0 1,-1 4,0 1,1 2,0 1,-1 2,0 1,-1 1,0 1,-1 2,0 1,-1 1,0 1,-1 2,0 1,-1 1,0 1,-1 2,0 0,-1 1,-1 2,0 1,1 1,1 1,1 -1,-2 0,-1 1,-1 1,0 1,-1 1,0 1,-1 2,0 1,-1 1,0 1,-1 1,0 1,-1 1,0 1,-1 2,0 1,-1 1,0 1,-1 1,-1 3,0 1,-1 1,0 1,-1 1,-1 3,0 1,-1 1,-1 3,0 1,-1 1,0 1,-1 3,0 0,-2 -83,0 -1,1 32,4 2,0 1,1 0,2 -1,1 -2,0 -1,-1 0,-2 1,-1 -32,-4Z"/>
<path onmouseover="hoverPath(evt)" onmouseout="recoverPath(evt)" fill="rgb(244,242,235)" d="M  180,153l 0,0 -1,1 -1,0 -1,1 0,1 -1,1 0,32 1,1 0,29 1,1 0,30 1,1 0,4 76,0 0,-60 -2,0 -1,-1 -1,0 0,2 -1,1 -8,0 -1,-1 -1,0 -1,-1 -1,-1 -4,0 -1,-1 0,-2 1,-1 -1,-1 -3,0 -1,-1 -3,0 -1,-1 -10,0 -1,1 -11,0 -1,1 -12,0 -1,-1 0,-2 1,-1 9,0 1,-1 0,-2 -1,-1 0,-6 -1,-1 0,-8 1,-1 0,-3 1,-1 0,-2 1,-1 0,-1 1,-1 0,-1 1,-1 0,-1 1,-1 2,0 1,-1 1,-1 -1,-1 0,-2 1,-1 1,-1 1,-1 1,-1 1,-1 1,0 1,-1 1,-1 1,0 1,-1 1,-1 1,0 1,-1 1,0 1,-1 1,0 1,-1 1,0 0,-2 -1,-1 0,-3 -1,-1 -1,-1 -1,-1 0,-3 -1,-1 -2,0 -1,-1 -5,0 -1,1 0,0 -1,1 -1,1 -1,1 0,2 -1,1 0,1 -1,1 -1,1 -1,1 -1,1 -1,0 -1,1 -1,0 -1,1 -1,1 -1,0 -1,1 -1,1 -1,1 -1,1 -1,0 -1,1 -1,1 0,1 -1,1 -1,1 -3,3 -1,1 -1,1 -1,1 -1,1 -1,1Z"/>
<path onmouseover="hoverPath(evt)" onmouseout="recoverPath(evt)" fill="rgb(170,198,238)" d="M  188,77l -1,1 -1,1 -1,1 0,1 -1,1 0,2 1,1 0,2 1,1 0,2 1,1 6,0 1,-1 6,0 1,-1 1,0 1,-1 1,0 1,-1 1,0 1,-1 1,0 1,-1 1,-1 1,0 1,-1 1,0 1,-1 1,-1 1,0 0,-1 1,-1 0,-3 -1,-1 0,0 -1,-1 -1,-1 -1,-1 -1,-1 -1,-1 -1,-1 -1,0 -1,-1 -2,0 -1,1 -1,0 -1,1 -2,0 -1,1 -2,0 -1,1 -1,0 -1,1 -2,0 -1,1 -1,1 -1,1 -1,0 -1,1Z"/>
<path onmouseover="hoverPath(evt)" onmouseout="recoverPath(evt)" fill="rgb(244,242,234)" d="M  239,117l 0,0 -1,1 -1,1 -1,1 0,1 -1,1 0,1 1,1 1,1 1,0 1,1 1,-1 2,0 1,-1 1,0 1,-1 2,0 3,-3 0,-2 1,-1 -1,-1 0,-3 -1,-1 -1,-1 -1,-1 -1,-1 0,-1 -1,-1 -1,-1 -1,-1 -1,-1 -1,-1 0,-1 -1,-1 -1,-1 -1,-1 -1,-1 -1,-1 -1,-1 0,-1 -1,-1 -1,-1 -1,-1 -1,1 0,0 -1,1 -2,2 -1,1 -1,1 -1,1 -1,1 -1,1 -1,1 -1,0 -1,1 -1,1 -3,3 -1,1 -1,1 -1,1 0,1 -1,1 -1,1 -1,1 0,1 -1,1 -1,1 -1,1 -1,1 -1,1 -1,1 -1,1 0,1 -1,1 -1,0 -1,1 -1,0 -2,2 -1,1 -1,1 1,1 0,0 1,-1 1,0 1,-1 1,-1 1,-1 1,0 0,-1 1,-1 36,-7 -33,3 0,0 2,-2 1,-1 1,0 1,-1 4,0 1,1 4,0 1,1 1,0 0,-1 1,-1 2,0 1,-1 -1,-1 0,-2 1,-1 0,-1 1,-1 1,-1 1,-1 1,-1 1,0 1,-1 4,0 1,1 2,0 1,1 1,0 1,1 0,4 -1,1 0,2 -1,1 -34,4 33,-3Z"/>
<path onmouseover="hoverPath(evt)" onmouseout="recoverPath(evt)" fill="rgb(245,244,237)" d="M  254,69l 0,0 -1,1 -1,1 -1,1 -1,1 -1,1 -1,1 -1,1 -1,1 -1,1 -1,1 -1,0 -1,1 -1,1 -1,1 -1,1 -1,1 -1,1 0,2 1,1 0,0 1,1 0,1 1,1 1,1 1,1 1,1 1,1 0,1 1,1 1,1 1,1 1,1 0,1 1,1 1,1 1,1 0,1 1,1 1,1 0,1 1,1 1,0 0,-39 -1,-1Z"/>
<path onmouseover="hoverPath(evt)" onmouseout="recoverPath(evt)" fill="rgb(243,242,233)" d="M  0,2l 0,64 23,0 0,-5 -1,-1 0,-6 -1,-1 0,-4 -1,-1 0,-4 -1,0 -1,-1 0,-7 -1,-1 0,-3 -1,-1 0,-3 -1,-1 0,-4 -1,-1 0,-2 -1,-1 0,-3 -1,-1 0,-3 -1,-1 0,-4 -1,-1 0,-6 -10,0Z"/>
<path onmouseover="hoverPath(evt)" onmouseout="recoverPath(evt)" fill="rgb(241,240,232)" d="M  0,90l 0,21 1,0 1,1 1,0 0,-1 1,-1 1,-1 1,-1 1,-1 6,0 1,1 0,3 2,0 1,1 0,3 7,0 1,-1 3,0 0,-18 -1,-1 0,-2 -19,0 -1,-1 0,-2 1,-1 18,0 0,-8 -1,-1 0,-8 -1,-1 0,-1 -24,0Z"/>
<path onmouseover="hoverPath(evt)" onmouseout="recoverPath(evt)" fill="rgb(238,237,223)" d="M  10,146l 16,0 1,-1 3,0 0,-2 -1,0 -1,-1 0,-5 -28,0 0,8 4,0 1,1Z"/>
<path onmouseover="hoverPath(evt)" onmouseout="recoverPath(evt)" fill="rgb(224,228,229)" d="M  23,135l 6,0 0,-2 -1,-1 0,-2 1,-1 0,-8 1,-1 0,-3 -1,0 -1,-1 -2,0 -1,1 -9,0 -1,-1 0,-3 -2,0 -1,-1 0,-3 -4,0 -1,1 0,0 -1,1 -1,1 0,1 -1,1 -3,0 -1,-1 0,22Z"/>
<path onmouseover="hoverPath(evt)" onmouseout="recoverPath(evt)" fill="rgb(240,231,149)" d="M  34,86l 0,-5 -1,-1 0,-7 -1,-1 0,-5 -1,-1 0,-5 -1,-1 0,-5 -1,-1 0,-5 -1,-1 0,-5 -1,-1 0,-3 -1,-1 0,-3 -1,-1 0,-3 -1,-1 0,-3 -1,-1 0,-3 -1,-1 0,-3 -1,-1 0,-4 1,-1 -1,0 -1,-1 0,-1 -1,-1 0,-3 -1,-1 0,-3 -1,-1 0,-2 -5,0 0,5 1,1 0,4 1,1 0,3 1,1 0,3 1,1 0,2 1,1 0,4 1,1 0,3 1,1 0,3 1,1 0,7 1,0 1,1 0,4 1,1 0,4 1,1 0,6 1,1 0,7 -1,1 1,0 1,1 0,1 1,1 0,8 1,1 0,10 -1,1 1,0 1,1 0,2 1,1 0,4 1,0 1,1 0,6 1,-4 5,0 0,-1 1,-1 1,0 1,-1 0,-3 -6,0 -1,-1 0,-3 1,-1 8,0 -9,-1Z"/>
<path onmouseover="hoverPath(evt)" onmouseout="recoverPath(evt)" fill="rgb(246,236,147)" d="M  36,112l 0,-8 -2,0 0,3 -1,1 -2,0 -1,-1 0,8 1,0 1,1 0,5 -1,1 0,8 -1,1 1,1 0,4 -1,1 0,4 1,0 1,1 0,4 -1,1 -3,0 -1,1 -23,0 -1,-1 0,1 -1,-1 -2,0 28,1 1,0 1,1 0,30 -1,1 0,11 1,1 0,2 -1,1 -1,0 0,2 1,1 0,6 1,0 1,1 0,1 1,0 1,1 0,1 1,1 0,6 -1,1 1,0 1,1 0,0 1,1 0,2 1,1 0,2 1,1 0,3 1,0 1,1 0,3 -1,1 -1,0 2,1 0,0 1,1 0,1 1,1 0,1 1,0 1,1 0,1 1,1 0,3 -1,1 1,1 0,1 1,1 0,2 1,1 0,2 1,1 0,2 6,0 0,-2 1,-1 -1,-1 0,-2 1,-1 -1,-1 0,-3 -1,0 -1,-1 -1,-1 0,-1 -1,-1 0,-2 1,-1 -1,-1 0,-2 -1,-1 0,-2 -1,-1 0,-3 -1,0 -1,-1 0,-4 -1,-1 0,-1 -1,-1 -1,-1 0,-2 -1,-1 0,-1 -1,-1 0,-2 1,-1 2,0 -1,-1 0,-1 -1,-1 0,-1 -1,-1 0,-1 -1,-1 0,-1 -1,-1 0,-2 -1,-1 0,-3 -2,0 -1,-1 0,-8 1,-1 1,-1 1,0 0,-27 -1,0 -1,-1 0,-3 1,-1 1,0 0,-10 -1,-1 0,-10 -1,0 -1,-1 0,-12 1,-1Z"/>
<path onmouseover="hoverPath(evt)" onmouseout="recoverPath(evt)" fill="rgb(243,242,232)" d="M  33,245l -1,0 0,4 -1,1 0,5 15,0 0,-1 -1,-1 0,-2 -1,-1 0,-2 -1,-1 0,-1 -1,-1Z"/>
<path onmouseover="hoverPath(evt)" onmouseout="recoverPath(evt)" fill="rgb(244,243,235)" d="M  38,106l 0,11 1,0 1,1 3,0 1,1 4,0 1,-1 2,0 1,-1 2,0 1,-1 1,-1 1,-1 1,-1 0,-1 1,-1 0,-1 1,-1 1,-1 1,-1 1,-1 1,-1 1,-1 1,0 1,-1 1,0 1,-1 2,0 1,-1 1,0 1,-1 2,0 1,-1 0,-1 -34,0 0,2 -1,1 -1,1 -1,0 0,1 -1,1 -1,0Z"/>
<path onmouseover="hoverPath(evt)" onmouseout="recoverPath(evt)" fill="rgb(241,239,229)" d="M  80,157l -1,1 0,8 1,1 0,13 1,1 18,0 0,-1 1,-1 0,-21 -1,-1 0,-1 -18,0 -1,1Z"/>
<path onmouseover="hoverPath(evt)" onmouseout="recoverPath(evt)" fill="rgb(242,241,234)" d="M  83,49l 0,0 -1,1 0,12 -1,1 -2,0 0,6 1,1 0,5 1,1 0,6 1,1 0,8 9,0 1,1 28,0 1,1 33,0 0,-2 1,-1 2,0 -1,-1 0,-5 -1,-1 0,-3 -1,-1 0,-3 -1,-1 -3,0 -1,-1 -1,-1 -1,-1 0,-3 -1,-1 0,-5 1,-1 0,-2 1,-1 1,0 1,-1 9,0 1,-1 6,0 0,-24 -1,-1 0,-28 -1,-1 0,-3 -91,0 0,3 1,1 0,12 1,1 0,12 1,1 0,8 1,1 0,4 4,0 1,1 0,1 1,1Z"/>
<path onmouseover="hoverPath(evt)" onmouseout="recoverPath(evt)" fill="rgb(244,243,237)" d="M  100,246l 0,0 1,1 8,0 1,1 3,0 1,1 1,1 1,1 1,1 1,1 0,2 52,0 0,-8 -1,-1 0,-1 -68,0 -1,1 -1,-1 -11,0 -1,1 -2,0 -1,1 -1,1 -1,1 -1,1 -1,1 -1,1 -1,1 -1,0 -1,1 0,1 6,0 0,-2 1,-1 2,-2 1,-1 1,-1 2,0 1,-1 5,0 1,-1 2,0 1,-1 1,1Z"/>
<path onmouseover="hoverPath(evt)" onmouseout="recoverPath(evt)" fill="rgb(253,253,253)" d="M  156,77l 0,1 1,1 0,3 1,1 0,5 1,1 0,2 -1,1 -2,0 0,2 -1,1 -35,0 -1,-1 -28,0 -1,-1 -11,0 -1,-1 -1,1 -20,0 0,1 21,0 1,1 4,0 1,-1 3,0 1,1 28,0 1,1 39,0 1,-1 1,0 1,-1 0,-1 1,-1 0,-4 -1,-1 0,-4 -1,-1 0,-3 -1,-1 -1,-1Z"/>
<path onmouseover="hoverPath(evt)" onmouseout="recoverPath(evt)" fill="rgb(170,198,237)" d="M  173,33l -2,0 -1,-1 0,-29 -1,-1 0,-2 -3,0 0,2 1,1 0,28 1,1 0,24 3,0 0,-18 1,-1 0,-1 1,-1 1,0 1,-1 1,-1 7,0 1,1 1,1 1,1 1,1 1,1 0,1 1,1 1,1 1,1 1,0 1,1 2,0 1,1 2,0 1,1 1,1 1,1 1,1 0,1 1,1 1,1 1,1 0,1 1,1 1,1 0,1 1,1 1,1 0,1 1,1 1,1 0,1 1,1 1,1 0,1 1,1 1,1 1,1 0,1 1,1 1,1 1,1 1,1 1,1 0,1 1,0 1,1 1,-1 0,0 1,-1 0,-1 -1,-1 0,0 -1,-1 -1,-1 -1,-1 -1,-1 -1,-1 -1,-1 -1,-1 0,-1 -1,-1 0,-1 -1,-1 -1,-1 0,-1 -1,-1 -1,-1 -1,-1 0,-1 -1,-1 -1,-1 0,-1 -1,-1 -1,-1 -1,-1 0,-1 -1,-1 -1,-1 -1,-1 -1,-1 -1,-1 -1,-1 -1,-1 -1,0 -1,-1 -1,0 -1,-1 -1,0 -1,-1 -1,-1 -1,-1 -1,0 -1,-1 -1,-1 -1,-1 -1,-1 0,-2 1,-1 -2,0 -1,1 -1,0 -1,1 -2,0 -1,1 -6,1Z"/>
<path onmouseover="hoverPath(evt)" onmouseout="recoverPath(evt)" fill="rgb(242,242,232)" d="M  0,215l 0,22 27,0 0,-13 1,-1 0,-9 -1,0 -1,-1 -26,0Z"/>
<path onmouseover="hoverPath(evt)" onmouseout="recoverPath(evt)" fill="rgb(239,241,240)" d="M  16,251l -16,0 0,4 29,0 0,-6 1,-1 0,-4 1,-1 11,0 1,-1 0,-1 -1,-1 0,-1 -1,0 -1,-1 0,-1 -1,-1 0,-1 -1,-1 -1,0 -1,-1 0,-2 1,-1 1,0 0,-1 -1,0 -1,-1 0,-3 -1,-1 0,-2 -1,-1 0,-2 -1,-1 -1,0 -1,-1 0,-2 1,-1 0,-4 -1,-1 0,-1 -1,0 0,1 -1,1 -23,0 -1,-1 -5,0 0,2 27,0 1,1 1,0 1,1 0,11 -1,1 0,13 -1,1 0,4 1,1 0,3 -1,1 0,1 -1,1 -1,1Z"/>
<path onmouseover="hoverPath(evt)" onmouseout="recoverPath(evt)" fill="rgb(242,240,231)" d="M  43,159l 0,3 -1,1 0,17 1,1 1,1 1,-1 30,0 0,-1 1,-1 0,-1 -1,-1 0,-20 -1,0 -1,-1 -28,0 -1,1 -1,0Z"/>
<path onmouseover="hoverPath(evt)" onmouseout="recoverPath(evt)" fill="rgb(253,253,253)" d="M  76,183l 25,0 1,-1 0,-27 -1,-1 0,0 -1,-1 -7,0 -1,1 -50,0 -1,-1 0,-7 -1,-1 0,8 -1,1 -1,0 0,1 1,0 1,1 0,29 -1,1 -1,0 -1,1 3,0 1,1 0,1 1,0 -1,-2 0,-2 1,-1 7,0 1,-1 -8,0 -1,-1 35,1 -34,-28 34,0 1,1 1,0 0,-1 -1,2 0,19 1,1 0,3 -1,1 0,1 2,0 -1,-1 0,-13 15,-14 7,0 1,1Z"/>
<path onmouseover="hoverPath(evt)" onmouseout="recoverPath(evt)" fill="rgb(243,242,234)" d="M  85,99l 0,0 1,1 0,1 1,1 0,1 1,1 1,1 0,1 1,1 1,1 1,1 1,1 0,1 1,1 1,1 1,1 1,1 1,0 1,1 1,1 1,1 1,0 1,1 1,1 1,0 1,1 3,0 1,1 2,0 1,-1 4,0 1,-1 3,0 1,-1 3,0 1,-1 2,0 1,-1 1,0 1,-1 2,0 1,-1 1,0 1,-1 5,0 1,1 1,0 1,1 1,0 1,1 1,0 1,1 1,0 1,1 1,1 1,1 1,0 1,1 2,2 1,1 1,0 1,1 1,0 1,1 4,0 1,-1 1,-1 0,-7 1,-1 0,-6 -1,-1 0,-49 1,-1 3,0 1,-1 2,0 -3,-1 -3,0 -1,1 -6,0 -1,1 -9,0 -1,1 -1,0 0,2 -1,1 0,3 1,1 0,3 1,1 1,1 2,0 1,-1 2,0 1,1 1,1 0,2 1,1 1,1 0,3 1,1 0,4 1,1 0,6 -1,1 0,1 -1,1 -1,1 -1,0 -1,1 -41,0 -1,-1 -28,0 -1,-1 -1,0Z"/>
<path onmouseover="hoverPath(evt)" onmouseout="recoverPath(evt)" fill="rgb(170,198,238)" d="M  87,251l 0,0 -1,1 -1,1 -1,1 0,1 32,0 0,-1 -1,-1 0,0 -1,-1 -1,-1 -1,-1 -3,0 -1,-1 -8,0 -1,-1 -2,0 -1,1 -5,0 -1,1 -2,0 -1,1Z"/>
<path onmouseover="hoverPath(evt)" onmouseout="recoverPath(evt)" fill="rgb(176,201,237)" d="M  136,121l -1,1 -1,1 -1,0 -1,1 0,1 -1,1 0,1 -1,1 0,5 3,0 1,1 1,1 2,2 0,4 -1,1 0,1 -1,1 0,2 -1,1 0,1 -1,1 0,1 -1,1 0,2 -1,1 0,2 -1,1 0,2 1,1 0,2 1,1 1,1 2,0 1,-1 0,0 1,-1 1,-1 1,-1 1,-1 1,-1 1,-1 1,-1 3,0 1,-1 6,-6 1,-1 1,-1 0,-2 1,-1 1,-1 1,-1 1,-1 1,-1 1,-1 1,-1 2,0 1,-1 1,0 1,-1 0,-3 1,-1 2,0 3,-3 0,-30 -1,-1 0,-4 1,-1 -1,-1 0,-29 -1,-1 -2,0 0,47 1,1 0,8 -1,1 0,7 -1,1 -2,2 -6,0 -1,-1 -1,0 -1,-1 -1,0 -1,-1 -1,-1 -1,-1 -1,-1 -1,0 -1,-1 -1,-1 -1,-1 0,2 -1,1 -3,0 -1,-1 -1,-1Z"/>
<path onmouseover="hoverPath(evt)" onmouseout="recoverPath(evt)" fill="rgb(170,198,238)" d="M  146,186l 0,0 -1,1 -1,0 0,2 -1,1 -1,1 -1,1 -1,1 -1,1 -1,1 -1,1 -1,1 -1,1 -1,1 -1,0 0,2 -2,2 -1,1 -4,4 -1,1 -1,1 0,1 -2,2 -1,1 0,1 -1,1 0,2 3,0 1,1 34,0 0,-22 -1,-1 0,-10Z"/>
<path onmouseover="hoverPath(evt)" onmouseout="recoverPath(evt)" fill="rgb(244,243,236)" d="M  174,63l 0,28 1,1 0,2 -1,1 0,2 1,1 0,27 2,0 1,-1 0,-1 1,-1 1,-1 1,-1 1,-1 1,-1 1,-1 1,-1 1,-1 1,0 1,-1 1,-1 1,-1 1,-1 1,-1 1,-1 0,-1 1,-1 1,-1 0,-1 1,-1 1,-1 1,-1 1,-1 1,-1 1,-1 1,-1 1,-1 1,0 1,-1 1,-1 1,-1 1,-1 1,-1 1,-1 0,-1 1,-1 1,-1 0,-1 1,-1 1,-1 1,-1 1,-1 -3,2 -1,1 -1,0 -1,1 0,0 -1,1 -1,0 -1,1 -1,0 -1,1 -1,0 -1,1 -1,0 -1,1 -6,0 -1,1 -8,0 -1,-1 -1,-1 0,-2 -1,-1 0,-2 -1,-1 0,-4 1,-1 0,-1 1,-1 1,-1 1,-1 1,-1 1,-1 1,0 1,-1 1,-1 1,-1 2,0 1,-1 1,0 1,-1 2,0 1,-1 2,0 1,-1 1,0 1,-1 4,0 1,1 1,0 1,1 2,2 1,1 1,1 1,1 2,2 0,5 -1,1 2,-3 2,0 -1,-1 -1,0 -6,-8 -1,-1 -1,-1 -1,-1 0,-1 -1,-1 -1,-1 0,-1 -1,-1 -1,-1 0,-1 -1,-1 -1,-1 0,-1 -1,-1 -1,-1 0,-1 -1,-1 -1,-1 -1,-1 0,-1 -1,-1 -1,-1 -1,-1 -2,0 -1,-1 -2,0 -1,-1 -1,0 -1,-1 -1,-1 -1,-1 -1,-1 0,-1 -1,-1 -1,-1 -1,-1 -1,-1 -5,0 -1,1 -1,1 -1,0 0,1 -1,1 0,18 2,0 1,1 0,2 -1,1 -2,0 1,1Z"/>
<path onmouseover="hoverPath(evt)" onmouseout="recoverPath(evt)" fill="rgb(244,243,235)" d="M  189,30l -1,1 1,1 1,1 1,1 1,0 2,2 1,1 1,0 1,1 1,0 1,1 1,0 1,1 1,1 1,1 1,1 1,1 1,1 1,1 1,1 0,1 1,1 1,1 1,1 0,1 1,1 1,1 0,1 1,1 1,1 1,1 0,1 1,1 1,1 0,1 1,1 0,1 1,1 1,1 1,1 1,1 1,1 1,1 1,1 1,1 0,2 1,-2 0,0 1,-1 1,-1 1,-1 1,-1 1,-1 1,-1 0,-1 2,-2 1,-1 1,-1 0,-1 1,-1 1,-1 1,-1 1,-1 1,-1 1,-1 1,-1 1,-1 1,-1 1,-1 1,-1 1,-1 1,-1 1,-1 3,0 0,-42 -2,0 -1,1 -1,0 -1,1 -3,0 -1,1 -1,1 -3,0 -1,1 -1,1 -1,0 -1,1 -3,0 -1,1 -1,1 -1,0 -1,1 -2,0 -1,1 -1,0 -1,1 -1,0 -1,1 -1,0 -1,1 -2,0 -1,1 -1,0 -1,1 -1,0 1,1 0,1 1,1 0,2 -1,1 -2,0 -1,-1 0,-1 -1,-1 -1,-1 -1,-1 0,1 -1,1 -2,0 -1,1 -1,0 -1,1 -2,0 -1,1 -1,0 -1,1 -2,0 -1,1 -1,0 -1,1 -2,0 -1,1 -3,0 30,-1 2,0 1,1 0,1 1,1 0,2 -1,1 -2,0 -1,-1 0,-1 -1,-1 0,-2 1,-1 -30,1 46,25 -1,1 -2,0 -1,-1 0,-2 1,-1 2,0 1,1 0,2 -46,-25 35,8 2,0 1,1 0,1 1,1 0,2 -1,1 -2,0 -1,-1 0,-1 -1,-1 0,-2 1,-1 -35,-8 43,20 0,-2 -1,-1 0,0 1,3 -43,-20 41,17 -1,0 -1,1 2,-1 -41,-17 41,21 -1,0 -1,-1 0,0 2,1 -41,-21Z"/>
</svg>