<svg width="256" height="256" xmlns="http://www.w3.org/2000/svg"><script> 
var tempColor;
function hoverPath(evt){
obj = evt.target;
tempColor = obj.getAttribute("fill");
obj.setAttribute("fill","red");
//alert(tempColor);
//obj.setAttribute("stroke","red");}
function recoverPath(evt){
obj = evt.target;
obj.setAttribute("fill", tempColor);
//obj.setAttribute("stroke", tempColor);
}</script><path onmouseover="hoverPath(evt)" onmouseout="recoverPath(evt)" fill="rgb(243,242,234)" d="M  0,180l 0,30 1,0 1,-1 1,0 1,-1 1,0 1,-1 1,-1 1,-1 1,-1 1,0 1,-1 2,0 1,-1 1,0 1,-1 1,0 1,-1 2,0 1,-1 3,0 1,-1 3,0 1,-1 2,0 1,-1 1,0 1,-1 1,-1 1,-1 1,-1 1,-1 1,0 1,-1 1,0 1,-1 2,0 1,-1 3,0 1,-1 1,0 1,-1 1,0 1,-1 1,0 1,-1 2,0 1,-1 8,0 1,-1 2,0 1,-1 1,0 1,-1 1,0 1,-1 1,0 0,-2 -1,-1 0,-2 -1,-1 0,-2 -1,-1 0,-1 -1,-1 0,-2 -1,-1 0,-4 -4,0 -1,1 -4,0 -1,1 -3,0 -1,1 -3,0 -1,1 -2,0 -1,1 -4,0 -1,1 -4,0 -1,1 -3,0 -1,1 -3,0 -1,1 -3,0 -1,1 -3,0 -1,1 -3,0 -1,1 -2,0 -1,1 -2,0 0,4 -1,1 -2,0 -1,-1 -1,-1 0,-1 -3,0 -1,1 -1,0 -1,1 -3,0 0,2 15,1 2,0 1,1 1,1 0,2 -1,1 -2,0 -1,-1 -1,-1 0,-2 1,-1 -15,-1Z"/>
<path onmouseover="hoverPath(evt)" onmouseout="recoverPath(evt)" fill="rgb(244,243,237)" d="M  76,248l -1,0 -1,1 0,6 31,0 0,-3 -1,-1 0,-2 -1,-1 0,-1 -1,-1 0,-2 -1,-1 0,-1 -1,-1 -3,0 -1,1 -3,0 -1,1 -2,0 -1,1 -2,0 -1,1 -3,0 -1,1 -2,0 -1,1 -2,0 -1,1Z"/>
<path onmouseover="hoverPath(evt)" onmouseout="recoverPath(evt)" fill="rgb(244,243,235)" d="M  77,160l 0,2 1,1 0,2 1,1 0,2 1,1 0,1 1,1 0,2 1,1 0,1 1,1 0,1 1,0 1,1 1,-1 3,0 1,-1 2,0 1,-1 2,0 1,-1 2,0 1,-1 1,0 1,-1 2,0 1,-1 2,0 1,-1 2,0 1,-1 2,0 1,-1 2,0 1,-1 2,0 1,-1 2,0 1,-1 3,0 1,-1 2,0 1,-1 2,0 1,-1 2,0 1,-1 3,0 1,-1 2,0 1,-1 2,0 1,-1 2,0 1,-1 3,0 1,-1 2,0 1,-1 2,0 1,-1 3,0 1,-1 4,0 1,-1 4,0 1,-1 14,0 1,1 1,1 1,1 0,6 -1,1 0,8 -1,1 0,7 -1,1 0,5 -1,1 0,3 -1,1 0,1 -1,1 0,1 -1,1 0,4 1,1 0,1 1,1 1,1 1,1 0,1 1,1 1,1 1,1 1,1 1,1 0,1 1,1 1,1 1,1 1,1 1,1 0,1 1,1 1,1 1,1 1,1 1,1 0,1 1,1 1,1 1,1 1,1 0,3 -1,1 -3,0 0,1 -1,1 -1,0 -1,1 -1,0 -1,1 -1,0 -1,1 -1,1 -1,0 0,2 -1,1 -1,0 1,1 0,1 1,1 0,1 1,1 1,1 0,1 1,1 1,1 0,1 1,1 0,1 1,1 1,1 0,1 1,1 0,2 19,0 0,-2 -1,-1 0,0 -1,-1 -1,-1 0,-1 -1,-1 -1,-1 -1,-1 0,-1 -1,-1 -1,-1 -1,-1 0,-1 -1,-1 -1,-1 -1,-1 -1,-1 0,-1 -1,-1 -1,-1 -1,-1 0,-4 -126,-69 129,64 2,0 1,1 1,-1 1,0 1,-1 1,0 1,-1 0,-2 1,-1 1,0 1,-1 1,0 1,-1 1,0 1,-1 1,0 1,-1 2,0 1,1 1,-1 1,0 1,-1 1,0 1,-1 1,0 1,-1 1,0 1,-1 1,0 1,-1 1,0 1,-1 1,0 1,-1 2,0 1,-1 2,0 1,1 1,-1 2,0 1,1 0,2 -1,1 -2,0 -1,-1 0,-1 4,3 1,1 0,1 1,1 1,1 0,1 1,0 0,-100 -2,0 0,2 -1,1 -3,0 -1,-1 -1,0 0,2 -1,1 -2,0 -1,-1 -1,0 -1,1 -2,0 -1,1 -2,0 -1,1 -2,0 -1,1 -2,0 -1,1 -2,0 -1,1 -2,0 -1,1 -2,0 -1,1 -4,0 -1,1 -2,0 0,1 -1,1 -1,1 -3,0 -1,-1 -2,0 -1,1 -3,0 -1,1 -3,0 -1,1 -4,0 -1,1 -3,0 -1,1 -3,0 -1,1 -5,0 -1,1 -4,0 -1,1 -5,0 -1,1 -6,0 -1,1 -7,0 -1,1 -9,0 -1,1 -4,0 -1,1 -2,0 -1,1 -2,0 -1,1 -3,0 -1,1 -2,0 -1,1 -3,0 -1,1 -3,0 -1,1 -5,0 -1,1 -4,0 -1,1 -4,0 -1,1 -4,0 -1,1 -5,0 -1,1 -4,0 -1,1 -2,0 -1,1 -3,0 -1,1 1,0 129,65 -129,-64Z"/>
<path onmouseover="hoverPath(evt)" onmouseout="recoverPath(evt)" fill="rgb(244,243,235)" d="M  87,184l 0,1 -1,1 0,1 1,1 0,1 1,1 0,2 1,1 0,1 1,1 0,2 1,1 0,1 1,1 0,1 1,1 0,2 1,1 0,1 1,1 0,2 1,1 0,1 1,1 0,2 1,1 0,1 1,1 0,2 1,1 0,1 1,1 0,1 1,1 0,4 1,-1 2,0 1,-1 2,0 1,-1 2,0 1,-1 3,0 1,-1 2,0 1,-1 2,0 1,-1 2,0 1,-1 2,0 1,-1 1,0 0,-2 1,-1 2,0 1,1 3,0 1,-1 3,0 1,-1 1,0 1,-1 2,0 1,-1 2,0 1,-1 2,0 0,-2 1,-1 2,0 1,1 1,0 1,-1 2,0 0,-2 1,-1 2,0 1,1 2,0 1,-1 2,0 1,1 1,1 1,1 1,1 1,1 0,1 1,1 1,1 0,1 1,1 1,1 0,1 1,1 1,1 0,1 1,1 1,1 0,1 1,1 1,1 0,1 1,1 2,0 1,1 0,4 3,0 1,-1 1,0 1,-1 1,-1 1,0 1,-1 1,0 1,-1 1,0 0,-1 -1,-1 0,0 -1,-1 -1,-1 -1,-1 -1,-1 0,-1 -1,-1 -1,-1 -1,-1 -1,-1 0,-1 -1,-1 -1,-1 -1,-1 -1,-1 0,-1 -1,-1 -1,-1 -1,-1 -1,-1 -1,-1 0,-1 -1,-1 -1,-1 -1,-1 -1,-1 0,-1 -1,-1 -1,-1 0,-9 1,-1 0,-1 1,-1 0,-1 1,-1 0,-2 1,-1 0,-5 1,-1 0,-7 1,-1 0,-8 -1,-1 -1,-1 -5,0 -1,1 -5,0 -1,1 -3,0 -1,1 -2,0 -1,1 -3,0 -1,1 -2,0 -1,1 -3,0 -1,1 -2,0 -1,1 -2,0 -1,1 -3,0 -1,1 -2,0 -1,1 -2,0 -1,1 -2,0 -1,1 -3,0 -1,1 -2,0 -1,1 -2,0 -1,1 -2,0 -1,1 -1,0 -1,1 -3,0 -1,1 -2,0 -1,1 -2,0 -1,1 -2,0 -1,1 -2,0 -1,1 -2,0 -1,1 -2,0 -1,1 -2,0 -1,1 -2,0 -1,1 35,20 -2,0 -1,-1 0,-2 1,-1 2,0 1,1 0,2 -1,1 -35,-20Z"/>
<path onmouseover="hoverPath(evt)" onmouseout="recoverPath(evt)" fill="rgb(251,251,249)" d="M  112,68l -1,0 -1,1 -1,1 0,1 1,1 0,1 1,1 0,2 -1,1 1,1 0,1 1,1 0,1 2,0 1,1 1,1 0,1 1,1 0,2 1,-1 0,-1 1,-1 2,0 1,-1 1,0 1,-1 2,0 -5,1 -4,0 -1,-1 0,-1 -1,-1 0,-1 -1,-1 0,-1 -1,-1 -1,-1 0,-2 -1,-1 0,-2 1,-1 0,-1 1,-1 1,1 1,0 1,-1 1,0 1,-1 1,0 1,-1 3,0 1,1 0,-2 1,-1 1,0 1,-1 2,0 1,-1 2,0 1,1 0,-2 1,-1 1,0 1,-1 2,0 1,-1 2,0 1,1 0,-2 1,-1 1,0 1,-1 2,0 1,-1 2,0 1,1 0,-2 1,-1 1,0 1,-1 2,0 1,-1 1,0 1,-1 1,0 1,-1 1,0 1,-1 3,0 1,1 0,-1 1,-1 3,0 1,1 0,-3 1,-1 1,-1 3,0 1,1 0,-2 1,-1 1,0 1,-1 2,0 1,-1 1,0 1,-1 1,0 1,-1 2,0 1,-1 2,0 1,1 0,-2 1,-1 1,0 1,-1 2,0 1,-1 2,0 1,1 0,-2 1,-1 1,0 1,-1 2,0 1,-1 2,0 1,1 0,-2 1,-1 1,0 1,-1 2,0 1,-1 2,0 1,1 0,-2 1,-1 3,0 1,1 1,1 1,1 0,1 1,1 0,2 -1,1 2,0 1,1 1,1 0,1 1,1 0,1 1,1 0,1 1,1 1,1 0,2 -1,1 2,0 1,1 1,1 0,1 1,1 0,1 1,1 0,1 1,1 1,1 0,2 -1,1 2,0 1,1 1,1 0,1 1,1 0,1 1,1 0,1 1,1 1,1 0,2 -1,1 2,0 1,1 1,1 0,1 1,1 0,1 1,0 0,-5 -2,0 -1,-1 0,-1 -1,-1 -1,-1 0,-1 -1,-1 0,-1 -1,-1 -1,-1 0,-1 -1,-1 0,-1 -1,-1 0,-1 -1,-1 -1,-1 0,-1 -1,-1 0,-1 -1,-1 -1,-1 0,-1 -1,-1 0,-1 -1,-1 0,-1 -1,-1 -1,-1 0,-1 -1,-1 0,-1 -1,-1 -1,-1 0,-1 -1,-1 0,-1 -1,-1 0,-1 -1,-1 -1,-1 0,-1 -1,-1 0,-2 1,-1 0,-1 1,-1 1,0 1,-1 1,0 1,-1 1,0 1,-1 2,0 1,-1 1,0 1,-1 1,0 1,-1 1,0 1,-1 2,0 1,-1 1,0 1,-1 1,0 1,-1 3,0 0,-2 -1,0 -1,1 -2,0 -1,1 -1,0 -1,1 -1,0 -1,1 -1,0 -1,1 -1,0 -1,1 -2,0 -1,1 -1,0 -1,1 -1,0 -1,1 -1,0 -1,1 -2,0 -1,1 -1,0 -1,1 -2,0 -1,-1 -1,-1 -1,-1 0,4 -1,1 -1,0 -1,1 -2,0 -1,-1 0,2 -1,1 -1,0 -1,1 -2,0 -1,1 -2,0 -1,-1 0,2 -1,1 -1,0 -1,1 -2,0 -1,1 -2,0 -1,-1 0,2 -1,1 -1,0 -1,1 -2,0 -1,1 -2,0 -1,-1 0,2 -1,1 -1,0 -1,1 -2,0 -1,1 -1,0 -1,1 -1,0 -1,1 -2,0 -1,1 -2,0 -1,-1 0,2 -1,1 -1,0 -1,1 -1,0 -1,1 -2,0 -1,1 -2,0 -1,-1 0,2 -1,1 -1,0 -1,1 -2,0 -1,1 -1,0 -1,1 -1,0 -1,1 -1,0 -1,1 -3,0 -1,-1 0,2 -1,1 -1,0 -1,1 -2,0 -1,1 -2,0 -1,-1 0,2 -1,1 -1,0 -1,1 -2,0 -1,1 -2,0 -1,-1 0,2 -1,1 -1,0 -1,1 -2,0 -1,1 -2,0 -1,-1 0,2 -1,1 -1,0 -1,1 -2,0 -1,1 -1,0 -1,1 110,-54 1,-1 0,0 -1,-1 0,-1 -1,-1 0,-1 -1,-1 -1,-1 0,-1 -1,-1 0,-1 -1,-1 0,-3 -2,0 0,2 1,1 0,2 -1,1 2,0 1,1 1,1 0,1 1,1 0,1 1,1 1,1 0,1 -110,54Z"/>
<path onmouseover="hoverPath(evt)" onmouseout="recoverPath(evt)" fill="rgb(243,242,232)" d="M  232,19l -1,0 0,1 -1,1 1,1 0,1 1,1 1,1 0,1 1,1 0,1 1,1 0,1 1,1 1,1 0,1 1,1 0,1 1,1 1,1 0,1 1,1 0,1 1,1 0,1 1,1 1,1 0,1 1,1 0,1 1,1 1,1 0,1 1,1 0,1 1,1 0,1 1,1 1,1 0,1 1,1 0,1 1,1 1,1 0,1 1,0 0,-53 -2,0 -1,1 -1,0 -1,1 -1,0 -1,1 -2,0 -1,1 -1,0 -1,1 -1,0 -1,1 -1,0 -1,1 -2,0 -1,1 -1,0 -1,1 -1,0 -1,1Z"/>
<path onmouseover="hoverPath(evt)" onmouseout="recoverPath(evt)" fill="rgb(243,242,234)" d="M  0,153l 0,19 3,0 1,-1 2,0 1,-1 3,0 1,-1 3,0 1,-1 2,0 1,-1 3,0 1,-1 3,0 1,-1 2,0 1,-1 4,0 1,-1 3,0 1,-1 3,0 1,-1 4,0 1,-1 3,0 1,-1 3,0 1,-1 3,0 1,-1 4,0 1,-1 3,0 -1,-1 0,-2 -1,-1 0,-1 -1,-1 0,-2 -1,-1 0,-1 -1,-1 0,-2 -1,-1 0,-1 -1,-1 0,-1 -1,-1 0,-1 -5,0 -1,1 -2,0 -1,1 -3,0 -1,1 -2,0 -1,1 -3,0 -1,1 -2,0 -1,1 -3,0 -1,1 -2,0 -1,1 -3,0 -1,1 -3,0 -1,1 -2,0 -1,1 -3,0 -1,1 -2,0 -1,1 -3,0 -1,1 -2,0 -1,1 -3,0 -1,1Z"/>
<path onmouseover="hoverPath(evt)" onmouseout="recoverPath(evt)" fill="rgb(170,198,237)" d="M  0,213l 0,2 1,0 1,-1 3,0 1,-1 1,0 1,-1 2,-2 1,0 3,-3 2,0 1,-1 1,0 1,-1 2,0 1,-1 1,0 1,-1 3,0 1,-1 2,0 1,-1 2,0 1,-1 2,0 2,-2 1,0 3,-3 1,0 1,-1 1,0 1,-1 2,0 1,-1 2,0 1,-1 1,0 1,-1 1,0 1,-1 1,0 1,-1 3,0 1,-1 7,0 1,-1 2,0 1,-1 6,0 1,1 1,1 0,1 1,1 0,1 1,1 0,2 1,1 0,1 1,1 0,1 1,1 0,2 1,1 0,1 1,1 0,2 1,1 0,1 1,1 0,2 1,1 0,1 1,1 0,2 1,1 0,1 1,1 0,1 1,1 0,2 1,1 0,1 1,1 0,3 1,1 1,-1 1,0 0,-3 -1,-1 0,-1 -1,-1 0,-1 -1,-1 0,-2 -1,-1 0,-1 -1,-1 0,-2 -1,-1 0,-1 -1,-1 0,-2 -1,-1 0,-1 -1,-1 0,-2 -1,-1 0,-1 -1,-1 0,-1 -1,-1 0,-2 -1,-1 0,-1 -1,-1 0,-2 -1,-1 0,-1 -1,-1 0,-3 1,-1 0,-1 1,-1 1,-1 2,0 0,-2 -2,0 -1,1 -2,0 -1,-1 -1,0 -1,-1 0,-1 -1,-1 0,-1 -1,-1 0,-2 -1,-1 0,-1 -1,-1 0,-2 -1,-1 0,-2 -1,-1 0,-2 -1,-1 -1,0 -1,1 0,3 1,1 0,2 1,1 0,1 1,1 0,2 1,1 0,2 1,1 0,4 -1,1 -1,0 -1,1 -1,0 -1,1 -1,0 -1,1 -2,0 -1,1 -8,0 -1,1 -2,0 -1,1 -1,0 -1,1 -1,0 -1,1 -1,0 -1,1 -3,0 -1,1 -2,0 -1,1 -1,0 -1,1 -1,0 -1,1 -1,1 -1,1 -1,1 -1,1 -1,0 -1,1 -2,0 -1,1 -3,0 -1,1 -3,0 -1,1 -2,0 -1,1 -1,0 -1,1 -1,0 -1,1 -2,0 -1,1 -1,0 -3,3 -1,1 -1,0 -1,1 -1,0 -1,1 -1,0 -1,1Z"/>
<path onmouseover="hoverPath(evt)" onmouseout="recoverPath(evt)" fill="rgb(172,198,236)" d="M  10,1l 0,1 1,1 0,1 1,1 0,2 1,1 0,2 1,1 0,2 1,1 0,1 1,1 0,2 1,1 0,2 1,1 0,2 1,1 0,2 1,1 0,1 1,1 0,2 1,1 0,2 1,1 0,2 1,1 0,2 1,1 0,1 1,1 0,2 1,1 0,2 1,1 0,1 1,1 0,2 1,1 0,1 1,1 0,2 1,1 0,2 1,1 0,1 1,1 0,2 1,1 0,1 1,1 0,2 1,1 0,1 1,1 0,2 1,1 0,1 1,1 0,1 1,1 0,2 1,1 1,1 0,3 1,1 0,1 1,1 0,1 1,1 0,1 1,1 0,2 1,1 0,1 1,1 0,2 1,1 0,2 1,1 0,1 1,1 0,2 1,1 0,2 1,1 0,2 1,1 0,2 1,1 0,2 1,1 0,2 1,1 0,2 -1,1 -1,1 -1,0 -1,1 -2,0 -1,1 -2,0 -1,1 -3,0 -1,1 -2,0 -1,1 -2,0 -1,1 -3,0 -1,1 -2,0 -1,1 -3,0 -1,1 -2,0 -1,1 -3,0 -1,1 -2,0 -1,1 -2,0 -1,1 -3,0 -1,1 -2,0 -1,1 -2,0 -1,1 -4,0 0,3 3,0 1,-1 2,0 1,-1 3,0 1,-1 2,0 1,-1 3,0 1,-1 2,0 1,-1 3,0 1,-1 3,0 1,-1 2,0 1,-1 3,0 1,-1 2,0 1,-1 3,0 1,-1 2,0 1,-1 3,0 1,-1 2,0 1,-1 7,0 1,1 0,1 1,1 0,1 1,1 0,1 1,1 0,2 1,1 0,1 1,1 0,2 1,1 0,1 1,1 0,2 1,1 1,0 1,-1 2,0 -1,-1 0,0 -1,-1 -1,-1 0,-2 -1,-1 0,-1 -1,-1 0,-2 -1,-1 0,-2 -1,-1 0,-1 -1,-1 0,-1 -1,-1 0,-2 -1,-1 0,-1 -1,-1 0,-2 -1,-1 0,-2 -1,-1 0,-1 -1,-1 0,-2 -1,-1 0,-2 -1,-1 0,-2 -1,-1 0,-3 -1,-1 0,-1 -1,-1 0,-2 -1,-1 0,-2 -1,-1 0,-2 -1,-1 -1,-1 0,-2 -1,-1 -1,-1 0,-4 -1,-1 0,-2 -1,-1 0,-2 -1,-1 -1,-1 0,-3 -1,-1 0,-2 -1,-1 0,-2 -1,0 -1,-1 0,-1 -1,-1 0,-1 -1,-1 0,-2 -1,-1 0,-2 -1,-1 0,-1 -1,-1 0,-2 -1,-1 0,-2 -1,-1 0,-1 -1,-1 0,-2 -1,-1 0,-2 -1,-1 0,-2 -1,-1 0,-2 -1,-1 0,-2 -1,-1 0,-1 -1,-1 0,-2 -1,-1 0,-2 -1,-1 0,-2 -1,-1 0,-1 -1,-1 0,-2 -1,-1 0,-2 -1,-1 0,-1 -1,-1 0,-2 -1,-1 0,-2 -1,-1 0,-1 -1,-1 0,-2 -1,-1 0,-1 -1,-1 0,-3 -3,0 -1,1Z"/>
<path onmouseover="hoverPath(evt)" onmouseout="recoverPath(evt)" fill="rgb(242,241,235)" d="M  0,117l 0,28 3,0 1,-1 2,0 1,-1 2,0 1,-1 3,0 1,-1 2,0 1,-1 2,0 1,-1 3,0 1,-1 2,0 1,-1 3,0 1,-1 2,0 1,-1 3,0 1,-1 2,0 1,-1 2,0 1,-1 3,0 1,-1 2,0 1,-1 2,0 1,-1 1,0 1,-1 -1,-1 0,-2 -1,-1 0,-2 -1,-1 0,-2 -1,-1 0,-2 -1,-1 0,-2 -1,-1 0,-2 -1,-1 0,-1 -1,-1 0,-2 -1,-1 0,-2 -1,-1 0,-1 -1,-1 0,-2 -1,-1 0,-1 -1,-1 0,-1 -1,-1 0,-1 -1,-1 0,-3 -1,-1 -1,-1 0,-2 -1,-1 0,-1 -1,-1 0,-1 -1,-1 0,-2 -1,-1 0,-1 -1,-1 0,-2 -1,-1 0,-1 -1,-1 0,-2 -1,-1 0,-1 -1,-1 0,-2 -1,-1 0,-2 -1,-1 0,-1 -1,-1 0,-2 -1,-1 0,-1 -1,-1 0,-2 -1,-1 0,-2 -1,-1 0,-1 -1,-1 0,-2 -1,-1 0,-2 -1,-1 0,-2 -1,-1 0,-2 -1,-1 0,-1 -1,-1 0,-2 -1,-1 0,-2 -1,-1 0,-2 -1,-1 0,-2 -1,-1 0,-1 -1,-1 0,-2 -1,-1 0,-2 -1,-1 0,-2 -1,-1 0,-1 -1,-1 0,-3 -8,0Z"/>
<path onmouseover="hoverPath(evt)" onmouseout="recoverPath(evt)" fill="rgb(244,243,235)" d="M  63,112l -2,0 0,2 1,1 0,2 1,1 0,1 1,1 0,1 1,1 0,3 1,1 0,2 1,1 1,1 0,3 1,1 0,1 1,1 0,1 1,1 0,2 1,1 1,1 0,3 1,1 0,1 1,1 0,1 1,1 0,1 2,0 1,1 2,0 1,-1 4,0 1,-1 5,0 1,-1 4,0 1,-1 4,0 1,-1 4,0 1,-1 4,0 1,-1 4,0 1,-1 2,0 1,-1 3,0 1,-1 3,0 1,-1 2,0 1,-1 2,0 1,-1 4,0 1,-1 8,0 1,-1 7,0 1,-1 7,0 1,-1 4,0 1,-1 5,0 1,-1 4,0 1,-1 4,0 1,-1 3,0 1,-1 4,0 1,-1 3,0 1,-1 3,0 1,-1 3,0 1,-1 2,0 1,-1 2,0 1,-1 1,0 0,-2 -1,-1 0,-1 -1,-1 0,-1 -1,-1 0,-2 1,-1 -1,-1 -2,0 -1,-1 0,-1 -1,-1 0,-1 -1,-1 -1,-1 0,-1 -1,-1 0,-1 -1,-1 0,-1 -1,-1 -1,-1 0,-1 -1,-1 -1,-1 0,-1 -1,-1 0,-1 -1,-1 0,-1 -1,-1 0,-1 -1,-1 0,-1 -1,-1 -1,-1 0,-1 -1,-1 0,-1 -1,-1 0,-1 -1,-1 -1,-1 0,-1 -1,-1 0,-1 -1,-1 -1,-1 0,-1 -1,-1 0,-1 -1,-1 0,-1 -1,-1 0,-1 -1,-1 -1,-1 -1,-1 0,-1 -1,-1 0,-1 -1,-1 -1,-1 0,-1 -1,-1 0,-2 1,-1 -1,-1 -2,0 -1,-1 -1,-1 0,-1 -1,-1 -1,-1 0,-1 -1,0 0,1 -1,1 -2,0 -1,-1 -1,0 -1,1 -1,0 -1,1 -1,0 -1,1 -1,0 -1,1 -2,0 -1,1 -1,0 0,2 -1,1 -2,0 -1,-1 -1,1 -2,0 -1,1 -1,0 0,2 -1,1 -2,0 -1,-1 -1,1 -2,0 -1,1 -1,0 0,2 -1,1 -2,0 -1,-1 -1,1 -2,0 -1,1 -1,0 0,2 -1,1 -2,0 -1,-1 -1,0 -1,1 -1,0 -1,1 -1,0 -1,1 -1,0 -1,1 -1,0 1,1 0,2 1,1 1,1 0,1 1,1 0,1 1,1 0,1 4,0 1,-1 4,0 1,1 0,2 -1,1 -2,0 -1,1 -1,0 -1,1 -2,0 0,1 -1,1 -1,1 0,1 -1,1 -1,1 -1,1 -1,0 -1,1 -1,0 -1,1 -1,0 -1,1 -1,1 -1,0 -1,1 -3,0 -1,1 -1,0 -1,1 -2,0 -1,1 -3,0 -1,-1 -1,0 -1,1 -2,0 -1,1 -3,0 0,2 -1,1 -1,0 -1,1 -4,0 -1,-1 -1,0 0,2 -1,1 -2,0 -1,1 -2,0 -1,1 -2,0 -1,1 -2,0 -1,1Z"/>
<path onmouseover="hoverPath(evt)" onmouseout="recoverPath(evt)" fill="rgb(173,199,235)" d="M  70,245l -2,2 0,8 4,0 0,-7 1,-1 1,-1 1,0 1,-1 2,0 1,-1 2,0 1,-1 3,0 1,-1 2,0 1,-1 2,0 1,-1 3,0 1,-1 5,0 1,1 1,1 0,1 1,1 0,2 1,1 0,1 1,1 0,2 1,1 0,4 4,0 0,-2 -1,-1 0,-1 -1,-1 0,-2 -1,-1 0,-1 -1,-1 0,-1 -1,-1 0,-2 -1,-1 0,-2 -1,-1 0,-1 -1,-1 0,-1 -2,0 -1,1 -2,0 -1,1 -2,0 -1,1 -2,0 -1,1 -3,0 -1,1 -2,0 -1,1 -2,0 -1,1 -2,0 -1,1 -2,0 -1,1 -3,0 -2,2Z"/>
<path onmouseover="hoverPath(evt)" onmouseout="recoverPath(evt)" fill="rgb(170,198,237)" d="M  96,177l -2,0 -1,1 -2,0 0,2 1,0 1,-1 2,0 1,-1 0,-1 3,-1 0,1 2,0 1,-1 2,0 1,-1 2,0 1,-1 2,0 1,-1 3,0 1,-1 1,0 1,-1 2,0 1,-1 2,0 1,-1 2,0 1,-1 3,0 1,-1 2,0 1,-1 2,0 1,-1 2,0 1,-1 3,0 1,-1 2,0 1,-1 2,0 1,-1 3,0 1,-1 2,0 1,-1 3,0 1,-1 2,0 1,-1 3,0 1,-1 5,0 1,-1 7,0 1,1 1,1 1,1 0,10 -1,1 0,7 -1,1 0,5 -1,1 0,2 -1,1 0,1 -1,1 0,1 -1,1 0,7 1,1 1,1 0,1 1,1 1,1 1,1 1,1 0,1 1,1 1,1 1,1 1,1 1,1 0,1 1,1 1,1 1,1 1,1 0,1 1,1 1,1 1,1 1,1 0,1 1,1 1,1 1,1 1,1 1,1 2,0 0,-1 -1,-1 0,0 -1,-1 -1,-1 -1,-1 0,-1 -1,-1 -1,-1 -1,-1 -1,-1 -1,-1 0,-1 -1,-1 -1,-1 -1,-1 -1,-1 -1,-1 0,-1 -1,-1 -1,-1 -1,-1 -1,-1 -1,-1 0,-1 -1,-1 -1,-1 -1,-1 0,-1 -1,-1 0,-6 1,-1 0,-1 1,-1 0,-1 1,-1 0,-3 1,-1 0,-5 1,-1 0,-7 1,-1 0,-8 1,-1 0,-4 -1,-1 -1,-1 -12,0 -1,1 -4,0 -1,1 -4,0 -1,1 -3,0 -1,1 -2,0 -1,1 -2,0 -1,1 -3,0 -1,1 -2,0 -1,1 -2,0 -1,1 -2,0 -1,1 -3,0 -1,1 -2,0 -1,1 -2,0 -1,1 -2,0 -1,1 -3,0 -1,1 -2,0 -1,1 -2,0 -1,1 -2,0 -1,1 -2,0 -1,1 -2,0 -1,1 -2,0 -1,1 -2,0 -1,1 -1,0 -1,1 -3,1Z"/>
<path onmouseover="hoverPath(evt)" onmouseout="recoverPath(evt)" fill="rgb(244,243,235)" d="M  177,44l -1,-1 -1,0 -1,1 0,2 1,1 0,2 -1,1 1,1 2,0 1,1 1,1 0,2 -1,1 1,1 0,1 1,1 1,1 0,1 1,1 0,1 1,1 1,1 2,0 1,1 0,1 1,1 0,2 -1,1 1,1 0,1 1,1 2,0 1,1 0,2 -1,1 1,1 2,0 1,1 0,1 1,1 0,2 -1,1 1,1 2,0 1,1 0,1 1,1 0,2 -1,1 1,1 0,1 1,1 0,1 1,1 1,1 0,1 1,1 2,0 1,1 0,2 -1,1 1,1 0,1 1,1 2,0 1,1 0,1 1,1 0,1 1,1 1,1 0,1 1,1 0,1 1,1 0,1 1,1 1,1 0,1 1,1 1,1 1,-1 3,0 1,-1 2,0 1,-1 2,0 1,-1 2,0 1,-1 1,0 1,-1 2,0 1,-1 2,0 1,-1 2,0 1,-1 1,0 1,-1 2,0 1,-1 2,0 1,-1 2,0 0,-40 -2,0 -1,-1 0,-1 -1,-1 0,-1 -1,-1 -2,0 -1,-1 0,-2 1,-1 -1,-1 0,0 -1,-1 0,-1 -1,-1 0,-1 -1,-1 0,-1 -1,-1 -2,0 -1,-1 0,-2 1,-1 -1,-1 0,0 -1,-1 0,-1 -1,-1 0,-1 -1,-1 0,-1 -1,-1 -2,0 -1,-1 0,-2 1,-1 -1,-1 -1,-1 0,-1 -1,-1 0,-1 -1,-1 0,-1 -1,-1 -2,0 -1,-1 0,-2 1,-1 -1,-1 0,-1 -1,-1 -1,-1 -1,0 0,2 -1,1 -2,0 -1,-1 -1,1 -2,0 -1,1 -1,0 0,2 -1,1 -2,0 -1,-1 -1,1 -2,0 -1,1 -1,0 0,2 -1,1 -2,0 -1,-1 -1,1 -2,0 -1,1 -1,0 0,2 -1,1 -2,0 -1,-1 -1,1 -2,0 -1,1 -1,0 -1,1 -1,0 -1,1 -2,0 -1,1 -1,0 0,2 -1,1Z"/>
<path onmouseover="hoverPath(evt)" onmouseout="recoverPath(evt)" fill="rgb(244,243,235)" d="M  209,229l 0,0 1,1 0,1 1,1 1,1 1,1 0,1 1,1 1,1 1,1 0,1 1,1 1,1 1,1 0,1 1,1 1,1 1,1 1,1 0,1 1,1 1,1 0,1 1,1 0,1 1,1 0,1 28,0 0,-36 -2,0 -1,-1 0,-1 -1,-1 -1,-1 0,-1 -1,-1 -2,0 -1,-1 -1,-1 0,-2 -1,1 -2,0 -1,1 -1,0 -1,1 -1,0 -1,1 -1,0 -1,1 -1,0 -1,1 -1,0 -1,1 -1,0 -1,1 -1,0 -1,1 -1,0 -1,1 -1,0 -1,1 -1,0 -1,1 -1,0 -1,1 -1,0 -1,1 -1,0 -1,1 -1,1 -1,0 -1,1 -1,0 -1,1 -2,0 -1,-1 0,2 1,0 1,1Z"/>
<path onmouseover="hoverPath(evt)" onmouseout="recoverPath(evt)" fill="rgb(244,243,235)" d="M  0,218l 0,37 16,0 0,-2 1,-1 3,0 1,-1 3,0 1,-1 3,0 1,-1 2,0 1,-1 3,0 1,-1 3,0 1,-1 2,0 1,-1 3,0 1,-1 2,0 1,-1 3,0 1,-1 2,0 1,-1 3,0 1,-1 3,0 1,-1 2,0 1,-1 3,0 1,-1 2,0 1,-1 2,0 1,-1 2,0 1,-1 3,0 1,-1 2,0 1,-1 2,0 1,-1 2,0 1,-1 2,0 -1,-1 0,-3 -1,-1 0,-1 -1,-1 0,-2 -1,-1 0,-1 -1,-1 0,-1 -1,-1 0,-2 -1,-1 0,-1 -1,-1 0,-2 -1,-1 0,-1 -1,-1 0,-2 -1,-1 0,-1 -1,-1 0,-2 -1,-1 0,-1 -1,-1 0,-1 -1,-1 0,-2 -1,-1 0,-1 -1,-1 0,-1 -1,-1 -4,0 -1,1 -2,0 -1,1 -7,0 -1,1 -3,0 -1,1 -1,0 -1,1 -1,0 -1,1 -1,0 -1,1 -2,0 -1,1 -2,0 -1,1 -1,0 -1,1 -1,0 -1,1 -1,1 -1,1 -1,0 -1,1 -1,1 -2,0 -1,1 -2,0 -1,1 -2,0 -1,1 -3,0 -1,1 -1,0 -1,1 -2,0 -1,1 -1,0 -1,1 -2,0 -1,1 -1,1 -1,1 -1,0 -1,1 -1,1 -1,1 -1,0 -1,1 -3,0 -1,1 -1,0 -1,1Z"/>
<path onmouseover="hoverPath(evt)" onmouseout="recoverPath(evt)" fill="rgb(240,239,228)" d="M  40,255l 26,0 0,-9 1,-1 1,-1 -1,0 -1,1 -3,0 -1,1 -2,0 -1,1 -3,0 -1,1 -2,0 -1,1 -3,0 -1,1 -3,0 -1,1 -2,0 -1,1 -3,0 -1,1 -2,0 -1,1 -3,0 0,1Z"/>
<path onmouseover="hoverPath(evt)" onmouseout="recoverPath(evt)" fill="rgb(242,241,234)" d="M  50,90l 0,3 1,1 1,1 0,2 1,1 1,1 0,2 1,1 0,2 1,1 0,2 1,1 0,1 1,1 0,3 1,1 0,2 1,1 0,2 1,1 0,2 1,1 0,1 1,1 0,2 1,1 0,2 1,1 0,1 1,1 0,2 1,1 0,1 1,1 0,1 1,1 0,2 1,1 0,2 1,1 0,1 1,1 0,2 1,1 1,1 0,-1 -1,-1 0,-1 -1,-2 -1,-2 0,-2 -1,-1 0,0 -1,-3 -1,-2 -1,-2 -1,-3 0,-1 -1,-1 -1,-3 -1,-3 0,-1 -1,-1 0,-1 -1,-2 -1,-3 -1,-3 0,-2 1,-1 2,0 1,-1 2,0 1,-1 2,0 1,-1 2,0 1,-1 2,0 0,-2 1,-1 3,0 1,1 2,0 1,-1 1,0 0,-2 1,-1 3,0 1,-1 2,0 1,-1 3,0 1,1 1,0 1,-1 2,0 1,-1 1,0 1,-1 3,0 1,-1 1,0 1,-1 0,-2 1,-1 2,0 1,1 1,-1 1,0 2,-2 -1,-1 0,-2 -1,-1 0,-1 -1,-1 -2,0 -1,-1 0,-1 -1,-1 0,-1 -1,-1 0,-2 1,-1 -1,-1 0,-1 -1,-1 0,-3 1,-1 1,-1 1,-1 1,0 1,-1 1,0 1,-1 2,0 1,-1 1,0 0,-2 1,-1 2,0 1,1 1,-1 2,0 1,-1 1,0 0,-2 1,-1 2,0 1,1 1,-1 2,0 1,-1 1,0 0,-2 1,-1 2,0 1,1 1,-1 2,0 1,-1 1,0 0,-2 1,-1 2,0 1,1 1,0 1,-1 1,0 1,-1 1,0 1,-1 1,0 1,-1 2,0 1,-1 1,0 0,-2 1,-1 2,0 1,1 1,-1 2,0 1,-1 1,0 1,-1 1,0 0,-2 1,-1 2,0 1,1 1,-1 2,0 1,-1 1,0 1,-1 1,0 1,-1 2,0 1,-1 1,0 0,-2 1,-1 2,0 1,1 1,-1 2,0 1,-1 1,0 0,-2 1,-1 2,0 1,1 1,-1 2,0 1,-1 1,0 0,-2 1,-1 2,0 1,1 1,-1 2,0 1,-1 1,0 0,-2 1,-1 2,0 1,1 1,-1 1,0 0,-1 -1,-1 0,-1 -1,-1 -1,-1 0,-1 -1,-1 0,-1 -1,-1 -2,0 -1,-1 0,-2 1,-1 -1,-1 0,-3 -197,0 0,2 1,1 0,1 1,1 0,2 1,1 0,1 1,1 0,2 1,1 0,2 1,1 0,1 1,1 0,2 1,1 0,2 1,1 0,1 1,1 0,2 1,1 0,2 1,1 0,2 1,1 0,1 1,1 0,2 1,1 0,2 1,1 0,2 1,1 0,2 1,1 0,2 1,1 0,1 1,1 0,2 1,1 0,2 1,1 0,1 1,1 0,2 1,1 0,2 1,1 0,1 1,1 0,1 1,0 1,1 0,2 1,1 0,2 1,1 0,3 1,1 1,1 0,2 1,1 0,2 1,1Z"/>
<path onmouseover="hoverPath(evt)" onmouseout="recoverPath(evt)" fill="rgb(244,243,235)" d="M  105,234l 0,0 1,1 0,1 1,1 0,2 1,1 0,2 1,1 0,1 1,1 0,1 1,1 0,2 1,1 0,1 1,1 0,3 81,0 0,-1 -2,0 -1,-1 0,-1 -1,-1 -1,-1 0,-2 1,-1 -1,-1 0,0 -1,-1 0,-1 -1,-1 -1,-1 0,-1 -1,-1 -1,-1 0,-1 -1,-1 -2,0 -1,-1 0,-2 1,-1 -1,-1 -1,-1 0,-1 -1,-1 -1,-1 0,-1 -1,-1 -1,-1 0,-1 -1,-1 -1,-1 0,-1 -1,-1 -1,-1 0,-1 -1,-1 -1,-1 0,-1 -1,-1 -1,-1 -1,-1 -1,0 -1,1 -2,0 -1,1 -1,0 -1,1 -2,0 -1,1 -2,0 -1,1 -1,0 -1,1 -2,0 -1,1 -2,0 -1,1 -2,0 -1,1 -2,0 -1,1 -2,0 -1,1 -2,0 -1,1 -3,0 -1,1 -2,0 -1,1 -2,0 -1,1 -2,0 -1,1 -2,0 -1,1 -2,0 -1,1 -2,0 -1,1 -2,0 -1,1 -3,0Z"/>
<path onmouseover="hoverPath(evt)" onmouseout="recoverPath(evt)" fill="rgb(241,240,230)" d="M  238,10l 0,0 1,-1 2,0 1,-1 1,0 1,-1 1,0 1,-1 1,0 1,-1 1,0 1,-1 2,0 1,-1 2,0 0,-3 -36,0 0,2 1,1 0,1 1,1 0,1 1,1 1,1 0,1 1,1 0,1 1,1 0,1 1,1 1,1 1,-1 1,0 1,-1 2,0 1,-1 1,0 1,-1 1,0 1,-1Z"/>
<path onmouseover="hoverPath(evt)" onmouseout="recoverPath(evt)" fill="rgb(253,253,253)" d="M  0,175l 0,1 2,0 1,-1 1,0 1,-1 5,0 1,1 0,1 1,1 0,-4 1,-1 2,0 1,-1 2,0 1,-1 3,0 1,-1 3,0 1,-1 3,0 1,-1 3,0 1,-1 3,0 1,-1 4,0 1,-1 4,0 1,-1 2,0 1,-1 3,0 1,-1 3,0 1,-1 4,0 1,-1 6,0 1,-1 2,0 1,-1 1,-1 3,0 1,-1 2,0 1,-1 4,0 1,-1 5,0 1,-1 4,0 1,-1 4,0 1,-1 4,0 1,-1 5,0 1,-1 3,0 1,-1 3,0 1,-1 2,0 1,-1 3,0 1,-1 2,0 1,-1 2,0 1,-1 4,0 1,-1 9,0 1,-1 7,0 1,-1 6,0 1,-1 5,0 1,-1 4,0 1,-1 5,0 1,-1 3,0 1,-1 3,0 1,-1 4,0 1,-1 3,0 1,-1 3,0 1,-1 4,0 1,1 1,0 1,-1 0,-1 1,-1 2,0 1,-1 4,0 1,-1 2,0 1,-1 2,0 1,-1 2,0 1,-1 2,0 1,-1 2,0 1,-1 2,0 1,-1 2,0 1,-1 3,0 1,1 0,-2 1,-1 3,0 1,1 1,0 0,-2 1,-1 3,0 0,-2 -1,0 -1,1 -2,0 -1,1 -2,0 -1,1 -1,0 -1,1 -2,0 -1,1 -2,0 -1,1 -2,0 -1,1 -1,0 -1,1 -2,0 -1,1 -2,0 -1,1 -2,0 -1,1 -3,0 -1,1 -2,0 -1,-1 -1,-1 -1,-1 0,3 -1,1 -1,0 -1,1 -2,0 -1,1 -2,0 -1,1 -3,0 -1,1 -3,0 -1,1 -3,0 -1,1 -4,0 -1,1 -3,0 -1,1 -4,0 -1,1 -4,0 -1,1 -5,0 -1,1 -4,0 -1,1 -7,0 -1,1 -7,0 -1,1 -8,0 -1,1 -4,0 -1,1 -2,0 -1,1 -2,0 -1,1 -3,0 -1,1 -3,0 -1,1 -2,0 -1,1 -4,0 -1,1 -4,0 -1,1 -4,0 -1,1 -4,0 -1,1 -4,0 -1,1 -5,0 -1,1 -4,0 -1,1 -4,0 -1,-1 -1,0 -1,1 0,1 -1,1 -2,0 -1,1 -2,0 -1,1 -3,0 -1,1 -4,0 -1,1 -3,0 -1,1 -3,0 -1,1 -3,0 -1,1 -4,0 -1,1 -3,0 -1,1 -3,0 -1,1 -4,0 -1,1 -2,0 -1,1 -3,0 -1,1 -3,0 -1,1 -2,0 -1,1 -3,0 -1,1 -3,0 -1,1 -2,0 -1,1 -3,0 -1,1Z"/>
<path onmouseover="hoverPath(evt)" onmouseout="recoverPath(evt)" fill="rgb(253,253,252)" d="M  189,235l -3,0 -1,-1 0,-4 -2,0 -1,-1 -1,-1 0,-1 -1,-1 -1,-1 0,-1 -1,-1 -1,-1 0,-1 -1,-1 -1,-1 0,-1 -1,-1 -1,-1 0,-1 -1,-1 -1,-1 0,-1 -1,-1 -1,-1 -1,-1 -1,-1 -1,1 -4,0 -1,-1 0,2 -1,1 -2,0 -1,1 -3,0 -1,-1 0,2 -1,1 -2,0 -1,1 -2,0 -1,1 -2,0 -1,1 -1,0 -1,1 -3,0 -1,1 -5,0 -1,-1 0,2 -1,1 -1,0 -1,1 -2,0 -1,1 -2,0 -1,1 -2,0 -1,1 -2,0 -1,1 -3,0 -1,1 -2,0 -1,1 -2,0 -1,1 -2,0 -1,1 -3,0 -1,1 -1,0 -1,1 -2,0 -1,1 -2,0 -1,1 -2,0 -1,1 -2,0 -1,1 -3,0 -1,1 -2,0 -1,1 -2,0 -1,1 -2,0 -1,1 -3,0 -1,1 -2,0 -1,1 -3,0 -1,1 -3,0 -1,1 -2,0 -1,1 -3,0 -1,1 -2,0 -1,1 -3,0 -1,1 -2,0 -1,1 -3,0 -1,1 -3,0 -1,1 -2,0 -1,1 -3,0 -1,1 -3,0 -1,1 -3,0 0,1 11,0 0,-2 1,-1 3,0 1,-1 2,0 1,-1 3,0 1,-1 2,0 1,-1 3,0 1,-1 3,0 1,-1 2,0 1,-1 3,0 1,-1 2,0 1,-1 3,0 1,-1 4,0 1,-1 3,0 1,-1 2,0 1,-1 2,0 1,-1 2,0 1,-1 2,0 1,-1 3,0 1,-1 2,0 1,-1 2,0 1,-1 2,0 1,-1 3,0 0,-1 1,-1 3,0 1,-1 2,0 1,-1 2,0 1,-1 2,0 1,-1 2,0 1,-1 2,0 1,-1 2,0 1,-1 2,0 1,-1 3,0 1,-1 2,0 1,-1 2,0 1,-1 2,0 1,-1 2,0 1,-1 2,0 1,-1 2,0 1,-1 1,0 1,-1 2,0 1,-1 2,0 1,-1 1,0 1,-1 2,0 1,-1 3,0 1,1 1,1 1,1 1,1 0,1 1,1 1,1 0,1 1,1 1,1 0,1 1,1 1,1 0,1 1,1 1,1 0,1 1,1 1,1 0,1 1,1 1,1 0,2 -1,1 2,0 1,1 1,1 0,1 1,1 1,1 0,1 1,1 1,1 0,1 1,1 1,1 0,2 -1,1 1,1 0,0 1,1 0,1 2,0 1,1 0,2 2,0 0,-1 -1,-1 0,-1 -1,-1 -1,-1 0,-1 -1,-1 0,-1 -1,-1 -1,-1 0,-1 -1,-1 -1,-1 0,-1 -1,-1 0,-1 -1,-1 0,-2 1,-1Z"/>
<path onmouseover="hoverPath(evt)" onmouseout="recoverPath(evt)" fill="rgb(171,198,237)" d="M  205,231l 0,1 1,1 1,1 1,1 0,1 1,1 1,1 1,1 1,1 0,1 1,1 1,1 1,1 0,1 1,1 1,1 1,1 0,1 1,1 1,1 1,1 0,3 4,0 -1,-1 0,-1 -1,-1 0,-1 -1,-1 -1,-1 0,-1 -1,-1 -1,-1 -1,-1 -1,-1 0,-1 -1,-1 -1,-1 -1,-1 0,-1 -1,-1 -1,-1 -1,-1 0,-1 -1,-1 -1,-1 -1,-1 0,-1 -1,-1 -1,0 -1,1Z"/>
</svg>