<svg width="256" height="256" xmlns="http://www.w3.org/2000/svg"><script> 
var tempColor;
function hoverPath(evt){
obj = evt.target;
tempColor = obj.getAttribute("fill");
obj.setAttribute("fill","red");
//alert(tempColor);
//obj.setAttribute("stroke","red");}
function recoverPath(evt){
obj = evt.target;
obj.setAttribute("fill", tempColor);
//obj.setAttribute("stroke", tempColor);
}</script><path onmouseover="hoverPath(evt)" onmouseout="recoverPath(evt)" fill="rgb(241,240,229)" d="M  3,235l -3,0 0,13 60,0 1,-1 1,0 0,-6 1,-1 0,-8 1,-1 0,-3 -1,-1 -1,0 -1,1 -6,0 -1,1 -5,0 -1,1 -5,0 -1,1 -8,0 -1,1 -11,0 -1,1 -9,0 -1,1 -7,0 -1,1Z"/>
<path onmouseover="hoverPath(evt)" onmouseout="recoverPath(evt)" fill="rgb(246,236,142)" d="M  11,124l 0,4 -1,1 -1,1 -1,0 0,3 -1,1 -2,0 0,1 -1,1 -1,0 -1,1 -2,0 0,10 1,0 1,-1 1,-1 1,-1 1,-1 0,-2 1,-1 1,0 1,-1 1,-1 0,-2 1,-1 1,0 1,-1 1,-1 0,-1 1,-1 1,-1 3,0 1,-1 5,0 1,-1 8,0 1,-1 8,0 1,-1 8,0 1,-1 11,0 1,1 0,-1 1,-1 3,0 1,-1 7,0 1,-1 7,0 1,-1 7,0 1,-1 3,0 1,-1 2,0 1,1 0,1 1,1 1,0 1,1 1,1 1,1 1,1 1,1 1,1 1,1 1,1 -8,-9 0,-1 1,-1 6,0 1,-1 7,0 1,-1 8,0 1,-1 7,0 1,-1 4,0 1,1 0,5 -1,1 0,12 -1,1 0,10 -1,1 0,6 -1,1 0,10 -1,1 0,10 -1,1 0,9 -1,1 0,10 -1,1 0,2 1,1 0,4 -1,1 0,3 -1,1 0,6 1,1 0,4 -1,1 -1,0 0,7 -1,1 0,9 -1,1 0,12 -1,1 -7,0 -1,-1 -1,0 -1,1 -4,0 0,1 -1,1 0,2 21,0 0,-3 1,-1 0,-1 -1,0 -1,-1 0,-8 1,-1 0,-9 1,-1 0,-4 1,-1 1,0 0,-6 -1,-1 0,-4 1,-1 7,0 -6,-1 0,-6 1,-1 0,-1 -1,0 -1,-1 0,-3 1,-1 1,-1 0,-5 1,-1 0,-8 1,-1 0,-10 1,-1 0,-10 1,-1 0,-2 -1,-1 0,-4 1,-1 3,0 -2,-1 0,-11 1,-1 0,-10 1,-1 0,-10 1,-1 0,-3 1,-1 3,0 1,-1 6,0 1,-1 6,0 1,-1 5,0 1,-1 2,0 1,-1 1,0 1,-1 3,0 1,1 4,0 1,-1 7,0 1,-1 5,0 1,-1 5,0 1,-1 6,0 0,-1 1,-1 2,0 1,-1 3,0 1,1 1,0 1,-1 2,0 1,1 3,0 1,1 3,0 1,-1 6,0 0,-2 1,-1 5,0 1,-1 7,0 1,1 2,0 0,-9 -7,0 -1,1 -7,0 -1,1 -6,0 -1,1 -9,0 0,1 -1,1 -2,0 -1,-1 -1,-1 -1,-1 0,-9 -1,9 0,2 -1,1 -4,0 -1,1 -5,0 -1,1 -6,0 -1,1 -6,0 -1,1 -6,0 -1,1 -3,0 0,1 -1,1 -5,0 -1,-1 -1,-1 0,-3 1,-1 0,-2 -1,1 0,0 -1,1 -1,1 0,4 -1,1 -5,0 -1,1 -6,0 -1,1 -5,0 -1,1 -4,0 -1,1 -3,0 -1,-1 -1,1 -5,0 -1,1 -7,0 -1,1 -8,0 -1,1 -8,0 -1,1 -7,0 -1,1 -9,0 -1,1 -6,0 -1,1 -7,0 -1,1 -6,0 -1,-1 -1,0 0,1 -1,1 -7,0 -1,1 -8,0 -1,1 -8,0 -1,1 -10,0 -1,-1 0,-2 1,-1 0,-1 1,-1 1,-1 1,-1 0,-1 1,-1 1,0 1,-1 1,-1 1,-1 1,-1 1,-1 1,-1 1,-1 0,-1 1,-1 1,-1 1,-1 1,-1 0,-1 2,-2 0,-1 1,-1 0,-2 1,-1 1,0 0,-2 1,-1 1,0 0,-1 1,-1 1,-1 0,-1 1,-1 0,-1 1,-1 0,-1 1,-1 0,-2 1,-1 0,-1 1,-1 0,-2 1,-1 0,-1 1,-1 0,-2 1,-1 0,-2 1,-1 0,-3 1,-1 0,-9 1,-1 0,-7 -1,-1 0,-9 -1,0 -1,-1 0,-3 -1,-1 0,-4 1,-1 1,0 -1,-1 0,-2 -1,-1 0,-5 -1,0 -1,1 0,4 -1,1 -1,1 -1,1 -1,1 -2,0 0,1 1,1 0,4 1,1 0,6 1,1 0,17 -1,1 0,6 -1,1 0,2 -1,1 0,2 -1,1 0,2 -1,1 0,1 -1,1 0,1 -1,1 0,2 -1,1 0,1 -1,1 0,1 -1,1 0,1 -1,1 0,1 -1,1 0,1 -1,1 -1,1 0,1 -1,1 -1,1 -1,1 0,1 -1,1 -2,0 0,1 -1,1 0,3 -1,1 -1,0 -1,1 -1,1 -1,1 -1,1 -1,1 -1,1 0,1 -1,1 -1,1 0,1 -1,1 -2,0 0,1 -1,1 -1,0 0,2 -1,1 -1,1 -2,0 0,1 -1,1 0,2 -1,1 -2,0 0,1 -1,1 -1,0 0,2 57,-11 0,-3 1,-1 0,-1 -1,5 -57,11Z"/>
<path onmouseover="hoverPath(evt)" onmouseout="recoverPath(evt)" fill="rgb(244,242,234)" d="M  17,132l -1,0 -1,1 0,1 -1,1 -1,1 -1,1 -1,0 0,2 -1,1 -1,1 -1,1 -1,0 0,2 -1,1 -1,1 -1,1 -1,1 -1,1 -2,0 0,30 3,0 1,-1 0,0 -1,-1 0,-3 1,-1 1,0 1,-1 2,-2 1,-1 0,-2 1,-1 1,0 1,-1 2,0 0,-2 1,-1 0,-4 1,-1 0,-1 1,-1 1,0 0,-2 1,-1 11,0 1,-1 8,0 1,-1 7,0 0,-3 1,-1 0,-3 1,-1 1,0 0,-2 1,-1 2,0 1,1 1,-1 1,0 1,-1 1,0 1,-1 1,-1 0,-1 1,-1 1,-1 0,-1 1,-1 0,-2 -1,-1 0,-1 -9,0 -1,1 -8,0 -1,1 -8,0 -1,1 -8,0 -1,1 -5,0 -1,1Z"/>
<path onmouseover="hoverPath(evt)" onmouseout="recoverPath(evt)" fill="rgb(244,243,235)" d="M  67,32l 0,6 1,1 0,9 -1,1 0,9 -1,1 0,3 -1,1 0,2 -1,1 0,2 -1,1 0,1 -1,1 0,2 -1,1 0,1 -1,1 0,2 -1,1 0,1 -1,1 0,1 -1,1 0,1 -1,1 -1,1 0,1 -1,1 -1,0 0,2 -1,1 -1,0 0,2 -1,1 0,1 -1,1 -1,1 0,1 -1,1 -1,1 -1,1 -1,1 0,1 -1,1 -1,1 -1,1 -1,1 -1,1 -2,2 -1,1 -1,0 0,1 -1,1 -2,2 0,1 -1,1 8,0 1,-1 8,0 1,-1 8,0 1,-1 7,0 0,-1 1,-1 0,-3 1,-1 0,-1 1,-1 2,0 1,1 0,3 -1,1 0,2 4,0 1,-1 7,0 1,-1 6,0 1,-1 9,0 1,-1 7,0 1,-1 8,0 1,-1 8,0 1,-1 7,0 1,-1 5,0 1,-1 1,0 0,-3 -7,0 -1,-1 -6,0 -1,1 -6,0 -1,1 -7,0 -1,1 -6,0 -1,1 -7,0 -1,1 -5,0 -1,-1 -1,0 -1,-1 -1,0 -1,-1 0,-1 -1,-1 -1,-1 -1,-1 -1,-1 -1,-1 -1,-1 -1,-1 -4,0 -1,-1 -1,-1 0,-1 -1,-1 -1,0 -1,-1 -1,-1 -2,0 -1,-1 -1,0 -1,-1 0,-1 -1,-1 0,-3 1,-1 0,-1 2,-2 3,0 1,-1 36,0 1,-1 24,0 1,-1 16,0 1,-1 19,0 1,1 1,1 0,1 1,1 0,4 1,0 0,-11 -1,-1 0,-39 -1,-1 0,-29 -51,0 0,2 1,1 0,6 1,1 0,7 -1,1 0,3 -1,1 0,1 -1,1 0,1 -1,1 0,1 -1,1 0,1 -1,1 -1,1 0,1 -1,1 -1,1 -2,0 -1,1 -10,0 -1,-1 -8,0 -1,-1 -8,0 -1,-1 -7,0 -1,-1 -4,0 -1,1Z"/>
<path onmouseover="hoverPath(evt)" onmouseout="recoverPath(evt)" fill="rgb(240,238,227)" d="M  71,227l 0,0 -1,1 -1,0 0,6 -1,1 0,8 -1,1 0,9 -1,1 0,1 41,0 0,-3 1,-1 -19,0 -1,1 -2,0 -1,1 -2,0 -1,-1 0,-6 1,-1 1,-1 0,-3 1,-1 2,0 1,1 0,4 20,0 1,-1 1,0 1,-1 0,-3 1,-1 0,-5 -18,0 -1,1 -5,0 -1,-1 0,-2 1,-1 1,-1 26,0 1,1 1,1 0,5 -1,1 0,3 -1,1 0,2 1,1 10,0 0,-8 1,-1 0,-9 1,-1 0,-6 -5,0 -1,1 -7,0 -1,1 -8,0 -1,1 -9,0 -1,1 -9,0 -1,1 -8,0 -1,1 -4,0 -1,1Z"/>
<path onmouseover="hoverPath(evt)" onmouseout="recoverPath(evt)" fill="rgb(244,243,235)" d="M  182,216l 0,17 1,1 0,21 57,0 0,-5 1,-1 0,-8 1,-1 0,-7 1,-1 0,-6 1,-1 0,-7 1,-1 0,-7 1,-1 0,-2 -1,-1 -3,0 -1,1 -7,0 -1,1 -8,0 -1,1 -7,0 -1,1 -8,0 -1,1 -7,0 -1,1 -8,0 -1,1 -6,0 -1,1 -1,0Z"/>
<path onmouseover="hoverPath(evt)" onmouseout="recoverPath(evt)" fill="rgb(243,242,233)" d="M  0,1l 0,41 1,0 1,-1 1,0 1,-1 1,-1 1,-1 1,-1 0,-1 1,-1 0,-1 1,-1 0,-1 1,-1 0,-2 1,-1 0,-3 1,-1 0,-2 1,-1 0,-2 1,-1 0,-2 1,-1 0,-2 1,-1 0,-2 1,-1 0,-2 1,-1 0,-2 1,-1 0,-3 -18,0 -1,1Z"/>
<path onmouseover="hoverPath(evt)" onmouseout="recoverPath(evt)" fill="rgb(171,198,238)" d="M  0,213l 0,2 3,0 1,-1 2,0 1,-1 3,0 1,-1 2,0 1,-1 3,0 1,-1 9,0 1,-1 4,0 1,1 0,7 -1,1 0,6 -1,1 0,1 3,0 0,-8 1,-1 0,-2 1,-1 0,-5 1,-1 1,-1 3,0 1,-1 10,0 1,-1 14,0 1,-1 15,0 1,-1 9,0 1,-1 7,0 1,1 2,0 1,-1 15,0 1,1 6,0 1,-1 3,0 0,-2 -7,0 -1,-1 -22,0 -1,1 -16,0 -1,1 -12,0 -1,1 -2,0 -1,-1 -1,0 -1,1 -9,0 -1,1 -8,0 -1,1 -9,0 -1,1 -6,0 -1,1 -4,0 -1,1 -4,0 -1,1 -3,0 -1,1 -3,0 -1,1 -3,0 -1,1 -3,0 -1,1 -2,0 -1,1Z"/>
<path onmouseover="hoverPath(evt)" onmouseout="recoverPath(evt)" fill="rgb(253,253,253)" d="M  6,41l -2,2 -1,0 -1,1 -2,0 0,2 2,0 1,-1 0,0 1,-1 1,0 1,-1 1,0 1,-1 1,-1 1,-1 0,-2 1,-1 0,-1 1,-1 0,-2 1,-1 0,-2 1,-1 0,-2 1,-1 0,-2 1,-1 0,-2 1,-1 0,-2 1,-1 0,-2 1,-1 0,-2 1,-1 0,-3 1,-1 0,-1 1,-1 0,-3 1,-1 0,-1 -2,0 0,4 -1,1 0,2 -1,1 0,2 -1,1 0,2 -1,1 0,2 -1,1 0,2 -1,1 0,2 -1,1 0,2 -1,1 0,3 -1,1 0,2 -1,1 0,1 -1,1 0,1 -1,1 0,1 -1,1 -2,2Z"/>
<path onmouseover="hoverPath(evt)" onmouseout="recoverPath(evt)" fill="rgb(244,242,235)" d="M  31,45l 0,1 -1,1 -1,0 0,3 -1,1 -1,0 0,5 -1,1 0,7 -1,1 -2,0 0,8 -1,1 0,7 1,1 0,4 1,1 1,1 7,0 1,1 0,2 -1,1 -9,0 0,1 -1,1 0,7 -1,1 0,7 1,-2 2,0 0,-1 1,-1 1,-1 0,-1 2,-2 1,-1 1,-1 1,-1 1,-1 1,-1 1,0 0,-3 1,-1 0,-1 1,-1 2,0 0,-1 1,-1 1,-1 1,-1 0,-1 1,-1 1,-1 0,-1 1,-1 0,-1 1,-1 0,-1 1,-1 0,-1 1,-1 0,-1 1,-1 0,-2 1,-1 0,-1 1,-1 0,-1 1,-1 0,-2 1,-1 0,-2 1,-1 0,-2 1,-1 0,-6 1,-1 0,-15 -1,-1 0,-6 -1,-1 0,-4 -1,1 0,0 -1,1 -1,1 -1,0 -1,1 -6,6 -1,1 -1,1 0,1 -1,1 0,1 -1,1 -1,1 -1,1 -1,0 0,1 -1,1 -1,1 -1,0 -1,1Z"/>
<path onmouseover="hoverPath(evt)" onmouseout="recoverPath(evt)" fill="rgb(243,241,236)" d="M  74,0l -2,0 0,2 -1,1 -1,1 -1,1 -1,1 0,1 -1,1 -1,1 -1,1 -1,1 0,4 1,1 0,2 1,-1 0,0 1,-1 1,-1 1,-1 0,-1 1,-1 1,-1 1,-1 1,-1 0,-1 1,-1 1,-1 1,-1 0,-1 1,-1 1,-1 1,-1 0,-1Z"/>
<path onmouseover="hoverPath(evt)" onmouseout="recoverPath(evt)" fill="rgb(171,198,238)" d="M  82,0l -1,0 0,2 -1,1 -1,1 -1,1 0,1 -1,1 -1,1 -1,1 0,1 -1,1 -1,1 -1,1 -1,1 0,1 -1,1 -1,1 -1,1 -1,1 -1,1 0,1 -1,1 -1,0 0,2 1,1 0,3 1,0 1,1 6,0 1,1 7,0 1,1 8,0 1,1 8,0 1,1 8,0 1,-1 2,0 1,-1 0,-1 1,-1 1,-1 0,-1 1,-1 0,-1 1,-1 0,-1 1,-1 0,-1 1,-1 0,-3 1,-1 0,-5 -1,-1 0,-6 -1,-1 0,-3Z"/>
<path onmouseover="hoverPath(evt)" onmouseout="recoverPath(evt)" fill="rgb(241,240,229)" d="M  138,221l 0,3 2,0 1,1 14,0 1,-1 1,0 0,-1 1,-1 0,-1 1,-1 0,-1 1,-1 0,-1 1,-1 -4,0 -1,1 -8,0 -1,1 -6,0 -1,1 -2,0Z"/>
<path onmouseover="hoverPath(evt)" onmouseout="recoverPath(evt)" fill="rgb(171,198,238)" d="M  138,201l 0,1 1,0 1,1 16,0 1,1 3,0 1,-1 5,0 1,1 1,-1 7,0 1,1 1,1 0,3 3,0 0,-3 3,-3 2,0 1,-1 2,0 1,-1 2,0 1,-1 3,0 1,-1 2,0 1,-1 1,0 1,-1 2,0 1,-1 1,0 1,-1 1,0 1,-1 2,0 1,-1 4,0 1,-1 4,0 1,-1 5,0 1,-1 7,0 1,-1 12,0 1,1 7,0 0,-2 -10,0 -1,-1 -9,0 -1,1 -7,0 -1,1 -8,0 -1,1 -3,0 -1,1 -3,0 -1,1 -3,0 -1,1 -2,0 -1,1 -2,0 -1,1 -1,0 -1,1 -1,0 -1,1 -2,0 -1,1 -3,0 -1,1 -2,0 -1,1 -2,0 -1,-1 -1,-1 0,-4 -1,-1 0,-22 -1,-1 0,-54 -1,-1 0,-2 1,-1 -1,-1 -1,0 -1,1 -1,0 0,35 1,1 0,46 1,1 0,3 -1,1 0,1 -1,1 -2,0 -1,1 -23,0 -1,-1 -9,0 -1,1Z"/>
<path onmouseover="hoverPath(evt)" onmouseout="recoverPath(evt)" fill="rgb(243,242,234)" d="M  144,161l 0,1 -1,1 0,10 -1,1 0,10 -1,1 0,8 -1,1 0,4 9,0 1,1 21,0 1,-1 2,0 0,-1 1,-1 0,-1 -1,-1 0,-39 -1,1 0,2 -1,1 0,1 -1,1 -1,1 -11,0 0,1 -1,1 0,4 -1,1 -2,0 -1,-1 0,-6 -2,0 -1,-1 -3,0 -1,-1 -2,0 -1,1Z"/>
<path onmouseover="hoverPath(evt)" onmouseout="recoverPath(evt)" fill="rgb(172,198,238)" d="M  172,1l 0,27 1,1 0,39 1,1 0,13 -1,1 -1,0 0,2 1,1 0,2 1,1 0,4 1,1 0,4 -1,1 0,1 1,1 3,0 0,-31 -1,-1 0,-39 1,-1 0,-1 1,-1 2,0 1,-1 3,0 1,-1 2,0 1,-1 3,0 1,-1 2,0 1,-1 3,0 1,-1 2,0 1,-1 3,0 1,-1 2,0 1,-1 3,0 1,-1 2,0 1,-1 3,0 1,-1 2,0 1,-1 3,0 1,-1 2,0 1,-1 3,0 1,-1 2,0 1,-1 3,0 1,-1 2,0 1,-1 3,0 1,-1 2,0 1,-1 3,0 0,-6 -3,0 0,2 -1,1 -2,0 -1,1 -3,0 -1,1 -2,0 -1,1 -2,0 -1,1 -3,0 -1,1 -2,0 -1,1 -2,0 -1,1 -3,0 -1,1 -2,0 -1,1 -2,0 -1,1 -2,0 -1,1 -3,0 -1,1 -2,0 -1,1 -3,0 -1,1 -2,0 -1,1 -3,0 -1,1 -2,0 -1,1 -3,0 -1,1 -2,0 -1,1 -8,0 -1,-1 0,-1 -1,-1 0,-19 -4,0 -1,1Z"/>
<path onmouseover="hoverPath(evt)" onmouseout="recoverPath(evt)" fill="rgb(245,244,237)" d="M  179,1l 0,17 1,1 0,1 6,0 1,-1 2,0 1,-1 3,0 1,-1 2,0 1,-1 3,0 1,-1 2,0 1,-1 3,0 1,-1 2,0 1,-1 3,0 1,-1 2,0 1,-1 2,0 1,-1 2,0 1,-1 3,0 1,-1 2,0 1,-1 2,0 1,-1 3,0 1,-1 2,0 1,-1 2,0 1,-1 3,0 1,-1 2,0 0,-1 -70,0 -1,1Z"/>
<path onmouseover="hoverPath(evt)" onmouseout="recoverPath(evt)" fill="rgb(242,241,231)" d="M  183,205l 0,0 -1,1 0,2 6,0 1,-1 7,0 1,-1 8,0 1,-1 7,0 1,-1 7,0 1,-1 8,0 1,-1 7,0 1,-1 7,0 1,-1 8,0 0,-9 -8,0 -1,-1 -10,0 -1,1 -7,0 -1,1 -5,0 -1,1 -4,0 -1,1 -4,0 -1,1 -2,0 -1,1 -1,0 -1,1 -1,0 -1,1 -2,0 -1,1 -1,0 -1,1 -2,0 -1,1 -3,0 -1,1 -2,0 -1,1 -2,0 -1,1 -2,0 -1,1Z"/>
<path onmouseover="hoverPath(evt)" onmouseout="recoverPath(evt)" fill="rgb(244,242,234)" d="M  199,45l 0,11 1,1 0,17 1,1 2,0 1,1 9,0 1,-1 9,0 1,1 6,0 0,-2 1,-1 7,0 1,-1 6,0 1,-1 5,0 1,-1 3,0 0,-40 -6,0 -1,1 -7,0 -1,1 -3,0 -1,1 -2,0 -1,1 -3,0 -1,1 -1,0 -1,1 -1,0 0,2 -1,1 -3,0 -1,-1 -2,0 -1,1 -3,0 -1,1 -8,0 -1,1 -5,0 -1,1Z"/>
<path onmouseover="hoverPath(evt)" onmouseout="recoverPath(evt)" fill="rgb(171,198,238)" d="M  0,90l 0,20 1,-1 0,-1 1,-1 0,-1 1,-1 0,-1 1,-1 0,-1 1,-1 0,-2 1,-1 0,-1 1,-1 0,-1 1,-1 0,-1 -1,-1 0,-2 -4,0 -1,-1 -1,0 -1,1Z"/>
<path onmouseover="hoverPath(evt)" onmouseout="recoverPath(evt)" fill="rgb(243,242,232)" d="M  0,218l 0,11 7,0 1,-1 11,0 1,-1 9,0 0,-3 1,-1 0,-6 1,-1 0,-5 -2,0 -1,1 -9,0 -1,1 -3,0 -1,1 -2,0 -1,1 -3,0 -1,1 -2,0 -1,1 -3,0 -1,1Z"/>
<path onmouseover="hoverPath(evt)" onmouseout="recoverPath(evt)" fill="rgb(184,145,236)" d="M  13,41l -1,0 -1,1 -1,1 -1,1 -1,1 -1,0 -1,1 -1,0 -1,1 -1,1 -3,0 0,37 1,-1 0,-2 1,-1 1,0 0,-2 1,-1 1,0 0,-2 1,-1 1,0 0,-2 1,-1 1,0 0,-2 1,-1 1,0 0,-2 1,-1 1,0 0,-2 2,-2 1,0 1,-1 0,-2 1,-1 1,0 0,-2 1,-1 1,-1 2,0 1,1 0,8 1,-8 0,-5 1,-1 1,0 0,-3 1,-1 1,0 0,-1 1,-1 1,-1 1,0 1,-1 0,-1 1,-1 1,0 1,-1 1,-1 0,-1 1,-1 0,-1 1,-1 4,-4 1,-1 1,-1 1,-1 1,-1 1,-1 1,0 1,-1 1,-1 1,-1 0,-2 1,-1 2,0 1,-1 1,-1 1,-1 0,-4 2,-2 3,0 1,-1 1,-1 1,-1 0,-1 1,-1 1,-1 1,-1 1,-1 0,-1 -21,0 0,4 -1,1 0,1 -1,1 -1,0 0,1 -1,1 0,1 -3,3 -1,1 -1,1 -1,1 -1,1 -1,1 -1,1 -1,0 -1,1 -1,0 0,1 -1,1 -1,0 0,3 -1,1 -2,0 0,1 -1,1 -2,0 0,1 -4,4 -1,1 -3,3 0,1 -1,1 -1,0 -2,2Z"/>
<path onmouseover="hoverPath(evt)" onmouseout="recoverPath(evt)" fill="rgb(244,242,234)" d="M  19,62l -1,1 -1,1 -1,0 -1,1 0,2 -1,1 -1,0 0,2 -1,1 -1,0 0,2 -1,1 -1,0 0,2 -1,1 -1,0 0,2 -1,1 -1,0 0,2 -1,1 -1,0 0,2 -1,1 -1,1 2,0 1,1 4,0 1,1 0,2 1,1 0,3 -1,1 0,1 -1,1 0,1 -1,1 0,2 -1,1 0,1 -1,1 0,1 -1,1 0,1 -1,1 0,1 -1,1 -1,1 -1,0 0,23 1,0 1,-1 1,0 0,-1 1,-1 2,0 0,-3 1,-1 1,0 1,-1 0,-6 1,-1 1,0 0,-1 1,-1 2,0 0,-2 1,-1 0,-1 1,-1 2,0 1,-1 0,-11 1,-1 0,-7 1,-1 0,-1 1,-1 9,0 -8,-1 0,0 -1,-1 -1,-1 0,-4 -1,-1 0,-9 1,-1 0,-8 1,-1 0,-7 -1,1 0,2 -1,1 -1,0Z"/>
<path onmouseover="hoverPath(evt)" onmouseout="recoverPath(evt)" fill="rgb(237,234,221)" d="M  36,255l 25,0 0,-3 -47,0 -1,1 -7,0 0,2Z"/>
<path onmouseover="hoverPath(evt)" onmouseout="recoverPath(evt)" fill="rgb(243,242,233)" d="M  38,210l 0,5 -1,1 0,2 -1,1 0,7 1,0 1,-1 7,0 1,-1 6,0 1,-1 6,0 1,-1 4,0 1,-1 8,0 1,-1 9,0 1,-1 9,0 1,-1 9,0 1,-1 7,0 1,-1 7,0 1,-1 6,0 1,-1 2,0 0,-7 1,-1 0,-2 -1,0 -1,1 -8,0 -1,-1 -13,0 -1,1 -4,0 -1,-1 -5,0 -1,1 -9,0 -1,1 -15,0 -1,1 -14,0 -1,1 -10,0 -1,1 -3,0 -1,1Z"/>
<path onmouseover="hoverPath(evt)" onmouseout="recoverPath(evt)" fill="rgb(241,239,229)" d="M  79,91l 0,1 1,0 1,1 1,1 1,1 1,1 1,1 1,1 1,1 1,1 0,1 1,0 1,1 1,0 1,1 3,0 1,-1 7,0 1,-1 6,0 1,-1 7,0 1,-1 6,0 1,-1 7,0 1,-1 5,0 1,-1 10,0 0,-7 -1,-1 0,-2 -1,0 -1,-1 -1,0 -1,-1 -3,0 -1,1 -15,0 -1,1 -12,0 -1,1 -19,0 -1,1 -15,0 0,1 1,1 1,1Z"/>
<path onmouseover="hoverPath(evt)" onmouseout="recoverPath(evt)" fill="rgb(241,240,229)" d="M  140,206l -1,1 0,4 5,0 1,1 0,1 1,-1 7,0 1,-1 8,0 1,-1 8,0 1,-1 3,0 0,-3 -1,-1 -5,0 -1,1 -2,0 -1,-1 -3,0 -1,1 -5,0 -1,-1 -14,0 -1,1Z"/>
<path onmouseover="hoverPath(evt)" onmouseout="recoverPath(evt)" fill="rgb(244,242,234)" d="M  180,30l -1,1 0,37 1,1 0,30 2,0 1,-1 6,0 1,-1 6,0 1,-1 6,0 1,-1 5,0 1,-1 4,0 0,-2 1,-1 0,-8 1,-1 -1,-1 0,-1 -13,0 -1,-1 -2,0 -1,-1 -1,0 -1,-1 0,-7 -1,-1 0,-1 -4,0 -1,-1 -1,0 -1,-1 -1,0 -1,-1 0,-2 1,-1 3,0 1,1 1,0 1,1 1,0 1,-1 1,0 0,-6 1,-1 0,-15 1,-1 1,-1 5,0 1,-1 8,0 1,-1 3,0 1,-1 4,0 1,1 1,0 0,-2 1,-1 1,0 1,-1 1,0 1,-1 3,0 1,-1 2,0 1,-1 3,0 1,-1 7,0 1,-1 7,0 0,-20 -2,0 -1,1 -2,0 -1,1 -3,0 -1,1 -2,0 -1,1 -3,0 -1,1 -2,0 -1,1 -3,0 -1,1 -2,0 -1,1 -3,0 -1,1 -2,0 -1,1 -3,0 -1,1 -2,0 -1,1 -3,0 -1,1 -2,0 -1,1 -3,0 -1,1 -2,0 -1,1 -3,0 -1,1 -2,0 -1,1 -3,0 -1,1 -2,0 -1,1 -3,0 -1,1 -1,0 -1,1Z"/>
<path onmouseover="hoverPath(evt)" onmouseout="recoverPath(evt)" fill="rgb(253,253,252)" d="M  254,210l 1,0 0,-8 -7,0 -1,1 -7,0 -1,1 -7,0 -1,1 -8,0 -1,1 -7,0 -1,1 -7,0 -1,1 -8,0 -1,1 -7,0 -1,1 -12,0 -1,1 -3,0 -1,1 -8,0 -1,1 -8,0 -1,1 -7,0 -1,1 -9,0 0,2 2,0 1,-1 6,0 1,-1 8,0 1,-1 12,0 1,-1 8,0 1,-1 4,0 1,-1 6,0 1,-1 8,0 1,-1 7,0 1,-1 8,0 1,-1 7,0 1,-1 8,0 1,-1 7,0 1,-1 5,0 1,1 1,1 0,4 -1,1 0,7 -1,1 0,7 -1,1 0,6 -1,1 0,7 -1,1 0,8 -1,1 0,4 2,0 0,-5 1,-1 0,-8 1,-1 0,-5 1,-1 0,-6 1,-1 0,-7 1,-1 0,-5 1,-1 0,-1 2,-2Z"/>
<path onmouseover="hoverPath(evt)" onmouseout="recoverPath(evt)" fill="rgb(242,240,230)" d="M  255,213l 0,-1 -2,0 -1,1 0,1 -1,1 0,5 -1,1 0,7 -1,1 0,6 -1,1 0,5 -1,1 0,8 -1,1 0,4 9,0Z"/>
<path onmouseover="hoverPath(evt)" onmouseout="recoverPath(evt)" fill="rgb(244,243,235)" d="M  0,207l 0,3 2,0 1,-1 3,0 1,-1 3,0 1,-1 3,0 1,-1 3,0 1,-1 4,0 1,-1 4,0 1,-1 6,0 1,-1 9,0 1,-1 8,0 1,-1 9,0 1,-1 3,0 1,1 1,-1 12,0 1,-1 16,0 1,-1 24,0 1,1 5,0 0,-3 1,-1 0,-10 1,-1 0,-9 1,-1 0,-10 1,-1 0,-10 1,-1 0,-6 1,-1 0,-10 1,-1 0,-12 1,-1 0,-3 -2,0 -1,1 -7,0 -1,1 -8,0 -1,1 -7,0 -1,1 -6,0 1,1 0,0 1,1 1,1 1,1 1,1 1,1 1,1 1,1 0,2 -1,1 -2,0 -1,-1 -1,-1 -1,-1 -1,-1 -1,-1 -1,-1 -1,-1 -1,-1 -1,0 -1,-1 -1,-1 -4,0 -1,1 -7,0 -1,1 -7,0 -1,1 -7,0 -1,1 -3,0 0,2 -1,1 0,3 -1,1 0,1 -1,1 -1,1 0,1 -1,1 -1,1 -1,1 -1,0 -1,1 -1,0 -1,1 -1,0 -1,1 -1,0 -1,1 -1,0 0,2 1,1 0,1 1,1 1,1 0,1 1,1 0,1 1,1 0,1 1,1 0,1 1,1 0,2 -1,1 1,1 0,1 1,1 0,1 1,1 0,1 1,1 0,1 1,1 0,1 1,1 0,1 1,1 0,1 2,0 1,1 0,1 1,1 0,1 1,1 0,1 1,1 0,2 -1,1 0,1 1,0 1,-1 2,0 1,1 0,7 -1,1 -1,1 -1,1 -4,0 -1,-1 -1,-1 0,-1 -9,0 0,2 -1,1 -6,0 -1,1 -19,0 -1,-1 0,-2 -8,0 -1,-1 -3,0 -1,1 -5,0 -1,-1 -8,0Z"/>
<path onmouseover="hoverPath(evt)" onmouseout="recoverPath(evt)" fill="rgb(253,253,253)" d="M  3,250l -3,0 0,5 4,0 0,-3 1,-1 7,0 1,-1 49,0 1,1 0,4 1,0 0,-2 1,-1 0,-9 1,-1 0,-8 1,-1 0,-6 1,-1 1,0 0,-1 1,-1 5,0 1,-1 8,0 1,-1 9,0 1,-1 9,0 1,-1 8,0 1,-1 7,0 1,-1 8,0 0,-2 -2,0 -1,1 -6,0 -1,1 -7,0 -1,1 -7,0 -1,1 -9,0 -1,1 -9,0 -1,1 -9,0 -1,1 -8,0 -1,1 -4,0 -1,1 -6,0 -1,1 -6,0 -1,1 -7,0 -1,1 -7,0 -1,1 -9,0 -1,1 -11,0 -1,1 -8,0 0,2 2,0 1,-1 7,0 1,-1 9,0 1,-1 11,0 1,-1 8,0 1,-1 5,0 1,-1 5,0 1,-1 6,0 1,-1 3,0 1,1 1,1 0,5 -1,1 0,8 -1,1 0,6 -1,1 -1,0 -59,1Z"/>
<path onmouseover="hoverPath(evt)" onmouseout="recoverPath(evt)" fill="rgb(243,242,234)" d="M  18,158l 0,0 -1,1 0,4 -1,1 0,2 -1,1 -2,0 -1,1 -1,0 0,2 -1,1 -1,1 -1,1 -1,1 -1,1 -1,0 0,1 1,1 0,2 -1,1 -1,1 -4,0 0,10 9,0 1,1 3,0 1,-1 5,0 1,1 8,0 1,1 0,2 17,0 1,-1 6,0 0,-2 1,-1 11,0 1,1 0,1 1,1 2,0 1,-1 1,-1 0,-5 -1,1 -3,0 -1,-1 0,-2 -1,-1 0,-1 -1,-1 0,-2 1,-1 -1,-1 0,-1 -2,0 -1,-1 0,-1 -1,-1 0,-1 -1,-1 0,-1 -1,-1 0,-1 -1,-1 0,-1 -1,-1 0,-1 -1,-1 0,-1 -1,-1 0,-1 -1,-1 0,-1 -1,-1 0,-2 1,-1 -1,-1 0,-1 -1,-1 0,-1 -1,-1 -1,-1 0,2 -1,1 -7,0 -1,1 -8,0 -1,1 -11,0 0,2 -1,1 -1,1Z"/>
<path onmouseover="hoverPath(evt)" onmouseout="recoverPath(evt)" fill="rgb(241,239,228)" d="M  24,3l 0,3 -1,1 0,1 -1,1 0,3 -1,1 0,2 -1,1 0,2 -1,1 0,2 -1,1 0,2 -1,1 0,2 -1,1 0,2 -1,1 0,2 -1,1 0,2 -1,1 0,1 -1,1 2,-2 1,0 0,-1 1,-1 1,-1 1,-1 1,-1 1,-1 1,-1 1,-1 1,-1 0,-1 1,-1 2,0 0,-1 1,-1 2,0 0,-3 1,-1 1,0 0,-1 1,-1 1,0 1,-1 1,0 1,-1 1,-1 1,-1 1,-1 1,-1 1,-1 1,-1 1,-1 0,-1 1,-1 0,-1 1,-1 1,0 0,-1 1,-1 0,-3 -22,0 0,2 -1,1Z"/>
<path onmouseover="hoverPath(evt)" onmouseout="recoverPath(evt)" fill="rgb(254,254,254)" d="M  84,247l 0,4 1,-1 2,0 1,-1 21,0 1,1 0,2 -1,1 0,2 1,0 0,-2 1,-2 0,-1 1,-1 4,0 1,-1 3,0 1,1 5,0 0,-2 -11,0 -1,-1 -1,-1 0,-4 1,-1 0,-3 1,-1 0,-3 -1,-1 -24,0 -1,1 25,0 0,3 -2,9 0,0 -1,1 -1,0 -1,1 -22,0 -1,-1 -1,0 -1,1Z"/>
<path onmouseover="hoverPath(evt)" onmouseout="recoverPath(evt)" fill="rgb(232,227,209)" d="M  126,79l -13,0 -1,1 -23,0 -1,1 -20,0 0,2 1,1 20,0 1,-1 19,0 1,-1 14,0 1,-1 13,0 1,-1 8,0 1,1 1,0 0,-3 -13,0 -1,1Z"/>
<path onmouseover="hoverPath(evt)" onmouseout="recoverPath(evt)" fill="rgb(186,213,154)" d="M  137,227l -1,0 0,4 -1,1 0,9 -1,1 0,6 1,0 1,1 0,3 -1,1 0,2 46,0 0,-20 -1,-1 0,-20 -1,0 -1,1 -8,0 -1,1 -6,0 0,1 -1,1 0,1 -1,1 0,1 -1,1 0,1 -1,1 0,1 -1,1 -1,0 -1,1 -16,0 -1,-1 -1,0 -1,1Z"/>
<path onmouseover="hoverPath(evt)" onmouseout="recoverPath(evt)" fill="rgb(247,245,240)" d="M  150,83l -3,0 -1,-1 -6,0 -1,1 1,0 9,1 1,-1 3,-2 0,0 -3,2 1,3 0,1 1,1 0,9 -1,1 13,0 -10,-1 0,0 -1,-1 0,-2 -2,-8 -1,-3 3,-4 0,0 -3,4 6,2 13,0 1,1 0,-3 -1,-1 0,-4 -3,0 -1,-1 -11,0 2,8 -6,-2 20,4 0,2 1,1 0,3 -1,1 0,1 1,-1 1,-1 0,-3 -1,-1 0,-1 -1,-1 -20,-4 -5,15 -4,0 -1,1 2,0 1,1 0,5 1,0 0,-6 1,-1 5,-15Z"/>
<path onmouseover="hoverPath(evt)" onmouseout="recoverPath(evt)" fill="rgb(245,243,237)" d="M  156,143l 0,7 -1,1 0,1 -1,1 -2,0 -1,1 -4,0 -1,1 -3,0 0,2 2,0 1,1 2,0 1,1 3,0 1,1 2,0 1,1 0,6 1,-5 0,-1 1,-1 11,0 1,-1 0,-1 1,-1 0,-2 1,-1 -1,-1 0,0 -1,-1 -1,0 -1,-1 -2,0 -1,1 -1,0 -1,1 -6,0 -1,-1 0,-9 1,-1 0,-2 -1,2 1,0 -1,1Z"/>
<path onmouseover="hoverPath(evt)" onmouseout="recoverPath(evt)" fill="rgb(243,241,232)" d="M  154,115l -2,0 -1,1 -3,0 0,3 -1,1 0,10 -1,1 0,10 -1,1 0,9 1,0 1,1 3,0 1,-1 2,0 0,-1 1,-1 0,-8 1,-1 0,-1 1,-1 2,0 1,1 0,4 -1,1 0,7 4,0 1,-1 1,0 1,-1 4,0 1,1 1,0 1,1 1,1 1,1 0,-5 -1,-1 0,-35 -1,0 -1,1 -5,0 -1,1 -6,0 -1,1Z"/>
<path onmouseover="hoverPath(evt)" onmouseout="recoverPath(evt)" fill="rgb(253,253,253)" d="M  166,75l -16,0 -1,1 -16,0 -1,1 -24,0 -1,1 -36,0 -1,1 -3,0 -1,1 0,1 -1,1 0,1 1,1 0,1 1,0 1,1 2,0 1,1 1,1 1,0 1,1 1,1 0,1 1,1 1,0 -1,-1 -1,-2 0,-2 1,-1 15,0 1,-1 19,0 1,-1 -1,0 -20,1 -16,1 -4,0 95,-11 -90,4 11,0 21,-1 3,0 22,-1 1,0 16,-1 1,1 1,0 0,-1 -1,2 0,2 16,-4 1,0 -1,-1Z"/>
<path onmouseover="hoverPath(evt)" onmouseout="recoverPath(evt)" fill="rgb(237,234,220)" d="M  167,95l 0,0 1,-1 0,-1 1,-1 0,-1 -1,-1 0,-3 -12,0 -1,1 -1,0 0,4 1,1 0,2 1,1 9,0 1,1 0,2 -1,1 -19,0 0,4 3,0 1,-1 5,0 1,-1 6,0 1,-1 5,0 0,-3 -1,-1Z"/>
<path onmouseover="hoverPath(evt)" onmouseout="recoverPath(evt)" fill="rgb(244,242,235)" d="M  182,111l -1,0 0,1 -1,1 1,1 0,54 1,1 0,22 1,1 0,4 1,1 1,-1 2,0 1,-1 3,0 1,-1 2,0 1,-1 1,0 1,-1 1,0 1,-1 2,0 1,-1 2,0 1,-1 3,0 1,-1 3,0 1,-1 3,0 1,-1 8,0 1,-1 7,0 1,-1 11,0 1,1 9,0 0,-69 -2,0 0,4 -1,1 -2,0 -1,-1 0,-2 -1,-1 -4,0 -1,1 -4,0 -1,1 -4,0 -1,1 -5,0 0,2 6,0 1,1 0,2 -1,1 -8,0 -1,-1 -1,-1 -1,-1 0,-1 -4,0 -1,-1 0,-2 1,-1 0,-5 -1,1 -1,0 -1,1 -1,0 -1,1 -2,0 -1,1 -2,0 -1,1 -4,0 1,1 0,3 -1,1 -2,0 -1,-1 -1,-1 0,-1 -1,-1 -10,0 -1,-1 -1,-1 0,-3 2,-2 3,0 0,-2 -6,0 -1,1Z"/>
<path onmouseover="hoverPath(evt)" onmouseout="recoverPath(evt)" fill="rgb(244,243,236)" d="M  223,78l 0,0 -1,-1 -7,0 -1,1 -11,0 -1,-1 -2,0 -1,-1 -1,-1 0,-17 -1,7 -1,0 -1,1 -3,0 -1,-1 -1,0 -1,-1 -1,0 8,2 1,1 0,1 18,10 1,0 1,1 0,1 1,1 0,1 1,1 0,9 1,1 1,1 0,-1 1,-1 9,0 1,-1 6,0 1,-1 7,0 1,-1 8,0 0,-17 -2,0 -1,1 -5,0 -1,1 -6,0 -1,1 -7,0 0,2 -1,1Z"/>
<path onmouseover="hoverPath(evt)" onmouseout="recoverPath(evt)" fill="rgb(234,230,214)" d="M  240,109l 0,-2 1,-1 5,0 0,-1 1,-1 3,0 1,1 4,0 0,-3 -3,0 -1,-1 -5,0 -1,1 -5,0 0,2 -1,1 -6,0 -1,1 -4,0 -1,1 -1,0 1,1 6,0 1,1 0,2 -1,1 -4,0 -1,1 -1,0 0,1 1,1 0,0 1,1 1,0 1,-1 4,0 1,-1 4,0 1,-1 4,0 1,-1 1,0 0,-2 -6,0 -1,-1Z"/>
<path onmouseover="hoverPath(evt)" onmouseout="recoverPath(evt)" fill="rgb(247,246,240)" d="M  251,117l 0,-2 1,-1 3,0 0,-7 -5,0 -1,-1 -1,0 0,1 -1,1 1,0 1,1 0,4 -1,1 -1,0 -1,1 -4,0 -1,1 -4,0 -1,1 -4,0 -1,1 -3,0 -1,-1 -1,-1 -1,-1 0,-3 1,-1 1,0 1,-1 -2,0 -1,-1 -1,-1 0,-2 1,-1 -2,0 -1,-1 -1,1 -3,0 -1,-1 -1,0 -1,1 -2,0 0,1 -1,1 -6,0 -1,1 -5,0 -1,1 -5,0 0,4 -1,1 -3,0 -1,1 0,1 1,1 10,0 1,1 1,1 0,1 1,1 0,-1 -1,-2 0,-1 1,-1 4,0 1,-1 2,0 1,-1 2,0 1,-1 1,0 1,-1 1,0 1,-1 2,0 1,1 0,7 -1,1 4,0 1,1 0,1 1,1 1,1 6,0 -7,-2 0,-3 1,-1 24,-1 -19,1 0,0 5,-1 5,-1 5,-1 2,0 1,1 -18,2 19,-1Z"/>
</svg>