<svg width="256" height="256" xmlns="http://www.w3.org/2000/svg"><script> 
var tempColor;
function hoverPath(evt){
obj = evt.target;
tempColor = obj.getAttribute("fill");
obj.setAttribute("fill","red");
//alert(tempColor);
//obj.setAttribute("stroke","red");}
function recoverPath(evt){
obj = evt.target;
obj.setAttribute("fill", tempColor);
//obj.setAttribute("stroke", tempColor);
}</script><path onmouseover="hoverPath(evt)" onmouseout="recoverPath(evt)" fill="rgb(242,241,231)" d="M  0,116l 0,46 13,0 1,-1 1,0 0,-8 1,-1 0,-18 1,-1 0,-18 -3,0 -1,-1 -13,0Z"/>
<path onmouseover="hoverPath(evt)" onmouseout="recoverPath(evt)" fill="rgb(250,251,251)" d="M  14,164l -14,0 15,1 -1,-1 2,3 0,11 -1,1 0,10 -1,1 0,10 -1,1 0,11 -1,1 0,9 -1,1 0,8 1,0 0,-7 1,-1 0,-4 1,-1 0,-1 1,-1 21,0 -16,-1 0,0 -1,-1 0,-4 1,-1 1,-1 0,-1 -1,-1 0,-3 1,-1 13,0 -12,-1 0,0 -1,-1 -1,-1 0,-4 -1,-1 -2,0 -1,-1 0,-14 1,-1 0,-10 -1,-1 -2,-3 8,44 0,0 -8,-44 3,-2 1,1 0,-8 1,-1 0,-17 1,-1 0,-18 1,-1 0,-2 1,-1 1,-1 20,0 1,1 23,0 1,-1 11,0 1,1 5,0 1,1 1,1 1,0 0,-1 1,-1 37,0 1,1 29,0 1,1 14,0 1,1 0,11 -1,1 -1,0 -1,1 -56,0 31,1 0,8 -1,1 0,1 -1,1 0,0 1,1 0,1 1,1 0,5 -1,1 0,10 -1,1 0,1 -1,1 -1,1 -13,0 -1,-1 -12,0 -1,-1 -1,-1 0,-2 -1,3 0,0 -1,1 -6,0 1,1 8,0 1,1 40,0 1,1 14,0 0,-1 1,-1 1,0 1,-1 0,-4 1,-1 1,0 1,-1 13,0 1,1 0,-1 1,1 1,1 0,5 1,-3 0,-1 -18,-4 0,-1 -1,-1 0,-12 -1,-1 0,-13 -2,1 0,0 1,1 0,11 -1,1 0,1 1,0 1,1 -3,-2 -7,0 -1,-1 -15,0 -1,-1 0,-1 -1,0 -1,2 1,2 1,-1 16,0 -144,19 -3,2 153,2 -2,0 -1,-1 -8,0 -1,-1 0,-2 -1,1 0,1 -1,1 -9,0 -1,-1 0,-2 24,4 -153,-2 131,-32 0,-1 28,-9 0,-5 1,-1 28,0 1,1 0,12 -1,1 0,11 -1,1 0,10 -1,1 0,10 -1,1 0,6 -1,1 0,1 1,1 0,6 -1,1 0,18 -1,1 0,17 -1,1 0,6 1,0 0,-5 1,-1 0,-17 1,-1 0,-18 1,-1 0,-7 1,-1 17,0 1,1 24,0 1,1 11,0 0,-1 -11,0 -8,-1 -17,0 -7,-1 -11,0 -1,-1 0,-4 1,-1 0,-11 1,-1 0,-11 1,-1 0,-10 1,-1 0,-10 1,-1 0,-2 1,-1 26,0 1,1 22,0 0,-1 -18,0 -1,-1 -28,0 -1,-1 -1,0 -1,-1 0,-20 1,-1 0,-25 1,-1 0,-20 1,-1 0,-16 1,-1 0,-12 1,-1 0,-1 1,-1 10,0 1,1 22,0 1,1 10,0 0,-1 -7,0 -1,-1 -23,0 -1,-1 -12,0 -1,-1 0,-11 -1,0 0,6 -1,1 0,3 -1,1 -1,1 -4,0 -1,-1 -20,0 -1,-1 -19,0 -1,-1 -20,0 -1,-1 -29,0 -1,-1 -16,0 -1,-1 -30,0 -1,-1 -30,0 -1,1 0,4 -1,1 0,6 -1,1 0,6 -1,1 0,6 -1,1 0,10 -1,1 0,8 -1,1 0,10 -1,1 0,8 -1,1 0,12 -1,1 0,12 -1,1 0,10 -1,1 0,1 -1,1 -14,0 -1,-1 -3,0 0,2 14,0 1,1 3,0 1,1 0,20 -1,1 0,18 -1,1 0,7 1,-7 127,-22 -131,32 7,-55 0,-10 1,-1 0,-11 1,-1 0,-11 1,-1 0,-1 1,-1 1,-1 3,0 1,1 0,1 1,1 0,3 -1,1 0,1 -1,1 0,0 1,1 17,0 1,1 12,0 1,1 8,0 1,1 11,0 0,-2 1,-1 0,-19 1,-1 3,0 1,-1 5,0 1,1 28,0 1,1 27,0 1,1 19,0 1,1 19,0 1,1 12,0 1,1 1,0 1,1 0,22 -1,1 0,23 -1,1 -1,0 -1,1 -29,0 -1,-1 -39,0 -1,-1 -43,0 -1,-1 -22,0 -1,1 -16,0 -1,-1 -24,0 -1,-1 -1,-1 0,-1 -7,55 189,-100 -12,0 -1,-1 -18,0 -1,-1 -19,0 -1,-1 -26,0 -1,-1 -29,0 -1,-1 -23,0 -1,-1 -22,0 -1,-1 -18,0 -1,-1 -1,0 -1,-1 0,-11 1,-1 0,-10 1,-1 0,-7 1,-1 0,-6 1,-1 0,-6 1,-1 0,-2 1,-1 1,-1 25,0 1,1 27,0 1,1 19,0 1,1 31,0 1,1 19,0 1,1 20,0 1,1 19,0 1,1 6,0 1,1 1,1 0,11 -1,1 0,17 -1,1 0,16 -1,1 0,1 -1,1 -1,0 -189,100 67,-101 0,1 -1,-2 -11,0 -1,-1 -7,0 -1,1 -1,0 -1,-1 -9,0 -1,-1 -16,0 -1,1 0,0 50,2 -67,101 17,-102 0,7 2,2 -1,1 1,0 1,-1 2,0 1,1 1,1 1,-1 32,0 1,-1 -1,0 -1,-1 -18,0 -1,-1 0,-2 -9,0 -1,1 -2,0 -1,1 -1,0 0,2 1,1 0,0 -7,-10 -17,102 17,-91 0,0 -17,91 67,-91 0,8 -1,2 -10,0 -22,-2 -16,-1 -1,-1 0,-1 -1,2 -3,0 54,-7 -67,91 73,-47 0,0 -73,47Z"/>
<path onmouseover="hoverPath(evt)" onmouseout="recoverPath(evt)" fill="rgb(240,240,234)" d="M  13,244l 0,9 -1,1 0,1 62,0 0,-8 1,-1 0,-13 -10,0 -1,1 -12,0 -1,1 -7,0 -1,1 -6,0 -1,1 -3,0 -1,1 -3,0 -1,1 -3,0 -1,1 -3,0 -1,1 -4,0 -1,1 -2,0Z"/>
<path onmouseover="hoverPath(evt)" onmouseout="recoverPath(evt)" fill="rgb(243,242,234)" d="M  16,219l 0,0 -1,1 0,3 1,1 0,5 1,-1 3,0 1,-1 3,0 1,-1 3,0 1,-1 3,0 1,-1 3,0 1,-1 4,0 1,-1 3,0 1,-1 4,0 1,-1 3,0 1,-1 3,0 1,-1 5,0 1,-1 8,0 0,-11 1,-1 0,-15 1,-1 0,-15 1,-1 0,-1 -1,-1 0,-1 -23,0 -1,-1 -26,0 -1,-1 -4,0 -1,1 0,10 -1,1 0,12 2,0 1,1 1,1 0,4 1,1 1,1 11,0 1,1 0,2 -1,1 -13,0 0,1 1,1 9,0 1,1 0,2 -1,1 -10,0 -1,1 0,2 1,1 15,0 1,1 0,2 -1,1 -20,0 -1,1Z"/>
<path onmouseover="hoverPath(evt)" onmouseout="recoverPath(evt)" fill="rgb(242,241,231)" d="M  25,84l 0,3 -1,1 0,11 -1,1 0,9 1,1 24,0 1,1 14,0 1,-1 16,0 0,-14 1,-1 0,-9 -12,0 -1,-1 -8,0 -1,-1 -12,0 -1,-1 -17,0 -1,-1 -2,0 -1,-1 0,-2 1,-1 2,0 0,-1 1,-1 0,-1 -1,-1 0,-1 -1,0 -1,1 0,1 -1,1Z"/>
<path onmouseover="hoverPath(evt)" onmouseout="recoverPath(evt)" fill="rgb(243,242,233)" d="M  33,10l 0,1 -1,1 0,6 -1,1 0,6 -1,1 0,7 -1,1 0,10 -1,1 0,9 1,0 1,1 18,0 1,1 22,0 1,1 11,0 0,-7 1,-1 0,-15 1,-1 0,-15 1,-1 0,-7 -1,-1 -27,0 -1,-1 -23,0 -1,1Z"/>
<path onmouseover="hoverPath(evt)" onmouseout="recoverPath(evt)" fill="rgb(172,198,236)" d="M  88,18l 0,0 -1,1 0,15 -1,1 0,15 -1,1 0,6 1,0 0,-1 1,-1 0,-12 1,-1 0,-15 1,-1 0,-7 -1,-1 1,-1 0,-7 -1,0 0,6 1,1 -1,1Z"/>
<path onmouseover="hoverPath(evt)" onmouseout="recoverPath(evt)" fill="rgb(240,238,226)" d="M  90,117l -1,1 0,3 -1,1 -2,0 -1,-1 0,4 1,1 1,1 1,-1 17,0 1,1 6,0 1,1 55,0 1,-1 1,0 0,-9 -14,0 -1,-1 -29,0 -1,-1 -34,0 -1,1 -5,3 0,-3 -1,-1 0,4 1,0 5,-3Z"/>
<path onmouseover="hoverPath(evt)" onmouseout="recoverPath(evt)" fill="rgb(243,242,234)" d="M  91,12l 0,15 -1,1 0,15 -1,1 0,12 -1,1 7,0 1,1 29,0 1,1 26,0 1,1 19,0 1,1 18,0 1,1 11,0 0,-1 1,-1 0,-16 1,-1 0,-17 1,-1 0,-9 -1,-1 -6,0 -1,-1 -19,0 -1,-1 -20,0 -1,-1 -19,0 -1,-1 -31,0 -1,-1 -14,0Z"/>
<path onmouseover="hoverPath(evt)" onmouseout="recoverPath(evt)" fill="rgb(242,240,231)" d="M  103,148l 0,6 -1,1 0,1 -1,1 0,6 1,0 1,-1 6,0 1,-1 0,-2 1,-1 2,0 1,1 0,2 1,1 12,0 1,1 11,0 1,-1 0,-1 1,-1 0,-10 1,-1 0,-3 -1,-1 0,-1 -2,0 -1,-1 0,-2 1,-1 2,0 0,-1 1,-1 0,-6 -30,0 -1,-1 0,-2 -6,0 -1,-1 -15,0 12,1 1,0 1,1Z"/>
<path onmouseover="hoverPath(evt)" onmouseout="recoverPath(evt)" fill="rgb(241,240,229)" d="M  175,120l 0,3 -1,1 0,17 1,1 0,12 1,1 0,1 14,0 1,1 1,0 1,1 0,1 1,1 0,3 -1,1 0,2 -1,1 -2,0 -1,-1 0,-5 -1,0 -1,-1 -11,0 -1,1 -1,0 0,4 -1,1 -1,1 -1,0 0,1 18,0 1,1 7,0 0,-6 1,-1 0,-10 1,-1 0,-10 1,-1 0,-11 1,-1 0,-10 -26,0Z"/>
<path onmouseover="hoverPath(evt)" onmouseout="recoverPath(evt)" fill="rgb(243,243,234)" d="M  207,120l 0,0 -1,1 0,10 -1,1 0,10 -1,1 0,11 -1,1 0,11 -1,1 0,2 11,0 1,1 23,0 1,1 17,0 0,-52 -23,0 -1,-1 -24,0Z"/>
<path onmouseover="hoverPath(evt)" onmouseout="recoverPath(evt)" fill="rgb(243,242,234)" d="M  211,18l 0,11 -1,1 0,16 -1,1 0,20 -1,1 0,25 -1,1 0,18 1,0 1,1 28,0 1,1 17,0 0,-97 -11,0 -1,-1 -22,0 -1,-1 -8,0 0,1 -1,1Z"/>
<path onmouseover="hoverPath(evt)" onmouseout="recoverPath(evt)" fill="rgb(243,242,233)" d="M  0,1l 0,107 4,0 1,1 12,0 0,-1 1,-1 0,-10 1,-1 0,-12 1,-1 0,-12 1,-1 0,-8 1,-1 0,-10 1,-1 0,-8 1,-1 0,-10 1,-1 0,-6 1,-1 0,-6 1,-1 0,-6 1,-1 0,-4 1,-1 1,-1 32,0 1,1 27,0 0,-4 -89,0 -1,1Z"/>
<path onmouseover="hoverPath(evt)" onmouseout="recoverPath(evt)" fill="rgb(242,241,231)" d="M  0,169l 0,63 5,0 1,-1 3,0 0,-9 1,-1 0,-9 1,-1 0,-11 1,-1 0,-10 1,-1 0,-10 1,-1 0,-10 -1,-1 -13,0Z"/>
<path onmouseover="hoverPath(evt)" onmouseout="recoverPath(evt)" fill="rgb(248,238,151)" d="M  0,237l 0,18 10,0 0,-2 1,-1 0,-11 1,-1 2,0 1,-1 4,0 1,-1 3,0 1,-1 3,0 1,-1 3,0 1,-1 3,0 1,-1 6,0 1,-1 7,0 0,-2 1,-1 5,0 1,-1 15,0 1,-1 64,0 1,1 0,1 4,0 1,1 46,0 1,1 4,0 1,1 1,1 0,11 -1,1 1,0 -1,1 0,8 1,-22 1,-1 6,0 1,1 18,0 1,1 18,0 1,1 13,0 0,-8 -14,0 -1,-1 -18,0 -1,-1 -18,0 -1,-1 -3,0 -1,1 -3,0 -1,-1 -3,0 -1,-1 -7,0 -1,-1 -12,0 -1,-1 -17,0 -1,-1 -19,0 -1,-1 -47,0 -1,-1 -5,0 0,1 -1,1 -3,0 -1,-1 -7,0 -1,1 -5,0 -1,1 -3,0 -1,1 -3,0 -1,1 -4,0 -1,1 -3,0 -1,1 -4,0 -1,1 -3,0 -1,1 -3,0 -1,1 -3,0 -1,1 -3,0 -1,1 -3,0 -1,1 -2,0 -1,-1 0,2 -1,1 -6,0 -1,1 -6,0Z"/>
<path onmouseover="hoverPath(evt)" onmouseout="recoverPath(evt)" fill="rgb(244,243,234)" d="M  23,117l 0,1 -1,1 0,18 -1,1 0,17 -1,1 0,8 31,0 1,1 24,0 0,-5 1,-1 0,-15 1,-1 0,-15 1,-1 0,-11 -1,-1 -9,0 -1,1 -25,0 -1,-1 -18,0 -1,1Z"/>
<path onmouseover="hoverPath(evt)" onmouseout="recoverPath(evt)" fill="rgb(243,242,233)" d="M  77,235l 0,12 -1,1 0,7 31,0 0,-17 1,-1 0,-3 -1,-1 0,0 -1,-1 -18,0 -1,1 -10,0Z"/>
<path onmouseover="hoverPath(evt)" onmouseout="recoverPath(evt)" fill="rgb(237,233,219)" d="M  79,73l 0,-1 1,-1 0,-5 -1,-1 0,-1 -11,0 -1,-1 -5,0 -1,1 -3,0 -1,-1 -9,0 -1,-1 -14,0 0,6 1,1 1,0 0,-1 1,-1 1,0 1,-1 2,0 1,-1 11,0 1,1 0,2 18,0 1,1 1,0 1,1 0,2 -2,2 -32,0 -1,1 -2,0 -1,-1 -1,-1 -1,1 -1,0 0,4 1,1 15,0 1,1 11,0 1,1 11,0 1,1 4,0 1,-1Z"/>
<path onmouseover="hoverPath(evt)" onmouseout="recoverPath(evt)" fill="rgb(244,243,236)" d="M  82,171l 0,0 -1,1 0,12 -1,1 0,15 -1,1 0,14 -1,1 6,0 1,1 47,0 1,1 19,0 1,1 17,0 1,1 12,0 1,1 7,0 1,1 2,0 0,-6 1,-1 0,-17 1,-1 0,-18 1,-1 0,-4 -6,0 -1,-1 -32,0 -1,-1 -34,0 -1,-1 -36,0 -1,-1 -2,0 -1,1Z"/>
<path onmouseover="hoverPath(evt)" onmouseout="recoverPath(evt)" fill="rgb(174,199,234)" d="M  83,85l 0,11 -1,1 0,13 1,0 0,-4 1,-1 0,-13 1,-1 0,-15 1,-1 0,-12 -2,0 0,19 -1,1Z"/>
<path onmouseover="hoverPath(evt)" onmouseout="recoverPath(evt)" fill="rgb(243,242,233)" d="M  84,131l 0,5 -1,1 0,15 -1,1 0,12 7,0 1,1 13,0 -1,-1 -2,0 -1,-1 0,-8 1,-1 0,-1 1,-1 0,-22 -1,0 -1,-1 -11,0 -1,-1 -1,0 -1,-1 -1,-1Z"/>
<path onmouseover="hoverPath(evt)" onmouseout="recoverPath(evt)" fill="rgb(243,242,234)" d="M  88,65l 0,11 -1,1 0,15 -1,1 0,13 -1,1 0,3 3,0 1,1 43,0 1,1 39,0 1,1 27,0 1,-1 1,0 0,-23 1,-1 0,-20 -1,0 -1,-1 -12,0 -1,-1 -19,0 -1,-1 -19,0 -1,-1 -27,0 -1,-1 -28,0 -1,-1 -3,0Z"/>
<path onmouseover="hoverPath(evt)" onmouseout="recoverPath(evt)" fill="rgb(241,240,228)" d="M  92,1l 0,3 1,0 1,1 16,0 1,1 29,0 1,1 20,0 1,1 19,0 1,1 20,0 1,1 2,0 1,-1 0,-3 1,-1 0,-5 -114,0 -1,1Z"/>
<path onmouseover="hoverPath(evt)" onmouseout="recoverPath(evt)" fill="rgb(254,254,254)" d="M  109,240l 0,0 1,-1 0,-7 1,-1 1,0 1,-1 -39,0 -1,1 -15,0 -1,1 6,0 11,-1 34,0 1,1Z"/>
<path onmouseover="hoverPath(evt)" onmouseout="recoverPath(evt)" fill="rgb(243,242,234)" d="M  112,235l 0,5 -1,1 0,14 82,0 0,-10 1,-1 0,-9 -1,-1 -4,0 -1,-1 -46,0 -1,-1 -27,0 -1,1 -1,0Z"/>
<path onmouseover="hoverPath(evt)" onmouseout="recoverPath(evt)" fill="rgb(173,199,237)" d="M  119,169l 4,0 1,1 34,0 1,1 32,0 1,1 4,0 0,-1 -4,0 -4,-1 -18,0 -1,-1 -15,0 -1,-1 -33,0 -1,1 -1,-1 -5,0 -1,-1 -7,0 -1,1 -15,0 -1,-1 -7,0 -1,-1 0,-14 1,-1 0,-15 1,-1 0,-9 1,-1 0,-3 -1,-1 0,-5 -1,0 0,12 -1,1 0,15 -1,1 0,15 -1,1 0,5 -1,1 -26,0 -1,-1 -30,0 6,1 24,0 3,1 23,0 1,1 0,1 1,1 0,3 -1,1 0,15 -1,1 0,15 -1,1 0,11 1,0 0,-3 1,-1 0,-14 1,-1 0,-15 1,-1 0,-12 1,-1 2,-2 4,0 1,1 30,0 1,-1 1,1Z"/>
<path onmouseover="hoverPath(evt)" onmouseout="recoverPath(evt)" fill="rgb(241,239,229)" d="M  146,147l 0,4 -1,1 0,11 7,0 0,-1 2,-2 2,0 1,1 0,2 8,0 1,1 2,0 1,-1 1,0 0,-6 1,-1 0,-9 -1,-1 -1,0 -1,-1 -22,0Z"/>
<path onmouseover="hoverPath(evt)" onmouseout="recoverPath(evt)" fill="rgb(239,236,224)" d="M  170,139l 0,-5 -1,-1 0,-1 -22,0 0,1 -1,1 0,4 1,1 0,1 15,0 1,1 6,0 1,-1Z"/>
<path onmouseover="hoverPath(evt)" onmouseout="recoverPath(evt)" fill="rgb(244,243,236)" d="M  199,234l -1,0 0,13 -1,1 0,7 58,0 0,-18 -14,0 -1,-1 -18,0 -1,-1 -18,0 -1,-1Z"/>
<path onmouseover="hoverPath(evt)" onmouseout="recoverPath(evt)" fill="rgb(244,243,236)" d="M  203,174l -1,0 0,7 -1,1 0,18 -1,1 0,17 -1,1 0,3 4,0 1,1 18,0 1,1 18,0 1,1 13,0 0,-49 -12,0 -1,-1 -24,0 -1,-1Z"/>
<path onmouseover="hoverPath(evt)" onmouseout="recoverPath(evt)" fill="rgb(242,241,230)" d="M  213,0l -1,0 0,10 12,0 1,1 23,0 1,1 6,0 0,-12Z"/>
</svg>