<svg width="256" height="256" xmlns="http://www.w3.org/2000/svg"><script> 
var tempColor;
function hoverPath(evt){
obj = evt.target;
tempColor = obj.getAttribute("fill");
obj.setAttribute("fill","red");
//alert(tempColor);
//obj.setAttribute("stroke","red");}
function recoverPath(evt){
obj = evt.target;
obj.setAttribute("fill", tempColor);
//obj.setAttribute("stroke", tempColor);
}</script><path onmouseover="hoverPath(evt)" onmouseout="recoverPath(evt)" fill="rgb(252,252,251)" d="M  1,160l -1,0 0,1 3,0 1,1 4,0 1,1 4,0 1,1 4,0 1,1 5,0 1,1 4,0 1,1 4,0 1,1 4,0 1,1 4,0 1,1 4,0 1,1 4,0 1,1 5,0 1,1 4,0 1,1 4,0 1,1 5,0 1,1 4,0 1,1 5,0 1,1 4,0 1,1 4,0 1,1 5,0 1,1 5,0 1,1 5,0 1,1 5,0 1,1 5,0 1,1 4,0 1,1 5,0 1,1 1,0 1,1 0,5 1,0 0,-1 1,-1 0,-2 1,-1 -1,-1 0,0 -1,-1 -3,0 -1,-1 -4,0 -1,-1 -5,0 -1,-1 -5,0 -1,-1 -4,0 -1,-1 -4,0 -1,-1 -5,0 -1,-1 -6,0 -1,-1 -5,0 5,1 -97,-19 140,34 -1,0 0,3 -1,1 0,3 -1,1 2,0 1,1 2,0 1,1 2,0 1,1 5,0 1,1 4,0 1,1 5,0 1,1 4,0 1,1 2,0 1,1 4,0 1,1 3,0 1,1 5,0 1,1 4,0 1,1 5,0 1,1 4,0 1,1 4,0 1,1 0,6 -1,1 0,3 -1,1 0,5 1,1 0,2 -1,1 2,0 1,1 1,1 0,2 1,0 1,1 1,1 3,0 1,1 1,0 1,-1 4,0 1,-1 4,0 1,-1 4,0 1,-1 4,0 1,-1 4,0 1,1 11,0 0,-1 -8,0 -1,-1 -8,0 -1,1 -4,0 -1,1 -4,0 -1,1 -3,0 -1,1 -9,0 -1,-1 0,-1 -1,0 -1,-1 -1,-1 0,-1 -1,-1 0,-1 -1,-1 0,-2 1,-1 0,-1 -1,-1 0,-4 1,-1 0,-3 1,-1 0,-2 1,-1 0,-5 -1,3 -6,0 -1,-1 -4,0 -1,-1 -5,0 -1,-1 -5,0 -1,-1 -4,0 -1,-1 -4,0 -1,-1 -2,0 -1,-1 -4,0 -1,-1 -3,0 -1,-1 -5,0 -1,-1 -4,0 -1,-1 -5,0 -1,-1 -2,0 -1,-1 -2,0 -1,-1 0,-7 -140,-34 90,17 -3,0 -1,-1 0,-2 1,-1 0,-1 -2,0 -1,-1 -2,0 -1,-1 -2,0 0,1 -1,1 -1,0 0,1 -1,1 -5,0 -1,-1 -4,0 -1,-1 -5,0 -1,-1 -4,0 -1,-1 -4,0 -1,-1 -4,0 -1,-1 -5,0 -1,-1 -4,0 -1,-1 -4,0 -1,-1 -4,0 -1,-1 -4,0 -1,-1 -4,0 -1,-1 -4,0 -1,-1 -5,0 -1,-1 -1,0 7,2 5,1 5,1 26,5 5,1 5,1 11,2 5,1 20,3 -90,-17Z"/>
<path onmouseover="hoverPath(evt)" onmouseout="recoverPath(evt)" fill="rgb(241,240,232)" d="M  0,212l 0,32 3,0 1,-1 6,0 0,-1 1,-1 7,0 1,1 13,0 1,-1 1,0 0,-1 1,-1 5,0 1,1 0,1 5,0 -1,-1 0,-3 -1,-1 -1,-1 -1,-1 -1,-1 -1,-1 -1,-1 -1,-1 -1,-1 -1,-1 -1,-1 -1,-1 -1,0 -1,-1 -1,-1 -2,0 -1,-1 0,-1 -1,-1 -4,0 -1,-1 0,-2 -1,0 -1,-1 -2,0 -1,-1 -1,0 -1,-1 -2,0 -1,-1 -1,0 -1,-1 -1,0 -1,1 -2,0 -1,-1 0,-2 -2,0 -1,-1 -2,0Z"/>
<path onmouseover="hoverPath(evt)" onmouseout="recoverPath(evt)" fill="rgb(243,242,233)" d="M  25,75l -2,2 0,1 -3,3 0,1 -1,1 -1,1 0,2 -1,1 -1,0 -1,1 0,1 -1,1 -1,1 0,1 -1,1 1,1 0,1 2,0 1,1 3,0 1,1 4,0 1,1 3,0 1,1 4,0 1,1 3,0 1,1 4,0 1,1 3,0 1,1 3,0 1,1 4,0 1,1 1,0 -1,-1 0,-2 1,-1 0,-3 1,-1 0,-1 1,-1 2,0 1,1 2,0 1,-1 1,0 0,-2 1,-1 4,0 1,1 1,0 1,-1 3,0 1,-1 1,0 0,-2 1,-1 4,0 1,1 1,0 1,-1 2,0 0,-2 1,-1 3,0 1,1 2,0 1,-1 2,0 1,-1 2,0 -1,-1 0,-3 1,-1 7,0 1,1 1,1 1,1 0,2 -1,1 -1,1 -1,0 0,1 2,0 1,1 0,2 1,1 1,1 4,0 1,-1 4,0 1,1 2,0 1,-1 1,0 0,-2 1,-1 3,0 1,-1 2,0 1,-1 2,0 1,-1 2,0 1,1 0,-2 1,-1 0,-2 -1,-1 0,-1 -1,-1 0,-2 1,-1 2,0 1,-1 3,0 1,-1 7,0 0,-2 -1,-1 0,0 -1,-1 -4,0 -1,-1 -1,-1 0,-2 -1,-1 -2,0 -1,-1 0,-1 -1,-1 -5,0 -1,-1 0,-2 -1,0 -1,-1 0,-1 -1,-1 -1,0 -1,-1 -1,-1 -1,0 -1,-1 -1,-1 -4,0 -1,-1 -1,-1 0,-2 -1,-1 -2,0 -1,-1 0,-1 -1,-1 -2,0 -1,-1 0,-1 -1,0 -1,-1 -1,0 0,1 -1,1 -2,0 -1,-1 0,-4 -1,-1 -1,0 -1,-1 -1,-1 -1,0 -1,-1 -1,-1 -1,-1 -2,0 -1,1 0,1 -1,1 -1,1 0,1 -1,1 0,1 -1,1 -1,0 -1,1 -1,0 -1,1 -1,1 -1,0 0,2 -1,1 -2,0 -1,-1 -1,1 -1,0 -1,1 -1,0 -1,1 0,2 -1,1 -2,0 -1,-1 -1,1 -1,0 -1,1 -1,0 -1,1 -1,0 -1,1 -1,0 -1,1 -1,1 -1,0 -1,1 -1,0 -1,1 -1,0 -1,1 -1,0 -1,1 -1,0 -1,1 -1,0 -1,1 1,1 0,3 -1,1 -2,0 -1,-1 -1,-1 -2,0 -1,1 -1,0 -1,1 -1,0 -1,1 -1,0 -1,1 -1,0 -1,1 -1,1 -1,0 -1,1 -1,0 -1,1 -1,0 -1,1 -1,0 -1,1 -1,0 -1,1 27,-7 2,0 1,1 2,0 1,1 1,1 1,1 1,1 0,2 -1,1 -2,0 -1,-1 -1,-1 -1,-1 -1,-1 -2,0 -1,-1 0,-2 1,-1 -27,7Z"/>
<path onmouseover="hoverPath(evt)" onmouseout="recoverPath(evt)" fill="rgb(243,241,233)" d="M  72,108l 0,0 1,1 4,0 1,1 3,0 1,1 3,0 1,1 4,0 1,1 3,0 1,1 4,0 1,1 3,0 1,1 3,0 1,1 4,0 1,1 3,0 1,1 3,0 1,1 4,0 1,1 3,0 1,1 4,0 1,1 3,0 1,1 3,0 1,1 4,0 1,1 3,0 1,1 3,0 1,1 4,0 1,1 1,0 0,-1 -1,-1 0,0 -1,-1 -1,-1 -1,0 -1,-1 0,-1 -1,-1 -1,-1 -1,-1 -1,-1 -1,-1 -1,-1 -1,-1 -1,-1 -1,0 -1,-1 -5,0 -1,1 -2,0 -1,-1 0,-6 1,-1 2,0 1,1 0,1 1,0 1,-1 1,0 0,-1 1,-1 1,0 1,-1 0,-1 1,-1 1,-1 1,-1 0,-3 1,-1 1,-1 2,0 1,1 1,-1 0,0 1,-1 1,0 1,-1 1,-1 1,0 1,-1 1,0 1,-1 0,-2 1,-1 2,0 1,1 1,-1 0,0 1,-1 1,0 0,-1 -1,-1 0,0 -1,-1 -1,-1 -1,-1 -1,-1 -1,-1 -1,-1 -1,-1 -1,-1 -1,-1 -1,0 -1,-1 -1,1 -2,0 -1,-1 -6,0 -1,1 -3,0 -1,1 -2,0 1,1 0,1 1,1 0,3 1,1 0,2 -1,1 -1,0 -1,1 -1,0 -1,1 -2,0 -1,-1 -1,0 -1,1 -2,0 -1,1 -3,0 0,2 -1,1 -1,0 -1,1 -4,0 -1,-1 -2,0 -1,1 -6,0 -1,-1 -1,-1 -1,-1 0,-2 -2,0 -1,-1 0,-3 1,-1 1,0 1,-1 -1,-1 0,0 -1,-1 -5,0 0,1 1,1 0,2 -1,1 -2,0 -1,1 -2,0 -1,1 -4,0 -1,-1 -1,0 0,2 -1,1 -2,0 -1,1 -3,0 -1,-1 -2,0 0,2 -1,1 -1,0 -1,1 -3,0 -1,1 -3,0 -1,-1 -2,0 0,2 -1,1 -1,0 -1,1 -3,0 -1,1 -2,0 0,3 -1,1 1,1 0,1 1,1 3,0 1,1 4,0 1,1Z"/>
<path onmouseover="hoverPath(evt)" onmouseout="recoverPath(evt)" fill="rgb(238,237,228)" d="M  147,191l 0,0 -1,-1 -1,0 0,2 -1,1 0,1 -1,1 0,5 2,0 1,1 2,0 1,1 5,0 1,1 4,0 1,1 5,0 1,1 3,0 1,1 4,0 1,1 2,0 1,1 4,0 1,1 4,0 1,1 5,0 1,1 5,0 1,1 4,0 1,1 4,0 0,-2 1,-1 0,-3 1,-1 2,0 0,-1 1,-1 0,-2 1,-1 0,-1 -1,1 -1,3 -1,1 -2,0 -1,-1 -2,0 -1,-1 -1,0 -1,-1 0,-1 -1,0 -1,-1 -3,0 -1,-1 -1,0 0,1 -1,1 -2,0 -1,-1 -4,0 -1,-1 -2,0 -1,-1 0,-1 -1,0 -1,-1 -2,0 -1,1 0,1 -1,1 -3,0 -1,-1 0,-3 -1,0 -1,1 -4,0 -1,-1 -2,0 -1,-1 0,-1 -1,-1 -3,0 -1,-1 -3,0 -1,-1 -3,0 -1,1 -5,0 -1,-2 0,0 1,2Z"/>
<path onmouseover="hoverPath(evt)" onmouseout="recoverPath(evt)" fill="rgb(244,243,236)" d="M  157,103l -1,0 -1,1 -1,1 0,1 -1,1 -1,1 0,3 1,0 1,1 2,2 1,1 5,5 1,1 1,0 1,1 0,2 1,1 1,1 2,0 1,1 0,2 -1,1 2,0 1,1 1,0 1,1 3,0 1,1 4,0 1,1 3,0 1,1 4,0 1,1 3,0 1,1 3,0 1,1 4,0 1,1 3,0 1,1 4,0 1,1 3,0 1,1 3,0 1,1 4,0 1,1 3,0 1,1 3,0 1,1 4,0 1,1 3,0 1,1 3,0 1,1 4,0 1,1 2,0 0,-10 -1,0 -1,-1 -1,-1 0,-2 -1,-1 0,-2 -1,-1 0,-2 -1,-1 0,-2 -1,-1 0,-2 -1,-1 0,-1 -1,-1 0,-2 -1,-1 0,-2 -1,-1 0,-2 -1,-1 0,-1 -1,-1 0,-2 -1,-1 0,-1 -1,-1 0,-2 -1,-1 0,-1 -1,-1 0,-2 -1,-1 0,-1 -1,-1 0,-2 -1,-1 0,-2 -1,-1 0,-2 -1,-1 0,-1 -1,-1 0,-1 -1,-1 0,-2 -1,0 -1,-1 -1,-1 -1,-1 -1,-1 -1,-1 0,-2 -1,0 -1,-1 -1,-1 -1,-1 -1,-1 -1,-1 0,-1 -1,0 -1,1 0,2 -1,1 -2,0 -1,-1 -1,1 0,0 -1,1 -1,0 -1,1 -1,0 -1,1 0,2 -1,1 -2,0 -1,-1 -1,1 -1,1 -1,0 0,2 -1,1 -2,0 -1,-1 -1,1 -1,0 -1,1 -1,0 -1,1 0,2 -1,1 -1,0 -1,1 -2,0 -1,-1 -1,1 -1,0 -1,1 -1,0 -1,1 -1,1 -1,0 -1,1 -1,0 -1,1 -1,0 -1,1 -1,0 -1,1 0,2 -1,1 -2,0 -1,-1 -1,1 -1,0 -1,1 0,2 -1,1 -1,0 -1,1 -1,1Z"/>
<path onmouseover="hoverPath(evt)" onmouseout="recoverPath(evt)" fill="rgb(243,242,233)" d="M  217,208l -1,1 -2,0 -1,-1 -1,0 0,2 1,1 0,7 -1,1 0,2 -1,1 0,3 -1,1 0,2 1,1 0,3 -1,1 1,1 0,1 1,1 0,1 1,1 1,0 1,1 0,1 7,0 1,-1 3,0 1,-1 4,0 1,-1 4,0 1,-1 10,0 1,1 7,0 0,-28 -4,0 -1,1 -1,0 0,1 -1,1 -2,0 -1,-1 0,-1 -1,0 -1,1 -6,0 -1,-1 -3,0 -1,-1 -6,0 -1,-1 0,-1 -1,0 -1,1Z"/>
<path onmouseover="hoverPath(evt)" onmouseout="recoverPath(evt)" fill="rgb(247,236,138)" d="M  0,97l 0,9 1,0 1,-1 2,0 1,-1 3,0 1,1 3,0 1,1 4,0 1,1 3,0 1,1 3,0 1,1 4,0 1,1 3,0 1,1 4,0 1,1 3,0 1,1 4,0 1,1 3,0 1,1 4,0 1,1 3,0 1,1 4,0 1,1 3,0 1,1 4,0 1,1 3,0 1,1 3,0 1,1 4,0 1,1 3,0 1,1 3,0 1,1 4,0 1,1 3,0 1,1 4,0 1,1 3,0 1,1 3,0 1,1 4,0 1,1 3,0 1,1 3,0 1,1 4,0 1,1 3,0 1,1 4,0 1,1 3,0 1,1 3,0 1,1 4,0 1,1 3,0 1,1 2,0 1,1 4,0 1,1 4,0 1,1 4,0 1,1 3,0 1,1 3,0 1,1 4,0 1,1 3,0 1,1 4,0 1,1 3,0 1,1 1,0 1,1 5,0 1,1 4,0 1,1 3,0 1,1 4,0 1,1 3,0 1,1 4,0 1,1 2,0 1,1 3,0 1,1 5,0 1,1 2,0 1,1 1,0 0,-9 -3,0 -1,-1 -4,0 -1,-1 -3,0 -1,-1 -3,0 -1,-1 -4,0 -1,-1 -3,0 -1,-1 -3,0 -1,-1 -4,0 -1,-1 -3,0 -1,-1 -3,0 -1,-1 -4,0 -1,-1 -3,0 -1,-1 -4,0 -1,-1 -3,0 -1,-1 -3,0 -1,-1 -4,0 -1,-1 -3,0 -1,-1 -4,0 -1,-1 -3,0 -1,-1 -1,0 -1,-1 -1,0 -1,1 -3,0 -1,-1 -1,-1 -3,0 -1,-1 -4,0 -1,-1 -3,0 -1,-1 -3,0 -1,-1 -4,0 -1,-1 -3,0 -1,-1 -3,0 -1,-1 -4,0 -1,-1 -3,0 -1,-1 -4,0 -1,-1 -3,0 -1,-1 -3,0 -1,-1 -4,0 -1,-1 -3,0 -1,-1 -3,0 -1,-1 -4,0 -1,-1 -3,0 -1,-1 -4,0 -1,-1 -3,0 -1,-1 -3,0 -1,-1 -4,0 -1,-1 -3,0 -1,-1 -4,0 -1,-1 -3,0 -1,-1 -3,0 -1,-1 -4,0 -1,-1 -3,0 -1,-1 -3,0 -1,-1 -4,0 -1,-1 -3,0 -1,-1 -4,0 -1,-1 -3,0 -1,-1 -4,0 -1,-1 -3,0 -1,-1 -2,0 -1,-1 0,0 -1,1 -4,0 -1,-1 0,-1 -5,0Z"/>
<path onmouseover="hoverPath(evt)" onmouseout="recoverPath(evt)" fill="rgb(246,245,238)" d="M  26,0l -26,0 0,13 5,0 1,1 17,0 1,1 18,0 1,1 15,0 1,1 10,0 1,1 11,0 -2,-1 -7,0 -1,-1 -11,0 -1,-1 -15,0 -1,-1 -13,0 -1,-1 -1,-1 0,-4 1,-1 5,0 -6,-1 0,-4 1,-1 18,0 1,1 4,0 1,-1 0,-1Z"/>
<path onmouseover="hoverPath(evt)" onmouseout="recoverPath(evt)" fill="rgb(247,237,140)" d="M  60,0l -5,0 0,1 2,0 1,1 2,0 1,1 0,1 1,1 1,0 1,1 1,1 1,0 1,1 1,0 1,1 1,1 1,1 1,0 1,1 0,3 7,0 1,1 1,0 1,1 0,2 3,0 1,1 0,2 2,0 1,1 1,1 1,1 1,1 0,1 -3,-5 0,-1 1,-1 3,0 1,1 5,0 1,1 2,0 1,-1 1,0 1,-1 2,0 1,-1 2,0 1,-1 1,0 1,-1 1,0 1,-1 2,0 1,-1 1,0 1,-1 1,0 1,-1 2,0 1,-1 1,0 1,-1 2,0 1,-1 1,0 1,-1 2,0 1,-1 1,0 1,-1 2,0 1,-1 2,0 1,-1 2,0 1,-1 1,0 1,-1 1,0 1,-1 2,0 1,-1 1,0 0,-1 -24,0 0,2 -1,1 -2,0 -1,1 -1,0 -1,1 -1,0 -1,1 -2,0 -1,1 -1,0 -1,1 -1,0 -1,1 -5,0 0,3 -1,1 -3,0 -1,-1 0,-1 -1,2 -1,0 -1,1 -14,0 -1,-1 -2,0 -1,-1 0,-1 -1,-1 -1,0 -1,-1 -1,-1 -1,0 -1,-1 -1,-1 -1,0 -1,-1 -1,-1 -1,0 -1,-1 -1,-1 0,-2Z"/>
<path onmouseover="hoverPath(evt)" onmouseout="recoverPath(evt)" fill="rgb(240,239,233)" d="M  67,241l 0,1 1,1 1,1 1,1 1,1 1,1 1,1 1,1 1,1 1,1 0,4 179,0 0,-13 -12,0 -1,-1 -2,0 -1,1 -4,0 -1,1 -4,0 -1,1 -4,0 -1,1 -4,0 -1,1 -3,0 -1,-1 -3,0 -1,-1 -1,-1 0,2 -1,1 -6,0 -1,-1 -1,0 0,1 -1,1 -4,0 -1,-1 -2,0 -1,-1 0,-1 -3,0 -1,-1 -7,0 0,2 -1,1 -5,0 -1,-1 -4,0 -1,-1 0,-3 -1,0 -1,-1 -7,0 -1,-1 -2,0 0,1 -1,1 -1,0 -1,1 -9,0 -1,-1 -4,0 -1,-1 0,-1 -2,0 -1,1 -2,0 -1,-1 0,-1 -2,0 -1,-1 0,-1 -12,0 -1,-1 -15,0 0,3 -1,1 -6,0 -1,1 -4,0 -1,-1 0,-3 -8,0 0,1 -1,1 -3,0 -1,-1 -1,0 0,1 -1,1 -2,0 0,1 -1,1Z"/>
<path onmouseover="hoverPath(evt)" onmouseout="recoverPath(evt)" fill="rgb(242,242,236)" d="M  102,24l -1,0 0,2 1,1 0,0 1,1 1,0 1,1 1,1 1,0 1,1 1,1 1,-1 2,0 1,1 0,2 1,1 1,0 1,1 1,1 1,-1 2,0 1,1 1,1 0,1 1,1 0,1 1,1 2,0 1,1 0,1 1,1 1,0 1,1 1,1 1,0 1,1 1,1 1,0 1,1 1,1 1,0 1,1 1,1 4,0 1,1 0,1 2,0 1,1 1,1 0,2 1,1 1,0 1,1 1,1 4,0 1,1 1,1 0,2 2,2 1,1 3,0 1,1 1,1 3,3 1,1 0,2 1,1 1,1 1,1 1,1 1,1 1,1 1,1 1,-1 1,0 1,-1 1,0 1,-1 1,-1 1,0 0,-2 1,-1 2,0 1,1 1,-1 1,0 1,-1 1,0 1,-1 1,-1 1,0 0,-2 1,-1 2,0 1,1 1,-1 0,0 1,-1 1,0 1,-1 1,0 1,-1 1,0 1,-1 0,-2 1,-1 2,0 1,1 1,-1 0,-3 -1,-1 0,0 -1,-1 -1,-1 0,-3 1,-1 -1,-1 0,-1 -1,-1 -1,-1 -1,-1 -1,0 -1,-1 0,-2 -1,-1 -1,-1 -1,-1 -1,-1 -1,0 -1,-1 0,-2 -1,-1 -1,-1 -1,-1 -1,-1 -1,-1 -1,-1 -1,-1 -1,-1 -1,-1 -1,-1 -1,-1 -1,-1 -1,-1 -1,-1 -1,-1 0,-1 -1,0 -1,-1 0,-2 -1,0 -1,-1 0,-2 -1,-1 0,-1 -1,0 -1,-1 0,-1 -1,-1 0,-1 -1,-1 0,-1 -1,0 -1,-1 0,-1 -1,-1 0,-1 -1,-1 -1,-1 -1,-1 0,-2 -12,0 0,2 -1,1 -1,0 -1,1 -2,0 -1,1 -1,0 -1,1 -1,0 -1,1 -2,0 -1,1 -2,0 -1,1 -2,0 -1,1 -1,0 -1,1 -2,0 -1,1 -1,0 -1,1 -2,0 -1,1 -1,0 -1,1 -2,0 -1,1 -1,0 -1,1 -1,0 -1,1 -2,0 -1,1 -1,0 -1,1 -1,0 -1,1 -2,0 -1,1 -2,0 -1,1 -1,0 -1,1Z"/>
<path onmouseover="hoverPath(evt)" onmouseout="recoverPath(evt)" fill="rgb(244,243,236)" d="M  108,0l -34,0 0,1 1,1 1,0 1,1 1,1 1,0 1,1 1,1 1,0 1,1 1,1 1,0 1,1 1,1 0,1 2,0 1,1 12,0 1,-1 1,0 0,-1 1,-1 2,0 1,1 0,1 1,0 0,-3 1,-1 5,0 1,-1 1,0 1,-1 1,0 1,-1 2,0 1,-1 1,0 1,-1 1,0 1,-1 2,0 0,-1Z"/>
<path onmouseover="hoverPath(evt)" onmouseout="recoverPath(evt)" fill="rgb(244,243,236)" d="M  171,1l 1,1 1,1 1,1 0,1 1,1 0,1 1,0 1,1 0,1 1,1 0,1 1,1 0,1 1,0 1,1 0,1 1,1 0,2 1,0 1,1 0,2 1,0 1,1 0,1 1,1 1,1 1,1 1,1 1,1 2,2 1,1 1,1 1,1 1,1 1,1 1,1 1,1 1,1 0,2 1,0 1,1 1,1 1,1 2,2 0,2 1,0 1,1 1,1 1,1 1,1 0,1 1,1 0,1 1,0 1,1 1,1 1,1 1,1 1,1 0,-1 1,-1 2,0 1,1 1,-1 1,-1 1,0 1,-1 1,-1 1,0 1,-1 1,-1 1,0 1,-1 1,-1 1,0 1,-1 1,-1 1,0 1,-1 1,-1 1,0 1,-1 0,-2 1,-1 1,-1 4,0 1,-1 1,0 1,-1 1,-1 3,0 0,-13 -4,0 -1,-1 -1,-1 0,-1 -1,-1 -1,-1 0,-3 -1,-1 -1,-1 -1,-1 -1,-1 -1,-1 -1,-1 -1,-1 -1,-1 -1,-1 -1,-1 -1,-1 -1,-1 -1,-1 -1,-1 -1,-1 0,-2 -60,0 -1,1Z"/>
<path onmouseover="hoverPath(evt)" onmouseout="recoverPath(evt)" fill="rgb(242,242,235)" d="M  225,65l 0,1 1,1 1,1 1,1 0,3 -1,1 0,1 1,1 1,1 1,1 1,1 4,0 1,1 1,1 0,1 1,1 0,1 1,1 0,1 1,0 2,-2 1,-1 1,0 1,-1 1,-1 1,-1 1,0 1,-1 1,-1 1,-1 1,0 1,-1 2,0 0,-22 -4,0 -1,-1 -1,-1 -1,-1 -1,-1 0,-1 -1,1 0,0 -1,1 -1,0 -1,1 -1,1 -1,0 -1,1 -1,1 -1,0 -1,1 -1,1 -1,0 -1,1 -1,1 -1,0 -1,1 -1,1 -1,0 -1,1 0,2 -1,1 -1,0 -1,1Z"/>
<path onmouseover="hoverPath(evt)" onmouseout="recoverPath(evt)" fill="rgb(245,244,236)" d="M  241,0l -7,0 0,1 1,1 0,0 1,1 1,1 1,1 1,1 1,1 1,1 1,1 1,1 1,1 1,1 1,1 1,1 1,1 1,1 0,3 2,2 0,1 1,1 3,0 0,-23Z"/>
<path onmouseover="hoverPath(evt)" onmouseout="recoverPath(evt)" fill="rgb(243,241,232)" d="M  0,18l 0,75 6,0 0,-1 1,-1 0,-1 1,-1 1,-1 0,-1 3,-3 0,-1 1,-1 1,-1 0,-2 1,-1 1,0 1,-1 0,-1 1,-1 1,-1 1,-1 0,-1 1,-1 1,0 1,-1 1,-1 1,0 1,-1 1,0 1,-1 1,-1 1,0 1,-1 1,0 1,-1 1,0 1,-1 1,0 1,-1 1,0 1,-1 1,0 1,-1 1,-1 1,0 1,-1 1,0 1,-1 1,0 1,-1 1,0 1,-1 1,0 1,-1 1,0 1,-1 1,0 1,-1 1,0 1,-1 1,-1 1,0 1,-1 1,0 1,-1 1,0 1,-1 1,0 1,-1 -1,-1 0,-2 1,-1 3,0 1,1 2,0 0,-2 1,-1 2,0 1,1 1,-1 1,0 1,-1 1,-1 1,0 0,-2 1,-1 2,0 1,1 1,-1 0,0 1,-1 1,-1 1,-1 0,-1 1,-1 1,-1 -1,-1 0,-1 -1,-1 -1,-1 -1,-1 -2,0 -1,-1 0,-2 -3,0 -1,-1 -12,0 -1,-1 -10,0 -1,-1 -15,0 -1,-1 -18,0 -1,-1 -17,0 -1,-1 -4,0 0,3 38,31 -1,1 -2,0 -1,-1 0,-2 1,-1 2,0 1,1 0,2 -38,-31Z"/>
<path onmouseover="hoverPath(evt)" onmouseout="recoverPath(evt)" fill="rgb(239,238,232)" d="M  0,114l 0,10 2,0 1,1 1,0 1,1 3,0 1,1 2,0 1,1 3,0 1,1 1,0 1,1 0,2 1,-1 3,0 1,1 4,0 1,1 0,4 1,0 0,-3 1,-1 3,0 1,1 0,2 2,0 1,1 0,1 1,1 3,0 1,-1 5,0 1,1 1,1 3,0 1,1 4,0 1,1 5,0 1,1 5,0 1,-1 1,0 0,-1 1,-1 2,0 1,1 0,1 2,0 1,1 0,2 3,0 1,1 3,0 1,-1 3,0 0,-1 1,-1 3,0 1,1 2,0 1,1 0,3 2,0 1,1 6,0 1,1 1,0 0,-1 1,-1 1,-1 2,0 1,1 0,3 3,0 1,1 2,0 1,-1 2,0 1,1 0,1 1,0 1,-1 3,0 1,1 0,1 3,0 1,1 3,0 1,1 5,0 1,1 1,0 0,-1 1,-1 2,0 1,1 4,0 1,1 2,0 1,1 0,1 1,0 1,1 4,0 1,1 1,0 0,-1 1,-1 2,0 1,1 4,0 1,1 1,0 1,1 0,1 2,0 1,1 7,0 1,1 3,0 1,1 4,0 1,1 4,0 1,1 3,0 1,-1 6,0 1,1 3,0 1,1 0,1 1,1 4,0 1,1 2,0 0,-1 1,-1 2,0 1,1 3,0 1,-1 3,0 1,1 0,2 -1,1 2,0 1,1 7,0 1,1 3,0 1,1 4,0 1,1 1,0 0,-15 -2,0 -1,-1 -2,0 -1,-1 -5,0 -1,-1 -3,0 -1,-1 -2,0 -1,-1 -4,0 -1,-1 -3,0 -1,-1 -4,0 -1,-1 -3,0 -1,-1 -4,0 -1,-1 -5,0 -1,-1 -1,0 -1,-1 0,1 -1,1 -5,0 -1,-1 -3,0 -1,-1 -1,0 0,1 -1,1 -2,0 -1,-1 -2,0 -1,1 -4,0 -1,-1 -5,0 -1,-1 -3,0 -1,-1 0,-2 -4,0 -1,1 -2,0 -1,-1 -5,0 -1,-1 -3,0 -1,-1 -1,-1 0,-1 -3,0 -1,1 -2,0 -1,-1 0,-3 -1,-1 0,3 -1,1 -3,0 -1,-1 -4,0 -1,-1 -1,0 -1,-1 0,-1 -4,0 -1,-1 0,-2 -1,1 -2,0 -1,1 -6,0 -1,-1 -2,0 -1,-1 0,-2 -3,0 -1,1 -5,0 -1,-1 -5,0 -1,-1 -3,0 -1,-1 -3,0 -1,-1 0,-1 -1,0 -1,1 -3,0 -1,-1 -4,0 -1,-1 -4,0 -1,-1 0,-1 -1,0 -1,-1 -1,-1 0,-1 -3,0 -1,-1 0,1 -1,1 0,0 -1,1 -5,0 -1,-1 -3,0 -1,-1 -4,0 -1,-1 -4,0 -1,-1 -5,0 -1,-1 -3,0 -1,-1 -2,0 -1,-1 0,-1 -1,-1 -4,0 -1,1 -3,0 -1,-1 -2,0 -1,-1 0,-1 -8,0 -1,-1 0,-3 -1,1 -2,0 -1,-1 -2,0 -1,-1 -2,0Z"/>
<path onmouseover="hoverPath(evt)" onmouseout="recoverPath(evt)" fill="rgb(243,242,235)" d="M  1,246l -1,0 0,9 63,0 0,-1 -1,-1 -3,-3 -1,-1 -1,0 -1,-1 -1,-1 -1,-1 -1,-1 -1,-1 -1,0 -1,-1 0,-1 -1,-1 -1,-1 -1,-1 1,2 0,1 -1,1 -7,0 -1,-1 0,-1 -3,0 0,1 -1,1 -1,0 -1,1 -15,0 -1,-1 -5,0 0,1 -1,1 -6,0 -1,1Z"/>
<path onmouseover="hoverPath(evt)" onmouseout="recoverPath(evt)" fill="rgb(235,232,215)" d="M  47,4l 0,0 -1,-1 -16,0 0,2 5,0 1,1 0,2 -1,1 -5,0 0,2 1,1 13,0 1,1 15,0 1,1 10,0 0,-1 -1,0 -1,-1 -1,-1 -1,-1 -1,0 -1,-1 -1,0 -1,-1 -1,-1 -1,0 -1,-1 -1,-1 0,-1 -2,0 -1,-1 -2,0 -1,1Z"/>
<path onmouseover="hoverPath(evt)" onmouseout="recoverPath(evt)" fill="rgb(243,242,234)" d="M  141,238l 0,1 4,0 1,1 7,0 1,-1 1,0 0,-1 1,-1 4,0 1,1 7,0 1,1 1,0 1,1 0,3 4,0 1,1 3,0 0,-2 1,-1 9,0 1,1 3,0 1,1 0,1 2,0 1,1 2,0 0,-1 1,-1 3,0 1,1 4,0 0,-4 -1,-1 -2,0 -1,-1 0,-2 1,-1 -1,-1 0,-7 1,-1 0,-3 1,-1 0,-4 -4,0 -1,-1 -4,0 -1,-1 -5,0 -1,-1 -4,0 -1,-1 -5,0 -1,-1 -3,0 -1,-1 -4,0 -1,-1 -2,0 -1,-1 -4,0 -1,-1 -5,0 -1,-1 -4,0 -1,-1 -5,0 -1,-1 -2,0 -1,-1 -2,0 -1,-1 -2,0 -1,-1 0,-2 1,-1 0,-3 1,-1 0,-3 1,-1 0,-3 -1,0 -1,-1 -5,0 -1,-1 -4,0 -1,-1 -5,0 -1,-1 -5,0 -1,-1 -5,0 -1,-1 -5,0 -1,-1 -5,0 -1,-1 -4,0 -1,-1 -4,0 -1,-1 -5,0 -1,-1 -4,0 -1,-1 -5,0 -1,-1 -4,0 -1,-1 -4,0 -1,-1 -5,0 -1,-1 -4,0 -1,-1 -4,0 -1,-1 -4,0 -1,-1 -4,0 -1,-1 -4,0 -1,-1 -4,0 -1,-1 -5,0 -1,-1 -4,0 -1,-1 -4,0 -1,-1 -4,0 -1,-1 -2,0 0,36 3,0 1,1 2,0 1,1 1,0 1,1 1,0 1,1 1,0 1,-1 2,0 1,1 0,2 1,0 1,1 1,0 1,-1 2,0 1,1 0,2 2,0 1,1 1,0 1,1 2,2 1,-1 2,0 1,1 1,1 0,1 2,0 1,1 1,1 1,1 1,1 1,1 0,2 1,1 1,1 1,1 1,0 1,1 0,1 1,1 1,1 1,1 1,1 1,1 1,1 1,1 1,1 1,1 1,1 3,0 1,-1 10,0 1,1 0,1 1,0 0,-1 1,-1 3,0 1,1 1,0 0,-1 1,-1 10,0 1,1 0,3 2,0 1,-1 6,0 0,-3 1,-1 17,0 1,1 12,0 1,1 0,1 2,0 1,1 0,1 1,-1 4,0 1,1Z"/>
<path onmouseover="hoverPath(evt)" onmouseout="recoverPath(evt)" fill="rgb(245,244,237)" d="M  243,90l 0,0 -1,1 0,2 1,1 0,2 1,1 0,1 1,1 0,2 1,1 0,1 1,1 0,2 1,1 0,1 1,1 0,2 1,1 0,1 1,1 0,2 1,1 0,2 1,1 0,1 1,1 0,2 1,0 0,-42 -1,0 -1,1 -1,0 -1,1 -2,2 -1,0 -2,2 -1,1 -1,0 -1,1Z"/>
<path onmouseover="hoverPath(evt)" onmouseout="recoverPath(evt)" fill="rgb(249,249,245)" d="M  0,207l 0,1 3,0 1,1 2,0 1,1 0,2 1,-1 3,0 1,1 1,0 1,1 2,0 1,1 1,0 1,1 2,0 1,1 1,0 1,1 0,2 4,0 1,1 1,1 0,1 2,0 1,1 1,1 1,0 1,1 1,1 2,2 1,1 1,1 1,1 1,1 1,1 1,1 1,1 1,1 0,1 1,0 1,1 1,1 1,1 1,1 0,1 1,0 1,1 1,1 3,3 1,0 1,1 1,1 1,1 1,1 1,1 1,1 0,2 9,0 0,-3 -1,-1 0,0 -1,-1 -1,-1 -1,-1 -1,-1 -1,-1 -1,-1 -1,-1 -1,-1 -1,-1 0,-2 1,-1 5,0 0,-2 -8,0 -1,1 -5,0 -1,-1 -1,-1 -1,-1 -1,-1 -1,-1 -1,-1 -1,-1 -1,-1 -1,-1 -1,-1 -1,-1 0,-1 -1,0 -1,-1 -1,-1 -1,-1 -1,-1 0,-2 -1,-1 -1,-1 -1,-1 -1,-1 -2,0 -1,-1 0,-1 -1,-1 -1,1 -2,0 -1,-1 -1,-1 -1,-1 -1,0 -1,-1 -2,0 -1,-1 0,-2 -1,1 -3,0 -1,-1 -1,0 -1,-1 0,-2 -1,1 -3,0 -1,-1 -1,0 -1,-1 -1,0 -1,-1 -2,0 -1,-1 -2,0Z"/>
<path onmouseover="hoverPath(evt)" onmouseout="recoverPath(evt)" fill="rgb(234,233,228)" d="M  5,107l -2,0 -1,1 -2,0 0,1 3,0 1,1 2,0 1,1 1,-1 2,0 1,1 0,3 8,0 1,1 0,1 2,0 1,1 1,0 1,-1 6,0 1,1 1,1 0,1 2,0 1,1 3,0 1,1 5,0 1,1 4,0 1,1 4,0 1,1 3,0 1,1 3,0 1,-1 0,-1 1,-1 2,0 1,1 3,0 1,1 0,1 1,1 1,0 1,1 0,1 4,0 1,1 4,0 1,1 1,0 1,-1 3,0 1,1 0,1 3,0 1,1 3,0 1,1 5,0 1,1 3,0 1,-1 5,0 1,1 0,2 2,0 1,1 4,0 1,-1 2,0 1,-1 2,0 1,1 0,2 4,0 1,1 0,1 1,0 1,1 4,0 1,1 1,0 0,-3 1,-1 2,0 -1,-1 -4,0 -1,-1 -3,0 -1,-1 -4,0 -1,-1 -3,0 -1,-1 -3,0 -1,-1 -4,0 -1,-1 -3,0 -1,-1 -3,0 -1,-1 -4,0 -1,-1 -3,0 -1,-1 -4,0 -1,-1 -3,0 -1,-1 -3,0 -1,-1 -4,0 -1,-1 -3,0 -1,-1 -3,0 -1,-1 -4,0 -1,-1 -3,0 -1,-1 -4,0 -1,-1 -3,0 -1,-1 -4,0 -1,-1 -3,0 -1,-1 -4,0 -1,-1 -3,0 -1,-1 -4,0 -1,-1 -3,0 -1,-1 -4,0 -1,-1 -3,0 -1,-1 -3,0 -1,-1 -4,0 -1,-1 -3,0 -1,-1 -1,0 -1,1 141,32 1,1 0,3 1,-1 5,0 1,1 0,1 1,1 3,0 1,1 2,0 1,-1 2,0 1,1 7,0 1,1 0,2 3,0 1,1 5,0 1,1 2,0 1,-1 4,0 1,1 0,-1 1,-1 3,0 1,1 0,-1 1,1 2,0 1,1 3,0 -2,-1 -1,0 -8,-2 -4,0 -1,-1 -3,0 -1,-1 -3,0 -1,-1 -4,0 -1,-1 -4,0 -1,-1 -4,0 -1,-1 -2,0 -1,-1 -3,0 -1,-1 -4,0 -1,-1 -3,0 -1,-1 -1,0 -1,1 -141,-32Z"/>
<path onmouseover="hoverPath(evt)" onmouseout="recoverPath(evt)" fill="rgb(236,234,227)" d="M  24,134l -2,0 -1,-1 -1,0 -1,1 -2,0 -1,-1 0,-2 -1,0 -1,-1 -3,0 -1,-1 -2,0 -1,-1 -3,0 -1,-1 -1,0 -1,-1 -1,0 0,8 2,0 1,1 5,0 1,1 4,0 1,1 4,0 1,1 5,0 1,1 4,0 1,1 5,0 1,1 4,0 1,1 4,0 -4,-1 -5,-1 -1,-1 0,-1 -2,0 -1,-1 0,-2 -1,0 0,3 -1,1 -6,-5 1,0 1,1 0,1 -1,-2Z"/>
<path onmouseover="hoverPath(evt)" onmouseout="recoverPath(evt)" fill="rgb(248,249,247)" d="M  142,111l -1,0 -1,-1 0,3 1,-1 2,0 -1,-1 4,1 2,0 1,1 1,0 1,1 2,2 1,1 4,4 1,1 0,1 1,0 2,2 1,1 1,1 0,2 1,1 1,1 1,0 0,-2 1,-1 -2,0 -1,-1 -1,-1 -1,-1 0,-2 -1,0 -1,-1 -1,-1 -1,-1 -1,-1 -1,-1 -1,-1 -1,-1 -1,-1 -1,-1 -1,-1 -1,0 -1,-1 0,-5 -1,0 -1,1 -1,0 0,1 -1,3 -4,-1 8,-6 2,0 0,-1 1,-1 2,-2 4,0 1,-1 1,-1 1,0 0,-2 1,-1 1,-1 1,0 1,-1 2,0 1,1 0,-2 1,-1 1,-1 1,0 1,-1 1,0 1,-1 1,0 1,-1 1,0 1,-1 1,-1 1,0 1,-1 1,0 1,-1 2,0 1,1 1,-1 1,0 0,-2 1,-1 1,-1 1,0 1,-1 1,0 1,-1 2,0 1,1 0,-2 1,-1 1,0 1,-1 1,-1 2,0 1,1 0,-2 1,-1 1,-1 1,0 1,-1 1,0 1,-1 1,-1 2,0 1,1 0,-2 1,-1 1,-1 3,0 1,1 0,1 1,1 1,1 1,1 1,1 1,0 0,-1 -1,-1 0,0 -1,-1 -1,-1 0,-3 1,-1 1,-1 1,0 0,-2 1,-1 1,-1 1,0 1,-1 1,-1 1,0 1,-1 1,-1 1,0 1,-1 1,-1 1,0 1,-1 1,-1 1,0 1,-1 1,-1 1,0 1,-1 1,-1 2,0 1,1 0,1 2,2 1,1 3,0 0,-11 -2,0 -1,1 0,0 -1,1 -1,0 -1,1 -4,0 -1,1 0,2 -1,1 -1,1 -1,0 -1,1 -1,1 -1,0 -2,2 -1,0 -1,1 -1,1 -1,0 -1,1 -1,1 -1,0 -1,1 -1,1 -1,0 -1,1 -1,1 -2,0 -1,-1 0,2 -1,1 -2,0 -1,-1 0,-1 -1,-1 -1,-1 -1,-1 -1,-1 -1,0 0,1 1,1 0,0 1,1 1,1 0,5 -1,1 -1,1 -2,0 -1,-1 0,2 -1,1 -1,1 -1,0 -1,1 -1,0 -1,1 -1,0 -2,2 -2,0 -1,-1 0,2 -1,1 -1,0 -1,1 -1,1 -1,0 -1,1 -1,0 -1,1 -2,0 -1,-1 0,2 -1,1 -1,0 -1,1 -1,1 -1,0 -1,1 -1,0 -1,1 -2,0 -1,-1 -1,-1 -1,-1 -1,-1 -1,-1 -1,-1 -1,-1 -1,-1 0,-2 -2,-2 -1,-1 -1,-1 -1,-1 -3,0 -1,-1 -1,-1 -1,-1 -1,-1 0,-2 -1,-1 -4,0 -1,-1 -1,-1 -1,0 -1,-1 -1,-1 0,-2 -1,-1 -2,0 -1,-1 0,-1 -4,0 -1,-1 -1,-1 -1,0 -1,-1 -1,-1 -1,0 -1,-1 -1,-1 -1,0 -1,-1 -1,-1 -1,0 -1,-1 -1,-1 0,-1 -2,0 -1,-1 -1,-1 0,-1 -1,-1 0,-1 -1,-1 -1,1 -2,0 -1,-1 -1,-1 -1,0 -1,-1 -1,-1 0,-2 -1,1 -2,0 -1,-1 -1,-1 -1,0 -1,-1 -1,-1 -1,0 -1,-1 -1,-1 -1,-1 0,-4 -5,0 -1,-1 -1,0 1,1 1,1 0,0 1,1 0,3 -1,1 0,1 -1,1 -1,1 0,1 -1,1 -1,1 -1,1 -1,1 -1,1 2,0 1,-1 1,0 0,-1 1,-1 0,-1 1,-1 1,-1 0,-1 1,-1 1,-1 4,0 50,76 -8,6 -55,-72 -1,-1 -1,0 -1,-1 0,2 -1,1 -1,0 -1,1 -1,1 -1,0 -1,1 -2,0 -1,-1 0,2 -1,1 -4,0 -1,-1 -1,0 1,1 0,2 -2,2 -1,0 -1,1 -1,0 -1,1 -1,0 -1,1 -1,0 -1,1 -1,1 -1,0 -1,1 -1,0 -1,1 -1,0 -1,1 -1,0 -1,1 -1,0 -1,1 -1,0 -1,1 -1,0 -1,1 -1,0 -1,1 -1,1 -1,0 -1,1 -1,0 -1,1 -1,0 -1,1 -1,0 -1,1 -1,0 -1,1 -1,0 -2,2 -1,0 -1,1 -1,0 -2,2 -1,0 0,1 -1,1 -2,2 0,1 -1,1 -1,1 -1,0 0,2 -1,1 -1,1 0,1 -2,2 -1,1 0,1 -1,1 -1,1 0,1 -1,1 0,1 -1,1 2,0 0,-1 1,-1 0,-1 1,-1 0,-1 1,-1 1,-1 0,-1 1,-1 1,-1 1,0 0,-2 1,-1 1,-1 0,-1 1,-1 1,-1 1,-1 0,-1 1,-1 1,-1 1,-1 1,-1 1,0 1,-1 1,0 1,-1 1,0 1,-1 1,0 1,-1 1,0 1,-1 1,-1 1,0 1,-1 1,0 1,-1 1,0 1,-1 1,0 1,-1 4,0 1,1 1,1 0,-1 -1,-1 0,-2 2,-2 1,0 1,-1 1,0 1,-1 1,0 1,-1 1,0 1,-1 1,0 1,-1 1,0 1,-1 1,-1 1,0 1,-1 1,0 1,-1 1,0 1,-1 1,0 1,-1 2,0 1,1 0,-2 1,-1 1,-1 1,0 1,-1 1,0 1,-1 2,0 1,1 0,-2 1,-1 1,0 1,-1 55,72 -40,-80 1,1 1,0 1,1 1,1 1,0 1,1 1,1 0,4 1,-2 3,0 1,1 1,0 1,1 0,1 2,0 1,1 1,1 0,1 2,0 1,1 1,1 0,2 1,1 4,0 1,1 1,1 1,0 1,1 1,1 1,0 1,1 1,1 0,1 1,0 1,1 0,2 5,0 1,1 1,1 0,1 2,0 1,1 1,1 0,2 1,1 4,0 1,1 1,1 1,1 0,4 1,-1 2,0 1,1 1,0 1,1 1,1 1,1 1,1 1,1 1,1 1,1 1,1 1,1 1,1 1,1 0,3 -1,1 -1,0 -1,1 -1,1 -2,0 -1,-1 0,2 -1,1 -1,1 -1,0 -1,1 -1,0 -1,1 -1,1 -1,0 -1,1 -1,1 -2,0 -1,-1 -1,1 0,3 -1,1 -1,1 -49,-73 40,80Z"/>
<path onmouseover="hoverPath(evt)" onmouseout="recoverPath(evt)" fill="rgb(242,241,234)" d="M  234,207l 0,1 3,0 1,1 4,0 1,-1 3,0 1,1 0,0 1,-1 1,0 1,-1 5,0 0,-27 -2,0 -1,-1 -4,0 -1,-1 -3,0 -1,-1 -7,0 -1,-1 -2,0 -1,-1 0,-2 -6,0 -1,-1 0,1 -1,1 -4,0 -1,-1 -4,0 -1,-1 -1,-1 0,-1 -3,0 -1,-1 -4,0 -1,1 -5,0 -1,-1 -4,0 -1,-1 -4,0 -1,-1 -3,0 -1,-1 -7,0 -1,-1 -2,0 -1,-1 0,-1 -1,0 -1,-1 -4,0 -1,-1 0,1 -1,1 -3,0 -1,-1 -4,0 -1,-1 -1,0 -1,-1 0,-1 -2,0 -1,-1 -4,0 -1,-1 0,1 -1,1 -3,0 -1,-1 -5,0 -1,-1 -3,0 -1,-1 -3,0 -1,-1 0,-1 -1,0 -1,1 -3,0 -1,-1 -5,0 -1,-1 -3,0 -1,-1 0,-3 -1,1 0,1 -1,1 -3,0 -1,-1 -6,0 -1,-1 -2,0 -1,-1 0,-3 -2,0 -1,-1 -1,0 0,1 -1,1 -3,0 -1,1 -5,0 -1,-1 -3,0 -1,-1 0,-2 -2,0 -1,-1 0,-1 -1,2 -1,0 -1,1 -7,0 -1,-1 -5,0 -1,-1 -4,0 -1,-1 -3,0 -1,-1 -1,-1 -3,0 4,2 0,1 -1,1 -6,0 -1,-1 -4,0 -1,-1 -5,0 -1,-1 -4,0 -1,-1 -5,0 -1,-1 -4,0 -1,-1 -4,0 -1,-1 -5,0 -1,-1 -1,0 0,22 4,0 1,1 5,0 1,1 4,0 1,1 4,0 1,1 4,0 1,1 4,0 1,1 4,0 1,1 4,0 1,1 5,0 1,1 4,0 1,1 4,0 1,1 4,0 1,1 5,0 1,1 4,0 1,1 3,0 0,-1 1,-1 1,0 0,-1 1,-1 4,0 1,1 2,0 1,1 2,0 1,1 0,3 -1,1 3,0 1,1 6,0 1,1 6,0 1,1 5,0 1,1 4,0 1,1 4,0 1,1 5,0 1,1 5,0 1,1 4,0 1,1 3,0 1,1 1,1 2,0 1,1 0,2 3,0 1,-1 5,0 1,1 3,0 1,1 3,0 1,1 1,1 0,1 2,0 1,1 2,0 1,-1 3,0 1,1 0,3 1,0 0,-1 1,-1 1,-1 4,0 1,1 1,0 1,1 0,1 2,0 1,1 4,0 1,1 0,-1 1,-1 3,0 1,1 3,0 1,1 1,0 1,1 0,1 1,0 1,1 2,0 1,1 1,-1 0,-2 1,-1 1,-1 2,0 1,1 0,3 -1,1 0,2 -1,1 0,1 1,-1 6,0 1,-1 3,0 1,1 0,1 3,0 1,-1 2,0 1,1 -2,-35 0,0 2,35Z"/>
<path onmouseover="hoverPath(evt)" onmouseout="recoverPath(evt)" fill="rgb(173,199,238)" d="M  242,103l 0,1 1,1 0,1 1,1 0,2 1,1 0,1 1,1 0,2 1,1 0,2 1,1 0,2 1,1 0,1 1,1 0,2 1,1 0,2 1,1 0,2 1,1 0,2 1,1 0,2 1,1 0,-12 -2,0 -1,-1 0,-2 -1,-1 0,-1 -1,-1 0,-2 -1,-1 0,-2 -1,-1 0,-1 -1,-1 0,-2 -1,-1 0,-1 -1,-1 0,-2 -1,-1 0,-1 -1,-1 -1,1 1,-3 -1,-1 0,-1 -1,-1 0,-2 -1,-1 0,-4 1,-1 2,-2 1,0 3,-3 1,0 1,-1 1,-1 1,-1 1,0 1,-1 2,0 0,-3 -1,0 -1,1 -1,0 -3,3 -1,0 -1,1 -1,1 -1,1 -1,0 -1,1 -1,1 -1,1 -3,0 -1,-1 0,-1 -1,-1 0,-1 -1,-1 0,-1 -1,-1 -1,0 0,1 1,1 0,1 1,1 0,1 1,1 0,2 1,1 0,2 1,1 0,2 1,1 0,1 1,1 0,2 1,1 0,1 2,-1 -1,3Z"/>
</svg>