<svg width="256" height="256" xmlns="http://www.w3.org/2000/svg"><script> 
var tempColor;
function hoverPath(evt){
obj = evt.target;
tempColor = obj.getAttribute("fill");
obj.setAttribute("fill","red");
//alert(tempColor);
//obj.setAttribute("stroke","red");}
function recoverPath(evt){
obj = evt.target;
obj.setAttribute("fill", tempColor);
//obj.setAttribute("stroke", tempColor);
}</script><path onmouseover="hoverPath(evt)" onmouseout="recoverPath(evt)" fill="rgb(244,243,235)" d="M  0,1l 0,32 2,0 1,1 5,0 1,1 4,0 1,1 4,0 1,1 4,0 1,1 4,0 1,1 5,0 1,1 4,0 1,1 4,0 1,1 4,0 1,1 4,0 1,1 5,0 1,1 5,0 1,1 3,0 1,1 4,0 1,1 4,0 1,1 7,0 1,1 7,0 1,1 1,0 1,-1 0,-1 1,-1 0,-3 1,-1 0,-3 1,-1 0,-3 1,-1 2,0 0,-3 1,-1 0,-2 -1,-1 0,-5 1,-1 0,-3 1,-1 0,-3 1,-1 2,0 0,-2 1,-1 0,-4 1,-1 0,-3 1,-1 0,-3 -112,0 -1,1Z"/>
<path onmouseover="hoverPath(evt)" onmouseout="recoverPath(evt)" fill="rgb(244,243,235)" d="M  0,41l 0,107 6,0 1,1 4,0 1,1 4,0 1,1 4,0 1,1 5,0 1,1 5,0 1,1 4,0 1,1 4,0 0,-3 1,-1 0,-5 1,-1 0,-4 1,-1 0,-5 1,-1 0,-5 1,-1 0,-5 1,-1 0,-5 1,-1 0,-4 1,-1 0,-5 1,-1 0,-5 1,-1 0,-5 1,-1 0,-4 1,-1 0,-5 1,-1 0,-5 1,-1 0,-5 1,-1 0,-5 1,-1 0,-4 1,-1 0,-5 1,-1 0,-2 -1,-1 -3,0 -1,-1 -3,0 -1,-1 -4,0 -1,-1 -4,0 -1,-1 -4,0 -1,-1 -5,0 -1,-1 -4,0 -1,-1 -4,0 -1,-1 -4,0 -1,-1 -4,0 -1,-1 -5,0 -1,-1 -5,0Z"/>
<path onmouseover="hoverPath(evt)" onmouseout="recoverPath(evt)" fill="rgb(244,243,235)" d="M  117,0l -2,0 0,4 -1,1 0,3 -1,1 0,4 -1,1 0,2 -1,1 -2,0 0,3 -1,1 0,3 -1,1 0,3 1,1 0,4 -1,1 0,3 -1,1 -2,0 0,3 -1,1 0,3 -1,1 0,2 1,1 0,1 1,1 0,1 3,0 1,1 4,0 1,1 4,0 1,1 4,0 1,1 4,0 1,1 5,0 1,1 4,0 1,1 3,0 1,1 2,0 0,-2 -1,-1 0,-8 -1,-1 0,-2 1,-1 0,-3 -1,-1 0,-9 -1,-1 0,-3 1,-1 0,-1 -1,-1 0,-6 1,-1 -1,-1 -1,-1 0,-2 1,-1 0,-1 -1,-1 0,-8 -1,-1 0,-2Z"/>
<path onmouseover="hoverPath(evt)" onmouseout="recoverPath(evt)" fill="rgb(244,243,235)" d="M  127,69l 0,0 -1,1 -2,0 0,3 -1,1 0,2 1,1 0,4 -1,1 0,2 -1,1 -2,0 0,3 -1,1 0,2 1,1 0,4 -1,1 -2,0 0,2 -1,1 0,3 -1,1 0,1 -1,1 0,1 1,1 0,2 -1,1 -2,0 0,1 -1,1 0,1 -1,1 0,2 -1,1 1,1 0,2 -1,1 -2,0 0,1 -1,1 0,1 -1,1 0,1 -1,1 0,2 -1,1 1,1 0,2 -1,1 -2,0 0,1 -1,1 0,1 -1,1 0,2 -1,1 -1,1 0,2 1,1 0,3 -1,1 0,2 -1,1 0,4 -1,1 0,1 -1,1 -2,0 0,2 1,1 0,2 1,1 2,0 1,1 3,0 1,1 4,0 1,1 4,0 1,1 4,0 1,1 3,0 1,1 4,0 1,1 3,0 1,1 3,0 1,1 4,0 1,1 3,0 1,1 3,0 1,-1 0,0 1,-1 1,-1 1,0 1,-1 1,0 1,-1 1,0 1,-1 1,0 0,-1 1,-1 -1,-1 0,-7 -1,-1 0,-4 1,-1 -1,-1 0,-7 1,-1 0,-1 -1,0 -1,-1 0,-5 1,-1 -1,0 -1,-1 0,-3 -1,-1 0,-6 -1,-1 0,-7 -1,-1 0,-12 -1,-1 0,-4 1,-1 -1,-1 0,-4 -1,-1 0,-4 1,-1 -1,-1 0,-4 -1,-1 0,-4 1,-1 -1,-1 -1,-1 0,-2 1,-1 0,-1 -1,-1 0,-4 -1,1 -10,0 -1,-1 -4,0 -1,-1 -1,1Z"/>
<path onmouseover="hoverPath(evt)" onmouseout="recoverPath(evt)" fill="rgb(183,145,237)" d="M  144,0l -2,0 0,1 1,1 0,8 1,1 0,3 -1,1 1,1 1,1 0,2 -1,1 0,4 1,1 0,3 -1,1 0,1 1,1 0,9 1,1 0,5 -1,1 1,1 0,8 1,1 0,13 1,1 0,3 -1,1 1,1 1,1 0,2 -1,1 0,2 1,1 0,4 1,1 0,2 -1,1 0,2 1,1 0,4 1,1 0,2 -1,1 0,2 1,1 0,12 1,1 0,7 1,1 0,6 1,1 0,3 1,0 1,1 0,2 -1,1 0,3 1,0 1,1 0,3 -1,1 0,5 1,1 0,2 -1,1 0,2 1,1 0,7 1,1 0,2 -1,1 0,1 -1,1 -1,0 -1,1 3,0 1,1 0,1 1,1 0,2 1,1 0,5 1,1 0,4 1,1 0,4 1,1 0,4 1,1 0,4 1,1 0,6 1,1 0,4 1,1 0,4 1,1 0,4 1,1 0,3 1,1 0,2 1,1 0,6 1,1 0,1 1,1 0,2 1,1 0,8 34,0 0,-2 1,-1 1,-1 2,-2 1,-1 3,-3 0,-2 -2,0 -1,-1 -3,0 -1,1 -7,7 -1,1 -3,3 -4,0 -1,-1 -1,-1 0,-5 -1,-1 0,-3 -1,-1 0,-3 -1,-1 0,-3 -1,-1 -1,-1 0,-4 -1,-1 0,-3 -1,-1 0,-3 -1,-1 0,-3 -1,-1 0,-5 -1,-1 0,-2 -1,-1 0,-5 -1,-1 0,-4 -1,-1 0,-6 1,-1 -2,0 -1,-1 0,-5 -1,-1 0,-6 -1,0 -1,-1 -1,-1 0,-2 1,-1 0,-3 -1,-1 0,-6 -1,-1 0,-4 -1,-1 0,-4 -1,-1 0,-3 -1,-1 0,-2 -1,0 -1,-1 0,-3 1,-1 0,-3 -1,0 -1,-1 0,-3 1,-1 0,-5 -1,-1 0,-4 -1,0 -1,-1 0,-5 1,-1 0,-1 1,-1 -1,0 -1,-1 0,-2 1,-1 0,-2 -1,-1 0,-9 -1,-1 0,-5 -1,-1 0,-2 1,-1 0,-1 -1,-1 0,-5 -1,-1 0,-2 1,-1 0,-4 1,-1 -1,0 -1,-1 0,-2 1,-1 0,-1 -1,-1 0,-6 -1,-1 0,-10 -1,-1 0,-3 1,-1 -1,-1 -1,-1 0,-2 1,-1 0,-3 -1,-1 0,-3 1,-1 -1,-1 0,-2 -1,-1 0,-2 1,-1 0,-6 -1,-1 0,-4 1,-1 0,-1 -1,-1 0,-1 -1,-1 0,-2 1,-1 0,-3 -13,0 37,189 3,0 -2,-1 -1,0 0,1 -37,-189Z"/>
<path onmouseover="hoverPath(evt)" onmouseout="recoverPath(evt)" fill="rgb(244,243,235)" d="M  159,1l 0,3 -1,1 1,1 0,1 1,1 0,3 -1,1 0,2 1,1 0,8 -1,1 1,1 0,2 1,1 0,2 -1,1 0,1 1,1 0,5 -1,1 1,1 1,1 0,2 -1,1 0,1 1,1 0,10 1,1 0,6 1,1 0,1 10,0 1,1 3,0 1,1 3,0 1,1 4,0 1,1 4,0 1,1 4,0 1,1 4,0 1,1 5,0 1,1 4,0 1,1 4,0 1,1 4,0 1,1 2,0 1,1 3,0 1,1 3,0 1,1 4,0 1,1 4,0 1,1 5,0 1,1 4,0 0,-82 -95,0 -1,1Z"/>
<path onmouseover="hoverPath(evt)" onmouseout="recoverPath(evt)" fill="rgb(243,242,234)" d="M  164,73l 0,3 -1,1 1,1 0,5 1,1 0,3 -1,1 1,1 0,5 1,1 0,9 1,1 0,4 -1,1 1,0 1,1 0,2 -1,1 0,1 -1,1 0,3 1,0 1,1 0,4 1,1 0,7 -1,1 0,1 1,0 1,1 0,5 -1,1 0,1 1,0 1,1 0,2 1,1 0,3 1,1 0,4 1,1 0,4 1,1 0,6 1,1 0,5 -1,1 1,1 1,0 1,1 0,6 1,1 0,5 1,-1 0,-1 -1,-9 0,-2 -1,-1 0,-4 1,-1 0,-2 1,-1 2,0 0,-1 1,-1 0,-2 1,-1 0,-2 -1,-1 0,-4 1,-1 2,0 0,-1 -1,-1 0,-3 1,-1 2,0 0,-2 1,-1 0,-2 1,-1 0,-3 1,-1 0,-2 1,-1 0,-3 1,-1 0,-2 -1,-1 0,-3 1,-1 0,-2 1,-1 0,-3 1,-1 2,0 0,-2 1,-1 0,-2 1,-1 0,-2 -1,-1 0,-4 1,-1 2,0 0,-1 -1,-1 0,-4 1,-1 2,0 0,-1 -1,-1 0,-4 1,-1 2,0 0,-1 -1,-1 0,-3 -1,-1 -3,0 -1,-1 -5,0 -1,-1 -5,0 -1,-1 -5,0 -1,-1 -5,0 -1,-1 -3,0 -1,-1 -2,0 -1,-1 -1,-1 -1,-1 -1,0 -1,1Z"/>
<path onmouseover="hoverPath(evt)" onmouseout="recoverPath(evt)" fill="rgb(243,242,234)" d="M  181,193l 0,2 1,1 0,4 1,1 0,5 1,1 0,2 1,1 0,5 1,1 0,3 1,1 0,3 1,1 0,3 1,1 0,4 1,1 1,1 0,3 1,1 0,3 1,1 0,3 1,1 0,5 1,1 2,0 1,-1 0,0 1,-1 1,-1 1,-1 1,-1 1,-1 1,-1 1,-1 1,-1 1,-1 1,-1 1,-1 2,0 -1,-1 0,0 -1,-1 -1,0 -1,-1 -1,-1 -1,-1 0,-2 -1,-1 0,-1 -1,-1 0,-1 -1,-1 0,-5 1,-1 0,-3 1,-1 2,0 0,-1 1,-1 0,-3 1,-1 0,-2 1,-1 0,-3 1,-1 0,-2 -1,-1 0,-4 1,-1 0,-1 -1,-1 -1,0 -1,-1 -8,0 -1,-1 -6,0 -1,-1 -6,0 -1,-1 -3,0Z"/>
<path onmouseover="hoverPath(evt)" onmouseout="recoverPath(evt)" fill="rgb(253,253,252)" d="M  16,255l 21,0 0,-2 1,-1 3,0 1,-1 2,0 1,-1 3,0 1,-1 3,0 1,-1 3,0 1,-1 3,0 1,-1 3,0 1,-1 3,0 1,-1 2,0 1,-1 3,0 1,-1 3,0 1,-1 3,0 1,-1 3,0 1,-1 3,0 1,-1 3,0 1,-1 2,0 1,-1 3,0 1,-1 3,0 1,-1 3,0 1,-1 2,0 0,-2 1,-1 -2,0 -1,-1 -1,0 -1,1 -3,0 -1,1 -3,0 -1,1 -3,0 -1,1 -3,0 -1,1 -2,0 -1,1 -3,0 -1,1 -3,0 -1,1 -3,0 -1,1 -3,0 -1,1 -2,0 -1,1 -3,0 -1,1 -3,0 -1,1 -3,0 -1,1 -3,0 -1,1 -2,0 -1,1 -3,0 -1,1 -3,0 -1,1 -3,0 -1,1 -3,0 -1,1 -4,0 -1,-1 0,-8 1,-1 0,-5 1,-1 0,-4 1,-1 0,-5 1,-1 0,-5 1,-1 0,-5 1,-1 0,-5 1,-1 0,-4 1,-1 0,-5 1,-1 0,-5 1,-1 0,-5 1,-1 0,-4 1,-1 0,-5 1,-1 0,-5 1,-1 0,-3 1,-1 5,0 1,1 5,0 1,1 3,0 1,1 4,0 1,1 4,0 1,1 3,0 1,1 4,0 1,1 4,0 1,1 3,0 1,1 4,0 1,1 4,0 1,1 4,0 1,1 4,0 1,1 4,0 1,1 3,0 1,1 3,0 1,1 4,0 1,1 3,0 1,1 4,0 1,1 3,0 1,1 4,0 0,-1 -4,0 -1,-1 -3,0 -1,-1 -4,0 -1,-1 -3,0 -1,-1 -3,0 -1,-1 -4,0 -1,-1 -3,0 -1,-1 -4,0 -1,-1 -4,0 -1,-1 -4,0 -1,-1 -3,0 -1,-1 -2,0 -1,-1 -1,-1 0,-2 -1,2 0,0 -1,1 -3,0 -1,-1 -4,0 -1,-1 -4,0 -1,-1 -3,0 -1,-1 -4,0 -1,-1 -4,0 -1,-1 -3,0 -1,-1 -4,0 -1,-1 -3,0 -1,-1 0,-3 -1,-1 0,-6 1,-1 0,-5 1,-1 0,-5 1,-1 0,-5 1,-1 0,-4 1,-1 0,-5 1,-1 0,-5 1,-1 0,-5 1,-1 0,-5 1,-1 0,-4 1,-1 0,-5 1,-1 0,-5 1,-1 0,-5 1,-1 0,-5 1,-1 0,-4 1,-1 0,-5 1,-1 0,-5 1,-1 0,-3 1,-1 9,0 1,1 4,0 1,1 3,0 1,1 1,0 1,1 1,0 1,1 1,1 1,0 1,1 3,0 1,1 4,0 1,1 5,0 1,1 4,0 1,1 4,0 1,1 5,0 1,1 2,0 1,1 0,4 1,-3 1,-1 2,0 1,1 4,0 1,1 8,0 1,-1 1,0 0,-3 -3,0 -1,-1 -3,0 -1,-1 -4,0 -1,-1 -5,0 -1,-1 -4,0 -1,-1 -4,0 -1,-1 -4,0 -1,-1 -4,0 -1,-1 -3,0 -1,-1 0,-1 -1,-1 0,-1 -1,2 0,0 -1,1 -3,0 -1,-1 -7,0 -1,-1 -7,0 -1,-1 -4,0 -1,-1 -4,0 -1,-1 -3,0 -1,-1 -5,0 -1,-1 -5,0 -1,-1 -4,0 -1,-1 -4,0 -1,-1 -4,0 -1,-1 -4,0 -1,-1 -5,0 -1,-1 -4,0 -1,-1 -4,0 -1,-1 -4,0 -1,-1 -4,0 -1,-1 -5,0 -1,-1 -1,0 0,2 6,0 1,1 5,0 1,1 4,0 1,1 4,0 1,1 4,0 1,1 4,0 1,1 5,0 1,1 4,0 1,1 4,0 1,1 4,0 1,1 3,0 1,1 3,0 1,1 1,1 0,4 -1,1 0,5 -1,1 0,4 -1,1 0,5 -1,1 0,5 -1,1 0,5 -1,1 0,5 -1,1 0,4 -1,1 0,5 -1,1 0,5 -1,1 0,5 -1,1 0,4 -1,1 0,5 -1,1 0,5 -1,1 0,5 -1,1 0,5 -1,1 0,4 -1,1 0,5 -1,1 0,3 -1,1 -6,0 0,1 4,0 1,1 1,1 0,4 -1,1 0,5 -1,1 0,4 -1,1 0,5 -1,1 0,5 -1,1 0,5 -1,1 0,4 -1,1 0,5 -1,1 0,5 -1,1 0,5 -1,1 0,4 -1,1 0,5 -1,1 0,5 -1,1 0,5 -1,1 0,4 -1,1 0,3 -1,1 -1,1 -4,0 -1,-1 -8,0 -1,-1 -7,0 -1,-1 -5,0 0,8 16,0 21,-98 0,-1 -4,0 -1,-1 -5,0 -1,-1 -5,0 -1,-1 -4,0 -1,-1 -4,0 -1,-1 -4,0 -1,-1 -5,0 0,1 5,0 1,1 4,0 1,1 4,0 1,1 4,0 1,1 5,0 1,1 4,0 1,1 5,0 -21,98Z"/>
<path onmouseover="hoverPath(evt)" onmouseout="recoverPath(evt)" fill="rgb(244,243,235)" d="M  48,255l 124,0 0,-7 -1,-1 0,-2 -1,-1 0,-1 -1,-1 0,-6 -1,-1 0,-2 -1,-1 0,-3 -1,-1 0,-4 -1,-1 0,-4 -1,-1 0,-4 -1,-1 0,-6 -1,-1 0,-4 -1,-1 0,-4 -1,-1 0,-4 -1,-1 0,-4 -1,-1 0,-5 -1,-1 0,-2 -1,-1 0,-1 -3,0 -1,1 -2,0 -1,-1 -1,1 -1,1 0,3 -1,1 -6,0 -1,-1 -3,0 -1,-1 -4,0 -1,-1 -3,0 -1,-1 -4,0 -1,-1 -3,0 -1,-1 -3,0 -1,-1 -4,0 -1,-1 -4,0 -1,-1 -4,0 -1,-1 -4,0 -1,-1 -4,0 -1,-1 -3,0 -1,-1 -4,0 -1,-1 -4,0 -1,-1 -3,0 -1,-1 -4,0 -1,-1 -4,0 -1,-1 -3,0 -1,-1 -5,0 -1,-1 -3,0 0,3 -1,1 0,5 -1,1 0,5 -1,1 0,4 -1,1 0,5 -1,1 0,5 -1,1 0,5 -1,1 0,4 -1,1 0,5 -1,1 0,5 -1,1 0,5 -1,1 0,5 -1,1 0,4 -1,1 0,5 -1,1 0,6 2,0 1,-1 3,0 1,-1 3,0 1,-1 3,0 1,-1 3,0 1,-1 2,0 1,-1 3,0 1,-1 3,0 1,-1 3,0 1,-1 3,0 1,-1 2,0 1,-1 3,0 1,-1 3,0 1,-1 3,0 1,-1 3,0 1,-1 2,0 1,-1 3,0 1,-1 3,0 1,-1 3,0 1,-1 3,0 1,-1 3,0 1,1 2,0 1,1 0,2 -1,1 0,2 -1,1 -2,0 -1,1 -3,0 -1,1 -3,0 -1,1 -3,0 -1,1 -2,0 -1,1 -3,0 -1,1 -3,0 -1,1 -3,0 -1,1 -3,0 -1,1 -3,0 -1,1 -3,0 -1,1 -2,0 -1,1 -3,0 -1,1 -3,0 -1,1 -3,0 -1,1 -3,0 -1,1 -3,0 -1,1 -3,0 -1,1 -2,0 -1,1 -3,0 0,1Z"/>
<path onmouseover="hoverPath(evt)" onmouseout="recoverPath(evt)" fill="rgb(243,242,234)" d="M  66,54l 0,1 -1,1 0,5 -1,1 0,5 -1,1 0,4 -1,1 0,5 -1,1 0,5 -1,1 0,5 -1,1 0,5 -1,1 0,4 -1,1 0,5 -1,1 0,5 -1,1 0,5 -1,1 0,5 -1,1 0,4 -1,1 0,5 -1,1 0,5 -1,1 0,5 -1,1 0,4 1,1 0,3 3,0 1,1 4,0 1,1 3,0 1,1 4,0 1,1 4,0 1,1 3,0 1,1 4,0 1,1 4,0 1,1 1,0 1,-1 0,-1 1,-1 0,-3 1,-1 2,0 0,-1 1,-1 0,-4 1,-1 0,-2 1,-1 0,-1 -1,-1 0,-4 1,-1 1,-1 0,-2 1,-1 0,-1 1,-1 0,-1 1,-1 0,-1 1,-1 0,-1 1,-1 0,-2 1,-1 0,-1 1,-1 0,-1 1,-1 0,-1 1,-1 0,-1 1,-1 0,-1 1,-1 0,-2 1,-1 0,-1 1,-1 0,-1 1,-1 0,-1 1,-1 0,-2 1,-1 0,-1 1,-1 0,-3 1,-1 0,-2 1,-1 2,0 0,-2 -1,-1 0,-4 1,-1 0,-3 1,-1 2,0 0,-2 1,-1 0,-2 -1,-1 0,-4 1,-1 0,-3 1,-1 0,-3 -2,0 -1,-1 -5,0 -1,-1 -4,0 -1,-1 -4,0 -1,-1 -5,0 -1,-1 -4,0 -1,-1 -3,0 -1,-1 -1,0 -1,-1 -1,-1 -1,0 -1,-1 -1,0 -1,-1 -3,0 -1,-1 -4,0 -1,-1 -7,0Z"/>
<path onmouseover="hoverPath(evt)" onmouseout="recoverPath(evt)" fill="rgb(244,243,235)" d="M  212,198l 0,0 -1,1 0,2 1,1 0,4 -1,1 0,3 -1,1 0,2 -1,1 0,3 -1,1 0,1 -1,1 -2,0 0,3 -1,1 0,3 1,1 0,1 2,0 1,1 0,2 -1,1 0,1 1,1 0,0 1,1 1,0 1,1 1,1 1,-1 0,-1 1,-1 1,0 1,-1 1,0 1,-1 1,-1 5,-5 0,-1 4,-4 1,-1 2,-2 0,-1 1,-1 1,-1 1,-1 1,-1 1,-1 1,-1 1,0 1,-1 2,-2 1,-1 1,0 1,-1 1,-1 1,-1 1,0 2,-2 1,-1 1,0 1,-1 1,-1 2,0 0,-112 -2,0 -1,-1 -4,0 -1,-1 -4,0 -1,-1 -4,0 -1,-1 -5,0 -1,-1 -1,1 -2,0 -1,1 -4,0 -1,-1 -5,0 -1,-1 -4,0 -1,-1 -2,0 -1,1 0,2 -1,1 0,2 -1,1 -2,0 0,2 1,1 0,3 -1,1 -2,0 0,2 1,1 0,3 -1,1 -2,0 0,2 1,1 0,4 -1,1 0,2 -1,1 0,2 -1,1 -2,0 0,3 -1,1 0,2 -1,1 0,1 1,1 0,4 -1,1 0,3 -1,1 0,2 -1,1 0,3 -1,1 0,2 -1,1 0,2 -1,1 -2,0 0,1 1,1 0,3 -1,1 -2,0 0,2 1,1 0,4 -1,1 0,2 -1,1 0,1 -1,1 -2,0 0,2 -1,1 0,2 1,1 0,4 -1,1 0,2 1,1 0,2 1,1 0,2 1,0 1,1 1,0 1,1 0,2 6,0 1,1 6,0 1,1 8,0 1,1 1,0 1,1 1,1Z"/>
<path onmouseover="hoverPath(evt)" onmouseout="recoverPath(evt)" fill="rgb(244,243,235)" d="M  226,238l 0,0 -1,1 -1,1 0,1 -1,1 -4,0 -1,-1 -1,0 -1,-1 -1,-1 -1,0 -1,1 1,0 1,1 1,0 -1,-1 3,2 0,4 -1,1 -1,1 -1,1 -3,3 -1,1 -1,1 0,1 45,0 0,-42 -2,0 -1,1 0,0 -1,1 -1,0 -1,1 -1,1 -3,3 -1,1 -3,3 -1,1 -6,6 -1,1 -1,0 -1,1 -1,1 -1,1 -3,3Z"/>
<path onmouseover="hoverPath(evt)" onmouseout="recoverPath(evt)" fill="rgb(171,198,238)" d="M  234,218l 0,0 -1,1 0,1 -1,1 -1,1 -4,4 -1,1 0,1 -1,1 -2,2 -1,1 -2,2 -1,1 -1,1 -1,0 -1,1 -1,0 2,1 0,0 1,1 1,0 1,1 2,0 0,-1 1,-1 1,-1 1,-1 1,-1 1,-1 1,-1 1,-1 2,-2 1,0 2,-2 1,-1 9,-9 1,-1 1,-1 1,-1 1,-1 1,-1 1,0 2,-2 3,0 0,-9 -1,0 -1,1 0,0 -1,1 -1,0 -1,1 -1,1 -1,1 -1,0 -2,2 -1,1 -1,0 -1,1 -2,2 -1,1 -1,0 -1,1 -1,1 -2,2Z"/>
<path onmouseover="hoverPath(evt)" onmouseout="recoverPath(evt)" fill="rgb(243,242,234)" d="M  0,155l 0,90 6,0 1,1 7,0 1,1 8,0 1,1 2,0 1,-1 0,-3 1,-1 0,-4 1,-1 0,-5 1,-1 0,-5 1,-1 0,-5 1,-1 0,-4 1,-1 0,-5 1,-1 0,-5 1,-1 0,-5 1,-1 0,-4 1,-1 0,-5 1,-1 0,-5 1,-1 0,-5 1,-1 0,-4 1,-1 0,-5 1,-1 0,-2 -1,-1 -4,0 -1,-1 -5,0 -1,-1 -4,0 -1,-1 -5,0 -1,-1 -4,0 -1,-1 -4,0 -1,-1 -4,0 -1,-1 -4,0Z"/>
<path onmouseover="hoverPath(evt)" onmouseout="recoverPath(evt)" fill="rgb(253,253,253)" d="M  206,82l 0,0 1,-1 1,-1 4,0 1,1 4,0 1,1 5,0 1,1 2,0 1,-1 2,0 1,-1 2,0 1,1 5,0 1,1 4,0 1,1 4,0 1,1 4,0 1,1 1,0 0,-2 -5,0 -1,-1 -5,0 -1,-1 -4,0 -1,-1 -4,0 -1,-1 -3,0 -1,-1 -3,0 -1,-1 -2,0 -1,-1 -4,0 -1,-1 -4,0 -1,-1 -4,0 -1,-1 -5,0 -1,-1 -4,0 -1,-1 -4,0 -1,-1 -4,0 -1,-1 -4,0 -1,-1 -3,0 -1,-1 -3,0 -1,-1 -9,0 -1,1 2,0 1,1 0,1 1,0 1,1 1,1 1,1 2,0 1,1 3,0 1,1 5,0 1,1 5,0 1,1 5,0 1,1 5,0 1,1 3,0 1,1 1,1Z"/>
</svg>