<svg width="256" height="256" xmlns="http://www.w3.org/2000/svg"><script> 
var tempColor;
function hoverPath(evt){
obj = evt.target;
tempColor = obj.getAttribute("fill");
obj.setAttribute("fill","red");
//alert(tempColor);
//obj.setAttribute("stroke","red");}
function recoverPath(evt){
obj = evt.target;
obj.setAttribute("fill", tempColor);
//obj.setAttribute("stroke", tempColor);
}</script><path onmouseover="hoverPath(evt)" onmouseout="recoverPath(evt)" fill="rgb(239,238,229)" d="M  0,78l 0,65 6,0 1,-1 10,0 1,-1 8,0 1,-1 1,0 0,-14 -2,0 -1,-1 0,-4 -1,-1 0,-4 1,-1 0,-6 1,-1 0,-10 1,-1 2,0 1,1 0,11 1,1 0,-7 1,-1 6,0 0,-1 1,-1 2,0 0,-3 -3,0 -1,-1 0,-5 -1,-1 -2,0 -1,1 -3,0 -1,-1 0,0 -1,1 -2,0 -1,-1 0,-10 -1,-1 0,-3 -1,-1 -23,0Z"/>
<path onmouseover="hoverPath(evt)" onmouseout="recoverPath(evt)" fill="rgb(244,243,236)" d="M  0,160l 0,57 7,0 1,1 14,0 1,1 16,0 1,1 16,0 1,1 15,0 1,1 0,2 8,0 1,-1 3,0 0,-7 -1,-1 0,-7 -1,-1 0,-3 -1,-1 0,-4 -1,-1 0,-2 1,-1 0,-1 1,-1 1,-1 1,-1 1,0 1,-1 48,0 1,-1 1,0 -1,-1 0,0 -1,-1 0,-2 1,-1 0,-2 -1,-1 0,-10 -1,-1 0,-2 1,-1 0,-2 -1,-1 0,-5 1,-1 -1,-1 -1,-1 0,-2 1,-1 0,-1 -1,-1 0,-5 -1,1 -5,0 -1,1 -7,0 -1,1 -5,0 -1,1 -4,0 -1,1 -9,0 -1,1 -13,0 -1,1 -14,0 -1,1 -12,0 -1,1 -9,0 -1,1 -7,0 -1,1 -11,0 -1,1 -14,0 -1,1 -9,0 -1,1Z"/>
<path onmouseover="hoverPath(evt)" onmouseout="recoverPath(evt)" fill="rgb(244,242,235)" d="M  0,224l 0,14 74,0 1,-1 8,0 0,-1 1,-1 0,-7 1,-1 -3,0 -1,-1 -9,0 -1,-1 0,-2 -15,0 -1,-1 -16,0 -1,-1 -16,0 -1,-1 -14,0 -1,-1 -6,0Z"/>
<path onmouseover="hoverPath(evt)" onmouseout="recoverPath(evt)" fill="rgb(241,240,228)" d="M  0,150l 0,3 15,0 1,-1 12,0 1,-1 11,0 1,-1 11,0 1,-1 7,0 1,-1 6,0 1,-1 14,0 1,-1 11,0 1,-1 9,0 1,-1 8,0 1,-1 9,0 1,-1 6,0 1,-1 1,0 1,-1 0,-1 -1,-1 0,-4 -1,0 -1,1 -8,0 -1,1 -8,0 -1,1 -8,0 -1,1 -8,0 -1,1 -8,0 -1,1 -8,0 -1,1 -9,0 -1,1 -8,0 -1,1 -8,0 -1,1 -8,0 -1,1 -6,0 -1,1 -12,0 -1,1 -9,0 -1,1 -9,0Z"/>
<path onmouseover="hoverPath(evt)" onmouseout="recoverPath(evt)" fill="rgb(242,241,233)" d="M  82,54l 0,4 1,0 1,-1 0,0 1,-1 1,-1 1,-1 1,-1 1,-1 0,-1 1,-1 1,-1 1,-1 0,-1 1,-1 1,-1 0,-1 -1,-1 0,-4 -1,-1 -1,-1 0,-5 1,-1 0,-4 1,-1 0,-1 1,-1 1,-1 6,0 0,-1 1,-1 0,-3 -19,0 -1,1 -36,0 -1,1 -6,0 -1,-1 0,-3 1,-1 36,0 1,-1 29,0 0,-1 1,-1 6,0 1,1 1,1 0,1 2,0 0,-3 -1,-1 0,-7 1,-1 1,0 1,-1 4,0 1,1 0,-1 -1,-1 0,-1 -99,0 0,2 -1,1 0,5 1,1 0,18 1,1 0,21 1,1 0,2 -1,1 -1,0 0,7 -1,1 -5,0 -1,1 -16,0 0,8 23,0 0,-1 1,-1 0,-5 1,-1 2,0 1,1 0,5 32,0 0,-1 -1,-1 0,-4 1,-1 3,0 0,-4 1,-1 5,0 0,-4 1,-1 3,0 1,-1 0,-5 1,-1 1,-1 5,0 1,1 0,1 1,1 0,3 -1,1Z"/>
<path onmouseover="hoverPath(evt)" onmouseout="recoverPath(evt)" fill="rgb(254,254,254)" d="M  149,130l 6,0 1,-1 8,0 1,-1 8,0 1,-1 8,0 1,-1 8,0 1,-1 8,0 1,-1 8,0 1,-1 8,0 1,-1 8,0 1,-1 10,0 1,-1 11,0 1,-1 2,0 1,1 1,0 0,-2 -5,0 -1,1 -11,0 -1,1 -10,0 -1,1 -8,0 -1,1 -8,0 -1,1 -8,0 -1,1 -8,0 -1,1 -7,0 -1,1 -8,0 -1,1 -8,0 -1,1 -8,0 -1,1 -5,0 -1,1Z"/>
<path onmouseover="hoverPath(evt)" onmouseout="recoverPath(evt)" fill="rgb(241,240,229)" d="M  149,134l 0,3 1,1 2,0 1,-1 4,0 1,-1 2,0 1,-1 7,0 1,-1 48,0 1,-1 9,0 1,-1 7,0 1,-1 7,0 1,-1 11,0 0,-8 -2,0 -1,-1 -1,1 -11,0 -1,1 -10,0 -1,1 -8,0 -1,1 -8,0 -1,1 -8,0 -1,1 -8,0 -1,1 -8,0 -1,1 -8,0 -1,1 -8,0 -1,1 -8,0 -1,1 -7,0Z"/>
<path onmouseover="hoverPath(evt)" onmouseout="recoverPath(evt)" fill="rgb(244,243,236)" d="M  150,144l 0,7 1,1 0,3 -1,1 0,2 1,1 0,8 1,1 0,2 -1,1 0,3 1,1 0,3 -1,1 1,1 0,5 -1,1 0,2 2,0 1,1 6,0 1,-1 3,0 1,-1 1,-1 0,-14 1,-1 0,-9 1,-1 0,-10 1,-1 0,-9 -6,0 -1,1 -5,0 -1,1 -5,0 -1,1Z"/>
<path onmouseover="hoverPath(evt)" onmouseout="recoverPath(evt)" fill="rgb(244,243,234)" d="M  158,34l -4,4 -1,1 -1,1 -2,0 -1,-1 -1,-1 0,-4 1,-1 1,-1 2,-2 1,-1 1,-1 2,0 0,-1 1,-1 2,-2 1,-1 1,-1 0,-1 1,-1 -1,-1 0,0 -1,-1 0,-2 1,-1 3,0 1,-1 1,0 2,-2 1,-1 1,0 1,-1 1,-1 0,-1 1,-1 0,-2 1,-1 0,-4 -15,0 0,1 1,1 0,6 -1,1 -1,1 -1,1 -1,0 -1,1 -4,0 -1,-1 -1,0 -1,-1 -2,-2 0,-5 -1,-1 0,-2 -6,0 0,3 -1,1 1,0 1,1 1,1 0,6 -1,1 0,2 1,1 0,4 -1,1 1,1 0,4 1,1 0,5 -1,1 1,0 1,1 0,2 -1,1 0,1 1,1 0,5 -1,1 0,1 -1,1 0,4 1,1 0,4 1,0 1,1 0,1 1,1 0,4 -1,1 0,2 1,1 0,8 1,1 0,2 -1,1 0,2 -1,1 0,2 1,1 1,1 0,2 1,1 0,2 -1,1 0,2 1,1 0,9 1,1 0,2 -1,1 0,2 1,1 0,9 1,1 0,2 -1,1 0,1 1,1 0,1 5,0 1,-1 8,0 1,-1 8,0 1,-1 8,0 1,-1 7,0 1,-1 8,0 1,-1 8,0 1,-1 8,0 1,-1 8,0 1,-1 10,0 1,-1 11,0 1,-1 6,0 0,-73 -2,0 -1,-1 -2,0 -1,1 -12,0 -1,1 -8,0 -1,1 -9,0 -1,1 -2,0 -1,-1 -1,-1 -1,-1 0,-3 -1,-1 0,-8 -1,-1 0,-8 -1,-1 0,-5 -1,-1 0,-4 -8,0 -1,1 -8,0 -1,-1 0,-3 1,-1 5,0 1,-1 8,0 1,-1 1,0 0,-5 -25,0 0,8 -1,1 0,1 -1,1 0,1 -1,1 0,1 -1,1 -1,1 -2,2 -1,1 -1,0 0,1 -1,1 -1,1 -2,2 -1,1 -1,1 -1,1 -1,1 -1,1 -1,1 -2,0 0,1 -3,3Z"/>
<path onmouseover="hoverPath(evt)" onmouseout="recoverPath(evt)" fill="rgb(243,242,236)" d="M  158,246l -1,0 1,1 0,3 1,1 0,4 96,0 0,-37 -1,0 0,4 -1,1 0,2 1,1 0,4 -1,1 -2,0 0,2 -1,1 0,3 -1,1 0,1 -1,1 0,2 -1,1 0,1 -1,1 -87,0 -1,1Z"/>
<path onmouseover="hoverPath(evt)" onmouseout="recoverPath(evt)" fill="rgb(242,241,230)" d="M  215,11l -1,0 0,8 1,1 0,7 1,1 0,9 1,1 0,1 1,1 7,0 1,-1 8,0 1,-1 11,0 1,-1 5,0 0,-9 -1,-1 0,-9 -1,-1 0,-7 -1,-1 0,-1 -10,0 -1,1 -12,0 -1,1 -9,0 -1,1Z"/>
<path onmouseover="hoverPath(evt)" onmouseout="recoverPath(evt)" fill="rgb(244,243,235)" d="M  0,1l 0,59 15,0 1,-1 5,0 0,-7 1,-1 1,0 -1,-1 0,-21 -1,-1 0,-18 -1,-1 0,-7 1,-1 0,-1 -20,0 -1,1Z"/>
<path onmouseover="hoverPath(evt)" onmouseout="recoverPath(evt)" fill="rgb(254,254,254)" d="M  1,73l 23,0 1,1 1,1 0,3 1,1 0,-4 1,-1 1,0 1,-1 11,0 0,-1 -13,0 -1,-1 0,-1 -1,-1 0,-5 -1,6 0,1 -1,1 -22,0 -1,1 -1,-1Z"/>
<path onmouseover="hoverPath(evt)" onmouseout="recoverPath(evt)" fill="rgb(171,198,238)" d="M  0,241l 0,3 41,0 1,-1 70,0 0,-3 -21,0 -1,-1 -1,0 -1,-1 0,-10 -1,0 -1,1 0,7 -1,1 0,1 -1,1 -8,0 -1,1 -74,0 -1,1Z"/>
<path onmouseover="hoverPath(evt)" onmouseout="recoverPath(evt)" fill="rgb(244,243,236)" d="M  0,247l 0,8 141,0 0,-1 -1,-1 0,-7 -1,-1 -22,0 -1,-1 0,-4 -1,-1 0,-3 1,-1 0,-5 -1,-1 -4,0 -1,-1 -8,0 -1,1 -6,0 -1,-1 0,-2 -4,0 -1,-1 -1,0 -1,-1 -1,1 -3,0 4,1 2,0 1,1 0,10 1,0 1,1 21,0 1,1 0,5 -1,1 -70,0 -1,1 -41,0 -1,1Z"/>
<path onmouseover="hoverPath(evt)" onmouseout="recoverPath(evt)" fill="rgb(254,254,254)" d="M  2,145l -2,0 0,1 8,0 1,-1 9,0 1,-1 12,0 1,-1 6,0 1,-1 8,0 1,-1 8,0 1,-1 8,0 1,-1 9,0 1,-1 8,0 1,-1 8,0 1,-1 8,0 1,-1 8,0 1,-1 8,0 1,-1 8,0 1,-1 2,0 0,-1 -3,0 -1,1 -8,0 -1,1 -8,0 -1,1 -8,0 -1,1 -8,0 -1,1 -9,0 -1,1 -7,0 -1,1 -8,0 -1,1 -8,0 -1,1 -8,0 -1,1 -8,0 -1,1 -5,0 -1,-1 -1,-1 0,-4 -1,-1 0,6 -1,1 -1,0 -1,1 -8,0 -1,1 -10,0 -1,1Z"/>
<path onmouseover="hoverPath(evt)" onmouseout="recoverPath(evt)" fill="rgb(241,240,232)" d="M  34,104l -1,0 0,17 -1,1 -2,0 -1,-1 0,-10 -1,-1 0,-11 -1,11 0,6 -1,1 0,2 1,1 0,4 1,0 1,-1 2,0 1,1 0,10 1,1 0,4 1,1 3,0 1,-1 8,0 1,-1 8,0 1,-1 8,0 1,-1 8,0 1,-1 7,0 1,-1 9,0 1,-1 8,0 1,-1 8,0 1,-1 8,0 1,-1 8,0 1,-1 4,0 0,-1 1,-1 -1,-1 0,0 -1,-1 0,-2 1,-1 0,-2 -1,-1 0,-6 1,-1 0,-1 -1,-1 -1,-1 0,-2 1,-1 0,-2 -1,-1 0,-9 -1,-1 0,-2 1,-1 0,-2 -1,-1 0,-12 -1,-1 0,-10 -1,-1 0,-10 -1,-1 0,-2 1,-1 0,-2 -1,-1 0,-12 -1,-1 0,-6 -1,-1 0,-3 1,-1 -1,-1 0,-14 1,-1 0,-2 -1,1 -2,0 -1,-1 -2,0 -1,1 -1,0 0,5 1,1 0,5 -1,1 -4,0 -1,-1 0,-1 -1,-1 -4,0 0,1 -1,1 -29,0 -1,1 -36,0 0,1 4,0 33,-1 27,0 0,5 -1,1 0,1 -1,1 -6,0 -1,1 0,1 -1,1 0,4 -1,1 0,3 1,1 0,0 1,1 0,4 1,1 0,3 -1,1 -1,1 0,1 -2,2 -1,1 0,1 -1,1 -1,1 -1,1 -1,1 -1,1 -1,1 -1,1 -3,0 -1,-1 0,-10 1,-1 0,-1 -1,-1 0,-1 -3,0 -1,1 0,5 -1,1 -1,1 -3,0 0,4 -1,1 -5,0 0,4 -1,1 -3,0 0,2 1,1 0,3 -1,1 -32,0 14,1 0,3 -1,1 -11,0 0,14 1,0 1,-1 4,0 1,1 1,1 0,5 3,0 1,1 0,5 -1,1 -2,0 0,1 -1,1 -5,0 38,-33 1,-1 38,0 0,-1 1,-1 0,-3 -1,-1 0,-17 -1,-1 0,-2 1,-1 0,-6 1,-1 2,0 1,1 0,23 1,1 0,10 -1,1 0,1 -2,2 -40,0 -1,-1 0,-3 -38,33Z"/>
<path onmouseover="hoverPath(evt)" onmouseout="recoverPath(evt)" fill="rgb(254,254,254)" d="M  74,73l 38,0 1,-1 0,-1 1,-1 0,-8 -1,-1 0,-23 -1,7 0,0 1,17 0,8 -1,2 -37,0 -1,1Z"/>
<path onmouseover="hoverPath(evt)" onmouseout="recoverPath(evt)" fill="rgb(244,243,236)" d="M  89,197l -1,1 0,1 1,1 0,4 1,1 0,7 1,1 0,11 4,0 1,1 0,2 4,0 1,-1 10,0 1,1 4,0 1,1 1,1 0,7 -1,1 0,1 21,0 1,-1 0,-3 1,-1 -1,-1 0,-5 -1,-1 0,-7 -1,-1 0,-2 1,-1 0,-2 -1,-1 0,-6 1,-1 0,-1 -1,-1 -1,-1 0,-2 1,-1 0,-2 -1,-1 0,-1 -28,0 -1,1 -17,0 -1,1Z"/>
<path onmouseover="hoverPath(evt)" onmouseout="recoverPath(evt)" fill="rgb(179,161,238)" d="M  126,0l -2,0 1,1 0,1 1,0 1,1 0,4 -1,1 0,12 1,1 0,2 -1,1 0,1 1,1 0,6 1,1 0,12 1,1 0,4 -1,1 1,1 0,10 1,1 0,10 1,1 0,12 1,1 0,4 -1,1 1,1 0,9 1,1 0,4 -1,1 1,1 1,1 0,3 -1,1 0,4 1,1 0,4 -1,1 1,1 1,1 0,2 -1,1 0,8 1,1 0,3 -1,1 -1,1 -1,0 -1,1 -6,0 -1,1 -9,0 -1,1 -8,0 -1,1 -9,0 -1,1 -11,0 -1,1 -14,0 -1,1 -6,0 -1,1 -7,0 -1,1 -11,0 -1,1 -11,0 -1,1 -12,0 -1,1 -16,0 0,2 9,0 1,-1 14,0 1,-1 11,0 1,-1 7,0 1,-1 9,0 1,-1 12,0 1,-1 14,0 1,-1 13,0 1,-1 9,0 1,-1 4,0 1,-1 5,0 1,-1 7,0 1,-1 5,0 1,-1 2,0 1,1 0,5 1,1 0,3 -1,1 1,1 1,1 0,2 -1,1 0,3 1,1 0,4 -1,1 1,1 0,10 1,1 0,4 -1,1 1,1 1,1 0,2 -1,1 -1,0 -1,1 -48,0 -1,1 -1,0 -1,1 -1,1 0,1 -1,1 1,1 0,4 1,1 0,3 1,1 0,7 1,1 0,7 1,0 1,1 0,-9 -1,-1 0,-7 -1,-1 0,-4 -1,-1 0,-3 1,-1 0,-1 1,-1 18,0 1,-1 30,0 1,1 0,1 1,1 0,4 -1,1 1,1 1,1 0,3 -1,1 0,4 1,1 0,4 -1,1 1,1 0,7 1,1 0,5 1,1 0,2 -1,1 0,3 -1,1 -1,1 -21,0 0,3 22,0 1,1 1,1 0,7 1,1 0,2 14,0 0,-3 -1,-1 0,-3 -1,-1 0,-2 1,-1 1,0 1,-1 87,0 0,-1 1,-1 0,-1 -2,0 -1,-1 -13,0 -1,1 -70,0 -1,1 -4,0 -1,-1 0,-4 1,-1 -1,-1 0,-4 1,-1 0,-2 1,-1 -1,0 -1,-1 0,-2 1,-1 0,-2 -1,-1 0,-3 1,-1 -1,-1 0,-4 -1,-1 0,-4 1,-1 -1,-1 -1,-1 0,-2 1,-1 0,-3 -1,-1 0,-2 1,-1 20,0 1,-1 9,0 1,1 38,0 1,-1 22,0 1,1 10,0 0,-1 -64,0 -1,-1 -15,0 -1,-1 -2,0 -1,-1 -1,-1 0,-5 -1,-1 0,-9 -1,1 0,14 -1,1 -2,2 -3,0 -1,1 -8,0 -1,-1 -2,0 -1,-1 0,-4 1,-1 0,-3 -1,-1 0,-2 1,-1 0,-1 -1,-1 0,-5 1,-1 -1,-1 0,-8 -1,-1 0,-4 1,-1 0,-1 -1,-1 0,-9 1,-1 1,-1 5,0 1,-1 5,0 1,-1 8,0 1,1 0,11 -1,1 0,10 -1,1 0,8 1,0 0,-8 1,-8 0,-3 1,-10 0,-2 1,-1 1,-1 25,0 1,-1 25,0 1,-1 4,0 1,-1 5,0 1,-1 11,0 1,-1 6,0 0,-1 -10,0 -1,1 -7,0 -1,1 -7,0 -1,1 -9,0 -1,1 -48,0 -1,1 -7,0 -1,1 -2,0 -1,1 -4,0 -1,1 -4,0 -1,-1 -1,-1 0,-11 -1,-1 0,-3 1,-1 -1,-1 0,-9 -1,-1 0,-4 1,-1 -1,-1 0,-9 -1,-1 0,-4 1,-1 -1,-1 0,-2 -1,-1 -1,-1 0,-4 1,-1 0,-2 1,-1 -1,-1 0,-8 -1,-1 0,-4 1,-1 0,-2 -1,-1 0,-1 -1,0 -1,-1 0,-4 -1,-1 0,-6 1,-1 0,-1 1,-1 0,-3 -1,-1 0,-3 1,-1 -1,0 -1,-1 0,-2 1,-1 0,-3 -1,-1 0,-4 -1,-1 0,-2 1,-1 0,-2 -1,-1 0,-4 1,-1 0,-4 -1,-1 -1,0 -1,-1 0,-2 1,-1 0,-2Z"/>
<path onmouseover="hoverPath(evt)" onmouseout="recoverPath(evt)" fill="rgb(176,201,238)" d="M  147,1l 0,0 1,1 0,5 1,1 1,1 1,0 1,1 2,0 1,-1 1,0 1,-1 1,-1 0,-4 -1,-1 0,-2 -9,0 -1,1Z"/>
<path onmouseover="hoverPath(evt)" onmouseout="recoverPath(evt)" fill="rgb(244,243,236)" d="M  154,195l 0,5 -1,1 1,1 1,1 0,2 -1,1 0,2 1,1 0,4 1,1 0,2 -1,1 0,1 1,1 0,4 -1,1 1,0 1,1 0,2 -1,1 0,2 -1,1 0,2 1,1 0,2 -1,1 0,2 2,0 1,-1 70,0 1,-1 15,0 1,1 2,0 0,-1 1,-1 0,-3 1,-1 0,-2 1,-1 2,0 0,-2 -1,-1 0,-4 1,-1 0,-4 1,-1 2,0 0,-22 -11,0 -1,-1 -20,0 -1,1 -40,0 -1,-1 -7,0 -1,1 -18,0 -1,1Z"/>
<path onmouseover="hoverPath(evt)" onmouseout="recoverPath(evt)" fill="rgb(240,228,136)" d="M  155,30l 0,0 -1,1 -1,1 -1,1 -1,1 -1,1 0,2 1,1 1,-1 7,-7 0,-1 1,-1 2,0 1,-1 1,-1 1,-1 1,-1 1,-1 1,-1 1,-1 1,-1 1,-1 0,-1 1,-1 1,0 1,-1 1,-1 1,-1 1,-1 0,-1 1,-1 0,-1 1,-1 0,-1 1,-1 0,-7 -4,0 0,5 -1,1 0,2 -1,1 0,1 -1,1 -1,1 -1,1 -1,0 -1,1 -1,1 -1,1 -1,0 -1,1 -3,0 1,1 1,1 0,2 -1,1 0,1 -2,2 -1,1 -1,1 -1,1 0,1 -1,1Z"/>
<path onmouseover="hoverPath(evt)" onmouseout="recoverPath(evt)" fill="rgb(244,243,236)" d="M  174,141l 0,2 -1,1 0,12 -1,1 0,15 -1,1 0,7 1,1 0,5 1,1 2,0 1,1 15,0 1,1 63,0 0,-54 -5,0 -1,1 -11,0 -1,1 -5,0 -1,1 -4,0 -1,1 -25,0 -1,1 -25,0 -1,1Z"/>
<path onmouseover="hoverPath(evt)" onmouseout="recoverPath(evt)" fill="rgb(252,252,251)" d="M  192,9l 0,1 6,0 1,-1 10,0 1,1 0,4 1,1 0,5 1,1 0,8 1,1 0,8 1,1 0,3 1,1 1,1 1,-1 9,0 1,-1 8,0 1,-1 12,0 1,-1 4,0 1,1 1,0 0,-37 -5,0 -1,1 -12,0 -1,1 -12,0 -1,1 -11,0 -1,-1 0,-1 -1,-1 0,-4 -1,0 0,6 -1,1 -1,0 -1,1 -8,0 -1,1 -5,0 23,-1 9,0 1,-1 12,0 1,-1 12,0 1,1 0,1 1,1 0,7 1,1 0,9 1,1 0,11 -1,1 -5,0 -1,1 -11,0 -1,1 -8,0 -1,1 -9,0 -1,-1 -1,-1 0,-1 -1,-1 0,-9 -1,-1 0,-7 -1,-1 0,-10 1,-1 1,0 1,-1 -23,1Z"/>
<path onmouseover="hoverPath(evt)" onmouseout="recoverPath(evt)" fill="rgb(237,236,220)" d="M  213,0l -1,0 0,3 1,1 0,1 9,0 1,-1 12,0 1,-1 12,0 1,-1 6,0 0,-2Z"/>
</svg>