<svg width="256" height="256" xmlns="http://www.w3.org/2000/svg"><script> 
var tempColor;
function hoverPath(evt){
obj = evt.target;
tempColor = obj.getAttribute("fill");
obj.setAttribute("fill","red");
//alert(tempColor);
//obj.setAttribute("stroke","red");}
function recoverPath(evt){
obj = evt.target;
obj.setAttribute("fill", tempColor);
//obj.setAttribute("stroke", tempColor);
}</script><path onmouseover="hoverPath(evt)" onmouseout="recoverPath(evt)" fill="rgb(244,243,235)" d="M  209,188l 0,1 1,1 0,1 1,1 0,1 1,1 0,1 1,1 0,1 1,1 0,1 1,1 0,1 1,1 0,1 1,1 1,1 0,1 1,1 0,1 1,1 0,1 1,1 0,1 1,1 0,1 1,1 0,1 1,1 0,1 1,0 1,-1 1,0 1,-1 1,0 1,-1 1,0 1,-1 1,0 1,-1 2,0 1,-1 1,0 1,-1 1,0 1,-1 1,0 1,-1 1,0 1,-1 1,0 1,-1 1,0 1,-1 1,0 1,-1 1,0 1,-1 2,0 0,-80 -2,0 0,2 -1,1 -1,0 -1,1 -2,0 -1,-1 -1,1 -1,0 -1,1 -2,0 -1,1 -1,0 -1,1 -1,0 -1,1 -1,0 -1,1 -1,0 -1,1 -1,0 0,2 -1,1 -2,0 -1,-1 -1,1 -1,0 -1,1 -2,0 -1,1 -1,0 -1,1 -1,0 -1,1 -1,0 0,2 -1,1 -1,0 -1,1 -2,0 -1,-1 0,2 -1,1 -2,0 -1,-1 -1,0 -1,1 -1,0 -1,1 -1,0 -1,1 -1,0 -1,1 -1,0 -1,1 -1,0 -1,1 -1,0 -1,1 -1,0 -1,1 1,1 0,1 1,1 0,1 1,1 0,1 1,1 0,1 1,1 0,1 1,1 0,1 1,1 0,1 1,1 0,1 1,0 1,1 0,2 -1,1 1,1 0,0 1,1 0,1 2,0 1,1 0,1 1,1 0,2 4,0 1,1 0,2 -1,1 -2,0 0,1 1,1 5,-6 0,-2 1,-1 2,0 1,1 0,2 -1,1 -2,0 -1,-1 -5,6 -4,-15 -1,-1 0,-2 1,-1 1,0 1,-1 1,0 1,-1 2,0 1,1 0,2 -1,1 -1,0 -1,1 -1,0 -1,1 -2,0 4,15 6,-19 0,-2 1,-1 2,0 1,1 0,2 -1,1 -2,0 -1,-1 -6,19Z"/>
<path onmouseover="hoverPath(evt)" onmouseout="recoverPath(evt)" fill="rgb(244,243,235)" d="M  228,224l 0,1 1,1 0,1 1,1 0,1 1,1 0,1 1,1 0,1 1,1 0,1 1,1 0,1 1,1 0,1 1,1 0,1 1,1 0,1 1,1 0,1 1,0 1,1 0,2 -1,1 1,1 0,1 1,0 1,1 0,3 13,0 0,-49 -1,0 -1,1 -1,0 -1,1 -1,0 -1,1 -1,0 -1,1 -1,0 -1,1 -1,0 -1,1 -1,0 -1,1 -1,0 -1,1 -1,0 -1,1 -2,0 -1,1 -1,0 -1,1 -1,0 -1,1 -1,0 -1,1 -1,0 -1,1 -1,0 0,1 1,0 1,1 0,1 1,1Z"/>
<path onmouseover="hoverPath(evt)" onmouseout="recoverPath(evt)" fill="rgb(239,243,238)" d="M  229,43l -1,0 -1,1 1,1 0,1 6,0 1,-1 15,0 1,-1 4,0 0,-14 -5,0 -1,1 0,0 -1,1 -1,0 -1,1 -1,0 -1,1 -1,1 -1,0 -1,1 -2,0 0,1 -1,1 -1,0 0,1 -1,1 -2,0 -1,1 0,1 -1,1Z"/>
<path onmouseover="hoverPath(evt)" onmouseout="recoverPath(evt)" fill="rgb(244,243,236)" d="M  0,1l 0,56 1,0 1,1 1,1 0,1 1,1 1,1 0,1 1,1 1,1 0,1 1,1 0,1 1,1 1,1 0,1 1,1 1,1 0,1 1,1 0,1 1,1 1,1 0,2 1,0 1,1 0,1 1,1 1,1 0,1 1,1 0,2 1,0 1,1 0,1 1,1 0,1 1,1 1,1 0,1 1,1 1,1 0,1 1,1 0,1 1,1 1,1 0,1 1,1 1,1 0,1 1,1 0,1 1,1 1,1 1,1 0,1 1,1 0,1 1,1 1,1 0,1 1,1 1,1 0,1 1,1 1,1 0,1 1,1 1,1 0,1 1,1 1,1 0,1 1,1 1,1 0,1 1,1 0,2 1,0 1,1 0,2 1,0 1,1 0,2 1,0 1,1 0,2 1,1 0,1 1,1 0,1 1,0 1,1 0,1 1,1 0,1 1,1 1,0 1,-1 2,0 1,-1 2,0 1,-1 2,0 1,-1 1,0 1,-1 2,0 1,-1 2,0 1,-1 2,0 1,-1 1,0 1,-1 2,0 1,-1 2,0 1,-1 1,0 -1,-1 0,0 -1,-1 0,-3 1,-1 1,0 1,-1 2,0 1,-1 1,-1 2,0 1,-1 2,0 1,-1 2,0 1,1 0,1 1,1 0,2 1,0 1,-1 1,0 1,-1 1,0 1,-1 1,0 1,-1 0,-1 -3,0 -1,-1 0,-2 1,-1 2,0 0,-2 -2,0 -1,-1 0,-1 -1,-1 0,-1 -1,-1 -1,-1 0,-1 -1,-1 0,-1 -1,-1 0,-2 -1,-1 -1,-1 0,-1 -1,-1 -1,-1 -1,-1 -1,-1 0,-1 -1,0 -1,-1 0,-1 -1,-1 -1,-1 0,-1 -1,-1 0,-1 -1,-1 -1,-1 0,-1 -1,-1 0,-1 -1,-1 0,-1 -1,-1 0,-1 -1,-1 0,-1 -1,-1 0,-1 -1,-1 0,-1 -1,-1 0,-1 -1,-1 0,-1 -1,-1 0,-1 -1,-1 0,-1 -1,-1 -1,-1 0,-1 -1,-1 0,-1 -1,-1 0,-1 -1,-1 0,-1 -1,-1 0,-1 -1,-1 0,-1 -1,-1 -1,-1 0,-1 -1,-1 0,-1 -1,-1 0,-1 -1,-1 0,-1 -1,-1 0,-1 -1,-1 0,-1 -1,-1 0,-1 -3,0 -1,-1 0,-1 -1,-1 0,-2 1,-1 0,-1 -1,-1 0,-1 -1,-1 0,-1 -1,-1 0,-1 -1,-1 0,-1 -1,-1 -1,-1 0,-1 -1,-1 0,-1 -1,-1 0,-1 -1,-1 0,-1 -1,-1 0,-1 -1,-1 0,-1 -1,-1 0,-1 -1,-1 0,-1 -1,-1 -1,-1 0,-1 -1,-1 0,-1 -1,-1 0,-1 -1,-1 0,-1 -1,-1 0,-1 -1,-1 -1,-1 0,-2 -43,0 -1,1Z"/>
<path onmouseover="hoverPath(evt)" onmouseout="recoverPath(evt)" fill="rgb(243,242,234)" d="M  15,148l 0,0 -1,1 0,1 -1,1 -1,1 0,3 1,1 0,1 1,1 0,1 1,1 0,1 1,1 1,1 0,2 1,1 0,1 1,1 2,0 1,-1 2,0 1,-1 2,0 1,-1 1,0 1,-1 2,0 1,-1 2,0 1,-1 2,0 1,-1 2,0 1,-1 2,0 1,-1 2,0 1,-1 1,0 1,-1 0,-1 1,-1 -1,-1 0,-2 -1,-1 0,-1 -1,-1 0,-1 -1,-1 0,-1 -1,-1 -1,-1 0,-1 -1,-1 -1,-1 0,-2 -5,0 -1,-1 -1,1 -3,0 0,2 -1,1 -3,0 -1,-1 -1,0 -1,1 -3,0 -1,1 -2,0 0,2 -1,1 -1,0 -1,1 -1,0 -1,1Z"/>
<path onmouseover="hoverPath(evt)" onmouseout="recoverPath(evt)" fill="rgb(244,243,236)" d="M  34,233l 0,0 1,1 0,1 1,1 1,1 0,2 1,0 1,1 1,1 0,1 1,1 1,1 0,1 1,1 1,1 0,2 1,0 1,1 1,1 0,1 1,1 0,2 51,0 0,-1 -1,-1 0,-1 -1,-1 0,-1 -1,-1 0,-1 -1,-1 -1,-1 0,-1 -1,-1 0,-1 -1,-1 0,-1 -1,-1 0,-1 -1,-1 -1,-1 0,-1 -1,-1 0,-1 -1,-1 0,-1 -1,-1 0,-1 -1,-1 -1,-1 0,-1 -1,-1 0,-1 -1,-1 0,-1 -1,-1 -1,-1 0,-1 -1,-1 0,-1 -1,-1 0,-1 -1,-1 0,-1 -1,-1 0,1 -1,1 -1,1 -1,0 -1,1 -1,0 -1,1 -3,0 -1,-1 -1,0 0,2 -1,1 -1,0 -1,1 -2,0 -1,-1 -1,0 -1,1 -1,0 0,2 -1,1 -1,1 -4,0 -1,-1 -1,0 -1,1 -1,0 0,2 -1,1 -1,0 -1,1 -3,0 -1,-1 -1,1 -3,0 -1,1Z"/>
<path onmouseover="hoverPath(evt)" onmouseout="recoverPath(evt)" fill="rgb(244,243,236)" d="M  59,1l 0,1 1,1 0,1 1,1 0,1 1,1 0,1 1,1 0,1 1,1 0,1 1,1 1,1 0,1 1,1 0,1 1,1 0,1 1,1 0,1 1,1 0,1 1,1 0,1 1,1 1,1 0,1 1,1 0,1 1,1 0,1 1,1 0,1 1,1 1,1 0,1 1,1 0,1 1,1 0,1 1,1 0,1 1,1 0,1 1,1 0,1 1,1 0,1 1,1 0,1 1,1 0,1 1,1 0,1 1,1 0,1 1,1 0,1 1,1 0,1 1,1 1,1 0,1 1,1 0,1 1,1 0,1 1,1 0,1 1,1 0,1 1,1 0,1 1,1 1,1 0,1 1,1 0,1 1,1 0,1 1,1 0,1 1,1 0,1 1,1 0,1 1,1 0,1 1,1 0,1 1,1 0,1 1,1 1,1 0,1 1,1 0,1 1,1 1,1 0,3 1,1 0,1 1,1 1,1 0,1 1,1 0,1 1,1 0,1 1,0 1,1 1,0 1,1 1,0 1,1 1,0 1,1 2,0 1,1 1,0 1,1 1,0 1,1 1,0 1,1 2,0 1,-1 2,-2 1,-1 1,-1 1,-1 1,-1 0,-1 1,-1 1,-1 1,-1 1,0 0,-2 1,-1 1,-1 1,-1 1,-1 0,-1 1,-1 1,-1 1,-1 1,0 0,-2 1,-1 1,-1 1,-1 0,-1 1,-1 1,-1 1,-1 1,-1 0,-1 1,-1 1,-1 1,-1 1,-1 0,-1 1,-1 1,-1 1,-1 1,0 0,-2 1,-1 1,-1 1,-1 1,0 0,-2 1,-1 1,-1 1,0 0,-2 3,-3 0,-1 4,-4 0,-1 1,-1 1,-1 1,-1 1,-1 1,-1 1,-1 1,-1 1,-1 1,0 0,-1 1,-1 1,0 1,-1 1,-1 1,0 1,-1 1,-1 1,0 1,-1 1,-1 1,0 1,-1 1,-1 1,0 1,-1 1,-1 1,0 1,-1 1,0 1,-1 1,-1 1,0 1,-1 1,0 1,-1 1,-1 1,0 1,-1 1,0 1,-1 1,-1 1,0 1,-1 1,0 1,-1 1,-1 1,0 1,-1 1,0 1,-1 1,-1 1,0 1,-1 1,0 1,-1 1,-1 1,0 1,-1 1,0 1,-1 1,-1 1,0 1,-1 1,0 1,-1 1,-1 1,0 1,-1 1,0 1,-1 -1,-1 0,0 -1,-1 0,-2 -1,0 -1,-1 0,-2 -1,0 -1,-1 0,-2 -1,-1 -1,-1 0,-2 -185,0 -1,1Z"/>
<path onmouseover="hoverPath(evt)" onmouseout="recoverPath(evt)" fill="rgb(254,254,254)" d="M  140,217l 0,1 1,-1 2,0 1,-1 2,0 1,-1 2,0 1,-1 2,0 1,-1 2,0 1,-1 2,0 1,-1 1,0 1,-1 1,0 1,-1 2,0 1,-1 2,0 1,-1 1,0 1,-1 2,0 1,-1 1,0 1,-1 2,0 1,-1 2,0 1,-1 1,0 1,-1 2,0 1,-1 2,0 1,-1 1,0 1,-1 2,0 1,-1 2,0 1,-1 1,0 0,-1 -2,0 -1,1 -2,0 -1,1 -1,0 -1,1 -2,0 -1,1 -2,0 -1,1 -1,0 -1,1 -2,0 -1,1 -2,0 -1,1 -1,0 -1,1 -2,0 -1,1 -2,0 -1,1 -1,0 -1,1 -2,0 -1,1 -1,0 -1,1 -2,0 -1,1 -1,0 -1,1 -2,0 -1,1 -1,0 -1,1 -2,0 -1,1 -2,0 -1,1 -2,0 -1,1 -2,0 -1,1Z"/>
<path onmouseover="hoverPath(evt)" onmouseout="recoverPath(evt)" fill="rgb(248,237,142)" d="M  142,128l 0,0 -1,1 0,2 1,0 1,1 0,1 2,0 1,1 3,0 1,1 2,0 1,1 1,1 1,0 1,1 1,0 1,1 3,0 1,1 1,0 1,1 1,0 1,1 0,2 1,0 1,1 1,0 1,1 1,1 1,0 1,1 1,1 1,1 1,1 1,1 1,1 0,1 1,1 1,1 1,1 0,1 1,1 1,1 0,1 1,1 1,1 0,1 1,1 0,1 1,1 0,1 1,1 0,1 1,1 0,1 1,1 0,1 1,1 0,2 1,1 0,1 1,1 0,1 1,1 1,1 0,1 1,1 0,2 1,1 0,1 1,1 0,1 1,1 0,1 1,0 1,1 0,2 1,1 0,1 1,1 0,1 1,1 0,1 1,1 0,1 1,1 0,1 1,1 0,1 1,1 1,1 0,1 1,1 0,1 1,1 0,1 1,1 0,1 1,1 0,1 1,1 0,1 1,0 1,1 0,1 1,1 0,2 1,1 0,1 1,1 0,1 1,1 0,1 1,1 0,1 1,1 0,1 1,1 0,1 1,1 0,1 1,1 0,1 1,1 0,1 1,1 0,1 1,1 0,1 1,1 0,1 1,1 0,1 1,1 0,2 9,0 0,-2 -1,0 -1,-1 0,-1 -1,-1 0,-2 1,-1 -1,0 -1,-1 0,-1 -1,-1 0,-1 -1,-1 0,-1 -1,-1 0,-1 -1,-1 0,-1 -1,-1 0,-1 -1,-1 0,-1 -1,-1 0,-1 -1,-1 0,-1 -1,-1 0,-1 -1,-1 0,-1 -1,-1 0,-1 -1,0 -1,-1 0,-2 -1,-1 0,-1 -1,-1 0,-1 -1,-1 0,-1 -1,-1 0,-1 -1,-1 0,-1 -1,-1 0,-1 -1,-1 0,-1 -1,-1 -1,-1 0,-1 -1,-1 0,-1 -1,-1 0,-1 -1,-1 0,-1 -1,-1 0,-1 -1,-1 0,-1 -1,-1 0,-1 -1,-1 0,-1 -1,-1 0,-3 1,-1 -2,0 -1,-1 0,-2 -1,-1 0,-1 -2,0 -1,-1 0,-1 -1,-1 -1,-1 0,-2 1,-1 -1,0 -1,-1 0,-1 -1,-1 0,-1 -1,-1 0,-1 -1,-1 0,-1 -1,-1 0,-1 -1,-1 0,-1 -1,-1 0,-1 -1,-1 0,-1 -1,-1 0,-1 -2,0 -1,-1 0,-3 1,-1 0,-1 -1,0 -1,-1 -1,0 -1,-1 0,-3 -1,-1 -1,-1 -1,0 -1,-1 -1,-1 -1,0 -1,-1 -1,-1 -1,-1 0,-2 -1,-1 -1,-1 -1,-1 2,6 -2,0 -1,1 -2,0 -1,-1 -1,0 -1,-1 -1,-1 -1,-1 -1,0 -1,-1 -1,0 -1,-1 -1,0 -1,-1 0,-2 -1,0 -1,-1 -1,-1 -1,0 -1,-1 0,-4 -1,1 0,0 -1,1 -1,1 -3,0 -1,-1 -1,1 -1,1 0,1 -1,1Z"/>
<path onmouseover="hoverPath(evt)" onmouseout="recoverPath(evt)" fill="rgb(251,251,247)" d="M  186,145l 0,0 -1,-1 0,1 2,1 1,0 1,1 0,3 -1,1 0,1 2,0 1,-1 1,0 1,-1 1,0 1,-1 1,0 1,-1 1,0 1,-1 1,0 1,-1 1,0 1,-1 1,0 1,-1 3,0 1,1 0,-2 1,-1 2,0 1,1 1,-1 1,0 0,-2 1,-1 1,0 1,-1 1,0 1,-1 1,0 1,-1 2,0 1,-1 1,0 1,-1 2,0 1,1 0,-2 1,-1 1,0 1,-1 1,0 1,-1 1,0 1,-1 1,0 1,-1 1,0 1,-1 2,0 1,-1 1,0 1,-1 2,0 1,1 1,-1 1,0 0,-2 1,-1 3,0 0,-8 -2,0 -1,-1 0,-1 -1,-1 0,-1 -1,-1 -1,-1 0,-2 1,-1 -2,0 -1,-1 -1,-1 0,-1 -1,-1 0,-2 1,-1 -1,-1 -1,0 0,2 -1,1 1,1 0,0 1,1 0,2 -1,1 2,0 1,1 1,1 0,1 1,1 0,2 -1,1 2,0 1,1 1,1 0,1 1,1 0,4 -1,1 -1,1 -2,0 -1,1 -1,0 -1,1 -2,0 -1,-1 0,2 -1,1 -1,0 -1,1 -1,0 -1,1 -1,0 -1,1 -1,0 -1,1 -1,0 -1,1 -2,0 -1,1 -2,0 -1,-1 -1,1 -1,0 0,2 -1,1 -1,0 -1,1 -1,0 -1,1 -1,0 -1,1 -1,0 -1,1 -2,0 -1,1 -1,0 -1,1 -1,0 -1,1 -1,0 -1,1 -1,0 -1,1 -1,0 -1,1 -1,0 -1,1 -1,0 -1,1 -1,0 -1,1 -6,0 -4,-3Z"/>
<path onmouseover="hoverPath(evt)" onmouseout="recoverPath(evt)" fill="rgb(183,209,236)" d="M  217,53l -1,1 1,0 1,-1 3,0 1,-1 3,0 1,-1 8,0 1,-1 9,0 1,-1 5,0 1,-1 4,0 0,-2 -3,0 -1,1 -15,0 -1,1 -8,0 -1,1 -2,0 -1,1 -1,0 -1,1 -1,0 -1,1 -2,1 -2,1 -2,0 -1,-1 -2,0 -1,-1 0,-1 -1,0 0,1 -1,1 -2,0 0,1 -1,1 -3,0 0,3 -1,1 -1,1 -1,1 0,1 -1,1 -2,0 0,1 3,-1 1,1 0,2 -1,1 -1,1 -1,0 -1,1 -1,1 -1,0 -1,1 -1,1 -2,0 0,1 -1,1 -2,0 1,1 0,2 -1,1 -1,0 -1,1 -2,0 2,1 0,3 -1,1 0,2 -1,1 -1,1 -2,0 -1,-1 -1,1 -2,0 2,1 0,5 -1,1 -1,1 -1,0 0,2 -1,1 -1,0 0,2 -1,1 -1,1 -1,0 0,2 -1,1 -1,1 0,1 -1,1 -1,1 0,3 -1,1 0,2 -1,1 0,3 -1,1 0,2 -1,1 0,5 -1,1 -1,0 2,1 1,0 1,1 1,0 1,1 1,1 1,1 1,0 1,1 1,-1 2,0 -1,-1 -1,-1 -1,-1 0,-1 -1,-1 0,-7 1,-1 0,-2 1,-1 0,-2 1,-1 0,-1 1,-1 0,-2 1,-1 0,-1 1,-1 0,-2 1,-1 1,-1 0,-1 1,-1 0,-1 1,-1 1,-1 0,-1 1,-1 0,-1 2,-2 1,-1 0,-1 1,-1 1,-1 1,-1 1,0 0,-2 2,-2 1,-1 1,0 0,-2 1,-1 1,-1 1,-1 0,-1 1,-1 1,-1 1,-1 1,-1 1,0 0,-2 1,-1 1,-1 1,-1 1,0 0,-2 1,-1 1,-1 -1,-1 0,-3 2,-2 1,-1 1,0 1,-1 1,-1 1,0 1,-1 2,0 1,-1 0,-1 2,-1Z"/>
<path onmouseover="hoverPath(evt)" onmouseout="recoverPath(evt)" fill="rgb(243,241,232)" d="M  0,102l 0,73 1,0 1,-1 2,0 1,-1 2,0 1,-1 2,0 1,-1 1,0 1,-1 2,0 -1,-1 0,-3 1,-1 0,-1 -1,-1 -1,-1 0,-1 -2,0 -1,-1 0,-1 -1,-1 0,-2 1,-1 0,-4 1,-1 1,-1 0,-1 1,-1 0,-1 1,-1 2,0 1,-1 1,0 0,-2 1,-1 2,0 1,-1 3,0 1,-1 3,0 1,1 1,0 0,-2 1,-1 3,0 1,-1 1,0 1,-1 1,0 0,-1 -1,-1 0,-1 -1,-1 0,-1 -1,-1 -1,-1 0,-1 -1,-1 0,-1 -5,0 -1,-1 0,-2 1,-1 1,0 0,-2 -1,-1 0,0 -1,-1 0,-1 -1,-1 -1,-1 0,-1 -1,-1 -1,-1 0,-1 -1,-1 -1,-1 0,-1 -1,-1 -1,-1 -1,-1 0,-1 -1,-1 0,-1 -1,-1 0,-1 -1,-1 0,-1 -1,-1 -3,0 -1,-1 0,-2 1,-1 1,-1 -1,-1 0,0 -1,-1 0,-1 -1,-1 0,-1 -1,-1 -1,-1 0,-1 -3,0 -1,1 -4,0 0,18 14,34 -1,1 -2,0 -1,-1 0,-2 1,-1 2,0 1,1 0,2 -14,-34Z"/>
<path onmouseover="hoverPath(evt)" onmouseout="recoverPath(evt)" fill="rgb(173,199,237)" d="M  7,198l 0,1 1,1 1,1 0,1 1,0 0,-1 1,-1 8,0 1,-1 9,0 1,1 1,-1 21,0 1,-1 17,0 1,1 1,1 0,2 -1,1 0,2 -1,1 1,1 0,1 1,1 0,1 1,1 0,2 -1,1 -1,1 -1,0 -1,1 -1,0 5,-2 1,-1 0,-1 1,-1 2,0 1,1 1,1 0,1 1,1 0,1 1,1 0,1 1,1 0,1 1,1 1,1 0,1 1,1 0,1 1,1 0,1 1,1 1,1 0,1 1,1 0,1 1,1 0,1 1,1 0,1 1,1 1,1 0,1 1,1 0,1 1,1 0,1 1,1 0,1 1,1 1,1 0,1 1,1 0,1 1,1 0,1 1,1 0,2 4,0 0,-1 -1,-1 0,-1 -1,-1 0,-1 -1,-1 -1,-1 0,-1 -1,-1 0,-1 -1,-1 0,-1 -1,-1 -1,-1 0,-1 -1,-1 0,-1 -1,-1 -1,-1 0,-1 -1,-1 0,-1 -1,-1 0,-1 -1,-1 -1,-1 0,-1 -1,-1 0,-1 -1,-1 -1,-1 0,-1 -1,-1 0,-1 -1,-1 0,-1 -1,-1 -1,-1 0,-1 -1,-1 0,-1 -1,-1 0,-1 -1,-1 -1,-1 0,-1 -1,-1 0,-1 -1,-1 -1,-1 0,-1 -1,-1 0,-1 -1,-1 0,-1 -1,-1 0,-2 1,-1 6,0 1,-1 8,0 1,-1 5,0 1,-1 5,0 1,-1 5,0 1,-1 5,0 1,-1 5,0 1,-1 3,0 1,-1 3,0 1,-1 3,0 1,-1 2,0 1,-1 2,0 1,-1 1,0 1,-1 1,0 1,-1 1,-1 1,0 1,-1 1,-1 1,-1 1,-1 1,-1 1,-1 1,0 2,-2 1,-1 0,-1 1,-1 1,-1 1,-1 1,-1 0,-1 1,-1 0,-1 1,-1 0,-2 1,-1 0,-5 1,-1 0,-6 1,-1 0,-2 1,-1 0,-1 -1,0 -1,-1 -1,0 -1,-1 -1,0 0,3 -1,1 0,6 -1,1 0,5 -1,1 0,2 -1,1 0,1 -1,1 -1,1 0,1 -1,1 0,1 -1,1 -1,1 -1,1 -1,1 -1,1 -1,1 -1,1 -1,1 -1,1 -1,1 -1,1 -1,0 -1,1 -1,1 -1,0 -1,1 -2,0 -1,1 -2,0 -1,1 -1,0 -1,1 -4,0 -1,1 -4,0 -1,1 -4,0 -1,1 -4,0 -1,1 -3,0 -1,1 -4,0 -1,1 -4,0 -1,1 -5,0 -1,1 -6,0 -1,1 -5,0 -1,-1 -2,0 -1,-1 -1,-1 0,-1 -1,-1 0,-2 -1,-1 -2,0 0,1 1,1 0,3 -1,1 0,1 -1,1 -1,0 -1,1 -2,0 -1,1 -2,0 -1,-1 -4,0 -1,1 -16,0 -1,1 -16,0 -1,1 -11,0 -1,1Z"/>
<path onmouseover="hoverPath(evt)" onmouseout="recoverPath(evt)" fill="rgb(206,219,238)" d="M  31,109l 0,-1 -1,-1 0,-1 -1,-1 -1,-1 0,-1 -1,-1 -1,-1 0,-1 -1,-1 0,-1 -1,-1 -1,-1 0,-1 -1,-1 -1,-1 0,-1 -1,-1 0,-1 -1,0 -1,-1 0,-2 -1,-1 0,-1 -2,-2 0,-1 -1,0 -1,-1 0,-2 -1,-1 -1,-1 0,-1 -1,-1 0,-1 -2,-2 0,-1 -1,-1 -1,-1 0,-1 -1,-1 0,-1 -1,-1 -1,-1 0,-1 -1,-1 -1,-1 0,-1 -1,-1 0,23 3,0 1,-1 5,0 1,1 0,1 1,1 1,1 0,1 1,1 0,1 1,1 1,1 0,2 -1,1 -1,1 3,0 1,1 1,1 0,1 1,1 0,1 1,1 0,1 1,1 0,1 1,1 1,1 1,1 0,1 1,1 1,1 0,1 1,1 1,1 0,1 1,1 1,1 0,1 1,1 1,1 0,4 -1,1 4,0 1,1 0,1 1,1 0,1 1,1 1,1 0,1 1,1 0,1 1,1 0,3 -1,1 4,0 1,1 0,2 1,1 1,1 0,1 1,1 1,1 0,1 1,1 0,1 1,1 0,1 1,1 0,2 1,1 0,2 -1,1 2,0 0,-1 1,-1 4,0 1,1 0,-2 -1,-1 0,-1 -1,-1 0,-1 -1,0 -1,-1 0,-1 -1,-1 0,-1 -1,-1 0,-2 -1,0 -1,-1 0,-2 -1,0 -1,-1 0,-2 -1,0 -1,-1 0,-2 -1,-1 0,-1 -1,-1 -1,-1 0,-1 -1,-1 -1,-1 0,-1 -1,-1 -1,-1 0,-1 -1,-1 -1,-1 0,-1 -1,-1 -1,-1 0,-1 -1,-1 -1,-1 0,-1 -1,-1 0,-1 -1,-1 -1,-1 -1,-1Z"/>
<path onmouseover="hoverPath(evt)" onmouseout="recoverPath(evt)" fill="rgb(243,242,234)" d="M  72,186l 0,1 1,1 0,1 1,1 2,0 1,1 3,0 1,-1 6,0 1,-1 5,0 1,-1 4,0 1,-1 4,0 1,-1 3,0 1,-1 4,0 1,-1 4,0 1,-1 4,0 1,-1 4,0 1,-1 1,0 1,-1 2,0 1,-1 2,0 1,-1 1,0 1,-1 1,-1 1,0 1,-1 1,-1 1,-1 4,-4 1,-1 1,-1 1,-1 0,-1 1,-1 0,-1 1,-1 1,-1 0,-1 1,-1 0,-2 1,-1 0,-5 1,-1 0,-6 1,-1 0,-2 -1,-1 -1,0 -1,-1 -1,0 -1,-1 -1,-1 -2,0 -1,-1 -3,0 -1,-1 -3,0 -1,1 -1,0 -1,1 -1,0 -1,1 -1,1 -1,0 0,1 -1,1 3,0 1,1 2,0 1,1 1,0 1,1 1,1 0,2 1,1 0,4 -1,1 0,3 -1,1 0,1 -2,2 0,1 -1,1 -1,1 -1,0 -1,1 -1,1 -1,1 -1,0 -1,1 -1,1 -1,0 -1,1 -1,1 -2,0 -1,1 -3,0 -1,-1 0,2 -1,1 -3,0 -1,-1 -1,0 0,2 -1,1 -5,0 -1,-1 -2,0 -1,1 -4,0 -1,1 -4,0 -1,1 -3,0 -1,1 -3,0 -1,1 -3,0 0,2 -1,1 -4,0 -1,1 -4,0 -1,1 -2,0 1,1Z"/>
<path onmouseover="hoverPath(evt)" onmouseout="recoverPath(evt)" fill="rgb(243,242,233)" d="M  168,255l 61,0 0,-1 -1,-1 0,-1 -1,-1 0,-1 -1,-1 0,-1 -1,-1 0,-1 -1,-1 0,-1 -1,-1 0,-1 -1,-1 0,-1 -1,-1 0,-1 -1,-1 0,-1 -1,-1 0,-1 -1,-1 0,-1 -1,-1 0,-1 -1,-1 0,-1 -1,0 -1,1 -1,0 -1,1 -1,0 -1,1 -1,0 -1,1 -1,0 -1,1 -1,0 -1,1 -1,0 -1,1 -1,0 -1,1 -1,0 -1,1 -1,0 -1,1 -1,0 0,2 -1,1 -2,0 -1,-1 -1,0 -1,1 -1,0 -1,1 -1,0 -1,1 -1,0 -1,1 -1,0 -1,1 -1,0 -1,1 -1,0 -1,1 -1,0 -1,1 -1,0 -1,1 -1,0 -1,1 -1,0 -1,1 -1,0 -1,1 -1,0 -1,1 -1,0 -1,1 -1,0 0,1Z"/>
<path onmouseover="hoverPath(evt)" onmouseout="recoverPath(evt)" fill="rgb(252,252,250)" d="M  196,233l 0,0 -1,-1 0,2 -1,1 -1,0 -1,1 -1,0 -1,1 -2,0 -1,-1 0,2 -1,1 -1,0 -1,1 -1,0 -1,1 -1,0 -1,1 -1,0 -1,1 -1,0 -1,1 -1,0 -1,1 -1,0 -1,1 -1,0 -1,1 -1,0 -1,1 -1,0 -1,1 -1,0 -1,1 -1,0 -1,1 -2,0 -1,1 -1,0 -1,1 -2,0 -1,-1 0,3 6,0 0,-2 1,-1 1,0 1,-1 1,0 1,-1 1,0 1,-1 1,0 1,-1 1,0 1,-1 1,0 1,-1 1,0 1,-1 1,0 1,-1 1,0 1,-1 1,0 1,-1 1,0 1,-1 1,0 1,-1 1,0 1,-1 1,0 1,-1 3,0 1,1 0,-2 1,-1 1,0 1,-1 1,0 1,-1 1,0 1,-1 1,0 1,-1 1,0 1,-1 1,0 1,-1 1,0 1,-1 1,0 1,-1 1,0 1,-1 1,0 1,-1 1,0 0,-1 -1,0 -1,1 -1,0 -1,1 -1,0 -1,1 -1,0 -1,1 -1,0 -1,1 -1,0 -1,1 -1,0 -1,1 -2,0 -1,1Z"/>
<path onmouseover="hoverPath(evt)" onmouseout="recoverPath(evt)" fill="rgb(244,243,235)" d="M  207,66l 0,1 -1,1 -1,1 0,2 -1,1 -1,0 -2,2 0,2 -1,1 -1,0 -1,1 -2,2 0,1 -1,1 -1,1 -1,1 0,2 -1,1 -1,0 -1,1 -1,1 0,2 -1,1 -1,0 -1,1 -1,1 0,1 -1,1 -1,1 -1,1 0,1 -1,1 0,1 -1,1 -1,1 0,1 -1,1 0,1 -1,1 -1,1 0,2 -1,1 0,1 -1,1 0,2 -1,1 0,1 -1,1 0,2 -1,1 0,2 -1,1 0,5 2,0 1,1 1,1 1,1 1,1 0,2 1,1 1,1 1,0 1,1 1,1 1,0 1,1 1,1 1,1 1,0 1,1 1,1 2,0 1,1 0,1 4,0 1,-1 1,0 1,-1 1,0 1,-1 1,0 1,-1 1,0 1,-1 1,0 1,-1 1,0 1,-1 1,0 1,-1 1,0 1,-1 2,0 1,-1 1,0 1,-1 1,0 1,-1 1,0 1,-1 1,0 0,-2 1,-1 1,0 1,-1 2,0 1,1 1,-1 2,0 1,-1 1,0 1,-1 1,0 1,-1 1,0 1,-1 1,0 1,-1 1,0 0,-2 1,-1 2,0 1,1 1,-1 1,0 1,-1 2,0 1,-1 0,-2 -1,-1 0,-1 -1,-1 -2,0 -1,-1 0,-2 1,-1 -1,-1 0,-1 -1,-1 -2,0 -1,-1 0,-2 1,-1 -1,-1 0,0 -1,-1 0,-2 1,-1 0,-2 1,-1 3,0 1,1 1,1 0,2 -1,1 1,1 0,1 1,1 2,0 1,1 0,2 -1,1 1,1 0,0 1,1 0,1 1,1 0,1 1,0 0,-62 -3,0 -1,1 -5,0 -1,1 -9,0 -1,1 -8,0 -1,1 -3,0 -1,1 -3,0 -1,1 -1,0 -1,1 -1,1 -2,0 -1,1 -1,0 -1,1 -1,1 -1,0 -1,1 -1,1 0,1 1,1Z"/>
<path onmouseover="hoverPath(evt)" onmouseout="recoverPath(evt)" fill="rgb(229,232,157)" d="M  0,179l 0,7 3,0 0,-2 1,-1 2,0 1,-1 2,0 0,-1 1,-1 2,0 1,1 1,1 0,2 1,-1 2,0 1,-1 -1,-1 0,-2 1,-1 2,0 1,-1 2,0 0,-2 1,-1 1,0 1,-1 1,-1 2,0 1,1 0,3 1,1 0,1 1,-1 2,0 1,-1 2,0 1,-1 2,0 1,-1 2,0 1,-1 1,0 1,-1 2,0 1,-1 2,0 0,-6 1,-1 2,0 1,1 0,1 1,0 0,-1 1,-1 3,0 1,1 1,1 1,-1 5,0 0,-1 -1,-1 0,-2 1,-1 3,0 1,1 1,1 3,0 0,-1 -1,-1 0,-2 1,-1 3,0 1,1 1,1 3,0 -1,-1 0,-3 1,-1 3,0 1,1 1,1 0,1 1,0 1,-1 1,0 -1,-1 0,-3 1,-1 3,0 1,1 2,0 1,-1 0,-2 1,-1 3,0 1,1 3,0 1,1 1,-1 1,0 1,-1 2,0 -1,-1 0,-3 1,-1 3,0 1,1 1,1 2,0 0,-2 1,-1 5,0 1,1 7,0 1,1 3,0 1,1 0,1 1,0 1,1 0,-1 -1,-1 0,0 -5,-2 -5,-1 0,-2 1,-1 1,0 0,-1 1,-1 1,0 1,-1 1,-1 1,0 1,-1 1,0 1,-1 1,0 -2,-1 0,-4 1,-1 1,-1 0,-1 1,-1 1,-1 1,-1 2,0 1,1 1,0 1,-1 1,-1 0,-3 1,-1 1,-1 1,-1 0,-1 1,-1 1,0 1,-1 0,-1 1,-1 2,0 1,-1 1,-1 3,0 1,-1 0,-1 1,-1 1,-1 0,-2 1,-1 1,0 1,-1 0,-2 1,-1 1,0 0,-2 1,-1 1,0 1,-1 0,-3 -1,0 -1,-1 0,-2 1,-1 2,0 1,-1 2,0 1,1 1,-1 0,-2 1,-1 0,-1 -1,0 -1,-1 0,-2 1,-1 2,0 1,-1 1,0 -1,-1 0,-2 1,-1 2,0 0,-1 1,-1 2,0 1,-1 1,-1 1,0 1,-1 1,-1 1,0 1,-1 -3,1 -1,-1 0,-3 1,-1 2,0 0,-1 1,-1 2,-2 0,-3 1,-1 3,0 0,-1 1,-1 2,0 0,-1 1,-1 3,0 1,1 0,1 2,0 1,1 1,0 1,-1 1,0 2,-2 1,0 1,-1 1,0 1,-1 2,0 1,-1 -1,-1 0,-2 1,-1 1,-1 4,0 0,-1 1,-1 1,-1 2,0 0,-1 1,-1 1,0 0,-1 1,-1 2,0 1,-1 1,0 1,-1 1,-1 1,0 1,-1 1,0 1,-1 1,-1 6,0 0,-28 -8,0 0,1 1,1 1,1 0,2 1,0 1,1 0,2 1,0 1,1 0,2 1,1 -254,167 254,-163 -1,1 -1,0 -1,1 -1,0 -1,1 -1,1 -1,0 -1,1 -1,0 -2,2 -1,0 -1,1 -1,0 -1,1 -1,1 -1,0 -1,1 -1,0 -1,1 -1,1 -1,0 -1,1 -1,0 -1,1 -1,1 -1,0 -1,1 -1,0 -1,1 -1,1 -1,0 -1,1 -1,0 -1,1 -1,1 -1,0 -1,1 -1,0 -1,1 -1,1 -1,0 -1,1 -1,0 -1,1 -1,1 -1,0 -1,1 -1,1 -1,0 -1,1 -1,1 -1,0 -1,1 -1,1 -1,0 -1,1 -1,1 -1,0 0,1 -1,1 -1,0 -1,1 -5,5 -1,1 0,1 -1,1 -1,1 -2,2 0,1 -1,1 -1,1 -1,1 0,2 -1,1 -1,0 -1,1 0,2 -1,1 -1,0 -1,1 -1,1 0,2 -1,1 -1,0 -2,2 0,1 -1,1 -1,1 -1,1 -1,1 0,1 -1,1 -1,1 -1,1 -1,1 0,1 -2,2 -1,1 0,2 -1,1 -1,0 -2,2 0,1 -2,2 -1,1 -1,1 0,2 -1,1 -1,0 -1,1 -1,1 0,1 -1,1 -1,1 -1,1 -1,1 -1,1 -2,2 -1,1 -4,0 -1,-1 -1,0 -1,-1 -1,0 -1,-1 -1,0 -1,-1 -2,0 -1,-1 -1,0 -1,-1 -1,0 -1,-1 -1,0 -1,-1 -1,0 -1,-1 0,-1 -1,-1 0,-1 -1,-1 0,-1 -1,-1 -1,-1 0,-1 -1,-1 0,-3 -1,-1 -1,-1 0,-1 -1,-1 0,-1 -1,-1 -1,-1 0,-1 -1,-1 0,-1 -1,-1 0,-1 -1,-1 0,-1 -1,-1 0,-1 -1,-1 0,-1 -1,-1 0,-1 -1,-1 0,-1 -1,-1 0,-1 -1,-1 -1,-1 0,-1 -1,-1 0,-1 -1,-1 0,-1 -1,-1 0,-1 -1,-1 0,-1 -1,-1 0,-1 -1,-1 -1,-1 0,-1 -1,-1 0,-1 -1,-1 0,-1 -1,-1 0,-1 -1,-1 0,-1 -1,-1 0,-1 -1,-1 0,-1 -1,-1 0,-1 -1,-1 0,-1 -1,-1 0,-1 -1,-1 0,-1 -1,-1 0,-1 -1,-1 0,-1 -1,-1 -1,-1 0,-1 -1,-1 0,-1 -1,-1 0,-1 -1,-1 0,-1 -1,-1 -1,-1 0,-1 -1,-1 0,-1 -1,-1 0,-1 -1,-1 0,-1 -1,-1 0,-1 -1,-1 0,-1 -1,-1 -1,-1 0,-1 -1,-1 0,-1 -1,-1 0,-1 -1,-1 0,-1 -1,-1 0,-1 -1,-1 0,-3 -11,0 0,1 1,1 1,1 0,1 1,1 0,1 1,1 0,1 1,1 0,1 1,1 0,1 1,1 1,1 0,1 1,1 0,1 1,1 0,1 1,1 0,1 1,1 0,1 1,1 0,1 1,1 0,1 1,1 0,1 1,1 1,1 0,1 1,1 0,1 1,1 0,1 1,1 0,1 1,1 0,2 1,1 0,2 -1,1 3,0 1,1 0,1 1,1 0,1 1,1 0,1 1,1 0,1 1,1 0,1 1,1 0,1 1,1 0,1 1,1 1,1 0,1 1,1 0,1 1,1 0,1 1,1 0,1 1,1 0,1 1,1 0,1 1,1 1,1 0,1 1,1 0,1 1,1 0,1 1,1 0,1 1,1 0,1 1,1 0,1 1,1 0,1 1,1 0,1 1,1 0,1 1,1 0,1 1,1 0,1 1,1 1,1 0,1 1,1 0,1 1,1 1,1 0,1 1,0 1,1 0,1 1,1 1,1 1,1 1,1 0,1 1,1 1,1 0,2 1,1 0,1 1,1 0,1 1,1 1,1 0,1 1,1 0,1 2,0 1,1 0,4 -1,1 1,0 1,1 0,3 -1,1 -1,1 -1,0 -1,1 -1,0 -1,1 -1,0 -1,1 -3,0 -1,-1 0,-2 -2,0 -1,-1 -1,0 -1,1 -2,0 -1,1 -1,1 -2,0 -1,1 -1,0 0,1 1,1 0,0 1,1 0,2 -1,1 -1,0 -1,1 -2,0 -1,1 -2,0 -1,1 -1,0 -1,1 -2,0 -1,1 -2,0 -1,1 -2,0 -1,1 -1,0 -1,1 -2,0 -1,1 -2,0 -1,1 -2,0 -1,1 -2,0 0,2 -1,1 -2,0 -1,-1 -2,0 0,1 -1,1 -4,0 -1,1 -1,0 -1,1 -2,0 -1,1 -2,0 -1,1 -2,0 -1,1 -2,0 -1,1 -2,0 -1,1 -2,0 -1,1 -1,0 -1,1 -2,0 -1,1 -2,0 -1,1 -4,0 -1,-1 -1,-1 0,-1 1,3 0,1 -1,1 -2,0 -1,1 -1,0 -1,1 -2,0 -1,1 -2,0 -1,1 -2,0 -1,1 -2,0 0,1 254,-162 -254,163Z"/>
<path onmouseover="hoverPath(evt)" onmouseout="recoverPath(evt)" fill="rgb(243,242,234)" d="M  28,248l 1,0 1,-1 1,0 1,-1 -1,0 -1,-1 0,0 -1,-1 0,-1 -1,-1 -1,-1 0,-2 -1,0 -1,-1 -1,-1 0,-1 -1,0 -1,-1 0,-3 -1,0 -1,-1 -1,-1 0,-1 -1,0 -1,-1 0,-1 -1,0 -1,-1 0,-3 -3,0 -1,-1 0,-3 -1,-1 -1,-1 -1,-1 -1,0 -1,-1 0,-3 1,-1 -1,-1 0,0 -1,-1 -2,-2 0,-1 -1,-1 -2,0 0,50 27,0 0,-1 -1,-1 0,0 -1,-1 -1,-1 0,-2 1,-1Z"/>
<path onmouseover="hoverPath(evt)" onmouseout="recoverPath(evt)" fill="rgb(243,241,232)" d="M  29,202l -1,-1 -7,0 -1,1 -8,0 0,1 1,1 0,0 1,1 0,1 1,1 1,1 0,2 1,0 1,1 1,1 0,1 1,1 1,1 0,1 1,1 1,1 1,1 0,1 1,0 1,1 0,1 1,1 0,2 -1,1 1,1 0,0 1,1 1,1 0,1 1,1 1,1 1,0 0,-2 -1,-1 0,-2 1,-1 -2,0 -1,-1 0,-2 1,-1 2,0 1,1 0,3 1,0 1,1 2,0 1,-1 2,0 1,1 1,0 1,-1 1,0 0,-2 1,-1 1,0 1,-1 3,0 1,1 2,0 1,-1 0,-2 1,-1 1,0 1,-1 2,0 1,-1 2,0 1,1 0,-2 1,-1 2,0 1,-1 1,0 1,-1 1,0 1,-1 -1,-1 0,-1 -1,-1 0,-1 -1,-1 0,-2 1,-1 0,-2 1,-1 -1,-1 -15,0 -1,1 -21,0 -1,1Z"/>
<path onmouseover="hoverPath(evt)" onmouseout="recoverPath(evt)" fill="rgb(246,236,151)" d="M  44,251l -1,0 -1,-1 0,-2 -1,-1 -1,-1 0,-1 -1,-1 -1,-1 0,-1 -1,-1 -1,0 -1,-1 0,-2 -1,-1 -1,-1 0,-1 -1,-1 -2,0 -1,-1 -1,-1 -1,-1 0,-1 -1,-1 -1,-1 -1,-1 0,-2 1,-1 -1,-1 0,-1 -1,0 -1,-1 0,-1 -1,-1 -1,-1 -1,-1 0,-1 -1,-1 -1,-1 0,-1 -1,-1 -1,0 -1,-1 0,-2 -1,-1 -1,-1 0,-1 -1,-1 -1,-1 -2,0 -1,-1 0,-1 -1,-1 -1,-1 0,-3 -1,-1 0,-1 -1,-1 -1,-1 0,-1 -1,-1 -1,0 0,12 3,0 1,1 1,1 0,1 1,1 1,1 1,1 1,1 0,2 -1,1 0,1 1,0 1,1 1,1 1,1 1,1 0,3 3,0 1,1 0,3 1,0 1,1 0,1 1,0 1,1 0,1 1,1 1,0 1,1 0,3 1,0 1,1 0,1 1,1 1,0 1,1 0,2 1,1 1,1 0,1 1,1 1,0 1,1 0,2 -1,1 -1,1 -1,0 -1,1 -4,0 1,1 0,0 1,1 1,1 0,2 17,0 0,-1 -1,-1 0,-1 -1,-1Z"/>
<path onmouseover="hoverPath(evt)" onmouseout="recoverPath(evt)" fill="rgb(233,238,234)" d="M  64,183l 5,0 1,-1 2,0 1,-1 -4,0 -1,-1 0,-3 -1,-1 0,-3 -1,-1 0,-3 -1,-1 0,-1 -1,0 -1,1 -2,0 -1,-1 -1,-1 -1,0 0,1 -1,1 -3,0 -1,-1 0,5 -1,1 -2,0 -1,1 -2,0 -1,1 -1,0 -1,1 -2,0 -1,1 -2,0 -1,1 -2,0 -1,1 -2,0 -1,1 -2,0 -1,-1 0,-1 -1,-1 0,-3 -1,1 -1,1 -1,0 0,2 -1,1 -2,0 -1,1 -2,0 1,1 0,2 -1,1 -1,1 -2,0 -1,1 -2,0 -1,-1 0,-2 -1,-1 0,1 -1,1 -2,0 -1,1 -2,0 0,2 -1,1 -4,0 0,1 2,0 1,1 1,1 0,1 1,1 1,1 0,1 12,0 1,-1 16,0 1,-1 16,0 1,-1 5,0 0,-1 -1,0 -5,1 -12,0 -5,1 -11,0 -1,-1 0,-1 -1,-1 0,-3 1,-1 2,0 1,-1 13,0 1,-1 18,0 1,-1Z"/>
<path onmouseover="hoverPath(evt)" onmouseout="recoverPath(evt)" fill="rgb(234,230,213)" d="M  59,186l -18,0 -1,1 -13,0 -1,1 -2,0 0,1 1,1 0,1 13,0 1,-1 16,0 1,-1 3,0 1,1 0,3 1,-1 2,0 1,-1 1,0 0,-1 1,-1 0,-1 -1,-1 0,-2 -5,0 -1,1Z"/>
<path onmouseover="hoverPath(evt)" onmouseout="recoverPath(evt)" fill="rgb(242,241,232)" d="M  68,167l -1,0 1,1 0,3 1,1 0,3 1,1 0,3 8,0 1,1 3,0 0,-2 1,-1 3,0 1,-1 3,0 1,-1 3,0 1,-1 4,0 1,-1 4,0 1,-1 4,0 1,1 3,0 0,-2 1,-1 3,0 1,1 1,0 0,-2 1,-1 2,0 1,1 1,0 1,-1 2,0 1,-1 0,-2 1,-1 1,-1 2,0 1,1 1,-1 2,-2 1,0 1,-1 0,-1 1,-1 1,-1 0,-1 1,-1 0,-3 1,-1 0,-2 -2,0 -1,-1 -1,0 -1,-1 0,-1 -3,0 -1,-1 -7,0 -1,-1 -3,0 0,2 -1,1 -1,0 -1,1 -2,0 -1,-1 0,-1 -1,-1 -1,0 0,1 1,1 0,2 -1,1 -2,0 -1,1 -1,0 -1,1 -2,0 -1,-1 -3,0 -1,-1 -1,0 0,2 -1,1 -1,1 -4,0 -1,-1 -1,0 0,1 1,1 0,2 -1,1 -1,0 -1,1 -3,0 -1,-1 0,-1 -1,-1 -1,0 0,1 1,1 0,2 -1,1 -2,0 -1,1 -2,0 -1,-1 0,-1 -1,-1 -1,0 1,1 0,3 -1,1 -2,0 -1,1 -2,0 -1,-1 0,-1 -1,-1 -1,0 1,1 0,3 -1,1Z"/>
<path onmouseover="hoverPath(evt)" onmouseout="recoverPath(evt)" fill="rgb(244,243,235)" d="M  76,199l 0,1 1,1 0,1 1,1 0,1 1,1 1,1 0,1 1,1 0,1 1,1 1,1 0,1 1,1 0,1 1,1 0,1 1,1 1,1 0,1 1,1 0,1 1,1 0,1 1,1 1,1 0,1 1,1 0,1 1,1 1,1 0,1 1,1 0,1 1,1 0,1 1,1 1,1 0,1 1,1 0,1 1,1 1,1 0,1 1,1 0,1 1,1 0,1 1,1 1,1 0,1 1,1 0,1 1,1 0,2 45,0 0,-4 1,-1 2,0 1,1 1,-1 1,0 1,-1 2,0 1,-1 1,0 1,-1 1,0 1,-1 1,0 1,-1 1,0 1,-1 1,0 1,-1 1,0 1,-1 1,0 1,-1 1,0 1,-1 1,0 1,-1 1,0 1,-1 1,0 1,-1 1,0 0,-2 1,-1 2,0 1,1 1,-1 1,0 1,-1 1,0 0,-2 1,-1 2,0 1,1 1,-1 2,0 1,-1 1,0 1,-1 1,0 1,-1 1,0 1,-1 1,0 1,-1 1,0 1,-1 1,0 1,-1 1,0 -2,-1 0,-1 -1,-1 0,-1 -1,-1 0,-1 -1,-1 0,-1 -1,-1 0,-1 -1,-1 0,-1 -1,-1 -1,-1 0,-1 -1,-1 0,-1 -1,-1 0,-1 -1,-1 0,-1 -1,-1 0,-1 -1,-1 0,-1 -1,0 -1,1 -2,0 -1,1 -2,0 -1,1 -1,0 -1,1 -2,0 -1,1 -2,0 -1,1 -1,0 -1,1 -2,0 -1,1 -2,0 -1,1 -1,0 -1,1 -2,0 -1,1 -1,0 -1,1 -2,0 -1,1 -2,0 -1,1 -1,0 -1,1 -1,0 -1,1 -2,0 -1,1 -2,0 -1,1 -2,0 -1,1 -2,0 -1,1 -2,0 -1,1 -2,0 -1,1 -2,0 -1,-1 0,-3 2,-2 2,0 1,-1 2,0 1,-1 2,0 1,-1 2,0 1,-1 1,0 1,-1 2,0 1,-1 1,0 1,-1 2,0 1,-1 1,0 1,-1 2,0 1,-1 1,0 1,-1 2,0 1,-1 2,0 1,-1 1,0 1,-1 2,0 1,-1 2,0 1,-1 1,0 1,-1 2,0 1,-1 2,0 1,-1 1,0 1,-1 2,0 1,-1 1,0 -1,-1 0,-1 -1,-1 0,-1 -1,-1 0,-2 -1,-1 0,-1 -1,-1 -1,-1 0,-1 -1,-1 0,-1 -1,-1 0,-2 -1,-1 0,-1 -1,-1 0,-1 -1,-1 0,-1 -1,-1 0,-1 -1,-1 0,-1 -1,-1 0,-1 -1,-1 -1,-1 0,-1 -1,-1 -1,-1 0,-1 -1,-1 -1,-1 -1,-1 0,-1 -1,-1 -1,-1 -1,-1 -1,-1 -1,-1 -1,0 -1,-1 -1,-1 -1,0 -1,-1 -1,0 0,2 -1,1 0,6 -1,1 0,5 -1,1 0,2 -1,1 0,1 -1,1 0,1 -1,1 -1,1 -2,2 0,1 -1,1 -1,1 -2,2 -1,0 -1,1 -1,1 -1,1 -1,1 -1,1 -1,1 -1,0 -1,1 -1,1 -1,0 -1,1 -1,0 -1,1 -2,0 -1,1 -2,0 -1,1 -3,0 -1,1 -3,0 -1,1 -3,0 -1,1 -5,0 -1,1 -5,0 -1,1 -5,0 -1,1 -5,0 -1,1 -5,0 -1,1 -8,0 -1,1 -4,0 -1,1Z"/>
<path onmouseover="hoverPath(evt)" onmouseout="recoverPath(evt)" fill="rgb(233,239,231)" d="M  161,111l 0,0 -1,1 -2,0 0,1 -1,1 -1,1 -1,0 0,1 -3,3 0,1 1,0 1,1 0,4 1,0 1,1 1,1 1,0 1,1 0,-5 1,-1 0,-2 1,-1 0,-3 1,-1 0,-2 1,-1 0,-2 -1,0 -1,1Z"/>
</svg>