<svg width="256" height="256" xmlns="http://www.w3.org/2000/svg"><script> 
var tempColor;
function hoverPath(evt){
obj = evt.target;
tempColor = obj.getAttribute("fill");
obj.setAttribute("fill","red");
//alert(tempColor);
//obj.setAttribute("stroke","red");}
function recoverPath(evt){
obj = evt.target;
obj.setAttribute("fill", tempColor);
//obj.setAttribute("stroke", tempColor);
}</script><path onmouseover="hoverPath(evt)" onmouseout="recoverPath(evt)" fill="rgb(243,242,233)" d="M  0,240l 0,15 34,0 0,-3 -1,-1 0,-2 1,-1 0,-2 1,-1 0,-2 2,-2 3,0 1,-1 2,0 1,1 1,0 1,1 0,1 1,1 0,1 1,1 0,1 3,0 0,-2 -1,-1 0,-2 1,-1 1,-1 1,-1 1,0 1,-1 2,0 1,-1 1,0 1,-1 2,0 1,1 1,0 1,-1 1,0 1,-1 3,0 0,-2 1,-1 2,0 0,-1 -3,1 -1,0 -1,-1 -1,-1 -1,-1 0,-1 -1,-1 0,-4 1,-1 1,0 0,-2 1,-1 10,0 1,-1 6,0 1,-1 6,0 1,1 1,1 1,1 0,2 1,1 0,1 1,1 2,0 1,1 0,2 -1,1 0,1 1,1 0,0 1,1 0,1 1,1 0,1 1,1 0,1 1,1 1,1 0,1 1,1 0,1 1,1 1,0 1,1 0,2 1,1 0,2 1,1 0,2 -1,1 -1,1 0,1 7,0 0,-1 -1,-1 0,-30 -3,0 -1,-1 0,-2 1,-1 3,0 0,-19 -2,0 -1,-1 0,-2 1,-1 3,0 0,-1 -3,0 -1,1 -3,0 -1,1 -2,0 -1,1 -3,0 -1,1 -2,0 -1,1 -4,0 -1,-1 0,1 -1,1 -1,1 -1,1 -3,0 -1,1 -2,0 -1,1 -2,0 -1,1 -2,0 -1,1 -3,0 0,2 -1,1 -3,0 -1,-1 -1,0 -1,1 -2,0 0,2 -1,1 -2,0 -1,-1 0,2 -1,1 -3,0 -1,-1 0,2 -1,1 -3,0 -1,-1 -1,0 -1,1 -1,0 -1,1 -2,0 -1,1 -1,0 -1,1 -2,0 -1,1 -1,0 -1,1 -2,0 -1,1 -1,0 0,2 -1,1 -2,0 -1,-1 -2,0 -1,1 -1,1 -6,0 -1,-1 0,5 -1,1 -2,0 -1,-1 -1,1 -2,0 -1,1 -1,0 -1,1 -2,0 -1,1 -1,0 -1,1 -3,0Z"/>
<path onmouseover="hoverPath(evt)" onmouseout="recoverPath(evt)" fill="rgb(243,242,233)" d="M  13,198l 0,0 -1,-1 -3,0 -1,1 -1,1 -1,1 2,0 1,1 0,2 1,1 0,1 1,1 0,2 1,1 0,2 1,1 0,2 1,1 0,1 1,1 0,2 2,0 1,1 0,2 -1,1 0,1 2,0 1,1 4,0 1,-1 0,0 1,-1 3,0 1,-1 1,0 1,-1 1,0 1,-1 2,0 1,-1 1,0 1,-1 2,0 1,-1 1,0 1,-1 2,0 1,-1 1,0 1,-1 3,0 1,1 1,0 0,-2 1,-1 2,0 1,1 1,0 0,-2 1,-1 2,0 1,1 0,-2 1,-1 2,0 1,-1 3,0 1,1 1,0 0,-2 1,-1 3,0 1,-1 2,0 1,-1 2,0 1,-1 2,0 1,-1 3,0 1,-1 1,-1 0,-1 -1,-1 0,-1 -1,-1 0,-3 -1,-1 0,-1 -1,-1 0,-1 -1,-1 0,-1 -1,-1 -2,0 -1,1 -3,0 -1,-1 -1,0 -1,1 -1,0 0,2 -1,1 -2,0 -1,1 -1,0 -1,1 -2,0 -1,1 -2,0 -1,1 -1,0 -1,1 -2,0 -1,1 -3,0 -1,-1 -6,0 -1,1 -3,0 -1,-1 -1,0 -1,-1 -2,0 -1,-1 -2,0 -1,1 -7,0 -1,-1 -2,0 -1,1 -2,0 -1,1 -2,0 -1,1 -2,0 0,2 -1,1Z"/>
<path onmouseover="hoverPath(evt)" onmouseout="recoverPath(evt)" fill="rgb(244,242,234)" d="M  154,28l 0,5 -1,1 -2,0 -1,-1 0,-5 -1,-1 0,-1 -6,0 -1,1 -1,0 0,6 -1,1 -1,0 -1,1 -1,1 -1,0 0,1 -1,1 1,1 0,13 1,1 0,2 2,0 1,-1 2,0 1,-1 0,-1 1,-1 0,-1 1,-1 1,-1 3,0 1,-1 2,0 1,1 0,2 -1,1 0,4 1,1 0,4 1,1 2,0 1,1 0,7 -1,1 -2,0 -1,1 -1,1 -1,1 0,2 13,0 1,-1 29,0 0,-1 1,-1 2,0 1,1 0,3 1,1 0,3 1,1 0,3 1,1 0,3 1,1 0,4 -1,1 -3,0 0,3 -1,1 -7,0 -1,1 -61,0 0,1 3,0 59,-1 10,0 0,-1 1,-1 2,0 1,1 0,1 30,0 -1,-1 0,-4 -1,-1 0,-5 -1,-1 0,-4 -1,-1 0,-4 -1,-1 0,-3 -1,-1 0,-2 -1,-1 0,-2 -1,-1 0,-2 -1,-1 0,-1 -1,-1 0,-2 -1,-1 0,-2 -1,-1 0,-2 -1,-1 0,-1 -1,-1 0,-2 -1,-1 0,-2 -1,-1 0,-2 -1,-1 0,-3 -1,-1 0,-2 -1,-1 0,-2 -1,-1 0,-2 -1,-1 0,-2 -1,-1 0,-2 -1,-1 0,-1 -1,-1 0,-2 -1,-1 0,-4 -1,-1 0,-3 -1,-1 0,-2 -1,-1 0,-2 -1,-1 0,-3 -11,0 0,1 1,1 0,3 -1,1 0,1 1,1 0,6 -1,1 -2,0 0,6 -1,1 -5,0 -1,-1 -5,0 0,2 -1,1 -5,0 -1,1 -12,0 -1,1 -5,0 -1,1Z"/>
<path onmouseover="hoverPath(evt)" onmouseout="recoverPath(evt)" fill="rgb(243,243,234)" d="M  197,188l 0,7 1,1 0,20 1,1 0,19 1,1 0,5 7,0 1,-1 8,0 1,-1 8,0 1,-1 9,0 1,-1 8,0 1,-1 10,0 0,-46 -1,0 -1,-1 0,-2 -1,-1 0,-4 -1,-1 0,-3 -1,-1 0,-3 -1,-1 0,-4 -1,-1 0,-4 -1,-1 0,-3 -1,-1 0,-4 -1,-1 0,-4 -1,-1 0,-3 -1,-1 0,-4 -1,-1 0,-4 -1,-1 0,-3 -1,-1 0,-4 -1,-1 0,-3 -1,-1 0,-3 -1,-1 -1,-1 -4,0 -1,-1 -19,0 -1,1 -23,0 0,3 1,1 0,7 1,1 0,6 1,1 0,6 1,1 0,6 1,1 0,7 1,1 0,6 1,1 0,6 1,1 0,5 1,1 0,1 8,0 1,-1 8,0 1,-1 7,0 1,-1 8,0 1,-1 4,0 1,1 0,3 -1,1 -1,0 -1,1 -8,0 -1,1 -8,0 -1,1 -7,0 -1,1 -7,0 -1,1 -2,0 -1,1Z"/>
<path onmouseover="hoverPath(evt)" onmouseout="recoverPath(evt)" fill="rgb(245,244,237)" d="M  0,1l 0,10 7,0 1,-1 3,0 1,-1 2,0 1,-1 2,0 1,-1 2,0 1,-1 4,0 1,-1 3,0 1,-1 2,0 1,-1 1,0 1,-1 1,0 1,-1 1,0 0,-1 -37,0 -1,1Z"/>
<path onmouseover="hoverPath(evt)" onmouseout="recoverPath(evt)" fill="rgb(243,242,236)" d="M  0,157l 0,77 2,0 1,-1 1,0 1,-1 2,0 1,-1 1,0 1,-1 2,0 1,-1 2,0 1,1 0,-4 -1,-1 0,-3 1,-1 -2,0 -1,-1 0,-2 -1,-1 0,-1 -1,-1 0,-2 -1,-1 0,-2 -1,-1 0,-2 -1,-1 0,-1 -1,-1 0,-2 -3,0 -1,-1 0,-2 1,-1 1,0 1,-1 1,-1 1,-1 5,0 1,1 0,-2 1,-1 2,0 1,-1 2,0 1,-1 2,0 1,-1 4,0 1,1 5,0 1,-1 4,0 1,1 2,0 1,1 1,0 1,1 1,0 1,-1 8,0 1,1 1,0 1,-1 2,0 1,-1 1,0 1,-1 2,0 1,-1 2,0 1,-1 1,0 1,-1 2,0 0,-2 1,-1 1,0 1,-1 3,0 1,1 1,0 1,-1 4,0 1,1 1,1 0,1 1,1 0,1 2,0 1,1 0,2 -1,1 0,2 1,1 0,1 2,0 1,1 0,1 2,0 1,-1 2,0 1,-1 3,0 1,-1 2,0 1,-1 3,0 1,-1 3,0 0,-32 1,-1 0,-36 -3,0 -1,-1 -2,0 -1,-1 -1,-1 -1,-1 -1,-1 0,-2 -1,0 -1,-1 -1,0 -1,-1 -1,-1 -2,0 -1,-1 -1,1 -3,0 -1,1 -4,0 -1,1 -3,0 -1,1 -4,0 -1,-1 -2,0 -1,1 -1,0 -1,1 -5,0 -1,1 -9,0 -1,1 -3,0 -1,1 -2,0 -1,1 -1,0 -1,1 -1,0 -1,1 -1,1 -1,1 -1,1 0,1 -1,1 -1,0 -1,1 -1,1 -1,0 -1,1 -1,1 -1,1 -1,1 0,1 -1,1 0,1 -1,1 1,1 0,3 -1,1 0,1 -1,1 0,1 -1,1 -5,0 -1,1 -4,0 -1,1 -5,0 -1,1 -6,0 -1,1 -4,0 -1,1 -2,0Z"/>
<path onmouseover="hoverPath(evt)" onmouseout="recoverPath(evt)" fill="rgb(242,241,234)" d="M  0,117l 0,34 1,0 1,-1 4,0 1,-1 6,0 1,-1 5,0 1,-1 4,0 1,-1 5,0 0,-1 1,-1 0,-1 1,-1 0,-1 -1,-1 0,-2 1,-1 0,-1 1,-1 0,-1 1,-1 1,-1 1,-1 1,-1 1,-1 1,0 1,-1 1,-1 1,0 0,-1 1,-1 1,-1 1,-1 1,-1 1,-1 1,0 1,-1 1,0 1,-1 2,0 1,-1 3,0 1,-1 9,0 1,-1 5,0 1,-1 1,0 1,-1 3,0 1,-1 1,0 1,-1 3,0 1,-1 4,0 1,-1 1,-1 3,0 1,-1 4,0 1,1 2,0 1,1 1,0 1,1 1,0 1,1 1,1 1,1 0,1 1,1 1,1 1,0 1,1 2,0 0,-9 -1,-1 0,-22 -1,-1 0,-18 -1,-1 0,-3 -3,0 -1,-1 0,-2 1,-1 2,0 1,-1 0,-9 -1,-1 0,-20 1,-1 0,-1 -1,0 -1,-1 0,-20 -1,-1 -3,0 -1,-1 -4,0 -1,1 -5,0 -1,1 -6,0 -1,1 -5,0 -1,1 -8,0 -1,1 -6,0 -1,1 -6,0 -1,1 -6,0 -1,1 -5,0 -1,1 -4,0 -1,1 -1,0 -1,1 -2,0 0,2 -1,1 -1,0 -1,1 -1,1 -4,0 -2,2 -1,1 -1,1 0,1 -1,1 -2,0 -1,1 -1,1 -1,1 -1,1 0,1 -1,1 -1,0 0,2 -2,2 -1,1 -1,1 -1,1 -3,0 -1,1 -1,1 -1,0 -1,1 -1,1 -1,1 -2,0Z"/>
<path onmouseover="hoverPath(evt)" onmouseout="recoverPath(evt)" fill="rgb(244,243,235)" d="M  128,121l 0,67 5,0 1,1 5,0 1,-1 5,0 1,-1 6,0 1,-1 6,0 1,-1 5,0 1,-1 7,0 1,-1 6,0 1,-1 7,0 1,-1 2,0 0,-5 -1,-1 0,-7 -1,-1 0,-6 -1,-1 0,-6 -1,-1 0,-6 -1,-1 0,-7 -1,-1 0,-6 -1,-1 0,-6 -1,-1 0,-6 -2,0 -1,-1 -1,0 -1,-1 -4,0 -1,-1 -3,0 -1,-1 -23,0 -1,1 -3,0 -1,1 -2,0 -1,1 -1,0 -1,1 -2,0 -1,1 -2,0 -1,1 -1,0 -1,1Z"/>
<path onmouseover="hoverPath(evt)" onmouseout="recoverPath(evt)" fill="rgb(243,242,234)" d="M  156,0l -1,0 0,6 -1,1 0,13 1,1 0,0 1,1 4,0 1,1 11,0 1,-1 5,0 0,-2 1,-1 7,0 1,1 3,0 0,-6 1,-1 2,0 0,-4 -1,-1 0,-3 1,-1 0,-1 -1,-1 0,-2Z"/>
<path onmouseover="hoverPath(evt)" onmouseout="recoverPath(evt)" fill="rgb(190,206,219)" d="M  174,113l 0,0 1,1 4,0 1,1 1,0 1,1 0,-5 -1,-1 0,-1 -1,-1 -16,0 -1,1 -10,0 0,1 -1,1 -8,0 -1,1 -3,0 -1,1 -2,0 -1,1 -1,0 -1,1 -2,0 -1,1 -3,0 -1,1 0,1 2,0 1,-1 2,0 1,-1 2,0 1,-1 1,0 1,-1 2,0 1,-1 3,0 1,-1 25,0 1,1Z"/>
<path onmouseover="hoverPath(evt)" onmouseout="recoverPath(evt)" fill="rgb(245,244,237)" d="M  211,1l 0,1 1,1 0,2 1,1 0,2 1,1 0,1 1,1 0,2 1,1 0,1 1,1 0,2 1,1 0,2 1,1 0,2 1,1 0,2 1,1 0,2 1,1 0,3 1,1 0,2 1,1 0,2 1,1 0,2 1,1 0,2 1,1 0,2 1,1 0,1 1,1 0,2 1,1 0,1 1,1 0,2 1,1 0,1 1,1 0,2 1,1 0,2 1,1 0,1 1,1 0,3 1,1 0,3 1,1 0,4 1,1 0,4 1,1 0,3 1,1 0,4 1,1 0,2 13,0 0,-99 -43,0 -1,1Z"/>
<path onmouseover="hoverPath(evt)" onmouseout="recoverPath(evt)" fill="rgb(242,242,232)" d="M  0,18l 0,19 1,0 1,-1 0,0 1,-1 1,-1 2,-2 0,-1 1,-1 1,0 1,-1 1,0 1,-1 1,-1 1,-1 0,-1 1,-1 1,0 1,-1 1,0 1,-1 1,-1 1,-1 0,-1 1,-1 1,0 0,-2 1,-1 2,-2 1,-1 2,0 1,1 1,-1 0,0 -1,-1 -2,0 2,1 -5,0 -1,1 -3,0 -1,1 -2,0 -1,1 -3,0 -1,1 -6,0 -1,1 -4,0 -1,1Z"/>
<path onmouseover="hoverPath(evt)" onmouseout="recoverPath(evt)" fill="rgb(242,243,237)" d="M  3,38l 0,0 -1,1 1,0 1,-1 1,0 1,-1 1,-1 3,0 1,-1 1,-1 1,-1 1,-1 0,-2 1,-1 1,0 0,-1 1,-1 1,-1 3,-3 2,0 0,-1 1,-1 1,-1 1,-1 1,-1 1,-1 4,0 1,-1 1,-1 1,0 0,-2 1,-1 2,0 1,-1 1,0 1,-1 4,0 1,-1 5,0 1,-1 6,0 1,-1 6,0 1,-1 6,0 1,-1 8,0 1,-1 5,0 1,-1 6,0 1,-1 5,0 1,-1 6,0 1,1 3,0 1,1 0,-3 -52,0 0,2 -1,1 -7,0 -1,1 -7,0 -1,1 -1,0 -1,1 -1,0 -1,1 -1,0 -1,1 -3,0 -2,2 -1,0 1,1 0,2 -1,1 -1,1 -2,0 -1,-1 -1,1 -1,1 -1,1 0,2 -1,1 -1,0 0,1 -1,1 -1,1 -1,1 -1,1 -1,0 -1,1 -1,0 0,1 -1,1 -1,1 -1,1 -1,1 -1,0 -1,1 -1,0 0,1 -1,1 -1,1 -1,1 -1,1 -1,1 -1,2 -1,-1 -1,0 0,2 1,0 1,-1 1,-2Z"/>
<path onmouseover="hoverPath(evt)" onmouseout="recoverPath(evt)" fill="rgb(173,199,238)" d="M  34,6l 2,0 1,-1 1,0 1,-1 1,0 1,-1 1,0 1,-1 7,0 1,-1 7,0 0,-1 -18,0 0,2 -1,1 -1,0 -1,1 -1,0 -1,1 -1,1 -3,0 -1,1 -3,0 -1,1 -4,0 -1,1 -2,0 -1,1 -2,0 -1,1 -2,0 -1,1 -3,0 -1,1 -8,0 0,2 4,0 1,-1 6,0 1,-1 3,0 1,-1 2,0 1,-1 3,0 1,-1 2,0 1,-1 3,0 1,-1 1,0 1,-1 1,-1Z"/>
<path onmouseover="hoverPath(evt)" onmouseout="recoverPath(evt)" fill="rgb(245,235,143)" d="M  115,26l 0,2 -1,1 0,18 1,1 0,11 -1,1 -1,1 1,0 1,1 0,3 1,1 0,18 1,1 0,22 1,1 0,11 -1,1 -4,0 -1,-1 -1,0 -1,-1 -1,-1 -1,-1 0,-1 -1,-1 -1,-1 -1,0 -1,-1 -1,0 -1,-1 -2,0 -1,-1 -2,0 -1,1 -3,0 -1,1 -1,1 -4,0 -1,1 -3,0 -1,1 1,0 4,-1 5,-1 1,-1 3,0 1,-1 2,0 1,1 2,0 1,1 1,1 1,0 1,1 1,0 -1,-1 0,0 -2,-1 4,4 0,1 1,1 0,0 1,1 1,1 2,0 1,1 3,0 1,1 0,38 -1,1 0,31 1,1 0,3 -1,1 0,22 -1,1 -3,0 4,1 0,30 1,1 0,2 6,0 0,-2 1,-1 3,0 -3,-1 0,-22 1,-1 0,-4 -1,0 -1,-1 0,-32 1,-1 7,0 -6,-1 0,-69 -1,-1 0,-3 1,-1 1,-1 3,0 1,-1 2,0 1,-1 1,0 1,-1 2,0 1,-1 3,0 1,-1 8,0 0,-1 1,-1 10,0 1,-1 18,0 1,1 4,0 1,1 0,4 1,-4 6,0 1,1 3,0 0,-1 1,-1 56,0 0,-4 -20,0 -1,-1 0,-1 -31,0 -1,-1 0,-1 -1,2 -68,0 -1,1 -5,0 -1,-1 0,-2 -1,0 -1,-1 0,-5 -1,-1 0,-15 1,-1 0,-14 -1,-1 0,-18 -1,-1 0,-22 -1,-1 0,-19 -7,0 0,4 -1,1 0,19 1,0 1,1 0,1 1,172 0,0 -1,-172Z"/>
<path onmouseover="hoverPath(evt)" onmouseout="recoverPath(evt)" fill="rgb(252,252,250)" d="M  127,254l -1,0 0,1 38,0 0,-4 1,-1 4,0 1,-1 6,0 1,-1 6,0 1,-1 7,0 1,-1 3,0 1,1 1,1 0,7 3,0 0,-9 1,-1 7,0 1,-1 9,0 1,-1 8,0 1,-1 9,0 1,-1 8,0 1,-1 8,0 0,-1 -9,0 -1,1 -8,0 -1,1 -9,0 -1,1 -8,0 -1,1 -8,0 -1,1 -9,0 -1,-1 0,-5 -1,-1 0,-19 -1,-1 0,-20 -1,-1 0,-10 1,-1 1,-1 2,0 1,-1 7,0 1,-1 7,0 1,-1 8,0 1,-1 8,0 1,-1 1,0 0,-1 -2,0 -1,1 -8,0 -1,1 -7,0 -1,1 -8,0 -1,1 -10,0 -1,-1 0,-1 -1,-1 0,-5 -1,-1 0,-6 -1,-1 0,-6 -1,-1 0,-7 -1,-1 0,-6 -1,-1 0,-6 -1,-1 0,-6 -1,-1 0,-7 -1,-1 0,-8 -1,-1 0,-4 -2,0 1,1 0,6 1,1 0,6 1,1 0,6 1,1 0,6 1,1 0,7 1,1 0,6 1,1 0,6 1,1 0,6 1,1 0,7 1,1 0,7 -1,1 -2,0 -1,1 -7,0 -1,1 -6,0 -1,1 -7,0 -1,1 -5,0 -1,1 -6,0 -1,1 -6,0 -1,1 -5,0 -1,1 -6,0 -1,1 -7,0 0,2 2,0 1,-1 5,0 1,-1 5,0 1,-1 6,0 1,-1 5,0 1,-1 6,0 1,-1 6,0 1,-1 6,0 1,-1 7,0 1,-1 10,0 1,1 0,12 1,1 0,19 1,1 0,19 1,1 0,3 -1,1 0,1 -1,1 -4,0 -1,1 -6,0 -1,1 -6,0 -1,1 -8,0 -1,1 -6,0 -1,1 -6,0 -1,1 -8,0 -1,1 -7,0 -1,1 -6,0 -1,1Z"/>
<path onmouseover="hoverPath(evt)" onmouseout="recoverPath(evt)" fill="rgb(243,242,233)" d="M  126,198l 0,24 1,0 1,1 0,6 -1,1 0,20 2,0 1,1 5,0 1,-1 7,0 1,-1 8,0 1,-1 6,0 1,-1 6,0 1,-1 8,0 1,-1 6,0 1,-1 6,0 1,-1 4,0 0,-1 1,-1 0,-1 -1,-1 0,-19 -1,-1 0,-19 -1,-1 0,-12 -8,0 -1,1 -7,0 -1,1 -6,0 -1,1 -6,0 -1,1 -6,0 -1,1 -5,0 -1,1 -6,0 -1,1 -5,0 -1,1 -5,0 -1,1 -3,0Z"/>
<path onmouseover="hoverPath(evt)" onmouseout="recoverPath(evt)" fill="rgb(252,252,250)" d="M  152,22l 0,0 -1,1 -1,0 -1,1 -9,0 -1,-1 -1,0 -1,-1 -1,0 -1,-1 0,-5 -1,2 0,1 -1,1 0,1 -1,1 -1,0 0,1 -1,1 -1,0 -1,1 1,0 1,1 1,0 1,1 1,1 5,0 1,1 0,-3 1,-1 1,0 11,-3 -2,2 0,0 1,1 0,1 1,1 0,-1 1,-1 0,0 1,-1 5,0 -5,-1 0,0 -1,-1 -1,-1 0,-15 1,-1 0,-5 -1,3 0,0 -1,1 -3,0 2,1 2,0 -2,19 2,-2Z"/>
<path onmouseover="hoverPath(evt)" onmouseout="recoverPath(evt)" fill="rgb(238,237,223)" d="M  169,255l 26,0 0,-6 -1,-1 -1,0 -1,1 -7,0 -1,1 -6,0 -1,1 -6,0 -1,1 -4,0 0,3Z"/>
<path onmouseover="hoverPath(evt)" onmouseout="recoverPath(evt)" fill="rgb(240,238,226)" d="M  238,255l 17,0 0,-13 -7,0 -1,1 -8,0 -1,1 -9,0 -1,1 -8,0 -1,1 -9,0 -1,1 -7,0 0,8Z"/>
<path onmouseover="hoverPath(evt)" onmouseout="recoverPath(evt)" fill="rgb(242,240,230)" d="M  64,255l 43,0 0,-2 1,-1 1,-1 -1,-1 0,-2 -1,-1 0,-2 -1,0 -1,-1 -1,-1 0,-1 -1,-1 0,-1 -1,-1 -2,0 -1,-1 0,-2 1,-1 -1,-1 0,-1 -1,-1 -1,-1 0,-3 1,-1 -2,0 -1,-1 -1,-1 0,-1 -1,-1 0,-2 -1,-1 -1,-1 -4,0 -1,1 -6,0 -1,1 -10,0 0,2 -1,1 -1,0 0,2 1,1 0,1 1,1 1,1 1,0 1,-1 2,0 1,1 0,3 -1,1 -2,0 0,2 -1,1 -3,0 -1,1 -1,0 -1,1 -2,0 -1,1 -1,0 -1,1 -2,0 -1,-1 -1,0 -1,1 -1,0 -1,1 -1,1 1,1 0,4 -1,1 -5,0 -1,-1 0,-1 -1,-1 0,-1 -1,-1 0,-1 -1,0 -1,-1 -1,1 -3,0 -1,1 0,2 -1,1 0,1 1,1 0,2 -1,1 0,3Z"/>
<path onmouseover="hoverPath(evt)" onmouseout="recoverPath(evt)" fill="rgb(188,215,143)" d="M  125,79l 0,12 1,1 0,5 62,0 1,-1 7,0 0,-3 1,-1 3,0 0,-2 -1,-1 0,-3 -1,-1 0,-3 -1,-1 0,-3 -1,-1 0,-3 -1,2 -29,0 -1,1 -16,0 -1,1 -8,0 -1,-1 -1,1 -12,0 -1,1Z"/>
<path onmouseover="hoverPath(evt)" onmouseout="recoverPath(evt)" fill="rgb(243,241,232)" d="M  127,27l -3,0 0,14 1,1 0,18 1,1 0,15 11,0 1,-1 2,0 1,1 6,0 1,-1 1,0 0,-3 1,-1 1,-1 1,-1 1,-1 2,0 0,-5 -2,0 -1,-1 -1,-1 0,-4 -1,-1 0,-5 -1,-1 -2,0 -1,1 0,1 -1,1 0,1 -1,1 -1,1 -2,0 -1,1 -4,0 -1,-1 0,-2 -1,-1 0,-13 -1,-1 0,-2 1,-1 0,-1 1,-1 1,0 1,-1 0,-3 -5,0 -1,-1 -1,-1 -1,0 -1,-1Z"/>
<path onmouseover="hoverPath(evt)" onmouseout="recoverPath(evt)" fill="rgb(239,237,225)" d="M  134,0l -11,0 0,18 1,1 0,4 3,0 1,-1 1,0 0,-1 1,-1 1,0 0,-1 1,-1 0,-1 1,-1 0,-1 1,-1 2,0 1,1 0,5 1,0 1,1 1,0 1,1 7,0 1,-1 1,0 0,-14 -1,0 -1,-1 -1,0 -1,-1 0,-2 1,-1 3,0 1,-1 0,-1Z"/>
<path onmouseover="hoverPath(evt)" onmouseout="recoverPath(evt)" fill="rgb(184,204,229)" d="M  193,116l 17,0 1,-1 21,0 1,1 4,0 1,1 1,1 1,1 0,3 1,1 0,3 1,1 0,4 1,1 0,3 1,1 0,4 1,1 0,4 1,1 0,3 1,1 0,4 1,1 0,4 1,1 0,3 1,1 0,4 1,1 0,4 1,1 0,3 1,1 0,3 1,1 0,4 1,1 0,-25 -2,0 -1,-1 0,-4 -1,-1 0,-3 -1,-1 0,-4 -1,-1 0,-3 -1,-1 0,-4 -1,-1 0,-3 -1,-1 0,-3 -1,-1 0,-4 -1,-1 0,-3 -1,-1 0,-4 -1,-1 0,-6 1,-1 -43,0 0,1 -1,1 -5,0 -1,-1 -4,0 0,3 -1,1 0,2Z"/>
<path onmouseover="hoverPath(evt)" onmouseout="recoverPath(evt)" fill="rgb(173,198,233)" d="M  209,7l 0,1 1,1 0,3 1,1 0,4 1,1 0,2 1,1 0,1 1,1 0,2 1,1 0,2 1,1 0,2 1,1 0,2 1,1 0,2 1,1 0,3 1,1 0,2 1,1 0,2 1,1 0,2 1,1 0,1 1,1 0,2 1,1 0,2 1,1 0,2 1,1 0,1 1,1 0,2 1,1 0,2 1,1 0,2 1,1 0,3 1,1 0,4 1,1 0,4 1,1 0,5 1,1 0,4 1,1 0,3 19,0 -15,-1 0,-2 -1,-1 0,-4 -1,-1 0,-3 -1,-1 0,-4 -1,-1 0,-4 -1,-1 0,-3 -1,-1 0,-3 -1,-1 0,-1 -1,-1 0,-2 -1,-1 0,-2 -1,-1 0,-1 -1,-1 0,-2 -1,-1 0,-1 -1,-1 0,-2 -1,-1 0,-1 -1,-1 0,-2 -1,-1 0,-2 -1,-1 0,-2 -1,-1 0,-2 -1,-1 0,-2 -1,-1 0,-3 -1,-1 0,-2 -1,-1 0,-2 -1,-1 0,-2 -1,-1 0,-2 -1,-1 0,-2 -1,-1 0,-1 -1,-1 0,-2 -1,-1 0,-1 -1,-1 0,-2 -1,-1 -1,1 1,-3 -1,-1 0,-3 -2,0 0,2 1,1 0,2 2,-1 -1,3Z"/>
<path onmouseover="hoverPath(evt)" onmouseout="recoverPath(evt)" fill="rgb(245,244,237)" d="M  245,111l -1,0 0,4 1,1 0,4 1,1 0,3 1,1 0,4 1,1 0,3 1,1 0,3 1,1 0,4 1,1 0,3 1,1 0,4 1,1 0,3 1,1 0,4 1,0 0,-49Z"/>
</svg>