<svg width="256" height="256" xmlns="http://www.w3.org/2000/svg"><script> 
var tempColor;
function hoverPath(evt){
obj = evt.target;
tempColor = obj.getAttribute("fill");
obj.setAttribute("fill","red");
//alert(tempColor);
//obj.setAttribute("stroke","red");}
function recoverPath(evt){
obj = evt.target;
obj.setAttribute("fill", tempColor);
//obj.setAttribute("stroke", tempColor);
}</script><path onmouseover="hoverPath(evt)" onmouseout="recoverPath(evt)" fill="rgb(243,239,230)" d="M  109,208l 0,2 1,1 0,2 1,1 0,2 1,1 0,1 1,1 0,2 1,1 0,1 1,1 0,1 1,1 0,1 1,1 0,1 1,1 1,1 1,1 1,1 1,1 1,1 1,1 1,1 1,0 1,1 1,1 1,1 1,0 1,1 1,1 1,1 1,0 1,1 1,1 1,0 1,1 1,1 1,0 1,1 1,1 1,1 1,1 1,1 1,1 0,2 7,0 0,-1 -1,-1 0,-1 -1,-1 0,-1 -1,0 -1,-1 -1,0 -1,-1 0,-4 -1,-1 0,-1 -1,-1 -1,0 -1,-1 0,-2 -1,0 -1,-1 0,-2 -3,0 -1,-1 0,-2 1,-1 0,-1 -1,-1 0,-1 -1,-1 0,-1 -1,-1 0,-1 -1,-1 -1,-1 0,-1 -1,-1 0,-1 -3,0 -1,-1 0,-1 -1,-1 0,-3 1,-1 -3,0 -1,-1 0,-1 -1,-1 0,-2 -1,0 -1,-1 0,-1 -1,-1 0,-1 -1,0 -1,-1 -1,1 -1,0 -1,1 -1,0 -1,1 -1,0 -1,1 -1,0 -1,1Z"/>
<path onmouseover="hoverPath(evt)" onmouseout="recoverPath(evt)" fill="rgb(242,240,232)" d="M  143,88l 0,2 -1,1 0,4 -1,1 0,9 -1,1 -2,0 0,4 1,0 1,1 0,8 -1,1 0,4 1,1 0,6 -1,1 -1,0 0,1 1,0 1,1 1,1 0,5 -1,1 0,1 5,0 1,1 4,0 0,-1 1,-1 3,0 1,1 1,1 0,1 1,0 1,1 4,0 1,1 1,0 0,-2 1,-1 0,-1 -1,0 -1,-1 -1,0 -1,-1 0,-3 1,-1 3,0 0,-1 -1,-1 -3,0 -1,-1 0,-9 -1,-1 0,-2 1,-1 1,0 -2,-1 0,-2 1,-1 0,-1 -1,0 -1,-1 0,-10 1,-1 0,-4 1,-1 -2,0 -1,-1 -1,-1 -1,0 -1,-1 -1,-1 -1,0 -1,-1 -1,-1 -1,0 -1,-1 -1,-1 -1,0 -1,-1 -1,-1Z"/>
<path onmouseover="hoverPath(evt)" onmouseout="recoverPath(evt)" fill="rgb(243,242,235)" d="M  158,31l -1,0 -1,-1 -2,0 -1,-1 -1,-1 -1,0 -1,-1 0,-2 -1,0 -1,-1 -1,-1 -1,1 -2,0 -1,-1 -1,-1 -1,0 -1,-1 -1,-1 -1,0 -1,-1 -1,-1 -1,0 -1,-1 -1,-1 0,-2 -1,-1 0,-1 -1,0 -1,-1 -4,0 -1,-1 -1,-1 0,-2 -1,0 -1,-1 0,-1 -1,-1 -3,0 -1,-1 -1,-1 0,-2 -10,0 0,1 1,1 0,0 1,1 1,1 1,1 1,1 1,1 1,1 0,3 1,0 1,1 1,1 0,1 1,1 4,0 1,1 0,1 1,1 1,0 1,1 1,1 1,1 1,1 1,1 2,2 1,1 1,0 1,1 1,1 1,1 1,0 1,1 1,1 1,1 1,1 1,0 1,1 2,2 1,-1 3,0 1,1 0,3 1,1 1,0 1,1 1,1 4,0 1,1 1,1 0,2 1,0 1,1 1,1 1,0 1,1 1,1 1,0 1,1 1,0 1,1 1,1 1,0 1,1 1,1 1,0 1,1 1,1 1,0 1,1 1,0 1,1 1,1 1,0 1,1 1,1 1,0 1,1 1,0 1,1 1,1 1,0 1,1 1,1 1,0 1,1 1,0 1,1 1,1 1,0 1,1 1,1 1,0 1,1 1,1 1,0 1,1 1,1 1,0 1,1 1,1 1,0 1,1 1,1 1,0 1,1 1,1 1,0 1,1 1,1 1,1 1,0 1,1 1,0 1,1 1,1 1,1 1,0 1,1 1,0 1,1 1,1 1,0 1,1 1,1 1,0 1,1 1,1 1,0 1,1 1,1 1,1 1,0 1,1 1,1 1,0 1,1 1,1 1,1 1,0 1,1 1,1 1,1 1,1 1,1 1,0 0,-68 -2,0 -1,1 -16,0 -1,-1 -16,0 -1,-1 -11,0 -1,-1 -7,0 -1,-1 -7,0 -1,-1 -7,0 -1,-1 -6,0 -1,-1 -4,0 -1,-1 -3,0 -1,-1 -3,0 -1,-1 -1,0 -1,-1Z"/>
<path onmouseover="hoverPath(evt)" onmouseout="recoverPath(evt)" fill="rgb(243,238,200)" d="M  226,139l 0,0 1,1 1,1 3,0 1,1 1,1 1,1 1,1 1,1 1,1 0,3 -1,1 2,0 1,1 0,1 1,0 1,1 1,1 1,1 1,1 1,1 1,1 0,1 1,1 1,1 1,1 1,0 1,1 0,2 1,1 1,1 1,1 1,0 0,-16 -3,0 -1,-1 0,-2 -1,-1 -1,-1 -1,-1 -1,-1 -1,-1 -1,0 -1,-1 0,-1 -1,-1 -1,-1 0,-1 -1,-1 -1,-1 -1,-1 -1,0 -1,-1 0,-1 -1,0 -1,-1 0,-1 -1,-1 -1,-1 -1,-1 -1,0 -1,-1 0,-1 -1,-1 -1,-1 -1,-1 -2,0 -1,-1 0,-1 -1,-1 -1,-1 -1,-1 -1,-1 -1,0 -1,-1 -1,-1 -2,0 -1,-1 0,-1 -1,-1 -1,0 -1,-1 -1,-1 -2,0 -1,-1 0,-1 -1,0 -1,-1 -1,-1 -1,0 -1,-1 -1,-1 -1,0 -1,-1 -1,-1 -1,0 -1,-1 -1,-1 -1,0 -1,-1 -1,0 -1,-1 -1,-1 -1,0 -1,-1 -1,0 -1,-1 -1,-1 -1,0 -1,-1 -1,0 -1,-1 -1,-1 -1,0 -1,-1 -1,0 -1,-1 -1,-1 -1,0 -1,-1 -1,-1 -1,0 -1,-1 -1,0 -1,-1 -1,-1 -1,0 -1,-1 -1,0 -1,-1 -1,-1 -1,0 -1,-1 -2,0 -1,-1 0,-1 -1,-1 -1,0 -1,-1 -1,0 -1,-1 -1,-1 -1,0 -1,-1 -1,-1 -1,0 -1,-1 -1,-1 -3,0 -1,-1 0,-1 -1,-1 -1,0 -1,-1 -1,-1 -1,0 -1,-1 -1,0 -1,-1 -1,-1 -1,0 -1,-1 -1,-1 -1,0 -1,-1 -2,0 -1,-1 0,-1 -2,0 -1,-1 0,-1 -1,-1 -1,-1 -1,0 -1,-1 -1,-1 -1,-1 -2,0 -1,-1 0,-1 -1,-1 -1,-1 -1,-1 -1,0 -1,-1 -1,-1 -1,-1 0,-1 -1,-1 -1,-1 0,-4 1,-1 1,-1 1,0 0,-2 -2,0 -1,1 -1,0 -1,1 -6,0 -1,-1 -2,0 -1,-1 0,3 -1,1 -3,0 0,1 -1,1 -4,0 -1,1 -2,0 0,4 -1,1 -2,0 -1,1 -2,0 -1,1 -1,1 -3,0 -1,1 -1,0 -1,1 -3,0 0,3 2,0 1,-1 1,0 0,-1 1,-1 1,0 1,-1 5,0 1,-1 2,0 1,1 0,1 3,0 1,1 0,12 -1,1 -1,1 -1,0 0,2 -1,1 -1,1 0,2 -1,1 -2,0 0,8 1,0 1,1 1,0 1,1 1,1 0,2 3,0 1,1 0,2 1,0 1,1 0,5 -1,1 2,0 1,1 0,4 1,1 1,0 1,1 3,0 1,1 0,4 2,0 1,1 0,2 1,1 0,2 2,0 1,1 1,1 0,5 1,1 1,1 0,1 1,1 0,1 1,1 2,0 1,1 1,1 0,2 1,0 1,1 0,1 1,1 0,2 -1,1 0,2 1,1 3,0 1,-1 0,0 1,-1 2,0 1,1 1,0 1,1 0,1 1,0 1,1 5,0 0,-1 1,-1 3,0 1,1 1,0 1,1 0,1 1,0 0,-1 1,-1 0,-3 -1,-1 -1,0 -1,-1 0,-3 1,-1 1,0 0,-4 -1,-1 0,-6 1,-1 0,-6 -1,0 -1,-1 0,-6 1,-1 2,0 0,-9 1,-1 0,-4 1,-1 0,-2 1,-1 3,0 1,1 1,1 1,0 1,1 1,1 1,0 1,1 1,1 1,0 1,1 1,1 1,0 1,1 1,1 2,0 1,1 0,1 1,0 1,1 1,1 1,0 1,1 1,1 1,0 1,1 1,1 1,0 1,1 2,0 1,1 0,1 1,0 1,1 1,1 1,0 1,1 1,0 1,1 1,1 1,0 1,1 0,1 1,1 1,0 1,1 0,2 4,0 1,1 1,0 1,1 1,1 1,1 1,0 1,1 1,0 1,1 0,2 1,1 3,0 1,1 2,0 1,1 1,1 1,0 1,1 1,1 0,2 -1,1 -1,0 -1,1 3,-1 1,0 1,1 3,0 1,1 3,0 1,1 1,1 1,0 -135,-108 0,-2 -1,0 0,2 1,0 135,108Z"/>
<path onmouseover="hoverPath(evt)" onmouseout="recoverPath(evt)" fill="rgb(249,201,109)" d="M  38,1l 0,1 1,1 0,4 1,1 0,4 1,1 0,4 1,1 0,5 1,1 0,4 -1,1 0,1 1,0 1,1 0,2 1,1 0,3 -1,1 -1,0 0,1 1,1 1,0 1,1 0,3 1,1 0,3 -1,1 -2,0 -1,1 -2,0 0,1 1,1 0,0 1,1 1,-1 3,0 1,1 0,1 1,1 0,3 1,1 0,3 -1,1 0,2 1,1 0,4 1,1 0,4 1,1 0,2 1,1 0,2 2,0 2,2 0,2 1,1 0,1 1,0 1,1 0,4 1,1 0,1 1,1 0,2 -1,1 0,1 -1,1 2,0 1,1 2,0 1,1 0,3 -1,1 1,0 1,1 0,1 2,0 1,1 0,3 -1,1 1,0 1,1 0,1 2,0 1,1 0,2 1,0 1,1 0,1 1,1 0,3 -1,1 1,0 1,1 0,1 2,0 1,1 0,1 1,1 0,1 1,1 1,1 0,1 1,1 0,1 1,1 1,1 0,1 1,1 0,2 -1,1 1,1 0,1 2,0 1,1 1,1 1,1 0,2 -1,1 0,1 1,1 0,1 1,0 1,1 0,1 2,0 1,1 0,1 1,1 1,1 0,1 1,1 0,1 1,1 1,1 0,2 -1,1 0,1 1,1 0,1 1,0 1,1 0,1 2,0 1,1 0,1 1,1 1,1 0,1 1,1 0,3 -1,1 1,0 1,1 0,2 1,1 0,1 1,0 1,1 0,1 2,0 1,1 0,1 1,1 1,1 0,1 1,1 0,2 1,1 0,4 1,1 0,1 1,0 1,1 0,2 1,1 0,1 3,0 1,1 0,2 -1,1 0,1 1,1 0,1 3,0 1,1 0,1 1,1 0,1 1,1 1,1 0,1 1,1 0,1 1,1 0,1 1,1 0,3 -1,1 3,0 1,1 0,2 1,0 1,1 0,2 1,0 1,1 1,1 0,1 1,1 0,4 1,0 1,1 1,0 1,1 0,1 1,1 0,1 1,1 0,2 14,0 0,-3 1,-1 -1,0 -1,-1 0,-1 -2,0 -1,-1 0,-2 -1,0 -1,-1 0,-3 1,-1 -1,0 -1,-1 0,-1 -2,0 -1,-1 0,-4 -2,0 -1,-1 0,-1 -1,-1 -1,-1 0,-1 -1,-1 0,-3 1,-1 -3,0 -1,-1 0,-2 1,-1 -1,-1 0,-2 -3,0 -1,-1 0,-4 -2,0 -1,-1 0,-4 -2,0 -1,-1 0,-4 -2,0 -1,-1 0,-1 -1,-1 -1,-1 0,-1 -1,-1 0,-1 -1,-1 -1,-1 0,-1 -1,-1 0,-1 -1,-1 -1,-1 0,-1 -1,-1 0,-1 -1,-1 -1,-1 0,-1 -1,-1 0,-1 -1,-1 -1,-1 0,-1 -1,-1 0,-3 1,-1 -1,0 -1,-1 0,-2 -1,-1 0,-1 -1,0 -1,-1 0,-2 -1,-1 0,-1 -1,0 -1,-1 0,-2 -1,-1 0,-1 -3,0 -1,-1 0,-1 -1,-1 0,-2 1,-1 -1,-1 -2,0 -1,-1 0,-1 -1,-1 -1,-1 0,-1 -1,-1 0,-1 -1,-1 0,-1 -1,-1 -1,-1 0,-1 -1,-1 -1,-1 0,-1 -1,-1 0,-1 -1,-1 -1,-1 0,-1 -1,-1 0,-3 1,-1 -1,0 -1,-1 0,-2 -1,-1 0,-1 -1,0 -1,-1 0,-2 -1,-1 0,-1 -1,0 -1,-1 0,-2 -1,-1 0,-1 -3,0 -1,-1 0,-3 1,-1 -3,0 -1,-1 0,-1 -1,-1 -1,-1 0,-1 -1,-1 0,-1 -1,-1 -1,-1 0,-1 -1,-1 0,-3 1,-1 -1,-1 0,-1 -3,0 -1,-1 0,-1 -1,-1 0,-1 -1,-1 0,-2 1,-1 1,0 -2,-1 0,-3 -1,-1 -1,-1 0,-4 -1,-1 0,-3 -1,-1 0,-2 -1,-1 0,-8 -1,0 -1,-1 0,-4 -1,-1 -1,-1 0,-1 -1,0 -1,-1 0,-5 1,-1 0,-1 -1,0 -1,-1 0,-1 -1,-1 0,-5 -1,-1 0,-4 -1,-1 0,-3 -1,-1 0,-4 -1,-1 0,-3 1,-1 1,0 0,-2 -1,-1 0,-1 -2,0 -1,-1 0,-4 1,-1 1,-1 -11,0 -1,1Z"/>
<path onmouseover="hoverPath(evt)" onmouseout="recoverPath(evt)" fill="rgb(247,236,143)" d="M  57,0l -5,0 0,1 -1,1 -1,1 0,2 2,0 1,1 0,1 1,1 0,2 1,0 1,1 0,1 1,1 1,1 1,1 1,1 1,1 1,1 1,1 1,1 1,1 1,1 1,1 2,2 0,2 1,1 0,1 1,1 1,1 1,1 1,1 2,0 1,1 0,1 1,0 1,1 1,1 1,-1 4,0 0,-1 1,-1 3,0 0,-1 -1,-1 0,-5 -1,-1 -1,-1 -1,-1 -1,-1 -1,-1 -1,-1 -1,-1 -1,-1 -1,-1 -1,0 -1,-1 0,-1 -1,-1 -1,-1 -1,-1 -1,-1 -1,-1 -1,-1 -1,-1 -1,-1 -1,-1 0,-1 -1,-1 -1,-1 -1,-1 -1,-1 0,-2Z"/>
<path onmouseover="hoverPath(evt)" onmouseout="recoverPath(evt)" fill="rgb(241,240,233)" d="M  66,1l 0,0 1,1 1,1 1,1 1,1 0,1 1,1 1,1 3,3 1,1 1,1 1,1 1,1 0,1 1,0 1,1 1,1 1,1 1,1 1,1 1,1 1,1 1,1 1,1 1,1 0,1 2,0 1,1 0,3 2,0 1,1 4,0 1,-1 1,0 1,-1 2,0 0,-6 -1,0 -1,-1 -1,-1 0,-2 -2,0 -1,-1 0,-1 -1,-1 -1,-1 -1,-1 -1,-1 -1,-1 -1,-1 -1,-1 -1,-1 -1,-1 -1,-1 -1,-1 0,-1 -1,-1 -1,-1 -1,-1 -1,-1 0,-2 -17,0 -1,1Z"/>
<path onmouseover="hoverPath(evt)" onmouseout="recoverPath(evt)" fill="rgb(248,237,138)" d="M  120,0l -2,0 0,1 1,1 3,0 1,1 1,1 0,1 1,0 1,1 0,2 1,1 4,0 1,1 1,0 1,1 0,1 1,1 0,2 1,1 1,0 1,1 1,1 1,0 1,1 1,1 1,0 1,1 1,1 1,-1 2,0 1,1 1,1 1,0 1,1 0,2 1,0 1,1 1,1 2,0 1,1 3,0 1,1 1,0 1,1 3,0 1,1 3,0 1,1 4,0 1,1 6,0 1,1 7,0 1,1 7,0 1,1 7,0 1,1 11,0 1,1 16,0 1,1 14,0 1,-1 3,0 0,-11 -3,0 -1,1 -20,0 -1,-1 -12,0 -1,-1 -10,0 -1,-1 -7,0 -1,-1 -7,0 -1,-1 -8,0 -1,-1 -5,0 -1,-1 -3,0 -1,-1 -3,0 -1,-1 -2,0 -1,-1 -2,0 -1,-1 -1,0 -1,-1 -1,0 -1,-1 -1,-1 -1,1 -2,0 -1,-1 -1,0 -1,-1 0,-1 -1,-1 0,-1 -1,-1 -1,0 -1,-1 -1,0 -1,-1 -1,-1 -1,0 -1,-1 -1,-1 -1,-1 -4,0 -1,-1 -1,-1 0,-2Z"/>
<path onmouseover="hoverPath(evt)" onmouseout="recoverPath(evt)" fill="rgb(238,233,224)" d="M  136,194l 0,1 1,1 0,1 1,1 1,1 0,1 2,0 1,1 0,4 2,0 1,1 0,4 2,0 1,1 0,4 3,0 1,1 0,2 1,1 0,2 -1,1 3,0 1,1 0,2 -1,1 0,1 1,1 0,1 1,1 1,1 0,1 2,0 1,1 0,4 2,0 1,1 0,1 1,0 1,1 0,2 -1,1 0,1 1,0 1,1 0,2 2,0 1,1 0,1 1,0 1,1 0,2 -1,1 0,2 10,0 0,-2 1,-1 0,-3 -3,0 -1,-1 0,-1 -1,0 -1,-1 0,-1 -1,0 -1,-1 0,-4 1,-1 0,-1 -2,0 -1,-1 0,-1 -1,-1 -1,-1 0,-2 1,-1 -2,0 -1,-1 -1,-1 -2,0 -1,-1 0,-4 1,-1 -1,0 -1,-1 0,-1 -1,0 -1,-1 0,-5 -3,0 -1,-1 0,-3 1,-1 -1,-1 0,-1 -1,-1 0,-1 -1,-1 -1,0 -1,-1 0,-3 -1,0 -1,-1 0,-2 1,-1 -1,-1 0,-2 -1,1 -3,0 -1,-1 0,-1 -1,0 -1,-1 0,-1 -1,-1 0,-5 -1,-1 0,-1 -1,-1 -1,-1 0,-1 -1,0 -1,-1 -1,-1 0,-2 -3,0 -1,-1 0,-3 1,-1 -2,0 -1,-1 -1,-1 0,-5 -1,-1 0,-1 -1,-1 -1,-1 0,-1 -1,-1 -1,-1 0,-2 -1,0 -1,-1 0,-1 -1,0 -1,-1 -2,0 0,1 -1,1 -3,0 0,1 1,1 0,1 1,1 0,2 1,0 1,1 0,1 1,1 0,2 1,0 1,1 0,1 1,1 0,2 1,0 1,1 0,2 -1,1 0,1 1,1 0,1 2,2 0,1 1,1 0,1 1,1 1,1 0,1 1,1 0,1 1,1 1,1 0,1 1,1 0,1 1,1 1,1Z"/>
<path onmouseover="hoverPath(evt)" onmouseout="recoverPath(evt)" fill="rgb(244,243,236)" d="M  156,0l -21,0 0,1 1,1 4,0 1,1 1,1 1,1 1,0 1,1 1,1 1,0 1,1 1,0 1,1 1,1 0,1 1,1 0,1 1,0 1,1 1,-1 2,0 1,1 1,1 1,0 1,1 1,0 1,1 2,0 1,1 2,0 1,1 3,0 1,1 3,0 1,1 5,0 1,1 8,0 1,1 7,0 1,1 7,0 1,1 10,0 1,1 12,0 1,1 18,0 1,-1 4,0 0,-26Z"/>
<path onmouseover="hoverPath(evt)" onmouseout="recoverPath(evt)" fill="rgb(170,198,237)" d="M  159,48l 0,0 -1,-1 0,-2 -1,-1 -4,0 -1,-1 -1,-1 -1,0 -1,-1 0,4 -1,1 0,8 1,0 1,1 1,1 1,0 1,1 1,1 2,0 0,-2 1,-1 2,0 1,1 0,7 2,0 1,1 1,0 1,1 1,1 1,0 1,1 1,1 1,0 1,1 1,1 1,0 1,1 1,0 1,1 1,1 1,0 1,1 1,1 1,0 1,1 1,1 1,0 1,1 1,1 1,0 1,1 1,1 1,0 1,1 1,1 1,0 1,1 1,1 1,0 1,1 1,1 1,0 1,1 1,1 1,0 1,1 1,0 1,1 1,1 1,0 1,1 1,1 1,0 1,1 1,1 1,0 1,1 1,1 1,0 1,1 1,1 1,0 1,1 1,1 1,0 1,1 1,1 1,1 1,0 1,1 1,1 1,1 1,0 1,1 1,1 1,1 1,0 1,1 1,1 1,0 1,1 1,1 1,1 1,0 1,1 1,1 1,1 1,1 1,1 1,1 1,1 1,1 1,1 1,1 1,1 1,0 1,1 1,0 0,-17 -2,0 -1,-1 -1,-1 -1,-1 -1,-1 -1,-1 -1,0 -1,-1 -1,-1 -1,-1 -1,0 -1,-1 -1,-1 -1,0 -1,-1 -1,-1 -1,-1 -1,0 -1,-1 -1,-1 -1,0 -1,-1 -1,-1 -1,0 -1,-1 -1,-1 -1,0 -1,-1 -1,0 -1,-1 -1,-1 -1,-1 -1,0 -1,-1 -1,0 -1,-1 -1,-1 -1,-1 -1,0 -1,-1 -1,-1 -1,0 -1,-1 -1,-1 -1,0 -1,-1 -1,-1 -1,0 -1,-1 -1,-1 -1,0 -1,-1 -1,-1 -1,0 -1,-1 -1,-1 -1,0 -1,-1 -1,-1 -1,0 -1,-1 -1,0 -1,-1 -1,-1 -1,0 -1,-1 -1,-1 -1,0 -1,-1 -1,0 -1,-1 -1,-1 -1,0 -1,-1 -1,-1 -1,0 -1,-1 -1,0 -1,-1 -1,-1 -1,0 -1,-1 -1,-1 -1,0 -1,-1 -1,-1 -1,0 -1,-1 -1,0 -1,-1 -1,-1 -1,0 -1,-1 -1,-1Z"/>
<path onmouseover="hoverPath(evt)" onmouseout="recoverPath(evt)" fill="rgb(247,199,112)" d="M  0,130l 0,8 6,0 1,1 0,1 3,0 1,1 11,0 1,-1 4,0 1,-1 4,0 1,1 0,1 5,0 1,1 0,-2 1,-1 3,0 1,1 0,1 3,0 1,1 1,0 1,1 1,-1 2,0 1,-1 7,0 1,1 4,0 1,1 0,2 2,0 1,1 3,0 0,-1 1,-1 4,0 1,1 0,1 1,0 1,1 1,-1 2,0 1,-1 1,0 -1,-1 0,-2 1,-1 -1,-1 0,-1 -1,-1 -1,-1 0,-1 -2,0 -1,-1 -2,0 -1,-1 0,-1 -2,0 -1,1 -4,0 -1,-1 -2,0 -1,-1 0,-1 -3,0 -1,-1 -1,1 -2,0 -1,1 -4,0 -1,-1 -3,0 -1,-1 0,-1 -15,0 -1,-1 -9,0 -1,-1 -1,0 -1,1 -6,0 -1,-1 0,-2 -1,-1 0,-1 -2,0 0,1 1,1 0,2 -1,1 -4,0 -1,-1 0,2 -1,1 -3,0 -1,-1 -1,1Z"/>
<path onmouseover="hoverPath(evt)" onmouseout="recoverPath(evt)" fill="rgb(172,195,230)" d="M  43,114l -2,0 -1,1 -1,0 -1,1 -2,0 -1,1 -1,0 0,1 -1,1 -1,0 -1,1 -2,0 0,1 3,-1 2,-1 1,-1 2,0 1,-1 1,0 1,-1 1,0 1,-1 1,-1 3,0 1,-1 2,0 1,-1 6,0 1,1 1,1 1,1 1,1 1,1 1,1 1,1 1,1 1,1 0,1 1,1 1,1 1,1 0,6 2,0 1,1 2,0 -1,-1 -1,-1 0,-4 -1,-1 0,-1 -1,-1 0,-1 -1,-1 -1,-1 -1,-1 -1,-1 0,-1 -1,-1 -1,-1 -1,-1 -1,-1 -1,-1 -1,-1 0,-1 -1,-1 0,-10 1,-1 0,-1 1,-1 -1,-1 0,-1 -1,-1 0,-1 -1,1 -3,0 0,2 1,1 0,10 -1,1 0,2 -1,1 -1,1 -3,0 -1,1 -2,0 0,1 -1,1Z"/>
<path onmouseover="hoverPath(evt)" onmouseout="recoverPath(evt)" fill="rgb(244,243,235)" d="M  46,242l 0,1 1,1 2,0 1,1 0,2 -1,1 1,1 0,0 1,1 0,1 1,1 1,1 0,2 84,0 0,-1 -1,-1 0,0 -1,-1 -1,-1 -1,0 -1,-1 -1,-1 -1,-1 -1,0 -1,-1 -1,0 -1,-1 -1,0 -1,-1 -1,-1 -1,-1 -1,-1 -1,0 -1,-1 -1,-1 -1,-1 -1,-1 -1,-1 -1,-1 -1,-1 -1,-1 -1,-1 -1,-1 0,-1 -1,-1 0,-1 -1,-1 0,-2 -1,-1 0,-2 -1,-1 0,-2 -1,-1 0,-1 -1,-1 0,-2 -1,-1 0,-3 -2,0 -1,1 -1,0 -1,1 -1,0 -1,1 -1,1 -1,0 -1,1 -2,0 -1,-1 0,2 -1,1 -1,0 -1,1 -1,0 -1,1 -1,0 -1,1 -1,1 -1,0 -1,1 -1,0 -1,1 -1,0 -1,1 -1,0 -1,1 -1,0 -1,1 -1,0 -1,1 -1,0 -1,1 -1,0 -1,1 -1,1 -1,0 -1,1 -1,0 -1,1 -1,0 -1,1 -1,0 -1,1 -1,1 -1,0 -1,1 -1,0 -1,1 -1,0 -1,1 -1,0 -1,1 -2,0 -1,-1 0,2 1,1Z"/>
<path onmouseover="hoverPath(evt)" onmouseout="recoverPath(evt)" fill="rgb(240,239,232)" d="M  150,185l 0,0 -1,1 -3,0 -1,-1 0,4 1,1 0,1 1,0 1,1 0,1 1,0 1,-1 2,0 1,1 0,2 1,1 0,2 -1,1 1,0 1,1 0,3 1,0 1,1 1,1 0,1 1,1 0,1 1,1 0,2 -1,1 0,1 3,0 1,1 0,5 1,0 1,1 0,1 1,0 1,1 0,2 -1,1 0,2 2,0 1,1 1,1 2,0 1,1 0,2 -1,1 1,1 0,0 1,1 0,1 2,0 1,1 0,3 -1,1 0,2 1,0 1,1 0,1 1,0 1,1 0,1 3,0 1,1 0,5 -1,1 0,1 15,0 0,-2 -1,-1 0,-1 -1,-1 0,-1 -1,-1 -1,-1 0,-1 -1,-1 0,-3 -1,-1 -1,-1 0,-2 -2,0 -1,-1 0,-2 -1,0 -1,-1 0,-6 1,-1 -1,-1 0,-2 -1,-1 0,-1 -2,0 -1,-1 0,-2 -1,-1 0,-2 -1,-1 0,-4 1,-1 -1,-1 0,-2 -1,-1 0,-3 -1,-1 0,-1 -1,-1 0,-2 -1,0 -1,-1 -1,-1 0,-4 1,-1 0,-2 -1,-1 0,-3 -1,-1 -3,0 -1,-1 0,-2 -1,-1 0,-2 1,-1 1,0 0,-1 -1,0 -1,-1 -1,1 -1,0 -1,1 -1,0 -1,1 -1,0 -1,1 -1,0 -1,1 -1,0 -1,1 -1,0 -1,1 -1,1 -2,0 -2,2Z"/>
<path onmouseover="hoverPath(evt)" onmouseout="recoverPath(evt)" fill="rgb(244,243,236)" d="M  161,66l 0,8 -1,1 0,3 -1,1 2,0 1,1 1,0 1,1 1,1 1,0 1,1 1,0 1,1 1,1 1,0 1,1 1,0 1,1 1,1 1,0 1,1 1,1 1,0 1,1 1,0 1,1 1,1 1,0 1,1 1,0 1,1 1,1 1,0 1,1 1,0 1,1 1,1 1,0 1,1 1,0 1,1 1,1 1,0 1,1 1,1 1,0 1,1 1,1 1,0 1,1 1,1 1,0 1,1 0,1 2,0 1,1 1,1 1,0 1,1 1,1 0,1 2,0 1,1 1,1 1,0 1,1 1,1 1,1 1,1 1,1 0,1 2,0 1,1 1,1 1,1 1,1 0,1 1,0 1,1 1,1 1,1 1,1 0,1 1,0 1,1 0,1 1,0 1,1 1,1 1,1 1,1 0,1 1,1 1,1 0,1 1,0 1,1 1,1 1,1 1,1 1,1 1,1 0,2 2,0 0,-21 -2,0 -1,-1 -1,0 -1,-1 -1,-1 -1,-1 -1,-1 -1,-1 -1,-1 -1,-1 -1,-1 -1,-1 -1,-1 -1,-1 -1,0 -1,-1 -1,-1 -1,-1 -1,0 -1,-1 -1,-1 -1,0 -1,-1 -1,-1 -1,-1 -1,0 -1,-1 -1,-1 -1,-1 -1,0 -1,-1 -1,-1 -1,-1 -1,0 -1,-1 -1,-1 -1,0 -1,-1 -1,-1 -1,0 -1,-1 -1,-1 -1,0 -1,-1 -1,-1 -1,0 -1,-1 -1,-1 -1,0 -1,-1 -1,-1 -1,0 -1,-1 -1,0 -1,-1 -1,-1 -1,0 -2,-2 -1,0 -1,-1 -1,-1 -1,0 -1,-1 -1,-1 -1,0 -1,-1 -1,-1 -1,0 -1,-1 -1,-1 -1,0 -1,-1 -1,-1 -1,0 -1,-1 -1,-1 -1,0 -1,-1 -1,-1 -1,0 -1,-1 -1,0 -1,-1 -1,-1 -1,0 -1,-1 -1,-1 -1,0 -1,-1 -1,-1Z"/>
<path onmouseover="hoverPath(evt)" onmouseout="recoverPath(evt)" fill="rgb(180,204,237)" d="M  0,3l 0,1 3,0 1,1 3,0 1,1 1,0 1,1 1,0 1,1 1,1 1,0 1,1 1,1 0,1 1,1 1,1 0,1 1,1 1,1 1,1 0,1 1,1 1,1 1,1 0,1 1,1 1,1 0,1 1,1 0,1 1,1 0,1 1,1 0,1 1,1 0,2 1,1 0,5 1,1 0,3 4,0 -1,-1 0,-6 -1,-1 0,-4 -1,-1 0,-1 -1,-1 -1,-1 0,-1 -1,-1 0,-3 1,-1 0,-1 -1,-1 -1,-1 -1,-1 0,-1 -1,-1 0,-1 -1,-1 0,-1 -1,-1 -1,-1 -1,-1 0,-1 -1,-1 -1,-1 0,-1 -1,-1 -1,1 -4,0 -1,-1 -1,-1 -2,0 -1,-1 -2,0 -1,-1 -3,0 -1,-1 0,-2 -3,0Z"/>
<path onmouseover="hoverPath(evt)" onmouseout="recoverPath(evt)" fill="rgb(241,239,233)" d="M  31,117l 1,0 0,-1 1,-1 1,0 1,-1 2,0 1,-1 1,0 1,-1 2,0 1,-1 1,0 1,-1 2,0 1,-1 3,0 1,-1 0,-2 1,-1 0,-8 -1,-1 0,-1 -7,0 -1,-1 0,-1 -1,-1 0,-2 1,-1 0,-5 1,-1 0,-1 -3,0 -1,-1 0,-2 -1,0 -1,-1 0,-2 1,-1 0,-2 1,-1 1,-1 1,0 -1,-1 0,-1 -1,-1 0,-1 -1,-1 0,-2 -1,-1 0,-1 -1,-1 0,-1 -1,-1 -1,-1 0,-1 -1,-1 0,-1 -1,-1 -1,-1 0,-3 -1,-1 -11,0 -1,-1 -16,0 -1,-1 -3,0 0,80 2,0 1,1 1,0 0,-2 1,-1 2,0 1,1 2,0 -1,-1 0,-3 1,-1 4,0 1,1 0,1 1,1 0,2 4,0 1,-1 3,0 1,1 9,0 1,1 15,0 1,1 0,1 3,0 1,1 2,0 1,-1 2,0 1,-1 2,0 1,1 2,0 0,-3 -1,-1 0,0 -1,-1 -1,-1 0,-1 -1,-1 -1,-1 -1,-1 -1,-1 -1,-1 -1,-1 -1,-1 -1,-1 -4,0 -1,1 -2,0 -1,1 -1,0 -1,1 -2,0 -1,1 -1,0 -1,1 -1,0 -1,1 -2,0 -1,1 -1,0 -1,1 -2,0 -1,1 -2,0 -1,-1 0,-3 1,-1 2,0 1,-1Z"/>
<path onmouseover="hoverPath(evt)" onmouseout="recoverPath(evt)" fill="rgb(170,198,237)" d="M  67,147l -1,0 0,1 -1,1 0,9 1,1 0,1 2,2 1,1 0,1 2,0 1,1 1,0 1,1 1,0 1,1 1,0 1,1 1,0 1,1 1,1 1,1 1,0 1,1 1,1 1,1 0,1 2,0 1,1 0,1 1,1 1,1 1,1 1,1 1,1 0,1 1,1 1,1 0,1 1,1 1,1 0,1 1,1 0,3 1,1 0,3 1,1 0,2 1,1 0,2 1,1 1,0 1,-1 0,-1 -1,-1 0,-3 -1,-1 0,-3 -1,-1 0,-3 -1,-1 0,-2 -1,-1 -1,-1 0,-1 -1,-1 -1,-1 0,-1 -1,-1 -2,-2 -1,0 -3,-3 -1,-1 -1,-1 -1,-1 -1,-1 -1,-1 -1,-1 -1,0 -1,-1 -1,0 -1,-1 -1,-1 -1,0 -1,-1 -1,0 -1,-1 -1,0 -1,-1 -1,-1 -1,-1 -1,-1 -1,-1 -1,-1 0,-8 1,-1 0,-1 -1,-1Z"/>
<path onmouseover="hoverPath(evt)" onmouseout="recoverPath(evt)" fill="rgb(250,202,112)" d="M  105,139l 0,1 -1,1 1,1 0,1 1,1 0,1 1,1 1,1 0,1 2,0 1,1 1,1 0,2 -1,1 1,1 0,1 1,0 0,-2 1,-1 3,0 0,-1 1,-1 4,0 1,1 1,0 1,1 0,1 4,0 1,1 1,-1 1,-1 3,0 1,1 0,1 1,1 1,-1 0,0 1,-1 6,0 1,1 5,0 1,1 5,0 1,1 3,0 1,1 3,0 1,1 2,0 1,1 4,0 1,1 3,0 1,1 0,2 1,0 1,1 0,-1 1,-1 2,0 1,1 3,0 1,1 1,0 1,1 2,0 1,1 2,0 1,1 0,3 -1,1 -1,1 -3,0 2,1 4,0 1,-1 2,0 1,1 1,0 1,1 1,0 1,-1 0,-1 1,-1 2,0 1,1 1,0 1,1 0,2 1,0 1,1 0,1 1,0 1,1 1,0 1,1 1,0 1,1 1,0 1,1 1,0 1,1 1,0 1,1 0,-1 1,-1 2,0 1,1 1,1 1,1 1,1 0,3 5,0 1,1 0,3 2,0 1,1 1,-1 2,0 1,1 1,1 1,0 1,1 1,0 1,1 0,3 1,0 1,1 0,-1 1,-1 2,0 0,-13 -2,0 -1,-1 -1,0 -1,-1 -1,-1 0,-2 -1,1 -3,0 -1,-1 -1,0 -1,-1 -4,0 -1,-1 -1,-1 0,-2 -1,1 -3,0 -1,-1 0,-2 -1,1 -2,0 -1,-1 0,-2 1,-1 -2,1 -3,0 -1,-1 -1,0 -1,-1 0,-2 -4,0 -1,-1 -1,-1 -2,0 -1,-1 -1,0 -1,-1 -1,0 -1,-1 0,-2 -1,0 -1,-1 -1,1 -2,0 -1,-1 -1,0 -1,-1 -1,0 -1,-1 -2,0 -1,-1 -2,0 -1,-1 -2,0 -1,-1 -2,0 -1,-1 -3,0 -1,-1 -1,-1 -4,0 -1,-1 -3,0 -1,-1 -4,0 -1,-1 -4,0 -1,-1 -4,0 -1,-1 -1,0 -1,-1 0,-1 -1,-1 -1,0 0,1 -1,1 -6,0 -1,-1 -5,0 -1,-1 -2,0 -1,-1 0,-1 -1,0 -1,-1 -1,0 0,1 -1,1 -7,0 -1,-1 -1,0 -1,-1 0,-1 -1,0 -1,-1 -1,1 0,0 -1,1 -5,0 -1,-1 -3,0 -1,-1 0,-1 -3,0 1,1Z"/>
<path onmouseover="hoverPath(evt)" onmouseout="recoverPath(evt)" fill="rgb(171,198,237)" d="M  105,211l 0,2 1,1 0,2 1,1 0,1 1,1 0,2 1,1 0,2 1,1 0,2 1,1 0,1 1,1 0,1 1,1 1,1 1,1 1,1 1,1 2,2 1,1 1,1 1,0 1,1 1,1 1,1 1,1 1,0 1,1 1,0 1,1 1,0 1,1 1,1 1,1 1,0 1,1 1,1 1,1 1,1 0,2 5,0 0,-1 -1,-1 0,0 -1,-1 -1,-1 -1,-1 -1,-1 -1,0 -1,-1 -1,-1 -1,0 -1,-1 -1,-1 -1,0 -1,-1 -1,-1 -1,-1 -1,0 -1,-1 -1,-1 -1,-1 -1,0 -1,-1 -1,-1 -1,-1 -1,-1 -1,-1 -1,-1 -1,-1 -1,-1 -1,-1 0,-1 -1,-1 0,-1 -1,-1 0,-1 -1,-1 0,-1 -1,-1 0,-2 -1,-1 0,-1 -1,-1 0,-2 -1,-1 0,-2 -1,-1 0,-2 -1,0 -1,1Z"/>
<path onmouseover="hoverPath(evt)" onmouseout="recoverPath(evt)" fill="rgb(173,195,229)" d="M  35,52l 0,0 1,1 1,1 0,1 1,1 0,1 1,1 1,1 0,1 1,1 0,1 1,1 0,2 1,1 0,1 1,1 0,1 1,1 0,1 1,1 1,1 0,1 1,1 1,0 0,-3 -1,-1 0,-4 -1,-1 0,-4 1,-1 0,-1 -1,-1 0,-3 -1,-1 0,-1 -1,0 -1,1 -2,0 -1,-1 -2,-2 0,-1 -3,0 -1,1Z"/>
<path onmouseover="hoverPath(evt)" onmouseout="recoverPath(evt)" fill="rgb(243,239,230)" d="M  72,148l -1,0 0,2 -1,1 0,6 1,1 0,0 1,1 1,1 1,1 1,1 1,0 1,1 1,0 1,1 1,0 1,1 1,1 1,0 1,1 1,0 1,1 1,1 1,1 1,1 1,1 1,1 1,1 1,1 1,1 1,0 4,4 0,1 1,1 1,1 0,1 1,1 1,1 0,2 1,1 0,3 1,1 0,3 1,1 0,3 1,1 0,3 -1,1 -1,1 -2,0 0,1 -1,1 -1,1 2,0 1,-1 0,0 1,-1 1,0 0,-1 1,-1 1,0 0,-2 1,-1 2,0 1,1 1,-1 1,0 1,-1 1,0 1,-1 2,0 1,1 0,-1 -1,-1 0,-2 -1,-1 0,-1 -1,-1 -1,-1 0,-1 -2,0 -1,-1 0,-1 -1,0 -1,-1 0,-1 -1,-1 0,-2 -1,0 -1,-1 0,-2 1,-1 0,-1 -1,-1 0,-1 -1,-1 -1,-1 0,-1 -2,0 -1,-1 0,-1 -1,0 -1,-1 0,-1 -1,-1 0,-3 1,-1 -1,-1 0,0 -1,-1 0,-1 -1,-1 0,-1 -1,-1 -1,-1 0,-1 -2,0 -1,-1 0,-1 -1,0 -1,-1 0,-1 -1,-1 0,-3 1,-1 -1,-1 0,0 -1,-1 -3,0 -1,1 -2,0 -1,1 -2,0 -1,-1 -1,0 -1,-1 0,-1 -2,0 0,1 -1,1Z"/>
<path onmouseover="hoverPath(evt)" onmouseout="recoverPath(evt)" fill="rgb(239,229,217)" d="M  72,124l 0,0 1,1 0,4 1,1 1,1 3,0 1,1 0,1 2,0 1,1 -2,-2 0,-1 -1,-1 0,-1 -2,0 -1,-1 0,-1 -1,0 -1,-1 0,-2 1,-1 0,-1 -1,-1 0,-1 -1,0 -1,-1 0,-2 -2,0 -1,-1 0,-1 -1,0 -1,-1 0,-2 1,-1 0,-1 -2,0 -1,-1 0,-1 -1,0 -1,-1 0,-2 1,-1 0,-1 -2,0 -1,-1 -1,0 0,6 1,1 0,1 1,1 1,1 1,1 1,1 1,1 1,1 0,1 1,1 1,1 1,1 1,1 0,1 1,1Z"/>
<path onmouseover="hoverPath(evt)" onmouseout="recoverPath(evt)" fill="rgb(243,241,232)" d="M  174,171l -1,0 -1,1 0,6 -1,1 -1,0 1,1 0,2 3,0 1,1 1,1 0,3 1,1 0,4 -1,1 0,2 1,1 1,0 1,1 0,2 1,1 0,1 1,1 0,3 1,1 0,2 1,1 0,2 -1,1 0,2 1,1 0,2 1,1 0,2 2,0 1,1 0,1 1,1 0,2 1,1 0,2 -1,1 0,4 1,0 1,1 0,2 2,0 1,1 0,2 1,1 1,1 0,3 1,1 0,1 1,1 1,1 0,1 1,1 0,1 1,1 0,3 55,0 0,-29 -2,0 -1,1 -1,0 -1,1 -1,0 -1,1 -1,0 -1,1 -1,0 -1,1 -2,0 -1,1 -1,0 -1,1 -1,0 -1,1 -1,0 -1,1 -1,0 -1,1 -1,0 -1,1 -1,0 -1,1 -2,0 -1,1 -1,0 -1,1 -1,0 -1,1 -1,0 -1,1 -1,0 -1,1 -1,0 -1,1 -1,0 -1,1 1,1 0,2 -1,1 -1,1 -2,0 -1,-1 0,-1 -1,-1 -1,-1 -1,-1 0,-2 -1,-1 0,-3 -1,-1 0,-3 -1,-1 0,-7 -1,-1 0,-4 -1,-1 0,-4 -1,-1 0,-2 -1,-1 0,-4 -1,-1 0,-8 1,-1 3,0 1,1 0,5 1,1 0,4 1,1 0,2 1,1 0,4 1,1 0,5 1,1 0,6 1,1 0,4 1,1 0,2 2,0 1,-1 1,0 1,-1 2,0 1,-1 1,0 1,-1 1,0 1,-1 1,0 1,-1 1,0 1,-1 0,-3 -1,-1 0,-2 1,-1 2,0 1,1 0,1 1,1 0,1 4,0 1,-1 1,0 1,-1 1,0 1,-1 1,0 1,-1 1,0 1,-1 1,0 1,-1 1,0 1,-1 2,0 1,-1 1,0 1,-1 2,0 0,-20 -1,0 0,1 -1,1 -2,0 -1,-1 -1,0 -1,-1 0,-3 -1,0 -1,-1 -1,0 -1,-1 -1,-1 -1,1 -2,0 -1,-1 -2,0 -1,-1 0,-3 -5,0 -1,-1 0,-3 -1,-1 -1,-1 -1,-1 0,1 -1,1 -2,0 -1,-1 -1,0 -1,-1 -1,0 -1,-1 -1,0 -1,-1 -1,0 -1,-1 -1,0 -1,-1 -1,0 -1,-1 0,-1 -1,0 -1,-1 0,-2 -1,0 -1,-1 0,1 -1,1 0,0 -1,1 -3,0 -1,-1 -1,0 -1,-1 -1,1 -6,0 -1,-1 -1,0 -1,-1 -2,0 -1,-1 -2,0 -1,-1 -1,0 -1,-1 -6,0 -1,1 52,53 -2,0 -1,-1 0,-2 1,-1 2,0 1,1 0,2 -1,1 -52,-53 61,43 -1,-1 0,-2 1,-1 2,0 1,1 0,2 -1,1 -2,0 -61,-43Z"/>
<path onmouseover="hoverPath(evt)" onmouseout="recoverPath(evt)" fill="rgb(243,241,233)" d="M  0,213l 0,42 14,0 0,-2 1,-1 1,-1 1,0 0,-2 1,-1 2,0 1,1 1,-1 1,0 1,-1 1,0 1,-1 1,0 1,-1 0,-2 1,-1 2,0 1,1 1,-1 1,0 1,-1 1,0 1,-1 0,-2 1,-1 2,0 1,1 2,0 1,-1 2,0 1,1 1,-1 1,0 1,-1 1,0 1,-1 1,0 1,-1 1,0 1,-1 0,-2 1,-1 1,0 1,-1 2,0 1,1 1,-1 1,0 1,-1 0,-2 1,-1 1,0 1,-1 1,0 1,-1 1,0 1,-1 2,0 1,1 1,-1 1,0 1,-1 1,0 1,-1 1,0 1,-1 0,-2 1,-1 1,0 1,-1 1,0 1,-1 1,0 1,-1 2,0 1,1 1,-1 1,0 1,-1 0,-2 1,-1 1,0 1,-1 1,0 1,-1 1,-1 0,-1 -1,-1 0,-2 -1,-1 0,-2 -1,-1 0,-3 -1,-1 0,-3 -1,-1 0,-1 -1,-1 -1,-1 0,-1 -1,-1 -1,-1 0,-1 -1,-1 -1,-1 -1,-1 -1,-1 -1,-1 0,-1 -2,0 -1,-1 0,-1 -1,-1 -1,-1 -1,0 -1,-1 -1,-1 -1,-1 -1,0 -1,-1 -1,0 -1,-1 -1,0 -1,-1 -1,0 -1,-1 -2,0 -1,-1 0,-1 -1,-1 -1,-1 -1,-1 0,-1 -1,-1 0,-11 1,-1 0,-1 1,-1 0,-1 -4,0 -1,-1 -5,0 -1,1 -2,0 -1,1 -2,0 -1,-1 -1,0 -1,-1 -3,0 -1,-1 0,-1 -1,0 0,2 -1,1 -2,0 -1,-1 -5,0 -1,-1 0,-1 -2,0 -1,1 -4,0 -1,1 -13,0 -1,-1 -3,0 -1,-1 0,-1 -5,0 0,23 2,0 1,1 3,0 1,1 2,0 1,1 3,0 1,1 1,0 0,-1 -1,-1 0,-2 1,-1 5,0 1,1 0,3 -1,1 -1,1 0,1 1,0 1,1 1,0 1,1 1,1 1,0 1,1 1,0 1,1 1,1 1,0 1,1 1,1 1,1 1,1 1,1 1,0 1,1 4,0 1,1 0,3 1,1 1,1 1,1 1,1 1,0 1,1 3,0 1,1 0,2 -1,1 -2,0 0,1 -1,1 -2,0 -1,1 -3,0 -1,1 -2,0 -1,-1 -1,0 0,2 -1,1 -1,1 -2,0 -1,1 -2,0 -1,-1 -1,1 -2,0 -1,1 -1,0 0,2 -1,1 -2,0 -1,-1 -1,0 -1,1 -1,0 0,2 -1,1 -2,0 -1,-1 -2,0 -1,1 0,2 -1,1 -5,0 -1,-1 -1,0 -1,-1 -1,0 0,3 53,-28 -1,-1 0,-2 1,-1 2,0 1,1 0,2 -1,1 -2,0 -53,28 44,-38 -1,-1 0,-2 1,-1 2,0 1,1 0,2 -1,1 -2,0 -44,38 69,-31 1,1 0,2 -1,1 -2,0 -1,-1 0,-2 1,-1 2,0 -69,31Z"/>
<path onmouseover="hoverPath(evt)" onmouseout="recoverPath(evt)" fill="rgb(240,239,233)" d="M  107,36l -1,0 -1,1 0,2 1,1 0,0 1,1 0,1 1,1 1,1 1,0 1,1 1,1 1,1 1,1 0,1 2,0 1,1 1,1 1,1 1,0 1,1 1,1 1,1 0,1 2,0 1,1 0,1 2,0 1,1 1,0 1,1 1,1 1,0 1,1 1,1 1,0 1,1 1,0 1,1 1,1 1,0 1,1 1,1 0,1 3,0 1,1 1,1 1,0 1,1 1,1 1,0 1,1 1,1 1,0 1,1 1,0 1,1 0,-3 1,-1 0,-8 -1,-1 0,-7 -1,3 -4,0 -1,-1 -1,-1 -1,0 -1,-1 -1,-1 -1,0 -1,-1 0,-8 -1,6 -2,0 -1,-1 -1,0 -1,-1 -1,-1 -1,0 -1,-1 -1,-1 -1,0 -1,-1 -1,-1 -1,0 -1,-1 -1,-1 -1,0 -1,-1 -1,-1 -1,0 -1,-1 -1,-1 -1,-1 -1,-1 -1,0 -3,-3 -1,-1 -1,-1 -5,0 -1,1 -2,0 0,1 -1,1Z"/>
<path onmouseover="hoverPath(evt)" onmouseout="recoverPath(evt)" fill="rgb(253,253,253)" d="M  229,230l 0,3 -1,1 -1,1 -1,0 -1,1 -1,0 -1,1 -1,0 -1,1 -1,0 -1,1 -2,0 -1,1 -1,0 -1,1 -4,0 -1,-1 0,-2 -1,-1 0,-4 -1,-1 0,-6 -1,-1 0,-5 -1,-1 0,-4 -1,-1 0,-2 -1,-1 0,-4 -1,-1 0,-5 -1,0 0,6 1,1 0,4 1,1 0,2 1,1 0,4 1,1 0,4 1,1 0,7 1,1 0,3 1,1 0,3 1,1 0,2 1,1 1,1 1,1 0,1 1,-1 0,0 -1,-1 0,-2 1,-1 1,-1 1,0 1,-1 1,0 1,-1 1,0 1,-1 1,0 1,-1 1,0 1,-1 1,0 1,-1 2,0 1,-1 1,0 1,-1 1,0 1,-1 1,0 1,-1 1,0 1,-1 1,0 1,-1 1,0 1,-1 2,0 1,-1 1,0 1,-1 1,0 1,-1 1,0 1,-1 1,0 1,-1 3,0 0,-2 -1,0 -1,1 -1,0 -1,1 -2,0 -1,1 -1,0 -1,1 -1,0 -1,1 -1,0 -1,1 -1,0 -1,1 -1,0 -1,1 -1,0 -1,1 -6,0 -1,-1Z"/>
<path onmouseover="hoverPath(evt)" onmouseout="recoverPath(evt)" fill="rgb(240,237,227)" d="M  0,38l 0,7 4,0 1,1 16,0 1,1 11,0 1,1 1,1 4,0 1,-1 2,0 1,-1 2,0 0,-1 -1,-1 0,-3 -1,0 -1,-1 -1,-1 0,-3 1,-1 1,0 0,-1 -1,-1 0,-2 -1,0 -1,-1 -1,-1 0,-2 1,-1 1,0 0,-2 -1,-1 0,-5 -1,-1 0,-4 -1,-1 0,-4 -1,-1 0,-4 -1,-1 0,-3 -31,0 0,1 3,0 1,1 2,0 1,1 2,0 1,1 1,1 2,0 1,-1 2,0 1,1 1,1 0,1 1,1 1,1 0,1 1,1 1,1 2,0 1,1 0,2 -1,1 1,1 0,1 1,1 1,1 2,0 1,1 0,2 -1,1 -1,0 -1,1 0,1 1,1 0,1 1,1 1,1 0,1 1,1 0,4 1,1 0,6 1,1 0,2 -1,1 -3,0 -34,-9 30,8 0,-3 -1,-1 0,-5 -1,-1 0,-2 -1,-1 0,-1 -1,-1 0,-1 -1,-1 0,-1 -1,-1 0,-1 -1,-1 -1,-1 0,-1 -1,-1 -1,-1 -1,-1 0,-1 -1,-1 -1,-1 -1,-1 0,-1 -1,-1 -1,-1 0,-1 -1,-1 -1,0 -1,-1 -1,-1 -1,0 -1,-1 -1,0 -1,-1 -3,0 -1,-1 -2,0 0,31 30,9 -30,-8Z"/>
<path onmouseover="hoverPath(evt)" onmouseout="recoverPath(evt)" fill="rgb(251,251,249)" d="M  16,254l 0,1 5,0 0,-2 1,-1 1,-1 1,0 1,-1 1,0 1,-1 1,0 1,-1 1,0 1,-1 1,0 1,-1 1,0 1,-1 1,0 1,-1 1,-1 4,0 1,1 0,1 1,1 1,1 0,1 1,1 1,1 0,1 1,1 1,1 0,2 2,0 0,-1 -1,-1 0,0 -1,-1 0,-1 -1,-1 -1,-1 0,-2 1,-1 -2,0 -2,-2 0,-1 -1,-1 0,-2 -3,0 -1,-1 0,2 -1,1 -1,1 -1,0 -1,1 -1,0 -1,1 -2,0 -1,-1 0,2 -1,1 -1,1 -1,0 -1,1 -1,0 -1,1 -1,0 -1,1 -2,0 -1,-1 0,2 -1,1 -1,0 -1,1Z"/>
<path onmouseover="hoverPath(evt)" onmouseout="recoverPath(evt)" fill="rgb(240,239,226)" d="M  28,255l 19,0 0,-1 -1,-1 0,0 -1,-1 0,-1 -1,-1 -1,-1 0,-1 -1,-1 -1,-1 0,-1 -2,0 -1,1 0,0 -1,1 -1,0 -1,1 -1,0 -1,1 -1,0 -1,1 -1,0 -1,1 -1,0 -1,1 -1,0 -1,1 -1,0 -1,1 0,1Z"/>
<path onmouseover="hoverPath(evt)" onmouseout="recoverPath(evt)" fill="rgb(241,236,226)" d="M  55,14l 0,0 -1,-1 -2,0 0,1 1,1 0,4 1,1 0,3 1,1 0,4 1,1 0,5 1,1 0,1 1,0 1,1 0,3 -1,1 0,3 1,0 1,1 0,1 1,1 3,0 1,-1 1,0 1,-1 3,0 1,-1 1,-1 2,0 1,-1 2,0 0,-2 -1,-1 0,0 -1,-1 0,-3 -2,0 -1,-1 -1,-1 -1,-1 -1,-1 -1,-1 0,-1 -1,-1 0,-2 -1,-1 -1,-1 -1,-1 -1,-1 -1,-1 -1,-1 -1,-1 -1,-1 -1,-1 -1,-1 -1,-1 -1,-1Z"/>
<path onmouseover="hoverPath(evt)" onmouseout="recoverPath(evt)" fill="rgb(230,226,217)" d="M  70,78l 0,0 1,1 0,2 -1,1 0,2 1,1 0,1 3,0 1,1 0,1 1,1 0,2 -1,1 0,1 1,1 0,1 1,1 1,1 0,1 1,1 0,1 1,1 1,1 0,1 3,0 1,1 0,2 -1,1 0,1 3,0 1,1 0,1 1,1 0,2 1,0 1,1 0,1 1,1 0,2 1,0 1,1 0,1 1,1 0,2 1,0 1,1 0,2 -1,1 0,1 1,1 0,1 1,1 1,1 0,1 1,1 0,1 1,1 1,1 0,1 1,1 -1,-3 0,0 1,-1 5,0 1,1 0,1 1,0 0,-3 1,-1 -1,-1 0,-1 -1,0 -1,-1 0,-2 -1,-1 -2,0 -1,-1 -1,-1 0,-1 -1,-1 0,-1 -1,-1 -1,-1 0,-5 -1,-1 -1,1 -2,0 -1,-1 0,-2 1,-1 -1,-1 0,-2 -2,0 -1,-1 0,-4 -3,0 -1,-1 -1,0 -1,-1 -1,-1 0,-4 -2,0 -1,-1 0,-2 1,-1 0,-3 -1,0 -1,-1 0,-2 -3,0 -1,-1 0,-2 -1,-1 -1,0 -1,-1 -1,0 -1,-1 0,-10 1,-1 2,0 0,-2 1,-1 1,-1 0,-2 1,-1 1,0 1,-1 0,-10 -3,0 -1,-1 0,-1 -1,1 -5,0 -1,1 -1,0 0,1 -1,1 -1,0 -1,1 -1,0 0,7 1,1 0,2 1,1 0,3 1,1 0,4 1,1 1,1 0,2 1,1Z"/>
<path onmouseover="hoverPath(evt)" onmouseout="recoverPath(evt)" fill="rgb(170,196,234)" d="M  111,12l 0,-3 -1,-1 -1,-1 -1,-1 -1,-1 -1,-1 -1,-1 -1,-1 0,-2 -18,0 0,1 1,1 0,0 1,1 1,1 1,1 0,1 1,1 1,1 1,1 1,1 1,1 1,1 1,1 1,1 1,1 1,1 1,1 0,1 2,0 1,1 0,2 1,1 1,0 1,1 0,7 1,1 0,1 1,0 1,-1 7,0 1,1 1,1 1,1 1,1 1,1 1,0 1,1 1,1 1,1 1,1 1,0 1,1 1,1 1,0 1,1 1,1 1,0 1,1 1,1 1,0 1,1 1,1 1,0 1,1 1,1 1,0 1,1 0,-5 1,-1 1,0 1,-1 0,-4 1,-1 0,-2 -1,0 -1,1 -2,0 -1,-1 -1,-1 -1,-1 -1,0 -1,-1 -1,-1 -1,-1 -1,-1 -1,0 -1,-1 -1,-1 -1,-1 -1,0 -1,-1 -1,-1 -1,-1 -1,-1 -1,-1 -1,-1 -2,-2 -1,0 -1,-1 -1,-1 0,-1 -4,0 -2,-2 0,-1 -1,-1 -1,0 -1,-1Z"/>
<path onmouseover="hoverPath(evt)" onmouseout="recoverPath(evt)" fill="rgb(241,238,229)" d="M  162,126l 0,6 3,0 1,1 1,1 0,3 -1,1 -3,0 0,1 1,0 1,1 1,0 1,1 0,3 -1,1 0,1 1,0 1,1 4,0 1,1 3,0 1,1 1,0 1,-1 2,0 1,1 0,1 1,1 3,0 1,1 2,0 1,1 2,0 1,1 2,0 1,1 2,0 1,1 1,0 1,1 1,0 1,1 1,-1 2,0 1,1 1,0 1,1 0,2 1,0 1,1 1,0 1,1 2,0 1,1 1,1 4,0 1,1 0,2 1,0 1,1 2,0 1,-1 2,0 1,1 0,2 -1,1 2,-1 1,0 1,1 0,2 1,0 1,-1 2,0 1,1 0,2 1,1 4,0 1,1 1,0 1,1 1,0 1,-1 2,0 1,1 0,2 1,1 1,0 1,1 1,0 0,-12 -2,0 -1,-1 -1,-1 -1,-1 -1,-1 0,-2 -1,0 -1,-1 -1,-1 -1,-1 -1,-1 0,-1 -1,-1 -1,-1 -1,-1 -1,-1 -1,-1 -1,0 -1,-1 0,-1 -2,0 -1,-1 0,-2 1,-1 0,-1 -1,-1 0,0 -1,-1 -1,-1 -1,-1 -1,-1 -3,0 -1,-1 -1,-1 -1,0 -1,-1 -1,-1 -3,0 -1,-1 -3,0 -1,-1 -1,0 -1,1 -2,0 -1,-1 0,-2 1,-1 1,-1 0,-1 -1,0 -1,-1 -1,-1 -2,0 -1,-1 -3,0 -1,-1 -1,-1 0,-2 -1,0 -1,-1 -1,0 -1,-1 -1,-1 -1,-1 -1,0 -1,-1 -2,0 -1,1 0,0 -1,1 -2,0 -1,-1 0,-2 2,-2 -1,0 -1,-1 -1,-1 0,-1 -1,0 -1,-1 -1,-1 -1,0 -1,-1 -1,0 -1,-1 -1,-1 -1,0 -1,-1 0,-1 -2,0 -1,-1 -1,0 -1,-1 -1,-1 -1,0 -1,-1 -1,-1 -1,0 -1,-1 -1,-1 -1,0 0,4 -1,1 0,8 1,0 1,1 0,3 -1,1 1,0 1,1 0,2 -1,1 0,4 36,2 1,1 0,2 -6,6 -1,1 -2,0 -1,-1 0,-2 1,-1 3,-3 1,-1 2,-2 2,0 -36,-2 20,8 -1,1 -2,0 -1,-1 0,-2 1,-1 2,0 1,1 0,2 -20,-8Z"/>
<path onmouseover="hoverPath(evt)" onmouseout="recoverPath(evt)" fill="rgb(241,239,228)" d="M  9,189l 1,-1 2,0 1,1 0,2 -1,1 -2,0 -1,-1 0,-2 -9,2 0,17 2,0 1,1 1,0 1,1 3,0 0,-2 1,-1 1,-1 3,0 1,-1 1,0 1,-1 1,0 1,-1 2,0 1,-1 1,0 1,-1 1,0 1,-1 2,0 1,-1 1,0 1,-1 2,0 1,1 1,0 1,-1 0,-2 1,-1 2,0 1,-1 1,0 1,-1 -1,-1 -2,-2 -1,0 -1,-1 -1,-1 -1,-1 -1,-1 -1,-1 -2,0 -1,-1 0,-1 -1,0 -1,1 0,1 -1,1 -3,0 -1,-1 0,-3 1,-1 1,0 0,-2 -1,-1 -1,0 -1,-1 -1,-1 -1,0 -1,-1 -3,0 0,1 -1,1 0,1 -1,1 -5,0 -1,-1 -2,0 -1,-1 -1,0 -1,-1 0,-2 1,-1 4,0 1,1 3,0 0,-1 -1,0 -1,-1 -1,0 -1,-1 -4,0 -1,-1 -2,0 0,21 9,-2Z"/>
<path onmouseover="hoverPath(evt)" onmouseout="recoverPath(evt)" fill="rgb(253,253,253)" d="M  13,174l 1,-1 5,0 1,1 1,0 1,1 1,1 1,0 1,1 1,1 0,4 -1,1 -1,0 0,1 1,0 2,-3 3,0 1,1 0,1 2,0 1,1 1,1 1,1 1,1 1,1 1,0 1,1 1,1 1,1 1,1 0,2 -1,1 2,0 1,-1 2,0 0,-1 1,-1 -1,0 -1,-1 -1,0 -1,-1 -1,-1 -1,-1 -1,-1 -1,-1 0,-3 -4,0 -1,-1 -1,0 -1,-1 -1,-1 -1,-1 -2,-2 -1,0 -1,-1 -1,-1 -1,0 -1,-1 -1,0 -1,-1 -1,-1 -1,0 -1,-1 -1,0 -1,-1 0,-3 1,-1 1,-1 0,-1 -3,0 1,1 0,1 -1,3 -3,0 -1,-1 -3,0 -1,-1 -2,0 -1,-1 -3,0 -1,-1 -1,0 0,3 3,0 1,1 4,0 1,1 1,0 1,1 1,0 1,1 0,2 -1,2 -5,0 -1,-1 -2,0 2,1 0,0 3,1 2,0 1,-1 1,-2Z"/>
<path onmouseover="hoverPath(evt)" onmouseout="recoverPath(evt)" fill="rgb(207,209,210)" d="M  55,86l 0,-2 -1,-1 -2,0 -1,-1 0,-2 -1,-1 0,-2 -3,0 -1,-1 -1,-1 0,-1 -1,-1 -1,0 -1,1 0,2 -1,1 1,0 1,1 0,2 3,0 1,1 0,3 -1,1 0,5 -1,1 1,1 0,1 6,0 0,-1 1,-1 3,0 1,-1 1,0 0,-1 -1,0 -1,-1 0,-1 -1,-1Z"/>
<path onmouseover="hoverPath(evt)" onmouseout="recoverPath(evt)" fill="rgb(239,233,223)" d="M  132,167l 0,1 1,1 2,0 1,1 0,2 -1,1 0,1 3,0 1,1 0,2 1,1 1,0 1,1 0,1 1,1 2,0 1,1 0,1 1,1 1,0 1,-1 0,0 1,-1 1,-1 2,0 1,-1 0,-2 1,-1 2,0 1,1 1,-1 1,0 1,-1 1,0 1,-1 1,0 1,-1 1,0 1,-1 2,0 1,1 0,-3 1,-1 1,-1 1,0 1,-1 8,0 1,1 1,0 1,1 2,0 1,1 1,0 1,-1 3,0 1,-1 0,-1 -2,0 -1,-1 -2,0 -1,-1 -1,0 -1,-1 -3,0 -1,-1 0,1 -1,1 -2,0 -1,-1 -1,0 -1,-1 0,-2 -3,0 -1,-1 -4,0 -1,-1 -2,0 -1,-1 -3,0 -1,-1 -3,0 -1,-1 -5,0 -1,-1 -5,0 -1,-1 -4,0 -1,1 0,0 -1,1 -2,0 -1,-1 -1,-1 0,-1 -1,0 -1,1 0,0 -1,1 -2,0 -1,-1 -1,0 0,1 1,1 0,0 1,1 0,1 1,1 1,1 0,1 1,1Z"/>
</svg>