<svg width="256" height="256" xmlns="http://www.w3.org/2000/svg"><script> 
var tempColor;
function hoverPath(evt){
obj = evt.target;
tempColor = obj.getAttribute("fill");
obj.setAttribute("fill","red");
//alert(tempColor);
//obj.setAttribute("stroke","red");}
function recoverPath(evt){
obj = evt.target;
obj.setAttribute("fill", tempColor);
//obj.setAttribute("stroke", tempColor);
}</script><path onmouseover="hoverPath(evt)" onmouseout="recoverPath(evt)" fill="rgb(241,240,233)" d="M  1,48l -1,0 0,28 2,0 1,-1 1,0 1,-1 1,0 1,-1 1,0 1,-1 2,0 1,-1 1,0 1,-1 2,0 1,-1 1,0 1,-1 1,0 1,-1 1,0 1,-1 1,0 1,-1 2,0 1,-1 1,0 1,-1 1,0 1,-1 1,0 1,-1 1,0 1,-1 1,0 1,-1 2,0 1,-1 1,0 1,-1 1,0 1,-1 2,0 1,-1 1,0 1,-1 1,0 1,-1 1,0 1,-1 1,-1 2,0 1,-1 2,0 1,-1 1,0 1,-1 1,0 1,-1 1,0 1,-1 2,0 1,-1 1,0 1,-1 2,0 1,-1 6,0 1,1 0,1 1,1 0,1 2,0 1,-1 0,-1 -1,-1 0,-1 -2,0 -1,-1 0,-3 1,-1 2,0 1,-1 1,-1 1,0 1,-1 2,0 0,-2 1,-1 1,0 0,-5 1,-1 5,0 1,-1 1,0 1,-1 1,-1 5,0 0,-4 1,-1 4,0 0,-3 1,-1 1,0 1,-1 1,-1 6,0 0,-7 1,-1 1,-1 0,-3 -83,0 0,3 -1,1 0,3 -1,1 0,2 -1,1 0,2 -1,1 0,1 -1,1 0,1 -1,1 0,2 -1,1 0,1 -1,1 -1,1 0,1 -1,1 0,1 -1,1 -1,1 0,1 -1,1 0,1 -1,1 -1,1 0,1 -1,1 0,1 -1,1 -1,1 0,1 -1,1 -1,1 0,1 -1,1 -1,1 0,1 -1,1 -1,1 -17,0 67,-45 2,0 1,1 0,2 -1,1 -2,0 -1,-1 0,-2 1,-1 -67,45Z"/>
<path onmouseover="hoverPath(evt)" onmouseout="recoverPath(evt)" fill="rgb(244,243,236)" d="M  0,248l 0,7 161,0 0,-2 -2,0 -1,-1 0,-2 1,-1 0,-1 -1,-1 0,-1 -54,0 -1,1 -102,0 -1,1Z"/>
<path onmouseover="hoverPath(evt)" onmouseout="recoverPath(evt)" fill="rgb(244,243,236)" d="M  0,184l 0,58 47,0 1,-1 31,0 1,1 22,0 1,-1 21,0 0,-1 -1,-1 0,0 -1,-1 -1,-1 -1,-1 -1,-1 -1,-1 -1,-1 -1,-1 -1,-1 -1,-1 -1,-1 -1,-1 -1,0 -1,-1 0,-1 -1,0 -1,-1 -1,0 -1,-1 -1,-1 0,-1 -1,0 -1,-1 -1,-1 -1,0 -1,-1 -1,-1 -1,-1 -1,-1 0,-1 -1,0 -1,-1 -1,-1 -1,0 -1,-1 -1,-1 -1,-1 -1,-1 0,-1 -1,-1 -1,-1 0,-1 -1,-1 -1,-1 -1,-1 0,-1 -1,-1 -1,-1 -1,-1 -1,-1 0,-1 -2,0 -1,-1 0,-1 -1,0 -1,-1 -1,0 -1,-1 0,-1 -2,0 -1,-1 0,-1 -2,0 -1,-1 -1,-1 -1,-1 -1,0 -1,-1 0,-1 -2,0 -1,-1 -1,-1 0,-1 -2,0 -1,-1 -1,-1 -1,-1 0,-1 -2,0 -1,-1 -1,-1 -1,0 -1,-1 -1,-1 -1,0 -1,-1 -1,0 -1,-1 -2,0 -1,-1 -1,0 -1,-1 -3,0 -1,-1 -1,-1 -1,0 -1,-1 -2,0 -1,-1 -1,0 -1,-1 -1,0 -1,-1 -1,0 -1,-1 -1,0 -1,-1 -1,0 -1,-1 0,-3 -1,1 -2,0 -1,-1 -2,0 -1,-1 -1,-1 -1,0 -1,-1 -1,-1 0,-1 -1,-1 -1,-1 0,-1 -1,0 -1,-1 -1,-1 0,-1 -1,-1 0,-3 1,-1 0,-1 -1,-1 0,-1 -1,0Z"/>
<path onmouseover="hoverPath(evt)" onmouseout="recoverPath(evt)" fill="rgb(244,243,237)" d="M  0,1l 0,41 3,0 1,1 10,0 1,-1 1,0 0,-1 1,-1 0,-1 1,-1 1,-1 0,-1 1,-1 1,-1 0,-1 1,-1 0,-1 1,-1 0,-1 1,-1 1,-1 0,-1 1,-1 0,-1 1,-1 0,-1 1,-1 1,-1 0,-1 1,-1 0,-1 1,-1 0,-1 1,-1 0,-1 1,-1 0,-1 1,-1 0,-2 1,-1 0,-2 1,-1 0,-4 -35,0 -1,1Z"/>
<path onmouseover="hoverPath(evt)" onmouseout="recoverPath(evt)" fill="rgb(241,240,232)" d="M  17,113l 0,2 8,0 1,1 0,3 2,0 1,1 1,1 1,-1 2,0 1,1 1,1 1,-1 2,0 1,1 1,1 1,1 1,0 1,1 1,1 1,0 1,1 1,1 1,0 1,1 1,1 0,2 1,1 1,-1 2,0 1,1 1,1 1,-1 2,0 1,-1 1,0 0,-1 1,-1 1,-1 2,0 0,-1 1,-1 1,-1 1,-1 3,0 1,-1 2,0 0,-1 1,-1 1,-1 3,0 0,-3 1,-1 2,0 1,1 1,-1 1,-1 1,-1 0,-2 1,-1 3,0 1,-1 1,-1 2,-2 1,0 1,-1 0,-3 1,-1 3,0 0,-2 1,-1 1,-1 1,-1 3,0 0,-1 1,-1 1,0 1,-1 1,-1 1,0 0,-3 1,-1 2,-2 1,-1 0,-1 1,-1 1,0 1,-1 4,0 1,-1 1,-1 1,-1 0,-3 1,-1 1,-1 3,0 1,-1 0,-2 1,-1 0,-1 1,-1 1,0 1,-1 1,-1 1,-1 1,-1 1,-1 3,0 1,-1 1,-1 1,-1 0,-2 1,-1 0,-1 1,-1 1,0 1,-1 1,-1 2,-2 1,-1 1,-1 1,0 0,-1 2,-2 1,-1 2,-2 1,-1 3,0 1,-1 1,-1 2,-2 1,-1 0,-2 1,-1 2,0 1,-1 1,-1 2,-2 0,-1 1,-1 1,0 0,-1 1,-1 1,0 1,-1 2,-2 1,-1 0,-3 1,-1 0,-1 1,-1 1,0 1,-1 1,-1 1,-1 0,-1 1,-1 1,0 1,-1 1,-1 1,-1 2,-2 1,-1 1,0 0,-1 1,-1 2,-2 1,-1 1,-1 1,-1 -27,0 0,4 -1,1 -1,0 -1,1 -2,0 -1,1 -1,1 0,1 -1,1 -1,1 -6,0 -1,1 -1,1 -1,0 -1,1 -1,0 -1,1 -1,0 -1,1 -1,0 -1,1 -1,0 -1,1 -1,0 -1,1 -1,0 -1,1 -1,0 -1,1 -1,0 -1,1 -1,0 -1,1 -1,0 -1,1 -1,0 -1,1 -1,0 -1,1 -1,0 -1,1 -1,0 -1,1 -1,0 -1,1 -1,0 -1,1 -1,0 -1,1 -1,0 -1,1 -1,0 -1,1 -1,0 -1,1 -1,0 -1,1 -1,0 -1,1 -1,1 -1,0 -1,1 -1,1 -5,0 0,1 -1,1 -5,0 0,2 -1,1 -1,0 -1,1 -2,0 0,1 -1,1 -1,1 -6,0 -1,1 -4,0 -1,-1 0,-1 -1,-1 0,-1 -4,0 -1,1 -2,0 -1,1 -1,0 -1,1 -2,0 -1,1 -1,0 0,5 -1,1 0,1 -1,1 -2,0 -1,1 -1,1 -2,0 0,2 -2,2 -2,0 -1,1 -1,0 -1,1 -1,0 -1,1 -1,0 -1,1 -1,0 -1,1 -1,0 -1,1 -2,0 -1,1 -1,0 -1,1 -1,0 -1,1 -2,0 -1,1 -1,0 -1,1 -1,0 -1,1 -1,0 -1,1 -2,0 -1,1 -1,0 -1,1 -1,0 -1,1 -1,0 -1,1 -1,0 -1,1 -1,0 -1,1 -2,0 -1,1 -1,0 -1,1 -1,0 -1,1 -2,0 -1,1 -1,0 -1,1 -2,0 0,12 3,0 1,1 1,0 1,1 1,0 1,1 0,2 3,0 1,1 0,2 1,0 1,1 2,0 1,1 0,4 143,-95 1,-1 2,0 1,1 0,2 -1,1 -2,0 -1,-1 0,-2 -143,95 137,-83 1,-1 2,0 1,1 0,2 -1,1 -2,0 -1,-1 0,-2 -137,83Z"/>
<path onmouseover="hoverPath(evt)" onmouseout="recoverPath(evt)" fill="rgb(240,240,235)" d="M  30,159l -1,0 -1,1 -5,0 -1,-1 -1,0 -1,-1 0,1 2,1 0,0 2,1 1,0 1,1 1,0 1,1 1,0 1,1 2,0 1,1 1,0 1,1 1,1 3,0 1,1 1,0 1,1 2,0 1,1 1,0 1,1 1,0 1,1 1,1 1,0 1,1 1,1 2,0 1,1 0,1 1,1 1,1 2,0 1,1 0,1 1,1 2,0 1,1 0,1 1,0 1,1 1,1 1,1 2,0 1,1 0,1 2,0 1,1 0,1 1,0 1,1 1,0 1,1 0,1 2,0 1,1 0,1 1,1 1,1 1,1 1,1 0,1 1,1 1,1 1,1 0,1 1,1 1,1 0,1 1,1 1,1 1,1 1,0 1,1 1,1 1,0 1,1 0,1 1,1 1,1 1,1 1,0 1,1 1,1 1,0 1,1 0,1 1,1 1,0 1,1 1,-1 2,0 1,1 1,1 1,0 1,1 1,1 1,1 1,1 1,1 1,0 1,1 1,1 1,1 1,1 1,1 1,1 1,1 0,1 1,1 1,1 1,1 22,0 0,-1 -1,-1 0,0 -1,-1 -1,-1 -1,-1 -2,0 -1,-1 -1,-1 -1,-1 0,-1 -1,-1 0,-2 1,-1 -1,-1 0,0 -1,-1 0,-2 1,-1 -1,-1 -1,-1 -1,-1 -1,-1 0,-1 -1,-1 -1,-1 -1,-1 -1,-1 0,-1 -1,-1 -1,-1 -1,-1 0,-2 -1,0 -1,-1 -1,-1 -1,-1 -1,-1 0,-2 -1,0 -1,-1 -1,-1 -1,-1 -1,-1 -1,-1 -1,-1 -1,-1 -1,-1 -1,-1 -1,-1 -1,-1 -1,-1 -1,-1 -1,-1 -1,-1 -1,-1 -1,-1 -1,-1 -1,-1 -1,-1 0,-1 -1,0 -1,-1 -1,-1 -1,-1 -1,-1 0,-1 -2,0 -4,-4 -1,-1 0,-1 -2,0 -1,-1 -1,-1 -1,-1 -1,-1 -1,-1 -1,-1 0,-1 -2,0 -1,-1 -1,-1 -1,-1 -1,-1 -1,-1 -1,-1 -1,-1 0,-1 -2,0 -1,-1 0,-1 -1,0 -1,-1 -1,-1 -1,-1 -1,-1 -1,-1 -1,-1 -1,0 -1,-1 0,-1 -1,0 -1,-1 -1,-1 -1,-1 -1,-1 -1,-1 0,-2 1,-1 0,-1 1,-1 1,0 1,-1 1,-1 0,-1 1,-1 1,0 1,-1 0,-2 1,-1 -2,2 0,1 -2,1 -1,0 -1,1 0,1 -1,1 -1,0 -1,1 -2,0 -1,1 -2,0 1,1 0,3 -1,1 -1,1 -1,1 -1,1 -1,1 0,2 -1,1 -1,1 -4,0 -1,-1 -1,0 0,1 -1,1 -1,0 0,2 -1,1 -3,0 -1,1 0,1 -1,1 -2,0 -1,1 -1,1 -1,1Z"/>
<path onmouseover="hoverPath(evt)" onmouseout="recoverPath(evt)" fill="rgb(244,243,235)" d="M  63,137l 0,1 -1,1 1,1 1,1 1,1 1,1 1,0 1,1 0,1 1,0 1,1 1,1 1,1 1,1 1,1 1,1 1,0 1,1 0,1 2,0 1,1 0,1 1,1 1,1 1,1 1,1 1,1 1,1 2,0 1,1 0,1 1,1 1,1 1,1 2,2 2,0 1,1 0,1 1,1 1,1 1,1 1,1 2,0 1,1 0,1 1,1 1,1 1,1 1,0 1,1 0,1 1,1 1,1 1,1 1,1 1,1 1,1 1,1 1,1 1,1 1,1 1,1 1,1 1,1 1,1 1,1 1,1 1,1 1,1 1,1 1,0 1,1 0,2 1,1 1,1 1,1 1,0 1,1 0,2 1,1 1,1 1,1 0,1 1,1 1,1 1,1 1,1 0,1 1,1 1,1 1,1 1,1 0,1 1,1 1,1 1,0 1,-1 0,-1 1,-1 0,-2 1,-1 0,-1 1,-1 0,-1 1,-1 0,-1 -1,-1 0,-2 1,-1 2,0 0,-2 1,-1 0,-1 1,-1 0,-2 1,-1 -1,-1 0,-2 1,-1 2,0 0,-2 1,-1 0,-2 1,-1 0,-1 1,-1 0,-2 1,-1 0,-1 1,-1 0,-2 1,-1 0,-1 1,-1 0,-2 1,-1 -1,-1 0,-2 1,-1 2,0 0,-1 1,-1 0,-1 -1,-1 0,-2 1,-1 2,0 0,-1 -1,-1 0,-2 1,-1 2,0 0,-1 -1,-1 0,-2 1,-1 2,0 0,-1 -1,-1 0,-2 1,-1 2,0 0,-1 -1,-1 0,-2 1,-1 2,0 0,-1 -1,-1 0,-2 1,-1 2,0 0,-1 -1,-1 0,-2 1,-1 2,0 0,-1 -1,-1 0,-2 1,-1 2,0 0,-1 -1,-1 0,-2 1,-1 2,0 0,-2 1,-1 -1,-1 0,-2 1,-1 2,0 0,-2 1,-1 0,-1 1,-1 0,-2 1,-1 0,-2 1,-1 0,-1 1,-1 0,-2 1,-1 0,-1 -1,-1 0,-2 1,-1 2,0 0,-2 1,-1 0,-1 -1,-1 0,-2 1,-1 2,0 0,-2 1,-1 0,-2 1,-1 0,-2 1,-1 0,-3 1,-1 0,-4 1,-1 0,-3 1,-1 0,-4 1,-1 0,-5 1,-1 0,-5 1,-1 0,-5 1,-1 0,-5 1,-1 0,-5 1,-1 0,-6 1,-1 0,-4 1,-1 0,-4 1,-1 0,-5 1,-1 0,-5 1,-1 0,-4 -14,0 0,1 -1,1 -1,1 -1,1 -1,1 -1,1 -1,1 0,1 -1,1 -1,0 -1,1 -1,1 -1,1 -1,1 -1,1 -1,1 -1,0 0,1 -1,1 -1,1 -1,1 -1,1 -1,0 0,1 -1,1 0,3 -1,1 -1,1 -1,1 -1,1 -1,1 -1,0 0,1 -1,1 -1,0 0,1 -1,1 -1,1 -2,2 -1,1 -2,0 0,2 -1,1 -3,3 -1,1 -1,1 -3,0 -1,1 -2,2 -1,1 -1,1 0,1 -1,1 -1,0 -1,1 -1,1 -2,2 -1,1 -1,1 -1,0 0,1 -1,1 0,2 -1,1 -3,3 -3,0 -5,5 -1,0 0,1 -1,1 0,2 -1,1 -1,1 -3,0 -1,1 0,3 -1,1 -2,2 -1,1 -4,0 -1,1 -1,0 0,1 -1,1 -1,1 -1,1 -1,1 0,3 -1,1 -1,0 -1,1 -1,1 -1,0 0,1 -1,1 -3,0 -1,1 -1,1 0,2 -1,1 -3,0 0,3 -1,1 -1,1 -1,0 -1,1 -1,1 -1,1 -1,1 -3,0 0,2 -1,1 -1,1 -1,1 -1,1 -2,0 -1,-1 0,3 -1,1 -3,0 -1,1 0,1 -1,1 -2,0 -1,1 -1,0 0,1 -1,1 0,2 -1,1 -1,1 -1,0 0,1 -3,3Z"/>
<path onmouseover="hoverPath(evt)" onmouseout="recoverPath(evt)" fill="rgb(171,198,238)" d="M  128,240l 0,0 -1,-1 0,-1 -1,-1 -1,-1 -1,-1 -1,-1 -1,-1 -1,-1 -1,0 -1,-1 -1,-1 -1,-1 -1,-1 -1,-1 -1,0 -2,-2 0,1 3,2 1,1 1,1 1,1 1,1 1,1 0,0 1,1 1,1 1,1 1,1 1,1 1,1 0,3 -1,1 -21,0 -1,1 -24,0 -1,-1 -29,0 -1,1 -48,0 0,1 102,0 26,-5 -24,4 52,0 -1,-1 -24,0 -1,-1 -1,-1 -25,3 24,-4Z"/>
<path onmouseover="hoverPath(evt)" onmouseout="recoverPath(evt)" fill="rgb(252,252,250)" d="M  147,229l 0,0 -1,1 1,1 0,1 1,1 1,1 2,0 1,1 1,1 1,1 1,1 1,1 0,2 1,1 1,1 0,1 1,0 1,1 0,1 1,1 0,3 -1,1 2,0 1,1 0,3 3,0 0,-2 -1,0 -1,-1 0,-1 -1,-1 0,-1 -1,-1 0,-4 1,-1 12,0 1,-1 37,0 1,-1 1,0 0,-21 -1,-1 0,-7 -1,0 -1,-1 -10,0 10,1 2,8 0,1 -1,20 -13,0 -1,-1 0,-1 -1,-1 0,3 -23,1 -14,0 -1,-1 -1,0 -1,-1 -1,-1 -1,-1 -1,-1 -1,-1 -1,-1 0,-2 -1,0 -1,-1 0,-4 1,-1 0,-1 1,-1 0,-1 1,-1 0,-1 1,-1 2,0 -1,-1 0,-3 1,-1 1,0 0,-1 1,-1 11,0 1,-1 -11,0 -1,-1 0,-2 1,-1 0,-1 1,-1 0,-2 1,-1 2,0 -1,-1 0,-3 1,-1 2,0 -1,-1 0,-3 1,-1 2,0 -1,-1 0,-3 1,-1 2,0 -1,-1 0,-3 1,-1 2,0 -1,-1 0,-3 1,-1 2,0 -1,-1 0,-2 1,-1 6,0 1,1 2,0 -7,-2 0,0 -1,-1 0,-2 1,-1 0,-1 1,-1 0,-2 1,-1 0,-1 1,-1 0,-2 1,-1 0,-1 1,-1 0,-2 1,-1 0,-1 1,-1 0,-2 1,-1 0,-1 1,-1 0,-2 1,-1 0,-1 1,-1 0,-2 1,-1 0,-1 1,-1 0,-2 1,-1 0,-1 1,-1 0,-2 1,-1 1,-1 5,0 1,1 2,0 -5,-2 -1,0 -1,-1 0,-3 1,-1 0,-2 1,-1 0,-1 1,-1 0,-1 1,-1 0,-2 1,-1 0,-2 1,-1 0,-2 1,-1 2,0 -1,-1 0,-3 1,-1 0,-2 1,-1 2,0 -1,-1 0,-3 1,-1 0,-2 1,-1 2,0 -1,-1 0,-3 1,-1 0,-2 1,-1 0,-3 1,-1 0,-4 1,-1 0,-4 1,-1 0,-3 1,-1 0,-5 1,-1 0,-6 1,-1 0,-5 1,-1 0,-5 1,-1 0,-5 1,-1 0,-4 1,-1 0,-5 1,-1 0,-5 1,-1 0,-5 1,-1 0,-4 1,-1 0,-4 1,-1 0,-1 -2,0 0,5 -1,1 0,5 -1,1 0,5 -1,1 0,4 -1,1 0,4 -1,1 0,6 -1,1 0,5 -1,1 0,5 -1,1 0,5 -1,1 0,5 -1,1 0,5 -1,1 0,4 -1,1 0,3 -1,1 0,4 -1,1 0,3 -1,1 0,2 -1,1 0,2 -1,1 0,2 -1,1 -2,0 1,1 0,3 -1,1 0,2 -1,1 -2,0 1,1 0,3 -1,1 0,2 -1,1 0,1 -1,1 0,2 -1,1 0,2 -1,1 0,1 -1,1 0,2 -1,1 -2,0 1,1 0,2 -1,1 0,2 -1,1 -2,0 1,1 0,3 -1,1 -2,0 1,1 0,3 -1,1 -2,0 1,1 0,3 -1,1 -2,0 1,1 0,3 -1,1 -2,0 1,1 0,3 -1,1 -2,0 1,1 0,3 -1,1 -2,0 1,1 0,3 -1,1 -2,0 1,1 0,3 -1,1 -2,0 1,1 0,3 -1,1 0,1 -1,1 -2,0 1,1 0,2 -1,1 0,2 -1,1 0,1 -1,1 0,2 -1,1 0,1 -1,1 0,2 -1,1 0,1 -1,1 0,2 -1,1 0,2 -1,1 -2,0 1,1 0,2 -1,1 0,2 -1,1 0,1 -1,1 0,2 -1,1 -2,0 1,1 0,3 -1,1 0,1 -1,1 0,1 -1,1 0,2 -1,1 0,1 -1,1 -1,1 -2,0 -1,1Z"/>
<path onmouseover="hoverPath(evt)" onmouseout="recoverPath(evt)" fill="rgb(241,240,234)" d="M  0,106l 0,30 2,0 1,1 0,1 1,1 0,3 -1,1 0,1 1,1 0,1 1,1 1,0 1,1 0,1 1,1 1,1 0,1 1,1 1,0 2,2 2,0 1,1 1,-1 2,0 1,1 1,0 1,1 1,0 1,1 3,0 1,-1 1,0 1,-1 1,-1 1,-1 2,0 0,-1 1,-1 1,-1 3,0 0,-2 1,-1 1,0 0,-1 1,-1 1,-1 2,0 1,1 0,1 2,0 1,-1 0,-2 5,-5 0,-1 -1,-1 0,0 -1,-1 -1,-1 -1,0 -1,-1 -1,-1 0,-2 -1,-1 -1,0 -1,-1 -1,-1 -1,0 -1,-1 -1,-1 -1,0 -1,-1 -1,-1 -1,-1 -1,1 -2,0 -1,-1 -1,-1 -1,1 -2,0 -1,-1 -1,-1 -2,0 -1,-1 0,-3 -8,0 -1,-1 0,-6 -2,0 -1,-1 -1,0 -1,-1 0,-2 -3,0 -1,-1 0,-2 -1,0 -1,-1 -1,0 -1,-1 -2,0Z"/>
<path onmouseover="hoverPath(evt)" onmouseout="recoverPath(evt)" fill="rgb(171,198,238)" d="M  38,2l 0,3 -1,1 0,2 -1,1 0,2 -1,1 0,1 -1,1 0,1 -1,1 0,1 -1,1 0,1 -1,1 0,1 -1,1 -1,1 0,1 -1,1 0,1 -1,1 0,1 -1,1 -1,1 0,1 -1,1 0,1 -1,1 0,1 -1,1 -1,1 0,1 -1,1 -1,1 0,1 -1,1 0,1 -1,1 -1,0 -1,1 -12,0 -1,-1 -2,0 0,2 17,0 1,-1 0,-1 1,-1 1,-1 0,-1 1,-1 1,-1 0,-1 1,-1 1,-1 0,-1 1,-1 0,-1 1,-1 1,-1 0,-1 1,-1 0,-1 1,-1 1,-1 0,-1 1,-1 0,-1 2,-2 0,-1 1,-1 0,-2 1,-1 0,-1 1,-1 0,-1 1,-1 0,-2 1,-1 0,-2 1,-1 0,-3 -1,-1 0,-1 1,-1 -1,0 2,1Z"/>
<path onmouseover="hoverPath(evt)" onmouseout="recoverPath(evt)" fill="rgb(238,232,185)" d="M  109,37l 1,0 1,-1 1,-1 1,0 1,-1 1,-1 1,0 1,-1 1,0 1,-1 1,0 1,-1 1,0 1,-1 1,0 1,-1 1,0 1,-1 1,0 1,-1 1,0 1,-1 1,0 1,-1 1,0 1,-1 1,0 1,-1 1,0 1,-1 1,0 1,-1 1,0 1,-1 1,0 1,-1 1,0 1,-1 1,0 1,-1 1,0 1,-1 1,0 1,-1 1,0 1,-1 1,0 1,-1 1,0 1,-1 1,0 1,-1 1,-1 6,0 1,-1 0,-1 1,-1 1,-1 1,-1 2,0 1,-1 1,0 0,-3 -49,0 0,4 -1,1 -1,1 0,7 -1,1 -6,0 -1,1 -1,1 -1,0 0,3 -1,1 -4,0 0,4 -1,1 -5,0 -1,1 -1,1 -1,0 -1,1 -5,0 0,5 -1,1 -1,0 0,2 -1,1 -2,0 -1,1 -1,0 -1,1 -1,1 -2,0 0,1 2,0 1,1 0,1 1,1 0,2 4,0 1,-1 0,-1 1,-1 2,0 1,-1 1,0 0,-2 1,-1 5,0 0,-1 1,-1Z"/>
<path onmouseover="hoverPath(evt)" onmouseout="recoverPath(evt)" fill="rgb(242,241,231)" d="M  160,217l -1,1 -1,0 0,1 1,1 0,2 -1,1 -2,0 0,1 -1,1 0,1 -1,1 0,1 -1,1 0,2 1,0 1,1 0,2 1,1 1,1 1,1 1,1 1,1 1,0 1,1 34,0 0,-6 1,-1 2,0 1,1 0,3 1,1 0,1 1,1 7,0 1,-1 3,0 0,-16 -1,-1 0,-8 -1,0 -1,-1 -9,0 -1,-1 -12,0 0,2 -1,1 -15,0 -1,1 -10,0 -1,1Z"/>
<path onmouseover="hoverPath(evt)" onmouseout="recoverPath(evt)" fill="rgb(245,234,136)" d="M  62,51l -1,1 -2,0 -1,1 -2,0 -1,1 -1,1 -1,0 -1,1 -1,0 -1,1 -1,0 -1,1 -2,0 -1,1 -1,0 -1,1 -1,0 -1,1 -2,0 -1,1 -1,0 -1,1 -1,0 -1,1 -1,0 -1,1 -1,0 -1,1 -1,0 -1,1 -2,0 -1,1 -1,0 -1,1 -1,0 -1,1 -1,0 -1,1 -1,0 -1,1 -2,0 -1,1 -1,0 -1,1 -2,0 -1,1 -1,0 -1,1 -1,0 -1,1 -1,0 -1,1 -3,0 0,7 1,0 1,-1 1,0 1,-1 2,0 1,-1 1,0 1,-1 1,0 1,-1 2,0 1,-1 1,0 1,-1 1,0 1,-1 1,0 1,-1 1,0 1,-1 1,0 1,-1 2,0 1,-1 1,0 1,-1 1,0 1,-1 1,0 1,-1 2,0 1,-1 1,0 1,-1 1,0 1,-1 2,0 1,-1 1,0 1,-1 1,0 1,-1 1,0 1,-1 1,0 1,-1 1,0 1,-1 2,0 1,-1 0,-2 1,-1 2,0 1,-1 1,-1 2,0 0,-1 1,-1 0,-3 -1,1Z"/>
<path onmouseover="hoverPath(evt)" onmouseout="recoverPath(evt)" fill="rgb(240,240,234)" d="M  165,248l 0,1 1,1 0,1 1,0 1,1 0,3 66,0 0,-9 -18,0 -1,-1 0,-2 -1,1 -37,0 -1,1 -12,0 0,2 1,1Z"/>
<path onmouseover="hoverPath(evt)" onmouseout="recoverPath(evt)" fill="rgb(244,243,235)" d="M  176,179l 0,1 -1,1 -2,0 0,1 1,1 0,2 -1,1 -2,0 0,1 1,1 0,2 -1,1 -2,0 0,1 1,1 0,2 -1,1 -2,0 0,1 1,1 0,2 -1,1 -2,0 0,1 1,1 0,2 -1,1 -2,0 0,2 -1,1 0,1 -1,1 25,0 1,-1 13,0 1,-1 12,0 1,1 1,0 1,1 0,7 1,1 0,22 15,0 1,-1 1,0 1,-1 0,-5 1,-1 0,-8 1,-1 0,-6 1,-1 0,-5 1,-1 0,-5 1,-1 0,-6 1,-1 0,-5 1,-1 0,-5 1,-1 0,-6 1,-1 0,-5 1,-1 0,-4 1,-1 0,-5 1,-1 0,-5 1,-1 0,-4 1,-1 0,-5 1,-1 0,-5 1,-1 0,-4 1,-1 0,-5 1,-1 2,0 0,-128 -28,0 0,2 -1,1 0,4 -1,1 0,4 -1,1 0,5 -1,1 0,5 -1,1 0,5 -1,1 0,4 -1,1 0,5 -1,1 0,5 -1,1 0,5 -1,1 0,6 -1,1 0,5 -1,1 0,3 -1,1 0,4 -1,1 0,4 -1,1 0,3 -1,1 0,2 -1,1 0,1 1,1 0,2 -1,1 -2,0 0,2 -1,1 0,1 1,1 0,2 -1,1 -2,0 0,2 -1,1 0,1 1,1 0,2 -1,1 -2,0 0,2 -1,1 0,2 -1,1 0,2 -1,1 0,1 -1,1 0,1 -1,1 0,2 -1,1 0,1 1,0 1,1 1,0 1,1 2,0 1,1 0,2 -1,1 -4,0 -1,-1 -3,0 -1,1 0,2 -1,1 0,1 -1,1 0,2 -1,1 0,1 -1,1 0,2 -1,1 0,1 -1,1 0,2 -1,1 0,1 -1,1 0,2 -1,1 0,1 -1,1 0,2 -1,1 0,1 -1,1 0,2 -1,1 0,1 -1,1 0,2 -1,1 0,1 -1,1 1,1 3,0 1,1 2,0 1,1 0,2 -1,1 -4,0 -1,-1 -4,0 1,1 0,1 23,2 1,-1 2,0 1,1 1,1 0,2 -1,1 -2,0 -1,-1 -1,-1 0,-2 -23,-2Z"/>
<path onmouseover="hoverPath(evt)" onmouseout="recoverPath(evt)" fill="rgb(172,198,238)" d="M  233,243l -16,0 0,1 15,0 1,-1 3,2 0,10 7,0 0,-11 1,-1 0,-13 1,-1 0,-8 1,-1 0,-5 1,-1 0,-4 1,-1 0,-4 1,-1 0,-5 1,-1 0,-5 1,-1 0,-5 1,-1 0,-5 1,-1 2,0 0,-50 -1,0 0,5 -1,1 0,4 -1,1 0,5 -1,1 0,5 -1,1 0,4 -1,1 0,5 -1,1 0,5 -1,1 0,4 -1,1 0,5 -1,1 0,6 -1,1 0,5 -1,1 0,5 -1,1 0,6 -1,1 0,5 -1,1 0,5 -1,1 0,6 -1,1 0,8 -1,1 0,5 -1,1 0,4 -3,-2Z"/>
<path onmouseover="hoverPath(evt)" onmouseout="recoverPath(evt)" fill="rgb(245,244,237)" d="M  254,187l 0,0 -1,1 0,5 -1,1 0,5 -1,1 0,5 -1,1 0,4 -1,1 0,4 -1,1 0,5 -1,1 0,8 -1,1 0,13 -1,1 0,10 10,0 0,-67 -1,-1 1,-1 0,-4 -1,0 0,3 1,1 -1,1Z"/>
</svg>