<svg width="256" height="256" xmlns="http://www.w3.org/2000/svg"><script> 
var tempColor;
function hoverPath(evt){
obj = evt.target;
tempColor = obj.getAttribute("fill");
obj.setAttribute("fill","red");
//alert(tempColor);
//obj.setAttribute("stroke","red");}
function recoverPath(evt){
obj = evt.target;
obj.setAttribute("fill", tempColor);
//obj.setAttribute("stroke", tempColor);
}</script><path onmouseover="hoverPath(evt)" onmouseout="recoverPath(evt)" fill="rgb(244,243,235)" d="M  0,128l 0,18 2,0 1,1 0,2 1,1 0,1 1,1 0,2 2,0 1,-1 0,0 1,-1 2,0 1,-1 1,0 1,-1 2,0 1,-1 2,0 1,-1 1,0 1,-1 2,0 1,-1 3,0 1,-1 1,-1 2,0 1,-1 1,0 1,-1 2,0 1,-1 2,0 1,-1 1,0 1,-1 2,0 1,-1 2,0 1,-1 2,0 1,-1 1,0 1,-1 2,0 1,-1 2,0 0,-2 -1,-1 -2,0 -1,-1 0,-2 -1,0 -1,-1 0,-1 -1,-1 0,-2 1,-1 -1,-1 0,-1 -1,-1 -2,0 -1,-1 0,-2 1,-1 -1,-1 0,0 -1,-1 0,-1 -2,0 -1,-1 -1,0 -1,1 -1,0 -1,1 -1,0 -1,1 -1,0 -1,1 -5,0 0,1 -1,1 -1,1 -3,0 0,1 -1,1 -3,0 -1,1 -2,0 -1,1 -2,0 -1,1 -2,0 -1,1 -3,0 -1,1 -1,0 -1,1 -2,0 -1,1 -2,0 -1,1Z"/>
<path onmouseover="hoverPath(evt)" onmouseout="recoverPath(evt)" fill="rgb(242,240,230)" d="M  2,232l -2,0 0,5 2,0 1,1 0,1 1,1 0,2 3,0 1,1 1,-1 2,0 1,-1 2,0 1,-1 3,0 1,1 0,2 -1,1 -1,0 -1,1 -1,1 -2,0 0,3 1,1 0,1 1,1 1,1 0,2 8,0 0,-2 1,-1 2,0 1,-1 2,0 0,-2 1,-1 2,0 1,1 1,0 0,-2 1,-1 2,0 1,1 1,0 0,-2 1,-1 2,0 1,1 1,0 1,-1 1,0 1,-1 2,0 0,-2 1,-1 2,0 1,1 1,0 1,-1 1,0 -1,-1 0,-1 -1,-1 0,-1 -1,-1 0,-1 -1,-1 0,-1 -1,-1 0,-1 -1,-1 0,-2 1,-1 2,0 1,1 1,1 0,1 1,1 1,1 1,0 1,-1 2,0 1,-1 3,0 1,-1 2,0 1,-1 3,0 1,1 1,1 0,1 1,1 0,1 3,0 1,-1 2,0 1,-1 2,0 0,-4 1,-1 2,0 1,1 0,1 3,0 1,-1 1,0 1,-1 2,0 1,-1 0,-3 -1,-1 0,-2 1,-1 2,0 1,1 0,1 1,1 3,0 1,1 1,0 1,-1 0,-1 -1,-1 0,0 -1,-1 0,-1 -1,-1 0,-1 -1,-1 0,-1 -1,-1 -1,-1 0,-1 -1,-1 0,-1 -1,-1 0,-1 -1,-1 -1,-1 -2,0 -1,-1 0,-2 1,-1 -1,-1 0,-1 -1,-1 0,-1 -1,-1 -1,1 -1,0 -1,1 -2,0 -1,1 -1,0 -1,1 -2,0 -1,1 -2,0 -1,1 -2,0 -1,1 -1,0 -1,1 -2,0 -1,1 -3,0 -1,1 -1,1 -3,0 -1,1 -1,1 -2,0 -1,1 -2,0 -1,1 -1,0 -1,1 -2,0 -1,1 -1,0 -1,1 -2,0 -1,1 -1,0 -1,1 -2,0 -1,1 -1,0 -1,1 -2,0 -1,1 -1,0 -1,1 -2,0 -1,1 -1,0 -1,1 -2,0 -1,1 -2,0 -1,1 -1,0 -1,1 -2,0 -1,1 -1,0 -1,1 -1,0 -1,1 -1,0 -1,1 -1,0 -1,1 -1,0 -1,1 -1,1 -1,0 -1,1 -1,0 -1,1 64,-20 2,0 1,1 0,2 -1,1 -2,0 -1,-1 0,-2 1,-1 -64,20 82,-27 1,-1 2,0 1,1 0,2 -1,1 -2,0 -1,-1 0,-2 -82,27 44,-4 0,2 -1,1 -1,0 -1,1 -2,0 -1,-1 0,-2 1,-1 1,0 1,-1 2,0 1,1 -44,4Z"/>
<path onmouseover="hoverPath(evt)" onmouseout="recoverPath(evt)" fill="rgb(241,237,226)" d="M  117,224l 0,1 1,1 0,1 1,1 0,1 1,1 0,1 2,0 1,-1 4,0 1,1 1,0 1,-1 2,0 1,-1 1,0 1,-1 0,-1 1,-1 2,0 1,1 1,0 1,-1 1,0 1,-1 2,0 1,-1 1,0 1,-1 2,0 1,-1 2,0 1,-1 1,0 1,-1 0,-1 1,-1 2,0 0,-1 1,-1 2,0 1,1 0,1 1,-1 2,0 1,-1 1,0 1,-1 0,-1 1,-1 2,0 1,1 1,-1 0,-1 1,-1 2,0 1,1 1,-1 0,-1 1,-1 2,0 0,-1 1,-1 4,0 1,1 1,0 1,-1 1,0 1,-1 2,0 1,-1 2,0 0,-1 1,-1 0,-1 1,-1 4,0 1,1 1,-1 0,-1 1,-1 2,0 1,1 1,-1 2,0 1,-1 1,0 1,-1 0,-2 -1,-1 0,-1 -1,-1 0,-1 -1,-1 0,-1 -1,0 -1,-1 0,-1 -2,0 -1,-1 -1,1 -2,0 -1,1 -1,0 -1,1 -2,0 -1,1 -1,0 -1,1 -1,0 -1,1 -2,0 -1,1 -1,0 -1,1 -2,0 -1,1 -1,0 -1,1 -2,0 -1,1 -1,0 -1,1 -2,0 -1,1 -1,0 -1,1 -2,0 -1,1 -1,0 -1,1 -2,0 -1,1 -1,0 -1,1 -2,0 -1,1 -1,0 -1,1 -2,0 -1,1 -1,0 -1,1 -2,0 -1,1 -1,0 -1,1 -1,0 -1,1 -2,0 -1,1 -1,0 -1,1 -2,0 -1,1 -1,0 -1,1 -2,0 -1,1 -1,0 -1,1 -2,0 -1,1 -1,0 -1,1 -2,0 -1,1 -1,0 -1,1 -2,0 -1,1 -1,0 -1,1Z"/>
<path onmouseover="hoverPath(evt)" onmouseout="recoverPath(evt)" fill="rgb(244,243,236)" d="M  168,64l -2,0 -1,1 0,2 2,0 1,1 0,1 1,1 0,1 1,0 1,1 0,1 1,1 0,2 -1,1 1,1 0,1 1,1 0,1 1,1 0,1 1,1 1,0 1,1 0,1 1,0 1,1 2,0 1,-1 1,0 1,-1 1,0 1,-1 1,-1 1,0 1,-1 1,-1 1,0 1,-1 1,-1 1,-1 1,0 1,-1 1,-1 1,-1 1,0 1,-1 1,-1 1,0 1,-1 1,0 1,-1 1,0 1,-1 1,0 1,-1 2,0 1,-1 1,0 1,-1 2,0 1,-1 12,0 1,-1 3,0 1,-1 1,0 1,-1 1,-1 0,-1 1,-1 1,-1 1,0 1,-1 1,-1 1,0 1,-1 1,0 1,-1 2,0 1,-1 1,0 1,-1 1,-1 3,0 0,-26 -4,0 -1,1 -1,0 -1,1 -1,0 -1,1 -2,0 -1,1 -1,0 -1,1 -1,0 -1,1 -1,0 -1,1 -1,0 -1,1 -2,0 -1,1 -1,0 -1,1 -1,0 -1,1 -1,0 -1,1 -2,0 -1,1 -1,0 -1,1 -1,0 -1,1 -2,0 -1,1 -1,0 -1,1 -1,0 -1,1 -1,0 -1,1 -2,0 -1,1 -1,0 -1,1 -1,0 -1,1 -1,0 -1,1 -1,0 -1,1 -1,0 -1,1 -2,0 -1,1 -1,0 -1,1 -1,0 -1,1 -1,0 -1,1 -1,0 -1,1 -2,0 -1,1 -1,0 -1,1 -1,0 -1,1 -1,0 -1,1 -2,0 -1,1 -1,0 -1,1 -1,0 -1,1 -1,0 -1,1Z"/>
<path onmouseover="hoverPath(evt)" onmouseout="recoverPath(evt)" fill="rgb(243,242,233)" d="M  0,9l 0,8 2,0 1,1 0,1 1,1 0,1 1,1 0,1 2,0 1,1 0,1 1,1 0,2 -1,1 1,1 1,0 1,-1 1,0 1,-1 2,0 0,-2 1,-1 2,0 1,1 1,0 1,-1 2,0 1,-1 2,0 0,-2 1,-1 2,0 1,1 1,0 1,-1 2,0 0,-2 1,-1 2,0 1,1 1,0 1,-1 2,0 1,-1 1,0 1,-1 2,0 1,-1 1,0 1,-1 2,0 1,-1 2,0 1,-1 2,0 1,-1 2,0 1,-1 2,0 0,-2 1,-1 2,0 1,1 1,0 1,-1 1,0 1,-1 2,0 1,-1 2,0 1,-1 2,0 0,-2 1,-1 2,0 1,1 1,0 1,-1 2,0 0,-1 -88,0Z"/>
<path onmouseover="hoverPath(evt)" onmouseout="recoverPath(evt)" fill="rgb(241,240,229)" d="M  19,184l 0,0 -1,1 1,1 0,1 1,1 0,2 -1,1 2,0 1,1 2,0 1,-1 1,0 1,-1 2,0 1,-1 1,0 1,-1 2,0 1,-1 1,0 1,-1 2,0 1,-1 2,0 1,-1 1,0 1,-1 2,0 1,-1 1,0 1,-1 2,0 1,-1 1,0 1,-1 2,0 1,-1 2,0 1,-1 1,0 1,-1 2,0 1,-1 1,0 1,-1 2,0 1,-1 1,0 1,-1 2,0 1,-1 1,0 1,-1 1,0 0,-1 -1,-1 0,-1 -1,-1 0,-1 -1,-1 -1,-1 0,-1 -1,-1 0,-1 -2,0 -1,1 -1,0 -1,1 -1,0 -1,1 -2,0 -1,1 -1,0 -1,1 -1,0 -1,1 -2,0 -1,1 -3,0 -1,1 -1,1 -2,0 -1,1 -1,0 -1,1 -2,0 -1,-1 -1,0 -1,1 -1,0 -1,1 -1,0 -1,1 -1,0 -1,1 -1,0 0,2 -1,1 -1,0 -1,1 -1,0 -1,1 -1,0 -1,1 -1,0 -1,1 -2,0 -1,-1 -1,1 -1,0 -1,1 -1,0Z"/>
<path onmouseover="hoverPath(evt)" onmouseout="recoverPath(evt)" fill="rgb(243,241,232)" d="M  106,199l -1,1 -1,0 0,2 1,1 0,1 1,1 1,1 0,1 1,1 0,1 1,1 0,1 1,1 1,1 0,1 1,1 0,1 1,1 1,1 1,-1 1,0 1,-1 2,0 1,-1 1,0 1,-1 2,0 1,-1 1,0 1,-1 2,0 1,-1 1,0 1,-1 2,0 0,-2 1,-1 2,0 1,1 1,0 0,-2 1,-1 2,0 1,1 1,0 0,-2 1,-1 2,0 1,1 1,0 0,-2 1,-1 2,0 1,1 1,0 1,-1 1,0 1,-1 1,0 1,-1 2,0 1,-1 1,0 1,-1 2,0 1,-1 1,0 1,-1 2,0 1,-1 2,0 0,-2 1,-1 1,-1 0,-1 -1,-1 0,0 -1,-1 -1,-1 0,-1 -1,-1 0,-1 -1,-1 0,-1 -1,-1 -1,-1 -1,-1 0,-1 -1,-1 0,-1 -2,0 -1,1 -2,0 -1,1 -2,0 -1,-1 0,-2 1,-1 1,0 1,-1 1,0 1,-1 2,0 1,-1 1,-1 3,0 1,-1 1,0 1,-1 1,0 1,-1 3,0 1,1 0,-2 1,-1 2,0 1,-1 1,0 1,-1 1,0 1,-1 3,0 1,1 0,-2 1,-1 2,0 0,-3 -1,-1 0,-1 -3,0 -1,1 -1,0 -1,1 -1,0 -1,1 -1,0 -1,1 -1,0 -1,1 -1,0 -1,1 -1,0 -1,1 -1,0 -1,1 -1,0 -1,1 -1,0 -1,1 -2,0 -1,1 -1,0 -1,1 -2,0 -1,1 -2,0 -1,1 -1,0 -1,1 -2,0 -1,1 -1,0 -1,1 -2,0 -1,1 -2,0 -1,1 -1,0 -1,1 -2,0 -1,1 -1,0 -1,1 -2,0 -1,1 -2,0 -1,1 -1,0 -1,1 -1,0 -1,1 -2,0 -1,1 -1,0 -1,1 -2,0 -1,1 -1,0 -1,1 -1,0 -1,1 -2,0 -1,1 -1,0 -1,1 -2,0 -1,1 -1,0 -1,1 -1,0 -1,1 -2,0 -1,1 -1,0 -1,1 -2,0 0,1 1,1 0,1 1,1 4,0 1,1 0,2 6,-6 1,-1 2,0 1,1 0,2 -1,1 -2,0 -1,-1 0,-2 -6,6 18,-11 1,-1 2,0 1,1 0,2 -1,1 -2,0 -1,-1 0,-2 -18,11 35,-18 1,-1 2,0 1,1 0,2 -1,1 -2,0 -1,-1 0,-2 -35,18Z"/>
<path onmouseover="hoverPath(evt)" onmouseout="recoverPath(evt)" fill="rgb(244,243,236)" d="M  134,0l -1,0 0,1 1,1 0,1 1,1 0,1 1,1 0,1 1,1 0,1 1,0 1,1 0,1 1,1 0,1 1,1 0,1 1,1 0,1 1,1 0,1 1,1 0,1 1,1 0,2 -1,1 1,1 0,1 1,1 0,1 1,1 0,2 2,0 1,1 0,1 1,1 0,1 1,1 0,1 1,1 0,1 1,1 0,1 1,0 1,1 0,1 1,1 0,1 1,1 0,1 1,1 0,1 1,1 0,1 1,1 0,1 1,-1 2,0 1,-1 1,0 1,-1 1,0 1,-1 1,0 1,-1 2,0 1,-1 1,0 1,-1 1,0 1,-1 1,0 1,-1 2,0 1,-1 1,0 1,-1 1,0 1,-1 1,0 1,-1 1,0 1,-1 1,0 1,-1 1,0 1,-1 2,0 1,-1 1,0 1,-1 1,0 1,-1 1,0 1,-1 1,0 1,-1 2,0 1,-1 1,0 1,-1 1,0 1,-1 1,0 1,-1 2,0 1,-1 1,0 1,-1 1,0 1,-1 2,0 1,-1 1,0 1,-1 1,0 1,-1 1,0 1,-1 1,0 1,-1 1,0 -1,-1 0,-2 -1,-1 0,-2 -1,-1 0,-2 -1,-1 0,-4 -1,-1 0,-1 -1,-1 0,-1 -1,-1 0,-2Z"/>
<path onmouseover="hoverPath(evt)" onmouseout="recoverPath(evt)" fill="rgb(247,236,137)" d="M  163,57l 0,1 1,1 0,1 1,1 1,1 1,0 1,-1 1,0 1,-1 1,0 1,-1 1,0 1,-1 2,0 1,-1 1,0 1,-1 1,0 1,-1 1,0 1,-1 2,0 1,-1 1,0 1,-1 1,0 1,-1 1,0 1,-1 1,0 1,-1 2,0 1,-1 1,0 1,-1 1,0 1,-1 1,0 1,-1 1,0 1,-1 1,0 1,-1 2,0 1,-1 1,0 1,-1 1,0 1,-1 1,0 1,-1 2,0 1,-1 1,0 1,-1 1,0 1,-1 2,0 1,-1 1,0 1,-1 1,0 1,-1 1,0 1,-1 2,0 1,-1 1,0 1,-1 1,0 1,-1 1,0 1,-1 1,0 1,-1 2,0 1,-1 1,0 1,-1 1,0 1,-1 5,0 0,-9 -2,0 -1,1 -2,0 -1,1 -1,0 -1,1 -1,0 0,2 -1,1 -3,0 -1,1 -1,0 -1,1 -5,0 -1,1 -1,0 -1,1 -1,0 -1,1 -1,0 -1,1 -1,0 -1,1 -2,0 -1,1 -1,0 -1,1 -1,0 -1,1 -2,0 -1,1 -1,0 -1,1 -1,0 -1,1 -1,0 -1,1 -2,0 -1,1 -1,0 -1,1 -1,0 -1,1 -1,0 -1,1 -1,0 -1,1 -2,0 -1,1 -1,0 -1,1 -1,0 -1,1 -1,0 -1,1 -1,0 -1,1 -1,0 -1,1 -1,0 -1,1 -2,0 -1,1 -1,0 -1,1 -1,0 -1,1 -1,0 -1,1 -2,0 -1,1 -1,0 -1,1 -1,0 -1,1 -1,0 -1,1 -2,0Z"/>
<path onmouseover="hoverPath(evt)" onmouseout="recoverPath(evt)" fill="rgb(173,198,234)" d="M  229,1l 0,0 1,1 0,1 1,1 0,1 1,1 0,4 1,1 0,2 1,1 0,2 1,1 0,2 1,1 0,1 2,0 1,-1 1,0 1,-1 3,0 -3,-1 -1,0 -1,-1 -1,-1 -1,-1 0,-2 -1,-1 0,-5 -1,-1 0,-2 -1,-1 0,-3 -4,0 -1,1Z"/>
<path onmouseover="hoverPath(evt)" onmouseout="recoverPath(evt)" fill="rgb(244,243,236)" d="M  236,1l 0,1 1,1 0,2 1,1 0,5 1,1 0,2 1,1 1,1 1,0 1,1 1,0 1,-1 1,0 1,-1 1,0 1,-1 2,0 1,-1 3,0 0,-13 -18,0 -1,1Z"/>
<path onmouseover="hoverPath(evt)" onmouseout="recoverPath(evt)" fill="rgb(237,228,146)" d="M  9,122l 2,0 1,-1 2,0 1,-1 2,0 1,-1 2,0 1,-1 3,0 0,-1 1,-1 3,0 1,-1 0,-1 1,-1 2,0 0,-6 -1,-1 -6,0 0,2 -1,1 -4,0 -1,1 -2,0 0,1 -1,1 -3,0 0,2 -1,1 -1,0 -1,1 -1,0 -1,1 -1,0 -1,1 -4,0 -1,-1 -1,0 0,8 2,0 1,-1 2,0 1,-1 1,0 1,-1Z"/>
<path onmouseover="hoverPath(evt)" onmouseout="recoverPath(evt)" fill="rgb(247,239,170)" d="M  10,250l 0,0 1,-1 0,-4 1,-1 -2,0 -1,1 -2,0 -1,-1 -1,0 -1,1 -2,0 -1,-1 0,-2 1,-1 -1,-1 0,-1 -1,0 0,16 14,0 0,-1 -1,-1 -2,0 -1,-1 0,-2 3,-6 1,0 1,-1 1,-1 1,0 -3,1 -1,0 0,1 -3,6Z"/>
<path onmouseover="hoverPath(evt)" onmouseout="recoverPath(evt)" fill="rgb(243,242,234)" d="M  77,154l 0,1 1,1 0,1 1,1 1,1 0,1 1,1 0,1 1,1 0,1 1,1 1,1 0,1 1,1 1,-1 2,0 1,-1 1,0 1,-1 2,0 1,-1 1,0 1,-1 2,0 1,-1 1,0 1,-1 2,0 1,-1 1,0 1,-1 2,0 1,-1 1,0 1,-1 2,0 1,-1 1,0 1,-1 2,0 1,-1 1,0 1,-1 1,0 1,-1 2,0 1,-1 1,0 1,-1 2,0 1,-1 1,0 1,-1 2,0 1,-1 1,0 1,-1 1,0 1,-1 2,0 1,-1 1,0 1,-1 2,0 1,-1 1,0 1,-1 1,0 1,-1 2,0 1,-1 1,0 1,-1 2,0 1,-1 1,0 1,-1 2,0 1,-1 1,0 1,-1 1,0 1,-1 2,0 1,-1 1,0 1,-1 2,0 1,-1 1,0 1,-1 2,0 0,-3 -1,0 -1,-1 -1,-1 0,-1 -1,-1 0,-1 -1,-1 0,-1 -1,-1 0,-1 -1,0 -1,-1 0,-1 -1,-1 0,-1 -4,0 -1,-1 0,-2 1,-1 1,0 0,-2 -1,-1 0,-1 -1,-1 0,-1 -1,-1 0,-1 -1,-1 -1,0 -1,1 -2,0 -1,1 -3,0 -1,1 -2,0 -1,1 -3,0 -1,1 -1,1 -2,0 -1,1 -1,1 -1,0 -1,1 -3,3 -1,1 -1,0 -1,1 -1,0 0,1 -1,1 -1,1 -1,0 -1,1 -1,1 -3,0 -1,1 -1,0 -1,1 -1,0 -1,1 -1,0 -1,1 -1,0 -1,1 -1,0 -1,1 -1,1 -2,0 -1,1 -2,0 -1,-1 -1,-1 -1,-1 0,-1 -1,-1 0,-1 -2,0 -1,1 -1,0 -1,1 -2,0 -1,1 -1,0 -1,1 -1,0 -1,1 -3,0 -1,1 -1,0 -1,1 -2,0 -1,1 -1,0 -1,1 -2,0 -2,2 -3,0 -1,1 -1,1 -3,0 -1,1 -1,1 -2,0 0,1 1,1 0,0 1,1 0,1 1,1 0,1 1,1 0,1 1,1 0,1 1,1 0,1 1,1 1,0 1,-1 2,0 1,-1 2,0 1,1 0,2 -1,1 -1,0 -1,1 -1,0 -1,1Z"/>
<path onmouseover="hoverPath(evt)" onmouseout="recoverPath(evt)" fill="rgb(247,199,112)" d="M  254,194l 1,0 0,-9 -3,0 -1,-1 -2,0 0,1 -1,1 -4,0 0,1 -1,1 -4,0 -1,1 0,1 -1,1 -1,1 -2,0 -1,1 0,1 1,1 0,1 1,1 0,2 -1,1 0,0 1,1 0,1 1,0 1,1 0,1 1,1 2,0 -1,-1 0,-5 1,-1 1,0 1,-1 1,-1 1,0 1,-1 2,0 1,-1 2,0 1,1 0,0 1,-1Z"/>
<path onmouseover="hoverPath(evt)" onmouseout="recoverPath(evt)" fill="rgb(249,249,245)" d="M  3,76l 0,0 1,-1 1,0 1,-1 2,0 1,-1 2,0 1,-1 1,0 1,-1 2,0 1,-1 1,0 1,-1 1,0 1,-1 3,0 1,1 1,1 0,-2 -1,-1 0,-1 -1,-1 0,-1 -1,-1 0,-1 -1,-1 0,-1 -1,-1 0,-1 -1,-1 -1,-1 0,-1 -1,-1 0,-1 -1,-1 0,-1 -1,-1 0,-1 -1,-1 0,-1 -1,-1 0,-1 -1,-1 0,-1 -1,-1 0,-2 1,-1 -2,0 -1,-1 0,-1 -1,-1 0,-2 1,-1 1,0 1,-1 3,0 1,1 0,-2 1,-1 2,0 1,-1 2,0 1,-1 2,0 1,-1 1,0 1,-1 2,0 1,-1 3,0 1,1 0,-2 1,-1 2,0 1,-1 2,0 1,-1 3,0 1,1 0,-2 1,-1 2,0 1,-1 1,0 1,-1 3,0 1,1 1,-1 2,0 0,-2 1,-1 2,0 1,-1 2,0 1,-1 2,0 1,-1 3,0 1,1 0,-2 1,-1 2,0 1,-1 3,0 1,1 0,-2 1,-1 2,0 1,-1 2,0 1,-1 2,0 1,-1 1,0 1,-1 2,0 1,-1 2,0 0,-1 -8,0 0,2 -1,1 -2,0 -1,1 -3,0 -1,-1 0,2 -1,1 -2,0 -1,1 -2,0 -1,1 -2,0 -1,1 -1,0 -1,1 -3,0 -1,-1 0,2 -1,1 -2,0 -1,1 -2,0 -1,1 -2,0 -1,1 -2,0 -1,1 -2,0 -1,1 -1,0 -1,1 -2,0 -1,1 -1,0 -1,1 -2,0 -1,1 -3,0 -1,-1 0,2 -1,1 -2,0 -1,1 -3,0 -1,-1 0,2 -1,1 -2,0 -1,1 -2,0 -1,1 -3,0 -1,-1 0,2 -1,1 -2,0 -1,1 -1,0 -1,1 -3,0 -1,-1 -1,-1 0,-2 1,-1 -1,-1 0,-1 -2,0 -1,-1 0,-1 -1,-1 0,-1 -1,-1 0,-1 -1,0 0,57 3,0 10,-29 1,1 1,1 0,1 1,1 0,1 1,1 0,1 1,1 0,1 1,1 0,1 1,1 0,1 1,1 0,1 1,1 0,3 -1,1 -1,1 -1,0 -1,1 -2,0 -1,1 -2,0 -1,1 -1,0 -1,1 -2,0 -2,-2 -1,-1 0,-3 1,-1 1,-1 0,-1 -1,-1 0,-2 -1,-1 0,-2 1,-1 1,0 1,-1 1,0 1,-1 0,-2 -1,-1 0,-4 1,-1 2,0 1,1 -10,29 24,-6 -1,1 0,0 1,1 0,1 1,1 0,1 1,1 1,1 0,1 1,1 0,1 1,1 0,1 1,1 1,0 0,-1 -1,-1 0,-1 -1,-1 -1,-1 0,-1 -1,-1 0,-3 1,-1 1,0 1,-1 2,0 1,-1 1,0 1,-1 2,0 1,-1 2,0 1,-1 7,0 1,-1 2,0 1,-1 1,0 0,-2 -1,-1 -2,0 -1,1 -1,0 -1,1 -2,0 -1,1 -2,0 -1,1 -1,0 -1,1 -2,0 -1,1 -1,0 -1,1 -2,0 -1,1 -1,0 -1,1 -4,0 -1,-1 -24,6Z"/>
<path onmouseover="hoverPath(evt)" onmouseout="recoverPath(evt)" fill="rgb(242,241,231)" d="M  15,202l -2,0 -1,1 -1,0 -1,1 1,1 2,0 1,1 0,2 -1,1 -4,0 -1,1 -2,0 -1,-1 0,-3 -2,0 -1,1 -2,0 0,17 2,0 1,-1 1,0 1,-1 1,0 1,-1 1,0 1,-1 1,-1 1,0 1,-1 2,0 1,-1 1,0 1,-1 2,0 1,-1 1,0 1,-1 2,0 1,-1 1,0 1,-1 1,0 1,-1 2,0 1,-1 1,0 1,-1 2,0 1,-1 1,0 1,-1 2,0 1,-1 1,0 1,-1 2,0 1,-1 2,0 1,-1 1,0 1,-1 2,0 1,-1 2,0 0,-1 1,-1 1,-1 2,0 1,-1 1,-1 3,0 1,-1 1,0 1,-1 1,0 1,-1 2,0 1,-1 1,0 1,-1 2,0 1,-1 1,0 1,-1 1,0 1,-1 2,0 1,-1 2,0 0,-2 -1,-1 0,-1 -1,-1 0,-1 -1,-1 0,-1 -1,-1 -1,-1 0,-1 -1,-1 -1,0 -1,1 -1,0 -1,1 -2,0 -1,1 -1,0 -1,1 -2,0 -1,1 -1,0 -1,1 -2,0 -1,1 -2,0 -1,1 -1,0 -1,1 -2,0 -1,1 -1,0 -1,1 -2,0 -1,1 -1,0 -1,1 -2,0 -1,1 -2,0 -1,1 -1,0 -1,1 -2,0 -1,1 -1,0 -1,1 -2,0 -1,1 -1,0 -1,1 -2,0 -1,1 -1,0 -1,1 -2,0 -1,1 -1,0 -1,1 -2,0 -1,1 -1,0 -1,1 -1,0 -1,1Z"/>
<path onmouseover="hoverPath(evt)" onmouseout="recoverPath(evt)" fill="rgb(245,240,196)" d="M  35,107l -1,0 0,6 1,0 1,-1 1,0 1,-1 1,0 1,-1 1,0 1,-1 3,0 1,1 0,-3 1,-1 3,0 1,1 0,1 1,-2 1,-1 2,0 1,-1 2,0 1,-1 1,0 1,-1 2,0 1,-1 2,0 1,-1 1,0 1,-1 2,0 1,-1 2,0 1,-1 1,0 1,-1 2,0 1,-1 1,0 1,-1 2,0 1,-1 2,0 0,-2 1,-1 3,0 1,1 0,1 1,1 0,1 1,1 0,1 1,1 0,1 1,1 0,1 1,1 0,1 1,1 0,1 1,1 0,1 1,1 0,5 2,0 1,-1 1,0 1,-1 -2,0 -1,-1 -1,-1 0,-3 2,-2 -2,1 -1,0 -1,-1 -1,-1 0,-1 -1,-1 0,-1 -1,-1 0,-1 -1,-1 0,-1 -1,-1 0,-3 1,-1 1,-1 1,0 1,-1 3,0 2,-2 2,0 1,-1 2,0 1,-1 2,0 1,-1 1,0 1,-1 2,0 1,1 1,1 1,-1 2,0 1,1 1,0 1,-1 1,0 1,-1 -1,0 -1,-1 0,-2 1,-1 1,0 0,-1 1,-1 1,-1 2,0 1,1 1,-1 2,0 1,-1 2,0 1,-1 1,0 1,-1 2,0 1,-1 2,0 1,-1 2,0 1,-1 1,0 1,-1 -2,0 -1,-1 0,-1 -1,-1 0,-1 -2,0 -1,-1 -1,1 -2,0 -1,1 -2,0 -1,1 -1,0 -1,1 -2,0 -1,1 -2,0 -1,1 -5,0 -1,-1 0,2 -1,1 -1,1 -1,0 -1,1 -2,0 -1,1 -2,0 -1,1 -1,0 -1,1 -5,0 -1,-1 0,-1 -1,-1 0,-1 -1,-1 0,-1 -2,0 -1,-1 0,-1 -1,-1 0,-1 -1,-1 0,-1 -1,-1 0,-1 -1,-1 0,-1 -1,-1 -1,-1 0,-2 -1,0 0,2 1,1 0,1 1,1 0,1 1,1 0,1 1,1 0,1 1,1 0,1 1,1 0,1 1,1 0,1 1,1 0,1 1,1 0,2 -1,1 0,1 -1,1 -1,0 -1,1 -2,0 -1,1 -2,0 -1,1 -1,0 -1,1 -2,0 -1,1 -2,0 -1,1 -1,0 -1,1 -2,0 -1,1 -2,0 -1,1 -1,0 -1,1 -2,0 -1,1 -1,0 -1,1 -2,0 0,1 -1,1 -2,0 -1,-1 -1,-1 0,2 -1,1 -2,0 -1,1 -1,0 -1,1 -2,0 0,2 -1,1 -3,0 -1,-1 -1,-1 0,-3 -3,0 -1,-1 0,-7 -1,0 -1,-1 0,-5 -2,0 -1,-1 0,-4 1,-1 0,-2 1,-1 -1,-1 -1,0 -1,1 -1,0 -1,1 -2,0 -1,1 -1,0 0,1 1,1 0,1 1,1 1,1 0,1 1,1 0,3 -1,1 -3,0 -1,-1 -1,-1 0,-1 -1,-1 0,-1 -1,-1 0,-1 -1,-1 -1,-1 0,-1 -1,-1 0,-1 -1,-1 0,-1 -1,-1 -1,0 -1,1 -1,0 -1,1 -1,0 -1,1 -2,0 -1,1 -1,0 -1,1 -2,0 -1,1 -2,0 -1,1 -1,0 -1,1 -4,0 0,37 2,0 1,1 2,0 1,-1 1,0 1,-1 1,0 1,-1 1,0 0,-2 1,-1 3,0 0,-1 1,-1 2,0 1,-1 4,0 0,-2 -1,-1 0,-1 -1,-1 -1,-1 0,-2 1,-1 6,0 1,-1 0,-1 -1,0 -1,-1 -1,-1 0,-4 1,-1 6,0 1,-1 4,0 1,1 0,1 1,1 0,4 1,1 1,0 1,1 0,7 -1,1 -4,0 -1,1 -1,1Z"/>
<path onmouseover="hoverPath(evt)" onmouseout="recoverPath(evt)" fill="rgb(242,241,233)" d="M  86,54l 0,0 1,-1 4,0 1,1 3,0 1,1 0,2 1,1 1,1 0,1 1,1 0,1 1,1 0,1 1,1 0,1 1,1 0,1 2,0 1,1 0,1 1,1 0,1 1,1 0,1 3,0 1,-1 1,0 1,-1 2,0 1,-1 2,0 1,-1 1,0 1,-1 0,-1 -1,-1 0,-1 -1,-1 0,-1 -1,-1 0,-1 -1,-1 -2,0 -1,-1 -1,0 -1,-1 -5,0 -1,-1 -1,0 -1,-1 0,-1 -1,-1 0,-3 1,-1 1,-1 1,0 0,-4 -2,0 -1,-1 0,-1 -2,0 -1,1 -1,0 -1,1 -2,0 -1,1 -1,0 -1,1 -6,0 -1,-1 0,-1 -1,-1 0,-11 1,-1 0,-1 1,-1 5,0 0,-4 1,-1 1,-1 0,-1 1,-1 6,0 0,-5 1,-1 1,-1 1,-1 1,-1 1,-1 1,-1 1,0 1,-1 3,0 1,1 1,1 0,2 1,0 0,-1 1,-1 0,-7 1,-1 0,-1 -1,-1 0,0 -1,-1 0,-2 -15,0 0,2 -1,1 -2,0 -1,1 -2,0 -1,1 -1,0 -1,1 -2,0 -1,1 -2,0 -1,1 -2,0 0,2 -1,1 -2,0 -1,-1 -1,0 -1,1 -2,0 0,2 -1,1 -2,0 -1,-1 -1,0 -1,1 -2,0 -1,1 -2,0 -1,1 -2,0 0,2 -1,1 -2,0 -1,1 -2,0 -1,-1 -1,0 -1,1 -1,0 -1,1 -2,0 0,2 -1,1 -2,0 -1,-1 -1,0 -1,1 -2,0 -1,1 -2,0 0,2 -1,1 -2,0 -1,-1 -1,0 -1,1 -2,0 -1,1 -1,0 -1,1 -2,0 -1,1 -2,0 -1,1 -2,0 0,2 -1,1 -2,0 -1,-1 -1,0 -1,1 -1,0 1,1 0,1 2,0 1,1 0,2 -1,1 1,1 0,1 1,1 0,1 1,1 0,1 1,1 0,1 1,1 0,1 1,1 0,1 1,1 0,1 1,1 1,1 0,1 1,1 0,1 1,1 0,1 1,1 0,1 1,1 0,1 1,1 0,1 1,1 2,0 1,-1 1,0 1,-1 2,0 1,-1 1,0 1,-1 2,0 1,-1 1,0 1,-1 2,0 1,-1 2,0 1,-1 1,0 1,-1 2,0 0,-2 1,-1 3,0 1,1 0,2 1,1 1,1 2,0 0,-8 1,-1 1,-1 1,-1 4,0 1,1 0,5 1,1 0,1 1,0 1,-1 3,0 1,-1 2,0 1,-1 2,0 1,-1 1,0 1,-1Z"/>
<path onmouseover="hoverPath(evt)" onmouseout="recoverPath(evt)" fill="rgb(253,253,253)" d="M  0,204l 0,1 1,0 1,-1 4,0 1,1 0,3 1,-1 4,0 -3,-1 0,0 -1,-1 0,-2 1,-1 1,-1 1,0 1,-1 2,0 1,-1 1,0 1,-1 1,0 1,-1 2,0 1,-1 1,0 1,-1 2,0 1,-1 1,0 1,-1 2,0 1,-1 1,0 1,-1 2,0 1,-1 1,0 1,-1 2,0 1,-1 1,0 1,-1 2,0 1,-1 2,0 1,-1 1,0 1,-1 2,0 1,-1 1,0 1,-1 2,0 1,-1 1,0 1,-1 2,0 1,-1 2,0 1,-1 1,0 1,-1 2,0 1,-1 1,0 1,-1 2,0 1,-1 1,0 1,-1 3,0 1,1 1,1 0,1 1,1 1,1 0,1 1,1 0,1 1,1 0,1 1,1 0,4 -1,1 3,0 1,1 0,2 1,0 1,1 1,1 0,1 1,1 0,1 1,1 0,2 -1,1 2,0 1,1 1,1 1,1 0,1 1,1 0,1 2,0 -1,-1 0,0 -1,-1 0,-1 -1,-1 0,-4 1,-1 -3,0 -1,-1 -1,-1 0,-1 -1,-1 0,-2 -1,-1 -1,-1 -1,-1 0,-1 -1,-1 -1,-1 0,-1 -1,-1 0,-1 -1,-1 -1,-1 0,-1 -1,-1 0,-1 -1,-1 0,-1 -1,-1 0,-3 1,-1 1,-1 2,0 1,-1 1,0 1,-1 2,0 1,-1 1,0 1,-1 2,0 1,-1 1,0 1,-1 2,0 1,-1 1,0 1,-1 2,0 1,-1 1,0 1,-1 2,0 1,-1 1,0 1,-1 1,0 1,-1 2,0 1,-1 1,0 1,-1 2,0 1,-1 1,0 1,-1 2,0 1,-1 1,0 1,-1 1,0 1,-1 2,0 1,-1 1,0 1,-1 2,0 1,-1 1,0 1,-1 2,0 1,-1 1,0 1,-1 1,0 1,-1 2,0 1,-1 1,0 1,-1 2,0 1,-1 1,0 1,-1 1,0 1,-1 2,0 1,-1 1,0 1,-1 2,0 1,-1 1,0 1,-1 2,0 1,-1 1,0 1,-1 1,0 0,-1 -2,0 -1,1 -1,0 -1,1 -2,0 -1,1 -1,0 -1,1 -2,0 -1,1 -1,0 -1,1 -1,0 -1,1 -2,0 -1,1 -1,0 -1,1 -2,0 -1,1 -1,0 -1,1 -2,0 -1,1 -1,0 -1,1 -1,0 -1,1 -2,0 -1,1 -1,0 -1,1 -2,0 -1,1 -1,0 -1,1 -1,0 -1,1 -2,0 -1,1 -1,0 -1,1 -2,0 -1,1 -1,0 -1,1 -2,0 -1,1 -1,0 -1,1 -1,0 -1,1 -2,0 -1,1 -1,0 -1,1 -2,0 -1,1 -1,0 -1,1 -2,0 -1,1 -1,0 -1,1 -2,0 -1,1 -1,0 -1,1 -2,0 -1,1 -1,0 -1,1 -2,0 -1,1 -1,0 -1,1 -2,0 -1,1 -2,0 -1,-1 -1,-1 0,-1 -1,-1 -1,-1 0,-1 -1,-1 0,-1 -1,-1 0,-1 -1,-1 -1,-1 0,-1 -1,-1 0,-4 2,-2 1,0 -3,1 -2,0 -1,-1 -1,-1 0,-1 -1,-1 0,-1 -1,-1 0,-1 -1,-1 0,-1 -1,-1 0,-1 -1,-1 -1,-1 0,-2 -1,-1 0,-1 -1,-1 -1,-1 0,-1 -1,-1 0,-1 -1,-1 0,-3 1,-1 -3,0 -1,-1 0,-1 -1,-1 -1,-1 0,-1 -1,-1 0,-1 -1,-1 0,-1 -1,-1 -1,-1 0,-1 -1,-1 0,-1 -1,-1 0,-1 -1,0 0,2 1,1 0,1 1,1 1,1 0,2 -1,1 2,0 1,1 1,1 0,1 1,1 0,2 -1,1 1,1 0,1 1,0 1,1 0,2 2,0 1,1 1,1 0,3 1,1 0,1 1,0 1,1 0,1 1,1 0,1 1,1 0,1 1,1 0,1 1,1 1,1 0,1 1,1 0,1 1,1 0,1 1,1 0,4 -1,1 -1,1 -2,0 -1,1 -1,0 -1,1 -2,0 -1,1 -1,0 -1,1 -4,0 -1,-1 0,-1 -1,-1 -1,-1 -1,-1 -1,-1 3,4 1,2 0,2 -1,1 2,0 1,-1 2,0 1,-1 1,0 1,-1 1,0 1,-1 2,0 1,-1 1,0 1,-1 1,0 1,-1 4,0 1,1 0,1 1,1 0,1 1,1 1,1 0,1 1,1 0,1 1,1 0,3 -1,1 -1,0 -1,1 -1,0 -1,1 -2,0 -1,1 -1,0 -1,1 -2,0 -1,1 -1,0 -1,1 -2,0 -1,1 -1,0 -1,1 -2,0 -1,1 -2,0 -1,1 -1,0 -1,1 -2,0 -1,1 -1,0 -1,1 -2,0 -1,1 -1,0 -1,1 -2,0 -1,1 -2,0 -1,1 -1,0 -1,1 -2,0 -1,1 -1,0 -1,1 -2,0 -1,1 -1,0 -1,1 -4,0 -1,-1 0,2 -1,1 -1,1 -2,0 -1,1 -1,0 -1,1 -2,0 -1,1 -1,0 -1,1 -2,0 -1,1 -1,0 -1,1 -2,0 -1,1 88,-15 -1,0 -1,1 -2,0 -1,1 -1,0 -1,1 -1,0 -1,1 -2,0 -1,1 -1,0 -1,1 -2,0 -1,1 -1,0 -1,1 -1,0 -1,1 -3,0 -1,1 -1,1 -2,0 -1,1 2,0 2,-1 1,-1 2,0 2,-1 2,-1 1,0 1,-1 1,0 2,-1 1,0 1,-1 1,0 2,-1 1,0 1,-1 2,-1 2,0 1,-1 1,-1 -88,15Z"/>
<path onmouseover="hoverPath(evt)" onmouseout="recoverPath(evt)" fill="rgb(242,241,232)" d="M  53,108l 0,1 -1,1 1,1 0,1 1,1 1,1 0,1 1,1 0,1 1,1 0,1 1,1 1,1 0,1 2,0 1,-1 2,0 1,1 2,0 1,1 8,0 -1,-1 0,-3 1,-1 2,0 1,-1 1,0 1,-1 1,0 1,-1 3,0 1,-1 3,0 1,1 1,0 0,-2 1,-1 3,0 1,1 1,0 0,-5 -1,-1 0,-1 -1,-1 0,-1 -1,-1 0,-1 -1,-1 0,-1 -1,-1 0,-1 -1,-1 0,-1 -1,-1 0,-1 -1,-1 0,-1 -1,0 0,2 -1,1 -2,0 -1,1 -2,0 -1,1 -1,0 -1,1 -2,0 -1,1 -1,0 -1,1 -2,0 -1,1 -2,0 -1,1 -1,0 -1,1 -2,0 -1,1 -2,0 -1,1 -1,0 -1,1 -2,0 -1,1 -2,0 -1,1Z"/>
<path onmouseover="hoverPath(evt)" onmouseout="recoverPath(evt)" fill="rgb(241,241,230)" d="M  249,116l 0,0 -1,1 -1,0 -1,1 -1,1 -1,0 -1,1 -1,1 -1,0 -1,1 -1,0 -1,1 -1,0 -1,1 -1,1 -1,0 -1,1 -1,0 -1,1 -1,0 -1,1 -1,0 -1,1 -1,0 -1,1 -1,0 -1,1 -2,0 -1,1 -1,0 -1,1 -1,0 -1,1 -1,0 -1,1 -2,0 -1,1 -1,0 -1,1 -2,0 -1,1 -1,0 0,2 1,1 2,0 1,-1 2,0 1,-1 2,0 1,-1 2,0 1,-1 2,0 1,-1 1,0 1,-1 2,0 1,-1 2,0 1,-1 2,0 1,-1 1,0 1,-1 2,0 1,-1 1,0 1,-1 2,0 1,-1 1,0 1,-1 2,0 1,-1 1,0 1,-1 2,0 1,-1 3,0 0,-11 -1,0 -1,1 -1,0 -2,2Z"/>
<path onmouseover="hoverPath(evt)" onmouseout="recoverPath(evt)" fill="rgb(222,220,205)" d="M  24,100l -2,0 1,1 0,0 1,1 0,1 1,1 7,0 1,1 1,0 1,-1 0,0 1,-1 4,0 0,-5 -1,0 -1,-1 -1,-1 0,-4 -1,-1 0,-1 -2,0 -1,1 -6,0 0,2 1,1 1,0 1,1 0,3 -1,1 -1,1Z"/>
<path onmouseover="hoverPath(evt)" onmouseout="recoverPath(evt)" fill="rgb(237,235,226)" d="M  65,85l 0,0 -1,1 -2,0 -1,-1 0,-2 1,-1 2,0 1,1 0,2 -2,5 1,1 1,1 0,-1 1,-1 2,0 1,-1 1,0 1,-1 2,0 1,-1 1,0 1,-1 2,0 1,-1 2,0 1,-1 1,0 1,-1 2,0 1,-1 2,0 1,-1 1,0 1,-1 2,0 1,-1 2,0 1,-1 1,0 0,-1 1,-1 -1,-1 0,-1 -1,-1 0,-1 -1,-1 0,-1 -1,-1 0,-1 -1,-1 0,-1 -1,-1 0,-1 -1,-1 0,-1 -1,-1 0,-1 -1,-1 0,-3 -1,-1 -2,0 -1,1 0,0 -1,1 -1,0 -1,1 -2,0 -1,1 -2,0 -1,1 -3,0 -1,1 -3,0 -1,-1 0,-1 -1,-1 0,-5 -2,0 -1,1 0,0 -1,1 0,8 -1,1 -4,0 -1,-1 -1,-1 -1,-1 0,-2 -1,0 0,1 2,3 0,3 -1,1 -1,0 -1,1 -2,0 -1,1 -7,0 -1,1 -2,0 1,1 0,2 -1,1 0,2 -1,1 0,2 2,0 1,1 0,5 1,0 1,1 0,7 3,0 1,1 0,3 1,1 1,0 0,-2 1,-1 2,0 1,-1 1,0 1,-1 2,0 0,-2 1,-1 2,0 2,-5Z"/>
<path onmouseover="hoverPath(evt)" onmouseout="recoverPath(evt)" fill="rgb(172,198,236)" d="M  77,197l -2,0 -1,1 -1,0 -1,1 -2,0 -1,1 -1,0 -1,1 -2,0 -1,1 -1,0 -1,1 -6,0 -1,1 -2,0 -1,1 -1,0 -1,1 -2,0 -1,1 -2,0 -1,1 -1,0 -1,1 -2,0 -1,1 -1,0 -1,1 -2,0 -1,1 -1,0 -1,1 -2,0 -1,1 -1,0 -1,1 -1,0 -1,1 -2,0 -1,1 -1,0 -1,1 -2,0 -1,1 -1,0 -1,1 -2,0 -1,1 -1,0 -1,1 -1,1 -1,0 -1,1 -1,0 -1,1 -1,0 -1,1 -3,0 0,4 1,0 1,-1 1,0 1,-1 1,0 1,-1 1,-1 1,0 1,-1 1,0 1,-1 1,0 1,-1 1,0 1,-1 1,0 1,-1 2,0 1,-1 1,0 1,-1 2,0 1,-1 2,0 1,-1 1,0 1,-1 2,0 1,-1 1,0 1,-1 2,0 1,-1 1,0 1,-1 2,0 1,-1 1,0 1,-1 2,0 1,-1 1,0 1,-1 2,0 1,-1 1,0 1,-1 2,0 1,-1 2,0 1,-1 16,-7 -14,6 2,0 1,-1 -1,0 3,-1 2,0 1,-1 2,0 1,-1 1,0 1,-1 2,0 1,-1 2,0 1,-1 2,0 1,-1 1,0 1,-1 2,0 1,-1 1,0 0,-2 -2,0 -1,1 0,0 -1,1 -3,0 -1,1 -1,1 -2,0 -1,1 -1,0 -15,7 14,-6Z"/>
<path onmouseover="hoverPath(evt)" onmouseout="recoverPath(evt)" fill="rgb(235,233,227)" d="M  87,37l 0,7 1,1 0,1 4,0 1,-1 1,0 1,-1 2,0 1,-1 1,0 1,-1 4,0 1,1 0,1 2,0 1,1 0,6 -1,1 -1,0 -1,1 0,1 1,1 0,1 1,0 1,1 5,0 1,1 1,0 1,1 2,0 1,1 1,1 0,1 1,1 0,1 2,0 1,1 0,1 1,1 3,0 1,-1 2,0 1,-1 2,0 1,-1 1,0 1,-1 2,0 1,-1 2,0 1,-1 1,0 0,-4 1,-1 -1,-1 0,-1 -1,-1 0,-1 -1,-1 0,-1 -1,-1 0,-1 -2,0 -1,-1 0,-1 -1,-1 0,-1 -1,-1 0,-2 1,-1 -1,-1 0,-2 -2,0 -1,-1 0,-1 -1,-1 0,-1 -1,-1 0,-1 -1,0 -1,-1 0,-1 -1,-1 0,-1 -1,-1 0,-1 -1,-1 0,-1 -1,-1 0,-1 -1,-1 0,-1 -1,-1 0,-1 -1,-1 0,-1 -1,-1 0,-1 -1,-1 0,-2 -1,-1 0,-2 -1,0 0,7 -1,1 0,1 -1,1 -3,0 -1,-1 0,-2 -1,-1 -1,0 -1,1 -1,0 -1,1 -1,1 -1,1 -1,1 -1,1 0,5 -1,1 -6,0 0,1 -1,1 -1,1 0,4 -1,1 -5,0 0,1 -1,1Z"/>
<path onmouseover="hoverPath(evt)" onmouseout="recoverPath(evt)" fill="rgb(243,242,234)" d="M  91,172l -2,0 -1,1 0,1 1,1 0,1 1,1 0,1 1,1 0,1 1,1 1,1 0,1 1,1 0,1 1,1 1,0 1,-1 2,0 1,-1 1,0 1,-1 2,0 1,-1 1,0 1,-1 2,0 1,-1 1,0 1,-1 2,0 1,-1 1,0 1,-1 2,0 1,-1 1,0 1,-1 2,0 1,-1 1,0 1,-1 2,0 1,-1 2,0 1,-1 1,0 1,-1 2,0 1,-1 1,0 1,-1 2,0 1,-1 1,0 1,-1 2,0 1,-1 1,0 1,-1 2,0 1,-1 1,0 1,-1 2,0 1,-1 2,0 1,-1 1,0 1,-1 2,0 1,-1 1,0 1,-1 1,0 1,-1 1,0 1,-1 1,0 1,-1 2,0 1,-1 1,0 1,-1 1,0 1,-1 1,0 1,-1 1,0 1,-1 1,0 1,-1 2,0 0,-2 -1,-1 0,-1 -1,-1 0,-1 -1,-1 0,-1 -1,-1 0,-1 -1,-1 0,-1 -1,-1 0,-1 -1,0 -1,1 -1,0 -1,1 -2,0 -1,1 -1,0 -1,1 -2,0 -1,1 -1,0 -1,1 -2,0 -1,1 -1,0 -1,1 -1,0 -1,1 -2,0 -1,1 -1,0 -1,1 -2,0 -1,1 -1,0 -1,1 -1,0 -1,1 -2,0 -1,1 -1,0 -1,1 -2,0 -1,1 -1,0 -1,1 -2,0 -1,1 -1,0 -1,1 -1,0 -1,1 -2,0 -1,1 -1,0 -1,1 -2,0 -1,1 -1,0 -1,1 -2,0 -1,1 -1,0 -1,1 -1,0 -1,1 -2,0 -1,1 -1,0 -1,1 -2,0 -1,1 -1,0 -1,1 -2,0 -1,1 -1,0 -1,1 -2,0 -1,1 -1,0 -1,1 -2,0 -1,1 -1,0 -1,1Z"/>
<path onmouseover="hoverPath(evt)" onmouseout="recoverPath(evt)" fill="rgb(244,243,236)" d="M  183,93l 0,1 -1,1 -1,1 1,1 0,1 1,1 0,1 1,1 0,1 2,0 1,1 0,1 1,1 0,1 1,1 0,1 1,1 0,1 1,1 0,1 1,1 0,1 1,1 0,1 1,1 0,1 1,1 0,1 1,1 0,1 1,1 0,1 1,1 0,1 1,1 0,1 1,1 0,1 1,1 1,1 0,1 1,0 1,-1 2,0 0,-2 1,-1 2,0 1,1 1,0 0,-2 1,-1 2,0 1,1 1,0 1,-1 1,0 0,-2 1,-1 2,0 1,1 1,-1 1,0 1,-1 1,0 1,-1 1,0 1,-1 1,0 1,-1 1,0 1,-1 1,0 1,-1 1,0 1,-1 1,-1 1,0 1,-1 1,0 1,-1 1,-1 1,0 1,-1 1,-1 1,0 1,-1 1,0 1,-1 1,0 1,-1 1,-1 2,0 0,-12 -2,0 -1,-1 -1,-1 -1,-1 0,-1 -1,-1 0,-1 -1,-1 0,-1 -1,-1 -1,-1 0,-1 -1,-1 0,-1 -1,-1 0,-1 -1,-1 0,-1 -1,-1 -1,-1 0,-1 -1,-1 0,-1 -1,-1 0,-1 -1,0 -1,-1 -3,0 -1,1 -14,0 -1,1 -1,0 -1,1 -1,0 -1,1 -2,0 -1,1 -1,0 -1,1 -1,0 -1,1 -1,0 -1,1 -1,1 -1,0 -1,1 -1,1 -1,1 -1,0 -1,1 -1,1 -1,1 -1,0 -1,1 -1,1 -1,1 -1,0 -1,1 -1,1 -1,0 -1,1 -1,0 -1,1 -1,0 -1,1Z"/>
<path onmouseover="hoverPath(evt)" onmouseout="recoverPath(evt)" fill="rgb(243,241,234)" d="M  215,157l 0,1 -1,1 -1,1 0,1 2,0 1,1 0,1 1,1 0,1 1,1 0,1 1,1 0,1 1,1 0,1 1,1 0,1 1,1 0,1 1,0 1,1 0,1 1,1 0,1 1,1 0,1 1,1 0,1 1,1 0,1 1,1 0,1 1,1 0,2 -1,1 0,1 1,-1 2,0 1,-1 2,0 1,-1 0,-1 1,-1 1,-1 4,0 0,-1 1,-1 4,0 0,-1 1,-1 4,0 1,1 2,0 0,-52 -3,0 -1,1 -2,0 -1,1 -1,0 -1,1 -2,0 -1,1 -1,0 -1,1 -2,0 -1,1 -1,0 -1,1 -2,0 -1,1 -2,0 -1,1 -2,0 -1,1 -2,0 -1,1 -2,0 -1,1 -2,0 -1,1 -2,0 -1,1 -1,0 -1,1 -2,0 -1,1 0,1 -1,1 -1,1 1,1 0,2 1,1 1,0 0,-1 1,-1 1,-1 3,0 1,1 0,2 -1,1 -1,0Z"/>
<path onmouseover="hoverPath(evt)" onmouseout="recoverPath(evt)" fill="rgb(251,251,251)" d="M  242,117l -1,0 -1,1 -1,0 -1,1 -1,1 -1,0 -1,1 -1,0 -1,1 -1,0 -1,1 -1,0 -1,1 -1,0 -1,1 -1,0 -1,1 -1,0 -1,1 -2,0 -1,-1 0,2 -1,1 -1,0 -1,1 -3,0 -1,-1 0,2 -1,1 -3,0 -1,-1 0,2 -1,1 -2,0 -1,1 -2,0 0,3 1,0 0,-1 1,-1 1,0 1,-1 2,0 1,-1 1,0 1,-1 2,0 1,-1 1,0 1,-1 1,0 1,-1 1,0 1,-1 2,0 1,-1 1,0 1,-1 1,0 1,-1 1,0 1,-1 1,0 1,-1 1,0 1,-1 1,0 1,-1 1,-1 1,0 1,-1 1,0 1,-1 1,0 1,-1 0,-1 1,-1 1,1 0,0 1,-1 0,0 1,-1 1,0 1,-1 1,0 2,-2 1,0 1,-1 2,0 0,-2 -1,0 -1,1 -1,1 -1,0 -1,1 -1,0 -1,1 -1,0 -1,1 -1,1 -1,0 -1,1 -1,1Z"/>
<path onmouseover="hoverPath(evt)" onmouseout="recoverPath(evt)" fill="rgb(237,235,219)" d="M  12,54l 0,1 -1,1 -1,1 -1,0 -1,1 -1,0 1,1 0,2 1,1 0,3 -1,1 -1,1 0,1 1,1 1,1 1,-1 1,0 1,-1 2,0 1,-1 2,0 1,-1 1,0 1,-1 0,-1 -1,-1 0,-1 -1,-1 0,-1 -1,-1 0,-1 -1,-1 0,-1 -1,-1 0,-1 -1,-1 0,-1 -1,-1 0,-1 -1,-1 -1,-1 0,2 1,1Z"/>
<path onmouseover="hoverPath(evt)" onmouseout="recoverPath(evt)" fill="rgb(250,250,247)" d="M  28,254l -2,0 0,1 8,0 0,-2 1,-1 1,0 1,-1 2,0 1,-1 2,0 1,-1 1,0 1,-1 2,0 1,-1 1,0 1,-1 2,0 1,-1 2,0 1,-1 1,0 1,-1 2,0 1,-1 1,0 1,-1 2,0 1,-1 2,0 1,-1 2,0 1,-1 3,0 1,1 1,0 1,1 1,1 0,2 -1,1 2,0 1,1 1,1 0,3 1,-1 0,-2 -1,-1 0,-1 -1,-1 0,-1 -1,-1 -1,-1 0,-4 1,-1 1,0 1,-1 2,0 1,-1 1,0 1,-1 2,0 1,-1 1,0 1,-1 2,0 1,-1 1,0 1,-1 2,0 1,-1 1,0 1,-1 2,0 1,-1 1,0 1,-1 1,0 1,-1 3,0 1,1 0,1 1,1 1,1 0,1 1,1 0,1 1,1 0,4 1,0 1,-1 1,0 0,-1 -1,0 -1,-1 0,-1 -1,-1 0,-1 -1,-1 0,-1 -1,-1 0,-1 -1,-1 0,-2 1,-1 1,0 1,-1 1,0 1,-1 2,0 1,-1 1,0 1,-1 2,0 1,-1 1,0 1,-1 2,0 1,-1 1,0 1,-1 2,0 1,-1 1,0 1,-1 2,0 1,-1 1,0 1,-1 2,0 1,-1 1,0 1,-1 1,0 1,-1 2,0 1,-1 1,0 1,-1 2,0 1,-1 1,0 1,-1 2,0 1,-1 1,0 1,-1 2,0 1,-1 1,0 1,-1 2,0 1,-1 1,0 1,-1 2,0 1,-1 1,0 1,-1 2,0 1,-1 1,0 1,-1 2,0 1,-1 1,0 1,-1 2,0 1,-1 1,0 1,-1 1,0 1,-1 2,0 1,-1 1,0 1,-1 2,0 1,-1 2,0 0,-1 -3,0 -1,1 -2,0 -1,1 -1,0 -1,1 -1,0 -1,1 -3,0 -1,-1 0,2 -1,1 -3,0 -1,-1 0,2 -1,1 -2,0 -1,1 -4,0 -1,-1 0,-1 -1,-1 0,2 -1,1 -1,1 0,2 -1,1 -2,0 -1,1 -2,0 -1,1 -1,0 -1,1 -2,0 -1,1 -1,0 -1,1 -2,0 -1,1 -1,0 -1,1 -1,0 -1,1 -3,0 -1,-1 0,2 -1,1 -3,0 -1,-1 0,2 -1,1 -3,0 -1,-1 0,2 -1,1 -3,0 -1,-1 0,2 -1,1 -2,0 -1,1 -1,0 -1,1 -2,0 -1,1 -1,0 -1,1 -2,0 -1,1 -1,0 -1,1 -2,0 -1,1 -1,0 -1,1 -2,0 -1,-1 -1,-1 -1,-1 0,-1 -1,-1 0,-1 -1,-1 -1,-1 0,-1 -1,-1 0,-1 -2,0 1,1 0,0 1,1 0,1 1,1 0,1 1,1 0,1 1,1 1,1 0,3 -1,1 -1,1 -3,0 -1,-1 -3,0 -1,-1 0,4 -1,1 -1,1 -2,0 -1,1 -1,0 -1,1 -5,0 -1,-1 0,3 -1,1 -2,0 -1,1 -2,0 -1,1 -5,0 -1,-1 0,-1 -1,-1 0,-1 -1,-1 -1,0 -1,1 -2,0 -1,1 -3,0 -1,1 -2,0 -1,1 -3,0 -1,-1 -1,-1 -1,-1 0,-1 -1,-1 2,4 1,1 0,1 1,1 0,1 1,1 0,1 1,1 0,2 -1,1 -1,0 -1,1 -3,0 -1,-1 0,2 -1,1 -2,0 -1,1 -1,0 -1,1 -3,0 -1,-1 0,2 -1,1 -3,0 -1,-1 0,2 -1,1 -3,0 -1,-1 0,2 -1,1 -2,0 -1,1 181,-70 -181,70Z"/>
<path onmouseover="hoverPath(evt)" onmouseout="recoverPath(evt)" fill="rgb(241,237,225)" d="M  43,255l 29,0 0,-2 1,-1 1,0 1,-1 0,-1 1,-1 2,0 0,-1 1,-1 1,0 -1,-1 -2,0 -1,-1 0,-2 1,-1 -1,-1 -1,0 -1,-1 -1,0 -1,1 -2,0 -1,1 -2,0 -1,1 -2,0 -1,1 -1,0 -1,1 -2,0 -1,1 -1,0 -1,1 -2,0 -1,1 -2,0 -1,1 -1,0 -1,1 -2,0 -1,1 -1,0 -1,1 -2,0 -1,1 -2,0 -1,1 -1,0 0,1Z"/>
<path onmouseover="hoverPath(evt)" onmouseout="recoverPath(evt)" fill="rgb(242,240,230)" d="M  50,158l -1,-1 0,-2 1,-1 -6,0 -1,1 -1,0 -1,1 -4,0 -1,-1 -1,0 0,2 -1,1 -1,1 -4,0 -1,-1 -1,0 0,2 -1,1 -1,1 -2,0 -1,1 -1,0 -1,1 -2,0 -1,1 -2,0 -1,1 -1,0 -1,1 -3,0 -1,-1 0,-2 1,-1 -2,4 -1,0 -1,1 -3,0 -1,-1 -1,0 0,34 2,0 1,-1 1,0 1,-1 2,0 1,-1 1,0 1,-1 2,0 1,-1 1,0 1,-1 2,0 1,-1 0,-1 -1,-1 0,-2 1,-1 -1,-1 0,-1 -1,-1 0,-2 1,-1 0,-2 1,-1 1,0 1,-1 1,0 1,-1 1,0 1,-1 1,0 1,-1 1,0 1,-1 1,0 1,-1 2,0 1,1 0,-2 1,-1 1,0 1,-1 1,0 1,-1 1,0 1,-1 1,0 1,-1 2,0 1,-1 1,0 1,-1 2,0 1,1 1,0 1,-1 0,-2 1,-1 0,-1 -1,-1 0,-1 -1,-1 -1,-1 -46,31 0,-2 1,-1 2,0 1,1 0,2 -1,1 -2,0 -1,-1 46,-31Z"/>
<path onmouseover="hoverPath(evt)" onmouseout="recoverPath(evt)" fill="rgb(237,237,230)" d="M  67,125l 0,0 -1,-1 -2,0 -1,-1 0,2 -1,1 0,1 1,1 0,1 1,1 0,1 1,1 1,1 0,1 2,0 2,-2 3,0 1,-1 1,-1 3,0 1,-1 1,-1 2,0 1,-1 1,0 1,-1 2,0 1,-1 1,0 1,-1 3,0 1,-1 1,0 1,-1 1,0 1,-1 2,0 1,-1 1,0 1,-1 4,0 1,1 0,1 1,1 0,1 1,1 1,1 1,-1 2,0 1,-1 1,-1 1,0 1,-1 1,0 1,-1 1,0 1,-1 1,0 1,-1 1,0 1,-1 3,0 1,-1 1,-1 1,0 1,-1 0,-4 3,-3 1,-1 3,-3 1,0 1,-1 1,0 1,-1 2,0 1,-1 1,0 1,-1 4,0 1,-1 2,0 1,-1 1,-1 2,0 1,-1 2,0 1,-1 0,-1 -1,-1 0,-2 -1,-1 -3,0 -1,-1 0,-4 -1,-1 0,-1 -1,-1 0,-1 -1,0 -1,-1 0,-1 -1,-1 0,-1 -1,-1 0,-1 -1,-1 0,-1 -1,-1 -1,1 -2,0 -1,1 -2,0 -1,1 -2,0 -1,1 -1,0 -1,1 -2,0 -1,1 -2,0 -1,1 -2,0 -1,-1 -1,1 0,1 -1,1 2,0 1,1 0,2 -1,1 -2,0 -1,1 -1,0 -1,1 -3,0 -1,-1 -1,1 -2,0 -1,-1 -1,-1 -1,1 -1,0 -1,1 -2,0 -1,1 -2,0 -1,1 -2,0 -1,1 -1,1 -3,0 -1,1 -1,0 -1,1 0,1 1,1 0,1 1,1 0,1 1,1 0,1 1,1 0,1 1,1 1,-1 2,0 1,1 0,2 -1,1 -1,1 0,1 1,1 3,0 1,1 0,2 -1,1 -1,0 -1,1 -1,0 -1,1 -3,0 -1,1 -3,0 -1,-1 -1,0 0,2 -1,1 -3,0 -1,-1 -1,0 -1,1 -3,0 -1,1 -1,0 -1,1 -1,0 -1,1 -2,0 0,1 1,1 0,2 -1,1 -10,0 77,-28 -2,0 -1,-1 0,-2 1,-1 2,0 1,1 0,2 -1,1 -77,28 70,-25 -2,0 -1,-1 0,-2 1,-1 2,0 1,1 0,2 -1,1 -70,25 58,-33 2,0 1,1 0,2 -1,1 -2,0 -1,-1 0,-2 1,-1 -58,33 62,-22 -1,1 -2,0 -1,-1 0,-2 1,-1 2,0 1,1 0,2 -62,22Z"/>
<path onmouseover="hoverPath(evt)" onmouseout="recoverPath(evt)" fill="rgb(250,202,112)" d="M  74,254l 0,1 31,0 0,-3 1,-1 0,-1 1,-1 1,-1 2,0 1,-1 2,0 1,1 0,-1 1,-1 1,0 1,-1 1,-1 3,0 1,-1 2,0 1,1 0,3 2,0 1,-1 2,0 1,1 0,-2 -1,-1 0,-3 1,-1 1,-1 2,0 1,1 0,-1 1,-1 1,-1 1,0 1,-1 2,0 1,-1 1,0 1,-1 2,0 1,-1 1,0 1,-1 2,0 1,-1 1,0 1,-1 3,0 1,1 0,-1 1,-1 0,0 1,-1 2,0 1,1 0,-1 1,-1 1,-1 1,0 1,-1 2,0 1,-1 1,0 1,-1 2,0 1,-1 1,0 1,-1 3,0 1,1 0,-1 1,-1 0,0 1,-1 1,0 1,-1 2,0 1,-1 2,0 1,-1 1,0 1,-1 2,0 1,-1 1,0 1,-1 3,0 1,1 0,-1 2,-2 2,0 1,1 0,1 1,-2 0,-1 1,-1 2,0 1,-1 2,0 1,1 2,0 1,-1 0,-1 1,-1 1,0 0,-1 1,-1 -2,0 -1,-1 0,-2 1,-1 -1,-1 0,-1 -1,0 -1,1 0,0 -1,1 -1,0 -1,1 -2,0 -1,1 -2,0 -1,-1 0,1 -1,1 -1,1 -2,0 -1,-1 -2,0 0,1 -1,1 0,1 -1,1 -2,0 -1,1 -2,0 -1,1 -1,0 -1,1 -3,0 -1,-1 -2,0 0,1 -1,1 -2,0 0,1 -1,1 -1,1 -2,0 -1,-1 0,1 -1,1 0,0 -1,1 -2,0 -1,-1 0,1 -1,1 -1,1 -1,0 -1,1 -2,0 -1,1 -2,0 -1,-1 0,-1 -1,2 -2,0 0,1 -1,1 -1,1 -1,0 -1,1 -2,0 -1,1 -2,0 -1,1 -1,0 -1,1 -2,0 -1,1 -1,0 -1,1 -3,0 -1,-1 0,1 -1,1 0,0 -1,1 -1,0 -1,1 -2,0 -1,1 -3,0 -1,-1 -2,0 -1,1 -1,0 0,2 -1,1 -1,0 -1,1 -2,0 -1,1 -1,0 -1,1 -1,0 -1,1 -2,0 -1,1 -2,0 -1,1 -2,0 -1,-1 0,1 -1,1 0,0 -1,1 -1,0 -1,1 -2,0 -1,1 -1,0 -1,1 -2,0 -1,1 -2,0 -1,1 -1,0 -1,1 -2,0 -1,1 -2,0 -1,-1 0,0 -1,1 -2,0 0,1 -1,1 -1,1Z"/>
<path onmouseover="hoverPath(evt)" onmouseout="recoverPath(evt)" fill="rgb(238,232,218)" d="M  82,237l -1,0 0,2 1,1 0,0 1,1 0,1 1,1 0,1 1,1 0,3 1,-1 1,0 1,-1 2,0 1,-1 2,0 1,-1 1,0 1,-1 2,0 1,-1 1,0 1,-1 0,-2 1,-1 2,0 1,1 0,1 1,-1 2,0 1,-1 2,0 1,-1 1,0 1,-1 1,0 0,-4 -1,-1 0,-1 -1,-1 0,-1 -1,-1 -1,-1 0,-1 -1,0 -1,1 -1,0 -1,1 -1,0 -1,1 -2,0 -1,1 -1,0 -1,1 -2,0 -1,1 -1,0 -1,1 -2,0 -1,1 -1,0 -1,1 -2,0 -1,1 -1,0 -1,1 -2,0 -1,1Z"/>
<path onmouseover="hoverPath(evt)" onmouseout="recoverPath(evt)" fill="rgb(238,235,227)" d="M  126,255l 27,0 0,-2 1,-1 1,0 1,-1 1,0 1,-1 1,0 1,-1 1,0 1,-1 1,0 1,-1 1,-1 1,0 1,-1 1,-1 1,0 1,-1 1,0 1,-1 1,0 1,-1 1,0 1,-1 4,0 1,-1 3,0 1,-1 0,-2 1,-1 1,0 1,-1 1,-1 1,0 1,-1 2,0 0,-1 1,-1 1,0 1,-1 1,-1 1,-1 1,-1 1,-1 1,0 1,-1 2,0 1,-1 7,0 1,-1 1,0 1,-1 1,0 1,-1 1,-1 1,-1 1,0 1,-1 1,0 0,-2 -1,-1 0,-2 -1,-1 0,-3 -1,2 0,0 -1,1 -4,0 -1,-1 -1,1 -2,0 0,1 -1,1 0,1 -1,1 -2,0 -1,-1 0,-1 -1,1 0,1 -1,1 -2,0 -1,-1 -1,0 -1,1 -1,0 -1,1 -2,0 -1,1 -1,0 -1,1 -2,0 -1,1 -2,0 -1,1 -1,0 -1,1 0,1 -1,1 -2,0 -1,-1 -1,0 -1,1 -1,0 -1,1 -2,0 -1,1 -1,0 -1,1 -2,0 -1,1 -1,0 -1,1 0,1 -1,1 -2,0 -1,-1 -1,1 0,1 -1,1 -2,0 -1,-1 -1,0 -1,1 -1,0 -1,1 -2,0 -1,1 -1,0 -1,1 -2,0 -1,1 -1,0 -1,1 -2,0 -1,1 -1,0 -1,1 0,1 -1,1 -2,0 -1,-1 -1,1 0,1 1,1 0,4 -1,1 -1,0 -1,1 -2,0 -1,-1 -1,0 0,2 -1,1 -2,0 -1,-1 0,-2 1,-1 0,-3 -1,1 -3,0 -2,2 -1,0 0,1 -1,1 -2,0 -1,-1 -1,1 -2,0 -1,1 0,1 -1,1 0,2Z"/>
<path onmouseover="hoverPath(evt)" onmouseout="recoverPath(evt)" fill="rgb(244,243,236)" d="M  156,254l -1,0 0,1 88,0 0,-2 1,-1 -2,0 -1,-1 0,-5 -2,0 -1,-1 0,-1 -1,-1 0,-1 -1,-1 0,-1 -1,-1 0,-2 -1,0 -1,-1 0,-1 -1,-1 0,-1 -1,-1 -1,-1 0,-1 -1,-1 0,-1 -1,-1 -1,-1 0,-1 -1,-1 0,-1 -1,-1 0,-1 -1,1 0,0 -1,1 -1,0 -1,1 -1,1 -1,1 -1,0 -1,1 -1,0 -1,1 -7,0 -1,1 -2,0 -1,1 -1,0 0,1 -2,2 -1,0 -1,1 -2,0 0,1 -1,1 -1,0 -1,1 -1,0 -1,1 -1,0 -1,1 -3,0 -1,1 -1,1 -3,0 -1,1 -4,0 -1,1 -1,0 -1,1 -1,0 -1,1 -1,0 -1,1 -1,0 -1,1 -1,1 -1,0 -1,1 -1,1 -1,0 -1,1 -1,0 -1,1 -1,0 -1,1 -1,0 -1,1Z"/>
<path onmouseover="hoverPath(evt)" onmouseout="recoverPath(evt)" fill="rgb(242,241,233)" d="M  172,172l -1,0 -1,-1 -2,0 -1,1 -1,1 -2,0 -1,1 -1,0 5,-1 1,0 1,1 0,1 1,1 0,1 1,1 1,1 2,0 1,1 0,2 -1,1 1,1 0,1 1,1 1,1 2,0 1,1 1,1 0,1 2,0 1,-1 2,0 0,-2 1,-1 2,0 1,1 1,0 0,-2 1,-1 2,0 1,1 1,0 1,-1 1,0 1,-1 1,0 1,-1 2,0 1,-1 2,0 0,-2 -1,-1 0,-2 1,-1 -1,-1 0,-1 -1,-1 0,-1 -1,-1 0,-1 -1,0 -1,-1 -1,-1 0,-1 -1,-1 0,-1 -1,-1 0,-1 -3,0 -1,-1 -1,0 0,2 -1,1 -2,0 -1,-1 -1,0 -1,1 -1,0 0,2 -1,1 -2,0 -1,-1 -1,0 0,2 -1,1 -2,0 -1,-1 -1,0 -1,1 -1,0 0,2 -1,1Z"/>
<path onmouseover="hoverPath(evt)" onmouseout="recoverPath(evt)" fill="rgb(233,235,232)" d="M  61,159l 0,0 1,-1 2,0 1,-1 1,0 1,-1 2,0 1,-1 0,-2 -1,-1 0,-1 -1,-1 0,-1 -1,-1 0,-1 -1,-1 -1,-1 0,-1 -1,-1 0,-1 -1,-1 0,-1 -1,-1 0,-1 -1,0 -1,-1 0,-1 -2,0 -1,1 -2,0 -1,1 -1,0 -1,1 -2,0 -1,1 -2,0 -1,1 -2,0 -1,1 -1,0 -1,1 -2,0 -1,1 -2,0 -1,1 -1,0 -1,1 -2,0 -2,2 -3,0 -1,1 -2,0 -1,1 -1,0 -1,1 -2,0 -1,1 -2,0 -1,1 -1,0 -1,1 -2,0 -1,1 -1,1 -4,0 -1,-1 0,-2 -1,-1 0,-1 -1,-1 0,-2 -1,0 0,17 2,0 1,1 1,0 1,-1 1,0 0,-2 1,-1 1,-1 2,0 1,1 0,2 2,0 1,-1 2,0 1,-1 2,0 1,-1 1,0 1,-1 2,0 1,-1 0,-2 1,-1 3,0 1,1 2,0 1,-1 0,-2 1,-1 3,0 1,1 2,0 1,-1 1,0 1,-1 8,0 1,1 0,1 1,1 1,1 1,1 1,1 1,1 0,1 2,0 1,-1 1,0 -50,6 0,0 50,-6 -58,-3 0,0 -1,1 0,2 1,1 2,0 -2,-4 58,3 -55,-1 0,0 55,1Z"/>
<path onmouseover="hoverPath(evt)" onmouseout="recoverPath(evt)" fill="rgb(182,157,234)" d="M  121,7l 0,1 1,1 0,2 1,1 0,1 1,1 0,1 1,1 0,1 1,1 0,1 1,1 0,1 1,1 0,1 1,1 0,1 1,1 0,1 1,1 0,1 1,0 1,1 0,1 1,1 0,1 1,1 0,1 2,0 1,1 0,2 1,1 0,2 -1,1 1,1 0,1 1,1 0,1 2,0 1,1 0,1 1,1 0,1 1,1 0,1 1,1 0,1 1,1 0,2 -1,1 0,4 2,0 1,1 0,1 1,1 0,1 2,0 1,1 0,2 -1,1 1,1 0,1 1,1 0,1 1,1 0,1 1,1 0,1 1,0 1,1 0,1 1,1 0,1 1,1 0,4 3,0 1,1 1,1 0,2 1,1 0,3 -1,1 -1,1 -2,0 -1,1 -2,0 -1,1 -1,1 -2,0 -1,1 -4,0 -1,1 -1,0 -1,1 -2,0 -1,1 -1,0 -1,1 -1,0 -1,1 -3,3 -1,1 -1,1 0,1 1,-1 1,0 1,-1 0,0 1,-1 1,-1 1,-1 1,-1 1,0 1,-1 1,-1 2,0 1,-1 -5,2 -2,1 -1,1 -1,1 -1,1 -1,1 13,-8 2,0 3,-1 3,-1 1,0 1,-1 2,0 1,-1 3,0 1,1 1,1 0,1 1,1 0,1 1,1 0,1 1,1 0,4 -1,1 3,0 1,1 0,1 1,1 0,1 1,0 1,1 0,1 1,1 0,1 1,1 0,1 1,1 0,1 1,1 1,0 1,1 0,4 1,1 0,2 1,1 0,1 1,1 0,1 1,1 0,1 1,1 0,1 1,1 0,1 1,1 0,1 1,1 0,4 -1,1 -2,0 -1,1 -1,0 -1,1 -1,0 -1,1 -1,0 -1,1 -1,0 -1,1 -1,0 -1,1 -2,0 -1,1 -1,0 -1,1 -1,0 -1,1 -1,0 -1,1 -1,0 -1,1 -2,0 -1,1 -1,0 -1,1 -2,0 -1,1 -2,0 -1,1 -1,0 -1,1 -2,0 -1,1 -1,0 -1,1 -2,0 -1,1 -1,0 -1,1 -2,0 -1,1 -1,0 -1,1 -2,0 -1,1 -1,0 -1,1 -2,0 -1,1 -2,0 -1,1 -1,0 -1,1 -2,0 -1,1 -1,0 -1,1 -2,0 -1,1 -1,0 -1,1 -2,0 -1,1 -1,0 -1,1 -2,0 -1,1 -1,0 -1,1 -2,0 -1,1 -1,0 -1,1 -2,0 -1,1 -1,0 1,1 0,0 1,1 2,0 1,-1 1,0 1,-1 2,0 1,-1 1,0 1,-1 1,0 1,-1 2,0 1,-1 1,0 1,-1 2,0 1,-1 1,0 1,-1 1,0 1,-1 2,0 1,-1 1,0 1,-1 2,0 1,-1 1,0 1,-1 1,0 1,-1 2,0 1,-1 2,0 1,-1 1,0 1,-1 2,0 1,-1 1,0 1,-1 2,0 1,-1 2,0 1,-1 1,0 1,-1 2,0 1,-1 1,0 1,-1 2,0 1,-1 2,0 1,-1 1,0 1,-1 2,0 1,-1 1,0 1,-1 1,0 1,-1 1,0 1,-1 1,0 1,-1 1,0 1,-1 1,0 1,-1 1,0 1,-1 1,0 1,-1 1,0 1,-1 5,0 1,1 0,1 1,1 0,5 3,0 1,1 0,1 1,1 0,1 1,1 0,1 1,1 1,0 1,1 0,1 1,1 0,1 1,1 0,1 1,1 0,2 -1,1 1,1 0,3 1,0 1,1 1,1 0,2 1,1 0,1 1,0 1,1 0,1 1,1 0,1 1,1 0,1 1,1 0,2 2,0 1,1 0,1 1,1 0,2 -1,1 2,0 1,1 0,2 -1,1 0,4 1,1 0,2 1,1 0,4 -1,1 3,0 1,1 0,1 1,1 0,1 1,1 0,1 1,1 1,1 0,1 1,1 0,1 1,1 1,1 0,1 1,1 0,1 1,0 1,1 0,2 1,1 0,1 1,1 0,1 1,1 0,1 2,0 1,1 0,5 2,0 1,1 0,2 -1,1 0,1 10,0 0,-21 -2,0 -1,-1 0,-1 -1,-1 0,-1 -1,0 -1,-1 0,-2 -1,-1 0,-1 -1,-1 0,-1 -1,-1 -1,-1 -1,-1 0,-2 -1,-1 0,-3 -1,-1 0,-5 1,-1 1,-1 1,-1 1,-1 1,-1 -1,0 -1,1 -1,0 -1,1 -1,0 0,1 -1,1 -4,0 -1,-1 -1,-1 0,-1 -1,0 -1,-1 0,-1 -1,0 -1,-1 0,-2 1,-1 1,0 -1,-1 0,-1 -1,-1 0,-2 -1,1 -2,0 -1,-1 0,-3 1,-1 -1,-1 0,-1 -1,-1 0,-1 -1,-1 0,-1 -1,-1 0,-1 -1,-1 0,-1 -1,-1 0,-1 -1,0 -1,-1 0,-1 -1,-1 0,-1 -1,-1 0,-1 -1,-1 0,-1 -1,-1 0,-1 -1,-1 0,-1 -1,-1 0,-1 -2,0 -1,-1 0,-3 1,-1 1,-1 0,-3 1,-1 1,0 -3,3 -3,0 -1,-1 -1,-1 0,-2 -1,-1 0,-2 1,-1 1,-1 0,-1 1,-1 1,-1 2,0 1,-1 1,0 1,-1 2,0 1,-1 2,0 1,-1 2,0 1,-1 2,0 1,-1 2,0 1,-1 2,0 1,-1 2,0 1,-1 1,0 1,-1 2,0 1,-1 1,0 1,-1 2,0 1,-1 1,0 1,-1 2,0 1,-1 4,0 0,-3 -2,0 -1,1 -2,0 -1,1 -1,0 -1,1 -2,0 -1,1 -1,0 -1,1 -2,0 -1,1 -1,0 -1,1 -2,0 -1,1 -1,0 -1,1 -2,0 -1,1 -2,0 -1,1 -2,0 -1,1 -1,0 -1,1 -2,0 -1,1 -2,0 -1,1 -2,0 -1,1 -2,0 -1,1 -4,0 -1,-1 -1,-1 0,-1 -2,0 -1,-1 0,-6 -1,-1 -1,-1 0,-1 -1,-1 0,-1 -1,-1 0,-1 -1,-1 0,-1 -1,-1 0,-1 -1,-1 0,-1 -1,-1 0,-1 -1,-1 0,-1 -1,-1 0,-1 -1,-1 0,-1 -1,-1 0,-1 -1,-1 0,-1 -1,-1 0,-1 -1,-1 0,-1 -2,0 -1,-1 0,-1 -1,-1 0,-1 -1,-1 0,-1 -1,-1 0,-2 2,-2 0,-2 1,-1 2,0 1,-1 1,0 1,-1 1,0 1,-1 1,-1 1,0 1,-1 1,-1 1,-1 1,0 1,-1 1,-1 1,-1 1,0 1,-1 1,-1 1,-1 1,0 1,-1 1,-1 1,0 1,-1 1,0 1,-1 1,0 1,-1 2,0 1,-1 1,0 1,-1 1,0 1,-1 14,0 1,-1 5,0 1,1 1,0 1,1 0,1 1,1 0,1 1,1 0,1 1,1 1,1 0,1 1,1 0,1 1,1 0,1 1,1 0,1 1,1 1,1 0,1 1,1 0,1 1,1 0,1 1,1 1,1 1,0 0,-8 -2,0 -1,-1 0,-1 -1,-1 -1,-1 0,-1 -1,-1 0,-1 -1,-1 -1,-1 0,-1 -1,-1 0,-1 -1,-1 0,-1 -1,-1 0,-1 -1,-1 0,-5 1,-1 2,-2 2,0 1,-1 3,0 1,-1 2,0 0,-4 -2,0 -1,1 0,0 -1,1 -1,0 -1,1 -2,0 -1,1 -1,0 -1,1 -1,0 -1,1 -1,1 -1,0 -1,1 0,1 -1,1 -1,1 -1,1 -1,0 -1,1 -3,0 -1,1 -12,0 -1,1 -2,0 -1,1 -1,0 -1,1 -2,0 -1,1 -1,0 -1,1 -1,0 -1,1 -1,0 -1,1 -1,0 -1,1 -1,1 -1,0 -1,1 -1,1 -1,1 -1,0 -1,1 -1,1 -1,1 -1,0 -1,1 -1,1 -1,0 -1,1 -1,1 -1,0 -1,1 -1,0 -1,1 -4,0 -1,-1 -1,0 -1,-1 0,-1 -1,0 -1,-1 -1,-1 0,-1 -1,-1 0,-1 -1,-1 0,-1 -1,-1 0,-2 1,-1 -1,-1 0,-1 -1,0 -1,-1 0,-1 -1,-1 0,-1 -2,0 -1,-1 0,-4 1,-1 -1,-1 0,0 -1,-1 0,-1 -1,-1 0,-3 -1,0 -1,-1 0,-1 -1,-1 0,-1 -1,-1 0,-1 -1,-1 0,-1 -1,-1 0,-1 -1,-1 0,-1 -1,0 -1,-1 0,-1 -1,-1 0,-1 -1,-1 0,-1 -1,-1 0,-1 -1,-1 0,-1 -2,0 -1,-1 0,-2 -1,-1 0,-1 -1,-1 0,-1 -1,-1 0,-2 1,-1 -1,-1 0,-1 -1,-1 0,-1 -1,-1 0,-1 -1,-1 0,-1 -1,-1 0,-1 -1,-1 0,-1 -1,0 -1,-1 0,-1 -1,-1 0,-1 -1,-1 0,-1 -1,-1 0,-1 -1,-1 0,-2 -14,0 0,1 1,1 0,0 1,1 0,2 1,0 1,1 0,1 102,213 -1,-1 0,0 -1,1 -1,0 -1,1 -1,1 -1,1 -1,0 -1,1 -1,0 -1,1 -7,0 -1,1 -2,0 -1,1 -1,0 -1,1 -1,1 -1,1 -1,1 -1,1 -1,0 0,1 -1,1 -2,0 -1,1 -1,0 -1,1 -1,1 1,0 1,-1 1,0 1,-1 1,0 2,-1 2,-2 1,0 1,-1 1,0 1,-1 0,-1 1,-1 1,0 1,-1 2,0 1,-1 7,0 1,-1 1,0 1,-1 1,0 1,-1 1,-1 1,-1 1,0 1,-1 -102,-213Z"/>
<path onmouseover="hoverPath(evt)" onmouseout="recoverPath(evt)" fill="rgb(245,244,237)" d="M  246,63l -1,1 0,3 1,1 0,1 1,1 0,1 1,1 0,1 1,1 0,1 1,1 1,1 0,1 1,1 0,1 1,1 1,1 0,1 1,0 0,-23 -1,0 -1,1 -3,0 -1,1 -2,0 -1,1Z"/>
<path onmouseover="hoverPath(evt)" onmouseout="recoverPath(evt)" fill="rgb(239,238,231)" d="M  246,207l -1,1 -1,1 0,3 1,1 0,3 1,1 0,2 1,1 1,1 1,1 0,1 1,1 0,1 1,1 0,2 1,0 1,1 0,1 1,1 0,1 1,0 0,-36 -2,0 0,1 -1,1 -2,0 -1,-1 0,-1 -1,1 -2,0 -1,1 -1,0 -1,1 -1,1 -1,0 0,3 1,0 1,-1 1,0 1,-1 4,0 1,1 0,2 -1,1 -1,0 -1,1 -1,1Z"/>
</svg>