<svg width="256" height="256" xmlns="http://www.w3.org/2000/svg"><script> 
var tempColor;
function hoverPath(evt){
obj = evt.target;
tempColor = obj.getAttribute("fill");
obj.setAttribute("fill","red");
//alert(tempColor);
//obj.setAttribute("stroke","red");}
function recoverPath(evt){
obj = evt.target;
obj.setAttribute("fill", tempColor);
//obj.setAttribute("stroke", tempColor);
}</script><path onmouseover="hoverPath(evt)" onmouseout="recoverPath(evt)" fill="rgb(170,198,238)" d="M  0,234l 0,21 255,0 0,-73 -1,0 -1,1 -2,0 -1,1 -3,0 -1,1 -2,0 -1,1 -3,0 -1,1 -2,0 -1,1 -3,0 -1,1 -3,0 -1,1 -2,0 -1,1 -3,0 -1,1 -2,0 -1,1 -3,0 -1,1 -3,0 -1,1 -3,0 -1,1 -3,0 -1,1 -3,0 -1,1 -3,0 -1,1 -2,0 -1,1 -3,0 -1,1 -3,0 -1,1 -4,0 -1,1 -5,0 -1,1 -8,0 -1,-1 -2,0 -1,-1 -1,-1 -1,-1 -1,-1 0,-1 -1,-1 0,-1 -2,0 -1,1 -1,0 0,4 -1,1 0,1 -1,1 -1,1 -1,0 -1,1 -1,0 -1,1 -2,0 -1,1 -4,0 -1,1 -3,0 -1,1 -3,0 -1,1 -4,0 -1,1 -4,0 -1,1 -4,0 -1,1 -4,0 -1,1 -4,0 -1,1 -3,0 -1,1 -5,0 -1,1 -3,0 -1,1 -4,0 -1,1 -5,0 -1,1 -5,0 -1,1 -3,0 -1,1 -6,0 -1,1 -3,0 -1,1 -5,0 -1,1 -4,0 -1,1 -5,0 -1,1 -5,0 -1,1 -5,0 -1,1 -7,0 -1,1 -8,0 -1,1 -7,0 -1,1 -3,0 -1,1Z"/>
<path onmouseover="hoverPath(evt)" onmouseout="recoverPath(evt)" fill="rgb(243,242,235)" d="M  0,117l 0,114 3,0 1,-1 7,0 1,-1 8,0 1,-1 7,0 1,-1 5,0 1,-1 5,0 1,-1 5,0 1,-1 4,0 1,-1 5,0 1,-1 3,0 1,-1 6,0 1,-1 3,0 1,-1 5,0 1,-1 5,0 1,-1 4,0 1,-1 3,0 1,-1 5,0 1,-1 3,0 1,-1 4,0 1,-1 4,0 1,-1 4,0 1,-1 4,0 1,-1 4,0 1,-1 3,0 1,-1 3,0 1,-1 4,0 1,-1 2,0 1,-1 1,0 1,-1 1,0 1,-1 0,-1 1,-1 0,-4 1,-1 1,0 1,-1 3,0 0,-1 -4,0 -1,-1 0,-2 1,-1 0,-5 1,-1 0,-5 1,-1 0,-21 -1,-1 0,-13 -1,-1 0,-4 -1,-1 0,-1 -1,-1 -1,-1 -1,-1 -1,-1 -1,-1 -1,0 -1,-1 -1,0 -1,-1 -2,0 -1,-1 -3,0 -1,-1 -5,0 -1,-1 -5,0 -1,-1 -4,0 -1,-1 -5,0 -1,-1 -4,0 -1,-1 -4,0 -1,-1 -2,0 -1,-1 -2,0 -1,-1 -2,0 -1,-1 -1,0 -1,-1 -1,0 -1,-1 -1,-1 -1,-1 0,-1 -1,-1 0,-8 1,-1 0,-1 1,-1 1,-1 1,-1 2,-2 1,0 1,-1 2,0 1,-1 1,0 1,-1 2,0 1,-1 1,0 1,-1 1,0 1,-1 2,0 1,-1 1,0 1,-1 2,0 1,-1 1,0 1,-1 2,0 1,-1 1,0 1,-1 2,0 3,-3 1,-1 0,-3 1,-1 0,-7 -1,-1 0,-2 -1,-1 -1,-1 -1,-1 -2,0 -1,-1 -37,0 -1,-1 -2,0 -1,-1 -2,0 -1,-1 -1,-1 0,-1 -1,-1 0,-2 -1,-1 0,-2 -3,0 -1,-1 0,-3 -1,-1 -1,-1 0,-2 -1,-1 0,-2 -1,-1 0,-2 -1,-1 0,-1 -1,-1 0,-3 -1,-1 0,-2 -1,-1 0,-3 -1,-1 0,-2 -1,-1 0,-3 -1,-1 0,-2 -1,-1 0,-3 -1,-1 0,-3 -7,0 -1,1 -6,0 -1,1 -7,0 -1,1 -6,0 -1,1 -4,0 0,7 1,1 0,11 1,1 0,14 1,1 0,10 -1,1 -3,0 -1,-1 0,-8 -1,-1 0,-10 -1,-1 0,-14 -1,-1 0,-8 -1,-1 0,-1 -5,0 -1,-1 0,-2 1,-1 4,0 1,-1 7,0 1,-1 7,0 1,-1 6,0 1,-1 6,0 1,-1 8,0 0,-1 -55,0Z"/>
<path onmouseover="hoverPath(evt)" onmouseout="recoverPath(evt)" fill="rgb(175,199,233)" d="M  59,7l 0,1 1,1 0,3 1,1 0,2 1,1 0,3 1,1 0,2 1,1 0,3 1,1 0,2 1,1 0,3 1,1 0,1 1,1 0,2 1,1 0,2 1,1 0,2 1,1 1,1 0,3 3,0 1,1 0,2 1,1 0,2 1,1 0,1 1,1 2,0 1,1 2,0 1,1 2,0 0,-2 -2,0 -1,-1 -1,0 -1,-1 -1,-1 -1,-1 0,-3 -2,0 -1,-1 0,-1 -1,-1 0,-2 -3,0 -1,-1 0,-3 -1,-1 0,-2 -1,-1 0,-3 -1,-1 0,-4 -1,-1 0,-3 -1,-1 0,-3 -1,-1 0,-3 -1,-1 0,-2 -1,-1 0,-3 -1,-1 0,-3 -1,-1 0,-1 -1,1 -1,0 -1,1Z"/>
<path onmouseover="hoverPath(evt)" onmouseout="recoverPath(evt)" fill="rgb(252,252,251)" d="M  82,6l 0,-6 -25,0 0,2 -1,1 -8,0 -1,1 -6,0 -1,1 -6,0 -1,1 -7,0 -1,1 -7,0 -1,1 1,0 1,1 0,1 1,1 0,8 1,1 0,14 1,1 0,10 1,1 0,8 1,0 0,-8 -1,-1 0,-14 -1,-1 0,-11 -1,-1 0,-9 1,-1 4,0 1,-1 6,0 1,-1 7,0 1,-1 6,0 1,-1 11,0 1,-1 4,0 1,-1 5,0 1,-1 8,0 1,1 0,3 1,1Z"/>
<path onmouseover="hoverPath(evt)" onmouseout="recoverPath(evt)" fill="rgb(170,198,238)" d="M  124,122l 0,0 1,1 5,0 1,1 5,0 1,1 3,0 1,1 2,0 1,1 1,0 1,1 1,0 1,1 1,1 1,1 1,1 1,1 1,1 0,1 1,1 0,4 1,1 0,13 1,1 0,23 -1,1 0,5 -1,1 0,5 -1,1 3,0 0,-4 1,-1 0,-3 1,-1 0,-4 1,-1 0,-10 -1,-1 0,-16 -1,-1 0,-13 -1,-1 0,-1 -1,-1 0,-1 -1,-1 -1,-1 -1,-1 -1,-1 -1,-1 -1,0 -1,-1 -1,0 -1,-1 -1,0 -1,-1 -2,0 -1,-1 -5,0 -1,-1 -5,0 -1,-1 -4,0 -1,1 -1,-1 -1,-1 -5,0 -1,-1 -4,0 -1,-1 -4,0 -1,-1 -3,0 -1,-1 -2,0 -1,-1 -2,0 -1,-1 -1,-1 -1,0 -1,-1 -1,-1 0,-1 -1,-1 0,-5 1,-1 1,-1 1,-1 1,-1 1,-1 1,0 1,-1 2,0 1,-1 1,0 1,-1 1,0 1,-1 2,0 1,-1 1,0 1,-1 2,0 1,-1 1,0 1,-1 2,0 1,-1 1,0 1,-1 2,0 1,-1 2,0 1,-1 1,0 1,-1 1,-1 1,-1 1,-1 0,-1 1,-1 0,-14 -1,-1 0,-2 -1,-1 0,-1 -1,-1 -1,0 -1,-1 -1,0 -1,-1 -3,0 -1,-1 -26,0 -1,1 -5,0 0,1 33,0 1,1 2,0 1,1 1,1 1,1 1,1 0,2 1,1 0,9 -1,1 0,3 -1,1 -1,1 -1,1 -1,1 -1,1 -2,0 -1,1 -1,0 -1,1 -2,0 -1,1 -1,0 -1,1 -2,0 -1,1 -1,0 -1,1 -2,0 -1,1 -1,0 -1,1 -1,0 -1,1 -2,0 -1,1 -1,0 -1,1 -2,0 -1,1 -1,0 -3,3 -1,1 0,1 -1,1 0,6 1,1 0,1 1,1 1,1 1,0 1,1 1,0 1,1 2,0 1,1 2,0 1,1 2,0 1,1 4,0 1,1 4,0 1,1 5,0 1,1 2,0 1,-1 1,1Z"/>
<path onmouseover="hoverPath(evt)" onmouseout="recoverPath(evt)" fill="rgb(243,242,235)" d="M  158,194l 0,2 1,1 0,1 1,1 1,1 1,1 2,0 1,1 6,0 1,-1 5,0 1,-1 4,0 1,-1 3,0 1,-1 3,0 1,-1 2,0 1,-1 3,0 1,-1 3,0 1,-1 3,0 1,-1 3,0 1,-1 3,0 1,-1 3,0 1,-1 2,0 1,-1 3,0 1,-1 2,0 1,-1 3,0 1,-1 3,0 1,-1 2,0 1,-1 3,0 1,-1 2,0 1,-1 3,0 1,-1 2,0 1,-1 2,0 0,-180 -171,0 0,10 -1,1 -2,0 -1,-1 0,-3 -1,-1 0,-3 -6,0 -1,1 -5,0 -1,1 -2,0 1,1 0,3 1,1 0,3 1,1 0,2 1,1 0,3 1,1 0,3 1,1 0,3 1,1 0,4 1,1 0,3 1,1 0,2 1,1 0,3 3,0 1,1 0,2 1,1 0,1 2,0 1,1 0,3 1,1 1,1 1,0 1,1 2,0 1,1 4,0 1,-1 28,0 1,1 3,0 1,1 1,0 1,1 1,0 1,1 1,1 0,1 1,1 0,2 1,1 0,16 -1,1 0,1 -1,1 -1,1 -2,2 -1,1 -1,0 -1,1 -2,0 -1,1 -2,0 -1,1 -1,0 -1,1 -2,0 -1,1 -1,0 -1,1 -2,0 -1,1 -1,0 -1,1 -2,0 -1,1 -1,0 -1,1 -1,0 -1,1 -2,0 -1,1 -1,0 -1,1 -1,1 -1,1 -1,1 0,3 1,1 0,1 1,1 1,0 1,1 1,1 2,0 1,1 2,0 1,1 3,0 1,1 4,0 1,1 4,0 1,1 5,0 1,1 6,0 1,1 5,0 1,1 5,0 1,1 2,0 1,1 1,0 1,1 1,0 1,1 1,0 1,1 1,1 1,1 1,1 1,1 1,1 0,1 1,1 0,1 1,1 0,13 1,1 0,16 1,1 0,12 -1,1 0,4 -1,1 0,3 -1,1Z"/>
</svg>