<svg width="256" height="256" xmlns="http://www.w3.org/2000/svg"><script> 
var tempColor;
function hoverPath(evt){
obj = evt.target;
tempColor = obj.getAttribute("fill");
obj.setAttribute("fill","red");
//alert(tempColor);
//obj.setAttribute("stroke","red");}
function recoverPath(evt){
obj = evt.target;
obj.setAttribute("fill", tempColor);
//obj.setAttribute("stroke", tempColor);
}</script><path onmouseover="hoverPath(evt)" onmouseout="recoverPath(evt)" fill="rgb(172,198,235)" d="M  0,200l 0,5 2,0 1,1 2,2 1,1 1,1 1,1 0,1 1,1 0,2 1,1 0,2 1,1 0,2 1,1 0,3 1,1 0,5 2,0 1,-1 0,-3 -1,-1 0,-3 -1,-1 0,-2 -1,-1 0,-2 -1,-1 0,-2 -1,-1 0,-3 -1,-1 0,-2 -1,-1 -1,-1 0,-1 -1,-1 -1,-1 -1,-1 -1,0 -1,-1 -1,-1 -1,0 -1,1 13,32 0,0 -13,-32Z"/>
<path onmouseover="hoverPath(evt)" onmouseout="recoverPath(evt)" fill="rgb(173,197,234)" d="M  84,48l 0,2 4,0 1,-1 11,0 1,-1 9,0 1,-1 3,0 1,1 5,0 0,-1 1,-1 1,0 1,-1 5,0 1,-1 2,0 1,-1 2,0 1,-1 2,0 1,-1 1,0 1,-1 1,0 1,-1 1,0 1,-1 1,0 1,-1 1,0 1,-1 1,0 1,-1 1,-1 1,0 1,-1 1,0 1,-1 1,0 1,-1 -1,0 -1,-1 -6,0 0,2 -1,1 -1,0 -1,1 -2,0 -2,2 -1,0 -1,1 -1,0 -1,1 -1,0 -1,1 -1,0 -1,1 -1,0 -1,1 -2,0 -1,1 -2,0 -1,1 -4,0 -1,1 -6,0 -1,1 -7,0 -1,1 -8,0 -1,1 -12,0 -1,1Z"/>
<path onmouseover="hoverPath(evt)" onmouseout="recoverPath(evt)" fill="rgb(243,241,232)" d="M  102,216l 0,2 -1,1 0,3 -1,1 -3,0 -1,-1 -1,0 -1,-1 -1,-1 0,-2 -1,0 -1,1 -2,0 -1,1 -1,0 -1,1 2,0 1,1 0,2 -1,1 -2,0 -1,1 -4,0 -1,-1 0,-2 1,-1 -4,0 -1,-1 -1,0 0,1 -1,1 -1,1 -2,0 -1,-1 0,1 -1,1 -2,0 -1,-1 -2,0 0,1 -1,1 1,1 0,3 -1,1 0,1 1,1 0,1 2,0 1,1 0,1 1,1 0,2 1,1 0,1 1,1 0,1 1,1 1,1 6,0 1,1 2,0 0,-2 1,-1 3,0 1,-1 3,0 1,-1 3,0 1,-1 2,0 1,-1 3,0 1,-1 2,0 0,-4 1,-1 2,0 1,1 0,1 1,1 0,4 3,0 1,1 1,0 0,-2 1,-1 3,0 1,-1 2,0 1,-1 4,0 1,1 1,0 0,-2 1,-1 3,0 1,-1 2,0 1,-1 1,0 -1,-1 0,-3 -1,-1 0,-2 -1,-1 0,-2 -1,-1 0,-2 -1,-1 0,-1 -1,-1 0,-2 -1,-1 0,-2 -1,-1 0,-1 -1,0 -1,1 -3,0 -1,1 -3,0 -1,1 -3,0 -1,1 -2,0 -1,1 -3,0 -1,1 -3,0 -1,1Z"/>
<path onmouseover="hoverPath(evt)" onmouseout="recoverPath(evt)" fill="rgb(248,248,243)" d="M  7,0l -7,0 0,17 2,0 1,-1 3,0 1,-1 4,0 1,1 1,0 0,-2 1,-1 3,0 1,-1 3,0 1,-1 2,0 1,-1 4,0 1,1 1,0 1,-1 0,-1 1,-1 2,0 1,-1 3,0 1,-1 2,0 1,-1 3,0 1,-1 3,0 1,-1 2,0 1,-1 3,0 1,-1 4,0 1,1 1,0 0,-2 -14,0 0,2 -1,1 -3,0 -1,1 -2,0 -1,1 -2,0 -1,1 -3,0 -1,1 -3,0 -1,1 -2,0 -1,1 -3,0 -1,1 -3,0 -1,1 -6,0 -1,-1 0,-1 -1,-1 0,-3 -1,-1 0,-4Z"/>
<path onmouseover="hoverPath(evt)" onmouseout="recoverPath(evt)" fill="rgb(243,240,232)" d="M  97,0l -2,0 0,3 -1,1 0,2 -1,1 0,1 -1,1 0,2 -1,1 0,1 -1,1 0,2 11,0 1,1 8,0 1,1 4,0 1,1 1,1 1,0 1,-1 1,0 0,-1 1,-1 1,-1 5,0 1,-1 2,0 1,1 0,1 3,0 1,-1 4,0 1,-1 1,0 0,-1 1,-1 1,-1 2,0 1,1 0,2 1,-1 7,0 0,-1 1,-1 4,0 1,-1 1,-1 2,0 1,1 0,2 1,-2 2,0 1,1 0,-1 1,-1 1,0 1,-1 1,0 0,-2 1,-1 0,-1 1,-1 0,-1 1,-1 0,-2Z"/>
<path onmouseover="hoverPath(evt)" onmouseout="recoverPath(evt)" fill="rgb(243,242,233)" d="M  90,81l 0,2 1,1 0,2 1,1 0,2 1,1 0,1 1,1 0,2 1,1 0,2 1,1 0,1 1,1 0,2 1,1 0,1 1,1 0,2 1,1 0,1 1,1 1,1 0,1 4,0 1,-1 3,0 1,-1 4,0 1,-1 3,0 1,-1 2,0 1,-1 1,-1 1,0 0,-5 1,-1 2,0 1,1 0,3 1,1 8,0 1,-1 3,0 1,-1 4,0 1,-1 3,0 1,-1 3,0 1,-1 3,0 1,-1 2,0 0,-2 -1,-1 0,-2 -1,-1 0,-6 1,-1 0,-2 -2,0 -1,-1 0,-3 -1,-1 0,-5 1,-1 0,-2 -2,0 -1,-1 0,-3 -1,-1 0,-3 -1,-1 0,-2 -1,-1 0,-2 -1,-1 0,-1 -2,0 -1,-1 -1,1 -1,1 -2,0 -1,-1 -1,-1 -2,0 -1,1 0,2 -1,1 -4,0 -1,-1 -1,0 -1,-1 -1,0 -1,-1 0,-1 -1,0 -1,-1 -2,0 -1,-1 -2,0 -1,1 -7,0 -1,-1 0,-3 -1,0 -1,1 -9,0 -1,1 -11,0 -1,1 -4,0 0,2 1,1 0,11 1,1 0,5 1,1 0,4 1,1 0,2 1,1 22,-28 1,1 0,2 -1,1 -2,0 -1,-1 0,-2 1,-1 2,0 -22,28Z"/>
<path onmouseover="hoverPath(evt)" onmouseout="recoverPath(evt)" fill="rgb(244,243,235)" d="M  153,241l 0,0 1,1 0,1 1,1 0,2 1,1 0,2 1,1 0,2 1,1 0,2 97,0 0,-17 -1,0 -1,-1 -1,-1 -1,-1 -1,-1 0,-1 -1,-1 -1,-1 0,-1 -1,-1 -1,-1 0,-1 -1,-1 -1,-1 0,-1 -1,-1 -1,-1 0,-1 -1,-1 -1,-1 0,-1 -1,-1 0,-1 -1,-1 -1,-1 0,-1 -1,-1 0,-1 -1,-1 0,-1 -1,-1 0,-1 -1,-1 0,-1 -1,-1 -1,-1 0,-1 -1,-1 0,-1 -1,-1 -1,-1 0,-2 -1,-1 0,1 -1,1 0,1 -1,1 -1,1 -3,0 -1,-1 -1,0 0,2 -1,1 -2,0 -1,-1 0,2 -1,1 -3,0 -1,-1 0,2 -1,1 -1,0 -1,1 -2,0 -1,1 -3,0 -1,-1 -1,0 0,2 -1,1 -1,0 -1,1 -2,0 -1,1 -1,0 -1,1 -2,0 -1,1 -2,0 -1,1 -1,0 -1,1 -1,0 -1,1 -1,0 -1,1 -1,0 -1,1 -2,0 -1,1 -1,0 -1,1 -2,0 -1,1 -2,0 -1,1 -2,0 -1,-1 -1,0 0,2 -1,1 -1,1 -2,0 -1,1 -1,0 -1,1 -2,0 -1,1 1,0 1,1 0,1 1,1 0,1 1,1 0,3 -1,1 -1,1 -1,0Z"/>
<path onmouseover="hoverPath(evt)" onmouseout="recoverPath(evt)" fill="rgb(254,254,254)" d="M  159,169l 0,1 -1,1 2,0 1,-1 1,0 1,-1 2,0 1,-1 1,0 1,-1 2,0 1,-1 1,0 1,-1 1,-1 1,0 1,-1 1,0 1,-1 1,0 1,-1 1,0 1,-1 1,0 1,-1 1,0 1,-1 1,0 1,-1 1,0 1,-1 1,0 1,-1 1,-1 -4,2 0,0 -1,-1 0,-1 -1,-1 0,1 -1,1 0,0 -1,1 -1,1 -1,0 -1,1 -1,0 -1,1 -1,0 -1,1 -1,0 -1,1 -1,0 -1,1 -1,0 -1,1 -1,0 -1,1 -1,0 -1,1 -1,1 -1,0 -1,1 -1,0 -1,1 -3,0 -1,1Z"/>
<path onmouseover="hoverPath(evt)" onmouseout="recoverPath(evt)" fill="rgb(171,197,237)" d="M  178,0l -1,0 0,3 -1,1 0,1 -1,1 0,1 -1,1 0,2 1,-1 13,0 1,-1 12,0 1,-1 13,0 1,-1 12,0 1,1 0,-1 1,-1 12,0 1,-1 12,0 0,-4Z"/>
<path onmouseover="hoverPath(evt)" onmouseout="recoverPath(evt)" fill="rgb(248,201,114)" d="M  0,58l 0,10 2,0 1,-1 2,0 1,-1 1,0 1,-1 1,0 1,-1 2,0 1,-1 2,0 1,-1 2,0 1,1 1,0 1,-1 1,-1 1,0 0,-1 1,-1 1,-1 2,0 1,1 0,-1 1,-1 0,0 1,-1 2,0 1,1 0,2 -1,1 1,0 1,1 0,1 1,1 0,1 1,1 2,0 1,1 0,1 1,0 0,-1 1,-1 1,-1 0,-1 1,-1 0,-1 1,-1 1,-1 0,-1 1,-1 0,-1 1,-1 1,-1 0,-2 1,-1 1,0 0,-2 1,-1 2,0 1,-1 3,0 1,1 1,0 0,-2 1,-1 3,0 1,1 1,0 1,-1 3,0 0,-2 1,-1 4,0 1,1 0,-1 1,-1 0,0 1,-1 2,0 1,-1 3,0 1,-1 3,0 1,-1 3,0 1,1 0,1 1,0 1,-1 0,0 1,-1 1,0 0,-1 1,-1 5,0 1,1 0,1 1,-1 4,0 1,-1 4,0 1,-1 5,0 1,-1 0,-1 1,-1 1,0 1,-1 5,0 1,-1 2,0 1,1 0,2 1,-1 1,0 1,-1 2,0 0,-1 1,-1 2,0 1,1 0,2 2,0 1,1 1,0 1,-1 1,0 0,-2 1,-1 8,0 1,1 1,0 1,1 4,0 0,-2 1,-1 2,0 1,1 2,0 1,1 6,0 1,-1 2,0 1,1 1,-1 12,0 0,-2 1,-1 2,0 1,1 0,1 17,0 0,-2 1,-1 2,0 1,1 0,1 19,0 0,-2 1,-1 2,0 1,1 0,1 14,0 0,-19 -11,0 -1,1 -12,0 0,2 -1,1 -2,0 -1,-1 0,-1 -10,0 -1,1 -13,0 -1,1 -12,0 -1,1 -13,0 -1,1 -2,0 -1,-1 -1,1 -1,0 0,1 -1,1 -2,0 -1,-1 0,1 -1,1 -2,0 -1,-1 0,-2 -1,1 0,0 -1,1 -4,0 0,1 -1,1 -7,0 -1,1 -2,0 -1,-1 0,-2 -1,1 0,1 -1,1 -1,0 -1,1 -4,0 -1,1 -5,0 -1,-1 0,-1 -1,1 -5,0 -1,1 0,1 -1,1 -1,0 -1,1 -3,0 -1,-1 -1,-1 -3,0 -1,1 -11,0 -1,-1 -12,0 0,1 -1,1 0,4 -2,2 -3,0 -1,1 -1,1 -1,0 0,1 -1,1 -3,0 -1,1 -3,0 -1,1 -3,0 -1,1 -3,0 -1,1 -2,0 -1,1 -2,0 -1,1 -2,0 -1,1 -2,0 -1,1 -2,0 -1,1 -3,0 -1,-1 -1,0 -1,1 -1,0 -1,1 -2,0 -1,1 -1,0 -1,1 -1,0 -1,1 -3,0 -1,-1 -2,0 -1,1 -2,0 -1,1 -2,0 -1,1 -2,0 -1,1 -3,0 -1,1 -1,0 -1,1 -3,0 0,1 -1,1 -2,0 -1,-1 -1,0Z"/>
<path onmouseover="hoverPath(evt)" onmouseout="recoverPath(evt)" fill="rgb(240,239,227)" d="M  13,2l 0,1 1,1 0,3 1,1 0,1 4,0 1,-1 3,0 1,-1 3,0 1,-1 2,0 1,-1 3,0 1,-1 3,0 1,-1 2,0 1,-1 2,0 1,-1 3,0 0,-1 -35,0Z"/>
<path onmouseover="hoverPath(evt)" onmouseout="recoverPath(evt)" fill="rgb(246,235,144)" d="M  72,10l 0,12 1,1 0,7 2,0 0,-1 1,-1 1,0 1,-1 1,-1 1,0 0,-7 1,-1 0,-10 1,-1 1,-1 0,-2 1,-1 0,-1 1,-1 0,-1 -14,0 0,3 1,1Z"/>
<path onmouseover="hoverPath(evt)" onmouseout="recoverPath(evt)" fill="rgb(246,244,238)" d="M  78,129l 0,-1 -1,-1 0,-3 1,-1 2,0 1,-1 2,0 1,-1 0,-1 -1,-1 0,-3 -1,-1 0,-2 -1,-1 0,-4 -1,-1 0,-1 -1,-1 0,-3 -1,4 0,0 -1,1 -1,1 4,0 -1,-2 0,0 2,7 -1,1 0,0 -1,1 -1,0 -1,1 -1,1 -2,0 -1,1 -1,1 -1,0 -1,1 -2,0 1,1 0,1 1,1 0,4 1,1 0,5 -1,1 2,0 1,1 1,1 0,2 1,1 0,-1 -1,-3 0,-1 1,-1 1,0 1,-1 3,0 -1,-1 0,-1 -1,-1Z"/>
<path onmouseover="hoverPath(evt)" onmouseout="recoverPath(evt)" fill="rgb(242,238,229)" d="M  85,43l 0,2 11,0 1,-1 8,0 1,-1 7,0 1,-1 6,0 1,-1 4,0 1,-1 2,0 1,-1 2,0 1,-1 1,0 1,-1 1,0 1,-1 1,0 1,-1 1,0 1,-1 1,0 1,-1 -2,0 -1,-1 0,-2 -1,2 -2,0 -1,1 -1,0 -1,1 -2,0 -1,-1 0,-2 -1,1 -5,0 -1,1 -1,0 0,1 -1,1 -1,1 -5,0 -1,1 -4,0 -1,1 -4,0 -1,1 -2,0 -1,-1 0,-1 -3,0 0,1 -1,1 -1,0 -1,1 -1,1 -3,0 -1,-1 0,-1 -1,0 -1,1 -1,0 0,1 -2,2Z"/>
<path onmouseover="hoverPath(evt)" onmouseout="recoverPath(evt)" fill="rgb(253,253,253)" d="M  102,115l 0,0 1,1 1,-1 3,0 1,-1 4,0 1,-1 3,0 1,-1 5,0 1,-1 3,0 1,-1 3,0 1,-1 4,0 1,-1 3,0 1,-1 4,0 1,-1 6,0 1,1 0,5 -1,1 3,0 1,-1 2,0 1,-1 -1,-1 0,-1 -1,-1 0,-2 1,-1 3,0 0,-1 1,-1 1,0 1,-1 3,0 1,-1 2,0 1,-1 3,0 1,-1 2,0 1,1 1,1 1,1 0,2 1,1 0,2 1,1 0,3 1,1 0,3 1,1 0,2 1,1 0,2 1,1 0,4 1,1 0,2 1,1 0,2 1,1 0,4 1,1 0,1 1,1 0,3 1,0 1,1 0,2 1,1 0,2 1,1 0,-4 -1,-1 0,-6 -1,-1 0,-3 -1,-1 0,-2 -1,-1 0,-3 -1,-1 0,-2 -1,-1 0,-3 -1,-1 0,-2 -1,-1 0,-3 -1,-1 0,-2 -1,-1 0,-3 -1,-1 0,-2 -1,-1 0,-1 -1,-1 0,-2 -1,-1 0,-2 -1,-1 0,-2 -1,-1 0,-2 -1,-1 0,-3 -1,-1 0,-2 -1,-1 0,-2 -1,-1 0,-3 -1,-1 0,-3 -1,-1 0,-3 -1,-1 0,-3 -1,-1 0,-3 -1,-1 0,-3 -1,-1 0,-3 -1,-1 0,-3 -1,-1 0,-3 -1,-1 0,-3 -1,-1 0,-3 -1,-1 0,-3 -3,0 0,3 1,1 0,3 1,1 0,3 1,1 0,3 1,1 0,3 1,1 0,3 1,1 0,4 1,1 0,2 1,1 0,3 1,1 0,3 1,1 0,3 1,1 0,3 1,1 0,3 1,1 0,2 1,1 0,3 1,1 0,2 1,1 0,3 -1,1 -2,0 -1,1 -2,0 -1,1 -3,0 -1,-1 -1,-1 0,2 -1,1 -2,0 -1,1 -3,0 -1,1 -3,0 -1,1 -3,0 -1,1 -4,0 -1,1 -3,0 -1,1 -10,0 -1,-1 -1,-1 0,2 -1,1 -1,0 -1,1 -1,1 -2,0 -1,1 -3,0 -1,1 -4,0 -1,1 -3,0 -1,1 -4,0 -1,1 48,-2 -1,1 -1,0 2,-1 -48,2Z"/>
<path onmouseover="hoverPath(evt)" onmouseout="recoverPath(evt)" fill="rgb(252,252,250)" d="M  101,19l 0,0 -1,-1 -11,0 -1,-1 0,-4 1,-1 0,-1 1,-1 0,-2 1,-1 0,-1 1,-1 0,-2 1,-1 0,-2 -6,0 0,2 -1,1 0,1 -1,1 0,2 -1,1 -1,1 0,10 -1,1 0,6 1,-1 0,-4 1,-1 0,-1 1,-1 3,0 13,1Z"/>
<path onmouseover="hoverPath(evt)" onmouseout="recoverPath(evt)" fill="rgb(244,243,237)" d="M  0,244l 0,11 2,0 0,-2 1,-1 1,-1 1,-1 1,-1 1,-1 1,-1 1,-1 0,-1 1,-1 1,-1 0,-1 1,-1 0,-1 -1,1 -3,0 -1,1 -2,0 -1,1 -3,0 -1,1Z"/>
<path onmouseover="hoverPath(evt)" onmouseout="recoverPath(evt)" fill="rgb(242,240,230)" d="M  5,132l 0,2 -1,1 0,1 1,1 0,2 2,0 1,1 0,2 -1,1 0,2 1,1 0,0 1,-1 1,0 1,-1 1,-1 1,0 1,-1 1,0 1,-1 1,-1 1,-1 1,0 1,-1 1,-1 1,-1 1,-1 0,-1 1,-1 0,-2 1,-1 0,-2 1,-1 0,-2 -1,-1 0,-4 -1,-1 0,-4 -1,-1 0,-4 -1,-1 0,-17 1,-1 0,-3 1,-1 1,-1 0,-1 1,-1 1,-1 1,-1 1,-1 0,-2 1,-1 2,0 1,-1 3,-3 1,-1 1,0 0,-3 1,-1 -1,0 -1,-1 0,-1 -2,0 -1,-1 -1,-1 0,-1 -1,-1 0,-1 -1,0 -1,-1 0,-2 1,-1 -2,3 -2,0 -1,-1 -1,1 0,1 -1,1 -1,0 -2,2 -1,1 -2,0 -1,-1 0,-1 -1,1 -2,0 -1,1 -2,0 -1,1 -1,0 -1,1 -1,0 -1,1 -2,0 -1,1 -3,0 0,56 6,0 1,1 0,2 -1,1 -1,0 0,2 17,-63 2,0 1,1 0,1 1,1 0,1 1,1 0,2 -1,1 -2,0 -1,-1 0,-1 -1,-1 0,-1 -1,-1 0,-2 1,-1 -17,63 7,-11 -1,-1 0,-2 1,-1 2,0 1,1 0,2 -1,1 -2,0 -7,11Z"/>
<path onmouseover="hoverPath(evt)" onmouseout="recoverPath(evt)" fill="rgb(242,240,230)" d="M  51,89l 0,0 -1,1 -1,0 -1,1 -1,0 2,1 0,6 -1,1 -2,0 0,4 2,0 1,1 0,11 -1,1 -1,0 -1,1 1,0 1,1 0,0 1,1 0,3 1,1 0,1 1,1 0,2 1,1 0,1 1,1 0,3 1,1 0,2 -1,1 4,0 1,-1 4,0 1,-1 3,0 0,-2 1,-1 2,0 0,-3 -1,-1 0,-4 -1,-1 0,-1 -1,-1 0,-2 1,-1 2,0 1,-1 1,0 1,-1 1,-1 2,0 1,-1 1,-1 1,0 1,-1 0,-2 -5,0 -1,-1 0,-2 1,-1 1,0 1,-1 1,-1 0,-3 1,-1 0,-3 -1,-1 0,-1 -1,-1 0,-4 1,-1 2,0 -1,-1 0,-2 -1,-1 0,-2 -1,-1 0,-3 -1,-1 0,-4 -1,-1 0,-8 -1,-1 0,-11 -1,-1 -1,0 0,2 1,1 0,8 -1,1 0,9 -1,1 0,8 -1,1 -8,0 -1,1 -2,0 -1,-1 -2,0 -1,-1 -1,1 0,2 -1,1 -1,0Z"/>
<path onmouseover="hoverPath(evt)" onmouseout="recoverPath(evt)" fill="rgb(243,241,231)" d="M  0,21l 0,28 2,0 1,1 0,-1 1,-1 3,0 1,-1 1,0 1,-1 3,0 1,-1 2,0 1,-1 2,0 1,-1 2,0 1,-1 4,0 1,1 1,0 1,-1 1,0 1,-1 1,0 1,-1 2,0 1,-1 1,0 1,-1 3,0 1,1 1,0 1,-1 2,0 1,-1 2,0 1,-1 2,0 1,-1 2,0 1,-1 2,0 1,-1 3,0 1,-1 3,0 1,-1 3,0 0,-7 -1,-1 0,-18 -1,-1 0,-4 -3,0 0,3 -1,1 -3,0 -1,-1 -2,0 -1,1 -3,0 -1,1 -2,0 -1,1 -3,0 -1,1 -3,0 -1,1 -2,0 -1,1 -3,0 -1,1 -2,0 0,1 -1,1 -1,1 -3,0 -1,-1 -2,0 -1,1 -2,0 -1,1 -3,0 -1,1 -3,0 0,2 -1,1 -3,0 -1,-1 -2,0 -1,1 -3,0 -1,1 -3,0Z"/>
<path onmouseover="hoverPath(evt)" onmouseout="recoverPath(evt)" fill="rgb(244,235,149)" d="M  0,237l 0,4 3,0 1,-1 2,0 1,-1 3,0 1,-1 2,0 1,1 0,3 -1,1 0,1 -1,1 -1,1 0,1 -1,1 -1,1 -1,1 -1,1 -1,1 -1,1 -1,1 0,1 5,0 0,-2 1,-1 1,-1 1,-1 0,-1 1,-1 2,-2 1,-1 1,-1 0,-1 1,-1 0,-2 1,-1 0,-2 1,-1 1,0 1,-1 3,0 1,-1 3,0 1,-1 3,0 1,-1 3,0 1,-1 2,0 1,-1 2,0 1,-1 4,0 1,-1 2,0 1,-1 2,0 1,-1 2,0 1,-1 3,0 1,-1 0,-1 1,-1 4,0 1,1 0,-1 1,-1 2,0 1,1 1,-1 0,-1 1,-1 3,0 1,1 4,0 1,1 0,2 -1,1 2,0 1,-1 2,0 -3,-1 0,-2 1,-1 1,-1 1,0 1,-1 2,0 1,-1 3,0 1,1 0,2 1,1 1,0 1,1 1,0 0,-3 1,-1 0,-2 1,-1 1,0 1,-1 3,0 1,-1 3,0 1,-1 2,0 1,-1 3,0 1,-1 3,0 1,-1 3,0 1,-1 3,0 1,1 0,1 1,1 0,2 1,1 0,2 1,1 0,1 1,1 0,2 1,1 0,2 1,1 0,2 1,1 0,3 1,1 0,1 1,0 1,1 0,4 1,1 0,2 1,1 0,1 1,1 0,2 1,1 0,1 1,1 0,2 1,1 0,4 10,0 0,-1 -1,-1 0,-2 -1,-1 0,-2 -1,-1 0,-2 -1,-1 0,-1 -1,-1 0,-4 1,-1 1,0 1,-1 0,-1 -1,-1 0,-1 -1,-1 0,-1 -2,0 -1,-1 0,-2 1,-1 1,0 1,-1 2,0 1,-1 1,0 1,-1 2,0 1,-1 -1,0 -3,1 -2,0 -1,1 -1,0 -1,1 -4,0 -1,-1 -1,-1 0,-1 -1,-1 0,-1 -1,-1 0,-2 -1,-1 0,-2 -1,-1 0,-1 -1,-1 0,-2 -1,-1 0,-2 1,-1 2,0 1,-1 -1,-1 0,-2 -1,1 -4,0 -1,-1 0,-4 -1,-1 0,-1 -1,-1 0,-1 -1,-1 0,-2 -1,-1 0,-2 -1,-1 0,-2 -1,-1 0,-1 -1,-1 0,-3 -1,-1 0,-1 -1,-1 0,-1 -1,-1 0,-1 -1,-1 0,-1 -1,-1 0,-2 -1,-1 0,-1 -1,-1 0,-1 -1,-1 0,-2 -1,-1 0,-1 -1,-1 0,-1 -1,-1 0,-1 -1,-1 0,-2 -1,-1 0,-1 -1,-1 0,-1 -1,-1 0,-1 -1,-1 0,-2 -1,-1 0,-1 -1,-1 0,-2 -1,-1 0,-1 -1,-1 0,-1 -1,-1 0,-1 -1,-1 0,-1 -1,-1 0,-1 -1,-1 0,-2 -1,-1 0,-1 -1,-1 0,-4 -1,0 -1,-1 -1,-1 0,-4 -1,-1 -1,-1 0,-1 -1,-1 0,-2 -1,-1 0,-1 -1,-1 0,-2 -1,-1 0,-1 -1,-1 0,-2 -1,-1 0,-2 -1,-1 0,-1 -1,-1 0,-2 -1,-1 0,-2 -1,-1 0,-2 -1,-1 0,-2 -1,-1 0,-4 -1,-1 0,-5 -1,-1 0,-11 -1,-1 0,-3 -1,-1 0,-4 1,-1 0,-4 1,-1 1,-1 -2,1 -2,0 -1,1 -2,0 -1,1 0,1 -1,1 -2,0 -1,-1 -2,0 0,2 -1,1 -3,0 -1,1 -3,0 -1,-1 -1,0 0,2 6,0 1,1 5,0 1,1 1,1 0,11 1,1 0,8 1,1 0,4 1,1 0,3 1,1 0,2 1,1 0,2 1,1 0,2 -1,1 -2,0 0,2 1,1 0,1 4,0 1,1 0,1 1,1 0,2 1,1 0,1 1,1 0,2 1,1 0,1 1,1 0,2 1,1 0,1 1,1 0,2 1,1 0,1 1,1 0,1 1,1 0,2 1,1 0,1 1,1 0,2 -1,1 -1,0 -1,1 -2,0 0,1 1,1 5,0 1,1 1,1 0,1 1,1 0,1 1,1 0,2 -1,1 -5,0 2,1 1,0 1,1 0,1 1,1 0,2 1,1 0,1 1,1 0,1 1,1 0,1 1,1 0,2 1,1 0,1 1,1 0,1 1,1 0,2 1,1 0,1 1,1 0,1 1,1 0,1 1,1 0,2 1,1 0,5 1,-3 0,-2 1,-1 3,0 1,1 0,1 1,1 0,2 -1,1 0,4 1,0 1,1 0,1 2,0 1,1 0,8 -1,1 1,0 1,1 1,0 1,1 0,6 -1,1 -3,0 -1,1 -2,0 -1,1 -3,0 -1,1 -3,0 -1,1 -3,0 -1,1 -2,0 -1,1 -3,0 -1,1 -3,0 -1,1 -2,0 -1,1 -3,0 -1,1 -2,0 -1,1 -3,0 -1,1 -3,0 -1,-1 -1,-1 0,2 -1,1 -1,0 -1,1 -3,0 -1,-1 -1,0 -1,1 0,1 -1,1 -3,0 -1,1 -3,0 -1,1 -2,0 -1,1 -3,0 -1,1 -3,0 -1,1 -2,0 -1,1 -3,0 -1,1 -2,0 0,1 -1,1 -2,0 -1,1 -3,0 -1,-1 0,-2 -1,3 -2,0 -1,1 -3,0 -1,1 -4,0 0,1 -1,1 -1,1 -1,0 -1,1 -3,0 -1,-1 -3,0 -1,1 -3,0 -1,1 -2,0Z"/>
<path onmouseover="hoverPath(evt)" onmouseout="recoverPath(evt)" fill="rgb(242,240,231)" d="M  49,197l 0,2 1,1 0,2 1,1 0,3 -1,1 0,1 6,0 1,-1 1,0 1,-1 1,0 0,-4 1,-1 3,0 1,1 0,2 -1,1 1,1 0,1 1,1 0,2 1,1 0,1 1,1 2,0 1,1 1,0 1,-1 1,0 0,-3 1,-1 2,0 1,1 0,1 1,1 1,0 1,-1 3,0 1,-1 2,0 1,-1 3,0 1,-1 2,0 1,-1 3,0 1,-1 3,0 1,-1 2,0 1,-1 3,0 1,-1 3,0 1,-1 3,0 1,-1 2,0 1,-1 3,0 0,-4 -1,0 -1,-1 -1,0 -1,-1 0,-2 1,-1 0,-6 -2,0 -1,-1 0,-1 -1,0 -1,-1 0,-6 1,-1 -1,-1 0,-1 -1,0 0,2 -1,1 0,2 -1,1 -1,0 -1,1 -3,0 -1,-1 -1,0 -1,1 -2,0 -1,1 -1,0 -1,1 -2,0 0,2 -1,1 -3,0 -1,-1 -2,0 -1,1 -2,0 -1,1 -2,0 -1,1 -2,0 -1,1 -1,0 -1,1 -2,0 -1,1 -2,0 -1,1 -5,0 -1,-1 -5,0 -1,1 -3,0 -1,-1 0,2 -1,1 -2,0 -1,1 -1,0 -1,1 -1,0 -1,1Z"/>
<path onmouseover="hoverPath(evt)" onmouseout="recoverPath(evt)" fill="rgb(172,197,234)" d="M  51,53l -1,0 0,2 -1,1 -1,1 0,1 -1,1 0,1 -1,1 -1,1 0,1 -1,1 0,1 -1,1 -1,1 0,1 -1,1 0,1 -1,1 0,3 -1,1 -1,0 -2,2 -1,1 -1,1 -1,1 -2,0 0,2 -1,1 -1,1 -1,1 -1,1 0,1 -1,1 -1,1 0,3 -1,1 0,15 1,1 0,4 1,1 0,4 1,1 0,4 1,1 0,4 -1,1 0,2 -1,1 0,2 -1,1 0,1 -1,1 -1,1 -1,1 -1,1 -1,1 -1,0 -1,1 -1,1 -1,1 -1,0 -1,1 -1,0 -1,1 -1,1 -1,0 -1,1 0,1 1,1 2,0 1,-1 1,0 1,-1 1,0 1,-1 1,-1 1,0 1,-1 1,-1 1,0 1,-1 1,0 1,-1 2,-2 1,-1 1,-1 0,-1 1,-1 1,-1 0,-2 1,-1 0,-1 1,-1 0,-3 1,-1 -1,-1 0,-2 -1,-1 0,-3 -1,-1 0,-2 -1,-1 0,-3 -1,-1 0,-21 1,-1 0,-1 2,-2 1,-1 1,-1 0,-1 1,-1 1,-1 1,-1 1,0 0,-2 1,-1 1,-1 1,-1 0,-1 1,-1 1,-1 1,-1 0,-1 1,-1 1,-1 0,-1 1,-1 0,-1 1,-1 1,-1 0,-1 1,-1 0,-1 1,-1 1,-1 0,-1 1,-1 1,-1 0,-1 2,-2 2,0 1,-1 0,-1 -2,0 -1,-1 -1,0 -1,1 -2,0 0,2 -1,1Z"/>
<path onmouseover="hoverPath(evt)" onmouseout="recoverPath(evt)" fill="rgb(245,243,236)" d="M  69,53l 0,-1 -2,0 -1,-1 -5,0 0,1 -1,1 -1,1 0,3 2,0 1,1 1,1 0,2 4,0 1,1 1,1 0,2 -1,1 -1,1 -6,0 0,2 -1,1 0,6 -1,1 1,1 0,2 1,1 7,0 0,-8 1,-1 0,-19 1,9 0,-6 -1,-1 0,-1 1,8 -1,-9Z"/>
<path onmouseover="hoverPath(evt)" onmouseout="recoverPath(evt)" fill="rgb(243,242,233)" d="M  143,213l 0,0 1,1 0,2 1,1 0,2 1,1 0,1 1,1 0,1 1,1 2,0 1,-1 1,0 1,-1 4,0 1,-1 2,0 1,-1 2,0 1,-1 2,0 1,1 1,0 1,-1 2,0 1,-1 1,0 1,-1 2,0 1,-1 1,0 1,-1 1,0 1,-1 1,0 0,-2 1,-1 2,0 1,1 1,0 1,-1 2,0 1,-1 1,0 1,-1 2,0 1,-1 1,0 0,-2 1,-1 3,0 1,1 1,0 1,-1 2,0 1,-1 1,0 0,-2 1,-1 2,0 1,1 1,0 0,-2 1,-1 2,0 1,1 0,-2 1,-1 3,0 1,1 1,0 1,-1 0,-1 1,-1 0,-2 -1,-1 0,-1 -1,-1 0,-1 -1,-1 0,-1 -1,-1 0,-1 -1,-1 0,-1 -1,-1 0,-1 -1,-1 0,-1 -1,-1 0,-1 -1,-1 0,-1 -1,-1 0,-1 -1,-1 0,-1 -1,-1 0,-1 -1,-1 0,-1 -1,-1 0,-1 -1,-1 0,-1 -1,-1 0,-4 -1,-1 0,-1 -1,-1 0,-1 -1,-1 0,-1 -1,-1 0,-1 -1,-1 0,-1 -1,-1 0,-1 -1,-1 0,-3 -1,-1 0,-2 -1,-1 0,-3 -1,-1 0,-3 -1,-1 0,-2 -1,-1 0,-3 -1,-1 0,-3 -1,-1 0,-3 -1,-1 0,-2 -1,-1 0,-3 -1,-1 0,-3 -1,-1 0,-2 -1,-1 0,-2 -1,-1 0,-2 -1,-1 0,-2 -1,-1 0,-5 -1,-1 0,-7 -1,-1 0,-7 -1,-1 0,-8 -1,-1 0,-6 -1,-1 0,-10 -1,-1 0,-10 -1,-1 0,-1 -1,0 -1,-1 -1,1 -8,0 -1,-1 -2,0 -1,-1 0,5 1,1 0,3 1,1 0,3 1,1 0,3 1,1 0,3 1,1 0,3 1,1 0,3 1,1 0,3 1,1 0,3 1,1 0,3 1,1 0,3 1,1 0,3 1,1 0,2 1,1 0,2 1,1 0,3 1,1 0,2 1,1 0,2 1,1 0,2 1,1 0,2 1,1 0,1 1,1 0,2 1,1 0,3 1,1 0,2 1,1 0,3 1,1 0,2 1,1 0,3 1,1 0,2 1,1 0,3 1,1 0,2 1,1 0,3 1,1 0,6 1,1 0,8 -1,1 0,1 -1,1 -1,1 -1,1 -1,0 -1,1 -1,0 -1,1 -1,0 -1,1 -1,0 -1,1 -1,0 -1,1 -1,0 -1,1 -1,0 -1,1 -1,0 -1,1 -1,0 -1,1 -1,1 -1,0 -1,1 -2,0 -1,1 -1,0 -1,1 -2,0 -1,1 -1,0 -1,1 -4,0 -1,-1 -1,1 -3,0 -1,-1 -1,1 -2,0 -1,-1 -1,0 -1,-1 -2,0 -1,1 -3,0 -1,1 -1,0 -1,1 0,3 -1,1 -1,1 -3,0 0,2 1,1 0,1 1,1 0,2 1,1 0,2 1,1 0,2 1,1 0,1 1,1 0,1 1,1 0,4 2,0 1,-1 2,0 1,1 0,2 1,1 0,2 -1,1 -1,1 -2,0 1,1 0,2 1,1Z"/>
<path onmouseover="hoverPath(evt)" onmouseout="recoverPath(evt)" fill="rgb(243,241,232)" d="M  0,230l 0,3 1,0 1,-1 3,0 1,-1 4,0 1,-1 0,-3 -1,-1 0,-3 -1,-1 0,-2 -1,-1 0,-2 -1,-1 0,-2 -1,-1 0,-1 -2,-2 -1,-1 -1,-1 -1,-1 -1,0Z"/>
<path onmouseover="hoverPath(evt)" onmouseout="recoverPath(evt)" fill="rgb(242,241,232)" d="M  15,166l 0,2 2,0 1,1 0,2 -1,1 0,1 1,1 0,2 1,1 0,2 2,0 1,1 0,2 -1,1 0,2 1,1 0,2 1,1 0,2 2,0 1,1 0,2 -1,1 0,1 1,1 0,2 1,1 6,0 1,1 0,2 -1,1 -1,0 -1,1 -2,0 0,3 1,1 0,2 2,0 1,1 0,2 -1,1 0,1 1,1 0,2 1,1 0,1 1,1 0,3 1,0 0,-1 1,-1 2,0 1,-1 3,0 1,-1 2,0 1,-1 3,0 1,-1 3,0 1,-1 2,0 1,-1 3,0 1,-1 3,0 0,-1 1,-1 -1,-1 0,-1 -1,-1 0,-2 -1,-1 0,-1 -1,-1 0,-2 1,-1 -1,0 0,4 -1,1 -1,0 -1,1 -1,0 -1,1 -8,0 -1,-1 0,-3 1,-1 0,-1 -1,-1 0,-2 -1,-1 0,-5 1,-1 1,-1 1,0 0,-2 1,-1 2,0 1,1 1,0 0,-2 1,-1 2,0 1,1 1,0 1,-1 5,0 0,-2 -1,-1 0,-1 -1,-1 0,-2 -1,-1 0,-1 -1,-1 0,-2 -1,-1 0,-1 -1,-1 0,-3 -1,-1 0,-1 -1,-1 0,-2 -1,-1 0,-6 3,-3 0,-2 1,-1 2,0 1,1 1,0 1,-1 2,0 1,-1 0,-2 1,-1 3,0 1,1 1,0 1,-1 2,0 1,-1 1,0 1,-1 1,0 1,-1 1,0 0,-2 1,-1 2,0 1,1 1,0 1,-1 1,0 0,-2 1,-1 1,0 1,-1 5,0 -1,-1 0,-1 -1,-1 0,-1 -1,-1 -5,0 -1,-1 -1,-1 0,-3 1,-1 2,0 1,-1 1,0 -1,-1 0,-1 -1,-1 0,-2 -1,-1 0,-1 -1,-1 0,-1 -1,-1 0,-2 -1,-1 0,-1 -1,-1 0,-2 -1,-1 0,-1 -1,-1 0,-2 -1,-1 0,-1 -1,-1 0,-2 -1,-1 0,-1 -2,0 0,3 1,1 0,3 1,1 0,1 1,1 0,4 1,1 0,2 1,1 0,3 1,1 0,3 -1,1 -1,1 -2,0 -1,1 -2,0 0,1 1,1 0,1 1,1 0,1 1,1 0,2 -1,1 -3,0 -1,1 -1,0 0,1 1,1 0,4 -1,1 -2,0 -1,-1 0,-1 -1,-1 0,-2 -1,-1 -3,0 -1,1 -3,0 -1,1 -4,0 -1,1 -6,0 -1,-1 0,-2 1,-1 -1,-1 0,-3 -1,-1 0,-1 -1,-1 0,-2 -1,-1 0,-1 -1,-1 0,-3 -1,-1 -7,0 -1,-1 0,-2 1,-1 6,0 1,-1 1,0 0,-9 -2,0 -1,-1 0,-6 1,-1 2,0 0,-4 -1,0 -1,-1 0,-2 1,-1 1,0 1,-1 1,0 0,-3 1,-1 1,0 0,-2 1,-1 1,-1 2,0 1,1 1,0 1,-1 0,-1 -1,-1 0,-2 1,-1 0,-5 -1,-1 0,-2 1,-1 1,0 1,-1 6,0 1,-1 -1,-1 -4,0 -1,-1 0,-2 -1,-1 -2,0 -1,-1 0,-4 -1,1 0,1 -1,1 -1,1 0,1 -1,1 -1,1 0,1 -1,1 0,1 -1,1 -1,1 0,1 -1,1 0,1 -1,1 -1,1 0,1 -1,1 -1,1 -1,1 0,1 -1,1 -1,1 -1,1 0,2 -1,1 -1,0 -1,1 -1,1 0,1 -3,3 -1,1 0,1 -1,1 0,19 1,1 0,3 1,1 0,2 1,1 0,3 1,1 0,2 1,1 0,2 -1,1 0,3 -1,1 0,1 -1,1 0,2 -1,1 -1,1 0,1 -1,1 -1,1 -1,1 -1,1 -1,1 -1,1 -1,0 -1,1 -1,0 -1,1 -1,1 -1,0 -1,1 -1,1 -1,0 -1,1 -1,0 -1,1 -3,0 0,1 1,1 0,2 1,1 0,1 1,1 6,0 1,-1 2,0 1,-1 1,0 1,-1 2,0 1,-1 2,0 1,1 0,1 1,1 8,0 0,-1 -1,-1 0,-3 1,-1 2,0 1,1 0,1 1,1 0,2 1,1 1,1 0,1 1,1 0,2 1,1 0,1 1,1 0,1 1,1 0,2 -1,1 -2,0 -1,-1 0,-1 -1,-1 0,-1 -1,-1 -1,-1 0,-1 -1,-1 -1,-1 -5,0 -1,1 -9,0 -1,1 -11,0 1,1Z"/>
<path onmouseover="hoverPath(evt)" onmouseout="recoverPath(evt)" fill="rgb(244,243,235)" d="M  22,238l -1,0 0,2 -1,1 0,2 -1,1 0,1 -1,1 -1,1 -1,1 -1,1 -1,1 0,1 -1,1 -1,1 -1,1 0,1 50,0 0,-3 1,-1 3,0 1,1 2,0 1,-1 2,0 1,-1 -1,0 -1,-1 -1,0 -1,-1 -1,-1 0,-2 -1,-1 0,-2 1,-1 -1,-1 0,-2 -1,-1 0,-1 -2,0 -1,-1 0,-1 -1,-1 0,-3 1,-1 0,-1 -1,-1 -2,0 -1,1 -2,0 -1,1 -2,0 -1,1 -2,0 -1,1 -4,0 -1,1 -2,0 -1,1 -2,0 -1,1 -3,0 -1,1 -3,0 -1,1 -3,0 -1,1 -3,0 -1,1Z"/>
<path onmouseover="hoverPath(evt)" onmouseout="recoverPath(evt)" fill="rgb(243,242,233)" d="M  61,157l -1,1 -1,1 0,4 1,1 0,2 1,1 0,1 1,1 0,3 1,1 0,1 1,1 0,2 1,1 0,1 1,1 0,2 1,1 0,1 1,1 0,3 1,1 3,0 1,-1 2,0 1,-1 2,0 1,-1 1,0 1,-1 2,0 1,-1 2,0 1,-1 2,0 1,-1 4,0 1,1 1,0 0,-2 1,-1 2,0 1,-1 1,0 1,-1 2,0 1,-1 3,0 1,1 1,0 0,-5 -1,-1 0,-2 -1,-1 0,-1 -1,-1 0,-1 -1,-1 0,-1 -1,-1 0,-2 -1,-1 0,-1 -1,-1 0,-1 -1,-1 0,-2 -1,-1 0,-1 -1,-1 0,-1 -1,-1 0,-1 -1,-1 0,-2 -1,-1 0,-1 -1,0 -1,-1 -1,1 -1,0 -1,1 -1,0 -1,1 -2,0 -1,1 -1,0 -1,1 -1,0 -1,1 -1,0 -1,1 -1,0 -1,1 -2,0 -1,1 -3,0 -1,-1 -1,0 0,2 -1,1 -1,1 -2,0 -1,1 -2,0 -1,1 -1,0 -1,1Z"/>
<path onmouseover="hoverPath(evt)" onmouseout="recoverPath(evt)" fill="rgb(243,242,234)" d="M  83,255l 61,0 0,-3 -1,-1 0,-2 -1,-1 0,-1 -1,-1 0,-2 -1,-1 0,-1 -1,-1 0,-2 -1,-1 0,-4 -2,0 -1,1 -2,0 -1,1 -3,0 0,2 -1,1 -3,0 -1,-1 -2,0 -1,1 -2,0 -1,1 -3,0 0,2 -1,1 -3,0 -1,-1 -3,0 -1,-1 0,-4 -1,-1 0,3 -1,1 -2,0 -1,1 -3,0 -1,1 -2,0 -1,1 -3,0 -1,1 -3,0 -1,1 -3,0 0,2 -1,1 -4,0 -1,-1 -6,0 -1,-1 -1,-1 0,1 1,1 2,1 3,0 1,1 0,2 -1,1 -2,0 -1,1 -2,0 -1,1 -4,0 -1,-1 -1,0 0,2Z"/>
<path onmouseover="hoverPath(evt)" onmouseout="recoverPath(evt)" fill="rgb(171,198,237)" d="M  183,30l -1,0 0,1 1,1 0,10 1,1 0,10 1,1 0,6 1,1 0,8 1,1 0,7 1,1 0,7 1,1 0,5 1,1 0,2 1,1 0,2 1,1 0,2 1,1 0,2 1,1 0,3 1,1 0,3 1,1 0,2 1,1 0,3 1,1 0,3 1,1 0,3 1,1 0,2 1,1 0,3 1,1 0,3 1,1 0,2 1,1 0,3 1,1 0,1 1,1 0,1 1,1 0,1 1,1 0,1 1,1 0,1 1,1 0,1 1,1 0,4 1,1 0,1 1,1 0,1 1,1 0,1 1,1 0,1 1,1 0,1 1,1 0,1 1,1 0,1 1,1 0,1 1,1 0,1 1,1 0,1 1,1 0,1 1,1 0,1 1,1 0,1 1,1 0,1 1,1 0,1 1,1 0,1 1,0 1,1 1,1 0,2 1,1 1,1 0,1 1,1 0,1 1,1 1,1 0,1 1,1 0,1 1,1 0,1 1,1 0,1 1,1 0,1 1,1 1,1 0,1 1,1 0,1 1,1 1,1 0,1 1,1 1,1 0,1 1,1 1,1 0,1 1,1 1,1 0,1 1,1 1,1 0,1 1,1 1,1 1,1 0,-209 -15,0 -1,-1 0,1 -1,1 -21,0 -1,-1 0,1 -1,1 -19,0 -1,-1 0,1 -1,1Z"/>
<path onmouseover="hoverPath(evt)" onmouseout="recoverPath(evt)" fill="rgb(239,239,231)" d="M  29,223l -1,-1 0,-2 -1,-1 0,-2 -1,-1 0,-2 -1,-1 0,-2 -2,0 -1,-1 0,-2 1,-1 0,-1 -2,0 -1,-1 0,-3 1,-1 0,-1 -1,-1 0,-2 -1,-1 0,-2 -4,0 -1,1 -3,0 -1,-1 0,-2 1,-1 1,0 1,-1 3,0 0,-2 -1,-1 0,-2 -1,-1 0,-2 -1,-1 0,-1 -1,-1 0,-2 -1,-1 0,-2 -1,-1 -5,0 -1,-1 0,-2 1,-1 2,0 1,-1 1,0 0,-2 -1,-1 0,-2 -1,-1 0,-2 -1,-1 0,-2 -1,-1 0,-1 -1,-1 0,-2 -1,-1 0,-3 -1,-1 0,-2 -1,-1 0,-2 -1,0 0,55 3,0 1,1 1,1 1,0 1,1 1,1 2,2 0,1 1,1 1,1 0,2 1,1 0,3 1,1 0,2 1,1 0,2 1,1 0,2 1,1 0,3 1,1 0,2 3,0 1,-1 3,0 1,-1 2,0 0,-2 1,-1Z"/>
<path onmouseover="hoverPath(evt)" onmouseout="recoverPath(evt)" fill="rgb(252,252,250)" d="M  42,159l 0,0 -1,1 1,0 1,1 1,1 1,1 0,1 1,1 -1,-3 -1,-1 0,-1 -1,-1 -1,0 -7,1 -4,0 -1,-1 -1,-1 -3,0 -1,1 -1,0 -1,1 -2,0 -1,1 -8,0 -1,-1 -1,-1 0,-1 -1,-1 0,-2 -1,-1 0,-3 -1,-1 0,-2 -1,-1 -1,-1 0,-4 1,-1 -2,0 -1,-1 0,-2 -1,-1 0,-3 1,-1 0,-4 1,-1 -4,0 0,12 2,0 1,1 0,2 1,1 0,2 1,1 0,3 1,1 0,2 1,1 0,1 1,1 0,2 1,1 0,2 1,1 0,2 1,1 0,4 -1,1 -1,0 -1,1 3,0 1,1 1,1 0,2 1,1 0,2 1,1 0,1 1,1 0,2 1,1 0,2 1,1 0,4 -1,1 -3,0 -1,1 -1,0 6,-1 2,0 1,1 0,2 1,1 0,2 1,1 0,3 -1,1 0,1 2,0 1,1 0,3 -1,1 2,0 1,1 0,2 1,1 0,2 1,1 0,2 1,1 0,2 1,1 0,1 1,1 0,2 1,0 0,-3 -1,-1 0,-1 -1,-1 0,-2 -1,-1 0,-3 1,-1 -2,0 -1,-1 0,-2 -1,-1 0,-5 1,-1 2,0 1,-1 -5,0 -1,-1 -1,-1 0,-2 -1,-1 0,-3 1,-1 -2,0 -1,-1 0,-2 -1,-1 0,-2 -1,-1 0,-4 1,-1 -2,0 -1,-1 0,-2 -1,-1 0,-2 -1,-1 0,-3 1,-1 -2,0 -1,-1 0,-3 -1,-1 0,-2 1,-1 11,0 1,-1 9,0 1,-1 7,-1Z"/>
<path onmouseover="hoverPath(evt)" onmouseout="recoverPath(evt)" fill="rgb(243,242,234)" d="M  105,119l 0,2 1,1 0,1 1,1 0,2 1,1 0,1 1,1 0,1 1,1 0,1 1,1 0,1 1,1 0,1 1,1 0,2 1,1 0,1 1,1 0,2 1,1 0,1 1,1 0,1 1,1 0,1 1,1 0,2 1,1 0,1 1,1 0,1 1,1 0,1 1,1 0,2 1,1 0,1 1,1 0,1 1,1 0,2 1,1 0,1 1,1 0,1 1,1 0,1 1,1 0,1 3,0 1,-1 0,-3 1,-1 1,-1 1,0 1,-1 3,0 1,-1 4,0 1,1 1,0 1,1 1,-1 2,0 1,1 1,0 1,-1 1,0 1,-1 0,-1 -1,-1 0,0 -1,-1 0,-6 1,-1 -1,-1 -1,-1 -1,-1 0,-1 -1,-1 -2,0 -1,-1 0,-1 -1,-1 0,-4 1,-1 0,-1 -1,-1 0,-1 -2,0 -1,-1 0,-2 1,-1 0,-2 -1,-1 0,0 -1,-1 0,-3 -1,-1 -1,-1 0,-2 -2,0 -1,-1 0,-1 -1,-1 0,-4 1,-1 2,0 0,-1 -1,-1 0,-2 2,-2 1,0 1,-1 2,0 1,-1 1,0 1,-1 1,0 0,-3 -4,0 -1,1 -4,0 -1,1 -3,0 -1,1 -4,0 -1,1 -3,0 -1,1 -3,0 -1,1 -5,0 -1,1 -3,0 -1,1 -4,0 -1,1 -3,0Z"/>
<path onmouseover="hoverPath(evt)" onmouseout="recoverPath(evt)" fill="rgb(241,240,229)" d="M  129,47l -5,0 -1,1 -1,0 0,1 -1,1 -6,0 0,1 5,0 2,-1 3,0 1,1 2,0 1,1 1,0 1,1 0,1 1,0 1,1 1,0 1,1 2,0 0,-2 1,-1 1,-1 1,0 1,-1 2,0 1,1 0,1 1,1 1,-1 0,0 1,-1 2,0 1,1 2,0 1,1 0,1 1,1 0,2 1,1 0,2 1,1 0,3 1,1 0,3 2,0 1,1 0,4 -1,1 0,3 1,1 0,3 2,0 1,1 0,4 -1,1 0,4 1,1 0,2 2,0 1,1 0,1 1,1 1,0 1,-1 2,0 1,-1 2,0 0,-1 -1,-1 0,-2 -1,-1 0,-3 -1,-1 0,-2 -1,-1 0,-3 -1,-1 0,-3 -1,-1 0,-3 -1,-1 0,-3 -1,-1 0,-3 -1,-1 0,-2 -1,-1 0,-4 -1,-1 0,-3 -1,-1 0,-3 -1,-1 0,-3 -1,-1 0,-3 -1,-1 0,-3 -1,-1 0,-3 -1,1 -1,0 -1,1 -1,0 -1,1 -1,0 -1,1 -1,1 -1,0 -1,1 -1,0 -1,1 -1,0 -1,1 -1,0 -1,1 -1,0 -1,1 -1,0 -1,1 -2,0 -1,1 -2,0 -1,1 -2,0 -1,1Z"/>
<path onmouseover="hoverPath(evt)" onmouseout="recoverPath(evt)" fill="rgb(242,241,231)" d="M  144,118l 0,0 -1,1 0,2 -1,1 -2,0 0,2 1,1 0,1 2,0 1,1 0,2 1,1 1,1 0,3 1,1 1,1 0,3 1,1 0,1 1,1 0,1 1,1 0,3 -1,1 0,2 1,1 0,1 2,0 1,1 1,1 0,1 1,1 1,1 1,1 0,2 -1,1 0,4 1,1 4,0 1,-1 1,0 1,-1 1,0 1,-1 1,-1 1,0 1,-1 1,0 1,-1 1,0 1,-1 1,0 1,-1 1,0 1,-1 1,0 1,-1 1,0 1,-1 1,0 1,-1 1,-1 0,-4 1,-1 2,0 1,1 0,3 1,1 0,1 1,-1 1,-1 0,-1 -1,-1 0,-2 -1,-1 0,-2 -1,0 -1,-1 0,-3 -1,-1 0,-1 -1,-1 0,-4 -1,-1 0,-2 -1,-1 0,-2 -1,-1 0,-4 -1,-1 0,-2 -1,-1 0,-2 -1,-1 0,-3 -1,-1 0,-3 -1,-1 0,-2 -1,-1 0,-2 -1,-1 -1,-1 -1,1 -3,0 -1,1 -2,0 -1,1 -3,0 -1,1 -1,0 0,1 -1,1 -3,0 1,1 0,1 1,1 0,2 -1,1 -1,1 -2,0 -1,1 -3,0 -1,1 -4,0 -1,-1 -1,0 0,2 -1,1 36,5 0,2 -1,1 -2,0 -1,-1 0,-2 1,-1 2,0 1,1 -36,-5 32,-4 0,1 1,1 0,2 -1,1 -2,0 -1,-1 0,-1 -1,-1 0,-2 1,-1 2,0 1,1 -32,4Z"/>
</svg>