<svg width="256" height="256" xmlns="http://www.w3.org/2000/svg"><script> 
var tempColor;
function hoverPath(evt){
obj = evt.target;
tempColor = obj.getAttribute("fill");
obj.setAttribute("fill","red");
//alert(tempColor);
//obj.setAttribute("stroke","red");}
function recoverPath(evt){
obj = evt.target;
obj.setAttribute("fill", tempColor);
//obj.setAttribute("stroke", tempColor);
}</script><path onmouseover="hoverPath(evt)" onmouseout="recoverPath(evt)" fill="rgb(242,240,230)" d="M  3,160l 0,1 -1,1 -2,0 0,53 9,0 0,-4 1,-1 0,-1 -1,-1 0,-5 -1,-1 0,-1 -1,-1 0,-2 1,-1 2,0 1,1 0,1 1,1 0,1 1,1 0,1 1,1 0,11 16,0 1,-1 1,0 0,-30 -5,0 0,1 -1,1 -1,0 -3,3 -1,1 -1,1 -2,0 -1,-1 0,-2 1,-1 1,-1 1,-1 0,-1 1,-1 1,-1 1,-1 1,0 1,-1 2,0 1,-1 2,0 1,-1 1,0 0,-19 -1,-1 -28,0Z"/>
<path onmouseover="hoverPath(evt)" onmouseout="recoverPath(evt)" fill="rgb(243,241,233)" d="M  39,16l 0,37 3,0 1,-1 4,0 1,-1 3,0 1,-1 4,0 1,-1 4,0 1,-1 4,0 1,-1 3,0 1,-1 4,0 1,-1 1,0 0,-1 1,-1 3,0 0,-7 -1,-1 0,-8 -2,0 -1,-1 0,-2 -1,0 -1,1 -2,0 -1,-1 0,-2 1,-1 1,0 1,-1 1,0 1,-1 1,-1 1,-1 0,-1 1,-1 2,0 1,-1 0,-1 1,-1 -1,-1 0,-2 1,-1 2,0 1,-1 0,-1 1,-1 -1,-1 0,-4 -47,0 0,2 -1,1 -1,0 -1,1 0,5 1,1 6,0 1,1 0,5 1,1 0,5 -1,1 -2,0 -1,-1 0,-2 -1,-1 0,-4 -1,-1 -1,0Z"/>
<path onmouseover="hoverPath(evt)" onmouseout="recoverPath(evt)" fill="rgb(240,239,227)" d="M  38,158l 0,0 -1,1 0,17 1,1 0,9 -1,1 0,1 1,1 0,1 13,0 1,1 4,0 0,-1 2,-2 0,-2 1,-1 0,-2 1,-1 2,0 0,-2 1,-1 0,-2 1,-1 0,-3 1,-1 0,-2 -1,-1 0,-2 1,-1 3,0 1,-1 1,-1 1,0 1,-1 1,0 0,-2 1,-1 22,0 1,-1 0,-2 -58,0 -1,1Z"/>
<path onmouseover="hoverPath(evt)" onmouseout="recoverPath(evt)" fill="rgb(241,240,232)" d="M  32,113l 0,4 1,-2 3,0 1,1 0,9 1,1 0,1 18,0 1,-1 4,0 1,1 3,0 1,-1 1,0 0,-2 1,-1 2,0 1,-1 5,0 1,-1 2,0 1,1 11,0 1,-1 1,0 1,-1 0,-1 1,-1 0,-1 1,-1 0,-1 1,-1 1,-1 0,-1 1,-1 0,-1 1,-1 0,-1 1,-1 0,-2 1,-1 0,-5 -1,-1 0,-3 -1,-1 0,-1 -1,-1 0,-4 1,-1 0,-1 -1,-1 0,-1 -2,0 -1,-1 0,-1 -1,-1 0,-3 1,-1 0,-1 -1,1 -4,0 -1,1 -3,0 -1,-1 -2,0 0,2 -2,2 -2,0 -1,1 -3,0 -1,-1 -1,0 -1,1 -2,0 -1,1 -1,1 -2,0 -1,1 -2,0 -1,1 0,2 -1,1 -3,0 -1,-1 -2,0 -1,-1 -4,0 -1,-1 0,-2 -1,-1 0,-3 -2,0 -1,-1 -2,0 -1,-1 0,-5 -1,1 0,2 -1,1 0,2 1,0 1,1 0,6 -1,1 -3,0 0,4 -1,1 -2,0 -1,-1 0,-6 -1,0 0,1 -1,1 -1,0 0,3 -1,1 -4,0 0,1 1,1 0,1 1,0 1,1 0,4 -1,1 -7,0 1,1 0,0 1,1 0,1 1,1 0,3 -1,1 4,0 1,1 0,3 2,0 1,1Z"/>
<path onmouseover="hoverPath(evt)" onmouseout="recoverPath(evt)" fill="rgb(241,240,229)" d="M  135,160l 0,4 -1,1 0,4 -1,1 0,5 -1,1 0,4 -1,1 0,5 -1,1 0,4 -1,1 0,5 -1,1 0,5 -1,1 0,4 -1,1 0,5 -1,1 17,0 1,1 33,0 1,-1 0,-6 -1,-1 0,0 -1,-1 -1,-1 -1,-1 -1,0 -1,-1 -5,0 0,2 -1,1 -1,1 -1,0 -1,1 -1,1 -1,1 -4,0 -1,-1 -6,0 -1,-1 -2,0 -1,-1 0,-1 -1,-1 0,-12 1,-1 0,-6 -1,-1 0,-8 1,-1 0,-8 1,-1 2,0 0,-1 1,-1 1,-1 26,0 0,-2 1,-1 3,0 0,-4 -26,0 -1,-1 -18,0Z"/>
<path onmouseover="hoverPath(evt)" onmouseout="recoverPath(evt)" fill="rgb(242,241,231)" d="M  0,9l 0,21 6,0 1,-1 5,0 1,1 4,0 0,-2 1,-1 5,0 1,-1 3,0 1,-1 3,0 0,-1 1,-1 0,-19 -1,-1 -6,0 -1,1 -8,0 -1,1 -6,0 -1,1 -4,0 -1,1 -3,0Z"/>
<path onmouseover="hoverPath(evt)" onmouseout="recoverPath(evt)" fill="rgb(238,237,228)" d="M  45,73l 0,4 2,0 1,1 2,0 1,1 0,3 1,1 0,2 4,0 1,1 2,0 1,1 1,0 0,-2 1,-1 1,-1 2,0 1,-1 2,0 2,-2 2,0 1,-1 3,0 1,1 1,0 1,-1 2,0 1,-1 0,-2 1,-1 4,0 1,1 1,0 0,-2 1,-1 2,0 0,-3 -1,-1 0,-3 -1,-1 0,-2 -1,-1 0,-4 1,-1 1,0 1,-1 0,-5 -1,0 -1,1 0,1 -1,1 -7,0 -1,1 -4,0 -1,1 -3,0 -1,1 -4,0 -1,1 -4,0 -1,-1 -4,0 0,2 -1,1 -3,0 -1,1 -4,0 -1,1 -4,0 -1,1 -4,0 0,22 2,0 0,-4 -1,0 5,-8 0,-1 -1,-1 0,0 1,1 0,1 -2,-2 -1,0 -1,1 2,-1 2,2Z"/>
<path onmouseover="hoverPath(evt)" onmouseout="recoverPath(evt)" fill="rgb(243,242,233)" d="M  150,169l 0,0 -1,1 -2,0 0,8 -1,1 0,6 1,1 0,8 -1,1 0,10 1,1 0,1 2,0 1,1 6,0 1,1 2,0 2,-2 1,-1 1,0 1,-1 0,-2 1,-1 7,0 1,1 1,0 1,1 1,1 1,1 1,1 1,1 7,0 1,-1 5,0 1,-1 1,0 1,-1 1,0 1,-1 1,0 1,-1 1,-1 0,-1 1,-1 0,-1 1,-1 0,-3 1,-1 0,-15 -1,-1 0,-5 -1,-1 0,-1 -1,0 -1,-1 -1,0 -1,-1 0,-2 -2,0 -1,-1 -2,0 -1,-1 -1,1 -12,0 -1,1 -26,0 -1,1Z"/>
<path onmouseover="hoverPath(evt)" onmouseout="recoverPath(evt)" fill="rgb(198,213,228)" d="M  155,0l -2,0 0,2 -1,1 0,5 -1,1 0,5 -1,1 0,5 -1,1 0,4 -1,1 0,4 2,0 1,-1 3,0 1,-1 1,0 0,-1 1,-1 3,0 1,-1 2,0 1,-1 3,0 1,1 3,0 1,-1 2,0 0,-2 1,-1 -13,0 -1,-1 0,-1 -1,-1 0,-3 1,-1 0,-6 1,-1 0,-3 1,-1 0,-3Z"/>
<path onmouseover="hoverPath(evt)" onmouseout="recoverPath(evt)" fill="rgb(244,243,235)" d="M  251,0l -18,0 0,6 1,1 0,2 1,-1 3,0 1,-1 4,0 1,-1 3,0 1,-1 4,0 1,1 2,0 0,-6Z"/>
<path onmouseover="hoverPath(evt)" onmouseout="recoverPath(evt)" fill="rgb(244,243,236)" d="M  234,130l 0,12 -1,1 0,16 -1,1 0,11 -1,1 0,12 -1,1 0,13 -1,1 0,13 -1,1 0,15 -1,1 0,14 -1,1 0,11 29,0 0,-126 -5,0 -1,-1 -13,0 -1,-1 0,2 -1,1Z"/>
<path onmouseover="hoverPath(evt)" onmouseout="recoverPath(evt)" fill="rgb(242,241,231)" d="M  237,90l 0,3 -1,1 0,2 19,0 0,-10 -12,0 -1,1 -5,0Z"/>
<path onmouseover="hoverPath(evt)" onmouseout="recoverPath(evt)" fill="rgb(240,238,229)" d="M  15,132l 0,0 1,1 0,19 16,0 0,-33 -1,0 -1,-1 0,-4 -2,0 -1,-1 0,-3 -4,0 -1,-1 0,-2 1,-1 0,-1 -1,-1 0,-1 -1,-1 -1,-1 0,-2 1,-1 7,0 0,-2 -1,0 -1,-1 0,-1 -1,-1 0,-3 1,-1 4,0 0,-22 -4,0 -1,1 -3,0 -1,1 -3,0 -1,1 -2,0 0,17 -1,1 -2,0 -1,-1 0,-6 -1,-1 -1,-1 -9,0 0,73 11,0 0,-3 1,-1 0,-12 -1,-1 0,-3 1,-1 2,0 1,1Z"/>
<path onmouseover="hoverPath(evt)" onmouseout="recoverPath(evt)" fill="rgb(241,233,162)" d="M  60,51l -2,0 -1,1 -4,0 -1,1 -3,0 -1,1 -4,0 -1,1 -5,0 -1,-1 0,2 -1,1 -3,0 -1,-1 0,-26 -6,0 5,26 -2,0 -1,1 -3,0 -1,1 -4,0 -1,1 -4,0 -1,1 -4,0 -1,1 -2,0 -1,1 -3,0 -1,1 -2,0 0,14 10,0 1,1 1,1 1,1 0,-11 1,-1 2,0 1,-1 3,0 1,-1 3,0 1,-1 6,0 1,1 0,19 1,-2 3,0 1,1 0,-22 1,-1 4,0 1,-1 4,0 1,-1 4,0 1,-1 3,0 0,-2 1,-1 6,0 1,1 2,0 -1,-1 0,-5 -2,0 -1,1Z"/>
<path onmouseover="hoverPath(evt)" onmouseout="recoverPath(evt)" fill="rgb(242,241,232)" d="M  67,194l -1,0 -1,1 -1,1 0,1 1,1 0,0 1,1 1,0 1,1 0,2 1,1 0,2 -1,1 0,1 1,1 0,2 2,0 1,1 0,1 1,1 0,2 39,0 0,-2 1,-1 0,-4 1,-1 0,-5 1,-1 0,-3 -1,-1 -1,0 -1,-1 -2,0 -1,-1 -1,0 -1,-1 0,-2 -1,0 -1,-1 -2,0 -1,1 -3,0 -1,-1 0,-2 -1,0 -1,-1 -1,0 -1,-1 0,-2 -1,0 -1,-1 0,-2 -1,2 0,0 2,2 0,1 -1,1 -4,0 -1,-1 -2,0 -1,-1 -2,0 0,2 -1,1 -4,0 -1,-1 -2,0 -1,1 -2,0 0,2 -1,1 -1,0 -1,1 -1,1Z"/>
<path onmouseover="hoverPath(evt)" onmouseout="recoverPath(evt)" fill="rgb(243,242,234)" d="M  165,3l 0,1 -1,1 0,3 -1,1 0,6 -1,1 0,1 1,1 0,1 17,0 1,1 1,0 1,-1 6,0 1,-1 3,0 1,-1 3,0 1,-1 4,0 1,-1 4,0 1,-1 3,0 1,-1 4,0 1,-1 3,0 1,-1 0,-3 -1,-1 0,-7 -55,0Z"/>
<path onmouseover="hoverPath(evt)" onmouseout="recoverPath(evt)" fill="rgb(243,242,234)" d="M  237,43l 0,5 1,1 0,34 4,0 1,1 12,0 0,-68 -1,0 -1,1 -5,0 -1,-1 -1,1 -1,1 0,3 -1,1 -3,0 -1,-1 0,-1 -3,0 -1,1 -1,0 0,8 1,1 0,7 2,0 1,1 0,2 -1,1 -1,0Z"/>
<path onmouseover="hoverPath(evt)" onmouseout="recoverPath(evt)" fill="rgb(251,251,249)" d="M  28,28l 5,0 1,1 0,26 1,0 0,-41 1,-1 1,0 1,-1 3,0 1,1 0,0 1,1 0,4 1,1 0,-1 -1,-5 0,-1 -6,0 -1,-1 -1,-1 0,-7 1,-1 1,-1 1,0 0,-1 -38,0 0,5 2,0 1,-1 4,0 1,-1 6,0 1,-1 8,0 1,-1 8,0 1,1 1,1 0,21 -1,1 0,1 -1,1 -3,0 -1,1Z"/>
<path onmouseover="hoverPath(evt)" onmouseout="recoverPath(evt)" fill="rgb(247,237,141)" d="M  84,52l 4,0 0,-1 1,-1 1,-1 6,0 1,-1 3,0 1,-1 3,0 1,-1 4,0 1,-1 3,0 1,-1 3,0 1,-1 4,0 1,-1 3,0 1,-1 4,0 1,-1 4,0 1,-1 3,0 1,1 0,-2 1,-1 4,0 0,-1 1,-1 3,0 1,-1 3,0 1,-1 3,0 1,1 9,0 1,-1 3,0 1,-1 4,0 1,-1 4,0 1,-1 1,0 1,-1 2,0 1,1 7,0 1,-1 1,-1 1,-1 2,0 1,1 0,-2 1,-1 1,-1 2,0 1,1 2,0 1,-1 4,0 1,-1 4,0 1,-1 4,0 1,1 0,5 1,1 0,12 1,1 0,7 1,1 0,28 1,1 0,2 -1,1 0,8 -1,1 0,2 -1,1 1,1 0,7 1,1 0,10 -1,1 -1,0 0,3 1,1 0,10 -1,1 -1,0 0,3 1,1 0,10 -1,1 -1,0 0,4 -1,1 0,4 1,1 0,4 -1,1 0,2 1,1 0,10 -1,1 -1,0 0,4 1,1 0,10 -1,1 -1,0 0,4 1,1 0,9 -1,1 -1,0 0,8 -1,1 -1,0 0,3 1,1 0,4 -1,1 0,9 -1,1 0,1 1,1 0,3 -1,1 0,7 -1,1 0,9 9,0 0,-12 1,-1 0,-14 1,-1 0,-15 1,-1 0,-13 1,-1 0,-13 1,-1 0,-12 1,-1 0,-11 1,-1 0,-16 1,-1 0,-12 1,-1 0,-1 -1,-1 0,-3 1,-1 0,-9 1,-1 0,-10 1,-1 0,-3 -1,-1 0,-4 1,-1 0,-6 1,-1 0,-35 -1,-1 0,-9 1,-1 -1,0 -1,-1 0,-7 -1,-1 0,-10 1,-1 1,0 1,-1 5,0 1,1 0,1 1,0 0,-3 1,-1 1,-1 1,-1 2,0 1,1 3,0 1,-1 2,0 0,-6 -3,0 -1,-1 -2,0 -1,1 -3,0 -1,1 -4,0 -1,1 -3,0 -1,1 -2,0 -1,-1 0,-2 -1,-1 0,-7 -9,0 0,6 1,1 0,5 -1,1 -1,1 -3,0 -1,1 -4,0 -1,1 -3,0 -1,1 -4,0 -1,1 -4,0 -1,1 -3,0 -1,1 -3,0 -1,1 -6,0 -1,1 -2,0 -1,1 -4,0 0,2 -1,1 -2,0 -1,1 -5,0 -1,-1 -1,0 -1,1 -2,0 -1,1 -3,0 0,1 -1,1 -1,0 -1,1 -3,0 -1,1 -10,0 -1,1 -4,0 -1,1 -3,0 -1,1 -3,0 -1,1 -3,0 -1,1 -3,0 -1,1 -4,0 -1,1 -3,0 -1,1 -3,0 -1,1 -6,0 -1,1 -4,0 -1,1 -1,0 -1,1 -4,0 -1,1 -8,0 0,1 -1,1 -1,0 -1,1 -4,0 -1,1 -3,0 -1,1 0,4 1,1 3,0 1,-1 3,0 1,-1 4,0 1,-1 3,0 153,33 0,0 -153,-33Z"/>
<path onmouseover="hoverPath(evt)" onmouseout="recoverPath(evt)" fill="rgb(243,242,234)" d="M  94,52l 0,5 -1,1 -1,1 -1,0 0,2 1,1 0,2 1,1 0,3 1,1 0,5 -1,1 1,0 1,-1 2,0 1,1 0,3 -1,1 0,1 1,1 0,1 2,0 1,1 0,1 1,1 0,2 1,1 2,0 1,-1 4,0 1,1 3,0 1,-1 12,0 1,1 4,0 1,1 0,-4 1,-1 0,-4 1,-1 0,-6 1,-1 0,-4 1,-1 0,-5 1,-1 0,-5 1,-1 0,-5 1,-1 0,-5 -1,-1 0,-2 -1,0 -1,1 -4,0 -1,1 -4,0 -1,1 -3,0 -1,1 -4,0 -1,1 -3,0 -1,1 -3,0 -1,1 -4,0 -1,1 -3,0 -1,1 -3,0 -1,1 -2,0 -1,1Z"/>
<path onmouseover="hoverPath(evt)" onmouseout="recoverPath(evt)" fill="rgb(239,238,230)" d="M  109,38l 0,0 1,-1 3,0 1,-1 4,0 1,-1 3,0 1,-1 3,0 1,-1 3,0 1,-1 3,0 1,-1 4,0 1,-1 6,0 0,-5 1,-1 0,-4 1,-1 0,-5 1,-1 0,-5 1,-1 0,-5 1,-1 0,-1 -62,0 0,3 1,1 0,2 -1,1 0,1 -1,1 -1,1 0,1 -1,1 0,1 -1,1 0,1 -1,1 -1,1 0,1 -1,1 -2,0 -1,1 -1,1 -1,1 1,0 1,1 0,2 2,0 1,1 0,8 1,1 0,8 3,0 1,-1 4,0 1,-1 1,0 1,-1 4,0 1,-1 6,0 1,-1Z"/>
<path onmouseover="hoverPath(evt)" onmouseout="recoverPath(evt)" fill="rgb(254,254,254)" d="M  173,52l 0,0 -1,-1 -12,0 -1,-1 0,-2 -1,0 0,11 1,-2 24,0 -23,-1 -1,0 0,-5 11,1 29,0 1,1 1,0 1,1 0,-14 1,-1 -1,-1 0,1 -1,5 0,7 -1,1Z"/>
<path onmouseover="hoverPath(evt)" onmouseout="recoverPath(evt)" fill="rgb(243,242,234)" d="M  205,27l 0,0 -1,-1 -1,1 0,2 1,1 0,7 1,1 0,2 -1,1 0,16 1,1 0,2 1,1 0,3 1,1 1,1 0,1 1,1 0,2 1,1 0,6 9,0 1,1 5,0 0,-27 -1,-1 0,-7 -1,-1 0,-12 -1,-1 0,-5 -2,0 -1,1 -4,0 -1,1 -4,0 -1,1Z"/>
<path onmouseover="hoverPath(evt)" onmouseout="recoverPath(evt)" fill="rgb(243,243,234)" d="M  237,100l 0,2 -1,1 0,10 -1,1 0,9 -1,1 0,1 2,0 1,1 13,0 1,1 4,0 0,-29 -18,0Z"/>
<path onmouseover="hoverPath(evt)" onmouseout="recoverPath(evt)" fill="rgb(241,238,228)" d="M  158,37l -1,0 0,1 -1,1 0,6 -1,1 0,5 -1,1 0,5 -1,1 0,5 -1,1 0,3 1,-1 1,-1 2,0 1,1 0,2 -1,1 0,1 6,0 1,-1 14,0 1,1 0,2 1,-1 4,0 1,1 1,0 1,1 2,0 1,1 3,0 1,1 4,0 1,1 7,0 0,-6 -1,-1 0,0 -1,-1 0,-3 1,-1 0,-2 -1,-1 0,-2 -2,0 -1,-1 0,-3 -1,0 -1,-1 -29,0 -1,-1 -7,0 -1,1 1,0 1,1 22,0 1,1 0,2 -1,1 -24,0 0,1 -1,1 -2,0 -1,-1 0,-13 1,-1 3,0 1,1 0,2 12,0 1,1 25,0 0,-1 1,-1 -1,-1 0,-4 1,-1 0,-11 -1,-1 0,-1 -1,1 0,0 -2,2 -9,0 -1,-1 -1,1 -1,0 -1,1 -4,0 -1,1 -4,0 -1,1 -3,0 -1,1 -10,0 -1,1Z"/>
<path onmouseover="hoverPath(evt)" onmouseout="recoverPath(evt)" fill="rgb(243,242,234)" d="M  0,46l 0,15 1,0 1,-1 3,0 1,-1 2,0 1,-1 4,0 1,-1 4,0 1,-1 4,0 1,-1 3,0 1,-1 2,0 0,-22 -5,0 -1,-1 0,-1 -1,-1 -4,0 0,2 -1,1 -6,0 -1,-1 -3,0 -1,1 -7,0Z"/>
<path onmouseover="hoverPath(evt)" onmouseout="recoverPath(evt)" fill="rgb(252,252,250)" d="M  30,254l -4,0 -1,-1 -5,0 -1,-1 -1,0 -1,-1 -1,-1 0,-1 -1,0 0,3 -1,1 -1,1 -6,0 -1,-1 0,2 23,0 1,-1 1,1 5,0 0,-2 -1,-1 0,-4 1,-1 0,-4 -1,-1 0,-21 1,-1 1,-1 1,-1 15,0 1,1 2,0 1,-1 9,0 1,1 3,0 1,1 1,1 0,2 1,1 0,4 -1,1 4,0 -2,-1 0,-2 -3,3 -2,0 4,-6 0,-3 1,-1 1,0 1,-1 35,0 1,1 1,1 0,5 -1,1 0,4 -1,1 0,5 -1,1 0,4 -1,1 0,4 -1,1 0,5 -1,1 0,2 2,0 0,-4 1,-1 0,-5 1,-1 0,-4 1,-1 0,-5 1,-1 0,-4 1,-1 0,-5 1,-1 0,-2 1,-1 6,0 1,-1 12,0 1,1 20,0 1,1 0,1 1,1 0,5 -1,1 -1,1 -30,0 13,1 1,0 1,1 0,24 1,0 0,-12 1,-1 1,0 1,-1 5,0 1,1 6,0 1,1 0,-15 -127,27 -1,-1 129,-33 0,-1 1,-1 18,0 1,1 0,5 -1,1 -2,0 0,5 1,0 1,-1 2,0 1,-1 1,0 1,-1 1,-1 9,0 -10,-1 -2,0 -1,-1 0,-3 1,-1 0,-1 1,-1 23,0 1,1 10,0 0,-2 -35,0 -1,-1 0,-5 1,-1 1,0 1,-1 -4,0 0,6 -1,1 -1,1 -35,0 -1,-1 -22,0 -1,-1 -1,0 -1,-1 0,-3 1,-1 0,-5 1,-1 0,-4 1,-1 0,-5 1,-1 0,-6 1,-1 0,-5 1,-1 0,-5 1,-1 0,-5 1,-1 0,-6 1,-1 0,-4 1,-1 1,-1 6,0 1,-1 20,0 1,1 26,0 1,1 0,6 -1,1 8,0 -4,-1 -1,0 -1,-1 0,-3 1,-1 0,-1 1,-1 35,0 1,1 0,-2 -33,0 -1,-1 -1,0 -1,-1 0,-6 -1,6 -1,1 -2,0 -1,1 -18,0 -1,-1 -27,0 -1,-1 -5,0 -1,-1 0,-7 1,-1 0,-5 1,-1 0,-5 1,-1 0,-6 1,-1 0,-5 1,-1 0,-5 1,-1 0,-6 1,-1 0,-5 1,-1 0,-4 1,-1 0,-5 1,-1 0,-6 1,-1 0,-5 1,-1 0,-6 1,-1 0,-5 1,-1 0,-4 1,-1 0,-5 1,-1 0,-4 1,-1 0,-5 1,-1 0,-2 -2,0 0,4 -1,1 0,6 -1,1 0,5 -1,1 0,5 -1,1 0,5 -1,1 0,4 -1,1 0,6 -1,1 0,4 -1,1 0,5 -1,1 0,6 -1,1 0,4 -1,1 0,6 -1,1 0,5 -1,1 0,5 -1,1 0,5 -1,1 0,5 -1,1 0,5 -1,1 0,5 -1,1 0,4 -1,1 0,1 -1,1 -13,0 -1,-1 -1,-1 0,-2 -1,-1 0,2 -1,1 -13,0 -1,-1 0,-2 -1,-1 0,5 -1,1 -53,0 -1,-1 0,-1 -1,-1 0,-19 1,-1 1,-1 2,0 1,-1 -3,0 -1,-1 0,-1 -1,-1 0,-9 -1,0 0,36 -1,1 -18,0 -1,-1 0,-19 -1,-1 0,20 -1,1 -12,0 0,6 1,0 0,-3 1,-1 30,0 2,2 0,21 -1,1 -1,0 -1,1 -2,0 -1,1 -2,0 -1,1 -1,0 -1,1 -1,1 0,1 -1,1 -2,2 4,-4 1,-1 1,0 4,-2 4,0 1,1 0,32 -1,1 -1,0 -1,1 -18,0 -1,-1 0,-11 -1,-1 0,12 -1,1 -10,0 0,26 2,0 0,-2 -1,-1 0,-5 1,-1 0,-1 1,-1 1,-1 5,0 2,2 0,-13 1,-1 1,0 1,-1 18,0 1,1 1,1 0,32 -1,1 -1,0 -1,1 128,-33 -129,33 5,-40 0,-19 1,-1 0,-1 1,-1 0,0 -1,-1 0,-1 -1,-1 0,-3 1,-1 0,-7 -1,-1 0,-19 2,-2 1,-1 60,0 1,1 0,4 -1,1 -1,1 0,1 1,1 0,2 1,-3 0,-2 1,-1 0,-3 1,-1 1,-1 20,0 1,1 0,9 -1,1 0,5 -1,1 0,5 -1,1 0,6 -1,1 0,4 -1,1 0,4 -1,1 -3,0 2,1 0,0 1,1 0,5 -1,1 0,5 -1,1 0,4 -1,1 0,2 -1,1 -41,0 -1,-1 0,-2 -1,-1 0,3 -1,1 -32,0 -1,-1 0,-1 -1,-1 -5,40 66,-92 0,0 -66,92Z"/>
<path onmouseover="hoverPath(evt)" onmouseout="recoverPath(evt)" fill="rgb(242,240,230)" d="M  38,132l 0,0 -1,1 0,17 1,1 0,1 51,0 0,-19 1,-1 0,-5 -1,0 -1,-1 -17,0 -1,-1 -1,0 0,2 -1,1 -1,0 -1,1 -5,0 -1,-1 -2,0 0,2 -1,1 -16,0 -1,1Z"/>
<path onmouseover="hoverPath(evt)" onmouseout="recoverPath(evt)" fill="rgb(240,239,228)" d="M  58,198l -1,0 -1,-1 -1,-1 -1,0 -1,-1 -2,0 -1,-1 -12,0 0,1 -1,1 0,17 1,1 0,1 30,0 0,-3 -1,-1 0,-2 -1,-1 0,-2 -1,-1 -1,-1 0,-1 -1,-1 -1,-1 -2,0 -1,-1 0,-1 -1,-1Z"/>
<path onmouseover="hoverPath(evt)" onmouseout="recoverPath(evt)" fill="rgb(242,241,231)" d="M  103,94l 0,3 1,1 0,7 -1,1 0,2 -1,1 0,1 -1,1 1,1 0,2 -1,1 -2,0 -1,1 0,1 -1,1 0,1 -1,1 0,1 -1,1 -1,1 -1,0 -1,1 -13,0 -1,-1 0,0 -1,1 1,0 12,1 1,0 1,1 0,6 1,1 0,14 1,1 0,2 11,0 0,-7 1,-1 2,0 1,1 0,5 1,1 0,2 1,1 11,0 0,-1 1,-1 0,-4 1,-1 0,-5 1,-1 0,-5 1,-1 0,-5 1,-1 0,-5 1,-1 0,-5 1,-1 0,-5 1,-1 0,-6 1,-1 0,-4 1,-1 0,-5 -1,-1 0,-1 -4,0 -1,-1 -10,0 -1,1 -5,0 -1,-1 -2,0 -1,1 -4,0 -1,-1 0,2 1,1 0,1 1,1Z"/>
<path onmouseover="hoverPath(evt)" onmouseout="recoverPath(evt)" fill="rgb(173,198,233)" d="M  117,222l 0,1 -1,1 0,5 -1,1 0,4 -1,1 0,5 -1,1 0,4 -1,1 0,5 -1,1 0,3 5,0 0,-3 1,-1 0,-4 1,-1 0,-5 1,-1 0,-4 1,-1 0,-4 1,-1 0,-4 1,-1 0,-4 -4,0 -1,1Z"/>
<path onmouseover="hoverPath(evt)" onmouseout="recoverPath(evt)" fill="rgb(179,202,233)" d="M  148,38l -1,1 0,3 -1,1 0,5 -1,1 0,4 -1,1 0,5 -1,1 0,4 -1,1 0,5 -1,1 0,6 -1,1 0,5 -1,1 0,6 -1,1 0,5 -1,1 0,4 -1,1 0,5 -1,1 0,6 -1,1 0,5 -1,1 0,5 -1,1 0,6 -1,1 0,5 -1,1 0,5 -1,1 0,5 5,0 1,1 0,-5 1,-1 0,-4 1,-1 0,-5 1,-1 0,-4 1,-1 0,-5 1,-1 0,-5 1,-1 0,-4 1,-1 0,-5 1,-1 0,-4 1,-1 0,-5 1,-1 0,-4 1,-1 0,-4 1,-1 0,-1 1,-1 2,0 0,-5 1,-1 0,-3 1,-1 0,-1 1,-1 9,0 -8,-1 0,-3 1,-1 -2,2 -2,0 -1,-1 0,-5 1,-1 0,-5 1,-1 0,-5 1,-1 0,-5 1,-1 0,-6 1,-1 0,-1 1,-1 1,0 -3,1 -2,0 -1,1 -2,0 -1,1Z"/>
<path onmouseover="hoverPath(evt)" onmouseout="recoverPath(evt)" fill="rgb(240,238,227)" d="M  156,246l 0,-2 -6,0 -1,-1 -3,0 -1,1 -1,0 0,11 12,0Z"/>
<path onmouseover="hoverPath(evt)" onmouseout="recoverPath(evt)" fill="rgb(241,239,228)" d="M  183,213l -1,0 0,3 33,0 0,-4 1,-1 1,0 0,-8 1,-1 1,0 0,-7 -1,-1 0,-6 1,-1 1,0 0,-8 -1,-1 0,-6 1,-1 1,0 0,-8 -1,-1 0,-3 -1,-1 -33,0 0,1 -1,1 0,1 1,0 1,1 3,0 1,1 1,0 1,1 2,0 1,1 2,0 1,1 0,2 1,0 1,1 1,0 1,1 0,1 1,1 0,5 1,1 0,17 -1,1 0,3 -1,1 0,1 -1,1 0,1 -1,1 -1,1 -1,1 -1,0 -1,1 -1,0 -1,1 -1,0 -1,1 -5,0 0,2 -1,1 -3,0 -1,1Z"/>
<path onmouseover="hoverPath(evt)" onmouseout="recoverPath(evt)" fill="rgb(243,241,233)" d="M  186,145l 0,0 1,1 0,6 1,0 1,1 31,0 0,-5 1,-1 0,-4 1,-1 1,0 0,-8 -1,-1 0,-5 1,-1 1,0 0,-8 -1,-1 0,-5 1,-1 1,0 0,-8 -1,-1 0,-7 -1,-1 0,-2 1,-1 0,-2 1,-1 0,-8 1,-1 -7,0 -1,-1 -9,0 -1,-1 0,-6 -1,-1 0,-2 -1,-1 0,-1 -1,-1 0,1 2,5 0,5 -1,1 -9,0 -1,-1 -4,0 -1,-1 -3,0 -1,-1 -2,0 -1,-1 -1,0 -1,-1 -2,0 -1,1 -2,0 -1,-1 0,-2 -12,0 0,2 -1,1 -9,0 0,1 -1,1 0,3 -1,1 0,5 -1,1 -2,0 0,1 -1,1 0,4 -1,1 0,4 -1,1 0,5 -1,1 0,4 -1,1 0,5 -1,1 0,4 -1,1 0,5 -1,1 0,5 -1,1 0,4 -1,1 0,5 -1,1 0,4 -1,1 0,4 25,0 1,1 16,0 1,-1 2,0 1,-1 0,-5 1,-1Z"/>
<path onmouseover="hoverPath(evt)" onmouseout="recoverPath(evt)" fill="rgb(241,239,228)" d="M  199,255l 14,0 0,-10 1,-1 0,-7 1,-1 0,-1 -1,-1 0,-3 1,-1 0,-8 -10,0 -1,-1 -21,0 0,1 -1,1 0,1 2,0 1,1 9,0 1,1 0,2 -1,1 -9,0 -2,2 -1,0 -1,1 -2,0 -1,1 -3,0 1,1 0,2 -1,1 -2,0 -1,-1 0,-2 1,-1 1,0 0,-8 1,-1 2,0 0,-3 -16,0 0,1 -1,1 0,32Z"/>
<path onmouseover="hoverPath(evt)" onmouseout="recoverPath(evt)" fill="rgb(240,239,227)" d="M  13,223l 0,18 -1,1 -2,0 -1,-1 0,-7 -1,-1 -3,0 -1,1 0,1 -1,1 0,3 1,1 0,4 -1,1 -3,0 0,10 4,0 0,-3 1,-1 2,0 1,1 4,0 1,-1 0,-3 1,-1 3,0 1,1 0,1 1,1 1,0 1,1 5,0 1,1 3,0 1,-1 1,0 0,-30 -1,-1 -16,0 -1,1 -1,0Z"/>
<path onmouseover="hoverPath(evt)" onmouseout="recoverPath(evt)" fill="rgb(243,241,232)" d="M  65,192l 1,0 1,-1 0,-2 1,-1 1,0 1,-1 2,0 1,-1 4,0 1,1 2,0 0,-2 1,-1 4,0 1,1 2,0 1,1 2,0 -2,-1 0,-2 1,-1 0,-1 1,-1 1,0 0,-2 1,-1 1,-1 1,-1 0,-1 -1,-1 0,-2 1,-1 2,0 0,-2 -1,-1 0,-2 -1,-1 -20,0 -1,1 -1,0 -1,1 -1,0 -1,1 -1,1 -3,0 1,1 0,4 -1,1 0,3 -1,1 0,2 -1,1 0,2 -1,1 -2,0 0,2 -1,1 0,2 -1,1 -1,1 0,1 -1,1 -5,0 3,1 1,0 1,1 1,1 1,0 1,1 1,1 0,1 2,0 1,1 1,1 1,1 0,1 1,1 -1,-3 -4,-3 0,-3 1,-1 2,-2Z"/>
<path onmouseover="hoverPath(evt)" onmouseout="recoverPath(evt)" fill="rgb(240,239,227)" d="M  75,223l 0,1 1,1 0,2 1,0 1,1 0,2 -1,1 -9,0 -1,-1 0,-2 1,-1 3,0 0,-2 -1,-1 0,-2 -1,-1 -3,0 -1,-1 -7,0 -1,1 -4,0 -1,-1 -13,0 -1,1 -1,1 0,19 1,1 0,6 -1,1 0,2 1,1 0,3 5,0 0,-1 -1,-1 0,-8 1,-1 0,-12 1,-1 15,0 1,1 0,2 -1,1 -12,0 0,16 5,0 1,-1 4,0 1,1 2,0 1,-1 3,0 0,-2 1,-1 3,0 1,-1 3,0 1,-1 1,0 1,-1 3,0 1,1 1,-1 1,0 1,-1 1,-1 1,-1 1,-1 -1,-1 0,-2 1,-1 0,-1 -1,-1 0,-2 1,-1 4,0 1,1 1,0 1,1 1,0 1,1 1,0 1,1 1,0 1,1 0,1 1,1 0,1 1,1 0,3 -1,1 0,2 -1,1 0,1 -1,1 -1,1 -1,1 0,1 -1,1 -1,0 -1,1 0,1 13,0 0,-3 1,-1 0,-5 1,-1 0,-4 1,-1 0,-4 1,-1 0,-5 1,-1 0,-4 1,-1 0,-3 -1,-1 -33,0 -1,1 -1,0Z"/>
<path onmouseover="hoverPath(evt)" onmouseout="recoverPath(evt)" fill="rgb(244,242,234)" d="M  82,246l -1,0 -1,1 -2,0 -1,-1 -1,0 -1,1 -1,0 -1,1 -3,0 -1,1 -3,0 0,2 -1,1 -3,0 -1,1 -4,0 -1,-1 -2,0 -1,1 -7,0 -1,-1 0,3 45,0 0,-2 1,-1 1,-1 1,0 0,-1 1,-1 1,-1 1,-1 0,-1 1,-1 0,-2 1,-1 0,-1 -1,-1 0,-1 -1,-1 0,-1 -1,0 -1,-1 -1,0 -1,-1 -1,0 -1,-1 -1,0 -1,-1 -2,0 1,1 0,3 -1,1 1,1 0,2 -1,1 -1,1 -1,1 -1,1 -1,1 -38,6 1,-1 0,-17 1,-1 -1,0 -1,13 0,6 38,-6Z"/>
<path onmouseover="hoverPath(evt)" onmouseout="recoverPath(evt)" fill="rgb(241,240,230)" d="M  102,159l 0,2 -1,1 0,2 -1,1 0,2 -1,1 0,3 -1,1 -2,0 1,1 0,3 -1,1 -1,1 -1,1 0,4 1,0 1,1 0,2 1,0 1,1 1,0 1,1 0,2 1,0 1,-1 4,0 1,1 1,0 1,1 0,2 1,0 1,1 1,0 1,-1 3,0 0,-4 1,-1 0,-4 1,-1 0,-6 1,-1 0,-5 1,-1 0,-5 1,-1 0,-7 -18,0 -1,1Z"/>
<path onmouseover="hoverPath(evt)" onmouseout="recoverPath(evt)" fill="rgb(241,239,229)" d="M  124,223l 0,3 -1,1 0,4 -1,1 0,4 -1,1 0,4 -1,1 0,5 -1,1 0,4 -1,1 0,2 21,0 0,-23 -1,0 -1,-1 -12,0 -1,-1 0,-2 1,-1 30,0 1,-1 0,-3 -1,-1 0,-1 -20,0 -1,-1 -10,0Z"/>
<path onmouseover="hoverPath(evt)" onmouseout="recoverPath(evt)" fill="rgb(173,198,233)" d="M  128,158l 0,0 -1,1 0,4 -1,1 0,6 -1,1 0,5 -1,1 0,5 -1,1 0,5 -1,1 0,6 -1,1 0,5 -1,1 0,4 -1,1 0,5 -1,1 0,1 1,0 1,1 3,0 0,-1 1,-1 0,-5 1,-1 0,-4 1,-1 0,-5 1,-1 0,-5 1,-1 0,-4 1,-1 0,-5 1,-1 0,-4 1,-1 0,-5 1,-1 0,-4 1,-1 0,-5Z"/>
</svg>