<svg width="256" height="256" xmlns="http://www.w3.org/2000/svg"><script> 
var tempColor;
function hoverPath(evt){
obj = evt.target;
tempColor = obj.getAttribute("fill");
obj.setAttribute("fill","red");
//alert(tempColor);
//obj.setAttribute("stroke","red");}
function recoverPath(evt){
obj = evt.target;
obj.setAttribute("fill", tempColor);
//obj.setAttribute("stroke", tempColor);
}</script><path onmouseover="hoverPath(evt)" onmouseout="recoverPath(evt)" fill="rgb(188,213,154)" d="M  9,24l -1,0 0,1 1,0 1,1 2,0 1,1 0,1 1,0 1,1 1,1 1,1 1,1 0,2 1,1 0,4 -1,1 4,0 1,1 3,0 1,-1 0,0 1,-1 1,-1 1,-1 8,0 1,1 1,1 1,0 1,1 1,-1 2,0 0,-3 1,-1 6,0 1,-1 2,0 0,-1 1,-1 0,-3 1,-1 1,0 1,-1 2,0 0,-2 1,-1 2,0 1,-1 3,0 1,-1 2,0 1,-1 2,0 1,-1 1,-1 1,-1 3,0 1,-1 0,-4 -1,0 -1,-1 -1,-1 -1,-1 -1,-1 -1,-1 0,-2 1,-1 3,0 1,1 0,1 2,0 0,-7 -30,0 0,2 -1,1 -1,0 -1,1 -1,0 -1,1 -1,0 -1,1 -1,0 -1,1 -1,0 -1,1 -1,0 -1,1 -1,0 -1,1 -1,0 -1,1 -1,0 -1,1 -1,0 -1,1 -1,0 -1,1 -1,0 -1,1 -1,0 -1,1 -1,0 -1,1 -1,0 -1,1 -1,0 -1,1 -1,0 -1,1 -1,0 -1,1 -1,0 -1,1 -1,0 -1,1 -1,0 -1,1Z"/>
<path onmouseover="hoverPath(evt)" onmouseout="recoverPath(evt)" fill="rgb(193,216,161)" d="M  30,40l -1,1 -1,1 -1,1 -3,0 2,1 0,1 1,1 1,0 1,1 0,1 1,0 1,1 0,5 1,0 1,1 7,0 1,1 2,0 1,1 1,0 1,1 1,0 1,1 1,1 2,0 1,1 1,0 1,1 13,0 1,1 0,3 1,1 0,2 2,2 1,0 0,-1 -1,-1 0,-2 -1,-1 0,-7 -1,-1 0,-6 1,-1 11,0 1,1 1,0 0,-6 1,-1 0,-3 1,-1 1,-1 1,-1 0,-2 -1,0 -1,-1 0,-3 -1,-1 -2,-2 -1,-1 -1,-1 -1,0 -1,-1 -1,-1 0,-5 -1,1 -1,1 -2,0 -1,1 -2,0 -1,1 -3,0 -1,1 -2,0 0,2 -1,1 -2,0 -1,1 -1,0 0,3 -1,1 0,1 -1,1 -2,0 -1,1 -6,0 0,3 -1,1 -2,0 -1,1 -2,0 -1,-1 -1,0 -1,-1 -1,-1 -6,0 -1,1Z"/>
<path onmouseover="hoverPath(evt)" onmouseout="recoverPath(evt)" fill="rgb(242,240,230)" d="M  89,103l -1,1 -1,1 -1,1 1,1 3,0 1,1 5,0 1,1 8,0 1,-1 1,0 0,-3 1,-1 2,0 0,-2 1,-1 0,-2 1,-1 1,-1 1,-1 1,-1 1,-1 1,0 1,-1 1,-1 1,0 1,-1 1,0 0,-2 1,-1 3,0 1,-1 24,0 1,-1 3,0 -2,-1 0,-1 -1,-1 -1,-1 -1,-1 -1,0 -1,-1 -2,0 -1,-1 -1,0 -1,-1 -1,0 -1,-1 -1,0 -1,-1 -1,-1 -1,0 -1,-1 -1,-1 -1,-1 -1,-1 -1,0 -1,-1 -1,1 -1,0 -1,1 -1,1 0,1 -1,1 -2,0 -1,1 -1,1 0,1 -1,1 -2,0 -1,1 -1,1 -1,1 -1,1 -1,0 -1,1 -1,1 -1,1 -1,0 -1,1 -2,2 0,1 -1,1 -2,0 -1,1 -1,1 0,1 -1,1 0,1 -2,2 -4,0 -1,1 -1,1 0,1 -1,1 -2,0 -1,1Z"/>
<path onmouseover="hoverPath(evt)" onmouseout="recoverPath(evt)" fill="rgb(244,242,235)" d="M  189,248l 0,1 1,1 0,1 1,1 1,1 0,2 36,0 0,-1 -1,-1 0,0 -1,-1 -1,-1 0,-1 -1,-1 0,-1 -2,0 -1,-1 0,-2 -1,-1 -1,-1 0,-1 -1,-1 -1,-1 0,-1 -1,-1 -1,-1 0,-3 1,-1 1,-1 1,0 0,-2 -1,1 -1,0 -1,1 -1,1 -1,0 -1,1 -1,0 -1,1 -1,1 -1,0 -1,1 -1,0 -1,1 -1,1 -1,0 -1,1 -1,1 -1,0 -1,1 -1,0 -1,1 -1,1 -1,0 -1,1 -1,0 -1,1 -1,1 -1,0 -1,1Z"/>
<path onmouseover="hoverPath(evt)" onmouseout="recoverPath(evt)" fill="rgb(242,241,231)" d="M  60,161l 0,0 -1,-1 0,-2 -3,0 -1,-1 -2,0 -1,-1 -2,0 -1,-1 -2,0 -1,-1 -2,0 -1,-1 -2,0 -1,-1 -2,0 -1,-1 -2,0 -1,1 -4,0 0,1 -1,1 -1,1 -1,1 2,0 1,1 2,0 1,1 2,0 1,1 2,0 1,1 2,0 1,1 1,0 1,1 3,0 1,1 2,0 1,1 4,0 1,1 1,0 1,1 1,0 1,1 1,0 1,1 1,1 5,0 1,1 5,0 1,1 4,0 1,1 2,0 1,-1 5,0 1,-1 3,0 1,-1 3,0 1,-1 4,0 1,-1 4,0 1,-1 3,0 1,-1 3,0 1,-1 2,0 0,-1 1,-1 0,-2 1,-1 0,-2 -1,-1 -1,0 -1,-1 -1,-1 -1,0 -1,-1 -1,0 -1,-1 -1,-1 0,-3 1,-1 0,-1 -1,-1 -2,0 -1,-1 -2,0 -1,-1 -1,0 -1,-1 -2,0 -1,-1 -2,0 -1,-1 -1,0 -1,-1 -2,0 -1,-1 -1,0 -1,-1 -2,0 -1,-1 -3,0 -1,1 0,4 -1,1 0,1 -1,1 0,1 -1,1 0,2 5,0 1,1 1,1 1,0 1,1 0,5 -1,1 -1,1 -10,0 -1,-1 -3,0 -1,1 -1,0 0,2 -1,1Z"/>
<path onmouseover="hoverPath(evt)" onmouseout="recoverPath(evt)" fill="rgb(242,241,232)" d="M  77,233l 0,2 -1,1 0,2 -1,1 0,1 -1,1 0,1 -1,1 0,1 -1,1 0,2 -1,1 0,1 -1,1 0,1 -2,2 0,2 36,0 0,-1 -1,-1 0,0 -1,-1 -1,-1 -1,-1 -1,-1 -1,-1 -1,-1 -1,-1 -1,-1 -1,-1 -1,-1 -1,-1 -1,0 -1,-1 0,-1 -1,-1 0,-3 1,-1 8,0 1,-1 2,0 1,-1 3,0 1,1 0,-2 -1,-1 0,-1 -1,0 -1,-1 -1,-1 -1,-1 -1,-1 -1,-1 -7,0 -1,-1 -1,-1 0,-5 1,-1 0,-2 1,-1 1,-1 0,-2 1,-1 0,-2 -1,-1 0,-2 -4,0 -1,1 -4,0 -1,1 -4,0 -1,1 -5,0 -1,1 -4,0 0,1 1,1 0,0 1,1 1,1 1,1 1,1 1,1 1,1 0,2 1,1 3,0 1,1 0,3 1,1 1,1 0,3 -1,1 -3,0 0,1 -1,1Z"/>
<path onmouseover="hoverPath(evt)" onmouseout="recoverPath(evt)" fill="rgb(185,212,143)" d="M  84,1l 0,6 1,1 0,1 1,1 1,0 1,1 0,1 1,0 2,2 1,0 1,1 5,0 1,1 3,0 0,-2 1,-1 9,0 1,1 3,0 1,1 1,0 1,1 2,0 1,1 7,0 1,1 1,-1 0,-1 1,-1 1,-1 0,-1 -1,-1 0,-2 -1,-1 -1,-1 0,-2 1,-1 -2,0 -1,-1 -1,-1 -1,-1 0,-2 -41,0 -1,1Z"/>
<path onmouseover="hoverPath(evt)" onmouseout="recoverPath(evt)" fill="rgb(244,242,234)" d="M  97,244l 0,0 1,1 1,1 1,1 1,1 1,1 1,1 1,1 1,1 1,1 0,2 16,0 0,-2 1,-1 0,-2 1,-1 1,-1 1,0 1,-1 1,-1 1,-1 1,0 1,-1 1,-1 1,-1 1,0 1,-1 1,-1 2,0 1,1 0,-2 -1,-1 0,-1 -1,-1 -1,-1 -1,-1 0,-1 -1,0 -1,-1 0,-1 -1,-1 0,-1 -1,0 -1,-1 -1,-1 -1,-1 -1,-1 0,-1 -3,0 0,2 -1,1 -1,0 -1,1 -1,0 -1,1 -1,1 -1,0 -1,1 -1,0 -1,1 -2,0 -1,-1 -2,0 -1,-1 0,-2 -1,-1 -1,-1 0,-2 1,-1 1,-1 0,-5 -1,1 -1,0 0,1 -1,1 0,1 -1,1 -4,0 -1,1 -5,0 -1,-1 0,1 -1,-1 1,-1 0,0 -1,-1 0,1 8,2 0,0 1,1 0,0 1,1 1,1 1,1 1,1 1,0 1,1 0,1 1,1 0,4 -1,1 -2,0 -1,-1 -1,0 -1,1 -2,0 -1,1 -8,0 0,1 1,1 0,1 1,0 1,1 1,1 1,1 1,1Z"/>
<path onmouseover="hoverPath(evt)" onmouseout="recoverPath(evt)" fill="rgb(178,205,202)" d="M  185,1l 0,3 1,0 1,1 1,0 1,1 1,-1 2,0 1,1 1,1 1,1 1,1 1,0 1,1 0,1 1,1 1,1 0,1 1,1 0,1 1,0 1,1 0,2 1,1 0,1 1,1 1,0 1,1 1,0 1,1 0,1 5,0 1,-1 3,0 1,-1 2,0 1,-1 2,0 1,-1 3,0 1,-1 0,-2 1,-1 1,0 0,-1 1,-1 0,-1 1,-1 2,0 0,-1 1,-1 0,-1 1,-1 0,-1 1,-1 0,-1 -1,-1 0,-2 1,-1 0,-2 -52,0 -1,1Z"/>
<path onmouseover="hoverPath(evt)" onmouseout="recoverPath(evt)" fill="rgb(191,213,182)" d="M  242,0l -2,0 0,3 -1,1 1,1 0,3 -1,1 0,1 -1,1 0,1 -1,1 0,1 -1,1 -2,0 0,1 -1,1 0,1 -1,1 2,0 1,1 1,1 0,1 10,0 0,-3 1,-1 1,-1 1,-1 1,0 0,-4 1,-1 1,-1 3,0 0,-10Z"/>
<path onmouseover="hoverPath(evt)" onmouseout="recoverPath(evt)" fill="rgb(242,240,232)" d="M  16,41l 0,-2 1,-1 0,-2 -1,-1 0,-2 -1,-1 -1,-1 -1,-1 -1,0 -1,-1 0,-1 -2,0 -1,-1 -2,0 -1,1 -1,0 -1,1 -3,0 0,17 6,0 1,1 1,0 1,-1 2,0 1,-1 1,0 3,-3Z"/>
<path onmouseover="hoverPath(evt)" onmouseout="recoverPath(evt)" fill="rgb(187,213,145)" d="M  48,90l 0,1 1,1 0,1 1,0 1,1 1,1 0,2 1,1 1,1 2,0 1,1 1,0 1,1 1,0 1,1 3,0 1,-1 2,0 0,-1 1,-1 2,0 1,-1 1,0 1,-1 1,-1 1,-1 1,-1 2,0 1,-1 2,-2 0,-1 1,-1 1,-1 -1,-1 0,-2 1,-1 0,-1 -2,-2 -1,-1 0,-2 1,-1 2,0 1,1 1,1 1,1 1,1 0,-1 1,-1 2,-2 1,-1 1,0 1,-1 1,0 1,-1 3,0 1,1 1,0 1,-1 2,0 0,-2 1,-1 3,0 1,-1 4,0 0,-1 -6,0 -1,-1 -2,0 -1,-1 0,-1 -3,0 -1,-1 -8,0 -1,-1 -1,-1 -1,-1 -2,0 -1,-1 -1,-1 0,-6 -2,0 -1,-1 -9,0 0,4 1,1 0,7 1,1 0,2 1,1 0,3 -1,1 -3,0 -1,-1 -1,-1 -1,-1 0,-2 -1,-1 0,-3 -13,0 -1,-1 -1,0 -1,-1 -2,0 -1,-1 -1,-1 -1,0 -1,-1 -1,0 -1,-1 -2,0 -1,-1 -7,0 -1,-1 -1,0 -1,-1 0,-5 -1,0 -1,-1 0,-1 -1,0 -1,-1 -1,-1 0,-1 -3,0 -1,-1 -3,0 -1,1 0,0 -1,1 -1,1 -1,0 -1,1 -2,0 -1,1 -2,0 -1,1 -1,1 0,1 1,1 1,1 0,1 1,1 1,1 1,1 2,0 1,1 1,0 1,1 1,1 1,0 1,1 1,0 0,-1 1,-1 2,0 1,1 0,6 1,1 0,2 1,1 1,1 0,1 1,1 0,1 1,1 0,1 1,0 1,1 0,3 1,-2 2,0 1,1 1,0 1,1 4,0 1,1 0,1 1,0 1,1 0,1 2,0 1,1 0,1 1,1 1,1Z"/>
<path onmouseover="hoverPath(evt)" onmouseout="recoverPath(evt)" fill="rgb(252,252,251)" d="M  61,210l -1,0 1,1 1,1 1,1 1,1 1,1 1,1 1,0 1,1 1,1 1,1 1,1 1,1 1,1 1,1 1,1 0,6 1,0 0,-1 1,-1 3,0 0,-1 -1,-1 -1,-1 0,-3 -3,0 -2,-2 -1,0 -1,-1 -1,-1 -2,-2 -1,-1 -1,-1 -1,-1 -1,-1 -1,-1 0,-1 -2,0 14,21 -1,0 0,3 -1,1 0,1 -1,1 0,1 -1,1 0,2 -1,1 0,1 -1,1 0,1 -1,1 -2,0 0,1 -1,1 1,1 0,2 -1,1 -1,1 0,2 2,0 0,-3 1,-1 1,-1 0,-1 1,-1 0,-1 1,-1 0,-2 1,-1 0,-1 1,-1 0,-1 1,-1 0,-1 1,-1 0,-2 1,-1 0,-3 -14,-21Z"/>
<path onmouseover="hoverPath(evt)" onmouseout="recoverPath(evt)" fill="rgb(240,238,227)" d="M  116,97l -3,3 0,2 -1,1 0,2 -1,1 -2,0 0,3 -1,1 -1,0 -1,1 -10,0 -1,-1 -5,0 -1,-1 -2,0 -1,1 -3,0 -1,-1 -1,1 -1,0 -1,1 0,1 -1,1 -2,0 -1,1 -1,1 0,1 -1,1 -2,0 -1,1 0,1 -1,1 -2,0 -1,1 -1,1 0,1 3,0 1,1 1,0 1,1 2,0 1,1 2,0 1,1 1,0 1,1 2,0 1,1 2,0 1,1 1,0 1,1 2,0 1,1 3,0 1,1 1,0 1,1 1,1 2,0 1,1 2,0 1,1 1,0 1,1 2,0 1,1 2,0 1,1 1,0 1,1 2,0 1,1 2,0 1,1 2,0 1,1 1,0 1,1 2,0 1,1 2,0 1,1 1,0 1,1 2,0 1,1 2,0 1,1 1,0 1,1 2,0 1,1 1,0 1,1 1,0 1,1 2,0 1,1 3,0 1,-1 0,0 1,-1 2,-2 1,-1 0,-1 1,-1 1,0 2,-2 1,-1 0,-1 1,-1 1,0 1,-1 1,0 1,-1 1,-1 1,-1 1,-1 1,-1 -1,-1 0,0 -1,-1 0,-1 -1,-1 0,-1 -1,-1 0,-1 -6,0 0,7 -1,1 -1,1 -4,0 0,1 -1,1 0,4 -1,1 -1,1 -17,0 -1,-1 -1,0 -1,-1 0,-1 -1,-1 0,-8 -5,0 -1,-1 -17,0 -1,-1 0,-2 1,-1 10,0 1,-1 0,-1 -1,-1 0,-2 1,-1 4,0 1,1 3,0 1,-1 0,-1 1,-1 1,0 0,-1 1,-1 0,-1 -1,-1 0,-21 1,-1 0,-4 -1,-1 -4,0 -1,-1 -2,0 0,2 -1,1 -1,0 -1,1 -1,0 -1,1 -1,1 -1,0 -1,1Z"/>
<path onmouseover="hoverPath(evt)" onmouseout="recoverPath(evt)" fill="rgb(243,242,233)" d="M  152,203l 0,0 1,1 0,1 1,0 1,1 1,1 1,1 1,1 0,1 1,1 1,1 1,1 1,1 0,2 1,0 1,1 1,1 1,1 1,1 0,2 1,0 1,1 1,1 1,1 0,1 1,1 1,1 1,0 1,1 1,-1 1,0 1,-1 1,0 1,-1 1,-1 1,0 1,-1 1,0 1,-1 1,0 1,-1 2,0 1,1 0,2 -1,1 -1,0 -1,1 -1,0 -1,1 -1,0 -1,1 -1,1 -1,0 -1,1 -1,0 -1,1 -1,1 -1,1 0,1 2,0 1,1 1,1 0,2 1,0 1,1 1,0 1,-1 1,0 1,-1 1,-1 1,0 1,-1 2,0 0,-1 1,-1 1,0 1,-1 1,-1 1,0 1,-1 1,0 1,-1 1,-1 1,0 1,-1 0,-1 1,-1 1,0 -1,-1 0,0 -1,-1 0,-2 1,-1 1,0 1,-1 2,0 1,1 1,1 1,1 1,0 1,-1 0,-3 1,-1 -1,-1 0,0 -1,-1 0,-1 -1,-1 -1,-1 0,-1 -4,0 -1,-1 0,-2 1,-1 1,0 -1,-1 0,-1 -2,0 -1,-1 0,-4 -1,-1 -1,-1 0,-1 -1,-1 -2,0 -1,-1 0,-2 1,-1 0,-1 1,-1 6,0 1,1 0,2 -1,1 1,1 0,0 1,1 0,1 1,1 1,1 0,1 1,1 2,0 1,1 0,2 1,0 1,1 0,1 1,1 1,1 0,2 -1,1 1,1 0,0 1,1 0,1 1,1 4,0 1,-1 1,0 1,-1 1,-1 1,0 1,-1 1,-1 1,0 1,-1 1,0 1,-1 1,-1 1,0 1,-1 1,-1 1,0 1,-1 0,-1 1,-1 1,0 0,-6 2,-2 2,0 1,1 0,3 -1,1 2,0 1,-1 1,0 1,-1 1,-1 1,0 1,-1 2,0 0,-11 -1,0 -2,-2 0,-2 -1,-1 0,-2 -1,-1 0,-4 -1,-1 0,-3 -1,-1 0,-2 -1,-1 0,-1 -1,-1 -1,-1 -1,-1 -1,-1 -1,-1 0,-1 -1,0 -1,-1 0,-1 -6,0 -1,1 -13,0 -1,1 -14,0 -1,1 -19,0 -1,1 -16,0 -1,1 -11,0 -1,1 -5,0 -1,1 -3,0 -1,1 -4,0 -1,1 -3,0 -1,1 -4,0 -1,1 -4,0 -1,1 -3,0 -1,1 -4,0 -1,1 -4,0 -1,1 -3,0 -1,1 -3,0 -1,1 -3,0 -1,1 -4,0 -1,1 -4,0 0,2 2,0 1,1 2,0 1,1 2,0 1,1 2,0 1,1 2,0 1,1 2,0 1,1 5,0 1,1 1,1 1,0 1,1 3,0 1,-1 0,0 1,-1 1,-1 1,-1 2,0 1,1 0,2 -1,1 -1,1 -1,1 1,0 1,1 1,0 1,1 2,0 1,1 0,1 1,-1 0,0 2,-2 1,-1 1,-1 1,0 1,-1 1,-1 1,0 1,-1 2,0 1,1 0,2 -1,1 -1,1 -1,0 -1,1 -1,1 -1,1 -1,1 1,1 1,0 1,1 1,0 1,1 1,1 2,0 1,1 2,0 1,1 0,2 1,1 1,1 0,-4 2,0 1,-1 1,0 1,-1 0,0 -5,2 0,4 5,-7 0,-1 -1,-1 0,0 1,2 -5,7 3,-9 -1,0 -1,1 -1,0 -1,1 0,0 4,-2 -3,9 -1,-6 0,0 1,6 20,-36 2,0 1,1 0,2 -1,1 -2,0 -1,-1 0,-2 1,-1 -20,36 16,-31 0,2 -1,1 -2,0 -1,-1 0,-2 1,-1 2,0 1,1 -16,31 9,-27 0,2 -1,1 -2,0 -1,-1 0,-2 1,-1 2,0 1,1 -9,27 33,-22 -1,1 -1,0 -1,1 -2,0 -1,-1 0,-2 1,-1 1,0 1,-1 2,0 1,1 0,2 -33,22 26,-20 0,2 -1,1 -1,0 -1,1 -2,0 -1,-1 0,-2 1,-1 1,0 1,-1 2,0 1,1 -26,20Z"/>
<path onmouseover="hoverPath(evt)" onmouseout="recoverPath(evt)" fill="rgb(242,241,232)" d="M  171,145l -1,1 -1,1 -1,1 0,1 -1,1 -1,0 -1,1 -1,1 -1,0 -1,1 0,1 -1,1 1,1 2,0 1,-1 16,0 1,-1 18,0 1,-1 16,0 1,-1 12,0 1,-1 3,0 -1,-1 0,0 -1,-1 -1,-1 -1,-1 -1,-1 -1,-1 -1,-1 -1,-1 -1,-1 -1,-1 -1,-1 -1,-1 -1,-1 -1,-1 -1,-1 -1,-1 -1,-1 -1,-1 -1,-1 0,-1 -1,-1 -1,-1 0,-1 -1,-1 0,-1 -1,-1 0,-2 -1,-1 0,-1 -1,-1 0,-1 -1,0 -1,1 -1,0 -1,1 0,2 -1,1 -1,0 -2,2 -2,0 -1,-1 -1,1 0,0 -1,1 -1,0 -1,1 0,2 -1,1 -2,0 -1,-1 -1,1 0,0 -1,1 0,1 -1,1 -1,0 -1,1 -1,0 -1,1 -1,1 -1,0 -1,1 0,1 -1,1 -2,0 -2,2 -1,1 -1,1 -1,0 -1,1Z"/>
<path onmouseover="hoverPath(evt)" onmouseout="recoverPath(evt)" fill="rgb(242,240,231)" d="M  235,65l 0,0 -1,1 -1,1 -1,1 -1,1 -1,1 -1,1 -1,1 0,1 -1,1 -1,0 0,1 -1,1 0,1 -1,1 -1,0 -1,1 -1,1 -1,1 0,1 -1,1 -1,1 0,4 1,1 0,2 1,-1 3,0 1,1 0,2 1,-1 5,0 1,1 6,0 1,1 1,-1 1,-1 1,0 1,-1 1,0 1,-1 0,-1 -1,-1 0,-2 1,-1 3,0 1,1 0,1 1,0 0,-2 1,-1 2,0 1,1 2,0 0,-73 -2,0 -1,1 0,4 -1,1 -1,0 -1,1 -1,1 0,6 -1,1 0,1 -1,1 0,2 -1,1 0,2 -1,1 0,2 -1,1 0,1 -1,1 0,2 -1,1 0,2 -1,1 0,1 -1,1 0,2 1,1 0,2 1,1 0,3 -1,1 0,1 -1,1 -1,1 -2,0 -1,1 0,3 8,7 1,0 1,1 0,2 -1,1 -2,0 -1,-1 0,-2 1,-1 1,0 -8,-7Z"/>
<path onmouseover="hoverPath(evt)" onmouseout="recoverPath(evt)" fill="rgb(243,242,234)" d="M  0,195l 0,18 2,0 1,-1 3,0 1,-1 4,0 1,-1 4,0 1,-1 4,0 1,-1 5,0 1,-1 4,0 1,-1 4,0 1,-1 4,0 1,-1 4,0 1,-1 2,0 0,-1 -1,0 -1,-1 -1,0 -1,-1 -1,0 -1,-1 -4,0 -1,-1 -5,0 -1,-1 0,-2 -5,0 -1,1 -7,0 -1,-1 0,-2 -4,0 -1,1 -10,0 -1,-1 -3,0Z"/>
<path onmouseover="hoverPath(evt)" onmouseout="recoverPath(evt)" fill="rgb(242,241,231)" d="M  172,51l -1,0 -1,-1 0,1 1,1 0,2 1,1 0,1 1,1 0,1 1,1 0,1 2,0 1,1 0,2 1,0 1,1 1,1 1,1 1,1 0,3 1,1 2,0 1,1 0,2 9,0 1,-1 17,0 1,1 0,2 -1,1 -5,0 -1,1 -16,0 2,1 0,1 1,1 1,0 1,1 1,0 1,1 1,1 1,0 1,1 1,0 1,1 1,0 1,1 1,0 1,1 2,0 1,1 1,0 1,1 1,0 1,1 1,0 0,-2 1,-1 0,-5 1,-1 1,-1 0,-1 1,-1 1,-1 1,-1 1,-1 1,0 0,-1 1,-1 0,-1 1,-1 1,0 0,-1 1,-1 1,-1 1,-1 1,-1 1,-1 1,-1 1,-1 0,-3 1,-1 1,-1 2,0 1,-1 0,-1 1,-1 0,-1 -1,-1 0,-2 -4,0 -1,-1 -1,1 -4,0 -1,-1 -4,0 -1,1 -4,0 -1,1 -7,0 -1,-1 -10,0 -1,-1 -26,0 -2,-2 0,-10 -1,-1 0,-1 -1,-1 -4,0 -1,1 0,0 -1,1 -1,1 -1,1 -1,0 -1,1 -1,0 -1,1 -1,1 -1,1 0,1 1,-1 1,-1 1,-1 2,-1 7,0 1,1 0,1 1,1 0,1 1,1 0,2 3,3Z"/>
<path onmouseover="hoverPath(evt)" onmouseout="recoverPath(evt)" fill="rgb(242,240,230)" d="M  218,114l -1,-1 -1,1 0,4 1,1 0,1 1,1 0,1 1,1 0,2 1,1 1,1 0,1 1,1 1,1 1,1 0,1 1,1 1,1 1,1 1,1 1,1 1,1 1,1 1,1 1,1 1,1 1,1 1,1 1,1 1,1 1,1 1,1 4,0 1,1 1,0 1,-1 3,0 1,-1 4,0 0,-23 -3,0 -1,1 -2,2 -1,0 -1,1 -1,0 -1,1 -1,0 -1,1 -1,0 -1,1 -1,0 -1,1 -2,0 -1,-1 0,-2 1,-1 1,0 1,-1 1,0 1,-1 1,0 1,-1 1,0 1,-1 1,0 1,-1 1,-1 -1,-1 0,-2 1,-1 3,0 1,-1 0,-1 -1,0 -1,-1 -2,0 -1,-1 -1,0 -1,-1 -2,0 -1,-1 -1,0 -1,-1 -1,1 -2,0 -1,-1 0,-2 -1,0 -1,-1 -2,0 -1,-1 -1,0 -1,-1 0,2 -1,1 -2,0 -1,-1 -1,1 0,0 -1,1 -1,0 -1,1 0,2 -1,1Z"/>
<path onmouseover="hoverPath(evt)" onmouseout="recoverPath(evt)" fill="rgb(248,240,155)" d="M  7,60l 0,0 1,-1 -1,-1 -1,-1 -1,-1 0,-1 -2,-2 0,-3 1,-1 1,-1 -5,0 0,14 2,0 1,1 2,2 1,1 0,1 1,1 1,1 1,1 1,1 1,1 1,1 1,1 0,2 -1,1 1,1 0,0 1,1 1,1 1,1 0,1 1,1 0,3 -1,1 -1,1 3,-4 2,0 4,4 4,0 1,-1 -1,-1 0,0 -1,-1 -1,-1 -1,-1 -1,-1 -1,-1 0,-1 -1,0 -1,-1 0,-1 -1,0 -1,-1 0,-1 -2,-2 -1,-1 -4,-4 -1,-1 -1,-1 -1,-1 -1,-1 -1,-1Z"/>
<path onmouseover="hoverPath(evt)" onmouseout="recoverPath(evt)" fill="rgb(243,241,233)" d="M  20,5l 6,0 0,-2 1,-1 1,0 1,-1 1,0 0,-1 -30,0 0,16 1,0 1,-1 1,0 1,-1 1,0 1,-1 1,0 1,-1 1,0 1,-1 1,0 1,-1 1,-1 1,0 1,-1 1,0 1,-1 1,0 0,-1 1,-1Z"/>
<path onmouseover="hoverPath(evt)" onmouseout="recoverPath(evt)" fill="rgb(188,212,172)" d="M  85,52l 0,7 1,1 2,0 1,1 1,1 1,1 8,0 1,1 3,0 1,1 0,1 2,0 1,1 5,0 1,-1 3,0 1,-1 3,0 1,1 0,1 1,0 1,1 1,0 1,-1 1,0 1,-1 0,-1 1,-1 1,0 2,-2 1,0 1,-1 1,-1 1,0 2,-2 1,-1 1,0 1,-1 1,-1 0,-1 1,-1 1,0 1,-1 1,0 1,-1 1,-1 1,-1 1,-1 1,0 1,-1 1,-1 0,-3 1,-1 2,-2 1,-1 1,0 1,-1 1,0 2,-2 1,-1 1,-1 5,0 1,-1 5,0 1,-1 1,0 0,-1 1,-1 1,-1 1,0 1,-1 1,-1 0,-1 1,-1 1,-1 5,0 1,1 0,-4 1,-1 1,-1 1,0 1,-1 1,-1 1,-1 0,-1 1,-1 2,0 -1,-1 -1,-1 0,-1 -1,0 -1,-1 -1,-1 -1,-1 -1,-1 -1,1 -2,0 -1,-1 -1,0 -1,-1 -1,0 -1,-1 0,-5 -55,0 0,1 1,1 0,0 1,1 2,0 1,1 0,2 -1,1 1,1 1,1 0,2 1,1 0,3 -1,1 -1,1 0,1 -1,1 -1,1 -2,0 -1,-1 -7,0 -1,-1 -2,0 -1,-1 -1,0 -1,-1 -3,0 -1,-1 -7,0 0,2 -1,1 -5,0 -1,-1 -5,0 -1,-1 -1,0 -1,-1 -1,-1 -1,0 -1,-1 0,-1 -1,0 -1,-1 -1,-1 0,-1 -4,0 -1,-1 0,-1 -1,0 3,3 0,0 1,1 1,0 1,1 0,6 -2,2 -1,0 0,1 -1,1 0,3 1,1 1,0 1,1 1,1 1,1 1,1 1,1 1,1 0,3 1,0 1,1 0,4 -1,1 -1,1 -1,1 0,3 -1,1Z"/>
<path onmouseover="hoverPath(evt)" onmouseout="recoverPath(evt)" fill="rgb(240,239,227)" d="M  240,99l 0,0 -1,1 0,1 1,0 1,1 1,0 1,1 1,0 1,1 1,0 1,1 2,0 1,1 1,0 1,1 1,0 1,1 1,0 0,-18 -1,0 -1,1 0,0 -1,1 -1,0 -1,1 -1,1 -1,0 -1,1 -1,0 -1,1 -1,1 -1,0 -1,1 -1,0 -1,1Z"/>
<path onmouseover="hoverPath(evt)" onmouseout="recoverPath(evt)" fill="rgb(174,200,236)" d="M  243,156l -1,0 2,1 0,1 1,1 1,1 1,1 1,1 1,1 0,1 1,1 0,2 1,1 0,3 1,1 0,4 1,1 0,2 1,1 0,2 1,1 0,-16 -2,0 -1,-1 0,-2 -1,-1 0,-1 -1,-1 0,-1 -1,0 -1,-1 -1,-1 -1,-1 -1,-1 0,-1 -1,0 -1,1Z"/>
<path onmouseover="hoverPath(evt)" onmouseout="recoverPath(evt)" fill="rgb(250,239,141)" d="M  11,13l 0,0 -1,1 -1,0 -1,1 -1,0 -1,1 -1,0 -1,1 -1,0 -1,1 -2,0 0,9 2,0 1,-1 1,0 1,-1 1,0 0,-2 1,-1 1,0 1,-1 1,0 1,-1 1,0 1,-1 1,0 1,-1 1,0 1,-1 1,0 1,-1 1,0 1,-1 1,0 1,-1 1,0 1,-1 1,0 1,-1 1,0 1,-1 1,0 1,-1 1,0 1,-1 1,0 1,-1 1,0 1,-1 1,0 1,-1 1,0 1,-1 1,0 1,-1 1,0 1,-1 1,0 1,-1 1,0 1,-1 1,0 0,-1 -18,0 0,2 -1,1 -1,0 -1,1 -1,0 0,2 -1,1 -7,0 0,1 -1,1 -1,0 -1,1 -1,0 -1,1 -1,0 -1,1 -1,1Z"/>
<path onmouseover="hoverPath(evt)" onmouseout="recoverPath(evt)" fill="rgb(241,239,230)" d="M  21,103l 0,0 -1,-1 0,-4 1,-1 3,0 1,1 2,0 1,-1 -1,-1 0,0 -1,-1 -1,-1 0,-1 -1,-1 0,-2 -1,0 -1,-1 -1,-1 -1,-1 -1,-1 0,1 -1,1 0,0 -1,1 -1,1 -2,0 -1,-1 0,-2 1,-1 1,-1 0,-1 -1,-1 0,-1 -1,-1 -1,-1 -1,-1 -1,-1 0,-2 1,-1 -1,-1 -1,-1 -3,-3 -1,-1 -1,-1 0,-1 -1,-1 -1,-1 -1,-1 -1,0 0,80 3,0 1,1 1,0 1,1 1,1 1,0 1,1 1,0 1,1 1,0 1,1 1,0 1,1 2,0 1,-1 0,0 1,-1 1,-1 2,0 0,-1 1,-1 1,-1 1,-1 1,0 1,-1 1,0 0,-1 1,-1 1,-1 1,-1 2,0 0,-1 3,-3 1,0 1,-1 1,-1 1,0 1,-1 1,0 0,-2 1,-1 1,0 1,-1 1,-1 2,0 0,-1 1,-1 1,-1 1,-1 1,0 0,-1 -1,-1 0,0 -1,-1 0,-1 -1,0 -1,-1 -1,-1 -1,-1 -1,-1 -1,-1 -1,-1 0,-1 -1,-1 -1,0 -1,-1 0,-3 -1,0 -1,-1 0,-2 -4,0 0,6 -1,1 -5,0 -1,-1 -3,0 -1,-1 0,-4 -1,-1 -1,-1Z"/>
<path onmouseover="hoverPath(evt)" onmouseout="recoverPath(evt)" fill="rgb(203,218,165)" d="M  24,100l 0,0 -1,-1 -1,0 0,2 1,0 1,1 0,1 1,1 0,4 3,0 1,1 3,0 0,-6 1,-1 5,0 0,-1 1,-1 4,0 1,1 1,1 1,1 1,1 1,1 1,1 1,1 0,1 1,1 1,1 1,1 1,1 1,1 1,1 1,1 1,1 0,1 1,1 2,0 1,-1 1,0 1,-1 3,-3 1,0 3,-3 1,0 3,-3 1,-1 1,0 0,-1 1,-1 1,0 1,-1 1,-1 1,0 0,-1 1,-1 1,0 1,-1 1,0 1,-1 0,-1 1,-1 1,0 1,-1 1,-1 1,0 1,-1 1,-1 1,-1 1,0 1,-1 1,-1 1,-1 1,-1 1,0 1,-1 1,-1 1,-1 1,-1 1,-1 1,0 0,-1 1,-1 1,0 0,-2 1,-1 3,0 1,-1 1,0 1,-1 1,-1 1,-1 1,-1 1,-1 1,0 1,-1 -1,-1 -1,0 -1,-1 0,-1 -1,0 -1,1 -3,0 0,3 -1,1 -4,0 -1,1 -3,0 0,2 -1,1 -2,0 -1,1 -3,0 -1,-1 -1,0 -1,1 -1,0 -1,1 -1,0 -1,1 -1,1 -1,1 0,1 -1,1 -2,0 -1,-1 -1,-1 -1,-1 -1,-1 3,4 0,2 -1,1 1,1 0,2 -1,1 -1,1 0,1 -3,3 -1,1 -2,0 -1,1 -1,1 -1,1 -1,1 -1,0 -1,1 -2,0 0,1 -1,1 -2,0 -1,1 -5,0 -1,-1 -1,0 -1,-1 -1,0 -1,-1 -2,0 -1,-1 -1,-1 -1,-1 0,-2 -1,-1 -1,0 -1,-1 0,-1 -1,-1 0,-2 -1,-1 -1,-1 0,-1 -2,0 -1,-1 0,-1 -1,0 -1,-1 0,-1 -4,0 -1,-1 -1,0 -1,-1 0,1 -1,1 -2,0 -1,-1 0,1 1,1 1,1 1,1 0,2 -1,1 -1,1 -3,0 0,1 1,1 0,1 1,1 1,1 1,1 0,2 -1,1 -1,1 -4,0 3,-18 1,-1 0,-2 -1,0 -1,-1 0,-1 -1,-1 0,-1 -1,-1 0,-1 -1,-1 -1,-1 0,-2 -1,-1 0,-6 -1,2 -3,0 -1,-1 -1,0 -1,-1 -1,-1 -1,0 -1,-1 -1,0 -1,1 0,2 1,1 0,0 1,1 1,1 1,1 1,1 1,1 1,1 1,1 1,1 1,1 1,1 1,1 0,1 1,0 1,1 0,1 1,0 1,1 0,1 1,1 1,1 -3,18Z"/>
<path onmouseover="hoverPath(evt)" onmouseout="recoverPath(evt)" fill="rgb(235,234,217)" d="M  124,157l 0,2 -1,1 0,3 1,0 1,-1 3,0 1,-1 4,0 1,-1 3,0 1,-1 4,0 1,-1 1,0 -2,-1 -2,0 -1,-1 -2,0 -1,-1 -1,0 -1,-1 -2,0 -1,-1 -1,0 -1,-1 -2,0 -1,-1 -2,0 -1,-1 0,4 1,1Z"/>
<path onmouseover="hoverPath(evt)" onmouseout="recoverPath(evt)" fill="rgb(243,241,233)" d="M  131,255l 32,0 0,-2 1,-1 1,0 1,-1 1,-1 1,0 1,-1 1,-1 -1,-1 0,0 -1,-1 -1,-1 0,-1 -1,-1 -1,-1 -1,-1 0,-2 -1,0 -1,-1 -1,-1 0,-2 -1,0 -1,-1 -1,-1 -1,-1 -1,-1 0,-2 -1,0 -1,-1 -1,-1 -1,-1 -1,0 -1,1 -5,0 -1,-1 -1,0 -1,-1 -1,-1 -1,-1 0,-1 -1,-1 -1,-1 0,-5 1,-1 -2,0 -1,-1 0,-2 1,-1 -1,-1 0,0 -1,-1 -1,0 -1,-1 -1,0 -1,-1 -1,0 -1,-1 0,-2 -7,0 -1,-1 -2,0 -1,-1 -2,0 -1,-1 -2,0 -1,-1 -2,0 -1,1 -1,0 -1,1 -1,0 -1,1 -2,0 -1,1 -3,0 -1,1 -1,0 0,3 -1,1 0,3 -1,1 0,2 -1,1 -1,1 0,1 1,1 0,1 1,1 0,1 3,0 1,-1 4,0 0,-1 1,-1 0,-1 1,-1 1,0 1,-1 2,0 1,1 0,7 -1,1 -1,1 1,1 0,0 1,1 0,2 1,0 1,-1 1,0 1,-1 2,0 1,1 1,-1 0,-2 1,-1 1,0 1,-1 1,0 1,-1 5,0 1,1 0,1 1,1 1,1 1,1 1,0 1,1 0,1 1,1 0,1 1,0 1,1 0,1 1,1 1,1 1,1 0,1 1,1 0,4 -1,1 -2,0 -1,-1 -1,1 0,0 -1,1 -1,0 -1,1 -1,1 -1,1 -1,0 -2,2 -1,1 -1,0 -1,1 0,2 -1,1 0,1Z"/>
<path onmouseover="hoverPath(evt)" onmouseout="recoverPath(evt)" fill="rgb(182,205,237)" d="M  134,69l 0,0 1,1 1,1 1,1 1,1 1,0 1,1 1,1 1,0 1,1 1,0 1,1 1,0 1,1 2,0 1,1 1,0 1,1 1,1 1,1 1,1 0,1 1,0 1,1 0,2 -1,1 3,0 1,1 0,1 1,1 0,1 1,1 1,1 0,1 1,1 1,1 1,1 1,1 1,0 1,1 1,0 1,1 2,0 1,1 4,0 1,1 5,0 1,1 4,0 1,1 1,0 1,1 2,0 1,1 0,1 2,0 1,1 1,1 1,0 1,1 1,1 1,0 1,1 3,0 1,-1 1,0 1,-1 0,-1 -1,0 -1,1 -2,0 -1,-1 0,-3 -1,-1 0,-5 -1,3 0,1 -1,1 -2,0 -1,-1 -2,0 -1,-1 -1,0 -1,-1 -1,0 -1,-1 -2,0 -1,-1 -5,0 -1,-1 -4,0 -1,-1 -3,0 -1,-1 -3,0 -1,-1 -1,0 -1,-1 0,-1 -1,-1 -1,-1 -1,-1 0,-1 -1,-1 -1,-1 -1,0 -1,-1 0,-2 1,-1 5,0 1,1 0,-2 1,-1 1,-1 1,-1 1,0 -3,1 -3,0 -1,-1 0,3 -31,-15 1,-1 -1,0 -1,1 3,-1 1,0 1,1 1,1 1,0 1,1 0,-1 1,2 1,0 2,1 -1,0 3,1 -1,0 3,1 -1,0 2,1 1,0 1,1 1,0 1,1 1,0 1,1 1,1 1,1 1,1 0,2 -24,-16 -1,1Z"/>
<path onmouseover="hoverPath(evt)" onmouseout="recoverPath(evt)" fill="rgb(251,251,249)" d="M  192,125l 0,4 1,-3 0,0 1,-1 1,0 1,-1 1,-1 2,0 1,1 1,-1 1,-1 1,0 0,-2 1,-1 1,-1 1,0 1,-1 2,0 1,-1 1,-1 3,0 0,-2 1,-1 1,-1 2,0 1,1 0,-2 1,-1 1,-1 1,0 1,-1 1,-1 2,0 1,1 0,-2 1,-1 2,0 1,1 1,0 1,1 2,0 1,1 1,0 1,1 0,2 1,-1 2,0 1,1 1,0 1,1 2,0 1,1 1,0 1,1 2,0 1,1 1,0 1,1 0,3 -1,1 -1,1 -3,0 1,1 0,2 -1,1 -1,1 3,-3 4,0 0,-12 -2,0 -1,-1 -1,0 -1,-1 -1,0 -1,-1 -2,0 -1,-1 -1,0 -1,-1 -1,0 -1,-1 -1,0 -1,-1 -1,0 -1,-1 -1,-1 0,-2 1,-1 1,0 1,-1 1,-1 1,0 1,-1 1,0 1,-1 1,-1 1,0 1,-1 1,0 1,-1 1,-1 1,0 1,-1 1,-1 2,0 0,-1 -3,0 -1,-1 0,2 -1,1 -3,0 -1,-1 0,-1 -1,0 1,2 0,2 -1,1 -1,1 -1,0 -1,1 -1,0 -1,1 -1,1 -2,0 -1,-1 -6,0 -1,-1 -3,0 -1,1 -2,0 -1,-1 0,-2 -1,0 -1,1 -2,0 -1,-1 0,0 -1,1 -3,0 -1,-1 -1,0 -1,-1 -1,0 -1,-1 -2,0 -1,-1 -1,0 -1,-1 -1,0 -1,-1 -1,0 -1,-1 -1,0 -1,-1 -1,-1 -1,0 -1,-1 -1,0 -1,-1 -1,-1 0,-1 -1,0 -1,-1 0,-2 1,-1 16,0 1,-1 -10,0 -8,1 -4,0 -1,-1 0,-2 -2,0 -1,-1 -1,-1 0,-3 -1,-1 -1,-1 -1,-1 -1,0 -1,-1 0,-2 -2,0 -1,-1 0,-1 -1,-1 0,-1 -1,-1 0,-1 -1,-1 0,-2 -1,-1 0,-2 -1,-1 0,-2 -1,-1 0,-1 -1,-1 0,-1 -6,0 -1,1 0,0 -3,3 -1,0 -3,3 -1,0 -3,3 -1,1 -1,0 -1,1 -1,0 0,1 -3,3 -1,0 -1,1 -1,1 -1,1 -1,0 -1,1 -1,1 -1,0 -1,1 -1,1 -1,0 0,1 -1,1 -1,1 -1,0 -1,1 -1,0 0,1 -1,1 -1,1 -1,0 -1,1 -1,1 -1,1 -1,1 -1,1 -1,0 -1,1 -3,0 0,2 -1,1 -1,0 0,1 -1,1 -1,0 -1,1 -3,3 -1,1 -1,0 -1,1 -1,1 -1,1 -1,1 -1,0 -1,1 -1,1 -1,1 -1,0 -1,1 -1,1 -1,0 0,1 -1,1 -1,1 -1,0 -1,1 -1,0 0,1 -1,1 -1,0 -1,1 -1,1 -1,0 0,1 -1,1 -1,0 -1,1 -1,1 -1,1 -1,1 -1,0 -1,1 -1,1 -1,1 -1,0 -1,1 -1,1 -1,1 -1,1 -1,0 0,1 1,0 1,-1 0,0 1,-1 2,0 0,-1 1,-1 1,-1 2,0 0,-1 1,-1 1,-1 1,-1 2,0 0,-1 1,-1 1,-1 1,0 1,-1 2,0 1,1 1,0 -1,-1 0,-2 1,-1 1,-1 1,-1 1,-1 1,-1 2,0 0,-1 3,-3 4,0 1,-1 0,-1 1,-1 0,-1 3,-3 2,0 0,-1 1,-1 1,-1 1,-1 1,-1 1,0 1,-1 1,-1 1,-1 1,0 1,-1 1,-1 1,-1 1,-1 2,0 0,-1 3,-3 2,0 0,-1 1,-1 1,-1 1,-1 1,0 1,-1 1,0 1,-1 1,-1 1,0 0,-1 3,-3 1,0 3,-3 1,-1 1,0 1,-1 1,-1 1,-1 1,-1 2,0 0,-1 1,-1 1,-1 1,-1 1,0 1,-1 1,-1 1,-1 1,-1 1,0 1,-1 3,0 1,1 0,3 1,1 0,2 1,1 0,2 1,1 0,1 1,1 0,1 1,1 0,1 1,1 0,1 1,1 0,2 -1,1 1,1 2,0 1,1 1,1 0,2 1,0 1,1 0,6 1,0 1,1 5,0 1,1 1,0 1,1 1,1 1,1 1,1 0,1 2,0 1,1 1,1 0,2 1,-1 2,0 1,1 1,0 1,1 1,0 1,1 0,2 1,-1 2,0 1,1 1,1 0,3 -1,1 1,1 0,5 1,1 0,3 1,-1 3,0 1,1 0,3 -1,1 -1,1 -1,0 -1,1 -2,0 0,1 -1,1 -1,1 -1,0 -1,1 -1,1 -1,0 -1,1 -1,0 -1,1 -1,1 -1,0 -1,1 -1,0 -1,1 -1,-1 -3,0 -1,-1 0,-1 -1,-1 0,2 -1,1 1,1 0,0 1,1 1,-1 -1,0 -1,-1 5,0 1,1Z"/>
<path onmouseover="hoverPath(evt)" onmouseout="recoverPath(evt)" fill="rgb(243,241,232)" d="M  227,249l 0,1 1,1 1,1 1,1 0,2 25,0 0,-42 -2,0 -1,-1 0,-1 -1,-1 -1,-1 -1,0 0,2 -1,1 -3,0 -1,-1 -1,1 0,2 -1,1 0,1 -1,1 -2,0 -1,-1 -1,1 -2,0 0,2 -1,1 -1,1 -1,0 -1,1 -1,1 -1,0 -1,1 -1,0 -1,1 -1,1 -1,0 -1,1 -1,0 1,1 0,3 -1,1 0,2 -2,2 0,2 -1,1 1,1 1,1 0,1 1,1 1,1 0,2 2,0 1,1 0,1 1,1Z"/>
<path onmouseover="hoverPath(evt)" onmouseout="recoverPath(evt)" fill="rgb(242,241,232)" d="M  4,174l 0,0 -1,1 -3,0 0,16 4,0 1,1 8,0 1,-1 6,0 1,1 0,2 5,0 1,-1 7,0 1,1 8,0 0,-7 -2,0 -1,-1 0,-2 1,-1 5,0 0,-3 1,-1 0,-1 -1,-1 -2,0 -1,-1 -1,0 -1,-1 -3,0 -1,-1 -1,0 -1,-1 -2,0 -1,-1 -3,0 -1,-1 -2,0 -1,-1 -2,0 -1,-1 -2,0 -1,-1 -2,0 -1,-1 -3,0 -1,1 -2,0 0,1 -1,1 -1,1 -1,0 -3,3Z"/>
<path onmouseover="hoverPath(evt)" onmouseout="recoverPath(evt)" fill="rgb(200,219,160)" d="M  63,182l 0,0 -1,-1 -2,0 -1,-1 -1,0 -1,-1 -2,0 -1,-1 -2,0 -1,-1 -1,0 -1,-1 -1,0 1,1 0,3 -1,1 0,3 -1,1 -5,0 3,1 0,9 -1,1 -9,0 6,1 4,0 1,1 1,0 1,1 1,0 1,1 1,0 1,1 0,2 2,0 0,-2 1,-1 7,0 1,-1 4,0 1,1 0,1 1,0 1,-1 4,0 1,-1 4,0 1,-1 7,0 1,-1 1,0 1,-1 3,0 1,-1 3,0 1,-1 0,-1 -1,0 -1,-1 -2,0 -1,-1 -1,0 -1,-1 -1,1 -4,0 -1,-1 0,-2 -3,0 -1,-1 -1,0 -1,-1 -2,0 -1,-1 -2,0 -1,-1 -3,0 -1,-1 -2,0 -1,-1Z"/>
<path onmouseover="hoverPath(evt)" onmouseout="recoverPath(evt)" fill="rgb(251,250,248)" d="M  82,174l -2,0 0,1 5,0 1,-1 3,0 1,-1 4,0 1,-1 4,0 1,-1 3,0 1,-1 3,0 1,-1 3,0 1,-1 4,0 1,-1 4,0 1,-1 3,0 1,-1 4,0 1,-1 4,0 1,-1 3,0 1,-1 4,0 1,-1 3,0 1,-1 5,0 1,-1 11,0 1,-1 16,0 1,-1 19,0 1,-1 14,0 1,-1 13,0 1,-1 9,0 1,-1 3,0 1,1 0,1 1,1 1,1 1,1 1,0 1,1 0,1 1,1 0,1 1,1 0,2 1,0 0,-16 -3,0 -1,1 -3,0 -1,1 -2,0 -1,1 -8,0 -1,1 -3,0 -1,1 -12,0 -1,1 -16,0 -1,1 -18,0 -1,1 -16,0 -1,1 -4,0 -1,-1 -1,-1 0,-2 1,-1 0,-1 1,-1 1,-1 -2,0 0,1 -1,1 -1,1 -1,1 -1,1 -1,1 -1,1 -5,0 -1,-1 -2,0 -1,-1 -1,0 -1,-1 -1,0 -1,-1 -2,0 -1,-1 -1,0 -1,-1 -2,0 -1,-1 -2,0 -1,-1 -1,0 -1,-1 -2,0 -1,-1 -2,0 -1,-1 -1,0 -1,-1 -2,0 -1,-1 -2,0 -1,-1 -2,0 -1,-1 -1,0 -1,-1 -2,0 -1,-1 -2,0 -1,-1 -1,0 -1,-1 -2,0 -1,-1 -2,0 -1,-1 -1,-1 -1,0 -1,-1 -3,0 -1,-1 -2,0 -1,-1 -1,0 -1,-1 -2,0 -1,-1 -2,0 -1,-1 -1,0 -1,-1 -2,0 -1,-1 -2,0 -1,-1 -1,0 -1,-1 -4,0 2,1 1,0 1,1 2,0 1,1 1,0 1,1 2,0 1,1 2,0 1,1 1,0 1,1 0,4 1,-1 1,-1 5,0 1,1 2,0 1,1 1,0 1,1 2,0 1,1 1,0 1,1 2,0 1,1 2,0 1,1 1,0 1,1 2,0 1,1 2,0 1,1 1,1 0,3 -1,1 0,1 1,1 1,0 1,1 1,0 1,1 1,1 1,0 1,1 1,1 0,4 -1,1 0,2 -1,1 0,1 -1,1 -2,0 -1,1 -3,0 -1,1 -3,0 -1,1 -4,0 -1,1 -4,0 -1,1 -3,0 -1,1 -3,0 -1,1 -5,0 -1,1 -1,0 39,-10 0,-3 1,4 3,0 1,-1 4,0 1,-1 4,0 1,-1 3,0 1,-1 4,0 1,-1 -1,0 -23,4 -39,10 39,-20 0,-5 1,-1 2,0 1,1 2,0 1,1 2,0 1,1 1,0 1,1 2,0 1,1 1,0 1,1 2,0 1,1 2,0 1,1 1,0 1,1 0,1 -25,-4 -39,20 -3,-37 -18,0 -1,-1 -1,0 -1,1 -1,0 0,1 -1,1 -1,1 -1,1 5,-4 1,0 17,1 1,0 1,-1 3,37 80,-25 1,1 0,0 1,-1 0,0 1,-1 1,0 0,-1 1,-1 1,-1 1,-1 1,-1 1,-1 1,0 1,-1 1,-1 1,-1 1,-1 2,0 0,-1 1,-1 1,-1 1,0 1,-1 1,-1 1,0 1,-1 1,0 0,-1 1,-1 1,-1 1,-1 1,0 0,-2 -1,1 0,0 -1,1 -2,0 -1,-1 -1,-1 -1,-1 -2,0 -1,-1 -1,1 -1,0 -1,1 -2,0 -1,1 -7,0 -1,-1 -1,0 -1,1 -9,0 -1,1 -13,0 -1,-1 -1,0 -1,-1 0,-2 -2,0 -1,-1 0,-1 -1,-1 0,-3 1,-1 0,-1 1,-1 0,-2 1,-1 0,-7 -1,-1 0,-4 -1,-1 0,-1 -1,-1 0,-5 1,-1 1,-1 6,0 1,-1 -15,0 5,1 0,0 1,1 -1,7 0,19 1,0 28,32 -80,25 51,-52 0,1 -1,1 -1,0 0,1 -1,1 -1,1 -5,0 -1,-1 -2,0 1,1 0,3 -1,1 -1,1 7,0 1,1 5,0 1,1 0,8 1,-7 0,-1 1,-1 15,0 1,1 0,1 1,1 0,7 -1,1 1,0 -1,1 -15,0 17,-6 0,-1 1,-1 4,0 1,-1 0,-7 1,-1 8,0 1,1 0,1 1,1 0,1 1,1 0,1 1,1 1,1 0,2 -1,1 -1,1 -1,1 -1,1 -1,1 -1,1 -1,0 -1,1 -1,0 0,1 -1,1 -1,1 0,1 1,-1 3,-3 5,-4 1,-1 1,-1 -41,-17 -51,52 84,-49 0,0 -84,49 -2,-35 0,0 -1,1 0,2 1,-2 0,-1 2,35Z"/>
<path onmouseover="hoverPath(evt)" onmouseout="recoverPath(evt)" fill="rgb(242,240,231)" d="M  136,94l 0,2 1,1 0,1 1,1 0,4 1,1 0,9 -1,1 0,2 -1,1 0,1 -1,1 0,1 1,1 0,1 2,0 1,1 0,2 1,0 1,1 11,0 1,-1 9,0 1,-1 0,-3 1,-1 2,0 1,1 0,4 5,0 1,-1 2,0 1,-1 1,0 1,-1 1,0 1,-1 1,0 1,-1 1,0 1,-1 1,0 1,-1 2,0 1,1 0,2 -1,1 4,0 1,-1 1,0 1,-1 1,-1 1,0 1,-1 1,0 1,-1 1,-1 1,0 1,-1 -1,0 -1,-1 -1,0 -1,-1 -1,-1 -1,0 -1,-1 -1,-1 -2,0 -1,-1 0,-1 -2,0 -1,-1 -1,0 -1,-1 -4,0 -1,-1 -5,0 -1,-1 -4,0 -1,-1 -2,0 -1,-1 -1,0 -1,-1 -1,0 -1,-1 -3,-3 -1,-1 0,-1 -1,-1 -1,-1 0,-1 -1,-1 0,-1 -5,0 -1,1 -8,0 -1,1 -6,0 -1,1Z"/>
<path onmouseover="hoverPath(evt)" onmouseout="recoverPath(evt)" fill="rgb(241,239,228)" d="M  158,78l 0,0 1,1 1,1 1,1 0,2 2,0 0,-3 1,-1 2,0 1,1 2,0 1,-1 3,0 1,1 0,-6 -1,0 -1,-1 0,-2 -1,-1 -2,0 -1,-1 -1,-1 0,-2 1,-1 -1,-1 0,-1 -1,-1 0,-1 -1,-1 0,-1 -1,-1 0,-1 -1,-1 0,-2 -1,-1 0,-2 -1,-1 0,-3 -1,0 -1,1 -1,0 -1,1 -1,1 -1,1 -1,1 -1,0 -1,1 -1,1 0,1 -1,1 -2,0 -1,1 -1,1 -1,1 -1,1 -1,0 -1,1 -1,1 -1,1 -1,1 -1,0 -1,1 -1,1 2,0 1,1 1,1 2,0 1,1 0,1 1,0 1,1 1,0 1,1 1,0 1,1 1,0 1,1 1,0 1,1 1,0 1,1 1,0 1,1 1,1 16,3 0,1 -1,1 -1,0 -1,1 -1,1 0,2 -1,1 -2,0 -1,-1 -3,0 2,1 0,0 1,1 1,1 0,1 1,1 1,1 1,1 0,1 1,0 1,1 3,0 1,1 3,0 1,1 4,0 1,1 5,0 1,1 2,0 1,1 1,0 1,1 1,0 1,1 2,0 1,1 0,-1 1,-1 0,-2 1,-1 0,-1 1,-1 0,-1 -1,-1 0,0 -1,1 -2,0 -1,-1 0,-2 -1,0 -1,-1 -1,0 -1,-1 -1,1 -2,0 -1,-1 0,-2 -1,-1 -2,0 -1,-1 0,-1 -1,-1 -1,-1 -1,-1 -1,0 -1,-1 -5,0 -1,-1 -2,0 -16,-3Z"/>
<path onmouseover="hoverPath(evt)" onmouseout="recoverPath(evt)" fill="rgb(248,235,139)" d="M  170,255l 20,0 0,-1 -1,-1 -1,-1 0,-1 -1,-1 0,-3 2,-2 1,0 2,-2 1,0 1,-1 1,0 1,-1 1,-1 1,0 1,-1 1,0 1,-1 1,-1 1,0 1,-1 1,-1 1,0 1,-1 1,0 1,-1 1,-1 1,0 1,-1 1,0 1,-1 1,-1 1,0 1,-1 2,0 1,1 0,-3 1,-1 1,0 1,-1 1,0 1,-1 1,-1 1,0 1,-1 1,0 1,-1 1,-1 1,0 1,-1 0,-2 1,-1 2,0 1,-1 2,0 1,1 0,-1 1,-1 0,-2 2,-2 2,0 1,1 1,0 0,-2 1,-1 3,0 1,1 1,1 1,1 0,1 1,0 0,-13 -1,0 -1,1 -1,0 -1,1 -1,1 -1,0 -1,1 -4,0 -1,-1 0,3 -1,1 -1,0 0,1 -1,1 -1,1 -1,0 -1,1 -1,1 -1,0 -1,1 -1,1 -1,0 -1,1 -1,0 -2,2 -1,0 -2,2 -1,0 -1,1 -6,0 -1,-1 -1,-1 0,-1 -1,-1 -1,-1 0,-2 1,-1 -1,-1 0,0 -1,-1 0,-1 -1,0 -1,-1 0,-2 -2,0 -1,-1 -1,-1 0,-1 -1,-1 -1,-1 0,-1 -1,-1 -1,-1 0,-2 1,-1 -4,0 0,1 -1,1 2,0 1,1 1,1 0,1 1,1 1,1 0,4 2,0 1,1 0,1 1,1 0,2 -1,1 3,0 1,1 0,1 1,1 1,1 0,1 1,1 1,1 0,2 -1,1 0,3 -1,1 -1,1 -3,0 -1,-1 -1,-1 -1,-1 -1,1 -1,0 1,1 0,0 1,1 0,2 -1,1 -1,0 0,1 -1,1 -1,1 -1,0 -1,1 -1,1 -1,0 -1,1 -1,0 -2,2 -1,0 0,1 -1,1 -2,0 -1,1 -1,0 -1,1 -1,1 -1,0 -1,1 -3,0 -1,-1 -1,0 -1,-1 0,-2 -1,-1 -2,0 -1,-1 0,-3 1,-1 1,-1 1,-1 -2,1 -1,0 -1,-1 -1,0 -1,-1 -1,-1 -1,-1 0,-1 -1,-1 -1,-1 -1,0 -1,-1 0,-2 -1,-1 -1,-1 -1,-1 -1,0 -1,-1 0,-2 -1,-1 -1,-1 -1,-1 -1,-1 0,-1 -1,-1 -1,-1 -1,-1 -1,0 -1,-1 0,-1 -1,-1 -1,-1 -1,-1 0,-2 -2,0 -1,-1 -2,0 -1,-1 -1,-1 -1,0 -1,-1 -1,0 -1,-1 -1,-1 0,-2 -1,0 -1,1 -1,1 -2,0 -1,-1 0,-1 -2,0 -1,-1 -1,0 -1,-1 -1,0 -1,-1 0,-2 -1,1 -5,0 -1,-1 -1,0 -1,-1 -1,-1 -5,0 -1,-1 -2,0 -1,-1 -2,0 -1,-1 -2,0 -1,-1 -2,0 -1,-1 -2,0 -1,-1 -2,0 -1,-1 0,-2 -2,0 -1,1 -7,0 -1,-1 0,-3 -4,0 -1,-1 -5,0 -1,-1 -5,0 -2,-2 -1,0 -1,-1 -1,0 -1,-1 -1,0 -1,-1 -4,0 -1,-1 -2,0 -1,-1 -3,0 -1,-1 -1,0 -1,-1 -2,0 -1,-1 -2,0 -1,-1 -2,0 -1,-1 -2,0 -1,-1 -2,0 -1,-1 0,-2 1,-1 1,-1 1,-1 0,-1 1,-1 4,0 1,-1 3,0 -1,-1 0,-2 1,-1 2,-2 0,-1 1,-1 2,0 1,-1 1,-1 0,-1 1,-1 2,0 1,-1 1,-1 1,-1 1,-1 1,0 1,-1 1,-1 1,-1 1,-1 1,0 1,-1 1,-1 1,0 0,-1 1,-1 0,-1 1,-1 1,0 0,-1 -1,0 -1,-1 0,-1 -3,0 -1,-1 -1,-1 0,-1 -1,-1 -1,-1 -1,-1 -1,-1 -1,-1 -1,-1 -1,-1 -1,-1 0,-1 -1,-1 -1,-1 -1,-1 -1,-1 -1,-1 -1,-1 -2,0 0,3 1,0 1,1 0,3 1,0 1,1 1,1 0,1 1,1 1,1 1,1 1,1 1,1 1,0 1,1 0,1 1,1 1,1 0,3 -1,1 -1,0 -2,2 0,1 -1,1 -2,0 -1,1 -1,1 -1,0 0,2 -1,1 -1,0 -1,1 -1,0 -1,1 -1,1 -1,0 -1,1 -1,1 0,1 -1,1 -2,0 -1,1 -1,1 0,1 -1,1 -1,0 -1,1 -1,0 -1,1 -1,1 0,1 -1,1 -2,0 -1,1 -1,1 -1,1 -4,0 -1,-1 -1,0 -1,-1 -1,0 -1,-1 -1,0 -1,-1 -1,0 -1,-1 -1,-1 -1,0 -1,-1 -2,0 0,27 2,0 1,-1 1,-1 1,-1 1,-1 1,0 1,-1 0,-1 1,-1 2,0 1,-1 5,0 1,1 2,0 1,1 2,0 1,1 2,0 1,1 2,0 1,1 3,0 1,1 2,0 1,1 1,0 1,1 3,0 1,1 1,0 1,1 1,0 1,-1 3,0 1,1 1,0 1,1 2,0 1,1 2,0 1,1 1,0 1,1 2,0 1,1 3,0 1,1 2,0 1,1 3,0 1,1 2,0 1,1 2,0 1,1 1,0 1,1 3,0 1,1 0,2 2,0 1,-1 2,0 1,1 1,0 1,1 2,0 1,1 1,0 1,1 0,3 -2,2 -3,0 -1,1 -3,0 -1,1 -1,0 -1,1 -7,0 -1,1 -4,0 -1,1 -4,0 -1,1 -3,0 -1,-1 0,-1 -2,0 -1,1 -7,0 0,2 -1,1 -6,0 -1,1 -4,0 -1,1 -4,0 -1,1 -4,0 -1,1 -4,0 -1,1 -5,0 -1,1 -4,0 -1,1 -4,0 -1,1 -4,0 -1,1 -3,0 -1,1 -3,0 0,4 3,0 1,1 3,0 1,-1 3,0 1,-1 4,0 0,-1 1,-1 3,0 1,1 0,3 1,0 1,-1 0,-2 1,-1 3,0 1,-1 4,0 1,-1 4,0 1,-1 4,0 1,-1 4,0 1,-1 4,0 1,-1 5,0 0,-1 1,-1 5,0 1,1 0,1 1,1 1,1 1,1 1,1 1,1 1,1 1,1 1,1 -7,-8 0,-2 1,-1 4,0 1,-1 5,0 1,-1 4,0 1,-1 4,0 1,-1 6,0 1,1 0,-1 1,-1 1,0 1,-1 3,0 1,-1 2,0 1,-1 1,0 1,-1 1,0 1,-1 4,0 1,1 2,0 1,1 2,0 1,1 2,0 1,1 7,0 1,1 0,2 1,0 1,1 1,0 1,1 1,0 1,1 1,1 1,1 0,2 3,0 1,1 0,2 -1,1 -1,1 -1,0 0,3 1,1 0,0 1,1 0,1 1,1 1,1 1,0 1,1 3,0 1,-1 3,0 1,1 1,1 1,1 1,0 1,1 0,2 1,1 1,1 1,1 1,0 1,1 0,2 1,1 1,0 1,1 0,2 1,1 1,1 1,1 0,1 1,1 1,1 1,1 0,2 -1,1 -1,1 -1,1 -1,0 -1,1 -1,1 -1,0 0,1 5,0 -31,-43 0,0 31,43 -34,-64 1,0 1,-1 1,-1 1,-1 1,-1 1,0 1,-1 -5,3 -1,1 -1,1 34,64 51,-26 -1,1 0,3 -1,1 -1,0 -1,1 0,1 1,1 0,-2 3,-5 0,-1 -51,26 73,-56 1,-1 0,-1 -1,1 0,1 -73,56Z"/>
<path onmouseover="hoverPath(evt)" onmouseout="recoverPath(evt)" fill="rgb(172,198,235)" d="M  211,118l 0,1 1,1 0,1 1,1 0,2 1,1 0,1 1,1 0,1 1,1 1,1 0,1 1,1 1,1 1,1 1,1 1,1 1,1 1,1 1,1 1,1 1,1 1,1 1,1 1,1 1,1 1,1 1,1 1,1 1,1 1,1 7,0 -5,-1 0,0 -1,-1 -1,-1 -1,-1 -1,-1 -1,-1 -1,-1 -1,-1 -1,-1 -1,-1 -1,-1 -1,-1 -1,-1 -1,-1 -1,-1 -1,-1 -1,-1 0,-1 -1,-1 -1,-1 -1,-1 0,-1 -1,-1 -1,-1 0,-2 -1,-1 0,-1 -1,-1 0,-1 -1,-1 0,-2 -2,0 -1,1Z"/>
<path onmouseover="hoverPath(evt)" onmouseout="recoverPath(evt)" fill="rgb(243,242,233)" d="M  0,223l 0,32 62,0 0,-3 1,-1 1,-1 -1,-1 0,-2 1,-1 0,-1 1,-1 2,0 0,-1 1,-1 0,-1 1,-1 0,-2 1,-1 0,-1 1,-1 0,-1 1,-1 0,-3 1,-1 0,-4 -1,-1 0,0 -1,-1 -1,-1 -1,-1 -1,-1 -1,-1 -1,-1 -1,0 -1,-1 -1,-1 -1,-1 -1,-1 -1,-1 -1,-1 -5,0 -1,1 -4,0 -1,1 -4,0 -1,1 -4,0 -1,1 -4,0 -1,1 -4,0 -1,1 -3,0 0,2 -1,1 -1,1 -3,0 -1,-1 0,-3 -1,0 0,1 -1,1 -4,0 -1,1 -3,0 -1,1 -5,0 -1,-1 -2,0 0,2 5,23 0,-2 1,-1 2,0 1,1 0,2 -1,1 -2,0 -1,-1 -5,-23Z"/>
<path onmouseover="hoverPath(evt)" onmouseout="recoverPath(evt)" fill="rgb(241,239,228)" d="M  57,135l 1,-1 3,0 1,1 16,0 0,-2 -1,0 -1,-1 -2,0 -1,-1 -2,0 -1,-1 -1,0 -1,-1 -2,0 -1,-1 -1,0 -1,-1 -1,0 0,1 -1,1 -1,0 -1,1 -1,1 -1,0 -1,1 -1,1 -2,2 -1,0 -2,2 -1,1 -1,1 -2,0 0,1 -2,2 -1,1 -2,0 0,1 -1,1 -1,1 -1,1 1,1 0,2 2,0 1,1 2,0 1,1 2,0 1,1 2,0 1,1 2,0 1,1 2,0 1,1 3,0 1,1 0,2 7,0 0,-2 1,-1 1,0 1,-1 5,0 1,1 8,0 1,-1 0,-3 -1,0 -1,-1 -1,-1 -5,0 -1,-1 0,-3 -1,-1 0,-2 1,-1 0,-2 -1,0 -1,-1 -16,0 -1,1 -1,1 -1,1 -1,1 -2,0 -1,-1 0,-2 1,-1 1,-1 1,-1 0,-1 1,-1Z"/>
<path onmouseover="hoverPath(evt)" onmouseout="recoverPath(evt)" fill="rgb(237,233,219)" d="M  139,143l 11,0 1,-1 0,-5 -1,-1 0,-1 -13,0 0,1 -1,1 0,5 1,1Z"/>
<path onmouseover="hoverPath(evt)" onmouseout="recoverPath(evt)" fill="rgb(197,219,161)" d="M  181,30l 0,0 -1,1 -1,0 -1,1 0,1 -1,1 -1,0 -1,1 -5,0 1,1 0,1 1,1 0,11 27,0 1,1 10,0 1,1 5,0 1,-1 4,0 1,-1 6,0 1,1 2,0 1,-1 2,0 1,1 2,0 0,-3 1,-1 0,-1 1,-1 0,-2 1,-1 0,-2 1,-1 0,-1 1,-1 0,-2 1,-1 0,-2 1,-1 0,-2 1,-1 0,-1 1,-1 0,-1 -11,0 -1,-1 0,-1 -1,-1 -2,0 -1,1 0,0 -1,1 -3,0 -1,1 -2,0 -1,1 -2,0 -1,1 -3,0 -1,1 -7,0 -1,-1 0,-1 -1,0 -1,-1 -1,0 -1,-1 -1,-1 0,-1 -1,-1 0,-2 -1,0 -1,-1 0,-1 -2,0 0,1 -1,1 -1,1 -1,1 -1,1 -1,0 -1,1 0,4 -1,1 -2,0 -1,-1 -3,0 -1,1 0,1 -2,2Z"/>
</svg>