<svg width="256" height="256" xmlns="http://www.w3.org/2000/svg"><script> 
var tempColor;
function hoverPath(evt){
obj = evt.target;
tempColor = obj.getAttribute("fill");
obj.setAttribute("fill","red");
//alert(tempColor);
//obj.setAttribute("stroke","red");}
function recoverPath(evt){
obj = evt.target;
obj.setAttribute("fill", tempColor);
//obj.setAttribute("stroke", tempColor);
}</script><path onmouseover="hoverPath(evt)" onmouseout="recoverPath(evt)" fill="rgb(244,243,236)" d="M  0,1l 0,63 2,0 1,1 1,1 1,1 1,1 2,2 0,1 1,0 1,1 1,0 1,1 0,1 1,0 1,1 1,1 1,1 1,1 1,1 1,1 1,1 1,1 0,1 1,0 1,1 1,0 1,1 0,1 1,0 1,1 1,1 1,1 1,1 1,1 1,1 1,1 1,1 0,1 1,0 1,1 1,0 1,1 0,1 1,0 1,1 1,1 1,1 1,1 1,1 1,1 1,1 0,1 1,0 1,1 1,0 1,1 0,1 1,0 1,1 1,1 1,1 1,1 1,1 1,1 1,1 0,1 1,0 1,1 1,0 1,1 0,1 1,0 1,1 1,1 1,1 1,1 1,1 1,1 1,1 0,1 1,0 1,1 1,0 1,1 0,1 1,0 1,1 1,1 1,1 1,1 1,1 1,1 1,1 1,1 0,1 1,0 1,1 1,0 1,1 0,1 1,0 1,1 1,1 1,1 1,1 1,1 1,1 1,1 1,1 1,1 1,1 0,1 1,0 1,1 1,0 1,1 0,1 1,0 2,2 1,1 1,1 1,1 1,1 1,1 1,1 1,1 1,1 0,1 1,0 1,1 1,0 1,1 0,1 1,0 1,1 1,1 1,1 1,1 1,1 1,1 1,1 1,1 1,1 0,1 2,0 1,1 0,1 1,0 1,1 1,1 1,1 1,1 1,1 1,1 1,1 0,1 1,0 1,1 1,-1 2,0 1,1 1,1 1,1 1,0 1,-1 1,0 1,-1 1,0 1,-1 2,0 1,1 1,-1 1,-1 1,-1 2,0 0,-1 1,-1 1,-1 1,-1 1,-1 1,0 1,-1 1,-1 1,-1 1,-1 1,0 1,-1 2,-2 2,0 0,-1 1,-1 1,-1 1,-1 1,0 1,-1 1,-1 1,-1 2,0 0,-1 2,-2 0,-2 1,-1 1,-1 1,-1 0,-1 1,-1 2,0 1,-1 1,-1 0,-1 1,-1 2,0 1,-1 1,-1 0,-1 1,-1 2,0 1,-1 1,-1 1,-1 1,0 1,-1 1,-1 2,-2 0,-1 -1,-1 -1,0 -1,-1 0,-1 -1,0 -1,-1 -1,-1 -1,-1 -1,-1 -1,-1 -1,-1 -1,-1 -1,0 -1,-1 -1,0 -1,-1 0,-1 -1,-1 -1,-1 -1,-1 -1,-1 -1,-1 -1,0 -1,-1 0,-1 -1,0 -1,-1 -1,0 -1,-1 0,-1 -1,-1 -1,-1 -1,-1 -1,-1 -1,-1 -1,-1 -1,-1 -1,-1 -1,-1 -1,-1 -1,-1 -1,0 -1,-1 -1,-1 0,-1 -1,0 -1,-1 -1,0 -1,-1 0,-1 -1,-1 -1,-1 -1,-1 -2,-2 -1,-1 -1,-1 -1,-1 -1,-1 -1,-1 -1,-1 -1,0 -1,-1 -1,-1 0,-1 -1,0 -1,-1 -1,-1 -1,0 -1,-1 0,-1 -1,-1 -1,-1 -1,-1 -1,-1 -1,-1 -1,-1 -1,-1 -1,0 -1,-1 0,-1 -2,0 -1,-1 0,-1 -1,-1 -1,-1 -1,-1 -1,-1 -1,-1 -1,-1 -1,0 -1,-1 0,-1 -2,0 -1,-1 0,-1 -1,-1 -1,-1 -1,-1 -1,-1 -1,-1 -1,-1 -1,-1 -1,0 -1,-1 0,-1 -2,0 -1,-1 0,-1 -1,-1 -1,-1 -1,-1 -1,-1 -1,-1 -1,-1 -1,-1 -1,0 -1,-1 -1,-1 -1,0 -1,-1 0,-1 -1,-1 -2,-2 -1,-1 -1,-1 -1,-1 -1,0 -1,-1 0,-1 -2,0 -1,-1 0,-1 -1,-1 -1,-1 -1,-1 -1,-1 -1,-1 -1,-1 -1,-1 -1,0 -1,-1 0,-1 -2,0 -1,-1 0,-1 -1,-1 -1,-1 -1,-1 -1,-1 -1,-1 -1,-1 -1,-1 -1,0 -1,-1 0,-1 -2,0 -1,-1 0,-1 -1,-1 -5,-5 -1,-1 -1,0 -1,-1 -1,-1 0,-2 -54,0 -1,1Z"/>
<path onmouseover="hoverPath(evt)" onmouseout="recoverPath(evt)" fill="rgb(244,243,236)" d="M  0,69l 0,186 75,0 0,-2 1,-1 1,0 1,-1 1,0 0,-1 1,-1 1,0 1,-1 1,-1 1,-1 1,0 0,-1 1,-1 1,0 1,-1 1,-1 1,-1 1,0 1,-1 1,-1 1,-1 0,-1 1,-1 2,0 1,-1 1,-1 1,-1 1,-1 1,0 1,-1 1,-1 1,-1 0,-1 1,-1 2,0 1,-1 1,-1 0,-1 1,-1 2,0 1,-1 1,-1 2,-2 1,0 1,-1 1,-1 1,-1 0,-1 1,-1 2,0 1,-1 1,-1 0,-1 1,-1 2,0 1,-1 1,-1 0,-1 1,-1 2,0 1,-1 1,-1 0,-1 1,-1 2,0 1,-1 0,-1 1,-1 1,-1 1,0 -1,-1 0,-1 -1,0 -1,-1 0,-1 -1,0 -1,-1 -1,0 -1,-1 0,-1 -1,-1 -1,-1 -1,-1 -1,-1 -1,-1 -1,-1 -1,0 -1,-1 0,-1 -2,0 -1,-1 0,-1 -1,-1 -1,-1 -1,-1 -1,-1 -1,-1 -1,-1 -1,-1 -1,-1 -1,0 -1,-1 0,-1 -1,0 -1,-1 -1,0 -1,-1 0,-1 -1,-1 -1,-1 -1,-1 -1,-1 -1,-1 -1,-1 -1,-1 -1,-1 -1,-1 -1,0 -1,-1 0,-1 -1,0 -1,-1 -1,0 -1,-1 0,-1 -1,-1 -1,-1 -1,-1 -1,-1 -1,-1 -1,-1 -1,-1 -1,-1 -1,-1 -1,0 -1,-1 0,-1 -1,0 -1,-1 -1,0 -1,-1 0,-1 -1,-1 -1,-1 -1,-1 -1,-1 -1,-1 -1,-1 -1,-1 -1,0 -1,-1 0,-1 -1,0 -1,-1 -1,0 -1,-1 0,-1 -1,-1 -1,-1 -1,-1 -1,-1 -1,-1 -1,-1 -1,0 -1,-1 0,-1 -1,0 -1,-1 -1,0 -1,-1 0,-1 -1,-1 -1,-1 -1,-1 -1,-1 -1,-1 -1,-1 -1,0 -1,-1 0,-1 -1,0 -1,-1 -1,0 -1,-1 0,-1 -1,-1 -1,-1 -1,-1 -1,-1 -1,-1 -1,-1 -1,0 -1,-1 0,-1 -1,0 -1,-1 -1,0 -1,-1 0,-1 -1,-1 -1,-1 -1,-1 -1,-1 -1,-1 -1,-1 -1,-1 -1,0 -1,-1 0,-1 -1,0 -1,-1 -1,0 -1,-1 0,-1 -1,-1 -1,-1 -1,-1 -3,-3 -1,-1 -1,0 -1,-1 0,-1 -1,0 -1,-1 -1,0 -1,-1 0,-1 -1,-1 -1,-1 -1,-1 -1,-1 -1,-1 -1,0Z"/>
<path onmouseover="hoverPath(evt)" onmouseout="recoverPath(evt)" fill="rgb(244,243,236)" d="M  63,0l -6,0 0,1 1,1 1,0 1,1 1,1 1,1 1,1 1,1 1,1 1,1 1,1 0,1 2,0 1,1 0,1 1,0 1,1 1,1 1,1 1,1 1,1 1,1 1,1 1,1 0,1 2,0 1,1 0,1 1,0 1,1 2,2 1,1 4,4 0,1 2,0 1,1 0,1 1,0 1,1 1,1 1,1 1,1 1,1 1,1 1,1 0,1 1,0 1,1 1,1 1,0 1,1 1,1 1,1 1,1 1,1 1,1 1,1 1,1 0,1 2,0 1,1 0,1 1,0 1,1 1,1 1,1 1,1 1,1 1,1 1,1 1,1 0,1 2,0 1,1 0,1 1,0 1,1 1,1 1,1 1,1 1,1 1,1 1,1 0,1 2,0 1,1 0,1 1,0 1,1 1,1 1,1 1,1 1,1 1,1 1,1 1,1 0,1 1,0 1,1 1,1 1,0 1,1 0,1 1,1 1,0 1,1 1,1 1,1 1,1 1,1 1,1 1,1 3,3 1,1 1,1 0,1 1,0 1,1 1,0 1,1 0,1 1,1 1,0 1,1 1,1 1,1 1,1 1,1 1,1 1,1 1,1 1,1 1,1 1,1 1,1 0,1 1,0 1,1 1,0 1,1 0,1 1,0 1,1 1,1 1,1 1,1 1,1 1,1 0,1 1,0 1,1 1,0 1,1 1,1 1,1 1,1 1,1 1,1 1,1 1,0 1,1 0,1 1,0 1,1 1,1 0,3 -1,1 -1,1 -1,1 -1,1 0,0 -1,1 -1,0 -1,1 -1,1 -1,1 -2,0 0,1 -1,1 -1,1 -1,1 -2,0 0,1 -1,1 -1,1 -1,1 -2,0 0,1 -1,1 -1,1 -1,1 25,-22 1,0 1,-1 1,-1 1,0 0,-2 1,-1 1,-1 2,0 1,1 1,-1 0,0 1,-1 1,-1 2,0 0,-1 1,-1 1,-1 1,-1 1,0 1,-1 1,-1 1,-1 1,-1 1,0 1,-1 1,-1 1,-1 2,0 0,-1 1,-1 4,-4 1,0 1,-1 1,-1 1,-1 1,-1 1,-1 3,0 0,-54 -2,0 -1,-1 -1,-1 -1,0 -1,1 -2,0 -1,-1 -1,0 -1,-1 0,-1 -1,-1 -1,-1 -1,-1 -1,-1 -1,-1 -1,-1 -1,-1 -1,-1 -1,0 -1,-1 0,-3 1,-1 1,0 1,-1 -1,-1 -1,-1 -1,-1 -1,-1 -1,-1 -1,-1 -1,-1 -1,-1 -1,-1 -1,-1 -1,-1 -1,-1 -1,-1 -1,-1 -1,-1 -1,-1 -1,-1 -1,0 -1,-1 0,-1 -1,-1 -1,-1 -1,-1 -1,-1 -1,0 -1,-1 -1,-1 -1,-1 -1,-1 -1,-1 -1,-1 -1,0 -1,-1 0,-1 -1,-1 -1,-1 -1,-1 -1,-1 -1,0 -1,-1 -1,-1 -1,-1 -1,-1 -1,-1 0,-2Z"/>
<path onmouseover="hoverPath(evt)" onmouseout="recoverPath(evt)" fill="rgb(244,243,236)" d="M  85,248l 0,0 -1,1 -1,1 -1,1 -1,0 0,1 -1,1 -1,0 -1,1 -1,0 0,1 178,0 0,-139 -2,0 -1,1 0,0 -1,1 -1,1 -1,1 -1,1 -1,0 -1,1 -1,1 -1,1 -1,1 0,1 -1,1 -2,0 -1,1 -1,1 -1,1 -1,0 -1,1 -1,1 -1,1 -1,1 -1,0 -1,1 -1,1 0,1 -1,1 -2,0 -1,1 -1,1 -1,1 -2,0 -1,-1 -1,1 0,2 -1,1 -1,0 -1,1 -1,1 -1,0 0,1 -1,1 -1,1 -1,1 -1,1 0,1 -1,1 -2,0 -1,1 -1,1 -1,1 -1,0 -1,1 -1,1 -1,1 -1,1 -1,0 -1,1 -1,1 -1,1 -1,1 -1,0 -1,1 -1,1 -1,1 -1,1 -1,0 -1,1 -1,1 0,1 -1,1 -2,0 -2,2 -1,1 -1,0 -1,1 -1,1 0,1 -1,1 -2,0 -1,1 -1,1 -1,1 -1,0 -1,1 -1,1 -1,1 -1,1 -1,0 -1,1 -1,1 -1,1 0,1 -1,1 -2,0 -1,1 -1,1 -1,1 -2,0 -1,-1 -1,1 -1,0 -1,1 -1,0 -1,1 -3,0 -1,-1 -1,-1 -1,-1 0,1 2,2 1,1 0,2 -1,1 -1,0 -1,1 0,1 -1,1 -1,1 -2,0 0,1 -1,1 -1,1 -1,1 -2,0 0,1 -1,1 -1,1 -1,1 -2,0 0,1 -1,1 -1,1 -1,1 -2,0 0,1 -1,1 -1,1 -1,1 -1,1 -1,0 -1,1 -1,1 -1,1 -1,1 -2,0 0,1 -1,1 -1,1 -1,1 -2,0 0,1 -1,1 -1,1 -1,1 -1,1 -1,0 -2,2 -1,1 -1,1 -2,0 0,1 -2,2 -1,1 -1,1 -1,0 -1,1 -2,2 -1,0 0,1 -1,1Z"/>
<path onmouseover="hoverPath(evt)" onmouseout="recoverPath(evt)" fill="rgb(177,201,238)" d="M  197,1l 1,1 1,1 1,1 1,1 1,0 1,1 1,1 1,1 1,1 1,1 0,1 1,0 1,1 1,1 2,2 1,1 1,1 1,0 1,1 1,1 1,1 1,1 1,1 0,1 1,0 1,1 1,1 1,1 1,1 1,1 1,1 1,1 1,1 1,1 1,1 1,1 1,1 1,1 1,1 1,1 1,1 1,1 1,1 0,2 -1,1 -1,1 -1,0 0,1 1,0 1,1 1,1 7,7 0,1 1,0 1,1 1,-1 3,0 1,1 1,1 1,0 0,-9 -2,0 -1,-1 -1,-1 -1,-1 0,-1 -1,-1 -1,-1 -1,-1 -1,-1 -1,-1 -1,-1 -1,-1 -1,-1 -1,-1 -1,-1 -1,-1 -1,-1 -1,-1 -1,-1 -1,-1 -1,-1 -1,-1 -1,-1 -2,-2 -1,-1 -1,-1 -1,-1 -1,0 -1,-1 -1,-1 -1,-1 -1,-1 -1,-1 -1,-1 -1,-1 -1,-1 -1,-1 -1,-1 -1,-1 -1,-1 -1,0 -1,-1 -1,-1 -1,-1 -1,-1 -1,-1 -1,-1 -1,-1 -1,-1 0,-2 -7,0 -1,1Z"/>
<path onmouseover="hoverPath(evt)" onmouseout="recoverPath(evt)" fill="rgb(245,244,237)" d="M  207,1l 1,1 1,1 1,1 1,1 1,1 1,1 1,1 1,0 3,3 1,1 2,2 1,1 1,1 1,1 1,1 1,1 1,1 1,0 1,1 1,1 1,1 1,1 1,1 1,1 1,1 1,1 2,2 1,1 1,1 1,1 1,1 1,1 1,1 1,1 1,1 2,2 1,1 1,1 1,1 1,1 0,1 2,2 1,0 0,-47 -47,0 -1,1Z"/>
</svg>