<svg width="256" height="256" xmlns="http://www.w3.org/2000/svg"><script> 
var tempColor;
function hoverPath(evt){
obj = evt.target;
tempColor = obj.getAttribute("fill");
obj.setAttribute("fill","red");
//alert(tempColor);
//obj.setAttribute("stroke","red");}
function recoverPath(evt){
obj = evt.target;
obj.setAttribute("fill", tempColor);
//obj.setAttribute("stroke", tempColor);
}</script><path onmouseover="hoverPath(evt)" onmouseout="recoverPath(evt)" fill="rgb(246,237,151)" d="M  38,72l 0,0 -1,1 0,1 1,1 0,1 1,1 0,2 1,1 0,1 1,1 0,2 1,1 0,1 1,1 0,2 1,1 0,2 1,1 0,2 1,1 0,1 1,1 0,2 1,1 0,2 1,1 0,2 1,0 1,1 0,2 -1,1 -3,0 -1,1 1,0 4,-1 1,1 0,3 1,1 0,1 1,1 0,2 1,1 0,2 1,1 0,4 -1,1 2,0 1,1 0,1 1,1 0,2 1,1 0,2 1,1 0,1 1,1 0,2 1,1 0,2 1,1 0,1 1,1 0,2 1,1 0,2 1,1 0,1 1,1 0,2 1,0 1,1 0,5 1,1 0,1 1,0 1,1 0,2 1,1 0,1 1,1 1,1 0,2 -1,1 0,1 1,1 0,2 1,1 0,5 -1,1 -1,0 -1,1 4,0 1,1 0,1 1,1 0,3 1,1 0,3 1,1 0,4 1,1 0,3 1,1 0,3 -1,1 -1,1 -3,0 -1,1 0,2 -1,1 2,-2 5,0 1,1 0,1 1,1 0,3 1,1 0,4 2,0 1,1 0,4 5,0 0,-1 1,-1 0,-4 1,-1 0,-1 1,-1 4,0 -1,-1 0,-1 -6,0 -1,-1 0,-7 -1,-1 0,-5 -1,-1 -1,0 -1,-1 0,-3 1,-1 3,0 -4,-1 0,-1 -1,-1 0,-2 -1,-1 0,-3 -2,0 -1,-1 0,-4 -1,-1 0,-3 1,-1 -1,-1 0,-2 -1,-1 0,-3 -1,-1 0,-2 -1,-1 0,-2 -1,-1 0,-2 -1,-1 0,-2 1,-1 4,0 1,-1 4,0 1,-1 4,0 0,-1 1,-1 3,0 1,1 0,2 1,-3 8,0 1,1 1,1 0,-2 1,-1 1,0 1,-1 3,0 1,-1 4,0 1,-1 4,0 1,-1 4,0 1,-1 4,0 1,-1 5,0 1,-1 4,0 1,-1 4,0 1,-1 4,0 1,-1 4,0 1,-1 4,0 0,-1 1,-1 2,0 1,-1 2,0 1,1 4,0 1,-1 5,0 1,1 0,1 1,1 0,-3 1,-1 1,0 1,-1 4,0 1,-1 5,0 1,-1 4,0 1,-1 5,0 1,-1 4,0 0,-1 1,-1 1,0 1,-1 6,0 1,-1 1,0 1,-1 1,0 1,-1 1,0 1,-1 2,0 1,-1 2,0 1,-1 2,0 0,-1 1,-1 2,0 1,1 1,1 1,1 0,1 1,1 0,1 1,1 -3,-6 0,-1 1,-1 2,0 1,-1 1,0 1,-1 2,0 1,-1 2,0 0,-6 -5,0 -1,1 -1,0 0,1 -1,1 -2,0 -1,1 -2,0 -1,1 -1,0 -1,1 -2,0 -1,1 -2,0 -1,1 -1,0 -1,1 -2,0 -1,1 -2,0 -1,1 -1,0 -1,1 -2,0 0,1 -1,1 -1,0 -1,1 -8,0 -1,1 -4,0 -1,1 -4,0 -1,1 -3,0 -1,1 -6,0 -1,-1 0,-1 -1,-1 0,-1 -1,-1 0,-1 2,6 -1,1 -2,0 -1,1 -4,0 -1,1 -5,0 -1,1 -4,0 -1,1 -4,0 -1,1 -4,0 -1,1 -6,0 -1,-1 0,-1 -1,0 -1,1 0,1 -1,1 -1,1 -5,0 -1,1 -3,0 -1,1 -5,0 -1,1 -3,0 -1,1 -6,0 -1,1 -3,0 -1,1 -4,0 -1,-1 0,-1 -1,-1 0,-1 -1,-1 0,-1 -1,0 1,2 0,2 -1,1 -4,0 -1,1 -2,0 -1,-1 0,-3 1,-1 -3,0 -1,1 1,0 1,1 0,2 1,1 0,2 -1,1 -3,0 -1,1 -4,0 -1,1 -4,0 -1,1 -4,0 -1,1 -3,0 -1,-1 0,-1 -1,-1 0,-1 -1,-1 0,-1 -1,-1 0,-2 -1,-1 0,-1 -1,-1 0,-2 -1,-1 0,-2 -1,-1 0,-2 -1,-1 0,-1 -1,-1 0,-2 -1,-1 0,-2 -1,-1 0,-1 -1,-1 0,-2 -1,-1 0,-2 -1,-1 0,-2 -1,-1 0,-1 -1,-1 0,-2 -1,-1 0,-2 -1,0 -1,-1 0,-4 -1,-1 0,-2 -1,-1 0,-1 -1,-1 0,-2 -1,-1 0,-2 -1,-1 0,-1 -1,-1 0,-2 -1,-1 0,-2 -1,-1 0,-2 -1,-1 0,-2 -1,-1 0,-1 -1,-1 0,-2 -1,-1 0,-6 -2,0 -1,-1 0,-2 1,-1 -1,0 -1,-1 0,0 -1,-1 0,-2 -1,-1 0,-2 -1,-1 0,-1 -1,-1 0,-6 1,-1 3,0 1,-1 3,0 1,-1 4,0 1,-1 5,0 1,1 13,0 -7,-1 0,0 -1,-1 0,-2 -1,-1 0,3 -1,1 -3,0 -19,30 0,-2 -1,-1 0,-3 -1,-1 0,0 2,6 0,1 -3,-7 -1,-1 0,0 1,1 3,7 -5,-9 0,-1 -1,-1 0,-2 -1,-1 0,-2 -1,-1 0,-2 -1,-1 0,-2 -1,-1 0,-1 -1,-1 0,-2 -1,-1 0,-2 -1,-1 0,-1 -1,-1 0,-2 -1,-1 0,-1 -1,-1 0,-2 -1,-1 0,-2 -1,-1 0,-2 -1,-1 0,-4 -1,-1 0,-1 -1,-1 0,0 16,45 5,9 -22,-55 0,-1 -1,-1 0,-2 -1,-1 0,-2 -1,-1 0,-1 -1,-1 0,-2 -1,-1 0,-1 -1,-1 0,0 6,15 22,55 -28,-72 -4,0 0,2 3,0 1,-2 28,72 7,-31 0,-2 -1,-1 0,-2 -2,0 -1,-1 -1,-1 -4,0 -1,-1 -1,-1 0,-6 1,-1 0,-4 1,-1 1,-1 -1,-1 0,-3 -2,0 -1,-1 -5,0 -1,-1 -3,0 -1,-1 -1,-1 0,-1 -1,-1 0,-2 -1,-1 0,-1 -1,-1 0,-4 -5,0 31,41 -7,31Z"/>
<path onmouseover="hoverPath(evt)" onmouseout="recoverPath(evt)" fill="rgb(242,242,234)" d="M  0,81l 0,89 5,0 1,-1 4,0 1,-1 4,0 1,-1 4,0 1,-1 4,0 1,-1 4,0 1,-1 5,0 1,-1 4,0 1,-1 3,0 1,-1 3,0 0,-6 1,-1 2,0 1,1 0,3 1,1 1,1 1,0 1,-1 3,0 1,-1 3,0 1,-1 1,0 0,-1 -1,-1 0,-1 -1,-1 0,-2 -1,-1 0,-2 -1,-1 0,-1 -1,-1 0,-2 -1,-1 0,-2 -1,-1 0,-1 -1,-1 0,-2 -1,-1 0,-2 -1,-1 0,-1 -4,0 -1,1 -3,0 -1,1 -1,0 0,1 1,1 0,5 -1,1 -2,0 -1,-1 0,-1 -5,0 -1,1 -4,0 -1,1 -5,0 -1,1 -9,0 -1,-1 -1,-1 0,-5 1,-1 4,0 1,-1 4,0 1,-1 3,0 1,-1 4,0 1,-1 4,0 1,-1 2,0 1,-1 7,0 1,-1 3,0 0,-2 -1,-1 0,-2 -1,-1 0,-2 -1,-1 0,-1 -1,-1 0,-3 -1,0 -1,1 -6,0 -1,-1 0,-2 1,-1 3,0 1,-1 3,0 -2,-1 0,-2 -1,-1 0,-2 -1,-1 0,-2 -1,-1 0,-1 -1,-1 0,-2 -1,-1 0,-2 -1,-1 0,-2 -1,-1 0,-1 -1,-1 0,-2 -1,-1 0,-1 -1,-1 0,-2 -1,-1 0,-1 -1,-1 0,-2 -1,1 -1,0 -1,1 -4,0 -1,1 -4,0 -1,1 -3,0 -1,1 -3,0 -1,1 -4,0 -1,1 -2,0 -1,-1 0,-2 1,-1 0,-1 1,-1 0,-1 -2,0 -1,-1 -5,0Z"/>
<path onmouseover="hoverPath(evt)" onmouseout="recoverPath(evt)" fill="rgb(244,242,234)" d="M  0,234l 0,21 55,0 0,-2 1,-1 1,0 1,-1 1,0 1,-1 1,0 1,-1 1,0 1,-1 1,0 1,-1 1,0 1,-1 1,0 1,-1 1,0 1,-1 1,0 1,-1 1,-1 2,0 0,-1 1,-1 1,-1 1,-1 1,-1 1,0 1,-1 1,-1 1,-1 1,-1 0,-6 -1,-1 0,-4 -1,-1 0,-3 -1,-1 0,-1 -3,0 -1,1 -1,1 -2,0 -1,-1 0,-2 1,-1 0,-2 1,-1 1,-1 3,0 1,-1 0,-1 -1,-1 0,-3 -1,-1 0,-4 -1,-1 0,-3 -1,-1 0,-3 -1,-1 0,-1 -6,0 -1,-1 0,-2 1,-1 2,0 1,-1 1,0 0,-3 -1,-1 0,-2 -1,-1 0,-3 1,-1 -1,-1 -1,-1 0,-1 -1,-1 0,-2 -1,0 -1,-1 0,-1 -1,-1 -1,0 -1,-1 -3,0 -1,1 -3,0 -1,1 -4,0 -1,1 -4,0 -1,1 -4,0 -1,1 -4,0 -1,1 -4,0 -1,1 -4,0 -1,1 -5,0 -1,1 -4,0 -1,1 -4,0 -1,1 -4,0 -1,1 -4,0 -1,1 -2,0Z"/>
<path onmouseover="hoverPath(evt)" onmouseout="recoverPath(evt)" fill="rgb(243,241,233)" d="M  69,68l 0,3 1,1 0,3 1,1 0,4 -1,1 0,6 1,1 0,4 -1,1 0,2 2,0 1,1 0,2 1,1 1,1 2,0 1,1 2,0 0,-2 1,-1 4,0 1,-1 3,0 1,-1 4,0 1,-1 3,0 1,-1 4,0 1,-1 4,0 1,-1 2,0 0,-4 -1,-1 0,-2 -1,-1 0,-3 -1,-1 -1,-1 0,-1 -1,-1 0,-2 -1,-1 0,-2 -1,-1 0,-2 -1,-1 0,-2 -1,-1 0,-2 -1,-1 0,-2 -3,0 0,2 -1,1 -4,0 -1,1 -4,0 -1,1 -4,0 -1,1 -7,0 -1,-1 -6,0 0,2 1,1Z"/>
<path onmouseover="hoverPath(evt)" onmouseout="recoverPath(evt)" fill="rgb(241,241,231)" d="M  171,34l -1,0 -1,1 0,3 -1,1 1,1 2,0 1,1 0,2 -1,1 1,1 2,0 1,1 0,2 -1,1 1,1 0,0 1,1 0,1 1,1 0,1 1,1 2,0 1,1 0,2 -1,1 1,1 0,0 1,1 0,1 1,1 1,1 0,1 2,0 1,1 0,2 -1,1 1,1 0,0 1,1 0,1 2,0 1,1 0,2 -1,1 1,1 2,0 1,-1 1,0 1,-1 2,0 1,-1 1,0 1,-1 2,0 1,-1 0,-2 1,-1 1,-1 6,0 1,1 1,-1 2,0 1,-1 2,0 0,-2 1,-1 2,0 1,1 4,0 1,1 2,0 1,-1 0,-2 1,-1 3,0 1,1 1,0 1,-1 1,0 0,-2 1,-1 2,0 0,-1 1,-1 -1,-1 0,-8 1,-1 2,0 1,1 0,3 1,1 0,1 1,1 0,4 1,0 0,-2 -1,-3 0,-2 -1,-1 0,-3 1,-1 1,-1 1,0 1,-1 1,0 1,-1 2,0 0,-20 -2,0 -1,1 -2,0 -1,1 -1,0 -1,1 -4,0 -1,-1 -2,0 -1,1 -2,0 -1,-1 0,-2 1,-1 -1,-1 -1,-1 0,-1 -1,0 -1,-1 -1,-1 -1,-1 0,-1 -2,0 -1,-1 -1,-1 -1,1 -2,0 -1,-1 -1,-1 0,-2 -1,-1 -1,-1 -1,1 -2,0 -1,-1 -1,-1 -1,0 -1,-1 -1,0 -1,-1 -1,0 -1,1 -1,1 0,1 -1,1 -1,0 0,1 -1,1 -1,1 -1,1 0,1 -1,1 -1,1 -3,0 -1,1 0,2 -1,1 -1,0 -1,1 -1,1 -5,0 -1,-1 0,-3 -1,0 -1,-1 -1,1 0,0 -1,1 -1,0 -1,1 -1,1 -1,0 -1,1 -1,1 -1,0 -1,1 -1,1 0,3 1,1 0,2 -1,1 -1,1 -1,0 -1,1 35,33 0,-1 -1,-1 0,-1 -1,-1 0,-1 -1,-1 0,-1 -1,-1 0,0 4,8 -35,-33 30,25 -1,0 -1,1 0,0 2,-1 -30,-25 28,27 0,1 1,1 0,1 1,1 0,1 1,1 0,1 1,1 0,0 -4,-8 -28,-27 33,35 0,0 -33,-35Z"/>
<path onmouseover="hoverPath(evt)" onmouseout="recoverPath(evt)" fill="rgb(242,241,232)" d="M  209,107l 0,1 1,1 0,1 1,1 1,1 0,1 3,0 1,-1 2,0 1,1 0,2 -1,1 -1,0 -1,1 -1,0 0,2 2,0 1,1 0,2 -1,1 1,1 0,1 1,1 0,-1 1,-1 2,0 1,-1 1,0 1,-1 2,0 1,-1 2,0 1,-1 1,0 1,-1 2,0 1,-1 2,0 1,-1 1,0 1,-1 2,0 1,-1 2,0 0,-1 1,-1 1,0 1,-1 6,0 0,-26 -5,0 -1,-1 0,-2 1,-1 1,-1 0,-2 -1,-1 0,-1 -1,-1 -1,-1 0,-2 -1,-1 0,-2 -1,-1 0,-1 -1,-1 0,-1 -1,-1 0,-2 -3,0 -1,1 -1,0 -1,1 -3,0 -1,-1 -1,0 0,2 -1,1 -1,1 -3,0 -1,1 -1,1 -1,0 0,2 -1,1 -2,0 -1,-1 -1,0 -1,1 -2,0 -1,1 -1,0 -1,1 -2,0 -1,1 -2,0 0,2 -1,1 -2,0 -1,-1 -1,0 -1,1 -1,0 -1,1 -2,0 -1,1 -2,0 -1,1 0,2 1,1 2,0 1,1 0,1 1,1 0,2 -1,1 1,1 2,0 1,1 0,2 -1,1 1,1 0,0 1,1 0,1 1,1 0,1 1,1 1,0 1,-1 2,0 1,1 0,2 -1,1 -1,1 0,1 39,-23 -2,0 -1,1 -1,0 -1,1 0,0 5,-2 -39,23 34,-20 0,1 1,1 0,0 -1,-2 -34,20 36,-18 1,0 1,-1 1,0 1,-1 0,0 -4,2 -36,18 40,-21 0,0 -40,21 15,4 0,-2 1,-1 2,0 1,1 0,2 -1,1 -2,0 -1,-1 -15,-4 28,0 -1,1 -2,0 -1,-1 0,-2 1,-1 2,0 1,1 0,2Z"/>
<path onmouseover="hoverPath(evt)" onmouseout="recoverPath(evt)" fill="rgb(249,250,247)" d="M  214,115l -3,0 -1,-1 0,-1 -1,-1 -1,-1 0,-1 -1,-1 0,-4 1,-1 1,-1 -2,1 -2,0 -1,-1 -1,-1 0,-1 -1,-1 0,-1 -1,-1 -1,-1 0,-2 1,-1 -2,0 -1,-1 -1,-1 0,-2 1,-1 -1,-1 0,-1 -2,0 -1,-1 -1,-1 0,-4 1,-1 1,-1 2,0 1,-1 2,0 1,-1 1,0 1,-1 3,0 1,1 0,-2 1,-1 2,0 1,-1 2,0 1,-1 1,0 1,-1 2,0 1,-1 3,0 1,1 0,-2 1,-1 1,0 1,-1 -4,0 -1,-1 0,2 -1,1 -2,0 -1,1 -2,0 -1,1 -2,0 -1,-1 -4,0 -1,1 0,2 -1,1 -1,1 -2,0 -1,1 -1,0 -1,1 -2,0 -1,1 -1,0 -1,1 -4,0 -1,-1 -1,-1 0,-2 1,-1 -2,0 -1,-1 0,-1 -1,-1 -1,-1 0,-2 1,-1 -2,0 -1,-1 0,-1 -1,-1 -1,-1 0,-1 -2,-2 0,-2 1,-1 -2,0 -1,-1 -1,-1 0,-1 -1,-1 0,-1 -1,-1 -1,-1 0,-2 1,-1 -2,0 -1,-1 -1,-1 0,-2 1,-1 -2,0 -1,-1 -1,-1 0,-1 -1,-1 0,-1 -2,0 0,1 1,0 1,1 0,1 1,1 0,1 1,1 0,1 1,1 1,1 0,1 1,1 1,1 0,5 -1,1 -1,0 -1,1 -1,0 -1,1 -1,0 4,-1 2,-1 3,0 1,1 0,1 1,1 1,1 0,2 -1,1 2,0 1,1 1,1 0,2 -1,1 2,0 1,1 1,1 0,1 1,1 0,2 -1,1 2,0 1,1 0,1 1,1 1,1 0,3 -1,1 2,0 1,1 0,3 2,0 1,1 1,1 0,2 -1,1 2,0 1,1 1,1 0,2 -1,1 2,0 1,1 1,1 0,2 -1,1 2,0 1,1 0,4 -1,1 -1,0 -1,1 1,0 2,-1 2,0 1,1 1,1 0,1 1,1 1,1 0,2 -1,1 2,0 1,1 1,1 0,1 1,1 0,2 1,1 0,1 1,1 1,1 0,2 2,0 -1,-1 0,-1 -1,-1 0,-2 1,-1 -2,0 -1,-1 0,-4 1,-1Z"/>
<path onmouseover="hoverPath(evt)" onmouseout="recoverPath(evt)" fill="rgb(243,241,233)" d="M  81,44l 0,2 1,1 0,1 1,1 1,1 1,0 1,-1 5,0 1,-1 7,0 1,-1 12,0 0,-1 1,-1 7,0 1,-1 4,0 1,-1 2,0 1,-1 1,0 0,-2 1,-1 -1,-1 0,-1 -1,-1 0,-2 1,-1 12,0 1,1 1,1 4,0 1,-1 1,0 1,-1 2,0 1,-1 1,0 1,-1 1,0 0,-1 -1,-1 0,0 -1,-1 0,-1 -1,-1 0,-1 -1,-1 -1,-1 0,-1 -1,-1 0,-1 -1,-1 -4,0 -1,1 -3,0 -1,1 -3,0 -1,1 -2,0 -1,1 -2,0 0,2 -1,1 -5,0 -1,-1 0,-2 1,-1 0,-1 1,-1 -3,0 -1,-1 0,-2 -1,1 -2,0 -1,-1 -1,-1 0,-2 1,-1 2,0 1,1 1,1 0,1 6,0 0,-5 1,-1 2,0 1,1 0,3 5,0 1,-1 4,0 1,-1 1,0 1,-1 -1,-1 0,-2 -1,-1 0,-1 -1,-1 0,-1 -1,-1 0,-3 -121,0 0,3 1,1 0,1 1,1 0,2 1,1 0,1 1,1 3,0 1,1 5,0 1,1 2,0 1,1 0,3 1,1 0,2 -2,2 0,4 -1,1 0,4 1,1 4,0 1,1 1,1 2,0 1,1 0,2 1,1 0,2 1,1 1,0 1,-1 9,0 0,-6 1,-1 2,0 1,1 0,3 1,1 0,2 1,1 5,0 1,-1 4,0 1,-1 4,0 1,1Z"/>
<path onmouseover="hoverPath(evt)" onmouseout="recoverPath(evt)" fill="rgb(242,242,234)" d="M  110,59l 0,0 -1,-1 -2,0 -1,1 0,1 1,1 0,2 1,1 0,2 1,1 0,1 1,1 0,2 1,1 0,2 1,1 0,5 -1,1 0,2 1,1 0,2 1,1 0,6 -1,1 2,0 1,-1 2,0 1,-1 10,0 1,1 1,0 1,1 1,0 1,1 1,0 1,1 1,1 1,1 1,1 0,1 1,1 0,2 1,1 0,1 1,1 0,-3 1,-1 0,-2 1,-1 2,0 1,1 1,0 1,-1 1,0 0,-2 1,-1 1,0 1,-1 2,0 1,1 1,0 1,-1 5,0 0,-1 1,-1 1,-1 1,0 1,-1 1,0 0,-2 1,-1 2,0 1,1 1,0 0,-2 1,-1 1,-1 2,0 1,-1 2,0 1,1 1,0 1,-1 1,0 0,-2 1,-1 1,0 1,-1 0,-1 -1,-1 0,0 -1,-1 0,-1 -2,0 -1,-1 0,-2 1,-1 -1,-1 0,-1 -1,-1 -2,0 -1,-1 0,-2 1,-1 -1,-1 -2,0 -1,-1 0,-2 1,-1 -1,-1 0,0 -1,-1 0,-1 -2,0 -1,1 -2,0 -1,1 -3,0 -1,-1 0,2 -1,1 -2,0 -1,-1 0,-2 1,-1 3,0 0,-1 1,-1 1,0 1,-1 1,0 1,-1 1,0 0,-3 -1,-1 -1,-1 0,-1 -1,-1 -1,-1 0,-1 -1,-1 0,-1 -1,-1 0,-1 -1,0 -1,-1 -1,0 0,2 -1,1 -2,0 -1,-1 -1,-1 0,1 -1,1 -2,0 -1,1 -2,0 -1,1 -3,0 -1,-1 -1,0 -1,-1 -1,0 2,2 0,3 -1,1 0,2 -1,1 -2,0 -1,1 -2,0 -1,1 -3,0 -1,-1 -1,0 0,2 -1,1 -3,0 -1,1 -1,0 -1,1 -4,0 -1,1 -4,0 -1,1Z"/>
<path onmouseover="hoverPath(evt)" onmouseout="recoverPath(evt)" fill="rgb(241,240,225)" d="M  149,4l 0,1 1,1 0,1 1,1 0,1 1,1 0,1 1,1 0,1 1,1 0,1 1,1 0,1 1,1 1,1 0,1 1,1 0,1 1,1 1,1 0,1 1,1 0,1 1,1 0,1 1,1 0,-1 1,-1 1,0 1,-1 1,-1 1,0 1,-1 1,0 1,-1 1,0 1,-1 1,-1 1,-1 1,0 1,-1 1,-1 1,0 1,-1 1,-1 1,0 1,-1 1,-1 1,0 1,-1 1,-1 1,-1 2,0 0,-1 1,-1 0,-1 1,-1 1,0 1,-1 1,-1 1,-1 1,-1 1,0 1,-1 2,0 1,-1 0,-2 -54,0 0,2 1,1Z"/>
<path onmouseover="hoverPath(evt)" onmouseout="recoverPath(evt)" fill="rgb(243,242,233)" d="M  153,129l 0,0 -1,-1 -4,0 -1,-1 0,1 1,1 0,2 1,1 0,2 1,1 0,1 2,0 1,1 0,1 4,0 1,-1 4,0 1,-1 4,0 1,-1 4,0 1,-1 5,0 1,-1 4,0 1,-1 2,0 -1,-1 0,-1 -1,-1 0,-3 1,-1 2,0 1,1 0,1 1,1 0,1 1,1 0,1 4,0 1,-1 3,0 1,-1 4,0 1,-1 4,0 1,-1 4,0 0,-1 -1,-1 0,0 -1,-1 0,-1 -1,-1 0,-2 -1,-1 0,-1 -1,-1 -2,0 -1,-1 0,-2 1,-1 -1,-1 0,0 -1,-1 0,-1 -1,-1 -1,0 -1,1 -3,0 -1,1 -2,0 -1,-1 -1,0 0,2 -1,1 -1,0 -1,1 -1,0 -1,1 -1,0 -1,1 -2,0 -1,1 -1,0 -1,1 -1,0 -1,1 -3,0 -1,-1 -1,-1 0,-1 -1,2 0,0 -1,1 -1,1 -1,0 0,2 -1,1 -2,0 -1,-1 -1,0 -1,1 -1,0 0,2 -1,1 -2,0 -1,-1 -1,0 -1,1 -1,0 0,2 -1,1Z"/>
<path onmouseover="hoverPath(evt)" onmouseout="recoverPath(evt)" fill="rgb(243,242,233)" d="M  185,148l 0,0 -1,-1 0,-2 -1,-1 0,-1 -3,0 -1,1 -6,0 -1,-1 -1,1 -2,0 0,1 1,1 0,2 1,1 0,4 1,1 0,3 1,1 0,3 1,1 0,2 1,1 6,0 1,-1 2,0 1,1 1,1 0,1 1,1 0,1 1,1 0,2 2,0 1,1 1,1 32,0 1,-1 6,0 0,-2 -2,0 -1,-1 0,-3 1,-1 0,-1 -1,-1 0,-2 -1,-1 0,-2 -2,0 -1,-1 0,-2 1,-1 0,-1 -2,0 -1,-1 0,-2 1,-1 0,-1 -1,-1 0,-2 -1,-1 0,-2 -2,0 -1,-1 0,-2 1,-1 0,-1 -1,-1 0,-1 -1,-1 0,1 -1,1 -4,0 -1,1 -5,0 -1,1 -4,0 -1,1 -5,0 -1,1 -4,0 -1,1 -1,0 0,5 -1,1Z"/>
<path onmouseover="hoverPath(evt)" onmouseout="recoverPath(evt)" fill="rgb(195,226,187)" d="M  199,14l 1,0 1,-1 0,-1 2,-2 1,-1 0,-1 1,-1 1,0 0,-1 1,-1 1,-1 1,-1 3,0 1,1 1,0 1,1 -1,-2 0,0 -1,-1 0,-2 -9,0 0,3 -1,1 -1,1 -2,0 -1,1 -1,0 -1,1 -1,1 -1,1 -1,1 -1,0 0,1 -1,1 0,1 -1,1 -2,0 -1,1 -1,1 1,0 1,1 0,3 3,0 1,-1 1,-1 1,0 0,-2 1,-1 1,-1Z"/>
<path onmouseover="hoverPath(evt)" onmouseout="recoverPath(evt)" fill="rgb(243,241,232)" d="M  232,157l 0,2 1,1 0,2 1,1 0,2 1,1 0,2 1,1 0,2 1,1 0,3 2,0 1,1 0,4 -1,1 0,2 1,1 0,3 1,1 0,4 1,1 0,4 1,1 0,4 1,1 0,8 1,1 0,5 10,0 0,-95 -1,0 -1,1 -2,0 -1,1 -1,0 -1,1 -2,0 1,1 0,1 1,1 0,1 1,1 0,1 1,1 0,2 -1,1 -2,0 -1,-1 0,-1 -1,-1 -1,-1 0,-1 -1,-1 0,-1 -1,-1 -1,-1 0,1 -1,1 -2,0 -1,1 -2,0 -1,1 -2,0 -1,1 -1,0 -1,1 -1,0 -1,1 -1,0 -1,1 -2,0 0,1 1,1 0,1 1,1 0,1 1,1 0,2 2,0 1,1 0,2 1,1 0,3 4,0 1,1 5,0 1,1 0,2 -1,1 -9,0 0,2 1,1Z"/>
<path onmouseover="hoverPath(evt)" onmouseout="recoverPath(evt)" fill="rgb(174,220,217)" d="M  9,77l 0,0 -1,1 2,-1 3,0 1,-1 3,0 1,-1 3,0 1,-1 4,0 1,-1 4,0 1,-1 1,0 1,-1 2,0 -1,-1 0,-3 -1,0 -1,-1 -2,0 -1,1 -4,0 -1,1 -3,0 -1,1 -4,0 -1,1 -5,0 -1,1 -3,0 3,1 0,3 -1,1Z"/>
<path onmouseover="hoverPath(evt)" onmouseout="recoverPath(evt)" fill="rgb(253,253,253)" d="M  51,159l 0,3 -1,1 -3,0 -1,1 -3,0 -1,1 -4,0 -1,1 -5,0 -1,1 -4,0 -1,1 -4,0 -1,1 -4,0 -1,1 -4,0 -1,1 -4,0 -1,1 -6,0 0,2 1,0 1,-1 4,0 1,-1 4,0 1,-1 4,0 1,-1 4,0 1,-1 5,0 1,-1 4,0 1,-1 4,0 1,-1 4,0 1,-1 4,0 1,-1 4,0 1,-1 4,0 1,-1 3,0 1,-1 5,0 1,1 0,-3 -2,0 -1,1 -3,0 -1,1 -3,0 -1,1 -3,0 -1,-1 -1,-1 -1,-1Z"/>
<path onmouseover="hoverPath(evt)" onmouseout="recoverPath(evt)" fill="rgb(244,242,234)" d="M  61,109l 0,0 1,1 0,2 1,1 0,1 1,1 0,2 1,1 0,2 1,1 0,2 1,1 0,1 1,1 0,2 1,1 0,2 1,1 0,1 1,1 0,2 1,1 0,2 1,1 0,2 1,1 0,1 1,1 0,2 1,1 0,1 1,1 0,1 1,1 0,1 1,0 1,-1 4,0 1,-1 4,0 1,-1 4,0 1,-1 3,0 -1,-1 0,-2 -3,0 -1,-1 0,-2 1,-1 2,0 1,-1 6,0 1,1 0,2 -1,1 -1,0 0,1 2,-1 3,0 0,-1 -1,-1 0,-2 1,-1 3,0 1,1 0,1 1,1 0,1 1,1 0,1 2,0 1,-1 3,0 1,-1 6,0 1,-1 3,0 1,-1 5,0 1,-1 3,0 1,-1 5,0 1,-1 0,-1 1,-1 0,-1 -1,-1 0,-2 -1,-1 0,-2 -1,-1 0,-4 1,-1 2,0 1,1 0,1 4,0 1,1 0,-2 1,-1 1,0 1,-1 2,0 1,-1 1,0 1,-1 1,0 1,-1 2,0 1,-1 1,0 1,-1 1,0 1,-1 1,-1 -1,-1 0,0 -1,-1 0,-1 -1,-1 0,-1 -1,-1 -1,-1 0,-1 -1,-1 0,-1 -1,-1 0,-2 1,-1 -1,-1 -2,0 -1,-1 0,-2 1,-1 -5,0 -1,1 -2,0 -1,1 -1,0 -1,1 -1,0 -1,1 -1,0 -1,1 -2,0 -1,1 -1,0 -1,1 0,5 -1,1 -2,0 -1,-1 0,-2 -1,-1 0,-1 -1,-1 0,-2 -1,-1 0,-1 -1,-1 -1,-1 -1,-1 -1,0 -1,-1 -1,0 -1,-1 -1,0 -1,-1 -8,0 -1,1 -2,0 -1,1 -6,0 -1,-1 -3,0 -1,1 -4,0 -1,1 -3,0 -1,1 -4,0 -1,1 -3,0 -1,1 -4,0 0,2 -1,1 -3,0 -1,1 -3,0 -1,1 -4,0 -1,1 -3,0 -1,1 -3,0Z"/>
<path onmouseover="hoverPath(evt)" onmouseout="recoverPath(evt)" fill="rgb(202,230,212)" d="M  75,63l 0,0 1,1 5,0 1,-1 4,0 1,-1 4,0 1,-1 4,0 0,-2 1,-1 5,0 1,1 0,2 1,1 0,2 1,1 0,2 1,1 0,2 1,1 0,2 1,1 0,2 1,1 0,1 1,1 0,-3 -1,-1 0,-2 -1,-1 0,-2 -1,-1 0,-1 -1,-1 0,-2 -1,-1 0,-2 -1,-1 0,-3 2,-2 4,0 1,1 1,0 1,-1 4,0 1,-1 4,0 1,-1 1,0 1,-1 3,0 0,-2 1,-1 3,0 1,1 1,0 1,-1 2,0 1,-1 2,0 0,-2 1,-1 0,-2 -1,0 -1,-1 0,-2 1,-1 3,0 1,1 1,0 1,1 1,0 1,-1 2,0 1,-1 2,0 0,-2 1,-1 2,0 1,1 0,1 1,1 0,-2 1,-1 2,0 0,-1 1,-1 4,0 1,1 0,-2 2,-2 1,0 1,-1 1,0 1,-1 -1,-1 0,-3 -1,1 -1,0 -1,1 -1,0 -1,1 -1,1 -1,0 0,1 -1,1 -1,0 -1,1 -5,0 -1,1 -1,0 -1,1 -2,0 -1,1 -1,0 -1,1 -6,0 -1,-1 -1,-1 -10,0 1,1 0,1 1,1 0,2 -1,1 0,2 -1,1 -1,0 -1,1 -2,0 -1,1 -4,0 -1,1 -7,0 0,1 -1,1 -12,0 -1,1 -7,0 -1,1 -5,0 -1,1 -3,0 -1,-1 -1,-1 -1,-1 0,2 -2,2 -3,0 -1,1 -2,0 0,2 -1,1 -10,0 0,4 1,1 0,2 3,0 1,1 0,4 1,1 0,3 1,1 0,14 1,1 0,-12 -1,-4 -1,-4 -1,-5 1,-1Z"/>
<path onmouseover="hoverPath(evt)" onmouseout="recoverPath(evt)" fill="rgb(243,241,232)" d="M  116,255l 8,0 0,-9 -4,0 0,1 -1,1 -3,0 -1,1 -2,0 -1,-1 0,-1 -1,0 -1,1 -2,0 -1,1 -3,0 -1,1 0,5Z"/>
<path onmouseover="hoverPath(evt)" onmouseout="recoverPath(evt)" fill="rgb(242,241,231)" d="M  155,245l 2,0 1,-1 4,0 1,-1 0,-2 -1,0 0,1 -1,1 -6,0 -1,1 1,1 -2,1 -2,-2 -5,0 -1,1 -7,0 -1,1 -7,0 -1,1 -3,0 0,8 27,0 0,-9 2,-1Z"/>
<path onmouseover="hoverPath(evt)" onmouseout="recoverPath(evt)" fill="rgb(247,245,239)" d="M  176,255l 5,0 0,-2 1,-1 -1,0 -1,-1 -1,-1 0,-5 1,-1 -6,0 -1,1 -6,0 -1,-1 -1,-1 0,1 -1,1 -1,1 -4,0 -1,1 -3,0 0,8Z"/>
<path onmouseover="hoverPath(evt)" onmouseout="recoverPath(evt)" fill="rgb(244,243,236)" d="M  0,30l 0,40 5,0 1,-1 3,0 1,-1 5,0 1,-1 4,0 1,-1 3,0 1,-1 4,0 1,-1 1,0 0,-1 -1,-1 0,-2 -1,-1 0,-2 -1,-1 0,-2 -1,-1 0,-2 -1,-1 0,-1 -1,-1 0,-2 -1,-1 0,-2 -1,-1 0,-1 -1,-1 0,-2 -1,-1 0,-1 -1,-1 0,-2 -1,-1 0,-2 -1,-1 0,-2 -1,-1 0,-4 -1,-1 0,-1 -1,0 -1,-1 0,-2 -1,-1 0,-2 -1,-1 0,-2 -1,-1 0,-1 -1,-1 0,-2 -1,-1 0,-1 -4,0 -1,-1 0,-3 -4,0Z"/>
<path onmouseover="hoverPath(evt)" onmouseout="recoverPath(evt)" fill="rgb(248,246,241)" d="M  44,134l 0,-3 1,-1 1,0 1,-1 -3,0 -1,1 -2,0 -1,1 -4,0 -1,1 -4,0 -1,1 -3,0 -1,1 -4,0 -1,1 -4,0 0,3 1,1 7,0 1,-1 5,0 1,-1 4,0 1,-1 7,0 1,1 0,-2 -1,-1Z"/>
<path onmouseover="hoverPath(evt)" onmouseout="recoverPath(evt)" fill="rgb(246,231,128)" d="M  63,255l 38,0 0,-6 1,-1 1,-1 3,0 1,-1 2,0 1,-1 3,0 1,1 0,1 1,-1 3,0 0,-1 1,-1 6,0 1,1 2,0 1,-1 7,0 1,-1 7,0 1,-1 8,0 1,-1 6,0 0,-1 1,-1 5,0 1,1 1,-1 7,0 1,-1 8,0 1,-1 8,0 1,-1 6,0 1,-1 7,0 1,-1 7,0 1,-1 7,0 1,-1 7,0 1,-1 9,0 0,-1 1,-1 3,0 1,1 0,4 1,1 4,0 1,-1 2,0 0,-15 -9,0 0,1 -1,1 -4,0 -1,-1 -1,0 -1,1 -7,0 -1,1 -7,0 -1,1 -7,0 -1,1 -7,0 -1,1 -6,0 -1,1 -8,0 -1,1 -7,0 -1,1 -7,0 -1,1 -9,0 0,1 -1,1 -2,0 -1,-1 -1,-1 0,-1 -4,0 -1,-1 -2,0 -1,-1 -3,0 -1,-1 -7,0 -1,1 -8,0 -1,1 -10,0 -1,1 -6,0 -1,1 -7,0 -1,1 -8,0 0,1 -1,1 -7,0 -1,-1 0,3 -1,1 -1,1 -1,1 -1,1 -1,1 -1,0 -3,3 0,1 -1,1 -2,0 -1,1 -1,1 -1,0 -1,1 -1,0 -1,1 -1,0 -1,1 -1,0 -1,1 -1,0 -1,1 -1,0 -1,1 -1,0 -1,1 -1,0 -1,1 -1,0 0,1Z"/>
<path onmouseover="hoverPath(evt)" onmouseout="recoverPath(evt)" fill="rgb(243,242,233)" d="M  167,222l 0,4 -1,1 7,0 1,-1 7,0 1,-1 7,0 1,-1 8,0 1,-1 6,0 1,-1 7,0 1,-1 7,0 1,-1 7,0 1,-1 7,0 1,-1 2,0 0,-4 -1,-1 0,-7 -1,-1 0,-5 -1,-1 0,-4 -1,-1 0,-3 -1,-1 0,-3 -1,-1 0,-3 -1,-1 0,-2 -1,-1 0,-1 -41,0 -1,-1 0,-2 -1,-1 -2,0 -1,-1 0,-2 -1,-1 0,-1 -1,-1 0,-1 -1,-1 -1,1 -8,0 -1,-1 -1,-1 0,-2 -1,-1 0,-3 -1,-1 0,-3 -1,-1 0,-4 -1,-1 0,-2 -1,-1 -3,0 -1,1 -4,0 -1,1 -4,0 -1,1 -4,0 -1,1 -4,0 -1,1 -5,0 -1,1 -4,0 -1,1 -4,0 -1,1 -4,0 -1,1 -4,0 -1,1 -3,0 -1,1 -1,0 0,7 -1,1 -2,0 -1,-1 0,-5 -1,-1 -6,0 0,2 -1,1 -2,0 -1,-1 0,-2 -1,0 0,1 -1,1 -4,0 -1,1 -4,0 -1,1 -4,0 1,1 0,2 1,1 0,2 1,1 0,2 1,1 0,3 1,1 0,2 1,1 0,2 -1,1 0,1 1,1 0,4 2,0 1,1 0,3 1,1 0,2 1,1 0,1 3,0 1,1 0,2 -1,1 -3,0 0,1 1,0 1,1 1,1 0,5 1,1 0,7 6,0 1,1 0,1 1,1 0,2 -1,1 -4,0 0,1 -1,1 0,3 6,0 1,-1 7,0 1,-1 6,0 1,-1 10,0 1,-1 8,0 1,-1 9,0 1,1 3,0 1,1 2,0 1,1 1,0 0,-1 -1,-1 0,-2 -5,0 -1,1 -1,0 17,-1 -23,0 -1,-1 -1,-1 0,-2 -8,0 -1,-1 0,-2 1,-1 6,0 1,-1 4,0 0,-1 1,-1 -1,-1 0,-5 -1,-1 0,-4 -1,-1 0,-2 -1,-1 0,-9 1,-1 1,0 1,-1 3,0 1,1 0,2 -1,1 0,1 1,1 1,1 0,2 1,1 9,0 1,-1 1,0 1,-1 4,0 1,1 1,1 0,3 1,0 1,1 3,0 1,1 1,1 1,1 0,2 -1,1 0,2 1,0 1,1 8,0 1,1 0,2 -1,1 -6,0 0,2 6,0 1,-1 4,0 1,1 0,2 -1,1 -1,0 -1,1 -7,0 -1,1 -8,0 -1,-1 -5,0 0,3 -23,1Z"/>
<path onmouseover="hoverPath(evt)" onmouseout="recoverPath(evt)" fill="rgb(243,241,232)" d="M  195,255l 49,0 0,-6 -1,-1 0,-9 -1,-1 0,-5 -8,0 -1,1 -7,0 -1,1 -7,0 -1,1 -7,0 -1,1 -7,0 -1,1 -6,0 -1,1 -8,0 -1,1 -8,0 -1,1 -7,0 -1,1 -1,0 1,1 4,0 1,-1 9,0 1,1 0,2 -1,1 -1,0 0,3 1,1 5,0 1,1 0,2 -1,1 -4,0 0,1Z"/>
<path onmouseover="hoverPath(evt)" onmouseout="recoverPath(evt)" fill="rgb(252,252,250)" d="M  220,134l -1,0 1,1 0,1 1,1 0,3 -1,1 2,0 1,1 0,2 1,1 0,2 1,1 0,3 -1,1 2,0 1,1 0,3 -1,1 2,0 1,1 0,2 1,1 0,2 1,1 0,3 -1,1 0,1 2,0 1,1 0,4 -1,1 -6,0 -1,1 8,0 1,1 0,1 1,1 0,2 1,1 0,3 1,1 0,3 1,1 0,3 1,1 0,4 1,1 0,5 1,1 0,7 1,1 0,6 2,0 -1,-1 0,-5 -1,-1 0,-8 -1,-1 0,-4 -1,-1 0,-4 -1,-1 0,-4 -1,-1 0,-3 -1,-1 0,-4 1,-1 0,-2 -2,0 -1,-1 0,-3 -1,-1 0,-2 -1,-1 0,-2 -1,-1 0,-2 -1,-1 0,-2 -1,-1 0,-2 -1,-1 0,-4 1,-1 9,0 -6,-1 -4,0 -1,-1 0,-3 -1,-1 0,-2 -2,0 -1,-1 0,-2 -1,-1 0,-1 -1,-1 0,-1 -1,-1 0,-1 -1,-1Z"/>
<path onmouseover="hoverPath(evt)" onmouseout="recoverPath(evt)" fill="rgb(252,252,250)" d="M  245,54l 0,-1 -1,-1 0,3 1,-1 1,5 -2,0 0,1 -1,1 2,0 1,1 0,2 1,1 0,1 1,1 0,1 1,1 0,2 1,1 0,2 1,1 1,1 0,1 1,1 0,4 -1,1 -1,1 4,0 0,-15 -4,0 -1,-1 -1,-1 -1,-1 0,-2 -1,-1 0,-3 -1,-1 -1,-5Z"/>
<path onmouseover="hoverPath(evt)" onmouseout="recoverPath(evt)" fill="rgb(236,239,230)" d="M  47,71l 0,0 1,1 0,2 1,1 0,1 1,1 0,2 1,1 0,2 1,1 0,2 1,1 0,2 1,1 0,1 1,1 0,2 1,1 0,2 1,1 0,1 1,1 0,2 1,1 0,4 1,-1 3,0 1,-1 3,0 1,-1 4,0 1,-1 3,0 -3,-1 0,0 -1,-1 -1,-1 0,-2 -2,0 -1,-1 0,-3 -1,-1 0,-2 -1,-1 0,-14 -1,-1 0,-3 -1,-1 0,-4 -3,0 -1,-1 0,-2 -1,-1 0,-6 1,-1 10,0 0,-2 1,-1 2,0 1,-1 3,0 1,-1 0,-3 1,-1 0,-5 -2,0 -1,1 -4,0 0,2 -1,1 -15,0 -1,-1 -3,0 -1,1 -4,0 -1,1 -3,0 -1,1 -3,0 0,4 1,1 0,1 1,1 0,2 1,1 0,2 1,1 3,0 1,1 0,2 -1,1 -2,0 3,1Z"/>
<path onmouseover="hoverPath(evt)" onmouseout="recoverPath(evt)" fill="rgb(252,252,251)" d="M  141,15l -1,0 -1,1 -7,0 -1,-1 0,2 -1,1 -5,0 4,1 0,2 -1,1 0,1 -1,1 3,0 0,-2 1,-1 2,0 1,-1 2,0 1,-1 3,0 1,-1 3,0 1,-1 6,0 1,1 1,1 0,1 1,1 0,1 1,1 1,1 0,1 1,1 0,1 1,1 1,1 0,2 2,0 -1,-1 0,-1 -1,-1 0,-1 -1,-1 0,-1 -1,-1 -1,-1 0,-1 -1,-1 0,-1 -1,-1 -1,-1 0,-1 -1,-1 0,-1 -1,-1 0,-1 -1,-1 0,-1 -1,-1 0,-1 -1,-1 0,-1 -1,-1 0,-2 -1,-1 0,-3 -2,0 0,2 1,1 0,1 1,1 0,1 1,1 0,2 1,1 0,2 -1,1 -1,1 -1,0 -1,1Z"/>
<path onmouseover="hoverPath(evt)" onmouseout="recoverPath(evt)" fill="rgb(244,242,234)" d="M  157,197l -7,0 -1,-1 -1,-1 0,-2 -1,-1 -1,-1 -1,-1 0,-2 1,-1 1,0 -3,1 0,7 1,1 0,2 1,1 0,4 1,1 0,5 1,1 0,2 -1,1 0,1 -1,1 -4,0 -1,1 2,0 1,1 0,2 1,1 1,0 1,1 3,0 1,-1 7,0 1,1 0,2 1,1 0,2 1,0 1,1 0,1 1,1 0,-1 1,-1 0,-1 1,-1 0,-8 1,-1 7,0 1,1 6,0 1,-1 7,0 1,-1 -1,0 -8,1 -1,0 -1,-1 0,-4 1,-1 -2,0 -1,-1 -1,0 -1,-1 0,-4 1,-1 -1,-1 0,0 -1,-1 -3,0 -1,-1 -1,0 -1,-1 0,-3 -1,-1 -2,0 -1,1 -1,0 -1,1Z"/>
<path onmouseover="hoverPath(evt)" onmouseout="recoverPath(evt)" fill="rgb(243,241,232)" d="M  166,94l -1,0 -1,1 1,1 0,1 1,1 0,1 1,1 1,1 0,1 1,1 0,2 -1,1 1,1 0,1 1,1 2,0 1,1 0,2 -1,1 1,1 2,0 1,1 0,1 1,1 1,0 1,-1 1,0 0,-2 1,-1 2,0 1,1 1,0 1,-1 1,0 0,-2 1,-1 2,0 1,1 0,-2 1,-1 2,0 1,-1 1,0 1,-1 1,0 1,-1 1,0 0,-2 -2,0 -1,-1 0,-2 1,-1 -1,-1 -2,0 -1,-1 0,-2 1,-1 -1,-1 -2,0 -1,-1 0,-2 1,-1 -1,-1 -2,0 -1,-1 0,-3 -2,0 -1,-1 0,2 -1,1 -1,0 -1,1 -2,0 -1,1 -2,0 -1,-1 -1,0 -1,1 0,2 -1,1 -2,0 -1,1 -1,0 -1,1 -1,0 -1,1Z"/>
<path onmouseover="hoverPath(evt)" onmouseout="recoverPath(evt)" fill="rgb(243,241,233)" d="M  222,7l 0,0 1,1 1,1 1,0 1,1 1,1 1,0 1,1 1,1 2,0 1,1 0,1 1,1 1,1 1,0 1,1 0,1 1,1 1,1 0,1 1,1 3,0 1,1 2,0 1,-1 1,0 1,-1 2,0 1,-1 3,0 0,-21 -40,0 0,1 1,1 0,1 1,1 1,0 1,1 1,1 1,0 1,1Z"/>
<path onmouseover="hoverPath(evt)" onmouseout="recoverPath(evt)" fill="rgb(194,217,152)" d="M  251,47l -1,0 -1,1 0,1 1,1 0,4 1,1 0,4 -1,1 -1,0 0,2 1,1 0,2 1,1 1,1 3,0 0,-22 -1,0 -1,1 -1,0 -1,1Z"/>
<path onmouseover="hoverPath(evt)" onmouseout="recoverPath(evt)" fill="rgb(245,244,237)" d="M  250,237l -3,0 -1,-1 -1,-1 0,-4 -1,0 0,6 1,1 0,9 1,1 0,7 9,0 0,-19 -1,0 -1,1Z"/>
</svg>