<svg width="256" height="256" xmlns="http://www.w3.org/2000/svg"><script> 
var tempColor;
function hoverPath(evt){
obj = evt.target;
tempColor = obj.getAttribute("fill");
obj.setAttribute("fill","red");
//alert(tempColor);
//obj.setAttribute("stroke","red");}
function recoverPath(evt){
obj = evt.target;
obj.setAttribute("fill", tempColor);
//obj.setAttribute("stroke", tempColor);
}</script><path onmouseover="hoverPath(evt)" onmouseout="recoverPath(evt)" fill="rgb(242,240,231)" d="M  0,80l 0,18 1,0 0,-1 1,-1 3,0 1,1 0,3 -2,2 2,-1 2,0 1,-1 3,0 1,1 1,0 1,1 1,1 1,0 1,-1 0,-1 -1,0 -1,-1 -2,0 -1,-1 -1,0 -1,-1 -1,-1 0,-2 1,-1 3,0 1,1 1,0 1,1 1,0 1,1 1,0 1,1 1,0 1,1 1,0 1,1 1,0 1,1 1,0 1,1 1,0 1,-1 0,0 1,-1 0,-1 1,-1 1,-1 0,-1 1,-1 0,-1 1,-1 0,-1 1,-1 0,-1 1,-1 1,-1 0,-1 1,-1 0,-1 1,-1 0,-1 1,-1 0,-1 -1,0 -1,-1 0,-2 -1,-1 -1,1 -2,0 -1,-1 0,-2 -1,-1 -4,0 -1,-1 0,-2 -1,-1 -1,-1 -1,0 -1,-1 -1,-1 -4,0 -2,-2 0,-2 -1,-1 -1,-1 -1,0 -1,-1 -1,-1 -1,0 -1,-1 -1,-1 -1,1 -5,0 0,1 -1,1 -1,1 -2,0 0,19 13,5 -1,-1 0,-2 1,-1 2,0 1,1 0,2 -1,1 -2,0 -13,-5Z"/>
<path onmouseover="hoverPath(evt)" onmouseout="recoverPath(evt)" fill="rgb(241,241,232)" d="M  12,160l 0,0 -1,1 -2,0 -1,-1 -1,0 0,1 -1,1 -2,0 -1,-1 0,-3 1,-1 -4,0 0,9 2,0 -1,-1 0,-2 1,-1 1,0 9,-2 0,-2 1,-1 -2,0 1,2 0,1 -4,3 0,1 1,0 1,1 0,3 1,1 0,2 1,1 3,0 1,1 1,0 1,1 1,1 1,1 1,1 1,1 1,0 3,3 1,1 1,1 1,1 1,1 1,1 1,1 1,1 1,1 1,1 0,1 1,1 1,1 1,1 1,1 1,1 0,1 1,1 1,1 1,1 1,1 0,2 1,0 1,1 2,0 1,-1 2,0 1,-1 1,0 1,-1 2,0 1,-1 1,0 1,-1 1,0 1,-1 1,0 1,-1 1,0 1,-1 1,0 1,-1 1,0 1,-1 1,0 1,-1 1,0 1,-1 0,-2 1,-1 2,0 1,1 1,-1 0,0 1,-1 1,0 0,-1 1,-1 1,-1 0,-2 1,-1 1,-1 1,0 0,-1 1,-1 1,0 1,-1 2,0 1,-1 1,0 1,-1 1,-1 1,-1 1,0 1,-1 2,0 1,-1 1,0 1,-1 1,0 1,-1 2,0 1,-1 1,0 1,-1 2,0 1,1 1,0 1,-1 1,0 1,-1 1,0 1,-1 1,0 -1,-1 0,-2 -1,-1 -2,0 -1,1 -5,0 -1,-1 -4,0 -1,-1 -3,0 -1,1 -4,0 -1,-1 -4,0 -1,-1 -5,0 -1,-1 -3,0 -1,-1 -3,0 -1,-1 -2,0 -1,-1 0,-1 -7,0 -1,-1 -4,0 -1,-1 -4,0 -1,-1 0,-1 -2,0 -1,1 -3,0 -1,-1 0,-2 -1,-1 0,-1 -1,-1 -2,0 -1,-1 -1,0 -1,1 -5,0 -1,-1 -1,0 -1,-1 -2,0 -1,-1 -1,-1 -1,0 -1,-1 -1,0 -1,-1 0,-4 -1,-1 -3,0 -1,-1 0,1 -1,1 0,0 -1,1 -3,0 -1,-1 0,-1 -1,-1 -1,0 -1,-1 -1,-1 -1,0 -1,-1 -1,0 -1,-1 0,-1 -2,0 -1,-1 0,-1 -2,0 0,6 2,0 1,1 1,0 1,1 0,6 -1,1 -1,1 1,1 0,2 1,-1 4,0 1,1 1,-1 -1,-1 0,-2 1,-1 2,0 1,-1 3,0 1,1 0,1 2,0 1,1 0,2 1,1 1,0 1,1 1,0 1,1 0,2 -1,1 -2,0 -1,-1 -2,0 -1,1 -3,0 1,1 0,2 -1,1 -1,0 0,1 -7,7 4,-3 17,-9 1,-1 2,0 1,1 0,2 -1,1 -2,0 -1,-1 0,-2 -17,9Z"/>
<path onmouseover="hoverPath(evt)" onmouseout="recoverPath(evt)" fill="rgb(171,198,237)" d="M  44,208l -2,0 0,1 1,1 1,1 1,1 1,1 1,1 0,1 1,1 1,1 0,1 1,1 1,1 0,1 1,1 1,1 0,1 1,1 1,1 1,1 0,1 1,1 1,1 1,1 0,1 1,1 1,1 1,1 0,1 1,1 1,1 0,1 1,1 1,1 1,1 0,1 1,1 1,1 1,1 0,1 1,1 1,1 1,1 0,1 1,1 1,1 0,2 6,0 0,-1 -1,-1 0,0 -2,-2 0,-1 -1,-1 -1,-1 -1,-1 -2,-2 0,-1 -1,-1 -1,-1 -1,-1 -1,-1 0,-1 -1,-1 -1,-1 -1,-1 0,-1 -1,-1 -1,-1 -1,-1 0,-1 -1,-1 -1,-1 -1,-1 0,-1 -1,-1 -1,-1 -1,-1 0,-1 -1,-1 -1,-1 -1,-1 0,-1 -1,-1 -1,-1 0,-1 -1,-1 -1,-1 0,-1 -1,-1 -1,-1 -1,-1 -1,-1 0,-1Z"/>
<path onmouseover="hoverPath(evt)" onmouseout="recoverPath(evt)" fill="rgb(241,240,230)" d="M  58,71l -2,0 -1,-1 0,1 -1,1 0,1 -1,1 0,1 -1,1 -1,1 0,1 -1,1 0,1 1,1 2,0 1,1 0,2 -1,1 0,1 -1,1 0,1 -1,1 0,1 -1,1 0,1 -1,1 0,1 -1,1 -2,0 1,1 0,2 -1,1 0,1 -1,1 0,1 -1,1 0,1 -1,1 0,1 -1,1 0,1 -1,1 0,1 -1,1 -1,1 0,1 -1,1 -2,0 -1,-1 -1,0 -1,1 0,2 -1,1 0,1 -1,1 -1,1 0,1 -1,1 0,1 -1,1 0,1 -1,1 0,1 2,0 1,1 0,1 1,1 1,0 1,1 2,0 1,1 1,0 0,-1 1,-1 3,0 1,1 0,-5 1,-1 2,0 1,1 0,3 1,1 0,1 1,0 1,1 2,0 1,1 4,0 1,-1 2,0 1,-1 0,-1 1,-1 0,-4 1,-1 2,0 1,1 0,3 5,0 1,1 6,0 1,-1 0,0 1,-1 1,0 1,-1 0,-2 -1,-1 -1,0 -1,-1 -1,0 -1,-1 0,-2 1,-1 2,0 1,1 1,0 1,1 2,0 1,1 0,2 1,0 -1,-3 1,-1 2,0 1,-1 -4,1 -1,0 -1,-1 0,-4 1,-1 0,-10 -1,-1 0,0 -1,-1 -1,-1 -1,-1 -1,0 -1,-1 0,-1 -1,0 -1,-1 -1,0 -1,-1 0,-1 -1,-1 -1,-1 -1,-1 -1,0 -1,-1 0,-1 -1,-1 -1,-1 -1,0 -2,-2 -1,-1 -1,-1 0,-2 1,-1 3,0 1,1 1,1 1,1 1,1 1,1 1,-1 0,0 -1,-1 0,0 -1,-1 -1,-1 -1,-1 -1,-1 0,-1 -1,-1 -1,-1 -1,-1 0,-1 -1,-1 -1,-1 -1,-1Z"/>
<path onmouseover="hoverPath(evt)" onmouseout="recoverPath(evt)" fill="rgb(240,235,225)" d="M  88,121l 0,3 -1,1 -3,0 -1,-1 0,3 -1,1 -1,1 -1,0 -1,1 -1,1 -8,0 -1,-1 -5,0 -1,-1 0,1 -1,1 0,1 -1,1 -1,1 -2,0 -1,1 -6,0 -1,-1 -2,0 -1,-1 -1,0 0,2 1,1 2,0 1,1 2,0 1,1 2,0 1,1 2,0 1,-1 2,0 1,1 0,0 1,-1 0,-1 1,-1 2,0 1,1 0,1 1,1 5,0 1,1 4,0 1,1 2,0 1,1 0,-4 1,-1 2,0 1,1 1,1 0,3 1,0 1,1 3,0 1,1 0,3 4,0 1,1 2,0 1,-1 2,0 1,1 0,1 2,0 1,1 5,0 1,1 1,0 1,-1 3,0 1,1 0,1 2,0 1,1 2,0 1,1 2,0 1,1 3,0 1,1 2,0 1,1 1,0 -2,-2 0,-1 1,-1 3,0 1,1 4,0 1,1 4,0 1,1 2,0 1,1 0,-2 -1,-1 0,0 -1,-1 -1,-1 -2,0 -1,-1 -1,-1 -1,0 -1,-1 -1,-1 -2,0 -1,-1 -1,-1 -1,-1 -1,-1 -1,-1 0,-4 1,-1 5,0 1,1 1,1 1,0 1,1 0,1 1,1 1,1 1,1 1,1 1,1 1,1 1,0 1,1 1,1 1,1 1,1 0,-1 1,-1 0,-1 1,-1 1,-1 0,-1 -1,-1 0,0 -1,-1 -1,0 -1,-1 -1,-1 -1,-1 -1,-1 0,-1 -1,0 -1,-1 -1,0 -1,-1 -1,-1 -1,-1 0,-1 -1,0 -1,-1 -1,0 -1,-1 -1,-1 -1,-1 -1,-1 0,-1 -2,0 -1,-1 -1,-1 -1,-1 -1,-1 0,-2 -1,-1 0,-2 -5,0 -1,-1 -1,-1 0,-1 -1,0 -1,1 -1,0 0,1 -1,1 0,1 1,1 1,0 1,1 0,1 1,1 0,1 1,0 1,1 0,1 1,1 2,0 1,1 1,1 1,0 1,1 0,1 1,1 1,1 1,1 0,2 -49,-16 47,17 -1,0 -1,-1 -1,-1 -2,0 -1,-1 -1,0 -1,-1 -1,-1 -2,0 -1,-1 -1,-1 -5,0 -1,-1 -1,-1 -1,0 -1,-1 0,-1 -1,0 -1,-1 -2,0 -1,-1 0,-1 -1,-1 -1,-1 -2,0 -1,-1 0,-1 -1,-1 -1,-1 -1,-1 0,-3 1,-1 1,-1 0,-1 -4,0 -1,-1 0,-2 -1,-1 -1,-1 -1,-1 -1,-1 -1,-1 0,1 -1,1 0,0 -1,1 0,2 1,1 0,0 1,1 1,1 1,1 0,2 -1,1 -2,0 -1,-1 -1,-1 -1,-1 1,2 0,2 1,0 1,1 0,2 -1,1 -1,1 46,17 -47,-17 -5,2 0,-1 -1,0 1,1 5,-2 2,5 1,-1 2,0 1,1 0,2 -1,1 -2,0 -1,-1 0,-2 -2,-5 8,8 1,-1 2,0 1,1 1,0 1,1 0,2 -1,1 -2,0 -1,-1 -1,0 -1,-1 0,-2 -8,-8Z"/>
<path onmouseover="hoverPath(evt)" onmouseout="recoverPath(evt)" fill="rgb(241,241,233)" d="M  87,17l 0,1 -1,1 -1,0 0,8 -1,1 0,1 -1,1 -2,0 -1,1 -1,0 -1,1 -6,0 0,1 -1,1 0,1 -1,1 1,1 0,1 1,1 0,2 -1,1 1,1 0,3 1,1 1,1 1,1 1,1 1,1 0,2 -1,1 0,3 1,1 0,2 -1,1 0,1 1,1 1,1 1,0 3,3 1,1 1,1 1,1 0,1 1,0 1,1 1,1 1,0 1,1 1,1 1,1 1,1 1,1 0,1 1,0 1,1 1,1 1,0 1,1 1,1 1,1 1,1 0,1 1,0 2,-2 1,-1 3,0 1,-1 0,-1 1,-1 1,-1 0,-3 -1,0 -1,-1 -1,-1 -1,-1 0,-1 -1,-1 0,-2 1,-1 0,-1 1,-1 1,-1 1,-1 0,-1 1,-1 1,-1 1,-1 1,-1 2,0 0,-2 1,-1 4,0 1,1 3,0 1,-1 3,0 1,1 0,2 1,0 1,1 2,0 1,1 2,0 1,1 2,0 1,1 2,0 1,-1 3,0 1,-1 3,0 0,-1 1,-1 0,-1 1,-1 0,-1 1,-1 0,-1 1,-1 0,-1 1,-1 0,-1 1,-1 0,-1 1,-1 1,-1 0,-1 1,-1 0,-1 1,-1 -1,-1 0,-2 1,-1 0,-1 1,-1 2,0 0,-1 1,-1 0,-1 1,-1 1,-1 0,-3 -2,0 -1,-1 -2,0 -1,-1 -3,0 -1,-1 -2,0 -1,-1 -4,0 -1,-1 -3,0 -1,-1 -2,0 -1,-1 -2,0 -1,-1 -3,0 -1,-1 -3,0 -1,-1 -2,0 -1,1 0,1 -1,1 -1,1 0,1 -1,1 -2,0 -1,-1 0,-2 1,-1 0,-4 -1,-1 -1,0 -1,-1 -1,0 -1,-1 -2,0 -1,-1 -1,-1 -1,-1 -1,0 -2,-2 -1,0 -1,-1 -1,-1 -1,-1 -1,0 -1,-1 -1,-1 -1,0 -1,-1 0,-2 -33,0 0,3 1,-1 2,0 1,1 2,0 1,1 1,0 1,1 1,0 1,1 1,0 1,1 2,0 1,1 1,0 1,1 1,1 1,0 1,1 0,2 -1,1 -1,0 -1,1 0,2 17,51 0,1 -1,1 -2,0 -1,-1 -1,0 -1,-1 0,-2 1,-1 2,0 1,1 1,0 1,1 0,1 -17,-51 -1,46 -1,-1 0,-2 1,-1 2,0 1,1 0,2 -1,1 -2,0 1,-46Z"/>
<path onmouseover="hoverPath(evt)" onmouseout="recoverPath(evt)" fill="rgb(250,249,245)" d="M  105,1l 0,0 1,1 1,1 1,0 1,1 1,1 1,1 1,0 1,1 1,1 1,0 1,1 1,1 1,1 2,0 1,1 1,0 1,1 1,0 2,2 0,5 1,-1 0,-1 1,-1 1,-1 4,0 0,-1 -1,0 -1,-1 -2,0 -1,-1 -2,0 -1,-1 -2,0 -1,-1 -1,0 -1,-1 -1,0 -1,-1 -1,-1 -1,0 -2,-2 0,-1 -2,0 -1,-1 -1,-1 -1,0 -1,-1 0,-2 -2,0 -1,1 29,15 0,1 3,0 1,1 3,0 1,1 2,0 1,1 2,0 1,1 3,0 1,1 4,0 1,1 2,0 1,1 3,0 1,1 2,0 1,1 2,0 1,1 0,5 1,0 0,-1 2,-2 1,-1 3,0 1,1 3,0 1,1 3,0 1,1 0,2 2,0 1,1 2,0 1,1 1,0 1,-1 3,0 1,1 2,0 1,1 2,0 1,1 2,0 1,1 0,2 1,-1 3,0 1,1 2,0 1,1 0,1 1,1 0,1 1,-1 5,0 1,1 1,0 1,1 0,7 -1,1 0,1 -1,1 -4,0 -1,-1 -2,0 -1,-1 0,-1 -1,-1 0,1 -1,1 0,13 1,-2 14,0 1,-1 0,-2 1,-1 0,-2 1,-1 5,0 1,1 1,0 1,1 0,-1 1,-1 0,-4 1,-1 4,0 1,1 2,0 1,1 2,0 1,1 2,0 1,1 0,-4 -3,0 -1,-1 -1,1 -3,0 -1,-1 -2,0 -1,-1 0,-2 -1,1 -3,0 -1,-1 -1,0 -1,-1 -1,-1 0,-6 1,-1 -1,0 1,-1 1,1 1,-1 2,0 1,1 14,0 -6,-1 0,0 -1,-1 0,-14 -5,0 4,1 0,13 -1,1 -5,0 -107,-22 -29,-15 121,43 -1,-1 -2,0 -1,-1 0,-2 -1,0 -1,-1 -1,1 -3,0 -1,-1 -2,0 -1,-1 -2,0 -1,-1 -2,0 -1,-1 -2,0 -1,-1 -2,0 -1,-1 0,-2 -1,1 -3,0 -1,-1 -2,0 -1,-1 -1,0 -1,-1 0,-4 -1,-1 0,-1 -1,-1 1,3 0,2 -1,1 -5,0 -1,-1 -3,0 -1,-1 -1,0 -1,-1 0,-4 -1,0 -1,1 0,1 -1,1 -5,0 -1,-1 -3,0 -1,-1 -3,0 -1,-1 -2,0 -1,-1 -2,0 -2,-2 0,-4 -1,0 0,2 -1,1 -1,1 -3,0 -1,-1 -3,0 -1,-1 -3,0 -1,-1 -2,0 10,3 81,25 -121,-43 71,20 1,0 0,-1 1,-1 0,-1 1,-1 1,-1 0,-1 1,-1 2,0 -1,-1 0,-2 1,-1 0,-1 1,-1 0,-1 1,-1 4,0 1,1 0,3 1,-2 1,-1 4,0 -4,-1 -2,0 -1,-1 -1,0 -1,-1 0,-4 -2,0 0,3 -1,1 0,1 -1,1 -2,0 0,1 -1,1 1,1 0,2 -1,1 0,1 -1,1 0,1 -1,1 0,1 -1,1 0,1 -1,1 0,1 -71,-20 122,43 1,0 1,1 -2,-1 -122,-43 65,32 -1,0 -1,1 0,1 -1,1 0,1 -1,1 -2,0 0,1 -1,1 6,0 0,-1 1,-1 0,-1 1,-1 -1,-1 0,-2 -65,-32 128,44 -128,-44 47,12 1,0 0,-1 1,-1 0,-3 1,-1 0,-2 1,-1 0,-4 -18,0 0,2 1,0 1,-1 4,0 1,1 2,0 1,1 2,0 1,1 1,0 1,1 0,5 -1,1 0,2 -47,-12Z"/>
<path onmouseover="hoverPath(evt)" onmouseout="recoverPath(evt)" fill="rgb(246,231,143)" d="M  166,185l 0,0 1,1 1,1 1,1 0,1 1,0 1,1 0,2 1,0 1,-1 2,0 1,1 0,2 1,1 1,1 1,1 1,1 1,1 2,0 1,1 0,1 1,1 1,1 1,1 1,0 1,1 1,0 1,1 0,1 1,1 1,1 2,0 1,1 0,1 1,1 1,0 1,1 1,1 0,1 4,0 1,1 0,1 1,0 1,1 0,1 1,1 1,0 1,1 1,1 1,0 1,1 1,1 1,0 1,1 2,0 1,1 0,1 1,1 2,0 1,1 0,1 1,1 2,0 1,1 0,1 1,1 2,0 0,-7 1,-1 -1,-1 -3,0 -1,-1 -1,-1 0,-1 -6,0 -1,-1 -1,0 -1,-1 -1,-1 -1,-1 -1,0 -1,-1 -1,-1 -1,-1 -1,-1 -1,-1 -1,-1 -1,0 -1,-1 -1,-1 -1,-1 0,-1 -1,0 -1,-1 -1,-1 -1,-1 -1,0 -1,-1 -1,0 -1,-1 0,-1 -1,0 -1,-1 0,-2 1,-1 0,-2 1,-1 1,-1 1,0 1,-1 -5,3 -1,0 -1,-1 -1,-1 -1,0 -1,-1 -2,0 -1,-1 -1,0 -1,-1 -1,0 -1,-1 -1,0 -1,-1 -1,1 -3,0 -1,-1 0,-1 -1,-1 0,-1 -1,-1 0,-1 -1,-1 -1,0 -1,-1 -1,-1 -1,0 -1,-1 -1,0 -1,-1 -1,0 -1,-1 -2,0 -1,-1 0,3 1,0 1,1 1,1 2,0 1,1 0,1 1,1 5,8 -1,0 -1,1 -1,1 -2,0 0,1 -1,1 -1,1 -1,1 4,-3 0,0 4,-3 -5,-8Z"/>
<path onmouseover="hoverPath(evt)" onmouseout="recoverPath(evt)" fill="rgb(242,241,231)" d="M  173,33l -1,1 1,1 0,2 -1,1 0,1 -1,1 0,1 -1,1 -2,0 0,1 -1,1 0,1 -2,2 0,1 -1,1 0,3 1,0 1,1 2,0 1,1 2,0 1,1 2,0 1,1 2,0 1,1 2,0 1,1 1,0 1,-1 2,0 1,1 0,2 2,0 1,1 2,0 1,1 2,0 1,1 2,0 1,1 1,0 1,-1 4,0 1,1 0,2 2,0 1,1 1,0 1,1 0,-1 1,-1 0,-14 1,-1 0,-2 1,-1 2,0 1,1 0,1 1,1 0,1 2,0 1,1 2,0 0,-1 1,-1 0,-5 -1,0 -1,-1 -3,0 -1,1 -2,0 -1,-1 0,-1 -1,-1 0,-1 -2,0 -1,-1 -1,0 -1,1 -2,0 -1,-1 0,-2 -2,0 -1,-1 -2,0 -1,-1 -2,0 -1,-1 -1,0 -1,1 -3,0 -1,-1 -2,0 -1,-1 -2,0 -1,-1 0,-2 -3,0 -1,-1 -3,0 -1,-1 -1,0 -2,2Z"/>
<path onmouseover="hoverPath(evt)" onmouseout="recoverPath(evt)" fill="rgb(242,240,230)" d="M  191,0l -2,0 0,3 1,0 1,1 2,0 1,1 3,0 1,1 0,2 3,0 1,1 2,0 1,1 2,0 1,1 0,5 -1,1 1,1 0,2 -1,1 2,-1 1,0 1,-1 5,0 1,1 7,0 1,-1 8,0 1,1 0,2 7,0 1,-1 7,0 1,1 0,14 1,1 4,0 0,-37Z"/>
<path onmouseover="hoverPath(evt)" onmouseout="recoverPath(evt)" fill="rgb(242,239,230)" d="M  194,97l 0,0 -1,1 0,2 -1,1 0,1 -1,1 0,2 -1,1 0,1 -1,1 -1,1 0,1 -1,1 -1,0 0,1 -1,1 0,3 -1,1 0,2 -1,1 0,2 -1,1 0,3 3,0 1,1 5,0 1,1 3,0 1,1 0,1 1,0 1,1 0,-1 1,-1 5,0 1,1 10,0 0,-1 1,-1 3,0 1,1 0,2 10,0 1,1 0,1 8,0 1,-1 5,0 0,-6 -1,-1 0,-8 1,-1 1,0 0,-1 -1,-1 0,-5 -1,0 -1,-1 0,-2 1,-1 0,-1 1,-1 1,0 0,-2 -1,0 -1,-1 0,-2 1,-1 0,-1 1,-1 1,0 0,-2 -1,0 -1,-1 0,-2 1,-1 1,-1 1,0 0,-1 -4,0 -1,-1 -2,0 -1,-1 0,1 -1,1 0,17 -1,1 0,3 -1,1 -2,0 -1,-1 0,-4 -1,0 -1,-1 -4,0 -1,-1 -5,0 -1,-1 -5,0 -1,-1 -2,0 -1,-1 -2,0 -1,-1 -4,0 -1,-1 -2,0 -1,-1 -3,0 -1,-1 -2,0 -1,1Z"/>
<path onmouseover="hoverPath(evt)" onmouseout="recoverPath(evt)" fill="rgb(239,237,225)" d="M  246,41l -6,0 -1,-1 -1,1 -1,0 0,4 1,1 1,0 1,1 1,0 1,-1 2,0 1,1 0,2 2,0 1,1 1,0 1,-1 2,0 1,1 2,0 0,-9Z"/>
<path onmouseover="hoverPath(evt)" onmouseout="recoverPath(evt)" fill="rgb(242,240,232)" d="M  0,26l 0,11 2,0 1,1 1,1 1,1 1,0 1,1 1,-1 5,0 1,1 1,1 0,1 1,1 0,3 -1,1 -1,1 -1,1 -1,1 0,1 1,1 1,0 1,1 1,1 2,0 1,1 0,1 1,1 1,0 1,1 1,1 2,0 1,1 0,1 1,1 1,0 1,1 1,1 1,1 1,0 1,1 2,0 1,1 0,1 1,1 1,0 1,1 1,0 1,1 1,1 1,0 1,1 1,1 1,1 2,0 1,1 0,-1 1,-1 0,0 1,-1 0,-1 1,-1 0,-1 1,-1 0,-1 -1,0 -1,-1 -1,-1 0,-3 -1,-1 0,-3 -2,0 -1,-1 0,-2 1,-1 1,-1 0,-1 1,-1 0,-1 -3,0 -1,-1 0,-1 -1,0 -1,-1 -3,0 -1,-1 0,-1 -1,-1 0,-1 -1,0 -1,-1 -1,-1 -1,-1 0,-2 -1,0 -1,-1 0,-2 -1,0 -1,-1 0,-2 -1,0 -1,-1 0,-1 -1,-1 -1,-1 0,-1 -1,-1 0,-1 -1,-1 -1,-1 0,-1 -1,-1 0,-1 -1,-1 -1,-1 0,-1 -1,0 -1,-1 0,-6 -1,0 -1,-1 0,-1 -1,-1 0,-3 1,-1 -1,0 -1,-1 0,-1 -1,0 -1,-1 0,-2 -12,0Z"/>
<path onmouseover="hoverPath(evt)" onmouseout="recoverPath(evt)" fill="rgb(240,239,228)" d="M  206,74l 0,-2 -2,0 0,1 -1,1 0,2 -1,1 0,1 -1,1 0,1 -1,1 0,2 -1,1 0,1 -1,1 0,1 -1,1 0,2 2,0 1,1 3,0 1,1 3,0 1,1 3,0 1,1 2,0 1,1 2,0 1,1 5,0 1,1 5,0 1,1 4,0 1,-1 0,-13 -1,0 -1,-1 -3,0 -1,-1 -3,0 -1,-1 -2,0 -1,-1 -2,0 -1,-1 -3,0 -1,-1 -1,0 -1,-1 -1,0 -1,-1 -1,0 -1,-1 -2,0 -1,-1Z"/>
<path onmouseover="hoverPath(evt)" onmouseout="recoverPath(evt)" fill="rgb(247,235,141)" d="M  0,219l 0,4 2,0 1,1 1,0 1,1 1,0 1,1 1,0 1,1 1,0 1,1 2,0 1,1 1,0 1,1 1,0 1,1 1,0 1,1 1,1 1,0 1,1 1,0 1,1 1,1 2,0 1,1 2,0 1,1 1,1 0,2 1,1 1,1 1,1 1,0 1,1 1,0 1,1 0,1 1,1 0,1 1,0 1,1 1,1 0,1 1,1 0,2 8,0 0,-1 -1,0 -1,-1 0,-2 -1,-1 -1,-1 -1,-1 0,-1 -1,-1 -1,-1 -1,-1 -1,-1 -1,-1 -1,0 -1,-1 0,-1 -1,-1 -2,0 -1,-1 0,-1 -1,-1 -1,-1 -1,0 -1,-1 -1,-1 -1,-1 -1,-1 -1,-1 -1,-1 0,-3 1,-1 -1,0 1,-1 -2,4 -3,0 -1,-1 -1,0 -1,-1 -1,0 -1,-1 -1,0 -1,-1 -1,0 -1,-1 -1,0 -1,-1 -1,0 -1,-1 -2,0 -1,-1 -1,0 -1,-1 -1,0 -1,-1 -1,0 -1,-1 -2,0Z"/>
<path onmouseover="hoverPath(evt)" onmouseout="recoverPath(evt)" fill="rgb(244,242,235)" d="M  37,210l -1,0 0,1 -1,1 0,4 -1,1 -2,0 -1,-1 0,-6 -5,0 -1,-1 -8,0 -1,-1 -5,0 -1,1 -7,0 -1,1 -2,0 0,5 3,0 1,1 1,0 1,1 1,0 1,1 1,0 1,1 2,0 1,1 1,0 1,1 1,0 1,1 1,0 1,1 1,0 1,1 1,0 1,1 1,0 1,1 1,0 0,-2 1,-1 1,-1 2,0 1,1 0,3 -1,1 0,1 1,1 0,0 1,1 1,1 1,1 1,1 1,0 1,1 1,1 1,1 0,1 2,0 1,1 1,1 0,1 1,0 3,3 1,1 1,1 1,1 0,1 1,1 1,1 1,1 0,2 1,0 1,1 0,2 18,0 0,-1 -1,-1 0,0 -1,-1 0,-1 -1,-1 -1,-1 -1,-1 0,-1 -1,-1 -1,-1 -1,-1 0,-1 -1,-1 -1,-1 -1,-1 0,-1 -1,-1 -1,-1 0,-1 -1,-1 -1,-1 -1,-1 0,-1 -1,-1 -1,-1 -1,-1 0,-1 -1,-1 -1,-1 -1,-1 0,-1 -1,-1 -1,-1 0,-1 -1,-1 -1,-1 0,-1 -1,-1 -1,-1 0,-1 -1,-1 -1,-1 -1,-1 -1,-1 -1,-1 0,-2 -1,1 -1,0 -1,1Z"/>
<path onmouseover="hoverPath(evt)" onmouseout="recoverPath(evt)" fill="rgb(240,235,232)" d="M  84,83l 0,0 1,1 1,1 1,1 1,1 1,1 1,1 1,1 1,1 0,1 1,0 1,1 1,1 1,1 1,1 1,1 0,1 1,0 1,1 1,1 0,2 1,1 0,2 1,0 1,1 1,0 1,1 1,1 1,0 1,1 0,2 1,1 2,0 1,1 0,-1 1,-1 3,0 -1,-1 0,0 -1,-1 0,-1 -1,0 -1,-1 -1,0 -1,-1 -3,-3 0,-1 -2,0 -1,-1 -1,-1 -1,-1 -1,-1 0,-1 -2,0 -1,-1 -1,-1 -1,-1 -1,-1 -1,-1 -1,-1 0,-1 -1,0 -1,-1 -1,0 -1,-1 -1,-1 -1,-1 -1,-1 -1,-1 -1,-1 -1,0 -1,-1 -1,-1 -1,-1 -1,-1 -1,-1 -1,-1 -1,-1 -1,-1 0,-1 -1,0 -1,-1 -1,-1 0,2 1,1 0,0 1,1 1,1 1,1 1,1 1,1 1,1 1,1 2,0 1,1Z"/>
<path onmouseover="hoverPath(evt)" onmouseout="recoverPath(evt)" fill="rgb(242,241,230)" d="M  158,3l 0,2 -1,1 0,2 -1,1 0,3 -1,1 0,2 -1,1 0,2 1,1 2,0 1,1 2,0 1,1 3,0 1,1 3,0 1,1 3,0 0,-1 1,-1 1,-1 0,-1 1,-1 0,-1 1,-1 0,-1 1,-1 0,-1 1,-1 0,-1 1,-1 -1,-1 0,-2 1,-1 0,-1 1,-1 2,0 0,-1 1,-1 0,-2 -25,0Z"/>
<path onmouseover="hoverPath(evt)" onmouseout="recoverPath(evt)" fill="rgb(251,251,249)" d="M  192,91l -5,0 -1,-1 -5,0 5,1 0,0 5,1 1,-1 1,3 1,-1 4,0 1,1 3,0 1,1 2,0 1,1 4,0 1,1 2,0 1,1 2,0 1,1 5,0 1,1 5,0 1,1 4,0 1,1 1,0 1,1 1,0 0,-17 1,-1 0,-1 1,-1 2,0 0,-1 -1,0 -1,-1 -1,-1 0,-12 -1,11 0,0 -1,1 -4,0 -1,-1 -3,0 -1,-1 -3,0 -1,-1 -2,0 -1,-1 -2,0 -1,-1 -1,0 -1,-1 -1,0 -1,-1 -1,-1 0,-4 -1,2 -2,0 -1,-1 -1,0 -1,-1 -2,0 -1,-1 0,-2 -2,0 -1,1 -3,0 -1,-1 -2,0 -1,-1 -2,0 -1,-1 -2,0 -1,-1 -2,0 -1,-1 0,-2 -1,1 -3,0 -1,-1 -2,0 -1,-1 -2,0 -1,-1 -2,0 -1,-1 -2,0 -1,-1 -2,0 -1,-1 -1,0 -1,-1 0,-5 1,-1 0,-1 1,-1 1,-1 0,-1 1,-1 -2,0 0,1 -1,1 0,1 -1,1 0,1 -1,1 -1,1 0,1 -1,1 0,1 -1,1 0,1 -1,1 0,1 -1,1 0,1 -1,1 0,1 -1,1 0,1 -1,1 -3,0 -1,1 -3,0 2,1 1,0 1,1 0,4 -1,1 0,1 -1,1 0,1 -1,1 0,1 -1,1 0,1 -1,1 0,1 -1,1 0,1 -1,1 0,1 -1,1 -1,1 0,1 -1,1 0,1 -1,1 -2,0 1,1 0,2 -1,1 0,1 -1,1 0,1 -1,1 0,1 -1,1 0,1 -1,1 0,1 -1,1 0,1 -1,1 0,1 -1,1 0,1 -1,1 1,0 1,-1 0,-1 1,-1 5,0 -2,-1 0,0 -1,-1 0,-3 1,-1 0,-1 1,-1 0,-1 1,-1 1,-1 3,0 -2,-1 0,-2 1,-1 0,-1 1,-1 2,0 0,-1 1,-1 -1,-1 0,-2 1,-1 5,0 1,1 1,0 1,1 1,0 0,-3 1,-1 4,0 -3,-1 0,0 -1,-1 0,-4 -1,0 -1,-1 -1,-1 0,-5 1,-1 0,-1 1,-1 0,-1 1,-1 1,-1 0,-1 1,-1 0,-1 1,-1 0,-1 1,-1 0,-1 1,-1 5,0 1,1 2,0 1,1 1,0 1,1 2,0 1,1 2,0 1,1 0,2 1,1 1,-1 6,0 1,1 2,0 1,1 2,0 1,1 2,0 1,1 2,0 1,1 2,0 1,1 1,1 0,2 -1,1 0,2 -1,1 0,1 -1,1 0,2 -1,1 -2,0 1,1 0,3 -1,1 0,1 -1,1 -2,0 1,1 0,6 -1,-3 4,-5 0,-1 1,-1 0,-1 1,-1 0,-2 1,-1 0,-1 1,-1 0,-1 1,-1 0,-2 1,-1 0,-1 1,-1 4,0 1,1 0,2 2,0 1,1 1,0 1,1 1,0 1,1 1,0 1,1 3,0 1,1 2,0 1,1 2,0 1,1 3,0 1,1 3,0 1,1 1,0 1,1 0,2 -41,1 -4,5 50,-8 0,1 2,0 1,1 4,0 -3,-1 -1,0 -1,-1 -2,0 -50,8 41,9 -4,0 -1,-1 -5,0 -1,-1 -5,0 -1,-1 -2,0 -1,-1 -2,0 -1,-1 -3,0 -1,-1 -3,0 -1,-1 -3,0 -1,-1 -2,0 10,3 -15,0 0,1 -1,1 0,1 -1,1 0,2 -1,1 0,1 -1,1 0,1 -1,1 -1,1 -1,1 -2,0 -1,-1 0,-3 -1,-1 -3,0 -1,-1 -1,-1 0,-6 1,-1 0,-2 -1,2 -8,0 6,1 1,0 0,7 -1,1 0,1 -1,1 -1,0 -1,1 0,1 1,-1 1,0 2,-2 1,-1 1,0 -1,-1 -1,1 0,0 6,1 0,3 -1,1 0,1 -1,1 0,1 -1,1 3,0 1,1 0,4 -1,1 0,3 -1,1 0,2 -1,1 -1,0 1,1 0,2 -1,1 0,1 -1,1 0,2 -1,1 0,2 -1,1 0,3 -1,1 0,1 -1,1 0,2 1,1 0,-1 1,-1 0,-2 1,-1 2,0 -1,-1 0,-6 1,-1 0,-2 1,-1 0,-1 1,-1 3,0 -2,-1 0,-5 1,-1 0,-2 1,-1 0,-2 1,-1 0,-3 1,-1 0,-1 1,-1 1,0 0,-1 1,-1 1,-1 0,-1 1,-1 0,-2 1,-1 0,-1 1,-1 0,-2 1,-1 -2,3 -2,5 -1,2 -1,1 47,-7 -41,-9 -14,51 2,0 -1,-1 -5,0 4,1 14,-51 43,9 0,0 1,5 0,2 -1,-7 -43,-9Z"/>
<path onmouseover="hoverPath(evt)" onmouseout="recoverPath(evt)" fill="rgb(238,224,201)" d="M  240,75l 0,4 1,1 1,0 1,1 1,0 1,-1 2,0 1,-1 2,0 0,-1 1,-1 0,-6 1,-1 2,0 1,1 0,-13 -1,0 -1,-1 -2,0 -1,-1 -2,0 -1,-1 -2,0 -1,-1 -2,0 0,4 -1,1 0,8 -1,1Z"/>
<path onmouseover="hoverPath(evt)" onmouseout="recoverPath(evt)" fill="rgb(242,240,231)" d="M  26,108l 0,0 -1,-1 -2,0 -1,-1 -1,0 -1,1 -1,0 -1,1 -1,1 0,1 -1,1 -1,1 -1,1 -1,1 -1,1 1,0 1,1 0,1 2,0 1,1 1,1 1,1 2,0 0,-1 1,-1 0,-1 1,-1 1,-1 0,-1 1,-1 0,-1 1,-1Z"/>
<path onmouseover="hoverPath(evt)" onmouseout="recoverPath(evt)" fill="rgb(243,198,115)" d="M  29,131l 0,0 -1,-1 0,-1 -2,0 -1,-1 -3,0 -1,-1 0,-3 -1,-1 0,-1 -2,0 -1,-1 -1,-1 -1,-1 -2,0 -1,-1 0,-1 -1,0 -1,1 -2,0 -1,-1 -1,-1 0,-4 -1,1 -3,0 -1,-1 -1,0 0,13 3,0 1,1 0,1 2,0 1,1 0,1 1,0 1,1 1,0 1,1 1,1 1,0 1,1 1,1 0,1 1,0 1,-1 0,-1 1,-1 2,0 1,1 3,0 1,1 1,1 0,4 1,0 1,1 1,0 1,1 1,1 2,0 1,1 1,0 1,1 3,0 1,-1 3,0 1,1 2,0 1,1 1,1 0,1 1,1 0,2 1,0 1,-1 4,0 1,1 0,1 4,0 1,1 4,0 1,1 7,0 1,1 0,1 2,0 1,1 3,0 1,1 3,0 1,1 5,0 1,1 4,0 1,1 2,0 1,-1 5,0 1,1 4,0 1,1 3,0 1,-1 4,0 2,2 0,2 1,1 2,0 1,1 1,-1 2,0 1,1 1,1 1,0 0,-1 1,-1 3,0 1,1 2,0 1,1 2,0 1,1 2,0 1,1 1,0 1,1 2,0 1,1 1,1 0,4 1,-1 4,0 1,-1 2,0 1,1 1,0 1,1 2,0 1,1 1,0 1,1 1,0 1,1 1,0 1,1 1,1 1,0 1,1 1,1 0,1 1,1 0,1 1,1 0,1 1,0 1,-1 2,0 1,1 1,0 1,1 1,0 1,1 1,0 1,1 2,0 1,1 0,-5 -5,0 -1,1 -1,0 -154,-57 152,56 -1,-1 -1,-1 0,-1 -1,-1 0,-2 1,-1 0,0 -1,-1 -1,0 0,1 -1,1 -2,0 -1,-1 -1,-1 0,-1 -1,-1 0,-4 -2,0 -1,-1 0,-1 -1,0 -1,-1 0,-2 -1,0 -1,-1 -1,-1 -5,0 -1,-1 0,-1 -1,0 -1,-1 -1,-1 0,-1 -1,-1 -1,-1 -1,0 -1,-1 -2,0 -1,-1 -4,0 -1,-1 -4,0 -1,-1 -1,0 2,2 0,1 -1,1 -3,0 -1,-1 -2,0 -1,-1 -3,0 -1,-1 -2,0 -1,-1 -2,0 -1,-1 -2,0 -1,-1 0,-1 -1,0 -1,1 -3,0 -1,-1 -5,0 -1,-1 -2,0 -1,-1 -5,0 -1,-1 -4,0 -1,-1 0,-3 -3,0 -1,-1 -1,0 -1,-1 0,-3 -1,-1 0,4 -1,1 -2,0 -1,-1 -2,0 -1,-1 -4,0 -1,-1 -5,0 -1,-1 -1,-1 0,-1 -1,2 0,1 -1,1 -2,0 -1,-1 0,-1 -1,1 -4,0 -1,-1 -2,0 -1,-1 -2,0 -1,-1 -2,0 -1,-1 -1,-1 0,-4 1,-1 -1,-1 0,1 -1,3 -2,0 -1,-1 0,-1 -1,0 0,1 -1,1 -3,0 -1,-1 -2,0 -1,-1 -1,0 151,55 -152,-56Z"/>
<path onmouseover="hoverPath(evt)" onmouseout="recoverPath(evt)" fill="rgb(243,241,233)" d="M  33,255l 10,0 0,-1 -1,-1 0,-1 -1,-1 -1,0 -1,-1 0,-1 -1,-1 0,-1 -1,0 -1,-1 -1,0 -1,-1 -1,-1 -1,-1 -1,-1 0,-2 -1,-1 -2,0 -1,-1 -2,0 -1,-1 -1,-1 -1,0 -1,-1 -1,0 -1,-1 -1,-1 -1,0 -1,-1 -1,0 -1,-1 -1,0 -1,-1 -2,0 -1,-1 -1,0 -1,-1 -1,0 -1,-1 -1,0 -1,-1 -1,0 -1,-1 -1,0 0,30Z"/>
<path onmouseover="hoverPath(evt)" onmouseout="recoverPath(evt)" fill="rgb(243,241,232)" d="M  119,60l 0,0 -1,1 -2,0 -3,3 0,1 -1,1 -1,1 -1,1 0,1 -1,1 1,1 0,1 1,1 1,1 1,0 1,1 0,5 -1,1 -1,1 0,1 -1,1 -1,1 0,1 -1,1 -1,0 -1,1 -1,1 1,0 1,1 0,0 1,1 1,1 0,1 1,0 1,1 1,0 1,1 1,1 1,1 1,1 0,1 2,0 1,1 3,3 1,1 0,2 1,1 1,1 2,0 0,-1 1,-1 0,-1 1,-1 0,-1 1,-1 0,-1 1,-1 0,-1 1,-1 0,-1 1,-1 0,-1 1,-1 0,-1 1,-1 -1,-1 0,-2 1,-1 2,0 0,-1 1,-1 0,-1 1,-1 1,-1 0,-1 1,-1 0,-1 1,-1 0,-1 1,-1 0,-1 1,-1 0,-1 1,-1 0,-1 1,-1 0,-1 1,-1 0,-2 -1,0 -1,-1 -1,0 -1,-1 -3,0 -1,-1 -2,0 -1,-1 -2,0 -1,-1 -2,0 -1,-1 -1,0 -1,-1 0,-2 -1,0 -1,1 -5,0 -1,-1 -2,0Z"/>
<path onmouseover="hoverPath(evt)" onmouseout="recoverPath(evt)" fill="rgb(243,241,232)" d="M  154,243l -2,0 0,4 -1,1 -2,0 -1,-1 0,-1 -1,-1 0,-1 -5,0 -1,1 -5,0 -1,1 -3,0 -1,1 -3,0 -1,1 -2,0 -1,1 -3,0 -1,1 -1,0 -1,1 -1,0 -1,1 -2,0 -1,1 -2,0 -1,1 -1,0 0,1 117,0 0,-5 1,-1 0,-5 1,-1 0,-7 -1,0 -1,-1 -1,-1 0,-1 -2,0 -1,-1 -1,-1 0,-1 -2,0 -1,-1 -1,-1 0,-1 -2,0 -1,-1 -1,0 -1,-1 -1,-1 -1,0 -1,-1 -1,-1 -1,0 -1,-1 -1,-1 0,-1 -2,0 0,2 -1,1 -2,0 -1,-1 -1,0 -1,1 -1,0 -2,2 -1,0 0,1 -1,1 -2,0 -1,1 0,1 -1,1 0,1 -2,2 -2,0 0,1 -1,1 -1,1 -2,0 0,1 -1,1 -1,1 -1,0 -1,1 -2,0 -1,-1 -1,0 0,2 -1,1 -2,0 -1,-1 -2,0 -1,1 -4,0 -1,1 -5,0 -1,1Z"/>
<path onmouseover="hoverPath(evt)" onmouseout="recoverPath(evt)" fill="rgb(230,217,232)" d="M  155,154l 0,0 -1,-1 -1,-1 -1,-1 -1,-1 -1,0 -1,-1 -2,-2 -1,-1 -1,-1 -1,-1 -1,-1 0,-1 -1,0 -1,-1 -1,-1 -3,0 0,2 1,1 3,3 2,0 1,1 1,1 1,0 1,1 1,1 1,0 -1,-1 -1,-1 8,6 -4,-3 1,1 1,1 1,1 0,4 1,1 1,1 0,1 1,1 1,0 1,1 0,1 4,0 0,-2 1,-1 3,0 1,1 1,-1 5,0 1,1 3,0 1,1 -2,-2 0,-1 -1,0 -1,-1 0,-1 -1,-1 0,-1 -1,-1 -3,0 -1,-1 0,-2 -1,-1 -1,-1 -1,-1 -6,0 -1,1 0,1 -1,1 0,1 -1,1 -1,0 -5,-3 4,3Z"/>
<path onmouseover="hoverPath(evt)" onmouseout="recoverPath(evt)" fill="rgb(246,231,147)" d="M  167,164l 0,0 -1,-1 -1,0 0,2 1,1 1,0 1,1 0,2 1,0 1,1 0,1 2,0 1,1 0,4 1,1 0,1 1,1 0,-1 1,-1 3,0 1,1 2,0 1,1 0,2 -1,1 -2,0 1,1 0,1 1,1 1,1 1,-1 0,-1 1,-1 -1,-1 0,-3 1,-1 2,0 1,1 1,1 2,0 1,1 1,-1 2,0 1,1 4,0 1,1 0,1 10,0 1,-1 3,0 1,-1 2,0 1,-1 2,0 1,-1 1,0 1,-1 2,0 0,-2 1,-1 -5,0 -1,-1 0,-1 -4,0 -1,-1 0,-9 -1,8 -4,0 -1,-1 -2,0 -1,1 -2,0 -1,-1 -2,0 -1,-1 0,-22 -1,4 -2,0 1,1 0,16 -1,1 -2,0 -1,-1 -2,0 -1,-1 0,-1 -1,-1 0,-1 -1,0 -1,-1 0,-1 -1,-1 -1,0 -1,-1 0,-1 -1,-1 -1,-1 -1,-1 -1,-1 -1,0 -1,-1 0,-1 -1,-1 -1,0 -1,-1 -1,-1 -1,-1 -1,0 -1,-1 -1,0 -1,-1 -1,-1 0,-3 -2,0 -1,-1 -1,-1 -1,0 -1,-1 -1,-1 -1,-1 -1,-1 -2,0 -1,-1 0,-1 -1,-1 -1,-1 -1,-1 -2,0 -1,-1 0,-1 -1,-1 -1,-1 -1,-1 -1,-1 -1,0 -1,-1 -1,-1 0,-1 -3,0 -1,-1 -4,0 -1,-1 -1,-1 0,-1 -1,1 0,0 1,1 0,2 1,1 1,1 1,1 2,0 1,1 0,1 1,1 1,1 1,1 1,0 1,1 1,0 1,1 0,1 1,1 1,1 1,0 1,1 1,0 1,1 0,1 1,1 1,1 1,1 1,0 1,1 1,1 1,1 0,2 6,0 1,1 1,1 1,1 1,1 0,2 3,0 1,1 1,1 0,1 1,1 0,1 1,0 1,1 0,1 1,1 1,1 0,2 -1,1 -2,0 -1,-1 -3,0 -1,-1 -3,0 -1,1Z"/>
<path onmouseover="hoverPath(evt)" onmouseout="recoverPath(evt)" fill="rgb(241,238,231)" d="M  180,131l 0,0 -1,1 0,2 -1,1 0,4 2,0 1,1 1,1 0,2 -1,1 -4,0 -1,-1 0,2 -1,1 0,1 1,0 1,1 1,1 1,1 1,0 1,1 1,1 0,1 1,0 1,1 1,1 1,1 1,1 1,1 0,1 1,0 1,1 1,1 0,1 1,0 1,1 0,1 1,1 0,1 2,0 1,1 0,-14 -1,-1 -1,0 -1,-1 -1,0 -1,-1 0,-2 -1,1 -2,0 -1,-1 -1,0 -1,-1 0,-2 1,-1 2,0 1,1 1,0 1,1 0,1 3,0 1,1 1,0 1,1 1,0 0,-3 1,-1 2,0 1,1 0,22 2,0 1,1 1,-1 4,0 1,1 2,0 0,-7 1,-1 2,0 1,1 0,9 4,0 1,1 0,1 5,0 1,1 1,-1 2,0 1,1 1,-1 0,-3 1,-1 1,-1 1,0 0,-3 1,-1 0,-3 -1,-1 0,-7 1,-1 0,-1 1,-1 0,-2 -1,-1 0,-1 -1,-1 -10,0 -1,-1 0,-2 1,-1 1,0 0,-4 -1,-1 0,-1 -4,0 0,1 -1,1 -3,0 -1,-1 0,-6 -1,0 0,1 -1,1 -12,0 -1,-1 -3,0 0,1 -1,1 -2,0 -1,-1 -1,0 -1,-1 0,-1 -3,0 -1,-1 -5,0 -1,-1 0,1 -1,1 -2,0 -1,1Z"/>
<path onmouseover="hoverPath(evt)" onmouseout="recoverPath(evt)" fill="rgb(239,236,224)" d="M  215,67l 0,0 -1,1 0,3 1,1 1,0 1,1 1,0 1,1 2,0 1,1 2,0 1,1 3,0 1,1 3,0 1,1 2,0 1,-1 0,-10 1,-1 0,-6 -1,0 -1,-1 -3,0 0,2 -1,1 0,2 -1,1 -1,1 -13,0 -1,1Z"/>
<path onmouseover="hoverPath(evt)" onmouseout="recoverPath(evt)" fill="rgb(217,234,209)" d="M  10,148l -1,0 -1,-1 -2,0 -1,1 -2,0 -1,-1 0,-2 -1,-1 0,-2 2,-2 0,-4 -1,0 -1,-1 -1,0 0,20 5,0 1,1 0,2 3,0 1,1 -1,-2 0,-1 1,-1 3,0 0,-1 1,-1 1,0 -1,-1 0,-2 1,-1 3,0 1,-1 3,0 -2,-1 0,0 -1,-1 0,-2 -2,0 -1,-1 0,-1 -1,0 -1,1 -2,0 1,1 0,2 -1,1 -1,1Z"/>
<path onmouseover="hoverPath(evt)" onmouseout="recoverPath(evt)" fill="rgb(248,247,242)" d="M  14,45l 0,0 -1,-1 0,-1 -1,-1 -3,0 -1,1 -2,0 -1,-1 -1,0 -2,-2 -1,-1 -1,0 0,20 1,0 1,-1 0,-1 1,-1 5,0 1,-1 2,0 0,-1 -1,-1 0,-3 2,-2 1,-1 1,-1 0,-1 -2,10 0,1 1,1 1,0 1,1 1,1 1,0 1,1 1,1 1,1 0,2 1,1 4,0 1,1 1,1 1,0 1,1 1,1 1,1 0,2 4,0 1,1 1,1 0,2 1,-1 2,0 1,1 1,1 0,2 1,-1 1,0 0,-1 -1,-1 0,0 -1,-1 -1,0 -1,-1 -1,-1 -1,0 -1,-1 -1,0 -1,-1 -1,-1 0,-1 -2,0 -1,-1 -1,0 -1,-1 -1,-1 -1,-1 -1,0 -1,-1 -1,-1 0,-1 -2,0 -1,-1 -1,-1 -1,0 -1,-1 -1,-1 0,-1 -2,0 -1,-1 -1,-1 -1,0 2,-10Z"/>
<path onmouseover="hoverPath(evt)" onmouseout="recoverPath(evt)" fill="rgb(234,238,227)" d="M  17,206l 0,0 1,1 8,0 1,1 5,0 1,1 0,6 1,-5 0,-1 1,-1 1,0 1,-1 1,0 1,-1 5,0 0,-1 -6,0 -1,-1 -1,0 -1,-1 0,-1 -1,-1 0,-1 -1,-1 -1,-1 -1,-1 0,-1 -1,-1 -1,-1 -1,-1 -1,-1 -1,-1 -1,0 -1,-1 0,-1 -1,-1 -1,-1 -1,-1 -1,-1 0,-1 -2,0 -1,-1 0,-1 -1,-1 -1,-1 -1,-1 0,-1 -1,0 -1,-1 -1,0 -1,-1 -2,0 -1,-1 0,-2 -1,0 -1,-1 0,-2 -1,-1 0,-2 -1,1 -3,0 0,40 1,0 1,-1 7,0 1,-1 7,0 -12,-40 3,0 -2,-1 0,-1 -3,0 1,1 1,1 12,40Z"/>
<path onmouseover="hoverPath(evt)" onmouseout="recoverPath(evt)" fill="rgb(250,249,245)" d="M  88,181l -1,0 0,1 -1,1 -1,0 -1,1 1,0 1,1 0,2 1,0 1,-1 1,0 1,-1 3,0 1,1 2,0 1,-1 1,-1 1,0 1,-1 1,-1 0,-3 -1,-1 0,-3 1,-1 1,0 1,-1 1,0 1,-1 1,0 -7,3 -1,0 -1,1 -1,0 -1,1 -1,1 -1,1 -1,0 -1,1 -2,0 -1,1Z"/>
<path onmouseover="hoverPath(evt)" onmouseout="recoverPath(evt)" fill="rgb(240,239,227)" d="M  149,5l -2,0 -1,-1 -2,0 -1,-1 -2,0 -1,1 -3,0 -1,-1 0,-3 -26,0 0,1 1,0 2,2 2,0 1,1 0,1 1,1 1,0 1,1 1,1 1,0 1,1 1,0 1,1 2,0 1,1 2,0 1,1 2,0 1,1 1,0 1,1 3,0 1,1 3,0 1,1 3,0 1,1 1,0 1,-1 0,-2 1,-1 0,-3 1,-1 0,-3 -1,0 -1,-1Z"/>
<path onmouseover="hoverPath(evt)" onmouseout="recoverPath(evt)" fill="rgb(240,239,228)" d="M  190,22l 0,0 1,1 0,1 1,1 0,4 1,0 1,1 2,0 1,1 1,0 1,-1 2,0 1,1 0,2 2,0 1,1 2,0 1,1 2,0 1,1 2,0 1,1 2,0 1,1 1,0 1,-1 2,0 1,1 1,0 1,1 0,2 2,0 1,1 2,0 1,1 2,0 0,-1 1,-1 0,-3 1,-1 1,-1 10,0 0,-3 1,-1 0,-5 -1,-1 0,-1 -3,0 -1,-1 -8,0 -1,-1 0,-2 -6,0 -1,1 -9,0 -1,-1 -3,0 -1,1 -2,0 -1,1 -2,0 -1,-1 0,-1 -1,-1 0,-2 1,-1 0,-1 1,-1 0,-3 -2,0 -1,-1 -2,0 -1,-1 -3,0 -1,-1 -3,0 -1,1 0,1 -1,1 -2,0 -1,-1 0,-3 -2,0 0,1 -1,1 0,1 -1,1 1,1 0,2 -1,1 -2,0 0,1 -1,1 -1,1 0,1 -1,1 0,1 -1,1 0,2 1,0 1,1 3,0 1,1 3,0 0,-2 -1,-1 0,-2 1,-1 2,0 1,1Z"/>
<path onmouseover="hoverPath(evt)" onmouseout="recoverPath(evt)" fill="rgb(239,195,127)" d="M  246,205l 0,2 -1,1 0,7 -1,1 0,7 -1,1 0,5 2,0 1,1 2,0 1,1 1,1 0,4 -1,1 -1,0 -1,1 0,2 -1,1 0,1 -1,1 -2,0 -1,-1 0,-4 -1,3 0,7 -1,1 0,6 2,0 0,-2 -1,-1 0,-2 1,-1 1,-1 1,-1 1,-1 0,-1 1,-1 1,0 1,-1 1,-1 2,0 1,1 0,1 1,1 2,0 0,-91 -1,0 0,2 -1,1 -1,0 0,7 -1,1 0,7 -1,1 0,7 -1,1 0,6 -1,1 0,5 -1,1 0,6 -1,1Z"/>
<path onmouseover="hoverPath(evt)" onmouseout="recoverPath(evt)" fill="rgb(246,241,229)" d="M  22,101l 0,0 -1,-1 -1,0 -1,-1 -1,0 -1,-1 -1,0 -1,-1 -1,0 -1,-1 -1,0 1,1 2,1 5,3 0,2 -2,2 -1,1 -2,0 -1,-1 0,-1 -1,-1 -1,0 -1,-1 -1,0 -1,1 -3,0 -1,1 -2,0 -1,-1 0,-2 1,-1 1,-1 0,-1 -1,0 0,1 -1,1 -2,0 0,10 2,0 1,1 1,0 1,-1 2,0 1,1 0,4 1,1 1,-1 0,-1 1,-1 1,-1 1,-1 1,-1 1,-1 0,-1 1,-1 6,-6 -3,4 0,0 1,-1 3,0 1,1 2,0 1,1 1,0 1,1 1,-1 0,-2 -2,0 -1,-1 -1,0 -1,-1 -1,0 -1,-1 -4,4 3,-4Z"/>
<path onmouseover="hoverPath(evt)" onmouseout="recoverPath(evt)" fill="rgb(243,242,234)" d="M  47,13l 0,0 -1,-1 -1,0 -1,1 -1,1 -4,4 -1,1 1,1 0,1 1,1 1,1 1,1 0,2 1,0 1,1 1,1 1,1 0,2 1,0 2,2 1,1 1,1 0,2 1,0 1,1 1,1 1,1 1,1 0,2 1,0 1,1 1,1 1,1 1,1 1,-1 0,-1 1,-1 1,-1 0,-1 1,-1 0,-1 1,-1 3,0 0,-1 -1,-1 0,-2 1,-1 0,-1 1,-1 0,-1 1,-1 0,-1 -1,-1 -1,0 -1,-1 -1,-1 -1,-1 -1,0 -2,-2 -2,0 -1,-1 0,-1 -1,-1 -1,0 -1,-1 -1,-1 -1,0 -1,-1 -1,-1 0,-2 -1,-1 -1,1 -2,0 -1,-1Z"/>
<path onmouseover="hoverPath(evt)" onmouseout="recoverPath(evt)" fill="rgb(251,251,248)" d="M  101,254l -1,0 0,1 7,0 0,-2 1,-1 1,0 1,-1 2,0 1,-1 2,0 1,-1 1,0 1,-1 1,0 1,-1 3,0 1,-1 2,0 1,-1 3,0 1,-1 3,0 1,-1 5,0 1,-1 7,0 1,1 0,1 1,1 0,-3 1,-1 2,0 1,-1 5,0 1,-1 4,0 1,-1 4,0 1,1 0,-2 1,-1 3,0 1,1 1,-1 1,0 1,-1 0,-1 1,-1 2,0 1,-1 0,-1 1,-1 2,0 1,-1 0,-1 1,-1 0,-1 2,-2 2,0 0,-1 1,-1 1,0 1,-1 1,-1 1,0 1,-1 3,0 1,1 0,-2 1,-1 -3,0 -1,1 -1,0 -1,1 -1,0 -1,1 -2,0 -1,-1 0,1 -1,1 0,1 -1,1 -1,1 -4,0 -1,1 0,1 -1,1 0,1 -1,1 -1,1 -1,0 -1,1 -1,1 -1,1 -1,0 -1,1 -2,0 -1,-1 0,2 -1,1 -2,0 -1,1 -2,0 -1,1 -5,0 -1,1 -6,0 -1,1 -5,0 -1,1 -5,0 -1,1 -4,0 -1,1 -4,0 -1,1 -2,0 -1,1 -3,0 -1,1 -2,0 -1,1 -2,0 -1,1 -1,0 -1,1 -2,0 -1,1 -1,0 -1,1 -2,0 -1,1 -1,0 -1,1 -2,0 -1,1Z"/>
<path onmouseover="hoverPath(evt)" onmouseout="recoverPath(evt)" fill="rgb(245,197,116)" d="M  189,182l -1,0 -1,-1 -1,-1 0,1 1,1 0,2 -1,1 5,0 1,1 0,7 1,1 1,-1 0,0 1,-1 1,0 1,-1 2,0 1,1 1,0 1,1 1,1 0,1 1,1 1,0 1,1 1,0 1,1 1,1 0,1 1,-1 3,0 1,1 1,0 1,1 2,0 1,1 1,0 1,1 1,1 0,2 2,0 1,-1 2,0 1,1 2,0 1,1 0,1 1,1 0,1 1,1 1,1 0,2 -1,1 0,1 1,1 3,0 0,-8 1,-1 0,-7 1,-1 0,-5 1,-1 0,-6 1,-1 0,-3 -1,-1 0,-2 1,-1 1,0 0,-6 1,-1 0,-6 1,-1 0,-3 -1,-1 0,-2 1,-1 0,-1 1,-1 0,-1 -1,-1 0,-7 -3,0 0,3 -1,1 0,1 -1,1 0,5 1,1 0,5 -1,1 0,3 -1,1 -1,0 -1,1 0,3 -1,1 -1,1 -2,0 -1,-1 -1,1 -1,0 -1,1 0,2 -1,1 -2,0 -1,1 -1,0 -1,1 -2,0 -1,1 -2,0 -1,1 -3,0 -1,1 -12,0 -1,-1 0,-1 -4,0 -1,-1 -1,1 -2,0 -1,-1Z"/>
<path onmouseover="hoverPath(evt)" onmouseout="recoverPath(evt)" fill="rgb(235,222,217)" d="M  216,207l 0,0 1,1 0,2 2,0 1,1 0,1 2,0 1,1 1,1 1,1 0,1 1,1 1,0 1,1 0,2 -1,1 0,1 1,1 2,0 1,-1 2,0 1,-1 0,-2 -1,0 -1,-1 -1,-1 0,-3 1,-1 -1,-1 0,0 -1,-1 0,-1 -1,-1 0,-1 -2,0 -1,-1 -1,1 -4,0 -1,-1 0,-2 -1,-1 -1,0 -1,-1 -2,0 -1,-1 -1,0 -1,-1 -1,0 -1,1 0,1 1,0 1,1 0,2 1,0 1,1Z"/>
<path onmouseover="hoverPath(evt)" onmouseout="recoverPath(evt)" fill="rgb(234,183,110)" d="M  251,86l 0,0 -1,1 0,2 -1,1 -1,0 -1,1 1,0 1,1 0,4 -1,1 -1,0 0,1 -1,1 1,0 1,1 0,4 -1,1 -1,0 0,1 -1,1 1,0 1,1 0,5 1,1 0,3 -1,1 -1,0 0,6 1,1 0,2 1,-3 1,0 0,-3 -1,-1 0,-2 3,-32 0,-2 -1,-1 0,0 1,2 0,1 -1,-5 -1,0 -1,1 -2,0 2,1 1,0 1,-2 1,5 -1,17 0,-3 1,-1 1,0 0,-4 -1,-1 0,-3 1,-1 3,0 0,-15 -1,0 -1,-1 0,4 -1,1 0,1 -2,23 1,-17 0,20 -1,1 1,0Z"/>
<path onmouseover="hoverPath(evt)" onmouseout="recoverPath(evt)" fill="rgb(170,199,236)" d="M  13,175l 0,0 1,1 1,0 1,1 0,1 1,1 1,1 1,1 0,1 2,0 1,1 0,1 1,1 1,1 1,1 1,1 0,1 1,0 1,1 1,1 1,1 1,1 1,1 1,1 0,1 1,1 1,1 1,1 0,1 1,1 0,1 1,0 1,1 3,0 0,-1 -1,-1 0,0 -1,-1 -1,-1 -1,-1 0,-1 -1,-1 -1,-1 -1,-1 -2,-2 0,-1 -1,-1 -1,-1 -2,-2 -1,-1 -1,-1 -1,-1 -2,-2 -1,-1 -1,-1 -1,0 -1,-1 -1,-1 -1,-1 -1,-1 -1,-1 -1,0 -1,-1 -1,1 -1,-1 -1,0 -1,-1 -1,-1 0,2 1,0 -1,-3 0,-1 -1,-1 0,-1 -2,0 1,1 0,2 1,0 4,4 0,-1 1,1Z"/>
<path onmouseover="hoverPath(evt)" onmouseout="recoverPath(evt)" fill="rgb(200,225,190)" d="M  49,88l 1,-1 0,-1 1,-1 0,-1 1,-1 -2,0 -1,-1 -1,-1 0,-2 -1,-1 -1,0 0,1 -1,1 -1,0 0,3 -1,1 0,1 -1,1 0,1 -1,1 0,1 -1,1 -1,1 0,1 -1,1 0,1 -1,1 0,1 -1,1 0,1 -1,1 -1,1 0,1 -1,1 -1,1 0,4 -1,1 -1,1 -1,0 -1,1 0,2 -1,1 0,1 -1,1 0,1 -1,1 -1,1 0,1 -1,1 0,1 -1,1 1,1 0,3 2,0 0,-1 1,-1 0,-1 1,-1 0,-1 1,-1 0,-1 1,-1 1,-1 0,-1 1,-1 0,-2 1,-1 1,-1 3,0 1,1 0,-1 1,-1 1,-1 0,-1 1,-1 0,-1 1,-1 0,-1 1,-1 0,-1 1,-1 0,-1 1,-1 0,-1 1,-1 -1,-1 0,-2 1,-1 2,0 0,-1 1,-1 0,-1 1,-1Z"/>
<path onmouseover="hoverPath(evt)" onmouseout="recoverPath(evt)" fill="rgb(244,242,234)" d="M  49,206l -3,0 2,1 0,1 1,1 3,3 0,1 1,1 1,1 0,1 1,1 1,1 0,1 1,1 1,1 1,1 0,1 1,1 1,1 1,1 0,1 1,1 1,1 1,1 0,1 1,1 1,1 1,1 0,1 1,1 1,1 1,1 0,1 1,1 1,1 1,1 1,1 0,1 1,1 1,1 1,1 1,1 1,1 0,1 1,1 1,1 1,1 0,2 15,0 0,-2 1,-1 1,0 1,-1 2,0 1,-1 1,0 1,-1 2,0 1,-1 1,0 1,-1 2,0 1,-1 1,0 1,-1 2,0 1,-1 2,0 1,-1 3,0 1,-1 2,0 1,-1 4,0 1,-1 4,0 1,-1 5,0 1,-1 5,0 1,-1 6,0 1,-1 5,0 1,-1 2,0 1,-1 2,0 0,-2 1,-1 2,0 1,1 1,-1 1,0 1,-1 1,-1 1,-1 1,0 1,-1 0,-1 1,-1 0,-1 1,-1 1,-1 4,0 1,-1 0,-1 1,-1 0,-1 1,-1 2,0 1,1 1,-1 1,0 1,-1 1,0 1,-1 -1,-1 -1,0 -1,-1 -1,-1 0,-1 -2,0 -1,-1 -1,-1 -1,-1 0,-1 -1,0 -1,-1 -1,0 -1,-1 -1,-1 -1,-1 -1,-1 0,-1 -2,0 -1,-1 -1,-1 -1,-1 -1,-1 -1,-1 -1,-1 0,-2 -1,1 0,0 -1,1 -1,0 -1,1 -1,1 -1,1 -1,0 -1,1 -2,2 -2,0 -1,-1 0,-2 1,-1 1,-1 1,-1 0,-1 1,-1 2,0 1,-1 1,-1 -1,0 -1,-1 0,-1 -1,-1 -1,-1 -1,-1 -1,-1 0,-1 -2,0 -1,-1 -1,-1 -1,0 -1,-1 0,-5 -1,1 -4,0 -1,1 -2,0 -1,-1 0,-4 -1,-1 -2,0 -1,-1 -1,0 -1,-1 -2,0 -1,-1 -2,0 -1,-1 -2,0 -1,-1 -1,0 0,1 -1,1 -3,0 -1,-1 -1,-1 -1,1 -2,0 -1,-1 -1,0 -1,1 -1,0 -1,1 -1,0 -1,1 -1,0 -1,1 -2,0 -1,1 -2,0 -1,-1 0,2 -1,1 -1,0 -1,1 -1,0 -1,1 -1,0 0,1 1,1 0,5 -1,1 -1,1 -1,1 -1,0 -2,2 -4,0 -1,-1 -1,0 -1,1 -1,0 -1,1 -3,0 -1,-1 0,-2 -1,1 0,0 -1,1 0,1 -1,1 -1,0 -1,1 -1,1 -1,0 -1,1 -1,0 -1,1 -1,1 -1,0 -1,1 -1,0 -1,1 -1,0 -1,1 -1,0 -1,1 -1,0 -1,1 -1,0 -1,1 -1,0 -1,1 -1,0 -1,1 -2,0 -1,1 -1,0 -1,1 -2,0 -1,1Z"/>
<path onmouseover="hoverPath(evt)" onmouseout="recoverPath(evt)" fill="rgb(235,238,229)" d="M  68,24l 0,0 1,1 1,1 1,0 1,1 1,1 1,1 0,1 3,0 1,-1 1,0 1,-1 2,0 0,-1 1,-1 0,-8 1,-1 1,0 0,-3 1,-1 1,-1 1,0 -2,-1 -1,-1 -1,0 -1,-1 -2,0 -1,-1 -1,0 -1,-1 -1,0 -1,-1 -1,0 -1,-1 -1,0 -1,1 -2,0 -1,-1 -1,0 -1,-1 0,-4 -43,0 0,1 1,1 0,0 1,1 0,2 1,0 1,1 1,1 0,1 1,1 1,1 0,2 1,0 1,1 1,1 0,1 1,1 1,1 0,2 1,-2 0,0 5,-5 1,-1 1,-1 3,0 1,1 1,0 1,1 1,-1 2,0 1,1 1,1 0,2 1,1 1,0 1,1 1,1 1,0 1,1 1,1 0,1 2,0 1,1 1,1 1,0 1,1Z"/>
<path onmouseover="hoverPath(evt)" onmouseout="recoverPath(evt)" fill="rgb(225,212,232)" d="M  93,95l 0,0 -1,-1 -1,0 -1,-1 0,-1 -1,-1 -1,-1 -1,-1 -1,-1 -1,-1 -1,-1 -1,-1 -1,-1 -2,0 -1,-1 -1,-1 -1,-1 -1,-1 -1,-1 -1,-1 -1,-1 -1,-1 -1,-1 0,-1 -1,0 -1,-1 -1,-1 0,-1 -1,0 -1,-1 0,-2 1,-1 1,-1 -1,-1 0,0 -1,-1 -1,-1 -2,0 -1,-1 0,-2 -1,-1 -1,-1 -1,0 -1,1 -2,0 -1,-1 0,-2 -1,-1 -1,-1 -1,-1 -1,-1 0,-1 -3,-3 0,-4 -1,-1 -1,-1 -1,-1 -1,1 -3,0 -1,-1 0,-7 -2,0 -1,-1 0,-1 -2,0 -1,1 -1,0 -1,1 0,1 1,0 1,1 0,2 1,0 1,1 0,2 1,1 1,1 1,0 1,1 0,1 1,1 0,1 3,0 1,1 1,0 1,1 0,1 2,0 44,45 -42,-42 0,1 -1,1 0,1 -1,1 -1,1 2,0 1,1 0,3 1,1 0,3 1,1 1,0 1,1 1,0 1,1 5,0 1,1 1,1 1,1 1,1 0,1 1,1 1,1 1,1 0,1 1,1 1,1 1,1 1,1 1,1 0,2 -1,1 -1,1 -2,0 1,1 0,1 1,0 1,1 1,1 1,1 1,1 0,1 1,0 1,1 1,0 1,1 0,1 1,0 1,1 1,1 1,1 1,1 1,1 0,12 -1,1 0,2 2,0 0,-7 2,0 -1,-1 0,-4 1,-1 1,-1 0,-2 1,-1 2,0 1,1 0,1 1,1 1,1 1,1 1,1 1,1 0,2 4,0 1,1 0,3 -1,1 -1,1 0,1 1,1 0,0 1,1 1,1 0,1 2,0 1,1 1,1 1,1 0,1 2,0 1,1 1,0 1,1 0,1 1,0 1,1 1,1 5,0 1,1 1,1 2,0 1,1 1,1 1,0 1,1 2,0 1,1 1,1 -3,-3 0,-1 -1,0 -1,-1 -1,-1 -2,0 -1,-1 -1,-1 0,-1 -1,0 -1,-1 0,-1 -1,-1 0,-1 -1,0 -1,-1 -1,-1 0,-3 1,-1 0,-4 -1,-1 0,0 -1,1 -3,0 0,1 -1,1 -2,0 -1,-1 -2,0 -1,-1 -1,-1 0,-2 -1,0 -1,-1 -1,-1 -1,0 -1,-1 -1,0 -1,-1 0,-2 -1,-1 0,-2 -1,-1 -1,0 -1,-1 0,-1 -1,-1 -1,-1 -43,-43 42,42 -25,-10 -1,-1 -1,-1 -1,-1 -1,0 1,1 0,0 1,1 1,1 1,0 25,10Z"/>
<path onmouseover="hoverPath(evt)" onmouseout="recoverPath(evt)" fill="rgb(238,231,163)" d="M  120,103l 0,0 -1,-1 -1,-1 -2,0 -1,-1 0,-1 -1,-1 -1,-1 -1,-1 -1,0 -1,-1 -1,0 -1,-1 0,-1 -1,-1 -1,-1 -1,0 -1,-1 0,-2 -3,0 -1,-1 0,-1 -1,-1 -1,-1 -1,-1 -1,0 -1,-1 -1,-1 -1,0 -1,-1 0,-1 -1,-1 -1,-1 -1,-1 -1,-1 -1,0 -1,-1 -1,-1 -1,0 -1,-1 0,-1 -1,-1 -1,-1 -1,-1 -1,-1 -1,-1 -1,0 -1,-1 -1,-1 -1,-1 0,-3 1,-1 -1,-1 0,-5 1,-1 -1,-1 -1,-1 -1,-1 -1,-1 -1,-1 0,-3 -1,-1 0,-1 -1,-1 -1,0 0,1 -1,1 0,1 -1,1 -1,1 0,1 -1,1 -1,1 -2,0 -1,-1 -1,-1 -1,-1 -1,-1 -1,0 -1,-1 0,-2 -1,-1 -1,-1 -1,-1 -1,0 -1,-1 0,-2 -1,-1 -1,-1 -1,-1 -1,0 -1,-1 0,-2 -1,-1 -1,-1 -1,0 -1,-1 0,-2 -1,-1 -1,-1 -1,-1 0,-1 -2,0 -1,-1 0,-2 -1,-1 -1,-1 0,-1 -1,-1 -1,0 -1,-1 0,-2 -1,-1 -1,-1 0,-1 -1,-1 -1,0 -1,-1 0,-2 -1,-1 -1,-1 0,-2 -8,0 0,1 1,0 1,1 0,1 3,0 1,1 0,2 -1,1 -2,0 0,1 1,1 0,1 1,0 1,1 0,6 1,0 1,1 0,1 1,1 1,1 0,1 1,1 0,1 1,1 1,1 0,1 1,1 0,1 1,1 1,1 0,1 1,0 1,-1 1,0 1,-1 4,0 1,1 0,1 2,0 1,1 0,7 1,0 1,-1 2,0 1,1 1,1 1,1 1,1 0,4 1,1 1,1 1,1 0,1 1,1 1,1 1,1 1,1 0,2 1,-1 3,0 1,1 1,1 1,1 0,2 2,0 1,1 3,3 0,2 -1,1 -1,1 1,0 1,1 0,1 1,1 0,-1 1,-1 2,0 1,1 1,1 1,0 1,1 0,1 1,1 1,1 1,1 1,1 1,1 1,1 2,0 1,1 0,1 1,1 1,1 1,1 1,1 1,1 1,0 1,1 1,0 1,1 0,1 1,1 1,1 1,1 1,1 1,1 2,0 1,1 0,1 1,1 1,1 1,1 2,0 1,1 0,1 1,1 1,1 1,1 1,0 1,1 1,0 1,1 0,1 1,1 1,1 1,0 1,1 1,1 0,3 1,-1 3,0 1,1 0,1 1,1 3,0 1,-1 0,-1 1,-1 -1,-1 -1,0 -1,-1 -2,0 -1,-1 0,-1 -2,0 -1,-1 -1,-1 -1,-1 0,-2 -1,-1 -1,-1Z"/>
<path onmouseover="hoverPath(evt)" onmouseout="recoverPath(evt)" fill="rgb(240,235,232)" d="M  152,127l 0,0 1,1 1,1 0,1 2,0 1,1 1,1 1,1 1,1 0,1 2,0 1,1 1,1 2,2 1,0 1,1 1,1 2,0 0,-1 1,-1 0,-3 1,-1 0,-2 1,-1 0,-2 1,-1 0,-1 1,-1 -1,-1 0,-2 1,-1 1,0 0,-2 1,-1 0,-3 1,-1 0,-2 -3,0 -1,-1 0,-2 1,-1 0,-1 1,-1 0,-1 1,-1 0,-1 -2,0 -1,1 -1,0 0,1 -1,1 -1,0 -1,1 -2,0 -1,1 -1,0 -1,1 -2,0 -1,-1 -4,0 0,1 -1,1 -1,1 -4,0 -1,1 0,1 -2,2 -2,0 -1,-1 0,-3 1,-1 -1,0 -1,-1 -1,0 -1,-1 -1,0 -1,-1 -1,0 -1,1 -2,0 -1,-1 -4,0 0,1 -1,1 1,0 1,1 0,0 1,1 0,2 -1,1 1,1 1,0 1,1 0,1 1,1 4,0 1,1 3,0 1,1 0,1 1,1 1,0 3,3Z"/>
<path onmouseover="hoverPath(evt)" onmouseout="recoverPath(evt)" fill="rgb(240,238,227)" d="M  157,84l -2,0 0,3 -1,1 -3,0 -1,-1 -1,0 -1,-1 -3,0 1,1 0,2 -1,1 0,1 -1,1 -2,0 0,1 -1,1 1,0 1,1 0,2 -1,1 -3,0 -1,1 0,1 -1,1 0,1 -1,1 0,1 1,1 1,0 1,1 1,0 1,1 2,0 1,1 1,0 1,1 1,0 1,1 1,0 1,1 0,2 1,-1 1,-1 4,0 1,-1 0,-1 1,-1 6,0 1,1 1,-1 1,0 1,-1 0,-2 1,-1 1,-1 1,0 0,-1 1,-1 1,-1 0,-3 -1,0 -1,-1 -5,0 -1,-1 0,-2 1,-1 8,0 0,-1 1,-1 2,0 1,1 0,4 -1,1 0,4 1,1 3,0 1,1 1,1 0,3 1,-1 0,0 1,-1 0,-1 1,-1 0,-1 1,-1 0,-2 1,-1 0,-1 1,-1 0,-2 -4,0 -1,-1 -4,0 -1,-1 0,-2 1,-1 7,0 1,1 3,0 -1,-1 0,-2 1,-1 2,0 0,-1 1,-1 0,-1 -1,-1 0,-2 1,-1 2,0 0,-2 1,-1 0,-1 1,-1 0,-2 1,-1 -1,-1 -2,0 -1,-1 -2,0 -1,-1 -2,0 -1,-1 -2,0 -1,-1 -2,0 -1,-1 -4,0 -1,1 -2,0 -1,-1 -1,-1 0,-2 -2,0 -1,-1 -2,0 -1,-1 -1,0 -1,-1 -2,0 -1,-1 -3,0 0,1 -1,1 0,1 -1,1 0,1 -1,1 0,1 -1,1 -1,1 0,1 -1,1 0,1 -1,1 0,3 1,1 1,0 1,1 0,4 1,1 2,0 1,1 0,2 -1,1 -2,0 -8,30 0,1 1,-1 -1,0 8,-30Z"/>
<path onmouseover="hoverPath(evt)" onmouseout="recoverPath(evt)" fill="rgb(212,189,228)" d="M  209,205l 0,0 -1,-1 0,-2 -1,-1 0,-1 -1,-1 -1,0 -1,-1 -1,0 -1,-1 -1,-1 0,-1 -1,-1 -1,1 -1,1 -1,0 -1,1 0,2 -1,1 1,0 1,1 0,1 1,0 1,1 1,0 1,1 1,1 1,1 1,0 1,1 0,1 1,1 1,1 1,0 1,1 1,1 1,1 1,1 1,1 1,1 1,0 1,1 1,1 1,1 1,0 1,1 5,0 1,-1 -1,0 -1,-1 0,0 -1,-1 0,-1 -1,-1 -1,-1 -2,0 -1,-1 0,-1 -2,0 -1,-1 0,-2 -2,0 -1,-1 -1,0 -1,-1 0,-1 -1,-1Z"/>
<path onmouseover="hoverPath(evt)" onmouseout="recoverPath(evt)" fill="rgb(239,228,212)" d="M  248,246l -1,0 0,1 -1,1 -1,1 -1,1 -1,1 1,1 0,3 11,0 0,-8 -3,0 -1,-1 -1,-1 0,-1 -2,2Z"/>
<path onmouseover="hoverPath(evt)" onmouseout="recoverPath(evt)" fill="rgb(243,197,183)" d="M  255,110l 0,-18 -2,0 0,1 1,1 0,6 -1,1 -1,0 0,1 1,1 0,5 -1,1 0,3 -1,1 -1,0 0,6 1,1 0,5 -1,1 -1,0 0,2 -1,1 -1,0 0,4 -1,1 -5,0 -1,1 -10,0 0,7 -1,1 9,0 1,1 1,1 0,1 5,0 1,1 0,7 1,1 0,3 -1,1 0,1 -1,1 1,1 0,5 -1,1 0,6 -1,1 0,6 -1,1 0,6 -1,1 0,6 -1,1 0,5 -1,1 0,7 -1,1 0,8 -1,1 -2,0 0,3 -1,1 -1,1 -2,0 1,1 0,2 -1,1 0,7 -1,1 -1,0 0,8 -1,1 0,5 -1,1 0,4 10,0 0,-7 1,-1 0,-7 1,-1 0,-2 1,-1 2,0 1,1 0,4 1,-2 0,-2 1,-1 1,-1 1,0 0,-2 -1,-1 -2,0 -1,-1 -2,0 -1,-1 0,-7 1,-1 0,-7 1,-1 0,-7 1,-1 0,-6 1,-1 0,-6 1,-1 0,-5 1,-1 0,-6 1,-1 0,-7 1,-1 0,-7 1,-1 0,-7 1,-1 1,0 0,-2 1,-1 2,0 0,-42 -26,25 0,-2 -9,0 0,2 1,0 0,-1 8,1 26,-25Z"/>
</svg>