<svg width="256" height="256" xmlns="http://www.w3.org/2000/svg"><script> 
var tempColor;
function hoverPath(evt){
obj = evt.target;
tempColor = obj.getAttribute("fill");
obj.setAttribute("fill","red");
//alert(tempColor);
//obj.setAttribute("stroke","red");}
function recoverPath(evt){
obj = evt.target;
obj.setAttribute("fill", tempColor);
//obj.setAttribute("stroke", tempColor);
}</script><path onmouseover="hoverPath(evt)" onmouseout="recoverPath(evt)" fill="rgb(247,198,108)" d="M  0,240l 0,10 4,0 1,-1 3,0 0,-1 1,-1 4,0 1,1 1,0 1,-1 0,0 1,-1 3,0 1,1 0,2 1,0 1,-1 4,0 0,-1 1,-1 6,0 1,-1 4,0 1,1 0,1 1,1 1,0 1,-1 4,0 0,-1 1,-1 3,0 1,1 1,-1 2,0 1,-1 4,0 1,1 0,2 1,0 1,-1 3,0 1,-1 1,-1 3,0 1,1 1,-1 1,0 1,-1 3,0 1,1 0,2 2,0 1,-1 4,0 0,-1 1,-1 6,0 1,-1 4,0 1,1 0,2 3,0 1,-1 6,0 1,1 2,0 0,-1 1,-1 3,0 1,1 3,0 0,-1 1,-1 -2,0 -1,-1 0,-1 -1,-1 0,-1 -1,-1 0,-1 -1,-1 -1,-1 -4,0 -1,-1 -1,-1 -1,1 -2,0 -1,-1 -1,0 -1,1 -4,0 -1,1 -1,1 -7,0 -1,1 -10,0 -1,-1 0,-1 -3,0 -1,-1 -4,0 -1,1 0,0 -1,1 0,1 -1,1 -9,0 -1,-1 0,-1 -1,0 -1,-1 -4,0 -1,1 -1,0 0,2 -1,1 -10,0 -1,-1 0,-1 -1,0 -1,-1 -9,0 -1,1 -2,0 -1,-1 -3,0 0,1 -1,1 -2,0 -1,-1 -3,0 0,1 -1,1 -2,0 -1,-1 -3,0 -1,-1 0,-2 -1,1 -2,0Z"/>
<path onmouseover="hoverPath(evt)" onmouseout="recoverPath(evt)" fill="rgb(240,238,226)" d="M  23,200l 0,16 1,1 0,12 1,1 0,1 10,0 0,-16 -1,-1 0,-17 -9,0 -1,1 -1,0Z"/>
<path onmouseover="hoverPath(evt)" onmouseout="recoverPath(evt)" fill="rgb(233,234,230)" d="M  80,40l -1,1 -1,1 0,1 3,0 1,1 0,2 1,1 0,2 -1,1 0,4 2,0 1,-1 5,0 1,1 0,2 -1,1 0,1 3,0 1,-1 5,0 1,-1 4,0 1,-1 5,0 1,-1 4,0 1,-1 4,0 1,-1 3,0 0,-1 -1,-1 0,-2 1,-1 2,0 0,-2 -1,-1 0,-3 -1,-1 0,-4 -1,0 -1,-1 -1,-1 -1,0 -1,-1 0,-2 -5,0 -1,1 -11,0 -1,1 -14,0 -1,1 -4,0 0,2 -1,1 0,2 -1,1Z"/>
<path onmouseover="hoverPath(evt)" onmouseout="recoverPath(evt)" fill="rgb(243,241,232)" d="M  189,192l 0,9 -1,1 -2,0 0,8 1,1 0,8 -1,1 1,0 1,1 0,4 1,1 2,0 1,-1 3,0 1,1 0,2 1,0 0,-1 1,-1 2,0 1,-1 1,-1 1,0 0,-2 1,-1 0,-5 1,-1 0,-6 1,-1 0,-5 1,-1 0,-10 -5,0 -1,-1 -5,0 -1,-1 -6,0Z"/>
<path onmouseover="hoverPath(evt)" onmouseout="recoverPath(evt)" fill="rgb(245,244,237)" d="M  0,1l 0,11 8,0 0,-1 1,-1 1,0 0,-1 1,-1 0,-1 1,-1 0,-3 -1,-1 0,-2 -10,0 -1,1Z"/>
<path onmouseover="hoverPath(evt)" onmouseout="recoverPath(evt)" fill="rgb(237,234,221)" d="M  9,209l 9,0 1,-1 0,-8 -1,-1 0,-1 -9,0 -1,1 -1,0 0,8 1,1 1,1Z"/>
<path onmouseover="hoverPath(evt)" onmouseout="recoverPath(evt)" fill="rgb(243,242,234)" d="M  35,137l 0,11 1,1 0,13 1,1 0,11 1,1 0,5 8,0 1,-1 9,0 1,-1 3,0 1,-1 3,0 1,-1 2,0 1,-1 3,0 -1,-1 0,-1 -1,-1 0,-1 -1,-1 0,-1 -1,-1 -1,-1 0,-1 -1,-1 0,-1 -1,-1 0,-1 -1,-1 0,-1 -1,-1 -1,-1 0,-1 -1,-1 0,-1 -1,-1 0,-1 -1,-1 0,-1 -1,-1 0,-1 -1,-1 -2,0 -1,-1 -1,0 -1,-1 0,-1 -1,-1 0,-3 1,-1 0,-1 1,-1 0,-2 -1,-1 0,0 -1,1 -2,0 -1,-1 -1,1 -5,0 -1,-1 -5,0Z"/>
<path onmouseover="hoverPath(evt)" onmouseout="recoverPath(evt)" fill="rgb(242,241,232)" d="M  39,184l -1,0 0,11 1,1 0,5 1,1 0,1 1,1 1,1 0,3 1,1 0,11 18,0 1,-1 0,-1 1,-1 2,0 3,-3 1,-1 1,0 1,-1 1,-1 1,-1 1,-1 0,-1 1,-1 1,0 0,-2 1,-1 1,0 1,-1 1,-1 1,-1 0,-5 -3,0 0,1 -1,1 0,2 -1,1 -6,0 -1,-1 0,-1 -1,-1 0,-20 -2,0 -1,1 -3,0 -1,1 -3,0 0,2 -1,1 -5,0 -1,1Z"/>
<path onmouseover="hoverPath(evt)" onmouseout="recoverPath(evt)" fill="rgb(245,234,139)" d="M  178,0l -2,0 0,1 1,1 2,2 1,1 0,1 1,1 1,1 1,1 1,1 1,1 1,0 1,1 0,1 1,1 0,1 1,1 1,1 0,1 1,1 0,1 2,0 1,1 0,8 1,1 0,2 2,0 1,1 0,8 1,1 0,2 1,1 0,3 1,1 0,2 1,1 0,2 1,1 0,2 1,1 0,1 1,1 0,2 1,1 0,1 1,1 0,1 1,1 0,1 1,1 0,2 1,1 0,4 1,0 1,1 0,3 -1,1 -7,0 8,1 0,3 1,1 0,11 1,1 0,7 1,1 0,10 2,0 1,1 0,6 -1,1 -1,1 0,1 1,1 0,5 -1,1 -1,1 -1,0 -1,1 -1,0 0,2 -1,1 0,1 1,1 0,1 1,1 0,2 1,1 0,6 -1,1 0,6 -1,1 0,12 -1,1 0,10 -1,1 0,3 -1,1 1,0 1,1 0,4 -1,1 -1,0 0,10 -1,1 0,5 -1,1 0,6 -1,1 0,4 1,1 0,2 4,0 0,-3 1,-1 0,-5 1,-1 0,-5 1,-1 0,-5 1,-1 0,-8 -1,-1 0,-4 1,-1 1,0 0,-7 1,-1 0,-11 1,-1 0,-4 -1,-1 0,-3 1,-1 1,0 0,-8 1,-1 0,-8 1,-1 0,-11 1,-1 0,-9 -1,-1 0,-3 1,-1 -1,-1 0,-6 -1,-1 0,-10 -1,-1 0,-9 -1,-1 0,-4 1,-1 1,0 1,-1 3,0 1,-1 3,0 1,-1 2,0 1,-1 3,0 1,-1 3,0 1,-1 3,0 1,-1 3,0 1,-1 3,0 1,-1 3,0 0,-8 -4,0 -1,1 -3,0 -1,1 -3,0 -1,1 -3,0 -1,1 -3,0 -1,1 -2,0 -1,1 -3,0 -1,1 -3,0 -1,1 -3,0 -1,1 -3,0 -1,-1 0,-2 -1,-1 0,-2 -1,-1 0,-2 -1,-1 0,-1 -1,-1 0,-1 -1,-1 0,-1 -1,-1 0,-1 -1,-1 0,-3 -1,-1 0,-2 -1,-1 0,-2 -1,-1 0,-2 -1,-1 0,-3 -1,-1 0,-3 -1,-1 0,-1 -1,-1 0,-2 -1,-1 0,-2 -1,0 -1,-1 0,-5 -1,-1 0,-1 -1,-1 0,-2 -1,-1 -1,-1 0,-1 -1,-1 -1,-1 0,-1 -1,-1 -1,-1 -1,-1 -1,-1 -1,-1 -1,0 -1,-1 0,-1 -1,-1 0,-2Z"/>
<path onmouseover="hoverPath(evt)" onmouseout="recoverPath(evt)" fill="rgb(245,244,237)" d="M  186,1l 0,0 1,1 0,1 1,0 1,1 1,1 1,1 1,1 1,1 1,1 0,1 1,1 1,1 0,1 1,1 1,1 0,2 1,1 0,1 1,1 0,1 6,0 1,-1 3,0 1,-1 2,0 1,-1 2,0 1,-1 1,0 1,-1 2,0 1,-1 1,0 1,-1 2,0 1,-1 2,0 1,-1 1,0 1,-1 2,0 1,-1 1,0 1,-1 1,0 1,-1 2,0 1,-1 1,0 1,-1 1,0 1,-1 2,0 1,-1 1,0 1,-1 1,0 1,-1 2,0 0,-2 -68,0 -1,1Z"/>
<path onmouseover="hoverPath(evt)" onmouseout="recoverPath(evt)" fill="rgb(243,242,234)" d="M  15,18l 0,0 -1,1 -1,1 0,2 -1,1 0,1 -1,1 0,2 -1,1 0,4 12,0 1,-1 17,0 1,-1 9,0 1,1 0,2 -1,1 9,0 1,-1 13,0 1,-1 11,0 1,-1 6,0 0,-4 1,-1 1,-1 0,-1 1,-1 6,0 0,-1 1,-1 0,-4 1,-1 0,-1 1,-1 1,0 0,-4 -2,0 -1,-1 0,-9 -80,0 0,9 -1,1 0,1 -1,1 -1,0 0,2 -1,1 -1,1 -1,1 -1,1 35,17 -1,-1 -5,0 -1,1 -14,0 -1,1 -17,0 1,1 0,1 5,0 1,-1 11,0 1,-1 -1,0 21,-1 -35,-17 33,17 -33,-17Z"/>
<path onmouseover="hoverPath(evt)" onmouseout="recoverPath(evt)" fill="rgb(242,238,227)" d="M  43,250l -3,0 -1,-1 -1,-1 0,-1 -2,0 -1,1 -6,0 0,1 -1,1 -4,0 -1,1 -3,0 -1,-1 0,-2 -1,0 -1,1 0,0 -1,1 -3,0 -1,-1 -2,0 0,1 -1,1 -3,0 -1,1 -5,0 0,3 117,0 0,-1 -1,-1 0,-1 -1,0 -1,-1 0,-1 -1,-1 0,-1 -1,-1 -3,0 -1,-1 -4,0 -1,1 -5,0 -1,-1 0,-2 -2,0 -1,1 -6,0 0,1 -1,1 -4,0 -1,1 -4,0 -1,-1 0,-2 -1,0 -1,1 -1,0 -1,1 -2,0 -1,-1 -1,0 -1,1 -1,1 -3,0 -1,1 -3,0 -1,-1 0,-2 -2,0 -1,1 -2,0 -1,1 -2,0 -1,-1 -1,0 0,1 -1,1 -4,0 -1,1Z"/>
<path onmouseover="hoverPath(evt)" onmouseout="recoverPath(evt)" fill="rgb(241,240,231)" d="M  46,95l 0,0 1,1 0,1 1,0 1,1 0,4 1,1 1,1 0,1 1,1 0,1 1,1 1,1 0,1 1,1 3,0 1,-1 2,0 1,-1 3,0 1,-1 3,0 1,-1 3,0 1,-1 4,0 1,-1 3,0 1,-1 3,0 1,-1 3,0 1,-1 3,0 1,-1 3,0 1,-1 3,0 1,-1 2,0 1,-1 4,0 1,-1 3,0 1,-1 3,0 1,-1 3,0 1,-1 3,0 1,-1 3,0 1,-1 2,0 1,-1 1,0 1,-1 1,-1 3,0 1,1 1,0 1,-1 -2,0 -2,-1 -1,-1 0,-1 -1,-1 0,-1 -1,-1 0,-2 -1,-1 0,-3 -1,-1 0,-3 -1,-1 0,-2 -1,-1 0,-3 -1,-1 0,-2 -1,-1 0,-3 -1,-1 0,-3 -1,-1 0,-2 -1,-1 0,-2 -2,0 1,1 0,3 -1,1 -3,0 -1,1 -4,0 -1,1 -4,0 -1,1 -5,0 -1,1 -4,0 -1,1 -5,0 -1,1 -5,0 -1,-1 0,-3 1,-1 -3,0 -1,1 -4,0 -1,-1 0,-6 1,-1 -1,-1 0,-2 -3,0 -1,-1 0,-3 1,-1 1,-1 1,-1 0,-1 -3,0 -1,1 -10,0 -1,1 -1,0 1,1 0,2 1,1 0,2 1,1 0,2 1,1 0,1 1,1 0,3 1,1 0,2 -1,1 -3,0 0,3 -1,1 -4,0 -1,-1 -3,0 2,1 0,3 -1,1 -2,0 -1,1 -4,0 -1,1 -5,0 -1,1 -5,0 -1,1 -4,0 -1,1 -1,0 1,1 0,1 1,1 0,1 1,1 1,1 0,1 1,1 0,1 1,1 0,1 1,0 1,1 0,1 2,2 0,3 -1,1 -2,0 0,2 1,1 0,2 1,1 1,0 1,-1Z"/>
<path onmouseover="hoverPath(evt)" onmouseout="recoverPath(evt)" fill="rgb(246,201,113)" d="M  122,232l -3,0 -1,-1 0,-3 -2,0 0,1 -1,1 -1,0 0,2 1,0 1,1 1,1 1,1 0,1 1,1 0,1 1,1 0,1 1,0 1,-1 0,-1 1,-1 2,0 1,1 1,1 0,1 1,1 1,0 1,1 1,0 1,1 1,-1 3,0 1,1 5,0 1,-1 4,0 0,-1 1,-1 3,0 1,1 1,0 1,-1 1,-1 4,0 1,1 0,2 2,0 1,-1 7,0 1,1 0,-2 1,-1 3,0 1,1 1,-1 1,0 1,-1 3,0 1,1 0,2 3,0 1,-1 5,0 1,-1 1,-1 3,0 1,1 1,-1 2,0 1,1 0,12 -1,1 0,3 6,0 0,-5 1,-1 0,-8 1,-1 3,0 0,-2 1,-1 2,0 1,-1 3,0 1,1 0,2 4,0 0,-1 1,-1 2,0 0,-1 1,-1 3,0 1,1 0,2 2,0 1,1 1,0 1,1 2,0 1,1 3,0 1,1 2,0 1,-1 4,0 1,1 3,0 0,-21 -5,0 -1,1 -6,0 -1,1 -8,0 -1,1 -9,0 -1,1 -5,0 -1,1 -11,0 -1,-1 0,0 -1,1 -1,0 -1,1 -1,1 -2,0 0,1 -1,1 -3,0 -1,-1 0,-2 -1,0 -1,1 -4,0 -1,-1 -1,-1 0,0 -1,1 -1,0 -1,1 -5,0 -1,1 -3,0 0,1 -1,1 -6,0 -1,1 -3,0 -1,-1 0,-2 -1,0 -1,1 -3,0 0,1 -1,1 -4,0 -1,-1 -1,0 -1,1 -1,0 -1,1 -3,0 -1,-1 0,-2 -1,0 -1,1 -4,0 0,1 -1,1 -3,0 -1,-1 -1,1 -3,0 -1,-1 -1,0 -1,-1 -1,0 -1,1 -1,0 49,14 0,1 -1,1 -1,1 4,0 1,1 1,1 0,-1 -1,-1 -2,-1 0,-1 -1,-1 -49,-14Z"/>
<path onmouseover="hoverPath(evt)" onmouseout="recoverPath(evt)" fill="rgb(252,252,251)" d="M  140,130l 6,0 1,-1 6,0 1,-1 9,0 1,-1 8,0 1,-1 41,0 0,-1 -41,0 -1,-1 -1,-1 0,3 -8,1 -1,0 -1,-1 0,-1 -1,-1 0,-6 -1,-1 0,-6 1,-1 1,-1 1,0 -2,-1 -1,0 -1,-1 0,-1 -1,-1 0,-1 -1,-1 -2,0 -1,1 -5,0 -1,1 -5,0 -1,-1 0,-1 -1,-1 0,-7 1,-1 1,-1 1,0 1,-1 3,0 1,-1 3,0 1,-1 2,0 1,-1 6,0 1,1 1,1 0,-3 1,-1 2,0 1,-1 2,0 1,-1 4,0 1,-1 4,0 1,-1 3,0 1,-1 4,0 1,-1 6,0 1,-1 6,0 1,-1 7,0 0,-1 -8,0 -1,1 -6,0 -1,1 -6,0 -1,1 -3,0 -1,1 -4,0 -1,1 -4,0 -1,1 -3,0 -1,1 -4,0 -1,1 -4,0 -1,1 -2,0 -1,1 -3,0 -1,1 -2,0 -1,1 -2,0 -1,1 -2,0 -1,1 -3,0 -1,-1 -1,0 -1,1 -1,1 -1,0 -1,1 -2,0 -1,1 -3,0 -1,1 -3,0 -1,1 -3,0 -1,1 -3,0 -1,1 -3,0 -1,1 -4,0 -1,1 -2,0 -1,1 -3,0 -1,1 -3,0 -1,1 -3,0 -1,1 -3,0 -1,1 -3,0 -1,1 -3,0 -1,1 -4,0 -1,1 -3,0 -1,1 -3,0 -1,1 -3,0 -1,1 -2,0 -1,1 -4,0 0,2 1,0 1,1 1,-1 3,0 1,-1 3,0 1,-1 3,0 1,-1 3,0 1,-1 4,0 1,-1 3,0 1,-1 3,0 1,-1 2,0 1,-1 2,0 1,1 7,0 1,-1 4,0 1,-1 3,0 1,-1 1,-1 1,-1 1,-1 1,0 1,-1 3,0 1,-1 3,0 1,-1 3,0 1,-1 3,0 1,-1 2,0 1,-1 3,0 1,1 1,1 0,5 1,1 0,7 1,1 0,8 1,1 0,7 -1,1 -1,1 3,-7 0,-3 -1,-1 0,-7 -1,-1 0,-3 1,-1 1,-1 -1,14 0,0 -2,-17 3,20 -3,7 8,-25 0,0 1,1 0,1 1,1 0,8 1,1 0,2 1,0 1,1 4,0 1,1 1,0 -11,-16 -8,25 20,-5 0,1 -1,1 -1,0 2,-2 -20,5Z"/>
<path onmouseover="hoverPath(evt)" onmouseout="recoverPath(evt)" fill="rgb(243,241,232)" d="M  167,89l -2,0 0,5 -1,1 -2,0 -1,-1 0,-2 -1,-1 -4,0 -1,1 -2,0 -1,1 -3,0 -1,1 -3,0 -1,1 -1,0 -1,1 0,5 1,1 0,1 3,0 1,-1 5,0 1,-1 4,0 1,1 1,1 0,1 1,1 0,1 1,0 1,1 1,0 1,1 0,2 -1,1 -1,0 -1,1 0,4 1,1 0,6 1,1 0,1 6,0 0,-6 1,-1 2,0 1,1 0,3 1,1 1,1 16,0 1,-1 23,0 1,-1 0,-4 -2,0 -1,-1 0,-10 -1,-1 0,-7 -1,-1 0,-11 -1,-1 0,-3 -7,0 -1,-1 -5,0 -1,1 -6,0 -1,1 -4,0 -1,1 -3,0 -1,1 -4,0 -1,1 -4,0 -1,1 -2,0 -1,1Z"/>
<path onmouseover="hoverPath(evt)" onmouseout="recoverPath(evt)" fill="rgb(244,241,233)" d="M  211,242l -1,0 0,8 -1,1 0,4 46,0 0,-11 -4,0 -1,-1 -2,0 -1,1 -4,0 -1,-1 -3,0 -1,-1 -2,0 -1,-1 -1,0 -1,-1 -2,0 -1,-1 0,-2 -1,0 0,1 -1,1 -2,0 0,1 -1,1 -6,0 -1,-1 0,-2 -1,0 -1,1 -2,0 0,2 -1,1Z"/>
<path onmouseover="hoverPath(evt)" onmouseout="recoverPath(evt)" fill="rgb(239,237,223)" d="M  237,105l 0,0 -1,1 1,1 0,4 -1,1 -2,0 -1,-1 -1,-1 0,-13 -1,-1 -6,0 -1,1 -2,0 0,9 1,1 0,6 1,1 0,1 6,0 1,-1 9,0 1,-1 9,0 1,-1 1,0 0,-7 -1,-1 -13,0 -1,1Z"/>
<path onmouseover="hoverPath(evt)" onmouseout="recoverPath(evt)" fill="rgb(235,233,222)" d="M  0,203l 0,7 1,0 1,-1 1,0 0,-12 -1,-1 0,-17 -1,-1 0,-1 -1,0Z"/>
<path onmouseover="hoverPath(evt)" onmouseout="recoverPath(evt)" fill="rgb(243,241,233)" d="M  42,226l -1,0 -1,1 0,2 1,1 17,0 1,-1 29,0 1,1 0,3 6,0 1,-1 1,-1 4,0 1,-1 1,0 -1,-1 0,-1 -1,-1 -1,-1 0,-1 -1,-1 0,-1 -1,-1 -1,-1 0,-1 -1,-1 0,-1 -1,-1 -1,-1 0,-1 -1,-1 0,-1 -1,-1 -1,-1 0,-1 -1,-1 -1,-1 0,-1 -1,-1 0,-1 -1,-1 -1,-1 0,-1 -1,-1 0,1 -1,1 -2,0 -1,1 -2,2 -1,0 0,2 -1,1 -1,0 0,1 -1,1 -1,1 -1,1 -1,1 -1,1 -1,0 -1,1 -2,2 -1,1 -2,0 0,1 -1,1 0,2 -1,1 -1,0 -1,1 -17,0 -1,1Z"/>
<path onmouseover="hoverPath(evt)" onmouseout="recoverPath(evt)" fill="rgb(242,240,230)" d="M  117,195l 0,1 1,1 0,1 1,1 0,1 1,1 0,1 1,1 0,1 1,1 1,1 0,1 1,1 0,1 1,1 2,0 1,1 1,1 1,1 1,1 0,2 3,0 1,1 15,0 1,1 0,2 13,0 1,1 0,2 -1,1 -18,0 -1,1 -14,0 -1,-1 -3,0 1,1 0,1 1,1 0,4 1,0 1,-1 2,0 1,1 1,0 0,-1 1,-1 4,0 1,-1 3,0 1,1 0,2 1,0 1,-1 1,0 1,-1 3,0 1,1 2,0 0,-1 1,-1 3,0 1,-1 3,0 1,1 0,2 1,0 1,-1 6,0 0,-1 1,-1 3,0 1,-1 5,0 1,-1 1,0 0,-6 1,-1 0,-6 -1,-1 0,-10 1,-1 0,-9 -2,0 -1,-1 -13,0 -1,1 -19,0 -1,1 -16,0 -1,1 -5,0 -1,-1 -1,1 -7,0Z"/>
<path onmouseover="hoverPath(evt)" onmouseout="recoverPath(evt)" fill="rgb(244,243,234)" d="M  128,35l 1,1 0,3 1,1 0,2 1,1 0,2 1,1 0,3 1,1 0,2 1,1 0,3 1,1 0,2 1,1 0,3 1,1 0,2 1,1 0,2 1,1 0,3 1,1 0,2 1,1 0,3 1,1 0,2 1,1 5,0 1,-1 5,0 1,-1 9,0 1,1 3,0 1,-1 3,0 1,-1 4,0 1,-1 4,0 1,-1 3,0 1,-1 6,0 1,-1 6,0 1,-1 7,0 0,-3 -1,-1 0,-2 -1,-1 0,-1 -1,-1 0,-1 -1,-1 0,-1 -1,-1 0,-2 -1,-1 0,-1 -1,-1 0,-2 -1,-1 0,-2 -1,-1 0,-2 -1,-1 0,-3 -1,-1 0,-2 -1,-1 0,-2 -1,1 -6,0 -1,1 -6,0 -1,1 -6,0 -1,1 -6,0 -1,1 -6,0 0,2 -1,1 -9,0 -1,-1 -1,-1 0,-5 1,-1 2,0 1,1 4,0 1,-1 7,0 1,-1 6,0 1,-1 6,0 1,-1 6,0 1,-1 5,0 1,-1 3,0 0,-1 -2,0 -1,-1 0,-2 -1,-1 0,-1 -8,0 -1,1 -8,0 -1,1 -12,0 -1,1 -14,0 -1,1 -11,0 -1,1 -5,0 -1,1Z"/>
<path onmouseover="hoverPath(evt)" onmouseout="recoverPath(evt)" fill="rgb(243,240,230)" d="M  175,242l -1,-1 -1,0 0,4 1,1 0,1 1,0 1,1 1,1 0,6 22,0 0,-4 1,-1 0,-10 -1,1 -2,0 -1,-1 -1,0 -1,1 -1,1 -5,0 -1,1 -5,0 -1,-1 0,-2 -1,0 -1,1 -1,0 -1,1Z"/>
<path onmouseover="hoverPath(evt)" onmouseout="recoverPath(evt)" fill="rgb(242,240,231)" d="M  224,123l 0,7 -1,1 0,11 -1,1 0,8 -1,1 0,7 2,0 1,1 5,0 1,-1 0,-2 1,-1 2,0 1,-1 0,-2 1,-1 2,0 1,1 3,0 0,-2 1,-1 13,0 0,-10 -3,0 -1,-1 -14,0 -1,-1 0,-3 -1,-1 0,-3 1,-1 0,-7 1,-1 6,0 0,-3 -10,0 -1,1 -8,0Z"/>
<path onmouseover="hoverPath(evt)" onmouseout="recoverPath(evt)" fill="rgb(239,237,225)" d="M  14,228l 5,0 0,-1 1,-1 0,-3 -1,-1 0,-8 -1,-1 -9,0 -1,1 0,0 -1,1 0,1 1,1 0,11Z"/>
<path onmouseover="hoverPath(evt)" onmouseout="recoverPath(evt)" fill="rgb(243,242,233)" d="M  17,44l -1,0 0,1 1,1 0,1 1,1 0,1 1,1 1,1 0,1 1,1 0,1 1,1 0,1 1,1 0,1 1,1 0,1 1,1 1,1 1,1 1,1 0,1 7,0 1,-1 5,0 1,-1 4,0 1,-1 3,0 0,-6 1,-1 2,0 1,1 0,2 1,0 1,1 4,0 1,1 2,0 0,-3 1,-1 3,0 -1,-1 0,-3 -1,-1 0,-1 -1,-1 0,-2 -1,-1 0,-2 -1,-1 0,-2 -1,-1 0,-1 -6,0 -1,1 -9,0 -1,1 -8,0 -1,1 -8,0 -1,1 -8,0 -1,1Z"/>
<path onmouseover="hoverPath(evt)" onmouseout="recoverPath(evt)" fill="rgb(230,209,130)" d="M  41,236l 5,0 0,-2 1,-1 1,0 1,-1 6,0 1,1 1,0 1,1 0,1 7,0 0,-1 1,-1 1,-1 1,-1 6,0 1,1 3,0 1,1 0,1 8,0 0,-3 -12,0 -34,5 26,-5 -7,0 -1,1 -3,0 11,-1 -26,5 7,-4 -7,0 -1,1 -16,0 -1,-1 -3,0 -1,1 -6,0 -1,1 -3,0 0,2 4,-2 2,0 1,1 0,-1 4,-1 2,0 1,1 0,-3 13,3 1,0 1,1 0,1 2,0 8,-4 -7,4Z"/>
<path onmouseover="hoverPath(evt)" onmouseout="recoverPath(evt)" fill="rgb(251,231,138)" d="M  69,139l 0,-1 -1,-1 -1,-1 0,-1 -1,-1 0,-1 -1,-1 -1,1 -4,0 0,2 1,1 0,4 2,0 1,1 0,4 2,0 1,1 0,4 1,-1 2,0 1,1 1,0 1,1 1,1 0,2 -1,1 0,1 2,0 1,1 0,3 -1,1 0,3 1,-1 2,0 1,1 1,0 1,1 1,1 0,2 -1,1 0,1 2,0 1,1 0,3 -1,1 0,3 2,0 1,1 0,4 1,-1 2,0 1,1 1,1 0,3 1,0 1,1 1,1 0,3 1,-1 2,0 1,1 0,4 2,0 1,1 0,2 1,1 0,5 1,0 1,1 1,1 0,4 1,1 0,4 1,-1 2,0 1,1 1,1 0,2 -1,1 1,1 1,0 1,1 1,1 1,1 0,2 4,0 1,1 0,3 2,0 1,-1 3,0 1,1 0,-2 -1,-1 0,-1 -1,-1 0,-1 -1,-1 -1,-1 -1,-1 0,-1 -1,0 -1,-1 0,-1 -1,-1 0,-2 -1,-1 -1,-1 0,-3 1,-1 0,-1 -3,0 -1,-1 -1,0 -1,-1 0,-1 -1,-1 0,-3 -1,0 -1,-1 0,-2 -3,0 -1,-1 0,-2 1,-1 -1,-1 0,0 -1,-1 -1,0 -1,-1 0,-1 -1,-1 0,-2 -1,-1 0,-1 -1,-1 0,-1 -1,-1 -1,-1 0,-1 -1,-1 -1,-1 0,-1 -1,-1 -1,-1 0,-1 -1,-1 0,-1 -1,-1 -1,-1 0,-1 -1,-1 -1,-1 0,-1 -1,-1 0,-1 -1,-1 -1,-1 0,-1 -1,-1 -1,-1 0,-1 -1,-1 0,-2 -1,-1 0,-3 -1,-1 0,-1 -1,-1 0,-1 -1,-1 0,-1 -1,-1 0,-1 -1,-1 -1,0 -1,-1 -2,0 -1,-1 -1,0 -1,-1Z"/>
<path onmouseover="hoverPath(evt)" onmouseout="recoverPath(evt)" fill="rgb(245,244,237)" d="M  202,28l 0,0 1,1 0,2 1,1 0,1 1,1 0,3 1,1 0,3 1,1 0,2 1,1 0,2 1,1 0,2 1,1 0,3 1,1 0,1 1,1 0,1 1,1 0,1 1,1 0,1 1,1 0,2 1,1 0,2 1,1 0,2 1,0 1,-1 3,0 1,-1 3,0 1,-1 3,0 1,-1 2,0 1,-1 3,0 1,-1 3,0 1,-1 3,0 1,-1 3,0 1,-1 5,0 0,-53 -2,0 -1,1 -1,0 -1,1 -2,0 -1,1 -1,0 -1,1 -2,0 -1,1 -1,0 -1,1 -2,0 -1,1 -1,0 -1,1 -2,0 -1,1 -1,0 -1,1 -2,0 -1,1 -1,0 -1,1 -1,0 -1,1 -2,0 -1,1 -1,0 -1,1 -2,0 -1,1 -1,0 -1,1 -5,0 -1,1 -4,0 -1,1Z"/>
<path onmouseover="hoverPath(evt)" onmouseout="recoverPath(evt)" fill="rgb(244,243,234)" d="M  217,196l 0,7 -1,1 0,5 -1,1 0,5 -1,1 0,5 -1,1 0,2 3,0 1,-1 5,0 1,-1 9,0 1,-1 8,0 1,-1 6,0 1,-1 6,0 0,-21 -8,0 -1,-1 -6,0 -1,-1 -7,0 -1,-1 -7,0 -1,-1 -6,0Z"/>
<path onmouseover="hoverPath(evt)" onmouseout="recoverPath(evt)" fill="rgb(242,240,230)" d="M  222,92l 8,0 0,-5 1,-1 0,-1 1,-1 4,0 1,1 0,2 -1,1 -1,0 0,5 1,1 0,5 1,0 1,1 10,0 1,-1 6,0 0,-25 -2,0 -1,1 -3,0 -1,1 -3,0 -1,1 -3,0 -1,1 -3,0 -1,1 -3,0 -1,1 -2,0 -1,1 -3,0 -1,1 -3,0 -1,1 -1,0 0,2 1,1 0,5 1,1Z"/>
<path onmouseover="hoverPath(evt)" onmouseout="recoverPath(evt)" fill="rgb(243,242,234)" d="M  4,101l 0,-4 -1,-1 0,-13 -1,-1 -2,0 0,32 3,0 1,1 1,1 0,7 1,1 0,-2 -1,-7 0,-8 -1,-1Z"/>
<path onmouseover="hoverPath(evt)" onmouseout="recoverPath(evt)" fill="rgb(249,231,168)" d="M  3,47l 0,1 1,1 1,1 0,1 1,1 0,1 2,0 1,-1 2,0 1,1 0,-2 1,-1 1,-1 2,0 -1,-1 0,-1 -1,-1 0,-1 -2,0 -1,-1 0,-1 -1,-1 -1,-1 0,-2 1,-1 -1,-1 0,-2 1,-1 -1,0 -1,-1 0,-6 1,-1 0,-1 -1,-1 0,0 -1,-1 -1,-1 0,-2 1,-1 -4,0 1,1 0,2 -1,1 -3,0 0,23 2,0 1,1 20,-13 4,0 1,-1 14,0 1,-1 -1,0 -15,1 -3,0 -1,1 -20,13Z"/>
<path onmouseover="hoverPath(evt)" onmouseout="recoverPath(evt)" fill="rgb(240,237,226)" d="M  19,149l 0,-3 -1,-1 0,-3 1,-1 2,0 1,1 4,0 0,-2 -1,-1 0,-3 1,-1 -1,-1 0,-1 -1,0 -1,-1 -3,0 -1,-1 0,-1 -1,0 -1,1 -2,0 -1,-1 0,-5 -1,-1 -3,0 0,1 -1,1 -1,0 0,5 -1,1 -2,0 -1,-1 0,-6 -1,-1 0,-7 -1,-1 -2,0 0,56 5,0 0,-1 1,-1 2,0 1,1 0,1 1,0 1,1 1,0 1,-1 1,0 1,-1 0,-2 1,-1 3,0 0,-2 1,-1 1,-1 1,-1 1,-1 1,-1 2,0 1,1 1,0 1,1 0,2 -1,1 -1,1 -1,1 -1,1 -1,1 -1,1 -1,1 -1,0 -2,2 2,0 1,1 10,0 1,-1 0,-7 -1,-1 0,-8 -2,0 -1,-1 -1,-1 0,-9 -1,0 -1,-1 -1,0 -1,1 0,2 -1,1 0,3 -1,1 -2,0 -1,-1Z"/>
<path onmouseover="hoverPath(evt)" onmouseout="recoverPath(evt)" fill="rgb(240,239,233)" d="M  100,31l 0,0 1,-1 11,0 1,-1 10,0 1,-1 11,0 1,-1 11,0 1,-1 14,0 1,-1 11,0 1,-1 10,0 1,-1 4,0 0,-1 -1,-1 0,-1 -1,-1 0,-1 -1,-1 -1,-1 0,-1 -1,-1 0,-1 -1,0 -1,-1 -1,-1 -1,-1 -1,-1 -1,-1 -1,-1 0,-1 -1,-1 -1,-1 -1,-1 -1,-1 0,-2 -70,0 0,8 2,0 1,1 0,6 -1,1 -1,0 0,1 -1,1 0,4 -1,1 0,1 -1,1 -6,0 0,1 -1,1 -1,1 0,3Z"/>
<path onmouseover="hoverPath(evt)" onmouseout="recoverPath(evt)" fill="rgb(171,198,237)" d="M  235,13l -2,0 -1,1 -1,0 -1,1 -2,0 -1,1 -2,0 -1,1 -1,0 -1,1 -2,0 -1,1 -1,0 -1,1 -2,0 -1,1 -2,0 -1,1 -3,0 -1,1 -7,0 0,2 6,0 1,-1 5,0 1,-1 1,0 1,-1 2,0 1,-1 1,0 1,-1 2,0 1,-1 1,0 1,-1 1,0 1,-1 2,0 1,-1 1,0 1,-1 2,0 1,-1 0,-1 1,-1 1,1 2,0 1,-1 1,0 1,-1 2,0 1,-1 1,0 1,-1 2,0 1,-1 1,0 1,-1 3,0 0,-3 -1,0 -1,1 -1,0 -1,1 -1,0 -1,1 -2,0 -1,1 -1,0 -1,1 -1,0 -1,1 -2,0 -1,1 -1,0 -1,1 -1,0 -1,1Z"/>
<path onmouseover="hoverPath(evt)" onmouseout="recoverPath(evt)" fill="rgb(234,234,229)" d="M  6,182l 0,7 1,1 0,3 1,1 8,0 1,-1 16,0 1,-1 0,-8 -1,-1 0,-3 -1,-1 -5,0 -1,1 -5,0 -1,-1 -10,0 -1,-1 -2,0 0,2 -1,1Z"/>
<path onmouseover="hoverPath(evt)" onmouseout="recoverPath(evt)" fill="rgb(249,229,162)" d="M  31,76l 0,-1 -1,-1 0,-1 -1,-1 0,-2 1,-1 1,0 1,-1 4,0 1,-1 5,0 1,-1 5,0 1,-1 4,0 1,-1 2,0 0,-1 -1,0 -1,-1 0,-2 -1,0 -1,-1 0,4 -1,1 -3,0 -1,1 -4,0 -1,1 -5,0 -1,1 -9,0 -1,-1 0,-1 -1,-1 -1,-1 -1,-1 -1,-1 0,-1 -1,-1 0,-1 -1,-1 0,-1 -1,-1 0,-1 -1,-1 0,-1 -1,-1 -2,0 -1,1 0,2 -1,1 -2,0 -1,-1 -1,1 0,1 -1,1 1,1 0,1 2,2 0,1 1,1 0,1 1,1 0,1 1,1 0,1 1,1 0,2 -1,1 2,0 1,1 0,1 1,1 1,1 1,1 0,1 2,2 0,1 1,1 0,1 1,1 1,1 0,1 2,0 1,1 2,0 0,-3 1,-1 1,0 0,-1 2,-2 -1,-1 0,-1 -1,-1 -1,-1Z"/>
<path onmouseover="hoverPath(evt)" onmouseout="recoverPath(evt)" fill="rgb(251,229,134)" d="M  117,246l -1,0 -1,-1 -1,0 0,1 1,1 0,1 1,1 0,1 1,0 1,1 0,1 1,1 0,2 23,0 0,-1 -1,-1 0,-1 -1,-1 -1,-1 0,-1 -1,-1 0,-1 -1,-1 0,-1 -1,0 -1,-1 -1,0 -1,1 -2,0 -1,-1 -1,0 -1,-1 -1,0 -1,-1 -1,-1 0,-1 -1,-1 0,1 -1,1 0,2 -1,1 0,1 -1,1Z"/>
<path onmouseover="hoverPath(evt)" onmouseout="recoverPath(evt)" fill="rgb(173,198,234)" d="M  137,78l 0,1 1,1 0,2 1,1 0,1 1,1 0,1 1,1 3,0 1,1 0,1 1,-1 2,0 1,-1 2,0 1,-1 3,0 1,-1 2,0 1,-1 -3,0 -1,1 -5,0 -1,1 -7,0 -1,-1 -1,-1 0,-2 -1,-1 0,-3 -1,-1 -1,1 1,-3 -1,-1 0,-3 -1,-1 0,-2 -1,-1 0,-2 -1,-1 0,-3 -1,-1 0,-2 -1,-1 0,-3 -1,-1 0,-2 -1,-1 0,-3 -1,-1 0,-2 -1,-1 0,-2 -1,-1 0,-3 -1,-1 0,-2 1,-1 1,-1 5,0 1,-1 11,0 1,-1 14,0 1,-1 12,0 1,-1 8,0 1,-1 9,0 0,-5 -1,3 -4,0 -1,1 -10,0 -1,1 -11,0 -1,1 -14,0 -1,1 -11,0 -1,1 -11,0 -1,1 -3,0 0,1 1,0 1,1 1,1 1,0 13,41 -1,3 -11,-41 0,2 1,2 0,2 1,1 0,3 1,1 0,2 1,1 0,2 1,1 0,3 1,1 0,3 1,1 0,2 1,1 0,3 1,1 0,2 1,1 0,-1 -1,-3 -2,-7 -4,-14Z"/>
<path onmouseover="hoverPath(evt)" onmouseout="recoverPath(evt)" fill="rgb(233,230,212)" d="M  148,117l 0,-8 -1,-1 0,-1 -2,0 -1,1 0,0 -1,1 0,1 1,1 0,7 1,1 0,6 1,1 0,1 6,0 1,-1 3,0 1,-1 1,0 0,-2 -1,0 -1,-1 -4,0 -1,-1 -1,0 -1,-1 0,-2 -1,-1Z"/>
<path onmouseover="hoverPath(evt)" onmouseout="recoverPath(evt)" fill="rgb(247,246,240)" d="M  150,222l 0,0 -1,-1 0,-2 -15,0 -1,-1 -3,0 -1,-1 0,-2 -1,-1 -1,-1 -1,-1 -2,0 -1,-1 -1,-1 0,-1 -1,-1 0,-1 -1,-1 -4,0 4,1 0,3 -1,1 0,1 1,1 0,0 1,1 0,2 1,1 0,1 1,0 1,1 0,1 1,1 1,1 5,0 1,1 12,0 1,-1Z"/>
<path onmouseover="hoverPath(evt)" onmouseout="recoverPath(evt)" fill="rgb(249,249,245)" d="M  157,46l 2,0 0,-2 1,-1 6,0 1,-1 6,0 1,-1 6,0 1,-1 6,0 1,-1 6,0 1,-1 1,0 0,-1 -2,0 -1,1 -5,0 -1,1 -6,0 -1,1 -6,0 -1,1 -6,0 -1,1 -7,0 -1,1 -6,0 -1,-1 0,3 1,1Z"/>
<path onmouseover="hoverPath(evt)" onmouseout="recoverPath(evt)" fill="rgb(243,240,230)" d="M  172,255l 1,0 0,-3 -1,-1 -4,0 -1,-1 0,-2 2,-2 0,-3 -5,0 -1,1 -4,0 -1,-1 0,-2 -2,0 -1,1 -1,1 -3,0 -1,-1 -1,0 0,1 -1,1 -4,0 -1,1 -4,0 1,1 0,1 1,1 0,1 1,1 1,1 0,1 1,1 0,2Z"/>
<path onmouseover="hoverPath(evt)" onmouseout="recoverPath(evt)" fill="rgb(246,245,239)" d="M  223,118l 8,0 1,-1 12,0 1,1 0,5 -1,1 -6,0 0,7 -1,1 0,1 1,1 0,3 14,0 1,1 2,0 0,-37 -5,0 -1,1 -12,0 -1,-1 -1,0 -1,-1 0,9 1,1 0,-7 1,-1 -2,-3 0,-4 -1,-1 0,-7 1,-1 1,0 -3,2 0,5 -1,1 -10,0 0,1 2,0 9,-1 1,1 17,7 2,0 1,1 1,1 0,9 -1,1 -1,0 -1,1 -9,0 -1,1 -9,0 -1,1 -7,0 -1,1Z"/>
<path onmouseover="hoverPath(evt)" onmouseout="recoverPath(evt)" fill="rgb(242,241,231)" d="M  235,157l 0,0 -1,1 -2,0 0,2 -1,1 -1,1 -7,0 -1,-1 -3,0 0,1 1,1 0,6 -1,1 0,11 -1,1 0,6 1,0 1,1 6,0 1,1 7,0 1,1 7,0 1,1 4,0 1,-1 0,0 -1,-1 -6,0 -1,-1 0,-2 1,-1 14,0 0,-34 -12,0 0,2 -1,1 -5,0 -1,-1 0,2 -1,1Z"/>
<path onmouseover="hoverPath(evt)" onmouseout="recoverPath(evt)" fill="rgb(243,241,233)" d="M  3,80l 0,0 1,1 1,1 0,13 1,1 0,9 2,0 1,1 1,1 3,0 1,1 0,1 9,0 0,-5 -1,-1 0,0 -1,-1 -1,-1 0,-2 1,-1 7,0 0,-2 -3,-3 0,-3 -1,-1 0,-1 -1,-1 0,-1 -1,-1 -1,-1 0,-1 -1,-1 0,-1 -1,-1 -1,-1 0,-1 -1,-1 -1,-1 -1,-1 0,-1 -3,0 -1,-1 0,-2 1,-1 1,0 -1,-1 0,-1 -1,-1 0,-1 -1,-1 0,-1 -1,-1 0,-1 -1,-1 -1,-1 0,-1 -1,-1 0,-2 1,-1 -2,0 -1,-1 0,-1 -1,-1 0,-1 -1,-1 -1,-1 0,-1 -1,0 0,32Z"/>
<path onmouseover="hoverPath(evt)" onmouseout="recoverPath(evt)" fill="rgb(249,249,248)" d="M  13,175l -3,0 -1,-1 -1,0 -1,-1 0,0 -1,1 -6,0 0,1 2,0 1,1 0,1 1,1 0,17 1,1 0,14 -1,1 -1,0 -1,1 -2,0 0,21 1,0 1,-1 2,0 1,1 0,2 2,0 0,-2 1,-1 3,0 1,-1 6,0 1,-1 2,0 1,-1 0,-11 -1,-1 0,-20 1,-1 1,0 1,-1 11,0 1,1 0,-13 1,-1 0,0 -1,-1 0,-5 -1,-1 0,-11 -1,-1 0,-13 -1,-1 0,-15 1,-1 7,0 1,1 3,0 1,-1 1,0 1,-1 1,-1 1,0 0,-2 -5,4 -3,0 -7,-1 0,-1 -1,-1 0,-9 -1,-1 -1,-1 0,14 1,0 -20,42 19,-32 -2,0 -1,-1 -1,-1 0,2 -1,1 -6,0 0,8 1,-4 0,-2 1,-1 -3,-1 0,-1 8,2 1,0 1,1 0,9 1,1 2,0 -1,-13 -19,32 21,-11 0,12 -1,1 1,1 1,1 0,3 1,0 -2,-18 -21,11 10,20 -5,0 -1,1 -10,0 -1,-1 -1,-1 0,1 1,2 1,0 11,-1 1,0 1,1 0,13 -1,1 0,0 1,1 0,-1 -13,0 -1,-1 0,-1 17,-14 -10,-20 8,45 0,9 -3,1 -11,0 -1,-1 0,-11 -1,-1 0,-3 16,6 -8,-45 -8,4 0,-2 1,-1 4,0 1,1 10,0 1,1 3,0 1,-1 -4,0 -2,-1 -2,0 -1,-1 0,-2 -1,0 -1,1 -1,0 -9,5 8,-4 24,23 -1,0 0,15 1,1 0,17 2,0 -1,-1 0,-4 1,-1 1,-1 1,0 1,-1 17,0 1,-1 -18,0 -1,-1 0,-11 -1,-1 0,-3 -1,-1 -1,-1 0,-1 -1,-1 0,-4 -24,-23 4,-4 2,0 1,-1 1,0 2,-2 1,-1 2,-2 1,-1 -1,0 -1,-1 0,0 -1,1 -1,1 -1,1 -1,1 0,2 -4,2 -4,4 34,7 3,0 1,-1 -3,0 -1,1 -34,-7Z"/>
<path onmouseover="hoverPath(evt)" onmouseout="recoverPath(evt)" fill="rgb(233,231,221)" d="M  14,111l -1,0 -1,-1 0,-1 -3,0 -1,-1 -1,-1 0,13 1,1 0,3 1,-2 5,0 1,1 1,1 0,5 1,-1 3,0 1,1 0,1 3,0 1,1 1,0 1,1 0,1 1,1 0,1 1,1 0,1 1,1 0,2 1,1 0,-6 -1,-1 0,-16 1,-1 2,0 1,1 1,1 1,1 0,9 1,1 0,1 9,0 1,-1 1,-1 -1,-1 0,-1 -1,-1 0,-1 -1,-1 0,-1 -1,-1 -1,-1 0,-1 -1,-1 -1,-1 0,-1 -1,-1 0,-1 -1,-1 -1,-1 0,-1 -1,0 -1,-1 0,-1 -1,-1 0,-1 -1,-1 0,-3 -1,0 -1,-1 -1,0 -1,-1 0,-2 -8,0 1,1 0,0 1,1 1,1 0,7 -1,1Z"/>
<path onmouseover="hoverPath(evt)" onmouseout="recoverPath(evt)" fill="rgb(241,229,136)" d="M  20,7l 0,-7 -7,0 0,1 1,1 0,5 -1,1 0,1 -1,1 0,1 -1,1 -1,0 0,1 -1,1 -9,0 0,7 2,0 -1,-1 0,-2 1,-1 6,0 1,1 0,2 -1,1 1,1 1,1 0,-1 1,-1 0,-2 1,-1 1,-1 1,-1 1,-1 1,-1 1,-1 0,-2 1,-1 1,0 0,-1 1,-1Z"/>
<path onmouseover="hoverPath(evt)" onmouseout="recoverPath(evt)" fill="rgb(172,198,234)" d="M  29,39l -10,0 -1,1 -7,0 1,1 0,0 1,1 0,1 1,0 1,-1 1,0 1,-1 8,0 1,-1 2,0 1,-1 1,1 4,0 1,-1 8,0 1,-1 9,0 1,-1 9,0 1,-1 10,0 1,-1 5,0 0,-1 -5,0 -1,1 -13,0 -1,1 -8,0 -1,1 -9,0 -1,1 -10,0 -1,1 0,1 -1,-1Z"/>
<path onmouseover="hoverPath(evt)" onmouseout="recoverPath(evt)" fill="rgb(247,228,138)" d="M  54,135l 0,4 -1,1 0,1 -1,1 0,1 1,1 0,1 1,0 1,1 2,0 1,1 1,1 0,1 1,1 0,1 1,1 0,1 1,1 0,1 1,1 0,1 1,1 1,1 0,1 1,1 0,1 1,1 0,1 1,1 0,1 1,1 1,1 0,1 1,1 0,1 1,1 0,1 1,1 0,1 1,1 0,2 -1,1 0,2 1,1 3,0 1,1 0,2 1,0 1,1 0,1 1,1 0,1 1,1 0,1 1,1 0,9 1,-2 2,0 1,1 1,1 0,1 1,1 1,1 0,1 1,1 0,1 1,1 1,1 0,1 1,1 1,1 0,1 1,1 0,1 1,1 1,1 0,1 1,1 0,1 1,1 1,1 0,1 1,1 0,1 1,1 1,1 0,1 1,1 0,1 1,1 1,-1 2,0 1,1 1,1 1,0 0,-3 1,-1 1,0 -1,-1 0,-2 -1,-1 -1,-1 -1,0 -1,-1 -1,-1 0,-2 1,-1 -1,-1 0,0 -1,1 -2,0 -1,-1 0,-4 -1,-1 0,-4 -1,-1 -1,0 -1,-1 0,-5 -1,-1 0,-2 -2,0 -1,-1 0,-4 -1,1 -2,0 -1,-1 0,-3 -1,-1 -1,0 -1,-1 0,-3 -1,-1 -1,1 -2,0 -1,-1 0,-4 -2,0 -1,-1 0,-5 1,-1 0,-1 -2,0 -1,-1 0,-3 1,-1 -1,-1 -1,0 -1,-1 -1,1 -2,0 -1,-1 0,-5 1,-1 0,-1 -2,0 -1,-1 0,-3 1,-1 -1,-1 -1,0 -1,-1 -1,1 -2,0 -1,-1 0,-4 -2,0 -1,-1 0,-4 -2,0 -1,-1 0,-4 -1,-1 0,-4 1,-1 4,0 1,-1 -1,-1 0,-1 -1,-1 -1,-1 0,-1 -1,-1 0,-1 -1,-1 -1,-1 0,-1 -1,-1 0,-1 -1,0 -1,-1 -1,0 -1,-1 0,-4 -1,-1 0,-1 -1,-1 -1,-1 0,-1 -1,-1 0,-1 -1,-1 -1,-1 0,-4 -1,0 -1,-1 0,-1 -2,0 -1,1 -3,0 -1,-1 -1,-1 0,-2 -1,-1 0,-4 1,-1 2,0 0,-1 -1,-1 0,0 -1,-1 0,-1 -1,0 -1,-1 0,-1 -1,1 0,1 -1,1 -1,0 0,3 -1,1 -4,0 0,3 1,1 1,1 1,1 0,3 1,0 1,1 0,2 1,0 1,1 1,0 1,1 0,3 1,1 0,1 1,1 0,1 1,0 1,1 0,1 1,1 1,1 0,1 1,1 0,1 1,1 1,1 0,1 1,1 1,1 0,1 1,1 0,1 1,1 0,1 2,0 1,1 0,4 -1,1 -1,0 -1,1 3,-1 1,1 1,1Z"/>
<path onmouseover="hoverPath(evt)" onmouseout="recoverPath(evt)" fill="rgb(244,243,235)" d="M  60,119l 0,1 1,1 1,1 0,1 1,1 0,1 1,1 1,1 0,1 1,1 0,1 1,1 1,1 0,1 1,1 0,1 1,1 1,1 0,1 1,0 1,1 2,0 1,1 1,0 1,1 1,1 0,1 1,1 0,1 1,1 0,1 1,1 0,1 1,1 0,3 1,1 0,2 1,1 0,1 1,1 1,1 0,1 1,1 1,1 0,1 1,1 0,1 1,1 1,1 0,1 1,1 1,1 0,1 1,1 0,1 1,1 1,1 0,1 1,1 1,1 0,1 1,1 1,1 0,1 1,1 0,1 1,1 13,0 1,-1 8,0 1,-1 23,0 1,-1 28,0 1,1 12,0 1,1 5,0 1,1 5,0 1,-1 4,0 0,-3 1,-1 0,-10 1,-1 0,-12 1,-1 0,-6 1,-1 0,-4 -1,-1 0,-2 -1,-1 0,-1 -1,-1 0,-3 1,-1 0,-2 1,-1 1,0 1,-1 1,0 1,-1 0,-3 -41,0 -1,1 -8,0 -1,1 -9,0 -1,1 -6,0 -1,1 -12,0 -1,-1 0,-2 1,-1 3,0 1,-1 1,0 0,-5 -1,-1 0,-8 -1,-1 0,-7 -1,-1 0,-5 -1,-1 -1,0 -1,1 -2,0 -1,1 -3,0 -1,1 -3,0 -1,1 -3,0 -1,1 -3,0 -1,1 -1,0 -1,1 -2,2 -1,1 -3,0 -1,1 -4,0 -1,1 -9,0 -1,-1 -1,1 -2,0 -1,1 -3,0 -1,1 -3,0 -1,1 -4,0 -1,1 -3,0 -1,1 -3,0 -1,1 -3,0 -1,1 -3,0 0,1 1,1Z"/>
<path onmouseover="hoverPath(evt)" onmouseout="recoverPath(evt)" fill="rgb(246,244,238)" d="M  74,199l 1,0 0,-2 1,-1 0,-1 1,-1 4,0 0,-1 -1,-1 0,-1 -1,-1 0,-1 -1,-1 0,-1 -1,0 -1,-1 0,-2 -3,0 -1,-1 -1,-1 0,-3 -1,0 0,18 1,1 0,1Z"/>
<path onmouseover="hoverPath(evt)" onmouseout="recoverPath(evt)" fill="rgb(253,252,251)" d="M  187,190l 0,-1 1,-1 8,0 1,1 5,0 1,1 5,0 1,1 0,-2 -5,0 -1,-1 -6,0 -1,-1 -5,0 -1,-1 -12,0 -1,-1 -26,0 -1,1 -23,0 -1,1 -8,0 -1,1 -14,0 1,1 0,1 1,0 1,1 1,1 1,1 0,2 -1,1 3,0 1,1 0,2 1,0 1,1 0,3 1,1 0,1 1,-1 4,0 -1,-1 0,-1 -1,-1 0,-1 -1,-1 0,-1 -1,-1 0,-5 1,-1 7,0 1,-1 2,0 1,1 3,0 1,-1 16,0 1,-1 19,0 1,-1 15,0 1,1 2,0 1,1Z"/>
<path onmouseover="hoverPath(evt)" onmouseout="recoverPath(evt)" fill="rgb(251,251,248)" d="M  216,191l 0,1 8,0 1,1 7,0 1,1 7,0 1,1 6,0 1,1 7,0 0,-8 -13,0 7,1 0,0 1,1 0,2 -1,1 -1,1 -6,0 -1,-1 -7,0 -1,-1 -7,0 -1,-1 -6,0 -1,-1 -1,0 -1,1Z"/>
</svg>