<svg width="256" height="256" xmlns="http://www.w3.org/2000/svg"><script> 
var tempColor;
function hoverPath(evt){
obj = evt.target;
tempColor = obj.getAttribute("fill");
obj.setAttribute("fill","red");
//alert(tempColor);
//obj.setAttribute("stroke","red");}
function recoverPath(evt){
obj = evt.target;
obj.setAttribute("fill", tempColor);
//obj.setAttribute("stroke", tempColor);
}</script><path onmouseover="hoverPath(evt)" onmouseout="recoverPath(evt)" fill="rgb(171,198,238)" d="M  0,192l 0,2 4,0 1,-1 3,0 1,-1 2,0 1,-1 3,0 1,-1 2,0 1,-1 3,0 1,-1 2,0 1,-1 1,0 -1,-1 0,-2 -1,0 -1,1 -2,0 -1,1 -2,0 -1,1 -2,0 -1,1 -2,0 -1,1 -2,0 -1,1 -2,0 -1,1 -4,0 -1,-1 -1,0Z"/>
<path onmouseover="hoverPath(evt)" onmouseout="recoverPath(evt)" fill="rgb(243,242,233)" d="M  0,212l 0,17 2,0 1,1 0,2 1,1 0,2 1,1 0,1 1,1 0,2 1,1 0,1 1,1 0,4 1,1 0,1 3,0 1,-1 6,0 1,-1 5,0 0,-2 1,-1 5,0 1,-1 4,0 0,-2 -1,-1 0,-6 -1,-1 0,-7 1,-1 0,-5 -1,-1 0,-6 -2,0 -1,-1 0,-4 -1,-1 -4,0 -1,1 -8,0 -1,1 -7,0 -1,1 -8,0Z"/>
<path onmouseover="hoverPath(evt)" onmouseout="recoverPath(evt)" fill="rgb(251,251,248)" d="M  71,4l 2,0 1,1 0,1 1,1 0,4 -1,1 -1,1 -7,0 -1,1 -9,0 -1,1 -9,0 -1,1 -9,0 -1,1 -9,0 -1,1 -10,0 -1,1 -7,0 -1,1 -6,0 0,1 6,0 1,-1 9,0 1,-1 9,0 1,-1 9,0 1,-1 9,0 1,-1 9,0 1,-1 9,0 1,-1 10,0 1,-1 6,0 1,1 1,1 0,5 -1,1 0,1 -1,1 -1,0 -1,1 -1,0 -1,1 -1,0 -1,1 -1,0 -1,1 -2,0 -1,1 -1,1 -2,0 -1,-1 0,2 -1,1 -1,1 -2,0 -1,-1 -1,1 0,2 -1,1 -1,1 0,4 1,1 0,0 1,1 1,-1 4,0 1,1 0,-2 1,-1 1,-1 2,0 1,1 0,-2 1,-1 1,-1 2,0 1,-1 1,0 1,-1 2,0 2,-2 1,0 1,-1 1,-1 0,-6 -1,-1 0,-8 1,-1 1,0 1,-1 9,0 1,-1 8,0 1,-1 -10,0 -1,1 -11,0 -1,1 -8,0 -1,-1 0,-1 -1,-1 0,-9 -2,0 0,2 -1,1 -1,0 -1,1Z"/>
<path onmouseover="hoverPath(evt)" onmouseout="recoverPath(evt)" fill="rgb(246,247,245)" d="M  149,236l 1,0 1,1 0,3 -1,1 3,0 1,1 0,1 1,1 0,6 1,0 0,-9 -1,-1 0,-28 -1,-1 0,-14 1,-1 2,0 1,-1 9,0 1,-1 10,0 1,-1 10,0 0,-2 -1,1 -9,0 -1,1 -11,0 -1,1 -11,0 -1,-1 0,-1 -1,-1 0,-11 -1,-1 0,-9 1,-1 2,0 1,-1 8,0 1,-1 5,0 1,-1 3,0 1,-1 3,0 1,-1 5,0 1,1 0,-1 -1,-1 -4,0 5,3 -7,-2 -3,0 -1,1 -4,0 -1,1 -6,0 -1,1 -9,0 -1,-1 0,-6 -2,0 1,1 0,6 -1,1 0,1 1,1 0,10 1,1 0,12 -1,1 -1,0 -1,1 -19,0 -1,1 -20,0 -1,1 -17,0 -1,-1 0,-1 -1,-1 0,2 -1,1 -4,0 -1,1 -12,0 -1,1 -6,0 -1,1 -6,0 -1,1 -7,0 -1,1 -7,0 -1,1 -6,0 -1,-1 0,-1 -1,-1 0,-5 -1,-1 0,-9 -1,-1 0,-2 -1,-1 0,-7 -2,0 0,2 1,1 0,8 1,1 0,3 1,1 0,5 1,1 0,6 -1,1 -1,0 -1,1 -4,0 -1,1 -7,0 -1,1 -8,0 -1,1 -6,0 0,1 7,0 1,-1 7,0 1,-1 8,0 1,-1 6,0 1,1 1,1 0,-1 1,-1 1,-1 5,0 1,-1 7,0 1,-1 7,0 1,-1 7,0 1,-1 6,0 1,1 1,1 0,4 1,-5 0,-1 1,-1 9,0 1,-1 25,0 1,1 0,6 1,0 0,-6 1,-1 2,0 1,1 10,0 1,1 5,0 1,1 0,-3 1,-1 1,0 1,-1 15,0 1,1 1,1 0,8 -1,1 -1,0 -1,1 -4,0 -1,-1 -11,0 0,1 -1,1 0,2 2,0 1,1 0,3 2,0 1,1 0,3 -1,1 -1,0 1,1 0,3 11,0 1,1 0,2 -1,1 -9,0 -1,1 -1,0 0,3 1,1 1,0 1,1 0,2 8,0 -38,-30 -6,0 -1,1 -1,1 1,1 0,1 6,0 1,-1 0,-3 38,30Z"/>
<path onmouseover="hoverPath(evt)" onmouseout="recoverPath(evt)" fill="rgb(241,240,230)" d="M  156,200l 0,10 1,1 0,28 1,1 0,8 7,0 1,-1 9,0 1,-1 3,0 0,-8 -1,-1 0,-1 -1,-1 -3,0 -1,1 -6,0 -1,-1 0,-2 1,-1 2,0 1,-1 7,0 0,-1 1,-1 0,-3 1,-1 2,0 1,1 0,4 1,0 1,1 1,0 1,-1 7,0 1,1 0,2 -1,1 -3,0 -1,1 -6,0 0,9 1,1 0,2 1,-2 10,0 1,-1 2,0 0,-2 -1,-1 0,-4 -1,-1 0,-4 -1,-1 0,-4 -1,-1 0,-6 -1,0 -1,-1 0,-7 -1,-1 0,-4 -1,-1 0,-4 -1,-1 0,-5 1,-1 -10,0 -1,1 -10,0 -1,1 -9,0 -1,1 -2,0Z"/>
<path onmouseover="hoverPath(evt)" onmouseout="recoverPath(evt)" fill="rgb(249,238,138)" d="M  9,253l 0,-2 -1,0 -1,-1 0,-1 -1,-1 0,-4 -1,-1 0,-1 -1,-1 0,-2 -1,-1 0,-1 -1,-1 0,-2 -1,-1 0,-2 -1,0 0,24 9,0Z"/>
<path onmouseover="hoverPath(evt)" onmouseout="recoverPath(evt)" fill="rgb(243,242,234)" d="M  11,253l 0,2 66,0 0,-5 -1,-1 0,-13 -1,-1 0,-16 -1,-1 0,-10 -2,0 -1,-1 0,-4 -1,-1 -4,0 -1,1 -7,0 -1,1 -7,0 -1,1 -7,0 -1,1 -5,0 -1,1 0,4 1,1 0,6 1,1 0,7 -1,1 0,5 1,1 0,6 1,1 0,4 -1,1 -4,0 -1,1 -5,0 0,2 -1,1 -5,0 -1,1 -6,0 -1,1 -2,0Z"/>
<path onmouseover="hoverPath(evt)" onmouseout="recoverPath(evt)" fill="rgb(239,236,223)" d="M  27,0l -27,0 0,18 5,0 1,-1 7,0 1,-1 10,0 1,-1 9,0 1,-1 9,0 1,-1 9,0 1,-1 9,0 1,-1 7,0 1,-1 0,-2 -1,-1 0,-1 -7,0 -1,-1 0,-2 1,-1 5,0 1,-1 1,0 0,-1 -45,0 -4,5 1,1 0,2 -1,1 -2,0 -1,-1 0,-2 1,-1 2,0 4,-5Z"/>
<path onmouseover="hoverPath(evt)" onmouseout="recoverPath(evt)" fill="rgb(242,241,230)" d="M  34,188l -1,0 0,5 1,1 0,5 1,1 0,1 4,0 1,-1 7,0 1,-1 7,0 1,-1 6,0 1,-1 6,0 1,-1 12,0 1,-1 4,0 0,-12 1,-1 2,0 0,-1 -1,0 -2,1 -2,0 -1,1 -5,0 -1,1 -14,0 -1,1 -12,0 -1,1 -7,0 -1,1 -5,0 -1,1Z"/>
<path onmouseover="hoverPath(evt)" onmouseout="recoverPath(evt)" fill="rgb(242,241,232)" d="M  93,181l -1,0 0,2 -1,1 0,9 1,1 0,1 15,0 1,-1 20,0 1,-1 19,0 1,-1 1,0 0,-10 -1,-1 0,-10 -1,1 -8,0 -1,1 -6,0 -1,1 -7,0 -1,1 -6,0 -1,1 -5,0 -1,1 -5,0 -1,1 -4,0 -1,1 -2,0 -1,1 -3,0 -1,1Z"/>
<path onmouseover="hoverPath(evt)" onmouseout="recoverPath(evt)" fill="rgb(243,242,234)" d="M  156,40l 0,0 -1,1 0,2 1,1 0,5 1,1 0,7 -1,1 -1,0 0,1 2,0 1,1 0,2 -1,1 0,1 2,0 1,1 0,2 -1,1 0,1 1,1 0,1 1,1 0,1 1,1 0,2 1,1 0,2 1,1 0,2 1,1 0,2 1,1 0,2 1,1 0,1 1,1 1,0 1,-1 4,0 1,-1 4,0 1,-1 4,0 1,-1 3,0 1,-1 5,0 1,-1 5,0 1,-1 4,0 1,-1 4,0 1,-1 5,0 1,-1 4,0 1,-1 4,0 1,-1 4,0 1,-1 5,0 1,-1 4,0 1,-1 4,0 1,-1 4,0 1,-1 2,0 0,-19 -1,0 -1,-1 -1,-1 0,-2 -1,-1 0,-1 -1,-1 0,-2 -1,-1 0,-1 -1,-1 0,-1 -1,-1 0,-1 -1,-1 0,-2 -1,-1 0,-1 -1,-1 0,-2 -1,-1 0,-1 -1,-1 0,-2 -1,-1 0,-2 -1,-1 0,-1 -1,-1 0,-2 -1,-1 0,-1 -1,-1 0,-2 -1,-1 0,-1 -1,-1 0,-2 -1,-1 0,-1 -1,-1 0,-2 -1,-1 0,-3 -16,0 0,5 1,1 0,3 -1,1 -2,0 -1,-1 -1,-1 0,-2 -1,-1 0,-2 -9,0 -1,1 -9,0 -1,1 -8,0 -1,1 -8,0 -1,1 -1,0 0,4 7,0 1,-1 7,0 1,1 0,4 -1,1 -1,0 -1,1 -3,0 -1,1 -4,0 -1,1 -2,0 -1,1 -5,0 -2,-2 0,-1 -1,-1 0,-3 1,-1 2,0 0,-1 -1,-1 0,-2 -1,-1 -4,0 -1,1 -9,0 -1,1 -1,0 1,1 0,6 1,1 0,5 1,1 0,4 1,1 0,4 1,1 0,2 5,0 1,1 0,2 -1,1 -3,0 -1,1Z"/>
<path onmouseover="hoverPath(evt)" onmouseout="recoverPath(evt)" fill="rgb(243,242,233)" d="M  172,96l -2,0 0,3 1,1 0,1 1,1 0,2 1,1 0,2 2,0 1,1 0,2 -1,1 0,1 1,1 0,2 2,0 1,1 0,2 -1,1 0,1 1,1 0,1 1,1 0,2 1,1 0,2 2,0 1,1 0,2 -1,1 0,1 1,1 0,2 2,0 1,1 0,2 -1,1 0,1 1,1 0,1 1,1 0,3 1,0 0,-1 1,-1 8,0 1,-1 7,0 1,-1 1,0 0,-3 1,-1 0,-2 -1,-1 -1,-1 0,-3 -1,-1 -1,-1 0,-3 -1,-1 -1,-1 0,-3 -1,-1 0,-1 -1,-1 0,-1 -1,-1 0,-2 -1,-1 0,-1 -1,-1 0,-1 -2,0 -1,-1 0,-3 1,-1 -2,0 -1,-1 0,-3 1,-1 0,-1 -2,0 -1,-1 0,-2 1,-1 -2,0 -1,-1 0,-2 -7,0 -1,1 -4,0 -1,1 -3,0 -1,1Z"/>
<path onmouseover="hoverPath(evt)" onmouseout="recoverPath(evt)" fill="rgb(244,243,235)" d="M  194,91l 0,0 -1,1 0,2 1,1 0,2 -1,1 2,0 1,1 0,3 -1,1 0,1 2,0 1,1 0,2 -1,1 0,1 2,0 1,1 0,1 1,1 0,1 1,1 0,2 1,1 0,1 1,1 0,1 1,1 0,3 1,1 1,1 0,3 1,1 1,1 0,3 1,1 1,1 0,3 1,1 1,1 0,1 3,0 1,-1 3,0 1,-1 2,0 1,-1 3,0 1,-1 3,0 1,-1 3,0 1,-1 2,0 1,-1 3,0 1,-1 2,0 1,-1 4,0 1,-1 4,0 0,-52 -4,0 -1,1 -5,0 -1,1 -4,0 -1,1 -4,0 -1,1 -5,0 -1,1 -4,0 -1,1 -4,0 -1,1 -4,0 -1,1 -5,0 -1,1 -4,0 -1,1 -4,0 -1,1Z"/>
<path onmouseover="hoverPath(evt)" onmouseout="recoverPath(evt)" fill="rgb(245,244,237)" d="M  211,253l 0,2 44,0 0,-8 -2,0 -1,1 -6,0 -1,1 -7,0 -1,1 -7,0 -1,1 -7,0 -1,1 -6,0 -1,1Z"/>
<path onmouseover="hoverPath(evt)" onmouseout="recoverPath(evt)" fill="rgb(243,242,235)" d="M  0,110l 0,58 6,0 1,-1 9,0 1,-1 6,0 1,-1 9,0 1,-1 8,0 1,-1 7,0 1,-1 8,0 1,-1 7,0 1,-1 8,0 1,-1 8,0 1,-1 6,0 1,-1 7,0 1,-1 10,0 1,-1 7,0 1,-1 8,0 1,-1 8,0 1,-1 7,0 1,-1 6,0 1,-1 7,0 1,-1 7,0 1,-1 6,0 1,-1 5,0 -1,-1 0,-2 1,-1 0,-1 -1,-1 0,-2 -2,0 -1,-1 0,-2 1,-1 0,-1 -1,-1 0,-1 -1,-1 0,-2 -1,-1 0,-2 -1,-1 0,-1 -1,-1 0,-2 -1,-1 0,-2 -2,0 -1,-1 0,-2 1,-1 0,-1 -1,-1 0,-2 -2,0 -1,-1 0,-2 1,-1 0,-1 -1,-1 0,-1 -1,-1 0,-2 -1,-1 0,-1 -1,-1 -9,0 -1,1 -14,0 -1,1 -14,0 -1,1 -14,0 -1,1 -14,0 -1,1 -14,0 -1,1 -14,0 -1,1 -14,0 -1,1 -3,0 -1,-1 0,-2 -2,0 -1,-1 0,-4 -3,0 -1,-1 0,-5 -1,-1 -2,0 -1,1 -6,0 0,2 1,0 1,1 1,1 0,5 -1,1 -5,0 0,1 -1,1 -4,0 -1,1 -6,0 0,2 -1,1 -4,0 -1,1 -6,0Z"/>
<path onmouseover="hoverPath(evt)" onmouseout="recoverPath(evt)" fill="rgb(241,240,229)" d="M  26,202l 1,0 1,-1 1,0 0,-4 -1,-1 0,-5 -1,-1 0,-1 -1,1 -2,0 -1,1 -3,0 -1,1 -2,0 -1,1 -3,0 -1,1 -2,0 -1,1 -3,0 -1,1 -5,0 0,9 5,0 1,-1 8,0 1,-1 7,0 1,-1Z"/>
<path onmouseover="hoverPath(evt)" onmouseout="recoverPath(evt)" fill="rgb(251,251,248)" d="M  47,102l -1,0 0,1 1,0 1,-1 14,0 1,-1 14,0 1,-1 14,0 1,-1 14,0 1,-1 14,0 1,-1 14,0 1,-1 14,0 1,-1 11,0 1,1 1,1 0,1 1,1 0,2 1,1 0,1 1,1 0,3 -1,1 2,0 1,1 0,2 1,1 0,3 -1,1 2,0 1,1 0,2 1,1 0,2 1,1 0,1 1,1 0,2 1,1 0,2 1,1 0,1 1,1 0,3 -1,1 2,0 1,1 0,2 1,1 0,3 -1,1 2,0 1,1 0,1 1,0 0,-2 -1,-1 0,-1 -1,-1 0,-3 1,-1 -2,0 -1,-1 0,-2 -1,-1 0,-3 1,-1 -2,0 -1,-1 0,-2 -1,-1 0,-2 -1,-1 0,-1 -1,-1 0,-3 1,-1 -2,0 -1,-1 0,-2 -1,-1 0,-3 1,-1 -2,0 -1,-1 0,-2 -1,-1 0,-2 -1,-1 0,-1 -1,-1 0,-5 1,-1 2,0 1,-1 3,0 1,-1 4,0 1,-1 9,0 1,1 0,-1 1,-1 1,-1 3,0 1,-1 4,0 1,-1 4,0 1,-1 5,0 1,-1 4,0 1,-1 4,0 1,-1 4,0 1,-1 5,0 1,-1 4,0 1,-1 4,0 1,-1 5,0 1,-1 5,0 0,-2 -1,0 -1,1 -4,0 -1,1 -4,0 -1,1 -4,0 -1,1 -5,0 -1,1 -4,0 -1,1 -4,0 -1,1 -4,0 -1,1 -5,0 -1,1 -4,0 -1,1 -4,0 -1,1 -5,0 -1,1 -5,0 -1,1 -3,0 -1,1 -4,0 -1,1 -4,0 -1,1 -4,0 -1,1 -3,0 -1,-1 -1,-1 0,-1 -1,-1 0,-2 -1,-1 0,-2 -1,-1 0,-2 -1,-1 0,-2 -1,-1 0,-2 -1,-1 0,-1 -1,-1 0,-1 -1,-1 0,-3 1,-1 -2,0 -1,-1 0,-3 1,-1 -2,0 -1,-1 0,-3 1,-1 1,0 0,-5 -1,-1 0,-5 -1,4 -3,0 -1,-1 0,-1 -1,-1 0,-2 -1,-1 0,-2 -1,-1 0,-2 -1,-1 0,-1 -1,-1 0,-1 -1,-1 0,-2 -1,-1 0,-2 -1,-1 0,-1 -1,-1 0,-2 -1,-1 0,-1 -1,-1 0,-2 -1,-1 0,-2 -1,-1 0,-2 -1,-1 0,-2 1,-1 3,0 1,-1 4,0 1,1 1,0 1,1 0,4 1,1 0,4 1,1 0,4 1,1 0,5 1,1 0,5 1,1 0,4 1,1 0,-1 1,-1 0,-1 1,-1 -1,0 -1,-1 0,-2 -1,-1 0,-4 -1,-1 0,-4 -1,-1 0,-5 -1,-1 0,-6 -1,-1 0,-2 1,-1 1,0 1,-1 9,0 1,-1 6,0 1,1 1,1 0,2 1,1 0,3 -1,1 -2,0 0,1 1,1 0,1 1,1 3,0 1,-1 2,0 1,-1 4,0 1,-1 3,0 1,-1 1,0 0,-2 -5,0 -1,1 -9,0 -124,89 123,-93 0,-3 1,-1 1,0 1,-1 8,0 1,-1 8,0 1,-1 9,0 1,-1 11,0 1,1 0,2 1,1 0,2 1,1 0,-1 -1,-3 0,-4 -69,0 0,5 -1,1 -5,0 -1,1 -9,0 -1,1 -2,0 0,1 6,0 1,1 1,1 0,2 1,1 0,1 1,1 0,3 -1,1 2,0 1,1 0,2 1,1 0,3 -1,1 2,0 1,1 0,3 -1,1 2,0 1,1 0,3 -1,1 1,1 0,2 2,0 1,1 0,3 -1,1 2,0 1,1 0,2 1,1 0,2 1,1 0,2 1,1 0,2 1,1 0,2 1,1 0,1 1,1 0,2 1,1 0,2 -1,1 2,0 1,1 0,3 -1,1 2,0 1,1 0,2 1,1 0,2 1,1 0,3 -1,1 2,0 1,1 0,6 -1,1 -10,0 -1,1 -14,0 -1,1 -14,0 -1,1 -14,0 -1,1 -14,0 -1,1 -15,0 -1,1 -13,0 -1,1 -7,0 -1,-1 -1,0 -1,1 -3,0 122,-92 -123,93Z"/>
<path onmouseover="hoverPath(evt)" onmouseout="recoverPath(evt)" fill="rgb(242,233,147)" d="M  136,253l 0,0 -1,-1 -3,0 -1,1 -2,0 0,2 80,0 0,-3 1,-1 3,0 1,-1 6,0 1,-1 7,0 1,-1 7,0 1,-1 7,0 1,-1 6,0 1,-1 3,0 0,-6 -1,0 -1,1 -7,0 -1,1 -6,0 -1,1 -4,0 -1,-1 0,0 -1,1 -2,0 -1,1 -6,0 -1,1 -7,0 -1,1 -5,0 -1,-1 0,-4 -1,-1 0,-4 -1,-1 0,-5 -1,-1 0,-4 -1,-1 0,-6 -1,-1 0,-3 -1,-1 0,-5 -1,-1 0,-4 -1,-1 0,-7 -1,0 -1,-1 -1,-1 0,-3 1,-1 0,-3 -1,-1 0,-4 -1,-1 0,-5 -1,-1 0,-4 -1,-1 0,-7 1,-1 3,0 1,-1 3,0 1,-1 2,0 1,-1 3,0 1,-1 2,0 1,-1 2,0 1,-1 2,0 1,-1 2,0 1,-1 2,0 1,-1 2,0 1,-1 2,0 1,-1 2,0 1,-1 2,0 1,-1 0,-3 1,-1 1,-1 3,0 1,1 0,2 2,0 1,-1 2,0 1,-1 6,0 0,-9 -3,0 -1,1 -4,0 -1,1 -2,0 -1,1 -3,0 -1,1 -2,0 -1,1 -3,0 -1,1 -3,0 -1,1 -3,0 -1,1 -2,0 -1,1 -3,0 -1,1 -5,0 -1,-1 0,-1 -1,-1 0,3 -1,1 -1,0 -1,1 -7,0 -1,1 -8,0 0,1 -1,1 -6,0 -1,-1 0,-1 -1,2 -5,0 -1,1 -6,0 -1,1 -7,0 -1,1 -7,0 -1,1 -6,0 -1,1 -7,0 -1,1 -8,0 -1,1 -8,0 -1,1 -7,0 -1,1 -10,0 -1,1 -7,0 -1,1 -6,0 -1,1 -8,0 -1,1 -8,0 -1,1 -7,0 -1,1 -8,0 -1,1 -7,0 -1,1 -8,0 -1,1 -9,0 -1,1 -6,0 -1,1 -9,0 -1,1 -7,0 0,6 8,0 1,-1 6,0 1,-1 9,0 0,-1 1,-1 4,0 1,1 2,0 1,-1 7,0 1,-1 8,0 1,-1 7,0 1,-1 8,0 1,-1 8,0 1,-1 7,0 1,-1 5,0 1,-1 1,-1 3,0 1,-1 6,0 1,1 7,0 1,-1 8,0 1,-1 8,0 1,-1 7,0 1,-1 7,0 1,-1 2,0 1,1 0,-1 1,-1 4,0 1,1 1,-1 5,0 1,-1 6,0 1,-1 7,0 1,-1 7,0 1,1 0,5 1,0 1,1 1,1 0,4 -1,1 0,4 1,1 0,5 1,1 0,5 1,1 0,4 1,0 1,1 0,3 1,1 0,2 -1,1 0,3 1,1 0,4 1,1 0,4 1,1 0,7 1,0 1,1 0,6 1,1 0,4 1,1 0,4 1,1 0,4 1,1 0,4 -1,1 -2,0 -1,1 -10,0 0,1 -1,1 -2,0 -1,-1 0,-2 -1,-1 0,-11 1,-1 6,0 1,-1 -8,0 -1,-1 0,-4 -1,4 0,1 -1,1 -7,0 -1,1 9,0 1,1 0,1 -44,17 3,0 1,-1 4,0 1,-1 8,0 1,1 -17,1 -1,0 44,-5 -3,0 -1,1 -9,0 -1,1 -8,0 0,1 -1,1 -1,0 24,-4 -44,5Z"/>
<path onmouseover="hoverPath(evt)" onmouseout="recoverPath(evt)" fill="rgb(173,199,237)" d="M  234,2l 0,0 1,1 0,2 1,1 0,1 1,1 0,2 1,1 0,1 1,1 0,2 1,1 0,1 1,1 0,2 1,1 0,1 1,1 0,2 1,1 0,2 1,1 0,1 1,1 0,2 1,1 0,1 1,1 0,2 1,1 0,1 1,1 0,1 1,1 0,1 1,1 0,2 1,1 0,1 1,1 0,2 1,1 0,-11 -2,0 -1,-1 0,-2 -1,-1 0,-1 -1,-1 0,-2 -1,-1 0,-1 -1,-1 0,-2 -1,-1 0,-2 -1,-1 0,-1 -1,-1 0,-2 -1,-1 0,-1 -1,-1 0,-2 -1,-1 0,-1 -1,-1 0,-2 -1,-1 0,-2 -1,-1 0,-1 -1,-1 0,-2 -1,-1 0,-2 -3,0Z"/>
<path onmouseover="hoverPath(evt)" onmouseout="recoverPath(evt)" fill="rgb(244,243,236)" d="M  240,2l 0,2 1,1 0,1 1,1 0,2 1,1 0,2 1,1 0,1 1,1 0,2 1,1 0,1 1,1 0,2 1,1 0,1 1,1 0,2 1,1 0,2 1,1 0,1 1,1 0,2 1,1 0,1 1,1 0,2 1,0 0,-40 -16,0 0,1 1,1Z"/>
<path onmouseover="hoverPath(evt)" onmouseout="recoverPath(evt)" fill="rgb(243,242,233)" d="M  242,212l -1,0 -1,1 -5,0 -1,1 -6,0 -1,1 -4,0 5,1 0,0 1,1 0,5 1,1 0,4 1,1 0,5 1,1 0,4 2,0 1,1 0,1 2,0 1,-1 6,0 1,-1 7,0 1,-1 2,0 0,-21 -2,0 -1,-1 0,-2 -6,0 -1,-1Z"/>
<path onmouseover="hoverPath(evt)" onmouseout="recoverPath(evt)" fill="rgb(241,241,235)" d="M  1,178l -1,0 0,10 2,0 1,1 2,0 1,-1 2,0 1,-1 2,0 1,-1 2,0 1,-1 2,0 1,-1 2,0 1,-1 2,0 1,-1 2,0 0,-4 -1,-1 0,-1 -8,0 -1,1 -6,0 -1,1Z"/>
<path onmouseover="hoverPath(evt)" onmouseout="recoverPath(evt)" fill="rgb(241,240,232)" d="M  63,98l 11,0 1,-1 15,0 1,-1 14,0 1,-1 14,0 1,-1 14,0 1,-1 14,0 1,-1 10,0 0,-4 -2,0 -1,-1 0,-2 1,-1 0,-1 -1,-1 0,-2 -1,-1 0,-2 -2,0 -1,-1 0,-2 1,-1 0,-1 -2,0 -1,-1 0,-2 1,-1 -1,-1 0,-2 -1,-1 0,-1 -1,-1 0,-2 -1,-1 0,-2 -1,-1 0,-2 -1,-1 0,-2 -1,-1 0,-2 -2,0 -1,-1 0,-2 1,-1 0,-1 -2,0 -1,-1 0,-2 -1,-1 0,-2 1,-1 0,-1 -2,0 -1,-1 0,-2 1,-1 0,-1 -2,0 -1,-1 0,-2 1,-1 0,-1 -1,-1 0,-2 -2,0 -1,-1 0,-2 1,-1 0,-1 -1,-1 0,-1 -1,-1 0,-2 -1,-1 -6,0 -1,-1 0,-3 1,-1 2,0 1,-1 9,0 1,-1 5,0 0,-4 -65,0 0,8 1,1 0,1 6,0 1,-1 11,0 1,-1 12,0 1,1 0,2 -1,1 -1,1 -8,0 -1,1 -9,0 -1,1 -1,0 0,6 1,1 0,8 -1,1 -1,1 -1,1 -1,0 -1,1 -1,1 -2,0 -1,1 -1,0 -1,1 -2,0 -1,1 0,2 -1,1 -2,0 -1,-1 -1,1 0,2 -1,1 -2,0 -1,-1 -2,0 -1,1 -2,0 -1,-1 -1,-1 -1,-1 0,-6 1,-1 1,-1 0,-2 1,-1 1,-1 2,0 1,1 1,-1 0,-2 1,-1 2,0 1,1 1,-1 1,-1 2,0 1,-1 1,0 1,-1 1,0 1,-1 1,0 1,-1 1,0 0,-1 1,-1 0,-3 -1,-1 -4,0 -1,1 -10,0 -1,1 -9,0 -1,1 -9,0 -1,1 -9,0 -1,1 -9,0 -1,1 -9,0 -1,1 -9,0 -1,1 -7,0 0,83 5,0 1,-1 4,0 0,-2 1,-1 6,0 1,-1 4,0 0,-1 1,-1 5,0 0,-3 -1,-1 -1,0 -1,-1 0,-4 1,-1 6,0 1,-1 4,0 1,1 1,1 0,5 3,0 1,1 0,4 3,0 1,-1 3,0 1,-1 3,0 1,1 5,0 1,-1Z"/>
<path onmouseover="hoverPath(evt)" onmouseout="recoverPath(evt)" fill="rgb(242,241,231)" d="M  76,202l 0,0 -1,1 0,3 1,1 0,10 1,1 0,16 1,1 0,13 1,1 0,6 30,0 0,-2 1,-1 8,0 1,-1 4,0 0,-2 -1,0 -1,-1 -1,-1 0,-2 1,-1 2,0 1,-1 1,0 1,-1 8,0 0,-4 -1,0 -1,-1 -12,0 -1,-1 -1,0 -1,-1 -1,-1 0,-2 -1,-1 0,-7 -1,-1 0,-4 1,-1 0,-1 1,-1 1,-1 14,0 0,-1 1,-1 -1,-1 0,-4 1,-1 0,-1 1,-1 13,0 1,1 2,0 1,-1 1,0 0,-6 -1,-1 -13,0 -1,1 -1,0 0,4 -1,1 -2,0 -1,-1 0,-1 -5,0 -1,-1 -10,0 -1,-1 0,6 -1,1 0,3 -1,1 -1,1 -8,0 -1,-1 0,-1 -1,-1 0,-2 1,-1 1,-1 1,-1 5,0 0,-4 -23,0 -1,1 -8,0 -1,1Z"/>
<path onmouseover="hoverPath(evt)" onmouseout="recoverPath(evt)" fill="rgb(172,198,238)" d="M  86,179l -5,0 -1,1 -23,0 -1,1 -9,0 -1,1 -9,0 -1,1 -3,0 -1,-1 0,1 1,1 0,2 2,0 1,-1 5,0 1,-1 7,0 1,-1 12,0 1,-1 14,0 1,-1 5,0 1,-1 1,0 1,-1 1,1 1,-1 4,0 1,-1 3,0 1,-1 2,0 1,-1 4,0 1,-1 5,0 1,-1 5,0 1,-1 6,0 1,-1 7,0 1,-1 6,0 1,-1 8,0 1,-1 0,-1 -6,0 -1,1 -8,0 -1,1 -6,0 -1,1 -6,0 -1,1 -6,0 -1,1 -11,0 0,1 -1,1 -1,0 -1,1 -4,0 -1,1 -2,0 -1,1 -2,0 0,2 -1,-1Z"/>
<path onmouseover="hoverPath(evt)" onmouseout="recoverPath(evt)" fill="rgb(243,242,234)" d="M  102,166l 0,0 -1,-1 -4,0 -1,1 -3,0 -1,1 -1,1 -5,0 -1,1 -7,0 -1,1 -8,0 -1,1 -8,0 -1,1 -7,0 -1,1 -8,0 -1,1 -7,0 -1,1 -3,0 0,5 2,0 1,1 1,0 1,-1 9,0 1,-1 9,0 1,-1 23,0 1,-1 5,0 1,-1 2,0 1,-1 2,0 1,-1 4,0 1,-1 1,0 0,-1 1,-1 11,0 1,-1 6,0 1,-1 6,0 1,-1 6,0 1,-1 8,0 1,-1 8,0 0,-4 -2,0 -1,-1 -1,1 -7,0 -1,1 -7,0 -1,1 -8,0 -1,1 -8,0 -1,1Z"/>
<path onmouseover="hoverPath(evt)" onmouseout="recoverPath(evt)" fill="rgb(243,240,225)" d="M  122,235l 11,0 1,1 1,0 1,1 0,6 -1,1 -8,0 -1,1 -1,0 -1,1 -2,0 1,1 1,0 1,1 0,4 -1,1 -4,0 -1,1 -8,0 0,1 16,0 0,-3 1,-1 2,0 1,-1 5,0 1,1 1,0 1,-1 4,0 1,-1 9,0 0,-4 -1,-1 0,-1 -3,0 -1,-1 0,-2 1,-1 0,-1 -9,0 -1,-1 0,-2 -1,0 -1,-1 -1,-1 0,-5 1,-1 1,0 1,-1 -2,0 -1,-1 0,-3 -1,-1 0,-2 1,-1 1,0 0,-1 -2,0 -1,-1 0,-3 -1,2 0,1 -1,1 -14,0 -1,1 0,1 -1,1 0,2 1,1 0,7 1,1 0,2 1,1 1,0 1,1Z"/>
<path onmouseover="hoverPath(evt)" onmouseout="recoverPath(evt)" fill="rgb(232,231,209)" d="M  145,31l 0,1 1,1 0,1 1,1 0,1 1,1 0,2 1,1 0,2 1,1 0,2 1,1 0,1 1,0 0,-2 -1,-1 0,-2 -1,-1 0,-4 -1,-1 0,-5 -1,-1 0,-5 -1,-1 0,-4 -1,-1 0,-4 -1,-1 0,-4 -1,0 -1,-1 -2,0 -1,1 -3,0 1,1 0,2 1,1 0,2 1,1 0,2 1,1 0,1 1,1 0,2 1,1 0,1 1,1 0,2 1,1Z"/>
<path onmouseover="hoverPath(evt)" onmouseout="recoverPath(evt)" fill="rgb(244,243,235)" d="M  154,163l 0,2 7,0 1,-1 6,0 1,-1 4,0 1,-1 4,0 1,-1 3,0 0,-4 -5,0 -1,1 -7,0 -1,1 -6,0 -1,1 -5,0 -1,1 -1,0Z"/>
<path onmouseover="hoverPath(evt)" onmouseout="recoverPath(evt)" fill="rgb(243,242,232)" d="M  156,171l -2,0 0,7 1,1 0,11 1,1 0,1 9,0 1,-1 11,0 1,-1 9,0 0,-4 -1,-1 0,-5 -1,-1 0,-5 -1,-1 0,-5 -1,-1 0,-1 -3,0 -1,1 -3,0 -1,1 -3,0 -1,1 -5,0 -1,1 -8,0 -1,1Z"/>
<path onmouseover="hoverPath(evt)" onmouseout="recoverPath(evt)" fill="rgb(243,242,233)" d="M  196,163l 0,4 1,1 0,4 1,1 0,5 1,1 0,4 1,1 0,4 6,0 1,-1 7,0 1,-1 7,0 1,-1 7,0 1,-1 7,0 1,-1 6,0 0,-5 -1,-1 0,-4 -1,-1 0,-2 -1,-1 0,-4 -1,-1 0,-4 -1,-1 0,-2 -1,-1 0,-4 -1,-1 0,-2 -1,1 -2,0 -1,1 -2,0 -1,1 -2,0 -1,1 -2,0 -1,1 -2,0 -1,1 -2,0 -1,1 -2,0 -1,1 -2,0 -1,1 -2,0 -1,1 -3,0 -1,1 -2,0 -1,1 -3,0 -1,1 -2,0 -1,1Z"/>
<path onmouseover="hoverPath(evt)" onmouseout="recoverPath(evt)" fill="rgb(242,241,232)" d="M  202,195l 0,5 1,1 0,4 1,1 0,5 1,1 0,3 1,1 0,6 1,1 0,4 1,1 0,5 1,1 0,4 1,1 0,4 3,0 1,-1 7,0 1,-1 6,0 1,-1 2,0 -1,-1 0,-4 -1,-1 0,-5 -1,-1 0,-4 -1,-1 0,-5 -1,-1 -4,0 -1,-1 0,-2 1,-1 4,0 1,-1 6,0 1,-1 5,0 1,-1 5,0 1,-1 4,0 1,-1 0,-2 -1,-1 0,-4 -1,-1 0,-4 -1,-1 0,-3 -1,-1 0,-3 -5,0 -1,1 -7,0 -1,1 -7,0 -1,1 -8,0 -1,1 -7,0 -1,1 -6,0Z"/>
<path onmouseover="hoverPath(evt)" onmouseout="recoverPath(evt)" fill="rgb(253,253,252)" d="M  251,211l 2,0 1,1 0,2 1,0 0,-14 -2,0 -1,-1 0,-5 -1,-1 0,-3 -1,-1 0,-5 -1,-1 0,-3 -1,-1 0,-2 -1,-1 0,-4 -1,-1 0,-4 -1,-1 0,-2 -1,-1 0,-4 -1,-1 0,-4 -1,-1 0,-2 -1,-1 0,-6 -1,0 -1,1 0,2 1,1 0,2 1,1 0,4 1,1 0,2 1,1 0,4 1,1 0,4 1,1 0,2 1,1 0,4 1,1 0,7 -1,1 -6,0 -1,1 -7,0 -1,1 -7,0 -1,1 -7,0 -1,1 -7,0 -1,1 -8,0 0,1 1,1 1,-1 6,0 1,-1 7,0 1,-1 8,0 1,-1 7,0 1,-1 7,0 1,-1 7,0 1,1 0,3 1,1 0,3 1,1 0,4 1,1 0,4 1,1 0,4 -1,1 -1,1Z"/>
<path onmouseover="hoverPath(evt)" onmouseout="recoverPath(evt)" fill="rgb(241,240,229)" d="M  253,191l 0,1 1,1 0,5 1,0 0,-53 -5,0 -1,1 -2,0 -1,1 -3,0 0,2 1,1 0,2 1,1 0,4 1,1 0,4 1,1 0,2 1,1 0,4 1,1 0,4 1,1 0,2 1,1 0,3 1,1 0,5 1,1Z"/>
</svg>