<svg width="256" height="256" xmlns="http://www.w3.org/2000/svg"><script> 
var tempColor;
function hoverPath(evt){
obj = evt.target;
tempColor = obj.getAttribute("fill");
obj.setAttribute("fill","red");
//alert(tempColor);
//obj.setAttribute("stroke","red");}
function recoverPath(evt){
obj = evt.target;
obj.setAttribute("fill", tempColor);
//obj.setAttribute("stroke", tempColor);
}</script><path onmouseover="hoverPath(evt)" onmouseout="recoverPath(evt)" fill="rgb(244,243,235)" d="M  69,5l 0,0 -1,1 -2,0 -1,1 1,1 0,0 1,1 1,1 1,1 1,1 1,1 1,1 0,1 1,-1 3,0 1,1 0,1 1,1 1,1 1,0 1,1 0,1 1,1 1,1 0,1 1,-1 5,0 1,-1 5,0 1,-1 3,0 1,-1 4,0 1,-1 2,0 1,-1 3,0 1,-1 2,0 1,-1 2,0 1,-1 2,0 1,1 1,0 1,-1 0,-1 1,-1 5,0 1,-1 3,0 1,-1 2,0 1,-1 3,0 1,-1 3,0 1,-1 2,0 1,-1 2,0 1,-1 4,0 1,-1 2,0 1,-1 3,0 1,-1 3,0 1,1 0,-3 -96,0 0,3 -2,2Z"/>
<path onmouseover="hoverPath(evt)" onmouseout="recoverPath(evt)" fill="rgb(171,198,237)" d="M  3,96l -3,0 0,1 2,0 1,1 0,3 1,1 0,3 1,1 0,1 4,0 1,-1 7,0 1,-1 7,0 1,-1 7,0 1,-1 6,0 1,-1 7,0 1,-1 6,0 1,-1 6,0 1,-1 7,0 1,-1 7,0 1,-1 8,0 1,-1 8,0 1,-1 9,0 1,-1 10,0 1,-1 13,0 1,-1 13,0 1,-1 12,0 1,1 1,1 0,1 1,1 1,1 0,1 1,1 1,1 1,1 0,1 1,1 1,1 0,1 1,1 1,1 0,1 1,1 1,1 1,1 0,1 1,1 1,1 0,1 1,1 1,1 0,1 1,1 1,0 1,1 0,2 1,0 0,-1 -1,-2 -1,-1 0,0 -1,-1 0,-2 -1,-1 -1,-1 0,-1 -1,-1 0,-1 -1,-1 -1,-1 0,-1 -1,-1 -1,-1 0,-1 -1,-1 0,-1 -1,-1 -1,-1 0,-1 -1,-1 0,-1 -1,-1 -1,-1 0,-3 1,-1 8,0 -1,-1 0,-2 -1,-1 0,-2 -1,-1 0,-2 -1,-1 0,-1 -10,0 -1,1 -15,0 -1,1 -13,0 -1,1 -14,0 -1,1 -13,0 -1,1 -8,0 -1,1 -7,0 -1,1 -7,0 -1,1 -7,0 -1,1 -8,0 -1,1 -7,0 -1,1 -6,0 -1,1 -7,0 -1,1 -6,0 -1,1 -6,0 -1,1 -6,0 -1,1 -7,0 -1,1Z"/>
<path onmouseover="hoverPath(evt)" onmouseout="recoverPath(evt)" fill="rgb(243,242,234)" d="M  26,0l -1,0 0,5 1,1 0,4 1,1 0,3 1,1 0,6 1,1 0,4 1,1 0,1 6,0 1,-1 8,0 1,-1 8,0 1,-1 8,0 1,-1 7,0 1,-1 5,0 -1,-1 0,-1 -1,-1 -1,-1 -1,-1 -1,-1 -1,0 -1,-1 0,-1 -1,-1 -1,-1 -1,-1 -1,-1 -1,-1 -1,-1 -1,-1 0,-2 1,-1 1,-1 2,0 1,-1 1,-1 0,-2Z"/>
<path onmouseover="hoverPath(evt)" onmouseout="recoverPath(evt)" fill="rgb(244,243,236)" d="M  35,216l -1,0 0,2 1,1 0,2 1,1 0,3 1,1 0,2 1,1 0,2 1,1 0,3 1,1 0,2 1,1 0,2 1,1 0,1 2,0 1,1 9,0 1,-1 6,0 1,-1 7,0 1,-1 6,0 1,-1 1,-1 0,-1 1,-1 5,0 1,-1 4,0 1,-1 4,0 1,-1 3,0 1,-1 1,0 1,-1 4,0 1,-1 1,0 1,-1 4,0 1,-1 4,0 1,-1 6,0 1,-1 2,0 1,-1 1,0 1,-1 2,0 1,-1 3,0 1,-1 1,0 1,-1 2,0 1,-1 2,0 1,-1 2,0 1,-1 1,0 1,-1 2,0 1,-1 1,0 1,-1 1,0 1,-1 2,0 1,-1 1,0 1,-1 3,0 1,-1 3,0 1,-1 3,0 1,-1 2,0 1,-1 4,0 0,-2 1,-1 2,0 1,1 0,2 1,0 1,1 0,4 1,1 0,1 1,1 0,4 -1,1 2,0 1,1 0,1 7,0 1,-1 6,0 1,-1 6,0 1,-1 0,-2 -1,-1 0,-2 -1,-1 0,-3 -1,-1 0,-3 -8,0 -1,-1 0,-2 1,-1 4,0 1,-1 0,-4 -1,-1 0,-2 -1,-1 0,-3 -1,-1 0,-2 -1,-1 0,-4 -1,-1 0,-1 -1,-1 0,-3 -1,-1 0,-3 -1,-1 0,-1 -1,-1 0,-4 -1,-1 0,-1 -1,-1 0,-2 -1,-1 0,-3 -1,-1 0,-2 -1,-1 0,-3 -1,-1 0,-4 -1,-1 -1,-1 0,-3 -1,-1 0,-1 -1,-1 0,-1 -1,0 -1,-1 0,-2 -1,-1 0,-1 -1,0 -1,-1 0,-1 -1,-1 -1,-1 0,-2 -1,0 -1,-1 0,-2 -1,0 -1,-1 0,-2 -1,0 -1,-1 -1,-1 0,-1 -1,-1 -1,-1 0,-1 -1,-1 -1,-1 0,-1 -2,-2 -1,-1 0,-1 -1,-1 -1,-1 0,-1 -1,-1 -1,-1 0,-1 -1,-1 -1,-1 -1,-1 0,-1 -1,-1 -1,-1 0,-1 -1,-1 -10,0 -1,1 -13,0 -1,1 -13,0 -1,1 -10,0 -1,1 -9,0 -1,1 -8,0 -1,1 -8,0 -1,1 -7,0 -1,1 -7,0 -1,1 -6,0 -1,1 -6,0 -1,1 -7,0 -1,1 -6,0 -1,1 -7,0 -1,1 -7,0 -1,1 -7,0 -1,1 -5,0 0,2 2,0 1,1 0,3 -1,1 0,2 8,0 1,-1 7,0 1,-1 5,0 1,-1 5,0 1,-1 7,0 1,1 0,3 -1,1 -5,0 -1,1 -5,0 -1,1 -5,0 -1,1 -7,0 -1,1 -5,0 -1,1 -2,0 0,3 1,1 0,1 3,0 1,1 0,2 -1,1 -1,1 2,-1 10,0 1,1 0,2 -1,1 -6,0 -1,1 -4,0 0,5 1,1 0,3 1,1 0,3 1,1 0,3 1,1 0,3 1,1 0,2 1,1 0,4 1,1 0,2 1,1 0,3 2,0 1,1 0,3 -1,1 0,2 1,1 0,3 1,1 0,2 1,1 0,3 1,1 0,2 1,1 0,3 1,1 0,3 1,1 0,2 2,0 1,1 0,2 -1,1 4,0 1,-1 4,0 1,-1 3,0 1,-1 5,0 1,-1 4,0 1,-1 3,0 1,-1 4,0 1,-1 1,0 1,-1 0,-3 1,-1 2,0 1,1 0,2 1,1 0,4 -1,1 -1,0 -1,1 -2,0 -1,1 -3,0 -1,1 -4,0 -1,1 -4,0 -1,1 -4,0 -1,1 -4,0 -1,1 -4,0 -1,1 -2,0 -1,1Z"/>
<path onmouseover="hoverPath(evt)" onmouseout="recoverPath(evt)" fill="rgb(244,243,235)" d="M  215,57l 0,2 1,1 0,3 1,1 0,2 1,1 0,3 1,1 0,1 1,1 0,1 2,0 1,1 2,0 1,-1 23,0 1,-1 5,0 0,-32 -1,0 -1,1 -3,0 -1,-1 -1,0 -1,1 -1,0 0,2 -1,1 -3,0 -1,-1 -1,0 -1,1 -1,0 0,2 -1,1 -1,0 -1,1 -4,0 -1,-1 -1,1 -2,0 0,2 -1,1 -3,0 -1,-1 -1,0 -1,1 -3,0 0,2 -1,1 -2,0 1,1Z"/>
<path onmouseover="hoverPath(evt)" onmouseout="recoverPath(evt)" fill="rgb(244,243,235)" d="M  35,58l 0,5 1,1 0,5 1,1 0,5 1,1 0,6 1,1 0,3 -1,1 -1,1 -2,0 -1,-1 0,-2 -1,-1 0,-4 -1,-1 0,-3 -7,0 -1,1 -6,0 -1,1 -10,0 -1,1 -6,0 0,15 4,0 1,-1 7,0 1,-1 6,0 1,-1 6,0 1,-1 6,0 1,-1 7,0 1,-1 6,0 1,-1 7,0 1,-1 8,0 1,-1 7,0 1,-1 7,0 1,-1 7,0 1,-1 8,0 1,-1 13,0 1,-1 14,0 1,-1 13,0 1,-1 15,0 1,-1 8,0 0,-2 -1,-1 0,-1 -1,-1 -1,-1 0,-1 -1,-1 0,-1 -1,-1 0,-3 1,-1 -1,0 -1,-1 -1,-1 0,-2 1,-1 0,-1 -1,-1 0,-2 -1,-1 0,-2 1,-1 0,-1 -2,0 -1,-1 0,-3 1,-1 -1,0 -1,-1 -2,0 -1,-1 0,-3 -1,-1 0,-2 1,-1 0,-1 -1,-1 0,-2 -2,0 -1,-1 0,-3 1,-1 1,0 -1,-1 0,-1 -1,-1 0,-3 -1,-1 0,-2 -1,0 -1,1 -2,0 -1,1 -3,0 -1,1 -3,0 -1,1 -2,0 -1,1 -3,0 -1,1 -3,0 -1,1 -3,0 -1,1 -2,0 -1,1 -3,0 -1,1 -2,0 -1,1 -3,0 -1,1 -4,0 -1,1 -3,0 -1,1 -6,0 -1,1 -5,0 0,11 1,1 0,4 -2,2 -15,0 -1,1 -9,0 -1,1 -9,0 0,2 -1,1 -8,0 -1,1 -3,0 0,2 49,-2 2,0 1,1 0,2 -1,1 -2,0 -1,-1 0,-2 1,-1 -49,2Z"/>
<path onmouseover="hoverPath(evt)" onmouseout="recoverPath(evt)" fill="rgb(238,239,236)" d="M  117,234l -3,0 -1,1 -3,0 -1,1 -5,0 -1,1 2,0 5,-1 2,0 2,-1 2,0 1,-1 4,-1 0,1 5,0 1,-1 6,0 1,-1 6,0 1,-1 7,0 1,-1 6,0 1,-1 6,0 1,-1 6,0 1,-1 6,0 1,-1 6,0 1,-1 3,0 0,-1 -1,-1 0,-2 1,-1 0,-2 -1,-1 0,-1 -1,-1 0,-4 -1,0 -1,-1 0,-2 -1,3 -4,0 -1,1 -2,0 -1,1 -3,0 -1,1 -3,0 -1,1 -3,0 -1,1 -1,0 -1,1 -2,0 -1,1 -1,0 -1,1 -1,0 -1,1 -2,0 -1,1 -1,0 -1,1 -2,0 -1,1 -2,0 -1,1 -2,0 -1,1 -1,0 -1,1 -3,0 -1,1 -2,0 -1,1 -1,0 -1,1 -2,0 0,2 -1,1 -2,0 -1,1 -1,0 -4,1Z"/>
<path onmouseover="hoverPath(evt)" onmouseout="recoverPath(evt)" fill="rgb(242,239,229)" d="M  226,242l 0,3 1,1 0,2 1,1 0,2 1,1 0,3 26,0 0,-8 -2,0 -1,-1 0,-5 -1,-1 0,-1 -3,0 -1,-1 -1,-1 -4,0 -1,1 -6,0 -1,1 -6,0 0,1 -1,1 -1,1Z"/>
<path onmouseover="hoverPath(evt)" onmouseout="recoverPath(evt)" fill="rgb(243,242,234)" d="M  230,26l -9,9 -1,1 -5,5 -1,1 0,1 -1,1 0,1 -1,1 0,2 1,1 0,2 2,0 1,-1 3,0 1,-1 3,0 1,1 1,0 0,-2 1,-1 2,0 1,-1 2,0 1,1 2,0 1,-1 1,0 0,-2 1,-1 1,0 1,-1 3,0 1,1 1,0 0,-2 1,-1 1,0 1,-1 3,0 1,1 1,0 1,-1 2,0 0,-28 -2,0 -1,1 -1,0 -1,1 -1,1 -2,0 0,1 1,0 1,1 0,2 2,2 0,2 -1,1 -2,0 -1,-1 -2,-2 -1,-1 0,-1 -1,-1 -1,-1 0,1 -1,1 0,0 -1,1 -2,0 0,1 -2,2 -1,0 -1,1 -1,1 -1,1 -1,0 -1,1Z"/>
<path onmouseover="hoverPath(evt)" onmouseout="recoverPath(evt)" fill="rgb(242,241,232)" d="M  196,106l 0,0 -1,1 -3,0 -1,-1 0,4 -1,1 0,1 1,1 0,1 1,1 0,1 1,1 0,1 1,-1 1,0 1,-1 2,0 1,1 0,2 -1,1 0,2 -1,1 -1,1 1,1 0,1 1,1 0,4 2,0 1,1 0,2 -1,1 1,1 0,1 1,1 1,1 0,1 1,1 0,1 2,0 1,1 0,1 1,1 0,1 1,1 0,1 1,1 16,0 1,1 0,1 1,0 1,-1 1,0 0,-5 -1,-1 0,-1 -1,-1 0,-2 1,-1 7,0 1,1 0,2 -1,1 -1,0 -1,1 0,4 1,1 0,1 20,0 0,-50 -9,0 -1,-1 -30,0 -1,1 -6,0 -1,1 -2,0 -1,1 -3,0 -1,1 -2,0 0,2 -1,1 -1,0 6,28 0,-1 1,2 2,0 -3,-1 -6,-28 5,25 -1,-1 0,-2 1,-1 2,0 1,1 0,1 1,1 0,1 1,1 0,1 -5,-2 -5,-25 50,1 1,1 0,2 -1,1 -2,0 -1,-1 0,-2 1,-1 2,0 -50,-1 49,18 0,2 -1,1 -2,0 -1,-1 0,-2 1,-1 2,0 1,1 -49,-18Z"/>
<path onmouseover="hoverPath(evt)" onmouseout="recoverPath(evt)" fill="rgb(229,215,144)" d="M  0,253l 0,2 38,0 0,-3 1,-1 4,0 1,-1 2,0 1,-1 2,0 1,1 1,0 1,1 3,0 1,-1 2,0 0,-1 1,-1 1,-1 3,0 1,1 0,1 5,0 1,-1 6,0 0,-1 1,-1 2,0 1,1 4,0 1,-1 6,0 1,-1 6,0 1,-1 6,0 1,-1 6,0 1,-1 6,0 1,-1 6,0 1,-1 6,0 1,-1 6,0 1,-1 5,0 0,-1 1,-1 2,0 1,1 3,0 0,-1 1,-1 2,0 1,-1 1,-1 4,0 1,1 1,-1 0,0 1,-1 3,0 1,1 2,0 1,1 2,0 0,-1 1,-1 2,0 1,1 3,0 0,-1 1,-1 2,0 1,1 3,0 1,-1 2,0 0,-1 1,-1 1,-1 3,0 1,1 0,1 5,0 1,-1 6,0 1,-1 5,0 0,-1 1,-1 2,0 1,1 3,0 1,-1 6,0 1,-1 6,0 0,-1 -1,0 -1,-1 0,-2 -5,0 -1,1 -5,0 -1,1 -4,0 -1,-1 0,-2 -1,-1 0,-3 -1,-1 0,-2 -1,-1 0,-2 -1,-1 0,-2 -1,-1 0,-2 -1,-1 0,-2 -1,-1 0,-2 -1,-1 0,-2 -1,-1 0,-3 -1,-1 0,-2 -1,-1 0,-2 -1,-1 0,-2 -1,-1 0,-1 -1,-1 0,-3 -1,-1 0,1 1,4 1,2 1,3 0,2 1,1 0,2 1,1 0,3 1,1 0,2 1,1 0,6 -1,1 -1,1 4,0 1,1 0,3 1,1 0,3 1,1 0,2 1,1 0,4 -1,1 -1,1 -6,0 -1,1 -6,0 -1,1 -9,0 -1,-1 0,1 -1,1 -3,0 -1,1 -6,0 -1,1 -6,0 -1,1 -6,0 -1,1 -6,0 -1,1 -6,0 -1,1 -7,0 -1,1 -6,0 -1,1 -6,0 -1,1 -6,0 -1,1 -6,0 -1,1 -6,0 -1,1 -5,0 -1,-1 0,-2 1,-1 -1,0 -1,1 -3,0 -1,1 -4,0 -1,1 -4,0 -1,1 -5,0 0,1 -1,1 -1,1 -1,1 -6,0 -1,1 -7,0 -1,1 -6,0 -1,1 -11,0 -1,-1 -1,0 -1,1 0,0 -1,1 -3,0 -1,-1 -5,0 -1,1 -6,0 -1,1 -6,0 -1,1 -7,0 -1,1 -5,0 -1,1 -2,0 0,2 102,-18 0,0 1,-1 5,0 1,-1 3,0 1,-1 3,0 1,-1 4,0 1,-1 -3,0 -3,1 -2,0 -2,1 -3,0 -1,1 -1,0 -5,2 -102,18Z"/>
<path onmouseover="hoverPath(evt)" onmouseout="recoverPath(evt)" fill="rgb(243,241,233)" d="M  183,93l 0,1 1,1 0,2 1,1 0,1 1,1 0,2 1,1 0,1 1,1 0,2 1,1 0,-3 1,-1 2,0 1,1 1,0 1,-1 1,0 0,-2 1,-1 2,0 1,-1 3,0 1,-1 2,0 1,-1 6,0 1,-1 32,0 1,1 8,0 0,-9 -13,0 -1,1 -26,0 -1,1 -25,0 -1,1 -4,0 -1,1Z"/>
<path onmouseover="hoverPath(evt)" onmouseout="recoverPath(evt)" fill="rgb(248,247,242)" d="M  219,157l 0,-1 1,-1 1,0 1,-1 12,0 1,-1 3,0 1,1 1,0 1,1 0,2 1,1 2,0 1,1 10,0 0,-7 -21,0 -1,-1 0,-1 -1,-1 0,-6 1,-1 1,-1 -4,0 1,1 0,1 1,7 0,1 -1,1 -1,0 -1,1 -18,0 1,1 5,0 1,1 0,1 1,1Z"/>
<path onmouseover="hoverPath(evt)" onmouseout="recoverPath(evt)" fill="rgb(244,242,234)" d="M  250,173l 0,4 -1,1 1,0 1,1 0,6 1,1 0,4 1,1 0,2 1,1 1,0 0,-33 -11,0 -1,-1 0,1 1,1 0,1 1,1 1,1 0,1 1,1 0,1 1,1 0,1 1,1 1,1 0,1 -2,5 -1,0 -1,1 1,0 1,-1 2,-5Z"/>
<path onmouseover="hoverPath(evt)" onmouseout="recoverPath(evt)" fill="rgb(242,240,230)" d="M  0,6l 0,25 11,0 1,-1 7,0 1,-1 4,0 0,-4 -1,-1 0,-4 -7,0 -1,-1 0,-2 1,-1 3,0 1,-1 1,0 1,-1 0,-1 -1,-1 0,-4 -1,-1 0,-3 -1,-1 0,-3 -19,0Z"/>
<path onmouseover="hoverPath(evt)" onmouseout="recoverPath(evt)" fill="rgb(241,239,229)" d="M  18,54l 0,0 1,-1 6,0 1,-1 1,0 1,-1 0,-2 -1,-1 0,-6 -1,-1 0,-2 -5,0 -1,1 -7,0 -1,1 -6,0 0,6 -1,1 -2,0 -1,-1 0,-5 -2,0 0,28 1,0 1,-1 6,0 1,-1 5,0 1,-1 5,0 1,1 2,0 1,1 1,0 1,1 3,0 1,1 1,0 0,-5 -1,-1 0,-4 -1,-1 0,-3 -10,0 -1,-1Z"/>
<path onmouseover="hoverPath(evt)" onmouseout="recoverPath(evt)" fill="rgb(236,234,218)" d="M  27,214l 0,-2 -1,-1 0,-2 -1,-1 0,-2 -1,-1 0,-2 -1,-1 0,-3 -1,-1 0,-2 -1,-1 0,-3 -1,1 -1,1 -2,0 -1,-1 0,1 1,1 0,2 1,1 0,2 1,1 0,2 1,1 0,2 1,1 0,2 1,1 0,1 1,1 0,3 1,1 0,1 1,1 0,2 1,1 0,2 1,1 0,2 1,1 0,2 1,1 0,3 1,-1 0,-3 1,-1 1,0 -1,-1 0,-2 -1,-1 0,-3 -1,-1 0,-1 -1,-1 0,-2 -1,-1Z"/>
<path onmouseover="hoverPath(evt)" onmouseout="recoverPath(evt)" fill="rgb(242,241,232)" d="M  34,38l -3,0 0,1 1,1 0,5 1,1 0,3 1,1 0,1 12,0 1,-1 9,0 1,-1 9,0 1,-1 13,0 0,-15 -7,0 -1,1 -8,0 -1,1 -8,0 -1,1 -7,0 -1,1 -8,0 -1,1Z"/>
<path onmouseover="hoverPath(evt)" onmouseout="recoverPath(evt)" fill="rgb(249,202,112)" d="M  43,253l -3,0 0,2 96,0 0,-2 1,-1 1,0 1,-1 3,0 1,1 1,-1 0,-1 1,-1 2,0 1,-1 5,0 1,1 2,0 1,1 1,-1 1,0 1,-1 3,0 1,1 1,-1 0,-1 1,-1 3,0 1,1 0,1 1,0 1,-1 0,-1 1,-1 3,0 1,1 0,1 1,0 1,-1 0,-1 1,-1 2,0 1,1 0,1 1,0 1,-1 1,0 0,-1 1,-1 2,0 1,-1 6,0 1,-1 5,0 1,-1 2,0 1,1 0,2 1,-1 1,0 1,-1 1,0 0,-1 1,-1 2,0 1,1 0,1 2,0 1,-1 4,0 1,1 0,2 1,1 0,3 1,1 0,2 1,1 0,4 2,0 0,-2 -1,-1 0,-2 -1,-1 0,-2 -1,-1 0,-6 1,-1 1,0 0,-1 1,-1 6,0 1,-1 6,0 1,-1 6,0 1,1 1,1 3,0 1,1 0,1 1,1 0,5 1,0 0,-23 -1,1 -1,0 -1,1 -1,0 -1,1 -5,0 -1,1 -5,0 -1,-1 0,1 -1,1 -6,0 -1,1 -6,0 -1,1 -5,0 -1,-1 0,1 -1,1 -5,0 -1,1 -6,0 -1,1 -7,0 -1,-1 0,-1 -1,0 -1,1 0,1 -1,1 -2,0 -1,1 -5,0 -1,-1 0,1 -1,1 -5,0 -1,-1 0,1 -1,1 -4,0 -1,-1 -2,0 -1,-1 -1,0 -1,1 0,0 -1,1 -2,0 -1,-1 -2,0 -1,1 -1,1 -2,0 0,1 -1,1 -5,0 -1,-1 0,1 -1,1 -5,0 -1,1 -6,0 -1,1 -6,0 -1,1 -6,0 -1,1 -6,0 -1,1 -6,0 -1,1 -6,0 -1,1 -6,0 -1,1 -6,0 -1,1 -6,0 -1,-1 0,1 -1,1 -6,0 -1,1 -7,0 -1,-1 0,-1 -1,0 -1,1 0,1 -1,1 -2,0 -1,1 -5,0 -1,-1 -1,0 -1,-1 -1,1 -2,0 -1,1Z"/>
<path onmouseover="hoverPath(evt)" onmouseout="recoverPath(evt)" fill="rgb(243,239,230)" d="M  139,254l -1,0 0,1 85,0 0,-3 -1,-1 0,-2 -1,-1 0,-3 -1,-1 0,-2 -2,0 -1,1 -4,0 -1,-1 0,0 -1,1 -1,0 -1,1 -1,0 -1,1 -2,0 -1,-1 0,-2 -1,1 -5,0 -1,1 -6,0 -1,1 -2,0 0,1 -1,1 -1,0 -1,1 -3,0 -1,-1 0,-1 -1,2 0,0 -1,1 -3,0 -1,-1 0,-1 -1,0 0,1 -1,1 -1,1 -3,0 -1,-1 0,-1 -1,0 0,1 -1,1 -1,1 -2,0 -1,-1 -1,0 -1,1 -1,0 -1,1 -2,0 -1,-1 -2,0 -1,-1 -3,0 -1,1 -2,0 0,1 -1,1 -1,1 -2,0 -1,-1 -1,0 -1,1Z"/>
<path onmouseover="hoverPath(evt)" onmouseout="recoverPath(evt)" fill="rgb(242,240,230)" d="M  222,157l -1,0 0,4 -1,1 -2,0 -1,-1 0,-3 -2,0 0,1 -1,1 1,1 0,0 1,1 1,1 0,1 1,1 1,1 1,0 1,1 0,4 3,0 1,1 0,2 1,1 0,1 1,1 1,1 0,2 -1,1 2,0 1,1 1,1 0,1 2,0 1,1 0,1 1,1 0,3 -1,1 3,0 1,1 0,4 1,1 0,1 2,0 1,1 0,4 2,0 1,1 0,1 1,1 0,4 2,0 1,1 0,1 1,1 0,3 1,1 0,1 4,0 0,-22 -2,0 -1,-1 -1,-1 0,-2 -1,-1 0,-4 -1,-1 0,-6 -1,1 -4,0 -1,-1 0,-2 1,-1 1,0 1,-1 2,0 0,-3 -1,-1 0,0 -1,-1 0,-1 -1,-1 0,-1 -1,-1 0,-1 -1,-1 -1,-1 0,-1 -1,-1 0,-2 -1,-1 -1,-1 0,-2 -1,0 -1,-1 -1,0 -1,1 -12,0 -1,1Z"/>
<path onmouseover="hoverPath(evt)" onmouseout="recoverPath(evt)" fill="rgb(247,237,151)" d="M  237,222l 0,0 1,1 1,0 1,1 3,0 1,-1 5,0 1,-1 1,0 1,-1 1,0 1,-1 -4,0 -1,-1 0,-1 -1,-1 0,-3 -1,-1 0,-1 -2,0 -1,-1 0,-4 -1,-1 0,-1 -2,0 -1,-1 0,-4 -2,0 -1,-1 0,-1 -1,-1 0,-4 -4,0 -1,-1 0,-2 1,-1 1,0 0,-1 -1,-1 0,-1 -2,0 -1,-1 0,-1 -1,-1 -2,0 -1,-1 0,-2 1,-1 -1,-1 0,0 -1,-1 0,-1 -1,-1 0,-2 -3,0 -1,-1 0,-4 -1,0 -1,-1 -1,-1 -1,-1 0,-1 -1,-1 -1,-1 -1,-1 0,-2 1,-1 0,-1 1,-1 -3,0 -1,-1 -1,-1 0,-2 1,-1 -1,0 -1,-1 0,0 -1,-1 0,-1 -1,-1 0,-1 -1,-1 0,-1 -2,0 -1,-1 0,-1 -1,-1 0,-1 -1,-1 -1,-1 0,-1 -1,-1 0,-2 1,-1 -2,0 -1,-1 0,-4 -1,-1 0,-1 -1,-1 0,-2 1,-1 1,-1 0,-1 -1,-1 0,0 -1,1 -2,0 -1,-1 0,-1 -1,-1 0,-1 -1,-1 0,-1 -1,-1 0,-2 -1,-1 0,-1 -1,-1 0,-2 -1,-1 0,-1 -1,-1 0,-2 -1,-1 0,-1 -1,-1 0,-2 -1,-1 0,-4 -2,0 -1,-1 0,-1 -1,-1 0,-2 -1,-1 0,-2 -1,-1 0,-6 -1,-1 0,-1 -1,-1 0,-2 -1,0 -1,-1 0,-3 1,-1 1,-1 -4,0 -1,-1 0,-2 1,-1 0,-2 1,-1 -1,0 -1,-1 -2,0 -1,-1 0,-2 -1,-1 0,-2 -1,-1 0,-2 1,-1 0,-2 1,-1 -1,0 -1,-1 0,0 -1,-1 0,-2 -1,-1 0,-3 1,-1 -1,-1 0,-2 -1,0 -1,-1 -2,0 -1,-1 0,-2 -1,-1 0,-2 1,-1 2,0 -1,-1 0,-1 -1,-1 0,-2 -1,-1 0,-5 1,-1 3,0 1,-1 3,0 1,-1 3,0 1,-1 2,0 1,-1 3,0 1,-1 1,0 1,-1 4,0 1,-1 2,0 1,-1 3,0 1,-1 3,0 1,-1 9,0 0,-2 -33,0 0,4 -1,1 -2,0 -1,-1 -1,0 -1,1 -3,0 -1,1 -2,0 -1,1 -4,0 -1,1 -2,0 -1,1 -2,0 -1,1 -3,0 -1,1 -3,0 -1,1 -2,0 -1,1 -3,0 -1,1 -5,0 0,1 -1,1 -1,1 -3,0 -1,-1 -1,1 -2,0 -1,1 -2,0 -1,1 -3,0 -1,1 -2,0 -1,1 -4,0 -1,1 -3,0 -1,1 -5,0 -1,1 -5,0 -1,1 -2,0 -1,-1 0,-1 -1,-1 -1,-1 0,-1 -1,0 -1,-1 -1,-1 -1,-1 0,-1 -1,0 4,5 0,0 1,1 0,2 -1,1 -5,0 -1,1 -7,0 -1,1 -8,0 -1,1 -8,0 -1,1 -8,0 -1,1 -8,0 -1,-1 0,-1 -1,-1 0,-4 -1,-1 0,-6 -1,-1 0,-3 -1,-1 0,-4 -1,-1 0,-6 -2,0 0,2 1,1 0,3 1,1 0,4 1,1 0,3 -1,1 -1,1 -1,0 -1,1 4,0 1,1 0,4 1,1 0,6 -1,1 -4,0 -1,1 -7,0 -1,1 -12,0 0,7 3,0 1,1 0,-1 1,-1 6,0 1,-1 7,0 1,-1 6,0 0,-1 1,-1 3,0 1,1 5,0 1,-1 8,0 1,-1 7,0 1,-1 8,0 1,-1 8,0 1,-1 9,0 1,1 0,-1 1,-1 5,0 1,-1 6,0 1,-1 3,0 1,-1 4,0 1,-1 3,0 1,-1 2,0 1,-1 3,0 1,-1 2,0 1,-1 3,0 1,-1 3,0 1,-1 3,0 1,-1 2,0 1,-1 3,0 1,-1 3,0 1,-1 2,0 1,-1 3,0 1,1 0,2 1,1 0,3 1,1 0,1 1,1 0,2 -1,1 -1,0 0,1 2,0 1,1 0,2 1,1 0,3 -1,1 1,1 0,3 2,0 1,1 1,0 1,1 0,2 -1,1 0,1 2,0 1,1 0,3 -1,1 1,1 0,2 1,1 0,3 -1,1 1,1 1,0 1,1 0,2 -1,1 0,1 1,1 0,1 1,1 0,1 1,1 1,1 0,1 1,1 0,3 2,0 1,1 0,1 1,1 0,2 1,1 0,2 1,1 0,2 1,1 0,1 1,1 0,2 -1,1 0,1 -1,1 1,0 1,1 0,2 1,1 0,2 1,1 0,2 1,1 0,1 1,1 0,1 1,1 0,2 1,1 0,1 1,1 0,1 2,0 1,1 0,2 -1,1 0,1 1,1 0,2 3,0 1,1 0,1 1,1 0,1 1,1 0,2 -1,1 -1,0 1,1 3,0 1,1 0,2 -1,1 0,2 1,1 0,2 1,1 0,1 2,0 1,1 0,1 1,1 0,2 1,0 1,1 0,1 1,1 0,1 1,1 0,1 1,1 0,1 1,1 1,0 1,1 0,5 1,1 1,0 1,1 0,1 1,0 1,1 0,4 1,1 0,1 1,1 0,1 1,1 0,1 1,1 1,1 0,1 1,1 0,1 1,1 1,1 0,1 1,1 0,1 1,1 1,1 0,1 1,1 0,1 1,1 1,1 0,1 1,1 0,1 1,1 1,1 0,1 1,1 0,1 1,1 0,1 1,1 1,1 0,1 1,1 0,1 1,1 1,1 0,1 1,1 0,1 1,1 0,3 -1,1 -2,0 0,1 1,1 -155,-178 0,4 1,-1Z"/>
<path onmouseover="hoverPath(evt)" onmouseout="recoverPath(evt)" fill="rgb(242,240,230)" d="M  241,6l 0,1 1,1 1,1 1,-1 0,0 1,-1 1,0 1,-1 1,0 1,-1 1,-1 1,0 1,-1 1,-1 2,0 0,-2 -51,0 0,2 1,0 1,1 3,0 1,1 0,2 -1,1 -1,0 0,4 1,1 0,4 1,1 0,4 1,1 0,4 1,1 0,3 1,0 1,-1 0,0 1,-1 1,0 1,-1 1,-1 1,-1 1,-1 1,-1 1,-1 1,-1 1,-1 2,0 1,1 1,-1 1,0 -1,-1 0,-2 1,-1 1,-1 1,-1 1,0 1,-1 1,0 1,-1 1,-1 1,-1 0,-4 1,-1 2,0 1,1Z"/>
<path onmouseover="hoverPath(evt)" onmouseout="recoverPath(evt)" fill="rgb(251,250,248)" d="M  1,183l -1,0 0,4 1,0 1,-1 3,0 1,-1 2,0 1,-1 0,-1 1,-1 1,-1 2,0 1,-1 5,0 1,1 0,1 1,1 0,3 1,1 0,3 1,1 0,3 1,1 0,2 1,1 0,3 1,1 0,2 1,1 0,2 1,1 0,2 1,1 0,3 1,1 0,2 1,1 0,1 1,1 0,3 1,1 0,2 1,1 0,3 1,1 0,2 1,1 0,3 -1,1 0,1 2,0 1,1 0,5 1,0 1,-1 0,-1 -1,-1 0,-2 -1,-1 0,-2 -1,-1 0,-3 -1,-1 0,-2 -1,-1 0,-2 -1,-1 0,-3 -1,-1 0,-2 -1,-1 0,-4 1,-1 1,0 1,-1 2,0 1,-1 4,0 1,-1 4,0 1,-1 4,0 1,-1 4,0 1,-1 4,0 1,-1 3,0 1,-1 2,0 1,-1 1,0 0,-2 -1,-1 0,1 -1,1 0,0 -1,1 -1,0 -1,1 -4,0 -1,1 -3,0 -1,1 -4,0 -1,1 -5,0 -1,1 -3,0 -1,1 -4,0 -1,1 -6,0 -1,-1 0,-2 1,-1 -2,0 -1,-1 0,-2 -1,-1 0,-3 -1,-1 0,-3 -1,-1 0,-2 -1,-1 0,-3 -1,-1 0,-2 -1,-1 0,-3 -1,-1 0,-4 1,-1 0,-1 -2,0 -1,-1 0,-3 -1,-1 0,-2 -1,-1 0,-4 -1,-1 0,-2 -1,-1 0,-3 -1,-1 0,-3 -1,-1 0,-3 -1,-1 0,-3 -1,-1 0,-7 1,-1 4,0 1,-1 -3,0 -3,1 -1,-1 0,-2 1,-1 1,-1 -3,0 -1,-1 0,-1 -1,-1 0,-5 1,-1 2,0 1,-1 5,0 1,-1 7,0 1,-1 5,0 1,-1 5,0 1,-1 5,0 0,-1 -5,0 -1,1 -5,0 -1,1 -5,0 -1,1 -7,0 -1,1 -10,0 -1,-1 0,-4 1,-1 0,-1 -2,0 -1,-1 0,-5 -1,-1 0,-3 -1,-1 0,-3 -1,0 0,42 3,0 1,1 1,1 0,2 1,1 0,2 1,1 0,-1 -1,-3 0,-2 1,-1 2,0 1,1 0,2 1,1 0,3 1,1 0,3 1,1 0,3 1,1 0,3 1,1 0,3 1,1 0,2 1,1 0,3 1,1 0,4 -1,1 -1,0 -1,1 -1,0 -1,1 -3,0 -1,1 -2,0 -1,1 -3,0 -1,1Z"/>
<path onmouseover="hoverPath(evt)" onmouseout="recoverPath(evt)" fill="rgb(243,241,232)" d="M  0,191l 0,58 1,0 1,-1 5,0 1,-1 7,0 1,-1 6,0 1,-1 6,0 1,-1 6,0 0,-3 -2,0 -1,-1 0,-3 1,-1 0,-1 -1,-1 0,-2 -1,-1 0,2 -1,1 -1,1 -2,0 -1,-1 0,-3 -1,-1 0,-2 -1,-1 0,-2 -1,-1 0,-2 -1,-1 0,-2 -1,-1 0,-1 -1,-1 0,-3 -1,-1 0,-1 -1,-1 0,-2 -1,-1 0,-2 -1,-1 0,-2 -1,-1 0,-2 -1,-1 0,-2 -1,-1 0,-2 -1,-1 0,-2 1,-1 1,0 1,-1 2,0 1,1 1,0 0,-1 -1,-1 0,-3 -1,-1 0,-1 -3,0 -1,1 -2,0 -1,1 0,1 -2,2 -2,0 -1,1 -3,0 -1,1 -2,0Z"/>
<path onmouseover="hoverPath(evt)" onmouseout="recoverPath(evt)" fill="rgb(250,249,246)" d="M  5,71l -2,0 -1,1 -2,0 0,5 5,0 1,-1 10,0 1,-1 6,0 1,-1 9,0 1,1 0,3 1,1 0,4 1,1 0,2 1,-1 0,-1 -1,-1 0,-6 -1,-1 0,-5 -1,-1 0,-5 -1,-1 0,-9 1,-1 3,0 1,-1 -5,0 -1,-1 0,-1 -1,-1 0,-3 -1,-1 0,-5 -1,-1 0,-3 -1,0 0,3 1,1 0,6 1,1 0,4 -1,1 -1,1 -1,0 -1,1 4,0 1,1 0,3 1,1 0,4 1,1 0,7 -1,1 -3,0 -1,-1 -3,0 -1,-1 -1,0 -1,-1 -2,0 -1,-1 -3,0 -1,1 -5,0 -1,1Z"/>
<path onmouseover="hoverPath(evt)" onmouseout="recoverPath(evt)" fill="rgb(239,237,224)" d="M  11,155l 0,0 -1,-1 0,-3 -1,-1 0,-3 -1,-1 0,-2 1,7 0,1 -1,1 -2,0 -1,-1 0,-2 -1,-1 0,-2 -1,-1 0,-2 -1,-1 -2,0 0,38 1,0 1,-1 3,0 1,-1 2,0 1,-1 3,0 1,-1 1,0 1,-1 1,0 0,-2 -1,-1 0,-3 -1,-1 0,-2 -1,-1 0,-3 -1,-1 0,-3 -1,-1Z"/>
<path onmouseover="hoverPath(evt)" onmouseout="recoverPath(evt)" fill="rgb(244,243,235)" d="M  157,15l 0,2 1,1 0,2 1,1 0,1 1,1 0,2 -1,1 -2,0 1,1 0,2 2,0 1,1 1,0 1,1 0,2 1,1 0,2 -1,1 0,1 1,1 0,2 1,1 1,0 1,1 0,2 -1,1 0,2 -1,1 1,1 0,2 1,1 0,2 2,0 1,1 1,0 1,1 0,2 -1,1 0,2 -1,1 4,0 1,-1 3,0 1,-1 3,0 1,-1 3,0 1,-1 4,0 1,1 1,0 0,-2 1,-1 2,0 1,-1 3,0 1,-1 2,0 1,-1 1,0 1,-1 1,0 -1,-1 0,-3 -1,-1 0,-5 -1,-1 0,-5 -1,-1 0,-4 -1,-1 0,-4 -1,-1 0,-4 -1,-1 0,-4 -1,-1 0,-5 -1,-1 0,-1 -1,-1 0,-1 -1,-1 0,-2 -2,0 -1,1 -3,0 -1,1 -3,0 -1,1 -2,0 -1,1 -4,0 -1,1 -1,0 -1,1 -3,0 -1,1 -2,0 -1,1 -3,0 -1,1 -3,0 -1,1 -2,0 -1,1Z"/>
<path onmouseover="hoverPath(evt)" onmouseout="recoverPath(evt)" fill="rgb(179,203,238)" d="M  177,79l 0,2 1,1 0,2 1,1 0,2 1,1 0,1 2,0 1,1 4,0 1,-1 25,0 1,-1 26,0 1,-1 14,0 0,-12 -4,0 -1,1 -23,0 -1,1 -4,0 -1,-1 -2,0 -1,-1 0,-1 -1,-1 0,-1 -1,-1 0,-3 -1,-1 0,-2 -1,-1 0,-3 -1,-1 0,-3 -1,-1 0,-2 1,-1 -1,0 -1,-1 0,-2 -1,-1 0,-4 1,-1 0,-1 1,-1 0,-1 1,-1 1,-1 1,-1 1,-1 1,-1 2,-2 1,-1 1,-1 1,-1 1,-1 1,-1 1,-1 1,-1 1,-1 1,-1 1,-1 1,-1 1,0 1,-1 1,-1 1,-1 1,0 1,-1 0,-1 1,-1 2,0 1,-1 0,-1 1,-1 2,0 1,1 1,1 1,1 0,1 1,1 1,1 1,1 -2,-3 0,-1 -2,-2 0,-2 1,-1 2,0 1,-1 1,-1 1,0 1,-1 3,0 0,-5 -1,0 -1,1 -1,1 -1,0 -1,1 -1,1 -1,0 -1,1 -1,0 -1,1 -1,1 -2,0 -1,-1 -2,-2 0,3 -1,1 -1,1 -1,1 -1,1 -1,0 -1,1 -1,0 -1,1 -1,1 1,1 0,2 -1,1 -1,0 -1,1 -2,0 -1,-1 -1,1 -1,1 -1,1 -2,2 -1,1 -2,2 -1,0 -2,2 -3,0 -1,-1 0,-3 -1,-1 0,-4 -1,-1 0,-4 -1,-1 0,-4 -1,-1 0,-6 1,-1 -2,0 -1,-1 -6,0 0,1 1,1 0,1 1,1 0,1 1,1 0,5 1,1 0,4 1,1 0,4 1,1 0,4 1,1 0,4 1,1 0,5 1,1 0,5 1,1 0,3 1,1 0,2 -1,1 -1,0 -1,1 3,0 1,1 0,3 1,1 0,3 1,1 0,3 1,1 0,3 1,1 0,2 -1,1 -1,1 -6,0 -1,1 -21,0 -1,1Z"/>
<path onmouseover="hoverPath(evt)" onmouseout="recoverPath(evt)" fill="rgb(213,222,231)" d="M  189,135l 0,0 1,1 0,1 1,1 0,1 1,1 0,3 1,1 1,1 0,4 1,1 0,3 1,1 0,2 1,1 0,3 1,1 0,2 1,1 0,1 1,1 0,4 1,1 0,-1 -1,-5 -1,-2 0,-2 -1,-1 0,-2 -1,-2 0,-2 -1,-1 0,-2 -1,-2 0,-3 -1,-2 -1,-1 0,-2 -1,-2 0,-3 1,-1 -4,0 -2,-4 1,0 1,-1 1,0 -1,-1 0,-1 -1,-1 0,-1 -3,0 -1,-1 0,-2 -1,-1 0,-3 1,-1 -2,0 -1,-1 0,-1 -1,-1 0,-1 -1,-1 0,-2 -1,-1 0,-1 -1,-1 0,-1 -1,-1 0,-2 -1,-1 0,-2 -1,-1 0,-2 -1,0 -1,-1 0,-2 1,-1 0,-1 1,-1 -8,0 0,1 1,1 0,0 1,1 0,1 1,1 0,1 1,1 1,1 0,1 1,1 0,1 1,1 1,1 0,1 1,1 1,1 0,1 1,1 0,1 1,1 0,-1 -1,-2 -1,-2 11,24 2,4 -10,-21 0,1 1,1 1,2 1,1 0,3 -1,1 0,1 1,0 1,1 0,2 1,1 1,1 0,1 1,0 -7,-16 10,21Z"/>
<path onmouseover="hoverPath(evt)" onmouseout="recoverPath(evt)" fill="rgb(244,242,235)" d="M  191,62l 0,0 -1,-1 -2,0 -1,1 -3,0 -1,1 -3,0 -1,1 -3,0 0,2 -1,1 -1,0 -1,1 0,1 1,0 1,1 0,2 1,1 0,1 1,1 0,2 5,0 1,-1 21,0 1,-1 6,0 1,-1 -1,-1 0,-3 -1,-1 0,-3 -1,-1 0,-3 -1,-1 0,-3 -4,0 -1,-1 -1,0 -1,1 -3,0 -1,1 -2,0 0,2 -1,1Z"/>
<path onmouseover="hoverPath(evt)" onmouseout="recoverPath(evt)" fill="rgb(244,243,236)" d="M  199,151l 0,0 -1,-1 0,2 1,1 0,3 1,1 0,2 1,1 0,3 1,1 0,4 1,1 0,3 1,1 0,1 1,1 0,3 1,1 0,1 1,1 0,2 1,1 0,2 1,1 0,2 1,1 0,3 1,1 0,2 1,1 0,2 1,1 0,2 1,1 0,2 1,1 0,2 1,1 0,2 1,1 0,2 1,1 0,3 1,1 0,2 2,0 1,-1 5,0 1,-1 6,0 1,-1 2,0 0,-1 -1,-1 0,-1 -1,-1 0,-1 -1,-1 -1,-1 0,-1 -1,-1 0,-1 -1,-1 -1,-1 0,-1 -1,-1 0,-1 -1,-1 0,-1 -1,-1 -1,-1 0,-1 -1,-1 0,-1 -1,-1 -1,-1 0,-1 -1,-1 0,-1 -1,-1 -1,-1 0,-1 -1,-1 0,-1 -1,-1 -1,-1 0,-1 -1,-1 0,-1 -1,-1 -1,-1 0,-1 -1,-1 0,-1 -1,-1 0,-1 -1,-1 0,-4 -1,0 -1,-1 0,-1 -1,0 -1,-1 -1,-1 0,-5 -1,0 -1,-1 -1,-1 0,-1 -1,-1 0,-1 -1,-1 0,-1 -1,-1 -1,-1 -1,-2 0,-1 -1,-1 0,2 1,0 1,2Z"/>
</svg>