<svg width="256" height="256" xmlns="http://www.w3.org/2000/svg"><script> 
var tempColor;
function hoverPath(evt){
obj = evt.target;
tempColor = obj.getAttribute("fill");
obj.setAttribute("fill","red");
//alert(tempColor);
//obj.setAttribute("stroke","red");}
function recoverPath(evt){
obj = evt.target;
obj.setAttribute("fill", tempColor);
//obj.setAttribute("stroke", tempColor);
}</script><path onmouseover="hoverPath(evt)" onmouseout="recoverPath(evt)" fill="rgb(244,242,235)" d="M  13,181l -1,0 0,1 -2,2 0,1 -1,1 -1,1 -1,1 -1,0 0,2 -1,1 -1,1 -1,1 0,1 -1,1 -2,0 0,15 3,0 1,1 1,0 1,1 2,0 1,1 1,0 1,1 1,0 1,1 1,0 1,1 1,1 1,0 1,1 1,1 1,0 1,1 1,1 1,1 1,1 1,0 1,1 1,1 1,1 1,1 1,1 1,1 1,1 1,1 0,1 1,1 1,1 1,1 1,1 0,1 1,1 1,1 1,1 0,1 1,1 1,1 1,1 1,1 0,1 1,1 1,1 1,1 0,1 1,1 1,1 0,1 1,1 0,1 28,0 0,-2 1,-1 0,-4 1,-1 1,-1 2,0 1,-1 0,-4 1,-1 1,-1 2,0 1,-1 1,-1 0,-1 1,-1 1,-1 0,-4 1,-1 1,-1 2,0 1,-1 0,-4 1,-1 2,0 1,-1 -3,0 -1,-1 -4,0 -1,-1 0,-2 1,-1 9,0 1,1 1,-1 0,0 1,-1 0,-1 1,-1 1,-1 0,-1 1,-1 1,-1 0,-1 1,-1 1,0 0,-1 -1,-1 0,-2 1,-1 2,0 1,-1 0,-1 1,-1 0,-1 1,-1 1,-1 0,-1 1,-1 1,-1 0,-1 1,-1 1,-1 0,-1 -2,0 -1,-1 -2,0 -1,-1 -2,0 -1,-1 0,-2 1,-1 5,0 1,1 1,0 1,1 3,0 0,-1 -1,-1 -4,0 -106,-2 5,0 1,-1 1,-1 0,0 -6,2 -1,0 7,-3 0,-3 1,-1 -1,4 -7,3 8,-8 0,-1 1,-1 -1,2 -8,8 9,-11 0,-1 1,-1 -1,2 -9,11 10,-14 0,-2 1,-1 -1,3 -10,14 102,0 0,-1 1,-1 10,0 1,1 1,-1 1,-1 0,-1 2,-2 0,-1 1,-1 2,0 -1,-1 0,-6 1,-1 1,-1 -1,-1 -1,-1 -1,0 -1,-1 0,-2 -2,0 -1,-1 -2,0 -1,-1 -2,0 -1,-1 -2,0 -1,-1 -1,0 -1,-1 -1,0 -1,-1 -2,0 -1,-1 -1,0 -1,-1 -1,0 -1,-1 -2,0 -1,-1 -1,0 -1,-1 -2,0 -1,-1 -1,0 -1,-1 -1,0 -1,-1 -1,0 -1,-1 -1,0 -1,-1 -1,0 -1,-1 -1,0 -1,-1 -1,0 -1,-1 -1,0 -1,-1 -1,0 -1,-1 -1,0 -1,-1 -1,-1 -1,0 -1,-1 -1,0 -1,-1 -1,0 -1,-1 -1,0 -1,-1 -1,-1 -2,0 -1,-1 -1,-1 -1,0 -1,-1 -1,0 -1,-1 -1,0 -1,-1 -1,0 -1,-1 -1,0 -1,-1 -1,-1 -1,0 -1,-1 -1,0 -1,-1 -1,0 -1,-1 -2,0 -1,-1 -1,0 -1,-1 -1,0 -1,-1 -1,-1 -1,0 -1,-1 -1,-1 0,-3 1,-1 3,0 1,1 0,-1 1,-1 1,-1 0,-2 -1,-1 -2,0 -1,-1 -7,0 0,6 -1,1 0,2 -1,1 -2,0 0,25 -1,1 0,4 -1,1 0,3 -1,1 0,2 -1,1 0,3 -1,1 0,3 -1,1 0,2 91,19 -102,0 13,4 1,-1 2,0 1,1 0,2 -1,1 -2,0 -1,-1 0,-2 -13,-4Z"/>
<path onmouseover="hoverPath(evt)" onmouseout="recoverPath(evt)" fill="rgb(238,238,231)" d="M  83,56l 0,2 -1,1 0,2 -1,1 -4,0 0,3 -1,1 0,6 -1,1 0,4 -1,1 0,4 1,1 0,6 23,0 1,1 1,0 1,1 0,3 1,0 1,1 1,1 0,-2 1,-1 2,0 1,1 0,2 1,1 0,2 1,-1 2,-2 1,0 3,-3 1,0 0,-1 1,-1 1,0 1,-1 1,-1 1,-1 0,-3 -1,-1 0,0 -1,-1 0,-7 1,-1 0,-3 1,-1 1,-1 0,-1 1,-1 0,-2 -1,0 -1,-1 0,-1 -1,0 -1,-1 -1,0 -1,-1 -1,0 -1,1 -2,0 -1,-1 0,-2 -1,0 -1,-1 -1,0 -1,-1 -1,0 0,1 -1,1 0,2 -1,1 -2,0 -1,-1 0,-6 -1,-1 -1,0 -1,-1 -2,0 -1,-1 0,-5 -3,0 -1,-1 -1,0 -1,-1 0,-3 1,-1 2,0 0,-1 -1,0 -1,-1 0,-1 -2,0 -1,-1 0,-2 -3,0 -1,-1 -1,1 0,1 -1,1 -4,0 0,3 -1,1 -1,1 -1,0 0,3 -1,1 -2,0 -1,1 -1,1 0,2 5,0 1,1 0,1 1,1 4,0 1,1Z"/>
<path onmouseover="hoverPath(evt)" onmouseout="recoverPath(evt)" fill="rgb(241,240,232)" d="M  0,97l 0,96 1,0 0,-1 1,-1 1,-1 1,-1 0,-2 1,-1 1,0 1,-1 1,-1 0,-1 1,-1 1,-1 0,-1 1,-1 1,0 -1,-1 0,-2 1,-1 2,0 1,-1 0,-1 1,-1 0,-2 1,-1 0,-3 1,-1 0,-4 1,-1 0,-2 1,-1 0,-3 1,-1 0,-3 1,-1 0,-3 1,-1 0,-2 1,-1 0,-4 1,-1 0,-17 1,-1 2,0 0,-6 1,-1 2,0 0,-1 -2,0 -1,-1 -4,0 -1,-1 0,-5 1,-1 2,0 0,-3 -1,0 -1,-1 -4,0 -1,-1 -1,1 -2,0 0,1 -1,1 -2,0 -1,1 -2,0 -1,-1 -1,0 -1,-1 0,-2 -1,-1 -1,1 -2,0 -1,-1 0,-2 -2,0Z"/>
<path onmouseover="hoverPath(evt)" onmouseout="recoverPath(evt)" fill="rgb(240,239,231)" d="M  26,105l -1,0 0,3 4,0 1,1 2,0 0,-6 1,-1 7,0 0,-1 -1,-1 0,-7 -1,-1 0,-7 1,-1 0,-1 1,-1 1,0 0,-1 1,-1 0,-1 1,-1 2,0 0,-2 1,-1 1,0 1,-1 8,0 0,-1 1,-1 0,-4 1,-1 0,-5 1,-1 0,-4 1,-1 0,-2 1,-1 0,-2 1,-1 0,-2 1,-1 0,-2 1,-1 0,-1 1,-1 2,0 1,1 0,4 -1,1 0,2 2,0 0,-2 1,-1 1,-1 1,-1 2,0 0,-3 -1,0 -1,-1 -1,0 -1,-1 -2,0 -1,-1 -1,0 -1,-1 -1,0 -1,-1 -2,0 -1,-1 -1,0 -1,-1 -1,0 -1,-1 -1,0 -1,-1 -1,0 -1,-1 -1,0 -1,-1 -1,0 -1,-1 -2,0 -1,-1 -1,0 -1,-1 -1,0 -1,-1 -1,0 -1,-1 -1,0 -1,-1 -1,0 -1,-1 -3,0 0,2 -1,1 -1,1 -2,0 -1,-1 0,-3 1,-1 0,-2 -1,0 -1,-1 -1,0 -1,-1 -1,0 -1,-1 -2,0 -1,-1 -2,0 0,3 -1,1 -1,1 -2,0 -1,-1 0,-3 1,-1 0,-3 -2,0 -1,-1 -1,0 -1,-1 -1,0 -1,-1 -2,0 -1,-1 -1,-1 -2,0 0,80 3,0 1,1 1,0 1,1 1,0 1,1 2,0 0,-1 1,-1 0,-1 1,-1 0,-1 1,-1 0,-1 1,-1 0,-1 1,-1 0,-1 1,-1 0,-1 1,-1 0,-1 1,-1 0,-1 1,-1 0,-1 1,-1 0,-1 1,-1 0,-1 1,-1 2,0 1,1 1,1 0,3 -1,1 0,1 -1,1 0,1 -1,1 0,1 -1,1 0,1 -1,1 0,1 -1,1 0,1 -1,1 0,1 -1,1 0,1 -1,1 0,1 -1,1 0,1 -1,1 0,2 1,1 1,0 1,-1 2,0 1,1 4,0 1,1 1,0 1,1 0,5 -1,1 -1,0 1,-76 1,0 1,1 0,2 -1,1 -2,0 -1,-1 0,-2 1,-1 1,0 -1,76 -14,-80 1,1 0,2 -1,1 -2,0 -1,-1 0,-2 1,-1 2,0 14,80 -22,-65 0,-2 1,-1 2,0 1,1 0,2 -1,1 -2,0 -1,-1 22,65 19,-40 -2,0 -1,-1 0,-2 1,-1 0,-1 1,-1 2,0 1,1 0,2 -1,1 0,1 -1,1 -19,40 -9,-49 -1,-1 0,-2 1,-1 2,0 1,1 0,2 -1,1 -2,0 9,49Z"/>
<path onmouseover="hoverPath(evt)" onmouseout="recoverPath(evt)" fill="rgb(234,233,225)" d="M  98,46l 0,0 1,1 0,1 2,0 1,1 1,0 1,1 1,0 1,1 1,0 1,1 1,0 1,1 1,0 1,1 2,0 0,-1 1,-1 0,-3 1,-1 1,-1 0,-1 1,-1 0,-1 1,-1 0,-1 1,-1 0,-2 1,-1 0,-1 1,-1 0,-1 1,-1 0,-2 1,-1 0,-1 1,-1 0,-1 1,-1 0,-2 1,-1 0,-1 1,-1 0,-1 1,-1 0,-1 1,-1 0,-1 1,-1 0,-2 1,-1 0,-2 1,-1 0,-1 1,-1 0,-1 1,-1 0,-1 1,-1 0,-2 1,-1 0,-1 -57,0 0,5 -1,1 0,3 1,-1 0,-1 1,-1 0,-1 1,-1 2,0 1,1 0,4 1,1 0,2 -1,1 -2,0 -1,1 -1,1 0,1 1,0 1,1 1,0 1,1 0,2 -1,1 -5,0 0,2 1,1 1,0 1,1 1,0 1,1 0,2 -1,1 -3,0 -1,-1 -1,0 0,1 -1,1 0,2 1,0 1,1 3,0 1,1 1,-1 2,0 1,1 3,0 1,1 0,2 2,0 1,1 0,1 1,0 1,1 0,3 -1,1 -2,0 0,1 1,0 1,1Z"/>
<path onmouseover="hoverPath(evt)" onmouseout="recoverPath(evt)" fill="rgb(243,242,233)" d="M  107,224l 0,0 -1,1 -1,0 -1,1 0,1 -1,1 -1,1 -1,1 0,1 -1,1 -1,1 -1,1 0,1 -1,1 -1,1 0,2 -1,1 -1,0 -1,1 0,1 -1,1 -1,1 0,2 -1,1 -1,0 -1,1 0,1 -1,1 -1,1 0,1 -1,1 0,2 44,0 0,-22 1,-1 2,0 0,-1 -1,-1 0,-2 1,-1 0,-1 -1,0 -1,-1 -3,0 -1,-1 -9,0 -1,-1 -8,0 -1,1Z"/>
<path onmouseover="hoverPath(evt)" onmouseout="recoverPath(evt)" fill="rgb(244,243,236)" d="M  151,169l 0,0 -1,-1 0,1 -1,1 -1,1 0,1 -1,1 0,3 -1,1 0,5 1,0 1,1 0,2 -1,1 -1,0 0,2 1,1 0,4 1,1 0,11 -1,1 0,4 -1,1 0,4 -1,1 0,1 1,1 1,1 1,1 0,1 1,1 0,6 1,1 0,7 1,1 0,8 1,1 0,4 1,1 0,4 30,0 0,-7 1,-1 0,-2 1,-1 0,-1 1,-1 0,-6 -1,-1 0,-3 -1,-1 0,-2 -1,-1 0,-2 -1,-1 0,-2 -1,-1 0,-2 -1,-1 0,-3 -1,-1 0,-9 1,-1 0,-1 1,-1 0,-1 3,-3 1,-1 1,0 1,-1 1,-1 1,0 3,-3 1,0 1,-1 1,0 1,-1 1,0 1,-1 2,0 1,-1 1,0 1,-1 1,0 1,-1 1,0 1,-1 1,0 1,-1 1,0 1,-1 1,0 1,-1 -2,0 -1,-1 -3,0 -1,-1 -3,0 -1,-1 -3,0 -1,-1 -3,0 -1,-1 -3,0 -1,-1 -3,0 -1,-1 -4,0 -1,-1 -3,0 -1,-1 -4,0 -1,-1 -3,0 -1,-1 -4,0 -1,-1 -3,0 -1,-1 -4,0 -1,-1Z"/>
<path onmouseover="hoverPath(evt)" onmouseout="recoverPath(evt)" fill="rgb(246,234,141)" d="M  150,161l 0,0 -1,1 0,1 1,1 0,2 1,0 1,1 3,0 1,1 4,0 1,1 3,0 1,1 4,0 1,1 3,0 1,1 4,0 1,1 3,0 1,1 4,0 1,1 3,0 1,1 3,0 1,1 3,0 1,1 3,0 1,1 3,0 1,1 3,0 1,1 1,0 1,-1 3,0 1,1 3,0 1,1 1,0 1,1 0,1 3,0 1,1 3,0 1,1 3,0 1,1 3,0 1,1 3,0 1,1 0,1 1,-2 3,0 1,1 0,1 1,0 1,1 4,0 0,-8 -6,0 -1,-1 0,-2 -1,1 -3,0 -1,-1 -2,0 -1,-1 -3,0 -1,-1 -4,0 -1,-1 -2,0 -1,1 -2,0 -1,-1 -1,0 -1,-1 0,-1 -3,0 -1,-1 -2,0 -1,-1 -4,0 -1,-1 -3,0 -1,-1 -3,0 -1,-1 -3,0 -1,-1 -3,0 -1,-1 -3,0 -1,-1 -4,0 -1,-1 -3,0 -1,-1 -4,0 -1,-1 -3,0 -1,-1 -2,0 -1,-1 0,-4 -3,0 -1,-1 -2,0 -1,-1 -3,0 -1,-1 0,-2 -1,0 -1,-1 0,-3 1,-1 -1,-1 -2,0 0,1 -1,1 0,1 -1,1 0,2 -1,1 0,1 -1,1 0,2 -1,1Z"/>
<path onmouseover="hoverPath(evt)" onmouseout="recoverPath(evt)" fill="rgb(173,198,233)" d="M  212,33l -2,0 -1,1 -2,0 0,1 -1,1 0,1 -1,1 1,1 0,3 -1,1 0,1 -1,1 0,1 -1,1 0,1 -1,1 0,2 -1,1 0,3 1,0 1,1 1,1 1,1 1,1 1,1 1,1 1,1 1,1 1,1 1,1 1,1 1,1 1,1 2,2 1,1 0,1 1,1 1,1 0,1 1,1 1,1 1,1 0,2 1,1 0,7 -1,1 -1,1 4,0 0,-3 1,-1 0,-6 -1,-1 0,-2 -1,-1 -1,-1 0,-1 -1,-1 -1,-1 0,-1 -1,-1 -1,-1 -1,-1 -1,-1 -1,-1 -1,-1 -1,0 -1,-1 -1,-1 -1,-1 -1,-1 -1,-1 -1,-1 -1,-1 0,-1 -1,-1 0,-1 -1,-1 0,-7 1,-1 0,-1 1,-1 0,-1 1,-1 0,-1 1,-1 0,-1 1,-1 1,-1 1,-1 1,-1 1,-1 1,-1 1,0 1,-1 1,0 1,-1 2,0 1,-1 3,0 1,-1 3,0 1,-1 2,0 1,-1 3,0 1,-1 3,0 1,-1 3,0 1,-1 3,0 1,-1 2,0 1,-1 2,0 0,-3 -1,0 -1,1 -2,0 -1,1 -1,0 -1,1 -2,0 -1,1 -3,0 -1,1 -3,0 -1,1 -3,0 -1,1 -3,0 -1,1 -3,0 -1,1 -4,0 -1,1 -2,0 -1,1 -3,0 0,1 -1,1 -1,1Z"/>
<path onmouseover="hoverPath(evt)" onmouseout="recoverPath(evt)" fill="rgb(247,202,111)" d="M  214,1l 0,1 -1,1 -1,1 -1,1 0,1 -1,1 -2,2 0,1 -2,2 -1,1 0,1 -1,1 0,1 -1,1 -1,1 0,1 -1,1 0,1 -1,1 0,1 -1,1 0,1 -1,1 0,1 -1,1 0,1 -1,1 0,1 -1,1 -2,0 1,1 0,2 -1,1 0,1 -1,1 0,2 -1,1 -2,0 1,1 0,2 -1,1 -1,1 0,3 -1,1 0,1 -1,1 0,1 -1,1 -2,0 0,1 -1,1 0,1 1,1 0,2 -1,1 0,1 -1,1 0,1 -1,1 0,1 -1,1 -1,1 0,3 -1,1 -1,1 -2,0 0,3 -1,1 0,1 -1,1 0,1 -1,1 -1,0 0,2 -1,1 -1,1 -1,0 0,1 -1,1 0,1 -1,1 0,2 -1,1 0,1 -1,1 0,1 -1,1 0,1 -1,1 0,2 -1,1 0,1 -1,1 0,1 -1,1 0,1 -1,1 0,1 1,1 0,3 1,1 0,2 -1,1 0,1 -1,1 0,1 -1,1 0,2 -1,1 -2,0 1,1 0,2 -1,1 0,1 -1,1 0,2 -1,1 0,1 -1,1 0,1 -1,1 0,2 -1,1 0,1 -1,1 0,1 -1,1 0,1 -1,1 0,2 -1,1 0,1 -1,1 -3,0 -1,-1 0,1 -1,1 0,3 -1,1 -3,0 3,1 0,0 1,1 0,2 -1,1 -4,0 2,1 0,0 1,1 1,1 0,2 -1,1 -1,1 0,4 1,1 0,1 1,1 0,5 -1,1 0,10 -1,1 -1,0 0,4 -1,1 0,2 2,0 1,1 0,3 -1,1 0,4 -1,1 0,4 -1,1 0,5 -1,1 0,5 1,0 1,1 0,3 -1,1 1,1 0,3 -1,1 -2,0 0,21 15,0 0,-5 -1,-1 0,-7 -1,0 -1,-1 0,-4 1,-1 0,-2 1,-1 0,-3 -1,-1 -1,0 -1,-1 0,-10 1,-1 0,-2 1,-1 0,-4 1,-1 0,-4 1,-1 0,-9 -1,-1 0,-4 -1,-1 0,-4 1,-1 0,0 -1,-1 0,-7 1,-1 0,-3 1,-1 0,-1 1,-1 1,-1 0,-3 -1,-1 0,-3 1,-1 0,-2 1,-1 0,-2 1,-1 0,-1 1,-1 0,-2 1,-1 0,-1 1,-1 0,-1 1,-1 4,0 1,1 0,-1 -3,-1 0,0 -1,-1 0,-2 1,-1 0,-1 1,-1 0,-1 1,-1 0,-2 1,-1 0,-1 1,-1 0,-1 1,-1 0,-1 1,-1 0,-2 1,-1 0,-1 1,-1 0,-1 1,-1 0,-2 1,-1 0,-1 1,-1 0,-1 1,-1 0,-1 1,-1 0,-1 1,-1 0,-2 1,-1 0,-1 1,-1 0,-2 1,-1 0,-1 1,-1 4,0 1,1 0,-1 1,-1 0,-1 1,-1 0,-2 1,-1 0,-1 1,-1 0,-1 1,-1 -1,-1 0,-3 1,-1 4,0 1,1 1,-1 0,-1 1,-1 0,-2 -1,-1 0,0 -1,-1 0,-2 1,-1 -1,-1 0,-3 1,-1 2,0 0,-1 1,-1 0,-1 1,-1 0,-1 1,-1 0,-2 1,-1 0,-1 1,-1 0,-1 1,-1 0,-1 1,-1 0,-4 1,-1 0,-2 1,-1 0,-1 1,-1 0,-1 1,-1 0,-1 1,-1 0,-1 -1,-1 0,-2 1,-1 0,-1 1,-1 0,-1 1,-1 0,-1 1,-1 2,0 1,1 1,0 1,-1 0,-3 1,-1 0,-1 1,-1 0,-1 1,-1 1,-1 0,-1 1,-1 1,-1 0,-1 1,-1 1,-1 0,-1 1,-1 1,-1 0,-1 1,-1 0,-1 1,-1 1,0 1,-1 1,-1 0,-1 1,-1 1,-1 1,-1 1,-1 0,-1 -16,0 -1,1 -27,45 0,0 27,-45Z"/>
<path onmouseover="hoverPath(evt)" onmouseout="recoverPath(evt)" fill="rgb(170,198,237)" d="M  219,97l -1,0 0,2 -1,1 0,1 -1,1 -1,1 0,1 -1,1 0,2 -1,1 0,1 1,1 0,2 1,1 0,1 1,1 0,1 1,1 0,1 1,1 1,1 0,1 1,1 1,1 0,1 1,1 0,1 1,1 0,3 1,1 0,16 1,1 0,3 1,1 0,1 1,1 0,1 1,1 1,1 0,1 1,1 0,1 1,1 0,5 -1,1 -1,1 0,1 -1,1 -1,1 -2,2 0,2 1,0 1,1 1,-1 0,-1 6,-6 1,-1 0,-1 1,-1 0,-1 -1,-1 0,-2 -1,-1 -1,-1 -1,-1 -1,-1 0,-1 -1,-1 -1,-1 0,-1 -1,-1 0,-1 -1,-1 0,-3 -1,-1 0,-17 -1,-1 0,-2 -1,-1 0,-1 -1,-1 0,-1 -1,-1 0,-1 -1,-1 0,-1 -1,-1 0,-1 -1,-1 0,-1 -1,-1 0,-2 -1,-1 0,-3 1,-1 0,-2 1,-1 1,-1 0,-1 1,-1 0,-1 1,-1 0,-2 -2,0 -1,1Z"/>
<path onmouseover="hoverPath(evt)" onmouseout="recoverPath(evt)" fill="rgb(253,253,253)" d="M  28,122l 0,-1 -1,0 0,17 -1,1 0,4 -1,1 0,2 -1,1 0,3 -1,1 0,3 -1,1 0,3 -1,1 0,2 -1,1 0,4 -1,1 0,3 -1,1 0,2 -1,1 0,1 -1,1 -1,1 -2,0 1,1 0,1 3,0 1,-1 0,-4 1,-1 0,-2 1,-1 0,-2 1,-1 0,-3 1,-1 0,-4 1,-1 0,-3 1,-1 0,-3 1,-1 0,-2 1,-1 0,-3 1,-1 0,-4 1,-1Z"/>
<path onmouseover="hoverPath(evt)" onmouseout="recoverPath(evt)" fill="rgb(241,239,232)" d="M  58,98l 0,2 -1,1 -2,0 -1,-1 0,-2 1,-1 2,0 1,1 -4,4 1,1 0,2 -1,1 0,1 -1,1 0,1 -1,1 0,1 -1,1 0,1 -1,1 0,1 1,0 1,1 1,0 1,1 1,0 1,1 1,0 1,1 1,0 1,1 1,0 1,1 1,0 1,1 1,0 1,1 1,0 1,1 1,0 1,1 1,-1 0,0 1,-1 1,0 1,-1 1,-1 1,0 1,-1 1,0 1,-1 1,0 1,-1 1,-1 1,0 1,-1 1,-1 1,-1 1,0 1,-1 1,-1 1,0 1,-1 2,-2 1,-1 1,0 1,-1 1,-1 1,0 1,-1 1,-1 1,-1 1,-1 1,-1 1,0 1,-1 1,-1 1,-1 -1,-1 0,-2 -1,3 -2,0 -1,-1 -1,-1 -1,0 -1,-1 0,-3 -1,0 -1,-1 -23,0 -1,-1 0,-6 -1,-1 0,-6 1,-1 0,-4 1,-1 0,-6 1,-1 0,-3 1,-1 4,0 0,-2 1,-1 0,-1 -4,0 -1,-1 -1,-1 0,-1 -4,0 0,4 -1,1 -2,0 0,7 1,1 0,2 -1,1 -2,0 0,2 -1,1 -2,0 -1,-1 0,1 -1,1 0,2 -1,1 -1,1 -1,0 -1,1 -4,0 -1,1 -1,1 0,2 -1,1 -1,0 0,4 1,1 0,6 -1,1 0,5 -1,1 0,1 1,0 1,1 0,1 1,-1 0,0 1,-1 2,0 4,-4Z"/>
<path onmouseover="hoverPath(evt)" onmouseout="recoverPath(evt)" fill="rgb(243,242,234)" d="M  143,2l -1,1 0,1 -1,1 0,1 -1,1 0,2 -1,1 0,1 -1,1 0,1 -1,1 0,1 -1,1 0,1 1,1 0,2 -1,1 -2,0 0,1 -1,1 0,1 1,1 0,2 -1,1 -2,0 0,1 -1,1 0,1 1,1 0,2 -1,1 -2,0 0,1 -1,1 0,1 1,1 2,0 1,1 0,2 -1,1 -5,0 -1,1 0,1 -1,1 0,1 2,0 1,1 6,0 1,1 6,0 1,1 2,0 0,-3 1,-1 3,0 1,-1 4,0 0,-3 1,-1 11,0 1,1 1,1 0,3 7,0 1,-1 4,0 1,-1 1,0 1,-1 1,0 0,-1 1,-1 0,-2 1,-1 0,-1 1,-1 0,-3 1,-1 0,-1 1,-1 0,-1 1,-1 0,-1 1,-1 0,-3 1,-1 0,-1 1,-1 1,-1 0,-1 1,-1 1,-1 0,-1 1,-1 0,-1 1,-1 0,-1 1,-1 1,-1 0,-1 1,-1 0,-1 1,-1 1,-1 0,-1 1,-1 0,-2 -58,0Z"/>
<path onmouseover="hoverPath(evt)" onmouseout="recoverPath(evt)" fill="rgb(233,210,119)" d="M  149,242l 0,-4 -1,-1 0,-7 -1,-1 0,-6 -1,-1 0,-1 -1,-1 -1,-1 0,8 1,0 1,1 3,14 -2,-12 0,4 -1,1 0,2 -1,1 0,2 1,0 1,1 0,7 1,1 0,6 3,0 0,-3 -1,-1 0,-4 -1,-1 0,-3 -2,-13 2,12Z"/>
<path onmouseover="hoverPath(evt)" onmouseout="recoverPath(evt)" fill="rgb(171,198,236)" d="M  184,202l -1,1 0,1 -1,1 0,1 -1,1 0,7 1,1 0,3 1,1 0,2 1,1 0,2 1,1 0,2 1,1 0,2 1,1 0,3 1,1 0,8 -1,1 0,1 -1,1 0,2 -1,1 0,6 4,0 0,-5 1,-1 0,-3 1,-1 0,-3 1,-1 0,-3 -1,-1 0,-2 -1,-1 0,-2 -1,-1 0,-2 -1,-1 0,-3 -1,-1 0,-2 -1,-1 0,-3 -1,-1 0,-3 -1,-1 0,-5 1,-1 0,-1 1,-1 0,-1 1,-1 1,-1 1,-1 1,0 1,-1 1,-1 1,0 1,-1 1,-1 1,0 1,-1 1,0 1,-1 1,0 1,-1 1,0 1,-1 2,0 1,-1 1,0 1,-1 1,0 1,-1 1,0 1,-1 1,0 1,-1 1,0 1,-1 1,0 1,-1 1,0 1,-1 1,0 1,-1 -1,0 -1,-1 -3,0 -1,-1 -1,0 0,2 -1,1 -1,1 -1,0 -1,1 -1,0 -1,1 -1,0 -1,1 -1,0 -1,1 -1,0 -1,1 -1,0 -1,1 -2,0 -1,1 -1,0 -1,1 -1,0 -1,1 -1,0 -1,1 -1,1 -1,1 -1,0 -1,1 -1,1 -1,0 -1,1 -1,1Z"/>
<path onmouseover="hoverPath(evt)" onmouseout="recoverPath(evt)" fill="rgb(244,242,230)" d="M  233,2l 0,0 -1,1 -1,1 -2,2 0,1 -2,2 -1,1 -1,0 0,1 -1,1 0,1 -1,1 -1,1 0,1 -1,1 -1,1 0,1 -1,1 -1,1 0,1 -1,1 -1,1 0,1 -1,1 0,1 -1,1 2,0 1,-1 2,0 1,-1 4,0 1,-1 3,0 1,-1 3,0 1,-1 3,0 1,-1 3,0 1,-1 3,0 1,-1 2,0 1,-1 1,0 1,-1 2,0 1,-1 2,0 0,-17 -22,0Z"/>
<path onmouseover="hoverPath(evt)" onmouseout="recoverPath(evt)" fill="rgb(252,252,251)" d="M  1,91l -1,0 0,2 3,0 1,1 0,2 1,-1 2,0 1,1 1,1 0,2 1,0 1,1 1,-1 2,0 0,-1 -1,-1 0,-4 1,-1 0,-1 1,-1 0,-1 1,-1 0,-1 1,-1 0,-1 1,-1 0,-1 1,-1 0,-1 1,-1 0,-1 1,-1 0,-1 1,-1 0,-1 1,-1 0,-1 1,-1 0,-1 -1,-1 0,1 -1,1 0,1 -1,1 0,1 -1,1 0,1 -1,1 0,1 -1,1 0,1 -1,1 0,1 -1,1 0,1 -1,1 0,1 -1,1 0,1 -1,1 0,1 -1,1 0,1 -1,1 -4,0 -1,-1 -1,0 -1,-1 -1,0 -1,-1Z"/>
<path onmouseover="hoverPath(evt)" onmouseout="recoverPath(evt)" fill="rgb(244,243,236)" d="M  0,227l 0,5 2,0 1,1 2,0 1,1 1,0 1,1 1,0 1,1 1,0 1,1 1,0 1,1 1,1 1,0 1,1 1,0 1,1 1,0 1,1 1,1 0,1 2,0 -1,-1 0,0 -1,-1 -1,-1 -1,-1 0,-1 -1,-1 -1,-1 -1,-1 -1,-1 -1,0 -1,-1 -1,-1 -1,-1 -1,0 -1,-1 -1,-1 -1,0 -1,-1 -1,0 -1,-1 -1,0 -1,-1 -1,0 -1,-1 -1,1Z"/>
<path onmouseover="hoverPath(evt)" onmouseout="recoverPath(evt)" fill="rgb(251,249,245)" d="M  122,187l 0,0 1,1 0,3 -1,1 -1,1 0,1 -1,1 -1,1 0,1 -1,1 -1,1 0,1 -1,1 0,1 -1,1 -1,1 -2,0 1,1 0,3 -1,1 1,0 -1,1 -1,-1 0,1 -1,1 -1,1 0,1 -1,1 -1,1 0,1 -1,1 -1,1 -1,1 -2,0 1,1 0,2 -1,1 -1,1 -2,0 0,4 -1,1 -1,1 -2,0 -1,1 0,4 -1,1 -1,1 0,1 -1,1 -1,1 -1,1 -2,0 -1,1 0,4 -1,1 -1,1 -2,0 -1,1 0,4 -1,1 0,1 3,0 0,-3 1,-1 0,-1 1,-1 1,-1 0,-1 1,-1 1,-1 1,0 0,-2 1,-1 1,-1 0,-1 1,-1 1,-1 1,0 0,-2 1,-1 1,-1 0,-1 1,-1 1,-1 1,-1 0,-1 1,-1 1,-1 1,-1 0,-1 1,-1 1,-1 1,0 0,-1 1,-1 11,0 1,1 9,0 1,1 2,0 0,-1 -1,0 -1,-1 -9,0 -1,-1 -7,0 -1,-1 -1,0 -1,-1 0,-2 1,-1 0,-1 1,-1 1,-1 0,-1 -1,1 -2,3 14,-28 -21,31 -7,0 5,1 1,0 1,-1 21,-31 -5,15 1,-1 2,0 -1,-1 0,-2 1,-1 1,-1 0,-1 1,-1 1,-1 2,0 1,-1 1,-1 -1,-1 0,-2 1,-1 0,-1 1,-1 1,-1 1,-1 0,-1 1,-1 2,0 1,1 0,-3 1,-1 0,-3 -2,0 0,1 -1,1 -1,1 0,1 -1,1 -1,1 -1,1 -2,0 0,4 -1,1 -2,0 -6,15 5,-15 3,-5 0,-1 -8,0 8,1 -3,5 -4,-1 -1,-1 -3,0 3,1Z"/>
<path onmouseover="hoverPath(evt)" onmouseout="recoverPath(evt)" fill="rgb(220,226,227)" d="M  132,51l 0,0 -1,-1 -6,0 -1,-1 -1,0 0,1 -1,1 -1,0 0,1 -1,1 0,1 -1,1 0,1 1,1 0,0 1,1 3,0 1,1 0,-3 1,-1 0,-3 1,-1 6,0 1,1 6,0 1,1 6,0 1,1 2,0 1,1 0,3 1,-1 1,-1 6,0 1,1 1,0 0,-2 1,-1 2,0 1,-1 3,0 1,-1 6,0 1,-1 4,0 1,1 0,2 1,-2 2,0 0,-1 1,-1 0,-1 1,-1 -1,0 -1,-1 -4,0 -1,-1 -1,1 -4,0 -1,1 -9,0 -1,-1 0,-3 -1,-1 -9,0 0,3 -1,1 -4,0 -1,1 -3,0 0,3 -1,1 -2,0 -8,-1 -1,0 18,8 0,1 1,1 0,1 1,0 -1,-2 0,-1 -1,0 -18,-8Z"/>
<path onmouseover="hoverPath(evt)" onmouseout="recoverPath(evt)" fill="rgb(240,237,225)" d="M  130,186l -1,1 0,1 -1,1 1,1 0,2 -1,1 -1,1 -1,1 -2,0 -1,1 0,1 -1,1 -1,1 1,1 0,2 -1,1 -2,0 -1,1 0,1 -1,1 -1,1 0,1 -1,1 0,1 -1,1 -1,1 0,1 -1,1 -1,1 0,1 -1,1 1,0 1,1 7,0 1,1 9,0 1,1 0,-2 1,-1 0,-5 1,-1 0,-4 1,-1 0,-4 1,-1 0,-1 -2,0 -1,-1 0,-4 1,-1 0,-4 1,-1 1,0 0,-5 -1,0 -1,-1 0,1 -1,1 -1,1Z"/>
<path onmouseover="hoverPath(evt)" onmouseout="recoverPath(evt)" fill="rgb(244,243,236)" d="M  218,35l -1,0 -1,1 -1,1 -1,1 -1,1 -1,1 0,1 -1,1 0,1 -1,1 0,1 -1,1 0,1 -1,1 0,5 1,1 0,1 1,1 0,1 1,1 1,1 1,1 1,1 1,1 1,1 1,0 1,1 1,1 1,1 1,1 1,1 1,1 1,1 0,1 1,1 1,1 0,1 1,1 1,1 0,2 1,1 0,8 -1,1 0,3 3,0 1,1 5,0 1,1 5,0 1,1 6,0 1,1 4,0 0,-71 -1,0 -1,1 -2,0 -1,1 -3,0 -1,1 -3,0 -1,1 -3,0 -1,1 -3,0 -1,1 -2,0 -1,1 -3,0 -1,1 -3,0 -1,1 -2,0 -1,1 -1,0 -1,1Z"/>
<path onmouseover="hoverPath(evt)" onmouseout="recoverPath(evt)" fill="rgb(244,243,235)" d="M  234,171l -2,2 -1,1 -1,1 2,0 1,1 4,0 1,1 3,0 1,1 2,0 1,1 1,0 1,-1 2,0 1,1 0,2 5,0 0,-81 -6,0 -1,-1 -6,0 -1,-1 -6,0 -1,-1 -5,0 -1,-1 -4,0 0,3 -1,1 0,1 -1,1 0,1 -1,1 -1,1 0,2 -1,1 0,1 1,1 0,2 1,1 0,1 1,1 0,1 1,1 0,1 1,1 0,1 1,1 0,1 1,1 0,1 1,1 0,2 1,1 0,17 1,1 0,3 1,1 0,1 1,1 0,1 1,1 1,1 0,1 1,1 1,1 1,1 1,1 0,2 1,1 0,3 -1,1 0,1 -1,1 -2,2Z"/>
<path onmouseover="hoverPath(evt)" onmouseout="recoverPath(evt)" fill="rgb(241,240,229)" d="M  49,0l -41,0 0,6 1,0 1,1 1,0 1,1 1,0 1,1 2,0 1,1 1,0 1,1 1,0 1,1 1,0 1,1 1,0 1,1 1,0 1,1 3,0 1,-1 2,0 1,1 0,2 1,1 1,1 1,0 1,1 1,0 1,1 1,0 1,1 2,0 0,-2 1,-1 0,-2 1,-1 2,0 1,1 0,5 -1,1 1,1 0,1 1,0 1,1 1,0 1,1 1,0 1,1 2,0 1,1 1,0 1,1 0,-1 1,-1 0,-2 1,-1 0,-3 1,-1 0,-4 1,-1 0,-2 1,-1 0,-4 1,-1 0,-3 1,-1 0,-1 -1,-1 0,-2Z"/>
<path onmouseover="hoverPath(evt)" onmouseout="recoverPath(evt)" fill="rgb(204,214,226)" d="M  68,52l -2,0 -1,-1 0,-4 1,-1 0,-2 -1,2 -1,3 0,2 -1,1 0,2 -1,1 0,2 -1,1 0,4 -1,1 0,5 -1,1 0,4 -1,1 0,1 1,-1 1,-3 0,-1 1,-1 2,0 1,1 0,-2 1,-1 2,0 -1,-1 0,-9 1,-1 2,0 0,-3 -1,-1Z"/>
<path onmouseover="hoverPath(evt)" onmouseout="recoverPath(evt)" fill="rgb(232,208,138)" d="M  156,116l 0,-1 1,-1 -1,-1 0,-3 -1,2 0,1 -1,1 0,1 -1,1 0,2 -1,1 0,1 -1,1 0,1 -1,1 0,1 -1,1 0,2 -1,1 0,1 -1,1 0,1 -1,1 0,1 -1,1 0,1 -1,1 -2,0 0,1 -1,1 0,1 -1,1 -1,1 -2,0 2,1 0,0 1,1 0,4 1,1 1,0 0,-1 1,-1 0,-2 1,-1 0,-1 1,-1 0,-1 1,-1 0,-1 1,-1 0,-2 1,-1 0,-1 1,-1 0,-1 1,-1 0,-2 1,-1 0,-1 1,-1 -1,-1 0,1 5,-9 -4,5 2,0 0,-2 1,-1 0,-1 1,-3 -4,7 4,-5Z"/>
<path onmouseover="hoverPath(evt)" onmouseout="recoverPath(evt)" fill="rgb(244,243,236)" d="M  189,204l 0,0 -1,1 0,1 -1,1 0,1 -1,1 0,3 1,1 0,3 1,1 0,3 1,1 0,2 1,1 0,3 1,1 0,2 1,1 0,2 1,1 0,2 1,1 0,5 -1,1 0,3 -1,1 0,3 -1,1 0,4 25,0 0,-2 1,-1 0,-1 -1,-1 0,-2 1,-1 2,0 0,-1 1,-1 0,-1 -1,-1 0,-2 1,-1 2,0 0,-1 1,-1 0,-2 1,-1 -1,-1 0,-2 1,-1 2,0 0,-1 1,-1 0,-1 1,-1 0,-1 -1,-1 0,-2 1,-1 2,0 0,-1 1,-1 0,-1 -1,-1 0,-2 1,-1 2,0 0,-1 1,-1 0,-1 -1,-1 0,-2 1,-1 2,0 0,-1 1,-1 0,-1 -1,-1 0,-2 1,-1 2,0 0,-1 1,-1 0,-1 1,-1 0,-2 1,-1 -1,-1 0,-2 1,-1 -3,0 -1,-1 -3,0 -1,-1 -3,0 -1,-1 -3,0 -1,-1 -3,0 -1,1 -1,0 -1,1 -1,0 -1,1 -1,0 -1,1 -1,0 -1,1 -1,0 -1,1 -1,0 -1,1 -1,0 -1,1 -1,0 -1,1 -2,0 -1,1 -1,0 -1,1 -1,0 -1,1 -1,0 -1,1 -1,0 -1,1 -1,1 -1,0 -1,1 -1,1 -1,0 -1,1Z"/>
<path onmouseover="hoverPath(evt)" onmouseout="recoverPath(evt)" fill="rgb(242,240,230)" d="M  196,77l 0,3 1,1 4,0 1,1 1,1 4,0 1,1 0,2 -1,1 0,1 4,0 1,1 4,0 1,-1 4,0 1,-1 0,-5 -1,-1 0,-2 -1,-1 -1,-1 -1,-1 0,-1 -1,-1 -1,-1 0,-1 -1,-1 -1,-1 -1,-1 -1,-1 -1,-1 -1,-1 -1,-1 -1,-1 -1,-1 -1,-1 -1,-1 -1,-1 -1,-1 -1,-1 -1,-1 -1,0 0,1 -1,1 0,1 -1,1 0,1 -1,1 0,2 -1,1 0,1 -1,1 0,1 -1,1 0,1 -1,1 -2,0 0,1 1,1 0,2 -1,1 1,1 0,-1 1,-1 2,0 1,1Z"/>
<path onmouseover="hoverPath(evt)" onmouseout="recoverPath(evt)" fill="rgb(170,198,236)" d="M  0,213l 0,11 2,0 1,1 1,0 1,1 1,0 1,1 1,0 1,1 1,0 1,1 1,1 1,0 1,1 2,2 1,0 5,5 0,1 4,4 0,2 1,0 1,1 1,1 1,1 0,3 1,1 1,0 1,1 0,2 15,0 -1,-1 0,-1 -2,-2 0,-1 -1,-1 -1,-1 -1,-1 0,-1 -1,-1 -1,-1 -1,-1 -1,-1 0,-1 -1,-1 -1,-1 -1,-1 0,-1 -1,-1 -1,-1 -1,-1 -1,-1 0,-1 -1,-1 -1,-1 -1,-1 -1,-1 -1,-1 -2,-2 -1,0 -1,-1 -1,-1 -2,-2 -1,0 -1,-1 -1,-1 -1,0 -2,-2 -1,0 -1,-1 -1,0 -1,-1 -1,0 -1,-1 -2,0 -1,-1 -1,0 -1,-1 -1,0 -1,1Z"/>
<path onmouseover="hoverPath(evt)" onmouseout="recoverPath(evt)" fill="rgb(247,232,130)" d="M  0,237l 0,18 31,0 0,-1 -1,0 -1,-1 -1,-1 0,-3 -1,-1 -1,-1 -1,0 -1,-1 -3,0 -1,-1 0,-1 -1,-1 -1,0 -1,-1 -1,0 -1,-1 -1,0 -1,-1 -1,-1 -1,0 -1,-1 -1,0 -1,-1 -1,0 -1,-1 -1,0 -1,-1 -2,0 -1,-1 -1,0Z"/>
<path onmouseover="hoverPath(evt)" onmouseout="recoverPath(evt)" fill="rgb(202,213,226)" d="M  48,77l -1,0 0,2 -1,1 -2,0 0,1 -1,1 0,1 -1,1 -1,0 0,1 -1,1 0,5 1,1 0,7 1,1 0,2 1,1 2,0 1,1 1,1 0,4 -1,1 0,0 -1,1 0,1 1,0 0,-1 2,-4 0,-3 -1,0 -1,-1 0,-3 1,-1 0,-5 1,-1 0,-4 -1,-1 0,-6 1,-1 1,0 0,-2 2,-2 1,-1 -3,0 -1,1Z"/>
<path onmouseover="hoverPath(evt)" onmouseout="recoverPath(evt)" fill="rgb(235,218,165)" d="M  186,37l 0,0 -1,1 0,1 -1,1 0,2 -1,1 0,1 -1,1 2,0 1,-1 2,0 1,-1 -1,-1 0,-2 1,-1 2,0 0,-2 1,-1 0,-1 1,-1 -1,-1 0,-2 1,-1 2,0 0,-1 1,-1 0,-1 1,-1 0,-1 1,-1 0,-1 1,-1 0,-1 1,-1 0,-1 1,-1 0,-1 2,-2 0,-1 1,-1 0,-1 1,-1 1,-1 1,-1 0,-1 1,-1 1,-1 1,-1 0,-1 1,-1 1,-1 1,-1 0,-1 -9,0 0,3 -1,1 0,1 -2,2 0,1 -1,1 0,1 -1,1 -1,1 0,1 -1,1 0,1 -1,1 0,1 -1,1 -1,1 0,1 -1,1 -1,1 0,1 -1,1 0,3 -1,1 0,1 -1,1 0,1 -1,1 0,1 -1,1Z"/>
<path onmouseover="hoverPath(evt)" onmouseout="recoverPath(evt)" fill="rgb(243,242,235)" d="M  75,124l -1,1 -1,0 -1,1 1,0 1,1 0,0 1,1 1,0 1,1 1,0 1,1 1,1 1,0 1,1 1,0 1,1 1,0 1,1 1,0 1,1 1,1 1,0 1,1 1,0 1,1 1,0 1,1 2,0 1,1 1,0 1,1 2,0 1,1 1,0 1,1 1,0 1,1 1,0 1,1 1,0 1,1 2,0 1,1 1,0 1,1 1,0 1,1 2,0 1,1 1,0 1,1 2,0 1,1 1,0 1,1 2,0 1,1 1,0 1,-1 3,0 0,-3 1,-1 0,-1 1,-1 0,-3 -1,-1 -1,0 -1,-1 -1,0 -1,-1 0,-2 1,-1 2,0 1,1 1,0 1,-1 0,-1 1,-1 0,-1 1,-1 2,0 0,-1 1,-1 0,-1 1,-1 0,-1 1,-1 0,-1 1,-1 0,-2 1,-1 0,-1 1,-1 0,-1 1,-1 0,-1 1,-1 0,-2 1,-1 0,-1 1,-1 0,-1 1,-1 0,-1 1,-1 0,-2 1,-1 0,-1 1,-1 0,-1 1,-1 0,-1 1,-1 0,-2 1,-1 0,-1 1,-1 0,-1 1,-1 0,-1 1,-1 0,-2 1,-1 0,-1 1,-1 0,-1 -1,0 -1,-1 -1,0 -1,-1 -1,0 -1,-1 -1,0 -1,-1 -1,0 -1,-1 -1,0 -1,-1 -1,0 -1,-1 -2,0 -1,-1 -1,0 -1,-1 -1,0 -1,-1 -1,0 -1,-1 -1,0 -1,-1 -2,0 -1,-1 -1,0 -1,-1 -1,1 -2,0 -1,-1 0,-2 -1,0 -1,-1 -1,0 -1,-1 -1,0 0,3 -1,1 0,1 -1,1 -1,1 0,3 -1,1 0,5 1,1 0,0 1,1 0,5 -1,1 -1,1 -1,1 -1,1 -1,0 0,1 -1,1 -1,0 -1,1 -1,1 -1,1 -1,0 -1,1 -1,1 -1,1 -1,1 -1,1 -1,1 -2,0 -1,-1 -1,1 0,0 -2,2 -1,1 -1,1 -1,0 -1,1 -1,1 -1,0 -1,1 -1,1 -1,1 -1,1 -1,0 -1,1 -1,1 -1,0 -1,1 -1,1 -1,1 -1,0 -1,1 -1,1 -1,0 -1,1 -1,0 -1,1 -1,0 -1,1Z"/>
<path onmouseover="hoverPath(evt)" onmouseout="recoverPath(evt)" fill="rgb(239,237,225)" d="M  128,54l 0,2 -1,1 0,3 1,1 1,0 1,1 1,0 1,1 1,0 1,1 2,0 1,1 1,0 1,1 1,0 1,1 1,0 1,1 1,0 1,1 2,0 1,1 1,0 0,-1 1,-1 2,0 1,1 0,3 1,1 1,0 1,1 1,0 1,1 1,0 1,-1 0,0 1,-1 1,-1 0,-1 1,-1 2,0 1,1 2,0 0,-4 1,-1 2,0 1,1 1,-1 0,-1 -1,0 -1,-1 -1,0 -1,-1 0,-2 1,-1 3,0 1,1 2,0 0,-2 1,-1 0,-1 1,-1 0,-1 1,-1 0,-1 -2,0 -1,1 -6,0 -1,1 -3,0 -1,1 -2,0 0,2 -1,1 -3,0 -1,-1 -4,0 -1,1 0,1 1,1 0,2 -1,1 -3,0 -1,-1 0,-1 -1,-1 0,-3 1,-1 0,-1 -2,0 -1,-1 -6,0 -1,-1 -6,0 -1,-1 -3,0 -1,1Z"/>
<path onmouseover="hoverPath(evt)" onmouseout="recoverPath(evt)" fill="rgb(249,247,238)" d="M  151,71l 0,0 -1,1 -3,0 -1,-1 -2,0 -1,-1 -1,0 -1,-1 -1,0 -1,-1 -1,0 -1,-1 -1,0 -1,-1 -2,0 -1,-1 -1,0 -1,-1 -1,0 -1,-1 -1,0 -1,-1 -1,-1 -1,0 -1,-1 -3,0 -1,-1 -1,-1 -1,-1 0,-3 1,-1 0,-1 1,-1 0,-1 1,-1 1,0 0,-4 1,-1 0,-1 1,-1 1,-1 5,0 -3,-1 0,0 -1,-1 0,-3 1,-1 0,-1 1,-1 2,0 -1,-1 0,-3 1,-1 0,-1 1,-1 2,0 -1,-1 0,-3 1,-1 0,-1 1,-1 2,0 -1,-1 0,-3 1,-1 0,-1 1,-1 0,-1 1,-1 0,-1 1,-1 0,-2 1,-1 0,-1 1,-1 0,-1 1,-1 0,-1 -2,0 0,2 -1,1 0,2 -1,1 0,1 -1,1 0,1 -1,1 0,1 -1,1 0,2 -1,1 0,2 -1,1 0,1 -1,1 0,1 -1,1 0,1 -1,1 0,1 -1,1 0,2 -1,1 0,1 -1,1 0,1 -1,1 0,2 -1,1 0,1 -1,1 0,1 -1,1 0,2 -1,1 0,1 -1,1 0,1 -1,1 0,1 -1,1 -1,1 0,3 -1,1 0,1 -1,1 -4,0 0,1 1,0 1,1 1,0 1,1 0,2 1,-1 3,0 1,1 1,0 1,1 1,0 1,1 0,1 4,0 1,1 1,0 1,1 1,0 1,1 0,2 1,-1 2,0 1,1 1,0 1,1 2,0 1,1 1,0 1,1 1,0 1,1 1,0 1,1 1,0 1,1 2,0 1,1 1,0 1,1 1,0 1,1 1,0 1,1 1,0 1,1 1,0 1,1 1,0 1,1 1,0 1,1 1,-1 0,-2 1,-1 1,0 0,-1 1,-1 0,-1 1,-1 0,-3 1,-1 2,0 1,-1 -1,-1 0,-2 1,-1 1,0 1,-1 0,-1 1,-1 0,-1 1,-1 0,-1 1,-1 -1,-1 0,-2 -1,2 0,1 -1,1 0,2 -1,1 -4,0 -1,-1 -1,0 4,2 0,2 3,-3 0,0 -27,8 8,6 -2,0 -1,-1 -1,0 -1,-1 -1,0 -1,-1 -1,-1 0,-1 8,5 -8,-6 -41,-15 0,-1 -1,0 -1,-1 -1,0 -1,-1 -1,0 -1,-1 -1,0 -1,-1 -1,0 -1,-1 -1,0 0,2 2,0 1,1 1,0 1,1 1,1 0,6 1,-3 0,-1 1,-1 3,0 41,15 22,-2 -2,0 -1,-1 0,4 -1,1 -3,0 -1,1 -2,0 -1,1 -1,1 12,-7 -22,2Z"/>
<path onmouseover="hoverPath(evt)" onmouseout="recoverPath(evt)" fill="rgb(244,242,235)" d="M  177,110l 0,0 -1,1 0,1 -1,1 0,1 -1,1 0,2 -1,1 0,1 -1,1 0,1 -1,1 0,1 -1,1 0,2 -1,1 0,1 -1,1 0,1 -1,1 0,1 -1,1 0,2 -1,1 0,1 -1,1 0,2 -1,1 0,1 -1,1 0,1 -1,1 0,2 -1,1 0,1 -1,1 0,1 1,0 1,1 0,2 3,0 1,1 2,0 1,1 3,0 1,1 0,4 2,0 1,1 3,0 1,1 4,0 1,1 3,0 1,1 4,0 1,1 3,0 1,1 3,0 1,1 3,0 1,1 3,0 1,1 3,0 1,1 4,0 1,1 2,0 1,1 2,0 0,-1 1,-1 1,-1 2,-2 0,-1 2,-2 0,-3 -1,-1 0,-1 -1,-1 0,-1 -1,-1 -1,-1 0,-1 -1,-1 0,-1 -1,-1 0,-3 -1,-1 0,-16 -1,-1 0,-3 -1,-1 0,-1 -1,-1 0,-1 -1,-1 -1,-1 0,-1 -1,-1 -1,-1 0,-1 -1,-1 0,-1 -1,-1 0,-1 -1,-1 0,-2 -1,-1 0,-3 1,-1 0,-2 1,-1 0,-1 1,-1 1,-1 0,-1 1,-1 0,-2 1,-1 -2,0 -1,-1 -5,0 -1,-1 -6,0 -1,-1 -1,0 -1,1 -1,1 0,4 2,0 1,1 0,2 -1,1 -4,0 -1,1 -2,0 -1,-1 0,-4 1,-1 0,-1 1,-1 0,-4 -2,0 -1,-1 -4,0 -1,-1 0,1 -1,1 0,1 -1,1 0,1 -1,1 0,2 -1,1 0,1 -1,1 0,1 -1,1 0,2 -1,1 0,2 -1,1 0,1 -1,1 16,1 1,1 0,2 -1,1 -2,0 -1,-1 0,-2 1,-1 2,0 -16,-1Z"/>
<path onmouseover="hoverPath(evt)" onmouseout="recoverPath(evt)" fill="rgb(242,240,230)" d="M  249,206l 0,2 -1,1 -7,0 0,1 -1,1 0,1 1,1 0,2 -1,1 -2,0 0,2 -1,1 0,1 1,1 0,3 -1,1 0,1 -1,1 0,1 -1,1 0,2 2,0 1,1 0,2 -1,1 -4,0 0,1 -1,1 0,6 -1,1 -2,0 -1,-1 0,-1 -1,-1 0,2 -1,1 1,1 0,2 -1,1 -2,0 0,2 -1,1 0,4 32,0 0,-62 -5,0 -1,-1 0,1 -1,1 0,1 -1,1 0,1 -1,1 0,1 -1,1 0,1 -1,1 0,2 1,0 1,1 2,0 1,1Z"/>
<path onmouseover="hoverPath(evt)" onmouseout="recoverPath(evt)" fill="rgb(252,252,251)" d="M  30,23l 0,1 -1,1 0,1 1,-1 0,0 1,-3 5,0 1,1 1,0 1,1 1,0 1,1 1,0 1,1 1,0 1,1 1,0 1,1 2,0 1,1 1,0 1,1 1,0 1,1 1,0 1,1 1,0 1,1 1,0 1,1 1,0 1,1 2,0 1,1 1,0 1,1 1,0 1,1 2,0 1,1 1,0 1,1 1,0 1,1 1,-1 0,-1 -2,0 -1,-1 -1,0 -1,-1 -1,0 -1,-1 -1,0 -1,-1 -2,0 -1,-1 -1,-1 0,-5 1,-1 0,-3 1,-1 0,-3 1,-1 0,-4 1,-1 0,-3 1,-1 0,-4 1,-1 0,-3 1,-1 0,-1 -3,0 0,1 1,1 0,3 -1,1 0,3 -1,1 0,4 -1,1 0,2 -1,1 0,4 -1,1 0,3 -1,1 0,2 -1,1 0,1 -1,1 -2,0 -1,-1 -1,0 -1,-1 -2,0 -1,-1 -1,0 -1,-1 -1,0 -1,-1 -1,0 -1,-1 0,-1 -1,-1 0,-2 1,-1 0,-3 -1,3 -1,3 -4,0 -1,-1 -1,0 -1,-1 -1,0 -1,-1 -1,0 -1,-1 -1,-1 -1,-1 0,-2 -1,1 -5,0 -1,-1 -1,0 -1,-1 -1,0 -1,-1 -1,0 -1,-1 -1,0 -1,-1 -1,0 -1,-1 -2,0 -1,-1 -1,0 -1,-1 -1,0 -1,-1 -1,0 -1,-1 0,-7 -6,0 0,7 3,0 1,1 1,1 2,0 1,1 1,0 1,1 1,0 1,1 2,0 1,1 0,5 -1,1 1,0 -1,1 2,-5 4,0 1,1 2,0 1,1 1,0 1,1 1,0 1,1 1,0 1,1Z"/>
<path onmouseover="hoverPath(evt)" onmouseout="recoverPath(evt)" fill="rgb(253,253,253)" d="M  49,111l 0,0 1,-1 0,-1 1,-1 0,-1 1,-1 0,-1 1,-1 -2,2 -1,0 0,2 -1,1 0,2 -3,3 -2,0 -1,-1 -1,0 -1,-1 -1,0 0,1 1,1 1,0 1,1 1,1 1,0 1,1 1,0 1,1 2,0 1,1 1,0 1,1 1,0 1,1 1,0 1,1 1,1 1,0 1,1 1,0 1,1 1,0 1,1 1,0 1,1 1,0 1,1 1,1 2,0 1,1 1,1 1,0 1,1 1,0 1,1 1,0 1,1 1,0 1,1 1,1 1,0 1,1 1,0 1,1 1,0 1,1 1,0 1,1 1,0 1,1 1,0 1,1 1,0 1,1 1,0 1,1 1,0 1,1 1,0 1,1 2,0 1,1 1,0 1,1 2,0 1,1 1,0 1,1 1,0 1,1 2,0 1,1 1,0 1,1 1,0 1,1 2,0 1,1 2,0 1,1 2,0 1,1 2,0 1,1 3,0 -1,-1 -2,0 -1,-1 -2,0 -1,-1 -2,0 -1,-1 -1,0 -1,-1 -2,0 -1,-1 -1,0 -1,-1 -2,0 -1,-1 -1,0 -1,-1 -1,0 -1,-1 -2,0 -1,-1 -1,0 -1,-1 -1,0 -1,-1 -1,0 -1,-1 -1,0 -1,-1 -2,0 -1,-1 -1,0 -1,-1 -2,0 -1,-1 -1,0 -1,-1 -1,0 -1,-1 -1,0 -1,-1 -1,-1 -1,0 -1,-1 -1,0 -1,-1 -1,0 -1,-1 -1,0 -1,-1 -1,-1 -1,0 -1,-1 -1,0 -1,-1 -1,-1 -1,0 -1,-1 -1,0 -1,-1 -1,0 -1,-1 -1,0 -1,-1 -1,0 -1,-1 -1,0 -1,-1 -1,0 -1,-1 -1,0 -1,-1 -1,0 -1,-1 -1,0 -1,-1 -1,0 -1,-1 -1,0 -1,-1 -2,-2 3,-3Z"/>
<path onmouseover="hoverPath(evt)" onmouseout="recoverPath(evt)" fill="rgb(221,228,232)" d="M  69,33l 0,0 1,1 1,0 1,1 1,0 1,1 1,0 1,1 1,0 1,-1 4,0 -1,-1 -3,0 -1,-1 -1,0 -1,-1 0,-4 1,-1 0,-1 1,-1 3,0 1,1 1,0 -4,-2 -1,-1 0,-4 1,-1 5,0 -2,-1 -1,0 -1,-1 0,-3 3,-3 2,0 -1,-1 0,-4 -1,2 0,1 -1,1 -1,1 -2,0 -1,-1 0,-5 1,-1 0,-4 -5,0 0,2 -1,1 0,3 -1,1 0,4 -1,1 0,3 -1,1 0,4 -1,1 0,3 -1,1 0,3 -1,1 0,3 1,1Z"/>
<path onmouseover="hoverPath(evt)" onmouseout="recoverPath(evt)" fill="rgb(231,204,120)" d="M  174,111l 0,-1 1,-1 1,-1 0,-1 1,-1 0,-2 1,-1 0,-1 -1,-1 -2,0 0,1 -1,1 0,2 -1,1 0,1 -1,1 0,2 -1,1 0,1 -1,1 0,1 -1,1 0,1 -1,1 0,1 -1,1 0,2 -1,1 0,1 -1,1 0,1 -1,1 0,2 -1,1 0,1 -1,1 0,1 -1,1 0,1 -1,1 0,2 -1,1 0,1 -1,1 0,1 -1,1 1,1 2,0 0,-1 1,-1 0,-1 1,-1 0,-2 1,-1 0,-1 1,-1 0,-2 1,-1 0,-1 1,-1 0,-1 1,-1 0,-1 1,-1 0,-2 1,-1 0,-1 1,-1 0,-1 1,-1 0,-1 1,-1 0,-2 1,-1 0,-1 1,-1Z"/>
<path onmouseover="hoverPath(evt)" onmouseout="recoverPath(evt)" fill="rgb(252,251,249)" d="M  196,96l 0,0 -1,1 0,1 -1,1 0,2 1,-1 4,0 -3,-1 0,-3 3,-6 3,0 1,1 6,0 1,1 5,0 1,1 3,0 1,1 9,0 1,1 5,0 1,1 6,0 1,1 6,0 1,1 5,0 0,-1 -5,0 -1,-1 -6,0 -1,-1 -5,0 -1,-1 -5,0 -1,-1 -3,0 -1,-1 -9,0 -1,-1 -5,0 -1,-1 -4,0 -1,-1 0,-3 1,-1 -4,0 -1,-1 -1,-1 -4,0 -1,-1 -1,-1 0,-3 -1,2 0,3 -1,1 0,1 -1,1 -1,1 -2,0 0,1 4,0 1,1 2,0 4,1 -3,6 -9,-9 0,-1 -2,0 0,1 2,0 9,9Z"/>
<path onmouseover="hoverPath(evt)" onmouseout="recoverPath(evt)" fill="rgb(252,252,249)" d="M  245,207l 0,0 -1,-1 -1,0 -1,-1 0,-4 1,-1 0,-1 1,-1 0,-1 1,-1 0,-1 1,-1 0,-1 1,-1 0,-2 -1,0 0,1 -1,1 -2,0 1,1 0,2 -1,1 0,2 -1,1 0,1 -1,1 0,1 -1,1 -2,0 1,1 0,3 -1,1 0,1 -1,1 -2,0 1,1 0,3 -1,1 0,1 -1,1 -2,0 1,1 0,3 -1,1 0,1 -1,1 -2,0 1,1 0,3 -1,1 0,1 -1,1 0,1 -1,1 -2,0 1,1 0,2 -1,1 0,2 -1,1 0,1 -1,1 -2,0 1,1 0,3 -1,1 0,1 -1,1 -2,0 1,1 0,3 -1,1 0,1 3,0 0,-5 1,-1 0,-2 1,-1 2,0 -1,-1 0,-2 1,-1 0,-2 1,-1 2,0 1,1 1,1 0,-5 1,-1 0,-1 1,-1 4,0 -3,-1 0,-4 1,-1 0,-1 1,-1 0,-1 1,-1 0,-1 -1,-1 0,-3 1,-1 0,-2 1,-1 2,0 -1,-1 0,-3 1,-1 0,-1 1,-1Z"/>
</svg>