<svg width="256" height="256" xmlns="http://www.w3.org/2000/svg"><script> 
var tempColor;
function hoverPath(evt){
obj = evt.target;
tempColor = obj.getAttribute("fill");
obj.setAttribute("fill","red");
//alert(tempColor);
//obj.setAttribute("stroke","red");}
function recoverPath(evt){
obj = evt.target;
obj.setAttribute("fill", tempColor);
//obj.setAttribute("stroke", tempColor);
}</script><path onmouseover="hoverPath(evt)" onmouseout="recoverPath(evt)" fill="rgb(242,241,231)" d="M  0,152l 0,55 1,0 0,-1 1,-1 2,0 1,-1 1,-1 1,0 1,-1 1,-1 1,0 1,-1 1,-1 0,-3 -1,-1 0,-5 1,-1 2,0 1,1 0,2 1,1 0,3 1,0 1,-1 0,0 1,-1 1,-1 1,0 1,-1 0,-1 1,-1 2,0 1,-1 1,-1 1,-1 1,-1 1,-1 0,-1 1,-1 0,-1 1,-1 1,-1 1,-1 1,-1 0,-1 -1,-1 -1,-1 -1,-1 -1,-1 -1,-1 -1,-1 -1,-1 -1,-1 0,-2 -4,0 -1,-1 0,-2 -1,-1 0,-2 -1,0 -1,-1 -1,-1 0,-2 -1,0 -1,-1 -1,-1 -1,-1 0,-2 -1,0 -1,-1 -1,-1 0,-1 -3,0 -1,1 -3,0 -1,-1 -3,0Z"/>
<path onmouseover="hoverPath(evt)" onmouseout="recoverPath(evt)" fill="rgb(253,252,251)" d="M  53,168l 1,0 1,-1 1,-1 2,0 1,1 0,-2 1,-1 1,-1 3,0 1,1 0,-2 1,-1 2,0 1,-1 4,0 1,1 1,1 0,-3 1,-1 4,0 1,1 0,-2 1,-1 2,0 1,-1 3,0 1,-1 4,0 1,1 0,2 1,-1 3,0 1,-1 1,0 1,-1 3,0 1,-1 3,0 1,-1 3,0 1,-1 4,0 1,-1 3,0 1,-1 1,0 1,-1 1,0 1,-1 1,-1 1,0 0,-2 1,-1 2,0 1,-1 1,0 1,-1 2,0 1,-1 3,0 2,2 1,-1 0,-1 -1,0 -1,-1 -1,-1 -1,-1 -1,0 -1,-1 -1,-1 0,-1 -1,-1 0,-1 -1,-1 0,-1 -1,-1 0,-1 -1,-1 0,-4 1,-1 1,-1 19,0 1,1 0,0 1,1 4,0 -2,-1 0,-1 -27,0 -1,-1 -1,-1 0,-1 -1,-1 0,-4 -1,-1 0,-3 1,-1 0,-10 1,-1 0,-6 1,-1 0,-12 1,-1 0,-7 -1,0 0,6 -1,1 0,8 -1,1 0,3 -1,1 -14,0 11,1 2,0 1,1 1,1 0,4 -1,1 0,9 -1,1 0,6 -1,1 -2,0 -1,1 -6,0 -1,1 -7,0 -1,1 -5,0 -1,1 -7,0 -1,1 -9,0 -1,-1 -1,0 -1,-1 0,-3 -1,-1 -1,-1 -1,1 -6,0 -1,1 9,0 -1,-1 2,5 0,1 -1,1 -1,0 -1,1 -7,0 -1,1 -4,0 -1,1 -2,0 -1,1 -2,0 -1,1 -2,0 -1,1 -2,0 -1,1 -2,0 -1,1 -2,0 -1,1 -2,0 -1,1 -4,0 -1,1 -1,0 -1,1 -1,0 -1,1 -2,0 -1,1 -2,0 -1,1 -4,0 -1,-1 0,-8 -1,-1 0,11 -1,1 -1,0 -1,1 -1,0 1,1 1,-1 2,0 1,-1 3,0 1,-1 2,0 1,-1 1,0 1,-1 2,0 1,-1 3,0 1,-1 1,0 1,-1 2,0 1,-1 3,0 1,-1 1,0 1,-1 2,0 1,-1 2,0 1,-1 2,0 1,-1 2,0 1,-1 3,0 1,-1 4,0 1,-1 7,0 1,-1 7,0 1,-1 6,0 1,-1 7,0 1,-1 3,0 1,1 1,1 0,1 1,1 0,-3 1,-1 1,0 1,-1 4,0 1,-1 9,0 1,1 1,1 0,2 -1,1 2,0 1,1 0,3 -1,1 -1,1 2,0 1,1 0,1 1,1 0,2 1,1 0,4 -1,1 -1,1 -2,0 -1,1 -6,0 0,1 -1,1 0,1 -1,1 -2,0 -1,1 -2,0 -1,1 -2,0 -1,1 -2,0 -1,1 -3,0 -1,1 -2,0 -1,1 -3,0 -1,1 -4,0 -1,1 -2,0 -1,1 -3,0 -1,1 -2,0 -1,1 -2,0 -1,1 -3,0 -1,1 -4,0 -1,-1 0,-2 -1,-1 0,2 -1,1 -1,1 -2,0 -1,1 -1,0 -1,1 -1,0 -1,1 -2,0 -1,1 -1,0 -1,1 -1,1 -1,0 -1,1 -1,0 0,2 -1,1 0,2 -1,1 -1,1 1,1 0,0 1,-1 1,0 0,-1 1,-1 2,-2 40,-10 0,1 -1,1 -1,0 0,1 -1,1 -1,1 5,-4 0,-1 -1,0 -40,10Z"/>
<path onmouseover="hoverPath(evt)" onmouseout="recoverPath(evt)" fill="rgb(244,242,235)" d="M  171,152l 0,2 1,1 0,2 1,0 1,1 1,1 1,1 1,0 1,1 1,1 1,0 1,1 1,1 1,1 1,0 1,1 1,1 1,0 1,1 1,1 1,0 1,1 1,1 1,0 1,1 1,1 1,0 1,1 1,1 2,0 1,1 0,2 2,0 1,1 1,1 1,0 1,1 1,1 1,0 1,1 1,1 1,0 1,1 1,1 1,0 1,1 1,1 1,0 1,1 1,1 1,0 1,1 1,0 1,1 1,-1 3,0 1,-1 1,-1 1,-1 0,-1 1,-1 1,-1 1,-1 1,-1 0,-1 1,-1 1,-1 1,0 0,-2 1,-1 0,-1 1,-1 1,-1 0,-1 1,-1 1,-1 0,-1 1,-1 0,-1 1,-1 0,-1 1,-1 1,-1 0,-1 1,-1 0,-1 1,-1 1,-1 0,-1 1,-1 0,-2 1,-1 -1,-1 0,0 -1,-1 -1,0 -1,-1 0,-2 -1,-1 -1,-1 -1,0 -1,-1 0,-2 -1,-1 -1,-1 -1,-1 -1,-1 0,-1 -1,-1 -1,-1 -1,-1 0,-1 -1,-1 -1,-1 -1,-1 0,-1 -1,-1 -2,0 -1,-1 0,-2 1,-1 -1,-1 0,-2 -1,-1 0,-1 -2,0 -1,-1 0,-2 1,-1 0,-1 -2,0 -1,-1 0,-2 1,-1 0,-1 -1,-1 0,-2 -1,-1 0,-2 -2,0 -1,-1 0,-2 1,-1 0,-1 -1,-1 0,-2 -1,-1 0,-2 -1,-1 0,-2 -1,-1 0,-2 -1,-1 0,-2 -1,-1 0,-3 -2,0 -1,-1 0,-1 -1,-1 0,-2 -4,0 -1,1 -4,0 -1,-1 -1,0 -1,1 -1,0 0,1 -1,1 0,1 -1,1 -1,0 -1,1 0,2 -1,1 0,3 -1,1 0,1 1,0 1,1 1,1 0,2 -1,1 -1,0 0,2 -1,1 1,1 0,2 -1,1 0,6 -1,1 -2,0 0,3 -1,1 -1,1 0,1 -1,1 0,3 -1,1 -1,1 -1,1 0,4 -1,1 -1,1 -1,1 -1,0 1,1 0,3 -1,1 -1,1 0,3 -1,1 -1,1 -1,1 0,1 1,1 0,3 -1,1 -2,0 0,3 -1,1 -1,1Z"/>
<path onmouseover="hoverPath(evt)" onmouseout="recoverPath(evt)" fill="rgb(174,198,233)" d="M  211,32l 0,2 1,0 1,-1 7,0 1,-1 2,0 1,-1 3,0 1,-1 10,0 1,-1 10,0 1,-1 5,0 0,-4 -3,0 -1,1 -1,0 -1,1 -2,0 -1,1 -13,0 -1,1 -7,0 -1,1 -2,0 -1,1 -9,0 -1,1Z"/>
<path onmouseover="hoverPath(evt)" onmouseout="recoverPath(evt)" fill="rgb(242,241,232)" d="M  219,15l -5,0 0,2 4,0 1,1 0,3 -1,1 -3,0 -1,-1 -1,0 0,2 3,0 1,1 0,1 3,0 1,-1 3,0 1,-1 7,0 1,-1 12,0 1,-1 3,0 1,1 5,0 0,-22 -40,0 0,1 1,1 5,0 1,1 1,1 1,1 0,5 -1,1 0,1 -1,1 -1,1 -1,0 -1,1Z"/>
<path onmouseover="hoverPath(evt)" onmouseout="recoverPath(evt)" fill="rgb(251,250,248)" d="M  32,81l 0,0 1,1 1,0 1,1 0,3 1,1 0,5 1,1 0,15 1,1 0,10 1,1 0,9 1,0 -1,-10 -1,-11 0,-16 -1,-1 0,-10 1,-1 4,0 1,-1 8,0 0,-2 -1,-1 0,0 -1,-1 0,-3 1,-1 0,-1 1,-1 9,0 1,-1 17,0 1,-1 15,0 1,1 0,2 -1,1 -6,0 0,1 -1,1 0,1 1,1 0,3 14,0 -1,-1 0,-1 -1,-1 0,-2 1,-1 -1,-1 0,-3 2,-2 13,0 1,1 10,0 0,-2 -15,0 -1,-1 -4,0 -1,1 -23,0 -1,1 -4,0 -1,1 -15,0 -1,-1 0,-1 -1,-1 0,-16 -1,-1 0,-28 1,-1 21,0 1,1 0,9 -1,1 6,0 1,1 10,0 1,1 6,0 1,1 5,0 1,1 0,9 -1,1 0,1 -1,1 -10,0 -1,1 -12,0 -1,1 -2,0 -1,1 -4,0 -1,1 -4,0 -1,-1 0,2 13,0 1,-1 1,0 0,-1 1,-1 1,0 -57,34 67,-35 11,0 1,1 1,1 15,0 -15,-1 -1,-1 0,-3 -1,2 2,-10 0,-1 1,-1 5,0 1,-1 2,0 1,-1 0,-2 -1,0 -1,-1 0,-2 -10,0 -1,1 -3,0 -1,-1 0,-7 1,-1 16,0 0,-1 -24,0 -1,-1 -17,0 -1,1 -2,0 -1,-1 -1,0 -1,-1 0,-8 -1,0 0,8 -1,1 -1,0 -1,1 -11,0 -1,-1 -1,-1 0,-15 -2,0 0,1 1,1 0,13 -1,1 -1,1 -13,0 -1,1 -4,0 -1,-1 -1,-1 0,1 -1,1 -1,0 -1,1 -9,0 -1,1 -11,0 -1,1 -9,0 0,2 2,0 1,-1 11,0 1,-1 7,0 1,-1 12,0 1,-1 5,0 1,-1 12,0 1,1 1,1 0,4 1,1 0,29 1,1 0,11 -1,1 -1,0 -1,1 -12,0 -1,1 -12,0 -1,-1 0,-5 1,-1 -4,0 -1,1 2,0 1,1 0,4 -1,1 -1,0 -1,1 -13,0 -1,1 -11,0 0,40 2,0 1,1 0,5 1,1 0,2 1,1 0,2 1,1 0,2 1,1 0,3 -1,1 2,0 1,1 0,2 1,1 0,1 2,0 0,-1 1,-1 -2,0 -1,-1 0,-2 -1,-1 0,-2 1,-1 -2,0 -1,-1 0,-3 1,-1 0,-1 -2,0 -1,-1 0,-3 -1,-1 0,-5 -1,-1 0,-7 -1,-1 0,-8 -1,-1 0,-9 1,-1 0,-10 1,-1 9,0 1,-1 19,0 1,1 0,1 1,1 0,4 -1,1 0,2 66,-35 -67,35 56,-64 3,0 1,1 11,0 1,1 0,8 -1,1 -2,0 -1,1 -4,0 -8,-12 -56,64 55,-63 -4,0 -1,1 0,3 5,-4 -55,63 55,-52 0,0 -5,-1 0,-1 -3,2 8,0 -55,52 14,-19 3,0 0,-1Z"/>
<path onmouseover="hoverPath(evt)" onmouseout="recoverPath(evt)" fill="rgb(188,207,230)" d="M  61,49l 0,14 1,1 0,1 13,0 1,-1 4,0 1,-1 23,0 1,-1 6,0 1,1 15,0 0,-4 -12,0 -1,-1 -13,0 -1,1 -23,0 -1,-1 -1,-1 -1,-1 0,-1 -1,0 -1,-1 0,-2 -1,0 -1,-1 -2,0 -1,-1 -1,0 -1,-1 -2,0 -1,-1 -1,1Z"/>
<path onmouseover="hoverPath(evt)" onmouseout="recoverPath(evt)" fill="rgb(243,242,232)" d="M  131,1l 0,14 5,0 0,-8 1,-1 0,-6 -5,0 -1,1Z"/>
<path onmouseover="hoverPath(evt)" onmouseout="recoverPath(evt)" fill="rgb(240,239,227)" d="M  145,1l 0,3 -1,1 0,5 -1,1 0,4 11,0 1,-1 0,-14 -9,0 -1,1Z"/>
<path onmouseover="hoverPath(evt)" onmouseout="recoverPath(evt)" fill="rgb(244,243,236)" d="M  166,249l 0,0 -1,1 -1,1 -1,0 -1,1 -1,0 0,1 -1,1 0,1 33,0 0,-1 -1,-1 0,-3 1,-1 3,0 0,-2 1,-1 1,-1 5,0 0,-3 1,-1 1,-1 1,0 1,-1 3,0 0,-1 1,-1 4,0 0,-1 1,-1 0,-1 1,-1 3,0 0,-1 1,-1 0,-2 1,-1 4,0 1,1 1,0 1,-1 0,0 -1,-1 0,-2 1,-1 0,-1 1,-1 4,0 0,-2 1,-1 2,0 0,-1 1,-1 4,0 1,-1 0,-1 1,-1 2,0 0,-1 1,-1 3,0 1,-1 1,0 0,-3 1,-1 2,0 0,-36 -1,0 -1,1 0,1 -1,1 1,1 0,2 -1,1 -2,0 -1,1 0,1 -1,1 0,1 -1,1 -1,1 0,1 -1,1 -1,1 -1,0 0,2 -1,1 -1,1 -1,1 -1,0 0,2 -1,1 -1,1 -4,4 -1,1 -1,1 -1,1 -1,0 -1,1 -1,1 -1,0 0,1 -2,2 -1,1 -1,0 -1,1 -1,1 -2,0 0,1 -1,1 -1,1 -1,0 -1,1 -1,1 -1,0 -1,1 -1,1 -1,1 -1,0 -1,1 -1,1 -1,0 -1,1 -1,1 -1,0 -1,1 -1,1 -1,0 -1,1 -1,1 -1,1 -2,0 0,1 -1,1 -2,0 0,1 -1,1 -2,0 0,1 -1,1 -2,0 0,1 -1,1 -1,1 -2,0 0,1 -1,1 -1,1 -1,0 -1,1 -1,1 -1,0 -1,1 -1,1 -1,0 -1,1 -2,2 -2,0 0,1 -1,1Z"/>
<path onmouseover="hoverPath(evt)" onmouseout="recoverPath(evt)" fill="rgb(242,240,230)" d="M  59,2l 0,12 1,1 9,0 1,-1 1,0 0,-1 1,-1 0,-3 -1,-1 0,-2 1,-1 3,0 1,1 0,8 1,0 1,1 1,-1 19,0 1,1 22,0 0,-15 -62,0Z"/>
<path onmouseover="hoverPath(evt)" onmouseout="recoverPath(evt)" fill="rgb(244,238,231)" d="M  101,210l 0,0 -1,1 1,1 1,0 1,1 1,1 1,1 1,1 1,0 1,1 1,1 0,1 2,0 1,1 1,1 1,1 1,0 1,1 1,1 1,1 0,1 2,0 1,1 1,1 1,1 0,3 1,1 1,0 0,-2 1,-1 0,-1 1,-1 0,-1 1,-1 2,0 1,-1 0,-2 1,-1 0,-1 1,-1 2,0 1,-1 0,-3 1,-1 0,-3 1,-1 2,0 1,1 0,-2 1,-1 1,0 0,-2 1,-1 1,0 0,-2 1,-1 1,0 0,-2 1,-1 1,0 0,-2 1,-1 0,-1 1,-1 0,-1 1,-1 0,-1 1,-1 0,-1 1,-1 1,-1 0,-1 -1,-1 0,-4 1,-1 2,-2 3,0 0,-6 1,-1 1,-1 0,-1 -1,-1 0,-4 2,-2 0,-3 1,-1 -1,-1 -1,-1 0,-1 -1,-1 -1,1 -1,0 -2,2 -1,1 -2,0 -1,-1 -1,-1 -1,0 0,2 -1,1 -1,1 0,1 -1,1 -1,0 -1,1 -1,1 0,2 -1,1 -1,1 -1,1 0,1 -1,1 -3,0 -1,1 -4,4 -1,1 -4,0 2,1 0,2 -1,1 0,1 -1,1 -1,1 0,1 -1,1 -1,0 -1,1 -1,1 -1,1 -1,1 -1,1 -1,1 -1,1 -1,1 -1,1 -3,0 0,1 -1,1 -1,0 -1,1 -1,1 -1,1 -1,1 0,2 -1,1 -1,1 -1,1 -1,1 -1,0 -1,1Z"/>
<path onmouseover="hoverPath(evt)" onmouseout="recoverPath(evt)" fill="rgb(242,239,229)" d="M  131,82l 0,9 -1,1 0,6 -1,1 0,10 -1,1 0,1 1,1 0,4 1,1 0,1 1,1 27,0 1,1 0,1 1,-1 1,0 0,-5 1,-1 1,0 0,-1 1,-1 1,0 1,-1 2,0 0,-1 1,-1 2,0 -1,-1 0,-3 -1,0 -1,-1 0,-3 1,-1 1,0 0,-3 1,-1 0,-1 -1,-1 0,-2 1,-1 0,-1 1,-1 0,-1 1,-1 0,-1 1,-1 1,-1 0,-2 1,-1 1,0 1,-1 3,0 1,1 1,1 0,-1 -1,-1 0,0 -1,-1 0,-2 -1,-1 0,-2 -5,0 0,4 -1,1 0,2 -1,1 -1,0 -1,1 -2,0 -1,-1 -18,0 -1,-1 -14,0 -1,-1 -1,-1 -1,-1 0,-4 -1,5 0,3 28,31 -1,1 0,1 -1,1 -2,0 -1,-1 0,-2 1,-1 0,-1 1,-1 2,0 1,1 0,2 -28,-31Z"/>
<path onmouseover="hoverPath(evt)" onmouseout="recoverPath(evt)" fill="rgb(243,242,233)" d="M  0,27l 0,23 2,0 1,-1 2,0 1,-1 1,0 1,-1 1,0 1,-1 1,0 1,-1 1,0 1,-1 1,0 1,-1 2,0 1,-1 2,0 1,-1 3,0 1,-1 11,0 1,1 4,0 1,1 3,0 1,1 2,0 1,1 3,0 1,1 1,0 0,-19 -1,-1 0,-4 -1,-1 -10,0 -1,1 -5,0 -1,1 -12,0 -1,1 -7,0 -1,1 -11,0 -1,1 -3,0Z"/>
<path onmouseover="hoverPath(evt)" onmouseout="recoverPath(evt)" fill="rgb(240,239,226)" d="M  0,123l 0,16 1,0 1,-1 2,0 1,-1 3,0 0,-1 -1,-1 0,-2 -2,0 -1,-1 0,-2 1,-1 0,-1 -1,-1 0,-2 -1,-1 0,-2 -1,-1 0,-2 -1,-1 0,-5 -1,0Z"/>
<path onmouseover="hoverPath(evt)" onmouseout="recoverPath(evt)" fill="rgb(253,253,253)" d="M  14,195l 0,5 -1,1 -1,1 -1,1 2,0 2,-2 1,0 2,-2 1,0 1,-1 1,0 0,-1 1,-1 1,-1 1,-1 1,0 1,-1 1,-1 1,-1 1,0 1,-1 3,0 0,-2 1,-1 0,-1 1,-1 1,-1 1,0 1,-1 1,-1 1,-1 0,-1 -1,0 -1,1 0,0 -1,1 -1,1 -1,1 -1,1 -2,0 0,1 -1,1 -1,1 -1,1 -1,1 -1,1 -1,1 -2,0 0,1 -1,1 -1,1 -1,0 -1,1 -1,1 -1,1 -3,0 -1,3 -1,1 6,-4 2,-2 -7,-1 -3,9 -1,-1 -1,1 0,0 -1,1 -1,0 -1,1 -1,1 -2,0 0,1 -1,1 -2,0 0,2 1,0 0,-1 2,-1 1,0 2,-2 1,0 1,-1 1,-1 1,0 1,-1 3,-9Z"/>
<path onmouseover="hoverPath(evt)" onmouseout="recoverPath(evt)" fill="rgb(244,243,235)" d="M  132,227l 0,0 -1,1 -2,0 0,1 -1,1 0,1 -1,1 0,1 1,0 1,1 1,1 1,0 1,1 1,1 1,1 0,1 2,0 1,1 2,2 1,0 1,1 1,1 1,0 1,1 1,1 6,0 1,-1 1,-1 1,0 1,-1 1,0 1,-1 1,-1 1,0 1,-1 1,-1 1,0 1,-1 1,-1 1,0 1,-1 1,0 1,-1 1,-1 2,0 0,-1 1,-1 1,-1 1,0 1,-1 1,-1 1,0 1,-1 1,-1 1,-1 1,0 1,-1 1,-1 1,0 1,-1 1,-1 1,0 1,-1 1,-1 1,0 1,-1 2,-2 1,0 1,-1 1,-1 2,0 0,-1 2,-2 1,0 2,-2 1,0 2,-2 1,0 1,-1 1,-1 2,0 0,-1 2,-2 1,0 2,-2 2,0 0,-1 1,-1 1,-1 0,-2 -1,0 -1,-1 -1,-1 -1,0 -1,-1 -1,-1 -1,0 -1,-1 -1,-1 -1,0 -1,-1 -1,-1 -1,0 -1,-1 -1,-1 -1,0 -1,-1 -1,-1 -2,0 -1,-1 0,-2 -2,0 -1,-1 -1,-1 -1,0 -1,-1 -1,-1 -1,0 -1,-1 -1,-1 -1,0 -1,-1 -1,-1 -2,0 -1,-1 0,-1 -1,-1 -1,0 -1,-1 -1,-1 -1,0 -1,-1 -1,-1 -2,0 -1,-1 0,-1 -1,-1 -1,0 -1,-1 -1,1 0,0 -1,1 -3,0 -1,1 -1,1 0,2 1,1 0,3 -1,1 -1,1 0,6 -1,1 -3,0 -1,1 -1,1 0,2 1,1 0,3 -1,1 -1,1 0,1 -1,1 0,1 -1,1 0,1 -1,1 0,1 -1,1 0,2 -1,1 -1,0 0,2 -1,1 -1,0 0,2 -1,1 -1,0 0,2 -1,1 -1,0 0,2 -1,1 -2,0 -1,-1 0,3 -1,1 0,3 -1,1 -1,1 -2,0 0,1 -1,1 0,2 -1,1Z"/>
<path onmouseover="hoverPath(evt)" onmouseout="recoverPath(evt)" fill="rgb(251,226,224)" d="M  213,19l 0,0 -1,-1 0,-4 1,-1 5,0 1,-1 1,0 1,-1 0,-1 1,-1 0,-3 -1,-1 0,0 -1,-1 -5,0 -1,-1 -1,-1 0,-2 -2,0 0,1 -1,1 0,7 -1,1 0,6 -1,1 0,4 1,1 0,1 1,1 0,5 -1,1 -1,0 -1,1 -1,0 1,1 0,1 4,-5 9,0 1,-1 2,0 1,-1 7,0 1,-1 13,0 1,-1 2,0 0,-1 -1,0 -2,1 -11,0 -3,1 -5,0 -3,1 -1,0 -2,1 -4,0 -1,-1 0,-1 -3,0 -1,-1 0,-4 1,-1 3,0 1,1 1,0 0,-1Z"/>
<path onmouseover="hoverPath(evt)" onmouseout="recoverPath(evt)" fill="rgb(241,240,229)" d="M  4,76l 0,8 -1,1 0,7 1,1 0,8 1,1 0,7 1,1 0,5 1,1 0,3 2,0 1,1 0,3 -1,1 0,1 2,0 1,1 0,2 -1,1 1,1 0,2 2,0 1,1 0,2 -1,1 0,1 4,0 1,-1 1,0 0,-1 1,-1 0,-3 -1,-1 0,-15 1,-1 2,0 1,1 0,10 1,1 0,8 2,0 1,-1 2,0 1,-1 2,0 1,-1 1,0 1,-1 1,0 0,-9 -1,-1 0,-10 -1,-1 0,-15 -1,-1 0,-5 -1,-1 0,-3 -1,0 -2,-2 0,-2 1,-1 0,-1 1,-1 0,-2 -1,-1 0,-1 -17,0 -1,1 -9,0Z"/>
<path onmouseover="hoverPath(evt)" onmouseout="recoverPath(evt)" fill="rgb(242,240,231)" d="M  27,146l 0,0 -1,1 0,2 1,1 1,1 0,3 1,1 1,0 1,1 0,1 2,0 1,1 1,1 1,1 1,1 1,1 1,1 1,1 1,1 1,0 1,1 1,0 1,-1 1,0 1,-1 1,0 1,-1 1,0 1,-1 1,0 1,-1 1,-1 1,0 1,-1 2,0 1,-1 1,0 1,-1 1,0 1,-1 2,0 1,-1 0,-3 1,-1 -1,-1 0,0 -1,-1 0,-1 -2,0 -1,-1 -1,-1 -1,-1 0,-1 -2,0 -1,-1 0,-2 -8,0 -1,1 -11,0 -1,1 -1,0 -1,1 -1,0 -1,1 -2,0 -1,1Z"/>
<path onmouseover="hoverPath(evt)" onmouseout="recoverPath(evt)" fill="rgb(245,197,115)" d="M  39,255l 9,0 0,-2 1,-1 1,-1 2,0 1,-1 1,-1 0,-1 1,-1 1,0 1,-1 1,-1 1,-1 1,-1 1,0 0,-1 1,-1 -1,-1 0,-2 1,-1 1,-1 3,0 1,-1 1,-1 1,-1 0,-1 1,-1 5,0 0,-1 1,-1 2,0 1,1 0,2 1,0 0,-2 1,-1 2,0 1,1 0,2 1,1 2,0 1,-1 2,0 1,1 0,2 1,0 1,1 0,1 1,0 1,1 1,0 1,1 0,1 1,0 1,1 1,0 1,1 3,0 1,1 0,1 1,-1 0,0 1,-1 1,-1 2,0 0,-3 -3,0 -1,-1 -1,-1 -2,0 -1,-1 -1,-1 -1,-1 0,-1 -1,-1 -1,0 -1,-1 0,-3 -2,0 -1,-1 -1,0 -1,-1 -1,-1 0,-6 1,-1 1,0 -1,-1 0,-2 1,-1 0,-1 1,-1 2,0 1,-1 1,0 1,-1 0,-1 1,-1 1,-1 1,0 1,-1 1,-1 1,-1 0,-2 1,-1 4,-4 1,0 0,-1 1,-1 3,0 1,-1 1,-1 1,-1 1,-1 1,-1 1,-1 1,-1 1,-1 1,-1 1,0 0,-1 1,-1 1,-1 0,-1 1,-1 -1,0 -1,-1 0,-2 1,-1 4,0 1,-1 1,-1 1,-1 1,-1 1,-1 1,-1 3,0 0,-1 1,-1 1,-1 1,-1 0,-2 2,-2 1,-1 1,0 0,-1 2,-2 0,-2 1,-1 3,0 1,1 1,1 3,-3 1,0 1,-1 2,0 1,1 1,1 0,1 1,1 1,1 0,2 -1,1 0,1 2,0 1,-1 0,0 1,-1 2,0 1,1 1,0 1,1 1,1 0,1 2,0 1,1 1,1 1,0 1,1 1,1 1,0 1,1 1,1 0,1 2,0 1,1 1,1 1,0 1,1 1,1 1,0 1,1 1,1 1,0 1,1 1,1 1,0 0,-2 -2,0 -1,-1 -1,-1 -1,0 -1,-1 -1,-1 -1,0 -1,-1 -1,-1 -1,0 -1,-1 -1,-1 -1,0 -1,-1 -1,-1 -1,0 -1,-1 -1,-1 -1,-1 -1,0 -1,-1 -1,-1 -1,0 -1,-1 -1,-1 -1,-1 -1,0 -1,-1 0,-2 -1,-1 0,-2 -1,1 -3,0 -1,-1 -1,0 -1,-1 -1,-1 -1,-1 0,-1 -1,-1 0,-2 1,-1 1,-1 -1,0 -1,-1 0,-2 1,-1 1,-1 1,-1 1,-1 1,0 0,-2 1,-1 1,-1 1,0 1,-1 1,0 1,-1 2,0 1,-1 3,0 1,-1 0,-1 -1,-1 0,-1 -1,-1 0,-3 1,-1 2,0 1,-1 0,-3 -1,-1 0,-2 1,-1 2,0 0,-1 1,-1 -1,-1 0,-2 1,-1 0,-1 1,-1 0,-1 1,-1 0,-1 1,-1 1,-1 0,-3 1,-1 1,-1 1,0 0,-1 1,-1 3,0 -1,-1 -1,0 -1,-1 0,-3 1,-1 0,-3 1,-1 0,-2 1,-1 1,-1 1,0 0,-1 1,-1 -1,0 -1,-1 0,-2 1,-1 1,-1 1,0 0,-1 1,-1 -1,0 -1,-1 0,-2 1,-1 0,-3 1,-1 0,-4 1,-1 0,-5 1,-1 0,-4 1,-1 0,-4 1,-1 0,-4 2,-2 1,-1 0,-1 -1,-1 0,-2 1,-1 1,0 1,-1 1,0 0,-3 -1,-1 0,-1 -1,-1 0,-6 1,-1 0,-6 1,-1 0,-7 1,-1 -13,0 0,3 -1,1 0,1 -1,1 2,0 1,1 0,4 -1,1 -2,0 0,1 -1,1 0,5 -1,1 -9,0 -1,1 -1,0 0,8 2,0 1,-1 1,0 1,-1 1,-1 1,0 1,-1 2,0 1,1 0,2 -1,1 -1,1 1,1 0,2 1,1 0,6 -1,1 -1,0 0,1 1,1 0,0 1,1 0,3 -1,1 -2,0 0,1 -1,1 0,5 -1,1 1,0 1,1 0,0 1,1 0,1 1,1 0,4 -1,1 -2,0 -1,-1 -1,0 -1,1 -1,1 3,0 1,1 0,2 -1,1 0,1 1,1 0,3 -1,1 -2,0 -1,-1 0,-1 -1,-1 -1,1 0,1 1,1 0,2 1,1 1,1 0,3 -1,1 -2,0 -1,-1 -1,-1 -1,0 -1,1 -1,0 0,2 -1,1 -1,1 0,1 -1,1 0,1 -1,1 0,1 -1,1 1,1 0,3 -1,1 0,3 -1,1 -1,0 0,1 1,0 1,1 0,3 1,1 0,2 -1,1 -2,0 0,1 -1,1 -2,0 -1,1 -1,0 0,1 -1,1 -1,0 0,5 -1,1 -1,0 0,2 -1,1 -4,0 0,2 -1,1 0,2 -1,1 -1,1 -1,0 0,1 -1,1 -1,0 0,1 -2,2 0,1 -1,1 -1,1 -1,0 0,2 -1,1 -1,1 -1,0 0,1 -1,1 -1,0 -1,1 -2,2 -1,0 0,1 -1,1 -2,2 -1,1 -4,4 -1,1 -3,3 -1,1 -1,1 -1,1 -2,0 0,3 -1,1 -4,4 -1,1 -1,0 -1,1 -2,2 -1,1 -1,1 0,1 -1,1 -2,0 0,1 -1,1 -1,0 -1,1 0,1 -1,1 -1,0 -2,2 -1,1 -2,0 -1,1 -1,1 -1,1 -1,1 -1,1 -1,1 -1,1 0,4 -1,1 -1,1 -1,1 -2,0 -1,1 -1,1 -1,1 -1,1 -4,0 0,5 -1,1 -2,0 -1,1 -3,0 -1,1 -1,1 0,2 -1,1 -1,1 -1,1 -1,1 0,1 -1,1 -5,0 0,1 -1,1 -1,0 0,3 -1,1 -1,1 -1,1 0,1 -1,1 -4,0 0,2 -1,1 -1,1 -1,1 -1,1 -1,1 -3,0 -2,2 0,2 -1,1 -1,1 -1,1 -1,1 0,2 -1,1 -2,0 -1,1 0,2Z"/>
<path onmouseover="hoverPath(evt)" onmouseout="recoverPath(evt)" fill="rgb(243,242,234)" d="M  36,188l 0,0 -1,1 0,2 -1,1 0,2 1,1 0,3 1,1 0,2 1,1 0,3 1,1 0,4 1,1 0,2 2,0 1,1 1,1 1,1 1,1 2,0 1,1 0,1 1,1 1,1 1,1 1,1 1,1 0,-1 1,-1 5,0 0,-1 1,-1 1,-1 1,-1 1,-1 0,-2 1,-1 2,-2 3,0 1,-1 2,0 0,-4 -1,0 -1,-1 -1,-1 -1,-1 0,-1 -2,0 -1,-1 -1,-1 -1,-1 0,-1 -2,0 -1,-1 -2,-2 -1,-1 0,-1 -2,0 -1,-1 -1,-1 -1,-1 0,-1 -2,0 -1,-1 -1,-1 -1,-1 -1,-1 -1,0 -1,-1 -1,-1 -1,-1 0,-1 -1,1 0,0 -1,1 -1,1 -1,1 -1,0 -1,1Z"/>
<path onmouseover="hoverPath(evt)" onmouseout="recoverPath(evt)" fill="rgb(242,241,232)" d="M  39,84l 0,6 1,1 0,26 1,1 0,9 1,1 0,1 1,-1 2,0 1,-1 2,0 1,-1 2,0 1,-1 2,0 1,-1 2,0 1,-1 2,0 1,-1 2,0 1,-1 4,0 1,-1 7,0 1,-1 1,0 0,-2 -1,0 -1,-1 -3,0 -1,1 -6,0 -1,-1 0,-2 1,-1 3,0 1,-1 6,0 1,-1 2,0 1,1 1,1 1,1 0,3 1,0 1,1 7,0 1,-1 7,0 1,-1 5,0 1,-1 7,0 1,-1 6,0 1,-1 2,0 0,-6 1,-1 0,-9 1,-1 0,-2 -1,-1 -2,0 -1,-1 -10,0 -1,-1 0,-2 1,-1 14,0 0,-3 1,-1 0,-8 1,-1 0,-5 -1,-1 -11,0 -1,-1 -11,0 -1,1 0,1 1,1 0,1 1,1 0,2 -1,1 1,1 0,2 -1,1 -16,0 -1,-1 0,-3 -1,-1 0,-3 1,-1 0,-1 1,-1 -7,0 -1,1 -17,0 -1,1 -9,0 0,1 -1,1 0,1 1,1 0,0 1,1 0,4 -1,1 -8,0 -1,1 -4,0Z"/>
<path onmouseover="hoverPath(evt)" onmouseout="recoverPath(evt)" fill="rgb(242,241,231)" d="M  53,171l 0,0 -1,1 0,3 1,1 0,1 2,0 1,1 1,1 1,1 0,1 2,0 1,1 1,1 1,1 0,1 2,0 1,1 1,1 1,1 0,1 2,0 1,1 1,1 1,1 1,1 0,1 1,0 1,1 1,0 1,1 2,2 1,1 1,0 1,1 0,1 1,-1 0,0 1,-1 0,-4 1,-1 1,-1 1,-1 1,-1 1,-1 1,-1 1,-1 1,-1 2,0 1,-1 1,-1 1,-1 1,0 0,-1 1,-1 1,-1 1,0 0,-1 1,-1 2,0 0,-1 1,-1 1,-1 1,-1 1,-1 1,-1 1,-1 1,0 2,-2 1,-1 2,-2 0,-3 1,-1 2,0 1,-1 1,-1 1,-1 1,-1 1,-1 1,-1 1,-1 1,-1 1,-1 1,-1 1,-1 1,-1 1,-1 1,-1 0,-1 1,-1 1,0 1,-1 1,-1 1,-1 1,0 0,-1 -1,-1 -1,0 -1,1 -2,0 -1,1 -1,0 -1,1 -2,0 0,2 -1,1 -1,0 -1,1 -1,1 -1,0 -1,1 -1,0 -1,1 -3,0 -1,1 -4,0 -1,1 -3,0 -1,1 -3,0 -1,1 -3,0 -1,1 -1,0 -1,1 -3,0 0,2 -1,1 -1,0 -2,2 -1,1 -1,1 -2,0 -1,-1 0,-2 1,-1 1,-1 0,-1 1,-1 1,0 0,-1 1,-1 -2,0 -1,1 -3,0 -1,1 -2,0 0,2 -1,1 -2,0 -1,-1 -2,0 0,3 -1,1 -2,0 -1,-1 -1,-1 -2,0 -1,1 -2,0 0,2 -1,1 -2,0 -1,-1 -1,0 -1,1 0,2 -1,1 -2,0 -1,-1 -1,1 -1,1 -1,0 -1,1Z"/>
<path onmouseover="hoverPath(evt)" onmouseout="recoverPath(evt)" fill="rgb(244,243,235)" d="M  135,36l 0,0 1,1 0,21 2,0 1,-1 2,0 1,-1 1,0 1,-1 1,-1 -1,-1 0,-1 -1,-1 0,-2 -1,-1 0,-1 -1,-1 0,-1 -1,-1 0,-2 -1,-1 0,-1 -1,-1 0,-1 -1,-1 0,-1 -1,-1 -1,1 0,-3 1,0 0,-1 -1,-1 0,-10 1,-1 -4,0 0,2 1,1 0,4 1,1 0,3 1,1Z"/>
<path onmouseover="hoverPath(evt)" onmouseout="recoverPath(evt)" fill="rgb(247,184,166)" d="M  178,123l -1,0 0,1 1,1 0,1 1,1 1,-1 0,0 1,-1 0,-4 1,-1 1,-1 1,-1 0,-3 1,-1 0,-1 1,-1 1,-1 0,-3 1,-1 2,0 0,-6 1,-1 -1,-1 0,-2 1,-1 0,-1 -2,2 0,0 -1,1 1,1 0,2 -1,1 -1,0 -1,1 0,1 -1,1 0,1 -1,1 0,1 -1,1 1,1 0,2 -1,1 0,1 -1,1 -2,0 1,1 0,4 -3,3 2,-1 -1,1 0,3 1,-4 -2,1Z"/>
<path onmouseover="hoverPath(evt)" onmouseout="recoverPath(evt)" fill="rgb(179,201,232)" d="M  1,52l -1,0 0,3 3,0 1,-1 2,0 1,-1 2,0 1,-1 2,0 1,-1 2,0 1,-1 3,0 1,-1 2,0 1,-1 24,0 1,1 3,0 1,1 3,0 0,-3 -2,0 -1,-1 -3,0 -1,-1 -2,0 -1,-1 -3,0 -1,-1 -4,0 -1,-1 -9,0 -1,1 -3,0 -1,1 -2,0 -1,1 -2,0 -1,1 -1,0 -1,1 -1,0 -1,1 -1,0 -1,1 -1,0 -1,1 -1,0 -1,1 -2,0 -1,1Z"/>
<path onmouseover="hoverPath(evt)" onmouseout="recoverPath(evt)" fill="rgb(243,242,233)" d="M  3,212l 0,0 -1,1 -2,0 0,42 25,0 0,-3 1,-1 1,-1 2,0 0,-2 1,-1 1,-1 1,-1 1,-1 0,-2 2,-2 1,-1 3,0 1,-1 1,-1 1,-1 1,-1 0,-2 1,-1 4,0 0,-1 1,-1 1,-1 1,-1 0,-3 -1,-1 0,0 -1,-1 -1,-1 -1,-1 -1,-1 0,-1 -2,0 -1,-1 -1,-1 -1,-1 -1,-1 -2,0 -1,-1 0,-2 -1,-1 0,-4 -1,-1 0,-3 -1,-1 0,-2 -1,-1 0,-3 -1,-1 0,-3 -1,0 -1,1 -1,0 -1,1 -1,1 -1,1 -1,0 -1,1 -1,1 0,1 -1,1 -1,0 -1,1 -1,0 -1,1 -1,1 -1,0 -1,1 -1,1 -1,0 -1,1 -1,1 -1,0 -1,1 -1,1 -1,0 -1,1 -1,1 -1,0 -1,1Z"/>
<path onmouseover="hoverPath(evt)" onmouseout="recoverPath(evt)" fill="rgb(237,234,220)" d="M  43,53l -4,0 -1,-1 -12,0 -1,1 -2,0 -1,1 -2,0 -1,1 -3,0 -1,1 -1,0 -1,1 -2,0 -1,1 -2,0 -1,1 -2,0 -1,1 -1,0 0,2 13,0 1,-1 7,0 1,-1 20,0 1,-1 4,0 1,1 0,3 -1,1 -19,0 0,3 10,0 1,-1 12,0 1,-1 1,0 0,-9 -1,-1 0,-3 -4,0 -1,-1 -3,0 -1,-1 -2,0 0,2 -1,1Z"/>
<path onmouseover="hoverPath(evt)" onmouseout="recoverPath(evt)" fill="rgb(228,218,178)" d="M  70,235l -2,2 -1,1 -3,0 -1,1 1,1 0,2 -1,1 0,1 1,1 0,1 3,0 1,1 0,1 1,1 0,1 2,0 1,-1 2,0 0,-3 -1,-1 0,-6 1,-1 0,-2 1,-1 1,-1 1,-1 0,-2 -1,2 -5,0 0,1 -1,1Z"/>
<path onmouseover="hoverPath(evt)" onmouseout="recoverPath(evt)" fill="rgb(239,236,224)" d="M  125,37l -2,0 -1,-1 -3,0 -1,-1 -4,0 0,1 -1,1 0,8 1,1 12,0 0,-6 -1,-1Z"/>
<path onmouseover="hoverPath(evt)" onmouseout="recoverPath(evt)" fill="rgb(174,199,235)" d="M  134,61l 0,2 7,0 1,1 4,0 1,-1 1,0 0,-2 1,-1 1,0 1,-1 1,0 1,-1 1,0 1,-1 1,0 1,-1 1,-1 1,0 1,-1 1,-1 1,-1 1,-1 1,-1 1,-1 1,-1 1,-1 1,-1 1,-1 1,-1 1,-1 1,-1 1,-1 1,-1 1,-1 1,-1 1,0 1,-1 1,-1 1,0 1,-1 1,0 1,-1 5,0 1,-1 0,-1 -1,-1 0,-2 1,-1 1,-1 -2,1 -1,1 0,3 -1,1 -1,0 -51,28 1,-1 4,0 1,-1 2,0 1,-1 1,0 3,-3 0,0 -12,5 -1,1 13,-7 0,-1 -1,-1 0,-1 -1,-1 0,-2 -1,-1 0,-1 -1,-1 0,-1 -1,-1 0,-2 -1,-1 0,-1 -1,-1 0,-1 -1,-1 0,-1 -1,-1 0,-3 -1,-1 0,-8 1,-1 9,33 -13,7 4,-41 0,0 -4,41 8,-26 0,-2 -1,-1 0,-11 1,14 -8,26 13,-15 0,-2 -1,-1 0,-2 -1,-1 0,-1 -1,-1 3,8 -13,15 43,-26 -1,1 -2,0 -1,1 -1,0 -1,1 -1,0 -1,1 -1,0 -1,1 -1,1 -1,0 0,1 -1,1 -1,1 0,1 -1,1 -1,1 -4,4 -2,0 -1,1 -2,0 -1,-1 -1,-1 -1,-1 -1,-1 29,-13 -43,26Z"/>
<path onmouseover="hoverPath(evt)" onmouseout="recoverPath(evt)" fill="rgb(239,237,224)" d="M  136,123l -1,0 -1,1 0,2 1,1 0,1 1,1 0,1 1,1 0,1 1,1 0,1 1,1 1,0 1,1 1,1 1,1 2,0 1,-1 0,-1 1,-1 1,-1 0,-1 1,-1 1,0 0,-1 1,-1 1,0 1,-1 0,-2 1,-1 0,-1 -1,-1 0,0 -1,-1Z"/>
<path onmouseover="hoverPath(evt)" onmouseout="recoverPath(evt)" fill="rgb(234,231,213)" d="M  174,29l 0,1 -1,1 0,1 -1,1 -1,1 1,1 1,-1 2,0 1,-1 1,0 0,-11 -1,-1 0,0 -1,-1 -15,0 0,1 -1,1 0,2 1,1 12,0 2,2Z"/>
<path onmouseover="hoverPath(evt)" onmouseout="recoverPath(evt)" fill="rgb(243,238,229)" d="M  210,36l 0,0 -1,-1 -2,0 -1,1 -1,1 -1,1 0,4 -1,1 0,4 -1,1 0,4 -1,1 0,5 -1,1 0,4 -1,1 0,3 -1,1 2,-1 0,0 1,-4 2,0 1,1 0,2 1,1 0,1 3,0 1,1 3,0 1,1 4,0 1,1 2,0 1,-1 2,0 1,-1 3,0 1,-1 2,0 1,-1 2,0 1,-1 3,0 1,-1 3,0 1,-1 1,0 0,-4 1,-1 2,0 1,1 0,2 5,0 1,-1 2,0 0,-31 -4,0 -1,1 -10,0 -1,1 -10,0 -1,1 -3,0 -1,1 -2,0 -1,1 -7,0 -1,1 -3,0 -1,-2 1,2Z"/>
<path onmouseover="hoverPath(evt)" onmouseout="recoverPath(evt)" fill="rgb(242,241,231)" d="M  33,8l 2,0 1,1 0,6 1,1 2,0 1,-1 13,0 1,-1 0,-11 -1,-1 0,-2 -53,0 0,19 8,0 1,-1 11,0 1,-1 9,0 1,-1 1,0 0,-7 1,-1Z"/>
<path onmouseover="hoverPath(evt)" onmouseout="recoverPath(evt)" fill="rgb(246,237,227)" d="M  68,255l 40,0 0,-1 -1,-1 0,0 -1,-1 0,-3 1,-1 2,0 0,-1 1,-1 2,0 1,-1 1,-1 -3,0 -1,-1 -1,0 -1,1 0,0 -1,1 -1,1 -2,0 -1,-1 0,3 -1,1 -1,1 -21,0 -1,-1 -1,-1 0,-1 -1,-1 0,-8 1,-1 1,-1 1,-1 2,0 1,-1 -1,-1 0,-2 -1,3 -2,0 -1,1 -1,1 -1,1 0,2 -1,1 0,4 1,1 0,5 -1,1 -2,0 -1,1 -4,0 -1,-1 0,-1 -1,-1 0,-1 -3,0 -1,-1 0,-1 -1,-1 -1,1 -1,1 -1,1 -1,1 -1,0 0,1 -1,1 -1,1 -1,1 -2,0 -1,1 0,1Z"/>
<path onmouseover="hoverPath(evt)" onmouseout="recoverPath(evt)" fill="rgb(242,240,230)" d="M  76,54l 0,1 1,1 1,1 21,0 1,-1 15,0 1,1 10,0 0,-7 -15,0 -1,-1 -1,-1 -1,-1 -7,0 -1,1 -9,0 -1,1 -1,0 0,1 -1,1 -1,0 -1,1 -12,0 0,1 1,0 1,1Z"/>
<path onmouseover="hoverPath(evt)" onmouseout="recoverPath(evt)" fill="rgb(240,238,226)" d="M  79,46l 2,0 1,-1 2,0 1,-1 12,0 1,-1 10,0 0,-1 1,-1 0,-7 -5,0 -1,-1 -6,0 -1,-1 -10,0 -1,-1 -7,0 -1,-1 0,-2 1,-1 1,0 0,-7 -19,0 0,26 3,0 1,1 2,0 1,1 1,0 1,1 1,0 0,-10 1,-1 2,0 1,1 0,8 2,0 1,-1 2,0 -3,-16 0,2 -1,1 -2,0 -1,-1 0,-2 1,-1 2,0 1,1 3,16Z"/>
<path onmouseover="hoverPath(evt)" onmouseout="recoverPath(evt)" fill="rgb(238,235,221)" d="M  84,22l 0,1 -1,1 0,1 1,1 0,1 4,0 1,1 5,0 1,-1 4,0 1,-1 2,0 0,-6 -11,0 -1,-1 -1,0 -1,1 -4,0Z"/>
<path onmouseover="hoverPath(evt)" onmouseout="recoverPath(evt)" fill="rgb(230,231,196)" d="M  91,238l 0,-1 -1,0 -1,-1 0,-2 -1,1 -3,0 -1,1 -1,1 -2,0 -1,1 -1,1 0,6 1,1 0,1 1,1 19,0 1,-1 0,-3 -1,0 -1,-1 -1,0 -1,-1 -1,0 -1,-1 0,-1 -1,0 -1,-1 -1,0 -1,-1Z"/>
<path onmouseover="hoverPath(evt)" onmouseout="recoverPath(evt)" fill="rgb(243,232,148)" d="M  123,14l 0,1 1,1 0,3 -1,1 -16,0 0,5 1,0 1,-1 12,0 1,1 0,2 1,0 1,1 0,4 -1,1 -1,1 1,0 1,1 2,0 1,1 0,2 1,1 0,7 1,1 0,2 -1,1 0,7 1,1 0,6 -1,1 0,3 3,0 1,1 0,3 1,0 1,-1 1,-1 12,0 1,1 20,0 1,1 1,0 1,-1 3,0 1,1 6,0 1,-1 2,0 1,1 1,1 0,1 -1,-3 0,-2 1,-1 -3,0 -1,-1 0,-1 -5,0 -1,1 -4,0 -1,-1 0,-1 -23,0 -1,1 -6,0 -1,-1 -7,0 -1,-1 0,-5 1,-1 1,0 0,-20 -1,-1 0,-4 -1,-1 0,-3 -1,-1 0,-4 -1,-1 0,-3 -1,0 -1,-1 0,-3 1,-1 0,-15 -6,0Z"/>
<path onmouseover="hoverPath(evt)" onmouseout="recoverPath(evt)" fill="rgb(242,239,229)" d="M  151,62l -1,0 0,1 22,0 1,1 0,1 2,0 1,-1 7,0 1,-1 1,-1 1,-1 2,0 1,1 0,-1 -1,-1 0,-1 -1,-1 -1,0 -1,-1 0,-2 1,-1 0,-5 1,-1 0,-1 1,-1 2,0 0,-1 -1,-1 0,0 -1,-1 0,-3 1,-1 1,0 0,-4 -1,1 -5,0 -1,1 -1,0 -1,1 -1,0 -1,1 -1,1 -1,0 -8,8 -1,1 -8,8 -1,0 -1,1 -1,1 -1,0 -1,1 -1,0 -1,1 -1,0 -1,1Z"/>
<path onmouseover="hoverPath(evt)" onmouseout="recoverPath(evt)" fill="rgb(241,239,235)" d="M  195,254l 0,1 60,0 0,-46 -1,0 0,3 -1,1 -1,0 -1,1 -3,0 0,1 -1,1 -2,0 0,1 -1,1 -1,1 -4,0 0,1 -1,1 -2,0 0,2 -1,1 -4,0 0,1 -1,1 1,1 0,2 -1,1 -1,1 -3,0 -1,-1 -2,0 0,2 -1,1 0,1 -1,1 -3,0 0,1 -1,1 0,1 -1,1 -4,0 0,1 -1,1 -3,0 -1,1 -1,0 -1,1 0,3 -1,1 -5,0 -1,1 0,2 -1,1 -3,0 0,1 1,1Z"/>
<path onmouseover="hoverPath(evt)" onmouseout="recoverPath(evt)" fill="rgb(241,239,229)" d="M  226,86l 0,3 1,1 0,2 1,1 0,2 -1,1 0,1 2,0 1,1 0,1 1,1 0,3 -1,1 0,1 2,0 1,1 0,3 -1,1 1,1 0,2 2,0 1,1 0,3 -1,1 0,1 -1,1 1,1 0,2 4,0 1,1 1,1 0,1 1,1 0,1 1,1 0,1 1,1 1,1 1,1 1,-1 1,0 1,-1 2,0 1,1 0,2 -1,1 -1,1 -1,1 -1,0 0,1 -1,1 1,1 0,1 1,1 1,0 1,1 0,2 1,1 1,1 1,1 1,0 0,-81 -3,0 -1,1 -3,0 -1,1 -3,0 -1,1 -2,0 -1,1 -2,0 -1,1 0,2 1,1 0,1 6,0 1,1 0,2 -1,1 -2,0 -1,1 -2,0 -1,1 -5,0 -1,-1 0,-2 1,-1 1,0 -1,-1 0,-3 -1,-1 -2,0 -1,1 -2,0 -1,1 -3,0 -1,1 -3,0 0,2 1,1 0,2 1,1 0,2 1,1 0,3 1,-3 2,0 1,1Z"/>
<path onmouseover="hoverPath(evt)" onmouseout="recoverPath(evt)" fill="rgb(250,239,143)" d="M  0,143l 0,4 4,0 1,1 1,0 1,-1 5,0 1,1 0,1 1,1 1,0 1,1 0,2 2,2 1,0 1,1 0,2 1,1 1,0 1,1 0,2 1,1 0,2 4,0 1,1 0,2 1,1 1,1 1,1 1,1 1,1 1,1 1,1 1,1 0,3 1,-1 3,0 1,1 0,1 1,0 1,1 0,1 1,1 1,1 1,0 1,1 1,1 1,1 1,1 2,0 1,1 0,1 1,1 1,1 2,0 1,1 0,1 1,1 1,1 1,1 2,0 1,1 0,1 1,1 1,1 2,0 1,1 0,1 1,1 1,1 5,0 3,-3 1,-1 -1,0 -1,-1 0,0 -1,-1 -1,-1 -1,-1 -1,0 -1,-1 -1,0 -1,-1 0,-1 -1,-1 -1,-1 -1,-1 -2,0 -1,-1 0,-1 -1,-1 -1,-1 -2,0 -1,-1 0,-1 -1,-1 -1,-1 -2,0 -1,-1 0,-1 -1,-1 -1,-1 -2,0 -1,-1 0,-1 -1,-1 0,-2 -1,1 -2,0 -1,-1 -1,-1 0,-2 1,-1 1,-1 0,-2 1,-1 -2,1 -1,1 -3,0 -1,-1 -1,0 -1,-1 -1,-1 -1,-1 -1,-1 -1,-1 -1,-1 -1,-1 -1,-1 -2,0 -1,-1 0,-1 -1,0 -1,-1 -1,-1 0,-3 -1,-1 -1,-1 0,-1 -2,0 -1,-1 0,-2 -1,-1 0,-1 -1,-1 0,-1 -1,0 -1,-1 -1,-1 0,-1 -3,0 -1,-1 -2,0 -1,1 -3,0 -1,1 -2,0 -1,1 -2,0Z"/>
<path onmouseover="hoverPath(evt)" onmouseout="recoverPath(evt)" fill="rgb(241,239,227)" d="M  11,55l 1,0 1,-1 1,0 1,-1 3,0 1,-1 2,0 1,-1 2,0 1,-1 14,0 1,1 2,0 0,-1 -18,0 -3,1 -3,1 -1,0 -3,1 -2,1 -1,1 -5,2 -1,-1 0,0 -1,1 -4,0 0,12 10,0 1,-1 13,0 1,-1 1,0 0,-2 -9,0 -1,-1 -14,0 -1,-1 0,-4 1,-1 1,0 3,-1 5,-2 -6,2 0,0 6,-2Z"/>
<path onmouseover="hoverPath(evt)" onmouseout="recoverPath(evt)" fill="rgb(242,240,230)" d="M  45,133l 0,0 -1,1 -2,0 -1,1 -1,0 -1,1 -3,0 -1,1 -2,0 -1,1 -1,0 -1,1 -2,0 -1,1 -3,0 -1,1 -2,0 0,1 1,1 0,1 1,1 0,2 1,0 0,-1 1,-1 1,-1 2,0 1,-1 2,0 1,-1 1,0 1,-1 1,0 1,-1 11,0 1,-1 10,0 1,1 0,2 2,0 1,1 0,1 1,1 1,1 2,0 1,1 0,1 1,1 1,1 0,1 1,1 0,1 1,1 0,2 2,0 1,-1 3,0 1,-1 2,0 1,-1 2,0 1,-1 3,0 1,-1 2,0 1,-1 4,0 1,-1 3,0 1,-1 2,0 1,-1 3,0 1,-1 2,0 1,-1 2,0 1,-1 2,0 1,-1 2,0 0,-1 1,-1 0,-1 1,-1 6,0 1,-1 2,0 1,-1 0,-2 -1,-1 0,-2 -1,-1 0,-1 -4,0 -1,-1 0,-2 1,-1 2,0 1,-1 0,-1 -2,0 -1,-1 0,-2 1,-1 -1,-1 -7,0 -1,1 -4,0 -1,1 -1,0 0,4 -1,1 -2,0 -1,-1 0,-1 -1,-1 0,-1 -1,-1 -1,0 -1,1 -7,0 -1,1 -6,0 -1,1 -7,0 -1,1 -7,0 -1,1 -4,0 -1,1 -3,0 -1,1 -2,0 -1,1 -2,0 -1,1 -2,0 -1,1 -2,0 -1,1 -1,0 -1,1Z"/>
<path onmouseover="hoverPath(evt)" onmouseout="recoverPath(evt)" fill="rgb(245,204,125)" d="M  114,247l -1,1 -2,0 0,1 -1,1 -2,0 0,1 1,1 0,0 1,1 0,2 12,0 0,-1 -1,-1 0,-1 -1,-1 0,-1 -1,-1 -1,-1 -1,-1 0,-1 -1,-1 -1,1 -1,1Z"/>
<path onmouseover="hoverPath(evt)" onmouseout="recoverPath(evt)" fill="rgb(248,235,144)" d="M  123,235l 0,0 -1,-1 -1,-1 0,-3 -1,-1 -1,-1 -2,0 -1,-1 0,-1 -1,-1 -1,-1 -1,0 -1,-1 -1,-1 -1,-1 -2,0 -1,-1 0,-1 -1,-1 -1,0 -1,-1 -1,-1 -1,-1 -1,-1 -1,0 -1,-1 -1,-1 -1,1 -2,0 0,1 -1,1 1,1 0,2 -1,1 -1,0 0,4 1,1 1,0 1,1 2,0 1,1 0,3 1,0 1,1 1,1 0,1 1,1 1,1 2,0 1,1 1,1 3,0 1,1 0,5 3,0 1,1 1,0 1,1 1,1 0,1 1,1 1,1 1,1 0,1 1,1 0,1 1,1 0,2 34,0 0,-2 1,-1 0,-1 1,-1 1,0 1,-1 1,0 1,-1 1,-1 0,-1 1,-1 2,0 2,-2 1,-1 1,0 1,-1 1,-1 1,0 1,-1 1,-1 1,0 1,-1 0,-1 1,-1 2,0 1,-1 0,-1 1,-1 2,0 0,-1 1,-1 2,0 0,-1 1,-1 2,0 0,-1 1,-1 2,0 1,-1 1,-1 1,-1 1,0 1,-1 1,-1 1,0 1,-1 1,-1 1,0 1,-1 1,-1 1,0 1,-1 1,-1 1,-1 1,0 2,-2 1,0 1,-1 0,-1 1,-1 2,0 1,-1 1,-1 1,0 1,-1 1,-1 0,-1 1,-1 1,0 1,-1 1,-1 1,0 1,-1 2,-2 1,-1 2,-2 1,-1 1,-1 0,-2 1,-1 1,0 1,-1 1,-1 0,-2 1,-1 1,0 1,-1 0,-1 1,-1 1,-1 0,-1 1,-1 0,-1 1,-1 1,-1 2,0 -1,-1 0,-2 1,-1 0,-1 1,-1 1,-1 2,0 0,-13 -2,0 0,2 -1,1 0,1 -1,1 -1,1 0,1 -1,1 0,1 -1,1 -1,1 0,1 -1,1 0,1 -1,1 0,1 -2,2 0,1 -1,1 -1,1 0,1 -1,1 0,2 -1,1 -1,0 -1,1 0,1 -1,1 -1,1 -1,1 -1,1 0,1 -1,1 -1,1 -2,2 -3,0 -1,1 -2,0 -1,-1 -1,0 -1,-1 -1,0 -1,-1 -1,-1 -1,0 -1,-1 -1,-1 -1,0 -1,-1 -1,-1 -1,0 -1,-1 -1,-1 -1,0 -1,-1 -1,-1 -1,0 -1,-1 -1,-1 -1,0 0,2 2,0 1,1 1,1 1,0 1,1 1,1 1,0 1,1 1,1 1,0 1,1 1,1 1,0 1,1 1,1 1,0 1,1 1,1 1,0 1,1 0,4 -1,1 -1,1 0,1 -1,1 -2,0 -1,1 -1,1 -1,0 -1,1 0,1 -1,1 -2,0 -1,1 -1,1 -1,0 -1,1 -1,1 -1,0 -1,1 -1,1 -1,0 -1,1 0,1 -1,1 -2,0 -2,2 -1,0 -2,2 -1,1 -1,0 -1,1 -1,1 -1,0 -1,1 -1,1 -1,0 -1,1 -1,1 -1,0 -1,1 -1,1 -1,1 -1,0 -1,1 -1,1 -1,0 -1,1 0,1 -1,1 -2,0 -1,1 -1,1 -1,0 -1,1 -1,0 -1,1 -1,1 -1,0 -1,1 -1,1 -1,0 -1,1 -1,1 -1,0 -1,1 -1,0 -1,1 -1,1 -8,0 -1,-1 -1,-1 -1,0 -1,-1 -1,-1 -1,0 -1,-1 -1,-1 -1,-1 -2,0 -1,-1 0,-1 -1,-1 -1,-1 -1,0 -2,-2Z"/>
<path onmouseover="hoverPath(evt)" onmouseout="recoverPath(evt)" fill="rgb(240,238,227)" d="M  158,39l -1,0 -1,-1 -1,-1 0,-4 -4,0 -1,-1 -4,0 -1,-1 0,-5 1,-1 8,0 1,-1 0,-3 -1,-1 -11,0 0,11 1,1 0,2 1,1 0,1 1,1 1,1 0,1 1,1 0,2 1,1 0,2 1,1 0,1 1,1 1,1 1,1 1,-1 2,0 1,-1 2,-2 1,-1 1,-1 0,-1 1,-1 1,-1 0,-1 1,-1 1,0 1,-1 1,-1 1,0 1,-1 -3,0 -1,-1 0,2 -1,1 -2,0 -1,1Z"/>
<path onmouseover="hoverPath(evt)" onmouseout="recoverPath(evt)" fill="rgb(239,202,180)" d="M  172,140l 0,0 1,-1 1,0 1,-1 1,-1 0,-3 2,-2 0,-1 -1,1 -3,0 -1,1 -2,0 -1,1 -1,0 -1,1 -1,0 -1,1 0,2 -1,1 -1,0 -1,1 -1,1 -1,1 1,0 1,1 0,2 -2,2 1,1 0,1 1,1 1,1 1,0 1,1 1,0 1,-1 1,0 1,-1 1,-1 0,-3 1,-1 2,0 0,-1 -1,-1 0,0 -1,-1Z"/>
<path onmouseover="hoverPath(evt)" onmouseout="recoverPath(evt)" fill="rgb(244,242,234)" d="M  172,79l 0,-1 1,-1 0,-4 -1,0 -1,1 -3,0 -1,-1 -20,0 -1,-1 -10,0 -1,1 -1,1 0,3 1,1 0,0 1,1 14,0 1,1 18,0 1,1 2,-2Z"/>
<path onmouseover="hoverPath(evt)" onmouseout="recoverPath(evt)" fill="rgb(238,242,247)" d="M  183,31l -3,0 -1,-1 0,3 1,0 1,-1 1,0 1,-1 -4,-10 0,-1 1,-1 1,0 1,-1 9,0 0,-1 -6,0 -1,-1 0,-1 -1,-1 0,-1 -1,2 0,1 -1,1 -22,0 -1,-1 0,-1 -1,-1 0,1 -1,1 -1,1 -13,0 -1,-1 0,-6 1,-1 0,-5 1,-1 0,-3 -4,0 0,7 -1,1 0,8 -1,1 -7,0 0,1 10,0 1,1 1,-1 13,0 1,1 1,1 1,0 0,-1 1,-1 17,0 1,1 1,1 1,1 4,10 -26,-10 0,4 -1,1 -1,1 -8,0 0,3 4,0 1,1 4,0 1,1 0,4 1,1 2,0 1,-1 2,0 0,-2 1,-1 2,0 1,1 2,0 0,-1 2,-2 0,-1 1,-1 0,-1 -1,-1 -12,0 -1,-1 -1,0 0,-5 26,10Z"/>
<path onmouseover="hoverPath(evt)" onmouseout="recoverPath(evt)" fill="rgb(240,238,227)" d="M  187,15l 4,0 0,-2 1,-1 0,-1 1,-1 2,0 0,-2 -2,0 -1,-1 0,-2 1,-1 0,-1 1,-1 0,-2 -35,0 0,13 1,1 0,1 20,0 0,-1 1,-1 0,-1 1,-1 2,0 1,1 0,1 1,1 1,1Z"/>
<path onmouseover="hoverPath(evt)" onmouseout="recoverPath(evt)" fill="rgb(251,248,244)" d="M  204,70l -1,-1 0,-1 -1,-1 0,-2 -1,0 1,3 -1,1 -1,0 0,2 -1,1 0,1 -1,1 -1,0 -1,1 2,0 1,-1 3,0 1,1 2,0 1,-1 6,0 1,1 0,2 1,1 0,1 2,0 1,1 0,3 1,1 0,2 1,1 0,2 1,1 0,2 1,1 0,2 1,1 0,2 1,1 0,3 -1,1 2,0 1,1 0,2 1,1 0,2 1,1 0,3 -1,1 2,0 1,1 0,3 -1,1 2,0 1,1 0,1 1,1 0,2 1,1 0,2 -1,1 2,0 1,1 1,1 0,1 1,1 1,1 1,1 0,1 1,1 1,1 1,1 0,1 1,1 1,1 1,1 1,1 0,2 1,0 1,1 1,1 1,1 0,2 1,0 1,1 1,1 1,1 0,1 1,0 0,-4 -2,0 -1,-1 -1,-1 -1,-1 -1,-1 0,-2 -1,0 -1,-1 -1,-1 0,-1 -1,-1 0,-2 1,-1 0,-1 1,-1 1,0 1,-1 1,-1 -2,1 -2,1 -1,0 -1,-1 -1,-1 -1,-1 -1,-1 0,-1 -1,-1 0,-1 -1,-1 0,-1 -1,-1 -4,0 -1,-1 0,-2 -1,-1 0,-2 1,-1 0,-1 1,-1 0,-1 -2,0 -1,-1 0,-2 -1,-1 0,-2 1,-1 0,-1 -2,0 -1,-1 0,-3 1,-1 0,-1 -1,-1 0,-1 -2,0 -1,-1 0,-3 1,-1 -1,-1 0,-2 -1,-1 0,-3 -1,3 -2,0 -1,-1 0,-3 -1,-1 0,-2 -1,-1 0,-2 -1,-1 0,-4 1,-1 3,0 1,-1 3,0 1,-1 2,0 1,-1 4,0 1,1 1,1 0,-2 1,-1 1,-1 2,0 1,-1 2,0 1,-1 3,0 1,-1 3,0 1,-1 4,0 0,-2 -1,0 -1,1 -7,0 -1,-1 0,2 -1,1 -1,0 -1,1 -3,0 -1,1 -3,0 -1,1 -2,0 -1,1 -2,0 -1,1 -3,0 -1,1 -2,0 -1,1 -4,0 -1,-1 -4,0 -1,-1 -3,0 -1,-1 -3,0 31,5 0,1 1,1 0,2 -1,1 2,0 1,-1 2,0 1,-1 -4,0 -3,2 2,-4 -1,-1 -31,-5Z"/>
</svg>