<svg width="256" height="256" xmlns="http://www.w3.org/2000/svg"><script> 
var tempColor;
function hoverPath(evt){
obj = evt.target;
tempColor = obj.getAttribute("fill");
obj.setAttribute("fill","red");
//alert(tempColor);
//obj.setAttribute("stroke","red");}
function recoverPath(evt){
obj = evt.target;
obj.setAttribute("fill", tempColor);
//obj.setAttribute("stroke", tempColor);
}</script><path onmouseover="hoverPath(evt)" onmouseout="recoverPath(evt)" fill="rgb(243,241,233)" d="M  40,168l 0,9 1,1 0,9 1,1 0,3 1,1 0,1 1,1 0,2 1,1 0,1 1,1 0,1 1,1 0,1 1,1 0,1 1,1 0,1 1,1 0,1 1,1 0,1 1,1 0,1 1,1 0,2 1,1 0,1 1,1 0,1 1,1 0,1 1,1 0,1 1,1 1,1 0,1 1,1 0,1 1,1 0,1 1,1 0,1 1,1 0,1 1,1 1,1 3,0 1,1 2,0 1,-1 4,0 1,-1 3,0 1,-1 3,0 1,-1 3,0 0,-2 1,-1 2,0 1,-1 2,0 1,-1 3,0 1,1 1,0 1,-1 2,0 1,-1 3,0 0,-2 1,-1 2,0 1,1 1,0 1,-1 1,0 1,-1 1,0 1,-1 1,0 1,-1 0,-1 -1,-1 0,-1 -1,-1 -2,0 -1,-1 -1,-1 0,-1 -2,0 -1,1 -4,0 -1,-1 0,-2 1,-1 1,0 1,-1 3,0 0,-2 -1,-1 0,-1 -1,-1 -1,-1 0,-1 -1,-1 -1,-1 0,-1 -1,-1 -1,-1 0,-1 -1,-1 -2,0 -1,-1 -1,-1 -1,-1 0,-1 -1,-1 -1,-1 0,-1 -1,-1 -1,-1 0,-2 1,-1 -1,-1 0,0 -1,-1 -4,0 -1,-1 0,-4 1,-1 1,0 1,-1 4,0 1,1 0,1 1,1 2,0 1,1 1,1 0,4 1,1 1,1 1,0 1,-1 3,0 1,1 0,2 -1,1 -1,0 -1,1 0,1 1,1 0,0 1,1 0,1 1,1 1,1 0,1 1,1 1,1 0,1 1,1 1,1 0,1 1,1 1,1 1,1 1,0 1,1 0,3 1,1 0,1 1,1 1,1 0,1 1,1 1,1 0,1 2,0 1,-1 1,0 0,-1 1,-1 1,-1 1,0 1,-1 1,0 1,-1 1,-1 1,0 1,-1 1,0 1,-1 0,-2 -1,-1 0,0 -1,-1 0,-1 -1,-1 -1,-1 -2,0 -1,1 -1,0 -1,1 -2,0 -1,-1 0,-2 1,-1 1,0 1,-1 1,0 1,-1 1,0 1,-1 2,0 1,1 1,0 1,1 0,-3 -1,-1 0,0 -1,-1 0,-1 -1,-1 -1,-1 0,-1 -1,-1 0,-4 1,-1 -3,0 -1,1 -4,0 -1,-1 0,-1 -1,0 -1,-1 0,-1 -3,0 -1,-1 0,-2 1,-1 1,-1 1,0 1,-1 1,-1 1,0 1,-1 1,0 1,-1 1,0 1,-1 1,0 1,-1 1,0 1,-1 1,0 1,-1 1,-1 1,0 1,-1 1,0 1,-1 1,0 1,-1 1,0 1,-1 1,0 1,-1 1,0 1,-1 2,0 1,1 1,1 0,1 1,1 0,1 1,0 1,1 0,1 1,1 0,1 1,1 0,1 1,0 1,1 0,2 -1,1 -1,1 -3,0 -1,1 -2,0 -1,-1 -1,1 0,3 -1,1 2,0 1,1 0,2 -1,1 -1,1 -1,0 -1,1 -1,0 -1,1 -2,0 -1,1 -1,0 -1,1 0,2 1,1 0,1 1,1 1,1 0,1 1,1 1,1 0,1 1,1 1,1 1,1 3,0 1,-1 1,0 1,-1 1,0 1,-1 1,0 1,-1 1,-1 2,0 1,-1 1,0 1,-1 1,-1 1,0 1,-1 1,0 1,-1 0,-1 -2,0 -1,1 -2,0 -1,-1 0,-2 1,-1 1,0 1,-1 0,-2 -1,-1 0,0 -1,-1 0,-1 -2,0 -1,1 -2,0 -1,-1 0,-2 1,-1 1,0 1,-1 1,0 1,-1 1,-1 1,0 1,-1 6,0 1,1 0,2 1,1 1,-1 0,0 1,-1 2,0 1,1 -2,-2 0,-1 -1,-1 -2,0 -1,-1 -1,-1 0,-2 -1,0 -1,-1 0,-2 -1,0 -1,-1 0,-2 -3,0 -1,-1 0,-4 -1,-1 -1,-1 0,-2 -1,0 -1,-1 0,-2 -1,0 -1,-1 0,-1 -3,0 -1,1 -7,0 -1,1 -8,0 -1,1 -7,0 -1,1 -7,0 -1,1 -8,0 -1,1 -7,0 -1,1 -6,0 -1,1 -7,0 -1,1 -7,0 -1,1 -6,0 -1,1 -8,0 -1,1 -8,0 -1,1 -8,0 -1,1 -5,0 -1,1 -2,0 -1,1 95,15 1,1 1,0 0,-1 -1,-1 -1,0 0,1 -95,-15 70,17 0,-2 1,-1 1,0 1,-1 1,0 1,-1 2,0 1,1 0,2 -1,1 -1,0 -1,1 -1,0 -1,1 -2,0 -1,-1 -70,-17 116,-6 -1,-1 0,-2 1,-1 2,0 1,1 0,2 -1,1 -2,0 -116,6 40,37 1,1 0,2 -1,1 -2,0 -1,-1 0,-2 1,-1 2,0 -40,-37Z"/>
<path onmouseover="hoverPath(evt)" onmouseout="recoverPath(evt)" fill="rgb(244,243,235)" d="M  164,136l 0,0 1,1 3,0 1,-1 5,0 1,-1 7,0 1,-1 8,0 1,-1 8,0 1,-1 9,0 1,-1 9,0 1,-1 8,0 1,-1 9,0 1,-1 8,0 1,-1 6,0 0,-43 -6,0 -1,1 -4,0 -1,1 -3,0 -1,1 -6,0 -1,1 -3,0 -1,1 0,4 -1,1 -2,0 -1,-1 0,-5 -1,0 0,1 -1,1 -4,0 -1,1 -3,0 -1,1 -3,0 -1,1 -6,0 -1,1 -4,0 -1,1 -4,0 -1,1 -5,0 -1,1 -5,0 -1,1 -4,0 -1,1 -4,0 -1,1 -4,0 -1,1 -5,0 -1,1 -4,0 -1,1 -4,0 -1,1 -3,0 -1,1 1,1 0,0 1,1 0,1 1,1 0,2 1,0 1,1 0,2 1,1 1,1 0,1 1,1 1,1 0,2 -1,1 0,1 1,1 0,0 1,1 1,1 0,1 1,0 1,1 0,2 9,0 1,1 0,2 -1,1 -3,0 0,2 26,-12 -2,0 -1,-1 0,-2 1,-1 2,0 1,1 0,2 -1,1 -26,12Z"/>
<path onmouseover="hoverPath(evt)" onmouseout="recoverPath(evt)" fill="rgb(244,243,235)" d="M  0,1l 0,27 1,0 1,-1 1,0 1,-1 1,-1 1,0 1,-1 1,0 1,-1 1,0 1,-1 1,0 1,-1 1,0 1,-1 1,0 1,-1 1,0 1,-1 1,0 1,-1 1,0 1,-1 1,-1 1,0 1,-1 1,0 1,-1 1,0 1,-1 1,0 1,-1 1,0 1,-1 1,0 1,-1 1,0 1,-1 1,0 1,-1 1,-1 1,0 1,-1 1,0 1,-1 1,0 1,-1 3,0 1,1 1,-1 -1,-1 0,-2 -50,0 -1,1Z"/>
<path onmouseover="hoverPath(evt)" onmouseout="recoverPath(evt)" fill="rgb(171,198,238)" d="M  0,161l 0,8 7,0 1,-1 5,0 1,-1 6,0 1,-1 5,0 1,-1 5,0 1,1 1,1 1,1 0,7 1,1 0,15 1,1 0,2 1,1 1,1 0,1 1,1 0,1 1,1 0,1 1,1 0,1 1,1 0,1 1,1 0,1 1,1 0,1 1,1 0,1 1,1 0,1 1,1 1,1 0,1 1,1 0,2 1,0 1,1 0,1 1,1 0,1 1,1 0,1 1,1 0,1 1,1 0,1 1,1 0,2 1,1 0,1 1,1 0,1 1,1 0,1 7,0 -4,-1 -1,-1 -1,-1 0,-1 -1,-1 0,-1 -1,-1 0,-1 -1,-1 0,-1 -1,-1 0,-1 -1,-1 -1,-1 0,-1 -1,-1 0,-1 -1,-1 0,-1 -1,-1 0,-1 -1,-1 0,-2 -1,-1 0,-1 -1,-1 0,-1 -1,-1 0,-1 -1,-1 0,-1 -1,-1 0,-1 -1,-1 0,-1 -1,-1 0,-1 -1,-1 0,-1 -1,-1 0,-2 -1,-1 0,-1 -1,-1 0,-3 -1,-1 0,-9 -1,-1 0,-11 1,-1 1,-1 2,0 1,-1 5,0 1,-1 8,0 1,-1 8,0 1,-1 8,0 1,-1 6,0 1,-1 7,0 1,-1 7,0 1,-1 6,0 1,-1 7,0 1,-1 8,0 1,-1 7,0 1,-1 7,0 1,-1 8,0 1,-1 7,0 1,-1 4,0 -1,-1 0,-1 -1,-1 -1,-1 -1,-1 0,-1 -1,-1 -1,-1 0,-1 -7,0 -1,1 -5,0 -1,1 -7,0 -1,1 -8,0 -1,1 -7,0 -1,1 -6,0 -1,1 -7,0 -1,1 -7,0 -1,1 -7,0 -1,1 -6,0 -1,1 -7,0 -1,1 -7,0 -1,1 -7,0 -1,1 -6,0 -1,1 -7,0 -1,1 -7,0 -1,1 -9,0 -1,-1 -1,-1 -1,-1 0,-1 -1,-1 0,-1 -1,-1 0,-2 -1,0 -1,-1 0,-3 -1,-1 0,-6 1,-1 -5,0 -1,-1 0,-2 -1,-1 -1,-1 0,-1 -1,-1 0,-1 -1,-1 0,-1 -1,-1 -3,0 0,1 2,0 1,1 0,2 1,1 1,1 0,1 1,1 0,1 1,1 0,1 1,1 0,1 1,1 0,1 1,1 0,1 1,1 0,1 1,1 0,1 1,1 0,2 1,1 0,1 1,1 0,1 1,1 0,3 -1,1 -1,1 -7,0 -1,1 -5,0 -1,1Z"/>
<path onmouseover="hoverPath(evt)" onmouseout="recoverPath(evt)" fill="rgb(243,242,234)" d="M  23,113l 3,0 1,-1 7,0 1,-1 6,0 1,-1 5,0 1,-1 5,0 1,-1 6,0 1,-1 5,0 1,-1 6,0 1,-1 4,0 1,-1 6,0 1,-1 4,0 0,-4 -1,-1 0,-1 -1,-1 0,-5 1,-1 7,0 1,1 0,3 -1,1 3,0 1,-1 1,0 0,-2 -1,-1 0,-3 -1,-1 -1,-1 0,-1 -1,-1 -2,0 -1,-1 -1,-1 0,-2 1,-1 -1,-1 0,0 -1,-1 0,-1 -1,-1 -2,0 -1,-1 0,-2 1,-1 -1,-1 0,0 -1,-1 -1,-1 0,-1 -1,-1 0,-1 -1,-1 -1,-1 0,-1 -1,-1 0,-1 -1,0 -1,-1 0,-1 -1,-1 0,-1 -1,-1 -1,0 -1,1 -2,0 -1,-1 -1,-1 -1,1 -1,0 -1,1 -1,0 -1,1 -2,0 -1,1 -1,0 -1,1 -2,0 -1,1 -1,0 -1,1 -1,0 -1,1 -2,0 -1,1 -1,0 -1,1 -1,0 -1,1 -1,0 -1,1 -2,0 -1,1 -1,0 -1,1 -3,0 -1,1 -2,0 -1,1 -3,0 -1,1 -3,0 -1,1 -7,0 -1,1 -11,0 -1,-1 -6,0 0,6 11,0 1,1 3,0 1,1 2,0 1,1 1,1 2,0 1,1 0,2 -1,1 0,5 -1,1 0,2 1,1 1,0 1,1 1,0 1,1 0,1 1,1 0,6 -1,1 -1,1 -1,1 -1,0 -1,1 -1,0 -1,1 -2,0 0,4 3,0 1,-1 1,0 47,-49 2,0 1,1 0,2 -1,1 -2,0 -1,-1 0,-2 1,-1 -47,49Z"/>
<path onmouseover="hoverPath(evt)" onmouseout="recoverPath(evt)" fill="rgb(243,242,234)" d="M  38,17l -1,0 -1,1 2,0 1,1 1,1 0,3 1,1 0,4 1,1 0,2 1,1 0,2 1,1 0,3 1,1 0,3 1,1 0,3 1,1 0,3 1,0 1,-1 1,0 1,-1 1,0 1,-1 2,0 1,-1 1,0 0,-1 -1,-1 0,-2 1,-1 2,0 1,1 1,1 3,0 1,-1 1,0 1,-1 2,0 1,-1 1,0 1,-1 2,0 1,-1 1,0 1,-1 1,0 0,-1 -1,-1 0,0 -1,-1 -1,-1 0,-2 -1,0 -1,-1 -1,-1 -1,-1 0,-2 -1,0 -1,-1 -1,-1 -1,-1 -1,-1 -1,-1 -2,0 -1,-1 -1,0 -1,-1 -1,-1 -1,-1 0,-1 -1,0 -1,-1 -1,-1 -1,-1 -1,-1 -2,-2 -1,0 -1,1 -1,0 -1,1 -1,0 -1,1 -1,0 -1,1 -1,1 -1,0 -1,1 -1,0 -1,1 18,21 -2,0 -1,-1 0,-2 1,-1 2,0 1,1 0,2 -1,1 -18,-21Z"/>
<path onmouseover="hoverPath(evt)" onmouseout="recoverPath(evt)" fill="rgb(251,202,109)" d="M  55,0l -2,0 0,1 1,1 0,1 1,1 1,1 1,0 1,1 2,0 2,2 1,1 1,1 0,1 1,0 2,2 1,1 0,1 1,0 1,1 1,1 1,1 0,1 2,0 1,1 1,0 1,1 1,1 0,2 4,0 1,1 0,2 1,0 1,1 1,-1 2,0 1,1 1,0 1,1 0,2 1,0 1,-1 3,0 1,1 3,0 1,1 3,0 1,1 6,0 1,1 1,1 10,0 0,-1 1,-1 7,0 1,-1 3,0 1,-1 3,0 1,1 0,1 1,-1 0,0 1,-1 2,0 0,-1 1,-1 1,-1 2,0 1,1 0,-1 1,-1 0,0 1,-1 2,0 1,1 1,-1 1,0 0,-2 1,-1 1,0 1,-1 1,0 1,-1 1,0 1,-1 2,0 0,-1 1,-1 1,0 1,-1 5,0 0,-3 1,-1 2,0 0,-1 1,-1 4,0 1,-1 3,0 0,-1 1,-1 0,-2 1,-1 2,0 1,1 0,-2 1,-1 2,0 1,-1 1,-1 2,0 0,-1 -19,0 0,2 -1,1 -1,0 -2,2 -1,0 -1,1 -1,0 -1,1 -1,0 -1,1 -1,1 -1,0 -1,1 -1,0 -1,1 -1,0 -1,1 -1,1 -2,0 -1,-1 0,2 -1,1 -1,0 -1,1 -1,1 -1,0 -1,1 -1,0 -1,1 -2,0 -1,1 -1,0 -1,1 -2,0 -1,-1 0,1 -1,1 0,0 -1,1 -2,0 -1,-1 -1,0 0,1 -1,1 -1,1 -4,0 -1,1 -6,0 -1,1 -14,0 -1,-1 0,-1 -1,0 -1,-1 0,-1 -2,0 0,1 -1,1 -3,0 -1,-1 -3,0 -1,-1 -2,0 -1,-1 0,-2 -1,0 -1,-1 -1,1 -2,0 -1,-1 0,-3 -1,0 -1,-1 -3,0 -1,-1 -2,0 -1,-1 -2,-2 0,-1 -1,-1 -1,-1 -1,-1 -2,0 -1,-1 0,-2 -1,0 -1,-1 0,-3Z"/>
<path onmouseover="hoverPath(evt)" onmouseout="recoverPath(evt)" fill="rgb(241,240,229)" d="M  109,232l -2,0 -1,1 1,0 1,1 1,0 1,1 0,1 1,1 0,2 1,1 0,3 1,0 1,1 1,1 0,2 -1,1 -3,0 -1,-1 -1,0 -1,-1 -2,0 -1,1 -4,0 -1,-1 -4,0 -1,-1 0,-2 1,-1 7,0 1,-1 1,0 1,-1 1,0 0,-1 -1,-1 -3,0 -1,1 -2,0 -1,1 -5,0 -1,-1 0,-2 1,-1 -2,1 -1,0 -1,1 -3,0 -1,1 -3,0 -1,1 -3,0 -1,1 -4,0 -1,1 -3,0 -1,1 -1,0 1,1 0,1 1,1 0,1 1,1 0,1 1,1 0,1 1,1 0,3 70,0 0,-1 -1,-1 -1,0 -1,-1 0,-2 -1,-1 -1,-1 0,-1 -1,-1 -2,0 -1,-1 -1,-1 0,-4 -1,-1 -1,-1 0,-1 -1,-1 -1,-1 0,-1 -1,-1 -2,0 -1,-1 -1,-1 0,-4 -1,-1 -1,0 -1,1 -2,0 -1,1 -1,0 -1,1 -1,0 -1,1 -1,0 -1,1 -2,0 -1,1Z"/>
<path onmouseover="hoverPath(evt)" onmouseout="recoverPath(evt)" fill="rgb(243,242,233)" d="M  197,64l -1,0 0,1 1,1 0,1 1,1 0,1 1,1 1,1 0,1 2,0 1,1 0,2 -1,1 1,1 0,1 1,1 0,1 1,1 0,1 1,1 0,1 1,0 0,-1 1,-1 3,0 1,-1 4,0 1,-1 4,0 1,-1 4,0 1,-1 4,0 0,-3 1,-1 1,0 1,-1 2,0 1,1 0,1 1,1 0,2 1,-2 3,0 1,-1 4,0 1,-1 4,0 1,1 2,0 0,-21 -1,0 -1,-1 -1,-1 0,-1 -1,-1 0,-2 -5,0 0,2 -1,1 -4,0 -1,1 -3,0 -1,1 -3,0 -1,1 -4,0 -1,1 -6,0 -1,-1 0,-2 -1,-1 0,1 1,3 -1,1 -1,0 -1,1 -2,0 -1,1 -4,0 -1,1 -4,0 -1,1 -3,0 -1,1 -2,0 0,2 -1,1Z"/>
<path onmouseover="hoverPath(evt)" onmouseout="recoverPath(evt)" fill="rgb(244,242,235)" d="M  207,0l -1,0 0,2 -1,1 0,1 -1,1 0,2 1,1 0,4 1,1 0,1 1,1 0,1 1,1 0,1 1,0 1,1 1,1 1,1 1,0 1,1 0,1 1,1 0,4 -1,1 0,3 1,1 0,3 1,1 0,3 2,0 1,1 0,3 -1,1 0,2 2,0 1,1 0,2 1,1 0,2 4,0 1,-1 4,0 1,-1 3,0 1,-1 3,0 1,-1 4,0 0,-2 1,-1 5,0 0,-2 -1,-1 0,-2 -1,-1 0,-2 -1,-1 0,-2 -1,-1 0,-2 -1,-1 0,-2 -1,-1 0,-2 -1,-1 0,-2 -1,-1 0,-2 -1,-1 0,-2 -1,-1 0,-2 -1,-1 0,-1 -1,-1 0,-2 -1,-1 0,-2 -1,-1 0,-2 -1,-1 0,-2Z"/>
<path onmouseover="hoverPath(evt)" onmouseout="recoverPath(evt)" fill="rgb(244,242,234)" d="M  209,202l 0,0 1,1 1,1 0,1 1,1 1,1 0,2 1,0 1,1 1,1 0,1 1,1 1,1 0,1 1,-1 2,0 1,-1 2,0 1,1 1,0 1,1 0,5 -1,1 -2,0 -1,1 0,2 1,1 1,0 1,1 2,0 1,1 1,1 0,1 4,0 1,-1 1,0 1,-1 1,0 1,-1 1,0 1,-1 1,0 1,-1 1,0 1,-1 1,0 1,-1 1,0 1,-1 1,0 1,-1 1,0 1,-1 2,0 0,-78 -3,0 -1,1 -8,0 -1,1 -8,0 -1,1 -8,0 -1,1 -8,0 -1,1 -8,0 0,1 1,1 0,1 1,1 1,1 0,3 -1,1 -3,0 -1,1 -2,0 -1,1 -3,0 -1,1 -2,0 -1,1 -2,0 -1,1 -2,0 -1,1 0,2 5,0 1,1 0,2 -1,1 -2,0 -1,1 -3,0 -1,1 1,1 0,2 -1,1 1,1 1,0 1,1 0,2 1,1 0,-1 1,-1 2,0 1,1 0,2 1,0 1,1 0,2 -1,1 0,3 2,0 1,1 1,1 1,1 0,3 1,1 0,2 1,1 1,1 1,0 1,1 0,1 1,1 0,2 2,0 3,-5 -1,-1 0,-2 1,-1 1,-1 2,0 1,1 0,2 -1,1 -1,1 -2,0 -3,5Z"/>
<path onmouseover="hoverPath(evt)" onmouseout="recoverPath(evt)" fill="rgb(173,199,238)" d="M  237,1l 0,0 1,1 0,2 1,1 0,2 1,1 0,2 1,1 0,1 1,1 0,2 1,1 0,2 1,1 0,2 1,1 0,2 1,1 0,2 1,1 0,2 1,1 0,2 1,1 0,2 1,1 0,2 1,1 0,2 1,1 0,3 1,1 0,2 1,1 0,1 1,1 0,-12 -2,0 -1,-1 0,-2 -1,-1 0,-2 -1,-1 0,-2 -1,-1 0,-2 -1,-1 0,-2 -1,-1 0,-2 -1,-1 0,-2 -1,-1 0,-2 -1,-1 0,-2 -1,-1 0,-2 -1,-1 0,-2 -1,-1 0,-2 -1,-1 0,-3 -2,0 -1,1Z"/>
<path onmouseover="hoverPath(evt)" onmouseout="recoverPath(evt)" fill="rgb(243,242,233)" d="M  242,1l 0,1 1,1 0,2 1,1 0,2 1,1 0,2 1,1 0,2 1,1 0,2 1,1 0,2 1,1 0,2 1,1 0,2 1,1 0,2 1,1 0,2 1,1 0,2 1,1 0,2 1,0 0,-38 -12,0 -1,1Z"/>
<path onmouseover="hoverPath(evt)" onmouseout="recoverPath(evt)" fill="rgb(243,241,232)" d="M  0,82l 0,34 7,0 1,-1 5,0 -1,-1 -7,0 -1,-1 0,-2 1,-1 6,0 1,-1 4,0 1,-1 2,0 1,-1 1,0 1,-1 1,0 1,-1 1,-1 0,-4 -1,-1 0,-1 -1,0 -1,-1 -1,0 -1,-1 -1,-1 0,-4 1,-1 0,-5 1,-1 -2,0 -1,-1 -1,-1 -2,0 -1,-1 -3,0 -1,-1 -10,0Z"/>
<path onmouseover="hoverPath(evt)" onmouseout="recoverPath(evt)" fill="rgb(243,241,232)" d="M  0,194l 0,56 3,0 1,-1 3,0 0,-4 1,-1 2,0 1,1 0,2 1,0 1,1 2,0 1,-1 4,0 1,-1 6,0 1,-1 5,0 1,-1 4,0 0,-5 1,-1 2,0 1,1 0,2 1,1 1,1 1,0 1,-1 3,0 1,-1 4,0 0,-3 -1,-1 0,-1 -1,-1 0,-1 -1,-1 0,-1 -1,-1 0,-1 -1,-1 0,-2 -1,-1 -1,-1 -1,0 -1,1 -5,0 -1,-1 0,-2 1,-1 2,0 1,-1 0,-2 1,-1 2,0 1,1 1,0 0,-1 -1,-1 0,-1 -1,-1 -1,-1 0,-1 -1,-1 0,-1 -1,-1 0,-1 -1,-1 0,-1 -1,-1 0,-1 -1,-1 0,-1 -1,-1 0,-1 -1,-1 0,-1 -1,-1 0,-1 -1,-1 -1,-1 0,-2 -1,-1 0,-15 -1,-1 0,-7 -1,-1 -1,-1 -3,0 -1,1 -5,0 -1,1 -6,0 -1,1 -5,0 -1,1 -8,0 0,23 3,44 0,-2 1,-1 2,0 1,1 0,2 -1,1 -2,0 -1,-1 -3,-44 24,28 0,2 -1,1 -2,0 -1,-1 0,-2 1,-1 2,0 1,1 -24,-28Z"/>
<path onmouseover="hoverPath(evt)" onmouseout="recoverPath(evt)" fill="rgb(251,250,247)" d="M  172,34l -1,0 -1,1 2,0 0,-1 1,-2 0,0 -1,2 1,-3 1,-1 0,-1 -1,-1 -1,-1 0,-2 1,-1 -2,0 -1,-1 -1,-1 -1,0 1,1 0,1 1,1 0,1 1,1 1,1 0,1 1,1 0,1 -1,3 5,0 1,1 0,0 1,-1 -1,0 0,3 -1,1 0,0 1,1 0,1 1,1 1,1 0,1 1,1 0,2 -1,1 2,0 1,1 1,1 0,1 1,1 0,1 1,1 0,2 -1,1 2,0 1,1 1,1 0,5 -1,1 3,0 1,1 1,1 1,1 0,1 1,1 0,1 1,1 0,2 -1,1 2,0 1,1 0,1 1,1 1,1 0,1 1,1 0,1 1,1 0,2 2,0 -1,-1 0,-1 -1,-1 0,-1 -1,-1 0,-1 -1,-1 0,-2 1,-1 -2,0 -1,-1 0,-1 -1,-1 -1,-1 0,-1 -1,-1 0,-1 -1,-1 0,-3 1,-1 -2,0 -3,-3 0,-1 -1,-1 0,-2 1,-1 -1,-1 0,-1 -1,-1 0,-1 -2,0 -1,-1 -1,-1 0,-2 1,-1 -2,0 -1,-1 -1,-1 0,-1 -1,-1 0,-2 1,-1 -3,0 -1,-4 -5,0 4,4Z"/>
<path onmouseover="hoverPath(evt)" onmouseout="recoverPath(evt)" fill="rgb(247,247,243)" d="M  55,243l -4,0 -1,1 -3,0 -1,1 -3,0 -1,-1 -1,-1 -1,-1 0,3 -1,1 -4,0 -1,1 -5,0 -1,1 -6,0 -1,1 -4,0 -1,1 -4,0 -1,-1 -1,0 -1,-1 0,2 -1,1 -3,0 -1,1 -4,0 0,3 5,0 0,-2 1,-1 6,0 1,-1 4,0 1,-1 4,0 1,-1 5,0 1,-1 5,0 1,-1 5,0 1,-1 5,0 1,-1 4,0 1,1 1,1 0,1 1,1 0,1 1,1 1,1 0,3 15,0 0,-2 -1,-1 0,-1 -1,-1 0,-1 -1,-1 0,-1 -1,-1 0,-1 -1,-1 0,-2 1,-1 1,0 1,-1 3,0 1,-1 4,0 1,-1 3,0 1,-1 3,0 1,-1 3,0 1,-1 2,0 1,-1 2,0 1,1 0,2 -1,1 3,0 1,-1 2,0 1,-1 5,0 1,1 1,1 0,3 -1,1 -1,0 -1,1 -1,0 -1,1 -7,0 5,1 2,0 1,-1 4,0 1,1 1,0 1,1 1,0 -1,-1 0,0 -2,-1 0,-3 -55,2 35,-9 -1,1 -3,0 -1,1 -3,0 -1,1 -3,0 -1,1 -4,0 -1,1 -3,0 -1,1 -9,0 -1,-1 0,-1 -1,-1 0,-1 -1,-1 0,-1 -1,-1 0,-2 -1,-1 0,-1 -1,-1 0,-1 -1,-1 0,-1 -1,-1 0,-1 -1,-1 0,-1 -4,0 -1,-1 0,2 -1,1 -1,1 1,0 1,-1 3,0 1,1 1,1 1,1 0,2 1,1 0,1 1,1 0,1 1,1 0,1 1,1 0,1 1,1 0,5 34,-8 -35,9 35,-10 1,-1 1,0 1,-1 2,0 1,-1 1,0 1,1 -8,2 -35,10 47,-9 0,-2 1,-1 2,0 1,-1 2,0 1,-1 2,0 1,-1 1,0 1,-1 1,0 1,-1 1,0 1,-1 2,0 1,-1 3,0 1,1 1,1 0,4 1,1 2,0 1,1 1,1 0,1 1,1 1,1 0,1 1,1 1,1 0,4 1,1 2,0 1,1 1,1 0,1 1,1 1,1 0,2 1,0 1,1 1,1 0,2 2,0 0,-4 -1,-1 -2,0 -1,-1 -1,-1 0,-1 -1,-1 -1,-1 0,-2 -1,0 -1,-1 -1,-1 0,-2 1,-1 -1,-1 -2,0 -1,-1 -1,-1 0,-1 -1,-1 -1,-1 0,-4 -1,-1 -2,0 -1,-1 0,-1 -1,-1 0,-2 1,-1 1,-1 1,0 1,-1 1,0 1,-1 1,0 1,-1 1,0 1,-1 1,0 1,-1 2,0 1,1 1,-1 1,0 0,-2 1,-1 1,0 1,-1 2,0 1,1 1,-1 1,0 0,-2 1,-1 1,-1 1,0 1,-1 1,0 1,-1 1,0 1,-1 1,0 1,-1 1,0 1,-1 1,0 1,-1 1,0 1,-1 2,0 1,1 1,-1 1,0 0,-2 1,-1 1,0 1,-1 2,0 1,1 1,-1 1,0 1,-1 1,0 1,-1 1,0 1,-1 1,0 0,-2 1,-1 -1,-1 0,-2 -1,-1 -1,-1 0,-1 -1,-1 -1,-1 -2,0 -1,-1 -1,1 0,0 -1,1 -2,0 -1,-1 -1,-1 0,-2 -4,0 -1,1 -1,0 -1,1 -1,1 2,0 1,1 0,1 1,1 1,1 0,4 -1,1 3,0 1,1 0,3 -1,1 -1,1 -1,0 -1,1 -1,0 -2,2 -1,0 -1,1 -2,0 -2,2 -1,0 -1,1 -1,0 -1,1 -1,0 -1,1 -5,0 -1,-1 -1,-1 -1,-1 -1,-1 0,-1 -1,-1 -1,-1 0,-1 -1,-1 -1,-1 0,-1 -1,-1 0,-4 1,-1 1,-1 1,0 1,-1 2,0 1,-1 1,0 1,-1 1,0 1,-1 -3,0 -1,-1 0,-2 1,-1 1,0 0,-3 2,-2 2,0 1,1 1,-1 3,0 1,-1 -1,0 -1,-1 0,-1 -1,-1 0,-1 -1,-1 0,-1 -1,0 -1,-1 0,-1 -1,-1 0,-1 -1,-1 -1,1 -1,0 -1,1 -1,0 -1,1 -1,0 -1,1 -1,0 -1,1 -1,0 -1,1 -1,0 -1,1 -1,1 -1,0 -1,1 -1,0 -1,1 -1,0 -1,1 -1,0 -1,1 -1,0 -1,1 -1,0 -1,1 -1,1 -1,0 -1,1 3,0 1,1 0,1 1,0 1,1 0,1 2,0 1,-1 2,0 0,-1 1,-1 3,0 1,1 1,1 0,3 -1,1 -2,0 0,2 1,1 0,1 1,1 1,1 0,1 -37,41 -47,9 86,-46 0,4 -1,1 -2,0 -1,-1 0,-1 -1,0 -1,-1 0,0 -1,1 1,0 4,3 0,1 1,1 1,1 0,4 -1,1 -1,1 -1,0 -1,1 -1,0 -1,1 -1,1 -1,0 -1,1 -1,0 -1,1 0,1 -1,1 -1,0 -1,1 -4,0 -1,-1 0,-1 -1,-1 -1,-1 0,-1 -1,-1 -1,-1 0,-1 -1,-1 0,-3 -1,0 -1,-1 -1,-1 -1,-1 -1,-1 0,-1 -1,-1 -1,-1 0,-1 -1,-1 -1,-1 0,-1 -1,-1 -1,-1 0,-1 -1,-1 -1,-1 0,-3 1,-1 1,-1 1,0 -3,1 -2,0 -1,-1 -1,-1 -1,-1 0,-4 -1,-1 -2,0 -1,-1 -1,-1 0,-1 -2,0 -1,1 -1,0 0,2 4,0 1,1 1,1 1,1 0,2 -1,1 1,1 0,0 1,1 0,1 1,1 1,1 0,1 1,1 1,1 2,0 1,1 1,1 0,1 1,1 1,1 0,1 1,1 1,1 0,1 1,1 1,1 0,1 1,1 0,4 -1,1 -3,0 -1,1 1,0 4,-1 1,0 1,1 0,1 1,1 2,0 1,1 1,1 0,1 1,1 0,3 -1,1 -1,1 -1,0 -1,1 -1,0 -1,1 -1,0 -1,1 -3,0 -1,-1 0,2 -1,1 -3,0 -1,1 -2,0 -1,1 -1,0 41,-34 -86,46Z"/>
<path onmouseover="hoverPath(evt)" onmouseout="recoverPath(evt)" fill="rgb(242,240,231)" d="M  174,19l -5,0 -1,1 2,0 1,1 1,1 2,0 1,1 0,2 -1,1 1,1 0,0 1,1 0,1 1,1 0,1 1,1 2,0 1,1 0,2 -1,1 2,0 1,1 0,2 -1,1 1,1 0,1 1,1 2,0 1,1 0,2 -1,1 1,1 2,0 1,1 0,1 1,1 0,1 1,1 0,2 -1,1 1,1 0,1 1,1 1,1 2,0 1,-1 2,0 1,-1 3,0 1,-1 4,0 1,-1 4,0 1,-1 2,0 1,-1 1,0 -1,-1 0,-4 -1,-1 0,-4 1,-1 0,-1 -2,0 -1,-1 0,-3 -1,-1 0,-3 -1,-1 0,-5 1,-1 0,-2 -1,-1 0,-1 -1,0 -1,-1 -1,-1 -1,-1 -1,0 -1,-1 0,-1 -1,-1 0,-1 -1,-1 0,-1 -1,-1 0,-4 -1,-1 0,-4 1,-1 0,-1 1,-1 0,-1 -5,0 0,2 -1,1 -2,0 -1,1 -1,1 -2,0 0,2 -1,1 -2,0 -1,-1 0,2 -1,1 0,1 -1,1 -3,0 -1,1 -4,0 0,1 -1,1 -2,0 0,3 -1,1Z"/>
<path onmouseover="hoverPath(evt)" onmouseout="recoverPath(evt)" fill="rgb(244,242,235)" d="M  2,131l 0,0 -1,-1 0,-2 -1,0 0,30 5,0 1,-1 7,0 1,-1 0,-1 -1,-1 0,-1 -1,-1 0,-1 -1,-1 0,-2 -1,-1 0,-1 -1,-1 0,-1 -1,-1 0,-1 -1,-1 0,-1 -1,-1 0,-1 -1,-1 0,-1 -1,-1 0,-1 -1,-1 0,-1 -1,-1Z"/>
<path onmouseover="hoverPath(evt)" onmouseout="recoverPath(evt)" fill="rgb(171,198,238)" d="M  165,140l 0,0 1,1 0,1 1,1 1,1 0,1 1,1 1,1 0,1 1,1 2,0 1,-1 7,0 1,-1 10,0 1,-1 3,0 1,-1 4,0 1,-1 12,0 1,-1 8,0 1,-1 8,0 1,-1 8,0 1,-1 8,0 1,-1 4,0 0,-10 -5,0 -1,1 -8,0 -1,1 -9,0 -1,1 -8,0 -1,1 -9,0 -1,1 -9,0 -1,1 -8,0 -1,1 -8,0 -1,1 -7,0 -1,1 -5,0 -1,1 -3,0 -1,1Z"/>
<path onmouseover="hoverPath(evt)" onmouseout="recoverPath(evt)" fill="rgb(242,240,231)" d="M  61,125l 4,0 1,-1 2,0 1,-1 1,0 1,-1 4,0 1,1 1,-1 0,-2 1,-1 1,0 1,-1 2,0 1,-1 2,0 1,-1 3,0 1,-1 4,0 1,-1 3,0 1,-1 2,0 0,-1 -8,0 -1,1 -6,0 -1,1 -6,0 -1,1 -5,0 -1,1 -5,0 -1,1 -4,0 -1,1 -6,0 -1,1 -5,0 -1,1 -5,0 -1,1 -6,0 -1,1 -4,0 0,3 1,0 1,1 1,1 0,1 1,1 0,3 1,1 0,1 1,1 0,2 5,0 1,-1 1,0 1,-1 1,0 1,-1 1,-1 0,-1 1,-1 1,0 1,-1 1,-1 1,0 1,-1 1,0 1,-1 1,0 1,-1 1,0 1,-1Z"/>
<path onmouseover="hoverPath(evt)" onmouseout="recoverPath(evt)" fill="rgb(242,241,232)" d="M  99,101l 7,0 1,-1 6,0 1,-1 5,0 1,-1 3,0 -1,-1 0,0 -1,-1 0,-2 -1,0 -1,-1 -1,-1 0,-1 -1,-1 -1,-1 0,-2 -1,0 -1,-1 -1,-1 0,-1 -1,-1 -1,-1 0,-1 -1,-1 -1,-1 0,-2 -1,0 -1,-1 -1,-1 0,-2 -1,0 -1,-1 -1,-1 0,-2 -1,0 -1,-1 -1,-1 -1,-1 0,-2 -4,0 -1,-1 -1,-1 -1,-1 -1,-1 0,-5 1,-1 0,-2 -2,0 -1,-1 -1,-1 0,-1 -1,-1 -2,0 -1,1 -1,0 -1,1 -2,0 -1,1 -1,0 1,1 0,1 1,1 1,1 0,1 1,1 0,1 1,0 1,1 0,1 1,1 0,1 1,1 1,1 0,1 1,1 0,1 1,1 1,1 1,1 0,1 1,1 0,1 1,1 1,1 0,1 1,1 1,1 0,2 -1,1 1,1 2,0 1,1 1,1 0,1 1,1 1,1 0,3 1,1 0,4 -1,1 -1,0 -1,1 -5,0 -1,-1 0,-2 1,-1 0,-1 -5,0 0,3 1,1 0,1 1,1 0,4 6,0 1,-1Z"/>
<path onmouseover="hoverPath(evt)" onmouseout="recoverPath(evt)" fill="rgb(243,241,232)" d="M  119,21l 0,-2 1,-1 2,0 1,-1 1,0 1,-1 1,0 1,-1 2,0 1,-1 1,0 1,-1 1,0 1,-1 2,0 1,-1 1,0 1,-1 1,0 1,-1 1,0 1,-1 2,0 1,-1 1,0 1,-1 1,0 1,-1 2,0 1,-1 1,0 1,-1 4,0 1,-1 4,0 1,-1 2,0 0,-1 -50,0 0,21Z"/>
<path onmouseover="hoverPath(evt)" onmouseout="recoverPath(evt)" fill="rgb(243,241,233)" d="M  137,44l -2,0 0,3 -1,1 0,2 2,0 1,1 0,3 1,1 0,4 -1,1 0,3 1,1 0,1 12,0 1,1 0,2 1,0 1,-1 4,0 1,1 2,0 1,-1 4,0 1,-1 3,0 1,-1 4,0 1,-1 4,0 1,-1 4,0 1,-1 2,0 0,-3 -1,-1 -2,0 -1,-1 0,-2 1,-1 -1,-1 0,-1 -1,-1 0,-1 -1,-1 -2,0 -1,-1 0,-2 1,-1 -1,-1 0,-1 -1,-1 -1,-1 0,-1 -2,0 -1,-1 0,-1 -1,0 -1,-1 -6,0 -1,-1 -3,0 -1,1 -4,0 -1,1 -4,0 -1,1 -4,0 0,2 -1,1 -3,0 -1,1 -3,0 -1,1Z"/>
<path onmouseover="hoverPath(evt)" onmouseout="recoverPath(evt)" fill="rgb(252,251,250)" d="M  191,165l -3,0 -1,-1 0,-4 1,-1 1,-1 2,0 1,-1 2,0 1,-1 2,0 1,-1 3,0 1,-1 2,0 1,-1 3,0 0,-1 -1,-1 0,0 -1,-1 0,-1 -1,-1 0,-2 -2,0 -1,1 -4,0 -1,1 -3,0 -1,1 -3,0 0,1 2,0 2,-1 3,0 1,-1 4,0 1,1 0,2 -1,1 -2,0 -1,1 -2,0 -1,1 -2,0 -1,1 -1,0 -1,1 -3,0 -1,1 -1,0 -1,1 -3,0 -1,1 -3,0 0,1 1,1 0,0 1,1 1,1 0,1 1,1 2,0 1,1 1,1 1,-1 3,0 1,-1Z"/>
<path onmouseover="hoverPath(evt)" onmouseout="recoverPath(evt)" fill="rgb(252,252,250)" d="M  253,229l 0,1 1,1 1,0 0,-10 -1,0 -1,1 -1,0 -1,1 -1,0 -1,1 -1,0 -1,1 -1,0 -1,1 -1,0 -1,1 -1,0 -1,1 -1,0 -1,1 -1,0 -1,1 -1,0 -1,1 -6,0 1,1 0,1 1,1 0,1 1,1 1,-1 2,0 1,1 1,-1 1,0 1,-1 1,0 1,-1 1,0 0,-2 1,-1 1,0 1,-1 2,0 1,-1 1,-1 3,0 1,1Z"/>
<path onmouseover="hoverPath(evt)" onmouseout="recoverPath(evt)" fill="rgb(239,238,224)" d="M  21,255l 33,0 0,-2 -1,-1 -1,-1 0,-1 -1,-1 0,-1 -1,-1 -2,0 -1,1 -5,0 -1,1 -5,0 -1,1 -5,0 -1,1 -5,0 -1,1 -4,0 -1,1 -4,0 -1,1 -6,0 0,1Z"/>
<path onmouseover="hoverPath(evt)" onmouseout="recoverPath(evt)" fill="rgb(243,226,142)" d="M  121,22l -1,1 -4,0 -1,-1 0,1 -1,1 -2,0 0,1 8,0 1,-1 6,0 1,-1 4,0 1,-1 0,-1 1,-1 1,-1 2,0 1,1 0,1 1,-1 0,-1 1,-1 2,0 1,1 1,-1 1,0 1,-1 2,0 1,-1 1,0 1,-1 1,0 1,-1 1,-1 1,0 0,-2 1,-1 2,0 1,1 1,-1 0,0 1,-1 1,0 1,-1 1,0 1,-1 1,0 1,-1 1,-1 1,0 1,-1 1,0 1,-1 1,0 1,-1 1,-1 1,0 0,-1 -7,0 0,2 -1,1 -2,0 -1,1 -4,0 -1,1 -4,0 -1,1 -1,0 -1,1 -2,0 -1,1 -1,0 -1,1 -1,0 -1,1 -2,0 -1,1 -1,0 -1,1 -1,0 -1,1 -1,0 -1,1 -2,0 -1,1 -1,0 -1,1 -1,0 -1,1 -2,0 -1,1 -1,0 -1,1 -1,0 -1,1 -2,0 0,2 -6,-12 0,-10 -1,7 0,0 -1,1 -5,0 -1,-1 -1,0 0,9 1,-6 0,-2 7,1 1,1 6,12Z"/>
<path onmouseover="hoverPath(evt)" onmouseout="recoverPath(evt)" fill="rgb(243,241,232)" d="M  125,79l 0,0 1,1 0,1 1,1 1,1 0,2 1,0 1,1 1,1 0,1 1,1 1,1 0,2 1,0 1,1 1,1 0,1 1,0 1,1 1,-1 4,0 1,-1 4,0 1,-1 4,0 1,-1 4,0 1,-1 4,0 1,-1 5,0 1,-1 4,0 1,-1 4,0 1,-1 5,0 1,-1 4,0 1,-1 5,0 1,-1 3,0 0,-1 -1,-1 0,-1 -1,-1 0,-1 -1,-1 -1,-1 0,-1 -2,0 -1,-1 0,-2 1,-1 -1,-1 0,-1 -1,-1 0,-1 -1,-1 -1,-1 -5,0 -1,-1 -3,0 -1,1 -4,0 -1,1 -4,0 -1,1 -3,0 -1,1 -4,0 -1,1 -4,0 -1,-1 -2,0 -1,1 -3,0 -1,-1 0,-2 -12,0 -1,-1 0,-1 -1,-1 0,-5 1,-1 0,-2 -1,-1 0,-3 -2,0 -1,-1 0,-4 1,-1 0,-3 1,-1 2,0 1,-1 3,0 1,-1 3,0 0,-2 1,-1 4,0 1,-1 4,0 1,-1 4,0 1,-1 4,0 1,-1 4,0 1,-1 1,0 0,-1 -1,-1 0,-1 -1,-1 -1,-1 0,-1 -1,-1 0,-1 -1,-1 0,-1 -2,0 -1,1 -1,0 -1,1 -1,0 -1,1 -1,0 0,2 -1,1 -1,0 -1,1 -2,0 -1,-1 -1,1 0,2 -1,1 -2,0 -1,-1 0,-1 -1,1 0,1 -1,1 -2,0 -1,1 -1,1 -2,0 -1,-1 0,-1 -1,0 -1,1 -3,0 -1,1 -7,0 0,1 -1,1 -12,0 -1,-1 -1,-1 -5,0 1,1 0,3 -1,1 -2,0 -1,1 -1,0 -1,1 1,1 0,1 1,1 1,1 0,1 1,1 1,1 0,2 1,0 1,1 0,1 1,1 1,1 1,1 0,1 1,1 1,1 0,1 1,1 1,1 0,1 1,1 1,1 0,1 1,1 0,1 1,1 1,1 1,1 1,1 0,1 2,0 1,1 0,2 -1,1 0,2Z"/>
<path onmouseover="hoverPath(evt)" onmouseout="recoverPath(evt)" fill="rgb(247,237,142)" d="M  191,255l 10,0 0,-2 1,-1 1,0 1,-1 1,0 1,-1 1,0 1,-1 1,0 1,-1 1,0 1,-1 1,-1 1,0 1,-1 1,0 1,-1 1,0 1,-1 1,0 1,-1 3,0 1,1 1,1 0,1 1,1 1,1 0,1 1,1 1,1 0,1 1,1 1,1 0,2 11,0 0,-1 -1,-1 0,0 -1,-1 0,-1 -1,-1 -1,0 -1,-1 0,-2 -1,-1 -1,-1 0,-1 -1,-1 -1,-1 0,-1 -1,-1 0,-2 -2,0 -1,-1 -1,-1 0,-1 -1,-1 0,-1 -1,-1 0,-2 1,-1 -1,-1 -2,0 -1,-1 -1,0 -1,-1 -1,-1 0,-4 1,-1 1,-1 2,0 0,-3 -1,0 -1,-1 -1,1 -2,0 -1,1 -2,0 -1,-1 0,-1 -1,-1 -1,-1 0,-1 -1,-1 -1,0 -1,-1 0,-2 -1,-1 -1,-1 0,-1 -1,-1 -2,0 -1,-1 0,-2 -1,-1 0,-1 -1,0 -1,-1 -1,-1 -1,-1 0,-2 -1,-1 0,-3 -1,-1 -1,-1 -2,0 -1,-1 0,-5 1,-1 -1,0 -1,-1 0,-2 -1,2 -2,0 -1,-1 -1,-1 0,-2 -1,0 -1,-1 -1,-1 0,-2 1,-1 -1,-1 0,-1 -1,-1 -1,-1 -2,0 -1,-1 -1,-1 0,-1 -1,-1 -1,-1 -1,-1 0,-5 -1,0 -1,-1 -1,-1 0,-1 -1,-1 0,-1 -2,0 -1,-1 -1,-1 0,-1 -1,-1 -1,-1 0,-1 -1,-1 -1,-1 0,-1 -1,-1 0,-3 -1,-1 0,-4 1,-1 -6,0 -1,-1 0,-2 -1,0 -1,-1 0,-1 -2,-2 -1,-1 0,-3 1,-1 -1,-1 0,0 -1,-1 0,-1 -1,-1 -1,-1 0,-2 -1,0 -1,-1 0,-2 -1,-1 0,-1 -1,-1 -1,-1 0,-2 1,-1 1,-1 3,0 1,-1 4,0 1,-1 4,0 1,-1 5,0 1,-1 4,0 1,-1 4,0 1,-1 4,0 1,-1 5,0 1,-1 5,0 1,-1 4,0 1,-1 4,0 1,-1 6,0 1,-1 3,0 1,-1 3,0 1,-1 4,0 0,-1 1,-1 3,0 1,1 0,5 1,-5 0,0 1,-1 3,0 1,-1 6,0 1,-1 3,0 1,-1 4,0 1,-1 7,0 0,-5 -3,0 -1,-1 -2,0 -1,1 -4,0 -1,1 -3,0 0,1 -1,1 -2,0 -1,-1 0,-2 -1,-1 0,-1 -1,1 -1,0 0,3 -1,1 -4,0 -1,1 -4,0 -1,1 -4,0 -1,1 -4,0 -1,1 -3,0 0,1 -1,1 -10,0 -1,1 -5,0 -1,1 -4,0 -1,1 -5,0 -1,1 -4,0 -1,1 -4,0 -1,1 -5,0 -1,1 -4,0 -1,1 -4,0 -1,1 -4,0 -1,1 -4,0 -1,1 -4,0 -1,1 -2,0 -1,-1 -1,0 -1,-1 0,-1 -1,-1 -1,0 -1,-1 0,-2 -1,-1 -1,-1 0,-1 -1,-1 -1,0 -1,-1 0,-2 -1,-1 -1,-1 0,-1 -2,0 -1,-1 0,-4 1,-1 -2,0 -1,-1 0,-1 -1,-1 -1,-1 -1,-1 -1,-1 0,-1 -1,-1 0,-1 -1,-1 -1,-1 0,-1 -1,-1 -1,-1 0,-1 -1,-1 -1,-1 0,-1 -1,-1 -1,-1 -1,-1 0,-1 -1,0 -1,-1 0,-2 -1,-1 -1,-1 0,-1 -1,-1 -1,-1 0,-1 -1,-1 0,-2 1,-1 1,-1 1,0 1,-1 2,0 0,-1 -1,-1 0,-2 -3,0 -1,-1 -3,0 -1,-1 -1,0 -1,1 -3,0 -1,-1 0,-2 -1,0 -1,-1 -1,1 -2,0 -1,-1 -1,0 -1,-1 0,-2 -4,0 -1,-1 0,-2 -1,-1 -1,0 -1,-1 -2,0 -1,-1 0,-1 -1,-1 -1,-1 -1,0 -1,-1 0,-1 -1,-1 -1,-1 -1,0 -1,-1 0,-1 -1,-1 -1,-1 -1,-1 -2,0 -1,-1 -1,0 -2,-2 -1,1 0,2 1,1 0,0 1,1 1,1 1,1 1,1 1,1 1,0 1,1 0,1 1,1 1,1 1,0 1,1 2,0 1,1 2,2 1,1 1,1 1,0 1,1 0,2 1,1 1,1 1,0 1,1 0,2 1,1 1,1 1,1 0,3 -1,1 -1,0 -1,1 -1,0 -1,1 -2,0 -1,1 -1,0 -1,1 -2,0 -1,1 -1,0 -1,1 -5,0 -1,-1 -1,-1 1,2 0,2 -1,1 -1,0 -1,1 -2,0 -1,1 -1,0 -1,1 -1,0 -1,1 -2,0 0,1 -1,1 -1,1 -1,0 -1,1 -1,0 -1,1 -2,0 -1,1 -2,0 -1,1 -2,0 -1,1 -3,0 -1,1 -3,0 -1,1 -5,0 -1,1 -4,0 -1,-1 0,-1 -1,1 -1,0 -1,1 -2,0 -1,-1 0,-1 -1,-1 0,1 -1,1 -5,0 0,8 7,0 1,1 9,0 1,-1 7,0 1,-1 3,0 1,-1 3,0 1,-1 2,0 1,-1 3,0 1,-1 1,0 1,-1 2,0 1,-1 1,0 1,-1 1,0 1,-1 1,0 1,-1 2,0 1,-1 1,0 1,-1 1,0 1,-1 2,0 1,-1 1,0 1,-1 2,0 1,-1 1,0 1,-1 1,0 1,-1 1,0 1,-1 2,0 1,1 1,1 -1,-2 0,-1 1,-1 1,0 1,-1 2,0 1,-1 1,0 1,-1 4,0 1,1 1,1 0,1 1,1 2,0 1,1 0,4 -1,1 0,3 1,1 0,0 1,1 1,1 4,0 1,1 0,2 1,1 1,1 1,0 1,1 0,2 1,1 1,0 1,1 0,2 1,1 1,0 1,1 0,2 1,1 1,1 0,1 1,1 1,1 0,1 1,1 1,0 1,1 0,2 1,1 1,1 0,1 1,1 1,0 1,1 0,2 1,1 1,1 0,2 -1,1 -3,0 -1,1 -5,0 -1,1 -6,0 -1,1 -7,0 -1,1 -7,0 -1,1 -4,0 -1,1 -6,0 -1,1 -4,0 -1,1 -6,0 -1,1 -5,0 -1,1 -6,0 -1,1 -5,0 -1,1 -5,0 -1,1 -6,0 -1,1 -7,0 -1,1 -4,0 -1,1 -5,0 -1,-1 0,-4 -3,0 -1,1 1,0 1,1 0,0 1,1 0,2 -1,1 -5,0 -1,1 -8,0 0,5 4,0 1,1 2,0 1,-1 6,0 1,-1 6,0 1,-1 5,0 0,-1 1,-1 2,0 1,1 3,0 1,-1 6,0 1,-1 5,0 1,-1 5,0 1,-1 6,0 1,-1 4,0 1,-1 5,0 1,-1 5,0 1,-1 6,0 1,-1 6,0 1,-1 9,0 0,-1 1,-1 2,0 1,-1 2,0 1,1 5,0 1,-1 8,0 1,-1 4,0 0,-1 1,-1 2,0 1,1 1,1 0,2 1,1 1,1 0,1 1,1 0,2 1,0 1,1 0,2 1,0 1,1 0,1 1,1 2,0 1,1 1,1 0,1 1,1 1,1 1,1 0,2 -1,1 1,1 0,1 1,1 1,1 1,0 1,1 1,1 0,4 3,0 1,1 0,1 1,1 1,1 0,1 1,1 1,1 1,1 0,1 1,1 0,3 1,0 1,1 0,2 1,0 1,1 0,2 1,1 1,1 0,4 3,0 1,1 0,2 1,0 1,1 0,2 1,0 1,1 0,2 1,1 2,0 1,1 1,1 0,1 1,1 1,1 0,1 1,1 1,1 1,1 0,1 1,1 1,1 0,2 1,1 0,2 -1,1 2,0 1,1 0,1 1,1 1,1 0,1 1,1 1,1 0,1 1,1 1,1 0,1 1,1 1,1 0,1 1,1 1,1 0,5 3,0 1,1 1,1 0,1 1,1 1,1 0,1 1,1 1,1 0,1 1,1 1,1 0,1 1,1 1,0 1,1 0,2 1,1 1,1 0,1 1,1 1,1 0,3 -1,1 -1,0 -1,1 -1,0 -1,1 -1,0 -1,1 -1,0 -1,1 -1,0 -1,1 -1,0 -1,1 -1,0 -1,1 -1,0 -1,1 -1,0 -1,1 -1,0 -1,1 -1,0 -1,1 -1,0 -1,1 -1,0 -1,1 -1,0 -1,1 -1,0 -1,1 -3,0 -1,-1 -1,-1 -1,-1 0,1 -1,1 0,0 1,1 0,2Z"/>
<path onmouseover="hoverPath(evt)" onmouseout="recoverPath(evt)" fill="rgb(245,244,237)" d="M  204,254l -1,0 0,1 27,0 0,-1 -1,-1 0,0 -1,-1 0,-1 -1,-1 -1,-1 0,-1 -1,-1 -1,-1 0,-1 -1,-1 -1,0 -1,1 -1,0 -1,1 -1,0 -1,1 -1,0 -1,1 -1,0 -1,1 -1,1 -1,0 -1,1 -1,0 -1,1 -1,0 -1,1 -1,0 -1,1Z"/>
<path onmouseover="hoverPath(evt)" onmouseout="recoverPath(evt)" fill="rgb(243,241,232)" d="M  237,238l -1,0 -1,1 1,1 0,1 1,1 1,1 0,1 1,1 1,1 0,2 1,0 1,1 1,1 0,1 1,1 1,1 0,2 10,0 0,-22 -1,0 -1,1 -2,0 -1,-1 0,-2 1,-1 0,-1 -1,0 -1,1 0,0 -1,1 -2,0 -1,1 -1,0 0,2 -1,1 -1,0 -1,1 -1,0 -1,1 -1,0 -1,1Z"/>
<path onmouseover="hoverPath(evt)" onmouseout="recoverPath(evt)" fill="rgb(171,198,238)" d="M  0,31l 0,2 2,0 1,-1 0,0 1,-1 1,0 1,-1 1,-1 1,0 1,-1 1,0 1,-1 1,0 1,-1 1,0 1,-1 1,0 1,-1 1,0 1,-1 1,0 1,-1 1,0 1,-1 1,0 1,-1 1,0 1,-1 2,0 1,-1 1,0 1,-1 1,0 1,-1 1,0 1,-1 1,0 1,-1 1,0 1,-1 1,0 2,-2 1,0 1,-1 1,0 1,-1 1,0 1,-1 1,0 0,-2 -1,-1 -1,0 -1,1 -1,0 -1,1 -1,0 -1,1 -1,0 -1,1 -1,1 -1,0 -1,1 -1,0 -1,1 -1,0 -1,1 -1,0 -1,1 -1,0 -1,1 -1,0 -1,1 -1,0 -1,1 -1,0 -2,2 -1,0 -1,1 -1,0 -1,1 -1,0 -1,1 -1,0 -1,1 -1,0 -1,1 -1,0 -1,1 -1,0 -1,1 -1,0 -1,1 -1,0 -1,1 -1,1 -1,0 -1,1 -1,0 -1,1Z"/>
<path onmouseover="hoverPath(evt)" onmouseout="recoverPath(evt)" fill="rgb(242,240,230)" d="M  0,55l 0,5 4,0 0,-3 1,-1 2,0 1,1 0,2 1,1 0,1 1,-1 1,0 1,-1 3,0 0,-3 -1,-1 0,-4 -1,-1 0,-3 -1,-1 0,-4 -1,-1 0,-4 -1,-1 0,-6 -1,1 -1,0 -1,1 -1,1 -1,0 -1,1 -1,1 -3,0Z"/>
<path onmouseover="hoverPath(evt)" onmouseout="recoverPath(evt)" fill="rgb(195,217,154)" d="M  12,31l 0,4 1,1 0,4 1,1 0,4 1,1 0,3 1,1 0,4 1,1 0,5 -1,1 1,0 1,-1 5,0 1,-1 3,0 1,-1 3,0 1,-1 2,0 1,-1 2,0 1,-1 2,0 1,-1 1,0 1,-1 1,0 1,-1 0,-4 -1,-1 0,-3 -1,-1 0,-3 -1,-1 0,-3 -1,-1 0,-2 -1,-1 0,-2 -1,-1 0,-4 -1,-1 0,-3 -1,-1 -3,0 -1,-1 -1,1 -1,0 -1,1 -2,0 -1,1 -1,0 -1,1 -1,0 -1,1 -1,0 -1,1 -1,0 -1,1 -1,0 -1,1 -1,0 -1,1 -1,0 -1,1 -1,0Z"/>
<path onmouseover="hoverPath(evt)" onmouseout="recoverPath(evt)" fill="rgb(243,241,232)" d="M  19,151l 0,0 1,1 0,1 1,1 1,1 7,0 1,-1 7,0 1,-1 7,0 1,-1 6,0 1,-1 7,0 1,-1 7,0 1,-1 7,0 1,-1 6,0 1,-1 7,0 1,-1 7,0 1,-1 7,0 1,-1 6,0 1,-1 7,0 1,-1 8,0 1,-1 7,0 1,-1 5,0 1,-1 4,0 0,-3 -1,-1 -1,0 -1,-1 -1,-1 -1,-1 0,-1 -1,-1 0,-2 1,-1 -1,-1 0,0 -1,-1 -1,-1 0,-1 -1,-1 -2,0 -1,-1 -1,-1 0,-1 -1,0 -1,-1 0,-2 -1,0 -1,-1 0,-2 -1,-1 0,-1 -1,-1 -1,-1 0,-2 -1,-1 0,1 -1,1 -4,0 -1,1 -8,0 -1,1 -7,0 -1,-1 -1,1 -2,0 0,4 -1,1 -2,0 -1,1 -3,0 -1,1 -4,0 -1,1 -3,0 -1,1 -2,0 -1,1 -2,0 -1,1 -1,0 0,2 -2,2 -2,0 -1,-1 -2,0 -1,1 -1,0 -1,1 -2,0 -1,1 -5,0 0,2 -1,1 -2,0 -1,-1 0,2 -1,1 -2,0 -1,-1 -1,1 0,0 -1,1 -1,0 0,1 -1,1 -1,1 -1,1 -1,0 -1,1 -1,0 -1,1 -7,0 -1,-1 0,-2 -1,-1 0,-1 -1,-1 0,-3 -1,-1 0,-1 -1,-1 -1,0 -1,-1 0,-5 -1,2 -5,0 -1,1 -6,0 -1,1 -6,0 -1,1 -2,0 1,1 0,1 1,1 0,1 1,1 1,1 0,2 5,0 1,1 0,2 -1,1 0,4 1,1 0,3 1,0 1,1 0,2 1,1 0,1 123,-21 0,2 -1,1 -2,0 -1,-1 0,-2 1,-1 2,0 1,1 -123,21 95,-34 2,0 1,1 0,2 -1,1 -2,0 -1,-1 0,-2 1,-1 -95,34Z"/>
<path onmouseover="hoverPath(evt)" onmouseout="recoverPath(evt)" fill="rgb(240,235,220)" d="M  108,15l 0,2 -1,1 -2,0 -1,-1 0,-11 1,-1 3,0 1,1 3,0 1,-1 0,-5 -46,0 0,2 1,0 1,1 0,2 2,0 1,1 1,1 1,1 1,1 0,1 1,1 1,1 2,0 1,1 3,0 1,1 1,0 1,1 0,3 1,-1 2,0 1,1 1,0 1,1 0,2 2,0 1,1 3,0 1,1 1,0 0,-1 1,-1 4,0 1,1 0,1 1,0 1,1 0,1 2,0 0,-2 1,-1 2,0 0,-11 -1,-1 -3,0 0,1 -1,1Z"/>
<path onmouseover="hoverPath(evt)" onmouseout="recoverPath(evt)" fill="rgb(243,242,234)" d="M  130,222l -1,0 -1,1 1,1 0,1 2,0 1,1 1,1 0,4 1,1 1,1 0,1 1,1 2,0 1,1 1,1 0,2 -1,1 1,1 1,0 1,1 0,2 1,1 1,1 0,1 1,1 2,0 1,1 1,1 0,5 31,0 0,-1 -1,-1 0,-2 1,-1 0,-1 1,-1 2,0 1,1 1,1 1,1 1,0 1,-1 1,0 1,-1 1,0 1,-1 1,0 1,-1 1,0 1,-1 1,0 1,-1 1,0 1,-1 1,0 1,-1 1,0 1,-1 1,0 1,-1 1,0 1,-1 1,0 1,-1 1,0 1,-1 1,0 1,-1 1,0 1,-1 1,0 0,-1 -1,-1 0,0 -1,-1 0,-1 -1,-1 -1,-1 0,-2 -1,0 -1,-1 -1,-1 0,-1 -1,-1 -1,-1 0,-1 -1,-1 -1,-1 0,-1 -1,-1 -1,-1 0,-1 -1,-1 -1,0 -1,1 -2,0 -1,-1 0,-2 1,-1 0,-3 -1,-1 -1,-1 0,-1 -1,-1 -1,-1 0,-1 -1,-1 -1,-1 0,-1 -1,-1 -1,-1 0,-1 -1,-1 -1,-1 0,-1 -1,0 -1,1 -1,0 -1,1 -1,0 -1,1 -1,0 -1,1 -1,0 -1,1 -2,0 -1,-1 -1,1 -1,0 0,2 -1,1 -1,0 -1,1 -2,0 -1,-1 -1,1 -1,0 -1,1 -1,0 -1,1 -1,0 -1,1 -1,0 -1,1 -1,0 -1,1 -1,0 -1,1 -1,0 -1,1 0,2 -1,1 -1,0 -1,1 -2,0 -1,-1 -1,1 -1,0 0,2 -1,1 -1,0 -1,1 -2,0 -1,-1 -1,1 -1,0 -1,1 -1,0 -1,1 -1,0 -1,1 -1,0 -1,1Z"/>
<path onmouseover="hoverPath(evt)" onmouseout="recoverPath(evt)" fill="rgb(238,235,223)" d="M  174,151l 0,0 1,1 0,1 1,1 1,0 1,1 0,2 2,0 1,-1 3,0 1,-1 1,0 1,-1 3,0 1,-1 1,0 1,-1 2,0 1,-1 2,0 1,-1 2,0 -6,1 -1,0 -2,1 -3,0 -1,-1 0,-2 -5,0 -1,1 -7,0 -1,1Z"/>
</svg>