<svg width="256" height="256" xmlns="http://www.w3.org/2000/svg"><script> 
var tempColor;
function hoverPath(evt){
obj = evt.target;
tempColor = obj.getAttribute("fill");
obj.setAttribute("fill","red");
//alert(tempColor);
//obj.setAttribute("stroke","red");}
function recoverPath(evt){
obj = evt.target;
obj.setAttribute("fill", tempColor);
//obj.setAttribute("stroke", tempColor);
}</script><path onmouseover="hoverPath(evt)" onmouseout="recoverPath(evt)" fill="rgb(242,241,231)" d="M  44,96l 0,4 -1,1 0,6 -1,1 0,5 -1,1 0,7 -1,1 0,6 -1,1 0,5 -1,1 0,5 -1,1 1,0 1,-1 2,0 1,1 18,0 1,-1 0,-4 -1,-1 0,-5 -1,-1 0,-5 -1,-1 0,-10 1,-1 0,-2 1,-1 0,-3 -1,-1 0,-5 -1,-1 0,-4 -1,-1 0,-3 -3,0 -1,-1 -1,0 -1,1 -1,0 0,3 -1,1 -4,0 -1,1Z"/>
<path onmouseover="hoverPath(evt)" onmouseout="recoverPath(evt)" fill="rgb(238,237,229)" d="M  55,8l 0,1 -1,1 0,4 -1,1 0,4 -1,1 0,5 -1,1 0,4 -1,1 0,6 -1,1 0,6 -1,1 0,6 -1,1 0,6 -1,1 0,5 -1,1 0,6 13,0 1,1 3,0 0,-1 -1,-1 0,-1 -1,-1 0,-1 -1,-1 0,-5 1,-1 3,0 0,-3 1,-1 5,0 0,-4 1,-1 2,0 1,-1 1,0 0,-5 1,-1 1,-1 5,0 1,1 0,2 1,1 0,2 -1,1 0,8 1,0 1,-1 0,-1 1,-1 1,0 1,-1 1,-1 1,-1 0,-1 1,-1 1,-1 1,0 0,-2 2,-2 1,-1 1,0 0,-1 1,-1 1,0 1,-1 1,-1 1,-1 1,-1 1,0 1,-1 0,-2 1,-1 1,0 0,-1 1,-1 1,-1 4,0 0,-3 -4,0 -1,-1 0,-3 2,-2 3,0 1,-1 2,0 1,-1 4,0 1,-1 4,0 0,-4 -1,-1 0,-1 -1,-1 -2,0 -1,-1 -2,0 0,2 -1,1 0,2 -1,1 -7,0 -1,1 -4,0 0,2 -1,1 -3,0 -1,1 0,2 -1,1 -4,0 -1,-1 -1,1 -2,0 -1,-1 -1,-1 -1,0 -1,-1 -1,-1 0,-1 -2,0 -1,-1 -1,-1 -1,0 -1,-1 -1,-1 -1,0 -1,-1 -1,-1 0,-1 -2,0 -1,-1 -1,-1 -1,0 -1,-1 -1,-1 -1,0 -1,1 -3,0 -1,-1 -1,-1 -1,0 -1,-1 -1,-1 -1,0 -1,-1 -1,1Z"/>
<path onmouseover="hoverPath(evt)" onmouseout="recoverPath(evt)" fill="rgb(243,241,232)" d="M  192,207l -2,0 -1,1 0,1 1,1 0,2 -1,1 -1,0 0,4 -1,1 0,4 -1,1 0,2 1,0 1,1 0,1 4,0 1,1 0,2 3,0 1,1 6,0 1,-1 6,0 1,1 0,2 6,0 1,-1 8,0 1,1 0,2 3,0 1,1 0,1 1,1 0,7 1,1 0,3 1,1 0,1 1,1 0,3 20,0 0,-59 -2,0 0,3 1,1 0,10 -1,1 -1,1 -1,1 -1,1 -1,1 -1,1 -1,1 0,2 -1,1 -1,1 -1,0 -1,1 0,1 -1,1 -1,1 0,1 -1,1 -3,0 -1,-1 0,-3 1,-1 1,0 1,-1 0,-1 -1,0 -1,-1 0,-1 -1,-1 -1,-1 -1,-1 -1,-1 -1,-1 -1,-1 -1,0 -1,-1 -5,0 -1,-1 -5,0 -1,-1 -5,0 -1,-1 -5,0 -1,-1 -5,0 -1,-1 -6,0 -1,1Z"/>
<path onmouseover="hoverPath(evt)" onmouseout="recoverPath(evt)" fill="rgb(244,243,235)" d="M  0,1l 0,71 6,0 1,-1 10,0 1,-1 15,0 1,-1 2,0 0,-2 1,-1 0,-7 1,-1 0,-7 1,-1 0,-6 1,-1 0,-7 1,-1 0,-7 1,-1 0,-5 1,-1 0,-4 1,-1 0,-4 1,-1 0,-4 1,-1 0,-6 -45,0 -1,1Z"/>
<path onmouseover="hoverPath(evt)" onmouseout="recoverPath(evt)" fill="rgb(245,234,144)" d="M  32,105l 0,0 -1,1 0,4 -1,1 0,10 -1,1 0,5 -1,1 0,6 -1,1 0,5 -1,1 0,5 -1,1 0,5 -1,1 0,8 -1,1 -1,0 0,3 -1,1 0,2 -1,1 0,2 -1,1 0,1 -1,1 0,2 -1,1 0,2 -1,1 0,1 -1,1 0,2 -1,1 0,2 -1,1 0,1 -1,1 0,2 -1,1 0,1 -1,1 0,2 -1,1 0,1 -1,1 0,2 -1,1 0,2 -1,1 0,2 -1,1 0,2 -1,1 0,1 -1,1 0,1 1,1 0,2 -1,1 -3,0 0,24 1,0 0,-1 1,-1 0,-2 1,-1 0,-1 1,-1 0,-2 1,-1 0,-1 2,-2 0,-2 1,-1 2,0 1,-1 3,0 1,1 0,0 1,1 0,1 2,0 1,1 4,0 1,-1 6,0 1,-1 1,0 0,-2 -8,0 -1,-1 -7,0 -1,1 17,-121 -22,121 -1,-1 0,-2 1,-1 0,-3 1,-1 0,-2 1,-1 0,-1 1,-1 0,-2 1,-1 0,-1 1,-1 0,-2 1,-1 0,-2 1,-1 0,-1 1,-1 0,-2 1,-1 0,-2 1,-1 0,-1 1,-1 0,-2 1,-1 0,-1 1,-1 0,-2 1,-1 0,-1 1,-1 0,-2 1,-1 0,-2 1,-1 0,-1 1,-1 0,-2 1,-1 0,-2 1,-1 0,-2 1,-1 0,-3 1,-1 0,-3 1,-1 0,-5 1,-1 0,-5 1,-1 0,-5 1,-1 0,-5 1,-1 0,-5 1,-1 0,-6 1,-1 0,-7 1,-1 0,-5 1,-1 0,-6 1,-1 0,-5 1,-1 5,0 0,-4 -6,0 -1,-1 -16,0 9,1 0,4 -1,1 0,4 -1,1 0,5 -22,122 22,-121Z"/>
<path onmouseover="hoverPath(evt)" onmouseout="recoverPath(evt)" fill="rgb(253,252,252)" d="M  48,1l 0,6 -1,1 0,4 -1,1 0,4 -1,1 0,4 -1,1 0,5 -1,1 0,7 -1,1 0,7 -1,1 0,6 -1,1 0,7 -1,1 0,7 -1,1 0,3 5,0 0,-7 1,-1 0,-5 1,-1 0,-6 1,-1 0,-6 1,-1 0,-6 1,-1 0,-6 1,-1 0,-4 1,-1 0,-5 1,-1 0,-4 1,-1 0,-4 1,-1 0,-3 1,-1 1,-1 2,0 1,1 1,0 1,1 1,1 1,0 1,1 1,1 1,0 0,-2 -1,-1 0,-1 -4,0 -1,-1 -1,-1 0,-2 -9,0 -1,1Z"/>
<path onmouseover="hoverPath(evt)" onmouseout="recoverPath(evt)" fill="rgb(243,241,232)" d="M  82,137l 0,0 -1,1 -1,0 -1,1 -1,1 0,1 -1,1 -1,1 0,1 -1,1 -1,0 0,3 -1,1 0,1 -1,1 -1,1 -3,0 2,1 0,3 -1,1 -1,0 0,2 -1,1 2,0 1,1 3,0 1,1 0,2 3,0 1,-1 5,0 1,1 0,2 3,0 1,1 4,0 1,-1 5,0 1,1 0,2 3,0 1,1 4,0 1,-1 6,0 1,1 0,2 6,0 1,1 12,0 1,1 11,0 1,1 10,0 1,1 10,0 1,1 9,0 1,-1 8,0 0,-1 1,-1 0,-4 1,-1 0,-4 1,-1 1,0 -1,-1 0,-2 1,-1 -2,0 -1,1 -2,0 0,2 -1,1 -5,0 -1,-1 0,-4 1,-1 1,0 0,-5 -1,2 -1,1 -1,1 -2,0 -1,-1 -6,0 -1,-1 -4,0 -1,-1 -1,0 -1,-1 -1,-1 0,-2 -1,-1 0,-4 -1,-1 0,-2 -2,0 -1,1 -5,0 -1,-1 -5,0 -1,-1 -1,-1 0,-3 1,-1 0,-1 1,-1 1,-1 -2,1 -1,0 -1,-1 0,-2 -1,-1 -1,-1 -1,0 -1,-1 -1,-1 0,-4 -2,0 -1,-1 -1,-1 0,-3 -1,-1 -5,0 -1,-1 0,-2 -1,0 -1,-1 -2,0 -1,-1 -2,0 -1,-1 -1,1 -2,0 -1,-1 -2,0 -1,-1 -1,0 -1,-1 0,-2 1,-1 1,0 1,-1 0,-1 -2,0 -1,-1 0,3 -1,1 -1,1 -1,1 -2,0 -1,-1 0,1 -1,1 0,2 -1,1 0,2 -1,1 0,2 -1,1 0,1 -1,1 0,4 -1,1 0,2 -1,1 -1,1 0,1 -1,1 -1,0 -1,1 -1,0 -1,1 -1,0 -1,1 -3,0 -1,1 -1,1Z"/>
<path onmouseover="hoverPath(evt)" onmouseout="recoverPath(evt)" fill="rgb(242,241,233)" d="M  124,25l 1,1 0,2 1,1 1,1 0,1 1,1 0,4 -1,1 -1,0 -1,1 -1,1 -1,0 -2,2 -1,0 0,1 1,1 0,0 1,1 1,1 1,0 0,-1 1,-1 0,-1 1,-1 0,-1 1,-1 1,-1 1,-1 0,-1 1,-1 1,-1 1,-1 0,-6 -1,-1 0,-7 1,-1 0,-1 1,-1 0,-2 1,-1 0,-1 1,-1 0,-1 1,-1 0,-1 1,-1 0,-2 1,-1 0,-4 -78,0 0,1 1,1 4,0 1,1 0,1 1,1 0,2 2,0 1,1 1,1 1,0 1,1 1,1 2,0 1,1 0,1 1,1 1,0 1,1 1,1 1,0 1,1 1,1 2,0 1,1 0,1 1,1 1,0 1,1 1,1 1,-1 2,0 1,1 2,0 0,-2 1,-1 1,-1 3,0 0,-2 1,-1 4,0 1,-1 7,0 0,-2 1,-1 0,-2 1,-1 4,0 1,1 2,0 2,2 0,1 1,1 0,10 -1,1Z"/>
<path onmouseover="hoverPath(evt)" onmouseout="recoverPath(evt)" fill="rgb(171,198,237)" d="M  140,1l 0,4 -1,1 0,2 -1,1 0,1 -1,1 0,1 -1,1 0,1 -1,1 0,2 -1,1 0,1 -1,1 0,5 1,1 0,8 -1,1 -1,1 -1,1 0,1 -1,1 -1,1 -1,1 0,1 -1,1 0,1 -1,1 1,0 1,1 1,-1 0,-2 1,-1 1,-1 1,-1 1,-1 1,-1 1,-1 0,-1 1,-1 0,-2 1,-1 -1,-1 0,-6 -1,-1 0,-3 1,-1 0,-2 1,-1 0,-1 1,-1 0,-1 1,-1 0,-1 1,-1 0,-1 1,-1 0,-1 1,-1 0,-7 -1,0 -1,1Z"/>
<path onmouseover="hoverPath(evt)" onmouseout="recoverPath(evt)" fill="rgb(242,241,231)" d="M  144,1l 0,7 -1,1 0,1 -1,1 0,1 -1,1 0,1 -1,1 0,1 -1,1 0,1 -1,1 0,2 -1,1 0,1 1,1 0,6 1,1 0,2 -1,1 0,2 -1,1 0,1 -1,1 -1,1 -1,1 -1,1 -1,1 -1,1 0,1 1,1 0,2 3,0 1,1 2,0 1,1 2,0 1,1 2,0 1,1 2,0 1,1 3,0 1,1 2,0 1,1 2,0 1,1 1,-1 2,0 1,1 0,2 1,1 1,0 1,1 1,1 1,1 1,1 1,1 2,0 1,1 1,1 0,2 -1,1 1,1 0,3 1,1 0,1 1,1 0,3 1,1 0,2 1,1 0,2 1,1 0,2 1,1 0,2 1,1 0,2 1,1 0,3 2,0 1,1 0,3 -1,1 0,1 1,1 0,2 1,1 0,2 1,1 0,2 1,1 0,2 3,0 1,1 2,0 1,1 2,0 0,-11 1,-1 0,-6 -11,0 -1,-1 -1,-1 0,-2 1,-1 2,0 1,-1 9,0 0,-5 1,-1 0,-15 1,-1 0,-23 1,-1 0,-22 -4,0 -1,-1 -7,0 -1,1 -1,0 0,7 -1,1 0,30 -1,1 -2,0 -1,-1 0,-38 -1,0 -1,-1 -4,0 -1,1 -10,0 -1,-1 -3,0 -1,1 -1,0 0,13 -1,1 0,8 -1,1 -2,0 -1,-1 0,-16 1,-1 0,-2 -1,-1 0,-6 1,-1 1,-1 12,0 0,-11 -1,0 -1,-1 -10,0 -2,-2 0,-6 -8,0 -1,1Z"/>
<path onmouseover="hoverPath(evt)" onmouseout="recoverPath(evt)" fill="rgb(243,242,234)" d="M  186,233l 0,0 -1,1 -1,0 0,1 2,0 1,1 0,4 -1,1 0,4 -1,1 -1,0 -1,1 0,1 -1,1 -1,0 0,1 1,1 0,2 -1,1 -1,0 0,1 53,0 0,-2 -1,-1 0,-1 -1,-1 0,-3 -1,-1 0,-7 -1,-1 0,-1 -3,0 -1,-1 0,-2 -6,0 -1,1 -8,0 -1,-1 0,-2 -4,0 -1,1 -8,0 -1,-1 -3,0 -1,-1 -4,0 -1,1Z"/>
<path onmouseover="hoverPath(evt)" onmouseout="recoverPath(evt)" fill="rgb(245,232,138)" d="M  205,0l -2,0 0,18 1,1 0,2 -1,1 0,3 -1,1 0,23 -1,1 0,23 -1,1 0,15 -1,1 0,5 -1,1 -9,0 -1,1 -2,0 1,1 11,0 1,1 0,8 -1,1 0,11 -1,1 -4,0 -1,-1 -1,0 0,3 2,0 1,1 1,0 1,1 2,0 1,1 2,0 1,1 2,0 1,1 2,0 1,1 2,0 1,1 2,0 1,1 2,0 1,1 1,0 0,-3 -2,0 -1,-1 -2,0 -1,-1 -2,0 -1,-1 -1,0 -1,-1 -1,-1 0,-7 1,-1 0,-14 1,-1 0,-21 1,-1 0,-18 1,-1 0,-18 1,-1 0,-13 1,-1 0,-1 -1,0 -1,-1 0,-3 1,-1 9,0 -8,-1 0,-19Z"/>
<path onmouseover="hoverPath(evt)" onmouseout="recoverPath(evt)" fill="rgb(243,242,233)" d="M  214,1l 0,17 7,0 1,1 0,1 30,0 0,-1 1,-1 2,0 0,-18 -40,0 -1,1 33,4 2,0 1,1 0,2 -1,1 -2,0 -1,-1 0,-2 1,-1 -33,-4Z"/>
<path onmouseover="hoverPath(evt)" onmouseout="recoverPath(evt)" fill="rgb(244,243,236)" d="M  0,170l 0,47 2,0 -1,-1 0,-3 1,-1 0,-1 1,-1 0,-2 1,-1 0,-2 1,-1 0,-2 1,-1 0,-2 1,-1 0,-1 1,-1 0,-2 1,-1 0,-1 1,-1 0,-2 1,-1 0,-1 1,-1 0,-2 1,-1 0,-2 1,-1 0,-1 1,-1 0,-2 1,-1 0,-2 1,-1 0,-1 1,-1 0,-2 1,-1 0,-2 1,-1 0,-3 1,-1 1,0 0,-2 -1,0 -1,1 -3,0 -1,1 -1,0 -1,1 -3,0 -1,1 -2,0 -1,1 -2,0 -1,1 -4,0Z"/>
<path onmouseover="hoverPath(evt)" onmouseout="recoverPath(evt)" fill="rgb(234,207,126)" d="M  59,74l -1,0 -1,-1 -15,0 5,1 6,0 1,1 0,1 5,0 1,1 3,0 1,-1 5,0 1,1 0,2 4,0 1,1 3,0 1,1 3,0 1,1 2,0 1,1 1,0 1,-1 0,-2 -1,0 -1,-1 -2,0 -1,-1 -1,0 -1,-1 -2,0 -1,-1 -1,0 -1,1 -3,0 -1,-1 -2,0 -1,-1 -5,0 -1,-1Z"/>
<path onmouseover="hoverPath(evt)" onmouseout="recoverPath(evt)" fill="rgb(243,242,233)" d="M  119,67l 0,0 -1,1 -1,0 0,2 -1,1 -1,1 -1,0 0,2 -1,1 -1,1 0,5 -1,1 2,0 1,1 1,0 1,1 2,0 1,1 3,0 1,1 2,0 1,1 1,1 0,2 2,0 1,1 2,0 1,1 1,0 1,1 1,0 1,1 2,0 1,1 1,0 1,1 0,1 1,1 1,-1 2,0 1,1 1,0 1,1 3,0 1,1 0,1 4,0 1,1 1,0 1,1 1,0 1,1 1,0 1,1 1,0 1,1 2,0 1,1 1,0 1,1 1,0 1,1 1,1 2,0 1,1 1,1 0,-2 1,-1 0,-2 -1,-1 0,-2 -1,-1 0,-2 -1,-1 0,-2 -1,-1 0,-2 -1,-1 0,-3 -1,-1 0,-2 -1,-1 0,-2 -1,-1 0,-2 -1,-1 0,-2 -1,-1 0,-2 -1,-1 0,-2 -2,0 -1,-1 0,-2 1,-1 -1,-1 0,0 -1,-1 -1,0 -1,-1 0,-1 -1,-1 -1,-1 -1,0 -1,-1 -1,0 -1,-1 -1,-1 -2,0 -1,-1 -3,0 -1,-1 -2,0 -1,-1 -2,0 -1,-1 -2,0 -1,-1 -3,0 -1,-1 -3,0 0,1 -1,1 -2,0 -1,-1 0,-2 -1,-1 0,2 -1,1 -1,1 0,4 1,1 1,0 1,1 0,2 -1,1 -2,0 -1,-1 -1,0 -1,-1 0,1 -1,1 -1,0 0,1 -1,1Z"/>
<path onmouseover="hoverPath(evt)" onmouseout="recoverPath(evt)" fill="rgb(241,240,231)" d="M  0,140l 0,22 3,0 1,-1 2,0 1,-1 2,0 1,-1 3,0 1,-1 1,0 1,-1 3,0 1,-1 2,0 0,-4 1,-1 0,-5 1,-1 0,-5 1,-1 0,-5 1,-1 0,-6 1,-1 0,-4 -1,2 0,0 -1,1 -1,1 -2,0 -1,1 -3,0 -1,-1 0,-2 -1,-1 0,-1 -1,-1 0,-8 -2,0 -1,-1 0,-3 -4,0 -1,1 0,0 -1,1 -1,1 0,2 1,1 0,1 2,2 0,1 1,1 0,3 1,1 1,0 1,1 0,4 1,1 0,4 -1,1 -1,0 -1,1 -4,0 -1,-1 -1,0 0,2 -1,1 -3,0Z"/>
<path onmouseover="hoverPath(evt)" onmouseout="recoverPath(evt)" fill="rgb(242,241,232)" d="M  202,155l 0,0 -1,1 -1,1 -1,0 0,2 2,0 1,1 0,4 -2,2 -1,0 -1,1 -1,0 0,4 -1,1 0,2 1,1 0,2 -1,1 -1,0 0,1 2,0 1,1 0,4 -1,1 0,4 -1,1 0,4 -1,1 -1,0 -1,1 0,1 -1,1 -1,0 0,1 1,1 0,3 -1,1 -1,1 1,0 1,-1 8,0 1,1 5,0 1,1 5,0 1,1 5,0 1,1 5,0 1,1 5,0 1,1 1,0 1,1 1,1 1,1 1,1 1,1 1,1 1,1 0,1 1,0 1,1 0,3 -1,1 -1,1 -1,0 0,1 1,0 3,-5 0,0 1,-1 1,0 1,-1 0,-2 1,-1 1,-1 1,-1 1,-1 2,-2 1,-1 0,-8 -1,-1 0,-5 1,-1 3,0 0,-40 -1,0 0,2 -1,1 -2,0 -1,-1 0,-1 -1,-1 0,-1 -1,-1 -3,0 -1,-1 0,2 -1,1 -2,0 -1,1 -4,0 -1,-1 0,2 -1,1 0,3 1,0 1,1 5,0 1,1 0,2 -1,1 -8,0 0,3 -1,1 0,4 1,1 1,0 1,1 0,2 -1,1 -2,0 -1,-1 -2,0 -1,1 0,0 -1,1 -7,0 -1,-1 0,-2 1,-1 4,0 1,-1 0,-2 1,-1 0,-3 1,-1 0,-5 1,-1 0,-5 -1,0 -1,-1 -1,0 -1,-1 -2,0 -1,-1 -1,0 -1,-1 -5,0 0,1 -1,1 0,2 -1,1 0,5 -1,1 -2,0 -1,-1 0,-7 -1,0 -1,-1 -3,0 -1,1 34,23 1,-1 2,0 1,1 1,0 1,1 0,2 -1,1 -2,0 -1,-1 -1,0 -1,-1 0,-2 -34,-23 52,12 0,2 -1,1 -2,0 -1,-1 0,-2 1,-1 2,0 1,1 -52,-12Z"/>
<path onmouseover="hoverPath(evt)" onmouseout="recoverPath(evt)" fill="rgb(243,242,233)" d="M  213,28l 0,13 -1,1 0,18 -1,1 0,18 -1,1 0,21 -1,1 0,14 -1,1 0,5 1,1 1,0 1,1 2,0 1,1 2,0 1,1 2,0 1,1 3,0 1,1 1,0 1,1 3,0 0,-1 -1,-1 0,-1 -1,-1 0,-11 1,-1 0,-1 1,-1 0,-2 1,-1 1,-1 1,-1 2,0 1,-1 5,0 1,-1 4,0 1,-1 5,0 1,1 3,0 0,-25 -3,0 -1,-1 0,-4 -2,0 -1,-1 -5,0 -1,-1 0,-2 1,-1 0,-1 1,-1 7,0 0,-8 1,-1 -17,0 -1,1 0,8 -1,1 -2,0 -1,-1 0,-16 1,-1 0,-5 1,-1 2,0 1,1 0,9 16,0 1,-1 0,-27 -1,0 -1,-1 -2,0 -1,1 -5,0 -1,-1 -27,0 0,2 -1,1 40,69 0,2 -1,1 -2,0 -1,-1 0,-2 1,-1 2,0 1,1 -40,-69Z"/>
<path onmouseover="hoverPath(evt)" onmouseout="recoverPath(evt)" fill="rgb(241,243,241)" d="M  130,53l 0,1 1,-2 5,0 1,1 3,0 1,1 2,0 1,1 2,0 1,1 2,0 1,1 3,0 1,1 2,0 1,1 1,1 1,0 1,1 1,0 1,1 1,1 1,1 0,1 1,0 1,1 1,1 1,1 0,2 -1,1 2,0 1,1 0,2 1,1 0,2 1,1 0,2 1,1 0,2 1,1 0,2 1,1 0,2 1,1 0,3 1,1 0,2 1,1 0,2 1,1 0,2 1,1 0,2 1,1 0,3 1,1 0,4 -1,1 -1,1 0,2 2,0 1,1 1,0 1,1 1,0 0,-2 -1,-1 0,-2 -1,-1 0,-2 -1,-1 0,-2 -1,-1 0,-2 -1,-1 0,-3 1,-1 0,-1 -2,0 -1,-1 0,-3 -1,-1 0,-2 -1,-1 0,-2 -1,-1 0,-2 -1,-1 0,-2 -1,-1 0,-2 -1,-1 0,-3 -1,-1 0,-1 -1,-1 0,-3 -1,-1 0,-2 1,-1 -1,-1 -2,0 -1,-1 -1,-1 -1,-1 -1,-1 -1,-1 -1,0 -1,-1 -1,-1 0,-2 -1,1 -2,0 -1,-1 -2,0 -1,-1 -2,0 -1,-1 -3,0 -1,-1 -2,0 -1,-1 -2,0 -1,-1 -2,0 -1,-1 -2,0 -1,-1 -3,0 -1,-1 0,-2 -1,1 -2,0 -1,-1 -4,0 -1,-1 -1,-1 -1,-1 -1,-1 0,-3 1,-1 -2,0 -1,-1 -1,-1 0,2 -1,1 -3,0 2,2 1,0 1,1 1,1 0,1 2,0 1,1 1,1 0,5 -1,1 0,1 -1,1 0,1 -1,1 -1,1 -2,0 -1,1 0,4 -1,1 -1,1 -1,1 -2,0 -1,1 1,1 0,2 -1,1 0,1 -1,1 0,2 -1,1 0,2 -1,1 0,2 1,0 1,1 1,0 1,1 1,1 3,0 1,1 1,0 1,1 2,0 -8,-3 0,-2 1,-1 0,-5 1,-1 1,-1 0,-2 1,-1 1,0 1,-1 0,-2 1,-1 1,0 1,-1 0,-1 1,-1 1,0 0,-1 1,-1 2,0 0,-6 1,-1 1,-1 0,-2 1,-1 2,0 1,1 1,1Z"/>
<path onmouseover="hoverPath(evt)" onmouseout="recoverPath(evt)" fill="rgb(242,241,232)" d="M  65,94l 0,4 -1,1 0,3 1,1 0,9 -1,1 0,1 -1,1 0,5 1,1 0,6 1,1 0,5 1,1 0,4 1,1 0,1 1,-2 0,0 1,-1 -1,-1 0,-2 1,-1 3,0 3,-3 1,0 1,-1 0,-2 1,-1 2,0 1,1 1,-1 1,0 1,-1 1,0 0,-2 1,-1 0,-1 1,-1 2,0 0,-2 1,-1 0,-3 1,-1 0,-2 1,-1 0,-2 1,-1 0,-4 -1,-1 0,-2 -3,0 -1,-1 -3,0 -1,-1 -3,0 -1,-1 -2,0 -1,-1 -3,0 -1,-1 -4,0 -1,-1Z"/>
<path onmouseover="hoverPath(evt)" onmouseout="recoverPath(evt)" fill="rgb(241,240,229)" d="M  186,10l 0,0 1,1 0,9 15,0 -1,-1 0,-19 -30,0 0,3 1,1 0,15 1,1 8,0 0,-1 1,-1 0,-3 1,-1 0,-3 1,-1Z"/>
<path onmouseover="hoverPath(evt)" onmouseout="recoverPath(evt)" fill="rgb(243,237,219)" d="M  228,148l 0,-2 -2,0 -1,-1 -3,0 -1,-1 -1,0 -1,1 -2,0 -1,-1 -2,0 -1,1 -3,0 -1,-1 -4,0 -1,-1 -1,0 -1,-1 0,1 1,1 0,2 -1,1 -1,0 0,1 1,0 1,1 1,1 5,0 0,-1 1,-1 3,0 1,-1 3,0 1,1 2,0 1,1 0,2 1,0 1,1 2,0 1,1 1,0 1,1 1,0 1,1 0,7 -1,1 0,5 -1,1 0,3 -1,1 0,2 -1,1 -1,1 1,0 2,-2 3,0 -1,-1 0,-6 1,-1 0,-3 1,-1 8,0 -6,-1 -1,0 -1,-1 0,-5 1,-1 0,-2 -1,-1 0,-1 -1,0 -1,-1 0,-1 -1,0 -1,-1Z"/>
<path onmouseover="hoverPath(evt)" onmouseout="recoverPath(evt)" fill="rgb(243,242,234)" d="M  9,231l 0,0 -1,1 -1,1 0,1 -1,1 0,2 -1,1 0,1 -1,1 0,2 -1,1 0,1 -1,1 -2,0 0,10 61,0 0,-1 -1,-1 0,-1 -1,-1 0,-2 -1,-1 0,-1 -1,-1 0,-1 -1,-1 0,-1 -1,-1 0,-2 -1,-1 0,-12 -1,-1 0,-7 -1,-1 0,-1 -3,0 -1,-1 0,-2 -1,-1 -1,1 -2,0 -1,-1 0,-1 -2,0 -1,-1 -1,-1 0,-1 -1,0 -1,-1 -1,-1 0,-2 1,-1 -1,-1 -1,-1 -1,-1 0,-1 -1,-1 0,-1 -1,-1 0,-1 -1,-1 0,-6 1,-1 0,-2 1,-1 1,-1 1,-1 4,-4 1,-1 0,-2 1,-1 1,-1 2,-2 1,-1 2,-2 2,0 2,-2 0,-2 1,-1 2,0 0,-2 2,-2 0,-1 1,-1 1,-1 1,-1 0,-1 1,-1 1,-1 0,-2 1,-1 0,-4 -1,0 -1,-1 -16,0 -1,1 -2,0 -1,-1 0,-3 -1,1 -2,0 0,3 -1,1 0,5 -1,1 0,5 -1,1 0,3 -1,1 0,3 -1,1 0,2 -1,1 0,2 -1,1 0,2 -1,1 0,1 -1,1 0,2 -1,1 0,2 -1,1 0,1 -1,1 0,2 -1,1 0,1 -1,1 0,2 -1,1 0,1 -1,1 0,2 -1,1 0,2 -1,1 0,1 -1,1 0,2 -1,1 0,2 -1,1 0,1 -1,1 0,2 -1,1 0,1 -1,1 0,2 -1,1 0,3 -1,1 3,0 1,-1 9,0 1,1 8,0 1,1 0,4 -1,1 -1,0 -1,1 -6,0 -1,1 -6,0 -1,-1 -2,0 -1,-1 0,-1 -1,-1 -1,0 -1,1 -2,0Z"/>
<path onmouseover="hoverPath(evt)" onmouseout="recoverPath(evt)" fill="rgb(239,237,228)" d="M  28,110l 0,0 1,-1 0,-4 1,-1 0,-6 1,-1 0,-4 1,-1 0,-2 -17,0 -1,-1 -3,0 -1,1 -2,0 -1,-1 -1,-1 -1,1 -1,0 -1,1 -3,0 0,46 2,0 0,-2 1,-1 3,0 1,1 2,0 1,-1 1,0 0,-2 -1,-1 0,-4 -1,0 -1,-1 -1,-1 0,-3 -1,-1 0,-1 -1,-1 -1,-1 0,-1 -1,-1 0,-4 1,-1 1,-1 1,-1 1,-1 6,0 1,1 0,3 2,0 1,1 0,8 1,1 0,1 1,1 0,2 1,0 1,-1 2,0 1,-1 1,-1 0,-1 1,-1 2,0Z"/>
<path onmouseover="hoverPath(evt)" onmouseout="recoverPath(evt)" fill="rgb(241,244,244)" d="M  43,143l -1,0 0,1 17,-1 2,0 1,1 1,0 1,1 0,6 -1,1 0,2 -1,1 -1,1 0,1 -1,1 -1,1 -1,1 0,1 -1,1 -1,1 0,2 -1,1 -2,0 0,2 -1,1 -2,2 -2,0 -1,1 -1,1 -1,1 -1,1 -1,1 -1,1 0,2 -2,2 -1,1 -3,3 -1,1 -1,1 0,2 -1,1 0,4 1,1 0,1 1,1 0,1 1,1 0,1 1,1 1,1 1,1 0,2 -1,1 1,1 1,0 1,1 0,1 1,1 2,0 1,1 0,1 1,-1 2,0 1,1 1,1 0,2 3,0 1,1 0,1 1,1 0,7 1,1 0,12 1,1 0,2 1,1 0,1 1,1 0,1 1,1 0,1 1,1 0,2 1,1 0,1 1,1 0,2 12,0 0,-6 -5,0 -1,-1 0,-1 -1,-1 -1,-1 0,-1 -1,-1 0,-1 -1,-1 0,-1 -1,-1 0,-2 -1,-1 0,-8 -1,-1 0,-8 -1,-1 0,-2 -1,-1 0,-2 -1,-1 -1,-1 -1,-1 -1,-1 -1,0 -1,-1 -1,0 -1,-1 -1,-1 -1,0 -1,-1 -1,-1 -1,-1 0,-1 -1,-1 -1,-1 -1,-1 -1,-1 0,-1 -1,-1 0,-5 1,-1 0,-1 1,-1 1,-1 1,-1 1,-1 1,-1 1,-1 4,-4 1,-1 1,0 0,-1 1,-1 0,-1 1,-1 1,-1 0,-1 1,-1 1,-1 1,-1 0,-1 2,-2 1,-1 0,-1 1,-1 7,0 -4,-1 -2,0 -1,-1 0,-2 1,-1 0,-2 1,-1 1,0 0,-1 -1,0 -1,-1 0,-2 1,-1 0,-2 1,-1 0,-1 1,-1 0,-1 1,-1 0,-1 1,-1 0,-1 1,-1 1,-1 0,-1 1,-1 1,-1 1,-1 2,0 0,-1 1,-1 1,0 1,-1 1,0 1,-1 1,0 1,-1 1,0 1,-1 1,0 1,-1 1,0 0,-1 1,-1 0,-1 1,-1 0,-3 1,-1 0,-2 1,-1 0,-2 1,-1 0,-3 1,-1 0,-2 1,-1 0,-5 -1,-1 0,-1 -1,-1 -2,0 1,1 0,2 1,1 0,6 -1,1 0,2 -1,1 0,2 -1,1 0,3 -1,1 0,2 -1,1 -2,0 0,1 -1,1 0,2 -1,1 -1,0 -1,1 -1,0 -1,1 -2,0 -1,-1 0,2 -1,1 -1,1 -1,0 -2,2 -1,1 -3,0 1,1 0,2 -1,1 -1,1 0,1 -1,1 -2,0 -1,-1 0,-1 -1,-1 0,-4 -1,-1 0,-5 -1,-1 0,-6 -1,-1 0,-7 1,-1 0,-1 1,-1 0,-7 -1,-1 0,-4 -1,-1 0,-6 -1,0 -1,-1 0,2 1,1 0,4 1,1 0,5 1,1 0,5 -1,1 0,2 -1,1 0,8 1,1 0,5 1,1 0,5 1,1 0,6 -1,1 0,1Z"/>
<path onmouseover="hoverPath(evt)" onmouseout="recoverPath(evt)" fill="rgb(247,202,111)" d="M  60,79l -1,0 -1,-1 -5,0 -1,-1 0,-1 -6,0 -1,-1 -4,0 -1,-1 0,-1 -3,0 -1,-1 0,-1 -1,0 -1,1 -15,0 -1,1 -10,0 -1,1 -7,0 0,14 2,0 1,-1 1,0 1,-1 2,0 1,1 1,1 1,-1 5,0 1,1 7,0 0,-1 1,-1 18,0 1,1 6,0 1,1 0,1 1,-1 3,0 1,1 2,0 1,-1 2,0 1,1 0,1 1,0 1,1 0,6 1,-5 5,0 1,1 4,0 1,1 3,0 1,1 2,0 1,1 3,0 1,1 3,0 1,1 1,0 0,-1 1,-1 4,0 1,1 1,1 0,1 1,-1 2,0 1,1 2,0 1,1 1,0 1,1 2,0 1,1 2,0 1,1 2,0 1,1 1,1 3,0 1,1 1,0 1,1 2,0 1,1 1,0 1,1 2,0 1,1 2,0 1,1 2,0 1,1 1,0 1,1 2,0 1,1 2,0 1,1 1,0 1,1 2,0 1,1 2,0 1,1 1,0 1,1 2,0 1,1 1,0 1,1 2,0 1,1 2,0 1,1 1,0 1,1 2,0 1,1 2,0 1,1 1,0 1,1 2,0 1,1 2,0 1,1 2,0 1,1 2,0 1,1 1,0 1,1 2,0 1,1 2,0 1,1 2,0 1,1 2,0 1,1 2,0 1,1 0,3 -1,1 1,0 1,1 4,0 1,1 1,0 1,-1 4,0 1,1 1,-1 3,0 1,1 3,0 1,1 2,0 1,1 0,2 1,0 1,1 0,1 1,0 1,1 0,1 2,0 1,1 0,1 2,0 1,-1 2,0 0,-2 1,-1 2,0 1,1 3,0 1,1 1,1 0,1 1,1 0,-1 1,-1 2,0 0,-13 -3,0 -1,-1 -3,0 -1,-1 -2,0 -1,-1 -3,0 -1,-1 -2,0 -1,-1 -2,0 -1,-1 -2,0 -1,-1 0,-3 1,-1 0,-1 1,-1 -1,-1 -1,0 -1,-1 0,-11 -1,2 0,9 1,1 0,1 1,1 0,1 1,-2 0,0 -2,5 -5,0 -1,-1 -1,0 -1,-1 -2,0 0,3 -1,1 -3,0 -1,-1 -2,0 -1,-1 -2,0 -1,-1 -2,0 -1,-1 -2,0 -1,-1 -2,0 -1,-1 -2,0 -1,-1 -2,0 -1,-1 -1,0 -1,-1 -2,0 -1,-1 0,-5 -1,0 0,3 -1,1 -3,0 -1,-1 -1,0 -1,-1 -2,0 -1,-1 -2,0 -1,-1 -2,0 -1,-1 -1,0 -1,-1 -2,0 -1,-1 -2,0 -1,-1 -2,0 -1,-1 -1,0 -1,-1 -1,-1 0,-1 -1,1 -3,0 -1,-1 -1,0 -1,-1 -2,0 -1,-1 -2,0 -1,-1 -2,0 -1,-1 -1,0 -1,-1 0,-2 -1,0 -1,1 -3,0 -1,-1 -1,0 -1,-1 -2,0 -1,-1 -1,0 -1,-1 -1,-1 -4,0 -1,-1 0,-2 -1,1 -3,0 -1,-1 -1,0 -1,-1 -2,0 -1,-1 -1,0 -1,-1 -2,0 -1,-1 -1,0 -1,-1 -1,0 -1,-1 -1,0 -1,-1 -2,0 -1,-1 -2,0 -1,-1 -2,0 -1,-1 0,-1 -1,-1 0,-3 -1,3 -1,1 -3,0 -1,-1 -2,0 -1,-1 -3,0 -1,-1 -3,0 -1,-1 -4,0 -1,-1 0,-2 -3,0 -1,1Z"/>
<path onmouseover="hoverPath(evt)" onmouseout="recoverPath(evt)" fill="rgb(239,237,229)" d="M  61,63l 0,2 1,1 0,1 1,1 0,1 1,1 0,2 1,1 5,0 1,1 2,0 1,1 1,0 1,-1 3,0 1,1 2,0 1,1 1,0 1,1 2,0 1,1 1,0 1,1 1,0 1,1 2,0 1,1 2,0 1,-1 1,-1 3,0 0,-1 1,-1 0,-2 1,-1 0,-2 1,-1 0,-1 1,-1 -1,-1 0,-2 1,-1 1,-1 2,0 1,-1 1,-1 0,-4 1,-1 1,-1 2,0 1,-1 0,-1 1,-1 0,-1 1,-1 0,-3 -1,-1 -2,0 -1,-1 0,-1 -1,-1 -1,0 -1,-1 -1,-1 -1,-1 0,-2 1,-1 3,0 0,-2 1,-1 2,0 1,1 1,1 1,0 1,-1 1,0 1,-1 1,-1 2,0 1,1 0,-2 -1,-1 0,-1 -1,-1 -1,-1 0,-2 -1,0 -1,-1 0,-2 1,-1 3,0 0,-2 -3,0 -1,1 -4,0 -1,1 -2,0 -1,1 -3,0 -1,1 0,1 4,0 1,1 0,5 -1,1 -4,0 -1,1 0,1 -1,1 -1,0 0,2 -1,1 -1,1 -1,0 -1,1 -2,2 -1,1 -1,0 0,1 -1,1 -1,0 -1,1 -1,1 0,2 -1,1 -1,0 -1,1 0,1 -1,1 -1,1 -1,1 -1,1 -1,0 0,1 -2,2 -3,0 -1,-1 0,-10 1,-1 -1,-1 0,-2 -3,0 -1,1 0,5 -1,1 -1,0 -1,1 -2,0 0,4 -1,1 -5,0 0,3 -1,1 -2,0 -1,1Z"/>
<path onmouseover="hoverPath(evt)" onmouseout="recoverPath(evt)" fill="rgb(244,243,235)" d="M  66,166l -2,2 -1,1 0,1 -1,1 -1,1 -1,1 0,1 -1,1 -1,1 0,1 -1,1 0,1 -1,1 -1,0 -1,1 -1,1 -1,1 -1,1 -1,1 -1,1 -1,1 -1,1 -1,1 -1,1 0,1 -1,1 0,3 1,1 0,1 1,1 1,1 1,1 1,1 0,1 1,1 1,1 1,0 1,1 1,1 1,0 1,1 1,0 1,1 1,1 1,1 1,1 1,1 0,2 1,1 0,2 1,1 0,8 1,1 0,8 1,1 0,2 1,1 0,1 1,1 0,1 1,1 0,1 1,1 1,1 0,1 5,0 1,1 0,7 97,0 0,-2 -1,-1 0,-5 1,-1 0,-4 1,-1 0,-5 1,-1 0,-3 1,-1 0,-4 1,-1 0,-4 1,-1 0,-5 1,-1 0,-4 1,-1 0,-4 1,-1 0,-5 1,-1 0,-3 1,-1 0,-4 1,-1 0,-4 1,-1 0,-5 -7,0 -1,-1 -10,0 -1,-1 -10,0 -1,-1 -10,0 -1,-1 -11,0 -1,-1 -12,0 -1,-1 -6,0 -1,-1 0,-2 -4,0 -1,1 -6,0 -1,-1 -3,0 -1,-1 0,-2 -3,0 -1,1 -6,0 -1,-1 -3,0 -1,-1 0,-2 -3,0 -1,1 -5,0 -1,-1 -5,0 -1,1Z"/>
<path onmouseover="hoverPath(evt)" onmouseout="recoverPath(evt)" fill="rgb(189,201,210)" d="M  92,127l 0,1 -1,1 -1,0 -1,1 -1,0 -1,1 -1,0 -1,1 -1,0 -1,1 -1,0 -1,1 -1,0 0,1 -1,1 -2,0 -1,1 -1,1 0,1 -1,1 -1,1 0,1 -1,1 0,1 -1,1 0,1 -1,1 0,1 -1,1 0,1 1,0 1,-1 0,-1 1,-1 0,-2 1,-2 1,0 0,-1 1,-1 1,-1 0,-1 1,-1 1,-1 -1,0 -1,1 -1,2 -1,1 6,-5 2,-2 2,-1 2,0 1,-1 1,0 1,-1 1,0 1,-1 1,0 0,-1 1,-1 -1,-1 2,-3 1,0 0,-4 1,-1 0,-1 1,-1 0,-2 1,-1 0,-2 1,-1 0,-2 1,-1 0,-1 1,-1 2,0 1,1 1,-1 0,0 1,-1 0,-2 -1,-1 -1,0 -1,-1 -2,0 -1,-1 -1,1 0,6 -1,1 0,2 -1,1 0,3 -1,1 0,2 -1,1 0,1 3,-8 1,-3 -5,16 -2,3 2,-6 0,0 -2,6Z"/>
<path onmouseover="hoverPath(evt)" onmouseout="recoverPath(evt)" fill="rgb(243,242,234)" d="M  149,126l -1,0 0,1 -1,1 0,2 -1,1 1,1 0,2 -2,2 0,1 -1,1 0,1 1,1 5,0 1,1 3,0 1,-1 4,0 1,1 1,0 1,1 0,2 -1,1 0,3 1,1 0,2 1,1 1,0 1,1 4,0 1,1 6,0 1,1 1,-1 0,0 1,-1 0,-1 1,-1 2,0 1,1 0,7 -1,1 -1,0 0,2 3,0 0,-2 1,-1 2,0 1,-1 3,0 0,-3 1,-1 0,-4 1,-1 0,-4 1,-1 0,-4 -1,0 -1,-1 -2,0 -1,-1 -2,0 -1,-1 -2,0 -1,-1 -1,0 -1,-1 -2,0 -1,-1 -2,0 -1,-1 -2,0 -1,-1 -5,0 -1,-1 -4,0 -1,-1 -2,0 -1,-1 -1,0 -1,-1 -2,0 -1,-1 -2,0 -1,-1Z"/>
<path onmouseover="hoverPath(evt)" onmouseout="recoverPath(evt)" fill="rgb(251,251,249)" d="M  155,23l 0,4 1,1 0,4 -1,1 0,14 1,-9 0,-13 1,-1 1,0 1,-1 5,0 1,1 8,0 1,-1 6,0 1,1 1,0 1,1 0,38 1,-31 0,-7 1,-1 1,0 1,-1 9,0 1,1 4,0 0,-2 -15,0 -1,-1 0,-9 -1,4 0,3 -1,1 0,1 -1,1 -10,0 -1,-1 -1,-1 0,-15 -1,-1 0,-4 -14,0 0,5 1,1 10,0 1,1 1,0 1,1 0,13 -1,1 -12,0 -1,1Z"/>
<path onmouseover="hoverPath(evt)" onmouseout="recoverPath(evt)" fill="rgb(242,219,122)" d="M  168,109l 0,0 -1,-1 -2,0 -1,-1 -1,0 -1,-1 -1,0 -1,-1 -1,0 -1,-1 -1,0 -1,-1 -4,0 -1,-1 0,-1 -3,0 -1,-1 -1,0 -1,-1 -1,1 -2,0 -1,-1 -1,-1 0,-1 -1,0 -1,-1 -2,0 -1,-1 -1,0 -1,-1 -1,0 -1,-1 -2,0 -1,-1 -2,0 -1,-1 0,-2 -1,-1 -2,0 -1,-1 -2,0 -1,1 -4,0 -1,-1 -1,0 -1,-1 -3,0 -1,-1 -1,-1 -1,0 -1,-1 -1,0 -1,-1 0,-1 -2,0 -1,1 0,0 -1,1 -4,0 -1,-1 -1,0 0,1 1,1 0,1 2,0 1,1 2,0 1,1 2,0 1,1 1,0 1,1 1,0 1,1 1,0 1,1 2,0 1,1 1,0 1,1 2,0 1,1 1,0 1,1 1,0 1,-1 2,0 1,1 0,2 1,0 1,-1 2,0 1,1 0,1 1,1 1,0 1,1 2,0 1,1 1,0 1,1 1,0 1,-1 3,0 1,1 0,2 1,0 1,1 2,0 1,1 2,0 1,1 2,0 1,1 1,0 1,1 1,0 1,-1 2,0 1,1 0,1 1,1 1,0 1,1 2,0 1,1 2,0 1,1 2,0 1,1 1,0 1,1 2,0 1,1 1,0 0,-2 1,-1 1,-1 0,-2 -2,3 -1,0 -1,-1 -1,-1 -2,0 -1,-1 -1,-1 -1,0 -1,-1Z"/>
<path onmouseover="hoverPath(evt)" onmouseout="recoverPath(evt)" fill="rgb(243,227,144)" d="M  196,143l 0,2 -1,1 0,4 -1,1 0,4 -1,1 0,2 1,1 0,2 -1,1 0,3 -1,1 -1,0 0,4 -1,1 0,4 -1,1 0,1 -1,1 -8,0 8,1 0,7 -1,1 0,4 -1,1 0,4 -1,1 0,3 -1,1 0,5 -1,1 0,4 -1,1 0,4 -1,1 0,5 -1,1 0,4 -1,1 0,4 -1,1 0,3 -1,1 0,5 -1,1 0,4 -1,1 0,3 1,1 0,3 2,0 0,-2 1,-1 1,0 -1,-1 0,-3 1,-1 1,0 0,-1 1,-1 1,-1 1,0 0,-4 1,-1 0,-2 -2,0 -1,-1 0,-3 1,-1 1,0 0,-1 1,-1 1,-1 5,0 -5,-1 0,-1 -1,0 -1,-1 0,-4 1,-1 0,-4 1,-1 0,-4 1,-1 1,0 -1,-1 0,-3 1,-1 0,-2 1,-1 1,-1 0,-1 -1,-1 0,-3 1,-1 1,0 0,-1 1,-1 1,-1 1,0 0,-4 1,-1 0,-4 1,-1 0,-2 -2,0 -1,-1 0,-3 1,-1 1,0 -1,-1 0,-4 1,-1 0,-4 1,-1 1,0 1,-1 1,0 1,-1 0,-2 -2,0 -1,-1 0,-4 1,-1 1,0 1,-1 0,-1 1,-1 6,0 1,1 1,0 1,1 0,7 1,-6 0,-2 1,-1 0,-1 1,-1 6,0 -3,-1 -1,0 -3,1 -1,0 0,1 -1,1 1,0 -9,-1 0,0 -1,-1 -1,0 -1,-1 0,-3 1,-1 1,0 -1,-1 0,-3 1,-1 1,0 1,-1 0,-1 -2,0 -1,-1 -2,0 -1,-1 -2,0 -1,-1 -2,0 -1,-1 -2,0 -1,-1 -1,0 -1,-1 -2,0 -1,-1 -2,0 -1,-1 -2,0 -1,-1 -2,0 -1,-1 -1,0 -1,-1 -2,0 -1,-1 -2,0 -1,-1 -1,0 -1,-1 -2,0 -1,-1 -2,0 -1,-1 -1,0 -1,-1 -2,0 -1,-1 -1,0 -1,-1 -2,0 -1,-1 -2,0 -1,-1 -1,0 -1,-1 -2,0 -1,-1 -2,0 -1,-1 -1,0 -1,-1 -2,0 -1,-1 -2,0 -1,-1 -2,0 -1,-1 -1,0 -1,-1 -2,0 -1,-1 -1,0 -1,-1 -3,0 -1,-1 -1,-1 -1,0 0,1 -1,1 -1,1 -1,0 2,1 2,0 1,1 1,-1 2,0 1,1 2,0 1,1 2,0 1,1 1,0 1,1 0,2 5,0 1,1 1,1 0,3 1,1 2,0 1,1 0,4 1,1 1,0 1,1 1,1 1,1 1,0 1,-1 0,-2 1,-1 0,-1 1,-1 4,0 1,1 2,0 1,1 2,0 1,1 1,0 1,1 2,0 1,1 4,0 1,1 5,0 1,1 2,0 1,1 2,0 1,1 2,0 1,1 1,0 1,1 2,0 1,1 2,0 1,1 2,0 1,1 1,0 1,1Z"/>
<path onmouseover="hoverPath(evt)" onmouseout="recoverPath(evt)" fill="rgb(252,251,250)" d="M  233,51l 0,0 -1,1 0,14 1,-9 0,0 1,-1 19,0 1,1 0,2 -1,1 0,8 -1,1 -7,0 0,1 -1,1 5,0 1,1 2,0 1,1 0,4 2,0 0,-57 -1,0 0,1 -1,1 -41,0 0,1 30,0 1,1 3,0 1,-1 4,0 1,1 1,0 1,1 0,29 -1,1 -20,-4Z"/>
<path onmouseover="hoverPath(evt)" onmouseout="recoverPath(evt)" fill="rgb(243,242,234)" d="M  235,108l -2,0 -1,1 -1,1 0,1 1,1 0,11 1,0 1,1 1,1 0,2 -1,1 0,1 -1,1 0,1 2,0 1,1 2,0 1,1 2,0 1,1 3,0 1,1 2,0 1,1 3,0 1,1 2,0 0,-31 -4,0 -1,-1 -3,0 -1,1 -4,0 -1,1 -5,0 -1,1Z"/>
</svg>