<svg width="256" height="256" xmlns="http://www.w3.org/2000/svg"><script> 
var tempColor;
function hoverPath(evt){
obj = evt.target;
tempColor = obj.getAttribute("fill");
obj.setAttribute("fill","red");
//alert(tempColor);
//obj.setAttribute("stroke","red");}
function recoverPath(evt){
obj = evt.target;
obj.setAttribute("fill", tempColor);
//obj.setAttribute("stroke", tempColor);
}</script><path onmouseover="hoverPath(evt)" onmouseout="recoverPath(evt)" fill="rgb(248,237,139)" d="M  0,224l 0,4 5,0 1,1 5,0 1,1 5,0 1,1 4,0 1,1 5,0 1,1 0,3 2,0 0,-1 1,-1 9,0 1,1 6,0 1,1 6,0 1,1 6,0 1,1 1,1 0,3 -1,1 0,2 -1,1 0,1 -1,1 0,2 -1,1 0,1 -1,1 0,2 11,0 0,-3 1,-1 0,-2 1,-1 0,-1 1,-1 0,-2 1,-1 0,-2 1,-1 5,0 1,1 5,0 1,1 5,0 1,1 4,0 1,1 3,0 1,1 1,0 1,-1 2,0 1,1 0,1 6,0 1,1 4,0 1,1 5,0 1,1 5,0 1,1 1,0 1,-1 3,0 1,1 0,1 6,0 1,1 3,0 1,-1 6,0 1,1 5,0 1,1 0,2 33,0 0,-1 -6,0 -1,-1 -4,0 -1,-1 -5,0 -1,-1 -7,0 -1,-1 -3,0 -1,-1 -4,0 -1,-1 -5,0 -1,-1 -5,0 -1,-1 -4,0 -1,1 -2,0 -1,-1 -3,0 -1,-1 0,-1 -5,0 -1,-1 -3,0 -1,1 -5,0 -1,-1 0,-3 -5,0 -1,-1 -1,1 -2,0 -1,-1 -1,1 -4,0 -1,-1 0,-1 -6,0 -1,-1 -4,0 -1,-1 -5,0 -1,-1 -5,0 -1,-1 -1,-1 0,-2 1,-1 0,-1 1,-1 0,-1 1,-1 0,-2 1,-1 0,-1 1,-1 0,-2 1,-1 0,-1 1,-1 0,-2 1,-1 0,-1 1,-1 0,-1 1,-1 0,-1 1,-1 0,-1 1,-1 0,-1 1,-1 0,-1 1,-1 0,-1 1,-1 0,-1 1,-1 0,-1 1,-1 1,-1 0,-1 1,-1 0,-1 1,-1 1,-1 0,-1 1,-1 0,-1 1,-1 0,-1 2,-2 0,-1 1,-1 0,-1 1,-1 0,-3 1,-1 0,-11 1,-1 0,-1 1,-1 0,-7 1,-1 0,-6 1,-1 0,-6 1,-1 0,-5 1,-1 0,-7 1,-1 0,-4 -1,-1 0,-2 1,-1 0,-1 1,-1 1,0 0,-1 1,-1 0,-5 1,-1 0,-5 1,-1 0,-5 1,-1 0,-4 1,-1 0,-7 1,-1 4,0 1,1 5,0 1,1 4,0 1,1 5,0 1,1 4,0 1,1 10,0 1,1 0,1 4,0 1,1 4,0 1,1 4,0 1,1 5,0 1,1 3,0 1,-1 3,0 1,1 3,0 1,1 0,2 1,-1 2,0 1,1 3,0 1,1 5,0 1,1 4,0 1,1 4,0 1,1 3,0 1,-1 4,0 1,1 0,1 2,0 1,1 4,0 1,1 4,0 1,1 4,0 1,1 5,0 1,1 3,0 1,-1 2,0 0,-7 -7,0 -1,-1 -5,0 -1,-1 0,-2 -1,1 -8,0 -1,-1 -3,0 -1,-1 -6,0 -1,-1 -4,0 -1,-1 -4,0 -1,-1 -5,0 -1,-1 -4,0 -1,-1 -5,0 -1,-1 -4,0 -1,-1 -4,0 -1,-1 -4,0 -1,-1 -4,0 -1,-1 -4,0 -1,-1 -4,0 -1,-1 -4,0 -1,-1 -4,0 -1,-1 -5,0 -1,-1 -4,0 -1,-1 -5,0 -1,-1 -4,0 -1,-1 -5,0 -1,-1 -2,0 -1,-1 0,-2 1,-1 0,-3 1,-1 0,-3 1,-1 0,-2 1,-1 0,-3 1,-1 0,-3 1,-1 0,-3 1,-1 0,-3 1,-1 0,-3 1,-1 0,-2 1,-1 0,-3 1,-1 0,-4 1,-1 0,-2 1,-1 0,-3 1,-1 0,-3 1,-1 0,-2 1,-1 0,-1 -1,-1 0,-3 1,-1 1,0 0,-6 -10,0 0,3 1,1 0,3 -1,1 -5,0 4,1 0,2 -1,1 0,3 -1,1 0,3 -1,1 0,3 -1,1 0,2 -1,1 0,3 -1,1 0,3 -1,1 0,3 -1,1 0,3 -1,1 0,3 -1,1 0,3 -1,1 0,3 -1,1 0,3 -1,1 0,3 -1,1 -1,1 0,5 -1,1 -4,0 -1,-1 -6,0 -1,-1 0,-1 -1,0 -1,1 -3,0 -1,-1 -4,0 -1,-1 -5,0 -1,-1 -5,0 -1,-1 -4,0 -1,-1 -4,0 -1,-1 0,-1 -1,0 -1,1 0,0 -1,1 -2,0 -1,-1 0,-1 -4,0 -1,-1 -4,0 -1,-1 -2,0 -1,1 -2,0 -1,-1 0,-1 -1,0 -1,1 -2,0 -1,-1 0,-1 -4,0 -1,-1 -4,0 -1,-1 -4,0 -1,-1 -3,0 -1,1 -2,0 -1,-1 0,-1 -4,0 -1,-1 -4,0 -1,-1 0,-1 -1,0 -1,1 0,0 -1,1 -2,0 -1,-1 0,-1 -1,-1 -1,0 0,10 6,0 1,1 4,0 1,1 5,0 1,1 4,0 1,1 3,0 1,-1 3,0 1,1 2,0 1,1 0,1 4,0 1,1 4,0 1,1 5,0 1,1 4,0 1,1 5,0 1,1 4,0 1,1 5,0 1,1 5,0 1,1 4,0 1,1 5,0 1,1 4,0 1,1 4,0 1,1 3,0 1,1 5,0 1,1 1,1 0,4 -1,1 0,2 -1,1 0,5 -1,1 0,3 1,1 0,7 -1,1 0,4 -1,1 -1,0 0,5 -1,1 0,2 -1,1 0,6 -1,1 0,6 -1,1 0,5 -1,1 0,4 -1,1 0,6 -1,1 0,6 -1,1 0,1 1,1 0,3 -1,1 0,1 -1,1 0,3 -1,1 0,3 -1,1 0,2 -1,1 0,1 -1,1 0,1 -1,1 0,1 -1,1 0,1 -1,1 0,1 -1,1 -1,1 0,1 -1,1 0,1 -1,1 0,1 -1,1 0,1 -1,1 0,1 -1,1 0,1 -1,1 0,1 -1,1 0,1 -1,1 0,1 -1,1 0,2 -1,1 0,1 -1,1 0,1 -1,1 0,2 -1,1 0,1 -1,1 0,1 -1,1 0,1 -1,1 0,2 -1,1 0,1 -1,1 0,1 -1,1 0,1 -1,1 -5,0 -1,-1 -6,0 -1,-1 -6,0 -1,-1 -6,0 -1,-1 -5,0 -1,-1 -6,0 -1,-1 -5,0 -1,-1 -4,0 -1,-1 -5,0 -1,-1 -5,0 -1,-1 -4,0Z"/>
<path onmouseover="hoverPath(evt)" onmouseout="recoverPath(evt)" fill="rgb(200,219,198)" d="M  174,184l 0,0 -1,1 0,1 1,1 0,2 1,0 1,1 2,0 1,-1 5,0 1,1 3,0 1,1 8,0 1,-1 8,0 1,1 1,-1 4,0 1,1 1,-1 0,-1 1,-1 1,-1 -1,0 -1,-1 -1,0 -1,1 -6,0 -1,-1 0,-2 -10,0 -1,-1 -5,0 -1,-1 -6,0 -1,-1 0,-2 -1,1 -1,1 -4,0 0,2 -1,1 8,-6 1,-1 1,0 1,-1 -13,0 -1,1 -2,0 0,1 12,-1 1,1 -8,6Z"/>
<path onmouseover="hoverPath(evt)" onmouseout="recoverPath(evt)" fill="rgb(242,241,232)" d="M  233,104l -1,0 -1,-1 -3,0 0,1 2,0 1,1 0,1 1,1 0,7 -1,1 0,5 1,1 0,6 1,1 0,1 1,1 0,4 1,0 1,1 5,0 1,1 3,0 1,1 3,0 0,-1 1,-1 0,-4 1,-1 0,-4 1,-1 0,-4 -1,-1 0,-7 1,-1 0,-5 -4,0 -1,-1 -5,0 -1,-1 -4,0 -1,-1Z"/>
<path onmouseover="hoverPath(evt)" onmouseout="recoverPath(evt)" fill="rgb(243,241,233)" d="M  0,1l 0,16 4,0 1,1 0,2 3,0 1,1 4,0 1,-1 5,0 1,1 0,2 4,0 1,1 3,0 1,-1 5,0 1,1 0,2 3,0 1,1 3,0 1,1 4,0 1,1 4,0 1,1 4,0 1,1 5,0 1,1 2,0 1,1 2,0 1,-1 4,0 0,-1 1,-1 0,-4 1,-1 0,-1 1,-1 0,-3 1,-1 2,0 0,-2 1,-1 0,-2 -1,-1 0,-5 1,-1 0,-1 1,-1 2,0 0,-2 1,-1 0,-2 -84,0 -1,1Z"/>
<path onmouseover="hoverPath(evt)" onmouseout="recoverPath(evt)" fill="rgb(242,241,232)" d="M  156,201l 0,0 -1,1 0,2 -1,1 0,2 -1,1 0,1 1,1 0,2 -1,1 -2,0 0,2 -1,1 0,2 -1,1 0,2 -1,1 0,2 -1,1 0,2 -1,1 0,1 1,1 0,2 -1,1 -2,0 0,2 -1,1 0,2 -1,1 0,2 -1,1 0,3 1,-1 6,0 1,1 5,0 1,1 5,0 1,1 4,0 1,1 3,0 1,1 1,0 0,-3 1,-1 0,-2 1,-1 0,-3 1,-1 0,-2 1,-1 0,-2 1,-1 0,-2 1,-1 0,-1 1,-1 11,0 1,-1 13,0 1,1 11,0 1,1 1,-1 1,0 0,-2 1,-1 0,-2 1,-1 0,-2 1,-1 0,-2 1,-1 0,-2 1,-1 0,-2 1,-1 0,-2 1,-1 0,-2 1,-1 0,-2 1,-1 0,-2 1,-1 0,-1 1,-1 0,-1 1,-1 0,-2 1,-1 0,-2 1,-1 0,-1 1,-1 0,-1 1,-1 0,-2 1,-1 0,-1 1,-1 0,-2 -4,0 1,1 0,5 -1,1 0,2 -1,1 0,1 -1,1 -6,0 5,1 0,4 -1,1 0,1 -72,6 71,-4 -1,2 -1,1 -15,0 -1,-1 -10,0 -1,-1 -13,0 -1,-1 -12,0 0,1 -1,1 -1,1 -3,0 -1,-1 -6,0 -1,-1 -2,0 -1,1 0,1 71,-3 -71,4Z"/>
<path onmouseover="hoverPath(evt)" onmouseout="recoverPath(evt)" fill="rgb(253,253,253)" d="M  176,32l 0,0 1,-1 0,-1 1,-1 0,-3 1,-1 0,-3 1,-1 0,-2 1,-1 1,-1 3,0 1,1 4,0 1,1 4,0 1,1 5,0 1,1 4,0 1,1 4,0 1,1 4,0 1,1 4,0 1,1 4,0 1,1 5,0 1,1 4,0 1,1 4,0 1,1 5,0 1,1 4,0 1,1 1,0 0,-2 -5,0 -1,-1 -2,0 -1,-1 0,-7 -1,0 0,3 -1,1 0,2 -1,1 -4,0 -1,-1 -5,0 -1,-1 -4,0 -1,-1 -4,0 -1,-1 -5,0 -1,-1 -4,0 -1,-1 -4,0 -1,-1 -4,0 -1,-1 -4,0 -1,-1 -4,0 -1,-1 -4,0 -1,-1 -3,0 -1,-1 0,-5 -1,0 0,2 -1,1 -1,0 0,1 -1,1 -2,0 -1,-1 -4,0 -1,-1 -4,0 -1,-1 -4,0 -1,-1 -4,0 -1,-1 -4,0 -1,-1 -5,0 -1,-1 -5,0 0,1 5,0 1,1 4,0 1,1 4,0 1,1 5,0 1,1 4,0 1,1 4,0 1,1 3,0 1,1 2,0 1,1 1,1 0,3 -1,1 0,3 -1,1 0,3 -1,1 0,2 6,-23 1,0 0,-3 1,-1 0,-3 1,-1 0,-1 -2,0 0,5 -1,1 0,3 -6,23 70,-13 1,0 0,-4 1,-1 0,-3 1,-1 0,-5 1,-1 0,-4 -1,0 0,4 -1,1 0,4 -1,1 0,4 -1,1 0,4 -70,13Z"/>
<path onmouseover="hoverPath(evt)" onmouseout="recoverPath(evt)" fill="rgb(243,242,232)" d="M  188,0l -1,0 0,2 -1,1 0,3 -1,1 0,3 -1,1 0,3 3,0 1,1 4,0 1,1 4,0 1,1 4,0 1,1 4,0 1,1 4,0 1,1 4,0 1,1 5,0 1,1 4,0 1,1 4,0 1,1 5,0 1,1 2,0 0,-2 1,-1 0,-3 1,-1 0,-4 1,-1 0,-4 1,-1 0,-4 1,-1 0,-3Z"/>
<path onmouseover="hoverPath(evt)" onmouseout="recoverPath(evt)" fill="rgb(242,240,230)" d="M  193,97l -2,0 0,2 -1,1 0,3 -1,1 0,2 -1,1 0,2 -1,1 0,2 -1,1 0,2 -1,1 0,2 -1,1 0,1 1,1 0,2 -1,1 -2,0 0,2 -1,1 0,2 -1,1 0,2 -1,1 0,1 1,1 0,3 -1,1 -2,0 0,2 -1,1 0,2 -1,1 0,1 -1,1 0,2 -1,1 0,3 1,0 1,1 2,0 1,-1 1,0 0,-3 1,-1 1,-1 1,-1 6,0 1,1 10,0 1,1 0,4 1,1 0,1 5,0 1,1 0,2 -1,1 -6,0 -1,1 -1,0 0,3 -1,1 -16,0 -1,-1 0,-2 1,-1 6,0 0,-1 -1,0 -1,-1 -14,0 0,1 -1,1 0,1 -1,1 0,4 7,0 1,1 13,0 1,1 17,0 0,-2 1,-1 0,-2 1,-1 0,-2 1,-1 0,-2 1,-1 0,-1 1,-1 2,0 1,1 0,4 -1,1 0,2 -1,1 0,2 -1,1 0,3 4,0 1,1 14,0 1,1 4,0 1,-1 1,0 0,-2 1,-1 0,-2 1,-1 0,-2 1,-1 0,-1 -1,-1 0,-2 1,-1 2,0 0,-2 1,-1 0,-2 1,-1 0,-3 1,-1 0,-2 1,-1 0,-1 -1,-1 -2,0 -1,-1 0,-2 -3,0 -1,-1 -5,0 -1,-1 -1,0 -1,-1 0,-4 -1,-1 0,-1 -1,-1 0,-6 -1,-1 0,-7 1,-1 0,-5 -1,-1 0,-1 -2,0 -1,-1 0,-3 -2,0 -1,-1 0,-1 -2,0 -1,1 -5,0 -1,-1 -4,0 -1,-1 -4,0 -1,-1 -5,0 -1,-1 -3,0 -1,-1 -1,1Z"/>
<path onmouseover="hoverPath(evt)" onmouseout="recoverPath(evt)" fill="rgb(253,253,253)" d="M  62,138l 0,0 -1,1 0,15 -2,2 -1,1 -3,0 -1,-1 -15,0 -1,-1 -14,0 -1,-1 -1,-1 -1,0 -1,1 0,1 -1,1 -14,0 -1,-1 -4,0 0,3 5,0 1,1 11,0 1,1 16,0 1,1 13,0 1,1 9,0 1,1 19,0 1,1 13,0 1,1 2,0 0,-1 1,-1 0,-1 -3,0 -1,-1 -14,0 -1,-1 -13,0 -1,-1 -1,0 -1,-1 0,-3 1,-17 -40,14 0,0 40,-14Z"/>
<path onmouseover="hoverPath(evt)" onmouseout="recoverPath(evt)" fill="rgb(241,243,230)" d="M  92,2l 3,0 1,-1 5,0 1,1 5,0 1,1 5,0 1,1 4,0 1,1 4,0 1,1 4,0 0,-1 -1,-1 0,-4 -35,0Z"/>
<path onmouseover="hoverPath(evt)" onmouseout="recoverPath(evt)" fill="rgb(243,242,233)" d="M  103,186l 0,0 -1,1 0,1 -1,1 0,1 -1,1 -1,1 0,1 -1,1 0,1 -1,1 -1,1 0,1 -1,1 0,1 -1,1 0,1 -1,1 0,1 -1,1 0,1 -1,1 0,1 -1,1 0,1 -1,1 0,1 -1,1 0,1 -1,1 0,2 -1,1 0,1 -1,1 0,2 -1,1 0,1 -1,1 0,2 -1,1 0,1 -1,1 0,1 -1,1 1,1 5,0 1,1 5,0 1,1 4,0 1,1 5,0 0,-2 1,-1 0,-4 1,-1 2,0 0,-4 -1,-1 0,-8 1,-1 0,-2 -1,-1 0,-3 1,-1 4,0 0,-1 1,-1 -3,0 -1,-1 0,-5 1,-1 4,0 1,1 5,0 1,1 8,0 0,-1 -1,-1 0,-3 -1,0 -1,-1 0,-2 -2,0 -1,-1 -3,0 -1,-1 -1,0 -1,1 -2,0 -1,1 -6,0 -1,-1 -1,0 -1,-1 0,-3 -1,-1 1,-1 0,0 1,-1 0,-2 -1,2 0,0 -1,1 1,0 -1,1Z"/>
<path onmouseover="hoverPath(evt)" onmouseout="recoverPath(evt)" fill="rgb(241,240,230)" d="M  158,90l 0,0 -1,-1 0,-1 -4,0 0,5 -1,1 0,4 -1,1 0,3 -1,1 0,2 1,1 0,3 -1,1 -2,0 0,4 -1,1 0,5 1,1 0,2 2,0 1,1 2,0 1,1 1,1 0,2 1,1 2,0 1,-1 0,0 1,-1 2,0 1,1 0,3 -1,1 -1,1 -4,0 0,2 -1,1 -10,0 -1,-1 -1,1 -1,0 0,3 -1,1 0,1 -1,1 -1,1 -4,0 -1,1 -2,0 -1,-1 -3,0 -1,1 -1,0 0,6 8,0 1,1 11,0 1,1 3,0 1,-1 0,-1 1,-1 2,0 1,1 0,1 1,1 4,0 1,1 4,0 1,-1 0,-1 1,-1 0,-2 1,-1 0,-2 1,-1 0,-2 1,-1 0,-2 1,-1 0,-2 1,-1 0,-2 1,-1 0,-1 1,-1 0,-2 1,-1 0,-2 1,-1 0,-2 1,-1 0,-2 1,-1 0,-2 1,-1 0,-2 1,-1 0,-2 1,-1 0,-1 1,-1 0,-2 1,-1 0,-3 1,-1 0,-2 1,-1 0,-4 -1,0 -1,1 -5,0 -1,-1 -5,0 -1,-1 -4,0 -1,-1 -4,0 -1,-1Z"/>
<path onmouseover="hoverPath(evt)" onmouseout="recoverPath(evt)" fill="rgb(242,241,232)" d="M  0,163l 0,24 6,0 1,1 6,0 1,1 0,3 1,1 1,0 0,-8 1,-1 3,0 1,1 1,0 1,-1 3,0 1,1 1,0 1,-1 2,0 1,-1 1,0 1,-1 1,-1 1,0 1,-1 2,0 1,1 0,-1 1,-1 1,-1 3,0 1,-1 1,0 1,-1 2,0 1,1 1,1 0,-1 1,-1 0,0 1,-1 0,-1 1,-1 1,0 0,-1 1,-1 2,0 1,1 2,0 1,1 0,2 1,0 1,-1 0,-2 1,-1 1,-1 2,0 1,1 0,6 -1,1 -1,1 -1,0 0,1 4,-7 0,-5 1,-1 0,-1 1,-1 -15,0 -1,-1 -9,0 -1,-1 -13,0 -1,-1 -16,0 -1,-1 -11,0 -1,-1 -4,0Z"/>
<path onmouseover="hoverPath(evt)" onmouseout="recoverPath(evt)" fill="rgb(243,242,234)" d="M  11,130l -1,0 -1,1 -1,1 -3,0 -1,-1 0,-2 1,-1 -5,0 0,25 5,0 1,1 12,0 0,-1 1,-1 1,-1 0,-2 1,-1 2,0 -1,-1 0,-2 1,-1 0,-1 1,-1 2,0 1,-1 1,-1 1,-1 1,-1 1,-1 1,-1 0,-2 1,-1 1,-1 1,0 1,-1 1,-1 2,0 1,1 1,-1 1,0 1,-1 1,0 1,-1 10,0 1,-1 4,0 1,1 1,1 1,1 0,1 1,1 0,9 -1,1 0,15 1,0 1,1 13,0 1,1 14,0 1,1 1,0 0,-2 1,-1 0,-6 1,-1 0,-6 1,-1 0,-4 1,-1 0,-5 1,-1 0,-6 1,-1 0,-6 1,-1 0,-2 1,-1 0,-12 -3,0 -1,-1 -3,0 -1,-1 -5,0 -1,-1 -4,0 -1,-1 -5,0 -1,-1 -4,0 -1,-1 -5,0 -1,-1 -4,0 -1,-1 -4,0 -1,-1 -4,0 -1,-1 -4,0 -1,-1 -5,0 -1,-1 -6,0 0,2 1,1 0,11 -1,1 -2,0 -1,1 -1,1 -1,0 0,2 -1,1 -1,1 -1,1 -1,1 -1,1 -1,1 -1,0 -1,1 -1,1 -1,1 -1,1 0,3 -1,1 -1,1 -1,1 -1,1 -1,1 -1,0 0,1 -1,1Z"/>
<path onmouseover="hoverPath(evt)" onmouseout="recoverPath(evt)" fill="rgb(242,240,231)" d="M  35,139l 0,0 -1,1 -1,1 -1,1 -1,1 -1,1 -1,1 -2,0 -1,1 0,1 -1,1 0,1 -1,1 0,2 1,1 14,0 1,1 15,0 1,1 1,0 1,-1 0,0 1,-1 0,-15 1,-1 0,-3 -1,-1 0,-1 -1,-1 -2,0 -1,-1 -9,0 -1,1 -1,0 -1,1 -1,0 -1,1 -2,0 -1,-1 -1,1 0,2 -1,1 0,2 -1,1Z"/>
<path onmouseover="hoverPath(evt)" onmouseout="recoverPath(evt)" fill="rgb(240,238,227)" d="M  108,83l 0,-2 -1,-1 -5,0 -1,-1 -3,0 -1,-1 -4,0 -1,-1 -4,0 -1,-1 -5,0 -1,-1 -4,0 -1,-1 -5,0 -1,-1 -5,0 -1,-1 -4,0 -1,-1 -5,0 -1,-1 -4,0 -1,-1 -5,0 -1,-1 -4,0 -1,-1 -3,0 0,1 -1,1 0,1 1,1 0,2 -1,1 -5,0 0,1 1,1 2,0 1,1 0,2 -1,1 -1,1 -1,1 0,3 1,0 1,1 4,0 1,1 6,0 1,1 0,2 5,0 1,1 4,0 1,1 4,0 1,1 4,0 1,1 4,0 1,1 5,0 1,1 4,0 1,1 5,0 1,1 4,0 1,1 5,0 1,1 3,0 1,1 3,0 1,1 0,7 1,-5 0,-5 -1,-1 0,-5 1,-1 0,-5 1,-1 0,-2 1,-1Z"/>
<path onmouseover="hoverPath(evt)" onmouseout="recoverPath(evt)" fill="rgb(229,229,204)" d="M  153,171l 3,0 1,1 1,1 0,3 -1,1 0,1 1,-1 0,0 1,-2 0,-2 1,-1 0,-1 -1,0 -1,-1 -4,0 -1,1 -2,0 -1,-1 -6,0 -1,-1 -14,0 -1,-1 -15,0 -1,-1 -4,0 0,8 -1,1 0,2 1,-2 1,-3 0,-1 1,-1 1,-1 1,-1 16,0 23,2 2,0 -20,-1 10,0 6,1Z"/>
<path onmouseover="hoverPath(evt)" onmouseout="recoverPath(evt)" fill="rgb(241,240,230)" d="M  181,3l 0,-3 -40,0 0,6 4,0 1,1 5,0 1,1 4,0 1,1 4,0 1,1 4,0 1,1 4,0 1,1 4,0 1,1 0,-1 1,-1 1,0 0,-2 1,-1 0,-3 1,-1Z"/>
<path onmouseover="hoverPath(evt)" onmouseout="recoverPath(evt)" fill="rgb(196,218,158)" d="M  199,196l 0,0 1,1 10,0 1,1 13,0 1,-1 0,-1 1,-1 0,-2 1,-1 0,-2 -4,0 -1,-1 -5,0 -1,1 0,1 -1,1 -1,1 -2,0 -1,-1 -2,0 -1,1 -2,0 -1,-1 -6,0 -1,1 -10,0 -1,-1 -3,0 -1,-1 -3,0 -1,1 -4,0 -1,-1 -1,0 -1,-1 0,-2 -1,-1 0,-3 1,-1 1,-1 0,-2 1,-1 4,0 1,-1 -6,0 -1,1 -1,0 -1,1 -2,0 -1,-1 0,-3 1,-1 2,0 1,-1 18,0 1,1 0,2 -1,1 -3,0 -1,1 -1,0 -1,1 6,0 1,1 5,0 1,1 10,0 1,1 0,2 4,0 1,-1 3,0 1,1 6,0 1,1 6,0 0,-1 1,-1 0,-2 1,-1 0,-3 -1,-1 0,-1 -8,0 -1,-1 -13,0 -1,-1 -13,0 -1,-1 -11,0 -1,-1 -10,0 -1,-1 -3,0 -2,2 0,3 -1,1 0,1 -1,1 0,2 -1,1 0,3 -1,1 0,1 -1,1 0,2 -1,1 0,1 -1,1 1,1 8,0 1,1 17,0 1,1Z"/>
<path onmouseover="hoverPath(evt)" onmouseout="recoverPath(evt)" fill="rgb(243,242,233)" d="M  221,235l 0,0 -1,1 0,2 -1,1 0,1 1,1 0,2 -1,1 -2,0 0,2 -1,1 0,2 -1,1 0,2 -1,1 0,2 41,0 0,-16 -3,0 -1,-1 -1,1 -2,0 -1,-1 -1,0 -1,-1 -2,0 -1,-1 -2,0 -1,-1 -1,0 -1,-1 -3,0 -1,-1 -3,0 -1,-1 -1,0 -1,1 -3,0 -1,-1 -1,1 -1,0Z"/>
<path onmouseover="hoverPath(evt)" onmouseout="recoverPath(evt)" fill="rgb(243,241,233)" d="M  243,179l 0,1 -1,1 -2,0 0,2 -1,1 0,1 -1,1 0,1 1,1 0,3 -1,1 0,1 -1,1 -2,0 0,1 -1,1 0,1 1,1 0,2 -1,1 -2,0 0,1 1,1 0,2 -1,1 -2,0 0,2 -1,1 0,2 -1,1 0,2 -1,1 0,2 -1,1 0,2 -1,1 0,2 -1,1 0,4 6,0 1,1 0,2 3,0 1,1 3,0 1,1 1,0 1,1 2,0 1,1 2,0 1,1 1,0 1,1 1,-1 2,0 1,1 2,0 0,-60 -13,0 1,1Z"/>
<path onmouseover="hoverPath(evt)" onmouseout="recoverPath(evt)" fill="rgb(243,242,234)" d="M  35,236l -2,0 0,1 -1,1 -4,0 -1,-1 0,-3 -5,0 -1,-1 -4,0 -1,-1 -5,0 -1,-1 -5,0 -1,-1 -4,0 0,25 57,0 0,-3 1,-1 0,-1 1,-1 0,-2 1,-1 0,-1 1,-1 0,-2 1,-1 0,-1 -1,-1 -6,0 -1,-1 -6,0 -1,-1 -6,0 -1,-1Z"/>
<path onmouseover="hoverPath(evt)" onmouseout="recoverPath(evt)" fill="rgb(190,215,160)" d="M  110,177l -1,1 0,1 -1,1 -2,0 1,1 0,4 -1,1 0,3 1,0 1,1 4,0 1,-1 2,0 1,-1 3,0 1,1 3,0 1,1 8,0 1,1 12,0 1,1 1,1 1,0 -2,-2 0,-1 1,-1 1,-1 0,-2 1,-1 1,0 0,-3 1,-1 2,0 1,1 0,2 1,0 1,-1 0,-2 1,-1 -1,0 -1,-1 0,-3 1,-1 0,-1 -1,-1 -7,0 -1,-1 -15,0 -1,-1 -18,0 -1,1 0,0 -1,1 0,1 -1,1Z"/>
<path onmouseover="hoverPath(evt)" onmouseout="recoverPath(evt)" fill="rgb(243,242,233)" d="M  125,84l 0,0 -1,-1 -2,0 0,7 -1,1 0,4 -1,1 0,5 -1,1 0,5 -1,1 0,5 -1,1 0,1 -1,1 -1,0 0,1 -1,1 1,1 0,6 -1,1 0,7 -1,1 0,5 -1,1 0,6 -1,1 0,6 -1,1 0,7 -1,1 7,0 1,1 1,-1 0,-1 -3,0 -1,-1 0,-2 1,-1 4,0 1,-1 1,0 0,-1 1,-1 0,-5 1,-1 0,-5 1,-1 3,0 1,-1 5,0 1,1 1,-1 4,0 1,-1 0,-1 1,-1 0,-3 1,-1 1,0 1,-1 2,0 1,1 8,0 0,-2 1,-1 4,0 1,-1 0,-1 -1,1 -5,1 -1,-1 0,0 -1,-1 0,-2 -1,-1 -2,0 -1,-1 -2,0 -1,-1 0,-2 -1,-1 0,-7 1,-1 0,-4 1,-1 2,0 0,-1 -1,-1 0,-4 1,-1 0,-3 1,-1 0,-4 1,-1 0,-4 -4,0 -1,-1 -4,0 -1,-1 -5,0 -1,-1 -4,0 -1,-1Z"/>
<path onmouseover="hoverPath(evt)" onmouseout="recoverPath(evt)" fill="rgb(239,238,224)" d="M  252,4l 0,1 -1,1 0,5 -1,1 0,3 -1,1 0,4 -1,1 0,5 2,0 1,1 4,0 0,-27 -3,0Z"/>
<path onmouseover="hoverPath(evt)" onmouseout="recoverPath(evt)" fill="rgb(241,239,228)" d="M  0,77l 0,3 4,0 1,1 4,0 1,1 4,0 1,1 4,0 1,1 5,0 0,-4 -1,-1 0,-2 -1,-1 0,-3 1,-1 0,-1 1,-1 2,0 1,-1 1,0 0,-5 -1,0 -1,1 -5,0 -1,-1 -4,0 -1,-1 -5,0 -1,-1 -4,0 -1,-1 -5,0Z"/>
<path onmouseover="hoverPath(evt)" onmouseout="recoverPath(evt)" fill="rgb(250,250,247)" d="M  136,197l 0,0 -1,-1 0,-2 1,-1 -4,0 -1,-1 -4,0 0,1 1,0 1,1 0,3 1,1 0,3 -1,1 -10,0 -1,-1 -5,0 -1,-1 -2,0 0,3 10,0 1,1 4,0 1,1 1,0 1,1 1,1 0,1 1,-1 0,-5 6,-5 -5,2 0,-1 1,-1 3,0 -4,2 5,-2Z"/>
<path onmouseover="hoverPath(evt)" onmouseout="recoverPath(evt)" fill="rgb(243,242,233)" d="M  140,13l -1,1 0,2 -1,1 0,3 -1,1 0,3 -1,1 0,2 -1,1 0,4 -1,1 0,3 -1,1 0,2 -1,1 0,3 -1,1 0,3 -1,1 0,3 -1,1 0,3 -1,1 0,3 -1,1 0,2 -1,1 0,1 1,0 1,1 4,0 1,1 4,0 1,1 0,2 -1,1 2,-3 3,0 1,1 3,0 1,1 1,0 1,1 6,0 1,1 2,0 0,-1 -2,0 -5,-1 -2,0 -2,-1 -1,-1 0,-6 1,-1 2,0 0,-1 -1,-1 0,-4 1,-1 2,0 0,-1 -1,-1 0,-2 -1,-1 -1,0 -1,-1 -1,0 -1,-1 0,-2 1,-1 3,0 1,1 5,0 1,1 2,0 1,1 5,0 1,1 5,0 0,-2 1,-1 0,-2 1,-1 2,0 0,-2 1,-1 0,-2 -1,-1 0,-6 1,-1 0,-3 1,-1 0,-3 1,-1 0,-1 -1,-1 -2,0 -1,-1 -3,0 -1,-1 -4,0 -1,-1 -4,0 -1,-1 -5,0 -1,-1 -4,0 -1,-1 -4,0 -1,-1 -3,0Z"/>
<path onmouseover="hoverPath(evt)" onmouseout="recoverPath(evt)" fill="rgb(242,240,230)" d="M  0,118l 0,8 7,0 1,1 0,2 1,-1 2,0 0,-1 1,-1 1,0 1,-1 1,-1 1,-1 1,-1 0,-3 1,-1 1,-1 1,-1 1,-1 1,-1 1,0 1,-1 1,-1 1,-1 1,-1 1,-1 0,-2 1,-1 1,0 1,-1 1,-1 2,0 0,-9 -2,0 -1,-1 -1,-1 0,-1 -1,0 -1,-1 -2,0 -1,-1 -3,0 -1,-1 -5,0 -1,-1 -5,0 -1,-1 -5,0 -1,-1 -3,0 0,32 13,-7 -1,1 -1,1 -2,0 -1,-1 0,-2 1,-1 1,-1 2,0 1,1 0,2 -13,7Z"/>
<path onmouseover="hoverPath(evt)" onmouseout="recoverPath(evt)" fill="rgb(244,242,234)" d="M  76,44l 0,0 -1,-1 -1,-1 0,-4 1,-1 0,-2 -1,-1 -3,0 1,1 0,4 -1,1 0,1 -1,1 0,2 -1,1 0,4 -2,2 2,-1 1,-1 2,0 1,1 1,1 4,0 1,1 4,0 1,1 3,0 1,1 3,0 1,-1 5,0 0,-1 -1,0 -1,-1 0,-2 -4,0 -1,-1 -4,0 -1,-1 0,-2 -4,0 -1,-1Z"/>
<path onmouseover="hoverPath(evt)" onmouseout="recoverPath(evt)" fill="rgb(237,236,230)" d="M  125,70l -1,1 2,0 1,1 5,0 1,1 4,0 1,1 5,0 1,1 4,0 1,1 5,0 1,1 4,0 1,1 4,0 1,1 4,0 1,1 4,0 1,1 4,0 1,1 4,0 1,1 4,0 1,1 4,0 1,1 5,0 1,1 4,0 1,1 5,0 1,1 4,0 1,1 4,0 1,1 6,0 1,1 3,0 1,1 6,0 1,-1 0,-11 -1,-1 0,-2 -1,-1 0,-3 1,-1 -1,0 -1,1 -3,0 -1,-1 -1,-1 -1,-1 -1,0 0,2 -1,1 -7,0 -1,-1 0,-1 -4,0 -1,1 -2,0 -1,1 -4,0 -1,-1 0,-1 -1,-1 0,-2 1,-1 0,-7 -1,7 0,0 -1,2 -26,0 -1,-1 -10,0 -1,-1 0,-6 -1,4 0,0 -1,1 0,1 -1,1 -12,0 7,1 0,3 -1,1 -4,0 -1,-1 -6,0 -1,-1 -1,0 -1,-1 -3,0 -1,-1 -1,0 0,1 -1,1 -1,1 -2,0 -1,-1 0,-2 1,-1 -4,0 -1,-1 -4,0 -1,-1 -1,1 0,3 118,2 6,0 -4,-1 -1,0 -1,1 -118,-2Z"/>
<path onmouseover="hoverPath(evt)" onmouseout="recoverPath(evt)" fill="rgb(240,238,225)" d="M  136,222l 0,0 -1,1 0,3 -1,1 0,2 -1,1 0,2 -1,1 0,2 -1,1 0,1 -1,1 -13,0 -1,-1 -5,0 -1,-1 -3,0 -1,-1 -1,0 0,3 2,0 1,-1 2,0 1,1 25,-16 0,-2 1,-1 -1,0 0,3 -15,18 0,2 3,0 1,-1 5,0 1,1 4,0 1,-1 0,-2 1,-1 0,-1 1,-1 0,-2 1,-1 0,-2 1,-1 0,-2 1,-1 0,-2 1,-1 0,-2 1,-1 0,-1 1,-1 0,-2 1,-1 0,-2 -1,0 -1,-1 -3,0 0,1 -1,1 0,2 -18,23 15,-18Z"/>
<path onmouseover="hoverPath(evt)" onmouseout="recoverPath(evt)" fill="rgb(243,242,232)" d="M  146,254l -3,0 -1,-1 -6,0 -1,-1 0,-1 -1,0 -1,1 -3,0 -1,-1 -5,0 -1,-1 -5,0 -1,-1 -4,0 -1,-1 -6,0 -1,-1 -4,0 -1,-1 -3,0 -1,-1 -4,0 -1,-1 -5,0 -1,-1 -5,0 -1,-1 -3,0 0,2 -1,1 0,2 -1,1 0,1 -1,1 0,2 -1,1 0,2 73,0 1,-1 1,1 12,0 0,-1 -5,0 -1,-1 -4,0 -1,1 -1,1 -1,-1Z"/>
<path onmouseover="hoverPath(evt)" onmouseout="recoverPath(evt)" fill="rgb(242,241,233)" d="M  182,22l 0,0 -1,1 0,3 -1,1 0,3 -1,1 0,1 -1,1 0,2 -1,1 0,3 -1,1 0,2 -1,1 -2,0 0,2 -1,1 0,2 -1,1 -7,0 -1,-1 -5,0 -1,-1 -2,0 -1,-1 -5,0 -1,-1 -1,0 4,2 0,0 1,1 0,2 1,1 0,3 -1,1 -2,0 0,2 1,1 0,3 -1,1 -2,0 0,4 1,1 2,0 1,-1 12,0 0,-1 1,-1 1,-1 0,-3 1,-1 2,0 1,1 0,6 10,0 1,1 24,0 0,-1 1,-1 0,-6 1,-1 2,0 1,1 0,9 -1,1 1,1 0,1 2,0 1,-1 2,0 1,-1 6,0 1,1 0,1 5,0 0,-2 1,-1 3,0 1,1 1,1 1,1 1,0 1,-1 5,0 1,-1 3,0 1,1 3,0 1,1 0,2 -1,1 -10,0 0,1 1,1 0,2 1,1 0,12 1,1 0,2 5,0 1,1 6,0 0,-62 -2,0 -1,-1 -4,0 -1,-1 -5,0 -1,-1 -4,0 -1,-1 -4,0 -1,-1 -5,0 -1,-1 -4,0 -1,-1 -4,0 -1,-1 -4,0 -1,-1 -4,0 -1,-1 -4,0 -1,-1 -5,0 -1,-1 -4,0 -1,-1 -4,0 -1,-1 -1,0 -1,1Z"/>
<path onmouseover="hoverPath(evt)" onmouseout="recoverPath(evt)" fill="rgb(251,251,249)" d="M  217,230l -2,0 -1,-1 -11,0 -1,-1 -11,0 11,1 0,0 10,1 2,0 4,1 -1,-1 3,1 1,0 1,-1 2,0 1,1 1,0 1,-1 -2,0 -3,-1 0,-6 -1,0 0,2 -1,1 0,5 -3,-1 0,6 -1,1 0,2 -1,1 0,2 -1,1 0,1 -1,1 0,2 -1,1 0,2 -1,1 0,2 -1,1 0,1 2,0 0,-3 1,-1 0,-2 1,-1 0,-2 1,-1 0,-2 1,-1 2,0 -1,-1 0,-3 1,-1 0,-2 -1,-1 0,-4 6,-9 0,-1 1,-1 0,-2 1,-1 0,-2 1,-1 0,-2 1,-1 0,-2 1,-1 0,-2 1,-1 2,0 -1,-1 0,-3 1,-1 2,0 -1,-1 0,-3 1,-1 0,-1 1,-1 2,0 0,-1 1,-1 0,-1 -1,-1 0,-3 1,-1 0,-1 1,-1 0,-2 1,-1 2,0 -1,-1 0,-2 1,-1 14,0 0,-1 -8,0 -1,-1 -3,0 -1,-1 0,-3 -1,0 0,2 -1,1 -1,0 -1,1 -6,0 -1,-1 -14,0 -1,-1 -4,0 -1,-1 0,-5 1,-1 -1,0 1,-1 0,-1 1,-1 -1,0 1,-1 0,-1 1,-1 -1,0 1,-1 0,-1 -4,11 0,2 -1,1 -19,0 -1,-1 -13,0 -1,-1 -7,0 -1,-1 0,-6 -1,0 0,1 -1,1 0,2 -1,1 -1,1 -16,0 -1,-1 -14,0 -1,-1 -8,0 -1,-1 0,-3 1,-1 9,0 1,1 4,0 1,1 8,0 1,-1 2,0 1,-1 1,-1 1,-1 0,-2 1,-1 1,0 1,-1 4,0 1,1 0,-1 1,1 5,0 1,1 0,4 1,0 0,-1 1,-1 0,-1 1,-1 16,0 1,1 1,0 1,1 0,3 -1,1 8,0 0,-3 1,-1 1,0 1,-1 6,0 -6,-1 0,-1 -1,-1 0,-4 -10,0 -1,-1 -4,0 -1,1 0,0 -1,1 0,3 -1,1 -1,0 44,66 -6,9 -44,-75 -1,0 -1,-1 0,-5 1,-1 0,-2 1,-1 0,-1 1,-1 0,-2 1,-1 0,-2 1,-1 2,0 0,-1 -1,-1 0,-3 1,-1 0,-2 1,-1 0,-2 1,-1 0,-2 1,-1 2,0 -1,-1 0,-3 1,-1 0,-2 1,-1 0,-2 1,-1 0,-2 1,-1 0,-2 1,-1 0,-2 1,-1 0,-3 1,-1 0,-2 1,-1 0,-1 -2,0 0,4 -1,1 0,2 -1,1 0,3 -1,1 0,2 -1,1 0,1 -1,1 0,2 -1,1 0,2 -1,1 0,2 -1,1 0,2 -1,1 0,2 -1,1 0,2 -1,1 0,2 -1,1 0,1 -1,1 0,2 -1,1 0,2 -1,1 0,2 -1,1 0,2 -1,1 0,2 -1,1 0,2 -1,1 0,1 -1,1 -1,1 6,0 44,75 -62,-77 -1,-1 0,0 -1,1 -1,1 -5,0 -1,-1 -11,0 -1,-1 -8,0 -1,-1 0,-7 -1,6 0,5 -1,1 0,1 -1,1 -1,0 -1,1 -4,0 4,1 0,3 -1,1 -1,1 -2,0 -1,-1 -7,0 0,1 5,0 1,1 15,0 1,1 14,0 1,1 14,0 1,1 1,0 1,1 0,3 -1,1 0,2 -1,1 0,1 -1,1 0,2 -1,1 0,2 -1,1 0,2 -1,1 0,2 -1,1 0,2 -1,1 0,2 -1,1 0,1 -1,1 -4,0 1,1 0,3 -1,1 0,2 -1,1 0,2 -1,1 -1,1 0,1 1,0 1,1 0,4 1,0 0,-2 1,-1 0,-2 1,-1 2,0 -1,-1 0,-3 1,-1 0,-2 1,-1 0,-2 1,-1 0,-2 1,-1 1,-1 4,0 1,1 6,0 1,1 1,0 1,-1 -2,0 -2,-1 -5,0 -4,-1 -1,-1 0,-2 1,-1 0,-1 1,-1 0,-2 1,-1 0,-1 1,-1 0,-3 1,-1 0,-2 1,-1 0,-1 1,-1 0,-3 1,-1 1,-1 1,-1 5,0 1,1 10,0 1,1 11,0 1,1 13,0 1,1 13,0 1,1 14,0 1,1 0,4 -83,-26 62,77 -70,-12 -1,0 0,2 -1,1 0,1 -1,1 0,2 -1,1 0,2 -1,1 0,2 -1,1 0,2 -1,1 0,2 -1,1 0,1 -1,1 0,2 -1,1 0,1 2,0 0,-3 1,-1 0,-2 1,-1 0,-2 1,-1 0,-2 1,-1 2,0 -1,-1 0,-3 1,-1 0,-2 1,-1 0,-2 1,-1 0,-2 70,12 -73,-19 -4,0 -1,-1 -5,0 3,1 0,6 1,-4 0,-1 1,-1 5,0 73,19 25,-62 1,0 0,-1 1,-1 0,-2 1,-1 0,-2 1,-1 0,-2 1,-1 0,-2 1,-1 0,-2 1,-1 0,-2 1,-1 0,-2 1,-1 0,-3 1,-1 0,-3 1,-1 2,0 0,-31 -1,0 0,7 -1,1 0,5 1,1 0,6 -1,1 0,4 -1,1 0,4 -1,1 0,1 -1,1 -4,0 3,1 0,0 1,1 0,3 -1,1 0,2 -1,1 0,3 -1,1 0,2 -1,1 0,2 -1,1 -2,0 1,1 0,3 -1,1 0,2 -1,1 0,2 -25,62 20,-49 -1,1 0,2 -1,1 0,1 -1,1 0,1 -1,1 0,2 -1,1 0,2 -1,1 0,1 -1,1 0,1 -1,1 0,2 -1,1 0,2 -1,1 0,2 -1,1 0,2 -1,1 0,2 -1,1 0,2 -1,1 0,2 -1,1 15,-39 -20,49Z"/>
<path onmouseover="hoverPath(evt)" onmouseout="recoverPath(evt)" fill="rgb(217,226,191)" d="M  249,158l 0,0 -1,1 0,2 -1,1 0,2 -1,1 0,2 -1,1 0,1 -1,1 0,1 3,0 1,1 7,0 0,-33 -1,0 0,3 -1,1 0,3 -1,1 0,2 -1,1 0,2 -1,1 0,2 -1,1Z"/>
<path onmouseover="hoverPath(evt)" onmouseout="recoverPath(evt)" fill="rgb(242,240,231)" d="M  0,23l 0,10 3,0 1,1 3,0 1,1 0,2 3,0 1,-1 7,0 1,1 1,0 1,1 2,0 1,1 3,0 1,1 1,0 1,1 1,0 1,1 0,2 2,0 1,1 2,0 1,1 1,0 1,1 2,0 1,-1 3,0 1,1 0,4 1,-1 5,0 1,-1 6,0 1,1 3,0 1,-1 1,-1 0,-4 1,-1 0,-2 1,-1 0,-1 1,-1 0,-2 -1,-1 -3,0 -1,-1 -2,0 -1,-1 -5,0 -1,-1 -4,0 -1,-1 -4,0 -1,-1 -4,0 -1,-1 -3,0 -1,-1 -3,0 -1,-1 0,-2 -3,0 -1,1 -5,0 -1,-1 -4,0 -1,-1 0,-2 -3,0 -1,1 -6,0 -1,-1 -3,0 -1,-1 0,-2 -3,0Z"/>
<path onmouseover="hoverPath(evt)" onmouseout="recoverPath(evt)" fill="rgb(244,243,236)" d="M  0,191l 0,29 5,0 1,1 5,0 1,1 5,0 1,1 4,0 1,1 5,0 1,1 6,0 1,1 5,0 1,1 6,0 1,1 6,0 1,1 6,0 1,1 3,0 0,-1 1,-1 0,-1 1,-1 0,-1 1,-1 0,-2 1,-1 0,-1 1,-1 0,-1 1,-1 0,-1 1,-1 0,-2 1,-1 0,-1 1,-1 0,-1 1,-1 0,-2 1,-1 0,-1 1,-1 0,-1 1,-1 0,-1 1,-1 0,-1 1,-1 0,-1 1,-1 0,-1 1,-1 0,-1 1,-1 0,-1 1,-1 0,-1 1,-1 1,-1 0,-1 1,-1 0,-1 1,-1 0,-1 1,-1 0,-1 1,-1 0,-1 1,-1 0,-2 1,-1 0,-3 1,-1 0,-2 -2,0 -1,-1 -13,0 -1,-1 0,1 -1,1 -2,0 0,1 -1,1 0,5 -1,1 0,3 -1,1 -1,1 -1,1 -1,1 -2,0 -1,-1 0,-3 1,-1 1,0 1,-1 0,-4 -1,1 0,2 -1,1 -1,1 -3,0 -1,-1 0,-2 -2,0 -1,-1 0,1 -1,1 -1,0 0,1 -1,1 -1,1 0,1 -1,1 -2,0 -1,-1 -1,-1 -1,1 -1,0 -1,1 -3,0 -1,1 0,1 -1,1 -2,0 -1,-1 -1,1 -1,0 -1,1 -1,1 -1,0 -1,1 -2,0 -1,1 -3,0 -1,-1 -1,0 -1,1 -3,0 -1,-1 -1,0 0,8 -1,1 -3,0 -1,-1 -1,-1 0,-3 -6,0 -1,-1 -5,0Z"/>
<path onmouseover="hoverPath(evt)" onmouseout="recoverPath(evt)" fill="rgb(253,253,253)" d="M  30,71l -1,0 -1,1 -2,0 0,1 -1,1 0,1 1,1 0,2 1,1 0,6 -1,1 -7,0 -1,-1 -4,0 -1,-1 -4,0 -1,-1 -4,0 -1,-1 -3,0 0,2 4,0 1,1 5,0 1,1 5,0 1,1 5,0 1,1 3,0 1,1 2,0 1,1 1,0 1,1 0,1 1,1 0,-3 1,-1 7,0 -7,-1 -4,0 -1,-1 -1,0 -1,-1 3,-15 -2,9 1,-1 1,-1 -2,0 -1,-1 0,1 -1,-3 0,-1 3,-2 3,0 -1,-1 0,-3 1,-1 0,-2 -1,0Z"/>
<path onmouseover="hoverPath(evt)" onmouseout="recoverPath(evt)" fill="rgb(237,235,227)" d="M  66,53l 0,0 -1,-1 -4,0 -1,-1 -4,0 -1,1 -5,0 -1,1 -2,0 -1,-1 0,-4 -1,0 -1,1 -4,0 -1,-1 -1,0 -1,-1 -2,0 -1,-1 -2,0 -1,-1 0,-2 -1,0 -1,-1 -1,0 -1,-1 -3,0 -1,-1 -2,0 -1,-1 -1,0 -1,-1 -5,0 -1,1 -5,0 -1,-1 0,-2 -3,0 -1,-1 -2,0 0,12 2,0 1,1 1,1 0,1 1,-1 1,-1 3,0 1,1 0,1 4,0 1,1 4,0 1,1 0,1 1,-1 5,0 1,1 4,0 1,1 4,0 1,1 4,0 1,1 4,0 1,1 0,1 1,-1 4,0 1,1 4,0 1,1 4,0 1,1 1,0 1,-1 3,0 1,1 0,1 4,0 1,1 4,0 1,1 5,0 1,1 5,0 1,1 4,0 1,1 1,0 1,-1 3,0 1,1 0,1 6,0 1,1 2,0 0,-5 1,-1 1,-1 0,-3 1,-1 0,-3 1,-1 0,-3 1,-1 0,-3 1,-1 0,-3 1,-1 0,-3 1,-1 0,-3 1,-1 0,-3 1,-1 0,-3 1,-1 0,-2 1,-1 0,-3 1,-1 0,-3 1,-1 0,-3 1,-1 -3,0 -1,-1 0,-2 -4,0 -1,-1 -4,0 -1,-1 -5,0 -1,-1 -5,0 -1,-1 -3,0 -1,1 -5,0 -1,-1 0,-3 -3,0 0,3 -1,1 0,2 -1,1 -2,0 0,1 -1,1 0,3 1,-1 6,0 1,1 3,0 1,-1 5,0 1,1 0,2 2,0 1,1 4,0 1,-1 5,0 1,1 1,0 1,1 0,7 -1,1 0,3 -1,1 0,3 -1,1 -1,1 -1,1 0,7 1,1 0,4 -1,1 -2,0 0,1 -1,1 -6,0 5,1 0,4 -1,1 -1,0 -1,1 -6,0 -1,-1 -4,0 -1,1 -5,0 -1,-1 -3,0 -1,-1 -4,0 -1,-1 -4,0 -1,-1 -1,-1 -1,1 -1,0 -1,1 -2,0 44,-19 0,0 -44,19Z"/>
<path onmouseover="hoverPath(evt)" onmouseout="recoverPath(evt)" fill="rgb(241,239,230)" d="M  94,14l -5,0 -1,-1 -4,0 -1,1 0,3 -1,1 0,2 -1,1 -2,0 0,3 -1,1 0,1 -1,1 0,4 -1,1 0,1 1,1 0,4 -1,1 0,2 1,1 4,0 1,1 4,0 1,1 0,2 4,0 1,1 4,0 1,1 0,2 1,0 1,1 0,3 4,0 1,-1 1,0 0,-2 -4,0 -1,-1 0,-2 1,-1 6,0 0,-1 1,-1 2,0 0,-2 -1,-1 0,-6 -1,0 -1,-1 0,-2 1,-1 2,0 1,-1 1,-1 0,-3 1,-1 0,-3 1,-1 0,-5 -1,0 -1,-1 -3,0 -1,1 -6,0 -1,-1 -2,0 -1,-1 0,-2 -3,0 -1,1Z"/>
<path onmouseover="hoverPath(evt)" onmouseout="recoverPath(evt)" fill="rgb(240,239,228)" d="M  113,207l 0,1 -1,1 -4,0 0,1 1,1 0,4 -1,1 0,6 1,1 0,6 -1,1 0,4 3,0 1,1 5,0 1,1 11,0 0,-1 1,-1 0,-2 1,-1 0,-2 1,-1 0,-2 1,-1 0,-3 1,-1 0,-3 1,-1 0,-5 -2,0 -1,-1 0,-2 -1,0 -1,1 -2,0 -1,-1 0,-1 -1,-1 -1,0 -1,-1 -3,0 -1,1 -7,0 19,1 8,0 1,1 3,0 1,-1 0,-2 1,-1 0,-2 1,-1 0,-1 -1,-1 0,-2 1,-1 4,0 0,-1 1,-1 0,-2 1,-1 0,-2 1,-1 0,-2 1,-1 -2,0 -1,-1 0,1 -1,1 -1,0 0,2 -1,1 -1,1 1,0 1,1 0,2 -1,1 -3,0 -1,-1 -1,-1 -3,0 0,1 -1,1 1,0 1,1 0,2 -1,1 -8,0 0,1 -1,1 0,7 -19,-1Z"/>
<path onmouseover="hoverPath(evt)" onmouseout="recoverPath(evt)" fill="rgb(231,229,207)" d="M  154,159l 0,0 -1,1 -1,1 -1,1 -1,1 -2,0 -1,1 -10,0 -1,-1 -4,0 -1,-1 -7,0 0,1 7,0 2,1 3,0 12,1 14,0 1,-1 0,-2 1,-1 0,-1 1,-1 0,-2 -6,0 -1,-1 -2,0 -1,1 -1,0Z"/>
<path onmouseover="hoverPath(evt)" onmouseout="recoverPath(evt)" fill="rgb(242,241,232)" d="M  179,230l 0,0 -1,1 0,2 -1,1 0,2 -1,1 0,2 -1,1 0,3 -1,1 0,2 -1,1 0,2 4,0 1,1 5,0 1,1 4,0 1,1 6,0 1,1 0,2 12,0 0,-2 1,-1 0,-2 1,-1 0,-2 1,-1 0,-2 1,-1 0,-1 1,-1 0,-2 1,-1 0,-2 1,-1 0,-2 1,-1 -5,0 -1,-1 -9,0 -1,-1 -10,0 -1,-1 -9,0 -1,1Z"/>
</svg>