<svg width="256" height="256" xmlns="http://www.w3.org/2000/svg"><script> 
var tempColor;
function hoverPath(evt){
obj = evt.target;
tempColor = obj.getAttribute("fill");
obj.setAttribute("fill","red");
//alert(tempColor);
//obj.setAttribute("stroke","red");}
function recoverPath(evt){
obj = evt.target;
obj.setAttribute("fill", tempColor);
//obj.setAttribute("stroke", tempColor);
}</script><path onmouseover="hoverPath(evt)" onmouseout="recoverPath(evt)" fill="rgb(246,236,142)" d="M  0,224l 0,5 3,0 1,-1 4,0 1,1 0,1 1,0 1,-1 0,-2 1,-1 1,0 1,-1 2,0 1,-1 2,0 1,-1 3,0 1,-1 2,0 1,-1 2,0 1,-1 2,0 1,-1 3,0 1,-1 3,0 1,-1 2,0 1,1 0,1 1,0 1,-1 0,-2 1,-1 2,0 1,-1 2,0 1,-1 3,0 1,-1 2,0 1,-1 3,0 1,-1 2,0 1,-1 2,0 1,-1 2,0 1,-1 5,0 1,1 1,1 0,3 1,1 0,3 1,1 0,2 -1,1 -5,0 6,1 4,0 1,-1 -3,0 -1,-1 0,-4 -1,-1 0,-2 -1,-1 0,-2 -1,-1 0,-2 1,-1 1,0 1,-1 3,0 1,-1 2,0 1,-1 2,0 1,-1 3,0 1,-1 2,0 1,-1 2,0 1,-1 3,0 1,-1 2,0 1,-1 2,0 1,-1 2,0 1,-1 4,0 1,-1 3,0 1,-1 3,0 1,-1 2,0 1,-1 3,0 1,-1 2,0 1,1 0,1 1,1 0,2 1,1 0,2 1,1 0,2 1,1 0,2 1,1 0,2 1,1 0,2 1,1 0,2 1,1 0,3 1,1 0,1 1,1 0,2 1,1 0,2 1,1 0,2 1,1 0,1 1,1 0,2 1,1 0,2 1,1 0,2 1,1 0,2 1,1 0,2 1,1 0,6 -1,1 -1,0 0,3 12,0 0,-3 -1,-1 0,-5 -1,-1 0,-2 -1,-1 0,-2 -1,-1 0,-2 -1,-1 0,-2 -1,-1 0,-2 -1,-1 0,-2 -1,-1 0,-2 -1,-1 0,-2 -1,-1 0,-1 -1,-1 0,-3 -1,0 -1,-1 0,-1 -1,-1 0,-5 -1,-1 0,-2 -1,-1 0,-2 -1,-1 0,-2 -1,-1 0,-2 -1,-1 0,-2 -1,-1 0,-5 1,-1 4,0 1,-1 4,0 1,-1 4,0 1,-1 5,0 1,-1 4,0 1,-1 6,0 1,-1 4,0 0,-1 1,-1 2,0 1,1 0,5 1,1 0,-7 6,0 1,-1 5,0 1,-1 5,0 1,-1 5,0 1,-1 5,0 1,-1 4,0 1,-1 4,0 0,-1 1,-1 3,0 1,1 2,0 1,-1 5,0 1,-1 4,0 1,-1 5,0 0,-8 -4,0 -1,1 -5,0 -1,1 -8,0 -1,-1 0,2 -1,1 -1,1 -1,0 -1,1 -5,0 -1,-1 -3,0 -1,-1 -3,0 0,1 -1,1 -2,0 0,1 -1,1 -2,0 -1,1 -4,0 -1,-1 -1,0 -1,1 -4,0 -1,1 -5,0 -1,1 -4,0 -1,1 -2,0 -1,-1 0,1 -1,1 -8,0 -1,1 -5,0 -1,1 -5,0 -1,1 -5,0 -1,1 -4,0 -1,1 -3,0 -1,1 -3,0 -1,-1 -1,-1 0,-2 -1,-1 0,-2 -1,-1 0,-1 -1,-1 0,-2 -1,-1 0,-2 -1,-1 0,-2 -1,-1 0,-2 -1,-1 0,-2 -1,-1 0,-2 -1,-1 0,-2 -1,-1 0,-2 -1,-1 0,-1 -1,-1 0,-2 -1,-1 0,-2 -1,-1 0,-2 -1,-1 0,-2 -1,-1 0,-2 -1,-1 0,-1 -1,-1 0,-3 -1,0 -1,-1 0,-4 -1,-1 0,-2 -1,-1 0,-2 -1,-1 0,-5 1,-1 -2,0 -1,-1 0,-1 -1,-1 0,-2 -1,-1 0,-3 -2,0 -1,-1 0,-2 -1,-1 0,-1 -1,-1 0,-3 1,-1 -1,-1 0,-2 -1,-1 0,-2 -2,0 -1,-1 0,-4 -1,-1 0,-3 1,-1 1,0 -2,-1 0,-1 -1,-1 0,-2 -1,-1 0,-2 -1,-1 0,-2 -1,-1 0,-2 -1,-1 0,-1 -1,-1 0,-2 -1,-1 0,-3 -1,-1 0,-2 -1,-1 0,-2 -1,-1 0,-1 -1,-1 0,-2 -1,-1 0,-4 -1,-1 -1,-1 0,-2 -1,-1 0,-2 -1,-1 0,-3 -1,-1 0,-3 -1,-1 -1,-1 0,-2 -1,-1 0,-2 -1,-1 0,-2 -1,-1 0,-2 -1,-1 0,-2 -9,0 0,2 1,1 0,2 1,1 0,2 1,1 0,2 1,1 0,1 1,1 0,3 -1,1 2,0 1,1 0,4 1,1 0,1 1,1 0,2 1,1 0,3 1,0 1,1 0,1 1,1 0,6 1,1 0,3 1,1 0,1 1,1 0,2 1,1 0,2 1,1 0,1 1,1 0,1 1,1 0,2 1,1 0,2 1,1 0,2 1,1 0,2 1,1 0,2 1,1 0,3 1,1 0,1 1,1 0,2 1,1 0,2 1,1 0,2 1,1 0,1 1,1 0,2 1,0 1,1 0,1 1,1 0,1 1,1 0,2 -1,1 0,1 1,1 0,2 1,1 0,2 1,1 0,1 1,1 0,5 -1,1 2,0 1,1 0,2 1,1 0,2 1,1 0,2 1,1 0,2 1,1 0,2 1,1 0,1 1,1 0,2 1,1 0,2 1,1 0,2 1,1 0,2 1,1 0,2 1,1 0,2 1,1 0,2 1,1 0,2 1,1 0,1 1,1 0,2 1,1 0,2 1,1 0,2 1,1 0,2 1,1 0,2 1,1 0,2 1,1 0,3 -1,1 -3,0 -1,1 -3,0 -1,1 -2,0 -1,1 -3,0 -1,1 -3,0 -1,1 -2,0 -1,1 -3,0 -1,1 -2,0 -1,1 -2,0 -1,1 -2,0 -1,1 -3,0 -1,1 -2,0 -1,1 -2,0 -1,1 -3,0 -1,1 -2,0 -1,1 -4,0 -1,-1 -1,-1 0,-3 -1,-1 0,-2 -1,-1 0,-3 -1,-1 0,-3 -1,-1 0,-2 -1,-1 0,-1 -1,-1 0,-4 -1,-1 0,-2 -1,-1 0,-1 -1,-1 0,1 1,2 1,3 0,2 1,3 1,2 0,2 1,1 0,3 1,1 0,2 1,2 0,2 1,1 0,3 1,1 0,2 -1,1 -2,0 -1,1 -2,0 -1,1 -2,0 -1,1 -3,0 -1,1 -2,0 -1,1 -2,0 -1,1 -3,0 -1,1 -2,0 -1,1 -3,0 -1,1 -2,0 -1,-1 0,-1 -1,-1 0,3 -1,1 -1,0 -1,1 -1,0 -1,1 -2,0 -1,1 -2,0 -1,1 -3,0 -1,1 -2,0 -1,1 -2,0 -1,1 -2,0 -1,1 -2,0 -1,1 -3,0 -1,1 -2,0 -1,1 -2,0 -1,1 -4,0 0,3 235,-64 0,-2 -1,0 0,1 1,1 -235,64Z"/>
<path onmouseover="hoverPath(evt)" onmouseout="recoverPath(evt)" fill="rgb(239,240,235)" d="M  87,223l -3,0 0,2 1,1 0,2 1,1 0,1 1,1 0,2 1,1 0,2 1,1 0,2 1,1 0,2 1,1 0,2 1,1 0,2 1,1 0,2 1,1 0,3 34,0 0,-8 -1,-1 0,0 -1,-1 0,-1 -1,-1 -1,-1 -2,-2 0,-1 -1,-1 0,-1 -1,-1 0,-1 -1,-1 0,-2 -1,-1 0,-3 1,-1 0,-1 -1,-1 0,-3 -1,-1 -1,-1 0,-2 -1,-1 -1,0 -1,-1 -1,1 -7,0 -1,-1 -1,0 -1,1 -3,0 0,2 -1,1 -4,0 -1,-1 -2,0 0,2 -1,1 -2,0 -1,1Z"/>
<path onmouseover="hoverPath(evt)" onmouseout="recoverPath(evt)" fill="rgb(242,241,232)" d="M  145,88l 0,1 1,1 3,0 1,-1 3,0 1,-1 4,0 1,-1 3,0 1,-1 4,0 1,-1 3,0 1,-1 3,0 1,1 1,1 0,1 1,1 0,4 -1,1 0,5 1,1 0,5 1,1 0,4 1,1 0,4 2,0 1,1 0,4 1,1 4,0 1,-1 8,0 1,-1 0,-6 1,-1 2,0 1,1 0,5 1,1 7,0 1,-1 8,0 1,-1 2,0 0,-10 -1,-1 0,-8 -10,0 -1,-1 0,-2 1,-1 12,0 1,-1 0,-1 -1,-1 0,-7 -1,-1 0,-6 -1,-1 -12,0 -1,1 -9,0 -1,1 -10,0 -1,1 -8,0 -1,1 -5,0 -1,1 -3,0 -1,1 -3,0 -1,1 -2,0 -1,1 -3,0 -1,1 -2,0 -1,1 -2,0 -1,1 -2,0 -1,1 -2,0 -1,1Z"/>
<path onmouseover="hoverPath(evt)" onmouseout="recoverPath(evt)" fill="rgb(243,242,233)" d="M  159,216l 0,2 1,1 0,1 1,1 0,2 1,1 0,2 1,1 0,2 1,1 0,2 1,1 0,2 1,1 0,2 1,1 0,2 1,1 0,2 1,1 0,2 2,0 1,-1 3,0 1,-1 3,0 1,-1 3,0 1,-1 2,0 1,-1 1,0 -2,-1 -1,0 -1,-1 -1,0 -1,-1 0,-10 1,-1 1,-1 4,0 1,1 5,0 1,-1 3,0 1,-1 1,-1 1,0 1,-1 8,0 1,1 0,1 1,1 0,-3 -1,-1 0,-6 -1,-1 0,-7 -1,-1 0,-8 -1,-1 0,-5 -1,-1 0,-1 -6,0 -1,1 -6,0 -1,-1 -1,-1 0,6 1,1 0,9 -1,1 -6,0 -1,1 -6,0 -1,1 -6,0 -1,1 -9,0 -1,1 -5,0 1,1 0,1 1,0 1,1Z"/>
<path onmouseover="hoverPath(evt)" onmouseout="recoverPath(evt)" fill="rgb(243,242,234)" d="M  6,0l -1,0 0,3 1,1 0,2 1,1 0,2 1,1 0,3 2,0 1,1 0,3 -1,1 0,1 1,1 0,2 1,1 0,3 1,1 0,2 1,1 0,2 1,1 0,2 1,1 0,1 3,0 1,-1 2,0 1,-1 2,0 1,-1 2,0 1,-1 3,0 1,-1 2,0 1,-1 2,0 1,-1 2,0 1,-1 2,0 1,-1 2,0 1,-1 2,0 1,-1 2,0 1,-1 2,0 1,-1 2,0 1,-1 2,0 1,-1 2,0 1,-1 3,0 1,-1 2,0 1,-1 2,0 0,-2 1,-1 1,0 0,-1 -1,-1 0,-1 -1,-1 0,-2 -1,-1 0,-2 -1,-1 0,-2 -1,-1 0,-3Z"/>
<path onmouseover="hoverPath(evt)" onmouseout="recoverPath(evt)" fill="rgb(244,242,235)" d="M  33,233l 0,0 -1,1 0,2 1,1 0,3 1,1 0,1 1,1 0,4 -1,1 0,1 1,1 0,1 2,0 1,1 0,3 54,0 0,-2 -1,-1 0,-2 -1,-1 0,-2 -1,-1 0,-2 -1,-1 0,-2 -1,-1 0,-2 -1,-1 0,-2 -1,-1 0,-2 -1,-1 0,-1 -1,-1 0,-2 -1,-1 0,-3 -1,0 -1,-1 -5,0 -1,-1 0,-2 1,-1 5,0 -1,-1 0,-3 -1,-1 0,-3 -1,-1 -3,0 -1,1 -2,0 -1,1 -2,0 -1,1 -2,0 -1,1 -3,0 -1,1 -2,0 -1,1 -3,0 -1,1 -2,0 -1,1 -2,0 0,2 -1,1 0,3 4,0 1,1 0,2 -1,1 -2,0 -1,1 -4,0 -1,1 -3,0 -1,-1 -2,0 -1,1 -2,0 0,2 -1,1Z"/>
<path onmouseover="hoverPath(evt)" onmouseout="recoverPath(evt)" fill="rgb(242,241,233)" d="M  100,43l 0,2 1,1 0,3 1,1 0,2 1,1 0,1 1,1 0,2 1,1 0,2 1,1 0,2 1,1 0,2 1,1 0,1 1,0 1,1 1,-1 2,0 1,-1 2,0 0,-2 1,-1 2,0 1,1 1,0 1,-1 1,0 1,-1 2,0 1,-1 1,0 1,-1 2,0 1,-1 2,0 0,-2 1,-1 2,0 1,1 1,0 0,-2 1,-1 2,0 1,1 1,0 1,-1 1,0 1,-1 0,-1 1,-1 1,0 1,-1 1,-1 1,-1 1,-1 0,-2 1,-1 1,0 1,-1 1,-1 1,-1 0,-1 1,-1 0,-1 1,-1 1,0 3,-3 0,-2 1,-1 1,0 1,-1 1,-1 1,-1 0,-2 1,-1 1,0 1,-1 1,-1 1,-1 0,-2 1,-1 1,0 1,-1 1,-1 1,-1 0,-1 1,-1 1,-1 0,-1 1,-1 1,-1 1,0 1,-1 0,-2 1,-1 1,0 1,-1 1,-1 0,-2 1,-1 1,0 1,-1 0,-1 -107,0 0,1 1,1 0,2 1,1 0,2 1,1 0,2 1,1 0,2 1,1 1,1 0,3 1,1 0,3 1,1 0,2 1,1 0,2 1,1 1,1 0,4 1,1 0,2 1,1 0,1 1,1 0,2 1,1Z"/>
<path onmouseover="hoverPath(evt)" onmouseout="recoverPath(evt)" fill="rgb(243,242,234)" d="M  201,0l -3,0 0,2 -1,1 -1,1 0,2 -1,1 -1,0 -1,1 -1,1 0,2 -1,1 -1,0 -1,1 -1,1 0,6 1,1 0,3 1,1 1,0 1,-1 3,0 1,-1 3,0 1,-1 4,0 1,1 1,0 0,-2 1,-1 3,0 1,-1 3,0 1,-1 4,0 1,-1 3,0 1,-1 3,0 1,-1 4,0 1,1 2,0 1,-1 4,0 1,-1 3,0 0,-2 1,-1 2,0 0,-2 1,-1 7,0 0,-8Z"/>
<path onmouseover="hoverPath(evt)" onmouseout="recoverPath(evt)" fill="rgb(240,239,232)" d="M  0,50l 0,73 2,0 1,-1 3,0 0,-1 1,-1 6,0 1,-1 2,0 1,-1 1,0 1,-1 1,0 0,-1 1,-1 6,0 0,-3 1,-1 4,0 0,-1 1,-1 1,0 0,-1 1,-1 0,-4 1,-1 2,0 0,-2 1,-1 2,0 0,-1 -2,0 -1,-1 -1,-1 0,-5 -1,-1 -3,0 -1,1 -2,0 -1,-1 -2,0 -1,-1 0,-2 -1,-1 0,-3 -1,-1 0,-2 -1,-1 0,-3 -1,-1 0,-2 -1,-1 0,-4 1,-1 0,-1 -2,0 -1,-1 0,-2 -1,-1 0,-2 -1,-1 0,-3 -1,-1 0,-1 -1,-1 0,-2 -2,0 -1,-1 0,-3 1,-1 0,-1 -3,0 -1,1 -2,0 -1,1 -2,0 -1,1 -3,0Z"/>
<path onmouseover="hoverPath(evt)" onmouseout="recoverPath(evt)" fill="rgb(250,250,247)" d="M  36,42l -3,0 -1,-1 0,-4 1,-1 1,-1 -4,0 -1,1 -2,0 -1,1 -2,0 -1,1 -2,0 -1,1 -5,0 -1,-1 0,-1 -1,-1 0,-2 -1,-1 0,-2 -1,-1 0,-2 -1,-1 0,-3 -1,-1 0,-2 -1,-1 0,-3 1,-1 0,-1 -2,0 -1,-1 0,-3 -1,-1 0,-2 -1,-1 0,-2 -1,-1 0,-4 -3,0 0,4 2,0 1,1 0,3 1,1 0,2 1,1 0,2 1,1 0,2 1,1 0,2 1,1 0,3 1,1 0,2 1,1 0,2 1,1 0,2 1,1 0,3 1,1 0,2 -2,2 -2,0 -1,1 -2,0 -1,1 -3,0 -1,-1 -1,0 0,3 2,0 1,-1 2,0 1,-1 2,0 1,-1 5,0 1,1 0,3 -1,1 0,1 2,0 1,1 0,2 1,1 0,-3 -1,-1 0,-2 -1,-1 0,-4 1,-1 1,0 1,-1 2,0 1,-1 2,0 1,-1 5,0 1,1 0,5 1,0 1,-1 2,0 1,-1 -2,-8 1,1 1,0 1,-1 2,0 1,-1 2,0 1,1 2,0 1,1 2,0 0,-2 1,-1 3,0 1,1 5,0 1,1 0,-1 -1,-1 -3,0 -1,-1 0,-2 1,-1 3,0 1,-1 2,0 1,-1 2,0 1,-1 2,0 1,-1 4,0 1,1 1,1 2,0 1,1 0,1 1,1 0,1 1,1 0,1 3,0 0,-2 -1,-1 0,-2 -1,-1 0,-1 -1,-1 0,-4 -2,0 -1,1 -2,0 -1,1 -2,0 -1,1 -3,0 -1,1 -2,0 -1,1 -2,0 -1,1 -2,0 -1,1 -2,0 -1,1 -2,0 -1,1 -2,0 -1,1 -2,0 -1,1 -2,0 -1,1 -2,0 -1,1 -2,0 -1,1 -2,0 2,8Z"/>
<path onmouseover="hoverPath(evt)" onmouseout="recoverPath(evt)" fill="rgb(244,242,234)" d="M  57,115l -1,0 0,2 1,1 0,2 1,1 0,3 1,1 0,3 1,1 0,2 1,1 0,-2 1,-1 1,0 1,-1 1,-1 3,0 1,-1 3,0 1,-1 1,0 1,-1 3,0 1,-1 2,0 1,-1 3,0 1,-1 1,0 1,-1 3,0 1,-1 2,0 1,-1 3,0 1,-1 1,0 1,-1 3,0 1,-1 2,0 1,-1 2,0 0,-3 -1,-1 0,-1 -1,-1 0,-2 -1,-1 0,-2 -1,-1 0,-2 -3,0 -1,1 -2,0 -1,1 -2,0 -1,1 -3,0 -1,1 -2,0 -1,1 -2,0 -1,1 -2,0 -1,1 -2,0 -1,1 -2,0 -1,1 -2,0 -1,1 -2,0 -1,1 -3,0 -1,1 -2,0 -1,1 -2,0 -1,1 -3,0 -1,1Z"/>
<path onmouseover="hoverPath(evt)" onmouseout="recoverPath(evt)" fill="rgb(171,198,237)" d="M  114,91l 0,0 1,1 0,2 2,0 1,-1 2,0 1,-1 3,0 1,-1 3,0 1,-1 1,0 1,-1 2,0 1,-1 3,0 1,-1 2,0 1,-1 2,0 1,-1 3,0 1,-1 2,0 1,-1 2,0 1,-1 2,0 1,-1 3,0 1,-1 2,0 1,-1 3,0 1,-1 3,0 1,-1 5,0 1,-1 8,0 1,-1 10,0 1,-1 9,0 1,-1 14,0 1,1 1,1 0,6 1,1 0,7 1,1 0,3 -1,1 0,1 1,1 0,9 1,1 0,12 1,1 0,7 1,1 0,9 1,1 0,10 1,1 0,11 1,1 0,3 1,-1 0,-1 -1,-2 0,-8 -1,-4 0,-6 -1,-5 0,-6 -1,-4 0,-6 -1,-2 0,-8 -1,-5 0,-5 -1,-5 0,-9 -1,-5 0,-7 1,-1 1,0 1,-1 6,0 1,-1 9,0 1,-1 10,0 0,-5 -3,0 -1,1 -8,0 -1,1 -10,0 -1,1 -7,0 -1,1 -7,0 -1,1 -10,0 -1,1 -11,0 -1,1 -7,0 -1,1 -7,0 -1,1 -4,0 -1,1 -4,0 -1,1 -4,0 -1,1 -3,0 -1,1 -3,0 -1,1 -2,0 -1,1 -2,0 -1,1 -2,0 -1,1 -3,0 -1,1 -2,0 -1,1 -2,0 -1,1 -3,0 -1,1 -2,0 -1,1 -2,0 -1,1 -2,0 -1,1 -2,0 -1,1 -3,0 -1,1Z"/>
<path onmouseover="hoverPath(evt)" onmouseout="recoverPath(evt)" fill="rgb(252,252,251)" d="M  190,27l -1,0 -1,-1 -1,-1 0,-3 -1,-1 0,-8 1,-1 1,-1 1,-1 1,0 0,-2 1,-1 2,-2 1,0 0,-2 1,-1 1,-1 0,-1 -2,0 0,2 -1,1 -1,1 -1,0 0,2 -1,1 -1,1 -1,1 -1,0 0,2 -1,1 -1,1 -1,0 -1,1 0,1 -1,1 -1,1 0,1 -1,1 -1,1 -1,1 -1,1 -1,0 0,2 -1,1 -3,3 -1,0 0,2 -1,1 -1,1 -2,2 -1,0 0,2 -1,1 -1,1 -2,2 -1,0 0,1 -1,1 0,1 -1,1 -1,1 -1,1 -1,1 -1,0 0,2 -1,1 -1,1 -1,1 -1,1 -1,1 -1,0 0,1 -1,1 -1,1 -1,0 -1,1 -3,0 -1,-1 0,2 -1,1 -3,0 -1,-1 0,2 -1,1 -2,0 -1,1 -2,0 -1,1 -1,0 -1,1 -2,0 -1,1 -1,0 -1,1 -3,0 -1,-1 0,2 -1,1 -2,0 -1,1 -2,0 -1,1 -1,0 -1,1 -1,0 0,1 3,0 1,1 0,-2 1,-1 3,0 1,1 0,-2 1,-1 2,0 1,-1 2,0 1,-1 1,0 1,-1 3,0 1,1 0,-2 1,-1 3,0 1,1 0,-2 1,-1 3,0 1,1 0,-2 1,-1 3,0 1,1 0,-2 1,-1 1,0 1,-1 1,0 1,-1 1,-1 1,0 0,-1 1,-1 0,-1 1,-1 2,-2 1,-1 1,-1 1,0 0,-2 1,-1 1,-1 1,-1 1,-1 1,0 0,-1 1,-1 0,-1 1,-1 2,-2 1,-1 1,0 0,-2 1,-1 1,-1 1,-1 1,0 0,-1 1,-1 0,-1 1,-1 2,-2 1,-1 1,0 0,-1 1,-1 1,-1 2,0 1,1 0,3 1,1 0,3 1,1 0,3 1,1 0,-3 1,-1 1,-1Z"/>
<path onmouseover="hoverPath(evt)" onmouseout="recoverPath(evt)" fill="rgb(244,243,236)" d="M  228,75l -1,0 0,9 1,1 0,13 1,1 0,9 1,1 0,9 1,1 0,9 1,1 0,10 1,1 0,9 1,1 0,6 2,0 1,1 0,3 6,0 1,-1 5,0 1,-1 5,0 0,-86 -9,0 -1,1 -9,0 -1,1 -6,0 -1,1Z"/>
<path onmouseover="hoverPath(evt)" onmouseout="recoverPath(evt)" fill="rgb(244,243,236)" d="M  0,132l 0,87 3,0 1,-1 2,0 1,-1 2,0 1,-1 3,0 1,-1 2,0 1,-1 2,0 1,-1 2,0 1,-1 2,0 1,-1 3,0 1,-1 2,0 1,-1 2,0 1,-1 1,0 1,-1 1,0 0,-6 1,-1 2,0 1,1 0,3 1,1 0,1 1,-1 3,0 1,-1 2,0 1,-1 3,0 1,-1 2,0 1,-1 2,0 1,-1 3,0 1,-1 2,0 1,-1 2,0 1,-1 2,0 -1,-1 0,-3 -1,-1 0,-3 -1,-1 0,-2 -1,-1 0,-3 -1,-1 0,-3 -1,-1 0,-2 -1,-1 0,-4 -1,-1 0,-1 -1,-1 0,-5 1,-1 0,-3 -1,-1 0,-2 -1,-1 0,-1 -1,-1 0,-4 -1,-1 0,-1 -2,0 -1,-1 0,-2 -1,-1 0,-1 -1,-1 0,-3 -1,-1 0,-2 -1,-1 0,-3 -1,-1 0,-2 -1,-1 0,-3 -1,-1 0,-2 -1,-1 0,-1 -1,-1 -2,0 -1,1 -2,0 -1,1 -3,0 -1,1 -2,0 -1,1 -3,0 -1,1 -2,0 -1,1 -2,0 -1,1 -2,0 -1,1 -1,0 -1,1 -4,0 -1,1 -3,0 -1,1 -2,0 -1,1 -3,0 -1,1 -2,0 -1,1 -2,0 -1,1Z"/>
<path onmouseover="hoverPath(evt)" onmouseout="recoverPath(evt)" fill="rgb(243,241,233)" d="M  42,220l 0,-1 -1,1 -3,0 -1,1 -3,0 -1,1 -2,0 -1,1 -2,0 -1,1 -2,0 -1,1 -3,0 -1,1 -2,0 -1,1 -2,0 -1,1 -1,0 0,2 -1,1 -1,1 -3,0 -1,-1 0,-1 -2,0 -1,1 -4,0 0,24 36,0 0,-2 -2,0 -1,-1 0,-1 -1,-1 0,-3 1,-1 0,-2 -1,-1 0,-1 -1,-1 0,-3 -1,-1 0,-4 1,-1 0,-1 1,-1 0,-2 1,-1 2,0 1,-1 4,0 1,1 1,0 1,-1 4,0 1,-1 -2,0 -1,-1 0,-3 -2,0 -1,-1Z"/>
<path onmouseover="hoverPath(evt)" onmouseout="recoverPath(evt)" fill="rgb(243,242,234)" d="M  112,76l -1,0 -1,-1 -1,0 0,3 2,0 1,1 0,2 1,1 0,2 1,1 0,2 -1,1 0,1 1,-1 3,0 1,-1 2,0 1,-1 2,0 1,-1 2,0 1,-1 2,0 1,-1 3,0 1,-1 2,0 1,-1 2,0 1,-1 3,0 1,-1 2,0 1,-1 2,0 1,-1 2,0 1,-1 3,0 1,-1 3,0 1,-1 4,0 1,-1 4,0 1,-1 4,0 1,-1 7,0 1,-1 7,0 1,-1 11,0 1,-1 10,0 1,-1 7,0 1,-1 7,0 1,-1 6,0 0,-2 1,-1 0,-2 -1,0 -1,1 -4,0 -1,1 -6,0 -1,1 -6,0 -1,1 -7,0 -1,1 -6,0 -1,1 -7,0 -1,-1 -1,-1 0,-2 -1,-1 0,-5 -1,-1 0,-5 -1,-1 0,-5 -2,0 -1,-1 0,-5 -1,-1 0,-4 -1,-1 0,-3 -1,-1 0,-3 -1,-1 0,-3 -1,1 0,1 -1,1 -1,0 -1,1 -1,1 -1,1 0,1 -1,1 0,1 -1,1 -1,0 -1,1 -1,1 0,2 -1,1 -1,0 -1,1 -2,2 0,1 -1,1 0,1 -1,1 -1,0 -1,1 -2,2 0,2 -1,1 -1,0 -1,1 -2,2 -1,1 0,1 -1,1 0,1 -1,1 -1,0 -2,2 -1,0 -1,1 -1,0 0,2 -1,1 -2,0 -1,-1 -1,0 0,2 -1,1 -2,0 -1,-1 -1,0 0,2 -1,1 -2,0 -1,-1 -1,0 0,2 -1,1 -2,0 -1,-1 -1,0 -1,1 -1,0 -1,1 -2,0 -1,1 -2,0 0,2 -1,1 -2,0 -1,-1 -1,0 0,2 -1,1Z"/>
<path onmouseover="hoverPath(evt)" onmouseout="recoverPath(evt)" fill="rgb(243,241,232)" d="M  124,94l -2,0 -1,1 -2,0 -1,1 0,2 1,1 0,2 1,1 0,1 2,0 1,1 0,2 -1,1 0,3 1,1 0,2 1,1 0,2 1,1 0,2 3,0 0,-5 1,-1 2,0 1,1 0,2 1,1 0,1 1,1 1,1 17,0 1,1 25,0 1,-1 0,-4 -1,-1 0,-4 -1,-1 0,-4 -1,-1 0,-5 -1,-1 0,-7 1,-1 0,-2 -1,-1 0,-1 -1,-1 -1,0 -1,1 -3,0 -1,1 -4,0 -1,1 -3,0 -1,1 -4,0 -1,1 -3,0 -1,1 -5,0 -1,-1 -1,-1 0,-2 -1,0 -1,1 -2,0 -1,1 -3,0 -1,1 -2,0 -1,1 -1,0 -1,1 -3,0 -1,1Z"/>
<path onmouseover="hoverPath(evt)" onmouseout="recoverPath(evt)" fill="rgb(244,243,235)" d="M  195,180l -3,0 0,1 1,1 0,7 1,1 1,1 4,0 1,-1 8,0 1,1 0,1 1,1 0,5 1,1 0,8 1,1 0,7 1,1 0,6 1,1 0,7 1,1 0,3 1,1 0,3 -1,1 0,5 1,1 0,5 1,1 0,4 21,0 0,-2 -1,-1 0,-9 -1,-1 0,-10 -1,-1 0,-12 -1,-1 0,-13 -1,-1 0,-10 -1,-1 0,-9 -1,-1 0,-9 -3,0 -1,1 -4,0 -1,1 -5,0 -1,1 -5,0 -1,1 -5,0 -1,1 -5,0 -1,1Z"/>
<path onmouseover="hoverPath(evt)" onmouseout="recoverPath(evt)" fill="rgb(243,242,234)" d="M  150,189l 0,2 1,1 0,2 1,1 0,2 1,1 0,2 1,1 0,2 1,1 0,2 1,1 0,3 4,0 1,-1 9,0 1,-1 6,0 1,-1 6,0 1,-1 6,0 0,-7 -1,-1 0,-7 -1,-1 0,-4 -1,-1 0,-5 -1,2 -4,0 -1,1 -6,0 -1,1 -4,0 -1,1 -5,0 -1,1 -4,0 -1,1 -4,0 -1,1 -3,0 -1,1Z"/>
<path onmouseover="hoverPath(evt)" onmouseout="recoverPath(evt)" fill="rgb(244,243,235)" d="M  219,162l 3,0 1,1 3,0 1,1 3,0 0,-3 -1,-1 0,-11 -1,-1 0,-10 -1,-1 0,-9 -1,-1 0,-7 -1,-1 0,-12 -1,-1 0,-9 -1,-1 0,-1 -11,0 11,2 0,7 1,3 0,10 -1,1 -2,0 -1,1 -8,0 -1,1 -9,0 -1,-1 -1,-1 0,1 -1,1 0,0 -1,1 2,0 1,1 0,2 1,1 0,6 1,1 0,6 1,1 0,7 1,1 0,5 1,1 0,5 -1,1 -1,1 1,0 1,1 0,0 1,1 0,4 1,1 2,0 1,-1 2,0 0,-1 1,-1 2,0 0,-1 1,-1Z"/>
<path onmouseover="hoverPath(evt)" onmouseout="recoverPath(evt)" fill="rgb(171,198,237)" d="M  238,237l 0,4 1,1 0,9 1,1 0,3 1,0 0,-2 -1,-2 0,-14 -1,-1 -1,1 1,-3 0,-9 -1,-1 0,-12 -1,-1 0,-10 -1,-1 0,-9 -1,-1 0,-9 -1,-1 0,-8 -1,0 0,10 1,1 0,9 1,1 0,10 1,1 0,13 1,1 0,12 1,1 0,2 1,1 -1,3Z"/>
<path onmouseover="hoverPath(evt)" onmouseout="recoverPath(evt)" fill="rgb(244,243,236)" d="M  62,134l -1,0 0,1 1,1 0,3 1,1 0,4 1,1 0,1 1,1 0,4 1,1 0,1 1,1 0,2 1,1 0,4 1,1 0,2 1,1 0,1 1,1 0,2 1,1 0,4 1,1 0,1 1,1 0,2 1,1 0,3 1,1 0,3 1,1 0,2 1,1 0,3 1,1 2,0 1,-1 2,0 1,-1 3,0 1,-1 2,0 1,-1 2,0 1,-1 3,0 1,-1 2,0 1,-1 2,0 1,-1 2,0 1,-1 3,0 1,-1 2,0 1,-1 3,0 1,-1 3,0 1,-1 2,0 1,-1 3,0 1,-1 3,0 0,-1 -1,-1 0,-2 -1,-1 0,-2 -1,-1 0,-2 -1,-1 0,-2 -1,-1 0,-2 -1,-1 0,-2 -1,-1 0,-1 -1,-1 0,-2 -1,-1 0,-2 -1,-1 0,-2 -1,-1 0,-2 -1,-1 0,-2 -1,-1 0,-2 -1,-1 0,-2 -1,-1 0,-2 -1,-1 0,-1 -1,-1 0,-2 -1,-1 0,-2 -1,-1 0,-2 -1,-1 0,-2 -1,-1 0,-2 -4,0 -1,-1 -1,0 -1,1 -3,0 -1,1 -1,0 -1,1 -3,0 -1,1 -2,0 -1,1 -3,0 -1,1 -1,0 -1,1 -3,0 -1,1 -2,0 -1,1 -3,0 -1,1 -1,0 -1,1 -3,0 -1,1 -3,0 -1,1 -1,1 -1,0 0,2 -1,1Z"/>
<path onmouseover="hoverPath(evt)" onmouseout="recoverPath(evt)" fill="rgb(244,243,235)" d="M  128,126l 0,1 1,1 0,2 1,1 0,2 1,1 0,2 1,1 0,2 1,1 0,2 1,1 0,1 1,1 0,2 1,1 0,2 1,1 0,2 1,1 0,2 1,1 0,2 1,1 0,2 1,1 0,2 1,1 0,2 1,1 0,1 1,1 0,2 1,1 0,2 1,1 1,0 1,-1 3,0 1,-1 4,0 1,-1 5,0 1,-1 5,0 1,-1 5,0 1,-1 5,0 0,-2 -1,-1 0,-7 -1,-1 0,-5 -1,-1 0,-5 -1,-1 0,-7 1,-1 0,-4 -1,-1 0,-5 -2,0 -1,-1 0,-3 -7,0 -1,-1 -17,0 -1,-1 -17,0 -1,-1 -2,0 0,2 1,1Z"/>
<path onmouseover="hoverPath(evt)" onmouseout="recoverPath(evt)" fill="rgb(243,242,234)" d="M  189,240l 0,0 1,1 0,2 -1,1 -1,0 -1,1 -2,0 -1,1 -3,0 -1,1 -3,0 -1,1 -3,0 -1,1 -3,0 0,1 1,1 0,4 45,0 0,-3 -1,-1 0,-5 -1,-1 0,-7 1,-1 0,-1 -1,-1 0,-3 -2,0 -1,-1 0,-3 -1,-1 0,-1 -6,0 -1,1 -1,0 -1,1 -1,1 -3,0 -1,1 -7,0 -1,-1 -2,0 -1,1 0,8 1,0 1,1 1,0 1,1Z"/>
<path onmouseover="hoverPath(evt)" onmouseout="recoverPath(evt)" fill="rgb(240,239,227)" d="M  1,7l 0,-1 -1,0 0,35 2,0 1,1 1,0 1,-1 2,0 1,-1 2,0 1,-1 -1,-1 0,-3 -1,-1 0,-2 -1,-1 0,-2 -1,-1 0,-2 -1,-1 0,-3 -1,-1 0,-2 -1,-1 0,-2 -1,-1 0,-2 -1,-1 0,-2 -1,-1Z"/>
<path onmouseover="hoverPath(evt)" onmouseout="recoverPath(evt)" fill="rgb(240,239,231)" d="M  35,111l -1,0 0,3 1,-1 1,0 1,-1 2,0 1,-1 2,0 1,-1 3,0 1,-1 2,0 1,-1 2,0 1,-1 3,0 1,-1 3,0 1,-1 2,0 1,-1 3,0 1,-1 2,0 1,-1 3,0 1,-1 2,0 1,-1 2,0 1,-1 2,0 1,-1 2,0 1,-1 2,0 1,-1 3,0 1,-1 2,0 1,-1 2,0 1,-1 2,0 1,-1 0,-1 -1,-1 0,-1 -1,-1 0,-2 -1,-1 0,-2 -1,-1 0,-2 -1,-1 0,-1 -1,-1 0,-3 -1,-1 0,-2 -1,-1 0,-2 -1,-1 0,-2 -1,-1 0,-2 -1,-1 0,-2 -1,-1 0,-1 -1,-1 0,-1 -1,-1 0,-2 -1,-1 0,-2 -1,-1 0,-1 -1,-1 0,-3 -1,-1 0,-6 -1,-1 0,-1 -6,0 -1,-1 0,-1 -1,-1 0,-1 -2,0 -1,-1 0,-1 -1,-1 -1,-1 -2,0 -1,1 -2,0 -1,1 -2,0 -1,1 -2,0 -1,1 -3,0 4,1 1,1 0,3 -1,1 -2,0 -1,-1 -5,0 -1,-1 -1,0 0,2 -1,1 -4,0 -1,-1 -2,0 -1,-1 -1,1 -2,0 -1,1 -2,0 -1,1 0,2 6,0 1,1 0,2 -1,1 -3,0 -1,1 -2,0 -1,1 -3,0 -1,-1 0,-5 -3,0 -1,1 -2,0 -1,1 -2,0 -1,1 -1,0 0,2 1,1 0,2 1,1 0,6 -1,1 0,2 1,1 0,2 1,1 0,2 2,0 1,1 0,3 -1,1 0,2 1,1 0,2 1,1 0,3 1,1 0,2 1,1 0,3 1,1 0,2 2,0 1,1 1,-1 5,0 1,1 1,1 0,5 1,1 2,0 1,1 0,3 -1,1 -2,0 0,2 -1,1 -2,0 0,4 -1,1 0,1 -1,1Z"/>
<path onmouseover="hoverPath(evt)" onmouseout="recoverPath(evt)" fill="rgb(174,199,235)" d="M  61,142l 0,-1 -1,-1 0,-3 -1,-1 0,-3 -1,-1 0,-2 -1,-1 0,-3 -1,-1 0,-3 -1,-1 0,-2 -1,-1 0,-4 1,-1 1,0 1,-1 3,0 1,-1 2,0 1,-1 2,0 1,-1 3,0 1,-1 2,0 1,-1 2,0 1,-1 2,0 1,-1 2,0 1,-1 2,0 1,-1 2,0 1,-1 2,0 1,-1 3,0 1,-1 2,0 1,-1 2,0 1,-1 5,0 -1,-1 0,-1 -1,-1 0,-1 -1,0 -1,1 -2,0 -1,1 -2,0 -1,1 -2,0 -1,1 -3,0 -1,1 -2,0 -1,1 -2,0 -1,1 -2,0 -1,1 -2,0 -1,1 -2,0 -1,1 -3,0 -1,1 -2,0 -1,1 -3,0 -1,1 -2,0 -1,1 -3,0 -1,1 -3,0 -1,1 -2,0 -1,1 -2,0 -1,1 -3,0 -1,1 -2,0 -1,1 -2,0 -1,1 -1,0 -1,1 -2,0 -1,-1 0,-2 -3,0 0,3 -1,1 -6,0 0,1 -1,1 -1,0 -1,1 -1,0 -1,1 -2,0 -1,1 -6,0 0,1 -1,1 -3,0 -1,1 -3,0 0,4 2,0 1,-1 2,0 1,-1 3,0 1,-1 2,0 1,-1 3,0 1,-1 4,0 1,-1 1,0 1,-1 2,0 1,-1 2,0 1,-1 2,0 1,-1 3,0 1,-1 2,0 1,-1 3,0 1,-1 2,0 1,-1 4,0 1,1 1,1 0,1 1,1 0,2 1,1 0,3 1,1 0,2 5,14 -4,-12 0,2 1,1 0,2 1,2 0,2 2,5 -4,-14 4,12Z"/>
<path onmouseover="hoverPath(evt)" onmouseout="recoverPath(evt)" fill="rgb(244,243,235)" d="M  83,207l -1,0 1,1 0,2 1,1 0,2 1,1 0,4 4,0 1,-1 4,0 1,1 2,0 0,-2 1,-1 3,0 1,-1 3,0 1,1 5,0 1,-1 2,0 1,1 1,0 1,1 1,1 0,2 1,1 1,1 0,3 1,1 0,3 -1,1 0,1 1,1 0,2 1,1 0,1 1,1 0,1 1,1 0,1 1,1 1,1 1,1 2,0 1,1 1,1 0,2 -1,1 0,8 24,0 0,-4 1,-1 1,0 0,-4 -1,-1 0,-2 -1,-1 0,-2 -1,-1 0,-2 -1,-1 0,-2 -1,-1 0,-2 -1,-1 0,-1 -1,-1 0,-2 -1,-1 0,-2 -1,-1 0,-2 -1,-1 0,-1 -1,-1 0,-3 -1,-1 0,-2 -1,-1 0,-2 -1,-1 0,-2 -1,-1 0,-2 -1,-1 0,-2 -1,-1 0,-2 -1,-1 0,-2 -1,-1 0,-1 -1,1 -3,0 -1,1 -2,0 -1,1 -3,0 -1,1 -3,0 -1,1 -4,0 -1,1 -2,0 -1,1 -2,0 -1,1 -2,0 -1,1 -3,0 -1,1 -2,0 -1,1 -2,0 -1,1 -3,0 -1,1 -2,0 -1,1 -2,0 -1,1 -3,0 -1,1Z"/>
<path onmouseover="hoverPath(evt)" onmouseout="recoverPath(evt)" fill="rgb(243,242,233)" d="M  178,129l 0,5 1,1 0,6 -1,1 0,5 1,1 0,5 1,1 0,5 1,1 0,7 1,1 0,3 1,0 0,-1 1,-1 2,0 1,1 1,-1 4,0 1,-1 5,0 1,-1 4,0 1,-1 1,0 0,-3 -1,-1 -7,0 -1,-1 0,-2 1,-1 6,0 1,-1 0,-3 -1,-1 0,-5 -1,-1 0,-7 -1,-1 0,-6 -1,-1 0,-6 -1,-1 0,-2 -10,0 -1,-1 -5,0 -1,-1 -1,-1 0,1 -1,1 0,0 -1,1 -27,0 -1,-1 -17,0 -1,-1 -1,-1 -1,-1 0,-1 -1,-1 0,3 -1,1 1,0 1,1 2,0 16,1 2,0 16,1 7,0 1,1 0,3 2,0 1,1Z"/>
<path onmouseover="hoverPath(evt)" onmouseout="recoverPath(evt)" fill="rgb(244,242,235)" d="M  191,30l -1,0 0,7 -1,1 0,4 2,0 1,1 0,5 1,1 0,5 1,1 0,5 1,1 0,2 1,1 5,0 1,-1 6,0 1,-1 7,0 1,-1 6,0 1,-1 6,0 1,-1 4,0 1,-1 3,0 1,1 0,4 -1,1 0,1 2,0 1,-1 8,0 1,-1 4,0 0,-53 -6,0 0,2 -1,1 -2,0 0,2 -1,1 -3,0 -1,1 -4,0 -1,1 -4,0 -1,-1 -2,0 -1,1 -3,0 -1,1 -3,0 -1,1 -4,0 -1,1 -3,0 -1,1 -3,0 0,2 -1,1 -3,0 -1,-1 -2,0 -1,1 -3,0 -1,1 -3,0 0,2 -2,2Z"/>
<path onmouseover="hoverPath(evt)" onmouseout="recoverPath(evt)" fill="rgb(242,240,231)" d="M  237,183l 0,6 1,1 0,9 1,1 0,10 1,1 0,12 1,1 0,11 1,1 0,15 1,1 0,3 12,0 0,-85 -4,0 -1,1 -4,0 -1,1 -5,0 -1,1 -3,0 0,6 1,1Z"/>
</svg>