<svg width="256" height="256" xmlns="http://www.w3.org/2000/svg"><script> 
var tempColor;
function hoverPath(evt){
obj = evt.target;
tempColor = obj.getAttribute("fill");
obj.setAttribute("fill","red");
//alert(tempColor);
//obj.setAttribute("stroke","red");}
function recoverPath(evt){
obj = evt.target;
obj.setAttribute("fill", tempColor);
//obj.setAttribute("stroke", tempColor);
}</script><path onmouseover="hoverPath(evt)" onmouseout="recoverPath(evt)" fill="rgb(243,242,233)" d="M  9,135l -3,0 -1,-1 0,-2 -1,-1 -1,0 -1,1 -2,0 0,35 3,0 1,1 1,0 1,1 3,0 1,1 3,0 1,1 4,0 1,1 8,0 1,1 3,0 1,1 1,0 1,1 2,0 1,1 3,0 1,1 4,0 1,1 6,0 1,1 8,0 1,1 0,2 -1,1 -2,0 1,1 4,0 1,1 1,0 0,-3 1,-1 2,0 0,-6 1,-1 0,-6 1,-1 0,-3 1,-1 0,-6 1,-1 0,-4 -2,0 -1,1 0,10 -1,1 -2,0 -1,-1 0,-16 1,-1 0,-34 1,-1 1,-1 2,0 1,1 0,3 -1,1 0,22 1,1 0,2 1,0 1,-1 1,0 0,-7 1,-1 0,-21 -1,-1 0,-3 -1,0 -1,-1 -1,-1 0,-6 -1,-1 0,-2 -1,-1 0,-1 -2,0 -1,-1 -1,-1 -1,-1 0,-2 -2,0 -1,-1 -28,0 -1,1 -1,0 -1,1 -3,0 -1,-1 0,-3 -6,0 -1,1 -5,0 -1,-1 0,16 -1,1 0,3 1,1 1,0 1,1 0,5 -1,1 0,3 -1,1 0,3 -1,1 0,3 -1,1 0,3 -1,1 0,4 -1,1 -1,1Z"/>
<path onmouseover="hoverPath(evt)" onmouseout="recoverPath(evt)" fill="rgb(238,237,223)" d="M  26,200l 0,20 1,1 1,0 1,1 19,0 1,1 13,0 1,-1 0,-2 -1,0 -1,-1 -14,0 -1,-1 -1,-1 0,-2 1,-1 5,0 1,1 11,0 0,-2 1,-1 0,-7 1,-1 0,-4 1,-1 0,-7 1,-1 -2,0 -1,-1 -3,0 -1,-1 0,1 -1,1 -3,0 -1,-1 0,1 -1,1 -3,0 0,1 -1,1 0,1 -1,1 -9,0 0,10 -1,1 -2,0 -1,-1 0,-7 -1,0 -1,-1 -6,0 -1,-1 0,-2 1,-1 5,0 0,-2 -3,0 -1,-1 -1,-1 0,-2 -1,-1 0,-1 -1,0Z"/>
<path onmouseover="hoverPath(evt)" onmouseout="recoverPath(evt)" fill="rgb(242,241,230)" d="M  74,200l 0,0 -1,1 0,1 -1,1 0,1 -1,1 0,1 -1,1 0,2 -1,1 0,8 -1,1 0,27 -1,1 0,8 38,0 0,-2 1,-1 0,-10 -1,-1 0,-1 -16,0 -1,-1 -1,-1 0,-13 1,-1 0,-8 1,-1 0,-3 1,-1 2,0 1,1 0,4 1,1 16,0 0,-1 1,-1 1,-1 1,-1 1,-1 1,0 -1,-1 0,-2 -1,0 -1,-1 -3,0 -1,-1 -3,0 -1,-1 -3,0 -1,-1 -2,0 -1,-1 0,-1 -1,0 0,2 -1,1 0,1 -1,1 -2,0 -1,-1 0,-4 1,-1 -1,-1 0,0 -1,-1 0,-1 -1,0 -1,-1 -3,0 -1,-1 -3,0 -1,-1 0,1 -1,1 -5,0Z"/>
<path onmouseover="hoverPath(evt)" onmouseout="recoverPath(evt)" fill="rgb(242,240,230)" d="M  92,85l 0,0 -1,-1 0,-2 1,-1 31,0 0,-1 -10,0 -1,-1 -1,0 -1,-1 -3,0 -1,-1 -2,0 -1,-1 -4,0 -1,-1 -5,0 -1,-1 -10,0 -1,1 -1,0 0,16 1,1 0,12 1,-10 2,0 1,1 0,5 1,1 0,1 1,0 1,1 1,1 1,1 0,3 -1,1 0,1 -1,1 -1,1 0,2 10,0 1,-1 4,0 1,-1 2,0 1,-1 2,0 1,-1 3,0 1,-1 1,-1 3,0 1,-1 3,0 1,1 0,2 -1,1 -1,0 -1,1 0,2 1,1 0,1 1,1 0,2 1,-3 2,0 1,1 0,-2 1,-1 1,0 1,-1 1,0 1,-1 1,-1 1,-1 4,0 1,-1 2,0 0,-2 1,-1 -1,-1 0,-1 -2,0 -1,-1 0,-2 1,-1 -1,-1 0,-2 -1,-1 0,-1 -1,-1 0,-1 -1,-1 0,-1 -1,-1 0,-1 -2,0 -1,-1 0,-1 -1,0 -1,-1 -18,0 -1,-1 -16,0 38,22 -2,0 -1,-1 0,-2 1,-1 2,0 1,1 0,2 -1,1 -38,-22Z"/>
<path onmouseover="hoverPath(evt)" onmouseout="recoverPath(evt)" fill="rgb(242,241,232)" d="M  47,1l 0,2 -1,1 -1,0 0,1 1,1 0,8 1,1 0,2 1,1 0,1 1,0 1,1 0,2 -1,1 0,1 -1,1 -1,1 -1,0 3,-1 1,0 1,-1 1,0 1,-1 1,0 1,-1 2,0 0,-2 1,-1 2,0 1,1 1,0 1,-1 1,0 0,-2 1,-1 2,0 1,1 1,-1 2,0 1,-1 1,0 1,-1 1,0 1,-1 2,0 1,-1 1,0 1,-1 2,0 1,-1 1,0 1,-1 1,-1 1,0 2,-2 0,-1 -1,-1 -1,0 -1,-1 -1,1 -2,0 -1,1 -2,0 -1,1 -2,0 -1,1 -4,0 -1,-1 -1,-1 -1,-1 -1,-1 0,-3 -21,0 -1,1Z"/>
<path onmouseover="hoverPath(evt)" onmouseout="recoverPath(evt)" fill="rgb(250,249,246)" d="M  88,1l 0,0 1,1 1,0 1,1 1,1 0,-2 1,-1 0,-1 -4,0 -1,1 -1,0 -1,-1 -15,0 0,2 1,1 1,1 1,1 2,0 1,-1 2,0 1,-1 2,0 1,-1 2,0 1,-1 2,0 5,5 -1,0 0,1 -1,1 -1,1 -1,1 -1,0 -1,1 -1,1 -1,0 -1,1 -2,0 -1,1 -1,0 -1,1 -2,0 -1,1 -1,0 -1,1 -1,0 -1,1 -2,0 -1,1 -2,0 -1,-1 0,2 -1,1 -1,0 -1,1 -3,0 -1,-1 0,2 -1,1 -2,0 -1,1 -1,0 -1,1 -1,0 -1,1 -2,0 -1,1 -2,0 -1,1 -2,0 -1,1 -3,0 -1,1 -4,0 -1,1 -17,0 -1,1 -4,0 -1,-1 -1,0 -1,-1 0,-9 1,-1 2,0 -1,-1 0,-9 -1,-1 0,-10 -9,0 0,34 6,0 1,1 1,1 0,8 1,1 0,-10 1,-1 8,0 1,-1 14,0 1,-1 5,0 1,-1 3,0 1,-1 3,0 1,1 0,-2 1,-1 2,0 1,-1 2,0 1,-1 1,0 1,-1 1,0 1,-1 3,0 1,1 0,-2 1,-1 1,0 1,-1 3,0 1,1 0,-2 1,-1 1,0 1,-1 3,0 1,1 0,-2 1,-1 2,0 1,-1 1,0 1,-1 2,0 1,-1 2,0 1,1 0,-2 1,-1 1,0 1,-1 1,0 1,-1 4,0 -1,-1 0,-1 -3,0 -1,-1 -5,-5 -75,21 0,0 1,1 1,0 1,-1 1,0 1,-1 0,-1 1,-1 0,-1 -4,4 -2,0 75,-21Z"/>
<path onmouseover="hoverPath(evt)" onmouseout="recoverPath(evt)" fill="rgb(253,244,159)" d="M  97,0l -2,0 0,2 -1,1 0,1 1,1 3,0 1,1 0,1 1,1 0,2 -1,1 0,2 1,1 0,1 1,1 0,2 1,1 0,1 1,1 0,2 -1,1 2,0 1,1 0,1 1,1 0,2 1,1 0,1 1,1 0,1 1,1 0,2 1,1 0,1 1,1 0,1 1,1 0,2 1,1 0,1 1,1 0,1 1,1 0,1 1,1 0,2 1,1 0,3 -1,1 -5,0 -1,-1 -6,0 -1,-1 -2,0 0,1 2,0 3,1 4,0 4,1 5,0 1,1 1,0 1,1 0,1 1,1 0,1 1,1 0,1 1,1 0,2 -1,1 -1,0 1,1 6,0 1,1 1,0 1,1 0,-1 -1,-1 0,-1 -1,-1 0,-1 -1,-1 0,-1 -1,-1 0,-1 -1,-1 0,-4 1,-1 -1,-1 0,-3 -1,-1 -1,-1 0,-2 -1,-1 0,-1 -1,-1 0,-1 -1,-1 0,-2 -1,-1 0,-1 -1,-1 0,-3 -1,-1 -1,-1 0,-3 -1,-1 0,-1 -1,-1 -1,-1 0,-3 -1,-1 -1,-1 0,-1 -2,0 -1,-1 0,-1 -1,-1 -1,-1 0,-3 -1,-1 -1,-1 0,-2 -1,-1 0,-1 -1,-1 0,-4 -1,-1 0,-2Z"/>
<path onmouseover="hoverPath(evt)" onmouseout="recoverPath(evt)" fill="rgb(176,200,234)" d="M  132,65l 0,0 1,1 0,1 1,1 0,1 1,1 0,2 1,0 1,1 6,0 1,1 1,-1 4,0 1,-1 2,0 1,-1 2,0 1,-1 3,0 1,-1 6,0 0,-1 1,-1 4,0 0,-4 1,-1 0,-1 1,-1 0,-1 1,-1 0,-2 1,-1 0,-4 1,-1 0,-7 -1,-1 0,-8 -1,-1 0,-5 1,-1 0,-1 1,-1 0,-1 1,-1 0,-1 1,-1 1,-1 1,-1 1,0 1,-1 1,0 1,-1 1,-1 1,0 1,-1 6,0 1,1 6,0 1,1 4,0 1,1 4,0 1,1 4,0 1,1 4,0 1,-1 5,0 1,1 24,0 1,1 3,0 0,-8 -15,0 -1,1 -8,0 -1,-1 -4,0 -1,-1 -5,0 -1,-1 -3,0 -1,-1 -3,0 -1,-1 -3,0 -1,-1 -1,-1 -1,0 -1,-1 -2,0 -1,-1 -1,0 -1,-1 -1,0 0,2 -1,1 -16,0 -1,1 -2,0 -1,1 -1,0 -1,1 -1,0 -1,1 -1,0 -1,1 -1,1 -1,1 -1,1 -1,1 -1,1 0,1 -1,1 0,3 -1,1 0,27 -1,1 0,3 -1,1 0,1 -1,1 -1,1 0,1 -1,1 -1,1 -1,1 -1,1 -1,0 -1,1 -1,1 -3,0 -1,1 -10,0 -1,-1 -3,0 -1,-1 -1,0 -1,1Z"/>
<path onmouseover="hoverPath(evt)" onmouseout="recoverPath(evt)" fill="rgb(247,246,240)" d="M  253,0l -21,0 0,7 -1,1 -1,1 -5,0 -1,-1 -4,0 -1,-1 -3,0 -1,-1 -4,0 -1,-1 -1,0 -1,-1 -2,0 -1,-1 -1,0 -1,-1 0,-2 -20,0 0,1 13,0 1,1 3,0 1,1 1,0 1,1 2,0 1,1 1,0 1,1 1,1 3,0 1,1 3,0 1,1 3,0 1,1 5,0 1,1 4,0 1,1 6,0 1,-1 16,0 0,-11Z"/>
<path onmouseover="hoverPath(evt)" onmouseout="recoverPath(evt)" fill="rgb(175,197,224)" d="M  0,58l 0,8 4,0 1,-1 35,0 1,-1 21,0 1,-1 10,0 1,-1 21,0 1,1 5,0 1,1 4,0 1,1 2,0 1,1 3,0 1,1 2,0 1,1 3,0 1,1 0,-1 1,-1 1,0 -1,-1 0,-1 -1,-1 0,-1 -1,-1 0,-1 -1,0 -1,-1 -5,0 -1,-1 -7,0 -1,-1 -4,0 -1,-1 -13,0 -1,-1 -35,0 -1,1 -48,0 -1,1Z"/>
<path onmouseover="hoverPath(evt)" onmouseout="recoverPath(evt)" fill="rgb(242,240,230)" d="M  111,241l -1,0 0,14 71,0 0,-6 -1,-1 0,-4 -1,-1 0,-3 -1,-1 0,-4 -1,-1 0,-3 -1,-1 0,-3 1,-1 0,-1 -1,0 -1,-1 -1,-1 0,-1 -1,0 -1,1 -1,0 -1,1 -4,0 -1,-1 -2,0 -1,-1 -3,0 -1,-1 0,-2 1,-1 -1,0 -1,-1 -1,-1 -2,0 -1,-1 0,-1 -1,0 -1,-1 -1,-1 -2,0 0,1 -1,1 -1,1 -2,0 -1,1 -4,0 -1,-1 0,-2 -1,0 -1,1 -4,0 -1,-1 -2,0 -1,-1 0,-2 1,-1 0,0 -1,-1 -3,0 -1,-1 0,1 -1,1 -1,0 -1,1 0,1 -1,1 0,1 -1,1 -1,1 -1,0 0,1 -1,1 2,0 1,1 10,0 1,-1 5,0 1,1 1,0 1,1 0,2 -1,1 -23,0 0,13 1,1 13,0 1,1 0,2 -1,1 -16,0 -1,1Z"/>
<path onmouseover="hoverPath(evt)" onmouseout="recoverPath(evt)" fill="rgb(239,238,222)" d="M  150,2l 26,0 0,-2 -36,0 0,2Z"/>
<path onmouseover="hoverPath(evt)" onmouseout="recoverPath(evt)" fill="rgb(242,240,231)" d="M  0,251l 0,4 32,0 0,-3 2,-2 1,-1 0,-1 1,-1 1,-1 0,-1 1,-1 1,-1 0,-1 1,-1 0,-2 1,-1 0,-10 -1,0 -1,-1 -14,0 -1,-1 -19,0 -1,-1 -4,0Z"/>
<path onmouseover="hoverPath(evt)" onmouseout="recoverPath(evt)" fill="rgb(242,241,231)" d="M  10,27l 0,3 1,0 1,1 2,0 1,-1 17,0 1,-1 4,0 1,-1 3,0 1,-1 2,0 0,-2 1,-1 1,0 1,-1 0,-1 1,-1 -1,0 -1,-1 0,-1 -1,-1 0,-2 -1,-1 0,-8 -1,-1 0,-3 1,-1 1,0 0,-2 -34,0 0,9 1,1 0,9 1,1 3,0 0,-1 1,-1 0,-1 1,-1 2,0 1,1 0,3 -1,1 0,1 -1,1 -1,1 -1,0 -1,1 -3,0 -1,-1 -1,0 -1,-1Z"/>
<path onmouseover="hoverPath(evt)" onmouseout="recoverPath(evt)" fill="rgb(238,243,226)" d="M  197,18l -4,0 -1,-1 -4,0 -1,1 -1,0 -1,1 -1,1 -1,0 -1,1 -1,0 -1,1 -1,1 0,1 -1,1 0,1 -1,1 0,1 -1,1 0,3 1,1 0,8 1,-1 0,-10 1,-1 2,0 1,1 4,0 1,1 1,0 1,1 0,-1 1,-1 2,-2 1,-1 0,-1 1,-1 0,-4 1,-1 7,0 1,1 4,0 1,1 4,0 1,1 4,0 1,1 4,0 1,1 1,0 0,-1 -1,0 -3,-1 0,-1 -5,0 -1,-1 -4,0 -1,-1 -4,0 -1,-1 -4,0 -1,-1Z"/>
<path onmouseover="hoverPath(evt)" onmouseout="recoverPath(evt)" fill="rgb(237,237,221)" d="M  210,3l 1,0 1,1 4,0 1,1 3,0 1,1 4,0 1,1 3,0 1,-1 0,-6 -25,0 0,1 1,0 1,1 2,0 1,1Z"/>
<path onmouseover="hoverPath(evt)" onmouseout="recoverPath(evt)" fill="rgb(249,235,130)" d="M  1,68l -1,0 0,20 5,0 1,1 0,5 1,-1 2,0 0,-8 -1,-1 0,-8 1,-1 3,0 1,-1 14,0 1,-1 21,0 1,-1 16,0 1,-1 8,0 1,1 3,0 1,1 1,-1 12,0 1,1 5,0 1,1 4,0 1,1 2,0 1,1 3,0 1,1 1,0 1,1 5,0 1,1 1,-1 3,0 1,1 0,2 1,1 1,0 1,-1 3,0 1,1 7,0 1,1 5,0 1,1 0,3 1,-4 4,0 1,-1 2,0 1,-1 2,0 1,-1 3,0 1,-1 3,0 1,-1 3,0 1,-1 3,0 1,-1 5,0 1,-1 8,0 1,-1 18,0 1,-1 1,-1 2,0 1,1 0,1 1,0 1,-1 6,0 1,1 2,0 1,-1 0,-1 1,-1 10,0 1,1 2,0 1,-1 16,0 0,-6 -2,0 -1,-1 0,-1 -21,0 -1,1 -2,0 -1,-1 -20,0 -1,1 -9,0 0,1 -1,1 -2,0 -1,-1 0,-2 -1,0 0,2 -1,1 -1,0 -1,1 -7,0 -1,-1 -5,0 -1,1 -2,0 0,1 -1,1 -4,0 0,1 -1,1 -6,0 -1,1 -3,0 -1,1 -2,0 -1,1 -2,0 -1,1 -4,0 -1,1 -2,0 -1,-1 -6,0 -1,-1 -3,0 -1,-1 -1,0 -1,-1 -6,0 -1,-1 -2,0 -1,-1 -3,0 -1,-1 -2,0 -1,-1 -3,0 -1,-1 -2,0 -1,-1 -4,0 -1,-1 -5,0 -1,-1 -19,0 -1,1 -10,0 -1,1 -21,0 -1,1 -35,0 -1,1Z"/>
<path onmouseover="hoverPath(evt)" onmouseout="recoverPath(evt)" fill="rgb(241,240,229)" d="M  0,188l 0,32 8,0 1,1 12,0 1,-1 0,-34 -1,-1 -1,0 -1,-1 -3,0 2,1 0,0 1,1 0,2 -1,1 -5,0 -1,-1 -2,0 -1,-1 -3,0 -1,-1 -2,0 -1,-1 0,-2 -2,0Z"/>
<path onmouseover="hoverPath(evt)" onmouseout="recoverPath(evt)" fill="rgb(236,233,217)" d="M  4,92l 0,-2 -4,0 0,32 1,0 0,-1 1,-1 0,-2 1,-1 0,-1 1,-1 0,-2 1,-1 0,-2 1,-1 0,-2 1,-1 0,-2 1,-1 0,-5 1,-1 0,-2 -1,0 -1,1 -2,0 -1,-1Z"/>
<path onmouseover="hoverPath(evt)" onmouseout="recoverPath(evt)" fill="rgb(242,241,231)" d="M  103,163l -2,0 -1,1 -3,0 -1,1 1,1 6,0 1,1 1,0 1,1 1,1 0,4 1,1 0,4 -1,1 -17,0 -1,-1 -1,0 -1,-1 -1,0 -1,-1 -1,0 -1,-1 0,-1 -1,-1 0,-1 -1,0 0,2 -1,1 -2,0 0,8 -1,1 1,1 0,1 1,1 1,0 1,1 5,0 1,1 0,3 1,1 0,1 1,1 1,0 0,-1 1,-1 1,-1 1,-1 2,0 1,1 0,4 1,-3 4,0 1,1 1,0 1,-1 5,0 1,-1 5,0 1,1 1,0 1,-1 0,-3 -1,-1 0,-4 1,-1 2,0 1,1 0,1 1,1 0,10 1,1 0,3 1,1 1,-1 4,0 1,1 3,0 1,1 2,0 1,1 3,0 1,1 2,0 1,1 2,0 1,1 2,0 1,1 3,0 1,1 2,0 1,1 1,0 1,1 4,0 1,1 0,2 2,0 1,-1 3,0 -1,-1 0,-3 -1,-1 0,-3 -1,-1 0,-3 -1,-1 0,-3 -1,-1 0,-3 -1,-1 0,-4 -1,-1 0,-3 -1,-1 0,-4 -1,-1 0,-4 -1,-1 0,-3 -1,-1 0,-4 -1,-1 0,-3 -2,0 -1,1 -3,0 -1,-1 0,-2 -6,0 0,5 -1,1 -2,0 -1,-1 0,-8 -1,-1 0,-1 -1,-1 0,-1 -2,0 -1,1 -2,0 -1,1 -2,0 -1,1 -2,0 -1,1 -2,0 -1,1 -2,0 -1,1 -2,0 -1,1 -2,0 -1,1 -2,0 -1,1 -2,0 -1,1 -2,0 -1,1 -2,0 -1,1Z"/>
<path onmouseover="hoverPath(evt)" onmouseout="recoverPath(evt)" fill="rgb(171,198,238)" d="M  129,20l 0,2 1,0 1,1 1,1 4,0 1,1 1,1 0,2 2,0 1,1 1,1 0,1 1,1 0,2 1,1 1,0 1,1 1,0 1,1 4,0 1,-1 0,0 1,-1 0,-2 -3,0 -1,-1 -1,0 -1,-1 -1,-1 -1,-1 0,-2 1,-1 1,-1 1,0 1,-1 1,0 1,-1 0,-1 -1,-1 0,0 -1,-1 -1,0 -1,-1 -1,-1 -1,-1 0,-2 -1,-1 0,-1 -1,-1 -1,-1 -5,0 -1,1 0,0 -1,1 0,1 -1,1 -1,1 -1,1 -1,1 -1,1 -1,0 -1,1Z"/>
<path onmouseover="hoverPath(evt)" onmouseout="recoverPath(evt)" fill="rgb(248,239,144)" d="M  133,84l -2,0 -1,-1 -1,0 -1,1 -3,0 -1,-1 -31,0 17,1 14,0 5,1 1,0 1,1 0,1 2,0 1,1 0,1 1,1 0,1 1,1 0,1 1,1 0,1 1,1 0,2 1,1 0,2 -1,1 2,0 1,1 0,1 1,1 0,2 -1,1 0,2 -1,1 2,0 1,1 0,1 1,1 0,2 1,1 0,1 1,1 0,1 2,0 1,1 0,1 1,1 0,1 1,1 0,2 1,1 0,1 1,1 0,1 1,1 0,2 1,1 0,2 -1,1 2,0 1,1 0,1 1,1 0,4 -1,1 -3,0 4,1 0,4 1,1 0,6 1,1 0,3 1,1 0,4 1,1 0,3 1,1 0,4 1,1 0,4 1,1 0,3 1,1 0,4 1,1 0,3 1,1 0,3 1,1 0,3 1,1 0,3 1,1 0,3 2,0 1,1 0,5 -1,1 0,1 -1,1 1,1 2,0 1,1 0,1 1,1 1,0 1,1 0,3 -1,1 0,1 1,1 0,3 1,1 0,4 1,1 0,3 1,1 0,4 1,1 0,7 6,0 0,-6 -1,-1 0,-3 -1,-1 0,-4 -1,-1 0,-4 -1,-1 0,-3 -1,-1 0,-4 -1,-1 0,-2 1,-1 -1,0 -1,-1 0,-2 1,-1 2,0 -2,-1 0,-1 -1,-1 0,-3 -1,-1 0,-3 -1,-1 0,-3 -1,-1 0,-3 -1,-1 0,-3 -1,-1 0,-3 -1,-1 0,-4 -1,-1 0,-3 -1,-1 0,-5 -1,0 -1,-1 0,-3 1,-1 -1,-1 0,-3 -1,-1 0,-4 -1,-1 0,-4 -1,-1 0,-3 -1,-1 0,-3 -1,-1 0,-4 1,-1 -2,0 -1,-1 0,-4 1,-1 1,0 0,-1 -1,-1 0,-2 -1,-1 0,-1 -1,-1 0,-1 -1,-1 0,-2 -1,-1 0,-1 -1,-1 0,-1 -1,-1 0,-2 -1,-1 0,-1 -1,-1 0,-1 -1,-1 0,-1 -1,-1 0,-1 -1,-1 0,-2 -1,-1 0,-1 -1,-1 0,-1 -1,-1 0,-2 -1,-1 0,-1 -1,-1 0,-1 -1,-1 0,-2 -1,-1 0,-1 -1,-1 0,-3 -2,0 -1,-1 0,-3 -2,0 -1,1 -2,0 -1,-1 0,-1Z"/>
<path onmouseover="hoverPath(evt)" onmouseout="recoverPath(evt)" fill="rgb(244,243,235)" d="M  148,28l 0,0 1,1 1,1 1,0 1,1 3,0 1,1 0,4 -1,1 -1,1 -1,1 -6,0 -1,-1 -1,0 -1,-1 -1,0 -1,-1 -1,-1 0,-2 -1,-1 0,-1 -1,-1 -2,0 -1,-1 0,-2 -1,-1 -4,0 -1,-1 -1,-1 -1,0 -1,-1 0,-4 1,-1 1,-1 1,0 2,-2 1,-1 1,-1 0,-1 1,-1 1,-1 1,-1 7,0 1,1 1,1 1,1 0,1 1,1 0,2 1,1 1,1 1,0 2,2 1,1 0,3 -1,1 -1,1 -1,0 -1,1 -1,0 -1,1 -7,-24 -2,0 -1,-1 0,-3 -32,0 0,1 1,1 0,4 1,1 0,1 1,1 0,2 1,1 1,1 0,3 1,1 1,1 0,1 2,0 1,1 0,1 1,1 1,1 0,3 1,1 1,1 0,1 1,1 0,3 1,1 1,1 0,3 1,1 0,1 1,1 0,2 1,1 0,1 1,1 0,1 1,1 0,2 1,1 1,1 0,3 1,1 0,2 -1,1 0,2 2,0 1,1 2,0 1,1 3,0 1,1 8,0 1,-1 3,0 2,-2 1,0 1,-1 1,-1 1,-1 0,-1 1,-1 1,-1 0,-1 1,-1 0,-3 1,-1 0,-27 1,-1 0,-3 1,-1 0,-1 1,-1 1,-1 1,-1 1,-1 1,-1 1,-1 1,-1 1,0 1,-1 1,0 1,-1 1,0 1,-1 2,0 1,-1 16,0 0,-1 -1,-1 -13,0 -1,-1 0,-2 -3,0 0,3 -1,1 -36,0 7,24Z"/>
<path onmouseover="hoverPath(evt)" onmouseout="recoverPath(evt)" fill="rgb(242,241,231)" d="M  204,210l 0,0 1,1 0,6 -1,1 0,4 1,0 1,-1 4,0 1,1 4,0 1,1 4,0 0,-4 1,-1 0,-2 1,-1 2,0 1,1 0,5 -1,1 0,4 1,0 1,-1 6,0 1,1 6,0 1,1 6,0 1,1 4,0 0,-3 -1,0 -1,-1 -3,0 -1,-1 -2,0 -1,-1 0,-1 -1,-1 0,-4 -5,0 -1,-1 -7,0 -1,-1 -4,0 -1,-1 0,-2 1,-1 1,0 1,-1 1,0 0,-1 -1,0 -1,-1 0,-2 1,-1 5,0 1,1 3,0 1,1 0,2 2,0 1,-1 4,0 1,1 5,0 1,1 6,0 0,-46 -6,0 -1,-1 -3,0 -1,-1 -4,0 -1,-1 -2,0 -1,-1 -3,0 -1,-1 -4,0 -1,-1 -4,0 -1,-1 -4,0 -1,-1 -5,0 -1,-1 -7,0 -1,-1 -1,0 -1,-1 -3,0 -1,-1 -1,0 0,7 -1,1 -2,0 -1,-1 0,-3 -1,-1 0,-2 -1,-1 0,-1 -1,-1 -2,0 -1,-1 -3,0 -1,-1 -3,0 -1,-1 -3,0 -1,-1 -2,0 -1,1 -2,0 0,2 1,1 0,3 1,1 0,3 1,1 0,4 1,1 0,4 1,1 0,3 1,1 0,2 -1,1 0,1 1,0 1,1 0,5 1,1 0,3 1,1 0,4 1,1 0,3 1,1 0,3 1,1 0,3 1,1 0,3 1,1 0,3 1,1 0,3 1,1 0,1 1,0 1,1 0,2 -1,1 -2,0 3,1 0,2 -1,1 0,5 1,1 0,3 1,1 0,4 1,1 0,4 1,1 0,3 1,1 0,7 34,0 0,-1 -7,0 -1,-1 -4,0 -1,-1 -6,0 -1,-1 0,-2 -1,1 -3,0 -1,-1 -1,-1 0,-1 -1,-1 0,-3 1,-1 0,-11 -3,0 -1,-1 0,-2 1,-1 3,0 -3,-1 0,-2 1,-1 0,-1 1,-1 1,-1 0,-2 1,-1 0,-3 1,-1 0,-2 1,-1Z"/>
<path onmouseover="hoverPath(evt)" onmouseout="recoverPath(evt)" fill="rgb(242,241,231)" d="M  211,116l 0,3 -1,1 0,20 -1,1 0,6 1,1 0,1 3,0 1,1 5,0 1,1 5,0 1,1 4,0 1,1 3,0 1,1 3,0 1,1 4,0 1,1 3,0 1,1 3,0 1,1 3,0 0,-35 -2,0 -1,-1 -1,0 -1,-1 -3,0 -1,-1 -2,0 -1,-1 -4,0 0,2 -1,1 0,2 -1,1 -2,0 -1,-1 0,-7 -1,-1 -2,0 -1,-1 -4,0 -1,-1 -9,0 -1,-1 -2,0 -1,1 -1,0Z"/>
<path onmouseover="hoverPath(evt)" onmouseout="recoverPath(evt)" fill="rgb(253,253,252)" d="M  223,36l 1,0 1,1 0,-2 -28,0 -1,1 0,2 -1,1 0,11 -1,1 0,1 1,1 0,4 -1,1 0,3 1,1 0,-4 1,-4 0,-1 1,-1 1,-1 1,0 1,-1 -3,0 -1,-1 0,-10 27,-3 -1,0 4,1 0,0 -1,1 0,1 1,0 1,-1Z"/>
<path onmouseover="hoverPath(evt)" onmouseout="recoverPath(evt)" fill="rgb(249,248,244)" d="M  12,117l 0,-1 1,-1 0,-3 1,-1 0,-3 -1,0 -1,-1 -1,-1 0,-5 1,-1 0,-23 -2,0 0,6 1,1 0,14 -1,1 0,5 -1,1 0,2 -1,1 0,2 -1,1 0,2 -1,1 0,2 -1,1 0,1 -1,1 0,2 -1,1 0,1 -1,1 -2,0 0,6 1,0 1,-1 3,0 1,1 1,1 0,2 1,0 1,-1 0,-4 1,-1 0,-3 1,-1 0,-3 1,-1Z"/>
<path onmouseover="hoverPath(evt)" onmouseout="recoverPath(evt)" fill="rgb(252,252,251)" d="M  167,141l 0,1 4,0 1,1 3,0 1,1 3,0 1,1 3,0 1,1 3,0 1,1 2,0 1,1 1,1 0,1 1,1 0,2 1,1 0,-4 1,-1 3,0 0,-1 -2,0 -1,-1 -2,0 -1,-1 -4,0 -1,-1 -3,0 -1,-1 -3,0 -1,-1 -3,0 -1,-1 -3,0 -1,-1 -4,0 32,9 3,0 1,1 1,0 1,1 7,0 1,1 5,0 1,1 4,0 1,1 4,0 1,1 4,0 1,1 3,0 1,1 2,0 1,1 4,0 1,1 3,0 1,1 5,0 0,-1 -4,0 -1,-1 -3,0 -1,-1 -3,0 -1,-1 -4,0 -1,-1 -3,0 -1,-1 -3,0 -1,-1 -4,0 -1,-1 -5,0 -1,-1 -5,0 -1,-1 -3,0 -1,-1 0,-1 -1,-1 0,-8 1,-1 0,-20 1,-1 0,-5 1,-1 1,0 1,-1 4,0 1,1 9,0 1,1 4,0 1,1 2,0 1,1 1,1 0,7 1,-3 0,-2 1,-1 6,0 1,1 2,0 1,1 3,0 1,1 1,0 1,1 1,0 0,-7 -2,0 -1,-1 -2,0 -1,-1 -3,0 -1,-1 -3,0 -1,-1 -2,0 -1,-1 -1,0 -1,-1 -2,0 1,1 0,2 -1,1 -6,0 -1,-1 -7,0 -1,-1 -8,0 -1,-1 0,-2 1,-1 0,-2 -1,-1 0,-2 1,-1 14,0 -11,-1 -3,0 -1,-1 0,-3 1,-1 9,0 -9,-1 -1,-1 0,-3 1,-1 16,0 -12,-1 -3,0 -1,-1 -1,-1 0,-11 -1,1 0,4 -1,1 -1,1 -1,0 -1,1 2,0 1,1 1,1 0,7 -1,1 0,17 -1,1 0,3 1,1 0,2 -1,1 0,20 -1,1 0,10 -1,1 -5,0 -1,1 -32,-9Z"/>
<path onmouseover="hoverPath(evt)" onmouseout="recoverPath(evt)" fill="rgb(240,238,227)" d="M  0,38l 0,17 7,0 0,-9 -1,-1 0,-8 -1,-1 -5,0Z"/>
<path onmouseover="hoverPath(evt)" onmouseout="recoverPath(evt)" fill="rgb(243,242,234)" d="M  10,38l 0,3 1,1 0,13 37,0 1,-1 37,0 1,1 12,0 0,-1 1,-1 4,0 1,1 6,0 1,1 3,0 0,-1 -1,-1 0,-2 -1,-1 0,-1 -1,-1 0,-1 -1,-1 0,-1 -1,-1 0,-2 -1,-1 0,-1 -1,-1 0,-1 -1,-1 0,-2 -1,-1 0,-1 -1,-1 0,-1 -1,-1 0,-2 -1,-1 0,-1 -2,0 -1,-1 0,-2 1,-1 -1,-1 0,-1 -1,-1 0,-2 -1,-1 0,-1 -1,-1 0,-3 -2,0 -1,1 -1,0 -1,1 -1,0 0,2 -1,1 -2,0 -1,-1 -1,1 -2,0 -1,1 -1,0 -1,1 -2,0 0,2 -1,1 -2,0 -1,-1 -1,0 -1,1 -1,0 0,2 -1,1 -2,0 -1,-1 -1,0 -1,1 -1,0 0,2 -1,1 -2,0 -1,-1 -1,0 -1,1 -1,0 -1,1 -1,0 -1,1 -2,0 -1,1 -2,0 0,2 -1,1 -2,0 -1,-1 -1,0 -1,1 -3,0 -1,1 -5,0 -1,1 -14,0 -1,1 -8,0 -1,1Z"/>
<path onmouseover="hoverPath(evt)" onmouseout="recoverPath(evt)" fill="rgb(190,212,138)" d="M  14,78l 0,5 1,0 1,1 3,0 1,-1 8,0 1,1 1,-1 3,0 1,-1 29,0 1,1 3,0 1,1 1,-1 4,0 1,-1 0,-9 -6,0 -1,1 -16,0 -1,1 -21,0 -1,1 -14,0Z"/>
<path onmouseover="hoverPath(evt)" onmouseout="recoverPath(evt)" fill="rgb(242,240,230)" d="M  46,229l -1,1 0,9 -1,1 -2,0 0,1 1,1 0,2 -1,1 0,1 -1,1 -1,1 -2,0 -1,1 0,1 -1,1 -1,1 -1,1 0,2 28,0 0,-14 1,-1 0,-11 -1,0 -1,-1 -14,0 -1,1Z"/>
<path onmouseover="hoverPath(evt)" onmouseout="recoverPath(evt)" fill="rgb(249,248,244)" d="M  73,142l -2,0 -1,-1 0,-2 -1,-1 0,-24 1,-1 0,-1 -1,1 0,34 -1,1 0,14 1,-11 0,0 1,-1 4,0 1,1 0,6 -1,1 0,6 -1,1 0,3 -1,1 0,6 -1,1 0,6 -1,1 0,4 2,0 1,1 1,-1 2,0 1,1 -1,-2 0,0 -1,-1 0,-2 1,-1 0,-8 1,-1 2,0 0,-2 1,-1 3,0 1,1 0,1 1,1 0,1 1,0 1,1 1,0 1,1 1,0 1,1 15,0 0,-2 -1,-1 0,-4 -1,-1 -1,0 -1,-1 -6,0 -1,-1 -1,-1 0,-2 1,-1 1,-1 3,0 1,-1 2,0 1,-1 2,0 1,-1 2,0 1,-1 2,0 1,-1 2,0 1,-1 2,0 1,-1 2,0 1,-1 2,0 1,-1 2,0 1,-1 2,0 1,-1 2,0 1,-1 2,0 1,-1 4,0 1,1 0,1 1,1 0,1 1,1 0,8 1,-6 8,0 1,1 0,2 1,0 1,-1 2,0 0,-5 -1,-1 0,-4 -3,0 -1,-1 0,-2 1,-1 3,0 0,-2 -1,-1 0,1 -1,1 -2,0 -1,1 -2,0 -1,1 -6,0 -1,-1 0,-3 1,-1 -5,0 1,1 0,0 1,1 0,2 -1,1 -1,1 -1,0 0,2 -1,1 -2,0 -1,1 -2,0 -1,1 -2,0 -1,1 -2,0 -1,1 -2,0 -1,1 -2,0 -1,1 -3,0 -1,1 -3,0 -1,-1 -1,-1 0,3 -1,1 -2,0 -1,1 -2,0 -1,1 -2,0 -1,1 -2,0 -1,1 -3,0 -1,-1 -1,-1 -1,-1 0,-1 -2,0 -1,-1 -1,-1 -1,-1 -1,-1 -1,-1 -1,-1 0,-1 -1,-1 0,-7 1,-1 0,-9 -1,0 -1,-1 0,-23 1,-1 2,0 1,1 0,1 1,1 0,2 1,1 0,-3 1,-1 1,-1 0,-1 1,-1 0,-1 -1,-1 0,0 -1,-1 -1,0 -1,-1 0,-1 -1,-1 0,4 -1,1 -2,0 -1,-1 0,-12 -1,-1 0,-18 -2,0 0,9 -1,1 -1,1 -4,0 -1,1 -2,0 0,1 1,0 3,3 0,1 1,1 0,1 1,1 0,2 1,1 0,6 1,1 1,0 1,1 0,3 1,1 0,23 -1,1 0,7 -1,1 -1,0 -1,1 -1,0 -7,-56 0,-1 -3,0 -1,-1 -27,0 -1,1 -3,0 -1,1 -1,0 0,1 1,0 1,-1 1,0 3,-1 27,0 2,1 2,0 7,56Z"/>
<path onmouseover="hoverPath(evt)" onmouseout="recoverPath(evt)" fill="rgb(253,253,253)" d="M  89,227l 1,-1 0,-5 1,-1 1,-1 17,0 1,1 0,0 1,1 1,1 0,14 -1,1 -1,0 -1,1 -6,0 4,1 0,1 1,1 0,12 -1,1 0,1 1,0 0,-15 1,-1 1,0 1,-1 16,0 -14,-1 -1,0 -2,1 2,-17 0,0 1,-1 23,0 -2,-1 -19,0 -1,-1 0,-2 -1,0 -1,1 0,1 -1,1 -1,0 -21,8 1,-8 0,-1 1,-1 0,-4 -1,4 0,0 -1,9 26,-12Z"/>
<path onmouseover="hoverPath(evt)" onmouseout="recoverPath(evt)" fill="rgb(243,242,233)" d="M  148,86l 0,1 1,1 0,3 1,1 0,1 1,1 0,2 1,1 0,1 1,1 0,1 1,1 0,2 1,1 0,1 1,1 0,1 1,1 0,2 1,1 0,1 1,1 0,1 1,1 0,1 1,1 0,1 1,1 0,2 1,1 0,1 1,1 0,1 1,1 0,2 1,1 0,1 1,1 0,1 1,1 0,2 1,1 0,3 3,0 1,1 3,0 1,1 3,0 1,1 3,0 1,1 3,0 1,1 4,0 1,1 2,0 1,1 2,0 1,1 4,0 0,-10 1,-1 0,-20 1,-1 -1,-1 0,-5 1,-1 0,-17 1,-1 0,-5 -1,-1 -7,0 -1,-1 0,-2 1,-1 5,0 1,-1 1,0 1,-1 0,-2 -17,0 -1,1 -8,0 -1,1 -5,0 -1,1 -3,0 -1,1 -3,0 -1,1 -3,0 -1,1 -3,0 -1,1 -2,0 -1,1 -2,0 -1,1 -3,0 -1,1Z"/>
<path onmouseover="hoverPath(evt)" onmouseout="recoverPath(evt)" fill="rgb(211,229,176)" d="M  168,222l 1,0 1,-1 1,0 -1,-1 0,-2 1,-1 0,-1 1,-1 0,-3 -1,2 -3,0 -1,1 -4,0 -1,-1 0,-2 -4,0 -1,-1 -1,0 -1,-1 -2,0 -1,-1 -3,0 -1,-1 -2,0 -1,-1 -2,0 -1,-1 -2,0 -1,-1 -3,0 -1,-1 -2,0 -1,-1 -3,0 -1,-1 -2,0 -1,1 -2,0 -1,-1 -1,-1 0,-3 -1,-1 0,-10 -1,-1 0,8 -1,1 -3,0 -1,-1 -3,0 -1,1 -5,0 -1,1 -3,0 -1,-1 -2,0 0,2 -1,1 -2,0 -1,-1 0,-4 -1,1 0,0 -1,1 0,1 -1,1 -1,0 2,1 0,1 1,1 1,1 0,2 -1,1 0,2 1,-2 0,0 1,-3 3,0 1,1 0,1 2,0 1,1 3,0 1,1 3,0 1,1 3,0 1,1 1,0 1,1 0,2 1,1 0,2 1,-1 0,-1 1,-1 0,-1 1,-1 1,-1 1,0 0,-1 1,-1 2,0 1,1 3,0 1,1 1,0 1,1 0,2 -1,1 1,0 1,1 2,0 1,-1 3,0 1,1 0,2 2,0 1,-1 2,0 1,-1 0,-1 1,-1 4,0 1,1 1,1 1,0 1,1 0,1 2,0 1,1 1,1 2,0 1,1 0,2 -1,1 2,0 1,1 2,0 1,1Z"/>
<path onmouseover="hoverPath(evt)" onmouseout="recoverPath(evt)" fill="rgb(242,240,230)" d="M  181,45l 0,-1 -1,-1 -1,-1 -1,1 0,8 -1,1 0,4 -1,1 0,2 -1,1 0,1 -1,1 0,1 -1,1 0,1 1,0 1,-1 6,0 1,-1 1,0 0,-14 -1,-1 0,0 -1,-1Z"/>
<path onmouseover="hoverPath(evt)" onmouseout="recoverPath(evt)" fill="rgb(240,238,227)" d="M  229,48l 0,14 1,-1 23,0 1,1 0,1 1,0 0,-40 -4,0 -1,-1 -24,0 -1,-1 -3,0 0,1 3,0 1,1 0,2 1,0 1,1 0,7 -1,1 0,1 1,0 1,1 0,3 -1,1 0,5 -1,1 -4,0 5,1 1,1Z"/>
<path onmouseover="hoverPath(evt)" onmouseout="recoverPath(evt)" fill="rgb(245,242,234)" d="M  239,214l 3,0 1,1 0,4 1,1 0,1 2,0 1,1 3,0 1,1 1,0 1,1 0,5 -1,1 0,1 -1,1 4,0 0,-21 -7,0 -1,-1 -5,0 -1,-1 -2,0 -1,1 -4,0 -1,-1 0,-2 -3,0 -1,-1 -3,0 2,1 0,3 -1,1 -1,0 -1,1 3,0 1,1 7,0 1,1Z"/>
<path onmouseover="hoverPath(evt)" onmouseout="recoverPath(evt)" fill="rgb(254,254,254)" d="M  1,223l 4,0 1,1 19,0 1,1 14,0 1,1 1,0 1,1 0,11 1,-10 0,-1 1,-1 17,0 1,1 1,0 1,1 0,13 -1,1 0,13 1,0 0,-9 1,-1 0,-27 1,-1 0,-8 1,-1 0,-2 1,-1 0,-1 1,-1 0,-1 1,-1 0,-1 1,-1 0,-1 -1,-1 -3,0 0,3 -1,1 0,4 -1,1 0,7 -1,1 0,2 -1,1 -13,0 -1,-1 -3,0 1,1 2,0 13,1 1,0 1,1 0,4 -1,1 -1,1 -15,0 -1,-1 -19,0 -1,-1 -1,0 -1,-1 -1,-1 0,-35 -1,36 -1,1 -14,0 -1,-1 -5,0 -1,1 -1,-1Z"/>
<path onmouseover="hoverPath(evt)" onmouseout="recoverPath(evt)" fill="rgb(221,234,188)" d="M  52,181l 0,0 -1,-1 -6,0 -1,-1 -4,0 -1,-1 -3,0 -1,-1 -2,0 -1,-1 -1,0 -1,-1 -3,0 -1,-1 -8,0 -1,-1 -4,0 -1,-1 -3,0 -1,-1 -3,0 -1,-1 -1,0 -1,-1 -2,0 0,12 3,0 1,1 0,2 2,0 1,1 3,0 1,1 2,0 1,1 3,0 -1,-1 -1,0 -1,-1 0,-2 1,-1 5,0 1,1 1,0 1,1 5,0 1,1 0,1 1,1 0,2 1,1 3,0 1,1 0,4 -1,1 1,0 1,1 1,0 1,1 0,-3 1,-1 9,0 0,-1 1,-1 0,-1 1,-1 3,0 0,-1 1,-1 2,0 1,1 1,0 0,-1 1,-1 2,0 1,1 3,0 1,1 2,0 1,1 0,2 -1,1 0,2 4,0 1,1 5,0 0,-1 1,-1 2,0 1,1 3,0 1,1 1,0 -1,-1 0,-1 -1,-1 0,-3 -5,0 -1,-1 -1,1 -2,0 -1,-1 -1,1 -2,0 -1,-1 -2,0 -1,-1 0,-5 -1,4 -3,0 -1,-1 -4,0 -1,-1 -1,-1 0,-2 1,-1Z"/>
<path onmouseover="hoverPath(evt)" onmouseout="recoverPath(evt)" fill="rgb(241,238,228)" d="M  81,119l 0,12 1,0 1,1 0,11 -1,1 0,5 1,1 0,1 1,1 1,1 1,1 1,1 1,1 2,0 1,1 0,1 1,1 1,1 1,0 1,-1 2,0 1,-1 2,0 1,-1 2,0 1,-1 2,0 0,-3 -1,-1 0,-2 -1,0 -1,-1 -8,0 -1,-1 0,-2 1,-1 8,0 1,-1 2,0 1,-1 1,-1 1,-1 1,-1 1,-1 0,-1 1,-1 0,-6 1,-1 0,-9 -6,0 -1,-1 0,-2 1,-1 4,0 1,-1 2,0 1,1 1,0 0,-2 1,-1 0,-3 2,-2 1,0 -3,1 -2,0 -1,1 -1,1 -3,0 -1,1 -2,0 -1,1 -2,0 -1,1 -4,0 -1,1 -11,0 -1,1 -2,0 -1,-1 0,-1 -1,-1 0,-2 -1,-1Z"/>
<path onmouseover="hoverPath(evt)" onmouseout="recoverPath(evt)" fill="rgb(240,237,226)" d="M  92,223l 0,4 -1,1 0,8 17,0 1,-1 1,0 0,-12 -1,-1 0,0 -1,-1 -15,0 -1,1Z"/>
<path onmouseover="hoverPath(evt)" onmouseout="recoverPath(evt)" fill="rgb(242,240,230)" d="M  126,119l -2,0 -1,-1 0,2 -1,1 -2,0 -1,-1 0,-2 -1,-1 0,1 -1,1 -3,0 -1,-1 -1,1 1,0 2,1 0,11 -1,1 0,6 -1,1 0,1 -1,1 -1,1 -1,1 -1,1 -1,1 -1,1 -2,0 -1,1 -8,0 9,1 1,0 1,1 0,2 2,0 1,1 0,1 1,1 1,0 1,-1 3,0 1,-1 2,0 1,-1 2,0 1,-1 2,0 1,-1 2,0 1,-1 2,0 1,-1 2,0 0,-2 1,-1 1,0 1,-1 -1,-1 0,0 -1,-1 0,-2 1,-1 6,0 1,-1 4,0 1,1 0,2 -1,1 -2,0 -1,1 -1,0 0,1 4,0 1,-1 2,0 1,-1 2,0 0,-1 -1,-1 0,-2 1,-1 -1,-1 0,-2 -1,-1 0,-1 -1,-1 0,-1 -1,-1 0,-2 -1,-1 0,-1 -1,-1 0,-1 -2,0 -1,-1 0,-1 -1,-1 0,-1 -1,-1 0,-2 -1,-1 0,-1 -2,0 -1,-1 0,-1 -1,1 -4,0 -1,1 -1,1 0,2 -1,1 -1,0 -1,1 -1,0 -1,1Z"/>
<path onmouseover="hoverPath(evt)" onmouseout="recoverPath(evt)" fill="rgb(190,214,146)" d="M  192,31l 0,0 -1,1 0,17 -1,1 -2,0 -1,-1 0,-16 -1,0 -1,-1 -4,0 -1,-1 0,9 1,1 0,0 1,1 1,1 0,3 1,1 1,1 0,16 -1,1 4,0 1,-1 1,0 0,-2 1,-1 1,0 0,-4 1,-1 0,-2 -1,-1 0,-3 1,-1 0,-11 1,-1 0,-2 1,-1 1,-1 29,0 1,-1 0,-5 -4,0 -1,-1 -4,0 -1,-1 -4,0 -1,-1 -4,0 -1,-1 -4,0 -1,-1 -5,0 0,4 -1,1 0,1 -1,1 -1,1 -1,1Z"/>
<path onmouseover="hoverPath(evt)" onmouseout="recoverPath(evt)" fill="rgb(241,239,228)" d="M  206,247l 0,0 1,1 9,0 1,1 2,0 0,-4 1,-1 0,-10 -1,1 -4,0 -1,-1 -3,0 -1,-1 -5,0 -1,-1 0,3 -1,1 0,9 1,1 0,0 1,1Z"/>
<path onmouseover="hoverPath(evt)" onmouseout="recoverPath(evt)" fill="rgb(241,239,228)" d="M  206,48l 0,0 1,1 0,2 -1,1 -5,0 -1,1 -1,0 -1,1 0,1 -1,1 0,6 8,0 1,-1 21,0 0,-12 -1,-1 -4,0 -1,-1 0,-2 1,-1 4,0 0,-3 -2,0 -1,-1 0,-2 -16,0 -1,-1 -6,0 -1,1 -1,0 0,10Z"/>
<path onmouseover="hoverPath(evt)" onmouseout="recoverPath(evt)" fill="rgb(220,234,188)" d="M  222,224l 0,0 -1,1 -6,0 -1,-1 -4,0 -1,-1 -2,0 -1,1 -3,0 -1,-1 0,-6 1,-1 0,-4 -1,3 0,1 -1,3 0,2 -1,1 -1,1 0,1 -1,1 2,0 1,1 0,2 -1,1 -3,0 4,1 0,13 -1,1 0,1 1,1 0,1 1,1 1,0 -1,-1 -1,-2 0,-1 1,-10 0,-4 1,-1 2,0 1,1 0,1 5,0 1,1 3,0 1,1 2,0 1,-1 2,0 1,1 0,12 -1,1 0,4 -1,1 -4,0 -1,-1 -8,0 7,1 1,0 4,1 7,0 1,1 0,2 10,0 0,-1 -5,0 -1,-1 -2,0 -1,-1 -1,0 -5,-28 1,22 0,3 1,-1 3,0 0,-1 -2,0 -1,-1 -1,0 -1,-22 0,3 1,1 0,0 -1,-2 0,-2 2,4 2,0 1,-1 4,0 1,1 -8,0 -2,-4 11,4 5,0 1,1 -6,-1 -11,-4 18,5 5,0 1,1 -6,-1 -18,-5 25,6 1,0 1,1 0,0 1,-1 -1,0 0,2 -2,-2 -25,-6 0,-3 1,-1 0,-3 -1,3 2,15 8,0 1,1 6,0 1,1 6,0 1,1 4,0 1,1 0,2 1,1 0,3 2,0 0,-11 -4,0 -29,-13Z"/>
<path onmouseover="hoverPath(evt)" onmouseout="recoverPath(evt)" fill="rgb(242,240,231)" d="M  225,238l 0,0 -1,1 0,5 1,0 1,1 2,0 1,1 0,3 -1,1 1,0 1,1 2,0 1,1 5,0 1,1 0,2 16,0 0,-8 -3,0 -1,-1 0,-3 -1,-1 0,-2 -4,0 -1,-1 -6,0 -1,-1 -6,0 -1,-1 -5,0 -1,1Z"/>
<path onmouseover="hoverPath(evt)" onmouseout="recoverPath(evt)" fill="rgb(238,235,221)" d="M  253,111l 0,0 1,1 1,0 0,-39 -15,0 -1,1 -4,0 -1,-1 -8,0 0,1 -1,1 -1,1 -4,0 -1,-1 -4,0 -1,1 -2,0 0,8 1,1 3,0 1,1 11,0 1,1 0,2 -1,1 -16,0 0,1 1,1 8,0 1,1 0,2 -1,1 -9,0 0,1 3,0 1,1 10,0 1,1 0,2 -1,1 -14,0 1,1 0,4 -1,1 8,0 1,1 7,0 1,1 4,0 -1,-1 0,-2 1,-1 4,0 1,1 1,0 1,1 2,0 1,1 3,0 1,1 3,0 1,1 2,0 -22,-26 0,-2 1,-1 1,-1 2,0 1,1 0,2 -1,1 -1,1 -2,0 -1,-1 22,26Z"/>
</svg>