<svg width="256" height="256" xmlns="http://www.w3.org/2000/svg"><script> 
var tempColor;
function hoverPath(evt){
obj = evt.target;
tempColor = obj.getAttribute("fill");
obj.setAttribute("fill","red");
//alert(tempColor);
//obj.setAttribute("stroke","red");}
function recoverPath(evt){
obj = evt.target;
obj.setAttribute("fill", tempColor);
//obj.setAttribute("stroke", tempColor);
}</script><path onmouseover="hoverPath(evt)" onmouseout="recoverPath(evt)" fill="rgb(244,243,235)" d="M  0,84l 0,8 3,0 1,1 0,2 -1,1 1,1 0,2 2,0 1,1 0,2 -1,1 1,1 2,0 1,-1 2,0 1,-1 2,0 1,-1 2,0 1,-1 3,0 1,-1 2,0 1,-1 2,0 1,-1 2,0 1,-1 3,0 1,-1 3,0 1,1 1,0 0,-2 1,-1 3,0 1,1 2,0 0,-2 1,-1 3,0 1,1 1,0 0,-2 1,-1 3,0 1,-1 1,0 1,-1 3,0 1,-1 2,0 1,-1 3,0 1,-1 1,0 1,-1 4,0 1,1 1,0 0,-2 1,-1 3,0 1,-1 2,0 1,-1 2,0 1,-1 2,0 1,-1 2,0 1,-1 3,0 1,-1 2,0 1,-1 2,0 1,-1 3,0 1,-1 0,-2 -1,-1 0,-1 -1,-1 0,-3 -1,-1 0,-2 1,-1 -2,0 -1,-1 0,-2 -1,-1 0,-1 -1,-1 0,-1 -1,-1 0,-3 1,-1 -2,0 -1,-1 0,-1 -1,-1 0,-1 -1,-1 0,-3 1,-1 -2,0 -1,-1 0,-1 -1,-1 0,-1 -1,-1 0,-1 -1,-1 0,-1 -1,-1 0,-2 -1,-1 0,-1 -1,0 0,1 -1,1 -2,0 -1,1 -3,0 -1,1 -2,0 -1,1 -2,0 -1,1 -3,0 -1,1 -2,0 -1,1 -2,0 -1,1 -3,0 -1,1 -2,0 -1,1 -3,0 -1,1 -2,0 -1,1 -2,0 -1,1 -3,0 -1,1 -2,0 -1,1 -2,0 -1,1 -2,0 -1,1 -3,0 -1,1 -2,0 -1,1 -2,0 -1,1 -2,0 -1,1 -3,0 -1,1 -2,0 -1,1 -2,0 -1,1 -2,0 -1,1 -3,0 -1,1 -2,0 -1,1 -4,0Z"/>
<path onmouseover="hoverPath(evt)" onmouseout="recoverPath(evt)" fill="rgb(243,233,148)" d="M  0,48l 0,4 3,0 1,-1 2,0 1,-1 3,0 1,-1 2,0 1,-1 2,0 1,-1 2,0 1,-1 3,0 1,-1 2,0 1,-1 2,0 1,-1 2,0 1,-1 3,0 1,-1 2,0 1,-1 2,0 1,-1 2,0 1,-1 3,0 1,-1 2,0 1,-1 2,0 1,-1 3,0 1,-1 2,0 1,-1 3,0 1,-1 2,0 1,-1 2,0 1,-1 3,0 1,-1 2,0 1,-1 2,0 1,-1 3,0 1,-1 2,0 0,-1 1,-1 3,0 1,1 0,-2 1,-1 2,0 1,1 1,0 1,-1 3,0 1,-1 1,0 1,-1 2,0 1,-1 3,0 1,-1 2,0 1,-1 2,0 1,-1 2,0 1,-1 3,0 1,-1 3,0 1,-1 3,0 1,-1 14,0 0,-1 1,-1 4,0 1,1 15,0 1,-1 5,0 1,-1 3,0 1,-1 2,0 1,-1 1,0 1,-1 2,0 1,-1 1,-1 1,0 0,-2 1,-1 0,-1 -44,0 0,1 1,1 0,3 -1,1 -12,0 -1,1 -3,0 -1,1 -4,0 -1,1 -2,0 -1,1 -3,0 -1,1 -2,0 -1,1 -2,0 -1,1 -2,0 -1,1 -2,0 -1,1 -3,0 -1,1 -2,0 -1,1 -2,0 -1,1 -3,0 -1,1 -2,0 -1,1 -2,0 -1,1 -2,0 -1,1 -3,0 -1,1 -2,0 -1,1 -2,0 -1,1 -3,0 -1,1 -2,0 -1,1 -2,0 -1,1 -3,0 -1,1 -2,0 -1,1 -2,0 -1,1 -3,0 -1,1 -2,0 -1,1 -2,0 -1,1 -3,0 -1,1 -2,0 -1,1 -2,0 -1,1 -2,0 -1,1 -3,0 -1,1 -2,0 -1,1 -2,0 -1,1 -2,0 -1,1 -3,0 -1,1 -2,0 -1,1 -2,0 -1,1 -2,0 -1,1 -4,0Z"/>
<path onmouseover="hoverPath(evt)" onmouseout="recoverPath(evt)" fill="rgb(244,243,235)" d="M  0,236l 0,19 62,0 0,-2 -2,0 -1,-1 0,-2 1,-1 -1,-1 0,-1 -1,-1 0,-2 -1,-1 0,-1 -1,-1 0,-2 -1,-1 0,-2 -2,0 -1,-1 0,-2 1,-1 -1,-1 0,-2 -1,-1 0,-1 -1,-1 0,-2 -1,-1 0,-2 -6,0 -1,-1 -1,0 -1,1 -2,0 -1,1 -3,0 0,2 -1,1 -3,0 -1,-1 -2,0 -1,1 -2,0 -1,1 -2,0 -1,1 -3,0 0,2 -1,1 -3,0 -1,-1 -2,0 0,2 -1,1 -3,0 -1,-1 -1,0 0,2 -1,1 -3,0Z"/>
<path onmouseover="hoverPath(evt)" onmouseout="recoverPath(evt)" fill="rgb(244,243,234)" d="M  23,136l -3,0 0,1 2,0 1,1 0,2 -1,1 0,1 1,1 0,1 1,1 0,1 1,1 0,2 1,1 0,1 1,1 0,2 2,0 1,1 0,2 -1,1 0,1 2,0 1,-1 3,0 1,-1 2,0 1,-1 2,0 1,-1 2,0 1,-1 3,0 1,-1 2,0 1,-1 3,0 1,-1 2,0 1,-1 2,0 1,-1 3,0 0,-2 1,-1 3,0 1,1 1,0 1,-1 2,0 1,-1 2,0 1,-1 3,0 1,-1 3,0 1,-1 2,0 1,-1 2,0 1,-1 2,0 1,-1 2,0 1,-1 3,0 1,-1 2,0 1,-1 3,0 1,-1 2,0 1,-1 2,0 1,-1 3,0 1,-1 2,0 1,-1 2,0 1,-1 3,0 0,-2 1,-1 3,0 1,1 1,0 1,-1 3,0 1,-1 2,0 1,-1 2,0 1,-1 2,0 1,-1 2,0 1,-1 3,0 1,-1 3,0 0,-2 -1,-1 0,0 -1,-1 -1,-1 0,-1 -1,-1 -1,-1 -1,-1 0,-1 -1,-1 -1,-1 0,-1 -1,-1 -1,-1 -1,-1 -2,-2 -1,-1 -1,-1 -6,0 -1,1 -2,0 -1,1 -2,0 -1,1 -3,0 -1,1 -2,0 -1,1 -2,0 -1,1 -2,0 -1,1 -3,0 -1,1 -2,0 -1,1 -2,0 -1,1 -3,0 -1,1 -3,0 -1,1 -2,0 -1,1 -2,0 -1,1 -3,0 -1,1 -3,0 -1,1 -2,0 -1,1 -2,0 -1,1 -2,0 -1,1 -3,0 -1,1 -2,0 -1,1 -2,0 -1,1 -3,0 -1,1 -2,0 -1,1 -2,0 -1,1 -2,0 -1,1 -3,0 -1,1 -2,0 -1,1 -2,0 -1,1 -2,0 -1,1 -2,0 -1,1 -3,0 -1,1 -2,0 -1,1 -2,0 -1,1 -3,0 -1,1Z"/>
<path onmouseover="hoverPath(evt)" onmouseout="recoverPath(evt)" fill="rgb(244,243,235)" d="M  55,219l -1,0 0,1 1,1 0,2 1,1 0,1 1,1 0,2 2,0 1,1 0,2 -1,1 0,1 1,1 0,1 1,1 0,2 2,0 1,1 0,2 -1,1 0,1 2,0 1,1 0,1 1,1 0,2 -1,1 1,1 0,2 1,1 0,2 76,0 0,-2 -1,-1 0,-4 1,-1 3,0 1,-1 2,0 0,-2 1,-1 2,0 1,-1 4,0 1,1 1,0 0,-2 1,-1 3,0 1,-1 3,0 1,1 2,0 1,-1 2,0 1,-1 1,0 0,-2 1,-1 2,0 1,-1 3,0 1,-1 2,0 1,-1 3,0 1,1 1,0 0,-2 1,-1 4,0 1,1 1,0 0,-2 1,-1 4,0 1,1 2,0 0,-2 1,-1 2,0 1,-1 3,0 1,-1 3,0 1,1 1,0 1,-1 3,0 1,-1 1,0 0,-2 1,-1 2,0 1,-1 4,0 1,1 2,0 1,-1 2,0 1,-1 2,0 0,-2 1,-1 3,0 1,-1 1,0 0,-2 -1,-1 0,-2 -1,-1 0,-1 -1,-1 0,-2 -1,-1 0,-1 -1,-1 0,-2 -2,0 -1,-1 0,-2 1,-1 0,-1 -1,-1 0,-1 -1,-1 0,-2 -1,-1 0,-1 -1,-1 0,-2 -1,-1 0,-1 -1,-1 0,-2 -1,-1 0,-1 -1,-1 0,-2 -1,-1 0,-1 -2,0 -1,-1 0,-2 1,-1 -1,-1 0,-1 -3,0 -1,1 -3,0 -1,1 -2,0 -1,1 -2,0 0,2 -1,1 -2,0 -1,-1 -1,0 -1,1 -3,0 -1,1 -2,0 -1,1 -3,0 0,2 -1,1 -3,0 -1,-1 -1,0 -1,1 -3,0 -1,1 -2,0 -1,1 -3,0 -1,1 -5,0 -1,-1 -2,0 -1,1 -2,0 -1,1 -2,0 -1,1 -3,0 -1,1 -2,0 0,2 -1,1 -2,0 -1,1 -3,0 -1,1 -3,0 -1,-1 -2,0 -1,1 -2,0 0,2 -1,1 -2,0 -1,1 -3,0 -1,-1 -2,0 0,2 -1,1 -1,0 -1,1 -4,0 -1,-1 -1,0 -1,1 -3,0 -1,1 -2,0 0,2 -1,1 -3,0 -1,-1 -1,0 -1,1 -3,0 -1,1 -2,0 0,2 -1,1 -2,0 -1,1 -4,0 -1,-1 -1,0 0,2 -1,1 -2,0 -1,1 -3,0 -1,-1 -2,0 0,2 -1,1 -1,0 -1,1 -4,0 -1,-1 -2,0 0,2 -1,1 -1,0 -1,1 -3,0 -1,1 -2,0 -1,1 -3,0 -1,-1 -2,0 -1,1 -2,0 0,2 -1,1 -1,1Z"/>
<path onmouseover="hoverPath(evt)" onmouseout="recoverPath(evt)" fill="rgb(242,241,232)" d="M  182,40l 0,0 -1,1 0,1 -1,1 0,2 -1,1 0,1 -1,1 0,1 -1,1 0,1 -1,1 0,1 -1,1 0,1 -1,1 0,1 -1,1 0,1 -1,1 0,1 -1,1 0,1 -1,1 0,2 -1,1 0,1 -1,1 0,2 -1,1 0,1 -1,1 0,1 -1,1 0,1 -1,1 0,1 -1,1 0,1 -1,1 0,1 -1,1 0,1 -1,1 0,1 -1,1 0,1 -1,1 0,2 -1,1 0,7 1,1 0,1 2,0 1,1 1,-1 1,0 0,-2 1,-1 0,-1 1,-1 0,-1 1,-1 1,-1 0,-1 1,-1 0,-1 1,-1 1,-1 0,-1 1,-1 0,-1 1,-1 1,-1 0,-1 1,-1 0,-1 1,-1 1,-1 0,-1 1,-1 0,-1 1,-1 1,-1 0,-1 1,-1 0,-1 1,-1 1,0 0,-2 1,-1 0,-1 1,-1 1,-1 0,-1 1,-1 3,0 -1,-1 0,-2 1,-1 0,-3 1,-1 1,0 0,-2 1,-1 0,-1 1,-1 1,0 0,-2 1,-1 0,-1 1,-1 0,-1 -1,0 -1,-1 -1,0 -1,-1 -1,0 -1,-1 -1,0 -1,-1 -1,0 -1,-1 -1,0 -1,-1 -1,1 -1,1Z"/>
<path onmouseover="hoverPath(evt)" onmouseout="recoverPath(evt)" fill="rgb(243,242,234)" d="M  200,47l 0,0 -1,1 0,2 -1,1 0,1 -1,1 -1,0 0,2 -1,1 0,1 -1,1 0,1 -1,1 0,1 -1,1 -1,0 0,1 -1,1 0,2 -1,1 0,1 -1,1 0,1 -1,1 -1,1 0,1 -1,1 0,1 -1,1 0,1 -1,1 -1,1 0,1 -1,1 0,1 -1,1 -1,1 0,1 -1,1 0,1 -2,2 0,1 -1,1 -1,0 0,2 -1,1 0,1 -1,1 -1,0 0,2 -1,1 0,1 -1,1 -1,0 0,2 -1,1 0,1 -1,1 -1,1 -1,1 1,0 1,1 1,1 1,0 1,1 1,1 1,-1 2,0 1,1 0,2 1,1 2,0 1,1 3,0 1,-1 35,0 1,1 29,0 1,-1 3,0 1,-1 3,0 0,-93 -5,0 0,2 -1,1 -1,1 -1,1 -1,1 -1,1 -1,1 -1,1 -1,1 0,1 -1,1 0,1 -1,1 0,1 1,1 0,2 -1,1 -2,0 0,1 -1,1 0,1 -2,2 1,1 0,2 -1,1 -2,0 -1,1 0,1 -1,1 -1,1 0,2 1,0 1,1 1,1 1,0 1,1 1,1 1,1 1,1 1,1 0,12 -1,1 0,10 -1,1 0,2 -1,1 -3,0 -1,-1 0,-5 1,-1 0,-10 1,-1 0,-6 -1,-1 0,-1 -1,-1 -1,1 -2,0 -1,-1 0,-2 -5,0 -1,-1 0,-2 -1,-1 -1,0 -1,-1 -1,0 -1,-1 -1,0 -1,-1 -1,0 -1,-1 -1,1 -2,0 -1,-1 -1,0 -1,-1 0,-2 -1,0 -1,-1 -1,0 -1,-1 -1,-1 -1,0 -1,1 20,17 1,1 0,2 -1,1 0,1 -1,1 -2,0 -1,-1 0,-2 1,-1 0,-1 1,-1 2,0 -20,-17Z"/>
<path onmouseover="hoverPath(evt)" onmouseout="recoverPath(evt)" fill="rgb(244,243,236)" d="M  0,1l 0,43 3,0 1,-1 2,0 1,-1 2,0 1,-1 2,0 1,-1 3,0 1,-1 2,0 1,-1 2,0 1,-1 2,0 1,-1 3,0 1,-1 2,0 1,-1 2,0 1,-1 2,0 1,-1 3,0 1,-1 2,0 1,-1 2,0 1,-1 3,0 1,-1 2,0 1,-1 2,0 1,-1 3,0 1,-1 2,0 1,-1 2,0 1,-1 3,0 1,-1 2,0 1,-1 2,0 1,-1 3,0 1,-1 2,0 1,-1 2,0 1,-1 2,0 1,-1 3,0 1,-1 2,0 1,-1 2,0 1,-1 3,0 1,-1 2,0 1,-1 2,0 1,-1 2,0 1,-1 2,0 1,-1 3,0 1,-1 2,0 1,-1 4,0 1,-1 3,0 1,-1 12,0 0,-1 -1,-1 0,-2 -144,0 -1,1Z"/>
<path onmouseover="hoverPath(evt)" onmouseout="recoverPath(evt)" fill="rgb(244,243,236)" d="M  10,108l -1,0 0,3 1,1 0,1 2,0 1,1 0,2 -1,1 0,1 1,1 0,1 1,1 0,1 1,1 0,2 2,0 1,1 0,2 -1,1 0,1 1,1 2,0 1,-1 1,0 1,-1 2,0 1,-1 2,0 1,-1 2,0 1,-1 2,0 1,-1 2,0 1,-1 3,0 1,-1 2,0 1,-1 3,0 1,-1 2,0 1,-1 4,0 1,-1 3,0 1,-1 2,0 1,-1 2,0 1,-1 2,0 1,-1 2,0 1,-1 2,0 1,-1 2,0 1,-1 3,0 1,-1 2,0 1,-1 2,0 1,-1 3,0 1,-1 2,0 1,-1 2,0 1,-1 2,0 1,-1 3,0 1,-1 1,0 1,-1 2,0 1,-1 2,0 1,-1 2,0 1,-1 3,0 1,-1 3,0 1,-1 2,0 1,-1 2,0 1,-1 3,0 1,-1 2,0 1,-1 2,0 1,-1 2,0 1,-1 1,0 0,-1 1,-1 0,-3 1,-1 0,-4 1,-1 0,-10 1,-1 0,-13 -1,-1 0,-42 -13,0 -1,1 -3,0 -1,1 -3,0 -1,1 -3,0 -1,1 -2,0 -1,1 -2,0 -1,1 -2,0 -1,1 -3,0 -1,1 -2,0 -1,1 -1,0 -1,1 -3,0 -1,1 -3,0 -1,-1 0,3 -1,1 0,1 1,1 0,1 1,1 0,1 1,1 0,1 1,1 0,1 2,0 1,1 0,2 -1,1 0,1 1,1 0,1 1,1 0,1 2,0 1,1 0,2 -1,1 0,1 1,1 0,1 2,0 1,1 0,2 -1,1 0,1 2,0 1,1 0,1 1,1 0,2 -1,1 0,2 1,1 0,1 1,1 0,4 -1,1 -1,1 -3,0 -1,1 -2,0 -1,1 -2,0 -1,1 -3,0 -1,1 -2,0 -1,1 -2,0 -1,1 -2,0 -1,1 -2,0 -1,1 -3,0 0,2 -1,1 -3,0 -1,-1 -2,0 -1,1 -1,0 -1,1 -3,0 -1,1 -2,0 -1,1 -3,0 -1,1 -1,0 -1,1 -3,0 0,2 -1,1 -3,0 -1,-1 -1,0 0,2 -1,1 -4,0 -1,-1 -1,0 0,2 -1,1 -3,0 -1,-1 -1,0 -1,1 -3,0 -1,1 -2,0 -1,1 -2,0 -1,1 -2,0 -1,1 -3,0 -1,1 -2,0 -1,1 -2,0 -1,1 -2,0 0,2 -1,1Z"/>
<path onmouseover="hoverPath(evt)" onmouseout="recoverPath(evt)" fill="rgb(244,243,235)" d="M  34,165l 0,2 -1,1 0,1 1,1 0,1 1,1 0,2 2,0 1,1 0,2 -1,1 0,1 2,0 1,1 0,2 -1,1 0,1 2,0 1,1 0,2 -1,1 1,1 0,2 1,1 0,1 1,1 0,2 1,1 0,1 1,1 0,2 2,0 1,1 0,2 -1,1 0,1 2,0 1,1 0,2 -1,1 0,1 1,1 0,1 1,1 3,0 1,-1 2,0 1,-1 4,0 1,1 1,0 1,-1 2,0 1,-1 3,0 1,-1 1,0 0,-2 1,-1 4,0 1,1 2,0 1,-1 1,0 0,-2 1,-1 4,0 1,1 1,0 1,-1 2,0 0,-2 1,-1 3,0 1,1 2,0 1,-1 2,0 0,-2 1,-1 2,0 1,-1 3,0 1,-1 3,0 1,1 1,0 0,-2 1,-1 2,0 1,-1 3,0 1,-1 3,0 1,1 2,0 1,-1 1,0 0,-2 1,-1 4,0 1,1 1,0 1,-1 2,0 0,-2 1,-1 2,0 1,-1 4,0 1,1 1,0 1,-1 3,0 1,-1 2,0 0,-2 1,-1 2,0 1,-1 3,0 1,-1 2,0 1,-1 2,0 1,-1 3,0 1,-1 2,0 1,-1 0,-2 -1,-1 0,-1 -1,-1 0,-2 1,-1 0,-1 -1,-1 0,-1 -2,0 -1,-1 0,-2 1,-1 0,-2 -1,-1 0,0 -1,-1 0,-3 -1,-1 0,-1 -1,-1 0,-1 -2,0 -1,-1 0,-2 1,-1 0,-1 -1,-1 0,-1 -2,0 -1,-1 0,-2 1,-1 0,-1 -1,-1 0,-1 -2,0 -1,-1 0,-1 -1,-1 0,-1 -1,-1 0,-1 -1,-1 0,-2 -4,0 -1,1 -2,0 -1,1 -2,0 -1,1 -3,0 -1,1 -2,0 -1,1 -2,0 -1,1 -2,0 -1,1 -3,0 -1,1 -2,0 -1,1 -2,0 -1,1 -3,0 -1,1 -2,0 -1,1 -2,0 -1,1 -3,0 -1,1 -2,0 -1,1 -3,0 0,2 -1,1 -2,0 -1,-1 -2,0 -1,1 -3,0 -1,1 -2,0 -1,1 -2,0 -1,1 -2,0 -1,1 -2,0 -1,1 -3,0 -1,1 -3,0 -1,1 -2,0 -1,1 -2,0 -1,1 -2,0 -1,1 -3,0 0,2 -1,1 -3,0 -1,-1 -1,0 -1,1 -2,0 -1,1 -3,0 -1,1 -2,0 -1,1 -2,0 -1,1 -3,0 -1,1 -2,0 -1,1 -3,0 -1,1 1,1Z"/>
<path onmouseover="hoverPath(evt)" onmouseout="recoverPath(evt)" fill="rgb(236,238,233)" d="M  202,0l -2,0 0,3 -1,1 0,1 -1,1 0,1 -1,1 0,1 -1,1 0,1 -1,1 0,2 -1,1 0,1 -1,1 0,1 -1,1 0,1 -1,1 0,1 -1,1 0,1 -1,1 0,1 -1,1 0,1 -1,1 0,1 -1,1 0,1 1,0 1,1 1,1 1,0 1,1 1,0 1,1 1,0 1,1 1,0 1,1 1,0 1,1 1,0 0,-2 1,-1 1,-1 0,-1 1,-1 0,-2 1,-1 0,-1 1,-1 1,0 0,-2 1,-1 0,-1 1,-1 4,0 0,-1 1,-1 1,-1 0,-1 1,-1 1,-1 0,-1 1,-1 1,-1 1,-1 0,-1 1,-1 0,-1 1,-1 0,-1 1,-1 0,-1 1,-1 1,-1 0,-1 1,-1 1,-1 0,-1Z"/>
<path onmouseover="hoverPath(evt)" onmouseout="recoverPath(evt)" fill="rgb(244,243,235)" d="M  229,0l -1,0 0,2 -1,1 -1,1 0,1 -2,2 0,1 -1,1 0,1 -1,1 0,1 -1,1 0,1 -1,1 -1,1 -1,1 0,1 -1,1 -1,1 0,1 -1,1 -1,1 0,1 -1,1 -1,0 0,1 -1,1 0,2 -1,1 0,1 -1,1 -1,0 0,2 -1,1 0,1 -1,1 0,1 -1,1 0,1 1,0 1,1 1,0 1,1 1,0 1,1 0,2 1,0 1,1 1,0 1,1 1,1 1,0 1,1 1,0 1,1 1,0 1,1 3,0 1,-1 0,-1 2,-2 0,-1 1,-1 1,-1 -1,-1 0,-2 1,-1 2,0 1,-1 0,-1 1,-1 0,-1 1,-1 3,0 -1,-1 0,-2 1,-1 0,-1 1,-1 2,0 1,-1 1,-1 1,-1 2,-2 1,-1 1,-1 0,-2 1,-1 6,0 0,-19Z"/>
<path onmouseover="hoverPath(evt)" onmouseout="recoverPath(evt)" fill="rgb(242,241,231)" d="M  236,165l 0,1 1,1 0,2 1,1 0,1 1,1 0,1 1,1 0,1 1,1 0,2 1,1 0,1 1,1 0,2 1,1 0,1 1,1 0,2 1,1 0,1 1,1 0,2 1,1 0,1 1,1 0,2 1,1 0,1 1,1 0,2 1,1 0,1 1,1 0,2 1,1 0,1 1,0 0,-51 -4,0 -1,1 -2,0 -1,1 -3,0 -1,1 -2,0 -1,1 -3,0 -1,1Z"/>
<path onmouseover="hoverPath(evt)" onmouseout="recoverPath(evt)" fill="rgb(246,248,249)" d="M  0,170l 0,1 2,0 1,-1 2,0 1,-1 3,0 1,1 1,0 0,-2 1,-1 3,0 1,-1 2,0 1,-1 3,0 1,-1 4,0 1,1 0,1 1,1 0,1 1,1 0,1 1,1 0,3 -1,1 2,0 1,1 0,2 1,1 0,2 1,1 0,1 1,1 0,1 1,1 0,3 -1,1 2,0 1,1 0,2 1,1 0,1 1,1 0,1 1,1 0,3 -1,1 2,0 1,1 0,3 -1,1 2,0 1,1 0,3 -1,1 2,0 1,1 0,5 -1,1 3,0 1,1 0,2 1,1 0,2 1,1 0,1 1,1 0,2 1,1 0,2 -1,1 2,0 1,1 0,2 1,1 0,2 1,1 0,1 1,1 0,2 1,1 0,1 1,1 0,2 -1,1 2,0 1,1 0,3 2,0 0,-1 -1,-1 0,-2 -1,-1 0,-2 1,-1 -1,-1 0,-1 -2,0 -1,-1 0,-3 1,-1 -2,0 -1,-1 0,-2 -1,-1 0,-1 -1,-1 0,-3 1,-1 -2,0 -1,-1 0,-2 -1,-1 0,-1 -1,-1 0,-2 -1,-1 0,-3 1,-1 1,0 1,-1 -4,0 -1,-1 -1,-1 0,-1 -1,-1 0,-3 1,-1 -2,0 -1,-1 0,-3 1,-1 -2,0 -1,-1 0,-2 -1,-1 0,-1 -1,-1 0,-2 -1,-1 0,-1 -1,-1 0,-2 -1,-1 0,-2 1,-1 -2,0 -1,-1 0,-3 1,-1 -2,0 -1,-1 0,-3 1,-1 -2,0 -1,-1 0,-2 -1,-1 0,-1 -1,-1 0,-3 1,-1 -1,0 -1,-1 0,-2 1,-1 1,0 1,-1 3,0 1,-1 2,0 1,-1 3,0 1,-1 2,0 1,-1 2,0 1,-1 3,0 1,-1 2,0 1,-1 3,0 1,1 1,0 0,-2 1,-1 3,0 1,-1 2,0 1,-1 2,0 1,-1 2,0 1,-1 3,0 1,-1 3,0 1,-1 2,0 1,-1 2,0 1,-1 2,0 1,-1 2,0 1,-1 3,0 1,-1 4,0 1,1 0,-2 1,-1 3,0 1,-1 2,0 1,-1 3,0 1,-1 2,0 1,-1 2,0 1,-1 3,0 1,-1 2,0 1,-1 2,0 1,-1 3,0 1,-1 2,0 1,-1 2,0 1,-1 2,0 1,-1 3,0 1,-1 2,0 1,-1 2,0 1,-1 6,0 1,1 0,2 1,1 0,1 1,1 0,-2 -1,-1 0,-3 1,-1 1,-1 2,0 1,-1 2,0 1,-1 3,0 1,-1 4,0 1,-1 40,0 1,1 22,0 1,-1 6,0 1,-1 3,0 0,-1 -2,0 -2,1 -2,0 -5,1 -22,0 -6,-1 -33,0 -3,1 -3,0 -1,-1 -2,0 -1,-1 -1,-1 0,-2 -1,1 -2,0 -1,-1 -1,-1 -1,0 -1,-1 -1,-1 -1,0 -1,-1 0,-2 1,-1 1,-1 1,-1 0,-1 1,-1 0,-2 1,-1 -1,0 1,-1 1,1 0,-1 1,-1 0,-2 1,-1 1,0 0,-1 1,-1 0,-2 1,-1 1,0 0,-1 1,-1 1,-1 0,-1 1,-1 0,-1 1,-1 1,-1 0,-1 1,-1 0,-1 1,-1 1,-1 0,-1 1,-1 0,-1 1,-1 0,-1 1,-1 1,-1 0,-1 1,-1 0,-1 1,-1 0,-1 -1,0 0,1 -1,1 -1,1 0,1 -1,1 0,1 1,-1 1,-2 -3,5 -1,0 0,1 -1,1 0,1 -1,1 -1,1 0,1 -1,1 0,1 -1,1 -1,1 0,1 -1,1 0,1 -1,1 -1,1 0,1 -1,1 2,-2 1,-1 1,-2 1,-2 1,-1 1,-2 1,-2 1,-1 1,-2 -11,17 -1,1 0,1 -1,1 2,-2 -3,4 -1,1 1,0 -3,4 0,1 -1,2 -1,0 -1,1 -2,0 -1,-1 -2,0 -1,-1 0,-1 -1,-1 0,-9 1,-1 0,-2 1,-1 0,-1 1,-1 0,-1 1,-1 0,-1 1,-1 0,-1 1,-1 0,-1 1,-1 0,-1 1,-1 0,-1 1,-1 0,-1 1,-1 0,-1 1,-1 0,-2 1,-1 0,-1 1,-1 0,-2 1,-1 0,-1 1,-1 0,-1 1,-1 0,-1 1,-1 0,-1 1,-1 0,-1 1,-1 0,-1 1,-1 0,-1 1,-1 0,-1 1,-1 0,-1 1,-1 0,-2 1,-1 0,-1 1,-1 0,-1 1,-1 1,-1 1,-1 2,0 1,1 1,0 1,1 1,0 1,1 1,0 1,1 1,0 1,1 1,0 1,1 1,0 1,1 0,3 1,-1 4,0 1,1 1,1 1,0 1,1 1,0 1,1 0,2 1,0 1,1 1,-1 2,0 1,1 1,0 1,1 1,0 1,1 1,0 1,1 1,0 1,1 1,1 0,2 5,0 1,1 0,2 1,-1 2,0 1,1 1,1 0,-1 -1,-1 -1,-1 -1,0 -1,-1 -1,-1 -1,0 -1,-1 0,-4 -1,0 -1,1 -5,0 -1,-1 -1,0 -1,-1 -1,0 -1,-1 -1,0 -1,-1 -1,-1 -1,0 -1,-1 -1,0 -1,-1 0,-2 -1,0 -1,-1 -1,0 -1,-1 -1,0 -1,-1 0,-3 -1,0 0,2 -1,1 -3,0 -198,129 228,-119 1,0 1,-1 0,-1 1,-1 1,-1 2,0 -1,-1 0,-2 1,-1 1,-1 0,-1 1,-1 0,-1 1,-1 2,0 -1,-1 -2,0 0,1 -1,1 0,1 -1,1 -1,1 -2,0 1,1 0,2 -1,1 -1,1 0,1 -1,1 -1,1 0,1 -228,119 236,-108 -1,1 0,0 1,1 0,8 -1,1 0,10 -1,1 0,3 1,0 0,-2 1,-1 0,-10 1,-1 0,-10 -1,-1 -236,108 197,-124 0,1 -1,1 0,2 -1,1 -1,0 0,1 -1,1 0,2 -1,1 -1,0 0,3 -1,1 1,0 1,-2 0,-1 1,-1 1,-2 0,-1 3,-4 0,-1 1,-2 -1,0 -197,124 188,-134 -1,-1 -1,-1 -1,0 -1,-1 0,-3 1,-1 0,-1 1,-1 0,-1 1,-1 0,-1 1,-1 0,-1 1,-1 0,-1 1,-1 0,-1 1,-1 0,-1 1,-1 0,-1 1,-1 0,-2 1,-1 0,-1 1,-1 0,-1 1,-1 0,-1 1,-1 0,-1 1,-1 0,-2 -2,0 0,3 -1,1 0,2 -1,1 0,1 -1,1 0,1 -1,1 0,1 -1,1 0,1 -1,1 0,2 -1,1 0,1 -1,1 0,1 -1,1 0,1 -1,1 0,1 -1,1 0,1 -1,1 0,1 -1,1 0,1 -1,1 0,1 -1,1 0,1 -1,1 0,1 -1,1 0,1 -1,1 0,1 -1,1 0,1 -1,1 0,1 -1,1 0,1 -1,1 0,1 -1,1 0,1 -1,1 0,1 -1,1 0,1 -1,1 0,1 -1,1 0,1 -1,1 0,1 -1,1 0,2 -1,1 0,1 -1,1 0,2 -1,1 0,2 -1,1 0,1 -1,1 0,1 -1,1 0,1 -1,1 0,1 -1,1 0,1 -1,1 0,1 -1,1 0,1 -1,1 0,1 -1,1 0,1 -2,2 0,8 1,1 0,2 1,1 0,1 3,3 1,1 1,1 1,1 2,0 1,1 1,0 1,1 1,1 1,0 1,1 1,1 0,3 -1,1 -2,0 -1,1 -4,0 -1,1 -1,0 -1,1 -3,0 -1,1 -3,0 -1,1 -2,0 -1,1 -2,0 -1,1 -2,0 -1,1 -2,0 -1,1 -3,0 -1,1 -3,0 -1,-1 -1,0 0,2 -1,1 -3,0 -1,1 -2,0 -1,1 -2,0 -1,1 -3,0 -1,1 -2,0 -1,1 -2,0 -1,1 -3,0 -1,1 -2,0 -1,1 -3,0 -1,1 -2,0 -1,1 -2,0 -1,1 -2,0 -1,1 -2,0 -1,1 -3,0 -1,1 -3,0 -1,1 -2,0 -1,1 -2,0 -1,1 -3,0 -1,-1 -1,0 0,2 -1,1 -3,0 -1,1 -2,0 -1,1 -2,0 -1,1 -3,0 -1,1 -2,0 -1,1 -3,0 -1,1 -2,0 -1,1 -2,0 -1,1 -2,0 -1,1 -3,0 -1,1 -4,0 -1,-1 0,-3 1,-1 -2,0 -1,-1 0,-2 -1,-1 0,-1 -1,-1 0,-2 -1,-1 0,-1 -1,-1 0,-1 -1,-1 0,-3 1,-1 -2,0 -1,-1 0,-3 -1,-1 0,-1 -1,-1 -1,-1 0,-3 1,-1 -2,0 -1,-1 0,-2 -1,-1 0,-1 -1,-1 0,-1 -1,-1 0,-3 1,-1 -2,0 -1,-1 0,-1 -1,-1 0,-5 1,-1 -2,0 -1,-1 -1,-1 0,-2 1,-1 -2,0 -1,-1 0,-2 -1,-1 0,-2 1,-1 -2,0 0,14 4,0 1,1 0,1 1,1 0,1 1,1 0,2 1,1 0,1 1,1 0,1 1,1 0,2 1,1 0,1 1,1 0,2 1,1 0,1 1,1 0,1 1,1 0,4 1,0 1,1 0,2 1,1 0,1 1,1 0,1 1,1 0,2 1,1 0,1 1,1 0,2 1,1 0,1 1,1 0,2 1,1 0,5 -1,1 -2,0 -1,1 -2,0 -1,1 -2,0 -1,1 -3,0 -1,1 -2,0 -1,1 -3,0 -1,1 1,0 183,-133 -188,134 204,-134 1,-1 0,-1 1,-1 0,-2 1,-1 1,0 0,-1 1,-1 0,-2 1,-1 -1,0 -1,2 0,1 -2,2 -1,2 0,1 -1,2 0,1 -204,134Z"/>
<path onmouseover="hoverPath(evt)" onmouseout="recoverPath(evt)" fill="rgb(175,200,236)" d="M  96,110l -2,0 -1,1 -3,0 -1,1 -2,0 -1,1 -2,0 -1,1 -3,0 -1,1 -2,0 -1,1 -2,0 -1,1 -2,0 -1,1 -2,0 -1,1 -2,0 -1,1 -2,0 -1,1 -3,0 -1,1 -4,0 -1,1 -2,0 -1,1 -3,0 -1,1 -2,0 -1,1 -3,0 -1,1 -2,0 -1,1 -2,0 -1,1 -2,0 -1,1 -2,0 -1,1 -2,0 -1,1 -1,0 -1,1 -2,0 1,1 2,0 1,-1 3,0 1,-1 2,0 1,-1 2,0 1,-1 3,0 1,-1 2,0 1,-1 2,0 1,-1 2,0 1,-1 2,0 1,-1 3,0 1,-1 2,0 1,-1 2,0 1,-1 2,0 1,-1 3,0 1,-1 2,0 1,-1 2,0 1,-1 3,0 1,-1 2,0 1,-1 2,0 1,-1 2,0 1,-1 3,0 1,-1 3,0 1,-1 2,0 1,-1 0,-1 1,-1 1,2 0,0 1,-1 3,0 1,-1 3,0 1,-1 2,0 1,-1 2,0 1,-1 3,0 1,-1 2,0 1,-1 2,0 1,-1 2,0 1,-1 3,0 1,-1 2,0 1,-1 2,0 1,-1 8,0 1,1 3,3 1,1 1,1 1,1 1,1 0,1 1,1 1,1 0,1 1,1 1,1 1,1 0,1 1,1 1,1 1,1 0,2 1,-1 4,0 1,-1 2,0 0,-1 -1,-1 -1,0 -1,-1 -1,-1 -1,0 -1,-1 -2,0 -1,-1 -2,-2 -1,-1 -1,-1 -1,-1 -1,-1 0,-1 -1,-1 0,-2 -1,-1 0,-10 1,-1 1,-1 0,-1 1,-1 0,-1 1,-1 -3,0 -1,-1 0,-2 1,-1 0,-10 1,-1 -1,-1 0,-57 -2,0 0,43 1,1 0,15 -1,1 0,10 -1,1 0,4 -1,1 0,3 -1,1 0,1 -1,1 -1,0 -1,1 -2,0 -1,1 -2,0 -1,1 -2,0 -1,1 -3,0 -1,1 -2,0 -1,1 -2,0 -1,1 -3,0 -1,1 -3,0 -1,1 -2,0 -1,1 -2,0 -1,1 -2,0 -1,1 -1,0 -1,1 -3,0 -1,1 -2,0 -1,1 -2,0 -1,1Z"/>
<path onmouseover="hoverPath(evt)" onmouseout="recoverPath(evt)" fill="rgb(244,243,235)" d="M  148,249l -3,0 0,2 1,1 0,3 109,0 0,-33 -2,0 -1,-1 0,-2 -1,-1 -3,0 -1,-1 -2,0 0,2 -1,1 -2,0 -1,1 -2,0 -1,1 -4,0 -1,-1 -2,0 -1,1 -2,0 0,2 -1,1 -1,0 -1,1 -3,0 -1,1 -3,0 -1,-1 -1,0 -1,1 -3,0 -1,1 -2,0 0,2 -1,1 -4,0 -1,-1 -2,0 0,2 -1,1 -3,0 -1,-1 -2,0 0,2 -1,1 -3,0 -1,-1 -1,0 -1,1 -2,0 -1,1 -3,0 -1,1 -2,0 0,2 -1,1 -1,0 -1,1 -2,0 -1,1 -4,0 -1,-1 -1,0 -1,1 -3,0 0,2 -1,1 -3,0 -1,-1 -2,0 -1,1 -2,0 0,2 -1,1 -2,0 -1,1Z"/>
<path onmouseover="hoverPath(evt)" onmouseout="recoverPath(evt)" fill="rgb(243,242,233)" d="M  154,14l 0,54 1,1 0,2 -1,1 0,10 -1,1 3,0 0,-1 1,-1 0,-1 1,-1 0,-1 1,-1 0,-1 1,-1 0,-1 1,-1 0,-1 1,-1 0,-2 1,-1 0,-2 1,-1 0,-1 1,-1 0,-2 1,-1 0,-1 1,-1 0,-1 1,-1 0,-1 1,-1 0,-1 1,-1 0,-1 1,-1 0,-1 1,-1 0,-1 1,-1 0,-1 1,-1 0,-1 1,-1 0,-1 1,-1 0,-1 1,-1 0,-1 1,-1 0,-1 1,-1 0,-1 1,-1 0,-1 1,-1 0,-1 1,-1 0,-1 1,-1 0,-1 1,-1 0,-1 1,-1 0,-1 1,-1 0,-1 1,-1 0,-1 1,-1 0,-2 1,-1 0,-1 1,-1 0,-1 1,-1 0,-1 1,-1 0,-1 1,-1 0,-2 1,-1 0,-2 -1,0 0,2 -1,1 0,2 -1,1 -1,0 -1,1 -1,1 -2,0 -1,1 -1,0 -1,1 -2,0 -1,1 -3,0 -1,1 -5,0 -1,1 -15,0 -1,1Z"/>
<path onmouseover="hoverPath(evt)" onmouseout="recoverPath(evt)" fill="rgb(244,243,235)" d="M  168,129l -1,0 0,2 1,1 0,1 1,1 0,1 1,1 0,2 1,1 0,1 1,1 0,1 1,1 0,2 1,1 0,1 1,1 0,1 1,1 0,1 1,1 0,3 1,1 1,1 0,3 1,1 0,1 1,1 0,1 1,1 0,2 1,1 0,2 -1,1 2,0 1,1 0,1 3,0 1,-1 2,0 1,-1 3,0 1,-1 2,0 1,-1 3,0 1,-1 2,0 1,-1 2,0 1,-1 2,0 1,-1 2,0 1,-1 2,0 1,-1 2,0 1,-1 3,0 1,-1 2,0 1,-1 2,0 1,-1 3,0 1,-1 2,0 1,-1 3,0 1,-1 3,0 1,-1 2,0 1,-1 2,0 1,-1 3,0 0,-31 -4,0 -1,1 -2,0 -1,1 -62,0 -1,1 -4,0 -1,1 -2,0 -1,1 -1,0 -1,1 -1,1Z"/>
<path onmouseover="hoverPath(evt)" onmouseout="recoverPath(evt)" fill="rgb(175,199,234)" d="M  179,121l -2,0 -1,1 -3,0 -1,1 -2,0 -1,1 -2,0 -1,1 0,1 1,1 5,0 1,-1 0,0 1,-1 1,0 1,-1 2,0 1,-1 4,0 1,-1 62,0 1,-1 2,0 1,-1 5,0 0,-1 -2,0 -4,1 -3,0 -1,1 -24,0 -1,-1 -38,0 -1,1Z"/>
<path onmouseover="hoverPath(evt)" onmouseout="recoverPath(evt)" fill="rgb(253,253,252)" d="M  181,178l 1,0 1,-1 -1,0 1,-1 1,1 2,0 1,-1 2,0 1,-1 3,0 1,-1 3,0 1,1 1,0 0,-2 1,-1 3,0 1,-1 2,0 1,-1 3,0 1,-1 3,0 1,1 0,-2 1,-1 2,0 1,-1 2,0 1,-1 3,0 1,-1 5,0 1,1 0,1 1,1 0,2 -1,1 2,0 1,1 0,1 1,1 0,2 1,1 0,1 1,1 0,2 1,1 0,1 1,1 0,2 1,1 0,1 1,1 0,2 1,1 0,1 1,1 0,3 -1,1 2,0 1,1 0,2 1,1 0,1 1,1 0,2 1,1 0,1 1,1 0,2 1,1 0,4 -1,1 2,0 1,1 1,1 0,2 1,0 0,-8 -2,0 -1,-1 0,-1 -1,-1 0,-2 -1,-1 0,-1 -1,-1 0,-2 -1,-1 0,-1 -1,-1 0,-2 -1,-1 0,-1 -1,-1 0,-2 -1,-1 0,-1 -1,-1 0,-2 -1,-1 0,-1 -1,-1 0,-2 -1,-1 0,-1 -1,-1 0,-2 -1,-1 0,-1 -1,-1 0,-1 -1,-1 0,-1 -1,-1 0,-2 -1,-1 0,-4 1,-1 1,-1 3,0 1,-1 2,0 1,-1 3,0 1,-1 2,0 1,-1 5,0 0,-2 -2,0 -1,1 -2,0 -1,1 -2,0 -1,1 -3,0 -1,1 -3,0 -1,1 -2,0 -1,1 -3,0 -1,1 -2,0 -1,1 -2,0 -1,1 -3,0 -1,1 -2,0 -1,1 -2,0 -1,1 -2,0 -1,1 -2,0 -1,1 -2,0 -1,1 -2,0 -1,1 -3,0 -1,1 -2,0 -1,1 -3,0 -1,1 -2,0 -1,1 -5,0 -1,-1 0,1 -2,3Z"/>
<path onmouseover="hoverPath(evt)" onmouseout="recoverPath(evt)" fill="rgb(240,240,232)" d="M  0,143l 0,24 3,0 1,-1 3,0 1,-1 2,0 1,-1 3,0 1,-1 2,0 1,-1 2,0 1,-1 2,0 0,-3 -1,-1 0,-2 -1,-1 0,-1 -1,-1 0,-2 -1,-1 0,-1 -1,-1 0,-2 -1,-1 0,-1 -1,-1 0,-1 -1,-1 0,-2 -1,0 -1,-1 0,-4 -1,-1 0,-1 -1,-1 0,-1 -1,-1 0,-2 -1,-1 0,-1 -1,-1 0,-2 -1,-1 0,-1 -1,-1 0,-1 -1,-1 0,-2 -1,-1 0,-1 -1,-1 0,-1 -3,0Z"/>
<path onmouseover="hoverPath(evt)" onmouseout="recoverPath(evt)" fill="rgb(244,242,234)" d="M  0,175l 0,57 2,0 0,-2 1,-1 3,0 1,1 1,0 0,-2 1,-1 4,0 1,1 1,0 0,-2 1,-1 3,0 1,-1 2,0 1,-1 2,0 1,-1 4,0 1,1 1,0 0,-2 1,-1 3,0 1,-1 2,0 1,-1 2,0 1,-1 3,0 0,-3 -2,0 -1,-1 0,-2 1,-1 0,-1 -2,0 -1,-1 0,-2 1,-1 0,-1 -2,0 -1,-1 0,-2 1,-1 0,-1 -1,-1 0,-1 -1,-1 0,-1 -1,-1 0,-2 -2,0 -1,-1 0,-2 1,-1 0,-1 -1,-1 0,-1 -1,-1 0,-1 -1,-1 0,-2 -1,-1 0,-2 -2,0 -1,-1 0,-2 1,-1 0,-1 -1,-1 0,-1 -1,-1 0,-1 -1,-1 0,-1 -2,0 -1,1 -3,0 -1,1 -2,0 -1,1 -3,0 0,2 -1,1 -3,0 -1,-1 -1,0 -1,1 -2,0 -1,1 -3,0Z"/>
</svg>