<svg width="256" height="256" xmlns="http://www.w3.org/2000/svg"><script> 
var tempColor;
function hoverPath(evt){
obj = evt.target;
tempColor = obj.getAttribute("fill");
obj.setAttribute("fill","red");
//alert(tempColor);
//obj.setAttribute("stroke","red");}
function recoverPath(evt){
obj = evt.target;
obj.setAttribute("fill", tempColor);
//obj.setAttribute("stroke", tempColor);
}</script><path onmouseover="hoverPath(evt)" onmouseout="recoverPath(evt)" fill="rgb(241,240,229)" d="M  31,27l 0,0 -1,1 1,1 0,3 1,1 0,4 1,1 0,3 1,1 0,3 1,0 1,1 0,1 26,0 1,-1 10,0 0,-1 1,-1 0,-2 -1,-1 0,-13 -1,-1 0,-3 -15,0 -1,1 -17,0 -1,1 -6,0 -1,1Z"/>
<path onmouseover="hoverPath(evt)" onmouseout="recoverPath(evt)" fill="rgb(243,241,233)" d="M  164,74l 0,0 -1,-1 0,-2 -3,0 -1,1 -1,0 0,2 -1,1 1,1 0,13 1,1 0,10 2,0 1,1 0,5 1,1 0,3 -1,1 0,2 1,1 0,3 1,1 0,2 1,1 0,3 -1,1 -1,1 -2,0 -1,1 -5,0 -1,1 1,0 6,-1 3,0 1,1 0,4 2,0 1,1 0,4 1,1 0,3 1,1 0,1 1,1 0,2 1,1 0,3 -1,1 0,3 1,1 0,2 1,1 0,4 -1,1 0,2 1,1 0,1 2,0 1,1 0,2 1,1 0,2 1,1 0,1 1,1 1,0 1,-1 4,0 1,1 2,0 1,-1 2,0 0,-2 1,-1 3,0 1,-1 3,0 1,-1 1,0 0,-3 -1,-1 0,-3 -1,-1 0,-1 -1,-1 0,-2 -1,-1 0,-2 -1,-1 0,-1 -1,-1 0,-1 -1,-1 0,-2 -1,-1 0,-1 -1,-1 0,-2 -1,-1 0,-2 -1,-1 0,-2 -1,-1 0,-2 -1,-1 0,-2 -1,-1 0,-2 -1,-1 0,-2 -1,-1 0,-1 -1,-1 0,-2 -1,-1 0,-3 -1,-1 0,-1 -1,-1 0,-2 -1,-1 0,-2 -1,-1 0,-2 -1,-1 0,-2 -1,-1 0,-2 -1,-1 0,-2 -1,-1 0,-2 -1,-1 0,-2 -1,-1 0,-1 -1,-1 0,-3 -1,-1 0,-1 -1,-1 0,-2 -1,-1 0,-2 -1,-1 0,-1Z"/>
<path onmouseover="hoverPath(evt)" onmouseout="recoverPath(evt)" fill="rgb(244,243,235)" d="M  183,231l 0,0 -1,1 0,2 1,1 0,2 1,1 0,1 1,1 0,2 1,1 0,1 1,1 0,2 1,1 0,1 1,1 0,2 1,1 0,2 40,0 0,-6 -1,-1 0,-2 -1,-1 0,-2 -1,-1 0,-2 -1,-1 0,-2 -1,-1 0,-2 -1,-1 0,-2 -1,-1 0,-2 -1,-1 0,-2 -1,-1 0,-2 -1,-1 0,-2 -1,-1 0,-2 -1,-1 0,-2 -1,-1 0,-3 -1,-1 0,-2 -1,-1 0,-2 -1,-1 0,-2 -1,-1 0,-2 -1,-1 0,-2 -1,-1 0,-2 -1,-1 0,-2 -1,-1 0,-2 -1,-1 0,-2 -1,-1 0,-2 -1,-1 0,-2 -1,-1 0,-2 -1,0 -1,1 -3,0 -1,-1 -2,0 -1,1 -3,0 0,2 -1,1 -2,0 -1,1 -4,0 -1,-1 -2,0 -1,1 -3,0 -1,-1 -1,-1 0,3 -1,1 0,2 1,1 0,5 1,1 0,1 1,1 0,1 1,1 0,1 1,1 0,1 1,1 0,2 1,1 0,1 1,1 0,2 1,1 0,1 1,1 0,1 1,1 0,1 1,1 0,1 1,1 0,1 1,1 0,8 -1,1 0,1 -1,1 0,1 -4,4Z"/>
<path onmouseover="hoverPath(evt)" onmouseout="recoverPath(evt)" fill="rgb(242,242,232)" d="M  0,1l 0,25 2,0 1,-1 4,0 1,-1 5,0 1,-1 4,0 1,-1 3,0 0,-1 1,-1 0,-2 -1,-1 0,-4 -1,-1 0,-3 -1,-1 0,-3 -1,-1 0,-4 -18,0 -1,1Z"/>
<path onmouseover="hoverPath(evt)" onmouseout="recoverPath(evt)" fill="rgb(240,240,234)" d="M  0,33l 0,43 2,0 1,1 1,1 1,0 1,1 1,1 1,1 1,1 1,0 1,1 0,1 1,0 1,1 1,1 1,1 1,1 1,0 1,1 0,1 1,0 1,1 1,1 1,1 2,2 1,1 1,1 1,0 1,1 0,1 1,0 1,1 1,1 1,1 1,1 1,1 1,1 1,1 1,1 1,1 1,1 1,1 1,1 1,1 0,1 1,1 1,1 0,1 1,1 0,2 1,1 0,3 -1,1 0,2 -1,1 0,1 -1,1 0,2 -1,1 0,1 1,1 0,7 1,1 0,8 1,1 0,6 1,1 9,0 1,-1 8,0 1,-1 -4,0 -1,-1 0,-3 -1,-1 0,-7 -2,0 -1,-1 0,-7 -1,-1 0,-4 -1,-1 0,-5 -1,-1 0,-2 -1,-1 0,-3 -1,-1 0,-4 -1,-1 0,-3 -1,-1 0,-4 -1,-1 0,-3 -1,-1 0,-3 -1,-1 0,-3 -1,-1 0,-4 -1,-1 0,-4 -1,-1 0,-4 -1,-1 0,-4 -1,-1 0,-3 -1,-1 0,-4 -1,-1 0,-3 -1,-1 0,-3 -1,-1 0,-1 -1,0 -1,-1 -2,0 -1,-1 -1,-1 -1,-1 0,-1 -1,-1 0,-2 -1,-1 0,-3 -1,-1 0,-4 -1,-1 0,-4 -1,-1 0,-2 -1,-1 -3,0 -1,1 -4,0 -1,1 -5,0 -1,1 -4,0 -1,1 -4,0Z"/>
<path onmouseover="hoverPath(evt)" onmouseout="recoverPath(evt)" fill="rgb(242,241,232)" d="M  25,0l -1,0 0,2 1,1 0,3 1,1 0,3 1,1 0,3 1,1 0,3 1,1 0,1 1,1 5,0 1,-1 17,0 1,-1 13,0 1,-1 3,0 1,-1 0,-1 -1,-1 0,-9 -1,-1 0,-5Z"/>
<path onmouseover="hoverPath(evt)" onmouseout="recoverPath(evt)" fill="rgb(242,241,231)" d="M  77,0l -2,0 0,1 1,1 0,10 1,1 0,4 1,1 36,0 1,1 3,0 1,-1 0,-4 -1,-1 0,-13Z"/>
<path onmouseover="hoverPath(evt)" onmouseout="recoverPath(evt)" fill="rgb(241,240,229)" d="M  78,25l 0,13 1,1 0,6 1,0 1,1 1,-1 11,0 1,1 7,0 1,1 7,0 1,1 6,0 1,1 2,0 1,-1 0,-20 -1,-1 0,-2 -1,0 -1,-1 -5,0 -1,-1 -33,0Z"/>
<path onmouseover="hoverPath(evt)" onmouseout="recoverPath(evt)" fill="rgb(243,242,234)" d="M  124,0l -1,0 0,10 1,1 0,8 1,1 0,28 1,1 0,4 -1,1 0,1 1,1 0,16 -1,1 0,38 1,1 0,8 1,1 0,11 1,1 0,9 1,1 0,1 1,0 1,1 7,0 1,1 7,0 1,1 1,0 1,1 3,0 1,-1 1,0 1,-1 1,0 1,-1 5,0 1,-1 2,0 0,-6 1,-1 0,-3 -2,0 -1,-1 0,-4 -6,0 -1,1 -5,0 -1,-1 0,-2 1,-1 2,0 1,-1 5,0 1,-1 2,0 1,-1 0,-1 -1,-1 0,-2 -1,-1 0,-3 -1,-1 0,-4 1,-1 0,-1 -1,-1 0,-5 -2,0 -1,-1 0,-10 -1,-1 0,-13 -1,-1 0,-2 1,-1 0,-2 1,-1 1,0 1,-1 5,0 1,1 4,0 0,-2 -1,-1 0,-2 -1,-1 0,-1 -1,-1 0,-2 -1,-1 0,-2 -1,-1 0,-2 -1,-1 0,-2 -1,-1 0,-2 -1,-1 0,-1 -1,-1 0,-2 -1,-1 0,-2 -1,-1 0,-2 -1,-1 0,-2 -1,-1 0,-2 -1,-1 0,-1 -1,-1 0,-2 -1,-1 0,-2 -1,-1 0,-2 -1,-1 0,-2 -1,-1 0,-1 -1,-1 0,-2 -1,-1 0,-2 -1,-1 0,-2 -1,-1 0,-2 -1,-1 0,-2Z"/>
<path onmouseover="hoverPath(evt)" onmouseout="recoverPath(evt)" fill="rgb(235,240,244)" d="M  144,241l 0,0 -1,-1 -1,1 -2,0 -1,-1 -3,0 -1,1 -7,0 -1,1 -5,0 0,1 6,0 1,-1 6,0 1,-1 2,0 1,1 1,0 1,1 0,2 1,1 0,4 1,1 0,4 4,0 0,-5 -1,-1 0,-6 1,-1 1,-1 1,-1 1,-1 -2,1 0,0 -1,1Z"/>
<path onmouseover="hoverPath(evt)" onmouseout="recoverPath(evt)" fill="rgb(172,198,237)" d="M  147,1l 0,0 1,1 0,2 1,1 0,2 1,1 0,2 1,1 0,2 1,1 0,1 1,1 0,2 1,1 0,2 1,1 0,2 1,1 0,2 1,1 0,1 1,1 0,2 1,1 0,2 1,1 0,2 1,1 0,2 1,1 0,2 1,1 0,1 1,1 0,2 1,1 0,2 1,1 0,2 1,1 0,2 1,1 0,2 1,1 0,1 1,1 0,2 1,1 0,3 1,1 1,1 0,2 1,1 0,2 1,1 0,2 1,1 0,2 1,1 0,1 1,1 0,2 1,1 0,2 1,1 0,2 1,1 0,2 1,1 0,2 1,1 0,2 1,1 0,2 1,1 0,2 1,1 0,2 1,1 0,2 1,1 0,1 1,1 0,2 1,1 0,2 1,1 0,2 1,1 0,2 1,1 0,2 1,1 0,2 1,1 0,2 1,1 0,2 1,1 0,2 1,1 0,1 1,1 0,1 1,1 0,1 1,1 0,2 1,1 0,2 1,1 0,2 1,1 0,1 1,1 0,3 1,1 0,5 1,1 0,2 1,1 0,2 1,1 0,2 1,1 0,2 1,1 0,2 1,1 0,2 1,1 0,2 1,1 0,2 1,1 0,2 1,1 0,2 1,1 0,2 1,1 0,2 1,1 0,3 1,1 0,2 1,1 0,2 1,1 0,2 1,1 0,2 1,1 0,2 1,1 0,2 1,1 0,2 1,1 0,2 1,1 0,2 1,1 0,2 1,1 0,2 1,1 0,2 1,1 0,7 4,0 0,-4 -1,-1 0,-4 -1,-1 0,-2 -1,-1 0,-1 -1,-1 0,-2 -1,-1 0,-2 -1,-1 0,-2 -1,-1 0,-3 -1,-1 0,-2 -1,-1 0,-2 -1,-1 0,-2 -1,-1 0,-2 -1,-1 0,-2 -1,-1 0,-2 -1,-1 0,-2 -1,-1 0,-2 -1,-1 0,-2 -1,-1 0,-2 -1,-1 0,-2 -1,-1 0,-3 -1,-1 0,-2 -1,-1 0,-2 -1,-1 0,-2 -1,-1 0,-2 -1,-1 0,-2 -1,-1 0,-2 -1,-1 0,-2 -1,-1 0,-2 -1,-1 0,-2 -1,-1 0,-2 -1,-1 0,-2 -1,-1 0,-2 -1,-1 0,-2 -1,-1 0,-2 -1,-1 0,-2 -1,-1 0,-2 -1,-1 0,-2 -1,-1 0,-2 -1,-1 0,-2 -1,-1 0,-2 -1,-1 0,-2 -1,-1 0,-1 -1,-1 0,-2 -1,-1 0,-2 -1,-1 0,-2 -1,-1 0,-2 -1,-1 0,-2 -1,-1 0,-2 -1,-1 0,-2 -1,-1 0,-2 -1,-1 0,-2 -1,-1 0,-2 -1,-1 0,-2 -1,-1 0,-2 -1,-1 0,-2 -1,-1 0,-2 -1,-1 0,-2 -1,-1 0,-2 -1,-1 0,-2 -1,-1 0,-2 -1,-1 0,-2 -1,-1 0,-2 -1,-1 0,-2 -1,-1 0,-2 -1,-1 0,-2 -1,-1 0,-1 -1,-1 0,-2 -1,-1 0,-2 -1,-1 0,-2 -1,-1 0,-2 -1,-1 0,-2 -1,-1 0,-1 -1,-1 0,-2 -1,-1 0,-2 -1,-1 0,-2 -1,-1 0,-2 -1,-1 0,-2 -1,-1 0,-1 -1,-1 0,-2 -1,-1 0,-1 -1,-1 0,-4 -1,-1 0,-1 -1,-1 0,-2 -1,-1 0,-2 -1,-1 0,-2 -4,0 -1,1Z"/>
<path onmouseover="hoverPath(evt)" onmouseout="recoverPath(evt)" fill="rgb(243,242,234)" d="M  205,0l -2,0 0,3 -1,1 0,4 1,1 0,5 1,1 0,6 1,1 0,5 2,0 1,1 0,6 1,1 0,4 1,1 0,3 1,1 0,1 1,1 0,1 9,0 1,1 6,0 0,-2 1,-1 6,0 1,-1 8,0 0,-1 1,-1 0,-1 1,-1 2,0 1,1 0,1 1,1 2,0 1,-1 2,0 0,-42Z"/>
<path onmouseover="hoverPath(evt)" onmouseout="recoverPath(evt)" fill="rgb(243,242,233)" d="M  59,130l 0,5 -1,1 0,6 2,0 1,1 0,7 1,1 0,3 9,0 1,-1 5,0 1,-1 6,0 1,-1 6,0 1,-1 7,0 1,-1 23,0 0,-2 1,-1 -1,-1 0,-9 -1,-1 0,-10 -1,-1 0,-1 -1,-1 -1,1 -5,0 -1,1 -18,0 -1,1 -11,0 -1,1 -9,0 -1,1 -7,0 -1,1 -5,0Z"/>
<path onmouseover="hoverPath(evt)" onmouseout="recoverPath(evt)" fill="rgb(241,239,228)" d="M  97,92l 19,0 1,-1 2,0 0,-1 1,-1 0,-21 1,-1 0,-6 -1,-1 0,-5 -1,0 -1,-1 -3,0 -1,-1 -7,0 -1,-1 -6,0 -1,-1 -5,0 0,2 1,1 0,10 -1,1 -4,0 -1,1 -3,0 -1,1 -1,0 0,7 1,1 0,1 8,0 1,1 0,2 -1,1 -7,0 0,1 -1,1 0,1 1,1 0,0 1,1 2,0 1,1 0,2 -1,1 -2,0 -1,1 0,2 1,1 9,0 1,-1Z"/>
<path onmouseover="hoverPath(evt)" onmouseout="recoverPath(evt)" fill="rgb(188,205,221)" d="M  149,186l 0,1 1,1 0,4 1,1 0,4 1,1 0,3 1,1 0,-4 5,0 -5,-1 0,0 -1,-1 0,1 -1,-5 -1,-5 -1,-1 -1,-7 0,-1 -1,-1 0,-5 -1,-1 0,-8 -1,-1 0,-8 -1,-1 0,-1 -2,0 -1,-1 -12,0 -1,-1 -1,0 -1,-1 -1,-1 0,2 -1,1 4,0 13,1 2,1 0,2 1,1 0,7 1,1 0,-1 3,16 1,7Z"/>
<path onmouseover="hoverPath(evt)" onmouseout="recoverPath(evt)" fill="rgb(241,240,233)" d="M  150,242l 0,0 -1,1 -1,1 0,4 1,1 0,6 4,0 0,-2 1,-1 13,0 1,-1 9,0 1,-1 4,0 0,-2 -1,-1 0,-1 -1,-1 0,-2 -1,-1 0,-2 -1,-1 0,-1 -1,-1 0,-2 -1,-1 0,-2 -1,-1 0,-1 -1,-1 0,-2 -1,-1 0,-2 -1,-1 0,-1 -1,-1 0,-2 -1,-1 0,-1 -1,-1 0,-2 -1,-1 0,-1 -1,-1 0,-2 -1,-1 0,-2 -1,-1 0,-1 -1,-1 0,-2 -1,-1 0,-1 -2,0 -1,-1 0,1 -1,1 -5,0 1,1 0,3 1,1 0,2 1,1 0,3 1,1 0,2 1,1 0,4 -1,1 0,2 1,1 0,10 -1,1 -1,1 -1,0 -1,1 -1,1 -1,0 -1,1 0,2 -2,2Z"/>
<path onmouseover="hoverPath(evt)" onmouseout="recoverPath(evt)" fill="rgb(242,241,231)" d="M  151,153l 0,0 -1,1 0,1 1,1 0,7 1,1 0,7 1,1 0,5 1,1 0,4 1,1 0,2 1,1 0,4 1,1 0,1 3,0 1,-1 5,0 1,-1 3,0 1,-1 1,0 0,-6 1,-1 0,-3 1,-1 0,-4 1,-1 0,-1 -1,-1 0,-2 -2,0 -1,-1 0,-1 -1,-1 0,-4 1,-1 0,-2 -1,-1 0,-2 -1,-1 0,-5 1,-1 0,-1 -1,-1 0,-2 -1,-1 0,-1 -1,-1 0,3 -1,1 -2,0 -1,1 -5,0 -1,1 -1,0 -1,1 -1,0 0,2 -1,1 -1,0 -1,1Z"/>
<path onmouseover="hoverPath(evt)" onmouseout="recoverPath(evt)" fill="rgb(244,242,234)" d="M  160,18l 0,1 1,1 0,1 1,1 0,2 1,1 0,2 1,1 0,2 1,1 0,2 1,1 0,2 1,1 0,1 1,1 0,2 1,1 0,2 1,1 0,2 1,1 0,2 1,1 0,2 1,1 0,1 1,1 0,2 1,1 0,2 1,1 0,2 1,1 0,2 1,1 0,2 1,1 0,2 1,1 0,2 1,1 0,2 1,1 0,2 1,1 0,2 1,1 0,2 1,1 0,2 1,1 0,2 1,1 0,2 1,1 0,2 1,1 0,2 1,1 0,2 1,1 0,2 1,1 0,2 1,1 0,2 1,1 0,2 1,1 0,2 1,1 0,2 1,1 0,1 1,1 0,2 1,1 0,2 1,1 0,2 1,1 0,2 1,1 0,2 1,1 0,2 1,1 0,2 1,1 0,2 1,1 0,2 1,1 0,2 1,1 0,2 1,1 0,2 1,1 0,2 1,1 0,2 1,1 0,2 1,1 0,2 1,1 0,2 1,1 0,2 1,1 0,2 1,1 0,2 1,1 0,2 1,1 0,3 1,1 0,2 1,1 0,2 1,1 0,2 1,1 0,2 1,1 0,2 1,1 0,2 1,1 0,2 1,1 0,2 1,1 0,2 1,1 0,2 1,1 0,2 1,1 0,3 1,1 0,2 1,1 0,2 1,1 0,2 1,1 0,1 1,1 0,2 1,1 0,4 1,1 0,5 17,0 0,-107 -6,0 -1,1 -16,0 -1,-1 -3,0 -1,-1 -1,-1 0,-5 -1,-1 0,-5 -1,-1 0,-5 -1,-1 0,-5 -1,-1 0,-5 -2,0 -1,-1 0,-4 -1,-1 0,-5 -1,-1 0,-5 -1,-1 0,-4 -1,-1 0,-5 -1,-1 0,-5 -1,-1 0,-5 -1,-1 0,-6 -1,-1 0,-4 -1,-1 0,-7 1,-1 0,-5 1,-1 2,0 1,-1 -4,0 -1,-1 0,-1 -1,-1 0,-1 -1,-1 0,-3 -1,-1 0,-4 -1,-1 0,-6 -2,0 -1,-1 0,-5 -1,-1 0,-6 -1,-1 0,-5 -1,-1 0,-6 1,-1 0,-2 -47,0 0,1 1,1 0,2 1,1 0,2 1,1 0,1 1,1 0,4 1,1 0,1 1,1Z"/>
<path onmouseover="hoverPath(evt)" onmouseout="recoverPath(evt)" fill="rgb(237,236,220)" d="M  182,214l 0,0 -1,-1 0,-1 -1,-1 0,-2 -1,-1 0,-1 -1,-1 0,-1 -1,-1 0,-2 -1,-1 0,-1 -1,-1 0,-2 -1,-1 0,-1 -4,0 -1,1 -1,0 0,2 1,1 0,1 1,1 0,2 1,1 0,1 1,1 0,2 1,1 0,1 1,1 0,2 1,1 0,1 1,1 0,2 1,1 0,2 1,1 0,1 1,1 0,1 2,0 1,-1 0,-1 1,-1 0,-1 1,-1 0,-2 -1,-1 0,-1 -1,-1Z"/>
<path onmouseover="hoverPath(evt)" onmouseout="recoverPath(evt)" fill="rgb(244,242,234)" d="M  213,54l 0,3 -1,1 0,5 1,1 0,4 1,1 0,6 1,1 0,5 1,1 0,5 1,1 0,5 1,1 0,4 1,1 0,5 1,1 0,5 1,1 0,4 2,0 1,1 0,5 1,1 0,5 1,1 0,5 1,1 0,5 1,1 0,5 1,1 3,0 1,1 14,0 1,-1 7,0 0,-102 -1,0 -1,1 -4,0 -1,-1 -1,-1 -1,1 0,1 -1,1 -8,0 -1,1 -6,0 0,2 -1,1 -7,0 -1,1 -5,0 -1,1 -2,0Z"/>
<path onmouseover="hoverPath(evt)" onmouseout="recoverPath(evt)" fill="rgb(244,243,236)" d="M  0,79l 0,176 141,0 0,-3 -1,-1 0,-4 -1,-1 0,-2 -1,0 -1,-1 -1,1 -6,0 -1,1 -8,0 -1,-1 0,-3 1,-1 5,0 1,-1 7,0 1,-1 5,0 1,1 1,-1 2,0 1,1 1,0 1,-1 1,0 1,-1 1,0 1,-1 1,-1 1,0 1,-1 1,-1 1,0 1,-1 0,-8 -1,-1 0,-4 1,-1 0,-2 -1,-1 0,-2 -1,-1 0,-3 -1,-1 0,-2 -2,0 -1,-1 0,-2 -1,-1 0,-3 -1,-1 0,-4 -1,-1 0,-4 -1,-1 0,-2 -1,-1 0,-5 -1,-1 0,-3 -1,-1 0,-5 -1,-1 0,-4 -1,-1 0,-7 -1,-1 0,-2 -1,0 -1,-1 -39,0 -1,-1 -6,0 -1,1 -6,0 -1,1 -6,0 -1,1 -5,0 0,2 -1,1 -6,0 -1,1 -8,0 -1,1 -11,0 -1,-1 -1,-1 0,-6 -1,-1 0,-8 -1,-1 0,-7 -1,-1 0,-3 1,-1 0,-2 1,-1 0,-1 1,-1 0,-2 1,-1 0,-1 -1,-1 0,-2 -1,-1 0,-1 -1,-1 -1,-1 0,-1 -1,-1 -1,-1 -1,-1 -1,-1 -1,-1 -1,-1 -1,-1 -1,-1 -1,-1 -1,-1 -1,-1 -1,-1 -1,0 -1,-1 0,-1 -1,0 -2,-2 -1,-1 -1,-1 -1,-1 -2,-2 -1,0 -1,-1 0,-1 -1,0 -1,-1 -1,-1 -1,-1 -1,-1 -1,0 -1,-1 0,-1 -1,0 -1,-1 -1,-1 -1,-1 -1,-1 -1,0 -1,-1 -1,-1 -1,1Z"/>
<path onmouseover="hoverPath(evt)" onmouseout="recoverPath(evt)" fill="rgb(242,241,232)" d="M  43,55l 0,1 1,1 0,3 1,1 0,3 1,1 0,4 1,1 0,4 1,1 0,4 1,1 0,3 1,1 0,3 1,1 0,4 1,1 0,4 1,1 0,3 1,1 0,4 1,1 0,3 1,1 0,3 1,1 0,3 1,1 0,3 1,0 1,1 1,-1 8,0 1,-1 8,0 1,-1 9,0 -3,-1 0,-6 -1,-1 0,-9 -1,-1 0,-5 -1,-1 0,-8 -1,-1 0,-9 -1,-1 0,-9 -1,-1 0,-7 -1,-1 0,-4 1,-1 1,-1 5,0 1,-1 6,0 0,-1 -1,0 -1,-1 -4,0 -1,1 -18,0 -1,1 -21,0 -1,1 -1,0Z"/>
<path onmouseover="hoverPath(evt)" onmouseout="recoverPath(evt)" fill="rgb(240,238,226)" d="M  99,97l -11,0 0,1 -1,1 0,3 -1,1 0,8 1,1 0,6 2,0 1,1 20,0 1,-1 6,0 1,-1 2,0 0,-1 1,-1 -1,-1 0,-10 -1,-1 0,-4 1,-1 -1,-1 0,-1 -19,0 -1,1Z"/>
<path onmouseover="hoverPath(evt)" onmouseout="recoverPath(evt)" fill="rgb(253,253,252)" d="M  182,227l -4,0 -1,-1 0,-1 -1,-1 0,-1 -1,-1 0,-2 -1,-1 0,-2 -1,-1 0,-1 -1,-1 0,-2 -1,-1 0,-1 -1,-1 0,-2 -1,-1 0,-1 -1,-1 0,-2 -1,-1 0,-1 -1,-1 0,-4 1,-1 1,0 1,-1 6,0 1,1 0,-2 -1,-1 0,-1 -1,-1 0,1 -1,1 -1,0 -1,1 -3,0 -1,1 -5,0 -1,1 -5,0 -1,-1 0,-1 -1,-1 0,-4 -1,-1 0,-2 -1,-1 0,-4 -1,-1 0,-5 -1,-1 0,-7 -1,-1 0,-7 -1,-1 0,-3 1,-1 1,-1 1,-1 -3,0 -1,-1 -1,0 -1,-1 -7,0 -1,-1 -7,0 -1,-1 -1,0 -1,-1 0,-1 -1,-1 0,-9 -1,-1 0,-11 -1,-1 0,-8 -1,-1 0,-40 1,-1 0,-14 -1,-1 0,-3 1,-1 0,-2 -1,-1 0,-28 -1,-1 0,-8 -1,-1 0,-11 -1,0 0,12 1,1 0,6 -1,1 -1,1 -5,0 -1,-1 -36,0 -1,-1 -1,-1 0,-4 -1,-1 0,-10 -1,-1 0,-2 -1,0 0,4 1,1 0,9 1,1 0,3 -1,1 -1,1 -3,0 -1,1 -13,0 -1,1 -17,0 -1,1 -7,0 -1,-1 -1,-1 0,-1 -1,-1 0,-3 -1,-1 0,-3 -1,-1 0,-3 -1,-1 0,-3 -1,-1 0,-3 -1,0 0,3 1,1 0,3 1,1 0,3 1,1 0,4 1,1 0,4 -1,1 0,1 -1,1 -3,0 -1,1 -4,0 -1,1 -5,0 -1,1 -4,0 -1,1 -3,0 0,1 3,0 1,-1 4,0 1,-1 5,0 1,-1 4,0 1,-1 5,0 1,1 1,1 0,2 1,1 0,4 1,1 0,4 1,1 0,3 1,1 0,2 1,1 0,1 1,1 1,1 2,0 1,1 1,0 1,1 0,1 1,1 0,3 1,1 0,3 1,1 0,4 1,1 0,3 1,1 0,4 1,1 0,4 1,1 0,4 1,1 0,4 1,1 0,3 1,1 0,3 1,1 0,3 1,1 0,4 1,1 0,3 1,1 0,4 1,1 0,3 1,1 0,2 1,1 0,5 1,1 0,-3 1,-1 5,0 1,-1 7,0 1,-1 9,0 1,-1 11,0 1,-1 18,0 1,-1 5,0 1,-1 2,0 1,1 1,1 0,1 1,1 0,10 1,1 0,9 1,1 0,1 1,1 1,1 1,0 1,1 12,0 1,1 2,0 1,1 0,1 1,1 0,8 1,1 0,8 1,1 0,5 1,1 0,4 1,1 0,3 1,1 0,4 1,1 0,2 1,1 0,1 1,1 3,0 1,-1 2,0 1,1 0,1 2,0 1,1 0,1 1,1 0,2 1,1 0,1 1,1 0,2 1,1 0,2 1,1 0,1 1,1 0,2 1,1 0,1 1,1 0,2 1,1 0,1 1,1 0,2 1,1 0,2 1,1 0,1 1,1 0,2 1,1 0,2 1,1 0,1 1,1 0,2 1,1 0,2 1,1 0,1 1,1 0,4 -1,1 -4,0 -1,1 -9,0 -1,1 -13,0 0,1 33,0 0,-1 -1,-1 0,-2 -1,-1 0,-1 -1,-1 0,-2 -1,-1 0,-1 -1,-1 0,-2 -1,-1 0,-1 -1,-1 0,-2 -1,-1 0,-4 1,-1 0,-1 1,-1 0,-1 -61,-108 -2,0 -1,1 -6,0 -1,1 -21,0 -1,1 -9,0 -1,1 -8,0 -1,1 -8,0 -1,1 -2,0 -1,-1 -1,0 -1,-1 0,-3 -1,-1 0,-3 -1,-1 0,-3 -1,-1 0,-3 -1,-1 0,-4 -1,-1 0,-3 -1,-1 0,-4 -1,-1 0,-4 -1,-1 0,-3 -1,-1 0,-3 -1,-1 0,-4 -1,-1 0,-4 -1,-1 0,-4 -1,-1 0,-3 -1,-1 0,-3 -1,-1 0,-5 1,-1 1,0 1,-1 21,0 1,-1 18,0 1,-1 6,0 1,1 8,0 1,1 6,0 1,1 7,0 1,1 3,0 1,1 1,0 1,1 0,5 1,1 0,8 -1,1 0,21 -1,1 0,1 -1,1 -2,0 -1,1 -19,0 -1,1 -11,0 -1,-1 -1,-1 0,2 1,1 0,5 1,-4 0,-1 -1,-1 0,0 -1,-3 0,-3 1,-1 1,-1 2,0 -3,-1 0,0 -1,-1 -1,-1 0,-3 1,-1 0,-1 1,-1 -1,0 -1,-1 0,-1 -1,-1 0,-9 1,-1 1,0 1,-1 3,0 1,-1 4,0 0,-8 -1,-1 -5,0 -1,1 -5,0 -1,1 0,2 1,1 0,7 40,53 61,108 -100,-151 1,2 0,2 3,-2 6,0 -9,7 0,1 1,1 0,1 1,-1 0,0 -1,-1 0,0 14,9 0,0 20,-1 2,0 1,1 0,1 1,1 0,2 -1,1 0,2 1,1 0,10 1,1 0,2 -1,1 0,1 1,-5 0,0 -41,-37 100,151 -62,-176 -4,0 -1,-1 -6,0 -1,-1 -7,0 -1,-1 -7,0 -1,-1 -9,0 -1,1 -2,0 -1,-1 -1,0 -1,-1 0,-6 -1,-1 0,-17 1,-1 35,0 1,1 5,0 1,1 1,0 1,1 0,2 1,1 0,22 -1,1 -1,1 62,176 -107,-200 0,13 1,1 0,4 -1,1 0,1 -1,1 -10,0 -1,1 -28,0 -1,-1 0,-1 -1,0 -1,-1 0,-3 -1,-1 0,-3 -1,-1 0,-4 -1,-1 0,-3 -1,-1 0,-2 1,-1 0,-1 1,-1 7,0 1,-1 17,0 1,-1 17,0 1,1 0,3 1,1 107,200 -5,-33 -1,1 0,0 1,1 0,2 1,1 0,1 1,1 0,2 1,1 0,1 1,1 0,1 1,1 0,2 1,1 0,1 1,1 0,1 1,1 0,1 1,1 0,4 -1,1 0,1 -1,1 0,1 -1,1 1,1 0,0 1,-1 0,-1 1,-1 0,-1 1,-1 0,-6 -1,-1 0,-1 -1,-1 0,-1 -1,-1 0,-1 -1,-1 0,-1 -1,-1 0,-1 -1,-1 0,-2 -1,-1 0,-1 -1,-1 0,-2 -1,-1 0,-1 -1,-1 0,-1 5,33Z"/>
<path onmouseover="hoverPath(evt)" onmouseout="recoverPath(evt)" fill="rgb(253,253,253)" d="M  199,155l 0,1 1,1 0,2 1,1 0,1 1,1 0,3 1,1 0,5 -1,1 -1,0 3,-1 0,-4 -1,-2 0,-2 -1,-2 -1,-2 0,-1 -1,-2 -1,-1 -2,-5 1,0 -1,-1 0,-1 -1,-1 0,-1 -1,-1 0,-2 -1,-1 0,-2 -1,-1 0,-2 -1,-1 0,-2 -1,-1 0,-2 -1,-1 0,-2 -1,-1 0,-2 -1,-1 0,-2 -1,-1 0,-2 -1,-1 0,-1 -1,-1 0,-2 -1,-1 0,-2 -1,-1 0,-2 -1,-1 0,-2 -1,-1 0,-2 -1,-1 0,-2 -1,-1 0,-2 -1,-1 0,-2 -1,-1 0,-2 -1,-1 0,-2 -1,-1 0,-1 -1,-1 0,-2 -1,-1 0,-2 -1,-1 0,-2 -1,-1 0,-2 -1,-1 -5,0 5,1 0,1 1,2 0,1 1,2 0,1 1,2 1,3 0,1 1,1 0,1 1,2 0,1 1,2 0,1 1,2 0,1 1,2 0,1 1,2 0,1 1,2 0,1 1,2 0,1 1,2 0,1 1,2 1,3 0,1 1,1 0,2 1,1 0,1 1,2 0,1 1,2 0,1 1,2 0,1 1,2 0,1 1,2 0,1 1,2 0,1 1,2 0,1 1,2 1,2 0,1 1,1 2,5Z"/>
</svg>