<svg width="256" height="256" xmlns="http://www.w3.org/2000/svg"><script> 
var tempColor;
function hoverPath(evt){
obj = evt.target;
tempColor = obj.getAttribute("fill");
obj.setAttribute("fill","red");
//alert(tempColor);
//obj.setAttribute("stroke","red");}
function recoverPath(evt){
obj = evt.target;
obj.setAttribute("fill", tempColor);
//obj.setAttribute("stroke", tempColor);
}</script><path onmouseover="hoverPath(evt)" onmouseout="recoverPath(evt)" fill="rgb(187,214,143)" d="M  64,0l -5,0 0,1 1,1 0,1 1,0 1,-1 2,0 1,1 1,1 0,2 1,1 0,2 1,1 0,2 1,0 1,1 0,1 1,1 1,0 1,1 1,0 1,1 11,0 1,-1 1,0 1,-1 0,-1 1,-1 0,-1 1,-1 0,-2 1,-1 0,-2 1,-1 0,-5Z"/>
<path onmouseover="hoverPath(evt)" onmouseout="recoverPath(evt)" fill="rgb(242,241,232)" d="M  105,0l -2,0 0,3 -1,1 0,2 -1,1 0,1 1,1 0,2 -1,1 -2,0 0,1 1,1 0,2 -1,1 -2,0 0,2 -1,1 0,1 1,1 0,2 3,0 1,1 3,0 1,1 3,0 1,1 3,0 1,1 2,0 1,1 2,0 1,-1 2,0 1,-1 0,-2 -1,-1 0,-2 1,-1 2,0 1,1 1,0 1,-1 2,-2 1,-1 1,-1 0,-2 1,-1 1,-1 1,0 1,-1 2,0 1,1 2,0 1,-1 5,0 1,1 1,0 1,1 0,2 2,0 1,-1 4,0 1,1 0,2 1,0 1,-1 4,0 0,-2 1,-1 0,-1 1,-1 0,-2 1,-1 0,-2 1,-1 0,-2 1,-1 0,-3Z"/>
<path onmouseover="hoverPath(evt)" onmouseout="recoverPath(evt)" fill="rgb(242,240,230)" d="M  144,81l 0,1 -1,1 0,1 -1,1 0,1 6,0 1,-1 4,0 1,-1 4,0 1,-1 2,0 1,-1 4,0 1,-1 5,0 1,1 3,0 0,-2 1,-1 4,0 0,-2 1,-1 4,0 0,-2 1,-1 5,0 1,-1 4,0 1,-1 2,0 1,1 0,5 -1,1 11,0 0,-3 1,-1 0,-1 1,-1 0,-1 1,-1 0,-1 1,-1 0,-1 -1,-1 -3,0 -1,-1 -3,0 -1,-1 -2,0 -1,-1 -3,0 -1,-1 -2,0 -1,-1 -3,0 -1,-1 -4,0 -1,-1 -1,0 -1,-1 0,-1 -1,0 -1,-1 -2,0 -1,1 -3,0 -1,-1 -1,0 -1,-1 0,-1 -1,-1 -1,1 -4,0 -1,-1 -2,0 -1,-1 -3,0 -1,-1 -3,0 0,1 -1,1 0,1 -1,1 0,2 -1,1 0,1 -1,1 0,1 -1,1 0,1 -1,1 0,1 -1,1 0,1 -1,1 0,2 -1,1 0,2 -1,1 5,0 1,1 0,2 -1,1 -2,0 -1,1 -4,0 -1,1Z"/>
<path onmouseover="hoverPath(evt)" onmouseout="recoverPath(evt)" fill="rgb(243,241,232)" d="M  192,0l -1,0 0,3 1,1 0,2 1,1 0,1 1,1 0,1 1,1 0,2 -1,1 -1,1 3,0 1,1 0,1 1,1 0,3 1,1 0,1 1,1 0,1 1,1 0,2 1,1 0,1 1,1 0,2 1,1 0,1 1,1 0,1 1,1 0,1 7,0 1,1 0,2 -1,1 -4,0 -1,1 -7,0 -1,1 -1,0 0,1 -1,1 0,1 -1,1 0,2 1,0 1,1 2,0 1,1 2,0 1,1 3,0 1,1 2,0 1,1 3,0 1,1 3,0 0,-2 1,-1 0,-3 1,-1 0,-4 1,-1 0,-4 -2,0 -1,-1 0,-2 1,-1 4,0 0,-3 1,-1 0,-4 1,-1 2,0 0,-1 -1,0 -1,-1 0,-2 1,-1 1,-1 0,-3 1,-1 0,-4 1,-1 0,-4 1,-1 0,-4 -1,0 -1,-1 0,-3 -37,0 25,19 -1,1 -2,0 -1,-1 0,-2 1,-1 2,0 1,1 0,2 -25,-19Z"/>
<path onmouseover="hoverPath(evt)" onmouseout="recoverPath(evt)" fill="rgb(245,197,110)" d="M  239,0l -8,0 0,2 1,0 1,1 0,6 -1,1 0,4 -1,1 0,4 -1,1 0,3 -1,1 -1,1 1,0 1,1 0,3 -1,1 -2,0 0,3 1,1 0,0 1,1 0,3 1,1 0,3 -1,1 0,3 -1,1 0,3 -1,1 0,3 -1,1 0,3 -1,1 0,2 -1,1 0,2 -1,1 0,2 -1,1 0,1 -1,1 0,1 -1,1 0,1 -1,1 0,1 -1,1 0,1 -1,1 0,1 -1,1 0,1 -1,1 -3,0 -1,-1 0,-1 -1,0 0,1 -1,1 0,2 -1,1 0,1 -1,1 0,1 -1,1 0,1 -1,1 0,1 -1,1 0,1 1,0 1,1 0,3 -1,1 0,1 -1,1 0,1 -1,1 -1,1 0,1 -1,1 -2,0 1,1 0,2 -1,1 -1,1 0,1 -1,1 -1,1 -2,0 -1,-1 0,2 -1,1 -2,0 0,1 -1,1 1,0 1,1 0,0 1,1 0,2 -1,1 -1,1 -2,0 -1,-1 0,1 -1,1 -1,1 2,0 1,1 0,2 -1,1 0,1 -1,1 -1,1 -2,0 0,1 -1,1 0,1 -1,1 -1,1 -2,0 0,1 -1,1 -1,1 -4,0 -1,1 0,2 -1,1 0,1 -1,1 -1,1 -1,0 -1,1 -2,0 -1,-1 -1,1 -3,0 0,1 -1,1 -2,0 0,1 -1,1 -1,1 -2,0 -1,-1 0,-1 -1,1 0,1 -1,1 -3,0 -1,-1 -1,-1 -7,0 0,1 -1,1 -2,0 0,2 3,0 1,1 4,0 1,1 2,0 1,1 1,0 -2,-2 0,-1 1,-1 3,0 1,-1 4,0 1,1 0,1 1,0 1,1 0,4 1,0 1,1 0,1 2,0 1,1 2,0 1,-1 2,0 1,1 1,0 1,1 1,0 1,-1 3,0 1,1 2,0 1,1 0,1 1,0 1,1 0,1 1,-2 2,0 1,1 1,1 -1,-2 0,-3 1,-1 1,-1 1,0 0,-2 -2,0 -1,-1 0,-3 -1,-1 0,-3 1,-1 1,-1 0,-1 1,-1 0,-1 1,-1 0,-1 1,-1 0,-2 1,-1 0,-1 1,-1 2,0 0,-1 1,-1 0,-1 1,-1 2,0 0,-1 1,-1 0,-1 1,-1 1,-1 1,-1 2,0 -1,-1 0,-3 1,-1 0,-1 1,-1 1,-1 0,-1 2,-2 1,-1 0,-2 1,-1 0,-1 1,-1 1,-1 0,-1 1,-1 1,-1 0,-2 1,-1 2,0 0,-2 1,-1 0,-2 1,-1 0,-1 1,-1 0,-1 1,-1 0,-1 1,-1 0,-1 1,-1 1,-1 1,-1 1,-1 0,-1 1,-1 0,-2 1,-1 0,-1 1,-1 0,-1 1,-1 1,-1 0,-1 1,-1 0,-1 -1,-1 0,-3 -1,-1 0,-2 1,-1 0,-2 1,-1 0,-3 1,-1 0,-2 1,-1 2,0 0,-2 -1,-1 0,-2 1,-1 0,-3 1,-1 0,-3 1,-1 0,-2 1,-1 0,-3 1,-1 0,-4 1,-1 1,0 1,-1 0,-2 -1,-1 0,-4 1,-1 1,-1 1,0 0,-3 1,-1 0,-1 1,-1 0,-1 1,-1 1,-1 0,-1 -1,-1 0,-3 1,-1 0,-3 1,-1 0,-3Z"/>
<path onmouseover="hoverPath(evt)" onmouseout="recoverPath(evt)" fill="rgb(244,242,234)" d="M  94,34l 0,1 -1,1 0,1 -1,1 0,2 -1,1 0,2 -1,1 0,2 -1,1 0,1 -1,1 0,2 -1,1 0,2 -1,1 0,1 -1,1 0,2 -1,1 0,2 -1,1 0,2 -1,1 0,1 -1,1 0,2 -1,1 0,1 -1,1 0,2 -1,1 0,2 -1,1 0,3 2,0 1,1 3,0 1,1 4,0 1,1 3,0 1,1 4,0 1,1 1,0 1,-1 0,0 1,-1 0,-2 1,-1 2,0 0,-1 -1,-1 0,-3 1,-1 1,-1 0,-1 1,-1 1,-1 0,-1 1,-1 3,0 1,-1 1,-1 1,0 0,-7 1,-1 0,-15 -1,-1 0,-4 1,-1 -1,0 -1,-1 -3,0 -1,-1 -2,0 -1,-1 -2,0 -1,-1 -4,0 -1,-1Z"/>
<path onmouseover="hoverPath(evt)" onmouseout="recoverPath(evt)" fill="rgb(243,242,233)" d="M  44,177l 0,0 -1,-1 0,-6 1,-1 1,0 0,-2 -1,1 -1,0 0,1 -1,3 -4,0 0,2 -1,1 -2,0 0,2 -1,1 1,1 0,3 -1,1 0,2 -1,1 -1,0 0,1 -1,1 0,1 -1,1 0,1 -1,1 -2,0 0,2 -1,1 -1,0 0,1 -1,1 0,1 -1,1 0,1 -1,1 0,1 -1,1 0,1 -1,1 0,1 -1,1 0,1 -1,1 0,3 -1,1 1,1 0,2 1,0 1,1 0,2 1,0 1,1 1,0 1,-1 3,0 1,1 0,2 1,-1 4,0 1,1 1,0 1,1 1,0 1,1 1,0 1,1 2,0 1,1 1,0 1,1 2,0 1,1 2,0 1,1 0,2 1,-1 4,0 1,1 1,0 1,1 1,0 1,1 3,0 1,-1 0,-1 1,-1 0,-1 1,-1 0,-1 1,-1 0,-1 -1,-1 0,-2 1,-1 0,-1 1,-1 0,-1 1,-1 0,-1 1,-1 0,-1 1,-1 0,-1 1,-1 0,-1 1,-1 0,-1 1,-1 0,-1 1,-1 0,-1 1,-1 0,-1 1,-1 0,-2 1,-1 0,-1 1,-1 0,-1 1,-1 0,-3 -2,0 -1,-1 -2,0 -1,-1 -1,-1 0,-2 -1,0 -1,1 -3,0 -1,-1 -2,0 -1,-1 -2,0 -1,-1 -1,0 -1,-1 -1,0 -1,-1 0,-2 1,-1 4,0 1,1 1,0 0,-2 -1,0 -1,-1 0,-1 -8,0 -1,-1 -2,0 -1,1 -4,0 -1,1Z"/>
<path onmouseover="hoverPath(evt)" onmouseout="recoverPath(evt)" fill="rgb(243,240,230)" d="M  121,149l 0,0 1,1 2,0 1,1 0,1 3,0 1,1 1,1 2,0 1,-1 2,0 0,-1 1,-1 9,0 1,1 1,1 1,0 0,-1 1,-1 1,-1 2,0 1,1 0,1 1,-1 0,-1 1,-1 2,0 0,-1 1,-1 3,0 1,-1 2,0 1,1 1,-1 1,0 1,-1 0,-1 1,-1 0,-2 1,-1 1,-1 4,0 1,-1 0,-1 1,-1 2,0 1,-1 0,-1 1,-1 0,-1 1,-1 2,0 1,-1 0,-1 1,-1 -4,0 -1,-1 0,-2 1,-1 2,0 1,-1 0,-1 1,-1 2,0 1,1 1,-1 0,0 -1,-1 -2,0 -1,-1 0,-2 1,-1 1,0 0,-1 1,-1 2,0 0,-2 1,-1 2,0 1,1 1,-1 0,-1 1,-1 1,-1 -1,-1 0,-2 1,-1 2,0 0,-1 1,-1 1,-1 0,-1 1,-1 0,-1 1,-1 0,-1 -1,0 -1,-1 0,-3 1,-1 0,-1 1,-1 0,-1 1,-1 0,-1 1,-1 0,-1 1,-1 0,-2 1,-1 -14,0 -1,-1 0,-2 1,-1 5,0 0,-3 -1,1 -4,0 -1,1 -5,0 0,2 -1,1 -4,0 0,2 -1,1 -4,0 0,2 -1,1 -5,0 -1,-1 -3,0 -1,1 -4,0 -1,1 -2,0 -1,1 -4,0 -1,1 -4,0 0,2 -1,1 -4,0 -1,1 -3,0 -1,1 -1,0 -1,1 0,1 -1,1 -2,0 -1,1 -1,0 -1,1 -2,0 -1,1 -5,0 -1,-1 -5,0 -1,-1 -3,0 -1,-1 -4,0 -1,-1 -4,0 0,2 -1,1 -1,1 0,2 -1,1 0,1 -1,1 0,1 -1,1 0,1 -1,1 0,1 -1,1 -1,1 0,1 -1,1 0,1 -1,1 0,3 -1,1 -1,1 -3,0 -1,1 -1,0 -1,1 -1,0 0,1 -1,1 0,1 -1,1 0,2 -1,1 0,3 1,0 1,1 0,3 -1,1 -1,1 0,1 2,0 1,1 2,0 1,1 5,0 1,1 0,2 4,0 1,1 3,0 1,1 0,1 3,0 1,1 6,0 1,1 3,0 1,1 3,0 -28,-5 -1,1 1,0 0,-1 28,5Z"/>
<path onmouseover="hoverPath(evt)" onmouseout="recoverPath(evt)" fill="rgb(252,252,251)" d="M  162,19l 1,1 0,5 -1,1 0,2 -1,1 0,3 -1,1 0,2 -1,1 0,2 -1,1 0,2 1,0 0,-2 1,-1 0,-2 1,-1 0,-2 1,-1 0,-2 1,-1 0,-2 1,-1 0,-3 1,-1 0,-2 1,-1 0,-2 1,-1 0,-2 1,-1 0,-2 1,-1 0,-2 1,-1 0,-2 1,-1 0,-1 1,-1 6,0 1,1 0,5 1,-2 0,-2 1,-1 0,-1 1,-1 0,-1 -12,0 0,4 -1,1 0,2 -1,1 0,2 -1,1 0,2 -1,1 0,1 -1,1 0,2 -1,1Z"/>
<path onmouseover="hoverPath(evt)" onmouseout="recoverPath(evt)" fill="rgb(243,242,233)" d="M  131,20l 0,0 -1,1 -1,1 -1,1 -1,1 -2,0 -1,1 0,3 -1,1 1,1 0,1 2,0 1,1 2,0 1,1 3,0 1,1 3,0 1,1 2,0 1,1 3,0 1,1 3,0 1,1 2,0 1,1 4,0 0,-1 1,-1 0,-2 1,-1 0,-2 1,-1 0,-3 1,-1 0,-2 1,-1 0,-3 -2,0 -1,-1 -2,0 -1,-1 0,-2 -2,0 -1,1 -4,0 -1,-1 0,-2 -1,0 -1,-1 -3,0 -1,1 -4,0 -1,-1 -1,1 -1,0 -1,1 0,2 -1,1 -1,1Z"/>
<path onmouseover="hoverPath(evt)" onmouseout="recoverPath(evt)" fill="rgb(244,242,234)" d="M  249,20l 0,0 -1,1 0,4 -1,1 0,4 -1,1 0,2 -1,1 0,2 -1,1 0,2 -1,1 0,5 -1,1 0,3 -1,1 0,5 -1,1 0,2 -1,1 0,4 2,0 1,1 2,0 1,1 3,0 1,1 2,0 1,1 3,0 0,-67 -4,0 0,4 -1,1 0,3 -1,1 0,1 1,1 0,3 -1,1 -1,1 1,1Z"/>
<path onmouseover="hoverPath(evt)" onmouseout="recoverPath(evt)" fill="rgb(253,253,252)" d="M  103,86l -2,2 -1,1 -3,0 -1,-1 -4,0 -1,-1 -3,0 -1,-1 -4,0 -1,-1 -3,0 -1,-1 -4,0 0,1 4,0 1,1 3,0 1,1 3,0 1,1 3,0 1,1 3,0 1,1 5,0 1,1 0,5 1,-1 0,-2 1,-1 6,0 1,1 4,0 1,1 3,0 1,1 5,0 1,1 3,0 1,-1 2,0 1,-1 1,0 1,-1 2,0 0,-1 1,-1 1,-1 1,0 1,-1 3,0 1,-1 -3,0 -1,-1 0,-3 1,-1 0,-1 1,-1 0,-2 1,-1 1,-1 4,0 1,-1 -3,0 -1,-1 0,-2 1,-1 0,-2 1,-1 0,-2 1,-1 0,-1 1,-1 0,-1 1,-1 0,-1 1,-1 0,-1 1,-1 0,-1 1,-1 0,-2 1,-1 0,-1 1,-1 0,-1 1,-1 -1,-1 0,0 -1,1 0,2 -1,1 0,1 -1,1 0,1 -1,1 0,1 -1,1 0,1 -1,1 0,1 -1,1 0,2 -1,1 0,1 -1,1 0,1 -1,1 -2,0 -1,1 0,2 -1,1 1,1 0,4 -1,1 0,1 -1,1 0,1 -1,1 0,1 -1,1 0,1 -1,1 0,1 -1,1 0,1 -1,1 -1,1 -1,1 -1,0 -1,1 -11,0 -1,-1 -3,0 -1,-1 -4,0 -1,-1 -3,0 -1,-1 -2,0 -1,-1Z"/>
<path onmouseover="hoverPath(evt)" onmouseout="recoverPath(evt)" fill="rgb(243,241,232)" d="M  164,197l 0,1 -1,1 -1,1 -1,1 -1,0 0,2 -1,1 -1,1 -1,0 1,1 0,2 -1,1 -1,0 -2,2 -1,1 0,1 -1,1 0,4 -1,1 -1,1 -1,1 0,1 -1,1 -2,2 0,1 -1,1 -2,0 0,1 -2,2 0,1 -1,1 0,1 -1,1 -1,1 1,1 0,4 1,1 0,2 -1,1 -3,0 -1,-1 -2,0 0,1 -1,1 0,1 -1,1 -1,1 0,1 -1,1 0,1 -2,2 0,2 69,0 0,-3 1,-1 0,-1 1,-1 0,-1 1,-1 0,-1 1,-1 -1,-1 0,-2 1,-1 0,-1 1,-1 0,-1 1,-1 0,-1 1,-1 2,0 0,-1 1,-1 0,-1 1,-1 0,-2 1,-1 0,-1 1,-1 0,-2 1,-1 0,-2 1,-1 0,-2 1,-1 0,-3 1,-1 0,-2 1,-1 0,-2 1,-1 0,-3 1,-1 0,-2 1,-1 0,-1 -1,-1 0,-2 -1,0 -1,-1 0,-2 -3,0 -1,-1 -2,0 -1,-1 0,-2 -2,0 -1,-1 -1,0 0,1 -1,1 -3,0 -1,-1 -3,0 -1,-1 -3,0 -1,-1 -3,0 -1,-1 -2,0 0,1 -1,1 -5,0 -1,-1 -3,0 1,1 0,2 -1,1 -2,0 -1,-1 -1,1 -1,0 0,1 -1,1 -1,0 0,2 -1,1 -1,0 -1,1 -4,54 -2,0 -1,-1 0,-2 1,-1 2,0 1,1 0,2 -1,1 4,-54 8,53 -2,0 -1,-1 0,-2 1,-1 0,-1 2,-2 2,0 1,1 0,2 -1,1 -1,1 0,1 -1,1 -8,-53 34,14 -1,1 -2,0 -1,-1 0,-2 1,-1 2,0 1,1 0,2 -34,-14Z"/>
<path onmouseover="hoverPath(evt)" onmouseout="recoverPath(evt)" fill="rgb(251,251,249)" d="M  46,86l 0,0 1,1 1,0 -1,-1 0,-3 1,-1 0,-1 1,-1 5,0 1,1 3,0 1,1 4,0 1,1 2,0 1,-1 -2,0 -1,-1 -3,0 -1,-1 -4,0 -1,-1 -3,0 -1,-1 -3,0 -1,-1 -5,0 -1,-1 -3,0 -1,-1 -2,0 -1,-1 0,-5 -1,3 0,0 -1,1 -1,1 -3,0 -1,-1 -3,0 -1,-1 -4,0 -1,-1 -3,0 -1,-1 -4,0 -1,-1 -2,0 -1,-1 -1,0 -1,-1 0,-3 1,-1 0,-2 1,-1 0,-2 1,-1 0,-1 1,-1 0,-2 1,-1 0,-1 1,-1 0,-2 1,-1 0,-1 1,-1 0,-2 1,-1 4,0 -3,-1 0,-4 1,-1 0,-1 1,-1 0,-2 1,-1 0,-2 1,-1 0,-1 1,-1 0,-2 1,-1 0,-1 1,-1 0,-2 -1,0 0,1 -1,1 0,1 -1,1 0,2 -1,1 0,2 -1,1 0,1 -1,1 0,2 -1,1 0,1 -1,1 0,2 -1,1 0,1 -1,1 0,2 -1,1 0,2 -1,1 0,2 -1,1 0,1 -1,1 0,2 -1,1 0,2 -1,1 0,1 -1,1 0,2 -1,1 0,1 -1,1 -2,0 0,4 5,0 1,1 3,0 1,1 4,0 1,1 3,0 1,1 4,0 1,1 3,0 1,1 3,0 1,1 2,0 1,1 0,5 -1,1 0,1 -1,1 0,2 -1,1 0,1 3,0 1,-1 0,-3 1,-1 3,0 1,1 3,0 1,1Z"/>
<path onmouseover="hoverPath(evt)" onmouseout="recoverPath(evt)" fill="rgb(243,241,233)" d="M  98,165l -1,0 -1,1 0,2 -1,1 -2,0 0,1 -1,1 0,1 1,1 0,3 -1,1 0,1 -1,1 0,3 -1,1 0,1 -1,1 -2,0 0,1 1,1 0,4 -1,1 0,1 -1,1 -1,1 0,1 -1,1 0,1 -1,1 0,1 -1,1 0,1 -1,1 -2,0 0,1 -1,1 0,1 -1,1 0,1 -1,1 0,1 -1,1 0,1 -1,1 1,1 0,2 -1,1 0,1 -1,1 0,1 -1,1 0,1 -1,1 0,1 -1,1 0,2 -1,1 0,1 -1,1 0,1 -1,1 0,1 -1,1 -1,1 0,4 -1,1 1,1 0,2 -1,1 2,0 1,1 0,1 1,1 1,0 1,1 0,3 -1,1 0,3 40,0 0,-2 1,-1 1,-1 2,0 1,-1 0,-1 1,-1 0,-1 1,-1 0,-1 -1,-1 0,-2 1,-1 1,0 1,-1 0,-2 1,-1 0,-2 1,-1 0,-1 1,-1 0,-1 1,-1 0,-1 -1,-1 0,-2 1,-1 0,-1 1,-1 3,0 0,-1 1,-1 -1,0 -1,-1 0,-2 1,-1 2,0 1,-1 0,-1 1,-1 0,-1 -1,-1 0,-2 1,-1 3,0 0,-2 1,-1 1,0 0,-1 1,-1 0,-1 1,-1 0,-4 1,-1 2,0 0,-1 1,-1 0,-1 -1,-1 0,-3 1,-1 1,0 0,-4 -2,0 -1,-1 0,-3 1,-1 -1,-1 0,-1 -1,-1 -1,0 -1,-1 -1,-1 0,-1 -1,-1 -1,0 -1,1 -3,0 -1,-1 -3,0 -1,-1 -3,0 -1,-1 -3,0 -1,-1 -2,0 -1,-1 -2,0 -1,-1 -3,0 -1,-1 -2,0 -1,-1 -3,0 -1,-1 -1,0 7,79 -1,1 -2,0 -1,-1 0,-2 1,-1 2,0 1,1 0,2 -7,-79Z"/>
<path onmouseover="hoverPath(evt)" onmouseout="recoverPath(evt)" fill="rgb(243,242,233)" d="M  173,5l -1,1 0,2 -1,1 0,2 -1,1 0,2 -1,1 0,2 -1,1 0,2 -1,1 0,2 -1,1 0,3 -1,1 0,2 -1,1 0,2 -1,1 0,2 -1,1 0,1 1,1 0,3 2,0 1,1 3,0 1,1 3,0 1,1 3,0 1,1 2,0 1,1 2,0 1,1 3,0 1,1 0,1 1,-2 0,-1 1,-1 2,0 1,1 0,2 1,-2 2,0 0,-1 1,-1 0,-1 1,-1 1,0 1,-1 7,0 1,-1 -3,0 -1,-1 0,-1 -1,-1 0,-1 -2,0 -1,-1 0,-2 1,-1 0,-1 -1,-1 0,-1 -1,-1 0,-2 -1,-1 0,-1 -2,0 -1,-1 0,-2 1,-1 0,-2 -1,-1 0,-1 -4,0 -1,-1 0,-2 1,-1 1,0 1,-1 -1,-1 0,-1 -1,-1 0,-1 -1,-1 0,-2 -1,-1 0,-4 -5,0 0,2 -1,1 0,1 -1,1 0,2 -1,1 0,1 -1,1 -2,0 -1,-1 0,-5 -3,0 -1,1Z"/>
<path onmouseover="hoverPath(evt)" onmouseout="recoverPath(evt)" fill="rgb(184,182,168)" d="M  239,198l -1,0 -1,-1 -3,0 -1,-1 -3,0 -1,-1 -3,0 -1,-1 -3,0 -1,-1 -2,0 -1,-1 -2,0 0,2 1,0 1,1 0,2 1,-2 0,0 1,-1 1,0 18,4 1,0 1,1 -1,-1 -1,0 3,1 2,0 1,1 -3,-1 -3,-1 -16,-2 0,5 -1,1 0,2 -1,1 0,2 -1,1 0,3 2,0 0,-1 1,-1 0,-2 1,-1 1,-1 1,-1 1,-1 1,0 1,-1 11,0 -17,-6 16,2 4,5 2,0 1,1 1,0 1,1 1,0 1,1 1,1 1,1 1,1 1,1 1,0 0,-8 -3,0 -1,-1 -3,0 -1,-1 -4,3 -4,-5Z"/>
<path onmouseover="hoverPath(evt)" onmouseout="recoverPath(evt)" fill="rgb(252,252,251)" d="M  201,247l 0,1 -1,1 0,1 -1,1 0,1 -1,1 0,2 4,0 0,-1 -1,-1 0,-2 1,-1 0,-1 1,-1 0,-2 1,-1 1,-1 0,-1 1,-1 1,-1 0,-1 1,-1 0,-1 1,-1 0,-2 1,-1 0,-1 1,-1 0,-2 1,-1 0,-1 1,-1 0,-3 1,-1 0,-1 1,-1 0,-2 1,-1 0,-3 1,-1 0,-2 1,-1 0,-4 1,-1 0,-2 1,-1 0,-2 1,-1 0,-4 -1,1 0,1 -1,1 0,2 -1,1 0,2 -1,1 0,3 -1,1 0,2 -1,1 0,2 -1,1 0,3 -1,1 0,2 -1,1 0,2 -1,1 0,2 -1,1 0,1 -1,1 0,2 -1,1 0,1 -1,1 0,1 -1,1 -2,0 0,1 -1,1 0,1 -1,1 0,1 -1,1 1,1 0,2 -1,1Z"/>
<path onmouseover="hoverPath(evt)" onmouseout="recoverPath(evt)" fill="rgb(205,222,174)" d="M  195,151l -1,1 -1,0 -1,1 2,0 1,1 1,0 1,1 0,2 -1,1 0,2 -1,1 0,1 2,-2 1,0 1,1 1,0 1,1 0,3 -1,1 0,4 2,0 1,-1 2,0 1,1 1,0 1,-1 2,0 1,-1 0,-2 1,-1 0,-2 1,-1 0,-2 1,-1 0,-2 1,-1 0,-1 1,-1 0,-1 1,-1 0,-2 -1,2 -1,1 -2,0 -1,-1 0,-1 -1,-1 -1,0 -1,-1 -2,0 -1,-1 -3,0 -1,-1 -2,0 -1,-1 -1,0 -1,1 -1,0 -1,1 -1,0 1,1Z"/>
<path onmouseover="hoverPath(evt)" onmouseout="recoverPath(evt)" fill="rgb(173,199,237)" d="M  248,120l 0,2 -1,1 0,2 -1,1 0,2 -1,1 0,2 -1,1 0,3 -1,1 0,1 -1,1 0,2 -1,1 0,3 -1,1 0,3 -1,1 0,4 1,0 1,-1 0,-2 1,-1 0,-3 1,-1 0,-3 1,-1 0,-2 1,-1 0,-2 1,-1 0,-3 1,-1 0,-2 1,-1 0,-2 1,-1 0,-2 1,-1 0,-3 1,-1 0,-2 1,-1 0,-2 1,-1 2,0 0,-13 -1,0 0,2 -1,1 0,3 -1,1 0,3 -1,1 0,2 -1,1 0,2 -1,1 0,3 -1,1Z"/>
<path onmouseover="hoverPath(evt)" onmouseout="recoverPath(evt)" fill="rgb(242,240,231)" d="M  254,216l -1,0 -1,-1 -1,0 -1,-1 0,-1 -1,-1 -1,-1 -1,-1 -1,0 -1,-1 -1,0 -1,-1 -1,0 -1,-1 -10,0 -1,1 -1,0 -1,1 0,1 -1,1 0,3 -1,1 0,1 -1,1 0,3 -1,1 0,3 1,0 1,1 0,2 -1,1 -2,0 -1,1 -1,0 0,3 -1,1 0,1 -1,1 0,2 -1,1 0,1 -1,1 0,2 -1,1 0,1 -1,1 0,1 -1,1 0,1 1,0 1,1 0,2 -1,1 -4,0 -1,-1 -1,0 0,1 -1,1 0,2 47,0 0,-38 -1,-1Z"/>
<path onmouseover="hoverPath(evt)" onmouseout="recoverPath(evt)" fill="rgb(243,241,232)" d="M  0,73l 0,36 2,0 1,-1 0,-2 1,-1 0,-1 1,-1 2,0 0,-1 1,-1 5,0 1,-1 4,0 1,1 3,0 1,1 1,0 1,-1 2,0 1,-1 3,0 1,1 1,0 -1,-1 0,-3 -1,0 -1,-1 0,-3 -1,-1 0,-2 1,-1 0,-2 1,-1 0,-2 1,-1 0,-1 1,-1 0,-3 -2,0 -1,-1 -3,0 -1,-1 -3,0 -1,-1 -4,0 -1,-1 -3,0 -1,-1 -4,0 -1,-1 -3,0 -1,-1 -4,0Z"/>
<path onmouseover="hoverPath(evt)" onmouseout="recoverPath(evt)" fill="rgb(247,236,151)" d="M  30,169l 0,1 -1,1 -3,0 1,1 0,3 -1,1 0,1 -1,1 0,1 -1,1 -3,0 -1,-1 -1,0 -1,-1 -2,0 2,1 0,3 -1,1 0,3 -1,1 0,2 -1,1 0,2 -1,1 0,1 -1,1 -5,0 -1,-1 -2,0 2,1 2,1 4,0 1,1 0,4 -1,1 -1,1 0,1 -1,1 0,1 -1,1 0,1 -1,1 0,1 -1,1 0,1 -1,1 -1,1 0,1 -1,1 -2,0 -1,-1 -2,0 0,40 11,0 0,-1 -1,0 -1,-1 -1,0 -1,-1 -2,-2 0,-2 1,-1 0,-2 -1,-1 -1,0 -1,-1 -1,-1 0,-2 1,-1 0,-2 1,-1 0,-1 1,-1 0,-1 1,-1 0,-1 1,-1 0,-1 1,-1 0,-1 1,-1 0,-1 1,-1 0,-1 1,-1 0,-1 1,-1 1,-1 0,-1 1,-1 2,0 0,-2 -1,-1 0,-2 1,-1 0,-3 1,-1 0,-1 1,-1 0,-1 1,-1 0,-1 1,-1 0,-1 1,-1 0,-1 1,-1 0,-1 1,-1 0,-1 1,-1 1,0 0,-2 1,-1 2,0 0,-1 1,-1 0,-1 1,-1 0,-1 1,-1 1,0 0,-2 1,-1 0,-1 -1,-1 0,-2 1,-1 0,-2 1,-1 2,0 0,-2 1,-1 4,0 0,-3 -1,-1 0,-2 1,-1 1,-1 0,-1 1,-1 0,-1 1,-1 0,-1 1,-1 0,-1 1,-1 0,-5 -2,0 -1,-1 0,-3 -1,0 0,3 -1,1 -1,1 -1,0 0,1 -1,1 0,1 -1,1 0,1 -1,1 0,1 -1,1 0,1 -1,1 0,1 -1,1 0,1 -1,1 0,1 -1,1 -1,1 -3,0 3,1Z"/>
<path onmouseover="hoverPath(evt)" onmouseout="recoverPath(evt)" fill="rgb(242,241,232)" d="M  47,169l 0,1 -1,1 -1,0 0,4 1,-1 4,0 1,-1 4,0 1,1 8,0 1,1 0,1 1,0 1,1 0,4 -1,1 -3,0 1,1 2,0 1,1 2,0 1,1 1,0 1,-1 3,0 1,1 0,2 1,1 2,0 1,1 2,0 1,1 0,5 -1,1 0,1 -1,1 0,1 -1,1 0,1 4,-8 1,-1 0,-1 1,-1 0,-2 -1,-1 0,-3 1,-1 2,0 0,-1 1,-1 0,-3 1,-1 0,-1 1,-1 0,-1 -1,-1 0,-3 1,-1 0,-1 1,-1 2,0 0,-1 -1,-1 0,-1 -1,0 -1,-1 -2,0 -1,-1 -3,0 -1,-1 -3,0 -1,-1 0,2 1,1 0,2 -1,1 -2,0 -1,-1 -1,0 -1,-1 -2,0 -1,-1 -3,0 -1,-1 -11,0 -1,-1 0,-2 1,-1 13,0 0,-1 -3,0 -1,-1 -1,0 -1,-1 -3,0 -1,-1 -3,0 -1,-1 -2,0 -1,-1 -4,0 -1,-1 0,4 -1,1 0,1 -1,1 0,1 -1,1 0,1 -1,1 0,1 -1,1 -1,1 1,1 0,0 1,-1 0,0 1,-1 2,0 1,1 0,2 -1,1 0,1 15,12 -2,0 2,1 0,-1 -15,-12Z"/>
<path onmouseover="hoverPath(evt)" onmouseout="recoverPath(evt)" fill="rgb(243,242,234)" d="M  235,73l 0,0 -1,1 0,1 -1,1 0,2 -1,1 0,1 -1,1 -1,1 0,1 -1,1 0,1 -1,1 0,2 -1,1 0,1 -1,1 -1,1 -1,1 -1,1 0,1 -1,1 0,1 -1,1 0,1 -1,1 0,1 -1,1 0,2 -1,1 0,2 -1,1 -2,0 0,2 -2,2 0,1 -2,2 0,1 -1,1 0,2 -1,1 -1,1 -1,1 0,1 -1,1 -1,1 0,1 -1,1 0,1 1,1 0,2 -1,1 -2,0 -1,1 -1,1 0,1 -1,1 0,1 -1,1 -2,0 0,1 -1,1 0,1 1,1 0,1 1,0 1,1 2,0 1,1 2,0 1,1 3,0 1,1 2,0 1,1 1,0 1,1 1,1 0,1 1,-1 0,-1 1,-1 0,-1 1,-1 0,-3 1,-1 -1,-1 0,-3 1,-1 2,0 1,1 1,1 1,1 0,4 1,1 1,1 1,0 1,1 1,1 1,1 2,0 1,1 0,1 1,1 1,0 1,1 2,0 0,-5 1,-1 0,-3 1,-1 0,-3 1,-1 0,-2 1,-1 0,-1 1,-1 0,-3 1,-1 0,-2 1,-1 0,-2 1,-1 0,-2 1,-1 0,-2 1,-1 0,-3 1,-1 0,-2 1,-1 0,-2 1,-1 0,-3 1,-1 0,-3 1,-1 0,-2 1,-1 2,0 0,-20 -4,0 -1,-1 -3,0 -1,-1 -2,0 -1,-1 -3,0 -1,-1 -4,0 -17,36 0,-1 1,2 0,0 -1,-1 17,-36 -15,37 1,0 1,-1 0,0 -2,1 15,-37 -13,35 0,-1 -1,-1 0,0 1,2 13,-35 -15,33 0,0 15,-33Z"/>
<path onmouseover="hoverPath(evt)" onmouseout="recoverPath(evt)" fill="rgb(238,236,228)" d="M  218,154l 0,1 -1,1 0,1 -1,1 0,2 -1,1 0,2 -1,1 0,2 -1,1 0,2 -1,1 -1,1 -2,0 -1,1 0,3 2,0 1,1 0,1 2,0 1,1 3,0 1,1 3,0 1,1 3,0 1,1 2,0 1,1 3,0 1,1 2,0 1,1 3,0 1,1 3,0 1,1 1,-1 3,0 1,1 2,0 1,1 3,0 0,-73 -1,0 0,2 -1,1 0,2 -1,1 0,3 -1,1 0,2 -1,1 0,2 -1,1 0,2 -1,1 0,3 -1,1 0,2 -1,1 0,2 -1,1 0,3 -1,1 0,3 -1,1 0,2 -1,1 -1,1 -6,0 -1,1 -2,0 -1,-1 0,-2 -1,-1 0,-1 -2,0 -1,-1 -1,-1 -1,-1 -1,0 -1,-1 -1,-1 -1,-1 0,-4 -1,-1 -1,-1 0,1 1,1 0,2 -1,1 0,3 -1,1 1,1 0,4 -1,1Z"/>
<path onmouseover="hoverPath(evt)" onmouseout="recoverPath(evt)" fill="rgb(244,232,138)" d="M  0,11l 0,4 5,0 1,1 5,0 1,1 5,0 1,1 0,1 1,-2 3,0 1,1 0,1 5,0 1,1 5,0 1,1 1,1 0,3 -1,1 0,1 -1,1 0,1 3,-6 0,-1 1,-1 3,0 1,1 5,0 1,1 5,0 1,1 3,0 1,1 0,2 1,-1 2,0 1,-1 2,0 1,1 6,0 1,1 4,0 1,1 4,0 1,1 3,0 1,1 0,4 -1,1 0,2 -1,1 0,2 -1,1 0,1 -1,1 0,2 -1,1 0,2 -1,1 0,1 -1,1 0,2 -1,1 0,2 -1,1 0,2 -1,1 0,1 -1,1 0,2 -1,1 0,2 -1,1 0,1 -1,1 0,2 -1,1 0,1 -1,1 0,2 -1,1 0,1 -1,1 0,0 1,1 0,2 -1,1 -1,1 -1,0 0,3 -1,1 0,1 -1,1 0,1 -1,1 0,2 -1,1 0,2 -1,1 0,2 -1,1 0,2 -1,1 0,2 -1,1 0,1 -1,1 0,2 -1,1 0,2 -1,1 0,2 -1,1 -1,1 -1,0 2,1 0,2 -1,1 0,1 -1,1 -1,0 0,1 -1,1 0,2 -1,1 0,1 1,1 2,0 1,-1 2,0 0,-1 1,-1 0,-1 1,-1 0,-1 1,-1 0,-1 1,-1 0,-3 1,-1 0,-2 1,-1 1,-1 0,-3 1,-1 0,-2 1,-1 0,-2 1,-1 0,-1 1,-1 0,-2 1,-1 0,-2 1,-1 0,-2 1,-1 0,-1 1,-1 0,-2 1,-1 0,-1 1,-1 0,-5 1,-1 2,0 0,-4 1,-1 0,-2 1,-1 0,-2 1,-1 0,-1 1,-1 0,-2 1,-1 0,-1 1,-1 0,-2 1,-1 0,-2 1,-1 0,-2 1,-1 0,-1 1,-1 0,-2 1,-1 0,-2 1,-1 0,-1 1,-1 0,-2 1,-1 0,-2 1,-1 0,-2 1,-1 0,-1 1,-1 0,-1 1,-1 6,0 1,1 4,0 1,1 2,0 1,1 2,0 1,1 3,0 1,1 1,-1 2,0 1,1 0,1 4,0 1,1 2,0 1,1 1,0 1,-1 3,0 1,1 2,0 1,1 0,1 1,1 2,0 1,1 3,0 1,1 3,0 1,1 3,0 1,1 1,0 1,-1 2,0 1,1 1,1 0,1 3,0 1,1 3,0 1,1 2,0 1,1 2,0 1,-1 2,0 1,1 1,1 0,1 1,0 1,1 1,0 1,-1 4,0 1,1 1,0 1,1 0,1 1,0 1,1 4,0 1,1 3,0 1,1 2,0 1,1 3,0 1,1 2,0 1,1 3,0 1,1 3,0 1,1 1,1 0,3 -1,1 0,1 -1,1 0,1 -1,1 0,1 -1,1 0,4 1,0 0,-1 1,-1 0,-1 1,-1 0,-1 1,-1 0,-1 1,-1 0,-1 1,-1 0,-1 1,-1 0,-1 1,-1 0,-2 1,-1 0,-2 1,-1 0,-2 1,-1 0,-3 1,-1 0,-3 1,-1 0,-3 1,-1 0,-3 1,-1 0,-1 -1,-1 0,-3 -1,-1 0,3 -1,1 -4,0 3,1 0,6 -1,1 0,4 -1,1 0,3 -1,1 0,2 -1,1 -5,0 -1,-1 -3,0 -1,-1 -2,0 -1,-1 -3,0 -1,-1 -2,0 -1,-1 -2,0 -1,-1 -1,0 -1,-1 0,-3 -1,2 -2,0 -1,-1 -1,0 0,1 -1,1 -2,0 -1,-1 0,-1 -3,0 -1,-1 -2,0 -1,-1 -2,0 -1,-1 -3,0 -1,-1 -3,0 -1,-1 -3,0 -1,-1 -2,0 -1,-1 0,-3 -1,3 -3,0 -1,-1 0,-1 -5,0 -1,-1 -2,0 -1,-1 -3,0 -1,-1 -3,0 -1,-1 -2,0 -1,-1 -3,0 -1,-1 -3,0 -1,-1 -2,0 -1,-1 -2,0 -1,-1 0,-1 -1,-1 -1,0 -1,1 -4,0 -1,-1 -2,0 -1,-1 -3,0 -1,-1 -3,0 -1,-1 -3,0 -1,-1 -3,0 -1,-1 0,0 -1,1 -4,0 -1,-1 0,-1 -3,0 -1,-1 -4,0 -1,-1 -4,0 -1,-1 -5,0 -1,-1 -8,0 -1,-1 -2,0 -1,-1 -4,0 -1,-1 -5,0 -1,-1 -5,0 -1,-1 -6,0 -1,-1 -5,0 -1,-1 -1,0 -1,1 -2,0 -1,-1 -1,-1 -5,0 -1,-1 -4,0 -1,-1 -5,0 -1,-1 -4,0 0,2 191,38 0,0 -191,-38Z"/>
<path onmouseover="hoverPath(evt)" onmouseout="recoverPath(evt)" fill="rgb(241,239,230)" d="M  17,170l 0,0 -1,1 -2,0 -1,-1 0,-3 -3,0 -1,-1 -1,0 -1,-1 -2,0 -1,-1 -4,0 0,49 3,0 1,1 0,-1 1,-1 0,0 1,-1 0,-1 1,-1 0,-1 1,-1 0,-1 1,-1 0,-1 1,-1 0,-1 1,-1 1,-1 0,-2 -4,0 -1,-1 -1,0 -1,-1 -1,0 -1,-1 0,-2 1,-1 4,0 1,1 3,0 0,-1 1,-1 0,-2 1,-1 0,-2 1,-1 0,-3 1,-1 0,-1 -1,0 -1,-1 0,-2 1,-1 4,0 1,1 1,0 1,1 1,0 0,-1 1,-1 0,-1 1,-1 0,-1 -1,-1 0,-2 -3,0 -1,-1 -2,0 -1,1Z"/>
<path onmouseover="hoverPath(evt)" onmouseout="recoverPath(evt)" fill="rgb(242,241,232)" d="M  54,74l -4,0 -1,-1 -1,-1 0,-1 -1,0 -1,-1 -2,0 -1,-1 -2,0 -1,-1 0,-2 -2,0 -1,-1 0,-7 -1,3 -7,0 4,1 1,0 1,1 0,4 1,1 0,5 2,0 1,1 3,0 1,1 5,0 1,1 3,0 1,1 3,0 1,1 4,0 1,1 2,0 1,-1 2,0 0,-1 1,-1 0,-2 1,-1 0,-1 1,-1 0,-2 1,-1 0,-1 1,-1 0,-2 1,-1 0,-2 1,-1 0,-1 1,-1 0,-2 1,-1 0,-2 1,-1 0,-2 1,-1 0,-1 1,-1 0,-2 1,-1 0,-2 1,-1 0,-1 1,-1 0,-2 1,-1 0,-2 1,-1 0,-2 -3,0 -1,-1 -4,0 -1,-1 -4,0 -1,-1 -6,0 -1,-1 -1,1 -2,0 -1,1 0,1 -1,1 -2,0 -1,-1 0,-3 1,-1 -3,0 -1,-1 -5,0 -1,-1 -5,0 -1,-1 -1,0 0,1 -1,1 0,1 -1,1 0,1 -1,1 0,1 -1,1 0,1 -1,1 0,2 -1,1 0,1 -1,1 0,1 -1,1 0,3 -1,1 4,0 1,1 6,0 4,-4 1,0 1,-1 2,0 1,1 2,0 1,1 2,0 1,-1 3,0 1,-1 4,0 0,-3 1,-1 2,0 1,1 0,6 -1,1 -1,1 -1,0 0,1 -1,1 -1,1 -2,0 -2,2 0,1 -1,1 0,1 -1,1 -1,1 -2,0 0,6 1,1 0,3 1,1 0,2 1,1 0,3 -1,1 -1,0 -1,1Z"/>
<path onmouseover="hoverPath(evt)" onmouseout="recoverPath(evt)" fill="rgb(234,225,204)" d="M  190,154l 0,-2 1,-1 1,-1 0,-3 1,-1 1,0 1,-1 1,0 -2,-1 0,-1 -1,-1 -1,0 0,1 -1,1 0,2 -1,1 0,1 -1,1 0,1 -1,1 0,1 -1,1 -1,1 0,1 1,1 0,3 2,0 1,1 0,4 -1,1 -1,0 -1,1 0,2 1,1 0,1 1,0 0,-2 1,-1 3,0 1,-1 2,0 1,1 0,1 1,0 0,-3 1,-1 0,-1 -1,0 -1,-1 0,1 -1,1 -2,0 -1,-1 0,-3 1,-1 0,-2 1,-1 -1,0 -1,-1 -2,0 -1,-1Z"/>
<path onmouseover="hoverPath(evt)" onmouseout="recoverPath(evt)" fill="rgb(242,240,230)" d="M  109,73l -1,1 -1,1 0,1 -1,1 -1,1 0,1 1,1 0,3 -1,1 0,4 2,0 1,1 3,0 1,1 4,0 1,1 3,0 1,1 9,0 1,-1 1,0 1,-1 1,-1 0,-1 1,-1 0,-1 1,-1 0,-1 1,-1 0,-1 1,-1 0,-1 1,-1 0,-1 1,-1 0,-2 -1,-1 0,-2 1,-1 0,-2 1,-1 1,-1 2,0 0,-1 1,-1 0,-1 1,-1 0,-2 1,-1 0,-1 1,-1 0,-1 1,-1 0,-1 1,-1 0,-1 1,-1 0,-1 1,-1 0,-1 -1,0 -1,-1 -3,0 -1,-1 -3,0 -1,-1 -3,0 -1,-1 -2,0 -1,-1 -1,-1 0,-1 -2,0 -1,-1 -1,0 -1,1 -3,0 -1,-1 -2,0 -1,-1 -4,0 -1,-1 0,1 -1,1 0,2 1,1 0,17 -1,1 0,7 -1,1 -1,0 -1,1 -1,1 -2,0 -1,1Z"/>
<path onmouseover="hoverPath(evt)" onmouseout="recoverPath(evt)" fill="rgb(242,239,229)" d="M  0,157l 0,5 5,0 1,1 2,0 1,1 1,0 1,1 3,0 1,1 0,3 1,-2 5,0 1,1 3,0 1,1 2,0 -3,-2 0,-1 1,-1 3,0 1,-1 0,-1 1,-1 0,-1 1,-1 0,-1 1,-1 0,-1 1,-1 0,-1 1,-1 0,-1 1,-1 0,-1 1,-1 0,-4 -1,-1 -3,0 -1,-1 -5,0 0,1 -1,1 0,2 -1,1 -2,0 -1,-1 0,-5 -3,0 -1,-1 -1,0 -1,-1 -2,0 -1,-1 -2,0 -1,-1 -3,0 -1,-1 -3,0 -1,-1 -2,0Z"/>
<path onmouseover="hoverPath(evt)" onmouseout="recoverPath(evt)" fill="rgb(244,242,234)" d="M  14,221l -1,1 0,1 -1,1 0,1 -1,1 0,1 -1,1 0,1 -1,1 0,1 -1,1 0,1 -1,1 0,1 -1,1 0,1 -1,1 0,2 -1,1 1,1 1,0 1,1 1,1 0,4 -1,1 1,1 0,0 1,1 1,0 1,1 1,0 1,1 0,2 54,0 0,-4 1,-1 0,-1 -1,0 -1,-1 -1,-1 0,-1 -2,0 -1,-1 0,-2 1,-1 -1,-1 0,-2 1,-1 0,-3 -3,0 -1,-1 -1,0 -1,-1 -1,0 -1,-1 -2,0 -1,1 -2,0 -1,-1 0,-2 -2,0 -1,-1 -2,0 -1,-1 -1,0 -1,-1 -1,0 -1,1 -2,0 -1,-1 0,-2 -1,0 -1,-1 -1,0 -1,-1 -2,0 -1,1 -2,0 -1,-1 0,-2 -1,0 -1,1 -3,0 -1,-1 -1,0 -1,-1 -2,0 -1,-1 0,1 -1,1 2,29 -1,-1 -1,0 -1,-1 0,-2 1,-1 2,0 1,1 1,0 1,1 0,2 -1,1 -2,0 -2,-29Z"/>
<path onmouseover="hoverPath(evt)" onmouseout="recoverPath(evt)" fill="rgb(248,248,243)" d="M  92,13l 0,1 -1,1 1,1 1,1 0,4 -1,1 0,1 -1,1 2,0 0,-2 1,-1 0,-2 1,-1 0,-2 1,-1 2,0 -1,-1 0,-3 1,-1 2,0 -1,-1 0,-3 1,-1 0,-2 1,-1 0,-2 -6,0 0,6 -1,1 0,2 -1,1 0,2 -1,1Z"/>
<path onmouseover="hoverPath(evt)" onmouseout="recoverPath(evt)" fill="rgb(245,195,108)" d="M  137,173l 0,1 1,1 1,0 1,1 1,1 0,1 1,1 0,2 -1,1 0,1 2,0 1,1 0,6 -1,1 -1,0 0,1 1,1 0,3 -1,1 0,1 -1,1 -2,0 0,4 -1,1 0,1 -1,1 0,1 -1,1 -1,0 0,2 -1,1 -3,0 1,1 0,3 -1,1 0,1 -1,1 -1,1 0,3 -1,1 0,1 -1,1 -3,0 0,1 -1,1 1,1 0,3 -1,1 0,1 -1,1 0,1 -1,1 0,2 -1,1 0,2 -1,1 -1,1 0,4 -1,1 0,1 -1,1 0,1 -1,1 -1,1 -2,0 -1,1 0,1 14,0 0,-3 2,-2 0,-1 1,-1 0,-1 1,-1 1,-1 0,-1 1,-1 0,-1 1,-1 4,0 1,1 1,0 -1,-1 0,-4 -1,-1 0,-2 1,-1 1,-1 0,-1 1,-1 0,-1 1,-1 1,-1 0,-1 1,-1 2,0 0,-1 1,-1 1,-1 1,-1 0,-1 1,-1 2,-2 0,-4 1,-1 0,-1 1,-1 1,-1 1,-1 1,-1 1,0 -1,-1 0,-2 1,-1 1,0 1,-1 0,-2 1,-1 1,0 1,-1 1,-1 0,-2 1,-1 2,0 0,-2 1,-1 1,0 0,-1 1,-1 1,0 1,-1 2,0 0,-2 1,-1 5,0 1,1 3,0 0,-1 -2,0 -1,-1 -1,0 -1,-1 0,-1 -9,0 -1,-1 0,-1 -1,0 -1,-1 -1,1 -2,0 -1,-1 0,-2 -1,-1 -3,0 -1,-1 -2,0 -1,-1 -1,0 -1,1 0,3 -1,1 -2,0 -1,-1 0,-1 -3,0 -1,-1 -1,-1 0,-2 1,-1 -1,0 -1,-1 -1,0 0,1 -1,1 -2,0 -9,46 9,-46Z"/>
<path onmouseover="hoverPath(evt)" onmouseout="recoverPath(evt)" fill="rgb(242,241,231)" d="M  0,46l 0,17 1,0 0,-1 1,-1 0,-2 1,-1 0,-1 1,-1 0,-2 1,-1 0,-2 1,-1 0,-1 1,-1 0,-2 1,-1 0,-2 1,-1 0,-2 1,-1 0,-1 1,-1 0,-2 1,-1 0,-1 1,-1 0,-2 1,-1 0,-1 1,-1 0,-2 1,-1 0,-2 1,-1 -1,-1 0,-1 -5,0 -1,-1 -5,0 -1,-1 -4,0Z"/>
<path onmouseover="hoverPath(evt)" onmouseout="recoverPath(evt)" fill="rgb(240,236,225)" d="M  61,94l 0,-2 1,-1 0,-1 1,-1 0,-1 1,-1 0,-2 -1,0 -1,-1 -4,0 -1,-1 -3,0 -1,-1 -3,0 0,1 -1,1 0,1 1,1 0,2 -1,1 -3,0 -1,-1 -1,0 -1,-1 -3,0 -1,-1 -1,0 0,3 -1,1 -1,1 -5,0 1,1 0,3 1,0 1,1 0,3 1,1 0,2 -1,1 -3,0 -1,-1 -1,0 -1,1 -2,0 -1,1 -3,0 -1,-1 -3,0 -1,-1 -2,0 -1,1 -5,0 0,1 -1,1 -2,0 0,1 -1,1 0,2 -1,1 -1,1 -3,0 0,10 2,0 0,-1 1,-1 2,0 1,1 0,1 1,1 8,0 1,1 1,1 0,1 1,0 1,1 0,1 10,0 1,1 0,2 1,1 3,0 1,-1 1,0 1,-1 4,0 1,1 1,0 1,1 1,1 2,0 0,-2 1,-1 0,-2 1,-1 0,-1 1,-1 1,0 0,-1 1,-1 -1,0 -1,-1 0,-2 1,-1 1,0 1,-1 0,-2 1,-1 0,-2 1,-1 0,-2 1,-1 0,-1 1,-1 0,-2 1,-1 0,-2 1,-1 0,-2 1,-1 0,-2 1,-1Z"/>
<path onmouseover="hoverPath(evt)" onmouseout="recoverPath(evt)" fill="rgb(242,240,230)" d="M  67,14l 0,0 -1,-1 0,-2 -1,-1 0,-2 -1,-1 0,-2 -1,-1 -1,1 -3,0 -1,-1 0,-1 -1,-1 0,-2 -57,0 0,7 5,0 1,1 5,0 1,1 4,0 1,1 5,0 1,1 1,1 1,-1 3,0 1,1 5,0 1,1 6,0 1,1 5,0 1,1 5,0 1,1 4,0 1,1 2,0 1,1 8,0 1,1 5,0 1,1 4,0 1,1 4,0 1,1 3,0 0,-1 1,-1 0,-2 -1,-1 0,0 -1,1 -1,0 -1,1 -10,0 -10,-5 6,4 -1,0 -1,-1 -1,0 -1,-1 -1,-1 0,-1 5,4 -6,-4Z"/>
<path onmouseover="hoverPath(evt)" onmouseout="recoverPath(evt)" fill="rgb(244,242,235)" d="M  85,110l 0,1 -1,1 0,2 -1,1 0,2 -1,1 -1,1 0,7 1,-3 0,-1 1,-1 0,-1 1,-1 1,0 1,-1 1,0 1,-1 3,0 1,-1 0,-3 1,-1 0,-1 1,-1 0,-1 1,-1 1,-1 0,-1 1,-1 0,-1 1,-1 0,-1 1,-1 0,-1 1,-1 0,-1 -4,0 -1,-1 -2,0 -1,-1 -1,0 -1,1 0,1 1,1 0,1 1,1 1,0 1,1 0,2 -1,1 -4,0 0,1 -1,1 -2,0 -1,1 0,2 -5,9 0,0 5,-9Z"/>
<path onmouseover="hoverPath(evt)" onmouseout="recoverPath(evt)" fill="rgb(241,240,230)" d="M  91,94l 2,0 1,1 2,0 1,1 2,0 0,-4 -5,0 -1,-1 -3,0 -1,-1 -3,0 -1,-1 -3,0 -1,-1 -3,0 -1,-1 -3,0 0,2 -1,1 0,1 -1,1 0,2 -1,1 0,1 -1,1 0,2 -1,1 0,2 -1,1 0,2 -1,1 0,1 -1,1 0,2 -1,1 0,2 -1,1 0,3 -1,1 -1,1 0,2 -1,1 0,2 1,1 0,3 1,-2 0,-3 1,-1 0,-1 1,-1 2,0 1,1 0,3 -1,1 0,2 2,0 1,1 1,0 1,1 0,2 -1,1 -3,0 -1,1 -3,0 0,1 2,0 1,1 2,0 1,1 2,0 1,1 6,0 1,1 0,-2 2,-2 0,-1 -1,0 -1,-1 0,-4 -1,-1 0,-6 -2,0 -1,-1 0,-2 1,-1 3,0 1,-1 0,-2 1,-1 0,-2 1,-1 0,-3 1,-1 1,-1 2,0 0,-1 1,-1 4,0 -2,-1 0,0 -1,-1 0,-1 -1,-1 0,-3 1,-1 1,-1Z"/>
<path onmouseover="hoverPath(evt)" onmouseout="recoverPath(evt)" fill="rgb(188,148,223)" d="M  0,127l 0,8 3,0 1,1 3,0 1,1 3,0 1,1 2,0 1,1 2,0 1,1 1,0 1,1 3,0 1,1 0,5 1,-3 0,-1 1,-1 7,0 1,1 3,0 1,1 1,1 0,3 1,-1 0,-3 1,-1 3,0 1,1 0,3 2,0 1,1 0,1 1,0 1,1 4,0 1,1 2,0 1,1 3,0 1,1 3,0 1,1 1,0 1,1 3,0 1,1 0,3 -1,1 -13,0 12,1 3,0 1,1 1,0 1,-1 0,-1 1,-1 1,0 1,-1 2,0 1,1 3,0 1,1 3,0 1,1 2,0 1,1 1,0 1,1 0,1 1,-1 4,0 1,1 3,0 1,1 2,0 1,1 3,0 1,1 2,0 1,1 2,0 1,1 3,0 1,1 3,0 1,1 1,-1 2,0 1,1 0,1 1,0 1,-1 2,0 0,-1 1,-1 2,0 1,1 0,1 1,-2 3,0 1,1 2,0 1,1 0,2 -1,1 0,1 3,0 1,1 0,-2 1,-1 1,-1 3,0 1,1 2,0 1,1 3,0 1,1 1,1 0,2 1,-1 2,0 1,1 1,0 1,1 0,1 9,0 1,1 0,1 1,0 1,1 2,0 1,1 3,0 1,1 3,0 1,1 3,0 1,1 3,0 1,1 1,0 0,-1 1,-1 3,0 1,1 2,0 1,1 0,2 2,0 1,1 2,0 1,-1 4,0 1,1 2,0 1,1 3,0 1,1 3,0 1,1 3,0 1,1 3,0 1,1 2,0 1,1 3,0 1,1 2,0 1,1 3,0 1,1 2,0 0,-11 -4,0 -1,-1 -2,0 -1,-1 -1,0 -1,1 -2,0 -1,-1 -3,0 -1,-1 -3,0 -1,-1 -2,0 -1,-1 -3,0 -1,-1 -2,0 -1,-1 -3,0 -1,-1 -3,0 -1,-1 -3,0 -1,-1 -2,0 -1,-1 0,-1 -2,0 -1,-1 0,-4 -1,0 -1,-1 -1,1 -4,0 -1,-1 0,-1 -2,0 -1,-1 0,-1 -1,1 -3,0 0,2 -1,1 -5,0 -1,-1 -1,-1 0,1 -1,1 -2,0 -1,-1 0,-1 -1,0 -1,-1 0,-1 -2,0 -1,-1 -1,0 -1,1 0,0 -1,1 -2,0 -1,-1 0,-1 -1,0 -1,-1 -1,1 -4,0 -1,-1 -2,0 -1,-1 0,-1 -1,0 -1,-1 0,-4 -1,0 -1,-1 0,-1 -2,0 -1,1 -3,0 2,1 0,2 -1,1 -3,0 -1,-1 -2,0 -1,-1 -4,0 -1,-1 -3,0 -1,-1 0,-2 -3,0 -2,-2 -3,0 -1,-1 0,-1 -2,0 -1,-1 -3,0 -1,-1 -3,0 -1,-1 -6,0 -1,-1 -3,0 -1,-1 0,-1 -3,0 -1,-1 -2,0 0,1 -1,1 -3,0 -1,-1 0,-1 -1,1 -2,0 -1,-1 -6,0 -1,-1 -3,0 -1,-1 -2,0 -1,-1 -2,0 -1,-1 -3,0 -1,-1 -4,0 -1,-1 -3,0 -1,-1 -2,0 -1,-1 0,-1 -1,-1 -3,0 -1,-1 -4,0 -1,-1 -1,-1 -1,0 -1,-1 -2,0 -1,1 -1,0 -1,1 -5,0 -2,-2 0,-2 -10,0 -1,-1 0,-1 -1,0 -1,-1 0,-1 -1,-1 -8,0 -2,-2 0,-1 -1,2 -3,0Z"/>
<path onmouseover="hoverPath(evt)" onmouseout="recoverPath(evt)" fill="rgb(241,240,229)" d="M  29,63l -1,0 -1,-1 0,-2 1,-1 7,0 0,-2 1,-1 2,0 1,1 0,7 2,0 1,1 0,2 2,0 1,1 2,0 1,1 1,0 1,1 0,1 1,1 2,0 1,-1 1,0 0,-1 -1,-1 0,-2 -1,-1 0,-3 -1,-1 0,-8 1,-1 2,0 1,-1 0,-1 1,-1 0,-1 1,-1 1,-1 1,-1 2,0 1,-1 0,-1 1,-1 1,0 1,-1 0,-4 -1,4 -4,0 -1,1 -3,0 -1,1 -4,0 -1,-1 -1,0 -1,1 -2,0 -1,-1 -4,4 -8,0 -1,-1 -4,0 -1,-1 0,-2 1,-1 0,-2 -1,-1 0,-2 1,-1 2,0 0,-1 1,-1 0,-1 -1,-1 0,-2 1,-1 0,-2 1,-1 0,-1 1,-1 0,-1 -1,-1 -5,0 -1,-1 -4,0 0,1 -1,1 0,1 -1,1 0,2 -1,1 0,1 -1,1 0,2 -1,1 0,2 -1,1 0,1 -1,1 0,2 2,0 1,1 0,2 -1,1 -4,0 0,2 -1,1 0,1 -1,1 0,2 -1,1 0,1 -1,1 0,2 -1,1 0,1 -1,1 0,2 -1,1 0,2 -1,1 0,1 1,0 1,1 2,0 1,1 4,0 1,1 3,0 1,1 4,0 1,1 3,0 1,1 1,0 1,-1 0,0 1,-1 0,-2 1,-1 0,-3 -1,0 -1,-1Z"/>
<path onmouseover="hoverPath(evt)" onmouseout="recoverPath(evt)" fill="rgb(218,195,173)" d="M  60,127l -1,1 0,1 -1,1 0,1 -1,1 0,1 -1,1 -2,0 1,1 0,1 2,0 1,1 3,0 1,1 4,0 1,1 3,0 1,1 2,0 1,1 2,0 1,1 3,0 1,1 3,0 1,-1 2,0 1,1 3,0 1,-1 -4,0 0,2 -2,-3 -2,0 -1,-1 -4,0 -1,-1 -6,0 -1,-1 -2,0 -1,-1 -2,0 -1,-1 -2,0 -1,-1 0,-3 1,-1 3,0 1,-1 3,0 -2,-1 -2,0 -1,-1 0,-4 1,-1 0,-1 -2,6 0,1 -1,1 -2,0 -1,-1Z"/>
<path onmouseover="hoverPath(evt)" onmouseout="recoverPath(evt)" fill="rgb(179,201,231)" d="M  216,223l 0,1 -1,1 0,3 -1,1 0,1 -1,1 0,2 -1,1 0,1 -1,1 0,2 -1,1 0,1 -1,1 0,1 -1,1 -1,1 0,1 -1,1 -1,1 0,2 -1,1 0,1 -1,1 1,1 0,2 2,0 0,-3 1,-1 0,-1 1,-1 0,-1 1,-1 0,-1 1,-1 0,-2 1,-1 0,-1 1,-1 0,-2 1,-1 0,-1 1,-1 0,-1 1,-1 0,-2 1,-1 0,-2 1,-1 0,-3 -1,-1 1,-1 1,0 1,-1 0,-2 1,-1 0,-2 1,-1 0,-2 -2,0 0,2 -1,1 0,3 -1,1 0,2 -1,1Z"/>
<path onmouseover="hoverPath(evt)" onmouseout="recoverPath(evt)" fill="rgb(233,209,119)" d="M  238,47l 0,2 -1,1 0,3 -1,1 1,1 0,4 -1,1 -2,0 0,2 -1,1 0,3 -1,1 0,2 -1,1 1,1 0,3 1,-2 0,0 1,-1 6,0 1,1 3,0 1,1 2,0 1,1 3,0 1,1 3,0 0,-6 -4,0 -1,-1 -2,0 -1,-1 -3,0 -1,-1 -2,0 -1,-1 -2,0 -1,-1 0,-4 1,-13 0,8 1,-1 0,-5 1,-1 0,-3 1,-1 0,-5 1,-1 0,-2 1,-1 0,-2 1,-1 0,-2 1,-1 0,-4 1,-1 0,-4 1,-1 0,-1 -2,6 -1,0 -1,1 0,2 1,1 0,1 -6,28 0,-10 2,-7 0,2 -1,1 0,2 -1,1 2,-6 -2,7 3,-13 0,0 -3,13Z"/>
<path onmouseover="hoverPath(evt)" onmouseout="recoverPath(evt)" fill="rgb(253,252,252)" d="M  246,207l 0,0 1,1 1,0 1,1 1,1 1,1 1,1 0,-1 -1,-1 -1,-1 -1,-1 -1,-1 -2,0 8,7 1,0 0,-2 -11,-6 0,-1 -2,0 -1,-1 -11,0 -1,1 -1,0 -1,1 -2,2 0,2 -1,1 0,1 -1,1 0,3 -1,1 0,2 -1,1 0,2 -1,1 0,1 -1,1 0,3 -1,1 0,2 -1,1 0,2 -1,1 0,1 -1,1 0,1 -1,1 0,2 -1,1 0,1 -1,1 0,2 -1,1 0,1 -1,1 1,0 1,1 2,0 -2,-1 0,-2 1,-2 0,-1 1,-1 0,-1 1,-1 0,-2 1,-1 0,-1 1,-1 0,-1 1,-2 0,-1 1,-1 0,-2 1,-2 1,0 1,-1 2,0 -2,-1 0,-5 1,-1 0,-2 31,-3 -8,-7 -21,6 0,-2 1,-2 0,-1 1,-1 1,-1 1,0 1,-1 11,0 2,1Z"/>
</svg>