<svg width="256" height="256" xmlns="http://www.w3.org/2000/svg"><script> 
var tempColor;
function hoverPath(evt){
obj = evt.target;
tempColor = obj.getAttribute("fill");
obj.setAttribute("fill","red");
//alert(tempColor);
//obj.setAttribute("stroke","red");}
function recoverPath(evt){
obj = evt.target;
obj.setAttribute("fill", tempColor);
//obj.setAttribute("stroke", tempColor);
}</script><path onmouseover="hoverPath(evt)" onmouseout="recoverPath(evt)" fill="rgb(241,240,233)" d="M  18,110l 2,0 1,-1 1,0 1,-1 1,-1 1,0 1,-1 2,0 1,1 0,5 1,-4 3,0 1,-1 7,0 0,-3 1,-1 2,0 1,1 1,0 1,-1 2,0 1,1 1,1 1,0 1,1 2,0 1,1 0,-1 1,-1 1,-1 -1,-1 0,-2 1,-1 2,0 1,-1 -1,-1 0,-2 1,-1 1,-1 0,-1 1,-1 0,-1 1,-1 1,-1 2,0 1,-1 4,0 -1,-1 0,-3 1,-1 0,-1 1,-1 1,-1 0,-1 1,-1 1,-1 0,-1 2,-2 0,-1 1,-1 1,-1 2,0 -1,-1 0,-2 1,-1 1,-1 0,-1 2,-2 0,-1 1,-1 -2,0 -1,-1 0,-2 1,-1 1,-1 1,-1 1,-1 0,-1 1,-1 1,-1 0,-1 1,-1 1,-1 -4,0 -1,-1 0,-3 -2,0 -1,-1 -1,-1 0,-3 1,-1 2,0 0,-2 -4,0 -1,-1 0,-1 -1,-1 -2,0 -1,-1 0,-1 -1,-1 -1,0 -1,-1 -1,-1 -1,0 -2,-2 -4,0 -1,-1 0,-1 -2,0 -1,-1 0,-1 -2,0 -1,-1 0,-2 -1,-1 -1,0 0,1 -1,1 -1,0 -2,2 -1,1 -5,5 -1,1 -2,0 -1,-1 0,-2 1,-1 1,-1 1,-1 1,-1 1,-1 1,-1 1,-1 1,-1 1,-1 0,-1 1,-1 -1,-1 0,0 -1,-1 -1,0 -1,-1 -1,-1 -1,0 -1,-1 -1,-1 -4,0 -1,-1 0,-1 -2,0 -1,-1 -1,-1 0,-2 -1,-1 0,-2 -34,0 0,113 4,0 1,1 2,0 1,-1 2,0 1,-1 1,0 1,-1 4,0 1,-1Z"/>
<path onmouseover="hoverPath(evt)" onmouseout="recoverPath(evt)" fill="rgb(244,243,235)" d="M  68,91l -2,0 -1,1 0,1 -1,1 0,1 -1,1 -1,1 1,1 0,2 -1,1 -1,1 0,1 -1,1 0,1 -1,1 -1,1 0,1 1,0 1,1 1,0 1,1 2,0 1,1 1,0 1,1 2,0 1,1 2,0 1,1 3,0 1,1 3,0 1,1 2,0 1,1 2,0 1,1 1,0 1,1 2,0 1,1 1,0 1,1 1,0 1,1 2,0 1,1 1,0 1,1 1,0 1,1 3,0 1,1 2,0 1,1 2,0 1,1 3,0 1,1 2,0 1,1 2,0 1,1 2,0 1,1 2,0 1,1 2,0 1,1 1,0 1,1 2,0 1,1 1,0 1,1 1,1 1,0 1,1 1,0 1,1 1,0 1,1 1,0 1,1 1,1 1,0 1,1 3,0 1,-1 1,-1 1,-1 0,-1 1,-1 0,-2 1,-1 0,-2 1,-1 0,-2 1,-1 0,-1 1,-1 0,-2 1,-1 0,-2 1,-1 0,-1 1,-1 0,-1 1,-1 0,-1 1,-1 0,-1 1,-1 0,-1 1,-1 0,-1 1,-1 0,-2 1,-1 0,-1 1,-1 0,-2 1,-1 0,-2 1,-1 0,-2 1,-1 0,-3 1,-1 0,-2 1,-1 0,-2 1,-1 0,-2 1,-1 0,-1 1,-1 1,-1 0,-1 1,-1 1,-1 -1,0 -1,-1 0,0 -1,-1 -1,-1 0,-4 -1,0 -2,-2 -1,-1 -1,-1 -1,-1 -2,0 -1,1 -1,0 -3,3 -1,0 -1,1 -1,1 -1,1 -1,1 -1,1 0,1 -1,1 -2,0 0,1 -1,1 -1,0 -1,1 -2,0 -1,-1 -10,0 -1,1 -2,0 -1,-1 -1,-1 -1,-1 -1,0 -1,-1 -1,-1 -1,0 -1,-1 -1,-1 -1,-1 -1,0 -1,-1 -1,-1 -1,-1 0,-1 -1,-1 -1,-1 -1,0 -1,-1 0,-2 -1,0 -1,-1 -1,-1 -1,-1 -2,0 -1,-1 0,-1 -1,-1 -1,0 -1,-1 -1,-1 -1,-1 0,-2 -1,-1 -1,1 -2,0 -1,-1 -1,1 -2,0 -1,-1 -1,1 0,1 -1,1 -1,1 -1,1 0,1 -1,1 -1,0 0,1 -1,1 -1,1 0,1 -1,1 -1,1 -2,0 0,1 -1,1 -1,1 0,1 -1,1 -1,1 1,1 0,2 -1,1 -2,0 -1,1 0,1 -1,1 -1,1 0,1 -1,1 -1,1 0,1 -2,2 0,1 -1,1 0,1 1,1 0,2 -1,1 -4,0 -1,1 8,-1 1,-1 2,0 1,1 1,0 1,1 0,2 -1,1 -2,0 -1,-1 -1,0 -1,-1 0,-2 -8,1 17,4 1,-1 2,0 1,1 1,0 1,1 0,2 -1,1 -2,0 -1,-1 -1,0 -1,-1 0,-2 -17,-4 26,9 1,-1 2,0 1,1 1,0 1,1 0,2 -1,1 -2,0 -1,-1 -1,0 -1,-1 0,-2 -26,-9 43,20 -1,-1 0,-2 1,-1 2,0 1,1 0,2 -1,1 -2,0 -43,-20Z"/>
<path onmouseover="hoverPath(evt)" onmouseout="recoverPath(evt)" fill="rgb(243,242,234)" d="M  89,240l 0,1 1,1 0,1 1,1 0,2 1,1 0,1 2,0 1,1 0,2 -1,1 0,3 21,0 0,-2 1,-1 2,0 1,-1 2,0 1,-1 2,0 1,-1 2,0 1,-1 2,0 1,-1 3,0 1,-1 3,0 1,-1 3,0 1,-1 3,0 1,-1 2,0 1,-1 2,0 1,-1 2,0 1,-1 1,0 1,-1 3,0 1,-1 2,0 1,-1 3,0 1,-1 2,0 1,-1 3,0 1,-1 2,0 1,-1 3,0 1,-1 2,0 1,-1 3,0 1,-1 2,0 1,-1 3,0 1,-1 3,0 1,-1 2,0 1,-1 2,0 1,-1 3,0 1,-1 2,0 1,-1 2,0 1,-1 3,0 1,-1 2,0 1,-1 2,0 1,-1 3,0 1,-1 2,0 1,-1 2,0 1,-1 2,0 1,-1 2,0 1,-1 3,0 1,-1 2,0 1,-1 2,0 1,-1 2,0 0,-38 -4,0 -1,1 -3,0 -1,1 -4,0 -1,1 -4,0 -1,1 -3,0 -1,1 -4,0 -1,1 -3,0 -1,1 -4,0 -1,1 -5,0 -1,1 -3,0 -1,1 -1,0 0,3 2,0 1,1 0,2 -1,1 0,1 1,1 0,1 1,1 0,1 1,1 0,5 -2,2 -1,0 -1,1 -2,0 -1,1 -3,0 -1,1 -2,0 -1,1 -2,0 -1,1 -3,0 -1,1 -2,0 -1,1 -2,0 -1,1 -2,0 0,1 -1,1 0,3 -1,1 -2,0 -1,-1 0,-2 -1,0 -1,-1 -1,1 -3,0 -1,1 -2,0 0,2 -1,1 -3,0 -1,-1 -2,0 -1,1 -2,0 -1,1 -3,0 -1,1 -2,0 -1,1 -3,0 -1,1 -2,0 -1,1 -3,0 -1,1 -2,0 -1,1 -3,0 -1,1 -2,0 -1,1 -3,0 -1,1 -2,0 -1,1 -3,0 -1,1 -2,0 -1,1 -3,0 -1,1 -2,0 -1,1 -3,0 -1,1 -2,0 -1,1 -3,0 -1,1 -2,0 -1,1 -3,0 -1,1 -2,0Z"/>
<path onmouseover="hoverPath(evt)" onmouseout="recoverPath(evt)" fill="rgb(238,238,231)" d="M  0,121l 0,31 2,0 1,-1 3,0 1,-1 2,0 1,-1 2,0 0,-4 1,-1 2,0 1,1 0,1 1,1 1,0 1,-1 2,0 1,-1 4,0 1,-1 2,0 1,-1 3,0 1,-1 2,0 1,-1 1,0 1,-1 1,0 0,-2 -1,-1 0,-1 -1,-1 0,-1 -1,-1 0,-2 -1,-1 0,-1 -1,-1 0,-4 -1,-1 0,-2 1,-1 0,-2 1,-1 0,-1 -1,-1 0,-3 -1,0 -1,-1 0,-1 -2,0 0,3 -1,1 -2,0 -1,-1 0,-5 -1,1 -1,0 -1,1 -1,1 -1,0 -1,1 -2,0 -1,1 -4,0 -1,1 -1,0 -1,1 -2,0 -1,1 -4,0 -1,-1 -3,0Z"/>
<path onmouseover="hoverPath(evt)" onmouseout="recoverPath(evt)" fill="rgb(243,242,234)" d="M  0,217l 0,38 21,0 0,-2 1,-1 2,0 1,-1 3,0 1,-1 2,0 1,-1 2,0 1,-1 3,0 1,-1 2,0 1,-1 3,0 1,-1 2,0 1,-1 2,0 1,-1 3,0 1,-1 2,0 1,-1 2,0 1,-1 3,0 1,-1 2,0 1,-1 3,0 1,-1 2,0 1,-1 2,0 1,-1 1,0 0,-3 -1,-1 0,-1 -1,-1 -4,0 -1,-1 0,-2 1,-1 2,0 0,-2 -1,-1 0,-2 -1,-1 0,-1 -1,-1 0,-1 -1,-1 0,-1 -1,-1 0,-2 -1,-1 0,-1 -1,-1 0,-2 -1,-1 0,-1 -1,-1 0,-2 -1,-1 0,-1 -1,-1 0,-2 -1,-1 0,-1 -1,-1 0,-1 -1,-1 0,-2 -1,-1 0,-1 -1,-1 0,-2 -1,-1 0,-1 -1,-1 0,-1 -1,-1 0,-1 -1,-1 0,-1 -1,-1 0,-2 -1,-1 0,-1 -1,-1 0,-1 -1,-1 0,-1 -1,-1 0,-2 -1,-1 0,-1 -1,-1 0,-1 -1,-1 0,-2 -1,-1 0,-1 -1,-1 0,-2 -1,-1 0,-1 -1,-1 0,-2 -1,-1 -4,0 -1,1 -2,0 -1,1 -3,0 -1,1 -2,0 -1,1 -3,0 -1,1 -2,0 -1,1 -3,0 -1,1 -2,0 -1,1 -2,0 -1,1 -2,0 -1,1 -2,0 -1,1 -2,0 -1,1 -2,0Z"/>
<path onmouseover="hoverPath(evt)" onmouseout="recoverPath(evt)" fill="rgb(251,251,248)" d="M  62,8l 1,0 0,-2 1,-1 1,-1 1,-1 1,0 0,-3 -1,0 0,2 -6,8 -1,1 -1,1 -4,0 -1,-1 -1,0 -1,-1 -1,-1 -1,0 -1,-1 -1,-1 -1,0 -1,-1 -1,-1 -1,0 -1,-1 -1,-1 -1,0 -1,-1 0,-2 -3,0 0,1 1,1 0,2 1,1 2,0 1,1 0,1 4,0 1,1 1,1 1,0 1,1 1,1 1,0 1,1 1,1 1,1 0,2 4,0 1,1 1,1 0,2 2,0 1,1 0,1 2,0 1,1 0,1 4,0 1,1 1,1 1,0 1,1 1,1 1,0 1,1 1,1 0,1 2,0 1,1 1,1 0,1 3,0 0,-1 -1,0 -1,-1 0,-1 -2,0 -1,-1 -1,-1 0,-1 -2,0 -1,-1 -1,-1 -1,0 -1,-1 -1,-1 -1,0 -2,-2 0,-2 -1,-1 -1,0 -1,-1 -1,-1 -1,1 -2,0 -1,-1 -1,-1 -1,-1 0,-3 3,-4 -8,9 -1,0 0,1 -1,1 -1,1 -1,1 -1,1 -1,1 -1,1 -1,1 -1,1 -1,1 10,-9 0,-1 8,-9Z"/>
<path onmouseover="hoverPath(evt)" onmouseout="recoverPath(evt)" fill="rgb(242,241,233)" d="M  72,0l -3,0 0,4 -1,1 -1,0 -1,1 -1,1 0,2 -1,1 -1,0 -1,1 -1,1 0,2 1,1 1,1 1,-1 2,0 1,1 1,1 1,0 1,1 1,1 0,2 1,1 1,0 1,1 1,1 1,0 1,1 1,1 2,0 1,1 0,1 1,1 2,0 1,1 0,1 1,0 1,1 0,7 -1,1 -2,0 0,1 1,1 2,0 1,1 0,3 4,0 1,-1 0,-1 1,-1 3,0 0,-2 -3,0 -1,-1 0,-2 -1,-1 -1,-1 0,-4 1,-1 0,-4 1,-1 0,-1 2,-2 6,0 0,-1 1,-1 0,-4 2,-2 11,0 0,-1 1,-1 0,-1 -1,-1 0,-7 1,-1 1,0 1,-1 4,0 1,1 1,1 0,1 1,1 0,1 1,-1 3,0 1,-1 1,0 1,-1 1,-1 1,-1 1,-1 0,-1Z"/>
<path onmouseover="hoverPath(evt)" onmouseout="recoverPath(evt)" fill="rgb(239,238,231)" d="M  96,45l -1,0 0,1 -1,1 -1,1 0,1 -1,1 -1,1 0,1 -1,1 -1,1 0,1 -1,1 -1,1 -1,1 -1,1 2,0 1,1 0,1 1,-1 0,-1 1,-1 1,-1 0,-1 1,-1 1,0 0,-1 1,-1 2,-2 0,-1 1,-1 1,-1 2,0 1,1 1,-1 2,0 1,1 1,-1 2,0 1,1 1,1 0,2 1,1 1,1 1,0 1,1 1,1 0,1 2,0 1,1 1,1 1,1 1,0 1,1 0,2 1,0 1,1 1,1 1,1 0,1 1,1 1,1 1,0 1,1 1,1 1,1 1,-1 2,0 1,1 1,1 0,2 1,1 1,1 1,-1 12,0 1,1 1,-1 1,0 0,-1 1,-1 2,0 0,-1 2,-2 1,-1 2,-2 1,-1 1,0 1,-1 1,-1 1,-1 1,0 -1,-1 0,-2 -1,0 -1,-1 -1,-1 -1,-1 -1,-1 -1,-1 -1,-1 -1,-1 -1,0 -1,-1 -1,-1 -1,0 -2,-2 -1,0 -1,-1 -1,0 -1,-1 0,-1 -1,-1 -1,-1 -2,0 -1,-1 0,-4 1,-1 1,-1 3,0 2,-2 1,-1 1,0 0,-1 1,-1 -1,-1 0,-1 -1,-1 -2,-2 -1,-1 0,-1 -1,0 -1,-1 -2,-2 -1,-1 0,-1 -2,0 -1,-1 -1,-1 -1,-1 -1,0 -1,-1 -1,-1 -1,-1 -1,-1 0,-1 -1,-1 0,-3 -2,2 -4,0 -1,-1 0,-2 -1,1 -2,0 -1,-1 0,-1 -1,-1 0,-1 -1,-1 -2,0 -1,1 -1,0 0,5 1,1 0,3 -1,1 0,1 -1,1 -11,0 -1,1 0,4 -1,1 0,1 -1,1 -6,0 -1,1 0,1 -1,1 0,4 -1,1 0,2 1,1 0,0 1,1 0,2 3,0 1,1 0,4 -1,1Z"/>
<path onmouseover="hoverPath(evt)" onmouseout="recoverPath(evt)" fill="rgb(253,253,252)" d="M  24,254l -1,0 0,1 9,0 0,-2 1,-1 3,0 1,-1 2,0 1,-1 2,0 1,-1 3,0 1,-1 2,0 1,-1 3,0 1,-1 2,0 1,-1 2,0 1,-1 3,0 1,-1 2,0 1,-1 3,0 1,-1 2,0 1,-1 2,0 1,-1 3,0 1,-1 2,0 1,1 1,1 1,1 0,2 1,1 0,1 1,1 0,1 1,1 0,2 1,1 0,1 1,1 0,2 1,0 0,-4 1,-1 -2,0 -1,-1 0,-1 -1,-1 0,-2 -1,-1 0,-1 -1,-1 0,-5 1,-1 2,0 1,-1 3,0 1,-1 2,0 1,-1 3,0 1,-1 2,0 1,-1 3,0 1,-1 2,0 1,-1 3,0 1,-1 2,0 1,-1 3,0 1,-1 2,0 1,-1 3,0 1,-1 2,0 1,-1 3,0 1,-1 2,0 1,-1 3,0 1,-1 2,0 1,-1 3,0 1,-1 2,0 1,-1 3,0 1,-1 2,0 1,-1 4,0 1,1 1,0 0,-2 1,-1 2,0 1,-1 3,0 1,-1 2,0 1,1 1,0 1,1 0,-1 1,-1 0,-1 1,-1 2,0 1,-1 2,0 1,-1 2,0 1,-1 3,0 1,-1 2,0 1,-1 2,0 1,-1 3,0 1,-1 2,0 1,-1 1,0 1,-1 0,-3 -1,-1 0,-1 -1,-1 0,-1 -1,-1 0,-3 1,-1 -2,0 -1,-1 0,-5 1,-1 1,0 1,-1 3,0 1,-1 5,0 1,-1 4,0 1,-1 3,0 1,-1 4,0 1,-1 3,0 1,-1 4,0 1,-1 4,0 1,-1 3,0 1,-1 5,0 0,-2 -1,0 -1,1 -3,0 -1,1 -4,0 -1,1 -3,0 -1,1 -5,0 -1,1 -3,0 -1,1 -3,0 -1,1 -3,0 -1,1 -5,0 -1,1 -4,0 -1,1 -3,0 -1,1 -2,0 -1,1 -1,1 0,3 1,1 0,2 1,1 0,2 -1,1 2,0 1,1 0,1 1,1 0,4 -1,1 -1,1 -1,0 -1,1 -3,0 -1,1 -2,0 -1,1 -3,0 -1,1 -2,0 -1,1 -2,0 -1,1 -3,0 -1,1 -2,0 -1,1 -3,0 -1,1 -2,0 -1,1 -2,0 -1,1 -4,0 -1,-1 0,1 -1,1 -1,1 -2,0 -1,1 -3,0 -1,1 -2,0 -1,1 -3,0 -1,1 -2,0 -1,1 -3,0 -1,1 -2,0 -1,1 -3,0 -1,1 -2,0 -1,1 -3,0 -1,1 -2,0 -1,1 -3,0 -1,1 -2,0 -1,1 -3,0 -1,1 -2,0 -1,1 -3,0 -1,1 -2,0 -1,1 -3,0 -1,1 -2,0 -1,1 -3,0 -1,1 -2,0 -1,1 -5,0 -1,-1 0,-2 1,-1 -2,0 -1,-1 0,-3 1,-1 -2,0 -1,-1 0,-2 -1,-1 0,-2 1,-1 -2,0 -1,-1 0,-1 -1,-1 0,-3 1,-1 -2,0 -1,-1 0,-3 1,-1 -2,0 -1,-1 0,-2 -1,-1 0,-1 -1,-1 0,-2 -1,-1 0,-1 -1,-1 0,-1 -1,-1 0,-2 -1,-1 0,-1 -1,-1 0,-2 -1,-1 0,-2 1,-1 -2,0 -1,-1 0,-1 -1,-1 0,-2 -1,-1 0,-2 1,-1 -2,0 -1,-1 0,-1 -1,-1 0,-2 -1,-1 0,-2 1,-1 -2,0 -1,-1 0,-1 -1,-1 0,-2 -1,-1 0,-1 -1,-1 0,-1 -1,-1 0,-3 1,-1 -2,0 -1,-1 0,-2 -1,-1 0,-1 -1,-1 0,-3 1,-1 -1,-1 0,-1 -2,0 -1,-1 0,-1 -1,-1 0,-3 1,-1 -2,0 -1,-1 0,-2 -1,-1 0,-1 -1,-1 -1,-1 0,2 1,1 0,1 1,1 0,2 1,1 0,1 1,1 0,1 1,1 0,4 -1,1 -1,0 -1,1 -1,0 -1,1 -2,0 -1,1 -3,0 -1,1 -2,0 -1,1 -4,0 -1,1 -2,0 -1,1 -3,0 -1,-1 -1,-1 0,3 -1,1 -2,0 -1,1 -2,0 -1,1 -3,0 -1,1 -3,0 0,2 1,0 1,-1 2,0 1,-1 2,0 1,-1 2,0 1,-1 2,0 1,-1 2,0 1,-1 3,0 1,-1 2,0 1,-1 3,0 1,-1 2,0 1,-1 3,0 1,-1 2,0 1,-1 6,0 1,1 1,1 0,2 1,1 0,1 1,1 0,2 1,1 0,1 1,1 0,2 1,1 0,1 1,1 0,1 1,1 0,2 1,1 0,1 1,1 0,1 1,1 0,1 1,1 0,2 1,1 0,1 1,1 0,1 1,1 0,1 1,1 0,1 1,1 0,2 1,1 0,1 1,1 0,2 1,1 0,1 1,1 0,1 1,1 0,2 1,1 0,1 1,1 0,2 1,1 0,1 1,1 0,2 1,1 0,1 1,1 0,2 1,1 0,1 1,1 0,1 1,1 0,1 1,1 0,2 1,1 0,4 -1,1 2,0 1,1 1,1 0,1 1,1 0,5 -1,1 -1,0 -1,1 -2,0 -1,1 -2,0 -1,1 -3,0 -1,1 -2,0 -1,1 -3,0 -1,1 -2,0 -1,1 -2,0 -1,1 -3,0 -1,1 -2,0 -1,1 -2,0 -1,1 -3,0 -1,1 -2,0 -1,1 -3,0 -1,1 -2,0 -1,1 -2,0 -1,1 -3,0 -1,1Z"/>
<path onmouseover="hoverPath(evt)" onmouseout="recoverPath(evt)" fill="rgb(243,243,235)" d="M  36,110l 0,0 1,1 0,3 1,1 0,3 -1,1 0,1 1,1 0,1 1,1 0,1 1,1 1,1 0,1 1,1 0,2 2,0 1,1 0,2 -1,1 0,1 1,1 0,1 2,0 1,1 0,1 1,1 0,2 -1,1 0,1 1,1 0,1 1,1 0,2 2,0 1,1 0,2 -1,1 0,1 1,1 0,1 1,1 0,1 1,1 0,2 1,1 0,1 2,0 1,1 0,2 -1,1 1,1 0,2 1,1 0,1 2,0 1,1 0,2 -1,1 1,1 0,2 1,1 0,1 2,0 1,1 0,2 -1,1 1,1 0,2 1,1 0,1 1,1 0,2 1,1 0,1 1,1 0,1 1,1 0,2 1,1 0,1 1,1 0,2 2,0 1,1 0,2 -1,1 0,1 2,0 1,1 0,2 -1,1 0,1 1,1 0,1 2,0 1,1 0,2 -1,1 1,1 0,2 2,0 1,1 0,2 -1,1 0,1 2,0 1,1 0,2 -1,1 3,0 1,-1 2,0 1,-1 3,0 1,-1 2,0 1,-1 3,0 1,-1 2,0 1,-1 3,0 1,-1 2,0 1,-1 3,0 1,-1 2,0 1,-1 3,0 1,-1 2,0 1,-1 3,0 1,-1 2,0 1,-1 3,0 1,-1 2,0 1,-1 3,0 1,-1 2,0 1,-1 3,0 1,-1 2,0 1,-1 3,0 1,-1 2,0 1,-1 0,-2 1,-1 2,0 1,1 0,1 2,0 1,-1 2,0 1,-1 2,0 1,-1 3,0 1,-1 2,0 1,-1 3,0 1,-1 2,0 1,-1 2,0 1,-1 3,0 1,-1 2,0 1,-1 3,0 1,-1 1,0 1,-1 0,-2 -1,-1 0,-1 -2,0 -1,-1 0,-2 1,-1 -1,-1 0,-2 -1,-1 0,-5 2,-2 0,-5 -1,-1 -1,-1 -1,-1 -1,-1 -1,-1 -1,-1 -1,-1 -1,-1 -1,-1 -1,-1 -1,-1 -1,-1 -1,-1 -1,-1 -1,-1 -1,-1 -1,-1 -1,-1 -1,0 -1,-1 -1,-1 -1,0 -1,-1 0,-1 -1,0 -1,-1 -1,0 -1,-1 -2,0 -1,-1 -1,-1 -1,-1 -1,0 -1,-1 -1,1 -3,0 -1,-1 -1,0 -1,1 -1,1 -1,1 -1,1 -1,1 -1,0 -1,1 -6,0 -1,-1 -1,0 -1,-1 -1,0 -1,-1 -1,0 -1,-1 -1,-1 -1,0 -1,-1 -1,0 -1,-1 -1,0 -1,-1 -1,0 -1,-1 -1,0 -1,-1 -1,0 -1,-1 -1,0 -1,-1 -1,0 -1,-1 -1,0 -1,-1 -3,0 -1,-1 -2,0 -1,-1 -3,0 -1,-1 -2,0 -1,-1 -2,0 -1,-1 -2,0 -1,-1 -2,0 -1,-1 -2,0 -1,-1 -1,0 -1,-1 -2,0 -1,-1 -1,0 -1,-1 -2,0 -1,-1 -1,0 -1,-1 -2,0 -1,-1 -2,0 -1,-1 -1,0 -1,-1 -2,0 -1,-1 -2,0 -1,-1 -1,0 -1,-1 -2,0 -1,-1 -1,0 -1,-1 -2,0 -1,-1 -2,0 -1,-1 -1,0 -1,-1 -2,0 -1,-1 -2,0 -1,-1 -1,0 -1,-1 -2,0 -1,-1 -1,0 -1,-1 -7,0 -1,1 -1,-1 0,0 1,1 114,57 1,1 0,2 -1,1 -2,0 -1,-1 0,-2 1,-1 2,0 -114,-57Z"/>
<path onmouseover="hoverPath(evt)" onmouseout="recoverPath(evt)" fill="rgb(241,240,230)" d="M  43,255l 46,0 0,-1 -1,-1 0,-1 -1,-1 0,-2 -1,-1 0,-1 -1,-1 0,-1 -1,-1 0,-2 -1,-1 -1,-1 -1,1 -3,0 -1,1 -2,0 -1,1 -2,0 -1,1 -3,0 -1,1 -2,0 -1,1 -3,0 -1,1 -2,0 -1,1 -2,0 -1,1 -3,0 -1,1 -2,0 -1,1 -3,0 -1,1 -2,0 -1,1 -2,0 -1,1 -3,0 0,1Z"/>
<path onmouseover="hoverPath(evt)" onmouseout="recoverPath(evt)" fill="rgb(170,198,237)" d="M  43,106l 0,1 2,0 1,1 1,0 1,1 2,0 1,1 1,0 1,1 2,0 1,1 2,0 1,1 1,0 1,1 2,0 1,1 2,0 1,1 1,0 1,1 2,0 1,1 1,0 1,1 2,0 1,1 2,0 1,1 1,0 1,1 2,0 1,1 2,0 1,1 1,0 1,1 2,0 1,1 1,0 1,1 2,0 1,1 1,0 1,1 2,0 1,1 2,0 1,1 2,0 1,1 2,0 1,1 2,0 1,1 3,0 1,1 2,0 1,1 3,0 1,1 1,0 1,1 1,0 1,1 1,0 1,1 1,0 1,1 1,0 1,1 1,0 1,1 1,0 1,1 1,0 1,1 1,0 1,1 1,1 1,0 1,1 1,0 1,1 1,0 1,1 4,0 1,-1 1,0 1,-1 1,-1 1,-1 2,-2 3,0 1,1 1,0 0,-1 -1,0 -2,-1 0,-6 1,-1 0,-2 1,-1 0,-2 1,-1 0,-1 1,-1 0,-2 1,-1 0,-1 1,-1 0,-1 1,-1 0,-1 1,-1 0,-1 1,-1 0,-1 1,-1 0,-1 1,-1 0,-2 1,-1 0,-2 1,-1 0,-2 1,-1 0,-2 1,-1 0,-3 1,-1 0,-3 1,-1 0,-2 1,-1 0,-1 1,-1 0,-1 1,-1 0,-1 1,-1 0,-1 1,-1 1,-1 2,-2 1,-1 1,0 1,-1 1,-1 1,-1 1,-1 1,-1 1,-1 1,-1 1,0 1,-1 1,-1 1,-1 1,-1 1,-1 1,-1 1,-1 0,-1 1,-1 1,-1 0,-1 1,-1 1,-1 1,-1 0,-1 1,-1 0,-1 1,-1 0,-1 1,-1 0,-10 -1,-1 0,-7 1,-1 0,-1 1,-1 1,-1 1,-1 1,-1 1,0 1,-1 1,-1 1,0 1,-1 1,-1 1,0 1,-1 1,0 1,-1 1,-1 1,0 2,-2 1,0 3,-3 1,0 1,-1 1,-1 0,-1 1,-1 1,-1 0,-2 1,-1 0,-7 -3,0 0,5 -1,1 0,2 -1,1 0,1 -1,1 -1,1 -1,1 -1,1 -1,1 -1,1 -1,0 -1,1 -1,1 -1,0 -1,1 -1,1 -1,0 -1,1 -1,1 -1,0 -1,1 -1,0 -1,1 -1,1 -1,0 -1,1 -1,1 -1,0 -1,1 0,1 -1,1 0,1 -1,1 0,8 1,1 0,8 -1,1 0,1 -1,1 0,1 -1,1 0,1 -1,1 0,1 -1,1 -1,1 0,1 -1,1 -1,1 -1,1 -2,2 -1,1 -1,1 -1,0 -1,1 -1,1 -1,1 -1,1 -1,1 -1,1 -1,1 -1,1 -4,0 -1,-1 -1,0 -1,-1 -1,-1 0,1 1,1 1,1 1,0 1,1 0,2 -1,1 -1,1 0,1 -1,1 -1,1 0,1 -1,1 0,2 -1,1 0,2 -1,1 0,2 -1,1 0,3 -1,1 0,2 -1,1 0,2 -1,1 0,2 -1,1 0,1 -1,1 0,2 -1,1 0,1 -1,1 0,1 -1,1 0,1 -1,1 0,1 -1,1 0,1 -1,1 0,1 -1,1 0,2 -1,1 0,2 -1,1 0,1 -1,1 0,2 -1,1 0,2 -1,1 0,2 -1,1 0,1 -3,3 -1,1 -5,0 -1,-1 -1,0 -1,-1 -1,-1 -1,0 -1,-1 -1,0 -1,-1 -1,0 -1,-1 -1,0 -1,-1 -1,-1 -1,0 -1,-1 -2,0 -1,-1 -1,0 -1,-1 -2,0 -1,-1 -2,0 -1,-1 -2,0 -1,-1 -2,0 -1,-1 -2,0 -1,-1 -3,0 -1,-1 -2,0 -1,-1 -2,0 -1,-1 -3,0 -1,-1 -1,0 -1,-1 -1,0 -1,-1 -2,0 -1,-1 -1,0 -1,-1 -1,0 -1,-1 -2,0 -1,-1 -1,0 -1,-1 -2,0 -1,-1 -2,0 -1,-1 -3,0 -1,-1 -3,0 -1,-1 -2,0 -1,-1 -2,0 -1,-1 -1,0 -1,-1 -2,0 -1,-1 -1,0 -1,-1 -1,0 -1,-1 -1,0 -1,-1 -2,0 -1,-1 -1,0 -1,-1 -1,-1 -1,1Z"/>
<path onmouseover="hoverPath(evt)" onmouseout="recoverPath(evt)" fill="rgb(170,198,238)" d="M  119,254l -2,0 0,1 39,0 0,-2 1,-1 2,0 1,-1 2,0 1,-1 2,0 1,-1 2,0 1,-1 3,0 1,-1 2,0 1,-1 2,0 1,-1 3,0 1,-1 2,0 1,-1 2,0 1,-1 3,0 1,-1 2,0 1,-1 2,0 1,-1 3,0 1,-1 2,0 1,-1 3,0 1,-1 3,0 1,-1 2,0 1,-1 2,0 1,-1 2,0 1,-1 3,0 1,-1 2,0 1,-1 2,0 1,-1 2,0 1,-1 3,0 1,-1 2,0 1,-1 2,0 1,-1 2,0 1,-1 3,0 1,-1 2,0 0,-10 -1,0 -1,1 -2,0 -1,1 -2,0 -1,1 -3,0 -1,1 -2,0 -1,1 -2,0 -1,1 -2,0 -1,1 -2,0 -1,1 -3,0 -1,1 -2,0 -1,1 -2,0 -1,1 -3,0 -1,1 -2,0 -1,1 -2,0 -1,1 -3,0 -1,1 -2,0 -1,1 -2,0 -1,1 -3,0 -1,1 -3,0 -1,1 -2,0 -1,1 -3,0 -1,1 -2,0 -1,1 -3,0 -1,1 -2,0 -1,1 -3,0 -1,1 -2,0 -1,1 -3,0 -1,1 -2,0 -1,1 -3,0 -1,1 -1,0 -1,1 -2,0 -1,1 -2,0 -1,1 -2,0 -1,1 -3,0 -1,1 -3,0 -1,1 -3,0 -1,1 -3,0 -1,1 -2,0 -1,1 -2,0 -1,1 -2,0 -1,1 -2,0 -1,1Z"/>
<path onmouseover="hoverPath(evt)" onmouseout="recoverPath(evt)" fill="rgb(244,243,236)" d="M  155,37l -1,0 -1,1 -2,2 -3,0 -1,1 0,2 2,0 1,1 1,1 1,1 0,1 1,0 1,1 1,0 1,1 1,1 1,0 1,1 1,1 1,0 1,1 2,2 1,1 1,1 1,1 1,1 1,0 1,1 0,2 1,1 3,0 1,1 1,1 1,1 1,1 1,1 1,0 1,1 0,1 1,0 1,1 1,1 1,0 1,1 2,0 1,-1 0,0 1,-1 1,-1 1,-1 1,-1 1,-1 1,-1 1,-1 1,0 1,-1 1,-1 1,-1 1,-1 1,-1 1,-1 0,-1 1,-1 1,-1 0,-1 1,-1 0,-1 1,-1 0,-1 1,-1 0,-1 1,-1 0,-6 -1,-1 0,-10 1,-1 0,-1 1,-1 0,-1 1,-1 1,-1 1,0 1,-1 1,-1 1,0 1,-1 1,-1 1,0 1,-1 1,0 1,-1 1,-1 1,0 1,-1 1,-1 1,0 1,-1 1,-1 1,0 1,-1 1,-1 1,-1 1,-1 1,-1 0,-1 1,-1 0,-2 1,-1 0,-4 -100,0 0,2 -1,1 -1,1 -1,1 -1,1 -1,1 -1,0 -1,1 -1,0 0,1 2,0 1,-1 0,0 1,-1 1,-1 1,-1 1,-1 2,0 1,1 0,2 -1,1 -1,1 -1,1 0,1 1,1 0,1 1,1 1,1 1,1 1,0 1,1 1,1 1,1 2,0 1,1 0,1 1,1 1,1 1,1 1,0 1,1 0,1 1,1 1,1 1,1 1,1 0,1 1,1 0,2 -1,1 0,1 -1,1Z"/>
<path onmouseover="hoverPath(evt)" onmouseout="recoverPath(evt)" fill="rgb(244,243,236)" d="M  160,254l -2,0 0,1 97,0 0,-30 -1,0 -1,1 -3,0 -1,1 -2,0 -1,1 -2,0 -1,1 -2,0 -1,1 -3,0 -1,1 -2,0 -1,1 -2,0 -1,1 -2,0 -1,1 -3,0 -1,1 -2,0 -1,1 -2,0 -1,1 -2,0 -1,1 -3,0 -1,1 -3,0 -1,1 -2,0 -1,1 -3,0 -1,1 -2,0 -1,1 -2,0 -1,1 -3,0 -1,1 -2,0 -1,1 -2,0 -1,1 -3,0 -1,1 -2,0 -1,1 -2,0 -1,1 -3,0 -1,1 -2,0 -1,1 -2,0 -1,1 -2,0 -1,1Z"/>
<path onmouseover="hoverPath(evt)" onmouseout="recoverPath(evt)" fill="rgb(240,239,227)" d="M  63,3l 0,0 1,-1 0,-2 -23,0 0,1 1,0 1,1 1,1 1,0 1,1 1,1 1,0 1,1 1,1 1,0 1,1 1,1 1,0 1,1 2,0 1,-1 0,0 1,-1 1,-1 1,-1 0,-1 1,-1 1,-1Z"/>
<path onmouseover="hoverPath(evt)" onmouseout="recoverPath(evt)" fill="rgb(244,243,236)" d="M  188,83l 0,0 -1,1 0,1 -1,1 0,1 -1,1 0,1 -1,1 0,1 -1,1 0,2 -1,1 0,3 -1,1 0,3 -1,1 0,2 -1,1 0,2 -1,1 0,2 -1,1 0,2 -1,1 0,1 -1,1 0,1 -1,1 0,1 -1,1 0,1 -1,1 0,1 -1,1 0,1 -1,1 0,2 -1,1 0,1 -1,1 0,2 -1,1 0,2 -1,1 0,4 2,0 1,1 0,1 1,0 1,1 1,0 1,1 1,1 1,1 2,0 1,1 1,0 1,1 1,0 1,1 0,1 1,0 1,1 1,1 1,0 1,1 1,1 1,1 1,1 1,1 1,1 1,1 1,1 1,1 1,1 1,1 1,1 1,1 1,1 1,1 1,1 1,1 1,1 1,1 0,5 1,0 1,-1 3,0 1,-1 4,0 1,-1 5,0 1,-1 3,0 1,-1 3,0 1,-1 3,0 1,-1 5,0 1,-1 3,0 1,-1 4,0 1,-1 3,0 1,-1 2,0 0,-167 -11,0 0,8 -1,1 0,2 -1,1 -1,1 0,1 -1,1 -1,1 -1,1 -1,0 -1,1 -1,1 -1,1 -1,0 -1,1 -1,1 -1,0 -1,1 -1,1 -1,0 -1,1 -1,0 -1,1 -1,1 -1,0 -1,1 -1,1 -1,0 -1,1 -1,1 -1,1 0,1 -1,1 0,5 1,1 0,12 -1,1 0,1 -1,1 0,1 -1,1 0,1 -1,1 -1,1 -1,1 0,1 -1,1 -1,1 0,1 -1,1 -1,1 -1,1 -1,1 -1,1 -1,1 -1,1 -1,1 -1,0 -1,1 -1,1 -3,3 -1,1 -1,1 -1,0 -1,1 -1,1 -1,1 63,-24 0,2 -1,1 -1,0 -1,1 -2,0 -1,-1 0,-2 1,-1 1,0 1,-1 2,0 1,1 -63,24 56,-20 0,2 -1,1 -2,0 -1,-1 0,-2 1,-1 2,0 1,1 -56,20 51,-17 0,2 -1,1 -1,0 -1,1 -1,0 -1,1 -1,1 -1,0 -1,1 -2,0 -1,-1 0,-2 1,-1 1,0 1,-1 1,-1 1,0 1,-1 1,0 1,-1 2,0 1,1 -51,17 36,-8 0,2 -1,1 -2,0 -1,-1 0,-2 1,-1 2,0 1,1 -36,8 31,-5 0,2 -1,1 -1,0 -1,1 -2,0 -1,-1 0,-2 1,-1 1,0 1,-1 2,0 1,1 -31,5 24,-1 0,2 -1,1 -1,0 -1,1 -2,0 -1,-1 0,-2 1,-1 1,0 1,-1 2,0 1,1 -24,1Z"/>
</svg>