<svg width="256" height="256" xmlns="http://www.w3.org/2000/svg"><script> 
var tempColor;
function hoverPath(evt){
obj = evt.target;
tempColor = obj.getAttribute("fill");
obj.setAttribute("fill","red");
//alert(tempColor);
//obj.setAttribute("stroke","red");}
function recoverPath(evt){
obj = evt.target;
obj.setAttribute("fill", tempColor);
//obj.setAttribute("stroke", tempColor);
}</script><path onmouseover="hoverPath(evt)" onmouseout="recoverPath(evt)" fill="rgb(242,241,231)" d="M  0,112l 0,7 2,0 1,1 1,1 0,1 1,1 2,2 0,1 1,1 1,1 5,0 1,1 1,-1 2,0 1,-1 2,0 1,-1 4,0 1,1 3,0 1,-1 1,0 1,-1 1,0 1,-1 2,0 1,-1 1,0 1,-1 1,0 1,-1 2,0 1,-1 1,0 1,-1 1,0 1,-1 2,0 0,-2 -1,-1 0,-2 -1,-1 0,-2 -1,-1 0,-2 -1,-1 0,-2 -2,0 -1,-1 0,-2 -1,-1 0,-3 1,-1 0,-2 -1,-1 0,-3 -2,0 -1,-1 0,-3 1,-1 0,-2 -1,-1 0,-2 -1,-1 0,-2 -1,-1 0,-1 -2,0 -1,1 -2,0 0,2 -1,1 -2,0 -1,-1 -1,0 -1,1 -1,0 -1,1 -2,0 -1,1 -4,0 -1,1 0,1 1,1 0,2 1,1 0,2 -1,1 -6,0 -1,1 -2,0 -1,1 -3,0 -1,1 1,1 0,2 1,1 1,1 0,1 1,1 0,1 1,1 0,1 1,1 0,1 1,1 0,2 -1,1 -2,0 -1,-1 -2,0 -1,1 -1,0 -1,1 -2,0 0,2 14,0 1,1 0,1 1,1 0,2 -1,1 -2,0 -1,-1 0,-1 -1,-1 0,-2 1,-1 -12,0 21,-17 2,0 1,1 0,2 -1,1 -2,0 -1,-1 0,-2 1,-1 -21,17 26,-7 2,0 1,1 0,1 1,1 0,1 1,1 0,2 -1,1 -2,0 -1,-1 0,-1 -1,-1 0,-1 -1,-1 0,-2 1,-1 -26,7Z"/>
<path onmouseover="hoverPath(evt)" onmouseout="recoverPath(evt)" fill="rgb(253,253,252)" d="M  118,136l -1,0 0,1 1,0 1,-1 2,0 1,-1 1,0 1,-1 1,0 1,-1 1,0 1,-1 1,0 1,-1 2,0 1,-1 1,0 1,-1 1,0 1,-1 1,0 1,-1 1,0 1,-1 1,0 1,-1 2,0 1,-1 1,0 1,-1 1,0 1,-1 1,0 1,-1 1,0 1,-1 2,0 1,-1 1,0 1,-1 1,0 1,-1 1,0 1,-1 1,0 1,-1 2,0 1,-1 1,0 1,-1 1,0 1,-1 1,0 1,-1 1,0 1,-1 1,0 1,-1 2,0 1,-1 1,0 1,-1 1,0 1,-1 1,0 1,-1 1,0 1,-1 2,0 1,-1 1,0 1,-1 1,0 1,-1 1,0 1,-1 1,0 1,-1 2,0 1,-1 1,0 1,-1 1,0 1,-1 1,0 1,-1 1,0 1,-1 1,0 1,-1 2,0 1,-1 1,0 1,-1 1,0 1,-1 1,0 1,-1 2,0 1,-1 1,0 1,-1 1,0 1,-1 1,0 1,-1 1,0 1,-1 2,0 1,-1 1,0 1,-1 1,0 1,-1 1,0 1,-1 1,0 1,-1 2,0 1,-1 1,0 1,-1 1,0 1,-1 1,0 1,-1 2,0 0,-1 -3,0 -2,2 -1,0 -1,1 -2,0 -1,-1 -1,-1 -1,0 0,2 -1,1 -2,0 -1,-1 -1,0 0,4 -1,1 -1,0 -1,1 -3,0 -1,-1 0,-2 -4,0 -1,-1 -1,-1 1,2 2,1 0,4 -1,1 -1,0 -1,1 -1,0 -1,1 -1,0 -1,1 -1,0 -1,1 -2,0 -1,1 -1,0 -1,1 -1,0 -1,1 -1,0 -1,1 -1,0 -1,1 -2,0 -1,1 -1,0 -1,1 -1,0 -1,1 -1,0 -1,1 -1,0 -1,1 -2,0 -1,1 -1,0 -1,1 -1,0 -1,1 -1,0 -1,1 -1,0 -1,1 -2,0 -1,1 -1,0 -1,1 -1,0 -1,1 -1,0 -1,1 -1,0 -1,1 -1,0 -1,1 -2,0 -1,1 -1,0 -1,1 -1,0 -1,1 -1,0 -1,1 -1,0 -1,1 -2,0 -1,1 -1,0 -1,1 -1,0 -1,1 -1,0 -1,1 -1,0 -1,1 -2,0 -1,1 -1,0 -1,1 -1,0 -1,1 -1,0 -1,1 -1,0 -1,1 -1,0 -1,1 -2,0 -1,1 -1,0 -1,1 -1,0 -1,1 -1,0 -1,1 -1,0 -1,1 -2,0 -1,1 -1,0 -1,1 -1,0 -1,1 -1,0 -1,1Z"/>
<path onmouseover="hoverPath(evt)" onmouseout="recoverPath(evt)" fill="rgb(242,241,230)" d="M  0,1l 0,8 2,0 1,1 1,-1 2,0 1,-1 1,0 1,-1 2,0 1,-1 1,0 1,-1 1,0 0,-2 -1,-1 0,-2 -13,0 -1,1Z"/>
<path onmouseover="hoverPath(evt)" onmouseout="recoverPath(evt)" fill="rgb(243,242,233)" d="M  0,65l 0,10 1,0 1,-1 2,0 1,-1 6,0 1,1 1,1 2,0 1,1 1,1 1,-1 1,0 1,-1 2,0 0,-2 1,-1 2,0 1,1 1,0 1,-1 1,0 1,-1 2,0 1,-1 1,0 1,-1 1,0 0,-2 -1,-1 0,-2 -1,-1 0,-3 -1,-1 0,-2 -1,-1 0,-3 -1,-1 0,-2 -2,0 -1,-1 0,-2 1,-1 0,-1 -2,0 -1,-1 0,-2 1,-1 0,-2 -1,-1 0,-2 -1,-1 0,-2 -1,-1 0,-2 -1,-1 0,-2 -1,-1 0,-2 -1,-1 0,-3 -2,0 -1,-1 0,-2 1,-1 0,-1 -1,-1 0,-1 -3,0 -1,1 -2,0 0,2 -1,1 -2,0 -1,-1 -1,0 0,2 -1,1 -2,0 -1,-1 -3,0Z"/>
<path onmouseover="hoverPath(evt)" onmouseout="recoverPath(evt)" fill="rgb(244,243,235)" d="M  0,161l 0,62 1,0 1,-1 2,0 1,-1 1,0 0,-2 -1,-1 0,-1 -1,-1 0,-2 1,-1 2,0 1,1 0,1 1,1 1,1 0,1 3,0 1,-1 1,0 1,-1 2,0 1,-1 1,0 1,-1 1,0 1,-1 2,0 1,-1 1,0 1,-1 1,0 1,-1 2,0 1,-1 1,0 1,-1 1,0 1,-1 1,0 1,-1 1,0 1,-1 2,0 1,-1 1,0 1,-1 1,0 0,-2 -1,-1 0,0 -1,-1 0,-1 -2,-2 -1,-1 0,-1 -1,-1 -1,-1 -1,-1 0,-1 -1,-1 -1,-1 -1,-1 0,-1 -1,-1 -1,-1 -1,-1 -1,-1 0,-1 -1,-1 -1,-1 -1,-1 0,-1 -1,-1 -1,-1 -1,-1 0,-1 -1,-1 -1,-1 -1,-1 -1,-1 0,-1 -1,-1 -1,-1 -1,-1 0,-1 -2,-2 -1,-1 0,-1 -1,-1 -1,-1 -1,-1 0,-1 -1,-1 -1,-1 -1,-1 -1,-1 0,-1 -1,-1 -2,-2 0,-1 -1,-1 -1,-1 -4,0Z"/>
<path onmouseover="hoverPath(evt)" onmouseout="recoverPath(evt)" fill="rgb(252,240,139)" d="M  223,0l -1,0 0,1 1,1 0,1 1,1 0,4 2,0 1,1 0,1 1,0 1,1 0,2 1,1 0,1 1,1 0,1 1,1 2,0 1,1 0,2 1,1 1,1 0,4 2,0 1,1 0,1 1,1 1,1 0,1 1,1 0,1 1,1 1,1 0,2 -1,1 -2,0 1,1 0,0 1,1 0,1 1,0 1,1 0,2 1,0 1,1 0,2 4,0 1,1 1,1 0,1 1,0 0,-24 -4,0 -1,-1 -1,-1 0,-2 1,-1 2,0 -1,-1 0,0 -1,-1 0,-1 -1,-1 0,-1 -1,-1 -1,-1 0,-1 -1,-1 0,-1 -1,-1 -1,-1 0,-1 -4,0 -1,-1 0,-2 -1,0 -1,-1 0,-1 -1,-1 0,-3Z"/>
<path onmouseover="hoverPath(evt)" onmouseout="recoverPath(evt)" fill="rgb(243,242,233)" d="M  0,234l 0,21 27,0 0,-2 1,-1 2,0 -1,-1 0,-2 1,-1 1,0 1,-1 1,0 0,-2 1,-1 2,0 1,1 1,0 1,-1 2,0 1,-1 2,0 1,-1 1,-1 4,0 1,1 1,1 1,-1 3,0 1,-1 1,-1 3,0 1,-1 1,-1 3,0 1,-1 1,-1 3,0 1,-1 0,-1 -1,-1 0,-4 1,-1 0,-1 -2,0 -1,-1 0,-3 -1,0 -1,-1 0,-2 -2,0 -1,-1 0,-4 1,-1 0,-1 -2,0 -1,-1 0,-1 -1,-1 -4,0 -1,-1 0,-1 -1,1 -1,0 -1,1 -1,0 -1,1 -1,0 -1,1 -2,0 -1,1 -1,0 -1,1 -1,0 -1,1 -1,0 -1,1 -2,0 -1,1 -1,0 -1,1 -1,0 -1,1 -2,0 -1,1 -1,0 -1,1 -1,0 -1,1 -1,0 -1,1 -2,0 -1,1 -1,0 -1,1 -1,0 -1,1 -2,0 -1,1 -1,0 -1,1 -1,0 -1,1 -2,0 -1,1 -1,0 -1,1 -1,0 -1,1 -3,0 0,2 25,18 -1,1 -2,0 -1,-1 0,-2 1,-1 2,0 1,1 0,2 -25,-18Z"/>
<path onmouseover="hoverPath(evt)" onmouseout="recoverPath(evt)" fill="rgb(253,253,253)" d="M  8,219l 0,3 -1,1 -1,0 -1,1 -2,0 -1,1 -2,0 0,5 2,0 1,-1 1,0 1,-1 1,0 1,-1 2,0 1,-1 1,0 1,-1 1,0 1,-1 2,0 1,-1 1,0 1,-1 1,0 1,-1 2,0 1,-1 1,0 1,-1 1,0 1,-1 1,0 1,-1 2,0 1,-1 1,0 1,-1 1,0 1,-1 2,0 1,-1 1,0 1,-1 1,0 1,-1 1,0 1,-1 2,0 1,-1 1,0 1,-1 1,0 1,-1 1,0 -1,-1 -1,0 -1,-1 0,-1 -2,0 -1,1 -1,0 -1,1 -1,0 -1,1 -2,0 -1,1 -1,0 -1,1 -1,0 -1,1 -1,0 -1,1 -1,0 -1,1 -2,0 -1,1 -1,0 -1,1 -1,0 -1,1 -2,0 -1,1 -1,0 -1,1 -1,0 -1,1 -2,0 -1,1 -1,0 -1,1 -5,0 -1,-1Z"/>
<path onmouseover="hoverPath(evt)" onmouseout="recoverPath(evt)" fill="rgb(242,240,231)" d="M  50,154l 0,0 -1,1 -2,0 -1,-1 0,-4 -1,-1 -1,-1 0,-1 -4,0 -1,-1 0,-2 1,-1 1,0 0,-3 -1,-1 0,-1 -1,-1 0,-2 -1,-1 0,-1 -2,0 -1,1 -1,0 -1,1 -1,0 -1,1 -1,0 -1,1 -1,0 -1,1 -2,0 0,4 -1,1 1,1 0,1 1,1 1,1 0,1 1,1 1,1 0,1 1,1 1,1 2,0 1,1 0,1 1,1 1,1 0,1 1,1 0,3 -1,1 0,1 1,1 0,0 2,2 0,1 1,1 1,1 1,1 0,1 1,1 1,1 1,1 0,1 1,-1 1,0 1,-1 3,0 1,1 0,2 -1,1 -1,1 -2,0 1,1 0,1 1,1 1,1 1,1 0,1 1,1 2,2 0,1 1,1 1,1 1,1 0,1 1,1 1,1 1,0 1,-1 2,0 1,1 1,-1 2,0 1,-1 1,0 0,-2 1,-1 1,0 1,-1 2,0 1,1 1,0 1,-1 0,-1 -3,0 -1,-1 0,-2 1,-1 7,0 1,-1 1,0 1,-1 2,0 1,-1 1,0 1,-1 1,0 0,-1 1,-1 0,-3 -1,-1 -2,0 -1,1 -2,0 -1,1 -2,0 -1,1 -2,0 -1,-1 0,-2 1,-1 1,0 1,-1 1,0 1,-1 1,0 1,-1 2,0 1,-1 1,-1 1,0 1,-1 2,0 1,-1 1,0 0,-1 -1,-1 0,-1 -1,-1 -1,-1 0,-1 -1,-1 0,-1 -1,-1 -1,-1 0,-1 -1,-1 -1,-1 0,-1 -1,-1 0,-1 -1,-1 0,-2 1,-1 0,-1 1,-1 2,0 -1,-1 0,-1 -2,0 -1,-1 -1,1 -8,0 -1,-1 -1,1 -2,0 0,2 -1,1 -8,0 -1,1 -1,0 -1,1 -1,0 -2,2 -1,1 -1,0 -1,1 -1,0 -1,1 -2,0 -1,1Z"/>
<path onmouseover="hoverPath(evt)" onmouseout="recoverPath(evt)" fill="rgb(185,212,153)" d="M  82,234l 0,0 1,1 0,2 1,1 0,1 1,1 0,1 1,1 0,1 1,1 0,1 1,1 0,2 1,1 0,1 1,1 0,1 1,1 0,2 164,0 0,-84 -2,0 -1,1 -2,0 -1,1 -2,0 -1,1 -1,0 -1,1 -2,0 -1,1 -1,0 -1,1 -2,0 -1,1 -2,0 -1,1 -2,0 -1,1 -2,0 -1,1 -2,0 -1,1 -1,0 -1,1 -2,0 -1,1 -2,0 -1,1 -2,0 -1,1 -1,0 -1,1 -2,0 -1,1 -2,0 -1,1 -2,0 -1,1 -1,0 -1,1 -2,0 -1,1 -2,0 -1,1 -2,0 -1,1 -1,0 -1,1 -2,0 -1,1 -2,0 -1,1 -1,0 -1,1 -2,0 -1,1 -2,0 -1,1 -1,0 -1,1 -2,0 -1,1 -2,0 -1,1 -2,0 -1,1 -2,0 -1,1 -2,0 -1,1 -2,0 -1,1 -1,0 -1,1 -2,0 -1,1 -2,0 -1,1 -2,0 -1,1 -2,0 -1,1 -2,0 -1,1 -2,0 -1,1 -2,0 -1,1 -2,0 -1,1 -1,0 -1,1 -2,0 -1,1 -2,0 -1,1 -2,0 -1,1 -2,0 -1,1 -2,0 -1,1 -1,0 -1,1 -2,0 -1,1 -2,0 -1,1 -1,0 -1,1 -2,0 -1,1 -2,0 -1,1 -1,0 -1,1 -2,0 -1,1 -1,0 -1,1 -2,0 -1,1 -1,0 -1,1 -1,0 -1,1Z"/>
<path onmouseover="hoverPath(evt)" onmouseout="recoverPath(evt)" fill="rgb(252,215,149)" d="M  83,250l 1,1 0,1 1,1 0,2 4,0 0,-1 -1,-1 0,-1 -1,-1 0,-1 -1,-1 0,-2 -1,-1 0,-1 -1,-1 0,-1 -1,-1 0,-1 -1,-1 0,-1 -1,-1 0,-2 -1,-1 0,-3 1,-1 2,0 -1,-1 0,0 -1,-1 0,-1 -2,0 -1,-1 -1,0 -1,-1 -1,0 -1,1 0,2 -1,1 0,2 1,1 0,2 2,0 1,1 0,1 1,1 0,1 1,1 0,1 1,1 0,2 1,1 0,1 1,1 0,1 1,1Z"/>
<path onmouseover="hoverPath(evt)" onmouseout="recoverPath(evt)" fill="rgb(243,242,234)" d="M  91,193l -1,0 0,2 1,1 0,1 1,1 0,4 -1,1 0,1 1,1 0,2 1,1 0,1 2,0 1,1 0,1 1,1 0,2 1,1 0,4 2,0 1,1 0,2 -1,1 0,1 1,0 1,-1 1,0 1,-1 2,0 1,-1 2,0 1,-1 1,0 1,-1 2,0 1,-1 2,0 1,-1 2,0 1,-1 2,0 1,-1 2,0 1,-1 1,0 1,-1 2,0 1,-1 2,0 1,-1 2,0 1,-1 2,0 1,-1 2,0 1,-1 2,0 1,-1 2,0 1,-1 2,0 1,-1 1,0 1,-1 2,0 1,-1 2,0 1,-1 2,0 1,-1 2,0 1,-1 2,0 1,-1 2,0 1,-1 1,0 1,-1 2,0 1,-1 2,0 1,-1 1,0 1,-1 2,0 1,-1 2,0 1,-1 1,0 1,-1 2,0 1,-1 2,0 1,-1 2,0 1,-1 1,0 1,-1 2,0 1,-1 2,0 1,-1 2,0 1,-1 1,0 1,-1 2,0 1,-1 2,0 1,-1 2,0 1,-1 1,0 1,-1 2,0 1,-1 2,0 1,-1 2,0 1,-1 2,0 1,-1 2,0 1,-1 1,0 1,-1 2,0 1,-1 1,0 1,-1 2,0 1,-1 2,0 1,-1 3,0 0,-26 -2,0 -1,1 -1,0 -1,1 -2,0 -1,1 -2,0 -1,-1 0,2 -1,1 0,1 2,0 1,-1 3,0 1,1 0,2 -1,1 -1,0 -1,1 -7,0 -1,-1 -1,-1 0,-1 -1,-1 -1,-1 0,-1 -1,-1 0,-1 -1,-1 0,-1 -1,-1 -1,1 0,2 -1,1 -1,1 0,1 -1,1 -1,1 -2,0 -1,-1 0,-4 1,-1 1,0 0,-1 1,-1 0,-1 -1,-1 0,-1 -1,-1 -1,-1 0,-1 -1,0 -1,-1 -1,0 -1,1 -2,0 -1,1 -1,1 -2,0 -1,-1 -2,0 -1,-1 -1,0 -1,1 -1,0 -1,1 -1,0 -1,1 -1,0 0,2 -1,1 -2,0 -1,-1 -1,1 -1,0 -1,1 -2,0 -1,1 -1,0 -1,1 -2,0 -1,1 -1,0 1,1 0,0 1,1 0,1 1,1 0,2 -1,1 -1,0 -1,1 -2,0 -1,1 -1,0 -1,1 -1,0 -1,1 -2,0 -1,1 -1,0 -1,1 -1,0 -1,1 -1,0 -1,1 -3,0 -1,-1 0,-4 -1,-1 -1,0 -1,1 -2,0 -1,1 -1,0 -1,1 -2,0 -1,1 -1,0 1,1 0,0 1,1 0,2 -1,1 -1,0 -1,1 -3,0 -1,-1 -1,-1 -1,-1 -1,1 -2,0 -1,1 -1,1 -2,0 -1,1 -1,0 -1,1 -1,0 -1,1 -1,0 -1,1 -1,0 -1,1 -1,0 -1,1 0,2 -1,1 -2,0 -1,-1 -1,1 0,2 -1,1 -2,0 -1,-1 -1,1 0,0 -1,1 -1,0 -1,1 -1,0 -1,1 0,2 -1,1 -1,0 -1,1 -2,0 -1,-1 -1,1 -1,0 -1,1 -1,1 -1,0 0,2 -1,1 -1,0 -1,1 -2,0 -1,-1 -1,1 -2,0 -1,1 -1,0 -1,1 -1,0 -1,1 59,-28 1,1 0,2 -1,1 -1,1 -1,1 -2,0 -1,-1 0,-2 3,-3 2,0 -59,28 101,-42 2,0 1,-1 -3,1 -101,42 104,-44 0,-1 -1,-1 0,0 1,2 -104,44 102,-46 -1,0 -1,1 0,1 2,-2 -102,46 110,-50 2,0 1,1 0,2 -1,1 -1,0 -1,1 -2,0 2,-5 -110,50 109,-49 -1,0 -1,1 2,-1 -109,49 15,27 -1,1 -2,0 -1,-1 0,-2 1,-1 2,0 1,1 0,2 -15,-27 16,2 1,-1 2,0 1,1 0,2 -1,1 -2,0 -1,-1 0,-2 -16,-2 21,1 0,-2 1,-1 1,-1 2,0 1,1 0,2 -1,1 -1,1 -2,0 -1,-1 -21,-1 30,-6 1,-1 2,0 1,1 0,2 -1,1 -2,0 -1,-1 0,-2 -30,6Z"/>
<path onmouseover="hoverPath(evt)" onmouseout="recoverPath(evt)" fill="rgb(240,238,227)" d="M  155,65l -3,0 -1,-1 2,2 0,1 1,1 1,1 1,0 1,-1 1,0 1,-1 1,0 1,-1 2,0 1,-1 1,0 1,-1 1,0 1,-1 1,0 1,-1 1,0 1,-1 2,0 1,-1 1,0 1,-1 1,0 1,-1 1,0 1,-1 1,0 1,-1 2,0 1,-1 1,0 1,-1 1,0 1,-1 2,0 1,-1 1,0 1,-1 1,0 1,-1 2,0 1,-1 1,0 1,-1 1,0 1,-1 1,0 1,-1 2,0 1,-1 1,0 1,-1 1,0 1,-1 2,0 1,-1 1,0 1,-1 1,0 1,-1 2,0 1,-1 1,0 1,-1 1,-1 1,0 1,-1 1,0 2,-2 0,-1 1,-1 1,0 1,-1 0,-1 1,-1 0,-5 -1,-1 -1,0 -1,1 -3,0 -1,1 -4,0 -1,-1 0,-2 -1,-1 0,-2 -1,-1 -1,-1 -1,-1 0,-1 -1,0 -1,-1 -7,0 0,2 -1,1 -2,0 -1,-1 -1,1 -1,0 -1,1 -1,0 -1,1 -1,0 -1,1 -1,0 -1,1 -1,0 -1,1 -1,0 0,2 -1,1 1,1 0,2 2,0 1,1 0,2 -1,1 0,2 -1,1 -2,0 -1,-1 -1,0 -1,1 -1,0 -1,1 -2,0 -1,1 -1,0 -1,1 -1,1 -3,0 -1,1 0,3 1,1 0,2 -1,1 -3,3 -1,1 -3,0 -1,-1 -5,0 0,2 -1,1 -2,0 -1,1 -2,0 -1,1 -1,0 -1,1 -2,0 -1,1 0,2 1,1 3,0 1,1 0,2 -1,1 -1,0 -1,1 28,-25 2,0 1,1 0,2 -1,1 -2,0 -1,-1 0,-2 1,-1 -28,25 57,-45 1,0 1,-1 2,0 1,1 0,2 -1,1 -1,0 -1,1 -2,0 -1,-1 0,-2 1,-1 -57,45 48,-41 2,0 1,1 0,2 -1,1 -2,0 -1,-1 0,-2 1,-1 -48,41 59,-37 1,0 1,1 0,2 -1,1 -2,0 -1,-1 0,-2 1,-1 1,0 -59,37Z"/>
<path onmouseover="hoverPath(evt)" onmouseout="recoverPath(evt)" fill="rgb(243,241,233)" d="M  34,43l 0,1 1,1 0,2 1,1 0,2 1,1 0,2 1,1 0,3 1,1 0,2 1,1 0,3 1,1 0,2 2,0 1,1 0,3 -1,1 0,2 2,0 1,1 0,3 -1,1 0,1 1,1 0,3 1,1 0,2 1,1 0,3 1,1 0,2 1,1 2,0 1,-1 2,0 1,1 0,2 -1,1 -1,0 -1,1 -1,0 0,5 1,1 0,2 1,1 0,1 1,1 0,2 2,0 1,-1 1,0 1,-1 1,0 1,-1 2,0 1,-1 1,0 1,-1 1,0 1,-1 2,0 1,-1 1,0 1,-1 1,0 1,-1 2,0 1,-1 1,0 1,-1 1,0 1,-1 1,0 1,-1 2,0 1,-1 1,0 1,-1 1,0 1,-1 1,0 1,-1 2,0 1,-1 1,0 1,-1 1,0 0,-2 1,-1 2,0 1,1 1,0 1,-1 1,0 1,-1 1,0 0,-5 -1,-1 0,-2 1,-1 2,0 1,1 0,1 1,1 0,4 1,-1 2,0 1,-1 1,0 1,-1 1,0 1,-1 2,0 1,-1 1,0 1,-1 1,0 1,-1 2,0 1,-1 1,0 1,-1 1,0 1,-1 1,0 1,-1 2,0 1,-1 1,0 1,-1 2,0 1,-1 1,0 1,-1 2,0 0,-2 -1,-1 0,0 -1,-1 0,-1 -1,-1 -1,-1 0,-1 -1,-1 0,-1 -1,-1 -1,0 -1,1 -2,0 -1,1 -2,0 -1,-1 0,-2 1,-1 1,0 1,-1 1,0 1,-1 1,0 0,-2 -1,-1 0,-1 -1,-1 0,-1 -1,-1 0,-1 -1,-1 0,-1 -1,-1 0,-1 -1,-1 0,-3 1,-1 3,0 1,1 0,1 1,1 0,1 1,1 0,1 1,1 0,1 1,1 0,1 1,0 1,-1 0,-4 1,-1 1,0 1,-1 0,-2 1,-1 1,0 1,-1 1,0 1,-1 2,0 1,1 0,2 -1,1 1,1 0,0 1,1 0,2 -1,1 -1,0 -1,1 0,2 -1,1 1,0 1,-1 1,0 1,-1 5,0 1,-1 7,0 1,1 1,0 1,-1 3,-3 -1,-1 0,-3 -2,0 -1,-1 0,-2 1,-1 1,0 1,-1 2,0 1,1 2,0 1,-1 0,-1 -1,-1 0,-2 -1,-1 0,-1 -1,-1 0,-2 1,-1 1,0 1,-1 2,0 1,1 0,1 1,1 0,2 1,1 0,2 -1,1 1,0 1,-1 1,0 1,-1 1,0 0,-2 1,-1 0,-2 -1,-1 0,-1 -1,-1 0,-2 1,-1 1,0 1,-1 1,0 1,-1 1,0 1,-1 1,0 1,-1 1,0 1,-1 1,0 1,-1 1,0 1,-1 1,0 1,-1 1,0 1,-1 9,0 1,1 1,0 1,1 0,1 1,1 1,1 1,1 0,2 1,1 0,2 2,0 1,-1 3,0 1,-1 1,0 0,-1 -2,0 -1,-1 -1,-1 0,-1 -1,-1 0,-1 -1,-1 0,-2 -1,0 -1,-1 0,-1 -2,0 -1,-1 0,-4 -1,-1 0,-1 -1,-1 0,-2 -175,0 0,2 -1,1 -2,0 -1,1 1,1 1,1 0,1 1,1 0,5 -1,1 -1,1 -3,0 -1,-1 -1,0 0,2 -1,1 -1,0 -1,1 -1,1 -1,0 -1,1 -1,1 -3,0 0,2 1,1 0,2 1,1 0,2 1,1 0,2 1,1 0,2 1,1 0,1 2,0 0,-3 1,-1 2,0 1,1 0,1 6,0 1,1 0,2 -1,1 -2,0 -1,1 -2,0 -1,1 -4,0 0,2 138,-8 -1,0 -1,1 -2,0 -1,-1 0,-2 1,-1 1,0 1,-1 2,0 1,1 0,2 -1,1 -138,8 133,2 -2,0 -1,-1 0,-1 -1,-1 -2,-2 0,-2 1,-1 2,0 1,1 1,1 1,1 0,1 1,1 0,2 -1,1 -133,-2 89,35 -1,1 -1,0 -1,1 -2,0 -1,-1 0,-2 1,-1 1,0 1,-1 2,0 1,1 0,2 -89,-35 73,34 -1,1 -1,0 -1,1 -2,0 -1,-1 0,-2 1,-1 1,0 1,-1 2,0 1,1 0,-2 1,-1 1,0 1,-1 2,0 1,1 0,2 -1,1 -1,0 -1,1 -2,0 -1,1 -73,-34 11,-15 -1,-1 0,-2 1,-1 1,0 1,-1 2,0 1,1 0,2 -1,1 -1,0 -1,1 -2,0 -11,15 60,28 -1,1 -2,0 -1,-1 0,-2 1,-1 2,0 1,1 0,2 -60,-28 20,-22 0,-2 1,-1 2,0 1,1 0,2 -1,1 -2,0 -1,-1 -20,22 65,17 -1,1 -1,0 -1,1 -1,1 -2,0 -1,-1 0,-2 1,-1 1,-1 1,0 1,-1 1,-1 2,0 1,1 0,2 -1,1 -65,-17 32,33 -1,-1 0,-2 1,-1 2,0 1,1 0,2 -1,1 -2,0 -32,-33 72,10 0,-2 1,-1 2,0 1,1 0,2 -1,1 -2,0 -1,-1 -72,-10 31,25 0,-2 1,-1 2,0 1,1 0,2 -1,1 -2,0 -1,-1 -31,-25Z"/>
<path onmouseover="hoverPath(evt)" onmouseout="recoverPath(evt)" fill="rgb(242,240,231)" d="M  43,131l -1,0 0,3 -1,1 0,1 1,1 0,1 1,1 0,5 -1,1 3,0 1,1 0,1 1,1 1,1 0,4 1,-2 0,0 1,-1 2,0 0,-2 1,-1 2,0 1,1 1,-1 0,0 1,-1 1,-1 1,0 1,-1 1,0 1,-1 8,0 0,-2 1,-1 2,0 1,-1 2,0 1,1 6,0 1,-1 1,0 1,-1 2,0 1,1 0,1 1,1 0,1 1,1 0,1 1,1 0,1 1,1 1,1 0,2 1,1 1,1 0,1 1,1 1,1 0,1 2,0 1,1 0,2 -1,1 1,0 1,1 1,0 1,-1 1,0 1,-1 0,-2 1,-1 2,0 1,1 1,-1 1,-1 0,-1 -1,-1 0,-2 -1,-1 0,-1 -1,-1 -2,0 -1,-1 0,-1 -1,-1 0,-1 -1,-1 -1,-1 0,-1 -1,-1 0,-1 -1,-1 0,-1 -1,-1 0,-2 1,-1 -2,0 -1,-1 -1,-1 0,-1 -1,-1 0,-1 -1,-1 0,-2 1,-1 0,-1 -1,-1 0,0 -1,-1 0,-1 -2,0 -2,-2 0,-1 -1,-1 0,-1 -1,-1 -1,-1 -1,0 -1,-1 -1,0 -1,1 -2,0 -1,1 -1,0 -1,1 -2,0 -1,1 -1,0 -1,1 -1,0 -1,1 -1,0 -1,1 -1,0 -1,1 -1,0 -1,1 -2,0 -1,1 -1,0 -1,1 -1,0 -1,1 -1,0 -1,1 -1,0 -1,1 -1,0 -1,1 -2,0 -1,1 -1,0 -1,1 -2,0 -1,1 -1,0 -1,1 17,9 -2,0 -1,-1 0,-2 1,-1 2,0 1,1 0,2 -1,1 -17,-9 29,4 -2,0 -1,-1 0,-2 1,-1 2,0 1,1 0,2 -1,1 -29,-4 41,-5 1,1 0,2 -1,1 -2,0 -1,-1 0,-2 1,-1 2,0 -41,5Z"/>
<path onmouseover="hoverPath(evt)" onmouseout="recoverPath(evt)" fill="rgb(240,238,226)" d="M  236,115l 0,0 -1,1 -1,1 -3,3 -1,1 -1,1 -1,1 0,1 1,0 1,1 3,0 1,1 1,0 0,-2 1,-1 2,0 1,1 1,0 1,-1 1,0 0,-2 1,-1 1,0 1,-1 2,0 1,-1 0,-2 2,-2 1,-1 1,0 1,-1 2,0 0,-15 -1,0 -1,1 0,0 -3,3 -1,1 -6,6 -1,1 -1,1 0,1 -1,1 -1,1 -1,1 -1,0 -1,1Z"/>
<path onmouseover="hoverPath(evt)" onmouseout="recoverPath(evt)" fill="rgb(244,243,234)" d="M  239,4l 1,0 1,1 0,2 4,0 1,1 0,1 1,1 1,1 0,1 1,1 0,1 1,1 1,1 0,1 1,1 0,1 1,1 1,1 0,2 -1,1 -2,0 1,1 3,0 0,-25 -17,0 0,2 1,1Z"/>
<path onmouseover="hoverPath(evt)" onmouseout="recoverPath(evt)" fill="rgb(245,243,236)" d="M  102,172l -1,0 -1,-1 -1,-1 0,-2 1,-1 0,-4 1,-1 -2,0 -1,-1 0,-2 1,-1 -1,0 -1,-1 0,-1 -1,-1 -1,-1 0,-1 -1,-1 -1,-1 0,-2 -1,-1 -1,-1 0,-1 -2,0 0,1 -1,1 1,1 0,1 1,1 0,1 1,1 1,1 0,1 1,1 1,1 0,1 1,1 0,1 1,1 1,1 0,1 1,1 0,3 -1,1 -1,0 -1,1 -2,0 -1,1 -1,0 -1,1 -1,1 -2,0 -1,1 -1,0 -1,1 -1,0 4,-1 0,0 3,-1 2,0 1,1 2,0 1,1 0,7 1,-1 2,0 1,-1 1,0 1,-1 1,0 1,-1 1,-1 1,0 1,-1 1,-1 0,-1 1,-1 -1,0 -1,-1 -3,0 -1,1Z"/>
<path onmouseover="hoverPath(evt)" onmouseout="recoverPath(evt)" fill="rgb(243,242,233)" d="M  103,163l 0,0 -1,1 0,3 1,1 1,1 4,0 1,1 1,0 1,1 3,0 0,-2 1,-1 2,0 1,1 1,-1 1,0 1,-1 0,-2 1,-1 2,0 1,1 1,-1 1,-1 1,0 1,-1 1,0 1,-1 1,0 1,-1 1,-1 1,0 1,-1 2,0 1,-1 1,0 1,-1 1,0 1,-1 1,0 1,-1 2,0 1,-1 1,0 1,-1 1,0 0,-2 1,-1 2,0 1,1 1,-1 2,0 1,-1 1,0 1,-1 2,0 0,-2 1,-1 2,0 1,1 1,0 0,-2 1,-1 2,0 1,1 1,0 0,-2 1,-1 2,0 1,1 1,0 1,-1 1,0 1,-1 2,0 1,-1 1,0 1,-1 2,0 1,-1 2,0 1,-1 1,0 1,-1 1,0 1,-1 1,0 0,-2 1,-1 1,0 1,-1 2,0 1,1 1,-1 2,0 1,-1 1,-1 1,0 1,-1 0,-1 1,-1 0,-1 2,-2 1,-1 4,0 1,-1 1,-1 1,-1 0,-1 1,-1 1,0 1,-1 1,-1 1,-1 1,-1 1,-1 1,-1 1,-1 1,-1 1,-1 1,-1 1,-1 1,-1 1,-1 1,-1 1,-1 1,-1 1,-1 1,-1 1,-1 1,-1 1,-1 1,-1 1,-1 1,-1 1,-1 1,-1 1,-1 1,-1 1,-1 1,-1 2,0 0,-8 -1,0 -1,1 -1,0 -1,1 -1,0 -1,1 -1,0 -1,1 -2,0 -1,1 -1,0 -1,1 -1,0 -1,1 -1,0 -1,1 -1,0 -1,1 -2,0 -1,1 -1,0 -1,1 -1,0 -1,1 -1,0 -1,1 -1,0 -1,1 -2,0 -1,1 -1,0 -1,1 -1,0 -1,1 -1,0 -1,1 -2,0 -1,1 -1,0 -1,1 -1,0 -1,1 -1,0 -1,1 -1,0 -1,1 -1,0 -1,1 -2,0 -1,1 -1,0 -1,1 -1,0 -1,1 -1,0 -1,1 -1,0 -1,1 -2,0 -1,1 -1,0 -1,1 -1,0 -1,1 -1,0 -1,1 -1,0 -1,1 -2,0 -1,1 -1,0 -1,1 -1,0 -1,1 -1,0 -1,1 -1,0 -1,1 -1,0 -1,1 -2,0 -1,1 -1,0 -1,1 -1,0 -1,1 -1,0 -1,1 -1,0 -1,1 -2,0 -1,1 -1,0 -1,1 -1,0 -1,1 -1,0 -1,1 -1,0 -1,1 -2,0 -1,1 -1,0 -1,1 -1,0 -1,1 -1,0 -1,1 -1,0 -1,1 -1,0 -1,1 -2,0 -1,1 -1,0 -1,1 -1,0 -1,1 -1,0 -1,1 -1,0 -1,1 -2,0 -1,1 -3,0 -1,-1 0,-3 1,-1 1,0 1,-1 1,0 1,-1 1,0 1,-1 1,0 1,-1 2,0 1,-1 1,0 1,-1 1,0 1,-1 1,0 1,-1 1,0 1,-1 2,0 1,-1 1,0 1,-1 1,0 1,-1 1,0 1,-1 1,0 1,-1 1,0 1,-1 2,0 1,-1 1,0 1,-1 1,0 1,-1 1,0 1,-1 1,0 1,-1 2,0 1,-1 1,0 1,-1 1,0 1,-1 1,0 1,-1 1,0 1,-1 2,0 1,-1 1,0 1,-1 1,0 1,-1 1,0 1,-1 1,0 1,-1 1,0 1,-1 2,0 1,-1 1,0 1,-1 1,0 1,-1 1,0 1,-1 1,0 1,-1 2,0 1,-1 1,0 1,-1 1,0 1,-1 1,0 1,-1 1,0 1,-1 2,0 1,-1 1,0 1,-1 1,0 1,-1 1,0 1,-1 1,0 1,-1 2,0 1,-1 1,0 1,-1 1,0 1,-1 1,0 1,-1 1,0 0,-2 -1,0 -1,-1 0,-1 -1,-1 0,-2 1,-1 2,0 1,1 1,1 4,0 1,1 0,2 1,0 1,-1 1,0 0,-4 1,-1 3,0 1,1 0,-2 1,-1 3,0 1,1 1,1 1,-1 1,0 1,-1 1,-1 4,0 0,-19 -2,0 -1,-1 0,-1 -1,-1 -4,0 -1,-1 0,-2 -1,0 -1,-1 0,-2 -1,0 -1,-1 0,-1 -1,-1 -1,-1 -1,1 -1,0 -1,1 -2,0 -1,1 -2,0 -1,-1 -1,0 -1,1 -1,0 -1,1 -1,1 -2,0 -1,1 -1,0 -1,1 -1,0 -1,1 -2,0 -1,1 -1,0 -1,1 -1,0 -1,1 -1,0 0,2 -1,1 -1,0 -1,1 -1,0 -1,1 -2,0 -1,1 -1,0 -1,1 -1,0 -1,1 -1,0 -1,1 -2,0 -1,1 -1,0 -1,1 -1,0 -1,1 -1,0 -1,1 -2,0 -1,1 -1,0 -1,1 -1,0 -1,1 -1,0 -1,1 -1,0 -1,1 -2,0 -1,1 -1,0 -1,1 -1,0 -1,1 -2,0 -1,1 -1,0 -1,1 -1,0 -1,1 -2,0 -1,1 -1,0 -1,1 -2,0 -1,-1 -1,0 -1,1 -1,0 -1,1 -3,0 -1,1 0,2 -1,1 -1,0 -1,1 -1,0 -1,1 -1,0 -1,1 -2,0 -1,1 -2,0 -1,1 -1,0 -1,1 -1,0 -1,1 -1,0 -1,1 -2,0 -1,1 -1,0 -1,1 -1,0 -1,1 -1,0 -1,1 -2,0 -1,1 -1,0 -1,1 -1,0 -1,1 -1,0 -1,1 -1,0 -1,1 -2,0 -2,2 -1,0 -1,1 -2,0 -1,1 -2,0 -1,1 -1,0 -1,1 -1,1 -2,0 -1,1 -1,0 -1,1 -1,0 1,1 0,2 1,0 1,1 1,1 2,0 1,1 0,2 -1,1 1,1 2,0 1,1 0,1 1,1 1,1 0,3 -1,1 1,1 0,1 1,1 0,1 1,1 2,0 1,1 0,1 1,1 0,2 -1,1 1,1 0,1 1,1 0,1 1,1 2,0 1,1 0,1 1,1 0,1 1,1 1,1 0,1 1,1 0,2 1,1 0,3 -1,1 -1,1 -1,1 -2,0 -1,-1 0,2 -1,1 -1,1 -1,0 -1,1 -2,0 136,-112 0,2 -1,1 -2,0 -1,-1 0,-2 1,-1 2,0 1,1 -136,112 143,-96 -2,0 -1,-1 0,-2 1,-1 2,0 1,1 0,2 -1,1 -143,96 112,-100 1,-1 2,0 1,1 0,2 -1,1 -2,0 -1,-1 0,-2 -112,100Z"/>
<path onmouseover="hoverPath(evt)" onmouseout="recoverPath(evt)" fill="rgb(243,245,245)" d="M  20,78l -1,0 -1,1 3,0 1,-1 2,0 1,-1 1,0 1,-1 3,0 1,1 0,-2 1,-1 2,0 1,-1 4,0 1,1 0,1 1,1 0,2 1,1 0,2 1,1 0,4 -1,1 0,1 2,0 1,1 0,3 1,1 0,4 -1,1 0,1 1,1 0,2 2,0 1,1 0,2 1,1 0,2 1,1 0,2 1,1 0,2 1,1 0,2 2,0 1,-1 1,0 1,-1 1,0 1,-1 4,0 1,1 0,2 -1,1 -1,1 2,0 1,-1 1,0 1,-1 1,0 1,-1 1,0 1,-1 1,0 1,-1 1,0 1,-1 2,0 1,-1 1,0 1,-1 2,0 1,-1 2,0 -1,-1 0,-2 1,-1 1,0 1,-1 1,0 1,-1 2,0 1,-1 1,-1 1,0 1,-1 2,0 1,-1 2,0 1,-1 1,0 1,-1 1,-1 2,0 1,-1 1,0 1,-1 1,0 1,-1 1,0 1,-1 1,0 1,-1 2,0 1,-1 1,0 1,-1 1,0 1,-1 1,0 1,-1 2,0 1,-1 1,0 1,-1 1,0 1,-1 1,0 1,-1 2,0 1,-1 2,0 1,-1 1,0 1,-1 1,0 1,-1 1,0 0,-2 1,-1 1,-1 3,0 1,-1 1,0 1,-1 3,0 1,1 1,-1 1,0 1,-1 2,0 1,-1 1,0 1,-1 1,0 1,-1 2,0 1,-1 1,0 1,-1 1,0 1,-1 2,0 1,-1 1,0 1,-1 1,0 1,-1 1,0 1,-1 1,0 1,-1 2,0 1,-1 1,0 1,-1 1,0 1,-1 1,0 1,-1 2,0 1,-1 1,0 1,-1 1,0 1,-1 1,0 1,-1 2,0 1,-1 1,0 1,-1 1,0 0,-2 1,-1 1,0 1,-1 1,0 1,-1 1,0 1,-1 2,0 1,-1 1,0 1,-1 1,0 1,-1 2,0 1,-1 1,-1 1,0 1,-1 3,0 1,1 1,-1 2,0 1,-1 1,0 1,-1 1,0 1,-1 2,0 -1,-1 -1,-1 0,-1 -1,-1 0,-1 -1,-1 -1,-1 0,-1 -1,0 0,1 -1,1 0,1 -1,1 -1,1 -1,0 0,1 -2,2 -1,1 -1,0 -1,1 -1,0 -2,2 -1,0 -1,1 -2,0 -1,1 -1,0 -1,1 -1,0 -1,1 -2,0 -1,1 -1,0 -1,1 -1,0 -1,1 -2,0 -1,1 -1,0 -1,1 -1,0 -1,1 -1,0 -1,1 -2,0 -1,1 -1,0 -1,1 -1,0 -1,1 -2,0 -1,1 -1,0 -1,1 -1,0 -1,1 -2,0 -1,1 -1,0 -1,1 -1,0 -1,1 -1,0 -1,1 -1,0 -1,1 -2,0 -1,1 -1,0 -1,1 -1,0 -1,1 -1,0 -1,1 -1,0 -1,1 -2,0 -1,1 -1,0 -1,1 -1,0 -1,1 -3,0 -1,-1 -1,-1 -1,-1 0,-1 -1,-1 -1,-1 0,-2 1,-1 2,0 0,-1 -1,-1 0,-4 1,-1 1,-1 2,0 1,-1 1,0 1,-1 2,0 1,-1 -2,0 -2,1 -2,1 -2,0 -1,-1 0,-2 1,-1 0,-1 -3,-3 -1,1 -1,0 0,4 -1,1 -1,1 -3,0 -1,-1 0,-1 -1,-1 0,-1 -1,-1 0,-1 -1,-1 0,-1 -1,-1 0,-1 -1,0 0,1 1,1 0,1 1,1 0,1 1,1 0,1 1,1 0,1 1,1 0,1 1,1 0,4 -1,1 2,0 1,1 1,1 0,1 1,1 0,1 1,1 1,1 0,1 1,1 1,1 0,4 -1,1 -2,0 -1,1 -1,0 -1,1 -2,0 -1,1 -1,0 -1,1 -2,0 -1,1 -1,0 -1,1 -1,0 -1,1 -1,0 -1,1 -2,0 -1,1 -1,0 -1,1 -1,0 -1,1 -2,0 -1,1 -1,0 -1,1 -1,0 -1,1 -2,0 -1,1 -2,0 -1,-1 0,2 -1,1 -1,0 -1,1 -1,0 -1,1 -3,0 -1,-1 0,2 -1,1 -1,0 -1,1 -1,0 -1,1 -2,0 -1,1 -1,0 -1,1 -1,0 -1,1 -1,0 -1,1 -2,0 -1,1 -1,0 -1,1 -1,0 -1,1 -1,0 -1,1 -2,0 -1,1 -1,0 -1,1 -1,0 -1,1 -2,0 -1,1 -1,0 -1,1 -1,0 -1,1 -2,0 -1,1 -1,0 -1,1 -1,0 -1,1 -4,0 -1,-1 0,-2 -1,-1 0,-1 -1,-1 0,-2 -1,-1 0,-7 1,-1 -2,0 -1,-1 -1,-1 0,-2 -1,-1 0,-3 -1,-1 0,-2 -1,-1 0,-3 -1,-1 0,-3 1,-1 0,-1 -2,0 -1,-1 0,-4 1,-1 0,-1 -2,0 -1,-1 0,-2 -1,-1 0,-3 -1,-1 0,-2 -1,-1 0,-3 -1,-1 0,-2 -1,-1 0,-2 -1,-1 0,-2 -1,-1 0,-5 1,-1 4,0 1,-1 2,0 1,-1 -4,0 -1,-1 0,2 -4,1 -1,0 -1,-1 0,-1 -1,-1 0,-2 -1,-1 0,-2 -1,-1 0,-2 -1,-1 0,-2 -1,-1 0,-4 1,-1 3,0 1,-1 1,-1 1,0 1,-1 1,-1 1,0 0,-2 1,-1 3,0 1,1 1,0 1,-1 0,-3 -1,-1 0,-1 -1,-1 -1,-1 0,-2 1,-1 1,-1 2,0 0,-1 -27,0 0,1 1,1 0,4 -1,1 -1,0 -1,1 -1,0 -1,1 -2,0 -1,1 -1,0 -1,1 -2,0 -1,1 -2,0 -1,-1 -1,0 0,5 4,0 1,1 0,-2 1,-1 3,0 1,1 0,-2 1,-1 2,0 1,-1 5,0 1,1 0,1 1,1 0,3 -1,1 2,0 1,1 0,3 1,1 0,2 1,1 0,2 1,1 0,2 1,1 0,2 1,1 0,2 1,1 0,4 -1,1 2,0 1,1 0,3 -1,1 2,0 1,1 0,2 1,1 0,3 1,1 0,2 1,1 0,3 1,1 0,2 1,1 0,4 -1,1 -1,0 -1,1 -1,0 -1,1 -2,0 -1,1 -1,0 -1,1 -3,0 -1,-1 0,2 -1,1 -2,0 -1,1 133,-16 0,1 1,0 1,-1 -2,0 -133,16 42,41 -1,1 -1,0 -1,1 -1,0 -1,1 -2,0 -1,1 -1,0 -1,1 -2,0 -1,1 -1,0 -1,1 -1,0 -1,1 -2,0 -1,1 -1,0 -1,1 -2,0 -1,1 -1,0 -1,1 -1,0 -1,1 -1,0 -1,1 -2,0 -1,1 -1,0 -1,1 -2,0 -1,1 -1,0 0,4 1,1 0,-4 1,-1 2,0 1,-1 1,0 1,-1 1,0 2,-1 2,-1 2,-1 3,0 1,1 0,-2 1,-1 1,0 1,-1 1,0 18,-9 -42,-41 33,46 1,0 1,-1 1,0 -3,1 -33,-46Z"/>
<path onmouseover="hoverPath(evt)" onmouseout="recoverPath(evt)" fill="rgb(184,209,182)" d="M  31,254l -2,0 0,1 54,0 0,-1 -1,-1 0,-1 -1,-1 0,-1 -1,-1 0,-1 -1,-1 0,-1 -1,-1 0,-2 -1,-1 0,-1 -1,-1 0,-1 -1,-1 0,-1 -2,0 -1,1 -3,0 -1,1 -1,1 -3,0 -1,1 -1,1 -3,0 -1,1 -1,1 -3,0 -1,1 -2,0 -1,-1 -1,-1 -2,0 -1,1 -1,1 -2,0 -1,1 -2,0 -1,1 -2,0 -1,1 -1,0 -1,1 -1,0 -1,1 -1,0 1,1 0,2 -1,1Z"/>
<path onmouseover="hoverPath(evt)" onmouseout="recoverPath(evt)" fill="rgb(231,226,206)" d="M  182,30l 0,0 1,1 0,2 1,0 1,-1 0,0 -1,-1 0,-2 -1,0 -1,1Z"/>
<path onmouseover="hoverPath(evt)" onmouseout="recoverPath(evt)" fill="rgb(241,238,228)" d="M  4,76l -1,0 -1,1 -2,0 0,31 1,0 1,-1 1,0 1,-1 3,0 1,-1 -1,-1 0,-1 -1,-1 0,-1 -1,-1 0,-1 -1,-1 -1,-1 0,-2 -1,-1 0,-2 1,-1 1,-1 3,0 1,-1 2,0 1,-1 6,0 -1,-1 0,-2 -1,-1 0,-3 1,-1 0,-1 -1,-1 -1,-1 -2,0 -1,-1 -1,-1 -4,0 -1,1Z"/>
<path onmouseover="hoverPath(evt)" onmouseout="recoverPath(evt)" fill="rgb(236,222,168)" d="M  32,156l 0,-1 -2,0 -1,-1 -1,-1 -1,-1 0,-1 -1,-1 -1,-1 0,-1 -1,-1 -1,-1 0,-1 -1,-1 0,-1 -1,-1 -1,-1 0,-6 1,-1 1,0 1,-1 2,0 1,-1 1,0 1,-1 2,0 1,-1 1,0 1,-1 1,0 1,-1 1,0 1,-1 2,0 1,-1 1,0 1,-1 2,0 1,-1 1,0 1,-1 1,0 1,-1 2,0 1,-1 1,0 1,-1 2,0 1,-1 1,0 1,-1 1,0 1,-1 1,0 1,-1 -2,0 -1,1 -1,0 -1,1 -1,0 -1,1 -3,0 -1,1 -2,0 -1,1 -1,0 -1,1 -1,0 -1,1 -2,0 -1,1 -1,0 -1,1 -1,0 -1,1 -2,0 -1,1 -1,0 -1,1 -1,0 -1,1 -2,0 -1,1 -2,0 -1,-1 0,-1 -2,0 -1,1 -2,0 -1,1 -2,0 -1,1 -2,0 -1,-1 -5,0 -1,-1 -1,-1 -1,-1 0,-1 -2,-2 -1,-1 0,-1 -1,-1 -1,0 0,22 5,0 1,1 1,1 1,1 0,1 1,1 1,1 1,1 0,1 1,1 1,1 1,1 1,1 0,1 1,1 1,1 1,1 0,1 1,1 1,1 1,1 0,1 1,1 1,1 1,1 0,1 1,1 1,1 2,2 0,1 3,3 0,1 1,1 1,1 1,1 0,1 1,1 1,1 1,1 1,1 0,1 1,1 1,1 1,1 0,1 1,1 1,1 1,1 0,1 3,3 0,1 1,1 1,1 0,2 3,0 1,1 0,1 1,0 1,1 1,1 1,0 0,-1 1,-1 3,0 0,-1 -1,-1 0,-4 1,-1 -2,0 -1,-1 -1,-1 -1,-1 0,-1 -1,-1 -1,-1 -1,-1 0,-1 -1,-1 -1,-1 -1,-1 0,-1 -1,-1 -1,-1 -1,-1 0,-1 -1,-1 0,-2 -2,0 -1,-1 0,-1 -1,-1 -1,-1 -1,-1 0,-1 -1,-1 -1,-1 -1,-1 0,-1 -1,-1 -1,-1 -1,-1 0,-3 1,-1 0,-1 -1,-1 0,-1 -1,-1 -1,-1 16,21 1,0 1,-1 -1,0 -1,1 -16,-21Z"/>
<path onmouseover="hoverPath(evt)" onmouseout="recoverPath(evt)" fill="rgb(251,251,248)" d="M  62,199l 0,2 1,1 0,1 1,0 1,-1 1,0 1,-1 1,0 1,-1 1,0 1,-1 2,0 1,-1 1,0 1,-1 1,0 1,-1 1,0 1,-1 2,0 1,-1 4,0 1,1 0,-3 1,-1 1,0 1,-1 1,0 1,-1 1,0 1,-1 2,0 1,-1 2,0 1,1 1,-1 1,0 0,-2 1,-1 1,0 1,-1 1,-1 1,0 1,-1 2,0 1,1 1,-1 1,0 0,-2 1,-1 1,-1 1,0 1,-1 1,0 1,-1 1,-1 2,0 1,1 0,-2 1,-1 1,-1 2,0 1,1 0,-2 1,-1 1,-1 1,0 1,-1 1,0 1,-1 1,0 1,-1 1,0 1,-1 1,0 1,-1 2,0 1,-1 1,-1 2,0 1,-1 2,0 1,1 1,1 1,1 1,0 1,-1 1,0 -1,-1 0,0 -1,-1 0,-2 1,-1 1,0 1,-1 2,0 1,-1 1,0 1,-1 2,0 1,-1 3,0 1,1 1,1 0,4 1,0 1,-1 1,0 1,-1 1,0 0,-2 1,-1 2,0 1,1 1,0 1,-1 1,0 0,-2 1,-1 2,0 1,1 1,0 1,-1 1,0 -1,-1 0,-1 -1,-1 -1,-1 0,-2 1,-1 1,0 1,-1 2,0 1,-1 1,0 1,-1 2,0 1,-1 1,0 1,-1 2,0 1,1 0,-2 1,-1 1,0 1,-1 1,0 1,-1 1,0 1,-1 3,0 1,1 2,0 1,1 1,-1 0,0 1,-1 2,0 1,-1 3,0 1,1 1,-1 0,-1 1,-1 1,-1 2,0 0,-2 1,-1 -2,0 -1,-1 -1,0 -1,-1 0,-3 1,-1 1,-1 1,-1 1,-1 1,-1 1,-1 1,-1 1,-1 2,-2 1,0 1,-1 1,-1 0,-1 1,-1 1,-1 1,-1 1,-1 1,-1 1,-1 1,-1 1,-1 1,-1 1,-1 1,-1 1,-1 1,-1 1,-1 2,0 0,-8 -1,0 -1,1 0,0 -2,2 -1,1 -11,11 -1,1 -11,11 -1,1 -1,1 -1,1 -1,0 0,1 -1,1 -1,1 -1,1 -1,1 -4,0 -1,1 -1,1 0,1 -1,1 0,1 -1,1 -1,1 -1,0 -1,1 -1,1 -2,0 -1,1 -2,0 -1,-1 -1,1 -1,0 0,2 -1,1 -1,0 -1,1 -1,0 -1,1 -1,0 -1,1 -2,0 -1,1 -2,0 -1,1 -1,0 -1,1 -2,0 -1,1 -1,0 -1,1 -3,0 -1,-1 0,2 -1,1 -3,0 -1,-1 0,2 -1,1 -3,0 -1,-1 0,2 -1,1 -2,0 -1,1 -1,0 -1,1 -2,0 -1,1 -2,0 -1,-1 0,2 -1,1 -1,0 -1,1 -1,0 -1,1 -2,0 -1,1 -1,0 -1,1 -1,0 -1,1 -1,0 -1,1 -2,0 -1,1 -1,0 -1,1 -1,1 -1,0 -1,1 -1,0 -1,1 -1,0 -1,1 -1,1 -2,0 -1,-1 0,2 -1,1 -1,1 -1,0 -1,1 -2,0 -1,-1 0,2 -1,1 -4,0 -1,1 0,1 -1,1 -1,1 -1,1 -1,0 -1,1 -1,1 -1,0 -1,1 -1,0 -1,1 -2,0 -1,1 -1,1 -2,0 -1,-1 0,-2 -1,1 -1,0 -1,1 -1,0 -1,1 -2,0 -1,1 -1,0 -1,1 -7,0 4,1 0,3 -1,1 -1,1 -3,0 -1,-1 -1,1 -1,0 0,2 -1,1 -1,0 -1,1 -2,0 -1,1 -2,0 -1,-1 0,2 -1,1 32,-19 0,-5 -1,5 1,0 -32,19 26,-3 0,1 1,1 0,1 1,1 0,-1 -1,-2 -1,-1 -26,3Z"/>
<path onmouseover="hoverPath(evt)" onmouseout="recoverPath(evt)" fill="rgb(243,239,224)" d="M  75,224l 2,0 1,1 1,0 1,1 2,0 1,1 0,1 1,1 1,1 1,-1 2,0 1,-1 1,0 1,-1 2,0 1,-1 1,0 1,-1 2,0 0,-3 1,-1 -2,0 -1,-1 0,-4 -1,-1 0,-2 -1,-1 0,-1 -2,0 -1,-1 0,-1 -1,-1 0,-2 -1,-1 0,-2 -1,-1 0,-1 -1,-1 0,-1 -1,-1 0,-2 -2,0 -1,1 -2,0 -1,1 -1,0 -1,1 -1,0 -1,1 -1,0 -1,1 -2,0 -1,1 -1,0 -1,1 -1,0 -1,1 -1,0 -1,1 -2,0 -1,1 -3,0 0,1 -1,1 4,0 1,1 1,1 0,1 2,0 1,1 0,3 -1,1 0,2 2,0 1,1 0,2 1,0 1,1 0,3 2,0 1,-1Z"/>
<path onmouseover="hoverPath(evt)" onmouseout="recoverPath(evt)" fill="rgb(244,242,234)" d="M  255,126l 0,-12 -1,0 -1,1 -1,0 -1,1 -1,1 0,2 -1,1 -1,1 -2,0 -1,1 -1,0 0,2 -1,1 -1,0 -1,1 -3,0 -1,-1 0,2 -1,1 -2,0 -1,1 -1,0 0,2 -1,1 -2,0 -1,1 0,1 -1,1 0,1 1,1 0,0 1,1 0,1 1,1 0,3 -1,1 0,1 -1,1 -1,0 0,2 1,-1 0,0 2,-3 1,-3 1,-1 2,0 1,1 1,1 0,1 1,1 0,1 1,1 0,1 1,1 1,1 0,1 1,1 5,0 1,-1 -6,0 0,-3 1,-1 0,-2 1,-1 2,0 1,1 1,-1 2,0 1,-1 1,0 1,-1 3,0Z"/>
</svg>