<svg width="256" height="256" xmlns="http://www.w3.org/2000/svg"><script> 
var tempColor;
function hoverPath(evt){
obj = evt.target;
tempColor = obj.getAttribute("fill");
obj.setAttribute("fill","red");
//alert(tempColor);
//obj.setAttribute("stroke","red");}
function recoverPath(evt){
obj = evt.target;
obj.setAttribute("fill", tempColor);
//obj.setAttribute("stroke", tempColor);
}</script><path onmouseover="hoverPath(evt)" onmouseout="recoverPath(evt)" fill="rgb(241,240,231)" d="M  5,0l -5,0 0,4 4,0 1,1 0,1 1,1 0,1 1,1 0,1 1,1 0,2 1,1 0,1 1,1 0,1 1,1 0,1 1,1 0,1 1,1 0,1 1,1 0,2 -1,1 0,1 1,1 0,1 1,1 0,1 1,1 0,1 1,1 2,0 1,1 0,1 1,1 0,1 1,1 0,1 1,1 0,1 1,1 0,2 -1,1 1,1 2,0 1,1 1,1 0,1 1,1 1,1 3,0 1,-1 5,0 1,-1 2,0 1,-1 4,0 1,1 2,0 0,-2 1,-1 2,0 1,-1 5,0 1,1 0,1 1,1 1,1 1,1 0,2 -1,1 -1,0 -1,1 -1,0 0,2 -1,1 1,1 0,2 -1,1 0,1 2,-3 4,0 1,-1 1,0 1,-1 1,-1 2,0 1,-1 1,-1 2,0 1,-1 1,0 1,-1 1,0 1,-1 1,0 1,-1 2,0 1,-1 1,0 1,-1 1,-1 3,0 1,-1 4,0 0,-4 -3,0 -1,-1 -1,-1 0,-1 -1,-1 0,-4 -3,0 -1,-1 0,-4 -2,0 -1,1 -3,0 -1,-1 0,-2 1,-1 1,-1 2,0 0,-2 -1,-1 0,-1 -1,-1 -1,-1 0,-2 1,-1 -1,-1 0,-1 -1,-1 0,-1 -2,0 -1,-1 0,-1 -1,0 -1,1 -1,0 -1,1 -1,0 -1,1 -1,0 -1,1 0,2 -1,1 -2,0 -1,-1 -1,-1 -1,-1 0,-1 -1,-1 0,-3 1,-1 5,0 1,-1 1,0 1,-1 1,0 0,-2 1,-1 -1,-1 0,-1 -1,-1 0,-2 -64,0 51,1 2,0 1,1 0,2 -1,1 -2,0 -1,-1 0,-2 1,-1 -51,-1 43,11 1,1 0,2 -1,1 -1,0 -1,1 -2,0 -1,-1 0,-2 1,-1 1,0 1,-1 2,0 -43,-11 61,28 1,1 0,2 -1,1 -1,0 -1,1 -1,0 -1,1 -2,0 -1,-1 0,-2 1,-1 1,0 1,-1 1,0 1,-1 2,0 -61,-28Z"/>
<path onmouseover="hoverPath(evt)" onmouseout="recoverPath(evt)" fill="rgb(240,239,231)" d="M  62,79l 0,0 -1,-1 0,-2 1,-1 2,0 1,1 0,2 -1,1 -2,0 -4,-9 -2,0 -1,1 -1,0 -1,1 -1,0 -1,1 0,2 -1,1 -1,0 0,3 -1,1 0,3 -1,1 -2,0 -1,-1 -2,0 0,3 1,1 0,2 1,0 1,1 0,2 1,1 2,0 0,-4 1,-1 2,0 1,-1 7,0 1,1 0,2 -1,1 1,1 1,0 1,1 1,0 1,1 1,0 1,1 0,1 1,1 3,0 1,1 1,-1 2,0 1,-1 1,0 1,-1 1,0 1,-1 2,0 1,-1 1,0 1,-1 2,0 1,-1 1,0 1,-1 2,0 1,-1 1,0 1,-1 1,0 1,-1 2,0 1,-1 1,0 1,-1 2,0 1,-1 1,0 1,-1 1,0 1,-1 2,0 0,-4 -1,-1 0,-1 -1,-1 0,-1 -1,-1 0,-1 -1,-1 0,-1 -1,-1 0,-1 -1,-1 -1,-1 0,-1 -1,-1 0,-1 -1,-1 0,-1 -1,-1 0,-1 -1,-1 0,-1 -1,-1 0,-1 -1,-1 0,-1 -1,0 -1,1 -3,0 -1,1 -1,0 -1,1 -2,0 -1,1 -1,0 -1,1 -1,1 -1,0 -1,1 -2,0 -1,1 -2,0 -1,1 -1,1 -1,1 -2,0 -1,1 -2,0 -1,1 -1,0 -1,1 -2,0 -1,1 -1,0 -1,1 -1,0 -1,1 4,9Z"/>
<path onmouseover="hoverPath(evt)" onmouseout="recoverPath(evt)" fill="rgb(241,237,197)" d="M  93,33l 0,3 1,1 1,1 0,2 1,1 0,1 1,1 0,6 -1,1 -4,0 -1,1 -3,0 -2,2 -1,0 -1,1 -2,0 -1,1 -1,0 -1,1 -1,0 -1,1 -1,0 -1,1 -2,0 -1,1 -1,1 -2,0 -1,1 -1,1 -1,0 -1,1 -4,0 -1,1 1,1 0,1 1,-1 2,0 1,-1 1,0 1,-1 2,0 1,-1 2,0 1,-1 1,-1 1,-1 2,0 1,-1 2,0 1,-1 1,0 1,-1 1,-1 1,0 1,-1 2,0 1,-1 1,0 1,-1 3,0 1,-1 3,0 1,1 0,1 1,1 0,1 1,1 0,1 1,1 0,1 1,1 0,1 1,1 0,1 1,1 0,1 1,1 1,1 0,1 1,1 0,1 1,1 0,1 1,1 0,1 1,1 0,1 1,1 0,4 3,0 1,1 0,3 -1,1 1,0 1,1 0,0 1,1 0,1 1,1 1,1 0,1 1,1 0,1 1,1 0,1 1,1 0,3 -1,1 0,1 -1,1 1,0 1,1 1,1 0,1 1,1 0,1 1,1 0,1 1,1 0,1 1,1 0,1 1,1 0,1 1,1 0,1 1,1 0,1 1,1 1,1 0,1 1,1 0,1 1,1 0,1 1,1 0,1 1,1 1,1 0,1 1,1 2,0 1,1 0,2 -1,1 0,2 -1,1 0,2 -1,1 1,1 0,0 1,1 1,0 1,-1 1,0 1,-1 2,0 1,1 1,1 0,3 -1,1 -1,0 -1,1 -2,2 -2,0 -1,1 3,0 1,1 3,0 1,1 1,0 1,1 0,1 1,1 0,1 1,1 0,1 1,1 0,1 1,1 0,1 1,1 1,1 0,1 1,1 0,1 1,1 2,0 1,1 0,2 -1,1 0,1 1,1 0,0 1,1 0,1 1,1 0,1 1,1 0,1 1,1 0,1 1,1 0,1 1,1 0,1 1,1 0,1 1,1 0,1 1,1 0,1 1,1 0,1 1,1 0,4 -1,1 -1,1 -1,0 -1,1 -2,0 -1,1 1,0 6,-3 2,0 1,-1 2,0 1,1 0,1 1,1 0,5 -1,1 -2,0 -1,1 -1,0 -1,1 -1,0 -1,1 -1,0 -1,1 -2,0 -1,1 -1,0 -1,1 -1,0 -1,1 -1,0 -1,1 -1,0 -1,1 -1,0 -1,1 -1,0 -1,1 -1,0 -1,1 -1,0 -1,1 -1,0 -1,1 -1,0 -1,1 -1,0 0,1 1,0 1,-1 1,0 1,-1 1,0 1,-1 1,0 1,-1 1,0 1,-1 1,0 1,-1 1,0 1,-1 1,0 1,-1 1,0 1,-1 2,0 1,-1 1,0 1,-1 1,0 1,-1 1,0 1,-1 2,0 1,-1 1,0 1,-1 3,0 1,1 1,0 1,1 1,1 0,1 1,1 0,1 1,1 0,1 1,1 1,1 0,1 1,1 0,1 1,1 0,3 -1,1 -2,0 -1,-1 0,-1 -1,-1 0,0 -1,-1 -1,-1 2,3 0,1 2,2 1,1 0,0 1,1 0,1 1,1 0,1 1,1 0,1 1,1 0,2 -1,1 -1,1 -1,0 3,-1 3,0 1,1 2,0 1,1 1,1 0,1 1,1 0,1 1,1 1,1 0,1 1,1 0,3 9,0 0,-2 -1,-1 0,-1 -1,-1 0,-1 -1,-1 0,-1 -1,-1 0,-2 -1,0 -1,-1 0,-3 -1,-1 0,-1 -1,0 -1,-1 0,-2 1,-1 -1,0 -1,-1 0,0 -1,-1 0,-4 -3,0 -1,-1 0,-3 -1,-1 0,-1 -1,-1 0,-1 -1,-1 -1,-1 0,-1 -1,-1 0,-1 -1,-1 0,-1 -1,-1 0,-1 -1,0 -1,-1 0,-1 -1,-1 -1,-1 0,-2 1,-1 -1,-1 0,0 -1,-1 0,-1 -1,-1 0,-1 -1,-1 -1,-1 0,-1 -1,-1 0,-1 -1,-1 0,-1 -1,-1 0,-1 -1,-1 0,-1 -1,-1 0,-1 -1,-1 0,-1 -1,-1 -1,-1 0,-1 -1,-1 0,-1 -1,-1 0,-1 -1,-1 0,-1 -2,0 -1,-1 0,-4 1,-1 2,0 1,-1 -1,0 -3,1 -1,-1 0,-1 -1,-1 -1,-1 0,-1 -1,-1 0,-1 -1,-1 0,-1 -1,-1 0,-1 -1,-1 0,-1 -1,-1 0,-1 -1,-1 0,-1 -1,-1 -1,-1 0,-1 -1,-1 0,-1 -1,-1 0,-1 -1,-1 0,-1 -1,-1 0,-1 -1,-1 0,-1 -1,-1 0,-1 -1,-1 -1,-1 0,-1 -1,-1 0,-1 -1,-1 0,-1 -1,-1 0,-1 -1,-1 0,-1 -1,-1 0,-1 -1,-1 0,-1 -1,-1 0,-1 -1,-1 0,-1 -1,-1 0,-1 -1,-1 0,-1 -1,-1 0,-1 -1,-1 0,-1 -1,-1 0,-1 -1,-1 0,-1 -1,-1 -1,-1 0,-1 -1,-1 0,-1 -1,-1 0,-1 -1,-1 0,-1 -1,-1 0,-1 -1,-1 0,-1 -1,-1 0,-1 -1,-1 0,-1 -1,-1 0,-1 -1,-1 0,-1 -1,-1 0,-2 1,-1 -4,0 -1,-1 0,-2 1,-1 0,-1 -1,0 -1,-1 0,-1 -1,-1 0,-1 -1,-1 -1,-1 0,-1 -1,-1 0,-1 -1,-1 0,-1 -2,0 -1,-1 0,-1 -1,-1 -1,-1 0,-1 -1,-1 0,-2 1,-1 -1,-1 0,-1 -1,-1 0,-1 -1,-1 0,-1 -1,-1 0,-3 1,-1 1,-1 1,0 1,-1 1,-1 3,0 1,-1 1,0 1,-1 1,0 2,-2 1,0 1,-1 4,0 0,-1 1,-1 1,0 1,-1 2,0 1,-1 2,0 1,-1 1,0 1,-1 2,0 0,-1 1,-1 3,0 1,-1 1,0 1,-1 1,0 1,-1 1,-1 3,0 1,-1 1,0 1,-1 1,-1 1,0 1,-1 1,0 1,-1 3,0 1,-1 1,0 2,-2 3,0 1,-1 1,0 2,-2 3,0 1,-1 1,0 2,-2 3,0 1,-1 1,0 1,-1 1,0 1,-1 2,0 1,-1 1,0 1,-1 1,-1 3,0 1,-1 1,0 1,-1 1,0 1,-1 2,0 1,-1 0,-1 -121,0 0,5 1,1 0,1 1,1 0,1 1,1 0,1 1,1 0,1 1,1 0,1 1,1 0,1 1,1 0,1 1,1 1,1 0,1 1,1 0,2 -1,1 0,2 1,1 0,3 -1,1 -1,0 27,70 -1,0 -1,1 1,0 1,-1 -27,-70Z"/>
<path onmouseover="hoverPath(evt)" onmouseout="recoverPath(evt)" fill="rgb(185,147,236)" d="M  221,0l -2,0 1,1 0,1 1,1 0,2 1,1 0,1 1,1 0,3 2,0 1,1 0,2 -1,1 2,0 1,1 0,4 1,1 0,3 1,1 0,2 1,1 0,1 2,0 1,1 0,4 1,1 0,3 1,1 1,1 0,3 2,0 1,1 0,3 -1,1 0,1 1,1 0,2 1,1 0,3 1,1 0,1 1,0 1,1 1,1 0,2 -1,1 -1,0 1,1 0,2 1,1 1,1 0,2 -1,1 -1,1 1,1 0,1 1,0 1,1 0,3 1,1 1,1 0,1 1,1 0,3 1,1 0,1 4,0 0,-50 -3,0 -1,-1 0,-1 -1,-1 0,-1 -1,-1 0,-3 -2,0 -1,-1 0,-1 -1,-1 0,-4 -1,-1 0,-1 -1,-1 0,-2 -1,-1 0,-3 -1,-1 0,-1 -1,-1 0,-1 -1,-1 0,-1 -1,-1 0,-1 -2,0 -1,-1 0,-2 1,-1 0,-1Z"/>
<path onmouseover="hoverPath(evt)" onmouseout="recoverPath(evt)" fill="rgb(243,242,236)" d="M  238,1l 0,1 -1,1 2,0 1,1 0,1 1,1 0,1 1,1 0,1 1,1 0,1 1,1 0,3 1,1 0,2 1,1 0,1 1,1 0,4 1,1 0,1 2,0 1,1 0,3 1,1 0,1 1,1 0,1 2,0 0,-35 -16,0 -1,1Z"/>
<path onmouseover="hoverPath(evt)" onmouseout="recoverPath(evt)" fill="rgb(250,203,116)" d="M  0,130l 0,12 2,0 1,1 1,1 0,1 1,1 0,2 1,1 0,1 1,1 0,2 1,1 0,1 1,1 0,2 1,1 0,2 -1,1 0,2 1,0 1,1 0,4 1,0 1,1 1,0 1,1 0,2 1,1 0,1 1,1 0,1 1,1 0,2 1,1 0,2 -1,1 1,0 1,1 0,0 1,1 0,2 -1,1 0,2 2,0 1,1 1,1 0,1 1,1 0,2 1,1 0,1 1,1 0,2 1,1 0,2 -1,1 0,2 2,0 1,1 1,1 0,1 1,1 0,2 1,1 0,1 1,1 0,2 1,1 0,1 1,1 0,2 1,1 0,1 1,1 0,2 1,1 0,1 1,1 0,3 -1,1 -3,0 0,1 1,0 1,1 0,2 2,0 1,1 2,0 1,1 0,2 -1,1 0,2 1,0 1,1 0,4 2,0 1,1 0,2 5,0 0,-1 -1,-1 0,-2 -1,-1 0,-1 -1,-1 0,-4 -1,0 -1,-1 0,-1 -1,-1 0,-2 -1,-1 0,-1 -1,-1 0,-3 -1,-1 -1,-1 0,-1 -1,-1 0,-2 -1,-1 0,-1 -1,-1 0,-2 -1,-1 0,-1 -1,-1 0,-1 -1,-1 0,-2 -1,-1 0,-1 -1,-1 0,-2 -1,-1 0,-1 -1,-1 0,-3 -1,-1 -1,-1 0,-1 -1,-1 0,-2 -1,-1 0,-1 -1,-1 0,-3 -1,-1 -1,-1 0,-1 -1,-1 0,-2 -1,-1 0,-1 -1,-1 0,-3 -1,-1 -1,-1 0,-1 -1,-1 0,-2 -1,-1 0,-1 -1,-1 0,-3 -1,-1 -1,-1 0,-1 -1,-1 0,-2 -1,-1 0,-1 -1,-1 0,-3 -1,-1 -1,-1 0,-1 -1,-1 0,-2 -1,-1 0,-1 -1,-1 0,-3 -1,-1 -1,-1 0,-1 -1,-1 0,-2 -1,-1 0,-1 -1,-1 0,-6 1,-1 0,-1 1,-1 1,-1 1,0 -3,1 -1,0 -1,1 -2,0 0,3 35,106 0,-1 -1,0 -1,-1 -2,0 -1,1 3,0 1,1 1,0 -35,-106Z"/>
<path onmouseover="hoverPath(evt)" onmouseout="recoverPath(evt)" fill="rgb(242,240,231)" d="M  128,82l 0,0 -1,1 1,1 0,1 1,1 0,1 1,1 0,1 1,1 0,1 1,1 0,1 1,1 0,1 1,1 0,1 1,1 0,1 1,1 0,1 1,1 0,1 1,1 1,1 0,1 1,1 0,1 1,1 0,1 1,1 0,1 1,1 0,1 1,1 0,1 1,1 0,1 1,1 0,1 1,1 0,1 1,1 0,1 1,1 0,1 1,1 0,1 1,1 0,1 1,1 0,1 1,1 0,1 1,1 1,1 0,1 1,1 0,1 1,1 0,1 1,1 0,1 1,1 0,1 1,1 0,1 1,1 0,1 1,1 1,1 0,1 1,1 0,1 1,1 0,1 1,1 0,1 1,1 0,1 1,1 0,1 1,1 0,1 1,1 1,1 0,1 1,-1 3,0 1,-1 1,0 1,-1 2,0 1,1 3,0 0,-1 -1,-1 0,0 -1,-1 0,-1 -1,-1 0,-1 -1,-1 0,-1 -1,-1 0,-3 1,-1 1,0 1,-1 -1,0 -1,-1 0,0 -1,-1 0,-1 -1,-1 0,-4 -1,-1 0,-4 -2,0 -1,-1 0,-2 1,-1 0,-1 -1,-1 0,-1 -2,0 -1,-1 -1,-1 -1,-1 0,-2 -4,0 -1,-1 0,-2 1,-1 0,-2 1,-1 -1,-1 0,0 -1,-1 -1,-1 -1,-1 -1,-1 0,-1 -1,-1 -1,-1 -2,0 -1,-1 0,-2 1,-1 0,-8 1,-1 0,-1 -1,-1 0,-2 1,-1 0,-1 1,-1 1,-1 1,-1 3,0 1,-1 1,-1 1,-1 0,-2 1,-1 1,0 1,-1 1,-1 1,0 1,-1 3,0 1,1 1,0 1,-1 2,0 1,-1 1,0 1,-1 -3,0 -1,-1 0,-2 1,-1 1,-1 1,-1 -1,0 -1,1 -3,0 -1,-1 -1,-1 -2,0 -1,-1 0,-2 1,-1 -3,0 -1,-1 0,-2 -2,0 -1,1 -2,0 0,2 -1,1 -2,0 -1,-1 -1,0 0,2 -1,1 -2,0 -1,-1 -1,0 0,2 -1,1 -2,0 -1,-1 -1,1 -2,0 -1,1 -1,0 -1,1 -2,0 -1,1 -1,0 -1,1 -2,0 -1,1 -1,0 -1,1 -2,0 -1,1 -1,0 -1,1 -2,0 0,2 32,55 0,-1 -1,-1 0,-1 -1,-1 0,-2 1,-1 2,0 1,1 0,1 1,1 0,1 1,1 0,2 -1,1 -2,0 -1,-1 -32,-55 13,19 -1,-1 0,-2 1,-1 2,0 1,1 0,2 -1,1 -2,0 -13,-19Z"/>
<path onmouseover="hoverPath(evt)" onmouseout="recoverPath(evt)" fill="rgb(241,239,228)" d="M  198,72l 3,0 1,1 9,0 1,1 1,0 1,1 1,0 1,1 1,1 3,0 1,1 1,1 0,2 -1,1 1,1 0,1 2,0 1,1 0,4 1,1 0,3 1,1 0,4 -1,1 0,2 1,1 0,1 1,1 0,1 2,0 1,1 0,1 1,1 0,2 -1,1 1,1 0,1 1,1 0,1 1,1 2,0 1,1 0,2 -1,1 1,1 2,0 1,1 1,1 0,2 -1,1 1,1 0,0 1,1 0,1 1,0 1,1 1,1 1,1 1,1 1,1 1,1 4,0 1,1 0,1 1,0 0,-33 -2,0 -1,-1 0,-1 -1,-1 0,-1 -1,-1 0,-1 -1,-1 0,-2 -1,-1 0,-1 -1,-1 0,-1 -1,-1 0,-1 -1,-1 0,-1 -1,-1 0,-2 -1,-1 0,-1 -1,-1 0,-1 -1,-1 0,-1 -1,-1 0,-1 -1,-1 0,-2 -1,-1 0,-1 -1,-1 0,-1 -1,-1 0,-1 -1,-1 0,-1 -1,-1 0,-2 -1,-1 0,-1 -1,-1 0,-1 -1,-1 0,-1 -2,0 -1,-1 -2,0 -1,-1 0,-2 1,-1 1,0 1,-1 0,-1 -1,-1 0,-1 -1,-1 0,-1 -1,-1 0,-2 -3,0 -1,1 -1,0 -1,1 -2,0 -1,1 -1,0 -1,1 -2,0 -1,1 -1,0 -1,1 -2,0 -1,1 -1,0 -1,1 -2,0 -1,1 -1,0 -1,1 -1,0 -1,1 -2,0 -1,1 -1,0 -1,1 -2,0 -1,1 -1,0 -1,1 -2,0 -1,1 -1,0 -1,1 -2,0 -1,1 -1,0 -1,1 -2,0 -1,1 0,1 1,1 0,1 1,1 0,1 1,1 0,1 1,1 1,1 1,0 1,-1 3,0 1,1 0,2 -1,1 -1,1 -1,1 4,0 1,-1 3,0 1,-1 2,0 1,-1 2,0 1,-1 1,0 32,-4 0,1 1,1 0,2 -1,1 -2,0 -1,-1 0,-1 -1,-1 0,-2 1,-1 2,0 1,1 -32,4 37,7 0,2 -1,1 -2,0 -1,-1 0,-2 1,-1 2,0 1,1 -37,-7 42,18 0,2 -1,1 -2,0 -1,-1 0,-1 -1,-1 0,-2 1,-1 2,0 1,1 0,1 1,1 -42,-18 48,31 0,1 1,1 0,2 -1,1 -2,0 -1,-1 0,-1 -1,-1 0,-2 1,-1 2,0 1,1 -48,-31Z"/>
<path onmouseover="hoverPath(evt)" onmouseout="recoverPath(evt)" fill="rgb(239,233,237)" d="M  11,130l 0,-1 -1,-1 0,-2 -1,0 -1,1 -1,0 -1,1 0,1 -1,1 0,4 1,1 0,1 1,1 0,2 1,1 0,1 1,1 1,1 0,3 1,1 0,1 1,1 0,2 1,1 0,1 1,1 1,1 0,3 1,1 0,1 1,1 0,2 1,1 0,1 1,1 1,1 0,3 1,1 0,1 1,1 0,2 1,1 0,1 1,1 1,1 0,3 1,1 0,1 1,1 0,2 1,1 0,1 1,1 1,1 0,3 1,1 0,1 1,1 0,2 1,1 0,1 1,1 1,1 0,3 1,1 0,1 1,1 0,2 1,1 0,1 1,1 0,2 1,1 0,1 1,1 0,1 1,1 0,2 1,1 0,1 1,1 0,2 1,1 0,1 1,1 1,1 0,3 1,1 0,1 1,1 0,2 1,1 0,1 1,0 1,1 0,4 1,1 0,1 1,1 0,2 1,1 0,2 28,0 0,-3 -1,-1 0,-1 -1,-1 0,-1 -1,-1 0,-1 -1,-1 0,-1 -1,-1 0,-2 -1,-1 0,-1 -1,-1 0,-2 -1,-1 0,-2 -1,-1 0,-1 -1,-1 0,-1 -1,-1 0,-1 -1,-1 0,-2 -1,-1 0,-1 -1,-1 0,-1 -1,-1 0,-1 -1,-1 0,-2 -1,-1 0,-2 -1,-1 0,-1 -1,-1 0,-1 -1,-1 0,-1 -1,-1 0,-1 -1,-1 0,-2 -1,-1 0,-1 -1,-1 0,-1 -1,-1 0,-1 -1,-1 0,-1 -1,-1 0,-1 -1,-1 0,-1 -1,-1 0,-1 -1,-1 0,-1 -1,-1 0,-2 -1,-1 0,-1 -1,-1 0,-1 -1,-1 0,-2 -1,-1 0,-1 -1,-1 0,-1 -1,-1 0,-1 -1,-1 0,-2 -1,-1 0,-1 -1,-1 0,-1 -1,-1 0,-1 -1,-1 0,-1 -1,-1 0,-2 -1,-1 0,-1 -1,-1 0,-1 -1,-1 0,-1 -1,-1 0,-1 -1,-1 0,-1 -1,-1 0,-2 -1,-1 0,-1 -1,-1 0,-1 -1,-1 0,-1 -1,-1 0,-1 -1,-1 0,-2 -1,-1 0,-1 -1,-1 0,-1 -1,-1 0,-1 -2,0 -1,1 -1,0 -1,1 -2,0 0,2 -1,1 -1,0 -1,1 -4,0 -1,-1Z"/>
<path onmouseover="hoverPath(evt)" onmouseout="recoverPath(evt)" fill="rgb(244,242,235)" d="M  90,178l -1,0 0,7 -1,1 0,3 1,1 0,4 1,1 0,3 1,1 0,3 1,1 0,3 1,1 0,1 2,0 1,1 0,2 1,1 1,1 0,2 -1,1 1,1 3,0 1,1 1,1 1,1 1,0 1,1 0,2 1,0 1,-1 2,0 1,-1 6,0 1,-1 1,0 1,-1 2,0 1,-1 1,-1 2,0 1,-1 1,-1 1,0 1,-1 1,-1 2,0 1,-1 1,-1 1,0 1,-1 1,0 1,-1 1,-1 1,0 1,-1 1,0 1,-1 1,0 1,-1 1,-1 1,-1 1,0 1,-1 1,0 1,-1 1,-1 1,0 1,-1 1,-1 0,-1 2,-2 0,-6 1,-1 0,-1 -1,-1 0,-1 -1,-1 0,-2 -1,-1 -2,0 -1,-1 -1,-1 0,-1 -1,-1 0,-1 -1,-1 -1,-1 0,-2 1,-1 -1,-1 -2,0 -1,-1 0,-1 -1,-1 -1,-1 0,-2 1,-1 2,0 1,1 1,1 4,0 -9,-3 -1,-1 -2,0 -1,-1 0,-1 -1,0 -1,-1 0,-1 -1,-1 0,-1 -1,0 -1,-1 -1,-1 -3,0 -1,1 -2,0 -1,-1 -1,0 -1,1 -1,0 0,2 -1,1 -2,0 -1,-1 -1,0 -1,1 -1,0 0,2 -1,1 -1,0 -1,1 0,1 -1,1 -2,0 -1,1 -1,1 -2,0 -1,-1 -1,1 -1,1 0,3 -1,1 -1,1 -1,1 -1,0 -1,1 -1,1 -1,0 -1,1 -1,0 -1,1 -1,1 -2,0 -1,1Z"/>
<path onmouseover="hoverPath(evt)" onmouseout="recoverPath(evt)" fill="rgb(241,239,228)" d="M  123,49l 0,0 -1,-1 0,-2 1,-1 2,0 1,1 0,2 -1,1 -2,0 -4,10 1,1 1,1 1,1 0,2 -1,1 -2,0 -1,-1 -1,-1 -1,-1 0,-2 1,-1 2,0 4,-10 -6,16 1,1 0,1 1,1 0,1 1,1 1,1 0,1 1,1 0,1 1,0 1,1 0,1 1,-1 2,0 1,-1 1,0 1,-1 2,0 1,-1 1,0 1,-1 2,0 1,-1 1,0 1,-1 2,0 1,-1 1,0 1,-1 1,0 1,-1 2,0 1,-1 2,0 1,-1 1,0 1,-1 2,0 1,-1 1,0 1,-1 1,0 1,-1 1,0 1,-1 1,0 0,-1 -4,0 -1,-1 0,-2 1,-1 1,0 0,-3 1,-1 1,-1 3,0 1,-1 3,0 1,1 1,0 1,-1 1,-1 1,0 1,-1 1,0 1,-1 1,-1 0,-1 1,-1 1,0 0,-1 -7,0 -1,-1 0,-2 1,-1 3,0 1,-1 4,0 0,-5 -1,-1 0,-1 -1,-1 0,-1 -1,0 -1,-1 -1,0 -1,1 -2,0 -1,1 -1,0 -1,1 -1,1 -1,0 -1,1 -1,0 -1,1 -1,0 -1,1 -1,0 -1,1 -1,0 -1,1 -1,1 -3,0 -1,-1 -3,-3 0,-3 1,-1 -1,0 -1,-1 -2,0 -1,1 0,0 -1,1 -1,0 -1,1 -1,0 -1,1 -3,0 0,1 -1,1 -2,0 -1,1 -1,0 -1,1 -2,0 -1,1 -2,0 -1,1 -1,0 0,1 -1,1 -4,0 -1,1 -1,0 -1,1 -1,1 -1,0 -1,1 -1,0 -1,1 -3,0 -1,1 -1,1 -1,0 -1,1 0,1 1,1 0,1 1,1 0,1 1,1 0,1 1,1 0,2 -1,1 1,1 0,1 1,1 1,1 0,1 3,2 6,-16 46,-4 -2,0 -1,-1 0,-2 1,-1 2,0 1,1 0,2 -1,1 -46,4 34,5 0,1 -1,1 -2,0 -1,-1 0,-1 -1,-1 0,-2 1,-1 2,0 1,1 0,1 1,1 0,1 -34,-5 26,-10 1,1 0,2 -1,1 -2,0 -1,-1 0,-2 1,-1 2,0 -26,10Z"/>
<path onmouseover="hoverPath(evt)" onmouseout="recoverPath(evt)" fill="rgb(241,239,228)" d="M  188,182l 0,0 1,1 0,1 1,1 0,2 -1,1 2,0 1,1 0,1 1,1 0,1 1,1 1,1 2,0 1,-1 1,0 1,-1 3,0 1,-1 1,0 1,-1 2,0 1,-1 1,0 1,-1 1,0 1,-1 3,0 1,-1 1,0 1,-1 2,0 1,-1 1,0 1,-1 2,0 1,-1 2,0 1,-1 1,0 1,-1 1,0 1,-1 4,0 1,1 0,-2 1,-1 3,0 1,1 0,1 1,1 0,3 3,0 1,-1 3,0 1,-1 2,0 0,-20 -1,0 -1,1 0,0 -1,1 -1,0 -1,1 -1,1 -1,0 -1,1 -1,0 -1,1 -1,0 -1,1 -2,0 -1,-1 -1,1 -1,0 -1,1 -1,0 -1,1 -1,0 0,2 -1,1 -3,0 -1,-1 0,2 -1,1 -1,0 -1,1 -4,0 -1,-1 -1,0 -1,1 -1,0 -1,1 -6,0 0,2 -1,1 -11,0 -1,-1 -3,0 -1,-1 -4,0 -1,-1 -1,1 -2,0 0,4 2,0 57,2 0,0 -57,-2Z"/>
<path onmouseover="hoverPath(evt)" onmouseout="recoverPath(evt)" fill="rgb(242,240,231)" d="M  212,245l 0,0 1,1 0,1 1,1 0,1 1,1 0,1 1,1 0,3 39,0 0,-28 -2,0 -1,1 -2,0 -1,-1 -1,-1 0,-1 -1,-1 0,-1 -1,-1 0,-1 -1,-1 0,-1 -1,-1 -1,1 -1,0 -1,1 -1,0 -1,1 -1,0 -1,1 -2,0 0,1 -1,1 0,6 1,0 1,1 0,1 1,1 1,0 1,1 2,0 1,1 2,0 1,1 0,2 -1,1 -4,0 -1,-1 -2,0 -1,-1 -1,0 -1,-1 -1,-1 -3,0 -1,-1 0,-2 1,-1 0,-1 -3,0 -1,-1 0,-2 1,-1 0,-2 -1,-1 0,0 -1,-1 0,-1 -2,0 -1,1 -1,1 -2,0 -1,1 -2,0 -1,1 -2,0 -1,1 -1,0 -1,1 -1,0 -1,1 0,1 1,1 0,3 -1,1 0,1 -1,1 1,0 1,1 0,1 1,1 0,3 1,0 1,1Z"/>
<path onmouseover="hoverPath(evt)" onmouseout="recoverPath(evt)" fill="rgb(252,252,251)" d="M  57,103l -1,0 1,1 0,2 -1,1 -2,0 -1,1 -1,0 -1,1 -1,0 -1,1 -2,0 -1,1 -1,0 -1,1 -2,0 -1,1 -1,0 -1,1 -1,0 0,1 -1,1 -1,0 -1,1 -1,0 4,-1 1,-1 2,0 1,1 0,-2 1,-1 2,0 1,-1 1,0 1,-1 1,0 1,-1 3,0 1,1 0,-2 1,-1 2,0 1,-1 1,0 1,-1 1,0 1,-1 1,0 1,-1 4,0 1,1 0,-2 1,-1 1,0 1,-1 1,0 1,-1 1,0 1,-1 3,0 1,1 0,-2 1,-1 4,0 1,1 0,2 1,1 0,6 -1,1 -1,1 -4,0 -1,1 -4,0 -1,1 -1,1 3,0 1,1 0,-2 3,-1 5,-1 1,-1 14,0 -11,-1 -1,0 -1,-1 0,-1 -1,-5 0,-5 1,-1 3,0 1,1 0,-2 1,-1 3,0 1,1 0,-2 1,-1 2,0 1,-1 1,0 1,-1 2,0 1,-1 2,0 1,1 0,-2 1,-1 2,0 1,-1 1,0 0,-1 -2,0 -1,1 -2,0 -1,1 -1,0 -1,1 -1,0 -1,1 -2,0 -1,1 -1,0 -1,1 -2,0 -1,1 -1,0 -1,1 -1,0 -1,1 -2,0 -1,1 -1,0 -1,1 -2,0 -1,1 -1,0 -1,1 -2,0 -1,1 -1,0 -1,1 -1,0 -1,1 -2,0 -1,1 -2,0 -1,-1 -3,0 -1,-1 -1,-1 0,2 1,1 0,2 -1,1 -1,1 -5,0 -1,-1 6,-6 1,-1 -1,0 -1,-1 -1,0 -1,-1 -1,0 -1,-1 -1,0 0,1 1,0 1,1 1,0 1,1 1,0 1,1 -6,6Z"/>
<path onmouseover="hoverPath(evt)" onmouseout="recoverPath(evt)" fill="rgb(243,241,233)" d="M  148,229l -3,0 0,3 2,0 1,1 1,0 1,1 0,1 1,1 0,2 1,1 0,4 1,1 0,1 6,0 1,1 0,1 1,1 0,1 1,1 0,1 1,1 1,1 0,2 39,0 0,-2 -1,-1 0,-1 -2,-2 0,-1 -1,-1 0,-1 -1,-1 -2,0 -1,-1 -2,0 -1,1 -3,0 -1,-1 0,-2 1,-1 1,0 1,-1 -1,-1 0,-1 -1,-1 0,-1 -1,-1 0,-1 -1,-1 -1,-1 0,-1 -1,0 -1,-1 0,-2 -1,-1 -1,-1 0,-2 1,-1 2,0 1,1 1,1 1,1 1,1 0,1 -1,-3 -1,-1 0,-1 -1,-1 0,0 -1,-1 0,-1 -1,-1 0,-1 -1,-1 0,-1 -1,-1 -1,0 -1,-1 -1,0 -1,1 -1,0 -1,1 -2,0 -1,1 -1,0 -1,1 -1,0 -1,1 -1,0 -1,1 -2,0 -1,1 -1,0 -1,1 -1,0 -1,1 -1,0 -1,1 -1,0 -1,1 -1,0 -1,1 -1,0 -1,1 -1,0 -1,1 -1,0 -1,1Z"/>
<path onmouseover="hoverPath(evt)" onmouseout="recoverPath(evt)" fill="rgb(241,239,226)" d="M  36,241l 0,-2 -1,0 -1,-1 -1,0 -1,-1 -5,0 -1,-1 -5,0 -1,-1 0,-1 -2,0 -1,-1 -3,0 0,3 -1,1 0,4 -1,1 -2,0 0,6 -1,1 -2,0 -1,-1 0,-2 -1,-1 0,-1 -1,-1 0,-3 -1,-1 0,-1 -1,-1 0,-1 -1,-1 0,-3 -1,0 0,23 46,0 0,-1 -2,0 -1,-1 0,-4 -1,0 -1,-1 0,-4 1,-1 -2,0 -1,-1 -2,0 -1,-1Z"/>
<path onmouseover="hoverPath(evt)" onmouseout="recoverPath(evt)" fill="rgb(234,234,226)" d="M  41,110l 2,0 1,-1 1,0 1,-1 2,0 1,-1 1,0 1,-1 1,0 1,-1 2,0 -1,-1 0,-3 1,-1 2,0 1,1 1,1 3,0 1,-1 -1,-1 0,-1 -1,-1 -1,0 -1,-1 -1,0 -1,-1 -1,0 -1,-1 0,-3 1,-1 1,0 0,-1 1,-1 -5,0 -1,1 -2,0 0,4 -1,1 -4,0 -1,-1 -1,-1 0,-2 -1,0 -1,-1 0,-2 -1,-1 0,-5 1,-1 4,0 1,1 0,-3 1,-1 0,-3 1,-1 1,0 0,-1 -2,0 -1,-1 0,-1 -1,1 0,4 -1,1 -3,0 -1,1 -2,0 -1,1 -1,0 -1,1 -1,0 -1,1 -2,0 -1,1 -1,0 -1,1 -1,0 -1,1 -1,0 -1,1 -2,0 -1,1 -2,0 -1,1 -1,0 0,1 1,1 0,0 1,1 0,2 1,1 0,1 1,1 0,2 1,0 1,1 1,1 0,4 1,1 1,1 0,1 1,1 0,3 1,1 0,2 1,1 0,4 1,1 1,0 1,-1 0,-2 1,-1 1,0 1,-1 1,0 0,-1 1,-1 1,0 1,-1 1,0 1,-1Z"/>
<path onmouseover="hoverPath(evt)" onmouseout="recoverPath(evt)" fill="rgb(243,242,233)" d="M  33,121l 0,2 1,1 0,1 1,1 0,1 1,1 0,1 1,1 0,1 1,1 0,2 1,1 0,1 1,1 0,1 1,1 0,1 1,1 0,1 1,1 0,2 1,1 0,1 1,1 0,1 1,1 0,1 1,1 0,1 1,1 0,2 1,1 0,1 1,1 0,1 1,1 0,1 1,1 0,1 1,1 0,1 1,1 0,1 1,1 0,2 1,1 0,1 1,1 0,1 1,1 0,1 1,1 0,2 1,1 0,1 1,1 0,1 1,1 0,1 1,1 0,1 1,1 0,2 1,1 0,1 1,1 0,1 1,1 0,1 1,1 0,1 1,1 0,2 1,1 0,1 1,1 0,1 1,1 0,1 1,1 0,2 1,1 0,1 1,1 0,1 1,1 0,1 1,1 0,2 1,1 0,1 1,1 0,2 1,1 0,1 1,1 0,1 1,1 0,2 1,1 0,1 1,1 0,2 1,1 0,1 1,1 0,1 1,1 0,2 1,1 0,1 1,1 0,2 1,1 0,1 1,1 0,3 71,0 0,-1 -1,-1 0,0 -1,-1 0,-1 -1,-1 0,-1 -1,-1 0,-1 -6,0 -1,-1 0,-1 -1,-1 0,-4 -1,-1 0,-2 -1,-1 0,-1 -1,0 -1,-1 -2,0 -1,-1 0,-5 1,-1 0,-2 1,-1 1,0 1,-1 1,0 1,-1 1,0 1,-1 1,0 1,-1 1,0 1,-1 1,0 1,-1 1,0 1,-1 1,0 1,-1 1,0 1,-1 1,0 1,-1 1,0 1,-1 2,0 1,-1 1,0 1,-1 1,0 1,-1 1,0 1,-1 2,0 0,-3 -1,-1 0,-1 -1,1 -3,0 -1,1 -1,0 -1,1 -1,0 -1,1 -3,0 -1,-1 0,-2 1,-1 1,-1 2,0 1,-1 1,0 1,-1 0,-2 -1,-1 0,-1 -1,-1 0,-1 -1,-1 0,-1 -1,-1 0,-1 -1,-1 0,-1 -1,-1 0,-1 -1,-1 0,-1 -1,-1 0,-1 -1,-1 0,-1 -1,-1 0,-1 -1,-1 -1,-1 0,-2 -1,-1 0,-1 -1,-1 -1,-1 0,-1 -1,-1 0,-1 -1,-1 -4,0 0,1 1,1 0,0 1,1 0,2 -1,1 1,1 2,0 1,1 0,2 -1,1 1,1 2,0 1,1 1,1 0,2 1,1 0,1 1,1 0,3 -1,1 0,6 -1,1 -1,1 0,1 -1,1 -1,1 -1,1 -1,0 -1,1 -1,1 -1,0 -1,1 -1,0 -1,1 -1,1 0,2 -1,1 -1,0 -1,1 -2,0 -1,-1 -1,1 0,2 -1,1 -2,0 -1,-1 -1,1 0,0 -1,1 -2,0 -1,1 -1,1 -1,0 -1,1 -1,1 -2,0 -1,1 -1,1 -2,0 -1,1 -1,0 -1,1 -6,0 -1,1 -2,0 -1,1 -3,0 -1,-1 0,-2 -1,0 -1,-1 -1,-1 -1,-1 -3,0 -1,-1 -1,-1 0,-2 1,-1 -1,-1 0,0 -1,-1 0,-2 -2,0 -1,-1 0,-1 -1,-1 0,-3 -1,-1 0,-3 -1,-1 0,-3 -1,-1 0,-4 -1,-1 0,-5 1,-1 0,-7 1,-1 1,0 1,-1 2,0 1,-1 -1,0 -3,1 -1,0 -1,-1 -1,-1 0,-5 -1,-1 -1,-1 0,-1 -2,0 -1,-1 0,-2 1,-1 0,-4 1,-1 -2,0 -1,-1 -1,-1 -1,0 -1,-1 0,-1 -1,-1 -1,-1 -1,-1 -1,-1 0,-1 -1,-1 0,-3 -1,1 -2,0 -1,-1 -1,-1 -1,-1 -1,0 -1,-1 -1,-1 0,-1 -1,-1 0,-1 -1,-1 0,-1 -1,-1 0,-1 -1,-1 0,-9 1,-1 4,0 -2,-1 0,-3 1,-1 0,-2 1,-1 2,0 1,1 1,0 1,-1 1,0 0,-2 1,-1 2,0 1,-1 1,-1 4,0 1,-1 4,0 1,-1 0,-4 -1,-1 0,-2 -2,0 0,2 -1,1 -2,0 -1,-1 -1,0 -1,1 -1,0 -1,1 -1,0 -1,1 -1,0 0,2 -1,1 -2,0 -1,-1 -2,0 -1,1 -1,0 -1,1 -1,0 -1,1 -1,0 -1,1 -2,0 0,2 -1,1 -2,0 -1,-1 -1,0 -1,1 -1,0 -1,1 -1,0 -1,1 -2,0 0,2 -1,1 -2,0 -1,-1 -1,1 -2,0 -1,1 -2,0 -1,1 0,1 42,33 1,1 0,2 -1,1 -2,0 -1,-1 0,-2 1,-1 2,0 -42,-33 101,128 -2,0 -1,-1 0,-2 1,-1 2,0 1,1 0,2 -1,1 -101,-128Z"/>
<path onmouseover="hoverPath(evt)" onmouseout="recoverPath(evt)" fill="rgb(236,234,224)" d="M  223,25l 0,0 1,1 0,2 1,1 0,1 1,1 0,1 1,1 0,1 1,1 0,1 1,1 0,2 1,1 0,1 1,1 0,1 1,1 0,2 1,1 0,1 1,1 0,1 1,1 0,1 1,1 0,1 1,1 0,2 1,1 0,1 1,1 0,1 1,1 0,1 1,1 0,1 1,1 0,2 1,1 0,1 1,-1 0,0 -1,-1 0,0 -1,-3 -1,-2 0,-1 1,-1 0,-1 -1,0 -1,-1 0,-1 -1,-1 0,-3 -1,-1 0,-2 -1,-1 0,-3 1,-1 0,-1 -2,0 -1,-1 0,-3 -1,-1 -1,-1 0,-3 -1,-1 0,-4 -2,0 -1,-1 0,-1 -1,-1 0,-2 -1,-1 0,-3 -1,-1 0,-4 -2,0 -1,-1 0,-2 1,-1 -2,0 -1,-1 0,-3 -1,-1 0,-1 -1,-1 0,-2 -1,-1 0,-1 -1,-1 0,-1 -5,0 0,1 1,1 0,1 1,1 0,1 1,1 0,1 1,1 0,1 1,1 0,2 1,1 0,1 1,1 0,1 1,1 0,2 1,1 0,1 1,1 0,1 1,1Z"/>
<path onmouseover="hoverPath(evt)" onmouseout="recoverPath(evt)" fill="rgb(240,235,223)" d="M  0,186l 0,18 9,0 1,1 0,1 1,1 0,1 1,1 0,1 1,1 0,2 1,1 0,1 1,1 1,1 0,2 1,1 0,1 1,1 0,2 1,1 0,2 1,1 1,1 0,3 1,1 0,1 4,0 1,-1 2,0 1,-1 4,0 1,1 1,0 1,1 1,0 0,-1 -1,-1 0,-1 -1,-1 0,-2 -1,-1 0,-1 -1,-1 0,-2 -1,-1 0,-1 -1,-1 0,-2 -1,-1 0,-1 -1,-1 0,-2 -1,-1 0,-1 -1,-1 -2,0 -1,-1 0,-4 1,-1 -1,-1 0,-2 -1,-1 0,-1 -1,-1 0,-2 -1,-1 0,-1 -1,-1 -2,0 -1,-1 0,-4 1,-1 -1,-1 -1,0 -1,-1 0,-2 1,-1 -1,-1 0,-2 -1,-1 0,-1 -1,-1 0,-1 -1,-1 0,-2 -1,0 -1,-1 -1,0 -1,-1 0,-4 -1,0 -1,-1 0,-4 1,-1 -1,-1 0,-2 -1,-1 0,-1 -1,-1 0,-2 -1,-1 0,-1 -1,-1 0,-2 -1,-1 0,-1 -1,-1 -1,0Z"/>
<path onmouseover="hoverPath(evt)" onmouseout="recoverPath(evt)" fill="rgb(241,240,229)" d="M  212,201l -1,0 -1,1 1,1 0,1 1,1 0,1 1,1 0,1 1,1 0,1 1,1 0,1 1,1 0,1 1,1 0,2 1,1 3,0 1,-1 1,0 1,-1 3,0 1,1 1,0 0,-2 1,-1 1,-1 2,0 1,-1 1,0 1,-1 1,0 1,-1 1,0 0,-2 -1,-1 0,-2 1,-1 0,-1 1,-1 1,0 1,-1 3,0 1,1 0,2 -1,1 -1,0 -1,1 0,2 1,1 0,0 1,1 0,1 1,1 1,0 1,-1 1,0 1,-1 1,0 1,-1 3,0 0,-22 -3,0 -1,1 -2,0 -1,1 -2,0 -1,1 -3,0 -1,1 -2,0 -1,1 -2,0 -1,1 -2,0 -1,1 -2,0 -1,1 -2,0 -1,1 -3,0 -1,1 -2,0 -1,1 -1,0 -1,1 -2,0 -1,1 -1,0 -1,1Z"/>
<path onmouseover="hoverPath(evt)" onmouseout="recoverPath(evt)" fill="rgb(171,198,237)" d="M  28,123l -1,0 1,1 0,1 1,1 0,1 1,1 0,1 1,1 0,2 1,1 0,1 1,1 0,1 1,1 0,1 1,1 0,1 1,1 0,2 1,1 0,1 1,1 0,1 1,1 0,1 1,1 0,1 1,1 0,1 1,1 0,2 1,1 0,1 1,1 0,1 1,1 0,1 1,1 0,1 1,1 0,2 1,1 0,1 1,1 0,1 1,1 0,1 1,1 0,2 1,1 0,1 1,1 0,1 1,1 0,2 1,1 0,1 1,1 0,1 1,1 0,1 1,1 0,1 1,1 0,1 1,1 0,1 1,1 0,1 1,1 0,1 1,1 0,2 1,1 0,1 1,1 0,1 1,1 0,1 1,1 0,1 1,1 0,2 1,1 0,2 1,1 0,1 1,1 0,1 1,1 0,1 1,1 0,2 1,1 0,1 1,1 0,1 1,1 0,1 1,1 0,2 1,1 0,2 1,1 0,1 1,1 0,2 1,1 0,1 1,1 0,1 1,1 0,1 1,1 0,1 1,1 0,4 4,0 0,-2 -1,-1 0,-1 -1,-1 0,-2 -1,-1 0,-1 -1,-1 0,-2 -1,-1 0,-1 -1,-1 0,-1 -1,-1 0,-2 -1,-1 0,-1 -1,-1 0,-2 -1,-1 0,-1 -1,-1 0,-1 -1,-1 0,-2 -1,-1 0,-1 -1,-1 0,-2 -1,-1 0,-1 -1,-1 0,-1 -1,-1 0,-1 -1,-1 0,-2 -1,-1 0,-1 -1,-1 0,-1 -1,-1 0,-1 -1,-1 0,-2 -1,-1 0,-1 -1,-1 0,-1 -1,-1 0,-1 -1,-1 0,-1 -1,-1 0,-2 -1,-1 0,-1 -1,-1 0,-1 -1,-1 0,-1 -1,-1 0,-1 -1,-1 0,-2 -1,-1 0,-1 -1,-1 0,-1 -1,-1 0,-1 -1,-1 0,-2 -1,-1 0,-1 -1,-1 0,-1 -1,-1 0,-1 -1,-1 0,-1 -1,-1 0,-1 -1,-1 0,-1 -1,-1 0,-2 -1,-1 0,-1 -1,-1 0,-1 -1,-1 0,-1 -1,-1 0,-1 -1,-1 0,-2 -1,-1 0,-1 -1,-1 0,-1 -1,-1 0,-1 -1,-1 0,-1 -1,-1 0,-2 -1,-1 0,-1 -1,-1 0,-1 -1,-1 0,-1 -1,-1 0,-1 -1,-1 0,-3 -1,0 -1,1 -1,1Z"/>
<path onmouseover="hoverPath(evt)" onmouseout="recoverPath(evt)" fill="rgb(243,242,234)" d="M  182,154l -1,0 0,1 1,1 0,1 1,1 0,1 1,1 0,1 1,1 1,1 0,3 -1,1 -4,0 -1,1 -2,0 -1,-1 0,2 -1,1 -1,0 -1,1 -2,0 0,2 2,0 1,1 0,1 1,1 0,1 1,1 0,1 1,1 0,1 1,1 1,1 0,1 1,1 0,1 1,1 0,1 1,1 0,1 1,1 0,1 1,1 0,1 1,1 0,1 1,1 1,1 0,1 1,1 0,1 1,1 1,1 1,0 1,-1 1,0 1,-1 2,0 1,-1 1,0 0,-2 -1,0 -1,1 -4,0 -1,-1 -1,-1 -1,-1 0,-1 -1,-1 0,-1 -1,-1 0,-2 -1,-1 0,-1 -1,-1 0,-1 -1,-1 0,-1 -1,-1 0,-6 1,-1 2,0 1,-1 2,0 1,1 4,0 1,1 3,0 1,1 9,0 0,-2 1,-1 6,0 1,-1 1,0 1,-1 3,0 1,1 2,0 1,-1 1,0 0,-2 1,-1 2,0 1,1 1,0 0,-2 1,-1 1,0 1,-1 1,0 1,-1 1,0 1,-1 2,0 1,1 1,-1 1,0 1,-1 1,0 1,-1 1,0 1,-1 1,-1 1,0 1,-1 1,-1 2,0 0,-20 -2,0 -1,-1 0,-1 -4,0 -1,-1 -1,-1 -1,-1 -1,-1 -1,-1 -1,-1 -1,0 -1,-1 0,-1 -1,-1 -1,-1 0,-2 1,-1 -1,-1 -2,0 -1,-1 -1,-1 0,-1 -1,-1 0,-1 -1,-1 -1,-1 0,-1 -1,-1 0,-1 -1,-1 0,-2 1,-1 -1,-1 0,-1 -2,0 -1,-1 0,-1 -1,-1 0,-1 -1,-1 0,-4 1,-1 0,-2 -1,-1 0,-3 -1,-1 0,-4 -2,0 -1,-1 0,-1 -1,-1 0,-2 1,-1 -1,-1 -3,0 -1,-1 -1,-1 -1,0 -1,-1 -1,0 -1,-1 -9,0 -1,-1 -2,0 -1,1 -2,0 -1,1 -2,0 -1,1 -3,0 0,2 -1,1 -2,0 -1,1 -1,0 -1,1 -2,0 -1,1 -3,0 -1,-1 -1,0 -1,1 -1,0 -1,1 0,2 -1,1 -1,0 -1,1 -1,1 -1,1 -1,1 -3,0 -1,1 -1,1 1,1 0,2 -1,1 0,2 -1,1 0,7 1,1 0,1 1,1 1,1 1,1 0,1 1,1 3,3 1,1 0,2 -1,1 0,2 -1,1 4,0 1,1 0,2 1,1 1,1 2,0 1,1 0,1 1,1 0,3 -1,1 2,0 1,1 0,4 1,1 0,4 1,1 0,1 1,1 4,0 1,1 0,2 -1,1 -3,0 -1,1 17,-15 0,-2 1,-1 2,0 1,1 0,2 -1,1 -2,0 -1,-1 -17,15Z"/>
<path onmouseover="hoverPath(evt)" onmouseout="recoverPath(evt)" fill="rgb(243,242,233)" d="M  184,43l 0,0 -1,1 -1,0 0,1 -1,1 -1,1 -1,1 -1,0 -1,1 -1,0 -1,1 0,1 1,1 0,0 1,1 1,1 1,0 1,-1 2,0 1,-1 1,0 0,-2 1,-1 2,0 1,1 1,0 0,-2 1,-1 2,0 1,1 1,0 0,-2 1,-1 2,0 1,1 1,0 0,-2 1,-1 2,0 1,1 1,0 0,-2 1,-1 2,0 1,1 1,-1 2,0 1,-1 1,0 1,-1 2,0 1,-1 1,0 1,-1 2,0 1,-1 -1,-1 0,-1 -1,-1 0,-2 -1,-1 0,-1 -2,0 -1,-1 0,-2 1,-1 0,-1 -1,-1 0,-1 -2,0 -1,-1 0,-2 1,-1 -1,-1 0,-2 -1,-1 0,-1 -2,0 -1,-1 0,-2 1,-1 -1,-1 0,-1 -1,-1 0,-2 -1,-1 -1,1 -2,0 -1,1 -1,0 -1,1 -1,0 -1,1 -3,0 -1,1 -1,1 -1,0 -1,1 -2,0 -1,1 -1,0 -1,1 -1,0 -1,1 -3,0 -1,1 -1,1 -1,0 -1,1 -3,0 -1,1 -1,1 -1,0 -1,1 -3,0 -1,1 -1,1 -1,0 -1,1 -3,0 -1,1 -1,0 -1,1 -1,0 -1,1 -1,1 -1,0 2,1 0,2 -1,1 0,1 1,1 1,1 1,1 1,0 1,-1 0,-2 1,-1 1,0 1,-1 2,0 1,1 1,-1 1,0 1,-1 1,0 1,-1 0,-2 1,-1 2,0 1,1 1,0 1,-1 3,0 1,1 1,0 1,1 0,1 1,1 0,1 1,1 0,7 -1,1 -4,0 -1,1 4,0 1,1Z"/>
<path onmouseover="hoverPath(evt)" onmouseout="recoverPath(evt)" fill="rgb(247,245,239)" d="M  247,219l 2,0 1,1 0,1 1,1 0,1 1,1 1,1 2,0 0,-14 -2,0 -1,1 -1,0 -1,1 -1,0 -1,1 -3,0 -1,-1 -1,-1 0,-1 -1,-1 -1,-1 0,-4 1,-1 1,-1 1,0 -3,1 -1,2 1,4 0,1 -1,1 -1,0 -1,1 -1,0 -1,1 -1,0 -1,1 -2,0 -1,1 0,2 -1,1 -3,0 0,2 1,1 1,1 0,4 -1,1 3,0 1,1 0,3 -1,1 3,0 1,1 1,1 1,0 1,1 2,0 1,1 2,0 -9,-5 -1,0 -1,-4 0,-5 1,-1 0,-1 1,-1 2,0 1,-1 1,0 1,-1 1,0 1,-1 1,0 1,-1 2,0 1,1 1,1 0,1 -21,0 0,-1 -1,0 -1,1Z"/>
<path onmouseover="hoverPath(evt)" onmouseout="recoverPath(evt)" fill="rgb(242,241,233)" d="M  0,12l 0,42 2,0 1,1 0,1 1,1 0,2 1,1 0,1 1,1 0,1 1,1 0,2 1,1 0,1 1,1 0,2 1,1 0,1 1,1 0,1 1,1 0,1 1,1 0,2 1,1 0,1 1,1 1,-1 1,0 1,-1 1,0 1,-1 1,0 1,-1 1,0 1,-1 3,0 1,-1 1,-1 1,0 1,-1 1,0 1,-1 1,0 1,-1 1,0 1,-1 1,-1 5,0 1,-1 1,-1 2,0 1,1 0,1 2,0 1,-1 1,0 1,-1 1,0 1,-1 2,0 1,-1 1,0 0,-1 -2,0 -1,-1 0,-3 1,-1 -1,-1 0,-2 1,-1 0,-2 1,-1 1,0 1,-1 1,0 -1,-1 0,0 -1,-1 -1,-1 0,-1 -3,0 -1,1 -2,0 0,2 -1,1 -4,0 -1,-1 -2,0 -1,1 -2,0 -1,1 -5,0 -1,1 -5,0 -1,-1 -2,-2 0,-1 -1,-1 -2,0 -1,-1 -1,-1 0,-1 -1,-1 0,-2 1,-1 -1,-1 0,-1 -1,-1 0,-1 -1,-1 0,-1 -2,0 -1,-1 -1,-1 0,-1 -1,-1 0,-1 -1,-1 0,-1 -1,-1 0,-2 -1,-1 0,-1 -1,-1 0,-1 -1,-1 0,-1 -1,-1 0,-2 1,-1 -1,-1 0,-1 -1,-1 0,-2 -1,-1 0,-1 -1,-1 0,-1 -1,-1 0,-1 -3,0Z"/>
<path onmouseover="hoverPath(evt)" onmouseout="recoverPath(evt)" fill="rgb(237,235,220)" d="M  220,187l 0,0 -1,1 -1,0 -1,1 -3,0 -1,1 -1,0 -1,1 -1,0 -1,1 -2,0 -1,1 -1,0 -1,1 -3,0 -1,1 -1,0 -1,1 -4,0 -1,-1 -1,-1 -1,-1 0,-1 -1,-1 0,-1 2,5 1,1 1,1 2,0 3,-1 1,0 1,1 0,2 1,-1 2,0 1,-1 1,0 1,-1 2,0 1,-1 2,0 1,-1 1,-1 3,0 1,-1 2,0 1,-1 2,0 1,-1 2,0 1,-1 2,0 1,-1 3,0 1,-1 2,0 1,-1 2,0 1,-1 2,0 0,-2 1,-1 0,-1 -1,-1 0,-1 -1,0 0,2 -1,1 -2,0 -1,-1 -2,0 -1,1 -1,0 -1,1 -1,0 -1,1 -2,0 -1,1 -2,0 -1,1 -1,0 -1,1Z"/>
<path onmouseover="hoverPath(evt)" onmouseout="recoverPath(evt)" fill="rgb(247,238,158)" d="M  92,29l 0,-4 1,-1 -1,-1 0,-1 -1,-1 -1,-1 0,-1 -1,-1 0,-1 -1,-1 0,-1 -1,-1 0,-1 -1,-1 0,-1 -1,-1 0,-1 -1,-1 0,-1 -1,-1 0,-6 -12,0 0,1 1,1 0,1 1,1 0,2 -1,1 0,2 -1,1 -1,0 -1,1 -1,0 -1,1 -5,0 0,1 1,1 0,1 1,1 1,1 0,-2 1,-1 1,-1 1,0 1,-1 1,0 1,-1 1,0 1,-1 3,0 1,1 0,1 2,0 1,1 0,1 1,1 0,1 1,1 0,2 -1,1 1,1 0,0 1,1 0,1 1,1 0,4 -1,1 3,0 1,1 0,4 3,0 1,1 0,4 1,1 0,1 1,1 1,0 -1,-1 0,-2 -1,-1 0,1 -1,-5 0,-2 1,-1 1,0 0,-1 -1,-1 -11,0 -1,1 1,0 1,-1Z"/>
<path onmouseover="hoverPath(evt)" onmouseout="recoverPath(evt)" fill="rgb(253,253,253)" d="M  190,206l 0,0 1,1 1,-1 2,0 1,-1 1,0 1,-1 2,0 1,-1 1,0 1,-1 1,0 1,-1 2,0 1,1 1,1 1,1 0,1 1,1 0,1 1,1 0,1 1,1 0,1 1,1 0,1 1,1 0,1 1,1 0,4 -1,1 -2,0 -1,1 -1,0 -1,1 -2,0 -1,1 -1,0 -1,1 -1,0 -1,1 2,0 1,1 0,4 1,1 1,0 0,-1 -1,-1 0,-3 1,-1 1,-1 1,0 1,-1 1,0 1,-1 2,0 1,-1 2,0 1,-1 2,0 1,-1 -4,0 -1,-1 -26,-13 18,-4 0,-1 1,-1 1,-1 1,0 1,-1 1,0 1,-1 2,0 1,-1 1,0 1,-1 2,0 1,-1 3,0 1,-1 2,0 1,-1 2,0 1,-1 2,0 1,-1 2,0 1,-1 2,0 1,-1 3,0 1,-1 2,0 1,-1 2,0 1,-1 4,0 0,-2 -1,0 -1,1 -3,0 -1,1 -2,0 -1,1 -2,0 -1,1 -2,0 -1,1 -2,0 -1,1 -2,0 -1,1 -3,0 -1,1 -2,0 -1,1 -2,0 -1,1 -2,0 -1,1 -2,0 -1,1 -3,0 -1,1 -1,1 -2,0 -1,1 -2,0 -1,1 -1,0 -1,1 -2,0 -1,1 -1,0 -1,1 -1,0 -1,1 -2,0 -1,1 -1,0 -1,1 1,0 2,-1 3,-1 2,-1 2,-1 5,1 -18,4Z"/>
<path onmouseover="hoverPath(evt)" onmouseout="recoverPath(evt)" fill="rgb(241,240,230)" d="M  205,222l 0,0 1,-1 2,0 1,-1 1,0 1,-1 2,0 0,-2 -1,-1 0,-1 -1,-1 0,-1 -1,-1 0,-1 -1,-1 0,-1 -1,-1 0,-1 -1,-1 0,-1 -1,-1 -1,-1 -1,1 -1,0 -1,1 -1,0 -1,1 -2,0 -1,1 -1,0 -1,1 -2,0 -1,1 1,0 1,1 0,1 1,1 0,1 1,1 0,1 1,1 0,1 1,1 1,1 0,1 1,1 0,1 1,1 0,1 1,-1 1,0 1,-1Z"/>
<path onmouseover="hoverPath(evt)" onmouseout="recoverPath(evt)" fill="rgb(243,240,231)" d="M  5,206l -5,0 0,24 2,0 1,1 0,3 1,1 0,1 1,1 0,1 1,1 0,3 1,1 0,1 1,1 0,-4 1,-1 2,0 0,-4 1,-1 0,-3 1,-1 5,0 1,1 0,-2 -1,-1 -1,-1 0,-2 -1,-1 0,-2 -1,-1 0,-1 -1,-1 0,-2 -1,-1 -1,-1 0,-1 -1,-1 0,-2 -1,-1 0,-1 -1,-1 0,-1 -1,-1 0,-1Z"/>
<path onmouseover="hoverPath(evt)" onmouseout="recoverPath(evt)" fill="rgb(235,232,230)" d="M  17,127l 0,-1 1,-1 2,0 1,-1 1,0 1,-1 2,0 0,-1 1,-1 1,0 1,-1 -1,-1 0,-1 -5,0 -1,-1 0,-3 -1,-1 0,-2 -1,0 -1,-1 0,-1 -1,-1 0,-2 -1,-1 0,-1 -1,-1 0,-1 -1,-1 0,-2 -1,-1 0,-1 -1,-1 0,-1 -1,-1 0,-1 -1,-1 -2,0 -1,1 -1,0 -1,1 -2,0 -1,1 -2,0 0,30 1,0 1,-1 2,0 1,-1 3,0 1,1 2,0 1,1 0,2 1,1 0,1 2,0 1,-1 1,-1Z"/>
<path onmouseover="hoverPath(evt)" onmouseout="recoverPath(evt)" fill="rgb(190,209,236)" d="M  30,79l 2,0 1,-1 1,0 1,-1 1,0 1,-1 2,0 1,-1 3,0 0,-2 -4,0 -1,1 0,0 -1,1 -1,0 -1,1 -1,0 -1,1 -1,0 -1,1 -1,1 -1,0 -1,1 -3,0 -1,1 -1,0 -1,1 -1,0 -1,1 -1,0 -1,1 -1,0 -1,1 -2,0 -1,-1 -1,-1 0,-1 -1,-1 0,-2 -1,-1 0,-1 -1,-1 0,-1 -1,-1 0,-1 -1,-1 0,-2 -1,-1 0,-1 -1,-1 0,-2 -1,-1 0,-1 -1,-1 0,-1 -1,-1 0,-2 -1,-1 0,-1 -1,0 0,37 1,0 1,-1 2,0 1,-1 1,0 1,-1 4,0 1,1 1,1 0,1 1,1 0,1 1,1 0,1 1,1 0,2 1,1 0,1 1,1 0,1 1,1 0,2 1,1 0,1 1,0 1,1 0,2 1,1 0,3 4,0 0,-1 -1,-1 0,-2 -1,-1 0,-3 -1,-1 0,-1 -1,-1 -1,-1 0,-4 -1,-1 -1,0 -1,-1 0,-2 -1,-1 0,-1 -1,-1 0,-2 -1,-1 -1,-1 0,-3 14,-7 1,0 -13,6 0,0 2,-1 1,0 1,-1 2,0 1,-1 1,0 1,-1 -1,0 -2,1 -6,3 13,-6Z"/>
<path onmouseover="hoverPath(evt)" onmouseout="recoverPath(evt)" fill="rgb(242,241,232)" d="M  84,159l 0,3 -1,1 2,0 1,1 0,1 1,1 1,1 0,5 1,1 1,0 1,-1 2,0 1,-1 2,0 1,1 1,-1 1,-1 1,0 1,-1 1,-1 0,-3 1,-1 1,-1 1,-1 2,0 1,1 1,-1 0,0 1,-1 2,0 0,-1 1,-1 0,-2 1,-1 1,0 1,-1 1,0 1,-1 2,0 1,-1 1,0 1,-1 1,0 1,-1 2,0 1,-1 1,0 1,-1 1,0 0,-3 -1,-1 0,-2 -1,-1 0,-2 1,-1 2,0 1,1 4,0 1,1 0,-2 1,-1 0,-1 -1,-1 0,-1 -1,-1 -1,-1 0,-1 -1,-1 -1,-1 0,-1 -1,-1 0,-1 -1,-1 0,-1 -1,-1 0,-1 -1,-1 -1,-1 0,-1 -1,-1 0,-1 -1,-1 0,-1 -1,-1 0,-1 -1,-1 0,-1 -1,-1 0,-1 -1,-1 0,-1 -1,-1 0,-1 -1,-1 -1,1 -3,0 -1,-1 0,-2 1,-1 1,-1 2,0 0,-1 1,-1 0,-1 -1,-1 0,-1 -1,-1 0,-1 -1,-1 0,-1 -1,-1 -1,-1 0,-1 -1,-1 -2,0 -1,-1 -1,0 0,2 -1,1 -2,0 -1,-1 -1,1 -2,0 -1,1 -1,0 -1,1 -2,0 0,2 -1,1 -2,0 -1,-1 -1,0 0,2 -1,1 -2,0 -1,-1 -1,0 0,7 1,1 0,1 1,0 1,1 10,0 1,1 0,2 -1,1 -14,0 -1,1 -4,0 -1,1 -2,0 0,4 -1,1 -2,0 -1,-1 0,-2 -4,0 -1,1 -1,0 -1,1 -3,0 -1,-1 0,2 -1,1 0,1 1,0 1,1 0,2 -1,1 -4,0 0,7 1,1 0,1 1,1 0,1 1,1 0,1 1,1 0,1 1,1 1,0 1,1 1,1 1,1 1,-1 2,0 1,1 0,3 1,1 0,1 1,1 1,1 1,1 1,1 0,1 1,0 1,1 1,1 2,0 1,1 0,2 -1,1 0,1 3,-3 1,0 1,-1 0,0 -2,1 -3,3 5,-5 0,-1 -1,-1 0,0 1,2 -5,5 3,-7 0,0 -3,7 21,-45 2,0 1,1 0,2 -1,1 -2,0 -1,-1 0,-2 1,-1 -21,45 -2,-24 0,-2 1,-1 2,0 1,1 0,2 -1,1 -2,0 -1,-1 2,24Z"/>
<path onmouseover="hoverPath(evt)" onmouseout="recoverPath(evt)" fill="rgb(251,250,248)" d="M  124,79l 2,0 1,-1 2,0 1,-1 1,0 1,-1 2,0 1,-1 1,0 1,-1 2,0 1,-1 1,0 1,-1 2,0 1,-1 1,0 1,-1 2,0 1,-1 2,0 1,1 0,-2 1,-1 3,0 1,1 0,-2 1,-1 3,0 1,1 0,-2 1,-1 2,0 1,-1 4,0 1,1 0,2 1,0 -1,-3 0,-1 1,-1 1,-1 2,0 1,-1 1,0 1,-1 2,0 1,-1 1,0 1,-1 2,0 1,-1 1,0 1,-1 2,0 1,-1 1,0 1,-1 2,0 1,-1 1,0 1,-1 1,0 1,-1 2,0 1,-1 1,0 1,-1 2,0 1,-1 1,0 1,-1 2,0 1,-1 1,0 1,-1 2,0 1,-1 1,0 1,-1 5,0 1,1 0,2 1,1 0,1 1,1 0,1 1,1 0,3 -1,1 -1,1 1,0 1,1 2,0 1,1 0,1 1,1 0,1 1,1 0,1 1,1 0,2 1,1 0,1 1,1 0,1 1,1 0,1 1,1 0,1 1,1 0,2 1,1 0,1 1,1 0,1 1,1 0,1 1,1 0,1 1,1 0,2 1,1 0,1 1,1 0,1 1,1 0,1 1,1 0,1 1,1 0,2 1,1 0,1 1,1 0,1 1,1 0,1 1,0 0,-13 -5,0 -1,-1 0,-1 -1,-1 0,-3 -1,-1 0,-1 -1,-1 -1,-1 0,-3 -1,0 -1,-1 0,-1 -1,-1 0,-1 -1,-1 0,-1 -1,-1 0,-2 -1,-1 0,-1 -1,-1 0,-1 -1,-1 0,-1 -1,-1 0,-1 -1,-1 0,-2 -1,-1 0,-1 -1,-1 0,-1 -1,-1 0,-1 -1,-1 0,-1 -1,-1 0,-2 -1,-1 0,-1 -1,-1 0,-1 -1,-1 0,-2 -1,-1 0,-1 -1,-1 0,-1 -1,-1 0,-1 -1,-1 0,-1 -1,-1 0,-2 -1,-1 0,-1 -1,-1 0,-1 -1,-1 0,-1 -1,-1 0,-2 -1,-1 0,-1 -1,-1 0,-1 -1,-1 0,-2 -1,-1 0,-1 -1,-1 0,-1 -1,-1 0,-1 -1,-1 0,-1 -1,-1 0,-2 -2,0 0,1 1,1 1,1 0,2 1,1 0,1 1,1 0,2 -1,1 2,0 1,1 0,1 1,1 0,2 1,1 0,2 -1,1 2,0 1,1 0,1 1,1 0,3 -1,1 2,0 1,1 0,1 1,1 0,2 1,1 0,1 1,1 0,2 -1,1 -1,1 -2,0 -1,1 -1,0 -1,1 -2,0 -1,1 -1,0 -1,1 -2,0 -1,1 -2,0 -1,-1 0,2 -1,1 -3,0 -1,-1 0,2 -1,1 -3,0 -1,-1 0,2 -1,1 -3,0 -1,-1 0,2 -1,1 -3,0 -1,-1 0,2 -1,1 -1,0 -1,1 -2,0 -1,1 -3,0 -1,-1 -1,-1 -1,-1 -1,-1 0,-1 -2,0 -1,-1 -1,0 -1,1 -3,0 -1,1 0,3 -1,1 3,0 1,1 0,3 -1,1 -1,0 -1,1 -1,0 -1,1 -1,0 -1,1 -1,0 -1,1 -2,0 -1,1 -1,0 -1,1 -2,0 -1,1 -2,0 -1,1 -1,0 -1,1 -1,0 -1,1 -2,0 -1,1 -1,0 -1,1 -2,0 -1,1 -1,0 -1,1 -2,0 -1,1 -1,0 -1,1 -2,0 -2,2Z"/>
<path onmouseover="hoverPath(evt)" onmouseout="recoverPath(evt)" fill="rgb(247,246,240)" d="M  132,143l 0,1 1,1 0,5 -1,1 3,0 1,1 1,1 1,0 1,1 0,1 1,1 0,1 1,0 1,1 0,1 1,0 1,-1 2,0 1,1 1,1 0,1 1,1 1,1 2,0 -1,-1 0,-1 -1,-1 0,-1 -1,-1 0,-1 -1,0 -1,-1 -3,0 -1,-1 -3,0 -8,-12 7,10 0,-1 1,-1 1,-1 2,0 3,-3 1,0 0,-1 -1,-1 0,0 -1,1 -1,0 -1,1 -3,0 -1,-1 -1,-1 -1,-1 0,-1 -1,-1 -3,0 6,11 -7,-10Z"/>
</svg>