<svg width="256" height="256" xmlns="http://www.w3.org/2000/svg"><script> 
var tempColor;
function hoverPath(evt){
obj = evt.target;
tempColor = obj.getAttribute("fill");
obj.setAttribute("fill","red");
//alert(tempColor);
//obj.setAttribute("stroke","red");}
function recoverPath(evt){
obj = evt.target;
obj.setAttribute("fill", tempColor);
//obj.setAttribute("stroke", tempColor);
}</script><path onmouseover="hoverPath(evt)" onmouseout="recoverPath(evt)" fill="rgb(244,243,237)" d="M  0,1l 0,6 6,0 1,-1 7,0 1,-1 7,0 1,-1 12,0 1,-1 12,0 1,1 6,0 1,-1 3,0 1,-1 1,-1 0,-1 -60,0 -1,1Z"/>
<path onmouseover="hoverPath(evt)" onmouseout="recoverPath(evt)" fill="rgb(244,243,236)" d="M  0,106l 0,35 3,0 1,-1 3,0 1,-1 2,0 1,-1 2,0 1,-1 3,0 1,-1 5,0 1,-1 1,0 1,-1 1,0 1,-1 1,0 1,-1 1,0 1,-1 0,-7 1,-1 0,-5 1,-1 0,-5 1,-1 0,-5 1,-1 0,-6 1,-1 0,-6 1,-1 0,-6 1,-1 0,-6 1,-1 0,-6 1,-1 0,-5 1,-1 0,-3 1,-1 0,-3 1,-1 0,-3 1,-1 0,-2 1,-1 0,-3 1,-1 0,-3 1,-1 0,-3 1,-1 0,-3 1,-1 0,-2 1,-1 0,-3 1,-1 0,-3 1,-1 0,-3 1,-1 0,-4 -1,-1 -4,0 -1,-1 -18,0 -1,1 -7,0 -1,1 -7,0 -1,1 -7,0 -1,1 -5,0Z"/>
<path onmouseover="hoverPath(evt)" onmouseout="recoverPath(evt)" fill="rgb(171,198,238)" d="M  0,144l 0,2 1,0 1,-1 3,0 1,-1 3,0 1,-1 2,0 1,-1 3,0 1,-1 3,0 1,-1 2,0 1,-1 2,0 1,-1 1,0 1,-1 3,0 1,1 0,4 -1,1 0,11 -1,1 0,22 1,1 0,6 1,1 0,5 1,1 0,6 1,1 0,5 1,1 0,5 1,1 0,2 1,1 0,2 1,1 0,2 1,1 0,1 1,1 0,2 1,1 0,2 1,1 0,2 1,1 0,2 1,1 0,2 1,1 0,2 1,1 0,1 1,1 0,2 1,1 0,2 1,1 0,5 1,1 0,2 128,0 0,-2 -1,-1 0,-1 -1,-1 -1,-1 0,-1 -1,-1 0,-1 -1,-1 0,-1 -1,-1 0,-1 -1,-1 0,-1 -1,-1 0,-1 -1,-1 0,-1 -1,-1 0,-2 -1,-1 0,-2 -1,-1 0,-2 -1,-1 0,-1 -1,-1 0,-2 -1,-1 0,-3 -1,-1 0,-4 -1,-1 0,-3 -1,-1 0,-4 -1,-1 0,-7 -1,-1 0,-13 1,-1 0,-11 1,-1 0,-10 1,-1 0,-7 1,-1 0,-5 1,-1 0,-5 1,-1 0,-5 1,-1 0,-5 1,-1 0,-3 1,-1 0,-2 1,-1 0,-2 1,-1 0,-2 1,-1 0,-2 1,-1 0,-3 1,-1 0,-2 1,-1 0,-2 1,-1 0,-2 1,-1 0,-2 1,-1 0,-2 1,-1 0,-2 1,-1 0,-3 1,-1 0,-2 1,-1 0,-2 1,-1 0,-2 1,-1 0,-2 1,-1 0,-2 1,-1 0,-2 1,-1 0,-3 1,-1 0,-1 1,-1 0,-2 1,-1 0,-1 1,-1 0,-1 1,-1 0,-1 1,-1 0,-1 1,-1 0,-1 1,-1 0,-1 1,-1 0,-1 1,-1 0,-2 1,-1 0,-1 1,-1 0,-1 1,-1 0,-1 1,-1 0,-1 1,-1 0,-1 1,-1 0,-1 1,-1 0,-1 1,-1 0,-1 1,-1 0,-2 1,-1 0,-1 1,-1 1,-1 0,-1 1,-1 1,-1 1,-1 0,-1 1,-1 1,-1 1,-1 0,-1 1,-1 1,-1 1,-1 0,-1 1,-1 2,-2 0,-2 -157,0 0,2 -1,1 -1,1 -1,1 -3,0 -1,1 -8,0 -1,-1 -10,0 -1,1 -12,0 -1,1 -7,0 -1,1 -7,0 -1,1 -7,0 0,5 4,0 1,-1 7,0 1,-1 7,0 1,-1 7,0 1,-1 20,0 1,1 4,0 1,1 1,1 0,6 -1,1 0,3 -1,1 0,3 -1,1 0,3 -1,1 0,2 -1,1 0,3 -1,1 0,3 -1,1 0,3 -1,1 0,3 -1,1 0,2 -1,1 0,3 -1,1 0,3 -1,1 0,3 -1,1 0,5 -1,1 0,6 -1,1 0,6 -1,1 0,6 -1,1 0,6 -1,1 0,6 -1,1 0,5 -1,1 0,5 -1,1 0,5 -1,1 0,7 -1,1 -1,1 -1,0 -1,1 -1,0 -1,1 -1,0 -1,1 -1,0 -1,1 -5,0 -1,1 -3,0 -1,1 -2,0 -1,1 -2,0 -1,1 -3,0 -1,1 -3,0 -1,1Z"/>
<path onmouseover="hoverPath(evt)" onmouseout="recoverPath(evt)" fill="rgb(244,243,237)" d="M  2,148l -2,0 0,107 49,0 0,-1 -1,-1 0,-5 -1,-1 0,-2 -1,-1 0,-2 -1,-1 0,-1 -1,-1 0,-2 -1,-1 0,-2 -1,-1 0,-2 -1,-1 0,-2 -1,-1 0,-2 -1,-1 0,-2 -1,-1 0,-1 -1,-1 0,-2 -1,-1 0,-2 -1,-1 0,-2 -1,-1 0,-5 -1,-1 0,-5 -1,-1 0,-6 -1,-1 0,-5 -1,-1 0,-6 -1,-1 0,-24 1,-1 0,-11 1,-1 0,-2 -1,0 -1,1 -1,0 -1,1 -2,0 -1,1 -2,0 -1,1 -3,0 -1,1 -3,0 -1,1 -2,0 -1,1 -3,0 -1,1 -3,0 -1,1Z"/>
<path onmouseover="hoverPath(evt)" onmouseout="recoverPath(evt)" fill="rgb(254,254,254)" d="M  191,136l 3,0 1,-1 2,0 1,-1 3,0 1,-1 2,0 1,-1 2,0 1,-1 3,0 1,-1 4,0 1,1 0,1 1,1 0,1 1,1 5,0 1,-1 3,0 1,-1 3,0 1,-1 3,0 1,-1 4,0 1,-1 3,0 1,-1 3,0 1,-1 5,0 0,-2 -1,0 -1,1 -3,0 -1,1 -4,0 -1,1 -3,0 -1,1 -3,0 -1,1 -3,0 -1,1 -3,0 -1,1 -3,0 -1,1 -4,0 -1,-1 0,-8 1,-1 0,-3 1,-1 0,-4 1,-1 0,-3 1,-1 0,-4 1,-1 0,-3 1,-1 0,-2 -1,0 0,2 -1,1 0,3 -1,1 0,3 -1,1 0,4 -1,1 0,4 -1,1 0,2 -1,1 0,2 -2,2 -1,0 -1,1 -3,0 -1,1 -2,0 -1,1 -2,0 -1,1 -3,0 -1,1 -2,0 -1,1 -2,0 -1,1 -2,0 -1,1Z"/>
<path onmouseover="hoverPath(evt)" onmouseout="recoverPath(evt)" fill="rgb(173,199,237)" d="M  219,245l -1,0 -1,1 -1,0 -1,1 -1,0 -1,1 -1,0 -1,1 -1,1 -1,0 -1,1 -1,1 -1,1 -1,1 0,1 5,0 0,-2 2,-2 1,0 1,-1 1,-1 1,-1 1,-1 1,0 1,-1 0,-1 1,-1 1,2 3,0 1,-1 1,0 1,-1 1,0 1,-1 2,0 1,-1 2,0 1,-1 2,0 1,-1 2,0 1,-1 2,0 1,-1 2,0 1,-1 2,0 1,-1 1,0 1,-1 3,0 0,-3 -2,0 -1,1 -1,0 -1,1 -2,0 -1,1 -1,0 -1,1 -2,0 -1,1 -2,0 -1,1 -3,0 -1,1 -2,0 -1,1 -2,0 -1,1 -2,0 -1,1 -2,0 -1,1 -1,0 -1,1 -1,0 -1,1Z"/>
<path onmouseover="hoverPath(evt)" onmouseout="recoverPath(evt)" fill="rgb(244,243,236)" d="M  221,248l -1,0 -1,1 -1,0 -1,1 -3,3 -1,0 -1,1 0,1 43,0 0,-18 -2,0 -1,1 -1,0 -1,1 -2,0 -1,1 -2,0 -1,1 -2,0 -1,1 -2,0 -1,1 -2,0 -1,1 -2,0 -1,1 -2,0 -1,1 -1,0 -1,1 -1,0 -1,1Z"/>
<path onmouseover="hoverPath(evt)" onmouseout="recoverPath(evt)" fill="rgb(244,243,236)" d="M  223,0l -1,0 0,3 -1,1 -1,1 -1,1 0,1 -1,1 -1,1 -1,1 0,1 -1,1 -1,1 -1,1 0,1 -1,1 -1,1 -1,1 0,1 -1,1 -1,1 0,1 -1,1 0,2 -1,1 0,1 -1,1 0,1 -1,1 0,1 -1,1 0,1 -1,1 0,1 -1,1 0,1 -1,1 0,1 -1,1 0,1 -1,1 0,2 -1,1 0,1 -1,1 0,1 -1,1 0,1 -1,1 0,1 -1,1 0,1 -1,1 0,1 -1,1 0,1 -1,1 0,2 -1,1 0,1 -1,1 0,3 -1,1 0,2 -1,1 0,2 -1,1 0,2 -1,1 0,2 -1,1 0,2 -1,1 0,2 -1,1 0,3 -1,1 0,2 -1,1 0,2 -1,1 0,2 -1,1 0,2 -1,1 0,2 -1,1 0,2 -1,1 0,3 -1,1 0,2 -1,1 0,2 -1,1 0,2 -1,1 0,2 -1,1 0,3 -1,1 0,5 -1,1 0,5 -1,1 0,5 -1,1 0,5 -1,1 0,7 -1,1 0,10 -1,1 0,11 -1,1 0,11 1,1 0,7 1,1 0,4 1,1 0,3 1,1 0,4 1,1 0,3 1,1 0,2 1,1 0,1 1,1 0,2 1,1 0,2 1,1 0,2 1,1 0,1 1,1 0,1 1,1 0,1 1,1 0,1 1,1 0,1 1,1 0,1 1,1 0,1 1,1 1,1 0,1 1,1 0,3 22,0 0,-2 1,-1 1,-1 1,-1 1,-1 1,-1 1,0 1,-1 1,-1 1,0 1,-1 1,0 1,-1 1,0 1,-1 1,0 1,-1 1,0 1,-1 1,0 1,-1 2,0 1,-1 2,0 1,-1 2,0 1,-1 2,0 1,-1 3,0 1,-1 2,0 1,-1 2,0 1,-1 1,0 1,-1 2,0 1,-1 1,0 1,-1 3,0 0,-100 -4,0 -1,1 -3,0 -1,1 -3,0 -1,1 -4,0 -1,1 -3,0 -1,1 -3,0 -1,1 -3,0 -1,1 -7,0 -1,-1 -1,-1 0,-1 -1,-1 0,-1 -2,0 -1,1 -3,0 -1,1 -2,0 -1,1 -2,0 -1,1 -3,0 -1,1 -2,0 -1,1 -6,0 -1,-1 0,-2 1,-1 1,-1 3,0 1,-1 2,0 1,-1 2,0 1,-1 3,0 1,-1 2,0 1,-1 2,0 1,-1 3,0 1,-1 1,0 1,-1 0,-2 1,-1 0,-2 1,-1 0,-4 1,-1 0,-4 1,-1 0,-3 1,-1 0,-3 1,-1 0,-2 1,-1 3,0 1,1 0,4 -1,1 0,3 -1,1 0,4 -1,1 0,3 -1,1 0,4 -1,1 0,3 -1,1 0,6 2,0 1,-1 3,0 1,-1 3,0 1,-1 3,0 1,-1 3,0 1,-1 3,0 1,-1 4,0 1,-1 3,0 1,-1 2,0 0,-124Z"/>
</svg>