<svg width="256" height="256" xmlns="http://www.w3.org/2000/svg"><script> 
var tempColor;
function hoverPath(evt){
obj = evt.target;
tempColor = obj.getAttribute("fill");
obj.setAttribute("fill","red");
//alert(tempColor);
//obj.setAttribute("stroke","red");}
function recoverPath(evt){
obj = evt.target;
obj.setAttribute("fill", tempColor);
//obj.setAttribute("stroke", tempColor);
}</script><path onmouseover="hoverPath(evt)" onmouseout="recoverPath(evt)" fill="rgb(237,234,221)" d="M  27,208l 0,8 8,0 0,-1 1,-1 0,-2 -1,-1 0,-5 -8,0Z"/>
<path onmouseover="hoverPath(evt)" onmouseout="recoverPath(evt)" fill="rgb(241,240,229)" d="M  54,208l 0,6 -1,1 0,8 -1,1 0,6 -1,1 0,4 -1,1 0,5 32,0 1,1 32,0 1,1 3,0 0,-1 1,-1 1,0 0,-10 1,-1 0,-4 -1,-1 -8,0 -1,-1 -10,0 0,3 -1,1 0,8 -1,1 -2,0 -1,-1 0,-9 -4,0 -1,-1 -6,0 -1,-1 0,-2 1,-1 11,0 0,-3 -1,0 -1,-1 -14,0 0,1 1,0 1,1 0,2 -1,1 -5,0 -1,-1 0,-12 -1,0 -1,-1 -13,0 -1,-1 0,-2 -4,0 -1,-1 0,1 -1,1Z"/>
<path onmouseover="hoverPath(evt)" onmouseout="recoverPath(evt)" fill="rgb(243,242,232)" d="M  111,55l 0,0 -1,-1 -1,0 0,2 -1,1 0,2 -1,1 0,2 -1,1 0,2 -1,1 0,1 -1,1 0,2 -1,1 0,1 -1,1 0,2 -1,1 0,3 3,0 1,1 4,0 1,1 3,0 1,1 4,0 1,1 3,0 1,1 4,0 1,1 3,0 1,1 4,0 1,1 1,-1 0,-2 1,-1 0,-2 1,-1 0,-3 1,-1 0,-2 1,-1 0,-2 1,-1 0,-3 1,-1 0,-2 -1,0 -1,-1 -3,0 -1,-1 -2,0 -1,-1 -3,0 -1,-1 -3,0 -1,-1 -2,0 -1,-1 -3,0 -1,-1 -3,0 -1,-1 -3,0 -1,-1Z"/>
<path onmouseover="hoverPath(evt)" onmouseout="recoverPath(evt)" fill="rgb(241,238,231)" d="M  120,34l 1,1 0,2 -1,1 -2,0 -1,-1 0,-2 1,-1 2,0 3,4 1,-1 2,0 1,1 0,2 -1,1 -2,0 -1,-1 0,-2 -3,-4 -10,-22 -1,1 0,3 -1,1 -3,0 -1,1 0,1 -1,1 -2,0 -1,1 -1,1 1,1 1,0 1,1 0,9 -1,1 6,0 1,1 1,0 1,1 0,3 1,1 2,0 1,1 0,2 2,0 1,1 3,0 1,1 0,1 1,0 1,1 0,1 1,0 1,1 2,0 0,-1 -1,-1 0,-2 1,-1 2,0 1,1 2,0 1,1 0,5 3,0 1,1 3,0 1,1 1,-1 1,0 1,-1 2,0 1,1 8,0 1,1 0,4 1,0 1,1 2,0 1,-1 0,-2 1,-1 1,0 0,-3 1,-1 0,-3 1,-1 0,-4 1,-1 0,-3 1,-1 0,-4 1,-1 0,-3 1,-1 0,-4 1,-1 0,-3 1,-1 0,-4 1,-1 0,-4 1,-1 0,-2 1,-1 2,0 0,-3 1,-1 0,-2 -59,0 0,3 -1,1 -1,1 0,1 -1,1 0,1 -1,1 -1,0 -1,1 -2,0 0,2 10,22Z"/>
<path onmouseover="hoverPath(evt)" onmouseout="recoverPath(evt)" fill="rgb(243,239,233)" d="M  174,15l 0,0 -1,1 0,4 -1,1 0,3 -1,1 0,4 -1,1 0,3 -1,1 0,4 -1,1 0,3 -1,1 0,4 -1,1 0,2 1,1 0,4 7,0 1,1 1,1 0,3 1,0 1,1 2,0 0,-1 1,-1 4,0 1,-1 2,0 1,1 3,0 1,1 0,1 2,0 1,1 0,1 1,0 1,1 2,0 0,-1 1,-1 3,0 0,-1 1,-1 2,0 1,1 0,2 5,0 1,-1 0,-1 -1,0 -1,-1 -4,0 -34,-45 0,-4 1,-1 -1,4 0,1 28,44 -4,0 -1,-1 0,-12 -2,0 -1,-1 -1,-1 0,-7 1,-1 0,-2 1,-1 0,-5 -1,-1 0,-4 1,-1 2,0 0,-5 -1,0 -1,-1 -1,0 -1,-1 0,-5 -1,-1 0,-9 -13,0 0,3 -1,1 0,3 -1,1 -2,0 27,51 -28,-44Z"/>
<path onmouseover="hoverPath(evt)" onmouseout="recoverPath(evt)" fill="rgb(243,242,234)" d="M  234,160l 0,5 1,1 12,0 0,-1 1,-1 0,-3 1,-1 6,0 0,-83 -7,0 -1,-1 -7,0 -1,-1 -4,0 0,8 1,1 0,30 -1,1 -1,1 0,3 1,0 1,1 0,22 2,0 1,1 5,0 1,1 1,1 0,1 1,1 0,4 -1,1 0,2 -1,1 0,1 -1,1 -1,1 -9,0Z"/>
<path onmouseover="hoverPath(evt)" onmouseout="recoverPath(evt)" fill="rgb(217,206,180)" d="M  0,1l 0,4 4,0 1,1 0,2 2,0 1,1 2,0 1,1 2,0 1,1 2,0 1,1 2,0 1,1 2,0 1,1 4,0 1,1 2,0 1,1 2,0 1,1 2,0 1,1 2,0 1,1 2,0 1,1 2,0 1,1 1,1 0,1 1,1 2,0 1,1 0,-1 1,-1 0,-2 -2,0 -1,-1 0,-3 -1,0 -1,-1 -2,0 -1,-1 -2,0 -1,-1 0,2 -1,1 -2,0 -1,-1 0,-4 -1,0 -1,-1 -3,0 -1,-1 0,-1 -1,-1 -1,-1 -1,1 -2,0 -1,-1 -1,-1 -1,0 -1,-1 -1,-1 0,-4 -20,0 -1,1Z"/>
<path onmouseover="hoverPath(evt)" onmouseout="recoverPath(evt)" fill="rgb(245,231,164)" d="M  0,177l 0,5 1,0 0,-2 1,-1 3,0 1,1 0,3 1,0 1,-1 0,-1 1,-1 4,0 1,1 3,0 1,1 9,0 1,1 3,0 0,-1 1,-1 3,0 1,1 6,0 1,1 6,0 1,1 1,0 0,-1 1,-1 1,-1 23,0 1,1 0,2 24,0 1,1 22,0 1,-1 6,0 1,1 0,1 17,0 1,1 20,0 1,1 20,0 1,1 15,0 1,-1 3,0 1,1 0,5 1,-4 13,0 1,1 0,3 1,1 0,31 -1,1 -3,0 -1,1 -8,0 -1,1 -1,0 0,12 1,1 0,-12 1,-1 1,0 8,-1 0,0 1,1 0,1 1,1 0,6 -1,1 0,1 2,0 1,1 0,7 1,1 0,3 -1,1 -11,0 -1,-1 -1,0 -1,1 -1,0 0,3 42,0 0,-11 -20,0 -1,-1 0,-7 1,-1 10,0 1,-1 2,0 0,-12 -1,-1 -8,0 -1,-1 -3,0 -1,-1 0,-5 -1,-1 0,-6 -1,-1 0,-10 1,-1 0,-4 1,-1 0,-12 1,-1 0,-2 1,-1 12,0 0,-2 -1,-1 0,0 -1,-1 -12,0 -1,-1 0,-2 -1,-1 0,-9 1,-1 9,0 1,-1 0,-1 1,-1 0,-2 1,-1 0,-2 -1,-1 0,-1 -1,-1 -5,0 -1,-1 -2,0 -1,-1 0,-22 -1,0 -1,-1 0,-5 1,-1 1,-1 0,-28 -1,-1 0,-10 1,-1 6,0 1,1 7,0 1,1 6,0 0,-5 -3,0 -1,-1 0,-1 -1,0 -1,1 -2,0 -1,-1 -1,-1 -3,0 -1,-1 0,-2 1,-1 2,0 0,-1 -4,0 -1,1 -6,0 -1,-1 -7,0 0,2 -1,1 -1,0 -1,1 -3,0 -1,-1 0,-2 -1,1 -2,0 -1,1 -7,0 -1,-1 -4,0 0,1 -1,1 -4,0 -1,-1 -1,0 -1,-1 0,-1 -2,0 -1,-1 0,-1 -3,0 -1,-1 -1,1 -4,0 0,1 -1,1 -4,0 -1,-1 -1,0 -1,-1 0,-3 -1,-1 -7,0 -1,-1 0,-4 -1,4 -1,0 0,2 -2,2 -4,0 -1,-1 -1,0 -1,-1 0,-4 -8,0 -1,-1 -1,1 -1,0 -1,1 -2,0 -1,-1 -3,0 -1,-1 -3,0 -1,-1 0,-5 -2,0 -1,-1 1,2 0,2 -1,1 -4,0 -1,-1 -1,0 -1,-1 0,-1 -1,0 -1,-1 0,-1 -1,1 -2,0 -1,-1 -3,0 -1,-1 0,-2 1,-1 -2,0 -1,-1 -1,-1 0,-3 -1,0 -1,-1 -8,0 -1,-1 0,-1 -7,0 -1,-1 -3,0 -1,-1 -1,1 0,0 -1,1 -2,0 -1,-1 0,-3 -1,0 0,2 -1,1 -1,1 0,1 -1,1 -2,0 -1,-1 0,-3 -1,-1 0,-4 -1,1 -3,0 -1,-1 0,-2 -2,0 -1,-1 -1,0 -1,-1 -1,-1 0,2 -1,1 -4,0 -1,-1 -1,-1 0,1 -1,1 0,1 -1,1 -2,0 -1,-1 -2,0 -1,-1 -1,-1 0,-1 -1,-1 -2,0 -1,-1 -2,0 -1,-1 -2,0 -1,-1 -2,0 -1,-1 -2,0 -1,-1 -2,0 -1,-1 -4,0 -1,-1 -2,0 -1,-1 -2,0 -1,-1 -2,0 -1,-1 -2,0 -1,-1 -2,0 -1,-1 -2,0 -1,-1 0,-2 -3,0 0,7 2,0 1,1 2,0 1,1 3,0 1,1 2,0 1,1 5,0 1,1 0,1 2,0 1,1 2,0 1,1 2,0 1,1 2,0 1,1 2,0 1,1 2,0 1,1 2,0 1,1 2,0 1,1 2,0 1,1 2,0 1,1 1,0 1,1 1,0 1,-1 2,0 1,1 1,1 0,1 2,0 1,1 2,0 1,1 2,0 1,1 1,0 1,1 2,0 1,1 1,1 1,0 1,1 0,3 -1,1 -2,0 -1,1 -2,0 -1,1 -1,1 0,1 1,-1 4,-2 3,0 0,-1 1,-3 4,0 0,-1 1,-1 3,0 1,1 0,2 1,1 1,0 1,1 0,1 1,0 1,1 2,0 1,1 2,0 1,1 3,0 1,1 1,0 1,1 1,0 1,1 1,1 0,2 1,-3 3,0 1,1 2,0 1,1 1,0 1,1 3,0 1,1 3,0 1,1 3,0 1,1 2,0 1,1 3,0 1,1 3,0 1,1 2,0 1,1 3,0 1,1 10,0 1,1 5,0 1,1 8,0 1,1 8,0 1,1 8,0 1,1 8,0 1,1 8,0 1,1 4,0 1,1 1,1 0,3 -1,1 -3,0 -1,1 1,1 6,0 1,1 5,0 -1,-1 -3,0 -1,-1 -1,0 -1,-1 0,-2 1,-1 4,0 0,-1 1,-1 7,0 1,1 1,1 1,1 0,14 -1,1 -1,0 -1,1 0,1 -1,1 0,1 -1,1 -16,0 0,1 16,0 1,-1 0,0 1,-1 2,0 1,1 1,1 0,4 -1,1 0,4 -1,1 -1,0 0,31 1,1 0,4 -1,1 1,0 1,1 0,3 -1,1 -1,0 0,5 1,1 0,4 -1,1 -1,0 -1,1 2,0 1,1 0,15 -1,1 0,4 1,1 0,3 -1,1 -15,0 -1,-1 0,1 -1,1 -4,0 -1,-1 0,-4 -1,3 -15,0 -1,-1 -20,0 -1,-1 -7,0 -1,1 -4,0 -1,-1 0,-2 1,-1 1,0 0,-6 -1,0 -1,-1 -4,0 -1,1 0,6 2,0 1,1 0,2 -1,1 -5,0 -1,-1 0,-1 -15,0 -1,1 -3,0 -1,-1 0,-8 -1,7 -25,0 -1,-1 -24,0 -1,-1 -23,0 -1,-1 -17,0 -1,-1 -1,1 -3,0 -1,-1 -10,0 -1,-1 0,1 -1,1 -3,0 -1,-1 0,-4 -3,0 -1,-1 -6,0 0,7 206,-114 -206,114Z"/>
<path onmouseover="hoverPath(evt)" onmouseout="recoverPath(evt)" fill="rgb(249,248,243)" d="M  0,241l 0,1 4,0 1,1 0,3 -1,1 2,0 1,-1 2,0 1,1 7,0 1,1 2,0 1,1 0,-1 -2,-1 -1,0 -6,-1 0,-2 1,-1 10,0 1,1 1,1 0,2 1,-3 0,0 1,-1 16,0 1,1 23,0 1,1 1,0 1,1 0,3 1,1 0,-4 1,-1 1,-1 5,0 1,1 31,0 1,1 10,0 1,1 0,1 1,1 0,6 58,0 0,-5 1,-1 1,0 1,-1 4,0 1,1 17,0 1,1 1,0 1,1 0,1 1,1 0,2 1,0 0,-4 1,-1 1,0 1,-1 3,0 1,1 9,0 0,-1 -5,0 -1,-1 -10,0 -1,-1 0,-1 -1,-1 0,-25 -1,0 0,8 -1,1 0,6 1,1 0,10 -1,1 -1,1 -15,0 -1,-1 -24,0 -1,-1 -26,0 -1,-1 -12,0 -1,-1 -1,-1 0,-10 1,-1 0,-11 1,-1 0,-2 1,-1 11,0 1,1 0,13 -1,1 0,5 1,1 0,-6 1,-11 0,-5 1,-1 0,-4 1,-1 0,-1 1,-1 18,0 1,1 12,0 -9,-1 -3,0 -19,-1 -1,-1 0,-5 1,-1 -1,0 1,-1 0,-1 -2,9 0,3 1,-3 -2,8 -1,1 0,1 -7,-1 -4,0 -1,-1 -1,-1 0,-11 1,-1 0,-12 1,-1 0,-3 -2,0 0,11 -1,1 -1,0 -1,1 -11,0 -1,-1 0,0 -1,-1 -1,-1 0,-1 -11,0 6,1 0,0 1,1 0,2 -1,1 -1,1 -8,0 -1,-1 -17,0 -1,-1 -1,-1 0,1 -1,1 0,3 -1,1 -11,0 0,3 13,0 1,1 1,0 1,1 0,12 3,0 -2,-1 0,-3 1,-1 16,0 1,1 1,0 1,1 0,5 -1,1 -11,0 7,1 4,0 1,1 0,9 1,-9 0,-3 1,-1 12,0 1,1 8,0 1,1 1,1 0,6 -1,1 0,10 -1,1 -1,0 0,1 -1,1 -5,0 -1,-1 -32,0 -1,-1 -32,0 -1,-1 -15,0 -1,-1 0,-10 1,-1 0,-2 1,-1 0,-3 -1,-1 0,-1 -7,0 -1,-1 0,-2 1,-1 11,0 0,-1 1,-1 0,-11 -1,-1 -4,0 -1,-1 -5,0 -1,1 -1,0 0,4 -1,1 -1,1 -11,0 -1,-1 -1,0 -1,-1 0,-11 1,-1 1,0 0,-1 1,-1 17,0 0,-1 -18,0 -1,-1 0,-4 1,-1 0,-1 1,-1 16,0 1,1 0,-1 -3,-1 -9,0 -1,-1 -3,0 -1,-1 -2,0 0,1 -1,1 -1,1 -3,0 -1,-1 0,-3 -1,0 0,2 -1,1 -2,0 0,57 25,-31 0,0 -25,31 27,-37 5,0 5,1 0,11 -10,-12 -27,37 31,-4 0,3 -2,2 -8,0 -1,-1 -9,0 -1,-1 -1,-1 0,-16 1,-1 12,0 1,1 0,1 1,1 0,1 1,1 0,6 2,0 1,1 0,2 2,0 1,1 -31,4 123,-19 -123,19 106,-41 1,-1 4,0 -5,1 -106,41 124,-42 0,0 1,1 0,17 -1,1 0,-19 -124,42 209,-22 1,0 0,-5 1,-1 0,-17 -1,-1 0,-5 -1,0 0,5 1,1 0,8 -1,1 -10,0 8,1 2,0 1,1 0,5 -1,1 -15,0 9,1 4,0 1,1 0,1 1,1 0,2 -209,22 101,-21 0,-2 1,-1 10,0 -9,-1 -1,0 -1,-1 -1,-1 0,-2 1,-1 0,-1 -1,-1 0,-2 1,-1 2,0 1,-1 1,0 0,-3 -4,18 -101,21Z"/>
<path onmouseover="hoverPath(evt)" onmouseout="recoverPath(evt)" fill="rgb(251,251,249)" d="M  10,169l 1,0 1,1 0,4 1,0 0,-2 1,-1 0,-2 1,-1 0,-3 1,-1 0,-1 1,-1 0,-3 1,-1 0,-3 1,-1 0,-2 1,-1 0,-3 1,-1 0,-2 1,-1 0,-3 1,-1 1,-1 5,0 0,-1 -3,0 -1,-1 0,-6 -1,1 -2,0 -1,-1 0,-3 -1,0 0,7 -1,1 0,3 -1,1 0,1 1,1 0,3 -1,1 -2,0 0,1 -1,1 -5,0 6,1 0,4 1,1 0,3 -1,1 -1,0 -1,1 -2,0 -1,-1 -3,0 -1,-1 -3,0 -1,-1 -3,0 0,12 7,0 1,1 2,0 16,-39 0,-2 1,-1 0,-2 1,-1 0,-2 -1,0 0,1 -1,1 0,2 -1,1 0,2 1,1 -16,39 20,-30 0,1 3,0 1,1 4,0 1,1 4,0 1,1 3,0 1,1 12,0 1,-1 3,0 1,-1 1,0 1,-1 1,0 1,-1 2,0 1,1 0,-1 1,-1 0,-1 4,-4 1,0 0,-2 1,-1 0,-1 1,-1 1,-1 5,0 1,1 3,0 1,1 3,0 1,1 3,0 1,1 4,0 1,1 3,0 1,1 3,0 1,1 2,0 1,1 4,0 1,1 3,0 1,1 3,0 1,1 1,1 0,6 -1,1 -1,0 -1,1 -1,0 0,2 1,1 0,5 -1,1 2,0 1,1 0,13 -1,1 0,7 1,0 0,-3 1,-1 0,-16 1,-1 0,-14 1,-1 0,-3 1,-1 13,0 1,1 1,0 1,1 0,19 -1,1 0,19 3,0 -2,-10 0,0 1,-1 6,0 1,1 1,0 1,1 0,8 -1,1 -1,0 3,-8 0,-1 1,-1 10,0 1,1 2,0 1,-1 2,0 1,-1 1,-1 0,-1 1,-1 0,-4 1,-1 0,-10 1,-1 0,-5 1,-1 0,-1 1,-1 13,0 1,1 5,0 1,1 0,4 1,1 0,18 1,1 0,6 1,1 0,3 1,1 0,4 2,0 -1,-1 0,-3 -1,-1 0,-5 1,-1 1,-1 1,-1 -3,0 -1,-1 0,-3 -1,-1 0,-20 1,-1 1,0 1,-1 6,0 1,1 12,0 0,-1 -11,0 -1,-1 -8,0 -1,-1 -1,0 -1,-1 0,-15 1,-1 -1,0 1,-1 0,-3 -1,-1 0,-2 -1,-1 -14,0 13,1 1,0 0,23 -1,1 -1,0 -1,1 -2,0 -1,-1 -14,0 -1,-1 -20,0 -1,-1 -10,0 -1,-1 -17,0 -1,-1 0,-1 -1,-1 0,-2 1,-1 0,-7 1,-1 0,-5 1,-1 0,-5 1,-1 0,-4 1,-1 0,-2 1,-1 0,-3 1,-1 0,-3 1,-1 0,-3 1,-1 0,-2 1,-1 2,0 0,-1 -1,-1 0,-3 1,-1 0,-2 1,-1 0,-3 1,-1 0,-2 1,-1 0,-3 1,-1 0,-2 1,-1 0,-2 -2,0 0,3 -1,1 0,3 -1,1 0,2 -1,1 0,2 -1,1 0,3 -1,1 0,2 -1,1 0,2 -1,1 -1,1 -2,0 -1,-1 -4,0 -1,-1 -3,0 -1,-1 -4,0 -1,-1 -3,0 -1,-1 -4,0 -1,-1 -3,0 -1,-1 -4,0 -1,-1 -3,0 -1,-1 0,-5 1,-1 0,-2 1,-1 0,-1 1,-1 0,-2 1,-1 0,-1 1,-1 0,-2 1,-1 0,-2 1,-1 0,-2 1,-1 0,-2 -1,0 0,2 -1,1 0,2 -1,1 -2,0 1,1 0,3 -1,1 -2,0 1,1 0,3 -1,1 0,1 -1,1 0,2 -1,1 0,2 -1,1 -5,0 -1,1 -5,0 -1,-1 -4,0 -1,-1 -3,0 -1,-1 0,-2 -3,0 -1,1 0,2 4,0 1,1 3,0 1,1 4,0 1,1 4,0 1,1 2,0 1,1 3,0 1,1 5,0 1,1 4,0 1,1 3,0 1,1 4,0 1,1 3,0 1,1 4,0 1,1 3,0 1,1 3,0 1,1 2,0 1,1 0,5 -1,1 0,3 -1,1 0,1 -1,1 0,4 -1,1 -2,0 -1,-1 0,-2 -1,-1 0,4 -1,1 -1,1 -2,0 3,1 2,0 1,1 1,1 0,3 -1,1 0,6 -1,1 -2,0 -1,-1 0,2 1,0 1,1 1,1 0,4 -1,1 0,3 -1,1 -1,1 -4,0 -1,-1 -3,0 -1,-1 -2,0 -1,-1 -4,0 -1,-1 -3,0 -1,-1 -3,0 -1,-1 -3,0 -1,-1 -4,0 -1,-1 -3,0 -1,-1 -2,0 -1,-1 -3,0 -1,-1 -1,-1 -1,-1 0,-10 1,-1 -2,0 -1,-1 0,-1 -1,-1 -1,-1 0,-1 -1,-1 0,-3 -1,-1 -4,0 -1,-1 -1,-1 0,-2 -1,0 -1,-1 -1,1 -3,0 -1,-1 -4,0 -1,-1 -3,0 -1,-1 0,1 2,1 0,2 -1,1 2,0 1,-1 3,0 1,1 0,1 1,1 1,0 1,1 2,0 1,1 1,0 1,1 1,0 1,1 1,1 1,1 1,1 1,1 0,1 1,1 0,2 1,1 0,5 2,0 1,1 0,5 -1,1 0,1 -1,1 0,1 -1,1 -3,0 -1,1 -1,1 -2,0 -1,1 -1,1 -1,0 -1,1 -2,0 -1,1 -3,0 -1,1 -12,0 -1,-1 -4,0 -1,-1 -1,0 -1,-1 0,-6 -1,4 0,2 -1,1 0,1 -1,1 -6,0 -20,30 140,-29 10,0 1,1 16,0 1,1 1,0 1,1 1,1 0,0 -31,-4 -140,29 139,-28 0,5 48,-4 -48,-1 -139,28 170,-19 -1,0 -1,1 -6,0 7,1 0,-1 1,-1 -170,19 168,-5 0,2 -1,-3 -5,0 6,1 -168,5 161,-5 0,0 -161,5 163,1 -2,0 -11,-1 -4,0 17,1 -163,-1 168,-12 -6,0 -1,1 -3,0 -1,1 -4,0 -1,-1 -1,-1 0,1 1,1 0,1 1,0 1,1 0,2 1,1 3,0 10,-7 -168,12 150,-13 1,-1 0,-1 -3,0 1,1 0,1 1,0 -150,13 139,-2 0,0 -139,2Z"/>
<path onmouseover="hoverPath(evt)" onmouseout="recoverPath(evt)" fill="rgb(242,240,231)" d="M  48,105l 0,1 -1,1 0,3 -1,1 -2,0 0,2 1,1 0,4 -1,1 0,3 -1,1 -2,0 0,1 1,1 0,4 -1,1 0,5 1,0 1,1 4,0 1,1 10,0 1,-1 3,0 1,-1 2,0 1,-1 1,0 1,-1 1,-1 2,0 1,-1 1,-1 3,0 0,-1 1,-1 0,-1 1,-1 0,-3 -2,0 -1,-1 0,-5 -1,-1 0,-2 -1,-1 0,-1 -1,-1 -1,-1 -1,-1 -1,-1 -1,0 -1,-1 -1,0 -1,-1 -2,0 -1,-1 -1,0 -1,-1 -1,-1 0,-1 -1,0 -1,1 -4,0 -1,-1 -3,0 0,1 -1,1Z"/>
<path onmouseover="hoverPath(evt)" onmouseout="recoverPath(evt)" fill="rgb(243,241,232)" d="M  198,0l -4,0 0,8 1,1 0,5 1,0 1,1 1,0 1,1 0,7 -1,1 -2,0 0,2 1,1 0,7 -1,1 0,2 -1,1 0,5 1,1 2,0 1,1 0,12 4,0 1,1 9,0 1,1 1,0 1,1 0,2 1,-1 2,0 1,1 0,2 1,0 1,-1 1,0 0,-2 1,-1 9,0 1,1 4,0 1,-1 6,0 1,1 0,3 -1,1 1,0 1,1 1,1 1,-1 3,0 1,1 0,1 2,0 0,-33 -4,0 -1,-1 0,-2 -1,-1 -1,-1 0,-1 -1,-1 -1,-1 -1,-1 -1,-1 0,-1 -1,-1 -1,-1 0,-1 -1,-1 -1,-1 -1,-1 0,-1 -1,-1 -1,-1 -2,-2 0,-1 -1,-1 -1,-1 0,-1 -1,-1 0,-1 -1,-1 0,-1 -1,-1 -1,-1 0,-3 -31,0 37,40 1,1 0,2 -1,1 -2,0 -1,-1 0,-2 1,-1 2,0 -37,-40Z"/>
<path onmouseover="hoverPath(evt)" onmouseout="recoverPath(evt)" fill="rgb(190,213,144)" d="M  211,105l 0,3 -1,1 0,1 1,1 6,0 1,1 7,0 0,-8 -7,0 -1,-1 -6,0Z"/>
<path onmouseover="hoverPath(evt)" onmouseout="recoverPath(evt)" fill="rgb(243,202,118)" d="M  242,18l 0,0 1,1 1,1 0,1 1,1 1,1 0,1 1,1 1,1 1,1 1,1 0,1 1,1 1,1 0,2 3,0 0,-33 -24,0 0,2 1,1 0,0 1,1 0,1 1,1 0,1 1,1 0,1 1,1 1,1 0,1 1,1 1,1 1,1 1,1 0,1 1,1Z"/>
<path onmouseover="hoverPath(evt)" onmouseout="recoverPath(evt)" fill="rgb(240,239,229)" d="M  54,94l 0,0 1,1 3,0 1,1 4,0 1,1 1,0 1,-1 2,0 1,1 1,0 1,1 0,2 1,1 4,0 1,1 1,1 0,3 1,1 0,1 1,1 1,1 0,1 2,0 1,1 0,2 -1,1 0,8 1,1 0,0 1,1 3,0 1,1 2,0 1,1 3,0 1,1 4,0 1,1 3,0 1,1 3,0 1,1 3,0 1,1 4,0 1,1 2,0 1,1 3,0 1,1 2,0 1,-1 0,-3 1,-1 0,-2 -1,-1 -1,0 -1,-1 0,-7 1,-1 2,0 1,1 0,-3 1,-1 0,-1 -1,-1 -2,0 -1,-1 -2,0 -1,-1 0,-2 1,-1 2,0 1,-1 0,-4 1,-1 2,0 1,1 1,1 0,-2 1,-1 0,-1 1,-1 0,-3 1,-1 0,-3 -2,0 -1,-1 -3,0 -1,-1 -3,0 -1,-1 -4,0 -1,-1 -3,0 -1,-1 -4,0 -1,-1 -3,0 -1,-1 -4,0 -1,-1 -5,0 -1,-1 -3,0 -1,-1 -2,0 -1,-1 -4,0 -1,-1 -4,0 -1,-1 -3,0 -1,-1 -4,0 -1,-1 0,-4 1,-1 1,-1 0,-9 -4,0 -1,-1 0,-3 -5,0 -1,-1 0,-2 1,-1 1,-1 1,-1 -1,-1 0,-2 1,-1 0,-2 1,-1 1,-1 1,-1 2,0 1,-1 2,0 0,-1 -1,0 -1,-1 -1,-1 -2,0 -1,-1 -1,0 -1,-1 -2,0 -1,-1 -2,0 -1,-1 -2,0 0,1 1,1 0,3 -1,1 -2,0 0,3 -1,1 0,2 -1,1 0,3 -1,1 0,1 1,1 0,3 -1,1 -2,0 0,3 -1,1 0,2 -1,1 0,1 1,1 2,0 1,1 3,0 1,1 4,0 1,1 3,0 1,1 0,3 -1,1 -6,0 -1,-1 -3,0 -1,-1 -5,0 -1,-1 -1,0 -1,1 -3,0 -1,-1 0,-1 -1,0 -1,-1 -1,0 1,1 0,7 -1,1 -1,1 -1,0 -1,1 0,1 -1,1 -1,1 -2,0 0,3 1,1 0,5 1,-2 2,0 1,1 0,3 3,0 1,1 0,7 -1,1 -1,0 0,6 -1,1 -1,1 0,4 -1,1 0,1 -1,1 -2,0 -1,-1 0,-4 -2,0 0,6 1,0 1,1 0,4 -1,1 0,2 -1,1 0,2 -1,1 0,4 3,0 1,1 4,0 0,-1 1,-1 0,-2 1,-1 0,-3 1,-1 2,0 0,-2 -1,-1 0,-3 1,-1 2,0 0,-3 1,-1 0,-2 -1,-1 0,-4 1,-1 2,0 0,-3 1,-1 0,-2 1,-1 0,-1 1,-1 4,0 1,-1 -1,0 -1,-1 0,-3 1,-1Z"/>
<path onmouseover="hoverPath(evt)" onmouseout="recoverPath(evt)" fill="rgb(242,240,232)" d="M  66,10l 0,0 -1,1 0,2 -1,1 0,1 -1,1 0,2 -1,1 1,1 0,1 1,1 1,0 1,1 2,0 1,1 0,2 1,0 1,-1 2,0 1,1 0,4 1,1 0,3 1,-2 0,0 1,-1 0,-2 1,-1 3,0 1,1 0,3 1,-1 0,0 1,-1 2,0 1,1 3,0 1,1 9,0 0,-7 -1,0 -1,-1 -1,-1 0,-2 2,-2 1,-1 2,0 0,-1 2,-2 3,0 0,-3 1,-1 0,-2 1,-1 2,0 1,-1 1,0 0,-1 1,-1 0,-1 1,-1 1,-1 0,-2 -47,0 0,3 1,0 1,1 4,0 1,1 0,2 -1,1 -8,0 -1,1Z"/>
<path onmouseover="hoverPath(evt)" onmouseout="recoverPath(evt)" fill="rgb(241,239,228)" d="M  79,186l -3,0 1,1 0,4 1,0 1,1 18,0 1,1 12,0 1,1 0,1 1,1 1,1 9,0 1,-1 1,0 0,-9 -23,0 -1,-1Z"/>
<path onmouseover="hoverPath(evt)" onmouseout="recoverPath(evt)" fill="rgb(188,213,141)" d="M  150,66l 0,1 -1,1 0,2 -1,1 0,3 -1,1 0,2 -1,1 0,3 -1,1 0,1 20,0 1,1 2,0 1,1 1,1 0,5 1,1 1,0 1,1 5,0 1,1 3,0 1,1 1,1 1,1 0,1 1,1 0,3 -1,1 0,2 1,1 0,0 1,1 3,0 1,1 9,0 1,1 1,0 1,1 0,1 1,0 1,1 0,-8 1,-1 0,-4 1,-1 19,0 1,1 0,-1 1,-1 0,-2 -1,-1 0,0 -1,1 0,0 -1,1 -18,0 -1,-1 0,-3 1,-1 16,0 0,-1 1,-1 0,-1 1,-1 1,-1 1,0 0,-12 -1,-1 0,0 -1,-1 -5,0 0,1 -1,1 -4,0 2,1 3,0 1,1 1,1 0,2 -1,1 -7,0 -1,-1 -6,0 -1,-1 -1,-1 0,-2 2,-2 3,0 0,-1 -1,-1 -4,0 -1,-1 -8,0 -1,-1 -8,0 -1,-1 -8,0 -1,-1 -8,0 -1,-1 -8,0 -1,-1 -5,0 -1,-1 -3,0Z"/>
<path onmouseover="hoverPath(evt)" onmouseout="recoverPath(evt)" fill="rgb(240,239,227)" d="M  173,245l 18,0 1,1 13,0 1,-1 0,-8 -1,-1 0,-8 1,-1 0,-8 1,-1 -1,-1 0,-1 -4,0 -1,-1 -8,0 -1,-1 -13,0 -1,1 0,1 -1,1 -2,0 -1,1 0,1 -1,1 0,1 -1,1 -1,0 0,1 -1,1 -4,0 -1,1 0,1 -1,1 0,4 -1,1 0,1 -1,1 -9,0 -1,1 0,4 1,1 0,3 -1,1 14,0 1,1 6,0 -31,-1 -1,-1 0,-20 -1,18 -2,0 -1,-1 0,-1 -1,-1 0,-7 1,-1 0,-11 -9,0 0,2 -1,1 0,11 -1,1 0,8 1,1 12,0 1,1 2,0 31,1Z"/>
<path onmouseover="hoverPath(evt)" onmouseout="recoverPath(evt)" fill="rgb(190,215,146)" d="M  58,11l -2,0 -1,-1 0,-2 1,-1 1,0 0,-2 1,-1 0,-1 1,-1 0,-2 -36,0 0,3 1,1 1,0 1,1 1,1 1,-1 2,0 1,1 1,1 1,1 0,1 3,0 1,1 1,0 1,1 0,4 1,-4 2,0 1,1 0,1 2,0 1,1 2,0 1,1 1,0 1,1 0,3 2,0 1,1 2,0 0,-3 1,-1 0,-1 1,-1Z"/>
<path onmouseover="hoverPath(evt)" onmouseout="recoverPath(evt)" fill="rgb(243,241,232)" d="M  2,67l -2,0 0,14 2,0 1,1 0,1 1,0 1,1 0,1 1,1 0,14 1,1 4,0 0,-2 1,-1 15,0 0,-4 -1,0 -1,-1 0,-3 1,-1 3,0 -1,-1 0,-5 1,-1 0,-3 1,-1 1,0 2,-2 1,-1 0,-2 -1,0 -1,-1 -2,0 -1,-1 -3,0 -1,-1 -4,0 -1,-1 -3,0 -1,-1 -3,0 -1,-1 -3,0 -1,-1 -5,0 -1,1Z"/>
<path onmouseover="hoverPath(evt)" onmouseout="recoverPath(evt)" fill="rgb(239,236,224)" d="M  107,204l 0,2 -1,1 -1,0 -1,1 -2,0 1,1 0,3 -1,1 1,1 1,0 1,1 8,0 1,1 0,2 -1,1 -10,0 0,1 19,0 0,-3 1,-1 0,-15 -15,0 0,1 -1,1Z"/>
<path onmouseover="hoverPath(evt)" onmouseout="recoverPath(evt)" fill="rgb(242,240,231)" d="M  132,188l -1,0 -1,-1 0,3 -1,1 0,12 -1,1 0,9 1,1 4,0 1,1 3,0 1,-1 0,0 1,-1 0,-7 1,-1 0,-6 1,-1 0,-1 1,-1 2,0 1,1 0,4 -1,1 0,3 1,1 21,0 1,1 8,0 1,1 0,2 1,1 0,2 1,-1 14,0 1,-1 15,0 0,-3 -2,0 -1,-1 -7,0 -1,-1 0,-2 1,-1 10,0 0,-6 -1,-1 0,-5 -16,0 -1,-1 -20,0 -1,-1 -20,0 -1,-1Z"/>
<path onmouseover="hoverPath(evt)" onmouseout="recoverPath(evt)" fill="rgb(242,240,231)" d="M  144,211l 0,0 -1,1 0,4 -1,1 0,4 1,1 0,20 8,0 0,-1 -1,-1 0,-6 2,-2 9,0 0,-1 1,-1 0,-4 1,-1 0,-1 1,-1 1,-1 4,0 0,-1 1,-1 1,0 0,-1 1,-1 0,-1 1,-1 1,-1 0,-1 1,-1 0,-1 -1,-1 -13,0 -1,-1 -15,0 -1,1Z"/>
<path onmouseover="hoverPath(evt)" onmouseout="recoverPath(evt)" fill="rgb(253,253,253)" d="M  253,212l 2,0 0,-1 -1,0 -12,1 -5,0 -1,-1 -1,-1 0,-8 -1,-1 0,-4 2,-2 1,0 1,-1 9,0 1,1 7,0 0,-2 -10,0 -1,-1 -9,0 0,3 18,17 -19,-10 0,3 1,6 0,1Z"/>
<path onmouseover="hoverPath(evt)" onmouseout="recoverPath(evt)" fill="rgb(238,237,222)" d="M  24,235l 0,0 -1,-1 0,-6 -1,-1 0,-1 -1,-1 0,-1 -10,0 0,14 1,1 9,0 1,1 6,0 1,-1 0,-1 -2,0 -1,-1 0,-2Z"/>
<path onmouseover="hoverPath(evt)" onmouseout="recoverPath(evt)" fill="rgb(249,249,244)" d="M  35,77l 0,0 -1,1 -1,1 -1,1 -1,0 0,2 1,-1 3,-3 0,-9 1,-1 3,0 1,1 1,0 1,1 0,1 1,0 1,-1 3,0 1,1 5,0 1,1 3,0 1,1 4,0 0,-1 -3,0 -1,-1 -4,0 -1,-1 -3,0 -1,-1 -2,0 -1,-1 -1,-1 0,-3 1,-1 0,-2 1,-1 0,-3 1,-1 2,0 0,-1 -1,-1 0,-3 1,-1 0,-3 1,-1 0,-2 1,-1 0,-3 1,-1 2,0 0,-1 -1,-1 0,-3 1,-1 -1,-1 -1,1 0,3 -1,1 0,2 -1,1 0,3 -1,1 0,2 -1,1 0,2 -1,1 0,3 -1,1 0,2 -1,1 0,2 -1,1 0,2 -1,1 0,3 -1,1 -8,0 -1,-1 -3,0 -1,-1 -4,0 -1,-1 -4,0 -1,-1 -4,0 -1,-1 -4,0 -1,-1 -3,0 -1,-1 -3,0 -1,-1 0,-5 1,-1 0,-1 1,-1 0,-2 1,-1 2,0 -1,-1 0,-2 1,-1 0,-2 1,-1 0,-1 1,-1 0,-1 1,-1 0,-2 1,-1 0,-1 1,-1 2,0 -1,-1 0,-3 1,-1 2,0 -1,-1 0,-3 1,-1 0,-1 1,-1 -5,0 -1,-1 -2,0 -1,-1 -3,0 -1,-1 -2,0 -1,-1 -1,0 0,49 1,0 1,-1 7,0 1,1 3,0 1,1 3,0 1,1 3,0 1,1 4,0 1,1 3,0 1,1 4,0Z"/>
<path onmouseover="hoverPath(evt)" onmouseout="recoverPath(evt)" fill="rgb(237,236,221)" d="M  183,253l 0,2 25,0 0,-1 -1,-1 0,-1 -1,0 -1,-1 -17,0 -1,-1 -2,0 -1,1 -1,0Z"/>
<path onmouseover="hoverPath(evt)" onmouseout="recoverPath(evt)" fill="rgb(253,253,253)" d="M  208,101l 0,3 -1,1 0,7 1,1 1,1 2,0 1,1 13,0 0,-1 -8,0 -1,-1 -6,0 -1,-1 -1,-1 0,-3 1,-1 0,-5 -1,-1 1,-1 1,0 1,1 7,0 1,1 8,0 0,-1 -1,0 -1,-1 -16,0 -1,1Z"/>
<path onmouseover="hoverPath(evt)" onmouseout="recoverPath(evt)" fill="rgb(239,236,224)" d="M  236,181l 0,9 9,0 1,1 9,0 0,-14 -1,0 0,9 -1,1 -2,0 -1,-1 0,-7 -1,0 -1,-1 -5,0 -1,1 -6,0Z"/>
<path onmouseover="hoverPath(evt)" onmouseout="recoverPath(evt)" fill="rgb(236,234,224)" d="M  8,103l -2,0 -1,-1 -1,-1 0,-14 -1,-1 0,-1 -1,0 -1,-1 0,-1 -1,0 0,71 4,0 1,1 3,0 1,1 3,0 1,1 1,-1 1,0 0,-1 -1,-1 0,-4 -5,0 -1,-1 0,-2 1,-1 5,0 0,-1 1,-1 2,0 0,-1 -1,-1 0,-3 1,-1 0,-3 1,-1 0,-7 1,-1 3,0 1,1 0,-1 1,-1 0,-2 1,-1 0,-1 1,-1 0,-7 1,-1 4,0 1,1 0,4 1,-2 0,-4 1,-1 1,-1 0,-6 1,-1 1,0 0,-5 -3,0 -1,-1 0,-3 -1,2 -2,0 -1,-1 0,5 -1,1 -15,0 0,2 -1,1 -4,0 21,-10 0,-2 -2,0 0,1 1,0 1,1 -21,10Z"/>
<path onmouseover="hoverPath(evt)" onmouseout="recoverPath(evt)" fill="rgb(239,238,227)" d="M  36,223l 0,5 -1,1 0,2 -1,1 0,8 11,0 0,-6 1,-1 0,-6 1,-1 0,-6 1,-1 0,-7 1,-1 0,-7 1,-1 0,-6 1,-1 2,0 0,-4 -1,2 0,0 -1,1 -1,0 -1,1 -4,0 -1,-1 -11,0 -1,-1 -1,-1 0,2 -1,1 -17,0 0,1 -1,1 -1,0 0,9 1,0 1,1 9,0 1,-1 0,-4 1,-1 1,0 1,-1 7,0 1,1 4,0 2,2 0,13 -1,1 0,1 -1,1 -11,0 8,1 0,1 1,1 -5,-31 0,-7 -1,3 -2,0 -1,-1 -14,0 0,1 -1,1 0,2 1,0 1,1 13,0 1,-1 2,0 1,1 5,31Z"/>
<path onmouseover="hoverPath(evt)" onmouseout="recoverPath(evt)" fill="rgb(237,235,226)" d="M  68,56l 0,0 1,1 0,3 4,0 1,1 0,10 3,0 1,1 0,2 3,0 1,1 4,0 1,1 3,0 1,-1 5,0 0,-2 1,-1 0,-2 1,-1 0,-1 1,-1 0,-1 -1,-1 0,-2 1,-1 2,0 0,-1 -1,-1 0,-2 1,-1 2,0 0,-1 -1,-1 0,-2 -1,-1 -1,0 -1,-1 -1,0 -1,-1 -3,0 -1,-1 -2,0 -1,-1 -2,0 -1,-1 -1,0 -1,-1 0,-1 -1,0 -1,-1 -1,-1 0,-2 -1,0 0,1 -1,1 -4,0 0,3 -1,1 -6,0 0,1 -1,1 -1,1 0,1 -1,1 0,1 -1,1 -2,2Z"/>
<path onmouseover="hoverPath(evt)" onmouseout="recoverPath(evt)" fill="rgb(244,245,235)" d="M  70,6l 0,0 -1,-1 -1,0 -1,-1 0,-4 -6,0 0,3 -1,1 0,1 -1,1 0,2 -1,1 2,0 1,1 0,2 -1,1 0,2 -1,1 0,1 -1,1 0,3 -1,1 -1,0 1,1 2,0 0,-3 1,-1 0,-1 1,-1 0,-2 1,-1 0,-1 1,-1 0,-2 1,-1 0,-1 1,-1 1,-1Z"/>
<path onmouseover="hoverPath(evt)" onmouseout="recoverPath(evt)" fill="rgb(236,234,221)" d="M  105,255l 16,0 0,-5 -1,-1 0,-1 -10,0 -1,-1 -31,0 -1,-1 -3,0 -1,1 0,4 -1,1 -2,0 -1,-1 -1,-1 0,-3 -1,0 -1,-1 -23,0 -1,-1 -14,0 -1,1 0,2 -1,1 -2,0 -1,-1 0,-2 -1,-1 -8,0 7,1 1,0 1,3 0,1 -1,1 -2,0 -1,-1 -2,0 -1,-1 -7,0 -1,-1 -1,1 -4,0 -1,-1 0,-2 1,-1 0,-1 -3,0 0,11Z"/>
<path onmouseover="hoverPath(evt)" onmouseout="recoverPath(evt)" fill="rgb(243,242,233)" d="M  145,85l -1,0 0,1 1,1 0,3 -1,1 -2,0 0,2 -1,1 0,3 -1,1 0,3 -1,1 0,3 -1,1 0,2 -1,1 0,4 -1,1 0,5 -1,1 0,5 -1,1 0,7 -1,1 1,1 0,1 17,0 1,1 10,0 1,1 20,0 1,1 14,0 1,1 1,-1 1,0 0,-3 1,-1 0,-12 1,-1 0,-1 -1,-1 0,-1 -1,0 -1,-1 -12,0 -1,-1 0,-2 1,-1 16,0 -1,-1 -1,0 -1,-1 0,-1 -1,0 -1,-1 -9,0 -1,-1 -3,0 -1,-1 -1,-1 -1,-1 0,-4 1,-1 0,-1 -1,-1 0,-1 -1,-1 -1,-1 -3,0 -1,-1 -5,0 -1,-1 -1,0 -1,-1 -1,-1 0,-5 -1,-1 -2,0 -1,-1 -19,0 60,30 1,1 0,2 1,1 0,6 -1,1 0,13 1,0 1,1 8,0 1,1 0,-1 1,-1 8,0 0,-2 -1,1 0,0 -8,1 -3,0 -1,-1 -1,0 -1,-1 0,-1 -1,-1 0,-9 1,-1 0,-4 -1,-1 0,-4 -2,0 -1,-1 -1,-1 -1,1 -60,-30Z"/>
<path onmouseover="hoverPath(evt)" onmouseout="recoverPath(evt)" fill="rgb(242,241,231)" d="M  161,173l 0,0 -1,1 0,5 8,0 1,1 20,0 1,1 13,0 0,-2 1,-1 0,-2 -1,-1 0,-6 -1,-1 0,-18 -1,-1 0,-4 -5,0 -1,-1 -11,0 0,1 -1,1 0,5 -1,1 0,10 -1,1 0,4 -1,1 0,1 -1,1 -1,1 -1,1 -2,0 -1,1 -4,0 -1,-1 -7,0 -1,1Z"/>
<path onmouseover="hoverPath(evt)" onmouseout="recoverPath(evt)" fill="rgb(241,240,229)" d="M  210,173l 0,0 -1,1 0,3 1,1 0,3 2,0 1,1 13,0 0,-1 -1,-1 0,-6 1,-1 0,-13 -6,0 -1,-1 0,-2 1,-1 4,0 1,-1 1,0 0,-2 -1,-1 0,-6 -11,0 -1,-1 -4,0 -1,1 -1,0 0,18 1,1 0,3 4,0 1,1 0,2 -1,1 -1,0 -1,1Z"/>
<path onmouseover="hoverPath(evt)" onmouseout="recoverPath(evt)" fill="rgb(187,214,141)" d="M  212,118l 0,1 1,1 0,6 -1,1 0,7 1,1 0,1 1,0 1,1 8,0 1,-1 0,0 1,-1 0,-18 -12,0 -1,1Z"/>
<path onmouseover="hoverPath(evt)" onmouseout="recoverPath(evt)" fill="rgb(243,242,233)" d="M  19,22l -1,0 0,1 -1,1 0,1 1,1 0,2 -1,1 -2,0 0,1 1,1 0,2 -1,1 -2,0 0,1 -1,1 0,2 -1,1 0,1 -1,1 0,1 -1,1 0,2 -1,1 1,1 0,2 -1,1 -2,0 0,2 -1,1 0,1 -1,1 0,3 3,0 1,1 3,0 1,1 4,0 1,1 4,0 1,1 4,0 1,1 4,0 1,1 3,0 1,1 6,0 0,-3 1,-1 0,-2 1,-1 0,-2 1,-1 0,-2 1,-1 0,-3 1,-1 0,-2 1,-1 0,-2 1,-1 0,-3 1,-1 0,-2 1,-1 0,-2 -1,0 -1,-1 -1,0 -1,-1 -2,0 -1,-1 -2,0 -1,-1 -2,0 -1,-1 -2,0 -1,-1 -2,0 -1,-1 -2,0 -1,-1 -2,0 -1,-1 -2,0 -1,-1 -2,0 -1,-1Z"/>
<path onmouseover="hoverPath(evt)" onmouseout="recoverPath(evt)" fill="rgb(243,242,233)" d="M  24,143l 0,2 -1,1 0,2 -1,1 0,3 -1,1 0,2 -1,1 0,3 -1,1 0,3 -1,1 0,1 -1,1 0,3 -1,1 0,1 1,1 0,1 10,0 1,1 1,0 1,-1 2,0 1,1 17,0 1,1 23,0 1,1 24,0 1,1 23,0 0,-6 1,-1 2,0 0,-11 -3,0 -1,-1 0,-2 1,-1 1,0 0,-3 -1,-1 0,-4 1,-1 1,0 1,-1 1,0 0,-4 -1,-1 -3,0 -1,-1 -3,0 -1,-1 -4,0 -1,-1 -2,0 -1,-1 -3,0 -1,-1 -3,0 -1,-1 -4,0 -1,-1 -3,0 -1,-1 -3,0 -1,-1 -3,0 -1,-1 -3,0 -1,1 0,1 -1,1 0,2 -1,1 -1,0 -1,1 -1,1 -1,1 0,1 -1,1 0,1 -1,1 -2,0 -1,-1 -1,1 -1,0 -1,1 -1,0 -1,1 -3,0 -1,1 -14,0 -1,-1 -3,0 -1,-1 -4,0 -1,-1 -4,0 -1,-1 -3,0 -1,-1 -3,0 -1,1Z"/>
<path onmouseover="hoverPath(evt)" onmouseout="recoverPath(evt)" fill="rgb(230,230,223)" d="M  75,191l 0,-3 -1,-1 0,-2 1,-1 0,-1 -21,0 -1,1 0,1 -1,1 -3,0 -1,-1 -6,0 -1,-1 -6,0 -1,-1 -1,0 0,9 1,1 11,0 1,1 2,0 1,-1 1,0 1,-1 0,-1 1,-1 2,0 1,1 0,6 -1,1 -2,0 0,6 -1,1 0,7 -1,1 0,7 -1,1 0,6 -1,1 0,6 -1,1 0,5 1,0 0,-5 1,-1 0,-4 1,-1 0,-6 1,-1 0,-8 1,-1 0,-7 1,-1 0,-1 1,-1 2,0 1,1 3,0 0,-1 1,-1 11,0 0,-3 1,-1 0,-1 1,-1 2,0 1,1 1,1 17,0 1,1 6,0 1,-1 0,0 -1,-1 -5,0 -1,-1 0,-2 -18,0 -1,-1 -1,0 -1,-1Z"/>
<path onmouseover="hoverPath(evt)" onmouseout="recoverPath(evt)" fill="rgb(241,239,228)" d="M  133,143l 0,1 -1,1 0,14 -1,1 0,16 -1,1 0,1 15,0 0,-18 1,-1 0,-17 -1,0 -1,-1 -11,0Z"/>
<path onmouseover="hoverPath(evt)" onmouseout="recoverPath(evt)" fill="rgb(236,233,218)" d="M  171,166l -7,0 -1,-1 -1,-1 0,-2 -1,0 -1,-1 0,-1 -1,-1 0,-1 -1,0 -1,-1 0,-1 -1,-1 0,-2 1,-1 5,0 1,1 0,3 1,1 2,0 1,-1 3,0 1,-1 6,0 1,-1 -1,-1 -6,0 -1,-1 0,-2 1,-1 6,0 1,-1 1,0 0,-3 -1,-1 -1,0 -1,-1 -16,0 -1,-1 -8,0 0,5 -1,1 0,15 -1,1 0,1 1,0 1,1 0,1 10,0 1,1 13,0 1,-1 0,-2 -3,0 -1,1Z"/>
<path onmouseover="hoverPath(evt)" onmouseout="recoverPath(evt)" fill="rgb(240,239,227)" d="M  211,228l 0,0 1,-1 1,0 1,-1 8,0 1,-1 3,0 0,-29 -1,-1 0,-3 -11,0 0,3 -1,1 0,18 -1,1 0,5 -1,1 0,23 1,1 0,1 10,0 1,1 3,0 0,-6 -2,0 -1,-1 0,-3 1,-1 0,-4 -1,-1 0,-1 -5,0 -1,1 -1,0 0,1 -1,1 0,3 1,1 0,6 -1,1 -2,0 -1,-1 -1,-1Z"/>
<path onmouseover="hoverPath(evt)" onmouseout="recoverPath(evt)" fill="rgb(239,236,224)" d="M  236,239l 0,3 19,0 0,-28 -19,0 0,4 3,0 1,1 8,0 1,1 1,1 0,14 -1,1 -2,0 -1,1 -10,0Z"/>
<path onmouseover="hoverPath(evt)" onmouseout="recoverPath(evt)" fill="rgb(240,238,228)" d="M  237,197l -1,1 0,2 1,1 0,8 1,1 14,0 1,-1 2,0 0,-12 -8,0 -1,-1 -7,0 -1,1Z"/>
<path onmouseover="hoverPath(evt)" onmouseout="recoverPath(evt)" fill="rgb(247,246,240)" d="M  252,178l 0,-2 1,-1 2,0 0,-13 -5,0 0,3 -1,1 0,1 -1,1 -13,0 13,1 0,0 1,1 1,1 0,4 -1,1 0,0 1,1 1,0 1,1 -10,-2 -5,0 0,1 4,0 1,-1 10,2Z"/>
</svg>