<svg width="256" height="256" xmlns="http://www.w3.org/2000/svg"><script> 
var tempColor;
function hoverPath(evt){
obj = evt.target;
tempColor = obj.getAttribute("fill");
obj.setAttribute("fill","red");
//alert(tempColor);
//obj.setAttribute("stroke","red");}
function recoverPath(evt){
obj = evt.target;
obj.setAttribute("fill", tempColor);
//obj.setAttribute("stroke", tempColor);
}</script><path onmouseover="hoverPath(evt)" onmouseout="recoverPath(evt)" fill="rgb(238,236,228)" d="M  0,96l 0,20 2,0 1,1 1,1 2,0 1,1 1,1 1,1 1,1 1,1 1,1 0,4 1,0 1,1 2,0 1,1 1,1 -1,-2 0,-6 -1,-1 0,0 -1,-1 0,-5 1,-1 6,0 0,-1 1,-1 0,-4 1,-1 0,-1 -1,-1 0,-2 -1,-1 -1,-1 0,-3 1,-1 7,0 1,-1 1,-1 1,-1 0,-5 1,-1 3,0 1,-1 1,0 1,-1 1,0 0,-1 2,-2 1,-1 1,0 1,-1 0,-1 1,-1 0,-1 1,-1 1,0 1,-1 2,0 1,-1 1,-1 5,0 0,-5 1,-1 -1,0 -1,1 -2,0 -1,1 -3,0 -1,-1 0,5 -1,1 -1,0 -1,1 -6,0 0,1 -1,1 -1,1 -2,0 -1,1 -1,0 0,4 -1,1 -3,0 -1,-1 0,-1 -1,-1 -1,1 -2,0 -1,1 -1,0 -1,1 -1,0 -1,1 -2,0 -1,1 -1,0 -1,1 -2,0 -1,1 -1,0 -1,1 -2,0 -1,1 -2,0 -1,1 -1,0 -1,1 -3,0Z"/>
<path onmouseover="hoverPath(evt)" onmouseout="recoverPath(evt)" fill="rgb(240,239,229)" d="M  22,53l 0,0 -1,1 0,5 1,1 1,1 0,1 2,2 1,0 1,1 1,1 0,4 1,1 1,1 1,0 1,-1 2,0 1,-1 1,0 1,-1 3,0 1,-1 3,0 1,1 0,3 -1,1 -4,0 1,1 0,1 5,0 1,-1 1,0 0,-5 1,-1 2,0 1,1 1,0 1,-1 2,0 1,-1 1,0 0,-2 1,-1 0,-2 1,-1 4,0 1,1 0,1 1,0 1,-1 0,0 1,-1 2,0 1,-1 1,0 0,-3 1,-1 4,0 1,-1 2,0 0,-1 1,-1 1,0 1,-1 1,-1 1,0 1,-1 1,-1 2,0 0,-1 1,-1 1,0 1,-1 -1,-1 0,-3 1,-1 1,0 0,-3 -1,-1 0,-1 -1,-1 0,-4 -1,-1 0,-2 1,-1 1,0 0,-1 -1,-1 0,-1 -1,0 -1,1 0,1 1,1 0,5 -1,1 -3,0 -1,-1 0,-3 -1,-1 0,-2 -3,0 -1,1 -3,0 -1,1 -3,0 -1,1 -2,0 -1,1 -1,0 0,1 1,1 0,1 1,1 0,2 -1,1 -2,0 -1,-1 0,-1 -1,-1 0,-1 -1,-1 0,-1 -2,0 -1,1 -2,0 1,1 0,1 1,1 1,1 1,1 1,0 1,1 0,1 1,1 3,0 1,1 1,1 1,1 1,1 0,2 -1,1 0,1 -1,1 -4,0 -1,-1 -1,-1 -1,1 -1,0 -1,1 -1,1 -1,0 -1,1 -1,0 -1,1 -1,1 -1,0 -1,1 -1,1 -1,0 -1,1 -1,0 -1,1 -1,1 -1,0 -1,1 -1,1 -2,0 -1,-1 0,-1 -1,0 -1,-1 -1,-1 -1,-1 -1,0 -1,-1 0,-3 1,-1 2,0 1,1 1,1 1,1 1,0 1,1 1,-1 0,0 1,-1 1,0 1,-1 1,0 1,-1 1,-1 1,0 1,-1 1,-1 1,0 1,-1 1,0 1,-1 1,-1 1,0 1,-1 -1,-1 0,0 -1,-1 -2,-2 -1,-1 -1,-1 -1,-1 -1,0 -1,-1 0,-1 -1,-1 -1,-1 -1,-1 0,-1 -1,-1 -1,-1 -1,-1 0,-1 -1,0 -1,-1 -2,-2 -1,-1 0,-1 -1,-1 -1,-1 -1,-1 -1,-1 -1,-1 -1,-1 -1,0 -1,-1 -1,0 -1,-1 -1,-1 0,-2 -1,-1 -1,-1 0,-1 -2,0 -1,1 -1,0 -1,1 -1,0 -1,1 -1,1 -1,0 1,1 0,5 -1,1 -3,3 -1,0 -1,1 -1,1 -1,0 -1,1 0,2 -1,1 0,1 1,1 0,0 1,1 1,1 1,1 1,0 1,1 0,1 1,1 1,1 1,1 1,1 1,1 1,1 0,2 -1,1 0,1 1,0 1,1 1,1 1,1 0,4 -2,2Z"/>
<path onmouseover="hoverPath(evt)" onmouseout="recoverPath(evt)" fill="rgb(247,238,144)" d="M  24,144l -1,1 -1,0 0,2 -1,1 2,0 1,1 0,1 2,0 1,1 1,-1 1,0 1,-1 3,0 1,-1 2,0 1,-1 3,0 1,-1 2,0 1,1 0,-1 1,-1 2,0 1,-1 2,0 1,-1 1,0 1,-1 2,0 1,-1 1,0 1,-1 3,0 1,1 0,-4 1,-1 3,0 1,1 0,3 1,1 0,11 2,0 1,-1 2,0 0,-3 -1,-1 0,-1 -1,-1 0,-2 1,-1 0,-3 -1,-1 0,-2 2,-2 0,-2 1,-1 0,-1 1,-1 1,0 0,-1 1,-1 2,0 1,-1 1,-1 1,-1 1,0 1,-1 2,-2 0,-1 1,-1 1,0 1,-1 1,0 1,-1 1,-1 2,-2 1,-1 0,-1 1,-1 1,0 1,-1 1,0 1,-1 2,0 1,1 0,-5 1,-1 3,0 1,1 0,3 1,1 0,2 9,0 0,-8 -1,-1 0,-6 1,-1 4,0 1,-1 1,0 1,-1 1,0 1,-1 1,0 1,-1 1,-1 1,0 1,-1 2,0 0,-1 2,-2 4,0 1,-1 1,0 1,-1 1,-1 2,0 1,1 0,-3 1,-1 3,0 1,1 0,-2 1,-1 1,0 1,-1 1,0 1,-1 1,0 1,-1 1,-1 1,0 1,-1 1,0 1,-1 1,0 2,-2 1,0 1,-1 1,0 1,-1 1,0 1,-1 1,0 2,-2 1,0 1,-1 1,0 1,-1 1,0 1,-1 1,0 1,-1 1,0 1,-1 1,-1 3,0 1,1 1,1 0,2 1,1 0,2 1,1 0,5 -1,1 2,0 1,1 0,4 1,1 0,2 1,1 0,2 1,1 0,4 1,1 0,2 1,1 0,2 1,1 0,2 1,1 0,2 1,1 1,1 0,5 1,1 0,3 1,0 1,1 0,2 -1,1 -2,0 -1,1 0,2 -1,1 0,4 -1,1 9,0 1,1 0,4 1,1 0,3 2,0 1,1 0,4 1,1 0,3 -1,1 0,5 1,1 0,1 1,1 0,3 -1,1 -1,0 0,4 -1,1 0,1 -1,1 0,2 1,1 0,3 -1,1 -1,0 0,4 -1,1 0,4 -1,1 0,4 -1,1 0,5 1,1 0,1 1,0 1,1 0,2 -1,1 -3,0 0,7 -1,1 0,8 -1,1 0,7 -1,1 0,4 1,0 1,1 0,1 1,1 0,2 1,0 1,1 1,0 0,-2 1,-1 2,0 0,-3 1,-1 2,0 -3,-1 0,-2 1,-1 1,0 0,-7 1,-1 0,-3 -1,-1 0,-3 1,-1 1,0 0,-4 -1,-1 0,-2 1,-1 0,-1 1,-1 2,0 0,-4 1,-1 12,0 1,-1 0,-3 -14,4 -1,-1 0,-5 1,-1 0,-3 1,-1 1,0 0,-1 -1,-1 0,-9 1,-1 0,-2 1,-1 3,0 1,1 0,3 1,0 1,1 1,0 1,1 1,1 0,1 1,1 0,2 1,1 1,1 1,0 1,1 1,1 0,2 1,1 0,6 1,1 0,1 1,1 4,0 0,-1 1,-1 0,-3 -1,0 -1,-1 0,-4 1,-1 -1,-1 0,0 -1,-1 0,-5 -1,2 -2,0 -1,-1 0,-1 -1,-1 0,-3 1,-1 1,-1 0,-1 1,-1 0,-2 -1,0 -1,-1 -2,0 -1,-1 -4,0 -1,-1 -1,0 -1,-1 0,-5 -1,-1 0,-1 -1,-1 0,-5 1,-1 -2,0 -1,-1 0,-2 -1,-1 0,-10 -1,-1 0,-3 -1,-1 0,-2 -1,-1 0,-3 -1,-1 0,-2 -1,-1 0,-1 -1,-1 0,-2 -1,-1 0,-1 -1,-1 0,-1 -1,-1 0,-1 -1,-1 0,-1 -1,-1 0,-1 -1,-1 0,-1 -1,-1 0,-1 -1,-1 0,-4 -2,0 -1,-1 0,-4 -1,-1 0,-2 -1,-1 0,-2 -1,-1 0,-5 1,-1 -3,0 -1,-1 0,-3 1,-1 2,0 -3,-1 0,-1 -1,-1 0,-3 -1,-1 0,-2 -1,-1 0,-2 -1,-1 0,-3 1,-1 1,-1 1,0 1,-1 1,0 1,-1 1,0 1,-1 1,0 1,-1 3,0 0,-2 1,-1 3,0 1,1 0,-1 1,-1 1,-1 2,0 1,-1 1,-1 1,0 1,-1 2,0 1,-1 1,0 1,-1 1,0 1,-1 1,0 1,-1 1,0 1,-1 1,0 1,-1 1,0 1,-1 2,0 1,-1 1,0 1,-1 1,0 1,-1 1,0 1,-1 1,0 1,-1 1,0 1,-1 2,0 0,-10 -1,0 -1,1 -1,0 -1,1 -1,0 -1,1 -1,0 -1,1 -1,0 -1,1 -1,0 -1,1 -1,0 0,2 -1,1 -1,0 -1,1 -1,0 -1,1 -1,0 -1,1 -2,0 -1,1 -1,0 -1,1 -2,0 -1,-1 -2,0 -1,-1 -1,0 -1,1 -1,0 0,3 -1,1 -2,0 -1,-1 0,3 -1,1 -1,1 -3,0 -1,-1 -2,0 0,1 -1,1 -1,1 -4,0 0,4 -1,1 -1,0 -1,1 -1,0 -1,1 -3,0 -1,-1 0,-1 -1,-1 0,-1 -1,-1 0,-1 -1,-1 -1,-1 0,-1 -2,0 -1,-1 0,-4 -1,0 -1,-1 -1,-1 0,-1 -1,-1 -1,0 -1,-1 0,-3 1,-1 -4,0 -1,-1 0,-1 -1,0 -1,-1 0,-2 -1,-1 -1,0 -1,-1 -1,0 -1,-1 -1,-1 -1,0 -1,-1 0,-2 -1,-1 -1,-1 -1,-1 -2,0 -1,-1 0,-1 -1,-1 -2,-2 -1,-1 0,-2 -4,0 0,4 -1,1 -2,0 0,1 1,0 1,1 1,1 1,1 0,2 1,1 2,2 1,0 1,1 1,0 1,1 0,1 1,1 1,1 1,1 1,1 0,3 1,-1 3,0 1,1 1,1 0,2 -1,1 2,0 1,1 1,1 0,1 1,1 1,0 1,1 0,2 1,1 1,1 2,0 1,1 0,2 1,1 0,2 2,0 1,1 0,2 -1,1 0,3 -1,1 -1,1 -1,1 -1,0 -1,1 -1,0 -1,1 -1,1 -1,0 -1,1 -1,0 -1,1 -1,0 -1,1 -1,1 -1,0 -1,1 -1,0 -1,1 -1,0 -1,1 -1,0 -2,2 -1,0 -1,1 -1,0 -1,1 -1,0 -1,1 -1,1 -3,0 -1,-1 0,3 -2,2 -2,0 -1,1 -1,0 -1,1 -1,0 -1,1 -1,0 -1,1 -1,0 -1,1 -1,0 -1,1 -1,0 -1,1 -1,0 -1,1 -1,0 -1,1 -1,0 -1,1 -1,0 0,2 -1,1 -3,0 -1,1 -4,0 -1,1 -1,0 -1,1 -1,0 -1,1 -1,0 -1,1 -1,1 -1,0 0,2 -1,1 -2,0 -1,1 -1,1 -2,0 -1,-1 0,1 -1,1 -1,1 -2,2 -1,1 0,1 -1,1 -2,0 -2,2 -1,1 0,1 -1,1 -2,0 -2,2 -1,1 -2,2 0,1 -1,1 -1,0 -1,1 -2,2 -1,0 -1,1 -1,1 0,1 -1,1 -2,0 -1,1 -1,1 -2,0 0,3 -1,1 -3,0 -1,-1 0,-2 -1,-1 1,4 -1,1 0,0 -1,1 -1,0 -1,1 -1,0 -1,1 -2,0 -1,1 -2,0 -1,1 -1,0 -1,1 -3,0 -1,1 -1,0 -1,1 -2,0 -1,1 -2,0 -1,1 -2,0 -1,1 -3,0 -1,1 -4,0Z"/>
<path onmouseover="hoverPath(evt)" onmouseout="recoverPath(evt)" fill="rgb(242,241,230)" d="M  69,168l 0,16 1,1 0,10 1,1 0,6 1,1 0,3 1,-1 1,0 1,-1 1,0 1,-1 1,0 1,-1 1,0 1,-1 1,-1 1,0 1,-1 1,0 1,-1 1,0 1,-1 1,0 1,-1 1,0 1,-1 1,0 1,-1 2,0 1,-1 1,0 1,-1 1,0 1,-1 2,0 1,-1 1,0 1,-1 1,0 1,-1 2,0 1,-1 1,0 1,-1 2,0 1,-1 0,-3 -1,-1 0,-4 -1,-1 0,-3 -1,-1 0,-4 -8,0 0,5 -1,1 -1,1 -4,0 -1,-1 -1,-1 0,-4 -4,0 -1,-1 -10,0 -1,-1 -5,0 -1,-1 -6,0Z"/>
<path onmouseover="hoverPath(evt)" onmouseout="recoverPath(evt)" fill="rgb(240,238,222)" d="M  248,167l 0,0 -1,1 0,1 -1,1 1,1 0,5 1,1 1,1 0,1 1,0 1,1 1,1 1,-1 2,0 0,-12 -2,0 -1,-1 -1,0 -1,-1 -1,-1 -1,1Z"/>
<path onmouseover="hoverPath(evt)" onmouseout="recoverPath(evt)" fill="rgb(243,242,234)" d="M  51,109l 0,2 1,0 1,1 1,1 0,2 1,0 1,1 1,1 0,2 1,0 1,1 1,1 0,2 1,0 1,1 1,1 0,2 1,0 0,-3 1,-1 2,0 1,-1 1,-1 2,0 0,-1 1,-1 1,-1 1,-1 1,0 1,-1 1,-1 1,-1 1,0 0,-1 1,-1 1,-1 3,-3 1,-1 2,0 0,-1 1,-1 1,-1 1,-1 1,-1 2,0 0,-1 1,-1 1,-1 1,-1 1,-1 1,-1 0,-3 1,-1 0,-1 -1,-1 0,-4 -1,-1 0,-3 -1,-1 0,-3 -1,-1 0,-2 -1,-1 0,-5 -1,-1 0,-5 -1,-1 0,-3 -1,3 -2,0 -1,1 -1,0 -1,1 -1,0 -1,1 -1,1 -1,0 -1,1 -4,0 -1,1 -4,0 0,1 -1,1 -3,0 -1,1 -1,1 -2,0 -1,1 -1,0 -1,1 -1,0 0,2 -1,1 0,1 -1,1 -1,0 0,1 -1,1 -1,0 -1,1 -2,0 0,1 -1,1 -1,1 0,1 -1,1 0,2 -1,1 -2,0 -1,1 -2,0 0,3 -1,1 -3,0 2,1 1,0 1,1 0,3 1,1 0,1 1,0 1,1 1,1 0,2 1,0 1,1 1,1 1,1Z"/>
<path onmouseover="hoverPath(evt)" onmouseout="recoverPath(evt)" fill="rgb(231,202,223)" d="M  92,49l -1,0 0,1 -1,1 -2,0 -1,1 -1,1 -1,0 -1,1 -1,1 -1,0 0,1 -1,1 -2,0 -1,1 -4,0 0,3 -1,1 -1,0 -1,1 -2,0 -1,1 -1,1 -3,0 -1,-1 0,-1 -2,0 0,2 -1,1 0,1 1,0 1,1 0,2 3,0 1,-1 1,-1 3,0 0,-1 1,-1 4,0 1,-1 4,0 1,-1 1,0 1,-1 1,-1 1,0 1,-1 1,0 1,-1 2,0 -3,-1 0,-4 1,-1 1,0 0,-2 3,-3 -30,22 -2,0 0,1 2,-1 30,-22 -1,2 7,0 -1,-1 0,-2 1,-1 1,0 1,-1 1,-1 1,0 1,-1 2,-2 1,0 1,-1 1,-1 1,-1 1,-1 1,-1 0,-1 -1,1 -1,0 -1,1 0,0 -1,1 -1,0 -1,1 -1,1 -1,0 -1,1 -1,1 -1,1 -1,0 -1,1 -3,0 -1,-1 0,3 -1,1 -2,3 1,-2 2,-6 0,0 -2,6Z"/>
<path onmouseover="hoverPath(evt)" onmouseout="recoverPath(evt)" fill="rgb(240,239,227)" d="M  154,66l 0,0 1,-1 1,0 1,-1 1,0 1,-1 1,0 1,-1 1,-1 1,0 1,-1 1,0 1,-1 1,0 1,-1 1,0 1,-1 1,-1 1,0 1,-1 1,0 1,-1 1,0 1,-1 1,-1 1,0 1,-1 1,0 1,-1 1,-1 0,-3 1,-1 -2,0 -1,1 0,0 -1,1 -1,0 -1,1 -2,0 -1,1 -1,0 -1,1 -1,0 -1,1 -2,0 -1,1 -1,1 -1,0 0,1 -1,1 -2,0 -1,1 0,1 -1,1 -2,0 -1,1 0,1 -1,1 -2,0 -1,1 -1,1 -1,0 -1,1 0,1 1,1 0,1 1,0 1,-1Z"/>
<path onmouseover="hoverPath(evt)" onmouseout="recoverPath(evt)" fill="rgb(242,241,232)" d="M  154,89l 0,3 1,1 0,3 1,1 0,3 1,1 0,3 1,1 0,1 8,0 1,-1 7,0 1,-1 8,0 1,-1 7,0 1,-1 7,0 1,-1 1,0 0,-1 -1,-1 0,-2 -1,-1 0,-2 -1,-1 0,-2 -1,-1 0,-4 -1,-1 0,-2 -1,-1 0,-2 -1,-1 0,-4 -9,0 -1,-1 0,-2 1,-1 7,0 0,-3 -1,-1 0,-2 -1,-1 0,-2 -1,-1 -1,0 -1,1 0,0 -1,1 -1,0 -1,1 -1,0 -1,1 -1,0 -1,1 -1,0 -1,1 -1,0 -1,1 -1,1 -1,0 -1,1 -1,0 -1,1 -1,0 -1,1 -1,0 -1,1 -1,1 -1,0 -1,1 -1,0 -1,1 -1,0 -1,1 -1,1 -1,0 -1,1 -1,0 -1,1 -1,0 0,2 3,0 1,1 0,2 -1,1 -3,0 -1,1 0,1 1,1Z"/>
<path onmouseover="hoverPath(evt)" onmouseout="recoverPath(evt)" fill="rgb(241,239,228)" d="M  161,112l -2,0 0,2 1,1 0,3 1,1 0,5 1,1 0,3 1,1 0,2 1,1 2,0 1,1 5,0 1,1 5,0 1,1 6,0 1,1 5,0 1,1 6,0 1,1 9,0 1,1 5,0 0,-3 -2,0 -1,-1 0,-3 -1,-1 0,-4 -14,0 -1,-1 0,-2 1,-1 5,0 0,-3 -1,-1 0,-1 -1,-1 -9,0 -1,-1 0,-2 1,-1 -1,0 -1,-1 0,-3 1,-1 -3,0 -1,1 -7,0 -1,1 -8,0 -1,1 -6,0 -1,1Z"/>
<path onmouseover="hoverPath(evt)" onmouseout="recoverPath(evt)" fill="rgb(235,238,228)" d="M  175,201l 0,2 1,1 0,9 1,1 0,3 1,1 0,1 3,0 1,1 5,0 1,1 3,0 1,1 3,0 1,1 3,0 1,1 3,0 1,1 0,-5 1,-1 0,-7 1,-1 0,-8 1,-1 0,-6 -2,0 -1,-1 0,-3 -5,0 -1,1 -8,0 -1,1 -1,0 0,2 -1,1 -3,0 0,1 -1,1 -2,0 -1,-1 -5,0Z"/>
<path onmouseover="hoverPath(evt)" onmouseout="recoverPath(evt)" fill="rgb(178,201,232)" d="M  240,241l 0,2 -1,1 0,6 -1,1 0,4 17,0 0,-16 -14,0 -1,1Z"/>
<path onmouseover="hoverPath(evt)" onmouseout="recoverPath(evt)" fill="rgb(243,242,233)" d="M  2,162l -2,0 0,19 3,0 1,-1 7,0 1,-1 5,0 1,-1 6,0 1,-1 0,-2 -1,-1 0,-2 -1,-1 0,-2 1,-1 0,-1 -2,0 -1,-1 0,-1 -1,-1 0,-2 -1,-1 0,-1 -1,-1 0,-2 -1,-1 -1,0 -1,1 -1,0 -1,1 -2,0 -1,1 -1,0 -1,1 -2,0 -1,1 -1,0 -1,1Z"/>
<path onmouseover="hoverPath(evt)" onmouseout="recoverPath(evt)" fill="rgb(226,232,220)" d="M  102,234l 1,-1 1,0 1,-1 1,0 1,-1 1,0 1,-1 1,0 1,-1 1,0 1,-1 1,0 1,-1 2,0 1,-1 1,0 1,-1 1,0 1,-1 0,-1 -1,-1 0,-11 1,-1 0,-1 -2,0 -1,-1 0,-6 -2,0 -1,1 -1,0 -1,1 -1,0 -1,1 -1,0 -1,1 -1,0 -1,1 -1,0 -1,1 -1,0 -1,1 -1,0 -1,1 -1,0 -1,1 -1,0 -1,1 -1,0 -1,1 -1,0 -1,1 0,1 1,1 0,1 1,1 0,3 -1,1 0,2 -1,1 -2,0 -1,-1 0,-3 -1,-1 0,-1 -1,-1 0,-1 -1,-1 0,-1 -1,-1 0,-1 -1,-1 0,-1 -1,-1 0,-2 -1,-1 0,-1 -1,0 -1,1 -1,0 -1,1 -1,0 -1,1 -1,1 -1,0 -1,1 -1,0 -1,1 0,7 1,1 0,1 1,1 0,1 1,1 1,1 1,0 1,1 1,1 0,4 -1,1 4,0 1,1 1,1 0,1 1,1 1,0 1,1 0,2 1,1 1,1 1,0 1,-1 1,0 0,-1 1,-1 2,0 1,-1 1,-1 1,0 1,-1 1,-1Z"/>
<path onmouseover="hoverPath(evt)" onmouseout="recoverPath(evt)" fill="rgb(242,241,230)" d="M  140,41l -2,0 0,1 1,1 0,1 1,1 1,1 1,1 1,1 1,0 1,1 0,1 1,1 1,1 0,1 1,1 1,1 1,1 0,1 2,0 1,-1 0,-1 1,-1 2,0 1,-1 0,-1 1,-1 2,0 1,-1 0,-1 1,-1 2,0 1,-1 1,0 1,-1 1,0 1,-1 1,0 1,-1 2,0 1,-1 1,0 1,-1 1,0 1,-1 1,0 1,-1 0,-1 -2,0 -1,-1 -1,-1 -1,-1 0,-2 -1,0 -1,-1 -1,-1 0,-1 -1,-1 -3,0 -1,-1 -1,1 -2,0 -1,1 -1,0 -1,1 -1,0 -1,1 -2,0 -1,1 -1,0 -1,1 -2,0 -1,1 -1,1 -1,0 -1,1 -2,0 -1,1 -1,0 -1,1 -2,0 -1,1Z"/>
<path onmouseover="hoverPath(evt)" onmouseout="recoverPath(evt)" fill="rgb(240,241,231)" d="M  172,171l 0,3 1,1 0,4 1,1 0,11 1,1 0,4 6,0 1,1 0,-1 1,-1 3,0 0,-2 1,-1 1,0 1,-1 8,0 1,-1 7,0 1,1 0,3 5,0 -2,-1 0,-1 -1,-1 0,-7 1,-1 0,-4 1,-1 0,-4 1,-1 0,-3 -3,0 -1,-1 -15,0 -1,-1 -19,0 -1,1 0,1 1,1Z"/>
<path onmouseover="hoverPath(evt)" onmouseout="recoverPath(evt)" fill="rgb(172,198,235)" d="M  178,225l -1,0 0,5 -1,1 0,5 -1,1 0,1 1,1 3,0 1,1 3,0 1,1 3,0 1,1 2,0 1,1 2,0 1,1 2,0 1,1 3,0 1,1 1,0 1,1 2,0 1,1 2,0 1,1 2,0 1,1 2,0 1,1 1,0 1,1 1,1 0,2 7,0 0,-8 1,-1 0,-4 1,-1 0,-4 -2,0 -1,-1 -3,0 -1,-1 -2,0 -1,-1 -2,0 -1,-1 -4,0 -1,-1 -1,0 -1,-1 -4,0 -1,-1 -2,0 -1,-1 -3,0 -1,-1 -3,0 -1,-1 -3,0 -1,-1 -5,0 -1,-1Z"/>
<path onmouseover="hoverPath(evt)" onmouseout="recoverPath(evt)" fill="rgb(243,242,228)" d="M  220,18l -4,0 -1,-1 0,3 -1,1 -1,0 0,2 -1,1 -2,0 -1,-1 -5,0 1,1 0,4 -1,1 -1,0 -1,1 -2,0 -1,1 -6,0 -1,-1 -1,1 -1,0 -1,1 0,3 2,0 1,1 0,1 1,1 1,1 0,1 1,1 0,1 1,1 0,1 1,0 1,-1 1,0 1,-1 1,0 0,-4 1,-1 4,0 1,-1 0,-1 1,-1 4,0 1,1 1,0 1,-1 0,-3 1,-1 2,0 1,1 0,-3 1,-1 1,0 1,-1 3,0 1,1 1,0 0,-1 -1,-1 0,-1 -1,-1 0,-2 -1,-1 0,-3 1,-1 -2,0 -1,1 -1,0 -1,1Z"/>
<path onmouseover="hoverPath(evt)" onmouseout="recoverPath(evt)" fill="rgb(242,241,230)" d="M  231,146l 0,3 1,1 0,1 1,1 0,2 3,0 1,1 3,0 1,1 2,0 1,1 3,0 1,-1 1,-1 0,-2 1,-1 1,0 1,-1 -1,-1 0,-2 1,-1 3,0 0,-1Z"/>
<path onmouseover="hoverPath(evt)" onmouseout="recoverPath(evt)" fill="rgb(245,244,237)" d="M  1,131l 0,-1 -1,0 0,19 2,0 1,-1 1,0 1,-1 2,0 1,-1 1,0 1,-1 1,0 1,-1 -1,-1 0,-1 -1,-1 -1,-1 -1,-1 0,-1 -1,-1 0,-1 -1,0 -1,-1 -1,-1 -1,-1 -1,-1 -1,-1Z"/>
<path onmouseover="hoverPath(evt)" onmouseout="recoverPath(evt)" fill="rgb(248,237,144)" d="M  14,155l 0,0 1,-1 3,0 1,1 0,-1 1,-1 1,0 -1,-1 0,0 -1,-1 0,-2 -1,0 -1,-1 0,-1 -1,-1 0,-3 1,-1 1,0 0,-6 1,-1 1,0 0,-1 1,-1 -4,0 -1,-1 -1,-1 -2,0 -1,-1 -1,0 -1,-1 0,-4 -1,-1 -1,-1 -1,-1 -1,-1 -1,-1 -2,0 -1,-1 -1,-1 -1,0 0,10 2,0 1,1 0,1 1,1 1,1 1,1 1,1 1,0 1,1 0,1 1,1 0,1 2,2 1,1 0,1 1,1 0,2 -1,1 -1,1 -1,0 -1,1 -1,0 -1,1 -2,0 -1,1 -1,0 -1,1 -3,0 0,9 2,0 1,-1 1,0 1,-1 2,0 1,-1 1,0 1,-1 2,0 1,-1Z"/>
<path onmouseover="hoverPath(evt)" onmouseout="recoverPath(evt)" fill="rgb(239,238,223)" d="M  15,83l 0,0 1,-1 2,0 1,-1 1,0 1,-1 2,0 1,-1 1,0 1,-1 0,-1 -1,-1 0,-1 -1,-1 -1,-1 0,-1 -3,0 -1,1 -1,0 -1,1 -1,0 -1,1 -2,0 -1,1 -1,0 -1,1 -1,0 -1,1 -1,0 -1,1 -2,0 -1,1 -3,0 0,8 3,0 1,-1 1,0 1,-1 2,0 1,-1 1,0 1,-1 2,0 1,-1Z"/>
<path onmouseover="hoverPath(evt)" onmouseout="recoverPath(evt)" fill="rgb(243,240,235)" d="M  27,115l 0,1 -1,1 0,3 -1,1 0,5 -1,1 0,1 -1,1 1,1 0,2 -1,1 0,1 -1,1 0,1 -1,1 -1,0 0,6 -1,1 -1,0 0,1 1,1 0,1 1,-1 0,-2 1,-1 1,0 0,-2 1,-1 4,0 1,-1 3,0 1,-1 2,0 1,-1 2,0 1,-1 2,0 1,-1 1,0 1,-1 3,0 1,-1 1,0 1,-1 2,0 1,-1 2,0 1,-1 1,0 1,-1 1,0 1,-1 0,-1 -1,-1 0,-4 -1,-1 -1,0 -1,-1 0,-2 -1,-1 -1,0 -1,-1 0,-2 -1,-1 -1,0 -1,-1 0,-2 -1,-1 -1,-1 -1,0 -1,-1 0,-2 -1,-1 -1,0 -1,-1 0,-1 -1,-1 -1,0 0,2 -1,1 -5,0 -1,1 0,1 -1,1 -1,0 0,2 -1,1 -1,0 -1,1 0,1 -1,1Z"/>
<path onmouseover="hoverPath(evt)" onmouseout="recoverPath(evt)" fill="rgb(172,198,235)" d="M  88,251l 0,0 -1,1 -1,0 -1,1 -1,1 -1,1 22,0 0,-2 1,-1 1,-1 1,0 1,-1 1,0 1,-1 1,-1 1,0 1,-1 1,0 1,-1 1,0 1,-1 1,-1 1,0 1,-1 1,0 1,-1 1,0 -1,-1 0,-7 -1,-1 0,-2 -1,0 -1,1 -1,0 -1,1 -1,0 -1,1 -2,0 -1,1 -1,1 -1,0 -1,1 -1,0 -1,1 -1,0 -1,1 -1,0 -1,1 -1,0 -1,1 -1,1 -1,0 -1,1 -1,1 -1,0 -1,1 -1,1 -1,0 -1,1 -1,1 -1,1 -1,1 -1,0 -1,1Z"/>
<path onmouseover="hoverPath(evt)" onmouseout="recoverPath(evt)" fill="rgb(228,234,223)" d="M  126,212l 0,6 1,1 0,3 1,1 1,-1 4,0 1,-1 4,0 1,-1 4,0 1,-1 4,0 1,-1 23,0 0,-2 -1,-1 0,-7 -1,-1 0,-6 -2,0 -1,-1 0,-1 -2,0 -1,-1 0,-1 -5,0 -1,1 -4,0 -1,1 -5,0 -1,1 -4,0 1,1 0,2 -1,1 -4,0 -1,1 -1,1 -1,0 0,1 -1,1 -2,0 -1,1 -2,0 -1,-1 0,-4 -1,0 0,4 -3,0 -1,1 0,1 1,1 1,1Z"/>
<path onmouseover="hoverPath(evt)" onmouseout="recoverPath(evt)" fill="rgb(239,238,224)" d="M  131,242l -1,0 0,3 1,1 0,1 4,0 1,-1 5,0 1,-1 6,0 1,-1 5,0 1,-1 7,0 1,-1 4,0 1,-1 0,-1 1,-1 -12,0 -1,-1 -4,0 -1,1 -5,0 -1,1 -5,0 -1,1 -5,0 -1,1Z"/>
<path onmouseover="hoverPath(evt)" onmouseout="recoverPath(evt)" fill="rgb(237,238,230)" d="M  0,204l 0,51 40,0 0,-7 1,-1 0,-2 -1,-1 0,-2 1,-1 2,0 -1,-1 0,-1 -2,0 -1,-1 0,-6 -1,-1 0,-6 -1,-1 0,-5 -1,-1 0,-5 -1,-1 0,-5 -1,-1 0,-6 1,-1 0,-1 -1,-1 -5,0 -1,-1 0,-2 1,-1 4,0 -2,-1 0,-3 1,-1 0,-1 1,-1 2,0 1,1 1,-1 -1,0 -1,-1 0,0 -1,-1 -1,0 -1,-1 -2,0 -1,-1 -1,0 -1,1 -4,0 -1,1 -8,0 -1,1 -6,0 -1,1 -6,0Z"/>
<path onmouseover="hoverPath(evt)" onmouseout="recoverPath(evt)" fill="rgb(242,240,230)" d="M  34,4l 0,4 1,1 1,0 1,1 1,1 0,1 1,1 1,1 1,1 1,1 1,1 1,0 1,1 0,1 1,1 1,1 1,1 1,1 0,1 1,0 1,1 1,0 1,1 0,1 6,0 1,-1 2,0 1,-1 3,0 1,-1 3,0 1,-1 3,0 1,-1 3,0 1,-1 2,0 1,-1 0,-2 -1,-1 0,-3 -1,-1 0,-2 -1,0 -1,-1 -16,0 -1,-1 -1,0 -1,-1 0,-2 1,-1 2,0 1,1 14,0 1,-1 0,0 -1,-1 0,-4 -43,0 0,2 -1,1 1,1Z"/>
<path onmouseover="hoverPath(evt)" onmouseout="recoverPath(evt)" fill="rgb(234,238,229)" d="M  53,244l 0,4 1,1 0,6 22,0 0,-2 1,-1 1,-1 1,0 1,-1 1,-1 1,-1 0,-1 1,-1 2,0 1,-1 -1,-1 0,-1 -1,-1 -2,-2 -1,-1 0,-1 -1,-1 -1,-1 0,-2 -1,0 -1,-1 -1,0 -1,-1 0,-1 -1,-1 -1,-1 -3,0 0,2 -1,1 -3,0 0,3 -1,1 -1,0 -1,1 -3,0 -1,1 -3,0 0,1 -1,1 -1,0 -1,1Z"/>
<path onmouseover="hoverPath(evt)" onmouseout="recoverPath(evt)" fill="rgb(236,235,218)" d="M  90,203l -1,0 0,2 1,1 0,1 1,1 0,1 1,0 1,-1 1,0 1,-1 1,0 1,-1 1,0 1,-1 1,0 1,-1 1,0 1,-1 1,0 1,-1 1,0 1,-1 1,0 1,-1 1,-1 1,0 1,-1 1,0 1,-1 1,0 1,-1 1,0 0,-5 -1,0 -1,1 -1,0 -1,1 -2,0 -1,1 -1,0 -1,1 -2,0 -1,1 -1,0 -1,1 -1,0 -1,1 -2,0 -1,1 -1,0 -1,1 -1,0 -1,1 -1,0 -1,1 -1,0 -1,1Z"/>
<path onmouseover="hoverPath(evt)" onmouseout="recoverPath(evt)" fill="rgb(195,216,169)" d="M  99,14l 2,-2 1,-1 1,-1 1,0 1,-1 0,-1 1,-1 1,0 1,-1 0,-1 1,-1 1,0 1,-1 1,-1 1,-1 0,-1 -30,0 0,3 1,1 0,1 1,1 0,1 1,1 0,4 1,1 0,4 1,1 3,0 1,-1 1,0 1,-1 1,0 1,-1 1,0 1,-1Z"/>
<path onmouseover="hoverPath(evt)" onmouseout="recoverPath(evt)" fill="rgb(235,227,225)" d="M  127,24l 0,0 1,-1 1,-1 1,-1 1,-1 1,-1 1,-1 1,-1 1,-1 1,-1 1,-1 1,-1 1,-1 1,-1 1,0 1,-1 1,-1 1,0 1,-1 1,-1 2,0 0,-3 1,-1 2,0 0,-3 -31,0 0,2 -1,1 -1,1 -1,1 -1,1 0,2 -1,1 -2,0 -1,1 -1,1 0,1 -1,1 -1,0 -1,1 -1,1 -1,0 -1,1 -1,1 -1,1 -1,1 -1,0 -1,1 -1,1 -1,0 -1,1 -1,0 -1,1 -2,0 0,1 1,1 0,3 -1,1 0,5 1,1 0,1 1,1 0,4 1,1 0,1 1,0 1,-1 1,0 3,-3 1,0 1,-1 1,-1 1,0 1,-1 1,-1 1,0 1,-1 2,0 1,1 0,3 -1,1 -1,1 -3,3 -1,1 -1,0 -1,1 -1,1 -1,1 -1,0 -1,1 -1,1 -1,0 1,1 1,0 1,-1 2,0 1,-1 2,0 1,-1 1,0 1,-1 1,0 1,-1 2,0 1,-1 1,0 1,-1 2,0 1,-1 2,0 1,-1 0,-2 -1,-1 0,-1 -1,-1 0,-2 -1,-1 0,-4 1,-1 3,0 1,-1 1,-1 1,0Z"/>
<path onmouseover="hoverPath(evt)" onmouseout="recoverPath(evt)" fill="rgb(241,240,229)" d="M  167,140l 0,2 -1,1 0,3 1,1 0,3 1,1 0,4 1,1 0,3 1,1 0,1 17,0 1,1 12,0 0,-1 1,-1 0,-2 1,-1 0,-5 1,-1 0,-7 -1,0 -1,-1 -5,0 -1,-1 -5,0 -1,-1 -6,0 -1,-1 -5,0 -1,-1 -5,0 -1,1Z"/>
<path onmouseover="hoverPath(evt)" onmouseout="recoverPath(evt)" fill="rgb(248,248,246)" d="M  181,20l -2,0 0,1 3,0 1,-1 4,0 1,1 2,0 1,-1 1,0 1,-1 3,0 1,-1 4,0 0,-1 2,-2 1,0 1,-1 2,0 1,-1 1,0 1,-1 3,0 0,-3 1,-1 1,0 1,-1 1,0 1,-1 1,0 1,-1 2,0 1,-1 1,0 1,-1 1,-1 1,0 1,-1 4,0 1,1 2,0 1,1 2,0 1,1 3,0 1,1 2,0 1,1 3,0 1,1 2,0 1,1 2,0 0,-8 -31,0 0,2 -1,1 -1,0 -1,1 -2,0 -1,1 -1,0 -1,1 -2,0 -1,1 -1,0 -1,1 -2,0 -1,1 -1,0 -1,1 -2,0 -1,1 -1,0 -1,1 -2,0 -1,1 -1,0 -1,1 -2,0 -1,1 -1,0 -1,1 -2,0 -1,1 -1,0 -1,1 -2,0 -1,1 -1,0 -1,1Z"/>
<path onmouseover="hoverPath(evt)" onmouseout="recoverPath(evt)" fill="rgb(239,237,224)" d="M  208,76l 0,3 1,1 0,2 1,1 0,2 1,1 0,1 1,0 0,-2 1,-1 1,-1 1,0 1,-1 1,-1 4,0 1,-1 1,-1 1,0 1,-1 0,-1 1,-1 2,0 1,-1 -1,-1 0,-1 -1,-1 -2,0 -1,1 0,0 -1,1 -1,0 -1,1 0,2 -1,1 -2,0 -1,-1 -1,-1 -1,-1 0,-4 -1,0 -1,1 -1,0 0,2 -1,1 -1,0 -1,1Z"/>
<path onmouseover="hoverPath(evt)" onmouseout="recoverPath(evt)" fill="rgb(251,251,248)" d="M  233,156l 0,1 1,0 1,1 4,0 1,1 2,0 1,1 1,0 1,1 0,4 -1,1 0,1 -2,2 0,1 1,1 0,1 1,-2 0,-1 1,-1 0,-1 1,-1 0,-1 1,-1 1,-1 2,0 1,1 1,1 1,0 1,1 1,0 0,-17 -2,0 1,1 0,2 -1,1 -1,1 -1,0 0,2 -1,1 -1,1 -1,1 -5,0 -1,-1 -2,0 -1,-1 -3,0 -1,-1Z"/>
<path onmouseover="hoverPath(evt)" onmouseout="recoverPath(evt)" fill="rgb(248,240,144)" d="M  243,196l 0,0 -1,1 0,5 -1,1 0,3 -1,1 -1,0 0,3 -1,1 0,1 -1,1 -1,0 0,2 -1,1 0,2 -1,1 0,2 -1,1 0,4 -1,1 -1,0 0,2 1,1 0,2 -1,1 0,2 -1,1 -1,1 0,5 -1,1 0,4 -1,1 0,7 9,0 0,-5 1,-1 0,-6 1,-1 0,-3 1,-1 0,-3 1,-1 0,-2 1,-1 1,0 0,-3 1,-1 0,-3 1,-1 0,-2 1,-1 0,-3 1,-1 0,-10 1,-1 0,-1 1,-1 1,0 0,-3 1,-1 0,-2 1,-1 0,-1 1,-1 -1,0 -1,-1 0,-1 -1,-1 0,-1 -1,2 -4,0 0,1 -1,1Z"/>
<path onmouseover="hoverPath(evt)" onmouseout="recoverPath(evt)" fill="rgb(253,253,252)" d="M  39,53l 0,0 -1,-1 0,1 2,1 0,0 1,1 1,1 1,0 1,1 0,1 1,-1 0,0 1,-1 1,0 2,-2 1,0 1,-1 1,0 1,-1 1,-1 1,0 1,-1 1,-1 1,0 1,-1 1,0 1,-1 1,-1 1,0 1,-1 2,0 1,1 1,1 2,0 0,-1 1,-1 -1,-1 -2,-2 -3,0 -1,-1 -1,-1 0,-1 -1,0 -1,-1 -1,-1 -1,-1 -1,-1 0,-1 -1,-1 0,-2 1,-1 2,0 1,-1 4,0 1,1 0,-1 1,-1 1,0 1,-1 2,0 1,-1 3,0 1,-1 3,0 1,-1 5,0 1,1 0,2 1,1 0,3 1,0 0,-3 -1,-1 0,-3 1,-1 1,-1 2,0 1,-1 2,0 1,-1 1,0 1,-1 1,0 1,-1 1,-1 1,0 3,-3 1,-1 1,0 1,-1 1,-1 1,0 0,-1 1,-1 1,-1 1,-1 2,0 0,-2 1,-1 1,-1 1,-1 1,-1 0,-1 -3,0 0,2 -1,1 -1,1 -1,1 -1,1 -1,0 0,1 -1,1 -1,1 -1,0 0,1 -1,1 -1,1 -1,0 -1,1 -1,1 -1,1 -1,1 -1,0 -1,1 -1,0 -1,1 -1,0 -1,1 -1,0 -1,1 -5,0 -1,-1 -1,-1 0,-4 -1,-1 0,-4 -1,-1 0,-1 -1,-1 0,-1 -1,-1 0,-4 -2,0 0,3 1,1 0,2 -1,1 -1,1 1,0 1,1 1,0 1,1 0,2 1,1 0,3 1,1 0,4 -1,1 -1,1 -2,0 -1,1 -3,0 -1,1 -3,0 -1,1 -3,0 -1,1 -3,0 -1,1 -2,0 -1,1 -8,0 -1,-1 0,-1 -1,0 -1,-1 -1,0 1,1 1,1 0,0 1,1 0,1 1,1 1,1 1,1 0,1 1,0 1,1 1,1 1,1 1,1 1,1 1,1 1,1 1,1 0,2 -1,1 -1,1 -1,0 -1,1 -1,1 -1,0 -1,1 -1,0 -1,1 -1,1 -1,0 -1,1 -1,1 -1,0 -1,1 -1,0 -1,1 -1,1 -1,0 3,-1 5,-3 3,-2 5,-3 3,-2 -24,8 3,2 0,0 -3,-2Z"/>
<path onmouseover="hoverPath(evt)" onmouseout="recoverPath(evt)" fill="rgb(242,241,231)" d="M  41,173l 0,0 1,1 0,2 -1,1 -2,0 -1,-1 0,1 -1,1 0,1 2,0 1,1 0,1 1,1 0,2 1,1 0,2 1,1 0,1 1,1 0,1 20,0 0,-1 1,-1 0,-1 -1,-1 0,-15 -1,-1 0,-7 -1,0 -1,-1 0,-6 1,-1 0,-1 1,-1 0,-5 -2,0 -1,-1 0,-6 -1,0 -1,1 -1,0 -1,1 -2,0 -1,1 -1,0 -1,1 -2,0 -1,1 -2,0 0,5 -1,1 -2,0 -1,-1 0,-4 -1,1 -3,0 -1,1 -2,0 -1,1 -3,0 -1,1 -1,0 0,1 1,1 0,2 1,1 0,2 1,1 0,1 1,1 0,2 1,1 0,1 2,0 1,1 1,0 1,1 0,2 1,1 0,1 1,1Z"/>
<path onmouseover="hoverPath(evt)" onmouseout="recoverPath(evt)" fill="rgb(243,241,233)" d="M  127,28l 0,0 -1,1 0,5 1,1 0,1 1,1 0,1 1,1 1,0 1,-1 0,0 1,-1 3,0 1,-1 1,0 1,-1 2,0 1,-1 1,0 1,-1 2,0 1,-1 1,0 1,-1 1,0 1,-1 1,0 1,-1 1,0 1,-1 2,0 1,-1 1,0 1,-1 2,0 1,-1 1,0 0,-3 -1,-1 0,0 -1,-1 -1,-1 -1,-1 0,-1 -1,0 -1,-1 -1,0 -1,-1 -1,-1 -2,-2 0,-2 -1,-1 -1,-1 -1,1 -2,0 -1,1 -1,1 -1,0 -1,1 -1,1 -1,0 -1,1 -1,1 -1,1 -1,1 -1,1 -1,1 -1,1 -1,1 -1,1 -1,1 -1,1 -1,1 0,2 -1,1Z"/>
<path onmouseover="hoverPath(evt)" onmouseout="recoverPath(evt)" fill="rgb(172,198,235)" d="M  130,228l 0,0 -1,1 0,9 1,1 0,1 2,0 1,-1 5,0 1,-1 5,0 1,-1 5,0 1,-1 6,0 1,1 11,0 0,-3 1,-1 0,-5 1,-1 0,-3 -22,0 -1,1 -4,0 -1,1 -4,0 -1,1 -4,0 -1,1Z"/>
<path onmouseover="hoverPath(evt)" onmouseout="recoverPath(evt)" fill="rgb(232,231,200)" d="M  190,29l 0,0 1,-1 2,0 1,1 4,0 1,-1 2,0 1,-1 1,0 0,-2 -1,-1 0,-2 1,-1 7,0 1,1 0,-2 1,-1 1,0 0,-4 1,-1 -3,0 -1,1 -1,0 -1,1 -2,0 -1,1 -1,0 -1,1 0,1 -1,1 -4,0 -1,1 -3,0 -1,1 -1,0 -1,1 -4,0 -1,-1 -2,0 0,2 -1,1 0,1 1,0 1,1 1,1 0,1 1,1 1,0 1,-1Z"/>
<path onmouseover="hoverPath(evt)" onmouseout="recoverPath(evt)" fill="rgb(243,242,234)" d="M  203,53l -1,0 -1,1 0,1 1,1 0,2 1,1 0,2 1,1 0,3 1,1 0,1 1,0 1,-1 2,0 1,1 0,-2 1,-1 1,0 1,-1 1,0 1,-1 1,0 1,-1 2,0 1,1 0,-2 -1,-1 0,0 -1,-1 0,-1 -1,-1 -2,0 -1,-1 0,-2 1,-1 -1,-1 -2,0 -1,-1 0,-1 -1,0 -1,1 -1,0 -1,1 -1,0 -1,1 -1,0 -1,1Z"/>
<path onmouseover="hoverPath(evt)" onmouseout="recoverPath(evt)" fill="rgb(238,236,222)" d="M  207,157l 0,3 -1,1 0,3 5,0 1,1 0,-3 1,-1 0,-1 1,-1 0,-4 1,-1 1,0 0,-1 -1,-1 0,-1 -1,-1 0,-6 -5,0 0,4 -1,1 0,5 -1,1Z"/>
<path onmouseover="hoverPath(evt)" onmouseout="recoverPath(evt)" fill="rgb(244,243,235)" d="M  219,45l 0,0 1,1 0,2 -1,1 1,1 2,0 1,1 0,2 -1,1 1,1 2,0 1,1 0,4 1,1 2,0 1,1 0,1 1,1 1,1 0,2 -1,1 1,1 1,1 0,1 1,1 2,0 0,-2 1,-1 1,0 1,-1 1,0 1,-1 2,0 1,1 1,-1 2,0 1,-1 1,0 1,-1 1,0 2,-2 2,0 0,-35 -1,0 -1,1 -1,0 -1,1 -1,0 -1,1 -1,0 -1,1 -1,0 -1,1 -1,0 -1,1 -2,0 -1,1 -1,0 -1,1 -1,0 -1,1 -1,0 -1,1 -1,0 -1,1 -1,0 -1,1 -1,0 -1,1 -2,0 -1,1 -1,0 -1,1 -1,1 -2,0 -1,1Z"/>
<path onmouseover="hoverPath(evt)" onmouseout="recoverPath(evt)" fill="rgb(242,241,231)" d="M  0,46l 0,29 1,0 0,-2 1,-1 2,0 1,1 1,-1 2,0 1,-1 1,0 0,-2 1,-1 2,0 1,1 1,-1 2,0 1,-1 1,0 1,-1 0,-3 1,-1 -1,-1 0,0 -1,-1 0,-7 1,-1 1,-1 1,0 1,-1 0,-2 -1,-1 0,0 -1,-1 -1,0 -1,-1 0,-3 1,-1 -1,-1 0,0 -1,-1 -1,-1 -1,-1 -1,-1 -1,-1 0,-1 -1,0 -1,-1 -1,-1 -1,-1 -1,-1 -1,-1 0,-2 -1,-1 0,-2 1,-1 1,0 1,-1 1,-1 1,0 1,-1 1,-1 1,0 1,-1 1,-1 1,-1 0,-1 -2,0 -1,-1 -2,0 -1,1 -2,0 0,2 -1,1 -2,0 -1,-1 -1,0 -1,1 -1,0 -1,1 -2,0Z"/>
<path onmouseover="hoverPath(evt)" onmouseout="recoverPath(evt)" fill="rgb(239,208,208)" d="M  43,246l 0,2 -1,1 0,6 10,0 0,-5 -1,-1 0,-6 -2,0 -1,-1 -1,0 -1,-1 0,-2 1,-1 1,0 0,-2 1,-1 0,-5 -1,-1 0,-5 -1,-1 0,-6 -1,-1 0,-5 -1,-1 0,-5 -1,-1 0,-4 -1,-1 0,-4 -1,-1 0,-3 -1,-1 0,-1 -1,-1 0,-2 -1,2 -1,0 -1,1 -2,0 -1,-1 0,1 -1,1 0,1 1,0 1,1 0,2 -1,1 1,0 1,1 0,0 1,1 0,3 -1,1 0,4 1,1 0,5 1,1 0,5 1,1 0,5 1,1 0,6 1,1 0,6 2,0 1,1 0,1 1,1 0,2 -1,1 -2,0 1,1Z"/>
<path onmouseover="hoverPath(evt)" onmouseout="recoverPath(evt)" fill="rgb(240,240,231)" d="M  45,198l 1,1 0,4 1,1 0,5 1,1 0,5 1,1 0,6 1,1 0,5 1,1 0,7 -1,1 0,2 -1,1 1,1 1,0 0,-1 1,-1 1,-1 1,0 0,-1 1,-1 3,0 1,-1 3,0 1,-1 1,0 0,-3 1,-1 3,0 0,-2 -1,-1 0,0 -1,-1 -1,-1 0,-2 -1,-1 0,-6 1,-1 1,-1 1,0 0,-7 -1,-1 0,-7 -1,-1 0,-2 -1,-1 -19,0Z"/>
<path onmouseover="hoverPath(evt)" onmouseout="recoverPath(evt)" fill="rgb(240,239,226)" d="M  73,157l -1,0 -1,1 -2,0 0,2 3,0 1,1 4,0 1,1 5,0 1,1 17,0 1,-1 3,0 1,1 1,0 1,-1 4,0 0,-2 -1,-1 0,-5 -1,-1 0,-5 -1,-1 0,-4 -1,-1 -1,0 -1,1 -1,0 -1,1 -1,0 -1,1 -2,0 -1,1 -1,0 -1,1 -2,0 -1,1 -1,0 -1,1 -1,0 -1,1 -1,0 -1,1 -2,0 -1,1 -1,0 -1,1 -2,0 -1,1 -1,0 -1,1 -1,0 -1,1 -2,0 -1,1Z"/>
<path onmouseover="hoverPath(evt)" onmouseout="recoverPath(evt)" fill="rgb(242,241,230)" d="M  87,142l 0,1 1,1 2,0 1,-1 1,0 1,-1 1,0 1,-1 1,0 1,-1 2,0 1,-1 1,0 1,-1 2,0 1,-1 1,0 1,-1 0,-6 -1,-1 0,-5 -1,-1 0,-5 -1,-1 0,-5 -2,0 -1,-1 -1,1 -1,0 -1,1 -1,0 0,1 -1,1 -1,1 -1,1 -1,1 -1,1 -1,1 -1,0 -1,1 -1,0 0,1 -1,1 -1,1 -1,1 -1,1 -1,0 -1,1 -1,1 -1,1 -2,0 0,1 -1,1 -1,0 0,1 -1,1 0,1 1,1 0,2 -1,1 -1,1 0,3 1,1 0,1 1,1 0,1 1,1 0,1 3,0 1,-1 1,0 1,-1 1,0 0,-1 -1,-1 0,-1 -1,-1 0,-1 -1,-1 0,-2 1,-1 2,0 1,1 0,1 1,1 0,1 1,1Z"/>
<path onmouseover="hoverPath(evt)" onmouseout="recoverPath(evt)" fill="rgb(250,250,247)" d="M  119,255l 11,0 0,-3 1,-1 1,-1 4,0 1,-1 5,0 1,-1 6,0 1,-1 6,0 1,-1 6,0 1,1 0,8 36,0 0,-1 -1,0 -1,-1 -1,0 -1,-1 -1,0 -1,-1 -2,0 -1,-1 -1,0 -1,-1 -2,0 -1,-1 -2,0 -1,-1 -3,0 -1,-1 -3,0 -1,-1 -2,0 -1,-1 0,-5 1,-1 0,-2 1,-1 0,-5 1,-1 0,-5 1,-1 6,0 1,1 5,0 1,1 3,0 1,1 3,0 1,1 3,0 1,1 2,0 1,1 3,0 -1,-1 0,-1 -3,0 -1,-1 -3,0 -1,-1 -3,0 -1,-1 -3,0 -1,-1 -3,0 -1,-1 -5,0 -1,-1 -3,0 -1,-1 0,-1 -1,-1 0,-3 -1,-1 0,-9 -1,-1 0,-4 -1,1 0,5 1,1 0,7 1,1 0,4 -1,1 -23,0 -1,1 -4,0 -1,1 -4,0 -1,1 -4,0 -1,1 -4,0 -1,1 -2,0 -1,-1 -1,-1 0,-3 -1,-1 0,-6 -1,-1 0,9 1,1 0,3 -1,1 -1,1 -1,0 -1,1 -1,0 -1,1 -2,0 -1,1 -1,0 -1,1 -1,0 -1,1 -1,0 -1,1 -1,0 -1,1 -1,0 -1,1 -1,0 -1,1 -1,0 -2,2 -1,0 -1,1 -1,1 -2,0 0,1 -1,1 -1,0 -1,1 -3,0 -1,-1 -1,-1 -1,-1 0,-2 -1,0 -1,-1 -1,-1 0,-1 -1,-1 -1,0 0,1 1,1 0,0 1,1 0,1 1,1 1,1 1,1 1,1 0,1 1,1 0,2 -1,1 -1,1 -2,0 0,1 -1,1 -3,3 -1,0 -1,1 0,1 3,0 0,-1 1,-1 1,-1 1,-1 1,-1 1,0 1,-1 1,-1 1,0 1,-1 1,-1 1,-1 1,-1 1,0 1,-1 1,-1 1,0 1,-1 1,-1 1,0 1,-1 1,-1 1,0 1,-1 1,0 1,-1 1,0 1,-1 1,0 1,-1 1,0 1,-1 1,-1 2,0 1,-1 1,0 1,-1 1,0 1,-1 3,0 1,1 0,2 1,1 0,7 1,1 0,2 -1,1 -1,0 -1,1 -1,0 -1,1 -1,0 -1,1 -1,1 -1,0 -1,1 -1,0 -1,1 -1,0 -1,1 -1,1 -1,0 -1,1 -1,0 -1,1 0,1 12,0 10,-29 3,0 1,-1 4,0 1,-1 4,0 1,-1 4,0 1,-1 24,0 1,1 0,5 -1,1 0,5 -1,1 0,5 -1,1 0,1 -1,1 -1,1 -4,0 -1,1 -7,0 -1,1 -5,0 -1,1 -6,0 -1,1 -5,0 -1,1 -6,0 -1,-1 0,-1 -1,-1 0,-6 -1,-1 0,-11 1,-1 1,-1 -10,29Z"/>
<path onmouseover="hoverPath(evt)" onmouseout="recoverPath(evt)" fill="rgb(240,238,226)" d="M  122,102l 0,5 1,1 0,2 6,0 1,-1 6,0 0,-1 1,-1 -1,-1 0,-6 -1,-1 0,-6 -1,-1 0,-1 -1,0 -1,1 -1,0 -1,1 -1,1 -1,0 -1,1 -1,0 -1,1 -1,0 -1,1 -2,0 0,1 1,1Z"/>
<path onmouseover="hoverPath(evt)" onmouseout="recoverPath(evt)" fill="rgb(237,237,221)" d="M  136,255l 26,0 0,-7 -4,0 -1,1 -6,0 -1,1 -6,0 -1,1 -5,0 -1,1 -4,0 -1,1 0,2Z"/>
<path onmouseover="hoverPath(evt)" onmouseout="recoverPath(evt)" fill="rgb(239,239,225)" d="M  191,245l -1,0 -1,-1 -2,0 -1,-1 -3,0 -1,-1 -3,0 -1,-1 -3,0 -1,-1 0,3 2,0 1,1 3,0 1,1 3,0 1,1 2,0 1,1 2,0 1,1 1,0 1,1 2,0 1,1 1,0 1,1 1,0 1,1 1,0 1,1 0,2 14,0 0,-1 -1,-1 -1,0 -1,-1 -2,0 -1,-1 -2,0 -1,-1 -2,0 -1,-1 -2,0 -1,-1 -1,0 -1,-1 -3,0 -1,-1 -2,0 -1,-1Z"/>
<path onmouseover="hoverPath(evt)" onmouseout="recoverPath(evt)" fill="rgb(246,245,238)" d="M  218,222l 1,0 1,1 0,2 -1,1 -2,0 0,3 -1,1 -2,0 0,1 1,0 1,1 2,0 1,1 2,0 1,1 3,0 1,1 2,0 1,-1 0,-2 1,-1 -1,-1 0,-4 1,-1 1,0 0,-3 -1,-1 0,0 -1,-1 -1,0 -1,-1 -1,0 -1,-1 -1,-1 -1,1 0,0 -1,1 -1,0 0,1 -1,1 -1,0 -1,1Z"/>
<path onmouseover="hoverPath(evt)" onmouseout="recoverPath(evt)" fill="rgb(235,235,204)" d="M  223,14l 3,0 1,1 0,2 -1,1 0,1 1,1 0,2 1,1 0,1 1,1 0,3 1,-1 1,0 1,-1 2,0 1,-1 1,0 1,-1 1,0 1,-1 1,0 0,-2 1,-1 1,0 1,-1 1,0 1,-1 1,0 1,-1 1,0 1,-1 1,0 1,-1 1,0 1,-1 2,0 0,-4 -3,0 -1,-1 -2,0 -1,-1 -3,0 -1,-1 -2,0 -1,-1 -3,0 -1,-1 -2,0 -1,-1 -2,0 -1,-1 -2,0 -1,1 -1,0 -1,1 -1,1 -1,0 -1,1 -2,0 -1,1 -1,0 -1,1 -1,0 -1,1 -1,0 0,2 1,1 0,1 1,1 0,1 2,0 1,-1 1,0 1,-1Z"/>
<path onmouseover="hoverPath(evt)" onmouseout="recoverPath(evt)" fill="rgb(242,241,232)" d="M  239,77l -1,0 -1,1 0,1 1,1 0,0 1,1 0,1 1,1 2,0 1,1 0,1 1,1 1,1 0,2 -1,1 1,1 0,0 1,1 1,1 1,1 1,1 1,1 1,1 1,0 1,1 0,1 1,1 1,0 0,-31 -1,0 -1,1 -1,0 -1,1 -1,0 0,2 -1,1 -2,0 -1,-1 -1,1 -1,0 -1,1 -1,0 -1,1 -1,0 -1,1Z"/>
<path onmouseover="hoverPath(evt)" onmouseout="recoverPath(evt)" fill="rgb(249,249,244)" d="M  245,134l -2,0 -1,-1 0,-5 1,-1 1,0 0,-1 1,-1 0,-1 1,-1 1,0 0,-1 1,-1 1,-1 1,-1 1,-1 1,-1 1,-1 2,0 0,-3 -1,0 -1,1 -1,1 -1,1 -1,1 -1,1 -1,1 -1,1 -1,0 0,1 -1,1 -1,1 -1,1 -1,1 -4,0 -1,-1 -1,0 -1,-1 0,1 1,1 0,5 -1,1 -1,1 -3,0 -1,-1 -1,-1 -1,0 0,9 1,1 0,2 26,0 0,-1 -7,0 -1,-1 -1,-1 -1,-1Z"/>
<path onmouseover="hoverPath(evt)" onmouseout="recoverPath(evt)" fill="rgb(241,240,230)" d="M  248,102l -1,0 -1,-1 -2,0 -1,-1 -1,-1 0,-3 -1,-1 -1,-1 0,-1 -1,-1 -2,0 -1,-1 0,-2 1,-1 0,-1 -2,0 -1,-1 -1,1 0,0 -1,1 -1,0 -1,1 -1,0 -1,1 -1,1 -2,0 -1,-1 0,-2 1,-1 0,-1 1,-1 0,-1 -1,1 -1,0 -1,1 -1,1 -1,0 -1,1 0,1 -1,1 -1,0 -1,1 -1,0 -1,1 -1,0 0,3 1,1 0,1 1,1 0,1 1,1 0,1 1,1 0,1 1,1 0,1 1,1 0,1 1,1 0,1 1,1 0,2 1,1 0,1 1,1 0,2 1,1 0,3 1,1 0,2 1,1 0,3 3,0 1,1 1,1 1,0 1,-1 0,-3 -1,-1 0,-3 -1,-1 0,-2 1,-1 2,0 1,1 0,1 1,1 0,1 1,0 1,1 2,0 1,-1 0,0 2,-2 0,-1 1,-1 1,0 1,-1 1,-1 2,-2 1,-1 1,-1 1,-1 2,0 0,-2 -2,0 -1,-1 -1,-1 0,-2 -1,-1 -1,0 -1,-1Z"/>
<path onmouseover="hoverPath(evt)" onmouseout="recoverPath(evt)" fill="rgb(238,240,226)" d="M  255,227l 0,-45 -1,0 -1,1 -2,0 -1,-1 -1,-1 -1,0 0,2 1,0 1,1 0,4 1,1 0,1 1,1 0,1 1,0 1,1 0,2 -1,1 0,1 -1,1 0,2 -1,1 0,3 -1,1 -1,0 0,1 -1,1 0,10 -1,1 0,3 -1,1 0,2 -1,1 0,3 -1,1 0,3 -1,1 -1,0 0,2 -1,1 0,1 14,0Z"/>
<path onmouseover="hoverPath(evt)" onmouseout="recoverPath(evt)" fill="rgb(239,230,238)" d="M  4,15l 3,0 1,1 0,-2 1,-1 2,0 1,-1 4,0 1,1 1,0 -1,-1 0,-2 1,-1 1,0 1,-1 1,-1 1,0 1,-1 1,0 1,-1 4,0 1,1 0,1 1,1 1,1 0,2 1,1 1,0 1,1 1,0 1,1 1,1 1,1 1,1 1,1 1,1 1,1 0,1 1,1 1,1 1,1 1,0 -1,-1 -1,-1 -1,-1 -1,-2 -7,-7 0,0 -1,-1 -1,0 -1,-1 0,1 2,1 -3,-4 0,-3 -1,-1 0,-2 1,-1 0,-1 -32,0 0,17 1,0 1,-1 1,0 1,-1Z"/>
<path onmouseover="hoverPath(evt)" onmouseout="recoverPath(evt)" fill="rgb(243,219,218)" d="M  22,161l 0,2 1,1 0,1 2,0 1,1 0,3 -1,1 1,1 0,2 1,1 0,4 -1,1 -1,1 -6,0 -1,1 -5,0 -1,1 -7,0 -1,1 -4,0 0,1 5,0 1,-1 6,0 1,-1 8,0 1,-1 4,0 1,-1 3,0 1,1 2,0 1,1 1,0 1,1 1,1 2,0 0,-1 -1,-1 0,-1 -2,0 -1,-1 0,-3 1,-1 0,-1 1,-1 2,0 -1,-1 0,-1 -1,-1 0,-2 -1,0 -1,-1 -2,0 -1,-1 0,-1 -1,-1 0,-2 -1,-1 0,-1 -1,-1 0,-2 -1,-1 0,-2 -1,-1 0,-1 -1,0 -1,-1 -2,0 -1,-1 0,-1 -1,0 2,3 0,1 -1,1 -1,0 0,1 -1,1 0,1 1,1 0,1 1,1Z"/>
<path onmouseover="hoverPath(evt)" onmouseout="recoverPath(evt)" fill="rgb(253,253,251)" d="M  39,71l -1,0 -1,1 -1,0 -1,1 -2,0 -1,1 -3,0 -1,-1 -1,-1 -1,-1 0,-4 -1,-1 -1,0 -1,-1 -1,-1 0,3 -1,1 -1,1 -1,0 -1,1 -2,0 -1,1 -2,0 -1,-1 0,2 -1,1 -1,0 -1,1 -2,0 -1,1 -2,0 -1,-1 0,2 -1,1 -2,0 0,1 2,0 1,-1 2,0 1,-1 1,0 1,-1 1,0 1,-1 1,0 1,-1 2,0 1,-1 1,0 1,-1 1,0 1,-1 5,0 1,1 0,1 1,1 1,1 0,1 1,1 0,3 -1,1 -1,1 -1,0 -1,1 -2,0 -1,1 -1,0 -1,1 -2,0 -1,1 -1,0 -1,1 -2,0 -1,1 -1,0 -1,1 -2,0 -1,1 -1,0 -1,1 -4,0 0,2 2,0 1,-1 1,0 1,-1 2,0 1,-1 2,0 1,-1 1,0 1,-1 2,0 1,-1 1,0 1,-1 2,0 1,-1 1,0 1,-1 1,0 1,-1 2,0 1,-1 2,0 1,1 1,1 0,1 1,0 0,-4 1,-1 1,0 1,-1 2,0 1,-1 0,-2 -1,-1 0,-2 1,-1 4,0 0,-1 -1,0 -1,1Z"/>
<path onmouseover="hoverPath(evt)" onmouseout="recoverPath(evt)" fill="rgb(227,197,221)" d="M  43,86l -1,1 0,1 -1,1 3,0 1,-1 2,0 0,-2 1,-1 0,-1 1,-1 1,-1 0,-1 1,-1 2,0 1,-1 1,0 0,-1 1,-1 -2,0 -1,1 0,0 -1,1 -2,0 -1,1 -1,0 0,1 -1,1 0,1 -1,1 -1,1 -1,0 -1,1 -2,4 -1,-1 0,0 -1,1 -1,0 -1,1 -3,0 0,5 -1,1 -1,1 -1,1 -1,1 -7,0 0,1 1,1 0,0 1,1 0,2 1,1 0,3 -1,1 0,4 -1,1 0,1 -1,1 -6,0 0,3 1,1 0,0 1,1 0,7 1,1 0,1 2,0 -1,-1 0,-2 1,-1 0,-1 1,-1 0,-5 1,-1 0,-2 17,-27 2,-4 -18,29 0,0 1,-4 0,-1 1,-1 1,-1 1,0 0,-2 1,-1 1,0 0,-1 1,-1 1,-1 5,0 0,-2 1,-1 2,0 0,-1 -1,0 -1,-1 -1,0 -1,-1 0,-2 1,-1 3,0 0,-2 -16,24 18,-29Z"/>
<path onmouseover="hoverPath(evt)" onmouseout="recoverPath(evt)" fill="rgb(252,253,252)" d="M  67,223l 0,1 1,1 2,2 4,0 1,1 1,1 1,1 0,1 1,-1 0,-2 -1,-1 -1,0 -1,-1 -1,-1 -1,-1 0,-1 -1,-1 0,-1 -1,-1 0,-9 1,-1 1,-1 1,0 1,-1 1,0 1,-1 1,-1 1,0 1,-1 1,0 1,-1 3,0 1,1 0,1 1,1 0,2 1,1 0,1 1,1 0,1 1,1 0,1 1,1 0,1 1,1 0,1 1,1 0,3 1,-3 0,-1 -1,-1 0,-1 -1,-1 0,-3 1,-1 1,-1 -4,0 -1,-1 0,-1 -1,-1 0,-1 -1,-1 0,-4 1,-1 1,0 1,-1 1,0 1,-1 1,0 1,-1 1,0 1,-1 1,0 1,-1 2,0 1,-1 1,0 1,-1 1,0 1,-1 2,0 1,-1 1,0 1,-1 2,0 1,-1 1,0 1,-1 3,0 1,1 0,7 -1,1 -1,0 -1,1 -1,0 -1,1 -1,0 -1,1 -1,0 -1,1 -1,1 -1,0 -1,1 -1,0 -1,1 -1,0 -1,1 -1,0 -1,1 -1,0 -1,1 -1,0 -1,1 -1,0 -1,1 -1,0 1,1 1,-1 1,0 1,-1 1,0 1,-1 1,0 1,-1 1,0 1,-1 1,0 1,-1 1,0 1,-1 1,0 1,-1 1,0 1,-1 1,0 1,-1 1,0 1,-1 4,0 1,1 0,6 2,0 1,-1 3,0 -1,-1 -3,0 -1,-1 0,-6 -1,-1 0,-4 -1,-1 0,-6 -1,-1 0,-4 -1,-1 0,-8 1,-1 5,0 1,-1 7,0 1,-1 8,0 1,-1 8,0 1,-1 6,0 1,-1 8,0 1,1 0,1 1,1 0,2 1,1 0,4 1,1 0,3 1,1 0,17 2,0 0,-5 -1,-1 0,-11 -1,-1 0,-4 -1,-1 0,-3 -1,-1 0,-3 1,-1 1,-1 21,0 1,1 15,0 1,1 4,0 0,-1 -2,0 -1,-1 -5,0 -1,-1 0,-5 1,-1 0,-5 1,-1 0,-5 1,-1 0,-4 1,-1 7,0 0,-1 -7,0 -1,-1 -9,0 -1,-1 -6,0 -1,-1 -5,0 -1,-1 -6,0 -1,-1 -5,0 -1,-1 -5,0 -1,-1 -2,0 -1,-1 -1,-1 0,-2 -1,-1 0,-3 -1,-1 0,-5 -1,-1 0,-3 -1,-1 0,-4 1,-1 2,0 1,-1 6,0 1,-1 8,0 1,-1 7,0 1,-1 12,0 1,1 0,2 -1,1 -7,0 0,1 6,0 1,1 0,2 -1,1 4,0 1,1 1,1 0,-1 1,-1 1,-1 2,0 -2,-1 0,-3 -1,-1 0,-5 -1,-1 -1,0 -1,1 -7,0 -1,1 -7,0 -1,1 -8,0 -1,1 -7,0 -1,1 -10,0 -1,-1 0,-1 -1,-1 0,-3 -1,-1 0,-3 -1,-1 0,-3 -1,-1 0,-3 -1,-1 0,-3 2,-2 -2,0 -1,-1 0,-1 -1,0 0,3 1,1 0,3 1,1 0,6 -1,1 0,1 2,0 1,1 0,2 1,1 0,6 -1,1 -4,0 -1,1 -6,0 -1,-1 -1,-1 0,-2 -1,-1 0,-8 -1,-1 0,-5 -1,-1 0,-2 -1,1 0,2 1,1 0,6 1,1 0,6 1,1 0,2 -1,1 0,1 -1,1 -6,0 -1,1 -8,0 -1,-1 0,-2 -1,-1 0,-8 -1,-1 0,2 1,8 0,3 -1,1 -11,0 -1,-1 0,-2 -1,-1 0,-3 -1,0 0,4 1,1 0,5 1,1 0,5 1,1 0,5 1,1 0,8 -1,1 -1,1 -1,0 -1,1 -2,0 -1,1 -1,0 -1,1 -2,0 -1,1 -1,0 -1,1 -1,0 -1,1 -1,0 -1,1 -4,0 -1,-1 0,2 -1,1 -1,0 -1,1 -1,0 -1,1 -5,0 -1,-1 0,3 -1,1 -2,0 -1,1 -4,0 -1,-1 0,-11 -1,-1 0,-3 -1,0 0,9 1,1 0,7 -1,1 0,1 -1,1 0,4 1,0 1,1 0,7 1,1 0,15 1,1 0,3 -1,1 0,1 -1,1 -21,0 22,1 0,0 1,1 0,2 1,1 0,7 1,1 0,9 -1,1 -1,0 -1,1 0,4 1,1 0,1 3,-16 0,-3 -1,-1 0,-6 -1,-1 0,-10 -1,-1 0,-20 1,-1 8,0 1,1 5,0 1,1 10,0 1,1 4,0 1,1 0,4 1,1 2,0 1,-1 0,-5 1,-1 10,0 1,1 0,4 1,1 0,3 1,1 0,4 1,1 0,5 -1,1 -1,1 -2,0 -1,1 -1,0 -1,1 -2,0 -1,1 -1,0 -1,1 -1,0 -1,1 -2,0 -1,1 -1,0 -1,1 -1,0 -1,1 -2,0 -1,1 -1,0 -1,1 -1,0 -1,1 -1,0 -1,1 -1,0 -1,1 -1,0 -1,1 -1,0 -1,1 -1,1 -1,0 -1,1 -1,0 -1,1 -1,0 -1,1 -1,0 -1,1 -2,0 -1,-1 -3,16 49,-55 0,-5 -1,-1 0,-3 -1,-1 0,-5 -1,-1 0,-5 -1,-1 0,-6 1,-1 5,0 1,-1 13,0 1,-1 11,0 1,-1 9,0 1,-1 4,0 1,1 1,1 0,1 1,1 0,5 1,1 0,3 1,1 0,3 1,1 0,3 1,1 0,6 -1,1 -1,0 -1,1 -5,0 -1,1 -6,0 -1,1 -9,0 -1,1 -8,0 -1,1 -8,0 -1,1 -4,0 -2,-2 -49,55 100,-63 0,-3 -1,-1 0,-4 -1,-1 0,-3 -1,-1 0,-5 1,-1 0,-2 1,-1 3,0 1,-1 7,0 1,1 5,0 1,1 6,0 1,1 5,0 1,1 5,0 1,1 1,0 1,1 0,9 -1,1 0,5 -1,1 0,2 -1,1 0,1 -1,1 -14,0 -1,-1 -17,0 -1,-1 0,-1 -1,-1 -100,63 91,-89 -4,0 -1,1 -7,0 -1,-1 -1,-1 0,-2 -1,-1 0,-7 -1,-1 0,-2 -1,-1 0,-4 1,-1 0,-1 1,-1 3,0 1,-1 3,0 1,-1 2,0 1,1 1,0 1,1 0,4 1,1 0,4 1,1 0,3 1,1 0,7 -1,1 -91,89 73,-103 0,1 1,1 0,3 1,1 0,7 -1,1 -1,0 -1,1 -14,0 -1,1 -12,0 -1,-1 0,-1 -1,-1 0,-5 -1,-1 0,-5 1,-1 0,-1 -1,-1 0,-3 1,-1 1,0 1,-1 9,0 1,-1 10,0 1,-1 5,0 1,1 0,4 -1,1 -1,0 -2,2 -1,1 -2,2 -1,1 1,0 5,-5 2,0 1,1 -73,103 44,-102 2,0 1,1 1,0 1,1 -5,-2 -44,102 44,-81 0,4 1,1 0,5 1,1 0,5 1,1 0,4 -1,1 -4,0 -1,1 -3,0 -1,-1 -1,0 -1,1 -19,0 -1,-1 -5,0 -1,-1 -4,0 -1,-1 -3,0 -1,-1 0,-4 1,-1 2,0 1,-1 1,0 1,-1 2,0 1,-1 1,0 1,-1 1,0 1,-1 2,0 1,-1 1,0 1,-1 2,0 1,-1 1,0 1,-1 1,0 1,-1 1,0 1,-1 2,0 1,-1 1,0 1,-1 2,0 1,-1 1,0 1,-1 1,0 1,-1 3,0 1,1 1,1 -44,81 104,-24 -104,24Z"/>
<path onmouseover="hoverPath(evt)" onmouseout="recoverPath(evt)" fill="rgb(252,252,251)" d="M  95,56l 0,0 1,-1 1,0 1,-1 7,0 1,1 0,1 1,0 1,1 0,1 1,1 0,10 1,-1 0,-2 1,-1 2,0 -1,-1 0,-1 -1,-1 0,-1 -1,-1 0,-1 -1,-1 0,-1 -1,-1 0,-4 1,-1 1,-1 2,0 1,1 1,-1 2,0 0,-2 1,-1 1,0 1,-1 2,0 1,1 1,1 0,2 1,1 0,7 1,-3 0,-1 -1,-4 -1,-3 0,-2 1,-1 4,0 1,1 1,-1 2,0 1,1 1,1 1,1 1,1 1,1 2,0 1,1 0,1 1,0 1,1 1,1 1,1 1,1 1,1 0,1 1,1 0,13 1,-1 0,-4 1,-1 0,-2 1,-1 1,-1 1,0 1,-1 1,-1 2,0 0,-1 1,-1 1,-1 2,0 0,-1 1,-1 1,-1 2,0 0,-1 1,-1 1,0 1,-1 1,-1 2,0 1,-1 1,0 1,-1 1,0 1,-1 2,0 1,-1 1,0 1,-1 1,-1 0,-1 -1,1 -1,0 -1,1 -1,0 -1,1 -1,0 -1,1 -2,0 -1,1 -1,0 -1,1 -1,0 -1,1 -1,0 -1,1 -2,0 0,1 -1,1 -1,1 -2,0 0,1 -1,1 -1,1 -2,0 0,1 -1,1 -1,1 -4,0 -1,-1 0,-1 -1,-1 -1,-1 -1,-1 0,-1 -1,-1 -1,-1 0,-1 -1,0 -1,-1 -1,-1 -1,-1 -1,-1 -1,-1 0,-1 -1,-1 0,-3 1,-1 2,0 1,-1 2,0 1,-1 1,0 1,-1 2,0 1,-1 1,0 1,-1 1,-1 2,0 1,-1 1,0 1,-1 2,0 1,-1 1,0 1,-1 1,0 1,-1 2,0 1,-1 1,0 1,-1 1,0 -1,-1 -1,0 -1,1 -1,0 -1,1 -1,0 -1,1 -2,0 -1,1 -1,0 -1,1 -2,0 -1,1 -1,0 -1,1 -1,0 -1,1 -1,0 -1,1 -1,0 -1,1 -2,0 -1,1 -1,0 -1,1 -2,0 -1,1 -1,0 -1,1 -3,0 -1,1 -1,1 -3,0 -1,-1 -1,-1 0,-1 -1,-1 0,-1 -1,-1 0,-5 -2,0 0,2 1,1 0,2 1,1 0,1 1,1 0,4 -1,1 -1,1 -2,0 -1,1 -2,0 -1,1 -1,0 -1,1 -2,0 -1,1 -1,0 -1,1 -1,0 -1,1 -2,0 -1,1 -2,0 -1,1 -2,0 -1,1 -8,0 0,2 -1,1 -1,0 0,2 1,0 1,-1 2,0 1,1 0,3 1,1 0,5 1,1 0,5 1,1 0,2 1,1 0,3 1,1 0,3 1,1 0,4 1,1 0,2 1,1 0,2 1,-1 0,-1 -1,-1 0,-4 -1,-1 0,-2 -1,-1 0,-3 -1,-1 0,-7 1,-1 1,-1 -3,0 -1,-1 0,-3 -1,-1 0,-4 -1,-1 0,-5 19,10 0,1 4,0 -4,-1 -19,-10Z"/>
<path onmouseover="hoverPath(evt)" onmouseout="recoverPath(evt)" fill="rgb(241,240,229)" d="M  111,70l 0,0 -1,1 -2,0 -1,-1 0,-10 -1,-1 0,-1 -1,0 -1,-1 0,-1 -5,0 -1,1 -1,0 0,3 1,1 0,4 1,1 0,3 5,0 1,1 0,2 -1,1 -2,0 -1,1 0,5 1,1 0,3 1,1 0,2 1,1 0,4 1,1 0,1 1,0 0,-2 1,-1 1,0 1,-1 1,-1 1,0 1,-1 1,0 1,-1 1,0 1,-1 4,0 1,-1 3,0 0,-2 1,-1 1,0 1,-1 1,0 1,-1 1,0 1,-1 1,0 1,-1 1,0 1,-1 1,0 1,-1 1,0 1,-1 1,0 1,-1 1,0 1,-1 1,0 1,-1 0,-12 -1,-1 0,-1 -1,-1 -1,-1 -1,-1 -1,-1 -1,0 -1,-1 0,-1 -2,0 -1,-1 -1,-1 -1,-1 -1,-1 -1,-1 -1,1 -2,0 -1,-1 -2,0 0,2 1,1 0,3 1,1 0,3 -1,1 0,2 -1,1 -2,0 -1,-1 0,-7 -1,-1 0,-2 -1,-1 -1,1 -1,0 0,2 -1,1 -2,0 -1,1 -2,0 -1,-1 -1,1 0,2 1,1 0,1 1,1 0,1 1,1 0,1 1,1 0,1 1,1 1,1 3,0 1,1 0,2 -1,1 -6,0 -1,-1 0,1 -1,1Z"/>
<path onmouseover="hoverPath(evt)" onmouseout="recoverPath(evt)" fill="rgb(242,241,230)" d="M  114,143l 0,2 1,1 0,5 1,1 0,5 1,1 0,3 1,1 0,5 1,1 2,0 1,-1 8,0 1,-1 8,0 1,-1 9,0 1,-1 6,0 1,-1 5,0 1,-1 1,0 0,-4 -1,-1 0,-3 -1,-1 0,-3 -1,-1 0,-3 -1,-1 0,-5 -1,-1 0,-1 -1,-1 -2,0 -1,1 -9,0 -1,1 -11,0 -1,1 -13,0 -1,1 -5,0Z"/>
<path onmouseover="hoverPath(evt)" onmouseout="recoverPath(evt)" fill="rgb(241,241,231)" d="M  120,175l 0,4 1,1 0,4 1,1 0,6 1,1 0,4 1,1 0,6 2,0 1,-1 3,0 1,1 0,4 1,-1 2,0 0,-1 1,-1 1,0 1,-1 1,-1 4,0 -1,-1 0,-2 1,-1 4,0 1,-1 5,0 1,-1 4,0 1,-1 7,0 1,1 0,1 3,0 0,-15 -1,-1 0,-3 -1,-1 0,-4 -1,-1 0,-2 -1,-1 0,-1 -6,0 -1,1 -6,0 -1,1 -8,0 -1,1 -8,0 -1,1 -7,0 -1,1 -5,0Z"/>
<path onmouseover="hoverPath(evt)" onmouseout="recoverPath(evt)" fill="rgb(236,234,218)" d="M  128,126l 0,0 -1,-1 0,-2 1,-1 2,0 1,-1 1,-1 3,-3 1,-1 1,0 0,-2 -3,0 -1,1 -10,0 -1,1 -9,0 -1,1 -1,0 0,1 1,1 2,0 1,1 1,0 1,1 1,1 1,0 1,1 0,2 -1,1 -2,0 -1,-1 -1,0 -1,-1 -1,0 -1,-1 -1,0 0,3 1,1 0,5 1,1 0,1 10,0 1,-1 14,0 1,-1 1,0 0,-5 -1,-1 0,-3 -1,-1 0,-1 -1,0 -1,1 0,0 -1,1 -1,1 0,1 -1,1Z"/>
<path onmouseover="hoverPath(evt)" onmouseout="recoverPath(evt)" fill="rgb(238,238,223)" d="M  143,87l -1,0 -1,1 -2,0 0,1 1,1 0,5 1,1 0,8 1,1 0,2 1,1 4,0 1,-1 4,0 0,-4 -1,-1 0,-2 -2,0 -1,-1 0,-3 1,-1 0,-4 -1,-1 0,-3 -2,0 -1,-1 0,-1 -1,1 -1,1Z"/>
<path onmouseover="hoverPath(evt)" onmouseout="recoverPath(evt)" fill="rgb(218,227,191)" d="M  145,127l 0,2 1,1 0,2 1,1 5,0 1,-1 4,0 0,-5 -1,-1 0,-3 -1,-1 0,-4 -1,-1 0,-4 -1,0 -1,-1 -1,1 -3,0 -1,1 -3,0 0,1 -1,1 0,2 1,1 0,2 1,1Z"/>
<path onmouseover="hoverPath(evt)" onmouseout="recoverPath(evt)" fill="rgb(242,241,230)" d="M  176,16l 0,0 1,1 0,2 1,-1 2,0 1,-1 1,0 1,-1 2,0 1,-1 1,0 1,-1 2,0 1,-1 1,0 1,-1 2,0 1,-1 1,0 1,-1 2,0 1,-1 1,0 1,-1 2,0 1,-1 1,0 1,-1 2,0 1,-1 1,0 1,-1 2,0 1,-1 1,0 1,-1 2,0 1,-1 1,0 0,-1 -63,0 0,1 1,1 0,0 1,1 1,1 1,1 0,1 2,0 1,1 1,1 1,1 1,1 0,2 1,0 1,1 1,1 1,0 1,1 1,0 1,1Z"/>
<path onmouseover="hoverPath(evt)" onmouseout="recoverPath(evt)" fill="rgb(240,238,225)" d="M  222,199l 0,0 -1,1 0,5 -1,1 -1,0 0,1 1,1 0,5 -1,1 0,5 1,-2 1,0 1,-1 1,-1 2,0 1,1 1,1 1,0 1,1 1,0 1,1 1,1 0,-2 1,-1 0,-2 1,-1 0,-2 1,-1 1,0 0,-1 1,-1 0,-3 1,-1 1,0 0,-3 1,-1 0,-5 1,-1 0,-1 -1,0 -1,1 -1,0 -1,1 -2,0 -1,1 0,1 1,0 1,1 0,2 -1,1 -5,0 -1,-1 0,-2Z"/>
<path onmouseover="hoverPath(evt)" onmouseout="recoverPath(evt)" fill="rgb(250,250,246)" d="M  239,87l 0,2 -1,1 2,0 1,1 1,1 0,1 1,1 1,1 0,3 1,1 2,0 1,1 1,0 1,1 0,1 1,0 1,1 1,1 0,2 1,1 1,0 0,-5 -2,0 -1,-1 -1,-1 0,-1 -1,0 -1,-1 -1,-1 -1,-1 -1,-1 -1,-1 -1,-1 -1,-1 -1,-1 0,-2 1,-1 -1,-1 0,0 -1,-1 0,-1 -2,0 -1,-1 -1,-1 0,-1 -1,-1 -1,-1 0,-3 1,-1 1,-1 1,0 1,-1 1,0 1,-1 1,0 1,-1 1,0 1,-1 2,0 1,1 0,-2 1,-1 1,0 1,-1 1,0 1,-1 2,0 0,-2 -1,0 -1,1 0,0 -1,1 -1,0 -1,1 -1,0 -1,1 -2,0 -1,1 -2,0 -1,-1 -1,1 -1,0 -1,1 -1,0 0,2 -1,1 -4,0 -1,-1 -1,-1 0,-1 -1,-1 -1,-1 0,-2 1,-1 -1,-1 0,0 -1,-1 0,-1 -2,0 -1,-1 -1,-1 0,-4 -2,0 -1,-1 -1,-1 0,-2 1,-1 -2,0 -1,-1 -1,-1 0,-2 1,-1 -2,0 -1,-1 -1,0 0,2 -1,1 2,0 1,1 1,1 0,2 -1,1 2,0 1,1 1,1 0,1 1,1 1,1 0,4 -1,1 -2,0 -1,-1 -1,1 -1,0 -1,1 -1,0 -1,1 -1,0 0,2 -1,1 -2,0 -1,-1 0,2 -1,1 -2,0 0,1 4,0 1,1 0,-2 1,-1 1,0 1,-1 1,0 1,-1 2,0 1,1 0,2 -1,1 0,2 1,1 1,1 0,-2 1,-1 1,-1 1,0 2,-2 4,0 1,1 1,1 0,1 1,1 0,2 -1,1 -1,1 -2,0 0,1 -1,1 -1,1 -1,0 -1,1 -1,1 -4,0 -1,1 -1,1 -1,0 -1,1 0,2 -1,1 -2,0 0,1 3,0 1,-1 1,0 1,-1 1,0 0,-1 1,-1 1,-1 1,0 2,-2 1,0 1,-1 2,0 1,1 0,3 -1,1 0,1 -1,1 2,-2 1,0 1,-1 1,0 2,-2 2,0 1,1 2,0 1,1Z"/>
<path onmouseover="hoverPath(evt)" onmouseout="recoverPath(evt)" fill="rgb(220,231,222)" d="M  239,183l 0,-1 -1,-1 0,-2 -1,-1 -1,0 -1,-1 -1,-1 -1,-1 0,-2 -1,-1 0,-1 -1,-1 -1,0 -1,-1 -1,0 -1,-1 0,-3 -1,0 0,2 -1,1 0,7 1,1 0,3 -1,1 -1,0 0,3 -1,1 0,3 11,0 0,-3 1,-1 2,0 1,1 1,-1 0,3 -1,0 0,3 -1,1 -1,1 -12,0 0,4 -1,1 -2,0 0,1 -1,1 2,-1 8,0 1,1 0,2 3,0 -2,-1 0,-3 1,-1 1,-1 2,0 1,-1 1,0 1,-1 3,0 -1,-1 0,0 -1,-1 0,-1 -1,-1Z"/>
<path onmouseover="hoverPath(evt)" onmouseout="recoverPath(evt)" fill="rgb(235,233,216)" d="M  255,132l 0,-14 -1,0 -1,1 -1,1 -1,1 -2,2 0,1 -1,1 -1,0 0,1 -1,1 0,1 -1,1 -1,0 0,3 3,0 1,1 0,2 -1,1 0,1 1,1 0,0 1,1 6,0Z"/>
</svg>