<svg width="256" height="256" xmlns="http://www.w3.org/2000/svg"><script> 
var tempColor;
function hoverPath(evt){
obj = evt.target;
tempColor = obj.getAttribute("fill");
obj.setAttribute("fill","red");
//alert(tempColor);
//obj.setAttribute("stroke","red");}
function recoverPath(evt){
obj = evt.target;
obj.setAttribute("fill", tempColor);
//obj.setAttribute("stroke", tempColor);
}</script><path onmouseover="hoverPath(evt)" onmouseout="recoverPath(evt)" fill="rgb(253,253,253)" d="M  1,8l -1,0 0,1 8,0 1,1 4,0 1,1 0,18 1,-3 0,-15 1,-1 17,0 1,1 28,0 1,1 27,0 1,1 28,0 1,1 23,0 1,1 0,1 1,0 1,1 0,-1 1,-1 31,0 1,1 28,0 1,1 25,0 1,1 21,0 0,-1 -18,0 -1,-1 -25,0 -1,-1 -29,0 -1,-1 -29,0 -1,-1 -27,0 -1,-1 -28,0 -1,-1 -28,0 -1,-1 -27,0 -1,-1 -26,0 -1,-1Z"/>
<path onmouseover="hoverPath(evt)" onmouseout="recoverPath(evt)" fill="rgb(242,241,235)" d="M  0,28l 0,27 2,0 1,1 0,3 1,1 0,3 1,1 0,4 1,1 0,4 1,1 0,3 1,1 0,3 1,1 0,3 1,1 0,2 1,1 0,2 1,1 0,2 1,1 0,4 1,1 0,2 2,0 1,-1 2,0 1,-1 2,0 1,-1 2,0 1,-1 3,0 1,1 2,0 0,-2 1,-1 3,0 1,-1 3,0 1,-1 4,0 1,1 2,0 0,-2 1,-1 1,0 1,-1 1,0 0,-1 -1,-1 0,0 -1,-1 0,-1 -1,-1 0,-1 -1,-1 -1,-1 0,-1 -1,-1 0,-1 -1,-1 -1,-1 0,-1 -1,-1 0,-1 -1,-1 -1,-1 0,-1 -1,-1 0,-1 -1,-1 -1,-1 0,-2 1,-1 -1,-1 -2,0 -1,-1 -1,-1 0,-2 1,-1 -1,-1 0,0 -1,-1 -2,0 -1,-1 -1,-1 0,-2 1,-1 -1,-1 0,0 -1,-1 -1,-1 -1,-1 0,-1 -1,-1 -1,-1 0,-3 1,-1 -4,0 -1,-1 0,-1 -1,-1 -1,-1 -1,-1 0,-1 -1,-1 -1,-1 0,-2 -2,0 -1,-1 0,-18 -4,0 -1,-1 -7,0Z"/>
<path onmouseover="hoverPath(evt)" onmouseout="recoverPath(evt)" fill="rgb(180,203,238)" d="M  3,164l 0,5 -1,1 -2,0 0,26 1,0 1,-1 0,-7 1,-1 0,-5 1,-1 0,-4 1,-1 0,-3 1,-1 0,-10 -2,0 0,1 -1,1Z"/>
<path onmouseover="hoverPath(evt)" onmouseout="recoverPath(evt)" fill="rgb(243,242,233)" d="M  8,164l 0,9 -1,1 0,3 -1,1 0,4 -1,1 0,5 -1,1 0,7 -1,1 24,0 1,-1 7,0 1,-1 11,0 1,-1 16,0 1,-1 17,0 1,-1 1,0 0,-2 -1,-1 0,-1 -1,-1 0,-2 -1,-1 0,-1 -1,-1 0,-4 1,-1 0,-1 -2,0 -1,-1 0,-1 -1,0 -1,-1 -6,0 -1,-1 -3,0 -1,-1 0,-2 -3,0 -1,1 -4,0 -1,-1 -2,0 -1,-1 -2,0 -1,-1 0,-2 -3,0 -1,-1 -16,0 -1,1 -7,0 -1,-1 -4,0 -1,-1 0,-2 -3,0 -1,1 -4,0Z"/>
<path onmouseover="hoverPath(evt)" onmouseout="recoverPath(evt)" fill="rgb(244,243,235)" d="M  15,108l 0,13 -1,1 0,6 -1,1 0,5 -1,1 0,6 -1,1 0,6 -1,1 0,8 -1,1 -1,1 -4,0 -1,-1 0,-10 1,-1 0,-5 1,-1 0,-5 1,-1 0,-5 1,-1 0,-5 1,-1 0,-6 1,-1 0,-8 1,-1 1,-1 3,0 1,1 0,1 -12,52 8,0 1,-1 5,0 1,1 0,2 4,0 1,1 5,0 1,-1 18,0 1,1 3,0 1,1 0,2 2,0 1,1 2,0 1,1 2,0 1,-1 5,0 1,1 0,2 3,0 1,1 6,0 1,1 1,0 1,1 0,-1 -1,-1 0,0 -1,-1 -1,-1 0,-1 -1,-1 -2,0 -1,-1 -1,-1 0,-1 -1,-1 0,-1 -1,-1 -1,-1 0,-1 -1,-1 0,-1 -1,-1 -1,-1 0,-1 -1,-1 0,-4 -1,-1 0,-7 1,-1 0,-4 -1,-1 0,-5 -1,-1 0,-4 -1,-1 0,-5 -2,0 -1,-1 0,-4 -1,-1 0,-5 -1,-1 0,-6 1,-1 0,-2 -1,-1 0,-4 1,-1 -3,0 -1,-1 0,1 -1,1 -1,0 -1,1 -1,0 0,2 -1,1 -4,0 -1,-1 -2,0 -1,1 -3,0 -1,1 -3,0 0,2 -1,1 -4,0 -1,-1 -1,0 -1,1 -2,0 -1,1 -2,0 -1,1 -2,0 -1,1 -4,0 -10,56 12,-52 -13,53 0,0 13,-53 -13,54 0,0 -1,1 -1,-1 0,6 1,0 0,-4 1,-2 13,-54 -6,-4 -1,-1 0,-3 -1,-1 0,-3 -1,-1 0,-2 -1,-1 0,-3 -1,-1 0,-3 -1,-1 0,-2 -1,-1 0,-3 -1,-1 0,-3 -1,0 0,82 9,-52 6,4Z"/>
<path onmouseover="hoverPath(evt)" onmouseout="recoverPath(evt)" fill="rgb(171,198,238)" d="M  18,24l -1,0 0,2 13,0 1,1 17,0 1,1 18,0 1,1 28,0 1,1 27,0 1,1 21,0 -1,-1 0,-2 -12,0 -1,-1 -30,0 -1,-1 -32,0 -1,-1 -28,0 -1,-1 -18,0 -1,-1 -1,0 -1,1Z"/>
<path onmouseover="hoverPath(evt)" onmouseout="recoverPath(evt)" fill="rgb(242,241,231)" d="M  0,1l 0,5 10,0 1,1 26,0 1,1 27,0 1,1 28,0 1,1 28,0 1,1 27,0 1,1 29,0 1,1 29,0 1,1 25,0 1,1 17,0 0,-15 -254,0 -1,1Z"/>
<path onmouseover="hoverPath(evt)" onmouseout="recoverPath(evt)" fill="rgb(243,242,234)" d="M  4,203l 0,0 -1,-1 -3,0 0,24 5,0 1,-1 4,0 1,-1 4,0 1,-1 3,0 1,-1 3,0 1,-1 4,0 1,-1 4,0 1,-1 3,0 1,-1 4,0 1,-1 4,0 1,-1 3,0 1,-1 4,0 1,-1 4,0 1,-1 4,0 1,-1 3,0 1,-1 4,0 1,-1 4,0 1,-1 3,0 1,-1 7,0 1,1 0,-2 -1,-1 0,-1 -2,0 -1,-1 0,-1 -1,-1 0,-2 -1,-1 0,-1 -19,0 -1,1 -16,0 -1,1 -11,0 -1,1 -7,0 -1,1 -21,0 -1,1 -4,0 89,7 0,1 1,1 0,8 1,1 0,9 1,1 0,7 1,1 0,7 1,1 0,8 1,0 0,-5 -1,-4 0,-4 -1,-4 0,-5 -1,-3 0,-6 -1,-4 0,-5 -1,-4 -1,-1 -89,-7Z"/>
<path onmouseover="hoverPath(evt)" onmouseout="recoverPath(evt)" fill="rgb(242,240,231)" d="M  18,28l -2,0 0,1 1,1 0,2 1,1 1,1 0,1 1,1 1,1 1,1 0,1 11,0 1,-1 9,0 1,-1 14,0 1,-1 15,0 1,1 10,0 1,-1 4,0 1,1 1,1 3,0 1,-1 10,0 1,1 1,1 1,1 0,2 18,0 1,1 20,0 0,-5 -1,-1 0,-4 -23,0 -1,-1 -27,0 -1,-1 -28,0 -1,-1 -18,0 -1,-1 -17,0 -1,-1Z"/>
<path onmouseover="hoverPath(evt)" onmouseout="recoverPath(evt)" fill="rgb(244,242,234)" d="M  28,46l 0,1 1,1 1,1 1,1 1,1 0,1 1,1 1,1 0,1 1,1 1,1 1,1 0,1 1,1 1,1 0,1 2,2 0,2 -1,1 1,1 2,0 1,1 0,2 -1,1 1,1 2,0 1,1 0,2 -1,1 1,1 2,0 1,1 0,2 -1,1 1,1 2,0 1,1 0,2 -1,1 1,1 2,0 1,1 0,1 3,0 1,-1 3,0 1,-1 4,0 1,-1 5,0 1,-1 29,0 1,-1 9,0 1,-1 5,0 1,-1 18,0 1,1 15,0 0,-6 -1,-1 0,-4 -1,-1 0,-5 -1,-1 0,-5 -1,-1 0,-5 -1,-1 0,-4 -1,-1 0,-1 -1,0 -1,-1 -20,0 -1,-1 0,-2 -18,0 -1,-1 0,-2 -1,-1 -1,-1 -8,0 -1,1 -5,0 -1,-1 -1,-1 -2,0 -1,1 -12,0 -1,-1 -13,0 -1,1 -14,0 -1,1 -9,0 0,2 -1,1 -8,0 0,1 1,1 1,1Z"/>
<path onmouseover="hoverPath(evt)" onmouseout="recoverPath(evt)" fill="rgb(171,198,238)" d="M  151,29l 0,3 23,0 1,1 27,0 1,1 32,0 1,1 19,0 0,-3 -16,0 -1,-1 -24,0 -1,-1 -22,0 -1,-1 -28,0 -1,-1 -9,0 -1,1Z"/>
<path onmouseover="hoverPath(evt)" onmouseout="recoverPath(evt)" fill="rgb(244,243,237)" d="M  0,234l 0,21 93,0 0,-2 -1,-1 0,-6 -1,-1 0,-7 -1,-1 0,-8 -1,-1 0,-7 -1,-1 0,-5 -1,-1 -1,0 -1,1 -4,0 -1,1 -3,0 -1,1 -3,0 -1,1 -4,0 -1,1 -4,0 -1,1 -3,0 -1,1 -4,0 -1,1 -4,0 -1,1 -3,0 -1,1 -4,0 -1,1 -3,0 -1,1 -4,0 -1,1 -4,0 -1,1 -3,0 -1,1 -4,0 -1,1 -3,0 -1,1 -3,0 -1,1 -3,0 -1,1 -3,0 -1,1Z"/>
<path onmouseover="hoverPath(evt)" onmouseout="recoverPath(evt)" fill="rgb(176,201,238)" d="M  3,69l 0,-4 -1,-1 0,-3 -1,-1 0,-3 -1,0 0,15 2,0 1,1 0,3 1,1 0,3 1,1 0,2 1,1 0,3 1,1 0,3 1,1 0,2 1,1 0,3 1,1 0,3 1,1 1,-1 0,-1 -1,-1 0,-4 -1,-1 0,-2 -1,-1 0,-2 -1,-1 0,-2 -1,-1 0,-3 -1,-1 0,-3 -1,-1 0,-3 -1,-1 0,-4 -1,-1Z"/>
<path onmouseover="hoverPath(evt)" onmouseout="recoverPath(evt)" fill="rgb(171,198,238)" d="M  11,110l 0,7 -1,1 0,6 -1,1 0,5 -1,1 0,5 -1,1 0,5 -1,1 0,5 -1,1 0,8 2,0 1,-1 0,-8 1,-1 0,-6 1,-1 0,-6 1,-1 0,-5 1,-1 0,-6 1,-1 0,-12 -1,0 -1,1Z"/>
<path onmouseover="hoverPath(evt)" onmouseout="recoverPath(evt)" fill="rgb(242,241,230)" d="M  17,14l 0,8 1,-1 3,0 1,1 18,0 1,1 28,0 1,1 32,0 1,1 30,0 1,1 11,0 0,-5 -1,-1 0,-2 -1,0 -1,-1 0,-1 -23,0 -1,-1 -28,0 -1,-1 -27,0 -1,-1 -28,0 -1,-1 -15,0Z"/>
<path onmouseover="hoverPath(evt)" onmouseout="recoverPath(evt)" fill="rgb(242,241,232)" d="M  255,228l 0,-42 -12,0 -1,1 -3,0 0,4 1,1 0,4 1,1 0,3 1,1 0,4 1,1 0,4 -1,1 0,4 1,1 0,3 1,1 0,4 1,1 0,3 1,1 0,5 1,1 0,2 1,1 0,4 1,1 0,3 2,0 1,1 0,4 1,1 0,3 2,0Z"/>
<path onmouseover="hoverPath(evt)" onmouseout="recoverPath(evt)" fill="rgb(253,253,253)" d="M  0,199l 0,1 4,0 1,1 2,0 1,-1 21,0 1,-1 7,0 1,-1 11,0 1,-1 16,0 1,-1 21,0 1,1 0,1 1,1 0,2 1,1 0,1 -1,-5 0,-2 1,-1 6,0 1,-1 13,0 1,-1 13,0 1,-1 13,0 1,-1 13,0 1,-1 12,0 1,-1 19,0 1,1 0,8 1,-8 0,-1 1,-1 6,0 1,-1 14,0 1,-1 14,0 1,-1 9,0 1,1 0,1 1,1 0,-2 1,-1 3,0 1,-1 13,0 0,-1 -14,0 -1,1 -15,0 -1,1 -14,0 -1,1 -14,0 -1,1 -16,0 -1,-1 0,-1 -1,-1 0,3 -1,1 -9,0 -1,1 -12,0 -1,1 -13,0 -1,1 -13,0 -1,1 -13,0 -1,1 -13,0 -1,1 -7,0 -1,-1 -1,0 -1,-1 0,1 -1,1 -1,0 -1,1 -17,0 -1,1 -16,0 -1,1 -11,0 -1,1 -7,0 -1,1 -26,0 -1,-1 -1,1Z"/>
<path onmouseover="hoverPath(evt)" onmouseout="recoverPath(evt)" fill="rgb(244,243,235)" d="M  61,93l 0,0 -1,1 -1,0 0,2 1,1 0,4 -1,1 0,4 1,1 0,5 1,1 0,4 2,0 1,1 0,5 1,1 0,4 1,1 0,5 1,1 0,6 -1,1 0,5 1,1 0,4 1,1 0,1 1,1 2,0 1,1 0,2 -1,1 1,1 2,0 1,1 0,2 -1,1 1,1 2,0 1,1 1,1 0,1 1,1 1,1 1,1 0,3 1,1 0,3 -1,1 0,2 1,1 0,1 1,1 0,2 1,1 0,1 2,0 1,1 0,2 1,0 1,1 5,0 1,-1 13,0 1,-1 13,0 1,-1 13,0 1,-1 13,0 1,-1 12,0 1,-1 9,0 0,-7 1,-1 0,-3 -1,-1 0,-4 -2,0 -1,-1 0,-3 -1,-1 0,-4 -1,-1 0,-4 -1,-1 0,-5 -1,-1 0,-4 -1,-1 0,-5 -1,-1 0,-4 -1,-1 0,-5 -1,-1 0,-4 -1,-1 0,-4 -1,-1 0,-5 -1,-1 0,-6 1,-1 0,-4 -1,-1 0,-4 -1,-1 0,-7 -1,-1 0,-4 -1,-1 0,4 -1,1 -17,0 -1,-1 -16,0 -1,1 -5,0 -1,1 -9,0 -1,1 -29,0 -1,1 -5,0 -1,1 -4,0 -1,1 -3,0Z"/>
<path onmouseover="hoverPath(evt)" onmouseout="recoverPath(evt)" fill="rgb(244,243,235)" d="M  92,199l 0,1 1,1 0,2 1,1 0,1 1,1 0,2 1,1 0,4 1,1 0,8 1,1 0,8 1,1 0,8 1,1 0,7 1,1 0,6 150,0 0,-2 -1,-1 0,-4 -2,0 -1,-1 0,-3 -1,-1 0,-4 -1,-1 0,-2 -1,-1 0,-5 -1,-1 0,-3 -1,-1 0,-4 -1,-1 0,-3 -1,-1 0,-6 1,-1 0,-2 -1,-1 0,-4 -1,-1 0,-3 -1,-1 0,-4 -2,0 -1,-1 0,-3 -1,-1 0,-1 -7,0 -1,1 -14,0 -1,1 -14,0 -1,1 -6,0 0,1 -1,1 0,7 -1,1 -2,0 -1,-1 0,-8 -17,0 -1,1 -12,0 -1,1 -13,0 -1,1 -13,0 -1,1 -13,0 -1,1 -13,0 -1,1 -6,0Z"/>
<path onmouseover="hoverPath(evt)" onmouseout="recoverPath(evt)" fill="rgb(172,198,237)" d="M  94,251l 0,0 1,1 0,3 1,0 0,-7 -1,-1 0,-7 -1,-1 0,-7 -1,-1 0,-9 -1,-1 0,-8 -1,-1 0,-2 -5,0 -1,1 -3,0 -1,1 -4,0 -1,1 -4,0 -1,1 -3,0 -1,1 -4,0 -1,1 -4,0 -1,1 -4,0 -1,1 -3,0 -1,1 -4,0 -1,1 -4,0 -1,1 -3,0 -1,1 -4,0 -1,1 -4,0 -1,1 -3,0 -1,1 -3,0 -1,1 -4,0 -1,1 -4,0 -1,1 -6,0 0,3 3,0 1,-1 3,0 1,-1 3,0 1,-1 3,0 1,-1 4,0 1,-1 3,0 1,-1 4,0 1,-1 4,0 1,-1 3,0 1,-1 4,0 1,-1 3,0 1,-1 4,0 1,-1 4,0 1,-1 3,0 1,-1 4,0 1,-1 4,0 1,-1 3,0 1,-1 3,0 1,-1 4,0 1,-1 3,0 1,1 1,1 0,5 1,1 0,7 1,1 0,8 1,1 0,7 1,1Z"/>
<path onmouseover="hoverPath(evt)" onmouseout="recoverPath(evt)" fill="rgb(242,241,231)" d="M  149,17l -1,0 0,3 -1,1 0,8 1,1 0,1 1,1 0,-5 1,-1 12,0 1,1 28,0 1,1 22,0 1,1 24,0 1,1 15,0 0,-10 -22,0 -1,-1 -25,0 -1,-1 -28,0 -1,-1Z"/>
<path onmouseover="hoverPath(evt)" onmouseout="recoverPath(evt)" fill="rgb(244,243,236)" d="M  153,34l -2,0 0,3 -1,1 0,6 -1,1 -21,0 21,1 1,0 1,1 0,1 1,1 0,4 1,1 0,5 1,1 0,5 1,1 0,5 1,1 0,4 2,0 1,1 0,3 1,1 0,4 1,1 0,7 1,1 0,4 1,1 0,6 -1,1 0,4 1,1 0,5 1,1 0,4 1,1 0,4 1,1 0,5 1,1 0,4 1,1 0,5 1,1 0,4 1,1 0,5 1,1 0,4 1,1 0,4 1,1 0,3 2,0 1,1 0,4 1,1 0,4 1,1 0,4 1,1 0,1 14,0 1,-1 14,0 1,-1 14,0 1,-1 15,0 1,-1 15,0 0,-144 -20,0 -1,-1 -32,0 -1,-1 -27,0 -1,-1Z"/>
</svg>