<svg width="256" height="256" xmlns="http://www.w3.org/2000/svg"><script> 
var tempColor;
function hoverPath(evt){
obj = evt.target;
tempColor = obj.getAttribute("fill");
obj.setAttribute("fill","red");
//alert(tempColor);
//obj.setAttribute("stroke","red");}
function recoverPath(evt){
obj = evt.target;
obj.setAttribute("fill", tempColor);
//obj.setAttribute("stroke", tempColor);
}</script><path onmouseover="hoverPath(evt)" onmouseout="recoverPath(evt)" fill="rgb(243,242,233)" d="M  0,148l 0,81 1,0 1,-1 2,0 1,-1 3,0 1,-1 3,0 1,-1 27,0 1,-1 4,0 -1,-1 0,-4 -1,-1 0,-3 -5,0 -1,-1 -1,0 0,1 1,1 0,2 -1,1 -6,0 -1,-1 0,-2 -1,-1 0,-2 1,-1 0,-1 -1,-1 0,-3 -2,0 -1,-1 0,-1 -1,-1 0,-2 -1,-1 0,-2 -1,-1 0,-2 -1,-1 0,-2 -1,-1 0,-2 -1,-1 0,-4 -1,-1 0,-3 -7,0 -1,-1 -1,0 -1,-1 -1,-1 0,-1 -1,-1 0,-5 -1,-1 0,-11 -1,-1 0,-3 -1,-1 0,-8 -1,-1 0,-11 -1,-1 0,-3 -1,0Z"/>
<path onmouseover="hoverPath(evt)" onmouseout="recoverPath(evt)" fill="rgb(242,241,234)" d="M  79,85l 1,0 1,-1 2,0 1,-1 2,0 0,-2 1,-1 3,0 1,1 2,0 1,-1 2,0 1,-1 2,0 1,-1 2,0 1,-1 2,0 1,-1 3,0 1,-1 2,0 1,-1 2,0 1,-1 2,0 1,-1 2,0 1,-1 3,0 1,-1 2,0 1,-1 2,0 1,-1 2,0 1,-1 3,0 1,-1 2,0 1,-1 2,0 1,-1 2,0 1,-1 2,0 1,-1 3,0 1,-1 2,0 1,-1 2,0 1,-1 2,0 1,-1 2,0 1,-1 3,0 1,-1 2,0 1,-1 2,0 1,-1 2,0 1,-1 3,0 1,-1 2,0 1,-1 2,0 1,-1 2,0 1,-1 2,0 1,-1 2,0 1,-1 3,0 1,-1 2,0 1,-1 2,0 1,-1 2,0 1,-1 2,0 1,-1 3,0 1,-1 2,0 1,-1 2,0 0,-2 1,-1 2,0 1,1 2,0 1,-1 2,0 1,-1 2,0 1,-1 2,0 1,-1 2,0 1,-1 0,-3 -1,-1 0,-5 -1,-1 0,-3 -1,-1 0,-4 -1,-1 0,-4 -1,-1 0,-3 -1,-1 0,-5 -237,0 0,49 1,0 0,-2 1,-1 0,-1 -1,-1 0,-2 1,-1 2,0 0,-2 1,-1 0,-2 1,-1 0,-2 1,-1 0,-2 1,-1 0,-1 -1,-1 0,-2 1,-1 2,0 0,-2 1,-1 0,-2 1,-1 0,-2 1,-1 0,-2 1,-1 0,-1 1,-1 0,-1 1,-1 2,0 1,1 0,5 1,1 0,2 -1,1 -2,0 0,2 -1,1 0,2 -1,1 0,2 -1,1 0,2 -1,1 0,2 -1,1 0,1 1,1 0,2 -1,1 -2,0 0,2 -1,1 0,2 -1,1 0,2 -1,1 0,1 1,1 0,2 -1,1 -2,0 0,2 -1,1 0,2 -1,1 0,1 1,1 0,3 -1,1 0,2 -1,1 -2,0 0,12 5,0 1,-1 4,0 1,-1 3,0 1,-1 3,0 1,-1 4,0 1,-1 4,0 1,-1 3,0 1,-1 3,0 1,-1 4,0 1,1 0,3 -1,1 -1,0 0,1 1,1 0,1 1,0 1,1 0,5 2,0 1,1 0,7 3,0 1,1 1,1 2,0 0,-2 1,-1 1,0 1,-1 3,0 1,-1 2,0 1,-1 2,0 1,-1 3,0 1,-1 3,0 1,-1 2,0 1,-1Z"/>
<path onmouseover="hoverPath(evt)" onmouseout="recoverPath(evt)" fill="rgb(244,242,235)" d="M  162,184l -2,2 -1,1 -1,1 -1,1 -1,1 -1,1 -1,1 0,1 -1,1 -1,1 -1,1 0,1 -1,1 -1,1 0,1 -1,1 -1,1 -1,1 0,1 -1,1 -1,1 -1,1 -1,1 0,2 -1,1 1,1 0,2 1,1 0,1 1,1 2,0 1,-1 4,0 1,-1 5,0 1,1 2,0 1,-1 3,0 0,-2 1,-1 3,0 1,1 2,0 0,-2 1,-1 3,0 1,-1 4,0 1,1 2,0 1,-1 2,0 1,-1 2,0 1,-1 2,0 0,-2 1,-1 3,0 1,-1 3,0 1,-1 3,0 1,-1 3,0 1,-1 0,-3 1,-1 0,-5 1,-1 1,-1 4,0 1,-1 5,0 0,-1 1,-1 0,-1 1,-1 1,-1 3,0 1,-1 0,-1 1,-1 1,0 1,-1 6,0 1,1 6,0 0,-2 1,-1 9,0 0,-6 -11,0 -1,-1 -11,0 -1,-1 -3,0 -1,1 -24,0 -1,1 -5,0 -1,1 -4,0 -1,1 -3,0 -1,1 -2,0 -1,1 -2,0 -1,1 -2,0 -1,1 -2,0 -1,1 -2,0 -1,1 -2,0 -1,1 -1,0 -1,1 -1,0 -1,1 -1,1 -1,0 -1,1Z"/>
<path onmouseover="hoverPath(evt)" onmouseout="recoverPath(evt)" fill="rgb(244,243,236)" d="M  0,237l 0,18 146,0 0,-1 -1,-1 -6,0 -1,-1 0,-2 1,-1 4,0 1,-1 0,-5 -1,-1 0,-4 -1,-1 0,-4 -1,-1 0,-4 -1,-1 0,-4 -1,-1 0,-2 -1,-1 0,-1 -1,-1 0,-2 -1,-1 0,-1 -2,0 -1,1 -2,0 -1,1 -2,0 -1,1 -6,0 -1,1 -5,0 -1,1 -6,0 -1,1 -7,0 -1,1 -8,0 -1,1 -7,0 -1,1 -7,0 -1,1 -6,0 -1,1 -3,0 -1,1 -2,0 -1,1 -2,0 -1,1 -2,0 -1,1 -3,0 -1,1 -3,0 -1,1 -7,0 -1,1 -17,0 -1,1 -7,0 -1,1 -2,0 -1,1 -3,0 -1,1 -2,0 -1,1 -1,0 -1,1Z"/>
<path onmouseover="hoverPath(evt)" onmouseout="recoverPath(evt)" fill="rgb(242,241,231)" d="M  11,157l -1,1 -1,0 0,12 -1,1 0,4 1,1 0,1 1,1 1,-1 5,0 1,-1 3,0 1,-1 4,0 1,-1 4,0 1,-1 5,0 1,-1 4,0 1,-1 4,0 1,-1 5,0 1,-1 4,0 1,-1 4,0 1,-1 5,0 1,-1 4,0 1,-1 4,0 1,-1 5,0 1,-1 4,0 1,-1 4,0 1,-1 4,0 1,-1 5,0 1,-1 3,0 1,-1 3,0 0,-1 -1,-1 0,-1 -1,-1 0,-2 -1,-1 0,-1 -1,-1 0,-2 -1,-1 0,-1 -1,-1 0,-2 -1,-1 0,-1 -1,-1 0,-2 -1,-1 -2,0 -1,1 -4,0 -1,1 -3,0 -1,1 -3,0 -1,1 -4,0 -1,1 -3,0 -1,1 -3,0 -1,1 -4,0 -1,1 -4,0 -1,1 -3,0 -1,1 -4,0 -1,1 -4,0 -1,1 -4,0 -1,1 -4,0 -1,1 -4,0 -1,1 -4,0 -1,1 -4,0 -1,1 -4,0 -1,1 -5,0 -1,1 -4,0Z"/>
<path onmouseover="hoverPath(evt)" onmouseout="recoverPath(evt)" fill="rgb(249,249,244)" d="M  16,13l 0,0 -1,1 0,2 -1,1 0,2 -1,1 0,2 -1,1 0,2 -1,1 -2,0 1,1 0,3 -1,1 0,2 -1,1 0,2 -1,1 0,2 -1,1 0,2 -1,1 -2,0 1,1 0,3 -1,1 0,2 -1,1 -2,0 0,14 1,0 0,-2 1,-1 0,-1 -1,-1 0,-3 1,-1 0,-2 1,-1 0,-2 1,-1 2,0 -1,-1 0,-3 1,-1 0,-2 1,-1 0,-2 1,-1 0,-2 1,-1 2,0 -1,-1 0,-3 1,-1 0,-2 1,-1 0,-2 1,-1 0,-2 1,-1 0,-2 1,-1 0,-2 1,-1 2,0 -1,-1 0,-1 -1,-1 1,-1 0,-2 -1,2Z"/>
<path onmouseover="hoverPath(evt)" onmouseout="recoverPath(evt)" fill="rgb(241,240,231)" d="M  6,126l 0,4 1,1 0,9 1,1 0,1 6,0 1,1 0,1 1,1 0,3 -1,1 3,0 1,-1 4,0 1,-1 5,0 1,-1 4,0 1,-1 4,0 1,-1 4,0 1,-1 3,0 1,-1 5,0 1,-1 3,0 1,-1 4,0 1,-1 3,0 1,-1 4,0 1,-1 3,0 1,-1 4,0 1,-1 3,0 1,-1 4,0 1,-1 3,0 1,-1 3,0 1,-1 3,0 0,-1 -1,-1 0,-2 -1,-1 0,-1 -1,-1 0,-1 -3,0 -1,-1 0,-2 1,-1 1,0 0,-2 -2,0 -1,-1 0,-2 1,-1 0,-1 -1,-1 0,-1 -1,-1 0,-2 -1,-1 0,-1 -1,-1 0,-1 -1,-1 0,-2 -1,-1 0,-1 -1,-1 0,-2 -1,-1 0,-2 -1,-1 0,-1 -1,-1 -2,0 -1,1 -3,0 -1,1 -2,0 -1,1 -3,0 -1,1 -2,0 -1,1 -3,0 -1,1 -2,0 -1,1 -2,0 -1,1 -2,0 -1,-1 0,0 -1,1 -4,0 -1,-1 -1,-1 -3,0 -1,-1 0,-7 -2,0 -1,-1 0,-5 -1,0 -1,-1 0,-1 -1,-1 0,-3 1,-1 1,0 0,-1 -2,0 -1,1 -3,0 -1,1 -3,0 -1,1 -4,0 -1,1 -4,0 -1,1 -3,0 -1,1 -3,0 -1,1 -4,0 -1,1 -6,0 0,42 3,0 1,1 1,1 1,1Z"/>
<path onmouseover="hoverPath(evt)" onmouseout="recoverPath(evt)" fill="rgb(244,243,235)" d="M  123,166l 0,2 2,0 1,1 0,2 -1,1 0,1 2,0 1,1 0,2 -1,1 0,1 2,0 1,1 0,2 -1,1 0,1 1,1 0,1 1,1 0,1 1,1 0,2 1,1 0,1 1,1 0,2 2,0 1,1 0,2 -1,1 0,1 1,1 0,1 1,0 1,-1 0,0 1,-1 1,-1 0,-1 1,-1 1,-1 1,-1 1,-1 0,-1 1,-1 1,-1 0,-1 1,-1 1,-1 0,-1 1,-1 2,-2 1,-1 1,-1 1,-1 1,-1 1,-1 1,0 1,-1 1,-1 1,0 1,-1 1,0 1,-1 1,0 1,-1 1,0 1,-1 2,0 1,-1 3,0 1,-1 2,0 1,-1 3,0 1,-1 2,0 1,-1 3,0 1,-1 2,0 1,-1 4,0 1,-1 9,0 1,-1 32,0 1,1 10,0 1,1 4,0 0,-88 -5,0 -1,-1 0,-2 1,-1 1,0 1,-1 0,-1 -1,-1 0,-4 -1,-1 0,-4 -1,-1 0,-3 -1,-1 0,-4 -1,-1 0,-3 -1,-1 0,-4 -1,-1 0,-3 -1,-1 -1,0 -1,1 -2,0 -1,1 -2,0 -1,1 -3,0 -1,1 0,6 -1,1 -2,0 -1,-1 0,-2 -1,-1 0,-1 -3,0 -1,1 -2,0 -1,1 -2,0 -1,1 -3,0 -1,1 -2,0 -1,1 -2,0 -1,1 -2,0 -1,1 -2,0 -1,1 -2,0 -1,1 -3,0 -1,1 -2,0 -1,1 -2,0 -1,1 -2,0 -1,1 -2,0 -1,1 -3,0 -1,1 -2,0 0,2 -1,1 -3,0 -1,-1 -1,0 -1,1 -3,0 -1,1 -2,0 -1,1 -2,0 -1,1 -2,0 -1,1 -2,0 -1,1 -3,0 -1,1 -2,0 -1,1 -2,0 -1,1 -2,0 -1,1 -2,0 -1,1 -3,0 -1,1 -2,0 -1,1 -2,0 -1,1 -2,0 -1,1 -2,0 -1,1 -3,0 -1,1 -2,0 -1,1 -2,0 -1,1 -2,0 -1,1 -3,0 -1,1 -2,0 -1,1 -2,0 -1,1 -2,0 -1,1 -2,0 -1,1 -1,0 0,2 1,1 0,1 1,1 0,2 2,0 1,1 0,2 -1,1 0,1 2,0 1,1 0,2 -1,1 0,1 2,0 1,1 0,2 -1,1 0,1 2,0 1,1 0,2 -1,1 0,1 2,0 1,1 0,2 -1,1 0,1 2,0 1,1 0,2 -1,1 0,1 1,1 0,1 1,1 4,0 1,1 0,2 -1,1 -2,0 0,2 1,1 0,2 1,1 0,1 1,1 0,2 1,1 0,1 1,1 0,2 2,0 1,1 0,2 -1,1 0,1 2,0 1,1 0,2 -1,1 0,1 1,1 0,0 1,1 0,1 5,0 1,1 0,2 -1,1 -3,0 0,2 1,1Z"/>
<path onmouseover="hoverPath(evt)" onmouseout="recoverPath(evt)" fill="rgb(242,241,230)" d="M  243,0l -1,0 0,2 1,1 0,4 1,1 0,3 1,1 0,4 1,1 0,4 1,1 0,3 1,1 0,3 1,1 0,1 3,0 1,-1 2,0 0,-30Z"/>
<path onmouseover="hoverPath(evt)" onmouseout="recoverPath(evt)" fill="rgb(252,252,250)" d="M  20,178l -2,0 -1,1 2,0 1,-1 3,-1 0,1 3,0 1,-1 5,0 1,-1 4,0 1,-1 5,0 1,-1 4,0 1,-1 4,0 1,-1 5,0 1,-1 4,0 1,-1 4,0 1,-1 4,0 1,-1 5,0 1,-1 4,0 1,-1 4,0 1,-1 4,0 1,-1 5,0 1,-1 4,0 1,-1 4,0 1,-1 4,0 1,1 1,1 0,2 1,1 0,1 1,1 0,2 1,1 0,1 1,1 0,1 1,1 0,3 -1,1 2,0 1,1 0,3 -1,1 2,0 1,1 0,3 -1,1 2,0 1,1 0,2 1,1 0,1 1,1 0,2 1,1 0,1 1,1 0,4 -1,1 2,0 1,1 0,2 1,1 0,2 1,0 1,1 0,1 1,1 0,2 1,1 0,1 1,1 0,2 1,1 0,4 1,1 0,4 1,1 0,4 1,1 0,4 1,1 0,7 -1,1 -1,1 2,0 1,1 1,1 0,2 1,0 0,-3 -1,-1 0,-4 -1,-1 0,-4 -1,-1 0,-4 -1,-1 0,-5 -1,-1 0,-4 -1,-1 0,-5 1,-1 -1,0 -1,-1 -1,-1 0,-1 -1,-1 0,-2 -1,-1 0,-1 -1,-1 0,-2 -1,-1 0,-3 -1,0 -1,-1 0,-1 -1,-1 0,-3 1,-1 -2,0 -1,-1 0,-2 -1,-1 0,-1 -1,-1 0,-2 -1,-1 0,-1 -1,-1 0,-1 -1,-1 0,-3 1,-1 -2,0 -1,-1 0,-3 1,-1 -2,0 -1,-1 0,-3 1,-1 -2,0 -1,-1 0,-2 -1,-1 0,-4 1,-1 -2,0 -1,-1 0,-1 -1,-1 -1,-1 0,-3 1,-1 -2,0 -1,-1 0,-3 1,-1 -2,0 -1,-1 0,-2 -1,-1 0,-1 -1,-1 0,-2 -1,-1 0,-1 -1,-1 0,-2 -1,-1 0,-4 1,-1 -2,0 -1,-1 -1,-1 0,-1 -1,-1 0,-3 1,-1 -2,0 -1,-1 0,-3 1,-1 -2,0 -1,-1 0,-3 1,-1 -2,0 -1,-1 0,-3 1,-1 -2,0 -1,-1 0,-3 1,-1 -2,0 -1,-1 0,-3 1,-1 -2,0 -1,-1 0,-2 -1,-1 0,-1 -1,-1 0,-4 1,-1 1,0 1,-1 2,0 1,-1 2,0 1,-1 2,0 1,-1 2,0 1,-1 3,0 1,-1 2,0 1,-1 2,0 1,-1 2,0 1,-1 3,0 1,-1 2,0 1,-1 2,0 1,-1 2,0 1,-1 2,0 1,-1 3,0 1,-1 2,0 1,-1 2,0 1,-1 2,0 1,-1 2,0 1,-1 3,0 1,-1 2,0 1,-1 2,0 1,-1 2,0 1,-1 2,0 1,-1 3,0 1,-1 3,0 1,1 1,0 0,-2 1,-1 2,0 1,-1 3,0 1,-1 2,0 1,-1 2,0 1,-1 2,0 1,-1 2,0 1,-1 3,0 1,-1 2,0 1,-1 2,0 1,-1 2,0 1,-1 2,0 1,-1 2,0 1,-1 3,0 1,-1 2,0 1,-1 2,0 1,-1 5,0 1,1 0,1 1,1 0,-4 1,-1 1,-1 3,0 1,-1 2,0 1,-1 2,0 1,-1 3,0 2,2 0,3 1,1 0,4 1,1 0,3 1,1 0,4 1,1 0,3 1,1 0,4 1,1 0,4 1,1 0,3 -1,1 -1,1 3,0 0,-44 -1,0 -1,1 -5,0 -1,-1 0,-1 -1,-1 0,-3 -1,-1 0,-3 -1,-1 0,-4 -1,-1 0,-4 -1,-1 0,-3 -1,-1 0,-4 -1,-1 0,-3 -1,0 0,4 1,1 0,3 1,1 0,4 1,1 0,4 1,1 0,3 1,1 0,5 1,1 0,5 -1,1 -1,1 -2,0 -1,1 -2,0 -1,1 -2,0 -1,1 -2,0 -1,1 -4,0 -1,-1 0,2 -1,1 -2,0 -1,1 -2,0 -1,1 -3,0 -1,1 -2,0 -1,1 -2,0 -1,1 -2,0 -1,1 -2,0 -1,1 -3,0 -1,1 -2,0 -1,1 -2,0 -1,1 -2,0 -1,1 -2,0 -1,1 -2,0 -1,1 -3,0 -1,1 -2,0 -1,1 -2,0 -1,1 -2,0 -1,1 -3,0 -1,1 -2,0 -1,1 -2,0 -1,1 -2,0 -1,1 -2,0 -1,1 -3,0 -1,1 -2,0 -1,1 -2,0 -1,1 -2,0 -1,1 -2,0 -1,1 -3,0 -1,1 -2,0 -1,1 -2,0 -1,1 -2,0 -1,1 -3,0 -1,1 -2,0 -1,1 -2,0 -1,1 -2,0 -1,1 -2,0 -1,1 -3,0 -1,1 -2,0 -1,1 -2,0 -1,1 -2,0 -1,1 -2,0 -1,1 -4,0 -1,-1 -1,0 0,2 -1,1 -2,0 -1,1 -2,0 -1,1 -3,0 -1,1 -2,0 -1,1 -3,0 -1,1 -3,0 -1,1 -2,0 -1,1 -2,0 -1,1 -3,0 0,2 1,-1 2,0 1,-1 2,0 1,-1 3,0 1,-1 2,0 1,-1 3,0 1,-1 2,0 1,-1 3,0 1,-1 4,0 1,1 1,1 0,1 1,1 0,2 1,1 0,2 1,1 0,1 1,1 0,2 1,1 0,1 1,1 0,1 1,1 0,2 1,1 0,1 1,1 0,3 -1,1 2,0 1,1 0,4 -1,1 2,0 1,1 0,1 1,1 0,1 1,1 0,2 1,1 0,3 -1,1 -3,0 -1,1 -3,0 -1,1 -3,0 -1,1 -4,0 -1,1 -3,0 -1,1 -4,0 -1,1 -3,0 -1,1 -4,0 -1,1 -3,0 -1,1 -4,0 -1,1 -3,0 -1,1 -5,0 -1,1 -3,0 -1,1 -4,0 -1,1 -4,0 -1,1 -4,0 -1,1 -5,0 -1,1 -4,0 -1,1 -5,0 -1,-1 0,-2 1,-1 0,-1 -1,-1 0,-1 -6,0 -1,-1 0,-1 -1,-1 0,-9 -1,-1 0,-4 -1,-1 -1,-1 -2,0 0,3 2,0 1,1 0,3 1,1 0,11 1,1 0,8 1,1 0,3 1,1 0,-1 1,-1 1,0 0,-2 1,-1 4,0 1,-1 5,0 1,-1 4,0 1,-1 4,0 1,-1 4,0 1,-1 4,0 1,-1 4,0 1,-1 4,0 1,-1 4,0 1,-1 4,0 1,-1 3,0 1,-1 4,0 1,-1 4,0 1,-1 3,0 1,-1 3,0 1,-1 4,0 1,-1 3,0 1,-1 3,0 1,-1 4,0 1,-1 4,0 1,1 1,1 0,2 1,1 0,1 1,1 0,2 1,1 0,1 1,1 0,2 1,1 0,1 1,1 0,2 1,1 0,1 1,1 0,3 -1,1 -3,0 -1,1 -3,0 -1,1 -5,0 -1,1 -4,0 -1,1 -4,0 -1,1 -4,0 -1,1 -5,0 -1,1 -4,0 -1,1 -4,0 -1,1 -5,0 -1,1 -4,0 -1,1 -4,0 -1,1 -5,0 -1,1 -4,0 -1,1 -4,0 -1,1 -5,0 -1,1 -4,0 -1,1 -3,0 -3,1Z"/>
<path onmouseover="hoverPath(evt)" onmouseout="recoverPath(evt)" fill="rgb(243,242,234)" d="M  23,181l -1,0 0,3 -1,1 0,3 1,1 0,2 1,1 0,2 1,1 0,2 1,1 0,2 1,1 0,2 1,1 0,1 2,0 1,1 0,3 1,1 0,2 1,1 0,2 -1,1 0,1 4,0 -1,-1 0,-3 1,-1 3,0 1,1 5,0 1,1 0,3 2,0 1,1 0,2 3,0 1,-1 2,0 1,-1 2,0 1,-1 3,0 1,-1 4,0 1,-1 6,0 1,-1 7,0 1,-1 8,0 1,-1 7,0 1,-1 7,0 1,-1 1,-1 1,0 1,-1 2,0 1,1 0,2 -1,1 3,0 1,-1 4,0 1,-1 4,0 1,-1 3,0 1,-1 3,0 0,-1 -4,0 -1,-1 0,-2 1,-1 2,0 0,-2 -1,-1 0,-1 -1,-1 0,-2 -1,-1 0,-1 -1,-1 0,-2 -2,0 -1,-1 0,-2 1,-1 0,-1 -2,0 -1,-1 0,-2 1,-1 0,-1 -2,0 -1,-1 0,-2 1,-1 0,-1 -1,-1 0,-1 -1,-1 0,-1 -1,-1 0,-2 -1,-1 0,-1 -1,-1 0,-2 -1,-1 -2,0 -1,1 -4,0 -1,1 -4,0 -1,1 -5,0 -1,1 -4,0 -1,1 -4,0 -1,1 -4,0 -1,1 -5,0 -1,1 -4,0 -1,1 -4,0 -1,1 -4,0 -1,1 -5,0 -1,1 -4,0 -1,1 -4,0 -1,1 -5,0 -1,1 -4,0 -1,1 -5,0 -1,1 -3,0 -1,1Z"/>
<path onmouseover="hoverPath(evt)" onmouseout="recoverPath(evt)" fill="rgb(192,211,240)" d="M  83,219l 6,0 1,-1 8,0 1,-1 7,0 1,-1 6,0 1,-1 5,0 1,-1 6,0 1,-1 2,0 1,-1 2,0 1,-1 1,0 0,-1 -3,0 -1,1 -3,0 -1,1 -4,0 -1,1 -4,0 -1,1 -5,0 -1,-1 0,-2 1,-1 -2,1 -1,1 0,0 -1,1 -7,0 -1,1 -7,0 -1,1 -8,0 -1,1 -7,0 -1,1 -6,0 -1,1 -4,0 -1,1 -3,0 -1,1 -2,0 -1,1 -2,0 -1,1 -5,0 -1,-1 0,1 1,1 0,2 -1,1 -4,0 -1,1 -27,0 -1,1 -3,0 -1,1 -3,0 -1,1 -2,0 -1,1 -2,0 0,3 1,0 1,-1 2,0 1,-1 3,0 1,-1 2,0 1,-1 7,0 1,-1 17,0 1,-1 7,0 1,-1 3,0 1,-1 3,0 1,-1 2,0 1,-1 2,0 1,-1 2,0 1,-1 3,0 1,-1 6,0 1,-1 7,0 1,-1Z"/>
<path onmouseover="hoverPath(evt)" onmouseout="recoverPath(evt)" fill="rgb(244,243,235)" d="M  145,223l 0,1 1,1 0,4 1,1 0,5 1,1 0,4 1,1 0,4 1,1 0,4 1,1 0,4 91,0 0,-1 -1,-1 0,0 -1,-1 0,-1 -1,-1 0,-1 -1,-1 0,-1 -1,-1 -1,-1 0,-1 -1,-1 0,-1 -1,-1 0,-1 -1,-1 -1,-1 0,-1 -1,-1 0,-1 -1,-1 0,-1 -1,-1 0,-1 -1,-1 0,-1 -1,-1 0,-1 -1,-1 0,-3 1,-1 -6,0 -1,1 -5,0 -1,-1 -1,-1 0,-1 -1,-1 0,-3 -1,-1 0,-6 -1,-1 0,-3 -5,0 -1,-1 -2,0 -1,1 -3,0 -1,1 -3,0 0,2 -1,1 -2,0 -1,1 -2,0 -1,1 -2,0 -1,1 -4,0 -1,-1 -2,0 -1,1 -3,0 0,2 -1,1 -4,0 -1,-1 -1,0 0,2 -1,1 -3,0 -1,1 -4,0 -1,-1 -3,0 -1,1 -4,0 0,2 -1,1 -2,0Z"/>
<path onmouseover="hoverPath(evt)" onmouseout="recoverPath(evt)" fill="rgb(244,243,235)" d="M  212,195l 0,2 -1,1 0,3 -1,1 -1,1 2,0 1,1 0,3 1,1 0,6 1,1 0,3 1,1 0,1 1,1 3,0 1,-1 8,0 1,1 0,2 -1,1 0,1 1,1 0,1 1,1 0,1 1,1 0,1 1,1 0,1 1,1 0,1 1,1 0,1 1,1 2,0 1,1 0,2 -1,1 1,1 0,1 1,1 2,0 1,1 0,2 -1,1 1,1 0,1 1,1 1,1 0,2 11,0 0,-76 -8,0 0,2 -1,1 -8,0 -1,-1 -4,0 -1,1 -1,0 0,1 -2,2 -3,0 -1,1 0,1 -1,1 0,1 -1,1 -5,0 -1,1 -4,0 -1,1Z"/>
<path onmouseover="hoverPath(evt)" onmouseout="recoverPath(evt)" fill="rgb(171,198,238)" d="M  232,167l 0,0 1,1 11,0 1,1 10,0 0,-1 -5,0 -1,-1 -10,0 -1,-1 -5,0 -1,1 -1,-1 -23,0 -1,1 -9,0 -1,1 -4,0 -1,1 -2,0 -1,1 -3,0 -1,1 -2,0 -1,1 -3,0 -1,1 -2,0 -1,1 -3,0 -1,1 -2,0 -1,1 -1,0 -1,1 -1,0 -1,1 -1,0 -1,1 -1,0 -1,1 -1,1 -1,0 -1,1 -1,1 -1,1 -1,1 -1,1 -1,1 -1,1 0,1 -1,1 -1,1 0,1 -1,1 -1,1 0,1 -1,1 -1,1 -1,1 -1,1 0,1 -1,1 -3,3 0,2 1,1 0,2 1,-3 0,0 1,-1 1,-1 1,-1 0,-1 1,-1 1,-1 1,-1 0,-1 1,-1 1,-1 0,-1 1,-1 1,-1 1,-1 0,-1 1,-1 3,-3 1,-1 3,-3 1,-1 1,-1 1,0 1,-1 1,-1 1,0 1,-1 1,0 1,-1 2,0 1,-1 2,0 1,-1 2,0 1,-1 2,0 1,-1 2,0 1,-1 2,0 1,-1 3,0 1,-1 4,0 1,-1 5,0 1,-1 24,0 1,-1 3,0 1,-1 1,1Z"/>
</svg>