<svg width="256" height="256" xmlns="http://www.w3.org/2000/svg"><script> 
var tempColor;
function hoverPath(evt){
obj = evt.target;
tempColor = obj.getAttribute("fill");
obj.setAttribute("fill","red");
//alert(tempColor);
//obj.setAttribute("stroke","red");}
function recoverPath(evt){
obj = evt.target;
obj.setAttribute("fill", tempColor);
//obj.setAttribute("stroke", tempColor);
}</script><path onmouseover="hoverPath(evt)" onmouseout="recoverPath(evt)" fill="rgb(252,252,250)" d="M  1,240l -1,0 0,1 17,0 1,1 1,1 0,3 1,1 0,5 -1,1 0,2 3,0 0,-11 1,-1 0,-1 1,-1 24,0 1,1 0,6 1,1 5,0 0,-1 1,-1 -1,-1 0,-1 -1,0 -1,-1 0,-2 1,-1 15,0 1,-1 2,0 1,1 1,0 1,1 0,5 1,0 1,-1 1,0 -2,-1 0,-3 1,-1 1,0 1,-1 22,0 1,1 1,0 1,1 0,3 -1,1 -1,1 1,0 1,1 1,1 0,2 -1,1 0,0 -1,1 0,2 3,0 0,-2 -1,-1 0,0 1,-4 1,-1 0,-1 -1,0 -1,-1 0,-3 1,-1 1,-1 50,0 1,1 1,-1 17,0 0,-2 -2,0 -1,-1 -1,0 -1,1 -2,0 -1,1 -8,0 -1,-1 0,-2 -1,-1 0,-5 1,-1 -1,-1 0,-4 -1,-1 0,-2 1,-1 -4,0 -1,-1 0,-4 1,-1 1,-1 9,0 1,1 0,0 1,1 0,4 1,-2 0,-11 -1,-1 0,-5 -1,-1 0,-2 -1,-1 0,4 -1,1 -9,0 -1,1 -4,0 -1,-1 -1,0 -1,-1 -1,-1 2,3 0,1 1,0 1,1 1,1 0,-2 4,-1 10,-1 0,0 1,1 1,4 -1,1 -5,0 0,1 5,0 1,1 0,3 -1,1 -164,27 156,-15 -1,0 -1,-1 -2,0 -1,-1 0,1 5,1 -156,15 155,-1 -58,0 -1,-1 0,-1 -1,-1 -1,-1 -3,0 -1,1 -11,0 -1,-1 -1,0 -1,-1 0,2 -1,1 -3,0 0,1 -1,1 -20,0 -1,1 -13,0 -1,-1 -1,0 -1,-1 0,-10 -1,-1 0,-13 1,-1 0,-1 1,-1 -2,0 -1,-1 -7,0 2,1 5,0 1,1 0,26 -1,1 -1,0 -1,1 -29,0 154,-1 -155,1 156,-2 0,0 -156,2 152,-29 -1,0 -1,1 -1,1 0,2 -1,1 -7,0 -1,1 1,1 0,2 7,0 1,1 3,-10 -152,29 76,-19 1,-1 0,-1 1,-1 -1,0 -1,-1 0,0 -1,1 0,0 1,1 0,2 -76,19 130,7 0,0 1,1 10,0 1,1 6,0 -6,-1 -6,-1 -6,0 -130,-7Z"/>
<path onmouseover="hoverPath(evt)" onmouseout="recoverPath(evt)" fill="rgb(243,233,145)" d="M  15,117l -4,0 -1,-1 -3,0 0,1 -1,1 -2,0 -1,-1 -1,-1 0,-1 -2,0 0,14 1,0 1,-1 0,0 2,-2 0,-1 1,-1 1,-1 5,0 1,1 0,1 1,0 1,1 20,0 1,1 35,0 1,1 0,-1 1,-1 3,0 1,1 55,0 0,-1 1,-1 8,0 1,1 0,1 14,0 1,1 1,-1 3,0 1,-1 17,0 1,1 1,0 0,-7 -1,-1 0,-25 1,-1 1,0 1,-1 1,0 0,-12 -2,0 -1,-1 0,-7 -1,0 0,10 -1,1 -3,0 4,1 0,9 -164,24 163,1 -40,0 -1,1 -2,0 -1,-1 -59,0 -1,-1 0,2 -1,1 -2,0 -1,-1 0,-1 -29,0 -1,-1 0,-5 -1,2 -2,0 0,3 -1,1 -12,0 -1,-1 -7,0 162,1 -163,-1 164,11 0,13 1,0 -1,-13 -164,-11Z"/>
<path onmouseover="hoverPath(evt)" onmouseout="recoverPath(evt)" fill="rgb(251,251,249)" d="M  32,64l 0,0 -1,-1 -1,-1 -2,0 -1,-1 -18,0 -1,1 -1,1 -1,1 -3,0 -1,-1 -2,0 0,1 2,0 3,1 2,0 1,1 0,1 2,2 19,0 1,-1 1,0 0,-1 1,-1 1,0 1,-1 3,0 1,1 0,0 1,1 0,7 -1,1 -1,1 0,1 1,0 1,1 1,0 0,-5 1,-1 0,-16 1,-1 0,-10 1,-1 0,-1 1,-1 37,0 0,-39 1,-1 0,-2 -9,0 0,1 3,0 1,1 2,0 1,1 -48,61 45,-23 -32,0 -1,-1 -1,-1 -1,-1 0,-3 1,-1 0,-20 1,-1 0,-13 -1,0 0,12 -1,1 0,8 -1,1 -1,0 -1,1 -2,0 -1,-1 -3,0 -1,-1 -3,0 -1,-1 -3,0 -1,-1 -5,0 -1,-1 -3,0 -1,-1 -4,0 -1,-1 -5,0 -1,-1 -1,0 -1,-1 -1,0 0,3 4,0 1,1 4,0 1,1 2,0 1,1 3,0 1,1 3,0 1,1 3,0 1,1 2,0 1,1 5,0 1,1 2,0 1,1 3,0 1,1 0,1 1,1 0,2 -1,1 0,7 -1,1 -1,0 -1,1 -4,0 -1,-1 -22,0 -1,1 -7,0 -1,1 -2,0 0,1 2,0 1,-1 8,0 1,-1 14,0 1,1 12,0 1,1 1,1 0,10 -1,1 0,8 -1,1 -1,1 39,-24 -45,23 46,-24 0,0 -46,24 4,12 -2,0 -1,-1 -3,0 -1,1 -4,0 -1,-1 -24,0 0,1 22,0 1,1 0,1 1,0 0,-2 9,0 0,-11 3,11 -4,-12Z"/>
<path onmouseover="hoverPath(evt)" onmouseout="recoverPath(evt)" fill="rgb(244,235,139)" d="M  185,118l -1,0 0,4 1,0 1,1 0,27 1,1 0,-5 1,-1 0,-18 1,-1 36,0 1,-1 8,0 1,1 0,1 6,0 0,-1 1,-1 13,0 0,-7 -30,0 -1,1 -3,0 -1,-1 -7,0 -1,1 -4,0 -1,-1 -18,0 -1,-1 0,-16 -1,15 -1,0 0,1 -1,1Z"/>
<path onmouseover="hoverPath(evt)" onmouseout="recoverPath(evt)" fill="rgb(242,241,231)" d="M  6,0l -6,0 0,12 2,0 1,1 1,0 1,1 5,0 1,1 4,0 1,1 3,0 1,1 5,0 1,1 3,0 1,1 3,0 1,1 3,0 1,1 1,-1 1,0 0,-8 1,-1 0,-11Z"/>
<path onmouseover="hoverPath(evt)" onmouseout="recoverPath(evt)" fill="rgb(241,239,229)" d="M  26,177l 0,31 8,0 1,1 6,0 1,-1 0,-1 1,-1 0,-29 -1,-1 0,-1 -16,0Z"/>
<path onmouseover="hoverPath(evt)" onmouseout="recoverPath(evt)" fill="rgb(242,241,231)" d="M  48,0l -2,0 0,14 -1,1 0,20 -1,1 0,1 1,1 0,0 1,1 30,0 1,-1 1,0 0,-4 1,-1 0,-28 -1,-1 -2,0 -1,-1 -3,0 -1,-1 0,-2Z"/>
<path onmouseover="hoverPath(evt)" onmouseout="recoverPath(evt)" fill="rgb(240,238,227)" d="M  78,129l -2,0 0,10 1,1 25,0 1,1 7,0 1,1 4,0 1,1 17,0 1,-1 0,0 -1,-1 -17,0 -1,-1 0,-2 1,-1 17,0 1,-1 0,-1 -17,0 -1,-1 0,-2 1,-1 9,0 1,-1 7,0 0,-3 -1,0 0,1 -1,1Z"/>
<path onmouseover="hoverPath(evt)" onmouseout="recoverPath(evt)" fill="rgb(237,236,227)" d="M  86,0l -2,0 0,3 -1,1 0,38 2,0 0,-2 1,-1 7,0 0,-1 1,-1 1,0 0,-3 1,-1 1,0 1,-1 29,0 0,-8 1,-1 2,0 1,1 0,3 1,1 0,3 1,1 7,0 1,-1 0,-31Z"/>
<path onmouseover="hoverPath(evt)" onmouseout="recoverPath(evt)" fill="rgb(243,242,234)" d="M  190,129l 0,17 -1,1 0,6 8,0 1,1 1,0 1,1 0,10 1,1 0,1 5,0 1,1 1,1 0,24 1,0 1,1 8,0 1,-1 8,0 0,-1 1,-1 0,-13 1,-1 0,-2 1,-1 0,-4 1,-1 2,0 0,-1 -1,-1 0,-2 2,-2 1,-1 1,-1 -1,0 -1,1 -3,0 -1,-1 -2,0 -2,-2 0,-4 -1,-1 0,-17 -1,-1 0,-8 -33,0 -1,1Z"/>
<path onmouseover="hoverPath(evt)" onmouseout="recoverPath(evt)" fill="rgb(243,242,233)" d="M  0,178l 0,60 30,0 1,-1 1,0 0,-24 -5,0 -1,-1 -1,0 -1,-1 -1,0 -1,-1 0,-20 -1,-1 0,-14 -21,0Z"/>
<path onmouseover="hoverPath(evt)" onmouseout="recoverPath(evt)" fill="rgb(243,241,233)" d="M  23,82l 0,-2 -1,0 -1,-1 0,-1 -21,0 0,6 21,0 1,1 0,8 1,-2 0,0 1,-1 1,0 -2,-1Z"/>
<path onmouseover="hoverPath(evt)" onmouseout="recoverPath(evt)" fill="rgb(187,214,141)" d="M  22,154l 0,16 24,0 0,-17 -23,0 -1,1Z"/>
<path onmouseover="hoverPath(evt)" onmouseout="recoverPath(evt)" fill="rgb(233,231,222)" d="M  59,74l 0,4 1,0 1,1 0,5 16,0 1,-1 0,-14 1,-1 3,0 1,1 0,-10 -1,0 -1,-1 0,-5 1,-1 1,0 0,-7 1,-1 -39,0 15,1 1,0 1,1 0,11 -1,1 -2,0Z"/>
<path onmouseover="hoverPath(evt)" onmouseout="recoverPath(evt)" fill="rgb(187,214,141)" d="M  77,146l 0,7 34,0 0,-9 -1,0 -1,-1 -6,0 -1,1 -6,0 -1,1 -17,0 -1,1Z"/>
<path onmouseover="hoverPath(evt)" onmouseout="recoverPath(evt)" fill="rgb(240,238,228)" d="M  85,58l 0,16 -1,1 -2,0 0,7 1,1 0,1 13,0 0,-1 1,-1 0,-30 1,-1 2,0 1,1 0,31 1,0 1,1 17,0 1,1 0,2 -1,1 -4,0 -1,1 -1,0 0,4 -1,1 0,1 -1,1 -1,1 -1,0 -1,1 0,3 1,0 1,1 22,0 0,-1 1,-1 0,-12 -1,-1 0,-1 -1,-1 -1,-1 -1,0 -1,1 -2,0 -1,1 -2,0 -1,-1 0,-2 1,-1 1,0 1,-1 1,-1 1,0 1,-1 1,-1 1,-1 1,0 1,-1 1,-1 1,0 0,-2 1,-1 1,0 1,-1 1,-1 1,-1 2,0 1,1 0,2 -1,1 -1,1 -1,1 -1,1 0,2 -1,1 9,0 1,-1 0,-10 1,-1 0,-9 -1,-1 0,-2 -1,-1 0,9 -1,1 -2,0 -1,-1 0,-17 -1,-1 0,-1 -34,0 -1,-1 0,-3 1,-1 32,0 1,-1 1,0 0,-2 -26,0 -1,-1 0,-1 -16,0 -1,1 -1,0 0,3 -1,1 -1,0 0,1 -1,1 -7,0 0,1 1,1 0,2 -1,1 -2,0 0,7 -1,1 -1,0 0,3 1,0 1,1Z"/>
<path onmouseover="hoverPath(evt)" onmouseout="recoverPath(evt)" fill="rgb(251,249,240)" d="M  128,34l 15,0 1,1 0,4 -1,1 -1,0 -1,1 -32,0 0,1 34,0 1,1 0,1 1,1 0,17 1,-18 0,-1 1,-1 31,0 1,1 0,27 1,0 0,-27 1,0 0,-4 -1,1 -1,0 -1,1 -5,0 -1,-1 -1,1 -24,0 -1,-1 -2,0 -16,-6 16,0 0,-34 -1,0 0,32 -1,1 2,1 -16,0 2,-4 0,-1 -1,-1Z"/>
<path onmouseover="hoverPath(evt)" onmouseout="recoverPath(evt)" fill="rgb(189,216,216)" d="M  187,98l 0,-1 1,-1 0,-28 1,-1 2,0 0,-1 -2,0 -1,-1 0,-21 -1,-1 0,-3 1,-1 0,-32 1,-1 16,0 1,-1 3,0 0,-2 1,-1 1,0 0,-2 -30,0 0,5 -2,2 -11,0 -1,-1 0,1 -1,-1 -1,0 -1,-1 -3,0 2,1 1,0 15,2 0,30 1,-1 2,0 1,1 0,6 -1,1 -1,0 0,15 1,1 0,4 -1,1 0,2 1,1 0,9 2,0 1,1 0,14 -1,1 -1,0 -1,1 -1,0 0,23 1,1 0,-2 1,-1 1,0 0,-1 1,-1 1,0 0,-14 1,-1 0,-1 2,-2 -2,2Z"/>
<path onmouseover="hoverPath(evt)" onmouseout="recoverPath(evt)" fill="rgb(243,241,232)" d="M  190,10l 0,29 41,0 1,-1 0,-21 1,-1 0,-12 -1,-1 -10,0 -1,1 -3,0 -1,1 -1,0 -1,1 -4,0 -1,1 -3,0 -1,1 -16,0Z"/>
<path onmouseover="hoverPath(evt)" onmouseout="recoverPath(evt)" fill="rgb(241,238,228)" d="M  128,82l 0,1 1,-1 3,0 1,1 1,1 13,0 1,1 0,2 -1,1 -7,0 -1,1 -1,1 0,2 1,1 9,0 1,1 0,2 -1,1 -9,0 0,1 -1,1 0,2 1,1 5,0 1,1 2,0 1,-1 1,0 1,-1 3,0 1,1 1,1 4,0 0,-1 1,-1 0,-3 -1,-1 0,-1 -6,0 -1,-1 0,-2 1,-1 5,0 1,-1 1,0 0,-3 -1,0 -1,-1 0,-1 -4,0 -1,-1 -1,0 -1,-1 0,-25 -1,10 0,10 -1,1 -1,1 -11,0 -1,-1 0,-2 1,-1 0,-2 4,-4 -4,3 -1,3 -1,0 -1,1 -1,1 -1,0 -1,1 -1,1 -2,1Z"/>
<path onmouseover="hoverPath(evt)" onmouseout="recoverPath(evt)" fill="rgb(176,210,224)" d="M  180,171l 0,3 -1,1 0,2 1,1 0,33 1,1 0,9 -1,1 0,3 1,0 0,-2 1,-1 1,0 0,-2 -1,-1 0,0 -1,3 0,-14 1,-1 3,0 1,1 0,2 1,1 7,0 1,-1 0,-11 -8,0 -1,1 -2,0 -1,-1 0,-6 1,-1 1,0 1,-1 1,0 0,-8 -1,-1 0,-10 1,-1 0,-1 1,-1 -1,0 -1,-1 0,-2 1,-1 7,0 1,-1 1,0 0,-9 -8,0 -1,-1 -1,0 -1,-1 0,-1 -1,-1 0,-27 -2,0 0,4 -1,1 0,10 1,1 0,11 -1,1 0,6 1,1 0,3 -1,1 -1,1 -1,1 0,1 1,1Z"/>
<path onmouseover="hoverPath(evt)" onmouseout="recoverPath(evt)" fill="rgb(249,250,248)" d="M  211,200l 1,-1 0,-1 1,-1 29,0 1,1 0,8 1,-7 0,-1 1,-1 10,0 0,-1 -10,0 -1,-1 -2,0 -1,1 -7,0 -1,-1 -1,0 -1,-1 0,-14 1,-1 0,-8 -1,5 0,2 -1,1 0,13 -1,1 0,1 -1,1 -8,0 -1,1 -10,0 -1,-1 -1,0 -1,-1 0,-24 -1,-1 -5,0 -1,-1 0,-1 -1,-1 0,-10 -1,10 -1,0 -1,1 2,0 1,1 1,1 0,10 1,1 4,0 1,1 6,19 -6,-7 0,1 -1,1 -1,1 -2,0 -1,-1 -4,0 -1,1 -7,0 -1,-1 -1,0 -1,-1 0,4 1,-1 10,0 1,1 0,13 -1,1 -1,1 1,0 1,1 1,1 0,1 1,0 1,1 2,0 -2,-1 -2,-2 -1,-1 0,-1 -3,1 -8,0 -1,-1 0,0 -1,-1 0,-2 -1,0 0,8 1,1 0,-3 1,-1 1,0 12,-15 0,-1 1,-1 10,0 1,1 1,1 -6,-6 6,7 0,6 -1,1 0,1 1,1 0,6 -1,1 1,0 -1,1 -1,-1 0,0 -1,1 1,0 3,-3 0,-1 -1,-5Z"/>
<path onmouseover="hoverPath(evt)" onmouseout="recoverPath(evt)" fill="rgb(235,231,215)" d="M  112,107l -1,0 0,2 1,0 1,1 13,0 1,-1 7,0 0,-2 -1,0 -1,-1 -19,0 -1,1Z"/>
<path onmouseover="hoverPath(evt)" onmouseout="recoverPath(evt)" fill="rgb(242,241,232)" d="M  146,4l 0,34 1,0 1,1 22,0 1,-1 2,0 1,1 3,0 0,-30 -11,0 -1,-1 -3,0 -1,-1 -1,0 -1,-1 0,-2 1,-1 5,0 1,1 2,0 1,1 9,0 1,-1 0,-4 -33,0Z"/>
<path onmouseover="hoverPath(evt)" onmouseout="recoverPath(evt)" fill="rgb(243,241,232)" d="M  188,244l 0,11 67,0 0,-56 -9,0 0,1 -1,1 0,6 -1,1 -2,0 -1,-1 0,-8 -27,0 0,1 -1,1 0,10 1,1 0,3 -1,1 0,1 -1,1 -1,1 -5,0 -1,-1 0,-2 1,-1 1,0 1,-1 1,0 0,-4 -1,-1 0,-3 1,-1 0,-5 -1,-1 -8,0 0,1 -1,1 0,11 1,1 0,1 1,0 1,1 1,0 1,1 0,2 -1,1 -4,0 -1,-1 -1,0 -1,-1 0,-1 -1,-1 -7,0 -1,1 -1,0 0,3 -1,1 0,1 1,0 1,1 5,0 1,1 0,2 -1,1 -3,0 0,2 -1,1 0,9 -1,1 0,1 1,1Z"/>
<path onmouseover="hoverPath(evt)" onmouseout="recoverPath(evt)" fill="rgb(252,251,250)" d="M  212,4l 2,0 1,-1 1,0 1,-1 3,0 1,-1 12,0 1,1 1,1 0,0 1,-1 1,0 1,-1 3,0 1,1 13,0 0,-2 -42,0 0,3 -1,1 23,13 -1,1 0,21 -1,1 -1,1 -43,0 0,1 22,0 1,1 0,3 1,1 0,-3 1,-1 1,-1 27,0 1,1 0,4 -1,1 0,5 1,-5 2,0 0,-2 1,-1 9,0 0,-4 -19,0 -1,-1 -1,0 1,-23 -23,-13 23,18 0,0 -23,-18Z"/>
<path onmouseover="hoverPath(evt)" onmouseout="recoverPath(evt)" fill="rgb(242,241,232)" d="M  240,163l -2,2 -1,1 -1,1 -1,1 0,2 -1,1 0,9 -1,1 0,12 1,0 1,1 5,0 1,-1 4,0 1,1 9,0 0,-39 -4,0 -1,1 -1,0 -1,1 -1,1 -1,0 -1,1 -1,1 -1,1 -1,0 -1,1 -1,1Z"/>
<path onmouseover="hoverPath(evt)" onmouseout="recoverPath(evt)" fill="rgb(241,239,228)" d="M  0,245l 0,10 17,0 0,-3 1,-1 0,-3 -1,-1 0,-3 -1,-1 -16,0Z"/>
<path onmouseover="hoverPath(evt)" onmouseout="recoverPath(evt)" fill="rgb(233,234,203)" d="M  25,244l 0,0 -1,1 0,10 77,0 0,-3 2,-2 -1,-1 -1,0 -1,-1 0,-2 2,-2 0,-1 -1,0 -1,-1 -20,0 -1,1 -1,0 0,1 1,0 1,1 0,2 -1,1 -1,0 -1,1 -3,0 -1,-1 0,-5 -1,0 -1,-1 -1,1 -15,0 2,1 0,1 1,1 0,2 -1,1 0,1 -1,1 -7,0 -1,-1 -1,-1 0,-6 -21,0 -1,1Z"/>
<path onmouseover="hoverPath(evt)" onmouseout="recoverPath(evt)" fill="rgb(246,244,237)" d="M  141,165l 8,0 1,1 24,0 1,-1 -11,0 -1,-1 0,-4 1,-1 11,0 -11,-1 0,0 -1,-1 0,-3 2,-2 0,0 -1,-1 -1,-1 0,-4 1,-1 1,-1 13,0 1,1 1,0 0,-2 -1,0 0,1 -6,-1 0,0 -1,-1 0,-8 -1,-1 -1,0 -1,-1 -31,0 -1,-1 0,-4 -1,0 0,4 -1,1 -7,0 -1,1 8,0 1,1 0,3 -1,1 -1,1 -17,0 18,1 0,0 1,1 0,2 -1,1 -1,1 0,1 1,0 1,1 0,2 -1,1 -2,2 1,0 1,1 0,0 1,1 0,2 -1,1 -1,1 0,0 1,1 1,1 0,2 -2,2 -1,0 -1,1 -2,0 -1,-1 -10,0 2,1 13,0 1,1 0,4 -1,1 -1,0 -1,1 -4,0 -1,1 1,0 5,-1 10,0 1,1 0,1 1,1 0,5 -1,1 -1,1 -24,0 -1,-1 0,-1 -1,-1 0,-2 -1,1 -1,0 -1,1 -4,0 -1,-1 -3,0 0,1 9,0 1,1 0,4 -1,1 -10,0 11,1 0,5 -1,1 -11,0 8,1 0,0 1,1 0,2 -1,1 -1,0 -1,1 0,2 -1,1 0,3 -1,1 -1,0 -1,1 3,0 1,-1 19,0 1,-1 6,0 1,1 1,1 0,-7 1,-1 1,-1 4,0 0,-6 1,-1 1,-1 3,0 1,-1 24,0 -13,-1 0,-3 1,-1 0,-1 -1,-1 -1,-1 0,-2 1,-1 1,-1 15,0 -13,-1 -15,0 -1,-1 -1,0 -1,-1 0,-1 -2,0 -3,-7 22,18 0,0 -22,-18 -23,11 1,-1 -2,0 0,1 3,-1 -2,1 23,-11 -4,6 -1,-1 0,-4 1,-1 3,0 -3,6 4,-6 -8,-20 0,0 8,20 -3,43 -1,1 -1,1 -1,1 2,0 1,1 0,7 2,0 -1,-1 0,-2 1,-1 1,-1 -1,0 -1,-1 3,1 6,0 -10,-3 0,-3 3,-43 31,-13 0,0 1,1 3,0 -2,-1 -2,0 -31,13Z"/>
<path onmouseover="hoverPath(evt)" onmouseout="recoverPath(evt)" fill="rgb(236,232,217)" d="M  159,173l 6,0 1,1 11,0 1,-1 0,-5 -1,-1 -1,0 -1,1 -26,0 -1,-1 -10,0 0,2 1,1 8,0 1,1 0,1 1,0 1,1Z"/>
<path onmouseover="hoverPath(evt)" onmouseout="recoverPath(evt)" fill="rgb(237,234,220)" d="M  174,133l 0,8 1,1 2,0 0,-14 -15,0 -1,1 -3,0 -1,1 -2,0 -1,-1 -14,0 -1,-1 0,2 15,0 -15,-3 19,3 12,0 1,1 1,0 1,1 1,1Z"/>
<path onmouseover="hoverPath(evt)" onmouseout="recoverPath(evt)" fill="rgb(199,219,164)" d="M  235,148l 0,0 -1,1 -2,0 -1,-1 0,-2 1,-1 1,-1 1,0 0,-3 1,-1 0,-1 2,-2 1,0 1,-1 7,0 1,1 0,1 2,0 1,1 1,1 0,3 1,1 0,3 -1,1 -2,0 -1,1 -1,1 -5,0 -1,-1 -4,0 -1,-1 -1,0 15,5 5,0 0,-26 -12,0 0,1 -1,1 -8,0 -1,-1 0,-1 -6,0 -1,1 0,7 1,1 0,17 1,1 0,4 1,1 2,0 1,1 1,0 1,-1 3,0 1,1 0,2 3,-3 1,0 1,-1 1,-1 1,-1 1,0 1,-1 1,-1 1,0 1,-1 -15,-5Z"/>
<path onmouseover="hoverPath(evt)" onmouseout="recoverPath(evt)" fill="rgb(243,241,233)" d="M  3,130l 0,0 -1,1 -2,0 0,16 15,0 1,1 34,0 1,1 0,21 1,1 18,0 1,-1 1,0 0,-26 -1,-1 0,-3 1,-1 -1,-1 0,-7 -1,0 -1,-1 0,-1 -35,0 -1,-1 -20,0 -1,-1 -1,0 -1,-1 0,-1 -3,0 -1,1 0,1 -1,1 -2,2Z"/>
<path onmouseover="hoverPath(evt)" onmouseout="recoverPath(evt)" fill="rgb(241,239,229)" d="M  17,166l 0,-12 -1,-1 0,-1 -3,0 -1,-1 -12,0 0,20 16,0 1,-1Z"/>
<path onmouseover="hoverPath(evt)" onmouseout="recoverPath(evt)" fill="rgb(241,239,229)" d="M  26,38l 8,0 1,1 2,0 1,-1 1,0 0,-7 1,-1 -1,-1 0,-1 -3,0 -1,-1 -2,0 -1,-1 -5,0 -1,-1 -2,0 -1,-1 -3,0 -1,-1 -3,0 -1,-1 -3,0 -1,-1 -2,0 -1,-1 -4,0 -1,-1 -3,0 0,21 1,0 1,-1 7,0 1,-1Z"/>
<path onmouseover="hoverPath(evt)" onmouseout="recoverPath(evt)" fill="rgb(234,231,213)" d="M  28,47l 0,0 1,1 1,0 1,1 1,1 1,1 0,4 -1,1 0,1 -1,1 -1,0 -1,1 -29,0 0,2 3,0 1,1 1,0 1,-1 0,0 1,-1 21,-13 -17,0 -1,1 -5,0 -1,-1 0,-3 1,0 22,3 1,0 0,-3 -2,0 -1,-1 -12,0 -1,1 16,0 0,3 1,-3 9,0 1,1 -10,-1 -1,3 3,13 1,1 1,1 1,0 1,1 2,0 1,-1 0,-8 1,-1 0,-5 -8,12 -3,-13Z"/>
<path onmouseover="hoverPath(evt)" onmouseout="recoverPath(evt)" fill="rgb(238,236,226)" d="M  46,46l -2,0 0,10 -1,1 0,16 -1,1 0,5 -1,1 -3,0 -1,-1 0,4 -1,1 0,2 1,0 1,1 0,8 1,0 0,-2 1,-1 2,0 1,1 5,0 0,-4 1,-1 10,0 0,-1 1,-1 1,0 -2,-1 0,-5 -1,0 -1,-1 0,-22 1,-1 2,0 0,-9 -1,0 -1,-1Z"/>
<path onmouseover="hoverPath(evt)" onmouseout="recoverPath(evt)" fill="rgb(253,253,253)" d="M  74,206l 0,8 1,1 0,-8 -1,-1 0,-52 1,-1 0,-9 1,-1 18,0 1,-1 -19,0 -1,-1 -1,-1 0,-12 -1,0 0,14 1,1 0,63 -3,-33 -20,0 -1,-1 -1,-1 0,-21 -34,0 -1,-1 -14,0 14,1 4,1 0,1 1,1 0,18 -1,1 -1,1 5,0 1,1 0,14 1,1 0,-15 1,-1 18,0 1,1 0,1 1,1 0,-1 1,-1 1,0 1,-1 2,0 -2,-2 0,0 -1,1 -26,0 -1,-1 0,-19 1,-1 26,0 1,1 0,18 23,3 3,33Z"/>
<path onmouseover="hoverPath(evt)" onmouseout="recoverPath(evt)" fill="rgb(240,238,225)" d="M  80,221l 0,0 -1,1 0,11 1,0 1,1 9,0 1,-1 5,0 1,1 1,1 1,1 0,1 56,0 0,-1 1,-1 0,-8 -1,0 -1,-1 -3,0 -1,-1 0,-2 -1,0 -1,-1 -7,0 -1,-1 -3,0 -1,-1 0,-7 -14,0 -1,-1 0,-2 1,-1 12,0 1,-1 1,-1 -1,-1 -4,0 -1,1 -19,0 -1,1 -6,0 -1,-1 0,-2 1,-1 1,0 1,-1 1,0 0,-3 1,-1 0,-2 1,-1 1,-1 1,0 -1,-1 -7,0 -1,-1 0,-2 1,-1 11,0 0,-3 -10,0 -1,-1 0,-2 1,-1 10,0 0,-2 -9,0 -1,-1 0,-3 1,-1 5,0 1,1 2,0 1,-1 1,0 0,-2 1,-1 5,0 1,1 0,2 -1,1 -1,0 -1,1 1,1 0,1 22,0 1,-1 0,-3 -1,-1 0,-1 -12,0 -1,1 -4,0 -1,-1 0,-2 1,-1 1,0 1,-1 4,0 1,-1 1,0 0,-2 -13,0 -1,-1 -1,0 -1,-1 0,-2 1,-1 12,0 1,1 1,-1 1,0 1,-1 -1,-1 -18,0 -1,-1 0,-2 1,-1 18,0 1,-1 -1,-1 -18,0 -1,-1 0,-2 1,-1 17,0 1,-1 1,-1 -1,0 -1,-1 -17,0 -1,-1 0,-2 -1,0 0,10 -1,1 -36,0 0,48 2,0 1,1 13,0 1,1 0,2 -1,1 -15,0 0,7 1,0 1,1 15,0 1,1 0,2 -1,1 -13,0 -1,1Z"/>
<path onmouseover="hoverPath(evt)" onmouseout="recoverPath(evt)" fill="rgb(236,232,218)" d="M  88,109l 0,0 -1,-1 0,-1 -12,0 -1,1 0,1 1,0 1,1 10,0 1,1 0,4 -1,1 48,0 0,-1 -1,-1 -40,0 -1,-1 0,-2 1,-1 13,0 1,-1 0,-2 -1,0 -1,-1 -1,0 -1,1 -11,0 -1,1 -1,1Z"/>
<path onmouseover="hoverPath(evt)" onmouseout="recoverPath(evt)" fill="rgb(234,232,208)" d="M  143,246l 1,0 1,1 5,0 1,1 0,2 -1,1 -8,0 -1,-1 -10,0 -1,-1 -22,0 -1,1 0,1 1,1 0,3 69,0 0,-12 -1,-1 -16,0 -1,1 -2,0 -1,-1 -48,0 -1,1 0,1 1,0 1,1 29,0 1,1Z"/>
<path onmouseover="hoverPath(evt)" onmouseout="recoverPath(evt)" fill="rgb(239,237,225)" d="M  149,46l 0,7 1,1 0,2 1,1 1,0 1,1 0,25 1,0 1,1 3,0 1,-1 2,0 1,-1 1,0 0,-8 -1,-1 0,-2 -1,-1 0,-3 1,-1 2,0 1,1 0,1 1,1 5,0 1,1 0,2 -1,1 -2,0 -1,1 -1,0 0,7 1,1 5,0 1,-1 3,0 0,-37 -29,0 1,1Z"/>
<path onmouseover="hoverPath(evt)" onmouseout="recoverPath(evt)" fill="rgb(231,225,193)" d="M  167,150l 8,0 1,1 1,0 1,1 0,2 -1,1 -5,0 -1,-1 -5,0 -1,1 0,1 1,1 10,0 1,1 0,2 -1,1 -11,0 0,2 13,0 1,-1 0,0 1,-1 0,-1 -1,-1 0,-8 1,-1 0,-3 -2,0 -1,-1 -11,0 -1,1 0,2 1,1Z"/>
<path onmouseover="hoverPath(evt)" onmouseout="recoverPath(evt)" fill="rgb(239,236,224)" d="M  172,86l -3,0 -1,1 -3,0 0,1 -1,1 1,1 0,1 10,0 1,1 0,2 -1,1 -9,0 -1,1 -1,0 0,7 3,0 1,1 5,0 1,1 1,1 0,4 -1,1 0,1 -1,1 -1,0 -1,1 -33,0 0,2 39,0 0,-31 -2,0 -1,1Z"/>
<path onmouseover="hoverPath(evt)" onmouseout="recoverPath(evt)" fill="rgb(242,240,230)" d="M  200,182l -1,0 -1,-1 -2,0 -1,-1 0,-9 -6,0 0,1 -1,1 0,8 1,1 0,10 -1,1 0,0 1,1 5,0 1,-1 6,0 1,1 1,-1 0,-1 1,-1 0,-8 -1,-1Z"/>
<path onmouseover="hoverPath(evt)" onmouseout="recoverPath(evt)" fill="rgb(242,240,231)" d="M  237,6l 0,17 -1,1 0,14 1,1 18,0 0,-35 -14,0 -1,-1 -1,0 -1,1 -1,0Z"/>
<path onmouseover="hoverPath(evt)" onmouseout="recoverPath(evt)" fill="rgb(205,219,239)" d="M  237,141l -1,1 0,3 -1,1 2,0 1,1 4,0 1,1 3,0 1,-1 1,-1 2,0 0,-1 -1,-1 0,-3 -1,-1 -2,0 -1,-1 0,-1 -5,0 -1,1 -1,0 -1,1Z"/>
<path onmouseover="hoverPath(evt)" onmouseout="recoverPath(evt)" fill="rgb(243,240,231)" d="M  0,47l 0,10 28,0 1,-1 1,0 0,-1 1,-1 0,-2 -1,-1 0,0 -1,-1 -1,0 -1,-1 -15,0 -1,1 -8,0 -1,-1 0,-4 -2,0Z"/>
<path onmouseover="hoverPath(evt)" onmouseout="recoverPath(evt)" fill="rgb(236,232,217)" d="M  24,71l -15,0 -1,-1 -1,-1 -1,-1 0,-1 -2,0 -1,-1 -3,0 0,7 25,0 1,1 2,0 1,-1 5,0 1,1 1,0 1,-1 0,-5 -1,-1 -1,0 -1,1 -1,0 0,1 -1,1 -1,0 -1,1Z"/>
<path onmouseover="hoverPath(evt)" onmouseout="recoverPath(evt)" fill="rgb(234,232,222)" d="M  24,94l 0,0 -1,1 -2,0 -1,-1 0,-8 -20,0 0,27 3,0 1,1 0,1 1,1 0,-1 1,-1 5,0 1,1 12,0 1,1 8,0 0,-3 -1,-1 0,-9 1,-1 3,0 -2,-1 0,-8 -1,0 -1,-1 0,-2 -5,0 0,1 -1,1 -1,0 -1,1Z"/>
<path onmouseover="hoverPath(evt)" onmouseout="recoverPath(evt)" fill="rgb(242,241,232)" d="M  37,214l 0,0 -1,1 0,11 1,1 0,10 1,0 1,1 11,0 1,-1 20,0 0,-1 1,-1 3,0 0,-15 -1,-1 0,-1 -1,-1 0,-1 -1,-1 0,-39 -1,-1 -22,0 -1,1 -1,0 0,31 -1,1 -2,0 0,1 -1,1 0,2 -1,1 -4,0 -1,1Z"/>
<path onmouseover="hoverPath(evt)" onmouseout="recoverPath(evt)" fill="rgb(241,240,231)" d="M  44,95l -2,0 -1,-1 0,2 -1,1 -3,0 -1,-1 0,-8 -1,0 -1,-1 0,-4 1,-1 0,-4 -9,0 0,1 -1,1 0,8 8,0 1,1 0,2 1,0 -1,-3 10,7 -8,2 0,3 1,0 1,1 0,2 -1,1 -3,0 0,7 1,1 0,4 1,-4 2,0 0,-1 1,-1 2,0 1,1 0,5 28,0 0,-27 -1,-1 -8,0 0,1 -1,1 -10,0 0,4 -1,1 -4,0 -9,2 8,-2Z"/>
<path onmouseover="hoverPath(evt)" onmouseout="recoverPath(evt)" fill="rgb(238,235,223)" d="M  102,95l 2,0 1,-1 3,0 1,-1 1,-1 0,-3 -1,-1 -34,0 -1,1 0,6 1,1 12,0 1,-1Z"/>
<path onmouseover="hoverPath(evt)" onmouseout="recoverPath(evt)" fill="rgb(236,232,218)" d="M  151,207l -2,0 -1,-1 -1,-1 -1,0 -1,-1 0,-2 -1,-1 -1,-1 0,-1 -2,0 -1,1 0,11 1,1 7,0 1,-1 0,0 1,-1 1,-1 3,0 1,1 1,1 8,0 0,-1 -5,0 -1,-1 0,-3 1,-1 5,0 0,-1 -1,-1 -7,0 -1,1 -3,0 0,2 -1,1Z"/>
<path onmouseover="hoverPath(evt)" onmouseout="recoverPath(evt)" fill="rgb(238,235,220)" d="M  156,199l 6,0 0,-4 1,-1 2,0 1,1 1,1 0,2 1,1 0,5 1,1 0,13 -1,1 0,1 -1,1 -2,0 -1,-1 0,-4 -1,-1 -7,0 -1,1 0,2 6,0 1,1 0,2 -1,1 -2,0 1,1 0,4 1,1 0,2 -1,1 0,3 1,1 0,2 6,0 1,-1 2,0 1,-1 3,0 1,1 0,-25 1,-1 0,-32 -13,0 -1,1 0,0 1,1 0,0 1,1 11,0 -19,18 19,-14 -12,0 0,1 11,0 1,-1 -19,14 18,-9 -23,0 -1,1 -3,0 -1,1 0,5 1,1 0,0 1,1 1,0 1,1 2,0 1,-1 1,0 20,-9 -18,9Z"/>
<path onmouseover="hoverPath(evt)" onmouseout="recoverPath(evt)" fill="rgb(249,248,244)" d="M  171,111l 1,0 0,-1 1,-1 0,-2 -1,-1 -5,0 -1,-1 -3,0 -1,-1 0,-9 1,-1 1,0 1,-1 -1,0 -1,-1 0,-1 -1,-1 0,-2 1,-1 0,-1 1,-1 3,0 1,-1 -1,0 -1,-1 -1,-1 0,-9 1,-1 1,0 1,-1 -3,0 -1,-1 -1,-1 0,-1 1,3 0,1 1,0 0,11 -1,1 -1,0 -1,1 -2,0 0,1 1,0 1,1 1,-2 0,0 8,26 -10,-8 0,1 -1,1 -6,0 -1,-1 -1,-1 -1,0 -1,1 -1,0 -1,1 -4,0 -1,-1 -5,0 -1,-1 -1,-1 -1,0 0,1 -1,1 -24,0 -1,-1 -1,0 -1,-1 0,-5 1,-1 -2,0 -1,1 -16,0 -1,1 -14,0 -1,-1 -1,-1 0,22 1,-5 1,-1 11,0 -11,-1 -1,0 0,-5 1,-1 14,0 1,1 1,0 1,-1 11,0 1,-1 3,0 1,1 1,0 1,1 0,4 -1,1 -1,1 27,0 1,1 1,1 0,-1 1,-1 33,0 -9,-9 10,8 -43,0 8,-1 -1,1 36,0 -60,-6 24,0 1,1 0,2 -25,-3 60,6 -35,-10 0,-3 1,-1 0,-1 1,-1 9,0 -10,-1 -1,-1 0,-4 1,-1 1,-1 1,-1 -4,0 1,1 0,1 4,-2 6,0 -10,8 0,3 1,-2 -1,6 35,10 -10,-18 -1,0 -1,1 1,0 1,-1 10,18 -99,-23 1,-1 1,-1 36,0 1,1 1,1 0,0 1,-1 1,0 1,-1 -4,0 1,1 0,5 -11,-7 -1,0 -1,-1 0,-31 -1,31 0,1 -17,0 0,-1 -1,-1 0,-9 1,-1 0,-3 -1,0 0,14 -1,1 -6,1 -10,0 8,1 1,1 99,23Z"/>
<path onmouseover="hoverPath(evt)" onmouseout="recoverPath(evt)" fill="rgb(207,219,185)" d="M  178,239l 0,2 1,1 0,13 7,0 0,-13 -1,-1 0,-3 1,-1 0,-9 1,-1 0,-2 1,-1 -2,0 -1,-1 -1,1 -1,0 0,2 -1,1 -3,0 -1,-1 0,-5 1,-1 0,-7 -1,-1 0,-33 -1,33 0,24 1,1Z"/>
<path onmouseover="hoverPath(evt)" onmouseout="recoverPath(evt)" fill="rgb(243,241,233)" d="M  190,71l 0,23 5,0 1,-1 7,0 1,1 1,0 1,1 1,0 1,-1 1,-1 12,0 1,1 0,1 2,0 1,1 0,20 30,0 0,-69 -8,0 0,2 -1,1 -2,0 0,4 -1,1 0,1 -1,1 -1,1 -1,1 -2,0 -1,-1 0,-2 1,-1 1,-1 1,-1 0,-6 1,-1 0,-2 -25,0 -1,1 0,12 1,1 0,2 -1,1 -2,0 -1,-1 0,-1 -1,-1 0,-10 -1,-1 0,-3 -20,0 0,20 2,0 1,1 0,3 -1,1 -2,0Z"/>
<path onmouseover="hoverPath(evt)" onmouseout="recoverPath(evt)" fill="rgb(242,240,230)" d="M  208,97l -3,0 -1,-1 -1,0 -1,-1 -5,0 -1,1 -1,0 0,1 -1,1 -5,0 0,1 1,1 0,16 18,0 1,1 2,0 1,-1 9,0 1,1 1,0 0,-20 -2,0 -1,-1 0,-1 -10,0 -1,1 -1,1Z"/>
</svg>