<svg width="256" height="256" xmlns="http://www.w3.org/2000/svg"><script> 
var tempColor;
function hoverPath(evt){
obj = evt.target;
tempColor = obj.getAttribute("fill");
obj.setAttribute("fill","red");
//alert(tempColor);
//obj.setAttribute("stroke","red");}
function recoverPath(evt){
obj = evt.target;
obj.setAttribute("fill", tempColor);
//obj.setAttribute("stroke", tempColor);
}</script><path onmouseover="hoverPath(evt)" onmouseout="recoverPath(evt)" fill="rgb(243,242,234)" d="M  0,152l 0,13 5,0 1,1 2,0 1,1 2,0 1,1 2,0 1,1 2,0 1,1 2,0 1,1 1,0 1,1 2,0 1,1 2,0 1,1 2,0 1,1 2,0 1,1 2,0 1,1 1,0 1,1 2,0 1,1 2,0 1,1 2,0 1,1 2,0 1,1 2,0 1,1 2,0 1,1 1,0 1,1 2,0 1,1 2,0 1,1 2,0 1,1 3,0 1,1 2,0 1,1 1,0 1,1 3,0 1,1 2,0 1,1 2,0 1,1 2,0 1,1 2,0 1,1 2,0 1,1 2,0 1,1 2,0 1,1 2,0 1,1 1,0 1,1 2,0 1,1 1,0 1,1 1,0 1,1 2,0 1,1 1,0 1,1 2,0 1,1 1,0 1,1 2,0 1,1 1,0 1,1 1,0 1,1 0,-5 1,-1 0,-4 1,-1 0,-4 1,-1 0,-4 1,-1 0,-4 1,-1 0,-4 1,-1 0,-4 1,-1 0,-4 1,-1 0,-3 1,-1 0,-4 1,-1 0,-4 1,-1 0,-4 1,-1 0,-4 1,-1 0,-4 1,-1 0,-4 1,-1 0,-4 1,-1 0,-1 -1,-1 0,-2 1,-1 1,0 0,-1 1,-1 1,-1 -1,-1 0,-5 1,-1 0,-4 1,-1 0,-3 -1,1 0,0 -1,1 -1,0 -1,1 -1,0 -1,1 -1,0 -1,1 -1,1 -1,0 -1,1 -4,0 -1,-1 -1,-1 -1,-1 -1,-1 0,-1 -1,-1 0,-1 -1,-1 0,-1 -1,-1 0,-2 1,-1 -1,-1 -1,-1 -1,-1 -1,-1 0,-1 -3,0 -1,-1 -1,-1 -3,0 -1,1 -2,0 -1,-1 0,-2 1,-1 1,0 1,-1 1,0 0,-1 -1,-1 0,-1 -1,-1 0,-1 -1,-1 -1,-1 0,-6 -1,-1 0,-1 -19,0 -1,-1 -1,1 -7,0 -1,1 -4,0 -1,1 -2,0 -1,1 -2,0 -1,1 -2,0 -1,1 -2,0 -1,1 -3,0 -1,1 -3,0 -1,-1 -1,-1 0,-2 -3,0 -1,-1 -1,0 -1,-1 -1,0 -1,-1 -1,-1 -1,0 -1,-1 -1,-1 -4,0 -1,1 -1,0 0,4 1,1 0,1 1,1 0,3 -1,1 -4,0 -1,1 -3,0 -1,1 -1,0 -1,1 -1,1 -2,0 -1,1 -3,0 1,1 0,3 -1,1 -1,1 -13,0 -1,1 0,4 -1,1 0,5 -1,1 0,2 -1,1 -1,1 -2,0 -1,-1 0,-6 1,-1 0,-4 1,-1 0,-5 1,-1 0,-4 1,-1 0,-5 1,-1 0,-5 1,-1 0,-2 -1,-1 -7,0 0,79 15,-13 0,-1 1,-1 2,0 1,1 0,2 -1,1 -2,0 -1,-1 0,-1 -15,13 24,-1 -1,-1 0,-2 1,-1 2,0 1,1 0,2 -1,1 -2,0 -24,1Z"/>
<path onmouseover="hoverPath(evt)" onmouseout="recoverPath(evt)" fill="rgb(242,241,233)" d="M  14,72l 0,1 -1,1 0,5 -1,1 0,5 -1,1 0,4 2,0 1,1 7,0 1,-1 0,-1 1,-1 3,0 1,-1 2,0 1,-1 1,-1 1,0 1,-1 3,0 1,-1 4,0 0,-1 -1,-1 0,-1 -1,-1 0,-6 1,-1 1,0 1,-1 6,0 1,1 1,1 1,0 1,1 1,1 1,0 1,1 1,0 1,1 3,0 1,1 1,0 1,-1 2,0 1,-1 1,0 1,-1 3,0 1,-1 2,0 1,-1 3,0 1,-1 2,0 1,-1 4,0 1,-1 0,-1 -3,0 -1,-1 -1,-1 0,-3 -4,0 -1,-1 0,-3 1,-1 0,-3 -1,-1 0,-1 -1,-1 0,-2 -1,-1 0,-5 -1,-1 0,2 -1,1 -2,0 -1,-1 0,-4 1,-1 1,-1 5,0 0,-1 -1,-1 0,-2 1,-1 4,0 0,-2 1,-1 3,0 1,1 3,0 0,-4 1,-1 2,0 0,-1 1,-1 0,-1 1,-1 1,-1 6,0 0,-5 1,-1 1,-1 1,-1 1,0 0,-1 1,-1 1,-1 1,0 0,-1 1,-1 -1,0 -1,-1 -6,0 -1,-1 -7,0 -1,-1 -6,0 -1,-1 -6,0 -1,-1 -6,0 -1,-1 -7,0 -1,-1 -3,0 0,5 -1,1 -1,1 -2,0 -1,-1 0,-3 1,-1 0,-5 -30,0 0,4 -1,1 0,5 -1,1 0,4 -1,1 0,4 -1,1 0,5 -1,1 0,4 -1,1 0,5 -1,1 0,5 -1,1 0,5 -1,1 0,5 -1,1 0,5 -1,1 0,3 16,0 1,1 0,2 -1,1 -15,0 -1,1 -1,0Z"/>
<path onmouseover="hoverPath(evt)" onmouseout="recoverPath(evt)" fill="rgb(243,242,234)" d="M  172,72l 0,2 -1,1 0,4 -1,1 0,4 -1,1 0,4 1,0 1,1 7,0 1,1 6,0 1,1 6,0 1,1 6,0 1,1 8,0 1,1 4,0 1,1 7,0 1,1 5,0 0,-3 1,-1 0,-7 1,-1 0,-8 -2,0 -1,-1 -3,0 -1,-1 -6,0 -1,-1 -6,0 -1,-1 0,-2 -4,0 -1,1 -8,0 -1,-1 -7,0 -1,-1 -9,0 -1,-1 -4,0Z"/>
<path onmouseover="hoverPath(evt)" onmouseout="recoverPath(evt)" fill="rgb(247,236,140)" d="M  0,169l 0,8 4,0 1,1 3,0 1,1 2,0 1,1 2,0 1,1 2,0 1,1 1,0 1,1 2,0 1,1 2,0 1,1 2,0 1,1 2,0 1,1 2,0 1,1 2,0 1,1 2,0 1,1 2,0 1,1 1,0 1,1 0,2 1,-1 5,0 1,1 1,0 1,1 2,0 1,1 2,0 1,1 2,0 1,1 2,0 1,1 1,0 1,1 2,0 1,1 3,0 1,1 3,0 1,1 2,0 1,1 2,0 1,1 2,0 1,1 2,0 1,1 2,0 1,1 2,0 1,1 1,0 1,1 2,0 1,1 2,0 1,1 1,0 1,1 2,0 1,1 2,0 1,1 1,0 1,1 1,0 1,1 2,0 1,1 1,0 1,1 1,0 1,1 1,0 1,1 2,0 1,1 1,1 0,5 -1,1 0,7 -1,1 0,5 -1,1 0,4 -1,1 0,5 -1,1 0,1 9,0 0,-4 1,-1 0,-5 1,-1 0,-4 -1,-1 0,-2 1,-1 1,-1 3,0 1,-1 5,0 1,1 4,0 1,1 0,2 1,0 1,1 1,1 1,0 1,1 2,0 1,1 0,1 1,0 1,1 2,0 1,1 1,1 1,0 1,1 1,0 1,1 1,1 1,0 1,1 1,0 1,1 1,1 1,-1 2,0 1,1 0,3 22,0 0,-1 -2,0 -1,-1 -1,0 -1,-1 -1,0 -1,-1 -1,-1 -1,0 -1,-1 -1,-1 -1,0 -1,-1 -1,0 -1,-1 -1,0 -1,-1 -1,-1 -1,0 -1,-1 -1,0 -1,-1 -1,-1 -1,0 -1,-1 -1,0 -1,-1 -1,-1 -1,-1 0,-2 1,-1 -2,3 -3,0 -1,-1 0,-3 1,-1 1,-1 -3,2 -2,0 -1,-1 -1,0 -1,-1 -1,-1 -1,0 -1,-1 -1,0 -1,-1 -1,-1 -1,0 -1,-1 -1,0 -1,-1 -1,-1 -1,0 -1,-1 -1,0 -1,-1 -1,-1 -1,0 -1,-1 -1,0 -1,-1 -1,-1 0,-8 1,-1 0,-4 1,-1 0,-4 1,-1 0,-4 1,-1 0,-4 1,-1 0,-4 1,-1 0,-4 1,-1 0,-4 1,-1 0,-4 1,-1 0,-4 1,-1 0,-4 1,-1 0,-4 1,-1 0,-4 1,-1 0,-4 1,-1 0,-4 1,-1 0,-4 1,-1 0,-4 1,-1 0,-4 1,-1 0,-4 1,-1 0,-4 1,-1 0,-4 1,-1 0,-4 1,-1 0,-4 1,-1 0,-1 1,-1 5,0 1,1 6,0 1,1 6,0 1,1 6,0 1,1 6,0 1,1 5,0 1,1 8,0 1,1 6,0 1,1 2,0 1,1 0,-1 1,-1 3,0 1,1 1,1 6,0 1,1 7,0 1,1 6,0 1,1 2,0 0,-6 -3,0 -1,-1 -2,0 -1,-1 0,-5 -1,4 0,2 -1,1 -3,0 -1,-1 0,-1 -6,0 -1,-1 -3,0 -1,1 -2,0 -1,-1 -1,-1 -6,0 -1,-1 -7,0 -1,-1 -4,0 -1,-1 -8,0 -1,-1 -6,0 -1,-1 -6,0 -1,-1 -6,0 -1,-1 -7,0 -1,-1 -1,0 -1,-1 0,-6 1,-1 0,-4 1,-1 0,-4 1,-1 0,-5 1,-1 0,-3 1,-1 0,-4 1,-1 0,-5 1,-1 0,-4 1,-1 0,-3 1,-1 0,-4 1,-1 0,-4 1,-1 0,-4 1,-1 0,-4 1,-1 0,-4 1,-1 5,0 1,1 7,0 1,1 6,0 1,1 6,0 1,1 6,0 1,1 6,0 1,1 6,0 1,1 5,0 1,1 1,0 0,-1 1,-1 2,0 1,1 1,1 4,0 1,1 6,0 1,1 1,0 0,-6 -4,0 -1,-1 -5,0 -1,-1 -4,0 -1,-1 -10,0 -1,-1 -6,0 -1,-1 -6,0 -1,-1 -6,0 -1,-1 -7,0 -1,-1 -6,0 -1,-1 -6,0 -1,-1 -2,0 -1,-1 0,-3 1,-1 0,-3 -1,-1 0,-3 -7,0 0,4 -1,1 0,4 -1,1 -7,0 -1,-1 -7,0 -1,-1 -6,0 -1,-1 -6,0 -1,-1 -6,0 -1,-1 -7,0 -1,-1 -8,0 -1,-1 -2,0 -1,1 -2,0 -1,-1 -1,-1 0,-2 -54,0 0,6 -1,1 0,1 1,-1 1,-6 5,0 1,1 7,0 1,1 6,0 1,1 6,0 1,1 6,0 1,1 7,0 1,1 6,0 1,1 6,0 1,1 8,0 1,1 5,0 1,1 6,0 1,1 6,0 1,1 6,0 1,1 7,0 1,1 6,0 1,1 4,0 1,1 0,3 -1,1 0,4 -1,1 0,5 -1,1 0,4 -1,1 0,4 -1,1 0,4 -1,1 0,4 -1,1 0,4 -1,1 0,4 -1,1 0,3 -1,1 0,4 1,1 0,2 -1,1 0,3 -1,1 -1,0 0,4 -1,1 0,4 -1,1 0,2 -1,1 0,1 1,1 0,5 -1,1 0,5 -1,1 0,2 -1,1 -1,0 0,4 -1,1 0,4 -1,1 0,3 1,1 0,2 -1,1 -1,1 0,1 -1,1 0,4 -1,1 0,4 -1,1 0,4 -1,1 0,4 -1,1 0,4 -1,1 0,4 -1,1 0,4 -1,1 0,4 -1,1 0,3 -1,1 0,4 -1,1 0,4 -1,1 0,4 -1,1 0,4 -1,1 0,4 -1,1 0,4 -1,1 0,4 -1,1 0,5 -1,1 -2,0 -1,-1 -1,0 -1,-1 -1,0 -1,-1 -2,0 -1,-1 -1,0 -1,-1 -2,0 -1,-1 -1,0 -1,-1 -2,0 -1,-1 -1,0 -1,-1 -1,0 -1,-1 -2,0 -1,-1 -1,0 -1,-1 -2,0 -1,-1 -2,0 -1,-1 -2,0 -1,-1 -2,0 -1,-1 -2,0 -1,-1 -2,0 -1,-1 -2,0 -1,-1 -2,0 -1,-1 -3,0 -1,-1 -1,0 -1,-1 -2,0 -1,-1 -3,0 -1,-1 -2,0 -1,-1 -2,0 -1,-1 -2,0 -1,-1 -1,0 -1,-1 -2,0 -1,-1 -2,0 -1,-1 -2,0 -1,-1 -2,0 -1,-1 -2,0 -1,-1 -2,0 -1,-1 -1,0 -1,-1 -2,0 -1,-1 -2,0 -1,-1 -2,0 -1,-1 -2,0 -1,-1 -2,0 -1,-1 -1,0 -1,-1 -2,0 -1,-1 -2,0 -1,-1 -2,0 -1,-1 -2,0 -1,-1 -2,0 -1,-1 -4,0 0,2 172,-102 0,0 -172,102 129,60 -129,-60Z"/>
<path onmouseover="hoverPath(evt)" onmouseout="recoverPath(evt)" fill="rgb(244,243,236)" d="M  119,1l 1,0 1,1 8,0 1,1 7,0 1,1 6,0 1,1 6,0 1,1 6,0 1,1 7,0 1,1 5,0 0,-4 1,-1 0,-3 -53,0 -1,1 -1,-1 -4,0 0,1 1,1 0,0 1,-1 1,0 1,-1 1,1Z"/>
<path onmouseover="hoverPath(evt)" onmouseout="recoverPath(evt)" fill="rgb(243,242,234)" d="M  185,0l -1,0 0,2 1,1 0,5 -1,1 0,1 2,0 1,1 6,0 1,1 6,0 1,1 7,0 1,1 6,0 1,1 6,0 1,1 6,0 1,1 10,0 1,1 4,0 1,1 5,0 1,1 3,0 0,-20Z"/>
<path onmouseover="hoverPath(evt)" onmouseout="recoverPath(evt)" fill="rgb(253,253,253)" d="M  117,77l 0,-1 1,-1 1,0 1,-1 7,0 1,1 18,0 1,1 13,0 0,-1 -12,0 -1,-1 -18,0 -1,-1 -8,0 -1,-1 0,-7 1,-1 0,-3 -1,-1 0,0 -1,-1 -1,0 -1,-1 -1,0 -1,-1 -1,-1 0,1 1,1 0,1 1,0 1,1 1,0 1,1 0,9 -1,1 -1,1 -1,1 -14,0 -1,-1 -9,0 -1,-1 -1,-1 0,-2 1,-1 0,-1 1,-1 1,-1 -1,-1 -3,0 -1,1 -3,0 0,2 1,1 4,0 2,-3 0,0 26,13 -28,-6 -2,2 -4,0 -1,1 -2,0 -1,1 -3,0 -1,1 -2,0 -1,1 -3,0 -1,1 -1,0 -1,1 -2,0 -1,1 -2,0 1,1 1,0 1,-1 3,0 1,-1 2,0 1,-1 2,0 1,-1 2,0 1,-1 2,0 1,-1 4,0 1,-1 7,0 1,-1 2,0 1,1 19,0 1,1 0,1 -27,-5 28,6Z"/>
<path onmouseover="hoverPath(evt)" onmouseout="recoverPath(evt)" fill="rgb(254,254,254)" d="M  231,74l -7,0 4,1 2,0 1,-1 2,0 0,-1 1,-1 0,-7 1,-1 0,-6 1,-1 0,-6 1,-1 0,-6 1,-1 0,-7 1,-1 0,-5 1,-1 0,-2 -1,-1 0,1 -1,1 0,7 -1,1 0,6 -1,1 0,6 -1,1 0,7 -1,1 0,6 -1,1 0,5 -1,1 0,1 4,-22 1,-7 -4,31 -2,0 0,12 -1,1 0,7 -1,1 0,3 1,1 0,-4 1,-1 0,-6 1,-1 0,-7 -1,-1Z"/>
<path onmouseover="hoverPath(evt)" onmouseout="recoverPath(evt)" fill="rgb(249,247,243)" d="M  150,99l -1,0 -1,1 -2,0 -1,1 -1,0 0,6 -1,1 -2,0 -1,-1 0,-2 -1,-1 0,-1 -1,1 -2,0 -1,1 -1,0 -1,1 1,1 0,1 1,1 0,1 3,3 2,0 1,-1 1,0 1,-1 1,-1 1,0 1,-1 1,0 1,-1 1,0 1,-1 1,-1 3,0 0,-2 1,-1 0,-5 1,-1 0,-3 -1,-1 -1,0 -1,1 -1,0 0,2 -1,1 0,1 -1,1Z"/>
<path onmouseover="hoverPath(evt)" onmouseout="recoverPath(evt)" fill="rgb(241,239,222)" d="M  18,14l 1,-1 0,-5 1,-1 0,-4 1,-1 0,-2 -21,0 0,45 6,0 1,-1 5,0 1,-1 0,-2 1,-1 0,-4 1,-1 0,-5 1,-1 0,-4 1,-1 0,-5 1,-1Z"/>
<path onmouseover="hoverPath(evt)" onmouseout="recoverPath(evt)" fill="rgb(241,240,230)" d="M  83,60l 0,2 3,0 1,-1 5,0 1,1 1,1 0,2 -1,1 -1,1 0,1 -1,1 1,1 9,0 1,1 12,0 1,-1 0,0 1,-1 0,-7 -1,0 -1,-1 -1,0 -1,-1 0,-1 -1,-1 0,-2 -1,-1 0,-2 1,-1 0,-1 -2,0 -1,-1 0,-2 1,-1 -1,-1 0,-2 -2,0 -1,-1 -1,-1 0,-2 -1,0 -2,2 -1,1 -1,1 -1,0 0,1 -1,1 -1,0 -1,1 -1,1 0,1 -1,1 -1,1 -1,1 0,1 -1,1 -1,1 -1,1 -1,1 -1,1 -1,1 -1,0 -1,1Z"/>
<path onmouseover="hoverPath(evt)" onmouseout="recoverPath(evt)" fill="rgb(253,253,253)" d="M  235,156l 0,-4 1,-1 1,-1 1,-1 0,-1 1,-1 1,-1 -3,2 0,1 -3,5 -5,0 -1,-1 0,1 -1,-1 -1,-1 -1,0 -1,-1 0,-7 1,-1 0,-5 1,-1 0,-7 1,-1 0,-5 1,-1 0,-7 1,-1 0,-8 -1,-1 -1,0 0,5 -1,1 0,6 -1,1 0,7 -1,1 0,6 -1,1 0,5 -1,1 0,7 -1,1 0,7 -1,1 0,4 -1,1 0,1 -1,1 0,2 -1,1 0,1 -1,1 0,1 -1,1 0,1 -1,1 0,1 -1,1 -1,1 0,1 -1,1 -1,1 -1,0 0,2 -1,1 -1,1 0,1 -1,1 -1,1 -1,0 0,2 -2,2 0,1 -1,1 -1,1 0,1 -1,1 -1,1 -1,0 0,2 -2,2 0,1 -2,2 -1,1 -1,1 0,1 -1,1 0,1 -2,2 0,1 -2,2 0,1 -2,2 0,1 -1,1 -1,1 -1,0 0,2 -2,2 0,1 -2,2 0,1 -2,2 0,1 -1,1 -1,1 0,1 -1,1 -1,1 0,1 1,0 0,-1 1,-1 1,-1 0,-1 1,-1 1,-1 1,0 0,-2 1,-1 1,-1 0,-1 1,-1 1,-1 0,-1 1,-1 1,-1 0,-1 1,-1 1,-1 1,0 0,-2 1,-1 1,-1 0,-1 1,-1 1,-1 0,-1 1,-1 1,-1 1,-1 0,-1 1,-1 0,-1 1,-1 1,-1 1,-1 0,-1 1,-1 1,-1 0,-1 1,-1 1,-1 1,-1 0,-1 1,-1 1,-1 1,-1 0,-1 1,-1 1,-1 0,-1 1,-1 1,-1 0,-1 1,-1 1,-1 1,0 0,-2 1,-1 1,-1 1,0 0,-2 1,-1 0,-1 1,-1 1,-1 5,0 -2,-1 0,0 -1,-1 0,-3 1,-1 0,-3 1,-1 0,-1 1,-1 0,-2 1,-1 1,-1 1,0 9,3 -4,-1 0,2 1,-1 2,0 -3,-1 4,1Z"/>
<path onmouseover="hoverPath(evt)" onmouseout="recoverPath(evt)" fill="rgb(240,239,227)" d="M  4,69l 5,0 0,-4 1,-1 0,-4 1,-1 0,-6 1,-1 0,-1 -1,0 -1,-1 -4,0 -1,-1 -5,0 0,20Z"/>
<path onmouseover="hoverPath(evt)" onmouseout="recoverPath(evt)" fill="rgb(240,239,232)" d="M  91,34l 0,0 -1,1 -5,0 -1,-1 -1,0 0,2 -1,1 -4,0 1,1 0,3 -1,1 -5,0 -1,1 0,2 4,-2 0,0 1,1 0,5 1,1 0,2 1,1 0,1 1,1 0,5 -1,1 0,1 2,0 0,-4 1,-1 2,0 1,-1 1,-1 1,-1 1,-1 1,-1 0,-1 3,-3 0,-1 1,-1 1,-1 1,-1 1,0 0,-1 1,-1 1,0 1,-1 1,-1 1,-1 1,-1 3,0 1,1 0,2 1,1 2,0 1,1 0,2 1,1 0,2 -1,1 2,0 1,1 0,2 1,1 0,1 1,1 1,1 1,0 1,1 1,0 1,1 1,1 1,1 0,5 -1,1 0,5 8,0 1,1 18,0 1,1 11,0 1,-1 0,0 -1,-1 0,-6 1,-1 0,-3 1,-1 0,-4 1,-1 0,-4 1,-1 0,-4 1,-1 0,-4 1,-1 0,-4 1,-1 0,-4 1,-1 0,-5 1,-1 0,-4 1,-1 0,-1 -4,0 -1,-1 -6,0 -1,-1 -7,0 -1,-1 -6,0 -1,-1 -6,0 -1,-1 -6,0 -1,-1 -5,0 -1,-1 -8,0 -1,-1 -3,0 0,1 -1,1 0,1 -1,1 -1,0 -1,1 0,1 -1,1 -1,0 -1,1 -1,1 0,5 -1,1 -6,0 -1,1 0,1 -1,1 0,1 -1,1 -2,0Z"/>
<path onmouseover="hoverPath(evt)" onmouseout="recoverPath(evt)" fill="rgb(248,246,241)" d="M  106,253l 0,-2 1,-1 1,-1 1,0 0,-1 -1,0 -1,-1 0,-1 -1,-1 0,-3 -12,0 -1,-1 -1,-1 0,-4 -1,2 0,0 -1,1 -1,1 -9,0 0,1 -1,1 10,-1 3,0 1,1 0,3 -1,1 0,1 -1,1 0,1 -1,1 0,1 -1,1 -1,1 -10,0 0,2 28,0Z"/>
<path onmouseover="hoverPath(evt)" onmouseout="recoverPath(evt)" fill="rgb(244,243,235)" d="M  182,21l 0,3 -1,1 0,4 -1,1 0,4 -1,1 0,4 -1,1 0,4 -1,1 0,3 -1,1 0,4 -1,1 0,5 -1,1 0,4 -1,1 4,0 1,1 0,2 9,0 1,1 7,0 1,1 6,0 1,-1 6,0 1,1 0,2 6,0 1,1 5,0 1,-1 7,0 0,-2 1,-1 0,-5 1,-1 0,-6 1,-1 0,-7 1,-1 0,-6 1,-1 0,-6 1,-1 0,-6 -1,0 -1,-1 -5,0 -1,-1 -6,0 -1,-1 -6,0 -1,-1 -6,0 -1,-1 -6,0 -1,-1 -6,0 -1,-1 -7,0 -1,-1 -2,0 -1,1Z"/>
<path onmouseover="hoverPath(evt)" onmouseout="recoverPath(evt)" fill="rgb(243,241,232)" d="M  218,173l -1,1 0,2 -1,1 -1,0 -1,1 0,2 -1,1 -1,0 -1,1 0,1 -1,1 -1,1 0,1 -1,1 -1,1 0,1 -1,1 -1,1 -1,1 0,1 -1,1 -1,1 -1,1 0,1 -1,1 -1,1 0,1 -1,1 -2,2 0,1 -1,1 0,1 -1,1 -1,1 -1,1 0,1 -1,1 -1,1 0,1 -1,1 -1,1 0,2 -1,1 -1,0 -1,1 0,1 -1,1 -1,1 0,1 -1,1 -1,1 0,1 -1,1 -1,1 0,2 -1,1 -1,0 -1,1 1,1 0,2 -1,1 1,1 1,1 1,0 1,1 1,0 1,1 1,1 1,0 1,1 1,0 1,1 1,1 1,0 1,1 1,0 1,1 1,0 1,1 1,1 1,0 1,1 1,1 1,0 1,1 1,0 1,1 2,0 1,1 0,2 1,0 0,-3 1,-1 0,-1 1,-1 0,-1 1,-1 0,-1 1,-1 0,-1 1,-1 0,-1 1,-1 1,-1 0,-1 2,-2 -2,0 -1,-1 0,-2 1,-1 1,-1 4,0 1,-1 1,-1 1,-1 0,-3 1,-1 0,-1 1,-1 1,-1 5,0 0,-1 1,-1 2,0 0,-3 1,-1 1,0 1,-1 1,-1 5,0 1,1 1,-1 0,0 1,-1 1,0 0,-3 2,-2 2,0 1,1 1,1 1,-1 3,0 0,-85 -1,0 0,1 -1,1 -1,1 0,1 -1,1 -1,1 0,1 -1,1 -1,1 0,1 -1,1 -1,1 0,1 -1,1 -1,1 0,1 -1,1 0,1 -2,2 1,1 0,2 -1,1 -1,1 0,1 -2,2 -1,1 0,1 1,1 0,2 -1,1 -4,0 -1,1 -2,0 -1,-1 0,-2 -2,0 -1,-1 -1,1 0,2 -1,1 0,1 -1,1 0,3 -1,1 0,1 1,1 1,0 1,1 0,2 -1,1 -5,0 -1,1 0,1 18,1 1,-1 2,0 1,1 0,2 -1,1 -2,0 -1,-1 0,-2 -18,-1Z"/>
<path onmouseover="hoverPath(evt)" onmouseout="recoverPath(evt)" fill="rgb(247,200,109)" d="M  223,229l 0,1 -1,1 -1,1 -2,2 -4,0 -1,1 2,0 1,1 0,2 -1,1 -1,1 0,1 -1,1 -1,1 0,1 -1,1 0,1 -1,1 0,1 -1,1 0,1 -1,1 0,1 -1,1 0,2 8,0 0,-2 1,-1 0,-1 1,-1 0,-2 1,-1 1,-1 2,0 1,1 1,-1 0,-2 1,-1 1,0 0,-1 1,-1 1,0 1,-1 1,-1 1,-1 1,-1 0,-1 1,-1 2,0 1,-1 0,-3 1,-1 5,0 1,-1 -1,-1 0,-2 1,-1 1,-1 1,0 1,-1 1,-1 1,0 1,-1 1,0 1,-1 2,0 1,1 1,1 0,-11 -2,0 -1,1 -2,0 -1,-1 -1,-1 -1,1 0,3 -1,1 -1,0 -1,1 -1,1 -2,0 -1,-1 -3,0 -1,1 -1,1 -1,0 0,3 -1,1 -2,0 0,1 -1,1 -5,0 -1,1 0,1 -1,1Z"/>
<path onmouseover="hoverPath(evt)" onmouseout="recoverPath(evt)" fill="rgb(242,241,231)" d="M  233,108l -2,0 0,8 -1,1 0,7 -1,1 0,5 -1,1 0,7 -1,1 0,5 -1,1 0,5 1,0 1,1 1,0 1,1 3,0 0,-1 1,-1 1,-1 0,-2 1,-1 1,0 1,-1 1,-1 0,-1 1,-1 1,-1 0,-1 1,-1 0,-1 1,-1 1,-1 0,-1 1,-1 1,-1 0,-1 1,-1 1,-1 0,-1 1,-1 1,-1 0,-1 1,-1 1,-1 0,-1 1,-1 2,0 0,-11 -3,0 -1,-1 -6,0 -1,-1 -7,0 -1,-1Z"/>
<path onmouseover="hoverPath(evt)" onmouseout="recoverPath(evt)" fill="rgb(243,240,229)" d="M  235,237l -1,0 0,1 -2,2 -1,1 -2,2 -1,0 0,1 -1,1 -1,0 0,2 -1,1 -1,1 -2,0 -1,-1 -1,1 0,2 -1,1 0,1 -1,1 0,1 37,0 0,-31 -1,0 -1,-1 -1,-1 -1,1 -1,0 -1,1 -1,0 -1,1 -1,1 -1,0 -1,1 1,1 0,2 -1,1 -1,1 -5,0 0,3 -2,2Z"/>
<path onmouseover="hoverPath(evt)" onmouseout="recoverPath(evt)" fill="rgb(242,240,231)" d="M  243,28l -1,0 0,2 -1,1 0,5 -1,1 0,7 -1,1 0,6 -1,1 0,6 -1,1 0,6 -1,1 0,7 -1,1 0,6 -1,1 0,7 -1,1 0,6 -1,1 0,2 4,0 1,1 6,0 1,1 0,1 1,0 0,-2 1,-1 0,-3 1,-1 2,0 1,1 0,5 2,0 1,1 2,0 0,-71 -2,0 -1,-1 -6,0 -1,-1Z"/>
<path onmouseover="hoverPath(evt)" onmouseout="recoverPath(evt)" fill="rgb(243,242,233)" d="M  0,214l 0,27 3,0 1,1 7,0 1,1 11,0 1,-1 1,-1 0,-2 1,-1 1,-1 0,-1 -1,-1 0,-2 1,-1 0,-1 1,-1 0,-2 1,-1 0,-1 1,-1 0,-1 1,-1 2,0 -1,-1 0,-2 1,-1 0,-1 1,-1 0,-2 1,-1 0,-1 1,-1 0,-1 1,-1 0,-1 1,-1 0,-1 1,-1 0,-1 1,-1 0,-3 1,-1 1,-1 0,-1 1,-1 2,0 0,-1 -1,-1 0,-2 -1,0 -1,-1 -2,0 -1,-1 -2,0 -1,-1 -2,0 -1,-1 -2,0 -1,-1 -2,0 -1,-1 -2,0 -1,-1 -2,0 -1,-1 -2,0 -1,-1 -1,0 -1,-1 -2,0 -1,-1 -2,0 -1,-1 -2,0 -1,-1 -3,0 -1,-1 -3,0 0,18 8,0 1,1 7,0 1,1 8,0 1,1 2,0 1,1 1,1 0,6 -1,1 0,3 -1,1 0,1 -1,1 -1,1 -10,0 -1,-1 -5,0 -1,-1 -5,0 -1,-1 -2,0 -1,1Z"/>
<path onmouseover="hoverPath(evt)" onmouseout="recoverPath(evt)" fill="rgb(243,242,234)" d="M  0,246l 0,9 76,0 0,-3 1,-1 10,0 1,-1 0,-1 1,-1 0,-1 1,-1 0,-1 1,-1 0,-1 -3,0 -1,-1 -5,0 -1,1 0,0 -1,1 -2,0 -1,-1 0,-2 1,-1 0,-1 1,-1 9,0 1,-1 1,-1 0,-1 1,-1 2,0 1,1 0,4 1,1 12,0 1,1 0,3 1,1 0,1 1,0 1,1 0,3 -1,1 -1,0 -1,1 0,3 16,0 0,-2 1,-1 0,-5 1,-1 0,-4 1,-1 0,-5 1,-1 0,-4 -1,0 -1,-1 0,-2 1,-1 2,0 0,-3 -1,-1 -2,0 -1,-1 -1,0 -1,-1 -1,0 -1,-1 -1,0 -1,-1 -2,0 -1,-1 -1,0 -1,-1 -1,0 -1,-1 -2,0 -1,-1 -2,0 -1,-1 -1,0 -1,-1 -2,0 -1,-1 -2,0 -1,-1 -1,0 -1,-1 -2,0 -1,-1 -2,0 -1,-1 -2,0 -1,-1 -2,0 -1,-1 -2,0 -1,-1 -2,0 -1,-1 -3,0 -1,-1 -3,0 -1,-1 -2,0 -1,-1 -1,0 -1,-1 -2,0 -1,-1 -2,0 -1,-1 -2,0 -1,-1 -2,0 -1,-1 -1,0 -1,-1 -3,0 -1,1 0,2 -1,1 0,1 -1,1 -2,0 -1,1 0,3 -1,1 1,1 0,2 -1,1 0,1 -1,1 -2,0 0,1 -1,1 0,1 -1,1 0,2 -1,1 1,1 0,2 -1,1 0,1 -1,1 -2,0 0,1 -1,1 0,1 -1,1 0,2 -1,1 1,1 0,2 -1,1 0,2 -1,1 -1,1 0,2 -1,1 -1,1 -1,1 -13,0 -1,-1 -7,0 -1,-1 -2,0Z"/>
<path onmouseover="hoverPath(evt)" onmouseout="recoverPath(evt)" fill="rgb(171,198,238)" d="M  1,199l -1,0 0,12 4,0 1,1 5,0 1,1 5,0 1,1 8,0 1,-1 0,-1 1,-1 0,-3 1,-1 0,-4 -1,-1 -2,0 -1,-1 -8,0 -1,-1 -7,0 -1,-1Z"/>
<path onmouseover="hoverPath(evt)" onmouseout="recoverPath(evt)" fill="rgb(253,253,253)" d="M  6,47l -6,0 7,1 4,0 1,1 1,0 1,1 0,3 -1,1 0,6 -1,1 0,4 -1,1 0,4 -1,1 -10,0 9,1 1,1 0,4 -1,1 0,5 -1,1 0,5 -1,1 0,4 -1,1 0,5 -1,1 0,4 -1,1 0,4 1,-1 0,-2 1,-1 0,-5 1,-1 0,-4 1,-1 1,-1 13,0 1,-1 0,-1 -1,1 -9,0 -1,-1 -2,0 -1,-1 0,-6 1,-1 0,-5 1,-1 0,-5 1,-1 0,-3 1,-1 1,0 1,-1 -1,0 -1,-1 0,-5 1,-1 0,-5 1,-1 0,-5 1,-1 0,-5 1,-1 0,-5 1,-1 0,-5 1,-1 0,-4 1,-1 0,-5 1,-1 0,-4 1,-1 0,-4 1,-1 0,-5 1,-1 0,-3 -1,0 0,3 -1,1 0,4 -1,1 0,5 -1,1 0,4 -1,1 0,5 -1,1 0,4 -1,1 0,5 -1,1 0,4 -1,1 0,2 -1,1 -1,1 -5,0 -1,1Z"/>
<path onmouseover="hoverPath(evt)" onmouseout="recoverPath(evt)" fill="rgb(242,241,231)" d="M  119,79l 0,3 1,1 0,1 1,1 0,2 -1,1 1,1 0,3 -1,1 3,0 1,1 1,1 3,0 1,1 0,1 1,1 1,1 1,1 1,1 0,1 1,1 1,-1 2,0 1,-1 2,0 1,1 0,1 1,1 0,-4 1,-1 1,0 1,-1 2,0 1,-1 1,0 0,-1 1,-1 0,-2 1,-1 1,0 1,-1 2,0 0,-1 1,-1 0,-2 1,-1 0,-4 1,-1 0,-3 -12,0 -1,-1 -18,0 -1,-1 -5,0 -1,1 -1,0Z"/>
<path onmouseover="hoverPath(evt)" onmouseout="recoverPath(evt)" fill="rgb(244,243,235)" d="M  139,239l 0,6 -1,1 0,5 -1,1 0,3 42,0 0,-2 -1,1 -2,0 -1,-1 -1,-1 -1,0 -1,-1 -1,0 -1,-1 -1,-1 -1,0 -1,-1 -1,0 -1,-1 -1,-1 -2,0 -1,-1 -1,0 -1,-1 0,-1 -2,0 -1,-1 -1,0 -1,-1 -1,-1 -1,0 -1,-1 0,-2 -4,0 -1,-1 -3,0 -1,1 -3,0 -1,1 1,1Z"/>
<path onmouseover="hoverPath(evt)" onmouseout="recoverPath(evt)" fill="rgb(244,243,236)" d="M  152,175l 0,0 -1,1 0,4 -1,1 0,4 -1,1 0,4 -1,1 0,4 -1,1 0,4 -1,1 0,4 -1,1 0,4 -1,1 0,6 1,1 1,0 1,1 1,0 1,1 1,1 1,0 1,1 1,0 1,1 1,1 1,0 1,1 1,0 1,1 1,1 1,0 1,1 1,0 1,1 1,1 1,0 1,1 1,0 1,-1 0,0 1,-1 2,0 1,-1 0,-1 1,-1 1,-1 0,-1 1,-1 1,-1 0,-1 1,-1 1,-1 0,-2 1,-1 1,0 1,-1 0,-1 2,-2 0,-1 2,-2 0,-1 1,-1 1,-1 0,-1 1,-1 0,-1 2,-2 1,-1 1,-1 0,-1 1,-1 1,-1 0,-2 1,-1 1,0 1,-1 0,-1 1,-1 1,-1 0,-1 1,-1 1,-1 0,-2 1,-1 1,0 1,-1 0,-1 1,-1 1,-1 0,-2 1,-1 1,0 1,-1 0,-1 1,-1 1,-1 0,-1 1,-1 0,-1 1,-1 0,-1 1,-1 0,-1 1,-1 0,-2 1,-1 0,-1 1,-1 0,-4 1,-1 0,-7 1,-1 0,-7 1,-1 0,-5 1,-1 0,-6 1,-1 0,-7 1,-1 0,-5 -1,-1 0,-4 -2,0 -1,-1 -6,0 -1,-1 -8,0 -1,-1 -5,0 -1,-1 -6,0 -1,-1 -6,0 -1,-1 -6,0 -1,-1 -6,0 -1,-1 -3,0 0,1 -1,1 0,4 -1,1 0,4 -1,1 0,4 -1,1 0,4 -1,1 0,4 -1,1 0,4 -1,1 0,4 -1,1 0,4 -1,1 0,4 -1,1 0,4 -1,1 0,4 -1,1 0,4 -1,1 0,4 -1,1 0,4 -1,1Z"/>
</svg>