<svg width="256" height="256" xmlns="http://www.w3.org/2000/svg"><script> 
var tempColor;
function hoverPath(evt){
obj = evt.target;
tempColor = obj.getAttribute("fill");
obj.setAttribute("fill","red");
//alert(tempColor);
//obj.setAttribute("stroke","red");}
function recoverPath(evt){
obj = evt.target;
obj.setAttribute("fill", tempColor);
//obj.setAttribute("stroke", tempColor);
}</script><path onmouseover="hoverPath(evt)" onmouseout="recoverPath(evt)" fill="rgb(244,243,235)" d="M  0,142l 0,65 1,0 1,-1 10,0 1,-1 10,0 1,-1 11,0 1,-1 16,0 1,-1 17,0 1,-1 14,0 1,-1 12,0 1,-1 10,0 1,-1 9,0 1,-1 8,0 1,-1 10,0 1,-1 11,0 1,-1 11,0 1,-1 8,0 1,-1 9,0 1,-1 9,0 1,-1 8,0 1,-1 9,0 1,-1 10,0 1,-1 9,0 1,-1 9,0 1,-1 7,0 1,-1 4,0 0,-115 -5,0 -1,-1 -5,0 -1,-1 0,-2 -5,0 -1,1 -7,0 -1,-1 -6,0 -1,-1 -5,0 -1,-1 -5,0 -1,-1 0,-2 -4,0 -1,1 -7,0 -1,-1 -6,0 -1,-1 -5,0 -1,-1 -5,0 -1,-1 0,-2 -5,0 -1,1 -8,0 -1,-1 -5,0 -1,-1 -5,0 -1,-1 -4,0 -1,-1 -4,0 0,3 -1,1 0,3 -1,1 0,5 -1,1 0,5 -1,1 0,4 -1,1 0,5 -1,1 0,3 -1,1 0,1 -1,1 -1,0 -1,1 -4,0 -1,-1 -2,0 -1,-1 -2,0 -1,-1 -1,1 -2,0 -1,-1 0,-2 -1,-1 -1,-1 -1,-1 -1,0 -1,-1 -1,-1 -1,0 -1,-1 -1,-1 -1,0 -1,-1 -1,0 -1,-1 -1,0 -1,-1 -1,0 -1,-1 -1,0 -1,-1 -1,0 -1,-1 -1,0 -1,-1 -1,0 -1,-1 -1,1 -2,0 -1,-1 -1,0 -1,-1 0,-2 -1,-1 -1,0 -1,-1 -1,0 -1,-1 -1,0 -1,-1 -1,-1 -1,0 -1,-1 -1,0 -1,-1 -2,0 -1,-1 -1,-1 -1,-1 -1,-1 -1,0 -1,-1 0,-1 -1,-1 -1,-1 -1,-1 -1,-1 -1,0 -1,-1 0,-2 -1,-1 -1,-1 -1,-1 -1,-1 -1,0 -1,-1 0,-2 -1,-1 -1,-1 -1,-1 -1,-1 -1,0 -1,-1 0,-13 1,-1 0,-6 1,-1 0,-5 1,-1 0,-4 1,-1 0,-3 -52,0 0,135 11,0 1,1 16,0 1,1 16,0 1,1 16,0 1,1 12,0 1,1 12,0 1,1 18,0 1,1 15,0 1,1 11,0 1,1 10,0 1,1 0,4 -1,1 -3,0 -1,-1 -9,0 -1,-1 -11,0 -1,-1 -15,0 -1,-1 -17,0 -1,-1 -13,0 -1,-1 -12,0 -1,-1 -17,0 -1,-1 -15,0 -1,-1 -16,0 -1,-1 -8,0Z"/>
<path onmouseover="hoverPath(evt)" onmouseout="recoverPath(evt)" fill="rgb(244,243,235)" d="M  0,214l 0,35 9,0 1,-1 13,0 1,-1 13,0 1,-1 15,0 1,-1 14,0 1,-1 15,0 1,-1 9,0 1,-1 11,0 1,-1 6,0 1,-1 2,0 0,-1 1,-1 0,-3 1,-1 0,-2 1,-1 0,-3 1,-1 0,-5 1,-1 0,-5 1,-1 0,-4 1,-1 0,-5 1,-1 0,-1 -12,0 -1,1 -10,0 -1,1 -12,0 -1,1 -13,0 -1,1 -16,0 -1,1 -17,0 -1,1 -11,0 -1,1 -10,0 -1,1 -9,0 -1,1 -5,0Z"/>
<path onmouseover="hoverPath(evt)" onmouseout="recoverPath(evt)" fill="rgb(252,252,251)" d="M  0,254l 0,1 45,0 0,-2 1,-1 13,0 1,-1 17,0 1,-1 17,0 1,-1 10,0 1,-1 7,0 1,1 0,6 1,-6 0,0 1,-1 2,0 1,-1 13,0 1,-1 14,0 1,-1 14,0 1,-1 14,0 1,-1 14,0 1,-1 11,0 1,-1 10,0 1,-1 3,0 1,-1 3,0 1,1 0,-2 1,-1 2,0 1,-1 2,0 1,-1 2,0 1,1 1,-1 1,0 0,-2 1,-1 1,0 1,-1 1,0 1,-1 2,0 1,-1 2,0 1,-1 4,0 1,-1 2,0 0,-1 -2,0 -1,1 -5,0 -1,1 -3,0 -1,-1 0,2 -1,1 -1,0 -1,1 -1,0 -1,1 -2,0 -1,1 -2,0 -1,-1 0,2 -1,1 -3,0 -1,-1 0,2 -1,1 -2,0 -1,1 -3,0 -1,1 -8,0 -1,1 -10,0 -1,1 -14,0 -1,1 -14,0 -1,1 -14,0 -1,1 -14,0 -1,1 -13,0 -1,1 -5,0 -1,-1 0,-5 -1,2 0,1 -1,1 0,1 -1,1 -4,0 -1,1 -10,0 -1,1 -14,0 -1,1 -20,0 -1,1 -13,0 -1,1 -12,0 -1,1 -15,0 -1,1 -19,0 -1,1Z"/>
<path onmouseover="hoverPath(evt)" onmouseout="recoverPath(evt)" fill="rgb(242,242,232)" d="M  118,250l 0,0 -1,1 0,4 138,0 0,-26 -1,0 -1,1 -4,0 -1,1 -2,0 -1,1 -2,0 -1,1 -1,0 -1,1 -1,0 0,2 -1,1 -1,0 -1,1 -2,0 -1,-1 -1,1 -2,0 -1,1 -2,0 0,2 -1,1 -2,0 -1,-1 -1,0 -1,1 -3,0 -1,1 -10,0 -1,1 -11,0 -1,1 -14,0 -1,1 -14,0 -1,1 -14,0 -1,1 -14,0 -1,1 -13,0 -1,1Z"/>
<path onmouseover="hoverPath(evt)" onmouseout="recoverPath(evt)" fill="rgb(244,243,235)" d="M  129,203l 0,0 -1,1 0,1 -1,1 -2,0 0,5 -1,1 0,4 -1,1 0,5 -1,1 0,5 -1,1 0,3 -1,1 0,2 -1,1 0,2 1,1 0,2 5,0 1,-1 16,0 1,-1 13,0 1,-1 12,0 1,-1 13,0 1,-1 16,0 1,-1 9,0 1,-1 7,0 1,1 0,1 2,0 1,-1 2,0 0,-2 1,-1 2,0 1,1 1,0 0,-2 1,-1 2,0 1,1 1,-1 2,0 1,-1 1,0 1,-1 1,0 0,-2 1,-1 2,0 1,1 1,0 1,-1 5,0 1,-1 3,0 0,-34 -9,0 -1,1 -9,0 -1,1 -10,0 -1,1 -9,0 -1,1 -9,0 -1,1 -9,0 -1,1 -8,0 -1,1 -9,0 -1,1 -9,0 -1,1 -10,0 -1,1 -11,0 -1,1 -9,0 -1,1 -2,0 -1,1Z"/>
<path onmouseover="hoverPath(evt)" onmouseout="recoverPath(evt)" fill="rgb(254,254,254)" d="M  1,137l -1,0 0,1 9,0 1,1 16,0 1,1 15,0 1,1 17,0 1,1 12,0 1,1 13,0 1,1 17,0 1,1 15,0 1,1 11,0 1,1 9,0 1,1 1,0 0,-2 -10,0 -1,-1 -11,0 -1,-1 -15,0 -1,-1 -18,0 -1,-1 -12,0 -1,-1 -12,0 -1,-1 -16,0 -1,-1 -16,0 -1,-1 -16,0 -1,-1Z"/>
<path onmouseover="hoverPath(evt)" onmouseout="recoverPath(evt)" fill="rgb(254,254,254)" d="M  1,209l -1,0 0,1 4,0 1,-1 9,0 1,-1 10,0 1,-1 11,0 1,-1 17,0 1,-1 16,0 1,-1 13,0 1,-1 12,0 1,-1 10,0 1,-1 14,0 1,1 1,0 0,-1 1,-1 3,0 1,-1 9,0 1,-1 11,0 1,-1 10,0 1,-1 9,0 1,-1 9,0 1,-1 8,0 1,-1 9,0 1,-1 9,0 1,-1 9,0 1,-1 10,0 1,-1 9,0 1,-1 10,0 0,-2 -3,0 -1,1 -7,0 -1,1 -9,0 -1,1 -9,0 -1,1 -10,0 -1,1 -9,0 -1,1 -8,0 -1,1 -9,0 -1,1 -9,0 -1,1 -8,0 -1,1 -11,0 -1,1 -11,0 -1,1 -10,0 -1,1 -8,0 -1,1 -9,0 -1,1 -10,0 -1,1 -12,0 -1,1 -14,0 -1,1 -17,0 -1,1 -16,0 -1,1 -11,0 -1,1 -10,0 -1,1 -10,0 -1,1 -1,0 125,-6Z"/>
<path onmouseover="hoverPath(evt)" onmouseout="recoverPath(evt)" fill="rgb(253,253,253)" d="M  55,1l 0,-1 -1,0 0,4 -1,1 0,4 -1,1 0,5 -1,1 0,6 -1,1 0,11 1,0 1,1 1,1 1,1 1,1 1,1 0,2 1,0 1,1 1,1 1,1 1,1 1,1 0,2 1,0 1,1 3,3 1,1 0,1 1,0 1,1 3,3 2,0 1,1 1,0 1,1 1,0 1,1 1,1 1,0 1,1 1,0 1,1 1,0 1,1 1,1 0,2 1,0 1,1 1,-1 2,0 1,1 1,0 1,1 1,0 1,1 1,0 1,1 1,0 1,1 1,0 1,1 1,0 1,1 1,0 1,1 1,0 1,1 1,1 1,0 1,1 1,1 1,0 1,1 1,1 1,1 1,1 0,2 1,-1 2,0 1,1 2,0 1,1 2,0 1,1 2,0 1,-1 1,0 0,-1 1,-1 0,-3 1,-1 0,-5 1,-1 0,-4 1,-1 0,-5 1,-1 0,-5 1,-1 0,-3 1,-1 0,-3 1,-1 5,0 -5,-1 0,-5 1,-1 0,-4 1,-1 0,-4 1,-1 0,-4 1,-1 0,-4 1,-1 0,-5 1,-1 0,-6 1,-1 0,-3 -1,-1 0,-6 -1,0 0,16 -1,1 0,6 -1,1 0,4 -1,1 0,3 -1,1 0,4 -1,1 0,4 -1,1 0,5 -1,1 0,4 -1,1 0,4 -1,1 0,4 -1,1 0,5 -1,1 0,5 -1,1 0,4 -1,1 0,3 -1,1 -1,0 -1,1 -4,0 -1,-1 -1,0 -1,-1 -1,0 -1,-1 -1,0 -1,-1 0,-1 -2,0 -1,-1 -1,-1 -1,-1 -1,0 -1,-1 -1,-1 -1,0 -1,-1 -1,0 -1,-1 -1,0 -1,-1 -1,0 -1,-1 -1,0 -1,-1 -1,0 -1,-1 -1,0 -1,-1 -1,0 -1,-1 -1,0 -1,-1 -1,0 -1,-1 -1,-1 -1,0 -1,-1 -1,0 -1,-1 -1,0 -1,-1 -1,-1 -1,0 -1,-1 -1,0 -1,-1 -1,0 -1,-1 -1,0 -1,-1 -1,0 -1,-1 -1,0 -1,-1 -1,-1 -1,-1 -1,-1 -1,-1 -1,-1 0,-1 -1,-1 0,-1 -1,0 -1,-1 -1,-1 -1,-1 -1,-1 0,-1 -1,-1 0,-1 -1,0 -1,-1 -1,-1 -1,-1 -1,-1 0,-1 -1,-1 0,-1 -1,0 -1,-1 0,-8 1,-1 0,-6 1,-1 0,-6 1,-1 0,-4 1,-1Z"/>
<path onmouseover="hoverPath(evt)" onmouseout="recoverPath(evt)" fill="rgb(243,242,234)" d="M  59,0l -2,0 0,5 -1,1 0,4 -1,1 0,6 -1,1 0,6 -1,1 0,6 1,0 1,1 0,1 1,1 0,1 1,1 1,1 1,1 1,0 1,1 0,1 1,1 0,1 1,1 1,1 1,1 1,0 1,1 0,1 1,1 0,1 1,1 1,1 1,1 1,1 1,1 1,0 1,1 1,0 1,1 1,0 1,1 1,0 1,1 1,0 1,1 1,0 1,1 1,1 1,0 1,1 1,0 1,1 1,0 1,1 1,1 1,0 1,1 1,0 1,1 1,0 1,1 1,0 1,1 1,0 1,1 1,0 1,1 1,0 1,1 1,0 1,1 1,0 1,1 1,0 1,1 1,1 1,0 1,1 1,1 1,1 2,0 1,1 0,1 1,0 1,1 1,0 1,1 1,0 1,1 2,0 1,-1 1,0 0,-3 1,-1 0,-4 1,-1 0,-5 1,-1 0,-5 1,-1 0,-4 1,-1 0,-4 1,-1 0,-4 1,-1 0,-5 1,-1 0,-4 1,-1 0,-4 1,-1 0,-3 1,-1 0,-4 1,-1 0,-6 1,-1 0,-15Z"/>
<path onmouseover="hoverPath(evt)" onmouseout="recoverPath(evt)" fill="rgb(235,235,217)" d="M  70,253l -9,0 -1,1 -13,0 0,1 66,0 0,-5 -5,0 -1,1 -10,0 -1,1 -17,0 -1,1Z"/>
<path onmouseover="hoverPath(evt)" onmouseout="recoverPath(evt)" fill="rgb(178,200,224)" d="M  93,245l -7,0 -1,1 -15,0 -1,1 -14,0 -1,1 -15,0 -1,1 -13,0 -1,1 -13,0 -1,1 9,0 6,-1 10,0 4,-1 9,0 7,-1 7,0 8,-1 13,0 3,-1 6,0 1,-1 4,-1 0,2 1,0 1,-1 10,0 1,-1 4,0 0,-1 1,-1 -2,1 -5,0 -1,1 -10,0 -4,1Z"/>
<path onmouseover="hoverPath(evt)" onmouseout="recoverPath(evt)" fill="rgb(244,243,236)" d="M  150,0l -1,0 0,5 1,1 0,5 -1,1 0,6 -1,1 0,5 -1,1 0,4 -1,1 0,4 -1,1 0,4 -1,1 0,4 -1,1 0,3 4,0 1,1 0,2 4,0 1,1 5,0 1,1 5,0 1,1 6,0 1,-1 7,0 1,1 0,2 5,0 1,1 5,0 1,1 6,0 1,1 5,0 1,-1 6,0 1,1 0,2 5,0 1,1 5,0 1,1 6,0 1,1 5,0 1,-1 7,0 1,1 0,2 5,0 1,1 4,0 0,-25 -2,0 -1,-1 0,-3 -1,-1 0,-1 -1,-1 0,-2 -1,-1 0,-2 -1,-1 0,-2 -1,-1 0,-2 -1,-1 0,-2 -1,-1 0,-2 -1,-1 0,-1 -1,-1 0,-2 -1,-1 0,-2 -1,-1 0,-2 -1,-1 0,-2 -1,-1 0,-3Z"/>
<path onmouseover="hoverPath(evt)" onmouseout="recoverPath(evt)" fill="rgb(179,200,223)" d="M  207,237l -5,0 -1,1 -16,0 -1,1 -13,0 -1,1 -12,0 -1,1 -13,0 -1,1 -16,0 -1,1 -6,0 0,1 3,0 4,-1 10,0 7,-1 8,0 6,-1 9,0 4,-1 11,0 3,-1 12,0 5,-1 4,0 1,-1 6,-1 0,1 4,0 0,-1 -4,0 -6,1Z"/>
<path onmouseover="hoverPath(evt)" onmouseout="recoverPath(evt)" fill="rgb(245,236,167)" d="M  254,39l 0,1 1,0 0,-40 -14,0 0,2 1,1 0,2 1,1 0,2 1,1 0,2 1,1 0,2 1,1 0,1 1,1 0,2 1,1 0,2 1,1 0,2 1,1 0,2 1,1 0,2 1,1 0,2 1,1 0,1 1,1Z"/>
</svg>