<svg width="256" height="256" xmlns="http://www.w3.org/2000/svg"><script> 
var tempColor;
function hoverPath(evt){
obj = evt.target;
tempColor = obj.getAttribute("fill");
obj.setAttribute("fill","red");
//alert(tempColor);
//obj.setAttribute("stroke","red");}
function recoverPath(evt){
obj = evt.target;
obj.setAttribute("fill", tempColor);
//obj.setAttribute("stroke", tempColor);
}</script><path onmouseover="hoverPath(evt)" onmouseout="recoverPath(evt)" fill="rgb(247,237,139)" d="M  0,104l 0,15 3,0 1,1 0,1 1,1 1,1 0,1 1,1 1,1 0,1 1,1 0,1 1,1 1,1 0,1 1,1 1,1 0,3 3,0 1,1 0,3 -1,1 1,0 1,1 1,0 1,1 0,2 1,1 0,1 1,1 1,1 0,1 1,1 0,1 1,1 1,1 0,1 1,1 1,1 0,1 1,1 0,1 1,1 1,1 0,1 1,1 0,1 1,1 1,1 0,1 1,1 1,1 0,1 1,1 0,1 1,1 1,1 0,1 1,1 1,1 0,1 1,1 1,1 0,1 1,1 1,1 0,1 1,1 1,1 0,1 1,1 1,1 0,1 1,1 1,1 0,1 1,1 1,1 0,1 1,1 0,3 -1,1 -6,0 1,1 4,0 2,-1 5,0 1,-1 5,0 0,-2 1,-1 -1,-1 -1,0 -1,-1 0,-1 -1,-1 -1,-1 0,-1 -1,-1 -1,-1 0,-1 -1,-1 -1,-1 0,-1 -1,0 -1,-1 0,-2 -1,-1 -1,-1 0,-1 -1,-1 0,-3 1,-1 -2,0 -1,-1 -1,0 -1,-1 0,-1 -1,-1 -1,-1 0,-1 -1,-1 -1,-1 0,-1 -1,-1 -1,-1 0,-1 -1,-1 0,-1 -1,-1 -1,-1 0,-1 -1,-1 -1,-1 0,-1 -1,-1 -1,-1 0,-1 -1,-1 -1,-1 0,-1 -1,-1 0,-1 -1,-1 -1,-1 0,-1 -1,-1 -1,-1 0,-1 -1,-1 0,-2 1,-1 1,0 1,-1 2,0 1,-1 1,0 1,-1 1,0 1,-1 1,0 1,-1 1,0 1,-1 2,0 1,1 1,1 -1,-2 0,-1 1,-1 3,0 0,-2 1,-1 4,0 1,-1 1,0 1,-1 1,0 1,-1 1,0 1,-1 1,0 1,-1 1,0 1,-1 2,0 1,-1 1,0 1,-1 1,0 1,-1 1,0 1,-1 1,0 1,-1 1,0 1,-1 1,0 1,-1 1,0 1,-1 2,0 1,-1 1,0 1,-1 1,0 1,-1 1,0 0,-2 1,-1 4,0 1,-1 3,0 1,-1 1,0 1,-1 1,0 1,-1 1,0 1,-1 1,0 1,-1 1,0 1,-1 2,0 1,-1 1,0 1,-1 1,0 1,-1 1,0 1,-1 1,0 1,-1 1,0 1,-1 1,0 1,-1 3,0 0,-2 1,-1 1,0 1,-1 1,-1 2,0 1,1 1,-1 1,0 1,-1 1,0 1,-1 2,0 1,-1 1,0 1,-1 1,0 1,-1 1,0 1,-1 1,0 1,-1 1,0 1,-1 1,0 1,-1 2,0 1,-1 1,0 1,-1 1,0 0,-1 1,-1 2,0 1,1 1,1 0,-2 1,-1 1,0 1,-1 1,0 1,-1 1,0 1,-1 1,0 1,-1 1,0 1,-1 1,0 1,-1 1,0 1,-1 1,0 1,-1 2,0 1,-1 1,0 1,-1 1,0 1,-1 1,0 1,-1 1,0 1,-1 1,0 1,-1 1,0 1,-1 1,0 1,-1 2,0 1,-1 2,0 0,-2 1,-1 4,0 1,1 1,1 0,-1 1,-1 1,0 1,-1 3,0 1,-1 3,0 1,-1 4,0 1,-1 2,0 1,-1 3,0 1,-1 3,0 1,-1 3,0 1,-1 5,0 1,-1 3,0 0,-1 1,-1 3,0 0,-7 -5,0 -1,1 -2,0 -1,-1 -1,-1 -1,1 -1,0 0,2 -1,1 -3,0 -1,1 -3,0 -1,1 -3,0 -1,1 -3,0 -1,1 -3,0 -1,1 -3,0 -1,1 -4,0 -1,-1 0,-2 -1,0 -1,1 -2,0 -1,-1 -1,1 -1,0 -1,1 -1,0 0,2 -1,1 0,1 -1,1 -1,1 -2,0 -1,1 -2,0 -1,1 -1,0 -1,1 -1,0 -1,1 -1,0 -1,1 -2,0 -1,1 -1,0 -1,1 -1,0 -1,1 -1,0 -1,1 -1,0 -1,1 -1,0 -1,1 -2,0 -1,1 -1,0 -1,1 -1,0 -1,1 -1,0 -1,1 -1,0 -1,1 -2,0 -1,1 -1,0 -1,1 -1,0 -1,1 -1,0 -1,1 -1,0 0,2 -1,1 -4,0 -1,-1 0,1 -1,1 -2,0 -1,1 -2,0 -1,1 -1,0 -1,1 -1,0 -1,1 -1,0 -1,1 -1,0 -1,1 -1,0 -1,1 -1,0 -1,1 -1,0 -1,1 -1,0 0,1 -1,1 -1,1 -5,0 -1,1 -1,0 -1,1 -1,0 -1,1 -1,0 -1,1 -1,0 -1,1 -2,0 -1,1 -1,0 -1,1 -1,0 -1,1 -1,0 -1,1 -1,0 -1,1 -1,0 -1,1 -1,0 -1,1 -1,0 -1,1 -1,0 -1,1 -1,0 -1,1 -2,0 -1,1 -1,0 -1,1 -1,0 -1,1 -1,0 -1,1 -1,0 0,2 -1,1 -4,0 -1,-1 -1,-1 -2,0 0,1 -1,1 0,1 -1,1 -1,0 -1,1 -1,1 -1,0 -1,1 -1,0 -1,1 -2,0 -1,1 -1,0 -1,1 -1,0 -1,1 -1,0 -1,1 -1,0 -1,1 -1,0 -1,1 -1,0 -1,1 -2,0 -1,1 -1,0 -1,1 -1,0 -1,1 -1,0 -1,1 -1,0 -1,1 -1,0 -1,1 -1,0 -1,1 -1,0 -1,1 -2,0 -1,1 -1,0 -1,1 -4,0 -1,-1 -1,-1 0,-1 -1,-1 -1,-1 0,-1 -1,-1 0,-1 -1,-1 -1,-1 0,-1 -2,-2 0,-1 -1,-1 -1,-1 0,-1 -1,-1 0,-1 -1,-1 0,-1 -2,0 -1,-1 0,-4 -1,0 -1,-1 0,-1 -1,-1 -1,-1 0,-1 -1,0Z"/>
<path onmouseover="hoverPath(evt)" onmouseout="recoverPath(evt)" fill="rgb(243,231,137)" d="M  92,240l 0,-1 -1,-1 0,-3 -1,-1 0,-2 -1,-1 0,-1 -1,-1 0,-1 -1,-1 0,-1 -1,-1 -1,-1 -1,-1 -1,-1 -1,-1 -1,-1 -1,-1 -1,-1 -1,-1 -1,0 -1,-1 0,-2 -2,0 -1,-1 -4,0 0,2 -1,1 -4,0 5,1 0,0 1,1 0,2 -1,1 0,1 1,1 1,-1 2,0 1,1 3,0 1,1 0,1 2,2 1,1 1,1 1,1 0,1 1,1 0,1 1,1 0,3 1,1 0,3 1,1 0,3 1,1 0,2 1,1 0,3 1,1 0,2 6,0 0,-1 -1,-1 0,-3 -1,-1 0,-3 -1,-1 0,-2 -1,-1Z"/>
<path onmouseover="hoverPath(evt)" onmouseout="recoverPath(evt)" fill="rgb(243,241,232)" d="M  175,102l 0,0 -1,-1 -1,1 -1,0 -1,1 -1,0 0,3 1,0 1,1 1,1 1,1 2,0 1,1 1,1 1,1 0,1 3,0 1,-1 1,0 1,-1 0,-2 1,-1 2,0 1,1 1,-1 0,0 1,-1 1,0 1,-1 0,-2 1,-1 2,0 1,1 1,-1 1,-1 1,0 1,-1 0,-2 1,-1 1,0 1,-1 1,-1 1,0 0,-1 1,-1 -1,-1 0,0 -1,-1 -1,-1 -1,0 -1,-1 0,-2 -1,-1 0,-6 -1,-1 -1,-1 -1,-1 -1,0 -1,-1 -1,0 -1,-1 0,-2 -8,0 -1,1 -2,0 -1,1 -1,0 -1,1 0,3 -1,1 0,1 -1,1 0,7 1,0 1,1 0,2 1,1 0,5 -1,1 -1,1 -1,0 -1,1Z"/>
<path onmouseover="hoverPath(evt)" onmouseout="recoverPath(evt)" fill="rgb(239,238,230)" d="M  205,200l 0,1 1,1 0,1 1,1 1,1 0,1 1,1 0,2 1,0 1,1 0,1 1,1 1,1 0,1 1,1 1,1 0,1 1,1 1,1 0,1 1,1 1,1 0,1 1,1 1,1 0,2 1,0 1,1 1,1 0,1 1,1 1,1 0,1 1,1 1,1 0,1 1,1 1,1 0,1 1,1 1,1 0,1 1,1 1,1 0,1 1,1 0,1 1,1 1,1 0,1 1,1 1,1 0,3 16,0 0,-3 -2,0 -1,-1 -1,-1 0,-1 -1,-1 -1,-1 -2,0 -1,-1 0,-1 -1,-1 -1,-1 0,-2 1,-1 -1,-1 0,0 -1,-1 0,-1 -1,-1 -1,-1 0,-1 -1,-1 0,-1 -1,-1 -1,-1 -1,-1 0,-1 -1,-1 -2,0 -1,-1 0,-1 -1,-1 -1,-1 -1,-1 0,-1 -1,-1 0,-2 1,-1 0,-4 1,-1 1,-1 2,0 0,-1 1,-1 1,-1 2,0 0,-1 1,-1 1,-1 2,0 0,-1 1,-1 1,-1 2,0 0,-1 1,-1 1,-1 2,0 0,-1 1,-1 1,-1 3,0 0,-13 -3,0 -1,1 -2,0 0,1 -1,1 -1,0 -1,1 -8,0 -1,-1 -4,0 -1,1 0,1 -1,1 -5,0 -1,1 -5,0 -1,1 -5,0 -1,1 -5,0 -1,1 -2,0 0,3 -1,1 -2,0 1,1 0,1 1,0 1,1Z"/>
<path onmouseover="hoverPath(evt)" onmouseout="recoverPath(evt)" fill="rgb(231,220,215)" d="M  0,17l 0,13 2,0 1,-1 1,0 1,-1 0,-1 2,-2 0,-1 1,-1 0,-1 1,-1 0,-1 1,-1 0,-2 1,-1 0,-1 1,-1 0,-1 1,-1 1,-1 1,0 1,-1 2,0 1,-1 4,0 1,-1 1,0 1,-1 2,0 1,-1 3,0 1,-1 3,0 -1,-1 0,-4 -35,0Z"/>
<path onmouseover="hoverPath(evt)" onmouseout="recoverPath(evt)" fill="rgb(242,241,232)" d="M  74,1l 0,1 1,1 1,1 0,1 1,1 0,1 1,1 1,1 0,1 1,1 1,1 0,1 1,1 1,1 0,1 2,2 0,1 1,1 1,1 0,1 1,1 1,1 0,1 2,2 0,1 1,1 1,1 0,1 1,1 1,1 0,1 1,1 1,1 0,1 1,1 1,1 0,1 1,0 1,1 0,1 1,0 0,-7 1,-1 1,-1 1,-1 7,0 1,1 1,0 1,-1 1,0 1,-1 1,0 0,-2 1,-1 1,0 1,-1 2,0 1,1 1,0 1,-1 1,0 0,-2 1,-1 2,0 1,1 1,0 1,-1 0,-1 -1,-1 0,0 -1,-1 0,-2 1,-1 2,0 1,1 1,1 0,1 1,1 1,0 1,-1 2,0 1,-1 1,0 1,-1 1,0 0,-2 1,-1 2,0 1,1 1,-1 2,0 1,-1 1,0 0,-2 1,-1 2,0 1,1 1,-1 2,0 1,-1 1,0 0,-2 -1,-1 -2,0 -1,-1 -1,-1 -1,-1 -3,0 -1,-1 -3,0 -1,-1 0,-3 -74,0 -1,1 67,3 2,0 1,1 0,2 -1,1 -2,0 -1,-1 0,-2 1,-1 -67,-3 24,4 2,0 1,1 0,2 -1,1 -2,0 -1,-1 0,-2 1,-1 -24,-4 40,19 -1,0 -1,1 -2,0 -1,-1 0,-2 1,-1 1,0 1,-1 2,0 1,1 0,2 -1,1 -40,-19Z"/>
<path onmouseover="hoverPath(evt)" onmouseout="recoverPath(evt)" fill="rgb(243,242,233)" d="M  130,32l -2,0 -1,1 0,3 -1,1 1,1 0,0 1,1 1,1 0,1 1,1 1,1 0,1 1,1 1,1 0,2 1,1 0,-1 1,-1 5,0 1,1 1,1 0,1 1,1 0,3 1,-4 0,-1 1,-1 0,-2 1,-1 2,0 1,1 1,0 1,-1 1,0 1,-1 1,0 1,-1 1,0 1,-1 1,0 1,-1 1,0 1,-1 1,0 0,-2 1,-1 1,0 1,-1 1,0 1,-1 1,0 1,-1 1,0 1,-1 1,0 1,-1 2,0 1,1 1,-1 1,0 1,-1 0,-3 -1,-1 0,0 -1,-1 0,-1 -1,-1 -1,-1 -1,-1 -1,0 -1,-1 -1,0 -1,-1 -1,-1 -1,-1 0,-3 -1,0 -1,1 -2,0 -1,1 -1,0 -1,1 -1,0 -1,1 -2,0 -1,1 -1,0 -1,1 -1,0 0,2 -1,1 -2,0 -1,-1 -1,0 -1,1 -1,0 -1,1 -1,0 0,2 -1,1 -2,0 -1,-1 -1,1 -2,0 -1,1 -1,0 0,2 -1,1 -2,0 -1,-1 -1,1Z"/>
<path onmouseover="hoverPath(evt)" onmouseout="recoverPath(evt)" fill="rgb(243,242,233)" d="M  165,0l -2,0 0,1 1,1 1,1 1,0 1,1 0,1 2,0 1,1 0,2 2,0 1,1 1,1 0,4 1,1 1,1 1,1 1,0 1,1 0,1 1,1 0,1 1,1 1,1 1,1 1,0 1,1 0,2 1,1 1,1 1,0 1,1 0,1 1,1 0,1 1,1 1,1 1,1 1,0 1,1 0,1 1,1 0,1 1,1 1,1 1,1 3,0 1,-1 1,0 1,-1 1,0 1,-1 1,0 1,-1 1,0 1,-1 1,0 1,-1 2,0 1,1 0,2 -1,1 0,2 2,0 1,-1 3,0 1,-1 3,0 1,-1 3,0 1,-1 3,0 1,-1 3,0 1,-1 3,0 0,-2 1,-1 1,0 1,-1 2,0 1,1 1,1 1,-1 6,0 0,-34 -90,0 68,3 2,0 1,1 0,2 -1,1 -2,0 -1,-1 0,-2 1,-1 -68,-3 40,11 2,0 1,1 0,2 -1,1 -2,0 -1,-1 0,-2 1,-1 -40,-11Z"/>
<path onmouseover="hoverPath(evt)" onmouseout="recoverPath(evt)" fill="rgb(242,241,232)" d="M  194,129l 0,0 -1,1 -1,0 0,1 1,1 0,1 1,1 2,0 1,1 0,2 -1,1 1,1 6,0 1,-1 4,0 1,-1 7,0 1,-1 5,0 1,-1 5,0 1,-1 5,0 1,-1 4,0 1,-1 5,0 1,-1 5,0 1,-1 3,0 0,-22 -4,0 -1,-1 -1,0 -1,-1 -1,1 -2,0 -1,-1 -1,-1 0,-2 -1,-1 -1,-1 -1,-1 -1,-1 -1,-1 -1,-1 0,-1 -1,-1 -1,-1 -1,0 -1,-1 0,-2 -1,-1 -1,-1 -1,0 -1,1 -1,0 -1,1 -1,1 -1,0 -1,1 -1,1 -1,0 -1,1 0,2 -1,1 -1,0 0,1 -1,1 1,1 0,0 1,1 1,1 0,2 -1,1 -2,0 -1,-1 -1,-1 -1,-1 -1,-1 -1,-1 -2,0 -1,1 -1,1 -1,0 -1,1 -1,0 -1,1 -1,1 -1,0 -1,1 -1,1 -1,0 -1,1 -1,1 -1,0 -1,1 -1,0 -1,1 -1,1 -1,0 -1,1 -1,0 -1,1 -1,1 -1,0 -1,1 -1,0 -1,1 1,1 0,1 1,1 1,1 0,1 1,1 1,1 0,1 1,0 1,-1 2,0 1,1 0,3 24,-16 1,1 0,2 -1,1 -2,0 -1,-1 0,-2 1,-1 2,0 -24,16Z"/>
<path onmouseover="hoverPath(evt)" onmouseout="recoverPath(evt)" fill="rgb(243,242,234)" d="M  0,58l 0,40 2,0 1,1 0,1 1,1 1,1 0,1 1,0 1,1 0,1 1,-1 0,0 1,-1 1,0 1,-1 1,-1 1,-1 0,-1 1,-1 4,0 1,-1 1,-1 1,-1 1,-1 -1,-1 0,-4 -1,-1 0,-1 -1,-1 0,-1 -1,-1 0,-1 -1,-1 0,-1 -1,-1 0,-1 -1,-1 0,-1 -1,-1 -1,-1 0,-1 -1,-1 0,-1 -1,-1 0,-1 -1,-1 -1,-1 0,-1 -1,-1 0,-1 -1,-1 -1,-1 0,-1 -1,-1 0,-1 -1,-1 -1,-1 0,-1 -1,-1 0,-1 -1,-1 -1,0Z"/>
<path onmouseover="hoverPath(evt)" onmouseout="recoverPath(evt)" fill="rgb(171,198,238)" d="M  25,10l 0,0 -1,1 2,0 1,-1 2,0 1,-1 2,0 1,-1 1,-1 -2,1 -2,0 -1,1 -2,0 -1,1 -1,0 -7,2 -1,0 -1,1 -1,0 -1,1 0,1 -1,1 0,1 -1,1 0,2 -1,1 0,1 -1,1 0,1 -1,1 0,1 -1,1 -1,1 0,1 -1,1 -1,1 -1,0 -1,1 -3,0 0,4 1,0 1,-1 2,0 1,-1 1,-1 1,-1 1,-1 1,-1 1,-1 1,-1 0,-1 1,-1 0,-1 1,-1 0,-2 1,-1 1,-1 0,-1 1,-1 0,-1 1,-1 0,-1 1,-1 1,0 -1,-2 7,-2Z"/>
<path onmouseover="hoverPath(evt)" onmouseout="recoverPath(evt)" fill="rgb(247,248,247)" d="M  172,146l -1,0 -1,1 0,3 -1,1 -2,0 1,1 0,0 1,1 0,1 1,1 1,1 0,1 1,1 1,1 0,1 1,0 1,1 0,2 1,0 1,1 0,2 1,0 1,1 0,2 1,1 1,1 0,1 1,1 1,1 0,1 1,1 1,1 0,1 6,0 -1,-1 0,0 -1,-1 -1,-1 0,-1 -1,-1 -1,-1 0,-1 -1,-1 -1,-1 -1,-1 0,-1 -1,-1 -1,-1 0,-1 -1,-1 0,-1 -1,-1 -1,-1 0,-1 -1,-1 -1,-1 -1,-1 0,-1 -1,-1 -1,-1 0,-1 -1,-1 0,-3 1,-1 -1,-1 2,-1 1,1 4,0 1,1 1,0 1,1 0,2 1,1 1,1 -1,-2 0,-4 1,-1 3,0 1,-1 7,0 1,-1 3,0 1,-1 8,0 1,1 0,3 1,1 0,5 2,0 -1,-1 0,0 -2,2 -1,0 0,1 2,-8 0,-4 1,-1 1,0 1,-1 4,0 1,-1 5,0 1,-1 5,0 1,-1 5,0 1,-1 8,0 1,1 0,3 1,1 0,2 2,0 1,1 0,2 6,0 0,-14 -2,0 -1,1 -5,0 -1,1 -5,0 -1,1 -4,0 -1,1 -5,0 -1,1 -5,0 -1,1 -5,0 -1,1 -7,0 -1,1 -4,0 -1,1 -8,0 -1,-1 -1,-1 0,-2 1,-1 -2,0 -1,-1 -1,-1 0,-1 -1,-1 0,-3 1,-1 1,0 0,-1 -2,1 -2,0 -1,-1 0,-1 -1,-1 -1,-1 0,-1 -1,-1 -1,-1 0,-1 -1,-1 0,-2 1,-1 1,-1 1,0 1,-1 1,0 1,-1 1,-1 1,0 1,-1 1,0 1,-1 1,-1 1,0 1,-1 1,0 1,-1 1,-1 1,0 1,-1 1,-1 1,0 1,-1 1,-1 1,0 1,-1 1,0 1,-1 1,-1 4,0 1,1 1,1 1,1 1,1 1,1 -3,-4 0,-1 1,-1 0,-1 1,-1 1,0 0,-2 1,-1 1,-1 1,0 1,-1 1,-1 1,0 1,-1 1,-1 1,0 1,-1 3,0 1,1 1,1 1,1 0,2 1,0 1,1 1,1 1,1 0,1 1,1 1,1 1,1 1,1 1,1 1,1 0,2 1,1 1,-1 2,0 1,1 1,0 1,1 3,0 0,-1 -2,0 -1,-1 -2,0 -1,-1 -1,-1 -1,0 -1,-1 -1,-1 -1,-1 -1,-1 -1,-1 -1,-1 0,-1 -1,-1 -1,-1 0,-1 -1,0 -1,-1 -1,-1 -1,-1 -1,-1 0,-4 1,-1 2,0 1,1 0,-2 1,-1 1,-1 1,0 1,-1 1,-1 2,0 1,1 0,-2 1,-1 1,-1 1,0 1,-1 1,-1 1,0 1,-1 2,0 0,-2 -1,0 -1,1 -1,0 -1,1 -1,1 -1,0 -1,1 -1,1 -1,0 -1,1 -1,0 -1,1 -1,1 -1,0 -1,1 -1,1 -1,0 -1,1 -1,0 -1,1 -1,1 -4,0 -1,-1 0,-2 -1,0 -1,-1 -1,-1 -1,-1 -1,-1 0,-1 -1,-1 -1,-1 0,-2 1,-1 1,0 1,-1 1,0 0,-1 -2,1 -2,1 -2,0 -1,-1 -1,-1 0,-1 -1,0 -1,-1 -1,-1 -1,-1 -1,-1 0,-1 -1,-1 0,-1 -1,0 -1,-1 -1,-1 0,-1 -1,-1 -2,0 1,1 0,0 1,1 0,1 1,1 0,1 1,0 1,1 1,1 1,1 1,1 0,1 1,1 0,1 1,0 1,1 1,1 1,1 1,1 0,2 1,0 1,1 1,1 1,1 1,1 0,2 1,0 1,1 1,1 0,4 -1,1 -1,1 -1,0 -1,1 -1,1 -1,0 -1,1 -1,1 -2,0 -1,-1 0,2 -1,1 -1,1 -4,0 -1,-1 -1,-1 -1,-1 -1,-1 -1,-1 -1,-1 -1,-1 0,-1 -1,-1 0,-2 1,-1 0,-2 -1,-1 -2,-2 0,-1 -1,0 -1,-1 -1,0 -1,-1 -1,0 7,6 0,2 1,6 5,5 0,1 -1,1 0,1 -1,1 -1,0 -1,1 -1,1 -1,0 0,2 -1,1 -1,1 -1,0 -1,1 -1,1 -2,0 -1,-1 0,2 -1,1 -1,1 -1,0 -1,1 -1,1 -2,0 -1,-1 0,2 -1,1 -1,1 -1,0 -1,1 -5,0 0,3 -1,1 -2,0 -1,-1 -1,1 0,0 -1,1 -1,0 0,2 -1,1 -1,1 -3,0 -1,-1 -2,0 -1,-1 -1,1 0,7 1,0 1,1 3,0 1,-1 1,0 0,-1 1,-1 0,-2 1,-1 1,0 0,-1 1,-1 1,-1 1,0 1,-1 1,0 1,-1 1,-1 2,0 1,1 1,1 1,1 0,1 1,1 1,1 0,1 1,1 0,3 -1,1 -1,0 -1,1 1,0 2,-1 2,0 1,1 1,1 0,1 1,1 0,1 1,1 0,1 1,1 0,2 -1,1 -1,1 -4,0 -1,1 -6,0 -1,1 -5,0 -2,1Z"/>
<path onmouseover="hoverPath(evt)" onmouseout="recoverPath(evt)" fill="rgb(244,242,234)" d="M  69,153l -1,1 0,2 -1,1 0,2 -1,1 0,1 -1,1 1,1 0,7 -1,1 2,0 1,1 1,1 6,0 1,1 0,1 1,1 0,1 1,1 4,0 1,1 1,0 1,-1 5,0 1,-1 4,0 1,-1 3,0 1,-1 4,0 1,-1 5,0 1,1 3,0 0,-2 1,-1 4,0 1,-1 4,0 1,1 1,0 1,-1 5,-5 1,-1 1,-1 0,-2 1,-1 2,0 1,1 1,-1 1,0 1,-1 1,-1 4,0 1,1 1,0 1,1 0,-1 -1,-1 0,-2 1,-1 -1,0 -1,1 -3,0 -1,-1 -1,0 -1,-1 -1,-1 0,-1 -2,0 -1,-1 -1,-1 -1,0 -1,-1 -1,-1 -1,-1 -1,-1 -1,-1 -1,-1 0,-2 -1,-1 -1,-1 0,-2 -1,3 -2,2 -1,0 0,2 -1,1 -3,0 -1,-1 -2,0 -1,1 -3,0 -1,1 -5,0 -1,1 -5,0 0,2 -1,1 -6,0 -1,-1 -19,0 -1,-1 -1,0 -1,-1 0,-9 -1,7Z"/>
<path onmouseover="hoverPath(evt)" onmouseout="recoverPath(evt)" fill="rgb(243,241,232)" d="M  74,138l 0,0 -1,1 -1,1 0,8 1,0 1,1 19,0 1,1 4,0 0,-2 1,-1 5,0 1,-1 5,0 1,-1 3,0 1,-1 4,0 1,1 1,0 0,-2 1,-1 1,0 1,-1 1,-1 0,-1 -1,-1 0,-6 -1,-1 0,-3 1,-1 -2,0 -1,-1 -1,-1 -1,0 -1,-1 0,-2 -1,0 -1,-1 -1,1 -2,0 -1,-1 -1,0 -1,-1 0,-4 -2,0 -1,-1 -7,0 0,4 1,1 0,2 -1,1 0,1 -1,1 -1,0 -1,1 -1,0 -1,1 -2,0 -1,-1 0,2 -1,1 -1,0 -1,1 -1,0 -1,1 -1,0 -1,1 -1,0 -1,1 -1,0 -1,1 -1,1 -1,0 -1,1 -1,0 -1,1 -1,0 -1,1Z"/>
<path onmouseover="hoverPath(evt)" onmouseout="recoverPath(evt)" fill="rgb(244,242,235)" d="M  135,91l -1,0 0,1 1,1 0,0 1,1 0,1 1,1 1,1 0,1 1,1 0,1 1,1 1,1 0,1 1,1 1,1 0,1 1,1 1,1 0,1 1,1 1,1 0,1 1,1 1,1 0,1 1,1 1,1 0,1 1,1 1,1 0,1 1,1 1,1 0,1 1,1 1,1 1,1 0,2 1,1 0,-8 1,-1 1,-1 2,0 1,1 2,0 1,1 1,0 1,-1 0,-2 1,-1 1,0 1,-1 1,-1 2,0 1,1 0,-3 1,-1 -2,-2 -2,0 -2,-2 -1,-1 -1,0 -1,-1 0,-5 1,-1 1,0 1,-1 1,0 1,-1 2,0 1,1 0,-3 1,-1 -1,-1 0,-1 -1,0 -1,-1 -1,-1 0,-1 -1,-1 -1,-1 -1,0 -1,-1 0,-1 -1,-1 0,-1 -1,-1 -1,-1 0,-1 -1,-1 -1,-1 0,-1 -1,-1 -1,-1 0,1 -1,1 -1,0 -1,1 -1,0 -1,1 -2,0 -1,1 -1,0 -1,1 -1,0 -1,1 -1,0 -1,1 -1,0 -1,1 -1,0 -1,1 -1,0 -1,1 -2,0 -1,1 -1,0 -1,1 -1,0 -1,1Z"/>
<path onmouseover="hoverPath(evt)" onmouseout="recoverPath(evt)" fill="rgb(243,241,233)" d="M  146,51l 0,0 -1,1 0,3 -1,1 -2,0 -1,-1 0,-3 -1,-1 0,-1 -1,-1 -3,0 0,1 -1,1 -1,0 0,4 -1,1 1,1 1,0 1,1 3,0 1,1 0,2 1,1 2,0 1,1 1,1 0,1 1,1 0,1 1,1 1,1 2,0 1,1 0,1 2,0 0,-2 1,-1 1,0 1,-1 1,0 1,-1 1,0 1,-1 1,0 1,-1 2,0 1,-1 1,0 1,-1 1,0 1,-1 1,0 1,-1 1,0 1,-1 2,0 1,-1 1,0 1,-1 1,0 1,-1 1,0 1,-1 1,0 1,-1 1,0 1,-1 2,0 1,-1 1,0 1,-1 1,0 1,-1 1,0 1,-1 2,0 -1,-1 0,0 -1,-1 -1,-1 0,-1 -1,-1 -1,-1 -1,-1 -1,-1 -1,0 -1,-1 0,-1 -1,-1 0,-1 -1,-1 -1,-1 -1,-1 -1,0 -1,-1 0,-1 -1,0 -1,1 0,0 -1,1 -1,0 -1,1 -2,0 -1,-1 -1,1 -1,0 -1,1 -1,0 -1,1 -1,0 -1,1 -1,0 -1,1 -1,0 0,2 -1,1 -1,0 -1,1 -1,0 -1,1 -1,0 -1,1 -1,0 -1,1 -1,0 -1,1 -1,0 -1,1 -2,0 -1,1 -1,0 -1,1Z"/>
<path onmouseover="hoverPath(evt)" onmouseout="recoverPath(evt)" fill="rgb(242,241,232)" d="M  170,75l -1,0 -1,1 -1,0 0,2 -1,1 1,1 0,0 1,1 0,1 1,1 1,1 0,1 1,1 0,1 1,0 1,1 1,1 1,1 0,1 1,1 1,0 1,1 0,1 1,1 0,2 -1,1 1,0 -1,1 0,-7 -2,-1 0,-9 1,-1 0,-1 1,-1 0,-3 1,-1 1,-1 1,0 1,-1 2,0 1,-1 10,0 1,1 2,0 1,1 1,0 1,1 1,0 1,1 0,1 1,1 1,1 1,1 0,4 -1,1 1,1 0,1 1,1 1,1 1,1 1,1 1,1 1,1 2,0 1,-1 0,-2 1,-1 2,0 1,1 1,-1 0,0 1,-1 1,0 1,-1 1,-1 1,0 1,-1 0,-2 -1,-1 -1,0 -1,-1 0,-2 -2,-2 -1,-1 -1,0 -1,-1 0,-2 -1,-1 -1,-1 -1,-1 -1,0 -1,-1 0,-1 -1,-1 0,-1 -1,-1 -1,-1 -1,-1 -1,0 -1,-1 0,-1 -2,0 -1,-1 -1,-1 -1,1 -2,0 -1,1 -1,0 -1,1 -1,0 -1,1 -1,0 -1,1 -1,0 -1,1 -1,0 -1,1 -1,0 -1,1 -1,0 -1,1 -2,0 -1,1 -1,0 -1,1 -1,0 -1,1 -1,0 -1,1 -1,0 -1,1 -1,0 -1,1 -1,0 -1,1Z"/>
<path onmouseover="hoverPath(evt)" onmouseout="recoverPath(evt)" fill="rgb(240,234,220)" d="M  0,228l 0,12 6,0 0,-2 1,-1 8,0 1,1 4,0 1,-1 2,0 1,-1 2,0 1,-1 1,0 1,-1 2,0 0,-2 1,-1 2,0 1,-1 2,0 1,-1 4,0 1,1 2,0 1,-1 2,0 0,-2 1,-1 3,0 1,-1 3,0 1,-1 5,0 1,1 2,0 0,-2 1,-1 1,0 0,-2 1,-1 -1,-1 -9,0 -1,1 -5,0 -1,1 -4,0 -1,1 -6,0 -1,-1 -1,-1 -4,0 -1,1 -5,0 -1,1 -5,0 -1,1 -4,0 -1,1 -5,0 -1,1 -5,0 -1,1 -4,0Z"/>
<path onmouseover="hoverPath(evt)" onmouseout="recoverPath(evt)" fill="rgb(243,242,235)" d="M  0,244l 0,11 88,0 0,-1 -1,-1 0,-3 -1,-1 0,-2 -1,-1 0,-3 -1,-1 0,-3 -1,-1 0,-3 -1,-1 0,-1 -1,-1 0,-1 -1,-1 -1,-1 -1,-1 -1,-1 -1,-1 0,-1 -3,0 -1,-1 -1,1 -2,0 -1,-1 -1,0 0,2 -1,1 -4,0 -1,-1 -3,0 -1,1 -3,0 -1,1 -3,0 0,2 -1,1 -2,0 -1,1 -4,0 -1,-1 -2,0 -1,1 -2,0 -1,1 -2,0 0,2 -1,1 -2,0 -1,1 -1,0 -1,1 -2,0 -1,1 -2,0 -1,1 -6,0 -1,-1 -6,0 0,2 -1,1 -7,0Z"/>
<path onmouseover="hoverPath(evt)" onmouseout="recoverPath(evt)" fill="rgb(244,242,235)" d="M  13,43l 0,0 -1,1 -1,1 0,1 -1,1 -1,1 0,6 1,1 0,1 1,1 0,2 1,1 0,1 1,1 0,1 1,1 0,1 1,1 1,1 0,1 1,1 0,1 1,1 1,0 1,1 0,2 1,1 1,1 1,1 0,1 1,1 1,1 1,0 1,1 0,2 1,0 1,1 1,0 1,1 1,0 1,1 1,0 1,1 0,2 1,0 1,1 6,0 1,1 0,2 2,0 0,-1 1,-1 1,0 1,-1 0,-3 1,-1 2,0 1,1 1,-1 0,0 1,-1 0,-2 1,-1 1,-1 1,0 2,-2 1,-1 3,0 1,-1 2,-2 1,-1 4,-4 0,-1 1,-1 10,0 -5,-1 -1,0 -1,-1 0,-2 -1,1 0,0 -1,1 -5,0 -1,1 -3,0 -1,-1 -1,0 -1,-1 -1,0 -1,-1 -1,-1 -1,0 -1,-1 0,-2 -1,-1 -1,1 -2,0 -1,-1 -1,0 -1,-1 -1,-1 -1,-1 -1,0 -1,-1 -1,-1 0,-1 -1,-1 -1,-1 -1,-1 0,-1 -1,-1 0,-1 -1,-1 -1,-1 0,-1 -1,0 -1,-1 -1,0 -1,-1 -1,-1 0,-2 -1,1 -4,0 -1,-1 0,-2 -6,0 -1,1 -3,0 0,2 -1,1 -1,0 -1,1 -1,0 -1,1 31,51 -1,0 -2,2 -1,1 -1,1 -1,1 -1,1 -1,1 -1,1 -1,1 -1,1 -1,1 -1,1 1,0 2,-2 1,-1 4,-4 1,-1 2,-2 1,-1 1,-1 -31,-51Z"/>
<path onmouseover="hoverPath(evt)" onmouseout="recoverPath(evt)" fill="rgb(243,242,234)" d="M  30,140l -1,0 1,1 0,1 1,1 1,1 0,1 2,2 0,1 1,1 0,1 1,1 1,1 0,1 1,1 1,1 0,1 1,1 1,1 0,1 1,1 1,1 0,1 1,1 0,1 1,1 1,1 0,1 1,1 1,1 0,1 1,1 1,1 0,1 1,0 1,1 1,0 1,-1 0,0 1,-1 2,0 1,-1 1,0 1,-1 2,0 1,-1 1,0 0,-5 -1,-1 0,-2 1,-1 0,-1 1,-1 0,-2 1,-1 0,-2 1,-1 0,-6 1,-1 0,-6 1,-1 2,0 1,-1 1,-1 1,-1 1,0 1,-1 1,0 1,-1 1,0 1,-1 0,-2 1,-1 1,0 1,-1 1,0 1,-1 1,0 1,-1 1,0 1,-1 1,0 1,-1 1,0 2,-2 1,-1 1,0 0,-3 -1,-1 0,-6 -1,-1 0,-1 -3,0 0,2 -1,1 -1,0 -1,1 -1,0 -1,1 -1,0 -1,1 -2,0 -1,1 -1,0 -1,1 -1,0 -1,1 -1,0 -1,1 -1,0 -1,1 -1,0 -1,1 -1,0 -1,1 -1,0 -1,1 -2,0 -1,1 -1,0 -1,1 -1,0 -1,1 -1,0 -1,1 -1,0 -1,1 -1,0 -1,1 -4,0 0,2 -1,1 -3,0 1,1 0,1 1,1 0,2 -1,1 -2,0 -1,-1 0,-1 -1,-1 -1,-1 -1,1 -1,0 -1,1 -1,0 -1,1 -1,0 -1,1 -1,0 -1,1 -2,0 -1,1Z"/>
<path onmouseover="hoverPath(evt)" onmouseout="recoverPath(evt)" fill="rgb(244,242,234)" d="M  55,180l 0,1 1,1 1,1 0,2 1,0 1,1 0,1 1,1 1,1 0,1 1,1 1,1 0,1 1,1 1,1 0,1 1,0 1,1 1,1 2,0 1,-1 5,0 1,-1 5,0 1,-1 5,0 1,-1 5,0 1,-1 6,0 1,-1 5,0 1,-1 6,0 1,-1 5,0 1,-1 5,0 1,-1 5,0 1,-1 5,0 1,-1 5,0 1,-1 5,0 1,-1 7,0 1,1 0,1 3,0 1,-1 5,0 0,-2 1,-1 1,-1 5,0 1,1 0,1 4,0 0,-3 1,-1 2,0 0,-1 -1,-1 0,0 -1,-1 0,-1 -1,-1 -1,-1 0,-1 -1,-1 -1,-1 0,-2 -1,0 -1,-1 0,-2 -1,0 -1,-1 0,-2 -1,0 -1,-1 0,-1 -1,-1 -1,-1 0,-1 -1,-1 -1,-1 0,-1 -1,-1 -1,-1 0,-1 -1,-1 -1,-1 0,-1 -1,-1 -1,-1 0,-1 -1,-1 -1,-1 0,-1 -1,-1 -1,-1 0,-1 -1,-1 -1,-1 0,-1 -1,-1 -1,-1 0,-1 -1,-1 -1,-1 0,-1 -1,-1 -1,-1 0,-1 -1,-1 0,-1 -1,-1 -1,-1 0,-1 -1,-1 -1,-1 0,-1 -1,-1 -1,-1 -1,-1 0,-1 -1,-1 -1,-1 0,-1 -1,-1 -1,-1 0,-1 -1,-1 -1,-1 -1,-1 0,-1 -1,-1 0,-1 -1,-1 -1,-1 0,-1 -1,-1 -1,-1 0,-1 -1,-1 -1,-1 -2,0 -1,1 -1,0 -1,1 -1,0 -1,1 -1,0 -1,1 -1,0 -1,1 -1,0 -1,1 -1,0 -1,1 -2,0 -1,1 -1,0 -1,1 -1,0 -1,1 -1,0 -1,1 -1,0 -1,1 -1,0 -1,1 -3,0 0,1 1,1 0,6 1,1 0,5 -1,1 -1,0 -1,1 1,0 -2,1 5,-4 -1,-5 0,-2 1,-1 9,0 1,1 2,0 1,1 0,4 1,-1 2,0 1,1 1,0 1,1 1,0 1,1 0,2 1,0 1,1 1,1 2,0 1,1 0,2 -1,1 0,1 1,1 0,6 2,0 1,1 0,2 1,1 1,1 0,2 1,1 1,1 1,1 1,1 1,1 1,0 1,1 1,1 2,0 1,1 0,1 1,1 1,0 1,1 1,0 1,-1 3,0 1,1 0,2 -1,1 1,1 0,3 -1,1 -2,0 -1,-1 -1,0 -1,-1 -2,0 -1,1 -1,1 -1,0 -1,1 -1,0 -1,1 -1,0 -2,2 -1,1 -1,1 -1,1 -2,2 -1,1 -1,1 -3,0 -1,-1 -2,0 -1,1 -4,0 0,2 -1,1 -5,0 -1,-1 -3,0 -1,1 -4,0 -1,1 -3,0 -1,1 -4,0 -1,1 -5,0 -1,1 -3,0 -1,-1 -4,0 -1,-1 -1,-1 0,-1 -1,-1 0,-1 -6,0 -1,-1 -1,-1 -3,0 -1,-1 -1,0 -1,1 -1,0 -1,1 -2,0 -1,1 0,2 -1,1 0,1 1,1Z"/>
<path onmouseover="hoverPath(evt)" onmouseout="recoverPath(evt)" fill="rgb(171,198,237)" d="M  76,12l 0,0 1,1 1,1 0,1 1,1 0,1 1,1 1,1 0,1 1,1 1,1 0,1 1,1 1,1 0,1 2,2 0,1 1,1 0,1 1,1 1,1 0,1 1,1 1,1 0,1 1,1 0,1 2,2 0,1 1,1 1,1 0,1 1,1 0,1 1,1 1,1 0,1 1,1 1,1 0,1 1,1 1,1 0,1 1,1 1,1 0,1 1,1 1,1 0,1 1,1 1,1 0,1 1,1 1,1 1,1 0,1 1,1 1,1 0,1 1,1 1,1 0,1 1,1 1,1 0,1 1,1 1,1 0,1 1,1 0,2 2,0 1,-1 0,-1 -1,-1 0,-1 -1,-1 -1,-1 0,-1 -1,-1 -1,-1 -1,-1 0,-1 -1,-1 -1,-1 0,-1 -1,-1 -1,-1 0,-1 -1,-1 -1,-1 0,-1 -1,-1 -1,-1 0,-1 -1,-1 -1,-1 0,-1 -1,-1 -1,-1 0,-1 -1,-1 -1,-1 0,-1 -1,-1 -1,-1 0,-1 -1,-1 -1,-1 0,-1 -1,-1 0,-1 -1,-1 0,-1 -1,0 -1,-1 0,-1 -1,-1 -1,-1 0,-1 -1,-1 -1,-1 0,-1 -1,-1 -1,-1 0,-1 -1,-1 -1,-1 0,-1 -1,-1 -1,-1 0,-1 -2,-2 0,-1 -1,-1 -1,-1 0,-1 -1,-1 -1,-1 0,-1 -1,-1 -1,-1 0,-1 -1,-1 -1,-1 -1,1 0,-3 -1,-1 0,-1 -1,-1 0,-1 -1,-1 -1,-1 0,-3 -3,0 0,1 1,1 0,1 1,1 1,1 0,1 1,1 1,1 0,1 1,1 1,-1Z"/>
<path onmouseover="hoverPath(evt)" onmouseout="recoverPath(evt)" fill="rgb(172,198,236)" d="M  130,92l -1,0 0,2 1,1 0,0 1,1 0,1 1,1 1,1 0,1 1,1 1,1 0,1 1,1 0,1 1,1 1,1 1,1 0,1 1,1 1,1 0,1 1,1 1,1 0,1 1,1 1,1 1,1 0,1 1,1 1,1 0,1 1,1 1,1 0,1 1,1 0,1 1,1 1,1 0,1 1,1 1,1 0,1 1,1 1,1 0,1 1,1 1,1 0,1 1,1 1,1 0,1 1,1 1,1 0,1 1,1 1,1 0,1 1,1 2,0 0,-2 -1,-1 0,0 -1,-1 0,-1 -1,-1 -1,-1 0,-1 -1,-1 0,-1 -1,-1 -1,-1 0,-1 -1,-1 -1,-1 -1,-1 0,-1 -1,-1 -1,-1 0,-2 -1,-1 -1,-1 -1,-1 0,-1 -1,-1 -1,-1 0,-1 -1,-1 -1,-1 0,-1 -1,-1 -1,-1 0,-1 -1,-1 -1,-1 0,-1 -1,-1 -1,-1 0,-1 -1,-1 -1,-1 0,-1 -1,-1 -1,-1 0,-1 -1,-1 -1,-1 0,-1 -1,-1 0,-1 -1,-1 -1,-1 0,-1 -1,-1 -1,-1 0,-3 -1,1 -1,1Z"/>
<path onmouseover="hoverPath(evt)" onmouseout="recoverPath(evt)" fill="rgb(244,242,234)" d="M  0,149l 0,60 4,0 1,-1 5,0 1,-1 5,0 1,-1 5,0 1,-1 5,0 1,1 1,1 4,0 1,-1 5,0 1,-1 5,0 -1,-1 0,-2 1,-1 6,0 0,-1 -1,-1 0,-1 -1,-1 -1,-1 0,-1 -1,-1 -1,-1 0,-1 -1,-1 -1,-1 0,-1 -2,-2 0,-1 -1,-1 -1,-1 0,-1 -1,-1 -1,-1 0,-1 -1,-1 -1,-1 0,-1 -1,-1 -1,-1 0,-1 -1,-1 0,-1 -1,-1 -1,-1 0,-1 -1,-1 -1,-1 0,-1 -1,-1 0,-1 -1,-1 -1,-1 0,-1 -1,-1 0,-1 -1,-1 -1,-1 0,-1 -1,-1 -1,-1 0,-1 -1,-1 0,-1 -1,-1 -1,-1 0,-1 -1,-1 0,-2 -1,0 -1,-1 -2,0 -1,-1 0,-2 1,-1 1,0 0,-1 -1,0 -1,1 -3,0 -1,-1 0,-2 1,-1 1,0 0,-1 -1,-1 0,0 -1,-1 0,-1 -1,-1 -1,-1 0,-1 -1,-1 0,-1 -1,-1 -1,-1 0,-1 -1,-1 -1,-1 0,-1 -2,0Z"/>
<path onmouseover="hoverPath(evt)" onmouseout="recoverPath(evt)" fill="rgb(243,241,233)" d="M  10,109l 0,1 1,1 0,1 1,1 0,1 1,1 1,1 0,1 1,1 1,1 0,1 1,1 1,1 0,1 1,1 0,1 1,1 1,1 0,1 1,1 2,0 1,-1 1,0 1,-1 2,0 1,-1 1,0 1,-1 1,0 1,-1 1,0 1,-1 1,0 1,-1 1,0 1,-1 1,0 1,-1 1,0 1,-1 2,0 1,-1 1,0 1,-1 1,0 1,-1 1,0 1,-1 1,0 1,-1 1,0 1,-1 1,0 1,-1 2,0 1,-1 1,0 1,-1 1,0 1,-1 1,-1 1,0 0,-1 1,-1 0,-1 1,-1 2,0 0,-4 -1,0 -1,1 -1,0 -1,1 -1,0 -1,1 -1,1 -1,0 -1,1 -1,0 -1,1 -1,0 -1,1 -1,1 -1,0 -1,1 -1,0 -1,1 -1,0 -1,1 -1,0 -1,1 -1,0 -1,1 -1,0 -1,1 -3,0 -1,1 -2,0 -1,1 -5,0 -1,-1 0,-2 -2,0 -1,-1 0,-4 -1,-1 0,-2 1,-1 1,-1 1,-1 1,-1 1,-1 1,-1 1,-1 1,-1 1,-1 1,-1 1,-1 1,-1 1,-1 -6,0 -1,-1 -1,0 -1,-1 -3,0 -1,-1 -1,1 -1,0 0,2 -1,1 -1,0 -1,1 0,1 -1,1 -1,1 -1,1 -1,1 -1,1 -4,0 0,1 -1,1 -1,1 -1,1 -1,1 -1,0 -1,1 -1,1 -1,0 0,1 2,0 1,1Z"/>
<path onmouseover="hoverPath(evt)" onmouseout="recoverPath(evt)" fill="rgb(242,241,231)" d="M  240,85l 0,0 -1,1 -2,0 -1,-1 0,2 1,1 1,1 1,1 1,0 1,1 0,1 1,1 1,1 0,1 1,1 1,1 1,1 1,1 1,1 1,0 1,1 1,1 2,0 1,1 1,0 0,-29 -1,0 -1,1 -1,0 -1,1 -1,1 -1,0 -1,1 0,2 -1,1 -2,0 -1,-1 -1,1 -1,1 -1,0 -1,1Z"/>
<path onmouseover="hoverPath(evt)" onmouseout="recoverPath(evt)" fill="rgb(242,240,230)" d="M  255,54l 0,-9 -2,0 0,1 -1,1 -3,0 -1,1 -5,0 -1,1 -3,0 -1,1 -3,0 -1,1 -3,0 -1,1 -2,0 -1,1 -4,0 -1,1 -3,0 -1,1 -3,0 -1,1 -1,0 1,1 0,3 1,1 0,1 1,1 1,1 1,1 1,0 1,1 0,1 1,1 1,0 1,-1 1,0 1,-1 2,0 1,1 0,3 -1,1 -1,0 -1,1 -1,0 1,1 1,1 0,1 1,1 1,1 1,1 1,0 1,1 0,2 2,0 1,-1 1,-1 1,0 1,-1 1,0 1,-1 1,-1 1,0 1,-1 1,-1 1,0 1,-1 1,0 1,-1 1,-1 1,0 1,-1 1,-1 1,0 1,-1 2,0Z"/>
<path onmouseover="hoverPath(evt)" onmouseout="recoverPath(evt)" fill="rgb(242,241,232)" d="M  49,93l -1,0 0,1 -1,1 -1,0 -1,1 -1,1 -1,1 -3,3 -1,1 -3,3 -1,1 -1,1 -1,1 -1,0 0,3 2,0 1,1 0,2 3,0 1,-1 2,0 1,-1 3,0 1,-1 1,0 1,-1 1,0 1,-1 1,0 1,-1 1,0 1,-1 1,0 1,-1 1,0 1,-1 1,-1 1,0 1,-1 1,0 1,-1 1,0 1,-1 1,-1 1,0 1,-1 1,0 1,-1 2,0 1,-1 1,0 1,-1 1,0 1,-1 1,-1 1,-1 1,0 1,-1 1,-1 1,0 1,-1 1,-1 0,-1 1,-1 2,0 1,-1 1,-1 1,-1 1,-1 2,0 1,1 0,2 1,-1 0,-4 -1,1 -3,0 -1,-1 0,-1 -1,-1 0,-1 -1,-1 0,-1 -1,-1 0,-1 -1,-1 -1,-1 -1,-1 -1,0 -1,-1 -9,0 0,1 -1,1 -1,1 -7,7 -3,0 -2,2 0,2 -1,1 -1,1 -1,0 -1,1 -1,1 -1,1 -2,0 -1,-1 0,3 -1,1 -1,1Z"/>
<path onmouseover="hoverPath(evt)" onmouseout="recoverPath(evt)" fill="rgb(243,242,235)" d="M  75,100l 0,0 -1,-1 0,5 1,1 0,0 1,1 2,0 0,-2 1,-1 1,0 1,-1 1,0 1,-1 1,0 1,-1 1,0 1,-1 2,0 1,-1 1,0 1,-1 1,0 1,-1 1,0 1,-1 1,0 1,-1 1,0 1,-1 1,0 1,-1 1,0 1,-1 1,0 1,-1 1,0 1,-1 2,0 1,-1 1,0 1,-1 1,0 1,-1 1,0 1,-1 1,0 1,-1 1,0 0,-1 -1,-1 0,-1 -1,-1 -1,-1 0,-1 -1,-1 -1,-1 0,-1 -1,-1 -1,-1 0,-1 -1,-1 -1,-1 0,-1 -1,-1 -1,-1 -1,-1 0,-1 -1,-1 -1,-1 0,-1 -1,-1 -1,-1 0,-1 -1,-1 -1,-1 0,-1 -1,-1 -1,-1 0,-1 -1,-1 -1,-1 0,-1 -1,-1 -1,-1 0,-1 -1,-1 0,-1 -1,-1 -1,-1 0,-1 -1,-1 -1,-1 0,-1 -1,-1 0,-1 -1,-1 -1,-1 0,-1 -1,-1 -1,-1 0,-1 -1,-1 0,-1 -1,-1 -1,-1 0,-1 -1,-1 -1,-1 0,-1 -1,-1 -1,-1 0,-1 -1,-1 -1,-1 0,-1 -1,-1 0,-1 -1,-1 -1,-1 0,-1 -1,-1 -1,-1 0,-1 -1,-1 -1,-1 0,-1 -1,-1 -1,-1 0,-1 -1,-1 0,-2 -30,0 0,3 1,1 0,2 -1,1 -1,0 0,1 -1,1 -1,1 -1,1 -2,0 -1,1 -2,0 -1,1 -5,0 0,1 -1,1 -1,1 -1,0 0,1 -1,1 0,1 -1,1 0,1 -1,1 -1,1 0,2 -1,1 0,1 -1,1 0,1 -1,1 -1,1 -1,1 -1,1 -1,1 -1,1 -1,1 -1,1 -2,0 -1,1 -2,0 0,11 3,0 1,1 0,-1 1,-1 0,-1 1,-1 2,0 1,-1 0,-1 1,-1 1,-1 1,-1 1,-1 1,0 1,-1 1,0 0,-2 1,-1 3,0 1,-1 8,0 1,1 0,2 2,0 1,-1 2,0 1,1 0,2 1,1 1,0 1,1 1,0 1,1 0,1 1,1 1,1 0,1 1,1 0,1 1,1 1,1 1,1 0,1 1,1 1,0 1,1 1,1 1,1 1,0 1,1 1,-1 2,0 1,1 1,1 1,0 1,1 0,2 1,1 1,0 1,1 1,0 1,1 1,0 1,-1 5,0 1,-1 1,-1 2,0 1,1 0,2 1,0 1,1 4,0 1,1 0,2 1,0 1,1 1,1 1,1 1,1 0,1 1,1 0,1 1,1 0,1 1,1 0,1 1,0 1,-1 2,0 1,1 0,6 -1,1 -1,1 -2,0 -1,-1 0,-2 -1,1 -2,2 -1,1 -2,0 0,1 -2,2 0,2 -1,1 -1,1 -2,0 -1,-1 -1,1 0,0 -1,1 0,2 -1,1Z"/>
<path onmouseover="hoverPath(evt)" onmouseout="recoverPath(evt)" fill="rgb(243,242,234)" d="M  103,46l 0,0 1,1 1,1 0,1 1,1 1,1 0,1 1,1 1,1 0,1 1,1 1,1 0,1 1,1 1,1 0,1 1,1 1,1 0,1 1,1 1,1 0,1 1,1 1,1 0,1 1,1 1,1 0,1 1,1 1,1 1,1 0,1 1,1 1,1 0,1 1,1 1,-1 1,0 1,-1 1,0 1,-1 1,0 1,-1 1,0 1,-1 1,0 1,-1 1,0 1,-1 1,0 1,-1 2,0 1,-1 2,0 0,-1 -1,-1 0,0 -1,-1 -1,-1 0,-1 -1,-1 0,-1 -1,-1 -2,0 -1,-1 -1,-1 0,-2 -3,0 -1,-1 -1,0 -1,-1 -1,-1 0,-2 1,-1 0,-4 -1,-1 0,-2 -1,-1 -1,-1 0,-1 -1,-1 -1,-1 0,-1 -2,-2 -1,-1 -2,0 -1,-1 -1,-1 -1,0 -1,1 -1,0 -1,1 -1,1 0,2 -1,1 -1,1 -1,1 -6,0 -1,1 -1,0 -1,1Z"/>
<path onmouseover="hoverPath(evt)" onmouseout="recoverPath(evt)" fill="rgb(243,242,234)" d="M  134,207l -3,0 -1,1 -5,0 -1,1 -5,0 -1,1 -6,0 -1,-1 -6,0 -1,1 -4,0 -1,1 -6,0 -1,1 -4,0 -1,1 -5,0 -1,1 -3,0 0,1 1,0 3,3 1,1 1,1 1,1 1,1 1,1 1,1 1,1 0,1 1,1 0,1 1,1 0,1 1,1 0,2 1,1 0,3 1,1 0,3 1,1 0,2 1,1 0,3 1,1 0,3 1,1 0,2 41,0 0,-2 1,-1 4,0 0,-2 1,-1 5,0 1,-1 5,0 1,1 2,0 1,-1 3,0 1,-1 2,0 1,-1 1,0 0,-2 1,-1 1,0 1,-1 1,0 1,-1 1,0 1,-1 2,0 1,1 1,-1 1,0 1,-1 1,0 1,-1 1,0 1,-1 1,0 1,-1 1,0 1,-1 1,0 1,-1 1,0 0,-2 1,-1 1,0 1,-1 2,0 1,1 1,0 1,-1 4,0 1,1 1,1 0,1 1,1 1,1 0,1 1,1 2,0 1,1 0,2 -1,1 1,1 0,1 1,1 0,1 1,1 1,1 0,1 1,1 0,1 1,1 1,1 0,3 15,0 0,-1 -1,-1 0,-1 -1,-1 -1,-1 0,-1 -1,-1 0,-1 -1,-1 -1,-1 0,-1 -1,-1 -1,-1 0,-1 -1,-1 -1,-1 0,-1 -1,-1 -1,-1 0,-1 -1,-1 -1,-1 0,-1 -1,-1 -1,-1 0,-1 -1,-1 -1,-1 0,-2 -1,0 -1,-1 0,-2 -1,0 -1,-1 0,-2 -1,0 -1,-1 0,-2 -1,0 -1,-1 0,-2 -1,0 -1,-1 0,-1 -1,-1 -1,-1 0,-1 -1,-1 -1,-1 0,-1 -1,-1 -1,-1 0,-1 -1,-1 -1,-1 0,-1 -1,-1 0,-1 -5,0 -1,-1 0,-1 -1,0 -1,1 -5,0 -1,1 -4,0 -1,1 -5,0 -1,1 -5,0 -1,1 -5,0 -1,1 -6,0 -1,1 -5,0 -1,1 -3,0 0,2 -1,1 -5,0 -1,1Z"/>
<path onmouseover="hoverPath(evt)" onmouseout="recoverPath(evt)" fill="rgb(243,241,233)" d="M  154,255l 62,0 0,-2 -1,-1 0,0 -1,-1 0,-1 -1,-1 0,-1 -1,-1 -1,-1 0,-1 -1,-1 0,-1 -1,-1 0,-1 -1,-1 0,-1 -1,-1 -1,-1 0,-1 -1,-1 -1,-1 0,-1 -1,-1 -2,0 -1,1 -2,0 -1,1 -2,0 -1,-1 0,2 -1,1 -1,0 -1,1 -1,0 -1,1 -1,0 -1,1 -1,0 -1,1 -1,0 -1,1 -1,0 -1,1 -1,0 -1,1 -2,0 -1,-1 -1,1 -1,0 -1,1 -1,0 -1,1 -1,0 0,2 -1,1 -1,0 -1,1 -2,0 -1,1 -3,0 -1,1 -4,0 -1,-1 -3,0 -1,1 -5,0 0,2 -1,1 -4,0 0,1Z"/>
<path onmouseover="hoverPath(evt)" onmouseout="recoverPath(evt)" fill="rgb(246,199,108)" d="M  0,215l 0,8 3,0 1,-1 5,0 1,-1 5,0 1,-1 4,0 1,-1 5,0 1,-1 5,0 1,-1 6,0 1,1 1,1 4,0 1,-1 4,0 1,-1 5,0 1,-1 5,0 0,-1 1,-1 4,0 0,-2 1,-1 6,0 1,1 5,0 1,-1 5,0 1,-1 4,0 1,-1 6,0 1,-1 4,0 1,-1 5,0 1,-1 2,0 1,1 0,1 4,0 1,-1 5,0 1,-1 5,0 1,-1 5,0 1,-1 5,0 0,-2 1,-1 3,0 1,-1 5,0 1,-1 6,0 1,-1 5,0 1,-1 5,0 1,-1 5,0 1,-1 4,0 1,-1 5,0 1,-1 3,0 1,1 0,1 4,0 1,-1 0,0 1,-1 2,0 1,1 1,1 1,0 0,-3 1,-1 2,0 1,-1 5,0 1,-1 5,0 1,-1 5,0 1,-1 5,0 0,-1 1,-1 1,-1 6,0 1,1 6,0 1,-1 1,0 0,-1 1,-1 2,0 1,-1 4,0 0,-9 -3,0 -1,-1 -1,0 0,1 -1,1 -2,0 -1,-1 0,-1 -1,1 -1,1 -1,0 0,1 -1,1 -6,0 -1,1 -4,0 -1,1 -6,0 -1,-1 -4,0 -1,1 -6,0 -1,1 -6,0 -1,1 -5,0 -1,1 -13,0 -1,1 -2,0 0,3 -1,1 -6,0 -1,-1 0,-1 -3,0 -1,1 0,2 -1,1 -5,0 -1,1 -5,0 -1,-1 0,-1 -5,0 -1,1 -5,0 -1,1 -5,0 -1,1 -5,0 -1,1 -5,0 -1,1 -5,0 -1,1 -5,0 -1,1 -6,0 -1,1 -5,0 -1,1 -6,0 -1,1 -5,0 -1,1 -5,0 -1,1 -5,0 -1,1 -5,0 -1,1 -3,0 -1,1 0,2 -1,1 -5,0 -1,1 -6,0 -1,1 -5,0 -1,1 -5,0 -1,1 -5,0 -1,1 -6,0 -1,-1 -1,-1 -3,0 -1,1 -5,0 -1,1 -5,0 -1,1 -5,0 -1,1 -5,0Z"/>
<path onmouseover="hoverPath(evt)" onmouseout="recoverPath(evt)" fill="rgb(252,252,251)" d="M  4,55l 0,0 1,1 0,1 1,1 1,1 0,1 1,1 0,1 2,2 0,1 1,1 0,1 1,1 1,1 0,1 1,1 0,1 1,1 0,1 2,2 0,1 1,1 0,1 1,1 0,1 1,1 0,1 1,1 0,1 1,1 0,1 1,1 0,4 1,-1 1,0 0,-2 1,-1 1,0 1,-1 2,0 -1,-1 -1,0 -1,-1 -1,0 -1,-1 0,-2 -1,0 -1,-1 -1,-1 -1,-1 0,-1 -1,-1 -1,-1 -1,-1 0,-2 -1,0 -1,-1 -1,-1 0,-1 -1,-1 0,-1 -1,-1 -1,-1 0,-1 -1,-1 0,-1 -1,-1 0,-1 -1,-1 0,-2 -1,-1 0,-1 -1,-1 0,-7 -1,2 0,1 -1,1 -2,0 0,1 1,1 0,1 27,33 2,0 -2,-1 0,1 -27,-33 -3,-3 0,-1 -1,0 0,1 1,0 3,3Z"/>
<path onmouseover="hoverPath(evt)" onmouseout="recoverPath(evt)" fill="rgb(250,250,246)" d="M  136,24l -1,0 0,1 -1,1 -1,1 -3,0 -1,-1 0,2 -1,1 -1,0 -1,1 -3,0 -1,-1 -1,1 -1,0 0,2 -1,1 -1,0 -1,1 -1,0 -1,1 -3,0 -1,-1 -5,0 -1,1 0,0 -1,1 0,7 1,-1 6,0 1,-1 1,-1 0,-2 1,-1 1,-1 1,-1 1,0 1,-1 3,0 1,1 1,1 1,0 1,-1 0,-3 2,-2 2,0 1,-1 2,0 1,1 0,-2 1,-1 1,0 1,-1 2,0 1,-1 2,0 1,1 0,-2 1,-1 1,0 1,-1 1,0 1,-1 3,0 1,1 0,-2 1,-1 1,0 1,-1 1,0 1,-1 2,0 1,-1 1,0 1,-1 1,0 1,-1 2,0 1,-1 3,0 1,1 0,3 1,1 1,1 1,0 1,1 1,0 1,1 1,1 1,1 1,1 0,1 1,1 1,1 0,3 2,0 1,1 0,1 1,0 1,1 1,1 2,2 0,1 1,1 0,1 1,0 1,1 1,1 1,1 1,1 1,1 0,1 1,1 1,1 1,1 1,0 1,-1 0,-1 1,-1 -4,0 -1,-1 -1,-1 -1,-1 -1,-1 0,-1 -1,-1 0,-1 -1,0 -1,-1 -1,-1 -1,-1 -1,-1 0,-1 -1,-1 0,-1 -1,0 -1,-1 -1,-1 -1,-1 0,-2 -1,0 -1,-1 -1,-1 -1,-1 -1,-1 0,-1 -1,-1 0,-1 -1,0 -1,-1 -1,-1 -2,-2 0,-4 -1,-1 -2,0 -1,-1 0,-2 -2,0 -1,-1 0,-1 -1,0 -1,-1 -1,-1 -1,-1 0,-2 -10,0 0,2 3,0 1,1 3,0 1,1 1,1 1,1 2,0 1,1 1,1 0,4 -1,1 -1,0 -1,1 -2,0 -1,1 -2,0 -1,-1 0,2 -1,1 -1,0 -1,1 -2,0 -1,1 -2,0 -1,-1 0,2 -1,1 -1,0 -1,1 -1,0 -1,1 -2,0 -1,1Z"/>
<path onmouseover="hoverPath(evt)" onmouseout="recoverPath(evt)" fill="rgb(239,237,224)" d="M  163,135l 0,1 1,1 1,1 0,1 1,1 0,1 1,1 1,1 0,1 1,1 1,-1 2,0 1,-1 5,0 1,-1 6,0 1,-1 4,0 1,-1 -1,-1 0,-1 -1,-1 0,-1 -1,-1 0,-1 -1,-1 -1,0 -1,1 -3,0 -1,-1 0,-2 1,-1 1,-1 1,0 0,-1 -1,-1 0,-1 -1,-1 -1,-1 0,-1 -1,-1 -1,-1 -2,2 -1,0 -1,1 -1,0 -1,1 0,1 -1,1 -1,0 0,2 -1,1 0,1 -1,1 -1,0 -1,1 -5,0 0,1 1,1Z"/>
<path onmouseover="hoverPath(evt)" onmouseout="recoverPath(evt)" fill="rgb(242,239,228)" d="M  179,149l 0,0 -1,-1 -3,0 -1,1 0,1 1,1 0,1 1,1 1,1 0,1 1,1 1,1 1,1 0,1 1,1 1,1 0,1 1,1 0,1 1,1 1,1 0,1 1,1 1,1 1,1 0,1 1,1 1,1 0,1 1,1 1,1 1,1 0,1 4,0 1,-1 5,0 1,-1 6,0 1,-1 6,0 1,-1 6,0 1,1 4,0 1,-1 4,0 1,-1 6,0 0,-1 1,-1 1,0 1,-1 1,-1 2,0 1,1 0,1 1,-2 3,0 1,1 2,0 0,-22 -7,0 -1,-1 0,-2 -2,0 -1,-1 0,-2 -1,-1 0,-3 -6,0 -1,1 -5,0 -1,1 -5,0 -1,1 -5,0 -1,1 -4,0 -1,1 -1,0 0,6 1,1 0,0 1,1 0,2 -1,1 -2,0 -1,1 -1,1 -2,0 -1,-1 0,-3 1,-1 1,0 0,-3 -1,-1 0,-3 -6,0 -1,1 -3,0 -1,1 -7,0 -1,1 -3,0 0,3 1,1 0,2 -1,1 -2,0 -1,-1 -1,-1 -1,-1 0,-1 -1,-1Z"/>
<path onmouseover="hoverPath(evt)" onmouseout="recoverPath(evt)" fill="rgb(172,198,238)" d="M  231,247l 0,0 1,1 0,1 1,1 1,1 0,1 1,1 0,2 2,0 0,-2 -1,-1 0,0 -1,-1 0,-1 -1,-1 -1,-1 0,-1 -1,-1 -1,1 0,-3 -1,-1 0,-1 -1,-1 -1,-1 0,-1 -1,-1 -1,-1 0,-1 -1,-1 -1,-1 0,-1 -1,-1 -1,-1 0,-1 -1,-1 -1,0 -1,-1 0,-2 -1,-1 -1,-1 0,-1 -1,-1 -1,-1 0,-1 -1,-1 -1,-1 0,-1 -1,-1 -1,-1 0,-1 -1,-1 -1,-1 0,-1 -1,0 -1,-1 0,-2 -1,-1 0,-1 -1,-1 -1,-1 0,-1 -1,-1 0,-1 -1,0 -1,-1 0,-1 -1,-1 0,-2 -1,-1 -1,1 0,1 1,1 0,1 1,1 1,1 0,1 1,1 1,1 0,1 1,1 1,1 0,1 1,1 0,-1 -1,-2 -1,-1 -1,-2 -3,-4 -1,-3 0,0 8,15 2,2 0,1 1,0 1,2 0,1 1,0 1,2 0,1 1,0 1,2 0,1 1,0 1,2 0,1 1,1 0,-1 1,3 1,1 1,1 0,1 1,1 1,1 0,1 1,1 1,1 0,1 1,1 1,1 0,1 1,1 1,1 0,1 1,1 1,-1Z"/>
<path onmouseover="hoverPath(evt)" onmouseout="recoverPath(evt)" fill="rgb(243,242,234)" d="M  232,215l 0,3 -1,1 1,1 0,1 1,1 1,1 2,0 1,1 0,1 1,1 1,1 0,1 1,1 1,1 1,1 0,1 1,1 0,1 1,1 1,1 0,1 1,1 1,1 0,2 -1,1 1,1 2,0 1,1 0,1 1,1 1,1 1,1 0,1 1,1 1,0 0,-52 -2,0 -1,1 0,1 -1,1 -2,0 -1,1 0,1 -1,1 -2,0 -1,1 0,1 -1,1 -2,0 -1,1 0,1 -1,1 -2,0 -1,1 0,1 -1,1 -2,0 -1,1Z"/>
</svg>