<svg width="256" height="256" xmlns="http://www.w3.org/2000/svg"><script> 
var tempColor;
function hoverPath(evt){
obj = evt.target;
tempColor = obj.getAttribute("fill");
obj.setAttribute("fill","red");
//alert(tempColor);
//obj.setAttribute("stroke","red");}
function recoverPath(evt){
obj = evt.target;
obj.setAttribute("fill", tempColor);
//obj.setAttribute("stroke", tempColor);
}</script><path onmouseover="hoverPath(evt)" onmouseout="recoverPath(evt)" fill="rgb(242,241,230)" d="M  16,248l 1,-1 0,-3 -1,-1 0,-1 -1,-1 0,-1 -1,-1 0,-1 -1,-1 0,-1 -1,-1 0,-1 -1,-1 0,-1 -1,-1 0,-1 -1,-1 0,-1 -1,-1 0,-2 -1,-1 0,-1 -1,-1 0,-1 -1,-1 0,-1 -1,-1 0,-1 -1,-1 0,-1 -1,-1 0,-1 -1,-1 0,-2 -1,0 0,45 3,0 0,-2 1,-1 2,0 1,-1 2,0 1,-1 2,0 1,-1 1,0 1,-1Z"/>
<path onmouseover="hoverPath(evt)" onmouseout="recoverPath(evt)" fill="rgb(169,196,237)" d="M  24,103l 1,1 0,1 28,0 1,1 0,1 1,0 1,1 1,0 1,1 1,1 0,1 2,0 1,1 1,1 1,0 1,1 1,1 1,1 1,0 1,1 1,1 1,0 1,1 1,1 1,1 1,0 1,1 1,1 1,1 1,1 1,0 1,1 1,1 1,1 1,1 1,0 1,1 1,1 1,1 1,0 1,1 1,1 1,0 1,1 1,1 1,0 1,1 1,0 1,1 1,1 1,0 1,1 1,1 1,0 1,1 1,0 1,1 1,1 1,0 1,1 1,0 1,1 1,1 1,0 1,1 1,1 1,0 1,1 1,0 1,1 1,1 1,0 1,1 1,1 1,0 1,1 1,0 1,1 1,1 1,0 1,1 1,1 1,0 1,1 1,0 1,1 1,1 1,0 1,1 1,1 1,0 1,1 1,0 1,1 1,1 1,0 1,1 1,1 1,0 1,1 1,0 1,1 1,1 1,0 1,1 1,0 1,1 1,1 1,0 1,1 1,1 1,0 1,1 1,0 1,1 1,1 1,0 1,1 1,1 1,0 1,1 1,0 1,1 1,1 1,0 1,1 1,1 1,1 1,0 1,1 1,1 1,0 1,1 1,1 1,0 1,1 1,1 1,0 1,1 1,1 1,1 1,0 1,1 1,1 1,0 1,1 1,1 1,0 1,1 1,1 1,1 1,0 1,1 1,1 1,0 1,1 1,1 1,1 1,0 1,1 1,1 1,0 1,1 1,1 1,1 1,0 1,1 1,1 1,1 1,0 1,1 1,1 1,0 1,1 1,1 1,1 1,0 1,1 1,1 1,1 1,0 1,1 1,1 1,0 1,1 1,1 1,1 1,0 1,1 1,1 1,1 1,0 1,1 1,1 1,0 1,1 0,2 1,1 1,0 1,1 1,0 1,1 1,1 1,1 1,1 1,1 1,1 0,-246 -255,0 0,103 6,0 1,-1 4,0 1,1 1,0 1,1 1,0 1,-1Z"/>
<path onmouseover="hoverPath(evt)" onmouseout="recoverPath(evt)" fill="rgb(189,215,148)" d="M  50,248l -1,0 -1,-1 1,2 0,0 1,1 0,1 1,1 0,3 28,0 0,-2 1,-1 3,0 1,-1 2,0 1,-1 3,0 -2,-1 0,0 -1,-1 0,-1 -1,-1 -2,0 -1,-1 -2,0 0,1 -1,1 -1,0 0,1 -1,1 -1,1 -1,1 -6,0 -1,-1 0,-1 -2,0 -1,-1 -1,0 -1,-1 0,-1 -3,0 0,1 -1,1Z"/>
<path onmouseover="hoverPath(evt)" onmouseout="recoverPath(evt)" fill="rgb(242,242,235)" d="M  78,168l 0,0 1,1 0,1 1,1 0,1 1,1 0,1 1,1 0,1 1,1 1,1 0,1 1,1 0,1 1,1 0,1 1,1 0,1 1,1 0,1 1,1 0,1 1,1 0,1 1,1 1,1 0,1 1,1 0,1 1,1 0,1 1,1 0,1 1,1 0,1 1,1 0,1 1,1 0,1 1,1 1,1 0,1 1,1 0,1 1,1 0,1 1,1 0,1 1,1 0,1 1,1 0,1 1,1 0,1 1,1 0,1 1,1 1,1 1,1 1,1 1,1 1,1 1,1 1,1 1,0 1,1 1,1 1,0 1,1 1,1 1,0 1,1 1,1 1,0 1,1 1,0 1,1 1,1 1,0 1,1 1,0 1,1 1,1 1,1 1,0 1,1 1,1 1,1 1,1 0,2 -1,1 -2,0 -1,-1 -1,-1 -1,0 -1,1 -2,0 -1,-1 -1,-1 -1,0 -1,-1 -3,0 -1,-1 0,-2 1,-1 0,-1 -2,0 -1,1 -2,0 -1,1 -3,0 -1,1 -1,0 -1,1 -3,0 -1,1 -3,0 -1,-1 -1,0 -1,-1 -1,0 0,1 -1,1 -3,0 -1,1 -2,0 -1,1 -1,0 0,2 -1,1 -3,0 -1,1 -2,0 -1,1 -3,0 0,1 75,0 0,-1 -1,-1 0,0 -1,-1 -1,-1 -1,-1 -1,-1 0,-2 -1,-1 -2,0 -1,-1 0,-1 -1,0 -1,-1 -2,0 -1,-1 -1,-1 -3,0 -1,-1 -1,-1 -2,0 -1,-1 0,-2 -1,-1 0,-2 -1,0 -1,-1 0,-1 -1,-1 -1,-1 -1,0 -1,-1 0,-1 -1,-1 -1,-1 -1,-1 -1,0 -1,-1 0,-1 -2,0 -1,-1 0,-1 -1,0 -1,-1 0,-5 -1,-1 -4,0 -1,-1 0,-1 -1,0 -1,-1 -1,-1 0,-1 -1,-1 0,-3 -1,-1 0,-3 -4,0 -1,-1 0,-1 -1,-1 0,-2 1,-1 -1,-1 0,-1 -2,0 -1,-1 0,-2 1,-1 -1,-1 0,-2 1,-1 -1,0 -1,-1 -1,-1 0,-2 1,-1 -1,-1 0,-1 -1,0 -1,-1 0,-1 -1,0 -1,-1 0,-1 -1,-1 0,-2 -1,-1 0,-1 -1,-1 0,1 -1,1 -2,0 -1,-1 -1,-1 -1,0 -1,-1 0,-4 1,-1 1,0 0,-1 -1,-1 0,-3 -1,-1 0,4 -1,1 -2,0 -1,-1 0,-1 -1,-1 0,2 -1,1 0,2 1,0 1,1 0,2 1,1 0,1 1,1Z"/>
<path onmouseover="hoverPath(evt)" onmouseout="recoverPath(evt)" fill="rgb(192,216,152)" d="M  6,204l -1,0 0,2 1,1 0,1 1,1 0,1 1,1 0,1 1,1 0,1 1,1 0,2 1,1 0,1 1,1 0,1 1,1 0,1 1,1 0,1 1,1 0,2 1,1 0,1 1,1 0,1 1,1 0,1 1,1 1,1 0,2 1,1 0,2 3,0 1,-1 2,0 1,-1 1,0 1,-1 2,0 1,-1 2,0 1,1 0,2 1,1 0,1 3,0 1,-1 2,0 1,-1 2,0 0,-1 1,-1 2,0 -2,-1 -1,0 -1,-1 0,-3 1,-1 4,0 0,-1 1,-1 0,-1 1,-1 1,-1 1,-1 1,-1 1,0 1,-1 1,0 1,-1 2,0 0,-1 1,-1 2,0 1,-1 1,0 0,-1 1,-1 0,-2 -1,0 -1,-1 -1,0 -1,-1 -1,0 -1,-1 0,-2 1,-1 1,-1 2,0 1,-1 1,-1 1,-1 -5,0 -1,-1 -1,0 0,3 -1,1 -2,0 -1,-1 0,-1 -1,0 -1,1 -1,0 -1,1 -2,0 -1,1 0,1 -1,1 -4,0 -1,1 -2,0 -1,1 -4,0 0,1 -1,1 -1,1 -1,1 -1,1 -5,0 -1,-1 0,-1 -1,0 -1,-1 -1,-1 -1,-1 0,-2 1,-1 2,0 0,-1 1,-1 1,0 1,-1 0,-3 1,-1 -1,-1 0,-1 -1,-1 0,-1 -1,-1 0,2 -1,1 -1,1 -4,0 -1,-1 0,-1 -5,0 -1,1 -1,0 -1,1 0,1 -1,1 -2,0 -1,-1 0,-1 -1,0 -1,1Z"/>
<path onmouseover="hoverPath(evt)" onmouseout="recoverPath(evt)" fill="rgb(233,233,230)" d="M  20,115l 2,0 1,-1 4,0 0,-3 -1,-1 -13,0 -1,-1 0,-1 -2,0 -1,-1 0,-1 -2,0 -1,-1 -6,0 0,16 1,0 1,-1 3,0 1,-1 4,0 1,-1 2,0 1,-1 1,0 1,-1 3,0 1,-1Z"/>
<path onmouseover="hoverPath(evt)" onmouseout="recoverPath(evt)" fill="rgb(190,213,177)" d="M  89,246l 0,1 1,1 1,-1 1,0 1,-1 2,0 1,-1 3,0 0,-1 1,-1 3,0 1,1 1,0 1,1 1,0 1,-1 3,0 1,-1 1,0 1,-1 3,0 1,-1 2,0 1,-1 4,0 1,1 0,-1 1,1 -1,1 0,2 -1,1 3,0 1,1 1,0 1,1 1,1 1,-1 3,0 1,1 1,1 -3,-3 -1,0 -1,-1 -1,-1 -1,-1 -1,0 -1,-1 -1,0 -39,4 35,-7 -1,0 -1,-1 -1,-1 -1,0 -1,-1 -1,-1 -1,0 -1,-1 -1,-1 -1,0 -1,-1 -1,-1 -1,-1 -1,-1 -1,-1 -1,-1 -1,-1 -1,-1 -1,-1 0,-1 -1,-1 0,-1 -1,-1 0,-1 -1,-1 0,-1 -1,-1 0,-1 -1,-1 0,-1 -1,-1 0,-1 -1,-1 0,-1 -1,-1 -1,-1 0,-1 -1,-1 0,-1 -1,-1 0,-1 -1,-1 0,-1 -1,-1 0,-1 -1,-1 0,-1 -1,-1 0,-1 -1,-1 -1,-1 0,-1 -1,-1 0,-1 -1,-1 0,-1 -1,-1 0,-1 -1,-1 0,-1 -1,-1 0,-1 -1,-1 0,-1 -1,-1 -1,-1 0,-1 -1,-1 0,-1 -1,-1 0,-1 -1,-1 0,-1 -1,-1 -1,-1 0,-1 -1,-1 0,-2 -1,0 -1,-1 0,-4 -1,1 -1,0 -1,1 0,1 1,1 0,1 1,1 1,1 0,1 1,1 1,1 0,1 1,1 1,1 0,1 1,1 0,1 1,1 0,1 1,1 0,1 1,1 0,1 1,1 1,1 0,2 1,1 1,1 0,4 -1,1 -1,0 -1,1 -2,0 -1,1 -2,0 -1,1 -2,0 -1,1 -1,1 -2,0 -1,1 -3,0 -1,1 -2,0 -1,-1 -1,0 -2,-2 0,-3 1,-1 6,0 -5,-1 -1,0 -1,-1 0,-1 -1,-1 0,-2 -1,-1 0,-1 -1,-1 0,-1 -1,-1 0,-1 -1,-1 0,-1 -1,-1 2,5 0,2 -1,1 -1,1 -2,0 -1,1 -3,0 -1,1 -2,0 -1,1 -2,0 -1,1 -1,0 -1,1 -2,0 0,2 -1,1 -1,0 -1,1 -2,0 -1,1 -1,0 -1,1 -2,0 -1,1 1,0 3,-1 1,1 0,0 1,1 0,1 1,1 0,1 1,1 0,2 -1,1 0,3 -1,1 -1,1 -1,0 0,1 -1,1 -2,0 1,1 0,0 1,1 1,0 1,1 0,1 3,0 1,-1 0,0 1,-1 1,-1 0,-1 1,-1 4,0 1,-1 2,0 1,-1 4,0 0,-1 2,-2 2,0 1,-1 1,0 1,-1 3,0 1,1 0,-2 1,-1 3,0 1,1 5,0 1,1 0,2 -1,1 -2,2 -1,1 -2,0 -1,1 1,0 1,1 1,0 1,1 1,0 1,1 0,4 -1,1 0,1 -1,1 -1,0 -1,1 -2,0 0,1 -1,1 -2,0 -1,1 -1,0 -1,1 -1,0 -1,1 -1,1 -1,1 0,1 -1,1 0,1 -1,1 -4,0 0,1 1,0 1,1 1,0 1,1 0,2 -1,1 -2,0 0,1 -1,1 -2,0 0,2 1,1 3,0 1,1 9,0 0,-1 1,-1 5,0 1,1 0,1 1,0 1,1 2,0 1,1 0,1 4,0 1,-1 1,-1 0,-1 1,-1 1,0 0,-1 1,-1 4,0 1,1 2,0 1,1 36,-6 -35,7Z"/>
<path onmouseover="hoverPath(evt)" onmouseout="recoverPath(evt)" fill="rgb(252,252,250)" d="M  7,198l 0,2 -1,1 3,0 1,1 0,0 1,-1 1,-1 1,0 1,-1 7,0 0,-2 1,-1 -3,0 -1,1 -2,0 -1,1 -2,0 -1,1 -4,0 -1,-1 16,-2 0,0 1,-1 2,0 1,-1 1,0 1,-1 2,0 1,-1 -1,0 -3,1 -2,1 -1,0 -2,2 -16,2 15,3 -22,0 0,7 2,0 1,1 0,2 1,1 0,1 1,1 0,1 1,1 0,1 1,1 0,1 1,1 0,1 1,1 0,1 1,1 0,2 1,1 0,1 1,1 0,1 1,1 0,1 1,1 0,1 1,1 0,1 1,1 0,1 1,1 0,1 1,1 0,1 1,1 0,5 -1,1 -1,1 -1,0 -1,1 -1,0 -1,1 -2,0 -1,1 -2,0 -1,1 -2,0 0,1 20,0 0,-2 -1,-1 0,-1 -1,-1 0,-5 1,-1 2,0 1,-1 2,0 1,-1 4,0 1,1 0,-1 -1,-1 0,-2 -1,1 -2,0 -1,1 -1,0 -1,1 -2,0 -1,1 -5,0 -1,-1 0,-2 -1,-1 0,-2 -1,-1 -1,-1 0,-1 -1,-1 0,-1 -1,-1 0,-1 -1,-1 0,-2 -1,-1 0,-1 -1,-1 0,-1 -1,-1 0,-1 -1,-1 0,-1 -1,-1 0,-2 -1,-1 0,-1 -1,-1 0,-1 -1,-1 0,-1 -1,-1 0,-1 -1,-1 0,-4 1,-1 18,-1 -15,-3 28,46 1,1 0,-1 -1,0 -28,-46 0,-4 1,-1 -2,2 0,0 18,5 0,1 1,-1 -18,-4Z"/>
<path onmouseover="hoverPath(evt)" onmouseout="recoverPath(evt)" fill="rgb(244,243,236)" d="M  58,113l 0,0 -1,-1 0,-1 -1,-1 -1,0 -1,-1 -1,0 -1,-1 0,-1 -7,0 0,1 1,0 1,1 0,1 1,0 1,1 2,0 1,1 0,1 1,1 0,2 1,1 0,2 1,1 0,1 1,1 0,1 1,1 0,1 1,1 0,1 1,1 0,1 1,1 0,2 1,1 0,1 1,1 0,1 1,1 0,2 1,1 0,1 1,1 0,1 1,1 0,1 1,1 0,2 1,1 0,2 1,1 0,2 2,0 1,1 4,0 1,1 1,1 0,-3 1,-1 2,0 1,1 1,1 0,3 1,1 0,3 -1,1 -1,0 0,2 1,0 1,1 1,1 0,-1 1,-1 2,0 1,1 1,1 0,1 1,1 0,2 1,1 0,1 1,0 1,1 0,1 1,0 1,1 0,1 1,1 0,2 -1,1 1,1 1,0 1,1 0,2 -1,1 1,1 0,2 -1,1 2,0 1,1 0,1 1,1 0,2 -1,1 1,1 0,1 4,0 1,1 0,3 1,1 0,3 1,1 0,1 1,1 1,0 1,1 0,1 4,0 1,1 1,1 0,5 1,0 1,1 0,1 2,0 1,1 0,1 1,0 1,1 1,1 1,1 1,1 0,1 1,0 1,1 1,1 1,1 0,1 1,0 1,1 0,2 1,1 0,2 2,0 1,1 1,1 3,0 1,1 1,1 2,0 1,1 1,0 1,1 0,1 1,0 1,-1 1,-1 1,-1 2,0 1,1 0,2 -1,1 -1,1 -1,1 0,1 1,1 1,1 1,1 1,1 1,1 0,2 97,0 0,-7 -1,0 -1,-1 -1,-1 -1,-1 -1,-1 -1,-1 -1,-1 -1,0 -1,-1 -1,0 -1,-1 -1,-1 0,-2 -1,0 -1,-1 -1,-1 -1,0 -1,-1 -1,-1 -1,-1 -1,0 -1,-1 -1,-1 -1,-1 -1,0 -1,-1 -1,-1 -1,0 -1,-1 -1,-1 -1,-1 -1,0 -1,-1 -1,-1 -1,-1 -1,0 -1,-1 -1,-1 -1,0 -1,-1 -1,-1 -1,-1 -1,0 -1,-1 -1,-1 -1,-1 -1,0 -1,-1 -1,-1 -1,0 -1,-1 -1,-1 -1,-1 -1,0 -1,-1 -1,-1 -1,0 -1,-1 -1,-1 -1,-1 -1,0 -1,-1 -1,-1 -1,0 -1,-1 -1,-1 -1,0 -1,-1 -1,-1 -1,-1 -1,0 -1,-1 -1,-1 -1,0 -1,-1 -1,-1 -1,0 -1,-1 -1,-1 -1,0 -1,-1 -1,-1 -1,-1 -1,0 -1,-1 -1,-1 -1,0 -1,-1 -1,0 -1,-1 -1,-1 -1,0 -1,-1 -1,-1 -1,0 -1,-1 -1,0 -1,-1 -1,-1 -1,0 -1,-1 -1,-1 -1,0 -1,-1 -1,0 -1,-1 -1,-1 -1,0 -1,-1 -1,0 -1,-1 -1,-1 -1,0 -1,-1 -1,-1 -1,0 -1,-1 -1,0 -1,-1 -1,-1 -1,0 -1,-1 -1,-1 -1,0 -1,-1 -1,0 -1,-1 -1,-1 -1,0 -2,-2 -1,0 -1,-1 -1,0 -1,-1 -1,-1 -1,0 -1,-1 -1,-1 -1,0 -1,-1 -1,0 -1,-1 -1,-1 -1,0 -1,-1 -1,-1 -1,0 -1,-1 -1,0 -1,-1 -1,-1 -1,0 -1,-1 -1,0 -2,-2 -1,0 -1,-1 -1,-1 -1,0 -1,-1 -1,0 -1,-1 -1,-1 -1,0 -1,-1 -1,-1 -1,0 -1,-1 -1,-1 -1,-1 -1,0 -1,-1 -1,-1 -1,-1 -1,-1 -1,0 -1,-1 -1,-1 -1,-1 -1,-1 -1,0 -1,-1 -1,-1 -1,-1 -1,0 -1,-1 -1,-1 -1,0 -1,-1 -1,-1 -1,-1 -1,0 -1,-1 -1,-1Z"/>
<path onmouseover="hoverPath(evt)" onmouseout="recoverPath(evt)" fill="rgb(241,239,229)" d="M  63,190l 3,0 1,1 0,2 -1,1 -6,0 0,1 1,1 1,0 1,1 1,-1 3,0 1,-1 2,0 1,-1 1,-1 2,0 1,-1 2,0 1,-1 2,0 1,-1 1,0 0,-2 -1,-1 0,0 -1,-1 0,-2 -1,-1 -1,-1 0,-1 -1,-1 0,-1 -1,-1 0,-1 -1,-1 0,-1 -1,-1 0,-1 -1,-1 -1,-1 0,-1 -1,-1 -1,-1 0,-1 -1,-1 -1,-1 0,-1 -1,-1 0,-2 -1,0 -1,1 -2,0 -1,1 -1,0 -1,1 -2,0 -1,1 -2,0 -1,1 -2,0 -1,1 -2,0 -1,1 -2,0 -1,1 -1,0 -1,1 -2,0 -1,1 -1,0 0,2 4,0 1,1 0,2 -1,1 -7,0 -1,1 -3,0 -1,1 -2,0 -1,1 -2,0 -1,1 -2,0 -1,1 -2,0 -1,1 -2,0 -1,1 -1,0 -1,1 -2,0 0,8 -1,1 -1,0 -1,1 0,2 2,0 1,-1 2,0 1,-1 2,0 1,-1 3,0 1,-1 1,0 1,-1 2,0 1,-1 2,0 1,-1 3,0 1,-1 2,0 1,-1 1,0 1,-1 2,0 1,-1 2,0 1,-1 3,0 1,-1 2,0 1,-1 0,-2 -1,-1 0,-1 -1,-1 0,-2 1,-1 2,0 1,1 1,1 0,1 1,1 0,1 1,1 0,1 1,1 0,1 1,1 0,2 1,1 0,1 1,0 1,1Z"/>
<path onmouseover="hoverPath(evt)" onmouseout="recoverPath(evt)" fill="rgb(241,239,230)" d="M  8,126l 0,0 -1,1 -2,0 -1,1 -4,0 0,36 4,0 1,1 0,2 -1,1 -1,1 4,0 1,1 0,2 -1,1 -1,0 0,3 4,0 0,-5 -1,-1 0,-2 1,-1 1,0 1,-1 1,0 0,-4 1,-1 2,0 1,1 0,1 1,1 3,0 1,1 2,0 1,1 0,3 1,1 1,0 1,-1 1,0 1,-1 2,0 1,-1 1,0 1,-1 3,0 1,-1 1,0 1,-1 2,0 1,-1 1,0 1,-1 3,0 1,-1 1,0 0,-2 -1,-1 0,-2 1,-1 2,0 1,1 0,1 1,1 0,1 2,0 1,-1 2,0 1,-1 1,0 1,-1 1,0 -1,-1 0,-1 -1,-1 0,-2 -1,-1 0,-1 -1,-1 0,-2 -1,-1 0,-2 -1,-1 0,-1 -1,-1 0,-2 -1,-1 0,-1 -1,-1 0,-1 -1,-1 0,-1 -1,-1 0,-1 -1,-1 0,-1 -1,-1 0,-1 -1,-1 0,-1 -1,-1 -1,-1 0,-3 -1,-1 -1,0 -1,-1 0,-2 -1,-1 0,1 -1,1 -2,0 -1,1 -3,0 -1,1 -1,0 -1,1 -2,0 -1,1 -1,0 -1,1 -5,0 -1,1 -2,0 -1,1 -1,0 -1,1 -2,0 -1,1 -4,0 -1,1 -2,0 -6,33 0,-2 1,-1 2,0 1,1 0,2 -1,1 -2,0 -1,-1 6,-33 35,1 1,1 0,1 1,1 0,1 1,1 0,1 1,1 0,1 1,1 0,1 1,1 0,1 1,1 0,2 -1,1 -2,0 -1,-1 0,-1 -1,-1 0,-1 -1,-1 0,-1 -1,-1 0,-1 -1,-1 0,-1 -1,-1 0,-1 -1,-1 0,-2 1,-1 2,0 -35,-1 16,22 1,1 0,1 1,1 0,2 -1,1 -2,0 -1,-1 0,-1 -1,-1 0,-2 1,-1 2,0 -16,-22Z"/>
<path onmouseover="hoverPath(evt)" onmouseout="recoverPath(evt)" fill="rgb(223,227,231)" d="M  21,108l 6,0 1,1 1,1 0,3 1,0 1,-1 2,0 1,-1 3,0 1,-1 2,0 1,-1 1,-1 1,0 0,-1 -19,0 -1,-1 0,-1 -6,0 -1,1 -3,0 -1,-1 -1,0 -1,-1 -2,0 3,2 1,0 2,1 0,1Z"/>
<path onmouseover="hoverPath(evt)" onmouseout="recoverPath(evt)" fill="rgb(241,239,228)" d="M  26,251l 0,0 1,1 0,3 22,0 0,-2 -1,-1 0,-1 -1,-1 0,-1 -1,-1 0,-1 -1,0 -1,-1 -1,-1 0,-2 -1,0 -1,1 -3,0 0,4 -1,1 -2,0 -1,-1 0,-2 -1,-1 0,-1 -2,0 -1,1 -2,0 -1,1 -2,0 0,3 1,1Z"/>
<path onmouseover="hoverPath(evt)" onmouseout="recoverPath(evt)" fill="rgb(175,199,234)" d="M  37,115l 2,0 1,-1 2,0 0,-1 1,-1 2,0 0,-2 -2,0 -1,1 0,0 -1,1 -2,0 -1,1 -3,0 -1,1 -2,0 -1,1 -2,0 -1,1 -4,0 -1,1 -2,0 -1,1 -3,0 -1,1 -1,0 -1,1 -2,0 -1,1 -4,0 -1,1 -3,0 -1,1 -2,0 0,3 3,0 1,-1 2,0 1,-1 2,0 1,-1 4,0 1,-1 2,0 1,-1 1,0 1,-1 2,0 1,-1 5,0 1,-1 1,0 1,-1 2,0 1,-1 1,0 1,-1 1,0 9,-3 0,1 1,1 0,2 1,0 1,1 1,1 0,3 1,1 1,1 0,1 1,1 0,1 1,1 0,1 1,1 0,1 1,1 0,1 1,1 0,1 1,1 0,1 1,1 0,2 1,1 0,1 1,1 0,2 1,1 0,2 1,1 0,1 1,1 0,2 1,1 0,1 1,1 1,0 0,-2 -1,-1 0,-2 -1,-1 0,-2 -1,-1 0,-1 -1,-1 0,-1 -1,-1 0,-1 -1,-1 0,-2 -1,-1 0,-1 -1,-1 0,-1 -1,-1 0,-2 -1,-1 0,-1 -1,-1 0,-1 -1,-1 0,-1 -1,-1 0,-1 -1,-1 0,-1 -1,-1 0,-2 -1,-1 0,-2 -1,-1 0,-1 -2,0 -1,-1 -1,0 -9,3Z"/>
<path onmouseover="hoverPath(evt)" onmouseout="recoverPath(evt)" fill="rgb(246,245,238)" d="M  53,160l 0,2 -1,1 -1,0 -1,1 -3,0 -1,1 -1,0 -1,1 -2,0 -1,1 -1,0 -1,1 -3,0 -1,1 -1,0 -1,1 -2,0 -1,1 -1,0 -1,1 -3,0 -1,-1 -1,-1 0,-3 -2,0 -1,-1 -3,0 -1,-1 -1,-1 0,3 -1,1 -1,0 0,2 -1,1 0,6 -1,1 -6,0 -1,-1 0,-5 1,-1 -3,0 -1,-1 0,-2 1,-1 1,-1 -3,0 0,33 5,0 0,-2 -1,-1 0,-2 1,-1 1,-1 1,-1 2,0 1,1 0,-8 1,-1 2,0 1,-1 1,0 1,-1 2,0 1,-1 2,0 1,-1 2,0 1,-1 2,0 1,-1 2,0 1,-1 3,0 1,-1 7,0 -5,-1 0,-4 1,-1 1,0 1,-1 2,0 1,-1 1,0 1,-1 2,0 1,-1 2,0 1,-1 2,0 1,-1 2,0 1,-1 2,0 1,-1 1,0 1,-1 2,0 1,-1 3,0 1,-1 1,0 1,-1 -1,-1 -1,0 -1,1 -2,0 -1,1 -1,0 -1,1 -1,0 -1,1 -2,0 -1,1 -4,0 -1,-1Z"/>
</svg>