<svg width="256" height="256" xmlns="http://www.w3.org/2000/svg"><script> 
var tempColor;
function hoverPath(evt){
obj = evt.target;
tempColor = obj.getAttribute("fill");
obj.setAttribute("fill","red");
//alert(tempColor);
//obj.setAttribute("stroke","red");}
function recoverPath(evt){
obj = evt.target;
obj.setAttribute("fill", tempColor);
//obj.setAttribute("stroke", tempColor);
}</script><path onmouseover="hoverPath(evt)" onmouseout="recoverPath(evt)" fill="rgb(252,252,250)" d="M  1,216l 0,-1 -1,0 0,5 2,0 1,1 0,2 1,1 0,1 1,1 0,1 1,1 0,1 1,1 0,1 1,1 0,2 1,1 0,1 1,1 0,2 1,1 0,1 1,1 0,2 1,0 1,1 0,1 1,1 0,1 1,1 0,1 1,1 0,1 1,1 0,2 1,0 0,-2 -1,-1 0,-1 -1,-1 0,-1 -1,-1 0,-1 -1,-1 0,-1 -1,-1 0,-3 -1,-1 0,-1 -1,-1 0,-2 -1,0 -1,-1 0,-1 -1,-1 0,-1 -1,-1 0,-1 -1,-1 0,-1 -1,-1 0,-2 -1,-1 0,-2 1,-1 -1,-1 0,-1 -2,0 -1,-1 0,-1 -1,-1Z"/>
<path onmouseover="hoverPath(evt)" onmouseout="recoverPath(evt)" fill="rgb(244,243,235)" d="M  222,8l 0,2 1,1 0,4 1,1 0,2 1,1 0,3 1,1 0,3 1,1 0,3 1,1 0,3 1,1 0,3 1,1 0,2 1,1 1,0 1,-1 1,0 1,-1 1,0 1,-1 1,0 1,-1 1,0 1,-1 1,0 1,-1 1,0 1,-1 1,0 1,-1 1,0 0,-3 -1,-1 0,-1 -1,-1 0,-2 -1,-1 0,-2 -1,-1 0,-1 -1,-1 0,-2 -1,-1 0,-1 -1,-1 0,-2 -1,-1 0,-1 -1,-1 0,-1 -1,-1 0,-2 -1,-1 0,-3 1,-1 0,-1 -14,0 0,1 5,0 1,1 0,2 -1,1 -2,0 -1,1 -4,0Z"/>
<path onmouseover="hoverPath(evt)" onmouseout="recoverPath(evt)" fill="rgb(238,241,234)" d="M  233,48l -1,0 0,2 1,1 0,2 1,1 0,3 1,1 0,3 1,1 0,3 1,1 0,3 1,1 0,2 1,1 0,3 1,1 0,3 -1,1 -1,0 0,2 -1,1 0,2 3,0 1,1 1,0 1,1 0,2 1,0 1,1 0,4 -1,1 -1,0 1,1 0,2 1,0 1,1 0,2 -1,1 -1,1 1,0 1,1 0,0 1,-1 2,0 1,1 0,3 1,1 0,3 -1,1 -1,0 0,3 1,1 0,2 2,0 1,1 0,1 2,0 0,-76 -1,0 -1,-1 0,-1 -1,-1 -1,-1 0,-1 -1,1 -2,0 -1,1 -1,0 -1,1 -1,0 -1,1 -2,0 -1,1 -1,0 -1,1 -1,0 -1,1 -2,0 -1,1Z"/>
<path onmouseover="hoverPath(evt)" onmouseout="recoverPath(evt)" fill="rgb(245,234,142)" d="M  0,201l 0,4 1,0 1,-1 11,0 1,-1 10,0 1,-1 11,0 1,-1 11,0 1,-1 5,0 1,-1 4,0 1,-1 5,0 1,-1 3,0 1,-1 4,0 1,-1 3,0 1,-1 4,0 1,-1 3,0 1,-1 3,0 1,-1 4,0 1,-1 3,0 1,-1 3,0 1,-1 3,0 1,1 -1,-2 0,-1 1,-1 5,0 1,-1 3,0 1,-1 3,0 1,-1 2,0 1,-1 3,0 1,-1 2,0 1,-1 3,0 1,-1 2,0 1,-1 2,0 1,-1 3,0 1,-1 2,0 1,-1 2,0 1,1 0,1 2,0 1,-1 3,0 1,-1 2,0 1,-1 2,0 0,-2 1,-1 2,0 1,1 1,-1 1,0 1,-1 1,0 1,-1 1,0 1,-1 1,0 0,-2 1,-1 1,-1 2,0 1,-1 2,0 1,-1 1,0 1,-1 1,0 1,-1 1,0 1,-1 1,0 1,-1 2,0 1,-1 1,0 1,-1 2,0 1,-1 2,0 1,1 0,1 2,0 1,-1 0,-1 1,-1 3,0 1,-1 2,0 1,-1 1,0 1,-1 2,0 1,-1 2,0 1,-1 2,0 1,-1 2,0 1,-1 2,0 1,-1 2,0 1,-1 2,0 1,-1 4,0 1,1 0,2 1,-1 1,0 0,-2 1,-1 1,0 0,-3 1,-1 0,-1 1,-1 -8,0 -1,-1 0,1 -1,1 -1,0 -1,1 -2,0 -1,1 -2,0 -1,1 -2,0 -1,1 -1,0 -1,1 -2,0 -1,1 -2,0 -1,1 -2,0 -1,1 -4,0 0,1 -1,1 -1,1 -2,0 -1,-1 -1,1 -1,0 -1,1 -1,0 -1,1 -2,0 -1,1 -3,0 -1,1 -1,0 -1,1 -2,0 -1,1 -1,0 -1,1 -1,0 -1,1 -4,0 -1,-1 0,2 -1,1 -1,0 -1,1 -1,1 -2,0 -1,1 -1,0 -1,1 -2,0 -1,1 -1,0 -1,1 -1,0 -1,1 -2,0 0,2 -1,1 -7,0 -1,1 -3,0 -1,1 -2,0 -1,1 -2,0 -1,1 -3,0 -1,1 -2,0 -1,1 -3,0 -1,1 -2,0 -1,1 -3,0 -1,1 -2,0 -1,1 -4,0 -1,-1 0,-2 -1,-1 0,1 1,3 -1,1 -1,0 -1,1 -2,0 -1,1 -3,0 -1,1 -3,0 -1,1 -3,0 -1,1 -3,0 -1,1 -3,0 -1,1 -4,0 -1,1 -3,0 -1,1 -4,0 -1,1 -3,0 -1,1 -4,0 -1,1 -4,0 -1,1 -4,0 -1,1 -4,0 -1,1 -4,0 -1,1 -11,0 -1,1 -11,0 -1,1 -12,0 0,1 -1,1 -2,0 -1,-1 0,-1 -1,-1 0,1 -1,1 -3,0 -1,1 -4,0Z"/>
<path onmouseover="hoverPath(evt)" onmouseout="recoverPath(evt)" fill="rgb(232,239,232)" d="M  164,0l -20,0 0,1 1,1 0,2 3,0 1,1 0,2 3,0 1,1 2,0 1,1 0,1 1,0 1,1 0,3 1,-1 2,0 1,1 0,3 3,0 1,1 2,0 1,1 0,1 3,0 1,-1 3,0 0,-3 1,-1 4,0 1,1 0,2 3,0 1,1 1,-1 4,0 1,1 1,0 1,-1 0,-1 -1,-1 0,-5 -1,-1 0,-5 -2,0 -1,-1 0,-4Z"/>
<path onmouseover="hoverPath(evt)" onmouseout="recoverPath(evt)" fill="rgb(243,242,235)" d="M  191,169l 0,2 1,1 0,2 1,1 0,1 1,1 0,1 1,1 0,2 1,1 0,1 1,1 0,2 1,1 0,1 1,1 0,1 1,1 0,2 -1,1 1,1 0,2 1,1 0,1 1,1 0,1 1,1 0,1 1,1 0,1 2,0 1,1 0,2 -1,1 0,1 1,1 0,1 1,1 0,1 1,1 0,1 1,1 0,1 1,1 0,1 1,1 0,1 1,1 0,1 1,1 0,1 1,1 0,1 1,1 0,3 1,1 1,0 1,1 1,-1 3,0 1,-1 3,0 1,-1 2,0 1,-1 0,-2 1,-1 2,0 1,1 0,1 1,1 2,0 1,1 0,4 -1,1 0,1 1,1 0,2 1,-1 2,0 1,1 2,0 1,-1 3,0 1,-1 5,0 0,-31 -2,0 -1,-1 0,-2 -1,-1 0,-2 -1,-1 0,-2 -1,-1 0,-2 -1,-1 0,-3 -2,0 -1,-1 0,-3 1,-1 0,-1 -1,-1 0,-2 -1,-1 0,-2 -1,-1 0,-2 -1,-1 0,-2 -1,-1 0,-2 -1,-1 0,-5 1,-1 0,-1 -1,1 -2,0 -1,1 -5,0 -1,1 -4,0 -1,-1 -19,0 -1,1 -5,0 -1,1 -2,0 -1,1 -3,0 -1,1 -1,0 -1,1Z"/>
<path onmouseover="hoverPath(evt)" onmouseout="recoverPath(evt)" fill="rgb(233,233,161)" d="M  213,0l -7,0 0,3 1,1 0,3 1,1 0,3 1,1 0,3 1,1 0,3 1,1 0,3 1,1 0,3 1,1 0,3 1,1 0,3 1,1 0,3 1,1 0,3 1,1 0,5 1,1 0,2 1,1 0,3 2,0 1,1 0,5 1,-1 3,0 1,1 1,1 0,2 -1,1 0,1 1,0 1,1 0,1 1,1 0,1 1,0 1,1 0,4 -1,1 -2,0 -1,-1 -1,0 -1,-1 0,-2 -1,0 -1,-1 0,3 -1,1 0,1 -1,1 -1,0 2,1 0,3 2,0 1,1 0,1 1,1 1,1 0,7 -1,1 1,1 0,2 1,1 0,3 1,1 0,2 1,1 0,4 1,1 0,1 1,1 0,2 1,1 0,1 1,1 0,1 1,1 0,2 1,1 0,2 1,1 0,2 1,1 0,3 2,0 1,1 0,2 8,0 1,1 0,2 -1,1 0,1 -1,1 0,3 -1,1 -1,0 0,2 -1,1 -1,0 -1,1 0,1 1,1 0,4 1,0 1,1 1,1 0,4 1,1 0,3 -1,1 -1,1 -1,0 0,4 1,1 0,1 1,1 0,2 1,1 0,2 1,1 0,2 1,1 0,2 1,1 0,3 1,1 0,3 1,1 0,2 1,0 0,-72 -3,0 -1,-1 0,-1 -2,0 -1,-1 0,-2 -1,-1 0,-5 1,-1 1,0 0,-1 -1,-1 0,-3 -1,1 -2,0 -1,-1 -1,0 -1,-1 0,-2 2,-2 -1,0 -1,-1 0,-2 -1,-1 0,-2 1,-1 1,0 0,-2 -1,0 -1,-1 0,-2 -1,0 -1,-1 -3,0 -1,-1 0,-4 1,-1 0,-2 1,-1 1,0 0,-1 -1,-1 0,-3 -1,-1 0,-2 -1,-1 0,-3 -1,-1 0,-3 -1,-1 0,-3 -1,-1 0,-3 -1,-1 0,-2 -1,-1 0,-3 -1,0 -1,-1 0,-1 -1,-1 0,-3 1,-1 0,-1 -1,-1 0,-3 -1,-1 0,-3 -1,-1 0,-3 -1,-1 0,-3 -1,-1 0,-3 -1,-1 0,-2 -1,-1 0,-4 -1,-1 0,-3 -1,-1 0,-3 1,-1 2,0 1,1 2,0 1,-1 -3,0 -1,-1 0,-2Z"/>
<path onmouseover="hoverPath(evt)" onmouseout="recoverPath(evt)" fill="rgb(244,243,235)" d="M  18,242l -2,0 0,1 1,1 0,1 1,1 0,1 1,1 0,1 1,1 0,1 1,1 0,3 64,0 0,-4 -1,-1 0,-4 -1,-1 0,-4 -1,-1 0,-4 -1,-1 0,-4 -1,-1 0,-4 -1,-1 0,-2 -2,0 -1,1 -1,0 -1,1 -1,0 -1,1 -4,0 -1,1 -4,0 -1,1 -5,0 -1,1 -4,0 -1,1 -5,0 -1,1 -4,0 -1,1 -2,0 -1,1 -2,0 -1,1 -2,0 -1,1 -2,0 -1,1 -1,0 -1,1 -1,0 -1,1 -1,1 -1,0 -1,1 -1,1 -1,0 -1,1Z"/>
<path onmouseover="hoverPath(evt)" onmouseout="recoverPath(evt)" fill="rgb(201,215,235)" d="M  30,3l 3,0 1,-1 6,0 1,-1 5,0 1,-1 -47,0 0,8 5,0 1,-1 5,0 1,-1 5,0 1,-1 5,0 1,-1 5,0 1,-1Z"/>
<path onmouseover="hoverPath(evt)" onmouseout="recoverPath(evt)" fill="rgb(244,243,235)" d="M  86,218l 0,0 -1,1 -1,1 0,3 1,1 0,4 1,1 0,4 1,1 0,4 1,1 0,4 1,1 0,4 1,1 0,6 42,0 0,-3 -1,-1 0,-2 -1,-1 0,-2 -1,-1 0,-2 -1,-1 0,-2 -1,-1 0,-2 -1,-1 0,-2 -1,-1 0,-3 1,-1 -2,0 -1,-1 0,-1 -1,-1 0,-2 -1,-1 0,-1 -1,-1 -1,-1 0,-3 -1,-1 0,-2 -1,-1 0,-1 -1,-1 0,-1 -1,-1 0,-2 -1,-1 0,-1 -1,-1 0,-2 -1,0 -1,-1 0,-1 -1,-1 -1,1 -1,0 -1,1 -1,1 -1,1 -1,1 -1,0 -1,1 -1,1 -1,1 -1,1 -1,0 -1,1 -1,1 -1,1 -1,1 -1,0 -1,1 -1,1 -2,2 -1,0 -2,2Z"/>
<path onmouseover="hoverPath(evt)" onmouseout="recoverPath(evt)" fill="rgb(244,243,235)" d="M  191,80l 0,0 -1,1 0,2 1,1 0,4 1,1 0,3 1,1 0,4 1,1 0,3 1,1 0,3 1,1 0,4 1,1 0,1 1,1 0,2 1,1 0,1 1,1 0,1 1,1 0,2 1,1 0,1 1,1 0,1 1,1 0,1 1,1 0,2 1,1 1,1 0,1 1,1 0,1 1,1 0,1 1,1 1,1 0,1 1,1 0,1 4,0 1,-1 2,0 1,-1 2,0 1,-1 2,0 1,-1 1,0 1,-1 2,0 1,-1 2,0 1,-1 2,0 1,-1 1,0 0,-2 -1,-1 0,-3 -1,-1 0,-2 -1,-1 0,-2 -1,-1 0,-2 -1,-1 0,-1 -1,-1 0,-1 -1,-1 0,-2 -1,-1 0,-1 -1,-1 0,-4 -1,-1 0,-2 -1,-1 0,-3 -1,-1 0,-2 -1,-1 0,-2 1,-1 0,-5 -1,-1 -1,-1 0,-1 -2,0 -1,-1 0,-3 -1,0 -1,-1 0,-2 -1,-1 -1,-1 0,1 -1,1 -4,0 -1,1 -7,0 -1,-1 -5,0 0,2 -1,1Z"/>
<path onmouseover="hoverPath(evt)" onmouseout="recoverPath(evt)" fill="rgb(208,230,222)" d="M  209,60l 0,0 1,1 0,1 1,0 1,1 0,2 1,1 1,1 0,7 -1,1 2,0 0,-1 1,-1 2,0 1,1 1,1 1,1 0,-1 1,-1 0,-3 1,-1 2,0 1,1 1,0 1,1 0,2 1,0 1,1 0,-2 -1,0 -1,-2 -1,-1 0,-1 -1,0 -1,-1 0,-3 1,-1 -1,-1 -1,0 -1,1 0,0 -1,1 -2,0 -1,-1 0,-2 1,-1 0,-3 -2,0 -1,-1 0,-3 -1,-1 0,-2 -3,0 -1,-1 0,-2 -1,-1 -2,0 -1,-1 0,-1 -1,-1 -1,-1 -1,-1 0,-2 -1,-1 -1,-1 -1,-1 -1,-1 -1,-1 -1,-1 -1,-1 -1,-1 -1,-1 -1,-1 -1,-1 -1,-1 -1,0 -1,-1 0,-1 -3,0 -1,-1 0,-4 -2,0 -1,-1 -3,0 -1,-1 0,-2 -2,0 0,3 -1,1 -3,0 -1,1 -3,0 1,1 0,2 -1,1 0,2 1,1 0,3 2,0 0,-1 1,-1 5,0 1,1 1,1 1,1 1,1 1,0 1,1 1,1 1,1 1,1 1,1 1,1 1,1 1,1 1,1 1,1 0,2 1,1 1,1 1,1 2,0 1,1 0,1 1,1 1,1 0,1 1,1 2,0 1,1 1,1 0,3Z"/>
<path onmouseover="hoverPath(evt)" onmouseout="recoverPath(evt)" fill="rgb(244,243,237)" d="M  214,154l -1,0 -1,1 3,0 -1,-1 4,2 15,0 1,-1 4,0 1,-1 4,0 0,-3 -1,-1 0,-2 -1,-1 0,-2 -2,0 -1,1 -2,0 -1,1 -2,0 -1,1 -2,0 -1,1 -2,0 -1,1 -2,0 -1,1 -2,0 -1,1 -2,0 0,4 -4,-2Z"/>
<path onmouseover="hoverPath(evt)" onmouseout="recoverPath(evt)" fill="rgb(244,243,235)" d="M  244,2l 0,2 1,1 0,1 1,1 0,1 1,1 0,2 1,1 0,1 1,1 0,2 1,1 0,1 1,1 0,2 1,1 0,1 1,1 0,2 1,1 0,1 1,0 0,-28 -12,0 0,1 1,1Z"/>
<path onmouseover="hoverPath(evt)" onmouseout="recoverPath(evt)" fill="rgb(252,252,250)" d="M  2,99l 0,-1 -1,-1 0,-3 -1,0 0,9 7,0 1,-1 7,0 1,-1 8,0 1,-1 7,0 1,-1 7,0 1,-1 7,0 1,-1 7,0 1,-1 7,0 1,-1 7,0 1,-1 9,0 1,-1 5,0 1,-1 4,0 1,1 1,1 0,-1 1,-1 1,0 1,-1 7,0 1,-1 6,0 1,-1 7,0 1,-1 6,0 1,-1 6,0 1,-1 7,0 1,-1 6,0 1,-1 7,0 1,-1 6,0 1,-1 6,0 1,-1 7,0 1,-1 5,0 1,1 1,1 0,3 1,1 0,3 1,1 0,3 1,1 0,4 1,1 0,3 1,1 0,4 1,1 0,3 1,1 0,2 1,1 0,1 1,1 0,2 1,1 0,1 1,1 0,1 1,1 0,2 1,1 0,2 -1,1 2,0 1,1 0,1 1,1 0,1 1,1 0,1 1,1 1,1 0,1 1,1 0,2 -1,1 2,0 1,1 0,1 1,1 1,-1 0,0 -1,-1 0,-1 -1,-1 0,-1 -1,-1 -1,-1 0,-1 -1,-1 0,-1 -1,-1 0,-1 -1,-1 -1,-1 0,-2 -1,-1 0,-1 -1,-1 0,-1 -1,-1 0,-1 -1,-1 0,-2 -1,-1 0,-1 -1,-1 0,-1 -1,-1 0,-2 -1,-1 0,-1 -1,-1 0,-4 -1,-1 0,-3 -1,-1 0,-3 -1,-1 0,-4 -1,-1 0,-3 -1,-1 0,-4 -1,-1 0,-4 1,-1 1,-1 -4,0 -1,1 -6,0 -1,1 -6,0 -1,1 -7,0 -1,1 -6,0 -1,1 -6,0 -1,1 -7,0 -1,1 -6,0 -1,1 -6,0 -1,1 -7,0 -1,1 -6,0 -1,1 -7,0 -1,1 -9,0 -1,1 -6,0 -1,1 -3,0 -1,-1 -1,-1 0,-1 -1,-1 0,-4 -1,-1 0,-4 -1,-1 0,-4 -1,-1 0,-4 -1,-1 0,-4 -1,-1 0,-10 1,-1 -1,0 -1,-1 0,-2 -1,-1 0,-5 -1,-1 0,-8 -1,-1 -1,-1 0,1 -1,1 0,0 -1,1 -5,0 -1,1 -6,0 -1,1 -6,0 -1,1 -6,0 -1,1 -6,0 -1,1 -9,0 -1,-1 0,-4 -1,-1 0,-1 -5,0 -1,1 -7,0 -1,1 -10,0 0,10 6,0 1,-1 2,0 1,1 1,1 0,4 -1,1 2,0 1,-1 22,0 -23,-1 0,-4 1,-1 1,0 1,-1 6,0 1,-1 6,0 1,-1 6,0 1,-1 6,0 1,-1 6,0 1,-1 6,0 1,-1 6,0 1,-1 6,0 1,1 1,1 0,4 1,1 0,11 -1,1 1,0 1,1 0,2 1,1 0,4 1,1 0,4 1,1 0,4 1,1 0,4 1,1 0,5 1,1 0,6 -1,1 -1,0 -1,1 -4,0 -1,1 -7,0 -1,1 -8,0 -1,1 -7,0 -1,1 -7,0 -1,1 -7,0 -1,1 -7,0 -1,1 -7,0 -1,1 -11,0 -1,-1 -1,-1Z"/>
<path onmouseover="hoverPath(evt)" onmouseout="recoverPath(evt)" fill="rgb(242,241,232)" d="M  0,83l 0,9 2,0 1,1 0,3 1,1 0,1 1,1 9,0 1,-1 7,0 1,-1 7,0 1,-1 7,0 1,-1 7,0 1,-1 7,0 1,-1 8,0 1,-1 7,0 1,-1 4,0 1,-1 1,0 0,-4 -1,-1 0,-5 -1,-1 0,-4 -1,-1 0,-4 -1,-1 0,-4 -1,-1 0,-4 -1,-1 0,-2 -1,0 -1,1 0,0 -1,1 -2,0 -1,1 -1,0 -1,1 -3,0 -1,1 -1,0 -1,1 -1,0 -1,1 -1,0 -1,1 -2,0 -1,1 -6,0 -1,-1 0,-2 -1,0 -1,-1 0,-1 -1,-1 -1,-1 0,-2 -1,-1 -1,-1 -1,-1 0,-1 -1,-1 -22,0 -1,1 -5,0 -1,-1 0,-2 1,-1 1,0 0,-2 -1,-1 0,0 -1,1 -7,0 0,36 5,-13 0,-2 1,-1 2,0 1,1 0,1 1,1 1,1 1,1 0,1 1,1 0,2 -1,1 -2,0 -1,-1 0,-1 -1,-1 -1,-1 -1,-1 0,-1 -1,-1 -5,13 16,-10 0,-2 1,-1 2,0 1,1 0,2 -1,1 -2,0 -1,-1 -16,10 21,-22 2,0 1,1 0,2 -1,1 -2,0 -1,-1 0,-2 1,-1 -21,22 23,-13 0,-2 1,-1 2,0 1,1 0,2 -1,1 -2,0 -1,-1 -23,13Z"/>
<path onmouseover="hoverPath(evt)" onmouseout="recoverPath(evt)" fill="rgb(252,252,250)" d="M  243,163l 0,1 -1,1 0,3 1,1 0,2 1,1 0,2 1,1 0,2 1,1 0,2 1,1 0,2 1,1 0,3 -1,1 0,1 2,0 1,1 0,3 1,1 0,2 1,1 0,2 1,1 0,2 1,1 0,2 1,0 0,-8 -2,0 -1,-1 0,-2 -1,-1 0,-3 -1,-1 0,-3 -1,-1 0,-2 -1,-1 0,-2 -1,-1 0,-2 -1,-1 0,-2 -1,-1 0,-1 -1,-1 0,-6 1,-1 1,0 1,-1 0,-1 -3,0 -1,1Z"/>
<path onmouseover="hoverPath(evt)" onmouseout="recoverPath(evt)" fill="rgb(244,243,236)" d="M  0,108l 0,89 3,0 1,-1 3,0 0,-2 1,-1 2,0 1,1 0,1 1,1 0,1 1,-2 12,0 1,-1 11,0 1,-1 11,0 1,-1 4,0 1,-1 4,0 1,-1 4,0 1,-1 4,0 1,-1 4,0 1,-1 3,0 1,-1 4,0 1,-1 3,0 1,-1 4,0 1,-1 3,0 1,-1 3,0 1,-1 3,0 1,-1 3,0 1,-1 3,0 1,-1 2,0 1,-1 1,0 -1,-1 0,-4 1,-1 0,-1 -2,0 -1,-1 0,-1 -1,-1 0,-2 -1,-1 0,-1 -1,-1 0,-2 -1,-1 0,-2 -1,-1 0,-2 -1,-1 0,-3 -1,-1 0,-2 -1,-1 0,-2 -1,-1 0,-4 1,-1 0,-1 -2,0 -1,-1 0,-2 -1,-1 0,-2 -1,-1 0,-2 -1,-1 0,-3 -1,-1 0,-1 -1,-1 0,-2 -1,-1 0,-2 -1,-1 0,-4 1,-1 0,-3 -1,-1 0,-6 -2,0 -1,-1 0,-4 -1,-1 -2,0 -1,1 -5,0 -1,1 -9,0 -1,1 -7,0 -1,1 -7,0 -1,1 -7,0 -1,1 -7,0 -1,1 -7,0 -1,1 -7,0 -1,1 -8,0 -1,1 -7,0 -1,1 -8,0Z"/>
<path onmouseover="hoverPath(evt)" onmouseout="recoverPath(evt)" fill="rgb(211,222,231)" d="M  0,244l 0,11 16,0 0,-1 -1,-1 0,-1 -1,-1 0,-1 -1,-1 0,-1 -1,-1 0,-1 -1,0 -1,-1 0,-2 -1,-1 0,-1 -1,-1 0,-2 -1,-1 0,-1 -1,-1 0,-2 -1,-1 0,-1 -1,-1 0,-1 -1,-1 0,-1 -1,-1 0,-1 -1,-1 0,-2 -1,0Z"/>
<path onmouseover="hoverPath(evt)" onmouseout="recoverPath(evt)" fill="rgb(175,200,235)" d="M  15,236l -1,0 0,1 1,1 0,1 1,1 1,0 1,-1 1,0 1,-1 1,-1 1,0 1,-1 1,-1 1,0 1,-1 1,0 1,-1 2,0 1,-1 2,0 1,-1 2,0 1,-1 2,0 1,-1 4,0 1,-1 5,0 1,-1 4,0 1,-1 5,0 1,-1 4,0 1,-1 4,0 1,-1 1,0 1,-1 1,0 1,-1 4,0 1,1 0,2 1,1 0,4 1,1 0,4 1,1 0,4 1,1 0,4 1,1 0,4 1,1 0,5 1,0 0,-5 -1,-1 0,-4 -1,-1 0,-4 -1,-1 0,-4 -1,-1 0,-4 -1,-1 0,-4 -1,-1 0,-5 1,-1 3,-3 1,-1 1,0 1,-1 1,-1 1,-1 1,-1 1,0 1,-1 1,-1 1,-1 1,-1 1,0 1,-1 2,-2 1,-1 1,0 1,-1 1,-1 2,-2 1,0 1,-1 1,0 0,-1 1,-1 1,-1 1,0 1,-1 2,-2 1,-1 1,0 1,-1 1,-1 1,0 1,-1 2,0 1,-1 3,0 1,-1 5,0 1,-1 4,0 1,-1 5,0 1,-1 6,0 1,-1 7,0 1,-1 3,0 1,-1 2,0 1,-1 2,0 1,-1 1,0 1,-1 1,0 1,-1 1,-1 1,0 1,-1 1,0 1,-1 1,-1 4,0 1,1 0,1 1,1 0,1 1,1 1,1 0,1 1,1 0,1 1,1 0,1 1,1 1,1 0,1 1,1 0,1 1,1 0,1 1,1 0,1 1,1 0,5 1,1 0,1 1,1 0,1 1,1 0,2 1,1 0,1 1,1 0,1 1,1 0,1 1,1 0,1 1,1 0,1 1,1 0,1 1,1 0,1 1,1 0,1 1,1 0,1 1,1 0,1 1,1 0,1 1,1 0,2 1,1 0,1 1,1 0,-2 -1,-1 0,-1 -1,-2 -2,-4 -1,-2 -1,-2 -1,-2 -1,-2 -1,-2 -1,-2 0,-2 1,-1 -2,0 -1,-1 0,-1 -1,-1 0,-1 -186,33 181,-48 -1,-1 0,-2 -1,-1 0,-1 -1,-1 0,-2 -1,-1 0,-1 -1,-1 0,-1 -1,-1 0,-2 -1,-1 0,-4 1,-1 1,-1 1,0 1,-1 3,0 1,-1 2,0 1,-1 5,0 1,-1 21,0 1,1 2,0 1,-1 5,0 1,-1 2,0 1,-1 6,0 0,-3 -1,-1 -5,0 -1,1 -4,0 -1,1 -17,0 -1,-1 -8,0 -1,1 -4,0 -1,-1 -3,0 -1,1 -1,0 -1,1 -2,0 -1,1 -1,0 -1,1 -1,0 -1,1 -1,0 -1,1 -1,0 -1,1 -2,0 -1,1 -2,0 -1,1 0,2 -1,1 -1,0 -1,1 -1,0 -1,1 -1,0 -1,1 -1,0 -1,1 -2,0 -1,-1 0,2 -1,1 -2,0 -1,1 -2,0 -1,1 -3,0 -1,1 -4,0 -1,-1 0,-1 -1,1 -2,0 -1,1 -3,0 -1,1 -2,0 -1,1 -2,0 -1,1 -3,0 -1,1 -2,0 -1,1 -3,0 -1,1 -2,0 -1,1 -3,0 -1,1 -3,0 -1,1 -5,0 1,1 0,2 -1,1 -1,0 -1,1 -1,1 -1,0 -1,1 -1,1 -1,1 -1,0 -1,1 -1,1 -1,1 -1,1 -1,0 -2,2 -1,1 -1,0 -1,1 -1,1 -1,1 -1,0 -1,1 -1,1 -1,1 -1,0 -1,1 -2,2 -1,1 -1,0 -1,1 -1,1 -1,0 -1,1 -1,0 -2,2 -1,0 -1,1 -1,0 -1,1 -4,0 -1,1 -5,0 -1,1 -4,0 -1,1 -4,0 -1,1 -5,0 -1,1 -4,0 -1,1 -2,0 -1,1 -2,0 -1,1 -1,0 -1,1 -1,0 -1,1 -2,0 -1,1 -1,0 -1,1 -1,0 -1,1 -1,1 -1,0 -1,1 -1,0 180,-47 -181,48Z"/>
<path onmouseover="hoverPath(evt)" onmouseout="recoverPath(evt)" fill="rgb(242,240,230)" d="M  61,12l -5,0 -1,-1 -7,0 -1,1 -5,0 -1,1 -6,0 -1,1 2,0 1,1 0,1 1,1 0,5 1,1 0,6 -1,1 -1,1 -5,0 -1,1 -5,0 0,1 1,1 0,4 7,0 1,-1 6,0 1,-1 6,0 1,-1 6,0 1,-1 6,0 1,-1 5,0 1,-1 0,-4 -1,-1 0,-3 -1,-1 0,-4 -1,-1 0,-5 -1,-1 0,-1 -2,0 -1,1Z"/>
<path onmouseover="hoverPath(evt)" onmouseout="recoverPath(evt)" fill="rgb(246,244,238)" d="M  67,3l 0,0 1,-1 13,0 1,-1 11,0 0,-1 -39,0 0,1 -1,1 -5,0 -1,1 -5,0 -1,1 -6,0 -1,1 -3,0 -1,1 -5,0 -1,1 -5,0 -1,1 -5,0 -1,1 -5,0 -1,1 -6,0 0,1 5,0 2,-1 4,0 2,-1 3,0 3,-1 3,0 3,-1 3,0 3,-1 3,0 1,-1 4,0 3,-1 5,0 1,1 0,4 8,0 1,1 4,0 1,-1 4,0 1,1Z"/>
<path onmouseover="hoverPath(evt)" onmouseout="recoverPath(evt)" fill="rgb(243,242,234)" d="M  125,221l 0,2 -1,1 0,1 1,1 0,1 2,0 1,1 0,2 -1,1 0,1 1,1 0,2 1,1 0,2 1,1 0,2 1,1 0,2 1,1 0,2 1,1 0,2 1,1 0,4 9,0 0,-3 1,-1 4,0 1,1 2,0 1,-1 3,0 1,-1 3,0 1,-1 3,0 1,-1 3,0 1,-1 3,0 1,-1 2,0 0,-2 -1,-1 0,-2 -1,-1 0,-2 1,-1 0,-1 -1,-1 0,-1 -1,-1 0,-2 -1,-1 0,-1 -2,0 -1,-1 0,-2 1,-1 0,-3 -1,-1 0,-2 1,-1 3,0 1,1 1,0 0,-2 1,-1 3,0 0,-2 1,-1 1,0 0,-2 1,-1 1,0 1,-1 0,-1 -1,-1 0,-1 -2,0 -1,-1 0,-2 1,-1 -1,-1 0,-1 -1,0 -1,-1 -4,0 0,2 -1,1 -2,0 -1,-1 -1,0 -1,1 -1,0 -1,1 -2,0 -1,1 -1,0 -1,1 -3,0 -1,1 -1,0 -1,1 -2,0 -1,1 -2,0 -1,1 -2,0 0,2 -1,1 -3,0 -1,-1 -1,1 -2,0 -1,1 -2,0 -1,1 -2,0 0,2 -1,1 -3,0 -1,-1 -4,0 -1,1 0,2 1,1 2,0 1,1Z"/>
<path onmouseover="hoverPath(evt)" onmouseout="recoverPath(evt)" fill="rgb(174,199,236)" d="M  233,44l -3,0 -1,-1 0,1 1,1 0,1 2,0 1,-1 0,-1 4,0 1,-1 1,0 1,-1 2,0 1,-1 1,0 1,-1 1,0 1,-1 2,0 1,-1 2,0 1,1 0,1 1,1 1,1 0,-12 -2,0 -1,-1 0,-1 -1,-1 0,-2 -1,-1 0,-1 -1,-1 0,-2 -1,-1 0,-1 -1,-1 0,-2 -1,-1 0,-1 -1,-1 0,-2 -1,-1 0,-1 -1,-1 0,-1 -1,-1 0,-2 -1,-1 0,-2 -1,0 0,2 -1,1 0,1 1,1 0,2 1,1 0,1 1,1 0,1 1,1 0,2 1,1 0,1 1,1 0,2 1,1 0,1 1,1 0,2 1,1 0,2 1,1 0,1 1,1 0,5 -1,1 -1,0 -1,1 -1,0 -1,1 -1,0 -1,1 -1,0 -1,1 -1,0 -1,1 -1,0 -1,1 -1,2Z"/>
<path onmouseover="hoverPath(evt)" onmouseout="recoverPath(evt)" fill="rgb(240,239,228)" d="M  29,44l -6,0 -1,1 -6,0 -1,1 -1,0 0,2 22,0 1,1 0,1 1,1 1,1 0,1 1,1 1,1 1,1 0,2 1,1 1,1 0,1 1,0 1,1 0,2 4,0 1,-1 2,0 1,-1 1,0 1,-1 1,0 0,-2 1,-1 2,0 1,1 2,0 1,-1 1,0 1,-1 2,0 1,-1 0,-2 1,-1 1,0 0,-9 -1,-1 0,-4 -1,-1 -4,0 -1,1 -6,0 -1,1 -6,0 -1,1 -6,0 -1,1 -6,0 -1,1 -6,0 -1,1Z"/>
<path onmouseover="hoverPath(evt)" onmouseout="recoverPath(evt)" fill="rgb(243,242,235)" d="M  69,6l 0,6 -1,1 0,4 1,1 0,4 1,1 0,3 2,0 1,1 0,4 1,1 1,1 0,8 1,1 0,5 1,1 0,2 2,0 1,1 1,0 1,-1 1,0 1,-1 1,0 1,-1 0,-2 1,-1 7,0 1,1 5,0 0,-2 1,-1 9,0 1,-1 8,0 1,-1 7,0 1,-1 10,0 1,1 7,0 0,-2 1,-1 8,0 1,1 11,0 0,-2 1,-1 2,0 0,-2 -1,-1 0,-3 -1,-1 0,-4 1,-1 -1,-1 0,-1 -1,-1 0,-1 -2,0 -1,-1 -3,0 -1,-1 0,-3 -1,1 -2,0 -1,-1 0,-3 -1,0 -1,-1 0,-1 -2,0 -1,-1 -3,0 -1,-1 0,-2 -3,0 -1,-1 0,-2 -1,-1 0,-2 -47,0 0,2 -1,1 -11,0 -1,1 -13,0Z"/>
<path onmouseover="hoverPath(evt)" onmouseout="recoverPath(evt)" fill="rgb(252,252,250)" d="M  151,254l -3,0 -1,-1 -2,0 0,2 5,0 1,-1 3,-1 0,2 6,0 0,-2 1,-1 4,0 1,-1 2,0 1,-1 4,0 1,-1 2,0 1,-1 3,0 1,-1 2,0 1,-1 3,0 1,-1 3,0 1,-1 2,0 1,-1 3,0 1,-1 3,0 1,-1 2,0 1,-1 3,0 1,-1 3,0 1,-1 4,0 1,-1 1,0 1,-1 3,0 1,-1 3,0 1,-1 4,0 1,1 0,1 1,1 0,2 1,1 0,2 1,1 0,2 1,1 0,1 1,1 0,-3 1,-1 2,0 1,-1 3,0 1,-1 4,0 1,-1 3,0 0,-1 -4,0 -1,1 -3,0 -1,1 -4,0 -1,-1 -1,1 -2,0 -1,-1 0,-2 -1,-1 0,-3 1,-1 0,-2 -2,0 -1,-1 -1,-1 0,1 -2,2 -2,0 -1,1 -3,0 -1,1 -3,0 -1,1 -2,0 -1,-1 -1,0 -1,-1 0,2 -1,1 -1,0 -1,1 -2,0 -1,1 -3,0 -1,1 -3,0 -1,1 -2,0 -1,1 -3,0 -1,1 -3,0 -1,1 -2,0 -1,1 -4,0 -1,1 -5,0 -1,-1 0,-2 -1,-1 0,-1 1,5 0,1 -1,1 -2,0 -1,1 -3,0 -1,1 -3,0 -1,1 -3,0 -1,1 -3,0 -1,1 -2,0 -3,1Z"/>
<path onmouseover="hoverPath(evt)" onmouseout="recoverPath(evt)" fill="rgb(240,240,231)" d="M  164,254l -2,0 0,1 93,0 0,-12 -2,0 -1,1 -4,0 -1,1 -3,0 -1,1 -2,0 0,5 -1,1 -2,0 -1,-1 0,-2 -1,-1 0,-1 -1,-1 0,-2 -1,-1 0,-2 -1,-1 0,-2 -1,-1 0,-1 -2,0 -1,1 -3,0 -1,1 -3,0 -1,1 -1,0 -1,1 -4,0 -1,1 -3,0 -1,1 -3,0 -1,1 -2,0 -1,1 -3,0 -1,1 -3,0 -1,1 -2,0 -1,1 -3,0 -1,1 -3,0 -1,1 -2,0 -1,1 -3,0 -1,1 -2,0 -1,1 -4,0 -1,1 -2,0 -1,1Z"/>
<path onmouseover="hoverPath(evt)" onmouseout="recoverPath(evt)" fill="rgb(241,239,229)" d="M  0,15l 0,18 9,0 1,-1 7,0 1,-1 6,0 1,-1 5,0 1,-1 5,0 1,-1 0,-4 -1,-1 0,-5 -1,-1 0,-1 -9,0 -1,-1 0,-2 1,-1 7,0 1,-1 6,0 1,-1 5,0 0,-4 -5,0 -1,1 -4,0 -1,1 -5,0 -1,1 -5,0 -1,1 -5,0 -1,1 -4,0 -1,1 -5,0 -1,1 -6,0Z"/>
<path onmouseover="hoverPath(evt)" onmouseout="recoverPath(evt)" fill="rgb(244,243,236)" d="M  2,207l -2,0 0,6 2,0 1,1 0,1 1,1 0,1 2,0 1,1 0,1 1,1 0,2 -1,1 1,1 0,2 1,1 0,1 1,1 0,1 1,1 0,1 1,1 0,1 2,0 1,-1 1,0 1,-1 1,0 1,-1 1,-1 1,0 1,-1 1,0 1,-1 2,0 1,-1 1,0 1,-1 1,0 1,-1 2,0 1,-1 2,0 1,-1 4,0 1,-1 5,0 1,-1 4,0 1,-1 4,0 1,-1 5,0 1,-1 4,0 1,-1 1,0 1,-1 1,0 1,-1 1,-1 1,0 1,-1 1,0 1,-1 1,-1 1,0 1,-1 3,-3 1,0 3,-3 1,0 1,-1 1,-1 1,-1 1,0 1,-1 1,-1 1,-1 1,0 1,-1 1,-1 1,-1 1,-1 1,0 1,-1 1,-1 1,-1 1,0 1,-1 -1,0 -2,1 -2,0 -1,1 -3,0 -1,1 -4,0 -1,1 -3,0 -1,1 -3,0 -1,1 -4,0 -1,1 -3,0 -1,1 -4,0 -1,1 -3,0 -1,1 -5,0 -1,1 -4,0 -1,1 -5,0 -1,1 -11,0 -1,1 -11,0 -1,1 -10,0 -1,1 -11,0 -1,1Z"/>
<path onmouseover="hoverPath(evt)" onmouseout="recoverPath(evt)" fill="rgb(243,242,234)" d="M  79,54l -1,0 0,8 1,1 0,4 1,1 0,4 1,1 0,4 1,1 0,4 1,1 0,4 1,1 0,1 1,1 1,0 1,-1 6,0 1,-1 9,0 1,-1 7,0 1,-1 6,0 1,-1 7,0 1,-1 6,0 1,-1 6,0 1,-1 7,0 1,-1 6,0 1,-1 6,0 1,-1 7,0 1,-1 6,0 1,-1 6,0 1,-1 11,0 1,-1 7,0 1,1 5,0 0,-2 1,-1 1,0 0,-5 -1,-1 0,0 -1,-1 0,-2 -1,0 -1,-1 0,-1 -2,0 -1,-1 0,-3 -1,-1 -2,0 -1,-1 -1,-1 0,-1 -1,-1 -1,-1 0,-1 -2,0 -1,-1 -1,-1 -1,-1 -1,-1 0,-2 -1,-1 -1,-1 -1,-1 -1,-1 -1,-1 -1,-1 -1,-1 -1,-1 -1,-1 -1,0 -3,-3 -1,-1 -3,0 0,1 -1,1 -2,0 0,3 -1,1 -2,0 0,2 -1,1 -13,0 -1,-1 -6,0 0,2 -1,1 -9,0 -1,-1 -8,0 -1,1 -7,0 -1,1 -8,0 -1,1 -9,0 0,2 -1,1 -7,0 -1,-1 -5,0 0,2 -1,1 -1,1 -1,0 -1,1 -1,0 -1,1 -2,0 -1,1 120,1 -2,0 -1,1 -3,0 -1,1 -3,0 -1,1 -3,0 -1,1 -4,0 -1,1 -4,0 -1,1 -3,0 -1,1 -4,0 -1,1 -6,0 -1,1 -6,0 -1,1 -7,0 -1,1 -6,0 -1,1 -7,0 -1,1 -9,0 -1,1 -9,0 -1,1 91,-15 -120,-1 29,17 0,3 1,1 0,0 -1,-4 -29,-17 31,21 6,0 1,-1 11,0 1,-1 6,0 1,-1 7,0 1,-1 5,0 1,-1 6,0 1,-1 5,0 1,-1 4,0 1,-1 4,0 1,-1 4,0 1,-1 4,0 1,-1 3,0 1,-1 4,0 1,-1 4,0 1,-1 3,0 1,-1 1,-1 -92,16 -31,-21 123,4 0,0 -123,-4Z"/>
<path onmouseover="hoverPath(evt)" onmouseout="recoverPath(evt)" fill="rgb(243,242,234)" d="M  98,94l -1,0 0,4 1,1 0,6 1,1 0,5 -1,1 0,2 1,1 0,2 1,1 0,2 1,1 0,1 1,1 0,3 1,1 0,2 1,1 0,2 1,1 0,2 2,0 1,1 0,3 -1,1 0,2 1,1 0,2 1,1 0,2 1,1 0,3 1,1 0,2 1,1 0,2 1,1 0,2 1,1 0,1 1,1 0,2 1,1 0,1 2,0 1,1 0,2 1,1 0,1 1,1 0,2 2,0 1,-1 2,0 1,-1 3,0 1,-1 2,0 1,-1 3,0 1,-1 2,0 1,-1 3,0 1,-1 2,0 1,-1 2,0 1,-1 3,0 1,-1 7,0 0,-2 1,-1 2,0 1,-1 1,0 1,-1 1,0 1,-1 2,0 1,-1 1,0 1,-1 2,0 2,-2 1,0 0,-2 1,-1 2,0 1,1 2,0 1,-1 1,0 1,-1 1,0 1,-1 2,0 1,-1 1,0 1,-1 3,0 1,-1 2,0 1,-1 1,0 1,-1 1,0 1,-1 -2,0 -1,-1 0,-2 1,-1 -1,-1 0,-1 -1,-1 -1,-1 0,-1 -1,-1 0,-1 -1,-1 0,-1 -2,0 -1,-1 0,-2 1,-1 -1,-1 0,-2 -1,-1 0,-1 -1,-1 0,-1 -1,-1 0,-2 -1,-1 0,-1 -1,-1 0,-2 -1,-1 0,-3 -1,-1 0,-4 -1,-1 0,-3 -1,-1 0,-4 -1,-1 0,-3 -1,-1 0,-3 -1,-1 0,-3 -1,-1 -3,0 -1,1 -7,0 -1,1 -6,0 -1,1 -6,0 -1,1 -7,0 -1,1 -6,0 -1,1 -7,0 -1,1 -6,0 -1,1 -6,0 -1,1 -7,0 -1,1 -6,0 -1,1 -7,0 -1,1 74,31 1,1 0,2 -1,1 -2,0 -1,-1 0,-2 1,-1 2,0 -74,-31Z"/>
<path onmouseover="hoverPath(evt)" onmouseout="recoverPath(evt)" fill="rgb(171,198,238)" d="M  119,71l -9,0 0,2 5,0 1,-1 2,0 1,-1 1,-1 1,2 6,0 1,-1 6,0 1,-1 7,0 1,-1 5,0 1,-1 6,0 1,-1 5,0 1,-1 4,0 1,-1 4,0 1,-1 4,0 1,-1 4,0 1,-1 3,0 1,-1 4,0 1,-1 4,0 1,-1 3,0 1,-1 -1,-1 -1,0 -1,1 -3,0 -1,1 -3,0 -1,1 -3,0 -1,1 -4,0 -1,1 -4,0 -1,1 -3,0 -1,1 -4,0 -1,1 -6,0 -1,1 -6,0 -1,1 -7,0 -1,1 -6,0 -1,1 -7,0 -1,1 -9,0 -1,1Z"/>
<path onmouseover="hoverPath(evt)" onmouseout="recoverPath(evt)" fill="rgb(243,242,234)" d="M  171,221l 0,0 -1,-1 -1,0 1,1 0,4 1,1 0,1 1,1 0,1 1,1 0,2 1,1 0,1 1,1 0,2 1,1 0,1 1,1 0,1 1,1 0,2 3,0 1,-1 4,0 1,-1 2,0 1,-1 3,0 1,-1 3,0 1,-1 2,0 1,-1 3,0 1,-1 3,0 1,-1 2,0 1,-1 1,0 0,-1 -1,-1 0,0 -1,-1 0,-1 -1,-1 0,-2 -1,-1 0,-1 -1,-1 0,-1 -1,-1 0,-1 -1,-1 0,-1 -1,-1 0,-1 -1,-1 0,-1 -1,-1 0,-1 -1,-1 0,-1 -1,-1 0,-1 -1,-1 0,-1 -1,-1 0,-1 -1,-1 0,-2 -1,-1 0,-1 -1,-1 0,-1 -1,-1 0,-5 -1,-1 0,-1 -1,-1 0,-1 -1,-1 0,-1 -1,-1 0,-1 -1,-1 -1,-1 0,-1 -1,-1 0,-1 -1,-1 0,-1 -1,-1 -1,-1 0,-1 -1,-1 0,-1 -2,0 -2,2 -1,0 -1,1 -1,0 -1,1 -1,1 -1,0 -1,1 -1,0 -1,1 -2,0 -1,1 -2,0 -1,1 -3,0 -1,1 -7,0 -1,1 -6,0 -1,1 -5,0 -1,1 -4,0 -1,1 -5,0 -1,1 -3,0 -1,1 -2,0 -1,1 -1,0 -1,1 -1,1 -1,0 -1,1 -1,1 -1,1 -1,1 -1,0 -1,1 0,1 1,1 0,1 1,0 1,1 0,2 1,1 0,1 1,1 0,2 1,1 0,1 2,0 1,1 0,2 -1,1 0,1 1,-1 6,0 1,1 1,0 0,-2 1,-1 2,0 1,-1 2,0 1,-1 2,0 1,-1 2,0 1,1 1,0 0,-2 1,-1 2,0 1,-1 2,0 1,-1 2,0 1,-1 1,0 1,-1 3,0 1,-1 1,0 1,-1 2,0 1,-1 1,0 1,-1 3,0 1,1 0,-2 1,-1 6,0 1,1 1,0 1,1 0,1 1,1 0,2 -1,1 2,0 1,1 0,1 1,1 0,3 -1,1 -1,1 -1,0 0,2 -1,1 -1,0 0,2 -1,1 -3,0 0,2 -1,1Z"/>
<path onmouseover="hoverPath(evt)" onmouseout="recoverPath(evt)" fill="rgb(244,243,235)" d="M  192,24l 0,0 1,1 0,1 1,0 1,1 1,1 1,1 1,1 1,1 1,1 1,1 1,1 1,1 1,1 1,1 1,1 1,1 0,2 1,1 1,1 1,1 0,1 2,0 1,1 1,1 0,2 1,0 0,-4 -1,-1 0,-3 -1,-1 0,-3 -1,-1 0,-3 -1,-1 0,-3 -1,-1 0,-3 -1,-1 0,-3 -1,-1 0,-3 -1,-1 0,-3 -1,-1 0,-3 -1,-1 0,-3 -1,-1 0,-4 -13,0 0,3 2,0 1,1 0,5 1,1 0,5 1,1 0,3 -1,1 -1,1 -2,0 -1,1 -2,0 0,2Z"/>
</svg>