<svg width="256" height="256" xmlns="http://www.w3.org/2000/svg"><script> 
var tempColor;
function hoverPath(evt){
obj = evt.target;
tempColor = obj.getAttribute("fill");
obj.setAttribute("fill","red");
//alert(tempColor);
//obj.setAttribute("stroke","red");}
function recoverPath(evt){
obj = evt.target;
obj.setAttribute("fill", tempColor);
//obj.setAttribute("stroke", tempColor);
}</script><path onmouseover="hoverPath(evt)" onmouseout="recoverPath(evt)" fill="rgb(172,196,231)" d="M  4,114l 0,0 1,1 0,1 1,1 1,1 1,1 1,1 1,1 0,1 4,0 1,1 1,1 0,4 2,0 1,1 1,1 1,1 0,1 1,1 0,1 1,1 1,1 0,1 1,1 0,1 1,1 0,1 1,1 0,1 1,1 0,1 5,0 1,-1 3,0 0,-1 -1,-1 0,-2 -1,-1 0,-1 -1,-1 0,-1 -1,-1 0,-1 -1,-1 0,-1 -1,-1 0,-1 -1,-1 0,-1 -1,-1 -1,-1 -1,-1 0,-1 -1,-1 -1,-1 -1,-1 0,-2 -1,-1 0,-1 -3,0 -1,-1 -1,0 -1,-1 -1,-1 0,-1 -1,0 -1,-1 -1,0 -1,-1 0,-1 -1,-1 -2,0 -1,-1 -1,-1 -1,-1 -1,0 -1,-1 -1,-1 -1,0 -1,-1 -1,0 0,11Z"/>
<path onmouseover="hoverPath(evt)" onmouseout="recoverPath(evt)" fill="rgb(244,243,236)" d="M  145,12l 0,1 1,1 1,1 0,1 1,1 0,1 2,2 0,1 1,1 0,1 2,2 0,1 1,1 0,1 1,1 1,1 0,1 1,1 1,1 0,1 1,1 0,1 1,1 1,1 0,1 1,1 0,1 1,1 1,1 0,1 1,1 0,1 1,1 1,1 0,1 1,1 0,1 1,1 1,1 0,1 1,1 0,1 1,1 1,1 0,1 1,1 0,1 2,2 0,1 1,1 1,1 1,0 1,1 2,0 1,1 0,2 -1,1 -1,0 1,1 0,2 1,1 1,1 1,0 1,-1 1,0 1,-1 1,0 1,-1 1,0 1,-1 1,0 1,-1 1,0 1,-1 2,0 1,-1 1,0 1,-1 0,-2 1,-1 2,0 1,1 3,0 1,-1 1,0 1,-1 1,0 1,-1 2,0 1,-1 1,0 1,-1 2,0 1,-1 3,0 1,-1 1,0 1,-1 1,0 1,-1 2,0 1,-1 1,0 1,-1 1,0 1,-1 1,0 1,-1 2,0 1,-1 1,0 1,-1 1,0 1,-1 2,0 1,-1 2,0 0,-4 1,-1 0,-4 1,-1 1,-1 2,0 0,-38 -117,0 0,1 1,1 0,0 1,1 0,1 1,1 1,1 0,1 2,0 1,1 0,4 2,-3 1,0 1,-1 -2,1 -2,3 4,-5 0,-1 -1,-1 0,0 1,2 -4,5 2,-7 0,0 -2,7Z"/>
<path onmouseover="hoverPath(evt)" onmouseout="recoverPath(evt)" fill="rgb(243,241,233)" d="M  199,107l 0,0 1,1 1,0 1,1 0,2 4,0 1,1 2,0 1,1 1,0 1,1 1,1 1,1 1,1 0,1 1,1 1,1 0,1 1,1 1,1 0,1 1,1 1,1 0,1 1,1 1,1 1,0 1,-1 1,0 1,-1 2,0 1,-1 1,0 0,-2 1,-1 2,0 1,1 1,0 1,-1 1,-1 1,0 0,-2 -1,-1 0,-1 -1,-1 0,-2 1,-1 2,0 1,1 3,0 1,-1 2,0 1,-1 2,0 1,1 0,2 -1,1 1,0 1,-1 3,0 0,-44 -3,0 -1,-1 -1,-1 0,-4 -1,-1 -1,-1 -1,0 -1,1 -1,0 -1,1 -2,0 -1,1 -3,0 -1,-1 -2,0 -1,1 -2,0 0,1 -1,1 -3,0 -1,1 -1,0 -1,1 -1,0 -1,1 -2,0 0,1 -1,1 -4,0 0,2 -1,1 -5,0 -1,1 -1,0 -1,1 -1,0 -1,1 -1,0 -1,1 -2,0 -1,1 -1,0 -1,1 -1,0 -1,1 -1,0 -1,1 -2,0 -1,1 -1,0 -1,1 -1,0 0,1 1,1 0,2 2,0 1,1 0,1 1,1 0,2 1,0 1,1 0,2 1,1 0,1 1,1 1,1 0,3 1,1 5,-7 -1,-1 0,-2 1,-1 2,0 1,1 0,-2 1,-1 1,0 1,-1 1,0 1,-1 2,0 1,1 0,2 -1,1 -1,0 -1,1 -1,0 -1,1 -3,0 0,1 -1,1 -2,0 -5,7 54,-24 0,2 -1,1 -2,0 -1,-1 0,-2 1,-1 2,0 1,1 -54,24 44,-1 -2,0 -1,-1 0,-2 1,-1 2,0 1,1 0,2 -1,1 -44,1 38,-27 2,0 1,1 0,2 -1,1 -2,0 -1,-1 0,-2 1,-1 -38,27 27,-15 1,-1 2,0 1,1 0,2 -1,1 -2,0 -1,-1 0,-2 -27,15 31,-5 -1,-1 0,-2 1,-1 2,0 1,1 0,2 -1,1 -2,0 -31,5Z"/>
<path onmouseover="hoverPath(evt)" onmouseout="recoverPath(evt)" fill="rgb(251,250,248)" d="M  201,236l 0,2 1,1 1,0 0,-2 1,-1 2,0 1,-1 3,0 1,1 0,-2 1,-1 2,0 1,-1 2,0 1,-1 2,0 1,-1 3,0 1,1 0,-2 1,-1 2,0 1,-1 2,0 1,-1 2,0 1,-1 3,0 1,-1 1,0 1,-1 3,0 1,-1 1,0 1,-1 1,0 1,-1 3,0 0,-3 -3,0 0,2 -1,1 -3,0 -1,-1 0,2 -1,1 -2,0 -1,1 -2,0 -1,1 -2,0 -1,1 -2,0 -1,1 -2,0 -1,1 -2,0 -1,1 -2,0 -1,1 -2,0 -1,1 -2,0 -1,1 -3,0 -1,-1 0,2 -1,1 -2,0 -1,1 -2,0 -1,1 -3,0 -1,1Z"/>
<path onmouseover="hoverPath(evt)" onmouseout="recoverPath(evt)" fill="rgb(247,231,125)" d="M  211,116l 0,0 -1,-1 -1,0 -1,-1 -1,0 -1,1 0,1 1,1 0,1 1,0 1,1 0,2 1,0 1,1 0,2 1,0 1,1 0,2 1,0 1,1 0,2 1,1 0,1 1,0 1,1 0,2 1,0 1,1 0,2 1,0 1,1 0,1 1,1 0,3 1,0 1,1 0,2 1,0 1,1 0,2 1,0 1,1 0,2 1,0 1,1 0,2 1,0 1,1 0,1 1,0 1,1 0,2 1,0 1,1 0,2 1,0 1,1 1,1 0,2 1,0 1,1 0,2 1,0 1,-1 0,0 -1,-1 0,-1 -1,-1 0,-1 -1,-1 0,-1 -1,-1 -1,-1 0,-2 -1,-1 -1,-1 0,-1 -1,-1 0,-1 -1,-1 -1,-1 0,-1 -1,-1 0,-1 -1,-1 0,-1 -1,-1 -1,-1 0,-1 -1,-1 0,-1 -1,-1 -1,-1 0,-1 -1,-1 0,-1 -1,-1 0,-1 -1,-1 0,-1 -2,0 -1,-1 0,-3 -1,-1 -1,-1 0,-1 -1,-1 -1,-1 0,-1 -1,-1 -1,-1 0,-1 -1,-1 -1,-1 0,-1 -1,-1 -1,-1Z"/>
<path onmouseover="hoverPath(evt)" onmouseout="recoverPath(evt)" fill="rgb(244,243,236)" d="M  0,117l 0,34 3,0 0,-1 1,-1 4,0 1,-1 3,0 1,-1 5,0 1,-1 3,0 1,-1 3,0 -1,-1 0,-1 -1,-1 0,-1 -1,-1 0,-1 -1,-1 0,-1 -1,-1 -1,-1 0,-1 -1,-1 0,-1 -1,-1 -1,-1 -2,0 -1,-1 0,-4 -1,-1 -4,0 -1,-1 0,-1 -1,-1 -1,-1 -1,-1 -1,-1 -1,-1 0,-1 -2,0 -1,1Z"/>
<path onmouseover="hoverPath(evt)" onmouseout="recoverPath(evt)" fill="rgb(243,242,235)" d="M  24,115l 1,1 0,1 1,1 0,2 1,1 1,1 1,1 0,1 1,1 1,1 1,1 0,1 1,1 0,1 1,1 0,1 1,1 0,1 1,1 0,1 1,1 0,1 1,1 0,2 1,1 1,0 1,-1 3,0 1,-1 3,0 1,-1 4,0 1,-1 3,0 1,-1 4,0 1,-1 2,0 1,-1 3,0 1,-1 2,0 1,-1 2,0 1,-1 2,0 1,-1 2,0 1,-1 2,0 1,-1 2,0 1,-1 1,0 1,-1 1,0 1,-1 2,0 0,-2 1,-1 2,0 1,1 1,-1 1,0 1,-1 1,0 1,-1 1,0 1,-1 1,0 1,-1 1,0 1,-1 1,-1 1,0 1,-1 1,0 1,-1 1,-1 1,0 1,-1 1,0 1,-1 1,0 1,-1 1,-1 1,0 1,-1 1,0 1,-1 1,0 1,-1 1,-1 1,0 1,-1 1,0 1,-1 1,-1 1,0 1,-1 1,0 1,-1 1,0 1,-1 1,-1 1,0 1,-1 1,-1 1,0 1,-1 1,-1 1,0 1,-1 1,0 1,-1 1,0 1,-1 1,-1 1,0 1,-1 1,0 1,-1 1,0 1,-1 1,0 1,-1 1,-1 1,0 0,-1 -1,-1 0,0 -1,-1 -1,-1 0,-1 -1,-1 -1,-1 0,-1 -1,-1 -1,-1 0,-1 -1,-1 0,-1 -1,-1 -1,-1 0,-1 -1,-1 0,-1 -1,-1 -1,-1 0,-1 -1,-1 0,-1 -1,-1 -1,-1 0,-1 -1,-1 -1,-1 0,-1 -1,-1 0,-1 -1,-1 -1,-1 0,-2 -1,-1 -1,-1 0,-1 -1,-1 -1,-1 -1,-1 0,-1 -1,-1 0,-1 -1,-1 -1,-1 0,-1 -1,-1 0,-1 -1,-1 -1,-1 0,-1 -1,-1 -1,-1 0,-1 -1,-1 0,-1 -1,-1 -1,-1 0,-2 1,-1 1,-1 0,-1 -1,0 -1,-1 -1,-1 0,-1 -1,-1 -1,-1 0,-1 -1,-1 -1,-1 -1,-1 0,-2 -1,-1 0,-2 -3,0 -1,-1 0,-1 -1,0 -1,-1 -1,-1 0,-1 -1,-1 0,-2 -112,0 0,101 2,0 1,1 1,0 1,1 1,1 1,0 1,1 1,1 1,1 2,0 1,1 1,1 0,1 1,0 1,1 1,0 1,1 0,1 1,1 1,0 1,1Z"/>
<path onmouseover="hoverPath(evt)" onmouseout="recoverPath(evt)" fill="rgb(244,243,236)" d="M  45,153l -1,0 0,1 1,1 0,2 1,1 0,1 1,1 0,1 1,1 0,1 1,1 0,1 1,1 0,1 1,1 0,1 2,2 0,1 1,1 0,1 1,1 0,1 1,1 0,1 1,1 0,2 1,1 0,2 1,1 0,2 1,1 0,2 1,1 0,2 1,1 0,8 -1,1 0,2 -1,1 0,2 -1,1 0,2 -1,1 0,1 -1,1 0,1 -1,1 0,1 -1,1 0,1 -1,1 -1,1 0,1 -1,1 0,1 -1,1 0,1 -1,1 0,1 -1,1 -1,1 0,1 -1,1 0,1 -1,1 0,1 -1,1 0,1 -1,1 0,2 -1,1 0,3 -1,1 0,2 -1,1 0,4 -1,1 0,2 114,0 0,-2 1,-1 2,0 1,-1 2,0 1,-1 2,0 1,-1 2,0 1,-1 1,0 1,-1 2,0 1,-1 3,0 1,-1 2,0 1,-1 2,0 1,-1 1,0 1,-1 2,0 1,-1 2,0 1,-1 2,0 1,-1 1,0 1,-1 2,0 1,1 1,-1 0,-5 1,-1 2,0 1,1 1,0 1,-1 2,0 1,-1 2,0 0,-2 1,-1 2,0 1,1 1,0 1,-1 2,0 1,-1 2,0 1,-1 2,0 1,-1 2,0 1,-1 2,0 1,-1 2,0 1,-1 2,0 1,-1 2,0 1,-1 2,0 0,-2 1,-1 2,0 1,1 1,0 0,-2 1,-1 5,0 1,1 1,0 0,-5 -1,0 -1,1 0,1 -1,1 -2,0 -1,-1 0,-1 -1,0 -1,-1 0,-4 -2,0 -1,-1 0,-3 1,-1 0,-4 -1,2 -3,0 -1,-1 0,-3 -1,-1 -1,-1 -1,-1 -1,-1 0,-2 1,-1 0,-1 -2,-2 -1,0 -1,-1 -1,0 -1,-1 0,-3 1,-1 1,-1 0,-2 -1,-1 -1,0 -1,1 -3,0 -1,-1 0,-3 -1,-1 0,-1 -1,2 -2,0 -1,-1 0,-1 -1,-1 -1,-1 0,-1 -1,-1 -1,-1 0,-1 -1,-1 0,-1 -1,-1 -1,-1 0,-1 -1,-1 -1,-1 0,-1 -1,-1 -1,-1 0,-1 -1,-1 -1,-1 0,-1 -1,-1 0,-1 -1,-1 -1,-1 0,-4 1,-1 0,-1 -1,0 0,1 -1,1 -2,0 -1,-1 0,-4 1,-1 0,-2 -1,-1 0,-1 -1,0 0,1 -1,1 -2,0 -1,-1 0,-5 1,-1 0,-2 -1,-1 0,-1 -1,0 -1,-1 0,-1 -1,0 0,1 -1,1 -2,0 -1,-1 0,-5 -1,0 -1,-1 0,-1 -2,0 -1,-1 0,-3 -1,0 -1,-1 0,-4 1,-1 0,-1 -1,-1 0,-1 -1,0 0,1 -1,1 -2,0 -1,-1 0,-5 -1,0 -1,-1 0,-2 -1,0 -1,-1 -1,1 -1,0 -1,1 -1,0 -1,1 -1,0 -2,2 -1,0 -1,1 -1,0 -1,1 -1,0 -1,1 -1,0 -1,1 -1,0 -1,1 -1,1 -1,0 -1,1 -1,0 -1,1 -1,1 -1,0 -1,1 -1,1 -1,0 -1,1 -1,0 -2,2 -1,0 -1,1 -1,0 -1,1 -1,1 -1,0 -1,1 -1,0 -1,1 -1,0 -1,1 -1,1 -1,0 -1,1 -1,0 -1,1 -1,1 -1,0 -1,1 -1,0 -1,1 -1,0 -1,1 -1,1 -1,0 -1,1 -1,0 -1,1 -1,0 -1,1 -1,1 -1,0 -1,1 -2,0 0,1 -1,1 1,1 0,0 1,1 0,2 -1,1 -3,0 -1,-1 0,-1 -1,-1 -4,0 -1,1 -1,0 -1,1 -2,0 -1,1 -1,0 -1,1 -2,0 -1,1 -1,0 -1,1 -2,0 -1,1 -3,0 -1,1 -2,0 -1,1 -2,0 -1,1 -2,0 -1,1 -4,0 -1,1 -3,0 -1,1 -3,0 -1,1 -4,0 -1,1 -3,0 -1,1 -1,0 68,-3 2,0 1,1 0,2 -1,1 -2,0 -1,-1 0,-2 1,-1 -68,3 81,18 1,1 0,1 1,1 0,2 -1,1 -2,0 -1,-1 0,-1 -1,-1 0,-2 1,-1 2,0 -81,-18Z"/>
<path onmouseover="hoverPath(evt)" onmouseout="recoverPath(evt)" fill="rgb(192,156,230)" d="M  122,0l -8,0 0,1 1,1 0,1 1,1 1,0 1,1 0,1 3,0 1,1 0,2 1,1 0,2 1,1 1,1 1,1 0,1 1,1 1,1 0,1 1,1 1,0 1,1 0,3 -1,1 -1,1 1,1 1,1 0,1 1,1 0,1 1,1 1,1 0,1 1,1 1,1 0,1 1,1 0,1 1,1 1,1 0,1 1,1 0,1 3,3 0,1 2,2 0,2 2,2 0,1 1,1 0,1 1,1 1,1 0,1 1,1 1,1 0,1 1,1 0,1 1,1 1,1 0,1 3,0 1,1 1,0 1,1 0,2 1,0 1,1 2,0 1,1 0,2 1,0 1,1 1,1 0,4 -1,1 1,0 1,1 0,2 1,0 1,1 2,0 1,1 0,3 -1,1 -1,1 1,0 1,1 1,0 1,1 0,2 1,0 1,1 0,5 1,-2 3,0 1,1 0,1 1,1 0,3 -1,1 0,2 1,0 1,1 0,3 2,0 1,1 0,1 1,0 1,1 0,5 1,-2 3,0 1,1 0,1 1,0 1,1 0,1 1,1 0,4 -1,1 0,3 1,-2 3,0 1,1 0,1 1,1 0,4 -1,1 0,2 1,-2 3,0 1,1 0,3 -1,1 0,2 1,1 1,1 0,1 1,1 0,1 1,1 1,1 0,1 1,1 1,1 0,1 1,1 1,1 0,1 1,1 1,1 0,1 1,1 0,1 1,1 1,1 0,1 1,1 1,1 0,1 1,-2 2,0 1,1 0,1 1,1 0,3 1,0 1,-1 3,0 1,1 1,1 0,4 -2,2 0,1 1,0 1,1 1,0 1,1 1,1 1,1 0,3 -1,1 1,1 0,0 1,1 1,1 1,1 0,3 1,0 0,-1 1,-1 2,0 1,1 0,6 -1,1 0,1 2,0 1,1 0,4 1,0 1,1 0,1 1,-2 1,-1 2,0 0,-20 -4,0 -1,-1 0,-2 -1,-1 0,-4 1,-1 -2,0 -1,-1 0,-3 1,-1 -1,0 -1,-1 -1,-1 0,-1 -1,1 -3,0 -1,-1 0,-2 -1,0 -1,-1 0,-2 -1,-1 -1,0 -1,-1 0,-2 -1,0 -1,-1 0,-2 -1,0 -1,-1 0,-1 -1,0 -1,-1 0,-2 -1,0 -1,-1 0,-2 -1,0 -1,-1 0,-2 -1,0 -1,-1 0,-2 -1,0 -1,-1 0,-3 -1,-1 0,-1 -1,0 -1,-1 0,-2 -1,0 -1,-1 0,-2 -1,0 -1,-1 0,-1 -1,-1 0,-2 -1,0 -1,-1 0,-2 -1,0 -1,-1 0,-2 -1,0 -1,-1 0,-2 -1,0 -1,-1 0,-1 -1,-1 0,-3 1,-1 -4,0 -1,-1 0,-2 -1,0 -1,-1 -1,0 -1,-1 0,-4 -1,-1 -1,-1 0,-1 -1,-1 0,-2 -1,0 -1,-1 0,-2 -1,-1 0,-1 -2,0 -1,-1 0,-2 -1,-1 0,-3 -2,0 -1,-1 0,-1 -1,0 -1,-1 0,-2 -1,0 -1,-1 -1,-1 0,-1 -1,0 -1,-1 0,-2 1,-1 0,-1 -1,0 -1,-1 0,-1 -1,0 -1,-1 0,-2 -1,-1 0,-1 -1,-1 -2,0 -1,-1 0,-4 -1,-1 0,-1 -1,-1 0,-2 1,-1 1,0 -1,-1 0,0 -1,-1 0,-1 -1,-1 0,-1 -1,-1 -1,-1 0,-1 -1,-1 0,-1 -2,-2 0,-1 -1,-1 0,-1 -1,-1 -1,-1 0,-1 -1,-1 0,-1 -1,-1 -1,-1 0,-1 -1,-1 -1,-1 0,-1 -1,-1 0,-1 -1,-1 -1,-1 0,-1 -1,-1 0,-1 -1,-1 -1,-1 0,-1 -1,-1 0,-1 -2,-2 0,-5 -2,0 -1,-1 0,-1 -2,-2 0,-1 -1,-1 -1,-1 0,-2Z"/>
<path onmouseover="hoverPath(evt)" onmouseout="recoverPath(evt)" fill="rgb(247,235,140)" d="M  1,153l -1,0 0,7 4,0 1,-1 5,0 0,-1 1,-1 2,0 1,-1 3,0 1,1 0,2 1,-3 4,0 1,-1 3,0 1,-1 4,0 0,-1 1,-1 2,0 1,-1 3,0 1,-1 2,0 1,1 2,0 1,-1 3,0 1,-1 4,0 1,-1 3,0 1,-1 3,0 1,-1 4,0 1,-1 2,0 1,-1 2,0 1,-1 2,0 1,-1 3,0 1,-1 2,0 1,-1 1,0 1,-1 2,0 1,-1 1,0 1,-1 2,0 1,-1 1,0 1,-1 6,0 1,1 1,1 0,1 1,0 -2,-3 0,-1 1,-1 0,-1 1,-1 2,0 1,-1 1,0 2,-2 1,0 1,-1 1,0 1,-1 1,0 1,-1 1,-1 1,0 1,-1 1,0 1,-1 1,0 1,-1 1,-1 1,0 1,-1 1,0 1,-1 1,-1 1,0 1,-1 1,0 1,-1 1,0 1,-1 1,-1 1,0 1,-1 1,0 1,-1 1,-1 1,0 1,-1 1,0 1,-1 1,-1 1,0 1,-1 1,-1 1,0 1,-1 1,0 1,-1 1,-1 1,0 1,-1 1,0 1,-1 1,0 1,-1 1,0 1,-1 1,0 1,-1 1,-1 1,0 1,-1 1,0 1,-1 1,0 0,-2 1,-1 1,-1 0,-1 -2,0 -1,-1 -1,0 -1,-1 0,-2 -1,0 -1,-1 0,-2 1,-1 0,-2 -1,-1 -1,0 -1,-1 0,-2 -2,0 -1,-1 -1,0 -1,-1 0,-2 -1,0 -1,-1 -1,0 1,1 1,1 0,1 1,1 0,1 1,1 1,1 0,1 1,1 1,1 0,1 1,1 1,1 -164,70 165,-68 0,2 -1,1 -1,0 -1,1 -1,1 -1,0 -1,1 -1,0 -1,1 -1,0 -1,1 -1,0 -1,1 -1,1 -1,0 -1,1 -1,0 -1,1 -1,0 -1,1 -1,1 -1,0 -1,1 -1,1 -1,0 -1,1 -1,1 -1,0 -1,1 -1,0 -1,1 -1,0 -1,1 -1,1 -1,0 -1,1 -1,0 -1,1 -1,1 -1,0 -1,1 -1,0 -1,1 -1,0 -1,1 -1,1 -1,0 -1,1 -1,0 -1,1 -1,0 -1,1 -1,1 -1,0 -1,1 -1,0 -1,1 -1,1 -1,0 -1,1 -1,0 -1,1 -1,0 -1,1 -1,0 -1,1 -1,0 -1,1 -2,0 -1,-1 0,2 -1,1 -2,0 -1,1 -1,0 -1,1 -1,0 -1,1 -2,0 -1,1 -2,0 -1,1 -2,0 -1,1 -2,0 -1,1 -2,0 -1,1 -2,0 -1,1 -3,0 -1,1 -2,0 -1,1 -4,0 -1,1 -3,0 -1,1 -4,0 -1,1 -3,0 -1,1 -3,0 -1,1 -2,0 0,1 -1,1 -3,0 -1,1 -10,0 -1,1 -3,0 -1,1 -5,0 -1,1 -3,0 -1,1 -4,0 0,1 -1,1 -2,0 164,-68 -165,68Z"/>
<path onmouseover="hoverPath(evt)" onmouseout="recoverPath(evt)" fill="rgb(243,241,233)" d="M  170,255l 85,0 0,-37 -1,0 0,3 -1,1 -3,0 -1,1 -1,0 -1,1 -1,0 -1,1 -3,0 -1,1 -1,0 -1,1 -3,0 -1,1 -2,0 -1,1 -2,0 -1,1 -2,0 0,2 -1,1 -2,0 -1,-1 -1,0 -1,1 -2,0 -1,1 -2,0 -1,1 -2,0 0,2 -1,1 -2,0 -1,-1 -1,0 -1,1 -2,0 0,2 -1,1 -3,0 -1,-1 -1,1 -1,0 -1,1 -1,0 -1,1 -2,0 -1,-1 -1,0 -1,1 -2,0 -1,1 -2,0 -1,1 -1,0 -1,1 -2,0 -1,1 -2,0 -1,1 -3,0 -1,1 -2,0 -1,1 -1,0 -1,1 -2,0 -1,1 -2,0 -1,1 -2,0 -1,1 -2,0 0,1Z"/>
<path onmouseover="hoverPath(evt)" onmouseout="recoverPath(evt)" fill="rgb(249,249,244)" d="M  240,118l 0,0 1,1 0,4 -1,1 -1,0 -1,1 -1,1 -3,0 -1,-1 0,2 -1,1 -1,0 -1,1 -2,0 -1,1 -1,0 -1,1 -2,0 0,1 3,0 1,-1 1,0 1,-1 1,0 1,-1 2,0 1,-1 2,0 1,1 1,-1 2,0 1,-1 1,0 0,-2 1,-1 1,0 1,-1 1,0 1,-1 5,0 1,1 0,1 1,1 0,1 1,0 0,-8 -2,0 -1,1 -3,0 -1,-1 0,-1 -1,-1 -1,0 -1,1 -4,0 -1,1Z"/>
<path onmouseover="hoverPath(evt)" onmouseout="recoverPath(evt)" fill="rgb(244,243,236)" d="M  0,163l 0,92 26,0 0,-10 1,-1 0,-3 1,-1 0,-2 1,-1 0,-1 1,-1 0,-2 1,-1 0,-1 1,-1 0,-1 1,-1 0,-1 1,-1 0,-1 1,-1 1,-1 0,-1 1,-1 1,-1 0,-1 2,-2 0,-1 1,-1 0,-1 1,-1 0,-1 1,-1 0,-1 1,-1 0,-1 1,-1 0,-1 1,-1 0,-2 1,-1 0,-12 -1,-1 0,-2 -1,-1 0,-1 -1,-1 0,-2 -1,-1 0,-1 -1,-1 0,-2 -1,-1 0,-1 -1,-1 0,-1 -1,-1 0,-1 -1,-1 0,-1 -1,-1 0,-1 -1,-1 0,-1 -1,-1 0,-1 -1,-1 0,-1 -1,-1 0,-1 -1,-1 0,-2 -3,0 -1,1 -3,0 -1,1 -4,0 0,2 -1,1 -2,0 -1,-1 0,-2 -1,0 -1,1 -2,0 0,1 -1,1 -5,0 -1,1 -4,0 -1,1Z"/>
<path onmouseover="hoverPath(evt)" onmouseout="recoverPath(evt)" fill="rgb(171,198,237)" d="M  34,155l 0,2 1,1 0,1 1,1 0,1 1,1 0,1 1,1 0,1 1,1 0,1 1,1 0,1 1,1 0,1 1,1 0,1 1,1 0,1 1,1 0,2 1,1 0,1 1,1 0,2 1,1 0,1 1,1 0,2 1,1 0,14 -1,1 0,2 -1,1 0,1 -1,1 0,1 -1,1 0,1 -1,1 0,1 -1,1 0,1 -1,1 0,1 -1,1 -1,1 0,1 -1,1 -1,1 0,1 -1,1 -1,1 0,1 -1,1 0,1 -1,1 0,1 -1,1 0,1 -1,1 0,2 -1,1 0,1 -1,1 0,2 -1,1 0,3 -1,1 0,9 10,0 0,-3 1,-1 0,-4 1,-1 0,-2 1,-1 0,-3 1,-1 0,-2 1,-1 0,-1 1,-1 0,-1 1,-1 0,-1 1,-1 0,-1 1,-1 1,-1 0,-1 1,-1 0,-1 1,-1 0,-1 1,-1 0,-1 1,-1 1,-1 0,-1 1,-1 0,-1 1,-1 0,-1 1,-1 0,-1 1,-1 0,-2 1,-1 0,-2 1,-1 0,-2 1,-1 0,-6 -1,-1 0,-2 -1,-1 0,-2 -1,-1 0,-2 -1,-1 0,-2 -1,-1 0,-2 -1,-1 0,-1 -1,-1 0,-1 -1,-1 0,-1 -1,-1 0,-1 -1,-1 -1,-1 0,-1 -1,-1 0,-1 -1,-1 0,-1 -1,-1 0,-1 -1,-1 0,-1 -1,-1 0,-1 -1,-1 0,-2 -1,-1 0,-2 -1,-1 -1,1 -3,0 -1,1 -1,0 -1,1Z"/>
<path onmouseover="hoverPath(evt)" onmouseout="recoverPath(evt)" fill="rgb(245,234,154)" d="M  191,75l 0,0 -1,1 -1,0 -1,1 -1,0 -1,1 -3,0 -1,-1 -1,-1 -1,-1 0,-2 -1,-1 0,-2 1,-1 -1,0 -1,-1 -1,0 -1,-1 -1,-1 -1,-1 0,-1 -1,-1 -1,-1 0,-1 -1,-1 0,-1 -1,-1 -1,-1 0,-1 -1,0 1,2 1,1 0,4 2,0 1,1 18,11 -13,-4 -1,-1 0,1 2,2 0,2 -1,1 1,0 1,1 0,1 1,1 1,0 1,1 0,2 1,0 1,1 0,1 2,0 1,1 1,-1 1,0 1,-1 2,0 1,-1 1,0 1,-1 1,0 1,-1 1,0 1,-1 2,0 1,-1 1,0 1,-1 1,0 1,-1 1,0 1,-1 5,0 0,-2 1,-1 4,0 0,-1 1,-1 2,0 1,-1 1,0 1,-1 1,0 1,-1 3,0 0,-1 1,-1 2,0 1,-1 4,0 1,1 1,0 1,-1 2,0 1,-1 1,0 1,-1 3,0 2,2 1,1 0,4 1,1 2,0 0,-30 -1,0 -1,1 0,4 -1,1 0,4 -1,1 -2,0 -1,1 -2,0 -1,1 -1,0 -1,1 -1,0 -1,1 -2,0 -1,1 -1,0 -1,1 -1,0 -1,1 -1,0 -1,1 -2,0 -1,1 -1,0 -1,1 -1,0 -1,1 -3,0 -1,1 -2,0 -1,1 -1,0 -1,1 -2,0 -1,1 -1,0 -1,1 -1,0 -1,1 -5,0 -1,-1 0,2 -1,1 -1,1 -1,0 -1,1 -2,0 -1,1 -1,0 -1,1 -1,0 -1,1 -14,-4 13,4 -16,-6 0,0 16,6Z"/>
<path onmouseover="hoverPath(evt)" onmouseout="recoverPath(evt)" fill="rgb(244,243,235)" d="M  227,135l 0,1 1,1 0,1 1,1 0,1 1,1 1,1 0,1 1,1 0,1 1,1 1,1 0,1 1,1 0,1 1,1 0,1 1,1 1,1 0,1 1,1 0,1 1,1 1,1 0,2 1,1 1,1 0,1 1,1 0,1 1,1 0,1 1,1 0,1 1,1 0,1 1,1 2,0 1,1 0,2 -1,1 -1,0 0,1 2,0 1,1 0,2 -1,1 0,2 1,1 0,2 3,0 0,-59 -2,0 -1,-1 0,-1 -1,-1 0,-1 -3,0 -1,1 -1,0 -1,1 -1,0 0,2 -1,1 -1,0 -1,1 -2,0 -1,1 -2,0 -1,-1 -1,1 -2,0 -1,1 -1,0 -1,1 -1,0 -1,1Z"/>
</svg>