<svg width="256" height="256" xmlns="http://www.w3.org/2000/svg"><script> 
var tempColor;
function hoverPath(evt){
obj = evt.target;
tempColor = obj.getAttribute("fill");
obj.setAttribute("fill","red");
//alert(tempColor);
//obj.setAttribute("stroke","red");}
function recoverPath(evt){
obj = evt.target;
obj.setAttribute("fill", tempColor);
//obj.setAttribute("stroke", tempColor);
}</script><path onmouseover="hoverPath(evt)" onmouseout="recoverPath(evt)" fill="rgb(243,242,233)" d="M  3,223l -3,0 0,1 2,0 1,1 1,1 2,0 1,1 1,1 1,1 1,1 1,1 0,2 1,0 1,1 2,2 1,1 1,1 0,1 1,1 2,2 5,0 1,-1 10,0 1,-1 2,0 0,-5 -1,-1 0,-8 -1,-1 0,-7 -19,0 -1,-1 -1,-1 0,1 -1,1 -1,0 -1,1 -2,0 -1,1 -1,0 -1,1 -3,0 -2,2Z"/>
<path onmouseover="hoverPath(evt)" onmouseout="recoverPath(evt)" fill="rgb(241,240,229)" d="M  45,151l -1,0 0,1 -1,1 -2,0 0,4 1,1 0,13 1,1 1,0 1,1 0,6 -1,1 0,4 -1,1 0,2 1,0 1,1 0,1 1,1 1,0 1,1 0,4 4,0 1,1 4,0 1,-1 0,-21 -1,-1 0,-17 -1,-1 0,-1 -3,0 -1,-1 -1,0 -1,-1 -2,0 -1,-1Z"/>
<path onmouseover="hoverPath(evt)" onmouseout="recoverPath(evt)" fill="rgb(189,214,144)" d="M  65,96l 0,0 -1,1 -1,1 0,1 -1,1 -1,1 -1,0 0,1 -1,1 0,1 -1,1 -1,1 -1,1 0,1 -1,1 0,1 -1,1 0,2 -1,1 0,1 -1,1 0,3 -1,1 0,4 -1,1 2,0 1,1 0,3 -1,1 0,1 1,1 1,0 1,1 1,0 1,1 3,0 1,1 2,0 1,1 1,0 1,1 2,0 1,1 2,0 1,1 1,0 1,1 2,0 1,1 2,0 1,1 2,0 1,1 1,0 1,1 2,0 1,1 3,0 1,1 0,2 6,0 1,1 3,0 0,-3 -1,-1 0,-5 1,-1 0,-1 1,-1 1,0 0,-1 -1,-1 -1,0 -1,-1 0,-1 -1,0 -1,-1 0,-1 -1,-1 -1,0 -1,-1 -1,-1 -1,1 -2,0 -1,-1 -18,0 -1,-1 -5,0 -1,-1 0,-1 -1,-1 0,-2 -1,-1 -1,-1 -1,-1 0,-3 -1,0 -1,-1 0,-2 1,-1 1,0 0,-5 1,-1 0,-1 1,-1 1,-1 1,-1 1,-1 0,-1 1,-1 0,-2 -1,-1 0,-1 -1,0 -1,1Z"/>
<path onmouseover="hoverPath(evt)" onmouseout="recoverPath(evt)" fill="rgb(243,241,232)" d="M  128,6l 0,0 -1,-1 0,4 1,1 0,0 1,1 0,1 1,1 1,0 1,1 1,0 1,1 0,2 -1,1 1,1 0,0 1,1 0,1 1,1 1,1 1,0 1,1 1,0 1,1 1,1 1,1 1,1 1,1 1,-1 4,0 1,-1 3,0 1,-1 4,0 1,-1 4,0 1,-1 4,0 1,-1 3,0 1,-1 5,0 1,-1 6,0 1,-1 3,0 0,-3 -1,0 -1,-1 -1,0 -1,-1 -5,0 -1,-1 -4,0 -1,-1 -5,0 -1,-1 -4,0 -1,-1 -5,0 -1,-1 -5,0 -1,-1 -4,0 -1,-1 -5,0 -1,-1 -4,0 -1,-1Z"/>
<path onmouseover="hoverPath(evt)" onmouseout="recoverPath(evt)" fill="rgb(244,243,235)" d="M  156,40l 0,2 1,1 0,1 2,2 0,1 1,1 1,1 0,1 1,1 0,1 1,1 1,1 0,1 1,1 1,1 0,1 1,1 1,1 0,1 1,1 0,1 1,1 1,1 0,1 1,1 1,1 0,1 1,1 1,1 0,1 1,1 0,1 1,0 1,-1 2,0 1,1 1,-1 1,0 1,-1 2,0 1,-1 1,0 1,-1 1,0 1,-1 1,0 1,-1 1,0 1,-1 1,0 0,-2 1,-1 2,0 1,1 1,-1 2,0 1,-1 1,0 1,-1 1,0 1,-1 1,0 0,-2 1,-1 1,0 1,-1 2,0 1,1 1,-1 1,0 1,-1 -1,-1 0,0 -1,-1 -1,-1 0,-1 -1,-1 -2,0 -1,-1 -1,-1 0,-2 1,-1 -1,-1 0,-1 -1,-1 0,-1 -1,-1 0,-3 -1,-1 0,-4 -1,-1 0,-2 -1,2 -9,0 -1,1 -6,0 -1,1 -6,0 -1,1 -5,0 -1,1 -4,0 -1,1 -4,0 -1,1 -3,0 -1,1 -4,0 -1,1Z"/>
<path onmouseover="hoverPath(evt)" onmouseout="recoverPath(evt)" fill="rgb(249,249,245)" d="M  20,57l 0,0 -1,1 0,1 1,0 1,1 1,1 1,1 0,1 1,0 1,1 1,1 1,1 1,1 1,1 1,1 0,3 2,0 1,1 0,2 1,1 2,0 1,1 1,1 0,2 -1,1 0,3 1,1 0,4 -1,1 0,1 -1,1 -1,1 -1,1 -2,0 -1,-1 -3,0 -1,-1 -1,-1 0,-2 -1,-1 -4,0 -1,-1 -1,0 -1,-1 -1,1 0,3 -1,1 -1,1 -1,1 -3,0 0,5 -1,1 -1,1 0,1 -1,1 -1,1 -1,1 -1,1 1,0 3,-3 1,0 1,1 0,3 -1,1 0,1 1,1 0,5 -1,1 0,2 -1,1 0,1 2,0 1,1 2,0 1,1 2,0 1,1 1,0 1,1 1,0 1,1 3,0 1,1 2,0 1,1 1,1 2,0 1,1 1,0 0,-1 1,-1 0,-2 1,-1 0,-2 1,-1 -1,-1 0,-4 1,-1 0,-4 1,-1 1,-1 0,-1 1,-1 2,0 0,-2 1,-1 1,-1 -1,-1 0,-2 1,-1 2,0 1,-1 1,-1 1,-1 1,0 1,-1 3,-3 0,-1 1,-1 -2,0 -1,-1 -1,-1 -1,-1 -1,-1 0,-5 -1,-1 -1,0 -1,-1 0,-4 -1,1 -1,1 -4,0 -1,-1 -1,-1 -1,-1 0,-1 -1,-1 0,-2 1,-1 1,0 1,-1 1,-1 1,0 1,-1 1,-1 1,0 1,-1 -1,0 -1,-1 0,-3 1,-1 -1,-1 -1,-1 -1,-1 -1,-1 -1,-1 -1,-1 0,-4 1,-1 1,0 1,-1 1,-1 1,0 1,-1 1,-1 1,0 1,-1 1,-1 0,-2 -1,1 -1,0 -1,1 -1,1 -1,0 -1,1 -1,1 -1,0 -1,1 -1,1 -1,0 -1,1 -1,1 -1,0 0,1 -1,1 0,1 -1,1 -2,0 -1,1 -1,0 -1,1 -1,1 1,1 0,0 1,1 1,1 1,1 1,1 1,1 1,1 1,1 1,1 0,2 -1,1 -2,0 -1,-1 -1,-1 -1,-1 -1,-1 -1,-1 -1,-1 -1,-1 -1,-1 -1,-1 -1,-1 0,-1 -1,0 -1,1 -8,57 0,-1 1,2 3,0 -4,-1 8,-57 -9,50 0,0 1,-4 0,-2 1,-1 0,-1 1,-1 1,-1 0,-1 1,-1 1,-1 1,-1 4,0 1,1 1,0 1,1 1,1 1,0 1,1 1,1 1,0 1,1 1,1 1,0 1,1 1,1 1,1 1,1 0,2 -1,1 0,1 -1,1 0,1 -1,1 0,1 -1,1 0,1 -1,1 -1,1 0,1 -2,2 -4,0 -1,-1 -2,0 -1,-1 -2,0 -1,-1 -7,-9 9,-50 -10,36 0,0 10,-36 29,14 1,-1 1,0 0,-1 -2,1 0,1 -29,-14Z"/>
<path onmouseover="hoverPath(evt)" onmouseout="recoverPath(evt)" fill="rgb(242,241,232)" d="M  42,48l 0,0 -1,1 -1,0 0,2 1,1 0,0 1,1 1,1 1,1 1,1 1,1 0,2 -1,1 0,1 1,-1 0,0 1,-1 1,0 1,-1 1,0 1,-1 1,-1 1,0 1,-1 1,0 1,-1 1,-1 2,0 1,1 0,2 -1,1 -1,1 -1,0 -1,1 -1,0 -2,2 -1,0 -1,1 -1,0 -1,1 -1,1 -1,0 -2,2 -1,0 -1,1 -1,1 -1,0 -1,1 -1,1 -1,0 1,1 0,1 1,1 1,1 2,0 1,-1 0,0 1,-1 1,-1 1,-1 0,-1 1,-1 1,0 1,-1 2,0 1,1 0,3 -1,1 -1,0 -1,1 -1,1 -1,1 0,2 1,0 1,1 1,1 0,5 1,1 1,1 1,1 1,0 1,-1 1,0 0,-2 1,-1 1,-1 1,0 2,-2 1,0 0,-1 1,-1 1,-1 2,0 1,1 0,1 1,0 1,-1 1,-1 0,-2 1,-1 3,0 1,-1 0,-1 1,-1 1,0 0,-4 1,-1 1,0 0,-2 1,-1 0,-8 -1,-1 0,-1 -1,-1 0,-1 -1,-1 -1,-1 0,-1 -1,-1 -1,-1 0,-2 -1,0 -1,-1 -1,-1 0,-1 -1,-1 -1,-1 0,-1 -1,-1 -1,-1 0,-1 -1,-1 -1,-1 0,-1 -1,-1 0,-1 -1,1 -1,0 -1,1 -1,0 -1,1 -1,1 -1,0 -1,1 -1,1 -1,0 -1,1 -3,0 0,1 -1,1 0,3 -1,1 -1,1 -1,1 -1,0 -1,1 -1,1 -1,0 -1,1Z"/>
<path onmouseover="hoverPath(evt)" onmouseout="recoverPath(evt)" fill="rgb(244,242,234)" d="M  90,248l -2,0 -1,1 -4,0 -1,1 -14,0 -1,1 -13,0 0,4 64,0 0,-1 -1,-1 0,-1 -1,-1 0,-1 -1,-1 0,-2 -1,-1 -1,0 -1,-1 -1,1 0,0 -1,1 -10,0 -1,1Z"/>
<path onmouseover="hoverPath(evt)" onmouseout="recoverPath(evt)" fill="rgb(243,241,233)" d="M  139,0l -29,0 0,1 4,0 1,1 2,0 1,1 1,0 1,1 1,0 1,1 1,0 1,-1 1,0 1,-1 2,0 1,1 8,0 1,1 4,0 1,1 5,0 1,1 4,0 1,1 5,0 1,1 5,0 1,1 4,0 1,1 5,0 1,1 4,0 1,1 4,0 1,-1 6,0 1,1 0,6 9,0 1,-1 3,0 1,-1 1,0 1,-1 1,-1 1,-1 1,-1 2,0 1,1 0,2 -1,1 -1,1 6,0 1,-1 34,0 0,-17Z"/>
<path onmouseover="hoverPath(evt)" onmouseout="recoverPath(evt)" fill="rgb(238,238,213)" d="M  219,121l 0,0 -1,1 -1,1 -1,1 -1,1 -1,1 1,1 0,6 -1,1 1,1 0,1 1,1 0,2 -1,1 1,1 2,0 1,1 3,0 1,1 0,-2 1,-1 2,0 1,1 1,0 1,-1 6,0 1,1 0,1 1,1 1,1 1,1 1,0 1,1 1,0 1,1 1,1 1,1 1,1 1,1 0,1 1,1 4,0 1,1 1,1 1,0 0,-48 -2,0 -1,1 0,1 -1,1 -6,0 0,2 -1,1 -3,0 -1,1 -3,0 -1,1 -3,0 -1,1 -3,0 -1,1 -3,0 -1,1 -3,0 -1,1 -1,0Z"/>
<path onmouseover="hoverPath(evt)" onmouseout="recoverPath(evt)" fill="rgb(242,240,229)" d="M  223,176l -1,0 -1,1 -1,1 0,1 -1,1 -2,0 0,1 -1,1 0,1 -1,1 0,2 2,0 1,1 0,2 1,0 1,1 0,2 1,1 0,2 2,0 1,1 2,0 1,-1 3,0 1,1 2,0 1,1 2,0 1,-1 1,0 0,-1 -2,0 -1,-1 0,-4 -1,-1 -1,-1 0,-1 -1,-1 -1,-1 0,-1 -1,-1 0,-1 -1,-1 -1,-1 0,-1 -1,-1 -1,-1 0,-1 -1,-1 -1,0 -1,1Z"/>
<path onmouseover="hoverPath(evt)" onmouseout="recoverPath(evt)" fill="rgb(236,234,218)" d="M  20,202l 0,10 1,1 0,-1 1,-1 0,0 1,-1 2,0 1,-1 6,0 1,-1 1,0 0,-3 1,-1 1,0 0,-2 -1,-1 -6,0 -1,-1 -8,0Z"/>
<path onmouseover="hoverPath(evt)" onmouseout="recoverPath(evt)" fill="rgb(240,238,226)" d="M  90,191l 0,0 -1,-1 0,-14 1,-1 5,0 0,-2 -1,-1 0,-1 -1,-1 -1,0 -1,-1 -1,0 -1,-1 -1,0 1,1 0,2 -1,1 0,2 -1,1 -6,0 -1,-1 -1,-1 0,-3 1,-1 0,-4 -1,0 -1,-1 -1,0 -1,-1 -2,0 -1,-1 -1,0 -1,-1 -2,0 -1,-1 -1,0 0,1 -1,1 0,24 -1,1 0,5 1,1 0,2 -1,1 0,1 1,0 1,-1 7,0 1,1 1,0 1,1 2,0 0,-2 -1,-1 0,-3 1,-1 1,-1 2,0 1,1 0,4 2,0 1,1 0,1 1,1 0,1 3,0 1,1 6,0 0,-8 -1,-1 0,-1 -1,-1 -1,1 -1,0 -1,1Z"/>
<path onmouseover="hoverPath(evt)" onmouseout="recoverPath(evt)" fill="rgb(244,238,145)" d="M  0,227l 0,10 2,0 1,1 1,1 1,0 1,1 0,1 1,1 0,1 1,1 1,1 1,0 1,1 0,4 -2,2 -1,1 -1,1 0,1 45,0 0,-5 1,-1 13,0 1,-1 14,0 1,-1 4,0 1,-1 11,0 1,-1 10,0 1,-1 1,-1 2,0 1,1 1,0 1,1 1,0 1,-1 3,0 1,-1 4,0 1,-1 4,0 1,-1 2,0 1,-1 3,0 1,-1 3,0 1,-1 3,0 1,-1 3,0 1,-1 10,0 1,1 2,0 1,1 1,1 1,1 1,1 0,1 1,1 1,1 0,1 1,1 0,1 1,1 0,1 1,1 1,1 0,1 1,1 0,2 12,0 0,-2 -1,-1 0,-1 -1,-1 0,-1 -1,-1 0,-1 -1,-1 0,-1 -1,-1 0,-1 -1,-1 0,-1 -1,-1 0,-1 -1,-1 -1,-1 0,-1 -1,-1 0,-1 -1,-1 0,-1 -1,-1 -1,-1 0,-1 -1,-1 0,-2 -1,-1 -1,-1 -1,-1 0,-4 -1,0 -1,-1 0,-3 -1,-1 0,-2 1,-1 0,-10 -1,-1 0,-4 1,-1 4,0 1,1 3,0 1,1 2,0 1,1 2,0 1,1 2,0 1,1 1,0 1,1 2,0 1,1 2,0 1,1 2,0 1,1 0,5 1,-3 0,-2 1,-1 2,0 1,1 0,1 2,0 1,1 2,0 1,1 3,0 1,1 3,0 1,1 2,0 1,1 3,0 1,1 3,0 1,1 2,0 1,1 3,0 1,1 2,0 1,1 2,0 1,1 3,0 1,1 3,0 1,1 2,0 1,1 2,0 1,1 1,0 0,-9 -4,0 -1,-1 -2,0 -1,-1 -1,0 -1,1 -4,0 -1,-1 -1,-1 -2,0 -1,-1 -1,0 -1,-1 0,-1 -2,0 -1,-1 -1,0 -1,1 -4,0 -1,-1 -1,-1 -2,0 -1,-1 -1,0 -1,-1 0,-1 -1,-1 -2,0 -1,1 -2,0 -1,-1 0,-1 -1,0 -1,1 -3,0 -1,-1 0,-2 -3,0 -1,-1 -1,-1 -2,0 -1,1 -3,0 -1,-1 -1,0 -1,-1 0,-1 -1,0 -1,1 -4,0 -1,-1 -1,-1 -1,0 -1,-1 0,-1 -1,0 -1,1 -4,0 -1,-1 -1,-1 -2,0 -1,-1 -4,0 -1,-1 -3,0 -1,-1 -1,-1 0,-1 -1,-1 -3,0 -1,1 -2,0 -1,-1 -1,0 -1,-1 -3,0 -1,1 2,0 1,1 1,0 1,1 2,0 1,1 1,1 0,5 -1,1 0,14 -1,1 1,0 1,1 0,14 -1,1 0,1 -1,1 -1,1 -1,0 -1,1 -1,0 -1,1 -3,0 -1,1 -3,0 -1,1 -3,0 -1,1 -3,0 -1,1 -3,0 -1,1 -3,0 -1,1 -3,0 -1,1 -3,0 -1,1 -3,0 -1,1 -1,1 -5,0 -1,-1 -1,0 -1,1 -9,0 -1,1 -11,0 -1,1 -15,0 -1,1 -13,0 -1,-1 -1,-1 0,-7 -1,-1 0,-6 -1,-1 0,-6 -1,-1 0,-7 -1,-1 0,-5 1,-1 -2,0 -1,-1 0,-6 1,-1 1,0 0,-3 -1,0 -1,-1 -1,-1 0,-1 -1,0 -1,-1 0,-4 1,-1 0,-4 1,-1 0,-4 -1,0 -1,-1 -1,-1 0,-13 -1,-1 0,-6 1,-1 2,0 0,-1 1,-1 0,-4 -1,-1 0,-4 -1,0 -1,-1 -2,0 -1,-1 -2,0 -1,-1 -2,0 -1,-1 0,-2 -1,-1 0,-2 -1,0 -1,-1 0,-2 -1,-1 -2,0 -1,-1 -3,0 -1,-1 -1,0 -1,-1 -1,0 -1,-1 -2,0 -1,-1 -2,0 -1,-1 -2,0 -1,-1 0,-1 -4,0 -1,-1 -1,-1 -1,0 0,16 2,0 1,1 1,0 1,1 2,0 1,1 1,0 1,1 1,0 1,1 2,0 1,1 1,0 1,1 1,0 1,1 2,0 1,-1 2,0 1,1 1,0 1,1 1,1 0,1 2,0 1,1 0,7 1,1 0,10 -1,1 -1,0 0,1 1,1 0,1 1,1 0,6 1,1 0,4 1,1 0,4 1,1 0,4 -1,1 0,3 2,0 1,1 0,6 1,1 0,4 1,1 0,18 1,1 0,8 1,1 0,7 -1,1 -2,0 -1,1 -10,0 -1,1 -7,0 -1,-1 -1,-1 -1,-1 -1,-1 0,-1 -1,-1 -1,-1 -1,-1 -1,-1 -1,0 -1,-1 0,-2 -1,-1 -1,-1 -1,-1 -1,-1 -2,0 -1,-1 -1,-1 -1,1Z"/>
<path onmouseover="hoverPath(evt)" onmouseout="recoverPath(evt)" fill="rgb(251,251,249)" d="M  13,203l 0,6 -1,1 -2,0 -1,1 -1,1 -1,1 -1,0 -1,1 -1,0 -1,1 -1,1 -2,0 0,5 2,0 1,-1 0,0 1,-1 3,0 1,-1 1,0 1,-1 2,0 1,-1 1,0 0,-12 -1,-1 0,-3 -1,-1 -1,-1 2,4 0,1 -3,-5 -8,0 -1,1 -1,-1 0,-2 1,-1 4,0 1,-1 1,0 3,4 3,5 4,0 1,1 0,-5 1,-1 10,0 1,1 5,0 0,-4 -11,0 -1,-1 -4,0 -1,-1 0,-1 -1,-1 0,-2 -1,3 0,1 -1,1 -5,0 6,9 -3,0 5,10 0,2 1,1 18,0 0,-9 -1,-1 0,3 -1,1 -1,0 -1,1 -6,0 -1,1 -2,0 -1,1 0,1 -1,1 -2,0 -1,-1 -1,-1 -5,-10Z"/>
<path onmouseover="hoverPath(evt)" onmouseout="recoverPath(evt)" fill="rgb(242,241,231)" d="M  78,19l 0,0 -1,1 1,1 1,1 0,2 1,0 1,1 1,1 0,2 1,0 1,1 1,1 1,1 1,1 1,-1 1,0 1,-1 1,0 1,-1 1,0 1,-1 1,-1 2,0 1,-1 2,0 1,-1 1,0 0,-1 1,-1 5,0 1,-1 1,0 1,-1 2,0 1,-1 1,0 1,-1 1,0 1,-1 5,0 1,1 1,1 0,1 2,0 0,-1 1,-1 -1,-1 -1,0 -1,-1 0,-2 -1,-1 -2,0 -1,-1 -1,-1 -1,0 -1,-1 0,-2 -1,-1 -2,0 -1,-1 -2,0 -1,1 -3,0 -1,-1 0,-2 -3,0 -1,1 -3,0 -1,-1 -1,1 -1,1 0,2 -1,1 -2,0 -1,-1 -1,1 -1,0 0,2 -1,1 -2,0 -1,-1 -1,1 -1,0 -1,1 -1,0 -1,1 -1,0 -1,1 -1,0 -1,1Z"/>
<path onmouseover="hoverPath(evt)" onmouseout="recoverPath(evt)" fill="rgb(190,212,210)" d="M  80,91l -2,0 0,1 -1,1 -1,1 -1,1 -2,0 -1,1 -2,0 0,1 1,0 1,1 0,2 1,0 1,1 1,1 1,1 0,2 1,1 0,4 -2,2 0,1 1,1 0,0 1,1 3,0 0,-3 1,-1 1,-1 9,0 1,1 0,3 1,-1 2,0 1,1 1,0 1,-1 3,0 1,1 1,-1 4,0 1,1 0,1 1,0 1,1 1,0 0,-1 -1,-1 0,0 -1,-1 0,-1 -1,-1 -2,0 -1,-1 0,-2 1,-1 -1,-1 0,0 -1,-1 -1,-1 0,-2 1,-1 -2,0 -1,-1 -1,0 -1,-1 -5,-5 -1,-1 -2,-2 -1,0 -1,-1 -1,0 -1,-1 -1,0 -1,1 -4,0 -1,1 25,10 3,0 1,1 1,0 1,1 0,1 1,1 0,1 1,1 0,1 1,1 0,1 1,1 0,1 1,1 0,1 -5,-12 1,-1 -2,0 -1,-1 -3,0 -1,1 -25,-10Z"/>
<path onmouseover="hoverPath(evt)" onmouseout="recoverPath(evt)" fill="rgb(241,239,228)" d="M  122,163l -3,0 0,1 1,1 0,3 2,0 1,1 4,0 1,-1 1,0 1,-1 1,-1 2,0 1,1 0,1 1,0 1,1 2,0 1,1 1,0 0,-6 1,-1 2,0 0,-3 1,-1 0,-1 -4,0 -1,-1 -1,0 -1,1 -1,0 0,2 -1,1 -4,0 -1,1 -4,0 -1,1Z"/>
<path onmouseover="hoverPath(evt)" onmouseout="recoverPath(evt)" fill="rgb(246,244,238)" d="M  138,219l -1,0 -1,1 3,0 1,-1 2,0 1,-1 -2,0 -1,-1 0,-7 1,-1 1,-1 1,0 1,-1 1,-1 3,0 1,1 0,-22 -1,0 -1,-1 -2,0 -1,1 -4,0 0,6 -1,1 0,26 -1,1Z"/>
<path onmouseover="hoverPath(evt)" onmouseout="recoverPath(evt)" fill="rgb(242,241,231)" d="M  147,74l 0,0 -1,1 -1,0 -1,1 1,1 1,0 1,1 1,0 1,1 1,1 0,1 1,1 0,3 1,1 0,1 1,1 0,1 2,0 1,-1 1,0 1,-1 0,-2 1,-1 2,0 1,1 1,-1 1,-1 1,0 1,-1 0,-1 -1,-1 0,0 -1,-1 0,-1 -1,-1 0,-1 -1,-1 -1,-1 0,-1 -1,-1 -1,-1 0,-1 -1,-1 -1,-1 0,-1 -1,-1 0,-1 -1,-1 -1,-1 0,-1 -1,-1 -1,-1 0,-1 -1,-1 0,-1 -1,-1 -1,-1 0,-1 -1,-1 -1,-1 0,-1 -1,-1 -1,1 -1,0 -1,1 -4,0 -1,1 -3,0 -1,1 -3,0 1,1 0,1 1,1 1,1 1,1 1,1 1,0 1,1 1,1 0,1 2,0 1,1 0,1 1,1 1,1 1,1 1,1 1,0 1,1 0,3 -1,1Z"/>
<path onmouseover="hoverPath(evt)" onmouseout="recoverPath(evt)" fill="rgb(239,236,224)" d="M  186,163l 0,0 1,1 2,0 1,1 1,-1 2,0 0,-1 1,-1 -1,-1 0,-1 -1,-1 0,-3 -1,-1 0,-3 -1,0 -1,-1 -2,0 -1,1 -2,0 -1,1 0,1 -1,1 0,5 1,1 0,0 1,1 1,0 1,1Z"/>
<path onmouseover="hoverPath(evt)" onmouseout="recoverPath(evt)" fill="rgb(240,238,227)" d="M  191,83l 0,-1 1,-1 0,-1 1,-1 1,0 0,-4 -3,0 -1,1 -1,0 -1,1 -1,0 -1,1 -1,0 -1,1 -1,0 0,2 -1,1 0,1 1,1 0,1 1,1 1,1 0,1 1,1 1,1 0,1 1,1 0,1 3,0 1,1 1,0 1,-1 0,-2 -1,-1 0,-1 -1,-1 0,-1 -1,-1Z"/>
<path onmouseover="hoverPath(evt)" onmouseout="recoverPath(evt)" fill="rgb(240,238,226)" d="M  210,76l 0,2 -1,1 -1,0 -1,1 -2,0 -1,1 -2,0 0,1 -1,1 1,1 0,1 1,1 0,1 1,1 0,2 2,0 1,-1 3,0 1,-1 2,0 1,-1 1,0 0,-1 1,-1 3,0 1,1 1,-1 3,0 1,-1 3,0 1,-1 2,0 1,-1 3,0 1,-1 -1,-1 0,-1 -1,-1 0,-1 -1,-1 -1,-1 -1,-1 0,-1 -1,-1 0,-1 -1,-1 -1,-1 -1,-1 0,-1 -1,-1 -1,-1 -1,-1 0,-1 -1,-1 -1,-1 -1,0 -1,1 -1,0 -1,1 -1,0 -1,1 -1,0 -1,1 -2,0 -1,1 -1,1 -2,0 -1,1 -1,0 -1,1 -2,0 -1,1 -1,0 0,2 1,1 0,3 1,0 1,-1 5,0 1,1Z"/>
<path onmouseover="hoverPath(evt)" onmouseout="recoverPath(evt)" fill="rgb(243,242,234)" d="M  224,147l 0,0 -1,1 0,1 1,1 1,1 0,1 1,1 1,1 0,1 1,1 1,1 0,1 1,1 1,1 0,1 1,1 1,1 0,1 1,1 1,1 0,1 1,1 1,1 0,1 1,1 1,1 0,1 1,1 0,2 1,0 1,1 0,1 1,1 1,1 0,1 1,1 1,1 0,1 1,1 1,1 0,1 1,0 1,-1 2,0 1,1 2,0 0,-30 -2,0 -1,-1 -1,-1 -4,0 -1,-1 -1,-1 0,-1 -1,-1 -1,-1 -1,-1 -1,-1 -1,0 -1,-1 -1,0 -1,-1 -1,-1 -1,-1 -1,-1 0,-1 -4,0 -1,1 -2,0 -1,1 -1,0 -1,1Z"/>
<path onmouseover="hoverPath(evt)" onmouseout="recoverPath(evt)" fill="rgb(251,250,248)" d="M  233,44l 0,0 -1,1 0,6 -1,1 2,0 1,-1 0,-1 -1,-1 0,-5 -6,9 -2,0 -1,1 -3,0 -1,-1 -1,-1 -1,-1 0,-2 -1,0 -1,-1 -1,-1 0,-1 -1,-1 -1,-1 0,-3 1,-1 -2,0 -1,-1 0,-3 -1,-1 0,-5 -2,0 0,1 1,1 0,4 1,1 0,3 1,1 0,1 1,1 0,1 1,1 0,2 -1,1 1,1 2,0 1,1 1,1 0,1 1,1 1,1 1,1 0,2 -1,1 -1,1 -1,0 -1,1 -2,0 -1,-1 -1,1 -1,0 0,2 -1,1 -1,0 -1,1 -1,0 -1,1 -1,0 -1,1 -2,0 -1,1 -2,0 -1,-1 0,2 -1,1 -1,0 -1,1 -1,0 -1,1 -1,0 -1,1 -1,0 -1,1 -1,0 -1,1 -2,0 -1,1 -1,0 -1,1 -2,0 -1,-1 0,2 -1,1 0,1 2,0 1,1 0,-2 1,-1 1,0 1,-1 1,0 1,-1 1,0 1,-1 1,0 1,-1 5,0 1,1 0,6 -1,1 -1,0 0,1 -1,1 0,2 1,1 0,1 1,1 0,1 1,1 0,4 -1,1 -1,1 -2,0 -1,1 -1,0 0,1 1,1 1,0 1,1 0,1 1,1 0,1 1,1 0,1 1,1 0,1 1,0 1,1 3,0 1,1 9,0 1,-1 1,0 1,-1 2,0 0,-5 -1,-1 0,0 -1,-1 0,-2 -1,0 -1,-1 -1,-1 0,-4 1,-1 6,0 1,1 0,1 1,1 0,1 1,1 0,1 -2,-6 0,-1 1,-1 3,0 1,1 0,1 1,1 5,0 0,-1 1,-1 1,-1 0,-2 1,-1 1,-1 2,0 1,-1 2,0 1,1 0,1 1,0 1,1 0,1 1,1 0,1 1,1 0,1 1,1 0,1 1,1 0,2 2,0 -1,-1 0,-1 -1,-1 0,-2 -1,-1 0,-1 -1,-1 0,-1 -1,-1 0,-1 -1,-1 0,-1 -1,-1 0,-1 -1,-1 -1,-1 0,-1 -1,-1 0,-1 -1,-1 0,-3 1,-1 1,0 1,-1 2,0 1,-1 2,0 1,-1 2,0 1,-1 1,0 1,-1 4,0 0,-2 -1,0 -1,1 -2,0 -1,1 -2,0 -1,1 -2,0 -1,1 -1,0 -1,1 -3,0 -1,1 -4,0 -1,-1 -2,-2 0,1 1,1 0,1 1,1 0,1 1,1 1,1 1,1 0,1 1,1 0,1 1,1 0,2 -1,1 -1,1 -3,0 -1,1 -2,0 -1,1 -3,0 -1,1 -3,0 -1,1 -2,0 -1,-1 -1,0 0,1 -1,1 -1,0 -1,1 -2,0 -1,1 -3,0 -1,1 -4,0 -1,-1 0,-2 -1,-1 0,-1 -1,-1 0,-1 -1,-1 0,-2 1,-1 0,-1 1,-1 2,0 1,-1 2,0 1,-1 -2,0 -2,1 -2,0 -1,-1 0,-3 -1,-1 0,-4 1,-1 1,0 1,-1 2,0 1,-1 1,0 1,-1 2,0 1,-1 1,-1 2,0 1,-1 1,0 1,-1 1,0 1,-1 1,0 1,-1 3,0 1,1 1,1 1,1 0,1 2,2 1,1 0,1 1,1 1,-1 0,-1 -1,0 -1,-1 -1,-1 0,-1 -1,-1 -1,-1 0,-1 -1,-1 -1,-1 0,-3 1,-1 1,0 1,-1 6,-9 -4,11 4,-11Z"/>
<path onmouseover="hoverPath(evt)" onmouseout="recoverPath(evt)" fill="rgb(241,241,230)" d="M  240,74l -1,0 0,1 1,1 0,1 1,1 0,1 1,1 1,1 0,1 1,1 0,1 1,1 0,1 1,1 0,1 1,1 0,1 1,1 0,2 1,1 0,1 6,0 0,-26 -3,0 -1,1 -1,0 -1,1 -2,0 -1,1 -2,0 -1,1 -2,0 -1,1Z"/>
<path onmouseover="hoverPath(evt)" onmouseout="recoverPath(evt)" fill="rgb(240,238,226)" d="M  11,204l 0,-3 -1,-1 -7,0 -1,1 -2,0 0,13 1,0 1,-1 0,0 1,-1 1,0 1,-1 1,0 1,-1 1,-1 1,-1 2,0Z"/>
<path onmouseover="hoverPath(evt)" onmouseout="recoverPath(evt)" fill="rgb(248,247,241)" d="M  30,156l 0,-2 -1,-1 0,-7 -2,0 -1,-1 0,-1 -1,-1 1,3 0,1 -1,1 -4,0 -1,-1 -3,0 3,1 0,1 1,1 1,0 1,-1 2,0 1,1 0,4 -1,1 0,3 -1,1 0,1 -1,1 0,2 -1,1 1,1 1,1 1,1 1,0 1,1 1,0 1,1 1,1 0,-1 -1,-1 0,-1 -1,-1 0,-3 1,-1 1,0Z"/>
<path onmouseover="hoverPath(evt)" onmouseout="recoverPath(evt)" fill="rgb(242,241,232)" d="M  92,35l -1,0 -1,1 -1,0 -1,1 2,0 1,1 1,1 0,2 1,0 1,1 1,1 0,2 1,0 1,1 1,1 1,1 0,2 1,0 1,1 1,1 1,0 1,-1 0,0 1,-1 1,0 1,-1 1,-1 1,0 1,-1 1,0 1,-1 1,-1 1,-1 -2,0 -1,-1 0,-2 1,-1 -1,-1 0,0 -1,-1 0,-1 -1,-1 -1,-1 -1,-1 0,1 -1,1 -4,0 -1,-1 -1,0 -1,-1 -2,0 -1,-1 -2,0 -1,1 -1,1Z"/>
<path onmouseover="hoverPath(evt)" onmouseout="recoverPath(evt)" fill="rgb(250,249,246)" d="M  142,68l 0,0 -1,-1 -1,-1 0,-1 -2,0 -1,-1 0,-1 -1,-1 -1,0 -1,-1 -1,-1 -1,-1 -1,-1 -1,-1 0,-1 -1,-1 0,-2 1,-1 3,0 1,-1 -2,0 -3,1 -2,0 -1,1 -3,0 0,1 1,1 0,1 1,1 1,1 1,1 0,1 1,1 0,4 -1,1 1,0 1,1 0,3 -1,1 0,1 -1,1 -1,1 0,1 -1,1 0,1 -1,1 -5,0 -1,-1 -1,-1 0,-4 -1,1 0,1 5,5 0,1 1,1 0,2 1,1 0,1 1,0 1,1 0,2 1,1 1,1 0,-1 1,-1 0,-1 1,-1 1,0 1,-1 3,0 1,1 1,0 1,-1 3,0 1,-1 2,0 1,1 1,0 1,1 0,1 1,1 1,1 0,3 -1,1 -1,1 -1,0 -1,1 -1,0 -1,1 -1,1 -1,0 -1,1 -1,0 -1,1 -1,0 -1,1 -3,0 -1,-1 1,2 0,1 1,1 0,0 1,1 0,1 2,0 1,-1 0,0 1,-1 1,0 1,-1 1,-1 1,0 1,-1 1,0 1,-1 1,-1 1,0 1,-1 1,0 1,-1 3,0 1,1 1,1 0,1 1,1 0,1 1,1 0,2 -1,1 -1,0 0,2 1,-1 3,0 1,1 0,1 1,1 0,1 1,1 0,3 -1,1 -1,1 -1,0 -1,1 -5,0 -1,-1 0,3 -1,1 -2,0 -1,-1 0,2 -1,1 -2,0 -1,1 1,1 1,0 1,1 1,0 1,1 1,1 0,1 2,0 1,1 0,1 5,0 1,1 0,1 1,1 3,0 0,-3 1,-1 2,0 1,-1 5,0 1,-1 0,-2 1,-1 -3,0 -1,-1 0,-1 -1,-1 0,-1 -1,-1 0,-1 -1,-1 -1,-1 0,-1 -1,-1 0,-1 -1,-1 0,-2 1,-1 1,-1 2,0 1,-1 1,0 1,-1 3,0 1,1 1,1 0,-4 1,-1 4,0 -1,-1 0,-1 -1,-1 -1,-1 0,-1 -1,-1 0,1 1,2 0,1 -1,1 -1,0 -1,1 -1,1 -2,0 -1,1 -2,0 -1,-1 0,1 -1,1 -2,0 -1,-1 -1,-1 0,-1 -1,-1 0,-1 -1,-1 -1,-1 -1,-1 -1,-1 0,-1 -1,-1 0,-2 1,-1 1,0 1,-1 1,0 1,-1 1,0 1,-1 2,0 1,-1 4,0 1,1 0,1 1,0 1,1 -5,-4 0,-3 -1,-1 -1,1 -1,1 -1,0 -1,1 -1,1 -2,0 -1,-1 0,2 -1,1 -1,1 -1,0 -1,1 -4,0 -1,-1 0,-1 -1,-1 0,-1 -1,-1 0,-3 -1,-1 0,-1 -1,-1 -1,0 -1,-1 -1,0 -1,-1 -1,-1 0,-2 1,-1 1,-1 1,0 1,-1 0,-1 -1,0 -1,-1 -1,-1 -1,-1 9,48 1,-1 0,-1 -1,1 0,1 -9,-48Z"/>
<path onmouseover="hoverPath(evt)" onmouseout="recoverPath(evt)" fill="rgb(239,237,224)" d="M  220,99l 0,0 -1,-1 0,-1 -1,-1 0,-1 -1,-1 0,-1 -4,0 0,2 1,1 1,0 1,1 0,2 1,1 1,1 0,4 1,0 1,-1 3,0 1,-1 2,0 1,-1 2,0 1,-1 3,0 1,-1 2,0 1,-1 2,0 1,-1 2,0 1,-1 1,0 0,-1 -1,-1 0,-1 -1,-1 0,-1 -1,-1 0,-1 -1,-1 0,-1 -1,0 -1,-1 0,-1 -1,1 -2,0 -1,1 0,2 -1,1 -1,1 0,1 -1,1 -7,0 -1,-1 -1,-1 0,-1 -1,0 0,1 1,1 0,1 1,1 0,3 -1,1Z"/>
<path onmouseover="hoverPath(evt)" onmouseout="recoverPath(evt)" fill="rgb(249,239,145)" d="M  243,203l -2,0 1,1 0,2 -1,1 1,1 2,0 1,-1 3,0 1,1 2,0 1,1 3,0 0,-20 -3,0 -1,-1 -1,1 -3,0 -1,-1 0,-1 -1,-1 -1,-1 0,-1 -1,-1 -1,-1 0,-1 -1,-1 -1,-1 0,-1 -1,0 -1,-1 0,-2 -1,-1 0,-1 -1,-1 -1,-1 0,-1 -1,-1 -1,-1 0,-1 -1,-1 -1,-1 0,-1 -1,-1 -1,-1 0,-1 -1,-1 -1,-1 0,-1 -1,-1 -1,-1 0,-1 -1,-1 -1,-1 0,-1 -1,-1 -1,-1 0,-3 1,-1 0,-1 -1,-1 -3,0 -1,-1 -2,0 -1,-1 -1,-1 0,-2 1,-1 -1,-1 0,-1 -1,-1 0,-2 1,-1 0,-4 -1,-1 0,-2 1,-1 1,-1 1,-1 1,-1 1,-1 0,-2 1,-1 1,0 1,-1 3,0 1,-1 3,0 1,-1 3,0 1,-1 3,0 1,-1 3,0 1,-1 3,0 0,-2 1,-1 6,0 0,-1 1,-1 1,-1 3,0 0,-8 -5,0 0,1 -1,1 -5,0 -1,1 -2,0 -1,1 -2,0 -1,1 -2,0 -1,1 -3,0 -1,1 -2,0 -1,1 -2,0 -1,1 -3,0 -1,1 -2,0 0,1 -1,1 -2,0 -1,1 -1,0 -1,1 -11,0 -1,-1 -3,0 -1,-1 -1,0 -1,-1 0,-1 -1,-1 0,-1 -1,-1 0,-1 -1,-1 0,-1 -1,0 -1,-1 -1,-1 0,-3 1,-1 -2,0 -1,-1 0,-1 -1,-1 0,-1 -1,-1 -1,-1 0,-1 -1,-1 -1,-1 0,-1 -1,-1 0,-2 -1,-1 -2,0 -1,-1 0,-3 1,-1 -2,0 -1,-1 0,-1 -1,-1 0,-1 -1,-1 -1,-1 0,-1 -1,-1 -1,-1 0,-1 -1,-1 -1,-1 0,-1 -1,-1 0,-1 -1,-1 -1,-1 0,-1 -1,-1 -1,-1 0,-1 -1,-1 -1,-1 0,-1 -1,-1 0,-1 -1,-1 -1,-1 0,-1 -1,-1 -1,-1 0,-1 -1,-1 0,-1 -1,-1 0,-2 1,-1 1,0 1,-1 4,0 1,-1 3,0 1,-1 4,0 1,-1 4,0 1,-1 5,0 1,-1 6,0 1,-1 6,0 1,-1 9,0 0,-1 1,-1 6,0 1,1 0,5 1,-5 4,0 1,-1 18,0 1,-1 12,0 1,1 5,0 0,-9 -33,0 -1,1 -8,0 -1,-1 0,-2 2,-2 -3,3 0,0 -1,1 -1,0 -1,1 -3,0 -1,1 -11,0 -1,-1 0,1 -1,1 -3,0 -1,1 -6,0 -1,1 -5,0 -1,1 -3,0 -1,1 -4,0 -1,1 -4,0 -1,1 -4,0 -1,1 -3,0 -1,1 -4,0 -1,1 -2,0 -1,-1 -2,-2 -1,-1 -1,-1 4,5 0,1 -1,1 -4,0 -1,-1 0,-1 -1,-1 -1,-1 -1,-1 -1,-1 4,6 0,1 -1,1 -2,0 -1,1 -1,1 -1,0 -1,1 -1,0 -1,1 -2,0 0,1 -1,1 -1,0 -1,1 -2,0 0,1 -1,1 0,1 -1,1 -4,0 -1,1 -1,1 -1,1 -1,0 -1,1 -1,0 -1,1 -1,1 -1,0 -1,1 -1,1 -3,0 -1,-1 -1,-1 -1,0 -1,-1 0,-2 -1,-1 -1,-1 -1,0 -1,-1 0,-2 -1,-1 -1,0 -1,-1 0,-2 -1,-1 -2,0 -1,-1 0,-1 -1,-1 0,-3 -2,-2 -1,-1 -1,0 -1,-1 0,-2 -1,-1 -1,0 -1,-1 0,-2 -1,-1 -1,-1 0,-2 -5,0 -1,-1 0,-1 -1,-1 0,-1 -1,0 -1,-1 0,-1 -1,-1 -1,0 -1,-1 0,-2 -1,-1 -1,-1 -1,-1 0,-1 -1,-1 -1,0 -1,-1 -1,0 -1,-1 0,-2 -8,0 0,1 1,1 0,3 1,1 1,1 1,0 1,1 0,2 1,1 0,1 1,0 1,1 2,0 1,1 0,2 1,1 0,2 1,1 0,2 -1,1 -1,1 -2,0 -1,-1 -1,1 -1,0 -1,1 -1,1 -2,0 0,3 -1,1 -1,0 -1,1 -1,1 -4,0 0,1 -1,1 -1,0 -1,1 -1,0 -1,1 -1,1 -1,0 0,1 -1,1 -2,0 -1,-1 -1,-1 -1,-1 2,3 0,1 -1,1 -1,0 -1,1 -1,1 -1,0 -1,1 -1,1 -1,0 -1,1 -1,1 -1,0 -1,1 -2,0 -1,-1 -1,-1 -1,-1 -1,-1 -1,0 -1,-1 -1,0 -1,-1 -1,-1 -1,-1 -1,-1 0,-1 -1,-1 0,-3 -1,-1 -1,-1 -2,0 0,6 3,0 1,1 1,1 0,2 1,0 1,1 1,1 1,1 0,1 1,0 1,1 0,1 1,1 0,2 -1,1 -1,1 -1,1 -1,0 -1,1 -1,1 -1,0 0,2 -1,1 -4,0 0,7 3,0 1,1 1,0 1,1 0,-3 1,-1 1,0 1,-1 1,-1 1,0 1,-1 1,-1 1,0 1,-1 2,0 0,-2 1,-1 1,-1 1,-1 3,0 1,1 0,1 1,1 1,1 2,2 1,1 1,1 1,1 2,2 -9,-11 1,-1 0,0 1,-1 1,-1 1,0 1,-1 2,0 0,-1 1,-1 0,-1 1,-1 1,0 1,-1 1,-1 1,0 1,-1 1,-1 1,0 1,-1 1,-1 1,0 1,-1 1,-1 1,0 1,-1 2,0 0,-1 1,-1 3,0 1,-1 1,0 1,-1 1,-1 1,0 1,-1 1,-1 1,0 1,-1 1,0 1,-1 2,0 1,1 0,1 1,1 0,1 1,1 1,1 0,1 1,1 1,1 0,1 1,1 1,1 0,1 1,1 1,0 1,1 0,2 1,1 1,1 0,1 1,1 1,1 0,1 1,1 0,1 1,1 0,10 -1,1 0,2 -1,1 -1,0 0,4 -1,1 -1,0 0,1 -1,1 -1,1 -3,0 0,2 -1,1 -1,1 -1,1 -3,0 -1,-1 0,-1 -1,1 0,1 -1,1 -1,0 -1,1 -1,1 -1,0 -1,1 0,2 -1,1 -1,0 0,2 -1,1 0,1 -4,4 -1,1 -1,0 -1,1 -2,2 -2,0 1,1 0,2 -1,1 -1,1 0,2 -1,1 -2,0 0,1 -1,1 -1,1 0,4 -1,1 0,2 1,1 0,2 -1,1 0,2 -1,1 0,2 -1,1 0,1 -1,1 -3,0 -1,-1 -1,0 2,2 0,1 1,1 0,2 2,0 1,1 2,0 1,1 2,0 1,1 1,0 1,-1 2,0 1,1 1,1 0,4 2,0 1,1 1,-1 3,0 1,1 2,0 1,1 1,0 1,1 0,-1 1,-1 1,0 1,-1 -1,-1 0,-1 -1,0 -1,-1 -1,0 -1,-1 -1,0 -1,-1 -1,0 -1,-1 0,-2 -1,0 -1,-1 -1,0 -1,-1 -1,-1 0,-3 1,-1 0,-1 -2,0 -1,-1 0,-2 1,-1 0,-4 1,-1 0,-3 1,-1 0,-1 1,-1 0,-2 1,-1 0,-1 1,-1 0,-1 1,-1 1,-1 1,-1 0,-1 1,-1 0,-1 1,-1 1,0 1,-1 0,-1 1,-1 1,-1 1,-1 1,-1 2,0 0,-2 1,-1 1,0 1,-1 1,-1 1,-1 1,0 1,-1 1,-1 1,0 1,-1 1,0 0,-1 1,-1 1,0 1,-1 1,-1 1,0 1,-1 1,-1 1,-1 1,0 1,-1 1,-1 1,-1 1,0 1,-1 3,0 1,1 1,0 1,1 1,1 1,1 1,1 1,1 0,1 1,1 3,0 1,1 0,1 1,1 0,1 1,0 1,1 0,1 1,1 1,1 0,1 1,1 1,1 1,1 0,1 1,1 1,1 0,4 2,0 1,1 0,1 1,1 0,1 1,1 1,1 0,1 1,1 0,1 1,1 0,1 1,1 0,1 1,1 0,1 1,1 1,1 0,1 1,1 0,1 1,1 0,1 1,1 0,1 1,1 1,1 0,1 1,1 0,1 1,1 0,1 1,1 0,1 1,1 0,2 1,1 0,1 1,1 1,1 0,2 -1,1 0,2 -2,2 -3,0 -1,-1 -1,0 -1,1 -3,0 0,1 -1,1 -3,0 0,2 -1,1 -6,0 -1,1 -7,0 -1,1 -14,0 -1,-1 -3,0 -1,-1 -4,0 -1,-1 -3,0 -1,-1 0,1 1,1 0,2 3,0 1,1 0,2 1,0 1,1 1,-1 3,0 1,1 1,0 1,1 3,0 1,1 0,2 1,0 1,1 1,-1 4,0 1,1 1,0 1,-1 1,-1 1,-1 7,0 1,1 5,0 1,-1 4,0 1,-1 4,0 0,-2 1,-1 1,0 1,-1 3,0 1,1 4,0 1,1 0,3 -1,1 0,2 1,1 0,4 1,1 0,1 1,1 0,2 -1,1 -1,1 0,3 1,1 4,0 1,1 1,0 1,1 1,-1 5,0 1,1 3,0 1,-1 1,0 0,-1 -1,-1 0,-3 -1,-1 0,-1 -1,-1 0,-3 -1,-1 0,-3 -1,-1 0,-2 -1,-1 0,-2 -1,-1 0,-2 -1,-1 0,-2 -1,-1 0,-4 1,-1 1,0 1,-1 1,-1 1,0 1,-1 1,0 1,-1 1,-1 1,0 1,-1 1,-1 1,0 1,-1 1,-1 3,0 1,1 -1,-2 0,-1 1,-1 4,0 1,1 0,-3 1,-1 1,0 1,-1 7,0 1,1 4,0 1,1 3,0 1,1 1,1 1,0 1,1 0,1 1,1 1,1 0,1 1,1 1,1 0,3 1,1 0,1 1,1 1,1 0,1 1,1 1,1 0,2 1,0 1,1 0,1 1,1 1,1 0,1 1,1 1,1 0,1 1,1 1,1 0,1 1,1 0,2 2,0 1,1 0,4 1,0 1,1 1,1 0,1 1,1 1,1 0,1 1,1 1,1 0,1 1,1 0,1 1,1 1,1 0,1 1,1 1,1 0,4 2,0 1,1 0,2 1,1 0,2 2,0 1,1 0,2 -1,1 -51,-187 0,-2 -4,0 2,1 1,0 1,1 51,187 -70,-73 -5,0 -1,1 -2,0 0,3 -1,1 -5,0 -1,-1 -1,-1 0,-1 -5,0 -1,-1 0,-1 -2,0 -1,-1 0,-1 -1,-1 -1,0 -1,-1 -1,0 -1,-1 -1,-1 0,-2 1,-1 0,-1 -1,-1 0,-1 -2,0 -1,-1 0,-2 1,-1 -1,-1 0,-1 -1,-1 -1,-1 0,-2 -1,-1 -3,0 -1,-1 0,-1 -1,-1 -1,-1 0,-2 -1,-1 0,-2 1,-1 -1,-1 0,-2 -1,-1 -2,0 -1,-1 0,-1 -1,-1 -1,-1 0,-2 -1,0 -1,-1 0,-1 -1,-1 0,-2 -1,-1 0,-1 -1,0 -1,-1 -1,-1 -1,-1 0,-1 -1,-1 0,-2 -1,-1 0,-1 -1,-1 -1,-1 0,-1 -1,0 -1,-1 0,-2 -1,-1 0,-3 1,-1 1,0 1,-1 1,0 1,-1 1,-1 1,0 1,-1 1,-1 1,0 0,-2 1,-1 2,0 1,-1 3,0 1,-1 4,0 1,-1 7,0 1,1 3,0 1,-1 1,0 1,-1 2,0 1,1 1,1 0,1 1,1 1,1 0,1 1,1 1,1 0,1 1,1 0,1 1,1 1,1 0,1 1,1 1,1 0,1 1,1 0,1 1,1 1,1 0,1 1,1 1,1 0,1 1,1 1,1 0,1 1,1 0,1 1,1 1,1 0,1 1,0 1,1 1,1 0,3 2,0 1,1 0,1 1,1 1,1 0,2 -1,1 1,1 0,1 2,0 1,1 1,1 0,1 1,1 1,1 0,1 1,1 0,1 1,1 0,2 -1,1 1,1 0,1 1,1 0,1 1,1 0,1 1,1 0,3 -1,1 0,2 -1,1 -2,0 -1,-1 -1,1 -1,0 -1,1 0,2 -1,1 -1,0 -1,1 -1,0 0,2 -1,1 -1,1 70,73Z"/>
<path onmouseover="hoverPath(evt)" onmouseout="recoverPath(evt)" fill="rgb(241,239,229)" d="M  0,165l 0,28 4,0 1,-1 9,0 0,-1 1,-1 0,-2 1,-1 2,0 1,1 0,2 1,1 0,1 4,0 1,1 7,0 0,-4 1,-1 0,-2 -1,-1 0,-4 -1,-1 0,-4 -2,0 -1,-1 0,-4 -1,-1 -1,0 -1,-1 -1,0 -2,-2 -1,-1 -1,-1 0,-2 1,-1 0,-2 1,-1 0,-1 1,-1 0,-3 1,-1 0,-2 -1,1 -2,0 -1,1 -2,0 -1,-1 0,2 -1,1 -1,0 -1,1 -2,0 -1,-1 0,-2 1,-1 1,0 1,-1 3,0 0,-1 1,-1 -2,0 -1,-1 0,-2 1,-1 5,0 1,1 2,0 0,-1 -1,-1 0,-2 -1,1 -4,0 -1,-1 -1,0 -1,-1 -1,0 -1,-1 -2,0 -1,-1 -1,0 -1,-1 -1,0 -1,-1 -2,0 -1,-1 -1,0 -1,-1 -1,0Z"/>
<path onmouseover="hoverPath(evt)" onmouseout="recoverPath(evt)" fill="rgb(242,240,230)" d="M  0,85l 0,30 2,0 1,1 1,1 3,0 1,-1 0,-2 1,-1 0,-3 -1,-1 0,-3 1,-1 0,-1 -1,1 -1,2 -3,0 -1,-1 0,-2 1,-1 1,-1 1,-1 1,-1 0,-1 1,-1 1,-1 0,-2 -1,-1 0,-3 1,-1 2,0 1,1 1,0 1,-1 1,-1 0,-2 -1,-1 0,-2 1,-1 2,0 1,1 1,0 1,1 1,0 1,1 4,0 1,1 1,1 0,2 1,1 1,-1 2,0 1,1 1,0 1,-1 0,-1 1,-1 0,-2 -1,-1 0,-5 1,-1 -1,-1 -2,0 -1,-1 -1,-1 0,-2 -2,0 -1,-1 0,-3 -1,-1 -1,-1 -1,-1 -1,-1 -1,-1 -1,0 -1,-1 0,-1 -1,-1 -1,-1 -3,0 -1,1 -1,0 -1,1 -1,1 -1,0 -1,1 -1,1 -1,0 0,3 -1,1 -2,0 -1,-1 -1,0 -1,-1 -2,0 0,17 27,-13 -2,0 -1,1 0,0 3,-1 -27,13 24,-11 0,1 1,1 0,0 -1,-2 -24,11 26,-9 1,0 1,-1 0,0 -2,1 -26,9 28,-11 0,0 -28,11Z"/>
<path onmouseover="hoverPath(evt)" onmouseout="recoverPath(evt)" fill="rgb(233,233,198)" d="M  6,45l 0,0 -1,-1 -1,0 -1,-1 0,-2 -1,-1 -2,0 0,17 3,0 0,-2 1,-1 1,0 2,-2 1,0 1,-1 1,-1 -1,-1 0,-1 -1,0 -1,-1 0,-1 -1,-1Z"/>
<path onmouseover="hoverPath(evt)" onmouseout="recoverPath(evt)" fill="rgb(242,240,230)" d="M  28,117l 0,0 1,-1 0,-1 1,-1 1,-1 0,-1 1,-1 0,-1 1,-1 0,-1 1,-1 0,-1 1,-1 -1,-1 -1,-1 -1,-1 -1,0 -1,-1 -1,-1 -1,0 -1,-1 -1,-1 -1,0 -1,-1 -1,-1 -1,0 -1,-1 -2,0 -1,1 0,0 -1,1 0,1 -1,1 -1,1 0,1 -1,1 0,2 -1,1 0,6 1,1 0,1 3,0 1,1 1,0 1,1 2,0 1,1 2,0 1,1Z"/>
<path onmouseover="hoverPath(evt)" onmouseout="recoverPath(evt)" fill="rgb(251,250,247)" d="M  46,197l 0,4 7,0 1,1 6,0 1,1 9,0 1,1 7,0 1,1 8,0 1,1 9,0 1,1 1,0 1,1 1,1 0,2 1,1 0,4 1,1 0,3 1,1 0,3 1,1 0,3 1,1 0,3 -1,1 0,2 1,0 1,1 3,0 1,-1 0,0 -1,-1 0,-4 -1,-1 0,-2 1,-1 4,0 1,-1 1,0 1,-1 1,0 1,-1 -3,0 -1,-1 0,-9 1,-1 0,-3 -1,-1 -6,0 0,1 6,0 0,3 -1,7 -3,0 -1,-1 0,-1 -3,0 -1,-1 -1,-1 0,-6 -1,-1 0,-2 1,-1 0,-1 -1,0 -1,-1 0,-7 -1,-1 0,-20 1,-1 0,-1 1,-1 1,-1 -4,0 -1,-1 0,-2 -2,0 -1,-1 -2,0 -1,-1 -1,0 -1,-1 -2,0 -1,-1 -3,0 -1,-1 -1,0 -1,-1 -2,0 -1,-1 -2,0 -1,-1 -4,0 -1,-1 -1,0 -1,-1 -2,0 -1,-1 -1,0 -1,-1 -2,0 -1,-1 -2,0 -1,-1 -1,0 1,1 0,17 1,1 0,23 -1,1 -1,1 -6,0 -1,-1 -5,0 20,-39 1,0 -2,1 0,1 1,-2 -20,39 24,-38 5,2 2,0 1,1 1,0 1,1 1,0 1,1 0,6 -1,1 0,1 1,1 4,0 0,-2 1,-1 -1,-1 0,-2 1,-1 3,0 1,1 1,0 1,1 1,0 1,1 1,1 0,1 1,1 0,4 -1,1 -5,0 0,12 1,-1 1,0 1,-1 2,0 1,1 1,1 0,1 1,1 0,10 -1,1 -8,0 -1,-1 -3,0 -1,-1 0,-1 -1,-1 0,-1 -2,0 -1,-1 0,-4 -1,1 0,1 1,3 0,2 -1,1 -4,0 -1,-1 -1,0 -1,-1 -5,0 -1,1 -3,0 -1,-1 -1,-1 0,-2 1,-1 0,-8 1,-1 0,-23 6,-3 -24,38Z"/>
<path onmouseover="hoverPath(evt)" onmouseout="recoverPath(evt)" fill="rgb(244,243,234)" d="M  48,205l 0,3 1,1 0,7 1,1 0,6 1,1 0,6 1,1 0,7 1,1 11,0 1,-1 15,0 1,-1 11,0 1,-1 9,0 1,-1 0,-3 1,-1 0,-1 -1,-1 0,-3 -1,-1 0,-3 -1,-1 0,-3 -1,-1 0,-4 -1,-1 0,-2 -1,-1 -1,0 -1,-1 -9,0 -1,-1 -8,0 -1,-1 -7,0 -1,-1 -9,0 -1,-1 -5,0 -1,1Z"/>
<path onmouseover="hoverPath(evt)" onmouseout="recoverPath(evt)" fill="rgb(194,217,155)" d="M  92,116l -1,0 -1,-1 0,-3 -7,0 -1,1 0,3 -1,1 -5,0 -1,-1 -1,-1 -1,-1 0,-3 1,-1 1,-1 0,-2 -1,-1 0,-2 -1,-1 -1,-1 -1,0 -1,-1 0,-2 -1,2 0,1 -1,1 -3,3 0,1 -1,1 0,5 -1,1 -1,0 2,1 0,3 1,1 1,1 1,1 0,2 1,1 0,1 5,0 1,1 18,0 1,1 1,-1 2,0 1,1 1,1 1,0 1,1 1,1 0,1 4,0 1,1 5,0 1,1 1,0 0,-2 1,-1 3,0 1,-1 0,-1 1,-1 1,0 -2,-1 0,-4 1,-1 0,-1 -1,-1 0,-2 -1,-1 -2,0 -1,-1 0,-1 -1,-1 0,-1 -1,-1 0,-1 -1,-1 0,-1 -1,-1 0,-1 -1,-1 0,-1 -1,0 -1,-1 -2,0 1,1 0,0 1,1 1,1 0,2 -1,1 2,0 1,1 1,1 0,1 1,1 1,1 0,3 -1,1 -3,0 -1,-1 -1,0 -1,-1 0,-1 -2,0 -1,1 -2,0 -1,-1 -1,0 -1,1 -3,0 -1,-1 -1,1Z"/>
<path onmouseover="hoverPath(evt)" onmouseout="recoverPath(evt)" fill="rgb(241,240,231)" d="M  160,149l -1,0 0,2 1,1 0,2 1,1 0,2 1,1 0,2 1,1 0,2 1,1 0,3 1,1 0,3 1,1 0,1 1,1 0,3 1,0 0,-1 1,-1 15,0 1,1 2,0 1,1 1,-1 3,0 1,1 0,1 2,0 1,1 0,2 -1,1 2,0 1,1 3,0 1,-1 1,-1 3,0 0,-1 1,-1 1,-1 0,-1 -1,1 -3,0 -1,-1 -1,0 -1,-1 -1,0 -1,-1 0,-1 -1,0 -1,-1 0,-3 -1,-1 0,-1 -2,0 -1,1 0,0 -1,1 -1,1 -3,0 -1,-1 0,-1 -1,-1 -1,0 0,2 -1,1 -3,0 -1,-1 -1,0 -1,-1 -1,-1 0,-5 1,-1 0,-4 -1,-1 -1,0 -1,1 -2,0 -1,-1 -1,-1 0,-6 1,-1 1,0 1,-1 4,0 1,1 2,0 1,-1 0,-1 -1,-1 0,-1 -1,-1 -1,-1 -1,-1 0,-1 -3,0 -1,-1 -1,0 -1,1 0,0 -1,1 -1,0 -1,1 -1,1 -1,0 -1,1 -1,1 -1,0 -1,1 -1,0 -1,1 -1,1Z"/>
<path onmouseover="hoverPath(evt)" onmouseout="recoverPath(evt)" fill="rgb(219,229,151)" d="M  168,181l -1,1 -1,0 -1,1 -3,0 1,1 3,0 1,1 1,0 1,-1 2,0 1,1 0,1 2,0 1,1 1,1 2,0 1,-1 3,0 1,1 0,1 1,0 1,1 1,1 2,0 1,-1 3,0 1,1 0,1 1,0 1,1 1,0 1,-1 4,0 1,1 1,1 3,0 1,1 0,2 1,0 1,-1 3,0 1,1 5,0 1,1 1,1 0,1 1,0 1,1 2,0 1,1 1,1 2,0 1,-1 3,0 1,1 2,0 1,1 0,1 1,0 1,1 1,0 1,-1 0,0 -1,-1 0,-2 1,-1 0,0 -1,-1 0,-2 -1,0 -1,1 -4,0 -1,-1 -2,0 -1,-1 -1,0 -1,1 -4,0 -1,-1 -2,0 -1,-1 0,-2 -1,-1 0,-2 -1,0 -1,1 -2,0 0,1 -1,1 -3,0 -1,-1 0,-2 -2,0 -1,-1 -1,-1 -1,0 0,1 -1,1 -3,0 -1,-1 0,-2 -2,0 -1,-1 -2,0 -1,-1 -2,0 -1,-1 -3,0 -1,-1 -3,0 -1,-1 0,-1 -7,0 -1,-1Z"/>
<path onmouseover="hoverPath(evt)" onmouseout="recoverPath(evt)" fill="rgb(249,248,245)" d="M  19,6l 0,0 -1,1 -1,0 -1,1 -2,0 0,1 -1,1 -1,1 -3,0 -1,-1 0,4 -1,1 -1,0 -1,1 3,-1 2,0 1,1 1,0 1,1 0,1 1,1 0,1 1,1 1,1 1,0 0,-1 1,-1 0,-1 1,-1 0,-1 1,-1 0,-1 1,-1 1,0 0,-2 1,-1 6,0 -1,-1 0,-1 -1,-1 -1,-1 0,-3 1,-1 1,0 1,-1 3,0 1,-1 3,0 1,1 2,0 0,-2 -15,0 0,2 -1,1 -1,0 -3,3Z"/>
<path onmouseover="hoverPath(evt)" onmouseout="recoverPath(evt)" fill="rgb(243,242,232)" d="M  72,14l 0,0 1,-1 1,0 0,-2 1,-1 2,0 1,1 1,-1 1,0 1,-1 1,0 1,-1 1,0 1,-1 0,-2 1,-1 1,0 1,-1 2,0 1,1 1,-1 0,0 1,-1 1,0 0,-2 -37,0 0,1 1,0 1,1 1,0 1,1 1,1 0,1 1,1 2,2 0,2 1,0 1,1 1,1 0,1 1,0 1,1 0,1 1,-1Z"/>
<path onmouseover="hoverPath(evt)" onmouseout="recoverPath(evt)" fill="rgb(251,250,247)" d="M  76,14l 0,0 -1,1 -1,0 -1,1 -1,0 -1,1 3,0 1,-1 1,0 1,-1 -1,-1 4,-2 0,1 1,0 1,-1 1,0 1,-1 1,0 1,-1 2,0 1,1 0,-2 1,-1 1,0 1,-1 2,0 1,1 0,-2 1,-1 1,-1 1,-1 2,0 1,1 1,0 1,-1 5,0 1,1 0,2 1,0 1,-1 4,0 1,1 2,0 1,1 1,1 0,2 1,0 1,1 1,1 2,0 1,1 1,1 0,2 1,0 1,1 1,1 0,2 -1,1 2,0 3,3 0,1 2,2 1,1 1,1 1,1 0,1 2,0 -1,-1 0,0 -1,-1 -1,-1 -1,-1 0,-2 -1,0 -1,-1 -1,-1 -1,-1 0,-1 -1,-1 -1,-1 0,-2 1,-1 -1,0 -1,-1 -1,0 -1,-1 -1,-1 0,-1 -1,-1 -1,-1 0,-4 -1,1 -3,0 -1,-1 -1,0 -1,-1 -1,0 -1,-1 -2,0 -1,-1 -4,0 -1,-1 0,-2 -12,0 0,3 -1,1 -1,0 -1,1 -1,1 -2,0 -1,-1 -1,1 -1,0 0,2 -1,1 -1,1 -1,0 -1,1 -1,0 -1,1 -1,0 -4,2Z"/>
<path onmouseover="hoverPath(evt)" onmouseout="recoverPath(evt)" fill="rgb(252,252,250)" d="M  95,30l 0,0 -1,1 3,0 1,1 2,0 1,1 1,0 1,1 2,0 0,-2 1,-1 2,0 1,1 0,1 1,1 1,1 1,1 0,1 1,1 1,1 0,2 -1,1 2,0 1,1 0,1 2,0 0,-1 1,-1 0,-1 -2,0 -1,-1 -1,-1 -1,-1 0,-1 -1,-1 -1,-1 0,-1 -1,-1 -1,-1 0,-3 1,-1 2,0 1,-1 1,0 2,-2 1,0 1,-1 4,0 1,1 0,-2 -1,-1 0,-1 -1,-1 -3,0 -1,1 -1,0 -1,1 -1,0 -1,1 -2,0 -1,1 -1,0 -1,1 -5,0 0,1 -1,1 -1,0 -1,1 -2,0 -1,1 -2,0 -1,1 -3,2 -1,0 -1,1 -1,0 -1,1 -1,0 0,1 2,-1 2,-1 1,-1 3,-2Z"/>
<path onmouseover="hoverPath(evt)" onmouseout="recoverPath(evt)" fill="rgb(192,215,148)" d="M  107,141l 0,0 -1,1 1,1 0,3 1,1 0,1 1,0 1,1 1,-1 10,0 1,-1 5,0 0,-1 1,-1 3,0 1,-1 3,0 1,1 1,0 1,-1 0,-2 1,-1 -1,-1 0,0 -1,-1 0,-1 -1,-1 0,-2 -1,-1 0,-1 -1,-1 0,-1 -1,-1 0,-1 -1,-1 0,-1 -1,-1 -1,-1 0,-1 -1,-1 0,-1 -1,-1 0,-1 -1,-1 0,-1 -1,-1 -1,-1 0,-1 -1,-1 0,-1 -1,-1 0,-1 -1,-1 0,-1 -1,-1 0,-1 -1,-1 -1,-1 0,-1 -1,-1 0,-1 -2,0 -1,-1 0,-4 -1,-1 -1,-1 0,-1 -1,-1 -1,-1 -1,-1 0,-1 -1,-1 -1,-1 0,-1 -1,0 -1,-1 0,-1 -1,-1 0,-1 -3,0 -1,-1 -1,-1 0,-1 -1,-1 -1,-1 -1,-1 -1,-1 -1,0 -1,-1 -1,0 -1,1 -1,0 -1,1 -1,1 -1,1 -1,0 -1,1 -1,1 -1,1 -1,0 -1,1 -1,1 -1,0 0,1 -1,1 -1,0 -1,1 -1,0 -1,1 -1,1 -1,0 -1,1 -1,1 -1,1 -1,0 0,1 1,0 1,1 1,-1 2,0 1,-1 1,-1 0,-1 1,-1 2,0 1,-1 4,0 1,-1 3,0 1,1 1,0 1,1 1,0 1,1 1,1 1,1 1,1 1,1 1,1 1,1 1,1 1,1 1,0 1,1 1,0 1,-1 5,0 1,1 3,0 -7,42 8,-39 -1,1 0,2 1,1 0,1 1,1 0,1 1,1 0,1 1,1 0,2 1,1 1,1 0,2 1,1 0,3 -1,1 0,2 1,0 1,1 0,2 -1,1 -1,0 0,1 -1,1 -1,1 -3,0 0,2 -1,1 -2,0 -1,1 -2,0 -1,1 0,3 7,-38 -8,39Z"/>
<path onmouseover="hoverPath(evt)" onmouseout="recoverPath(evt)" fill="rgb(242,240,230)" d="M  107,173l -1,0 -1,1 0,1 -1,1 0,18 1,1 0,7 1,0 1,1 0,3 9,0 1,1 1,1 0,5 -1,1 0,7 6,0 1,1 0,2 -1,1 -3,0 -1,1 -1,0 -1,1 -1,0 -1,1 -4,0 1,1 0,4 1,1 2,0 1,-1 3,0 1,-1 3,0 1,-1 3,0 1,-1 3,0 1,-1 3,0 1,-1 3,0 1,-1 3,0 1,-1 3,0 1,-1 1,0 1,-1 1,0 1,-1 0,-1 1,-1 0,-12 -1,0 -1,-1 0,-2 1,-1 0,-14 1,-1 0,-3 -1,-1 -1,0 0,19 -44,-32 0,34 -1,0 1,1 0,6 1,1 3,0 1,1 0,1 1,0 0,-7 -1,0 -1,1 -3,0 -1,-4 0,-34 2,1 0,0 -2,-1 3,1 1,0 1,1 -2,-1 -3,-1 6,2 1,0 1,1 -2,-1 -6,-2 9,3 1,0 1,1 -2,-1 -9,-3 12,4 1,0 1,1 -2,-1 -12,-4 15,5 1,0 1,1 -2,-1 -15,-5 18,6 1,0 1,1 -2,-1 -18,-6 21,7 1,1 -1,-1 -21,-7 23,8 1,0 1,1 -2,-1 -23,-8 26,9 1,0 1,1 0,1 -2,-2 -26,-9 44,38 0,3 -1,1 -2,0 -1,-1 0,-6 -1,0 -1,1 0,0 -1,1 -1,0 -1,1 0,5 3,0 1,1 0,2 -1,1 -1,0 -1,1 -2,0 -1,1 -7,0 -1,-1 0,-2 1,-1 2,0 1,-1 1,0 0,-25 -1,-1 0,-4 15,24 -44,-38Z"/>
<path onmouseover="hoverPath(evt)" onmouseout="recoverPath(evt)" fill="rgb(239,237,224)" d="M  155,109l -1,0 -1,-1 0,-4 1,-1 0,-2 -1,-1 0,-1 -1,-1 -1,0 -1,1 -1,0 -1,1 -1,0 -1,1 -1,1 -1,0 -1,1 -1,0 -1,1 -1,1 -1,0 -1,1 1,1 0,2 1,1 1,1 0,1 1,1 0,2 -1,1 2,0 1,1 0,1 1,1 0,1 1,0 0,-2 1,-1 2,0 0,-3 1,-1 1,-1 2,0 1,1 0,2 3,0 1,-1 1,0 1,-1 0,-1 -1,-1 0,-1 -1,-1 0,-1 -1,0 -1,1Z"/>
<path onmouseover="hoverPath(evt)" onmouseout="recoverPath(evt)" fill="rgb(243,242,234)" d="M  172,222l 0,0 1,1 1,1 1,1 0,2 1,1 0,1 1,1 1,1 0,1 1,1 0,1 1,1 0,1 1,1 1,1 0,1 1,1 0,1 1,1 0,1 1,1 0,1 1,1 0,1 1,1 0,1 1,1 0,1 1,1 0,3 1,0 0,-2 1,-1 1,0 1,-1 1,0 1,-1 1,0 1,-1 1,0 1,-1 2,0 1,-1 3,0 1,-1 2,0 1,-1 2,0 1,-1 2,0 0,-2 1,-1 0,-2 1,-1 2,0 1,1 0,1 1,1 0,1 1,1 0,-1 1,-1 2,0 1,-1 2,0 1,-1 2,0 1,-1 2,0 1,-1 2,0 1,-1 2,0 1,-1 2,0 1,-1 3,0 1,-1 2,0 1,-1 3,0 1,1 1,0 0,-11 -2,0 -1,-1 -2,0 -1,-1 -2,0 -1,-1 -3,0 -1,-1 -3,0 -1,-1 -2,0 -1,-1 -2,0 -1,-1 -3,0 -1,-1 -2,0 -1,-1 -3,0 -1,-1 -3,0 -1,-1 -2,0 -1,-1 -3,0 -1,-1 -3,0 -1,-1 -2,0 -1,-1 -2,0 -1,-1 0,1 -1,1 0,2 -1,1 -2,0 -1,-1 0,-5 -2,0 -1,-1 -2,0 -1,-1 -2,0 -1,-1 -1,0 -1,-1 -2,0 -1,-1 -2,0 -1,-1 -2,0 -1,-1 -3,0 -1,-1 -2,0 0,2 1,1 0,12 -1,1 1,1 0,3 1,0 1,1 0,4 23,-6 1,1 0,2 -1,1 0,1 -2,2 -2,0 -1,-1 0,-2 1,-1 1,-1 0,-1 1,-1 2,0 -23,6 36,-6 1,1 0,1 1,1 0,2 -1,1 -2,0 -1,-1 0,-1 -1,-1 0,-2 1,-1 2,0 -36,6 41,9 -2,0 -1,-1 0,-2 1,-1 2,0 1,1 0,2 -1,1 -41,-9Z"/>
<path onmouseover="hoverPath(evt)" onmouseout="recoverPath(evt)" fill="rgb(245,235,148)" d="M  198,255l 23,0 0,-3 1,-1 0,-1 1,-1 1,0 1,-1 2,0 1,-1 3,0 1,-1 2,0 1,-1 2,0 1,-1 3,0 1,-1 2,0 1,-1 2,0 1,-1 2,0 1,-1 4,0 0,-5 -2,0 -1,-1 -1,0 -1,1 -2,0 -1,1 -3,0 -1,1 -2,0 -1,1 -2,0 -1,1 -2,0 -1,1 -2,0 -1,1 -2,0 -1,1 -2,0 -1,1 -2,0 0,1 -1,1 -2,0 -1,-1 -1,-1 0,-1 -1,0 -1,1 0,2 -1,1 -2,0 -1,1 -2,0 -1,1 -2,0 -1,1 -3,0 -1,1 -2,0 -1,1 -1,0 -1,1 -1,0 -1,1 -1,0 -1,1 -1,0 0,1Z"/>
<path onmouseover="hoverPath(evt)" onmouseout="recoverPath(evt)" fill="rgb(244,243,236)" d="M  223,254l 0,1 32,0 0,-13 -3,0 -1,1 -2,0 -1,1 -2,0 -1,1 -2,0 -1,1 -3,0 -1,1 -2,0 -1,1 -2,0 -1,1 -3,0 -1,1 -2,0 -1,1 -1,0 0,1 -1,1Z"/>
<path onmouseover="hoverPath(evt)" onmouseout="recoverPath(evt)" fill="rgb(240,240,228)" d="M  0,23l 0,7 3,0 2,2 1,1 0,3 1,1 0,1 1,1 1,1 1,1 1,0 1,1 1,0 1,1 1,1 1,1 1,1 1,-1 1,0 1,-1 1,-1 1,0 1,-1 1,-1 1,0 1,-1 1,-1 1,0 -1,-1 0,0 -1,-1 0,-2 1,-1 0,-1 -1,0 -1,-1 -1,-1 -1,-1 -1,-1 -1,-1 -1,-1 0,-1 -1,-1 -1,-1 -3,0 -1,-1 -1,-1 -1,-1 0,-1 -1,-1 0,-1 -1,0 -1,-1 -2,0 -1,1 -2,0 -1,-1 0,-2 1,-1 1,-1 1,0 0,-4 1,-1 2,0 1,1 1,0 1,-1 0,-1 1,-1 2,0 1,-1 1,0 1,-1 1,-1 1,-1 1,-1 1,0 0,-1 -22,0Z"/>
<path onmouseover="hoverPath(evt)" onmouseout="recoverPath(evt)" fill="rgb(244,243,236)" d="M  1,239l -1,0 0,16 5,0 0,-2 1,-1 1,-1 1,-1 1,-1 0,-2 -1,0 -1,-1 -1,-1 -1,-1 0,-1 -1,-1 0,-1 -1,0 -1,-1 -1,-1Z"/>
<path onmouseover="hoverPath(evt)" onmouseout="recoverPath(evt)" fill="rgb(242,240,231)" d="M  24,15l 0,0 -1,1 -1,0 0,1 -1,1 0,1 -1,1 0,1 -1,1 1,1 0,0 1,1 1,1 0,1 1,1 1,1 1,1 1,1 1,1 1,0 1,1 0,2 1,1 1,1 1,1 0,-1 1,-1 1,0 1,-1 1,-1 1,0 1,-1 1,0 0,-1 1,-1 4,0 1,-1 1,-1 1,0 0,-3 1,-1 2,0 1,-1 1,-1 1,0 1,-1 2,0 1,1 1,-1 -1,-1 0,-2 -1,-1 0,-2 -2,0 -1,-1 -1,0 -1,-1 0,-1 -1,-1 0,-2 -1,0 -1,-1 -1,-1 -1,-1 0,-3 -1,-1 0,-2 -4,0 0,3 -1,1 -4,0 -1,-1 -1,0 -1,1 -3,0 -1,1 -1,0 0,1 1,1 0,0 1,1 0,1 1,1 0,2 -1,1 -6,0Z"/>
<path onmouseover="hoverPath(evt)" onmouseout="recoverPath(evt)" fill="rgb(225,235,181)" d="M  102,167l 0,2 4,0 1,1 0,1 2,0 1,1 2,0 1,1 2,0 1,1 2,0 1,1 2,0 1,1 2,0 1,1 2,0 1,1 1,0 1,1 2,0 1,1 3,0 1,1 0,3 1,1 0,-1 1,-1 4,0 1,-1 0,-1 1,-1 -1,-1 0,-5 1,-1 1,-1 -1,-1 0,-1 -1,-1 0,-4 -2,0 0,6 -1,1 -3,0 -1,-1 -2,0 -1,-1 -1,0 -1,-1 0,-1 -1,1 0,0 -1,1 -1,0 -1,1 -6,0 -1,-1 -2,0 -1,-1 0,-3 -1,-1 0,-3 -5,0 -1,1 0,0 -1,1 -1,1 -3,0 -1,-1 -2,0 -1,1 -2,0 -1,-1 -1,0 -1,-1 0,-2 -3,0 -1,-1 -1,0 -1,-1 -1,0 -1,1 -2,0 -1,-1 -1,0 -1,-1 0,-2 -3,0 -1,-1 0,-2 -1,-1 0,-3 1,-1 2,0 1,1 3,0 1,1 4,0 1,1 3,0 1,1 12,0 1,-1 7,0 1,-1 6,0 0,-1 -7,1 -9,0 -1,-1 0,-1 -1,-1 0,-3 -1,-1 0,-2 -1,0 0,3 1,1 0,5 -1,1 -5,0 -1,-1 -5,0 10,17 3,-27 1,-1 0,-3 1,-1 1,-1 -3,0 -1,-1 -1,0 3,2 3,-1 1,0 -5,5 0,1 -3,27 -18,-7 1,1 1,0 1,1 3,0 1,1 2,0 1,1 1,0 1,1 2,0 1,1 2,0 -17,-6 18,7 -19,-7 -1,0 -1,-1 -2,0 -1,-1 -4,0 -1,-1 10,3 19,7 -12,-19 0,-1 -3,0 -1,-1 -2,0 -1,-1 -1,0 -1,-1 -2,0 -1,-1 -2,0 -1,-1 -2,0 -1,-1 -1,0 -1,-1 -2,0 -1,-1 -2,0 -1,-1 -1,0 -1,-1 -2,0 -1,-1 -2,0 2,1 2,1 1,0 1,1 1,0 1,1 0,1 1,1 0,2 -1,1 -1,1 -1,0 0,1 -1,1 -2,0 -1,-1 -1,0 -1,-1 -2,0 -1,-1 -1,0 -1,1 -2,0 -1,-1 -2,0 -1,-1 0,-4 -1,-1 -1,1 0,3 1,1 0,5 3,0 1,1 2,0 1,1 1,0 1,1 6,0 1,1 2,0 1,1 2,0 1,1 1,0 1,1 2,0 19,-8 12,19Z"/>
<path onmouseover="hoverPath(evt)" onmouseout="recoverPath(evt)" fill="rgb(240,238,226)" d="M  114,30l -2,0 0,1 1,1 0,0 1,1 0,1 1,1 1,1 0,1 1,1 1,1 2,0 1,1 1,0 1,-1 1,0 0,-1 1,-1 2,0 1,-1 1,0 1,-1 1,0 1,-1 1,-1 2,0 0,-1 -1,-1 -1,-1 -2,-2 0,-2 1,-1 -1,-1 -1,-1 -4,0 0,3 -1,1 -2,0 -1,-1 -2,0 -1,1 -1,0 -1,1 -1,1 -1,0 -1,1Z"/>
<path onmouseover="hoverPath(evt)" onmouseout="recoverPath(evt)" fill="rgb(244,243,236)" d="M  118,247l -1,0 0,1 1,1 0,1 1,1 0,1 1,1 0,2 53,0 0,-1 -1,-1 0,-1 -1,-1 -1,-1 0,-1 -1,-1 0,-1 -1,-1 0,-1 -1,-1 -1,-1 0,-1 -1,-1 -1,-1 -1,-1 -2,0 -1,-1 -8,0 -1,1 -3,0 -1,1 -3,0 -1,1 -3,0 -1,1 -3,0 -1,1 -2,0 -1,1 -4,0 -1,1 -4,0 -1,1 -3,0 -1,1Z"/>
<path onmouseover="hoverPath(evt)" onmouseout="recoverPath(evt)" fill="rgb(240,238,226)" d="M  123,71l -2,0 -1,-1 0,-2 1,-1 2,0 1,1 0,2 -1,1 -4,0 0,4 1,1 3,0 0,-1 1,-1 0,-1 1,-1 1,-1 0,-1 1,-1 0,-1 -1,0 -7,3 4,0 -5,-1 0,0 5,1 2,-5 0,-1 1,-1 0,-2 -1,-1 0,-1 -1,-1 -1,-1 -1,-1 0,-1 -1,-1 0,-1 -1,0 0,2 -1,1 -1,0 -1,1 -1,1 -1,0 -1,1 -1,1 -1,0 -1,1 -1,0 0,1 1,1 0,2 1,0 1,1 0,1 1,1 1,1 0,1 1,-1 0,0 9,-4 -2,5Z"/>
<path onmouseover="hoverPath(evt)" onmouseout="recoverPath(evt)" fill="rgb(239,237,225)" d="M  140,95l 2,-2 1,0 1,-1 1,0 1,-1 0,-1 -1,-1 0,0 -1,-1 0,-1 -1,0 -1,-1 -1,1 -3,0 -1,1 -3,0 -1,-1 -1,0 -1,1 -1,0 0,1 -1,1 0,1 1,1 0,0 1,1 0,2 1,1 0,1 1,1 1,0 1,-1 1,0 1,-1 1,0 1,-1Z"/>
<path onmouseover="hoverPath(evt)" onmouseout="recoverPath(evt)" fill="rgb(239,237,225)" d="M  160,95l 0,1 1,1 1,1 1,1 1,1 0,1 1,1 0,1 1,1 0,-1 1,-1 2,0 1,1 1,-1 2,0 2,-2 1,0 -1,-1 0,-2 -1,-1 0,-1 -1,-1 0,-1 -1,-1 -1,0 -1,-1 0,-1 -2,0 -1,1 -2,0 -1,1 -1,0 -1,1 -1,0 -1,1Z"/>
<path onmouseover="hoverPath(evt)" onmouseout="recoverPath(evt)" fill="rgb(239,237,223)" d="M  169,110l -2,0 -1,1 1,1 0,1 1,1 0,1 1,1 1,1 0,1 1,1 0,1 1,1 0,1 3,0 1,-1 1,0 2,-2 1,0 1,-1 2,0 1,1 0,-2 1,-1 0,-1 -1,-1 0,-1 -1,-1 0,-1 -1,-1 0,-1 -1,-1 0,-2 1,-1 -4,0 0,4 -1,1 -2,0 -1,-1 -1,-1 -1,0 -1,1 -1,0 -1,1Z"/>
<path onmouseover="hoverPath(evt)" onmouseout="recoverPath(evt)" fill="rgb(241,239,229)" d="M  197,150l -1,0 -1,1 0,2 1,1 0,0 1,1 1,-1 1,0 1,-1 7,0 1,1 0,1 1,0 1,1 0,5 -1,1 -1,0 -1,1 -1,1 -1,1 -1,0 0,3 1,1 0,0 1,1 3,0 1,1 0,1 1,0 1,1 1,-1 1,0 1,-1 1,0 1,-1 1,0 1,-1 1,-1 0,-1 -1,-1 0,-1 -1,-1 -1,-1 0,-1 -1,-1 -1,-1 0,-1 -1,-1 -1,-1 0,-1 -1,0 -1,-1 0,-2 -1,-1 -1,-1 0,-1 -1,-1 -1,-1 0,-1 -1,-1 0,-3 -1,-1 -1,-1 0,-1 -1,-1 -1,-1 0,-1 -1,0 -1,-1 -1,-1 -3,0 -1,-1 -4,0 -1,-1 -5,0 -1,1 -1,0 0,3 -1,1 0,2 1,1 1,0 1,1 0,1 1,0 1,-1 4,0 1,1 2,0 1,1 0,1 3,0 1,1 0,2 -1,1 -1,1Z"/>
<path onmouseover="hoverPath(evt)" onmouseout="recoverPath(evt)" fill="rgb(250,249,245)" d="M  204,175l 0,0 1,1 1,0 1,-1 2,0 1,1 0,3 -1,1 -1,1 0,1 -1,1 -3,0 -1,1 -1,1 -5,0 -1,-1 -2,0 -1,-1 0,-2 1,-1 -2,0 -1,-1 0,-1 -1,0 -1,1 -2,0 -1,-1 -2,0 -1,-1 -13,0 0,1 -1,1 6,0 1,1 7,0 1,1 0,1 3,0 1,1 3,0 1,1 1,0 11,-9 -9,10 1,0 2,1 2,0 1,1 0,2 1,0 0,-1 1,-1 3,0 1,1 1,1 2,0 1,1 0,2 1,0 0,-1 1,-1 2,0 1,-1 0,-1 -2,0 -1,-1 0,-4 1,-1 0,-1 1,-1 0,-1 1,-1 2,0 0,-1 1,-1 1,-1 1,-1 1,0 1,-1 0,-3 -2,0 -1,1 0,0 -1,1 -1,0 0,2 -1,1 -2,0 -1,-1 -1,1 -2,0 -1,-1 -1,0 -1,-1 0,-1 -3,0 -1,-1 -1,-1 -1,-1 0,-5 1,-1 1,0 1,-1 1,-1 1,-1 1,0 0,-3 -1,0 -1,-1 0,-1 -5,0 -1,1 -1,0 -1,1 -2,0 -1,-1 -1,-1 -1,-1 0,-4 1,-1 0,0 1,-1 1,0 1,-1 -3,0 -1,-1 0,-1 -2,0 -1,-1 -2,0 -1,1 -3,0 -1,-1 0,1 1,1 0,3 -1,1 -1,1 -1,0 -1,1 -2,0 -1,-1 0,-1 -2,0 -1,1 -1,0 0,4 1,1 0,0 1,-1 3,0 1,1 1,1 0,-3 1,-1 0,-1 14,33 9,-10 -20,-25 1,0 1,-1 4,0 1,1 -7,0 20,25 -22,-32 -1,-1 -1,-1 0,-3 -1,-1 -2,0 1,1 0,1 1,0 3,4 22,32 -10,-19 0,2 1,1 0,1 1,1 0,2 -1,1 0,1 -1,1 3,0 1,1 0,1 1,1 0,3 1,0 1,1 0,1 1,0 1,1 -9,-19 10,19 -11,-9 -1,0 -1,1 -2,0 -1,-1 -2,0 -1,-1 -1,-1 -1,0 -1,-1 -1,-1 -1,-1 0,2 -1,1 0,3 1,1 1,0 1,1 1,0 0,-2 1,-1 9,0 11,9 -16,-8 1,1 0,1 1,0 1,-1 0,0 1,-1 -4,0 16,8Z"/>
<path onmouseover="hoverPath(evt)" onmouseout="recoverPath(evt)" fill="rgb(242,240,230)" d="M  238,55l 0,0 -1,1 -2,0 -1,-1 -1,-1 -2,0 0,2 -1,1 -3,0 0,1 1,1 0,1 1,1 1,1 0,1 1,1 1,0 1,1 0,2 1,1 1,1 2,0 1,-1 3,0 1,-1 1,0 1,-1 2,0 1,-1 2,0 1,-1 2,0 1,-1 2,0 0,-33 -6,0 -1,-1 -10,0 -1,1 -18,0 -1,1 -4,0 0,4 -1,1 0,2 2,0 1,1 0,2 -1,1 0,1 1,1 1,1 0,1 1,1 1,0 1,1 0,2 1,1 1,1 1,0 1,-1 2,0 1,-1 3,0 0,-6 2,-2 1,-1 2,0 1,1 0,2 -1,1 0,3 1,1 0,2 1,1 1,1 0,2 -12,2 0,0 12,-2 12,-21 1,1 0,2 -1,1 -1,0 -1,1 -2,0 -1,-1 0,-2 1,-1 1,0 1,-1 2,0 -12,21Z"/>
</svg>