<svg width="256" height="256" xmlns="http://www.w3.org/2000/svg"><script> 
var tempColor;
function hoverPath(evt){
obj = evt.target;
tempColor = obj.getAttribute("fill");
obj.setAttribute("fill","red");
//alert(tempColor);
//obj.setAttribute("stroke","red");}
function recoverPath(evt){
obj = evt.target;
obj.setAttribute("fill", tempColor);
//obj.setAttribute("stroke", tempColor);
}</script><path onmouseover="hoverPath(evt)" onmouseout="recoverPath(evt)" fill="rgb(242,241,232)" d="M  2,57l -2,0 0,14 54,0 1,-1 1,0 0,-18 1,-1 0,-3 1,-1 1,-1 49,0 1,1 0,32 1,0 1,1 1,0 1,1 2,0 1,1 1,1 1,1 0,11 1,1 2,0 0,-12 1,-1 0,-1 1,-1 2,0 1,-1 5,0 0,-1 1,-1 0,-21 -1,-1 0,-17 -14,0 -1,1 -9,0 -1,-1 -1,-1 -32,0 -1,1 -3,0 -1,1 -2,0 -1,1 -2,0 -1,1 -1,0 -1,1 -1,0 -1,1 -1,0 -1,1 -1,0 -1,1 -1,0 -1,1 -1,0 -1,1 -1,0 -1,1 -1,0 -1,1 -1,0 -1,1 -2,0 -1,1 -4,0 -1,1 -4,0 -1,1 -9,0 -1,1 -9,0 -1,1 -8,0 -1,1Z"/>
<path onmouseover="hoverPath(evt)" onmouseout="recoverPath(evt)" fill="rgb(248,247,242)" d="M  19,17l -1,0 -1,-1 -17,0 0,1 17,0 2,1 0,-1 1,17 -1,1 -9,0 -1,1 -1,0 0,1 -1,1 0,3 1,1 0,1 10,0 1,-1 1,0 0,-8 -1,-17Z"/>
<path onmouseover="hoverPath(evt)" onmouseout="recoverPath(evt)" fill="rgb(234,235,202)" d="M  26,0l -2,0 0,1 1,1 0,4 18,0 1,1 1,0 1,1 0,14 1,1 14,0 1,1 0,2 1,1 0,3 1,1 5,0 1,-1 5,0 1,-1 2,0 1,-1 1,-1 0,-3 1,-1 2,0 1,-1 4,0 1,1 14,0 1,-1 0,-8 -1,-1 0,-3 1,-1 0,-3 -1,-1 0,-5Z"/>
<path onmouseover="hoverPath(evt)" onmouseout="recoverPath(evt)" fill="rgb(242,240,229)" d="M  91,144l -1,0 0,4 -1,1 0,2 -1,1 -1,0 -1,1 -2,0 0,2 -1,1 -1,1 3,0 1,-1 2,0 1,-1 0,-1 1,-1 3,0 1,1 0,1 1,1 0,2 1,1 0,2 3,0 1,-1 3,0 1,-1 2,0 1,-1 3,0 1,-1 2,0 1,-1 2,0 1,-1 3,0 1,-1 2,0 1,-1 2,0 1,-1 2,0 1,-1 2,0 1,-1 3,0 1,-1 2,0 1,-1 3,0 1,-1 1,0 0,-1 -4,0 -1,1 -4,0 -1,-1 0,-2 1,-1 1,0 0,-2 -4,0 -1,-1 0,-2 1,-1 1,0 1,-1 4,0 1,1 1,1 0,3 2,0 1,1 1,0 1,-1 4,0 1,1 0,3 2,0 1,-1 2,0 1,-1 2,0 1,-1 3,0 1,-1 3,0 1,-1 2,0 1,-1 3,0 1,-1 1,0 0,-34 -2,0 -1,1 -2,0 -1,1 -2,0 -1,1 -3,0 -1,1 -1,0 -1,1 -2,0 -1,1 -2,0 -1,1 -2,0 -1,1 -2,0 -1,1 -3,0 -1,1 -2,0 -1,1 -2,0 -1,1 -2,0 -1,-1 -1,0 -1,-1 -1,-1 0,-1 -2,0 -1,1 -2,0 0,2 1,0 1,1 0,2 -1,1 -1,0 -1,1 -3,0 -1,1 -3,0 -1,1 -2,0 -1,1 -3,0 -1,1 -1,0 -1,1 -2,0 -1,1 -2,0 -1,1 -2,0 -1,1 -2,0 -1,1 -2,0 -1,1 -3,0 -1,1 -3,0 -1,1 -1,0 -1,1 0,1 4,0 1,1 0,2 -1,1 -1,0 0,2 3,0 1,1 0,2 -1,1Z"/>
<path onmouseover="hoverPath(evt)" onmouseout="recoverPath(evt)" fill="rgb(242,241,232)" d="M  124,214l 0,0 -1,1 0,4 -1,1 0,1 -1,1 0,3 -1,1 0,1 -1,1 0,2 1,1 0,1 1,1 2,0 1,1 1,1 1,1 1,1 1,0 1,1 0,2 1,0 1,-1 3,0 1,1 0,2 6,0 1,-1 4,0 1,-1 1,0 1,-1 1,-1 1,-1 1,0 1,-1 1,-1 1,0 1,-1 0,-4 1,-1 0,-10 1,-1 2,0 1,1 0,10 1,0 1,1 1,-1 1,0 1,-1 0,-7 -1,-1 0,-8 -1,-1 0,-4 -1,-1 -3,0 -1,1 -1,0 0,4 -1,1 -2,0 -1,-1 0,-1 -1,-1 0,-1 -5,0 -1,1 -4,0 -1,-1 -2,0 -1,1 -2,0 0,2 -1,1 -4,0 -1,-1 -1,0 -1,1 -2,0 -1,1 -1,0 -1,1Z"/>
<path onmouseover="hoverPath(evt)" onmouseout="recoverPath(evt)" fill="rgb(169,210,233)" d="M  187,1l 13,0 0,-1 -12,0 -1,1 -3,-1 -3,0 0,18 -1,1 0,3 1,1 0,11 -1,1 0,5 1,1 0,5 1,0 1,-1 0,-5 1,-1 0,-10 1,-1 0,-1 1,-1 1,0 1,-1 10,0 1,-1 2,0 0,-1 1,1 0,1 1,0 1,1 0,-2 -13,0 -4,1 -1,0 -1,-1 -1,-1 0,-4 1,-1 1,0 0,-14 -2,-4 3,1Z"/>
<path onmouseover="hoverPath(evt)" onmouseout="recoverPath(evt)" fill="rgb(242,241,232)" d="M  12,242l -1,1 -2,0 0,5 1,1 0,1 2,2 0,3 16,0 0,-3 1,-1 5,0 1,1 3,0 1,-1 4,0 1,-1 1,0 1,-1 1,0 1,-1 1,0 1,-1 2,0 1,1 0,-2 1,-1 1,0 1,-1 2,0 1,-1 9,0 1,1 0,2 10,0 0,-2 1,-1 2,0 1,-1 3,0 1,-1 2,0 1,-1 3,0 1,1 0,-3 -2,0 -1,-1 0,-1 -1,-1 0,-1 -1,-1 0,-2 -1,-1 0,-2 -1,-1 0,-1 -1,-1 0,-1 -1,-1 -6,0 -1,-1 -2,0 -1,1 -2,0 0,2 -1,1 -1,0 -1,1 -3,0 -1,1 -1,0 -1,1 -4,0 -1,-1 -1,0 -1,1 -1,0 -1,1 -1,1 0,3 -1,1 -1,0 -2,2 -1,1 -10,0 -1,1 -7,0 -1,1 -4,0 -1,-1 -1,-1 -1,0 -1,-1 -4,0 -1,1 -1,0 -1,1 -1,0 -1,1 -1,0Z"/>
<path onmouseover="hoverPath(evt)" onmouseout="recoverPath(evt)" fill="rgb(254,254,254)" d="M  110,82l 0,0 -1,-1 -1,0 -1,-1 0,1 1,1 1,0 -2,-3 0,-31 -47,0 -1,1 0,3 -1,1 0,18 -1,1 -1,0 -1,1 -55,0 0,1 19,0 1,1 0,4 1,-2 0,0 1,-1 0,-1 1,-1 9,0 78,8 -51,-11 1,1 -1,1 44,0 1,1 2,0 0,-2 -1,1 -1,0 2,-2 0,-21 -1,-1 -2,0 -42,23 -2,-7 0,-12 1,-4 1,0 50,33Z"/>
<path onmouseover="hoverPath(evt)" onmouseout="recoverPath(evt)" fill="rgb(243,242,234)" d="M  214,202l 0,18 -1,1 0,1 2,0 1,1 1,1 1,1 1,0 1,1 0,1 1,1 1,0 1,-1 1,0 1,-1 1,0 1,-1 1,-1 1,0 1,-1 1,0 1,-1 1,-1 1,0 1,-1 1,-1 1,0 1,-1 1,-1 1,0 1,-1 1,0 1,-1 1,-1 1,0 1,-1 1,-1 1,0 1,-1 1,-1 1,0 1,-1 1,-1 2,0 0,-18 -6,0 -1,-1 -3,0 0,2 -1,1 -6,0 -1,-1 -2,0 0,2 -1,1 -1,0 -1,1 -2,0 -1,1 -3,0 -1,1 -2,0 -1,1 -1,0 -1,1 -2,0 -1,1 -3,0Z"/>
<path onmouseover="hoverPath(evt)" onmouseout="recoverPath(evt)" fill="rgb(243,242,234)" d="M  220,90l -2,0 1,1 0,1 2,0 1,1 0,2 -1,1 1,1 0,1 1,1 2,0 1,1 0,2 -1,1 1,1 0,1 1,1 0,1 1,1 2,0 1,1 0,2 -1,1 1,1 0,0 1,1 0,1 1,1 0,1 1,1 0,1 1,1 3,0 1,-1 3,0 1,-1 2,0 1,-1 3,0 1,-1 2,0 1,-1 2,0 0,-36 -3,0 -1,1 -1,0 -1,1 -2,0 -1,1 -4,0 -1,1 -1,0 -1,1 -2,0 -1,1 -2,0 -1,1 -3,0 -1,1 -3,0 -1,1 -2,0 -1,1 -1,0 -1,1Z"/>
<path onmouseover="hoverPath(evt)" onmouseout="recoverPath(evt)" fill="rgb(241,239,228)" d="M  10,155l -1,0 0,2 -1,1 -2,0 -1,-1 -5,0 0,29 2,0 1,-1 4,0 1,-1 4,0 1,-1 0,-3 1,-1 2,0 1,1 1,1 0,1 3,0 1,-1 4,0 1,-1 3,0 1,-1 3,0 1,-1 4,0 1,-1 3,0 1,-1 5,0 1,-1 1,0 1,-1 3,0 1,-1 -1,-1 -6,0 -1,-1 0,-2 1,-1 5,0 0,-3 -4,0 -1,-1 0,-2 1,-1 2,0 1,-1 1,0 1,-1 3,0 1,-1 3,0 1,-1 2,0 1,-1 3,0 1,-1 2,0 1,-1 2,0 1,-1 3,0 1,-1 2,0 1,-1 2,0 1,-1 1,0 0,-2 1,-1 0,-4 1,-1 -2,0 -1,-1 0,-4 1,-1 -3,0 -1,-1 0,-2 -1,-1 0,1 -1,1 -2,0 -1,1 -4,0 -1,1 -2,0 -1,1 -1,0 -1,1 -4,0 -1,1 -2,0 -1,1 -2,0 -1,1 -3,0 -1,1 -2,0 -1,1 -2,0 -1,1 -2,0 -1,1 -2,0 -1,1 -3,0 -1,1 -2,0 -1,1 -3,0 -1,1 -2,0 -1,1 -3,0 -1,1 -2,0 -1,1 -2,0 -1,1 -3,0 -1,1 -2,0 -1,1Z"/>
<path onmouseover="hoverPath(evt)" onmouseout="recoverPath(evt)" fill="rgb(249,249,243)" d="M  215,91l 0,1 1,1 0,1 1,1 0,1 1,1 1,1 0,1 1,1 0,1 1,1 0,1 1,1 0,4 -1,1 -1,0 -1,1 -2,0 3,1 1,0 1,1 0,2 1,1 0,2 1,0 1,-1 3,0 1,1 1,1 0,1 1,1 0,3 -1,1 -1,0 -1,1 -2,0 -1,1 -2,0 -1,1 -4,0 -1,1 -3,0 -1,-1 0,-3 -2,0 -1,1 -1,0 -1,1 -2,0 -1,1 -2,0 -1,1 -5,0 -1,-1 -1,-1 0,-1 -1,-1 0,-5 1,-1 2,0 1,-1 1,0 1,-1 3,0 1,-1 -1,0 -4,1 -1,0 -1,-1 0,-3 -1,-1 0,-1 -1,-1 -1,-1 2,4 0,2 -1,1 -1,0 -1,1 -7,0 0,7 2,0 1,1 0,11 -1,1 0,2 1,0 1,-1 2,0 1,-1 3,0 1,-1 2,0 1,-1 2,0 1,-1 5,0 1,1 1,1 0,-3 1,-1 2,0 1,-1 2,0 1,-1 3,0 1,1 1,0 0,-2 1,-1 3,0 1,-1 2,0 1,-1 3,0 1,1 1,1 0,2 -1,1 2,0 1,1 1,1 0,2 -1,1 2,0 1,1 1,1 0,1 1,1 0,1 1,1 0,1 1,1 1,1 0,1 1,1 0,2 -1,1 2,0 1,1 0,1 1,1 1,1 0,1 1,1 0,2 -1,1 2,0 1,1 1,1 0,1 1,0 0,-4 -2,0 -1,-1 0,-1 -1,-1 0,-1 -1,-1 0,-2 1,-1 -2,0 -1,-1 0,-1 -1,-1 -1,-1 0,-1 -1,-1 0,-2 1,-1 -2,0 -1,-1 -1,-1 0,-1 -1,-1 0,-1 -1,-1 -1,-1 0,-1 -1,-1 0,-1 -1,-1 0,-1 -1,-1 0,-2 1,-1 1,-1 2,0 1,-1 2,0 1,-1 3,0 1,-1 2,0 1,-1 4,0 0,-2 -1,0 -1,1 -2,0 -1,1 -3,0 -1,1 -2,0 -1,1 -3,0 -1,1 -5,0 -1,-1 -1,-1 0,-1 -1,-1 0,-1 -1,-1 0,-1 -1,-1 -1,-1 0,-2 1,-1 -2,0 -1,-1 -1,-1 0,-1 -1,-1 0,-1 -1,-1 0,-2 1,-1 -2,0 -1,-1 -1,-1 0,-1 -1,-1 0,-2 1,-1 -2,0 -1,-1 0,-1 -1,-1 -1,0 -1,-1 1,-1 0,-1 -1,2 1,1 -5,46 0,1 1,1 2,0 1,-1 -3,0 -1,-1 5,-46Z"/>
<path onmouseover="hoverPath(evt)" onmouseout="recoverPath(evt)" fill="rgb(244,242,233)" d="M  230,42l 0,0 -1,1 -3,0 0,2 -1,1 -2,0 -1,1 1,0 1,1 0,0 1,1 0,1 2,0 1,1 0,2 -1,1 0,1 1,1 0,4 -1,1 2,0 1,1 2,0 1,1 0,1 1,1 1,0 1,-1 3,0 1,1 2,0 1,-1 0,-1 -1,-1 0,0 -1,-1 0,-2 -1,-1 0,-3 1,-1 1,0 1,-1 2,0 1,-1 2,0 1,-1 1,0 1,-1 0,-3 -1,3 -2,1 -3,1 -3,1 -2,0 -1,1 -2,0 -1,-1 0,-2 1,-1 0,-1 -1,-1 0,-4 1,-1 -2,0 -1,-1Z"/>
<path onmouseover="hoverPath(evt)" onmouseout="recoverPath(evt)" fill="rgb(249,249,245)" d="M  1,188l -1,0 0,9 2,0 1,-1 8,0 1,1 0,-2 -1,-1 0,0 -1,-1 0,-5 1,-1 3,0 1,-1 3,0 1,-1 3,0 1,-1 4,0 1,-1 4,0 1,-1 4,0 1,-1 3,0 1,-1 3,0 1,1 1,1 1,1 0,-3 1,-1 1,0 1,-1 2,0 1,-1 3,0 1,-1 2,0 1,-1 2,0 1,-1 3,0 1,-1 2,0 1,-1 3,0 1,-1 5,0 1,1 1,1 1,1 0,5 -1,1 2,0 1,1 0,1 1,1 3,0 1,1 0,1 -2,-3 0,-3 1,-1 2,0 1,-1 2,0 1,-1 29,0 1,1 30,0 1,1 0,1 1,1 0,6 -1,1 0,1 -1,1 3,-7 0,-3 1,-1 1,-1 16,0 1,1 0,2 3,0 0,-5 1,-1 1,0 0,-3 -2,0 0,3 -1,1 -1,0 -1,1 -47,0 -1,-1 -34,0 -1,1 -3,0 -1,1 -4,0 -1,-1 0,-1 -1,-1 -1,-1 0,-3 1,-1 1,0 1,-1 1,0 1,-1 3,0 1,-1 2,0 1,-1 3,0 1,-1 2,0 1,-1 2,0 1,-1 3,0 1,-1 2,0 1,-1 2,0 1,-1 3,0 1,-1 2,0 1,-1 2,0 1,-1 3,0 1,-1 2,0 1,-1 2,0 1,-1 3,0 1,-1 2,0 1,-1 2,0 1,-1 3,0 1,-1 2,0 1,-1 3,0 1,-1 2,0 1,-1 2,0 1,-1 3,0 1,-1 2,0 1,-1 3,0 1,-1 3,0 1,-1 1,-1 0,-1 -1,1 -1,0 -1,1 -3,0 -1,1 -2,0 -1,1 -3,0 -1,1 -3,0 -1,1 -2,0 -1,1 -2,0 -1,1 -4,0 -1,-1 0,-3 -2,0 -1,1 -3,0 -1,-1 -2,0 -1,-1 0,2 -1,1 1,0 1,-1 2,0 -3,-3 0,-2 -1,-1 -2,0 -1,1 3,0 9,6 0,3 -1,1 -1,0 -1,1 -3,0 -1,1 -2,0 -1,1 -3,0 -1,1 -2,0 -1,1 -2,0 -1,1 -2,0 -1,1 -2,0 -1,1 -3,0 -1,1 -2,0 -1,1 -2,0 -1,1 -3,0 -1,1 -2,0 -1,1 -3,0 -1,1 -5,0 -1,-1 0,-2 -1,-1 0,-2 -1,-1 0,-1 -1,0 0,1 -1,1 -1,1 -2,0 -1,1 -6,0 -1,-1 0,-2 1,-1 1,0 1,-1 -1,0 -2,1 -2,0 -1,1 -2,0 -1,1 -2,0 -1,1 -3,0 -1,1 -2,0 -1,1 -3,0 -1,1 -3,0 -1,1 -1,0 -1,1 2,0 1,1 0,5 -1,1 1,0 1,1 1,1 0,2 -1,1 -1,1 -3,0 -1,1 -1,0 -1,1 -5,0 -1,1 -3,0 -1,1 -4,0 -1,1 -3,0 -1,1 -3,0 -1,1 -4,0 -1,1 -5,0 -1,-1 0,-1 -1,-1 0,3 -1,1 -1,1 -4,0 -1,1 -4,0 -1,1Z"/>
<path onmouseover="hoverPath(evt)" onmouseout="recoverPath(evt)" fill="rgb(241,240,230)" d="M  86,171l -1,0 0,1 1,1 0,0 1,1 0,1 2,0 1,-1 3,0 1,-1 36,0 1,1 45,0 0,-30 -2,0 -1,1 -3,0 -1,1 -2,0 -1,1 -3,0 -1,1 -2,0 -1,1 -2,0 -1,1 -3,0 -1,1 -2,0 -1,1 -3,0 -1,1 -2,0 -1,1 -2,0 -1,1 -3,0 -1,1 -2,0 -1,1 -2,0 -1,1 -3,0 -1,1 -2,0 -1,1 -2,0 -1,1 -3,0 -1,1 -2,0 -1,1 -2,0 -1,1 -3,0 -1,1 -2,0 -1,1 -2,0 -1,1 -3,0 -1,1 -2,0 -1,1 -3,0 -1,1 -1,0 -1,1Z"/>
<path onmouseover="hoverPath(evt)" onmouseout="recoverPath(evt)" fill="rgb(252,250,238)" d="M  146,36l 20,0 1,-1 3,0 1,-1 1,-1 1,-1 3,0 1,1 0,2 1,0 0,-1 1,-1 0,-9 -1,6 0,0 -1,1 -1,0 -4,1 -12,0 -1,1 -13,0 -1,1 0,1 1,1Z"/>
<path onmouseover="hoverPath(evt)" onmouseout="recoverPath(evt)" fill="rgb(242,240,227)" d="M  146,3l -1,0 0,26 1,1 0,1 12,0 1,-1 15,0 1,-1 1,0 1,-1 0,-5 1,-1 0,-4 1,-1 0,-17 -32,0 0,2 -1,1Z"/>
<path onmouseover="hoverPath(evt)" onmouseout="recoverPath(evt)" fill="rgb(243,242,234)" d="M  190,204l 0,23 1,1 0,15 1,1 0,4 1,-1 0,0 1,-1 1,0 2,-2 1,0 1,-1 1,-1 1,0 2,-2 1,0 1,-1 1,-1 1,0 2,-2 1,0 1,-1 1,0 1,-1 1,-1 1,0 0,-1 1,-1 1,0 -2,-1 0,-2 -1,-1 -1,-1 -1,-1 0,-1 -1,-1 0,-2 -1,-1 0,-17 -1,-1 -1,-1 -15,0 -1,1 -2,0Z"/>
<path onmouseover="hoverPath(evt)" onmouseout="recoverPath(evt)" fill="rgb(241,239,229)" d="M  239,42l 0,2 -1,1 0,2 1,1 0,2 1,1 3,0 1,-1 2,0 1,-1 1,0 1,-1 0,-2 1,-1 2,0 1,1 0,5 -1,1 -1,1 -1,0 -1,1 -2,0 -1,1 -2,0 -1,1 -1,0 0,1 1,1 0,2 1,1 5,0 1,1 3,0 1,1 1,0 0,-40 -1,0 -1,1 -3,0 -1,1 -22,0 -1,-1 -20,0 0,2 1,1 0,2 -1,1 -2,0 -1,-1 0,-1 -1,-1 -1,0 -1,-1 -1,1 -10,0 -1,1 -1,0 1,1 0,7 1,0 1,-1 3,0 1,-1 2,0 1,-1 7,0 1,1 0,2 -1,1 -4,0 0,4 -1,1 0,4 1,1 2,0 1,-1 4,0 1,1 1,1 0,1 1,0 1,-1 1,0 1,-1 2,0 1,-1 2,0 1,-1 2,0 1,-1 2,0 0,-2 1,-1 3,0 0,-1 1,-1 2,0 1,1 3,0 1,1 2,0 1,1Z"/>
<path onmouseover="hoverPath(evt)" onmouseout="recoverPath(evt)" fill="rgb(240,238,223)" d="M  0,21l 0,29 7,0 1,-1 7,0 1,-1 8,0 1,-1 5,0 1,-1 4,0 1,-1 3,0 1,-1 1,0 1,-1 1,0 1,-1 2,0 1,-1 2,0 1,-1 1,0 1,-1 1,-1 1,0 1,-1 1,0 1,-1 2,0 1,-1 1,0 -1,-1 0,0 -1,-1 0,-5 -1,-1 -10,0 -1,1 0,11 -1,1 -1,1 1,0 -46,-20 43,21 -9,0 -1,1 -7,0 -1,-1 -1,-1 -1,-1 -1,0 0,3 -1,1 -1,0 -1,1 -12,0 -1,-1 0,-1 -1,-1 0,-5 1,-1 0,-1 1,-1 1,0 1,-1 9,0 0,-13 -1,-1 -11,0 -1,-1 -2,0 -1,1 -2,0 0,1 43,22 -43,-21Z"/>
<path onmouseover="hoverPath(evt)" onmouseout="recoverPath(evt)" fill="rgb(186,206,229)" d="M  0,53l 0,2 1,0 1,-1 8,0 1,-1 9,0 1,-1 9,0 1,-1 4,0 1,-1 4,0 1,-1 2,0 1,-1 1,0 1,-1 1,0 1,-1 1,0 1,-1 1,0 1,-1 1,0 1,-1 1,0 1,-1 1,0 1,-1 1,0 1,-1 1,0 1,-1 2,0 1,-1 2,0 1,-1 3,0 1,-1 32,0 0,-8 -1,0 -1,-1 -5,0 -1,1 -2,0 -1,-1 -7,0 -1,1 -1,0 0,2 -2,2 0,1 -1,1 -3,0 -1,1 -6,0 -1,1 -7,0 -1,1 -1,0 -1,1 -2,0 -1,1 -1,0 -1,1 -1,0 -1,1 -1,1 -1,0 -1,1 -2,0 -1,1 -2,0 -1,1 -1,0 -1,1 -1,0 -1,1 -3,0 -1,1 -4,0 -1,1 -5,0 -1,1 -8,0 -1,1 -7,0 -1,1 -7,0 -1,1Z"/>
<path onmouseover="hoverPath(evt)" onmouseout="recoverPath(evt)" fill="rgb(231,203,127)" d="M  46,125l -1,0 -1,1 -2,0 -1,1 -2,0 -1,1 -3,0 -1,1 -2,0 -1,1 -3,0 -1,1 -2,0 -1,1 -3,0 -1,1 -3,0 -1,1 -2,0 -1,1 -3,0 -1,1 -5,0 -1,-1 0,-1 -1,-1 0,-3 1,-1 -3,0 0,7 2,0 1,1 0,2 1,1 1,0 1,-1 2,0 1,-1 2,0 1,-1 3,0 1,-1 2,0 1,-1 3,0 1,-1 2,0 1,-1 3,0 1,-1 2,0 1,-1 3,0 1,-1 2,0 1,-1 3,0 1,-1 2,0 1,-1 2,0 1,-1 2,0 1,-1 2,0 1,-1 2,0 0,-1 1,-1 0,-1 -1,0 -1,1 -2,0 -1,1 -3,0 -1,1 -2,0 -1,1Z"/>
<path onmouseover="hoverPath(evt)" onmouseout="recoverPath(evt)" fill="rgb(253,253,252)" d="M  61,31l 0,1 1,1 1,1 6,0 1,-1 6,0 1,-1 3,0 0,-1 1,-1 1,-1 0,-2 1,-1 1,0 1,-1 9,0 1,1 0,0 1,-1 7,0 1,1 1,0 1,1 0,9 1,1 1,1 7,0 1,-1 16,0 1,1 0,17 1,1 0,23 -1,1 0,1 1,-1 0,-42 1,-1 1,0 -2,-1 0,-2 1,-1 -15,0 13,1 0,3 1,0 2,-4 7,0 1,-1 0,-1 -1,-1 0,-28 1,-1 1,0 0,-1 -21,0 0,1 17,0 1,1 0,6 -81,23 81,1 -27,4 0,-3 -7,0 -1,-1 0,-8 -1,-1 0,-6 1,-1 1,-1 1,-1 30,0 1,1 1,0 0,-1 -33,0 -1,-1 0,-1 -1,-1 0,-11 -1,0 0,12 1,1 0,-1 -1,12 0,0 -1,1 2,-1 0,0 36,8 -81,-1 34,-6 0,0 -8,-1 -2,0 -1,1 -2,0 0,1 -1,3 -1,1 -1,1 -2,0 -1,1 -5,0 -2,1 -6,0 -1,-1 33,-7 -34,6Z"/>
<path onmouseover="hoverPath(evt)" onmouseout="recoverPath(evt)" fill="rgb(242,240,231)" d="M  61,53l 0,13 -1,1 0,2 1,1 1,0 1,1 41,0 0,-20 -2,0 -1,-1 -38,0 -1,1 -1,0Z"/>
<path onmouseover="hoverPath(evt)" onmouseout="recoverPath(evt)" fill="rgb(234,233,200)" d="M  109,29l 0,2 7,0 1,1 0,3 14,0 -13,-1 0,-2 1,-1 21,0 1,-1 0,-12 -1,-1 -1,0 -1,-1 -28,0 -1,1 0,0 -1,1 0,4 1,1Z"/>
<path onmouseover="hoverPath(evt)" onmouseout="recoverPath(evt)" fill="rgb(234,233,202)" d="M  140,5l 0,-2 -17,0 -1,-1 0,-2 -14,0 0,10 1,1 0,1 31,0 0,-1 1,-1 -1,-1Z"/>
<path onmouseover="hoverPath(evt)" onmouseout="recoverPath(evt)" fill="rgb(242,240,230)" d="M  160,181l 0,2 -1,1 0,3 -1,1 0,1 -1,1 -1,1 0,2 -1,1 -1,1 -1,0 -1,1 -1,0 2,1 1,0 1,1 0,2 1,1 0,1 8,0 1,1 0,2 1,1 0,4 1,1 0,8 2,0 1,1 0,8 1,1 5,0 0,-42 -1,-1 0,-7 -14,0 -1,1Z"/>
<path onmouseover="hoverPath(evt)" onmouseout="recoverPath(evt)" fill="rgb(89,173,244)" d="M  182,205l 0,11 1,-1 0,0 1,-1 0,-38 -2,0Z"/>
<path onmouseover="hoverPath(evt)" onmouseout="recoverPath(evt)" fill="rgb(243,242,234)" d="M  188,5l 0,13 1,-1 8,0 1,-1 11,0 0,-7 1,-1 0,-1 1,-1 2,-2 1,-1 1,0 1,-1 1,-1 6,0 1,1 2,0 1,1 1,0 1,1 1,1 0,1 1,1 1,-1 2,0 1,1 0,1 2,0 1,1 0,5 1,1 0,3 3,0 1,-1 3,0 1,-1 2,0 1,-1 1,0 1,-1 3,0 0,-14 -53,0 0,2 -1,1 -13,0Z"/>
<path onmouseover="hoverPath(evt)" onmouseout="recoverPath(evt)" fill="rgb(176,200,236)" d="M  187,20l -1,0 0,2 1,1 2,0 1,-1 9,0 1,-1 2,0 1,1 24,0 1,1 20,0 1,-1 3,0 1,-1 2,0 0,-5 -2,0 -1,1 -1,0 -1,1 -2,0 -1,1 -3,0 -1,1 -5,0 -1,-1 0,-3 -1,-1 0,-5 -2,0 -1,-1 0,-1 -1,1 -2,0 -1,-1 -1,-1 0,-1 -1,-1 -1,0 -1,-1 -2,0 -1,-1 -4,0 -1,1 -1,1 -1,0 -1,1 -1,1 -1,1 0,1 -1,1 0,7 -1,1 -11,0 -1,1 -8,0 -1,1Z"/>
<path onmouseover="hoverPath(evt)" onmouseout="recoverPath(evt)" fill="rgb(243,242,234)" d="M  0,78l 0,49 4,0 1,1 0,2 -1,1 0,1 1,1 0,1 3,0 1,-1 3,0 1,-1 2,0 1,-1 3,0 1,-1 3,0 1,-1 2,0 1,-1 3,0 1,-1 2,0 1,-1 3,0 1,-1 2,0 1,-1 2,0 1,-1 2,0 1,-1 2,0 1,-1 3,0 1,-1 2,0 1,-1 2,0 1,-1 2,0 1,-1 2,0 1,-1 2,0 1,-1 2,0 1,-1 3,0 1,-1 2,0 1,-1 2,0 1,-1 2,0 1,-1 3,0 1,-1 1,0 1,-1 3,0 1,-1 2,0 1,-1 2,0 1,-1 3,0 1,-1 2,0 1,-1 3,0 1,-1 2,0 1,-1 -3,0 -1,-1 0,-2 1,-1 2,0 0,-10 -1,-1 0,-1 -1,0 -1,-1 -4,0 -1,-1 -1,-1 0,-6 -2,0 -1,-1 -68,0 -1,1 -9,0 0,1 -1,1 -1,1 0,1 -1,1 -2,0 -1,-1 0,-4 -18,0Z"/>
<path onmouseover="hoverPath(evt)" onmouseout="recoverPath(evt)" fill="rgb(234,232,206)" d="M  22,12l -7,0 -1,1 -2,0 -1,-1 -1,0 -1,-1 0,-2 -1,-1 0,-3 1,-1 3,0 1,1 0,1 1,1 0,1 5,0 -1,-1 0,-7 -18,0 0,14 18,0 1,1 2,0 1,1 0,22 1,0 1,-1 2,0 1,1 13,0 1,-1 1,0 0,-1 1,-1 0,-6 -1,-1 -9,0 -1,1 -4,0 -1,1 -1,0 -1,1 -2,0 -1,-19 1,14 1,0 1,-1 4,0 1,-1 11,0 1,-1 0,-10 -4,0 -1,-1 -14,0 0,14 -1,-14Z"/>
<path onmouseover="hoverPath(evt)" onmouseout="recoverPath(evt)" fill="rgb(243,241,233)" d="M  51,255l 119,0 0,-2 1,-1 -1,-1 0,0 -1,-1 -1,-1 0,-6 1,-1 1,-1 5,0 1,1 1,1 0,-7 -1,-1 0,-2 -9,0 -1,1 -6,0 -1,1 -1,0 -1,1 -1,1 -1,0 -1,1 -1,1 -1,0 -1,1 -1,1 -1,1 -1,0 -1,1 -4,0 -1,1 -8,0 -1,-1 0,-2 -1,0 -1,1 -3,0 -1,-1 0,-2 -1,0 -1,-1 -1,-1 -1,-1 -1,-1 -2,0 -1,-1 -1,-1 0,-1 -1,-1 0,-3 -1,-1 0,-4 1,-1 0,-3 -1,0 -1,-1 -1,1 -4,0 -1,-1 -1,0 -1,1 -3,0 0,2 -1,1 -1,0 -1,1 -4,0 -1,-1 -1,-1 0,-1 -1,-1 0,-5 -17,0 -1,-1 0,-1 7,3 0,3 3,0 1,1 1,1 1,1 0,1 1,1 0,1 1,1 0,2 -1,1 0,1 1,1 0,2 1,1 0,1 1,1 0,1 2,0 1,1 0,5 -1,1 -2,0 -1,-1 -1,0 -1,1 -2,0 -1,1 -3,0 -1,1 -2,0 0,2 -1,1 -12,0 -1,-1 0,-2 -7,0 -1,1 -2,0 -1,1 -1,0 0,2 -1,1 -1,0 -1,1 -1,0 -1,1 -2,0 -1,-1 -1,1 -1,0 -1,1 -4,0 -1,1 -5,0 -1,-1 -3,0 0,2Z"/>
<path onmouseover="hoverPath(evt)" onmouseout="recoverPath(evt)" fill="rgb(233,203,111)" d="M  61,134l -1,1 -2,0 -1,1 -2,0 -1,1 -3,0 0,3 1,0 1,-1 3,0 1,-1 2,0 1,-1 2,0 1,-1 4,0 1,-1 1,0 1,-1 2,0 1,-1 4,0 1,-1 2,0 0,-1 1,-1 2,0 1,1 1,-1 1,0 1,-1 3,0 0,-2 -2,0 -1,-1 -1,0 -1,1 -2,0 -1,1 -3,0 -1,1 -2,0 -1,1 -2,0 -1,1 -2,0 -1,1 -2,0 0,2 -1,1 -3,0 -1,-1Z"/>
<path onmouseover="hoverPath(evt)" onmouseout="recoverPath(evt)" fill="rgb(233,204,110)" d="M  93,126l -1,0 0,2 2,0 1,-1 2,0 1,-1 2,0 1,-1 2,0 1,-1 2,0 1,-1 2,0 1,-1 1,0 1,-1 3,0 1,-1 2,0 1,-1 3,0 -2,-1 0,0 -1,-1 0,-1 -1,0 -1,1 -3,0 -1,1 -2,0 -1,1 -2,0 -1,1 -3,0 -1,1 -2,0 -1,1 -2,0 -1,1 -2,0 0,2 -1,1Z"/>
<path onmouseover="hoverPath(evt)" onmouseout="recoverPath(evt)" fill="rgb(241,239,232)" d="M  132,193l 0,-1 1,-1 0,-5 -1,-1 -4,0 -1,-1 0,-1 -1,0 0,2 -1,1 -3,0 -1,-1 0,-2 -1,2 -3,0 -1,1 -1,0 -1,1 -1,1 -4,0 -1,-1 -2,0 -1,1 -3,0 -1,-1 -1,-1 -2,0 -1,1 -3,0 0,3 -1,1 -2,0 -1,1 -1,1 -1,0 -1,1 -5,0 0,5 -1,1 -3,0 -1,1 -1,0 0,1 1,1 0,4 1,1 0,4 17,0 1,1 0,5 1,1 0,1 1,1 2,0 1,-1 1,0 0,-2 1,-1 3,0 1,-1 3,0 1,1 2,0 1,-1 2,0 1,1 1,0 1,1 0,5 -1,1 0,2 1,-2 0,0 1,-4 0,-1 1,-1 0,-4 1,-1 1,-1 1,-1 1,0 1,-1 2,0 1,-1 3,0 1,1 2,0 0,-2 1,-1 2,0 1,-1 4,0 1,1 2,0 1,-1 7,0 1,1 0,1 1,1 0,-3 1,-1 1,0 1,-1 -4,0 -1,-1 0,-1 -1,-1 0,-2 -1,0 -1,-1 -1,0 -1,-1 0,-2 -2,0 -1,1 -1,0 -1,1 -2,0 -1,1 -7,0 -1,-1 -1,-1 0,-3 17,1 2,0 1,-1 1,0 1,-1 0,-1 -5,3 -17,-1Z"/>
<path onmouseover="hoverPath(evt)" onmouseout="recoverPath(evt)" fill="rgb(246,199,108)" d="M  187,86l -1,0 1,1 0,6 1,0 1,-1 3,0 1,-1 2,0 1,-1 2,0 1,-1 2,0 1,-1 3,0 1,1 1,0 1,-1 5,0 0,-1 1,-1 2,0 1,1 0,1 2,0 1,-1 1,0 1,-1 2,0 1,-1 3,0 1,-1 3,0 1,-1 2,0 1,-1 2,0 1,-1 1,0 1,-1 4,0 1,-1 2,0 1,-1 1,0 1,-1 4,0 0,-12 -2,0 -1,-1 -3,0 -1,-1 -3,0 0,2 -1,1 -1,1 -4,0 -1,-1 -1,0 -1,1 -3,0 -1,-1 0,4 -1,1 -2,0 -1,1 -4,0 -1,-1 -2,0 -1,1 -2,0 -1,1 -3,0 -1,1 -2,0 -1,1 -1,0 0,4 -1,1 -3,0 -1,-1 -1,0 0,2 -1,1 -3,0 -1,1 -3,0 -1,-1 0,1 -1,1 -1,1 -2,0 -1,1Z"/>
<path onmouseover="hoverPath(evt)" onmouseout="recoverPath(evt)" fill="rgb(242,240,230)" d="M  189,54l 0,25 1,-1 2,0 1,-1 2,0 1,-1 2,0 1,-1 4,0 1,-1 3,0 1,-1 1,0 1,-1 2,0 1,-1 3,0 1,-1 2,0 1,-1 4,0 1,1 2,0 1,-1 2,0 0,-4 1,-1 -2,0 -1,-1 -2,0 -1,-1 0,-2 1,-1 0,-2 -1,-1 0,-2 -1,-1 0,-1 -1,-1 0,-1 -1,-1 -3,0 -1,-1 -1,0 -1,1 -2,0 -1,1 -1,0 -1,1 -3,0 -1,-1 0,-1 -1,-1 -2,0 -1,1 -4,0 -1,-1 -1,-1 0,-5 -1,-1 0,-2 -4,0 -1,1 -3,0 0,5 1,1 0,2 3,0 1,1 0,2 -1,1 -3,0Z"/>
<path onmouseover="hoverPath(evt)" onmouseout="recoverPath(evt)" fill="rgb(242,241,231)" d="M  189,174l 0,11 1,1 0,11 23,0 1,1 2,0 1,-1 2,0 1,-1 1,0 1,-1 2,0 1,-1 3,0 1,-1 2,0 1,-1 1,0 0,-2 1,-1 4,0 1,1 4,0 0,-2 1,-1 5,0 1,1 5,0 0,-25 -2,0 -1,-1 0,-1 -1,-1 -2,0 -1,-1 0,-2 1,-1 -1,-1 0,-1 -1,-1 -1,-1 0,-1 -2,0 -1,-1 0,-2 1,-1 -1,-1 0,-1 -1,-1 -1,-1 0,-1 -1,-1 0,-1 -1,-1 0,-1 -1,-1 -2,0 -1,-1 0,-2 1,-1 -1,-1 -2,0 -1,-1 0,-2 1,-1 -1,-1 -1,0 -1,1 -2,0 -1,1 -3,0 0,2 -1,1 -3,0 -1,-1 -1,0 -1,1 -2,0 -1,1 -2,0 0,3 4,0 1,1 0,2 -1,1 -1,0 -1,1 -3,0 -1,1 -2,0 -1,-1 0,-2 1,-1 0,-2 -1,-1 -3,0 -1,1 -2,0 -1,1 -2,0 -1,1 -3,0 -1,1 -2,0 -1,1 -1,0 0,22 1,1 0,0 1,1 0,3 -1,1 -1,0 0,6 40,14 -1,1 -2,0 -1,-1 0,-2 1,-1 2,0 1,1 0,2 -40,-14 27,18 -2,0 -1,-1 0,-2 1,-1 2,0 1,1 0,2 -1,1 -27,-18 37,-11 0,2 -1,1 -2,0 -1,-1 0,-2 1,-1 2,0 1,1 -37,11Z"/>
<path onmouseover="hoverPath(evt)" onmouseout="recoverPath(evt)" fill="rgb(240,237,224)" d="M  200,126l 1,0 1,-1 2,0 1,-1 2,0 1,-1 1,0 1,-1 4,0 1,1 0,3 1,0 1,-1 4,0 1,-1 2,0 1,-1 2,0 1,-1 1,0 0,-1 -1,-1 0,-1 -1,-1 -1,0 -1,1 -3,0 -1,-1 0,-2 -1,-1 0,-2 -1,0 -1,-1 -2,0 -1,-1 0,-2 1,-1 2,0 1,-1 1,0 0,-2 -1,-1 0,-1 -1,-1 0,-1 -1,-1 0,-1 -1,-1 -1,-1 0,-1 -1,-1 0,-1 -1,-1 0,-1 -1,-1 0,-1 -3,0 -1,1 -2,0 0,2 -1,1 0,2 -1,1 -2,0 -1,-1 -1,1 -5,0 -1,1 -1,0 -1,1 -2,0 -1,1 0,14 3,0 1,-1 1,0 0,-2 -1,-1 0,0 -1,-1 0,-2 1,-1 2,0 1,1 1,1 1,1 0,1 1,1 0,3 2,0 1,-1 3,0 1,1 0,2 -1,1 -1,1 -3,0 -1,1 -1,0 -1,1 -2,0 0,3 1,1 0,1 1,1Z"/>
<path onmouseover="hoverPath(evt)" onmouseout="recoverPath(evt)" fill="rgb(243,241,233)" d="M  201,254l -2,0 -1,-1 0,2 3,0 0,-1 3,1 51,0 0,-35 -2,0 -1,1 0,0 -1,1 -1,0 -1,1 -1,1 -1,0 -1,1 -1,1 -1,0 -1,1 -1,0 -1,1 -1,1 -1,0 -1,1 -1,1 -1,0 -1,1 -1,0 -1,1 0,1 -1,1 1,1 0,0 1,1 0,2 -1,1 -2,0 -1,-1 -1,-1 -1,-1 -1,-1 0,1 -1,1 -1,0 -1,1 -1,1 -1,0 -1,1 -1,0 -1,1 -1,1 -1,0 -1,1 -1,1 -1,0 -1,1 -1,0 -1,1 -1,1 -1,0 -1,1 -1,1 -1,0 -1,1 -1,1 0,3 -3,-1Z"/>
<path onmouseover="hoverPath(evt)" onmouseout="recoverPath(evt)" fill="rgb(243,203,117)" d="M  0,143l 0,12 6,0 1,1 0,-2 1,-1 1,0 1,-1 2,0 1,-1 3,0 1,-1 2,0 1,-1 2,0 1,-1 3,0 1,-1 2,0 1,-1 3,0 1,-1 2,0 1,-1 3,0 1,-1 2,0 1,-1 2,0 1,-1 2,0 0,-5 1,-1 3,0 1,-1 2,0 1,-1 2,0 1,-1 3,0 1,1 1,0 0,-2 1,-1 2,0 1,-1 2,0 1,-1 2,0 1,-1 2,0 1,-1 3,0 1,-1 2,0 1,-1 3,0 1,1 1,0 1,-1 2,0 0,-2 1,-1 2,0 1,-1 2,0 1,-1 2,0 1,-1 3,0 1,-1 2,0 1,-1 2,0 1,-1 3,0 1,-1 3,0 1,1 0,1 1,1 1,0 1,1 2,0 1,-1 1,0 -2,-1 0,-4 1,-1 2,0 1,-1 4,0 1,1 0,1 1,1 1,0 1,1 1,-1 2,0 1,-1 2,0 1,-1 3,0 1,-1 2,0 1,-1 2,0 1,-1 2,0 1,-1 2,0 1,-1 1,0 1,-1 3,0 1,-1 2,0 1,-1 2,0 1,-1 3,0 1,-1 2,0 1,-1 0,-1 1,-1 0,-2 1,-1 1,0 1,-1 1,0 0,-6 -1,-1 0,-1 -1,0 -1,-1 0,-10 -1,11 -1,0 0,2 -1,1 -2,0 -1,1 -3,0 -1,-1 -1,0 -1,1 -2,0 -1,1 0,1 -1,1 -3,0 -1,-1 0,-1 -1,0 -1,-1 -2,0 -1,1 -2,0 -1,1 -2,0 -1,1 -3,0 -1,1 -2,0 -1,1 -2,0 -1,1 -3,0 -1,1 -2,0 -1,1 -3,0 -1,1 -2,0 -1,1 -3,0 -1,-1 0,-11 1,-1 0,-3 1,-1 2,0 1,-1 3,0 -8,3 0,2 -1,11 -4,0 -1,-1 -1,-1 0,-11 -1,-1 -1,-1 -1,0 2,2 1,12 0,1 -1,1 3,0 1,1 0,2 -1,1 -2,0 -1,1 -2,0 -1,1 -3,0 -1,1 -2,0 -1,1 -3,0 -1,1 -2,0 -1,1 -2,0 -1,1 -3,0 -1,1 -1,0 -1,1 -3,0 -1,1 -2,0 -1,1 -2,0 -1,1 -2,0 -1,1 -3,0 -1,1 -2,0 -1,1 -2,0 -1,1 -2,0 -1,1 -2,0 0,3 -1,1 0,1 -1,1 -2,0 -1,1 -2,0 -1,1 -2,0 -1,1 -2,0 -1,1 -2,0 -1,1 -3,0 -1,1 -2,0 -1,1 -3,0 -1,1 -2,0 -1,1 -3,0 -1,1 -2,0 -1,1 -3,0 -1,1 -2,0 -1,1 -3,0 -1,1 -2,0 -1,1 -2,0 -1,1 -3,0 -1,-1 -1,-1 0,-2 -1,0Z"/>
<path onmouseover="hoverPath(evt)" onmouseout="recoverPath(evt)" fill="rgb(246,245,237)" d="M  7,244l 0,-2 1,-1 2,0 0,-2 1,-1 1,0 1,-1 1,0 1,-1 -2,0 -1,-1 0,-1 -1,-1 0,4 -1,1 -1,1 -3,0 -1,1 -1,1 -4,0 0,14 10,0 0,-2 -1,-1 0,0 -1,-1 0,-1 -1,-1Z"/>
<path onmouseover="hoverPath(evt)" onmouseout="recoverPath(evt)" fill="rgb(242,241,232)" d="M  13,189l -1,0 0,3 1,1 0,0 1,1 0,4 -1,1 -2,0 -1,-1 -6,0 -1,1 -3,0 0,40 3,0 1,-1 1,-1 3,0 1,-1 0,-5 1,-1 2,0 1,1 0,1 1,1 0,1 3,0 1,1 5,0 1,1 1,0 1,1 1,1 2,0 1,-1 7,0 1,-1 10,0 1,-1 1,-1 1,-1 1,0 0,-3 1,-1 1,-1 1,-1 1,0 1,-1 3,0 1,1 2,0 1,-1 1,0 1,-1 3,0 1,-1 1,0 0,-2 1,-1 2,0 1,-1 4,0 1,1 6,0 1,1 -2,-2 -3,0 -1,-1 0,-3 -5,0 -1,-1 -1,-1 0,-3 1,-1 1,0 0,-1 -1,-1 0,-4 -1,-1 0,-2 -1,-1 0,-3 -1,-1 -1,1 -2,0 -1,-1 -1,-1 -1,-1 0,-4 1,-1 0,-1 1,-1 2,-2 3,0 1,-1 6,0 1,1 1,0 1,-1 1,0 -1,-1 0,-1 -3,0 -1,-1 0,-2 1,-1 1,0 0,-3 -1,-1 0,0 -1,-1 -3,0 -1,1 -3,0 -1,1 -2,0 -1,1 -3,0 -1,1 -2,0 -1,1 -2,0 -1,1 -3,0 -1,1 -2,0 -1,1 -1,0 0,4 -1,1 -2,0 -1,-1 0,-1 -1,-1 -1,-1 -1,0 -1,1 -3,0 -1,1 -4,0 -1,1 -4,0 -1,1 -4,0 -1,1 -3,0 -1,1 -3,0 -1,1 -2,0 35,-2 0,2 1,1 0,1 1,1 0,0 -2,-5 -35,2 38,3 1,0 1,-1 0,0 -2,1 -38,-3 40,1 0,-1 -1,-1 0,-1 -1,-1 0,0 2,4 -40,-1 37,-3 -37,3 4,18 1,0 1,1 0,2 -1,1 -2,0 -1,-1 0,-2 1,-1 1,0 -4,-18 47,17 1,1 0,2 -1,1 -2,0 -1,-1 0,-2 1,-1 2,0 -47,-17Z"/>
<path onmouseover="hoverPath(evt)" onmouseout="recoverPath(evt)" fill="rgb(254,254,254)" d="M  44,39l 0,0 1,-1 0,-11 1,-1 1,-1 -1,0 -1,-1 -1,-1 0,-14 -1,0 -1,-1 -18,0 -1,-1 0,-4 -1,-1 0,-2 -2,0 0,6 1,1 0,2 -1,1 18,0 1,1 4,0 1,28 0,-15 -1,1 -1,1 1,0 1,1 0,12 -2,0 -1,1 -15,0 -1,-1 2,2 5,0 -15,-31 -4,0 -1,-1 0,-1 -1,-1 0,-1 -1,0 0,1 1,1 0,2 1,0 1,1 26,15 -8,0 -1,1 -4,0 -1,1 -1,0 0,1 26,-4 9,0 1,1Z"/>
<path onmouseover="hoverPath(evt)" onmouseout="recoverPath(evt)" fill="rgb(240,239,228)" d="M  70,188l -1,1 0,1 -1,1 0,2 1,1 1,1 1,-1 2,0 1,1 1,1 0,3 1,0 1,-1 3,0 0,-5 1,-1 5,0 1,-1 1,0 1,-1 1,-1 2,0 0,-3 1,-1 3,0 1,-1 4,0 1,1 1,1 1,0 1,-1 4,0 1,1 2,0 1,-1 1,-1 1,0 1,-1 3,0 0,-1 1,-1 2,0 1,1 0,2 1,0 0,-2 1,-1 3,0 1,1 0,1 4,0 1,1 1,1 0,7 -1,1 0,2 1,1 5,0 1,-1 2,0 1,-1 1,0 1,-1 1,0 1,-1 2,0 1,-1 1,0 0,-1 1,-1 0,-1 1,-1 0,-1 1,-1 0,-4 -1,-1 0,-1 -30,0 -1,-1 -27,0 -1,1 -2,0 -1,1 -2,0 0,1 1,1 0,0 1,1 0,2 -22,3 21,-1 -2,0 -1,-1 0,-1 -2,0 -1,1 -1,0 -1,1 -3,0 -1,-1 -4,0 -1,1 17,0 -21,1Z"/>
<path onmouseover="hoverPath(evt)" onmouseout="recoverPath(evt)" fill="rgb(244,242,235)" d="M  126,87l 0,1 -1,1 0,9 1,0 1,-1 2,0 1,-1 3,0 1,-1 2,0 1,-1 3,0 1,-1 2,0 1,-1 2,0 1,-1 3,0 1,-1 2,0 1,-1 2,0 1,-1 3,0 1,-1 2,0 1,-1 3,0 1,-1 2,0 1,-1 2,0 1,-1 2,0 0,-18 -1,-1 0,0 -1,-1 0,-4 1,-1 1,0 0,-21 -1,-1 0,-2 -1,0 -2,2 -1,1 -3,0 -1,1 -23,0 -1,-1 0,-2 -7,0 2,1 0,2 -1,1 -1,0 0,1 -1,1 0,4 1,1 0,35 -1,1 -1,1 -1,0 -1,1 -3,0 -1,1 -2,0Z"/>
<path onmouseover="hoverPath(evt)" onmouseout="recoverPath(evt)" fill="rgb(203,217,194)" d="M  186,135l 0,0 1,-1 0,-9 -2,0 -1,-1 0,-9 1,-1 2,0 0,-15 1,-1 1,-1 2,0 1,-1 1,0 1,-1 5,0 1,-1 2,0 1,1 0,-2 1,-1 0,-2 -1,0 -1,1 -2,0 -1,1 -2,0 -1,1 -2,0 -1,1 -3,0 -1,1 -2,0 -1,1 -1,0 -1,1 -1,0 0,2 -1,1 0,1 -1,1 -1,1 -2,0 0,34 1,0 1,1 0,3 -1,1 -1,1 0,30 1,-4 4,0 1,1 0,4 1,0 1,1 0,40 -1,1 -1,1 -1,1 -2,0 -1,-1 0,-35 -3,0 0,3 1,1 0,44 -1,1 0,0 1,1 0,2 1,1 0,9 -1,1 -2,0 -1,-1 -1,-1 -3,0 -1,1 0,4 1,1 0,0 1,1 1,1 0,2 -1,1 0,1 15,0 0,-3 1,-1 0,-7 1,-1 0,-14 -1,-1 0,-27 1,-1 2,0 1,-1 17,0 1,1 1,1 1,1 0,-3 -2,0 2,4 0,16 -21,-20 -2,0 -1,-1 0,-11 -1,-1 0,-19 1,-1 1,0 0,-1 -1,-1 0,0 -1,-1 0,-23 -1,-1 0,-4 -16,96 -1,-1 -1,-1 -1,1 -1,1 -1,0 -1,1 -2,0 -1,-1 -1,0 -1,-1 0,-10 -1,11 0,2 1,-1 2,0 -2,-1 6,1 0,0 2,-1 3,0 16,-96Z"/>
<path onmouseover="hoverPath(evt)" onmouseout="recoverPath(evt)" fill="rgb(246,235,143)" d="M  190,249l 0,3 -1,1 0,2 7,0 0,-3 1,-1 2,0 1,1 1,-1 0,0 1,-1 1,0 1,-1 1,-1 1,0 2,-2 1,0 1,-1 1,-1 1,0 1,-1 1,0 1,-1 1,-1 1,0 1,-1 1,-1 1,0 1,-1 1,0 1,-1 1,-1 1,0 0,-1 1,-1 2,0 1,1 1,1 1,1 1,1 -2,-3 0,-1 1,-1 0,-1 1,-1 1,-1 1,0 1,-1 1,0 1,-1 1,-1 1,0 1,-1 1,-1 1,0 1,-1 1,0 1,-1 1,-1 1,0 1,-1 1,-1 1,0 1,-1 1,-1 3,0 0,-8 -1,0 -1,1 0,0 -1,1 -1,0 -1,1 -1,1 -1,0 -1,1 -1,1 -1,0 -1,1 -1,1 -1,0 -1,1 -1,0 -1,1 -1,1 -1,0 -2,2 -1,0 -1,1 -1,1 -1,0 -1,1 -1,0 -1,1 -1,1 -1,0 -1,1 -1,0 -1,1 -3,0 -1,-1 -1,-1 0,-1 -1,0 -1,-1 -1,-1 -1,-1 3,4 0,1 1,0 1,1 0,2 -1,1 -1,0 0,1 -1,1 -1,0 -1,1 -1,1 -1,0 -1,1 -1,0 -1,1 -1,1 -1,0 -1,1 -1,1 -1,0 -1,1 -1,1 -1,0 -1,1 -1,1 -1,0 -1,1 -1,1 -1,0 -1,1 -1,1 -2,0 -1,-1Z"/>
<path onmouseover="hoverPath(evt)" onmouseout="recoverPath(evt)" fill="rgb(220,219,172)" d="M  195,79l -1,0 -1,1 -2,0 -1,1 -2,0 -1,-1 0,-29 1,-1 0,0 -1,-1 0,-2 -1,-1 0,-7 1,-1 3,0 1,-1 6,0 1,1 0,-2 1,-1 -1,0 -1,1 -2,0 3,3 0,1 -12,-3 0,-7 -1,11 0,5 -1,1 -1,1 -3,0 -1,-1 0,-5 -1,-1 0,18 -1,1 -1,0 0,2 1,1 1,1 0,20 -1,1 -2,0 -1,1 -2,0 -1,1 -2,0 -1,1 -3,0 -1,1 -2,0 2,1 0,1 1,0 0,-1 1,-1 -1,0 4,-1 3,-1 1,0 1,1 1,0 1,-1 2,0 0,-2 1,-1 1,0 0,-10 1,-1 2,0 1,1 0,10 4,0 1,-1 2,0 1,-1 0,-1 3,-2 -1,1 1,0 1,1 1,0 1,-1 3,0 0,-2 1,-1 3,0 1,1 1,0 0,-2 -2,0 -4,1 -1,0 -1,1 -2,0 -1,1 -2,1 1,-1Z"/>
<path onmouseover="hoverPath(evt)" onmouseout="recoverPath(evt)" fill="rgb(241,240,230)" d="M  239,127l 0,1 1,1 0,1 1,1 0,1 1,1 1,1 0,1 1,1 0,1 1,1 2,0 1,1 0,2 -1,1 1,1 0,1 1,1 1,1 0,1 2,0 1,1 0,2 -1,1 1,1 0,1 1,1 0,1 1,0 0,-34 -3,0 -1,1 -2,0 -1,1 -3,0 -1,1 -2,0 -1,1 -2,0 -1,1 1,1Z"/>
</svg>