<svg width="256" height="256" xmlns="http://www.w3.org/2000/svg"><script> 
var tempColor;
function hoverPath(evt){
obj = evt.target;
tempColor = obj.getAttribute("fill");
obj.setAttribute("fill","red");
//alert(tempColor);
//obj.setAttribute("stroke","red");}
function recoverPath(evt){
obj = evt.target;
obj.setAttribute("fill", tempColor);
//obj.setAttribute("stroke", tempColor);
}</script><path onmouseover="hoverPath(evt)" onmouseout="recoverPath(evt)" fill="rgb(244,243,236)" d="M  0,44l 0,21 3,0 1,-1 3,0 1,-1 2,0 1,-1 3,0 1,-1 3,0 1,-1 3,0 1,-1 4,0 1,-1 3,0 1,-1 4,0 0,-2 -1,-1 0,-1 -1,-1 0,-1 -1,-1 0,-2 -1,-1 0,-3 -1,-1 0,-2 -1,-1 0,-1 -1,-1 0,-1 -4,0 -1,1 -3,0 -1,1 -3,0 -1,1 -2,0 -1,1 -3,0 -1,1 -3,0 -1,1 -4,0 -1,1Z"/>
<path onmouseover="hoverPath(evt)" onmouseout="recoverPath(evt)" fill="rgb(183,152,237)" d="M  0,112l 0,10 6,0 1,1 1,0 1,-1 13,0 1,-1 5,0 1,1 1,-1 13,0 1,-1 5,0 1,1 1,0 1,-1 12,0 1,-1 6,0 1,1 1,0 1,-1 12,0 1,-1 6,0 1,1 1,0 1,-1 15,0 1,-1 9,0 1,1 1,-1 2,0 1,-1 2,0 1,1 8,0 1,-1 5,0 1,1 1,-1 12,0 1,-1 5,0 1,1 1,-1 13,0 1,-1 5,0 1,1 3,0 1,-1 15,0 1,-1 6,0 1,-1 2,0 1,1 6,0 1,-1 6,0 1,1 1,0 1,-1 3,0 1,-1 2,0 1,1 6,0 1,-1 5,0 1,1 4,0 0,-15 -19,0 0,2 -1,1 -2,0 -1,-1 0,-1 -13,0 0,2 -1,1 -5,0 -1,-1 0,-1 -13,0 -1,-1 -1,0 -1,-1 -1,0 -1,-1 -1,0 -1,-1 -1,0 -1,-1 0,1 1,1 1,0 3,2 0,2 -1,1 -5,0 -1,1 -4,0 -1,1 -4,0 -1,-1 -6,0 -1,1 -6,0 -1,-1 -1,0 -1,1 -4,0 -1,1 -2,0 -1,-1 -5,0 -1,1 -8,0 -1,-1 -1,1 -4,0 -1,1 -2,0 -1,-1 -3,0 -1,1 -3,0 -1,-1 -2,0 0,1 -1,1 -2,0 -1,1 -5,0 -1,-1 -3,0 -1,-1 -4,0 -1,1 -7,0 -1,-1 -1,0 -1,1 -12,0 -1,1 -5,0 -1,-1 -1,0 -1,1 -12,0 -1,1 -6,0 -1,-1 -1,0 -1,-1 0,-2 1,-1 2,0 1,-1 1,0 0,-5 -1,-1 0,3 -1,1 -6,0 -1,1 -2,0 0,4 -1,1 -4,0 0,2 -1,1 -8,0 -1,-1 0,-2 -1,-1 -1,-1 0,-1 -1,-1 0,-1 -1,-1 0,-1 -1,-1 -1,-1 0,-1 -1,-1 0,-1 -1,-1 0,-1 -1,-1 0,-1 -1,-1 -1,-1 0,-1 -1,-1 0,-1 -1,-1 -1,-1 0,-1 -1,-1 -1,-1 -1,-1 -1,-1 0,-1 -1,-1 -1,-1 0,-3 1,-1 1,0 1,-1 3,0 1,-1 2,0 1,-1 3,0 1,-1 3,0 1,-1 2,0 1,-1 3,0 1,-1 3,0 1,-1 2,0 -1,-1 0,-2 -1,-1 -3,0 -1,1 -3,0 -1,1 -4,0 -1,1 -3,0 -1,1 -3,0 -1,1 -3,0 -1,1 -2,0 -1,1 -3,0 -1,1 -4,0 0,6 3,0 2,2 1,1 0,1 1,1 1,1 1,1 1,1 1,1 0,1 1,1 1,1 0,1 1,1 0,1 1,1 0,1 1,1 0,1 1,1 1,1 0,1 1,1 0,1 1,1 0,1 1,1 0,1 1,1 1,1 0,1 1,1 0,4 -1,1 -3,0 -1,-1 -7,0 -1,1 -4,0 -1,-1 -3,0 -1,-1 0,-3 -2,0Z"/>
<path onmouseover="hoverPath(evt)" onmouseout="recoverPath(evt)" fill="rgb(244,243,235)" d="M  45,63l -2,0 1,1 0,4 -1,1 0,1 1,1 0,2 2,0 1,1 0,2 1,1 0,3 1,1 0,2 1,1 0,3 -1,1 0,1 2,0 1,1 0,1 1,1 0,1 1,1 0,1 1,1 0,1 1,0 1,-1 1,0 1,-1 1,0 1,-1 2,0 1,-1 1,0 1,-1 1,0 1,-1 2,0 0,-1 1,-1 1,0 1,-1 2,0 0,-1 1,-1 2,0 1,-1 1,0 0,-1 1,-1 1,0 1,-1 1,0 1,-1 3,0 1,-1 1,-1 2,0 1,-1 2,0 1,-1 2,0 1,-1 10,0 1,1 3,0 0,-9 -1,-1 0,-2 -1,-1 0,-2 -1,-1 0,-3 -1,-1 0,-2 -1,-1 0,-6 -4,0 -1,1 -2,0 -1,1 -3,0 -1,1 -3,0 -1,1 -3,0 -1,1 -3,0 -1,1 -3,0 -1,1 -3,0 -1,1 -3,0 -1,1 -3,0 -1,1 -3,0 -1,1 -3,0 -1,1 -3,0 -1,1 -3,0 -1,1 -3,0 -1,1Z"/>
<path onmouseover="hoverPath(evt)" onmouseout="recoverPath(evt)" fill="rgb(244,243,236)" d="M  109,16l -1,0 0,2 -1,1 0,3 1,1 0,3 1,1 0,3 1,1 0,3 1,1 0,2 4,0 1,-1 3,0 1,-1 3,0 1,-1 3,0 1,-1 3,0 1,-1 3,0 1,-1 3,0 1,-1 3,0 1,-1 3,0 1,-1 3,0 1,-1 3,0 1,-1 3,0 1,-1 3,0 1,-1 3,0 1,-1 3,0 1,-1 3,0 1,-1 3,0 1,-1 3,0 1,-1 3,0 1,-1 3,0 1,-1 3,0 1,-1 3,0 1,-1 3,0 1,-1 3,0 1,-1 3,0 1,-1 3,0 1,-1 3,0 1,-1 2,0 1,-1 3,0 1,-1 3,0 1,-1 3,0 1,-1 3,0 1,-1 3,0 1,-1 3,0 1,-1 3,0 1,-1 4,0 0,-2 -93,0 0,2 -1,1 -3,0 -1,1 -3,0 -1,1 -2,0 -1,1 -4,0 -1,1 -3,0 -1,1 -2,0 -1,1 -3,0 -1,1 -3,0 -1,1 -3,0 -1,1 -3,0 -1,1 -3,0 -1,1 -3,0 -1,1 -3,0 -1,1Z"/>
<path onmouseover="hoverPath(evt)" onmouseout="recoverPath(evt)" fill="rgb(171,198,238)" d="M  112,40l 0,2 1,1 0,1 1,0 1,-1 3,0 1,-1 3,0 1,-1 3,0 1,-1 3,0 1,-1 3,0 1,-1 3,0 1,-1 3,0 1,-1 3,0 1,-1 3,0 1,-1 3,0 1,-1 5,0 1,-1 2,0 1,-1 2,0 1,-1 3,0 1,-1 2,0 1,-1 3,0 1,-1 4,0 1,-1 5,0 1,-1 1,0 1,-1 1,0 1,-1 4,0 1,-1 3,0 1,-1 3,0 1,-1 3,0 1,-1 3,0 1,-1 3,0 1,-1 3,0 1,-1 3,0 1,-1 3,0 1,-1 3,0 1,-1 3,0 1,-1 3,0 1,-1 4,0 1,-1 3,0 1,-1 4,0 0,-5 -3,0 -1,1 -3,0 -1,1 -3,0 -1,1 -3,0 -1,1 -3,0 -1,1 -3,0 -1,1 -3,0 -1,1 -3,0 -1,1 -2,0 -1,1 -3,0 -1,1 -3,0 -1,1 -3,0 -1,1 -3,0 -1,1 -3,0 -1,1 -3,0 -1,1 -3,0 -1,1 -3,0 -1,1 -3,0 -1,1 -3,0 -1,1 -3,0 -1,1 -3,0 -1,1 -3,0 -1,1 -3,0 -1,1 -3,0 -1,1 -3,0 -1,1 -3,0 -1,1 -3,0 -1,1 -3,0 -1,1 -3,0 -1,1 -3,0 -1,1 -3,0 -1,1 -3,0 -1,1 -3,0 -1,1 -3,0 -1,1 -3,0 -1,1 -3,0 -1,1Z"/>
<path onmouseover="hoverPath(evt)" onmouseout="recoverPath(evt)" fill="rgb(244,242,235)" d="M  115,56l 0,2 1,1 0,3 1,1 0,2 1,1 0,18 3,0 1,1 1,1 0,1 1,0 1,1 2,0 1,-1 1,0 1,-1 2,-2 1,-1 1,-1 2,0 0,-1 1,-1 1,0 1,-1 3,0 1,-1 1,0 1,-1 2,0 1,-1 4,0 1,-1 6,0 1,-1 4,0 1,-1 4,0 1,-1 4,0 1,-1 3,0 1,-1 1,0 1,-1 3,0 1,-1 1,0 1,-1 2,0 1,-1 2,0 1,-1 5,0 1,1 2,0 1,1 1,0 1,1 1,0 1,1 1,0 1,1 2,0 1,1 2,0 1,1 2,0 1,1 4,0 1,1 7,0 1,-1 1,0 1,-1 1,0 1,-1 1,0 1,-1 1,0 1,-1 1,-1 1,0 1,-1 1,0 1,-1 2,0 1,-1 9,0 0,-35 -30,0 -1,1 -15,0 -1,1 -1,0 0,5 -1,1 0,10 -1,1 -2,0 -1,-1 0,-14 1,-1 -1,-1 0,-1 -9,0 -1,-1 -2,0 -1,1 -6,0 -1,1 -3,0 -1,1 -3,0 -1,1 -2,0 -1,1 -2,0 -1,1 -2,0 -1,1 -3,0 0,2 -1,1 -2,0 -1,-1 0,-4 -2,0 -1,1 -3,0 -1,1 -3,0 -1,1 -3,0 -1,1 -3,0 -1,1 -3,0 -1,1 -3,0 -1,1 -3,0 -1,1 -3,0 -1,1 -3,0 -1,1 -3,0 -1,1 -2,0 0,3 1,0 1,1 1,-1 6,0 1,1 0,2 -1,1 -3,0 -1,1 -3,0Z"/>
<path onmouseover="hoverPath(evt)" onmouseout="recoverPath(evt)" fill="rgb(244,243,236)" d="M  123,120l 0,8 -1,1 0,11 1,1 0,9 1,1 0,9 1,1 0,10 1,1 0,12 1,1 0,17 1,1 0,11 1,-1 2,0 1,1 1,0 1,-1 4,0 1,-1 3,0 1,-1 4,0 1,-1 3,0 1,-1 2,0 1,-1 4,0 1,-1 3,0 1,-1 4,0 1,-1 2,0 1,-1 4,0 1,-1 3,0 1,-1 3,0 1,-1 4,0 1,-1 2,0 1,-1 4,0 1,-1 2,0 1,-1 4,0 1,-1 3,0 1,-1 4,0 1,-1 3,0 1,-1 4,0 1,-1 3,0 1,-1 2,0 1,-1 4,0 1,-1 3,0 1,-1 3,0 1,-1 4,0 1,-1 3,0 1,-1 2,0 0,-71 -5,0 -1,-1 -3,0 -1,1 -8,0 -1,-1 -1,1 -3,0 -1,1 -3,0 -1,-1 -4,0 -1,1 -8,0 -1,-1 -1,1 -6,0 -1,1 -15,0 -1,1 -5,0 -1,-1 -3,0 -1,1 -13,0 -1,1 -2,0 -1,-1 -3,0 -1,1 -12,0 -1,1 -2,0 -1,-1 -3,0 -1,1 -10,0 -1,-1 -1,1 -2,0 -1,1Z"/>
<path onmouseover="hoverPath(evt)" onmouseout="recoverPath(evt)" fill="rgb(243,242,234)" d="M  126,231l 0,0 -1,1 0,7 -1,1 0,11 -1,1 0,3 132,0 0,-21 -32,0 -1,-1 -25,0 -1,-1 -26,0 -1,-1 -31,0 -1,-1 -10,0 -1,1Z"/>
<path onmouseover="hoverPath(evt)" onmouseout="recoverPath(evt)" fill="rgb(244,243,236)" d="M  0,1l 0,32 3,0 1,-1 3,0 1,-1 3,0 1,-1 3,0 1,-1 3,0 1,-1 3,0 1,-1 2,0 1,-1 3,0 1,-1 3,0 1,-1 3,0 1,-1 3,0 1,-1 3,0 1,-1 2,0 1,-1 3,0 1,-1 3,0 1,-1 3,0 1,-1 3,0 1,-1 4,0 1,-1 2,0 1,-1 3,0 1,-1 3,0 1,-1 3,0 1,-1 3,0 1,-1 3,0 1,-1 3,0 1,1 1,-1 3,0 0,-2 1,-1 6,0 1,-1 3,0 1,-1 3,0 1,-1 2,0 1,-1 3,0 1,-1 3,0 0,-1 -127,0 -1,1Z"/>
<path onmouseover="hoverPath(evt)" onmouseout="recoverPath(evt)" fill="rgb(244,243,236)" d="M  0,125l 0,89 7,0 1,1 9,0 1,1 10,0 1,1 10,0 1,1 10,0 1,1 10,0 1,1 9,0 1,1 9,0 1,1 9,0 1,1 9,0 1,1 2,0 1,-1 2,0 1,-1 1,0 1,-1 2,0 1,-1 1,0 1,-1 2,0 1,-1 1,0 1,-1 2,0 1,-1 0,-10 -1,-1 0,-17 -1,-1 0,-12 -1,-1 0,-10 -1,-1 0,-9 -1,-1 0,-10 -1,-1 0,-9 -1,-1 0,-11 -1,-1 0,-1 -2,0 -1,1 -15,0 -1,1 -3,0 -1,-1 -4,0 -1,1 -12,0 -1,1 -3,0 -1,-1 -4,0 -1,1 -12,0 -1,1 -3,0 -1,-1 -3,0 -1,1 -13,0 -1,1 -2,0 -1,-1 -3,0 -1,1 -13,0 -1,1 -3,0 -1,-1 -4,0 -1,1Z"/>
<path onmouseover="hoverPath(evt)" onmouseout="recoverPath(evt)" fill="rgb(241,240,229)" d="M  0,221l 0,28 2,0 1,-1 3,0 1,-1 3,0 1,-1 3,0 1,-1 2,0 1,-1 3,0 1,-1 3,0 1,-1 3,0 1,-1 3,0 1,-1 3,0 1,-1 3,0 1,-1 3,0 1,-1 3,0 1,-1 3,0 1,-1 3,0 1,-1 3,0 1,-1 2,0 1,-1 3,0 1,-1 3,0 1,-1 4,0 1,-1 3,0 1,-1 2,0 0,-1 -6,0 -1,-1 -8,0 -1,-1 -9,0 -1,-1 -10,0 -1,-1 -10,0 -1,-1 -10,0 -1,-1 -10,0 -1,-1 -9,0 -1,-1 -4,0Z"/>
<path onmouseover="hoverPath(evt)" onmouseout="recoverPath(evt)" fill="rgb(243,242,235)" d="M  10,73l -1,0 0,1 1,1 1,1 0,1 1,1 1,1 1,1 1,1 0,1 1,1 1,1 0,1 1,1 0,1 1,1 1,1 0,1 1,1 0,1 1,1 0,1 1,1 0,1 1,1 1,1 0,1 1,1 0,1 1,1 0,1 1,1 1,1 0,2 6,0 0,-2 1,-1 4,0 0,-4 1,-1 2,0 1,-1 6,0 0,-3 -1,-1 0,-1 -1,-1 0,-1 -1,-1 0,-3 1,-1 0,-1 -1,-1 0,-2 -1,-1 0,-3 -1,-1 0,-2 -2,0 -1,-1 0,-2 -1,-1 0,-3 1,-1 0,-2 -1,-1 0,-3 -1,-1 0,-1 -1,-1 0,-1 -1,-1 0,2 1,1 0,2 1,1 0,2 -1,1 -2,0 -1,1 -3,0 -1,1 -3,0 -1,1 -2,0 -1,1 -3,0 -1,1 -3,0 -1,1 -2,0 -1,1 -3,0 -1,1Z"/>
<path onmouseover="hoverPath(evt)" onmouseout="recoverPath(evt)" fill="rgb(237,238,235)" d="M  52,105l -2,0 2,1 4,0 1,-1 12,0 1,-1 3,0 1,1 3,0 1,-1 12,0 1,-1 3,0 1,1 5,0 1,-1 6,0 1,1 3,0 1,1 3,0 0,-6 -1,-1 0,-7 -1,-1 0,-7 -1,-1 0,-3 -3,0 -1,-1 -8,0 -1,1 -2,0 -1,1 -2,0 -1,1 -2,0 -1,1 -1,1 -3,0 -1,1 -1,0 -1,1 -1,0 0,1 -1,1 -1,0 -1,1 -2,0 0,1 -1,1 -2,0 -1,1 -1,0 0,1 -1,1 -2,0 -1,1 -1,0 -1,1 -1,0 -1,1 -2,0 -1,1 -1,0 -1,1 -1,0 -1,1 -2,0 0,4 -1,1 -1,0 -1,1Z"/>
<path onmouseover="hoverPath(evt)" onmouseout="recoverPath(evt)" fill="rgb(243,233,139)" d="M  0,38l 0,3 4,0 1,-1 3,0 1,-1 3,0 1,-1 2,0 1,-1 3,0 1,-1 3,0 1,-1 6,0 1,1 0,-2 1,-1 2,0 1,-1 3,0 1,-1 3,0 1,-1 3,0 1,-1 3,0 1,-1 3,0 1,-1 3,0 1,-1 3,0 1,-1 3,0 1,-1 2,0 1,-1 3,0 1,-1 4,0 1,-1 3,0 1,-1 2,0 1,-1 3,0 1,-1 3,0 1,-1 3,0 1,-1 3,0 0,-1 1,-1 3,0 1,1 0,2 1,-3 2,0 1,-1 3,0 1,-1 3,0 1,-1 3,0 1,-1 3,0 1,-1 3,0 1,-1 3,0 1,-1 3,0 1,-1 2,0 1,-1 3,0 1,-1 4,0 1,-1 2,0 1,-1 3,0 1,-1 3,0 0,-1 -30,0 0,2 -1,1 -3,0 -1,1 -3,0 -1,1 -2,0 -1,1 -3,0 -1,1 -3,0 -1,1 -6,0 0,2 -1,1 -3,0 -1,1 -2,0 -1,-1 -1,0 -1,1 -3,0 -1,1 -3,0 -1,1 -3,0 -1,1 -3,0 -1,1 -3,0 -1,1 -2,0 -1,1 -4,0 -1,1 -3,0 -1,1 -3,0 -1,1 -3,0 -1,1 -3,0 -1,1 -2,0 -1,1 -3,0 -1,1 -3,0 -1,1 -3,0 -1,1 -3,0 -1,1 -3,0 -1,1 -2,0 -1,1 -3,0 -1,1 -3,0 -1,1 -3,0 -1,1 -3,0 -1,1 -3,0 -1,1 -4,0 0,3 31,-1 1,1 0,-1 -1,0 -31,1Z"/>
<path onmouseover="hoverPath(evt)" onmouseout="recoverPath(evt)" fill="rgb(241,240,229)" d="M  11,255l 58,0 0,-2 -1,-1 0,-6 -1,-1 0,-5 -1,-1 0,-1 -2,0 -1,1 -3,0 -1,1 -3,0 -1,1 -3,0 -1,1 -3,0 -1,1 -3,0 -1,1 -3,0 -1,1 -3,0 -1,1 -3,0 -1,1 -2,0 -1,1 -3,0 -1,1 -3,0 -1,1 -3,0 -1,1 -3,0 -1,1 -3,0 -1,1 -3,0 -1,1 -4,0 0,1Z"/>
<path onmouseover="hoverPath(evt)" onmouseout="recoverPath(evt)" fill="rgb(171,198,238)" d="M  42,58l 0,1 1,1 0,1 4,0 1,-1 3,0 1,-1 3,0 1,-1 3,0 1,-1 3,0 1,-1 3,0 1,-1 3,0 1,-1 3,0 1,-1 3,0 1,-1 3,0 1,-1 3,0 1,-1 3,0 1,-1 3,0 1,-1 3,0 1,-1 2,0 1,-1 4,0 -1,-1 0,-3 -5,0 -1,1 -3,0 -1,1 -3,0 -1,1 -3,0 -1,1 -3,0 -1,1 -3,0 -1,1 -3,0 -1,1 -3,0 -1,1 -3,0 -1,1 -3,0 -1,1 -3,0 -1,1 -3,0 -1,1 -3,0 -1,1 -3,0 -1,1 -3,0 -1,1 -1,0 -1,1Z"/>
<path onmouseover="hoverPath(evt)" onmouseout="recoverPath(evt)" fill="rgb(242,241,232)" d="M  72,238l 0,5 1,1 0,6 1,1 0,4 44,0 0,-6 1,-1 0,-10 1,-1 0,-6 -1,-1 -6,0 -1,-1 -7,0 -1,1 -6,0 -1,1 -4,0 -1,1 -3,0 -1,1 -4,0 -1,1 -2,0 -1,1 -4,0 -1,1 -2,0 -1,1Z"/>
<path onmouseover="hoverPath(evt)" onmouseout="recoverPath(evt)" fill="rgb(241,240,228)" d="M  128,222l -1,1 0,2 14,0 1,1 33,0 1,1 24,0 1,1 7,0 1,-1 0,-1 -1,-1 0,-9 -1,-1 0,-10 -1,-1 0,-2 -1,1 -5,0 -1,1 -2,0 -1,1 -4,0 -1,1 -3,0 -1,1 -4,0 -1,1 -2,0 -1,1 -4,0 -1,1 -3,0 -1,1 -3,0 -1,1 -4,0 -1,1 -2,0 -1,1 -4,0 -1,1 -3,0 -1,1 -4,0 -1,1 -3,0 -1,1 -2,0 -1,1 -4,0 -1,1 -3,0 -1,1Z"/>
<path onmouseover="hoverPath(evt)" onmouseout="recoverPath(evt)" fill="rgb(253,253,253)" d="M  165,34l 2,0 1,-1 2,0 1,-1 2,0 1,-1 3,0 1,-1 3,0 1,-1 6,0 1,-1 4,0 1,1 9,0 1,1 0,1 1,1 0,2 -1,1 0,12 1,-11 0,-5 1,-1 1,0 1,-1 15,0 1,-1 -10,0 -7,1 -1,-1 -3,0 -38,6 21,-6 -2,0 -3,1 -2,0 -2,1 -2,0 -2,1 -1,0 -2,1 -2,0 -1,1 -2,0 -1,1 -2,0 -1,1 -1,0 0,3 2,-3Z"/>
<path onmouseover="hoverPath(evt)" onmouseout="recoverPath(evt)" fill="rgb(243,242,232)" d="M  213,201l -1,0 0,11 1,1 0,9 1,1 0,4 1,1 12,0 1,1 27,0 0,-38 -4,0 -1,1 -3,0 -1,1 -4,0 -1,1 -3,0 -1,1 -2,0 -1,1 -4,0 -1,1 -3,0 -1,1 -3,0 -1,1 -4,0 -1,1 -2,0 -1,1Z"/>
<path onmouseover="hoverPath(evt)" onmouseout="recoverPath(evt)" fill="rgb(242,241,232)" d="M  228,26l 27,0 0,-15 -3,0 -1,1 -3,0 -1,1 -4,0 -1,1 -3,0 -1,1 -3,0 -1,1 -3,0 -1,1 -3,0 -1,1 -3,0 -1,1 -3,0 -1,1 -3,0 -1,1 -3,0 -1,1 -3,0 -1,1 -3,0 -1,1 -3,0 -1,1 -4,0 -1,1 5,0 1,1 2,0 1,-1 5,0 1,1 4,0 1,-1Z"/>
<path onmouseover="hoverPath(evt)" onmouseout="recoverPath(evt)" fill="rgb(253,253,252)" d="M  2,251l -2,0 0,1 3,0 1,-1 3,0 1,-1 3,0 1,-1 3,0 1,-1 3,0 1,-1 3,0 1,-1 3,0 1,-1 2,0 1,-1 3,0 1,-1 3,0 1,-1 3,0 1,-1 3,0 1,-1 3,0 1,-1 3,0 1,-1 3,0 1,-1 3,0 1,-1 4,0 1,1 0,1 1,1 0,5 1,1 0,6 1,1 0,3 1,0 0,-3 -1,-1 0,-6 -1,-1 0,-8 1,-1 1,-1 2,0 1,-1 4,0 1,-1 2,0 1,-1 4,0 1,-1 3,0 1,-1 4,0 1,-1 6,0 1,-1 9,0 1,1 6,0 1,1 1,1 0,8 -1,1 0,10 -1,1 0,5 1,0 0,-4 1,-1 0,-11 1,-1 0,-7 1,-1 0,-1 1,-1 13,0 1,1 31,0 1,1 26,0 1,1 25,0 1,1 31,0 0,-1 -28,0 -1,-1 -12,0 -1,-1 -1,-1 0,-4 -1,-1 0,-9 -1,-1 0,-13 1,-1 1,0 1,-1 2,0 1,-1 4,0 1,-1 3,0 1,-1 3,0 1,-1 4,0 1,-1 2,0 1,-1 3,0 1,-1 4,0 1,-1 3,0 1,-1 5,0 0,-2 -1,0 -1,1 -3,0 -1,1 -4,0 -1,1 -3,0 -1,1 -3,0 -1,1 -4,0 -1,1 -2,0 -1,1 -3,0 -1,1 -4,0 -1,1 -3,0 -1,1 -4,0 -1,1 -3,0 -1,1 -4,0 -1,1 -2,0 -1,1 -4,0 -1,1 -2,0 -1,1 -4,0 -1,1 -3,0 -1,1 -3,0 -1,1 -4,0 -1,1 -2,0 -1,1 -4,0 -1,1 -3,0 -1,1 -4,0 -1,1 -2,0 -1,1 -3,0 -1,1 -4,0 -1,1 -3,0 -1,1 -4,0 -1,1 -3,0 -1,-1 -1,1 -2,0 -1,-1 0,-11 -1,-1 0,-17 -1,-1 0,-12 -1,-1 0,-10 -1,-1 0,-9 -1,-1 0,-9 -1,-1 0,-10 -1,-1 0,-2 1,-1 1,0 0,-7 -1,-1 -3,0 1,1 0,11 1,1 0,9 1,1 0,10 1,1 0,9 1,1 0,10 1,1 0,12 1,1 0,17 1,1 0,12 -1,1 -1,1 -2,0 -1,1 -1,0 -1,1 -2,0 -1,1 -1,0 -1,1 -2,0 -1,1 -1,0 -1,1 -2,0 -1,1 -4,0 -1,-1 -9,0 -1,-1 -9,0 -1,-1 -9,0 -1,-1 -9,0 -1,-1 -10,0 -1,-1 -10,0 -1,-1 -10,0 -1,-1 -10,0 -1,-1 -9,0 -1,-1 -6,0 0,1 5,0 1,1 9,0 1,1 10,0 1,1 10,0 1,1 10,0 1,1 10,0 1,1 9,0 1,1 8,0 1,1 6,0 1,1 0,3 -1,1 -2,0 -1,1 -3,0 -1,1 -4,0 -1,1 -3,0 -1,1 -3,0 -1,1 -2,0 -1,1 -3,0 -1,1 -3,0 -1,1 -3,0 -1,1 -3,0 -1,1 -3,0 -1,1 -3,0 -1,1 -3,0 -1,1 -3,0 -1,1 -3,0 -1,1 -3,0 -1,1 -3,0 -1,1 -2,0 -1,1 -3,0 -1,1 -3,0 -1,1 -3,0 -1,1 -1,0 130,-34 4,0 1,-1 2,0 1,-1 3,0 1,-1 4,0 1,-1 3,0 1,-1 4,0 1,-1 2,0 1,-1 4,0 1,-1 3,0 1,-1 3,0 1,-1 4,0 1,-1 2,0 1,-1 4,0 1,-1 3,0 1,-1 4,0 1,-1 2,0 1,-1 5,0 1,-1 2,0 1,1 0,2 1,1 0,10 1,1 0,9 1,1 0,3 -1,1 -1,1 -9,0 -1,-1 -24,0 -1,-1 -33,0 -1,-1 -14,0 -1,-1 0,-4 1,-1 0,-1 1,-1 1,-1 3,0 1,-1 -130,34Z"/>
<path onmouseover="hoverPath(evt)" onmouseout="recoverPath(evt)" fill="rgb(243,241,233)" d="M  4,78l 0,-1 -1,-1 -1,-1 -2,0 0,28 3,0 1,1 0,3 3,0 1,1 2,0 1,-1 9,0 1,1 1,0 0,-2 -1,-1 0,-1 -1,-1 -1,-1 0,-1 -1,-1 0,-1 -1,-1 0,-1 -1,-1 0,-1 -1,-1 -1,-1 0,-1 -1,-1 0,-1 -1,-1 0,-1 -1,-1 0,-1 -2,-2 0,-1 -5,-5Z"/>
<path onmouseover="hoverPath(evt)" onmouseout="recoverPath(evt)" fill="rgb(244,243,235)" d="M  35,35l -2,0 1,1 0,4 -1,1 0,1 1,1 0,3 1,1 0,2 1,1 0,1 1,1 0,1 2,0 1,1 0,1 3,0 1,-1 3,0 1,-1 3,0 1,-1 3,0 1,-1 3,0 1,-1 3,0 1,-1 3,0 1,-1 3,0 1,-1 3,0 1,-1 3,0 1,-1 3,0 1,-1 3,0 1,-1 3,0 1,-1 3,0 1,-1 3,0 1,-1 6,0 0,-3 -1,-1 0,-3 -1,-1 0,-3 -1,-1 0,-3 -1,-1 0,-3 -1,-1 0,-2 -2,0 -1,1 -3,0 -1,1 -3,0 -1,1 -3,0 -1,1 -2,0 -1,1 -3,0 -1,1 -4,0 -1,1 -3,0 -1,1 -2,0 -1,1 -3,0 -1,1 -3,0 -1,1 -3,0 -1,1 -3,0 -1,1 -3,0 -1,1 -3,0 -1,1 -3,0 -1,1 -3,0 -1,1Z"/>
<path onmouseover="hoverPath(evt)" onmouseout="recoverPath(evt)" fill="rgb(253,253,253)" d="M  118,51l -1,0 -1,1 -2,0 -1,-1 -1,0 -1,-1 0,-6 -1,-1 0,-4 -1,-1 0,-2 -1,-1 0,-3 -1,-1 0,-3 -1,-1 0,-3 -1,-1 0,-4 -1,-1 0,-2 -1,0 0,3 1,1 0,3 1,1 0,3 1,1 0,3 1,1 0,3 1,1 0,8 1,1 0,1 1,1 0,6 1,1 0,2 1,1 0,3 1,1 0,2 1,1 0,2 1,1 0,11 -1,1 0,2 1,1 0,7 1,1 0,7 1,1 0,6 1,0 0,-6 -1,-1 0,-11 -1,-1 0,-18 -1,-1 0,-2 -1,-1 0,-3 -1,-1 0,-7 5,-1 -1,1 0,0 3,-1Z"/>
<path onmouseover="hoverPath(evt)" onmouseout="recoverPath(evt)" fill="rgb(243,242,234)" d="M  121,94l 0,0 -1,-1 0,-4 1,-1 0,-1 -1,-1 -1,0 0,10 1,1 0,5 3,0 1,1 1,0 1,-1 5,0 1,1 1,-1 4,0 1,-1 2,0 1,1 6,0 1,-1 7,0 1,1 1,-1 4,0 1,-1 3,0 1,1 4,0 1,-1 8,0 1,1 2,0 1,-1 4,0 1,-1 5,0 0,-1 -3,0 -1,-1 -1,-1 0,-5 1,-1 2,0 1,1 0,2 1,0 1,1 1,0 1,1 1,0 1,1 1,0 1,1 13,0 1,1 0,1 3,0 0,-2 1,-1 15,0 1,1 0,-1 1,-1 20,0 0,-24 -4,0 -1,1 -3,0 -1,1 -1,0 -1,1 -1,0 -1,1 -1,0 -1,1 -1,1 -1,0 -2,2 -1,0 -1,1 -3,0 -1,1 -6,0 -1,-1 -6,0 -1,-1 -4,0 -1,-1 -2,0 -1,-1 -1,0 -1,-1 -2,0 -1,-1 -1,0 -1,-1 -1,-1 -1,0 -1,-1 -3,0 -1,-1 -1,1 -3,0 -1,1 -1,0 -1,1 -2,0 -1,1 -1,0 -1,1 -3,0 -1,1 -4,0 -1,1 -5,0 -1,1 -6,0 -1,1 -7,0 -1,1 -2,0 -1,1 -3,0 -1,1 -3,0 -1,1 -1,0 0,1 -1,1 -1,0 -1,1 -1,1 -1,1 -1,1 -1,1 -1,1 -1,0 -1,1 -1,0 -1,1 -2,0 -1,1 -2,0 -1,-1Z"/>
<path onmouseover="hoverPath(evt)" onmouseout="recoverPath(evt)" fill="rgb(171,198,238)" d="M  170,75l -4,0 -1,1 -4,0 -1,1 -6,0 -1,1 -4,0 -1,1 -2,0 -1,1 -1,0 -1,1 -3,0 -1,1 -1,0 0,1 -1,1 -2,0 -1,1 -1,1 -1,1 -1,1 -1,1 -1,0 -1,1 -4,0 -1,-1 -1,1 0,2 1,0 1,1 1,-1 2,0 1,-1 1,0 1,-1 1,0 1,-1 2,-2 1,-1 1,-1 -1,0 -1,1 -1,1 -1,1 -1,1 -2,1 41,-15 -24,5 2,0 1,-1 2,0 3,-1 5,0 2,-1 5,0 1,-1 5,0 1,-1 4,0 1,-1 3,0 1,-1 1,0 1,-1 2,0 1,-1 1,0 1,-1 3,0 1,-1 2,0 1,1 3,0 1,1 1,0 1,1 1,1 1,0 1,1 2,0 1,1 1,0 1,1 2,0 1,1 4,0 1,1 6,0 1,1 4,0 1,-1 3,0 1,-1 1,0 1,-1 1,-1 1,0 1,-1 1,-1 1,0 1,-1 1,0 1,-1 1,0 1,-1 3,0 1,-1 5,0 0,-2 -8,0 -1,1 -2,0 -1,1 -1,0 -1,1 -1,0 -1,1 -1,1 -1,0 -1,1 -1,0 -1,1 -1,0 -1,1 -1,0 -1,1 -9,0 -1,-1 -4,0 -1,-1 -2,0 -1,-1 -2,0 -1,-1 -2,0 -1,-1 -1,0 -1,-1 -1,0 -1,-1 -1,0 -1,-1 -2,0 -1,-1 -3,0 -1,1 -2,0 -1,1 -2,0 -1,1 -1,0 -1,1 -3,0 -1,1 -1,0 -1,1 -3,0 -1,1 -4,0 -25,6 24,-5Z"/>
</svg>