<svg width="256" height="256" xmlns="http://www.w3.org/2000/svg"><script> 
var tempColor;
function hoverPath(evt){
obj = evt.target;
tempColor = obj.getAttribute("fill");
obj.setAttribute("fill","red");
//alert(tempColor);
//obj.setAttribute("stroke","red");}
function recoverPath(evt){
obj = evt.target;
obj.setAttribute("fill", tempColor);
//obj.setAttribute("stroke", tempColor);
}</script><path onmouseover="hoverPath(evt)" onmouseout="recoverPath(evt)" fill="rgb(244,243,236)" d="M  43,167l 0,0 -1,1 -1,1 -3,0 0,4 2,0 1,1 0,2 4,0 1,-1 5,0 1,-1 4,0 1,-1 5,0 1,-1 4,0 1,-1 4,0 1,-1 4,0 1,-1 4,0 1,-1 4,0 1,-1 4,0 1,-1 5,0 1,-1 5,0 1,-1 6,0 1,-1 5,0 1,-1 5,0 1,-1 4,0 1,-1 5,0 1,-1 5,0 1,-1 5,0 1,-1 4,0 0,-12 -1,-1 0,-12 -1,0 -1,1 -5,0 -1,1 -5,0 -1,1 -5,0 -1,1 -6,0 -1,1 -5,0 -1,1 -5,0 -1,1 -5,0 -1,1 -6,0 -1,1 -5,0 -1,1 -5,0 -1,1 -5,0 -1,1 -6,0 -1,1 -5,0 -1,1 -5,0 -1,1 -5,0 -1,1 -6,0 -1,1 -1,0 1,1 0,3 1,1 0,4 1,1 0,3 -2,2 -1,1 -1,1 -2,0 -1,1Z"/>
<path onmouseover="hoverPath(evt)" onmouseout="recoverPath(evt)" fill="rgb(250,250,247)" d="M  39,149l -1,0 0,2 -1,1 -1,1 -6,0 -1,-1 -1,0 1,1 0,1 1,1 1,0 1,1 0,2 1,1 0,-2 -1,-2 0,-1 5,-1 0,0 1,1 1,0 1,1 0,3 1,1 0,3 -1,1 0,2 -1,1 0,1 1,0 1,-1 0,0 2,-2 2,0 3,-3 0,-1 -1,-1 0,-4 -1,-1 0,-3 -1,-1 0,-2 -1,0 0,3 -1,1 -2,0 -1,-1 0,-1 -1,-1Z"/>
<path onmouseover="hoverPath(evt)" onmouseout="recoverPath(evt)" fill="rgb(243,242,234)" d="M  42,197l 0,8 1,1 0,3 1,1 0,12 -1,1 -2,0 -1,-1 0,-6 -1,0 -1,-1 -10,0 -1,1 -1,0 0,3 -1,1 -2,0 -1,-1 0,-3 -1,4 5,0 1,1 0,0 1,1 0,5 6,0 1,1 0,2 -1,1 -3,0 -1,1 -1,0 0,3 8,0 1,1 0,2 -1,1 -5,0 -1,1 -2,0 0,3 -1,1 0,3 -1,1 0,3 20,0 1,-1 13,0 1,-1 8,0 1,-1 9,0 1,-1 7,0 1,-1 5,0 1,-1 6,0 1,-1 3,0 1,-1 2,0 1,-1 0,-1 1,-1 2,0 1,1 2,0 1,-1 5,0 1,-1 4,0 1,-1 4,0 1,-1 3,0 1,-1 4,0 1,-1 3,0 1,-1 4,0 1,-1 4,0 1,-1 4,0 1,-1 2,0 0,-4 -1,-1 0,-4 -1,-1 0,-4 -1,-1 0,-5 -1,-1 0,-4 -1,-1 0,-4 -1,-1 0,-4 -1,-1 0,-4 -1,-1 0,-6 -1,-1 0,-6 -1,-1 0,-10 -1,-1 0,-2 -3,0 -1,1 -4,0 -1,1 -4,0 -1,1 -4,0 -1,1 -3,0 -1,1 -4,0 -1,1 -4,0 -1,1 -4,0 -1,1 -6,0 -1,1 -5,0 -1,1 -5,0 -1,1 -4,0 -1,1 -5,0 -1,1 -5,0 -1,1 -4,0 -1,1 -4,0 -1,1 -4,0 -1,1 -5,0 -1,1 -5,0 -1,1 -5,0 -1,1 -2,0 0,1 1,1 0,5 1,0 1,1 1,0 1,1 0,2 -1,1 -3,0 -1,1 0,1 17,-6 2,0 1,1 1,1 0,2 -1,1 -2,0 -1,-1 -1,-1 0,-2 1,-1 -17,6 27,9 2,0 1,1 1,1 0,2 -1,1 -2,0 -1,-1 -1,-1 0,-2 1,-1 -27,-9Z"/>
<path onmouseover="hoverPath(evt)" onmouseout="recoverPath(evt)" fill="rgb(254,254,254)" d="M  101,29l 16,0 1,-1 10,0 1,1 3,0 1,1 1,0 1,1 2,0 1,1 1,0 1,1 1,0 1,1 1,0 1,1 1,0 1,1 1,0 0,-2 -3,0 -1,-1 -1,0 -1,-1 -1,0 -1,-1 -1,0 -1,-1 -1,0 -1,-1 -1,0 -1,-1 -3,0 -1,-1 -12,0 -1,1 -14,0 -1,1Z"/>
<path onmouseover="hoverPath(evt)" onmouseout="recoverPath(evt)" fill="rgb(244,243,236)" d="M  150,1l 0,2 1,1 0,1 1,1 0,4 1,1 0,3 1,1 0,5 1,1 0,11 1,1 0,25 1,1 0,17 1,1 0,19 1,1 0,19 1,1 0,2 4,0 1,-1 6,0 1,-1 5,0 1,-1 5,0 -1,-1 0,-2 -1,-1 0,-2 -1,-1 0,-2 -1,-1 0,-1 -1,-1 0,-2 -1,-1 0,-1 -1,-1 0,-3 -1,-1 0,-6 -1,-1 0,-3 1,-1 0,-6 1,-1 0,-6 1,-1 0,-6 1,-1 0,-23 -1,-1 0,-15 1,-1 0,-18 1,-1 0,-4 -28,0 -1,1Z"/>
<path onmouseover="hoverPath(evt)" onmouseout="recoverPath(evt)" fill="rgb(171,198,238)" d="M  181,1l 0,4 -1,1 0,18 -1,1 0,13 1,1 0,25 -1,1 0,6 -1,1 0,6 -1,1 0,6 -1,1 0,1 1,1 0,6 1,1 0,3 1,1 0,1 1,1 0,2 1,1 0,1 1,1 0,2 1,1 0,2 1,1 0,2 1,1 0,2 1,0 1,-1 2,0 0,-2 -1,-1 0,-2 -1,-1 0,-4 -1,-1 0,-1 -1,-1 0,-1 -1,-1 0,-2 -1,-1 0,-2 -1,-1 0,-2 -1,-1 0,-9 1,-1 0,-8 1,-1 0,-9 1,-1 0,-45 1,-1 0,-17 -3,0 -1,1Z"/>
<path onmouseover="hoverPath(evt)" onmouseout="recoverPath(evt)" fill="rgb(244,242,235)" d="M  187,1l 0,17 -1,1 0,45 -1,1 0,9 -1,1 0,8 -1,1 0,7 1,1 0,2 1,1 0,2 1,1 0,2 1,1 0,1 1,1 0,1 1,1 0,4 1,1 0,2 1,1 0,1 5,0 1,-1 5,0 1,-1 5,0 1,-1 5,0 1,-1 5,0 1,-1 6,0 0,-4 1,-1 1,-1 2,0 0,-9 -2,0 -1,-1 0,-1 -1,-1 0,-1 -1,-1 0,-1 -1,-1 -1,-1 0,-1 -1,-1 0,-1 -1,-1 0,-4 1,-1 0,-1 -2,0 -1,-1 -1,-1 0,-2 -1,-1 0,-1 -1,-1 0,-4 1,-1 0,-1 -2,0 -1,-1 0,-1 -1,-1 0,-2 -1,-1 0,-2 -1,-1 0,-1 -1,-1 0,-1 -1,-1 0,-4 1,-1 -2,0 -1,-1 0,-1 -1,-1 0,-3 -1,-1 0,-4 -1,-1 0,-9 1,-1 0,-18 1,-1 2,0 1,1 0,19 16,0 1,-1 0,-12 1,-1 0,-10 -40,0 -1,1Z"/>
<path onmouseover="hoverPath(evt)" onmouseout="recoverPath(evt)" fill="rgb(242,240,227)" d="M  234,0l -1,0 0,12 -1,1 0,7 1,1 0,1 1,0 1,-1 2,0 1,-1 2,0 1,-1 2,0 1,-1 2,0 0,-2 1,-1 3,0 1,1 1,0 1,-1 2,0 0,-15Z"/>
<path onmouseover="hoverPath(evt)" onmouseout="recoverPath(evt)" fill="rgb(241,240,230)" d="M  234,29l 0,2 1,1 0,2 1,1 0,2 1,1 0,2 1,1 0,2 1,1 0,1 1,1 0,2 1,1 0,1 1,1 0,2 1,1 1,1 0,1 1,1 0,1 1,1 0,1 1,1 0,1 1,1 0,1 1,1 1,1 0,1 1,1 0,1 1,1 0,2 1,1 0,1 1,1 0,1 1,0 0,-55 -3,0 -1,1 0,2 1,1 0,4 -1,1 -2,0 -1,-1 -1,-1 0,-2 -1,-1 0,-1 -3,0 -1,1 -2,0 -1,1 -1,0 -1,1 -2,0 -1,1Z"/>
<path onmouseover="hoverPath(evt)" onmouseout="recoverPath(evt)" fill="rgb(240,238,226)" d="M  19,210l -3,0 -1,-1 0,-2 1,-1 3,0 1,-1 0,-8 -1,0 -1,-1 -2,0 -1,-1 0,-2 1,-1 4,0 1,-1 7,0 1,1 0,2 -1,1 -3,0 0,1 -1,1 1,1 5,0 1,1 0,2 -1,1 -5,0 0,2 11,0 1,1 0,2 -1,1 -9,0 -1,1 -1,0 0,2 10,0 1,-1 3,0 0,-4 1,-1 0,-10 1,-1 1,-1 3,0 -2,-1 -1,0 -1,-1 0,-5 -2,0 -1,-1 0,-1 -4,0 -1,1 -5,0 -1,1 -5,0 -1,1 -12,0 -1,1 -4,0 -1,1 -3,0 0,63 18,0 1,-1 1,0 0,-2 -17,0 -1,-1 0,-3 1,-1 2,0 1,1 11,0 1,-1 4,0 1,-1 1,0 1,-1 2,0 0,-3 1,-1 2,0 1,-1 -3,0 -1,-1 0,-5 1,-1 1,0 1,-1 -3,0 -1,-1 0,-5 -1,-1 -10,0 -1,-1 0,-2 1,-1 5,0 0,-3 1,-1 0,-4 -2,0 -17,30 0,-2 1,-1 0,-2 1,-1 2,0 1,1 0,2 -1,1 0,2 -1,1 -2,0 -1,-1 17,-30Z"/>
<path onmouseover="hoverPath(evt)" onmouseout="recoverPath(evt)" fill="rgb(253,253,253)" d="M  26,206l -2,0 -1,-1 0,-4 1,-1 0,0 -1,-1 -1,-1 0,-2 1,-1 0,-1 1,-1 -2,0 -1,1 -4,0 3,1 2,0 0,11 -1,1 -1,1 2,0 1,1 0,5 1,1 0,3 1,-4 1,0 1,-1 12,0 1,1 1,0 1,1 0,-4 -1,-1 0,1 -1,1 -3,0 -11,-6 -2,1 1,0 9,-1 1,0 7,11 0,4 -16,-21Z"/>
<path onmouseover="hoverPath(evt)" onmouseout="recoverPath(evt)" fill="rgb(243,242,234)" d="M  173,234l 0,2 1,1 0,4 1,1 0,4 1,1 0,8 58,0 0,-2 -1,-1 0,0 -1,-1 0,-2 -1,-1 0,-1 -1,-1 0,-1 -1,-1 0,-1 -1,-1 0,-1 -1,-1 0,-5 1,-1 -27,0 -1,-1 -10,0 -1,-1 -16,0Z"/>
<path onmouseover="hoverPath(evt)" onmouseout="recoverPath(evt)" fill="rgb(244,243,235)" d="M  195,126l -1,0 1,1 0,2 1,1 0,3 1,1 0,2 1,1 0,2 1,1 0,2 1,1 0,2 1,1 0,1 1,1 1,1 1,-1 1,0 1,-1 1,0 1,-1 1,0 1,-1 1,0 1,-1 1,0 1,-1 1,0 1,-1 1,0 1,-1 1,0 1,-1 2,0 1,-1 1,0 1,-1 4,0 0,-4 1,-1 2,0 1,1 0,3 1,-1 6,0 1,-1 8,0 1,1 5,0 0,-19 -4,0 -1,1 -6,0 -1,-1 -1,1 -1,0 -1,1 -3,0 -1,1 -5,0 -1,1 -1,0 0,3 -1,1 -2,0 -1,-1 0,-2 -7,0 -1,1 -5,0 -1,1 -6,0 -1,1 -5,0 -1,1Z"/>
<path onmouseover="hoverPath(evt)" onmouseout="recoverPath(evt)" fill="rgb(252,252,250)" d="M  249,26l 0,1 1,1 0,-2 -1,-1 0,-4 1,-1 1,-1 4,0 0,-2 -1,0 -1,1 -3,0 -1,-1 -1,0 0,2 -1,1 -2,0 -1,1 -2,0 -1,1 -2,0 -1,1 -2,0 -1,1 -3,0 -1,-1 0,-1 -1,-1 0,-9 -1,0 0,12 -1,1 -1,1 -18,0 -1,-1 0,-19 -1,19 0,7 1,1 0,-5 1,-1 1,0 18,-1 0,0 1,1 0,0 1,1 1,1 0,3 1,1 0,2 1,1 0,3 1,1 0,3 -1,1 2,0 1,1 0,2 1,1 0,3 -1,1 2,0 1,1 0,1 1,1 0,2 -1,1 2,0 1,1 0,1 1,1 1,1 0,1 1,1 0,2 -1,1 1,1 0,1 1,1 0,1 2,0 1,1 0,1 1,1 0,2 1,1 0,2 -1,1 2,0 1,1 0,2 1,1 0,2 1,0 0,-8 -2,0 -1,-1 0,-1 -1,-1 0,-1 -1,-1 0,-2 -1,-1 0,-1 -1,-1 0,-1 -1,-1 -1,-1 0,-1 -1,-1 0,-1 -1,-1 0,-1 -1,-1 0,-1 -1,-1 0,-1 -1,-1 -1,-1 0,-2 -1,-1 0,-1 -1,-1 0,-2 -1,-1 0,-1 -1,-1 0,-2 -1,-1 0,-2 -1,-1 0,-2 -1,-1 0,-2 -1,-1 0,-5 1,-1 1,-1 2,0 1,-1 1,0 1,-1 2,0 1,-1 5,0 1,1 0,1 1,2 -19,-15 1,0 0,-11 -1,0 0,11 19,15Z"/>
<path onmouseover="hoverPath(evt)" onmouseout="recoverPath(evt)" fill="rgb(244,243,235)" d="M  0,15l 0,88 26,0 1,1 0,3 1,1 0,8 1,1 0,8 2,0 1,1 0,8 1,1 0,3 6,0 1,-1 5,0 1,-1 6,0 1,-1 5,0 1,-1 6,0 1,-1 5,0 1,-1 6,0 1,-1 5,0 1,-1 6,0 1,-1 6,0 1,-1 5,0 1,-1 6,0 1,-1 5,0 1,-1 6,0 1,-1 5,0 1,-1 6,0 1,-1 5,0 1,-1 5,0 1,-1 0,-2 -1,-1 0,-2 -6,0 -1,-1 0,-2 1,-1 6,0 0,-15 -1,-1 0,-10 -20,0 0,4 -1,1 -2,0 -1,-1 0,-3 -1,0 -1,-1 -8,0 -1,-1 0,-2 1,-1 31,0 1,-1 2,0 0,-5 -1,-1 0,-16 -1,-1 0,-6 -14,0 -1,1 -5,0 0,11 -1,1 -2,0 -1,-1 0,-7 -1,-1 0,-13 1,-1 2,0 1,1 0,5 1,0 1,1 1,-1 18,0 0,-9 -1,0 -1,-1 -1,0 -1,-1 -1,0 -1,-1 -1,0 -1,-1 -1,0 -1,-1 -2,0 -1,-1 -1,0 -1,-1 -3,0 -1,-1 -8,0 -1,1 -18,0 -1,-1 0,-3 1,-1 15,0 1,-1 14,0 1,1 3,0 1,1 1,0 1,1 1,0 1,1 1,0 1,1 1,0 1,1 1,0 1,1 0,-10 -1,-1 0,-5 -1,-1 0,-4 -1,-1 0,-2 -1,-1 0,-2 -1,-1 0,-2 1,-1 0,-1 -141,0Z"/>
<path onmouseover="hoverPath(evt)" onmouseout="recoverPath(evt)" fill="rgb(243,242,234)" d="M  0,107l 0,36 2,0 1,-1 3,0 1,1 1,-1 5,0 1,-1 6,0 1,-1 5,0 1,-1 2,0 0,-4 1,-1 0,-7 -2,0 -1,-1 0,-8 -1,-1 0,-8 -1,-1 0,-3 -25,0Z"/>
<path onmouseover="hoverPath(evt)" onmouseout="recoverPath(evt)" fill="rgb(246,235,145)" d="M  0,147l 0,5 8,0 1,1 4,0 1,-1 7,0 1,-1 4,0 1,-1 3,0 1,1 4,0 1,-1 0,-2 1,-1 4,0 1,1 0,-1 1,-1 3,0 1,1 1,-1 6,0 1,-1 5,0 1,-1 5,0 1,-1 5,0 1,-1 6,0 1,-1 5,0 1,-1 5,0 1,-1 5,0 1,-1 6,0 1,-1 5,0 1,-1 5,0 1,-1 5,0 1,-1 6,0 1,-1 5,0 1,-1 5,0 1,-1 5,0 1,-1 3,0 1,1 0,12 1,1 0,13 1,0 1,1 0,3 -1,1 -1,0 0,2 1,1 0,10 1,1 0,6 1,1 0,6 1,1 0,4 1,1 0,4 1,1 0,4 1,1 0,4 1,1 0,5 1,1 0,4 1,1 0,4 1,1 0,4 1,0 1,1 0,4 -1,1 -3,0 4,1 0,5 1,1 0,5 1,1 0,6 6,0 0,-7 -1,-1 0,-4 -1,-1 0,-4 -1,-1 0,-6 1,-1 -1,0 -1,-1 0,-2 -1,-1 0,-4 -1,-1 0,-5 1,-1 -1,0 -1,-1 0,-3 -1,-1 0,-4 -1,-1 0,-4 -1,-1 0,-4 -1,-1 0,-4 -1,-1 0,-6 -1,-1 0,-6 -1,-1 0,-12 1,-1 0,-1 -2,0 -1,-1 0,-4 1,-1 0,-15 -1,-1 0,-10 1,-1 1,0 1,-1 6,0 1,1 0,1 1,1 0,15 1,1 0,-2 -1,-15 0,-1 1,-1 1,0 1,-1 4,0 1,-1 6,0 1,-1 2,0 1,-1 2,0 1,-1 2,0 1,1 4,0 1,-1 5,0 1,-1 6,0 1,-1 5,0 1,-1 9,0 1,1 0,-1 1,-1 1,0 1,-1 5,0 1,-1 3,0 1,-1 1,0 1,-1 2,0 1,1 4,0 1,-1 5,0 0,-8 -8,0 -1,1 -5,0 -1,1 -5,0 -1,1 -4,0 -1,-1 0,1 -1,1 -6,0 -1,1 -5,0 -1,1 -5,0 -1,1 -5,0 -1,1 -5,0 -1,1 -6,0 0,1 -1,1 -2,0 -1,1 -3,0 -1,-1 -4,0 -1,1 -5,0 -1,1 -6,0 -1,1 -6,0 -1,-1 0,-2 -1,-1 0,-19 -1,-1 0,-19 -1,-1 0,-17 -1,-1 0,-25 -1,-1 0,-11 -1,-1 0,-5 -1,-1 0,-3 -1,-1 0,-4 -1,-1 0,-1 -1,-1 0,-4 -5,0 0,2 -1,1 1,1 0,2 1,1 0,2 1,1 0,4 1,1 0,5 1,1 0,11 1,0 1,1 0,4 -1,1 0,10 -1,1 -18,0 -1,1 -2,0 -1,-1 -1,0 -1,-1 0,6 1,1 0,-4 1,-1 23,0 0,6 1,1 0,16 1,1 0,7 -1,1 -2,0 -1,1 -31,0 9,1 1,0 1,1 0,-1 21,-1 2,0 1,1 0,10 1,1 0,17 -1,1 -6,0 7,1 0,2 1,1 0,4 -1,1 -1,1 -5,0 -1,1 -5,0 -1,1 -6,0 -1,1 -5,0 -1,1 -6,0 -1,1 -5,0 -1,1 -6,0 -1,1 -5,0 -1,1 -6,0 -1,1 -6,0 -1,1 -5,0 -1,1 -6,0 -1,1 -5,0 -1,1 -6,0 -1,1 -5,0 -1,1 -6,0 -1,1 -5,0 -1,1 -8,0 -1,-1 0,1 -1,1 -2,0 -1,1 -5,0 -1,1 -6,0 -1,1 -5,0 -1,1 -2,0 -1,-1 -1,0 -1,1 -3,0 0,2 229,-40 1,-1 0,-1 -1,1 0,1 -229,40Z"/>
<path onmouseover="hoverPath(evt)" onmouseout="recoverPath(evt)" fill="rgb(252,252,250)" d="M  18,247l 3,0 1,1 0,4 -1,1 -1,0 -1,1 -19,0 0,1 63,0 0,-2 1,-1 9,0 1,-1 7,0 1,-1 7,0 1,-1 6,0 1,-1 5,0 1,-1 3,0 1,-1 3,0 1,-1 3,0 1,1 1,1 0,-1 1,-1 0,0 1,-1 1,0 1,-1 3,0 1,-1 3,0 1,-1 4,0 1,-1 3,0 1,-1 4,0 1,-1 4,0 1,-1 3,0 1,-1 4,0 1,-1 4,0 1,-1 3,0 0,-2 -1,1 -2,0 -1,1 -4,0 -1,1 -4,0 -1,1 -4,0 -1,1 -3,0 -1,1 -4,0 -1,1 -3,0 -1,1 -4,0 -1,1 -4,0 -1,1 -5,0 -1,1 -4,0 -1,-1 0,1 -1,1 -1,1 -2,0 -1,1 -3,0 -1,1 -6,0 -1,1 -5,0 -1,1 -7,0 -1,1 -9,0 -1,1 -8,0 -1,1 -13,0 -1,1 -22,0 -1,-1 0,-5 1,-1 0,-2 -1,1 -1,0 -1,1 -4,0 -1,1 -13,0 -1,-1Z"/>
<path onmouseover="hoverPath(evt)" onmouseout="recoverPath(evt)" fill="rgb(234,235,231)" d="M  30,159l 0,-2 -1,0 -1,-1 -1,-1 0,-1 -1,-1 -3,0 -1,1 -7,0 -1,1 -6,0 -1,-1 -7,0 0,33 2,0 1,-1 4,0 1,-1 12,0 1,-1 5,0 1,-1 5,0 1,-1 6,0 1,1 0,-5 -1,-1 0,-2 -2,0 -1,-1 0,-6 1,-1 0,-2 1,-1 0,-2 1,-1 0,-1 -1,-1 0,-3 -1,0 -1,-1 -2,0 1,1 0,4 -1,1 -2,0 -1,-1 -1,-1Z"/>
<path onmouseover="hoverPath(evt)" onmouseout="recoverPath(evt)" fill="rgb(171,198,238)" d="M  43,178l -1,0 0,3 1,0 1,-1 5,0 1,-1 5,0 1,-1 5,0 1,-1 4,0 1,-1 4,0 1,-1 4,0 1,-1 5,0 1,-1 5,0 1,-1 4,0 1,-1 5,0 1,-1 5,0 1,-1 6,0 1,-1 4,0 1,-1 4,0 1,-1 4,0 1,-1 3,0 1,-1 4,0 1,-1 4,0 1,-1 4,0 1,-1 4,0 1,-1 1,0 0,-1 -5,0 -1,1 -5,0 -1,1 -5,0 -1,1 -5,0 -1,1 -4,0 -1,1 -5,0 -1,1 -5,0 -1,1 -6,0 -1,1 -5,0 -1,1 -5,0 -1,1 -4,0 -1,1 -4,0 -1,1 -4,0 -1,1 -4,0 -1,1 -4,0 -1,1 -4,0 -1,1 -5,0 -1,1 -4,0 -1,1 -5,0 -1,1Z"/>
<path onmouseover="hoverPath(evt)" onmouseout="recoverPath(evt)" fill="rgb(240,239,227)" d="M  140,255l 26,0 0,-5 -1,-1 0,-5 -1,-1 0,-5 -3,0 -1,-1 -3,0 -1,1 -4,0 -1,1 -3,0 -1,1 -4,0 -1,1 -4,0 -1,1 -3,0 -1,1 -4,0 -1,1 -3,0 -1,1 -3,0 -1,1 -1,0 -1,1 0,2 -1,1 -2,0 -1,-1 0,-1 -1,-1 -1,0 -1,1 -3,0 -1,1 -3,0 -1,1 -5,0 -1,1 -6,0 -1,1 -7,0 -1,1 -7,0 -1,1 -9,0 0,1Z"/>
<path onmouseover="hoverPath(evt)" onmouseout="recoverPath(evt)" fill="rgb(241,241,235)" d="M  161,131l -1,0 0,8 1,1 0,17 -1,1 0,2 2,0 1,1 0,1 4,0 1,-1 4,0 1,-1 4,0 1,-1 4,0 1,-1 5,0 1,-1 5,0 1,-1 -5,0 -2,1 -5,0 -1,-1 0,-2 1,-1 3,0 1,-1 4,0 1,-1 1,-1 0,-2 -1,-1 0,-2 -1,-1 0,-2 -1,-1 0,-2 -1,-1 0,-2 -1,-1 0,-3 -1,-1 0,-2 -1,-1 0,-1 -1,0 -1,1 -6,0 -1,1 -4,0 -1,1 -1,0 0,13 1,1 0,5 -1,1 -2,0 -1,-1 0,-1 -1,-1 0,-15 -1,-1 0,-1 -4,0 -1,1Z"/>
<path onmouseover="hoverPath(evt)" onmouseout="recoverPath(evt)" fill="rgb(244,243,235)" d="M  170,219l 0,1 1,1 0,4 1,1 0,2 18,0 1,1 0,2 10,0 1,1 27,0 1,1 0,2 -1,1 0,3 1,1 0,1 1,1 0,1 1,1 0,1 1,1 0,1 1,1 0,2 1,1 1,1 0,3 19,0 0,-50 -2,0 -1,-1 -1,0 -1,-1 -1,0 -1,-1 -1,0 -1,-1 -1,-1 -1,0 -1,-1 -1,0 -1,-1 -1,-1 -1,0 -1,-1 -1,0 -1,-1 -1,0 -1,-1 -1,-1 -2,0 -1,-1 -1,0 -1,-1 -1,0 -1,-1 -1,0 -1,-1 -1,0 -1,-1 -1,-1 -1,0 -1,-1 -1,0 -1,-1 -1,-1 -1,0 -1,-1 -1,-1 -1,0 -1,-1 -1,-1 -1,0 -1,-1 -1,-1 0,-1 -1,-1 -1,-1 0,-1 -1,-1 -1,-1 0,-1 -1,-1 0,-1 -1,-1 0,-1 -1,-1 0,-1 -1,-1 0,-1 -1,-1 0,-1 -1,0 -1,-1 0,-2 -1,1 -5,0 -1,1 -5,0 -1,1 -4,0 -1,1 -4,0 -1,1 -4,0 -1,1 -5,0 -1,1 0,10 1,1 0,6 1,1 0,6 1,1 0,4 1,1 0,4 1,1 0,4 1,1 0,4 1,1 0,3 1,0 1,1 0,2 -1,1Z"/>
<path onmouseover="hoverPath(evt)" onmouseout="recoverPath(evt)" fill="rgb(172,198,237)" d="M  188,127l 0,0 1,1 0,2 1,1 0,3 1,1 0,2 1,1 0,2 1,1 0,2 1,1 0,2 1,1 0,4 -1,1 -2,2 5,0 1,1 0,4 1,0 1,1 0,1 1,1 0,1 1,1 0,1 1,1 0,1 1,1 0,1 1,1 0,1 1,1 1,1 0,1 1,1 1,1 0,1 1,1 1,0 1,1 1,1 1,0 1,1 1,1 1,0 1,1 1,1 1,0 1,1 1,0 1,1 1,1 1,0 1,1 1,0 1,1 1,0 1,1 1,0 1,1 2,0 1,1 1,1 1,0 1,1 1,0 1,1 1,0 1,1 1,1 1,0 1,1 1,0 1,1 1,1 1,0 1,1 1,0 1,1 1,0 1,1 1,0 0,-5 -3,0 -1,-1 -1,-1 -1,0 -1,-1 -1,0 -1,-1 -1,0 -1,-1 -1,0 -1,-1 -1,-1 -1,0 -1,-1 -1,0 -1,-1 -1,-1 -1,0 -1,-1 -1,0 -1,-1 -1,-1 -1,0 -1,-1 -1,0 -1,-1 -1,-1 -1,0 -1,-1 -1,0 -1,-1 -1,0 -1,-1 -1,-1 -1,0 -1,-1 -1,-1 -1,0 -1,-1 -1,-1 -1,-1 -1,-1 -1,-1 -1,-1 -1,-1 -1,-1 0,-1 -1,-1 0,-1 -1,-1 0,-1 -1,-1 0,-1 -1,-1 0,-5 1,-1 1,-1 1,-1 1,-1 1,-1 3,0 0,-1 1,-1 3,0 1,-1 2,0 1,-1 2,0 1,-1 2,0 1,-1 2,0 1,-1 2,0 0,-2 -1,-1 -3,0 -1,1 -1,0 -1,1 -2,0 -1,1 -1,0 -1,1 -1,0 -1,1 -1,0 -1,1 -1,0 -1,1 -1,0 -1,1 -1,0 -1,1 -1,0 -1,1 -1,0 -1,1 -2,0 -1,-1 -1,-1 -1,-1 0,-1 -1,-1 0,-2 -1,-1 0,-2 -1,-1 0,-2 -1,-1 0,-2 -1,-1 0,-3 -1,-1 0,-2 -1,-1 0,-1 -1,-1 -1,1 -1,0 -1,1 1,27 -1,0 -1,1Z"/>
<path onmouseover="hoverPath(evt)" onmouseout="recoverPath(evt)" fill="rgb(244,242,234)" d="M  206,155l 0,0 -1,1 0,3 1,1 0,1 1,1 0,1 1,1 0,1 1,1 0,1 1,1 1,1 1,1 1,1 1,1 1,1 1,1 1,0 1,1 1,1 1,0 1,1 1,1 1,0 1,1 1,0 1,1 1,0 1,1 1,1 1,0 1,1 1,0 1,1 1,1 1,0 1,1 1,0 1,1 1,1 1,0 1,1 1,0 1,1 1,1 1,0 1,1 1,0 1,1 1,0 1,1 1,0 1,1 1,1 2,0 0,-52 -16,0 -1,1 -1,0 0,5 -1,1 -2,0 -1,-1 0,-1 -1,-1 -4,0 -1,1 -1,0 -1,1 -2,0 -1,1 -2,0 -1,1 -2,0 -1,1 -1,0 -1,1 -4,0 -1,-1 -1,0 -1,1 -1,1 34,4 1,0 1,1 0,1 1,1 0,1 1,1 0,1 1,1 0,2 -1,1 2,0 1,1 0,2 -1,1 -2,0 -1,-1 0,-3 -1,0 -1,-1 0,-1 -1,-1 0,-1 -1,-1 0,-1 -1,-1 0,-2 1,-1 1,0 -34,-4Z"/>
<path onmouseover="hoverPath(evt)" onmouseout="recoverPath(evt)" fill="rgb(243,242,233)" d="M  210,31l 0,7 -1,1 0,2 1,1 0,1 2,0 1,1 0,2 -1,1 0,2 1,1 0,1 1,1 0,1 1,1 0,2 1,1 0,2 1,1 0,1 2,0 1,1 0,3 -1,1 0,2 1,1 0,1 1,1 0,2 1,1 2,0 1,1 0,3 -1,1 0,2 1,1 0,1 1,1 0,1 1,1 1,1 0,1 1,1 0,1 1,1 0,1 2,0 1,1 0,11 -1,1 0,2 -1,1 2,0 1,-1 5,0 1,-1 5,0 1,-1 9,0 0,-17 -2,0 -1,-1 0,-2 -1,-1 0,-2 -2,0 -1,-1 0,-2 1,-1 -1,-1 0,-2 -1,-1 0,-1 -2,0 -1,-1 0,-1 -1,-1 0,-1 -1,-1 0,-2 1,-1 -1,-1 0,-1 -1,-1 -1,-1 0,-1 -2,0 -1,-1 0,-2 1,-1 -1,-1 0,-1 -2,0 -1,-1 0,-2 1,-1 0,-1 -1,-1 0,-2 -2,0 -1,-1 0,-2 1,-1 0,-1 -1,-1 0,-3 -1,-1 0,-2 -1,-1 0,-3 -1,-1 -1,-1 -15,0 -1,1 -1,0Z"/>
<path onmouseover="hoverPath(evt)" onmouseout="recoverPath(evt)" fill="rgb(226,234,245)" d="M  236,143l 1,0 1,-1 17,0 0,-4 -6,0 -1,-1 -6,0 -1,1 -6,0 -1,1 -2,0 -1,-1 0,1 1,1 0,4 -1,1 -2,0 -1,1 -2,0 -1,1 -2,0 -1,1 -2,0 -1,1 -2,0 -1,1 -3,0 0,1 -1,1 1,0 1,-1 1,0 2,-1 1,0 2,-1 1,0 2,-1 1,0 2,-1 3,-1 4,0 1,1 1,1 0,-4 1,-1Z"/>
</svg>