<svg width="256" height="256" xmlns="http://www.w3.org/2000/svg"><script> 
var tempColor;
function hoverPath(evt){
obj = evt.target;
tempColor = obj.getAttribute("fill");
obj.setAttribute("fill","red");
//alert(tempColor);
//obj.setAttribute("stroke","red");}
function recoverPath(evt){
obj = evt.target;
obj.setAttribute("fill", tempColor);
//obj.setAttribute("stroke", tempColor);
}</script><path onmouseover="hoverPath(evt)" onmouseout="recoverPath(evt)" fill="rgb(242,240,230)" d="M  115,144l 0,0 -1,1 0,3 1,1 0,3 -1,1 -1,1 -1,1 -1,0 0,3 1,0 1,1 2,0 1,1 0,2 -1,1 -4,0 -1,-1 -1,0 -1,1 0,1 -1,1 0,1 -1,1 0,1 -1,1 1,1 0,2 -1,1 -4,0 0,3 1,1 0,2 1,1 2,0 1,1 3,0 1,1 2,0 1,1 3,0 1,1 2,0 1,1 3,0 1,1 3,0 1,1 3,0 1,1 4,0 1,1 1,0 1,1 0,1 2,0 1,1 4,0 1,1 2,0 1,-1 1,0 1,-1 1,-1 0,-1 1,-1 0,-1 1,-1 0,-1 -1,0 -1,-1 -1,-1 0,-2 1,-1 1,-1 2,0 1,-1 2,0 0,-1 1,-1 -2,0 -1,1 -2,0 -1,-1 0,-2 1,-1 0,-1 1,-1 0,-1 1,-1 2,0 -1,-1 0,-2 1,-1 0,-1 1,-1 0,-1 1,-1 1,-1 0,-1 1,-1 0,-1 1,-1 1,-1 2,0 1,-1 -1,-1 0,-2 1,-1 0,-1 1,-1 -1,-1 -14,0 -1,-1 -7,0 -1,-1 -14,0 -1,-1 -3,0 -1,-1 -4,0 -1,-1 -2,0 -1,-1 -2,0 0,1 -1,1 0,1 -6,29 1,-1 2,0 1,1 0,2 -1,1 -2,0 -1,-1 0,-2 6,-29Z"/>
<path onmouseover="hoverPath(evt)" onmouseout="recoverPath(evt)" fill="rgb(244,243,236)" d="M  0,1l 0,55 3,0 1,1 1,-1 3,0 1,1 2,0 1,1 0,2 1,-1 1,0 0,-1 1,-1 0,-1 1,-1 0,-2 1,-1 0,-1 1,-1 0,-2 1,-1 0,-1 1,-1 0,-3 1,-1 0,-1 1,-1 0,-3 1,-1 0,-4 1,-1 0,-2 1,-1 0,-3 1,-1 0,-2 1,-1 0,-1 1,-1 0,-2 1,-1 0,-1 1,-1 0,-1 1,-1 0,-1 1,-1 0,-1 1,-1 1,0 0,-2 1,-1 1,-1 0,-1 1,-1 0,-1 -36,0 -1,1Z"/>
<path onmouseover="hoverPath(evt)" onmouseout="recoverPath(evt)" fill="rgb(242,241,232)" d="M  38,41l -1,1 -1,0 0,1 -1,1 0,1 -1,1 0,1 -1,1 0,2 -1,1 0,1 -1,1 0,1 -1,1 0,2 -1,1 0,1 -1,1 0,2 -1,1 0,1 1,0 1,1 3,0 1,1 1,0 1,1 3,0 1,1 1,0 1,1 2,0 1,1 2,0 1,1 2,0 1,1 2,0 1,1 5,0 1,1 1,0 1,1 0,-1 1,-1 0,-2 -1,-1 0,-1 -1,-1 0,-1 -1,-1 0,-5 1,-1 3,0 0,-3 1,-1 5,0 0,-4 1,-1 5,0 0,-1 -1,-1 0,-2 -1,-1 0,-1 -7,0 -1,-1 -1,-1 -1,-1 -1,-1 0,-1 -1,-1 -1,-1 -1,-1 0,-1 -1,-1 -1,-1 -1,-1 0,-2 1,-1 0,-1 1,-1 1,0 1,-1 1,0 1,-1 2,0 1,-1 3,0 1,-1 3,0 1,-1 2,0 1,1 4,0 1,1 0,2 -1,1 0,4 -1,1 0,4 4,0 1,1 0,3 1,1 1,0 1,1 0,1 1,1 0,1 5,0 0,-1 1,-1 2,0 0,-1 1,-1 1,-1 1,0 0,-1 1,-1 13,0 -10,-1 0,-1 -1,0 -1,-1 -6,0 -1,-1 -1,-1 -1,-1 0,-8 -4,0 -1,-1 -2,0 -1,-1 -2,0 -1,-1 0,-1 -1,-1 -1,-1 0,-3 1,-1 0,-1 1,-1 1,0 1,-1 5,0 1,1 1,1 1,1 1,1 1,0 1,1 1,0 1,1 2,0 1,1 1,-1 1,0 0,-1 1,-1 3,0 0,-1 -3,0 -1,-1 -1,-1 -1,0 -1,-1 -1,0 -1,-1 -1,0 -1,-1 -1,-1 -1,0 -1,-1 -1,1 -2,0 -1,-1 0,-2 -1,-1 -1,0 -1,-1 -1,0 -1,-1 -1,0 -1,-1 0,-2 -16,0 0,2 -1,1 0,1 -1,1 -1,1 0,1 -1,1 0,1 -1,1 -1,0 0,1 -1,1 -1,1 -1,1 0,1 -1,1 0,1 -1,1 -1,1 0,1 -1,1 -1,1 0,1 -1,1 0,1 -1,1 0,1 -1,1 -1,1 0,1 -1,1 0,1 -1,1 -1,1 0,1 -1,1 -1,1 0,1 -3,3Z"/>
<path onmouseover="hoverPath(evt)" onmouseout="recoverPath(evt)" fill="rgb(249,239,139)" d="M  41,0l -2,0 0,2 -1,1 0,1 -1,1 -1,1 0,2 -1,1 -1,0 0,1 -1,1 0,1 -1,1 0,1 -1,1 0,1 -1,1 0,2 -1,1 0,1 -1,1 0,2 -1,1 0,3 -1,1 0,2 -1,1 0,4 -1,1 0,3 -1,1 0,1 -1,1 0,3 -1,1 0,1 -1,1 0,2 -1,1 0,1 -1,1 0,2 -1,1 0,1 -1,1 1,1 0,2 -1,1 0,2 -1,1 0,1 -1,1 -2,0 0,3 -1,1 0,2 -1,1 0,1 -1,1 0,2 -1,1 0,1 -1,1 0,1 -1,1 0,2 -1,1 0,2 -1,1 0,1 -1,1 -3,0 0,32 1,0 0,-2 1,-1 0,-1 1,-1 0,-1 1,-1 0,-1 -1,0 -1,-1 0,-2 1,-1 0,-1 1,-1 1,-1 0,-2 1,-1 2,0 0,-2 1,-1 0,-1 1,-1 0,-2 1,-1 0,-1 1,-1 0,-2 1,-1 0,-2 1,-1 0,-1 1,-1 0,-2 1,-1 0,-1 1,-1 0,-1 1,-1 0,-2 1,-1 0,-1 1,-1 0,-1 1,-1 0,-1 -1,-1 0,-2 1,-1 0,-1 1,-1 0,-2 1,-1 2,0 0,-2 1,-1 0,-2 1,-1 0,-1 1,-1 0,-2 1,-1 0,-1 1,-1 0,-1 1,-1 0,-2 1,-1 0,-1 1,-1 0,-1 1,-1 0,-1 1,-1 1,0 2,-2 1,-1 0,-1 1,-1 1,-1 0,-1 1,-1 1,-1 0,-1 1,-1 0,-1 1,-1 1,-1 0,-1 1,-1 0,-1 1,-1 0,-1 1,-1 1,-1 0,-1 1,-1 1,-1 0,-1 1,-1 0,-1 1,-1 1,-1 1,-1 0,-1 1,-1 1,0 0,-1 1,-1 0,-1 2,-2 0,-1 1,-1 0,-1Z"/>
<path onmouseover="hoverPath(evt)" onmouseout="recoverPath(evt)" fill="rgb(252,252,250)" d="M  102,121l 0,0 -1,1 -1,1 0,3 6,0 1,1 2,0 1,1 0,5 1,0 0,-1 1,-1 0,-2 1,-1 1,-1 5,0 1,1 0,-1 1,1 1,0 -7,-2 0,-5 -1,0 0,1 -1,1 -2,0 0,1 -1,1 -3,0 -1,-1 -2,0 -1,-1 0,-1 -1,-1 13,-1 1,0 0,-1 1,-1 0,-2 1,-1 0,-1 1,-1 3,0 1,-1 3,0 0,-1 -1,0 -1,-1 -2,0 -1,-1 -3,0 -1,-1 -3,0 -1,-1 -2,0 -1,-1 -3,0 -1,-1 -2,0 -1,-1 -2,0 -1,-1 -3,0 -1,-1 -2,0 -1,-1 -2,0 -1,-1 -3,0 -1,-1 -2,0 -1,-1 -2,0 -1,-1 -2,0 -1,-1 -1,0 -1,-1 0,-4 1,-1 1,-1 0,-2 1,-1 0,-1 1,-1 0,-2 1,-1 0,-1 1,-1 0,-1 1,-1 1,-1 1,-1 1,0 0,-1 1,-1 1,-1 2,0 1,-1 1,0 1,-1 1,0 1,-1 1,0 1,-1 1,0 1,-1 1,0 1,-1 4,0 1,-1 2,0 1,-1 3,0 1,-1 3,0 0,-1 -3,0 -1,1 -3,0 -1,1 -3,0 -1,1 -3,0 -1,1 -2,0 -1,1 -1,0 -1,1 -1,0 -1,1 -1,0 -1,1 -1,0 -1,1 -1,0 -1,1 -1,0 -1,1 -1,1 -1,1 -1,1 0,1 1,-1 1,-1 2,-2 4,-2 2,-1 2,-1 2,-1 2,-1 7,-2 -24,14 -1,0 0,1 -1,1 0,1 -1,1 -1,1 0,2 -1,1 0,1 -1,1 0,3 -1,1 -1,1 -5,0 0,1 2,0 1,1 1,1 0,2 -1,1 0,2 -1,1 0,1 -1,1 0,2 -1,1 0,1 -1,1 0,2 -1,1 0,1 -1,1 0,2 -1,1 0,2 -1,1 -2,0 1,1 0,3 -1,1 -2,0 1,1 0,3 -1,1 -2,0 1,1 0,3 -1,1 -2,0 1,1 0,3 -1,1 -2,0 1,1 0,3 -1,1 -2,0 1,1 0,3 -1,1 0,1 -1,1 0,2 -1,1 0,1 -1,1 0,2 -1,1 0,2 -1,1 0,1 1,0 0,-1 1,-1 0,-1 1,-1 0,-2 1,-1 0,-1 1,-1 0,-2 1,-1 0,-1 1,-1 0,-2 1,-1 0,-1 1,-1 0,-2 1,-1 0,-1 1,-1 0,-2 1,-1 0,-2 1,-1 0,-1 1,-1 0,-2 1,-1 0,-1 1,-1 0,-2 1,-1 0,-1 1,-1 0,-2 1,-1 0,-1 1,-1 0,-2 1,-1 0,-1 1,-1 0,-2 1,-1 0,-1 1,-1 0,-2 1,-1 0,-1 1,-1 0,-2 1,-1 0,-1 1,-1 6,0 1,1 3,0 1,1 2,0 1,1 2,0 1,1 3,0 1,1 2,0 1,1 2,0 1,1 3,0 1,1 2,0 1,1 2,0 1,1 2,0 1,1 3,0 1,1 0,5 -1,1 0,1 -1,1 0,2 -13,1 -36,-27 0,-1 -2,0 -1,-1 -2,0 -1,-1 -1,0 0,1 1,1 3,0 1,1 2,0 36,27 25,-9 0,1 2,0 1,1 3,0 1,1 2,0 1,1 2,0 1,1 3,0 1,1 2,0 1,1 2,0 1,1 3,0 1,1 2,0 1,1 2,0 1,1 2,0 1,1 3,0 1,1 2,0 1,1 2,0 1,1 3,0 1,1 2,0 1,1 3,0 1,1 2,0 1,1 0,2 1,-1 1,0 1,-1 1,0 -2,-1 -2,0 -1,-1 -2,0 -1,-1 -3,0 -1,-1 -2,0 -1,-1 -2,0 -1,-1 -2,0 -1,-1 -3,0 -1,-1 -2,0 -1,-1 -2,0 -1,-1 -3,0 -1,-1 -2,0 -1,-1 -2,0 -1,-1 -3,0 -1,-1 -2,0 -1,-1 -2,0 -1,-1 -3,0 -1,-1 -2,0 -1,-1 -2,0 -1,-1 -3,0 -25,9 8,13 -1,0 0,1 -1,1 0,2 -1,1 0,2 -1,1 0,2 -1,1 0,1 -1,1 0,2 -1,1 0,2 -1,1 0,1 -1,1 0,2 -1,1 0,1 -1,1 0,2 -1,1 0,2 -1,1 0,1 -1,1 0,2 -1,1 0,1 -1,1 0,2 -1,1 0,2 -1,1 2,0 0,-2 1,-1 0,-3 1,-1 2,0 1,1 0,4 1,1 -1,-6 1,-1 4,0 -1,-1 0,-2 1,-1 0,-1 1,-1 0,-1 1,-1 0,-1 1,-1 1,-1 3,0 1,1 2,0 -5,-2 0,-5 1,-1 1,0 1,-1 1,-1 0,-1 -1,-1 0,-5 1,-1 0,-1 1,-1 0,-1 -2,0 -1,-1 -1,-1 0,-4 -8,-13 -2,6 -1,0 0,4 1,-3 0,-1 2,-6 0,-2 1,0 0,-1 1,-1 1,-1 1,-1 0,-1 1,-1 -2,1 0,1 -1,1 -1,1 -1,2Z"/>
<path onmouseover="hoverPath(evt)" onmouseout="recoverPath(evt)" fill="rgb(241,240,229)" d="M  127,103l 0,-2 -1,0 -1,1 -5,0 -1,-1 -3,0 -1,-1 -2,0 -1,-1 -3,0 -1,-1 -4,0 -1,-1 -4,0 -1,-1 -3,0 -1,-1 -4,0 -1,-1 -3,0 -1,-1 -2,0 -1,-1 -3,0 -1,-1 -1,1 0,2 1,0 1,1 2,0 1,1 2,0 1,1 2,0 1,1 3,0 1,1 2,0 1,1 2,0 1,1 3,0 1,1 2,0 1,1 2,0 1,1 3,0 1,1 2,0 1,1 3,0 1,1 3,0 1,1 2,0 1,1 1,0 1,1 3,0 1,1 2,0 1,1 2,0 1,1 3,0 1,1 2,0 1,1 2,0 1,1 3,0 1,1 2,0 1,1 2,0 1,1 3,0 1,1 2,0 1,1 2,0 1,1 3,0 1,1 2,0 1,1 2,0 1,1 2,0 1,1 3,0 1,1 2,0 1,1 1,0 1,-1 2,0 1,-1 1,-1 1,-1 2,0 1,-1 1,-1 -1,0 -1,-1 -1,0 -1,-1 -3,0 -1,-1 -3,0 -1,-1 -3,0 -1,-1 -4,0 -1,-1 -3,0 -1,-1 -3,0 -1,-1 -3,0 -1,-1 -3,0 -1,-1 -3,0 -1,-1 -3,0 -1,-1 -3,0 -1,-1 -3,0 -1,-1 -3,0 -1,-1 -3,0 -1,-1 -3,0 -1,-1 -3,0 -1,-1 -2,0 -1,-1Z"/>
<path onmouseover="hoverPath(evt)" onmouseout="recoverPath(evt)" fill="rgb(243,242,234)" d="M  192,0l -4,0 0,1 1,0 1,1 1,0 1,1 1,0 1,1 1,1 1,0 1,1 1,0 1,1 1,1 1,0 1,1 1,0 1,1 1,0 1,1 1,0 1,1 1,0 1,1 1,1 1,0 1,1 1,0 1,1 1,1 1,0 1,1 1,0 1,1 2,0 1,1 0,1 1,0 1,1 1,0 1,1 1,0 1,1 1,0 1,1 2,0 1,-1 0,0 1,-1 1,-1 0,-1 2,-2 1,-1 1,-1 0,-1 1,-1 1,-1 1,-1 1,-1 2,0 1,1 1,0 1,1 0,-2 1,-1 1,0 0,-1 1,-1 3,0 0,-9Z"/>
<path onmouseover="hoverPath(evt)" onmouseout="recoverPath(evt)" fill="rgb(174,199,233)" d="M  46,73l 0,0 -1,-1 -2,0 -1,-1 -2,0 -1,-1 -1,0 -1,-1 -3,0 -1,-1 -1,0 -1,-1 -3,0 -1,-1 -3,0 0,2 -1,1 0,1 -1,1 2,-1 1,0 1,1 1,0 1,1 2,0 1,1 2,0 1,1 2,0 1,1 2,0 1,1 1,1 2,0 1,1 0,1 4,0 1,1 4,0 1,1 2,0 1,1 1,0 1,1 3,0 1,1 1,0 1,1 2,0 1,1 1,0 1,1 3,0 0,-1 1,-1 0,-2 1,-1 1,-1 -4,0 -1,-1 -1,-1 -4,0 -1,-1 -1,0 -1,-1 0,-2 -1,2 -2,0 -1,-1 -1,0 -1,-1 -5,0 -1,-1 -2,0 -1,-1Z"/>
<path onmouseover="hoverPath(evt)" onmouseout="recoverPath(evt)" fill="rgb(244,242,235)" d="M  224,66l 0,0 -1,1 -1,1 -1,0 0,2 -1,1 -1,1 -1,1 -1,1 0,1 -1,1 -1,1 -1,1 -1,0 0,1 1,1 1,1 1,0 1,1 1,0 1,1 1,1 1,0 1,1 1,0 1,1 1,1 0,1 2,0 1,1 1,1 1,-1 2,0 0,-1 1,-1 1,-1 1,-1 1,-1 1,0 1,-1 1,-1 1,0 1,-1 1,-1 1,0 1,-1 3,0 -1,-1 0,0 -1,-1 -1,-1 0,-2 -1,-1 -1,1 -2,0 -1,-1 -1,-1 -1,0 -1,-1 -1,-1 -1,0 -1,-1 -1,-1 -1,0 -1,-1 -1,-1 -1,0 -1,-1 -1,0 -1,-1 0,1 -1,1Z"/>
<path onmouseover="hoverPath(evt)" onmouseout="recoverPath(evt)" fill="rgb(242,241,231)" d="M  80,219l 0,1 -1,1 0,2 -1,1 0,1 -1,1 0,2 -1,1 0,1 -1,1 0,2 -1,1 0,2 -1,1 0,1 -1,1 0,2 -1,1 0,1 -1,1 0,2 -1,1 0,1 -1,1 0,2 -1,1 1,0 1,1 0,2 16,0 0,-2 1,-1 2,0 0,-1 1,-1 1,0 1,-1 1,0 1,-1 1,-1 2,0 1,1 0,3 4,0 1,-1 22,0 1,-1 2,-2 1,0 1,-1 0,-2 -2,0 -1,-1 -1,-1 0,-2 -2,0 -1,-1 0,-2 -7,0 -1,-1 -5,0 -1,-1 -1,0 -1,-1 0,-3 1,-1 0,-1 1,-1 1,-1 7,0 1,1 2,0 1,-1 0,0 1,-1 0,-1 -1,-1 0,-3 -1,-1 0,-1 -1,-1 0,-1 -1,-1 -4,0 -1,-1 0,-1 -2,0 0,1 -1,1 -2,0 -1,1 -2,0 -1,-1 0,-2 1,-1 2,0 0,-3 -1,-1 0,-1 -1,-1 0,-13 -2,0 -1,-1 -2,0 -1,-1 -3,0 -1,-1 -3,0 0,1 -1,1 0,1 -1,1 0,2 -1,1 0,2 -1,1 0,1 -1,1 0,2 -1,1 0,1 -1,1 0,1 -1,1 0,2 1,1 3,0 1,1 0,2 -1,1 -6,0 -1,1Z"/>
<path onmouseover="hoverPath(evt)" onmouseout="recoverPath(evt)" fill="rgb(235,235,201)" d="M  127,43l 0,1 -1,1 0,6 1,1 0,3 1,1 1,1 0,3 1,1 0,1 1,1 0,1 1,0 1,1 0,1 1,1 1,0 1,1 0,1 1,1 0,1 2,0 1,1 0,2 2,0 1,1 0,1 1,0 1,1 1,0 1,1 2,0 1,1 1,0 1,1 1,0 1,1 0,1 1,0 1,1 3,0 1,1 1,1 14,0 1,-1 3,0 1,-1 3,0 1,-1 3,0 1,-1 4,0 1,-1 3,0 1,-1 -1,0 -1,-1 0,-2 1,-1 1,-1 2,0 1,-1 1,0 1,-1 2,0 0,-1 1,-1 1,0 1,-1 2,-2 0,-2 1,-1 1,0 1,-1 0,-4 1,-1 0,-1 -1,0 -1,-1 0,-1 -2,0 -1,-1 -1,0 -1,-1 0,-1 -2,0 -1,-1 -2,0 0,1 -1,1 -1,0 0,1 -1,1 -1,1 0,1 -1,1 -1,0 -1,1 0,1 -1,1 0,3 -1,1 -2,0 -1,-1 -1,-1 -1,0 -1,-1 -1,0 -1,-1 0,-1 -1,0 -1,1 -2,0 -1,-1 0,-3 -1,-1 -2,0 -1,-1 -1,0 -2,-2 -1,-1 0,-2 -1,1 -3,0 -1,-1 -1,0 -1,-1 0,-1 -1,0 -1,-1 -2,0 -2,-2 -1,0 -1,-1 0,2 -1,1 -2,0 -1,-1 0,-2 -1,-1 -1,-1 0,-1 -2,0 -1,-1 0,-1 -1,-1 0,-3 1,-1 0,-1 1,-1 1,-1 1,0 0,-1 1,-1 1,-1 1,-1 0,-2 1,-1 1,-1 -1,0 -1,-1 -1,0 -1,-1 -1,0 -1,-1 -1,0 -2,-2 -1,0 -1,-1 -1,0 -1,-1 -1,0 -1,-1 -1,0 -1,1 0,0 -1,1 0,1 -2,2 1,1 0,2 -1,1 -1,1 0,1 -1,1 0,1 -1,1 -2,0 -1,1 0,1 -1,1 0,1 -1,1 0,2 -1,1 0,1 -1,1 1,0 1,1Z"/>
<path onmouseover="hoverPath(evt)" onmouseout="recoverPath(evt)" fill="rgb(244,243,236)" d="M  162,99l -1,0 0,4 2,0 1,1 1,0 1,-1 2,0 1,1 0,1 1,1 5,0 1,1 4,0 1,1 1,1 4,0 1,1 4,0 1,1 2,0 1,1 3,0 1,1 3,0 1,1 1,0 1,-1 0,0 1,-1 1,-1 0,-1 1,-1 1,0 1,-1 1,-1 1,-1 1,-1 1,0 0,-1 1,-1 1,-1 1,-1 1,-1 1,-1 1,-1 1,-1 1,0 -1,-1 -1,0 -1,-1 -1,-1 0,-1 -2,0 -1,-1 -1,0 -1,-1 -1,-1 -1,0 -1,-1 -1,0 -1,-1 -1,0 -1,-1 -1,0 -1,1 0,0 -1,1 -1,0 -1,1 -1,1 -1,1 -1,0 -1,1 -1,0 -1,1 -2,0 -1,1 -1,0 -1,1 -3,0 -1,1 -3,0 -1,1 -3,0 -1,1Z"/>
<path onmouseover="hoverPath(evt)" onmouseout="recoverPath(evt)" fill="rgb(182,207,177)" d="M  233,203l -1,1 0,1 -2,2 0,1 -2,2 0,1 -2,2 -1,1 -1,1 -3,0 0,1 1,0 1,1 2,0 1,1 3,0 1,1 2,0 1,1 2,0 1,1 3,0 1,1 2,0 1,1 2,0 1,1 3,0 1,1 2,0 1,1 2,0 0,-23 -3,0 -1,-1 -1,0 -1,-1 -2,0 -1,-1 -3,0 -1,-1 -7,0 0,1 -1,1 0,1 -1,1Z"/>
<path onmouseover="hoverPath(evt)" onmouseout="recoverPath(evt)" fill="rgb(242,241,232)" d="M  1,164l -1,0 0,55 6,0 1,1 4,0 -3,-1 0,0 -1,-1 0,-2 1,-1 6,0 0,-1 -1,-1 0,-3 1,-1 0,-2 1,-1 0,-2 1,-1 1,-1 4,0 1,1 2,0 1,1 2,0 0,-1 1,-1 0,-1 -2,0 -1,-1 0,-2 1,-1 3,0 1,-1 -1,-1 0,-2 1,-1 2,0 0,-2 1,-1 0,-2 1,-1 0,-1 1,-1 0,-2 1,-1 0,-1 1,-1 0,-2 1,-1 -1,-1 0,-1 -3,0 -1,-1 -2,0 -1,-1 -1,0 0,2 -1,1 -4,0 -1,-1 -3,0 -1,-1 -2,0 -1,-1 -3,0 -1,-1 0,-2 1,-1 -1,0 -1,-1 -1,0 -1,-1 -2,0 -1,-1 -2,0 -1,-1Z"/>
<path onmouseover="hoverPath(evt)" onmouseout="recoverPath(evt)" fill="rgb(234,234,203)" d="M  87,76l -1,1 -1,0 -1,1 -1,1 1,1 0,3 1,0 1,1 4,0 1,1 1,1 7,0 0,-2 -1,0 -1,-1 0,-2 1,-1 4,0 1,1 3,0 1,1 3,0 1,1 7,0 0,-1 1,-1 0,-1 1,-1 1,-1 1,-1 0,-1 -2,0 -1,-1 0,-2 1,-1 -1,-1 -2,0 -1,-1 0,-1 -1,-1 0,-1 -3,0 -1,-1 -2,0 -1,1 -2,0 -1,1 -4,0 -1,1 -1,0 -1,1 -1,0 -1,1 -1,0 -1,1 -1,0 -1,1 -1,0 -1,1 -2,0 -1,1Z"/>
<path onmouseover="hoverPath(evt)" onmouseout="recoverPath(evt)" fill="rgb(242,240,230)" d="M  121,115l -1,0 0,1 -1,1 0,2 -1,1 0,1 -1,1 0,3 4,0 1,1 1,0 1,1 0,2 -1,1 -4,0 -1,-1 -3,0 -1,1 0,2 -1,1 0,1 -1,1 0,2 1,1 2,0 1,1 3,0 1,1 2,0 1,1 4,0 1,1 3,0 1,1 14,0 1,1 7,0 1,1 14,0 1,1 1,1 0,2 -1,1 0,1 -1,1 1,1 0,2 -1,1 -1,1 -2,0 -1,1 0,1 -1,1 0,1 -1,1 -1,1 0,1 -1,1 0,1 -1,1 1,1 0,2 2,0 0,-1 1,-1 1,-1 0,-1 1,-1 0,-1 1,-1 1,-1 0,-1 1,-1 1,-1 0,-1 1,-1 0,-1 1,-1 1,-1 0,-1 1,-1 0,-1 1,-1 0,-1 1,-1 1,0 0,-1 1,-1 1,-1 0,-1 1,-1 1,-1 0,-1 1,-1 1,-1 0,-1 3,-3 -1,-1 0,-2 -2,0 -1,-1 -3,0 -1,-1 -2,0 -1,-1 -3,0 -1,-1 -2,0 -1,-1 -2,0 -1,-1 -3,0 -1,-1 -2,0 -1,-1 -2,0 -1,-1 -2,0 -1,-1 -3,0 -1,-1 -2,0 -1,-1 -2,0 -1,-1 -3,0 -1,-1 -2,0 -1,-1 -2,0 -1,-1 -3,0 -1,-1 -2,0 -1,-1 -1,0 -1,1Z"/>
<path onmouseover="hoverPath(evt)" onmouseout="recoverPath(evt)" fill="rgb(217,234,209)" d="M  237,69l 1,1 1,0 1,1 1,1 1,-1 2,0 1,1 1,1 0,2 1,1 1,1 1,0 0,-2 1,-1 0,-4 1,-1 2,0 1,1 1,0 0,-7 -1,0 -1,1 -2,0 -1,-1 -1,0 -1,-1 -1,0 -1,-1 -1,0 -1,-1 0,-2 -1,1 -2,0 -1,-1 0,-2 -1,-1 -1,0 -1,-1 -1,0 -1,-1 -1,0 -1,-1 0,3 -1,1 0,3 -1,1 -4,0 -1,-1 0,3 1,1 1,0 1,1 1,0 1,1 1,1 1,0 1,1 1,1 1,0 1,1Z"/>
<path onmouseover="hoverPath(evt)" onmouseout="recoverPath(evt)" fill="rgb(243,242,234)" d="M  253,28l 0,1 -1,1 -1,1 -1,1 -1,0 0,2 -1,1 -1,1 -1,1 0,1 -1,1 -1,1 -1,1 -1,0 0,2 -2,2 -1,1 -1,0 0,2 -1,1 -1,1 -2,0 1,1 1,0 1,1 1,0 1,1 1,0 1,1 1,1 1,0 1,1 1,0 1,1 1,0 1,1 1,0 1,1 1,0 1,1 1,0 1,1 1,0 0,-37 -1,0 -1,1Z"/>
<path onmouseover="hoverPath(evt)" onmouseout="recoverPath(evt)" fill="rgb(249,249,244)" d="M  22,205l -1,0 -1,-1 -2,0 -1,1 0,2 -1,1 0,2 -1,1 0,1 1,1 0,3 -1,1 -6,0 1,1 2,0 1,1 0,2 -1,1 -6,0 -1,-1 -5,0 4,1 1,0 5,1 1,0 1,1 1,0 1,1 0,1 1,1 0,7 -1,1 0,1 -1,1 -1,1 0,1 -1,1 -5,0 3,1 0,2 -1,1 0,1 -1,1 3,0 1,1 0,4 -1,1 0,3 3,0 0,-2 -1,-1 0,-3 1,-1 2,0 -1,-1 0,-3 1,-1 2,0 -1,-1 0,-3 1,-1 2,0 -1,-1 0,-3 1,-1 2,0 -1,-1 0,-3 1,-1 2,0 -1,-1 0,-3 1,-1 2,0 -1,-1 0,-3 1,-1 0,-1 1,-1 0,-1 1,-1 0,-2 1,-1 0,-1 1,-1 3,0 0,-4 1,-1 0,-1 1,-1 0,-2 1,-1 0,-1 1,-1 0,-1 1,-1 0,-2 1,-1 0,-2 1,-1 0,-1 1,-1 0,-1 1,-1 0,-2 1,-1 1,-1 0,-1 1,-1 1,0 1,-1 5,0 -5,-1 0,0 -1,1 -2,0 -1,-1 0,-2 -1,-1 0,1 -1,1 0,1 -1,1 0,2 -1,1 0,1 -1,1 0,2 -1,1 0,1 -1,1 0,2 -1,1 0,2 -1,1 -2,0 1,1 0,2 -2,2 0,4 -1,1 0,1 -1,1 -4,0 -1,-1 -1,0 7,-6 0,0 -7,6Z"/>
<path onmouseover="hoverPath(evt)" onmouseout="recoverPath(evt)" fill="rgb(172,198,237)" d="M  81,85l 0,0 -1,1 0,1 -1,1 0,1 1,1 3,0 1,1 2,0 1,1 3,0 1,1 4,0 1,1 3,0 1,1 4,0 1,1 4,0 1,1 3,0 1,1 2,0 1,1 3,0 1,1 3,0 1,-1 3,0 1,1 0,2 2,0 1,1 3,0 1,1 3,0 1,1 3,0 1,1 3,0 1,1 3,0 1,1 3,0 1,1 3,0 1,1 3,0 1,1 3,0 1,1 3,0 1,1 3,0 1,1 3,0 1,1 4,0 1,1 3,0 1,1 3,0 1,1 3,0 1,1 1,0 1,1 1,0 1,-1 0,0 3,-3 -2,0 -1,-1 -3,0 -1,-1 -3,0 -1,-1 -2,0 -1,-1 -4,0 -1,-1 -4,0 -1,-1 -1,-1 -4,0 -1,-1 -5,0 -1,-1 -1,-1 0,-1 -1,1 -3,0 -1,-1 -5,0 -1,-1 -2,0 -1,-1 -1,0 -1,-1 -4,0 -1,-1 -5,0 -1,-1 -5,0 -1,-1 -1,-1 -1,-1 -2,0 -1,1 -2,0 -1,-1 -1,-1 -1,0 -1,-1 -1,0 -1,-1 0,-1 -7,0 -1,-1 -1,0 -1,-1 -1,0 -1,-1 -4,0 -1,-1 -4,0 -1,-1 -8,0 -1,-1 -1,-1 -4,0 -1,-1 -1,0 -1,-1 -1,1 1,-3 -1,3Z"/>
<path onmouseover="hoverPath(evt)" onmouseout="recoverPath(evt)" fill="rgb(247,246,239)" d="M  92,6l 0,0 1,1 1,0 1,1 1,1 1,0 1,1 1,0 1,1 1,0 1,1 1,1 3,0 -1,-1 -1,0 -1,-1 -1,0 -1,-1 -1,-1 0,-3 1,-1 1,-1 1,0 0,-2 1,-1 0,-1 -22,0 0,1 1,0 1,1 1,0 1,1 1,0 1,1 1,1 0,2 1,-1Z"/>
<path onmouseover="hoverPath(evt)" onmouseout="recoverPath(evt)" fill="rgb(246,244,237)" d="M  100,253l -4,0 -1,-1 0,-3 -1,1 0,0 -1,1 -1,0 -1,1 -1,0 0,1 -1,1 -2,0 0,1 41,0 0,-2 1,-1 0,-1 1,-1 1,-1 0,-1 1,-1 0,-2 -1,-1 0,3 -1,1 -1,1 -1,0 -1,1 -1,1 -1,1 -22,0 -1,1Z"/>
<path onmouseover="hoverPath(evt)" onmouseout="recoverPath(evt)" fill="rgb(228,238,220)" d="M  109,13l 0,-1 1,-1 2,0 1,1 1,1 1,1 1,0 0,-2 -1,-1 0,-8 1,-1 1,0 1,-1 2,0 1,1 1,1 1,0 1,1 1,0 1,1 1,0 1,1 1,1 1,0 1,1 1,-1 1,-1 0,-1 1,-1 0,-4 -28,0 0,2 -1,1 0,2 -1,1 -1,0 -1,1 0,1 1,1 1,0 1,1 1,0 1,1 1,1 1,1Z"/>
<path onmouseover="hoverPath(evt)" onmouseout="recoverPath(evt)" fill="rgb(233,235,205)" d="M  168,13l 0,1 -1,1 0,1 -1,1 1,1 1,0 1,1 0,2 -1,1 3,0 1,1 0,2 -1,1 0,3 -1,1 -1,1 0,1 -1,1 1,1 0,0 1,1 1,0 1,1 1,1 1,0 1,1 0,2 1,-1 1,-1 0,-1 1,-1 1,-1 0,-1 1,-1 1,0 1,-1 2,0 0,-1 -1,-1 0,-3 1,-1 1,-1 1,-1 1,-1 0,-3 1,-1 2,0 1,-1 2,0 1,1 0,3 1,0 1,1 1,0 1,1 1,0 1,1 0,2 1,1 1,1 0,2 -1,1 -1,1 -1,1 0,3 1,1 1,1 0,2 3,0 0,-1 1,-1 0,-1 1,-1 1,-1 0,-1 1,-1 1,0 0,-1 1,-1 3,0 1,1 0,2 -1,1 -1,1 0,1 1,1 0,2 -1,1 -3,0 0,2 2,0 1,1 1,-1 0,-2 -1,2 2,-4 3,0 1,1 1,0 1,1 0,1 1,0 1,1 2,0 1,-1 0,0 1,-1 0,-1 2,-2 0,-1 1,-1 3,0 1,-1 1,-1 1,-1 0,-1 1,-1 1,-1 1,-1 1,-1 0,-1 1,-1 2,-2 1,-1 1,-1 -6,5 -4,0 -1,-1 -3,0 -1,-1 -1,0 -1,-1 -1,0 -1,-1 -1,0 -1,-1 -1,0 -1,-1 0,-1 -1,0 -1,1 -2,0 -1,-1 0,-2 -1,0 -1,-1 -1,-1 -1,0 -1,-1 -1,0 -1,-1 -1,-1 -1,0 -1,-1 -1,0 -1,-1 -1,0 -1,-1 -1,0 -1,-1 -1,0 -2,-2 -1,0 -1,-1 -1,0 -1,-1 -1,-1 -1,0 -1,-1 -1,0 -1,-1 -1,0 -1,-1 0,-2 -38,0 0,2 4,0 1,1 0,2 2,0 1,1 1,0 1,1 0,1 2,0 1,1 1,0 1,1 0,1 4,0 1,1Z"/>
<path onmouseover="hoverPath(evt)" onmouseout="recoverPath(evt)" fill="rgb(184,210,165)" d="M  170,181l 0,1 -1,1 0,2 -1,1 0,1 -1,1 0,1 -1,1 0,2 1,1 0,3 1,1 0,1 1,1 0,2 2,0 1,1 2,0 1,1 3,0 1,1 3,0 1,1 2,0 1,1 3,0 1,1 2,0 1,1 2,0 1,1 1,-1 2,0 0,-1 1,-1 1,-1 8,0 1,1 2,0 1,1 2,0 1,1 2,0 1,1 3,0 0,-1 1,-1 1,-1 1,-1 0,-1 1,-1 1,-1 0,-1 1,-1 1,-1 1,0 0,-2 1,-1 0,-5 -1,-1 0,-1 -1,-1 0,-1 -1,-1 0,-1 -1,-1 0,-8 1,-1 0,-3 1,-1 0,-2 1,-1 0,-2 1,-1 0,-2 1,-1 0,-2 1,-1 0,-1 1,-1 0,-1 1,-1 0,-1 1,-1 0,-1 1,-1 0,-2 1,-1 0,-1 1,-1 0,-1 1,-1 0,-2 1,-1 0,-5 -1,-1 0,-3 -1,-1 0,-3 -1,-1 0,-3 -1,-1 0,-3 1,-1 0,-1 1,-1 0,-1 1,-1 1,-1 1,-1 1,-1 2,-2 3,0 1,1 1,0 1,-1 1,-1 3,0 0,-23 -1,0 -1,1 -1,0 -1,1 -1,0 -1,1 -1,1 -1,1 -1,1 -1,0 -1,1 -1,1 -1,1 -1,0 -1,1 -1,1 -1,1 -1,1 -1,0 -2,2 -1,1 -1,1 -1,0 -1,1 -1,1 -2,2 -1,1 -1,1 -1,1 -1,1 -1,1 -2,2 -1,1 -1,1 -1,1 -1,1 -1,1 -2,2 -1,1 -1,1 -1,1 -1,1 -1,1 -2,2 -1,1 0,1 -1,1 -1,1 -1,1 -2,2 0,1 -1,1 -1,1 -1,1 -1,1 -1,1 0,1 -1,1 -1,1 -1,1 0,1 -1,1 -1,1 0,1 -1,1 -1,1 -1,1 0,1 -1,1 -1,1 0,1 -1,1 -1,1 0,1 -1,1 -1,1 0,1 -1,1 0,1 -1,1 -1,1 0,1 -1,1 0,1 -1,1 -1,1 0,1 -1,1 0,1 -1,1 0,1 -1,1 0,1 -1,1 0,1 -1,1Z"/>
<path onmouseover="hoverPath(evt)" onmouseout="recoverPath(evt)" fill="rgb(218,238,212)" d="M  213,54l 0,1 1,0 1,1 0,3 -1,1 2,-3 0,-1 1,-1 2,0 0,-1 1,-1 2,0 0,-4 1,-1 0,-1 1,-1 1,0 1,-1 1,-1 -4,2 -2,0 -1,-1 -1,0 -1,-1 0,-1 -1,0 -1,-1 -1,0 0,3 -1,1 -1,1 -2,0 -1,-1 -2,0 -1,-1 0,-4 -1,0 0,1 -1,1 -2,0 0,1 -1,1 0,1 -1,1 -1,1 -1,0 0,2 -1,1 1,0 1,-2 4,0 1,1 2,0 1,1 0,1 1,0 1,1 2,0 1,1 -6,-14 4,0 -1,-1 0,-3 1,-1 1,-1 -1,0 -2,2 0,1 -1,1 -1,1 0,1 6,14Z"/>
<path onmouseover="hoverPath(evt)" onmouseout="recoverPath(evt)" fill="rgb(190,215,149)" d="M  246,117l -2,2 -1,1 0,5 1,1 0,2 1,1 0,3 1,1 0,4 1,1 0,2 -1,1 0,3 -1,1 0,2 -1,1 0,1 -1,1 0,1 -1,1 0,1 -1,1 0,1 -1,1 0,1 -1,1 0,1 -1,1 0,2 -1,1 0,2 -1,1 0,1 -1,1 0,2 -1,1 0,3 -1,1 0,3 -1,1 0,1 1,1 0,3 1,1 0,1 1,1 0,1 1,1 0,4 1,1 8,0 1,1 3,0 1,1 2,0 1,1 1,0 1,1 0,-87 -2,0 -2,2 -2,0 0,1 -1,1 -2,2Z"/>
<path onmouseover="hoverPath(evt)" onmouseout="recoverPath(evt)" fill="rgb(221,228,233)" d="M  0,78l 0,12 2,0 0,-1 1,-1 0,-2 1,-1 0,-2 1,-1 0,-1 1,-1 0,-1 1,-1 0,-2 1,-1 0,-1 1,-1 0,-2 1,-1 0,-3 1,-1 2,0 0,-1 1,-1 0,-2 1,-1 -1,0 -1,1 -2,0 -1,-1 0,-2 -2,0 -1,-1 -1,0 -1,1 -2,0 -1,-1 -2,0Z"/>
<path onmouseover="hoverPath(evt)" onmouseout="recoverPath(evt)" fill="rgb(242,241,232)" d="M  46,181l -1,0 0,1 -1,1 -1,1 0,2 -1,1 0,1 -1,1 0,1 -1,1 0,2 -1,1 0,2 -1,1 0,1 -1,1 0,1 -1,1 0,2 -1,1 0,1 -1,1 0,3 1,1 0,0 1,1 0,4 1,1 0,3 2,0 1,1 0,2 1,1 0,1 2,0 1,-1 1,0 1,-1 1,-1 1,-1 1,0 1,-1 1,0 1,-1 2,0 1,-1 1,0 1,-1 1,-1 3,0 1,-1 1,0 1,-1 1,-1 1,0 1,-1 1,-1 0,-2 1,-1 0,-2 1,-1 1,-1 2,0 1,1 0,3 -1,1 0,2 -1,1 5,0 0,-1 1,-1 0,-1 1,-1 0,-2 1,-1 0,-1 1,-1 0,-2 1,-1 0,-1 1,-1 0,-2 1,-1 0,-1 1,-1 0,-1 -1,-1 0,-2 -3,0 -1,-1 0,5 -1,1 -2,0 -1,-1 0,-3 -1,-1 -1,0 -1,-1 -2,0 -1,-1 -2,0 -1,-1 -2,0 -1,-1 -2,0 -1,-1 -2,0 -1,-1 -3,0 -1,-1 -2,0 -1,-1 -4,0 -1,1 30,15 1,1 0,2 -1,1 -2,0 -1,-1 0,-2 1,-1 2,0 -30,-15Z"/>
<path onmouseover="hoverPath(evt)" onmouseout="recoverPath(evt)" fill="rgb(171,198,238)" d="M  60,30l -1,0 0,1 -1,1 1,1 0,0 1,1 1,1 0,1 1,1 1,1 1,1 0,1 1,1 1,1 1,1 6,0 0,-1 1,-1 1,-1 1,-1 0,-1 1,-1 0,-5 1,-1 0,-4 1,-1 -4,0 -1,-1 -1,1 -3,0 -1,1 -3,0 -1,1 -2,0 -1,1 -1,0 -1,1Z"/>
<path onmouseover="hoverPath(evt)" onmouseout="recoverPath(evt)" fill="rgb(233,233,215)" d="M  64,70l 0,3 1,1 0,2 1,0 1,1 4,0 1,1 1,1 4,0 0,-1 1,-1 1,0 0,-2 2,-2 1,-1 2,-2 1,0 1,-1 1,0 1,-1 1,0 1,-1 1,0 1,-1 1,0 1,-1 1,0 1,-1 2,0 1,-1 3,0 1,-1 3,0 1,-1 3,0 0,-2 1,-1 2,0 0,-4 1,-1 0,-11 1,-1 0,-4 -10,0 9,4 -13,0 0,1 -1,1 -1,0 -1,1 0,1 -1,1 -2,0 0,1 -1,1 -7,0 -1,-1 0,-1 -1,-1 0,-1 -1,0 -1,-1 -1,-1 0,-3 -4,0 0,1 -1,1 -1,1 -1,1 0,2 1,1 0,2 1,1 0,3 -1,1 -5,0 0,4 -1,1 -5,0 0,3 -1,1 -3,0 0,3 1,1 0,1 1,1 0,1 1,1Z"/>
<path onmouseover="hoverPath(evt)" onmouseout="recoverPath(evt)" fill="rgb(243,241,232)" d="M  74,101l 0,0 -1,1 0,2 -1,1 0,1 -1,1 0,2 -1,1 0,1 -1,1 0,2 -1,1 0,1 -1,1 0,2 -1,1 0,1 -1,1 0,2 -1,1 0,1 -1,1 0,2 -1,1 0,1 -1,1 0,2 -1,1 0,1 -1,1 0,2 -1,1 0,2 -1,1 0,1 -1,1 0,2 -1,1 0,1 -1,1 0,2 -1,1 0,1 -1,1 0,2 -1,1 0,1 -1,1 0,2 -1,1 1,1 0,1 1,0 1,1 2,0 1,1 3,0 1,1 2,0 1,1 3,0 1,1 2,0 1,1 2,0 1,1 3,0 1,1 2,0 1,1 3,0 1,1 2,0 1,1 3,0 1,1 0,1 1,-1 0,-2 1,-1 0,-2 1,-1 0,-1 1,-1 0,-2 1,-1 0,-1 1,-1 0,-2 1,-1 0,-2 1,-1 0,-1 1,-1 0,-2 1,-1 0,-1 1,-1 0,-2 1,-1 0,-2 1,-1 0,-1 1,-1 0,-2 1,-1 0,-2 1,-1 0,-2 1,-1 0,-1 1,-1 0,-3 -2,0 -1,-1 -3,0 0,1 -1,1 0,2 -1,1 -2,0 -1,-1 0,-6 1,-1 -3,0 -1,-1 0,-2 1,-1 4,0 1,-1 0,-2 1,-1 0,-1 2,-2 0,-1 1,-1 1,0 1,-1 2,0 1,1 0,2 -1,1 0,1 -1,1 -1,1 -1,1 0,3 2,0 1,1 1,0 0,-1 1,-1 2,0 0,-1 1,-1 0,-2 1,-1 0,-1 1,-1 0,-3 -3,0 -1,-1 -2,0 -1,-1 -2,0 -1,-1 -2,0 -1,-1 -3,0 -1,-1 -2,0 -1,-1 -2,0 -1,-1 -3,0 -1,-1 -2,0 -1,-1 -2,0 -1,-1 -3,0 -1,-1 -3,0 -1,1Z"/>
<path onmouseover="hoverPath(evt)" onmouseout="recoverPath(evt)" fill="rgb(174,199,236)" d="M  85,14l -1,0 -1,1 -1,0 0,1 -1,1 0,1 1,1 0,0 1,1 0,1 2,0 1,1 2,0 1,1 4,0 1,1 9,0 1,-1 0,-1 -4,0 -1,-1 -1,0 -1,-1 -2,0 -1,-1 -1,0 -1,-1 -1,0 -1,-1 -1,-1 -1,-1 -1,-1Z"/>
<path onmouseover="hoverPath(evt)" onmouseout="recoverPath(evt)" fill="rgb(219,239,213)" d="M  157,22l 0,2 -1,1 -1,1 0,1 1,-1 1,0 0,-1 1,-2 -1,-1 -2,-1 -1,-1 0,0 1,1 2,1 -4,-2 -1,-1 1,1 4,2 -6,-3 -1,-1 0,0 1,1 6,3 -8,-4 -1,-1 -1,-1 0,0 2,2 8,4 4,-1 4,0 1,1 0,-1 1,-1 -1,0 -1,-1 0,0 -1,-1 0,-2 1,-1 0,-1 1,-1 -4,0 -1,-1 0,-1 -1,0 -1,-1 -2,0 -1,-1 0,-1 -1,0 -1,-1 -2,0 -1,-1 0,-2 -4,0 0,1 -1,1 0,1 -1,1 -1,1 0,1 -1,1 -3,0 0,2 1,0 1,1 1,0 1,1 1,0 16,6 -4,1Z"/>
<path onmouseover="hoverPath(evt)" onmouseout="recoverPath(evt)" fill="rgb(244,243,235)" d="M  159,214l -1,0 0,1 -1,1 0,1 -1,1 0,1 -1,1 0,2 -1,1 0,1 -1,1 0,2 -1,1 0,1 -1,1 0,2 -1,1 0,2 -1,1 0,1 -1,1 0,2 -1,1 0,1 -1,1 0,2 -1,1 0,1 -1,1 0,2 -1,1 0,1 -1,1 0,2 45,0 0,-2 -1,-1 0,-1 -1,-1 0,-1 -1,-1 0,-1 -2,0 -1,-1 0,-1 -1,-1 0,-2 -1,-1 0,-12 1,-1 0,-3 1,-1 1,0 1,-1 3,0 1,1 4,0 1,1 0,2 2,0 1,1 2,0 1,1 2,0 1,-1 5,0 1,-1 0,-3 -1,0 -1,-1 -3,0 -1,-1 -2,0 -1,-1 -3,0 -1,-1 -2,0 -1,-1 -3,0 -1,-1 -2,0 -1,-1 -3,0 -1,-1 -2,0 -1,-1 -2,0 -1,-1 -3,0 -1,-1 -3,0 -1,-1 -4,0 -1,1 -1,0 -1,1Z"/>
<path onmouseover="hoverPath(evt)" onmouseout="recoverPath(evt)" fill="rgb(233,237,209)" d="M  172,48l 0,0 1,1 0,2 1,1 1,1 1,0 1,1 2,0 1,1 1,1 0,3 1,-1 3,0 1,1 0,1 1,0 1,1 1,0 1,1 1,1 0,-3 1,-1 0,-1 1,-1 1,-1 1,0 0,-1 1,-1 1,-1 -1,-1 0,-2 1,-1 0,-2 1,-1 1,0 1,-1 0,-1 1,-1 -1,0 -1,-1 0,-2 -1,-1 -1,-1 0,-5 1,-1 1,-1 1,-1 -1,-1 -1,-1 0,-2 -1,0 -1,-1 -1,0 -1,-1 -1,0 -1,-1 0,-3 -1,1 -2,0 0,3 -1,1 -1,1 -1,1 -1,1 0,1 1,1 0,3 -1,1 -2,0 -1,1 -1,0 0,1 -1,1 -1,1 0,1 -1,1 -1,1 -1,1 -2,0 -1,-1 0,-2 -1,0 -1,-1 -1,-1 -1,0 -1,-1 -1,-1 -1,-1 0,-2 1,-1 0,-1 1,-1 1,-1 0,-3 1,-1 -5,0 -1,-1 -2,0 0,1 -1,1 -2,0 0,2 -1,1 -1,0 -1,1 -2,0 -1,1 -1,1 0,1 -1,1 -1,0 -1,1 0,1 -1,1 0,1 1,1 0,1 2,0 1,1 0,1 1,1 1,1 0,2 1,-3 2,0 1,1 1,0 1,1 1,1 2,0 1,1 1,0 1,1 0,1 1,0 1,1 1,0 1,-1Z"/>
<path onmouseover="hoverPath(evt)" onmouseout="recoverPath(evt)" fill="rgb(243,242,233)" d="M  182,229l 0,0 -1,1 0,10 1,1 0,2 1,1 0,1 2,0 1,1 0,1 1,1 0,1 1,1 0,1 1,1 0,3 66,0 0,-17 -2,0 -1,-1 -2,0 -1,-1 0,-1 -6,0 -1,-1 -3,0 -1,-1 -2,0 -1,-1 -2,0 -1,-1 -3,0 -1,-1 -2,0 -1,-1 -2,0 -1,-1 -3,0 -1,-1 -2,0 -1,-1 -4,0 0,2 -1,1 -2,0 -1,1 -5,0 -1,1 -4,0 -1,-1 -2,0 -1,-1 -2,0 -1,-1 0,-2 -4,0 -1,-1 -1,0 -1,1 -1,0 0,3 39,5 1,1 0,2 -1,1 -2,0 -1,-1 0,-2 1,-1 2,0 -39,-5Z"/>
<path onmouseover="hoverPath(evt)" onmouseout="recoverPath(evt)" fill="rgb(253,253,253)" d="M  242,134l 0,0 1,1 0,7 -1,1 0,2 -1,1 0,1 -1,1 0,1 -1,1 0,2 -1,1 0,1 -1,1 0,1 -1,1 0,1 -1,1 0,1 -1,1 0,2 -1,1 0,2 -1,1 0,2 -1,1 0,2 -1,1 0,3 -1,1 0,6 1,1 0,1 1,1 0,1 1,1 0,1 1,1 0,7 -1,1 0,2 -1,1 1,0 -1,1 -1,-1 0,0 -1,1 0,1 -1,1 -1,1 0,1 -1,1 -2,2 0,1 -1,1 -5,0 0,1 2,0 1,1 2,0 1,-1 1,-1 1,-1 0,-1 1,-1 1,-1 0,-1 1,-1 1,-1 0,-2 -1,2 -1,1 -1,2 -1,1 -2,3 18,-77 -8,59 0,-3 -1,-1 0,-1 -1,-1 0,-1 -1,-1 0,-3 -1,-1 0,-3 1,-1 0,-3 1,-1 0,-3 1,-1 0,-2 1,-1 0,-1 1,-1 0,-2 1,-1 0,-2 1,-1 0,-1 1,-1 0,-1 1,-1 0,-1 1,-1 0,-1 1,-1 0,-1 1,-1 0,-1 1,-1 0,-2 1,-1 0,-3 1,-1 -1,-1 0,-4 -1,-1 0,-3 -1,-1 0,-2 -1,-1 0,-7 2,-2 1,-1 1,-1 1,-1 1,-1 0,-1 -1,0 -1,1 -1,1 -1,1 -1,1 -1,1 0,1 -1,1 0,1 -1,1 0,1 1,1 0,3 1,1 0,3 1,1 0,-1 -8,63 8,-59 -26,77 0,-1 -1,0 -1,-1 -2,0 -1,-1 -2,0 -1,-1 -6,0 -1,1 0,1 1,0 1,-1 4,0 1,1 2,0 1,1 2,0 1,1 2,0 26,-77 -6,63 7,0 1,1 3,0 1,1 2,0 1,1 1,0 1,1 2,0 0,-1 -1,0 -1,-1 -1,0 -1,-1 -2,0 -1,-1 -3,0 -1,-1 -7,0 -1,1 6,-63Z"/>
<path onmouseover="hoverPath(evt)" onmouseout="recoverPath(evt)" fill="rgb(241,240,232)" d="M  5,119l 0,1 -1,1 0,1 -1,1 0,2 -1,1 -2,0 0,25 3,0 1,1 2,0 1,1 3,0 1,1 2,0 1,1 3,0 1,1 2,0 1,1 3,0 1,1 2,0 1,1 2,0 1,1 3,0 1,1 2,0 1,1 3,0 1,1 1,0 1,-1 0,-2 1,-1 0,-2 1,-1 0,-1 1,-1 0,-2 1,-1 0,-1 1,-1 0,-1 -1,-1 0,-2 1,-1 2,0 0,-1 -1,-1 0,-2 1,-1 2,0 0,-1 -1,-1 0,-2 1,-1 2,0 0,-1 -1,-1 0,-2 1,-1 2,0 0,-1 -1,-1 0,-2 1,-1 2,0 0,-1 -1,-1 0,-2 1,-1 2,0 0,-2 1,-1 0,-2 1,-1 0,-1 1,-1 0,-2 1,-1 0,-1 1,-1 0,-2 1,-1 0,-1 1,-1 0,-2 1,-1 -1,-1 -2,0 -1,-1 -2,0 -1,-1 -3,0 -1,-1 -1,-1 0,-3 1,-1 3,0 1,1 2,0 1,1 2,0 1,1 3,0 1,-1 0,-2 -3,0 -1,-1 -1,0 -1,-1 -2,0 -1,-1 -1,0 -1,-1 -3,0 -1,-1 -1,0 -1,-1 -2,0 -1,-1 -4,0 -1,-1 -4,0 -1,-1 0,-1 -2,0 -1,-1 -1,-1 -2,0 -1,-1 -2,0 -1,-1 -2,0 -1,-1 -2,0 -1,-1 -1,0 -1,-1 -1,1 0,2 -1,1 0,1 -1,1 0,1 -1,1 0,2 -1,1 0,1 -1,1 0,1 -1,1 0,2 -1,1 0,1 -1,1 0,2 -1,1 0,2 -1,1 0,1 -1,1 0,2 -1,1 0,1 -1,1 0,2 -1,1 -2,0 0,2 -1,1 -1,1 0,1 -1,1 1,0 1,1 0,3 -1,1Z"/>
<path onmouseover="hoverPath(evt)" onmouseout="recoverPath(evt)" fill="rgb(240,238,227)" d="M  13,231l 0,-3 -1,-1 0,-1 -1,0 -1,-1 -1,0 -1,-1 -5,0 -1,-1 -2,0 0,32 8,0 0,-4 1,-1 0,-2 -3,0 -1,-1 0,-2 1,-1 0,-1 1,-1 -2,0 -1,-1 0,-2 1,-1 5,0 0,-1 1,-1 1,-1 0,-1 1,-1Z"/>
<path onmouseover="hoverPath(evt)" onmouseout="recoverPath(evt)" fill="rgb(243,242,233)" d="M  29,215l 0,0 -1,1 0,1 -1,1 0,1 -1,1 0,1 1,1 0,2 -1,1 -2,0 0,1 1,1 0,2 -1,1 -2,0 0,1 1,1 0,2 -1,1 -2,0 0,1 1,1 0,2 -1,1 -2,0 0,1 1,1 0,2 -1,1 -2,0 0,1 1,1 0,2 -1,1 -2,0 0,1 1,1 0,3 46,0 0,-4 1,-1 0,-1 1,-1 0,-2 1,-1 0,-1 1,-1 0,-2 1,-1 0,-1 1,-1 0,-2 1,-1 0,-1 1,-1 0,-2 1,-1 0,-2 1,-1 0,-1 1,-1 0,-2 1,-1 0,-1 1,-1 0,-1 1,-1 0,-3 -3,0 -1,1 -3,0 -1,1 -2,0 -1,1 -2,0 -1,-1 -2,0 -1,1 -1,1 -1,0 -1,1 -2,0 -1,1 -1,0 -1,1 -1,0 -1,1 -1,1 -1,1 -1,0 -1,1 -4,0 -1,-1 0,-1 -1,-1 0,-2 -2,0 -1,-1 0,-3 -1,-1 0,-4 -1,-1 -3,0 0,1 -1,1Z"/>
<path onmouseover="hoverPath(evt)" onmouseout="recoverPath(evt)" fill="rgb(254,254,254)" d="M  83,215l 0,0 -1,-1 -1,-1 0,-4 1,-1 0,-1 1,-1 0,-1 1,-1 0,-2 1,-1 0,-1 1,-1 0,-2 1,-1 0,-2 1,-1 0,-1 1,-1 0,-1 1,-1 -2,0 0,1 -1,1 0,2 -1,1 0,1 -1,1 0,2 -1,1 0,1 -1,1 0,2 -1,1 0,1 -1,1 0,2 -1,1 0,1 -1,1 0,1 -1,1 -7,0 -1,-1 0,-2 1,-1 0,-2 1,-1 0,-1 -1,1 0,0 -1,3 -1,3 -1,1 -1,1 -1,0 -1,1 1,0 2,-1 2,0 0,-1 7,1 0,5 -1,1 0,1 -1,1 0,1 -1,1 0,2 -1,1 0,1 -1,1 0,2 -1,1 0,2 -1,1 0,1 -1,1 0,2 -1,1 0,1 -1,1 0,2 -1,1 0,1 -1,1 0,2 -1,1 0,1 -1,1 0,3 4,0 0,-1 -1,0 -1,-1 0,-2 1,-1 0,-2 1,-1 0,-1 1,-1 0,-2 1,-1 0,-1 1,-1 0,-2 1,-1 0,-1 1,-1 0,-2 1,-1 0,-2 1,-1 0,-1 1,-1 0,-2 1,-1 0,-1 1,-1 0,-2 1,-1 0,-2 1,-1 1,-1Z"/>
<path onmouseover="hoverPath(evt)" onmouseout="recoverPath(evt)" fill="rgb(242,240,231)" d="M  110,229l 0,0 -1,1 0,1 -1,1 0,1 1,0 1,1 5,0 1,1 7,0 1,1 0,2 2,0 1,1 0,2 1,1 1,0 1,-1 1,0 1,-1 1,0 1,-1 0,-2 1,-1 0,-1 1,-1 0,-2 1,-1 0,-2 1,-1 0,-1 1,-1 0,-2 1,-1 0,-1 1,-1 0,-2 1,-1 0,-2 1,-1 0,-2 1,-1 0,-3 -1,-1 0,0 -1,-1 0,-1 -1,-1 -1,0 -1,-1 -2,0 -1,-1 -2,0 -1,-1 -3,0 -1,-1 -2,0 -1,-1 -3,0 -1,-1 -2,0 -1,-1 -3,0 -1,-1 -2,0 -1,-1 0,-2 -3,0 0,2 -1,1 0,8 1,1 0,1 1,1 0,1 3,0 0,-1 1,-1 2,0 1,-1 2,0 1,1 6,0 1,1 0,4 -1,1 -4,0 -1,-1 0,-1 -4,0 1,1 0,2 1,1 1,1 0,1 1,1 0,1 1,1 0,3 1,1 0,3 -1,1 -1,1 -1,1 -4,0 -1,-1Z"/>
<path onmouseover="hoverPath(evt)" onmouseout="recoverPath(evt)" fill="rgb(246,238,150)" d="M  134,247l 0,1 -1,1 0,1 -1,1 -1,1 0,1 -1,1 0,1 10,0 0,-3 1,-1 0,-1 1,-1 0,-2 1,-1 0,-1 1,-1 0,-2 1,-1 0,-1 1,-1 0,-2 1,-1 0,-1 1,-1 0,-2 1,-1 0,-2 1,-1 0,-1 1,-1 0,-2 1,-1 0,-1 1,-1 0,-2 1,-1 0,-1 1,-1 0,-1 1,-1 0,-1 1,-1 1,0 1,-1 1,0 1,-1 6,0 1,1 3,0 1,1 3,0 1,1 2,0 1,1 2,0 1,1 3,0 1,1 2,0 1,1 3,0 1,1 2,0 1,1 3,0 1,1 2,0 1,1 3,0 1,1 1,0 1,1 0,4 1,-3 6,0 1,1 2,0 1,1 3,0 1,1 2,0 1,1 2,0 1,1 3,0 1,1 2,0 1,1 2,0 1,1 3,0 1,1 6,0 1,1 0,1 2,0 1,1 1,0 0,-8 -3,0 -1,-1 -2,0 -1,-1 -3,0 -1,-1 -2,0 -1,-1 -2,0 -1,-1 -3,0 -1,-1 -2,0 -1,-1 -2,0 -1,-1 -3,0 -1,-1 -2,0 -1,-1 -1,0 -1,-1 0,-3 -2,0 -1,-1 -3,0 -1,-1 -2,0 -1,-1 -2,0 -1,-1 -2,0 -1,1 -3,0 -1,-1 -1,0 -1,1 -2,0 -1,-1 -2,0 -1,-1 -2,0 -1,-1 -3,0 -1,-1 -2,0 -1,-1 -3,0 -1,-1 -3,0 -1,-1 -2,0 -1,-1 -2,0 -1,-1 0,-2 -1,-1 0,-1 -1,-1 0,-3 -1,-1 0,-4 1,-1 0,-1 1,-1 0,-1 1,-1 0,-2 1,-1 0,-1 1,-1 0,-1 1,-1 0,-1 1,-1 0,-1 1,-1 0,-1 1,-1 0,-1 1,-1 1,-1 0,-1 1,-1 0,-1 1,-1 1,-1 0,-1 1,-1 0,-1 1,-1 1,-1 0,-1 1,-1 1,-1 0,-1 1,-1 1,-1 0,-1 1,-1 1,-1 1,-1 0,-1 1,-1 1,-1 0,-1 1,-1 1,-1 1,-1 0,-1 1,-1 3,-3 1,-1 0,-1 1,-1 1,-1 1,-1 1,-1 1,-1 0,-1 1,-1 1,-1 3,-3 1,-1 3,-3 1,-1 3,-3 1,-1 1,-1 1,-1 1,-1 1,-1 1,-1 3,-3 1,-1 3,-3 1,-1 1,0 1,-1 1,-1 1,-1 1,-1 1,0 1,-1 1,-1 1,-1 1,-1 1,0 1,-1 1,-1 1,-1 1,0 2,-2 1,-1 1,-1 1,0 1,-1 1,0 1,-1 2,0 0,-12 -2,0 -1,-1 0,4 -1,1 0,2 -1,1 -1,0 0,1 -1,1 -3,0 -1,1 -1,0 -1,1 -1,1 -1,0 -1,1 -1,1 -1,0 -1,1 -1,1 -1,1 0,1 -1,1 -2,0 -1,1 -2,0 -1,-1 -1,-1 -2,0 -1,-1 0,-1 -1,-1 -1,0 -1,-1 -1,0 -1,-1 -1,-1 -1,0 -1,-1 -1,0 -1,-1 -1,-1 -1,-1 0,-3 1,-1 1,0 1,-1 1,-1 0,-1 1,-1 2,-2 1,-1 0,-2 1,-1 1,0 1,-1 1,-1 0,-1 1,-1 0,-4 1,-1 2,0 1,1 2,0 0,-3 1,-1 0,-3 1,-1 0,-1 1,-1 2,0 1,-1 0,-2 1,-1 1,0 1,-1 1,-1 0,-2 1,-1 1,0 1,-1 1,-1 0,-1 1,-1 2,-2 0,-2 1,-1 1,0 1,-1 1,-1 0,-4 1,-1 1,-1 2,0 0,-11 -2,0 0,1 -1,1 -1,0 0,2 -1,1 -2,0 -1,-1 -1,0 -1,-1 -1,1 0,0 -1,1 -1,1 0,1 -1,1 -1,1 -1,1 -1,1 0,1 -1,1 -1,1 -1,1 3,0 1,-1 0,0 1,-1 1,-1 1,-1 1,-1 2,0 1,1 0,2 -1,1 -1,1 -1,1 -1,1 -1,1 0,1 -1,1 -1,1 -1,1 -1,1 0,1 -1,1 -1,1 -1,1 -1,1 -3,0 0,1 -1,1 -1,1 1,1 0,2 -1,1 -1,1 -1,1 -1,0 0,1 -1,1 0,4 -1,1 -2,0 0,1 -1,1 -2,0 0,1 -1,1 0,1 -1,1 -1,1 -1,0 0,2 -1,1 -1,1 -1,0 0,2 -1,1 -1,1 -1,1 -1,1 -1,0 0,1 -1,1 -2,0 -1,1 -1,0 -1,1 -2,0 -1,1 1,0 1,1 0,2 -1,1 -1,1 -3,0 -1,1 -4,0 -1,1 -3,0 -1,1 -3,0 -1,1 -3,0 -1,1 -16,0 -1,-1 -1,-1 -3,0 -1,-1 -1,0 -1,-1 0,-1 -1,0 -1,-1 -1,0 -1,-1 -2,0 -1,-1 -1,0 -1,-1 -1,0 -1,-1 0,-1 -2,0 -1,-1 0,-2 -2,0 -1,-1 0,-1 -1,-1 0,-1 -1,0 -1,-1 -1,-1 0,-1 -1,0 -1,-1 0,-1 -1,-1 0,-1 -1,-1 0,-3 -1,-1 -1,-1 0,-3 -1,-1 0,-8 1,-1 0,-2 -1,0 -1,-1 0,-2 1,-1 0,-1 1,-1 0,-2 1,-1 0,-1 1,-1 0,-1 1,-1 1,-1 2,0 0,-1 1,-1 0,-1 1,-1 1,-1 -1,-1 0,-2 1,-1 1,-1 0,-1 1,-1 1,-1 1,-1 0,-3 1,-1 3,0 0,-1 1,-1 1,-1 0,-1 1,-1 0,-1 1,-1 0,-2 -10,0 0,5 -1,1 0,1 -1,1 -1,1 -1,1 -2,0 -1,-1 -1,0 -1,-1 -1,-1 -1,0 -1,-1 -1,0 -1,-1 -1,0 -1,-1 -1,-1 -1,1 -1,0 0,6 1,1 0,4 -1,1 -3,0 -1,-1 -1,-1 -1,-1 0,1 -1,1 -3,0 0,2 -1,1 -3,0 0,1 -1,1 3,0 1,1 0,3 -1,1 -1,1 -10,0 0,6 1,1 0,0 1,1 6,0 1,1 13,0 1,1 0,6 -1,1 0,11 -1,1 0,4 -1,1 2,0 1,1 0,3 -1,1 -3,0 4,1 0,1 1,1 0,1 2,0 1,1 1,1 0,2 -1,1 2,0 1,1 0,2 1,0 1,1 0,2 1,1 1,1 1,1 1,1 1,0 1,1 0,1 1,0 1,1 1,1 1,0 1,1 2,0 1,1 0,1 3,0 1,1 1,0 1,1 1,0 1,1 3,0 1,1 3,0 1,1 4,0 1,1 16,0 1,-1 3,0 1,-1 3,0 1,-1 3,0 1,-1 1,0 1,-1 2,0 1,-1 1,0 1,-1 1,0 1,-1 1,-1 1,-1 1,0 1,-1 1,-1 3,0 1,1 1,0 1,1 1,0 1,1 1,0 1,1 1,1 1,0 1,1 2,0 1,1 0,1 1,1 1,0 1,1 1,1 0,2 -1,1 -1,0 -1,1 -1,1 -3,3 -1,1 0,1 -1,1 -1,0 -1,1 -3,3 -1,0 0,1 -1,1 -1,1 -1,1 0,2 -3,3 -1,1 -1,1 0,1 -1,1 -1,1 -1,1 -2,0 -1,1 -1,1 -1,1 -2,0 2,1 0,2 -1,1 -1,0 -1,1 -1,0 -1,1 0,1 -1,1 -2,2 0,1 -1,1 -1,1 0,1 -1,1 -1,1 0,1 -2,2 0,1 -1,1 -1,0 0,1 -1,1 0,1 -1,1 0,1 -1,1 -1,1 0,1 -1,1 0,1 -1,1 -1,1 0,1 -1,1 -1,1 0,1 -1,1 0,1 -1,1 -1,1 0,1 -1,1 -4,0 -1,1 0,1 2,0 1,1 0,2 -1,1 0,1 -1,1 -2,0 -1,1 -2,0 -1,1 1,1 1,0 1,1 0,3 -1,1 0,1 -1,1 0,1 -1,1 -1,1 -1,1 -1,0 -1,1 -4,0 -1,-1 -4,0 -1,-1 -2,0 -1,-1 0,-1 -1,0 -1,-1 -4,0 -1,-1 -3,0 -1,-1 -3,0 -1,-1 -3,0 -1,-1 -2,0 -1,-1 -3,0 -1,-1 -2,0 -1,-1 -3,0 -1,-1 -2,0 -1,-1 -1,-1 -1,0 -1,-1 -1,-1 0,-4 -1,4 0,2 -1,1 -4,0 -1,-1 -1,0 -1,-1 0,-1 -3,0 -1,-1 -2,0 -1,-1 -3,0 -1,-1 -2,0 -1,-1 -3,0 -1,-1 -2,0 -1,-1 -2,0 -1,-1 -3,0 -1,-1 -2,0 -1,-1 -3,0 -1,-1 -2,0 -1,-1 -1,0 -1,-1 0,-1 -1,2 -3,0 -1,-1 0,-1 -2,0 -1,-1 -3,0 -1,-1 -2,0 -1,-1 -3,0 -1,-1 -2,0 -1,-1 -2,0 -1,-1 -3,0 -1,-1 -2,0 -1,-1 -3,0 -1,-1 -2,0 -1,-1 -3,0 -1,-1 -2,0 -1,-1 -2,0 0,9 4,0 1,1 2,0 1,1 2,0 1,1 1,0 1,1 1,0 1,1 0,2 -1,1 3,0 1,1 2,0 1,1 3,0 1,1 2,0 0,-2 1,-1 3,0 1,1 2,0 1,1 3,0 1,1 0,1 1,-2 2,0 1,1 1,1 0,2 1,-1 2,0 1,1 4,0 1,1 0,2 2,0 1,1 3,0 1,1 2,0 1,1 2,0 1,1 2,0 1,1 2,0 1,1 2,0 1,1 1,0 1,1 1,1 0,-2 1,-1 2,0 1,1 3,0 1,1 0,2 1,-2 4,0 1,1 0,1 3,0 1,1 3,0 1,1 2,0 1,1 2,0 1,1 0,13 1,1 0,1 1,1 0,5 1,-2 4,0 1,1 0,1 2,0 0,-1 -1,-1 0,-2 1,-1 6,0 1,1 0,1 2,0 0,-2 -2,0 -5,-1 -4,3 -5,0 25,36 0,-3 -1,-1 1,-1 -1,0 2,-1 1,-1 0,0 -2,6 0,1 2,-8 0,-1 1,-1 -1,2 -2,8 3,-11 1,-1 -1,1 -3,11 4,-13 0,-1 1,-1 -1,2 -4,13 5,-16 0,-1 1,-1 -1,2 -5,16 6,-19 1,-1 -1,1 -6,19 7,-21 0,-1 1,-1 -1,2 -7,21 8,-24 1,-1 -1,1 -8,24 9,-26 0,-1 1,-1 -1,2 -9,26 10,-29 0,-1 1,-1 -1,2 -10,29 11,-32 0,-1 1,-1 -1,2 -11,32 12,-35 0,-4 -1,-1 -1,-1 0,-1 -1,-1 -1,-1 0,0 4,9 -12,35 7,-44 -1,-1 0,0 1,1 -7,44 5,-45 -1,0 -1,-1 2,1 -5,45 2,-46 -1,0 -1,-1 2,1 -2,46 -1,-47 -2,0 -1,-1 3,1 1,47 -26,-55 5,0 1,1 0,2 2,0 1,1 3,0 1,1 2,0 1,1 3,0 1,1 -20,-7 26,55Z"/>
<path onmouseover="hoverPath(evt)" onmouseout="recoverPath(evt)" fill="rgb(242,242,237)" d="M  139,93l 0,0 -1,-1 0,-1 -2,0 -1,-1 -1,0 -1,-1 -1,-1 -1,0 -1,-1 0,-1 -1,0 -1,-1 -1,-1 -1,-1 -1,-1 -1,-1 0,-2 -1,0 -1,1 0,0 -1,1 0,1 -1,1 0,1 -1,1 -9,0 -1,-1 -3,0 -1,-1 -3,0 -1,-1 -2,0 2,1 0,4 4,0 1,1 4,0 1,1 1,0 1,1 1,0 1,1 7,0 1,1 0,1 1,0 1,1 1,0 1,1 1,1 1,-1 4,0 1,1 1,1 1,1 5,0 1,1 5,0 1,1 4,0 1,1 1,0 1,1 2,0 1,1 1,0 0,-5 -4,0 -1,-1 -3,0 -1,-1 -3,0 -1,-1 -1,0 -1,-1 -1,0 -1,-1Z"/>
</svg>