<svg width="256" height="256" xmlns="http://www.w3.org/2000/svg"><script> 
var tempColor;
function hoverPath(evt){
obj = evt.target;
tempColor = obj.getAttribute("fill");
obj.setAttribute("fill","red");
//alert(tempColor);
//obj.setAttribute("stroke","red");}
function recoverPath(evt){
obj = evt.target;
obj.setAttribute("fill", tempColor);
//obj.setAttribute("stroke", tempColor);
}</script><path onmouseover="hoverPath(evt)" onmouseout="recoverPath(evt)" fill="rgb(244,243,236)" d="M  0,146l 0,109 96,0 0,-2 1,-1 -1,-1 0,-2 1,-1 1,-1 0,-1 1,-1 2,0 1,-1 -1,-1 0,-2 1,-1 1,-1 0,-3 -1,-1 0,-2 -1,-1 -1,-1 -1,1 -2,0 -1,-1 -1,-1 0,-2 -1,-1 -1,1 -2,0 -1,-1 -1,-1 -1,0 -1,-1 -1,-1 -2,0 -1,-1 0,-2 -1,0 -1,-1 -1,0 -1,-1 -1,-1 -1,1 -2,0 -1,-1 0,-2 -1,-1 -2,0 -1,-1 0,-1 -1,-1 -1,-1 -1,-1 -1,-1 0,-1 -1,-1 0,-1 -1,-1 0,-1 -2,0 -1,-1 0,-2 1,-1 0,-1 -1,-1 -2,0 -1,-1 0,-1 -1,-1 -1,-1 -1,-1 0,-2 -1,0 -1,-1 0,-1 -1,-1 -1,-1 -1,-1 -1,1 -2,0 -1,-1 -1,-1 -1,-1 -1,-1 -1,-1 -1,-1 -1,-1 0,-2 -1,0 -1,-1 0,-1 -1,-1 -1,-1 -1,-1 -1,-1 -1,-1 -1,0 -1,-1 -1,0 -1,-1 0,-1 -1,-1 -1,-1 -1,-1 -1,-1 -1,-1 -1,0 -1,-1 -1,-1 -1,0 -1,-1 0,-1 -1,-1 -1,-1 -1,-1 -1,-1 -1,-1 -1,-1 -1,-1 -1,-1 -1,0 -1,-1 -1,0 -1,-1 0,-1 -1,-1 -1,-1 -1,-1 -1,-1 -1,1 -1,0 -1,1Z"/>
<path onmouseover="hoverPath(evt)" onmouseout="recoverPath(evt)" fill="rgb(247,246,233)" d="M  4,142l 4,4 1,1 0,1 1,0 1,1 1,0 1,1 1,1 1,1 1,1 1,1 1,1 1,1 1,1 1,1 0,1 1,0 1,1 1,1 1,0 1,1 1,1 1,1 1,1 1,1 1,1 0,1 1,0 1,1 1,0 1,1 1,1 1,1 1,1 1,1 1,1 0,1 1,0 1,1 0,2 1,1 1,1 1,1 1,1 1,1 1,1 1,-1 2,0 1,1 1,1 1,1 1,1 0,1 1,0 1,1 0,2 1,1 1,1 1,1 0,1 2,0 1,1 1,1 0,3 -1,1 2,0 1,1 0,1 1,1 0,1 1,1 0,1 1,1 1,1 1,1 1,1 0,1 2,0 1,1 1,1 0,2 1,-1 0,-2 -1,-1 -1,0 -1,-1 -1,-1 0,-2 -1,-1 -2,0 -1,-1 -1,-1 0,-1 -1,-1 0,-2 -1,-1 0,-1 -1,-1 0,-1 -1,-1 0,-1 -1,-1 -1,-1 0,-1 -1,-1 -1,-1 0,-1 -1,0 -1,-1 -1,-1 -1,-1 0,-1 -1,0 -1,-1 0,-2 -1,-1 -1,-1 -1,-1 -4,0 -1,-1 -1,-1 -2,-2 -1,-1 -1,-1 0,-1 -1,0 -1,-1 -1,0 -1,-1 -1,-1 -1,-1 -1,-1 -2,-2 0,-1 -1,0 -1,-1 -1,0 -3,-3 -1,-1 -2,-2 -1,-1 0,-1 -1,0 -1,-1 -1,-1 -1,0 -1,-1 -1,-1 -1,-1 -1,-1 -1,-1 -1,-1 -1,-1 -1,-1 0,-1 -1,0 -1,-1 0,-2 -1,-1 -1,-1 0,-2 1,-1 1,-1 1,-1 1,-1 1,-1 1,-1 1,-1 1,-1 1,-1 -1,-1 0,-4 -3,0 0,2 -1,1 -1,1 -1,1 -1,1 -1,1 -1,1 -1,1 -1,1 -1,1 -2,0 0,8 1,0 1,-1Z"/>
<path onmouseover="hoverPath(evt)" onmouseout="recoverPath(evt)" fill="rgb(244,243,235)" d="M  158,158l -1,1 0,1 -2,2 -1,1 0,1 -1,1 -2,0 -1,1 1,1 0,2 -1,1 -2,0 -1,1 1,1 0,2 -1,1 -1,1 0,1 -1,1 -2,0 -1,1 1,1 0,2 -1,1 -1,1 0,1 -1,1 0,1 -1,1 -1,1 0,1 -1,1 -2,0 -1,1 1,1 0,2 -1,1 0,1 -1,1 0,1 -1,1 -1,1 -1,1 -2,0 0,1 -1,1 -1,1 1,1 0,2 -1,1 -1,1 0,1 -1,1 -2,0 -1,1 1,1 0,2 -1,1 -1,1 0,1 -1,1 0,1 -1,1 -1,1 0,1 -1,1 -2,0 -1,1 1,1 0,2 -1,1 0,1 -1,1 -1,1 -2,0 -1,1 -1,1 -2,0 -1,-1 1,2 0,4 -2,2 1,1 0,2 -1,1 -1,1 0,1 -1,1 -2,0 -1,1 1,1 0,2 -1,1 0,1 72,0 0,-2 1,-1 1,-1 0,-1 1,-1 -1,-1 0,-2 1,-1 1,-1 0,-1 1,-1 2,0 1,-1 1,-1 0,-1 1,-1 -1,-1 0,-2 1,-1 1,-1 0,-1 1,-1 2,0 1,-1 1,-1 0,-1 1,-1 -1,-1 0,-2 1,-1 1,-1 0,-1 1,-1 2,0 2,-2 0,-1 1,-1 -1,-1 0,-2 1,-1 1,-1 0,-1 1,-1 2,0 1,-1 1,-1 0,-1 1,-1 -1,-1 0,-2 1,-1 1,-1 0,-1 1,-1 2,0 1,-1 1,-1 0,-1 1,-1 -1,-1 0,-2 2,-2 0,-1 1,-1 2,0 1,-1 -1,-1 0,-2 1,-1 1,-1 0,-1 -1,-1 0,-2 -1,1 -3,0 -1,-1 -1,0 -1,-1 -1,0 -1,-1 -1,0 -1,-1 0,-2 -1,0 -1,-1 -1,1 -2,0 -1,-1 -2,0 -1,-1 -1,0 -1,-1 -1,0 -1,-1 -1,0 -1,-1 0,-2 -1,0 -1,-1 -1,1 -2,0 -1,-1 -2,0 -1,-1 -1,0 -1,-1 -1,0 -1,-1 -1,0 -1,-1 0,-2 -1,0 -1,-1 -1,1 -2,0 -1,-1 -1,0 -1,-1 0,-2 -4,0 -1,1 -1,0Z"/>
<path onmouseover="hoverPath(evt)" onmouseout="recoverPath(evt)" fill="rgb(243,242,235)" d="M  16,131l -2,2 -1,1 -1,1 -1,1 -1,1 -1,1 -1,1 1,1 1,1 0,2 1,0 1,1 0,1 1,1 1,1 3,3 1,1 1,1 1,0 1,1 1,1 1,0 1,1 0,1 1,1 1,1 1,1 1,1 1,1 1,1 1,0 1,1 1,0 1,1 0,1 1,1 1,1 1,1 1,1 1,1 1,0 1,1 1,0 1,1 0,1 1,1 1,1 1,1 1,1 1,1 4,0 1,1 1,1 1,1 1,1 0,2 1,0 1,1 0,1 1,1 1,1 1,0 1,1 0,1 1,1 1,1 0,1 1,1 1,1 0,1 1,1 0,1 1,1 0,1 1,1 0,2 1,1 0,1 1,1 2,0 1,1 1,1 0,2 1,1 1,0 1,1 1,1 0,3 1,1 1,1 1,0 1,1 1,0 1,1 0,2 2,0 1,1 1,1 1,0 1,1 1,1 1,-1 2,0 1,1 1,1 0,2 1,1 1,-1 2,0 1,1 1,1 1,1 1,0 1,1 1,-1 1,-1 2,0 1,-1 0,-1 1,-1 -1,-1 0,-2 1,-1 1,-1 0,-1 1,-1 2,0 1,-1 -1,-1 0,-2 1,-1 2,0 1,-1 -1,-1 0,-2 1,-1 1,-1 0,-1 1,-1 2,0 1,-1 -1,-1 0,-2 1,-1 1,-1 0,-1 1,-1 2,0 1,-1 1,-1 0,-1 1,-1 0,-1 1,-1 -1,-1 0,-2 1,-1 1,-1 0,-1 1,-1 2,0 1,-1 -1,-1 0,-2 1,-1 2,0 1,-1 -1,-1 0,-2 1,-1 1,-1 0,-1 1,-1 2,0 1,-1 -1,-1 0,-2 1,-1 1,-1 0,-1 1,-1 0,-1 1,-1 1,-1 0,-1 1,-1 2,0 1,-1 1,-1 0,-1 1,-1 0,-3 1,-1 1,0 1,-1 6,0 1,1 1,0 1,1 1,0 1,1 1,0 1,1 1,0 1,1 0,2 1,0 1,1 1,0 1,1 1,0 1,1 1,0 1,-1 2,0 1,1 1,0 1,1 1,0 1,1 0,2 1,0 1,1 1,0 1,1 1,0 1,1 1,0 1,-1 2,0 1,1 1,0 1,1 1,0 1,1 0,2 1,0 1,1 1,0 1,1 1,0 1,1 1,0 1,-1 2,0 1,1 1,0 1,1 0,2 -1,1 0,1 1,0 1,-1 1,0 1,-1 2,0 1,1 1,0 1,1 1,0 1,1 1,0 1,1 1,0 1,1 1,0 1,1 1,0 1,1 1,0 1,1 1,0 1,1 1,0 1,1 1,0 1,1 1,0 1,1 1,0 1,1 1,0 1,1 1,0 1,1 1,0 1,1 2,0 0,-7 -1,0 -1,-1 -1,0 -1,-1 -2,0 -1,-1 -1,0 -1,-1 -1,0 -1,-1 -1,0 -1,-1 -1,0 -1,-1 -1,0 -1,-1 -1,0 -1,-1 -1,0 -1,-1 -1,0 -1,-1 -1,0 -1,-1 -1,0 -1,-1 -1,0 -1,-1 -2,0 -1,-1 -1,0 -1,-1 -1,0 -1,-1 -1,0 -1,-1 -1,0 -1,-1 -1,0 -1,-1 -1,0 -1,-1 -1,0 -1,-1 -1,0 -1,-1 -1,0 -1,-1 -1,0 -1,-1 -1,0 -1,-1 -2,0 -1,-1 -1,0 -1,-1 -1,0 -1,-1 -1,0 -1,-1 -1,0 -1,-1 -1,0 -1,-1 -1,0 -1,-1 -1,0 -1,-1 -1,0 -1,-1 -1,0 -1,-1 -1,0 -1,-1 -1,0 -1,-1 -2,0 -1,-1 -1,0 -1,-1 -1,0 -1,-1 -1,0 -1,-1 -1,0 -1,-1 -1,0 -1,-1 -1,0 -1,-1 -1,0 -1,-1 -1,0 -1,-1 -1,0 -1,-1 -1,0 -1,-1 -1,0 -1,-1 -2,0 -1,-1 -1,0 -1,-1 -1,0 -1,-1 -1,0 -1,-1 -1,0 -1,-1 -1,0 -1,-1 -1,0 -1,-1 -1,0 -1,-1 -1,0 -1,-1 -1,0 -1,-1 -1,0 -1,-1 -1,0 -1,-1 -1,0 -1,-1 -2,0 -1,-1 -1,0 -1,-1 -1,0 -1,-1 -1,0 -1,-1 -1,0 -1,-1 -1,0 -1,-1 -1,0 -1,-1 -1,0 -1,-1 -1,0 -1,-1 -2,0 -1,-1 -1,0 -1,-1 -1,0 -1,-1 -1,0 -1,-1 -1,0 -1,-1 -1,0 -1,-1 -1,0 -1,-1 -1,0 -1,-1 -1,0 -1,-1 -1,0 -1,-1 -2,0 -1,-1 -1,0 -1,-1 -1,0 -1,-1 -1,0 -1,-1 -1,0 -1,-1 -1,0 -1,-1 -1,0 -1,-1 -1,0 -1,-1 -1,0 -1,-1 -1,0 -1,-1 -1,0 -1,-1 -1,0 -1,-1 -2,0 -1,-1 -1,0 -1,-1 -2,0 -1,-1 -4,0 -1,-1 -1,0 -1,-1 0,-4 -2,0 -1,-1 -1,-1 -1,-1 -2,0 -1,-1 -1,0 -1,-1 -1,0 -1,-1 -1,0 -1,-1 -1,-1 -1,0 -1,-1 -1,0 -1,-1 -1,0 -1,-1 -1,0 -1,-1 -1,-1 -1,0 -1,-1 -1,0 -1,-1 -1,0 -1,-1 -1,0 -1,-1 -1,-1 -1,0 -1,-1 -1,0 -1,-1 -1,0 -1,-1 -1,0 -1,-1 -1,0 -1,-1 -1,0 0,71 1,0 1,-1 0,0 1,-1 1,-1 1,-1 1,-1 1,-1 1,-1 1,-1 0,-2 1,-1 5,0 1,1 0,4 1,1 0,2 -1,1 103,49 -1,1 -1,1 -1,1 -2,0 -1,-1 0,-2 1,-1 1,-1 1,-1 2,0 1,1 0,2 -103,-49Z"/>
<path onmouseover="hoverPath(evt)" onmouseout="recoverPath(evt)" fill="rgb(169,196,237)" d="M  57,91l 0,0 1,1 2,0 1,1 1,0 1,1 1,0 1,1 1,0 1,1 1,0 1,1 1,0 1,1 1,0 1,1 1,0 1,1 1,0 1,1 1,0 1,1 1,0 1,1 1,0 1,1 2,0 1,1 1,0 1,1 1,0 1,1 1,0 1,1 1,0 1,1 1,0 1,1 1,0 1,1 1,0 1,1 1,0 1,1 1,0 1,1 2,0 1,1 1,0 1,1 1,0 1,1 1,0 1,1 1,0 1,1 1,0 1,1 1,0 1,1 1,0 1,1 1,0 1,1 2,0 1,1 1,0 1,1 1,0 1,1 1,0 1,1 1,0 1,1 1,0 1,1 1,0 1,1 1,0 1,1 1,0 1,1 1,0 1,1 1,0 1,1 1,0 1,1 1,0 1,1 2,0 1,1 1,0 1,1 1,0 1,1 1,0 1,1 1,0 1,1 1,0 1,1 1,0 1,1 1,0 1,1 1,0 1,1 1,0 1,1 1,0 1,1 1,0 1,1 2,0 1,1 1,0 1,1 1,0 1,1 1,0 1,1 1,0 1,1 1,0 1,1 1,0 1,1 1,0 1,1 1,0 1,1 1,0 1,1 1,0 1,1 1,0 1,1 2,0 1,1 1,0 1,1 1,0 1,1 1,0 1,1 1,0 1,1 1,0 1,1 1,0 1,1 1,0 1,1 1,0 1,1 1,0 1,1 1,0 1,1 1,0 1,1 2,0 1,1 1,0 1,1 1,0 1,1 1,0 1,1 1,0 1,1 1,0 1,1 1,0 1,1 1,0 1,1 1,0 1,1 1,0 1,1 1,0 1,1 1,0 1,1 2,0 1,1 1,0 1,1 0,-186 -255,0 0,60 2,0 1,1 1,0 1,1 1,0 1,1 1,0 1,1 1,0 1,1 1,0 1,1 1,1 1,0 1,1 1,0 1,1 1,0 1,1 1,0 2,2 1,0 1,1 1,0 1,1 1,0 1,1 1,0 1,1 1,1 1,0 1,1 1,0 1,1 1,0 1,1 2,0 1,1 1,1 1,1 2,0 1,1 0,4 1,0 1,1 4,0 1,1 2,0 1,1Z"/>
<path onmouseover="hoverPath(evt)" onmouseout="recoverPath(evt)" fill="rgb(244,243,235)" d="M  217,183l -2,0 -1,1 1,1 0,2 -1,1 -1,1 0,1 -1,1 -2,0 -1,1 1,1 0,2 -1,1 0,1 -1,1 -1,1 -1,1 0,1 -1,1 -2,0 -1,1 1,1 0,2 -1,1 0,1 -1,1 -1,1 -1,1 0,1 -1,1 -2,0 -1,1 1,1 0,2 -1,1 0,1 -1,1 -2,2 0,1 -1,1 -2,0 -1,1 1,1 0,2 -1,1 0,1 -2,2 -1,1 0,1 -1,1 -2,0 -1,1 1,1 0,2 -1,1 0,1 -1,1 -1,1 -1,1 0,1 -1,1 -2,0 -1,1 1,1 0,2 -1,1 0,1 -1,1 -1,1 0,1 83,0 0,-58 -2,0 -1,1 -2,0 -1,-1 -1,0 -1,-1 -1,0 -1,-1 -1,0 -1,-1 -1,0 -1,-1 -1,0 -1,-1 -1,0 -1,-1 0,-2 -1,0 -1,-1 -1,0 -1,-1 -1,0 -1,-1 -1,0 -1,-1 -1,0 -1,-1 -1,0 -1,-1 -1,0 -1,-1 -1,0 -1,-1 -1,1 -1,0 -1,1 -1,0 17,70 -2,0 -1,-1 0,-2 1,-1 2,0 1,1 0,2 -1,1 -17,-70 19,65 1,0 1,-1 -2,1 -19,-65 21,63 0,-1 -1,-1 0,0 1,2 -21,-63 19,61 -1,0 -1,1 0,0 2,-1 -19,-61 17,63 0,0 -17,-63 32,44 0,2 -1,1 -2,0 -1,-1 0,-2 1,-1 2,0 1,1 -32,-44 24,55 -1,-1 0,-2 1,-1 2,0 1,1 0,2 -1,1 -2,0 -24,-55Z"/>
</svg>