<svg width="256" height="256" xmlns="http://www.w3.org/2000/svg"><script> 
var tempColor;
function hoverPath(evt){
obj = evt.target;
tempColor = obj.getAttribute("fill");
obj.setAttribute("fill","red");
//alert(tempColor);
//obj.setAttribute("stroke","red");}
function recoverPath(evt){
obj = evt.target;
obj.setAttribute("fill", tempColor);
//obj.setAttribute("stroke", tempColor);
}</script><path onmouseover="hoverPath(evt)" onmouseout="recoverPath(evt)" fill="rgb(244,243,236)" d="M  0,1l 0,160 6,0 1,-1 14,0 1,-1 13,0 1,-1 14,0 1,-1 15,0 1,-1 18,0 1,-1 -1,-1 0,-57 1,-1 0,-62 -1,-1 0,-33 -84,0 -1,1Z"/>
<path onmouseover="hoverPath(evt)" onmouseout="recoverPath(evt)" fill="rgb(253,253,253)" d="M  1,163l -1,0 0,1 8,0 1,-1 14,0 1,-1 13,0 1,-1 14,0 1,-1 30,0 1,-1 17,0 1,-1 18,0 1,-1 17,0 1,-1 12,0 0,-2 -7,0 -1,1 -18,0 -1,1 -18,0 -1,1 -18,0 -1,1 -18,0 -1,1 -15,0 -1,1 -14,0 -1,1 -13,0 -1,1 -14,0 -1,1Z"/>
<path onmouseover="hoverPath(evt)" onmouseout="recoverPath(evt)" fill="rgb(244,243,237)" d="M  1,172l -1,0 0,83 149,0 0,-94 -10,0 -1,1 -9,0 -1,1 -9,0 -1,1 -14,0 -1,1 -12,0 -1,1 -13,0 -1,1 -14,0 -1,1 -14,0 -1,1 -10,0 -1,1 -11,0 -1,1 -20,0 -1,1Z"/>
<path onmouseover="hoverPath(evt)" onmouseout="recoverPath(evt)" fill="rgb(172,198,238)" d="M  87,1l 0,31 1,1 0,64 -1,1 0,55 1,1 0,1 1,0 0,-1 1,-1 0,-145 1,-1 1,-1 2,0 1,-1 9,0 1,1 6,0 1,1 9,0 1,1 7,0 1,1 5,0 1,1 3,0 1,1 7,0 1,1 1,0 1,-1 4,0 1,1 8,0 1,1 9,0 1,1 4,0 1,1 6,0 0,-1 1,-1 -2,1 -3,0 -1,-1 -5,0 -1,-1 -5,0 -1,-1 -4,0 -1,-1 -17,0 -1,-1 -9,0 -49,-8 46,7 -3,0 -4,-1 -4,0 -3,-1 -5,0 -1,-1 -8,0 28,3 -46,-7 8,3 -1,1 -2,0 -1,-1 -1,-1 0,-3 -3,0 8,4 -8,-3Z"/>
<path onmouseover="hoverPath(evt)" onmouseout="recoverPath(evt)" fill="rgb(244,243,237)" d="M  92,1l 0,1 1,1 1,-1 9,0 1,1 10,0 1,1 5,0 1,1 6,0 1,1 6,0 1,1 11,0 1,1 17,0 1,1 4,0 1,1 5,0 1,1 5,0 1,1 2,0 1,-1 0,-3 1,-1 0,-2 1,-1 0,-4 -94,0 -1,1Z"/>
<path onmouseover="hoverPath(evt)" onmouseout="recoverPath(evt)" fill="rgb(244,243,236)" d="M  92,9l 0,145 -1,1 13,0 1,-1 18,0 1,-1 18,0 1,-1 7,0 0,-7 1,-1 0,-4 1,-1 0,-3 1,-1 0,-3 1,-1 0,-3 1,-1 0,-3 1,-1 0,-3 1,-1 0,-2 1,-1 0,-3 1,-1 0,-3 1,-1 0,-3 1,-1 0,-3 1,-1 0,-3 1,-1 0,-2 1,-1 0,-3 1,-1 0,-3 1,-1 0,-3 1,-1 0,-3 1,-1 0,-3 1,-1 0,-3 1,-1 0,-3 1,-1 0,-3 1,-1 0,-3 1,-1 0,-3 1,-1 0,-3 1,-1 0,-2 1,-1 0,-3 1,-1 0,-3 1,-1 0,-3 1,-1 0,-3 1,-1 0,-2 1,-1 0,-4 1,-1 0,-2 1,-1 0,-2 -5,0 -1,-1 -4,0 -1,-1 -9,0 -1,-1 -8,0 -1,-1 -2,0 -1,1 -3,0 -1,-1 -7,0 -1,-1 -3,0 -1,-1 -5,0 -1,-1 -7,0 -1,-1 -9,0 -1,-1 -6,0 -1,-1 -7,0 -1,1 -2,0 -1,1Z"/>
<path onmouseover="hoverPath(evt)" onmouseout="recoverPath(evt)" fill="rgb(186,205,226)" d="M  140,159l 11,0 0,-1 -10,0 -1,1 -5,1 0,0 -1,-1 -12,0 -1,1 -18,0 -1,1 -17,0 -1,1 -30,0 -1,1 -14,0 -1,1 -13,0 -1,1 -14,0 -1,1 -9,0 0,4 1,0 1,-1 20,0 1,-1 11,0 1,-1 10,0 1,-1 14,0 1,-1 14,0 1,-1 13,0 1,-1 12,0 1,-1 14,0 1,-1 9,0 1,-1 7,0 5,-1Z"/>
<path onmouseover="hoverPath(evt)" onmouseout="recoverPath(evt)" fill="rgb(244,243,236)" d="M  159,209l 0,46 96,0 0,-100 -3,0 -1,1 -15,0 -1,1 -15,0 -1,1 -24,0 -1,1 -16,0 -1,1 -18,0 0,42 1,1 3,0 1,1 0,2 -1,1 -4,0Z"/>
<path onmouseover="hoverPath(evt)" onmouseout="recoverPath(evt)" fill="rgb(243,231,137)" d="M  191,0l -2,0 0,5 -1,1 0,2 -1,1 0,2 1,1 0,2 -1,1 0,1 -1,1 -1,0 0,3 -1,1 0,2 -1,1 0,4 -1,1 0,2 -1,1 0,3 -1,1 0,3 -1,1 0,3 -1,1 0,3 -1,1 0,2 -1,1 0,3 -1,1 0,3 -1,1 0,3 -1,1 0,3 -1,1 0,3 -1,1 0,3 -1,1 0,3 -1,1 0,3 -1,1 0,3 -1,1 0,3 -1,1 0,3 -1,1 0,2 -1,1 0,3 -1,1 0,3 -1,1 0,3 -1,1 0,3 -1,1 0,3 -1,1 0,2 -1,1 0,3 -1,1 0,3 -1,1 0,3 -1,1 0,3 -1,1 0,3 -1,1 0,4 -1,1 0,6 1,1 0,7 -1,1 -1,0 0,94 6,0 0,-49 1,-1 4,0 -4,-1 0,0 -1,-1 0,-43 -1,-1 0,-3 1,-1 0,-2 1,-1 0,-5 1,-1 0,-6 1,-1 0,-3 1,-1 0,-3 1,-1 0,-2 1,-1 0,-3 1,-1 0,-3 1,-1 0,-3 1,-1 0,-3 1,-1 0,-3 1,-1 0,-2 1,-1 0,-3 1,-1 0,-3 1,-1 0,-3 1,-1 0,-3 1,-1 0,-3 1,-1 0,-3 1,-1 0,-3 1,-1 0,-3 1,-1 0,-3 1,-1 0,-3 1,-1 0,-3 1,-1 0,-3 1,-1 0,-2 1,-1 0,-3 1,-1 0,-3 1,-1 0,-3 1,-1 0,-3 1,-1 0,-2 1,-1 0,-3 1,-1 0,-3 1,-1 0,-2 1,-1 0,-3 -1,-1 0,-3 1,-1 0,-1 1,-1 1,0 0,-1 1,-1 0,-2 1,-1 0,-4 1,-1 0,-1 -1,-1 0,-2Z"/>
<path onmouseover="hoverPath(evt)" onmouseout="recoverPath(evt)" fill="rgb(244,243,236)" d="M  193,20l -1,1 0,4 -1,1 0,2 -1,1 0,3 -1,1 0,3 -1,1 0,2 -1,1 0,3 -1,1 0,3 -1,1 0,3 -1,1 0,3 -1,1 0,2 -1,1 0,3 -1,1 0,3 -1,1 0,3 -1,1 0,3 -1,1 0,3 -1,1 0,3 -1,1 0,3 -1,1 0,3 -1,1 0,3 -1,1 0,3 -1,1 0,3 -1,1 0,3 -1,1 0,2 -1,1 0,3 -1,1 0,3 -1,1 0,3 -1,1 0,3 -1,1 0,3 -1,1 0,2 -1,1 0,3 -1,1 0,3 -1,1 0,6 -1,1 0,4 17,0 1,-1 15,0 1,-1 17,0 1,-1 15,0 1,-1 16,0 1,-1 10,0 0,-121 -9,0 -1,-1 -12,0 -1,-1 -7,0 -1,-1 -6,0 -1,-1 -6,0 -1,-1 -6,0 -1,-1 -6,0 -1,-1 -2,0 -1,1Z"/>
<path onmouseover="hoverPath(evt)" onmouseout="recoverPath(evt)" fill="rgb(244,243,236)" d="M  197,0l -1,0 0,1 1,1 0,3 -1,1 0,4 -1,1 0,2 -1,1 4,0 1,1 4,0 1,1 6,0 1,1 8,0 1,1 7,0 1,1 7,0 1,1 8,0 1,1 8,0 1,1 1,0 0,-22Z"/>
<path onmouseover="hoverPath(evt)" onmouseout="recoverPath(evt)" fill="rgb(177,199,231)" d="M  247,152l -5,0 -1,1 -16,0 -1,1 -14,0 -1,1 -19,0 -1,1 -14,0 -1,1 -16,0 0,1 18,0 1,-1 16,0 1,-1 24,0 1,-1 15,0 1,-1 15,0 1,-1 4,0 0,-1Z"/>
<path onmouseover="hoverPath(evt)" onmouseout="recoverPath(evt)" fill="rgb(253,253,253)" d="M  252,149l -6,0 -1,1 -16,0 -1,1 -15,0 -1,1 -17,0 -1,1 -15,0 -1,1 -19,0 0,1 14,0 6,-1 9,0 7,-1 13,0 5,-1 10,0 6,-1 11,0 6,-1 5,0 1,-1Z"/>
<path onmouseover="hoverPath(evt)" onmouseout="recoverPath(evt)" fill="rgb(172,198,235)" d="M  253,24l 0,0 -1,-1 -8,0 -1,-1 -8,0 -1,-1 -7,0 -1,-1 -7,0 -1,-1 -8,0 -1,-1 -6,0 -1,-1 -4,0 -1,-1 -5,0 0,1 -1,1 0,1 2,-2 4,0 1,1 4,0 3,1 4,0 3,1 6,0 1,1 6,0 1,1 7,0 1,1 9,0 -9,-1 -8,-1 21,3Z"/>
</svg>