<svg width="256" height="256" xmlns="http://www.w3.org/2000/svg"><script> 
var tempColor;
function hoverPath(evt){
obj = evt.target;
tempColor = obj.getAttribute("fill");
obj.setAttribute("fill","red");
//alert(tempColor);
//obj.setAttribute("stroke","red");}
function recoverPath(evt){
obj = evt.target;
obj.setAttribute("fill", tempColor);
//obj.setAttribute("stroke", tempColor);
}</script><path onmouseover="hoverPath(evt)" onmouseout="recoverPath(evt)" fill="rgb(244,243,236)" d="M  205,104l -1,0 0,4 1,1 0,1 1,1 0,1 1,1 0,1 1,1 0,1 1,1 0,1 1,1 1,1 0,1 1,1 0,1 1,1 0,1 1,1 0,1 1,1 0,1 1,1 0,3 1,1 0,1 1,1 1,1 0,1 1,1 0,1 1,1 0,2 3,0 1,-1 2,0 1,-1 2,0 1,-1 3,0 0,-1 -1,0 -1,-1 0,-2 -1,-1 0,-2 -1,-1 0,-2 -1,-1 0,-3 -1,-1 0,-2 -1,-1 0,-2 -1,-1 0,-3 -1,-1 0,-2 -1,-1 0,-2 -1,-1 0,-3 -1,-1 0,-2 -1,-1 0,-2 -3,0 -1,1 -3,0 -1,1 -3,0 -1,1 -3,0 -1,1Z"/>
<path onmouseover="hoverPath(evt)" onmouseout="recoverPath(evt)" fill="rgb(244,243,235)" d="M  0,169l 0,64 2,0 1,-1 0,0 1,-1 0,-1 1,-1 1,-1 1,-1 1,-1 1,-1 1,-1 1,-1 1,-1 0,-1 1,-1 1,-1 1,-1 0,-1 1,-1 4,-4 1,-1 1,-1 1,-1 1,0 1,-1 1,-1 1,-1 1,-1 1,-1 1,-1 1,-1 1,-1 1,-1 1,-1 1,-1 1,-1 1,-1 1,-1 1,-1 1,-1 1,-1 1,-1 1,-1 1,-1 1,-1 1,-1 1,-1 0,-1 1,-1 1,-1 0,-1 1,-1 3,0 -1,-1 0,-4 1,-1 0,-1 1,-1 0,-1 1,-1 1,-1 0,-1 1,-1 0,-1 1,-1 0,-1 1,-1 0,-1 2,-2 1,-1 0,-1 1,-1 2,-2 0,-1 1,-1 1,-1 1,-1 1,-1 1,0 0,-1 -1,-1 0,-1 -1,-1 -1,-1 -1,-1 -1,-1 0,-1 -1,-1 -1,0 -1,-1 0,-2 -1,-1 -1,-1 -1,0 -1,-1 0,-2 -1,-1 -1,-1 -1,-1 -1,0 -1,-1 0,-2 -1,-1 -1,-1 -1,-1 -1,0 -1,-1 0,-2 -1,-1 -2,0 -1,1 -1,0 -1,1 -1,1 -1,0 -1,1 -1,1 -1,1 -2,0 -1,-1 -1,1 -1,1 -1,1 -1,0 -1,1 -1,1 -1,1 -1,0 -1,1 -1,1 -2,0 0,1 -1,1 -1,1 -2,0 0,1 -1,1 -1,1 -1,1 -1,0 -1,1 -1,1 -1,1 -1,0 -1,1 -1,1 -1,0 -1,1 -1,0 -1,1 -1,0 -1,1 -2,0Z"/>
<path onmouseover="hoverPath(evt)" onmouseout="recoverPath(evt)" fill="rgb(239,243,246)" d="M  19,89l 0,0 1,1 1,1 0,-3 1,-1 -2,0 -1,-1 -1,-1 0,-1 -1,-1 -1,-1 0,-2 -1,0 -1,-1 -1,-1 0,-2 1,-1 -1,-1 0,0 -1,-1 0,-1 -1,0 -1,-1 0,-2 -1,-1 -2,0 -1,-1 -1,-1 0,-2 1,-1 -1,-1 0,0 -1,-1 0,-1 -1,0 -1,-1 0,-2 -2,0 0,6 2,0 1,1 0,4 2,0 1,1 0,4 2,0 3,3 0,4 1,1 2,0 1,1 1,1 0,1 1,1 1,1 0,2 1,1 3,2 -1,1 0,0 1,1 0,0 1,1 0,2 -1,1 2,0 1,1 1,1 0,2 -1,1 -2,0 -1,1 -2,0 -1,1 -2,0 -1,1 -3,0 -1,1 -2,0 -1,1 -2,0 -1,1 -2,0 -1,1 -3,0 0,2 3,0 1,-1 2,0 1,-1 2,0 1,-1 2,0 1,-1 2,0 1,-1 2,0 1,-1 2,0 1,-1 2,0 2,-2 2,0 1,1 1,1 1,1 0,2 1,-1 2,0 1,1 1,1 1,1 1,1 0,1 2,0 1,1 1,1 1,1 1,1 1,1 0,2 -1,1 -1,1 2,-1 3,0 1,1 1,1 0,2 1,0 1,1 1,1 1,1 1,1 0,2 1,0 1,1 1,1 1,1 1,1 0,2 1,0 1,1 1,1 1,1 0,2 1,0 1,1 1,1 0,1 1,1 1,1 1,1 1,1 0,1 1,1 0,3 -1,1 -1,0 -1,1 -1,1 -1,1 0,1 -1,1 -1,1 -1,1 0,1 -1,1 -1,1 -1,1 0,1 -1,1 0,1 -1,1 0,1 -1,1 0,1 -1,1 -1,1 0,1 -1,1 0,1 -1,1 0,2 1,0 0,-1 1,-1 0,-1 1,-1 0,-1 2,-2 0,-1 1,-1 0,-1 1,-1 0,-1 1,-1 1,-1 0,-1 1,-1 1,-1 0,-1 1,-1 1,-1 1,-1 1,-1 1,-1 1,-1 0,-1 1,-1 2,0 1,1 1,1 0,4 1,0 1,1 0,2 1,0 1,1 0,2 1,0 1,1 0,2 1,0 1,1 0,2 2,0 1,1 1,1 0,1 1,1 1,1 0,1 1,1 1,1 0,1 1,1 1,1 0,1 1,1 1,1 0,1 1,1 1,1 0,4 1,0 1,1 1,0 1,1 1,1 0,2 -1,1 1,1 2,0 1,1 1,1 0,1 1,1 1,1 0,1 1,1 1,1 0,1 1,1 1,1 0,1 1,1 1,1 0,1 1,1 1,1 0,4 1,0 1,1 1,0 1,1 1,1 0,1 1,1 1,1 1,1 1,1 0,3 1,1 1,1 1,1 3,0 1,1 1,1 1,1 1,1 1,1 1,1 1,1 1,1 0,1 1,1 1,0 1,1 1,1 1,1 1,1 1,1 0,1 1,1 1,1 1,1 0,2 2,0 0,-2 -1,-1 0,-1 -1,0 -1,-1 -1,-1 -1,-1 -1,-1 -1,-1 0,-1 -1,-1 -1,-1 -1,-1 -1,-1 -1,-1 -1,-1 -1,0 -1,-1 -1,-1 -1,-1 -1,-1 -1,-1 -1,-1 -1,-1 -1,-1 -1,-1 -1,-1 -1,-1 -1,-1 -1,-1 -1,-1 -1,-1 0,-2 1,-1 -1,-1 0,0 -1,-1 0,-1 -1,-1 -2,0 -1,-1 -1,-1 0,-1 -1,-1 -1,-1 0,-1 -1,-1 -1,-1 0,-1 -1,-1 -1,-1 0,-1 -1,-1 -1,-1 0,-4 -1,0 -1,-1 -1,0 -1,-1 -1,-1 0,-2 1,-1 -1,-1 0,0 -1,-1 0,-1 -1,-1 -2,0 -1,-1 0,-1 -1,-1 0,-2 1,-1 -3,0 -1,-1 -1,-1 0,-1 -1,-1 -1,-1 0,-1 -1,-1 -1,-1 0,-1 -1,-1 -1,-1 0,-1 -1,-1 -1,-1 0,-1 -1,-1 -1,-1 0,-2 1,-1 -1,-1 0,0 -1,-1 0,-1 -1,-1 -1,-1 0,-1 -1,-1 -1,-1 0,-1 -2,0 -1,-1 -1,-1 0,-1 -1,-1 0,-3 -1,-1 0,-1 -1,-1 -1,0 -1,-1 0,-2 -1,-1 -1,0 -1,-1 -1,0 -1,-1 -1,-1 0,-2 -1,0 -1,-1 -1,-1 -1,-1 -1,-1 0,-2 -1,0 -1,-1 -1,-1 -1,-1 -1,-1 0,-1 -1,-1 -1,-1 -1,-1 0,-3 1,-1 1,-1 2,0 1,-1 1,0 1,-1 1,0 1,-1 2,0 1,-1 1,0 1,-1 1,0 1,-1 2,0 1,-1 1,0 1,-1 1,0 1,-1 3,0 1,1 0,-2 1,-1 1,0 1,-1 3,0 1,1 0,-2 1,-1 1,0 1,-1 3,0 1,1 0,-2 1,-1 1,0 1,-1 3,0 1,1 0,-2 1,-1 2,0 1,-1 1,0 1,-1 1,0 1,-1 3,0 1,1 0,-2 1,-1 2,0 1,-1 2,0 1,-1 1,0 1,-1 -4,0 -1,-1 0,1 -1,1 0,0 -1,1 -1,0 -1,1 -2,0 -1,1 -1,0 -1,1 -2,0 -1,1 -1,0 -1,1 -1,0 -1,1 -2,0 -1,1 -1,0 -1,1 -2,0 -1,1 -1,0 -1,1 -1,0 -1,1 -2,0 -1,1 -1,0 -1,1 -1,0 -1,1 -2,0 -1,1 -1,0 -1,1 -1,0 -1,1 -2,0 -1,1 -1,0 -1,1 -1,0 -1,1 -2,0 -1,1 -1,0 -1,1 -1,0 -1,1 -2,0 -1,1 -1,0 -1,1 -2,0 -1,1 -4,0 -1,-1 -1,-1 -1,-1 -1,0 -1,-1 -1,-1 -1,-1 -1,-1 0,-1 -1,0 -1,-1 -1,0 -1,-1 -1,-1 -1,0 -1,-1 -1,-1 0,-1 -1,-1 -1,0 -1,-1 -1,-1 0,-4 -2,0 -1,-1 -1,-1 0,-1 -1,-1 -3,-2Z"/>
<path onmouseover="hoverPath(evt)" onmouseout="recoverPath(evt)" fill="rgb(247,237,140)" d="M  197,0l -4,0 1,1 0,0 1,1 0,1 1,1 0,2 1,1 0,1 1,1 0,1 1,1 0,3 1,1 0,2 1,1 0,3 1,1 0,3 1,1 0,3 1,1 0,2 1,1 0,4 1,1 0,2 1,1 0,3 1,1 0,3 1,1 0,3 1,1 0,2 1,1 0,3 1,1 0,3 1,1 0,3 1,1 0,2 1,1 0,3 1,1 0,3 1,1 0,2 1,1 0,3 1,1 0,2 1,1 0,2 1,1 0,2 1,0 1,1 0,1 1,1 0,2 -1,1 0,1 1,1 0,2 1,1 0,3 1,1 0,2 1,1 0,2 1,1 0,3 1,1 0,2 1,1 0,2 1,1 0,3 1,1 0,2 1,1 0,2 1,1 0,2 1,0 1,1 0,5 -1,1 3,0 1,-1 2,0 1,-1 2,0 1,-1 0,-1 -1,0 -1,-1 0,-1 -1,-1 -1,-1 0,-3 1,-1 0,-1 -1,-1 0,-3 -1,-1 0,-2 -1,-1 0,-2 -1,-1 0,-3 -1,-1 0,-2 -1,-1 0,-2 -1,-1 0,-3 -1,-1 0,-2 -1,-1 0,-2 -1,-1 0,-4 -2,0 -1,-1 0,-2 -1,-1 0,-2 1,-1 0,-2 -1,-1 0,-2 -1,-1 0,-2 -1,-1 0,-2 -1,-1 0,-3 -1,-1 0,-3 -1,-1 0,-3 -1,-1 0,-2 -1,-1 0,-3 -1,-1 0,-3 -1,-1 0,-3 1,-1 -1,-1 0,-3 1,-1 0,-1 -1,-1 -1,-1 0,-1 -1,-1 0,-1 -1,-1 0,-1 -1,-1 0,-1 -2,0 -1,-1 0,-3 1,-1 0,-1 -1,-1 0,-3 -1,-1 0,-3 -1,-1 0,-3 -1,-1 0,-3 -1,-1 0,-2 -1,-1 0,-2 -1,-1 0,-2 -1,-1 0,-3Z"/>
<path onmouseover="hoverPath(evt)" onmouseout="recoverPath(evt)" fill="rgb(243,243,236)" d="M  207,1l 0,1 1,1 0,2 1,1 0,2 1,1 0,2 1,1 0,3 1,1 0,3 1,1 0,3 1,1 0,3 1,1 0,3 -1,1 0,1 2,0 1,1 0,1 1,1 0,1 1,1 0,1 1,1 0,1 1,1 1,1 0,3 -1,1 0,1 1,1 0,2 -1,1 0,1 1,1 0,3 1,1 0,3 1,1 0,2 1,1 0,3 1,1 0,3 1,1 0,3 1,1 0,2 1,1 0,2 1,1 0,2 1,1 0,3 1,1 1,0 1,-1 4,0 1,-1 3,0 1,-1 1,0 0,-1 -1,-1 0,0 -2,-2 0,-1 -1,-1 -1,-1 -1,-1 -1,-1 0,-1 -1,-1 -1,-1 0,-3 1,-1 3,0 1,1 1,1 1,1 0,1 1,1 1,1 1,1 1,1 0,1 1,1 1,1 1,1 0,1 1,0 1,1 4,0 0,-85 -47,0 -1,1Z"/>
<path onmouseover="hoverPath(evt)" onmouseout="recoverPath(evt)" fill="rgb(244,243,235)" d="M  234,97l 0,2 1,1 0,2 1,1 0,2 1,1 0,3 1,1 0,2 1,1 0,2 1,1 0,3 1,1 0,2 1,1 0,2 1,1 0,3 1,1 0,3 -1,1 0,1 1,1 1,1 0,1 2,0 1,-1 3,0 1,-1 3,0 0,-35 -1,0 -1,-1 -1,-1 0,-1 -1,-1 0,-1 -1,-1 0,-1 -1,-1 -1,-1 -2,0 -1,1 -2,0 -1,1 -2,0 -1,1 -2,0 -1,1 -1,0 -1,1Z"/>
<path onmouseover="hoverPath(evt)" onmouseout="recoverPath(evt)" fill="rgb(243,242,234)" d="M  0,114l 0,33 1,0 1,-1 1,0 1,-1 1,0 1,-1 1,0 1,-1 1,-1 1,0 1,-1 1,-1 1,-1 1,0 1,-1 1,-1 0,-1 1,-1 2,0 1,-1 0,-1 1,-1 2,0 1,-1 1,-1 1,0 1,-1 1,-1 1,-1 1,0 1,-1 2,-2 1,0 1,-1 1,-1 1,-1 1,0 1,-1 1,-1 1,0 1,-1 1,-1 -1,-1 0,0 -1,-1 -2,-2 -2,0 -1,-1 0,-1 -1,-1 -1,-1 -1,-1 -1,1 -2,0 -1,-1 0,-2 -1,-1 -1,-1 -1,1 0,0 -1,1 -2,0 -1,1 -2,0 -1,1 -2,0 -1,1 -2,0 -1,1 -2,0 -1,1 -2,0 -1,1 -2,0 -1,1 -3,0 -1,1Z"/>
<path onmouseover="hoverPath(evt)" onmouseout="recoverPath(evt)" fill="rgb(244,243,236)" d="M  0,242l 0,13 148,0 0,-1 -1,-1 0,0 -1,-1 -1,-1 0,-1 -1,-1 -1,-1 -1,-1 -1,-1 -1,0 -1,-1 -1,-1 0,-1 -1,-1 -1,-1 -1,-1 -1,-1 -1,-1 -1,-1 -1,-1 -3,0 -1,-1 -1,-1 -1,-1 -1,-1 0,-3 -1,-1 -1,-1 -1,-1 -1,-1 0,-1 -1,-1 -1,0 -1,-1 -1,0 -1,-1 0,-4 -1,-1 -1,-1 0,-1 -1,-1 -1,-1 0,-1 -1,-1 -1,-1 0,-1 -1,-1 -1,-1 0,-1 -1,-1 -1,-1 0,-1 -1,-1 -2,0 -1,-1 -1,-1 0,-2 1,-1 -1,-1 -1,0 -1,-1 -1,0 -1,-1 0,-4 -1,-1 -1,-1 0,-1 -1,-1 -1,-1 0,-1 -1,-1 -1,-1 0,-1 -1,-1 -1,-1 0,-1 -1,-1 -1,-1 0,-1 -1,-1 -2,0 -1,-1 0,-2 -1,0 -1,-1 0,-2 -1,0 -1,-1 0,-2 -1,0 -1,-1 0,-2 -1,0 -1,-1 0,-4 -1,-1 0,1 -1,1 0,0 -1,1 -1,1 -1,1 -2,2 0,1 -1,1 -1,1 0,1 -2,2 0,1 -1,1 0,1 -1,1 0,1 -1,1 -1,1 0,1 -1,1 0,1 -1,1 0,1 -1,1 -1,0 0,1 -1,1 0,1 -1,1 0,2 -1,1 0,1 -1,1 0,1 -1,1 -1,1 0,1 -1,1 -1,1 -1,1 -1,1 -1,1 -1,1 -1,1 -1,1 -2,2 -1,1 -1,1 -1,1 -1,0 -2,2 -1,1 -1,1 -1,1 -1,0 -1,1 -1,1 -1,1 -2,2 -1,1 -1,1 -1,1 0,1 -2,2 -1,1 -1,1 -1,1 0,1 -1,1 -1,1 -1,1 0,1 -1,1 -1,1 -1,0 -1,1 -1,1 -1,1 -1,1 -1,1 -1,1 -1,1 -1,1 -1,0 -1,1Z"/>
<path onmouseover="hoverPath(evt)" onmouseout="recoverPath(evt)" fill="rgb(243,242,233)" d="M  36,102l -3,0 1,1 1,0 1,1 1,1 1,0 1,1 1,0 1,1 0,1 1,1 1,1 1,1 1,0 1,1 1,1 1,1 2,0 1,-1 2,0 1,-1 1,0 1,-1 2,0 1,-1 1,0 1,-1 1,0 1,-1 2,0 1,-1 1,0 1,-1 1,0 1,-1 2,0 1,-1 1,0 1,-1 1,0 1,-1 2,0 1,-1 1,0 1,-1 1,0 1,-1 2,0 1,-1 1,0 1,-1 1,0 1,-1 2,0 1,-1 1,0 1,-1 2,0 1,-1 1,0 1,-1 1,0 1,-1 2,0 1,-1 1,0 1,-1 2,0 1,-1 1,0 1,-1 0,-2 1,-1 -1,-1 0,-1 -1,-1 0,-3 -1,1 -2,0 0,1 -1,1 -1,0 -1,1 -4,0 -1,1 -3,0 -1,1 -3,0 -1,1 -3,0 -1,1 -4,0 -1,1 -1,0 -1,1 -2,0 -1,1 -2,0 -1,1 -2,0 -1,1 -3,0 -1,1 -2,0 -1,1 -2,0 -1,1 -2,0 -1,1 -2,0 -1,1 -4,0 -1,1 -1,0 -1,1 -3,0 -1,1 -2,0 -1,1 -2,0 -1,1 -3,0 -1,1Z"/>
<path onmouseover="hoverPath(evt)" onmouseout="recoverPath(evt)" fill="rgb(244,243,235)" d="M  80,150l 0,0 -1,1 -2,0 1,1 2,0 1,1 0,1 1,1 1,1 0,1 1,1 1,1 0,1 1,1 1,1 0,2 -1,1 1,1 0,0 1,1 0,1 1,1 1,1 0,1 1,1 1,1 0,1 1,1 1,1 0,1 1,1 1,1 0,1 1,1 4,0 1,1 0,2 2,0 -1,-1 0,-3 1,-1 3,0 1,-1 1,0 1,-1 3,0 1,-1 2,0 1,-1 3,0 1,-1 1,0 1,-1 3,0 1,-1 2,0 1,-1 3,0 1,-1 1,0 1,-1 3,0 1,-1 2,0 1,-1 3,0 1,-1 1,0 1,-1 3,0 1,-1 2,0 1,-1 3,0 1,-1 1,0 1,-1 3,0 1,-1 2,0 1,-1 3,0 1,-1 1,0 1,-1 3,0 1,-1 2,0 1,-1 3,0 1,-1 1,0 1,-1 3,0 1,-1 2,0 1,-1 3,0 1,-1 1,0 1,-1 3,0 1,-1 0,-1 -1,-1 0,-1 -1,-1 0,-1 -1,-1 0,-2 1,-1 2,0 1,1 0,1 1,1 0,1 1,1 1,1 0,1 4,0 1,-1 3,0 0,-1 -1,-1 0,0 -1,-1 0,-1 -1,-1 0,-1 -1,-1 0,-3 -1,-1 0,-1 -1,-1 0,-1 -1,-1 0,-1 -1,-1 0,-1 -1,-1 0,-1 -1,-1 0,-1 -1,-1 -1,-1 0,-1 -1,-1 0,-1 -1,-1 0,-1 -1,-1 0,-1 -1,-1 0,-1 -1,-1 0,-1 -1,-1 0,-1 -1,-1 -1,-1 -4,0 -1,1 -3,0 -1,1 -4,0 -1,1 -4,0 -1,1 -3,0 -1,1 -4,0 -1,1 -4,0 -1,1 -3,0 -1,1 -3,0 -1,1 -2,0 -1,1 -3,0 -1,1 -2,0 -1,1 -2,0 -1,1 -2,0 -1,1 -2,0 -1,1 -1,0 -1,1 -1,0 -1,1 -1,0 -1,1 -1,0 -1,1 -1,1 -1,0 -1,1 -1,1 -1,0 -1,1 -1,0 -1,1 -1,0 -1,1 -1,0 -1,1 -1,0 -1,1 -2,0 -1,1 -1,0 -1,1 -1,0 -1,1 -1,0 -1,1 -1,0 -1,1 -2,0 -1,1 -1,0 -1,1 -1,0 -1,1 -1,0 -1,1 -1,0 -1,1 -1,1 -1,0 -1,1 -1,0 -1,1 -1,0 -1,1 -1,0 -1,1 -1,0 -1,1 -1,0 -1,1 21,35 -1,0 1,1 0,-1 -21,-35 120,-16 -2,0 -1,-1 0,-1 -1,-1 0,-2 1,-1 2,0 1,1 0,1 1,1 0,2 -1,1 -120,16Z"/>
<path onmouseover="hoverPath(evt)" onmouseout="recoverPath(evt)" fill="rgb(244,243,236)" d="M  183,255l 72,0 0,-117 -2,0 -1,1 -3,0 -1,1 -1,0 0,2 -1,1 -1,1 -2,0 -1,1 -2,0 -1,1 -7,0 -1,-1 0,-2 -2,0 -1,1 -2,0 -1,1 -5,0 -1,-1 0,2 -1,1 -3,0 -1,1 -6,0 -1,-1 0,-1 -1,-1 1,3 0,1 -1,1 -1,1 -3,0 -1,1 -1,0 -1,1 -3,0 -1,1 -2,0 -1,1 -3,0 -1,1 -1,0 -1,1 -3,0 -1,1 -2,0 -1,1 -3,0 -1,1 -1,0 -1,1 -3,0 -1,1 -2,0 -1,1 -3,0 -1,1 -1,0 -1,1 -3,0 -1,1 -2,0 -1,1 -3,0 -1,1 -1,0 -1,1 -3,0 -1,1 -2,0 -1,1 -3,0 -1,1 -1,0 -1,1 -3,0 -1,1 -2,0 -1,1 -3,0 -1,1 -1,0 -1,1 -3,0 -1,1 -2,0 -1,1 -3,0 -1,1 -1,0 -1,1 -3,0 0,1 1,1 0,2 -1,1 -2,0 0,1 1,1 0,0 1,1 0,1 1,1 1,1 0,2 -1,1 1,1 1,0 1,1 1,0 1,1 0,4 1,1 1,1 0,1 1,1 1,1 0,1 1,1 1,1 0,1 1,1 1,1 0,1 1,1 2,0 2,2 0,1 1,1 1,1 0,2 -1,1 1,1 0,0 1,1 1,1 1,1 1,1 1,1 1,1 2,2 1,1 1,1 1,1 1,1 1,1 1,0 1,1 1,1 1,1 1,1 1,1 1,1 1,1 0,1 1,1 1,1 1,1 1,1 1,0 1,1 0,1 1,1 0,3 29,0 36,-112 0,-1 -1,-1 0,1 -1,-1 1,-1 0,0 -1,-1 0,-1 -1,-1 -1,-1 0,1 1,1 0,1 1,1 0,0 2,3 -36,112Z"/>
<path onmouseover="hoverPath(evt)" onmouseout="recoverPath(evt)" fill="rgb(175,199,235)" d="M  237,74l 1,1 1,1 0,1 1,1 1,1 1,1 1,1 0,1 1,1 1,1 1,1 0,3 -1,1 -1,0 -1,1 -3,0 -1,1 -4,0 -1,1 -3,0 -1,-1 1,2 0,1 4,0 1,-1 2,0 1,-1 2,0 1,-1 2,0 1,-1 4,0 1,1 1,1 1,1 0,1 1,1 0,1 1,1 0,1 1,1 0,-12 -5,0 -1,-1 -1,0 -1,-1 0,-1 -1,-1 -1,-1 -1,-1 0,-1 -1,-1 -1,-1 -1,-1 -1,-1 0,-1 -1,-1 -1,-1 -1,1Z"/>
<path onmouseover="hoverPath(evt)" onmouseout="recoverPath(evt)" fill="rgb(243,242,234)" d="M  0,79l 0,28 2,0 1,-1 2,0 1,-1 2,0 1,-1 2,0 1,-1 3,0 1,-1 2,0 1,-1 2,0 1,-1 2,0 -1,-1 -2,0 -1,-1 0,-2 1,-1 -1,-1 0,0 -1,-1 0,-1 -1,-1 -2,0 -1,-1 0,-2 1,-1 -1,-1 -1,-1 0,-1 -1,-1 -2,0 -1,-1 -1,-1 0,-4 -1,-1 -1,-1 -2,0 -1,-1 0,-4 -2,0 -1,-1 0,-4 -1,0Z"/>
<path onmouseover="hoverPath(evt)" onmouseout="recoverPath(evt)" fill="rgb(171,198,238)" d="M  51,184l 0,0 -1,1 -1,1 0,1 -1,1 -1,1 -1,1 -6,6 -1,1 -13,13 -1,1 -1,0 -1,1 -1,1 -1,1 -1,1 -1,1 -1,1 -1,1 0,1 -1,1 -1,1 -1,1 0,1 -1,1 -1,1 -1,1 -1,1 -1,1 -1,1 -1,1 -1,1 0,1 -1,1 -1,1 -1,1 -3,0 0,4 1,0 1,-1 0,0 1,-1 1,-1 1,-1 1,-1 1,-1 1,-1 1,-1 1,0 1,-1 0,-1 1,-1 1,-1 1,-1 0,-1 1,-1 1,-1 1,-1 1,-1 1,-1 0,-1 2,-2 1,-1 1,-1 1,-1 1,-1 1,-1 1,-1 1,-1 1,0 1,-1 1,-1 1,-1 1,-1 1,-1 1,0 1,-1 1,-1 1,-1 1,-1 1,-1 1,-1 1,-1 1,-1 3,-3 1,-1 0,-1 1,-1 1,-1 0,-1 1,-1 0,-1 1,-1Z"/>
<path onmouseover="hoverPath(evt)" onmouseout="recoverPath(evt)" fill="rgb(242,242,235)" d="M  56,118l -2,0 -1,1 0,1 1,1 0,0 1,1 1,1 0,1 1,1 1,1 1,1 1,0 1,1 0,2 1,1 1,1 1,1 1,0 1,1 0,2 1,1 1,0 1,1 1,0 1,1 1,1 0,2 1,0 1,1 1,1 0,1 1,0 1,-1 1,0 1,-1 1,-1 1,0 1,-1 1,0 1,-1 1,0 1,-1 1,0 1,-1 1,0 1,-1 1,0 1,-1 1,0 1,-1 1,0 1,-1 1,0 1,-1 1,0 1,-1 1,0 1,-1 1,0 1,-1 1,0 1,-1 1,0 1,-1 2,0 1,-1 1,0 1,-1 1,0 1,-1 1,0 2,-2 1,0 1,-1 1,0 1,-1 1,0 1,-1 1,0 1,-1 1,0 1,-1 1,0 1,-1 1,0 1,-1 1,0 1,-1 2,0 1,-1 1,0 1,-1 2,0 1,-1 2,0 1,-1 3,0 1,-1 3,0 1,-1 3,0 1,-1 3,0 1,-1 2,0 0,-2 -1,-1 0,0 -1,-1 0,-1 -1,-1 0,-1 -1,-1 -1,-1 0,-1 -1,-1 0,-1 -1,-1 0,-1 -1,-1 -1,-1 0,-1 -1,-1 0,-1 -1,-1 0,-1 -1,-1 -1,-1 0,-4 1,-1 2,0 0,-1 1,-1 1,0 1,-1 -4,2 -2,0 -1,-1 0,-2 -1,-1 -1,0 -1,-1 -1,0 -1,-1 -4,0 -1,-1 -8,0 -1,1 -3,0 -1,1 -2,0 -1,1 -2,0 -1,1 -3,0 -1,1 -2,0 0,4 1,1 0,1 1,1 0,1 1,1 0,1 5,0 1,1 0,2 -1,1 -1,0 -1,1 -1,0 -1,1 -2,0 -1,1 -2,0 0,2 -1,1 -2,0 -1,-1 -1,0 -1,1 -1,0 -1,1 -1,0 -1,1 -2,0 0,2 -1,1 -2,0 -1,-1 -1,0 -1,1 -1,0 0,2 -1,1 -2,0 -1,-1 -1,0 -1,1 -1,0 0,2 -1,1 -2,0 -1,-1 -1,0 -1,1 -1,0 0,2 -1,1 -2,0 -1,-1 -1,0 -1,1 -1,0 -1,1 -1,0 -1,1 -2,0 -1,1 -1,0 -1,1 -1,0 -1,1 -2,0 -1,1 -1,0 -1,1 -1,0 -1,1Z"/>
<path onmouseover="hoverPath(evt)" onmouseout="recoverPath(evt)" fill="rgb(177,201,238)" d="M  74,87l -2,0 -1,1 -2,0 -1,1 -2,0 -1,1 -2,0 -1,1 -2,0 -1,1 -2,0 -1,1 -2,0 -1,1 -2,0 -1,1 -3,0 -1,1 -3,0 -1,1 -3,0 -1,1 -2,0 -1,1 -3,0 0,1 3,0 1,-1 3,0 1,-1 2,0 1,-1 2,0 -6,1 8,-2 2,0 2,-1 3,-1 2,0 1,-1 2,0 1,-1 2,0 1,-1 2,0 1,-1 2,0 1,-1 3,0 1,-1 1,-1 4,-1 0,1 1,-1 2,0 1,-1 1,0 1,-1 4,0 1,-1 3,0 1,-1 3,0 1,-1 3,0 1,-1 4,0 1,-1 1,0 0,-1 1,-1 2,0 -1,-1 0,0 -1,-1 -1,0 0,2 -1,1 -1,0 -1,1 1,0 -27,7 -4,1 6,-2Z"/>
<path onmouseover="hoverPath(evt)" onmouseout="recoverPath(evt)" fill="rgb(171,198,237)" d="M  157,111l -3,0 -1,1 -3,0 -1,1 -3,0 -1,1 -2,0 -1,1 -2,0 -1,1 -1,0 -1,1 -2,0 -1,1 -1,0 -1,1 -1,0 -1,1 -1,0 -1,1 -1,0 -1,1 -1,0 -1,1 -1,0 -1,1 -1,0 -1,1 -1,0 -1,1 -1,1 -1,0 -1,1 -1,0 -1,1 -1,0 -1,1 -2,0 -1,1 -1,0 -1,1 -1,0 -1,1 -1,0 -1,1 -1,0 -1,1 -1,0 -1,1 -1,0 -1,1 -1,0 -1,1 -1,0 -1,1 -1,0 -1,1 -1,0 -1,1 -1,0 -1,1 -1,0 -1,1 -1,0 -1,1 -1,0 -1,1 -1,1 -1,0 -1,1 -1,0 0,2 2,0 2,-2 1,0 1,-1 1,0 1,-1 1,0 1,-1 1,0 1,-1 1,0 1,-1 1,0 1,-1 1,-1 1,0 1,-1 1,0 1,-1 1,0 1,-1 1,0 1,-1 2,0 1,-1 1,0 1,-1 1,0 1,-1 1,0 1,-1 1,0 1,-1 2,0 1,-1 1,0 1,-1 1,0 1,-1 1,0 1,-1 1,0 1,-1 1,0 1,-1 1,-1 1,0 1,-1 1,-1 1,0 1,-1 1,0 1,-1 1,0 1,-1 1,0 1,-1 2,0 1,-1 2,0 1,-1 2,0 1,-1 2,0 1,-1 3,0 1,-1 2,0 1,-1 1,-1 1,1 1,0 1,-1 3,0 1,-1 4,0 1,-1 4,0 1,-1 3,0 1,-1 4,0 1,-1 4,0 1,-1 3,0 1,-1 6,0 1,1 1,1 1,1 0,1 1,1 0,1 1,1 0,1 1,1 0,1 1,1 0,1 1,1 0,1 1,1 0,1 1,1 1,1 0,1 1,1 0,1 1,1 0,1 1,1 0,1 1,1 0,1 1,1 0,-1 -1,-2 -1,-2 -1,-2 -1,-2 -1,-2 -1,-1 -1,-2 -1,-2 -1,-2 -1,-2 -1,-2 -1,-2 0,-5 1,-1 1,0 1,-1 3,0 1,-1 3,0 1,-1 3,0 1,-1 5,0 -1,-1 0,-1 -4,0 -1,1 -2,0 -1,1 -2,0 -1,1 -3,0 -1,1 -4,0 -1,1 -4,0 -1,1 -3,0 -1,1 -4,0 -1,1 -4,0 -1,1 -4,0 -1,1 -8,0 -1,-1 -1,0 -1,-1 0,-1 -1,-1 0,-1 -1,-1 0,-1 -1,-1 -1,-1 0,-1 -1,-1 0,-1 -1,-1 0,-1 -1,-1 0,-1 -1,-1 0,-1 -1,-1 0,-1 -1,-1 -1,-1 0,-1 -1,-1 -1,-1 -1,0 0,2 1,1 0,0 1,1 0,1 1,1 0,1 1,1 0,1 1,1 1,1 0,1 1,1 0,1 1,1 0,1 1,1 1,1 0,1 1,1 0,1 1,1 1,1 0,4 -1,1 -2,0 -1,1 -3,0 0,2 -1,-1Z"/>
<path onmouseover="hoverPath(evt)" onmouseout="recoverPath(evt)" fill="rgb(244,243,236)" d="M  157,78l 0,0 -1,1 -1,0 0,1 1,1 0,0 1,1 0,1 1,1 1,1 0,1 1,1 0,1 1,1 0,1 1,1 0,1 1,1 0,1 1,1 0,1 1,1 1,1 0,1 1,1 0,1 1,1 0,1 1,0 1,1 6,0 1,-1 4,0 1,-1 4,0 1,-1 4,0 1,-1 3,0 1,-1 4,0 1,-1 4,0 1,-1 3,0 1,-1 2,0 1,-1 2,0 1,-1 3,0 0,-1 -1,-1 0,-2 -1,-1 0,-2 -1,-1 0,-3 -1,-1 0,-2 -1,-1 0,-3 -1,-1 0,-3 -1,-1 0,-2 -1,-1 0,-3 -1,-1 0,-3 -1,-1 0,-3 -1,-1 0,-2 -1,-1 0,-3 -1,-1 0,-3 -1,-1 0,-3 -1,-1 0,-2 -1,-1 0,-4 -1,-1 0,-2 -1,-1 0,-3 -1,-1 0,-3 -1,-1 0,-3 -1,-1 0,-2 -1,-1 0,-3 -1,-1 0,-1 -1,-1 0,-1 -1,-1 0,-2 -1,-1 0,-1 -1,-1 -1,-1 0,-1 -191,0 0,55 3,0 1,1 0,2 1,0 1,1 0,1 1,1 1,1 0,2 -1,1 1,1 2,0 1,1 1,1 0,2 1,0 1,1 0,1 1,1 1,1 0,2 -1,1 1,1 1,0 1,1 0,2 1,1 1,1 0,1 1,1 2,0 1,1 0,2 -1,1 1,1 0,0 1,1 0,1 1,1 2,0 1,1 0,4 1,1 0,-1 1,-1 3,0 1,-1 2,0 1,-1 3,0 1,-1 3,0 1,-1 3,0 1,-1 2,0 1,-1 2,0 1,-1 2,0 1,-1 2,0 1,-1 2,0 1,-1 2,0 1,-1 2,0 1,-1 2,0 1,-1 3,0 1,-1 3,0 1,-1 4,0 1,-1 3,0 1,-1 3,0 1,-1 1,0 1,-1 3,0 1,-1 2,0 1,-1 1,0 0,-2 1,-1 3,0 1,1 1,1 1,1 0,-1 1,-1 2,0 1,-1 3,0 1,-1 2,0 1,-1 2,0 1,-1 3,0 1,-1 10,0 1,1 4,0 1,1 1,0 1,1 1,0 1,1 1,1 0,2 1,0 1,-1 1,0 1,-1 1,0 1,-1 1,0 1,-1 2,0 1,1 0,-2 1,-1 2,0 1,1 0,-2 1,-1 2,0 1,1 0,2 -1,1 -3,0 0,1 -1,1 -3,0 0,1 -1,1 -1,0 -1,1 -1,0 -1,1 16,-10 0,-2 1,-1 2,0 1,1 0,2 -1,1 -2,0 -1,-1 -16,10 25,-14 0,-2 1,-1 1,0 1,-1 2,0 1,1 0,2 -1,1 -1,0 -1,1 -2,0 -1,-1 -25,14Z"/>
</svg>