<svg width="256" height="256" xmlns="http://www.w3.org/2000/svg"><script> 
var tempColor;
function hoverPath(evt){
obj = evt.target;
tempColor = obj.getAttribute("fill");
obj.setAttribute("fill","red");
//alert(tempColor);
//obj.setAttribute("stroke","red");}
function recoverPath(evt){
obj = evt.target;
obj.setAttribute("fill", tempColor);
//obj.setAttribute("stroke", tempColor);
}</script><path onmouseover="hoverPath(evt)" onmouseout="recoverPath(evt)" fill="rgb(244,243,236)" d="M  0,22l 0,38 10,0 1,-1 11,0 1,-1 10,0 1,-1 11,0 1,-1 10,0 1,-1 11,0 1,-1 10,0 1,-1 10,0 1,-1 2,0 1,-1 0,-2 -1,-1 0,-8 -1,-1 0,-7 -1,-1 0,-6 -1,-1 0,-3 -1,-1 0,-3 -1,-1 0,-5 -1,0 0,2 -1,1 -2,0 -1,-1 -1,0 0,2 -1,1 -2,0 -1,-1 -1,0 -1,1 -1,0 -1,1 -1,0 -1,1 -2,0 -1,1 -3,0 -1,-1 -1,-1 -1,-1 -1,-1 0,-1 -1,-1 -1,0 -1,-1 -1,0 -1,-1 -1,-1 0,-2 1,-1 -1,-1 0,-1 -1,-1 0,-1 -1,-1 0,-2 -18,0 0,3 -1,1 -1,1 -1,0 -1,1 -1,0 -1,1 -1,0 -1,1 -1,0 -1,1 -1,0 -1,1 -1,0 -1,1 -1,0 -1,1 -1,0 -1,1 -1,0 -1,1 -1,1 -1,0 -1,1 -1,0 -1,1 -1,0 -1,1 -1,0 -1,1 -1,0 -1,1 -1,0 -1,1 -2,0 -1,1Z"/>
<path onmouseover="hoverPath(evt)" onmouseout="recoverPath(evt)" fill="rgb(253,253,253)" d="M  0,88l 0,1 2,0 1,-1 7,0 1,-1 8,0 1,-1 8,0 1,-1 8,0 1,-1 8,0 1,-1 8,0 1,-1 8,0 1,-1 8,0 1,-1 14,0 1,-1 4,0 1,-1 9,0 1,-1 8,0 1,-1 8,0 1,-1 8,0 1,-1 7,0 1,-1 8,0 1,-1 8,0 1,-1 8,0 1,-1 9,0 1,-1 8,0 1,-1 9,0 1,-1 6,0 0,-1 -7,0 -1,1 -8,0 -1,1 -9,0 -1,1 -8,0 -1,1 -9,0 -1,1 -8,0 -1,1 -7,0 -1,1 -8,0 -1,1 -8,0 -1,1 -7,0 -1,1 -9,0 -1,1 -9,0 -1,1 -2,0 -1,-1 -2,0 -1,1 -4,0 -1,1 -7,0 -1,1 -9,0 -1,1 -8,0 -1,1 -8,0 -1,1 -8,0 -1,1 -8,0 -1,1 -8,0 -1,1 -8,0 -1,1 -8,0 -1,1Z"/>
<path onmouseover="hoverPath(evt)" onmouseout="recoverPath(evt)" fill="rgb(244,243,235)" d="M  0,204l 0,39 3,0 1,-1 12,0 1,-1 12,0 1,-1 12,0 1,-1 12,0 1,-1 25,0 1,-1 2,0 0,-29 -1,-1 -1,0 -1,-1 -17,0 -1,-1 -26,0 -1,-1 -25,0 -1,-1 -9,0 -1,1Z"/>
<path onmouseover="hoverPath(evt)" onmouseout="recoverPath(evt)" fill="rgb(238,238,231)" d="M  0,250l 0,5 93,0 0,-2 1,-1 0,-8 -1,-1 0,0 -1,-1 -1,0 -1,1 -31,0 -1,1 -12,0 -1,1 -12,0 -1,1 -12,0 -1,1 -12,0 -1,1 -6,0Z"/>
<path onmouseover="hoverPath(evt)" onmouseout="recoverPath(evt)" fill="rgb(244,242,234)" d="M  94,10l 0,2 1,1 0,4 1,1 0,3 1,1 0,4 1,1 0,3 1,1 0,6 1,1 0,5 1,1 0,4 1,1 0,2 12,0 1,-1 14,0 1,-1 14,0 1,-1 9,0 1,-1 9,0 1,-1 10,0 1,-1 13,0 0,-1 -1,-1 0,-1 -1,-1 0,-1 -1,-1 -1,-1 0,-1 -1,-1 0,-1 -1,-1 0,-1 -7,0 -1,-1 -5,0 -1,1 -6,0 0,2 -1,1 -7,0 -1,-1 -5,0 0,2 -1,1 -7,0 -1,-1 -5,0 0,2 -1,1 -9,0 -1,-1 -1,0 -1,-1 0,-1 -1,-1 0,-1 -1,-1 0,-3 1,-1 0,-1 -2,0 -1,-1 0,-2 -1,-1 0,-1 -1,-1 -1,-1 0,-1 -1,-1 0,-1 -1,-1 0,-1 -1,-1 0,-1 -1,-1 -1,-1 0,-1 -1,-1 0,-2 1,-1 -1,-1 -2,0 -1,-1 -1,-1 0,-1 -1,0 0,2 -1,1 -2,0 -1,-1 -1,0 0,2 -1,1 -2,0 -1,-1 -1,0Z"/>
<path onmouseover="hoverPath(evt)" onmouseout="recoverPath(evt)" fill="rgb(253,253,253)" d="M  220,212l 0,1 -1,1 0,2 1,0 0,-2 1,-1 -1,-1 3,-1 31,0 1,1 0,-1 -1,2Z"/>
<path onmouseover="hoverPath(evt)" onmouseout="recoverPath(evt)" fill="rgb(171,198,238)" d="M  0,63l 0,7 6,0 1,-1 11,0 1,-1 11,0 1,-1 11,0 1,-1 11,0 1,-1 11,0 1,-1 11,0 1,-1 5,0 1,1 1,1 0,9 1,1 2,0 0,-11 1,-1 2,0 1,-1 12,0 1,-1 13,0 1,-1 14,0 1,-1 12,0 1,-1 10,0 1,-1 11,0 1,-1 10,0 1,-1 13,0 0,-2 -1,-1 0,-1 -1,-1 0,-1 -1,-1 0,-1 -15,0 -1,1 -10,0 -1,1 -9,0 -1,1 -9,0 -1,1 -14,0 -1,1 -14,0 -1,1 -14,0 -1,-1 0,-2 -1,-1 0,-4 -1,-1 0,-5 -1,-1 0,-6 -1,-1 0,-3 -1,-1 0,-4 -1,-1 0,-3 -1,-1 0,-4 -1,-1 0,-3 -1,0 -1,1 0,4 1,1 0,3 1,1 0,3 1,1 0,6 1,1 0,7 1,1 0,8 1,1 0,4 -1,1 -1,1 -2,0 -1,1 -10,0 -1,1 -10,0 -1,1 -11,0 -1,1 -10,0 -1,1 -11,0 -1,1 -10,0 -1,1 -11,0 -1,1 -10,0 -1,1Z"/>
<path onmouseover="hoverPath(evt)" onmouseout="recoverPath(evt)" fill="rgb(245,244,237)" d="M  0,1l 0,10 1,0 1,-1 1,0 1,-1 1,-1 1,0 1,-1 1,0 1,-1 1,0 1,-1 1,0 1,-1 1,0 1,-1 1,0 1,-1 1,0 1,-1 1,0 0,-1 -19,0 -1,1Z"/>
<path onmouseover="hoverPath(evt)" onmouseout="recoverPath(evt)" fill="rgb(243,242,232)" d="M  0,73l 0,12 8,0 1,-1 8,0 1,-1 8,0 1,-1 8,0 1,-1 8,0 1,-1 8,0 1,-1 8,0 1,-1 9,0 1,-1 7,0 1,-1 4,0 -1,-1 0,-9 -1,-1 -3,0 -1,1 -11,0 -1,1 -11,0 -1,1 -11,0 -1,1 -11,0 -1,1 -11,0 -1,1 -11,0 -1,1 -6,0 -1,1Z"/>
<path onmouseover="hoverPath(evt)" onmouseout="recoverPath(evt)" fill="rgb(244,243,236)" d="M  0,93l 0,87 30,0 1,1 32,0 1,1 19,0 0,-1 1,-1 0,-98 -9,0 -1,1 -8,0 -1,1 -8,0 -1,1 -8,0 -1,1 -8,0 -1,1 -8,0 -1,1 -8,0 -1,1 -8,0 -1,1 -7,0 -1,1 -3,0Z"/>
<path onmouseover="hoverPath(evt)" onmouseout="recoverPath(evt)" fill="rgb(171,198,238)" d="M  0,183l 0,18 11,0 1,1 25,0 1,1 26,0 1,1 17,0 1,1 1,0 1,1 1,1 0,30 2,0 0,-1 1,-1 0,-28 1,-1 1,-1 1,-1 4,0 1,1 24,0 1,1 26,0 1,1 26,0 1,1 23,0 1,1 12,0 0,-19 -2,0 -1,-1 -21,0 -1,-1 -21,0 -1,-1 -21,0 -1,-1 -33,0 -1,-1 -15,0 -1,-1 -2,0 -1,-1 0,-1 -1,-1 0,-5 1,-1 0,-55 -1,-1 0,-21 -1,-1 0,-15 -2,0 0,99 -1,1 0,1 -1,1 -21,0 -1,-1 -32,0 -1,-1 -28,0 -1,1Z"/>
<path onmouseover="hoverPath(evt)" onmouseout="recoverPath(evt)" fill="rgb(245,234,138)" d="M  21,9l 0,0 1,-1 1,0 1,-1 1,0 1,-1 1,0 1,-1 1,0 1,-1 1,0 1,-1 1,0 1,-1 0,-2 -12,0 0,2 -1,1 -1,0 -1,1 -1,0 -1,1 -1,0 -1,1 -1,0 -1,1 -1,0 -1,1 -1,0 -1,1 -1,0 -1,1 -1,0 -1,1 -1,1 -1,0 -1,1 -2,0 0,6 2,0 1,-1 1,0 1,-1 1,0 1,-1 1,0 1,-1 1,0 1,-1 1,0 1,-1 1,0 1,-1 1,-1 1,0 1,-1 1,0 1,-1Z"/>
<path onmouseover="hoverPath(evt)" onmouseout="recoverPath(evt)" fill="rgb(251,251,249)" d="M  56,1l 0,0 1,1 0,1 1,1 0,1 1,1 0,2 -1,1 1,1 1,0 1,1 1,0 1,1 1,1 0,1 1,1 1,1 1,1 1,0 1,-1 2,0 1,-1 1,0 1,-1 1,0 1,-1 3,0 1,1 0,-2 1,-1 3,0 1,1 0,-2 1,-1 3,0 1,-1 2,0 0,-1 1,-1 3,0 1,1 0,-2 1,-1 3,0 1,1 0,-2 1,-1 3,0 1,1 0,1 1,1 -1,-3 0,-2 -7,0 0,2 -1,1 -1,0 -1,1 -2,0 -1,1 -2,0 -1,1 -2,0 -1,1 -1,1 -1,0 -1,1 -2,0 -1,1 -1,0 -1,1 -2,0 -1,1 -1,0 -1,1 -2,0 -1,1 -1,0 -1,1 -3,0 -1,-1 -2,-2 0,-2 -1,0 -1,-1 -1,-1 0,-1 -1,-1 -1,-1 0,-1 -1,-1 0,-3 -1,0 -1,1Z"/>
<path onmouseover="hoverPath(evt)" onmouseout="recoverPath(evt)" fill="rgb(237,238,229)" d="M  61,0l -1,0 0,2 1,1 0,1 1,1 1,1 0,1 1,1 1,0 1,1 0,2 1,1 1,1 1,0 1,-1 1,0 1,-1 2,0 1,-1 1,0 1,-1 2,0 1,-1 1,0 1,-1 2,0 1,-1 1,0 1,-1 1,-1 2,0 1,-1 2,0 1,-1 2,0 1,-1 1,0 0,-1Z"/>
<path onmouseover="hoverPath(evt)" onmouseout="recoverPath(evt)" fill="rgb(244,243,236)" d="M  90,83l 0,13 1,1 0,21 1,1 0,57 -1,1 0,3 1,1 0,1 2,0 1,1 15,0 1,1 33,0 1,1 21,0 1,1 21,0 1,1 21,0 1,1 0,-19 1,-1 0,-29 1,-1 0,-32 -1,-1 0,-6 -1,-1 0,-5 -1,-1 0,-2 -1,-1 0,-2 -1,-1 0,-2 -1,-1 0,-2 -1,-1 0,-2 -1,-1 0,-1 -1,-1 0,-1 -1,-1 0,-1 -1,-1 0,-2 -6,0 -1,1 -9,0 -1,1 -8,0 -1,1 -9,0 -1,1 -8,0 -1,1 -8,0 -1,1 -8,0 -1,1 -7,0 -1,1 -8,0 -1,1 -8,0 -1,1 -8,0 -1,1 -9,0 -1,1 -4,0Z"/>
<path onmouseover="hoverPath(evt)" onmouseout="recoverPath(evt)" fill="rgb(242,241,231)" d="M  93,65l -2,0 0,11 1,-1 9,0 1,-1 9,0 1,-1 7,0 1,-1 8,0 1,-1 8,0 1,-1 7,0 1,-1 8,0 1,-1 9,0 1,-1 8,0 1,-1 9,0 1,-1 8,0 1,-1 5,0 0,-2 -1,-1 0,-1 -1,-1 0,-1 -1,-1 -12,0 -1,1 -10,0 -1,1 -11,0 -1,1 -10,0 -1,1 -12,0 -1,1 -14,0 -1,1 -13,0 -1,1 -12,0 -1,1Z"/>
<path onmouseover="hoverPath(evt)" onmouseout="recoverPath(evt)" fill="rgb(244,243,235)" d="M  92,207l 0,0 -1,1 0,28 -1,1 9,0 1,1 6,0 1,1 8,0 1,1 7,0 1,1 11,0 1,1 11,0 1,1 11,0 1,1 12,0 1,1 11,0 1,1 15,0 1,1 9,0 0,-24 1,-1 0,-11 -12,0 -1,-1 -23,0 -1,-1 -26,0 -1,-1 -26,0 -1,-1 -24,0 -1,-1 -2,0 -1,1Z"/>
<path onmouseover="hoverPath(evt)" onmouseout="recoverPath(evt)" fill="rgb(254,254,254)" d="M  96,253l 0,0 -1,1 0,1 1,0 0,-13 1,-1 7,0 1,1 8,0 1,1 8,0 1,1 10,0 1,1 11,0 1,1 12,0 1,1 11,0 1,1 11,0 1,1 15,0 1,1 12,0 0,-1 -11,0 -1,-1 -15,0 -1,-1 -11,0 -1,-1 -12,0 -1,-1 -11,0 -1,-1 -11,0 -1,-1 -11,0 -1,-1 -7,0 -1,-1 -8,0 -1,-1 -6,0 -1,-1 -15,0 -1,1 -25,0 -1,1 -12,0 -1,1 -12,0 -1,1 -12,0 -1,1 -12,0 -1,1 -4,0 0,1 5,0 1,-1 12,0 1,-1 12,0 1,-1 12,0 1,-1 12,0 1,-1 31,0 1,-1 3,0 1,1 1,1 1,11Z"/>
<path onmouseover="hoverPath(evt)" onmouseout="recoverPath(evt)" fill="rgb(241,240,228)" d="M  98,245l 0,10 112,0 0,-3 -12,0 -1,-1 -15,0 -1,-1 -11,0 -1,-1 -11,0 -1,-1 -12,0 -1,-1 -11,0 -1,-1 -10,0 -1,-1 -8,0 -1,-1 -8,0 -1,-1 -5,0Z"/>
<path onmouseover="hoverPath(evt)" onmouseout="recoverPath(evt)" fill="rgb(244,243,235)" d="M  110,4l 0,1 1,1 1,1 0,2 -1,1 1,1 0,1 1,1 2,0 1,1 0,1 1,1 0,2 -1,1 1,1 0,1 1,1 2,0 1,1 0,2 -1,1 0,1 2,0 1,1 0,3 -1,1 0,1 1,1 0,1 1,1 0,1 1,0 1,1 7,0 0,-2 1,-1 7,0 1,1 5,0 0,-2 1,-1 7,0 1,1 5,0 0,-2 1,-1 6,0 1,-1 6,0 1,-1 5,0 -1,-1 0,-2 -1,-1 0,-1 -1,-1 0,-1 -1,-1 0,-1 -1,-1 0,-1 -1,-1 0,-1 -1,-1 0,-1 -1,-1 0,-1 -1,-1 0,-1 -1,-1 -1,-1 0,-1 -1,-1 0,-1 -1,-1 0,-1 -1,-1 0,-2 -58,0 0,3 1,1Z"/>
<path onmouseover="hoverPath(evt)" onmouseout="recoverPath(evt)" fill="rgb(244,233,138)" d="M  171,0l -2,0 0,1 1,1 0,1 1,1 0,1 1,1 0,1 1,1 1,1 0,1 1,1 0,1 1,1 0,1 1,1 0,1 1,1 0,1 1,1 0,1 1,1 0,1 1,1 0,1 1,1 0,2 1,1 0,2 -1,1 2,0 1,1 0,1 1,1 0,1 1,1 0,1 1,1 1,1 0,1 1,1 0,1 1,1 0,2 2,0 1,1 0,1 1,1 0,1 1,1 0,1 1,1 0,4 1,1 0,1 1,1 0,1 1,1 0,3 2,0 1,1 0,2 1,1 0,2 1,1 0,1 1,1 0,1 1,1 0,1 1,1 0,2 1,1 0,2 1,1 0,2 1,1 0,2 1,1 0,2 1,1 0,5 1,1 0,6 1,1 0,34 -1,1 0,29 -1,1 0,18 1,1 0,21 -1,1 0,12 -1,1 0,23 1,1 0,3 -1,1 0,3 6,0 0,-27 -1,-1 0,-3 1,-1 2,0 0,-5 -2,0 -1,-1 0,-4 1,-1 0,-1 -1,-1 0,-21 1,-1 1,0 0,-26 1,-1 0,-24 1,-1 0,-29 -1,-1 0,-8 -1,-1 0,-4 -1,-1 0,-2 -1,-1 0,-3 -1,-1 0,-1 -1,-1 0,-3 -1,0 -1,-1 -1,-1 0,-5 -1,-1 0,-1 -1,-1 0,-1 -1,-1 0,-2 -1,-1 0,-1 -1,-1 -1,-1 0,-1 -1,-1 0,-1 -1,-1 0,-2 -2,0 -1,-1 0,-1 -1,-1 0,-1 -1,-1 0,-1 -1,-1 0,-1 -1,-1 -1,-1 0,-2 1,-1 -1,-1 0,-1 -1,-1 0,-1 -1,-1 0,-1 -1,-1 0,-1 -1,-1 0,-1 -1,-1 0,-1 -1,-1 0,-1 -1,-1 0,-1 -1,-1 0,-1 -1,-1 0,-1 -1,-1 0,-1 -1,-1 0,-1 -1,-1 0,-1 -1,-1 0,-1 -1,-1 0,-1 -1,-1 0,-1 -1,-1 0,-1 -1,-1 0,-1 -1,-1 0,-1 -1,-1 0,-1 -1,-1 0,-2Z"/>
<path onmouseover="hoverPath(evt)" onmouseout="recoverPath(evt)" fill="rgb(244,243,237)" d="M  178,1l 0,0 1,1 0,1 1,1 0,1 1,1 0,1 1,1 0,1 1,1 0,1 1,1 0,1 1,1 0,1 1,1 0,1 1,1 0,1 1,1 0,1 1,1 0,1 1,1 0,1 1,1 0,1 1,1 0,1 1,1 0,1 1,1 0,1 1,1 0,1 1,1 0,1 1,1 0,1 1,1 0,1 1,1 0,1 1,1 6,0 1,-1 9,0 1,-1 8,0 1,-1 5,0 1,-1 2,0 1,-1 2,0 1,-1 1,0 0,-3 -1,-1 0,-2 -1,-1 0,-2 -1,-1 0,-1 -1,-1 0,-1 -1,-1 0,-1 -1,-1 0,-1 -1,-1 0,-1 -1,-1 0,-1 -1,-1 0,-1 -1,-1 0,-2 -1,-1 0,-2 -1,-1 0,-2 -1,-1 0,-2 -1,-1 0,-2 -46,0 -1,1Z"/>
<path onmouseover="hoverPath(evt)" onmouseout="recoverPath(evt)" fill="rgb(171,198,238)" d="M  200,47l 0,1 1,1 0,1 1,1 0,1 1,1 0,1 6,0 1,-1 19,0 1,-1 16,0 1,1 1,0 1,1 1,1 1,0 1,1 2,2 1,1 0,-24 -2,0 -1,-1 0,-2 -1,-1 0,-1 -1,-1 0,-1 -1,-1 0,-2 -1,-1 0,-1 -1,-1 0,-1 -1,-1 0,-1 -1,-1 0,-2 -1,-1 0,-1 -1,-1 0,-2 -1,-1 0,-2 -1,-1 0,-1 -1,-1 0,-1 -1,-1 0,-3 -12,0 0,1 1,1 0,2 1,1 0,2 1,1 0,2 1,1 0,2 1,1 0,1 1,1 0,1 1,1 0,1 1,1 0,1 1,1 0,1 1,1 0,1 1,1 0,1 1,1 0,2 1,1 0,2 1,1 0,5 -1,1 -1,0 -1,1 -2,0 -1,1 -2,0 -1,1 -5,0 -1,1 -8,0 -1,1 -9,0 -1,1 -6,0 -1,1 -1,-1 -1,-1 1,1 1,1Z"/>
<path onmouseover="hoverPath(evt)" onmouseout="recoverPath(evt)" fill="rgb(244,243,236)" d="M  206,57l 0,0 1,1 0,1 1,1 0,1 1,1 1,1 0,1 1,1 0,2 1,1 0,1 1,1 0,1 1,1 0,5 1,1 10,0 1,1 29,0 0,-18 -1,0 -1,-1 -1,-1 -1,-1 -1,-1 -1,0 -1,-1 -1,-1 -1,0 -1,-1 -14,0 -1,1 -19,0 -1,1 -3,0 -1,1Z"/>
<path onmouseover="hoverPath(evt)" onmouseout="recoverPath(evt)" fill="rgb(244,243,236)" d="M  218,83l 0,1 1,1 0,3 1,1 0,2 1,1 0,4 1,1 0,8 1,1 0,31 -1,1 0,24 -1,1 0,25 11,0 1,1 22,0 0,-108 -30,0 -1,-1 -7,0 0,2 1,1Z"/>
<path onmouseover="hoverPath(evt)" onmouseout="recoverPath(evt)" fill="rgb(172,198,235)" d="M  219,191l 0,18 36,0 0,-18 -23,0 -1,-1 -11,0 -1,1Z"/>
<path onmouseover="hoverPath(evt)" onmouseout="recoverPath(evt)" fill="rgb(244,243,235)" d="M  222,217l 0,7 -1,1 -2,0 0,1 1,1 0,28 35,0 0,-40 -33,0Z"/>
<path onmouseover="hoverPath(evt)" onmouseout="recoverPath(evt)" fill="rgb(245,244,237)" d="M  241,1l 0,1 1,1 0,1 1,1 0,1 1,1 0,2 1,1 0,2 1,1 0,1 1,1 0,2 1,1 0,1 1,1 0,1 1,1 0,1 1,1 0,2 1,1 0,1 1,1 0,1 1,1 0,2 1,0 0,-33 -13,0 -1,1Z"/>
</svg>