<svg width="256" height="256" xmlns="http://www.w3.org/2000/svg"><script> 
var tempColor;
function hoverPath(evt){
obj = evt.target;
tempColor = obj.getAttribute("fill");
obj.setAttribute("fill","red");
//alert(tempColor);
//obj.setAttribute("stroke","red");}
function recoverPath(evt){
obj = evt.target;
obj.setAttribute("fill", tempColor);
//obj.setAttribute("stroke", tempColor);
}</script><path onmouseover="hoverPath(evt)" onmouseout="recoverPath(evt)" fill="rgb(242,240,231)" d="M  0,32l 0,10 8,0 1,1 11,0 1,1 13,0 1,1 8,0 1,-1 7,0 1,1 0,2 2,0 1,-1 3,0 1,1 0,2 1,0 1,-1 4,0 1,1 0,2 1,0 1,1 3,0 1,1 2,0 1,-1 4,0 1,1 2,0 1,1 0,2 2,0 1,1 2,0 1,1 3,0 1,1 2,0 1,1 1,0 1,1 0,11 1,-9 0,-4 1,-1 0,-2 -1,-1 0,-4 1,-1 2,0 0,-1 1,-1 6,0 -4,-1 0,-6 -1,4 -1,1 -6,0 -1,1 -5,0 -1,-1 -4,0 -1,-1 -2,0 -1,-1 -3,0 -1,-1 -3,0 -1,-1 -3,0 -1,-1 -3,0 -1,-1 -3,0 -1,-1 -3,0 -1,-1 -2,0 -1,-1 -3,0 -1,-1 -2,0 -1,-1 0,-2 -2,0 -1,1 -5,0 -1,-1 -2,0 -1,-1 -5,0 -1,-1 -6,0 -1,-1 0,-2 -6,0 -1,-1 0,-2 -16,0Z"/>
<path onmouseover="hoverPath(evt)" onmouseout="recoverPath(evt)" fill="rgb(243,242,233)" d="M  104,51l 0,0 -1,1 -2,0 0,2 1,1 0,4 -1,1 0,4 -1,1 0,7 2,0 1,1 5,0 1,1 5,0 1,1 4,0 1,1 4,0 1,1 3,0 1,1 3,0 1,1 3,0 1,1 4,0 1,1 4,0 1,1 2,0 1,1 3,0 1,1 3,0 1,1 3,0 1,1 3,0 1,1 0,2 4,0 1,-1 2,0 1,1 2,0 1,1 3,0 1,1 3,0 1,1 2,0 1,1 3,0 1,1 3,0 1,1 3,0 1,1 3,0 1,1 2,0 1,1 3,0 1,1 1,0 0,-1 -1,0 -2,-1 0,-2 -3,0 -1,-1 -1,0 -1,1 -3,0 -96,-44 93,43 -1,0 -2,-1 -2,0 -1,-1 0,-2 -2,0 -1,-1 -3,0 -1,-1 -1,0 -1,-1 -1,1 -2,0 -1,-1 -1,0 -1,-1 0,-2 -1,-1 0,-5 1,-1 0,-1 1,-1 0,-1 -3,7 -4,0 -1,-1 -1,0 -1,-1 -1,-1 -1,0 -1,-1 -1,1 -2,0 -1,-1 0,-2 -1,-1 0,-1 -2,0 -1,-1 -1,-1 -1,1 -2,0 -1,-1 -1,0 -1,-1 -1,0 -1,-1 -1,0 -1,-1 -1,0 -1,-1 -1,0 -1,-1 -1,0 -1,-1 0,-2 -1,-1 -1,0 -1,-1 -1,1 -2,0 -1,-1 0,-2 -1,-1 -1,0 -1,-1 -1,1 -2,0 -1,-1 -1,0 -1,-1 0,-2 -1,0 -1,-1 -1,0 -1,-1 -1,0 -1,1 -2,0 -1,-1 -1,0 -1,-1 0,-2 -1,0 -1,1 -6,0 93,44 -93,-43Z"/>
<path onmouseover="hoverPath(evt)" onmouseout="recoverPath(evt)" fill="rgb(244,243,235)" d="M  212,4l 0,1 -1,1 0,1 -1,1 0,1 -1,1 0,2 -1,1 0,1 -1,1 0,1 -1,1 -2,0 0,1 -1,1 0,1 -1,1 -1,1 0,1 -1,1 -1,1 1,1 0,2 -1,1 0,2 -1,1 0,1 -1,1 0,1 -1,1 0,1 -1,1 0,2 -1,1 0,1 -1,1 0,1 -1,1 0,1 -1,1 0,2 -1,1 0,1 -1,1 0,1 -1,1 0,1 -1,1 0,2 -1,1 0,1 -1,1 0,1 -1,1 0,1 -1,1 0,2 -1,1 0,1 -1,1 0,1 -1,1 0,1 -1,1 0,2 -1,1 0,1 -1,1 0,3 1,1 1,0 1,1 1,0 1,1 1,0 1,1 1,0 1,1 3,0 1,1 2,0 1,1 0,2 2,0 1,1 2,0 1,1 3,0 1,-1 3,0 1,1 3,0 1,1 0,2 2,0 1,1 0,2 1,1 3,0 1,1 3,0 1,1 0,1 1,1 2,0 1,-1 3,0 1,1 3,0 1,1 3,0 1,1 3,0 1,1 3,0 1,1 3,0 1,1 1,0 1,-1 2,0 0,-108 -44,0 0,1 1,1Z"/>
<path onmouseover="hoverPath(evt)" onmouseout="recoverPath(evt)" fill="rgb(244,243,236)" d="M  0,1l 0,22 17,0 1,1 0,2 6,0 1,1 0,2 6,0 1,1 5,0 1,1 2,0 1,1 3,0 1,-1 4,0 1,1 0,2 2,0 1,1 3,0 1,1 2,0 1,1 3,0 1,1 3,0 1,1 3,0 1,1 3,0 1,1 3,0 1,1 3,0 1,1 2,0 1,1 4,0 1,1 3,0 1,-1 6,0 1,-1 0,-3 1,-1 0,-3 1,-1 0,-3 1,-1 0,-2 1,-1 0,-3 1,-1 2,0 0,-2 1,-1 0,-3 1,-1 0,-2 -1,-1 0,-3 1,-1 0,-3 1,-1 0,-2 1,-1 0,-3 -113,0 -1,1Z"/>
<path onmouseover="hoverPath(evt)" onmouseout="recoverPath(evt)" fill="rgb(248,237,138)" d="M  0,61l 0,9 4,0 1,1 6,0 1,1 6,0 1,1 6,0 1,1 8,0 1,1 7,0 1,1 6,0 1,1 7,0 1,1 6,0 1,1 6,0 1,1 7,0 1,1 7,0 1,1 5,0 1,1 7,0 1,1 5,0 1,1 4,0 1,1 4,0 1,1 4,0 1,1 3,0 1,1 4,0 1,1 3,0 1,1 3,0 1,1 2,0 1,1 4,0 1,1 3,0 1,1 3,0 1,1 3,0 1,1 3,0 1,1 3,0 1,1 2,0 1,1 3,0 1,1 3,0 1,1 3,0 1,1 3,0 1,1 3,0 1,1 3,0 1,1 2,0 1,1 3,0 1,1 3,0 1,1 3,0 1,1 3,0 1,1 3,0 1,1 3,0 1,1 2,0 1,1 3,0 1,1 3,0 1,1 3,0 1,1 3,0 1,1 3,0 1,1 3,0 1,1 3,0 1,1 2,0 0,-11 -1,0 -1,1 -3,0 -1,-1 -3,0 -1,-1 -3,0 -1,-1 -3,0 -1,-1 -3,0 -1,-1 -3,0 -1,-1 -1,0 -1,1 -4,0 -1,-1 -1,-1 0,-1 -3,0 -1,-1 -3,0 -1,-1 -3,0 -1,-1 -3,0 -1,-1 -2,0 -1,-1 -3,0 -1,-1 -3,0 -1,-1 -3,0 -1,-1 -3,0 -1,-1 -2,0 -1,-1 -3,0 -1,-1 -3,0 -1,-1 -2,0 -1,-1 -1,1 -6,0 -1,-1 0,-2 -3,0 -1,-1 -3,0 -1,-1 -3,0 -1,-1 -3,0 -1,-1 -2,0 -1,-1 -4,0 -1,-1 -4,0 -1,-1 -3,0 -1,-1 -3,0 -1,-1 -3,0 -1,-1 -4,0 -1,-1 -4,0 -1,-1 -5,0 -1,-1 -5,0 -1,-1 -4,0 -1,-1 -3,0 -1,-1 -2,0 -1,-1 -2,0 -1,-1 -5,0 -1,-1 -6,0 -1,-1 -6,0 -1,-1 -6,0 -1,-1 -7,0 -1,-1 -6,0 -1,-1 -7,0 -1,-1 -8,0 -1,-1 -6,0 -1,-1 -6,0 -1,-1 -7,0 -1,-1 -5,0Z"/>
<path onmouseover="hoverPath(evt)" onmouseout="recoverPath(evt)" fill="rgb(244,243,236)" d="M  0,73l 0,182 255,0 0,-132 -3,0 -1,-1 -3,0 -1,-1 -3,0 -1,-1 -3,0 -1,-1 -3,0 -1,-1 -3,0 -1,-1 -3,0 -1,-1 -3,0 -1,-1 -2,0 -1,-1 -3,0 -1,-1 -3,0 -1,-1 -3,0 -1,-1 -3,0 -1,-1 -3,0 -1,-1 -3,0 -1,-1 -2,0 -1,-1 -3,0 -1,-1 -3,0 -1,-1 -3,0 -1,-1 -3,0 -1,-1 -3,0 -1,-1 -3,0 -1,-1 -2,0 -1,-1 -3,0 -1,-1 -3,0 -1,-1 -3,0 -1,-1 -3,0 -1,-1 -3,0 -1,-1 -4,0 -1,-1 -2,0 -1,-1 -3,0 -1,-1 -3,0 -1,-1 -4,0 -1,-1 -3,0 -1,-1 -4,0 -1,-1 -4,0 -1,-1 -4,0 -1,-1 -5,0 -1,-1 -7,0 -1,-1 -5,0 -1,-1 -7,0 -1,-1 -7,0 -1,-1 -6,0 -1,-1 -6,0 -1,-1 -7,0 -1,-1 -6,0 -1,-1 -7,0 -1,-1 -8,0 -1,-1 -6,0 -1,-1 -6,0 -1,-1 -6,0 -1,-1 -2,0 -1,1Z"/>
<path onmouseover="hoverPath(evt)" onmouseout="recoverPath(evt)" fill="rgb(244,243,235)" d="M  120,0l -4,0 0,4 -1,1 0,2 -1,1 0,3 -1,1 0,1 1,1 0,4 -1,1 0,3 -1,1 0,2 -1,1 -2,0 0,3 -1,1 0,2 -1,1 0,3 -1,1 0,2 1,1 0,6 3,0 1,1 2,0 1,1 1,0 1,1 1,0 1,1 2,0 1,1 1,0 1,1 1,0 1,1 1,0 1,1 1,0 1,1 1,0 1,1 1,0 1,1 1,1 1,0 1,1 1,0 1,1 1,0 1,1 1,1 1,0 1,1 1,0 1,1 1,0 1,1 0,2 1,-1 2,0 1,1 1,0 1,1 1,0 1,1 1,0 1,1 1,1 2,0 1,1 0,1 1,1 1,0 1,1 1,0 1,1 1,0 1,1 1,1 1,0 1,1 2,0 0,-2 1,-1 0,-1 1,-1 0,-1 1,-1 0,-1 1,-1 2,0 0,-1 1,-1 0,-1 1,-1 0,-1 -1,-1 0,-2 1,-1 2,0 0,-1 1,-1 0,-1 1,-1 0,-1 -1,-1 0,-2 1,-1 2,0 0,-1 1,-1 0,-1 1,-1 0,-1 -1,-1 0,-2 1,-1 2,0 0,-1 1,-1 0,-1 1,-1 0,-1 -1,-1 0,-2 1,-1 2,0 0,-1 1,-1 0,-1 1,-1 0,-1 -1,-1 0,-2 1,-1 0,-1 1,-1 1,-1 0,-1 1,-1 1,-1 0,-1 1,-1 0,-1 1,-1 0,-1 1,-1 2,0 0,-1 1,-1 0,-1 -1,-1 0,-2 1,-1 2,0 0,-1 1,-1 0,-1 -1,-1 0,-2Z"/>
<path onmouseover="hoverPath(evt)" onmouseout="recoverPath(evt)" fill="rgb(243,242,234)" d="M  0,46l 0,11 6,0 1,1 7,0 1,1 6,0 1,1 6,0 1,1 8,0 1,1 7,0 1,1 6,0 1,1 7,0 1,1 6,0 1,1 6,0 1,1 6,0 1,1 5,0 1,1 2,0 1,1 2,0 1,1 2,0 0,-9 -1,0 -1,-1 -2,0 -1,-1 -3,0 -1,-1 -2,0 -1,-1 -2,0 -1,-1 0,-2 -2,0 -1,-1 -2,0 -1,1 -4,0 -1,-1 -3,0 -1,-1 -1,0 -1,-1 0,-2 -2,0 -1,1 -3,0 -1,-1 0,-2 -1,0 -1,1 -4,0 -1,-1 0,-2 -5,0 -1,1 -10,0 -1,-1 -13,0 -1,-1 -11,0 -1,-1 -7,0Z"/>
</svg>