<svg width="256" height="256" xmlns="http://www.w3.org/2000/svg"><script> 
var tempColor;
function hoverPath(evt){
obj = evt.target;
tempColor = obj.getAttribute("fill");
obj.setAttribute("fill","red");
//alert(tempColor);
//obj.setAttribute("stroke","red");}
function recoverPath(evt){
obj = evt.target;
obj.setAttribute("fill", tempColor);
//obj.setAttribute("stroke", tempColor);
}</script><path onmouseover="hoverPath(evt)" onmouseout="recoverPath(evt)" fill="rgb(244,243,235)" d="M  0,108l 0,26 2,0 1,1 1,0 1,1 0,1 1,1 2,0 1,1 1,1 0,4 1,1 1,1 1,0 1,1 1,0 1,1 1,1 1,1 1,1 0,2 1,0 1,1 1,1 0,4 1,1 1,1 1,0 1,1 1,0 1,1 1,1 1,1 1,1 1,0 0,-2 1,-1 2,0 1,1 1,-1 2,0 1,-1 1,0 1,-1 1,0 1,-1 2,0 1,-1 1,0 0,-2 1,-1 2,0 1,1 1,0 1,-1 1,0 1,-1 1,0 1,-1 2,0 1,-1 1,0 0,-2 1,-1 2,0 1,1 1,-1 1,0 1,-1 2,0 1,-1 1,0 1,-1 1,0 1,-1 1,0 1,-1 1,0 1,-1 0,-2 1,-1 2,0 1,1 1,-1 0,-2 1,-1 2,0 1,1 1,-1 0,-2 1,-1 2,0 1,1 1,-1 0,-2 1,-1 2,0 1,1 1,-1 0,0 1,-1 1,0 1,-1 0,-2 1,-1 2,0 1,1 1,-1 0,-2 1,-1 2,0 1,1 1,-1 1,-1 1,0 1,-1 0,-2 1,-1 2,0 1,1 1,-1 0,0 1,-1 1,0 1,-1 0,-2 1,-1 2,0 1,1 1,-1 0,-2 1,-1 2,0 1,1 1,-1 0,0 1,-1 1,0 1,-1 0,-1 1,-1 -1,-1 0,0 -1,-1 -1,-1 -1,0 -1,-1 0,-1 -1,-1 0,-1 -1,-1 -1,-1 -1,-1 -1,-1 -1,0 -1,-1 0,-1 -1,-1 0,-1 -1,-1 -1,-1 -1,-1 -1,-1 -1,-1 -1,0 -1,-1 0,-2 -1,-1 -1,-1 -1,-1 -1,-1 -1,-1 -1,0 -1,-1 0,-2 -1,-1 -1,-1 -1,-1 -1,-1 -1,-1 -1,0 -1,-1 0,-2 -1,-1 -1,-1 -1,-1 -1,-1 -1,-1 -1,0 -1,-1 0,-1 -1,-1 0,-1 -1,-1 -1,-1 -3,0 -2,2 -1,0 -1,1 -1,1 -1,0 -1,1 0,2 -1,1 -2,0 -1,-1 -1,1 0,0 -1,1 -1,0 -1,1 -1,1 -1,0 -1,1 0,2 -1,1 -2,0 -1,-1 -1,1 0,0 -1,1 -1,0 -1,1 0,2 -1,1 -2,0 -1,-1 -1,1 0,2 -1,1 -2,0 -1,-1 -1,1 0,0 -1,1 -1,0 -2,2 -1,0 -1,1 -1,0 -1,1 -1,0 -1,1 -1,1 -1,0 0,2 -1,1 -2,0 -1,-1 -1,1 -2,0 -1,1 -1,0 -1,1 -1,0 0,2 -1,1 -2,0 -1,-1 -1,0 -1,1 -1,0 -1,1 -1,0 -1,1 -2,0 -1,1 -1,0 -1,1 -1,0 -1,1 -2,0 -1,1 -1,0 -1,1 -1,0 -1,1 -2,0 -1,1 -1,0 -1,1 -3,0Z"/>
<path onmouseover="hoverPath(evt)" onmouseout="recoverPath(evt)" fill="rgb(238,234,206)" d="M  7,252l -7,0 0,3 73,0 0,-2 -7,0 -1,-1Z"/>
<path onmouseover="hoverPath(evt)" onmouseout="recoverPath(evt)" fill="rgb(243,241,233)" d="M  35,171l -2,0 0,2 1,1 2,0 1,1 1,1 0,4 1,1 1,1 1,1 1,0 1,1 0,1 1,1 1,0 1,1 1,0 1,1 1,1 0,1 1,1 1,1 2,0 1,1 1,1 0,4 1,1 0,1 5,0 1,-1 3,0 1,-1 3,0 1,-1 3,0 1,-1 2,0 1,-1 3,0 1,-1 4,0 1,-1 3,0 1,-1 3,0 1,-1 3,0 1,-1 2,0 1,-1 2,0 1,-1 2,0 1,-1 1,0 1,-1 2,0 1,-1 1,0 1,-1 1,0 1,-1 1,0 1,-1 1,0 1,-1 1,-1 1,0 1,-1 2,0 0,-1 1,-1 1,0 1,-1 1,0 1,-1 1,0 1,-1 1,-1 1,0 1,-1 -3,0 -1,-1 0,-2 1,-1 1,0 0,-1 -1,-1 -1,0 -1,-1 0,-2 -1,-1 -1,-1 -3,-3 0,-2 1,-1 2,0 2,2 1,1 1,1 1,1 1,1 0,1 1,1 1,1 1,1 1,0 1,-1 1,0 1,-1 1,-1 0,-2 -1,-1 0,0 -1,-1 -1,0 -1,-1 0,-2 -1,-1 -1,-1 -1,-1 -1,-1 -1,-1 -1,0 -1,-1 0,-1 -1,-1 0,-1 -1,-1 -1,-1 -1,-1 -1,-1 -1,0 -1,-1 0,-1 -1,-1 0,-1 -1,-1 -3,-3 -1,-1 -1,-1 0,-1 -1,0 -1,-1 -1,1 -1,0 -1,1 -1,0 -1,1 0,2 1,1 0,0 1,1 1,1 1,0 1,1 0,1 1,1 0,2 -1,1 -3,0 -1,-1 0,-1 -1,-1 -1,-1 -1,-1 -1,-1 -1,-1 -1,0 -1,-1 0,2 -1,1 -2,0 -1,-1 -2,2 -1,0 -1,1 -1,1 -1,0 -1,1 -1,0 -1,1 0,2 -1,1 -2,0 -1,-1 -1,1 0,2 -1,1 -2,0 -1,-1 -1,1 -1,0 -1,1 -1,0 -1,1 -1,0 -1,1 -1,0 -1,1 -1,0 0,2 -1,1 -1,0 -1,1 -2,0 -1,-1 -1,1 -2,0 -1,1 -1,0 -1,1 -1,0 -1,1 -2,0 -1,1 -1,0 -1,1 -1,0 -1,1 -2,0 -1,1 -1,0 -1,1 -1,0 -1,1 -2,0 -1,1 -1,0 0,2 -1,1 -2,0 -1,-1 -1,1 93,4 -1,1 -2,0 -1,-1 0,-2 1,-1 2,0 1,1 0,2 -93,-4 82,4 -1,1 -2,0 -1,-1 -1,-1 0,-2 1,-1 2,0 1,1 1,1 0,2 -82,-4 82,-16 0,1 -1,1 -2,0 -1,-1 0,-2 1,-1 2,0 1,1 0,1 -82,16Z"/>
<path onmouseover="hoverPath(evt)" onmouseout="recoverPath(evt)" fill="rgb(243,242,233)" d="M  0,1l 0,23 1,0 1,-1 1,0 1,-1 1,0 1,-1 1,0 1,-1 1,-1 1,0 1,-1 0,-1 1,-1 2,0 1,-1 1,-1 1,0 1,-1 1,-1 1,0 1,-1 1,-1 1,0 1,-1 1,-1 1,0 1,-1 0,-1 1,-1 2,0 1,-1 1,-1 1,0 1,-1 1,-1 1,0 0,-1 -35,0 -1,1Z"/>
<path onmouseover="hoverPath(evt)" onmouseout="recoverPath(evt)" fill="rgb(252,252,250)" d="M  1,241l 1,0 1,1 1,0 1,-1 18,0 1,1 1,-1 32,0 1,1 12,0 1,-1 23,0 1,-1 8,0 1,-1 6,0 1,-1 6,0 1,-1 2,0 1,-1 4,0 1,-1 4,0 1,-1 2,0 1,-1 3,0 1,-1 2,0 1,-1 2,0 1,-1 2,0 1,-1 1,0 1,-1 1,0 1,-1 6,0 1,-1 1,0 1,-1 2,0 1,-1 1,-1 1,0 1,-1 1,0 1,-1 1,0 1,-1 1,0 1,-1 1,0 1,-1 1,-1 1,0 1,-1 1,-1 1,0 1,-1 1,-1 1,0 1,-1 1,-1 1,0 1,-1 1,-1 1,-1 1,0 1,-1 2,-2 1,-1 1,-1 1,0 1,-1 1,-1 0,-1 1,-1 0,-1 1,-1 1,0 0,-1 1,-1 1,-1 2,-2 1,-1 1,0 0,-1 1,-1 1,-1 0,-3 1,-1 0,-2 1,-1 -1,-1 0,0 -1,-1 0,-1 -1,-1 -1,-1 -1,-1 -1,-1 -1,-1 -2,0 -1,-1 -1,-1 0,-1 -1,0 -1,-1 -1,-1 -1,-1 -1,-1 -1,-1 -1,-1 0,-1 -1,-1 0,-1 -1,0 -1,-1 -1,-1 -1,-1 -1,-1 -1,-1 0,-1 -1,-1 -1,-1 0,-1 -1,0 -1,-1 -1,-1 -1,-1 -1,-1 0,-1 -1,-1 -1,-1 0,-1 -1,0 -1,-1 -1,-1 -1,-1 -1,-1 -1,-1 0,-1 -1,-1 0,-1 -1,0 -1,-1 -2,-2 -1,-1 -1,-1 0,-1 -1,-1 0,-1 -1,0 -1,-1 -1,-1 -1,-1 -1,-1 -1,-1 -1,-1 0,-1 -1,-1 0,-1 -1,0 -1,-1 -1,-1 -1,-1 -1,-1 -1,-1 0,-1 -1,-1 0,-1 -1,0 -1,-1 -1,-1 -1,-1 0,-1 -1,0 -1,-1 -1,-1 0,-1 -1,-1 -1,-1 0,-1 -1,0 -1,-1 -1,-1 -1,-1 -1,-1 -1,-1 0,-1 -1,-1 0,-1 -1,0 -1,-1 -1,-1 -1,-1 -1,-1 -1,-1 0,-1 -1,-1 0,-1 -1,0 -1,-1 -1,-1 -1,-1 -1,-1 -1,-1 0,-1 -1,-1 0,-1 -1,0 -1,-1 -1,-1 -1,-1 -1,-1 -1,-1 0,-1 -1,-1 0,-1 -1,0 -1,-1 -1,-1 -1,-1 -1,-1 -1,-1 0,-1 -1,-1 0,-1 -1,0 -1,-1 -1,-1 -1,-1 -1,-1 -1,-1 -1,-1 -1,-1 0,-1 -1,-1 -1,-1 -1,-1 -1,-1 -2,-2 -1,-1 0,-2 -1,0 -1,-1 -1,-1 -1,-1 -1,-1 -1,-1 -1,-1 0,-1 -1,-1 0,-1 -1,0 -1,-1 -1,-1 -1,-1 -1,-1 -1,-1 -1,-1 0,-1 -1,-1 0,-1 -1,0 -1,-1 -1,-1 -1,-1 -1,-1 -1,-1 0,-1 -1,-1 0,-1 -1,0 -1,-1 -1,-1 -1,-1 -1,-1 -1,-1 0,-1 -1,-1 0,-1 -1,0 -1,-1 -1,-1 -1,-1 -1,-1 -2,-2 -1,-1 -1,-1 0,-2 -11,0 0,2 -1,1 -1,0 -1,1 -1,1 -1,0 -2,2 -2,0 0,1 -1,1 -1,1 -1,0 -1,1 -1,1 -1,0 -1,1 -1,1 -1,0 -1,1 -1,1 -1,0 -1,1 -1,1 -2,0 0,1 -1,1 -1,1 -1,0 -2,2 -1,0 -1,1 -1,0 -1,1 -1,0 -1,1 -2,0 0,3 2,0 1,-1 2,0 1,1 1,-1 1,0 0,-2 1,-1 1,-1 1,0 1,-1 1,-1 1,0 1,-1 1,-1 2,0 0,-1 2,-2 2,0 1,1 1,-1 0,-2 1,-1 1,-1 1,0 1,-1 1,-1 1,0 1,-1 1,-1 1,0 2,-2 4,0 0,-2 1,-1 1,-1 1,0 1,-1 1,0 1,-1 2,0 1,1 1,1 1,1 1,1 1,1 0,1 1,1 1,1 1,1 0,1 1,0 1,1 1,1 1,1 1,1 1,1 0,1 1,1 0,1 1,0 1,1 1,1 1,1 1,1 1,1 0,1 1,1 0,1 1,0 1,1 1,1 1,1 1,1 1,1 0,1 1,1 1,1 0,1 1,0 1,1 1,1 1,1 1,1 1,1 0,1 1,1 0,1 1,0 1,1 1,1 1,1 1,1 1,1 0,1 1,1 0,2 -1,1 -1,1 -1,0 -1,1 -1,1 -1,0 -1,1 -1,1 -1,0 -1,1 -1,1 -2,0 -1,-1 0,2 -2,2 -1,0 -2,2 -2,0 -1,-1 0,2 -1,1 -1,1 -1,0 -1,1 -1,1 -1,0 -1,1 -1,0 -1,1 -1,1 -1,0 -1,1 -1,1 -2,0 -1,-1 0,2 -1,1 -1,1 -1,0 -1,1 -1,1 -1,0 -1,1 -1,0 -1,1 -2,0 -1,-1 0,2 -1,1 -1,0 -1,1 -2,0 -1,-1 -1,1 -4,0 -1,-1 -1,0 -1,1 1,1 0,3 -1,1 -1,0 -1,1 -2,0 -1,1 -1,0 -1,1 -1,0 -1,1 -2,0 -1,1 -1,0 -1,1 -1,0 -1,1 -2,0 -1,1 -1,0 -1,1 -1,0 -1,1 -2,0 -1,-1 -1,0 0,3 2,0 1,-1 1,0 1,-1 2,0 1,-1 1,0 1,-1 1,0 1,-1 2,0 1,-1 1,0 1,-1 1,0 1,-1 2,0 1,-1 1,0 1,-1 1,0 1,-1 3,0 1,1 0,-2 1,-1 1,0 1,-1 1,0 1,-1 2,0 1,-1 2,0 1,1 0,-2 1,-1 1,0 1,-1 1,-1 1,0 1,-1 1,0 1,-1 1,0 1,-1 1,-1 1,0 1,-1 1,-1 2,0 1,1 0,-2 1,-1 1,-1 2,0 1,1 0,-2 1,-1 1,-1 1,0 1,-1 1,-1 2,0 1,1 0,-2 1,-1 1,-1 1,0 1,-1 1,-1 1,0 1,-1 1,-1 2,0 1,1 0,-2 2,-2 1,0 2,-2 1,0 1,-1 1,-1 5,0 -94,186 96,-184 1,1 0,1 1,1 0,1 1,0 1,1 1,1 1,1 1,1 1,1 1,1 0,2 1,0 1,1 1,1 1,1 1,1 1,1 1,1 0,2 1,0 1,1 1,1 1,1 1,1 1,1 1,1 0,2 1,0 1,1 1,1 1,1 1,1 1,1 1,1 0,1 1,1 0,1 1,0 1,1 1,1 1,1 1,1 1,1 0,1 1,1 0,1 1,0 1,1 1,1 1,1 1,1 0,2 -1,1 0,1 -1,1 -1,1 -1,0 -1,1 -1,1 -2,0 -1,-1 0,2 -1,1 -1,1 -2,0 -1,-1 0,2 -1,1 -1,1 -1,0 -1,1 -1,1 -2,0 -1,-1 0,2 -1,1 -1,1 -1,0 -1,1 -1,1 -2,0 -1,-1 0,2 -1,1 -1,1 -2,0 -1,-1 0,2 -1,1 -1,1 -1,0 -1,1 -1,1 -2,0 -1,-1 0,2 -1,1 -1,1 -2,0 -1,-1 0,2 -1,1 -1,1 -2,0 -1,-1 0,2 -1,1 -1,1 -2,0 -1,-1 0,2 -2,2 -1,0 -1,1 -1,0 -1,1 -1,0 -1,1 -1,0 -1,1 -2,0 -1,1 -1,0 -1,1 -2,0 -1,-1 0,2 -1,1 -1,0 -1,1 -2,0 -1,1 -1,0 -1,1 -1,0 -1,1 -3,0 -1,-1 0,2 -1,1 -1,0 -1,1 -2,0 -1,1 -1,0 -1,1 -1,0 -1,1 -2,0 -1,1 -2,0 -1,-1 0,2 -1,1 -3,0 -1,-1 -1,-1 -1,-1 -1,-1 -1,0 -1,-1 -1,0 -1,-1 -1,-1 -1,-1 0,-4 -1,-1 -1,0 -1,-1 0,-2 -1,-1 -1,-1 -1,-1 -1,0 -1,-1 -1,0 -1,-1 -1,-1 -1,-1 0,-4 -1,-1 -2,0 -1,-1 -1,-1 0,-1 -1,0 -1,-1 -1,0 0,8 2,0 1,1 1,1 1,1 0,2 1,0 1,1 1,1 1,1 0,4 -1,1 5,0 1,1 1,1 0,2 1,0 1,1 2,2 0,2 1,0 1,1 1,1 0,4 -1,1 -1,0 -1,1 -2,0 -1,1 -1,0 -1,1 -1,0 -1,1 -2,0 -1,1 -1,0 -1,1 -2,0 -1,1 -1,0 -1,1 -2,0 0,1 3,0 1,-1 1,0 1,-1 2,0 1,-1 1,0 1,-1 1,0 1,-1 2,0 1,-1 1,0 1,-1 2,0 1,-1 2,0 1,1 1,0 1,1 2,0 2,2 0,1 1,1 0,1 1,1 0,2 1,1 0,2 2,2 0,2 -1,1 3,0 1,1 1,1 1,1 0,2 -1,1 2,0 1,1 1,1 1,1 1,1 0,1 1,1 0,1 1,1 0,1 1,1 0,1 1,1 0,2 -1,1 2,0 1,1 0,1 1,1 0,2 1,1 0,2 1,1 0,2 1,1 0,2 1,1 0,2 1,1 0,2 1,1 0,5 -1,1 -33,0 -2,-2 0,-1 -1,-1 0,-1 -1,-1 2,5 -1,1 -16,0 -1,-1 -1,0 -1,-1 0,-1 -1,-1 0,-4 1,-1 1,-1 1,0 -3,1 -1,0 0,10 97,-184 -96,184 31,-72 2,0 1,-1 2,0 1,1 0,-2 1,-1 1,0 1,-1 2,0 1,-1 1,0 1,-1 1,0 1,-1 2,0 1,-1 1,0 1,-1 1,0 1,-1 2,0 1,-1 1,0 1,-1 1,0 1,-1 2,0 1,-1 2,0 1,1 1,-1 1,0 0,-2 1,-1 1,0 1,-1 1,0 1,-1 1,0 1,-1 1,0 1,-1 1,0 1,-1 2,0 1,1 0,-2 1,-1 1,-1 2,0 1,1 0,-2 1,-1 1,-1 1,0 1,-1 1,0 1,-1 1,-1 1,0 2,-2 2,0 1,1 0,-2 1,-1 2,0 1,1 1,0 1,1 1,1 1,1 1,1 1,1 1,1 0,1 1,0 -1,-2 -5,-5 0,-3 1,-1 1,-1 1,0 1,-1 1,0 1,-1 2,0 1,1 1,0 -1,-1 0,-2 1,-1 1,-1 1,-1 2,0 1,1 0,-2 1,-1 1,-1 2,0 1,1 0,-2 1,-1 1,-1 1,0 1,-1 1,-1 2,0 1,1 0,-2 1,-1 1,-1 1,0 1,-1 4,0 1,1 1,1 1,1 1,1 1,1 1,1 0,1 1,1 0,1 1,0 5,5 1,1 0,1 1,1 0,1 1,0 1,1 1,1 1,1 1,1 1,1 0,1 1,1 0,1 1,0 1,1 1,1 1,1 1,1 1,1 0,1 1,1 1,1 1,1 0,3 -2,2 -1,0 -1,1 -1,1 -1,0 -1,1 -1,1 -2,0 -1,-1 0,2 -1,1 -1,1 -1,0 -1,1 -1,1 -1,0 -1,1 -1,1 -2,0 -1,-1 0,2 -1,1 -1,0 -1,1 -1,1 -2,0 -1,-1 0,-3 -1,-1 0,-1 -1,-1 -1,-1 -1,-1 -1,-1 0,-1 -1,0 0,1 4,4 0,3 -1,1 -1,1 0,2 -1,1 -2,0 -1,-1 -2,0 -1,-1 -1,-1 -1,-1 -1,-1 0,-1 -1,-1 -1,-1 -1,-1 -1,-1 -1,-1 5,7 3,3 0,2 -1,1 2,0 1,1 0,2 -2,2 -1,0 -1,1 -1,1 -1,0 -1,1 -1,0 -1,1 -1,0 0,1 -1,1 -2,0 -1,1 -1,0 -1,1 -1,1 -1,0 -1,1 -1,0 -1,1 -1,0 -1,1 -1,0 -1,1 -2,0 -1,1 -1,0 -1,1 -2,0 -1,1 -2,0 -1,1 -2,0 -1,1 -3,0 -1,1 -3,0 -1,1 -3,0 -1,1 -4,0 -1,1 -3,0 -1,1 -2,0 -1,1 -3,0 -1,1 -3,0 -1,1 -3,0 -1,1 -7,0 -1,-1 0,-1 -1,-1 0,-4 -1,-1 -2,0 -1,-1 -1,-1 -1,-1 0,-1 -1,-1 -1,0 -1,-1 -1,0 -1,-1 -1,-1 0,-1 -1,0 -1,-1 -1,-1 -1,-1 -1,-1 0,-4 -1,-1 -2,0 -2,-2 0,-4 1,-1 -31,72 58,-38 3,0 1,-1 3,0 1,-1 3,0 1,-1 4,0 1,-1 4,0 1,1 1,0 0,-2 1,-1 3,0 1,-1 3,0 1,-1 3,0 1,-1 3,0 1,-1 3,0 1,-1 2,0 1,-1 3,0 1,1 0,-2 1,-1 1,0 1,-1 1,0 1,-1 1,0 1,-1 1,0 1,-1 1,0 1,-1 1,0 1,-1 1,0 1,-1 1,0 1,-1 1,0 1,-1 1,-1 2,0 1,1 0,-1 1,-1 2,0 0,-1 1,-1 2,0 0,-2 1,-1 1,-1 1,0 1,-1 1,-1 1,0 1,-1 1,-1 1,0 1,-1 1,0 1,-1 1,-1 1,0 1,-1 1,-1 2,0 1,1 0,-2 2,-2 1,0 1,-1 1,-1 1,0 1,-1 1,-1 2,0 1,1 0,-2 1,-1 1,-1 1,0 1,-1 1,-1 1,0 1,-1 2,0 1,1 1,1 0,1 1,0 1,1 1,1 1,1 1,1 1,1 1,1 0,1 1,1 0,1 1,0 1,1 1,1 2,2 1,1 1,1 0,1 1,1 0,1 1,0 1,1 1,1 1,1 1,1 1,1 1,1 0,1 1,1 1,1 1,1 1,1 0,5 -1,1 0,1 -1,1 -1,1 -2,2 -4,0 -1,1 0,1 -1,1 -2,0 -1,1 -1,1 -1,1 0,1 -1,1 0,1 -1,1 -1,1 -2,0 0,1 -1,1 -2,2 -1,0 -1,1 -1,1 -1,0 -1,1 -1,1 -4,0 0,2 -1,1 -1,1 -2,0 -1,-1 0,2 -1,1 -1,1 -1,0 -1,1 -2,0 -1,-1 0,2 -1,1 -2,0 -1,-1 0,2 -1,1 -1,0 -1,1 -1,0 -1,1 -2,0 -1,1 -1,0 -1,1 -2,0 -1,1 -1,0 -1,1 -2,0 -1,1 -5,0 -1,-1 0,-5 -1,-1 0,3 -1,1 -2,0 -1,1 -2,0 -1,1 -3,0 -1,1 -7,0 -1,-1 -1,-1 0,3 -1,1 -1,1 -3,0 0,3 -1,1 -47,-35 -58,38 57,-37 0,0 -57,37 102,-2 -9,0 -1,1 -23,0 -1,-1 -1,-1 0,-2 -1,-1 0,-2 -1,-1 0,-2 -1,-1 0,-3 1,-1 -2,0 -1,-1 0,-2 -1,-1 0,-2 -1,-1 0,-2 -1,-1 0,-2 -1,-1 0,-2 -1,-1 0,-3 45,33 -102,2Z"/>
<path onmouseover="hoverPath(evt)" onmouseout="recoverPath(evt)" fill="rgb(241,240,229)" d="M  15,173l 0,0 1,-1 2,0 1,-1 1,0 0,-2 -1,-1 -1,0 -1,-1 0,-2 -1,-1 -1,-1 -1,0 -1,-1 0,-2 -1,-1 -6,0 -1,-1 0,-2 1,-1 1,0 0,-2 -1,-1 0,0 -1,-1 -1,0 -1,-1 0,-2 -1,-1 -1,-1 -1,0 0,33 1,0 1,-1 1,0 1,-1 2,0 1,-1 1,0 1,-1 2,0 1,-1 1,0 1,-1Z"/>
<path onmouseover="hoverPath(evt)" onmouseout="recoverPath(evt)" fill="rgb(242,240,230)" d="M  22,200l -2,0 0,1 1,1 0,1 1,1 0,2 -1,1 1,1 0,1 1,1 2,0 1,1 0,1 1,1 1,1 0,1 1,1 1,1 0,1 1,1 0,3 -1,1 -2,0 -1,-1 -1,1 -1,0 -1,1 -2,0 -1,1 -2,0 -1,1 0,1 1,1 1,1 0,1 1,1 0,1 1,1 1,1 0,1 1,1 0,1 1,1 31,0 0,-3 -1,-1 0,-2 -1,-1 0,-2 -1,-1 0,-2 -1,-1 0,-2 -1,-1 0,-2 -1,-1 0,-2 -1,-1 0,-1 -2,0 -1,-1 0,-2 1,-1 -1,-1 0,-1 -1,-1 0,-1 -1,-1 0,-1 -1,-1 0,-1 -1,-1 -1,-1 -1,-1 -2,0 -1,-1 0,-2 1,-1 -1,-1 0,0 -1,-1 -2,0 -1,1 0,0 -1,1 -2,0 -1,1 -2,0 -1,1 -1,0 -1,1 -1,0 -1,1Z"/>
<path onmouseover="hoverPath(evt)" onmouseout="recoverPath(evt)" fill="rgb(242,241,231)" d="M  53,0l -2,0 0,1 1,1 0,0 1,1 1,1 2,2 1,1 1,1 1,0 1,1 0,1 1,1 0,1 2,2 1,1 1,1 1,0 1,1 0,1 1,1 0,1 1,1 1,1 1,1 1,1 1,0 1,1 0,1 1,1 0,1 1,1 2,2 1,1 1,1 1,0 1,1 0,1 1,1 0,1 1,1 1,1 1,1 1,1 1,1 1,0 1,1 0,2 1,1 1,1 1,1 1,1 1,1 1,1 1,1 0,1 1,1 1,1 1,1 1,1 1,1 1,1 1,0 1,1 0,1 1,1 0,1 1,1 1,1 1,1 1,1 1,0 1,1 0,1 1,1 0,1 1,1 1,1 1,1 1,1 1,0 1,1 0,1 1,1 0,1 1,1 1,1 1,1 1,1 1,0 1,1 0,1 1,1 0,1 1,1 1,1 1,1 1,1 1,0 1,1 0,1 1,1 0,1 1,1 1,1 1,1 1,1 1,0 1,1 0,1 1,1 1,1 0,1 1,1 1,0 1,1 0,1 1,1 1,1 1,0 1,1 0,1 1,1 0,1 1,1 2,2 1,1 1,0 1,1 0,1 1,1 0,1 1,1 1,1 1,1 1,1 1,1 1,0 1,1 0,1 1,1 0,1 3,3 1,1 1,0 1,1 0,1 1,1 0,1 1,1 1,1 1,1 1,1 1,0 1,1 0,1 1,1 1,1 0,1 1,1 1,1 1,1 1,0 1,1 0,1 1,1 1,1 0,1 1,1 1,1 1,1 1,1 1,0 1,1 0,1 1,1 0,1 1,1 1,1 1,1 1,1 1,1 1,0 1,1 0,1 1,1 2,0 1,1 1,1 1,1 1,1 1,1 1,1 0,1 1,1 1,1 0,2 -1,1 0,2 -1,1 0,3 -1,1 -1,1 3,-3 1,-1 5,-5 1,-1 -1,0 -1,-1 0,-1 -1,-1 -1,-1 -1,-1 -1,-1 -1,-1 -1,-1 -1,-1 -1,-1 0,-1 -1,-1 -1,-1 -1,-1 -1,-1 0,-1 -1,-1 -1,-1 -1,-1 -1,-1 -1,-1 0,-1 -1,-1 -1,-1 -1,-1 0,-1 -1,-1 -1,-1 -1,-1 -1,-1 0,-1 -1,-1 -1,-1 -1,-1 -1,-1 0,-1 -1,-1 -1,-1 -1,-1 -1,-1 -1,-1 0,-1 -1,-1 -1,-1 -1,-1 -1,-1 -1,-1 0,-1 -1,-1 -1,-1 -1,-1 -1,-1 -1,-1 0,-1 -1,-1 -1,-1 -1,-1 -1,-1 -1,-1 0,-1 -1,-1 -1,-1 -5,-5 0,-1 -1,-1 -1,-1 -1,-1 -1,-1 -1,-1 -1,-1 -1,-1 -1,-1 0,-1 -1,-1 -1,-1 -1,-1 -1,-1 -2,-2 -1,-1 -1,-1 0,-1 -1,-1 -1,-1 -1,-1 -1,-1 -1,-1 -1,-1 -1,-1 0,-1 -1,-1 -1,-1 -1,-1 -1,-1 -1,-1 -1,-1 -1,-1 -1,-1 0,-1 -1,-1 -1,-1 -1,-1 -1,-1 -1,-1 -1,-1 -1,-1 0,-1 -1,-1 -1,-1 -1,-1 -1,-1 -1,-1 -1,-1 -1,-1 -1,-1 0,-1 -1,-1 -1,-1 -1,-1 -1,-1 -1,-1 -1,-1 -1,-1 -1,-1 0,-1 -1,-1 -1,-1 -1,-1 -1,-1 -1,-1 -1,-1 -1,-1 0,-1 -1,-1 -1,-1 -1,-1 -1,-1 -1,-1 -1,-1 -1,-1 -1,-1 0,-1 -2,-2 -1,-1 -1,-1 -1,-1 -1,-1 -1,-1 0,-1 -1,-1 -1,-1 -1,-1 -1,-1 -1,-1 -1,-1 0,-1 -1,-1 -5,-5 0,-1 -1,-1 -1,-1 -1,-1 -1,-1 -1,-1 -1,-1 -1,-1 0,-1 -1,-1 -1,-1 -1,-1 0,-2Z"/>
<path onmouseover="hoverPath(evt)" onmouseout="recoverPath(evt)" fill="rgb(171,198,238)" d="M  65,1l 1,1 1,1 1,1 0,1 1,1 1,1 1,1 1,1 1,1 1,1 1,1 0,1 1,1 1,1 1,1 1,1 1,1 1,1 0,1 1,1 1,1 1,1 1,1 1,1 1,1 0,1 1,1 1,1 1,1 1,1 1,1 1,1 1,1 0,1 1,1 1,1 1,1 1,1 1,1 1,1 1,1 1,1 0,1 1,1 1,1 1,1 1,1 1,1 1,1 1,1 0,1 1,1 1,1 1,1 1,1 1,1 1,1 1,1 1,1 0,1 1,1 1,1 1,1 1,1 1,1 1,1 1,1 1,1 0,1 1,1 1,1 1,1 1,1 1,1 1,1 1,1 0,1 1,1 1,1 1,1 1,1 1,1 1,1 1,1 1,1 0,1 1,1 1,1 1,1 1,1 1,1 1,1 1,1 0,1 1,1 1,1 1,1 2,2 1,1 1,1 1,1 0,1 1,1 1,1 1,1 1,1 1,1 1,1 1,1 1,1 0,1 1,1 1,1 3,3 1,1 1,1 0,1 1,1 1,1 1,1 1,1 1,1 0,1 1,1 1,1 1,1 1,1 1,1 0,1 1,1 1,1 1,1 1,1 1,1 0,1 1,1 1,1 1,1 1,1 1,1 0,1 1,1 1,1 1,1 1,1 0,1 1,1 1,1 1,1 1,1 0,1 1,1 1,1 1,1 0,1 1,1 1,1 1,1 1,1 1,1 0,1 1,1 1,1 1,1 1,1 0,1 1,1 1,1 1,1 1,1 1,1 1,1 1,1 1,1 0,1 2,0 1,-1 0,0 2,-2 1,-1 1,-1 0,-1 -1,0 -1,-1 -1,-1 -1,-1 -1,-1 0,-1 -1,-1 -1,-1 -1,-1 0,-1 -1,-1 -1,-1 -1,-1 0,-1 -1,-1 -1,-1 -1,-1 -1,-1 0,-1 -1,-1 -1,-1 -1,-1 0,-1 -1,-1 -1,-1 -1,-1 0,-1 -1,-1 -1,-1 -1,-1 0,-1 -1,-1 -1,-1 -1,-1 0,-1 -1,-1 -1,-1 -1,-1 -1,-1 0,-1 -1,-1 -1,-1 -1,-1 -1,-1 -1,-1 -1,-1 -1,-1 -1,-1 0,-1 -1,-1 -1,-1 -1,-1 -1,-1 -1,-1 -1,-1 -1,-1 -1,-1 0,-1 -1,-1 -1,-1 -1,-1 -1,-1 -1,-1 -1,-1 -1,-1 -1,-1 -1,-1 0,-1 -1,-1 -1,-1 -1,-1 -1,-1 -1,-1 -1,-1 -1,-1 -1,-1 0,-1 -1,-1 -1,-1 -1,-1 -2,-2 -1,-1 -1,-1 -1,-1 0,-1 -1,-1 -1,-1 -1,-1 -1,-1 -1,-1 -1,-1 -1,-1 -1,-1 0,-1 -1,-1 -1,-1 -1,-1 0,-2 1,-1 0,-3 1,-1 0,-3 1,-1 0,-4 1,-1 0,-3 1,-1 0,-3 1,-1 0,-3 1,-1 0,-3 1,-1 0,-3 1,-1 0,-3 1,-1 0,-3 1,-1 0,-3 1,-1 0,-3 1,-1 0,-3 1,-1 0,-3 1,-1 0,-2 1,-1 1,-1 5,0 -1,-1 -3,0 -1,-1 0,-3 1,-1 0,-2 1,-1 0,-3 -2,0 0,3 -1,1 0,4 -1,1 -1,1 -1,1 0,1 1,1 0,3 -1,1 0,3 -1,1 0,3 -1,1 0,3 -1,1 0,3 -1,1 0,3 -1,1 0,3 -1,1 0,3 -1,1 0,3 -1,1 0,2 -1,1 0,3 -1,1 0,3 -1,1 0,3 -1,1 0,2 -1,1 0,3 -2,2 -2,0 -1,-1 -1,-1 0,-1 -1,-1 -1,-1 -1,-1 -1,-1 -1,-1 -1,-1 -1,-1 -1,-1 0,-1 -1,-1 -1,-1 -1,-1 -1,-1 -1,-1 -1,-1 -1,-1 -1,-1 0,-1 -1,-1 -1,-1 -1,-1 -1,-1 -1,-1 -1,-1 -1,-1 -1,-1 0,-1 -1,-1 -1,-1 -1,-1 -1,-1 -1,-1 -1,-1 -1,-1 0,-1 -1,-1 -1,-1 -1,-1 -1,-1 -1,-1 -1,-1 -1,-1 -1,-1 0,-1 -1,-1 -1,-1 -1,-1 -1,-1 -1,-1 -1,-1 -1,-1 0,-1 -1,-1 -1,-1 -1,-1 -1,-1 -1,-1 -2,-2 -1,-1 0,-1 -1,-1 -1,-1 -1,-1 -1,-1 -1,-1 -1,-1 0,-2 -10,0 -1,1 100,12 2,0 1,1 2,0 -2,-1 -3,-1 0,1 -100,-12Z"/>
<path onmouseover="hoverPath(evt)" onmouseout="recoverPath(evt)" fill="rgb(241,241,237)" d="M  78,1l 1,1 1,1 1,1 1,1 1,1 1,1 0,1 1,1 1,1 1,1 1,1 1,1 2,2 1,1 0,1 1,1 1,1 1,1 1,1 1,1 1,1 1,1 0,1 1,1 1,1 1,1 1,1 1,1 1,1 1,1 1,1 0,1 1,1 1,1 1,1 1,1 1,1 1,1 1,1 0,1 1,1 1,1 1,1 1,1 1,1 1,1 1,1 1,1 0,1 1,1 1,1 1,1 1,1 1,1 1,1 1,1 1,1 0,1 1,1 1,1 1,1 1,1 1,1 1,1 1,1 1,1 0,1 1,1 1,-1 0,-3 1,-1 0,-2 1,-1 0,-3 1,-1 0,-3 1,-1 0,-3 1,-1 0,-2 1,-1 0,-3 1,-1 0,-3 1,-1 0,-3 1,-1 0,-3 1,-1 0,-3 1,-1 0,-3 1,-1 0,-3 1,-1 0,-3 1,-1 0,-1 -1,-1 0,-3 1,-1 1,-1 1,-1 0,-4 1,-1 0,-2 -78,0 -1,1Z"/>
<path onmouseover="hoverPath(evt)" onmouseout="recoverPath(evt)" fill="rgb(248,204,111)" d="M  186,1l 0,0 1,1 1,0 1,1 1,1 1,1 0,4 4,0 1,1 0,1 3,0 1,1 1,1 1,1 0,1 2,0 1,1 1,1 0,4 3,0 1,1 0,2 6,0 1,1 1,1 1,1 1,0 1,1 1,1 0,1 1,1 2,0 1,1 1,1 0,1 2,0 1,1 0,4 3,0 1,1 0,2 3,0 1,1 0,2 3,0 1,1 0,2 6,0 3,3 1,0 1,1 1,1 1,0 0,-19 -2,0 -1,-1 -1,0 -1,-1 -1,-1 -1,-1 -1,0 -1,-1 -1,-1 -1,-1 -1,0 -1,-1 -1,-1 -2,0 -1,-1 0,-1 -1,-1 -2,0 -1,-1 0,-1 -1,-1 -1,0 -1,-1 -1,-1 -1,-1 -1,-1 -1,0 -1,-1 -1,-1 -1,-1 -1,0 -3,-3 -1,0 -1,-1 -1,-1 -1,-1 -1,0 -1,-1 -1,-1 -1,-1 -1,0 -1,-1 0,-2 -23,0 -1,1Z"/>
<path onmouseover="hoverPath(evt)" onmouseout="recoverPath(evt)" fill="rgb(244,243,236)" d="M  213,1l 1,1 1,1 1,1 1,0 1,1 1,1 1,1 1,0 1,1 1,1 1,1 1,0 1,1 1,1 1,1 1,0 1,1 2,2 1,1 1,0 1,1 1,1 0,1 2,0 1,1 1,1 0,1 2,0 1,1 1,1 1,0 1,1 1,1 1,1 1,0 2,2 1,1 1,0 1,1 1,0 0,-32 -41,0 -1,1 -1,-1 0,0 1,1Z"/>
<path onmouseover="hoverPath(evt)" onmouseout="recoverPath(evt)" fill="rgb(243,243,236)" d="M  216,84l -3,0 -1,-1 0,-3 1,-1 0,-1 1,-1 1,-1 0,-2 1,-1 0,-4 -1,-1 0,-5 1,-1 0,-1 1,-1 0,-2 -1,-1 0,-2 -1,-1 0,-3 1,-1 0,-2 1,-1 0,-2 -1,-1 0,-3 2,-2 3,0 1,1 0,9 -1,1 0,4 1,1 0,1 7,0 1,1 2,0 1,-1 8,0 1,1 1,1 0,5 -1,1 -1,1 -6,0 -1,-1 -1,0 -1,-1 -2,0 -1,-1 -2,0 -1,-1 -2,0 -1,-1 -2,0 0,1 1,0 1,1 1,0 1,1 0,1 1,1 0,2 1,1 0,4 -1,1 -1,1 0,1 -1,1 -1,1 -1,1 -1,1 -1,1 -1,1 -1,1 -1,1 -1,1 7,-44 1,1 -1,-1 -7,44 28,-28 -2,-2 -1,-1 -1,0 -1,-1 -1,-1 0,-1 -2,0 -2,-2 0,-1 -2,0 -1,-1 -1,-1 -1,-1 -1,0 -1,-1 -1,-1 18,14 -28,28 29,-28 0,0 1,1 0,-1 1,2 1,1 0,0 -3,-3 -29,28 3,-47 -1,-1 -1,0 -1,-1 -1,-1 0,-1 -2,0 -1,-1 -1,-1 -1,-1 -1,0 -1,-1 -1,-1 -1,-1 -1,0 -1,-1 -1,-1 -1,-1 0,-1 -2,0 -1,-1 -1,-1 -1,-1 0,-1 -2,0 -1,-1 -1,-1 -1,-1 0,-1 -2,0 -1,-1 -1,-1 -1,-1 0,-1 -2,0 -1,-1 -1,-1 -1,-1 0,-1 -2,0 -1,-1 -1,-1 0,-1 -1,0 -1,-1 0,-3 -13,0 0,4 -1,1 0,2 -1,1 0,1 3,0 1,1 1,0 1,1 2,0 1,1 1,0 1,1 0,2 -1,1 -4,0 -1,-1 -2,0 -1,-1 -3,0 -1,1 0,2 -1,1 0,3 -1,1 0,3 -1,1 0,3 -1,1 0,3 -1,1 0,3 -1,1 0,3 -1,1 0,3 -1,1 0,3 -1,1 0,3 -1,1 0,3 -1,1 0,3 -1,1 0,4 -1,1 0,3 -1,1 0,3 -1,1 1,1 0,0 1,1 1,1 0,1 1,1 1,1 1,1 1,1 1,1 1,1 1,1 1,1 0,1 1,1 1,1 1,1 1,1 1,1 1,1 2,2 0,1 1,1 1,1 1,1 1,1 1,1 1,1 1,1 1,1 0,1 1,1 1,1 1,1 1,1 1,1 1,1 1,1 1,1 1,1 0,1 2,2 1,1 1,1 1,1 1,1 2,2 0,1 1,1 1,1 1,1 1,1 1,1 1,1 1,1 1,1 0,1 1,1 1,1 1,1 1,1 0,1 1,1 1,1 1,1 0,1 1,1 1,1 1,1 0,1 1,1 1,1 1,1 0,1 1,1 1,1 1,1 0,1 1,1 1,1 1,1 1,1 0,1 1,1 1,1 1,1 0,1 1,1 1,1 1,1 0,1 1,1 1,1 1,1 1,0 1,-1 0,0 5,-5 2,0 0,-2 1,-1 -1,-1 0,-2 1,-1 2,-2 1,-1 1,-1 2,0 1,1 1,0 1,-1 1,-1 1,-1 1,-1 1,-1 1,-1 1,-1 2,-2 1,-1 2,0 0,-83 -3,0 -1,-1 -1,-1 -31,-23 -3,47 4,-47 -4,47Z"/>
<path onmouseover="hoverPath(evt)" onmouseout="recoverPath(evt)" fill="rgb(181,207,193)" d="M  241,173l 0,0 -1,1 -2,2 -1,1 -5,5 -1,1 -2,2 -1,1 -1,1 0,1 1,1 1,1 1,1 1,1 1,1 1,1 1,1 1,0 1,1 0,1 1,1 1,1 1,1 1,1 1,1 1,1 1,1 1,1 1,1 1,1 1,1 0,1 1,1 1,1 1,1 1,1 1,1 1,1 0,1 1,0 1,1 0,-24 -2,0 -1,-1 0,-1 -2,0 -1,-1 0,-1 -1,-1 -1,-1 -1,-1 -2,0 -1,1 -5,0 -1,-1 -1,-1 -1,-1 0,-2 1,-1 8,0 1,-1 1,0 1,-1 1,-1 1,0 1,-1 1,-1 1,0 1,-1 2,0 0,-16 -1,0 -1,1 -1,1 -1,1 -2,2 -1,1 -1,1 0,1 -1,1 -1,0 0,3 -1,1 -2,0 -1,1Z"/>
<path onmouseover="hoverPath(evt)" onmouseout="recoverPath(evt)" fill="rgb(244,243,235)" d="M  0,34l 0,64 2,0 1,1 1,-1 1,0 1,-1 1,0 1,-1 2,0 1,-1 1,0 1,-1 1,0 1,-1 2,0 1,-1 1,0 1,-1 1,0 1,-1 2,0 1,-1 1,0 0,-1 -1,-1 0,-2 1,-1 1,-1 3,0 1,1 2,0 1,-1 2,0 1,1 1,-1 1,0 0,-2 1,-1 2,0 1,1 1,-1 1,0 1,-1 1,0 1,-1 1,-1 1,0 1,-1 0,-2 1,-1 2,0 1,1 1,-1 0,0 1,-1 1,0 1,-1 1,-1 1,0 1,-1 1,0 1,-1 1,-1 1,0 1,-1 0,-2 1,-1 2,0 1,1 1,-1 0,0 1,-1 1,0 1,-1 0,-2 1,-1 2,0 1,1 1,-1 0,0 1,-1 1,0 1,-1 1,-1 1,0 1,-1 1,-1 1,0 1,-1 -1,-1 0,-1 -1,-1 -1,-1 -2,-2 -1,0 -1,-1 0,-1 -1,-1 0,-1 -1,-1 -1,-1 -1,-1 -1,-1 -1,0 -1,-1 0,-1 -1,-1 -1,-1 0,-1 -1,-1 -1,-1 -1,-1 -1,-1 -1,0 -1,-1 0,-1 -1,-1 0,-1 -1,-1 -1,-1 -1,-1 -1,-1 -1,0 -1,-1 0,-1 -1,-1 0,-1 -1,-1 -1,-1 -1,-1 -1,-1 -1,0 -1,-1 0,-1 -2,-2 -1,-1 0,-1 -1,-1 -1,-1 -1,-1 -1,-1 -1,1 -1,0 -1,1 -1,0 -1,1 0,2 -1,1 -4,0 -1,1 -1,1 -1,0 -1,1 -1,1 -1,0 -1,1 -1,1 -1,0 -1,1 0,2 -1,1 -1,1 -2,0 -1,-1 -1,1 0,1 -1,1 -2,0 -1,1 -1,1 -1,0 -1,1 -1,1 -1,0 -1,1 0,2 -1,1 -1,0 -1,1 -2,0 -1,-1 -1,1 -3,0 0,3 3,53 0,-2 1,-1 2,0 1,1 0,2 -1,1 -2,0 -1,-1 -3,-53 10,50 0,-2 1,-1 2,0 1,1 0,2 -1,1 -2,0 -1,-1 -10,-50Z"/>
<path onmouseover="hoverPath(evt)" onmouseout="recoverPath(evt)" fill="rgb(251,241,142)" d="M  0,246l 0,4 66,0 1,1 7,0 1,1 12,0 1,-1 11,0 1,-1 7,0 1,-1 5,0 1,-1 4,0 1,-1 4,0 1,-1 4,0 1,-1 4,0 1,-1 3,0 1,-1 3,0 1,-1 3,0 1,-1 2,0 1,-1 2,0 1,-1 2,0 0,-1 1,-1 2,0 1,-1 4,0 1,-1 2,0 1,1 0,-2 1,-1 4,0 0,-2 1,-1 4,0 0,-4 1,-1 2,0 1,1 0,1 1,0 1,-1 1,0 1,-1 1,0 1,-1 1,-1 1,0 0,-1 1,-1 2,0 -2,-1 0,-2 1,-1 1,-1 2,0 0,-1 1,-1 2,0 0,-1 1,-1 1,-1 1,-1 1,0 1,-1 1,0 0,-1 1,-1 2,0 0,-2 1,-1 2,0 1,-1 0,-2 1,-1 1,-1 1,-1 1,-1 1,-1 2,0 1,-1 0,-2 1,-1 1,-1 1,-1 1,-1 1,-1 1,-1 1,-1 1,0 1,-1 1,-1 1,-1 1,-1 1,-1 1,-1 3,-3 1,-1 3,-3 1,-1 1,-1 1,-1 2,0 0,-3 1,-1 1,0 0,-1 1,-1 1,-1 4,-4 1,-1 1,-1 2,0 0,-10 -1,0 -3,3 -1,1 -7,7 -2,0 -1,-1 -1,0 -1,1 -1,1 -1,1 1,1 0,2 -1,1 0,2 -1,1 -2,0 -1,1 -1,1 -3,3 -1,1 0,2 -1,1 -1,1 -1,1 -1,1 -1,1 -1,1 -1,0 0,1 -7,7 -1,1 -3,3 -3,0 -4,4 0,1 -1,1 -1,0 0,1 -1,1 0,1 -1,1 -1,1 -1,1 -1,0 -3,3 -1,1 -1,1 -1,0 -2,2 -1,1 -1,0 -1,1 -1,1 -1,0 -1,1 -1,1 -1,0 -1,1 -1,1 -1,0 -1,1 -1,1 -1,0 -1,1 -1,0 -1,1 -1,0 -1,1 -1,0 -1,1 -1,0 -1,1 -1,1 -2,0 -1,1 -1,0 -1,1 -6,0 -1,1 -1,0 -1,1 -1,0 -1,1 -2,0 -1,1 -2,0 -1,1 -2,0 -1,1 -3,0 -1,1 -2,0 -1,1 -4,0 -1,1 -4,0 -1,1 -2,0 -1,1 -6,0 -1,1 -6,0 -1,1 -8,0 -1,1 -23,0 -1,1 -14,0 -1,-1 -30,0 -1,1 -2,0 -1,-1 -16,0 -1,1 -3,0 -1,-1 -1,0Z"/>
<path onmouseover="hoverPath(evt)" onmouseout="recoverPath(evt)" fill="rgb(244,243,235)" d="M  77,254l -2,0 0,1 94,0 0,-1 -1,-1 0,0 -1,-1 0,-1 -1,-1 -1,-1 0,-1 -1,-1 -2,0 -1,-1 -1,-1 0,-1 -1,-1 -1,-1 0,-1 -1,-1 0,-1 -1,0 0,1 -1,1 -2,0 -1,1 -2,0 -1,1 -2,0 -1,1 -3,0 -1,1 -3,0 -1,1 -3,0 -1,1 -4,0 -1,1 -4,0 -1,1 -4,0 -1,1 -4,0 -1,1 -5,0 -1,1 -7,0 -1,1 -11,0 -1,1Z"/>
<path onmouseover="hoverPath(evt)" onmouseout="recoverPath(evt)" fill="rgb(250,250,245)" d="M  190,250l 0,5 10,0 0,-2 1,-1 1,0 1,-1 1,0 0,-2 1,-1 1,-1 2,0 1,1 1,-1 1,-1 1,0 0,-2 1,-1 1,-1 1,0 1,-1 1,0 1,-1 1,0 1,-1 1,-1 1,0 1,-1 1,0 2,-2 2,0 1,1 0,-2 1,-1 1,-1 2,0 1,1 0,-2 1,-1 1,-1 2,0 1,1 0,-2 1,-1 1,-1 2,0 1,1 0,-2 1,-1 1,-1 2,0 1,1 0,-2 1,-1 1,-1 1,0 1,-1 2,0 -2,-1 0,0 -1,1 -1,0 -1,1 -1,0 -1,1 -1,0 -1,1 -1,1 -1,0 -1,1 -1,0 -1,1 -1,1 -1,0 -1,1 -1,0 -1,1 -1,1 -1,0 -1,1 -1,0 -1,1 -1,1 -1,0 -1,1 -1,1 -3,0 -1,-1 0,-1 -1,-1 -1,-1 -1,0 -1,-1 -1,0 -1,-1 -1,-1 -1,-1 0,-1 -1,-1 0,-1 -1,0 -1,-1 -1,-1 -1,-1 0,-4 -1,-1 -1,0 -1,-1 -1,0 -1,-1 0,-1 -1,-1 0,-2 -1,2 -1,0 -1,1 -1,0 -1,1 -1,1 4,-2 1,0 1,1 0,2 1,0 1,1 1,1 0,2 1,0 1,1 1,1 1,1 0,2 1,0 1,1 1,1 1,1 1,1 0,2 1,0 1,1 1,1 1,1 0,4 -1,1 -1,1 -1,0 -1,1 -1,1 -2,0 -1,-1 0,2 -1,1 -1,0 -1,1 -2,0 -1,-1 -1,-1 -1,-1 0,-1 -1,-1 -1,-1 -1,-1 0,-4 -1,-1 0,-1 -1,0 -1,-1 0,-1 -1,0 0,1 -1,1 1,1 0,1 1,1 1,1 0,1 1,1 1,1 1,1 0,1 1,1 1,1 0,2 -1,1 -1,0 0,1 -1,1 -1,0 0,2 -1,1 -1,1 -1,0 -1,1 -1,0 -1,1 -2,0 -1,-1 -1,-2 0,-2 -1,0 -2,-2 0,1 1,1 0,1 2,0Z"/>
<path onmouseover="hoverPath(evt)" onmouseout="recoverPath(evt)" fill="rgb(244,243,235)" d="M  203,254l -1,0 0,1 53,0 0,-34 -1,0 -1,1 -1,0 -1,1 0,2 -1,1 -2,0 -1,-1 -1,1 0,2 -1,1 -2,0 -1,-1 -1,1 0,2 -1,1 -2,0 -1,-1 -1,1 0,2 -1,1 -2,0 -1,-1 -1,1 0,2 -1,1 -2,0 -1,-1 -1,1 0,0 -1,1 -1,0 -1,1 -1,0 -1,1 -1,1 -1,0 -1,1 -1,0 -1,1 -1,0 -1,1 0,2 -1,1 -1,0 -1,1 -1,1 -2,0 -1,-1 -1,1 0,2 -1,1 -1,0 -1,1Z"/>
<path onmouseover="hoverPath(evt)" onmouseout="recoverPath(evt)" fill="rgb(171,198,238)" d="M  224,58l 0,0 1,1 2,0 1,1 2,0 1,1 2,0 1,1 1,0 1,1 4,0 1,-1 0,-3 -1,-1 -6,0 -1,1 -4,0 -1,-1 -7,0 -1,-1 0,-1 -1,-1 0,-6 1,-1 0,-7 -1,0 -1,1 0,1 1,1 0,4 -1,1 0,2 -1,1 0,1 1,1 0,2 1,1 0,4 -1,1 0,1 -1,1 0,3 1,1 0,6 -1,1 0,2 -2,2 0,1 -1,1 0,1 1,0 1,-1 0,0 1,-1 1,-1 1,-1 1,-1 1,-1 1,-1 1,-1 0,-1 1,-1 1,-1 0,-2 -1,-1 0,-2 -1,-1 0,-1 -1,0 -1,-1 -1,0 -1,-1 2,-4 -1,0 -1,-2 0,0 1,2Z"/>
<path onmouseover="hoverPath(evt)" onmouseout="recoverPath(evt)" fill="rgb(242,241,231)" d="M  0,187l 0,42 1,0 1,-1 3,0 1,1 0,-2 1,-1 2,0 1,1 0,2 -1,1 -3,0 0,1 -1,1 -1,0 -1,1 0,2 1,1 0,1 1,0 1,1 14,0 -1,-1 0,-1 -1,-1 0,-1 -1,-1 0,-2 1,-1 -1,-1 -1,-1 0,-3 2,-2 2,0 1,-1 2,0 1,-1 1,0 1,-1 2,0 1,1 0,-1 -1,-1 0,-1 -1,-1 -1,-1 0,-1 -1,-1 -2,0 -1,-1 0,-1 -1,-1 -1,-1 0,-1 -1,-1 0,-1 -1,-1 0,-2 1,-1 -1,-1 0,-3 1,-1 2,0 1,-1 1,0 0,-2 1,-1 2,0 1,1 1,0 1,-1 2,0 1,-1 0,-2 1,-1 -1,-1 0,0 -1,-1 0,-2 -1,-1 0,-2 -1,-1 0,-1 -1,-1 0,-1 -1,-1 -2,0 -1,-1 -1,0 -1,-1 -1,1 -2,0 -1,1 -1,0 -1,1 -2,0 -1,1 -1,0 -1,1 -1,0 -1,1 -2,0 -1,1 -1,0 -1,1 -4,0 0,3 14,34 -1,1 -2,0 -1,-1 0,-1 -1,-1 0,-2 1,-1 2,0 1,1 0,1 1,1 0,2 -14,-34 13,14 0,2 -1,1 -2,0 -1,-1 0,-2 1,-1 2,0 1,1 -13,-14 8,26 -2,0 -1,-1 0,-2 1,-1 2,0 1,1 0,2 -1,1 -8,-26Z"/>
<path onmouseover="hoverPath(evt)" onmouseout="recoverPath(evt)" fill="rgb(243,242,233)" d="M  60,207l 0,1 1,1 0,2 1,1 0,2 1,1 0,2 1,1 0,2 1,1 0,2 2,0 1,1 0,2 -1,1 0,1 1,1 0,2 1,1 0,2 1,1 0,2 1,1 21,0 1,-1 11,0 1,-1 0,-3 1,-1 3,0 1,-1 0,-4 1,-1 2,0 1,1 0,1 1,1 5,0 1,-1 3,0 1,-1 2,0 1,-1 2,0 0,-5 1,-1 2,0 1,1 0,2 1,1 0,5 3,0 1,-1 2,0 1,-1 1,0 1,-1 2,0 1,-1 1,0 1,-1 2,0 1,-1 1,0 1,-1 1,0 0,-2 1,-1 2,0 1,1 0,-2 1,-1 2,0 1,1 1,-1 1,0 1,-1 0,-2 1,-1 2,0 1,1 1,-1 0,-2 1,-1 4,0 1,-1 1,-1 1,0 1,-1 1,-1 1,0 1,-1 1,-1 0,-1 1,-1 2,0 1,-1 0,-1 1,-1 0,-1 3,-3 1,-1 2,0 0,-1 1,-1 1,-1 4,0 1,-1 1,-1 1,-1 0,-1 1,-1 0,-3 -1,-1 0,0 -1,-1 -1,-1 -1,-1 0,-1 -1,-1 -1,-1 -1,-1 -1,-1 -1,-1 -1,0 -1,-1 0,-1 -1,-1 0,-1 -1,-1 -1,-1 -1,-1 -1,-1 -1,-1 -1,0 -1,-1 0,-1 -1,-1 0,-1 -1,-1 -1,-1 -1,-1 -1,-1 -1,-1 -1,0 -1,-1 0,-1 -1,-1 -1,1 -1,0 -1,1 -1,1 -1,0 -1,1 0,2 -1,1 -2,0 -1,-1 -1,1 0,0 -1,1 -1,0 -1,1 -1,1 -1,0 -1,1 0,2 -1,1 -2,0 -1,-1 -1,1 0,0 -1,1 -1,0 -1,1 -1,1 -1,0 -1,1 -1,0 -1,1 -1,1 -1,0 -1,1 -1,1 -1,0 -1,1 0,2 -1,1 -2,0 0,1 -1,1 -2,0 0,1 -1,1 -2,0 -1,-1 -1,1 0,0 -1,1 -1,0 -1,1 -1,0 -1,1 -1,0 -1,1 -1,0 -1,1 -1,0 -1,1 -1,0 -1,1 -1,0 -1,1 -1,0 -1,1 -1,0 0,2 -1,1 -2,0 -1,-1 -1,0 -1,1 -2,0 -1,1 -3,0 -1,1 -3,0 -1,1 -3,0 -1,1 -3,0 -1,1 -3,0 0,2 -1,1 -3,0 -1,-1 -2,0 -1,1 -4,0 -1,1 -3,0 -1,1 -3,0 -1,1 -3,0Z"/>
<path onmouseover="hoverPath(evt)" onmouseout="recoverPath(evt)" fill="rgb(243,242,233)" d="M  122,126l 0,0 -1,-1 -1,1 -1,1 1,1 0,2 -1,1 1,1 1,1 1,1 1,1 1,1 1,1 0,1 1,1 0,1 1,0 1,1 1,1 1,1 1,1 1,1 0,1 1,1 0,1 1,0 1,1 1,1 1,1 1,1 1,1 3,0 1,1 0,1 1,1 1,1 1,1 1,1 0,1 1,1 0,3 1,-1 0,0 1,-1 1,0 0,-2 1,-1 2,0 1,1 1,-1 0,0 1,-1 1,0 1,-1 1,-1 1,0 1,-1 0,-2 1,-1 2,0 1,1 1,-1 0,0 1,-1 1,0 1,-1 1,-1 1,0 1,-1 0,-1 -1,-1 0,0 -1,-1 -1,-1 0,-1 -1,-1 -1,-1 -1,-1 -1,-1 -1,0 -1,-1 0,-1 -1,-1 0,-1 -1,-1 -1,-1 -1,-1 -1,-1 -1,0 -1,-1 0,-1 -1,-1 0,-1 -1,-1 -1,-1 -1,-1 -1,-1 -1,-1 -1,0 -1,-1 0,-1 -1,-1 0,-1 -1,-1 -3,-3 -1,-1 -2,0 -1,1 -1,0 -1,1 0,2 -1,1 -2,0 -1,-1 -2,2 -1,0 -1,1 0,2 -1,1 -2,0 -1,-1 -1,1 0,2 -1,1Z"/>
<path onmouseover="hoverPath(evt)" onmouseout="recoverPath(evt)" fill="rgb(242,241,231)" d="M  165,238l 0,0 -1,-1 -1,1 -4,0 0,1 1,1 0,1 1,1 1,1 0,1 1,1 2,0 1,1 1,1 0,1 1,1 1,1 0,1 1,1 1,1 0,2 17,0 0,-4 -1,0 -1,-1 0,-1 -1,-1 0,-3 1,-1 2,0 1,1 1,1 1,0 1,1 0,3 1,1 1,-1 1,0 1,-1 1,0 1,-1 0,-2 1,-1 1,0 0,-1 1,-1 1,0 -1,-1 0,0 -1,-1 0,-1 -1,-1 -1,-1 -1,-1 0,-1 -1,-1 -1,-1 0,-1 -1,-1 0,-2 1,-1 0,-1 1,-1 3,0 1,1 0,1 1,0 1,1 0,1 1,1 0,4 1,1 1,1 1,1 0,1 1,1 1,1 1,-1 1,0 0,-2 1,-1 2,0 1,1 1,-1 0,0 1,-1 1,0 1,-1 0,-2 -1,-1 0,0 -1,-1 -1,0 -1,-1 0,-2 -1,-1 -1,-1 -1,-1 -1,0 -1,-1 0,-2 -1,-1 -1,-1 -1,0 -1,-1 0,-2 -1,-1 -1,0 -1,-1 0,-2 -1,0 -1,1 0,0 -1,1 -4,0 0,1 -1,1 -2,0 -1,1 1,0 1,1 0,2 -1,1 -2,0 0,1 -1,1 -1,0 -1,1 -1,1 -1,0 -1,1 -1,0 -1,1 -3,0 -1,-1 0,3 -1,1 -4,0 0,2 -1,1 -4,0 0,2 -1,1Z"/>
<path onmouseover="hoverPath(evt)" onmouseout="recoverPath(evt)" fill="rgb(237,214,125)" d="M  207,23l -2,0 -1,-1 0,1 1,1 1,1 1,0 1,1 1,1 1,1 1,0 1,1 1,1 1,1 2,0 1,1 0,1 1,1 1,0 1,1 1,0 1,1 0,1 1,1 1,0 2,2 1,0 1,1 1,1 1,0 1,1 1,1 1,1 2,0 1,1 0,1 1,1 2,0 1,1 0,1 1,1 1,0 1,1 1,1 1,1 2,0 1,1 0,1 1,1 1,0 1,1 2,2 2,0 0,-5 -2,0 -1,-1 -1,-1 -1,0 -1,-1 -2,-2 -6,0 -34,-27 33,25 0,-1 -3,0 -1,-2 0,-1 -3,0 -1,-1 0,-2 -3,0 -1,-1 0,-4 -2,0 -1,-1 0,-1 -1,-1 -2,0 -1,-1 -1,-1 0,-1 -1,-1 -1,0 -1,-1 -1,-1 -1,-1 -6,0 -1,-1 0,-2 32,25 -33,-25 -3,-2 0,-3 -1,-1 -2,0 -1,-1 0,-1 -1,-1 -1,-1 -3,0 -1,-1 0,-1 -4,0 -1,-1 0,-4 -1,-1 -1,-1 -1,0 -1,-1 -1,-1 0,-2 -6,0 0,2 1,0 1,1 0,1 1,1 2,0 1,1 0,1 1,1 1,1 2,0 16,12 3,2 -18,-12 1,1 1,1 2,0 1,1 0,1 1,1 1,1 2,0 1,1 0,1 1,1 1,1 2,0 -14,-10 18,12Z"/>
<path onmouseover="hoverPath(evt)" onmouseout="recoverPath(evt)" fill="rgb(243,242,233)" d="M  226,190l 0,0 -1,-1 -1,0 -2,2 -1,1 -2,2 0,2 -1,1 -1,1 -2,0 -1,1 -2,2 -1,1 0,2 -1,1 -1,1 -2,0 0,2 -1,1 0,1 1,1 0,1 1,0 1,1 1,0 1,1 1,1 0,4 1,1 1,1 1,0 1,1 0,1 1,1 0,1 1,1 1,1 1,0 1,1 1,0 1,1 1,1 1,1 0,1 1,0 2,-2 1,0 1,-1 1,-1 1,0 1,-1 1,0 1,-1 1,-1 1,0 1,-1 1,0 1,-1 1,-1 1,0 1,-1 1,0 1,-1 1,-1 1,0 1,-1 1,0 1,-1 1,0 0,-1 -1,-1 0,0 -1,-1 -1,-1 -1,-1 -1,-1 -1,-1 0,-1 -1,-1 -1,-1 -1,-1 -1,-1 -1,-1 -1,-1 -1,-1 -1,-1 -1,-1 -1,-1 -1,-1 0,-1 -1,0 -1,-1 -1,-1 -1,-1 -1,-1 -1,-1 -1,-1 -1,-1Z"/>
<path onmouseover="hoverPath(evt)" onmouseout="recoverPath(evt)" fill="rgb(244,243,235)" d="M  245,183l -8,0 1,1 0,0 1,1 3,0 1,-1 1,0 1,-1 2,1 1,1 1,1 1,1 1,1 0,1 2,0 1,1 0,1 1,0 0,-14 -1,0 -1,1 -1,0 -1,1 -1,1 -1,0 -1,1 -1,3 -2,-1Z"/>
</svg>