<svg width="256" height="256" xmlns="http://www.w3.org/2000/svg"><script> 
var tempColor;
function hoverPath(evt){
obj = evt.target;
tempColor = obj.getAttribute("fill");
obj.setAttribute("fill","red");
//alert(tempColor);
//obj.setAttribute("stroke","red");}
function recoverPath(evt){
obj = evt.target;
obj.setAttribute("fill", tempColor);
//obj.setAttribute("stroke", tempColor);
}</script><path onmouseover="hoverPath(evt)" onmouseout="recoverPath(evt)" fill="rgb(242,241,232)" d="M  0,48l 0,125 2,0 1,1 1,0 1,1 0,1 13,0 1,-1 14,0 1,-1 15,0 1,-1 15,0 1,-1 4,0 1,-1 -1,-1 0,-14 -1,-1 0,-12 -1,-1 0,-1 -2,0 -1,-1 0,-2 1,-1 1,-1 1,0 0,-12 -1,-1 0,-1 -3,0 -1,1 -8,0 -1,-1 0,-2 1,-1 3,0 1,-1 7,0 1,-1 0,-1 -14,0 -1,-1 0,-2 1,-1 11,0 1,-1 1,0 0,-16 -1,-1 0,-11 -1,-1 0,-1 -4,0 0,5 -1,1 0,5 1,1 0,4 -1,1 0,1 -1,1 -1,1 -1,1 -1,1 -1,0 -1,1 -4,0 -1,1 -5,0 -1,1 -4,0 -1,-1 -5,0 -1,1 -5,0 -1,-1 -4,0 -1,-1 -2,0 -1,-1 -1,0 -1,-1 0,-2 -1,-1 -1,-1 -1,-1 0,-2 -2,0 -1,-1 0,-3 1,-1 0,-7 -1,-1 0,-7 1,-1 0,-3 1,-1 0,-1 -1,-1 0,-2 1,-1 1,-1 0,-1 1,-1 0,-2 -1,0 -1,-1 0,-1 -1,-1 -1,-1 -1,-1 0,-1 -1,-1 0,-5 -1,-1 0,-1 -6,0Z"/>
<path onmouseover="hoverPath(evt)" onmouseout="recoverPath(evt)" fill="rgb(243,242,232)" d="M  73,24l 0,1 -1,1 -2,0 0,3 -1,1 0,4 -1,1 0,22 1,1 0,16 1,1 0,6 1,1 8,0 1,-1 18,0 0,-2 -1,-1 0,0 -1,-1 -1,-1 0,-1 -1,-1 0,-1 -1,-1 -1,-1 0,-1 -1,-1 -1,-1 0,-1 -1,-1 -1,-1 0,-1 -1,-1 0,-4 -1,-1 0,-15 -1,-1 0,-17 -1,-1 0,-1 -10,0 -1,1Z"/>
<path onmouseover="hoverPath(evt)" onmouseout="recoverPath(evt)" fill="rgb(242,241,231)" d="M  130,136l 0,1 -1,1 0,13 1,1 0,6 1,1 0,3 23,0 1,-1 19,0 1,-1 18,0 1,-1 1,0 0,-5 1,-1 0,-11 1,-1 0,-10 -10,0 0,1 -1,1 -1,1 0,1 -1,1 -8,0 -1,-1 -5,0 -1,1 0,1 -1,1 -7,0 -1,1 -9,0 -1,-1 -1,-1 0,-2 -1,-1 0,-1 -11,0 -1,1 -5,0 -1,1Z"/>
<path onmouseover="hoverPath(evt)" onmouseout="recoverPath(evt)" fill="rgb(245,244,237)" d="M  0,1l 0,2 34,0 1,-1 34,0 0,-2 -68,0 -1,1Z"/>
<path onmouseover="hoverPath(evt)" onmouseout="recoverPath(evt)" fill="rgb(244,242,234)" d="M  0,217l 0,35 11,0 1,-1 8,0 1,-1 8,0 1,-1 9,0 1,-1 8,0 1,-1 9,0 1,-1 7,0 1,-1 3,0 -3,-1 0,0 -1,-1 -1,-1 -1,-1 -1,-1 0,-1 -1,-1 -1,-1 -1,-1 -1,-1 -1,-1 -1,-1 -1,-1 -1,-1 -1,-1 -1,-1 -1,-1 -1,0 -2,-2 -1,-1 -1,-1 -1,-1 -1,-1 -2,-2 -1,-1 0,-1 -1,0 -1,-1 -1,0 -1,-1 -1,-1 -1,-1 -1,0 -1,-1 -1,-1 -1,-1 -1,0 -1,-1 -1,-1 -1,0 -1,-1 -1,-1 -1,0 -1,-1 0,-1 -1,-1 0,-1 -3,0 -1,-1 -1,0 -1,-1 0,-1 -1,0 -1,-1 -1,-1 0,-1 -2,0 -1,-1 -1,-1 -1,0 -1,-1 -1,-1 -1,0 -1,-1 -1,-1 -1,0 -1,-1 -1,-1 -1,0Z"/>
<path onmouseover="hoverPath(evt)" onmouseout="recoverPath(evt)" fill="rgb(243,242,233)" d="M  71,88l 0,0 -1,1 0,2 1,1 0,14 1,1 0,13 1,1 0,14 1,1 0,16 1,1 0,11 1,0 1,1 8,0 1,-1 17,0 1,-1 3,0 0,-1 -1,-1 0,-3 -1,-1 0,-3 -1,-1 0,-44 1,-1 0,-3 1,-1 0,-10 -1,-1 0,-2 -1,-1 0,-1 -1,-1 0,-3 -1,0 -1,1 -17,0 -1,1 -11,0 -1,1Z"/>
<path onmouseover="hoverPath(evt)" onmouseout="recoverPath(evt)" fill="rgb(242,240,230)" d="M  134,167l 0,0 -1,1 -1,0 0,1 1,1 0,1 1,1 0,1 1,1 1,1 0,1 1,1 2,0 1,1 0,1 1,1 1,1 0,2 16,0 1,-1 21,0 1,-1 11,0 1,1 1,1 1,1 0,3 -1,1 0,12 -1,1 -2,0 -1,-1 0,-14 -1,0 -1,-1 -1,1 -20,0 -1,1 -1,0 0,11 -1,1 -2,0 -1,-1 0,-8 -1,-1 0,-2 -16,0 0,1 1,1 0,1 1,1 1,1 0,1 1,1 0,1 1,1 2,0 1,1 0,1 1,1 1,1 0,3 1,-1 2,0 1,1 0,4 1,0 1,1 1,0 1,1 1,1 1,0 1,1 1,0 1,1 1,0 1,1 1,0 1,1 1,0 1,-1 3,0 1,-1 4,0 1,-1 3,0 1,-1 1,0 0,-2 -2,0 -1,-1 -20,0 -1,-1 -1,0 -1,-1 0,-2 1,-1 10,0 1,1 18,0 1,1 0,4 1,1 10,0 1,1 5,0 1,1 4,0 1,1 2,0 1,1 3,0 1,1 4,0 1,1 2,0 0,-1 1,-1 0,-4 1,-1 0,-3 1,-1 0,-3 1,-1 0,-3 1,-1 0,-3 1,-1 0,-3 1,-1 0,-3 1,-1 0,-4 1,-1 0,-3 1,-1 0,-4 -1,-1 0,-3 -1,-1 0,-1 -1,-1 0,-1 -15,0 -1,1 -15,0 -1,1 -26,0 -1,1 -17,0 -1,1Z"/>
<path onmouseover="hoverPath(evt)" onmouseout="recoverPath(evt)" fill="rgb(241,240,228)" d="M  237,226l 0,0 1,1 1,1 1,1 1,1 0,3 1,1 0,1 1,1 1,1 1,1 1,1 1,1 1,0 1,1 0,1 1,1 1,1 1,1 3,0 0,-18 -3,0 -1,-1 -2,0 -1,-1 -3,0 -1,-1 -4,0 -1,-1 -4,0 -1,-1 0,3 1,1Z"/>
<path onmouseover="hoverPath(evt)" onmouseout="recoverPath(evt)" fill="rgb(249,234,129)" d="M  0,178l 0,9 2,0 1,1 1,1 1,0 1,1 1,1 1,0 2,2 1,0 1,1 1,1 2,0 1,1 0,1 1,1 1,0 1,1 0,1 1,0 1,1 3,0 1,1 0,1 1,1 0,1 1,0 1,1 1,1 1,0 1,1 1,1 1,0 1,1 1,1 1,1 1,0 1,1 1,1 1,1 1,0 1,1 1,0 1,1 0,1 1,1 1,1 1,1 1,1 1,1 1,1 1,1 1,1 1,0 1,1 1,1 1,1 1,1 1,1 1,1 1,1 1,1 1,1 1,1 1,1 1,1 0,1 1,1 1,1 1,1 1,1 2,0 1,1 0,1 1,1 1,1 0,1 1,1 0,1 1,1 1,1 0,3 12,0 0,-1 -1,-1 0,0 -1,-1 0,-1 -1,-1 0,-2 -1,-1 -1,0 -1,-1 -1,-1 0,-7 -1,-1 0,-1 -1,-1 0,-1 -1,2 -3,0 -1,-1 -1,-1 -1,-1 -1,0 -1,-1 0,-1 -2,0 -1,-1 -1,-1 -1,-1 -1,-1 -1,-1 0,-2 -1,-1 -1,-1 -1,0 -1,-1 0,-1 -1,-1 -1,-1 -1,-1 -1,-1 -1,-1 -1,-1 -1,0 -1,-1 0,-3 1,-1 -4,0 -1,-1 -1,0 -1,-1 -1,-1 -1,0 -1,-1 -1,-1 -1,0 -1,-1 -2,-2 -1,0 -1,-1 -1,-1 -1,-1 -1,-1 -2,0 -1,-1 0,-1 -1,0 -1,-1 -1,-1 -2,0 -1,-1 0,-1 -1,-1 -1,0 -1,-1 -1,-1 -1,0 -1,-1 -1,-1 -2,0 -1,-1 0,-2 -1,0 -1,-1 0,-1 -5,0 -1,-1 -1,-1 0,-1 -1,0 -1,-1 0,-1 -1,0 -1,-1 -1,0Z"/>
<path onmouseover="hoverPath(evt)" onmouseout="recoverPath(evt)" fill="rgb(171,198,238)" d="M  112,169l -1,0 0,3 1,1 0,4 1,1 0,4 1,1 0,3 1,1 0,4 1,1 0,4 1,1 0,4 1,1 0,3 1,1 0,4 1,1 0,4 1,1 0,3 1,1 0,4 1,1 0,4 1,1 0,4 1,1 0,4 1,1 0,4 1,1 0,4 1,1 0,5 7,0 0,-4 -1,-1 0,-4 -1,-1 0,-3 -1,-1 0,-4 -1,-1 0,-4 -1,-1 0,-3 -1,-1 0,-4 -1,-1 0,-3 -1,-1 0,-4 -1,-1 0,-3 -1,-1 0,-3 -1,-1 0,-4 -1,-1 0,-3 -1,-1 0,-4 -1,-1 0,-3 -1,-1 0,-3 -1,-1 0,-3 -1,-1 0,-3 -1,-1 0,-3 -1,-1 0,-2Z"/>
<path onmouseover="hoverPath(evt)" onmouseout="recoverPath(evt)" fill="rgb(243,242,233)" d="M  118,170l 1,1 0,3 1,1 0,3 1,1 0,3 1,1 0,3 1,1 0,3 1,1 0,4 1,1 0,3 1,1 0,4 1,1 0,3 1,1 0,3 1,1 0,4 1,1 0,3 1,1 0,4 1,1 0,3 1,1 0,4 1,1 0,4 1,1 0,3 1,1 0,4 1,1 0,5 17,0 0,-1 -1,-1 0,-2 -1,-1 0,-4 -1,-1 0,-3 -1,-1 0,-2 -1,-1 0,-4 1,-1 -2,0 -1,-1 0,-1 -1,-1 0,-1 -1,-1 0,-2 -1,-1 0,-3 -1,-1 0,-6 1,-1 0,-1 1,-1 0,-1 1,-1 0,-1 -1,-1 0,-1 -1,-1 0,-1 -1,-1 0,-2 -1,-1 0,-2 -1,-1 0,-1 -1,-1 -1,-1 -1,-1 -1,-1 0,-1 -1,-1 0,-1 -1,0 -1,-1 -2,0 -1,-1 0,-2 1,-1 3,0 0,-1 -1,-1 -2,0 -1,-1 0,-2 1,-1 -1,-1 0,0 -1,-1 0,-1 -1,-1 0,-1 -1,-1 0,-1 -1,-1 0,-2 -1,-1 -8,0Z"/>
<path onmouseover="hoverPath(evt)" onmouseout="recoverPath(evt)" fill="rgb(240,238,227)" d="M  119,106l 0,12 -1,1 0,10 1,1 6,0 0,-1 1,-1 1,0 0,-1 1,-1 0,-1 1,-1 1,-1 0,-1 1,-1 1,-1 1,-1 0,-1 1,-1 1,-1 0,-1 1,-1 0,-2 1,-1 0,-4 -1,-1 0,-1 -1,0 -1,-1 -14,0 -1,1Z"/>
<path onmouseover="hoverPath(evt)" onmouseout="recoverPath(evt)" fill="rgb(242,240,230)" d="M  128,74l 0,2 1,1 0,2 9,0 1,-1 8,0 1,-1 7,0 1,-1 11,0 1,1 3,0 1,-1 1,0 1,-1 2,0 1,1 8,0 1,1 9,0 1,1 21,0 -1,-1 0,-10 1,-1 0,-1 1,-1 1,-1 0,-1 1,-1 0,-1 1,-1 -1,-1 0,-2 1,-1 2,0 1,-1 0,-1 1,-1 0,-1 1,-1 0,-2 1,-1 0,-2 1,-1 0,-2 -1,-1 0,-2 -1,-1 0,-1 -1,-1 -1,0 -1,-1 -2,0 -1,-1 -1,0 -1,-1 -1,0 -1,-1 -4,0 -1,-1 0,-2 -4,0 2,1 0,2 -1,1 -1,0 -1,1 -3,0 -1,1 -1,1 -1,0 -1,1 -1,1 0,2 -1,1 -1,1 0,3 1,1 0,1 1,0 1,1 1,1 1,1 1,1 1,1 0,5 -1,1 -6,0 -1,1 -6,0 -1,1 -8,0 -1,-1 0,-2 1,-1 4,0 -1,-1 0,0 -1,-1 0,-1 -1,1 -5,0 -1,1 -9,0 -1,1 -9,0 -1,1 -3,0 0,2 10,0 1,1 0,2 -1,1 -8,0 -1,1 -4,0 -1,1 -1,1 -2,0 -1,1 -1,0 -1,1 -2,0 -1,1 -1,0 -1,1 -3,0 -1,1 -2,0 -1,-1 0,-2 -3,0 0,1 1,1Z"/>
<path onmouseover="hoverPath(evt)" onmouseout="recoverPath(evt)" fill="rgb(242,239,225)" d="M  167,2l 0,2 8,0 1,-1 6,0 1,-1 6,0 1,-1 7,0 1,1 4,0 1,-1 6,0 0,-1 -42,0Z"/>
<path onmouseover="hoverPath(evt)" onmouseout="recoverPath(evt)" fill="rgb(241,240,229)" d="M  173,82l 0,6 -1,1 0,2 -1,1 0,2 -1,1 0,3 -1,1 0,2 -1,1 0,2 -1,1 0,6 2,0 1,1 1,1 1,1 1,1 1,1 1,1 0,2 1,1 4,0 1,1 1,1 0,2 1,0 1,1 2,0 1,1 9,0 1,-1 1,0 1,-1 0,-1 -1,0 -1,-1 -11,0 -1,-1 -1,0 -1,-1 0,-4 1,-1 0,-4 1,-1 0,-3 1,-1 0,-3 1,-1 2,0 0,-5 1,-1 0,-9 -1,0 -1,-1 0,-2 1,-1 0,-2 1,-1 1,-1 -6,0 -1,-1 -8,0 -1,-1 -1,1 -1,0Z"/>
<path onmouseover="hoverPath(evt)" onmouseout="recoverPath(evt)" fill="rgb(242,241,232)" d="M  0,27l 0,13 2,0 1,1 4,0 1,-1 8,0 1,-1 7,0 1,-1 7,0 1,-1 7,0 1,-1 3,0 1,1 7,0 1,1 4,0 1,1 4,0 0,-1 1,-1 0,-5 1,-1 0,-3 1,-1 0,-3 1,-1 -2,0 -1,1 -17,0 -1,1 -16,0 -1,1 -12,0 -1,-1 -3,0 -1,1 -10,0 -1,1Z"/>
<path onmouseover="hoverPath(evt)" onmouseout="recoverPath(evt)" fill="rgb(252,251,249)" d="M  9,179l 11,0 1,-1 14,0 1,-1 15,0 1,-1 15,0 1,-1 2,0 1,1 1,0 1,1 0,9 1,1 0,18 -1,1 -3,0 -1,1 5,0 1,1 0,4 1,1 0,4 1,1 0,2 1,1 0,2 1,1 0,2 1,1 0,1 1,1 0,3 1,1 0,1 1,1 0,1 1,1 0,7 1,1 1,0 1,1 1,1 0,2 1,1 0,1 1,1 1,1 0,2 -1,-4 0,-1 -1,-1 0,-3 1,-1 -2,0 -1,-1 0,-2 -1,-1 0,-2 -1,-1 0,-1 -1,-1 0,-2 -1,-1 0,-3 1,-1 -2,0 -1,-1 0,-3 1,-1 -2,0 -1,-1 0,-2 -1,-1 0,-2 -1,-1 0,-5 -1,-1 0,-12 -1,-1 0,-12 -1,-1 0,-16 1,-1 13,0 1,-1 27,0 1,-1 10,0 1,1 1,1 0,2 1,1 0,1 1,1 0,1 1,1 0,1 1,1 1,1 0,2 -1,1 2,0 1,1 1,1 0,3 -1,1 -3,0 3,1 1,0 1,1 0,1 1,1 0,1 1,1 1,1 1,1 1,1 0,1 1,1 0,2 1,1 0,2 1,1 0,1 1,1 0,1 1,1 0,2 1,-2 5,0 1,1 1,0 1,1 1,1 0,2 1,-1 2,0 1,1 1,1 1,0 1,1 0,2 1,0 1,1 1,1 0,1 2,0 1,1 0,10 1,0 0,-2 1,-1 0,-4 -1,-1 0,-5 1,-1 1,0 1,-1 3,0 1,-1 3,0 1,-1 3,0 1,-1 5,0 1,-1 8,0 1,1 4,0 1,1 1,1 0,3 -1,1 -1,0 -1,1 -12,0 -1,1 0,3 1,-2 0,-1 13,-1 12,0 1,-1 0,-1 1,-1 4,0 1,1 2,0 1,1 1,0 1,1 0,3 1,1 0,2 1,1 0,1 1,1 1,1 0,2 -1,1 1,1 0,0 2,2 1,1 2,0 1,1 1,1 1,1 1,1 0,1 1,0 1,1 1,1 1,1 1,1 1,1 0,2 -1,1 -1,1 -1,1 -1,0 -1,1 -1,0 -1,1 -1,0 0,1 14,0 0,-8 -4,0 -1,-1 -1,-1 -1,-1 -1,-1 0,-1 -1,0 -1,-1 -1,-1 -1,-1 -1,-1 -1,-1 -1,-1 0,-1 -1,-1 0,-3 -1,-1 -1,-1 -1,-1 -2,0 -1,-1 -1,-1 0,-5 1,-1 2,0 1,1 4,0 1,1 4,0 1,1 3,0 1,1 2,0 1,1 2,0 0,-2 -5,0 -1,-1 -1,-1 0,-1 -3,0 -1,-1 -1,0 -1,1 -4,0 -1,-1 -3,0 -1,-1 0,-7 1,-1 0,-3 1,-1 0,-4 1,-1 0,-2 1,-1 0,-1 2,-2 0,-8 1,-1 0,-3 1,-1 2,0 0,-2 -1,-1 0,-9 -1,-1 0,-3 -1,-1 0,-3 1,-1 1,0 1,-1 12,0 0,-1 -15,0 -1,-1 -1,-1 0,-2 1,-1 0,-4 -1,-1 0,-3 1,-1 0,-2 1,-1 0,-3 1,-1 0,-1 1,-1 0,-1 1,-1 0,-2 1,-1 0,-2 1,-1 2,0 -1,-1 0,-3 1,-1 0,-2 1,-1 0,-2 1,-1 2,0 -1,-1 0,-3 1,-1 0,-7 -1,-1 0,-1 -1,-1 -1,-1 0,-1 -1,0 -1,-1 -1,-1 0,-1 -2,0 -2,-2 0,-1 -1,-1 0,-2 1,-1 5,0 1,-1 8,0 0,-1 -9,0 -1,1 -12,0 -1,-1 -1,0 -1,-1 -1,-1 -1,-1 -1,0 -1,-1 -1,-1 -1,-1 0,-1 -1,0 -1,-1 0,-3 -2,0 -1,-1 0,-7 1,-1 0,-1 1,-1 2,0 -1,-1 0,-2 1,-1 0,-1 1,-1 1,-1 0,-1 1,-1 2,0 -1,-1 0,-2 1,-1 0,-1 1,-1 0,-1 1,-1 0,-2 1,-1 0,-5 -1,-1 0,-4 1,-1 -2,0 -1,-1 -1,-1 -1,-1 0,-3 -1,-1 -1,1 -2,0 -1,-1 -1,0 -1,-1 0,-2 1,-1 1,-1 -1,0 -1,-1 0,-2 -6,0 -1,1 -1,0 -1,1 -1,0 -1,1 -3,0 -1,1 -2,0 -1,1 -2,0 -1,1 -2,0 -1,1 -3,0 -1,1 2,0 1,1 0,2 -1,1 -1,0 -1,1 -13,0 -1,-1 -4,0 -1,-1 -3,0 -1,-1 -1,0 -1,-1 0,-1 -1,-1 0,-6 -1,-1 0,-3 -1,0 0,4 1,1 0,7 -1,1 -1,0 -1,1 -2,0 -1,1 -2,0 -1,1 -4,0 -1,1 -6,0 -1,-1 -5,0 -1,-1 -12,0 -1,1 -4,0 -1,-1 0,-4 1,-1 -19,0 -1,-1 -2,0 -1,-1 -1,-1 0,-5 -1,0 0,8 1,1 0,13 1,1 0,8 1,1 0,7 1,1 0,3 1,1 1,1 0,1 1,1 0,1 1,1 1,0 1,-1 -2,0 -1,-2 0,-3 1,-1 7,0 0,-1 -2,0 -6,1 -2,0 -1,-3 0,-5 -1,-3 0,-5 -1,-4 0,-6 1,-1 1,0 1,-1 11,0 1,-1 4,0 1,1 1,1 0,2 2,0 1,-1 1,-1 2,0 1,-1 11,0 1,1 4,0 1,1 3,0 1,1 0,1 1,1 0,-1 1,-1 0,0 1,-1 2,0 1,-1 3,0 1,-1 3,0 1,-1 11,0 1,1 4,0 1,1 5,0 1,1 1,-1 10,0 1,1 1,1 1,0 2,-2 1,0 1,-1 1,-1 3,0 1,-1 1,0 -2,-1 0,-2 1,-1 6,0 1,1 0,2 4,0 1,1 1,0 1,1 1,0 1,1 2,0 1,1 1,0 1,1 1,1 0,1 1,1 0,2 1,1 0,4 -1,1 0,2 -1,1 0,2 -1,1 0,1 -1,1 0,1 -1,1 -1,1 -2,0 1,1 0,2 -1,1 0,1 -1,1 0,1 -1,1 -1,1 0,1 -1,1 0,8 1,1 0,2 -1,1 -22,0 21,1 1,0 1,1 0,12 -1,1 0,3 2,-14 1,-1 2,0 1,1 1,1 0,2 1,1 4,0 1,1 1,1 1,1 1,1 0,2 1,-1 2,0 1,1 1,1 1,1 0,1 2,0 1,1 1,1 0,2 1,1 1,1 2,0 1,1 0,1 1,1 0,5 -1,1 0,2 -1,1 0,2 -1,1 0,2 -1,1 0,1 -1,1 0,2 -1,1 0,2 -1,1 -2,0 1,1 0,2 -1,1 -1,0 -1,1 -9,0 -1,-1 -5,0 -1,-1 -2,0 -1,-1 -1,0 -1,-1 -1,-1 -1,0 -1,-1 0,-2 -1,1 -4,0 -1,-1 -6,0 -1,-1 0,-5 1,-1 1,0 1,-1 -4,0 0,1 -1,1 -11,0 -1,-1 -1,0 -1,-1 0,-6 -1,5 0,2 1,0 1,1 1,0 11,1 1,0 1,1 0,3 -1,1 -1,1 -1,0 -1,1 -11,0 -1,-1 -2,0 -1,-1 -1,0 -1,-1 0,-2 -1,-1 -4,0 -1,-1 -1,-1 0,-2 -1,-1 -1,-1 -1,-1 -1,-1 -1,-1 -2,0 -1,-1 0,-8 -1,0 0,9 1,1 0,1 1,1 1,1 0,2 1,0 1,1 0,1 1,1 4,0 1,1 1,1 0,1 2,0 1,1 1,1 1,0 1,1 1,0 1,1 0,3 1,-1 0,-1 1,-1 12,0 1,1 0,12 -1,1 0,11 -1,1 0,5 -1,1 -1,0 -1,1 -18,0 -1,1 -19,0 -1,1 -25,0 -1,-1 0,-3 -1,-1 0,-6 -1,-1 0,-15 1,-1 0,-2 1,-1 1,-1 5,0 1,-1 13,0 1,1 0,1 1,1 0,2 1,1 7,0 1,-1 7,0 0,-1 1,-1 1,-1 6,0 -7,-1 -8,0 -1,-1 -5,0 -1,-1 0,-1 -1,-1 0,-1 -1,2 0,0 -1,1 -1,0 -140,49 126,-48 -4,0 -1,-1 0,-2 1,-1 1,-1 0,-1 1,-1 1,0 0,-2 1,-1 2,-2 2,0 -1,-1 0,-2 1,-1 2,0 -1,-1 0,-9 1,-1 1,0 0,-2 1,-1 7,0 1,1 0,-4 -1,-1 0,-6 1,-1 0,-1 1,-1 11,0 -3,-1 -1,0 -1,-1 0,-6 1,-1 6,0 1,1 1,0 1,1 1,1 1,1 0,3 -1,1 0,3 -1,1 0,2 -1,1 0,2 -1,1 0,2 -1,1 0,3 1,0 0,-2 1,-1 0,-2 1,-1 0,-3 1,-1 0,-2 1,-1 0,-2 1,-1 0,-8 -4,0 -1,-1 -9,0 -1,1 -7,0 -1,1 -8,0 -1,1 -11,0 -1,-1 0,-2 -1,-1 0,-6 -1,-1 0,-7 -1,-1 0,-2 1,-1 -1,-1 -1,0 -1,-1 0,-2 -2,0 -1,-1 -1,-1 0,-1 -1,-1 -1,-1 0,-1 -1,-1 0,-6 -1,0 0,6 1,1 0,1 1,1 0,1 1,1 1,1 0,1 1,1 0,1 1,1 1,1 0,3 -1,1 2,0 1,1 1,1 0,5 1,1 0,9 -1,1 -1,0 -1,1 -9,0 -1,-1 0,-2 -1,0 0,1 -1,1 -1,0 -1,1 -8,0 -1,1 -18,0 -1,1 -10,0 -1,-1 -1,-1 0,-6 -1,-1 0,-16 -1,-1 0,-24 1,-1 0,-4 1,-1 0,-3 1,-1 0,-2 1,-1 0,-1 1,-1 5,0 1,-1 7,0 0,-3 -5,0 -1,-1 -5,0 -1,-1 -2,0 0,4 -1,1 0,2 -1,1 0,3 -1,1 0,3 -1,1 0,3 -1,1 0,5 -1,1 0,1 -1,1 -6,0 -1,-1 -4,0 -1,-1 -7,0 -1,-1 -1,0 -1,1 -7,0 -1,1 -7,0 -1,1 -7,0 -1,1 -8,0 -1,1 -6,0 -1,-1 -1,0 0,2 7,0 1,1 0,1 1,1 0,5 1,1 0,1 1,1 1,1 -3,-10 1,-1 1,0 1,-1 1,0 1,-1 5,0 1,-1 24,0 1,1 7,0 1,1 1,1 0,-2 1,-1 6,0 1,1 1,0 1,1 0,1 1,1 0,14 1,1 0,16 -1,1 -7,0 -1,-1 0,-1 -1,-1 0,-15 -1,-1 0,-12 -1,-1 0,2 -1,1 -5,0 -1,1 7,0 2,26 0,2 1,1 0,3 1,1 0,-3 1,-1 6,0 1,1 0,1 1,1 0,11 1,1 0,18 -1,1 -1,0 -1,1 3,0 1,1 0,3 -1,1 -1,1 -7,0 -1,1 3,0 6,-1 1,1 0,1 1,1 0,14 -1,1 -1,0 -1,1 2,0 1,1 0,1 1,1 0,12 1,1 0,14 1,1 0,2 -1,1 -1,1 -4,0 -1,1 -15,0 -1,1 -15,0 -1,1 -14,0 -1,1 -12,0 1,1 0,0 12,-1 15,-1 16,-1 16,-1 68,-44 -126,48 64,-14 0,-11 -1,-1 0,-16 -1,-1 0,-14 -1,-1 0,-13 -1,-1 0,-14 -1,-1 0,-4 1,-1 0,-1 1,-1 12,0 1,-1 17,0 1,-1 3,0 1,1 7,0 1,1 0,1 1,1 0,1 1,1 0,3 1,1 0,29 -1,1 0,9 2,0 1,1 1,-1 4,0 1,1 1,0 1,1 0,18 1,1 0,10 -1,1 -1,0 -1,1 -19,0 -1,1 -17,0 -1,1 -10,0 -1,-1 -1,0 -1,-1 -64,14 117,-47 -2,0 3,-1 0,-1 1,0 1,-1 0,-1 2,-2 -1,0 2,-2 0,-1 2,-2 1,-1 1,-1 -1,0 1,-1 1,-1 0,-1 1,-1 0,-1 1,-2 0,-6 -1,-1 0,-1 -1,-1 -11,29 -117,47 127,-76 -1,-1 0,0 3,-2 0,0 -1,-1 0,-1 -1,-1 0,-1 -1,0 -1,-1 -1,-1 -1,-1 -1,-1 0,-1 -1,-1 -1,-1 0,-1 -1,-1 0,-3 1,-1 3,0 1,-1 5,0 1,1 1,1 0,4 1,1 3,0 1,-1 2,0 1,1 1,0 1,1 0,0 -14,13 -127,76 118,-93 0,1 1,1 0,1 1,1 0,1 1,1 1,1 0,3 1,1 0,2 -1,1 -13,0 -1,-1 0,-3 10,-10 -118,93 117,-94 0,-1 -1,-1 0,0 1,2 -117,94 125,-77 -15,0 -1,1 -1,1 0,13 17,-15 -125,77 107,-52 0,-37 -1,-2 0,-4 1,-1 7,0 -7,44 -107,52 103,-101 0,0 -103,101 106,-138 1,0 0,-1 1,-1 1,-1 0,-1 -1,0 -1,1 0,1 -1,1 0,1 -106,138 141,-81 0,1 -1,1 -7,1 -1,0 9,-3 -141,81 127,-14 22,0 1,-1 17,0 1,-1 26,0 1,-1 15,0 1,-1 17,0 1,1 0,1 1,1 0,1 1,1 0,3 1,1 0,6 -1,1 0,3 -1,1 0,4 -1,1 0,3 -1,1 0,3 -1,1 0,3 -1,1 0,3 -1,1 0,3 -1,1 0,3 -1,1 0,4 -1,1 0,1 -1,1 -4,0 -1,-1 -4,0 -1,-1 -3,0 -1,-1 -2,0 -1,-1 -4,0 -1,-1 -5,0 -1,-1 -10,0 -1,-1 -1,-1 0,-4 -18,0 -1,-1 -8,0 2,1 6,0 15,1 2,0 1,1 0,4 -1,1 -1,0 -1,1 -3,0 -1,1 -4,0 -1,1 -3,0 -1,1 -3,0 -1,-1 -1,0 -1,-1 -1,0 -1,-1 -1,0 -1,-1 -1,0 -1,-1 -1,-1 -1,0 -1,-1 -1,0 -1,-1 0,-4 -1,1 -2,0 -1,-1 0,-3 -1,-1 -1,-1 0,-1 -2,0 -1,-1 -1,-1 0,-1 -1,-1 0,-1 -1,-1 -1,-1 0,-1 -1,-1 0,-3 1,-1 18,0 1,1 0,2 1,1 0,-3 1,-1 1,0 1,-1 20,0 1,-1 2,0 1,1 1,0 1,1 0,14 1,-13 0,-1 -1,-1 0,0 -1,-1 -9,0 -17,1 -5,0 -24,-19 -127,14 224,-19 -14,0 -1,1 -19,0 -1,-1 0,-4 1,-1 0,-11 1,-1 0,-8 1,-1 0,-4 1,-1 1,-1 2,0 1,-1 3,0 1,1 2,0 1,1 1,0 1,1 0,2 1,-1 2,0 1,1 1,0 1,1 1,0 1,1 5,0 1,1 9,0 1,1 0,5 -1,1 0,3 -1,1 0,2 -1,1 0,6 1,1 0,2 -1,1 -2,0 -1,1 -224,19 231,16 0,0 -231,-16 162,53 -1,0 0,3 -1,1 0,3 -1,1 0,3 -1,1 0,3 -1,1 0,3 -1,1 0,3 1,0 0,-3 1,-1 0,-3 1,-1 0,-3 1,-1 0,-3 1,-1 0,-2 1,-1 0,-4 -162,-53 126,-1 -1,-1 0,-1 -1,-1 0,0 -1,-1 0,-1 -1,-1 0,-1 -1,-1 0,-3 1,-1 1,0 3,12 -126,1 131,5 0,-2 -1,-1 -1,-1 0,-1 -1,0 3,5 -131,-5Z"/>
<path onmouseover="hoverPath(evt)" onmouseout="recoverPath(evt)" fill="rgb(243,241,232)" d="M  190,242l -1,0 -1,1 0,1 -1,1 0,2 -1,1 0,2 -1,1 0,4 54,0 0,-2 1,-1 1,0 1,-1 1,0 1,-1 1,0 1,-1 1,-1 -1,-1 0,0 -1,-1 -1,-1 -1,-1 -1,0 -1,-1 0,-1 -1,-1 -1,-1 -1,-1 -2,0 -1,-1 -1,-1 -1,-1 -1,-1 -1,-1 0,-2 1,-1 -1,-1 0,0 -1,-1 0,-1 -1,-1 0,-2 -1,-1 0,-3 -1,0 -1,-1 -2,0 -1,-1 -2,0 0,1 -1,1 -1,1 -24,0 0,1 -1,1 1,1 0,13 -1,1 -1,1 -1,1 -1,0 -1,1Z"/>
<path onmouseover="hoverPath(evt)" onmouseout="recoverPath(evt)" fill="rgb(242,241,232)" d="M  210,124l 0,0 1,1 2,0 1,-1 2,0 1,1 0,2 1,0 1,1 1,1 1,0 1,1 2,0 1,1 5,0 1,1 7,0 1,-1 1,0 -1,-1 0,-2 1,-1 2,0 0,-2 1,-1 0,-2 1,-1 0,-1 1,-1 0,-2 1,-1 0,-2 1,-1 0,-2 1,-1 0,-3 -1,-1 0,-1 -2,0 -1,-1 -1,-1 -1,-1 0,-2 -1,-1 -2,0 -1,-1 0,-1 -1,-1 -1,-1 -1,1 -2,0 -1,-1 0,-2 -1,-1 -1,-1 -1,-1 -4,0 -1,-1 -1,-1 0,-2 -1,-1 -1,1 0,9 -1,1 0,3 -1,1 -2,0 0,2 -1,1 0,3 -1,1 0,9 -1,1 -2,2 -4,0 -1,1 -1,0 -1,1 -1,0 0,3Z"/>
<path onmouseover="hoverPath(evt)" onmouseout="recoverPath(evt)" fill="rgb(242,240,230)" d="M  227,27l 0,0 1,1 0,3 1,1 1,1 2,0 1,1 0,2 -1,1 0,2 1,1 0,7 -1,1 0,2 -1,1 0,1 -1,1 0,1 -1,1 1,1 0,2 -1,1 -2,0 0,1 -1,1 -1,1 0,1 -1,1 1,1 0,2 -1,1 -2,0 0,1 -1,1 0,5 2,0 1,1 0,3 1,0 1,1 0,1 1,1 1,1 1,0 1,1 1,1 1,1 1,0 1,1 10,0 1,-1 10,0 0,-78 -2,0 -1,-1 0,-3 -3,0 -1,1 -6,0 -1,-1 0,1 -1,1 -3,0 -1,-1 -4,0 0,3 -1,1 -2,0 -1,-1 -1,1 -5,0 -1,1 -7,0 -1,1 -4,0 -1,1 -6,0 -1,1 -5,0 -1,-1 0,-1 -2,0 -1,1 -5,0 -1,1 -2,0 0,1 -1,1 -5,0 -1,-1 0,1 -1,1 -4,0 -1,1 -5,0 0,2 1,1 0,6 1,1 0,1 1,0 1,1 3,0 1,1 4,0 1,1 11,0 1,-1 -10,0 -1,-1 0,-2 1,-1 9,0 1,-1 3,0 1,-1 2,0 1,-1 2,0 1,-1 2,0 1,-1 3,0 1,-1 1,0 1,-1 1,0 1,-1 8,0 1,1 0,2 1,0 1,1 0,2 -1,1 -1,1 1,0 1,1 0,0 1,-1 2,0 1,1Z"/>
<path onmouseover="hoverPath(evt)" onmouseout="recoverPath(evt)" fill="rgb(244,243,235)" d="M  76,172l 0,12 1,1 0,12 1,1 0,12 1,1 0,5 1,1 0,2 1,1 0,2 2,0 1,1 0,2 -1,1 0,1 2,0 1,1 0,2 -1,1 0,1 1,1 0,2 1,1 0,1 1,1 0,2 1,1 0,2 2,0 1,1 0,2 -1,1 0,1 1,1 0,2 1,1 0,3 33,0 0,-4 -1,-1 0,-4 -1,-1 0,-4 -1,-1 0,-4 -1,-1 0,-4 -1,-1 0,-4 -1,-1 0,-4 -1,-1 0,-3 -1,-1 0,-4 -1,-1 0,-4 -1,-1 0,-3 -1,-1 0,-4 -1,-1 0,-4 -1,-1 0,-4 -1,-1 0,-3 -1,-1 0,-4 -1,-1 0,-4 -1,-1 0,-4 -19,0 -1,1 -13,0Z"/>
<path onmouseover="hoverPath(evt)" onmouseout="recoverPath(evt)" fill="rgb(242,241,231)" d="M  150,211l 0,0 -1,1 0,1 -1,1 -2,0 0,1 -1,1 0,4 1,1 0,3 1,1 0,2 1,1 0,1 1,1 0,1 2,0 1,1 0,2 -1,1 0,2 1,1 0,2 1,1 0,3 1,1 0,4 1,1 0,2 1,1 0,2 7,0 0,-4 1,-1 0,-3 1,-1 0,-3 1,-1 0,-3 1,-1 0,-3 1,-1 0,-3 1,-1 0,-8 -2,0 -1,-1 0,-1 -1,-1 -1,0 -1,-1 0,-2 -1,0 -1,-1 -1,-1 -1,1 -2,0 -1,-1 0,-2 -1,-1 -1,0 -1,-1 -2,0 -1,1Z"/>
<path onmouseover="hoverPath(evt)" onmouseout="recoverPath(evt)" fill="rgb(240,240,235)" d="M  162,4l 0,-4 -82,0 0,2 -1,1 9,0 1,1 0,1 4,0 1,-1 6,0 1,1 13,0 1,1 15,0 1,1 18,0 1,-1 4,0 1,1 2,0 1,-1 4,0Z"/>
<path onmouseover="hoverPath(evt)" onmouseout="recoverPath(evt)" fill="rgb(242,241,232)" d="M  191,84l 0,0 -1,1 1,0 1,1 0,11 -1,1 0,5 -1,1 -2,0 0,3 -1,1 0,2 1,1 0,6 1,0 1,1 9,0 0,-1 1,-1 7,0 1,1 3,0 1,-1 0,0 1,-1 0,-9 1,-1 0,-3 1,-1 0,-2 1,-1 0,-4 1,-1 0,-10 -1,0 -1,-1 -20,0 -1,-1 -2,0 -1,1Z"/>
<path onmouseover="hoverPath(evt)" onmouseout="recoverPath(evt)" fill="rgb(241,240,229)" d="M  203,132l 0,3 -1,1 0,8 -1,1 0,11 -1,1 0,2 17,0 1,-1 14,0 1,-1 2,0 -1,-1 0,-8 1,-1 0,-2 1,-1 0,-3 1,-1 0,-3 -9,0 -1,-1 -5,0 -1,-1 -1,0 -1,-1 -1,0 -1,-1 -1,1 -2,0 -1,-1 0,-2 -1,0 -1,-1 -2,0 -1,-1 -1,0 -1,1 -2,0 -1,1Z"/>
<path onmouseover="hoverPath(evt)" onmouseout="recoverPath(evt)" fill="rgb(239,237,225)" d="M  153,125l 0,0 1,1 0,1 1,1 0,1 5,0 1,1 8,0 1,1 6,0 1,1 0,2 6,0 -1,-1 0,-3 -1,0 -1,-1 -1,0 -1,-1 -1,-1 -2,0 -1,-1 0,-1 -1,-1 -4,0 -1,-1 -1,-1 0,-1 -1,0 -1,-1 0,-2 -1,-1 -1,-1 0,-1 -1,-1 0,-11 1,-1 0,-3 1,-1 0,-2 1,-1 0,-2 1,-1 0,-2 1,-1 0,-3 1,-1 0,-1 -1,-1 0,0 -1,-1 -1,0 -1,-1 -4,0 0,4 1,0 1,1 2,0 1,1 0,2 -1,1 -11,0 0,1 -1,1 0,4 1,1 0,7 -1,1 -2,0 -1,-1 0,-1 -5,0 0,2 -1,1 -1,0 0,7 1,1 0,2 -1,1 -2,0 1,1 0,2 -1,1 -2,0 -1,1 -1,1 0,2 -1,1 -1,0 0,1 -1,1 -1,1 15,0 1,-1 1,0 1,-1 0,-1 1,-1Z"/>
<path onmouseover="hoverPath(evt)" onmouseout="recoverPath(evt)" fill="rgb(241,240,229)" d="M  190,221l 0,-1 1,-1 1,-1 12,0 1,-1 1,0 0,-1 -1,-1 -4,0 -1,-1 -6,0 -1,1 -5,0 -1,1 -3,0 -1,1 -3,0 -1,1 -3,0 -1,1 -1,0 0,3 1,1 0,6 -1,1 0,2 -1,1 0,4 -1,1 0,2 -1,1 0,3 -1,1 0,3 -1,1 0,3 -1,1 0,2 15,0 0,-5 1,-1 0,-2 1,-1 0,-2 1,-1 0,-1 1,-1 1,-1 1,0 1,-1 1,0 1,-1 1,-1 0,-11 -2,0 -1,-1Z"/>
<path onmouseover="hoverPath(evt)" onmouseout="recoverPath(evt)" fill="rgb(251,251,248)" d="M  7,254l -7,0 0,1 6,0 1,-1 4,1 20,0 0,-2 1,-1 9,0 1,-1 8,0 1,-1 9,0 1,-1 8,0 1,-1 2,0 -1,-1 -3,0 -1,1 -7,0 -1,1 -9,0 -1,1 -8,0 -1,1 -9,0 -1,1 -8,0 -1,1 -8,0 -1,1 -1,1 -4,-1Z"/>
<path onmouseover="hoverPath(evt)" onmouseout="recoverPath(evt)" fill="rgb(243,241,233)" d="M  26,57l 0,0 -1,-1 0,-2 1,-1 2,0 1,1 0,2 -1,1 -2,0 -11,5 0,1 -1,1 0,1 -1,1 -1,1 1,1 0,3 -1,1 0,3 -1,1 0,5 1,1 0,9 -1,1 0,1 2,0 1,1 0,2 1,1 1,1 1,1 1,0 1,1 0,2 2,0 1,1 4,0 1,1 3,0 1,-1 7,0 1,1 2,0 1,-1 5,0 1,-1 4,0 1,-1 1,0 1,-1 1,-1 1,-1 0,-1 1,-1 0,-2 -1,-1 0,-6 -1,-1 0,-2 -1,-1 0,-3 -1,-1 0,-18 -1,-1 0,-8 -12,0 -1,-1 0,-2 1,-1 5,0 1,-1 5,0 0,-1 -1,-1 -7,0 -1,-1 -22,0 -1,1 -5,0 -1,1 -1,0 -1,1 -1,0 0,4 1,1 0,1 1,1 1,1 0,2 -1,1 1,0 1,1 0,3 11,-5Z"/>
<path onmouseover="hoverPath(evt)" onmouseout="recoverPath(evt)" fill="rgb(236,236,219)" d="M  55,255l 20,0 0,-2 -1,-1 0,0 -1,-1 0,-1 -2,0 -1,1 -8,0 -1,1 -9,0 -1,1 -8,0 -1,1 -9,0 0,1Z"/>
<path onmouseover="hoverPath(evt)" onmouseout="recoverPath(evt)" fill="rgb(234,232,214)" d="M  57,46l 0,12 1,1 0,15 1,1 0,1 5,0 0,-14 -1,-1 0,-14 -1,-1 0,-1 -1,0 -1,-1 -4,0 0,1 1,1Z"/>
<path onmouseover="hoverPath(evt)" onmouseout="recoverPath(evt)" fill="rgb(239,237,225)" d="M  115,78l 0,1 -1,1 7,0 1,-1 1,0 0,-7 -1,-1 0,-5 -1,-1 -3,0 -1,-1 0,-2 1,-1 1,0 0,-1 -1,-1 0,0 -1,-1 0,-1 -1,-1 0,-1 -1,-1 -1,-1 0,-1 -1,-1 0,-1 -1,-1 0,-8 1,-1 0,-1 1,-1 0,-1 1,-1 1,-1 -1,-1 -2,0 -1,1 -11,0 -1,1 -1,0 0,7 1,1 0,7 1,1 0,7 5,0 1,-1 4,0 1,1 0,3 -1,1 -7,0 0,2 4,0 1,1 0,2 -1,1 -2,0 -1,1 -1,0 1,1 0,0 1,1 1,1 1,1 0,1 1,1 0,1 1,0 1,-1 3,0 1,1Z"/>
<path onmouseover="hoverPath(evt)" onmouseout="recoverPath(evt)" fill="rgb(240,239,227)" d="M  116,134l -1,0 0,23 1,1 0,5 7,0 1,-1 1,0 0,-8 -1,-1 0,-18 -1,0 -1,-1 -2,0 -1,1 -2,0 -1,-1Z"/>
<path onmouseover="hoverPath(evt)" onmouseout="recoverPath(evt)" fill="rgb(239,237,224)" d="M  122,29l -1,0 0,2 2,0 1,-1 14,0 1,1 5,0 1,1 4,0 1,-1 4,0 1,-1 2,0 1,-1 2,0 1,-1 1,0 0,-5 -1,-1 0,-4 -10,0 -1,1 -27,0 -1,-1 -14,0 -1,-1 -2,0 -1,1 -6,0 0,5 1,1 2,0 1,1 22,0 1,1 0,2 -1,1Z"/>
<path onmouseover="hoverPath(evt)" onmouseout="recoverPath(evt)" fill="rgb(242,241,232)" d="M  122,37l 0,0 -1,1 -1,0 0,1 -1,1 -1,1 0,1 -1,1 0,4 1,1 0,1 1,1 1,1 0,1 1,1 2,0 1,1 0,2 1,0 1,1 1,1 0,2 -1,1 1,1 0,4 2,0 1,-1 2,0 1,1 0,1 1,1 2,0 1,-1 1,0 1,-1 2,0 1,-1 1,0 1,-1 2,0 1,-1 0,-6 1,-1 0,-7 -1,-1 0,-3 -1,-1 0,-3 -1,-1 0,-1 -1,-1 0,-1 -3,0 -1,-1 -4,0 -1,-1 -9,0 -1,1 -2,0 -1,1Z"/>
<path onmouseover="hoverPath(evt)" onmouseout="recoverPath(evt)" fill="rgb(241,240,229)" d="M  246,95l 1,1 0,1 1,1 1,0 1,1 0,1 1,1 1,1 0,1 1,1 0,9 -1,1 0,1 1,1 0,2 -1,1 -2,0 0,2 -1,1 0,2 -1,1 0,1 1,1 0,2 -1,1 -2,0 0,2 -1,1 0,2 -1,1 0,1 -1,1 0,1 -1,1 0,3 -1,1 0,2 -1,1 0,1 1,1 0,6 -1,1 1,1 14,0 0,-66 -7,0 -1,1 -5,0 1,1 0,1 1,1Z"/>
<path onmouseover="hoverPath(evt)" onmouseout="recoverPath(evt)" fill="rgb(241,239,228)" d="M  255,213l 0,-51 -11,0 -1,1 -1,0 0,1 1,1 0,3 1,1 0,9 1,1 0,4 -1,1 -2,0 0,3 -1,1 0,5 2,0 1,1 0,2 -1,1 -3,0 -1,1 0,1 -1,1 0,2 -1,1 0,4 -1,1 0,3 -1,1 0,5 3,0 1,1 2,0 1,-1 3,0 1,1 3,0 1,1 0,1 1,1 4,0Z"/>
<path onmouseover="hoverPath(evt)" onmouseout="recoverPath(evt)" fill="rgb(247,236,140)" d="M  0,7l 0,6 12,0 1,-1 54,0 1,1 0,-1 1,-1 4,0 1,1 5,0 1,1 5,0 1,-1 7,0 1,1 0,1 1,1 0,2 1,0 1,-1 6,0 1,-1 4,0 1,1 14,0 1,1 25,0 1,-1 11,0 1,-1 8,0 1,-1 4,0 0,-1 1,-1 2,0 1,1 3,0 0,-1 1,-1 2,0 1,-1 5,0 1,-1 4,0 1,1 0,1 3,0 1,-1 6,0 1,-1 4,0 1,-1 7,0 1,-1 5,0 1,-1 2,0 1,1 0,-3 1,-1 6,0 1,1 1,0 0,-1 1,-1 2,0 1,1 4,0 1,-1 5,0 1,1 0,3 1,0 0,-6 -44,0 0,2 -1,1 -6,0 -1,1 -6,0 -1,-1 -5,0 -1,1 -6,0 -1,1 -6,0 -1,1 -10,0 -1,-1 0,-5 -1,0 0,7 -1,1 -4,0 -1,1 -4,0 -1,-1 -2,0 -1,1 -20,0 -1,-1 -15,0 -1,-1 -13,0 -1,-1 -4,0 -1,1 -6,0 -1,-1 0,-1 -9,0 -1,-1 0,-2 1,-1 0,-1 -7,0 0,3 -1,1 -34,0 -1,1 -35,0Z"/>
<path onmouseover="hoverPath(evt)" onmouseout="recoverPath(evt)" fill="rgb(244,243,236)" d="M  1,15l -1,0 0,7 3,0 1,-1 22,0 1,-1 20,0 1,-1 19,0 0,-1 -1,-1 0,-3 -52,0 -1,1Z"/>
<path onmouseover="hoverPath(evt)" onmouseout="recoverPath(evt)" fill="rgb(242,241,231)" d="M  16,183l 0,1 2,0 1,1 1,1 1,0 1,1 1,1 1,0 1,1 1,1 0,1 2,0 2,2 1,0 1,1 0,1 2,0 1,1 1,1 1,1 1,1 1,0 1,1 1,1 1,1 1,0 1,1 1,1 1,0 1,1 1,1 1,0 1,1 4,0 1,1 0,2 -1,1 0,1 1,0 1,1 1,1 1,1 1,1 1,1 1,1 1,1 0,1 1,0 1,1 1,1 1,1 0,2 1,1 1,1 1,1 1,1 2,0 1,1 0,1 1,0 1,1 1,1 1,1 1,0 0,-1 1,-1 0,-2 -1,-1 0,-1 -1,-1 0,-2 -1,-1 0,-2 -1,-1 0,-2 -1,-1 0,-4 -1,-1 0,-4 -14,0 -1,-1 0,-2 1,-1 9,0 1,-1 3,0 0,-16 -1,-1 0,-9 -1,0 -1,-1 -1,1 -15,0 -1,1 -15,0 -1,1 -14,0 -1,1 -7,0 2,1Z"/>
<path onmouseover="hoverPath(evt)" onmouseout="recoverPath(evt)" fill="rgb(172,198,238)" d="M  26,23l -21,0 -1,1 21,0 1,-1 18,0 1,-1 17,0 1,-1 -14,0 -5,1 -13,0 -1,1Z"/>
<path onmouseover="hoverPath(evt)" onmouseout="recoverPath(evt)" fill="rgb(173,198,235)" d="M  86,15l 0,4 -1,1 -7,0 -1,1 -5,0 0,1 -1,1 0,1 7,-3 7,0 1,1 0,1 1,1 0,17 1,1 0,15 1,1 0,4 1,1 0,1 1,1 1,1 0,1 1,1 1,1 0,1 1,1 1,1 0,1 1,1 0,1 1,1 1,1 1,1 0,2 7,0 1,-1 1,0 -2,-1 0,-1 -1,-1 0,-1 -1,-1 -1,-1 -1,-1 -1,-1 0,-1 -1,-1 -1,-1 0,-1 -1,-1 0,-1 -1,-1 -1,-1 0,-3 -1,-1 0,-7 -1,-1 0,-8 -1,-1 0,-13 -1,-1 0,-12 -1,-1 0,-1 -5,0 -1,1Z"/>
<path onmouseover="hoverPath(evt)" onmouseout="recoverPath(evt)" fill="rgb(172,198,237)" d="M  105,87l 0,0 1,1 0,1 1,1 0,2 1,1 0,12 -1,1 0,3 -1,1 0,42 1,1 0,3 1,1 0,3 1,1 0,2 5,0 0,-4 -1,-1 0,-36 1,-1 0,-27 -1,-1 0,-3 -1,-1 0,-1 -1,-1 0,-1 -5,0 -1,1Z"/>
<path onmouseover="hoverPath(evt)" onmouseout="recoverPath(evt)" fill="rgb(239,237,224)" d="M  117,87l 0,1 1,1 0,5 1,1 0,3 11,0 -1,-1 0,-3 -1,-1 -1,-1 0,-1 -1,-1 0,-1 -1,-1 0,-1 -1,-1 0,-1 -7,0Z"/>
<path onmouseover="hoverPath(evt)" onmouseout="recoverPath(evt)" fill="rgb(236,234,217)" d="M  131,87l 0,1 1,1 1,1 0,1 1,1 1,1 1,1 1,0 1,1 0,1 1,1 0,1 1,1 7,0 1,-1 0,-7 -1,0 -1,-1 -1,1 -5,0 -1,-1 -1,-1 0,-4 -1,-1 -3,0 -1,1 -3,0 0,1 1,1Z"/>
<path onmouseover="hoverPath(evt)" onmouseout="recoverPath(evt)" fill="rgb(243,241,232)" d="M  150,37l 0,0 -1,1 0,2 -1,1 0,2 1,1 0,3 1,1 0,9 -1,1 0,4 3,0 1,-1 -2,0 -1,-1 0,-23 2,0 1,-1 3,0 1,-1 3,0 1,-1 9,0 1,1 -20,2 -1,0 22,-2 3,0 1,1 -4,-1 -22,2 27,-1 4,0 1,1 -5,-1 -27,1 34,0 1,-1 8,0 1,1 -44,0 2,18 2,0 1,-1 9,0 1,-1 9,0 1,-1 5,0 1,-1 2,0 1,1 0,1 1,1 1,1 0,2 -1,1 2,0 1,-1 6,0 1,-1 6,0 0,-3 -1,-1 0,0 -1,-1 -2,-2 -1,0 -1,-1 0,-1 -1,-1 0,-5 1,-1 1,-1 0,-1 -44,17 -2,-18Z"/>
</svg>