<svg width="256" height="256" xmlns="http://www.w3.org/2000/svg"><script> 
var tempColor;
function hoverPath(evt){
obj = evt.target;
tempColor = obj.getAttribute("fill");
obj.setAttribute("fill","red");
//alert(tempColor);
//obj.setAttribute("stroke","red");}
function recoverPath(evt){
obj = evt.target;
obj.setAttribute("fill", tempColor);
//obj.setAttribute("stroke", tempColor);
}</script><path onmouseover="hoverPath(evt)" onmouseout="recoverPath(evt)" fill="rgb(244,243,236)" d="M  0,176l 0,22 2,0 1,1 1,1 1,0 1,1 1,0 1,1 1,1 1,0 1,1 1,1 1,0 1,1 1,0 1,1 1,1 1,0 1,1 1,0 1,1 1,1 1,0 1,1 1,0 1,1 1,1 1,0 1,1 1,0 1,1 1,1 1,0 1,1 1,0 1,1 1,1 1,0 1,1 1,1 1,0 1,1 1,0 1,1 1,1 1,0 1,1 1,0 1,1 1,1 1,0 1,1 1,1 1,0 1,1 1,1 1,0 1,1 1,1 1,0 1,1 1,0 1,1 1,1 1,0 1,1 1,1 1,0 1,1 1,1 1,0 1,1 1,0 1,1 1,1 1,0 1,1 1,1 1,0 1,1 1,0 1,1 1,1 1,0 1,1 1,-1 0,0 2,-2 1,-1 1,-1 1,0 0,-1 1,-1 2,-2 1,-1 1,-1 0,-1 1,-1 1,-1 2,-2 1,-1 1,0 0,-1 1,-1 2,0 1,-1 1,-1 1,-1 1,-1 1,-1 -2,0 -1,-1 -1,-1 0,-1 -1,-1 -1,-1 0,-2 -1,0 -1,-1 -1,-1 0,-1 -1,-1 0,-1 -1,0 -1,-1 -1,-1 0,-1 -1,-1 -1,-1 -1,-1 0,-1 -1,-1 0,-1 -1,0 -1,-1 -1,-1 -1,-1 -1,-1 0,-1 -1,0 -1,-1 -1,-1 -2,-2 0,-4 -1,0 -1,-1 -1,-1 -1,-1 -1,-1 -1,0 -1,-1 0,-1 -1,-1 0,-1 -1,-1 -1,-1 0,-4 1,-1 1,-1 -1,0 -1,-1 0,-2 -1,-1 0,-1 -1,-1 0,-1 -1,-1 0,-1 -1,-1 0,-3 1,-1 0,-1 -1,-1 0,-1 -1,0 0,4 1,4 -1,1 -2,0 -1,-1 0,-1 -1,-1 0,-6 -2,0 -1,-1 0,-2 -7,0 -1,-1 0,-2 -3,0 0,2 -1,1 -3,0 -1,1 -6,0 -1,-1 -3,0 0,2 -1,1 -4,0 -1,-1 -4,0 -1,1 -5,0 0,2 -1,1 -4,0 -1,1 -2,0 0,2 -1,1 -2,0 -1,-1 0,-3 -1,-1 0,-1 -1,-1 0,-2 -1,-1 0,-1 -1,-1 0,-2 -1,-1 0,-3 -1,-1 0,-2 -1,0Z"/>
<path onmouseover="hoverPath(evt)" onmouseout="recoverPath(evt)" fill="rgb(244,243,236)" d="M  0,208l 0,47 77,0 0,-1 -1,-1 -1,0 -1,-1 -1,-1 -1,0 -1,-1 -1,0 -1,-1 -1,-1 -1,0 -1,-1 -1,-1 -1,0 -1,-1 -1,0 -1,-1 -1,0 -1,-1 -1,0 -1,-1 -1,0 -1,-1 0,-1 -1,0 -1,-1 -1,0 -1,-1 -1,-1 -1,0 -2,-2 -1,0 -1,-1 -1,-1 -1,0 -1,-1 -1,-1 -1,0 -1,-1 -1,0 -1,-1 -1,-1 -1,0 -1,-1 -1,0 -1,-1 -1,-1 -1,0 -1,-1 -1,-1 -1,0 -1,-1 -1,0 -1,-1 -1,-1 -1,0 -1,-1 -1,0 -1,-1 -1,0 -1,-1 -1,0 -1,-1 -1,0 -1,-1 -1,-1 -1,0 -1,-1 -1,-1 -1,0 -1,-1 -1,-1 -1,0 -1,-1 -1,-1 -1,0 -1,-1 -1,1Z"/>
<path onmouseover="hoverPath(evt)" onmouseout="recoverPath(evt)" fill="rgb(244,243,235)" d="M  6,143l -2,0 0,1 -1,1 0,1 1,1 0,3 1,1 0,2 1,1 0,1 1,1 0,2 1,1 0,1 1,1 0,3 1,-3 2,0 1,-1 4,0 0,-2 1,-1 5,0 1,-1 6,0 1,1 2,0 0,-2 1,-1 5,0 1,1 4,0 1,-1 3,0 0,-2 1,-1 5,0 1,1 0,2 7,0 1,1 0,2 2,0 1,1 0,6 1,1 0,1 -1,-9 0,-1 -1,-1 0,-4 -1,0 -1,-1 0,-1 -1,-1 0,-3 -1,-1 0,-3 -1,-1 0,-2 -1,-1 0,-2 -1,-1 0,-2 -1,-1 0,-2 -1,-1 -8,0 -1,1 -8,0 -1,1 -1,0 -1,1 -1,0 0,1 -1,1 -2,2 -1,1 -2,2 -1,1 -1,0 -1,1 -1,0 -1,1 -3,0 -1,1 -3,0 -1,1Z"/>
<path onmouseover="hoverPath(evt)" onmouseout="recoverPath(evt)" fill="rgb(244,243,235)" d="M  9,8l 0,1 1,1 0,1 1,1 0,1 1,1 0,1 1,1 1,1 0,1 1,1 1,1 0,1 1,1 1,1 0,1 1,1 1,1 0,2 1,0 1,1 1,1 0,2 1,0 1,1 1,1 0,2 1,0 1,1 1,1 0,1 1,1 1,1 1,1 0,1 1,0 1,1 1,1 1,1 1,1 1,1 0,1 1,-1 1,0 1,-1 2,0 2,-2 3,0 1,-1 1,0 1,-1 4,0 1,-1 2,0 1,-1 4,0 1,-1 3,0 1,-1 2,0 1,-1 3,0 1,-1 2,0 1,-1 1,0 1,-1 2,0 0,-1 1,-1 1,-1 1,0 1,-1 3,0 0,-1 1,-1 2,0 0,-2 2,-2 0,-1 1,-1 2,0 0,-1 1,-1 0,-3 1,-1 0,-1 -1,-1 0,-4 1,-1 0,-2 -1,-1 0,-2 -1,-1 0,-4 -92,0 0,2 3,0 1,1 0,2 -1,1 0,1 1,1Z"/>
<path onmouseover="hoverPath(evt)" onmouseout="recoverPath(evt)" fill="rgb(243,242,234)" d="M  184,88l -3,0 -1,1 -7,0 0,3 -1,1 -8,0 -1,1 1,0 1,1 1,0 1,1 0,1 1,1 0,1 1,1 0,2 1,-1 0,-1 -1,-1 0,0 -1,-2 -1,-2 0,-1 6,-1 1,0 1,-1 11,0 1,1 4,0 1,1 2,0 1,1 2,0 1,1 0,4 -1,1 3,0 1,1 0,1 1,1 2,0 1,1 0,2 -1,1 1,1 0,1 1,1 0,1 1,1 1,1 5,0 1,-1 1,0 1,-1 1,0 1,-1 2,0 0,-2 1,-1 2,0 1,1 2,0 1,-1 1,0 1,-1 0,-2 1,-1 0,-1 -1,-1 0,-1 -1,-1 0,-1 -1,-1 0,-1 -1,-1 0,-1 -1,-1 0,-1 -1,-1 -1,-1 0,-1 -1,-1 0,-1 -1,-1 0,-1 -1,-1 0,-1 -1,-1 -5,0 -1,1 -6,0 -1,1 -5,0 -1,1 -6,0 -1,1 -6,0 -1,1Z"/>
<path onmouseover="hoverPath(evt)" onmouseout="recoverPath(evt)" fill="rgb(172,198,237)" d="M  0,201l 0,4 2,0 1,1 1,0 1,1 1,1 1,0 1,1 1,1 1,0 1,1 1,1 1,0 1,1 1,1 1,0 1,1 1,0 1,1 1,0 1,1 1,0 1,1 1,0 1,1 1,1 1,0 1,1 1,0 1,1 1,1 1,0 1,1 1,1 1,0 1,1 1,0 1,1 1,1 1,0 1,1 1,0 1,1 1,1 1,0 1,1 1,1 1,0 1,1 1,1 1,0 1,1 1,1 1,0 1,1 1,0 1,1 0,1 1,0 1,1 1,0 1,1 1,0 1,1 1,0 1,1 1,0 1,1 1,1 1,0 1,1 1,1 1,0 1,1 1,0 1,1 1,1 1,0 1,1 1,1 0,2 5,0 0,-3 -1,-1 -1,0 -1,-1 -1,-1 -1,0 -1,-1 -1,0 -1,-1 -1,-1 -1,0 -1,-1 -1,-1 -1,0 -1,-1 -1,0 -1,-1 -1,-1 -1,0 -1,-1 -1,-1 -1,0 -1,-1 -1,-1 -1,0 -1,-1 -1,0 -1,-1 -1,-1 -1,0 -1,-1 -1,-1 -1,0 -1,-1 -1,-1 -1,0 -1,-1 -1,-1 -1,0 -1,-1 -1,0 -1,-1 -1,-1 -1,0 -1,-1 -1,0 -1,-1 -1,-1 -1,0 -1,-1 -1,-1 -1,0 -1,-1 -1,0 -1,-1 -1,-1 -1,0 -1,-1 -1,0 -1,-1 -1,-1 -1,0 -1,-1 -1,0 -1,-1 -1,-1 -1,0 -1,-1 -1,0 -1,-1 -1,-1 -1,0 -1,-1 -1,0 -1,-1 -1,-1 -1,0 -2,-2 -1,0 -1,-1 -1,0 -1,-1 -1,-1 -1,1Z"/>
<path onmouseover="hoverPath(evt)" onmouseout="recoverPath(evt)" fill="rgb(243,242,234)" d="M  156,0l -57,0 0,3 1,1 0,2 1,1 0,4 -1,1 0,2 1,1 0,2 3,0 0,-2 1,-1 1,-1 1,-1 1,0 1,-1 3,0 1,1 0,1 1,1 0,1 2,0 0,-2 -1,-1 0,-2 -1,-1 0,-4 1,-1 1,-1 1,0 1,-1 3,0 1,1 2,0 1,1 2,0 1,1 0,1 1,1 0,1 2,0 1,1 0,1 1,1 1,1 0,4 1,-1 3,-3 2,0 1,1 1,0 1,-1 1,0 0,-2 1,-1 3,0 1,-1 3,0 0,-5 1,-1 2,0 1,1 0,1 1,1 0,1 1,1 0,3 1,1 0,1 1,1 0,2 -1,1 0,2 1,1 0,1 1,1 0,1 1,1 0,2 1,1 0,1 1,1 0,2 1,1 0,1 1,1 0,1 2,0 1,1 0,2 -1,1 0,1 1,1 0,1 2,0 1,1 0,5 1,-1 1,0 2,-2 1,0 3,-3 1,-1 0,-1 1,-1 1,-1 0,-1 1,-1 0,-1 1,-1 0,-1 1,-1 0,-1 1,-1 1,-1 0,-1 1,-1 0,-3 -1,-1 0,-2 1,-1 0,-1 -1,-1 0,-2 -1,-1 0,-2 -1,-1 0,-1 -1,-1 0,-2 -1,-1 0,-2 -1,-1 0,-3Z"/>
<path onmouseover="hoverPath(evt)" onmouseout="recoverPath(evt)" fill="rgb(244,243,235)" d="M  190,1l 0,0 1,1 0,2 -1,1 0,1 2,0 1,1 0,2 -1,1 0,1 1,1 0,2 1,1 0,2 1,1 1,-1 0,0 1,-1 1,0 1,-1 1,0 1,-1 1,0 1,-1 1,0 1,-1 1,0 1,-1 1,0 1,-1 1,-1 1,0 1,-1 1,0 1,-1 1,-1 1,-1 1,0 1,-1 1,0 1,-1 1,-1 1,0 0,-2 -31,0 -1,1Z"/>
<path onmouseover="hoverPath(evt)" onmouseout="recoverPath(evt)" fill="rgb(239,238,230)" d="M  57,92l 0,2 1,1 3,0 1,-1 5,0 1,-1 5,0 1,-1 5,0 1,-1 6,0 1,-1 3,0 1,-1 9,0 1,-1 6,0 1,1 0,-1 1,-1 5,0 1,-1 4,0 1,-1 0,-3 -2,0 -1,1 -2,0 -1,1 -2,0 -1,1 -2,0 -1,-1 -1,0 -1,-1 0,-1 -2,0 -1,-1 0,-2 1,-1 0,-2 -1,-1 0,0 -1,-1 0,-3 -1,-1 0,-1 -1,-1 0,-1 -1,-1 0,-1 -2,0 -1,-1 0,-3 1,-1 -1,-1 0,-2 -1,-1 0,-3 1,-1 0,-3 -1,-1 0,-2 -1,-1 0,-1 -1,-1 0,-4 -1,-1 0,-1 -1,-1 -1,0 -1,-1 0,-2 -2,0 -1,1 -1,0 -1,1 0,1 -1,1 -2,0 -1,1 -1,0 -1,1 -2,0 -1,1 -3,0 -1,1 -2,0 -1,1 -3,0 -1,1 -4,0 -1,1 -2,0 -1,1 -4,0 -1,1 -1,0 -1,1 -3,0 -1,1 0,2 -1,1 -1,0 -1,1 0,3 1,1 0,1 1,1 0,1 1,1 0,1 1,1 0,2 1,1 0,1 1,1 0,2 1,1 0,2 1,1 1,1 0,4 1,1 0,3 1,1 1,1 0,1 1,1 0,2 1,1 0,2 1,1 20,-9 -2,0 -1,-1 0,-2 1,-1 2,0 1,1 0,2 -1,1 -20,9Z"/>
<path onmouseover="hoverPath(evt)" onmouseout="recoverPath(evt)" fill="rgb(242,241,231)" d="M  88,178l 0,0 1,1 0,1 1,1 0,1 1,1 1,1 0,1 1,1 0,1 1,1 1,1 0,1 1,1 1,1 1,1 1,1 1,1 0,2 1,0 1,1 0,2 1,0 1,1 1,1 1,1 0,1 1,1 1,0 1,1 0,4 1,0 1,1 0,2 2,0 1,1 1,1 0,1 1,1 1,-1 0,0 1,-1 1,-1 1,-1 0,-1 1,-1 1,-1 3,0 0,-3 1,-1 1,0 1,-1 1,-1 1,0 1,-1 1,-1 1,-1 1,-1 1,-1 1,-1 3,-3 1,-1 0,-1 -1,-1 0,0 -1,-1 0,-2 -1,0 -1,-1 -1,-1 0,-4 -1,-1 -4,0 -1,-1 -1,-1 0,-3 -4,0 -1,-1 0,-2 1,-1 1,0 1,-1 -1,-1 0,-1 -1,-1 -1,-1 0,-1 -1,-1 -4,0 -1,1 -2,0 -1,1 -1,0 -1,1 -2,0 0,2 1,1 0,1 1,1 0,2 -1,1 -2,0 -1,-1 -1,-1 0,-1 -1,-1 0,-1 -1,-1 -1,0 -1,1 -2,0 -1,1 -3,0 -1,1 -2,0 0,2 -1,1 -2,0 -1,-1 -1,0 -1,1 0,1 -2,-1 0,0 2,1Z"/>
<path onmouseover="hoverPath(evt)" onmouseout="recoverPath(evt)" fill="rgb(244,243,235)" d="M  114,234l 0,-2 1,-1 -1,0 -1,1 0,0 -2,2 0,3 -1,1 -1,1 -1,1 -1,1 -1,1 -1,0 0,1 -1,1 0,1 -1,1 -1,1 -1,1 -1,1 -1,1 -1,1 -1,0 0,1 -1,1 -1,1 0,1 27,0 0,-1 -1,-1 0,-2 -1,-1 0,-2 -1,-1 0,-1 -1,-1 0,-2 -1,-1 0,-1 -1,-1 0,-2 -1,-1 0,-2 -1,-1Z"/>
<path onmouseover="hoverPath(evt)" onmouseout="recoverPath(evt)" fill="rgb(243,242,233)" d="M  138,15l -1,1 -1,1 -1,1 -3,0 0,2 -2,2 3,0 1,1 0,1 1,1 0,1 1,1 0,1 1,1 0,1 2,0 1,1 0,1 1,1 0,1 1,1 0,1 1,1 0,2 -1,1 0,1 1,1 0,1 2,0 1,1 0,1 1,1 0,1 1,1 0,2 -1,1 0,1 -1,1 -1,1 -1,1 -2,0 -1,1 -1,1 5,-2 1,-1 3,0 1,-1 1,0 1,-1 4,0 1,1 2,0 1,-1 1,0 1,-1 2,0 1,-1 2,0 1,-1 -3,0 -1,-1 0,-2 1,-1 2,0 1,-1 0,-1 -1,-1 0,-1 -1,-1 0,-2 -1,-1 0,-1 -1,-1 0,-1 -1,-1 0,-1 -1,-1 0,-2 -1,-1 0,-1 -1,-1 0,-2 -1,-1 0,-1 -1,-1 0,-1 -1,-1 0,-3 -1,-1 0,-2 1,-1 -1,-1 0,-3 -1,-1 0,-1 -1,-1 0,4 -1,1 -3,0 -1,1 -3,0 0,2 -1,1 -1,0 -1,1 -3,0 -1,-1 -1,1Z"/>
<path onmouseover="hoverPath(evt)" onmouseout="recoverPath(evt)" fill="rgb(178,201,235)" d="M  146,57l -3,0 -1,1 -1,1 -1,0 0,1 -1,1 0,2 1,1 0,2 -1,1 -2,0 -1,-1 -1,0 -1,-1 0,1 1,1 0,9 -1,1 0,6 -1,1 0,1 2,0 1,-1 1,0 0,-3 1,-1 0,-2 1,-1 0,-3 1,-1 0,-2 1,-1 0,-1 1,-1 0,-1 1,-1 1,-1 0,-1 1,-1 1,-1 1,-1 1,-1 1,0 1,-1 1,0 1,-1 6,0 1,-1 3,0 1,-1 4,0 1,-1 1,0 1,-1 1,0 1,-1 1,0 1,-1 1,0 1,-1 1,0 1,-1 1,-1 1,-1 1,0 1,-1 0,-1 1,-1 1,-1 1,-1 1,-1 0,-1 1,-1 0,-1 1,-1 0,-1 1,-1 0,-1 1,-1 1,-1 0,-1 1,-1 0,-3 -1,-1 0,-4 -1,5 0,1 -1,1 -1,1 0,1 -1,1 0,1 -1,1 0,1 -1,1 0,1 -1,1 -1,1 0,1 -1,1 -1,1 -1,1 -1,1 -1,1 -1,0 -1,1 -1,1 -1,0 -1,1 -2,0 -1,-1 0,-5 -1,3 0,0 -1,1 1,0 1,2 0,1 -1,1 -1,1 -2,0 -1,1 -2,0 -1,1 -1,0 -1,1 -4,0 -1,-1 -2,0 -1,1 -1,0 -1,1 -3,0 -1,1Z"/>
<path onmouseover="hoverPath(evt)" onmouseout="recoverPath(evt)" fill="rgb(242,241,231)" d="M  227,82l -2,0 0,1 1,1 0,1 1,1 0,1 1,1 1,1 0,1 1,1 0,1 1,1 0,1 1,1 1,1 0,1 1,1 0,1 1,1 0,1 1,1 0,1 1,1 1,1 0,1 1,1 0,1 1,1 0,1 1,1 1,1 0,1 1,1 0,1 1,1 1,1 0,1 1,1 1,1 0,1 1,1 0,1 3,0 0,-2 1,-1 3,0 0,-41 -4,0 -1,1 -2,0 0,2 -1,1 -2,0 -1,-1 -1,-1 -11,0 -1,1Z"/>
<path onmouseover="hoverPath(evt)" onmouseout="recoverPath(evt)" fill="rgb(254,254,254)" d="M  232,105l 0,1 2,0 1,1 0,1 1,1 1,1 0,1 1,1 0,1 1,1 1,1 0,1 1,1 0,1 1,1 1,1 0,1 1,1 1,1 0,1 1,0 0,-1 -1,-1 0,-1 -1,-1 -1,-1 0,-1 -1,-1 -1,-1 0,-1 -1,-1 0,-1 -1,-1 -1,-1 0,-1 -1,-1 0,-1 -1,-1 0,-1 -1,-1 -1,-1 0,-1 -1,-1 0,-1 -1,-1 0,-1 -1,-1 0,-1 -1,-1 -1,-1 0,-1 -1,-1 0,-1 -1,-1 0,-1 -1,-1 -1,-1 0,-1 -1,-1 0,-1 -1,-1 0,-2 -1,-1 -2,0 1,1 0,0 1,1 0,1 1,1 0,1 1,1 0,1 1,1 0,1 1,1 1,1 0,1 1,1 0,1 1,1 0,1 1,1 0,1 1,1 0,1 1,1Z"/>
<path onmouseover="hoverPath(evt)" onmouseout="recoverPath(evt)" fill="rgb(243,242,234)" d="M  0,51l 0,53 2,0 1,1 2,0 0,-1 1,-1 9,0 1,-1 5,0 -1,-1 0,-8 1,-1 2,0 0,-1 -1,-1 0,-2 -1,-1 0,-1 -1,-1 0,-4 -1,-1 0,-2 -2,0 -1,-1 0,-5 1,-1 0,-1 -1,-1 0,-3 -1,-1 -2,0 -1,-1 0,-2 1,-1 -1,-1 -1,-1 0,-1 -2,0 -1,-1 -1,-1 0,-2 1,-1 -1,-1 0,0 -1,-1 -1,-1 0,-1 -1,-1 -1,-1 -1,-1 0,-1 -1,-1 0,-1 -1,0Z"/>
<path onmouseover="hoverPath(evt)" onmouseout="recoverPath(evt)" fill="rgb(173,199,237)" d="M  0,139l 0,4 2,0 0,-1 1,-1 12,0 1,-1 3,0 1,-1 3,0 1,-1 1,0 1,-1 1,0 1,-1 1,-1 1,-1 1,-1 1,-1 1,-1 0,-1 1,-1 1,0 1,-1 1,0 1,-1 8,0 1,-1 10,0 0,-2 -1,-1 -16,0 -1,1 -4,0 -1,1 -1,1 -1,1 -1,1 -1,1 -1,1 -1,1 -1,1 -1,1 -1,0 -1,1 -1,1 -1,0 -1,1 -1,1 -1,0 -1,1 -7,0 -1,1 -5,0 -1,-1 -3,0 -1,1 58,-13 0,0 -58,13Z"/>
<path onmouseover="hoverPath(evt)" onmouseout="recoverPath(evt)" fill="rgb(244,243,236)" d="M  63,107l 0,2 1,1 0,3 1,1 0,3 3,0 1,-1 2,0 1,-1 1,0 1,-1 3,0 1,-1 1,0 1,-1 1,-1 1,0 1,-1 1,0 1,-1 1,0 1,-1 1,0 1,-1 1,0 1,-1 3,0 1,-1 1,0 -1,-1 0,0 -1,-1 -1,-1 -5,0 -1,1 -5,0 -1,1 -5,0 -1,1 -6,0 -1,1 -4,0 -1,1Z"/>
<path onmouseover="hoverPath(evt)" onmouseout="recoverPath(evt)" fill="rgb(246,235,141)" d="M  86,196l 0,0 1,1 1,1 1,0 1,1 0,1 1,1 1,1 1,1 1,0 1,1 0,1 1,1 0,1 1,1 1,1 1,1 0,1 1,1 1,0 1,1 0,1 1,1 0,1 1,1 1,0 1,1 0,2 1,1 1,1 0,1 1,1 2,0 1,1 0,2 -1,1 -1,1 -1,1 -1,1 -1,1 -1,1 -2,0 0,1 -1,1 -1,0 -1,1 -1,1 -1,1 -1,1 0,1 -1,1 -1,1 -1,1 -1,1 -1,1 0,1 -1,1 -1,0 -1,1 -1,1 -1,1 -1,1 -1,1 0,3 7,0 0,-2 1,-1 1,-1 0,-1 1,-1 1,0 1,-1 1,-1 1,-1 1,-1 1,-1 0,-1 1,-1 0,-1 1,-1 1,0 1,-1 1,-1 1,-1 1,-1 0,-3 1,-1 3,-3 3,0 1,1 0,2 -1,1 1,1 0,2 1,1 0,2 1,1 0,1 1,1 0,2 1,1 0,1 1,1 0,2 1,1 0,2 1,1 0,2 6,0 0,-2 -1,-1 0,-1 -1,-1 0,-2 -1,-1 0,-2 -1,-1 0,-1 -1,-1 0,-2 -1,-1 0,-2 -1,-1 0,-1 -1,-1 0,-2 -1,-1 0,-1 -1,-1 0,-5 1,-1 1,-1 2,-2 1,-1 1,-1 1,-1 1,-1 1,-1 2,-2 1,-1 1,-1 1,-1 1,0 1,-1 2,-2 1,-1 1,-1 1,-1 1,-1 1,-1 2,-2 1,-1 1,-1 1,-1 1,-1 1,-1 1,-1 0,-1 1,-1 1,0 1,-1 1,0 1,-1 1,-1 2,-2 1,-1 0,-1 1,-1 1,0 1,-1 1,0 1,-1 0,-1 1,-1 2,0 1,-1 1,-1 1,-1 1,-1 1,0 1,-1 0,-1 1,-1 2,0 1,1 1,1 0,1 1,1 0,1 -2,-5 0,-2 1,-1 1,0 1,-1 1,-1 3,0 1,-1 0,-2 1,-1 1,0 1,-1 1,0 1,-1 1,-1 1,0 2,-2 1,0 1,-1 2,0 0,-2 1,-1 1,0 1,-1 1,0 1,-1 1,-1 1,0 1,-1 1,-1 1,0 1,-1 1,-1 4,0 1,1 0,-2 1,-1 0,-1 1,-1 1,0 1,-1 1,-1 1,0 1,-1 1,0 1,-1 1,0 1,-1 2,0 1,-1 1,0 1,-1 1,0 1,-1 1,0 1,-1 1,0 1,-1 2,0 1,-1 1,0 1,-1 2,0 0,-2 1,-1 2,0 1,-1 2,0 1,1 1,1 0,1 1,1 0,1 1,0 0,-11 -2,0 0,2 -1,1 -4,0 -1,1 -2,0 0,1 -1,1 -2,0 -1,-1 -1,1 -1,0 -1,1 -2,0 -1,1 -1,0 -1,1 -1,0 -1,1 -2,0 -1,1 -1,0 -1,1 -1,0 -1,1 -1,0 -1,1 -1,0 -1,1 -1,0 -1,1 -1,0 -1,1 -1,0 -1,1 -1,0 -1,1 -1,1 -1,0 -1,1 -1,1 -1,0 -1,1 -1,1 -1,0 -1,1 -4,0 -1,-1 0,1 -1,1 0,2 -1,1 -1,1 -1,1 -1,1 -1,0 -1,1 0,1 -1,1 -2,0 -1,1 -1,1 0,2 -1,1 -4,0 -1,1 -1,1 -1,1 -1,0 -1,1 -1,1 -1,0 -1,1 -1,1 0,1 -1,1 -1,0 -1,1 -1,0 -1,1 0,1 -1,1 -1,0 0,1 -1,1 -1,0 -1,1 -1,0 -1,1 -1,0 -1,1 -1,1 -1,1 -1,1 -1,1 0,1 -1,1 -1,0 -1,1 -1,0 -1,1 -1,1 0,1 -1,1 -1,0 0,1 -1,1 -3,0 0,2 -1,1 -2,2 -1,1 -1,1 -1,1 -1,1 -1,1 -1,1 -1,1 -1,1 -1,0 -1,1 -1,1 -1,0 0,3 -1,1 -3,0 -1,1 0,1 -1,1 -1,1 -1,1 -2,2 -2,0 -1,-1 -1,-1 0,-1 -1,-1 -2,0 -1,-1 0,-2 -1,0 -1,-1 0,-4 -1,0 -1,-1 -1,-1 0,-1 -1,-1 -1,-1 -1,0 -1,-1 0,-2 -1,0 -1,-1 0,-2 -1,-1 -1,-1 -1,-1 -1,-1 -1,-1 0,-1 -1,-1 -1,-1 0,-1 -1,-1 0,-1 -1,-1 -1,-1 0,-1 -1,-1 0,-1 -2,0 -1,-1 0,-2 -1,-1 0,-3 1,-1 -1,0 -1,-1 0,-1 -1,-1 0,-1 -1,-1 0,-2 -1,-1 0,-1 -1,-1 0,-1 -1,-1 0,-2 -1,-1 0,-2 -1,-1 0,-2 -1,-1 0,-4 -1,0 -1,-1 0,-3 1,-1 3,0 0,-2 -2,0 -1,-1 -2,0 -1,-1 0,-1 -1,-1 0,-2 -1,-1 0,-1 -1,-1 0,-3 -1,-1 0,-3 -1,0 -1,-1 -1,-1 0,-1 -1,-1 0,-2 1,-1 0,-2 -1,-1 0,-3 -1,-1 0,-5 1,-1 5,0 1,-1 6,0 1,-1 5,0 1,-1 5,0 1,-1 7,0 1,1 1,1 1,1 -1,-2 0,-1 1,-1 3,0 1,-1 5,0 1,-1 6,0 1,-1 5,0 1,-1 7,0 0,-1 1,-1 2,0 1,-1 4,0 1,1 2,0 1,-1 5,0 0,-1 1,-1 2,0 1,1 3,0 1,-1 5,0 0,-1 1,-1 2,0 1,1 3,0 0,-1 1,-1 2,0 1,1 3,0 1,-1 7,0 1,-1 5,0 1,-1 6,0 1,-1 6,0 1,-1 5,0 1,-1 6,0 1,-1 5,0 0,-1 1,-1 4,0 1,1 6,0 1,-1 13,0 1,1 1,1 0,-2 1,-1 2,0 1,-1 5,0 0,-8 -6,0 -1,1 -7,0 -1,1 -10,0 -1,1 -9,0 -1,-1 0,2 -1,1 -3,0 -1,1 -3,0 -1,-1 -4,0 -1,1 -5,0 -1,1 -6,0 -1,1 -5,0 -1,1 -6,0 -1,1 -5,0 -1,1 -6,0 -1,1 -6,0 -1,1 -6,0 -1,1 -5,0 -1,1 -7,0 0,1 -1,1 -1,0 -1,1 -4,0 -1,-1 -3,0 -1,1 -6,0 -1,1 -4,0 -1,1 -5,0 0,1 -1,1 -2,0 -1,-1 -4,0 -1,1 -9,0 -1,1 -3,0 -1,1 -6,0 -1,1 -5,0 -1,1 -5,0 -1,1 -5,0 -1,1 -5,0 -1,-1 -1,-1 0,-2 -1,-1 0,-2 -1,-1 0,-2 -1,-1 0,-1 -1,-1 -1,-1 0,-3 -1,-1 0,-4 -1,-1 -1,-1 0,-2 -1,-1 0,-2 -1,-1 0,-1 -1,-1 0,-2 -1,-1 0,-1 -1,-1 0,-1 -1,-1 0,-1 -1,-1 0,-5 1,-1 1,-1 1,0 -3,1 -1,1 -2,0 -1,-1 0,-1 -1,-1 -1,-1 -1,-1 -1,-1 -1,0 -1,-1 0,-1 -1,-1 -2,-2 0,-1 -1,-1 -1,0 -1,-1 0,-2 -1,-1 -1,0 -1,-1 0,-2 -1,-1 -1,0 -1,-1 0,-2 -1,-1 -1,-1 0,-1 -1,-1 -1,-1 0,-1 -1,-1 -1,-1 0,-1 -1,-1 -1,-1 0,-1 -1,-1 0,-1 -1,-1 0,-1 -1,-1 0,-1 -1,-1 0,-3 1,-1 -3,0 -1,-1 0,-3 -3,0 0,18 2,0 1,1 2,0 1,1 1,1 1,1 0,1 1,1 1,1 0,1 1,1 1,1 0,1 1,1 1,1 0,1 1,1 1,0 1,1 0,2 1,1 1,0 1,1 0,2 1,1 1,1 1,0 1,1 0,2 1,1 1,1 1,1 1,1 1,1 1,0 1,1 0,2 1,1 1,1 1,1 0,1 1,1 0,1 1,1 1,1 0,1 1,1 0,1 1,1 0,2 1,1 0,2 1,1 0,1 1,1 0,4 1,1 0,1 1,1 0,3 1,0 1,1 0,8 1,1 1,0 1,1 0,4 -1,1 -2,0 -1,1 -5,0 -1,1 -4,0 -1,1 -3,0 -1,1 -5,0 -1,1 -7,0 -1,1 -9,0 0,1 -1,1 -4,0 -1,-1 -1,0 0,8 7,0 1,-1 8,0 1,-1 7,0 1,-1 5,0 1,-1 3,0 1,-1 3,0 1,-1 5,0 1,-1 7,0 1,1 0,1 1,1 0,3 1,1 0,3 1,1 0,3 1,0 1,1 1,1 0,1 1,1 0,3 -1,1 0,1 1,1 0,2 1,1 0,2 1,1 0,2 1,1 0,3 1,1 0,3 1,1 0,1 1,0 1,1 0,4 1,1 0,2 2,0 1,1 0,1 1,1 0,3 -1,1 0,1 1,1 0,1 1,1 0,1 1,1 0,1 1,1 0,2 1,0 1,1 0,2 -1,1 -1,1 0,2 1,1 0,0 1,1 0,1 1,1 0,1 1,0 1,1 1,1 1,1 1,1 1,0 1,1 0,4 1,1Z"/>
<path onmouseover="hoverPath(evt)" onmouseout="recoverPath(evt)" fill="rgb(242,241,232)" d="M  160,149l 0,0 1,1 0,1 1,1 0,2 -1,1 0,1 1,1 0,1 2,0 1,1 0,6 -1,1 0,2 -1,1 0,3 1,1 1,0 0,-1 1,-1 1,-1 1,0 1,-1 1,0 0,-1 1,-1 1,-1 1,-1 1,0 1,-1 1,-1 1,0 1,-1 1,-1 1,-1 4,0 0,-2 1,-1 1,-1 1,-1 2,0 0,-1 1,-1 1,-1 1,0 1,-1 1,-1 1,-1 0,-2 1,-1 0,-2 1,-1 2,0 1,1 0,1 2,0 1,-1 1,0 1,-1 1,-1 1,0 1,-1 1,-1 1,0 1,-1 1,-1 1,0 1,-1 1,0 1,-1 1,0 1,-1 1,0 1,-1 1,0 1,-1 1,0 1,-1 1,0 1,-1 1,0 1,-1 2,0 1,-1 1,0 1,-1 1,0 1,-1 2,0 1,-1 1,0 1,-1 2,0 1,1 0,-2 -2,-2 0,-1 -1,-1 -1,-1 0,-1 -1,-1 0,-1 -1,-1 -1,-1 0,-1 -1,-1 0,-1 -1,-1 -1,-1 0,-1 -2,0 -1,1 0,0 -1,1 -1,0 -1,1 -3,0 -1,1 -1,0 -1,1 -2,0 -1,1 -1,0 -1,1 -1,0 -1,1 -7,0 -1,-1 -1,-1 -1,-1 0,-1 -1,-1 0,-1 -1,-1 0,-1 -1,-1 0,-1 -1,-1 -1,-1 0,-1 -6,0 -1,-1 0,-2 1,-1 3,0 0,-2 -2,0 -1,-1 -2,0 -1,-1 -4,0 -1,-1 -9,0 -1,1 -6,0 1,1 0,1 1,1 1,1 0,3 -2,2 -2,0 -1,-1 0,-2 -1,-1 0,-1 -1,-1 0,-1 -1,0 -1,-1 -5,0 -1,-1 0,-2 1,-1 4,0 1,-1 8,0 0,-1 -4,0 -1,-1 0,1 -4,1 -2,0 -1,-1 0,1 -2,1 -4,0 -1,1 -5,0 -1,-1 0,1 -1,1 -5,0 1,1 0,2 -1,1 -2,0 -1,1 -3,0 -1,1 -1,1 -1,1 -1,1 0,1 -1,1 -1,1 0,2 1,-2 1,-1 1,-2 1,-1 3,0 1,1 0,4 -1,1 0,1 -1,1 -1,0 -1,1 -1,1 -1,1 -4,0 1,1 0,3 -1,1 -2,0 0,7 1,1 0,2 1,1 0,1 1,1 0,-1 -1,-2 0,-3 1,-1 1,-1 2,0 1,-1 1,0 1,-1 4,0 0,-2 1,-1 3,0 1,-1 1,-1 2,0 1,1 1,0 1,-1 3,0 1,1 1,1 0,1 1,1 1,1 0,1 1,1 1,1 1,1 0,3 1,1 0,1 1,1 0,3 1,1 0,1 1,1 0,5 -1,1 -1,1 -4,0 0,4 -1,1Z"/>
<path onmouseover="hoverPath(evt)" onmouseout="recoverPath(evt)" fill="rgb(172,198,237)" d="M  197,19l 0,0 -1,1 0,1 1,1 0,4 1,-3 0,0 1,-1 3,-3 1,-1 1,0 1,-1 1,0 1,-1 1,0 1,-1 1,0 1,-1 1,0 1,-1 1,0 1,-1 1,0 1,-1 1,0 1,-1 1,-1 1,0 1,-1 1,0 2,-2 1,-1 1,0 1,-1 1,-1 1,-1 0,-1 1,-1 -7,0 0,3 -1,1 -1,0 -1,1 -1,1 -1,0 -1,1 -1,0 -1,1 -1,1 -1,1 -1,0 -1,1 -1,0 -1,1 -1,1 -1,0 -1,1 -1,0 -1,1 -1,0 -1,1 -1,0 -1,1 -1,0 -1,1 -1,0 -1,1Z"/>
<path onmouseover="hoverPath(evt)" onmouseout="recoverPath(evt)" fill="rgb(243,242,234)" d="M  205,155l 0,0 -1,1 -1,0 -1,1 -1,0 1,1 0,0 1,1 0,1 1,1 0,1 1,1 0,3 -1,1 0,3 1,1 0,2 2,0 1,1 0,1 1,1 0,1 1,1 1,1 0,1 1,1 1,1 1,1 3,0 1,-1 3,0 1,1 2,0 0,-2 1,-1 3,0 1,-1 2,0 2,-2 1,0 1,-1 2,0 2,-2 2,0 1,-1 2,0 1,-1 1,0 0,-3 1,-1 2,0 1,1 1,1 0,1 1,1 0,3 -1,1 0,1 1,1 0,1 3,0 0,-44 -2,0 -1,-1 0,-1 -1,-1 0,-1 -1,-1 -1,1 -2,0 0,2 -1,1 -2,0 -1,1 -1,0 -1,1 -2,0 -1,1 -1,0 -1,1 -1,0 -1,1 -1,0 -1,1 -1,0 -1,1 -2,0 -1,1 -1,0 -1,1 -1,0 -1,1 -1,0 -2,2 -1,0 0,1 -1,1 0,1 1,1 0,1 1,1 0,1 1,1 0,1 1,1 0,2 -1,1 -2,0 -1,-1 0,-1 -1,-1 0,-1 -1,-1 0,-1 -1,-1 0,-1 -1,-1 -2,0 -1,1 0,0 -1,1 -1,0 -1,1 -1,1 -1,0 -1,1 43,12 0,-2 -1,-1 0,-1 -1,-1 0,0 2,5 -43,-12 40,7 -1,0 -1,1 0,0 2,-1 -40,-7 38,9 0,1 1,1 0,1 1,1 0,0 -2,-4 -38,-9 41,13 0,0 -41,-13 38,3 0,0 -38,-3 35,4 -1,-1 0,-2 1,-1 2,0 1,1 0,0 -3,3 -35,-4Z"/>
<path onmouseover="hoverPath(evt)" onmouseout="recoverPath(evt)" fill="rgb(242,241,233)" d="M  2,116l -2,0 0,20 5,0 1,1 3,0 1,-1 7,0 1,-1 1,0 1,-1 1,-1 1,0 2,-2 1,0 1,-1 1,-1 1,-1 1,-1 1,-1 1,-1 1,-1 1,-1 1,-1 4,0 1,-1 15,0 0,-2 -1,-1 0,-3 -1,-1 0,-3 -1,-1 0,-1 -5,0 -1,1 -5,0 -1,1 -3,0 -1,1 -3,0 -1,1 -5,0 -1,1 -7,0 -1,1 -8,0 -1,1Z"/>
<path onmouseover="hoverPath(evt)" onmouseout="recoverPath(evt)" fill="rgb(241,239,229)" d="M  159,156l 0,-1 -1,-1 0,-2 1,-1 -5,0 -1,-1 -2,0 -1,1 -2,0 -1,1 -4,0 -1,1 -1,0 -1,1 -3,0 0,2 -1,1 -3,0 -1,-1 -2,0 0,2 -1,1 -2,0 1,1 0,1 1,1 1,1 1,1 0,1 5,0 1,1 0,2 -1,1 -2,0 1,1 0,0 1,1 0,1 1,1 0,1 1,1 1,0 1,1 0,1 5,0 1,1 0,2 -1,1 -4,0 0,1 1,1 0,1 1,1 1,0 1,1 0,2 1,1 0,-1 1,-1 1,-1 1,-1 1,0 1,-1 1,0 0,-1 1,-1 1,-1 2,-2 1,-1 1,-1 1,0 1,-1 1,0 1,-1 1,0 -1,-1 0,0 -1,-1 0,-5 1,-1 0,-2 1,-1 0,-4 -2,0 -1,-1 0,-1 -1,-1 0,-1 -3,20 -1,1 -1,0 -1,1 -2,0 -1,-1 0,-2 1,-1 1,0 1,-1 2,0 1,1 0,2 3,-20Z"/>
<path onmouseover="hoverPath(evt)" onmouseout="recoverPath(evt)" fill="rgb(244,242,235)" d="M  211,230l 0,4 -1,1 0,1 1,1 0,5 1,1 0,7 -1,1 -1,1 -3,0 -1,1 -2,0 -1,1 -4,0 -1,-1 -2,0 0,2 59,0 0,-38 -24,0 -1,-1 0,-4 -1,3 0,1 -1,1 -1,1 -1,1 -1,0 -1,1 -1,0 -1,1 -1,0 -1,1 -2,0 -1,1 -1,0 -1,1 -3,0 -1,1 -6,0 -1,1 -4,0 -1,-1 0,1 -1,-1 -2,0 9,1 1,0 1,1 0,1 1,1 2,0 1,1Z"/>
<path onmouseover="hoverPath(evt)" onmouseout="recoverPath(evt)" fill="rgb(193,210,232)" d="M  74,117l -1,0 -1,1 -2,0 -1,1 -5,0 1,1 0,1 1,1 1,0 1,1 0,3 1,-4 1,-1 1,-1 1,-1 1,0 1,-1 0,-1 1,-1 1,1 1,0 1,-1 1,0 1,-1 3,0 1,-1 2,0 1,-1 2,0 1,-1 3,0 1,-1 7,0 1,-1 11,0 1,-1 3,0 1,-1 2,0 1,-1 2,0 1,-1 2,0 0,-1 1,-1 1,-1 0,-1 1,-1 1,-1 1,-1 1,-1 1,-1 3,0 1,-1 2,0 -1,-1 -3,0 -1,-1 -2,0 -1,1 -2,0 0,1 -1,1 -7,0 -1,1 -5,0 -1,1 -6,0 -1,1 -5,0 -1,1 -3,0 1,1 0,2 -1,1 0,1 -1,1 -1,0 -1,1 -3,0 -1,1 -1,0 -1,1 -1,0 -1,1 -1,0 -1,1 -1,0 -1,1 -1,0 -1,1 -6,2 -1,1 5,-2 -2,1 -1,0 3,-1 -5,2Z"/>
<path onmouseover="hoverPath(evt)" onmouseout="recoverPath(evt)" fill="rgb(242,240,231)" d="M  94,146l -1,-1 0,-4 1,-1 2,0 1,-1 -1,0 -1,-1 0,-1 -1,-1 0,-5 -1,-1 -1,-1 0,-1 -1,-1 0,-1 -2,0 -1,-1 0,-1 -1,-1 0,-2 1,-1 0,-3 1,-1 1,0 1,-1 2,0 1,-1 4,0 1,1 1,1 0,-1 -1,-1 0,-1 -4,0 -2,1 -2,0 -1,1 -2,0 -1,1 -2,0 -1,1 -3,0 -1,1 -1,0 -1,1 -1,0 -1,1 -1,0 -1,1 -1,0 -1,1 -1,1 -1,1 0,3 -1,1 0,2 1,1 0,1 1,1 0,2 1,1 0,1 1,0 1,-1 2,0 1,1 0,1 1,1 0,4 -1,1 -3,0 0,1 1,0 1,1 0,4 1,1 0,2 1,1 0,2 1,1 0,2 1,1 0,1 1,1 0,1 1,1 0,2 1,1 0,1 1,1 0,1 2,0 1,1 1,0 1,-1 2,0 1,-1 2,0 1,-1 2,0 1,-1 2,0 1,-1 1,0 0,-2 -1,-1 0,-1 -1,-1 -1,-1 -2,0 -1,-1 0,-2 1,-1 0,-2 -1,-1 0,-2 1,-1 -1,-1 -1,-1 0,-1 -1,-1Z"/>
<path onmouseover="hoverPath(evt)" onmouseout="recoverPath(evt)" fill="rgb(243,242,234)" d="M  98,45l -1,1 0,1 1,1 0,5 -1,1 0,1 1,1 0,2 1,1 0,2 -1,1 0,1 2,0 1,1 0,1 1,1 0,1 1,1 0,1 1,1 0,3 1,1 1,1 0,3 1,1 0,1 1,1 0,1 1,0 1,1 1,-1 2,0 1,-1 2,0 1,-1 4,0 1,1 0,4 4,0 1,-1 4,0 0,-1 1,-1 0,-6 1,-1 0,-7 -1,-1 0,-3 1,-1 2,0 1,1 1,0 1,1 -1,-2 0,-3 1,-1 0,-3 1,-1 1,-1 1,-1 2,0 1,-1 1,-1 0,-1 1,-1 -1,-1 0,-1 -1,-1 0,-1 -2,0 -1,-1 0,-1 -1,-1 0,-2 -1,-1 0,-1 -1,-1 0,-2 1,-1 -1,-1 0,-1 -2,0 -1,-1 0,-1 -1,-1 0,-1 -1,-1 0,-1 -4,0 -1,1 -2,0 -1,1 -2,0 -1,1 -1,0 -1,1 -2,0 -1,1 -3,0 -1,1 -1,0 -1,1 -1,0 -1,1 -1,0 -1,1 -1,0 0,2 -1,1 -1,1 -1,1 -1,1 -1,1 -1,1 -1,0 -1,1Z"/>
<path onmouseover="hoverPath(evt)" onmouseout="recoverPath(evt)" fill="rgb(229,227,219)" d="M  109,31l 1,0 1,-1 1,0 1,-1 3,0 1,-1 2,0 1,-1 1,0 1,-1 2,0 1,-1 2,0 1,-1 4,0 -5,-1 0,-2 1,-1 1,0 1,-1 0,-2 1,-1 1,0 0,-3 -1,-1 0,0 -1,-1 0,-1 -2,0 -1,-1 0,-1 -1,-1 0,-1 -2,0 -1,-1 -2,0 -1,-1 -1,0 -1,1 -1,0 -1,1 0,2 1,1 0,2 1,1 0,4 -1,1 -4,0 -1,-1 0,-1 -1,-1 0,-1 -1,0 -1,1 -1,0 -1,1 -1,1 0,2 -1,1 -5,0 0,3 -1,1 0,1 -1,1 -2,0 0,1 -1,1 -1,1 0,2 -1,1 -2,0 0,3 1,0 1,1 1,1 0,1 1,1 0,4 1,1 0,1 1,-2 0,0 1,-1 1,0 2,-2 1,-1 1,-1 1,-1 0,-2 1,-1 1,0 1,-1 1,0 1,-1Z"/>
<path onmouseover="hoverPath(evt)" onmouseout="recoverPath(evt)" fill="rgb(242,240,230)" d="M  191,165l -1,0 -1,1 -1,0 0,2 -1,1 -1,1 -3,0 -1,1 -1,1 -1,0 0,1 1,1 0,1 1,1 0,2 1,1 0,1 1,1 2,0 1,1 0,2 -1,1 0,1 1,1 0,2 -1,1 0,1 1,1 0,1 1,1 0,1 1,1 1,1 0,2 7,0 1,1 1,1 0,4 3,0 1,-1 3,0 1,-1 8,0 1,1 4,0 1,1 1,0 1,1 2,0 1,1 0,1 1,0 1,1 1,1 2,0 1,1 0,4 23,0 0,-34 -4,0 -1,-1 0,-1 -1,-1 0,-3 1,-1 0,-1 -1,-1 0,-1 -1,-1 0,3 -1,1 -1,0 -1,1 -2,0 -1,1 -2,0 -1,1 -1,1 -2,0 -1,1 -1,0 -1,1 -1,1 -2,0 -1,1 -3,0 0,2 -1,1 -4,0 -1,-1 -1,0 -1,1 -5,0 -1,-1 -1,-1 -1,-1 -1,-1 0,-1 -1,-1 -2,0 -1,-1 0,-2 1,-1 -2,0 -1,-1 0,-2 -1,-1 0,-4 -1,-1 0,-1 -1,-1 0,-1 -1,-1 0,-1 -1,-1 -1,1 -1,0 -1,1 -1,1 -1,0 -1,1 -1,1 6,32 -2,0 -1,-1 0,-2 1,-1 2,0 1,1 0,2 -1,1 -6,-32Z"/>
<path onmouseover="hoverPath(evt)" onmouseout="recoverPath(evt)" fill="rgb(252,252,249)" d="M  202,53l 3,0 1,1 1,1 0,1 1,1 0,1 1,1 0,1 1,1 0,1 1,1 0,1 1,1 0,1 1,1 0,1 1,1 1,1 0,2 2,0 0,-1 -1,-1 0,0 -1,-1 0,-1 -1,-1 0,-1 -1,-1 0,-1 -1,-1 -1,-1 0,-1 -1,-1 0,-1 -1,-1 0,-1 -1,-1 0,-3 1,-1 -1,-1 0,-1 -2,0 -1,-1 -1,-1 0,-2 1,-1 -2,0 -1,-1 -1,-1 0,-1 -1,-1 0,-2 -1,-1 0,-3 1,-1 -2,0 -1,-1 0,-2 -1,-1 0,-2 -1,-1 0,-4 -1,-1 0,-2 -1,-1 -1,-1 0,-2 -1,-1 0,-2 -1,-1 0,-3 1,-1 -2,0 -1,-1 0,-3 1,-1 -1,-1 0,-2 -3,0 0,2 1,1 0,2 1,1 0,2 1,1 0,1 1,1 0,2 1,1 0,2 1,1 0,3 -1,1 2,0 1,1 0,4 1,1 0,3 1,0 1,1 0,2 1,1 0,2 1,1 0,2 1,1 0,1 1,1 0,1 1,1 0,1 1,1 0,1 1,1 0,4 -1,1Z"/>
<path onmouseover="hoverPath(evt)" onmouseout="recoverPath(evt)" fill="rgb(244,243,236)" d="M  203,21l 0,0 -1,1 -1,1 -1,1 -1,1 0,2 -1,1 0,1 1,1 0,2 2,0 1,1 0,2 -1,1 0,1 1,1 0,2 1,1 0,1 1,1 2,0 1,1 0,2 -1,1 1,1 2,0 1,1 0,1 1,1 0,2 -1,1 0,1 1,1 0,1 1,1 0,1 1,1 0,1 1,1 1,1 0,1 1,1 0,1 1,1 0,1 1,1 2,0 1,1 7,0 1,-1 10,0 1,-1 7,0 1,-1 7,0 0,-67 -22,0 0,1 -1,1 0,1 -1,1 -2,2 -1,1 -1,0 -1,1 -1,1 -1,1 -1,0 -1,1 -1,0 -1,1 -1,1 -1,0 -1,1 -1,0 -1,1 -1,0 -1,1 -1,0 -1,1 -1,0 -1,1 -1,0 -1,1 -1,0 -1,1 -1,0 -1,1Z"/>
<path onmouseover="hoverPath(evt)" onmouseout="recoverPath(evt)" fill="rgb(241,240,232)" d="M  0,22l 0,19 2,0 1,1 0,1 1,1 0,1 1,1 1,1 1,1 0,1 1,1 1,1 1,1 0,2 -1,1 1,1 2,0 1,1 0,1 1,1 1,1 0,1 1,1 0,1 1,1 1,1 0,3 1,1 0,3 -1,1 0,3 2,0 1,1 0,2 1,1 0,4 1,1 0,1 1,1 0,2 1,1 0,3 -1,1 -2,0 0,6 1,1 0,1 1,-1 5,0 1,-1 3,0 1,-1 4,0 1,-1 5,0 1,-1 2,0 0,-2 -1,0 -1,-1 -1,-1 0,-8 -1,0 -1,-1 0,-3 -1,-1 0,-1 -1,-1 0,-4 -1,-1 0,-1 -1,-1 0,-2 -1,-1 0,-2 -1,-1 0,-1 -1,-1 0,-1 -1,-1 -1,-1 0,-1 -1,-1 0,-1 -1,-1 -1,-1 -1,-1 0,-2 -1,0 -1,-1 -1,-1 -1,-1 -1,-1 -1,-1 -1,-1 0,-2 -1,0 -1,-1 -1,-1 -1,-1 0,-2 -1,0 -1,-1 -1,-1 0,-2 -1,0 -1,-1 -1,-1 0,-1 -1,-1 -1,-1 0,-1 -1,-1 -1,-1 0,-1 -1,-1 -1,-1 0,-1 -1,-1 -1,-1 -2,0 -1,-1 -1,0Z"/>
<path onmouseover="hoverPath(evt)" onmouseout="recoverPath(evt)" fill="rgb(253,253,251)" d="M  125,159l -2,2 -1,1 -4,0 -1,-1 0,2 -1,1 -2,0 -1,1 -2,0 -1,1 -5,0 -1,-1 0,-2 -1,-1 0,-1 -1,-1 0,-1 -1,-1 0,-1 -1,-1 -1,-1 0,2 -1,1 2,0 1,1 3,7 0,1 -1,1 -1,0 -1,1 -2,0 -1,1 -2,0 -1,1 -2,0 -1,1 -2,0 -1,1 -2,0 -1,1 -1,0 0,1 2,0 1,-1 3,0 1,1 0,-2 1,-1 2,0 1,-1 3,0 1,-1 2,0 1,-1 3,0 1,1 1,1 0,1 1,1 0,1 1,1 -2,-5 0,-2 1,-1 2,0 1,-1 1,0 1,-1 2,0 1,-1 6,0 1,1 1,1 0,1 1,1 1,1 0,1 1,1 0,2 -1,1 -1,1 3,0 1,1 0,3 1,1 4,0 1,1 1,1 0,4 1,1 1,0 1,1 0,2 1,1 3,0 0,-1 -1,-1 0,-2 -1,0 -1,-1 -1,-1 0,-1 -1,-1 0,-3 1,-1 -1,0 -1,-1 0,-1 -1,0 -1,-1 -1,-1 0,-1 -1,-1 0,-1 -1,-1 -1,-1 0,-2 1,-1 -3,0 -1,-1 0,-1 -1,-1 -1,-1 -1,-1 0,-1 -1,-1Z"/>
<path onmouseover="hoverPath(evt)" onmouseout="recoverPath(evt)" fill="rgb(244,243,235)" d="M  185,255l 9,0 0,-3 1,-1 4,0 1,1 2,0 1,-1 2,0 1,-1 3,0 1,-1 0,-5 -1,-1 0,-5 -1,-1 0,-3 1,-1 0,-2 -2,0 -1,-1 -1,-1 0,-1 -7,0 -1,-1 -2,0 -1,-1 0,-2 1,-1 5,0 1,1 2,0 1,-1 6,0 1,-1 3,0 1,-1 1,0 1,-1 2,0 1,-1 1,0 1,-1 1,0 1,-1 1,0 2,-2 0,-1 1,-1 0,-1 -1,-1 0,0 -1,-1 -1,0 -1,-1 0,-1 -2,0 -1,-1 -1,0 -1,-1 -4,0 -1,-1 -6,0 -1,1 -3,0 -1,1 -5,0 -1,-1 0,-4 -1,-1 -7,0 -1,-1 0,-2 -1,-1 -1,-1 0,-1 -1,-1 0,-1 -1,-1 0,-2 -1,-1 0,-1 -1,-1 0,-1 -1,-1 0,-1 -1,-1 0,-2 1,-1 -2,0 -1,-1 0,-1 -1,-1 0,-1 -1,-1 0,1 -1,1 0,0 -1,1 -1,0 -1,1 -1,1 -1,1 -1,1 -2,0 0,1 -1,1 -1,1 -1,0 -1,1 -1,0 0,1 -1,1 -1,1 -1,1 -1,1 -1,1 -1,1 -1,0 -1,1 -1,0 0,1 -1,1 -1,1 -1,1 -1,1 -1,1 -1,1 -1,1 -1,1 -1,1 -1,1 -1,1 -1,1 -1,1 -1,1 -1,1 -1,1 -1,1 -1,0 -1,1 -1,1 -1,1 -1,1 -2,2 -1,1 -1,1 -1,1 -1,1 -1,1 -1,1 -1,1 0,3 1,1 0,1 1,1 0,2 1,1 0,1 1,1 0,2 1,1 0,2 1,1 0,1 1,1 0,2 1,1 0,2 1,1 0,1 1,1 0,3Z"/>
<path onmouseover="hoverPath(evt)" onmouseout="recoverPath(evt)" fill="rgb(242,240,231)" d="M  97,142l -2,0 0,2 1,1 0,0 1,1 0,1 1,1 1,1 0,1 1,1 0,1 1,1 0,1 1,1 1,1 0,1 1,1 0,1 1,1 0,1 1,1 0,2 3,0 1,-1 2,0 1,-1 2,0 0,-2 1,-1 2,0 1,1 2,0 1,-1 0,0 1,-1 0,-1 1,-1 2,0 1,1 1,0 0,-2 1,-1 4,0 1,1 1,0 0,-2 1,-1 3,0 1,-1 1,0 1,-1 4,0 1,-1 2,0 1,-1 3,0 1,-1 0,-4 1,-1 4,0 1,-1 0,-3 -1,-1 0,-1 -1,-1 0,-3 -1,-1 0,-1 -1,-1 0,-3 -1,-1 -1,-1 -1,-1 0,-1 -1,-1 -1,-1 0,-1 -1,-1 -1,0 -1,1 -3,0 -1,-1 -1,1 -1,1 -3,0 0,2 -1,1 -4,0 -1,1 -1,0 -1,1 -2,0 -1,1 0,2 1,1 0,3 -1,1 -2,0 -1,-1 -1,-1 0,-1 -1,-1 0,-2 -1,-1 0,-9 1,-1 2,0 0,-1 -1,-1 0,-2 1,-1 4,0 1,-1 1,-1 1,-1 1,0 0,-1 1,-1 0,-2 -1,0 -1,1 0,1 -1,1 -1,1 0,1 -1,1 -2,0 -1,-1 0,-1 -1,0 -1,1 -2,0 -1,1 -2,0 -1,1 -3,0 -1,1 -11,0 -1,1 -1,0 1,1 0,3 -1,1 -2,0 -1,-1 -1,-1 -2,0 -1,1 -2,0 -1,1 -1,0 0,2 1,1 0,1 1,1 0,1 1,1 0,1 1,1 0,1 1,1 1,1 0,5 1,1 0,1 5,0 1,1 0,2 -1,1 -4,0 -1,1 35,-5 1,-1 2,0 1,1 0,2 -1,1 -2,0 -1,-1 0,-2 -35,5Z"/>
<path onmouseover="hoverPath(evt)" onmouseout="recoverPath(evt)" fill="rgb(242,240,230)" d="M  148,63l -2,2 0,1 -1,1 -1,1 0,1 -1,1 0,1 -1,1 0,2 -1,1 0,3 -1,1 0,2 -1,1 6,0 1,-1 5,0 1,-1 6,0 1,-1 6,0 1,-1 6,0 1,-1 5,0 1,-1 6,0 1,-1 5,0 1,-1 6,0 1,-1 5,0 1,-1 6,0 1,1 1,0 0,-2 -1,-1 0,0 -1,-1 0,-1 -1,-1 0,-1 -1,-1 0,-1 -1,-1 0,-1 -1,-1 0,-1 -1,-1 0,-1 -1,-1 0,-1 -1,-1 -5,0 -1,-1 0,-2 1,-1 2,0 0,-2 -1,-1 0,-1 -1,-1 0,-1 -1,-1 0,-1 -1,-1 0,-1 -1,-1 0,-2 -1,-1 0,-2 -1,-1 0,-2 -1,1 0,1 -1,1 -1,1 0,1 -1,1 0,1 -1,1 0,1 -1,1 0,1 -1,1 -1,1 -1,1 -1,1 0,1 -2,2 -1,0 -3,3 -1,0 -1,1 -1,0 -1,1 -1,0 -1,1 -1,0 -1,1 -1,0 -1,1 -4,0 -1,1 -3,0 -1,1 -6,0 -1,1 -1,0 -1,1 -1,0 -1,1 2,6 1,-1 2,0 1,1 0,2 -1,1 -2,0 -1,-1 0,-2 -2,-6 32,-2 1,-1 2,0 1,1 0,2 -1,1 -2,0 -1,-1 0,-2 -32,2Z"/>
</svg>