<svg width="256" height="256" xmlns="http://www.w3.org/2000/svg"><script> 
var tempColor;
function hoverPath(evt){
obj = evt.target;
tempColor = obj.getAttribute("fill");
obj.setAttribute("fill","red");
//alert(tempColor);
//obj.setAttribute("stroke","red");}
function recoverPath(evt){
obj = evt.target;
obj.setAttribute("fill", tempColor);
//obj.setAttribute("stroke", tempColor);
}</script><path onmouseover="hoverPath(evt)" onmouseout="recoverPath(evt)" fill="rgb(244,243,236)" d="M  96,68l 0,0 -1,1 -2,0 0,3 -1,1 0,2 -1,1 0,5 -1,1 0,3 -1,1 0,4 -1,1 0,3 -1,1 0,3 -1,1 0,4 -1,1 0,3 -1,1 0,3 -1,1 0,4 -1,1 0,2 1,1 0,5 -1,1 0,3 -1,1 0,3 -1,1 -2,0 0,3 -1,1 0,4 -1,1 0,3 -1,1 0,4 -1,1 0,3 -1,1 0,3 -1,1 0,2 -1,1 0,5 -1,1 0,3 -1,1 0,3 -1,1 0,3 -1,1 0,3 -1,1 0,2 1,1 0,4 -1,1 -2,0 0,3 -1,1 0,1 -1,1 0,1 -1,1 -1,1 4,0 1,1 4,0 1,1 4,0 1,1 4,0 1,1 4,0 1,1 4,0 1,1 3,0 1,-1 5,0 1,1 0,2 3,0 1,1 4,0 1,-1 5,0 1,1 0,2 3,0 1,1 3,0 1,-1 4,0 1,-1 1,-1 2,0 1,1 0,1 1,1 1,1 0,2 3,0 1,1 4,0 1,1 4,0 1,1 4,0 1,1 3,0 1,-1 5,0 1,1 0,2 2,0 1,1 3,0 1,1 3,0 1,-1 4,0 1,1 0,2 3,0 1,1 3,0 1,1 2,0 1,-1 4,0 1,1 0,2 2,0 1,1 4,0 1,1 2,0 1,1 3,0 1,1 2,0 1,-1 5,0 0,-2 1,-1 2,0 1,1 0,5 -1,1 0,1 -1,1 0,2 -1,1 -1,1 -2,0 0,1 1,1 0,2 -1,1 -2,0 0,1 -1,1 0,1 -1,1 0,2 43,0 0,-164 -6,0 -1,-1 -4,0 -1,-1 -5,0 -1,-1 -5,0 -1,-1 -4,0 -1,-1 0,-2 -4,0 -1,1 -6,0 -1,-1 -4,0 -1,-1 0,-2 -4,0 -1,1 -6,0 -1,-1 -4,0 0,2 -1,1 -2,0 -1,-1 0,-2 -1,-1 -3,0 -1,-1 -6,0 -1,-1 0,-2 -5,0 -1,1 -7,0 -1,-1 0,-2 -4,0 -1,1 -7,0 -1,-1 -6,0 -1,-1 -4,0 -1,-1 -5,0 -1,-1 -4,0 -1,-1 -6,0 -1,-1 -6,0 -1,-1 0,-2 -3,0 -1,1 -5,0 -1,-1 -4,0 -1,-1 -1,1 -1,0Z"/>
<path onmouseover="hoverPath(evt)" onmouseout="recoverPath(evt)" fill="rgb(242,241,234)" d="M  0,1l 0,38 3,0 1,1 2,0 1,1 2,0 1,1 2,0 1,1 2,0 1,-1 3,0 1,1 0,2 2,0 1,1 2,0 1,1 2,0 1,1 2,0 1,1 1,0 1,-1 3,0 1,1 3,0 1,1 1,0 1,1 0,2 1,0 1,-1 4,0 1,1 0,2 1,0 1,1 3,0 1,-1 3,0 1,1 0,3 -1,1 1,1 0,4 1,1 0,1 1,1 0,1 1,1 0,-1 1,-1 0,0 1,-1 1,0 0,-3 1,-1 11,0 1,1 10,0 -5,-1 0,-2 1,-1 7,0 1,-1 0,-3 1,-1 0,-3 1,-1 0,-2 1,-1 3,0 1,-1 0,-1 1,-1 0,-5 1,-1 0,-2 -1,-1 0,-5 1,-1 0,-4 1,-1 0,-1 1,-1 2,0 0,-2 1,-1 0,-3 -1,0 -1,-1 0,-4 1,-1 0,-2 -1,-1 0,-4 1,-1 0,-3 -106,0 -1,1Z"/>
<path onmouseover="hoverPath(evt)" onmouseout="recoverPath(evt)" fill="rgb(243,242,235)" d="M  0,117l 0,73 5,0 1,1 3,0 1,1 4,0 1,1 4,0 1,1 4,0 1,1 3,0 1,-1 5,0 1,1 0,2 3,0 1,1 3,0 1,1 4,0 1,1 4,0 1,1 4,0 1,-1 1,0 1,-1 0,-1 1,-1 0,-1 1,-1 0,-3 1,-1 2,0 0,-2 -1,-1 0,-4 1,-1 0,-3 1,-1 0,-3 1,-1 0,-3 1,-1 0,-3 1,-1 0,-5 1,-1 0,-2 1,-1 0,-3 1,-1 0,-3 1,-1 0,-4 1,-1 0,-3 1,-1 0,-4 1,-1 0,-3 1,-1 2,0 0,-3 1,-1 0,-3 1,-1 0,-3 -1,-1 0,-4 1,-1 0,-4 1,-1 0,-3 1,-1 0,-3 1,-1 0,-4 1,-1 0,-3 1,-1 0,-3 1,-1 0,-4 1,-1 0,-3 1,-1 0,-5 1,-1 0,-2 1,-1 0,-3 1,-1 0,-2 -1,1 -12,0 -1,-1 -9,0 0,3 -1,1 -1,0 -1,1 0,1 -1,1 -2,0 -1,-1 -1,-1 0,-1 -1,-1 0,-1 -1,-1 0,-4 -1,-1 0,-2 1,-1 0,-1 -1,0 -1,1 -5,0 -1,-1 -1,0 -1,-1 0,-2 -2,0 -1,1 -3,0 -1,-1 0,-2 -1,0 -1,-1 -3,0 -1,-1 -1,0 -1,1 -3,0 -1,-1 -2,0 -1,-1 -2,0 -1,-1 -2,0 -1,-1 -2,0 -1,-1 0,-2 -1,0 -1,1 -4,0 -1,-1 -2,0 -1,-1 -2,0 -1,-1 -2,0 -1,-1 -2,0Z"/>
<path onmouseover="hoverPath(evt)" onmouseout="recoverPath(evt)" fill="rgb(244,243,235)" d="M  133,219l 0,0 -1,-1 0,-2 -1,-1 -1,-1 0,-1 -1,1 0,0 -1,1 -4,0 3,1 0,5 1,1 0,3 -1,1 -2,0 0,3 -1,1 0,2 -1,1 0,2 -1,1 0,3 -1,1 0,2 -1,1 0,3 -1,1 0,2 -1,1 0,3 -1,1 0,1 93,0 0,-3 1,-1 0,-1 1,-1 0,-1 1,-1 0,-1 1,-1 0,-2 1,-1 2,0 1,-1 0,-2 1,-1 0,-1 1,-1 0,-3 -1,3 -5,0 -1,1 -4,0 -1,-1 -3,0 -1,-1 -2,0 -1,-1 -4,0 -1,-1 -2,0 -1,-1 0,-2 -2,0 -1,1 -4,0 -1,-1 -3,0 -1,-1 -3,0 -1,-1 0,-2 -2,0 -1,1 -5,0 -1,-1 -3,0 -1,-1 -2,0 -1,-1 0,-2 -3,0 -1,1 -5,0 -1,-1 -4,0 -1,-1 -4,0 -1,-1 -4,0 -1,-1Z"/>
<path onmouseover="hoverPath(evt)" onmouseout="recoverPath(evt)" fill="rgb(244,243,236)" d="M  211,0l -1,0 0,2 -1,1 0,4 -1,1 0,3 -1,1 -2,0 0,4 -1,1 0,4 -1,1 0,3 -1,1 0,4 -1,1 0,4 -1,1 0,3 -1,1 0,4 -1,1 0,5 -1,1 0,5 -1,1 0,5 -1,1 0,5 -1,1 0,4 -1,1 0,3 -1,1 -6,0 4,1 0,0 1,1 0,2 1,-3 6,0 1,1 4,0 1,-1 6,0 1,1 0,2 4,0 1,1 4,0 1,-1 6,0 1,1 0,2 4,0 1,1 5,0 1,1 5,0 1,1 4,0 1,1 5,0 0,-89Z"/>
<path onmouseover="hoverPath(evt)" onmouseout="recoverPath(evt)" fill="rgb(244,243,236)" d="M  0,194l 0,61 115,0 0,-2 1,-1 0,-3 1,-1 0,-2 1,-1 0,-3 1,-1 0,-2 1,-1 0,-3 1,-1 0,-2 1,-1 0,-2 1,-1 0,-3 1,-1 2,0 0,-1 -1,-1 0,-5 -2,0 -1,-1 -4,0 -1,-1 -3,0 -1,-1 0,-2 -3,0 -1,1 -6,0 -1,-1 -3,0 -1,-1 0,-2 -3,0 -1,1 -5,0 -1,-1 -4,0 -1,-1 -4,0 -1,-1 -4,0 -1,-1 -4,0 -1,-1 -4,0 -1,-1 -5,0 -1,-1 -5,0 -1,-1 -4,0 -1,-1 -4,0 -1,-1 -3,0 -1,-1 -3,0 -1,-1 0,-2 -3,0 -1,1 -5,0 -1,-1 -4,0 -1,-1 -4,0 -1,-1 -4,0 -1,-1 -3,0 -1,-1 -4,0Z"/>
<path onmouseover="hoverPath(evt)" onmouseout="recoverPath(evt)" fill="rgb(243,242,235)" d="M  108,25l -2,0 0,1 -1,1 0,4 -1,1 0,3 1,1 0,4 -1,1 0,5 -1,1 0,1 -1,1 -1,1 -3,0 0,2 -1,1 0,3 -1,1 0,3 -1,1 -1,1 -7,0 5,1 1,0 1,1 0,3 1,-3 1,0 1,-1 2,0 1,1 4,0 1,1 3,0 1,-1 5,0 1,1 0,2 6,0 1,1 6,0 1,1 4,0 1,1 5,0 1,1 4,0 1,1 6,0 1,1 5,0 1,-1 6,0 1,1 0,2 5,0 1,-1 7,0 1,1 0,2 5,0 1,-1 6,0 0,-3 1,-1 0,-4 1,-1 0,-5 1,-1 0,-5 1,-1 0,-5 1,-1 0,-5 1,-1 0,-4 1,-1 0,-3 1,-1 0,-4 1,-1 0,-4 1,-1 0,-3 1,-1 0,-4 1,-1 0,-4 1,-1 2,0 0,-3 1,-1 0,-4 1,-1 0,-1 -99,0 0,4 -1,1 0,2 1,1 0,4 -1,1 0,2 1,0 1,1 0,5 -1,1 0,2 -1,1Z"/>
</svg>