<svg width="256" height="256" xmlns="http://www.w3.org/2000/svg"><script> 
var tempColor;
function hoverPath(evt){
obj = evt.target;
tempColor = obj.getAttribute("fill");
obj.setAttribute("fill","red");
//alert(tempColor);
//obj.setAttribute("stroke","red");}
function recoverPath(evt){
obj = evt.target;
obj.setAttribute("fill", tempColor);
//obj.setAttribute("stroke", tempColor);
}</script><path onmouseover="hoverPath(evt)" onmouseout="recoverPath(evt)" fill="rgb(249,200,109)" d="M  0,212l 0,9 4,0 1,1 0,-1 1,-1 2,0 1,1 0,2 1,-1 2,0 1,-1 2,0 1,-1 2,0 1,1 3,0 1,-1 3,0 1,-1 1,-1 4,0 1,1 0,1 1,-1 0,0 1,-1 1,0 1,-1 2,0 1,1 0,2 1,-1 2,0 1,-1 4,0 1,1 1,0 1,-1 1,0 1,-1 4,0 0,-1 1,-1 2,0 1,1 0,2 1,-1 2,0 0,-1 1,-1 2,0 1,1 1,0 1,1 2,0 1,-1 1,-1 4,0 0,-1 1,-1 2,0 1,1 0,2 1,-1 0,0 1,-1 4,0 0,-1 1,-1 2,0 1,1 0,2 1,-1 1,-1 4,0 0,-1 1,-1 2,0 1,1 0,2 1,-1 2,0 1,-1 2,0 1,-1 2,0 1,1 3,0 0,-1 1,-1 2,0 1,1 1,0 1,1 2,0 1,-1 2,0 0,-1 1,-1 2,0 1,1 1,0 1,1 2,0 1,-1 2,0 0,-1 1,-1 2,0 1,1 1,0 1,1 2,0 1,-1 1,-1 4,0 0,-1 1,-1 2,0 1,1 0,2 1,-1 2,0 1,-1 4,0 1,1 1,0 1,-1 2,0 0,-1 1,-1 2,0 1,1 1,0 1,1 2,0 1,-1 1,-1 4,0 0,-1 1,-1 2,0 1,1 0,2 1,-1 3,0 1,-1 1,-1 3,0 1,1 1,0 1,1 1,-1 1,0 1,-1 4,0 1,1 1,0 1,-1 2,0 0,-1 1,-1 2,0 1,1 4,0 1,1 1,-1 0,0 1,-1 5,0 1,1 2,0 1,-1 2,0 0,-1 1,-1 2,0 1,1 1,0 1,1 2,0 1,-1 2,0 0,-1 1,-1 5,0 1,-1 5,0 0,-10 -3,0 -1,-1 -1,0 0,1 -1,1 -8,0 -1,-1 0,1 -1,1 -2,0 -1,-1 0,-2 -1,1 -1,0 -1,1 -6,0 -1,-1 -2,0 -1,1 -1,0 -1,1 -4,0 0,1 -1,1 -10,0 -1,-1 0,-1 -1,1 -1,0 0,1 -1,1 -2,0 -1,-1 -1,0 -1,-1 -2,0 -1,1 -2,0 -1,1 -4,0 -1,-1 -2,0 -1,1 -1,1 -1,0 -1,1 -3,0 -1,-1 -1,0 0,1 -1,1 -5,0 -1,-1 -1,1 -2,0 -1,-1 -3,0 0,1 -1,1 -2,0 -1,-1 -1,0 -1,-1 -2,0 -1,1 -2,0 0,1 -1,1 -2,0 -1,-1 0,1 -1,1 -2,0 -1,-1 0,-1 -2,0 -1,1 -1,0 -1,1 -2,0 -1,-1 -3,0 0,1 -1,1 -2,0 -1,-1 -1,0 -1,-1 -2,0 -1,1 -1,1 -4,0 0,1 -1,1 -2,0 -1,-1 0,-2 -1,1 -2,0 -1,1 -2,0 0,1 -1,1 -2,0 -1,-1 0,-2 -1,1 -2,0 -1,1 -2,0 0,1 -1,1 -2,0 -1,-1 0,-2 -1,1 0,0 -1,1 -4,0 0,1 -1,1 -2,0 -1,-1 0,-2 -1,1 -1,0 0,1 -1,1 -2,0 -1,-1 -1,0 -1,-1 -1,0 -1,1 -2,0 0,1 -1,1 -2,0 -1,-1 -1,0 -1,-1 -2,0 -1,1 -1,0 0,1 -1,1 -2,0 -1,-1 -1,0 -1,-1 -2,0 -1,1 -2,0 0,1 -1,1 -2,0 -1,-1 -1,0 -1,-1 -2,0 -1,1 -1,0 -1,1 -6,0 -1,-1 -2,0 -1,1 -2,0 -1,1 -3,0 0,1 -1,1 -10,0 -1,-1 0,-1 -1,1 -1,0 -1,1 -2,0 0,1 -1,1 -2,0 -1,-1 0,-1 -2,0Z"/>
<path onmouseover="hoverPath(evt)" onmouseout="recoverPath(evt)" fill="rgb(241,240,232)" d="M  42,51l -2,0 0,2 1,1 0,1 1,1 0,1 1,1 0,1 1,1 0,2 1,1 0,1 1,1 0,1 1,1 0,1 2,0 1,1 0,2 -1,1 -1,1 -4,0 -1,-1 0,1 -1,1 0,2 -1,1 0,2 1,0 1,1 0,9 1,0 1,1 0,1 1,1 0,1 6,0 1,1 2,0 0,-1 1,-1 2,0 1,1 1,1 0,1 1,1 1,1 0,1 1,1 0,1 1,1 0,2 1,1 0,-1 1,-1 28,0 1,-1 15,0 0,-12 1,-1 0,-1 -1,-1 0,-5 1,-1 0,-1 1,-1 0,-2 1,-1 0,-4 -1,-1 0,-2 -1,-1 -1,-1 -1,-1 0,-1 -1,-1 -1,-1 0,-1 -1,-1 0,-1 -1,0 -1,-1 -2,0 -1,1 -11,0 -1,1 -8,0 -1,-1 0,-5 -2,0 -1,-1 0,-2 -1,0 -1,1 -1,0 -1,1 -3,0 -1,-1 0,-4 1,-1 1,-1 1,-1 1,0 0,-4 1,-1 -2,0 -1,1 -2,0 -1,1 -2,0 -1,1 -2,0 -1,1 -3,0 -1,1 -1,0 -1,1 -2,0 0,2 -1,1 -2,0 -1,-1 -1,0 -1,1 -2,0 -1,1 -2,0 -1,1Z"/>
<path onmouseover="hoverPath(evt)" onmouseout="recoverPath(evt)" fill="rgb(243,242,234)" d="M  161,111l -29,0 0,6 14,0 1,1 4,0 1,1 3,0 1,1 1,1 0,12 -1,1 0,13 1,1 0,2 1,1 1,0 1,1 36,0 1,1 0,2 1,0 1,-1 7,0 1,1 15,0 1,-1 1,0 0,-31 1,-1 2,0 1,1 1,1 0,2 -1,1 0,11 1,1 0,15 1,1 10,0 0,-13 -1,-1 0,-20 -1,-1 0,-7 -26,0 -1,-1 -1,1 -6,0 -1,-1 -31,0 -1,-1Z"/>
<path onmouseover="hoverPath(evt)" onmouseout="recoverPath(evt)" fill="rgb(171,198,238)" d="M  234,60l 0,0 -1,-1 -1,0 -1,-1 -1,-1 -1,-1 0,-1 -1,-1 0,1 -1,-2 -1,-1 -1,-1 -1,-1 0,-4 1,-1 1,0 1,-1 2,0 1,-1 6,0 1,-1 3,0 1,-1 1,0 1,-1 1,0 1,-1 1,0 1,-1 1,0 1,-1 1,0 1,-1 1,0 1,-1 2,0 0,-2 -2,0 -1,1 -2,0 -1,1 -1,0 -1,1 -1,0 -1,1 -1,0 -1,1 -1,0 -1,1 -1,0 -1,1 -2,0 -1,1 -9,0 -1,1 -1,0 -1,1 -1,1 -1,0 -2,2 -1,0 -1,1 -1,0 -1,1 -1,1 -1,0 -1,1 -1,0 -1,1 -1,1 -1,0 -1,1 -1,1 -1,0 -1,1 -1,1 -1,0 -1,1 -1,1 -1,0 -1,1 -1,1 -1,0 -1,1 -4,0 -1,-1 -1,-1 -1,-1 -1,-1 -1,0 0,1 1,1 0,0 1,1 1,1 0,1 1,1 1,0 1,1 2,0 1,-1 3,0 1,1 0,-3 1,-1 1,-1 1,0 1,-1 1,0 1,-1 1,-1 1,0 1,-1 1,-1 1,0 1,-1 1,-1 1,0 1,-1 1,0 2,-2 1,0 1,-1 3,0 11,12 -1,0 -32,6 0,1 1,1 0,2 1,1 0,1 1,1 0,2 1,1 0,-3 -1,-1 0,-1 -1,-1Z"/>
<path onmouseover="hoverPath(evt)" onmouseout="recoverPath(evt)" fill="rgb(243,241,233)" d="M  0,1l 0,104 5,0 0,-1 1,-1 2,0 1,1 18,0 1,-1 15,0 1,-1 12,0 0,-1 1,-1 2,0 1,1 0,2 2,0 0,-1 -1,-1 0,-1 -1,-1 0,-1 -1,-1 -1,-1 0,-1 -1,-1 0,1 -1,1 -4,0 -1,-1 -6,0 -1,-1 0,-1 -1,-1 0,-1 -1,0 -1,-1 0,-9 -1,0 -1,-1 0,-4 1,-1 0,-2 1,-1 0,-1 1,-1 0,-1 -1,-1 0,-1 -1,-1 0,-1 -1,-1 0,-1 -1,-1 0,-1 -1,-1 0,-2 -1,-1 0,-1 -1,-1 -1,-1 0,-1 -1,-1 0,-1 -1,-1 0,-1 -1,-1 0,-1 -1,-1 -1,-1 0,-1 -1,-1 0,-1 -1,-1 0,-1 -1,-1 -1,-1 0,-1 -1,-1 0,-1 -1,-1 0,-1 -1,-1 0,-1 -1,-1 0,-1 -1,-1 0,-1 -1,-1 0,-1 -1,-1 0,-1 -1,-1 0,-1 -1,-1 0,-1 -1,-1 0,-1 -1,-1 0,-1 -1,-1 0,-1 -1,-1 0,-1 -1,-1 0,-1 -1,-1 -1,-1 0,-1 -1,-1 -1,-1 0,-1 -1,-1 0,-2 -5,0 -1,1Z"/>
<path onmouseover="hoverPath(evt)" onmouseout="recoverPath(evt)" fill="rgb(240,238,226)" d="M  14,0l -2,0 0,1 1,1 0,1 1,1 1,1 0,1 1,1 0,1 1,1 0,1 1,1 0,1 1,1 0,1 1,1 0,1 1,1 0,1 1,1 0,1 1,1 0,1 1,1 0,1 1,1 0,1 1,1 0,1 1,1 0,1 1,1 0,1 1,1 1,1 0,1 1,1 0,1 1,1 0,1 1,1 1,1 0,1 1,1 0,1 1,1 0,1 3,0 1,-1 3,0 1,-1 1,0 1,-1 2,0 1,-1 2,0 1,-1 2,0 1,-1 1,0 1,-1 2,0 1,-1 2,0 1,-1 2,0 1,-1 2,0 1,-1 2,0 1,-1 2,0 1,-1 2,0 0,-1 -1,-1 -2,0 -1,-1 -2,0 -1,1 -2,0 -1,1 -3,0 -1,1 -2,0 -1,1 -1,1 -2,0 -1,1 -2,0 -1,1 -1,0 -1,1 -5,0 -1,-1 -1,-1 0,-1 -1,-1 0,-1 -1,-1 -2,0 -1,-1 0,-1 -1,-1 0,-1 -1,-1 -1,-1 0,-1 -1,-1 0,-1 -1,-1 0,-2 -1,-1 0,-1 -1,-1 0,-1 -1,-1 0,-1 -1,-1 0,-1 -1,-1 0,-1 -1,-1 0,-1 -1,-1 0,-1 -1,-1 0,-1 -1,-1 -1,-1 0,-2Z"/>
<path onmouseover="hoverPath(evt)" onmouseout="recoverPath(evt)" fill="rgb(243,242,234)" d="M  30,0l -4,0 0,1 1,1 2,0 1,1 0,1 1,1 0,1 1,1 0,1 1,1 0,1 1,1 0,1 1,1 0,1 1,1 0,1 1,1 0,2 -1,1 0,1 1,1 0,1 1,1 0,1 1,1 2,0 1,1 0,1 1,1 0,1 1,1 1,1 0,1 1,1 0,1 1,1 3,0 1,-1 1,0 1,-1 2,0 1,-1 2,0 1,-1 1,-1 2,0 1,-1 3,0 1,-1 2,0 1,-1 3,0 1,-1 0,-3 -1,-1 0,-1 -1,-1 0,-2 1,-1 0,-1 1,-1 1,0 1,-1 1,0 1,-1 3,0 1,1 1,0 0,-2 1,-1 1,0 1,-1 3,0 1,-1 1,0 0,-5 1,-1 -1,-1 0,-3Z"/>
<path onmouseover="hoverPath(evt)" onmouseout="recoverPath(evt)" fill="rgb(238,236,227)" d="M  77,22l 0,0 1,1 0,1 1,1 0,1 1,1 0,1 1,1 0,1 1,0 1,1 1,0 0,-2 1,-1 3,0 1,1 1,0 0,-2 1,-1 1,0 1,-1 1,0 1,-1 1,-1 1,0 0,-2 1,-1 1,-1 3,0 1,1 1,1 2,0 1,-1 2,0 1,1 0,1 3,0 1,-1 1,0 1,-1 2,0 1,-1 3,0 1,-1 7,0 1,1 0,1 1,1 0,2 1,1 0,1 1,1 0,1 1,1 0,1 1,1 0,2 1,1 0,1 1,1 0,1 1,1 0,2 1,1 0,1 1,1 0,1 1,0 1,-1 2,0 0,-1 -1,-1 0,-2 -1,-1 0,-2 1,-1 -1,-1 0,-2 -1,-1 0,-1 -2,0 -1,-1 0,-2 1,-1 0,-1 -1,-1 0,-1 -2,0 -1,-1 0,-2 1,-1 0,-1 -1,-1 0,-1 -2,0 -1,-1 0,-2 1,-1 0,-1 -1,-1 0,1 -1,1 -5,0 -1,-1 -1,-1 -1,-1 0,-1 -1,-1 -1,-1 0,-1 -1,-1 -1,-1 0,-2 -27,0 0,2 1,1 0,2 -1,1 0,5 -1,1 -1,0 -1,1 -3,0 -1,1 -1,0 0,2 -1,1 -3,0 -1,-1 -1,0 -1,1 -1,0 -1,1 -1,0 0,1 -1,1 1,1 0,1Z"/>
<path onmouseover="hoverPath(evt)" onmouseout="recoverPath(evt)" fill="rgb(242,240,231)" d="M  111,125l 0,9 1,1 1,1 0,2 -1,1 -9,0 -1,1 -5,0 0,3 1,1 0,1 1,1 0,1 1,1 0,1 1,1 1,0 1,1 0,1 14,0 0,-4 1,-1 2,0 1,1 0,1 1,1 0,1 1,1 28,0 1,-1 1,0 0,-3 1,-1 0,-14 1,-1 0,-10 -1,-1 -2,0 -1,1 -6,0 -1,-1 -13,0 -1,1 -17,0 -1,1 -1,0Z"/>
<path onmouseover="hoverPath(evt)" onmouseout="recoverPath(evt)" fill="rgb(243,242,236)" d="M  134,0l -12,0 0,1 1,1 0,0 1,1 0,1 1,1 1,1 0,1 1,1 1,1 3,0 0,-1 -1,-1 0,-2 1,-1 2,0 1,1 0,1 1,1 0,1 1,1 0,2 1,1 0,1 1,1 0,1 1,1 0,2 1,1 0,1 1,1 0,1 1,1 0,2 1,1 0,1 1,1 0,1 1,1 0,2 1,1 0,1 1,1 0,2 -1,1 0,1 1,1 0,1 2,0 1,1 0,1 1,1 0,1 1,1 0,2 1,1 1,1 0,2 1,1 0,2 1,1 0,1 1,1 0,1 1,1 0,2 1,1 0,1 1,1 0,1 1,1 0,2 1,1 1,0 1,1 0,2 1,1 1,1 1,0 1,1 1,1 2,0 1,1 11,0 1,-1 10,0 1,-1 1,0 1,-1 1,-1 4,0 -1,-1 0,-1 -1,-1 0,-2 -1,-1 0,-1 -1,-1 0,-1 -1,0 -1,1 -4,0 -1,-1 -1,0 -1,-1 -1,-1 0,-1 -1,-1 -1,-1 -1,-1 0,-3 1,-1 3,0 1,1 1,1 1,1 1,1 2,0 1,-1 1,0 1,-1 1,-1 1,0 1,-1 1,-1 1,0 1,-1 1,-1 1,0 1,-1 1,-1 1,0 1,-1 1,-1 1,0 1,-1 1,0 1,-1 1,-1 1,0 1,-1 1,0 1,-1 1,-1 1,0 1,-1 1,-1 1,0 1,-1 9,0 1,-1 2,0 1,-1 1,0 1,-1 1,0 1,-1 1,0 1,-1 1,0 1,-1 1,0 1,-1 2,0 1,-1 3,0 0,-31 -121,0 119,6 0,2 -1,1 -2,0 -1,-1 0,-2 1,-1 2,0 1,1 -119,-6Z"/>
<path onmouseover="hoverPath(evt)" onmouseout="recoverPath(evt)" fill="rgb(242,241,231)" d="M  144,49l 0,1 1,1 0,2 1,1 0,1 1,1 0,2 1,1 0,1 1,1 0,2 1,1 0,1 1,1 0,1 1,1 0,2 1,1 0,1 1,1 0,1 1,1 0,2 1,1 0,1 1,1 0,2 1,1 0,4 1,1 0,13 10,0 1,1 24,0 0,-1 1,-1 0,-5 1,-1 0,-13 -12,0 -1,-1 -12,0 -1,-1 -2,0 -1,-1 -1,-1 -1,0 -1,-1 -1,-1 -1,-1 0,-2 -1,0 -1,-1 -1,-1 0,-2 -1,-1 0,-1 -2,0 -1,-1 0,-2 1,-1 0,-1 -1,-1 0,-1 -2,0 -1,-1 0,-2 1,-1 0,-1 -1,-1 0,-2 -1,-1 -1,-1 0,-2 -1,-1 0,-1 -2,0 -1,-1 -2,0 -1,1 -1,0 0,1 1,1 0,1 1,1Z"/>
<path onmouseover="hoverPath(evt)" onmouseout="recoverPath(evt)" fill="rgb(238,238,231)" d="M  204,61l -1,0 -1,1 0,2 1,1 0,1 1,1 1,1 0,1 1,1 0,1 1,1 0,4 1,1 11,0 1,-1 1,0 1,-1 1,0 1,-1 2,0 1,1 0,3 3,0 1,1 0,2 -1,1 -8,0 -1,-1 -16,0 -1,1 0,2 -1,1 0,7 17,0 1,1 11,0 1,-1 4,0 1,1 0,2 -1,1 -2,0 -1,1 -21,0 -1,-1 -7,0 0,1 1,1 0,1 1,1 5,0 1,1 23,0 1,-1 3,0 1,-1 1,0 1,-1 2,0 1,-1 1,0 1,-1 1,0 1,-1 1,0 1,-1 1,0 1,-1 1,0 0,-56 -1,0 -1,1 -1,0 -1,1 -1,0 -1,1 -1,0 -1,1 -1,0 -1,1 -1,0 -1,1 -1,0 -1,1 -3,0 -1,1 -6,0 -1,1 -2,0 -1,1 -1,0 0,2 1,1 0,0 1,1 1,1 1,1 1,1 0,1 1,1 1,1 1,0 1,1 3,0 1,1 0,2 -1,1 -6,0 -1,-1 -1,-1 -1,-1 -1,-1 -1,-1 -1,-1 0,-1 -1,-1 -1,-1 -1,-1 -1,-1 0,-1 -1,0 -1,1 -1,0 -1,1 -1,1 -1,0 -1,1 -1,0 -2,2 -1,0 -2,2 -1,0 -1,1 -1,1 -1,0 -1,1 41,-16 2,0 1,1 0,2 -1,1 -2,0 -1,-1 0,-2 1,-1 -41,16 35,4 2,0 1,1 0,2 -1,1 -2,0 -1,-1 0,-2 1,-1 -35,-4 37,31 0,-2 1,-1 2,0 1,1 0,2 -1,1 -2,0 -1,-1 -37,-31 46,1 0,2 -1,1 -2,0 -1,-1 0,-2 1,-1 2,0 1,1 -46,-1Z"/>
<path onmouseover="hoverPath(evt)" onmouseout="recoverPath(evt)" fill="rgb(213,225,244)" d="M  226,157l 16,0 1,1 0,11 1,1 0,6 1,1 0,6 1,1 1,0 1,1 0,-6 -1,-1 0,-5 -1,-1 0,-4 -1,-1 0,-4 -1,-1 0,-2 1,-1 2,0 0,-2 -1,-1 0,0 -1,-1 0,-27 1,-1 0,-1 1,-1 -3,0 -1,-1 0,-12 -3,0 0,7 1,1 0,20 1,1 0,15 -16,1 22,-32 0,0 1,-1 6,0 -7,1 -22,32 2,-1 -1,-1 0,-15 -1,-1 0,-13 1,-1 -1,-1 0,31 -1,1 -1,0 -1,1 -17,0 -1,-1 -5,0 4,1 21,0 3,-1 -2,1Z"/>
<path onmouseover="hoverPath(evt)" onmouseout="recoverPath(evt)" fill="rgb(244,243,235)" d="M  0,226l 0,29 163,0 0,-2 1,-1 2,0 1,-1 2,0 1,-1 2,0 1,-1 3,0 1,-1 3,0 1,-1 2,0 1,-1 4,0 1,-1 3,0 1,-1 4,0 1,-1 13,0 1,-1 27,0 1,-1 7,0 0,-2 -1,-1 0,-15 -1,-1 0,-21 1,-1 5,0 1,1 0,15 1,1 0,17 1,1 0,6 1,0 0,-42 -4,0 -251,27 244,-24 -2,0 -1,1 -4,0 -1,-1 -1,0 -1,-1 0,1 -1,1 -2,0 -1,1 -4,0 -1,-1 -3,0 -1,1 0,0 -1,1 -2,0 -1,-1 -4,0 -1,-1 0,1 -1,1 -2,0 -1,1 -3,0 -1,-1 -2,0 -1,1 -1,0 -1,1 -2,0 -1,-1 -1,0 -1,-1 -1,0 -1,1 -1,1 -3,0 -1,1 -2,0 -1,-1 -5,0 -1,1 -1,1 -4,0 -1,-1 -1,0 -1,-1 0,1 -1,1 -2,0 -1,1 -3,0 -1,-1 -2,0 -1,1 -2,0 -1,1 -2,0 -1,-1 -5,0 -1,1 -1,1 -4,0 -1,-1 -1,0 -1,-1 0,1 -1,1 -2,0 -1,1 -4,0 -1,-1 -1,0 -1,-1 0,1 -1,1 -2,0 -1,1 -4,0 -1,-1 -1,0 -1,-1 0,1 -1,1 -2,0 -1,1 -2,0 -1,-1 -3,0 -1,1 -2,0 -1,1 -2,0 -1,-1 0,-2 -1,2 -4,0 -1,1 -1,1 -2,0 -1,-1 -5,0 -1,1 -1,1 -2,0 -1,-1 0,-2 -1,2 -4,0 -1,1 -1,1 -4,0 -1,-1 -1,0 -1,-1 0,1 -1,1 -2,0 -1,1 -2,0 -1,-1 0,-2 -1,2 -4,0 -1,1 -1,0 -1,1 -3,0 -1,-1 -2,0 -1,1 -2,0 -1,1 -2,0 -1,-1 0,-2 -1,1 -1,0 -1,1 -1,1 -2,0 -1,-1 0,-1 -2,0 -1,1 0,0 -1,1 -3,0 -1,1 -2,0 -1,1 -2,0 -1,-1 -3,0 -1,1 -2,0 -1,1 -2,0 -1,-1 0,-2 -1,2 -2,0 -1,-1 -3,0 0,2 244,-23 -244,24 90,-11 0,0 -90,11 153,-17 -153,17 184,-20 0,0 -184,20Z"/>
<path onmouseover="hoverPath(evt)" onmouseout="recoverPath(evt)" fill="rgb(253,253,253)" d="M  28,138l -14,0 -1,1 4,0 12,-1 -1,0 3,-2 0,-2 1,-1 0,-1 -1,0 -1,-1 0,-7 1,-1 1,-1 -2,0 -1,-1 -1,1 0,0 -1,1 -1,0 2,1 0,2 -1,1 -2,0 -1,1 5,0 2,8 -3,2 5,-5 3,0 1,-1 4,0 -11,2 0,1 2,4Z"/>
<path onmouseover="hoverPath(evt)" onmouseout="recoverPath(evt)" fill="rgb(241,240,232)" d="M  91,57l 9,0 1,-1 4,0 1,1 1,0 1,1 0,1 1,1 0,1 1,1 1,1 0,1 1,1 1,1 1,1 0,2 1,1 0,6 -1,1 0,2 -1,1 0,1 -1,1 0,3 1,1 0,3 -1,1 0,12 1,0 1,-1 40,0 0,-11 -1,-1 0,-3 -1,-1 0,-2 -1,-1 0,-2 -1,-1 0,-1 -1,-1 0,-1 -1,-1 0,-2 -1,-1 0,-1 -1,-1 0,-1 -1,-1 0,-2 -1,-1 0,-1 -1,-1 0,-2 -1,-1 0,-1 -1,-1 0,-1 -1,-1 0,-2 -1,-1 0,-1 -1,-1 0,-2 -1,-1 0,-1 -1,-1 0,-2 -1,-1 0,-1 -1,-1 0,-1 -1,-1 0,-1 -1,-1 0,-2 -1,-1 0,-1 -1,-1 0,-1 -1,-1 0,-1 -1,-1 0,-2 -1,-1 0,-4 1,-1 -4,0 -1,1 -3,0 -1,1 -2,0 -1,1 -1,0 -1,1 -5,0 -1,-1 -5,0 -1,-1 -1,-1 -1,0 -1,1 0,2 -1,1 -1,0 -1,1 -1,1 -1,0 -1,1 -1,0 0,2 -1,1 -3,0 -1,-1 -1,0 0,1 1,1 0,3 -1,1 -1,0 -1,1 -4,0 0,3 -1,1 -1,1 -3,0 0,4 -1,1 -1,0 -1,1 -1,1 0,2 1,0 1,-1 1,0 1,-1 3,0 1,1 0,2 2,0 1,1 0,5 6,0 1,-1Z"/>
<path onmouseover="hoverPath(evt)" onmouseout="recoverPath(evt)" fill="rgb(243,241,232)" d="M  248,122l 7,0 0,-9 -10,0 0,10 1,0 1,-1Z"/>
<path onmouseover="hoverPath(evt)" onmouseout="recoverPath(evt)" fill="rgb(242,240,230)" d="M  247,162l 0,4 1,1 0,4 1,1 0,5 1,1 0,6 2,0 1,1 2,0 0,-59 -5,0 -1,1 -1,0 0,1 -1,1 0,25 1,1 0,0 1,1 0,4 -1,1 -1,1Z"/>
<path onmouseover="hoverPath(evt)" onmouseout="recoverPath(evt)" fill="rgb(172,198,233)" d="M  248,202l -1,0 0,19 1,1 0,15 1,1 0,5 6,0 -3,-1 0,-6 -1,-1 0,-17 -1,-1 0,-15Z"/>
<path onmouseover="hoverPath(evt)" onmouseout="recoverPath(evt)" fill="rgb(243,242,233)" d="M  0,143l 0,65 3,0 1,1 0,1 1,-2 2,0 1,-1 1,0 1,-1 2,0 1,1 0,1 8,0 0,-1 1,-1 3,0 1,-1 2,0 1,-1 4,0 1,1 4,0 1,-1 1,0 1,-1 4,0 1,1 1,0 1,1 0,-1 1,-1 2,0 1,-1 4,0 1,1 1,0 1,1 0,-1 1,-1 1,0 1,-1 4,0 1,1 1,0 1,1 0,-1 1,-1 2,0 1,-1 3,0 1,1 1,0 1,1 0,-1 1,-1 1,0 1,-1 2,0 1,1 5,0 1,-1 1,-1 2,0 1,1 0,2 1,-2 2,0 1,-1 2,0 1,-1 2,0 1,1 3,0 1,-1 2,0 1,-1 2,0 1,1 0,2 1,-2 4,0 1,-1 1,-1 4,0 1,1 1,0 1,1 0,-1 1,-1 2,0 1,-1 2,0 1,1 0,1 1,-1 1,0 1,-1 4,0 1,1 0,0 1,-1 2,0 1,1 0,-1 1,-1 2,0 1,-1 4,0 1,1 1,0 1,1 0,-1 1,-1 2,0 1,-1 2,0 1,1 0,1 1,-1 2,0 1,1 3,0 0,-1 1,-1 3,0 1,1 1,0 1,-1 1,0 2,-2 4,0 1,1 2,0 1,-1 2,0 1,-1 4,0 1,1 1,0 1,1 0,-1 1,-1 1,0 1,-1 2,0 1,1 0,1 8,0 0,-1 1,-1 4,0 1,-1 1,0 1,-1 4,0 1,1 4,0 1,-1 1,0 1,-1 2,0 1,1 3,0 1,1 4,0 -2,-1 -1,-1 0,-6 -1,-1 0,-6 -1,-1 0,-11 -38,0 -1,-1 -3,0 -1,-1 -2,0 -1,-1 -37,0 0,1 -1,1 0,26 -1,1 -1,1 -2,0 -1,-1 0,-3 1,-1 0,-24 -1,-1 -40,0 -1,1 -8,0 -1,-1 -2,0 -1,-1 -1,-1 -1,-1 0,-1 -1,-1 0,-1 -1,-1 0,-1 -1,-1 0,-1 -1,-1 0,-1 -1,-1 0,-6 1,-1 2,0 0,-1 1,-1 0,-5 -1,-1 0,-6 1,-1 0,-1 1,-1 1,-1 28,0 1,-1 1,-1 0,-5 -34,0 -1,1 -19,0 0,1 1,1 0,4 -1,1 2,0 1,1 0,2 1,1 0,1 1,1 0,1 1,1 0,1 1,1 0,1 1,1 0,3 -1,1 -2,0 0,2 -1,1 -2,0 -1,-1 -1,0 -1,1 -6,0 -1,-1 0,-2 1,-1 2,0 1,-1 1,-1 1,0 -2,-1 0,-2 1,-1 -1,-1 -2,0 -1,-1 0,-2 1,-1 -1,-1 -2,0 -1,-1 0,-2 1,-1 -1,-1 0,-1 -1,-1 0,-1 -1,-1 0,-1 -1,2 -12,0 -1,1 -9,0 -1,1 -21,0 -1,1 -11,0 -1,1 -4,0 0,19 12,0 1,-1 14,0 0,-1 1,-1 0,-4 -10,0 -1,-1 0,-2 1,-1 5,0 1,-1 2,0 -2,-1 0,-2 1,-1 1,0 2,-2 2,0 1,1 11,0 1,1 0,2 -1,1 -9,0 -1,1 0,5 1,0 1,1 1,-1 7,0 1,1 0,2 -1,1 -4,0 -1,1 -4,0 0,2 5,0 1,1 0,2 -1,1 -9,0 -1,-1 -9,0 -1,1 -18,0 0,2 238,43 -238,-43 105,56 0,0 -105,-56 85,58 -85,-58 82,-1 2,0 1,1 0,2 -1,1 -2,0 -1,-1 0,-2 1,-1 -82,1 88,7 0,2 -1,1 -2,0 -1,-1 0,-2 1,-1 2,0 1,1 -88,-7Z"/>
<path onmouseover="hoverPath(evt)" onmouseout="recoverPath(evt)" fill="rgb(242,231,139)" d="M  33,105l -4,0 -1,1 -20,0 -1,-1 0,1 -1,1 -6,0 0,9 3,0 1,-1 11,0 1,-1 21,0 1,-1 9,0 1,-1 12,0 0,-1 1,-1 1,0 1,-1 3,0 1,1 0,1 1,1 0,1 1,1 0,-4 1,-1 3,0 1,1 18,0 1,-1 35,0 1,-1 2,0 1,1 40,0 1,1 31,0 1,1 4,0 1,-1 2,0 1,1 25,0 1,-1 5,0 1,1 10,0 0,-5 -3,0 -1,-1 -2,0 -1,-1 -1,1 0,0 -1,1 -1,1 -4,0 -1,-1 -2,0 -1,1 -27,0 -1,-1 -2,0 -1,-1 -1,0 -1,1 -3,0 -1,-1 -5,0 -1,-1 -25,0 -1,-1 -9,0 0,1 -1,1 -3,0 -1,-1 0,-1 -39,0 -1,1 -3,0 -1,-1 -14,0 -1,1 -28,0 0,1 -1,1 -2,0 -1,-1 -4,0 -1,-1 0,-2 -1,2 -12,0 -1,1Z"/>
<path onmouseover="hoverPath(evt)" onmouseout="recoverPath(evt)" fill="rgb(250,250,246)" d="M  71,135l -1,1 2,0 1,-1 3,0 1,1 0,-2 1,-1 2,0 0,-1 -1,-1 0,-1 -1,-1 0,-1 -1,-1 0,-1 -1,-1 0,-1 -1,-1 0,-2 -2,0 -1,-1 0,-2 1,-1 0,-2 -1,-1 0,-3 -1,0 0,4 -1,1 -2,0 -1,-1 -1,-1 0,-1 -1,-1 0,-1 -1,0 0,1 1,1 0,1 1,1 0,1 1,1 0,2 -1,1 2,0 1,1 1,1 0,2 -1,1 2,0 1,1 1,1 0,2 -1,1 1,0 1,1 0,2 -1,1 -1,0 -1,1Z"/>
<path onmouseover="hoverPath(evt)" onmouseout="recoverPath(evt)" fill="rgb(253,253,253)" d="M  77,27l 0,-1 -1,-1 0,3 -1,1 2,0 1,1 1,1 0,3 -1,1 -2,0 -1,1 -2,0 -1,1 -2,0 -1,1 -2,0 -1,1 -2,0 -1,1 -2,0 -1,1 -2,0 -1,1 -1,0 -1,1 -2,0 -1,1 -2,0 -1,1 -2,0 -1,1 -1,0 -1,1 -3,0 -1,1 -5,0 -1,-1 0,-1 -1,-1 0,-1 -1,-1 0,-1 -1,-1 -1,-1 0,-1 -1,-1 0,-1 -1,-1 0,-1 -1,-1 -1,-1 0,-1 -1,-1 0,-1 -1,-1 0,-1 -1,-1 0,-1 -1,-1 0,-1 -1,-1 0,-1 -1,-1 0,-1 -1,-1 0,-1 -1,-1 0,-1 -1,-1 0,-1 -1,-1 0,-1 -1,-1 0,-1 -1,-1 0,-1 -1,-1 0,-1 -1,-1 -1,-1 0,-1 -1,-1 0,-2 -2,0 0,1 1,1 0,1 1,1 1,1 0,1 1,1 1,1 0,1 1,1 0,1 1,1 0,1 1,1 0,1 1,1 0,1 1,1 0,1 1,1 0,1 1,1 0,1 1,1 0,1 1,1 0,1 1,1 0,1 1,1 0,1 1,1 0,1 1,1 0,1 1,1 0,1 1,1 1,1 0,1 1,1 0,1 1,1 0,1 1,1 1,1 0,1 1,1 0,1 1,1 0,1 1,1 0,1 1,1 1,1 0,1 1,1 0,2 1,1 0,1 1,1 0,1 1,1 0,1 1,1 0,1 1,1 0,2 1,1 2,0 1,-1 -2,0 -1,-1 0,-1 -1,-1 0,-1 -1,-1 0,-1 -1,-1 0,-2 -1,-1 0,-1 -1,-1 0,-1 -1,-1 0,-1 -1,-1 0,-4 1,-1 2,0 1,-1 2,0 1,-1 2,0 1,-1 3,0 1,1 0,-2 1,-1 2,0 1,-1 1,0 1,-1 3,0 1,-1 2,0 1,-1 2,0 1,-1 2,0 1,-1 5,0 1,1 0,1 1,-1 0,-3 1,-1 4,0 1,-1 1,0 0,-1 -3,0 -1,-1 -1,0 -3,-5 2,3 -1,-1Z"/>
<path onmouseover="hoverPath(evt)" onmouseout="recoverPath(evt)" fill="rgb(254,254,254)" d="M  129,23l 0,1 1,1 0,2 1,1 0,1 1,1 0,1 1,1 0,1 1,1 0,2 1,1 0,1 1,1 0,1 1,1 0,1 1,1 0,2 1,1 0,1 1,1 0,2 1,1 0,1 1,1 0,2 1,1 0,1 1,1 0,1 1,1 0,2 1,1 0,1 1,1 0,2 1,1 0,1 1,1 0,1 1,1 0,2 1,1 0,1 1,1 0,1 1,1 0,2 1,1 0,2 1,1 0,3 1,1 0,14 1,0 0,-14 -1,-1 0,-4 -1,-1 0,-2 -1,-1 0,-1 -1,-1 0,-2 -1,-1 0,-1 -1,-1 0,-1 -1,-1 0,-2 -1,-1 0,-1 -1,-1 0,-1 -1,-1 0,-2 -1,-1 0,-1 -1,-1 0,-2 -1,-1 0,-1 -1,-1 0,-2 -1,-1 0,-1 -1,-1 0,-1 -1,-1 0,-2 -1,-1 0,-1 -1,-1 0,-1 -1,-1 0,-2 -1,-1 0,-1 -1,-1 0,-1 -1,-1 0,-2 -1,-1 0,-1 -1,-1 0,-1 -1,-1 0,-1 -1,-1 -1,-1 1,-1Z"/>
<path onmouseover="hoverPath(evt)" onmouseout="recoverPath(evt)" fill="rgb(250,249,247)" d="M  131,119l 0,0 -1,-1 -1,0 -1,1 -1,1 -28,0 -1,1 0,1 -1,1 0,4 1,1 0,7 -1,1 0,1 -1,1 5,0 1,-1 9,0 -1,-1 0,0 -1,-1 0,-13 1,-1 1,0 20,-2 -36,19 -1,0 0,4 1,1 0,1 1,1 0,1 1,1 0,1 1,1 0,1 1,1 0,1 1,1 1,1 2,0 1,1 6,0 1,-1 42,0 1,1 1,1 1,0 0,-1 1,-1 38,0 -37,-1 -1,0 -1,-1 -1,-1 0,1 -1,1 -1,0 -58,-15 36,-19 -24,35 -3,0 -3,-1 0,-1 -1,0 -5,-10 0,-3 12,15 24,-35 -3,1 1,0 1,-1 -1,0 1,-2 0,-7 9,9 6,0 1,1 -18,0 3,-1 -11,33 0,-1 -1,-1 0,2 1,0 11,-33 24,63 -1,1 0,1 1,-1Z"/>
<path onmouseover="hoverPath(evt)" onmouseout="recoverPath(evt)" fill="rgb(244,232,139)" d="M  191,247l -1,0 -1,1 -4,0 -1,1 -2,0 -1,1 -3,0 -1,1 -3,0 -1,1 -2,0 -1,1 -2,0 -1,1 -2,0 0,1 28,0 0,-2 1,-1 3,0 1,-1 12,0 1,-1 24,0 1,-1 12,0 1,-1 2,0 1,-1 3,0 0,-2 -7,0 -1,-1 0,-1 -6,0 -1,1 -27,0 -1,1 -13,0 -1,1 -4,0 -1,1Z"/>
<path onmouseover="hoverPath(evt)" onmouseout="recoverPath(evt)" fill="rgb(253,253,253)" d="M  220,79l 2,0 1,1 6,0 -4,-1 0,-3 -1,1 -1,0 -1,1 -1,0 -1,1 -13,0 -1,-1 -2,0 -1,-1 -1,-1 -3,0 -1,1 -1,1 -1,0 -1,1 2,0 1,1 0,15 -1,1 0,5 -1,1 0,1 5,0 1,1 1,0 0,-2 -1,-1 -1,-1 0,-4 1,-1 1,0 1,-1 9,0 1,1 19,0 1,-1 -32,0 -1,-1 0,-9 1,-1 0,-2 1,-1 1,-1Z"/>
<path onmouseover="hoverPath(evt)" onmouseout="recoverPath(evt)" fill="rgb(192,206,215)" d="M  221,103l -9,0 -1,-1 -5,0 -1,-1 -1,-1 0,-1 -1,-1 0,-1 2,5 0,1 2,0 1,1 2,0 1,1 25,0 1,-1 4,0 1,1 2,0 1,-1 1,-1 1,-1 2,0 1,1 2,0 1,1 2,0 0,-9 -1,1 -1,0 -1,1 -1,0 -1,1 -1,0 -1,1 -1,0 -1,1 -2,0 -1,1 -1,0 -1,1 -3,0 -1,1Z"/>
<path onmouseover="hoverPath(evt)" onmouseout="recoverPath(evt)" fill="rgb(218,227,235)" d="M  245,251l -8,0 -1,1 -24,0 -1,1 -12,0 -1,1 -3,0 0,1 60,0 0,-6 -2,0 -1,1 -2,0 -1,1Z"/>
</svg>