<svg width="256" height="256" xmlns="http://www.w3.org/2000/svg"><script> 
var tempColor;
function hoverPath(evt){
obj = evt.target;
tempColor = obj.getAttribute("fill");
obj.setAttribute("fill","red");
//alert(tempColor);
//obj.setAttribute("stroke","red");}
function recoverPath(evt){
obj = evt.target;
obj.setAttribute("fill", tempColor);
//obj.setAttribute("stroke", tempColor);
}</script><path onmouseover="hoverPath(evt)" onmouseout="recoverPath(evt)" fill="rgb(243,242,234)" d="M  0,40l 0,9 4,0 1,-1 3,0 1,-1 3,0 1,-1 4,0 1,-1 3,0 1,-1 3,0 1,-1 3,0 1,-1 4,0 1,-1 3,0 1,-1 3,0 1,-1 4,0 1,-1 1,0 0,-2 1,-1 0,-1 -1,-1 0,-3 -1,-1 0,-1 -5,0 -1,-1 -3,0 -1,1 -3,0 0,2 -1,1 -5,0 -1,-1 -3,0 -1,1 -4,0 -1,1 -3,0 -1,1 -4,0 -1,1 -4,0 -1,1 -5,0Z"/>
<path onmouseover="hoverPath(evt)" onmouseout="recoverPath(evt)" fill="rgb(244,242,235)" d="M  0,56l 0,21 2,0 1,1 0,-1 1,-1 2,0 1,-1 6,0 1,1 0,-1 1,-1 1,-1 8,0 1,1 0,-1 1,-1 1,-1 8,0 1,1 0,-1 1,-1 1,-1 8,0 1,1 0,-1 1,-1 4,0 1,1 0,-1 1,-1 4,0 1,1 0,-4 -1,-1 0,-2 -1,-1 0,-3 -1,-1 0,-2 -1,-1 0,-3 -1,-1 0,-2 -1,-1 0,-2 -1,-1 0,-1 -1,1 -2,0 -1,1 -3,0 -1,1 -3,0 -1,1 -3,0 -1,1 -3,0 -1,1 -3,0 -1,1 -3,0 -1,1 -3,0 -1,1 -4,0 -1,1 -3,0 -1,1 -3,0 -1,1 -3,0 -1,1 -2,0 -1,1Z"/>
<path onmouseover="hoverPath(evt)" onmouseout="recoverPath(evt)" fill="rgb(244,243,235)" d="M  0,140l 0,56 5,0 1,-1 8,0 1,-1 12,0 1,-1 12,0 1,-1 10,0 1,-1 8,0 1,-1 8,0 1,-1 7,0 1,-1 10,0 1,-1 1,0 0,-3 -1,-1 0,-6 -1,-1 0,-6 -1,-1 0,-5 -1,-1 0,-5 -1,-1 0,-5 -1,-1 0,-4 -1,-1 0,-4 -1,-1 0,-4 -1,-1 0,-2 -1,-1 0,-3 -1,-1 0,-3 -1,-1 0,-1 -1,-1 0,-2 -1,1 -2,0 -1,1 -3,0 -1,1 -4,0 -1,1 -3,0 -1,1 -3,0 -1,1 -4,0 -1,1 -3,0 -1,1 -3,0 -1,1 -4,0 -1,1 -3,0 -1,1 -3,0 -1,1 -3,0 -1,1 -3,0 -1,1 -3,0 -1,1 -3,0 -1,1 -5,0 -1,1 -4,0 -1,1 -2,0 -1,1Z"/>
<path onmouseover="hoverPath(evt)" onmouseout="recoverPath(evt)" fill="rgb(242,233,147)" d="M  0,252l 0,3 50,0 0,-3 1,-1 14,0 1,1 9,0 1,-1 11,0 1,-1 18,0 1,1 0,4 22,0 0,-6 1,-1 5,0 1,-1 13,0 1,-1 13,0 1,-1 14,0 1,-1 21,0 1,-1 16,0 1,-1 4,0 -1,-1 0,-4 -17,0 -1,1 -21,0 -1,1 -13,0 -1,1 -5,0 -1,1 -3,0 -1,-1 -5,0 -1,1 -13,0 -1,1 -15,0 -1,1 -10,0 0,1 -1,1 -11,0 -1,-1 -8,0 -1,1 -11,0 -1,1 -10,0 -1,1 -15,0 -1,1 -1,0 -1,1 -2,0 -1,-1 -10,0 -1,1 -5,0 -1,1 -3,0 -1,-1 -5,0 -1,1 -18,0Z"/>
<path onmouseover="hoverPath(evt)" onmouseout="recoverPath(evt)" fill="rgb(243,242,234)" d="M  105,30l -1,0 0,2 -1,1 -2,0 -1,-1 -1,-1 0,-2 -1,-1 0,-1 -1,-1 0,-3 -1,-1 0,-2 -1,-1 -5,0 0,2 -1,1 1,1 0,3 1,1 0,2 1,1 0,2 1,1 0,2 1,1 0,1 1,1 0,2 1,1 0,1 1,1 0,2 1,1 0,1 1,1 0,1 1,1 0,2 1,1 0,1 1,1 0,2 1,1 0,1 1,0 1,-1 3,0 0,-1 1,-1 1,0 0,-2 1,-1 2,0 1,1 0,1 1,1 0,1 1,0 1,-1 1,0 1,-1 7,0 0,-1 1,-1 4,0 0,-2 1,-1 2,0 1,1 0,-1 1,-1 0,0 1,-1 1,0 1,-1 1,0 1,-1 1,0 1,-1 1,-1 1,0 0,-1 1,-1 2,0 0,-1 1,-1 2,0 0,-1 1,-1 2,0 1,-1 0,-1 1,-1 2,0 0,-1 1,-1 2,0 0,-1 1,-1 1,-1 2,0 1,-1 0,-1 1,-1 1,-1 1,-1 1,-1 1,-1 1,-1 1,-1 1,-1 1,0 0,-2 -1,0 -1,-1 -2,0 -1,1 -5,0 -1,-1 -3,0 -1,1 -4,0 -1,1 -4,0 -1,1 -5,0 -1,1 -4,0 -1,1 -5,0 -1,1 -5,0 -1,1 -4,0 -1,1 -4,0 -1,1 -4,0 -1,1 -4,0 0,2 -1,1 -2,0 5,20 -2,0 -1,-1 0,-2 1,-1 2,0 1,1 0,2 -1,1 -5,-20Z"/>
<path onmouseover="hoverPath(evt)" onmouseout="recoverPath(evt)" fill="rgb(185,153,237)" d="M  186,91l -10,0 -1,-1 -1,0 -1,-1 0,-1 -1,-1 -1,0 -1,-1 0,-3 -1,-1 0,-2 1,-1 0,-2 1,-1 2,-2 1,-1 0,-1 1,-1 3,0 1,-1 2,0 1,1 2,0 1,-1 2,0 1,1 5,0 1,1 1,1 0,10 -1,1 0,1 -1,1 -1,0 0,1 -1,1 -1,0 -1,1 -1,1 -1,1 -1,0 -16,3 1,1 1,1 1,1 1,1 1,1 1,1 0,2 1,0 1,1 1,1 0,2 1,-1 2,0 1,1 1,1 1,1 0,1 1,0 1,1 0,1 1,1 1,1 1,0 1,1 1,1 0,2 1,1 1,0 1,1 1,1 0,2 1,1 0,1 1,1 0,1 1,1 0,1 2,0 1,1 0,4 1,1 0,4 1,1 0,2 1,1 0,2 1,1 1,1 0,4 2,0 1,1 0,1 1,1 0,3 -1,1 0,2 1,1 0,4 1,1 0,3 1,0 1,1 0,2 -1,1 0,2 1,0 1,1 0,3 -1,1 0,4 1,1 0,3 1,0 1,1 0,3 -1,1 0,5 1,1 0,3 1,0 1,1 0,2 -1,1 0,5 1,1 0,3 1,0 1,1 0,2 -1,1 0,8 1,1 0,3 1,1 0,4 1,1 0,4 1,1 0,10 1,1 0,2 -1,1 12,0 0,-4 -1,0 -1,-1 0,-3 1,-1 0,-1 1,-1 -1,0 -1,-1 0,-10 -1,-1 0,-2 -1,0 -1,-1 0,-3 1,-1 0,-4 -1,-1 0,-5 -1,-1 0,-3 -1,0 -1,-1 0,-3 1,-1 0,-4 -1,-1 0,-3 -1,0 -1,-1 0,-3 1,-1 0,-2 -1,0 -1,-1 0,-3 1,-1 0,-4 -1,-1 0,-3 -1,0 -1,-1 0,-3 1,-1 0,-5 -1,-1 0,-6 -1,-1 0,-8 -1,-1 -1,0 -1,-1 0,-3 1,-1 0,-2 -1,0 -1,-1 0,-2 1,-1 0,-5 -1,-1 0,-3 -1,0 -1,-1 0,-3 1,-1 0,-4 -1,-1 0,-7 -1,-1 0,-2 1,-1 0,-5 -1,-1 0,-2 1,-1 0,-3 1,-1 1,-1 3,0 1,-1 3,0 1,-1 3,0 1,-1 4,0 1,-1 3,0 1,-1 3,0 1,-1 4,0 1,-1 3,0 1,-1 3,0 0,-2 -2,0 -1,1 -4,0 -1,1 -3,0 -1,1 -4,0 -1,1 -3,0 -1,1 -4,0 -1,1 -4,0 -1,1 -4,0 -1,-1 0,-3 -1,-1 0,-3 1,-1 2,0 0,-1 1,-1 0,-2 1,-1 1,0 0,-2 1,-1 1,-1 1,0 1,-1 0,-2 1,-1 1,-1 1,-1 1,-1 1,-1 2,0 1,-1 0,-1 1,-1 1,-1 2,0 1,-1 0,-1 1,-1 2,0 0,-1 1,-1 2,0 0,-1 1,-1 1,0 1,-1 1,0 1,-1 3,0 0,-29 -6,0 -1,-1 0,-2 -1,0 -1,-1 -1,0 -1,-1 -2,0 -1,-1 0,-1 -2,0 -1,-1 0,-1 -2,0 -1,-1 0,-1 -2,0 -1,-1 0,-1 -1,-1 -2,0 -1,-1 -1,-1 0,-1 -2,0 -1,-1 0,-1 -1,-1 -1,-1 -1,-1 -1,-1 0,-2 -9,0 1,1 1,0 1,1 1,1 1,1 0,3 -1,1 -3,0 -1,1 -3,0 -1,1 -1,1 -2,0 -1,1 -2,0 -1,-1 -1,0 -1,-1 0,-3 1,-1 0,-6 -16,0 0,1 1,1 0,2 -1,1 -1,1 -1,1 1,1 0,2 -1,1 0,3 -1,1 0,1 -1,1 -2,0 -1,-1 -1,0 2,2 0,3 -1,1 -1,0 -1,1 -1,1 -2,2 -1,1 -1,1 -1,1 0,1 -1,1 -1,1 -2,0 -1,1 0,1 -1,1 -2,0 0,1 -1,1 -2,0 0,1 -1,1 -1,1 -2,0 0,1 -1,1 -2,0 0,1 -1,1 -2,0 0,1 -1,1 -1,0 -1,1 -1,1 -1,0 -1,1 -1,0 -1,1 -1,0 -1,1 0,1 -1,1 -2,0 -1,-1 0,2 -1,1 -4,0 0,1 -1,1 -7,0 -1,1 -1,0 -1,1 -3,0 -1,-1 0,-1 -1,-1 0,1 -1,1 -1,0 0,1 -1,1 -3,0 -1,1 -3,0 -1,-1 0,-1 -1,-1 0,-2 -1,-1 0,-1 -1,-1 0,-2 -1,-1 0,-1 -1,-1 0,-1 -1,-1 0,-2 -1,-1 0,-1 -1,-1 0,-2 -1,-1 0,-1 -1,-1 0,-2 -1,-1 0,-2 -1,-1 0,-2 -1,-1 0,-3 -1,-1 0,-2 1,-1 0,-2 1,-1 7,0 1,1 1,1 0,-3 1,-1 -2,0 -1,1 -2,0 76,78 16,-3 -17,3 -1,0 -1,-1 -1,-2 0,1 -1,-2 -2,0 6,4 17,-3 -100,-74 -1,-1 0,-3 -1,-1 0,-3 -1,-1 0,-3 -1,-1 0,-4 -3,0 0,3 1,1 0,3 1,1 0,2 1,1 0,4 1,1 0,2 -1,1 2,0 1,1 0,5 1,1 0,6 -1,1 -5,0 -1,1 -2,0 -1,1 -5,0 -1,1 -4,0 -1,1 -3,0 -1,1 -4,0 0,1 2,0 3,-1 2,0 2,-1 2,0 3,-1 2,0 4,-1 3,-1 2,0 4,-1 1,1 1,1 0,2 1,1 0,3 1,1 0,2 1,1 0,2 1,1 0,1 1,1 0,1 1,1 0,1 1,1 0,1 1,1 0,1 1,1 0,3 -1,1 -1,0 -1,1 -3,0 0,1 -1,1 -2,0 -1,-1 -2,0 0,1 -1,1 -2,0 -1,-1 -2,0 0,1 -1,1 -2,0 -1,-1 -4,0 -1,1 -2,0 -1,1 -6,0 0,1 -1,1 -2,0 -1,-1 -2,0 0,1 -1,1 -2,0 -1,-1 -2,0 0,1 -1,1 -2,0 -1,-1 -6,0 -1,1 0,1 -1,1 -2,0 -1,-1 -6,0 -1,1 0,1 -1,1 -2,0 -1,-1 -6,0 -1,1 0,1 -1,1 -2,0 -1,-1 -4,0 -1,1 -2,0 0,1 -1,1 -2,0 -1,-1 -1,0 0,58 2,0 1,-1 4,0 1,-1 5,0 1,-1 3,0 1,-1 3,0 1,-1 3,0 1,-1 3,0 1,-1 3,0 1,-1 3,0 1,-1 4,0 1,-1 3,0 1,-1 3,0 1,-1 4,0 1,-1 3,0 1,-1 3,0 1,-1 4,0 1,-1 3,0 1,-1 2,0 1,-1 0,-1 -4,0 -1,1 -4,0 -1,1 -3,0 -1,1 -3,0 -1,1 -3,0 -1,1 -3,0 -1,1 -4,0 -1,1 -3,0 -1,1 -4,0 -1,1 -4,0 -1,1 -3,0 -1,1 -3,0 -1,1 -3,0 -1,1 -3,0 -1,1 -3,0 -1,-1 -1,-1 0,-2 -1,-1 0,-2 -1,-1 0,-3 -1,-1 0,-2 -1,-1 0,-2 -1,-1 0,-2 -1,-1 0,-2 -1,-1 0,-3 -1,-1 0,-2 -1,-1 0,-2 85,-82 100,74 -185,2 0,-1 1,-1 2,0 1,1 1,0 0,-1 1,-1 2,0 1,1 3,0 1,-1 5,0 1,-1 2,0 0,-1 1,-1 2,0 1,1 5,0 1,-1 3,0 1,-1 4,0 1,-1 4,0 1,-1 5,0 1,-1 5,0 1,-1 8,0 1,-1 2,0 1,1 1,-1 1,-1 5,0 1,-1 3,0 1,-1 5,0 1,-1 5,0 1,-1 6,0 1,-1 2,0 0,-1 1,-1 6,0 1,1 2,0 1,1 6,0 1,-1 2,0 1,1 7,0 1,1 5,0 1,1 1,1 2,0 1,1 2,0 1,1 3,0 1,1 1,1 1,0 1,1 1,0 1,1 2,0 1,1 1,0 1,1 0,1 2,0 -160,6 185,-2 -8,-67 1,-1 1,-1 1,0 0,-2 1,-1 0,-1 1,-1 0,-1 1,-1 4,0 1,1 0,5 1,1 0,5 1,1 0,2 -1,1 0,1 -1,1 -2,0 -1,-1 -3,0 -1,1 -3,0 -2,2 -2,0 -1,-1 -1,-1 0,-2 1,-1 1,-1 1,-1 1,-1 1,-1 0,-2 8,67 12,27 -1,-1 0,-2 -1,-1 -1,0 -1,-1 -1,-1 -1,-1 0,-2 -1,-1 -1,-1 -1,-1 0,-3 1,-1 3,0 1,-1 9,0 1,1 0,3 -1,1 0,4 1,1 0,3 1,0 1,1 0,3 -1,1 0,1 -1,1 -3,0 -1,-1 0,-1 -1,0 -1,-1 -12,-27 22,-77 1,0 1,-1 1,0 1,-1 4,0 1,1 5,0 1,1 1,0 1,1 0,1 1,1 1,0 1,1 0,1 1,1 0,5 -1,1 0,2 -1,1 0,2 -1,1 -2,0 0,2 -1,1 -4,0 -1,-1 -3,0 -1,1 -2,0 -1,-1 -1,0 -1,1 -4,0 -1,-1 0,-2 -1,-1 0,-13 1,-1 1,0 1,-1 1,-1 1,-1 -22,77Z"/>
<path onmouseover="hoverPath(evt)" onmouseout="recoverPath(evt)" fill="rgb(244,243,236)" d="M  237,68l -1,1 -2,0 -1,1 -1,1 -1,1 -1,1 0,2 -1,1 -1,1 -1,0 -1,1 0,2 -1,1 -1,0 0,2 -1,1 0,1 -1,1 -2,0 0,1 1,1 0,3 2,0 1,-1 4,0 1,-1 4,0 1,-1 3,0 1,-1 4,0 1,-1 3,0 1,-1 4,0 1,-1 3,0 0,-28 -2,0 -1,1 -1,0 -1,1 -1,0 0,1 -1,1 -2,0 0,1 -1,1 -2,0 0,1 -1,1 -1,1 -2,0 -1,1 0,1 -1,1Z"/>
<path onmouseover="hoverPath(evt)" onmouseout="recoverPath(evt)" fill="rgb(244,242,236)" d="M  238,244l 0,1 -1,1 0,1 -1,1 0,1 1,0 1,1 0,5 17,0 0,-12 -8,0 -1,1Z"/>
<path onmouseover="hoverPath(evt)" onmouseout="recoverPath(evt)" fill="rgb(243,242,234)" d="M  0,1l 0,32 4,0 1,-1 4,0 1,-1 4,0 1,-1 3,0 1,-1 4,0 1,-1 5,0 1,1 3,0 0,-2 1,-1 3,0 1,-1 4,0 1,-1 3,0 0,-4 -1,-1 0,-2 -1,-1 0,-2 -1,-1 0,-2 -1,-1 0,-3 -1,-1 0,-2 -1,-1 0,-3 -39,0 -1,1Z"/>
<path onmouseover="hoverPath(evt)" onmouseout="recoverPath(evt)" fill="rgb(243,242,233)" d="M  22,202l 0,0 1,1 0,5 1,1 0,2 1,1 0,1 1,1 0,3 1,1 0,4 1,1 0,10 1,1 0,6 1,1 0,5 -1,1 4,0 1,-1 12,0 1,1 1,-1 1,0 0,-11 -1,-1 0,-12 -2,0 -1,-1 0,-12 -1,-1 0,-8 -1,-1 0,-1 -12,0 -1,1 -12,0 -1,1 3,0 1,1 1,1Z"/>
<path onmouseover="hoverPath(evt)" onmouseout="recoverPath(evt)" fill="rgb(225,234,246)" d="M  42,1l 0,1 1,1 0,2 1,1 0,3 1,1 0,2 1,1 0,2 1,1 0,2 1,1 0,6 -1,1 2,0 1,1 0,1 1,1 0,3 1,1 0,3 -1,1 0,2 -1,1 -1,0 -1,1 -4,0 -1,1 -3,0 -1,1 -3,0 -1,1 -4,0 -1,1 -3,0 -1,1 -3,0 -1,1 -3,0 -1,1 -4,0 -1,1 -3,0 -1,1 -3,0 -1,1 -5,0 0,2 2,0 1,-1 3,0 1,-1 3,0 1,-1 3,0 1,-1 4,0 1,-1 3,0 1,-1 3,0 1,-1 3,0 1,-1 3,0 1,-1 3,0 1,-1 3,0 1,-1 3,0 -16,3 -4,1 -4,1 -4,1 -5,1 -4,1 -4,1 36,-50 11,34 0,-2 -1,-1 0,-6 1,-1 1,0 1,-1 -4,0 -1,-1 0,-1 -1,-1 0,-2 -1,-1 0,-3 1,-1 0,-1 -2,0 -1,-1 0,-3 -1,-1 0,-3 1,-1 0,-1 -1,-1 0,-2 -3,0 11,35 -11,-34 12,35 0,1 1,1 0,2 -1,1 0,1 1,1 0,2 1,1 0,2 1,1 0,3 1,1 0,2 1,1 0,3 1,1 0,2 1,1 0,3 2,0 0,-1 -1,-1 0,-2 -1,-1 0,-2 -1,-1 0,-2 -1,-1 0,-2 -1,-1 0,-3 -1,-1 0,-2 -1,-1 0,-4 4,18 0,0 1,3 -7,-26 -12,-35Z"/>
<path onmouseover="hoverPath(evt)" onmouseout="recoverPath(evt)" fill="rgb(243,242,233)" d="M  47,1l 1,1 0,3 -1,1 0,1 1,1 0,3 2,0 1,1 0,3 -1,1 0,1 1,1 0,2 1,1 0,1 7,0 1,1 0,2 -1,1 -3,0 -1,1 -1,0 0,4 1,1 0,2 1,1 0,1 4,0 1,-1 3,0 1,-1 4,0 1,-1 5,0 1,-1 2,0 1,-1 5,0 0,-4 -1,-1 0,-5 -5,0 -1,-1 0,-2 1,-1 3,0 -1,-1 0,-4 -1,-1 0,-2 -1,-1 0,-3 -1,-1 0,-4 -29,0 -1,1Z"/>
<path onmouseover="hoverPath(evt)" onmouseout="recoverPath(evt)" fill="rgb(243,242,235)" d="M  60,41l -2,0 0,3 1,1 0,2 1,1 0,3 1,1 0,2 1,1 0,2 1,1 0,2 1,1 0,2 1,1 0,2 1,0 1,-1 2,0 1,-1 6,0 1,1 0,-1 1,-1 4,0 1,1 0,-1 1,-1 4,0 1,1 0,-1 1,-1 3,0 1,-1 1,0 0,-1 -1,-1 0,-1 -1,-1 0,-1 -1,-1 0,-1 -1,-1 0,-1 -1,-1 0,-1 -1,-1 0,-2 -1,-1 0,-2 -1,-1 0,-3 -1,-1 0,-2 -1,-1 -1,0 -1,1 -4,0 -1,1 -3,0 -1,1 -4,0 -1,1 -3,0 -1,1 -4,0 -1,1Z"/>
<path onmouseover="hoverPath(evt)" onmouseout="recoverPath(evt)" fill="rgb(238,237,222)" d="M  94,160l 0,-6 -1,-1 0,-7 -1,-1 0,-6 -1,-1 0,-6 -1,-1 0,-5 -1,-1 0,-5 -1,-1 -2,0 -1,1 -2,0 0,3 1,1 0,3 1,1 0,2 1,1 0,3 1,1 0,3 1,1 0,5 1,1 0,4 1,1 0,4 1,1 0,5 1,1 0,5 1,1 0,6 1,1 0,6 1,1 0,5 3,0 0,-3 -1,-1 0,-6 -1,-1 0,-6 -1,-1 0,-7 -1,-1Z"/>
<path onmouseover="hoverPath(evt)" onmouseout="recoverPath(evt)" fill="rgb(244,243,235)" d="M  96,117l 0,2 1,1 0,9 1,1 0,7 1,1 0,7 1,1 0,5 1,1 0,6 1,1 0,5 1,1 0,6 1,1 0,5 1,1 0,5 1,1 0,2 1,0 1,-1 9,0 1,-1 8,0 1,-1 9,0 1,-1 9,0 1,-1 6,0 0,-36 1,-1 2,0 1,1 0,20 1,1 0,23 1,1 0,20 1,1 0,11 1,1 0,9 1,1 0,5 4,0 1,-1 13,0 1,-1 21,0 1,-1 17,0 0,-3 -1,-1 0,-3 -1,-1 0,-10 1,-1 -1,0 -1,-1 0,-3 -1,-1 0,-7 1,-1 -1,0 -1,-1 0,-3 -1,-1 0,-7 1,-1 0,-1 -1,0 -1,-1 0,-3 -1,-1 0,-6 1,-1 0,-1 -1,0 -1,-1 0,-4 1,-1 -1,0 -1,-1 0,-3 -1,-1 0,-4 -1,-1 0,-4 1,-1 0,-1 -1,-1 0,-1 -2,0 -1,-1 0,-4 -1,-1 -1,-1 0,-2 -1,-1 0,-2 -1,-1 0,-4 -1,-1 0,-4 -2,0 -1,-1 0,-1 -1,-1 0,-1 -1,-1 0,-1 -1,-1 0,-2 -1,-1 -1,0 -1,-1 -1,-1 0,-2 -1,-1 -1,0 -1,-1 -1,-1 -1,-1 0,-1 -1,0 -1,-1 0,-1 -1,-1 -1,-1 -1,1 -6,0 -1,1 -4,0 -1,1 -4,0 -1,1 -3,0 -1,1 -4,0 -1,1 -4,0 -1,1 -5,0 -1,1 -6,0 -1,1 -4,0 -1,-1 -5,0 -1,-1 -2,0 -1,-1 -3,0 -1,-1 -2,0 -1,1 -4,0 -1,1 -3,0 -1,1 -5,0 -1,1 -3,0 -1,1Z"/>
<path onmouseover="hoverPath(evt)" onmouseout="recoverPath(evt)" fill="rgb(171,198,237)" d="M  101,193l 0,2 1,1 0,7 1,1 0,7 1,1 0,6 1,1 0,6 1,1 0,12 1,1 0,4 2,0 0,-14 1,-1 0,-20 -1,-1 0,0 -1,-1 0,-1 -1,-1 0,-1 -1,-1 0,-5 -1,-1 0,-4 -3,0 -1,1Z"/>
<path onmouseover="hoverPath(evt)" onmouseout="recoverPath(evt)" fill="rgb(243,242,234)" d="M  107,193l 0,2 1,1 0,5 1,1 0,1 1,1 0,1 1,1 1,1 0,22 -1,1 0,11 9,0 1,-1 15,0 1,-1 13,0 1,-1 6,0 0,-1 -1,-1 0,-11 -1,-1 0,-10 -1,-1 0,-19 -1,-1 0,-6 -1,-1 -3,0 -1,1 -8,0 -1,1 -9,0 -1,1 -8,0 -1,1 -8,0 -1,1 -4,0Z"/>
<path onmouseover="hoverPath(evt)" onmouseout="recoverPath(evt)" fill="rgb(244,243,236)" d="M  108,77l 0,3 1,1 0,5 1,1 0,5 1,1 0,5 1,1 0,5 1,1 0,1 8,0 1,1 1,0 1,1 1,0 1,1 3,0 1,1 7,0 1,-1 5,0 1,-1 4,0 1,-1 5,0 1,-1 3,0 1,-1 3,0 1,-1 3,0 1,-1 3,0 1,-1 3,0 0,-1 -1,-1 0,0 -1,-1 -1,-1 -1,-1 -1,-1 -2,0 -1,-1 -1,-1 -1,-1 0,-1 -2,0 -1,-1 -1,-1 0,-1 -2,0 -1,-1 0,-1 -1,0 -1,-1 -2,0 -1,-1 -1,0 -1,-1 -1,0 -1,-1 -1,-1 -3,0 -1,-1 -2,0 -1,-1 -2,0 -1,-1 -1,-1 -5,0 -1,-1 -7,0 -1,-1 -1,1 -8,0 -1,-1 -2,0 -1,-1 -1,0Z"/>
<path onmouseover="hoverPath(evt)" onmouseout="recoverPath(evt)" fill="rgb(241,238,236)" d="M  191,105l 1,1 1,1 1,1 0,2 1,1 1,1 1,0 1,1 1,1 0,2 1,1 1,0 1,1 0,1 1,0 0,-1 1,-1 0,-1 -1,0 -1,-1 0,-3 -1,-1 0,-6 1,-1 0,-1 -7,0 -1,1 -2,0 -1,1Z"/>
<path onmouseover="hoverPath(evt)" onmouseout="recoverPath(evt)" fill="rgb(243,241,236)" d="M  201,1l 0,6 -1,1 0,1 1,0 1,1 1,-1 2,0 1,-1 1,-1 3,0 1,-1 3,0 0,-1 -1,-1 -1,-1 -1,0 -1,-1 -1,-1 0,-1 -7,0 -1,1Z"/>
<path onmouseover="hoverPath(evt)" onmouseout="recoverPath(evt)" fill="rgb(243,242,236)" d="M  208,17l 0,0 -1,1 -1,1 -1,0 0,11 1,1 0,2 2,0 1,-1 3,0 1,1 1,-1 5,0 1,1 2,0 0,-2 1,-1 2,0 0,-2 1,-1 0,-2 1,-1 0,-3 -1,-1 0,-1 -1,0 -1,-1 -1,-1 0,-1 -1,0 -1,-1 -5,0 -1,-1 -2,0 -1,1 -1,0 -1,1 -1,0 -1,1Z"/>
<path onmouseover="hoverPath(evt)" onmouseout="recoverPath(evt)" fill="rgb(244,243,236)" d="M  222,1l 2,2 1,1 1,1 0,1 2,0 1,1 0,1 1,1 2,0 1,1 1,1 0,1 2,0 1,1 0,1 2,0 1,1 0,1 2,0 1,1 0,1 2,0 1,1 1,0 1,1 1,0 1,1 0,2 5,0 0,-23 -32,0 -1,1Z"/>
<path onmouseover="hoverPath(evt)" onmouseout="recoverPath(evt)" fill="rgb(242,240,227)" d="M  71,254l -6,0 -1,-1 -12,0 0,2 18,0 1,-1 1,1 33,0 0,-3 -16,0 -1,1 -11,0 -1,1 -3,0 -1,1 -1,-1Z"/>
<path onmouseover="hoverPath(evt)" onmouseout="recoverPath(evt)" fill="rgb(243,241,233)" d="M  94,14l 1,0 1,-1 5,0 1,-1 3,0 1,-1 4,0 1,-1 3,0 1,-1 4,0 1,-1 3,0 1,-1 3,0 1,-1 4,0 1,-1 3,0 0,-5 -52,0 0,3 1,1 0,3 1,1 0,3 1,1 0,3 5,0 1,-1Z"/>
<path onmouseover="hoverPath(evt)" onmouseout="recoverPath(evt)" fill="rgb(233,233,212)" d="M  103,226l 0,-6 -1,-1 0,-6 -1,-1 0,-7 -1,-1 0,-7 -1,-1 0,-4 -2,0 -1,1 0,2 1,1 0,5 1,1 0,7 1,1 0,6 1,1 0,6 1,1 0,6 1,1 0,7 1,1 0,4 2,0 0,-3 -1,-1 0,-12 -1,-1Z"/>
<path onmouseover="hoverPath(evt)" onmouseout="recoverPath(evt)" fill="rgb(244,243,236)" d="M  134,250l -3,0 0,5 91,0 0,-1 1,-1 -1,-1 0,-8 -3,0 -1,1 -16,0 -1,1 -21,0 -1,1 -14,0 -1,1 -13,0 -1,1 -13,0 -1,1Z"/>
<path onmouseover="hoverPath(evt)" onmouseout="recoverPath(evt)" fill="rgb(244,243,236)" d="M  185,18l 0,0 -1,1 0,1 -1,1 0,2 -1,1 -1,0 -1,1 0,2 -1,1 -1,1 -1,1 -1,1 -1,1 1,1 0,0 1,-1 0,0 1,-1 3,0 1,-1 5,0 1,1 0,-1 1,-1 -1,-1 0,-5 -1,-1 0,-5 -1,0 -1,1Z"/>
<path onmouseover="hoverPath(evt)" onmouseout="recoverPath(evt)" fill="rgb(242,231,137)" d="M  236,238l 0,4 9,0 1,-1 9,0 0,-6 -6,0 -1,1 -12,0Z"/>
<path onmouseover="hoverPath(evt)" onmouseout="recoverPath(evt)" fill="rgb(253,253,253)" d="M  1,199l 5,0 1,-1 9,0 1,-1 12,0 1,-1 14,0 1,1 0,1 1,1 0,-1 1,-1 0,-1 1,-1 4,0 1,-1 9,0 1,-1 8,0 1,-1 10,0 1,-1 7,0 1,1 1,0 1,1 0,3 1,1 0,6 1,1 0,6 1,1 0,6 1,1 0,7 1,1 0,6 1,1 0,6 1,1 0,3 1,0 0,-3 -1,-1 0,-7 -1,-1 0,-6 -1,-1 0,-6 -1,-1 0,-6 -1,-1 0,-7 -1,-1 0,-5 -1,-1 0,-4 1,-1 1,-1 9,0 1,-1 4,0 1,-1 8,0 1,-1 8,0 1,-1 9,0 1,-1 8,0 1,-1 5,0 1,1 1,1 0,6 1,1 0,19 1,1 0,10 1,1 0,11 1,1 0,3 1,0 0,-5 -1,-1 0,-9 -1,-1 0,-11 -1,-1 0,-20 -1,-1 0,-23 -1,-1 0,16 -1,1 -6,0 -1,1 -9,0 -1,1 -9,0 -1,1 -8,0 -1,1 -9,0 -1,1 -3,0 -1,-1 -1,1 -9,0 -1,-1 0,-5 -1,-1 0,-6 -1,-1 0,-6 -1,-1 0,-5 -1,-1 0,-5 -1,-1 0,-4 -1,-1 0,-4 -1,-1 0,-5 -1,-1 0,-3 -1,-1 0,-3 -1,-1 0,-2 -1,-1 0,-3 -1,-1 0,-4 -1,-1 0,-3 -1,-1 -1,-1 0,-2 -1,-1 0,-2 -1,-1 0,-2 -1,-1 0,-3 -1,-1 0,-2 -1,-1 0,-2 -1,-1 0,-2 -1,-1 0,-2 -1,-1 0,-2 -1,-1 0,-2 -1,-1 -1,1 0,0 1,1 0,2 1,1 0,2 1,1 0,2 1,1 0,2 1,1 0,2 1,1 0,2 1,1 0,2 1,1 0,2 1,1 0,3 -1,1 0,3 2,0 1,1 0,2 1,1 0,2 1,1 0,1 1,1 0,3 1,1 0,3 1,1 0,2 1,1 0,4 1,1 0,4 1,1 0,4 1,1 0,5 1,1 0,5 1,1 0,5 1,1 0,6 1,1 0,6 1,1 0,5 -1,1 -1,0 -1,1 -10,0 -1,1 -7,0 -1,1 -8,0 -1,1 -8,0 -1,1 -10,0 -1,1 -12,0 -1,1 -12,0 -1,1 -8,0 -1,1 -4,0 -1,1 -1,-1 0,0 1,1Z"/>
<path onmouseover="hoverPath(evt)" onmouseout="recoverPath(evt)" fill="rgb(244,243,235)" d="M  0,207l 0,41 17,0 1,-1 6,0 0,-4 -1,-1 0,-2 -1,-1 0,-3 -1,-1 0,-3 -1,-1 0,-14 -1,-1 0,-1 -1,-1 -1,-1 0,-1 -1,-1 0,-5 -1,-1 -4,0 -1,1 -9,0 -1,1Z"/>
<path onmouseover="hoverPath(evt)" onmouseout="recoverPath(evt)" fill="rgb(244,243,236)" d="M  3,94l 0,0 -1,1 0,2 1,1 0,2 1,1 0,2 1,1 0,3 1,1 0,2 1,1 0,2 1,1 0,2 1,1 0,2 1,1 0,3 1,1 0,2 1,1 0,2 1,1 1,0 1,-1 3,0 1,-1 3,0 1,-1 3,0 1,-1 3,0 1,-1 4,0 1,-1 4,0 1,-1 3,0 1,-1 4,0 1,-1 3,0 1,-1 3,0 1,-1 3,0 1,-1 3,0 1,-1 4,0 1,-1 2,0 0,-4 1,-1 0,-1 -1,-1 0,-2 -1,-1 0,-2 -1,-1 0,-2 -1,-1 0,-2 -1,-1 0,-2 -1,-1 0,-2 -1,-1 0,-2 -1,-1 0,-2 -1,-1 0,-1 -6,0 -1,1 -5,0 -1,1 -5,0 -1,1 -4,0 -1,1 -4,0 -1,1 -3,0 -1,1 -7,0 -1,-1 0,1 -1,1 -2,0 -1,1 -5,0 -1,1 -5,0 -1,-1 0,1 -1,1Z"/>
<path onmouseover="hoverPath(evt)" onmouseout="recoverPath(evt)" fill="rgb(176,200,234)" d="M  16,203l 1,1 1,1 0,5 1,1 0,1 2,2 0,1 1,1 0,14 1,1 0,3 1,1 0,3 1,1 0,2 1,1 0,6 1,0 0,-2 1,-1 0,-3 -1,-1 0,-6 -1,-1 0,-10 -1,-1 0,-4 -1,-1 0,-3 -1,-1 0,-1 -1,-1 0,-2 -1,-1 0,-5 -1,-1 -1,-1 -2,0 -1,1 -1,-1 -1,0 -1,-1 0,-1 -5,0 -1,1 -7,0 0,3 9,0 1,-1 4,0 1,-1 1,1Z"/>
<path onmouseover="hoverPath(evt)" onmouseout="recoverPath(evt)" fill="rgb(243,242,234)" d="M  49,198l 0,0 -1,1 0,9 -1,1 0,11 2,0 1,1 0,12 1,1 0,11 14,0 1,-1 10,0 1,-1 11,0 1,-1 9,0 0,-1 -1,-1 0,-6 -1,-1 0,-6 -1,-1 0,-7 -1,-1 0,-6 -1,-1 0,-6 -1,-1 0,-6 -1,-1 0,-3 -1,0 -1,-1 -5,0 -1,1 -10,0 -1,1 -8,0 -1,1 -9,0 -1,1 -3,0 -1,1Z"/>
<path onmouseover="hoverPath(evt)" onmouseout="recoverPath(evt)" fill="rgb(244,243,235)" d="M  72,83l 0,0 -1,1 0,1 1,1 0,2 1,1 0,2 1,1 0,2 1,1 0,2 1,1 0,2 1,1 0,3 1,1 0,2 1,1 0,2 1,1 0,2 1,1 1,0 1,-1 4,0 1,-1 3,0 1,-1 4,0 1,-1 4,0 1,-1 3,0 1,-1 0,-1 -1,-1 0,-4 -1,-1 0,-4 -1,-1 0,-5 -1,-1 0,-4 -1,-1 0,-4 -1,-1 0,-2 -5,0 -1,1 -5,0 -1,1 -5,0 -1,1 -3,0 -1,1 -5,0 -1,1Z"/>
<path onmouseover="hoverPath(evt)" onmouseout="recoverPath(evt)" fill="rgb(242,240,231)" d="M  100,19l 0,3 -1,1 0,2 1,1 0,1 1,1 0,2 1,1 0,-2 1,-1 3,0 0,-2 1,-1 4,0 1,-1 4,0 1,-1 4,0 1,-1 4,0 1,-1 5,0 1,-1 5,0 1,-1 4,0 1,-1 5,0 1,-1 4,0 1,-1 4,0 1,-1 5,0 1,1 3,0 1,-1 3,0 1,-1 3,0 1,1 0,-1 1,-1 0,-3 1,-1 -1,-1 0,-2 1,-1 1,-1 1,-1 -1,-1 0,-2 -43,0 0,6 -1,1 -3,0 -1,1 -4,0 -1,1 -3,0 -1,1 -3,0 -1,1 -4,0 -1,1 -3,0 -1,1 -4,0 -1,1 -3,0 0,2 -1,1 -2,0Z"/>
<path onmouseover="hoverPath(evt)" onmouseout="recoverPath(evt)" fill="rgb(171,198,238)" d="M  106,111l -3,0 -1,1 -4,0 -1,1 -4,0 -1,1 -3,0 -1,1 -4,0 -1,1 -1,0 0,2 2,0 1,-1 4,0 1,1 1,1 0,5 1,1 0,5 1,1 0,6 1,1 0,6 1,1 0,7 1,1 0,6 1,1 0,7 1,1 0,6 1,1 0,6 1,1 0,4 2,0 1,-1 1,0 -1,-1 0,-5 -1,-1 0,-5 -1,-1 0,-6 -1,-1 0,-5 -1,-1 0,-6 -1,-1 0,-5 -1,-1 0,-7 -1,-1 0,-7 -1,-1 0,-9 -1,-1 0,-4 1,-1 1,-1 3,0 1,-1 5,0 1,-1 0,-1 1,-1 1,2 1,0 1,-1 4,0 1,-1 4,0 1,1 3,0 1,1 2,0 1,1 5,0 1,1 2,0 1,-1 6,0 1,-1 5,0 1,-1 4,0 1,-1 4,0 1,-1 3,0 1,-1 4,0 1,-1 4,0 1,-1 4,0 0,-1 -1,-1 -4,0 -1,1 -3,0 -1,1 -3,0 -1,1 -3,0 -1,1 -3,0 -1,1 -5,0 -1,1 -4,0 -1,1 -5,0 -1,1 -9,0 -1,-1 -3,0 -1,-1 -1,0 -1,-1 -1,0 -1,-1 -8,0 -1,-1 0,-1 -1,-1 0,-5 -1,-1 0,-5 -1,-1 0,-5 -1,-1 0,-5 -1,-1 0,-6 -1,0 0,1 -1,1 -2,0 0,2 1,1 0,4 1,1 0,4 1,1 0,5 1,1 0,4 1,1 0,4 1,1 0,3 -2,2Z"/>
<path onmouseover="hoverPath(evt)" onmouseout="recoverPath(evt)" fill="rgb(245,244,237)" d="M  175,75l -2,2 -1,1 0,2 -1,1 1,1 0,3 1,0 1,1 1,1 0,1 1,0 1,1 9,0 1,-1 1,-1 1,-1 1,0 0,-1 1,-1 1,0 0,-1 1,-1 0,-8 -1,-1 -5,0 -1,-1 -1,1 -4,0 -1,-1 -1,1 -3,0 0,1 -1,1Z"/>
<path onmouseover="hoverPath(evt)" onmouseout="recoverPath(evt)" fill="rgb(244,243,236)" d="M  218,99l 0,3 -1,1 1,1 0,7 -1,1 1,1 0,7 1,1 0,6 -1,1 0,1 1,0 1,1 0,3 1,1 0,7 -1,1 1,0 1,1 0,4 -1,1 0,1 1,0 1,1 1,1 0,8 1,1 0,6 1,1 0,7 -1,1 0,1 1,0 1,1 0,3 1,1 0,6 -1,1 0,1 1,0 1,1 0,4 -1,1 0,1 1,0 1,1 0,3 1,1 0,6 -1,1 0,1 1,0 1,1 0,3 1,1 0,5 1,1 0,6 -1,1 0,1 1,0 1,1 0,2 1,1 0,2 11,0 1,-1 7,0 0,-143 -2,0 -1,1 -3,0 -1,1 -4,0 -1,1 -3,0 -1,1 -3,0 -1,1 -4,0 -1,1 -3,0 -1,1 -3,0 -1,1 -3,0 -1,1Z"/>
</svg>