<svg width="256" height="256" xmlns="http://www.w3.org/2000/svg"><script> 
var tempColor;
function hoverPath(evt){
obj = evt.target;
tempColor = obj.getAttribute("fill");
obj.setAttribute("fill","red");
//alert(tempColor);
//obj.setAttribute("stroke","red");}
function recoverPath(evt){
obj = evt.target;
obj.setAttribute("fill", tempColor);
//obj.setAttribute("stroke", tempColor);
}</script><path onmouseover="hoverPath(evt)" onmouseout="recoverPath(evt)" fill="rgb(244,243,237)" d="M  0,1l 0,3 4,0 1,1 9,0 1,1 2,0 1,-1 10,0 1,-1 7,0 1,-1 7,0 1,-1 8,0 1,-1 8,0 0,-1 -61,0 -1,1Z"/>
<path onmouseover="hoverPath(evt)" onmouseout="recoverPath(evt)" fill="rgb(244,243,236)" d="M  0,12l 0,46 9,0 1,-1 14,0 1,-1 13,0 1,-1 14,0 1,-1 13,0 0,-3 -1,0 -1,-1 -2,0 -1,-1 -1,0 -1,-1 -1,-1 -1,0 -1,-1 0,-1 -2,0 -1,-1 0,-1 -2,0 -1,-1 0,-1 -2,0 -1,-1 0,-1 -2,0 -1,-1 -1,-1 -1,0 -1,-1 -1,-1 -1,-1 -1,0 -3,-3 -1,0 -1,-1 -1,-1 -1,0 -1,-1 -1,-1 -1,0 -1,-1 -1,-1 -1,-1 -1,0 -1,-1 -1,-1 -1,-1 -1,0 -1,-1 -1,0 -1,-1 -1,0 -1,-1 -1,0 -1,-1 -1,0 -1,-1 -1,0 -1,-1 -2,0 -1,-1 -1,0 -1,-1 -1,0 -1,-1 -1,0 -1,-1 -1,1Z"/>
<path onmouseover="hoverPath(evt)" onmouseout="recoverPath(evt)" fill="rgb(244,243,235)" d="M  0,62l 0,33 12,0 1,-1 16,0 1,-1 8,0 1,-1 8,0 1,-1 7,0 1,-1 6,0 1,-1 9,0 1,-1 14,0 0,-2 -1,-1 0,-5 -1,-1 0,-4 -1,-1 0,-5 -1,-1 0,-5 -1,-1 0,-5 -1,-1 0,-1 -12,0 -1,1 -13,0 -1,1 -14,0 -1,1 -13,0 -1,1 -14,0 -1,1 -10,0Z"/>
<path onmouseover="hoverPath(evt)" onmouseout="recoverPath(evt)" fill="rgb(244,243,234)" d="M  0,102l 0,35 21,0 1,-1 27,0 1,-1 29,0 1,-1 14,0 0,-1 1,-1 -1,-1 0,-4 -1,-1 0,-5 -1,-1 0,-5 -1,-1 0,-5 -1,-1 0,-4 -1,-1 0,-5 -1,-1 0,-4 -9,0 -1,1 -8,0 -1,1 -7,0 -1,1 -7,0 -1,1 -9,0 -1,1 -9,0 -1,1 -9,0 -1,1 -13,0 -1,1 -8,0 -1,1Z"/>
<path onmouseover="hoverPath(evt)" onmouseout="recoverPath(evt)" fill="rgb(244,243,236)" d="M  0,145l 0,110 104,0 0,-15 -1,-1 0,-22 -1,-1 0,-9 -1,-1 0,-14 -1,-1 0,-16 -1,-1 0,-13 -1,-1 0,-9 -1,-1 0,-6 -4,0 -1,-1 -50,0 0,1 -1,1 -5,0 -1,-1 -34,0 -1,1Z"/>
<path onmouseover="hoverPath(evt)" onmouseout="recoverPath(evt)" fill="rgb(243,243,235)" d="M  17,12l 0,0 1,1 1,0 1,1 1,0 1,1 1,0 1,1 1,0 1,1 1,1 1,0 1,1 1,1 1,0 1,1 1,1 1,0 1,1 1,1 1,1 1,1 1,0 2,2 1,1 1,0 1,1 1,1 1,1 1,0 1,1 1,1 1,1 1,0 1,1 1,1 0,4 1,0 1,-1 3,0 1,1 1,0 1,1 1,0 1,1 1,1 1,0 1,1 1,0 1,1 2,0 1,1 7,0 1,1 0,2 1,0 0,-5 -1,-1 0,-5 -1,-1 0,-5 -1,-1 0,-5 -1,-1 0,-5 -1,-1 0,-5 -1,-1 0,-4 -1,-1 0,-4 -5,0 -1,1 -5,0 -1,1 -6,0 -1,1 -5,0 -1,1 -7,0 -1,1 -6,0 -1,1 -15,0 -1,1Z"/>
<path onmouseover="hoverPath(evt)" onmouseout="recoverPath(evt)" fill="rgb(171,198,238)" d="M  30,96l -16,0 -1,1 -13,0 0,2 8,0 1,-1 13,0 1,-1 6,0 1,-1 1,1 1,0 1,-1 9,0 1,-1 9,0 1,-1 7,0 1,-1 7,0 1,-1 8,0 1,-1 9,0 0,-1 -13,0 -1,1 -9,0 -1,1 -6,0 -1,1 -7,0 -1,1 -8,0 -1,1 -8,0 0,2 -1,-1Z"/>
<path onmouseover="hoverPath(evt)" onmouseout="recoverPath(evt)" fill="rgb(196,230,223)" d="M  35,138l -12,0 -1,1 -22,0 0,3 36,0 1,1 3,0 0,-1 1,-1 52,0 1,1 3,0 1,-1 1,0 1,-1 9,0 0,-1 -47,0 -1,-1 0,-1 -10,0 -1,1Z"/>
<path onmouseover="hoverPath(evt)" onmouseout="recoverPath(evt)" fill="rgb(175,200,238)" d="M  45,35l 0,0 1,1 1,1 2,0 1,1 0,-1 1,1 -1,1 1,0 -3,-3 0,0 -1,-1 -1,-1 -1,1 -3,-2 0,-2 -1,0 -1,-1 -1,-1 -1,-1 -1,0 -1,-1 -1,-1 -1,-1 -1,-1 -1,0 -1,-1 -1,-1 -1,0 -1,-1 -1,-1 -1,0 -1,-1 -1,-1 -1,0 -1,-1 -1,0 -1,-1 -1,0 -1,-1 -1,0 -1,-1 -1,-1 0,-3 1,-1 16,0 1,-1 6,0 1,-1 7,0 1,-1 5,0 1,-1 6,0 1,-1 5,0 1,-1 5,0 0,-3 -8,0 0,2 -1,1 -8,0 -1,1 -8,0 -1,1 -7,0 -1,1 -7,0 -1,1 -10,0 -1,1 -4,0 -1,-1 -9,0 -1,-1 -3,0 0,3 2,0 1,1 1,0 1,1 1,0 1,1 1,0 1,1 2,0 1,1 1,0 1,1 1,0 1,1 1,0 1,1 1,0 1,1 1,0 1,1 1,0 1,1 1,1 1,1 1,0 1,1 1,1 1,1 1,0 1,1 1,1 1,0 1,1 1,1 1,0 1,1 1,1 1,1 1,0 1,1 3,2Z"/>
<path onmouseover="hoverPath(evt)" onmouseout="recoverPath(evt)" fill="rgb(233,244,244)" d="M  80,137l 30,0 1,1 0,2 39,0 1,1 3,0 0,-1 1,-1 40,0 0,-3 1,-1 28,0 1,1 0,2 -1,1 -1,0 0,2 32,0 0,-8 -16,0 -1,-1 -42,0 -1,1 -27,0 -1,1 -62,0 -1,1 -5,0 -1,-1 0,-4 -1,-1 0,-4 -1,-1 0,-4 -1,-1 0,-5 -1,-1 0,-5 -1,-1 0,-5 -1,-1 0,-5 -1,-1 0,-6 -1,-1 0,-3 -1,-1 0,-5 -1,-1 0,-5 -1,-1 0,-5 -1,-1 0,-4 -1,-1 0,-5 -1,-1 0,-7 -1,-1 0,-3 -1,-1 0,-5 -1,-1 0,-5 -1,-1 0,-5 -1,-1 0,-5 -1,-1 0,-5 -1,-1 0,-4 -1,-1 0,-5 1,-1 4,0 1,-1 7,0 0,-1 -15,0 0,3 1,1 0,4 1,1 0,4 1,1 0,5 1,1 0,5 1,1 0,5 1,1 0,5 1,1 0,5 1,1 0,7 -1,1 -3,0 -1,-1 0,-2 -7,0 -1,-1 -2,0 -1,-1 -1,0 -1,-1 -1,0 -1,-1 -1,-1 -1,0 -1,-1 -1,0 -1,-1 -1,0 0,1 1,0 2,1 0,1 1,0 1,1 1,1 1,0 1,1 2,0 1,1 1,0 1,1 0,3 13,0 1,1 0,1 1,1 0,5 1,1 0,5 1,1 0,5 1,1 0,4 1,1 0,5 1,1 0,6 1,1 0,4 1,1 0,5 1,1 0,4 1,1 0,5 1,1 0,5 1,1 0,5 1,1 0,4 1,1 0,2 -1,1 0,1 -1,1 -14,0 -1,1Z"/>
<path onmouseover="hoverPath(evt)" onmouseout="recoverPath(evt)" fill="rgb(244,243,236)" d="M  79,4l -1,0 0,3 1,1 0,4 1,1 0,5 1,1 0,5 1,1 0,5 1,1 0,5 1,1 0,5 1,1 0,3 7,0 1,-1 9,0 1,-1 14,0 1,-1 6,0 1,-1 5,0 1,-1 5,0 1,-1 4,0 1,-1 4,0 1,-1 5,0 1,-1 4,0 1,-1 4,0 1,-1 3,0 1,-1 4,0 1,-1 5,0 1,-1 4,0 1,-1 3,0 1,-1 4,0 1,-1 3,0 1,-1 3,0 1,-1 3,0 1,-1 3,0 1,-1 3,0 1,-1 3,0 1,-1 2,0 1,-1 3,0 1,-1 2,0 1,-1 3,0 1,-1 3,0 1,-1 21,0 0,-18 -164,0 0,2 -1,1 -7,0 -1,1Z"/>
<path onmouseover="hoverPath(evt)" onmouseout="recoverPath(evt)" fill="rgb(244,243,236)" d="M  87,51l -1,0 0,3 1,1 0,5 1,1 0,4 1,1 0,5 1,1 0,5 1,1 0,5 1,1 0,3 16,0 1,-1 14,0 1,-1 10,0 1,-1 23,0 1,-1 35,0 1,-1 22,0 1,-1 11,0 1,-1 9,0 1,-1 7,0 1,-1 7,0 0,-11 -2,0 -1,-1 0,-5 -1,-1 0,-4 -1,-1 0,-4 -1,-1 0,-3 -1,-1 0,-4 -1,-1 0,-4 -1,-1 0,-4 -1,-1 0,-4 -1,-1 0,-2 -1,-1 -6,0 -1,1 -2,0 -1,1 -3,0 -1,1 -3,0 -1,1 -3,0 -1,1 -3,0 -1,1 -3,0 -1,1 -3,0 -1,1 -3,0 -1,1 -3,0 -1,1 -4,0 -1,1 -3,0 -1,1 -3,0 -1,1 -4,0 -1,1 -5,0 -1,1 -4,0 -1,1 -4,0 -1,1 -4,0 -1,1 -4,0 -1,1 -4,0 -1,1 -4,0 -1,1 -3,0 -1,1 -4,0 -1,1 -3,0 -1,1 -5,0 -1,1 -6,0 -1,1 -13,0 -1,1 -10,0 -1,1Z"/>
<path onmouseover="hoverPath(evt)" onmouseout="recoverPath(evt)" fill="rgb(244,243,235)" d="M  94,92l -1,0 0,2 1,1 0,5 1,1 0,5 1,1 0,5 1,1 0,5 1,1 0,4 1,1 0,4 1,1 0,4 3,0 1,-1 62,0 1,-1 27,0 1,-1 44,0 1,1 15,0 0,-48 -3,0 -1,1 -6,0 -1,1 -7,0 -1,1 -7,0 -1,1 -11,0 -1,1 -11,0 -1,1 -58,0 -1,1 -13,0 -1,1 -14,0 -1,1Z"/>
<path onmouseover="hoverPath(evt)" onmouseout="recoverPath(evt)" fill="rgb(254,254,254)" d="M  100,144l -1,0 0,5 1,1 0,9 1,1 0,13 1,1 0,16 1,1 0,14 1,1 0,9 1,1 0,22 1,1 0,16 1,0 0,-17 -1,-1 0,-22 -1,-1 0,-9 -1,-1 0,-14 -1,-1 0,-16 -1,-1 0,-13 -1,-1 0,-8 -1,-1Z"/>
<path onmouseover="hoverPath(evt)" onmouseout="recoverPath(evt)" fill="rgb(244,243,236)" d="M  102,144l 0,4 1,1 0,8 1,1 0,13 1,1 0,16 1,1 0,14 1,1 0,9 1,1 0,22 1,1 0,18 146,0 0,-112 -33,0 -1,-1 -18,0 -1,1 -4,0 -1,-1 0,-2 -1,1 -40,0 0,1 -1,1 -5,0 -1,-1 -48,0 1,1Z"/>
<path onmouseover="hoverPath(evt)" onmouseout="recoverPath(evt)" fill="rgb(198,230,222)" d="M  197,138l 1,0 1,1 0,2 2,0 1,-1 19,0 0,-2 1,-1 -24,0 -1,1Z"/>
<path onmouseover="hoverPath(evt)" onmouseout="recoverPath(evt)" fill="rgb(173,199,238)" d="M  219,25l -2,0 -1,1 -3,0 -1,1 -3,0 -1,1 -3,0 -1,1 -3,0 -1,1 -3,0 -1,1 -3,0 -1,1 -4,0 -1,1 -3,0 -1,1 -4,0 -1,1 -5,0 -1,1 -4,0 -1,1 -3,0 -1,1 -4,0 -1,1 -4,0 -1,1 -5,0 -1,1 -4,0 -1,1 -4,0 -1,1 -5,0 -1,1 -5,0 -1,1 -6,0 -1,1 -14,0 -1,1 -9,0 -1,1 -7,0 0,1 9,0 1,-1 10,0 1,-1 13,0 1,-1 6,0 1,-1 5,0 1,-1 3,0 1,-1 4,0 1,-1 3,0 73,-17 -71,16 3,0 3,-1 2,0 3,-1 2,0 3,-1 2,0 2,-1 3,0 2,-1 3,0 3,-1 3,0 2,-1 3,0 1,-1 3,0 2,-1 2,0 2,-1 3,0 1,-1 3,0 1,-1 3,0 1,-1 3,0 1,-1 3,0 1,-1 3,0 1,-1 3,0 1,-1 3,0 1,-1 3,0 1,-1 2,0 1,-1 8,0 1,1 1,1 0,2 1,1 0,4 1,1 0,4 1,1 0,4 1,1 0,4 1,1 0,3 1,1 0,4 1,1 0,4 1,1 0,5 1,0 0,-13 -2,0 -105,-11 71,-16 32,19 0,-2 -1,-2 0,-3 -1,-2 0,-4 -1,-1 0,-7 1,-1 1,-1 2,0 1,1 2,0 0,-2 -20,0 -1,1 -3,0 -1,1 -3,0 -1,1 -2,0 -1,1 1,0 27,20 -32,-19Z"/>
<path onmouseover="hoverPath(evt)" onmouseout="recoverPath(evt)" fill="rgb(171,198,238)" d="M  248,81l -7,0 -1,1 -9,0 -1,1 -11,0 -1,1 -22,0 -1,1 -35,0 -1,1 -23,0 -1,1 -10,0 -1,1 -14,0 -1,1 -16,0 0,1 22,0 1,-1 14,0 1,-1 13,0 1,-1 58,0 1,-1 11,0 1,-1 11,0 1,-1 7,0 1,-1 7,0 1,-1 3,0 1,-1 1,1 1,0 1,-1 4,0 0,-1 -6,0 0,2 -1,-1Z"/>
<path onmouseover="hoverPath(evt)" onmouseout="recoverPath(evt)" fill="rgb(244,243,237)" d="M  250,24l 0,5 1,1 0,5 1,1 0,4 1,1 0,4 1,1 0,4 1,0 0,-26 -3,0 -1,-1 -1,1Z"/>
</svg>