<svg width="256" height="256" xmlns="http://www.w3.org/2000/svg"><script> 
var tempColor;
function hoverPath(evt){
obj = evt.target;
tempColor = obj.getAttribute("fill");
obj.setAttribute("fill","red");
//alert(tempColor);
//obj.setAttribute("stroke","red");}
function recoverPath(evt){
obj = evt.target;
obj.setAttribute("fill", tempColor);
//obj.setAttribute("stroke", tempColor);
}</script><path onmouseover="hoverPath(evt)" onmouseout="recoverPath(evt)" fill="rgb(245,244,237)" d="M  0,224l 0,12 12,0 0,-1 -1,-1 0,0 -1,-1 -2,-2 -1,-1 -1,-1 -1,-1 -1,-1 -1,-1 -1,-1 0,-1 -1,-1 -1,1Z"/>
<path onmouseover="hoverPath(evt)" onmouseout="recoverPath(evt)" fill="rgb(244,243,235)" d="M  201,143l -2,0 0,1 1,1 0,1 1,1 0,1 1,1 0,1 3,0 1,-1 3,0 1,-1 2,0 1,-1 3,0 1,-1 2,0 1,-1 2,0 1,-1 2,0 1,-1 4,0 1,-1 3,0 1,-1 1,0 1,-1 3,0 1,-1 4,0 1,-1 1,0 1,-1 3,0 1,-1 3,0 0,-58 -2,0 -1,1 -2,0 -1,1 -1,1 -2,0 -1,1 -2,0 -1,1 -2,0 -1,1 -2,0 -1,1 -1,0 -1,1 -2,0 -1,1 -2,0 -1,1 -2,0 -1,1 -2,0 -1,1 -2,0 -1,1 -1,0 -1,1 -2,0 -1,1 -2,0 -1,1 -2,0 -1,1 -2,0 -1,1 -1,0 -1,1 -2,0 -1,1 -2,0 -1,1 -2,0 -1,1 -2,0 -1,1 -2,0 -1,1 -3,0 -1,1 -2,0 -1,1 -1,1 -1,0 0,1 1,1 0,1 1,1 0,1 1,1 0,1 1,1 0,1 1,1 0,1 1,1 0,1 1,1 0,1 1,1 0,1 1,1 0,1 1,1 0,1 1,1 0,1 1,1 1,1 0,1 1,1 0,1 1,1 0,1 1,1 0,1 1,1 1,1 1,0 1,-1 4,0 1,1 0,2 -1,1 -1,0 -1,1Z"/>
<path onmouseover="hoverPath(evt)" onmouseout="recoverPath(evt)" fill="rgb(240,241,234)" d="M  31,209l 0,2 1,1 0,1 1,1 0,2 1,1 0,1 1,1 0,1 1,1 0,2 1,1 0,1 1,1 0,1 1,1 0,1 1,1 0,1 1,1 0,2 7,0 1,-1 7,0 1,1 4,0 1,1 2,0 1,1 1,0 1,1 1,0 1,1 0,1 1,0 1,1 0,-1 1,-1 3,0 1,-1 2,0 1,1 1,-1 3,0 1,1 0,3 -1,1 1,0 1,-1 2,0 0,-2 1,-1 2,0 0,-1 1,-1 2,0 1,1 0,1 1,0 1,-1 0,-1 1,-1 2,0 1,1 1,0 0,-1 1,-1 0,-5 1,-1 1,0 1,-1 1,-1 3,0 1,1 1,-1 0,0 1,-1 0,-1 1,-1 3,0 1,-1 1,0 0,-1 1,-1 3,0 1,1 0,-1 1,-1 4,0 1,1 3,0 0,-1 1,-1 1,-1 0,-1 1,-1 5,0 1,1 2,0 0,-1 1,-1 1,-1 0,-1 1,-1 4,0 1,-1 0,-1 1,-1 3,0 1,1 1,0 1,-1 2,0 1,1 0,-2 1,-1 2,0 1,1 5,0 1,1 0,1 1,0 1,1 0,1 1,-1 0,-1 1,-1 2,0 0,-1 1,-1 2,0 1,1 0,1 1,-1 0,-1 1,-1 2,0 1,1 1,0 1,-1 1,0 1,-1 2,0 1,-1 -1,0 -1,-1 0,0 -1,-1 0,-3 1,-1 1,-1 1,-1 1,0 1,-1 2,0 1,1 1,-1 1,0 1,-1 1,0 1,-1 1,-1 1,0 1,-1 2,0 1,1 2,0 0,-3 1,-1 0,-1 1,-1 0,-1 -1,-1 0,-2 1,-1 -2,0 -1,-1 0,-1 -1,-1 0,-1 -1,-1 0,-1 -1,-1 0,-2 -1,-1 0,-1 -1,0 -1,-1 0,-1 -1,-1 0,-2 -1,-1 0,-1 -1,-1 0,-1 -1,-1 0,-1 -1,-1 -1,-1 0,-1 -1,-1 -1,1 -2,0 -1,1 -3,0 -1,1 -2,0 -1,1 -3,0 -1,1 -2,0 -1,1 -2,0 -1,1 -2,0 -1,1 -1,0 -1,1 -2,0 -1,1 -2,0 -1,1 -2,0 -1,1 -2,0 -1,1 -2,0 -1,1 -2,0 -1,1 0,4 -1,1 -2,0 -1,-1 -1,-1 0,-1 -3,0 -1,1 -2,0 -1,1 -2,0 -1,1 -1,1 -3,0 -1,1 -2,0 -1,1 -2,0 -1,1 -2,0 -1,1 -2,0 -1,1 -1,1 -3,0 -1,1 -1,1 -2,0 -1,1 -2,0 -1,1 -3,0 -1,1 -2,0 -1,1 -3,0 -1,1 -3,0 -1,1 -5,0 -1,1 -5,0 -1,1 -6,0 -1,1 -5,0 -1,1 -2,0 -1,1 -2,0 -1,1 -1,0 -1,1 -2,0 -1,1 -2,0 -1,1 -2,0 0,2 -1,1 -1,0 -1,1 -2,0 -1,1 -2,0 -1,1 -4,0 -1,1 -2,0 -1,1 -1,1 -2,0 -1,1 -1,1 121,-34 2,0 1,1 0,1 1,1 0,2 -1,1 -2,0 -1,-1 0,-1 -1,-1 0,-2 1,-1 -121,34 85,8 -2,0 -1,-1 0,-2 1,-1 1,0 1,-1 1,0 1,-1 2,0 1,1 0,2 -1,1 -1,0 -1,1 -1,0 -1,1 -85,-8Z"/>
<path onmouseover="hoverPath(evt)" onmouseout="recoverPath(evt)" fill="rgb(243,242,234)" d="M  75,96l -1,0 0,1 1,1 0,1 1,1 0,1 1,1 0,1 1,1 0,1 1,1 0,1 1,1 0,1 1,1 0,2 1,1 0,1 1,1 0,1 1,1 0,1 1,1 0,1 1,1 0,1 1,1 0,1 1,1 0,1 1,1 0,1 1,1 0,1 3,0 1,-1 1,0 1,-1 1,0 1,-1 2,0 1,-1 1,0 1,-1 1,0 1,-1 1,0 1,-1 2,0 1,-1 1,0 1,-1 1,0 1,-1 1,0 1,-1 2,0 1,-1 1,0 1,-1 1,0 1,-1 2,0 1,-1 1,0 1,-1 1,0 1,-1 1,0 1,-1 2,0 1,-1 1,0 1,-1 1,0 1,-1 1,0 1,-1 2,0 1,-1 1,0 1,-1 1,0 1,-1 1,0 1,-1 2,0 1,-1 1,0 1,-1 1,0 1,-1 -1,-1 0,-3 -1,-1 0,-2 -1,-1 0,-3 -1,-1 0,-2 -1,-1 0,-3 -1,-1 0,-2 -1,-1 0,-3 -1,-1 0,-2 -1,-1 0,-3 -1,-1 0,-2 -1,-1 0,-3 -1,-1 0,-2 -1,-1 0,-2 -1,-1 0,-3 -1,-1 0,-2 -1,-1 0,-4 -1,-1 0,-2 -1,-1 0,-1 -2,0 -1,1 -2,0 -1,1 -3,0 -1,1 -2,0 -1,1 -3,0 -1,1 -2,0 -1,1 -3,0 -1,1 -2,0 -1,1 -2,0 -1,1 -3,0 -1,1 -2,0 -1,1 1,1 0,3 1,0 1,1 1,0 1,1 2,0 1,-1 2,0 1,-1 3,0 1,1 1,0 1,1 0,1 1,1 0,1 1,1 2,0 1,1 0,1 1,1 0,2 -1,1 0,1 1,1 0,1 1,1 0,1 1,1 0,1 1,1 0,1 1,1 0,1 1,1 0,1 1,1 0,1 1,1 0,1 1,1 0,1 1,1 0,1 2,0 1,1 0,2 -1,1 0,4 -1,1 -1,1 -2,0 -1,1 -1,0 -1,1 -2,0 -1,1 -2,0 -1,1 -2,0 -1,1 -1,0 -1,1 -2,0 -1,1 -1,0 0,2 -1,1 -5,0 -1,-1 -1,0 -1,-1 -1,0 -1,-1 0,-1 -1,-1 0,-1 -1,-1 -1,0 -1,-1 -1,0 -1,-1 -2,0 -1,-1 0,-1 -2,0 -1,-1 0,-1 -1,-1 0,-1 -3,0 -1,1 -3,0 -1,1 -2,0 -1,1 -3,0 -1,1Z"/>
<path onmouseover="hoverPath(evt)" onmouseout="recoverPath(evt)" fill="rgb(235,234,227)" d="M  99,45l 0,0 1,1 0,6 1,1 0,4 -1,1 3,0 1,-1 1,0 -2,-1 -1,0 1,1 -2,-5 0,-4 1,-1 2,0 1,-1 3,0 1,-1 2,0 1,-1 2,0 1,-1 3,0 1,-1 2,0 1,-1 3,0 1,-1 2,0 1,-1 3,0 1,-1 2,0 1,-1 3,0 1,-1 -1,-1 -1,0 -1,-1 0,-4 -1,-1 0,-3 -1,-1 0,-3 -1,-1 0,-2 -1,-1 0,-3 -1,-1 0,-3 -5,0 -1,-1 -2,0 -1,-1 0,-2 -1,-1 0,-1 -1,0 -1,-1 -1,0 -1,1 -3,0 -1,-1 0,-1 -8,0 0,2 -1,1 -2,0 0,4 -1,1 0,5 -1,1 -2,2 -2,0 0,1 -1,1 4,0 1,1 0,5 -1,1 0,1 -1,1 -2,0 -1,1 -6,0 -1,-1 -1,-1 0,-2 -1,-1 -1,1 -1,0 -1,1 -1,0 0,1 -1,1 5,0 1,1 0,2 -1,1 0,2 -1,1 -2,0 0,4 1,1 1,0 1,1 1,1 0,5 1,-1 1,0 1,-1 2,0 1,-1 2,0 1,-1Z"/>
<path onmouseover="hoverPath(evt)" onmouseout="recoverPath(evt)" fill="rgb(243,242,233)" d="M  142,1l 0,2 1,1 0,2 1,1 0,3 1,1 0,2 1,1 0,3 1,1 0,3 1,1 0,3 1,1 0,2 4,0 1,1 1,0 1,-1 2,0 1,-1 2,0 1,-1 3,0 1,-1 2,0 1,-1 2,0 1,-1 3,0 1,-1 2,0 1,-1 2,0 1,-1 3,0 0,-2 1,-1 3,0 1,1 1,0 1,-1 3,0 1,-1 2,0 1,-1 2,0 1,-1 2,0 1,-1 3,0 1,-1 2,0 1,-1 2,0 1,-1 3,0 1,-1 2,0 1,-1 2,0 1,-1 3,0 1,-1 2,0 1,-1 0,-5 -89,0 -1,1Z"/>
<path onmouseover="hoverPath(evt)" onmouseout="recoverPath(evt)" fill="rgb(250,250,247)" d="M  149,33l 0,0 1,1 1,-1 2,0 1,-1 2,0 1,-1 2,0 1,-1 3,0 1,-1 3,0 1,1 1,0 0,-2 1,-1 3,0 1,-1 2,0 1,-1 2,0 1,-1 3,0 1,-1 2,0 1,-1 2,0 1,-1 3,0 1,-1 2,0 1,-1 2,0 1,-1 2,0 1,-1 3,0 1,-1 3,0 1,1 1,0 0,-2 1,-1 3,0 1,-1 2,0 1,-1 2,0 1,-1 3,0 1,-1 2,0 1,-1 4,0 1,1 1,0 1,1 0,2 1,1 0,5 1,1 0,1 1,1 0,3 1,1 0,3 1,1 0,2 1,1 0,3 1,1 0,3 1,1 0,3 1,1 0,3 1,1 0,3 1,1 0,2 1,1 0,3 1,1 0,3 1,1 0,4 4,0 -3,-1 0,-4 -1,-1 0,-2 -1,-1 0,-3 -1,-1 0,-3 -1,-1 0,-3 -1,-1 0,-2 -1,-1 0,-3 -1,-1 0,-3 -1,-1 0,-3 -1,-1 0,-4 1,-1 0,-1 -2,0 -1,-1 0,-4 1,-1 0,-1 -1,0 -1,-1 0,-1 -1,-1 0,-3 -1,-1 0,-4 1,-1 1,-1 2,0 1,-1 2,0 1,-1 3,0 1,-1 2,0 1,-1 2,0 0,-2 -21,0 0,6 -1,1 -1,1 -2,0 -1,1 -3,0 -1,1 -2,0 -1,1 -2,0 -1,1 -3,0 -1,1 -2,0 -1,1 -2,0 -1,1 -3,0 -1,1 -2,0 -1,1 -2,0 -1,1 -2,0 -1,1 -3,0 -1,1 -3,0 -1,-1 -1,0 0,2 -1,1 -3,0 -1,1 -2,0 -1,1 -2,0 -1,1 -3,0 -1,1 -2,0 -1,1 -2,0 -1,1 -3,0 -1,1 -2,0 -1,1 -2,0 -1,1 -3,0 -1,-1 -4,0 1,1Z"/>
<path onmouseover="hoverPath(evt)" onmouseout="recoverPath(evt)" fill="rgb(196,216,201)" d="M  45,241l 0,0 -1,-1 -1,0 -1,1 -2,0 0,1 -1,1 -4,0 0,1 1,1 0,0 1,1 1,1 1,1 0,1 1,1 0,3 -1,1 0,1 14,0 0,-2 1,-1 2,0 0,-2 1,-1 0,-1 1,-1 0,-1 1,-1 2,0 1,1 0,3 -1,1 2,-3 2,0 1,1 1,-1 2,0 1,-1 2,0 1,-1 2,0 1,-1 2,0 0,-2 1,-1 0,-1 -1,0 -1,-1 -1,1 -3,0 0,1 -1,1 -2,0 -1,-1 -1,0 -1,-1 0,-1 -1,0 -1,-1 -1,1 0,0 -1,1 -1,1 -3,0 -1,-1 -7,0 -1,1Z"/>
<path onmouseover="hoverPath(evt)" onmouseout="recoverPath(evt)" fill="rgb(243,242,233)" d="M  87,65l -1,0 0,6 -1,1 2,0 1,1 0,2 1,1 0,1 1,1 0,3 -1,1 0,1 2,0 1,1 0,1 1,1 0,1 1,1 0,3 1,1 0,2 1,1 0,1 2,0 1,1 1,0 1,1 1,0 1,1 1,1 0,1 1,1 0,1 1,0 1,1 1,0 1,1 3,0 0,-2 1,-1 1,0 1,-1 2,0 1,-1 1,0 1,-1 2,0 1,-1 2,0 1,-1 2,0 1,-1 1,0 1,-1 2,0 1,-1 0,-4 1,-1 -2,0 -1,-1 0,-1 -1,-1 0,-1 -1,-1 0,-1 -1,-1 0,-1 -1,-1 0,-1 -1,-1 0,-1 -1,-1 0,-1 -1,-1 0,-1 -1,-1 0,-1 -1,-1 0,-1 -1,-1 0,-3 1,-1 -2,0 -1,-1 0,-1 -1,-1 -1,-1 0,-1 -1,-1 0,-1 -1,0 -1,-1 -1,0 -1,1 -2,0 -1,1 -3,0 -1,1 -1,0 -1,1 -5,0 -1,-1 -2,0 0,2 -1,1 -3,0 -1,-1 -1,0 0,2 -1,1 -1,0 -1,1Z"/>
<path onmouseover="hoverPath(evt)" onmouseout="recoverPath(evt)" fill="rgb(247,236,141)" d="M  0,171l 0,3 1,0 1,-1 2,0 1,-1 1,0 1,-1 2,0 1,-1 3,0 1,-1 1,0 1,-1 3,0 1,1 2,0 1,-1 1,0 1,-1 1,0 1,-1 2,0 1,-1 2,0 1,-1 1,0 1,-1 2,0 1,-1 1,0 1,-1 2,0 1,-1 2,0 1,-1 1,0 0,-2 1,-1 2,0 1,1 1,0 1,-1 1,0 1,-1 2,0 1,-1 2,0 1,-1 1,0 1,-1 2,0 1,-1 2,0 1,-1 1,0 1,-1 2,0 1,1 0,-4 1,-1 1,-1 1,0 1,-1 1,0 1,-1 1,0 1,-1 1,0 1,-1 2,0 1,-1 1,0 1,-1 1,0 1,-1 2,0 1,1 0,1 1,-1 2,0 1,-1 2,0 1,-1 1,-1 3,0 0,-1 1,-1 3,0 0,-1 1,-1 3,0 1,-1 0,-2 1,-1 1,-1 1,0 1,-1 2,0 1,-1 1,0 1,-1 1,0 1,-1 2,0 1,-1 1,0 1,-1 1,0 1,-1 2,0 1,-1 1,0 1,-1 1,0 1,-1 1,0 1,-1 3,0 1,-1 1,-1 1,0 1,-1 1,0 1,-1 3,0 1,-1 1,-1 1,0 1,-1 2,0 1,-1 2,0 1,-1 3,0 1,-1 1,0 1,-1 1,-1 3,0 1,-1 2,0 0,-1 1,-1 1,0 1,-1 2,0 1,-1 3,0 1,-1 1,-1 2,0 1,-1 2,0 1,-1 1,0 1,-1 2,0 1,-1 2,0 1,-1 1,0 1,-1 2,0 1,-1 2,0 1,-1 2,0 1,-1 2,0 1,-1 1,0 1,-1 2,0 1,-1 2,0 1,-1 2,0 1,-1 2,0 1,-1 2,0 1,-1 2,0 1,-1 2,0 1,-1 2,0 1,-1 2,0 1,-1 2,0 1,-1 2,0 1,-1 2,0 1,-1 2,0 0,-3 -6,0 -1,1 -2,0 -1,1 -2,0 -1,1 -2,0 -1,1 -2,0 -1,1 -2,0 -1,1 -2,0 -1,1 -2,0 -1,1 -2,0 -1,1 -2,0 -1,1 -2,0 -1,1 -2,0 -1,1 -2,0 -1,1 -1,0 -1,1 -6,0 -1,-1 -3,0 0,4 -1,1 -3,0 -1,1 -3,0 -1,-1 0,-2 -1,0 0,4 -1,1 -1,1 -2,0 -1,1 -1,0 -1,1 -2,0 -1,1 -2,0 -1,1 -2,0 -1,1 -1,0 -1,1 -2,0 -1,1 -2,0 -1,-1 0,-3 -1,-1 0,-3 -1,-1 0,-2 -1,-1 0,-3 -1,-1 0,-3 -1,-1 0,-2 -1,-1 0,-3 -1,-1 0,-2 -1,-1 0,-3 -1,-1 0,-2 -1,-1 0,-3 -1,-1 0,-3 -1,-1 0,-2 -1,-1 0,-2 -1,-1 0,-3 -1,-1 0,-2 -1,-1 0,-5 -1,0 -1,-1 -1,-1 0,-2 -1,-1 0,-2 1,-1 0,-1 -1,-1 0,-3 -1,-1 0,-3 -1,-1 0,-3 -1,-1 0,-2 -1,-1 0,-3 -1,-1 0,-2 -1,-1 0,-4 -9,0 0,2 1,1 0,3 1,1 0,2 1,1 0,3 1,1 0,3 1,1 0,2 1,1 0,3 1,1 0,3 1,1 0,4 1,0 1,1 1,1 0,2 -1,1 0,1 1,1 0,2 1,1 0,4 1,1 0,2 1,1 0,3 1,1 0,2 1,1 0,2 1,1 0,3 1,1 0,2 1,1 0,3 1,1 0,2 1,1 0,3 1,1 0,2 1,1 0,3 1,1 0,2 1,1 0,3 1,1 0,2 1,1 0,3 1,1 0,2 -1,1 -1,1 -1,0 -1,1 -1,0 -1,1 -2,0 -1,1 -1,0 -1,1 -1,0 -1,1 -1,0 -1,1 -2,0 -1,1 -1,0 -1,1 -1,0 -1,1 -1,0 -1,1 -2,0 -1,1 -1,0 -1,1 -1,0 -1,1 -1,0 -1,1 -2,0 -1,1 -1,0 -1,1 -1,0 -1,1 -2,0 -1,1 -1,0 -1,1 -1,0 -1,1 -1,0 -1,1 -2,0 -1,1 -1,0 -1,1 -1,0 -1,1 -1,0 -1,1 -2,0 -1,1 -1,0 -1,1 -1,0 -1,1 -3,0 0,1 -1,1 -1,1 -4,0 -1,1 -1,0 -1,1 -1,0 -1,1 -1,0 -1,1 -1,0 -1,1 -2,0 -1,1 -1,0 -1,1 -2,0 -1,1 -1,0 -1,1 -1,0 -1,1 -1,0 -1,1 -1,0 -1,1 -2,0 -1,1 -1,0 -1,1 -1,0 -1,1 -2,0 -1,1 -1,0 -1,1 -1,0 -1,1 -2,0 -1,1 -1,0 -1,1 -2,0 -1,1 -1,0 -1,1 -2,0 -1,1 -2,0 -1,1 -2,0 -1,1 -1,0 -1,1 -2,0 -1,1 -2,0 -1,1 -2,0 -1,1 -2,0 -1,1 -1,0 -1,1 -1,0 0,1 -1,1 -1,0 -1,1 -2,0 -1,-1 -1,0 -1,1 -2,0Z"/>
<path onmouseover="hoverPath(evt)" onmouseout="recoverPath(evt)" fill="rgb(244,243,236)" d="M  1,178l -1,0 0,23 2,0 1,1 0,1 1,1 0,1 1,1 0,2 1,1 0,4 1,1 1,1 0,1 1,1 1,1 1,1 0,1 1,1 0,1 1,0 1,1 1,1 1,1 1,1 1,1 1,1 1,1 1,0 1,1 2,2 1,0 1,1 3,0 1,1 5,0 -1,-1 0,-1 -1,-1 0,-1 -1,-1 0,-1 -1,-1 0,-2 -1,-1 0,-1 -1,-1 0,-1 -1,-1 -1,-1 0,-1 -1,-1 0,-1 -1,-1 0,-1 -1,-1 0,-2 -1,-1 0,-1 -1,-1 0,-1 -1,-1 0,-2 -1,-1 0,-1 -1,-1 0,-1 -1,-1 0,-2 -1,-1 0,-1 -1,-1 0,-1 -1,-1 0,-2 -1,-1 0,-1 -1,-1 0,-2 -1,-1 0,-1 -1,-1 0,-1 -1,-1 0,-2 -1,-1 -4,0 -1,1Z"/>
<path onmouseover="hoverPath(evt)" onmouseout="recoverPath(evt)" fill="rgb(239,237,228)" d="M  14,131l 0,0 -1,1 -2,0 -1,-1 0,-2 1,-1 2,0 1,1 0,2 -1,4 1,1 3,0 1,1 0,1 1,1 0,1 1,1 3,0 1,-1 2,0 1,-1 3,0 1,1 2,0 0,-2 1,-1 2,0 1,-1 2,0 1,-1 2,0 1,-1 3,0 1,1 1,0 0,-2 1,-1 2,0 1,-1 2,0 1,-1 1,0 1,-1 1,-1 0,-2 -1,-1 0,-2 -1,-1 0,-2 -1,-1 -1,-1 0,-1 -1,-1 0,-3 -6,0 -1,-1 0,-2 1,-1 2,0 1,-1 0,-1 -1,-1 0,-1 -1,-1 0,-2 -1,-1 0,-2 1,-1 2,0 1,1 5,0 1,1 0,2 -1,1 -2,0 0,3 1,1 0,1 1,1 1,1 0,1 2,0 1,-1 4,0 1,-1 3,0 1,-1 3,0 1,-1 -1,-1 0,-2 -1,-1 0,-1 -1,-1 -1,-1 0,-2 -1,-1 0,-1 -1,-1 0,-1 -1,-1 0,-1 -1,-1 0,-1 -1,-1 0,-1 -1,-1 0,-1 -1,0 -1,-1 0,-2 -1,-1 0,-2 -1,-1 0,-1 -1,-1 0,-1 -1,-1 0,-1 -1,-1 0,-1 -1,-1 0,-1 -1,-1 0,-1 -1,-1 0,-1 -1,0 -1,-1 -2,0 -1,1 -2,0 -1,1 -2,0 0,2 -1,1 -2,0 -1,-1 -1,0 -1,1 -2,0 -1,1 -3,0 -1,1 -2,0 -1,1 -13,0 -1,-1 -3,0 -1,-1 -1,0 -1,-1 -1,0 -1,-1 -1,0 -1,-1 -1,-1 -1,-1 -1,0 0,74 3,0 -2,-1 0,-2 2,-2 4,0 1,1 2,0 1,-1 2,0 1,-4Z"/>
<path onmouseover="hoverPath(evt)" onmouseout="recoverPath(evt)" fill="rgb(239,241,235)" d="M  205,155l 0,2 1,1 0,1 1,1 0,1 1,1 0,1 1,1 0,1 1,1 0,4 -1,1 0,1 1,1 0,1 1,1 0,1 1,1 0,1 2,0 1,1 0,1 1,1 0,1 1,1 0,1 1,1 0,1 1,-1 2,0 1,1 1,-1 2,0 0,-1 1,-1 1,0 1,-1 2,0 1,1 1,0 0,-1 1,-1 3,0 0,-1 1,-1 1,0 1,-1 2,0 1,1 1,-1 0,0 1,-1 2,0 1,1 0,-2 1,-1 1,0 1,-1 2,0 1,1 0,3 1,1 1,0 0,-41 -2,0 -1,1 -3,0 -1,1 -1,0 -1,1 -4,0 -1,1 -3,0 -1,1 -1,0 -1,1 -3,0 -1,1 -4,0 -1,1 -2,0 -1,1 -2,0 -1,1 -2,0 -1,1 -3,0 -1,1 -2,0 -1,1 -3,0 -1,1 -3,0 1,1 0,0 1,1 0,1 43,25 0,1 1,0 -1,-1 -43,-25Z"/>
<path onmouseover="hoverPath(evt)" onmouseout="recoverPath(evt)" fill="rgb(238,238,230)" d="M  244,19l 0,2 -1,1 0,2 2,0 1,1 0,3 -1,1 0,2 1,1 0,3 1,1 0,3 1,1 0,3 1,1 0,2 1,1 0,3 1,1 0,3 1,1 0,3 1,1 0,2 1,1 0,4 1,0 0,-62 -1,0 -1,1 -2,0 -1,1 -3,0 -1,1 -2,0 -1,1 -2,0 -1,1 0,2 1,1 0,3 1,1 0,1 1,0 1,1Z"/>
<path onmouseover="hoverPath(evt)" onmouseout="recoverPath(evt)" fill="rgb(241,239,229)" d="M  5,61l 0,1 1,1 1,1 1,1 2,0 1,1 1,0 1,1 3,0 1,1 8,0 1,-1 2,0 1,-1 2,0 1,-1 2,0 1,-1 2,0 1,-1 2,0 1,-1 2,0 1,-1 2,0 1,-1 2,0 0,-3 -1,-1 0,-1 -1,-1 0,-1 -1,-1 0,-1 -1,-1 0,-1 -1,-1 0,-1 -1,-1 0,-1 -1,-1 0,-1 -1,-1 0,-1 -1,-1 0,-1 -1,-1 0,-1 -1,-1 0,-1 -1,-1 -2,0 -1,1 0,0 1,1 0,2 -1,1 -2,0 -1,-1 -1,-1 -1,-1 0,-1 -1,-1 0,-1 -1,-1 0,-3 1,-1 2,0 1,1 1,-1 2,0 0,-1 -1,-1 0,-1 -1,-1 0,-1 -1,-1 0,-1 -1,-1 0,-1 -1,-1 0,-1 -1,-1 0,-1 -1,-1 0,-1 -1,-1 0,-1 -2,0 -1,-1 0,-2 -2,0 -1,1 -2,0 -1,1 -2,0 0,2 -1,1 -2,0 -1,-1 -1,0 -1,1 -2,0 -1,1 -2,0 0,3 -1,1 -3,0 0,41 2,0 1,1 1,0 1,1 -2,-32 0,-2 1,-1 2,0 1,1 0,2 -1,1 -2,0 -1,-1 2,32 4,-5 -1,-1 0,-2 1,-1 2,0 1,1 0,2 -1,1 -2,0 -4,5 6,-11 -2,0 -1,-1 0,-2 1,-1 2,0 1,1 0,2 -1,1 -6,11 24,-17 1,1 0,2 -1,1 -2,0 -1,-1 0,-2 1,-1 2,0 -24,17Z"/>
<path onmouseover="hoverPath(evt)" onmouseout="recoverPath(evt)" fill="rgb(244,242,235)" d="M  25,196l 0,2 1,1 0,2 1,1 1,1 2,0 1,-1 2,0 1,-1 2,0 1,-1 2,0 1,-1 2,0 1,-1 3,0 1,-1 4,0 1,-1 2,0 1,-1 2,0 1,-1 2,0 1,-1 1,0 1,-1 2,0 1,-1 2,0 1,-1 5,0 1,-1 6,0 1,-1 5,0 1,-1 5,0 1,-1 3,0 1,-1 3,0 1,-1 2,0 1,-1 3,0 1,-1 2,0 1,-1 2,0 1,-1 1,-1 3,0 1,-1 1,-1 2,0 1,-1 2,0 1,-1 2,0 1,-1 2,0 1,-1 3,0 1,-1 1,-1 2,0 1,-1 2,0 1,-1 5,0 1,1 0,1 1,1 0,-3 -1,0 -1,-1 0,-1 -1,-1 0,-4 2,-2 2,0 1,-1 1,0 1,-1 2,0 1,-1 0,-4 1,-1 0,-1 -1,-1 0,-1 -1,-1 -1,-1 -1,-1 -4,0 -1,1 -2,0 0,2 -1,1 -1,1 -2,0 -1,1 -1,0 -1,1 -4,0 -1,-1 -1,0 0,2 -1,1 -1,1 -2,0 -1,1 -2,0 -1,1 -3,0 -1,-1 -1,0 0,2 -1,1 -1,1 -4,0 -1,-1 0,2 -1,1 -1,0 -1,1 -2,0 -1,1 -1,0 -1,1 -4,0 -1,-1 -1,0 0,2 -1,1 -1,1 -2,0 -1,1 -1,0 -1,1 -4,0 -1,-1 -1,0 -1,1 -4,0 -1,-1 0,-1 -1,-1 0,4 -1,1 -1,1 -2,0 -1,1 -2,0 -1,1 -2,0 -1,1 -2,0 -1,1 -2,0 0,2 -1,1 -3,0 -1,-1 -1,0 -1,1 -2,0 -1,1 -2,0 -1,1 -2,0 0,2 -1,1 -3,0 -1,-1 -1,0 -1,1 -2,0 -1,1 -2,0 -1,1 -2,0 -1,1 -2,0 -1,1 -3,0 -1,-1 -1,0 -1,1 -1,1 -1,0 0,1 1,1 0,2 1,1Z"/>
<path onmouseover="hoverPath(evt)" onmouseout="recoverPath(evt)" fill="rgb(172,198,235)" d="M  34,204l -2,0 -1,1 -4,0 -1,-1 -1,-1 -1,-1 0,-2 -1,-1 0,-2 -1,-1 0,-2 -1,-1 0,-2 -1,-1 -1,-1 0,-1 -1,-1 0,-1 -1,-1 0,-1 -1,-1 0,-1 -1,-1 0,-1 -1,-1 0,-1 -1,-1 0,-5 -2,0 -1,1 -2,0 -1,1 -1,0 -1,1 -2,0 -1,1 1,0 3,-1 4,0 1,1 1,1 0,2 1,1 0,1 1,1 0,1 1,1 0,2 1,1 0,1 1,1 0,2 1,1 0,1 1,1 0,1 1,1 0,2 1,1 0,1 1,1 0,1 1,1 0,2 1,1 0,1 1,1 0,1 1,1 0,2 1,1 0,1 1,1 0,1 1,1 0,1 1,1 1,1 0,1 1,1 0,1 1,1 0,2 1,1 0,1 1,1 0,1 1,1 0,1 1,1 0,1 1,1 0,1 1,0 0,-3 -1,-1 0,-1 -1,-1 0,-1 -1,-1 0,-1 -1,-1 0,-1 -1,-1 0,-2 -1,-1 0,-1 -1,-1 0,-1 -1,-1 0,-2 -1,-1 0,-1 -1,-1 0,-5 1,-1 1,0 1,-1 1,0 1,-1 1,0 1,-1 2,0 1,-1 4,0 1,-1 2,0 1,-1 2,0 1,-1 -2,0 -2,1 -2,0 -1,1 -2,0 -6,3Z"/>
<path onmouseover="hoverPath(evt)" onmouseout="recoverPath(evt)" fill="rgb(239,238,229)" d="M  41,28l 0,1 1,1 0,2 1,1 0,1 1,1 0,1 1,1 0,1 1,1 0,1 1,1 0,1 1,1 0,1 1,1 0,1 1,1 0,1 1,1 0,1 1,1 0,1 1,1 0,1 1,1 0,1 1,1 5,0 1,1 0,1 2,0 1,-1 2,0 1,-1 4,0 1,1 5,0 1,-1 2,0 1,-1 2,0 1,-1 1,-1 3,0 1,-1 4,0 1,-1 2,0 0,-1 1,-1 1,0 0,-3 -1,1 -2,0 -1,1 -2,0 -1,1 -1,0 -1,1 -2,0 -1,-1 0,-5 -1,-1 -1,0 -1,-1 -1,-1 0,-6 1,-1 2,0 0,-2 1,-1 -6,0 -1,-1 -1,1 -1,0 -1,1 -1,1 -3,0 0,1 1,1 0,2 -1,1 -9,0 -1,-1 0,-2 1,-1 0,-1 -1,0 -1,-1 -1,0 -1,-1 -1,-1 -1,-1 -2,0 -1,-1 0,-2 1,-1 0,-1 -1,-1 0,-1 -4,0 -1,1 -2,0 -1,1 -2,0 -1,1 -1,0 -1,1Z"/>
<path onmouseover="hoverPath(evt)" onmouseout="recoverPath(evt)" fill="rgb(242,240,231)" d="M  54,10l 0,0 -1,1 0,4 1,1 0,1 1,1 0,3 1,1 0,1 1,1 0,2 1,1 0,1 1,1 1,1 1,1 1,0 1,1 1,0 1,1 0,3 -1,1 7,0 -1,-1 0,-3 1,-1 3,0 1,-1 1,-1 1,0 1,-1 1,0 1,-1 1,0 0,-1 1,-1 1,0 1,-1 1,0 1,-1 2,0 1,1 1,1 0,2 1,1 4,0 1,-1 2,0 0,-1 1,-1 0,-3 -5,0 -1,-1 0,-2 1,-1 1,0 0,-1 1,-1 2,0 1,-1 1,-1 0,-5 1,-1 0,-4 1,-1 2,0 0,-2 1,-1 10,0 1,1 0,1 1,0 1,-1 3,0 1,1 1,0 1,1 0,1 1,1 0,2 2,0 1,1 3,0 0,-1 -1,-1 0,-3 -1,-1 0,-3 -91,0 0,4 -1,1 -2,0 -1,-1 -1,0 -1,1 -2,0 2,1 0,2 -1,1 1,1 0,1 1,1 0,1 1,1 0,1 1,1 0,1 1,1 0,1 4,0 1,1 1,-1 3,0 1,-1 1,0 1,-1 1,0 0,-8 -1,-1 0,-2 1,-1 2,0 1,1 2,0 1,-1 3,0 1,-1 3,0 1,1 0,2 -1,1 -1,0 -1,1 -2,0 -1,1Z"/>
<path onmouseover="hoverPath(evt)" onmouseout="recoverPath(evt)" fill="rgb(250,251,251)" d="M  53,109l 0,-1 -1,-1 0,-5 1,-1 -3,0 -1,-1 1,2 0,1 1,1 0,1 2,4 0,2 1,0 1,1 0,3 1,1 0,1 1,1 0,-2 1,-1 1,0 1,-1 3,0 1,-1 4,0 1,-1 3,0 1,-1 4,0 1,1 0,1 1,1 0,1 1,1 0,1 1,1 0,1 1,1 0,1 1,1 0,1 1,1 0,1 1,1 0,1 1,1 0,1 1,1 0,1 1,1 0,1 1,-1 -1,-1 0,-1 -1,-1 0,-1 -1,-1 0,-1 -1,-1 0,-1 -1,-1 0,-1 -1,-1 0,-1 -1,-1 0,-1 -1,-1 0,-1 -1,-1 0,-1 -1,-1 0,-2 -1,-1 0,-1 -1,-1 0,-1 -1,-1 0,-1 -1,-1 0,-1 -1,-1 0,-1 -1,-1 0,-1 -1,-1 0,-3 1,-1 -2,0 -1,-1 -1,-1 0,-1 -1,-1 0,-1 -1,-1 0,-1 -1,-1 0,-2 -1,-1 0,-1 -1,-1 0,-1 -1,-1 0,-1 -1,-1 0,-1 -1,-1 0,-1 -1,-1 0,-1 -1,-1 0,-2 -1,-1 0,-1 -1,-1 -1,-1 0,-4 1,-1 2,0 0,-1 -5,0 -1,-1 -1,-1 0,-1 -1,-1 0,-1 -1,-1 0,-1 -1,-1 0,-1 -1,-1 0,-1 -1,-1 0,-1 -1,-1 0,-1 -1,-1 0,-1 -1,-1 0,-1 -1,-1 0,-1 -1,-1 0,-1 -1,-1 0,-1 -1,-1 0,-2 -1,-1 0,-1 -1,-1 0,-2 1,-1 1,0 1,-1 1,0 1,-1 2,0 1,-1 2,0 1,-1 4,0 0,-2 -1,-1 0,-1 -1,-1 0,-6 1,-1 1,-1 -1,0 -1,1 0,0 3,-1 2,0 1,-1 2,0 1,-1 1,0 -10,11 0,1 -1,1 -1,0 -1,1 -1,0 -1,1 -3,0 -1,1 -2,0 -1,-1 -4,0 -1,-1 0,-1 -1,-1 0,-1 -1,-1 0,-1 -1,-1 0,-1 -1,-1 0,-1 -1,-1 0,-2 1,-1 -1,0 -1,-1 0,-2 1,-1 2,0 1,-1 3,0 1,1 0,-3 -36,0 0,16 2,0 0,-3 1,-1 2,0 1,-1 2,0 1,-1 3,0 1,1 0,-2 1,-1 2,0 1,-1 2,0 1,-1 4,0 1,1 0,2 2,0 1,1 0,1 1,1 0,1 1,1 0,1 1,1 0,1 1,1 0,1 1,1 0,1 1,1 0,1 1,1 0,1 1,1 0,3 -1,1 -2,0 -1,1 -2,0 0,2 1,1 0,1 1,1 1,1 -1,-2 0,-1 1,-1 1,-1 4,0 1,1 1,1 0,1 1,1 0,1 1,1 0,1 1,1 0,1 1,1 0,1 1,1 0,1 1,1 0,1 1,1 0,1 1,1 0,1 1,1 0,1 1,1 0,1 1,1 0,5 -1,1 -2,0 -1,1 -2,0 -1,1 -2,0 -1,1 -2,0 -1,1 -2,0 -1,1 -2,0 -1,1 -2,0 -1,1 -2,0 -1,1 -10,0 -1,-1 -3,0 -1,-1 -1,0 -1,-1 -2,0 -1,-1 -2,-2 -1,-1 0,-1 -1,0 -1,-1 -1,0 0,3 2,0 1,1 1,1 1,1 1,0 1,1 1,0 1,1 1,0 1,1 3,0 1,1 11,0 1,-1 2,0 1,-1 3,0 1,-1 2,0 1,-1 3,0 1,1 0,-2 1,-1 2,0 1,-1 2,0 1,-1 4,0 1,1 1,0 1,1 0,1 1,1 0,1 1,1 0,1 1,1 0,1 1,1 0,1 1,1 0,1 1,1 0,1 1,1 0,2 1,1 0,2 1,0 1,1 0,1 1,1 0,1 1,1 0,1 1,1 0,1 1,1 0,1 1,1 0,1 1,1 0,2 1,1 1,1 0,1 1,1 0,2 1,1 0,2 -1,1 -1,1 -3,0 -1,1 -3,0 -1,1 -4,0 -1,1 -4,0 -3,-2 0,-2 -24,-78 24,78 -1,2 0,0 1,-2Z"/>
<path onmouseover="hoverPath(evt)" onmouseout="recoverPath(evt)" fill="rgb(243,242,235)" d="M  152,37l 0,3 1,1 0,2 1,1 0,3 1,1 0,2 1,1 0,2 1,1 0,3 1,1 0,3 1,1 0,2 1,1 0,3 1,1 0,2 1,1 0,3 1,1 0,2 1,1 0,3 1,1 0,3 1,1 0,2 1,1 0,3 1,1 0,3 1,-1 2,0 1,-1 1,0 1,-1 2,0 1,-1 2,0 1,-1 2,0 1,-1 1,0 1,-1 2,0 1,-1 0,-4 1,-1 3,0 1,1 0,2 1,0 1,-1 3,0 0,-4 1,-1 5,0 1,1 4,0 1,-1 1,0 1,-1 2,0 1,-1 2,0 1,-1 2,0 1,-1 2,0 1,-1 2,0 1,-1 2,0 1,-1 2,0 1,-1 2,0 1,-1 2,0 1,-1 2,0 1,-1 2,0 1,-1 2,0 1,-1 1,0 0,-3 -1,-1 0,-3 -1,-1 0,-3 -1,-1 0,-2 -1,-1 0,-3 -1,-1 0,-3 -1,-1 0,-3 -1,-1 0,-3 -1,-1 0,-3 -1,-1 0,-2 -1,-1 0,-3 -1,-1 0,-3 -1,-1 0,-1 -1,-1 0,-5 -1,-1 0,-2 -1,0 -1,-1 -2,0 -1,1 -2,0 -1,1 -3,0 -1,1 -2,0 -1,1 -2,0 -1,1 -3,0 0,2 -1,1 -3,0 -1,-1 -1,0 -1,1 -3,0 -1,1 -2,0 -1,1 -2,0 -1,1 -2,0 -1,1 -3,0 -1,1 -2,0 -1,1 -2,0 -1,1 -3,0 -1,1 -2,0 -1,1 -2,0 -1,1 -3,0 0,2 -1,1 -3,0 -1,-1 -1,0 -1,1 -3,0 -1,1 -2,0 -1,1 -2,0 -1,1 -2,0Z"/>
<path onmouseover="hoverPath(evt)" onmouseout="recoverPath(evt)" fill="rgb(240,239,233)" d="M  1,142l -1,0 0,25 1,0 1,-1 3,0 1,1 1,-1 1,0 0,-1 1,-1 1,0 1,-1 1,0 1,-1 2,0 1,-1 2,0 1,-1 2,0 1,-1 2,0 1,-1 1,0 1,-1 2,0 1,-1 2,0 1,-1 2,0 1,-1 1,0 1,-1 2,0 1,-1 1,0 1,-1 2,0 1,-1 1,0 1,-1 1,0 1,-1 2,0 1,-1 1,0 1,-1 1,0 1,-1 2,0 1,-1 1,0 1,-1 1,0 1,-1 1,0 1,-1 1,0 1,-1 2,0 1,-1 1,0 1,-1 2,0 1,-1 1,0 1,-1 1,0 1,-1 1,0 1,-1 1,0 1,-1 2,0 -1,-1 0,-1 -1,-1 0,-1 -1,-1 0,-1 -1,-1 0,-1 -1,-1 0,-1 -1,-1 0,-1 -1,-1 0,-1 -1,-1 0,-1 -1,-1 0,-1 -1,-1 0,-1 -2,0 -1,1 -3,0 -1,1 -4,0 -1,1 -3,0 -1,1 -1,0 0,2 -1,1 0,1 1,1 0,2 1,1 0,4 -1,1 -1,1 -1,1 -1,0 -1,1 -2,0 -1,1 -2,0 0,2 -1,1 -3,0 -1,-1 -1,0 -1,1 -2,0 -1,1 -2,0 -1,1 -2,0 0,2 -1,1 -4,0 -1,-1 -1,0 -1,1 -2,0 -1,1 -5,0 -1,-1 -1,-1 0,-1 -1,-1 0,-1 -3,0 -1,-1 -1,1 -4,0 -1,-1 -2,0 -1,1 1,0 1,1 0,2 -1,1Z"/>
<path onmouseover="hoverPath(evt)" onmouseout="recoverPath(evt)" fill="rgb(244,243,236)" d="M  3,246l -3,0 0,9 22,0 0,-3 -1,-1 0,-1 -1,-1 0,-1 -1,0 -1,-1 -1,-1 -1,0 -1,-1 -2,0 -1,-1 -4,0 -1,1 -3,0 -1,1Z"/>
<path onmouseover="hoverPath(evt)" onmouseout="recoverPath(evt)" fill="rgb(243,242,235)" d="M  15,174l 0,2 1,1 0,1 1,1 0,1 1,1 0,1 1,1 0,1 1,1 0,1 1,1 0,1 1,1 1,0 1,-1 0,0 1,-1 3,0 1,1 1,0 1,-1 2,0 1,-1 2,0 1,-1 2,0 1,-1 2,0 1,-1 3,0 1,1 1,0 0,-2 1,-1 2,0 1,-1 2,0 1,-1 2,0 1,-1 3,0 1,1 1,0 0,-2 1,-1 2,0 1,-1 2,0 1,-1 2,0 1,-1 2,0 1,-1 2,0 1,-1 0,-4 -1,-1 0,-1 -1,-1 0,-1 -1,-1 0,-1 -1,-1 0,-2 -1,-1 0,-2 -1,-1 0,-1 -1,-1 0,-1 -1,1 -1,0 -1,1 -2,0 -1,1 -2,0 -1,1 -1,0 -1,1 -2,0 -1,1 -2,0 -1,1 -1,0 -1,1 -3,0 -1,-1 0,2 -1,1 -1,0 -1,1 -2,0 -1,1 -2,0 -1,1 -1,0 -1,1 -2,0 -1,1 -1,0 -1,1 -2,0 -1,1 -2,0 -1,1 -1,0 -1,1 -1,0 -1,1 -4,0 -1,-1 -1,0 -1,1 -1,0Z"/>
<path onmouseover="hoverPath(evt)" onmouseout="recoverPath(evt)" fill="rgb(237,236,227)" d="M  63,73l 0,1 1,1 0,1 1,1 0,1 1,1 0,1 1,1 0,1 1,1 0,2 1,1 0,1 1,1 0,1 1,1 0,1 1,1 3,0 1,1 2,0 1,-1 2,0 1,-1 3,0 1,-1 5,0 1,1 0,-2 -1,-1 0,-1 -1,-1 0,-1 -2,0 -1,-1 0,-3 1,-1 0,-1 -1,-1 0,-1 -1,-1 0,-2 -2,0 -1,-1 0,-2 1,-1 0,-6 1,-1 1,0 1,-1 1,0 0,-2 1,-1 3,0 1,1 1,0 0,-2 1,-1 3,0 1,-1 0,-2 -1,-1 0,-1 -1,2 -2,0 -1,1 -4,0 -1,1 -3,0 -1,1 -1,1 -2,0 -1,1 -2,0 -1,1 -4,0 -1,1 -2,0 -1,-1 0,-1 -2,0 -1,1 -2,0 -1,1 -3,0 -1,1 -2,0 0,2 1,1 0,0 1,1 0,1 1,1 0,2 1,1 0,1 1,1Z"/>
<path onmouseover="hoverPath(evt)" onmouseout="recoverPath(evt)" fill="rgb(251,203,110)" d="M  79,255l 15,0 0,-2 2,-2 1,0 1,-1 2,0 1,1 0,1 1,-1 0,-1 1,-1 1,-1 1,0 1,-1 2,0 1,-1 3,0 1,1 0,-1 1,-1 0,0 1,-1 2,0 1,-1 2,0 1,1 1,-1 2,0 0,-1 1,-1 1,-1 2,0 1,-1 2,0 1,-1 2,0 1,1 0,1 1,-1 0,-1 1,-1 1,-1 2,0 1,1 0,-1 1,-1 1,-1 2,0 1,-1 1,0 1,-1 2,0 1,-1 3,0 1,1 0,-1 1,-1 1,-1 2,0 1,-1 1,0 1,-1 2,0 1,-1 2,0 1,-1 2,0 1,-1 1,0 1,-1 2,0 1,-1 2,0 1,-1 3,0 1,1 0,-1 1,-1 0,0 1,-1 2,0 1,-1 2,0 1,-1 1,0 1,-1 2,0 1,-1 2,0 1,-1 3,0 1,1 0,-1 1,-1 1,-1 2,0 1,-1 2,0 1,-1 1,0 1,-1 2,0 1,-1 3,0 1,1 0,-1 1,-1 0,0 1,-1 1,0 1,-1 3,0 1,1 2,0 1,-1 0,-1 1,-1 1,-1 2,0 1,-1 2,0 1,-1 2,0 1,-1 1,0 1,-1 2,0 1,-1 2,0 1,-1 2,0 1,-1 2,0 0,-11 -2,0 -1,1 -2,0 -1,1 -1,0 -1,1 -2,0 -1,1 -2,0 -1,1 -3,0 -1,-1 0,1 -1,1 -1,1 -2,0 -1,1 -1,0 -1,1 -3,0 -1,-1 0,-1 -1,1 0,0 -1,1 -2,0 0,1 -1,1 -1,1 -3,0 -1,-1 -3,0 0,2 -1,1 -1,1 -2,0 -1,-1 0,1 -1,1 0,0 -1,1 -2,0 -1,-1 -2,0 -1,1 0,1 -1,1 -1,1 -2,0 -1,-1 0,1 -1,1 -1,1 -2,0 -1,1 -1,0 -1,1 -3,0 -1,-1 0,1 -2,2 -2,0 -1,-1 0,-1 -1,2 -2,0 0,1 -1,1 -1,1 -2,0 -1,-1 0,-1 -1,2 -2,0 0,1 -1,1 -1,1 -2,0 -1,1 -2,0 -1,1 -2,0 -1,1 -2,0 -1,1 -1,0 -1,1 -2,0 -1,1 -2,0 -1,1 -2,0 -1,1 -2,0 -1,1 -2,0 -1,1 -2,0 -1,1 -2,0 -1,1 -2,0 -1,1 -2,0 -1,1 -3,0 -1,1 -2,0 -1,-1 0,1 -1,1 0,0 -1,1 -2,0 -1,-1 -1,0 0,1 -1,1 -1,1 -1,0 -1,1 -2,0 -1,-1 0,-4 -1,-1 0,5 -1,1 0,1 -1,1 -3,0 -1,-1 0,1 -1,1 0,0 -1,1 -3,0 -1,-1 0,0 -1,1 -2,0 0,2 -1,1 -2,0 -1,1 -3,0 -1,-1 0,-2 1,-1 0,-1 -1,0 0,1 -1,3 0,2 -1,1 -2,0 -1,1 -2,0 -1,1 -2,0 -1,1 -2,0 -1,1 -2,0 -1,-1 0,1 -1,1 0,0 -1,1 -2,0 -1,-1 -1,0 0,2 -1,1 -2,0 0,1 24,0 -20,-5 0,-1 1,-1 0,-1 -1,3 20,5Z"/>
<path onmouseover="hoverPath(evt)" onmouseout="recoverPath(evt)" fill="rgb(244,242,235)" d="M  78,149l -2,0 0,1 1,1 0,3 -1,1 0,1 1,1 0,2 1,1 0,1 1,1 0,1 2,0 1,1 0,1 1,1 0,1 1,1 0,1 2,0 1,-1 3,0 1,1 2,0 1,-1 1,0 1,-1 2,0 1,-1 0,-2 1,-1 3,0 1,1 2,0 1,-1 1,0 1,-1 2,0 1,-1 1,0 0,-2 1,-1 2,0 1,1 2,0 1,-1 0,-2 1,-1 3,0 1,1 1,0 1,-1 2,0 1,-1 2,0 1,-1 0,-2 1,-1 3,0 1,1 2,0 1,-1 1,0 1,-1 2,0 1,-1 0,-2 1,-1 2,0 1,-1 6,0 1,1 1,1 1,1 1,1 0,1 1,1 0,3 -1,1 0,4 -1,1 -1,1 -2,0 -1,1 -1,0 -1,1 -2,0 -1,1 0,2 1,1 0,1 1,0 1,-1 2,0 1,-1 2,0 1,-1 2,0 1,-1 2,0 1,-1 2,0 1,-1 2,0 1,-1 1,0 1,-1 2,0 1,-1 2,0 1,-1 2,0 1,-1 3,0 1,-1 2,0 1,-1 3,0 1,-1 2,0 1,-1 -1,0 -1,-1 0,-1 -1,-1 0,-2 1,-1 -5,0 -1,-1 0,-2 1,-1 2,0 0,-2 -1,-1 0,0 -1,-1 0,-1 -1,-1 0,-1 -1,-1 0,-1 -1,-1 0,-1 -1,-1 0,-1 -1,-1 0,-1 -1,-1 0,-1 -1,-1 0,-1 -1,-1 0,-1 -1,-1 0,-1 -1,-1 -1,-1 0,-1 -1,-1 0,-2 -1,-1 0,-1 -1,-1 0,-1 -1,-1 0,-1 -1,0 -1,-1 0,-1 -1,0 -1,1 0,0 -1,1 -1,0 0,2 -1,1 -1,1 -3,0 -1,1 -1,1 -1,0 -1,1 -2,0 -1,1 -1,0 -1,1 -1,0 -1,1 -1,0 -1,1 -2,0 -1,1 -1,0 -1,1 -1,0 -1,1 -1,0 -1,1 -1,0 -1,1 -1,0 -1,1 -1,0 -1,1 -1,0 -1,1 -1,1 -1,0 -1,1 -1,0 -1,1 -1,0 -1,1 -1,0 -1,1 -1,0 -1,1 -1,0 -1,1 -1,0 -1,1 -1,0 -1,1 -1,0 -1,1 -1,0 -1,1 -1,0 -1,1 -1,0 -1,1 -1,0 -1,1 -2,0 -1,1 -1,0 -1,1 -2,0 -1,1 -2,0 -1,1 -2,0 -1,1 -2,0 -1,1 -2,0 -1,1 -2,0 -1,1 -2,0 -1,1 -2,0 107,-3 0,2 -1,1 -2,0 -1,-1 0,-2 1,-1 2,0 1,1 -107,3Z"/>
<path onmouseover="hoverPath(evt)" onmouseout="recoverPath(evt)" fill="rgb(243,241,232)" d="M  101,254l -1,0 -1,-1 -2,0 -1,1 0,1 4,0 1,-1 2,1 152,0 0,-58 -1,0 -1,1 -2,0 -1,1 -2,0 -1,1 -2,0 -1,1 -1,0 -1,1 -2,0 -1,1 -2,0 -1,1 -2,0 -1,1 0,1 -1,1 -1,1 -4,0 -1,-1 -1,0 -1,1 -1,0 -1,1 0,1 -1,1 -2,0 -1,-1 -1,0 -1,1 -2,0 -1,1 -1,0 -1,1 -2,0 -1,1 -2,0 -1,1 0,1 -1,1 -2,0 -1,-1 -1,0 -1,1 -2,0 -1,1 -2,0 -1,1 -1,0 -1,1 -2,0 -1,1 -2,0 -1,1 0,1 -1,1 -2,0 -1,-1 -1,0 -1,1 -2,0 -1,1 -2,0 -1,1 -1,0 -1,1 -2,0 -1,1 -2,0 -1,1 -2,0 -1,1 -1,0 -1,1 -2,0 -1,1 0,1 -1,1 -2,0 -1,-1 -1,0 -1,1 -2,0 -1,1 -1,0 -1,1 -2,0 -1,1 0,2 -1,1 -2,0 -1,-1 0,-1 -1,1 0,1 -1,1 -1,1 -2,0 -1,-1 0,-1 -1,1 -2,0 -1,1 -2,0 -1,1 0,1 -1,1 -2,0 -1,1 -2,0 -1,-1 -1,1 -2,0 -1,1 0,1 -1,1 -2,0 -1,-1 -1,0 -1,1 -2,0 -1,1 -1,0 -1,1 0,1 -1,1 0,2 -2,-1Z"/>
<path onmouseover="hoverPath(evt)" onmouseout="recoverPath(evt)" fill="rgb(216,223,210)" d="M  241,181l 0,0 -1,-1 -1,1 -1,0 0,1 -1,1 -3,0 0,1 -1,1 -3,0 -1,-1 -1,1 -1,0 0,1 -1,1 -2,0 -1,1 -2,0 -1,-1 -1,1 -2,0 -1,-1 0,-1 -1,-1 0,1 -1,1 0,1 -1,1 0,3 -1,1 -4,0 -1,-1 -1,1 -1,0 -1,1 -1,1 -1,0 -1,1 -1,0 -1,1 -2,0 -1,-1 -1,1 -1,0 -1,1 -1,1 0,1 1,1 3,0 1,1 1,-1 0,-1 1,-1 1,-1 4,0 1,1 1,-1 0,-1 1,-1 2,0 1,1 1,-1 0,-2 -1,2 -3,-3 0,0 34,-12 -28,12 4,0 1,1 1,0 1,-1 0,-1 1,-1 2,0 2,-2 2,0 1,1 0,1 1,0 1,-1 1,0 1,-1 2,0 1,-1 0,-1 1,-1 2,0 1,1 1,0 1,-1 2,0 1,-1 2,0 1,-1 1,0 1,-1 2,0 1,-1 3,0 0,-1 -2,0 -1,-1 -1,-1 0,-3 -1,1 -1,0 0,1 1,1 0,0 1,1 0,2 -38,11 28,-12 0,0 3,-1 0,0 -3,1Z"/>
<path onmouseover="hoverPath(evt)" onmouseout="recoverPath(evt)" fill="rgb(236,222,130)" d="M  47,239l 2,0 1,-1 9,0 1,1 1,0 1,-1 1,-1 -2,0 -1,-1 -4,0 -1,-1 -5,0 -1,1 -8,0 0,1 -1,1 -3,0 -1,-1 0,-1 -7,0 -1,-1 -3,0 -1,-1 -1,0 -1,-1 -1,-1 -1,-1 -1,0 -1,-1 -1,-1 -1,-1 -1,-1 -1,-1 -1,-1 -1,-1 -1,0 -1,-1 0,-1 -1,-1 0,-1 -1,-1 -1,-1 -1,-1 0,-1 -1,-1 -1,-1 0,-4 -1,-1 0,-2 -1,-1 0,-1 -1,-1 0,-1 -1,0 0,18 2,0 1,1 1,1 0,1 1,1 1,1 1,1 1,1 1,1 1,1 1,1 1,1 1,1 1,1 0,3 -1,1 -13,0 0,6 2,0 1,-1 3,0 1,-1 6,0 1,1 2,0 1,1 1,0 1,1 1,1 1,0 1,1 0,1 1,1 0,1 1,1 0,4 13,0 0,-2 1,-1 0,-1 -1,-1 0,-1 -1,-1 -1,-1 -1,-1 -1,-1 0,-3 1,-1 4,0 0,-1 1,-1 2,0 1,-1 3,0 1,1Z"/>
<path onmouseover="hoverPath(evt)" onmouseout="recoverPath(evt)" fill="rgb(178,199,223)" d="M  139,119l -1,0 -1,1 -1,0 -1,1 -2,0 -1,1 -1,0 -1,1 -1,0 -1,1 -2,0 -1,1 -1,0 -1,1 -1,0 -1,1 -2,0 -1,1 -1,0 -1,1 0,2 -1,1 -1,1 -3,0 0,1 -1,1 -3,0 0,1 -1,1 -3,0 -1,1 -1,1 -2,0 -1,1 -2,0 -1,1 -2,0 -1,-1 0,-1 -1,1 -1,0 -1,1 -1,0 -1,1 -2,0 -1,1 -1,0 -1,1 -1,0 -1,1 -1,0 -1,1 -1,0 -1,1 3,0 1,-1 2,0 1,-1 2,0 1,-1 2,0 1,-1 2,0 1,-1 2,0 45,-23 -43,22 1,0 2,-1 1,0 2,-1 1,-1 2,0 2,-1 1,-1 1,0 2,-1 1,-1 1,0 2,-1 1,-1 1,0 1,-1 1,0 1,-1 1,0 1,-1 1,0 1,-1 1,0 1,-1 1,0 1,-1 1,0 1,-1 1,0 1,-1 1,-1 1,0 1,-1 1,0 1,-1 1,0 1,-1 1,0 1,-1 1,0 1,-1 1,0 1,-1 1,0 1,-1 2,0 1,-1 1,0 1,-1 1,0 1,-1 1,0 1,-1 2,0 1,-1 1,0 1,-1 1,-1 3,0 1,-1 -2,0 -3,1 -1,1 -2,0 -1,1 -1,0 -1,1 3,-1 0,0 -5,2 -2,0 -1,1 -1,0 -1,1 -1,0 -1,1 3,-1 2,-1 -7,3 -2,0 -1,1 1,0 -4,2 -2,1 -40,20 43,-22Z"/>
<path onmouseover="hoverPath(evt)" onmouseout="recoverPath(evt)" fill="rgb(198,211,195)" d="M  156,217l 1,-1 2,0 1,-1 2,0 1,-1 2,0 1,-1 0,-1 1,-1 2,0 0,-2 -5,0 -1,-1 0,2 -1,1 -2,0 -1,-1 -1,1 -3,0 -1,-1 -1,0 0,1 -1,1 -1,1 -4,0 0,1 -1,1 -1,1 0,1 -1,1 -4,0 -1,-1 -3,0 0,1 -1,1 -1,1 0,1 -1,1 -5,0 -1,-1 -2,0 0,1 -1,1 -2,0 -1,-1 -1,0 0,1 -1,1 -1,0 -1,1 -3,0 0,1 -1,1 -1,1 -1,1 -2,0 -1,-1 -1,0 -1,1 0,0 1,1 0,4 1,-1 1,0 1,-1 0,-1 1,-1 1,-1 2,0 1,1 0,1 1,-1 0,-2 1,-1 2,0 1,1 0,1 1,-1 3,0 1,-1 2,0 1,-1 2,0 1,-1 2,0 1,-1 2,0 1,-1 2,0 1,-1 2,0 1,-1 2,0 1,-1 2,0 1,-1 2,0 1,-1 1,0 1,-1Z"/>
<path onmouseover="hoverPath(evt)" onmouseout="recoverPath(evt)" fill="rgb(253,253,252)" d="M  190,135l 0,0 1,1 0,1 1,1 1,1 0,4 -1,1 3,0 1,1 0,2 -1,1 1,1 0,1 2,0 1,1 0,2 1,1 0,1 1,1 1,1 0,1 1,1 0,1 1,1 0,1 1,1 0,2 1,1 0,1 1,0 1,1 0,-1 -1,-1 0,-1 -1,-1 0,-1 -1,-1 0,-1 -1,-1 0,-1 -1,-1 0,-3 -1,-1 -1,-1 0,-1 -1,-1 0,-1 -1,-1 0,-1 -1,-1 0,-1 -1,-1 0,-3 1,-1 -2,0 -1,-1 -1,-1 -1,-1 0,-1 -1,-1 0,-1 -1,-1 -1,1 9,6 1,0 1,-1 1,0 -3,1 -9,-6 0,-4 -1,-1 -1,-1 0,-1 -1,-1 0,-1 -1,-1 0,-1 -1,-1 0,-1 -1,-1 0,-1 -1,-1 0,-1 -1,-1 0,-1 -1,-1 0,-1 -1,-1 0,-1 -1,-1 0,-1 -1,-1 0,-1 -1,-1 0,-2 -1,-1 -1,0 -1,1 1,0 1,1 0,1 1,1 0,1 1,1 0,1 1,1 0,2 1,1 0,1 1,1 1,1 0,1 1,1 0,1 1,1 0,1 1,1 0,1 1,1 0,1 1,1 0,1 1,1 0,1 1,1 1,0Z"/>
<path onmouseover="hoverPath(evt)" onmouseout="recoverPath(evt)" fill="rgb(180,198,212)" d="M  220,87l -2,0 -1,1 -1,0 -1,1 -2,0 -1,1 -2,0 -1,1 -2,0 -1,1 -2,0 -1,1 -1,0 -1,1 -2,0 -1,1 -2,0 -1,1 -1,0 -1,1 -2,0 -1,1 -2,0 -1,1 -1,1 -3,0 -1,1 -2,0 -1,1 -1,0 0,1 1,0 1,-1 0,0 3,-1 4,-1 1,-1 2,0 1,-1 2,0 1,-1 2,0 1,-1 2,0 1,-1 2,0 1,-1 1,0 1,-1 2,0 1,-1 2,0 1,-1 2,0 1,-1 2,0 1,-1 1,0 1,-1 1,-1 1,1 1,-1 2,0 1,-1 2,0 1,-1 2,0 1,-1 2,0 1,-1 1,0 1,-1 2,0 1,-1 2,0 1,-1 2,0 1,-1 2,0 1,-1 1,-1 2,0 1,-1 3,0 0,-1 -1,0 -3,1 -3,1 -1,1 -2,0 -1,1 -2,0 -1,1 -2,0 -1,1 -2,0 -1,1 -2,0 -1,1 -2,0 -1,1 -2,0 -1,1 -2,0 -1,1 1,0 3,-1 3,-1 3,-1Z"/>
</svg>