<svg width="256" height="256" xmlns="http://www.w3.org/2000/svg"><script> 
var tempColor;
function hoverPath(evt){
obj = evt.target;
tempColor = obj.getAttribute("fill");
obj.setAttribute("fill","red");
//alert(tempColor);
//obj.setAttribute("stroke","red");}
function recoverPath(evt){
obj = evt.target;
obj.setAttribute("fill", tempColor);
//obj.setAttribute("stroke", tempColor);
}</script><path onmouseover="hoverPath(evt)" onmouseout="recoverPath(evt)" fill="rgb(241,241,235)" d="M  61,244l 0,1 1,1 1,1 1,1 1,0 1,1 0,2 1,1 1,1 0,2 92,0 0,-1 -1,-1 0,0 -1,-1 -1,0 -1,-1 0,-2 -1,-1 -1,0 -1,-1 0,-2 -1,-1 -1,-1 -1,0 -1,-1 0,-2 -1,-1 -1,0 -1,-1 0,-2 -1,-1 -1,-1 -1,0 -1,-1 0,-2 -1,-1 -1,0 -1,-1 0,-2 -1,-1 -1,0 -1,-1 0,-1 -1,-1 0,-1 -1,-1 -4,0 -1,-1 -1,-1 0,-1 -1,-1 0,-1 -1,1 -1,0 -1,1 -1,1 -1,0 -1,1 -1,0 -1,1 -1,0 -1,1 -1,0 -1,1 -1,1 -1,0 -1,1 -1,0 -1,1 -1,0 -1,1 -1,0 -1,1 -2,0 -1,1 -2,0 -1,1 -2,0 -1,1 -2,0 -1,1 -2,0 -1,1 -2,0 -1,1 -2,0 -1,1 -2,0 -1,1 -2,0 -1,1 -2,0 -1,1 -2,0 -1,1 -2,0 -1,1 -2,0 -1,1 -3,0 -1,1 -2,0 -1,1 1,1Z"/>
<path onmouseover="hoverPath(evt)" onmouseout="recoverPath(evt)" fill="rgb(244,243,235)" d="M  196,152l 0,1 1,1 1,1 1,1 1,0 1,1 0,2 1,1 1,1 1,1 1,0 1,1 0,2 1,1 1,1 1,1 1,0 1,1 0,2 1,1 1,1 1,1 1,0 1,1 0,2 1,1 1,1 1,1 1,0 1,1 0,2 1,1 1,1 1,1 1,0 1,1 0,1 1,1 0,1 1,1 1,1 1,1 1,0 1,1 0,2 1,1 1,1 1,1 1,0 1,1 0,1 2,0 1,1 1,1 1,1 1,1 1,1 0,2 -1,1 1,1 0,0 1,1 1,1 1,0 1,1 0,2 1,1 1,1 1,1 1,0 1,1 0,1 1,1 0,1 1,0 0,-99 -1,0 -1,1 -1,0 -1,1 -1,0 -1,1 -1,0 -1,1 -1,0 0,2 -1,1 -2,0 -1,-1 -1,1 -2,0 -1,1 -1,0 -1,1 -1,0 -1,1 -1,0 0,2 -1,1 -2,0 -1,-1 -1,1 -1,0 -1,1 -2,0 -1,1 -1,0 -1,1 -1,0 -1,1 -1,0 0,2 -1,1 -2,0 -1,-1 -1,1 -1,0 -1,1 -2,0 -1,1 -1,0 -1,1 -1,0 -1,1 -1,0 -1,1 -1,0 -1,1 -1,0 -1,1 -1,0 -1,1Z"/>
<path onmouseover="hoverPath(evt)" onmouseout="recoverPath(evt)" fill="rgb(244,243,235)" d="M  0,1l 0,69 3,0 1,1 3,0 1,1 3,0 1,1 4,0 1,1 2,0 1,1 4,0 1,1 4,0 1,1 3,0 1,1 4,0 1,1 4,0 1,1 0,3 -1,1 0,5 1,0 1,1 0,1 1,1 0,1 2,0 0,-4 1,-1 6,0 1,-1 1,-1 3,0 0,-1 1,-1 0,-2 1,-1 4,0 1,1 3,0 1,1 3,0 1,1 3,0 1,1 2,0 1,1 1,0 1,1 1,0 1,1 1,0 1,1 1,0 1,1 1,1 1,0 1,1 1,1 1,0 1,1 1,1 1,0 1,1 1,1 1,1 1,1 1,1 1,1 2,0 1,1 1,1 0,4 1,1 1,1 0,1 1,1 2,0 1,1 1,1 0,2 1,0 1,1 0,4 1,1 1,1 0,1 1,1 1,1 0,1 1,1 1,1 0,1 1,1 1,1 2,0 1,1 1,1 0,4 1,1 1,1 0,1 1,1 1,1 0,1 1,1 1,0 1,1 0,1 1,0 1,1 18,0 1,-1 30,0 1,1 3,0 1,-1 1,0 1,-1 1,0 0,-2 1,-1 2,0 1,1 1,0 1,-1 1,0 1,-1 1,0 1,-1 1,0 0,-2 1,-1 1,0 1,-1 2,0 1,1 1,-1 2,0 1,-1 1,0 1,-1 1,0 1,-1 1,0 1,-1 1,0 0,-2 1,-1 2,0 1,1 1,-1 2,0 1,-1 1,0 1,-1 1,0 1,-1 1,0 0,-2 1,-1 2,0 1,1 1,-1 1,0 1,-1 2,0 1,-1 1,0 1,-1 1,0 1,-1 1,0 1,-1 3,0 0,-33 -5,0 -1,1 -5,0 -1,1 -2,0 -1,1 -1,0 -1,1 -1,0 -1,1 -1,0 -1,1 -1,0 -1,1 -2,0 -1,1 -1,0 -1,1 -1,0 -1,1 -1,0 -1,1 -1,0 -1,1 -1,0 -1,1 -1,0 -1,1 -1,0 -1,1 -1,0 -1,1 -1,0 -1,1 -2,0 -1,1 -1,0 -1,1 -5,0 -1,-1 -1,0 -1,-1 -1,0 -1,-1 -1,-1 -1,-1 -1,-1 -1,-1 -1,-1 -1,-1 -1,-1 -1,-1 -1,-1 -1,-1 -1,-1 -1,-1 -1,-1 -1,-1 -1,-1 -1,-1 -7,-7 -1,-1 -3,-3 -1,-1 -1,0 -1,-1 -1,-1 -1,-1 0,-7 1,-1 1,-1 1,0 1,-1 1,0 1,-1 1,-1 1,0 1,-1 1,0 1,-1 1,0 1,-1 1,0 1,-1 1,0 1,-1 1,0 1,-1 1,-1 1,0 1,-1 1,0 1,-1 1,0 1,-1 1,0 1,-1 1,0 1,-1 1,0 1,-1 1,-1 1,0 1,-1 1,0 1,-1 1,0 1,-1 1,0 1,-1 1,0 1,-1 1,0 1,-1 1,-1 1,0 1,-1 1,0 1,-1 1,0 1,-1 1,0 1,-1 1,0 1,-1 1,0 1,-1 1,-1 1,0 1,-1 1,0 1,-1 1,0 1,-1 1,0 1,-1 1,0 1,-1 6,0 1,1 1,0 1,1 1,1 1,1 1,1 1,1 0,1 1,1 1,1 1,1 1,1 1,1 1,1 0,1 1,1 1,1 1,0 0,-41 -77,0 0,1 1,1 0,0 1,1 1,1 1,1 1,1 1,1 1,1 1,1 1,1 1,1 1,0 1,1 1,1 1,1 1,1 1,1 1,1 1,1 1,1 1,1 1,1 1,1 1,1 1,1 1,1 1,0 1,1 1,1 0,6 -1,1 -1,1 -1,1 -1,0 -1,1 -1,0 -1,1 -1,0 -1,1 -1,0 -1,1 -1,0 -1,1 -1,0 -1,1 -1,0 -1,1 -1,0 -1,1 -1,0 -1,1 -1,0 -1,1 -1,0 -1,1 -1,0 -1,1 -1,0 -1,1 -1,0 -1,1 -1,0 -1,1 -1,0 -1,1 -1,0 -1,1 -1,0 -1,1 -1,0 -1,1 -1,1 -1,0 -1,1 -1,0 -1,1 -1,0 -1,1 -1,0 -1,1 -1,0 -1,1 -1,0 -1,1 -1,0 -1,1 -1,0 -1,1 -1,0 -1,1 -1,0 -1,1 -1,0 -1,1 -1,0 -1,1 -1,0 -1,1 -1,0 -1,1 -2,0 -1,1 -2,0 -1,1 -7,0 -1,1 -4,0 -1,-1 -6,0 -1,-1 -1,-1 -1,-1 -1,-1 -1,-1 -1,-1 0,-1 -1,-1 -1,-1 -1,-1 -1,-1 0,-1 -1,-1 -1,-1 -1,-1 0,-1 -1,-1 -1,-1 -1,-1 0,-1 -1,-1 -1,-1 -1,-1 0,-1 -1,-1 -3,0 -1,-1 0,-1 -1,-1 0,-3 -1,-1 0,-2 -1,0 -1,-1 -1,-1 -1,-1 0,-1 -1,-1 -1,-1 -1,-1 0,-1 -1,-1 -1,-1 -1,-1 -1,-1 0,-1 -1,-1 -1,-1 -1,-1 0,-1 -1,-1 -1,-1 -1,-1 0,-1 -1,-1 -1,-1 -1,-1 -1,-1 0,-1 -1,-1 -1,-1 -1,-1 0,-1 -1,-1 -1,-1 -1,-1 0,-1 -1,-1 -1,-1 0,-2 -55,0 -1,1Z"/>
<path onmouseover="hoverPath(evt)" onmouseout="recoverPath(evt)" fill="rgb(243,242,236)" d="M  0,149l 0,30 2,0 1,1 1,0 1,1 0,1 1,1 1,1 0,1 1,1 1,1 1,1 1,1 1,1 1,1 1,0 1,1 0,1 1,1 1,1 0,1 1,1 1,1 1,1 1,1 1,1 1,1 1,1 1,1 1,1 1,0 1,1 0,1 1,1 0,1 1,1 1,1 1,1 1,1 1,1 1,0 1,1 0,1 1,1 0,1 1,1 1,1 1,1 1,1 1,0 1,1 0,1 1,1 0,1 1,1 1,1 1,1 1,1 1,0 1,1 0,1 1,1 0,1 1,1 1,1 1,1 1,1 3,0 1,-1 2,0 1,-1 2,0 1,-1 2,0 1,-1 2,0 1,-1 2,0 1,-1 2,0 1,-1 2,0 1,-1 3,0 1,-1 2,0 1,-1 2,0 1,-1 2,0 1,-1 2,0 1,-1 2,0 1,-1 2,0 1,-1 1,0 1,-1 2,0 1,-1 1,-1 1,0 0,-2 1,-1 2,0 1,1 1,-1 1,0 1,-1 1,-1 1,0 0,-2 1,-1 2,0 1,1 1,-1 0,0 1,-1 1,0 1,-1 1,0 -2,-1 0,0 -1,-1 -1,0 -1,-1 0,-2 -1,-1 -1,-1 -1,0 -1,-1 0,-2 -1,-1 -1,0 -1,-1 0,-2 -1,-1 -1,-1 -1,0 -1,-1 0,-2 -1,-1 -1,0 -1,-1 0,-2 -1,-1 -1,-1 -1,0 -1,-1 0,-2 -1,-1 -1,-1 -1,-1 0,-1 -1,-1 -1,-1 -1,-1 -1,-1 0,-1 -1,-1 -1,-1 -1,-1 0,-1 -1,-1 -3,-3 0,-1 -1,-1 -1,-1 0,-1 -1,0 -1,-1 0,-1 -1,-1 -1,-1 -1,0 -1,-1 -1,-1 -1,0 -1,-1 -1,-1 -1,-1 -1,0 -1,1 -3,0 -1,-1 -1,-1 0,-1 -2,0 -1,-1 -1,-1 -1,-1 -1,0 -1,-1 -1,-1 -1,-1 -1,-1 -1,0 -1,-1 -1,-1 -1,-1 -1,0 -1,-1 -1,-1 -1,-1 -1,0 -1,-1 -5,0 -1,1 -3,0 -1,1 -3,0 -1,1 -3,0 -1,1 -2,0 -1,1 -3,0 -1,1 -2,0 -1,1 -3,0 -1,1 -2,0 -1,1 -3,0 -1,1 -3,0 -1,1 -2,0 -1,1 -3,0 -1,1Z"/>
<path onmouseover="hoverPath(evt)" onmouseout="recoverPath(evt)" fill="rgb(209,220,229)" d="M  0,195l 0,22 1,0 1,-1 1,-1 1,-1 1,0 2,-2 1,-1 0,-1 1,-1 1,0 1,-1 1,-1 1,-1 1,-1 1,0 1,-1 0,-2 -3,-3 -1,-1 -1,-1 -1,-1 -1,0 -1,-1 0,-1 -1,-1 -1,-1 0,-1 -1,-1 -1,-1 -1,-1 -1,-1 -1,-1 -1,0Z"/>
<path onmouseover="hoverPath(evt)" onmouseout="recoverPath(evt)" fill="rgb(244,243,236)" d="M  1,223l -1,0 0,32 46,0 0,-2 -1,-1 0,0 -2,-2 -1,-1 -1,-1 -1,-1 -1,-1 -1,-1 -1,-1 0,-1 -1,-1 -2,-2 -1,-1 -6,-6 -1,-1 -5,-5 0,-1 -2,-2 -1,-1 -1,-1 -1,-1 0,-1 -1,-1 -2,-2 -1,-1 0,-1 -1,1 -1,0 -1,1 -1,1 -1,1 -1,1 -1,1 0,1 -1,1Z"/>
<path onmouseover="hoverPath(evt)" onmouseout="recoverPath(evt)" fill="rgb(250,251,250)" d="M  7,215l 0,0 -1,1 1,0 1,-1 1,-1 1,0 1,-1 1,0 0,-1 1,-1 1,0 1,-1 1,-1 0,-1 1,-1 1,-1 4,0 1,1 1,1 1,1 1,1 1,1 1,1 1,1 1,1 0,1 1,1 0,1 1,0 1,1 1,1 1,1 1,1 1,1 0,1 1,1 0,1 1,0 1,1 1,1 1,1 1,1 1,1 0,1 1,1 0,1 1,0 2,2 1,1 1,1 1,1 1,1 0,5 -1,1 1,1 0,0 1,1 0,1 1,1 1,1 1,1 0,1 1,1 0,2 9,0 0,-1 -1,-1 -1,-1 0,-2 -1,0 -2,-2 -1,-1 -1,-1 0,-1 -1,-1 0,-2 1,-1 1,-1 2,0 1,-1 3,0 1,-1 2,0 1,-1 2,0 1,-1 2,0 1,-1 2,0 1,-1 2,0 1,-1 2,0 1,-1 2,0 1,-1 2,0 1,-1 2,0 1,-1 2,0 1,-1 2,0 1,-1 2,0 1,-1 2,0 1,-1 1,0 1,-1 1,0 1,-1 1,0 1,-1 1,0 2,-2 1,0 1,-1 1,0 1,-1 1,0 1,-1 1,0 1,-1 1,-1 1,0 1,-1 2,0 1,1 0,1 1,1 0,1 1,1 1,0 0,-1 -1,-1 0,0 -1,-1 1,2 0,0 -2,-4 0,-1 1,-1 1,0 1,-1 1,0 0,-2 -1,1 -2,0 -1,-1 0,2 -1,1 -1,0 -1,1 -1,0 -1,1 -1,1 -2,0 -1,-1 0,2 -1,1 -1,0 -1,1 -1,1 -1,0 -1,1 -2,0 -1,-1 0,2 -1,1 -1,0 -1,1 -1,1 -2,0 -1,1 -1,0 -1,1 -2,0 -1,1 -2,0 -1,1 -2,0 -1,1 -2,0 -1,1 -2,0 -1,1 -2,0 -1,1 -3,0 -1,1 -2,0 -1,1 -2,0 -1,1 -2,0 -1,1 -2,0 -1,1 -2,0 -1,1 -2,0 -1,1 -2,0 -1,1 -5,0 -1,-1 -1,-1 -1,-1 -1,-1 -1,-1 0,-1 -1,-1 0,-1 -1,0 -1,-1 -1,-1 -1,-1 -1,-1 -1,-1 0,-1 -1,-1 0,-1 -1,0 -1,-1 -1,-1 -1,-1 -1,-1 -1,-1 0,-1 -1,-1 0,-1 -1,0 -1,-1 -1,-1 -1,-1 -2,-2 -1,-1 0,-1 -1,-1 0,-1 -1,0 -1,-1 -1,-1 -1,-1 -1,-1 -1,-1 -1,-1 -4,-4 0,-1 -1,-1 -1,-1 0,-1 -1,0 -1,-1 -1,-1 -1,-1 -1,-1 -1,-1 -1,-1 -1,-1 0,-1 -1,-1 -1,-1 0,-1 -1,0 -1,-1 -1,0 0,3 2,0 5,5 1,1 0,1 1,1 1,1 0,1 1,0 1,1 1,1 2,2 1,1 1,1 1,1 0,4 -1,1 -1,1 -1,0 -1,1 -2,2 -1,1 -1,0 0,1 -2,2 -1,1 -1,2 -1,-1 -1,1 0,0 -1,1 -1,1 -2,0 0,2 3,0 0,-1 1,-1 1,-1 1,-1 1,-2Z"/>
<path onmouseover="hoverPath(evt)" onmouseout="recoverPath(evt)" fill="rgb(170,197,237)" d="M  15,213l -1,0 0,2 1,1 1,1 1,1 1,1 0,1 2,2 1,1 1,1 1,1 0,1 1,1 1,1 1,1 1,1 1,1 2,2 1,1 1,1 1,1 2,2 1,1 1,1 1,1 1,1 0,1 1,1 1,1 1,1 1,1 1,1 1,1 1,1 1,1 1,1 0,3 7,0 0,-1 -1,-1 0,-1 -1,-1 -1,-1 -1,-1 0,-1 -1,-1 -1,-1 0,-1 -1,0 -1,-1 0,-1 -1,-1 -2,-2 -1,-1 -1,-1 0,-1 -2,0 -5,-5 -1,-1 -1,-1 0,-1 -2,-2 -1,-1 -5,-5 0,-1 -1,-1 -1,-1 -1,-1 -2,-2 -1,-1 -1,-1 -1,-1 0,-1 -2,2Z"/>
<path onmouseover="hoverPath(evt)" onmouseout="recoverPath(evt)" fill="rgb(243,242,234)" d="M  0,117l 0,26 3,0 1,-1 2,0 1,-1 3,0 1,-1 2,0 1,-1 3,0 1,-1 2,0 1,-1 3,0 1,-1 2,0 1,-1 3,0 1,-1 2,0 1,-1 3,0 1,-1 3,0 1,-1 10,0 1,1 1,0 1,1 1,0 1,1 1,1 1,1 1,1 1,1 1,0 1,1 1,1 1,1 1,1 1,0 1,1 1,1 1,1 1,1 1,0 1,1 1,1 1,1 0,1 2,0 1,1 1,1 1,1 1,0 1,1 1,1 1,0 1,1 1,1 1,1 0,1 1,0 1,1 0,1 1,1 1,1 0,1 1,1 2,2 1,1 0,1 1,1 1,1 1,1 0,1 1,1 1,1 1,1 1,1 0,1 1,1 1,1 1,1 0,2 1,0 1,1 1,1 1,1 0,2 1,0 1,1 1,1 0,2 1,0 1,1 1,1 1,1 0,2 1,0 1,1 1,1 0,2 1,0 1,1 1,1 1,1 0,2 1,0 1,1 1,1 1,-1 2,0 1,1 1,-1 1,0 1,-1 1,-1 0,-1 1,-1 2,0 1,-1 1,-1 1,-1 2,0 1,1 1,0 1,-1 1,0 1,-1 1,0 1,-1 1,0 1,-1 1,0 1,-1 1,0 1,-1 1,0 0,-1 1,-1 0,-1 1,-1 0,-1 -1,-1 0,-1 -1,-1 -1,-1 -1,-1 0,-1 -1,-1 -1,-1 0,-1 -1,-1 -1,-1 -1,-1 -1,-1 0,-1 -1,-1 0,-3 1,-1 1,0 0,-1 1,-1 0,-2 1,-1 2,0 1,1 1,-1 0,-2 1,-1 1,0 1,-1 2,0 1,1 1,-1 0,-2 1,-1 1,0 1,-1 1,0 1,-1 2,0 1,1 1,0 1,-1 2,0 1,-1 0,-2 1,-1 1,0 1,-1 0,-1 -15,0 -1,1 -27,0 -1,-1 -2,0 -1,-1 -1,-1 -1,-1 -1,-1 0,-1 -1,-1 -1,-1 0,-1 -1,-1 -1,-1 0,-1 -1,-1 -1,-1 0,-1 -1,-1 -1,-1 -2,0 -1,-1 -1,-1 0,-4 -1,-1 -1,-1 0,-1 -1,-1 -1,-1 0,-1 -1,-1 -2,0 -1,-1 -1,-1 0,-1 -1,-1 -1,-1 0,-4 -1,-1 -1,-1 0,-1 -1,-1 -1,-1 0,-1 -1,-1 -1,-1 -1,-1 -1,-1 -1,-1 -1,0 -1,-1 0,-1 -1,-1 -1,0 -1,-1 -1,-1 -4,0 -1,-1 0,-2 -1,-1 -1,0 -1,-1 -1,0 -1,-1 -2,0 -1,-1 -2,0 -1,-1 -2,0 -1,-1 -3,0 -1,-1 -3,0 -1,-1 -2,0 0,1 -1,1 -3,0 -1,1 -1,1 -6,0 0,4 -1,1 -4,0 -1,-1 0,-1 -1,-1 0,-1 -1,0 -1,-1 0,-7 1,-1 0,-1 -4,0 -1,-1 -4,0 -1,-1 -3,0 -1,-1 -4,0 -1,-1 -4,0 -1,-1 -2,0 -1,-1 -4,0 -1,-1 -3,0 -1,-1 -3,0 -1,-1 -2,0Z"/>
<path onmouseover="hoverPath(evt)" onmouseout="recoverPath(evt)" fill="rgb(237,236,221)" d="M  24,211l -2,-2 -1,-1 -2,0 -1,1 1,1 0,1 1,1 1,1 1,1 1,1 1,1 1,1 1,1 1,1 0,1 1,1 1,1 1,1 1,1 1,1 1,1 1,1 1,1 0,1 1,1 1,1 1,1 1,1 1,1 1,1 2,0 1,1 0,1 1,1 1,1 1,1 1,1 1,1 0,1 1,0 0,-3 -1,-1 0,0 -1,-1 -1,-1 -1,-1 -1,-1 -1,0 -1,-1 0,-1 -1,-1 0,-1 -1,-1 -1,-1 -1,-1 -1,-1 -1,0 -1,-1 0,-1 -1,-1 0,-1 -1,-1 -2,-2 -1,-1 -1,0 -1,-1 0,-1 -1,-1 0,-1 -4,-4Z"/>
<path onmouseover="hoverPath(evt)" onmouseout="recoverPath(evt)" fill="rgb(171,197,238)" d="M  61,141l 0,0 1,1 1,1 1,1 1,1 1,0 1,1 1,1 1,1 2,0 1,1 0,-1 1,1 -1,1 0,0 1,1 1,0 0,-1 -1,0 -3,-3 -1,-1 -1,-1 -1,-1 -1,0 -1,-1 -1,-1 -1,-1 -1,-1 -1,1 -1,0 -1,-1 1,-1 -1,-1 -1,-1 -1,-1 -1,-1 -1,0 -1,-1 -1,0 -1,-1 -8,0 -1,1 -3,0 -1,1 -3,0 -1,1 -2,0 -1,1 -3,0 -1,1 -2,0 -1,1 -3,0 -1,1 -2,0 -1,1 -3,0 -1,1 -2,0 -1,1 -3,0 -1,1 -2,0 -1,1 -4,0 0,1 3,0 2,-1 1,0 2,-1 2,0 2,-1 2,0 1,-1 2,0 2,-1 2,0 1,-1 2,0 2,-1 2,0 1,-1 2,0 2,-1 2,0 1,-1 3,0 1,-1 3,0 1,-1 7,0 1,1 1,0 1,1 1,1 1,1 1,0 1,1 1,0 -1,-1 2,3Z"/>
<path onmouseover="hoverPath(evt)" onmouseout="recoverPath(evt)" fill="rgb(252,252,249)" d="M  63,83l 0,1 2,0 1,1 3,0 1,1 3,0 1,1 2,0 1,1 2,0 1,1 2,0 1,1 1,0 1,1 1,0 1,1 1,1 0,2 4,0 1,1 1,1 1,0 1,1 1,1 0,1 1,0 1,1 1,1 1,1 1,1 1,1 1,1 0,1 1,1 1,1 0,1 1,1 1,1 0,4 1,1 1,1 0,1 1,1 2,0 1,1 1,1 0,1 1,1 1,1 0,1 1,1 1,1 0,4 1,1 2,0 1,1 1,1 1,1 0,1 1,1 1,1 0,1 1,1 1,1 0,1 1,1 1,1 0,1 1,1 1,1 1,1 2,0 1,1 25,0 1,-1 17,0 1,1 0,3 -1,1 -1,1 1,0 1,-1 1,0 1,-1 1,0 1,-1 6,0 1,1 1,1 1,1 1,1 0,-1 -1,-1 0,-1 -1,-1 0,-2 1,-1 1,0 1,-1 1,0 1,-1 1,0 1,-1 1,0 1,-1 1,0 1,-1 1,0 1,-1 1,0 1,-1 2,0 1,-1 1,0 1,-1 2,0 1,1 0,-2 1,-1 1,0 1,-1 1,0 1,-1 1,0 1,-1 2,0 1,-1 1,0 1,-1 2,0 1,1 0,-2 1,-1 1,0 1,-1 1,0 1,-1 1,0 1,-1 2,0 1,-1 2,0 1,1 0,-2 1,-1 1,0 1,-1 1,0 1,-1 1,0 1,-1 1,0 1,-1 2,0 0,-1 -2,0 -1,1 -1,0 -1,1 -1,0 -1,1 -1,0 -1,1 -2,0 -1,1 -1,0 -1,1 -2,0 -1,-1 0,2 -1,1 -1,0 -1,1 -1,0 -1,1 -1,0 -1,1 -2,0 -1,1 -2,0 -1,-1 0,2 -1,1 -1,0 -1,1 -1,0 -1,1 -1,0 -1,1 -1,0 -1,1 -2,0 -1,1 -2,0 -1,-1 -1,1 -1,0 0,2 -1,1 -1,0 -1,1 -1,0 -1,1 -1,0 -1,1 -3,0 -1,-1 0,2 -1,1 -1,0 -1,1 -1,0 -1,1 -5,0 -1,-1 -28,0 -1,1 -20,0 -1,-1 -1,0 -1,-1 0,-1 -1,0 -1,-1 -1,-1 0,-1 -1,-1 -1,-1 0,-1 -1,-1 -1,-1 0,-4 -1,-1 -2,0 -1,-1 -1,-1 -1,-1 0,-1 -1,-1 -1,-1 0,-1 -1,-1 -1,-1 0,-1 -1,-1 -1,-1 0,-4 -1,0 -1,-1 0,-2 -1,-1 -2,0 -1,-1 -1,-1 0,-1 -1,-1 -1,-1 0,-4 -1,-1 -2,0 -1,-1 -1,-1 -2,-2 -1,-1 -1,-1 -1,0 -1,-1 -1,-1 -1,0 -1,-1 -1,-1 -1,0 -1,-1 -1,-1 -1,0 -1,-1 -1,0 -1,-1 -1,0 -1,-1 -1,0 -1,-1 -2,0 -1,-1 -3,0 -1,-1 -3,0 -1,-1 -3,0 -1,-1 -2,0 133,73 -1,1 0,1 1,0 1,1 1,1 1,1 1,1 0,1 1,1 0,1 1,0 1,1 1,1 1,1 1,1 0,2 1,0 1,1 1,1 1,1 0,2 1,0 1,1 1,1 1,1 1,1 0,2 1,0 1,1 1,1 1,1 1,1 0,1 1,1 0,1 1,0 1,1 1,1 1,1 1,1 0,2 1,0 1,1 1,1 1,1 1,1 1,1 0,2 1,0 1,1 1,1 1,1 1,1 0,4 1,1 1,1 1,1 1,0 1,1 1,0 1,1 1,1 1,1 1,1 0,1 1,1 0,1 1,0 1,1 1,1 1,1 1,1 0,2 2,0 0,-3 -2,0 -1,-1 0,-1 -1,-1 0,-1 -1,0 -1,-1 -1,-1 -1,-1 -1,-1 0,-2 -1,0 -1,-1 -1,-1 -1,-1 -1,-1 0,-2 1,-1 -1,-1 0,0 -1,-1 -1,-1 -1,-1 -2,0 -1,-1 0,-1 -1,0 -1,-1 -1,-1 -1,-1 -1,-1 0,-2 -1,0 -1,-1 -1,-1 -1,-1 -1,-1 0,-1 -1,-1 0,-1 -1,0 -1,-1 -1,-1 -1,-1 -1,-1 0,-2 -1,0 -1,-1 -1,-1 -1,-1 -1,-1 0,-2 -1,0 -1,-1 -1,-1 -1,-1 -1,-1 0,-2 -1,0 -1,-1 -1,-1 -1,-1 -1,-1 0,-2 -1,0 -1,-1 -1,-1 -1,-1 -1,-1 0,-2 -1,0 -1,-1 -1,-1 -133,-73Z"/>
<path onmouseover="hoverPath(evt)" onmouseout="recoverPath(evt)" fill="rgb(168,195,236)" d="M  86,36l 0,0 1,1 0,2 1,1 0,3 1,1 0,1 3,0 1,1 1,1 0,1 1,1 1,1 1,1 0,1 1,1 1,1 1,1 0,1 1,1 1,1 1,1 0,1 1,1 1,1 1,1 1,1 0,1 1,1 1,1 1,1 1,1 1,1 6,0 1,1 2,0 1,-1 7,0 1,-1 2,0 1,-1 2,0 1,-1 1,0 1,-1 1,0 1,-1 1,0 1,-1 1,0 1,-1 1,0 1,-1 1,0 1,-1 1,0 1,-1 1,0 1,-1 1,0 1,-1 1,0 1,-1 1,0 1,-1 1,0 1,-1 1,0 1,-1 1,0 1,-1 1,-1 1,0 1,-1 1,0 1,-1 1,0 1,-1 1,0 1,-1 1,0 1,-1 1,0 1,-1 1,0 1,-1 1,0 1,-1 1,0 1,-1 1,0 1,-1 1,0 1,-1 1,0 1,-1 1,0 1,-1 1,0 1,-1 1,0 1,-1 1,0 1,-1 1,0 1,-1 1,0 1,-1 1,0 2,-2 0,-4 -1,-1 -1,0 -1,-1 -1,-1 -1,-1 -1,-1 -1,-1 -1,-1 -1,-1 -1,-1 -1,-1 -1,-1 -1,-1 -1,-1 -1,-1 -1,-1 -1,0 -1,-1 -1,-1 -1,-1 -1,-1 -1,-1 -1,-1 -1,-1 -1,-1 -1,-1 -1,-1 -1,-1 0,-2 -118,0 0,1 1,1 1,1 0,1 1,1 1,1 1,1 0,1 1,1 1,1 1,1 0,1 1,1 1,1 1,1 1,1 0,1 1,1 1,1 1,1 0,1 1,1 2,2 0,1 1,1 1,1 1,1 1,1 0,1 1,1 1,1 1,1 0,1 2,2Z"/>
<path onmouseover="hoverPath(evt)" onmouseout="recoverPath(evt)" fill="rgb(244,243,236)" d="M  132,215l 0,0 1,1 1,1 0,2 1,0 1,1 1,1 0,1 1,1 0,1 1,0 1,1 1,1 0,2 1,0 1,1 1,1 0,2 1,0 1,1 1,1 1,1 0,2 1,0 1,1 1,1 0,2 1,0 1,1 1,1 1,1 0,2 1,0 1,1 1,1 0,2 1,0 2,2 1,1 0,2 93,0 0,-26 -3,0 -1,-1 0,-2 -3,-3 -1,0 -1,-1 0,-1 -1,-1 0,-1 -1,-1 -1,-1 -1,-1 -1,0 -1,-1 -1,0 -1,-1 -1,-1 -1,-1 -1,-1 0,-4 -1,-1 -1,-1 -1,-1 -1,0 -1,-1 0,-2 -1,-1 -1,-1 -1,-1 -1,-1 -1,0 -1,-1 0,-2 -1,-1 -1,-1 -1,-1 -1,0 -1,-1 0,-1 -1,-1 0,-1 -1,-1 -1,-1 -1,-1 -1,0 -1,-1 0,-2 -1,-1 -1,-1 -1,-1 -1,0 -1,-1 0,-2 -1,-1 -1,-1 -1,0 -1,-1 0,-2 -1,-1 -1,-1 -1,-1 -1,0 -1,-1 0,-1 -1,-1 0,-1 -1,-1 -1,-1 -1,-1 -1,0 -1,-1 0,-2 -1,-1 -1,-1 -1,-1 -4,0 -1,1 -1,0 -1,1 -1,0 -1,1 -3,0 -1,1 -1,1 -2,0 -1,1 -2,0 -1,1 -1,0 -1,1 -1,0 -1,1 -1,0 -1,1 -1,1 -1,0 -1,1 -1,0 -1,1 -1,0 -1,1 -1,1 -1,0 -1,1 -1,0 -1,1 0,1 -1,1 -1,0 0,1 1,1 0,1 1,1 1,1 1,1 1,1 0,1 1,1 1,1 0,1 1,1 1,1 1,1 0,1 1,1 0,3 -1,1 0,1 -1,1 0,1 -1,1 -1,0 -1,1 -1,0 -1,1 -1,0 -1,1 -1,0 -1,1 -1,0 -1,1 -1,0 -1,1 -3,0 -1,-1 -1,1 -1,1 -1,1 -2,0 0,1 -1,1 -1,1 0,4 -1,1 -1,0 -1,1Z"/>
<path onmouseover="hoverPath(evt)" onmouseout="recoverPath(evt)" fill="rgb(170,197,238)" d="M  168,63l -1,0 -1,1 0,5 1,1 0,0 1,1 1,0 2,2 1,1 4,4 1,1 4,4 1,1 1,1 1,1 1,1 1,1 1,1 1,1 1,1 1,1 1,1 1,1 1,1 1,1 1,1 1,1 1,1 1,1 1,0 1,1 1,0 1,1 3,0 1,-1 1,0 1,-1 2,0 1,-1 1,0 1,-1 1,0 1,-1 1,0 1,-1 1,0 1,-1 1,0 1,-1 1,0 1,-1 1,0 1,-1 1,0 1,-1 1,0 1,-1 2,0 1,-1 1,0 1,-1 1,0 1,-1 1,0 1,-1 1,0 1,-1 2,0 1,-1 5,0 1,-1 6,0 0,-40 -2,0 -1,-1 -1,-1 -1,-1 0,-1 -1,-1 -1,-1 -1,-1 -1,-1 -1,-1 -1,-1 0,-1 -1,-1 -1,-1 -1,-1 -1,-1 -1,0 -1,-1 -4,0 -1,1 -1,0 -1,1 -1,0 -1,1 -1,0 -1,1 -1,0 -1,1 -1,0 -1,1 -1,1 -1,0 -1,1 -1,0 -1,1 -1,0 -1,1 -1,0 -1,1 -1,0 -1,1 -1,0 -1,1 -1,1 -1,0 -1,1 -1,0 -1,1 -1,0 -1,1 -1,0 -1,1 -1,0 -1,1 -1,0 -1,1 -1,1 -1,0 -1,1 -1,0 -1,1 -1,0 -1,1 -1,0 -1,1 -1,0 -1,1 -1,0 -1,1 -1,1 -1,0 -1,1 -1,0 -1,1 -1,0 -1,1 -1,0 -1,1 -1,0 -1,1 -1,0 -1,1 -1,1 -1,0 -1,1Z"/>
</svg>