<svg width="256" height="256" xmlns="http://www.w3.org/2000/svg"><script> 
var tempColor;
function hoverPath(evt){
obj = evt.target;
tempColor = obj.getAttribute("fill");
obj.setAttribute("fill","red");
//alert(tempColor);
//obj.setAttribute("stroke","red");}
function recoverPath(evt){
obj = evt.target;
obj.setAttribute("fill", tempColor);
//obj.setAttribute("stroke", tempColor);
}</script><path onmouseover="hoverPath(evt)" onmouseout="recoverPath(evt)" fill="rgb(244,242,234)" d="M  0,156l 0,35 2,0 1,-1 6,0 1,-1 4,0 1,-1 3,0 1,-1 2,0 1,-1 4,0 1,-1 7,0 1,-1 8,0 0,-14 -1,-1 0,-15 -1,-1 -24,0 -1,1 -16,0Z"/>
<path onmouseover="hoverPath(evt)" onmouseout="recoverPath(evt)" fill="rgb(244,243,236)" d="M  0,1l 0,22 2,0 1,-1 21,0 1,-1 29,0 1,-1 32,0 1,-1 30,0 1,-1 17,0 1,-1 31,0 1,-1 23,0 1,-1 23,0 1,-1 23,0 1,1 0,2 1,1 0,3 1,1 0,4 1,1 0,3 1,1 0,2 1,1 0,3 1,1 0,2 1,1 0,2 2,0 1,1 0,3 -1,1 0,2 1,1 0,2 1,1 0,2 1,1 0,2 1,1 0,2 1,0 0,-62 -254,0 -1,1Z"/>
<path onmouseover="hoverPath(evt)" onmouseout="recoverPath(evt)" fill="rgb(244,243,237)" d="M  0,30l 0,98 1,0 1,-1 14,0 1,-1 1,-1 1,-1 0,-31 -1,-1 0,-10 -1,-1 0,-1 -1,-1 -1,-1 -1,-1 0,-1 -1,-1 -1,-1 0,-2 -1,-1 0,-5 -1,-1 0,-6 -1,-1 0,-5 -1,-1 0,-6 -1,-1 0,-5 -1,-1 0,-5 -1,-1 0,-3 -1,-1 -3,0 -1,1Z"/>
<path onmouseover="hoverPath(evt)" onmouseout="recoverPath(evt)" fill="rgb(244,243,236)" d="M  0,134l 0,18 15,0 1,-1 26,0 1,1 2,0 1,1 0,11 1,1 0,19 6,0 1,-1 12,0 1,-1 7,0 1,-1 3,0 1,-1 4,0 1,-1 3,0 1,-1 3,0 1,-1 3,0 1,-1 3,0 1,-1 4,0 1,-1 3,0 1,-1 4,0 1,-1 3,0 1,-1 1,0 1,-1 -1,-1 0,-3 -1,-1 0,-3 -1,-1 0,-3 -1,-1 0,-2 -1,-1 0,-2 -1,-1 0,-2 -1,-1 0,-2 -1,-1 0,-2 -1,-1 0,-2 -1,-1 0,-3 -1,-1 0,-3 -1,-1 0,-3 -1,-1 0,-3 -1,-1 0,-3 -1,-1 0,-12 1,-1 0,-9 -1,-1 0,-9 -1,-1 0,-7 -1,-1 0,-5 -1,-1 0,-5 -1,-1 0,-5 -1,-1 0,-5 -1,-1 0,-5 -1,-1 0,-5 -1,-1 0,-6 -1,-1 0,-5 -1,-1 0,-3 -1,0 -1,-1 -1,0 -1,1 -35,0 -1,1 -28,0 -1,1 -13,0 0,5 1,1 0,5 1,1 0,6 1,1 0,7 1,1 0,7 1,1 0,5 1,1 0,2 1,1 0,1 3,3 0,1 1,1 0,2 1,1 0,8 1,1 0,40 -1,1 -1,1 -7,0 -1,1 -15,0 -1,1Z"/>
<path onmouseover="hoverPath(evt)" onmouseout="recoverPath(evt)" fill="rgb(171,198,238)" d="M  0,194l 0,1 3,0 1,-1 5,0 1,-1 5,0 1,-1 4,0 1,-1 3,0 1,-1 4,0 1,-1 12,0 0,-3 -6,0 -1,1 -7,0 -1,1 -4,0 -1,1 -2,0 -1,1 -3,0 -1,1 -4,0 -1,1 -6,0 -1,1 -2,0 -1,1Z"/>
<path onmouseover="hoverPath(evt)" onmouseout="recoverPath(evt)" fill="rgb(244,243,236)" d="M  0,198l 0,10 3,0 1,-1 6,0 1,-1 6,0 1,-1 6,0 1,-1 6,0 1,-1 6,0 1,-1 3,0 0,-9 1,-1 0,-1 -12,0 -1,1 -4,0 -1,1 -3,0 -1,1 -4,0 -1,1 -5,0 -1,1 -5,0 -1,1 -3,0 -1,1Z"/>
<path onmouseover="hoverPath(evt)" onmouseout="recoverPath(evt)" fill="rgb(250,239,140)" d="M  0,212l 0,6 6,0 1,-1 6,0 1,-1 6,0 1,-1 6,0 1,-1 6,0 1,-1 6,0 1,1 0,-1 1,-1 6,0 1,-1 6,0 1,-1 7,0 1,-1 6,0 1,-1 6,0 1,-1 6,0 1,-1 7,0 1,-1 6,0 1,-1 6,0 1,-1 5,0 1,-1 6,0 1,-1 6,0 1,-1 7,0 0,-1 1,-1 2,0 1,-1 6,0 1,-1 6,0 1,-1 6,0 1,-1 7,0 1,-1 5,0 1,-1 7,0 1,-1 6,0 1,-1 5,0 1,-1 6,0 1,-1 5,0 1,-1 6,0 1,-1 6,0 1,-1 5,0 1,-1 6,0 1,-1 5,0 1,-1 9,0 1,-1 4,0 0,-5 -4,0 -1,1 -7,0 -1,1 -6,0 -1,1 -5,0 -1,1 -6,0 -1,1 -6,0 -1,1 -5,0 -1,1 -6,0 -1,1 -5,0 -1,1 -6,0 -1,1 -6,0 -1,1 -6,0 -1,1 -7,0 -1,1 -7,0 -1,1 -6,0 -1,1 -7,0 -1,1 -7,0 -1,1 -5,0 -1,1 -5,0 -1,-1 -5,0 -1,1 -6,0 -1,1 -6,0 -1,1 -6,0 -1,1 -7,0 -1,1 -6,0 -1,1 -6,0 -1,1 -7,0 -1,1 -6,0 -1,1 -6,0 -1,1 -8,0 -1,-1 0,1 -1,1 -3,0 -1,1 -6,0 -1,1 -6,0 -1,1 -6,0 -1,1 -6,0 -1,1 -6,0 -1,1 -4,0Z"/>
<path onmouseover="hoverPath(evt)" onmouseout="recoverPath(evt)" fill="rgb(244,243,235)" d="M  0,221l 0,34 35,0 0,-6 1,-1 0,-6 1,-1 0,-5 1,-1 0,-7 1,-1 0,-7 1,-1 0,-4 -4,0 -1,1 -6,0 -1,1 -6,0 -1,1 -6,0 -1,1 -6,0 -1,1 -6,0 -1,1Z"/>
<path onmouseover="hoverPath(evt)" onmouseout="recoverPath(evt)" fill="rgb(171,198,238)" d="M  2,130l -2,0 0,1 15,0 1,-1 7,0 1,-1 0,-38 -1,-1 0,-8 -1,-1 0,-2 -1,-1 0,-1 -1,-1 -1,-1 -1,-1 0,-1 -1,-1 0,-2 -1,-1 0,-5 -1,-1 0,-7 -1,-1 0,-7 -1,-1 0,-6 -1,-1 0,-5 -1,-1 0,-7 1,-1 13,0 1,-1 28,0 1,-1 35,0 1,-1 3,0 1,1 1,0 1,1 0,3 1,1 0,5 1,1 0,6 1,1 0,5 1,1 0,5 1,1 0,5 1,1 0,5 1,1 0,5 1,1 0,5 1,1 1,0 0,-4 -1,-1 0,-6 -1,-1 0,-6 -1,-1 0,-5 -1,-1 0,-7 -1,-1 0,-7 -1,-1 0,-7 -1,-1 0,-4 1,-1 1,-1 24,0 1,-1 19,0 1,-1 23,0 1,-1 21,0 1,-1 23,0 1,-1 21,0 1,-1 0,-1 -21,0 -1,1 -23,0 -1,1 -23,0 -1,1 -31,0 -1,1 -17,0 -1,1 -30,0 -1,1 -32,0 -1,1 -29,0 -1,1 -21,0 -1,1 -3,0 0,2 5,0 1,1 1,1 0,3 1,1 0,5 1,1 0,5 1,1 0,6 1,1 0,5 1,1 0,6 1,1 0,5 1,1 0,2 1,1 1,1 0,1 1,1 1,1 1,1 0,1 1,1 0,10 1,1 0,33 -1,1 -1,1 -1,1 -1,1 -14,0 -1,1Z"/>
<path onmouseover="hoverPath(evt)" onmouseout="recoverPath(evt)" fill="rgb(244,243,236)" d="M  47,214l -3,0 0,6 -1,1 -2,0 0,7 -1,1 0,7 -1,1 0,5 -1,1 0,6 -1,1 0,5 218,0 0,-55 -1,0 -1,1 -25,0 -1,1 -24,0 -1,1 -37,0 -1,-1 -12,0 -1,1 -13,0 -1,-1 -8,0 -1,1 -6,0 -1,1 -6,0 -1,1 -5,0 -1,1 -6,0 -1,1 -6,0 -1,1 -7,0 -1,1 -6,0 -1,1 -6,0 -1,1 -6,0 -1,1 -7,0 -1,1 -6,0 -1,1Z"/>
<path onmouseover="hoverPath(evt)" onmouseout="recoverPath(evt)" fill="rgb(183,210,166)" d="M  48,186l -2,0 -1,-1 0,0 -1,1 0,3 1,1 0,-1 1,-1 21,0 1,-1 5,0 1,-1 5,0 1,-1 4,0 1,-1 4,0 1,-1 4,0 1,-1 3,0 1,-1 3,0 1,-1 3,0 1,-1 3,0 1,-1 4,0 1,-1 3,0 1,-1 3,0 1,-1 3,0 1,1 0,1 1,1 0,8 1,1 0,4 -1,1 -3,0 5,-1 4,0 1,-1 7,0 1,-1 7,0 1,-1 6,0 1,-1 7,0 1,-1 7,0 1,-1 6,0 1,-1 6,0 1,-1 6,0 1,-1 5,0 1,-1 6,0 1,-1 5,0 1,-1 6,0 1,-1 6,0 1,-1 5,0 1,-1 6,0 1,-1 7,0 1,-1 5,0 0,-29 -1,0 -1,1 -4,0 -1,1 -4,0 -1,1 -4,0 -1,1 -4,0 -1,1 -4,0 -1,1 -4,0 -1,1 -3,0 -1,1 -3,0 -1,1 -3,0 -1,1 -4,0 -1,1 -2,0 -1,-1 -1,-1 0,-4 -1,-1 0,-6 -1,-1 0,-7 -1,-1 0,-7 -1,-1 0,-6 -1,-1 0,-3 -1,-1 0,-1 -2,0 -1,-1 -4,0 -1,-1 -34,0 -1,1 -8,0 -1,1 -17,0 -1,-1 -9,0 -1,-1 -5,0 -1,-1 0,-6 1,-1 0,-2 -1,-1 0,-6 -1,-1 0,-6 -1,-1 0,-7 -2,0 0,5 1,1 0,9 1,1 0,11 -1,1 0,10 1,1 0,3 1,1 0,3 1,1 0,3 1,1 0,3 1,1 0,3 1,1 0,2 1,1 0,2 1,1 0,2 1,1 0,2 1,1 0,2 1,1 0,2 1,1 0,3 1,1 0,3 1,1 0,3 1,1 0,2 -1,1 -1,1 -1,0 -1,1 -3,0 -1,1 -4,0 -1,1 -3,0 -1,1 -4,0 -1,1 -3,0 -1,1 -3,0 -1,1 -3,0 -1,1 -3,0 -1,1 -4,0 -1,1 -3,0 -1,1 -7,0 -1,1 -12,0 -1,1 -6,0 -3,-17 0,-3 -1,-1 0,3 1,1 3,17Z"/>
<path onmouseover="hoverPath(evt)" onmouseout="recoverPath(evt)" fill="rgb(244,243,236)" d="M  48,190l -1,0 0,3 -1,1 0,7 6,0 1,-1 6,0 1,-1 6,0 1,-1 7,0 1,-1 6,0 1,-1 6,0 1,-1 7,0 1,-1 6,0 1,-1 6,0 1,-1 6,0 1,-1 6,0 1,-1 3,0 0,-2 -1,-1 0,-8 -1,-1 0,-1 -1,0 -1,1 -3,0 -1,1 -3,0 -1,1 -4,0 -1,1 -3,0 -1,1 -3,0 -1,1 -3,0 -1,1 -3,0 -1,1 -4,0 -1,1 -4,0 -1,1 -4,0 -1,1 -5,0 -1,1 -5,0 -1,1Z"/>
<path onmouseover="hoverPath(evt)" onmouseout="recoverPath(evt)" fill="rgb(244,243,236)" d="M  102,26l 0,2 1,1 0,7 1,1 0,7 1,1 0,7 1,1 0,5 1,1 0,6 1,1 0,6 1,1 0,5 1,1 0,7 1,1 0,6 1,1 0,6 1,1 0,4 -1,1 0,4 5,0 1,1 9,0 1,1 15,0 1,-1 8,0 1,-1 36,0 1,1 4,0 1,1 2,0 1,1 0,1 1,1 0,3 1,1 0,6 1,1 0,7 1,1 0,7 1,1 0,6 1,1 0,4 1,1 1,-1 4,0 1,-1 3,0 1,-1 3,0 1,-1 3,0 1,-1 4,0 1,-1 4,0 1,-1 4,0 1,-1 4,0 1,-1 4,0 1,-1 4,0 1,-1 2,0 0,-79 -2,0 -1,-1 0,-2 -1,-1 0,-2 -1,-1 0,-2 -1,-1 0,-2 -1,-1 0,-4 1,-1 0,-1 -2,0 -1,-1 0,-2 -1,-1 0,-2 -1,-1 0,-3 -1,-1 0,-2 -1,-1 0,-3 -1,-1 0,-4 -1,-1 0,-3 -1,1 -21,0 -1,1 -23,0 -1,1 -21,0 -1,1 -23,0 -1,1 -19,0 -1,1 -24,0 -1,1Z"/>
<path onmouseover="hoverPath(evt)" onmouseout="recoverPath(evt)" fill="rgb(188,213,140)" d="M  139,200l -2,0 2,1 11,0 1,-1 14,0 1,1 35,0 1,-1 24,0 1,-1 25,0 1,-1 2,0 0,-15 -3,0 -1,1 -9,0 -1,1 -5,0 -1,1 -6,0 -1,1 -5,0 -1,1 -6,0 -1,1 -6,0 -1,1 -5,0 -1,1 -6,0 -1,1 -5,0 -1,1 -6,0 -1,1 -7,0 -1,1 -5,0 -1,1 -7,0 -1,1 -6,0 -1,1 -6,0 -1,1 -6,0 -1,1Z"/>
</svg>