<svg width="256" height="256" xmlns="http://www.w3.org/2000/svg"><script> 
var tempColor;
function hoverPath(evt){
obj = evt.target;
tempColor = obj.getAttribute("fill");
obj.setAttribute("fill","red");
//alert(tempColor);
//obj.setAttribute("stroke","red");}
function recoverPath(evt){
obj = evt.target;
obj.setAttribute("fill", tempColor);
//obj.setAttribute("stroke", tempColor);
}</script><path onmouseover="hoverPath(evt)" onmouseout="recoverPath(evt)" fill="rgb(244,243,235)" d="M  0,1l 0,39 3,0 1,1 5,0 1,1 6,0 1,1 7,0 1,1 5,0 1,1 5,0 1,1 4,0 1,1 5,0 1,1 5,0 1,1 5,0 1,1 4,0 1,1 5,0 1,1 5,0 1,1 4,0 1,1 5,0 1,1 7,0 0,-9 1,-1 0,-9 -1,-1 0,-35 -94,0 -1,1Z"/>
<path onmouseover="hoverPath(evt)" onmouseout="recoverPath(evt)" fill="rgb(243,242,235)" d="M  0,49l 0,82 6,0 1,1 29,0 1,1 29,0 1,1 22,0 1,1 3,0 1,-1 0,0 1,-1 0,-22 1,-1 0,-47 -1,-1 0,0 -1,1 -6,0 -1,-1 -5,0 -1,-1 0,-2 -4,0 -1,-1 -4,0 -1,-1 -5,0 -1,-1 -5,0 -1,-1 -5,0 -1,-1 -5,0 -1,-1 -4,0 -1,-1 -5,0 -1,-1 -5,0 -1,-1 -5,0 -1,-1 -6,0 -1,-1 -6,0 -1,-1 -6,0 -1,-1 -3,0Z"/>
<path onmouseover="hoverPath(evt)" onmouseout="recoverPath(evt)" fill="rgb(171,198,238)" d="M  0,139l 0,19 19,0 1,1 24,0 1,1 26,0 1,1 21,0 0,-18 1,-1 0,-2 -1,-1 -3,0 0,1 -1,1 -20,0 -1,-1 -30,0 -1,-1 -29,0 -1,-1 -6,0 -1,1Z"/>
<path onmouseover="hoverPath(evt)" onmouseout="recoverPath(evt)" fill="rgb(244,243,236)" d="M  0,161l 0,94 88,0 0,-18 1,-1 0,-18 1,-1 0,-14 1,-1 0,-12 1,-1 0,-14 1,-1 0,-11 -22,0 -1,-1 -26,0 -1,-1 -24,0 -1,-1 -17,0 -1,1Z"/>
<path onmouseover="hoverPath(evt)" onmouseout="recoverPath(evt)" fill="rgb(237,234,223)" d="M  16,134l -10,0 -1,-1 -5,0 0,3 8,0 1,1 29,0 1,1 30,0 1,1 18,0 -4,-1 -14,0 -10,-1 -21,0 -6,-1 0,-2Z"/>
<path onmouseover="hoverPath(evt)" onmouseout="recoverPath(evt)" fill="rgb(174,199,237)" d="M  99,142l 0,12 -1,1 0,6 2,0 1,1 28,0 1,1 26,0 1,1 25,0 1,1 23,0 1,1 23,0 1,1 24,0 0,-22 -18,0 -1,-1 -23,0 -1,-1 -25,0 -1,-1 -20,0 0,1 -1,1 -3,0 -1,-1 0,-2 -13,0 -1,1 -7,0 -1,1 -5,0 -1,-1 0,-2 -9,0 -1,1 -7,0 -1,1 -6,0 -1,-1 0,-2 -8,0 -1,1Z"/>
<path onmouseover="hoverPath(evt)" onmouseout="recoverPath(evt)" fill="rgb(244,243,236)" d="M  100,164l -1,-1 -1,0 -1,1 0,14 -1,1 0,11 -1,1 -2,0 0,12 -1,1 0,14 -1,1 0,18 -1,1 0,17 165,0 0,-86 -25,0 -1,-1 -23,0 -1,-1 -23,0 -1,-1 -25,0 -1,-1 -26,0 -1,-1Z"/>
<path onmouseover="hoverPath(evt)" onmouseout="recoverPath(evt)" fill="rgb(244,243,236)" d="M  101,65l 0,0 -1,-1 0,51 -1,1 0,1 1,1 0,2 1,1 0,2 1,1 0,6 1,1 0,3 1,0 1,1 11,0 1,1 24,0 1,1 24,0 1,1 24,0 1,1 25,0 1,1 21,0 1,1 15,0 0,-53 -7,0 -1,-1 -6,0 -1,-1 -5,0 -1,-1 -6,0 -1,-1 -5,0 -1,-1 -6,0 -1,-1 -5,0 -1,-1 -6,0 -1,-1 -6,0 -1,-1 -6,0 -1,-1 -6,0 -1,-1 -6,0 -1,-1 -6,0 -1,-1 -6,0 -1,-1 -5,0 -1,-1 -5,0 -1,-1 -5,0 -1,-1 -5,0 -1,-1 -4,0 -1,-1 -5,0 -1,-1 -5,0 -1,-1 -5,0 -1,-1 -5,0 -1,-1Z"/>
<path onmouseover="hoverPath(evt)" onmouseout="recoverPath(evt)" fill="rgb(244,243,235)" d="M  102,0l -2,0 0,25 1,1 0,2 7,0 1,1 17,0 1,1 19,0 1,1 18,0 1,1 24,0 1,1 16,0 1,1 17,0 1,1 20,0 1,1 3,0 1,-1 4,0 0,-35Z"/>
<path onmouseover="hoverPath(evt)" onmouseout="recoverPath(evt)" fill="rgb(244,243,235)" d="M  101,35l 0,15 -1,1 0,5 1,1 0,2 4,0 1,1 5,0 1,1 6,0 1,1 5,0 1,1 6,0 1,1 5,0 1,1 5,0 1,1 5,0 1,1 5,0 1,1 5,0 1,1 5,0 1,1 6,0 1,1 6,0 1,1 5,0 1,1 6,0 1,1 6,0 1,1 5,0 1,1 5,0 1,1 5,0 1,1 5,0 1,1 5,0 1,1 5,0 1,1 6,0 1,1 5,0 1,1 4,0 0,-44 -2,0 -1,1 -9,0 -1,-1 -19,0 -1,-1 -17,0 -1,-1 -18,0 -1,-1 -22,0 -1,-1 -18,0 -1,-1 -20,0 -1,-1 -17,0 -1,-1 -1,0 -1,1 -1,0Z"/>
<path onmouseover="hoverPath(evt)" onmouseout="recoverPath(evt)" fill="rgb(252,252,252)" d="M  165,34l 0,0 -1,-1 -18,0 -1,-1 -19,0 -1,-1 -17,0 -1,-1 -7,0 -1,-1 0,-2 -1,-1 0,-26 -1,0 0,34 1,1 0,11 -1,1 0,9 -1,1 -9,0 -1,-1 -5,0 -1,-1 -4,0 -1,-1 -5,0 -1,-1 -5,0 -1,-1 -4,0 -1,-1 -5,0 -1,-1 -5,0 -1,-1 -5,0 -1,-1 -4,0 -1,-1 -5,0 -1,-1 -5,0 -1,-1 -7,0 -1,-1 -6,0 -1,-1 -5,0 -1,-1 -2,0 0,2 4,0 1,1 6,0 1,1 6,0 1,1 6,0 1,1 5,0 1,1 5,0 1,1 5,0 1,1 4,0 1,1 5,0 1,1 5,0 1,1 5,0 1,1 5,0 1,1 4,0 1,1 4,0 1,1 0,2 5,0 1,1 4,0 1,-1 2,0 1,1 1,1 1,0 0,-4 -1,-1 0,-7 1,-1 0,-17 1,-1 1,0 64,3 -67,29 0,48 -1,1 0,22 -3,3 0,0 1,1 1,1 0,4 -1,1 0,31 -1,1 0,13 1,-12 0,-1 1,-14 0,-8 1,-1 0,-14 2,-2 10,0 1,1 0,2 4,0 1,-1 7,0 1,-1 11,0 1,1 0,2 3,0 1,-1 7,0 1,-1 15,0 1,1 0,2 1,0 0,-1 1,-1 22,0 1,1 25,0 1,1 23,0 1,1 17,0 -17,-1 -22,-1 -2,0 -24,-1 -2,0 -23,-1 -24,0 -1,-1 -5,0 -37,-75 67,-29 -48,104 -1,0 -1,-1 -5,0 7,1 48,-104 -67,87 0,-2 1,3 0,2 1,1 0,6 1,1 0,3 -3,-21 0,7 67,-87 -59,-3 1,0 17,1 1,0 20,1 19,1 22,0 1,1 18,0 1,1 17,0 1,1 19,0 1,1 7,0 1,-1 -8,0 -20,-1 -18,-1 -17,-1 -2,0 -95,103 -3,0 -1,-1 -22,0 -1,-1 -29,0 -1,-1 0,1 27,1 3,0 21,1 2,0 18,-106 59,3Z"/>
<path onmouseover="hoverPath(evt)" onmouseout="recoverPath(evt)" fill="rgb(171,198,238)" d="M  222,81l 0,0 1,1 5,0 1,1 6,0 1,1 5,0 1,1 6,0 1,1 6,0 0,-1 -5,0 -1,-1 -5,0 -1,-1 -6,0 -1,-1 -5,0 -1,-1 -5,0 -1,-1 -1,0 -1,1 -1,-1 -2,0 -1,-1 -5,0 -1,-1 -5,0 -1,-1 -5,0 -1,-1 -6,0 -1,-1 -6,0 -1,-1 -5,0 -1,-1 -6,0 -1,-1 -6,0 -1,-1 -5,0 -1,-1 -5,0 -1,-1 -5,0 -1,-1 -5,0 -1,-1 -5,0 -1,-1 -5,0 -1,-1 -6,0 -1,-1 -5,0 -1,-1 -6,0 -1,-1 -5,0 -1,-1 -3,0 0,1 1,1 5,0 1,1 5,0 1,1 5,0 1,1 5,0 1,1 5,0 1,1 4,0 1,1 5,0 1,1 5,0 1,1 5,0 1,1 5,0 1,1 6,0 1,1 6,0 1,1 6,0 1,1 6,0 1,1 6,0 1,1 6,0 1,1 6,0 1,1 5,0 1,1 4,0 1,-1 1,1Z"/>
</svg>