<svg width="256" height="256" xmlns="http://www.w3.org/2000/svg"><script> 
var tempColor;
function hoverPath(evt){
obj = evt.target;
tempColor = obj.getAttribute("fill");
obj.setAttribute("fill","red");
//alert(tempColor);
//obj.setAttribute("stroke","red");}
function recoverPath(evt){
obj = evt.target;
obj.setAttribute("fill", tempColor);
//obj.setAttribute("stroke", tempColor);
}</script><path onmouseover="hoverPath(evt)" onmouseout="recoverPath(evt)" fill="rgb(169,196,237)" d="M  0,112l 0,143 255,0 0,-142 -36,0 -1,-1 -34,0 -1,-1 -22,0 -1,-1 -20,0 -1,-1 -20,0 -1,-1 -20,0 -1,-1 -20,0 -1,-1 -20,0 -1,-1 -19,0 -1,-1 -7,0 -1,-1 -9,0 -1,-1 -9,0 -1,-1 -7,0Z"/>
<path onmouseover="hoverPath(evt)" onmouseout="recoverPath(evt)" fill="rgb(243,242,235)" d="M  56,103l 1,1 20,0 1,1 20,0 1,1 20,0 1,1 20,0 1,1 20,0 1,1 22,0 1,1 34,0 1,1 35,0 0,-54 -6,0 0,2 -1,1 -13,0 -1,-1 -10,0 0,2 -1,1 -12,0 -1,1 -21,0 -1,1 -50,0 -1,1 -52,0 -1,-1 0,-2 1,-1 -1,0 -1,-1 0,-4 -52,0 -1,1 -30,0 0,42 8,0 1,1 9,0 1,1 9,0 1,1 7,0 1,1Z"/>
<path onmouseover="hoverPath(evt)" onmouseout="recoverPath(evt)" fill="rgb(254,254,254)" d="M  188,61l -9,0 -1,1 -46,0 -1,1 5,0 43,-1 8,0 1,-1Z"/>
<path onmouseover="hoverPath(evt)" onmouseout="recoverPath(evt)" fill="rgb(170,196,236)" d="M  81,48l -18,0 -1,1 -37,0 -1,1 -24,0 0,5 29,0 1,-1 54,0 1,-1 36,0 1,-1 44,0 1,-1 36,0 1,-1 19,0 1,-1 13,0 1,-1 12,0 1,-1 4,0 0,-7 -1,0 -1,1 -11,0 -1,1 -12,0 -1,1 -12,0 -1,1 -12,0 -1,1 -20,0 -1,1 -38,0 -1,1 -37,0 -1,1Z"/>
<path onmouseover="hoverPath(evt)" onmouseout="recoverPath(evt)" fill="rgb(242,240,232)" d="M  86,59l 34,0 1,1 0,1 9,0 1,-1 46,0 1,-1 32,0 1,1 11,0 0,-2 1,-1 12,0 1,1 11,0 0,-2 1,-1 7,0 0,-6 -3,0 -1,1 -12,0 -1,1 -13,0 -1,1 -19,0 -1,1 -36,0 -1,1 -44,0 -1,1 -36,0 -1,1 0,2 1,1Z"/>
<path onmouseover="hoverPath(evt)" onmouseout="recoverPath(evt)" fill="rgb(243,242,235)" d="M  106,45l 35,0 1,-1 38,0 1,-1 20,0 1,-1 12,0 1,-1 12,0 1,-1 12,0 1,-1 11,0 1,-1 2,0 0,-38 -255,0 0,48 23,0 1,-1 37,0 1,-1 41,0 1,-1Z"/>
</svg>