<svg width="256" height="256" xmlns="http://www.w3.org/2000/svg"><script> 
var tempColor;
function hoverPath(evt){
obj = evt.target;
tempColor = obj.getAttribute("fill");
obj.setAttribute("fill","red");
//alert(tempColor);
//obj.setAttribute("stroke","red");}
function recoverPath(evt){
obj = evt.target;
obj.setAttribute("fill", tempColor);
//obj.setAttribute("stroke", tempColor);
}</script><path onmouseover="hoverPath(evt)" onmouseout="recoverPath(evt)" fill="rgb(241,239,232)" d="M  10,47l 0,-2 -1,0 -1,-1 -4,0 -1,-1 -2,-2 -1,0 0,32 2,0 1,1 1,-1 2,0 2,2 1,1 2,0 1,1 0,1 1,1 1,1 1,0 1,1 1,1 1,1 1,0 1,1 2,2 1,-1 2,0 1,1 1,1 1,1 1,1 3,0 1,-1 4,0 1,1 1,1 0,6 -1,1 -1,0 -1,1 -6,0 0,1 -1,1 -7,0 2,1 0,1 1,1 0,4 -1,1 8,0 0,-5 1,-1 9,0 1,1 0,1 1,1 0,1 1,1 1,1 1,0 1,1 1,1 1,1 1,1 1,-1 2,0 1,1 1,1 1,1 1,0 1,1 1,1 1,0 1,1 2,0 1,-1 1,-1 1,-1 1,-1 1,-1 1,-1 1,-1 1,-1 1,-1 1,-1 1,-1 1,-1 1,-1 1,-1 1,-1 1,-1 1,-1 1,-1 1,-1 1,-1 1,-1 -1,0 -1,-1 0,0 -1,-1 -1,-1 -1,0 -1,-1 -1,-1 -1,0 -1,-1 -1,-1 -1,0 -1,-1 -1,-1 -1,0 -1,-1 -1,0 -1,-1 -1,-1 0,-2 -1,-1 -1,1 -2,0 -1,-1 -1,-1 -1,0 -1,-1 -1,-1 0,-2 -2,0 -1,1 -2,0 -1,-1 0,-2 -1,0 -1,-1 -2,0 -1,-1 0,-1 -1,0 -1,-1 -1,-1 -1,0 -1,-1 -1,-1 -1,0 -1,-1 -1,-1 -1,0 -1,-1 -1,-1 -1,0 -1,-1 -1,-1 -1,0 -1,-1 -1,0 -1,-1 -1,-1 -1,0 -1,-1 -1,-1 -1,0 -1,-1 -1,-1 -1,0 -1,-1 -1,-1 -1,0 -1,-1 -1,-1 -1,0 -1,-1 -1,0 -2,-2Z"/>
<path onmouseover="hoverPath(evt)" onmouseout="recoverPath(evt)" fill="rgb(243,242,233)" d="M  90,99l 0,-2 -1,1 0,0 -2,2 -1,1 -2,2 -1,1 -1,1 -1,1 -1,1 -1,1 -5,5 -1,1 -2,2 -1,1 -1,1 -1,1 -1,1 0,3 1,1 1,0 1,1 1,-1 2,0 1,1 1,0 1,1 1,0 1,1 1,0 1,1 1,0 1,1 1,0 1,1 1,0 1,1 1,0 1,1 1,0 1,1 0,2 1,1 1,0 1,1 1,0 1,-1 4,0 2,-2 0,-1 1,-1 1,0 1,-1 1,-1 1,-1 1,-1 1,-1 2,-2 1,-1 1,-1 0,-1 1,-1 1,-1 1,-1 1,-1 1,-1 -1,-1 0,0 -1,-1 -1,0 -1,-1 -1,-1 -1,0 -1,-1 -1,-1 -1,0 -1,-1 -1,-1 -1,0 -1,-1 -1,-1 -1,0 -1,-1 -1,0 -1,-1 -1,-1 -1,0 -1,-1 -1,-1 -1,0 -1,-1 -1,-1 -1,0 -1,-1Z"/>
<path onmouseover="hoverPath(evt)" onmouseout="recoverPath(evt)" fill="rgb(244,243,235)" d="M  145,136l 0,0 -1,-1 -1,0 -2,2 -1,1 -2,2 -1,1 -1,1 -1,1 -1,1 -1,1 -5,5 -1,1 -1,1 0,3 1,1 1,0 1,1 1,-1 2,0 1,1 1,1 1,1 1,0 1,1 1,1 1,0 1,1 1,1 0,2 1,1 1,1 1,0 1,1 1,1 1,-1 2,0 1,1 1,1 1,0 1,1 1,1 0,2 1,1 1,1 1,0 1,1 1,1 1,-1 2,0 1,1 1,1 1,0 1,1 1,1 0,2 1,1 1,-1 2,0 1,1 1,1 1,1 1,0 1,1 1,1 1,0 1,1 1,1 0,2 1,1 1,-1 2,0 1,1 1,1 1,1 1,0 1,1 1,1 1,1 1,0 1,1 1,1 1,0 1,1 1,1 1,1 1,0 1,1 1,1 1,1 1,0 1,1 1,1 1,0 1,1 1,1 1,0 1,1 2,0 1,-1 1,-1 1,-1 2,-2 1,-1 1,-1 1,-1 1,-1 1,-1 1,0 1,-1 1,-1 2,-2 1,-1 1,-1 1,-1 1,-1 0,-2 -1,-1 0,0 -1,-1 -1,0 -1,-1 -1,0 -1,-1 -1,-1 -1,0 -1,-1 -1,-1 -1,0 -1,-1 -1,-1 -1,0 -1,-1 -1,-1 -1,0 -1,-1 -1,-1 -1,0 -1,-1 0,-1 -2,0 -1,-1 -1,0 -1,-1 -1,-1 -1,0 -1,-1 -1,-1 -1,0 -1,-1 -1,-1 -1,0 -1,-1 -1,-1 -1,0 -1,-1 -1,-1 -1,0 -1,-1 -1,0 -1,-1 -1,-1 -1,0 -1,-1 -1,-1 -1,0 -1,-1 -1,-1 -1,0 -1,-1 -1,-1 -1,0 -1,-1 -1,-1 -1,0 -1,-1 -1,-1 -1,0 -1,-1 -1,0 -1,-1 -1,-1 -1,0 -1,-1 -1,-1 -1,0 -1,-1 -1,-1 -1,0 -1,-1 -1,-1 -1,0 -1,-1 -1,-1 -1,0 -1,-1 -1,-1 -1,0 -1,-1 -1,0 -1,-1 -1,-1Z"/>
<path onmouseover="hoverPath(evt)" onmouseout="recoverPath(evt)" fill="rgb(242,241,233)" d="M  17,113l 0,2 8,0 1,1 0,3 1,1 1,1 2,0 1,1 1,1 1,0 1,1 1,1 1,0 1,1 1,0 1,1 1,1 1,0 1,1 1,0 1,1 1,1 1,0 1,1 1,0 1,1 1,1 1,0 1,1 1,0 1,1 1,1 2,0 1,1 1,1 1,1 1,0 1,1 0,2 1,1 1,-1 2,0 1,1 0,2 1,1 1,-1 2,0 1,1 0,2 1,1 1,-1 2,0 1,1 0,2 1,1 1,-1 2,0 1,1 1,1 1,0 1,1 1,0 1,1 1,1 1,0 1,1 1,0 1,1 1,1 2,0 3,3 1,0 1,1 1,0 1,1 1,1 4,0 1,1 1,-1 1,-1 1,-1 1,-1 1,-1 1,-1 1,-1 1,-1 1,-1 0,-3 1,-1 1,-1 -1,-1 0,0 -1,-1 -1,0 -1,-1 -1,0 -1,-1 0,-2 -1,-1 -1,0 -1,-1 -1,0 -1,-1 -1,0 -1,-1 -1,0 -1,-1 -1,0 -1,-1 -1,-1 0,-2 -5,0 -1,1 -3,0 -1,-1 -1,0 -1,-1 -1,-1 -1,0 -1,-1 -1,0 -1,-1 -1,0 -1,-1 -1,0 -1,-1 -1,0 -1,-1 0,-2 -1,0 -1,-1 -1,0 -1,-1 -1,0 -1,-1 -1,1 -2,0 -1,-1 -1,0 -1,-1 -1,-1 0,-4 -1,-1 -3,0 -1,-1 -1,1 -2,0 -1,-1 -1,-1 -1,0 -1,-1 -1,-1 -1,-1 -1,0 -1,-1 -1,-1 -1,-1 -1,-1 -1,0 -1,-1 -1,-1 -1,-1 0,-1 -1,-1 0,-1 -7,0 0,5 -1,1 -10,0 -1,-1 0,-2 1,-1 0,-2 -1,-1 0,-1 -1,0 -1,-1 0,-2 1,-1 7,0 0,-1 1,-1 6,0 1,-1 1,0 0,-4 -1,-1 -2,0 -1,1 -5,0 -1,-1 -1,-1 -1,-1 -1,-1 -1,1 -2,0 -1,-1 -1,-1 -1,-1 -1,1 -2,0 -1,-1 -1,-1 -1,-1 0,-2 -1,-1 -1,-1 0,-1 -2,0 -1,-1 -1,-1 -1,-1 -1,1 -2,0 -1,-1 -1,0 0,32 2,0 1,-1 2,0 1,-1 2,0 1,1 1,1 3,0 1,1 2,0 1,1 0,4 84,24 1,0 0,-1 1,-1 1,-1 1,-1 1,-1 1,-1 1,-1 1,-1 1,-1 1,0 0,-1 1,-1 1,-1 1,-1 1,0 0,-1 1,-1 1,-1 1,-1 1,-1 1,-1 1,-1 -2,0 0,1 -1,1 -1,1 -1,1 -1,1 -1,1 -11,11 -2,3 -84,-24Z"/>
<path onmouseover="hoverPath(evt)" onmouseout="recoverPath(evt)" fill="rgb(244,243,236)" d="M  64,72l 0,0 1,1 0,1 1,1 1,1 6,0 1,1 1,0 1,1 1,1 1,0 1,1 1,1 1,0 2,2 1,0 1,1 1,1 1,0 1,1 1,1 1,0 1,1 1,1 1,0 1,1 0,1 2,0 1,1 1,0 1,1 1,1 1,0 1,1 1,1 1,0 1,1 1,1 1,0 1,1 1,0 1,1 1,1 1,0 1,1 1,1 1,0 1,1 1,1 1,0 1,1 1,0 1,1 1,1 1,0 1,1 1,1 1,0 1,1 1,1 1,0 1,1 1,1 1,0 1,1 1,1 1,0 1,1 1,1 1,0 1,1 1,1 1,0 1,1 1,1 1,0 1,1 1,1 1,0 1,1 1,0 1,1 1,1 1,1 1,0 1,1 1,0 1,1 1,1 1,0 1,1 1,1 1,0 1,1 1,1 1,0 1,1 1,1 1,0 1,1 1,1 1,0 1,1 0,1 2,0 1,1 1,0 1,1 1,1 1,0 1,1 1,1 1,0 1,1 1,1 1,0 1,1 1,1 1,0 1,1 1,1 1,0 1,1 0,1 2,0 1,1 1,0 1,1 1,1 1,0 1,1 1,1 1,0 1,1 1,1 1,0 1,1 1,1 1,0 1,1 1,1 1,0 1,1 0,1 2,0 1,1 1,0 1,1 1,1 1,0 1,1 1,1 1,0 1,1 1,1 1,0 1,1 1,1 1,0 1,1 1,1 1,0 1,1 1,0 1,1 1,1 1,0 1,1 1,1 1,0 1,1 1,0 1,1 1,1 1,0 1,1 1,1 1,0 1,1 1,1 1,0 1,1 1,1 1,0 1,1 2,0 0,-179 -4,0 -1,-1 -3,0 -1,-1 -4,0 -1,-1 -3,0 -1,-1 -3,0 -1,-1 -3,0 -1,-1 -3,0 -1,-1 -4,0 -1,-1 -3,0 -2,-2 -1,0 -1,-1 -1,-1 -1,-1 0,-1 -211,0 0,30 2,0 1,1 1,0 1,1 1,1 1,0 1,1 1,1 1,0 1,1 1,1 1,0 1,1 1,1 1,0 1,1 1,0 1,1 1,1 1,0 1,1 1,1 1,0 1,1 1,1 1,0 1,1 1,1 1,0 1,1 1,1 1,0 1,1 0,1 2,0 1,1 1,0 1,1 1,1 1,0 1,1 1,1 1,0 1,1 1,1 1,0 1,1 1,1 1,0 1,1 0,1 2,0 1,1 1,0 1,1 1,1 1,0 1,1 1,1 0,2 1,1 1,0 1,1Z"/>
<path onmouseover="hoverPath(evt)" onmouseout="recoverPath(evt)" fill="rgb(243,242,233)" d="M  118,160l -2,2 -1,1 -1,1 -1,1 -1,1 -1,1 -1,1 -1,1 1,1 1,1 1,0 1,1 1,1 1,0 1,1 0,2 1,1 1,-1 2,0 1,1 1,1 1,0 1,1 1,0 1,1 1,1 1,0 1,1 1,1 1,0 1,1 0,2 1,1 1,-1 2,0 1,1 1,1 1,0 1,1 1,0 1,1 1,1 1,0 1,1 1,0 1,1 1,1 1,0 1,1 1,0 1,1 0,2 1,1 1,1 1,0 1,1 1,0 1,1 1,1 1,0 1,1 1,1 1,0 1,1 1,-1 2,0 1,1 1,0 1,1 1,1 1,1 2,0 1,1 2,0 1,1 0,2 1,0 1,-1 4,0 1,1 0,2 1,1 1,0 1,1 1,1 1,1 0,1 1,1 0,1 1,1 0,1 1,0 1,1 1,1 1,1 0,1 2,0 1,1 1,1 1,1 3,3 0,1 1,0 1,1 1,0 1,1 1,1 1,1 1,1 1,-1 1,0 1,-1 1,0 1,-1 1,-1 1,-1 1,-1 1,-1 3,-3 1,-1 1,-1 1,0 0,-1 -1,-1 0,0 -1,-1 -1,0 -1,-1 -1,-1 -1,0 -1,-1 -1,-1 -1,-1 0,-2 -1,-1 -1,1 -2,0 -1,-1 -1,0 -1,-1 -1,-1 -1,-1 -1,0 -1,-1 0,-2 -1,-1 -1,0 -1,-1 -1,-1 -1,0 -1,-1 -1,-1 -1,-1 -1,0 -1,-1 -1,-1 -1,-1 -1,1 -2,0 -1,-1 -1,-1 -1,0 -1,-1 -1,-1 -1,-1 0,-2 -1,-1 -1,-1 -1,1 -2,0 -1,-1 -1,-1 0,-2 -1,-1 -1,0 -1,-1 -1,-1 -1,0 -1,-1 -1,-1 -1,-1 -1,1 -2,0 -1,-1 -1,-1 0,-2 -1,-1 -1,0 -1,-1 -1,-1 -1,1 -2,0 -1,-1 -1,-1 -1,0 -1,-1 -1,-1 -1,-1 -1,0 -1,-1 -1,-1 0,-2 -1,-1 -1,1 -2,0 -1,-1 -1,-1 -1,0 -1,-1 -1,-1 -1,-1 0,-2 -1,-1 -1,0 -1,-1 -1,-1 -1,0 -1,-1 -1,-1 -1,-1 -1,1 -2,0 -1,-1 -1,0 -1,-1 -1,-1 0,-5 1,-1 1,-1 1,-1 1,-1 1,-1 1,-1 1,-1 1,-1 1,-1 1,-1 1,-1 1,-1 1,-1 1,-1 1,-1 1,-1 1,-1 1,-1 1,-1 -1,0 -19,19 -3,0 -1,-1 2,2 0,2 -1,1 -1,1 0,3 -1,1Z"/>
<path onmouseover="hoverPath(evt)" onmouseout="recoverPath(evt)" fill="rgb(242,241,232)" d="M  123,120l 0,-2 -1,1 -1,1 -1,1 -1,1 -1,1 -1,1 0,1 -1,1 -1,0 -1,1 -1,1 0,1 -1,1 -1,0 -1,1 -2,2 -1,1 -1,1 -1,1 -1,1 0,1 -1,1 1,1 1,0 1,1 1,0 1,1 1,0 1,1 1,0 1,1 1,0 1,1 1,1 1,0 1,1 1,0 1,1 1,0 1,1 2,0 1,-1 3,-3 1,-1 1,-1 1,-1 1,-1 1,-1 1,-1 1,-1 1,-1 1,-1 1,-1 1,-1 1,-1 1,-1 -1,-1 0,0 -1,-1 -1,0 -1,-1 -1,-1 -1,0 -1,-1 -1,-1 -1,0 -1,-1 -1,-1 -1,0 -1,-1 -1,-1 -1,0 -1,-1 -1,-1Z"/>
<path onmouseover="hoverPath(evt)" onmouseout="recoverPath(evt)" fill="rgb(171,198,239)" d="M  215,0l -2,0 1,1 0,0 1,1 1,0 1,1 1,1 3,0 1,1 4,0 1,1 3,0 1,1 3,0 1,1 3,0 1,1 3,0 1,1 4,0 1,1 3,0 1,1 3,0 0,-12Z"/>
<path onmouseover="hoverPath(evt)" onmouseout="recoverPath(evt)" fill="rgb(243,242,233)" d="M  218,246l 0,0 1,1 1,1 1,1 1,1 0,1 1,0 1,1 1,1 0,2 30,0 0,-49 -1,0 -1,1 -3,3 -1,1 -1,1 0,2 -1,1 -3,0 -1,1 -1,1 -1,1 -1,1 -1,1 -1,1 -1,1 -1,1 -1,1 -1,1 -1,1 0,3 -1,1 -2,0 -1,1 -2,0 -1,-1 -1,1 0,0 -4,4 -1,1 -4,4 -1,0 -1,1 -1,0 0,1 1,1 0,0 1,1 1,0 1,1 1,1 34,-1 0,2 -1,1 -2,0 -1,-1 0,-1 -1,-1 0,-2 1,-1 2,0 1,1 0,1 1,1 -34,1Z"/>
<path onmouseover="hoverPath(evt)" onmouseout="recoverPath(evt)" fill="rgb(244,242,235)" d="M  0,118l 0,77 6,0 1,1 0,1 1,1 0,6 1,1 0,-2 1,-1 8,0 1,1 11,0 1,1 11,0 1,-1 11,0 1,1 0,2 10,0 1,1 11,0 1,1 10,0 1,1 12,0 1,1 1,0 1,1 0,-8 -1,-1 0,-14 -1,-1 0,-13 1,-1 0,-1 1,-1 1,-1 1,0 1,-1 -1,-1 -4,0 -1,-1 -1,-1 -1,1 -2,0 -1,-1 0,-2 -1,-1 -1,-1 -2,0 -1,-1 -1,-1 -1,1 -2,0 -1,-1 0,-2 -1,-1 -1,1 -2,0 -1,-1 0,-2 -1,-1 -1,1 -2,0 -1,-1 -1,-1 -1,0 -1,-1 -1,0 -1,-1 -1,-1 -1,0 -1,-1 -1,0 -1,-1 -1,-1 -1,0 -1,-1 -1,0 -1,-1 -1,-1 -1,0 -1,-1 0,-2 -1,-1 -1,-1 -2,0 -1,-1 -1,-1 -1,1 -2,0 -1,-1 0,-2 -1,-1 -1,1 -2,0 -1,-1 0,-2 -1,-1 -1,1 -2,0 -1,-1 0,-2 -1,-1 -1,1 -2,0 -1,-1 0,-2 -1,-1 -1,0 -1,-1 -1,-1 -2,0 -1,-1 -1,-1 -1,-1 0,-3 -8,0 -1,-1 0,-6 -2,0 -1,-1 -3,0 -1,-1 -1,-1 -1,1 -2,0 -1,1 -3,0Z"/>
<path onmouseover="hoverPath(evt)" onmouseout="recoverPath(evt)" fill="rgb(244,243,235)" d="M  11,206l 0,8 -1,1 -2,0 -1,-1 0,-8 -1,-1 0,-6 -1,-1 0,-1 -5,0 0,58 106,0 0,-5 1,-1 0,-10 -1,-1 0,-13 -1,-1 0,-9 -2,0 -1,-1 0,-2 -1,0 -1,-1 -12,0 -1,-1 -10,0 -1,-1 -11,0 -1,-1 -10,0 -1,-1 0,-2 -9,0 -1,1 -13,0 -1,-1 -11,0 -1,-1 -6,0Z"/>
<path onmouseover="hoverPath(evt)" onmouseout="recoverPath(evt)" fill="rgb(244,243,236)" d="M  219,218l 0,1 1,1 1,1 1,0 1,1 1,1 1,0 1,1 1,1 1,1 0,3 1,-1 2,0 0,-3 1,-1 5,-5 1,-1 4,-4 1,-1 3,0 0,-2 2,-2 1,-1 4,-4 -2,0 -1,-1 -1,-1 0,-1 -2,0 -1,-1 -1,0 -1,-1 -1,-1 -1,0 -1,-1 -1,-1 -1,0 -1,-1 0,-2 -2,0 -1,-1 -2,0 0,2 -1,1 -1,1 -1,1 -1,1 -1,1 -1,1 -1,1 -1,1 -1,1 -1,0 -1,1 -1,1 -1,1 -1,1 -2,2 -1,1 -1,1 -1,1 -1,1 -3,0 1,1 0,0 1,1 1,0 1,1 1,-1 2,0 1,1 1,1Z"/>
<path onmouseover="hoverPath(evt)" onmouseout="recoverPath(evt)" fill="rgb(246,235,139)" d="M  67,79l 0,0 1,1 1,1 0,2 1,1 1,0 1,1 1,0 1,1 1,1 1,0 1,1 1,1 1,0 1,1 1,1 1,0 1,1 1,1 1,1 1,0 1,1 0,2 1,-1 1,-1 2,0 1,1 0,2 1,0 1,1 1,1 1,0 1,1 1,1 1,0 1,1 1,1 1,0 1,1 1,0 1,1 1,1 1,0 1,1 1,1 1,0 1,1 1,1 1,0 1,1 1,1 1,0 1,1 1,1 4,0 1,1 1,0 1,1 0,2 1,1 1,0 1,1 1,1 1,0 1,1 1,1 1,0 1,1 1,1 1,0 1,1 1,1 1,0 1,1 1,1 3,0 1,1 0,1 1,1 0,1 2,0 1,1 1,1 1,0 1,1 1,0 1,1 1,1 1,0 1,1 1,1 1,0 1,1 1,1 1,0 1,1 1,1 1,0 1,1 1,1 1,0 1,1 1,1 1,0 1,1 1,0 1,1 1,1 1,0 1,1 1,1 1,0 1,1 1,1 1,0 1,1 1,1 1,0 1,1 1,1 1,0 1,1 1,1 1,0 1,1 1,0 1,1 1,1 1,0 1,1 1,1 1,0 1,1 1,1 1,0 1,1 1,1 1,0 1,1 1,1 1,0 1,1 2,0 1,1 0,1 1,0 1,1 1,1 1,0 1,1 1,1 1,0 1,1 1,1 1,0 1,1 1,1 1,0 1,1 1,1 1,0 1,1 1,0 1,1 1,1 1,1 3,0 1,1 2,0 1,1 0,2 1,0 1,1 1,1 1,0 1,1 1,1 1,0 1,1 2,0 1,1 0,1 1,1 3,0 0,-7 -3,0 -1,-1 -1,0 -1,-1 -1,-1 -1,0 -1,-1 -1,-1 -1,0 -1,-1 -1,-1 -1,0 -1,-1 -1,-1 -1,0 -1,-1 -1,0 -1,-1 -1,-1 -1,0 -1,-1 -1,-1 -1,0 -1,-1 -1,0 -1,-1 -1,-1 -1,0 -1,-1 -1,-1 -1,0 -1,-1 -1,-1 -1,0 -1,-1 -1,-1 -1,0 -1,-1 -1,-1 -1,0 -1,-1 -2,0 -1,-1 0,-1 -1,0 -1,-1 -1,-1 -1,0 -1,-1 -1,-1 -1,0 -1,-1 -1,-1 -1,0 -1,-1 -1,-1 -1,0 -1,-1 -1,-1 -1,0 -1,-1 -2,0 -1,-1 0,-1 -1,0 -1,-1 -1,-1 -1,0 -1,-1 -1,-1 -1,0 -1,-1 -1,-1 -1,0 -1,-1 -1,-1 -1,0 -1,-1 -1,-1 -1,0 -1,-1 -2,0 -1,-1 0,-1 -1,0 -1,-1 -1,-1 -1,0 -1,-1 -1,-1 -1,0 -1,-1 -1,-1 -1,0 -1,-1 -1,-1 -1,0 -1,-1 -1,-1 -1,0 -1,-1 -1,0 -1,-1 -1,-1 -1,-1 -1,0 -1,-1 -1,0 -1,-1 -1,-1 -1,0 -1,-1 -1,-1 -1,0 -1,-1 -1,-1 -1,0 -1,-1 -1,-1 -1,0 -1,-1 -1,-1 -1,0 -1,-1 -1,-1 -1,0 -1,-1 -1,-1 -1,0 -1,-1 -1,-1 -1,0 -1,-1 -1,-1 -1,0 -1,-1 -1,0 -1,-1 -1,-1 -1,0 -1,-1 -1,-1 -1,0 -1,-1 -1,-1 -1,0 -1,-1 -1,0 -1,-1 -1,-1 -1,0 -1,-1 -1,-1 -1,0 -1,-1 -1,-1 -1,0 -1,-1 -2,0 -1,-1 0,-1 -1,0 -1,-1 -1,-1 -1,0 -1,-1 -1,-1 -1,0 -1,-1 -1,-1 -1,0 -1,-1 -1,-1 -1,0 -1,-1 -1,-1 -1,0 -1,-1 -1,-1 -1,0 -1,-1 -4,0 -1,1 -1,-1 -1,-1 -1,-1 -1,-1 0,-1 -1,0 -1,-1 -1,0 -1,-1 -1,-1 0,-2 -1,-1 -1,0 -1,-1 -1,-1 -1,0 -1,-1 -2,0 -1,-1 0,-1 -1,0 -1,-1 -1,-1 -1,0 -1,-1 -1,-1 -1,0 -1,-1 -1,-1 -1,0 -1,-1 -1,-1 -1,0 -1,-1 -2,0 -1,-1 0,-1 -1,0 -1,-1 -1,-1 -1,0 -1,-1 -1,-1 -1,0 -1,-1 -1,-1 -1,0 -1,-1 -1,-1 -1,0 -1,-1 -1,-1 -1,0 -1,-1 -1,0 -1,-1 -1,-1 -1,0 -1,-1 -1,-1 -1,0 -1,-1 -1,-1 -1,0 -1,-1 -1,-1 -1,0 -1,-1 -1,0 0,7 2,0 2,2 1,1 4,0 1,1 1,0 1,1 0,2 1,1 1,0 1,1 1,0 1,1 1,1 1,0 1,1 1,1 1,0 1,1 1,1 1,0 1,1 1,1 1,0 1,1 1,1 1,0 1,1 1,0 1,1 1,1 1,0 1,1 1,1 1,0 1,1 1,1 1,0 1,1 1,1 1,0 1,1 1,1 1,0 1,1 0,1 2,0 1,1 1,0 1,1 0,2 1,-1 4,0 1,1 0,2 1,1 1,0 1,1 1,1 1,-1 1,-1 1,1Z"/>
<path onmouseover="hoverPath(evt)" onmouseout="recoverPath(evt)" fill="rgb(244,243,235)" d="M  105,174l 0,0 -1,1 0,11 1,1 0,14 1,1 0,11 1,1 0,9 1,1 0,13 1,1 0,12 -1,1 0,4 115,0 0,-1 -1,-1 -1,0 -1,-1 0,-1 -1,-1 -1,-1 -1,-1 -1,-1 -1,-1 -1,0 -1,-1 -1,-1 -1,-1 0,-1 -1,0 -1,-1 -1,-1 -1,-1 -1,-1 -1,0 -1,-1 -1,0 -1,-1 0,-1 -1,-1 -1,-1 -1,-1 -1,-1 -1,-1 -2,0 -1,-1 0,-1 -1,-1 -1,-1 -1,0 -1,-1 0,-1 -1,-1 0,-1 -1,-1 0,-1 -1,-1 -1,-1 -1,0 -1,-1 -1,-1 0,-2 -2,0 -1,1 -3,0 -1,-1 0,-2 -2,0 -1,-1 -2,0 -1,-1 -1,-1 -1,-1 -1,1 -2,0 -1,-1 -1,0 -1,-1 -1,0 -1,-1 -1,-1 -1,0 -1,-1 -1,-1 -1,0 -1,-1 -1,0 -1,-1 -1,-1 -1,-1 -1,0 -1,-1 -1,0 -1,-1 0,-2 -1,-1 -1,1 -2,0 -1,-1 0,-2 -1,-1 -1,1 -2,0 -1,-1 0,-2 -1,-1 -1,1 -2,0 -1,-1 -1,-1 -1,0 -1,-1 0,-2 -1,-1 -1,0 -1,-1 -1,-1 -1,1 -2,0 -1,-1 0,-2 -1,-1 -1,1 -2,0 -1,-1 -1,-1 -1,0 -1,-1 0,-2 -1,-1 -1,1 -2,0 -1,-1 -1,-1 -1,1Z"/>
</svg>