<svg width="256" height="256" xmlns="http://www.w3.org/2000/svg"><script> 
var tempColor;
function hoverPath(evt){
obj = evt.target;
tempColor = obj.getAttribute("fill");
obj.setAttribute("fill","red");
//alert(tempColor);
//obj.setAttribute("stroke","red");}
function recoverPath(evt){
obj = evt.target;
obj.setAttribute("fill", tempColor);
//obj.setAttribute("stroke", tempColor);
}</script><path onmouseover="hoverPath(evt)" onmouseout="recoverPath(evt)" fill="rgb(244,243,236)" d="M  0,2l 0,11 29,0 1,-1 18,0 1,-1 5,0 1,-1 3,0 1,-1 1,0 1,-1 2,0 1,-1 1,0 1,-1 1,0 1,-1 1,0 1,-1 1,0 1,-1 2,0 0,-3 -74,0Z"/>
<path onmouseover="hoverPath(evt)" onmouseout="recoverPath(evt)" fill="rgb(243,242,233)" d="M  0,20l 0,19 2,0 1,-1 13,0 1,-1 14,0 1,-1 14,0 1,-1 15,0 1,-1 9,0 1,-1 1,0 1,-1 0,-24 -1,1 -1,0 -1,1 -1,1 -1,0 -1,1 -1,0 -1,1 -2,0 -1,1 -2,0 -1,1 -2,0 -1,1 -3,0 -1,1 -9,0 -1,1 -16,0 -1,1 -26,0 -1,1Z"/>
<path onmouseover="hoverPath(evt)" onmouseout="recoverPath(evt)" fill="rgb(244,243,235)" d="M  0,188l 0,67 122,0 0,-4 1,-1 0,-5 -3,0 -1,-1 -8,0 -1,-1 -15,0 -1,-1 -5,0 0,1 -1,1 0,3 -1,1 -2,0 -1,-1 0,-6 1,-1 0,-1 1,-1 11,0 1,1 15,0 1,1 10,0 0,-4 1,-1 2,0 0,-7 1,-1 0,-5 -1,0 -1,-1 -1,-1 0,-12 1,-1 0,-6 1,-1 0,-3 1,-1 0,-4 1,-1 2,0 0,-1 -1,-1 0,-2 -1,0 -1,-1 -33,0 -1,1 -59,0 -1,-1 -30,0 -1,-1 -3,0Z"/>
<path onmouseover="hoverPath(evt)" onmouseout="recoverPath(evt)" fill="rgb(243,242,235)" d="M  39,100l 0,0 1,1 2,0 1,1 3,0 1,1 5,0 1,1 6,0 1,1 6,0 1,1 14,0 1,-1 10,0 1,-1 5,0 1,-1 3,0 1,-1 5,0 1,-1 5,0 1,-1 7,0 1,-1 10,0 1,-1 5,0 1,-1 4,0 1,-1 4,0 1,-1 2,0 1,-1 2,0 1,-1 2,0 1,-1 2,0 1,-1 1,0 1,-1 1,0 1,-1 1,0 1,-1 1,0 1,-1 1,0 1,-1 1,0 1,-1 1,0 1,-1 1,0 1,-1 1,0 1,-1 2,0 1,-1 5,0 1,-1 7,0 1,1 5,0 1,1 4,0 1,1 6,0 1,1 21,0 1,1 11,0 1,1 6,0 0,-86 -170,0 0,2 -1,1 -1,0 -1,1 -1,1 -2,0 0,26 1,1 0,1 1,0 1,1 2,0 1,1 0,2 -1,1 -6,0 -1,1 -11,0 -1,1 -15,0 -1,1 -14,0 -1,1 -15,0 -1,1 -12,0 -1,1 -5,0 0,51 15,0 1,1 6,0 1,1 3,0 1,1 5,0 1,1 1,1Z"/>
<path onmouseover="hoverPath(evt)" onmouseout="recoverPath(evt)" fill="rgb(254,254,254)" d="M  1,183l 3,0 1,1 30,0 1,1 57,0 1,-1 35,0 1,1 1,0 1,1 0,0 1,-1 1,0 0,-3 -1,1 -40,0 -1,1 -53,0 -1,-1 -30,0 -1,-1 -5,0 -1,1 -1,-1 0,1 132,5Z"/>
<path onmouseover="hoverPath(evt)" onmouseout="recoverPath(evt)" fill="rgb(244,243,236)" d="M  24,110l 0,0 -1,-1 0,-6 -3,0 -1,-1 -9,0 -1,-1 -9,0 0,79 8,0 1,1 30,0 1,1 51,0 1,-1 40,0 1,-1 2,0 1,1 0,5 -1,1 -1,0 0,2 -1,1 0,2 -1,1 -2,0 0,4 -1,1 0,3 -1,1 0,6 -1,1 0,10 1,1 1,0 1,1 0,7 -1,1 0,7 -1,1 -2,0 0,4 -1,1 -12,0 -1,-1 0,1 -1,-1 -14,0 -1,-1 0,1 -1,-1 -8,0 0,1 -1,1 1,0 -1,1 0,3 35,-3 3,0 1,1 0,7 -1,1 0,3 59,0 0,-3 -1,-1 0,-8 1,-1 0,-7 1,-1 2,0 0,-5 -1,-1 0,-4 1,-1 0,-2 1,-1 0,-1 1,-1 1,0 1,-1 0,-1 1,-1 2,0 1,-1 1,-1 2,0 1,1 1,-1 0,0 1,-1 1,0 1,-1 1,-1 1,0 1,-1 0,-2 1,-1 1,-1 1,0 1,-1 1,-1 1,0 1,-1 1,-1 1,-1 2,0 1,1 1,-1 0,-1 1,-1 0,-1 1,-1 0,-1 1,-1 0,-4 1,-1 0,-6 1,-1 0,-5 1,-1 0,-6 1,-1 0,-5 -1,-1 0,-7 1,-1 0,-5 1,-1 0,-6 1,-1 0,-6 1,-1 0,-2 1,-1 0,-1 1,-1 1,-1 0,-2 1,-1 5,0 1,1 0,4 2,0 1,1 2,0 1,1 3,0 1,1 7,0 0,-42 -8,0 -1,-1 -8,0 -1,-1 -17,0 -1,-1 -10,0 -1,-1 -4,0 -1,-1 -3,0 -1,-1 -13,0 -1,1 -2,0 -1,1 -1,0 -1,1 -1,1 -1,0 -1,1 -1,0 -1,1 -1,0 -1,1 -1,0 -1,1 -2,0 -1,1 -1,0 -1,1 -1,0 -1,1 -1,0 -1,1 -2,0 -1,1 -2,0 -1,1 -3,0 -1,1 -3,0 -1,1 -4,0 -1,1 -4,0 -1,1 -9,0 -1,1 -9,0 -1,1 -6,0 -1,1 -5,0 -1,1 -3,0 -1,1 -4,0 -1,1 -6,0 -1,1 -9,0 -1,1 -9,0 -1,-1 -10,0 -1,-1 -6,0 -1,-1 -5,0 -1,-1 -4,0 -1,-1 -3,0 -1,-1 -2,0 0,3 -1,1 -9,0 113,66 -1,-1 0,-2 1,-1 0,-1 1,-1 0,-1 1,-1 0,-1 1,-1 0,-1 1,-1 2,0 1,1 0,2 -1,1 0,1 -1,1 0,1 -1,1 0,1 -1,1 0,1 -1,1 -2,0 -113,-66Z"/>
<path onmouseover="hoverPath(evt)" onmouseout="recoverPath(evt)" fill="rgb(183,201,226)" d="M  36,102l -3,0 -1,-1 -1,-1 -5,0 -1,-1 -3,0 -1,-1 -6,0 -1,-1 -14,0 0,2 10,0 1,1 9,0 1,1 3,0 1,1 0,6 7,0 0,-3 1,-1 4,0 1,1 3,0 1,1 0,-2 -1,-1 -2,0 -1,-1Z"/>
<path onmouseover="hoverPath(evt)" onmouseout="recoverPath(evt)" fill="rgb(170,198,237)" d="M  55,13l -5,0 -1,1 -18,0 -1,1 -30,0 0,2 26,0 1,-1 16,0 1,-1 9,0 1,-1 1,-1 1,1 1,0 1,-1 2,0 1,-1 2,0 1,-1 2,0 1,-1 1,0 1,-1 1,0 1,-1 1,-1 1,0 1,-1 0,-1 -1,0 -1,1 -1,0 -1,1 -1,0 -1,1 -1,0 -1,1 -1,0 -1,1 -2,0 -1,1 -1,0 -1,1 -3,0 0,2 -1,-1Z"/>
<path onmouseover="hoverPath(evt)" onmouseout="recoverPath(evt)" fill="rgb(249,250,252)" d="M  77,7l 0,26 -1,1 -1,1 -1,0 -1,1 -9,0 -1,1 -15,0 -1,1 -14,0 -1,1 -14,0 -1,1 -13,0 -1,1 -3,0 0,1 4,0 1,-1 12,0 1,-1 15,0 1,-1 14,0 1,-1 15,0 1,-1 11,0 1,-1 6,0 -3,-1 -1,0 -1,-1 0,-1 -1,-26 0,-3 1,-1 2,0 1,-1 1,-1 1,0 0,-1 -7,0 0,5 1,1Z"/>
<path onmouseover="hoverPath(evt)" onmouseout="recoverPath(evt)" fill="rgb(244,243,236)" d="M  192,218l 0,0 -1,1 -1,1 -1,0 0,1 -1,1 0,2 -1,1 0,2 1,1 0,7 -1,1 -2,0 0,7 -1,1 0,6 1,1 0,4 70,0 0,-119 -8,0 -1,-1 -3,0 -1,-1 -2,0 -1,-1 -2,0 -1,-1 0,-4 -3,0 0,1 1,1 0,2 -1,1 -1,1 -2,0 0,2 -1,1 0,6 -1,1 0,6 -1,1 0,5 -1,1 0,5 1,1 0,7 -1,1 0,6 -1,1 0,5 -1,1 0,6 -1,1 0,4 -1,1 0,1 -1,1 0,1 -1,1 0,1 -1,1 -1,1 -2,0 -1,-1 -1,1 -1,1 -1,1 -1,0 -2,2 -1,0 -1,1 0,2 -1,1 -1,1 -1,0 -1,1 -1,1 -1,0 -1,1 -1,1 -2,0 -1,-1 -1,1 -1,1 -1,0 -1,1Z"/>
<path onmouseover="hoverPath(evt)" onmouseout="recoverPath(evt)" fill="rgb(170,198,238)" d="M  220,87l 0,0 1,1 17,0 1,1 8,0 1,1 7,0 0,-2 -7,0 -1,-1 -11,0 -1,-1 -14,0 -1,1 -1,-1 -5,0 -1,-1 -6,0 -1,-1 -4,0 -1,-1 -5,0 -1,-1 -5,0 -1,1 -5,0 -1,1 -2,0 -1,1 -1,0 -1,1 -1,0 -1,1 -1,0 -1,1 -1,0 -1,1 -1,0 -1,1 -1,0 -1,1 -1,0 -1,1 -1,0 -1,1 -1,0 -1,1 -2,0 -1,1 -2,0 -1,1 -2,0 -1,1 -2,0 -1,1 -4,0 -1,1 -4,0 -1,1 -5,0 -1,1 -10,0 -1,1 -7,0 -1,1 -5,0 -1,1 -5,0 -1,1 -3,0 -1,1 -5,0 -1,1 -10,0 -1,1 -16,0 -1,-1 -6,0 -1,-1 -6,0 -1,-1 -5,0 -1,-1 -1,0 0,2 2,0 1,1 5,0 1,1 6,0 1,1 10,0 1,1 7,0 1,-1 9,0 1,-1 6,0 1,-1 4,0 1,-1 3,0 1,-1 5,0 1,-1 6,0 1,-1 9,0 1,-1 9,0 1,-1 4,0 1,-1 4,0 1,-1 3,0 1,-1 3,0 1,-1 2,0 1,-1 2,0 1,-1 1,0 1,-1 1,0 1,-1 1,0 1,-1 2,0 1,-1 1,0 1,-1 1,0 1,-1 1,0 1,-1 1,0 1,-1 1,-1 1,0 1,-1 2,0 1,-1 15,0 1,1 3,0 1,1 4,0 1,1 8,0 1,-1 1,1Z"/>
</svg>