<svg width="256" height="256" xmlns="http://www.w3.org/2000/svg"><script> 
var tempColor;
function hoverPath(evt){
obj = evt.target;
tempColor = obj.getAttribute("fill");
obj.setAttribute("fill","red");
//alert(tempColor);
//obj.setAttribute("stroke","red");}
function recoverPath(evt){
obj = evt.target;
obj.setAttribute("fill", tempColor);
//obj.setAttribute("stroke", tempColor);
}</script><path onmouseover="hoverPath(evt)" onmouseout="recoverPath(evt)" fill="rgb(244,243,235)" d="M  0,94l 0,40 2,0 1,1 16,0 0,-2 1,-1 1,-1 0,-1 1,-1 0,-1 1,-1 1,0 1,-1 2,0 1,1 3,0 1,1 6,0 1,1 13,0 1,-1 1,0 0,-2 1,-1 2,0 1,-1 6,0 1,1 0,2 4,0 1,1 4,0 1,1 3,0 1,1 4,0 1,1 4,0 1,1 4,0 1,-1 5,0 1,1 0,2 4,0 1,1 4,0 1,-1 5,0 1,1 0,2 3,0 1,1 4,0 1,-1 5,0 1,1 0,2 4,0 1,1 4,0 1,-1 5,0 1,1 0,2 3,0 1,1 4,0 1,-1 6,0 1,1 0,2 3,0 1,1 4,0 1,-1 6,0 1,1 0,2 3,0 1,1 4,0 1,-1 6,0 1,1 0,2 3,0 1,1 4,0 1,-1 6,0 1,1 0,2 3,0 1,1 4,0 1,-1 6,0 1,1 0,2 3,0 1,1 3,0 1,1 4,0 1,1 3,0 1,1 4,0 1,1 3,0 1,1 2,0 0,-19 -2,0 -1,-1 -3,0 -1,-1 -4,0 -1,-1 -8,0 -1,-1 -5,0 -1,-1 -3,0 -1,-1 -2,0 -1,-1 -2,0 -1,-1 -2,0 -1,-1 -4,0 -1,-1 -18,0 -1,-1 -4,0 -1,-1 -4,0 -1,-1 -3,0 -1,-1 -6,0 -1,-1 -7,0 -1,-1 -8,0 -1,-1 -7,0 -1,-1 -7,0 -1,-1 -6,0 -1,-1 -6,0 -1,-1 -5,0 -1,-1 -6,0 -1,-1 -7,0 -1,-1 -6,0 -1,-1 -6,0 -1,-1 -7,0 -1,-1 -2,0 -1,-1 -3,0 -1,-1 -10,0 -1,1 -24,0 -1,-1 -1,0 -1,-1 -1,0 -1,-1 -1,0 -1,-1 -1,-1 -1,-1 -1,-1 -1,-1 -1,-1 0,-1 -1,-1 -1,-1 -1,-1 0,-1 -1,-1 -1,-1 -1,-1 -1,-1 -1,-1 -1,-1 -2,0 -1,-1 -3,0 -1,-1 -3,0 -1,-1 -4,0 -1,-1 -1,1Z"/>
<path onmouseover="hoverPath(evt)" onmouseout="recoverPath(evt)" fill="rgb(244,243,236)" d="M  29,86l -1,0 0,4 -2,2 -1,1 -1,1 0,2 1,1 0,0 1,1 1,1 1,1 0,1 1,1 1,1 1,1 0,1 1,1 1,1 1,1 1,1 1,0 1,1 1,0 1,1 3,0 1,1 10,0 1,-1 9,0 1,-1 8,0 1,1 4,0 1,1 4,0 1,1 3,0 1,1 7,0 1,1 6,0 1,1 7,0 1,1 7,0 1,1 6,0 1,1 6,0 1,1 6,0 1,1 7,0 1,1 7,0 1,1 10,0 1,1 9,0 1,1 6,0 1,1 4,0 1,1 5,0 1,1 15,0 1,1 8,0 1,1 2,0 1,1 1,0 1,1 2,0 1,1 1,0 1,1 3,0 1,1 10,0 1,1 6,0 1,1 2,0 1,1 1,0 0,-23 -3,0 -1,-1 -8,0 -1,-1 -6,0 -1,1 -8,0 -1,-1 0,-2 -6,0 -1,1 -8,0 -1,-1 0,-2 -6,0 -1,1 -8,0 -1,-1 0,-2 -6,0 -1,1 -9,0 -1,-1 0,-2 -7,0 -1,-1 -7,0 -1,-1 -6,0 -1,1 -8,0 -1,-1 0,-2 -6,0 -1,1 -8,0 -1,-1 0,-2 -6,0 -1,1 -8,0 -1,-1 -3,0 -1,-1 -1,-1 0,-35 1,-1 0,-13 -8,0 -1,-1 -16,0 -1,-1 -23,0 -1,-1 -17,0 -1,-1 -13,0 1,1 0,1 1,1 1,1 1,1 1,1 1,1 0,1 1,1 0,1 1,1 0,1 1,1 0,2 1,1 0,3 1,1 0,13 -1,1 -1,1 0,1 -1,1 -2,0 -1,1 0,1 -1,1 -1,0 -1,1 -1,1Z"/>
<path onmouseover="hoverPath(evt)" onmouseout="recoverPath(evt)" fill="rgb(244,243,236)" d="M  96,254l -5,0 0,1 4,0 1,-1 3,1 67,0 0,-8 -1,-1 0,-6 -1,1 -4,0 -1,1 -5,0 -1,1 -5,0 -1,1 -6,0 -1,1 -4,0 -1,1 -4,0 -1,1 -4,0 -1,1 -4,0 -1,1 -2,0 -1,1 -4,0 -1,1 -4,0 -1,1 -6,0 -1,1 -1,2 -3,-1Z"/>
<path onmouseover="hoverPath(evt)" onmouseout="recoverPath(evt)" fill="rgb(253,253,253)" d="M  111,22l 0,22 -1,1 0,1 1,1 0,15 -1,1 0,33 1,1 2,0 -2,-1 0,-33 1,-17 0,-1 -1,0 0,1 1,-22 0,0 1,-1 10,0 -3,-1 -7,0 -1,-1 -1,1 0,-14 1,-1 0,-7 -1,0Z"/>
<path onmouseover="hoverPath(evt)" onmouseout="recoverPath(evt)" fill="rgb(244,243,235)" d="M  171,240l -2,0 0,6 -1,1 0,8 87,0 0,-31 -1,0 -1,1 -5,0 -1,1 -4,0 -1,1 -4,0 -1,1 -4,0 -1,1 -4,0 -1,1 -5,0 -1,1 -4,0 -1,1 -5,0 -1,1 -5,0 -1,1 -4,0 -1,1 -5,0 -1,1 -5,0 -1,1 -4,0 -1,1 -5,0 -1,1 -4,0 -1,1Z"/>
<path onmouseover="hoverPath(evt)" onmouseout="recoverPath(evt)" fill="rgb(244,243,237)" d="M  0,13l 0,74 3,0 1,1 3,0 1,1 3,0 1,1 3,0 1,1 4,0 3,-3 1,-1 1,-1 1,0 0,-1 1,-1 1,0 1,-1 1,-1 1,0 0,-1 1,-1 1,-1 0,-4 1,-1 0,-6 -1,-1 0,-3 -1,-1 0,-2 -1,-1 0,-2 -1,-1 0,-1 -1,-1 -1,-1 0,-1 -1,-1 -1,-1 -1,-1 -1,-1 0,-1 -1,-1 -1,-1 -1,-1 -1,-1 -1,-1 0,-1 -1,-1 -1,-1 0,-1 -1,-1 -1,-1 0,-1 -1,-1 -1,-1 0,-1 -1,-1 -1,-1 0,-1 -1,-1 -1,-1 0,-1 -1,-1 0,-1 -1,-1 0,-1 -1,-1 0,-1 -1,-1 0,-1 -1,-1 0,-1 -1,-1 0,-1 -1,-1 0,-1 -1,-1 -1,1Z"/>
<path onmouseover="hoverPath(evt)" onmouseout="recoverPath(evt)" fill="rgb(244,243,236)" d="M  0,139l 0,116 54,0 0,-3 1,-1 5,0 1,1 4,0 1,-1 4,0 1,-1 5,0 1,-1 4,0 1,-1 4,0 1,-1 5,0 1,-1 4,0 1,-1 4,0 1,-1 4,0 1,-1 4,0 1,-1 4,0 1,-1 4,0 1,-1 4,0 1,-1 4,0 1,-1 4,0 1,-1 4,0 1,-1 4,0 1,-1 4,0 1,-1 3,0 1,-1 4,0 1,-1 3,0 1,-1 9,0 1,-1 4,0 1,-1 5,0 1,-1 4,0 1,-1 4,0 1,-1 4,0 1,-1 5,0 1,-1 4,0 1,-1 4,0 1,-1 4,0 1,-1 5,0 1,-1 4,0 1,-1 4,0 1,-1 5,0 1,-1 4,0 1,-1 5,0 0,-50 -3,0 -1,-1 -3,0 -1,-1 -4,0 -1,-1 -3,0 -1,-1 -4,0 -1,-1 -3,0 -1,-1 -3,0 -1,-1 0,-2 -4,0 -1,1 -6,0 -1,-1 -3,0 -1,-1 0,-2 -4,0 -1,1 -6,0 -1,-1 -3,0 -1,-1 0,-2 -4,0 -1,1 -6,0 -1,-1 -3,0 -1,-1 0,-2 -4,0 -1,1 -6,0 -1,-1 -3,0 -1,-1 0,-2 -4,0 -1,1 -6,0 -1,-1 -3,0 -1,-1 0,-2 -3,0 -1,1 -6,0 -1,-1 -4,0 -1,-1 0,-2 -3,0 -1,1 -6,0 -1,-1 -3,0 -1,-1 0,-2 -3,0 -1,1 -6,0 -1,-1 -4,0 -1,-1 0,-2 -3,0 -1,1 -6,0 -1,-1 -4,0 -1,-1 -4,0 -1,-1 -3,0 -1,-1 -4,0 -1,-1 -4,0 -1,-1 0,-2 -4,0 -1,1 -2,0 0,2 -1,1 -1,0 -1,1 -15,0 -1,-1 -6,0 -1,-1 -3,0 -1,-1 -1,1 -1,0 0,1 -1,1 0,1 -1,1 -1,1 0,2 -1,1 -18,0 -1,-1 -1,0Z"/>
<path onmouseover="hoverPath(evt)" onmouseout="recoverPath(evt)" fill="rgb(244,243,236)" d="M  2,1l 1,1 0,2 1,1 0,1 1,1 0,1 1,1 0,2 1,1 0,1 1,1 1,1 0,2 1,1 1,1 0,1 1,1 0,1 1,1 1,1 0,1 1,1 1,1 0,1 1,1 1,1 0,1 1,1 1,1 0,1 1,1 1,1 1,1 1,1 1,0 1,1 6,0 1,1 17,0 1,1 29,0 1,1 22,0 1,1 5,0 0,-43 -106,0 -1,1Z"/>
<path onmouseover="hoverPath(evt)" onmouseout="recoverPath(evt)" fill="rgb(172,198,238)" d="M  50,43l 0,0 -1,-1 -17,0 -1,-1 -6,0 -1,-1 -1,0 -1,-1 -1,-1 -1,-1 -1,-1 -1,-1 0,-1 -1,-1 -1,-1 0,-1 -1,-1 -1,-1 0,-1 -1,-1 -1,-1 0,-1 -1,-1 -1,-1 0,-1 -1,-1 0,-1 -1,-1 -1,-1 0,-2 -1,-1 -1,-1 0,-1 -1,-1 0,-2 -1,-1 0,-1 -1,-1 0,-1 -1,-1 0,-2 -1,-1 0,8 2,0 1,1 0,-1 47,33 -41,-21 0,1 1,1 0,1 1,1 0,1 1,1 1,1 0,1 1,1 1,1 0,1 1,1 1,1 0,1 1,1 1,1 0,1 1,1 1,1 0,1 1,1 1,1 1,1 1,1 1,1 0,1 1,1 1,1 1,1 1,1 0,1 1,1 1,1 0,1 1,1 0,2 1,1 0,2 1,1 0,3 1,1 0,8 -1,1 0,3 1,-2 0,0 1,-1 0,-11 -1,-1 0,-3 -1,-1 0,-2 -1,-1 0,-1 -1,-1 0,-1 -1,-1 0,-1 -1,-1 -1,-1 -1,-1 -1,-1 -1,-1 0,-1 -1,-1 0,-2 1,-1 4,0 -22,-20 41,21 10,0 1,1 23,0 1,1 16,0 1,1 6,0 0,-1 -5,0 -1,-1 -17,0 17,1 -23,-2Z"/>
<path onmouseover="hoverPath(evt)" onmouseout="recoverPath(evt)" fill="rgb(171,198,238)" d="M  103,119l 0,0 1,1 7,0 1,1 6,0 1,1 5,0 1,1 6,0 1,1 6,0 1,1 7,0 1,1 7,0 1,1 8,0 1,1 7,0 1,1 6,0 1,1 3,0 1,1 4,0 1,1 4,0 1,1 18,0 1,1 4,0 1,1 2,0 1,1 2,0 1,1 2,0 1,1 3,0 1,1 5,0 1,1 8,0 1,1 4,0 1,1 3,0 1,1 1,0 0,-3 -2,0 -1,-1 -2,0 -1,-1 -6,0 -1,-1 -10,0 -1,-1 -3,0 -1,-1 -1,0 -1,-1 -2,0 -1,-1 -1,0 -1,-1 -2,0 -1,-1 -8,0 -1,-1 -15,0 -1,-1 -5,0 -1,-1 -4,0 -1,-1 -6,0 -1,-1 -9,0 -1,-1 -10,0 -1,-1 -7,0 -1,-1 -7,0 -1,-1 -6,0 -1,-1 -6,0 -1,-1 -6,0 -1,-1 -7,0 -1,-1 -4,0 -1,1 -1,-1 -1,0 -1,-1 -6,0 -1,-1 -7,0 -1,-1 -3,0 -1,-1 -4,0 -1,-1 -4,0 -1,-1 -6,0 -1,1 -9,0 -1,1 -12,0 -1,-1 -3,0 -1,-1 -1,0 -1,-1 -1,0 -1,-1 -1,-1 -1,-1 -1,-1 -1,-1 0,-1 -1,-1 -1,-1 -1,-1 0,-1 -1,-1 -1,-1 -1,-1 -1,-1 0,-4 1,-1 3,-3 0,-1 -4,4 -1,1 -6,0 -1,-1 -3,0 -1,-1 -3,0 -1,-1 -3,0 -1,-1 -2,0 0,2 2,0 1,1 4,0 1,1 3,0 1,1 3,0 1,1 2,0 1,1 1,1 1,1 1,1 1,1 1,1 1,1 0,1 1,1 1,1 1,1 0,1 1,1 1,1 1,1 1,1 1,1 1,0 1,1 1,0 1,1 1,0 1,1 22,0 1,-1 12,0 1,1 3,0 1,1 2,0 1,1 7,0 1,1 6,0 1,1 4,0 1,-1 1,1Z"/>
<path onmouseover="hoverPath(evt)" onmouseout="recoverPath(evt)" fill="rgb(243,242,234)" d="M  113,27l 0,16 10,0 1,1 19,0 1,1 16,0 1,1 16,0 1,1 17,0 1,1 20,0 1,1 21,0 1,1 16,0 0,-21 -85,0 -1,-1 -23,0 -1,-1 -13,0 -1,-1 0,-2 -6,0 -1,1 -10,0 -1,1Z"/>
<path onmouseover="hoverPath(evt)" onmouseout="recoverPath(evt)" fill="rgb(244,243,236)" d="M  114,48l -1,0 0,25 -1,1 0,20 1,1 1,0 1,1 0,2 6,0 1,-1 8,0 1,1 0,2 6,0 1,-1 8,0 1,1 0,2 6,0 1,-1 8,0 1,1 7,0 1,1 7,0 1,1 0,2 7,0 1,-1 8,0 1,1 0,2 6,0 1,-1 8,0 1,1 0,2 6,0 1,-1 8,0 1,1 0,2 6,0 1,-1 8,0 1,1 8,0 1,1 2,0 0,-58 -4,0 -1,-1 -20,0 -1,-1 -23,0 -1,-1 -30,0 -1,-1 -19,0 -1,-1 -19,0 -1,-1 -16,0 -1,-1Z"/>
<path onmouseover="hoverPath(evt)" onmouseout="recoverPath(evt)" fill="rgb(244,242,235)" d="M  115,0l -1,0 0,8 -1,1 0,10 1,1 7,0 1,1 2,0 1,1 7,0 1,1 17,0 1,1 31,0 1,1 72,0 0,-25Z"/>
<path onmouseover="hoverPath(evt)" onmouseout="recoverPath(evt)" fill="rgb(182,202,230)" d="M  137,243l -4,0 -1,1 -4,0 -1,1 -4,0 -1,1 -4,0 -1,1 -4,0 -1,1 -4,0 -1,1 -4,0 -1,1 -4,0 -1,1 -5,0 -1,1 -4,0 -1,1 -4,0 -1,1 -5,0 -1,1 14,0 0,-2 48,-10 -39,8 1,0 4,-1 3,0 2,-1 3,0 2,-1 3,0 2,-1 1,0 4,-1 1,0 4,-1 1,0 4,-1 1,0 4,-1 1,0 1,-1 6,0 1,-1 5,0 1,-1 5,0 1,-1 4,0 1,-1 1,0 0,-1 -3,0 -1,1 -4,0 -1,1 -4,0 -1,1 1,0 -54,11 39,-8Z"/>
<path onmouseover="hoverPath(evt)" onmouseout="recoverPath(evt)" fill="rgb(171,198,238)" d="M  174,49l 1,0 1,1 30,0 1,1 23,0 1,1 20,0 1,1 3,0 0,-1 -3,0 -15,-1 -6,0 -16,-1 -8,0 -13,-1 -17,0 -1,-1 -1,0 -1,1 -4,-1 -10,0 -1,-1 -16,0 -1,-1 -19,0 -1,-1 -8,0 0,1 4,0 1,1 16,0 1,1 19,0 1,1 13,0 1,-1 4,1Z"/>
<path onmouseover="hoverPath(evt)" onmouseout="recoverPath(evt)" fill="rgb(254,254,254)" d="M  182,27l 0,0 -1,-1 -31,0 -1,-1 -16,0 14,1 2,0 22,1Z"/>
<path onmouseover="hoverPath(evt)" onmouseout="recoverPath(evt)" fill="rgb(252,252,251)" d="M  237,221l -2,0 -1,1 -4,0 -1,1 -5,0 -1,1 -4,0 -1,1 -4,0 -1,1 -4,0 -1,1 -5,0 -1,1 -4,0 -1,1 -4,0 -1,1 -4,0 -1,1 -5,0 -1,1 -4,0 -1,1 -9,0 -1,1 -3,0 -1,1 -4,0 -1,1 -3,0 -1,1 -4,0 -1,1 -4,0 -1,1 -4,0 -1,1 -4,0 -1,1 -4,0 -1,1 -4,0 -1,1 -4,0 -1,1 -4,0 -1,1 -4,0 -1,1 -4,0 -1,1 -4,0 -1,1 -4,0 -1,1 -5,0 -1,1 -4,0 -1,1 -4,0 -1,1 -5,0 -1,1 -4,0 -1,1 -6,0 -1,-1 -3,0 0,2 14,0 0,-1 167,-33 -157,31 3,-1 2,0 3,-1 2,0 4,-1 2,0 3,-1 2,0 3,-1 2,0 3,-1 2,0 3,-1 2,0 3,-1 2,0 3,-1 2,0 3,-1 2,0 3,-1 2,0 3,-1 2,0 3,-1 2,0 3,-1 1,0 4,-1 1,0 3,-1 2,0 3,-1 3,0 1,1 0,9 1,-7 0,-2 1,-1 1,-1 4,0 -94,18 157,-31 -54,11 1,0 4,-1 2,0 3,-1 2,0 3,-1 2,0 3,-1 2,0 4,-1 2,0 3,-1 3,0 2,-1 3,0 2,-1 3,0 3,-1 2,0 3,-1 3,0 1,-1 4,0 1,-1 4,0 1,-1 6,0 0,-1 -4,0 -3,1 -2,0 -3,1 -3,0 -2,1Z"/>
<path onmouseover="hoverPath(evt)" onmouseout="recoverPath(evt)" fill="rgb(176,199,233)" d="M  245,222l 0,0 -1,1 -4,0 -1,1 -5,0 -1,1 -4,0 -1,1 -4,0 -1,1 -4,0 -1,1 -5,0 -1,1 -5,0 -1,1 -4,0 -1,1 -4,0 -1,1 -4,0 -1,1 -5,0 -1,1 -4,0 -1,1 -4,0 -1,1 -4,0 -1,1 0,1 1,-1 4,0 1,-1 5,0 1,-1 4,0 1,-1 5,0 1,-1 5,0 1,-1 4,0 1,-1 5,0 1,-1 5,0 1,-1 4,0 1,-1 5,0 1,-1 4,0 1,-1 4,0 1,-1 4,0 1,-1 4,0 1,-1 5,0 1,-1 2,0 0,-1 -5,0 -1,1Z"/>
</svg>