<svg width="256" height="256" xmlns="http://www.w3.org/2000/svg"><script> 
var tempColor;
function hoverPath(evt){
obj = evt.target;
tempColor = obj.getAttribute("fill");
obj.setAttribute("fill","red");
//alert(tempColor);
//obj.setAttribute("stroke","red");}
function recoverPath(evt){
obj = evt.target;
obj.setAttribute("fill", tempColor);
//obj.setAttribute("stroke", tempColor);
}</script><path onmouseover="hoverPath(evt)" onmouseout="recoverPath(evt)" fill="rgb(244,243,235)" d="M  0,208l 0,30 23,0 1,1 16,0 1,-1 1,0 0,-16 1,-1 0,-7 -1,0 -1,-1 0,-2 1,-1 6,0 1,1 0,2 -1,1 0,12 -1,1 0,11 1,1 8,0 1,1 16,0 1,1 16,0 1,1 16,0 1,1 16,0 1,1 20,0 1,-1 3,0 0,-2 1,-1 0,-7 1,-1 0,-1 1,-1 1,-1 5,0 1,-1 2,0 1,1 0,2 1,0 1,1 1,0 1,-1 0,-1 1,-1 0,-2 1,-1 0,-2 1,-1 0,-2 1,-1 0,-3 1,-1 0,-4 1,-1 0,-4 1,-1 0,-3 1,-1 0,-5 1,-1 0,-5 1,-1 0,-5 1,-1 0,-5 1,-1 0,-5 1,-1 0,-7 -1,0 -1,-1 -2,0 -1,-1 -4,0 -1,-1 -2,0 -1,-1 -1,0 -1,-1 -2,0 -1,-1 -2,0 -1,-1 -2,0 -1,-1 -1,0 -1,-1 -1,0 -1,-1 0,-2 -1,0 -1,1 -4,0 -1,-1 -1,0 -1,-1 -1,0 -1,-1 0,-2 -1,0 -1,1 -4,0 -1,-1 -1,0 -1,-1 -2,0 -1,-1 -2,0 -1,-1 -2,0 -1,-1 -1,0 -1,-1 -2,0 -1,-1 -2,0 -1,-1 -2,0 -1,-1 -1,0 -1,-1 -1,0 -1,-1 0,-2 -2,0 -1,-1 -1,0 -1,1 -4,0 -1,-1 -1,0 -1,-1 0,-2 -1,0 -1,-1 -1,0 -1,1 -4,0 -1,-1 -1,0 -1,-1 -2,0 -1,-1 -2,0 -1,-1 -2,0 -1,-1 -1,0 -1,-1 -2,0 -1,-1 -2,0 -1,-1 -2,0 -1,-1 -1,-1 -2,0 -1,1 0,1 -1,1 0,1 -1,1 0,1 -1,1 0,1 -1,1 0,1 -1,1 0,1 -1,1 0,2 -1,1 0,1 -1,1 0,2 -1,1 0,1 -1,1 0,2 -1,1 0,1 -1,1 0,2 -1,1 0,1 -1,1 0,2 -1,1 0,2 -1,1 0,1 -1,1 0,2 -1,1 0,1 -1,1 0,2 -1,1 0,1 -1,1 0,2 -1,1 0,2 -1,1 0,1 -1,1 0,2 -1,1 0,1 -1,1 0,2 -1,1 0,1 -1,1 0,1 -1,1 0,2 -1,1 0,1 -1,1 0,2 -1,1 0,1 -1,1 0,2 -1,1 0,1 -1,1 -1,1 -1,1 -1,1 -6,0 -1,-1 -3,0 -1,-1 -3,0 -1,-1 -2,0 -1,-1 -2,0 -1,-1 -1,1Z"/>
<path onmouseover="hoverPath(evt)" onmouseout="recoverPath(evt)" fill="rgb(245,244,237)" d="M  227,220l -1,0 0,4 -1,1 0,3 -1,1 0,3 -1,1 0,3 -1,1 0,2 -1,1 0,1 -1,1 0,2 -1,1 0,2 -1,1 0,5 -1,1 0,1 38,0 0,-32 -6,0 -1,-1 -8,0 -1,-1 -5,0 -1,-1 -4,0 -1,-1 -1,1Z"/>
<path onmouseover="hoverPath(evt)" onmouseout="recoverPath(evt)" fill="rgb(244,243,236)" d="M  233,188l 0,0 -1,1 0,4 -1,1 0,3 -1,1 0,4 -1,1 0,3 -1,1 0,4 -1,1 0,2 1,1 7,0 1,1 6,0 1,1 9,0 1,1 2,0 0,-32 -7,0 -1,1 -7,0 -1,-1 0,-2 -4,0 -1,-1 -2,0 -1,-1 0,-1 -3,0 2,1 0,1 1,0 2,1Z"/>
<path onmouseover="hoverPath(evt)" onmouseout="recoverPath(evt)" fill="rgb(244,242,234)" d="M  0,1l 0,12 3,0 1,1 1,-1 2,0 1,1 0,2 2,0 1,1 1,0 1,1 2,0 1,1 1,0 1,-1 2,0 1,1 0,2 2,0 1,1 2,0 1,1 2,0 1,1 1,0 1,1 2,0 1,1 2,0 1,1 2,0 1,1 2,0 1,1 3,0 1,1 2,0 1,1 2,0 1,1 2,0 1,1 2,0 1,1 3,0 1,1 2,0 1,1 4,0 0,-1 1,-1 0,-3 1,-1 0,-4 1,-1 0,-4 1,-1 0,-5 1,-1 2,0 0,-3 1,-1 0,-3 -1,-1 0,-4 1,-1 0,-1 -78,0 -1,1Z"/>
<path onmouseover="hoverPath(evt)" onmouseout="recoverPath(evt)" fill="rgb(244,243,236)" d="M  0,25l 0,76 4,0 1,1 17,0 1,1 9,0 1,1 5,0 1,-1 4,0 1,1 1,1 1,1 1,1 1,0 1,1 1,1 1,1 1,1 1,1 0,1 1,1 1,1 2,0 0,-2 1,-1 0,-1 1,-1 0,-3 1,-1 0,-5 1,-1 0,-4 1,-1 0,-3 1,-1 0,-3 1,-1 0,-3 1,-1 0,-5 1,-1 0,-4 1,-1 0,-4 1,-1 0,-4 1,-1 0,-5 1,-1 0,-4 1,-1 0,-2 -1,-1 -2,0 -1,-1 -3,0 -1,-1 -2,0 -1,-1 -3,0 -1,-1 -2,0 -1,-1 -2,0 -1,-1 -2,0 -1,-1 -2,0 -1,-1 -3,0 -1,-1 -2,0 -1,-1 -2,0 -1,-1 -2,0 -1,-1 -1,0 -1,-1 -1,0 -1,-1 -2,0 -1,-1 -1,0 -1,-1 -2,0 -1,-1 -2,0 -1,-1 -2,0 -1,-1 -1,0 -1,-1 -1,0 -1,-1 -2,0 -1,-1 -2,0 -1,-1 -1,0 -1,-1 -1,1Z"/>
<path onmouseover="hoverPath(evt)" onmouseout="recoverPath(evt)" fill="rgb(252,252,251)" d="M  1,241l 16,0 1,1 24,0 1,1 0,12 1,0 0,-9 1,-1 0,-2 1,-1 8,0 1,1 16,0 1,1 16,0 1,1 16,0 1,1 16,0 1,1 14,0 1,1 4,0 1,-1 4,0 1,-1 2,0 1,-1 1,0 0,-1 1,-1 0,-8 1,-1 1,-1 4,0 1,1 1,0 1,1 2,0 1,1 1,0 1,-1 0,0 1,-1 1,-1 0,-2 1,-1 0,-2 1,-1 2,0 -1,-1 0,-3 1,-1 0,-3 1,-1 0,-4 1,-1 0,-4 1,-1 0,-4 1,-1 0,-4 1,-1 0,-5 1,-1 0,-6 1,-1 0,-5 1,-1 0,-4 1,-1 0,-7 1,-1 1,-1 4,0 -3,-1 0,0 -1,-1 -1,-1 0,-7 1,-1 0,-10 1,-1 0,-9 1,-1 0,-8 1,-1 0,-4 1,-1 0,-4 1,-1 0,-4 1,-1 0,-3 1,-1 0,-2 1,-1 0,-3 1,-1 0,-3 1,-1 0,-4 1,-1 0,-2 1,-1 0,-2 1,-1 1,-1 0,-1 -2,0 -1,-1 -5,0 -1,-1 -4,0 -1,-1 -4,0 -1,-1 -4,0 -1,-1 -1,0 -1,-1 -1,-1 0,-2 -1,-1 0,-3 1,-1 29,0 1,1 3,0 1,1 2,0 1,1 1,0 1,1 2,0 1,1 1,0 1,1 2,0 1,1 1,1 3,0 1,1 1,1 3,0 1,1 1,0 1,1 0,-1 -2,-1 -2,-1 -2,0 -1,-1 -2,-1 -1,0 -1,-1 -1,0 1,1 -4,-2 -2,-1 -2,-1 -1,0 -2,-1 -2,-1 -1,0 -2,-1 -2,0 -3,-1 -28,0 -1,-1 -1,0 -1,-1 -1,-1 -1,-1 0,1 -1,1 -3,0 -1,-1 -3,0 -1,-1 -2,0 -1,-1 -3,0 -1,-1 0,-2 -1,1 -3,0 -1,-1 -2,0 -1,-1 -1,0 -1,-1 -1,0 -1,-1 -1,0 -1,-1 -1,-1 0,-2 -4,0 -1,-1 -1,-1 -1,0 -1,-1 0,-2 -1,1 -3,0 -1,-1 -3,0 -1,-1 -5,0 -1,-1 -6,0 -1,-1 -12,0 -1,-1 -7,0 -1,-1 -5,0 -1,-1 -2,0 -1,-1 0,-1 -1,-1 0,-1 -1,2 -6,0 -1,-1 -2,0 -1,-1 -3,0 -1,-1 -2,0 -1,-1 -2,0 -1,-1 -2,0 -1,-1 -2,0 -1,-1 -3,0 -1,-1 -2,0 -1,-1 -2,0 -1,-1 -2,0 -1,-1 -2,0 -1,-1 -1,0 -1,-1 -2,0 -1,-1 -2,0 -1,-1 -2,0 -1,-1 0,-2 -1,1 -3,0 -1,-1 -2,0 -1,-1 -1,0 -1,-1 -2,0 -1,-1 0,-2 -1,1 -2,0 -1,-1 -2,0 0,2 2,0 1,1 1,0 1,1 2,0 1,1 1,0 1,1 2,0 1,1 2,0 1,1 2,0 1,1 1,0 1,1 2,0 1,1 2,0 1,1 1,0 1,1 2,0 1,1 2,0 1,1 2,0 1,1 2,0 1,1 3,0 1,1 2,0 1,1 2,0 1,1 2,0 1,1 2,0 1,1 3,0 1,1 2,0 1,1 3,0 1,1 2,0 1,1 3,0 1,1 4,0 1,1 6,0 1,1 7,0 1,1 10,0 1,1 8,0 1,1 4,0 1,1 2,0 1,1 1,0 1,1 0,2 -1,1 -1,0 -1,1 -1,0 0,2 1,-1 4,0 1,1 1,0 1,1 1,0 1,1 1,0 1,1 1,0 1,1 1,0 1,1 1,0 1,1 2,0 1,1 1,0 1,1 1,0 1,1 2,0 1,1 1,0 1,1 1,1 1,0 1,1 2,0 1,1 2,0 1,1 3,0 1,1 2,0 1,1 1,0 3,3 1,1 0,2 1,-1 5,0 1,1 4,0 1,1 5,0 1,1 3,0 1,1 0,6 -1,1 0,3 -1,1 0,5 -1,1 0,2 -1,1 0,3 -1,1 0,3 -1,1 0,3 -1,1 0,4 -1,1 0,5 -1,1 0,7 -1,1 0,9 -1,1 0,10 -1,1 0,5 -1,1 0,1 -1,1 -4,0 3,1 1,0 1,1 0,9 -1,1 0,5 -1,1 0,5 -1,1 0,5 -1,1 0,5 -1,1 0,5 -1,1 0,3 -1,1 0,4 -1,1 0,4 -1,1 0,3 -1,1 0,2 -1,1 0,2 -1,1 0,2 -1,1 0,1 -1,1 -1,1 -3,0 -1,-1 -1,0 -1,-1 0,-2 -1,1 -5,0 -1,1 0,1 -1,1 0,7 -1,1 0,2 -1,1 -3,0 -1,1 -22,0 -1,-1 -16,0 -1,-1 -16,0 -1,-1 -16,0 -1,-1 -16,0 -1,-1 -8,0 -1,-1 -1,-1 0,-13 1,-1 0,-12 1,-1 -4,0 2,1 0,9 -1,1 0,16 -1,1 -1,0 -1,1 -18,0 -1,-1 -20,0 -1,1 198,-159 0,0 -198,159Z"/>
<path onmouseover="hoverPath(evt)" onmouseout="recoverPath(evt)" fill="rgb(244,243,235)" d="M  85,0l -4,0 0,2 -1,1 0,2 1,1 0,5 -1,1 0,3 -1,1 -2,0 0,5 -1,1 0,4 -1,1 0,4 -1,1 0,2 1,1 0,1 1,1 0,1 2,0 1,1 5,0 1,1 7,0 1,1 12,0 1,1 6,0 1,1 5,0 1,1 3,0 1,1 1,0 1,-1 2,0 1,1 0,2 1,0 1,1 1,1 4,0 1,1 0,2 1,1 1,0 1,1 1,0 1,1 1,0 1,1 2,0 1,1 1,0 1,-1 2,0 1,1 0,2 3,0 1,1 2,0 1,1 3,0 1,1 1,0 0,-1 -1,-1 0,-1 -1,-1 0,-2 1,-1 0,-15 1,-1 0,-6 1,-1 0,-10 -1,-1 0,-11 1,-1 0,-9Z"/>
<path onmouseover="hoverPath(evt)" onmouseout="recoverPath(evt)" fill="rgb(244,243,236)" d="M  0,106l 0,94 3,0 1,1 2,0 1,1 2,0 1,1 1,0 1,1 2,0 1,1 1,0 1,1 2,0 1,-1 0,0 1,-1 0,-1 1,-1 0,-1 1,-1 0,-1 1,-1 0,-2 1,-1 0,-1 1,-1 0,-1 1,-1 0,-2 1,-1 0,-1 1,-1 0,-2 1,-1 0,-1 1,-1 0,-2 1,-1 0,-1 1,-1 0,-2 1,-1 0,-1 1,-1 0,-2 1,-1 0,-1 1,-1 0,-2 1,-1 0,-2 1,-1 0,-1 1,-1 0,-2 1,-1 0,-1 1,-1 0,-2 1,-1 0,-2 1,-1 0,-1 1,-1 0,-2 1,-1 0,-1 1,-1 0,-2 1,-1 0,-1 1,-1 0,-2 1,-1 0,-1 1,-1 0,-2 1,-1 0,-1 1,-1 0,-2 1,-1 0,-1 1,-1 -1,-1 -1,0 -1,-1 -1,-1 -1,-1 -1,-1 -1,-1 -1,-1 -1,-1 -1,0 -1,-1 0,-1 -1,-1 -1,-1 -1,0 -1,-1 -1,0 -1,-1 -6,0 -1,-1 -9,0 -1,-1 -17,0 -1,-1 -3,0Z"/>
<path onmouseover="hoverPath(evt)" onmouseout="recoverPath(evt)" fill="rgb(242,241,230)" d="M  0,246l 0,9 41,0 0,-11 -24,0 -1,-1 -16,0Z"/>
<path onmouseover="hoverPath(evt)" onmouseout="recoverPath(evt)" fill="rgb(176,201,235)" d="M  71,58l 0,5 -1,1 0,4 -1,1 0,4 -1,1 0,4 -1,1 0,5 -1,1 0,3 -1,1 0,3 -1,1 0,3 -1,1 0,4 -1,1 0,5 -1,1 0,3 -1,1 0,1 -1,1 0,2 -1,1 -4,0 -1,-1 -1,-1 -1,-1 0,-1 -1,-1 0,1 -1,-1 0,-1 -1,-1 0,1 -1,-1 0,-1 -1,0 -1,-1 -1,-1 -1,-1 -1,-1 -2,0 2,1 4,4 0,0 10,8 1,1 0,2 -1,1 0,1 -1,1 0,2 -1,1 0,1 -1,1 0,2 -1,1 0,1 -1,1 0,2 -1,1 0,1 -1,1 0,2 -1,1 0,1 -1,1 0,2 -1,1 0,1 -1,1 0,2 -1,1 0,2 -1,1 0,1 -1,1 0,2 -1,1 0,1 -1,1 0,2 -1,1 0,2 -1,1 0,1 -1,1 0,2 -1,1 0,1 -1,1 0,2 -1,1 0,1 -1,1 0,2 -1,1 0,1 -1,1 0,2 -1,1 0,1 -1,1 0,2 -1,1 0,1 -1,1 0,1 -1,1 0,2 -1,1 0,1 -1,1 0,1 -1,1 0,1 -1,1 -1,1 -1,1 -4,0 -1,-1 -1,0 -1,-1 -2,0 -1,-1 -1,0 -1,-1 -2,0 -1,-1 -2,0 -1,-1 -2,0 0,3 2,0 1,1 2,0 1,1 2,0 1,1 3,0 1,1 3,0 1,1 4,0 1,-1 0,0 1,-1 1,-1 0,-1 1,-1 0,-2 1,-1 0,-1 1,-1 0,-2 1,-1 0,-1 1,-1 0,-2 1,-1 0,-1 1,-1 0,-1 1,-1 0,-2 1,-1 0,-1 1,-1 0,-2 1,-1 0,-1 1,-1 0,-2 1,-1 0,-2 1,-1 0,-1 1,-1 0,-2 1,-1 0,-1 1,-1 0,-2 1,-1 0,-1 1,-1 0,-2 1,-1 0,-2 1,-1 0,-1 1,-1 0,-2 1,-1 0,-1 1,-1 0,-2 1,-1 0,-1 1,-1 0,-2 1,-1 0,-1 1,-1 0,-2 1,-1 0,-1 1,-1 0,-1 1,-1 0,-1 1,-1 0,-1 1,-1 0,-1 1,-1 0,-1 1,-1 1,-1 3,0 -2,-1 0,0 -1,-1 0,-2 1,-1 0,-2 1,-1 0,-3 1,-1 0,-3 1,-1 0,-5 1,-1 0,-3 1,-1 0,-3 1,-1 0,-4 1,-1 0,-5 1,-1 0,-5 1,-1 0,-4 1,-1 0,-3 1,-1 0,-4 1,-1 0,-4 1,-1 0,-4 1,-1 0,-1 2,-2 3,0 1,1 6,0 1,1 14,0 1,1 13,0 1,1 2,0 1,1 1,0 1,-1 1,0 -2,-1 -2,0 -1,-1 -4,0 -1,-1 -8,0 -1,-1 -10,0 -1,-1 -7,0 -1,-1 -6,0 -1,-1 -4,0 -1,-1 -3,0 -1,-1 -2,0 -1,-1 -3,0 -1,-1 -2,0 -1,-1 -3,0 -1,-1 -2,0 -1,-1 -2,0 -1,-1 -2,0 -1,-1 -2,0 -1,-1 -3,0 -1,-1 -2,0 -1,-1 -2,0 -1,-1 -2,0 -1,-1 -2,0 -1,-1 -1,0 -1,-1 -2,0 -1,-1 -2,0 -1,-1 -1,0 -1,-1 -2,0 -1,-1 -2,0 -1,-1 -2,0 -1,-1 -1,0 -1,-1 -2,0 -1,-1 -1,0 -1,-1 -1,0 0,3 2,0 1,1 1,0 1,1 2,0 1,1 2,0 1,1 1,0 1,1 1,0 1,1 2,0 1,1 2,0 1,1 2,0 1,1 1,0 1,1 2,0 1,1 1,0 1,1 1,0 1,1 2,0 1,1 2,0 1,1 2,0 1,1 3,0 1,1 2,0 1,1 2,0 1,1 2,0 1,1 2,0 1,1 3,0 1,1 2,0 1,1 3,0 1,1 2,0 1,1 1,1 0,4 -1,1 0,4 -1,1Z"/>
<path onmouseover="hoverPath(evt)" onmouseout="recoverPath(evt)" fill="rgb(244,243,235)" d="M  77,50l 0,1 -1,1 0,4 -1,1 0,4 -1,1 0,4 -1,1 0,3 -1,1 0,4 -1,1 0,5 -1,1 0,5 -1,1 0,4 -1,1 0,3 -1,1 0,3 -1,1 0,5 -1,1 0,3 -1,1 0,3 -1,1 0,2 -1,1 1,1 1,0 1,1 0,2 1,1 2,0 1,1 2,0 1,1 2,0 1,1 1,0 1,1 2,0 1,1 2,0 1,1 2,0 1,1 1,0 1,1 2,0 1,-1 3,0 1,1 1,0 1,1 0,2 1,0 1,1 2,0 1,-1 3,0 1,1 2,0 1,1 0,2 1,0 1,1 1,0 1,1 2,0 1,1 2,0 1,1 2,0 1,1 1,0 1,1 2,0 1,1 2,0 1,1 2,0 1,1 1,0 1,1 2,0 1,-1 3,0 1,1 0,2 1,0 1,1 1,0 1,1 2,0 1,-1 3,0 1,1 0,2 1,0 1,1 1,0 1,1 2,0 1,1 2,0 1,1 2,0 1,1 1,0 1,1 2,0 1,1 3,0 1,-1 4,0 0,-1 1,-1 0,-5 1,-1 0,-10 1,-1 0,-9 1,-1 0,-7 1,-1 0,-5 1,-1 0,-4 1,-1 0,-3 1,-1 0,-3 1,-1 0,-3 1,-1 0,-2 1,-1 0,-5 1,-1 0,-3 1,-1 0,-4 -3,0 -1,-1 -5,0 -1,-1 -4,0 -1,-1 -3,0 -1,1 -2,0 -1,-1 0,-2 -1,-1 -1,-1 -1,-1 -1,0 -1,-1 -2,0 -1,-1 -3,0 -1,-1 -2,0 -1,-1 -2,0 -1,-1 -1,0 -1,-1 -1,-1 -1,0 -1,-1 -2,0 -1,-1 -1,0 -1,-1 -1,0 -1,-1 -2,0 -1,-1 -1,0 -1,-1 -1,0 -1,-1 -1,0 -1,-1 -1,0 -1,-1 -1,0 -1,-1 -1,0 -1,-1 -2,0 -1,1 -2,0 -1,-1 0,-3 -1,-1 -2,0 -1,-1 -13,0 -1,-1 -14,0 -1,-1 -6,0 -1,-1 -1,0 -1,1Z"/>
<path onmouseover="hoverPath(evt)" onmouseout="recoverPath(evt)" fill="rgb(244,243,236)" d="M  169,0l -3,0 0,10 -1,1 0,9 1,1 0,12 -1,1 0,6 -1,1 0,14 1,1 0,1 1,1 0,1 1,1 0,1 1,1 1,1 1,0 1,1 28,0 1,1 4,0 1,1 2,0 1,1 1,0 1,1 2,0 1,1 1,0 1,1 1,0 1,1 3,0 1,1 1,0 1,1 1,0 1,1 2,0 1,1 1,0 1,1 1,0 1,1 4,0 2,2 3,0 1,1 1,0 1,1 1,0 1,1 4,0 1,1 4,0 0,-78 -2,0 -1,-1 -32,0 -1,-1 -23,0 -1,-1 0,-2Z"/>
<path onmouseover="hoverPath(evt)" onmouseout="recoverPath(evt)" fill="rgb(173,198,236)" d="M  218,78l 0,0 1,1 1,0 1,1 2,0 1,1 1,0 1,1 1,0 1,1 1,0 0,-1 1,-1 -1,0 -1,-1 -1,0 -1,-1 -3,0 -1,-1 -1,-1 -2,0 -1,1 -2,0 -1,-1 2,-1 0,0 -1,-1 -2,0 -1,-1 -1,0 -1,-1 -2,0 -1,-1 -1,0 -1,-1 -2,0 -1,-1 -3,0 -1,-1 -27,0 0,1 1,1 25,0 1,1 2,0 1,1 2,0 1,1 2,0 1,1 2,0 1,1 2,0 1,1 3,1Z"/>
<path onmouseover="hoverPath(evt)" onmouseout="recoverPath(evt)" fill="rgb(244,243,236)" d="M  233,142l -1,0 -1,1 0,1 -1,1 0,1 -1,1 0,2 -1,1 -1,1 0,1 -1,1 0,1 1,1 2,0 1,1 3,0 1,1 1,0 1,1 1,1 0,7 -1,1 0,4 -1,1 0,4 -1,1 0,3 -1,1 2,0 1,1 4,0 1,1 0,2 5,0 1,-1 8,0 0,-35 -4,0 -1,-1 -2,0 -1,-1 -2,0 -1,-1 -1,0 -1,-1 -2,0 -1,-1 -1,0 -1,-1 -1,0 -1,-1Z"/>
<path onmouseover="hoverPath(evt)" onmouseout="recoverPath(evt)" fill="rgb(171,198,238)" d="M  234,218l 0,0 1,1 5,0 1,1 8,0 1,1 5,0 0,-1 -3,0 -1,-1 -9,0 -1,-1 -7,0 -3,-1 -4,0 -1,-1 -1,-1 0,-4 1,-1 0,-4 1,-1 0,-3 1,-1 0,-4 1,-1 0,-3 1,-1 0,-4 1,-1 0,-2 -3,0 0,4 -1,1 0,4 -1,1 0,3 -1,1 0,3 -1,1 0,4 -1,1 0,4 -1,1 0,4 -1,1 0,5 -1,1 0,4 -1,1 0,2 -1,1 0,3 -1,1 0,2 -1,1 0,3 -1,1 0,2 -1,1 0,2 -1,1 0,3 -1,1 0,2 3,0 0,-2 1,-1 0,-5 1,-1 0,-2 1,-1 0,-2 1,-1 0,-1 1,-1 0,-2 1,-1 0,-3 1,-1 0,-3 1,-1 0,-3 1,-1 0,-4 1,-1 1,0 0,-1 5,0 3,1Z"/>
<path onmouseover="hoverPath(evt)" onmouseout="recoverPath(evt)" fill="rgb(172,198,238)" d="M  252,2l 1,0 1,1 1,0 0,-3 -58,0 0,1 23,0 1,1Z"/>
<path onmouseover="hoverPath(evt)" onmouseout="recoverPath(evt)" fill="rgb(243,242,234)" d="M  47,246l 0,0 -1,1 0,8 164,0 0,-3 1,-1 0,-3 1,-1 0,-2 1,-1 0,-2 1,-1 0,-3 1,-1 0,-2 1,-1 0,-3 1,-1 0,-2 1,-1 0,-4 1,-1 0,-5 1,-1 0,-4 1,-1 0,-4 1,-1 0,-4 1,-1 0,-3 1,-1 0,-3 1,-1 0,-4 1,-1 0,-4 1,-1 1,0 -2,-1 0,-2 -1,0 -1,-1 -2,0 -1,-1 -1,1 -2,0 -1,-1 0,-2 -1,0 -1,-1 -2,0 -1,-1 -1,0 -1,-1 -1,0 -1,1 -3,0 -1,-1 -1,0 -1,-1 0,-2 -2,0 -1,-1 -2,0 -1,-1 -1,0 -1,-1 -2,0 -1,1 -2,0 -1,-1 -3,0 -1,1 0,7 -1,1 0,4 -1,1 0,5 -1,1 0,6 -1,1 0,5 -1,1 0,4 -1,1 0,4 -1,1 0,4 -1,1 0,4 -1,1 0,3 -1,1 0,1 1,1 0,2 -1,1 -2,0 0,2 -1,1 0,2 -1,1 -3,3 -3,0 -1,-1 -2,0 -1,-1 -1,0 -1,-1 -2,0 -1,1 0,8 -1,1 0,1 -1,1 -1,0 -1,1 -2,0 -1,1 -4,0 -1,1 -6,0 -1,-1 -14,0 -1,-1 -16,0 -1,-1 -16,0 -1,-1 -16,0 -1,-1 -16,0 -1,-1 -6,0Z"/>
<path onmouseover="hoverPath(evt)" onmouseout="recoverPath(evt)" fill="rgb(243,242,234)" d="M  198,87l -1,1 0,2 -1,1 0,4 -1,1 0,3 -1,1 0,3 -1,1 0,2 -1,1 0,3 -1,1 0,4 -1,1 0,4 -1,1 0,4 -1,1 0,8 -1,1 0,9 -1,1 0,10 -1,1 0,5 1,1 1,1 2,0 1,1 0,2 1,-1 4,0 1,1 1,0 1,1 2,0 1,1 2,0 1,1 0,2 1,0 1,1 1,0 1,-1 3,0 1,1 1,0 1,1 2,0 1,1 1,0 1,1 1,0 1,1 1,0 1,1 2,0 1,1 1,0 1,1 0,-5 1,-1 0,-3 1,-1 0,-3 1,-1 0,-1 1,-1 0,-1 -1,0 -1,-1 -2,0 -1,-1 -3,0 -1,-1 -2,0 -1,-1 0,-1 -1,-1 0,-2 1,-1 0,-1 1,-1 1,0 0,-1 1,-1 0,-3 1,-1 0,-1 1,-1 0,-1 1,-1 0,-1 1,-1 0,-1 1,-1 1,-1 5,0 1,1 2,0 1,1 1,0 1,1 1,1 3,0 1,1 1,1 3,0 1,1 2,0 1,1 2,0 0,-51 -4,0 -1,-1 -3,0 -1,-1 -2,0 -1,-1 -3,0 -1,-1 -2,0 -1,-1 -2,0 -1,-1 0,-1 -1,1 -2,0 -1,-1 0,-1 -2,0 -1,-1 -1,0 -1,-1 -1,0 -1,-1 -2,0 -1,-1 -1,0 -1,-1 -2,0 -1,-1 -1,0 -1,-1 -2,0 -1,-1 -2,0 -1,-1 -2,0 -1,-1 -2,0 -1,-1 -2,0 -1,-1 -24,0 1,1 1,0 1,1 4,0 1,1 4,0 1,1 4,0 1,1 5,0 1,1 2,0 1,1 2,0 1,1 0,2 -1,1 -3,0 -1,1 0,2 31,0 -2,1 1,-1 -30,0 29,2 0,1 1,1 -1,-2 -29,-2 31,4 1,0 1,-1 -2,1 -31,-4 33,2 0,0 -33,-2Z"/>
<path onmouseover="hoverPath(evt)" onmouseout="recoverPath(evt)" fill="rgb(172,198,238)" d="M  229,139l 0,1 -1,1 0,1 -1,1 0,1 -1,1 0,1 -1,1 0,3 -1,1 0,1 -1,1 -1,0 0,1 -1,1 1,1 0,1 2,0 1,1 3,0 1,1 2,0 1,1 1,0 1,1 0,3 -1,1 0,1 -1,1 0,3 -1,1 0,3 -1,1 0,4 2,0 0,-3 1,-1 0,-4 1,-1 0,-4 1,-1 0,-5 -1,-1 -1,0 -1,-1 -3,0 -1,-1 -2,0 -1,-1 -1,-1 0,-2 -2,2 0,0 3,2 0,0 7,2 2,1 0,5 -5,-26 -4,12 1,-2 1,-1 0,-2 1,-1 0,-1 1,-1 0,-1 1,-1 1,-1 5,0 1,1 1,0 1,1 1,0 1,1 2,0 1,1 1,0 1,1 2,0 1,1 2,0 1,1 3,0 0,-1 -3,0 -1,-1 -2,0 -1,-1 -2,0 -2,-1 -1,-1 -2,0 -2,-1 -1,-1 -1,0 -1,-1 -2,0 -1,-1 -3,0 -1,3 0,0 -4,10 4,-12Z"/>
<path onmouseover="hoverPath(evt)" onmouseout="recoverPath(evt)" fill="rgb(210,222,240)" d="M  244,83l -1,0 -1,-1 -1,0 -1,-1 -3,0 -1,-1 -1,-1 -3,0 0,3 -1,1 0,2 1,-1 2,0 1,1 0,1 2,0 1,1 2,0 1,1 3,0 1,1 2,0 1,1 3,0 1,1 3,0 0,-6 -5,0 -1,-1 -4,0 -1,-1Z"/>
</svg>