<svg width="256" height="256" xmlns="http://www.w3.org/2000/svg"><script> 
var tempColor;
function hoverPath(evt){
obj = evt.target;
tempColor = obj.getAttribute("fill");
obj.setAttribute("fill","red");
//alert(tempColor);
//obj.setAttribute("stroke","red");}
function recoverPath(evt){
obj = evt.target;
obj.setAttribute("fill", tempColor);
//obj.setAttribute("stroke", tempColor);
}</script><path onmouseover="hoverPath(evt)" onmouseout="recoverPath(evt)" fill="rgb(243,242,233)" d="M  162,192l 0,0 -1,1 -2,0 0,6 1,1 0,8 -1,1 0,4 1,1 1,0 1,1 1,0 1,-1 2,0 1,1 0,2 1,-1 1,0 1,-1 2,0 1,-1 1,-1 1,-1 1,0 0,-1 1,-1 1,0 1,-1 1,-1 2,0 0,-1 1,-1 1,-1 0,-2 1,-1 1,-1 2,0 1,1 1,-1 0,0 1,-1 1,-1 1,0 1,-1 1,-1 0,-2 1,-1 1,-1 2,0 1,1 1,-1 0,0 1,-1 1,-1 1,0 1,-1 1,-1 1,0 1,-1 1,-1 1,-1 0,-2 1,-1 1,-1 1,0 1,-1 1,-1 2,0 1,1 1,-1 0,0 1,-1 1,-1 -3,0 -1,-1 0,-1 -1,0 -1,-1 -1,-1 -1,-1 -1,-1 -1,-1 0,-2 -1,0 -1,-1 -1,-1 -1,-1 -1,1 -3,0 0,1 -1,1 -2,0 -1,1 -1,1 -1,1 -1,0 -1,1 -1,1 0,1 -1,1 -2,0 -1,1 -1,1 -1,1 -1,0 -1,1 -1,1 0,1 -1,1 -2,0 -1,1 -1,1 -1,0 -1,1 -1,0 -1,1 -2,0 -1,-1 -1,0 -1,1 -1,0 0,2 -1,1 -4,0 -1,-1 -1,0 -1,1Z"/>
<path onmouseover="hoverPath(evt)" onmouseout="recoverPath(evt)" fill="rgb(244,243,235)" d="M  174,126l 0,-2 -2,0 -1,-1 -1,0 -1,-1 -1,-1 0,2 -1,1 0,10 -1,1 0,7 -1,1 0,7 -1,1 0,8 -1,1 0,7 -1,1 0,7 -1,1 0,7 -1,1 -1,1 -11,0 8,1 2,0 1,1 1,1 0,3 1,-3 0,0 1,-1 3,0 1,1 2,0 0,-2 1,-1 1,0 1,-1 2,0 1,-1 1,0 1,-1 2,0 1,1 1,-1 0,0 1,-1 2,0 0,-1 1,-1 1,-1 1,-1 1,0 1,-1 1,-1 1,-1 2,0 0,-1 3,-3 1,0 2,-2 1,-1 2,0 0,-1 1,-1 3,0 1,-1 0,-2 1,-1 1,-1 1,0 1,-1 1,-1 2,0 0,-1 1,-1 1,-1 1,0 1,-1 1,-1 1,0 0,-1 1,-1 -3,0 -1,-1 -1,-1 -1,-1 -1,-1 0,-1 -1,0 -1,-1 0,-1 -1,-1 0,-1 -1,0 -1,-1 -1,-1 -1,-1 -1,-1 -1,-1 -1,-1 -1,-1 -1,-1 -1,-1 -1,-1 -1,1 -3,0 -1,-1 -3,0 -1,-1 -2,0 -1,-1 -2,0 -1,-1 0,-2 -1,0 -1,1 -4,0 -1,-1 -2,0 -1,-1Z"/>
<path onmouseover="hoverPath(evt)" onmouseout="recoverPath(evt)" fill="rgb(244,243,236)" d="M  0,1l 0,96 114,0 1,1 28,0 1,1 13,0 1,1 10,0 0,-3 1,-1 0,-6 1,-1 2,0 0,-6 -1,-1 0,-8 1,-1 2,0 0,-7 1,-1 0,-7 -1,-1 0,-11 1,-1 0,-6 1,-1 0,-9 -1,-1 0,-1 -1,-1 -1,0 -1,-1 0,-3 1,-1 0,-1 -1,0 -1,-1 -1,-1 -1,-1 -1,-1 -1,-1 0,-1 -1,0 -1,-1 0,-2 -1,0 -1,-1 -1,-1 -1,-1 -1,-1 -1,-1 -1,-1 0,-1 -1,-1 -1,-1 0,-2 -155,0 -1,1 157,22 1,1 1,1 1,1 0,2 -1,1 -2,0 -2,-2 -1,-1 0,-2 1,-1 2,0 -157,-22Z"/>
<path onmouseover="hoverPath(evt)" onmouseout="recoverPath(evt)" fill="rgb(244,243,235)" d="M  0,181l 0,74 63,0 0,-2 -1,-1 0,-2 1,-1 2,0 2,-2 1,-1 1,-1 0,-1 1,-1 0,-8 1,-1 2,0 1,1 0,7 1,0 0,-2 1,-1 2,0 1,1 1,-1 1,0 1,-1 1,0 1,-1 1,0 1,-1 1,0 1,-1 1,0 1,-1 2,0 1,-1 1,0 1,-1 1,0 1,-1 1,0 1,-1 1,0 1,-1 1,0 1,-1 1,0 1,-1 1,0 1,-1 1,0 1,-1 1,0 0,-2 1,-1 2,0 1,1 1,-1 2,0 1,-1 1,0 1,-1 1,0 1,-1 1,0 0,-2 1,-1 2,0 1,1 1,-1 2,0 1,-1 1,0 0,-2 1,-1 2,0 1,1 1,0 1,-1 2,0 1,-1 14,0 0,-3 1,-1 2,0 0,-6 -1,-1 0,-8 1,-1 0,-2 -1,-1 -2,0 -1,-1 -7,0 -1,-1 0,-2 -10,0 -1,-1 -21,0 -1,-1 -25,0 -1,-1 -16,0 -1,-1 -20,0 -1,-1 -20,0 -1,-1 -17,0 -1,-1 -10,0Z"/>
<path onmouseover="hoverPath(evt)" onmouseout="recoverPath(evt)" fill="rgb(251,251,249)" d="M  71,245l 0,1 -1,1 -1,1 -1,1 -1,1 -1,1 -2,0 1,1 0,3 8,0 0,-2 1,-1 1,-1 0,-1 1,-1 2,-2 1,-1 1,-1 1,-1 1,-1 1,0 1,-1 1,-1 1,0 1,-1 1,-1 1,0 1,-1 1,0 1,-1 1,0 1,-1 1,0 1,-1 1,0 1,-1 1,0 1,-1 1,0 1,-1 1,0 1,-1 1,0 1,-1 1,0 1,-1 1,0 1,-1 2,0 1,-1 1,0 1,-1 2,0 1,1 0,-2 1,-1 1,0 1,-1 1,0 1,-1 2,0 1,-1 2,0 1,1 0,-2 1,-1 1,0 1,-1 2,0 1,-1 2,0 1,1 0,-2 1,-1 2,0 1,-1 10,0 1,1 1,0 1,1 2,0 1,1 2,0 1,1 0,2 1,-1 3,0 1,1 1,0 1,1 1,0 1,1 1,0 1,1 2,0 1,1 1,0 1,1 0,2 1,-1 2,0 1,1 1,0 1,1 0,2 2,0 1,1 0,2 1,-2 4,0 1,1 2,0 1,1 1,0 1,1 1,0 1,1 2,0 1,1 1,0 1,1 1,0 1,1 1,0 1,1 2,0 1,1 1,0 1,1 1,1 1,0 1,1 0,2 1,0 1,1 1,-1 2,0 1,1 1,0 1,1 1,1 1,0 1,1 0,2 1,-1 2,0 1,1 1,1 1,1 0,2 3,0 0,-1 -1,-1 0,0 -1,-1 0,-1 -1,0 -1,-1 -1,0 -1,-1 -1,-1 0,-1 -1,-1 -4,0 -1,-1 -1,0 -1,-1 -1,-1 -1,0 -1,-1 -1,0 -1,-1 0,-2 -1,1 -2,0 -1,-1 -1,0 -1,-1 -1,0 -1,-1 -1,0 -1,-1 -2,0 -1,-1 -1,0 -1,-1 0,-2 -1,1 -2,0 -1,-1 -2,0 -1,-1 -1,0 -1,-1 0,-2 -1,1 -2,0 -1,-1 0,-2 -1,1 -3,0 -1,-1 -1,0 -1,-1 -1,0 -1,-1 -2,0 -1,-1 -1,0 -1,-1 -1,0 -1,-1 -1,0 -1,-1 0,-2 1,-1 -2,1 0,0 -1,1 -2,0 -1,-1 0,-2 -1,1 -3,0 -1,-1 -1,0 -1,-1 -1,-1 0,-5 -1,4 -14,0 -1,1 -2,0 -1,1 -3,0 -1,-1 0,2 -1,1 -1,0 -1,1 -2,0 -1,1 -2,0 -1,-1 0,2 -1,1 -1,0 -1,1 -1,0 -1,1 -1,0 -1,1 -2,0 -1,1 -2,0 -1,-1 0,2 -1,1 -1,0 -1,1 -1,0 -1,1 -1,0 -1,1 -1,0 -1,1 -1,0 -1,1 -1,0 -1,1 -1,0 -1,1 -1,0 -1,1 -1,0 -1,1 -2,0 -1,1 -1,0 -1,1 -1,0 -1,1 -1,0 -1,1 -1,0 -1,1 -1,0 -1,1 -2,0 -1,-1 0,2 -1,1 -3,0 -1,-1 0,1 -1,1Z"/>
<path onmouseover="hoverPath(evt)" onmouseout="recoverPath(evt)" fill="rgb(244,243,235)" d="M  160,0l -2,0 0,1 1,1 0,0 1,1 0,1 1,1 1,1 1,1 1,1 1,1 1,0 1,1 0,2 1,0 1,1 0,1 1,1 1,1 1,1 1,1 1,0 1,1 0,3 -1,1 0,1 1,0 1,1 1,1 0,1 1,1 0,10 1,-8 0,-2 1,-1 1,0 0,-2 1,-1 2,0 1,-1 4,0 1,1 11,0 1,-1 16,0 1,-1 9,0 1,1 0,2 6,0 1,-1 10,0 1,1 8,0 0,-25Z"/>
<path onmouseover="hoverPath(evt)" onmouseout="recoverPath(evt)" fill="rgb(244,243,235)" d="M  176,53l 0,3 1,1 0,9 -1,1 0,7 -1,1 -2,0 0,6 1,1 0,8 -1,1 -2,0 0,6 -1,1 0,3 -1,1 -11,0 7,1 3,0 1,1 0,12 1,1 0,3 1,1 1,0 1,1 2,0 1,1 0,2 2,0 1,1 2,0 1,-1 3,0 1,1 0,2 2,0 1,1 2,0 1,1 3,0 1,1 1,0 1,-1 2,0 1,1 1,1 1,1 1,1 1,1 1,1 1,1 1,1 1,1 1,1 1,0 1,1 0,1 1,1 0,1 1,0 1,1 0,1 1,1 1,1 1,1 3,0 1,-1 0,0 1,-1 2,0 1,1 1,-1 1,-1 1,0 1,-1 1,-1 1,0 1,-1 1,-1 1,0 1,-1 1,-1 1,0 1,-1 1,-1 1,0 1,-1 1,-1 0,-2 1,-1 1,-1 1,0 1,-1 1,-1 2,0 1,1 1,-1 0,0 1,-1 2,0 0,-102 -9,0 -1,-1 -8,0 -1,1 -8,0 -1,-1 0,-2 -7,0 -1,1 -16,0 -1,1 -13,0 -1,-1 -2,0 -1,1 -2,0 0,2 -1,1 -1,0 0,2 -1,1 0,7 -1,1 -2,0 0,6 -1,1Z"/>
<path onmouseover="hoverPath(evt)" onmouseout="recoverPath(evt)" fill="rgb(243,242,233)" d="M  164,255l 67,0 0,-1 -1,-1 0,0 -1,-1 -1,1 -2,0 -1,-1 0,-2 -1,0 -1,-1 -1,-1 -1,0 -1,-1 -1,1 -2,0 -1,-1 -1,0 -1,-1 0,-2 -1,0 -1,-1 -1,-1 -1,0 -1,-1 -2,0 -1,-1 -1,0 -1,-1 -1,0 -1,-1 -1,0 -1,-1 -2,0 -1,-1 -1,0 -1,-1 -1,0 -1,-1 -2,0 -1,-1 -2,0 0,1 -1,1 0,2 -1,1 -1,1 -1,1 -1,0 -1,1 -1,0 -1,1 -1,0 -1,1 -1,0 -1,1 -1,1 -2,0 -1,-1 -1,1 0,2 -1,1 -1,0 -2,2 -1,0 -1,1 -1,0 -1,1 -1,0 -1,1 -1,0 -1,1 -1,0 0,1Z"/>
<path onmouseover="hoverPath(evt)" onmouseout="recoverPath(evt)" fill="rgb(244,243,235)" d="M  0,103l 0,72 11,0 1,1 17,0 1,1 20,0 1,1 20,0 1,1 16,0 1,1 25,0 1,1 21,0 1,1 10,0 1,1 10,0 1,-1 0,-7 1,-1 0,-7 1,-1 0,-7 1,-1 0,-8 1,-1 0,-7 1,-1 0,-7 1,-1 0,-10 1,-1 0,-5 1,-1 0,-11 -3,0 -1,-1 -6,0 -1,-1 -15,0 -1,-1 -31,0 -1,-1 -108,0Z"/>
<path onmouseover="hoverPath(evt)" onmouseout="recoverPath(evt)" fill="rgb(254,254,254)" d="M  109,99l 0,0 1,1 31,0 1,1 14,0 -14,-1 -29,-1Z"/>
<path onmouseover="hoverPath(evt)" onmouseout="recoverPath(evt)" fill="rgb(243,242,234)" d="M  82,246l 0,0 -1,1 -1,1 -1,1 -1,1 -1,1 0,1 -1,1 -1,1 0,1 81,0 0,-2 1,-1 1,0 1,-1 1,0 1,-1 1,0 1,-1 1,0 1,-1 1,0 1,-1 0,-2 1,-1 1,0 1,-1 1,-1 2,0 1,1 1,-1 0,-2 1,-1 1,0 1,-1 2,0 1,1 1,-1 1,0 1,-1 1,-1 0,-1 -1,-1 0,-2 -2,0 -1,-1 0,-2 -1,0 -1,-1 -1,1 -2,0 -1,-1 0,-2 -1,0 -1,-1 -2,0 -1,-1 -1,0 -1,-1 -1,0 -1,-1 -1,0 -1,-1 -1,0 -1,1 -2,0 -1,-1 0,-2 -2,0 -1,-1 -2,0 -1,-1 -1,0 -1,-1 -8,0 -1,1 -2,0 0,2 -1,1 -2,0 -1,-1 -1,1 -2,0 -1,1 -1,0 0,2 -1,1 -2,0 -1,-1 -1,1 -2,0 -1,1 -1,0 -1,1 -1,0 0,2 -1,1 -2,0 -1,-1 -1,1 -1,0 -1,1 -2,0 -1,1 -1,0 -1,1 -1,0 -1,1 -1,0 -1,1 -1,0 -1,1 -1,0 -1,1 -1,0 -1,1 -1,0 -1,1 -1,0 -1,1 -1,0 -1,1 -1,0 -1,1 -1,0 -1,1 -1,1 -1,0 -1,1 -1,1 -1,0 -1,1Z"/>
<path onmouseover="hoverPath(evt)" onmouseout="recoverPath(evt)" fill="rgb(244,242,235)" d="M  177,214l -1,0 -1,1 -1,1 -1,1 0,1 -1,1 1,0 1,1 1,0 1,1 1,0 1,1 2,0 1,1 1,0 1,1 1,0 1,1 1,0 1,-1 2,0 1,1 0,2 1,-1 2,0 1,1 0,2 1,0 1,1 2,0 1,1 1,-1 2,0 1,1 0,2 1,0 1,1 2,0 1,1 1,0 1,1 1,0 1,1 1,0 1,1 1,-1 2,0 1,1 0,2 1,0 1,1 1,0 1,1 1,1 1,0 1,1 4,0 1,1 1,1 0,1 1,1 1,0 1,1 1,0 1,1 0,1 1,1 1,1 0,2 17,0 0,-124 -1,0 -1,1 0,0 -1,1 -2,0 -1,-1 -1,1 -1,1 -1,0 -1,1 0,2 -1,1 -1,1 -1,1 -1,0 -1,1 -1,1 -1,0 -2,2 -1,0 -1,1 -1,1 -1,0 -1,1 -1,1 -1,0 -1,1 -1,1 -2,0 -1,-1 -1,1 0,2 -1,1 -1,0 0,1 -1,1 -1,0 -1,1 -1,1 -1,0 -1,1 0,1 -1,1 -2,0 -2,2 -1,0 -1,1 0,1 1,1 0,0 1,1 1,1 1,0 1,1 0,2 1,1 1,1 1,1 1,1 1,0 1,1 0,1 3,0 1,1 0,2 -1,1 -1,1 -1,1 -1,1 -2,0 -1,-1 -1,1 0,2 -1,1 -1,1 -1,0 -1,1 -1,1 -2,2 -1,0 -1,1 -1,1 -1,0 -1,1 -2,2 -1,0 -1,1 -1,1 -1,0 -1,1 -2,2 -1,0 -1,1 -1,1 -1,1 -1,0 -2,2 -1,0 -1,1 -1,1 0,1 -1,1 -2,0 -1,1 -1,1 -1,0 0,1 -1,1 75,20 0,2 -1,1 -2,0 -1,-1 0,-2 1,-1 2,0 1,1 -75,-20 70,23 0,2 -1,1 -1,0 -1,1 -1,0 -1,1 -2,0 -1,-1 0,2 -1,1 -2,0 -1,-1 0,-2 1,-1 3,0 0,-1 1,-1 1,0 1,-1 1,0 1,-1 2,0 1,1 -70,-23Z"/>
</svg>