<svg width="256" height="256" xmlns="http://www.w3.org/2000/svg"><script> 
var tempColor;
function hoverPath(evt){
obj = evt.target;
tempColor = obj.getAttribute("fill");
obj.setAttribute("fill","red");
//alert(tempColor);
//obj.setAttribute("stroke","red");}
function recoverPath(evt){
obj = evt.target;
obj.setAttribute("fill", tempColor);
//obj.setAttribute("stroke", tempColor);
}</script><path onmouseover="hoverPath(evt)" onmouseout="recoverPath(evt)" fill="rgb(243,242,234)" d="M  0,1l 0,13 13,0 1,1 19,0 1,1 17,0 1,1 12,0 1,1 15,0 1,1 12,0 1,1 14,0 1,1 18,0 1,1 17,0 1,1 18,0 1,1 16,0 1,1 13,0 1,1 15,0 1,1 18,0 1,1 15,0 1,1 8,0 0,-29 -254,0 -1,1Z"/>
<path onmouseover="hoverPath(evt)" onmouseout="recoverPath(evt)" fill="rgb(244,243,236)" d="M  0,20l 0,235 255,0 0,-221 -11,0 -1,-1 -17,0 -1,-1 -18,0 -1,-1 -13,0 -1,-1 -12,0 -1,-1 -17,0 -1,-1 -18,0 -1,-1 -17,0 -1,-1 -18,0 -1,-1 -13,0 -1,-1 -13,0 -1,-1 -15,0 -1,-1 -12,0 -1,-1 -18,0 -1,-1 -2,0 -1,-1 -15,0 -1,-1 -10,0Z"/>
<path onmouseover="hoverPath(evt)" onmouseout="recoverPath(evt)" fill="rgb(254,254,254)" d="M  30,18l 0,0 1,1 18,0 1,1 12,0 1,1 15,0 1,1 13,0 1,1 13,0 1,1 18,0 1,1 17,0 1,1 18,0 1,1 17,0 1,1 12,0 1,1 13,0 1,1 18,0 1,1 17,0 1,1 10,0 0,-1 -9,0 -1,-1 -15,0 -1,-1 -18,0 -1,-1 -15,0 -1,-1 -13,0 -1,-1 -16,0 -1,-1 -18,0 -1,-1 -17,0 -1,-1 -18,0 -1,-1 -14,0 -1,-1 -12,0 -1,-1 -15,0 -1,-1 -12,0 -1,-1 -17,0 -1,-1 -1,0 -1,1 -1,-1 -16,0 -1,-1 -12,0 12,1 0,0 16,1 1,-1 1,1Z"/>
</svg>